<?xml version="1.0" encoding="UTF-8" standalone="no"?>
<!-- Generator: Adobe Illustrator 15.1.0, SVG Export Plug-In . SVG Version: 6.00 Build 0)  -->

<svg
   xmlns:dc="http://purl.org/dc/elements/1.1/"
   xmlns:cc="http://creativecommons.org/ns#"
   xmlns:rdf="http://www.w3.org/1999/02/22-rdf-syntax-ns#"
   xmlns:svg="http://www.w3.org/2000/svg"
   xmlns="http://www.w3.org/2000/svg"
   xmlns:xlink="http://www.w3.org/1999/xlink"
   xmlns:sodipodi="http://sodipodi.sourceforge.net/DTD/sodipodi-0.dtd"
   xmlns:inkscape="http://www.inkscape.org/namespaces/inkscape"
   version="1.1"
   id="flash0.ai"
   x="0px"
   y="0px"
   width="256"
   height="256"
   viewBox="0 0 256 256"
   xml:space="preserve"
   sodipodi:docname="fried_noodles.svg"
   inkscape:version="0.92.4 (5da689c313, 2019-01-14)"><title
   id="title1131">Fried Noodles</title><metadata
   id="metadata324"><rdf:RDF><cc:Work
       rdf:about=""><dc:format>image/svg+xml</dc:format><dc:type
         rdf:resource="http://purl.org/dc/dcmitype/StillImage" /><dc:title>Fried Noodles</dc:title><cc:license
         rdf:resource="http://creativecommons.org/publicdomain/zero/1.0/" /><dc:creator><cc:Agent><dc:title>Glitch</dc:title></cc:Agent></dc:creator><dc:source>https://opengameart.org/node/20149</dc:source></cc:Work><cc:License
       rdf:about="http://creativecommons.org/publicdomain/zero/1.0/"><cc:permits
         rdf:resource="http://creativecommons.org/ns#Reproduction" /><cc:permits
         rdf:resource="http://creativecommons.org/ns#Distribution" /><cc:permits
         rdf:resource="http://creativecommons.org/ns#DerivativeWorks" /></cc:License></rdf:RDF></metadata><defs
   id="defs322"><linearGradient
     inkscape:collect="always"
     xlink:href="#SVGID_1_"
     id="linearGradient1072"
     gradientUnits="userSpaceOnUse"
     gradientTransform="matrix(1,-0.0031,0.0031,1,25.5376,25.5215)"
     x1="-21.8403"
     y1="-31.017599"
     x2="-5.8403001"
     y2="-31.017599" /></defs><sodipodi:namedview
   pagecolor="#ffffff"
   bordercolor="#666666"
   borderopacity="1"
   objecttolerance="10"
   gridtolerance="10"
   guidetolerance="10"
   inkscape:pageopacity="0"
   inkscape:pageshadow="2"
   inkscape:window-width="1920"
   inkscape:window-height="1025"
   id="namedview320"
   showgrid="false"
   inkscape:zoom="2.1389101"
   inkscape:cx="135.93125"
   inkscape:cy="116.04581"
   inkscape:window-x="-8"
   inkscape:window-y="-8"
   inkscape:window-maximized="1"
   inkscape:current-layer="flash0.ai"
   fit-margin-top="0"
   fit-margin-left="0"
   fit-margin-right="0"
   fit-margin-bottom="0" />
<symbol
   id="flash0.ai_Assets_x5F_2_x2F_Layer_45_x2F__x3C_Path_x3E__x5F_48"
   viewBox="0 -10.9 24.8 10.9"
   transform="translate(-6.8489997,217.28701)">
	<g
   id="Layer_1_2_">
		
			<linearGradient
   id="SVGID_1_"
   gradientUnits="userSpaceOnUse"
   x1="-21.8403"
   y1="-31.017599"
   x2="-5.8403001"
   y2="-31.017599"
   gradientTransform="matrix(1,-0.0031,0.0031,1,25.5376,25.5215)">
			<stop
   offset="0"
   style="stop-color:#FFFFFF"
   id="stop2" />
			<stop
   offset="1"
   style="stop-color:#000000"
   id="stop4" />
		</linearGradient>
		<path
   style="clip-rule:evenodd;fill:url(#linearGradient1072);fill-rule:evenodd"
   d="m 24.8,-1.5 -3.25,-9.4 -5.25,0.05 c -1.133,0.167 -2.4,0.467 -3.8,0.9 -1.467,0.467 -2.683,0.967 -3.65,1.5 C 5.717,-6.717 3.3,-4.783 1.6,-2.65 0.767,-1.617 0.233,-0.733 0,0 L 2.75,-0.5 C 7.617,-1.233 13.133,-1.6 19.3,-1.6 Z"
   id="path7"
   inkscape:connector-curvature="0" />
	</g>
</symbol>

<g
   id="g290"
   transform="matrix(6.8652816,0,0,6.8652816,-47.020314,-77.178809)">
		<path
   inkscape:connector-curvature="0"
   id="path158"
   d="m 41.763,29.563 0.149,-0.038 c -0.975,2.676 -3.074,4.862 -6.3,6.563 -3.274,1.751 -7.013,2.625 -11.212,2.625 -4.225,0 -7.987,-0.888 -11.287,-2.662 C 9.863,34.326 7.776,32.113 6.85,29.413 l 0.263,0.038 c 1,0.649 3.1,1.187 6.3,1.612 3.275,0.425 6.975,0.638 11.1,0.638 4.05,0 7.675,-0.2 10.875,-0.601 3.149,-0.4 5.274,-0.912 6.375,-1.537 z"
   style="clip-rule:evenodd;fill:#d7eaf2;fill-rule:evenodd" />
		<path
   inkscape:connector-curvature="0"
   id="path160"
   d="m 40.375,30.125 c -0.225,0.6 -0.587,1.225 -1.088,1.875 -0.949,1.274 -2.425,2.563 -4.425,3.862 -1.649,1.101 -3.587,1.912 -5.813,2.438 l -1.8,0.263 c 3.025,-0.926 5.2,-2.275 6.525,-4.05 0.575,-0.801 0.938,-1.538 1.087,-2.213 0.075,-0.625 0.125,-1.025 0.15,-1.2 2.276,-0.25 4.064,-0.576 5.364,-0.975 z"
   style="clip-rule:evenodd;fill:#bdd4de;fill-rule:evenodd" />
		
			<use
   x="0"
   id="use162"
   style="overflow:visible;opacity:0.44140003;enable-background:new"
   transform="matrix(0.75,0,0,-0.75,15.13675,193.46525)"
   y="-10.9"
   height="10.9"
   width="24.799999"
   xlink:href="#flash0.ai_Assets_x5F_2_x2F_Layer_45_x2F__x3C_Path_x3E__x5F_48" />
		<path
   inkscape:connector-curvature="0"
   id="path164"
   d="m 9.7,32.938 c 1.584,1.874 3.584,3.305 6,4.294 C 13.637,36.469 11.862,35.475 10.375,34.251 8.65,32.826 7.475,31.213 6.85,29.413 l 0.263,0.038 0.6,0.3 C 8.138,30.8 8.8,31.862 9.7,32.938 Z"
   style="clip-rule:evenodd;fill:#bdd4de;fill-rule:evenodd" />
		
			<linearGradient
   gradientTransform="matrix(0.75,0,0,0.75,6.8501,21.0498)"
   y2="10.2256"
   x2="46.150398"
   y1="10.2256"
   x1="1.1006"
   gradientUnits="userSpaceOnUse"
   id="SVGID_10_">
			<stop
   id="stop166"
   style="stop-color:#9CADB5"
   offset="0" />
			<stop
   id="stop168"
   style="stop-color:#E0E0E0"
   offset="1" />
		</linearGradient>
		<path
   inkscape:connector-curvature="0"
   id="path171"
   d="m 36.513,24.237 c 3.3,1.225 4.95,2.713 4.95,4.463 0,1.749 -1.65,3.249 -4.95,4.5 -3.3,1.25 -7.275,1.875 -11.925,1.875 -4.675,0 -8.662,-0.625 -11.962,-1.875 -3.3,-1.251 -4.95,-2.751 -4.95,-4.5 0,-1.75 1.65,-3.238 4.95,-4.463 3.3,-1.25 7.288,-1.875 11.962,-1.875 4.649,0 8.625,0.625 11.925,1.875 z"
   style="clip-rule:evenodd;fill:url(#SVGID_10_);fill-rule:evenodd" />
		<path
   inkscape:connector-curvature="0"
   id="path173"
   d="m 41.875,28.287 h -1.088 c -0.225,-1.55 -1.912,-2.862 -5.063,-3.938 -3.125,-1.074 -6.875,-1.612 -11.25,-1.612 -4.35,0 -8.087,0.538 -11.212,1.612 -3.15,1.075 -4.837,2.388 -5.063,3.938 H 6.925 c 0.4,-1.7 2.262,-3.125 5.587,-4.274 3.375,-1.15 7.337,-1.726 11.887,-1.726 4.575,0 8.538,0.575 11.887,1.726 3.327,1.149 5.19,2.574 5.589,4.274 z"
   style="clip-rule:evenodd;fill:#ffffff;fill-rule:evenodd" />
		
			<radialGradient
   gradientUnits="userSpaceOnUse"
   gradientTransform="matrix(-0.0816,0.7455,0.696,0.0879,37.9847,24.9813)"
   r="21.0124"
   cy="-21.6182"
   cx="2.3046999"
   id="SVGID_11_">
			<stop
   id="stop175"
   style="stop-color:#CFAF40"
   offset="0" />
			<stop
   id="stop177"
   style="stop-color:#8F7C2C"
   offset="1" />
		</radialGradient>
		<path
   inkscape:connector-curvature="0"
   id="path180"
   d="m 40.563,30.875 c -1.125,0.65 -2.75,1.362 -4.875,2.138 -3.075,1.125 -5.713,1.7 -7.912,1.725 -2.426,0.024 -5.05,-0.1 -7.875,-0.375 -2.65,-0.225 -4.637,-0.5 -5.962,-0.825 -1.125,-0.275 -2.225,-0.699 -3.3,-1.274 -0.95,-0.501 -1.45,-0.851 -1.5,-1.051 -0.025,-0.1 0.138,-0.3 0.487,-0.6 0.375,-0.325 0.575,-0.525 0.6,-0.6 0.4,-1.101 1.987,-2.05 4.763,-2.851 0.725,-0.2 1.462,-0.8 2.212,-1.8 0.7,-0.95 1.275,-1.438 1.725,-1.463 2.5,-0.2 4.437,-0.188 5.813,0.038 0.525,0.075 1.337,0.337 2.437,0.787 0.9,0.375 1.663,0.55 2.288,0.525 0.575,0 1.875,-0.088 3.899,-0.263 1.825,-0.075 2.95,0.075 3.375,0.45 0.65,0.625 1.313,1.375 1.987,2.25 0.801,1.074 1.188,1.8 1.163,2.175 0,0.275 0.25,0.463 0.75,0.563 0.325,0.076 0.3,0.225 -0.075,0.451 z"
   style="clip-rule:evenodd;fill:url(#SVGID_11_);fill-rule:evenodd" />
		<path
   inkscape:connector-curvature="0"
   id="path182"
   d="m 18.925,23.899 c 0.725,-0.125 0.85,0.051 0.375,0.525 -0.625,0.625 -0.85,1.013 -0.675,1.162 0.2,0.2 0.625,0.163 1.275,-0.112 0.6,-0.225 0.925,-0.275 0.975,-0.149 0.1,0.274 -0.087,0.512 -0.563,0.712 -0.55,0.226 -1.263,0.25 -2.137,0.075 -0.85,-0.15 -1.088,-0.538 -0.713,-1.162 0.375,-0.575 0.863,-0.925 1.463,-1.051 z"
   style="clip-rule:evenodd;fill:#786617;fill-rule:evenodd" />
		<path
   inkscape:connector-curvature="0"
   id="path184"
   d="m 19.788,27.537 c 0.375,-0.024 0.563,0.138 0.563,0.487 0,0.226 -0.05,0.575 -0.15,1.051 -0.05,0.35 -0.188,0.649 -0.413,0.899 -0.25,0.275 -0.538,0.388 -0.862,0.338 -0.275,-0.025 -0.725,-0.013 -1.35,0.037 l -0.9,0.075 c 0.075,-0.15 0.212,-0.3 0.412,-0.45 0.375,-0.324 0.85,-0.5 1.425,-0.524 0.5,-0.051 0.737,-0.362 0.712,-0.938 -0.025,-0.6 0.163,-0.924 0.563,-0.975 z"
   style="clip-rule:evenodd;fill:#786617;fill-rule:evenodd" />
		<path
   inkscape:connector-curvature="0"
   id="path186"
   d="m 34.713,27.912 c 0.899,0.226 1.1,0.638 0.6,1.237 -0.5,0.575 -1.263,0.726 -2.287,0.45 -0.976,-0.25 -1.138,-0.638 -0.488,-1.162 0.624,-0.549 1.35,-0.725 2.175,-0.525 z"
   style="clip-rule:evenodd;fill:#786617;fill-rule:evenodd" />
		<path
   inkscape:connector-curvature="0"
   id="path188"
   d="m 38.388,29.712 c -0.5,-0.249 -1.125,-0.612 -1.875,-1.087 -1,-0.625 -1.575,-0.988 -1.726,-1.088 -0.85,-0.475 -2.05,-0.65 -3.6,-0.524 -0.8,0.125 -1.45,0.212 -1.95,0.262 -0.899,0.075 -1.575,0.025 -2.024,-0.149 -0.2,-0.075 -0.45,-0.3 -0.75,-0.675 -0.2,-0.226 -0.688,-0.325 -1.463,-0.301 -0.7,0.025 -1.625,0.2 -2.775,0.525 -1.15,0.325 -1.962,0.5 -2.438,0.525 -0.925,0.05 -1.6,0.137 -2.025,0.262 -0.575,0.15 -1.013,0.45 -1.313,0.9 -0.45,0.65 -0.813,1.101 -1.087,1.35 -0.425,0.45 -0.9,0.713 -1.425,0.788 -0.625,0.1 -1.212,0.263 -1.762,0.487 -0.625,0.225 -0.95,0.425 -0.975,0.6 -0.071,0.196 -0.071,0.391 0,0.582 C 10.587,31.936 10.187,31.741 10,31.587 9.4,31.063 9.513,30.625 10.337,30.274 11.012,30 11.85,29.862 12.85,29.862 c 0.7,0 1.25,-0.15 1.65,-0.45 0.175,-0.125 0.488,-0.45 0.938,-0.975 0.2,-0.226 0.488,-0.601 0.863,-1.125 0.425,-0.4 1.087,-0.588 1.987,-0.563 0.85,0.024 1.65,-0.112 2.4,-0.413 0.4,-0.149 0.925,-0.375 1.575,-0.675 0.55,-0.149 0.987,-0.225 1.313,-0.225 0.4,0.024 1.05,0.137 1.95,0.337 0.35,0.075 0.8,0.325 1.35,0.75 0.3,0.25 1.101,0.325 2.4,0.226 1.125,-0.075 2.337,-0.188 3.637,-0.338 0.851,0 1.613,0.287 2.288,0.862 0.476,0.426 1.375,0.95 2.7,1.575 1.024,0.5 1.513,0.875 1.462,1.125 -0.05,0.55 -0.149,1.063 -0.3,1.538 -0.199,0.624 -0.387,0.8 -0.563,0.524 -0.075,-0.125 0.013,-0.512 0.263,-1.162 0.224,-0.548 0.1,-0.935 -0.375,-1.161 z m -8.588,0 C 28.875,29.337 28.237,29.088 27.888,28.962 27.287,28.787 26.813,28.8 26.463,29 c -0.175,0.1 -0.713,0.3 -1.613,0.6 -0.7,0.25 -1.163,0.487 -1.388,0.713 -0.475,0.6 -0.85,1.063 -1.125,1.388 -0.55,0.649 -0.987,1.024 -1.313,1.125 -0.5,0.149 -1.112,0.237 -1.837,0.262 -0.825,0.025 -1.35,-0.087 -1.575,-0.337 -0.275,-0.325 -0.488,-0.525 -0.638,-0.601 -0.225,-0.125 -0.625,-0.212 -1.2,-0.262 -0.575,-0.075 -1.175,0.037 -1.8,0.337 -0.575,0.275 -0.788,0.5 -0.638,0.675 l 0.019,0.02 c -0.468,-0.149 -0.887,-0.287 -1.256,-0.413 0.059,-0.038 0.121,-0.082 0.188,-0.131 0.575,-0.426 1.313,-0.813 2.212,-1.163 1,-0.375 1.725,-0.487 2.175,-0.337 0.225,0.05 0.575,0.399 1.05,1.05 0.375,0.5 0.862,0.688 1.462,0.563 0.825,-0.2 1.388,-0.388 1.688,-0.563 0.325,-0.225 0.625,-0.6 0.9,-1.125 0.775,-1.4 1.712,-2.1 2.813,-2.1 0.325,0 0.725,-0.175 1.2,-0.525 0.375,-0.25 0.876,-0.275 1.5,-0.075 1.101,0.351 2.263,0.65 3.488,0.9 0.475,0.125 1.138,0.137 1.987,0.037 0.675,-0.075 1.213,0.025 1.612,0.3 0.5,0.375 0.775,0.65 0.825,0.825 0,0.051 -0.063,0.362 -0.188,0.938 -0.075,0.325 0.063,0.838 0.412,1.538 0.251,0.5 0.238,0.774 -0.037,0.824 -0.274,0.025 -0.513,0.101 -0.713,0.226 -0.05,0.024 -0.1,-0.025 -0.149,-0.15 -0.051,-0.225 -0.088,-0.612 -0.113,-1.162 -0.049,-0.65 -0.037,-1.15 0.038,-1.5 0.2,-0.85 -0.274,-1.275 -1.425,-1.275 -0.15,0 -0.65,0.088 -1.5,0.263 -0.548,0.097 -1.124,0.047 -1.724,-0.153 z m -7.2,4.238 c -0.85,0.125 -1.35,0.2 -1.5,0.225 -0.3,0.1 -0.5,0.163 -0.6,0.188 -0.15,0.05 -0.5,0.075 -1.05,0.075 -0.297,0 -0.759,-0.069 -1.388,-0.206 0.313,-0.073 0.925,-0.255 1.837,-0.544 0.9,-0.275 1.587,-0.413 2.063,-0.413 0.9,0 1.388,0 1.463,0 0.4,-0.074 0.762,-0.313 1.087,-0.712 0.425,-0.5 1.087,-0.862 1.987,-1.088 0.975,-0.275 1.688,-0.225 2.138,0.15 0.825,0.65 1.8,1.013 2.925,1.087 0.275,0.025 0.612,0.088 1.013,0.188 0.425,0.1 0.688,0.2 0.787,0.3 0.15,0.1 0.15,0.3 0,0.6 -0.149,0.325 -0.375,0.45 -0.675,0.375 -0.225,-0.075 -0.662,-0.275 -1.313,-0.6 -0.774,-0.4 -1.337,-0.676 -1.688,-0.825 -0.875,-0.351 -1.412,-0.55 -1.612,-0.601 -0.575,-0.175 -1.088,-0.162 -1.538,0.038 -0.35,0.149 -0.762,0.399 -1.237,0.75 -0.45,0.35 -0.813,0.575 -1.087,0.675 -0.324,0.151 -0.862,0.263 -1.612,0.338 z M 11.2,32.169 c 0.259,0.106 0.56,0.219 0.9,0.337 -0.375,0.217 -0.637,0.187 -0.788,-0.094 -0.05,-0.079 -0.087,-0.16 -0.112,-0.243 z m 4.125,1.631 c -1.104,-0.368 -1.761,-0.662 -1.969,-0.881 0.362,0.11 0.756,0.229 1.181,0.355 1.483,0.447 2.658,0.766 3.525,0.957 -0.045,0.007 -0.082,0.013 -0.112,0.019 -0.525,0.075 -1.4,-0.075 -2.625,-0.45 z"
   style="clip-rule:evenodd;fill:#786617;fill-rule:evenodd" />
		<path
   inkscape:connector-curvature="0"
   id="path190"
   d="m 38.537,27.125 c -0.399,-0.55 -0.962,-0.888 -1.688,-1.013 -1.625,-0.325 -3.149,-0.525 -4.574,-0.6 -0.676,-0.051 -1.45,-0.375 -2.325,-0.976 -0.925,-0.625 -1.625,-0.975 -2.101,-1.05 -0.925,-0.3 -1.625,-0.5 -2.1,-0.6 -0.775,-0.15 -1.6,0.05 -2.475,0.6 -1.225,0.85 -2.087,1.438 -2.587,1.763 -0.8,0.524 -1.487,0.813 -2.063,0.862 -0.175,0.024 -1,-0.05 -2.475,-0.225 -1.025,-0.126 -1.762,-0.013 -2.212,0.337 -0.9,0.775 -1.55,1.325 -1.95,1.65 -0.675,0.6 -0.95,0.688 -0.825,0.263 0.625,-2.001 1.7,-3 3.225,-3 h 1.425 c 2.225,0.249 3.712,0.05 4.462,-0.601 0.9,-0.75 1.825,-1.375 2.775,-1.875 1.425,-0.774 2.575,-1.063 3.45,-0.862 0.575,0.15 1.45,0.65 2.625,1.5 1.101,0.774 2.112,1.225 3.037,1.35 0.876,0.126 1.976,0.288 3.301,0.488 1.024,0.175 1.824,0.412 2.399,0.712 0.675,0.375 1.237,0.813 1.688,1.313 0.476,0.55 0.688,1.025 0.638,1.425 -0.05,0.45 -0.487,0.925 -1.313,1.426 -0.85,0.524 -1.787,0.85 -2.813,0.975 -0.75,0.075 -1.563,0.438 -2.438,1.088 -0.825,0.624 -1.425,0.938 -1.8,0.938 h -1.2 c -0.15,-0.025 -0.225,-0.088 -0.225,-0.188 0,-0.175 0.375,-0.413 1.125,-0.713 0.6,-0.225 1.938,-0.713 4.012,-1.463 1.851,-0.725 2.913,-1.325 3.188,-1.8 0.328,-0.575 0.264,-1.149 -0.186,-1.724 z"
   style="clip-rule:evenodd;fill:#947e1c;fill-rule:evenodd" />
		
			<radialGradient
   gradientUnits="userSpaceOnUse"
   gradientTransform="matrix(-0.0818,0.7455,0.6961,0.0875,38.5836,25.0385)"
   r="19.7176"
   cy="-22.0317"
   cx="-0.80269998"
   id="SVGID_12_">
			<stop
   id="stop192"
   style="stop-color:#CFB351"
   offset="0" />
			<stop
   id="stop194"
   style="stop-color:#A68B18"
   offset="1" />
		</radialGradient>
		<path
   inkscape:connector-curvature="0"
   id="path197"
   d="m 38.275,26.825 c -0.426,-0.55 -0.988,-0.888 -1.688,-1.013 -1.625,-0.325 -3.15,-0.525 -4.575,-0.601 -0.675,-0.05 -1.45,-0.375 -2.325,-0.975 -0.949,-0.625 -1.662,-0.975 -2.138,-1.05 -0.925,-0.3 -1.612,-0.5 -2.063,-0.601 -0.774,-0.149 -1.6,0.051 -2.475,0.601 -1.25,0.85 -2.112,1.438 -2.587,1.763 -0.8,0.524 -1.5,0.812 -2.1,0.862 -0.175,0.024 -0.987,-0.051 -2.438,-0.226 -1.05,-0.1 -1.788,0.013 -2.212,0.338 -0.9,0.774 -1.55,1.325 -1.95,1.65 -0.7,0.6 -0.988,0.688 -0.862,0.262 0.3,-0.975 0.737,-1.712 1.313,-2.212 0.55,-0.525 1.187,-0.788 1.912,-0.788 h 1.463 c 2.225,0.25 3.712,0.051 4.462,-0.6 0.85,-0.726 1.775,-1.35 2.775,-1.875 1.425,-0.774 2.575,-1.063 3.45,-0.862 0.575,0.149 1.45,0.65 2.625,1.5 1.101,0.8 2.113,1.262 3.038,1.388 2.125,0.274 3.225,0.425 3.3,0.449 1,0.175 1.788,0.413 2.362,0.713 0.7,0.375 1.275,0.813 1.725,1.313 0.45,0.55 0.65,1.025 0.601,1.425 -0.05,0.45 -0.475,0.925 -1.275,1.425 -0.874,0.55 -1.812,0.876 -2.813,0.976 -0.774,0.075 -1.587,0.438 -2.438,1.087 -0.825,0.625 -1.425,0.938 -1.8,0.938 h -1.237 l 0.862,-0.675 c 0.7,-0.524 1.425,-0.938 2.175,-1.237 0.601,-0.225 1.588,-0.538 2.963,-0.938 1.149,-0.399 1.862,-0.838 2.138,-1.313 0.324,-0.574 0.262,-1.149 -0.188,-1.724 z"
   style="clip-rule:evenodd;fill:url(#SVGID_12_);fill-rule:evenodd" />
		<path
   inkscape:connector-curvature="0"
   id="path199"
   d="m 38.35,27.462 c -0.824,0 -1.662,-0.35 -2.512,-1.05 C 35.412,26.063 34.8,25.425 34,24.5 c -0.45,-0.55 -1.237,-0.788 -2.362,-0.713 -0.976,0.051 -1.813,0.287 -2.513,0.713 -0.975,0.55 -1.688,1.05 -2.138,1.5 -0.625,0.625 -0.438,0.912 0.563,0.862 0.226,0 1.088,-0.2 2.588,-0.6 0.725,-0.2 1.425,0 2.1,0.6 0.55,0.525 1.163,1.149 1.838,1.875 0.55,0.45 1.237,0.625 2.063,0.525 1.025,-0.15 1.888,0.1 2.587,0.75 0.726,0.624 0.563,1.162 -0.487,1.612 -0.925,0.399 -1.5,0.563 -1.725,0.487 l -0.038,-0.225 0.938,-0.563 c 0.476,-0.426 0.413,-0.763 -0.188,-1.013 -0.424,-0.175 -1.074,-0.287 -1.949,-0.338 -0.7,-0.024 -1.238,-0.188 -1.613,-0.487 -0.624,-0.675 -1.1,-1.175 -1.425,-1.5 -0.575,-0.625 -1.138,-0.962 -1.688,-1.013 -0.425,-0.024 -1.037,0.038 -1.837,0.188 -0.9,0.2 -1.688,0.3 -2.363,0.3 -0.375,0 -1.112,0.113 -2.212,0.338 -0.525,0.125 -0.9,-0.024 -1.125,-0.45 -0.05,-0.1 -0.35,-0.813 -0.9,-2.138 -0.4,-0.95 -0.738,-1.55 -1.013,-1.8 -0.525,-0.5 -1.125,-0.787 -1.8,-0.862 -0.9,-0.15 -1.45,0.3 -1.65,1.35 -0.175,0.976 0.138,1.862 0.938,2.663 0.45,0.425 1.138,1 2.063,1.725 1.325,1.4 1.775,2.313 1.35,2.737 -0.45,0.501 -0.763,0.801 -0.938,0.9 -0.575,0.275 -1.337,0.263 -2.288,-0.037 -0.925,-0.301 -1.95,-0.775 -3.075,-1.426 -1.1,-0.675 -1.813,-1.112 -2.138,-1.313 -0.5,-0.3 -1.212,-0.412 -2.137,-0.337 -0.9,0.1 -1.413,0.324 -1.538,0.675 -0.1,0.351 0.087,0.675 0.563,0.975 0.45,0.275 1.075,0.488 1.875,0.638 0.5,0.1 1.063,0.2 1.688,0.3 0.525,0.075 1.112,0.238 1.762,0.488 0.175,0.074 0.875,0.637 2.1,1.688 0.85,0.75 1.675,0.938 2.475,0.563 0.45,-0.2 1.212,-0.925 2.288,-2.176 0.875,-1.024 1.888,-1.612 3.037,-1.762 1.001,-0.101 1.938,-0.213 2.813,-0.338 0.525,0.024 1.325,0.3 2.4,0.825 0.875,0.425 1.662,0.699 2.362,0.825 0.4,0.074 0.65,0.2 0.75,0.375 0.225,0.399 1.013,0.875 2.362,1.425 l -1.688,0.45 c 0.025,-0.126 -0.037,-0.275 -0.188,-0.45 -0.274,-0.351 -0.8,-0.675 -1.575,-0.976 -1.1,-0.475 -1.862,-0.8 -2.287,-0.975 -0.75,-0.325 -1.438,-0.513 -2.063,-0.563 -0.75,-0.05 -1.55,0.024 -2.4,0.225 -0.75,0.175 -1.399,0.413 -1.95,0.713 -0.375,0.225 -0.85,0.675 -1.425,1.35 -0.6,0.726 -0.938,1.112 -1.013,1.163 -0.9,0.75 -1.937,0.95 -3.112,0.6 -0.525,-0.149 -1.125,-0.5 -1.8,-1.05 -0.65,-0.55 -1.313,-0.913 -1.988,-1.088 -1.325,-0.324 -2.3,-0.575 -2.925,-0.75 -1.125,-0.324 -1.925,-0.637 -2.4,-0.938 C 8.375,30.3 7.825,29.612 7.9,28.962 c 0.1,-0.85 0.875,-1.399 2.325,-1.649 1.45,-0.25 2.637,-0.075 3.563,0.524 0.6,0.4 1.4,1.025 2.4,1.875 1.025,0.7 2.225,1.138 3.6,1.313 1.45,0.2 1.75,-0.225 0.9,-1.274 -0.275,-0.351 -1.287,-1.351 -3.038,-3 -0.975,-0.925 -1.5,-1.75 -1.575,-2.476 -0.075,-0.775 0.338,-1.538 1.238,-2.288 0.9,-0.726 1.888,-0.875 2.962,-0.45 1,0.4 1.8,1.15 2.4,2.25 0.375,0.675 0.6,1.538 0.675,2.588 0.125,0.524 0.675,0.45 1.65,-0.226 2.1,-1.425 3.513,-2.324 4.237,-2.699 1.751,-0.9 3.088,-1.15 4.013,-0.75 0.775,0.35 1.263,0.763 1.463,1.237 0.3,0.65 0.662,1.149 1.087,1.5 1.275,1.074 2.676,1.4 4.2,0.975 0.475,-0.149 1.113,0.075 1.912,0.675 0.801,0.601 1.238,0.888 1.313,0.863 0.45,-0.15 0.738,-0.175 0.863,-0.075 0.05,0.05 0.063,0.112 0.037,0.188 0,0.625 -0.188,0.938 -0.563,0.938 -0.15,0 -0.438,-0.226 -0.862,-0.675 -0.425,-0.501 -0.8,-0.788 -1.125,-0.863 -0.351,-0.074 -0.763,-0.1 -1.237,-0.074 -0.925,0.049 -1.588,0.073 -1.988,0.073 z"
   style="clip-rule:evenodd;fill:#786617;fill-rule:evenodd" />
		
			<radialGradient
   gradientUnits="userSpaceOnUse"
   gradientTransform="matrix(-0.0817,0.7455,0.6961,0.0878,38.3353,25.0224)"
   r="24.4454"
   cy="-21.8608"
   cx="-0.99269998"
   id="SVGID_13_">
			<stop
   id="stop201"
   style="stop-color:#B39B46"
   offset="0" />
			<stop
   id="stop203"
   style="stop-color:#998117"
   offset="1" />
		</radialGradient>
		<path
   inkscape:connector-curvature="0"
   id="path206"
   d="m 38.125,27.237 c -0.825,0 -1.662,-0.351 -2.513,-1.05 -0.45,-0.375 -1.062,-1.025 -1.837,-1.95 -0.45,-0.525 -1.226,-0.763 -2.325,-0.713 -0.976,0.075 -1.825,0.313 -2.55,0.713 -0.95,0.55 -1.662,1.05 -2.138,1.5 -0.649,0.65 -0.462,0.95 0.563,0.9 0.225,0 1.087,-0.2 2.587,-0.601 0.726,-0.2 1.426,0 2.101,0.601 0.55,0.524 1.162,1.149 1.837,1.875 0.55,0.426 1.238,0.588 2.062,0.488 1.025,-0.125 1.888,0.125 2.588,0.75 0.726,0.65 0.563,1.2 -0.487,1.649 -0.925,0.4 -1.5,0.55 -1.726,0.45 L 36.25,31.624 37.188,31.099 C 37.663,30.674 37.6,30.336 37,30.086 c -0.425,-0.175 -1.075,-0.287 -1.95,-0.337 -0.699,-0.025 -1.237,-0.188 -1.612,-0.487 -0.625,-0.676 -1.1,-1.188 -1.425,-1.538 -0.575,-0.6 -1.138,-0.925 -1.688,-0.975 -0.425,-0.025 -1.037,0.037 -1.838,0.188 -0.899,0.2 -1.688,0.3 -2.362,0.3 -0.375,0 -1.112,0.112 -2.212,0.338 -0.525,0.1 -0.9,-0.051 -1.125,-0.45 -0.05,-0.1 -0.35,-0.813 -0.9,-2.138 -0.4,-0.95 -0.737,-1.55 -1.013,-1.8 -0.525,-0.5 -1.125,-0.801 -1.8,-0.9 -0.9,-0.125 -1.45,0.325 -1.65,1.351 -0.175,0.999 0.137,1.888 0.938,2.662 0.45,0.45 1.15,1.037 2.1,1.763 1.275,1.4 1.712,2.313 1.313,2.737 -0.45,0.475 -0.762,0.763 -0.938,0.862 -0.575,0.275 -1.337,0.263 -2.287,-0.037 -0.925,-0.3 -1.95,-0.775 -3.075,-1.425 -1.1,-0.676 -1.813,-1.112 -2.138,-1.313 -0.5,-0.301 -1.212,-0.4 -2.137,-0.301 -0.9,0.101 -1.413,0.325 -1.538,0.676 -0.1,0.35 0.1,0.675 0.6,0.975 0.45,0.275 1.063,0.487 1.837,0.638 0.025,0 0.587,0.088 1.688,0.263 0.55,0.074 1.137,0.237 1.763,0.487 0.2,0.075 0.913,0.65 2.137,1.725 0.825,0.75 1.638,0.938 2.438,0.563 0.425,-0.225 1.188,-0.962 2.288,-2.212 0.875,-1.025 1.887,-1.601 3.038,-1.726 1.85,-0.225 2.787,-0.337 2.813,-0.337 0.5,0 1.3,0.274 2.399,0.824 0.876,0.426 1.663,0.688 2.363,0.788 0.4,0.075 0.649,0.2 0.75,0.375 0.223,0.399 1.01,0.875 2.361,1.425 l -1.688,0.487 c 0.024,-0.125 -0.038,-0.275 -0.188,-0.45 -0.274,-0.35 -0.8,-0.675 -1.575,-0.975 -1.1,-0.475 -1.862,-0.8 -2.287,-0.975 -0.75,-0.325 -1.438,-0.513 -2.063,-0.563 -0.75,-0.051 -1.538,0.013 -2.363,0.188 -0.8,0.2 -1.462,0.449 -1.987,0.75 -0.375,0.225 -0.85,0.675 -1.425,1.35 -0.625,0.726 -0.962,1.112 -1.012,1.162 -0.925,0.7 -1.962,0.9 -3.113,0.601 -0.5,-0.15 -1.1,-0.513 -1.8,-1.088 -0.65,-0.55 -1.313,-0.899 -1.988,-1.05 -1.325,-0.325 -2.3,-0.575 -2.925,-0.75 C 10.6,31.412 9.8,31.1 9.325,30.8 8.175,30.074 7.625,29.375 7.675,28.7 7.775,27.875 8.55,27.337 10,27.087 c 1.45,-0.274 2.638,-0.112 3.563,0.488 0.6,0.399 1.4,1.024 2.4,1.875 1.025,0.699 2.225,1.149 3.6,1.35 1.45,0.2 1.75,-0.225 0.9,-1.275 -0.35,-0.449 -1.362,-1.449 -3.037,-3 -0.975,-0.925 -1.5,-1.749 -1.575,-2.475 -0.075,-0.774 0.35,-1.537 1.275,-2.287 0.9,-0.75 1.888,-0.9 2.962,-0.45 0.975,0.375 1.763,1.112 2.363,2.212 0.05,0.075 0.275,0.938 0.675,2.588 0.125,0.525 0.675,0.463 1.65,-0.188 2.025,-1.4 3.438,-2.313 4.238,-2.737 1.75,-0.9 3.088,-1.138 4.013,-0.713 0.775,0.351 1.262,0.763 1.462,1.237 0.3,0.65 0.663,1.15 1.088,1.5 1.274,1.101 2.688,1.413 4.237,0.938 0.575,-0.149 1.125,-0.112 1.65,0.113 0.5,0.225 0.837,0.55 1.012,0.975 0.226,0.55 0.701,0.75 1.426,0.6 0,0.625 -0.188,0.938 -0.563,0.938 -0.15,0 -0.438,-0.225 -0.863,-0.675 -0.424,-0.5 -0.799,-0.787 -1.125,-0.862 -0.35,-0.1 -0.762,-0.138 -1.237,-0.112 -0.926,0.073 -1.589,0.11 -1.989,0.11 z"
   style="clip-rule:evenodd;fill:url(#SVGID_13_);fill-rule:evenodd" />
		<path
   inkscape:connector-curvature="0"
   id="path208"
   d="m 38.725,28.362 c 0.676,0.275 1.138,0.587 1.388,0.938 0.325,0.425 0.388,0.962 0.188,1.612 -0.1,0.325 -0.237,0.601 -0.412,0.825 l -1.163,0.675 0.788,-1.5 c 0.35,-0.625 0.037,-1.274 -0.938,-1.95 -0.351,-0.249 -1.237,-0.725 -2.663,-1.425 -0.699,-0.6 -1.237,-0.962 -1.612,-1.087 -0.6,-0.15 -1.75,0.225 -3.45,1.125 -1.6,0.85 -3.236,1.274 -4.912,1.274 -1.775,0.025 -2.675,0.038 -2.7,0.038 -0.375,0.175 -1.025,0.1 -1.95,-0.226 -1.075,-0.375 -1.95,-0.55 -2.625,-0.524 -0.875,0.024 -1.612,0.337 -2.212,0.938 -0.1,0.125 -0.45,0.624 -1.05,1.5 -0.175,0.249 -0.487,0.612 -0.938,1.087 -0.325,0.45 -0.375,0.938 -0.15,1.463 0.225,0.524 0.875,0.962 1.95,1.313 0.525,0.2 1.025,0.337 1.5,0.412 -0.35,0.075 -1.275,-0.088 -2.775,-0.487 -1.95,-0.525 -2.525,-1.4 -1.725,-2.625 0.2,-0.275 0.462,-0.538 0.788,-0.787 0.275,-0.226 0.575,-0.638 0.9,-1.238 0.525,-0.95 1.375,-1.675 2.55,-2.175 1.4,-0.575 2.825,-0.524 4.275,0.15 0.45,0.225 0.9,0.362 1.35,0.412 0.25,0.025 0.788,0.038 1.613,0.038 1.85,0 3.2,-0.188 4.049,-0.563 0.326,-0.126 1.088,-0.463 2.288,-1.013 1.149,-0.475 2.013,-0.713 2.587,-0.713 0.65,0 1.2,0.112 1.65,0.338 0.325,0.175 0.85,0.563 1.575,1.162 0.398,0.326 1.011,0.663 1.836,1.013 z"
   style="clip-rule:evenodd;fill:#786617;fill-rule:evenodd" />
		
			<radialGradient
   gradientUnits="userSpaceOnUse"
   gradientTransform="matrix(-0.0819,0.7455,0.696,0.0876,41.6015,25.423)"
   r="17.982401"
   cy="-24.128901"
   cx="4.0609999"
   id="SVGID_14_">
			<stop
   id="stop210"
   style="stop-color:#B39B46"
   offset="0" />
			<stop
   id="stop212"
   style="stop-color:#998117"
   offset="1" />
		</radialGradient>
		<path
   inkscape:connector-curvature="0"
   id="path215"
   d="m 38.5,27.987 c 0.675,0.3 1.138,0.625 1.388,0.975 0.325,0.426 0.388,0.963 0.188,1.613 -0.1,0.324 -0.226,0.6 -0.375,0.824 l -1.2,0.638 0.787,-1.462 c 0.351,-0.65 0.038,-1.313 -0.938,-1.988 -0.249,-0.175 -1.137,-0.649 -2.662,-1.425 -0.7,-0.6 -1.237,-0.95 -1.612,-1.05 -0.601,-0.15 -1.75,0.225 -3.45,1.125 -1.6,0.85 -3.237,1.275 -4.912,1.275 -1.75,0 -2.65,0.013 -2.7,0.037 -0.375,0.15 -1.025,0.063 -1.95,-0.263 -1.075,-0.375 -1.95,-0.55 -2.625,-0.524 -0.875,0.024 -1.612,0.35 -2.212,0.975 -0.05,0.05 -0.4,0.538 -1.05,1.463 -0.175,0.274 -0.488,0.649 -0.938,1.125 -0.325,0.425 -0.375,0.899 -0.15,1.425 0.225,0.524 0.875,0.975 1.95,1.35 0.525,0.2 1.025,0.338 1.5,0.413 -0.35,0.074 -1.275,-0.088 -2.775,-0.488 -1.95,-0.524 -2.525,-1.399 -1.725,-2.625 0.2,-0.3 0.462,-0.575 0.788,-0.824 0.275,-0.2 0.575,-0.601 0.9,-1.2 0.55,-0.976 1.4,-1.7 2.55,-2.175 1.4,-0.601 2.825,-0.55 4.275,0.149 0.45,0.226 0.9,0.351 1.35,0.375 0.175,0.025 0.713,0.038 1.613,0.038 1.899,0 3.25,-0.175 4.05,-0.525 0.325,-0.125 1.088,-0.463 2.287,-1.013 1.15,-0.475 2.014,-0.712 2.588,-0.712 0.65,0 1.2,0.112 1.65,0.337 0.3,0.15 0.824,0.525 1.574,1.125 0.399,0.325 1.011,0.662 1.836,1.012 z"
   style="clip-rule:evenodd;fill:url(#SVGID_14_);fill-rule:evenodd" />
		
			<radialGradient
   gradientUnits="userSpaceOnUse"
   gradientTransform="matrix(-0.0819,0.7455,0.696,0.0876,44.8299,25.8283)"
   r="16.486099"
   cy="-26.3706"
   cx="4.2831998"
   id="SVGID_15_">
			<stop
   id="stop217"
   style="stop-color:#B39B46"
   offset="0" />
			<stop
   id="stop219"
   style="stop-color:#998117"
   offset="1" />
		</radialGradient>
		<path
   inkscape:connector-curvature="0"
   id="path222"
   d="m 39.287,30.575 c -0.524,-0.801 -1.25,-1.75 -2.175,-2.851 -0.45,-0.55 -0.813,-0.887 -1.087,-1.013 -0.375,-0.2 -0.813,-0.162 -1.313,0.113 -0.676,0.399 -1.238,0.837 -1.688,1.313 -0.575,0.624 -0.825,1.199 -0.75,1.725 0.274,1.7 0.412,2.862 0.412,3.487 0,1.225 -1.938,1.763 -5.813,1.612 -0.35,0 -0.412,-0.637 -0.188,-1.912 0.25,-1.425 -0.088,-2.375 -1.013,-2.85 -0.975,-0.476 -1.825,-0.476 -2.55,0 -1.125,0.75 -1.85,1.149 -2.175,1.199 -0.95,0.15 -1.825,0.476 -2.625,0.976 -0.7,0.45 -1.188,0.899 -1.462,1.35 -0.325,0.525 -0.75,0.737 -1.275,0.638 0.125,-0.275 0.313,-0.6 0.563,-0.975 0.5,-0.7 1.1,-1.213 1.8,-1.538 0.375,-0.2 1.263,-0.563 2.663,-1.087 1.05,-0.4 1.75,-0.75 2.1,-1.051 0.45,-0.399 1.063,-0.624 1.838,-0.675 0.775,-0.024 1.437,0.138 1.987,0.487 1.051,0.7 1.575,1.801 1.575,3.301 0,0.824 0.013,1.25 0.038,1.274 0.074,0.25 0.449,0.388 1.125,0.413 0.85,0.074 1.574,-0.075 2.175,-0.45 0.675,-0.4 0.899,-0.963 0.675,-1.688 -0.375,-0.925 -0.625,-1.588 -0.75,-1.987 -0.175,-0.676 -0.063,-1.288 0.338,-1.838 0.649,-1 1.5,-1.763 2.55,-2.287 1.375,-0.7 2.438,-0.513 3.188,0.563 0.774,1.125 1.3,1.824 1.575,2.1 0.074,0.1 0.274,0.275 0.6,0.525 0.325,0.225 0.487,0.812 0.487,1.762 l -0.524,0.469 c 0.118,-0.283 0.017,-0.651 -0.301,-1.105 z"
   style="clip-rule:evenodd;fill:url(#SVGID_15_);fill-rule:evenodd" />
		<path
   inkscape:connector-curvature="0"
   id="path224"
   d="m 18.438,21.649 c 0.225,0 0.225,0.063 0,0.188 -0.5,0.275 -0.813,0.463 -0.938,0.563 -0.5,0.4 -0.75,1.176 -0.75,2.325 0,0.275 -0.075,0.275 -0.225,0 -0.125,-0.275 -0.175,-0.662 -0.15,-1.162 0.025,-0.5 0.275,-0.95 0.75,-1.351 0.425,-0.375 0.863,-0.563 1.313,-0.563 z"
   style="clip-rule:evenodd;fill:#edd37b;fill-rule:evenodd" />
		<path
   inkscape:connector-curvature="0"
   id="path226"
   d="m 10.15,27.35 c 0.55,0 1.025,0.088 1.425,0.263 0.4,0.175 0.45,0.263 0.15,0.263 -0.1,0 -0.512,0.088 -1.237,0.263 -0.7,0.2 -1.212,0.287 -1.538,0.262 C 8.5,28.377 8.475,28.201 8.875,27.877 9.275,27.524 9.7,27.35 10.15,27.35 Z"
   style="clip-rule:evenodd;fill:#edd37b;fill-rule:evenodd" />
		<path
   inkscape:connector-curvature="0"
   id="path228"
   d="m 22.45,24.162 c 0.225,0.65 0.262,0.963 0.112,0.938 -0.175,-0.024 -0.313,-0.237 -0.413,-0.638 -0.075,-0.35 -0.075,-0.575 0,-0.675 0.076,-0.075 0.176,0.051 0.301,0.375 z"
   style="clip-rule:evenodd;fill:#edd37b;fill-rule:evenodd" />
		<path
   inkscape:connector-curvature="0"
   id="path230"
   d="m 25.862,21.8 c 0.325,0.024 0.575,0.15 0.75,0.375 0.15,0.225 0.051,0.275 -0.3,0.15 -0.225,-0.075 -0.574,-0.101 -1.05,-0.075 -0.475,0.05 -0.763,0.063 -0.863,0.037 -0.175,-0.075 -0.062,-0.175 0.338,-0.3 0.425,-0.15 0.8,-0.212 1.125,-0.187 z"
   style="clip-rule:evenodd;fill:#edd37b;fill-rule:evenodd" />
		<path
   inkscape:connector-curvature="0"
   id="path232"
   d="m 32.5,22.55 c 0.325,0.1 0.475,0.225 0.45,0.375 -0.025,0.15 -0.2,0.163 -0.525,0.037 -0.225,-0.1 -0.638,-0.05 -1.237,0.15 -0.55,0.175 -0.888,0.225 -1.013,0.15 -0.2,-0.126 0.051,-0.301 0.75,-0.525 0.675,-0.224 1.2,-0.287 1.575,-0.187 z"
   style="clip-rule:evenodd;fill:#edd37b;fill-rule:evenodd" />
		<path
   inkscape:connector-curvature="0"
   id="path234"
   d="m 24.962,26.3 c 0.45,-0.125 0.613,-0.037 0.488,0.263 -0.125,0.3 -0.413,0.45 -0.863,0.45 -0.425,0 -0.525,-0.101 -0.3,-0.301 0.176,-0.2 0.401,-0.337 0.675,-0.412 z"
   style="clip-rule:evenodd;fill:#edd37b;fill-rule:evenodd" />
		<path
   inkscape:connector-curvature="0"
   id="path236"
   d="m 40.45,26.412 c 0.625,0.025 0.763,0.125 0.412,0.3 -0.35,0.15 -0.687,0.213 -1.013,0.188 -0.274,-0.024 -0.313,-0.125 -0.112,-0.3 0.175,-0.15 0.413,-0.212 0.713,-0.188 z"
   style="clip-rule:evenodd;fill:#edd37b;fill-rule:evenodd" />
		<path
   inkscape:connector-curvature="0"
   id="path238"
   d="m 19.413,27.125 c 0.525,0.1 0.638,0.175 0.337,0.225 -0.275,0.025 -0.6,0 -0.975,-0.075 -0.225,-0.05 -0.65,0.013 -1.275,0.188 -0.45,0.126 -0.612,0.138 -0.487,0.038 0.2,-0.15 0.563,-0.263 1.087,-0.338 0.525,-0.1 0.963,-0.113 1.313,-0.038 z"
   style="clip-rule:evenodd;fill:#edd37b;fill-rule:evenodd" />
		<path
   inkscape:connector-curvature="0"
   id="path240"
   d="m 13.075,25.287 c 0.325,-0.075 0.537,-0.088 0.637,-0.037 0.125,0.024 0.038,0.088 -0.262,0.188 -0.2,0.075 -0.463,0.3 -0.788,0.675 -0.274,0.325 -0.462,0.437 -0.562,0.337 -0.125,-0.126 -0.038,-0.338 0.263,-0.638 0.275,-0.299 0.512,-0.474 0.712,-0.525 z"
   style="clip-rule:evenodd;fill:#edd37b;fill-rule:evenodd" />
		<path
   inkscape:connector-curvature="0"
   id="path242"
   d="m 26.125,29.6 c 0.2,0.1 0.425,0.275 0.675,0.525 0.226,0.275 0.362,0.524 0.413,0.75 0.074,0.425 -0.162,0.237 -0.713,-0.563 -0.15,-0.226 -0.45,-0.388 -0.9,-0.487 -0.449,-0.15 -0.712,-0.25 -0.787,-0.301 -0.15,-0.125 -0.063,-0.188 0.263,-0.188 0.324,0.026 0.674,0.114 1.049,0.264 z"
   style="clip-rule:evenodd;fill:#edd37b;fill-rule:evenodd" />
		<path
   inkscape:connector-curvature="0"
   id="path244"
   d="m 28.938,29.862 c 0.45,0.05 0.6,0.15 0.45,0.3 -0.15,0.125 -0.362,0.138 -0.638,0.038 -0.25,-0.075 -0.338,-0.163 -0.263,-0.263 0.076,-0.075 0.226,-0.099 0.451,-0.075 z"
   style="clip-rule:evenodd;fill:#edd37b;fill-rule:evenodd" />
		<path
   inkscape:connector-curvature="0"
   id="path246"
   d="m 23.613,30.8 c 0.4,-0.25 0.337,-0.05 -0.188,0.6 -0.525,0.625 -0.85,0.888 -0.975,0.788 -0.125,-0.1 -0.013,-0.325 0.337,-0.675 0.276,-0.301 0.551,-0.538 0.826,-0.713 z"
   style="clip-rule:evenodd;fill:#edd37b;fill-rule:evenodd" />
		<path
   inkscape:connector-curvature="0"
   id="path248"
   d="m 33.888,26.675 c 0.325,-0.15 0.313,-0.063 -0.038,0.263 -0.524,0.475 -0.887,0.8 -1.087,0.975 -0.25,0.226 -0.438,0.538 -0.563,0.938 -0.15,0.475 -0.237,0.726 -0.263,0.75 -0.15,0.3 -0.188,0.063 -0.112,-0.712 0.024,-0.351 0.325,-0.788 0.899,-1.313 C 33.2,27.1 33.588,26.8 33.888,26.675 Z"
   style="clip-rule:evenodd;fill:#edd37b;fill-rule:evenodd" />
		<path
   inkscape:connector-curvature="0"
   id="path250"
   d="m 37.675,29.825 c 0.025,0.074 -0.112,0.062 -0.412,-0.038 -0.4,-0.175 -0.713,-0.275 -0.938,-0.3 C 35.1,29.412 34.35,29.275 34.075,29.075 33.976,29 34.013,28.975 34.188,29 c 0.375,0.075 0.7,0.1 0.975,0.075 0.525,-0.025 1.076,0.062 1.65,0.262 0.55,0.175 0.837,0.338 0.862,0.488 z"
   style="clip-rule:evenodd;fill:#edd37b;fill-rule:evenodd" />
		<path
   inkscape:connector-curvature="0"
   id="path252"
   d="m 36.737,31.737 c -0.274,0 -0.35,-0.088 -0.225,-0.263 0.125,-0.175 0.325,-0.263 0.6,-0.263 0.875,0.025 1.125,0.113 0.75,0.263 -0.349,0.175 -0.724,0.263 -1.125,0.263 z"
   style="clip-rule:evenodd;fill:#edd37b;fill-rule:evenodd" />
		<path
   inkscape:connector-curvature="0"
   id="path254"
   d="m 15.438,27.274 c 0.525,0.051 0.563,0.175 0.113,0.375 -0.425,0.226 -0.725,0.238 -0.9,0.038 -0.276,-0.275 -0.013,-0.413 0.787,-0.413 z"
   style="clip-rule:evenodd;fill:#e3c662;fill-rule:evenodd" />
		<path
   inkscape:connector-curvature="0"
   id="path256"
   d="m 11.913,29 c 0.4,0 0.738,0.075 1.013,0.225 0.25,0.125 0.337,0.25 0.262,0.375 -0.05,0.1 -0.325,0.175 -0.825,0.226 -0.5,0.05 -0.875,0.037 -1.125,-0.038 -0.275,-0.075 -0.325,-0.225 -0.15,-0.45 C 11.238,29.112 11.513,29 11.913,29 Z"
   style="clip-rule:evenodd;fill:#e3c662;fill-rule:evenodd" />
		<path
   inkscape:connector-curvature="0"
   id="path258"
   d="m 18.438,28.399 c 0.475,-0.024 0.663,0.063 0.563,0.263 -0.125,0.2 -0.362,0.338 -0.712,0.413 -0.375,0.149 -0.65,0.249 -0.825,0.3 -0.275,0.1 -0.538,0.1 -0.787,0 -0.275,-0.1 -0.163,-0.287 0.337,-0.563 0.499,-0.249 0.974,-0.387 1.424,-0.413 z"
   style="clip-rule:evenodd;fill:#e3c662;fill-rule:evenodd" />
		<path
   inkscape:connector-curvature="0"
   id="path260"
   d="m 20.913,29.037 c 0.375,0.45 0.425,0.638 0.15,0.563 -0.3,-0.075 -0.537,-0.237 -0.712,-0.487 -0.15,-0.225 -0.163,-0.362 -0.038,-0.412 0.149,-0.076 0.35,0.036 0.6,0.336 z"
   style="clip-rule:evenodd;fill:#edd37b;fill-rule:evenodd" />
		<path
   inkscape:connector-curvature="0"
   id="path262"
   d="m 18.4,30.649 c 0.8,0.2 1.225,0.351 1.275,0.45 0.05,0.051 -0.138,0.088 -0.563,0.112 -0.35,0.025 -0.75,-0.05 -1.2,-0.225 -0.45,-0.175 -0.738,-0.362 -0.862,-0.563 -0.075,-0.175 0.012,-0.225 0.262,-0.15 0.15,0.052 0.513,0.176 1.088,0.376 z"
   style="clip-rule:evenodd;fill:#edd37b;fill-rule:evenodd" />
		<path
   inkscape:connector-curvature="0"
   id="path264"
   d="m 22.263,28.925 c 0.275,0 0.362,0.125 0.262,0.375 -0.125,0.25 -0.312,0.325 -0.563,0.225 -0.275,-0.1 -0.35,-0.225 -0.225,-0.375 0.101,-0.15 0.276,-0.225 0.526,-0.225 z"
   style="clip-rule:evenodd;fill:#edd37b;fill-rule:evenodd" />
		<path
   inkscape:connector-curvature="0"
   id="path266"
   d="m 24.738,24.313 c 0.674,0.075 0.988,0.2 0.937,0.375 -0.024,0.149 -0.199,0.225 -0.524,0.225 -0.25,0 -0.575,-0.037 -0.975,-0.112 -0.425,-0.1 -0.688,-0.2 -0.788,-0.3 -0.1,-0.1 -0.013,-0.175 0.262,-0.226 0.3,-0.05 0.663,-0.038 1.088,0.038 z"
   style="clip-rule:evenodd;fill:#edd37b;fill-rule:evenodd" />
		<path
   inkscape:connector-curvature="0"
   id="path268"
   d="m 28.338,25.55 c 1.399,0 1.8,0.075 1.199,0.225 -0.375,0.101 -0.637,0.163 -0.787,0.188 -0.3,0.075 -0.55,0.101 -0.75,0.075 -0.275,-0.024 -0.362,-0.112 -0.263,-0.263 0.125,-0.15 0.326,-0.225 0.601,-0.225 z"
   style="clip-rule:evenodd;fill:#e3c662;fill-rule:evenodd" />
		<path
   inkscape:connector-curvature="0"
   id="path270"
   d="m 29.088,27.162 c 0.5,-0.2 0.625,-0.188 0.375,0.038 -0.25,0.2 -0.575,0.388 -0.976,0.563 -0.324,0.149 -0.837,0.262 -1.537,0.337 -0.625,0.051 -1.088,0.051 -1.388,0 -0.225,-0.05 -0.087,-0.137 0.412,-0.263 0.476,-0.125 0.926,-0.188 1.351,-0.188 0.35,0 0.663,-0.05 0.938,-0.149 0.149,-0.051 0.425,-0.163 0.825,-0.338 z"
   style="clip-rule:evenodd;fill:#edd37b;fill-rule:evenodd" />
		<path
   inkscape:connector-curvature="0"
   id="path272"
   d="m 29.5,32.975 c 0.125,0 0.25,0.1 0.375,0.3 0.1,0.2 0.037,0.338 -0.188,0.413 -0.25,0.05 -0.513,0.024 -0.787,-0.075 -0.275,-0.125 -0.45,-0.3 -0.525,-0.525 -0.075,-0.175 -0.024,-0.249 0.15,-0.225 0.525,0.075 0.85,0.112 0.975,0.112 z"
   style="clip-rule:evenodd;fill:#e3c662;fill-rule:evenodd" />
		<path
   inkscape:connector-curvature="0"
   id="path274"
   d="m 26.2,32.75 c 0.375,-0.226 0.337,0.1 -0.112,0.975 -0.125,0.175 -0.35,0.275 -0.676,0.3 -0.324,0.025 -0.574,-0.05 -0.75,-0.225 -0.15,-0.125 -0.025,-0.287 0.375,-0.487 C 25.288,33.188 25.675,33 26.2,32.75 Z"
   style="clip-rule:evenodd;fill:#e3c662;fill-rule:evenodd" />
		<path
   inkscape:connector-curvature="0"
   id="path276"
   d="m 15.925,32.149 c 0.425,0.226 0.412,0.313 -0.038,0.263 -0.45,-0.05 -0.75,-0.162 -0.9,-0.337 -0.15,-0.2 -0.125,-0.288 0.075,-0.263 0.201,10e-4 0.488,0.113 0.863,0.337 z"
   style="clip-rule:evenodd;fill:#edd37b;fill-rule:evenodd" />
		<path
   inkscape:connector-curvature="0"
   id="path278"
   d="m 17.95,31.85 c 0.35,-0.075 0.337,0.063 -0.038,0.413 -0.375,0.324 -0.688,0.537 -0.938,0.637 -0.225,0.101 -0.188,-0.037 0.112,-0.412 0.327,-0.4 0.614,-0.613 0.864,-0.638 z"
   style="clip-rule:evenodd;fill:#edd37b;fill-rule:evenodd" />
		<path
   inkscape:connector-curvature="0"
   id="path280"
   d="m 34.638,25.737 c 1.1,0.325 1.75,0.813 1.95,1.463 -0.2,-0.25 -0.688,-0.525 -1.463,-0.825 L 33.812,25.85 c -0.1,-0.1 -0.05,-0.162 0.15,-0.188 0.201,-0.024 0.426,0 0.676,0.075 z"
   style="clip-rule:evenodd;fill:#edd37b;fill-rule:evenodd" />
		<path
   inkscape:connector-curvature="0"
   id="path282"
   d="m 30.813,27.875 c 0.726,0.149 0.862,0.313 0.412,0.487 -0.424,0.175 -0.85,0.212 -1.274,0.112 -0.351,-0.05 -0.375,-0.188 -0.075,-0.412 0.324,-0.2 0.637,-0.262 0.937,-0.187 z"
   style="clip-rule:evenodd;fill:#e3c662;fill-rule:evenodd" />
		<path
   inkscape:connector-curvature="0"
   id="path284"
   d="m 22.075,26.787 c 0.325,-0.05 0.462,0.063 0.413,0.338 -0.025,0.275 -0.163,0.388 -0.413,0.337 -0.225,-0.024 -0.337,-0.137 -0.337,-0.337 0,-0.175 0.112,-0.287 0.337,-0.338 z"
   style="clip-rule:evenodd;fill:#edd37b;fill-rule:evenodd" />
		<path
   inkscape:connector-curvature="0"
   id="path286"
   d="m 20.5,23.899 c 0.225,-0.074 0.263,-0.024 0.113,0.15 -0.125,0.175 -0.338,0.351 -0.638,0.525 -0.675,0.399 -1.2,0.563 -1.575,0.487 -0.2,-0.051 -0.175,-0.125 0.075,-0.226 0.225,-0.1 0.462,-0.162 0.712,-0.188 0.15,0 0.337,-0.1 0.563,-0.3 0.225,-0.222 0.475,-0.372 0.75,-0.448 z"
   style="clip-rule:evenodd;fill:#edd37b;fill-rule:evenodd" />
		<path
   inkscape:connector-curvature="0"
   id="path288"
   d="m 40.787,28.287 h 1.088 c 0.05,0.125 0.075,0.313 0.075,0.563 0,1.825 -1.713,3.375 -5.138,4.65 -3.425,1.274 -7.563,1.912 -12.413,1.912 -4.85,0 -8.987,-0.638 -12.412,-1.912 C 8.562,32.225 6.849,30.675 6.849,28.85 L 6.924,28.287 H 8.2 v 0.3 c 0,1.626 1.587,3 4.762,4.125 3.175,1.15 7.013,1.726 11.513,1.726 4.525,0 8.375,-0.575 11.55,-1.726 3.175,-1.125 4.762,-2.499 4.762,-4.125 z"
   style="clip-rule:evenodd;fill:#ffffff;fill-rule:evenodd" />
	</g>
</svg>