<?xml version="1.0" encoding="UTF-8" standalone="no"?>
<!-- Generator: Adobe Illustrator 15.1.0, SVG Export Plug-In . SVG Version: 6.00 Build 0)  -->

<svg
   xmlns:dc="http://purl.org/dc/elements/1.1/"
   xmlns:cc="http://creativecommons.org/ns#"
   xmlns:rdf="http://www.w3.org/1999/02/22-rdf-syntax-ns#"
   xmlns:svg="http://www.w3.org/2000/svg"
   xmlns="http://www.w3.org/2000/svg"
   xmlns:xlink="http://www.w3.org/1999/xlink"
   xmlns:sodipodi="http://sodipodi.sourceforge.net/DTD/sodipodi-0.dtd"
   xmlns:inkscape="http://www.inkscape.org/namespaces/inkscape"
   version="1.1"
   id="flash0.ai"
   x="0px"
   y="0px"
   width="256"
   height="256"
   viewBox="0 0 256.00001 255.99999"
   xml:space="preserve"
   sodipodi:docname="spaghetti_03.svg"
   inkscape:version="0.92.4 (5da689c313, 2019-01-14)"
   inkscape:export-filename="C:\Users\antum\Development\game-resources\icon\CC0\food\individual\Glitch\32x32\pasta\spaghetti_03.png"
   inkscape:export-xdpi="10.5"
   inkscape:export-ydpi="10.5"><title
   id="title1362">Spaghetti</title><metadata
   id="metadata555"><rdf:RDF><cc:Work
       rdf:about=""><dc:format>image/svg+xml</dc:format><dc:type
         rdf:resource="http://purl.org/dc/dcmitype/StillImage" /><dc:title>Spaghetti</dc:title><cc:license
         rdf:resource="http://creativecommons.org/publicdomain/zero/1.0/" /><dc:creator><cc:Agent><dc:title>Glitch</dc:title></cc:Agent></dc:creator><dc:source>https://opengameart.org/node/20149</dc:source></cc:Work><cc:License
       rdf:about="http://creativecommons.org/publicdomain/zero/1.0/"><cc:permits
         rdf:resource="http://creativecommons.org/ns#Reproduction" /><cc:permits
         rdf:resource="http://creativecommons.org/ns#Distribution" /><cc:permits
         rdf:resource="http://creativecommons.org/ns#DerivativeWorks" /></cc:License></rdf:RDF></metadata><defs
   id="defs553"><linearGradient
     inkscape:collect="always"
     xlink:href="#SVGID_1_"
     id="linearGradient1548"
     gradientUnits="userSpaceOnUse"
     gradientTransform="matrix(1,-0.0032,0.0032,1,26.0605,25.9814)"
     x1="-22.458"
     y1="-32.359402"
     x2="-6.7579002"
     y2="-32.359402" /></defs><sodipodi:namedview
   pagecolor="#ffffff"
   bordercolor="#666666"
   borderopacity="1"
   objecttolerance="10"
   gridtolerance="10"
   guidetolerance="10"
   inkscape:pageopacity="0"
   inkscape:pageshadow="2"
   inkscape:window-width="1920"
   inkscape:window-height="1025"
   id="namedview551"
   showgrid="false"
   inkscape:zoom="0.95576858"
   inkscape:cx="119.80647"
   inkscape:cy="-71.869621"
   inkscape:window-x="-8"
   inkscape:window-y="-8"
   inkscape:window-maximized="1"
   inkscape:current-layer="flash0.ai"
   fit-margin-top="0"
   fit-margin-left="0"
   fit-margin-right="0"
   fit-margin-bottom="0" />
<symbol
   id="flash0.ai_x5F_7_x2F_Layer_39_x2F__x3C_Path_x3E__x5F_10"
   viewBox="-0.004 -1.05 1.485 1.054"
   transform="translate(-4.4999999,212.35)">
	<g
   id="Layer_1_16_">
		<path
   style="clip-rule:evenodd;fill:#60270d;fill-rule:evenodd"
   d="m 1.45,-0.5 c -0.133,-0.367 -0.434,-0.55 -0.9,-0.55 -0.4,0 -0.583,0.167 -0.55,0.5 0.033,0.333 0.217,0.517 0.55,0.55 0.733,0.033 1.033,-0.133 0.9,-0.5 z"
   id="path2"
   inkscape:connector-curvature="0" />
	</g>
</symbol>
<symbol
   id="flash0.ai_x5F_7_x2F_Layer_39_x2F__x3C_Path_x3E__x5F_11"
   viewBox="-0.026 -1.105 1.704 1.108"
   transform="translate(-4.4999999,212.35)">
	<g
   id="Layer_1_15_">
		<path
   style="clip-rule:evenodd;fill:#60270d;fill-rule:evenodd"
   d="M 1.4,-0.05 C 1.733,-0.117 1.767,-0.317 1.5,-0.65 1.233,-0.983 0.867,-1.133 0.4,-1.1 c -0.467,0.067 -0.55,0.3 -0.25,0.7 0.3,0.367 0.717,0.483 1.25,0.35 z"
   id="path6"
   inkscape:connector-curvature="0" />
	</g>
</symbol>
<symbol
   id="flash0.ai_x5F_7_x2F_Layer_39_x2F__x3C_Path_x3E__x5F_12"
   viewBox="-0.021 -1.468 2.965 1.513"
   transform="translate(-4.4999999,212.35)">
	<g
   id="Layer_1_14_">
		<path
   style="clip-rule:evenodd;fill:#60270d;fill-rule:evenodd"
   d="M 1.9,-0.05 C 2.933,-0.417 3.2,-0.783 2.7,-1.15 2.167,-1.517 1.467,-1.567 0.6,-1.3 c -0.733,0.2 -0.817,0.5 -0.25,0.9 0.567,0.433 1.083,0.55 1.55,0.35 z"
   id="path10"
   inkscape:connector-curvature="0" />
	</g>
</symbol>
<symbol
   id="flash0.ai_x5F_7_x2F_Layer_39_x2F__x3C_Path_x3E__x5F_13"
   viewBox="-0.052 -1.25 2.454 1.268"
   transform="translate(-4.4999999,212.35)">
	<g
   id="Layer_1_13_">
		<path
   style="clip-rule:evenodd;fill:#60270d;fill-rule:evenodd"
   d="M 1.35,0 C 2.083,-0.1 2.433,-0.25 2.4,-0.45 2.367,-0.583 2.15,-0.767 1.75,-1 1.417,-1.167 1.2,-1.25 1.1,-1.25 c -0.133,0 -0.4,0.067 -0.8,0.2 -0.433,0.167 -0.466,0.4 -0.1,0.7 0.367,0.3 0.75,0.417 1.15,0.35 z"
   id="path14"
   inkscape:connector-curvature="0" />
	</g>
</symbol>
<symbol
   id="flash0.ai_x5F_7_x2F_Layer_39_x2F__x3C_Path_x3E__x5F_14"
   viewBox="-0.019 -0.822 1.297 0.839"
   transform="translate(-4.4999999,212.35)">
	<g
   id="Layer_1_12_">
		<path
   style="clip-rule:evenodd;fill:#60270d;fill-rule:evenodd"
   d="m 1.05,-0.05 c 0.267,-0.133 0.3,-0.3 0.1,-0.5 -0.2,-0.233 -0.483,-0.317 -0.85,-0.25 -0.367,0.066 -0.417,0.25 -0.15,0.55 0.267,0.267 0.567,0.333 0.9,0.2 z"
   id="path18"
   inkscape:connector-curvature="0" />
	</g>
</symbol>
<symbol
   id="flash0.ai_x5F_7_x2F_Layer_39_x2F__x3C_Path_x3E__x5F_15"
   viewBox="-0.017 -0.904 1.367 0.912"
   transform="translate(-4.4999999,212.35)">
	<g
   id="Layer_1_11_">
		<path
   style="clip-rule:evenodd;fill:#60270d;fill-rule:evenodd"
   d="M 1.15,-0.2 C 1.35,-0.4 1.4,-0.567 1.3,-0.7 1.133,-0.933 0.783,-0.967 0.25,-0.8 c -0.267,0.066 -0.333,0.216 -0.2,0.45 0.1,0.2 0.283,0.317 0.55,0.35 0.2,0.033 0.383,-0.033 0.55,-0.2 z"
   id="path22"
   inkscape:connector-curvature="0" />
	</g>
</symbol>
<symbol
   id="flash0.ai_x5F_7_x2F_Layer_39_x2F__x3C_Path_x3E__x5F_16"
   viewBox="-0.023 -2.75 4.295 2.725"
   transform="translate(-4.4999999,212.35)">
	<g
   id="Layer_1_10_">
		<path
   style="clip-rule:evenodd;fill:#60270d;fill-rule:evenodd"
   d="M 3.75,-0.5 C 4.35,-0.733 4.433,-1 4,-1.3 3.867,-1.4 3.8,-1.567 3.8,-1.8 3.767,-2.033 3.633,-2.217 3.4,-2.35 3.1,-2.55 2.717,-2.667 2.25,-2.7 2.05,-2.733 1.5,-2.75 0.6,-2.75 c -0.6,0 -0.767,0.133 -0.5,0.4 0.233,0.233 0.583,0.417 1.05,0.55 0.5,0.133 0.8,0.65 0.9,1.55 0.034,0.2 0.2,0.267 0.5,0.2 0.167,-0.033 0.567,-0.183 1.2,-0.45 z"
   id="path26"
   inkscape:connector-curvature="0" />
	</g>
</symbol>
<symbol
   id="flash0.ai_x5F_7_x2F_Layer_39_x2F__x3C_Path_x3E__x5F_17"
   viewBox="0 -2.34 2.753 2.33"
   transform="translate(-4.4999999,212.35)">
	<g
   id="Layer_1_9_">
		<path
   style="clip-rule:evenodd;fill:#60270d;fill-rule:evenodd"
   d="M 1.85,-0.1 C 2.483,-0.3 2.783,-0.517 2.75,-0.75 2.75,-0.817 2.6,-1.083 2.3,-1.55 2.1,-1.917 1.867,-2.15 1.6,-2.25 1.333,-2.35 0.933,-2.367 0.4,-2.3 0,-2.233 -0.1,-2 0.1,-1.6 c 0.367,0.5 0.583,0.833 0.65,1 0.167,0.3 0.283,0.483 0.35,0.55 C 1.233,0.017 1.483,0 1.85,-0.1 Z"
   id="path30"
   inkscape:connector-curvature="0" />
	</g>
</symbol>
<symbol
   id="flash0.ai_x5F_7_x2F_Layer_39_x2F__x3C_Path_x3E__x5F_18"
   viewBox="-0.028 -1.1 1.926 1.08"
   transform="translate(-4.4999999,212.35)">
	<g
   id="Layer_1_8_">
		<path
   style="clip-rule:evenodd;fill:#60270d;fill-rule:evenodd"
   d="M 1.25,-0.05 C 1.85,-0.183 2.033,-0.4 1.8,-0.7 1.6,-0.967 1.183,-1.1 0.55,-1.1 c -0.6,0 -0.733,0.2 -0.4,0.6 0.333,0.4 0.7,0.55 1.1,0.45 z"
   id="path34"
   inkscape:connector-curvature="0" />
	</g>
</symbol>
<symbol
   id="flash0.ai_x5F_7_x2F_Layer_39_x2F__x3C_Path_x3E__x5F_19"
   viewBox="-0.003 -1.9 2.903 1.933"
   transform="translate(-4.4999999,212.35)">
	<g
   id="Layer_1_7_">
		<path
   style="clip-rule:evenodd;fill:#60270d;fill-rule:evenodd"
   d="m 2.75,-0.3 c 0.2,-0.267 0.2,-0.55 0,-0.85 -0.433,-0.5 -1.1,-0.75 -2,-0.75 -0.533,0.033 -0.783,0.317 -0.75,0.85 0.067,0.566 0.4,0.9 1,1 0.9,0.167 1.483,0.083 1.75,-0.25 z"
   id="path38"
   inkscape:connector-curvature="0" />
	</g>
</symbol>
<symbol
   id="flash0.ai_x5F_7_x2F_Layer_39_x2F__x3C_Path_x3E__x5F_20"
   viewBox="0.012 -1.213 2.108 1.219"
   transform="translate(-4.4999999,212.35)">
	<g
   id="Layer_1_6_">
		<path
   style="clip-rule:evenodd;fill:#60270d;fill-rule:evenodd"
   d="M 2,-0.35 C 2.2,-0.583 2.15,-0.8 1.85,-1 1.317,-1.3 0.767,-1.283 0.2,-0.95 -0.033,-0.817 -0.05,-0.633 0.15,-0.4 0.317,-0.167 0.533,-0.033 0.8,0 1.433,0.033 1.833,-0.083 2,-0.35 Z"
   id="path42"
   inkscape:connector-curvature="0" />
	</g>
</symbol>
<symbol
   id="flash0.ai_x5F_7_x2F_Layer_39_x2F__x3C_Path_x3E__x5F_21"
   viewBox="-0.013 -1.423 2.713 1.437"
   transform="translate(-4.4999999,212.35)">
	<g
   id="Layer_1_5_">
		<path
   style="clip-rule:evenodd;fill:#60270d;fill-rule:evenodd"
   d="M 2.7,-0.5 C 2.7,-0.867 2.467,-1.15 2,-1.35 1.567,-1.483 1.083,-1.433 0.55,-1.2 c -0.5,0.2 -0.667,0.4 -0.5,0.6 0.3,0.3 0.85,0.5 1.65,0.6 0.633,0.067 0.967,-0.1 1,-0.5 z"
   id="path46"
   inkscape:connector-curvature="0" />
	</g>
</symbol>
<symbol
   id="flash0.ai_x5F_7_x2F_Layer_39_x2F__x3C_Path_x3E__x5F_70"
   viewBox="0 -12.6 12.75 12.6"
   transform="translate(-4.4999999,212.35)">
	<g
   id="Layer_1_4_">
		<path
   style="clip-rule:evenodd;fill:#595959;fill-rule:evenodd"
   d="M 12.75,-12.6 C 9.55,-11.367 6.833,-9.65 4.6,-7.45 2.333,-5.25 0.8,-2.767 0,0 l 0.4,-0.1 0.75,-0.45 c 0.333,-1.333 1.2,-2.967 2.6,-4.9 2.333,-3.267 5.333,-5.65 9,-7.15 z"
   id="path50"
   inkscape:connector-curvature="0" />
	</g>
</symbol>
<symbol
   id="flash0.ai_x5F_7_x2F_Layer_39_x2F__x3C_Path_x3E__x5F_71"
   viewBox="0 -13.1 17.2 13.1"
   transform="translate(-4.4999999,212.35)">
	<g
   id="Layer_1_3_">
		<path
   style="clip-rule:evenodd;fill:#595959;fill-rule:evenodd"
   d="M 10.15,-1.55 C 13.283,-1.083 15.633,-0.567 17.2,0 16.9,-0.933 16.433,-1.917 15.8,-2.95 14.533,-4.917 12.6,-6.9 10,-8.9 8.167,-10.367 5.617,-11.633 2.35,-12.7 L 0,-13.1 c 4.067,1.567 6.9,3.667 8.5,6.3 0.767,1.2 1.267,2.333 1.5,3.4 0.033,0.233 0.083,0.85 0.15,1.85 z"
   id="path54"
   inkscape:connector-curvature="0" />
	</g>
</symbol>
<symbol
   id="flash0.ai_x5F_7_x2F_Layer_39_x2F__x3C_Path_x3E__x5F_72"
   viewBox="0 -12.65 24.35 12.65"
   transform="translate(-4.4999999,212.35)">
	<g
   id="Layer_1_2_">
		
			<linearGradient
   id="SVGID_1_"
   gradientUnits="userSpaceOnUse"
   x1="-22.458"
   y1="-32.359402"
   x2="-6.7579002"
   y2="-32.359402"
   gradientTransform="matrix(1,-0.0032,0.0032,1,26.0605,25.9814)">
			<stop
   offset="0"
   style="stop-color:#FFFFFF"
   id="stop58" />
			<stop
   offset="1"
   style="stop-color:#000000"
   id="stop60" />
		</linearGradient>
		<path
   style="clip-rule:evenodd;fill:url(#linearGradient1548);fill-rule:evenodd"
   d="M 24.35,-1.7 21.1,-12.55 c -0.5,-0.067 -1.283,-0.1 -2.35,-0.1 l -2.75,0.1 c -1.1,0.167 -2.35,0.517 -3.75,1.05 -1.433,0.533 -2.633,1.1 -3.6,1.7 -3.066,2.033 -5.433,4.267 -7.1,6.7 C 0.717,-1.867 0.2,-0.833 0,0 l 2.65,-0.5 c 4.6,-0.867 10.033,-1.3 16.3,-1.3 z"
   id="path63"
   inkscape:connector-curvature="0" />
	</g>
</symbol>
<symbol
   id="flash0.ai_x5F_7_x2F_Layer_39_x2F__x3C_Path_x3E__x5F_9"
   viewBox="-0.006 -0.5 0.711 0.523"
   transform="translate(-4.4999999,212.35)">
	<g
   id="Layer_1_17_">
		<path
   style="clip-rule:evenodd;fill:#60270d;fill-rule:evenodd"
   d="M 0.7,-0.2 C 0.733,-0.4 0.6,-0.5 0.3,-0.5 0.067,-0.467 -0.033,-0.4 0,-0.3 0.067,-0.167 0.15,-0.084 0.25,-0.05 0.517,0.083 0.667,0.033 0.7,-0.2 Z"
   id="path67"
   inkscape:connector-curvature="0" />
	</g>
</symbol>

<g
   id="g532"
   transform="matrix(7.2934473,0,0,7.2934473,-32.820513,-118.25434)">
		<path
   inkscape:connector-curvature="0"
   id="path309"
   d="M 39.037,33.037 39.188,33 c -0.975,3.101 -3.037,5.638 -6.188,7.612 -3.225,2.025 -6.9,3.038 -11.025,3.038 -4.149,0 -7.837,-1.025 -11.063,-3.075 -3.2,-2.025 -5.25,-4.601 -6.149,-7.726 l 0.3,0.075 c 0.975,0.75 3.025,1.375 6.15,1.875 3.174,0.476 6.812,0.713 10.912,0.713 3.975,0 7.525,-0.237 10.65,-0.713 3.1,-0.449 5.187,-1.036 6.262,-1.762 z"
   style="clip-rule:evenodd;fill:#d9d9d9;fill-rule:evenodd" />
		
			<use
   x="0"
   id="use311"
   style="overflow:visible;opacity:0.71880002;enable-background:new"
   transform="matrix(0.75,0,0,-0.75,11.2749,193.41289)"
   y="-12.65"
   height="12.65"
   width="24.35"
   xlink:href="#flash0.ai_x5F_7_x2F_Layer_39_x2F__x3C_Path_x3E__x5F_72" />
		
			<use
   x="0"
   id="use313"
   style="overflow:visible;opacity:0.16019999;enable-background:new"
   transform="matrix(0.75,0,0,-0.75,28.125,192.91289)"
   y="-13.1"
   height="13.1"
   width="17.200001"
   xlink:href="#flash0.ai_x5F_7_x2F_Layer_39_x2F__x3C_Path_x3E__x5F_71" />
		
			<use
   x="0"
   id="use315"
   style="overflow:visible;opacity:0.32030005;enable-background:new"
   transform="matrix(0.75,0,0,-0.75,8.1249999,192.11209)"
   y="-12.6"
   height="12.6"
   width="12.75"
   xlink:href="#flash0.ai_x5F_7_x2F_Layer_39_x2F__x3C_Path_x3E__x5F_70" />
		
			<linearGradient
   gradientTransform="matrix(0.75,0,0,0.75,4.5,23.8496)"
   y2="10.2505"
   x2="46.049801"
   y1="10.2505"
   x1="0.79979998"
   gradientUnits="userSpaceOnUse"
   id="SVGID_19_">
			<stop
   id="stop317"
   style="stop-color:#7D7D7D"
   offset="0" />
			<stop
   id="stop319"
   style="stop-color:#D4D4D4"
   offset="1" />
		</linearGradient>
		<path
   inkscape:connector-curvature="0"
   id="path322"
   d="m 34.051,27.037 c 3.324,1.25 4.986,2.75 4.986,4.5 0,1.775 -1.662,3.275 -4.986,4.5 -3.301,1.25 -7.301,1.875 -12,1.875 -4.676,0 -8.663,-0.625 -11.963,-1.875 C 6.763,34.788 5.1,33.288 5.1,31.537 c 0,-1.75 1.663,-3.25 4.988,-4.5 3.3,-1.249 7.287,-1.875 11.963,-1.875 4.699,0 8.699,0.626 12,1.875 z"
   style="clip-rule:evenodd;fill:url(#SVGID_19_);fill-rule:evenodd" />
		<path
   inkscape:connector-curvature="0"
   id="path324"
   d="M 39.563,31.05 H 38.438 C 38.213,29.5 36.538,28.188 33.413,27.112 30.238,26.037 26.488,25.5 22.163,25.5 c -4.35,0 -8.1,0.537 -11.25,1.612 C 7.763,28.188 6.075,29.5 5.85,31.05 H 4.575 c 0.4,-1.699 2.262,-3.125 5.587,-4.274 3.375,-1.15 7.338,-1.726 11.889,-1.726 4.574,0 8.549,0.575 11.924,1.726 3.325,1.149 5.187,2.575 5.588,4.274 z"
   style="clip-rule:evenodd;fill:#f5f5f5;fill-rule:evenodd" />
		
			<radialGradient
   gradientUnits="userSpaceOnUse"
   gradientTransform="matrix(-0.0821,0.7455,0.7001,0.0879,35.7595,27.7729)"
   r="19.6306"
   cy="-21.6416"
   cx="2.9727001"
   id="SVGID_20_">
			<stop
   id="stop326"
   style="stop-color:#D6C071"
   offset="0" />
			<stop
   id="stop328"
   style="stop-color:#7D5D2D"
   offset="1" />
		</radialGradient>
		<path
   inkscape:connector-curvature="0"
   id="path331"
   d="m 37.162,34.388 c -1,0.6 -2.337,1.15 -4.012,1.649 -2.675,0.825 -5.551,1.275 -8.625,1.351 -2.1,0.05 -4.488,-0.101 -7.163,-0.45 C 15.212,36.664 13.412,36.35 11.963,36 10.938,35.775 9.925,35.388 8.925,34.838 8.05,34.388 7.6,34.075 7.575,33.9 7.55,33.8 7.688,33.625 7.987,33.375 c 0.35,-0.3 0.538,-0.487 0.563,-0.563 0.35,-0.975 1.8,-1.85 4.351,-2.625 0.675,-0.175 1.362,-0.725 2.063,-1.65 0.65,-0.85 1.175,-1.287 1.574,-1.313 2.15,-0.175 3.913,-0.162 5.287,0.038 0.451,0.075 1.188,0.325 2.213,0.75 0.826,0.325 1.537,0.475 2.139,0.45 0.523,0 1.712,-0.088 3.563,-0.263 1.675,-0.075 2.699,0.063 3.074,0.412 0.6,0.575 1.212,1.263 1.838,2.063 0.75,0.976 1.112,1.638 1.088,1.987 -0.026,0.226 0.324,0.538 1.049,0.938 0.624,0.301 0.748,0.563 0.373,0.789 z"
   style="clip-rule:evenodd;fill:url(#SVGID_20_);fill-rule:evenodd" />
		
			<radialGradient
   gradientUnits="userSpaceOnUse"
   gradientTransform="matrix(-0.0836,0.7453,0.7001,0.0871,28.0789,26.7824)"
   r="2.6918001"
   cy="-16.324699"
   cx="2.7017"
   id="SVGID_21_">
			<stop
   id="stop333"
   style="stop-color:#D4C17D"
   offset="0" />
			<stop
   id="stop335"
   style="stop-color:#B3A051"
   offset="1" />
		</radialGradient>
		<path
   inkscape:connector-curvature="0"
   id="path338"
   d="m 16.537,27.225 c 0.65,-0.124 0.763,0.025 0.338,0.45 -0.6,0.575 -0.813,0.938 -0.638,1.088 0.2,0.175 0.587,0.149 1.163,-0.075 0.549,-0.225 0.85,-0.274 0.899,-0.15 0.1,0.226 -0.075,0.438 -0.524,0.638 -0.5,0.2 -1.15,0.226 -1.95,0.075 -0.775,-0.15 -0.988,-0.513 -0.638,-1.088 0.325,-0.525 0.775,-0.838 1.35,-0.938 z"
   style="clip-rule:evenodd;fill:url(#SVGID_21_);fill-rule:evenodd" />
		
			<radialGradient
   gradientUnits="userSpaceOnUse"
   gradientTransform="matrix(-0.0811,0.7456,0.6988,0.0874,27.7505,26.7561)"
   r="3.0051"
   cy="-16.1113"
   cx="7.2939"
   id="SVGID_22_">
			<stop
   id="stop340"
   style="stop-color:#D4C17D"
   offset="0" />
			<stop
   id="stop342"
   style="stop-color:#B3A051"
   offset="1" />
		</radialGradient>
		<path
   inkscape:connector-curvature="0"
   id="path345"
   d="m 17.287,30.563 c 0.375,-0.025 0.55,0.125 0.525,0.45 0,0.175 -0.05,0.487 -0.15,0.938 -0.05,0.3 -0.174,0.563 -0.375,0.787 -0.225,0.25 -0.475,0.363 -0.75,0.338 l -2.063,0.075 c 0.075,-0.125 0.188,-0.263 0.338,-0.413 0.35,-0.274 0.8,-0.438 1.35,-0.487 0.45,-0.025 0.663,-0.3 0.638,-0.825 -0.025,-0.551 0.138,-0.838 0.487,-0.863 z"
   style="clip-rule:evenodd;fill:url(#SVGID_22_);fill-rule:evenodd" />
		
			<radialGradient
   gradientUnits="userSpaceOnUse"
   gradientTransform="matrix(-0.081,0.7456,0.697,0.0891,54.6174,30.2596)"
   r="2.3134999"
   cy="-34.777802"
   cx="5.1167002"
   id="SVGID_23_">
			<stop
   id="stop347"
   style="stop-color:#D4C17D"
   offset="0" />
			<stop
   id="stop349"
   style="stop-color:#B3A051"
   offset="1" />
		</radialGradient>
		<path
   inkscape:connector-curvature="0"
   id="path352"
   d="m 30.975,30.862 c 0.826,0.226 1.014,0.601 0.563,1.125 -0.475,0.551 -1.175,0.7 -2.1,0.45 -0.9,-0.225 -1.051,-0.588 -0.449,-1.088 0.574,-0.498 1.236,-0.661 1.986,-0.487 z"
   style="clip-rule:evenodd;fill:url(#SVGID_23_);fill-rule:evenodd" />
		
			<radialGradient
   gradientUnits="userSpaceOnUse"
   gradientTransform="matrix(-0.0821,0.7455,0.6999,0.0875,34.7386,27.6295)"
   r="17.467501"
   cy="-20.938499"
   cx="4.8315001"
   id="SVGID_24_">
			<stop
   id="stop354"
   style="stop-color:#D4C17D"
   offset="0" />
			<stop
   id="stop356"
   style="stop-color:#B3A051"
   offset="1" />
		</radialGradient>
		<path
   inkscape:connector-curvature="0"
   id="path359"
   d="m 34.949,34.162 c -0.175,0.551 -0.336,0.713 -0.486,0.488 -0.076,-0.125 0,-0.476 0.225,-1.051 0.2,-0.499 0.087,-0.862 -0.338,-1.087 -0.449,-0.226 -1.024,-0.55 -1.725,-0.976 -0.95,-0.574 -1.475,-0.899 -1.574,-0.975 -0.801,-0.425 -1.901,-0.588 -3.301,-0.487 -0.75,0.1 -1.35,0.175 -1.801,0.225 -0.824,0.075 -1.437,0.025 -1.836,-0.149 -0.176,-0.075 -0.414,-0.275 -0.713,-0.601 -0.176,-0.199 -0.612,-0.287 -1.313,-0.263 -0.65,0.025 -1.488,0.176 -2.513,0.45 -1.075,0.3 -1.838,0.463 -2.288,0.487 -0.875,0.051 -1.487,0.125 -1.837,0.226 -0.525,0.149 -0.925,0.425 -1.2,0.825 -0.45,0.625 -0.775,1.05 -0.975,1.274 -0.4,0.375 -0.838,0.601 -1.313,0.675 -0.576,0.101 -1.125,0.251 -1.65,0.45 -0.575,0.2 -0.875,0.375 -0.9,0.525 -0.048,0.194 -0.048,0.376 0,0.544 -0.538,-0.223 -0.888,-0.403 -1.05,-0.544 -0.575,-0.476 -0.487,-0.862 0.263,-1.163 0.625,-0.25 1.4,-0.375 2.325,-0.375 0.65,0 1.162,-0.137 1.537,-0.412 0.175,-0.125 0.45,-0.425 0.825,-0.9 0.2,-0.199 0.475,-0.55 0.825,-1.05 0.4,-0.35 1,-0.513 1.8,-0.487 0.775,0.025 1.5,-0.1 2.175,-0.375 0.375,-0.125 0.862,-0.325 1.463,-0.6 0.524,-0.125 0.925,-0.188 1.2,-0.188 0.375,0 0.975,0.087 1.799,0.262 0.351,0.075 0.763,0.313 1.238,0.713 0.274,0.225 1,0.288 2.176,0.188 1.024,-0.075 2.137,-0.175 3.336,-0.3 0.776,0 1.476,0.263 2.102,0.787 0.449,0.375 1.273,0.862 2.475,1.463 0.925,0.425 1.375,0.75 1.35,0.975 -0.05,0.477 -0.15,0.952 -0.301,1.426 z m -5.736,-2.25 c 0.6,-0.074 1.088,0.013 1.463,0.263 0.449,0.351 0.699,0.601 0.75,0.75 0,0.05 -0.063,0.338 -0.188,0.862 -0.051,0.275 0.087,0.738 0.412,1.388 0.225,0.476 0.199,0.726 -0.076,0.75 -0.249,0.025 -0.462,0.088 -0.637,0.188 -0.05,0.05 -0.087,0.013 -0.113,-0.112 -0.049,-0.2 -0.087,-0.55 -0.111,-1.05 -0.05,-0.601 -0.037,-1.063 0.037,-1.388 0.15,-0.75 -0.288,-1.125 -1.313,-1.125 -0.101,0 -0.55,0.075 -1.35,0.225 -0.551,0.101 -1.088,0.051 -1.613,-0.149 -0.85,-0.325 -1.437,-0.537 -1.762,-0.638 -0.551,-0.175 -0.987,-0.175 -1.313,0 -0.101,0.05 -0.588,0.225 -1.463,0.525 -0.649,0.225 -1.075,0.449 -1.275,0.675 -0.425,0.524 -0.762,0.95 -1.012,1.274 -0.5,0.575 -0.9,0.913 -1.2,1.013 -0.475,0.15 -1.038,0.226 -1.688,0.226 -0.775,0.024 -1.263,-0.075 -1.463,-0.301 -0.275,-0.3 -0.462,-0.475 -0.563,-0.524 -0.225,-0.125 -0.6,-0.213 -1.125,-0.263 -0.55,-0.05 -1.1,0.05 -1.649,0.3 -0.525,0.25 -0.713,0.463 -0.563,0.638 -0.418,-0.135 -0.793,-0.26 -1.125,-0.375 0.047,-0.034 0.097,-0.072 0.149,-0.112 0.525,-0.4 1.2,-0.75 2.025,-1.05 0.899,-0.325 1.575,-0.438 2.024,-0.338 0.201,0.05 0.513,0.375 0.938,0.975 0.351,0.45 0.8,0.613 1.351,0.488 0.75,-0.176 1.262,-0.351 1.537,-0.525 0.3,-0.175 0.575,-0.5 0.825,-0.975 0.65,-1.275 1.5,-1.913 2.551,-1.913 0.324,0 0.699,-0.149 1.125,-0.45 0.349,-0.25 0.812,-0.287 1.387,-0.112 1,0.325 2.063,0.601 3.188,0.825 0.427,0.099 1.04,0.11 1.84,0.035 z m -9.301,4.463 c -0.85,0.101 -1.313,0.162 -1.387,0.188 -0.275,0.101 -0.463,0.162 -0.563,0.188 -0.15,0.05 -0.475,0.075 -0.976,0.075 -0.27,0 -0.688,-0.063 -1.256,-0.188 0.31,-0.07 0.878,-0.232 1.706,-0.487 0.8,-0.25 1.413,-0.375 1.838,-0.375 0.8,0 1.249,-0.013 1.35,-0.038 0.375,-0.05 0.713,-0.263 1.012,-0.638 0.401,-0.425 1.014,-0.75 1.838,-0.975 0.875,-0.25 1.525,-0.213 1.951,0.112 0.724,0.575 1.611,0.913 2.662,1.013 0.824,0.075 1.375,0.225 1.65,0.45 0.148,0.1 0.148,0.287 0,0.563 -0.126,0.274 -0.326,0.375 -0.602,0.3 -0.225,-0.05 -0.637,-0.225 -1.236,-0.525 -0.75,-0.399 -1.25,-0.649 -1.5,-0.75 -0.775,-0.3 -1.275,-0.487 -1.5,-0.563 -0.551,-0.124 -1.025,-0.1 -1.426,0.075 -0.299,0.125 -0.674,0.351 -1.125,0.675 -0.425,0.301 -0.762,0.5 -1.012,0.601 -0.299,0.124 -0.773,0.224 -1.424,0.299 z m -10.5,-1.631 c 0.246,0.095 0.534,0.201 0.863,0.318 -0.348,0.213 -0.597,0.188 -0.75,-0.075 -0.053,-0.079 -0.09,-0.16 -0.113,-0.243 z m 3.825,1.481 c -1.05,-0.324 -1.663,-0.587 -1.837,-0.787 0.335,0.106 0.698,0.219 1.087,0.338 1.374,0.409 2.456,0.696 3.244,0.862 -0.05,0.018 -0.094,0.03 -0.132,0.037 -0.474,0.075 -1.262,-0.075 -2.362,-0.45 z"
   style="clip-rule:evenodd;fill:url(#SVGID_24_);fill-rule:evenodd" />
		
			<radialGradient
   gradientUnits="userSpaceOnUse"
   gradientTransform="matrix(-0.0825,0.7455,0.7,0.0877,36.1601,27.8155)"
   r="17.9589"
   cy="-21.920401"
   cx="0.47749999"
   id="SVGID_25_">
			<stop
   id="stop361"
   style="stop-color:#C7B577"
   offset="0" />
			<stop
   id="stop363"
   style="stop-color:#BDAA57"
   offset="1" />
		</radialGradient>
		<path
   inkscape:connector-curvature="0"
   id="path366"
   d="m 36,31.5 c -0.05,0.4 -0.449,0.825 -1.199,1.275 -0.801,0.5 -1.663,0.8 -2.588,0.899 -0.676,0.076 -1.413,0.414 -2.213,1.014 -0.775,0.55 -1.325,0.825 -1.65,0.825 h -1.125 c -0.124,-0.025 -0.188,-0.075 -0.188,-0.15 0,-0.175 0.338,-0.399 1.014,-0.675 0.55,-0.2 1.774,-0.638 3.674,-1.313 1.7,-0.649 2.675,-1.2 2.926,-1.65 0.299,-0.524 0.25,-1.05 -0.15,-1.574 -0.4,-0.5 -0.925,-0.813 -1.574,-0.938 -1.851,-0.301 -3.238,-0.476 -4.164,-0.525 -0.6,-0.05 -1.313,-0.35 -2.137,-0.9 C 25.75,27.213 25.1,26.9 24.676,26.85 c -0.851,-0.274 -1.488,-0.449 -1.914,-0.524 -0.699,-0.15 -1.449,0.025 -2.25,0.524 -1.149,0.775 -1.937,1.313 -2.362,1.613 -0.726,0.475 -1.363,0.725 -1.913,0.75 -0.175,0.024 -0.925,-0.038 -2.25,-0.188 -0.95,-0.101 -1.625,0 -2.024,0.3 -0.825,0.725 -1.413,1.237 -1.763,1.537 -0.65,0.551 -0.913,0.625 -0.788,0.226 0.25,-0.875 0.638,-1.55 1.163,-2.025 0.524,-0.475 1.112,-0.713 1.763,-0.713 h 1.35 c 2.025,0.226 3.375,0.051 4.05,-0.524 0.85,-0.7 1.712,-1.275 2.587,-1.726 1.3,-0.699 2.35,-0.962 3.15,-0.787 0.525,0.125 1.325,0.575 2.4,1.35 1,0.726 1.925,1.15 2.775,1.275 1.774,0.225 2.787,0.362 3.037,0.412 0.9,0.15 1.625,0.375 2.176,0.676 0.624,0.325 1.137,0.724 1.537,1.199 0.425,0.475 0.625,0.9 0.6,1.275 z"
   style="clip-rule:evenodd;fill:url(#SVGID_25_);fill-rule:evenodd" />
		
			<radialGradient
   gradientUnits="userSpaceOnUse"
   gradientTransform="matrix(-0.0825,0.7455,0.7,0.0877,35.5938,27.7446)"
   r="17.9589"
   cy="-21.528299"
   cx="0.1245"
   id="SVGID_26_">
			<stop
   id="stop368"
   style="stop-color:#E3D49D"
   offset="0" />
			<stop
   id="stop370"
   style="stop-color:#E0CA70"
   offset="1" />
		</radialGradient>
		<path
   inkscape:connector-curvature="0"
   id="path373"
   d="m 35.738,31.237 c -0.051,0.4 -0.451,0.825 -1.201,1.275 -0.8,0.5 -1.662,0.8 -2.588,0.899 -0.674,0.075 -1.412,0.413 -2.211,1.013 -0.776,0.551 -1.325,0.825 -1.65,0.825 h -1.125 l 0.787,-0.638 c 0.649,-0.45 1.313,-0.813 1.988,-1.087 0.55,-0.226 1.449,-0.513 2.699,-0.863 1.075,-0.35 1.737,-0.75 1.988,-1.199 0.299,-0.525 0.236,-1.051 -0.188,-1.575 -0.401,-0.5 -0.926,-0.813 -1.576,-0.938 -1.375,-0.25 -2.763,-0.425 -4.162,-0.525 -0.625,-0.05 -1.338,-0.35 -2.137,-0.899 -0.876,-0.575 -1.526,-0.9 -1.951,-0.976 -0.85,-0.25 -1.475,-0.412 -1.875,-0.487 -0.725,-0.15 -1.487,0.013 -2.287,0.487 -1.15,0.775 -1.938,1.313 -2.362,1.612 -0.75,0.476 -1.388,0.738 -1.913,0.788 -0.174,0.025 -0.924,-0.038 -2.25,-0.188 -0.95,-0.101 -1.625,0 -2.024,0.3 -0.8,0.7 -1.388,1.2 -1.763,1.5 -0.65,0.55 -0.913,0.625 -0.787,0.225 0.575,-1.8 1.562,-2.699 2.962,-2.699 h 1.313 c 2.025,0.225 3.388,0.05 4.088,-0.525 0.75,-0.675 1.6,-1.263 2.55,-1.763 1.3,-0.7 2.351,-0.949 3.15,-0.75 0.525,0.125 1.324,0.575 2.4,1.351 0.999,0.725 1.924,1.137 2.773,1.237 0.801,0.125 1.813,0.274 3.039,0.45 0.925,0.149 1.648,0.362 2.174,0.637 0.626,0.351 1.15,0.763 1.576,1.238 0.425,0.501 0.612,0.926 0.563,1.275 z"
   style="clip-rule:evenodd;fill:url(#SVGID_26_);fill-rule:evenodd" />
		
			<radialGradient
   gradientUnits="userSpaceOnUse"
   gradientTransform="matrix(-0.0822,0.7455,0.6997,0.0877,35.61,27.75)"
   r="22.1208"
   cy="-21.544901"
   cx="0.271"
   id="SVGID_27_">
			<stop
   id="stop375"
   style="stop-color:#E6D189"
   offset="0" />
			<stop
   id="stop377"
   style="stop-color:#BDAA57"
   offset="1" />
		</radialGradient>
		<path
   inkscape:connector-curvature="0"
   id="path380"
   d="m 36.15,31.013 c -0.551,-0.35 -1.162,-0.525 -1.838,-0.525 -0.75,0 -1.513,-0.325 -2.287,-0.975 -0.451,-0.35 -1.014,-0.938 -1.688,-1.763 -0.425,-0.5 -1.15,-0.713 -2.176,-0.638 -0.9,0.05 -1.675,0.263 -2.324,0.638 -0.9,0.55 -1.55,1.013 -1.951,1.388 -0.574,0.575 -0.399,0.837 0.525,0.787 0.176,0 0.963,-0.188 2.363,-0.563 0.674,-0.175 1.313,0.013 1.912,0.563 0.525,0.476 1.1,1.05 1.725,1.726 0.5,0.399 1.125,0.55 1.875,0.449 0.927,-0.124 1.714,0.1 2.364,0.675 0.649,0.6 0.499,1.1 -0.451,1.5 -0.85,0.35 -1.374,0.5 -1.574,0.449 L 32.588,34.5 33.449,34.013 C 33.9,33.613 33.85,33.3 33.301,33.075 32.9,32.925 32.3,32.825 31.5,32.775 c -0.649,-0.025 -1.138,-0.176 -1.463,-0.45 -0.574,-0.601 -1.012,-1.063 -1.313,-1.388 -0.55,-0.55 -1.062,-0.85 -1.537,-0.9 -0.4,-0.024 -0.975,0.038 -1.725,0.188 -0.826,0.176 -1.55,0.263 -2.176,0.263 -0.299,0 -0.962,0.101 -1.986,0.3 -0.501,0.101 -0.851,-0.037 -1.051,-0.412 -0.1,-0.175 -0.375,-0.825 -0.825,-1.95 C 19.05,27.55 18.75,27 18.525,26.775 c -0.5,-0.45 -1.051,-0.713 -1.65,-0.788 -0.825,-0.125 -1.325,0.288 -1.5,1.237 -0.175,0.9 0.1,1.7 0.825,2.4 0.425,0.4 1.063,0.938 1.912,1.612 1.175,1.275 1.588,2.101 1.237,2.476 -0.399,0.449 -0.687,0.712 -0.862,0.787 -0.524,0.275 -1.225,0.275 -2.1,0 -0.875,-0.274 -1.813,-0.713 -2.813,-1.313 -1,-0.6 -1.663,-1 -1.987,-1.2 -0.45,-0.274 -1.101,-0.362 -1.95,-0.263 C 8.788,31.8 8.313,32 8.213,32.325 c -0.1,0.3 0.087,0.588 0.563,0.862 0.399,0.25 0.962,0.45 1.688,0.6 0.449,0.101 0.962,0.188 1.537,0.263 0.5,0.075 1.038,0.226 1.612,0.45 0.175,0.075 0.825,0.588 1.95,1.537 0.775,0.7 1.525,0.875 2.25,0.525 0.425,-0.2 1.125,-0.862 2.1,-1.987 0.8,-0.95 1.725,-1.487 2.775,-1.612 0.925,-0.101 1.788,-0.2 2.588,-0.301 0.475,0.025 1.212,0.275 2.213,0.75 0.799,0.4 1.524,0.65 2.174,0.75 0.351,0.051 0.575,0.163 0.676,0.338 0.199,0.35 0.912,0.775 2.137,1.275 l -1.537,0.449 c 0.025,-0.1 -0.025,-0.237 -0.15,-0.412 -0.25,-0.325 -0.737,-0.625 -1.463,-0.9 -0.999,-0.425 -1.699,-0.725 -2.1,-0.899 -0.674,-0.275 -1.3,-0.438 -1.875,-0.487 -0.7,-0.05 -1.424,0.012 -2.174,0.188 -0.726,0.149 -1.325,0.375 -1.801,0.675 -0.375,0.2 -0.813,0.6 -1.313,1.2 -0.575,0.7 -0.887,1.063 -0.938,1.087 -0.9,0.65 -1.85,0.825 -2.85,0.525 -0.475,-0.15 -1.025,-0.476 -1.65,-0.976 -0.6,-0.499 -1.2,-0.824 -1.8,-0.975 -1.225,-0.3 -2.138,-0.525 -2.737,-0.675 -1.025,-0.3 -1.75,-0.588 -2.176,-0.862 -1.05,-0.676 -1.55,-1.301 -1.5,-1.875 0.1,-0.775 0.813,-1.288 2.138,-1.538 1.325,-0.225 2.413,-0.063 3.263,0.487 0.55,0.375 1.288,0.95 2.213,1.726 0.924,0.625 2.012,1.024 3.262,1.2 1.326,0.199 1.613,-0.188 0.863,-1.163 -0.226,-0.274 -1.15,-1.188 -2.775,-2.737 -0.9,-0.825 -1.388,-1.575 -1.463,-2.25 -0.1,-0.7 0.275,-1.388 1.125,-2.063 0.825,-0.675 1.738,-0.813 2.738,-0.412 0.899,0.35 1.625,1.024 2.175,2.024 0.025,0.025 0.225,0.8 0.6,2.325 0.125,0.5 0.637,0.45 1.538,-0.15 1.875,-1.274 3.175,-2.1 3.9,-2.475 1.574,-0.825 2.786,-1.05 3.637,-0.675 0.7,0.325 1.15,0.7 1.35,1.125 0.251,0.575 0.575,1.024 0.975,1.35 0.776,0.65 1.376,1.063 1.801,1.237 0.5,0.226 1.012,0.263 1.537,0.113 0.425,-0.125 0.975,0.063 1.65,0.563 C 37.613,31 38,31.226 38.1,31.2 c 0.4,-0.15 0.676,-0.125 0.826,0.075 0.074,0.074 0.111,0.175 0.111,0.3 0.375,0.2 0.4,0.3 0.076,0.3 -0.75,0 -1.352,-0.05 -1.801,-0.15 -0.1,-0.025 -0.488,-0.262 -1.162,-0.712 z"
   style="clip-rule:evenodd;fill:url(#SVGID_27_);fill-rule:evenodd" />
		
			<radialGradient
   gradientUnits="userSpaceOnUse"
   gradientTransform="matrix(-0.0822,0.7455,0.6997,0.0877,35.132,27.6901)"
   r="22.1208"
   cy="-21.2139"
   cx="0.0107"
   id="SVGID_28_">
			<stop
   id="stop382"
   style="stop-color:#FFF6D4"
   offset="0" />
			<stop
   id="stop384"
   style="stop-color:#E0CA70"
   offset="1" />
		</radialGradient>
		<path
   inkscape:connector-curvature="0"
   id="path387"
   d="m 35.963,30.6 c -0.551,-0.225 -1.175,-0.337 -1.875,-0.337 -0.75,0 -1.513,-0.313 -2.287,-0.938 -0.326,-0.3 -0.889,-0.888 -1.688,-1.763 -0.426,-0.5 -1.138,-0.725 -2.139,-0.675 -0.9,0.075 -1.675,0.3 -2.324,0.675 -0.875,0.5 -1.525,0.95 -1.951,1.35 -0.574,0.575 -0.399,0.838 0.525,0.788 0.251,0 1.038,-0.188 2.363,-0.563 0.675,-0.174 1.313,0.013 1.913,0.563 0.525,0.475 1.1,1.05 1.725,1.725 0.5,0.4 1.113,0.551 1.838,0.45 0.925,-0.125 1.725,0.101 2.4,0.675 0.649,0.601 0.499,1.101 -0.451,1.5 -0.85,0.351 -1.387,0.5 -1.611,0.45 l -0.037,-0.225 0.861,-0.488 c 0.476,-0.399 0.425,-0.712 -0.15,-0.938 -0.375,-0.149 -0.962,-0.25 -1.762,-0.3 -0.649,-0.024 -1.15,-0.175 -1.5,-0.45 -0.575,-0.6 -1.012,-1.062 -1.313,-1.387 -0.525,-0.551 -1.038,-0.851 -1.537,-0.9 C 26.563,29.787 26,29.85 25.275,30 c -0.826,0.175 -1.55,0.263 -2.176,0.263 -0.325,0 -1,0.1 -2.025,0.3 -0.474,0.101 -0.812,-0.037 -1.012,-0.412 -0.075,-0.125 -0.35,-0.775 -0.825,-1.95 -0.375,-0.875 -0.688,-1.425 -0.938,-1.65 -0.5,-0.45 -1.05,-0.712 -1.649,-0.787 -0.825,-0.125 -1.326,0.287 -1.5,1.237 -0.175,0.9 0.1,1.7 0.824,2.4 0.425,0.399 1.063,0.938 1.913,1.612 1.2,1.25 1.612,2.088 1.237,2.513 -0.45,0.449 -0.737,0.712 -0.862,0.787 -0.525,0.25 -1.225,0.237 -2.101,-0.037 C 15.313,34 14.375,33.575 13.35,33 c -1,-0.625 -1.649,-1.037 -1.949,-1.237 -0.475,-0.25 -1.125,-0.338 -1.95,-0.263 -0.85,0.075 -1.325,0.275 -1.425,0.6 -0.1,0.301 0.087,0.588 0.563,0.863 0.399,0.25 0.95,0.449 1.649,0.6 0.45,0.101 0.976,0.188 1.575,0.263 0.5,0.075 1.038,0.225 1.612,0.45 0.2,0.074 0.838,0.587 1.913,1.537 0.774,0.7 1.524,0.875 2.25,0.525 0.425,-0.2 1.125,-0.863 2.1,-1.988 0.825,-0.949 1.762,-1.487 2.813,-1.612 0.925,-0.1 1.788,-0.199 2.588,-0.3 0.475,0.025 1.199,0.275 2.174,0.75 0.801,0.4 1.526,0.65 2.176,0.75 0.35,0.05 0.575,0.162 0.676,0.338 0.225,0.35 0.938,0.787 2.137,1.313 L 30.75,36 c 0.025,-0.1 -0.037,-0.237 -0.188,-0.412 -0.25,-0.325 -0.737,-0.625 -1.463,-0.9 -1,-0.425 -1.699,-0.725 -2.1,-0.9 -0.676,-0.274 -1.3,-0.438 -1.875,-0.487 -1.426,-0.1 -2.75,0.188 -3.975,0.862 -0.351,0.2 -0.775,0.601 -1.275,1.2 -0.575,0.675 -0.887,1.038 -0.938,1.088 -0.9,0.649 -1.85,0.825 -2.85,0.524 -0.5,-0.124 -1.063,-0.449 -1.688,-0.975 -0.601,-0.5 -1.2,-0.825 -1.801,-0.975 -2.675,-0.65 -4.299,-1.15 -4.875,-1.5 -1.05,-0.7 -1.55,-1.338 -1.5,-1.913 0.075,-0.774 0.788,-1.274 2.138,-1.5 1.325,-0.225 2.4,-0.063 3.226,0.487 0.549,0.351 1.287,0.913 2.212,1.688 0.925,0.65 2.025,1.063 3.3,1.238 1.3,0.175 1.575,-0.226 0.825,-1.2 -0.275,-0.325 -1.2,-1.226 -2.774,-2.7 -0.9,-0.85 -1.375,-1.612 -1.426,-2.287 -0.074,-0.7 0.301,-1.388 1.125,-2.063 0.825,-0.676 1.726,-0.813 2.7,-0.413 0.9,0.351 1.625,1.025 2.175,2.025 0.05,0.1 0.263,0.888 0.638,2.362 0.125,0.476 0.625,0.412 1.5,-0.188 1.975,-1.325 3.274,-2.149 3.898,-2.475 1.601,-0.825 2.813,-1.051 3.639,-0.676 0.725,0.325 1.188,0.7 1.387,1.125 0.275,0.601 0.6,1.063 0.975,1.388 0.801,0.675 1.389,1.101 1.764,1.275 0.499,0.25 1.012,0.3 1.537,0.149 0.55,-0.175 1.1,-0.149 1.65,0.075 0.525,0.2 0.861,0.5 1.012,0.9 0.2,0.5 0.575,0.625 1.125,0.375 0.375,0.3 0.388,0.45 0.037,0.45 -0.199,0 -0.449,-0.063 -0.75,-0.188 -0.449,-0.2 -0.787,-0.325 -1.012,-0.375 -0.023,0.004 -0.41,-0.159 -1.16,-0.484 z"
   style="clip-rule:evenodd;fill:url(#SVGID_28_);fill-rule:evenodd" />
		
			<radialGradient
   gradientUnits="userSpaceOnUse"
   gradientTransform="matrix(-0.0824,0.7455,0.6997,0.0875,38.836,28.1451)"
   r="16.3867"
   cy="-23.778299"
   cx="4.9780002"
   id="SVGID_29_">
			<stop
   id="stop389"
   style="stop-color:#D6C894"
   offset="0" />
			<stop
   id="stop391"
   style="stop-color:#A89642"
   offset="1" />
		</radialGradient>
		<path
   inkscape:connector-curvature="0"
   id="path394"
   d="m 35.926,32.175 c 0.449,0.601 0.387,1.338 -0.188,2.213 l -1.088,0.6 0.713,-1.35 c 0.299,-0.601 0.012,-1.2 -0.863,-1.8 -0.25,-0.176 -1.063,-0.612 -2.438,-1.313 -0.625,-0.551 -1.112,-0.875 -1.463,-0.976 -0.55,-0.149 -1.611,0.2 -3.188,1.05 -1.45,0.775 -2.937,1.163 -4.463,1.163 -1.648,0 -2.487,0 -2.512,0 -0.35,0.149 -0.938,0.087 -1.763,-0.188 -1,-0.35 -1.8,-0.513 -2.399,-0.487 -0.8,0.024 -1.476,0.313 -2.025,0.862 -0.1,0.1 -0.425,0.55 -0.975,1.35 -0.175,0.25 -0.463,0.588 -0.863,1.013 -0.275,0.4 -0.312,0.838 -0.112,1.313 0.35,0.75 1.4,1.275 3.15,1.575 -0.325,0.075 -1.175,-0.075 -2.55,-0.45 -1.775,-0.45 -2.3,-1.237 -1.575,-2.362 0.175,-0.25 0.412,-0.5 0.712,-0.75 0.25,-0.175 0.525,-0.537 0.825,-1.088 0.5,-0.899 1.288,-1.563 2.362,-1.987 1.275,-0.55 2.575,-0.513 3.9,0.112 0.425,0.2 0.837,0.325 1.238,0.375 0.225,0.025 0.711,0.038 1.461,0.038 1.727,0 2.963,-0.163 3.713,-0.488 2.2,-1.05 3.7,-1.574 4.5,-1.574 0.6,0 1.101,0.1 1.5,0.3 0.275,0.149 0.763,0.5 1.463,1.05 0.35,0.3 0.912,0.6 1.688,0.9 0.601,0.274 1.013,0.574 1.24,0.899 z"
   style="clip-rule:evenodd;fill:url(#SVGID_29_);fill-rule:evenodd" />
		
			<radialGradient
   gradientUnits="userSpaceOnUse"
   gradientTransform="matrix(-0.0824,0.7455,0.6997,0.0875,38.4137,28.0922)"
   r="16.3867"
   cy="-23.4858"
   cx="4.6122999"
   id="SVGID_30_">
			<stop
   id="stop396"
   style="stop-color:#FFF6D4"
   offset="0" />
			<stop
   id="stop398"
   style="stop-color:#E0CA70"
   offset="1" />
		</radialGradient>
		<path
   inkscape:connector-curvature="0"
   id="path401"
   d="m 35.738,31.838 c 0.449,0.6 0.375,1.337 -0.227,2.212 l -1.049,0.601 0.713,-1.351 c 0.299,-0.574 0.012,-1.175 -0.863,-1.8 -0.274,-0.2 -1.088,-0.638 -2.438,-1.313 -0.625,-0.525 -1.112,-0.837 -1.463,-0.938 -0.574,-0.15 -1.638,0.188 -3.188,1.013 -1.45,0.775 -2.95,1.162 -4.5,1.162 -1.6,0 -2.425,0.013 -2.475,0.038 -0.35,0.149 -0.938,0.074 -1.763,-0.226 -0.975,-0.35 -1.775,-0.513 -2.399,-0.487 -0.8,0.025 -1.476,0.313 -2.025,0.862 -0.3,0.3 -0.638,0.75 -1.013,1.351 -0.149,0.25 -0.437,0.587 -0.862,1.012 -0.275,0.4 -0.3,0.838 -0.075,1.313 0.325,0.775 1.375,1.301 3.15,1.575 -0.35,0.075 -1.2,-0.063 -2.55,-0.412 -1.801,-0.5 -2.325,-1.3 -1.575,-2.4 0.175,-0.25 0.412,-0.5 0.712,-0.75 0.25,-0.175 0.525,-0.537 0.825,-1.087 0.475,-0.875 1.25,-1.538 2.325,-1.988 1.3,-0.524 2.612,-0.475 3.938,0.15 0.4,0.175 0.813,0.288 1.237,0.338 0.2,0.024 0.688,0.037 1.462,0.037 1.727,0 2.963,-0.162 3.713,-0.487 0.301,-0.125 0.987,-0.438 2.063,-0.938 1.075,-0.425 1.875,-0.638 2.4,-0.638 0.6,0 1.1,0.101 1.5,0.3 0.274,0.15 0.763,0.5 1.463,1.05 0.375,0.301 0.938,0.601 1.688,0.9 0.601,0.276 1.025,0.576 1.276,0.901 z"
   style="clip-rule:evenodd;fill:url(#SVGID_30_);fill-rule:evenodd" />
		
			<radialGradient
   gradientUnits="userSpaceOnUse"
   gradientTransform="matrix(-0.0824,0.7455,0.6999,0.0874,41.3522,28.4523)"
   r="15.0159"
   cy="-25.518101"
   cx="4.7660999"
   id="SVGID_31_">
			<stop
   id="stop403"
   style="stop-color:#FFF6D4"
   offset="0" />
			<stop
   id="stop405"
   style="stop-color:#E0CA70"
   offset="1" />
		</radialGradient>
		<path
   inkscape:connector-curvature="0"
   id="path408"
   d="m 35.176,33.3 c -0.375,-0.574 -1.038,-1.438 -1.988,-2.587 -0.4,-0.5 -0.725,-0.813 -0.975,-0.938 -0.375,-0.176 -0.787,-0.138 -1.238,0.112 -0.625,0.375 -1.137,0.787 -1.537,1.237 -0.525,0.55 -0.75,1.063 -0.676,1.537 0.251,1.751 0.375,2.813 0.375,3.188 0,1.101 -1.787,1.588 -5.361,1.463 -0.301,0 -0.351,-0.588 -0.15,-1.763 0.225,-1.3 -0.087,-2.162 -0.938,-2.587 -0.875,-0.425 -1.65,-0.425 -2.325,0 -1.025,0.675 -1.688,1.037 -1.988,1.087 -0.85,0.15 -1.65,0.45 -2.4,0.9 -0.65,0.4 -1.1,0.813 -1.35,1.237 -0.3,0.476 -0.688,0.663 -1.162,0.563 0.425,-1.05 1.137,-1.813 2.137,-2.287 0.351,-0.176 1.163,-0.5 2.438,-0.976 0.976,-0.375 1.625,-0.7 1.95,-0.975 0.425,-0.375 0.988,-0.575 1.688,-0.601 0.724,-0.024 1.324,0.125 1.799,0.45 0.975,0.625 1.463,1.625 1.463,3 0,0.75 0.013,1.138 0.037,1.163 0.076,0.225 0.412,0.35 1.014,0.375 0.799,0.05 1.461,-0.088 1.986,-0.413 0.626,-0.375 0.838,-0.888 0.639,-1.537 -0.375,-0.851 -0.602,-1.45 -0.676,-1.8 -0.175,-0.625 -0.074,-1.188 0.301,-1.688 0.6,-0.9 1.374,-1.601 2.324,-2.101 1.25,-0.625 2.225,-0.45 2.926,0.525 0.724,1.024 1.199,1.662 1.424,1.912 0.101,0.125 0.288,0.275 0.563,0.45 0.301,0.225 0.451,0.775 0.451,1.65 l -0.432,0.375 c 0.068,-0.235 -0.039,-0.56 -0.319,-0.971 z m 0.318,0.975 c -0.018,0.041 -0.036,0.078 -0.057,0.112 -0.074,0.125 -0.188,0.2 -0.338,0.225 z"
   style="clip-rule:evenodd;fill:url(#SVGID_31_);fill-rule:evenodd" />
		<path
   inkscape:connector-curvature="0"
   id="path410"
   d="m 16.088,25.2 c 0.2,0 0.188,0.063 -0.038,0.188 -0.425,0.225 -0.712,0.388 -0.862,0.487 -0.45,0.35 -0.675,1.05 -0.675,2.1 0,0.251 -0.063,0.251 -0.188,0 -0.125,-0.25 -0.175,-0.6 -0.15,-1.05 0.025,-0.475 0.25,-0.888 0.675,-1.237 0.4,-0.326 0.813,-0.488 1.238,-0.488 z"
   style="clip-rule:evenodd;fill:#ffffff;fill-rule:evenodd" />
		<path
   inkscape:connector-curvature="0"
   id="path412"
   d="m 8.475,30.338 c 0.5,0 0.938,0.087 1.313,0.262 0.375,0.15 0.425,0.226 0.15,0.226 -0.1,0 -0.487,0.087 -1.162,0.263 C 8.151,31.264 7.675,31.339 7.35,31.314 6.951,31.289 6.938,31.126 7.313,30.827 7.688,30.5 8.075,30.338 8.475,30.338 Z"
   style="clip-rule:evenodd;fill:#ffffff;fill-rule:evenodd" />
		<path
   inkscape:connector-curvature="0"
   id="path414"
   d="m 19.725,27.45 c 0.226,0.575 0.263,0.862 0.113,0.862 -0.15,0 -0.275,-0.188 -0.375,-0.563 -0.075,-0.325 -0.075,-0.525 0,-0.6 0.074,-0.099 0.162,10e-4 0.262,0.301 z"
   style="clip-rule:evenodd;fill:#ffffff;fill-rule:evenodd" />
		<path
   inkscape:connector-curvature="0"
   id="path416"
   d="m 22.875,25.313 c 0.301,0.025 0.525,0.138 0.676,0.338 0.148,0.199 0.062,0.25 -0.264,0.149 -0.225,-0.075 -0.55,-0.1 -0.975,-0.075 -0.449,0.051 -0.713,0.063 -0.787,0.038 -0.176,-0.05 -0.063,-0.138 0.338,-0.263 0.4,-0.15 0.738,-0.213 1.012,-0.187 z"
   style="clip-rule:evenodd;fill:#ffffff;fill-rule:evenodd" />
		<path
   inkscape:connector-curvature="0"
   id="path418"
   d="m 28.949,25.987 c 0.275,0.101 0.414,0.226 0.414,0.375 -0.026,0.125 -0.188,0.125 -0.488,0 -0.2,-0.075 -0.575,-0.024 -1.125,0.15 -0.525,0.175 -0.837,0.225 -0.938,0.149 -0.175,-0.124 0.05,-0.287 0.676,-0.487 0.65,-0.224 1.137,-0.286 1.461,-0.187 z"
   style="clip-rule:evenodd;fill:#ffffff;fill-rule:evenodd" />
		<path
   inkscape:connector-curvature="0"
   id="path420"
   d="m 22.051,29.4 c 0.399,-0.101 0.55,-0.013 0.449,0.262 -0.125,0.275 -0.4,0.413 -0.824,0.413 -0.375,0 -0.463,-0.101 -0.264,-0.3 0.151,-0.175 0.363,-0.3 0.639,-0.375 z"
   style="clip-rule:evenodd;fill:#ffffff;fill-rule:evenodd" />
		<path
   inkscape:connector-curvature="0"
   id="path422"
   d="m 36.225,29.513 c 0.575,0.025 0.7,0.112 0.375,0.263 -0.325,0.149 -0.637,0.212 -0.938,0.188 -0.225,-0.05 -0.262,-0.138 -0.111,-0.263 0.175,-0.151 0.399,-0.214 0.674,-0.188 z"
   style="clip-rule:evenodd;fill:#ffffff;fill-rule:evenodd" />
		<path
   inkscape:connector-curvature="0"
   id="path424"
   d="m 16.95,30.15 c 0.475,0.1 0.587,0.162 0.337,0.188 -0.275,0.05 -0.575,0.037 -0.899,-0.038 -0.226,-0.05 -0.613,0.013 -1.163,0.188 -0.399,0.101 -0.549,0.112 -0.449,0.038 0.174,-0.15 0.5,-0.263 0.975,-0.338 0.475,-0.075 0.874,-0.087 1.199,-0.038 z"
   style="clip-rule:evenodd;fill:#ffffff;fill-rule:evenodd" />
		<path
   inkscape:connector-curvature="0"
   id="path426"
   d="m 11.138,28.463 c 0.325,-0.05 0.538,-0.063 0.638,-0.038 0.1,0.05 0,0.125 -0.301,0.226 -0.174,0.05 -0.412,0.25 -0.712,0.6 -0.226,0.275 -0.388,0.375 -0.487,0.3 -0.125,-0.125 -0.05,-0.325 0.225,-0.6 0.249,-0.276 0.461,-0.438 0.637,-0.488 z"
   style="clip-rule:evenodd;fill:#ffffff;fill-rule:evenodd" />
		<path
   inkscape:connector-curvature="0"
   id="path428"
   d="m 23.1,32.438 c 0.2,0.075 0.4,0.225 0.6,0.45 0.227,0.25 0.363,0.475 0.414,0.675 0.074,0.4 -0.15,0.237 -0.676,-0.487 -0.15,-0.2 -0.412,-0.35 -0.787,-0.45 -0.451,-0.125 -0.7,-0.213 -0.75,-0.263 -0.125,-0.125 -0.037,-0.188 0.262,-0.188 0.3,0.025 0.611,0.112 0.937,0.263 z"
   style="clip-rule:evenodd;fill:#ffffff;fill-rule:evenodd" />
		<path
   inkscape:connector-curvature="0"
   id="path430"
   d="m 25.688,32.662 c 0.4,0.025 0.537,0.101 0.412,0.226 -0.15,0.125 -0.35,0.149 -0.6,0.075 -0.225,-0.075 -0.301,-0.15 -0.225,-0.226 0.075,-0.075 0.212,-0.099 0.413,-0.075 z"
   style="clip-rule:evenodd;fill:#ffffff;fill-rule:evenodd" />
		<path
   inkscape:connector-curvature="0"
   id="path432"
   d="m 20.813,33.525 c 0.35,-0.226 0.288,-0.05 -0.188,0.524 -0.475,0.601 -0.775,0.851 -0.9,0.75 -0.1,-0.1 0.013,-0.313 0.338,-0.638 0.25,-0.273 0.5,-0.486 0.75,-0.636 z"
   style="clip-rule:evenodd;fill:#ffffff;fill-rule:evenodd" />
		<path
   inkscape:connector-curvature="0"
   id="path434"
   d="m 30.188,29.737 c 0.301,-0.149 0.288,-0.075 -0.037,0.226 -0.451,0.425 -0.775,0.725 -0.975,0.899 -0.227,0.226 -0.388,0.513 -0.488,0.862 l -0.225,0.713 c -0.15,0.225 -0.188,0 -0.113,-0.675 0.025,-0.325 0.301,-0.725 0.826,-1.2 0.399,-0.424 0.737,-0.7 1.012,-0.825 z"
   style="clip-rule:evenodd;fill:#ffffff;fill-rule:evenodd" />
		<path
   inkscape:connector-curvature="0"
   id="path436"
   d="m 31.387,31.95 c 0.476,-0.025 0.988,0.05 1.539,0.225 0.475,0.176 0.724,0.325 0.75,0.45 0.024,0.101 -0.101,0.088 -0.375,-0.037 -0.351,-0.176 -0.626,-0.275 -0.826,-0.301 -1.149,-0.074 -1.838,-0.188 -2.063,-0.337 -0.1,-0.075 -0.063,-0.101 0.113,-0.075 0.375,0.05 0.663,0.075 0.862,0.075 z"
   style="clip-rule:evenodd;fill:#ffffff;fill-rule:evenodd" />
		<path
   inkscape:connector-curvature="0"
   id="path438"
   d="m 33.15,33.9 c 0.8,0.024 1.037,0.112 0.713,0.262 -0.326,0.15 -0.676,0.226 -1.051,0.226 -0.25,0 -0.313,-0.075 -0.188,-0.226 0.102,-0.175 0.275,-0.262 0.526,-0.262 z"
   style="clip-rule:evenodd;fill:#ffffff;fill-rule:evenodd" />
		<path
   inkscape:connector-curvature="0"
   id="path440"
   d="m 13.313,30.3 c 0.475,0.025 0.512,0.138 0.112,0.338 -0.4,0.2 -0.675,0.213 -0.825,0.037 -0.225,-0.25 0.013,-0.375 0.713,-0.375 z"
   style="clip-rule:evenodd;fill:#efdfa1;fill-rule:evenodd" />
		<path
   inkscape:connector-curvature="0"
   id="path442"
   d="m 10.088,31.875 c 0.375,0 0.687,0.063 0.938,0.188 0.2,0.125 0.275,0.25 0.225,0.375 -0.05,0.101 -0.3,0.162 -0.75,0.188 -0.45,0.026 -0.8,0.013 -1.05,-0.037 -0.25,-0.05 -0.288,-0.188 -0.112,-0.413 0.148,-0.2 0.398,-0.301 0.749,-0.301 z"
   style="clip-rule:evenodd;fill:#efdfa1;fill-rule:evenodd" />
		<path
   inkscape:connector-curvature="0"
   id="path444"
   d="m 16.088,31.313 c 0.425,-0.025 0.587,0.063 0.487,0.263 -0.1,0.175 -0.313,0.3 -0.638,0.375 -0.05,0 -0.3,0.087 -0.75,0.263 -0.275,0.1 -0.512,0.1 -0.713,0 -0.25,-0.101 -0.149,-0.263 0.301,-0.488 0.45,-0.251 0.888,-0.388 1.313,-0.413 z"
   style="clip-rule:evenodd;fill:#efdfa1;fill-rule:evenodd" />
		<path
   inkscape:connector-curvature="0"
   id="path446"
   d="m 18.338,31.912 c 0.35,0.4 0.399,0.575 0.149,0.525 -0.275,-0.075 -0.5,-0.225 -0.675,-0.45 -0.15,-0.199 -0.15,-0.337 0,-0.412 0.126,-0.05 0.3,0.063 0.526,0.337 z"
   style="clip-rule:evenodd;fill:#ffffff;fill-rule:evenodd" />
		<path
   inkscape:connector-curvature="0"
   id="path448"
   d="m 16.05,33.375 c 0.725,0.2 1.113,0.338 1.163,0.412 0.024,0.051 -0.15,0.088 -0.525,0.113 C 16.363,33.924 16,33.85 15.6,33.674 c -0.425,-0.175 -0.687,-0.35 -0.787,-0.524 -0.075,-0.125 0,-0.163 0.225,-0.113 0.15,0.051 0.487,0.163 1.012,0.338 z"
   style="clip-rule:evenodd;fill:#ffffff;fill-rule:evenodd" />
		<path
   inkscape:connector-curvature="0"
   id="path450"
   d="m 19.575,31.8 c 0.25,0 0.325,0.112 0.225,0.338 -0.1,0.25 -0.275,0.325 -0.524,0.225 -0.226,-0.1 -0.288,-0.225 -0.188,-0.375 0.1,-0.126 0.262,-0.188 0.487,-0.188 z"
   style="clip-rule:evenodd;fill:#ffffff;fill-rule:evenodd" />
		<path
   inkscape:connector-curvature="0"
   id="path452"
   d="m 21.824,27.6 c 0.626,0.075 0.926,0.188 0.9,0.338 -0.024,0.15 -0.188,0.225 -0.486,0.225 -0.251,0 -0.551,-0.037 -0.9,-0.112 -0.375,-0.075 -0.612,-0.162 -0.713,-0.263 -0.101,-0.1 -0.025,-0.175 0.225,-0.225 0.251,-0.05 0.575,-0.038 0.974,0.037 z"
   style="clip-rule:evenodd;fill:#ffffff;fill-rule:evenodd" />
		<path
   inkscape:connector-curvature="0"
   id="path454"
   d="m 25.125,28.725 c 1.325,0 1.7,0.063 1.125,0.188 -0.725,0.2 -1.199,0.288 -1.426,0.263 -0.249,-0.024 -0.324,-0.1 -0.225,-0.225 0.101,-0.151 0.276,-0.226 0.526,-0.226 z"
   style="clip-rule:evenodd;fill:#efdfa1;fill-rule:evenodd" />
		<path
   inkscape:connector-curvature="0"
   id="path456"
   d="m 25.801,30.188 c 0.475,-0.175 0.6,-0.162 0.375,0.037 -0.251,0.2 -0.551,0.375 -0.9,0.525 -0.301,0.125 -0.775,0.225 -1.426,0.3 -0.574,0.05 -0.987,0.05 -1.236,0 -0.2,-0.05 -0.076,-0.125 0.375,-0.225 0.449,-0.125 0.861,-0.188 1.236,-0.188 0.325,0 0.612,-0.05 0.863,-0.15 0.15,-0.049 0.387,-0.149 0.713,-0.299 z"
   style="clip-rule:evenodd;fill:#ffffff;fill-rule:evenodd" />
		<path
   inkscape:connector-curvature="0"
   id="path458"
   d="m 26.213,35.475 c 0.124,0 0.237,0.088 0.338,0.263 0.1,0.2 0.049,0.325 -0.15,0.375 -0.251,0.075 -0.5,0.063 -0.75,-0.037 -0.251,-0.125 -0.412,-0.288 -0.488,-0.487 -0.05,-0.15 0,-0.226 0.15,-0.226 0.5,0.075 0.799,0.112 0.9,0.112 z"
   style="clip-rule:evenodd;fill:#efdfa1;fill-rule:evenodd" />
		<path
   inkscape:connector-curvature="0"
   id="path460"
   d="m 23.176,35.287 c 0.399,-0.25 0.362,0.051 -0.113,0.9 -0.101,0.15 -0.301,0.237 -0.6,0.263 -0.301,0 -0.538,-0.063 -0.713,-0.188 -0.125,-0.125 0,-0.288 0.375,-0.487 0.2,-0.1 0.55,-0.262 1.051,-0.488 z"
   style="clip-rule:evenodd;fill:#efdfa1;fill-rule:evenodd" />
		<path
   inkscape:connector-curvature="0"
   id="path462"
   d="m 13.763,34.763 c 0.4,0.2 0.387,0.274 -0.038,0.225 -0.425,-0.05 -0.7,-0.162 -0.824,-0.337 -0.125,-0.15 -0.1,-0.226 0.074,-0.226 0.2,0.025 0.463,0.138 0.788,0.338 z"
   style="clip-rule:evenodd;fill:#ffffff;fill-rule:evenodd" />
		<path
   inkscape:connector-curvature="0"
   id="path464"
   d="m 15.6,34.463 c 0.325,-0.05 0.325,0.074 0,0.375 -0.325,0.3 -0.612,0.5 -0.862,0.6 -0.2,0.075 -0.163,-0.063 0.112,-0.412 0.275,-0.351 0.525,-0.539 0.75,-0.563 z"
   style="clip-rule:evenodd;fill:#ffffff;fill-rule:evenodd" />
		<path
   inkscape:connector-curvature="0"
   id="path466"
   d="m 30.9,28.875 c 1.024,0.3 1.624,0.75 1.799,1.35 -0.199,-0.199 -0.649,-0.449 -1.35,-0.75 -0.7,-0.25 -1.1,-0.399 -1.199,-0.449 -0.101,-0.101 -0.063,-0.163 0.111,-0.188 0.201,-0.025 0.415,-0.013 0.639,0.037 z"
   style="clip-rule:evenodd;fill:#ffffff;fill-rule:evenodd" />
		<path
   inkscape:connector-curvature="0"
   id="path468"
   d="m 27.412,30.825 c 0.65,0.149 0.775,0.313 0.375,0.487 -0.375,0.15 -0.762,0.188 -1.162,0.112 -0.325,-0.075 -0.35,-0.212 -0.074,-0.412 0.274,-0.174 0.562,-0.237 0.861,-0.187 z"
   style="clip-rule:evenodd;fill:#efdfa1;fill-rule:evenodd" />
		<path
   inkscape:connector-curvature="0"
   id="path470"
   d="m 19.388,29.85 c 0.3,-0.05 0.437,0.051 0.412,0.301 -0.05,0.274 -0.188,0.387 -0.412,0.337 -0.2,-0.05 -0.3,-0.149 -0.3,-0.3 0,-0.175 0.1,-0.288 0.3,-0.338 z"
   style="clip-rule:evenodd;fill:#ffffff;fill-rule:evenodd" />
		<path
   inkscape:connector-curvature="0"
   id="path472"
   d="m 17.963,27.225 c 0.2,-0.05 0.237,0 0.112,0.15 -0.125,0.175 -0.325,0.325 -0.601,0.45 -0.6,0.375 -1.075,0.524 -1.425,0.45 -0.2,-0.025 -0.188,-0.088 0.038,-0.188 0.225,-0.101 0.449,-0.163 0.675,-0.188 0.125,0 0.287,-0.088 0.487,-0.263 0.251,-0.198 0.488,-0.336 0.714,-0.411 z"
   style="clip-rule:evenodd;fill:#ffffff;fill-rule:evenodd" />
		
			<linearGradient
   gradientTransform="matrix(0.75,0,0,0.75,4.5,23.8496)"
   y2="5.6465001"
   x2="40.035198"
   y1="5.6465001"
   x1="7.0391002"
   gradientUnits="userSpaceOnUse"
   id="SVGID_32_">
			<stop
   id="stop474"
   style="stop-color:#B34312"
   offset="0" />
			<stop
   id="stop476"
   style="stop-color:#7A3111"
   offset="1" />
		</linearGradient>
		<path
   inkscape:connector-curvature="0"
   id="path479"
   d="m 28.762,25.65 c 0.826,0.175 1.738,0.6 2.738,1.274 0.875,0.601 1.438,1.05 1.688,1.351 0.375,0.425 0.625,0.7 0.75,0.824 0.476,0.4 0.663,0.676 0.563,0.825 -0.101,0.125 -0.575,0.313 -1.426,0.563 -0.649,0.2 -1.262,0.163 -1.836,-0.112 C 30.238,29.95 29.7,29.726 29.626,29.7 c -0.425,-0.075 -0.938,0.112 -1.537,0.563 -0.875,0.649 -1.813,1.138 -2.813,1.462 -1.101,0.351 -2.051,0.438 -2.85,0.263 -0.776,-0.175 -1.352,-0.199 -1.726,-0.075 -0.725,0.251 -1.312,0.375 -1.762,0.375 -0.375,0.025 -1.05,-0.074 -2.025,-0.3 -0.725,-0.149 -1.225,-0.513 -1.5,-1.087 -0.35,-0.65 -0.587,-1.013 -0.712,-1.088 -0.775,-0.4 -1.975,-0.4 -3.601,0 -0.95,0.224 -1.387,0.087 -1.313,-0.413 0.05,-0.476 0.388,-0.851 1.013,-1.125 0.375,-0.15 0.95,-0.313 1.726,-0.488 0.6,-0.175 0.924,-0.462 0.975,-0.862 0.05,-0.5 0.438,-1.075 1.162,-1.725 0.75,-0.7 1.5,-1.112 2.25,-1.237 0.85,-0.125 1.775,-0.113 2.775,0.037 1.05,0.175 1.925,0.225 2.625,0.15 0.824,-0.075 1.587,0.1 2.287,0.524 0.8,0.476 1.426,0.726 1.875,0.75 1.125,0.051 1.887,0.126 2.287,0.226 z"
   style="clip-rule:evenodd;fill:url(#SVGID_32_);fill-rule:evenodd" />
		
			<linearGradient
   gradientTransform="matrix(0.75,0,0,0.75,4.5,23.8496)"
   y2="9.0010004"
   x2="40.0728"
   y1="9.0010004"
   x1="7.0376"
   gradientUnits="userSpaceOnUse"
   id="SVGID_33_">
			<stop
   id="stop481"
   style="stop-color:#9E3B10"
   offset="0" />
			<stop
   id="stop483"
   style="stop-color:#61240A"
   offset="1" />
		</linearGradient>
		<path
   inkscape:connector-curvature="0"
   id="path486"
   d="m 29.625,29.7 c -0.425,-0.075 -0.938,0.112 -1.537,0.563 -0.875,0.649 -1.813,1.138 -2.813,1.462 -1.101,0.351 -2.051,0.438 -2.85,0.263 -0.776,-0.175 -1.352,-0.199 -1.726,-0.075 -0.725,0.251 -1.312,0.375 -1.762,0.375 -0.375,0.025 -1.05,-0.074 -2.025,-0.3 -0.725,-0.149 -1.225,-0.513 -1.5,-1.087 -0.35,-0.65 -0.587,-1.013 -0.712,-1.088 -0.775,-0.4 -1.975,-0.4 -3.601,0 -0.899,0.2 -1.35,0.088 -1.35,-0.338 0.35,0.051 0.713,0.013 1.088,-0.112 0.8,-0.25 1.637,-0.399 2.512,-0.45 1,-0.024 1.688,0.113 2.063,0.413 0.301,0.225 0.563,0.725 0.788,1.5 0.425,0.649 1.412,0.85 2.962,0.6 1.35,-0.199 2.326,-0.274 2.926,-0.225 0.475,0.05 1.049,0 1.725,-0.15 0.775,-0.199 1.587,-0.537 2.438,-1.013 0.824,-0.475 1.413,-0.75 1.762,-0.824 0.525,-0.101 1.025,-0.113 1.5,-0.038 0.275,0.05 0.838,0.15 1.688,0.3 0.9,0.101 1.513,0.138 1.838,0.113 0.425,-0.05 0.688,-0.237 0.787,-0.563 l 0.113,0.074 c 0.476,0.4 0.663,0.676 0.563,0.825 -0.101,0.125 -0.575,0.313 -1.426,0.563 -0.649,0.2 -1.262,0.163 -1.836,-0.112 -1.003,-0.426 -1.541,-0.65 -1.615,-0.676 z"
   style="clip-rule:evenodd;fill:url(#SVGID_33_);fill-rule:evenodd" />
		
			<use
   id="use488"
   style="overflow:visible;opacity:0.57810005;enable-background:new"
   transform="matrix(0.75,0,0,-0.75,19.4248,185.56229)"
   y="-1.423"
   x="-0.013"
   height="1.437"
   width="2.7130001"
   xlink:href="#flash0.ai_x5F_7_x2F_Layer_39_x2F__x3C_Path_x3E__x5F_21" />
		
			<use
   id="use490"
   style="overflow:visible;opacity:0.57810005;enable-background:new"
   transform="matrix(0.75,0,0,-0.75,19.125,187.31229)"
   y="-1.2130001"
   x="0.012"
   height="1.219"
   width="2.108"
   xlink:href="#flash0.ai_x5F_7_x2F_Layer_39_x2F__x3C_Path_x3E__x5F_20" />
		
			<use
   id="use492"
   style="overflow:visible;opacity:0.57810005;enable-background:new"
   transform="matrix(0.75,0,0,-0.75,24.8252,188.31229)"
   y="-1.9"
   x="-0.003"
   height="1.933"
   width="2.9030001"
   xlink:href="#flash0.ai_x5F_7_x2F_Layer_39_x2F__x3C_Path_x3E__x5F_19" />
		
			<use
   id="use494"
   style="overflow:visible;opacity:0.57810005;enable-background:new"
   transform="matrix(0.75,0,0,-0.75,27.6748,186.16289)"
   y="-1.1"
   x="-0.028000001"
   height="1.08"
   width="1.926"
   xlink:href="#flash0.ai_x5F_7_x2F_Layer_39_x2F__x3C_Path_x3E__x5F_18" />
		
			<use
   id="use496"
   style="overflow:visible;opacity:0.57810005;enable-background:new"
   transform="matrix(0.75,0,0,-0.75,26.9248,184.26249)"
   y="-2.3399999"
   x="0"
   height="2.3299999"
   width="2.753"
   xlink:href="#flash0.ai_x5F_7_x2F_Layer_39_x2F__x3C_Path_x3E__x5F_17" />
		
			<use
   id="use498"
   style="overflow:visible;opacity:0.57810005;enable-background:new"
   transform="matrix(0.75,0,0,-0.75,31.5752,185.71269)"
   y="-2.75"
   x="-0.023"
   height="2.7249999"
   width="4.2950001"
   xlink:href="#flash0.ai_x5F_7_x2F_Layer_39_x2F__x3C_Path_x3E__x5F_16" />
		
			<use
   id="use500"
   style="overflow:visible;opacity:0.57810005;enable-background:new"
   transform="matrix(0.75,0,0,-0.75,34.625,186.91289)"
   y="-0.90399998"
   x="-0.017000001"
   height="0.912"
   width="1.367"
   xlink:href="#flash0.ai_x5F_7_x2F_Layer_39_x2F__x3C_Path_x3E__x5F_15" />
		
			<use
   id="use502"
   style="overflow:visible;opacity:0.57810005;enable-background:new"
   transform="matrix(0.75,0,0,-0.75,35.6748,187.81229)"
   y="-0.82200003"
   x="-0.018999999"
   height="0.83899999"
   width="1.2970001"
   xlink:href="#flash0.ai_x5F_7_x2F_Layer_39_x2F__x3C_Path_x3E__x5F_14" />
		
			<use
   id="use504"
   style="overflow:visible;opacity:0.57810005;enable-background:new"
   transform="matrix(0.75,0,0,-0.75,28.9248,187.66289)"
   y="-1.25"
   x="-0.052000001"
   height="1.268"
   width="2.454"
   xlink:href="#flash0.ai_x5F_7_x2F_Layer_39_x2F__x3C_Path_x3E__x5F_13" />
		
			<use
   id="use506"
   style="overflow:visible;opacity:0.57810005;enable-background:new"
   transform="matrix(0.75,0,0,-0.75,23.9248,185.96269)"
   y="-1.4680001"
   x="-0.021"
   height="1.513"
   width="2.9649999"
   xlink:href="#flash0.ai_x5F_7_x2F_Layer_39_x2F__x3C_Path_x3E__x5F_12" />
		
			<use
   id="use508"
   style="overflow:visible;opacity:0.57810005;enable-background:new"
   transform="matrix(0.75,0,0,-0.75,22.9248,187.01249)"
   y="-1.105"
   x="-0.026000001"
   height="1.108"
   width="1.704"
   xlink:href="#flash0.ai_x5F_7_x2F_Layer_39_x2F__x3C_Path_x3E__x5F_11" />
		
			<use
   id="use510"
   style="overflow:visible;opacity:0.57810005;enable-background:new"
   transform="matrix(0.75,0,0,-0.75,22.125,189.66289)"
   y="-1.05"
   x="-0.0040000002"
   height="1.054"
   width="1.485"
   xlink:href="#flash0.ai_x5F_7_x2F_Layer_39_x2F__x3C_Path_x3E__x5F_10" />
		
			<use
   id="use512"
   style="overflow:visible;opacity:0.57810005;enable-background:new"
   transform="matrix(0.75,0,0,-0.75,16.5752,187.31229)"
   y="-0.5"
   x="-0.0060000001"
   height="0.523"
   width="0.71100003"
   xlink:href="#flash0.ai_x5F_7_x2F_Layer_39_x2F__x3C_Path_x3E__x5F_9" />
		<path
   inkscape:connector-curvature="0"
   id="path514"
   d="m 18.675,24.15 c 0.7,0.05 1.063,0.237 1.088,0.563 0,0.3 -0.175,0.5 -0.525,0.6 -0.275,0.101 -0.487,0.162 -0.638,0.188 -0.25,0.075 -0.575,0.101 -0.975,0.075 -1.1,-0.05 -1.987,-0.013 -2.662,0.112 -0.625,0.15 -0.288,-0.213 1.012,-1.088 0.625,-0.4 1.525,-0.55 2.7,-0.45 z"
   style="clip-rule:evenodd;fill:#ba4b1c;fill-rule:evenodd" />
		<path
   inkscape:connector-curvature="0"
   id="path516"
   d="m 12.112,28.088 c 0.375,-0.05 0.513,0.024 0.413,0.225 -0.075,0.2 -0.313,0.338 -0.713,0.412 -0.85,0.176 -1.275,0.163 -1.275,-0.037 0,-0.25 0.526,-0.451 1.575,-0.6 z"
   style="clip-rule:evenodd;fill:#ba4b1c;fill-rule:evenodd" />
		<path
   inkscape:connector-curvature="0"
   id="path518"
   d="m 15.263,27.037 c 0.35,-0.024 0.462,0.113 0.337,0.413 -0.1,0.274 -0.362,0.4 -0.787,0.375 -0.4,-0.025 -0.487,-0.15 -0.263,-0.375 0.2,-0.25 0.437,-0.387 0.713,-0.413 z"
   style="clip-rule:evenodd;fill:#ba4b1c;fill-rule:evenodd" />
		<path
   inkscape:connector-curvature="0"
   id="path520"
   d="m 22.801,24.3 c 0.574,-0.024 0.911,0.125 1.012,0.45 0.101,0.275 -0.213,0.588 -0.938,0.938 -0.25,0.125 -0.537,0.162 -0.863,0.112 -0.324,-0.1 -0.574,-0.162 -0.75,-0.188 -0.199,-0.05 -0.249,-0.175 -0.148,-0.375 0.049,-0.075 0.212,-0.263 0.486,-0.563 0.15,-0.149 0.313,-0.25 0.488,-0.3 0.024,0.001 0.262,-0.024 0.713,-0.074 z"
   style="clip-rule:evenodd;fill:#ba4b1c;fill-rule:evenodd" />
		<path
   inkscape:connector-curvature="0"
   id="path522"
   d="m 19.725,26.287 c 0.45,-0.074 0.838,-0.074 1.163,0 0.326,0.101 0.35,0.213 0.076,0.338 -0.175,0.101 -0.351,0.213 -0.525,0.338 -0.15,0.149 -0.325,0.262 -0.525,0.337 -0.25,0.15 -0.437,0.3 -0.563,0.45 -0.074,0.101 -0.174,0.313 -0.3,0.638 -0.125,0.25 -0.313,0.287 -0.563,0.112 -0.25,-0.15 -0.4,-0.325 -0.45,-0.525 -0.024,-0.1 0.05,-0.237 0.226,-0.412 0.2,-0.225 0.325,-0.4 0.375,-0.525 0.148,-0.4 0.511,-0.65 1.086,-0.751 z"
   style="clip-rule:evenodd;fill:#ba4b1c;fill-rule:evenodd" />
		<path
   inkscape:connector-curvature="0"
   id="path524"
   d="m 18.45,30.112 c 0.25,0.025 0.325,0.138 0.225,0.338 -0.05,0.125 -0.175,0.313 -0.375,0.563 -0.075,0.175 -0.212,0.225 -0.412,0.149 -0.075,-0.024 -0.275,-0.124 -0.601,-0.3 -0.25,-0.1 -0.262,-0.263 -0.037,-0.487 0.25,-0.225 0.65,-0.312 1.2,-0.263 z"
   style="clip-rule:evenodd;fill:#ba4b1c;fill-rule:evenodd" />
		<path
   inkscape:connector-curvature="0"
   id="path526"
   d="m 24.9,29.287 c 0.35,-0.024 0.525,0.051 0.525,0.226 0,0.125 -0.076,0.263 -0.227,0.412 -0.274,0.226 -0.637,0.3 -1.086,0.226 -0.301,-0.05 -0.338,-0.2 -0.113,-0.45 0.251,-0.251 0.551,-0.388 0.901,-0.414 z"
   style="clip-rule:evenodd;fill:#ba4b1c;fill-rule:evenodd" />
		<path
   inkscape:connector-curvature="0"
   id="path528"
   d="m 28.725,25.987 c 0.325,0.075 0.438,0.288 0.338,0.638 -0.1,0.35 -0.362,0.638 -0.787,0.862 -0.375,0.176 -0.6,0.263 -0.676,0.263 -0.225,-0.075 -0.537,-0.162 -0.938,-0.263 -0.525,-0.149 -0.774,-0.399 -0.75,-0.75 0,-0.125 0.101,-0.375 0.301,-0.75 0.074,-0.149 0.375,-0.225 0.9,-0.225 0.475,0.001 1.012,0.076 1.612,0.225 z"
   style="clip-rule:evenodd;fill:#ba4b1c;fill-rule:evenodd" />
		<path
   inkscape:connector-curvature="0"
   id="path530"
   d="m 38.438,31.05 h 1.125 l 0.037,0.563 c 0,1.825 -1.712,3.375 -5.137,4.65 -3.425,1.274 -7.563,1.912 -12.412,1.912 -4.851,0 -8.988,-0.638 -12.413,-1.912 C 6.212,34.987 4.5,33.438 4.5,31.612 L 4.575,31.049 H 5.85 v 0.3 c 0,1.625 1.588,3 4.763,4.125 3.175,1.15 7.025,1.726 11.55,1.726 4.5,0 8.338,-0.575 11.514,-1.726 3.175,-1.125 4.762,-2.5 4.762,-4.125 V 31.05 Z"
   style="clip-rule:evenodd;fill:#f5f5f5;fill-rule:evenodd" />
	</g>
</svg>