<?xml version="1.0" encoding="UTF-8" standalone="no"?>
<!-- Generator: Adobe Illustrator 15.1.0, SVG Export Plug-In . SVG Version: 6.00 Build 0)  -->

<svg
   xmlns:dc="http://purl.org/dc/elements/1.1/"
   xmlns:cc="http://creativecommons.org/ns#"
   xmlns:rdf="http://www.w3.org/1999/02/22-rdf-syntax-ns#"
   xmlns:svg="http://www.w3.org/2000/svg"
   xmlns="http://www.w3.org/2000/svg"
   xmlns:xlink="http://www.w3.org/1999/xlink"
   xmlns:sodipodi="http://sodipodi.sourceforge.net/DTD/sodipodi-0.dtd"
   xmlns:inkscape="http://www.inkscape.org/namespaces/inkscape"
   version="1.1"
   id="flash0.ai"
   x="0px"
   y="0px"
   width="256"
   height="256"
   viewBox="0 0 256 256"
   xml:space="preserve"
   sodipodi:docname="spaghetti_01.svg"
   inkscape:version="0.92.4 (5da689c313, 2019-01-14)"
   inkscape:export-xdpi="10.5"
   inkscape:export-ydpi="10.5"><title
   id="title1196">Spaghetti</title><metadata
   id="metadata389"><rdf:RDF><cc:Work
       rdf:about=""><dc:format>image/svg+xml</dc:format><dc:type
         rdf:resource="http://purl.org/dc/dcmitype/StillImage" /><dc:title>Spaghetti</dc:title><cc:license
         rdf:resource="http://creativecommons.org/publicdomain/zero/1.0/" /><dc:creator><cc:Agent><dc:title>Glitch</dc:title></cc:Agent></dc:creator><dc:source>https://opengameart.org/node/20149</dc:source></cc:Work><cc:License
       rdf:about="http://creativecommons.org/publicdomain/zero/1.0/"><cc:permits
         rdf:resource="http://creativecommons.org/ns#Reproduction" /><cc:permits
         rdf:resource="http://creativecommons.org/ns#Distribution" /><cc:permits
         rdf:resource="http://creativecommons.org/ns#DerivativeWorks" /></cc:License></rdf:RDF></metadata><defs
   id="defs387"><linearGradient
     inkscape:collect="always"
     xlink:href="#SVGID_1_"
     id="linearGradient1399"
     gradientUnits="userSpaceOnUse"
     gradientTransform="matrix(1,-0.0031,0.0031,1,25.5376,25.5313)"
     x1="-21.8403"
     y1="-31.002001"
     x2="-5.8403001"
     y2="-31.002001" /></defs><sodipodi:namedview
   pagecolor="#ffffff"
   bordercolor="#666666"
   borderopacity="1"
   objecttolerance="10"
   gridtolerance="10"
   guidetolerance="10"
   inkscape:pageopacity="0"
   inkscape:pageshadow="2"
   inkscape:window-width="1920"
   inkscape:window-height="1025"
   id="namedview385"
   showgrid="false"
   inkscape:zoom="1.0642678"
   inkscape:cx="34.994079"
   inkscape:cy="-36.624232"
   inkscape:window-x="-8"
   inkscape:window-y="-8"
   inkscape:window-maximized="1"
   inkscape:current-layer="flash0.ai"
   fit-margin-top="0"
   fit-margin-left="0"
   fit-margin-right="0"
   fit-margin-bottom="0" />
<symbol
   id="flash0.ai_x5F_7_x2F_Layer_2_copy_x2F__x3C_Path_x3E__x5F_48"
   viewBox="0 -10.85 24.8 10.85"
   transform="translate(-4.6490002,216.788)">
	<g
   id="Layer_1_2_">
		
			<linearGradient
   id="SVGID_1_"
   gradientUnits="userSpaceOnUse"
   x1="-21.8403"
   y1="-31.002001"
   x2="-5.8403001"
   y2="-31.002001"
   gradientTransform="matrix(1,-0.0031,0.0031,1,25.5376,25.5313)">
			<stop
   offset="0"
   style="stop-color:#FFFFFF"
   id="stop2" />
			<stop
   offset="1"
   style="stop-color:#000000"
   id="stop4" />
		</linearGradient>
		<path
   style="clip-rule:evenodd;fill:url(#linearGradient1399);fill-rule:evenodd"
   d="m 24.8,-1.45 -3.25,-9.4 -5.25,0.05 c -1.133,0.167 -2.4,0.45 -3.8,0.85 -1.467,0.467 -2.683,0.967 -3.65,1.5 C 5.717,-6.717 3.3,-4.783 1.6,-2.65 0.767,-1.583 0.233,-0.7 0,0 l 2.75,-0.45 c 4.5,-0.733 10.017,-1.1 16.55,-1.1 z"
   id="path7"
   inkscape:connector-curvature="0" />
	</g>
</symbol>

<g
   id="g360"
   transform="matrix(6.8652816,0,0,6.8652816,-31.916695,-80.537742)">
			<path
   style="clip-rule:evenodd;fill:#d7eaf2;fill-rule:evenodd"
   d="m 39.563,30.024 0.15,-0.037 c -0.976,2.675 -3.075,4.875 -6.301,6.6 -3.274,1.751 -7.012,2.625 -11.212,2.625 -4.226,0 -7.988,-0.888 -11.288,-2.662 C 7.662,34.8 5.575,32.575 4.649,29.875 l 0.3,0.037 c 0.975,0.65 3.063,1.188 6.263,1.612 3.25,0.426 6.95,0.638 11.1,0.638 4.075,0 7.712,-0.2 10.912,-0.6 3.151,-0.4 5.263,-0.913 6.339,-1.538 z"
   id="path193"
   inkscape:connector-curvature="0" />
			<path
   style="clip-rule:evenodd;fill:#bdd4de;fill-rule:evenodd"
   d="m 38.175,30.587 c -0.225,0.601 -0.587,1.226 -1.087,1.875 -0.95,1.275 -2.426,2.563 -4.426,3.863 -1.574,1.024 -3.512,1.85 -5.813,2.475 -1.074,0.15 -1.675,0.225 -1.8,0.225 3.025,-0.925 5.2,-2.274 6.525,-4.05 0.575,-0.774 0.938,-1.5 1.087,-2.175 0.075,-0.625 0.125,-1.037 0.15,-1.237 2.327,-0.25 4.114,-0.576 5.364,-0.976 z"
   id="path195"
   inkscape:connector-curvature="0" />
			
				<use
   xlink:href="#flash0.ai_x5F_7_x2F_Layer_2_copy_x2F__x3C_Path_x3E__x5F_48"
   width="24.799999"
   height="10.85"
   y="-10.85"
   transform="matrix(0.75,0,0,-0.75,11.33685,193.591)"
   style="overflow:visible;opacity:0.44140003;enable-background:new"
   id="use197"
   x="0" />
			<path
   style="clip-rule:evenodd;fill:#bdd4de;fill-rule:evenodd"
   d="m 7.5,33.399 c 1.584,1.874 3.584,3.306 6,4.294 C 11.437,36.931 9.662,35.937 8.175,34.712 6.45,33.287 5.275,31.675 4.65,29.875 l 0.3,0.037 c 0.175,0.125 0.363,0.226 0.563,0.3 0.425,1.051 1.087,2.113 1.987,3.187 z"
   id="path199"
   inkscape:connector-curvature="0" />
			
				<linearGradient
   id="SVGID_17_"
   gradientUnits="userSpaceOnUse"
   x1="1.1006"
   y1="10.2002"
   x2="46.150398"
   y2="10.2002"
   gradientTransform="matrix(0.75,0,0,0.75,4.6499,21.5498)">
				<stop
   offset="0"
   style="stop-color:#9CADB5"
   id="stop201" />
				<stop
   offset="1"
   style="stop-color:#E0E0E0"
   id="stop203" />
			</linearGradient>
			<path
   style="clip-rule:evenodd;fill:url(#SVGID_17_);fill-rule:evenodd"
   d="m 34.313,24.7 c 3.3,1.25 4.95,2.75 4.95,4.5 0,1.749 -1.65,3.237 -4.95,4.462 -3.3,1.25 -7.275,1.875 -11.925,1.875 -4.675,0 -8.663,-0.625 -11.963,-1.875 -3.3,-1.225 -4.95,-2.713 -4.95,-4.462 0,-1.75 1.65,-3.25 4.95,-4.5 3.3,-1.226 7.288,-1.838 11.963,-1.838 4.649,0 8.625,0.613 11.925,1.838 z"
   id="path206"
   inkscape:connector-curvature="0" />
			<path
   style="clip-rule:evenodd;fill:#ffffff;fill-rule:evenodd"
   d="M 39.675,28.75 H 38.588 C 38.362,27.199 36.675,25.887 33.525,24.812 30.399,23.737 26.649,23.2 22.275,23.2 17.924,23.2 14.187,23.737 11.062,24.812 7.913,25.887 6.225,27.199 6,28.75 H 4.725 c 0.4,-1.7 2.262,-3.125 5.587,-4.275 3.375,-1.149 7.337,-1.725 11.888,-1.725 4.575,0 8.537,0.575 11.888,1.725 3.35,1.15 5.212,2.575 5.587,4.275 z"
   id="path208"
   inkscape:connector-curvature="0" />
			
				<radialGradient
   id="SVGID_18_"
   cx="2.2553999"
   cy="-21.612801"
   r="21.0124"
   gradientTransform="matrix(-0.0816,0.7455,0.696,0.0879,35.777,25.4802)"
   gradientUnits="userSpaceOnUse">
				<stop
   offset="0"
   style="stop-color:#F2DB8A"
   id="stop210" />
				<stop
   offset="1"
   style="stop-color:#877531"
   id="stop212" />
			</radialGradient>
			<path
   style="clip-rule:evenodd;fill:url(#SVGID_18_);fill-rule:evenodd"
   d="m 38.362,31.337 c -1.125,0.65 -2.75,1.363 -4.875,2.138 -3.075,1.125 -5.713,1.7 -7.912,1.726 -2.4,0.024 -5.025,-0.088 -7.875,-0.338 -2.6,-0.25 -4.587,-0.538 -5.962,-0.862 -1.125,-0.275 -2.225,-0.7 -3.3,-1.275 -0.95,-0.5 -1.438,-0.85 -1.462,-1.05 -0.025,-0.1 0.125,-0.287 0.45,-0.563 0.375,-0.325 0.575,-0.525 0.6,-0.6 0.4,-1.125 1.987,-2.088 4.763,-2.888 0.725,-0.2 1.462,-0.801 2.212,-1.8 0.7,-0.95 1.287,-1.438 1.762,-1.463 2.35,-0.175 4.275,-0.15 5.775,0.075 0.525,0.075 1.338,0.337 2.438,0.787 0.9,0.375 1.662,0.55 2.288,0.525 0.575,-0.025 1.875,-0.125 3.899,-0.3 1.825,-0.101 2.95,0.05 3.375,0.449 0.625,0.601 1.287,1.363 1.988,2.288 0.824,1.05 1.225,1.763 1.199,2.138 -0.025,0.274 0.213,0.462 0.713,0.563 0.325,0.075 0.299,0.225 -0.076,0.45 z"
   id="path215"
   inkscape:connector-curvature="0" />
			
				<radialGradient
   id="SVGID_19_"
   cx="1.939"
   cy="-16.3428"
   r="2.9554"
   gradientTransform="matrix(-0.0825,0.7455,0.6947,0.0888,28.1629,24.5563)"
   gradientUnits="userSpaceOnUse">
				<stop
   offset="0"
   style="stop-color:#D4C17D"
   id="stop217" />
				<stop
   offset="1"
   style="stop-color:#B3A051"
   id="stop219" />
			</radialGradient>
			<path
   style="clip-rule:evenodd;fill:url(#SVGID_19_);fill-rule:evenodd"
   d="m 16.762,24.362 c 0.725,-0.125 0.837,0.05 0.338,0.525 -0.625,0.624 -0.85,1.012 -0.675,1.162 0.2,0.2 0.625,0.175 1.275,-0.075 0.6,-0.25 0.925,-0.313 0.975,-0.188 0.1,0.275 -0.087,0.513 -0.563,0.713 -0.525,0.225 -1.225,0.263 -2.1,0.112 -0.875,-0.175 -1.125,-0.575 -0.75,-1.2 0.375,-0.574 0.876,-0.924 1.5,-1.049 z"
   id="path222"
   inkscape:connector-curvature="0" />
			
				<radialGradient
   id="SVGID_20_"
   cx="7.0215001"
   cy="-16.0977"
   r="3.2950001"
   gradientTransform="matrix(-0.0825,0.7454,0.6971,0.0882,27.8507,24.4856)"
   gradientUnits="userSpaceOnUse">
				<stop
   offset="0"
   style="stop-color:#D4C17D"
   id="stop224" />
				<stop
   offset="1"
   style="stop-color:#B3A051"
   id="stop226" />
			</radialGradient>
			<path
   style="clip-rule:evenodd;fill:url(#SVGID_20_);fill-rule:evenodd"
   d="m 17.587,28.037 c 0.375,-0.05 0.563,0.112 0.563,0.487 0,0.2 -0.05,0.538 -0.15,1.013 -0.05,0.351 -0.188,0.65 -0.413,0.9 -0.25,0.275 -0.525,0.399 -0.825,0.375 -0.275,-0.051 -0.737,-0.051 -1.387,0 l -0.9,0.075 c 0.075,-0.15 0.212,-0.301 0.412,-0.45 0.375,-0.325 0.85,-0.5 1.425,-0.525 0.5,-0.05 0.737,-0.362 0.712,-0.938 10e-4,-0.599 0.188,-0.911 0.563,-0.937 z"
   id="path229"
   inkscape:connector-curvature="0" />
			
				<radialGradient
   id="SVGID_21_"
   cx="4.6557999"
   cy="-36.491699"
   r="2.5399001"
   gradientTransform="matrix(-0.0812,0.7456,0.6939,0.0886,57.1259,28.2484)"
   gradientUnits="userSpaceOnUse">
				<stop
   offset="0"
   style="stop-color:#D4C17D"
   id="stop231" />
				<stop
   offset="1"
   style="stop-color:#B3A051"
   id="stop233" />
			</radialGradient>
			<path
   style="clip-rule:evenodd;fill:url(#SVGID_21_);fill-rule:evenodd"
   d="m 32.513,28.375 c 0.899,0.225 1.1,0.638 0.6,1.237 -0.5,0.575 -1.263,0.726 -2.287,0.45 -0.976,-0.25 -1.138,-0.638 -0.487,-1.163 0.623,-0.549 1.349,-0.724 2.174,-0.524 z"
   id="path236"
   inkscape:connector-curvature="0" />
			
				<radialGradient
   id="SVGID_22_"
   cx="4.3125"
   cy="-21.3335"
   r="19.1765"
   gradientTransform="matrix(-0.0816,0.7455,0.6957,0.0875,35.3681,25.4139)"
   gradientUnits="userSpaceOnUse">
				<stop
   offset="0"
   style="stop-color:#D4C17D"
   id="stop238" />
				<stop
   offset="1"
   style="stop-color:#B3A051"
   id="stop240" />
			</radialGradient>
			<path
   style="clip-rule:evenodd;fill:url(#SVGID_22_);fill-rule:evenodd"
   d="m 36.188,30.175 c -0.475,-0.25 -1.101,-0.612 -1.875,-1.088 -0.875,-0.55 -1.45,-0.899 -1.725,-1.05 -0.825,-0.5 -2.025,-0.688 -3.601,-0.563 -0.8,0.125 -1.45,0.213 -1.95,0.263 -0.899,0.1 -1.574,0.05 -2.024,-0.15 -0.2,-0.074 -0.45,-0.3 -0.75,-0.675 -0.2,-0.225 -0.688,-0.324 -1.463,-0.3 -0.675,0.024 -1.588,0.2 -2.737,0.525 -1.15,0.324 -1.975,0.5 -2.475,0.524 -0.975,0.075 -1.637,0.163 -1.987,0.263 -0.6,0.15 -1.05,0.45 -1.35,0.9 -0.475,0.675 -0.838,1.138 -1.087,1.387 -0.425,0.426 -0.9,0.676 -1.425,0.75 -0.625,0.101 -1.212,0.263 -1.762,0.488 C 9.35,31.675 9.025,31.875 9,32.05 8.929,32.244 8.929,32.438 9,32.631 8.399,32.397 8.012,32.203 7.837,32.05 7.212,31.525 7.312,31.1 8.137,30.775 c 0.65,-0.274 1.488,-0.412 2.513,-0.412 0.7,0 1.262,-0.15 1.688,-0.45 0.2,-0.149 0.5,-0.475 0.9,-0.975 0.2,-0.25 0.488,-0.638 0.863,-1.163 0.425,-0.399 1.087,-0.587 1.987,-0.563 0.825,0.051 1.625,-0.074 2.4,-0.375 0.4,-0.175 0.925,-0.399 1.575,-0.675 0.575,-0.149 1.012,-0.225 1.313,-0.225 0.425,0 1.075,0.1 1.95,0.3 0.35,0.075 0.8,0.325 1.35,0.75 0.3,0.25 1.101,0.325 2.4,0.225 1.125,-0.074 2.337,-0.188 3.638,-0.337 0.85,0.024 1.612,0.324 2.287,0.899 0.475,0.4 1.388,0.925 2.737,1.575 1,0.475 1.476,0.838 1.425,1.088 -0.05,0.55 -0.149,1.063 -0.3,1.537 -0.2,0.625 -0.388,0.813 -0.563,0.563 -0.075,-0.125 0.013,-0.512 0.263,-1.162 0.224,-0.55 0.099,-0.95 -0.375,-1.2 z m -8.588,0 c -0.925,-0.375 -1.563,-0.612 -1.912,-0.713 -0.6,-0.2 -1.075,-0.2 -1.425,0 -0.15,0.075 -0.688,0.275 -1.612,0.601 -0.701,0.25 -1.163,0.5 -1.388,0.75 -0.476,0.575 -0.851,1.025 -1.125,1.35 -0.55,0.65 -0.987,1.025 -1.313,1.125 -0.5,0.15 -1.112,0.238 -1.837,0.263 -0.825,0.024 -1.35,-0.088 -1.575,-0.338 -0.3,-0.324 -0.513,-0.524 -0.638,-0.6 -0.25,-0.125 -0.65,-0.212 -1.2,-0.263 -0.6,-0.05 -1.2,0.063 -1.8,0.338 -0.552,0.264 -0.758,0.495 -0.619,0.693 -0.468,-0.147 -0.887,-0.285 -1.256,-0.412 0.058,-0.039 0.121,-0.082 0.188,-0.132 0.6,-0.425 1.35,-0.8 2.25,-1.125 0.975,-0.375 1.688,-0.5 2.138,-0.375 0.225,0.051 0.575,0.4 1.05,1.051 0.375,0.5 0.862,0.688 1.462,0.563 0.825,-0.2 1.388,-0.388 1.688,-0.563 0.325,-0.2 0.625,-0.575 0.9,-1.125 0.75,-1.375 1.688,-2.063 2.813,-2.063 0.324,0 0.725,-0.175 1.2,-0.525 0.375,-0.275 0.875,-0.313 1.5,-0.112 1.1,0.35 2.262,0.65 3.487,0.899 0.475,0.126 1.138,0.138 1.987,0.038 0.675,-0.075 1.213,0.024 1.612,0.3 0.5,0.375 0.775,0.65 0.825,0.825 0,0.05 -0.063,0.362 -0.188,0.938 -0.075,0.324 0.063,0.838 0.412,1.537 0.25,0.525 0.238,0.801 -0.037,0.825 -0.275,0.024 -0.513,0.1 -0.713,0.225 -0.05,0.025 -0.1,-0.024 -0.149,-0.149 -0.051,-0.226 -0.088,-0.613 -0.112,-1.163 -0.051,-0.649 -0.038,-1.149 0.037,-1.5 0.199,-0.85 -0.275,-1.274 -1.425,-1.274 -0.15,0 -0.65,0.088 -1.5,0.263 -0.55,0.098 -1.125,0.048 -1.725,-0.152 z m -7.2,4.275 c -0.825,0.074 -1.325,0.137 -1.5,0.188 -0.3,0.1 -0.5,0.162 -0.6,0.188 -0.15,0.05 -0.5,0.074 -1.05,0.074 -0.296,0 -0.759,-0.068 -1.388,-0.206 0.333,-0.069 0.945,-0.238 1.837,-0.506 0.9,-0.3 1.587,-0.45 2.063,-0.45 0.9,0 1.388,0 1.462,0 0.426,-0.075 0.801,-0.313 1.125,-0.713 0.4,-0.475 1.051,-0.837 1.95,-1.087 0.976,-0.25 1.688,-0.2 2.138,0.149 0.425,0.325 0.975,0.601 1.65,0.825 0.5,0.15 0.925,0.238 1.274,0.263 0.274,0.024 0.612,0.088 1.013,0.188 0.425,0.1 0.688,0.2 0.787,0.3 0.15,0.1 0.162,0.313 0.038,0.638 -0.15,0.3 -0.375,0.412 -0.675,0.338 -0.25,-0.075 -0.701,-0.275 -1.351,-0.601 -0.8,-0.425 -1.362,-0.699 -1.688,-0.825 -0.75,-0.324 -1.274,-0.524 -1.575,-0.6 -0.6,-0.15 -1.125,-0.125 -1.574,0.075 -0.351,0.149 -0.763,0.399 -1.238,0.75 -0.475,0.324 -0.837,0.55 -1.087,0.675 C 21.688,34.237 21.15,34.35 20.4,34.45 Z M 9,32.631 c 0.258,0.105 0.558,0.218 0.9,0.338 C 9.525,33.186 9.263,33.155 9.112,32.875 9.062,32.794 9.023,32.713 9,32.631 Z m 2.156,0.75 c 0.364,0.111 0.758,0.23 1.181,0.356 1.486,0.447 2.661,0.767 3.525,0.956 -0.042,0.008 -0.08,0.014 -0.112,0.019 -0.525,0.075 -1.4,-0.074 -2.625,-0.449 C 12,33.888 11.35,33.6 11.175,33.399 Z"
   id="path243"
   inkscape:connector-curvature="0" />
			
				<radialGradient
   id="SVGID_23_"
   cx="-0.49900001"
   cy="-22.417999"
   r="19.7176"
   gradientTransform="matrix(-0.0818,0.7455,0.6961,0.0875,36.9385,25.6081)"
   gradientUnits="userSpaceOnUse">
				<stop
   offset="0"
   style="stop-color:#C7B577"
   id="stop245" />
				<stop
   offset="1"
   style="stop-color:#BDAA57"
   id="stop247" />
			</radialGradient>
			<path
   style="clip-rule:evenodd;fill:url(#SVGID_23_);fill-rule:evenodd"
   d="M 36.338,27.587 C 35.938,27.037 35.375,26.7 34.65,26.575 33.024,26.25 31.5,26.05 30.075,25.974 29.4,25.925 28.625,25.6 27.75,25 26.8,24.375 26.1,24.024 25.65,23.95 24.724,23.649 24.037,23.462 23.587,23.387 22.786,23.212 21.949,23.4 21.074,23.95 c -1.225,0.85 -2.087,1.438 -2.587,1.762 -0.8,0.525 -1.487,0.813 -2.063,0.863 -0.175,0.024 -1,-0.051 -2.475,-0.226 -1.025,-0.1 -1.762,0.013 -2.212,0.338 -0.9,0.774 -1.55,1.325 -1.95,1.649 -0.675,0.601 -0.95,0.688 -0.825,0.263 0.625,-2 1.7,-3 3.225,-3 h 1.425 c 2.225,0.25 3.712,0.051 4.462,-0.6 0.9,-0.75 1.825,-1.375 2.775,-1.875 1.425,-0.775 2.575,-1.063 3.45,-0.862 0.601,0.149 1.476,0.649 2.625,1.5 1.101,0.8 2.112,1.262 3.038,1.387 2.074,0.275 3.175,0.426 3.3,0.45 1.024,0.175 1.824,0.413 2.399,0.713 0.7,0.399 1.263,0.85 1.688,1.35 0.476,0.525 0.688,1 0.638,1.425 -0.05,0.45 -0.487,0.925 -1.313,1.426 -0.851,0.524 -1.788,0.837 -2.813,0.938 -0.75,0.074 -1.563,0.437 -2.438,1.087 -0.825,0.625 -1.413,0.938 -1.763,0.938 h -1.237 c -0.149,-0.024 -0.225,-0.088 -0.225,-0.188 0,-0.175 0.375,-0.412 1.125,-0.712 0.6,-0.226 1.938,-0.713 4.013,-1.463 1.85,-0.7 2.912,-1.3 3.188,-1.8 0.326,-0.576 0.263,-1.151 -0.186,-1.726 z"
   id="path250"
   inkscape:connector-curvature="0" />
			
				<radialGradient
   id="SVGID_24_"
   cx="-0.85210001"
   cy="-22.0264"
   r="19.7176"
   gradientTransform="matrix(-0.0818,0.7455,0.6961,0.0875,36.3745,25.5372)"
   gradientUnits="userSpaceOnUse">
				<stop
   offset="0"
   style="stop-color:#E3D49D"
   id="stop252" />
				<stop
   offset="1"
   style="stop-color:#E0CA70"
   id="stop254" />
			</radialGradient>
			<path
   style="clip-rule:evenodd;fill:url(#SVGID_24_);fill-rule:evenodd"
   d="m 36.075,27.287 c -0.426,-0.55 -0.988,-0.887 -1.688,-1.013 -1.625,-0.324 -3.15,-0.524 -4.575,-0.6 -0.675,-0.05 -1.45,-0.375 -2.325,-0.975 -0.95,-0.625 -1.662,-0.976 -2.138,-1.051 -0.925,-0.3 -1.612,-0.487 -2.063,-0.563 -0.775,-0.175 -1.6,0.013 -2.475,0.563 -1.25,0.851 -2.112,1.438 -2.587,1.763 -0.8,0.525 -1.5,0.813 -2.1,0.862 -0.175,0.025 -0.987,-0.05 -2.438,-0.225 -1.05,-0.1 -1.788,0.013 -2.212,0.338 -0.9,0.774 -1.55,1.325 -1.95,1.649 -0.674,0.603 -0.949,0.69 -0.824,0.265 0.625,-2 1.7,-3 3.225,-3 h 1.425 c 2.225,0.25 3.712,0.063 4.462,-0.563 0.8,-0.726 1.725,-1.362 2.775,-1.912 1.425,-0.775 2.575,-1.063 3.45,-0.863 0.575,0.15 1.45,0.65 2.625,1.5 1.1,0.801 2.113,1.263 3.038,1.388 2.125,0.275 3.225,0.426 3.3,0.45 1,0.175 1.787,0.412 2.362,0.713 0.7,0.399 1.275,0.85 1.726,1.35 0.475,0.525 0.688,1 0.637,1.425 -0.05,0.45 -0.487,0.925 -1.313,1.425 -0.875,0.525 -1.813,0.838 -2.813,0.938 -0.775,0.075 -1.587,0.438 -2.438,1.088 -0.824,0.625 -1.425,0.938 -1.8,0.938 h -1.2 l 0.825,-0.675 c 0.7,-0.525 1.425,-0.938 2.175,-1.237 0.601,-0.226 1.588,-0.538 2.963,-0.938 1.149,-0.375 1.862,-0.813 2.138,-1.313 0.325,-0.576 0.263,-1.152 -0.187,-1.727 z"
   id="path257"
   inkscape:connector-curvature="0" />
			
				<radialGradient
   id="SVGID_25_"
   cx="-0.7324"
   cy="-22.1919"
   r="24.4454"
   gradientTransform="matrix(-0.0817,0.7455,0.6961,0.0878,36.6119,25.5824)"
   gradientUnits="userSpaceOnUse">
				<stop
   offset="0"
   style="stop-color:#E6D189"
   id="stop259" />
				<stop
   offset="1"
   style="stop-color:#BDAA57"
   id="stop261" />
			</radialGradient>
			<path
   style="clip-rule:evenodd;fill:url(#SVGID_25_);fill-rule:evenodd"
   d="m 36.15,27.925 c -0.825,0 -1.663,-0.338 -2.513,-1.013 -0.45,-0.399 -1.063,-1.05 -1.838,-1.95 -0.45,-0.55 -1.226,-0.787 -2.325,-0.712 -0.975,0.05 -1.824,0.287 -2.55,0.712 -0.95,0.55 -1.662,1.051 -2.138,1.5 -0.649,0.65 -0.462,0.938 0.563,0.863 0.226,0 1.088,-0.2 2.588,-0.601 0.725,-0.2 1.425,0 2.1,0.601 0.55,0.524 1.163,1.149 1.838,1.875 0.55,0.449 1.237,0.624 2.063,0.524 1.025,-0.125 1.887,0.125 2.588,0.75 0.725,0.65 0.563,1.2 -0.488,1.65 -0.925,0.399 -1.5,0.55 -1.725,0.45 l -0.037,-0.226 0.938,-0.563 c 0.475,-0.425 0.412,-0.75 -0.188,-0.975 -0.4,-0.175 -1.051,-0.287 -1.95,-0.338 -0.7,-0.024 -1.237,-0.2 -1.612,-0.524 -0.625,-0.676 -1.101,-1.176 -1.426,-1.5 -0.575,-0.601 -1.138,-0.925 -1.688,-0.976 -0.449,-0.05 -1.063,0.013 -1.837,0.188 -0.925,0.175 -1.713,0.263 -2.362,0.263 -0.375,0 -1.113,0.112 -2.213,0.338 -0.525,0.125 -0.9,-0.025 -1.125,-0.45 -0.075,-0.15 -0.375,-0.862 -0.9,-2.138 -0.4,-0.975 -0.738,-1.575 -1.013,-1.8 -0.525,-0.475 -1.125,-0.763 -1.8,-0.862 -0.9,-0.126 -1.45,0.324 -1.65,1.35 -0.175,1 0.138,1.888 0.938,2.662 0.45,0.45 1.15,1.038 2.1,1.763 1.3,1.375 1.737,2.288 1.313,2.737 -0.5,0.501 -0.813,0.788 -0.938,0.863 -0.575,0.274 -1.337,0.262 -2.288,-0.038 -0.925,-0.3 -1.95,-0.774 -3.075,-1.425 -1.1,-0.675 -1.813,-1.112 -2.138,-1.313 -0.5,-0.3 -1.212,-0.412 -2.137,-0.338 -0.9,0.101 -1.413,0.325 -1.538,0.676 -0.1,0.35 0.1,0.675 0.6,0.975 0.45,0.275 1.062,0.487 1.837,0.638 0.5,0.1 1.063,0.2 1.688,0.3 0.55,0.075 1.138,0.237 1.762,0.487 0.2,0.075 0.913,0.65 2.138,1.726 0.825,0.725 1.637,0.899 2.438,0.524 0.45,-0.2 1.212,-0.925 2.288,-2.175 0.875,-1.025 1.887,-1.612 3.037,-1.763 1,-0.1 1.938,-0.212 2.813,-0.337 0.525,0.024 1.325,0.3 2.4,0.824 0.875,0.426 1.662,0.7 2.362,0.825 0.4,0.075 0.649,0.2 0.75,0.375 0.226,0.4 1.013,0.875 2.362,1.425 l -1.688,0.488 c 0.025,-0.126 -0.037,-0.275 -0.188,-0.45 -0.274,-0.351 -0.8,-0.675 -1.574,-0.976 -0.126,-0.05 -0.889,-0.388 -2.288,-1.012 -0.75,-0.325 -1.438,-0.513 -2.063,-0.563 -0.725,-0.051 -1.513,0.024 -2.362,0.225 -0.8,0.175 -1.463,0.425 -1.987,0.75 -0.375,0.225 -0.851,0.675 -1.425,1.35 -0.6,0.7 -0.938,1.075 -1.013,1.125 -0.9,0.75 -1.937,0.95 -3.112,0.601 -0.525,-0.15 -1.125,-0.5 -1.8,-1.05 -0.65,-0.55 -1.313,-0.913 -1.988,-1.088 -1.325,-0.325 -2.3,-0.575 -2.925,-0.75 -1.125,-0.3 -1.925,-0.6 -2.4,-0.9 C 6.2,30.8 5.65,30.1 5.7,29.425 c 0.1,-0.85 0.875,-1.4 2.325,-1.65 1.45,-0.249 2.637,-0.074 3.563,0.525 0.6,0.399 1.4,1.025 2.4,1.875 1.025,0.7 2.225,1.149 3.6,1.35 1.45,0.2 1.75,-0.237 0.9,-1.313 -0.275,-0.35 -1.287,-1.35 -3.038,-3 -0.975,-0.925 -1.5,-1.737 -1.575,-2.438 C 13.8,24 14.225,23.225 15.15,22.45 c 0.9,-0.726 1.887,-0.876 2.962,-0.45 0.975,0.399 1.763,1.149 2.363,2.25 0.05,0.075 0.275,0.938 0.675,2.587 0.125,0.525 0.675,0.45 1.65,-0.225 2.101,-1.425 3.513,-2.325 4.237,-2.7 1.75,-0.899 3.088,-1.149 4.013,-0.75 0.775,0.351 1.263,0.763 1.463,1.237 0.3,0.65 0.662,1.15 1.087,1.5 1.25,1.075 2.663,1.4 4.238,0.976 0.475,-0.15 1.1,0.075 1.875,0.675 0.774,0.6 1.212,0.888 1.313,0.862 0.449,-0.149 0.737,-0.175 0.862,-0.075 0.05,0.051 0.063,0.113 0.037,0.188 0,0.65 -0.188,0.976 -0.563,0.976 -0.149,0 -0.438,-0.226 -0.862,-0.675 -0.425,-0.501 -0.8,-0.801 -1.125,-0.9 -0.351,-0.075 -0.763,-0.1 -1.237,-0.075 -0.925,0.049 -1.588,0.074 -1.988,0.074 z"
   id="path264"
   inkscape:connector-curvature="0" />
			
				<radialGradient
   id="SVGID_26_"
   cx="-1.0425"
   cy="-21.855499"
   r="24.4454"
   gradientTransform="matrix(-0.0817,0.7455,0.6961,0.0878,36.1274,25.5213)"
   gradientUnits="userSpaceOnUse">
				<stop
   offset="0"
   style="stop-color:#FFF6D4"
   id="stop266" />
				<stop
   offset="1"
   style="stop-color:#E0CA70"
   id="stop268" />
			</radialGradient>
			<path
   style="clip-rule:evenodd;fill:url(#SVGID_26_);fill-rule:evenodd"
   d="m 35.925,27.7 c -0.825,0 -1.662,-0.351 -2.513,-1.051 -0.425,-0.35 -1.037,-0.987 -1.837,-1.912 -0.45,-0.55 -1.226,-0.787 -2.325,-0.713 -1,0.051 -1.851,0.288 -2.55,0.713 -0.976,0.55 -1.688,1.05 -2.138,1.5 -0.625,0.625 -0.438,0.913 0.563,0.862 0.225,0 1.1,-0.2 2.625,-0.6 0.725,-0.2 1.412,0 2.063,0.6 0.55,0.525 1.162,1.15 1.838,1.875 0.574,0.45 1.262,0.625 2.063,0.525 1.024,-0.15 1.887,0.1 2.587,0.75 0.726,0.625 0.563,1.162 -0.487,1.612 -0.926,0.399 -1.5,0.563 -1.725,0.487 L 34.051,32.123 34.989,31.56 C 35.462,31.137 35.4,30.8 34.8,30.55 34.375,30.375 33.737,30.263 32.888,30.212 32.162,30.188 31.625,30.024 31.276,29.725 30.651,29.05 30.175,28.537 29.85,28.188 c -0.6,-0.601 -1.162,-0.925 -1.688,-0.976 -0.449,-0.024 -1.074,0.038 -1.875,0.188 -0.899,0.2 -1.687,0.3 -2.362,0.3 -0.375,0 -1.112,0.112 -2.212,0.337 -0.525,0.1 -0.9,-0.05 -1.125,-0.45 -0.05,-0.1 -0.35,-0.812 -0.9,-2.137 -0.4,-0.95 -0.737,-1.551 -1.013,-1.801 -0.525,-0.5 -1.125,-0.787 -1.8,-0.862 -0.9,-0.149 -1.45,0.3 -1.65,1.351 -0.175,0.975 0.137,1.85 0.938,2.625 0.45,0.449 1.15,1.037 2.1,1.762 1.275,1.426 1.712,2.338 1.313,2.738 -0.45,0.5 -0.762,0.8 -0.938,0.899 -0.575,0.275 -1.337,0.263 -2.287,-0.037 -0.925,-0.325 -1.95,-0.801 -3.075,-1.425 -1.1,-0.7 -1.813,-1.15 -2.138,-1.351 -0.5,-0.275 -1.212,-0.375 -2.137,-0.3 -0.9,0.1 -1.413,0.325 -1.538,0.675 -0.1,0.351 0.1,0.675 0.6,0.976 0.45,0.274 1.063,0.487 1.837,0.637 0.5,0.101 1.063,0.2 1.688,0.301 0.55,0.074 1.137,0.237 1.763,0.487 0.225,0.075 0.938,0.638 2.137,1.688 0.825,0.75 1.638,0.938 2.438,0.563 0.45,-0.226 1.213,-0.95 2.288,-2.175 0.875,-1.025 1.887,-1.613 3.038,-1.763 1.85,-0.226 2.787,-0.338 2.813,-0.338 0.5,0 1.3,0.275 2.4,0.825 0.875,0.425 1.662,0.7 2.362,0.825 0.399,0.075 0.649,0.2 0.75,0.375 0.225,0.375 1.013,0.85 2.362,1.425 L 32.25,34 c 0.024,-0.125 -0.037,-0.275 -0.188,-0.45 -0.275,-0.351 -0.8,-0.675 -1.575,-0.975 -1.1,-0.476 -1.862,-0.801 -2.287,-0.976 -0.75,-0.324 -1.438,-0.512 -2.063,-0.563 -0.75,-0.05 -1.538,0.013 -2.362,0.188 -0.801,0.2 -1.463,0.45 -1.988,0.75 -0.375,0.226 -0.85,0.675 -1.425,1.351 -0.6,0.725 -0.938,1.112 -1.012,1.162 -0.9,0.75 -1.938,0.95 -3.113,0.6 -0.5,-0.149 -1.1,-0.512 -1.8,-1.087 -0.65,-0.55 -1.313,-0.9 -1.988,-1.05 C 11.124,32.625 10.149,32.375 9.524,32.2 8.399,31.875 7.599,31.562 7.124,31.262 5.95,30.537 5.4,29.85 5.475,29.2 5.575,28.349 6.35,27.8 7.8,27.55 c 1.45,-0.275 2.638,-0.112 3.563,0.487 0.6,0.4 1.4,1.037 2.4,1.913 1.025,0.699 2.225,1.138 3.6,1.313 1.45,0.2 1.75,-0.226 0.9,-1.275 -0.275,-0.351 -1.288,-1.35 -3.037,-3 -0.975,-0.925 -1.5,-1.75 -1.575,-2.475 -0.075,-0.775 0.35,-1.538 1.275,-2.288 0.9,-0.725 1.888,-0.875 2.962,-0.45 0.975,0.4 1.763,1.138 2.363,2.213 0.05,0.075 0.275,0.938 0.675,2.588 0.125,0.524 0.675,0.462 1.65,-0.188 2.149,-1.45 3.563,-2.351 4.237,-2.7 1.75,-0.925 3.088,-1.176 4.013,-0.75 0.774,0.35 1.262,0.763 1.462,1.237 0.301,0.65 0.663,1.149 1.088,1.5 1.275,1.101 2.688,1.412 4.237,0.938 0.575,-0.15 1.125,-0.112 1.65,0.112 0.499,0.226 0.837,0.55 1.013,0.976 0.225,0.55 0.699,0.75 1.425,0.6 0,0.625 -0.188,0.938 -0.563,0.938 -0.15,0 -0.438,-0.225 -0.862,-0.675 -0.426,-0.5 -0.801,-0.788 -1.125,-0.862 C 38.8,27.627 38.388,27.601 37.913,27.627 36.987,27.675 36.325,27.7 35.925,27.7 Z"
   id="path271"
   inkscape:connector-curvature="0" />
			
				<radialGradient
   id="SVGID_27_"
   cx="4.4702001"
   cy="-24.476601"
   r="17.982401"
   gradientTransform="matrix(-0.0819,0.7455,0.696,0.0876,39.9016,25.9858)"
   gradientUnits="userSpaceOnUse">
				<stop
   offset="0"
   style="stop-color:#D6C894"
   id="stop273" />
				<stop
   offset="1"
   style="stop-color:#A89642"
   id="stop275" />
			</radialGradient>
			<path
   style="clip-rule:evenodd;fill:url(#SVGID_27_);fill-rule:evenodd"
   d="m 36.525,28.825 c 0.675,0.3 1.137,0.624 1.387,0.975 0.325,0.425 0.388,0.962 0.188,1.612 -0.1,0.325 -0.225,0.601 -0.375,0.825 l -1.199,0.638 0.787,-1.5 C 37.663,30.75 37.35,30.1 36.375,29.425 36.15,29.274 35.262,28.8 33.713,28 33.012,27.399 32.475,27.037 32.1,26.912 c -0.6,-0.149 -1.75,0.226 -3.449,1.125 -1.601,0.875 -3.238,1.313 -4.913,1.313 -1.775,0 -2.675,0 -2.7,0 -0.375,0.175 -1.025,0.1 -1.95,-0.225 -1.075,-0.375 -1.95,-0.55 -2.625,-0.525 -0.875,0.025 -1.612,0.338 -2.212,0.938 -0.1,0.125 -0.45,0.625 -1.05,1.5 -0.175,0.275 -0.487,0.65 -0.938,1.125 -0.325,0.426 -0.375,0.9 -0.15,1.425 0.225,0.525 0.875,0.976 1.95,1.351 0.525,0.175 1.025,0.3 1.5,0.375 -0.35,0.075 -1.275,-0.075 -2.775,-0.45 -1.975,-0.525 -2.55,-1.4 -1.725,-2.625 0.2,-0.3 0.462,-0.575 0.788,-0.825 0.275,-0.2 0.575,-0.6 0.9,-1.2 0.55,-0.975 1.4,-1.7 2.55,-2.175 1.4,-0.6 2.825,-0.55 4.275,0.15 0.45,0.2 0.9,0.324 1.35,0.375 0.25,0.024 0.788,0.037 1.612,0.037 1.926,0 3.275,-0.188 4.051,-0.563 0.324,-0.125 1.087,-0.463 2.287,-1.013 1.149,-0.475 2.013,-0.712 2.588,-0.712 0.649,0 1.199,0.125 1.649,0.375 0.274,0.125 0.8,0.5 1.575,1.125 0.399,0.324 1.012,0.662 1.837,1.012 z"
   id="path278"
   inkscape:connector-curvature="0" />
			
				<radialGradient
   id="SVGID_28_"
   cx="4.0609999"
   cy="-24.128901"
   r="17.982401"
   gradientTransform="matrix(-0.0819,0.7455,0.696,0.0876,39.4009,25.9227)"
   gradientUnits="userSpaceOnUse">
				<stop
   offset="0"
   style="stop-color:#FFF6D4"
   id="stop280" />
				<stop
   offset="1"
   style="stop-color:#E0CA70"
   id="stop282" />
			</radialGradient>
			<path
   style="clip-rule:evenodd;fill:url(#SVGID_28_);fill-rule:evenodd"
   d="m 36.338,28.45 c 0.649,0.3 1.112,0.624 1.387,0.975 0.301,0.425 0.35,0.962 0.15,1.612 -0.1,0.325 -0.225,0.601 -0.375,0.825 l -1.2,0.675 0.788,-1.5 c 0.35,-0.65 0.037,-1.313 -0.938,-1.987 -0.25,-0.175 -1.138,-0.65 -2.663,-1.425 -0.7,-0.601 -1.237,-0.95 -1.612,-1.05 -0.6,-0.15 -1.75,0.225 -3.45,1.125 -1.601,0.85 -3.237,1.274 -4.912,1.274 -1.75,0 -2.65,0.013 -2.7,0.038 -0.375,0.175 -1.025,0.1 -1.95,-0.226 -1.1,-0.375 -1.975,-0.563 -2.625,-0.563 -0.875,0.025 -1.6,0.351 -2.175,0.976 -0.325,0.324 -0.688,0.812 -1.087,1.462 -0.175,0.275 -0.488,0.65 -0.938,1.125 -0.3,0.45 -0.338,0.938 -0.113,1.463 0.225,0.524 0.863,0.962 1.913,1.313 0.525,0.2 1.025,0.337 1.5,0.412 -0.35,0.075 -1.275,-0.088 -2.775,-0.487 -1.95,-0.525 -2.525,-1.4 -1.725,-2.625 0.2,-0.275 0.462,-0.538 0.788,-0.787 0.275,-0.226 0.575,-0.638 0.9,-1.238 0.55,-0.975 1.4,-1.7 2.55,-2.175 1.4,-0.575 2.825,-0.524 4.275,0.15 0.45,0.225 0.9,0.35 1.35,0.375 0.175,0.024 0.712,0.037 1.613,0.037 1.899,0 3.25,-0.175 4.05,-0.524 0.325,-0.126 1.088,-0.463 2.288,-1.013 1.149,-0.475 2.024,-0.713 2.625,-0.713 0.649,0 1.187,0.112 1.612,0.338 0.3,0.149 0.837,0.537 1.612,1.162 0.398,0.326 1.012,0.651 1.837,0.976 z"
   id="path285"
   inkscape:connector-curvature="0" />
			
				<radialGradient
   id="SVGID_29_"
   cx="4.2339001"
   cy="-26.3652"
   r="16.486099"
   gradientTransform="matrix(-0.0819,0.7455,0.696,0.0876,42.6234,26.3275)"
   gradientUnits="userSpaceOnUse">
				<stop
   offset="0"
   style="stop-color:#FFF6D4"
   id="stop287" />
				<stop
   offset="1"
   style="stop-color:#E0CA70"
   id="stop289" />
			</radialGradient>
			<path
   style="clip-rule:evenodd;fill:url(#SVGID_29_);fill-rule:evenodd"
   d="m 37.088,31.037 c -0.525,-0.8 -1.251,-1.75 -2.176,-2.85 -0.475,-0.525 -0.837,-0.85 -1.087,-0.976 -0.375,-0.2 -0.813,-0.162 -1.313,0.113 -0.65,0.375 -1.213,0.812 -1.688,1.313 -0.575,0.624 -0.825,1.199 -0.75,1.725 0.3,1.851 0.45,3.013 0.45,3.487 0,1.2 -1.95,1.726 -5.851,1.575 -0.35,0 -0.412,-0.638 -0.188,-1.912 0.25,-1.426 -0.088,-2.376 -1.013,-2.851 -0.95,-0.475 -1.8,-0.463 -2.55,0.038 -1.1,0.725 -1.825,1.112 -2.175,1.162 -0.925,0.175 -1.788,0.513 -2.587,1.013 -0.725,0.425 -1.225,0.862 -1.5,1.313 -0.325,0.55 -0.738,0.763 -1.238,0.638 0.1,-0.275 0.275,-0.588 0.525,-0.938 0.5,-0.7 1.1,-1.226 1.8,-1.575 0.3,-0.125 1.188,-0.475 2.663,-1.05 1.025,-0.426 1.725,-0.788 2.1,-1.088 0.45,-0.399 1.063,-0.625 1.837,-0.675 0.775,-0.025 1.438,0.137 1.988,0.487 1.05,0.7 1.574,1.8 1.574,3.3 0,0.825 0.013,1.263 0.038,1.313 0.075,0.226 0.45,0.362 1.125,0.413 0.85,0.05 1.575,-0.113 2.175,-0.488 0.675,-0.425 0.9,-0.987 0.675,-1.688 -0.375,-0.899 -0.625,-1.55 -0.75,-1.949 -0.175,-0.676 -0.063,-1.3 0.338,-1.875 0.649,-1 1.5,-1.763 2.55,-2.288 1.375,-0.699 2.438,-0.5 3.188,0.601 0.774,1.1 1.3,1.8 1.575,2.1 0.075,0.075 0.274,0.237 0.6,0.487 0.325,0.226 0.487,0.813 0.487,1.763 l -0.524,0.469 c 0.116,-0.267 0.015,-0.635 -0.298,-1.107 z"
   id="path292"
   inkscape:connector-curvature="0" />
			<path
   style="clip-rule:evenodd;fill:#ffffff;fill-rule:evenodd"
   d="m 16.237,22.112 c 0.225,0 0.225,0.075 0,0.225 -0.525,0.301 -0.837,0.488 -0.938,0.563 -0.5,0.351 -0.75,1.125 -0.75,2.325 0,0.25 -0.075,0.238 -0.225,-0.037 -0.125,-0.275 -0.175,-0.65 -0.15,-1.125 0.025,-0.525 0.275,-0.988 0.75,-1.388 0.426,-0.375 0.864,-0.563 1.313,-0.563 z"
   id="path294"
   inkscape:connector-curvature="0" />
			<path
   style="clip-rule:evenodd;fill:#ffffff;fill-rule:evenodd"
   d="m 7.95,27.813 c 0.55,0 1.025,0.088 1.425,0.263 0.4,0.175 0.45,0.262 0.15,0.262 -0.1,0 -0.512,0.101 -1.237,0.301 -0.7,0.175 -1.212,0.249 -1.538,0.225 C 6.3,28.84 6.275,28.664 6.675,28.339 7.075,27.987 7.5,27.813 7.95,27.813 Z"
   id="path296"
   inkscape:connector-curvature="0" />
			<path
   style="clip-rule:evenodd;fill:#ffffff;fill-rule:evenodd"
   d="m 20.25,24.625 c 0.225,0.65 0.262,0.975 0.112,0.975 -0.175,0 -0.313,-0.212 -0.413,-0.638 -0.075,-0.375 -0.075,-0.612 0,-0.712 0.076,-0.075 0.176,0.05 0.301,0.375 z"
   id="path298"
   inkscape:connector-curvature="0" />
			<path
   style="clip-rule:evenodd;fill:#ffffff;fill-rule:evenodd"
   d="m 23.662,22.263 c 0.325,0.024 0.575,0.149 0.75,0.375 0.15,0.225 0.051,0.274 -0.3,0.149 -0.225,-0.075 -0.575,-0.088 -1.05,-0.037 -0.475,0.05 -0.763,0.05 -0.862,0 -0.2,-0.051 -0.088,-0.15 0.337,-0.3 0.426,-0.15 0.801,-0.213 1.125,-0.187 z"
   id="path300"
   inkscape:connector-curvature="0" />
			<path
   style="clip-rule:evenodd;fill:#ffffff;fill-rule:evenodd"
   d="m 30.3,23.013 c 0.325,0.1 0.475,0.225 0.45,0.375 -0.025,0.149 -0.2,0.162 -0.525,0.037 -0.225,-0.1 -0.637,-0.05 -1.237,0.15 -0.55,0.175 -0.888,0.225 -1.013,0.149 -0.2,-0.125 0.051,-0.3 0.75,-0.524 0.675,-0.225 1.2,-0.288 1.575,-0.187 z"
   id="path302"
   inkscape:connector-curvature="0" />
			<path
   style="clip-rule:evenodd;fill:#ffffff;fill-rule:evenodd"
   d="m 22.763,26.763 c 0.45,-0.126 0.612,-0.038 0.487,0.262 -0.125,0.301 -0.412,0.45 -0.862,0.45 -0.426,0 -0.525,-0.1 -0.3,-0.3 0.175,-0.2 0.399,-0.338 0.675,-0.412 z"
   id="path304"
   inkscape:connector-curvature="0" />
			<path
   style="clip-rule:evenodd;fill:#ffffff;fill-rule:evenodd"
   d="m 38.25,26.875 c 0.625,0.024 0.762,0.125 0.412,0.3 -0.35,0.15 -0.688,0.212 -1.012,0.188 -0.275,-0.024 -0.313,-0.112 -0.113,-0.263 0.175,-0.175 0.413,-0.25 0.713,-0.225 z"
   id="path306"
   inkscape:connector-curvature="0" />
			<path
   style="clip-rule:evenodd;fill:#ffffff;fill-rule:evenodd"
   d="m 17.212,27.587 c 0.5,0.101 0.613,0.175 0.337,0.226 -0.275,0.05 -0.6,0.037 -0.975,-0.038 -0.25,-0.05 -0.675,0.013 -1.275,0.188 -0.425,0.101 -0.587,0.113 -0.487,0.038 0.2,-0.175 0.563,-0.3 1.087,-0.375 0.526,-0.101 0.963,-0.113 1.313,-0.039 z"
   id="path308"
   inkscape:connector-curvature="0" />
			<path
   style="clip-rule:evenodd;fill:#ffffff;fill-rule:evenodd"
   d="m 10.875,25.75 c 0.35,-0.075 0.575,-0.088 0.675,-0.038 0.1,0.051 0,0.126 -0.3,0.226 -0.2,0.075 -0.463,0.3 -0.788,0.675 -0.275,0.3 -0.462,0.399 -0.563,0.3 -0.125,-0.125 -0.038,-0.337 0.263,-0.638 0.276,-0.3 0.513,-0.475 0.713,-0.525 z"
   id="path310"
   inkscape:connector-curvature="0" />
			<path
   style="clip-rule:evenodd;fill:#ffffff;fill-rule:evenodd"
   d="m 23.925,30.063 c 0.2,0.1 0.425,0.275 0.675,0.524 0.226,0.275 0.362,0.525 0.413,0.75 0.075,0.375 -0.163,0.2 -0.713,-0.524 -0.149,-0.226 -0.45,-0.4 -0.899,-0.525 -0.476,-0.149 -0.738,-0.25 -0.788,-0.3 -0.125,-0.125 -0.037,-0.188 0.263,-0.188 0.324,0.024 0.674,0.112 1.049,0.263 z"
   id="path312"
   inkscape:connector-curvature="0" />
			<path
   style="clip-rule:evenodd;fill:#ffffff;fill-rule:evenodd"
   d="m 26.737,30.362 c 0.45,0.024 0.601,0.112 0.45,0.263 -0.15,0.125 -0.363,0.137 -0.638,0.037 -0.225,-0.1 -0.3,-0.175 -0.225,-0.225 0.051,-0.075 0.189,-0.099 0.413,-0.075 z"
   id="path314"
   inkscape:connector-curvature="0" />
			<path
   style="clip-rule:evenodd;fill:#ffffff;fill-rule:evenodd"
   d="m 21.412,31.3 c 0.4,-0.25 0.338,-0.05 -0.188,0.6 -0.525,0.625 -0.85,0.888 -0.975,0.788 -0.125,-0.1 -0.013,-0.325 0.337,-0.675 0.276,-0.301 0.552,-0.538 0.826,-0.713 z"
   id="path316"
   inkscape:connector-curvature="0" />
			<path
   style="clip-rule:evenodd;fill:#ffffff;fill-rule:evenodd"
   d="m 31.688,27.138 c 0.325,-0.15 0.313,-0.063 -0.037,0.262 -0.525,0.476 -0.889,0.801 -1.088,0.976 -0.25,0.25 -0.438,0.563 -0.563,0.938 -0.15,0.475 -0.237,0.725 -0.263,0.75 -0.149,0.3 -0.188,0.063 -0.112,-0.713 0.024,-0.35 0.325,-0.787 0.9,-1.313 0.475,-0.475 0.863,-0.775 1.163,-0.9 z"
   id="path318"
   inkscape:connector-curvature="0" />
			<path
   style="clip-rule:evenodd;fill:#ffffff;fill-rule:evenodd"
   d="m 35.475,30.287 c 0.025,0.1 -0.112,0.088 -0.412,-0.037 -0.4,-0.175 -0.713,-0.275 -0.938,-0.3 -1.225,-0.075 -1.975,-0.213 -2.25,-0.413 -0.1,-0.075 -0.05,-0.1 0.15,-0.075 0.375,0.075 0.688,0.101 0.938,0.075 0.524,-0.024 1.074,0.063 1.649,0.263 0.55,0.175 0.837,0.338 0.863,0.487 z"
   id="path320"
   inkscape:connector-curvature="0" />
			<path
   style="clip-rule:evenodd;fill:#ffffff;fill-rule:evenodd"
   d="m 34.537,32.237 c -0.274,0 -0.35,-0.088 -0.225,-0.263 0.125,-0.2 0.325,-0.3 0.6,-0.3 0.875,0.024 1.125,0.125 0.75,0.3 -0.349,0.175 -0.724,0.263 -1.125,0.263 z"
   id="path322"
   inkscape:connector-curvature="0" />
			<path
   style="clip-rule:evenodd;fill:#efdfa1;fill-rule:evenodd"
   d="m 13.237,27.774 c 0.525,0.025 0.563,0.138 0.113,0.338 -0.425,0.225 -0.725,0.237 -0.9,0.037 -0.3,-0.299 -0.037,-0.424 0.787,-0.375 z"
   id="path324"
   inkscape:connector-curvature="0" />
			<path
   style="clip-rule:evenodd;fill:#efdfa1;fill-rule:evenodd"
   d="m 9.712,29.462 c 0.4,0 0.738,0.075 1.013,0.226 0.25,0.149 0.337,0.275 0.262,0.375 -0.05,0.1 -0.325,0.175 -0.825,0.225 -0.5,0.051 -0.875,0.038 -1.125,-0.037 -0.275,-0.051 -0.325,-0.2 -0.15,-0.45 0.151,-0.226 0.426,-0.339 0.825,-0.339 z"
   id="path326"
   inkscape:connector-curvature="0" />
			<path
   style="clip-rule:evenodd;fill:#efdfa1;fill-rule:evenodd"
   d="m 16.237,28.862 c 0.475,-0.024 0.663,0.075 0.563,0.3 -0.125,0.175 -0.362,0.3 -0.712,0.375 -0.375,0.15 -0.65,0.25 -0.825,0.3 -0.275,0.101 -0.538,0.113 -0.787,0.038 -0.275,-0.1 -0.163,-0.287 0.337,-0.563 0.5,-0.276 0.975,-0.425 1.424,-0.45 z"
   id="path328"
   inkscape:connector-curvature="0" />
			<path
   style="clip-rule:evenodd;fill:#ffffff;fill-rule:evenodd"
   d="m 18.712,29.5 c 0.375,0.45 0.425,0.638 0.15,0.563 -0.3,-0.075 -0.537,-0.238 -0.712,-0.487 -0.15,-0.2 -0.163,-0.338 -0.038,-0.413 0.15,-0.076 0.35,0.037 0.6,0.337 z"
   id="path330"
   inkscape:connector-curvature="0" />
			<path
   style="clip-rule:evenodd;fill:#ffffff;fill-rule:evenodd"
   d="m 16.2,31.112 c 0.8,0.2 1.225,0.351 1.275,0.45 0.05,0.05 -0.138,0.088 -0.563,0.112 -0.35,0.05 -0.75,-0.024 -1.2,-0.225 -0.45,-0.175 -0.738,-0.362 -0.862,-0.563 -0.075,-0.175 0.012,-0.213 0.262,-0.113 0.676,0.227 1.038,0.339 1.088,0.339 z"
   id="path332"
   inkscape:connector-curvature="0" />
			<path
   style="clip-rule:evenodd;fill:#ffffff;fill-rule:evenodd"
   d="m 20.063,29.425 c 0.275,0 0.362,0.125 0.262,0.375 -0.125,0.225 -0.312,0.287 -0.563,0.188 -0.25,-0.1 -0.325,-0.225 -0.225,-0.375 0.101,-0.126 0.276,-0.188 0.526,-0.188 z"
   id="path334"
   inkscape:connector-curvature="0" />
			<path
   style="clip-rule:evenodd;fill:#ffffff;fill-rule:evenodd"
   d="m 22.537,24.774 c 0.676,0.101 0.988,0.226 0.938,0.375 -0.025,0.15 -0.2,0.226 -0.524,0.226 -0.275,0 -0.601,-0.038 -0.976,-0.112 C 21.55,25.188 21.3,25.1 21.225,25 21.1,24.875 21.175,24.787 21.451,24.737 21.75,24.688 22.112,24.7 22.537,24.774 Z"
   id="path336"
   inkscape:connector-curvature="0" />
			<path
   style="clip-rule:evenodd;fill:#efdfa1;fill-rule:evenodd"
   d="m 26.138,26.013 c 1.399,0 1.8,0.074 1.2,0.225 -0.775,0.2 -1.288,0.287 -1.538,0.263 -0.275,-0.025 -0.362,-0.112 -0.263,-0.263 0.125,-0.151 0.325,-0.225 0.601,-0.225 z"
   id="path338"
   inkscape:connector-curvature="0" />
			<path
   style="clip-rule:evenodd;fill:#ffffff;fill-rule:evenodd"
   d="m 26.888,27.625 c 0.499,-0.2 0.625,-0.188 0.375,0.037 -0.251,0.2 -0.575,0.4 -0.976,0.601 -0.324,0.149 -0.837,0.249 -1.537,0.3 -0.625,0.05 -1.088,0.05 -1.388,0 -0.225,-0.025 -0.088,-0.112 0.413,-0.263 0.5,-0.125 0.949,-0.188 1.35,-0.188 0.35,0 0.662,-0.05 0.938,-0.15 0.15,-0.05 0.424,-0.162 0.825,-0.337 z"
   id="path340"
   inkscape:connector-curvature="0" />
			<path
   style="clip-rule:evenodd;fill:#efdfa1;fill-rule:evenodd"
   d="m 27.3,33.438 c 0.125,0 0.25,0.1 0.375,0.3 0.1,0.2 0.038,0.338 -0.188,0.412 -0.25,0.051 -0.513,0.025 -0.787,-0.074 -0.275,-0.126 -0.45,-0.301 -0.525,-0.525 -0.075,-0.15 -0.024,-0.225 0.15,-0.225 0.55,0.073 0.874,0.112 0.975,0.112 z"
   id="path342"
   inkscape:connector-curvature="0" />
			<path
   style="clip-rule:evenodd;fill:#efdfa1;fill-rule:evenodd"
   d="m 24,33.212 c 0.425,-0.249 0.387,0.075 -0.112,0.976 -0.101,0.175 -0.325,0.275 -0.675,0.3 -0.326,0.024 -0.575,-0.05 -0.75,-0.225 -0.126,-0.126 0,-0.288 0.375,-0.488 0.249,-0.1 0.637,-0.288 1.162,-0.563 z"
   id="path344"
   inkscape:connector-curvature="0" />
			<path
   style="clip-rule:evenodd;fill:#ffffff;fill-rule:evenodd"
   d="m 13.725,32.612 c 0.425,0.25 0.412,0.351 -0.038,0.3 -0.45,-0.05 -0.75,-0.175 -0.9,-0.375 -0.15,-0.175 -0.125,-0.263 0.075,-0.263 0.201,0.026 0.488,0.138 0.863,0.338 z"
   id="path346"
   inkscape:connector-curvature="0" />
			<path
   style="clip-rule:evenodd;fill:#ffffff;fill-rule:evenodd"
   d="m 15.75,32.313 c 0.35,-0.075 0.337,0.063 -0.038,0.412 -0.35,0.325 -0.663,0.55 -0.938,0.675 -0.225,0.075 -0.188,-0.074 0.112,-0.449 0.302,-0.376 0.589,-0.589 0.864,-0.638 z"
   id="path348"
   inkscape:connector-curvature="0" />
			<path
   style="clip-rule:evenodd;fill:#ffffff;fill-rule:evenodd"
   d="m 32.438,26.2 c 1.1,0.324 1.75,0.812 1.95,1.462 -0.2,-0.225 -0.688,-0.5 -1.463,-0.825 -0.825,-0.324 -1.25,-0.5 -1.274,-0.524 -0.126,-0.075 -0.088,-0.125 0.112,-0.15 0.2,-0.051 0.425,-0.038 0.675,0.037 z"
   id="path350"
   inkscape:connector-curvature="0" />
			<path
   style="clip-rule:evenodd;fill:#efdfa1;fill-rule:evenodd"
   d="m 28.612,28.337 c 0.7,0.175 0.837,0.338 0.413,0.488 C 28.625,29 28.2,29.05 27.75,28.975 27.399,28.9 27.375,28.763 27.675,28.563 28,28.337 28.313,28.263 28.612,28.337 Z"
   id="path352"
   inkscape:connector-curvature="0" />
			<path
   style="clip-rule:evenodd;fill:#ffffff;fill-rule:evenodd"
   d="m 19.875,27.25 c 0.325,-0.051 0.462,0.063 0.413,0.337 -0.025,0.275 -0.163,0.388 -0.413,0.338 -0.225,-0.024 -0.337,-0.138 -0.337,-0.338 0,-0.175 0.112,-0.287 0.337,-0.337 z"
   id="path354"
   inkscape:connector-curvature="0" />
			<path
   style="clip-rule:evenodd;fill:#ffffff;fill-rule:evenodd"
   d="m 18.3,24.362 c 0.225,-0.075 0.263,-0.013 0.113,0.188 -0.15,0.175 -0.363,0.338 -0.638,0.487 -0.675,0.4 -1.2,0.563 -1.575,0.487 -0.2,-0.024 -0.175,-0.1 0.075,-0.225 0.225,-0.1 0.462,-0.163 0.712,-0.188 0.15,0 0.337,-0.1 0.563,-0.3 0.25,-0.224 0.5,-0.373 0.75,-0.449 z"
   id="path356"
   inkscape:connector-curvature="0" />
			<path
   style="clip-rule:evenodd;fill:#ffffff;fill-rule:evenodd"
   d="m 38.588,28.75 h 1.087 c 0.05,0.125 0.075,0.313 0.075,0.563 0,1.824 -1.713,3.375 -5.138,4.649 -3.425,1.275 -7.563,1.913 -12.412,1.913 -4.851,0 -8.988,-0.638 -12.413,-1.913 C 6.362,32.688 4.649,31.137 4.649,29.313 L 4.724,28.75 H 6 v 0.3 c 0,1.625 1.587,3 4.762,4.125 3.175,1.149 7.013,1.725 11.513,1.725 4.524,0 8.375,-0.575 11.55,-1.725 3.175,-1.125 4.763,-2.5 4.763,-4.125 z"
   id="path358"
   inkscape:connector-curvature="0" />
		</g>
</svg>