<?xml version="1.0" encoding="UTF-8" standalone="no"?>
<!-- Generator: Adobe Illustrator 15.1.0, SVG Export Plug-In . SVG Version: 6.00 Build 0)  -->

<svg
   xmlns:dc="http://purl.org/dc/elements/1.1/"
   xmlns:cc="http://creativecommons.org/ns#"
   xmlns:rdf="http://www.w3.org/1999/02/22-rdf-syntax-ns#"
   xmlns:svg="http://www.w3.org/2000/svg"
   xmlns="http://www.w3.org/2000/svg"
   xmlns:xlink="http://www.w3.org/1999/xlink"
   xmlns:sodipodi="http://sodipodi.sourceforge.net/DTD/sodipodi-0.dtd"
   xmlns:inkscape="http://www.inkscape.org/namespaces/inkscape"
   version="1.1"
   id="flash0.ai"
   x="0px"
   y="0px"
   width="256"
   height="256"
   viewBox="0 0 256 256.00001"
   xml:space="preserve"
   sodipodi:docname="tortellini.svg"
   inkscape:version="0.92.4 (5da689c313, 2019-01-14)"
   inkscape:export-filename="C:\Users\antum\Development\game-resources\icon\CC0\food\individual\Glitch\32x32\pasta\tortellini.png"
   inkscape:export-xdpi="10.5"
   inkscape:export-ydpi="10.5"><title
   id="title1056">Tortellini</title><metadata
   id="metadata249"><rdf:RDF><cc:Work
       rdf:about=""><dc:format>image/svg+xml</dc:format><dc:type
         rdf:resource="http://purl.org/dc/dcmitype/StillImage" /><dc:title>Tortellini</dc:title><cc:license
         rdf:resource="http://creativecommons.org/publicdomain/zero/1.0/" /><dc:creator><cc:Agent><dc:title>Glitch</dc:title></cc:Agent></dc:creator><dc:source>https://opengameart.org/node/20149</dc:source></cc:Work><cc:License
       rdf:about="http://creativecommons.org/publicdomain/zero/1.0/"><cc:permits
         rdf:resource="http://creativecommons.org/ns#Reproduction" /><cc:permits
         rdf:resource="http://creativecommons.org/ns#Distribution" /><cc:permits
         rdf:resource="http://creativecommons.org/ns#DerivativeWorks" /></cc:License></rdf:RDF></metadata><defs
   id="defs247"><linearGradient
     inkscape:collect="always"
     xlink:href="#SVGID_1_"
     id="linearGradient1196"
     gradientUnits="userSpaceOnUse"
     gradientTransform="matrix(1,-0.0031,0.0031,1,25.5503,25.5313)"
     x1="-21.853001"
     y1="-31.002399"
     x2="-5.8529"
     y2="-31.002399" /></defs><sodipodi:namedview
   pagecolor="#ffffff"
   bordercolor="#666666"
   borderopacity="1"
   objecttolerance="10"
   gridtolerance="10"
   guidetolerance="10"
   inkscape:pageopacity="0"
   inkscape:pageshadow="2"
   inkscape:window-width="1920"
   inkscape:window-height="1025"
   id="namedview245"
   showgrid="false"
   inkscape:zoom="1.2008964"
   inkscape:cx="-117.49897"
   inkscape:cy="19.464021"
   inkscape:window-x="-8"
   inkscape:window-y="-8"
   inkscape:window-maximized="1"
   inkscape:current-layer="flash0.ai"
   fit-margin-top="0"
   fit-margin-left="0"
   fit-margin-right="0"
   fit-margin-bottom="0" />
<symbol
   id="flash0.ai_x5F_7_x2F_Layer_2_copy_x2F__x3C_Path_x3E__x5F_48"
   viewBox="0 -10.85 24.8 10.85"
   transform="translate(-3.7990001,225.637)">
	<g
   id="Layer_1_2_">
		
			<linearGradient
   id="SVGID_1_"
   gradientUnits="userSpaceOnUse"
   x1="-21.853001"
   y1="-31.002399"
   x2="-5.8529"
   y2="-31.002399"
   gradientTransform="matrix(1,-0.0031,0.0031,1,25.5503,25.5313)">
			<stop
   offset="0"
   style="stop-color:#FFFFFF"
   id="stop2" />
			<stop
   offset="1"
   style="stop-color:#000000"
   id="stop4" />
		</linearGradient>
		<path
   style="clip-rule:evenodd;fill:url(#linearGradient1196);fill-rule:evenodd"
   d="m 24.8,-1.45 -3.25,-9.4 -5.25,0.05 c -1.133,0.167 -2.4,0.45 -3.8,0.85 -1.467,0.467 -2.683,0.967 -3.65,1.5 C 5.717,-6.717 3.3,-4.783 1.6,-2.65 0.767,-1.583 0.233,-0.7 0,0 l 2.75,-0.45 c 4.5,-0.733 10.017,-1.1 16.55,-1.1 z"
   id="path7"
   inkscape:connector-curvature="0" />
	</g>
</symbol>
<g
   id="g242"
   transform="matrix(6.8653704,0,0,6.8653704,-26.081543,-19.788776)">
	<g
   id="g178">
		<path
   style="clip-rule:evenodd;fill:#d7eaf2;fill-rule:evenodd"
   d="m 38.712,21.175 0.15,-0.037 c -0.975,2.675 -3.075,4.875 -6.3,6.6 -3.275,1.751 -7.013,2.625 -11.212,2.625 -4.225,0 -7.988,-0.888 -11.288,-2.662 -3.25,-1.75 -5.338,-3.975 -6.263,-6.675 l 0.3,0.037 c 0.976,0.65 3.063,1.188 6.263,1.612 3.25,0.426 6.95,0.638 11.1,0.638 4.075,0 7.713,-0.2 10.913,-0.6 3.149,-0.4 5.262,-0.913 6.337,-1.538 z"
   id="path11"
   inkscape:connector-curvature="0" />
		<path
   style="clip-rule:evenodd;fill:#bdd4de;fill-rule:evenodd"
   d="m 37.325,21.737 c -0.226,0.601 -0.588,1.226 -1.088,1.875 -0.95,1.275 -2.425,2.563 -4.425,3.863 C 30.237,28.5 28.3,29.325 26,29.95 c -1.075,0.15 -1.676,0.225 -1.8,0.225 3.024,-0.925 5.2,-2.274 6.524,-4.05 0.575,-0.775 0.938,-1.5 1.088,-2.175 0.075,-0.625 0.125,-1.037 0.149,-1.237 2.326,-0.25 4.113,-0.575 5.364,-0.976 z"
   id="path13"
   inkscape:connector-curvature="0" />
		
			<use
   xlink:href="#flash0.ai_x5F_7_x2F_Layer_2_copy_x2F__x3C_Path_x3E__x5F_48"
   width="24.799999"
   height="10.85"
   y="-10.85"
   transform="matrix(0.75,0,0,-0.75,9.8492501,191.37815)"
   style="overflow:visible;opacity:0.44140003;enable-background:new"
   id="use15"
   x="0" />
		<path
   style="clip-rule:evenodd;fill:#bdd4de;fill-rule:evenodd"
   d="m 6.649,24.55 c 1.584,1.874 3.585,3.306 6,4.294 C 10.586,28.082 8.812,27.088 7.325,25.863 5.599,24.438 4.425,22.826 3.8,21.026 l 0.3,0.037 c 0.175,0.125 0.363,0.226 0.563,0.3 0.424,1.05 1.087,2.113 1.986,3.187 z"
   id="path17"
   inkscape:connector-curvature="0" />
		
			<linearGradient
   id="SVGID_2_"
   gradientUnits="userSpaceOnUse"
   x1="1.1006"
   y1="10.2002"
   x2="46.150398"
   y2="10.2002"
   gradientTransform="matrix(0.75,0,0,0.75,3.7998,12.7002)">
			<stop
   offset="0"
   style="stop-color:#9CADB5"
   id="stop19" />
			<stop
   offset="1"
   style="stop-color:#E0E0E0"
   id="stop21" />
		</linearGradient>
		<path
   style="clip-rule:evenodd;fill:url(#SVGID_2_);fill-rule:evenodd"
   d="m 33.462,15.851 c 3.301,1.25 4.95,2.75 4.95,4.5 0,1.749 -1.649,3.237 -4.95,4.462 -3.3,1.25 -7.274,1.875 -11.924,1.875 -4.675,0 -8.663,-0.625 -11.962,-1.875 -3.301,-1.225 -4.95,-2.713 -4.95,-4.462 0,-1.75 1.649,-3.25 4.95,-4.5 3.3,-1.225 7.287,-1.838 11.962,-1.838 4.65,0 8.624,0.612 11.924,1.838 z"
   id="path24"
   inkscape:connector-curvature="0" />
		<path
   style="clip-rule:evenodd;fill:#ffffff;fill-rule:evenodd"
   d="m 38.825,19.9 h -1.088 c -0.225,-1.551 -1.912,-2.863 -5.063,-3.938 -3.125,-1.075 -6.875,-1.612 -11.25,-1.612 -4.35,0 -8.087,0.537 -11.213,1.612 C 7.063,17.037 5.375,18.35 5.149,19.9 H 3.875 c 0.4,-1.7 2.262,-3.125 5.587,-4.275 3.375,-1.15 7.338,-1.725 11.888,-1.725 4.575,0 8.537,0.575 11.887,1.725 3.351,1.15 5.213,2.575 5.588,4.275 z"
   id="path26"
   inkscape:connector-curvature="0" />
		
			<radialGradient
   id="SVGID_3_"
   cx="2.2553999"
   cy="-21.612801"
   r="21.0124"
   gradientTransform="matrix(-0.0816,0.7455,0.696,0.0879,34.9272,16.6306)"
   gradientUnits="userSpaceOnUse">
			<stop
   offset="0"
   style="stop-color:#F2DB8A"
   id="stop28" />
			<stop
   offset="1"
   style="stop-color:#877531"
   id="stop30" />
		</radialGradient>
		<path
   style="clip-rule:evenodd;fill:url(#SVGID_3_);fill-rule:evenodd"
   d="m 37.513,22.487 c -1.125,0.65 -2.751,1.363 -4.875,2.138 -3.075,1.125 -5.713,1.7 -7.913,1.726 -2.399,0.024 -5.024,-0.088 -7.875,-0.338 -2.6,-0.25 -4.587,-0.538 -5.962,-0.862 -1.125,-0.275 -2.226,-0.7 -3.301,-1.275 -0.95,-0.5 -1.437,-0.85 -1.462,-1.05 -0.025,-0.1 0.125,-0.287 0.45,-0.563 0.375,-0.325 0.575,-0.525 0.6,-0.6 0.4,-1.125 1.987,-2.088 4.763,-2.888 0.725,-0.2 1.462,-0.801 2.212,-1.8 0.7,-0.95 1.288,-1.438 1.763,-1.463 2.35,-0.175 4.275,-0.15 5.775,0.075 0.525,0.075 1.338,0.337 2.438,0.787 0.899,0.375 1.662,0.55 2.287,0.525 0.575,-0.025 1.875,-0.125 3.9,-0.3 1.824,-0.101 2.949,0.05 3.375,0.449 0.625,0.601 1.287,1.363 1.987,2.288 0.825,1.05 1.226,1.763 1.2,2.138 -0.025,0.274 0.213,0.462 0.712,0.563 0.325,0.075 0.301,0.226 -0.074,0.45 z"
   id="path33"
   inkscape:connector-curvature="0" />
		
			<radialGradient
   id="SVGID_4_"
   cx="1.939"
   cy="-16.3428"
   r="2.9554"
   gradientTransform="matrix(-0.0825,0.7455,0.6947,0.0888,27.3136,15.7066)"
   gradientUnits="userSpaceOnUse">
			<stop
   offset="0"
   style="stop-color:#D4C17D"
   id="stop35" />
			<stop
   offset="1"
   style="stop-color:#B3A051"
   id="stop37" />
		</radialGradient>
		<path
   style="clip-rule:evenodd;fill:url(#SVGID_4_);fill-rule:evenodd"
   d="m 15.912,15.513 c 0.725,-0.125 0.838,0.05 0.338,0.525 -0.625,0.624 -0.85,1.012 -0.675,1.162 0.2,0.2 0.625,0.175 1.274,-0.075 0.601,-0.25 0.925,-0.313 0.976,-0.188 0.1,0.275 -0.088,0.513 -0.563,0.713 -0.525,0.225 -1.225,0.263 -2.101,0.112 -0.875,-0.175 -1.125,-0.575 -0.75,-1.2 0.376,-0.574 0.877,-0.924 1.501,-1.049 z"
   id="path40"
   inkscape:connector-curvature="0" />
		
			<radialGradient
   id="SVGID_5_"
   cx="7.0215001"
   cy="-16.0977"
   r="3.2950001"
   gradientTransform="matrix(-0.0825,0.7454,0.6971,0.0882,27,15.6358)"
   gradientUnits="userSpaceOnUse">
			<stop
   offset="0"
   style="stop-color:#D4C17D"
   id="stop42" />
			<stop
   offset="1"
   style="stop-color:#B3A051"
   id="stop44" />
		</radialGradient>
		<path
   style="clip-rule:evenodd;fill:url(#SVGID_5_);fill-rule:evenodd"
   d="m 16.737,19.188 c 0.375,-0.05 0.563,0.112 0.563,0.487 0,0.2 -0.05,0.538 -0.15,1.013 -0.05,0.351 -0.188,0.65 -0.412,0.9 -0.25,0.275 -0.525,0.399 -0.825,0.375 -0.275,-0.051 -0.737,-0.051 -1.388,0 l -0.899,0.075 c 0.075,-0.15 0.212,-0.301 0.412,-0.45 0.375,-0.325 0.85,-0.5 1.425,-0.525 0.5,-0.05 0.738,-0.362 0.713,-0.938 -10e-4,-0.6 0.186,-0.912 0.561,-0.937 z"
   id="path47"
   inkscape:connector-curvature="0" />
		
			<radialGradient
   id="SVGID_6_"
   cx="4.6557999"
   cy="-36.491699"
   r="2.5399001"
   gradientTransform="matrix(-0.0812,0.7456,0.6939,0.0886,56.2765,19.3988)"
   gradientUnits="userSpaceOnUse">
			<stop
   offset="0"
   style="stop-color:#D4C17D"
   id="stop49" />
			<stop
   offset="1"
   style="stop-color:#B3A051"
   id="stop51" />
		</radialGradient>
		<path
   style="clip-rule:evenodd;fill:url(#SVGID_6_);fill-rule:evenodd"
   d="m 31.662,19.525 c 0.9,0.225 1.1,0.638 0.601,1.237 -0.501,0.575 -1.263,0.726 -2.288,0.45 -0.975,-0.25 -1.137,-0.638 -0.487,-1.163 0.624,-0.549 1.349,-0.724 2.174,-0.524 z"
   id="path54"
   inkscape:connector-curvature="0" />
		
			<radialGradient
   id="SVGID_7_"
   cx="4.3125"
   cy="-21.3335"
   r="19.1765"
   gradientTransform="matrix(-0.0816,0.7455,0.6957,0.0875,34.5181,16.5644)"
   gradientUnits="userSpaceOnUse">
			<stop
   offset="0"
   style="stop-color:#D4C17D"
   id="stop56" />
			<stop
   offset="1"
   style="stop-color:#B3A051"
   id="stop58" />
		</radialGradient>
		<path
   style="clip-rule:evenodd;fill:url(#SVGID_7_);fill-rule:evenodd"
   d="m 35.337,21.325 c -0.475,-0.25 -1.1,-0.612 -1.875,-1.088 -0.874,-0.55 -1.45,-0.899 -1.725,-1.05 -0.825,-0.5 -2.025,-0.688 -3.6,-0.563 -0.8,0.125 -1.45,0.213 -1.95,0.263 -0.9,0.1 -1.575,0.05 -2.025,-0.15 -0.199,-0.074 -0.45,-0.3 -0.75,-0.675 -0.199,-0.225 -0.688,-0.324 -1.462,-0.3 -0.676,0.024 -1.588,0.2 -2.738,0.525 -1.149,0.324 -1.975,0.5 -2.475,0.524 -0.975,0.075 -1.637,0.163 -1.987,0.263 -0.601,0.15 -1.05,0.45 -1.351,0.9 -0.475,0.675 -0.837,1.138 -1.087,1.387 -0.425,0.426 -0.9,0.676 -1.425,0.75 -0.625,0.101 -1.213,0.263 -1.763,0.488 -0.625,0.225 -0.95,0.425 -0.976,0.6 -0.07,0.194 -0.07,0.388 0,0.581 -0.6,-0.234 -0.987,-0.428 -1.162,-0.581 -0.625,-0.525 -0.525,-0.95 0.3,-1.275 0.65,-0.274 1.488,-0.412 2.513,-0.412 0.7,0 1.262,-0.15 1.688,-0.45 0.2,-0.149 0.5,-0.475 0.9,-0.975 0.2,-0.25 0.487,-0.638 0.862,-1.163 0.425,-0.399 1.087,-0.587 1.987,-0.563 0.825,0.051 1.625,-0.074 2.4,-0.375 0.399,-0.175 0.924,-0.399 1.574,-0.675 0.576,-0.149 1.013,-0.225 1.313,-0.225 0.425,0 1.075,0.1 1.95,0.3 0.35,0.075 0.801,0.325 1.351,0.75 0.3,0.25 1.1,0.325 2.399,0.225 1.125,-0.074 2.338,-0.188 3.638,-0.337 0.851,0.024 1.612,0.324 2.287,0.899 0.476,0.4 1.388,0.925 2.738,1.575 0.999,0.475 1.475,0.838 1.425,1.088 -0.051,0.55 -0.15,1.063 -0.3,1.537 -0.2,0.625 -0.388,0.813 -0.563,0.563 -0.075,-0.125 0.013,-0.512 0.262,-1.162 0.228,-0.548 0.103,-0.949 -0.373,-1.199 z m -8.587,0 c -0.926,-0.375 -1.563,-0.612 -1.913,-0.713 -0.6,-0.2 -1.075,-0.2 -1.425,0 -0.149,0.075 -0.688,0.275 -1.612,0.601 -0.7,0.25 -1.162,0.5 -1.387,0.75 -0.475,0.575 -0.85,1.025 -1.125,1.35 -0.55,0.65 -0.987,1.025 -1.313,1.125 -0.5,0.15 -1.112,0.238 -1.837,0.263 -0.825,0.024 -1.351,-0.088 -1.575,-0.338 -0.3,-0.324 -0.513,-0.524 -0.638,-0.6 -0.25,-0.125 -0.65,-0.212 -1.2,-0.263 -0.6,-0.05 -1.2,0.063 -1.8,0.338 -0.552,0.264 -0.758,0.495 -0.619,0.693 C 9.839,24.384 9.42,24.246 9.05,24.119 9.108,24.08 9.171,24.037 9.238,23.987 c 0.6,-0.425 1.35,-0.8 2.25,-1.125 0.975,-0.375 1.688,-0.5 2.138,-0.375 0.225,0.051 0.575,0.4 1.05,1.051 0.375,0.5 0.862,0.688 1.463,0.563 0.824,-0.2 1.387,-0.388 1.688,-0.563 0.325,-0.2 0.625,-0.575 0.899,-1.125 0.75,-1.375 1.688,-2.063 2.813,-2.063 0.325,0 0.724,-0.175 1.2,-0.525 0.375,-0.275 0.875,-0.313 1.5,-0.112 1.101,0.35 2.263,0.65 3.487,0.899 0.475,0.126 1.138,0.138 1.987,0.038 0.676,-0.075 1.213,0.024 1.613,0.3 0.499,0.375 0.774,0.65 0.824,0.825 0,0.05 -0.062,0.362 -0.188,0.938 -0.074,0.324 0.063,0.838 0.413,1.537 0.25,0.525 0.237,0.801 -0.038,0.825 -0.274,0.024 -0.513,0.101 -0.712,0.225 -0.051,0.025 -0.1,-0.024 -0.15,-0.149 -0.05,-0.226 -0.088,-0.613 -0.112,-1.163 -0.05,-0.649 -0.037,-1.149 0.037,-1.5 0.2,-0.85 -0.274,-1.274 -1.425,-1.274 -0.149,0 -0.65,0.088 -1.5,0.263 -0.55,0.098 -1.125,0.048 -1.725,-0.152 z m -7.2,4.276 c -0.825,0.074 -1.325,0.138 -1.5,0.188 -0.3,0.1 -0.5,0.162 -0.6,0.188 -0.15,0.05 -0.5,0.074 -1.051,0.074 -0.296,0 -0.758,-0.068 -1.387,-0.206 0.332,-0.069 0.944,-0.238 1.837,-0.506 0.9,-0.3 1.588,-0.45 2.063,-0.45 0.9,0 1.388,0 1.462,0 0.425,-0.075 0.8,-0.313 1.125,-0.713 0.401,-0.475 1.05,-0.837 1.951,-1.087 0.975,-0.25 1.688,-0.2 2.137,0.149 0.425,0.325 0.976,0.601 1.65,0.825 0.5,0.15 0.925,0.238 1.275,0.263 0.274,0.024 0.612,0.088 1.012,0.188 0.425,0.1 0.688,0.2 0.788,0.3 0.149,0.1 0.162,0.313 0.037,0.638 -0.149,0.3 -0.375,0.412 -0.675,0.338 -0.25,-0.075 -0.7,-0.275 -1.35,-0.601 -0.8,-0.425 -1.362,-0.699 -1.688,-0.825 -0.75,-0.324 -1.275,-0.524 -1.575,-0.6 -0.601,-0.15 -1.125,-0.125 -1.575,0.075 -0.351,0.149 -0.763,0.399 -1.237,0.75 -0.475,0.324 -0.838,0.55 -1.087,0.675 C 20.837,25.388 20.3,25.5 19.55,25.601 Z M 8.149,23.781 c 0.258,0.105 0.558,0.218 0.9,0.338 C 8.674,24.336 8.412,24.305 8.262,24.025 8.211,23.944 8.173,23.863 8.149,23.781 Z m 2.157,0.75 c 0.365,0.111 0.759,0.23 1.182,0.356 1.486,0.447 2.661,0.767 3.525,0.956 C 14.97,25.85 14.932,25.857 14.9,25.862 14.376,25.937 13.5,25.788 12.275,25.413 11.15,25.038 10.5,24.75 10.326,24.55 Z"
   id="path61"
   inkscape:connector-curvature="0" />
		
			<radialGradient
   id="SVGID_8_"
   cx="-0.49900001"
   cy="-22.417999"
   r="19.7176"
   gradientTransform="matrix(-0.0818,0.7455,0.6961,0.0875,36.0885,16.7584)"
   gradientUnits="userSpaceOnUse">
			<stop
   offset="0"
   style="stop-color:#C7B577"
   id="stop63" />
			<stop
   offset="1"
   style="stop-color:#BDAA57"
   id="stop65" />
		</radialGradient>
		<path
   style="clip-rule:evenodd;fill:url(#SVGID_8_);fill-rule:evenodd"
   d="M 35.487,18.737 C 35.088,18.187 34.525,17.85 33.799,17.725 32.174,17.4 30.649,17.2 29.224,17.124 c -0.675,-0.05 -1.449,-0.375 -2.325,-0.975 -0.95,-0.625 -1.649,-0.976 -2.1,-1.05 -0.925,-0.301 -1.612,-0.488 -2.063,-0.563 -0.8,-0.175 -1.638,0.012 -2.513,0.563 -1.225,0.85 -2.087,1.438 -2.587,1.762 -0.8,0.525 -1.488,0.813 -2.063,0.863 -0.175,0.024 -1,-0.051 -2.476,-0.226 -1.025,-0.1 -1.763,0.013 -2.212,0.338 -0.9,0.774 -1.55,1.325 -1.95,1.649 -0.675,0.601 -0.95,0.688 -0.825,0.263 0.625,-2 1.7,-3 3.225,-3 h 1.426 c 2.225,0.25 3.712,0.051 4.462,-0.6 0.9,-0.75 1.825,-1.375 2.775,-1.875 1.425,-0.775 2.574,-1.063 3.45,-0.862 0.6,0.149 1.475,0.65 2.625,1.5 1.1,0.8 2.112,1.262 3.037,1.387 2.075,0.275 3.175,0.426 3.3,0.45 1.025,0.175 1.825,0.413 2.4,0.713 0.699,0.399 1.262,0.85 1.688,1.35 0.475,0.525 0.688,1 0.638,1.425 -0.05,0.45 -0.488,0.925 -1.313,1.426 -0.851,0.524 -1.788,0.837 -2.813,0.938 -0.75,0.074 -1.563,0.437 -2.438,1.087 -0.825,0.625 -1.413,0.938 -1.763,0.938 h -1.237 c -0.15,-0.024 -0.226,-0.088 -0.226,-0.188 0,-0.175 0.375,-0.412 1.125,-0.712 0.601,-0.226 1.938,-0.713 4.013,-1.463 1.851,-0.7 2.913,-1.3 3.188,-1.8 0.328,-0.574 0.266,-1.149 -0.185,-1.725 z"
   id="path68"
   inkscape:connector-curvature="0" />
		
			<radialGradient
   id="SVGID_9_"
   cx="-0.85210001"
   cy="-22.0264"
   r="19.7176"
   gradientTransform="matrix(-0.0818,0.7455,0.6961,0.0875,35.5245,16.6875)"
   gradientUnits="userSpaceOnUse">
			<stop
   offset="0"
   style="stop-color:#E3D49D"
   id="stop70" />
			<stop
   offset="1"
   style="stop-color:#E0CA70"
   id="stop72" />
		</radialGradient>
		<path
   style="clip-rule:evenodd;fill:url(#SVGID_9_);fill-rule:evenodd"
   d="m 35.225,18.438 c -0.425,-0.55 -0.987,-0.887 -1.688,-1.013 -1.625,-0.324 -3.149,-0.524 -4.575,-0.6 -0.675,-0.05 -1.45,-0.375 -2.324,-0.975 -0.95,-0.625 -1.663,-0.976 -2.138,-1.051 -0.926,-0.3 -1.612,-0.487 -2.063,-0.563 -0.775,-0.174 -1.6,0.013 -2.476,0.563 -1.25,0.85 -2.112,1.438 -2.587,1.763 -0.8,0.525 -1.5,0.813 -2.101,0.862 -0.174,0.025 -0.987,-0.05 -2.438,-0.225 -1.05,-0.1 -1.787,0.013 -2.212,0.338 -0.9,0.774 -1.55,1.325 -1.95,1.649 C 8,19.788 7.725,19.875 7.85,19.45 c 0.625,-2 1.7,-3 3.226,-3 H 12.5 c 2.225,0.25 3.712,0.063 4.462,-0.563 0.8,-0.725 1.726,-1.363 2.775,-1.912 1.425,-0.775 2.575,-1.063 3.45,-0.863 0.574,0.15 1.449,0.65 2.625,1.5 1.1,0.8 2.112,1.263 3.037,1.388 2.125,0.275 3.226,0.426 3.3,0.45 1.001,0.175 1.788,0.412 2.363,0.713 0.7,0.399 1.274,0.85 1.725,1.35 0.476,0.525 0.688,1 0.638,1.425 -0.051,0.45 -0.487,0.925 -1.313,1.425 -0.874,0.525 -1.812,0.837 -2.812,0.937 -0.775,0.075 -1.588,0.438 -2.438,1.088 -0.825,0.625 -1.425,0.938 -1.8,0.938 h -1.2 l 0.825,-0.675 c 0.7,-0.525 1.425,-0.938 2.175,-1.237 0.6,-0.226 1.588,-0.538 2.962,-0.938 1.15,-0.375 1.862,-0.813 2.138,-1.313 0.325,-0.575 0.263,-1.15 -0.187,-1.725 z"
   id="path75"
   inkscape:connector-curvature="0" />
		
			<radialGradient
   id="SVGID_10_"
   cx="-0.7324"
   cy="-22.1919"
   r="24.4454"
   gradientTransform="matrix(-0.0817,0.7455,0.6961,0.0878,35.7621,16.7327)"
   gradientUnits="userSpaceOnUse">
			<stop
   offset="0"
   style="stop-color:#E6D189"
   id="stop77" />
			<stop
   offset="1"
   style="stop-color:#BDAA57"
   id="stop79" />
		</radialGradient>
		<path
   style="clip-rule:evenodd;fill:url(#SVGID_10_);fill-rule:evenodd"
   d="m 35.3,19.075 c -0.825,0 -1.663,-0.338 -2.513,-1.013 -0.45,-0.399 -1.063,-1.05 -1.837,-1.95 -0.45,-0.549 -1.226,-0.787 -2.325,-0.712 -0.976,0.05 -1.825,0.287 -2.55,0.712 -0.95,0.55 -1.663,1.051 -2.138,1.5 -0.65,0.65 -0.463,0.938 0.563,0.863 0.225,0 1.087,-0.2 2.587,-0.601 0.726,-0.2 1.426,0 2.101,0.601 0.55,0.524 1.162,1.149 1.837,1.875 0.55,0.449 1.238,0.624 2.063,0.524 1.025,-0.125 1.888,0.125 2.588,0.75 0.726,0.65 0.563,1.2 -0.487,1.65 -0.926,0.399 -1.5,0.55 -1.726,0.45 L 33.425,23.5 34.363,22.937 c 0.476,-0.425 0.412,-0.75 -0.188,-0.975 -0.399,-0.175 -1.05,-0.287 -1.95,-0.338 C 31.526,21.6 30.988,21.424 30.613,21.1 29.988,20.424 29.512,19.924 29.188,19.6 28.612,19 28.05,18.676 27.5,18.625 c -0.45,-0.05 -1.063,0.013 -1.838,0.188 -0.925,0.175 -1.713,0.263 -2.362,0.263 -0.375,0 -1.112,0.112 -2.213,0.338 -0.525,0.125 -0.899,-0.025 -1.125,-0.45 -0.074,-0.15 -0.375,-0.862 -0.899,-2.138 -0.4,-0.975 -0.738,-1.575 -1.013,-1.8 -0.525,-0.475 -1.125,-0.763 -1.8,-0.862 -0.9,-0.125 -1.45,0.325 -1.65,1.35 -0.175,1 0.138,1.888 0.938,2.662 0.45,0.45 1.15,1.038 2.101,1.763 1.299,1.375 1.737,2.288 1.313,2.737 -0.5,0.501 -0.813,0.788 -0.938,0.863 -0.576,0.274 -1.338,0.262 -2.288,-0.038 -0.925,-0.3 -1.95,-0.774 -3.075,-1.425 -1.1,-0.675 -1.812,-1.112 -2.137,-1.313 -0.5,-0.3 -1.213,-0.412 -2.138,-0.338 -0.9,0.101 -1.413,0.325 -1.538,0.676 -0.1,0.35 0.1,0.675 0.601,0.975 0.45,0.275 1.063,0.487 1.837,0.638 0.5,0.1 1.063,0.2 1.688,0.3 0.55,0.075 1.138,0.237 1.763,0.487 0.2,0.075 0.913,0.65 2.138,1.726 0.825,0.725 1.637,0.899 2.438,0.524 0.45,-0.199 1.212,-0.925 2.287,-2.175 0.875,-1.025 1.888,-1.612 3.038,-1.763 1,-0.1 1.938,-0.212 2.813,-0.337 0.524,0.024 1.324,0.3 2.399,0.824 0.876,0.426 1.663,0.7 2.363,0.825 0.399,0.075 0.649,0.2 0.75,0.375 0.225,0.4 1.012,0.875 2.362,1.425 l -1.688,0.488 c 0.025,-0.126 -0.038,-0.275 -0.188,-0.45 -0.275,-0.351 -0.801,-0.675 -1.575,-0.976 -0.125,-0.05 -0.888,-0.388 -2.287,-1.012 -0.75,-0.325 -1.438,-0.513 -2.063,-0.563 -0.726,-0.051 -1.513,0.024 -2.363,0.225 -0.8,0.175 -1.462,0.425 -1.987,0.75 -0.375,0.225 -0.85,0.675 -1.425,1.35 -0.6,0.7 -0.938,1.075 -1.013,1.125 -0.899,0.75 -1.937,0.95 -3.112,0.601 -0.525,-0.15 -1.125,-0.5 -1.8,-1.05 C 13.164,24.863 12.501,24.5 11.827,24.325 10.5,24 9.525,23.75 8.899,23.575 7.774,23.275 6.974,22.975 6.5,22.675 5.35,21.95 4.8,21.25 4.85,20.575 c 0.1,-0.85 0.875,-1.4 2.325,-1.65 1.45,-0.249 2.638,-0.074 3.563,0.525 0.6,0.399 1.4,1.025 2.4,1.875 1.025,0.7 2.225,1.149 3.6,1.35 1.45,0.2 1.75,-0.237 0.9,-1.313 -0.275,-0.35 -1.288,-1.35 -3.038,-3 -0.975,-0.925 -1.5,-1.737 -1.575,-2.438 -0.074,-0.774 0.351,-1.55 1.275,-2.324 0.9,-0.726 1.888,-0.875 2.963,-0.45 0.975,0.4 1.762,1.15 2.362,2.25 0.05,0.075 0.275,0.938 0.675,2.587 0.125,0.525 0.675,0.45 1.65,-0.225 2.1,-1.425 3.513,-2.325 4.237,-2.7 1.75,-0.899 3.088,-1.15 4.013,-0.75 0.774,0.35 1.263,0.763 1.462,1.237 0.3,0.65 0.662,1.15 1.088,1.5 1.25,1.075 2.662,1.4 4.237,0.976 0.476,-0.15 1.101,0.075 1.875,0.675 0.774,0.6 1.212,0.888 1.313,0.862 0.45,-0.149 0.737,-0.175 0.862,-0.075 0.051,0.051 0.063,0.113 0.038,0.188 0,0.65 -0.188,0.976 -0.563,0.976 -0.15,0 -0.438,-0.226 -0.863,-0.675 -0.425,-0.501 -0.8,-0.801 -1.125,-0.9 -0.35,-0.075 -0.763,-0.1 -1.237,-0.075 -0.925,0.05 -1.588,0.074 -1.987,0.074 z"
   id="path82"
   inkscape:connector-curvature="0" />
		
			<radialGradient
   id="SVGID_11_"
   cx="-1.0425"
   cy="-21.855499"
   r="24.4454"
   gradientTransform="matrix(-0.0817,0.7455,0.6961,0.0878,35.2775,16.6716)"
   gradientUnits="userSpaceOnUse">
			<stop
   offset="0"
   style="stop-color:#FFF6D4"
   id="stop84" />
			<stop
   offset="1"
   style="stop-color:#E0CA70"
   id="stop86" />
		</radialGradient>
		<path
   style="clip-rule:evenodd;fill:url(#SVGID_11_);fill-rule:evenodd"
   d="m 35.075,18.851 c -0.825,0 -1.663,-0.351 -2.513,-1.051 -0.426,-0.35 -1.037,-0.987 -1.838,-1.912 -0.45,-0.55 -1.225,-0.787 -2.325,-0.713 -0.999,0.05 -1.85,0.288 -2.55,0.713 -0.975,0.55 -1.688,1.05 -2.138,1.5 -0.624,0.625 -0.437,0.913 0.563,0.862 0.226,0 1.101,-0.2 2.625,-0.6 0.726,-0.2 1.413,0 2.063,0.6 0.55,0.525 1.163,1.15 1.838,1.875 0.575,0.45 1.263,0.625 2.063,0.525 1.024,-0.15 1.888,0.1 2.588,0.75 0.725,0.625 0.563,1.162 -0.488,1.612 -0.925,0.399 -1.5,0.563 -1.725,0.487 L 33.2,23.275 34.138,22.712 C 34.613,22.286 34.55,21.949 33.95,21.699 33.525,21.524 32.887,21.412 32.037,21.361 31.312,21.337 30.775,21.173 30.425,20.874 29.8,20.2 29.324,19.688 29,19.338 c -0.601,-0.601 -1.163,-0.925 -1.688,-0.976 -0.45,-0.024 -1.075,0.038 -1.875,0.188 -0.9,0.2 -1.688,0.301 -2.362,0.301 -0.375,0 -1.113,0.112 -2.213,0.337 -0.525,0.1 -0.9,-0.05 -1.125,-0.45 -0.05,-0.1 -0.35,-0.812 -0.9,-2.137 C 18.438,15.65 18.1,15.051 17.825,14.8 17.3,14.3 16.7,14.013 16.024,13.938 c -0.899,-0.149 -1.45,0.3 -1.649,1.351 -0.175,0.975 0.137,1.85 0.938,2.625 0.45,0.449 1.15,1.037 2.1,1.762 1.275,1.426 1.712,2.338 1.313,2.738 -0.45,0.5 -0.762,0.8 -0.938,0.899 -0.575,0.275 -1.337,0.263 -2.287,-0.037 -0.925,-0.325 -1.95,-0.801 -3.075,-1.425 -1.1,-0.7 -1.813,-1.15 -2.138,-1.351 -0.5,-0.275 -1.212,-0.375 -2.138,-0.3 -0.899,0.1 -1.412,0.325 -1.537,0.675 -0.1,0.351 0.1,0.675 0.6,0.976 0.45,0.274 1.063,0.487 1.838,0.637 0.5,0.101 1.063,0.2 1.688,0.301 0.55,0.074 1.138,0.237 1.763,0.487 0.225,0.075 0.938,0.638 2.138,1.688 0.824,0.75 1.637,0.938 2.438,0.563 0.449,-0.226 1.212,-0.95 2.287,-2.175 0.875,-1.025 1.888,-1.613 3.037,-1.763 1.851,-0.226 2.788,-0.338 2.813,-0.338 0.501,0 1.3,0.275 2.4,0.825 0.875,0.425 1.663,0.7 2.362,0.825 0.4,0.075 0.65,0.2 0.75,0.375 0.226,0.375 1.013,0.85 2.362,1.425 l -1.688,0.45 c 0.025,-0.125 -0.037,-0.275 -0.188,-0.45 -0.274,-0.351 -0.8,-0.675 -1.574,-0.975 -1.101,-0.476 -1.862,-0.801 -2.288,-0.976 -0.75,-0.324 -1.438,-0.512 -2.063,-0.563 -0.75,-0.05 -1.537,0.013 -2.362,0.188 -0.8,0.2 -1.463,0.45 -1.988,0.75 -0.375,0.226 -0.85,0.675 -1.424,1.351 -0.601,0.725 -0.938,1.112 -1.013,1.162 -0.9,0.75 -1.938,0.95 -3.112,0.6 -0.5,-0.149 -1.101,-0.513 -1.801,-1.087 -0.65,-0.55 -1.313,-0.9 -1.987,-1.05 -1.325,-0.325 -2.3,-0.575 -2.925,-0.75 C 7.551,23.026 6.751,22.713 6.276,22.413 5.1,21.688 4.55,21 4.625,20.351 c 0.1,-0.851 0.875,-1.4 2.325,-1.65 1.45,-0.275 2.637,-0.112 3.563,0.487 0.6,0.4 1.4,1.037 2.399,1.913 1.025,0.699 2.225,1.138 3.601,1.313 1.45,0.2 1.75,-0.226 0.899,-1.275 -0.275,-0.351 -1.288,-1.35 -3.037,-3 -0.976,-0.925 -1.5,-1.75 -1.575,-2.475 -0.075,-0.775 0.35,-1.538 1.275,-2.288 0.899,-0.725 1.887,-0.875 2.962,-0.45 0.976,0.4 1.763,1.138 2.362,2.213 0.05,0.075 0.275,0.938 0.676,2.588 0.125,0.524 0.674,0.462 1.65,-0.188 2.15,-1.45 3.562,-2.35 4.237,-2.7 1.751,-0.925 3.088,-1.175 4.013,-0.75 0.775,0.35 1.263,0.762 1.463,1.237 0.3,0.65 0.662,1.149 1.087,1.5 1.275,1.101 2.688,1.412 4.238,0.938 0.575,-0.15 1.125,-0.112 1.649,0.112 0.5,0.226 0.838,0.55 1.013,0.976 0.225,0.55 0.7,0.75 1.425,0.6 0,0.625 -0.188,0.938 -0.563,0.938 -0.149,0 -0.438,-0.225 -0.862,-0.675 -0.425,-0.5 -0.8,-0.788 -1.125,-0.862 -0.351,-0.075 -0.763,-0.101 -1.237,-0.075 -0.926,0.047 -1.588,0.073 -1.988,0.073 z"
   id="path89"
   inkscape:connector-curvature="0" />
		
			<radialGradient
   id="SVGID_12_"
   cx="4.4702001"
   cy="-24.476601"
   r="17.982401"
   gradientTransform="matrix(-0.0819,0.7455,0.696,0.0876,39.0517,17.136)"
   gradientUnits="userSpaceOnUse">
			<stop
   offset="0"
   style="stop-color:#D6C894"
   id="stop91" />
			<stop
   offset="1"
   style="stop-color:#A89642"
   id="stop93" />
		</radialGradient>
		<path
   style="clip-rule:evenodd;fill:url(#SVGID_12_);fill-rule:evenodd"
   d="m 35.675,19.976 c 0.675,0.3 1.138,0.624 1.388,0.975 0.324,0.425 0.387,0.962 0.188,1.612 -0.1,0.325 -0.226,0.601 -0.375,0.825 l -1.2,0.638 0.787,-1.5 c 0.351,-0.625 0.038,-1.275 -0.938,-1.95 -0.225,-0.15 -1.112,-0.625 -2.662,-1.425 -0.7,-0.601 -1.237,-0.963 -1.612,-1.088 -0.601,-0.149 -1.75,0.226 -3.45,1.125 -1.601,0.875 -3.237,1.313 -4.912,1.313 -1.775,0 -2.675,0 -2.7,0 -0.375,0.175 -1.025,0.1 -1.95,-0.225 -1.075,-0.375 -1.95,-0.55 -2.625,-0.525 -0.875,0.025 -1.612,0.338 -2.213,0.938 -0.1,0.125 -0.449,0.625 -1.05,1.5 -0.175,0.275 -0.487,0.65 -0.938,1.125 -0.325,0.426 -0.375,0.9 -0.149,1.425 0.225,0.525 0.875,0.976 1.949,1.351 0.525,0.175 1.025,0.3 1.5,0.375 -0.35,0.075 -1.274,-0.075 -2.774,-0.45 -1.975,-0.525 -2.55,-1.4 -1.726,-2.625 0.201,-0.3 0.463,-0.575 0.788,-0.825 0.275,-0.2 0.575,-0.6 0.899,-1.2 0.55,-0.975 1.4,-1.7 2.551,-2.175 1.4,-0.6 2.825,-0.55 4.274,0.15 0.45,0.2 0.9,0.324 1.351,0.375 0.25,0.024 0.787,0.037 1.612,0.037 1.925,0 3.276,-0.188 4.05,-0.563 0.325,-0.125 1.088,-0.463 2.287,-1.013 1.15,-0.475 2.013,-0.712 2.588,-0.712 0.649,0 1.2,0.125 1.65,0.375 0.274,0.125 0.8,0.5 1.574,1.125 0.4,0.323 1.013,0.661 1.838,1.012 z"
   id="path96"
   inkscape:connector-curvature="0" />
		
			<radialGradient
   id="SVGID_13_"
   cx="4.0609999"
   cy="-24.128901"
   r="17.982401"
   gradientTransform="matrix(-0.0819,0.7455,0.696,0.0876,38.551,17.073)"
   gradientUnits="userSpaceOnUse">
			<stop
   offset="0"
   style="stop-color:#FFF6D4"
   id="stop98" />
			<stop
   offset="1"
   style="stop-color:#E0CA70"
   id="stop100" />
		</radialGradient>
		<path
   style="clip-rule:evenodd;fill:url(#SVGID_13_);fill-rule:evenodd"
   d="m 35.487,19.601 c 0.649,0.3 1.112,0.624 1.388,0.975 0.3,0.425 0.35,0.962 0.149,1.612 -0.1,0.325 -0.225,0.601 -0.375,0.825 l -1.199,0.675 0.787,-1.5 c 0.351,-0.65 0.037,-1.313 -0.938,-1.987 -0.25,-0.175 -1.138,-0.65 -2.662,-1.425 -0.7,-0.601 -1.238,-0.95 -1.613,-1.05 -0.6,-0.15 -1.749,0.225 -3.449,1.125 -1.601,0.85 -3.237,1.274 -4.913,1.274 -1.75,0 -2.65,0.013 -2.7,0.038 -0.375,0.175 -1.025,0.1 -1.949,-0.226 -1.101,-0.375 -1.975,-0.563 -2.625,-0.563 -0.875,0.025 -1.6,0.351 -2.176,0.976 -0.325,0.324 -0.687,0.812 -1.087,1.462 -0.175,0.275 -0.487,0.65 -0.938,1.125 -0.3,0.45 -0.338,0.938 -0.112,1.463 0.225,0.524 0.862,0.963 1.912,1.313 0.525,0.199 1.025,0.337 1.5,0.412 -0.35,0.075 -1.275,-0.088 -2.775,-0.487 -1.949,-0.525 -2.525,-1.4 -1.725,-2.625 0.2,-0.275 0.462,-0.538 0.787,-0.787 0.275,-0.226 0.576,-0.638 0.9,-1.238 0.55,-0.975 1.4,-1.7 2.55,-2.175 1.4,-0.575 2.825,-0.524 4.275,0.15 0.45,0.225 0.899,0.35 1.35,0.375 0.175,0.024 0.712,0.037 1.612,0.037 1.9,0 3.251,-0.175 4.051,-0.524 0.325,-0.126 1.087,-0.463 2.287,-1.013 1.149,-0.475 2.025,-0.713 2.625,-0.713 0.649,0 1.188,0.112 1.612,0.338 0.3,0.149 0.838,0.537 1.612,1.162 0.402,0.325 1.014,0.65 1.839,0.976 z"
   id="path103"
   inkscape:connector-curvature="0" />
		
			<radialGradient
   id="SVGID_14_"
   cx="4.2339001"
   cy="-26.3652"
   r="16.486099"
   gradientTransform="matrix(-0.0819,0.7455,0.696,0.0876,41.7725,17.4774)"
   gradientUnits="userSpaceOnUse">
			<stop
   offset="0"
   style="stop-color:#FFF6D4"
   id="stop105" />
			<stop
   offset="1"
   style="stop-color:#E0CA70"
   id="stop107" />
		</radialGradient>
		<path
   style="clip-rule:evenodd;fill:url(#SVGID_14_);fill-rule:evenodd"
   d="m 36.237,22.188 c -0.525,-0.8 -1.25,-1.75 -2.175,-2.85 -0.475,-0.525 -0.838,-0.85 -1.088,-0.976 -0.375,-0.2 -0.813,-0.162 -1.313,0.113 -0.65,0.375 -1.213,0.812 -1.688,1.313 -0.574,0.624 -0.825,1.199 -0.75,1.725 0.3,1.851 0.45,3.013 0.45,3.487 0,1.2 -1.95,1.726 -5.85,1.575 -0.351,0 -0.413,-0.638 -0.188,-1.912 0.249,-1.426 -0.088,-2.376 -1.013,-2.851 -0.95,-0.475 -1.8,-0.463 -2.55,0.038 -1.101,0.725 -1.825,1.112 -2.176,1.162 -0.924,0.175 -1.787,0.513 -2.587,1.013 -0.725,0.425 -1.225,0.862 -1.5,1.313 -0.325,0.55 -0.738,0.762 -1.237,0.638 0.1,-0.275 0.275,-0.588 0.524,-0.938 0.5,-0.7 1.1,-1.226 1.8,-1.575 0.301,-0.125 1.188,-0.475 2.663,-1.05 1.025,-0.426 1.725,-0.788 2.1,-1.088 0.45,-0.399 1.063,-0.625 1.837,-0.675 0.776,-0.025 1.438,0.137 1.988,0.487 1.05,0.7 1.575,1.8 1.575,3.3 0,0.825 0.012,1.263 0.037,1.313 0.075,0.226 0.45,0.363 1.125,0.413 0.85,0.05 1.575,-0.113 2.175,-0.488 0.676,-0.425 0.9,-0.987 0.676,-1.688 -0.375,-0.899 -0.626,-1.55 -0.75,-1.949 -0.175,-0.676 -0.063,-1.3 0.337,-1.875 0.65,-1 1.5,-1.763 2.55,-2.288 1.376,-0.699 2.438,-0.5 3.188,0.601 0.775,1.1 1.3,1.8 1.575,2.1 0.075,0.075 0.275,0.237 0.601,0.487 0.325,0.226 0.487,0.813 0.487,1.763 l -0.525,0.469 c 0.117,-0.268 0.017,-0.636 -0.298,-1.107 z"
   id="path110"
   inkscape:connector-curvature="0" />
		<path
   style="clip-rule:evenodd;fill:#ffffff;fill-rule:evenodd"
   d="m 15.388,13.263 c 0.225,0 0.225,0.075 0,0.225 -0.525,0.301 -0.838,0.488 -0.938,0.563 -0.5,0.351 -0.75,1.125 -0.75,2.325 0,0.25 -0.075,0.238 -0.226,-0.037 -0.125,-0.275 -0.175,-0.65 -0.149,-1.125 0.024,-0.525 0.275,-0.988 0.75,-1.388 0.425,-0.376 0.863,-0.563 1.313,-0.563 z"
   id="path112"
   inkscape:connector-curvature="0" />
		<path
   style="clip-rule:evenodd;fill:#ffffff;fill-rule:evenodd"
   d="m 7.1,18.963 c 0.55,0 1.025,0.088 1.425,0.263 0.4,0.175 0.45,0.262 0.15,0.262 -0.1,0 -0.512,0.101 -1.237,0.301 C 6.738,19.964 6.225,20.038 5.9,20.014 5.451,19.99 5.425,19.814 5.826,19.489 6.225,19.138 6.649,18.963 7.1,18.963 Z"
   id="path114"
   inkscape:connector-curvature="0" />
		<path
   style="clip-rule:evenodd;fill:#ffffff;fill-rule:evenodd"
   d="m 19.399,15.775 c 0.226,0.65 0.263,0.975 0.113,0.975 -0.175,0 -0.313,-0.212 -0.413,-0.638 -0.075,-0.375 -0.075,-0.612 0,-0.712 0.076,-0.075 0.176,0.05 0.3,0.375 z"
   id="path116"
   inkscape:connector-curvature="0" />
		<path
   style="clip-rule:evenodd;fill:#ffffff;fill-rule:evenodd"
   d="m 22.813,13.413 c 0.324,0.024 0.574,0.149 0.75,0.375 0.149,0.225 0.05,0.275 -0.3,0.149 -0.226,-0.075 -0.575,-0.087 -1.051,-0.037 -0.475,0.05 -0.762,0.05 -0.862,0 -0.2,-0.05 -0.088,-0.15 0.337,-0.3 0.425,-0.15 0.8,-0.212 1.126,-0.187 z"
   id="path118"
   inkscape:connector-curvature="0" />
		<path
   style="clip-rule:evenodd;fill:#ffffff;fill-rule:evenodd"
   d="m 29.45,14.163 c 0.325,0.1 0.475,0.225 0.449,0.375 -0.024,0.149 -0.2,0.162 -0.524,0.037 -0.226,-0.1 -0.638,-0.05 -1.237,0.15 -0.55,0.174 -0.888,0.225 -1.013,0.149 -0.2,-0.125 0.05,-0.3 0.75,-0.524 0.675,-0.225 1.2,-0.287 1.575,-0.187 z"
   id="path120"
   inkscape:connector-curvature="0" />
		<path
   style="clip-rule:evenodd;fill:#ffffff;fill-rule:evenodd"
   d="m 21.913,17.913 c 0.45,-0.126 0.613,-0.038 0.487,0.262 -0.124,0.301 -0.412,0.45 -0.862,0.45 -0.425,0 -0.525,-0.1 -0.3,-0.3 0.174,-0.2 0.399,-0.338 0.675,-0.412 z"
   id="path122"
   inkscape:connector-curvature="0" />
		<path
   style="clip-rule:evenodd;fill:#ffffff;fill-rule:evenodd"
   d="m 37.399,18.025 c 0.626,0.024 0.763,0.125 0.413,0.3 -0.35,0.15 -0.688,0.212 -1.013,0.188 C 36.525,18.489 36.486,18.401 36.687,18.25 36.862,18.075 37.1,18 37.399,18.025 Z"
   id="path124"
   inkscape:connector-curvature="0" />
		<path
   style="clip-rule:evenodd;fill:#ffffff;fill-rule:evenodd"
   d="m 16.362,18.737 c 0.5,0.101 0.613,0.175 0.338,0.226 -0.275,0.05 -0.601,0.037 -0.976,-0.038 -0.25,-0.05 -0.675,0.013 -1.274,0.188 -0.425,0.101 -0.588,0.113 -0.488,0.038 0.201,-0.175 0.563,-0.3 1.088,-0.375 0.525,-0.1 0.962,-0.113 1.312,-0.039 z"
   id="path126"
   inkscape:connector-curvature="0" />
		<path
   style="clip-rule:evenodd;fill:#ffffff;fill-rule:evenodd"
   d="m 10.024,16.9 c 0.351,-0.075 0.576,-0.088 0.676,-0.038 0.1,0.051 0,0.126 -0.301,0.226 -0.2,0.075 -0.462,0.3 -0.787,0.675 -0.275,0.3 -0.462,0.399 -0.563,0.3 -0.125,-0.125 -0.037,-0.337 0.263,-0.638 0.275,-0.3 0.513,-0.475 0.712,-0.525 z"
   id="path128"
   inkscape:connector-curvature="0" />
		<path
   style="clip-rule:evenodd;fill:#ffffff;fill-rule:evenodd"
   d="m 23.075,21.213 c 0.2,0.1 0.425,0.275 0.675,0.524 0.225,0.275 0.362,0.525 0.412,0.75 0.075,0.375 -0.162,0.2 -0.712,-0.524 -0.15,-0.226 -0.45,-0.4 -0.9,-0.525 -0.476,-0.149 -0.737,-0.25 -0.787,-0.3 -0.125,-0.125 -0.038,-0.188 0.262,-0.188 0.325,0.025 0.675,0.113 1.05,0.263 z"
   id="path130"
   inkscape:connector-curvature="0" />
		<path
   style="clip-rule:evenodd;fill:#ffffff;fill-rule:evenodd"
   d="m 25.888,21.513 c 0.449,0.024 0.6,0.112 0.449,0.263 -0.149,0.125 -0.362,0.137 -0.637,0.037 -0.226,-0.1 -0.301,-0.175 -0.226,-0.225 0.051,-0.075 0.188,-0.1 0.414,-0.075 z"
   id="path132"
   inkscape:connector-curvature="0" />
		<path
   style="clip-rule:evenodd;fill:#ffffff;fill-rule:evenodd"
   d="m 20.562,22.45 c 0.401,-0.25 0.337,-0.05 -0.188,0.6 -0.525,0.625 -0.85,0.888 -0.975,0.788 -0.125,-0.1 -0.012,-0.325 0.338,-0.675 0.275,-0.301 0.55,-0.538 0.825,-0.713 z"
   id="path134"
   inkscape:connector-curvature="0" />
		<path
   style="clip-rule:evenodd;fill:#ffffff;fill-rule:evenodd"
   d="m 30.837,18.288 c 0.325,-0.15 0.313,-0.063 -0.037,0.262 -0.525,0.476 -0.888,0.801 -1.088,0.976 -0.249,0.25 -0.437,0.563 -0.563,0.938 -0.149,0.475 -0.237,0.725 -0.262,0.75 -0.15,0.3 -0.188,0.063 -0.113,-0.713 0.025,-0.35 0.325,-0.787 0.9,-1.313 0.476,-0.475 0.863,-0.775 1.163,-0.9 z"
   id="path136"
   inkscape:connector-curvature="0" />
		<path
   style="clip-rule:evenodd;fill:#ffffff;fill-rule:evenodd"
   d="m 34.625,21.438 c 0.025,0.1 -0.112,0.088 -0.413,-0.037 -0.399,-0.175 -0.712,-0.275 -0.938,-0.3 -1.225,-0.075 -1.975,-0.213 -2.25,-0.413 -0.1,-0.075 -0.05,-0.1 0.15,-0.075 0.375,0.075 0.688,0.101 0.938,0.075 0.525,-0.024 1.075,0.063 1.65,0.263 0.551,0.174 0.838,0.337 0.863,0.487 z"
   id="path138"
   inkscape:connector-curvature="0" />
		<path
   style="clip-rule:evenodd;fill:#ffffff;fill-rule:evenodd"
   d="m 33.688,23.388 c -0.275,0 -0.35,-0.088 -0.226,-0.263 0.126,-0.2 0.325,-0.3 0.601,-0.3 0.875,0.024 1.125,0.125 0.75,0.3 -0.35,0.175 -0.725,0.263 -1.125,0.263 z"
   id="path140"
   inkscape:connector-curvature="0" />
		<path
   style="clip-rule:evenodd;fill:#efdfa1;fill-rule:evenodd"
   d="m 12.388,18.925 c 0.524,0.025 0.563,0.138 0.112,0.338 -0.425,0.225 -0.725,0.237 -0.9,0.037 -0.3,-0.3 -0.037,-0.425 0.788,-0.375 z"
   id="path142"
   inkscape:connector-curvature="0" />
		<path
   style="clip-rule:evenodd;fill:#efdfa1;fill-rule:evenodd"
   d="m 8.862,20.612 c 0.4,0 0.737,0.075 1.013,0.226 0.25,0.149 0.337,0.275 0.263,0.375 -0.05,0.1 -0.325,0.175 -0.825,0.225 -0.5,0.051 -0.875,0.038 -1.125,-0.037 -0.275,-0.051 -0.325,-0.2 -0.15,-0.45 0.15,-0.225 0.424,-0.339 0.824,-0.339 z"
   id="path144"
   inkscape:connector-curvature="0" />
		<path
   style="clip-rule:evenodd;fill:#efdfa1;fill-rule:evenodd"
   d="m 15.388,20.013 c 0.475,-0.024 0.662,0.075 0.563,0.3 -0.125,0.175 -0.363,0.3 -0.713,0.375 -0.375,0.15 -0.65,0.25 -0.825,0.3 -0.275,0.101 -0.538,0.113 -0.787,0.038 -0.275,-0.1 -0.163,-0.287 0.337,-0.563 0.499,-0.275 0.975,-0.426 1.425,-0.45 z"
   id="path146"
   inkscape:connector-curvature="0" />
		<path
   style="clip-rule:evenodd;fill:#ffffff;fill-rule:evenodd"
   d="m 17.862,20.65 c 0.375,0.45 0.425,0.638 0.15,0.563 -0.301,-0.075 -0.538,-0.238 -0.713,-0.487 -0.15,-0.2 -0.163,-0.338 -0.037,-0.413 0.15,-0.076 0.35,0.038 0.6,0.337 z"
   id="path148"
   inkscape:connector-curvature="0" />
		<path
   style="clip-rule:evenodd;fill:#ffffff;fill-rule:evenodd"
   d="m 15.35,22.263 c 0.8,0.2 1.225,0.351 1.275,0.45 0.05,0.05 -0.138,0.088 -0.563,0.112 -0.35,0.05 -0.75,-0.024 -1.2,-0.225 -0.45,-0.175 -0.737,-0.362 -0.862,-0.563 -0.075,-0.175 0.012,-0.213 0.263,-0.113 0.675,0.226 1.037,0.339 1.087,0.339 z"
   id="path150"
   inkscape:connector-curvature="0" />
		<path
   style="clip-rule:evenodd;fill:#ffffff;fill-rule:evenodd"
   d="m 19.212,20.575 c 0.275,0 0.363,0.125 0.263,0.375 -0.125,0.225 -0.313,0.287 -0.563,0.188 -0.25,-0.1 -0.325,-0.225 -0.225,-0.375 0.1,-0.125 0.275,-0.188 0.525,-0.188 z"
   id="path152"
   inkscape:connector-curvature="0" />
		<path
   style="clip-rule:evenodd;fill:#ffffff;fill-rule:evenodd"
   d="m 21.687,15.925 c 0.675,0.101 0.988,0.226 0.938,0.375 -0.025,0.15 -0.2,0.226 -0.525,0.226 -0.275,0 -0.6,-0.038 -0.975,-0.112 -0.425,-0.075 -0.674,-0.163 -0.75,-0.263 -0.125,-0.125 -0.05,-0.212 0.226,-0.263 0.298,-0.051 0.661,-0.037 1.086,0.037 z"
   id="path154"
   inkscape:connector-curvature="0" />
		<path
   style="clip-rule:evenodd;fill:#efdfa1;fill-rule:evenodd"
   d="m 25.287,17.163 c 1.4,0 1.8,0.074 1.2,0.225 -0.774,0.2 -1.288,0.287 -1.537,0.263 -0.275,-0.025 -0.362,-0.112 -0.263,-0.263 0.126,-0.151 0.325,-0.225 0.6,-0.225 z"
   id="path156"
   inkscape:connector-curvature="0" />
		<path
   style="clip-rule:evenodd;fill:#ffffff;fill-rule:evenodd"
   d="m 26.037,18.775 c 0.5,-0.2 0.625,-0.188 0.375,0.037 -0.25,0.2 -0.574,0.4 -0.975,0.601 -0.325,0.149 -0.838,0.249 -1.538,0.3 -0.624,0.05 -1.087,0.05 -1.387,0 -0.226,-0.025 -0.088,-0.112 0.412,-0.263 0.5,-0.125 0.95,-0.188 1.35,-0.188 0.351,0 0.663,-0.05 0.938,-0.15 0.15,-0.049 0.425,-0.162 0.825,-0.337 z"
   id="path158"
   inkscape:connector-curvature="0" />
		<path
   style="clip-rule:evenodd;fill:#efdfa1;fill-rule:evenodd"
   d="m 26.45,24.588 c 0.124,0 0.249,0.1 0.375,0.3 0.1,0.2 0.037,0.338 -0.188,0.412 -0.251,0.05 -0.513,0.025 -0.788,-0.074 -0.275,-0.126 -0.45,-0.301 -0.524,-0.525 -0.075,-0.15 -0.025,-0.225 0.149,-0.225 0.551,0.074 0.876,0.112 0.976,0.112 z"
   id="path160"
   inkscape:connector-curvature="0" />
		<path
   style="clip-rule:evenodd;fill:#efdfa1;fill-rule:evenodd"
   d="m 23.149,24.362 c 0.425,-0.249 0.388,0.075 -0.112,0.976 -0.1,0.175 -0.324,0.275 -0.675,0.3 -0.325,0.024 -0.575,-0.05 -0.75,-0.225 -0.125,-0.126 0,-0.288 0.375,-0.488 0.25,-0.1 0.638,-0.287 1.162,-0.563 z"
   id="path162"
   inkscape:connector-curvature="0" />
		<path
   style="clip-rule:evenodd;fill:#ffffff;fill-rule:evenodd"
   d="m 12.875,23.763 c 0.425,0.25 0.412,0.351 -0.038,0.3 -0.449,-0.05 -0.75,-0.175 -0.899,-0.375 -0.15,-0.175 -0.125,-0.263 0.075,-0.263 0.199,0.025 0.487,0.138 0.862,0.338 z"
   id="path164"
   inkscape:connector-curvature="0" />
		<path
   style="clip-rule:evenodd;fill:#ffffff;fill-rule:evenodd"
   d="m 14.899,23.463 c 0.351,-0.075 0.338,0.063 -0.037,0.412 -0.35,0.325 -0.663,0.55 -0.938,0.675 -0.225,0.075 -0.188,-0.074 0.112,-0.449 0.3,-0.375 0.589,-0.588 0.863,-0.638 z"
   id="path166"
   inkscape:connector-curvature="0" />
		<path
   style="clip-rule:evenodd;fill:#ffffff;fill-rule:evenodd"
   d="m 31.587,17.351 c 1.101,0.324 1.751,0.812 1.95,1.462 -0.199,-0.225 -0.688,-0.5 -1.462,-0.825 -0.825,-0.324 -1.251,-0.5 -1.275,-0.524 -0.125,-0.075 -0.087,-0.125 0.112,-0.15 0.2,-0.051 0.426,-0.039 0.675,0.037 z"
   id="path168"
   inkscape:connector-curvature="0" />
		<path
   style="clip-rule:evenodd;fill:#efdfa1;fill-rule:evenodd"
   d="m 27.763,19.487 c 0.7,0.175 0.837,0.338 0.412,0.488 -0.399,0.175 -0.825,0.225 -1.275,0.149 -0.35,-0.075 -0.375,-0.212 -0.074,-0.412 0.324,-0.225 0.636,-0.299 0.937,-0.225 z"
   id="path170"
   inkscape:connector-curvature="0" />
		<path
   style="clip-rule:evenodd;fill:#ffffff;fill-rule:evenodd"
   d="m 19.024,18.4 c 0.325,-0.051 0.463,0.063 0.413,0.337 -0.025,0.275 -0.163,0.388 -0.413,0.338 -0.225,-0.024 -0.337,-0.138 -0.337,-0.338 10e-4,-0.174 0.113,-0.287 0.337,-0.337 z"
   id="path172"
   inkscape:connector-curvature="0" />
		<path
   style="clip-rule:evenodd;fill:#ffffff;fill-rule:evenodd"
   d="m 17.45,15.513 c 0.225,-0.075 0.262,-0.013 0.112,0.188 -0.15,0.175 -0.363,0.338 -0.638,0.487 -0.675,0.4 -1.2,0.563 -1.575,0.487 -0.2,-0.024 -0.175,-0.1 0.075,-0.225 0.225,-0.1 0.462,-0.163 0.713,-0.188 0.149,0 0.337,-0.1 0.563,-0.3 0.25,-0.225 0.5,-0.374 0.75,-0.449 z"
   id="path174"
   inkscape:connector-curvature="0" />
		<path
   style="clip-rule:evenodd;fill:#ffffff;fill-rule:evenodd"
   d="m 37.737,19.9 h 1.088 c 0.05,0.125 0.074,0.313 0.074,0.563 0,1.824 -1.712,3.375 -5.137,4.649 -3.425,1.275 -7.563,1.913 -12.413,1.913 -4.851,0 -8.988,-0.638 -12.413,-1.913 C 5.512,23.838 3.8,22.287 3.8,20.463 L 3.875,19.9 h 1.274 v 0.3 c 0,1.625 1.588,3 4.763,4.125 3.175,1.149 7.013,1.725 11.513,1.725 4.524,0 8.375,-0.575 11.55,-1.725 3.176,-1.125 4.763,-2.5 4.763,-4.125 v -0.3 z"
   id="path176"
   inkscape:connector-curvature="0" />
	</g>
	<g
   id="g240">
		<path
   style="clip-rule:evenodd;fill:#b54624;fill-rule:evenodd"
   d="m 13.111,15.313 c -0.253,0.093 -0.451,0.25 -0.594,0.471 l 1.188,-0.143 C 13.48,15.5 13.282,15.39 13.111,15.313 Z m 1.387,1.5 c 0.026,0.019 0.555,0.248 1.584,0.686 0.845,0.362 1.228,0.629 1.149,0.801 -0.106,0.189 -0.674,0.333 -1.704,0.428 -0.951,0.038 -1.611,0.096 -1.98,0.172 -0.634,0.133 -1.109,0.523 -1.426,1.171 -0.053,0.114 -0.065,0.457 -0.04,1.028 0.026,0.438 -0.119,0.763 -0.436,0.972 -0.74,0.477 -1.109,0.286 -1.109,-0.571 0,-0.171 0.211,-0.6 0.634,-1.285 C 11.381,19.891 11.104,19.52 10.338,19.1 9.44,18.795 8.806,18.538 8.437,18.329 7.75,17.929 7.988,17.548 9.15,17.185 c 0.264,-0.076 0.924,0.029 1.98,0.314 0.898,0.248 1.479,0.2 1.743,-0.143 -0.237,-0.629 -0.409,-1.152 -0.515,-1.572 -0.146,-0.619 0.104,-0.775 0.752,-0.471 0.075,-0.03 0.154,-0.054 0.238,-0.072 0.37,-0.076 0.74,-0.038 1.109,0.115 -0.264,0.706 -0.249,1.191 0.041,1.457 z"
   id="path180"
   inkscape:connector-curvature="0" />
		<path
   style="clip-rule:evenodd;fill:#b54624;fill-rule:evenodd"
   d="m 25.787,14.928 -0.911,-0.4 c 0.544,0.262 0.346,0.814 -0.594,1.657 -0.924,0.819 -0.819,1.391 0.317,1.715 -0.396,0.59 -1.176,0.733 -2.338,0.429 -1.743,-0.477 -2.68,-0.715 -2.813,-0.715 -0.211,-0.647 0.066,-1.066 0.832,-1.257 0.422,-0.114 1.123,-0.22 2.1,-0.314 -0.317,-0.857 0.053,-1.486 1.108,-1.885 1.085,-0.421 1.851,-0.164 2.299,0.77 z"
   id="path182"
   inkscape:connector-curvature="0" />
		<path
   style="clip-rule:evenodd;fill:#b54624;fill-rule:evenodd"
   d="m 27.967,16.757 c -0.133,-0.629 0.237,-0.962 1.109,-1 0.658,-0.018 1.293,0.111 1.9,0.385 0.515,-0.147 0.977,-0.295 1.387,-0.443 0.265,-0.038 0.621,0.163 1.07,0.601 0.493,0.86 0.717,1.228 0.673,1.1 0.058,0.144 0.229,0.264 0.516,0.357 0.157,0.057 0.157,0.237 0,0.543 -0.317,0.646 -0.779,0.799 -1.387,0.457 C 32.6,18.204 32.165,17.861 31.927,17.728 31.399,17.423 30.779,17.176 30.066,16.985 29.3,16.794 28.6,16.719 27.967,16.757 Z"
   id="path184"
   inkscape:connector-curvature="0" />
		<path
   style="clip-rule:evenodd;fill:#b54624;fill-rule:evenodd"
   d="m 21.826,21.07 c -1.136,-0.076 -1.809,-0.171 -2.02,-0.285 -0.529,-0.324 -0.357,-0.638 0.514,-0.943 0.74,-0.247 1.44,-0.361 2.1,-0.343 0.317,0 0.925,0.114 1.822,0.343 0.581,0.134 1.097,0.067 1.545,-0.2 0.476,-0.571 0.819,-0.942 1.03,-1.114 0.29,-0.243 0.858,-0.191 1.704,0.157 l -0.753,-0.328 c 1.109,0.248 1.519,0.581 1.228,1 -0.501,0.762 -0.726,1.238 -0.673,1.429 0.053,0.191 0.515,0.485 1.387,0.886 0.712,0.323 0.897,0.724 0.555,1.2 -0.265,0.418 -0.767,0.484 -1.506,0.198 -0.845,-0.419 -1.439,-0.657 -1.783,-0.714 -1.029,0 -1.77,-0.02 -2.218,-0.057 -0.792,-0.077 -0.99,-0.438 -0.595,-1.086 -0.132,-0.019 -0.911,-0.066 -2.337,-0.143 z"
   id="path186"
   inkscape:connector-curvature="0" />
		<path
   style="clip-rule:evenodd;fill:#b54624;fill-rule:evenodd"
   d="m 34.384,20.171 c 0.124,0.211 0.15,0.453 0.079,0.729 -0.687,0.038 -1.386,-0.01 -2.1,-0.143 -0.978,-0.21 -1.399,-0.534 -1.268,-0.972 0.132,-0.438 0.647,-0.524 1.546,-0.258 0.451,0.145 1.032,0.36 1.743,0.644 z m -0.871,-0.529 c 0.369,0.077 0.646,0.229 0.831,0.457 l 0.021,0.029 z"
   id="path188"
   inkscape:connector-curvature="0" />
		<path
   style="clip-rule:evenodd;fill:#b54624;fill-rule:evenodd"
   d="m 29.927,24.442 c 0.054,0.08 0.113,0.175 0.179,0.285 -0.502,0.42 -1.438,0.705 -2.813,0.857 -1.268,0.134 -2.284,0.114 -3.051,-0.058 0.186,-0.095 0.661,-0.457 1.426,-1.085 0.556,-0.458 1.058,-0.724 1.506,-0.801 0.634,-0.114 1.241,-0.019 1.822,0.286 0.233,0.131 0.542,0.302 0.931,0.516 z"
   id="path190"
   inkscape:connector-curvature="0" />
		<path
   style="clip-rule:evenodd;fill:#b54624;fill-rule:evenodd"
   d="m 14.339,22.728 c 0.766,0.152 1.4,0.104 1.902,-0.143 0.053,-0.02 0.449,-0.438 1.188,-1.257 0.422,-0.477 0.977,-0.534 1.664,-0.172 0.476,0.286 0.476,0.609 0,0.972 -0.29,0.19 -0.779,0.505 -1.465,0.942 0.37,0.629 0.633,0.991 0.792,1.086 0.211,0.114 0.753,0.181 1.624,0.2 1.347,0.038 2.073,0.066 2.179,0.086 0.766,0.133 1.096,0.533 0.99,1.199 -3.248,0.038 -5.691,0.038 -7.329,0 -1.03,-0.037 -2.047,-0.219 -3.05,-0.543 -1.417,-0.457 -2.308,-0.742 -2.674,-0.856 0.625,0.168 1.107,0.024 1.445,-0.429 0.528,-0.686 0.898,-1.066 1.109,-1.143 0.291,-0.114 0.833,-0.095 1.625,0.058 z"
   id="path192"
   inkscape:connector-curvature="0" />
		<path
   style="clip-rule:evenodd;fill:#782e18;fill-rule:evenodd"
   d="m 17.865,22.928 h -0.198 c 0.264,-0.571 0.779,-0.81 1.545,-0.714 0.211,0.666 -0.04,1.152 -0.753,1.457 0.079,0.037 0.198,0.152 0.356,0.343 0.185,0.171 0.33,0.286 0.436,0.343 -0.423,0.305 -0.964,0.199 -1.624,-0.314 -0.661,-0.516 -0.581,-0.887 0.238,-1.115 z"
   id="path194"
   inkscape:connector-curvature="0" />
		<path
   style="clip-rule:evenodd;fill:#782e18;fill-rule:evenodd"
   d="m 13.903,23.785 -0.198,0.143 c 0.159,0.019 0.488,0.152 0.991,0.4 -0.422,0.419 -0.779,0.504 -1.069,0.257 -0.292,-0.248 -0.199,-0.515 0.276,-0.8 z"
   id="path196"
   inkscape:connector-curvature="0" />
		<path
   style="clip-rule:evenodd;fill:#782e18;fill-rule:evenodd"
   d="m 23.45,20.214 c 0.555,0.114 1.334,0.257 2.337,0.428 h -0.039 c 0.079,0.324 0.501,0.733 1.268,1.229 0.687,0.419 1.308,0.714 1.862,0.886 -0.502,0.209 -1.109,0.199 -1.823,-0.029 -0.897,-0.267 -1.518,-0.391 -1.861,-0.371 0.106,0.724 -0.065,1.01 -0.516,0.857 -0.448,-0.134 -0.792,-0.438 -1.029,-0.914 -0.186,-0.629 -0.33,-1.02 -0.436,-1.172 -0.133,-0.19 -0.66,-0.362 -1.585,-0.515 0.185,-0.437 0.792,-0.571 1.822,-0.399 z"
   id="path198"
   inkscape:connector-curvature="0" />
		<path
   style="clip-rule:evenodd;fill:#782e18;fill-rule:evenodd"
   d="M 28.362,19.928 27.57,19.785 c 1.215,0.038 1.506,0.285 0.871,0.742 -0.185,0.152 -0.355,0.191 -0.515,0.114 -0.211,-0.095 -0.265,-0.333 -0.158,-0.714 0.132,-0.018 0.331,-0.018 0.594,0.001 z"
   id="path200"
   inkscape:connector-curvature="0" />
		<path
   style="clip-rule:evenodd;fill:#782e18;fill-rule:evenodd"
   d="m 29.63,16.984 c -0.396,-0.133 -0.687,-0.305 -0.871,-0.514 0.448,-0.152 1.029,-0.181 1.743,-0.086 0.27,0.036 0.612,0.084 1.029,0.143 0.012,0.066 0.052,0.181 0.119,0.344 0.079,0.19 0.105,0.343 0.079,0.457 0.793,0.171 1.36,0.552 1.704,1.143 0.316,0.609 -0.066,0.705 -1.149,0.286 -0.291,-0.096 -0.567,-0.305 -0.831,-0.629 -0.317,-0.381 -0.568,-0.629 -0.753,-0.743 -0.185,-0.114 -0.542,-0.248 -1.07,-0.401 z"
   id="path202"
   inkscape:connector-curvature="0" />
		<path
   style="clip-rule:evenodd;fill:#782e18;fill-rule:evenodd"
   d="m 18.696,17.142 c 0.182,-0.066 0.434,-0.09 0.753,-0.071 l -0.297,0.043 c 0.053,0.016 0.1,0.039 0.138,0.071 0.159,0.134 0.132,0.371 -0.079,0.715 -0.713,-0.02 -1.003,-0.172 -0.872,-0.457 0.039,-0.104 0.111,-0.185 0.218,-0.243 l -0.099,0.015 c 0.084,-0.033 0.163,-0.058 0.238,-0.073 z"
   id="path204"
   inkscape:connector-curvature="0" />
		<path
   style="clip-rule:evenodd;fill:#782e18;fill-rule:evenodd"
   d="m 16.003,17.385 c 0.475,0.21 1.333,0.533 2.575,0.972 -0.555,0.209 -1.334,0.4 -2.337,0.571 -1.083,0.209 -1.875,0.391 -2.377,0.543 -0.713,0.229 -1.281,0.819 -1.704,1.771 -0.422,0.914 -0.832,1.419 -1.228,1.515 -0.079,-1.238 0.079,-2.172 0.475,-2.801 0.502,-0.762 1.453,-1.267 2.853,-1.514 -0.688,-0.496 -1.07,-1.096 -1.149,-1.801 0.162,0 0.386,0.038 0.673,0.115 0.143,-0.371 0.249,-0.647 0.317,-0.829 0.449,0.629 1.083,1.115 1.902,1.458 z"
   id="path206"
   inkscape:connector-curvature="0" />
		<path
   style="clip-rule:evenodd;fill:#782e18;fill-rule:evenodd"
   d="m 17.528,14.942 -0.06,-0.015 c 0.713,0.057 1.069,0.305 1.069,0.743 -0.026,0.419 -0.369,0.543 -1.03,0.372 -0.634,-0.171 -0.832,-0.447 -0.594,-0.829 0.135,-0.205 0.34,-0.296 0.615,-0.271 z"
   id="path208"
   inkscape:connector-curvature="0" />
		<path
   style="clip-rule:evenodd;fill:#782e18;fill-rule:evenodd"
   d="m 32.522,21.07 -0.396,-1.128 c 0.046,0.103 0.323,0.384 0.832,0.843 0.343,0.305 0.369,0.581 0.079,0.828 -0.238,0.248 -0.7,0.286 -1.387,0.114 -0.739,-0.247 -1.241,-0.419 -1.505,-0.514 0.105,-0.553 0.462,-0.839 1.069,-0.857 0.582,-0.019 1.017,0.219 1.308,0.714 z"
   id="path210"
   inkscape:connector-curvature="0" />
		<path
   style="clip-rule:evenodd;fill:#782e18;fill-rule:evenodd"
   d="m 19.846,18.928 -0.991,-0.143 c 0.344,-0.305 0.766,-0.391 1.268,-0.258 0.502,0.134 0.647,0.391 0.436,0.772 -0.132,0.228 -0.542,0.438 -1.229,0.628 -0.475,0.134 -0.963,0.22 -1.465,0.257 -0.106,-0.419 0.053,-0.752 0.475,-1 0.423,-0.228 0.925,-0.313 1.506,-0.256 z"
   id="path212"
   inkscape:connector-curvature="0" />
		<path
   style="clip-rule:evenodd;fill:#782e18;fill-rule:evenodd"
   d="m 25.808,16.785 c 0.599,0.113 1.041,0.161 1.327,0.143 0,0.419 -0.265,0.686 -0.792,0.8 -0.529,0.114 -1.043,0.066 -1.546,-0.143 0.067,-0.481 0.403,-0.748 1.011,-0.8 z"
   id="path214"
   inkscape:connector-curvature="0" />
		<path
   style="clip-rule:evenodd;fill:#782e18;fill-rule:evenodd"
   d="m 23.015,23.214 h -0.297 c 0.33,0.033 0.653,0.119 0.97,0.257 0.555,0.248 0.779,0.581 0.674,1 -1.426,-0.076 -2.482,-0.362 -3.169,-0.857 0.185,-0.267 0.436,-0.429 0.753,-0.485 0.342,-0.077 0.699,-0.049 1.069,0.085 z"
   id="path216"
   inkscape:connector-curvature="0" />
		<path
   style="clip-rule:evenodd;fill:#782e18;fill-rule:evenodd"
   d="m 14.299,21.499 -0.396,-0.143 c 1.083,-0.134 1.465,0.076 1.149,0.628 -0.317,0.534 -0.898,0.648 -1.743,0.344 -0.106,-0.515 0.225,-0.791 0.99,-0.829 z"
   id="path218"
   inkscape:connector-curvature="0" />
		<path
   style="clip-rule:evenodd;fill:#782e18;fill-rule:evenodd"
   d="m 25.095,14.371 c -0.035,-0.006 -0.067,-0.01 -0.1,-0.014 h 0.258 c -0.052,0.003 -0.106,0.007 -0.158,0.014 0.516,0.05 1.525,0.093 3.03,0.128 0.026,0.476 -0.555,0.81 -1.743,1 -1.479,0.248 -2.403,0.515 -2.773,0.801 -0.158,-0.515 -0.052,-0.972 0.317,-1.372 0.282,-0.321 0.672,-0.507 1.169,-0.557 z"
   id="path220"
   inkscape:connector-curvature="0" />
		<path
   style="clip-rule:evenodd;fill:#90a701;fill-rule:evenodd"
   d="m 14.498,15.213 -0.159,0.057 c -0.079,0.039 -0.092,0.105 -0.04,0.2 0.502,0.038 1.215,0 2.14,-0.114 0.159,0.571 0.013,1.133 -0.436,1.686 -0.872,-0.248 -1.453,-0.438 -1.743,-0.571 -0.476,-0.21 -0.529,-0.629 -0.159,-1.257 h 0.397 z"
   id="path222"
   inkscape:connector-curvature="0" />
		<path
   style="clip-rule:evenodd;fill:#90a701;fill-rule:evenodd"
   d="m 20.242,13.642 -0.396,0.286 c 0.475,0.019 0.818,0.19 1.03,0.515 0.158,0.286 0.198,0.628 0.119,1.028 -0.978,0.095 -1.585,-0.124 -1.822,-0.657 -0.265,-0.534 0.092,-0.924 1.069,-1.172 z"
   id="path224"
   inkscape:connector-curvature="0" />
		<path
   style="clip-rule:evenodd;fill:#90a701;fill-rule:evenodd"
   d="m 27.432,15.342 c 0.333,-0.16 0.695,-0.203 1.09,-0.128 0.026,0.648 -0.198,1.047 -0.674,1.2 -0.369,0.134 -0.766,0.086 -1.188,-0.143 -0.422,-0.229 -0.555,-0.448 -0.396,-0.657 0.174,-0.17 0.564,-0.26 1.168,-0.272 z"
   id="path226"
   inkscape:connector-curvature="0" />
		<path
   style="clip-rule:evenodd;fill:#90a701;fill-rule:evenodd"
   d="m 29.551,18.214 c -0.215,0.077 -0.413,0.225 -0.594,0.442 -0.119,-0.056 -0.251,-0.108 -0.396,-0.157 z m -0.594,0.442 c 0.576,0.263 0.854,0.591 0.831,0.985 -0.026,0.477 -0.501,0.457 -1.426,-0.057 0.264,-0.457 0.423,-0.714 0.476,-0.771 0.039,-0.056 0.078,-0.109 0.119,-0.157 z"
   id="path228"
   inkscape:connector-curvature="0" />
		<path
   style="clip-rule:evenodd;fill:#90a701;fill-rule:evenodd"
   d="m 27.471,21.542 c 0.063,0.019 0.122,0.043 0.179,0.071 0.263,0.127 0.422,0.346 0.476,0.657 0.105,0.591 -0.344,0.724 -1.347,0.4 -0.819,-0.286 -1.004,-0.572 -0.555,-0.857 0.22,-0.149 0.471,-0.239 0.752,-0.271 0.156,-0.018 0.322,-0.018 0.495,0 z"
   id="path230"
   inkscape:connector-curvature="0" />
		<path
   style="clip-rule:evenodd;fill:#90a701;fill-rule:evenodd"
   d="m 19.846,23.356 -0.594,0.285 c 0.871,-0.133 1.36,0.048 1.465,0.543 0.106,0.477 -0.303,0.725 -1.228,0.743 -1.083,0 -1.452,-0.286 -1.109,-0.857 0.316,-0.571 0.806,-0.809 1.466,-0.714 z"
   id="path232"
   inkscape:connector-curvature="0" />
		<path
   style="clip-rule:evenodd;fill:#90a701;fill-rule:evenodd"
   d="m 11.349,21.228 c -0.025,0.027 -0.051,0.056 -0.08,0.086 -0.043,0.01 -0.089,0.024 -0.139,0.043 z m -0.08,0.085 c 0.675,-0.212 1.025,0.012 1.05,0.671 0.026,0.705 -0.317,1.02 -1.03,0.943 -0.661,-0.076 -0.806,-0.429 -0.436,-1.057 0.133,-0.22 0.272,-0.405 0.416,-0.557 z"
   id="path234"
   inkscape:connector-curvature="0" />
		<path
   style="clip-rule:evenodd;fill:#90a701;fill-rule:evenodd"
   d="m 8.952,18.356 c 0.528,-0.096 1.043,-0.01 1.545,0.257 0.501,0.305 0.449,0.591 -0.159,0.857 -0.581,0.248 -1.03,0.162 -1.347,-0.257 -0.316,-0.4 -0.33,-0.771 -0.04,-1.115 -0.052,0.116 -0.052,0.202 10e-4,0.258 z"
   id="path236"
   inkscape:connector-curvature="0" />
		<path
   style="clip-rule:evenodd;fill:#90a701;fill-rule:evenodd"
   d="M 33.116,16.785 H 32.72 c 0.793,-0.114 1.387,0.076 1.783,0.571 l -0.237,0.828 c -0.186,-0.057 -0.305,-0.095 -0.357,-0.114 -0.053,-0.038 -0.132,-0.133 -0.237,-0.285 -0.237,0.038 -0.555,0.028 -0.951,-0.028 -0.159,-0.401 -0.028,-0.725 0.395,-0.972 z"
   id="path238"
   inkscape:connector-curvature="0" />
	</g>
</g>
</svg>