<?xml version="1.0" encoding="UTF-8" standalone="no"?>
<!-- Generator: Adobe Illustrator 15.1.0, SVG Export Plug-In . SVG Version: 6.00 Build 0)  -->

<svg
   xmlns:dc="http://purl.org/dc/elements/1.1/"
   xmlns:cc="http://creativecommons.org/ns#"
   xmlns:rdf="http://www.w3.org/1999/02/22-rdf-syntax-ns#"
   xmlns:svg="http://www.w3.org/2000/svg"
   xmlns="http://www.w3.org/2000/svg"
   xmlns:sodipodi="http://sodipodi.sourceforge.net/DTD/sodipodi-0.dtd"
   xmlns:inkscape="http://www.inkscape.org/namespaces/inkscape"
   version="1.1"
   id="flash0.ai"
   x="0px"
   y="0px"
   width="256"
   height="256"
   viewBox="0 0 256 256"
   xml:space="preserve"
   sodipodi:docname="apple_slice.svg"
   inkscape:version="0.92.4 (5da689c313, 2019-01-14)"><title
   id="title1115">Apple Slice</title><metadata
   id="metadata308"><rdf:RDF><cc:Work
       rdf:about=""><dc:format>image/svg+xml</dc:format><dc:type
         rdf:resource="http://purl.org/dc/dcmitype/StillImage" /><dc:title>Apple Slice</dc:title><cc:license
         rdf:resource="http://creativecommons.org/publicdomain/zero/1.0/" /><dc:creator><cc:Agent><dc:title>Glitch</dc:title></cc:Agent></dc:creator><dc:source>https://opengameart.org/node/20149</dc:source></cc:Work><cc:License
       rdf:about="http://creativecommons.org/publicdomain/zero/1.0/"><cc:permits
         rdf:resource="http://creativecommons.org/ns#Reproduction" /><cc:permits
         rdf:resource="http://creativecommons.org/ns#Distribution" /><cc:permits
         rdf:resource="http://creativecommons.org/ns#DerivativeWorks" /></cc:License></rdf:RDF></metadata><defs
   id="defs306" /><sodipodi:namedview
   pagecolor="#ffffff"
   bordercolor="#666666"
   borderopacity="1"
   objecttolerance="10"
   gridtolerance="10"
   guidetolerance="10"
   inkscape:pageopacity="0"
   inkscape:pageshadow="2"
   inkscape:window-width="1920"
   inkscape:window-height="1025"
   id="namedview304"
   showgrid="false"
   inkscape:zoom="0.50666665"
   inkscape:cx="72.622754"
   inkscape:cy="-148.38411"
   inkscape:window-x="-8"
   inkscape:window-y="-8"
   inkscape:window-maximized="1"
   inkscape:current-layer="flash0.ai"
   fit-margin-top="0"
   fit-margin-left="0"
   fit-margin-right="0"
   fit-margin-bottom="0" />
<g
   id="g1162"
   transform="matrix(3.6965812,0,0,3.6965812,-569.98292,-291.06483)"><g
     id="g1135"><path
       inkscape:connector-curvature="0"
       id="path213"
       d="m 154.19191,102.24567 0.29595,-5.031209 c 16.76874,13.613869 25.45202,21.012719 26.04393,22.196529 0.39658,0.78724 7.59417,-0.69253 21.60463,-4.4393 7.10289,-1.97106 14.10515,-3.94803 21.01271,-5.91908 l 0.29596,0.29595 c -1.5804,4.14336 -3.7527,8.58266 -6.51099,13.31792 -5.91907,9.27519 -12.32943,14.99302 -19.23699,17.16532 -11.44157,3.94802 -21.60462,2.36763 -30.48324,-4.73526 -3.74677,-3.15487 -6.51098,-6.61161 -8.2867,-10.35838 -1.18382,-2.1723 -2.36763,-5.91908 -3.55145,-11.24624 -0.78723,-3.55145 -1.18381,-7.29822 -1.18381,-11.24625 z"
       style="clip-rule:evenodd;fill:#cc3300;fill-rule:evenodd;stroke-width:5.91907501" /><path
       inkscape:connector-curvature="0"
       id="path231"
       d="m 207.75954,124.44221 c 2.36763,-0.59191 3.06016,0.20124 2.07167,2.36763 -0.78723,1.97105 -2.46825,3.55144 -5.03121,4.73526 -3.74678,1.77572 -6.61161,1.67509 -8.58266,-0.29596 -1.18381,-1.18381 2.66358,-3.45082 11.5422,-6.80693 z"
       style="clip-rule:evenodd;fill:#db4200;fill-rule:evenodd;stroke-width:5.91907501" /></g><g
     id="g1147"><path
       inkscape:connector-curvature="0"
       id="path215"
       d="m 156.85549,84.784403 9.17457,5.919075 c 7.49947,4.143353 14.40703,7.29822 20.71676,9.470522 11.44749,3.94802 23.6763,6.90756 36.69827,8.87861 -4.93059,4.93059 -11.05092,9.3699 -18.34914,13.31792 -14.60236,7.6948 -27.42307,8.77799 -38.47398,3.25549 -8.09138,-3.94802 -12.13411,-11.93877 -12.13411,-23.97225 z"
       style="clip-rule:evenodd;fill:#f7ee99;fill-rule:evenodd;stroke-width:5.91907501" /><path
       inkscape:connector-curvature="0"
       id="path217"
       d="m 158.92717,89.815617 c -0.19533,-0.396578 0.49128,-0.591908 2.07167,-0.591908 1.18382,0 2.1723,0.100624 2.95954,0.295954 h 0.29595 c 9.07395,5.327168 16.57342,8.878613 22.49249,10.654337 9.27519,3.35019 19.63357,6.0197 31.07514,7.99075 l -1.18381,0.59191 -2.07168,1.47977 c -0.5919,0.39657 -1.37914,0.49128 -2.36763,0.29595 -0.78723,0 -1.37914,0.10062 -1.77572,0.29595 -0.59191,0.39658 -1.08319,0.69254 -1.47977,0.88786 -0.59191,0.39658 -1.37914,0.69254 -2.36763,0.88787 -1.18381,0.20124 -1.87043,0 -2.07167,-0.59191 -0.19533,-0.59191 -0.49129,-0.88786 -0.88787,-0.88786 -1.18381,-0.19533 -1.58039,0.98848 -1.18381,3.55144 0,2.36763 -1.37915,3.74678 -4.14335,4.14335 -1.5804,0.59191 -1.77573,-0.39657 -0.59191,-2.95953 0.78724,-1.77573 0.39658,-3.06016 -1.18382,-3.8474 -0.98848,-0.39658 -1.77572,0.29595 -2.36763,2.07167 -0.78723,2.36763 -1.37914,3.74678 -1.77572,4.14336 -0.78724,0.78723 -1.6751,1.28444 -2.66358,1.47977 -0.98849,0.19533 -1.6751,0.10062 -2.07168,-0.29596 0.19533,-3.16078 0,-5.03121 -0.59191,-5.62312 -0.19533,-0.19533 -0.98848,0.49128 -2.36763,2.07168 -1.37914,1.58039 -2.267,2.267 -2.66358,2.07167 -0.39658,-0.20125 -0.29595,-1.18381 0.29595,-2.95953 0.39658,-1.97106 0.49129,-2.95954 0.29596,-2.95954 -2.36763,4.93059 -3.94803,7.19759 -4.73526,6.80693 -0.39066,0 -0.59191,-1.28443 -0.59191,-3.84739 0,-2.76421 -0.20125,-4.43931 -0.59191,-5.03122 -0.39658,-0.59191 -1.58039,0.49129 -3.55144,3.25549 -2.1723,2.95954 -3.45082,4.53993 -3.8474,4.73526 -1.37915,0.39066 -2.07168,-1.37914 -2.07168,-5.32716 -0.19533,-0.78724 0.59191,-1.77573 2.36763,-2.95954 0.98849,-0.59191 2.56888,-1.47977 4.73526,-2.66359 1.77573,-1.18381 0.78724,-2.07167 -2.95953,-2.66358 -0.59191,0.19533 -1.08911,0.29595 -1.47977,0.29595 -0.59191,0 -0.88786,-0.20124 -0.88786,-0.5919 1.18381,-1.77573 1.37914,-3.15487 0.5919,-4.143356 -0.39066,-0.390659 -1.47977,0.491286 -3.25549,2.663586 -2.36763,2.76421 -4.14335,4.4393 -5.32717,5.03121 -1.77572,0.78724 -2.56887,0.10063 -2.36763,-2.07167 0.20125,-2.36763 0.69254,-3.55145 1.47977,-3.55145 0.39658,-0.19533 0.69253,-1.08319 0.88786,-2.663583 0.39066,-1.775723 0.39066,-2.858913 0,-3.255491 -0.5919,-0.396578 -0.20124,-1.580394 1.18382,-3.551446 0.59191,-0.591907 0.29595,-1.08319 -0.88786,-1.479768 -1.5804,-0.396578 -2.36763,-0.787237 -2.36763,-1.183815 z"
       style="clip-rule:evenodd;fill:#fff7b0;fill-rule:evenodd;stroke-width:5.91907501" /><path
       inkscape:connector-curvature="0"
       id="path219"
       d="m 179.64393,104.6133 c -2.1723,-2.95953 -3.55144,-4.735256 -4.14335,-5.327163 -6.51098,-4.338682 -11.93878,-8.677364 -16.27746,-13.021965 10.84967,6.706312 20.02423,11.346867 27.5237,13.909828 11.44749,3.94802 23.6763,6.90756 36.69827,8.87861 -2.56888,2.75829 -5.91908,5.5225 -10.06243,8.28671 -8.28671,5.72374 -16.37808,8.68328 -24.26821,8.87861 11.83815,-2.36763 21.30867,-7.6948 28.41156,-15.9815 -7.29822,-2.1723 -12.43006,-2.95954 -15.38959,-2.36763 l -10.95029,1.47976 c -2.95954,0.78724 -5.4278,0.59191 -7.39885,-0.5919 -1.18381,-0.59191 -2.56296,-1.97105 -4.14335,-4.14336 z"
       style="clip-rule:evenodd;fill:#ebe28f;fill-rule:evenodd;stroke-width:5.91907501" /></g><g
     id="g1142"><path
       inkscape:connector-curvature="0"
       id="path221"
       d="m 178.75607,99.878044 c 0.39066,1.183816 0.10062,2.367626 -0.88786,3.551446 -0.78724,0.78724 -1.5804,1.18381 -2.36763,1.18381 -0.78724,0 -1.18382,-0.49128 -1.18382,-1.47976 0,-0.78724 0.78724,-1.5804 2.36763,-2.36763 0.59191,-0.39658 1.28444,-0.69254 2.07168,-0.887866 z"
       style="clip-rule:evenodd;fill:#8c753b;fill-rule:evenodd;stroke-width:5.91907501" /><path
       inkscape:connector-curvature="0"
       id="path223"
       d="m 185.85896,104.31735 1.18381,3.25549 c 0,0.78724 -0.19533,1.5804 -0.5919,2.36763 -0.59191,0.78724 -1.28444,0.88786 -2.07168,0.29596 -0.78724,-0.59191 -0.78724,-1.77573 0,-3.55145 z"
       style="clip-rule:evenodd;fill:#8c753b;fill-rule:evenodd;stroke-width:5.91907501" /><path
       inkscape:connector-curvature="0"
       id="path225"
       d="m 196.51329,106.09307 2.95954,1.18382 c 0.78724,1.18381 0.69253,2.07167 -0.29595,2.66358 -0.39066,0.59191 -0.98849,0.10063 -1.77572,-1.47977 z"
       style="clip-rule:evenodd;fill:#8c753b;fill-rule:evenodd;stroke-width:5.91907501" /><path
       inkscape:connector-curvature="0"
       id="path227"
       d="m 175.79653,101.65377 c 0.98849,-0.59191 1.47977,-0.59191 1.47977,0 -0.20125,0.39066 -0.59191,0.88786 -1.18381,1.47977 -0.59191,0.39065 -0.88787,0.29595 -0.88787,-0.29596 0,-0.59191 0.19533,-0.98848 0.59191,-1.18381 z"
       style="clip-rule:evenodd;fill:#fffdeb;fill-rule:evenodd;stroke-width:5.91907501" /><path
       inkscape:connector-curvature="0"
       id="path229"
       d="m 184.9711,106.68498 c 0.39658,-0.39066 0.59191,-0.29595 0.59191,0.29595 0,0.78724 -0.19533,1.37915 -0.59191,1.77573 -0.39658,0.39658 -0.59191,0.19533 -0.59191,-0.59191 0,-0.59191 0.19533,-1.08319 0.59191,-1.47977 z"
       style="clip-rule:evenodd;fill:#fffdeb;fill-rule:evenodd;stroke-width:5.91907501" /></g></g>
</svg>