<?xml version="1.0" encoding="UTF-8" standalone="no"?>
<!-- Generator: Adobe Illustrator 15.1.0, SVG Export Plug-In . SVG Version: 6.00 Build 0)  -->

<svg
   xmlns:dc="http://purl.org/dc/elements/1.1/"
   xmlns:cc="http://creativecommons.org/ns#"
   xmlns:rdf="http://www.w3.org/1999/02/22-rdf-syntax-ns#"
   xmlns:svg="http://www.w3.org/2000/svg"
   xmlns="http://www.w3.org/2000/svg"
   xmlns:xlink="http://www.w3.org/1999/xlink"
   xmlns:sodipodi="http://sodipodi.sourceforge.net/DTD/sodipodi-0.dtd"
   xmlns:inkscape="http://www.inkscape.org/namespaces/inkscape"
   version="1.1"
   id="flash0.ai"
   x="0px"
   y="0px"
   width="256"
   height="256"
   viewBox="0 0 256 256"
   xml:space="preserve"
   sodipodi:docname="cherry.svg"
   inkscape:version="0.92.4 (5da689c313, 2019-01-14)"
   inkscape:export-xdpi="10.5"
   inkscape:export-ydpi="10.5"><title
   id="title892">Cherry</title><metadata
   id="metadata82"><rdf:RDF><cc:Work
       rdf:about=""><dc:format>image/svg+xml</dc:format><dc:type
         rdf:resource="http://purl.org/dc/dcmitype/StillImage" /><dc:title>Cherry</dc:title><cc:license
         rdf:resource="http://creativecommons.org/publicdomain/zero/1.0/" /><dc:creator><cc:Agent><dc:title>Glitch</dc:title></cc:Agent></dc:creator><dc:source>https://opengameart.org/node/20149</dc:source></cc:Work><cc:License
       rdf:about="http://creativecommons.org/publicdomain/zero/1.0/"><cc:permits
         rdf:resource="http://creativecommons.org/ns#Reproduction" /><cc:permits
         rdf:resource="http://creativecommons.org/ns#Distribution" /><cc:permits
         rdf:resource="http://creativecommons.org/ns#DerivativeWorks" /></cc:License></rdf:RDF></metadata><defs
   id="defs80"><radialGradient
     inkscape:collect="always"
     xlink:href="#SVGID_1_"
     id="radialGradient926"
     gradientUnits="userSpaceOnUse"
     gradientTransform="matrix(1,0,-0.1204,-1.0926,897.5596,-4.9185)"
     cx="-895.99219"
     cy="-2.3501"
     r="1.35" /><radialGradient
     inkscape:collect="always"
     xlink:href="#SVGID_2_"
     id="radialGradient928"
     gradientUnits="userSpaceOnUse"
     gradientTransform="matrix(0.9999,0.012,-0.1354,-1.0876,1041.2437,106.3594)"
     cx="-1024.623"
     cy="91.500999"
     r="3.1377001" /></defs><sodipodi:namedview
   pagecolor="#ffffff"
   bordercolor="#666666"
   borderopacity="1"
   objecttolerance="10"
   gridtolerance="10"
   guidetolerance="10"
   inkscape:pageopacity="0"
   inkscape:pageshadow="2"
   inkscape:window-width="1920"
   inkscape:window-height="1025"
   id="namedview78"
   showgrid="false"
   inkscape:zoom="0.74307303"
   inkscape:cx="3.7606777"
   inkscape:cy="6.0380933"
   inkscape:window-x="-8"
   inkscape:window-y="-8"
   inkscape:window-maximized="1"
   inkscape:current-layer="flash0.ai"
   fit-margin-top="0"
   fit-margin-left="0"
   fit-margin-right="0"
   fit-margin-bottom="0" />
<symbol
   id="flash0.ai_x5F_16_x2F_Layer_8_copy_x2F__x3C_Path_x3E__x5F_6"
   viewBox="-0.004 -4.754 4.358 4.757"
   transform="translate(30.094338,59.214166)">
	<g
   id="Layer_1_3_">
		
			<radialGradient
   id="SVGID_1_"
   cx="-895.99219"
   cy="-2.3501"
   r="1.35"
   gradientTransform="matrix(1,0,-0.1204,-1.0926,897.5596,-4.9185)"
   gradientUnits="userSpaceOnUse">
			<stop
   offset="0"
   style="stop-color:#FFFFFF"
   id="stop2" />
			<stop
   offset="1"
   style="stop-color:#FFFFFF;stop-opacity:0"
   id="stop4" />
		</radialGradient>
		<path
   style="clip-rule:evenodd;fill:url(#radialGradient926);fill-rule:evenodd"
   d="M 3.8,-0.8 C 4.2,-1.267 4.383,-1.834 4.35,-2.5 4.317,-3.133 4.067,-3.683 3.6,-4.15 3.133,-4.584 2.617,-4.783 2.05,-4.75 c -0.6,0.033 -1.1,0.3 -1.5,0.8 -0.4,0.5 -0.583,1.083 -0.55,1.75 0.033,0.633 0.283,1.167 0.75,1.6 C 1.183,-0.167 1.7,0.033 2.3,0 2.9,-0.033 3.4,-0.3 3.8,-0.8 Z"
   id="path7"
   inkscape:connector-curvature="0" />
	</g>
</symbol>
<symbol
   id="flash0.ai_x5F_16_x2F_Layer_8_copy_x2F__x3C_Path_x3E__x5F_7"
   viewBox="-0.015 -10.956 10.03 10.962"
   transform="translate(30.094338,59.214166)">
	<g
   id="Layer_1_2_">
		
			<radialGradient
   id="SVGID_2_"
   cx="-1024.623"
   cy="91.500999"
   r="3.1377001"
   gradientTransform="matrix(0.9999,0.012,-0.1354,-1.0876,1041.2437,106.3594)"
   gradientUnits="userSpaceOnUse">
			<stop
   offset="0"
   style="stop-color:#FFFFFF"
   id="stop11" />
			<stop
   offset="1"
   style="stop-color:#FFFFFF;stop-opacity:0"
   id="stop13" />
		</radialGradient>
		<path
   style="clip-rule:evenodd;fill:url(#radialGradient928);fill-rule:evenodd"
   d="M 8.8,-1.75 C 9.7,-2.883 10.1,-4.2 10,-5.7 9.9,-7.2 9.317,-8.467 8.25,-9.5 7.217,-10.533 6,-11.017 4.6,-10.95 3.233,-10.883 2.1,-10.3 1.2,-9.2 0.3,-8.067 -0.1,-6.75 0,-5.25 c 0.133,1.5 0.717,2.767 1.75,3.8 C 2.783,-0.417 4,0.067 5.4,0 6.767,-0.067 7.9,-0.65 8.8,-1.75 Z"
   id="path16"
   inkscape:connector-curvature="0" />
	</g>
</symbol>

<g
   id="g75"
   transform="matrix(7.2533339,0,0,7.2533339,-16.946344,-17.080709)">
	<g
   id="g50">
		<polygon
   style="clip-rule:evenodd;fill:#8ca101;fill-rule:evenodd"
   points="28.153,16.777 26.23,15.248 24.612,13.499 23.738,12.144 23.082,10.7 22.514,8.689 22.339,6.722 22.383,5.717 22.645,4.23 23.125,2.744 23.476,4.973 23.869,6.154 24.569,7.247 25.399,8.208 31.214,13.018 32.176,14.242 32.919,15.554 33.399,16.909 33.574,17.608 33.706,19.007 33.706,19.619 33.574,20.8 33.269,21.893 32.612,23.16 32.001,23.948 31.913,23.991 31.869,24.079 31.52,24.385 31.607,24.079 31.695,23.511 31.65,23.205 31.607,22.461 31.433,21.718 30.82,20.1 30.602,19.707 29.552,18.22 "
   id="polygon24" />
		<polygon
   style="clip-rule:evenodd;fill:#616e01;fill-rule:evenodd"
   points="32.045,16.297 31.258,15.248 30.121,14.111 26.404,11.094 24.743,9.389 23.694,7.64 23.125,5.891 22.907,4.667 22.995,3.574 23.169,3.137 23.257,4.055 23.65,5.717 24.481,7.203 25.006,7.858 25.662,8.471 31.214,13.018 32.176,14.242 32.919,15.554 33.399,16.909 33.574,17.608 33.706,18.92 33.618,20.625 33.356,21.674 32.919,22.723 32.132,23.816 32.045,23.816 32.045,23.904 31.607,24.385 32.569,22.811 33.007,21.762 33.225,20.669 33.269,20.144 33.094,18.657 32.788,17.827 32.744,17.739 32.656,17.608 "
   id="polygon26" />
		<polygon
   style="clip-rule:evenodd;fill:#6c7d02;fill-rule:evenodd"
   points="26.623,11.225 26.754,11.269 30.689,14.548 31.695,15.728 32.351,16.777 32.831,17.871 33.138,19.051 33.269,20.057 32.831,18.177 31.695,15.947 30.558,14.635 29.946,14.067 26.273,11.138 25.049,9.914 23.781,8.077 22.995,6.022 22.732,4.798 23.039,4.536 23.65,7.159 24,8.034 24.918,9.433 "
   id="polygon28" />
		<polygon
   style="clip-rule:evenodd;fill:#687802;fill-rule:evenodd"
   points="22.951,7.465 22.82,8.165 22.907,8.733 22.907,8.996 23.039,9.914 23.476,11.575 22.688,9.389 22.383,7.728 22.339,6.635 22.514,4.973 23.125,2.744 23.301,4.449 23.694,5.673 23.957,6.241 23.694,6.373 23.301,6.853 "
   id="polygon30" />
		<polygon
   style="clip-rule:evenodd;fill:#6c7d02;fill-rule:evenodd"
   points="25.268,9.826 25.268,10.001 25.225,10.088 25.225,10.22 25.181,10.438 25.225,11.75 25.268,11.837 25.399,12.362 25.093,11.662 25.006,11.531 24.918,11.182 24.831,10.569 24.831,10.307 24.875,10.088 24.962,9.826 25.006,9.739 25.049,9.695 25.225,9.782 "
   id="polygon32" />
		<polygon
   style="clip-rule:evenodd;fill:#6c7d02;fill-rule:evenodd"
   points="26.973,11.837 27.017,11.837 27.017,11.706 27.061,11.662 27.104,11.662 27.323,11.881 27.366,12.056 27.323,12.974 27.41,13.411 27.585,13.848 27.672,13.979 27.716,14.154 27.76,14.198 27.804,14.286 27.848,14.417 27.891,14.504 27.935,14.635 27.935,14.723 27.979,14.723 27.979,14.81 27.935,14.723 27.192,13.368 27.017,12.493 27.017,12.187 26.973,12.012 "
   id="polygon34" />
		<polygon
   style="clip-rule:evenodd;fill:#6c7d02;fill-rule:evenodd"
   points="29.596,14.417 29.858,15.378 30.339,16.471 29.946,15.815 29.421,14.548 29.203,13.674 29.203,13.324 29.246,13.368 29.378,13.455 29.465,13.586 29.552,13.761 "
   id="polygon36" />
		<polygon
   style="clip-rule:evenodd;fill:#6c7d02;fill-rule:evenodd"
   points="31.563,16.646 31.563,16.516 31.52,16.34 31.52,16.297 31.563,16.034 31.607,15.903 31.65,15.859 31.695,15.947 31.913,17.477 31.826,18.701 31.826,18.133 "
   id="polygon38" />
		<polygon
   style="clip-rule:evenodd;fill:#6c7d02;fill-rule:evenodd"
   points="33.007,18.789 33.138,18.876 32.963,19.401 32.919,19.619 32.744,20.188 32.438,20.843 32.831,19.576 32.831,19.313 32.919,18.876 "
   id="polygon40" />
		<polygon
   style="clip-rule:evenodd;fill:#6c7d02;fill-rule:evenodd"
   points="25.88,9.958 25.268,10.088 25.137,9.739 25.268,9.607 25.399,9.521 25.618,9.521 26.055,9.695 26.404,9.782 27.192,10.088 26.448,9.958 "
   id="polygon42" />
		<polygon
   style="clip-rule:evenodd;fill:#6c7d02;fill-rule:evenodd"
   points="28.459,11.706 28.197,11.619 27.979,11.662 27.848,11.662 27.716,11.706 27.366,12.056 27.017,11.619 27.279,11.488 27.891,11.488 28.94,11.793 "
   id="polygon44" />
		<polygon
   style="clip-rule:evenodd;fill:#6c7d02;fill-rule:evenodd"
   points="29.378,13.455 29.203,13.368 29.378,13.192 30.034,13.105 30.165,13.149 30.296,13.236 30.82,13.368 30.602,13.324 30.383,13.324 30.121,13.28 29.946,13.28 29.509,13.411 29.421,13.411 "
   id="polygon46" />
		<polygon
   style="clip-rule:evenodd;fill:#6c7d02;fill-rule:evenodd"
   points="32.351,15.903 32.788,16.165 32.263,15.947 32.045,15.903 31.913,15.947 31.695,15.947 31.607,15.859 31.65,15.728 32.088,15.728 32.22,15.772 "
   id="polygon48" />
	</g>
	
		<radialGradient
   id="SVGID_3_"
   cx="23.403799"
   cy="13.127"
   r="14.2863"
   gradientTransform="matrix(0.5929,0.6427,0.586,-0.6511,-9.1546,19.4643)"
   gradientUnits="userSpaceOnUse">
		<stop
   offset="0"
   style="stop-color:#FF0008"
   id="stop52" />
		<stop
   offset="1"
   style="stop-color:#800005"
   id="stop54" />
	</radialGradient>
	<path
   style="clip-rule:evenodd;fill:url(#SVGID_3_);fill-rule:evenodd"
   d="m 15.956,22.374 c 0.67,-0.058 1.603,-0.189 2.797,-0.393 0.962,-0.088 1.793,0.043 2.492,0.393 1.137,0.525 1.967,1.53 2.492,3.017 0.699,1.924 0.568,4.125 -0.394,6.602 -0.875,2.215 -1.865,3.702 -2.973,4.459 -0.554,0.379 -1.574,0.685 -3.06,0.918 -1.865,0.321 -3.381,0.365 -4.547,0.132 -2.157,-0.379 -3.76,-1.545 -4.809,-3.498 -1.428,-2.71 -1.953,-5.129 -1.574,-7.257 0.408,-1.982 1.545,-3.41 3.41,-4.285 1.283,-0.583 2.419,-0.758 3.411,-0.524 1.399,0.319 2.318,0.464 2.755,0.436 z"
   id="path57"
   inkscape:connector-curvature="0" />
	
		<use
   xlink:href="#flash0.ai_x5F_16_x2F_Layer_8_copy_x2F__x3C_Path_x3E__x5F_7"
   width="10.03"
   height="10.962"
   x="-0.015"
   y="-10.956"
   transform="matrix(0.8744,0,0,-0.8744,-19.114289,73.576667)"
   style="overflow:visible;opacity:0.62110003;enable-background:new"
   id="use59" />
	
		<use
   xlink:href="#flash0.ai_x5F_16_x2F_Layer_8_copy_x2F__x3C_Path_x3E__x5F_6"
   width="4.3579998"
   height="4.757"
   x="-0.0040000002"
   y="-4.7540002"
   transform="matrix(0.8744,0,0,-0.8744,-13.314489,76.727067)"
   style="overflow:visible;opacity:0.44920002;enable-background:new"
   id="use61" />
	<path
   style="clip-rule:evenodd;fill:#ffffff;fill-rule:evenodd"
   d="m 10.403,25.74 c 0.641,0.029 1.107,0.218 1.399,0.568 0.292,0.292 0.35,0.598 0.175,0.918 -0.175,0.262 -0.524,0.394 -1.049,0.394 C 10.432,27.591 9.995,27.46 9.616,27.226 9.266,26.993 9.193,26.687 9.397,26.308 9.631,25.93 9.966,25.74 10.403,25.74 Z"
   id="path63"
   inkscape:connector-curvature="0" />
	<path
   style="clip-rule:evenodd;fill:#ff9191;fill-rule:evenodd"
   d="m 14.6,23.685 0.525,-0.087 c 0.379,-0.029 0.7,-0.029 0.962,0 0.408,0.029 1.253,-0.175 2.536,-0.612 -0.525,0.495 -1.151,0.86 -1.88,1.093 -0.641,0.233 -1.137,0.35 -1.487,0.35 -0.466,0.029 -0.947,-0.087 -1.442,-0.35 -0.321,-0.175 -0.67,-0.466 -1.049,-0.874 l -0.481,-0.612 0.656,0.394 c 0.553,0.29 1.106,0.524 1.66,0.698 z"
   id="path65"
   inkscape:connector-curvature="0" />
	<path
   style="clip-rule:evenodd;fill:#800005;fill-rule:evenodd"
   d="m 13.114,23.117 c 0.495,0.088 1.034,0 1.618,-0.262 0.408,-0.029 0.568,-0.102 0.48,-0.218 0.029,-0.059 0.059,-0.117 0.087,-0.175 0.088,-0.116 0.16,-0.146 0.219,-0.087 0.117,0.059 0.466,0.044 1.049,-0.043 l -0.218,0.306 c -0.117,0.204 -0.073,0.364 0.131,0.48 0.379,0.175 0.889,0.19 1.53,0.043 l -0.743,0.306 c -0.787,0.321 -1.443,0.496 -1.968,0.525 -0.408,0.029 -0.889,-0.102 -1.442,-0.394 z"
   id="path67"
   inkscape:connector-curvature="0" />
	<path
   style="clip-rule:evenodd;fill:#a2b002;fill-rule:evenodd"
   d="m 17.923,12.056 c -1.428,3.002 -2.201,5.771 -2.317,8.307 -0.058,1.544 0.087,2.681 0.438,3.41 -0.467,0.262 -0.816,0.277 -1.049,0.044 -0.117,-0.117 -0.19,-0.321 -0.219,-0.612 l -0.043,-0.35 c -0.117,-0.32 -0.175,-0.86 -0.175,-1.618 0.029,-1.516 0.321,-3.41 0.875,-5.683 0.67,-2.652 1.807,-5.145 3.41,-7.477 1.458,-2.127 2.23,-3.57 2.317,-4.328 l 0.087,-1.18 0.35,-0.175 c 0.321,-0.087 0.686,-0.029 1.093,0.175 0.583,0.292 0.816,0.539 0.7,0.743 -0.554,0.67 -0.977,1.443 -1.268,2.317 -0.146,0.379 -0.714,1.239 -1.705,2.58 -1.139,1.486 -1.969,2.769 -2.494,3.847 z"
   id="path69"
   inkscape:connector-curvature="0" />
	<path
   style="clip-rule:evenodd;fill:#839602;fill-rule:evenodd"
   d="m 17.442,12.144 c 0.816,-1.487 1.72,-2.872 2.711,-4.153 0.903,-1.195 1.646,-2.565 2.23,-4.11 0.146,-0.379 0.218,-0.831 0.218,-1.355 l 0.087,0.043 c 0.583,0.292 0.816,0.539 0.7,0.743 -0.554,0.67 -0.977,1.443 -1.268,2.317 -0.146,0.379 -0.714,1.239 -1.705,2.58 -1.137,1.486 -1.967,2.769 -2.492,3.847 -1.428,3.002 -2.201,5.771 -2.317,8.307 -0.058,1.544 0.087,2.681 0.438,3.41 -0.467,0.262 -0.816,0.277 -1.049,0.044 L 14.82,23.423 c 0.263,0.088 0.423,0.131 0.481,0.131 0.233,0.029 0.306,-0.35 0.219,-1.137 -0.146,-1.487 -0.189,-2.871 -0.131,-4.153 0.086,-1.72 0.771,-3.76 2.053,-6.12 z"
   id="path71"
   inkscape:connector-curvature="0" />
	<path
   style="clip-rule:evenodd;fill:#c8db46;fill-rule:evenodd"
   d="m 21.464,3.355 c 0.029,-0.32 0.073,-0.51 0.131,-0.568 0.059,-0.029 0.117,0.029 0.175,0.175 0.087,0.174 0,0.67 -0.262,1.486 -0.292,0.962 -0.918,2.069 -1.88,3.323 -0.612,0.816 -0.977,1.268 -1.093,1.355 -0.146,0.117 -0.073,-0.029 0.218,-0.437 0.7,-1.079 1.225,-1.822 1.574,-2.229 0.262,-0.321 0.525,-0.831 0.787,-1.53 0.205,-0.641 0.321,-1.166 0.35,-1.575 z"
   id="path73"
   inkscape:connector-curvature="0" />
</g>
</svg>