<?xml version="1.0" encoding="UTF-8" standalone="no"?>
<!-- Generator: Adobe Illustrator 15.1.0, SVG Export Plug-In . SVG Version: 6.00 Build 0)  -->

<svg
   xmlns:dc="http://purl.org/dc/elements/1.1/"
   xmlns:cc="http://creativecommons.org/ns#"
   xmlns:rdf="http://www.w3.org/1999/02/22-rdf-syntax-ns#"
   xmlns:svg="http://www.w3.org/2000/svg"
   xmlns="http://www.w3.org/2000/svg"
   xmlns:xlink="http://www.w3.org/1999/xlink"
   xmlns:sodipodi="http://sodipodi.sourceforge.net/DTD/sodipodi-0.dtd"
   xmlns:inkscape="http://www.inkscape.org/namespaces/inkscape"
   version="1.1"
   id="flash0.ai"
   x="0px"
   y="0px"
   width="256"
   height="256"
   viewBox="0 0 256 256"
   xml:space="preserve"
   sodipodi:docname="lemon.svg"
   inkscape:version="0.92.4 (5da689c313, 2019-01-14)"
   inkscape:export-filename="C:\Users\antum\Development\game-resources\icon\CC0\food\individual\Glitch\32x32\lemon.png"
   inkscape:export-xdpi="10.5"
   inkscape:export-ydpi="10.5"><title
   id="title1347">Lemon</title><metadata
   id="metadata540"><rdf:RDF><cc:Work
       rdf:about=""><dc:format>image/svg+xml</dc:format><dc:type
         rdf:resource="http://purl.org/dc/dcmitype/StillImage" /><dc:title>Lemon</dc:title><cc:license
         rdf:resource="http://creativecommons.org/publicdomain/zero/1.0/" /><dc:creator><cc:Agent><dc:title>Glitch</dc:title></cc:Agent></dc:creator><dc:source>https://opengameart.org/node/20149</dc:source></cc:Work><cc:License
       rdf:about="http://creativecommons.org/publicdomain/zero/1.0/"><cc:permits
         rdf:resource="http://creativecommons.org/ns#Reproduction" /><cc:permits
         rdf:resource="http://creativecommons.org/ns#Distribution" /><cc:permits
         rdf:resource="http://creativecommons.org/ns#DerivativeWorks" /></cc:License></rdf:RDF></metadata><defs
   id="defs538" /><sodipodi:namedview
   pagecolor="#ffffff"
   bordercolor="#666666"
   borderopacity="1"
   objecttolerance="10"
   gridtolerance="10"
   guidetolerance="10"
   inkscape:pageopacity="0"
   inkscape:pageshadow="2"
   inkscape:window-width="1920"
   inkscape:window-height="1025"
   id="namedview536"
   showgrid="false"
   inkscape:zoom="0.7375"
   inkscape:cx="-367.2049"
   inkscape:cy="-153.166"
   inkscape:window-x="-8"
   inkscape:window-y="-8"
   inkscape:window-maximized="1"
   inkscape:current-layer="flash0.ai"
   fit-margin-top="0"
   fit-margin-left="0"
   fit-margin-right="0"
   fit-margin-bottom="0" />
<symbol
   id="flash0.ai_x5F_3_x2F_Layer_4_copy_x2F__x3C_Compound_Path_x3E__x5F_1"
   viewBox="0 -11.3 14.8 11.3"
   transform="translate(93.950335,111.60502)">
	<g
   id="Layer_1_70_">
		<path
   style="clip-rule:evenodd;fill-rule:evenodd"
   d="m 9.4,-5.55 c -0.233,0.2 -0.35,0.15 -0.35,-0.15 0,-0.333 0.1,-0.583 0.3,-0.75 0.267,-0.267 0.483,-0.283 0.65,-0.05 0.133,0.2 -0.067,0.517 -0.6,0.95 z m 2.05,-4 -1.1,0.2 -0.5,1.4 c -0.3,0.633 -0.5,1.034 -0.6,1.2 -0.2,0.3 -0.533,0.683 -1,1.15 0.2,0.367 0.133,0.75 -0.2,1.15 C 7.883,-4.283 7.7,-4.2 7.5,-4.2 7.3,-4.2 7.15,-4.283 7.05,-4.45 l -1.1,1.05 c 0.133,0 0.233,0.033 0.3,0.1 0.1,0.066 0.1,0.15 0,0.25 -0.167,0.233 -0.4,0.383 -0.7,0.45 -0.267,0.1 -0.4,0.05 -0.4,-0.15 l -1.25,0.9 c 0.2,0.2 0.133,0.383 -0.2,0.55 -0.333,0.233 -0.534,0.233 -0.6,0 C 1.9,-0.633 0.867,-0.2 0,0 c 3.5,-0.533 6.483,-2.1 8.95,-4.7 1.267,-1.367 2.3,-2.816 3.1,-4.35 0.167,-0.233 0.65,-0.5 1.45,-0.8 0.667,-0.233 1.083,-0.667 1.25,-1.3 l 0.05,-0.15 c -0.3,0.333 -0.667,0.633 -1.1,0.9 -0.633,0.367 -1.383,0.65 -2.25,0.85 z m -1.25,1.6 c 0,-0.333 0.233,-0.566 0.7,-0.7 0.4,-0.133 0.383,0.183 -0.05,0.95 -0.2,0.4 -0.367,0.534 -0.5,0.4 -0.133,-0.134 -0.183,-0.35 -0.15,-0.65 z"
   id="path2"
   inkscape:connector-curvature="0" />
	</g>
</symbol>
<symbol
   id="flash0.ai_x5F_3_x2F_Layer_4_copy_x2F__x3C_Compound_Path_x3E__x5F_2"
   viewBox="0 -28.201 37.603 28.651"
   transform="translate(93.950335,111.60502)">
	<g
   id="Layer_1_66_">
		<path
   style="clip-rule:evenodd;fill-rule:evenodd"
   d="m 36.3,-9.05 c 0.667,-0.233 1.083,-0.667 1.25,-1.3 0.133,-0.533 0.017,-1.117 -0.35,-1.75 -0.5,-0.833 -0.817,-1.566 -0.95,-2.2 -0.733,-3.367 -2.583,-6.383 -5.55,-9.05 -3.534,-3.2 -7.684,-4.816 -12.45,-4.85 -4.4,-0.033 -7.967,0.733 -10.7,2.3 -0.9,0.533 -2.066,1.55 -3.5,3.05 -0.2,0.2 -0.933,0.517 -2.2,0.95 -1.067,0.333 -1.65,0.816 -1.75,1.45 L 0,-19.9 c 0.433,-0.667 1.367,-1.133 2.8,-1.4 1.4,-0.3 2.667,-0.684 3.8,-1.15 1.066,-0.4 1.95,-0.667 2.65,-0.8 5.467,-0.967 10.833,-0.067 16.1,2.7 2.467,1.333 4.383,3.267 5.75,5.8 1.233,2.367 1.583,4.383 1.05,6.05 -0.5,1.467 -1.3,2.967 -2.4,4.5 -1.467,2 -3.2,3.55 -5.2,4.65 2.934,-0.8 5.467,-2.4 7.6,-4.8 1.067,-1.233 1.967,-2.533 2.7,-3.9 0.167,-0.233 0.65,-0.5 1.45,-0.8 z M 33.4,-9.7 c 0,-0.133 0.083,-0.45 0.25,-0.95 0.1,-0.434 0.55,-0.6 1.35,-0.5 0.767,0.066 1.2,0.25 1.3,0.55 l 0.15,0.5 c -0.633,0.633 -1.383,0.883 -2.25,0.75 -0.5,-0.1 -0.767,-0.217 -0.8,-0.35 z"
   id="path6"
   inkscape:connector-curvature="0" />
	</g>
</symbol>
<symbol
   id="flash0.ai_x5F_3_x2F_Layer_4_copy_x2F__x3C_Compound_Path_x3E__x5F_3"
   viewBox="-0.2 -10.85 25.45 11.612"
   transform="translate(93.950335,111.60502)">
	<g
   id="Layer_1_2_">
		<path
   style="clip-rule:evenodd;fill-rule:evenodd"
   d="m 9.75,-9.9 c -0.333,0 -0.6,-0.133 -0.8,-0.4 -0.2,-0.267 -0.033,-0.383 0.5,-0.35 0.667,0.1 1.117,0.25 1.35,0.45 0.266,0.233 -0.084,0.333 -1.05,0.3 z M 7.45,-10 c 0.434,-0.033 0.733,0.017 0.9,0.15 0.167,0.167 0,0.267 -0.5,0.3 C 7.617,-9.517 7.4,-9.583 7.2,-9.75 6.966,-9.883 7.05,-9.967 7.45,-10 Z m 8.95,1.65 c -0.2,-0.133 -0.133,-0.183 0.2,-0.15 0.333,0.067 0.65,0.217 0.95,0.45 0.266,0.233 0.117,0.25 -0.45,0.05 -0.333,-0.133 -0.567,-0.25 -0.7,-0.35 z m -0.6,1.3 c 0.4,0.066 0.617,0.25 0.65,0.55 0.067,0.3 -0.167,0.267 -0.7,-0.1 -0.2,-0.133 -0.317,-0.233 -0.35,-0.3 -0.067,-0.133 0.066,-0.183 0.4,-0.15 z m 3.35,0.75 c -0.2,-0.267 -0.2,-0.383 0,-0.35 0.233,0.033 0.5,0.267 0.8,0.7 0.3,0.467 0.267,0.567 -0.1,0.3 -0.267,-0.2 -0.5,-0.417 -0.7,-0.65 z m -4.5,-2.2 c -0.2,-0.333 -0.15,-0.467 0.15,-0.4 0.367,0.066 0.733,0.316 1.1,0.75 0.367,0.4 0.233,0.5 -0.4,0.3 -0.4,-0.133 -0.684,-0.35 -0.85,-0.65 z m -3.2,-1.2 c -0.167,-0.2 0,-0.3 0.5,-0.3 0.567,0.033 0.934,0.15 1.1,0.35 0.133,0.2 -0.167,0.283 -0.9,0.25 -0.334,-0.033 -0.567,-0.133 -0.7,-0.3 z m 7.3,4.45 c 0.2,0.567 0.017,0.683 -0.55,0.35 -0.367,-0.233 -0.633,-0.55 -0.8,-0.95 -0.167,-0.4 -0.033,-0.55 0.4,-0.45 0.433,0.133 0.75,0.483 0.95,1.05 z m 2.05,1.6 c 0.467,0.1 0.767,0.483 0.9,1.15 0.167,0.633 -0.133,0.7 -0.9,0.2 -0.233,-0.133 -0.383,-0.417 -0.45,-0.85 -0.067,-0.433 0.083,-0.6 0.45,-0.5 z m 2.55,4.35 c 0.567,-0.1 0.983,-0.1 1.25,0 0.434,0.133 0.65,0.05 0.65,-0.25 -0.9,-2.067 -2.184,-3.95 -3.85,-5.65 -1.867,-1.9 -4.017,-3.333 -6.45,-4.3 l -0.9,-0.05 c -0.167,0 -0.333,-0.067 -0.5,-0.2 -0.133,-0.133 -0.2,-0.25 -0.2,-0.35 -1.6,-0.467 -3.333,-0.717 -5.2,-0.75 L 7.1,-10.8 c 0.2,0.133 -0.066,0.267 -0.8,0.4 -0.267,0.033 -0.517,0.017 -0.75,-0.05 -0.2,-0.066 -0.3,-0.15 -0.3,-0.25 -0.534,0.034 -1.184,0.117 -1.95,0.25 0.133,0.2 -0.167,0.35 -0.9,0.45 -0.267,0.033 -0.4,-0.033 -0.4,-0.2 -0.534,0.1 -1.233,0.284 -2.1,0.55 l -0.1,0.25 c 0.033,0.267 0.55,0.3 1.55,0.1 1.6,-0.3 2.534,-0.45 2.8,-0.45 -0.133,-0.2 0.083,-0.3 0.65,-0.3 0.367,0.033 0.667,0.083 0.9,0.15 0.233,0.1 0.283,0.183 0.15,0.25 0.633,0.067 2.817,0.383 6.55,0.95 0.667,0.1 1.417,0.567 2.25,1.4 1.1,1.066 1.7,1.633 1.8,1.7 0.333,0.2 0.6,0.467 0.8,0.8 0.133,0.2 0.333,0.517 0.6,0.95 0.2,-0.433 0.567,-0.45 1.1,-0.05 0.333,0.267 0.533,0.55 0.6,0.85 0.067,0.3 -0.033,0.483 -0.3,0.55 l 0.9,0.75 c 0,-0.433 0.283,-0.433 0.85,0 0.4,0.267 0.617,0.533 0.65,0.8 0.033,0.267 -0.1,0.35 -0.4,0.25 l 1.1,1.1 c 0.233,0.267 0.567,0.367 1,0.3 z m 0.35,-2.15 c 0.233,0.534 0.117,0.55 -0.35,0.05 -0.167,-0.133 -0.3,-0.333 -0.4,-0.6 -0.1,-0.267 -0.066,-0.383 0.1,-0.35 0.2,0.067 0.416,0.367 0.65,0.9 z"
   id="path10"
   inkscape:connector-curvature="0" />
	</g>
</symbol>
<symbol
   id="flash0.ai_x5F_3_x2F_Layer_4_copy_x2F__x3C_Path_x3E__x5F_100"
   viewBox="0.014 -0.755 1.226 0.783"
   transform="translate(93.950335,111.60502)">
	<g
   id="Layer_1_17_">
		<path
   style="clip-rule:evenodd;fill:#ffffff;fill-rule:evenodd"
   d="m 1.15,-0.35 c -0.167,-0.3 -0.433,-0.433 -0.8,-0.4 -0.367,0.033 -0.434,0.133 -0.2,0.3 0.067,0.067 0.333,0.2 0.8,0.4 0.3,0.167 0.367,0.067 0.2,-0.3 z"
   id="path14"
   inkscape:connector-curvature="0" />
	</g>
</symbol>
<symbol
   id="flash0.ai_x5F_3_x2F_Layer_4_copy_x2F__x3C_Path_x3E__x5F_101"
   viewBox="0.044 -0.658 1.256 0.653"
   transform="translate(93.950335,111.60502)">
	<g
   id="Layer_1_16_">
		<path
   style="clip-rule:evenodd;fill:#ffffff;fill-rule:evenodd"
   d="m 0.85,-0.05 c 0.4,0.1 0.533,0.033 0.4,-0.2 -0.167,-0.233 -0.45,-0.367 -0.85,-0.4 -0.367,-0.033 -0.45,0.033 -0.25,0.2 0.167,0.167 0.4,0.3 0.7,0.4 z"
   id="path18"
   inkscape:connector-curvature="0" />
	</g>
</symbol>
<symbol
   id="flash0.ai_x5F_3_x2F_Layer_4_copy_x2F__x3C_Path_x3E__x5F_102"
   viewBox="-0.038 -0.807 1.398 0.807"
   transform="translate(93.950335,111.60502)">
	<g
   id="Layer_1_15_">
		<path
   style="clip-rule:evenodd;fill:#ffffff;fill-rule:evenodd"
   d="M 0.6,0 C 1.3,0 1.517,-0.15 1.25,-0.45 0.95,-0.783 0.633,-0.883 0.3,-0.75 0,-0.617 -0.1,-0.45 0,-0.25 0.1,-0.083 0.3,0 0.6,0 Z"
   id="path22"
   inkscape:connector-curvature="0" />
	</g>
</symbol>
<symbol
   id="flash0.ai_x5F_3_x2F_Layer_4_copy_x2F__x3C_Path_x3E__x5F_103"
   viewBox="0 -0.625 0.739 0.65"
   transform="translate(93.950335,111.60502)">
	<g
   id="Layer_1_14_">
		<path
   style="clip-rule:evenodd;fill-rule:evenodd"
   d="M 0.6,0 C 0.767,-0.067 0.783,-0.2 0.65,-0.4 0.55,-0.6 0.4,-0.667 0.2,-0.6 0,-0.533 -0.05,-0.4 0.05,-0.2 0.15,0 0.333,0.067 0.6,0 Z"
   id="path26"
   inkscape:connector-curvature="0" />
	</g>
</symbol>
<symbol
   id="flash0.ai_x5F_3_x2F_Layer_4_copy_x2F__x3C_Path_x3E__x5F_104"
   viewBox="-0.005 -0.956 0.959 0.968"
   transform="translate(93.950335,111.60502)">
	<g
   id="Layer_1_13_">
		<path
   style="clip-rule:evenodd;fill-rule:evenodd"
   d="M 0.95,-0.3 C 0.983,-0.667 0.817,-0.883 0.45,-0.95 0.117,-0.983 -0.033,-0.867 0,-0.6 c 0.033,0.233 0.133,0.4 0.3,0.5 0.4,0.2 0.617,0.133 0.65,-0.2 z"
   id="path30"
   inkscape:connector-curvature="0" />
	</g>
</symbol>
<symbol
   id="flash0.ai_x5F_3_x2F_Layer_4_copy_x2F__x3C_Path_x3E__x5F_105"
   viewBox="0 -0.77 1 0.776"
   transform="translate(93.950335,111.60502)">
	<g
   id="Layer_1_12_">
		<path
   style="clip-rule:evenodd;fill-rule:evenodd"
   d="M 0.5,0 C 0.833,-0.033 1,-0.183 1,-0.45 0.967,-0.717 0.8,-0.817 0.5,-0.75 0.167,-0.683 0,-0.533 0,-0.3 0,-0.067 0.167,0.033 0.5,0 Z"
   id="path34"
   inkscape:connector-curvature="0" />
	</g>
</symbol>
<symbol
   id="flash0.ai_x5F_3_x2F_Layer_4_copy_x2F__x3C_Path_x3E__x5F_106"
   viewBox="-0.022 -0.45 0.867 0.45"
   transform="translate(93.950335,111.60502)">
	<g
   id="Layer_1_11_">
		<path
   style="clip-rule:evenodd;fill-rule:evenodd"
   d="m 0.6,-0.1 c 0.233,-0.133 0.3,-0.233 0.2,-0.3 -0.1,-0.067 -0.283,-0.067 -0.55,0 -0.233,0.067 -0.317,0.167 -0.25,0.3 0.1,0.133 0.3,0.133 0.6,0 z"
   id="path38"
   inkscape:connector-curvature="0" />
	</g>
</symbol>
<symbol
   id="flash0.ai_x5F_3_x2F_Layer_4_copy_x2F__x3C_Path_x3E__x5F_107"
   viewBox="0 -0.87 1.539 0.909"
   transform="translate(93.950335,111.60502)">
	<g
   id="Layer_1_10_">
		<path
   style="clip-rule:evenodd;fill-rule:evenodd"
   d="m 1.5,-0.25 c -0.2,-0.3 -0.533,-0.5 -1,-0.6 -0.333,-0.067 -0.5,0.033 -0.5,0.3 0.033,0.267 0.167,0.433 0.4,0.5 0.9,0.167 1.267,0.1 1.1,-0.2 z"
   id="path42"
   inkscape:connector-curvature="0" />
	</g>
</symbol>
<symbol
   id="flash0.ai_x5F_3_x2F_Layer_4_copy_x2F__x3C_Path_x3E__x5F_108"
   viewBox="0.009 -1.295 1.086 1.312"
   transform="translate(93.950335,111.60502)">
	<g
   id="Layer_1_9_">
		<path
   style="clip-rule:evenodd;fill-rule:evenodd"
   d="M 1,-0.4 C 0.833,-0.867 0.6,-1.15 0.3,-1.25 c -0.267,-0.1 -0.35,-0.033 -0.25,0.2 0.1,0.233 0.3,0.5 0.6,0.8 C 1.083,0.15 1.2,0.1 1,-0.4 Z"
   id="path46"
   inkscape:connector-curvature="0" />
	</g>
</symbol>
<symbol
   id="flash0.ai_x5F_3_x2F_Layer_4_copy_x2F__x3C_Path_x3E__x5F_109"
   viewBox="-0.025 -0.988 1.345 1.013"
   transform="translate(93.950335,111.60502)">
	<g
   id="Layer_1_8_">
		<path
   style="clip-rule:evenodd;fill-rule:evenodd"
   d="m 1.25,0 c 0.167,-0.1 0.033,-0.317 -0.4,-0.65 -0.333,-0.3 -0.583,-0.4 -0.75,-0.3 -0.167,0.1 -0.167,0.217 0,0.35 0.633,0.5 1.017,0.7 1.15,0.6 z"
   id="path50"
   inkscape:connector-curvature="0" />
	</g>
</symbol>
<symbol
   id="flash0.ai_x5F_3_x2F_Layer_4_copy_x2F__x3C_Path_x3E__x5F_110"
   viewBox="0 -1.205 1.517 1.221"
   transform="translate(93.950335,111.60502)">
	<g
   id="Layer_1_7_">
		<path
   style="clip-rule:evenodd;fill-rule:evenodd"
   d="m 1.45,-0.45 c -0.2,-0.433 -0.534,-0.683 -1,-0.75 -0.4,-0.033 -0.534,0.117 -0.4,0.45 0.1,0.367 0.317,0.583 0.65,0.65 0.7,0.233 0.95,0.117 0.75,-0.35 z"
   id="path54"
   inkscape:connector-curvature="0" />
	</g>
</symbol>
<symbol
   id="flash0.ai_x5F_3_x2F_Layer_4_copy_x2F__x3C_Path_x3E__x5F_111"
   viewBox="0.038 -0.557 1.291 0.563"
   transform="translate(93.950335,111.60502)">
	<g
   id="Layer_1_6_">
		<path
   style="clip-rule:evenodd;fill-rule:evenodd"
   d="M 1.2,-0.3 C 0.967,-0.5 0.683,-0.583 0.35,-0.55 c -0.333,0.033 -0.4,0.117 -0.2,0.25 0.167,0.167 0.433,0.267 0.8,0.3 0.4,0.033 0.483,-0.067 0.25,-0.3 z"
   id="path58"
   inkscape:connector-curvature="0" />
	</g>
</symbol>
<symbol
   id="flash0.ai_x5F_3_x2F_Layer_4_copy_x2F__x3C_Path_x3E__x5F_112"
   viewBox="-0.006 -0.75 1.537 0.741"
   transform="translate(93.950335,111.60502)">
	<g
   id="Layer_1_5_">
		<path
   style="clip-rule:evenodd;fill-rule:evenodd"
   d="M 0.5,-0.05 C 1.433,0.05 1.733,-0.033 1.4,-0.3 1.067,-0.6 0.717,-0.75 0.35,-0.75 0.083,-0.717 -0.033,-0.6 0,-0.4 c 0.067,0.2 0.233,0.317 0.5,0.35 z"
   id="path62"
   inkscape:connector-curvature="0" />
	</g>
</symbol>
<symbol
   id="flash0.ai_x5F_3_x2F_Layer_4_copy_x2F__x3C_Path_x3E__x5F_113"
   viewBox="-0.004 -1.104 0.9 1.118"
   transform="translate(93.950335,111.60502)">
	<g
   id="Layer_1_4_">
		<path
   style="clip-rule:evenodd;fill-rule:evenodd"
   d="M 0.8,-0.5 C 0.633,-0.933 0.433,-1.133 0.2,-1.1 c -0.233,0 -0.267,0.167 -0.1,0.5 0.167,0.333 0.35,0.533 0.55,0.6 0.267,0.067 0.317,-0.1 0.15,-0.5 z"
   id="path66"
   inkscape:connector-curvature="0" />
	</g>
</symbol>
<symbol
   id="flash0.ai_x5F_3_x2F_Layer_4_copy_x2F__x3C_Path_x3E__x5F_114"
   viewBox="-0.038 -2.463 3.355 2.463"
   transform="translate(93.950335,111.60502)">
	<g
   id="Layer_1_3_">
		<path
   style="clip-rule:evenodd;fill-rule:evenodd"
   d="M 3.25,0 C 3.317,-0.233 3.333,-0.383 3.3,-0.45 L 3.05,-0.8 C 2.984,-0.933 2.883,-1.05 2.75,-1.15 2.55,-1.283 2.383,-1.417 2.25,-1.55 2.017,-1.783 1.9,-1.917 1.9,-1.95 1.833,-1.983 1.767,-1.967 1.7,-1.9 1.6,-1.8 1.483,-1.767 1.35,-1.8 1.183,-1.834 1.05,-1.933 0.95,-2.1 0.883,-2.233 0.817,-2.35 0.75,-2.45 c -0.067,-0.033 -0.233,0 -0.5,0.1 -0.4,0.167 -0.383,0.567 0.05,1.2 l 1.35,0.1 c 0.5,0.067 1.033,0.417 1.6,1.05 z"
   id="path70"
   inkscape:connector-curvature="0" />
	</g>
</symbol>
<symbol
   id="flash0.ai_x5F_3_x2F_Layer_4_copy_x2F__x3C_Path_x3E__x5F_49"
   viewBox="-0.002 -3.202 4.491 3.202"
   transform="translate(93.950335,111.60502)">
	<g
   id="Layer_1_69_">
		<path
   style="clip-rule:evenodd;fill:#fdffe3;fill-rule:evenodd"
   d="M 2,0 C 4.467,-0.633 5.1,-1.567 3.9,-2.8 3.5,-3.233 2.967,-3.317 2.3,-3.05 1.5,-2.617 0.883,-2.3 0.45,-2.1 -0.117,-1.833 -0.15,-1.416 0.35,-0.85 0.817,-0.283 1.367,0 2,0 Z"
   id="path74"
   inkscape:connector-curvature="0" />
	</g>
</symbol>
<symbol
   id="flash0.ai_x5F_3_x2F_Layer_4_copy_x2F__x3C_Path_x3E__x5F_50"
   viewBox="-0.007 -16.308 21.47 16.284"
   transform="translate(93.950335,111.60502)">
	<g
   id="Layer_1_68_">
		<path
   style="clip-rule:evenodd;fill:#fdffe3;fill-rule:evenodd"
   d="m 13.8,-0.05 c 1.7,0.133 3.617,-0.25 5.75,-1.15 1.967,-0.833 2.417,-2.517 1.35,-5.05 -0.9,-2.167 -2.2,-3.867 -3.9,-5.1 -1,-0.767 -2.733,-1.5 -5.2,-2.2 -2.633,-0.767 -4.066,-1.217 -4.3,-1.35 -1,-0.567 -2,-0.967 -3,-1.2 -1.4,-0.333 -2.517,-0.267 -3.35,0.2 -0.833,0.467 -1.217,1.067 -1.15,1.8 0.033,0.233 0.383,1.267 1.05,3.1 0.6,1.6 1.4,3.2 2.4,4.8 1.167,1.867 2.25,3.067 3.25,3.6 2.867,1.533 5.233,2.383 7.1,2.55 z"
   id="path78"
   inkscape:connector-curvature="0" />
	</g>
</symbol>
<symbol
   id="flash0.ai_x5F_3_x2F_Layer_4_copy_x2F__x3C_Path_x3E__x5F_51"
   viewBox="0.029 -18.677 26.054 18.662"
   transform="translate(93.950335,111.60502)">
	<g
   id="Layer_1_67_">
		<path
   style="clip-rule:evenodd;fill:#fdffe3;fill-rule:evenodd"
   d="m 25.5,-4 c 0.867,-1.633 0.767,-3.567 -0.3,-5.8 -1.333,-2.8 -3.317,-4.85 -5.95,-6.15 -2.533,-1.267 -6.283,-2.133 -11.25,-2.6 -5,-0.467 -7.65,0.35 -7.95,2.45 -0.133,0.8 0.367,2.333 1.5,4.6 0.434,1.367 0.883,2.517 1.35,3.45 0.833,1.733 2.267,3.317 4.3,4.75 3.633,2.633 7.233,3.683 10.8,3.15 3.933,-0.533 6.433,-1.817 7.5,-3.85 z"
   id="path82"
   inkscape:connector-curvature="0" />
	</g>
</symbol>
<symbol
   id="flash0.ai_x5F_3_x2F_Layer_4_copy_x2F__x3C_Path_x3E__x5F_52"
   viewBox="0.033 -0.7 1.42 0.72"
   transform="translate(93.950335,111.60502)">
	<g
   id="Layer_1_65_">
		<path
   style="clip-rule:evenodd;fill-rule:evenodd"
   d="M 1.4,-0.3 C 1.267,-0.533 0.967,-0.667 0.5,-0.7 c -0.467,0 -0.583,0.1 -0.35,0.3 0.233,0.2 0.533,0.333 0.9,0.4 0.367,0.067 0.483,-0.033 0.35,-0.3 z"
   id="path86"
   inkscape:connector-curvature="0" />
	</g>
</symbol>
<symbol
   id="flash0.ai_x5F_3_x2F_Layer_4_copy_x2F__x3C_Path_x3E__x5F_53"
   viewBox="-0.004 -1.347 1.472 1.369"
   transform="translate(93.950335,111.60502)">
	<g
   id="Layer_1_64_">
		<path
   style="clip-rule:evenodd;fill-rule:evenodd"
   d="M 1.45,-0.4 C 1.35,-0.834 1.05,-1.133 0.55,-1.3 0.15,-1.433 -0.033,-1.283 0,-0.85 0,-0.45 0.167,-0.2 0.5,-0.1 1.233,0.133 1.55,0.033 1.45,-0.4 Z"
   id="path90"
   inkscape:connector-curvature="0" />
	</g>
</symbol>
<symbol
   id="flash0.ai_x5F_3_x2F_Layer_4_copy_x2F__x3C_Path_x3E__x5F_54"
   viewBox="-0.029 -0.9 1.127 0.907"
   transform="translate(93.950335,111.60502)">
	<g
   id="Layer_1_63_">
		<path
   style="clip-rule:evenodd;fill-rule:evenodd"
   d="M 0.45,-0.05 C 1.05,-0.484 1.233,-0.75 1,-0.85 0.9,-0.883 0.617,-0.9 0.15,-0.9 c -0.167,0 -0.217,0.183 -0.15,0.55 0.1,0.333 0.25,0.433 0.45,0.3 z"
   id="path94"
   inkscape:connector-curvature="0" />
	</g>
</symbol>
<symbol
   id="flash0.ai_x5F_3_x2F_Layer_4_copy_x2F__x3C_Path_x3E__x5F_55"
   viewBox="-0.018 -1.017 1.476 1.045"
   transform="translate(93.950335,111.60502)">
	<g
   id="Layer_1_62_">
		<path
   style="clip-rule:evenodd;fill-rule:evenodd"
   d="M 1.45,-0.35 C 1.35,-0.717 1.083,-0.933 0.65,-1 0.283,-1.067 0.067,-0.933 0,-0.6 c -0.067,0.3 0.05,0.483 0.35,0.55 0.8,0.167 1.167,0.067 1.1,-0.3 z"
   id="path98"
   inkscape:connector-curvature="0" />
	</g>
</symbol>
<symbol
   id="flash0.ai_x5F_3_x2F_Layer_4_copy_x2F__x3C_Path_x3E__x5F_56"
   viewBox="0.005 -1.35 1.567 1.357"
   transform="translate(93.950335,111.60502)">
	<g
   id="Layer_1_61_">
		<path
   style="clip-rule:evenodd;fill-rule:evenodd"
   d="M 1.5,-0.55 C 1.3,-1.084 0.95,-1.35 0.45,-1.35 0.017,-1.317 -0.1,-1.133 0.1,-0.8 c 0.167,0.333 0.417,0.566 0.75,0.7 0.633,0.233 0.85,0.083 0.65,-0.45 z"
   id="path102"
   inkscape:connector-curvature="0" />
	</g>
</symbol>
<symbol
   id="flash0.ai_x5F_3_x2F_Layer_4_copy_x2F__x3C_Path_x3E__x5F_57"
   viewBox="0.011 -1.254 1.105 1.267"
   transform="translate(93.950335,111.60502)">
	<g
   id="Layer_1_60_">
		<path
   style="clip-rule:evenodd;fill-rule:evenodd"
   d="M 1.05,-0.55 C 0.883,-0.983 0.633,-1.217 0.3,-1.25 0,-1.283 -0.067,-1.083 0.1,-0.65 0.233,-0.25 0.4,-0.033 0.6,0 1.067,0.067 1.217,-0.117 1.05,-0.55 Z"
   id="path106"
   inkscape:connector-curvature="0" />
	</g>
</symbol>
<symbol
   id="flash0.ai_x5F_3_x2F_Layer_4_copy_x2F__x3C_Path_x3E__x5F_58"
   viewBox="-0.007 -1.353 0.917 1.365"
   transform="translate(93.950335,111.60502)">
	<g
   id="Layer_1_59_">
		<path
   style="clip-rule:evenodd;fill-rule:evenodd"
   d="m 0.85,-0.5 c -0.167,-0.6 -0.367,-0.883 -0.6,-0.85 -0.2,0 -0.283,0.167 -0.25,0.5 0.033,0.367 0.133,0.6 0.3,0.7 0.533,0.3 0.717,0.183 0.55,-0.35 z"
   id="path110"
   inkscape:connector-curvature="0" />
	</g>
</symbol>
<symbol
   id="flash0.ai_x5F_3_x2F_Layer_4_copy_x2F__x3C_Path_x3E__x5F_59"
   viewBox="0.004 -1.364 0.985 1.406"
   transform="translate(93.950335,111.60502)">
	<g
   id="Layer_1_58_">
		<path
   style="clip-rule:evenodd;fill-rule:evenodd"
   d="M 0.85,-0.15 C 1.05,-0.683 1.033,-1.05 0.8,-1.25 0.567,-1.417 0.333,-1.4 0.1,-1.2 c -0.167,0.167 -0.117,0.467 0.15,0.9 0.267,0.4 0.467,0.45 0.6,0.15 z"
   id="path114"
   inkscape:connector-curvature="0" />
	</g>
</symbol>
<symbol
   id="flash0.ai_x5F_3_x2F_Layer_4_copy_x2F__x3C_Path_x3E__x5F_60"
   viewBox="-0.028 -1.239 1.034 1.312"
   transform="translate(93.950335,111.60502)">
	<g
   id="Layer_1_57_">
		<path
   style="clip-rule:evenodd;fill-rule:evenodd"
   d="m 0.95,-0.05 c 0.1,-0.333 0.066,-0.633 -0.1,-0.9 -0.2,-0.3 -0.434,-0.367 -0.7,-0.2 -0.267,0.133 -0.233,0.4 0.1,0.8 0.4,0.433 0.633,0.533 0.7,0.3 z"
   id="path118"
   inkscape:connector-curvature="0" />
	</g>
</symbol>
<symbol
   id="flash0.ai_x5F_3_x2F_Layer_4_copy_x2F__x3C_Path_x3E__x5F_61"
   viewBox="-0.024 -1.53 1.526 1.565"
   transform="translate(93.950335,111.60502)">
	<g
   id="Layer_1_56_">
		<path
   style="clip-rule:evenodd;fill-rule:evenodd"
   d="M 1.4,-0.5 C 1.133,-1.1 0.8,-1.433 0.4,-1.5 0,-1.6 -0.117,-1.45 0.05,-1.05 0.217,-0.683 0.5,-0.383 0.9,-0.15 1.467,0.183 1.633,0.067 1.4,-0.5 Z"
   id="path122"
   inkscape:connector-curvature="0" />
	</g>
</symbol>
<symbol
   id="flash0.ai_x5F_3_x2F_Layer_4_copy_x2F__x3C_Path_x3E__x5F_62"
   viewBox="-0.025 -0.606 0.92 0.601"
   transform="translate(93.950335,111.60502)">
	<g
   id="Layer_1_55_">
		<path
   style="clip-rule:evenodd;fill-rule:evenodd"
   d="M 0.45,-0.05 C 0.883,0.05 1,-0.017 0.8,-0.25 0.6,-0.517 0.4,-0.633 0.2,-0.6 0,-0.6 -0.067,-0.517 0,-0.35 c 0.067,0.167 0.217,0.267 0.45,0.3 z"
   id="path126"
   inkscape:connector-curvature="0" />
	</g>
</symbol>
<symbol
   id="flash0.ai_x5F_3_x2F_Layer_4_copy_x2F__x3C_Path_x3E__x5F_63"
   viewBox="-0.013 -1.305 1.584 1.317"
   transform="translate(93.950335,111.60502)">
	<g
   id="Layer_1_54_">
		<path
   style="clip-rule:evenodd;fill-rule:evenodd"
   d="M 1.55,-0.5 C 1.417,-1 1.1,-1.267 0.6,-1.3 0.133,-1.333 -0.067,-1.2 0,-0.9 c 0.1,0.3 0.367,0.55 0.8,0.75 0.6,0.3 0.85,0.183 0.75,-0.35 z"
   id="path130"
   inkscape:connector-curvature="0" />
	</g>
</symbol>
<symbol
   id="flash0.ai_x5F_3_x2F_Layer_4_copy_x2F__x3C_Path_x3E__x5F_64"
   viewBox="-0.044 -1.004 1.719 1.004"
   transform="translate(93.950335,111.60502)">
	<g
   id="Layer_1_53_">
		<path
   style="clip-rule:evenodd;fill-rule:evenodd"
   d="m 1,-0.05 c 0.6,0.133 0.8,0 0.6,-0.4 C 1.367,-0.85 1,-1.033 0.5,-1 0.033,-1 -0.133,-0.867 0,-0.6 c 0.167,0.267 0.5,0.45 1,0.55 z"
   id="path134"
   inkscape:connector-curvature="0" />
	</g>
</symbol>
<symbol
   id="flash0.ai_x5F_3_x2F_Layer_4_copy_x2F__x3C_Path_x3E__x5F_65"
   viewBox="0.003 -0.8 1.37 0.805"
   transform="translate(93.950335,111.60502)">
	<g
   id="Layer_1_52_">
		<path
   style="clip-rule:evenodd;fill-rule:evenodd"
   d="M 0.65,0 C 1.217,-0.033 1.45,-0.183 1.35,-0.45 1.25,-0.683 0.967,-0.8 0.5,-0.8 c -0.433,0 -0.583,0.133 -0.45,0.4 0.1,0.3 0.3,0.433 0.6,0.4 z"
   id="path138"
   inkscape:connector-curvature="0" />
	</g>
</symbol>
<symbol
   id="flash0.ai_x5F_3_x2F_Layer_4_copy_x2F__x3C_Path_x3E__x5F_66"
   viewBox="-0.025 -0.864 1.657 0.864"
   transform="translate(93.950335,111.60502)">
	<g
   id="Layer_1_51_">
		<path
   style="clip-rule:evenodd;fill-rule:evenodd"
   d="M 1.05,-0.05 C 1.683,-0.317 1.8,-0.533 1.4,-0.7 0.967,-0.9 0.567,-0.917 0.2,-0.75 c -0.3,0.167 -0.3,0.35 0,0.55 0.267,0.2 0.55,0.25 0.85,0.15 z"
   id="path142"
   inkscape:connector-curvature="0" />
	</g>
</symbol>
<symbol
   id="flash0.ai_x5F_3_x2F_Layer_4_copy_x2F__x3C_Path_x3E__x5F_67"
   viewBox="0.015 -0.557 1.064 0.563"
   transform="translate(93.950335,111.60502)">
	<g
   id="Layer_1_50_">
		<path
   style="clip-rule:evenodd;fill:#ffffff;fill-rule:evenodd"
   d="M 0.6,0 C 1,-0.033 1.15,-0.133 1.05,-0.3 0.983,-0.433 0.767,-0.517 0.4,-0.55 0.067,-0.583 -0.05,-0.5 0.05,-0.3 0.15,-0.067 0.333,0.033 0.6,0 Z"
   id="path146"
   inkscape:connector-curvature="0" />
	</g>
</symbol>
<symbol
   id="flash0.ai_x5F_3_x2F_Layer_4_copy_x2F__x3C_Path_x3E__x5F_68"
   viewBox="-0.001 -0.8 1.52 0.868"
   transform="translate(93.950335,111.60502)">
	<g
   id="Layer_1_49_">
		<path
   style="clip-rule:evenodd;fill:#ffffff;fill-rule:evenodd"
   d="M 1.45,-0.25 C 1.217,-0.617 0.867,-0.8 0.4,-0.8 c -0.633,0.033 -0.517,0.267 0.35,0.7 0.667,0.267 0.9,0.217 0.7,-0.15 z"
   id="path150"
   inkscape:connector-curvature="0" />
	</g>
</symbol>
<symbol
   id="flash0.ai_x5F_3_x2F_Layer_4_copy_x2F__x3C_Path_x3E__x5F_69"
   viewBox="0.011 -0.722 1.117 0.763"
   transform="translate(93.950335,111.60502)">
	<g
   id="Layer_1_48_">
		<path
   style="clip-rule:evenodd;fill:#ffffff;fill-rule:evenodd"
   d="M 1.05,-0.25 C 0.883,-0.517 0.633,-0.667 0.3,-0.7 0,-0.767 -0.067,-0.683 0.1,-0.45 0.267,-0.217 0.483,-0.067 0.75,0 1.117,0.1 1.217,0.017 1.05,-0.25 Z"
   id="path154"
   inkscape:connector-curvature="0" />
	</g>
</symbol>
<symbol
   id="flash0.ai_x5F_3_x2F_Layer_4_copy_x2F__x3C_Path_x3E__x5F_70"
   viewBox="0.082 -1.15 1.247 1.2"
   transform="translate(93.950335,111.60502)">
	<g
   id="Layer_1_47_">
		<path
   style="clip-rule:evenodd;fill:#ffffff;fill-rule:evenodd"
   d="M 1.2,-0.4 C 1,-0.867 0.717,-1.117 0.35,-1.15 c -0.5,0 -0.3,0.333 0.6,1 0.4,0.333 0.483,0.25 0.25,-0.25 z"
   id="path158"
   inkscape:connector-curvature="0" />
	</g>
</symbol>
<symbol
   id="flash0.ai_x5F_3_x2F_Layer_4_copy_x2F__x3C_Path_x3E__x5F_71"
   viewBox="-0.014 -0.9 0.764 0.894"
   transform="translate(93.950335,111.60502)">
	<g
   id="Layer_1_46_">
		<path
   style="clip-rule:evenodd;fill:#ffffff;fill-rule:evenodd"
   d="m 0.35,-0.15 c 0.4,0.233 0.5,0.183 0.3,-0.15 -0.2,-0.367 -0.383,-0.567 -0.55,-0.6 -0.133,0 -0.15,0.117 -0.05,0.35 0.1,0.2 0.2,0.333 0.3,0.4 z"
   id="path162"
   inkscape:connector-curvature="0" />
	</g>
</symbol>
<symbol
   id="flash0.ai_x5F_3_x2F_Layer_4_copy_x2F__x3C_Path_x3E__x5F_72"
   viewBox="-0.039 -1.062 0.719 1.109"
   transform="translate(93.950335,111.60502)">
	<g
   id="Layer_1_45_">
		<path
   style="clip-rule:evenodd;fill:#ffffff;fill-rule:evenodd"
   d="M 0.5,0 C 0.7,-0.2 0.733,-0.417 0.6,-0.65 0.5,-0.85 0.333,-0.983 0.1,-1.05 -0.067,-1.117 -0.084,-0.917 0.05,-0.45 0.217,-0.017 0.367,0.133 0.5,0 Z"
   id="path166"
   inkscape:connector-curvature="0" />
	</g>
</symbol>
<symbol
   id="flash0.ai_x5F_3_x2F_Layer_4_copy_x2F__x3C_Path_x3E__x5F_73"
   viewBox="-0.028 -0.95 0.79 0.975"
   transform="translate(93.950335,111.60502)">
	<g
   id="Layer_1_44_">
		<path
   style="clip-rule:evenodd;fill:#ffffff;fill-rule:evenodd"
   d="m 0.65,-0.2 c 0.1,-0.367 0.133,-0.583 0.1,-0.65 -0.033,-0.133 -0.2,-0.133 -0.5,0 -0.333,0.133 -0.367,0.35 -0.1,0.65 0.267,0.3 0.433,0.3 0.5,0 z"
   id="path170"
   inkscape:connector-curvature="0" />
	</g>
</symbol>
<symbol
   id="flash0.ai_x5F_3_x2F_Layer_4_copy_x2F__x3C_Path_x3E__x5F_74"
   viewBox="0 -0.907 1.034 0.936"
   transform="translate(93.950335,111.60502)">
	<g
   id="Layer_1_43_">
		<path
   style="clip-rule:evenodd;fill:#ffffff;fill-rule:evenodd"
   d="m 0.65,-0.2 c 0.434,-0.433 0.5,-0.667 0.2,-0.7 -0.3,-0.033 -0.55,0.05 -0.75,0.25 -0.133,0.2 -0.133,0.383 0,0.55 0.1,0.2 0.283,0.167 0.55,-0.1 z"
   id="path174"
   inkscape:connector-curvature="0" />
	</g>
</symbol>
<symbol
   id="flash0.ai_x5F_3_x2F_Layer_4_copy_x2F__x3C_Path_x3E__x5F_75"
   viewBox="0.017 -0.55 0.723 0.557"
   transform="translate(93.950335,111.60502)">
	<g
   id="Layer_1_42_">
		<path
   style="clip-rule:evenodd;fill:#ffffff;fill-rule:evenodd"
   d="M 0.3,0 C 0.933,-0.133 0.883,-0.317 0.15,-0.55 0.017,-0.517 -0.017,-0.417 0.05,-0.25 0.083,-0.05 0.167,0.033 0.3,0 Z"
   id="path178"
   inkscape:connector-curvature="0" />
	</g>
</symbol>
<symbol
   id="flash0.ai_x5F_3_x2F_Layer_4_copy_x2F__x3C_Path_x3E__x5F_76"
   viewBox="-0.029 -0.675 0.919 0.682"
   transform="translate(93.950335,111.60502)">
	<g
   id="Layer_1_41_">
		<path
   style="clip-rule:evenodd;fill:#ffffff;fill-rule:evenodd"
   d="M 0.4,0 C 0.867,-0.1 1,-0.25 0.8,-0.45 0.567,-0.65 0.35,-0.717 0.15,-0.65 -0.017,-0.617 -0.067,-0.483 0,-0.25 0.067,-0.05 0.2,0.033 0.4,0 Z"
   id="path182"
   inkscape:connector-curvature="0" />
	</g>
</symbol>
<symbol
   id="flash0.ai_x5F_3_x2F_Layer_4_copy_x2F__x3C_Path_x3E__x5F_77"
   viewBox="-0.046 -1.05 0.73 1.093"
   transform="translate(93.950335,111.60502)">
	<g
   id="Layer_1_40_">
		<path
   style="clip-rule:evenodd;fill:#ffffff;fill-rule:evenodd"
   d="M 0.65,-0.15 C 0.717,-0.383 0.683,-0.617 0.55,-0.85 0.383,-1.05 0.217,-1.1 0.05,-1 c -0.167,0.067 -0.117,0.3 0.15,0.7 0.233,0.4 0.383,0.45 0.45,0.15 z"
   id="path186"
   inkscape:connector-curvature="0" />
	</g>
</symbol>
<symbol
   id="flash0.ai_x5F_3_x2F_Layer_4_copy_x2F__x3C_Path_x3E__x5F_78"
   viewBox="0 -1.153 0.978 1.17"
   transform="translate(93.950335,111.60502)">
	<g
   id="Layer_1_39_">
		<path
   style="clip-rule:evenodd;fill:#ffffff;fill-rule:evenodd"
   d="M 0.7,0 C 1.033,-0.133 1.067,-0.383 0.8,-0.75 0.567,-1.117 0.35,-1.233 0.15,-1.1 c -0.2,0.133 -0.2,0.367 0,0.7 C 0.317,-0.067 0.5,0.067 0.7,0 Z"
   id="path190"
   inkscape:connector-curvature="0" />
	</g>
</symbol>
<symbol
   id="flash0.ai_x5F_3_x2F_Layer_4_copy_x2F__x3C_Path_x3E__x5F_79"
   viewBox="-0.012 -1.105 1.175 1.07"
   transform="translate(93.950335,111.60502)">
	<g
   id="Layer_1_38_">
		<path
   style="clip-rule:evenodd;fill:#ffffff;fill-rule:evenodd"
   d="m 0.85,-0.05 c 0.333,-0.067 0.4,-0.267 0.2,-0.6 C 0.883,-0.983 0.633,-1.133 0.3,-1.1 c -0.333,0.033 -0.4,0.233 -0.2,0.6 0.233,0.367 0.483,0.517 0.75,0.45 z"
   id="path194"
   inkscape:connector-curvature="0" />
	</g>
</symbol>
<symbol
   id="flash0.ai_x5F_3_x2F_Layer_4_copy_x2F__x3C_Path_x3E__x5F_80"
   viewBox="-0.014 -0.564 0.814 0.539"
   transform="translate(93.950335,111.60502)">
	<g
   id="Layer_1_37_">
		<path
   style="clip-rule:evenodd;fill:#ffffff;fill-rule:evenodd"
   d="m 0.6,-0.1 c 0.267,-0.167 0.267,-0.3 0,-0.4 -0.267,-0.1 -0.45,-0.083 -0.55,0.05 -0.1,0.1 -0.083,0.217 0.05,0.35 0.133,0.1 0.3,0.1 0.5,0 z"
   id="path198"
   inkscape:connector-curvature="0" />
	</g>
</symbol>
<symbol
   id="flash0.ai_x5F_3_x2F_Layer_4_copy_x2F__x3C_Path_x3E__x5F_81"
   viewBox="0.011 -0.768 1.33 0.773"
   transform="translate(93.950335,111.60502)">
	<g
   id="Layer_1_36_">
		<path
   style="clip-rule:evenodd;fill:#ffffff;fill-rule:evenodd"
   d="M 1.25,-0.4 C 0.983,-0.7 0.667,-0.817 0.3,-0.75 0,-0.717 -0.067,-0.583 0.1,-0.35 0.233,-0.117 0.4,0 0.6,0 1.267,0.033 1.483,-0.1 1.25,-0.4 Z"
   id="path202"
   inkscape:connector-curvature="0" />
	</g>
</symbol>
<symbol
   id="flash0.ai_x5F_3_x2F_Layer_4_copy_x2F__x3C_Path_x3E__x5F_82"
   viewBox="-0.052 -0.817 1.188 0.822"
   transform="translate(93.950335,111.60502)">
	<g
   id="Layer_1_35_">
		<path
   style="clip-rule:evenodd;fill:#ffffff;fill-rule:evenodd"
   d="M 1.1,-0.4 C 0.967,-0.733 0.7,-0.867 0.3,-0.8 -0.2,-0.667 -0.167,-0.4 0.4,0 1,0.033 1.233,-0.1 1.1,-0.4 Z"
   id="path206"
   inkscape:connector-curvature="0" />
	</g>
</symbol>
<symbol
   id="flash0.ai_x5F_3_x2F_Layer_4_copy_x2F__x3C_Path_x3E__x5F_83"
   viewBox="0.004 -0.8 1 0.818"
   transform="translate(93.950335,111.60502)">
	<g
   id="Layer_1_34_">
		<path
   style="clip-rule:evenodd;fill:#ffffff;fill-rule:evenodd"
   d="M 0.95,-0.35 C 0.817,-0.65 0.583,-0.8 0.25,-0.8 -0.017,-0.767 -0.067,-0.633 0.1,-0.4 0.233,-0.2 0.4,-0.067 0.6,0 0.967,0.067 1.083,-0.05 0.95,-0.35 Z"
   id="path210"
   inkscape:connector-curvature="0" />
	</g>
</symbol>
<symbol
   id="flash0.ai_x5F_3_x2F_Layer_4_copy_x2F__x3C_Path_x3E__x5F_84"
   viewBox="-0.015 -0.673 1.019 0.679"
   transform="translate(93.950335,111.60502)">
	<g
   id="Layer_1_33_">
		<path
   style="clip-rule:evenodd;fill:#ffffff;fill-rule:evenodd"
   d="M 1,-0.15 C 1.033,-0.317 0.85,-0.467 0.45,-0.6 0.083,-0.733 -0.067,-0.683 0,-0.45 c 0.033,0.233 0.133,0.367 0.3,0.4 0.4,0.1 0.633,0.067 0.7,-0.1 z"
   id="path214"
   inkscape:connector-curvature="0" />
	</g>
</symbol>
<symbol
   id="flash0.ai_x5F_3_x2F_Layer_4_copy_x2F__x3C_Path_x3E__x5F_85"
   viewBox="-0.02 -0.707 1.225 0.727"
   transform="translate(93.950335,111.60502)">
	<g
   id="Layer_1_32_">
		<path
   style="clip-rule:evenodd;fill:#ffffff;fill-rule:evenodd"
   d="M 1.2,-0.3 C 1.133,-0.533 0.883,-0.667 0.45,-0.7 0.016,-0.733 -0.117,-0.65 0.05,-0.45 0.217,-0.217 0.467,-0.067 0.8,0 1.1,0.067 1.233,-0.033 1.2,-0.3 Z"
   id="path218"
   inkscape:connector-curvature="0" />
	</g>
</symbol>
<symbol
   id="flash0.ai_x5F_3_x2F_Layer_4_copy_x2F__x3C_Path_x3E__x5F_86"
   viewBox="0 -0.75 1.172 0.72"
   transform="translate(93.950335,111.60502)">
	<g
   id="Layer_1_31_">
		<path
   style="clip-rule:evenodd;fill:#ffffff;fill-rule:evenodd"
   d="m 0.45,-0.05 c 0.566,0.066 0.8,-0.034 0.7,-0.3 -0.133,-0.267 -0.367,-0.4 -0.7,-0.4 -0.3,0 -0.45,0.117 -0.45,0.35 0.033,0.2 0.183,0.317 0.45,0.35 z"
   id="path222"
   inkscape:connector-curvature="0" />
	</g>
</symbol>
<symbol
   id="flash0.ai_x5F_3_x2F_Layer_4_copy_x2F__x3C_Path_x3E__x5F_87"
   viewBox="0.032 -0.706 1.092 0.711"
   transform="translate(93.950335,111.60502)">
	<g
   id="Layer_1_30_">
		<path
   style="clip-rule:evenodd;fill:#ffffff;fill-rule:evenodd"
   d="M 1.1,-0.35 C 1,-0.617 0.767,-0.733 0.4,-0.7 0.1,-0.667 -0.017,-0.55 0.05,-0.35 0.117,-0.15 0.25,-0.033 0.45,0 0.983,0.033 1.2,-0.083 1.1,-0.35 Z"
   id="path226"
   inkscape:connector-curvature="0" />
	</g>
</symbol>
<symbol
   id="flash0.ai_x5F_3_x2F_Layer_4_copy_x2F__x3C_Path_x3E__x5F_88"
   viewBox="-0.023 -0.65 0.985 0.65"
   transform="translate(93.950335,111.60502)">
	<g
   id="Layer_1_29_">
		<path
   style="clip-rule:evenodd;fill:#ffffff;fill-rule:evenodd"
   d="m 0.65,-0.05 c 0.333,-0.1 0.4,-0.25 0.2,-0.45 -0.2,-0.2 -0.417,-0.2 -0.65,0 -0.233,0.2 -0.284,0.35 -0.15,0.45 0.167,0.067 0.367,0.067 0.6,0 z"
   id="path230"
   inkscape:connector-curvature="0" />
	</g>
</symbol>
<symbol
   id="flash0.ai_x5F_3_x2F_Layer_4_copy_x2F__x3C_Path_x3E__x5F_89"
   viewBox="-0.006 -0.805 0.662 0.805"
   transform="translate(93.950335,111.60502)">
	<g
   id="Layer_1_28_">
		<path
   style="clip-rule:evenodd;fill:#ffffff;fill-rule:evenodd"
   d="M 0.35,0 C 0.583,0 0.683,-0.117 0.65,-0.35 0.617,-0.583 0.5,-0.733 0.3,-0.8 0.067,-0.833 -0.033,-0.7 0,-0.4 0.033,-0.133 0.15,0 0.35,0 Z"
   id="path234"
   inkscape:connector-curvature="0" />
	</g>
</symbol>
<symbol
   id="flash0.ai_x5F_3_x2F_Layer_4_copy_x2F__x3C_Path_x3E__x5F_90"
   viewBox="-0.02 -0.6 0.95 0.629"
   transform="translate(93.950335,111.60502)">
	<g
   id="Layer_1_27_">
		<path
   style="clip-rule:evenodd;fill:#ffffff;fill-rule:evenodd"
   d="m 0.75,0 c 0.2,-0.067 0.233,-0.2 0.1,-0.4 -0.133,-0.2 -0.333,-0.25 -0.6,-0.15 -0.3,0.1 -0.35,0.233 -0.15,0.4 C 0.267,0.017 0.483,0.067 0.75,0 Z"
   id="path238"
   inkscape:connector-curvature="0" />
	</g>
</symbol>
<symbol
   id="flash0.ai_x5F_3_x2F_Layer_4_copy_x2F__x3C_Path_x3E__x5F_91"
   viewBox="-0.032 -0.856 1.525 0.845"
   transform="translate(93.950335,111.60502)">
	<g
   id="Layer_1_26_">
		<path
   style="clip-rule:evenodd;fill:#ffffff;fill-rule:evenodd"
   d="M 0.5,-0.1 C 1.3,0.067 1.617,0 1.45,-0.3 1.25,-0.6 0.9,-0.783 0.4,-0.85 0.033,-0.883 -0.1,-0.767 0,-0.5 c 0.133,0.233 0.3,0.367 0.5,0.4 z"
   id="path242"
   inkscape:connector-curvature="0" />
	</g>
</symbol>
<symbol
   id="flash0.ai_x5F_3_x2F_Layer_4_copy_x2F__x3C_Path_x3E__x5F_92"
   viewBox="0.017 -0.937 0.986 0.949"
   transform="translate(93.950335,111.60502)">
	<g
   id="Layer_1_25_">
		<path
   style="clip-rule:evenodd;fill:#ffffff;fill-rule:evenodd"
   d="M 1,-0.3 C 1,-0.567 0.833,-0.767 0.5,-0.9 0.267,-1 0.117,-0.9 0.05,-0.6 -0.016,-0.3 0.017,-0.117 0.15,-0.05 0.75,0.083 1.033,0 1,-0.3 Z"
   id="path246"
   inkscape:connector-curvature="0" />
	</g>
</symbol>
<symbol
   id="flash0.ai_x5F_3_x2F_Layer_4_copy_x2F__x3C_Path_x3E__x5F_93"
   viewBox="0.014 -0.854 1.343 0.907"
   transform="translate(93.950335,111.60502)">
	<g
   id="Layer_1_24_">
		<path
   style="clip-rule:evenodd;fill:#ffffff;fill-rule:evenodd"
   d="m 1.25,-0.35 c -0.2,-0.367 -0.5,-0.533 -0.9,-0.5 -0.367,0.033 -0.433,0.15 -0.2,0.35 0.133,0.167 0.35,0.3 0.65,0.4 0.533,0.267 0.683,0.183 0.45,-0.25 z"
   id="path250"
   inkscape:connector-curvature="0" />
	</g>
</symbol>
<symbol
   id="flash0.ai_x5F_3_x2F_Layer_4_copy_x2F__x3C_Path_x3E__x5F_94"
   viewBox="0.038 -0.906 1.291 0.973"
   transform="translate(93.950335,111.60502)">
	<g
   id="Layer_1_23_">
		<path
   style="clip-rule:evenodd;fill:#ffffff;fill-rule:evenodd"
   d="m 1.25,-0.3 c -0.167,-0.4 -0.467,-0.6 -0.9,-0.6 -0.333,-0.033 -0.4,0.066 -0.2,0.3 0.133,0.167 0.317,0.317 0.55,0.45 0.567,0.333 0.75,0.283 0.55,-0.15 z"
   id="path254"
   inkscape:connector-curvature="0" />
	</g>
</symbol>
<symbol
   id="flash0.ai_x5F_3_x2F_Layer_4_copy_x2F__x3C_Path_x3E__x5F_95"
   viewBox="-0.029 -1.05 0.807 1.05"
   transform="translate(93.950335,111.60502)">
	<g
   id="Layer_1_22_">
		<path
   style="clip-rule:evenodd;fill:#ffffff;fill-rule:evenodd"
   d="m 0.6,-0.05 c 0.167,-0.133 0.217,-0.333 0.15,-0.6 -0.1,-0.233 -0.283,-0.367 -0.55,-0.4 -0.267,0 -0.3,0.2 -0.1,0.6 0.167,0.4 0.333,0.533 0.5,0.4 z"
   id="path258"
   inkscape:connector-curvature="0" />
	</g>
</symbol>
<symbol
   id="flash0.ai_x5F_3_x2F_Layer_4_copy_x2F__x3C_Path_x3E__x5F_96"
   viewBox="0.032 -1.073 1.098 1.125"
   transform="translate(93.950335,111.60502)">
	<g
   id="Layer_1_21_">
		<path
   style="clip-rule:evenodd;fill:#ffffff;fill-rule:evenodd"
   d="M 1.1,-0.25 C 1,-0.617 0.767,-0.867 0.4,-1 0.1,-1.133 -0.017,-1.083 0.05,-0.85 c 0.067,0.2 0.267,0.434 0.6,0.7 0.4,0.3 0.55,0.267 0.45,-0.1 z"
   id="path262"
   inkscape:connector-curvature="0" />
	</g>
</symbol>
<symbol
   id="flash0.ai_x5F_3_x2F_Layer_4_copy_x2F__x3C_Path_x3E__x5F_97"
   viewBox="-0.005 -0.945 1.005 0.97"
   transform="translate(93.950335,111.60502)">
	<g
   id="Layer_1_20_">
		<path
   style="clip-rule:evenodd;fill:#ffffff;fill-rule:evenodd"
   d="M 1,-0.2 C 1,-0.533 0.817,-0.766 0.45,-0.9 0.117,-1 -0.033,-0.933 0,-0.7 c 0,0.2 0.1,0.367 0.3,0.5 0.467,0.3 0.7,0.3 0.7,0 z"
   id="path266"
   inkscape:connector-curvature="0" />
	</g>
</symbol>
<symbol
   id="flash0.ai_x5F_3_x2F_Layer_4_copy_x2F__x3C_Path_x3E__x5F_98"
   viewBox="0.012 -0.954 1.242 0.954"
   transform="translate(93.950335,111.60502)">
	<g
   id="Layer_1_19_">
		<path
   style="clip-rule:evenodd;fill:#ffffff;fill-rule:evenodd"
   d="M 0.55,-0.1 C 1.15,0.1 1.367,0 1.2,-0.4 1,-0.8 0.717,-0.983 0.35,-0.95 c -0.3,0.034 -0.4,0.167 -0.3,0.4 0.067,0.233 0.233,0.383 0.5,0.45 z"
   id="path270"
   inkscape:connector-curvature="0" />
	</g>
</symbol>
<symbol
   id="flash0.ai_x5F_3_x2F_Layer_4_copy_x2F__x3C_Path_x3E__x5F_99"
   viewBox="-0.036 -0.706 1.256 0.711"
   transform="translate(93.950335,111.60502)">
	<g
   id="Layer_1_18_">
		<path
   style="clip-rule:evenodd;fill:#ffffff;fill-rule:evenodd"
   d="M 1.1,-0.35 C 0.933,-0.617 0.667,-0.733 0.3,-0.7 -0.067,-0.666 -0.133,-0.533 0.1,-0.3 0.333,-0.1 0.617,0 0.95,0 1.25,0.033 1.3,-0.083 1.1,-0.35 Z"
   id="path274"
   inkscape:connector-curvature="0" />
	</g>
</symbol>

<g
   id="g533"
   transform="matrix(7.4910602,0,0,7.4910602,-21.723794,-14.645956)">
	
		<radialGradient
   id="SVGID_1_"
   cx="13.0239"
   cy="-8.9517002"
   r="21.678801"
   gradientTransform="matrix(0.4645,0.7547,0.7547,-0.4645,16.4118,-2.3159)"
   gradientUnits="userSpaceOnUse">
		<stop
   offset="0"
   style="stop-color:#FFDE00"
   id="stop282" />
		<stop
   offset="1"
   style="stop-color:#E6BF00"
   id="stop284" />
	</radialGradient>
	<path
   style="clip-rule:evenodd;fill:url(#SVGID_1_);fill-rule:evenodd"
   d="m 30.194,9.013 c 1.802,1.447 3.221,3.19 4.254,5.229 0.148,0.207 0.576,0.443 1.285,0.709 0.591,0.207 0.961,0.591 1.107,1.152 0.119,0.473 0.015,0.99 -0.31,1.551 -0.443,0.739 -0.724,1.389 -0.842,1.95 -0.65,2.984 -2.289,5.657 -4.918,8.021 -3.132,2.835 -6.81,4.268 -11.034,4.297 -3.899,0.03 -7.06,-0.649 -9.482,-2.038 C 9.456,29.412 8.422,28.511 7.152,27.182 6.975,27.004 6.325,26.724 5.203,26.34 4.258,26.044 3.741,25.616 3.652,25.055 3.504,24.346 3.548,23.784 3.785,23.37 4.287,22.484 4.582,21.908 4.671,21.642 5.203,18.894 6.015,16.443 7.108,14.287 9.264,10.121 12.544,7.537 16.945,6.533 22.263,5.321 26.68,6.147 30.194,9.013 Z"
   id="path287"
   inkscape:connector-curvature="0" />
	
		<use
   xlink:href="#flash0.ai_x5F_3_x2F_Layer_4_copy_x2F__x3C_Compound_Path_x3E__x5F_3"
   width="25.450001"
   height="11.612"
   x="-0.2"
   y="-10.85"
   transform="matrix(0.8862,0,0,-0.8862,-70.658687,121.25397)"
   style="overflow:visible;opacity:0.12110003;enable-background:new"
   id="use289" />
	
		<use
   xlink:href="#flash0.ai_x5F_3_x2F_Layer_4_copy_x2F__x3C_Path_x3E__x5F_114"
   width="3.355"
   height="2.4630001"
   x="-0.037999999"
   y="-2.4630001"
   transform="matrix(0.8862,0,0,-0.8862,-49.458987,115.95417)"
   style="overflow:visible;opacity:0.12110003;enable-background:new"
   id="use291" />
	
		<use
   xlink:href="#flash0.ai_x5F_3_x2F_Layer_4_copy_x2F__x3C_Path_x3E__x5F_113"
   width="0.89999998"
   height="1.118"
   x="-0.0040000002"
   y="-1.104"
   transform="matrix(0.8862,0,0,-0.8862,-49.108387,117.95417)"
   style="overflow:visible;opacity:0.12110003;enable-background:new"
   id="use293" />
	
		<use
   xlink:href="#flash0.ai_x5F_3_x2F_Layer_4_copy_x2F__x3C_Path_x3E__x5F_112"
   width="1.5369999"
   height="0.741"
   x="-0.0060000001"
   y="-0.75"
   transform="matrix(0.8862,0,0,-0.8862,-63.258787,128.70417)"
   style="overflow:visible;opacity:0.12110003;enable-background:new"
   id="use295" />
	
		<use
   xlink:href="#flash0.ai_x5F_3_x2F_Layer_4_copy_x2F__x3C_Path_x3E__x5F_111"
   width="1.291"
   height="0.56300002"
   x="0.037999999"
   y="-0.55699998"
   transform="matrix(0.8862,0,0,-0.8862,-66.458987,129.60457)"
   style="overflow:visible;opacity:0.12110003;enable-background:new"
   id="use297" />
	
		<use
   xlink:href="#flash0.ai_x5F_3_x2F_Layer_4_copy_x2F__x3C_Path_x3E__x5F_110"
   width="1.517"
   height="1.221"
   x="0"
   y="-1.205"
   transform="matrix(0.8862,0,0,-0.8862,-60.058587,127.80477)"
   style="overflow:visible;opacity:0.12110003;enable-background:new"
   id="use299" />
	
		<use
   xlink:href="#flash0.ai_x5F_3_x2F_Layer_4_copy_x2F__x3C_Path_x3E__x5F_109"
   width="1.345"
   height="1.013"
   x="-0.025"
   y="-0.98799998"
   transform="matrix(0.8862,0,0,-0.8862,-57.058587,125.55477)"
   style="overflow:visible;opacity:0.12110003;enable-background:new"
   id="use301" />
	
		<use
   xlink:href="#flash0.ai_x5F_3_x2F_Layer_4_copy_x2F__x3C_Path_x3E__x5F_108"
   width="1.086"
   height="1.312"
   x="0.0089999996"
   y="-1.295"
   transform="matrix(0.8862,0,0,-0.8862,-52.508787,121.10457)"
   style="overflow:visible;opacity:0.12110003;enable-background:new"
   id="use303" />
	
		<use
   xlink:href="#flash0.ai_x5F_3_x2F_Layer_4_copy_x2F__x3C_Path_x3E__x5F_107"
   width="1.539"
   height="0.90899998"
   y="-0.87"
   transform="matrix(0.8862,0,0,-0.8862,-59.008787,125.75397)"
   style="overflow:visible;opacity:0.12110003;enable-background:new"
   id="use305"
   x="0" />
	
		<use
   xlink:href="#flash0.ai_x5F_3_x2F_Layer_4_copy_x2F__x3C_Path_x3E__x5F_106"
   width="0.86699998"
   height="0.44999999"
   x="-0.022"
   y="-0.44999999"
   transform="matrix(0.8862,0,0,-0.8862,-77.058587,125.20417)"
   style="overflow:visible;opacity:0.12110003;enable-background:new"
   id="use307" />
	
		<use
   xlink:href="#flash0.ai_x5F_3_x2F_Layer_4_copy_x2F__x3C_Path_x3E__x5F_105"
   width="1"
   height="0.77600002"
   y="-0.76999998"
   transform="matrix(0.8862,0,0,-0.8862,-76.858887,125.55477)"
   style="overflow:visible;opacity:0.12110003;enable-background:new"
   id="use309"
   x="0" />
	
		<use
   xlink:href="#flash0.ai_x5F_3_x2F_Layer_4_copy_x2F__x3C_Path_x3E__x5F_104"
   width="0.95899999"
   height="0.96799999"
   x="-0.0049999999"
   y="-0.95599997"
   transform="matrix(0.8862,0,0,-0.8862,-75.058587,124.65437)"
   style="overflow:visible;opacity:0.12110003;enable-background:new"
   id="use311" />
	
		<use
   xlink:href="#flash0.ai_x5F_3_x2F_Layer_4_copy_x2F__x3C_Path_x3E__x5F_103"
   width="0.73900002"
   height="0.64999998"
   x="0"
   y="-0.625"
   transform="matrix(0.8862,0,0,-0.8862,-75.058587,125.75397)"
   style="overflow:visible;opacity:0.12110003;enable-background:new"
   id="use313" />
	
		<use
   xlink:href="#flash0.ai_x5F_3_x2F_Layer_4_copy_x2F__x3C_Path_x3E__x5F_102"
   width="1.398"
   height="0.80699998"
   x="-0.037999999"
   y="-0.80699998"
   transform="matrix(0.8862,0,0,-0.8862,-69.608887,117.80427)"
   style="overflow:visible;opacity:0.44920002;enable-background:new"
   id="use315" />
	
		<use
   xlink:href="#flash0.ai_x5F_3_x2F_Layer_4_copy_x2F__x3C_Path_x3E__x5F_101"
   width="1.256"
   height="0.653"
   x="0.044"
   y="-0.65799999"
   transform="matrix(0.8862,0,0,-0.8862,-67.658687,117.05427)"
   style="overflow:visible;opacity:0.44920002;enable-background:new"
   id="use317" />
	
		<use
   xlink:href="#flash0.ai_x5F_3_x2F_Layer_4_copy_x2F__x3C_Path_x3E__x5F_100"
   width="1.226"
   height="0.78299999"
   x="0.014"
   y="-0.755"
   transform="matrix(0.8862,0,0,-0.8862,-65.358887,115.95417)"
   style="overflow:visible;opacity:0.44920002;enable-background:new"
   id="use319" />
	
		<use
   xlink:href="#flash0.ai_x5F_3_x2F_Layer_4_copy_x2F__x3C_Path_x3E__x5F_99"
   width="1.256"
   height="0.71100003"
   x="-0.035999998"
   y="-0.70599997"
   transform="matrix(0.8862,0,0,-0.8862,-68.558587,118.15437)"
   style="overflow:visible;opacity:0.44920002;enable-background:new"
   id="use321" />
	
		<use
   xlink:href="#flash0.ai_x5F_3_x2F_Layer_4_copy_x2F__x3C_Path_x3E__x5F_98"
   width="1.242"
   height="0.954"
   x="0.012"
   y="-0.954"
   transform="matrix(0.8862,0,0,-0.8862,-66.258787,117.20417)"
   style="overflow:visible;opacity:0.44920002;enable-background:new"
   id="use323" />
	
		<use
   xlink:href="#flash0.ai_x5F_3_x2F_Layer_4_copy_x2F__x3C_Path_x3E__x5F_97"
   width="1.005"
   height="0.97000003"
   x="-0.0049999999"
   y="-0.94499999"
   transform="matrix(0.8862,0,0,-0.8862,-63.608887,114.75447)"
   style="overflow:visible;opacity:0.44920002;enable-background:new"
   id="use325" />
	
		<use
   xlink:href="#flash0.ai_x5F_3_x2F_Layer_4_copy_x2F__x3C_Path_x3E__x5F_96"
   width="1.098"
   height="1.125"
   x="0.032000002"
   y="-1.073"
   transform="matrix(0.8862,0,0,-0.8862,-60.108387,113.15437)"
   style="overflow:visible;opacity:0.44920002;enable-background:new"
   id="use327" />
	
		<use
   xlink:href="#flash0.ai_x5F_3_x2F_Layer_4_copy_x2F__x3C_Path_x3E__x5F_95"
   width="0.80699998"
   height="1.05"
   x="-0.028999999"
   y="-1.05"
   transform="matrix(0.8862,0,0,-0.8862,-59.858387,110.55427)"
   style="overflow:visible;opacity:0.44920002;enable-background:new"
   id="use329" />
	
		<use
   xlink:href="#flash0.ai_x5F_3_x2F_Layer_4_copy_x2F__x3C_Path_x3E__x5F_94"
   width="1.291"
   height="0.97299999"
   x="0.037999999"
   y="-0.90600002"
   transform="matrix(0.8862,0,0,-0.8862,-61.808587,114.75447)"
   style="overflow:visible;opacity:0.44920002;enable-background:new"
   id="use331" />
	
		<use
   xlink:href="#flash0.ai_x5F_3_x2F_Layer_4_copy_x2F__x3C_Path_x3E__x5F_93"
   width="1.3430001"
   height="0.90700001"
   x="0.014"
   y="-0.85399997"
   transform="matrix(0.8862,0,0,-0.8862,-63.608887,117.05427)"
   style="overflow:visible;opacity:0.44920002;enable-background:new"
   id="use333" />
	
		<use
   xlink:href="#flash0.ai_x5F_3_x2F_Layer_4_copy_x2F__x3C_Path_x3E__x5F_92"
   width="0.986"
   height="0.949"
   x="0.017000001"
   y="-0.93699998"
   transform="matrix(0.8862,0,0,-0.8862,-64.158687,117.80427)"
   style="overflow:visible;opacity:0.44920002;enable-background:new"
   id="use335" />
	
		<use
   xlink:href="#flash0.ai_x5F_3_x2F_Layer_4_copy_x2F__x3C_Path_x3E__x5F_91"
   width="1.525"
   height="0.84500003"
   x="-0.032000002"
   y="-0.85600001"
   transform="matrix(0.8862,0,0,-0.8862,-66.458987,119.35457)"
   style="overflow:visible;opacity:0.44920002;enable-background:new"
   id="use337" />
	
		<use
   xlink:href="#flash0.ai_x5F_3_x2F_Layer_4_copy_x2F__x3C_Path_x3E__x5F_90"
   width="0.94999999"
   height="0.62900001"
   x="-0.02"
   y="-0.60000002"
   transform="matrix(0.8862,0,0,-0.8862,-69.608887,119.35457)"
   style="overflow:visible;opacity:0.44920002;enable-background:new"
   id="use339" />
	
		<use
   xlink:href="#flash0.ai_x5F_3_x2F_Layer_4_copy_x2F__x3C_Path_x3E__x5F_89"
   width="0.662"
   height="0.80500001"
   x="-0.0060000001"
   y="-0.80500001"
   transform="matrix(0.8862,0,0,-0.8862,-70.658687,119.35457)"
   style="overflow:visible;opacity:0.44920002;enable-background:new"
   id="use341" />
	
		<use
   xlink:href="#flash0.ai_x5F_3_x2F_Layer_4_copy_x2F__x3C_Path_x3E__x5F_88"
   width="0.98500001"
   height="0.64999998"
   x="-0.023"
   y="-0.64999998"
   transform="matrix(0.8862,0,0,-0.8862,-70.658687,119.90437)"
   style="overflow:visible;opacity:0.44920002;enable-background:new"
   id="use343" />
	
		<use
   xlink:href="#flash0.ai_x5F_3_x2F_Layer_4_copy_x2F__x3C_Path_x3E__x5F_87"
   width="1.092"
   height="0.71100003"
   x="0.032000002"
   y="-0.70599997"
   transform="matrix(0.8862,0,0,-0.8862,-69.758787,121.25397)"
   style="overflow:visible;opacity:0.44920002;enable-background:new"
   id="use345" />
	
		<use
   xlink:href="#flash0.ai_x5F_3_x2F_Layer_4_copy_x2F__x3C_Path_x3E__x5F_86"
   width="1.1720001"
   height="0.72000003"
   y="-0.75"
   transform="matrix(0.8862,0,0,-0.8862,-68.008787,121.10457)"
   style="overflow:visible;opacity:0.44920002;enable-background:new"
   id="use347"
   x="0" />
	
		<use
   xlink:href="#flash0.ai_x5F_3_x2F_Layer_4_copy_x2F__x3C_Path_x3E__x5F_85"
   width="1.225"
   height="0.727"
   x="-0.02"
   y="-0.70700002"
   transform="matrix(0.8862,0,0,-0.8862,-65.708987,119.75397)"
   style="overflow:visible;opacity:0.44920002;enable-background:new"
   id="use349" />
	
		<use
   xlink:href="#flash0.ai_x5F_3_x2F_Layer_4_copy_x2F__x3C_Path_x3E__x5F_84"
   width="1.0190001"
   height="0.67900002"
   x="-0.015"
   y="-0.67299998"
   transform="matrix(0.8862,0,0,-0.8862,-62.358387,117.95417)"
   style="overflow:visible;opacity:0.44920002;enable-background:new"
   id="use351" />
	
		<use
   xlink:href="#flash0.ai_x5F_3_x2F_Layer_4_copy_x2F__x3C_Path_x3E__x5F_83"
   width="1"
   height="0.81800002"
   x="0.0040000002"
   y="-0.80000001"
   transform="matrix(0.8862,0,0,-0.8862,-61.108387,117.05427)"
   style="overflow:visible;opacity:0.44920002;enable-background:new"
   id="use353" />
	
		<use
   xlink:href="#flash0.ai_x5F_3_x2F_Layer_4_copy_x2F__x3C_Path_x3E__x5F_82"
   width="1.188"
   height="0.82200003"
   x="-0.052000001"
   y="-0.81699997"
   transform="matrix(0.8862,0,0,-0.8862,-59.208987,108.75447)"
   style="overflow:visible;opacity:0.44920002;enable-background:new"
   id="use355" />
	
		<use
   xlink:href="#flash0.ai_x5F_3_x2F_Layer_4_copy_x2F__x3C_Path_x3E__x5F_81"
   width="1.33"
   height="0.773"
   x="0.011"
   y="-0.76800001"
   transform="matrix(0.8862,0,0,-0.8862,-68.708987,121.25397)"
   style="overflow:visible;opacity:0.44920002;enable-background:new"
   id="use357" />
	
		<use
   xlink:href="#flash0.ai_x5F_3_x2F_Layer_4_copy_x2F__x3C_Path_x3E__x5F_80"
   width="0.81400001"
   height="0.53899997"
   x="-0.014"
   y="-0.56400001"
   transform="matrix(0.8862,0,0,-0.8862,-70.658687,121.65437)"
   style="overflow:visible;opacity:0.44920002;enable-background:new"
   id="use359" />
	
		<use
   xlink:href="#flash0.ai_x5F_3_x2F_Layer_4_copy_x2F__x3C_Path_x3E__x5F_79"
   width="1.175"
   height="1.0700001"
   x="-0.012"
   y="-1.105"
   transform="matrix(0.8862,0,0,-0.8862,-59.858387,114.75447)"
   style="overflow:visible;opacity:0.44920002;enable-background:new"
   id="use361" />
	
		<use
   xlink:href="#flash0.ai_x5F_3_x2F_Layer_4_copy_x2F__x3C_Path_x3E__x5F_78"
   width="0.97799999"
   height="1.17"
   x="0"
   y="-1.153"
   transform="matrix(0.8862,0,0,-0.8862,-57.808587,112.50447)"
   style="overflow:visible;opacity:0.44920002;enable-background:new"
   id="use363" />
	
		<use
   xlink:href="#flash0.ai_x5F_3_x2F_Layer_4_copy_x2F__x3C_Path_x3E__x5F_77"
   width="0.73000002"
   height="1.0930001"
   x="-0.046"
   y="-1.05"
   transform="matrix(0.8862,0,0,-0.8862,-57.808587,110.55427)"
   style="overflow:visible;opacity:0.44920002;enable-background:new"
   id="use365" />
	
		<use
   xlink:href="#flash0.ai_x5F_3_x2F_Layer_4_copy_x2F__x3C_Path_x3E__x5F_76"
   width="0.91900003"
   height="0.68199998"
   x="-0.028999999"
   y="-0.67500001"
   transform="matrix(0.8862,0,0,-0.8862,-59.508787,107.50447)"
   style="overflow:visible;opacity:0.44920002;enable-background:new"
   id="use367" />
	
		<use
   xlink:href="#flash0.ai_x5F_3_x2F_Layer_4_copy_x2F__x3C_Path_x3E__x5F_75"
   width="0.72299999"
   height="0.55699998"
   x="0.017000001"
   y="-0.55000001"
   transform="matrix(0.8862,0,0,-0.8862,-60.108387,106.65437)"
   style="overflow:visible;opacity:0.44920002;enable-background:new"
   id="use369" />
	
		<use
   xlink:href="#flash0.ai_x5F_3_x2F_Layer_4_copy_x2F__x3C_Path_x3E__x5F_74"
   width="1.034"
   height="0.93599999"
   x="0"
   y="-0.90700001"
   transform="matrix(0.8862,0,0,-0.8862,-57.808587,108.40437)"
   style="overflow:visible;opacity:0.44920002;enable-background:new"
   id="use371" />
	
		<use
   xlink:href="#flash0.ai_x5F_3_x2F_Layer_4_copy_x2F__x3C_Path_x3E__x5F_73"
   width="0.79000002"
   height="0.97500002"
   x="-0.028000001"
   y="-0.94999999"
   transform="matrix(0.8862,0,0,-0.8862,-56.708987,109.45417)"
   style="overflow:visible;opacity:0.44920002;enable-background:new"
   id="use373" />
	
		<use
   xlink:href="#flash0.ai_x5F_3_x2F_Layer_4_copy_x2F__x3C_Path_x3E__x5F_72"
   width="0.71899998"
   height="1.109"
   x="-0.039000001"
   y="-1.062"
   transform="matrix(0.8862,0,0,-0.8862,-56.708987,111.55427)"
   style="overflow:visible;opacity:0.44920002;enable-background:new"
   id="use375" />
	
		<use
   xlink:href="#flash0.ai_x5F_3_x2F_Layer_4_copy_x2F__x3C_Path_x3E__x5F_71"
   width="0.764"
   height="0.89399999"
   x="-0.014"
   y="-0.89999998"
   transform="matrix(0.8862,0,0,-0.8862,-57.758787,113.85457)"
   style="overflow:visible;opacity:0.44920002;enable-background:new"
   id="use377" />
	
		<use
   xlink:href="#flash0.ai_x5F_3_x2F_Layer_4_copy_x2F__x3C_Path_x3E__x5F_70"
   width="1.247"
   height="1.2"
   x="0.082000002"
   y="-1.15"
   transform="matrix(0.8862,0,0,-0.8862,-59.508787,116.70417)"
   style="overflow:visible;opacity:0.44920002;enable-background:new"
   id="use379" />
	
		<use
   xlink:href="#flash0.ai_x5F_3_x2F_Layer_4_copy_x2F__x3C_Path_x3E__x5F_69"
   width="1.117"
   height="0.76300001"
   x="0.011"
   y="-0.722"
   transform="matrix(0.8862,0,0,-0.8862,-60.108387,117.95417)"
   style="overflow:visible;opacity:0.44920002;enable-background:new"
   id="use381" />
	
		<use
   xlink:href="#flash0.ai_x5F_3_x2F_Layer_4_copy_x2F__x3C_Path_x3E__x5F_68"
   width="1.52"
   height="0.86799997"
   x="-0.001"
   y="-0.80000001"
   transform="matrix(0.8862,0,0,-0.8862,-63.608887,119.90437)"
   style="overflow:visible;opacity:0.44920002;enable-background:new"
   id="use383" />
	
		<use
   xlink:href="#flash0.ai_x5F_3_x2F_Layer_4_copy_x2F__x3C_Path_x3E__x5F_67"
   width="1.064"
   height="0.56300002"
   x="0.015"
   y="-0.55699998"
   transform="matrix(0.8862,0,0,-0.8862,-66.258787,121.25397)"
   style="overflow:visible;opacity:0.44920002;enable-background:new"
   id="use385" />
	
		<use
   xlink:href="#flash0.ai_x5F_3_x2F_Layer_4_copy_x2F__x3C_Path_x3E__x5F_66"
   width="1.6569999"
   height="0.86400002"
   x="-0.025"
   y="-0.86400002"
   transform="matrix(0.8862,0,0,-0.8862,-70.658687,125.55477)"
   style="overflow:visible;opacity:0.05859997;enable-background:new"
   id="use387" />
	
		<use
   xlink:href="#flash0.ai_x5F_3_x2F_Layer_4_copy_x2F__x3C_Path_x3E__x5F_65"
   width="1.37"
   height="0.80500001"
   x="0.003"
   y="-0.80000001"
   transform="matrix(0.8862,0,0,-0.8862,-68.708987,125.75397)"
   style="overflow:visible;opacity:0.05859997;enable-background:new"
   id="use389" />
	
		<use
   xlink:href="#flash0.ai_x5F_3_x2F_Layer_4_copy_x2F__x3C_Path_x3E__x5F_64"
   width="1.719"
   height="1.0039999"
   x="-0.044"
   y="-1.0039999"
   transform="matrix(0.8862,0,0,-0.8862,-63.608887,124.65437)"
   style="overflow:visible;opacity:0.05859997;enable-background:new"
   id="use391" />
	
		<use
   xlink:href="#flash0.ai_x5F_3_x2F_Layer_4_copy_x2F__x3C_Path_x3E__x5F_63"
   width="1.584"
   height="1.317"
   x="-0.013"
   y="-1.3049999"
   transform="matrix(0.8862,0,0,-0.8862,-59.858387,123.25397)"
   style="overflow:visible;opacity:0.05859997;enable-background:new"
   id="use393" />
	
		<use
   xlink:href="#flash0.ai_x5F_3_x2F_Layer_4_copy_x2F__x3C_Path_x3E__x5F_62"
   width="0.92000002"
   height="0.60100001"
   x="-0.025"
   y="-0.60600001"
   transform="matrix(0.8862,0,0,-0.8862,-61.308587,125.55477)"
   style="overflow:visible;opacity:0.05859997;enable-background:new"
   id="use395" />
	
		<use
   xlink:href="#flash0.ai_x5F_3_x2F_Layer_4_copy_x2F__x3C_Path_x3E__x5F_61"
   width="1.526"
   height="1.5650001"
   x="-0.024"
   y="-1.53"
   transform="matrix(0.8862,0,0,-0.8862,-55.458987,119.35457)"
   style="overflow:visible;opacity:0.05859997;enable-background:new"
   id="use397" />
	
		<use
   xlink:href="#flash0.ai_x5F_3_x2F_Layer_4_copy_x2F__x3C_Path_x3E__x5F_60"
   width="1.034"
   height="1.312"
   x="-0.028000001"
   y="-1.239"
   transform="matrix(0.8862,0,0,-0.8862,-53.208987,117.20417)"
   style="overflow:visible;opacity:0.05859997;enable-background:new"
   id="use399" />
	
		<use
   xlink:href="#flash0.ai_x5F_3_x2F_Layer_4_copy_x2F__x3C_Path_x3E__x5F_59"
   width="0.98500001"
   height="1.406"
   x="0.0040000002"
   y="-1.364"
   transform="matrix(0.8862,0,0,-0.8862,-51.608387,114.55427)"
   style="overflow:visible;opacity:0.05859997;enable-background:new"
   id="use401" />
	
		<use
   xlink:href="#flash0.ai_x5F_3_x2F_Layer_4_copy_x2F__x3C_Path_x3E__x5F_58"
   width="0.917"
   height="1.365"
   x="-0.0070000002"
   y="-1.353"
   transform="matrix(0.8862,0,0,-0.8862,-53.208987,115.45417)"
   style="overflow:visible;opacity:0.05859997;enable-background:new"
   id="use403" />
	
		<use
   xlink:href="#flash0.ai_x5F_3_x2F_Layer_4_copy_x2F__x3C_Path_x3E__x5F_57"
   width="1.105"
   height="1.267"
   x="0.011"
   y="-1.2539999"
   transform="matrix(0.8862,0,0,-0.8862,-53.558587,119.35457)"
   style="overflow:visible;opacity:0.05859997;enable-background:new"
   id="use405" />
	
		<use
   xlink:href="#flash0.ai_x5F_3_x2F_Layer_4_copy_x2F__x3C_Path_x3E__x5F_56"
   width="1.567"
   height="1.357"
   x="0.0049999999"
   y="-1.35"
   transform="matrix(0.8862,0,0,-0.8862,-55.808587,121.25397)"
   style="overflow:visible;opacity:0.05859997;enable-background:new"
   id="use407" />
	
		<use
   xlink:href="#flash0.ai_x5F_3_x2F_Layer_4_copy_x2F__x3C_Path_x3E__x5F_55"
   width="1.476"
   height="1.045"
   x="-0.017999999"
   y="-1.017"
   transform="matrix(0.8862,0,0,-0.8862,-67.658687,124.45417)"
   style="overflow:visible;opacity:0.05859997;enable-background:new"
   id="use409" />
	
		<use
   xlink:href="#flash0.ai_x5F_3_x2F_Layer_4_copy_x2F__x3C_Path_x3E__x5F_54"
   width="1.127"
   height="0.90700001"
   x="-0.028999999"
   y="-0.89999998"
   transform="matrix(0.8862,0,0,-0.8862,-72.758787,125.55477)"
   style="overflow:visible;opacity:0.05859997;enable-background:new"
   id="use411" />
	
		<use
   xlink:href="#flash0.ai_x5F_3_x2F_Layer_4_copy_x2F__x3C_Path_x3E__x5F_53"
   width="1.472"
   height="1.369"
   x="-0.0040000002"
   y="-1.347"
   transform="matrix(0.8862,0,0,-0.8862,-56.708987,123.25397)"
   style="overflow:visible;opacity:0.05859997;enable-background:new"
   id="use413" />
	
		<use
   xlink:href="#flash0.ai_x5F_3_x2F_Layer_4_copy_x2F__x3C_Path_x3E__x5F_52"
   width="1.42"
   height="0.72000003"
   x="0.033"
   y="-0.69999999"
   transform="matrix(0.8862,0,0,-0.8862,-65.708987,125.75397)"
   style="overflow:visible;opacity:0.05859997;enable-background:new"
   id="use415" />
	
		<use
   xlink:href="#flash0.ai_x5F_3_x2F_Layer_4_copy_x2F__x3C_Compound_Path_x3E__x5F_2"
   width="37.603001"
   height="28.650999"
   y="-28.201"
   transform="matrix(0.8862,0,0,-0.8862,-79.508787,106.00447)"
   style="overflow:visible;opacity:0.07029999;enable-background:new"
   id="use417"
   x="0" />
	
		<use
   xlink:href="#flash0.ai_x5F_3_x2F_Layer_4_copy_x2F__x3C_Path_x3E__x5F_51"
   width="26.054001"
   height="18.662001"
   x="0.028999999"
   y="-18.677"
   transform="matrix(0.8862,0,0,-0.8862,-77.008787,106.50447)"
   style="overflow:visible;opacity:0.28910002;enable-background:new"
   id="use419" />
	
		<use
   xlink:href="#flash0.ai_x5F_3_x2F_Layer_4_copy_x2F__x3C_Path_x3E__x5F_50"
   width="21.469999"
   height="16.284"
   x="-0.0070000002"
   y="-16.308001"
   transform="matrix(0.8862,0,0,-0.8862,-76.508787,106.50447)"
   style="overflow:visible;opacity:0.16019999;enable-background:new"
   id="use421" />
	
		<use
   xlink:href="#flash0.ai_x5F_3_x2F_Layer_4_copy_x2F__x3C_Path_x3E__x5F_49"
   width="4.4910002"
   height="3.2019999"
   x="-0.0020000001"
   y="-3.2019999"
   transform="matrix(0.8862,0,0,-0.8862,-79.008787,121.65437)"
   style="overflow:visible;opacity:0.32809999;enable-background:new"
   id="use423" />
	<path
   style="clip-rule:evenodd;fill:#fdffe3;fill-rule:evenodd"
   d="M 4.894,23.104 C 5.308,23.016 5.44,23.149 5.293,23.503 5.115,23.827 4.909,24.005 4.672,24.034 4.465,24.064 4.406,23.916 4.495,23.591 4.583,23.296 4.716,23.134 4.894,23.104 Z"
   id="path425"
   inkscape:connector-curvature="0" />
	<path
   style="clip-rule:evenodd;fill:#fdffe3;fill-rule:evenodd"
   d="m 5.869,23.458 c 0.354,0 0.473,0.147 0.354,0.443 C 6.105,24.167 5.854,24.27 5.47,24.211 5.116,24.152 5.042,24.005 5.248,23.769 5.426,23.562 5.632,23.458 5.869,23.458 Z"
   id="path427"
   inkscape:connector-curvature="0" />
	<path
   style="clip-rule:evenodd;fill:#fdffe3;fill-rule:evenodd"
   d="m 6.001,22.66 c 0.147,0.03 0.207,0.134 0.178,0.311 0,0.178 -0.133,0.266 -0.399,0.266 C 5.514,23.208 5.44,23.09 5.558,22.883 5.677,22.676 5.824,22.602 6.001,22.66 Z"
   id="path429"
   inkscape:connector-curvature="0" />
	<path
   style="clip-rule:evenodd;fill:#fdffe3;fill-rule:evenodd"
   d="m 6.888,23.325 c 0.621,0.029 0.827,0.236 0.621,0.62 C 7.332,24.359 7.095,24.462 6.8,24.256 6.564,24.109 6.46,23.916 6.489,23.68 6.548,23.443 6.681,23.325 6.888,23.325 Z"
   id="path431"
   inkscape:connector-curvature="0" />
	<path
   style="clip-rule:evenodd;fill:#fdffe3;fill-rule:evenodd"
   d="m 6.312,24.345 c 0.443,0.059 0.635,0.236 0.576,0.531 C 6.8,25.172 6.563,25.274 6.18,25.187 5.855,25.098 5.751,24.92 5.869,24.655 c 0.089,-0.237 0.236,-0.34 0.443,-0.31 z"
   id="path433"
   inkscape:connector-curvature="0" />
	<path
   style="clip-rule:evenodd;fill:#fdffe3;fill-rule:evenodd"
   d="m 7.996,17.521 c 0.147,0.147 0.162,0.34 0.044,0.576 C 7.952,18.304 7.819,18.348 7.642,18.23 7.465,18.142 7.45,17.979 7.598,17.743 7.774,17.506 7.907,17.432 7.996,17.521 Z"
   id="path435"
   inkscape:connector-curvature="0" />
	<path
   style="clip-rule:evenodd;fill:#fdffe3;fill-rule:evenodd"
   d="M 8.35,18.185 C 8.734,17.978 8.822,18.17 8.616,18.761 8.438,19.322 8.202,19.514 7.907,19.337 7.641,19.19 7.597,18.983 7.774,18.717 7.892,18.54 8.084,18.363 8.35,18.185 Z"
   id="path437"
   inkscape:connector-curvature="0" />
	<path
   style="clip-rule:evenodd;fill:#fdffe3;fill-rule:evenodd"
   d="M 7.021,18.894 C 7.317,18.865 7.42,18.998 7.332,19.293 7.243,19.588 7.096,19.78 6.889,19.869 6.71,19.928 6.651,19.795 6.71,19.47 6.799,19.116 6.902,18.924 7.021,18.894 Z"
   id="path439"
   inkscape:connector-curvature="0" />
	<path
   style="clip-rule:evenodd;fill:#fdffe3;fill-rule:evenodd"
   d="m 7.685,19.736 c 0.414,-0.354 0.621,-0.236 0.621,0.354 0,0.118 -0.074,0.251 -0.221,0.398 C 7.937,20.635 7.745,20.71 7.509,20.71 7.272,20.681 7.199,20.547 7.287,20.312 7.346,20.046 7.479,19.854 7.685,19.736 Z"
   id="path441"
   inkscape:connector-curvature="0" />
	<path
   style="clip-rule:evenodd;fill:#fdffe3;fill-rule:evenodd"
   d="M 9.369,19.071 C 9.635,18.894 9.694,19.056 9.546,19.558 9.399,20.09 9.206,20.296 8.97,20.179 8.763,20.09 8.719,19.913 8.837,19.647 8.956,19.411 9.133,19.219 9.369,19.071 Z"
   id="path443"
   inkscape:connector-curvature="0" />
	<path
   style="clip-rule:evenodd;fill:#fdffe3;fill-rule:evenodd"
   d="M 9.236,18.141 C 9.679,17.875 9.812,17.934 9.635,18.318 9.487,18.732 9.281,18.909 9.014,18.85 8.807,18.82 8.763,18.702 8.881,18.496 9,18.318 9.118,18.2 9.236,18.141 Z"
   id="path445"
   inkscape:connector-curvature="0" />
	<path
   style="clip-rule:evenodd;fill:#fdffe3;fill-rule:evenodd"
   d="M 8.527,20.711 C 8.911,20.593 9.059,20.726 8.97,21.109 8.91,21.494 8.703,21.715 8.349,21.774 8.024,21.833 7.906,21.7 7.995,21.376 8.055,21.021 8.232,20.8 8.527,20.711 Z"
   id="path447"
   inkscape:connector-curvature="0" />
	<path
   style="clip-rule:evenodd;fill:#fdffe3;fill-rule:evenodd"
   d="m 9.812,21.021 c 0.384,-0.118 0.562,-0.045 0.532,0.222 -0.029,0.295 -0.221,0.442 -0.576,0.442 -0.296,0.03 -0.399,-0.059 -0.311,-0.266 0.089,-0.206 0.208,-0.339 0.355,-0.398 z"
   id="path449"
   inkscape:connector-curvature="0" />
	<path
   style="clip-rule:evenodd;fill:#fdffe3;fill-rule:evenodd"
   d="m 10.3,19.914 c 0.325,-0.295 0.473,-0.311 0.443,-0.044 -0.029,0.266 -0.133,0.428 -0.31,0.487 -0.147,0.059 -0.236,0.015 -0.266,-0.133 -0.06,-0.119 -0.015,-0.222 0.133,-0.31 z"
   id="path451"
   inkscape:connector-curvature="0" />
	<path
   style="clip-rule:evenodd;fill:#fdffe3;fill-rule:evenodd"
   d="m 10.3,18.628 c 0.177,0.177 0.222,0.325 0.133,0.443 -0.059,0.118 -0.162,0.178 -0.31,0.178 -0.118,-0.03 -0.133,-0.163 -0.044,-0.399 0.088,-0.266 0.161,-0.34 0.221,-0.222 z"
   id="path453"
   inkscape:connector-curvature="0" />
	<path
   style="clip-rule:evenodd;fill:#fdffe3;fill-rule:evenodd"
   d="m 8.616,22.306 c 0.118,0.118 0.118,0.207 0,0.267 -0.118,0.059 -0.251,0.059 -0.399,0 -0.148,-0.06 -0.148,-0.148 0,-0.267 0.178,-0.089 0.31,-0.089 0.399,0 z"
   id="path455"
   inkscape:connector-curvature="0" />
	<path
   style="clip-rule:evenodd;fill:#fdffe3;fill-rule:evenodd"
   d="m 7.065,21.376 c 0.029,0.177 0,0.266 -0.089,0.266 -0.089,0 -0.177,-0.089 -0.266,-0.266 -0.118,-0.148 -0.088,-0.222 0.089,-0.222 0.177,0 0.266,0.074 0.266,0.222 z"
   id="path457"
   inkscape:connector-curvature="0" />
	<path
   style="clip-rule:evenodd;fill:#fdffe3;fill-rule:evenodd"
   d="m 6.356,20.224 c 0.118,0.059 0.192,0.133 0.222,0.222 0.029,0.088 -0.015,0.147 -0.133,0.177 -0.118,0 -0.192,-0.074 -0.222,-0.222 0,-0.177 0.044,-0.237 0.133,-0.177 z"
   id="path459"
   inkscape:connector-curvature="0" />
	<path
   style="clip-rule:evenodd;fill:#fdffe3;fill-rule:evenodd"
   d="m 9.679,22.217 c 0.384,-0.088 0.532,-0.044 0.443,0.134 -0.118,0.206 -0.251,0.31 -0.399,0.31 -0.118,0.03 -0.192,-0.029 -0.221,-0.177 -0.03,-0.149 0.03,-0.237 0.177,-0.267 z"
   id="path461"
   inkscape:connector-curvature="0" />
	
		<use
   xlink:href="#flash0.ai_x5F_3_x2F_Layer_4_copy_x2F__x3C_Compound_Path_x3E__x5F_1"
   width="14.8"
   height="11.3"
   y="-11.3"
   transform="matrix(0.8862,0,0,-0.8862,-59.858387,105.25447)"
   style="overflow:visible;opacity:0.10160002;enable-background:new"
   id="use463"
   x="0" />
	<path
   style="clip-rule:evenodd;fill:#fdffe3;fill-rule:evenodd"
   d="m 11.584,13.4 c -0.295,0.177 -0.443,0.354 -0.443,0.532 -0.03,0.266 0.059,0.354 0.266,0.266 0.236,-0.089 0.414,-0.369 0.532,-0.842 0.059,-0.178 -0.059,-0.163 -0.355,0.044 z m -0.088,-0.665 c 0.177,-0.354 0.177,-0.502 0,-0.443 -0.207,0.059 -0.399,0.222 -0.576,0.487 -0.147,0.266 -0.133,0.414 0.044,0.443 0.178,0.03 0.355,-0.132 0.532,-0.487 z m 0.576,-0.886 c 0.266,-0.06 0.354,-0.222 0.266,-0.488 -0.059,-0.236 -0.236,-0.236 -0.532,0 -0.177,0.118 -0.236,0.251 -0.177,0.399 0.03,0.118 0.177,0.148 0.443,0.089 z m 0.133,2.924 c 0.325,0.059 0.591,-0.118 0.797,-0.532 0.207,-0.414 0.029,-0.547 -0.532,-0.399 -0.207,0.059 -0.369,0.222 -0.487,0.487 -0.088,0.267 -0.014,0.415 0.222,0.444 z m 0.532,-3.19 c -0.089,0.148 -0.029,0.221 0.177,0.221 0.237,0.03 0.399,-0.059 0.488,-0.266 0.089,-0.236 0.029,-0.325 -0.177,-0.266 -0.237,0.06 -0.399,0.164 -0.488,0.311 z m -0.355,0.709 c 0.147,-0.266 0,-0.325 -0.443,-0.177 -0.148,0.059 -0.237,0.163 -0.266,0.31 -0.03,0.147 0.044,0.236 0.221,0.266 0.208,-0.001 0.37,-0.133 0.488,-0.399 z m 1.418,0.133 c 0.089,-0.177 0.045,-0.266 -0.133,-0.266 -0.207,0 -0.472,0.088 -0.797,0.266 -0.147,0.089 -0.266,0.236 -0.354,0.443 -0.088,0.266 0,0.414 0.266,0.443 0.413,0.06 0.752,-0.236 1.018,-0.886 z m 0.886,1.241 c 0.207,-0.236 0.281,-0.428 0.222,-0.576 -0.059,-0.207 -0.325,-0.236 -0.797,-0.089 -0.266,0.059 -0.443,0.207 -0.532,0.443 -0.118,0.236 -0.104,0.473 0.044,0.709 0.118,0.206 0.295,0.222 0.532,0.044 0.118,-0.089 0.295,-0.265 0.531,-0.531 z m 0.931,-1.507 c -0.266,0.207 -0.414,0.502 -0.443,0.886 -0.059,0.443 0.147,0.649 0.62,0.62 0.443,-0.029 0.783,-0.251 1.02,-0.665 0.177,-0.295 0.251,-0.562 0.222,-0.797 0,-0.207 -0.118,-0.34 -0.355,-0.399 -0.296,-0.117 -0.65,0 -1.064,0.355 z m -1.152,0.31 c 0.354,-0.03 0.561,-0.266 0.62,-0.709 0.089,-0.414 -0.029,-0.546 -0.354,-0.399 -0.207,0.089 -0.384,0.295 -0.532,0.621 -0.148,0.354 -0.059,0.517 0.266,0.487 z m 1.817,-1.861 c 0.029,-0.414 -0.118,-0.561 -0.443,-0.443 -0.384,0.147 -0.591,0.369 -0.621,0.665 -0.029,0.325 0.133,0.472 0.488,0.443 0.354,-0.03 0.546,-0.252 0.576,-0.665 z m -0.975,-1.55 c -0.147,0.236 -0.044,0.384 0.311,0.443 0.414,0.059 0.723,-0.088 0.93,-0.443 0.236,-0.355 0.015,-0.473 -0.665,-0.355 -0.266,0.029 -0.458,0.148 -0.576,0.355 z m -1.684,1.151 c -0.266,0.266 -0.354,0.473 -0.266,0.621 0.148,0.177 0.488,-0.015 1.02,-0.577 0.531,-0.561 0.546,-0.738 0.044,-0.531 -0.296,0.118 -0.562,0.28 -0.798,0.487 z m 7.179,-0.886 c -0.355,0.089 -0.606,0.251 -0.754,0.487 -0.207,0.266 -0.074,0.428 0.398,0.488 0.502,0.088 0.827,-0.089 0.976,-0.532 0.117,-0.443 -0.089,-0.59 -0.62,-0.443 z m -2.969,0.576 c 0.295,0 0.546,-0.148 0.753,-0.443 0.236,-0.295 0.133,-0.428 -0.311,-0.398 -0.354,0.029 -0.591,0.177 -0.709,0.443 -0.088,0.265 0,0.398 0.267,0.398 z m 0.531,0.798 c -0.207,0.059 -0.355,0.281 -0.443,0.665 -0.089,0.384 0,0.591 0.266,0.621 0.354,0.088 0.679,-0.147 0.975,-0.709 0.295,-0.533 0.029,-0.725 -0.798,-0.577 z M 17.478,8.703 h 0.443 c 1.181,-0.502 1.167,-0.694 -0.045,-0.576 -0.207,0.029 -0.369,0.133 -0.487,0.31 -0.148,0.207 -0.118,0.295 0.089,0.266 z m 2.393,-0.488 c -0.295,-0.029 -0.458,0.074 -0.487,0.311 -0.029,0.237 0.104,0.339 0.398,0.31 0.325,-0.03 0.561,-0.133 0.709,-0.31 0.118,-0.178 -0.089,-0.281 -0.62,-0.311 z m 1.151,0 c 0.178,0.089 0.399,0.148 0.665,0.178 0.266,0.029 0.414,0.015 0.443,-0.045 l 0.31,0.311 c -0.414,0.059 -0.694,0.162 -0.842,0.31 -0.177,0.147 -0.089,0.311 0.267,0.487 0.088,0.059 0.222,0.089 0.397,0.089 -0.146,0.088 -0.222,0.177 -0.222,0.266 -0.029,0.207 -0.19,0.34 -0.486,0.399 -0.473,0.118 -0.828,0.251 -1.063,0.399 -1.034,0.649 -1.596,1.211 -1.684,1.684 -0.532,0.059 -1.388,0.709 -2.57,1.95 -0.236,0.207 -0.665,0.384 -1.285,0.532 0.177,-0.147 0.295,-0.295 0.354,-0.443 0.029,-0.177 -0.044,-0.251 -0.222,-0.222 -0.236,0.06 -0.428,0.163 -0.576,0.311 -0.177,0.177 -0.207,0.325 -0.089,0.443 l -0.753,0.044 c 0,-0.118 -0.118,-0.147 -0.354,-0.088 -0.118,0 -0.251,0.074 -0.399,0.222 -0.472,0.059 -0.768,0.162 -0.886,0.31 l -0.576,-0.398 c 0.059,-0.118 0.089,-0.236 0.089,-0.354 0.029,-0.118 -0.044,-0.163 -0.222,-0.133 -0.147,0.06 -0.281,0.148 -0.399,0.266 L 10.21,14.467 c 0.236,-0.118 0.384,-0.266 0.443,-0.443 0.059,-0.177 -0.089,-0.251 -0.443,-0.222 -0.177,0 -0.339,0.089 -0.487,0.266 -0.059,-0.177 0,-0.414 0.177,-0.709 0.148,0.148 0.295,0.148 0.443,0 0.118,-0.088 0.178,-0.222 0.178,-0.399 0.029,-0.177 0,-0.295 -0.089,-0.354 l 0.266,-0.355 c 0,0.089 0.074,0.089 0.222,0 0.266,-0.177 0.428,-0.428 0.488,-0.753 l 0.753,-0.753 c 0.118,0.059 0.281,0.029 0.487,-0.089 0.236,-0.147 0.399,-0.295 0.487,-0.443 0.118,-0.177 0.03,-0.207 -0.266,-0.089 l 0.709,-0.532 c 0.207,0.118 0.473,0.089 0.798,-0.088 0.59,-0.354 0.753,-0.561 0.487,-0.62 0.325,-0.178 0.768,-0.369 1.329,-0.576 0.739,0.236 1.226,0.118 1.462,-0.354 H 17.7 c 0.059,0 0.428,-0.044 1.107,-0.133 0,0.118 0.118,0.207 0.354,0.266 0.177,0.03 0.325,0 0.443,-0.088 0.147,-0.06 0.162,-0.133 0.044,-0.222 l 1.153,0.089 c -0.059,0.113 0.015,0.231 0.221,0.349 z"
   id="path465"
   inkscape:connector-curvature="0" />
	<path
   style="clip-rule:evenodd;fill:#fdffe3;fill-rule:evenodd"
   d="m 18.187,13.134 c 0.532,0 0.665,0.148 0.399,0.443 -0.266,0.325 -0.621,0.517 -1.064,0.577 -0.354,0.088 -0.384,-0.06 -0.088,-0.443 0.295,-0.385 0.546,-0.577 0.753,-0.577 z"
   id="path467"
   inkscape:connector-curvature="0" />
	<path
   style="clip-rule:evenodd;fill:#fdffe3;fill-rule:evenodd"
   d="m 15.085,15.394 c 0.443,-0.03 0.768,-0.192 0.975,-0.488 0.177,-0.177 0.236,-0.118 0.177,0.177 -0.088,0.266 -0.266,0.428 -0.531,0.487 -0.266,0.059 -0.473,0.044 -0.621,-0.044 -0.207,-0.088 -0.207,-0.132 0,-0.132 z"
   id="path469"
   inkscape:connector-curvature="0" />
	<path
   style="clip-rule:evenodd;fill:#fdffe3;fill-rule:evenodd"
   d="m 13.18,16.103 c 0.148,0 0.354,-0.029 0.62,-0.089 0.148,-0.059 0.207,-0.059 0.178,0 -0.06,0.118 -0.192,0.237 -0.399,0.355 -0.236,0.147 -0.428,0.177 -0.576,0.088 -0.147,-0.059 -0.192,-0.133 -0.133,-0.222 0.029,-0.058 0.132,-0.103 0.31,-0.132 z"
   id="path471"
   inkscape:connector-curvature="0" />
	<path
   style="clip-rule:evenodd;fill:#fdffe3;fill-rule:evenodd"
   d="m 15.218,16.28 c 0.266,-0.148 0.488,-0.207 0.665,-0.177 0.148,0.029 0.177,0.089 0.088,0.177 -0.325,0.325 -0.605,0.473 -0.842,0.443 -0.354,-0.029 -0.325,-0.177 0.089,-0.443 z"
   id="path473"
   inkscape:connector-curvature="0" />
	<path
   style="clip-rule:evenodd;fill:#fdffe3;fill-rule:evenodd"
   d="m 17.788,15.128 c 0.088,-0.118 0.221,-0.177 0.399,-0.177 0.207,-0.029 0.281,0.015 0.221,0.133 -0.029,0.118 -0.177,0.222 -0.443,0.311 -0.236,0.118 -0.384,0.147 -0.443,0.088 -0.059,-0.03 -0.059,-0.059 0,-0.088 0.118,-0.09 0.207,-0.179 0.266,-0.267 z"
   id="path475"
   inkscape:connector-curvature="0" />
	<path
   style="clip-rule:evenodd;fill:#fdffe3;fill-rule:evenodd"
   d="m 19.339,12.514 c 0.148,-0.148 0.31,-0.207 0.487,-0.177 0.177,0 0.236,0.074 0.177,0.221 -0.088,0.118 -0.236,0.251 -0.443,0.399 -0.206,0.118 -0.398,0.163 -0.576,0.133 -0.147,-0.06 -0.162,-0.148 -0.044,-0.266 0.089,-0.059 0.222,-0.163 0.399,-0.31 z"
   id="path477"
   inkscape:connector-curvature="0" />
	<path
   style="clip-rule:evenodd;fill:#fdffe3;fill-rule:evenodd"
   d="m 21.422,10.785 c 0.117,0.207 0.044,0.458 -0.222,0.753 -0.267,0.296 -0.532,0.443 -0.798,0.443 -0.207,0 -0.251,-0.089 -0.133,-0.266 0.118,-0.148 0.251,-0.237 0.398,-0.266 0.089,0 0.236,-0.148 0.443,-0.443 0.149,-0.235 0.252,-0.309 0.312,-0.221 z"
   id="path479"
   inkscape:connector-curvature="0" />
	<path
   style="clip-rule:evenodd;fill:#fdffe3;fill-rule:evenodd"
   d="m 20.979,12.469 c 0.177,-0.148 0.251,-0.133 0.222,0.044 -0.06,0.177 -0.178,0.325 -0.354,0.443 -0.148,0.118 -0.296,0.163 -0.443,0.133 -0.147,0 -0.192,-0.044 -0.133,-0.133 0.057,-0.117 0.293,-0.28 0.708,-0.487 z"
   id="path481"
   inkscape:connector-curvature="0" />
	<path
   style="clip-rule:evenodd;fill:#fdffe3;fill-rule:evenodd"
   d="m 19.516,14.108 c 0.295,-0.177 0.414,-0.162 0.354,0.045 -0.059,0.206 -0.207,0.325 -0.443,0.354 -0.354,0.03 -0.324,-0.103 0.089,-0.399 z"
   id="path483"
   inkscape:connector-curvature="0" />
	<path
   style="clip-rule:evenodd;fill:#fdffe3;fill-rule:evenodd"
   d="m 22.795,10.032 c 0.118,-0.207 0.236,-0.236 0.354,-0.088 0.089,0.147 -0.029,0.325 -0.354,0.531 -0.296,0.177 -0.398,0.207 -0.311,0.089 0.031,-0.089 0.134,-0.266 0.311,-0.532 z"
   id="path485"
   inkscape:connector-curvature="0" />
	<path
   style="clip-rule:evenodd;fill:#fdffe3;fill-rule:evenodd"
   d="m 22.396,11.893 c 0.324,-0.207 0.413,-0.177 0.266,0.089 -0.147,0.236 -0.324,0.354 -0.531,0.354 -0.236,0.03 -0.149,-0.118 0.265,-0.443 z"
   id="path487"
   inkscape:connector-curvature="0" />
	<path
   style="clip-rule:evenodd;fill:#fdffe3;fill-rule:evenodd"
   d="m 11.851,15.881 c 0,0.473 -0.163,0.488 -0.488,0.045 -0.147,-0.178 -0.104,-0.281 0.133,-0.311 0.236,-0.029 0.355,0.059 0.355,0.266 z"
   id="path489"
   inkscape:connector-curvature="0" />
	<path
   style="clip-rule:evenodd;fill:#fdffe3;fill-rule:evenodd"
   d="m 12.161,16.634 c 0.236,0.06 0.34,0.147 0.31,0.266 -0.029,0.118 -0.177,0.148 -0.443,0.089 -0.266,-0.089 -0.34,-0.177 -0.222,-0.266 0.089,-0.089 0.207,-0.118 0.355,-0.089 z"
   id="path491"
   inkscape:connector-curvature="0" />
	<path
   style="clip-rule:evenodd;fill:#fdffe3;fill-rule:evenodd"
   d="m 13.49,17.078 c 0.088,0 0.236,-0.03 0.443,-0.089 0.088,-0.029 0.148,0 0.177,0.089 0.029,0.118 -0.029,0.221 -0.177,0.31 -0.177,0.089 -0.414,0.104 -0.709,0.044 -0.236,-0.03 -0.28,-0.104 -0.133,-0.222 0.148,-0.088 0.281,-0.132 0.399,-0.132 z"
   id="path493"
   inkscape:connector-curvature="0" />
	<path
   style="clip-rule:evenodd;fill:#fdffe3;fill-rule:evenodd"
   d="m 14.598,17.343 c 0.443,-0.177 0.649,-0.207 0.62,-0.088 0,0.118 -0.073,0.222 -0.221,0.31 -0.147,0.088 -0.325,0.118 -0.532,0.088 -0.236,-0.058 -0.192,-0.162 0.133,-0.31 z"
   id="path495"
   inkscape:connector-curvature="0" />
	<path
   style="clip-rule:evenodd;fill:#fdffe3;fill-rule:evenodd"
   d="m 9.369,14.685 c 0.03,0.295 -0.044,0.384 -0.222,0.266 -0.177,-0.148 -0.251,-0.31 -0.222,-0.488 0.06,-0.147 0.133,-0.191 0.222,-0.133 0.119,0.06 0.192,0.178 0.222,0.355 z"
   id="path497"
   inkscape:connector-curvature="0" />
	<path
   style="clip-rule:evenodd;fill:#fdffe3;fill-rule:evenodd"
   d="m 9.812,15.349 c 0.384,0.207 0.546,0.34 0.488,0.399 C 10.123,15.837 9.901,15.792 9.635,15.615 9.487,15.556 9.457,15.482 9.546,15.394 9.635,15.305 9.724,15.291 9.812,15.349 Z"
   id="path499"
   inkscape:connector-curvature="0" />
	<path
   style="clip-rule:evenodd;fill:#fdffe3;fill-rule:evenodd"
   d="m 10.565,16.103 c 0.177,0.029 0.31,0.104 0.399,0.222 0.059,0.059 0.059,0.118 0,0.177 -0.148,0.147 -0.384,0.104 -0.709,-0.133 -0.118,-0.089 -0.133,-0.163 -0.044,-0.222 0.06,-0.059 0.178,-0.074 0.354,-0.044 z"
   id="path501"
   inkscape:connector-curvature="0" />
	<path
   style="clip-rule:evenodd;fill:#fdffe3;fill-rule:evenodd"
   d="M 9.059,15.261 C 9.177,15.468 9.147,15.542 8.971,15.483 8.793,15.395 8.675,15.276 8.617,15.129 8.587,14.981 8.632,14.922 8.75,14.952 8.867,15.01 8.971,15.113 9.059,15.261 Z"
   id="path503"
   inkscape:connector-curvature="0" />
	<path
   style="clip-rule:evenodd;fill:#fdffe3;fill-rule:evenodd"
   d="m 12.028,17.609 c 0.148,0 0.266,0.029 0.354,0.089 0.088,0.059 0.044,0.118 -0.133,0.177 -0.266,0.089 -0.517,-0.044 -0.753,-0.398 -0.088,-0.118 -0.059,-0.133 0.088,-0.044 0.237,0.117 0.385,0.176 0.444,0.176 z"
   id="path505"
   inkscape:connector-curvature="0" />
	<path
   style="clip-rule:evenodd;fill:#fdffe3;fill-rule:evenodd"
   d="m 17.168,16.191 c 0.266,-0.118 0.398,-0.089 0.398,0.088 0,0.089 -0.088,0.163 -0.266,0.222 -0.207,0.089 -0.429,0.118 -0.665,0.089 -0.207,-0.03 -0.236,-0.074 -0.089,-0.133 0.09,-0.029 0.297,-0.118 0.622,-0.266 z"
   id="path507"
   inkscape:connector-curvature="0" />
	<path
   style="clip-rule:evenodd;fill:#fdffe3;fill-rule:evenodd"
   d="m 19.206,15.128 c 0.177,-0.059 0.236,-0.03 0.177,0.088 -0.059,0.118 -0.192,0.192 -0.399,0.222 -0.177,0.029 -0.222,0 -0.133,-0.089 0.089,-0.088 0.207,-0.162 0.355,-0.221 z"
   id="path509"
   inkscape:connector-curvature="0" />
	<path
   style="clip-rule:evenodd;fill:#fdffe3;fill-rule:evenodd"
   d="m 21.377,13.976 c 0.267,-0.177 0.369,-0.162 0.311,0.044 -0.089,0.237 -0.296,0.355 -0.62,0.355 -0.266,-0.03 -0.164,-0.163 0.309,-0.399 z"
   id="path511"
   inkscape:connector-curvature="0" />
	<path
   style="clip-rule:evenodd;fill:#917200;fill-rule:evenodd"
   d="M 3.786,25.187 3.875,24.965 3.476,24.389 C 3.387,24.271 3.328,24.138 3.299,23.99 v -0.177 l 0.398,0.222 c 0.118,0.118 0.192,0.296 0.222,0.532 l 0.266,-1.108 0.266,1.063 c -0.029,0.177 -0.147,0.325 -0.354,0.443 l 0.354,0.222 c 0.207,0.177 0.325,0.339 0.354,0.487 0,0.266 -0.044,0.443 -0.133,0.531 L 4.096,25.054 3.963,25.364 C 3.875,25.571 3.8,25.675 3.742,25.675 3.683,25.467 3.697,25.305 3.786,25.187 Z"
   id="path513"
   inkscape:connector-curvature="0" />
	<path
   style="clip-rule:evenodd;fill:#7db51c;fill-rule:evenodd"
   d="M 3.697,24.965 3.254,24.477 2.9,23.945 c 0.059,-0.029 0.118,-0.044 0.177,-0.044 0.118,0 0.207,0.029 0.266,0.088 0.178,0.178 0.311,0.37 0.399,0.577 l 0.044,-0.665 0.177,-0.443 0.133,0.178 c 0.059,0.177 0.104,0.369 0.133,0.575 0.06,0.355 0.015,0.606 -0.133,0.754 l 0.443,0.487 c 0.088,0.236 0.073,0.517 -0.044,0.842 -0.03,0.03 -0.104,-0.015 -0.222,-0.133 -0.147,-0.178 -0.251,-0.385 -0.31,-0.62 L 3.919,25.23 3.697,25.584 c -0.088,0.06 -0.192,0.089 -0.31,0.089 -0.059,-0.295 0.045,-0.531 0.31,-0.708 z"
   id="path515"
   inkscape:connector-curvature="0" />
	<path
   style="clip-rule:evenodd;fill:#6a9918;fill-rule:evenodd"
   d="m 3.786,23.901 0.177,-0.443 v 0.531 c -0.03,0.385 0.015,0.709 0.133,0.976 l 0.443,0.487 c 0.088,0.236 0.073,0.517 -0.044,0.842 H 4.451 L 4.407,25.983 3.742,24.566 Z"
   id="path517"
   inkscape:connector-curvature="0" />
	
		<radialGradient
   id="SVGID_2_"
   cx="-8.7339001"
   cy="21.4063"
   r="0.61449999"
   gradientTransform="matrix(0.8833,-0.0721,-0.3785,-0.8112,19.5591,41.6985)"
   gradientUnits="userSpaceOnUse">
		<stop
   offset="0"
   style="stop-color:#7DB51C"
   id="stop519" />
		<stop
   offset="1"
   style="stop-color:#466610"
   id="stop521" />
	</radialGradient>
	<path
   style="clip-rule:evenodd;fill:url(#SVGID_2_);fill-rule:evenodd"
   d="m 3.786,24.876 -0.044,-0.31 c 0.029,-0.119 0.103,-0.134 0.221,-0.045 0.088,0.089 0.147,0.207 0.177,0.354 0.088,0.266 0.044,0.398 -0.133,0.398 -0.06,0.03 -0.104,0 -0.133,-0.088 -0.029,-0.117 -0.059,-0.22 -0.088,-0.309 z"
   id="path524"
   inkscape:connector-curvature="0" />
	
		<radialGradient
   id="SVGID_3_"
   cx="-8.8529997"
   cy="21.4482"
   r="0.61449999"
   gradientTransform="matrix(0.8833,-0.0721,-0.3785,-0.8112,19.5918,41.7686)"
   gradientUnits="userSpaceOnUse">
		<stop
   offset="0"
   style="stop-color:#7DB51C"
   id="stop526" />
		<stop
   offset="1"
   style="stop-color:#6A9918"
   id="stop528" />
	</radialGradient>
	<path
   style="clip-rule:evenodd;fill:url(#SVGID_3_);fill-rule:evenodd"
   d="m 3.609,24.832 c -0.03,-0.089 0,-0.178 0.088,-0.266 0.089,-0.09 0.163,-0.075 0.222,0.044 0.089,0.118 0.148,0.251 0.177,0.398 0.03,0.147 0,0.236 -0.088,0.266 C 3.83,25.363 3.697,25.216 3.609,24.832 Z"
   id="path531"
   inkscape:connector-curvature="0" />
</g>
</svg>