<?xml version="1.0" encoding="UTF-8" standalone="no"?>
<!-- Generator: Adobe Illustrator 15.1.0, SVG Export Plug-In . SVG Version: 6.00 Build 0)  -->

<svg
   xmlns:dc="http://purl.org/dc/elements/1.1/"
   xmlns:cc="http://creativecommons.org/ns#"
   xmlns:rdf="http://www.w3.org/1999/02/22-rdf-syntax-ns#"
   xmlns:svg="http://www.w3.org/2000/svg"
   xmlns="http://www.w3.org/2000/svg"
   xmlns:xlink="http://www.w3.org/1999/xlink"
   xmlns:sodipodi="http://sodipodi.sourceforge.net/DTD/sodipodi-0.dtd"
   xmlns:inkscape="http://www.inkscape.org/namespaces/inkscape"
   version="1.1"
   id="flash0.ai"
   x="0px"
   y="0px"
   width="256"
   height="256"
   viewBox="0 0 255.99999 256"
   xml:space="preserve"
   sodipodi:docname="mangosteen.svg"
   inkscape:version="0.92.4 (5da689c313, 2019-01-14)"
   inkscape:export-filename="C:\Users\antum\Development\game-resources\icon\CC0\food\individual\Glitch\32x32\fruit\mangosteen.png"
   inkscape:export-xdpi="10.5"
   inkscape:export-ydpi="10.5"><title
   id="title936">Mangosteen</title><metadata
   id="metadata129"><rdf:RDF><cc:Work
       rdf:about=""><dc:format>image/svg+xml</dc:format><dc:type
         rdf:resource="http://purl.org/dc/dcmitype/StillImage" /><dc:title>Mangosteen</dc:title><cc:license
         rdf:resource="http://creativecommons.org/publicdomain/zero/1.0/" /><dc:creator><cc:Agent><dc:title>Glitch</dc:title></cc:Agent></dc:creator><dc:source>https://opengameart.org/node/20149</dc:source></cc:Work><cc:License
       rdf:about="http://creativecommons.org/publicdomain/zero/1.0/"><cc:permits
         rdf:resource="http://creativecommons.org/ns#Reproduction" /><cc:permits
         rdf:resource="http://creativecommons.org/ns#Distribution" /><cc:permits
         rdf:resource="http://creativecommons.org/ns#DerivativeWorks" /></cc:License></rdf:RDF></metadata><defs
   id="defs127" /><sodipodi:namedview
   pagecolor="#ffffff"
   bordercolor="#666666"
   borderopacity="1"
   objecttolerance="10"
   gridtolerance="10"
   guidetolerance="10"
   inkscape:pageopacity="0"
   inkscape:pageshadow="2"
   inkscape:window-width="1920"
   inkscape:window-height="1025"
   id="namedview125"
   showgrid="false"
   inkscape:zoom="1.0377935"
   inkscape:cx="-189.28437"
   inkscape:cy="71.462158"
   inkscape:window-x="-8"
   inkscape:window-y="-8"
   inkscape:window-maximized="1"
   inkscape:current-layer="flash0.ai"
   fit-margin-top="0"
   fit-margin-left="0"
   fit-margin-right="0"
   fit-margin-bottom="0" />
<symbol
   id="flash0.ai_x5F_0_x2F_Layer_4_x2F__x3C_Group_x3E_"
   viewBox="0 -2.973 8.19 2.973"
   transform="translate(99.300026,107.89592)">
	<g
   id="Layer_1_6_">
		<g
   id="g8">
			<path
   style="clip-rule:evenodd;fill:#374d00;fill-rule:evenodd"
   d="m 7.65,-2.05 c -0.633,-0.333 -1.316,-0.333 -2.05,0 0.066,-0.133 0.066,-0.267 0,-0.4 -0.167,-0.267 -0.567,-0.433 -1.2,-0.5 -0.833,-0.1 -1.2,0.133 -1.1,0.7 -0.2,-0.467 -0.65,-0.633 -1.35,-0.5 -0.467,0.1 -0.7,0.3 -0.7,0.6 0.2,-0.133 0.483,-0.183 0.85,-0.15 0.6,0.066 0.917,0.35 0.95,0.85 l 0.35,-0.2 c 0.233,-0.1 0.4,-0.133 0.5,-0.1 0.167,0.067 0.317,0.25 0.45,0.55 1.1,-0.833 1.783,-1.117 2.05,-0.85 0.233,0.3 0.233,0.583 0,0.85 l 0.5,-0.35 c 0.333,-0.233 0.567,-0.3 0.7,-0.2 0.066,0.033 0.15,0.167 0.25,0.4 0.233,-0.3 0.167,-0.533 -0.2,-0.7 z"
   id="path2"
   inkscape:connector-curvature="0" />
			<path
   style="clip-rule:evenodd;fill:#374d00;fill-rule:evenodd"
   d="m 0,-1.45 v 0.05 c 0.2,-0.067 0.433,-0.067 0.7,0 L 1.9,-1.1 1.55,-1.35 C 0.65,-1.783 0.133,-1.817 0,-1.45 Z"
   id="path4"
   inkscape:connector-curvature="0" />
			<path
   style="clip-rule:evenodd;fill:#374d00;fill-rule:evenodd"
   d="M 6.8,-0.65 C 7.467,-0.817 7.9,-0.6 8.1,0 8.2,-0.1 8.217,-0.167 8.15,-0.2 8.15,-0.633 7.883,-0.9 7.35,-1 Z"
   id="path6"
   inkscape:connector-curvature="0" />
		</g>
	</g>
</symbol>
<symbol
   id="flash0.ai_x5F_0_x2F_Layer_4_x2F__x3C_Path_x3E_"
   viewBox="0.005 -5.517 2.759 5.521"
   transform="translate(99.300026,107.89592)">
	<g
   id="Layer_1_11_">
		<path
   style="clip-rule:evenodd;fill:#dff074;fill-rule:evenodd"
   d="m 0.6,-0.2 c 0.3,-0.267 0.7,-0.9 1.2,-1.9 0.467,-1 0.767,-1.867 0.9,-2.6 0.1,-0.7 0.083,-0.95 -0.05,-0.75 -0.133,0.167 -0.267,0.483 -0.4,0.95 -0.1,0.4 -0.4,1.05 -0.9,1.95 -0.434,0.8 -0.8,1.383 -1.1,1.75 -0.233,0.3 -0.3,0.533 -0.2,0.7 0.1,0.167 0.283,0.133 0.55,-0.1 z"
   id="path12"
   inkscape:connector-curvature="0" />
	</g>
</symbol>
<symbol
   id="flash0.ai_x5F_0_x2F_Layer_4_x2F__x3C_Path_x3E__x5F_1"
   viewBox="-0.05 -1.486 1.645 1.5"
   transform="translate(99.300026,107.89592)">
	<g
   id="Layer_1_10_">
		<path
   style="clip-rule:evenodd;fill:#dff074;fill-rule:evenodd"
   d="m 0.95,0 c 0.633,-0.133 0.8,-0.45 0.5,-0.95 -0.3,-0.5 -0.667,-0.65 -1.1,-0.45 -0.4,0.2 -0.5,0.5 -0.3,0.9 0.233,0.4 0.533,0.567 0.9,0.5 z"
   id="path16"
   inkscape:connector-curvature="0" />
	</g>
</symbol>
<symbol
   id="flash0.ai_x5F_0_x2F_Layer_4_x2F__x3C_Path_x3E__x5F_12"
   viewBox="-0.032 -31.135 33.495 31.078"
   transform="translate(99.300026,107.89592)">
	<g
   id="Layer_1_5_">
		<path
   style="clip-rule:evenodd;fill-rule:evenodd"
   d="m 31.6,-16.65 c 0.433,2.133 0.1,4.267 -1,6.4 l -1.75,2.55 c -0.434,-0.733 -1.233,-1.2 -2.4,-1.4 -0.867,-0.133 -1.75,-0.133 -2.65,0 l -1.15,0.2 c 0.033,-0.7 -0.117,-1.434 -0.45,-2.2 -0.7,-1.566 -2.017,-2.583 -3.95,-3.05 -1.967,-0.467 -3.6,-0.583 -4.9,-0.35 -1.133,0.233 -2.184,0.8 -3.15,1.7 -0.767,0.7 -1.434,1.367 -2,2 L 7.6,-10 c -0.633,-0.333 -1.383,-0.6 -2.25,-0.8 -1.733,-0.4 -3.183,-0.3 -4.35,0.3 -1.7,0.833 -1.3,2.55 1.2,5.15 2.033,2.133 4.25,3.85 6.65,5.15 0.633,0.333 2.633,0.083 6,-0.75 3.967,-1 7.35,-1.383 10.15,-1.15 4.733,-2.233 7.483,-5.7 8.25,-10.4 0.567,-3.667 0,-6.967 -1.7,-9.9 -1.566,-2.733 -3.716,-4.867 -6.45,-6.4 -3.7,-2.1 -7.983,-2.784 -12.85,-2.05 -3.033,0.467 -5.7,1.383 -8,2.75 1.833,-0.9 3.317,-1.5 4.45,-1.8 2.066,-0.533 4.333,-0.684 6.8,-0.45 4.733,0.467 8.533,2.067 11.4,4.8 2.433,2.367 4,5.333 4.7,8.9 z"
   id="path20"
   inkscape:connector-curvature="0" />
	</g>
</symbol>
<symbol
   id="flash0.ai_x5F_0_x2F_Layer_4_x2F__x3C_Path_x3E__x5F_13"
   viewBox="-0.051 -4.723 3.774 4.728"
   transform="translate(99.300026,107.89592)">
	<g
   id="Layer_1_4_">
		<path
   style="clip-rule:evenodd;fill:#ff8a85;fill-rule:evenodd"
   d="M 1.8,0 C 3.467,-0.2 4.05,-1.15 3.55,-2.85 3.05,-4.617 2.25,-5.133 1.15,-4.4 0.117,-3.7 -0.25,-2.767 0.05,-1.6 0.383,-0.467 0.967,0.067 1.8,0 Z"
   id="path24"
   inkscape:connector-curvature="0" />
	</g>
</symbol>
<symbol
   id="flash0.ai_x5F_0_x2F_Layer_4_x2F__x3C_Path_x3E__x5F_14"
   viewBox="-0.011 -12.86 14.461 12.86"
   transform="translate(99.300026,107.89592)">
	<g
   id="Layer_1_3_">
		<path
   style="clip-rule:evenodd;fill:#ff8a85;fill-rule:evenodd"
   d="m 10.4,-3.55 c 1.767,-0.967 3.05,-1.267 3.85,-0.9 0.2,-1.267 0.25,-2.383 0.15,-3.35 -0.1,-1 -0.733,-2.017 -1.9,-3.05 -1.467,-1.267 -3.2,-1.933 -5.2,-2 -2.133,-0.1 -3.883,0.533 -5.25,1.9 -1.267,1.267 -1.95,2.833 -2.05,4.7 -0.067,1.433 0.167,2.783 0.7,4.05 0.3,0.633 0.583,1.117 0.85,1.45 l 0.2,-0.05 c 1.167,-0.2 2.2,-0.25 3.1,-0.15 0.9,0.133 1.633,0.45 2.2,0.95 0.133,-0.367 0.367,-0.783 0.7,-1.25 0.7,-0.933 1.583,-1.7 2.65,-2.3 z"
   id="path28"
   inkscape:connector-curvature="0" />
	</g>
</symbol>
<symbol
   id="flash0.ai_x5F_0_x2F_Layer_4_x2F__x3C_Path_x3E__x5F_15"
   viewBox="-0.016 -21.661 26.727 21.651"
   transform="translate(99.300026,107.89592)">
	<g
   id="Layer_1_2_">
		<path
   style="clip-rule:evenodd;fill:#ff8a85;fill-rule:evenodd"
   d="m 24.95,-4.85 c 2.167,-3.433 2.333,-6.933 0.5,-10.5 -1.233,-2.467 -3.317,-4.25 -6.25,-5.35 -2.8,-1.033 -5.817,-1.233 -9.05,-0.6 -3.233,0.667 -5.633,1.75 -7.2,3.25 -1.667,1.533 -2.633,3.716 -2.9,6.55 -0.233,2.467 0.15,4.5 1.15,6.1 0.7,1.167 1.367,1.8 2,1.9 1,0.133 2.55,0.683 4.65,1.65 2.066,0.934 3.7,1.483 4.9,1.65 5.733,0.767 9.8,-0.783 12.2,-4.65 z"
   id="path32"
   inkscape:connector-curvature="0" />
	</g>
</symbol>
<symbol
   id="flash0.ai_x5F_0_x2F_Layer_4_x2F__x3C_Path_x3E__x5F_2"
   viewBox="-0.025 -3.396 2.989 3.377"
   transform="translate(99.300026,107.89592)">
	<g
   id="Layer_1_9_">
		<path
   style="clip-rule:evenodd;fill:#dff074;fill-rule:evenodd"
   d="m 2.05,-0.05 c 1.067,-0.2 1.2,-0.934 0.4,-2.2 C 1.683,-3.517 0.967,-3.733 0.3,-2.9 c -0.433,0.566 -0.433,1.217 0,1.95 0.467,0.733 1.05,1.033 1.75,0.9 z"
   id="path36"
   inkscape:connector-curvature="0" />
	</g>
</symbol>
<symbol
   id="flash0.ai_x5F_0_x2F_Layer_4_x2F__x3C_Path_x3E__x5F_3"
   viewBox="-0.065 -2.202 2.959 2.247"
   transform="translate(99.300026,107.89592)">
	<g
   id="Layer_1_8_">
		<path
   style="clip-rule:evenodd;fill:#dff074;fill-rule:evenodd"
   d="m 2.55,-0.1 c 0.567,-0.267 0.434,-0.717 -0.4,-1.35 -0.833,-0.633 -1.433,-0.867 -1.8,-0.7 -0.6,0.367 -0.55,0.883 0.15,1.55 0.7,0.633 1.383,0.8 2.05,0.5 z"
   id="path40"
   inkscape:connector-curvature="0" />
	</g>
</symbol>
<symbol
   id="flash0.ai_x5F_0_x2F_Layer_4_x2F__x3C_Path_x3E__x5F_7"
   viewBox="0.042 -0.956 2.51 0.956"
   transform="translate(99.300026,107.89592)">
	<g
   id="Layer_1_7_">
		<path
   style="clip-rule:evenodd;fill-rule:evenodd"
   d="m 0.75,-0.15 c 0.167,0.066 0.167,0.117 0,0.15 H 0.9 c 0.467,0 0.883,-0.05 1.25,-0.15 0.5,-0.133 0.533,-0.3 0.1,-0.5 -0.467,-0.233 -0.95,-0.333 -1.45,-0.3 -0.466,0 -0.716,0.1 -0.75,0.3 -0.033,0.1 0.034,0.183 0.2,0.25 0.267,0.133 0.433,0.217 0.5,0.25 z"
   id="path44"
   inkscape:connector-curvature="0" />
	</g>
</symbol>
<radialGradient
   id="SVGID_1_"
   cx="21.8535"
   cy="6.5072999"
   r="25.9874"
   gradientTransform="matrix(0.7436,0.6686,0.6686,-0.7436,-8.7016,9.6784)"
   gradientUnits="userSpaceOnUse">
	<stop
   offset="0"
   style="stop-color:#9C1F4D"
   id="stop48" />
	<stop
   offset="1"
   style="stop-color:#2E0918"
   id="stop50" />
</radialGradient>





<radialGradient
   id="SVGID_2_"
   cx="17.138201"
   cy="-1.6406"
   r="6.6668"
   gradientTransform="matrix(0.8306,0.5569,0.7462,-0.6206,2.5392,-2.1113)"
   gradientUnits="userSpaceOnUse">
	<stop
   offset="0"
   style="stop-color:#BAD337"
   id="stop63" />
	<stop
   offset="1"
   style="stop-color:#557522"
   id="stop65" />
</radialGradient>

<radialGradient
   id="SVGID_3_"
   cx="15.0986"
   cy="7.4077001"
   r="9.1526003"
   gradientTransform="matrix(0.8304,0.5572,0.7457,-0.62,-11.4609,9.5304)"
   gradientUnits="userSpaceOnUse">
	<stop
   offset="0"
   style="stop-color:#BAD337"
   id="stop70" />
	<stop
   offset="1"
   style="stop-color:#557522"
   id="stop72" />
</radialGradient>

<radialGradient
   id="SVGID_4_"
   cx="25.158199"
   cy="-3.5688"
   r="8.2511997"
   gradientTransform="matrix(0.8302,0.5575,0.7469,-0.6196,5.529,-4.5869)"
   gradientUnits="userSpaceOnUse">
	<stop
   offset="0"
   style="stop-color:#BAD337"
   id="stop77" />
	<stop
   offset="1"
   style="stop-color:#557522"
   id="stop79" />
</radialGradient>

<radialGradient
   id="SVGID_5_"
   cx="19.959"
   cy="0.29049999"
   r="4.8744001"
   gradientTransform="matrix(0.8309,0.5565,0.7462,-0.6206,-0.4499,0.3739)"
   gradientUnits="userSpaceOnUse">
	<stop
   offset="0"
   style="stop-color:#BAD337"
   id="stop84" />
	<stop
   offset="1"
   style="stop-color:#557522"
   id="stop86" />
</radialGradient>



<linearGradient
   id="SVGID_6_"
   gradientUnits="userSpaceOnUse"
   x1="1.8710999"
   y1="-13.5781"
   x2="6.8281999"
   y2="-13.5781"
   gradientTransform="matrix(0.1513,0.9885,-0.9885,0.1513,2.643466e-4,-5.77569e-5)">
	<stop
   offset="0"
   style="stop-color:#BAD337"
   id="stop95" />
	<stop
   offset="1"
   style="stop-color:#557522"
   id="stop97" />
</linearGradient>

<linearGradient
   id="SVGID_7_"
   gradientUnits="userSpaceOnUse"
   x1="12.2876"
   y1="6.0625"
   x2="18.6126"
   y2="6.0625">
	<stop
   offset="0"
   style="stop-color:#BAD337"
   id="stop102" />
	<stop
   offset="1"
   style="stop-color:#557522"
   id="stop104" />
</linearGradient>

<radialGradient
   id="SVGID_8_"
   cx="23.377899"
   cy="2.7632"
   r="8.8828001"
   gradientTransform="matrix(0.7951,0.6065,0.7149,-0.6741,-4.0127,3.7835)"
   gradientUnits="userSpaceOnUse">
	<stop
   offset="0"
   style="stop-color:#BAD337"
   id="stop109" />
	<stop
   offset="1"
   style="stop-color:#557522"
   id="stop111" />
</radialGradient>




<g
   id="g905"
   transform="matrix(6.3742782,0,0,6.3742782,10.008646,-0.14903429)"><path
     id="path53"
     d="m 21.7,9.15 c 7.899,1.3 12.733,4.75 14.5,10.35 1.366,4.233 0.967,8.217 -1.2,11.95 -1.566,2.733 -3.717,4.866 -6.45,6.399 C 24.85,39.95 20.567,40.633 15.7,39.9 9.433,38.967 4.933,36.283 2.2,31.85 -0.334,27.684 -0.65,23.284 1.25,18.65 2.983,14.417 6.033,11.533 10.4,10 13.867,8.733 17.633,8.45 21.7,9.15 Z"
     style="clip-rule:evenodd;fill:url(#SVGID_1_);fill-rule:evenodd"
     inkscape:connector-curvature="0" /><use
     id="use55"
     style="overflow:visible;opacity:0.03130002;enable-background:new"
     transform="matrix(1,0,0,-1,-97.449926,122.29582)"
     y="-21.660999"
     x="-0.016000001"
     height="21.650999"
     width="26.726999"
     xlink:href="#flash0.ai_x5F_0_x2F_Layer_4_x2F__x3C_Path_x3E__x5F_15" /><use
     id="use57"
     style="overflow:visible;opacity:0.05859997;enable-background:new"
     transform="matrix(1,0,0,-1,-95.300026,126.94572)"
     y="-12.86"
     x="-0.011"
     height="12.86"
     width="14.461"
     xlink:href="#flash0.ai_x5F_0_x2F_Layer_4_x2F__x3C_Path_x3E__x5F_14" /><use
     id="use59"
     style="overflow:visible;opacity:0.21089998;enable-background:new"
     transform="matrix(1,0,0,-1,-91.949926,129.59612)"
     y="-4.723"
     x="-0.050999999"
     height="4.7280002"
     width="3.7739999"
     xlink:href="#flash0.ai_x5F_0_x2F_Layer_4_x2F__x3C_Path_x3E__x5F_13" /><use
     id="use61"
     style="overflow:visible;opacity:0.19140003;enable-background:new"
     transform="matrix(1,0,0,-1,-95.849826,116.94572)"
     y="-31.135"
     x="-0.032000002"
     height="31.077999"
     width="33.494999"
     xlink:href="#flash0.ai_x5F_0_x2F_Layer_4_x2F__x3C_Path_x3E__x5F_12" /><path
     id="path68"
     d="M 15.1,12.15 C 14.633,12.05 14.15,11.867 13.65,11.6 12.683,11.133 12.2,10.55 12.2,9.85 c 0,-0.934 0.383,-1.733 1.15,-2.4 0.867,-0.767 2.066,-1.184 3.6,-1.25 1.7,-0.1 3.2,0.267 4.5,1.1 1.267,0.867 1.55,1.733 0.85,2.6 -2.366,3.033 -4.767,3.783 -7.2,2.25 z"
     style="clip-rule:evenodd;fill:url(#SVGID_2_);fill-rule:evenodd"
     inkscape:connector-curvature="0" /><path
     id="path75"
     d="m 10.7,10.4 c 1.4,0.2 2.983,0.767 4.75,1.7 1.1,0.167 1.333,0.583 0.7,1.25 -1.566,1.667 -2.4,2.583 -2.5,2.75 -0.667,1 -1.733,1.833 -3.2,2.5 C 8.683,19.367 7,19.5 5.4,19 3.667,18.5 2.584,17.667 2.15,16.5 1.65,15.267 2,14.017 3.2,12.75 4.266,11.583 5.617,10.833 7.25,10.5 8.417,10.233 9.567,10.2 10.7,10.4 Z"
     style="clip-rule:evenodd;fill:url(#SVGID_3_);fill-rule:evenodd"
     inkscape:connector-curvature="0" /><path
     id="path82"
     d="m 32.1,12.65 c 0.334,1.4 0.101,2.55 -0.699,3.45 -0.801,0.933 -2.051,1.4 -3.75,1.4 -1.434,0 -2.834,-0.65 -4.2,-1.95 L 21.85,13.6 c -0.966,-0.3 -1.633,-0.633 -2,-1 -0.3,-0.333 -0.017,-0.917 0.851,-1.75 0.899,-0.867 2,-1.5 3.3,-1.9 1.733,-0.5 3.434,-0.35 5.1,0.45 1.666,0.767 2.666,1.85 2.999,3.25 z"
     style="clip-rule:evenodd;fill:url(#SVGID_4_);fill-rule:evenodd"
     inkscape:connector-curvature="0" /><path
     id="path89"
     d="m 20.6,10.15 c 0.7,0.233 0.7,0.533 0,0.9 h 0.65 c 0.467,0.034 0.684,0.167 0.65,0.4 0,0.433 -0.267,0.7 -0.801,0.8 C 21.9,12.65 22,13 21.4,13.3 21,13.5 20.533,13.567 20,13.5 l -0.65,-0.2 c 0.067,0.133 0.067,0.267 0,0.4 -0.166,0.267 -0.566,0.433 -1.2,0.5 -0.633,0.066 -1,-0.067 -1.1,-0.4 l 0.025,-0.375 C 16.996,13.995 16.538,14.186 15.7,14 15.133,13.867 14.9,13.6 15,13.2 l 0.35,-0.6 c -0.934,0.467 -1.467,0.5 -1.6,0.1 -0.067,-0.233 0.083,-0.467 0.45,-0.7 0.167,-0.133 0.35,-0.233 0.55,-0.3 -0.867,0 -1.083,-0.25 -0.65,-0.75 0.4,-0.467 0.833,-0.517 1.3,-0.15 -0.066,-0.133 -0.1,-0.25 -0.1,-0.35 0.034,-0.267 0.233,-0.4 0.6,-0.4 0.633,0 0.9,0.2 0.8,0.6 L 17,10.2 c 0.3,-0.3 0.65,-0.434 1.05,-0.4 0.6,0.067 0.883,0.317 0.85,0.75 l 0.45,-0.35 c 0.4,-0.2 0.817,-0.217 1.25,-0.05 z"
     style="clip-rule:evenodd;fill:url(#SVGID_5_);fill-rule:evenodd"
     inkscape:connector-curvature="0" /><use
     id="use91"
     style="overflow:visible;opacity:0.35940001;enable-background:new"
     transform="matrix(1,0,0,-1,-85.550026,119.14592)"
     y="-2.973"
     height="2.973"
     width="8.1899996"
     xlink:href="#flash0.ai_x5F_0_x2F_Layer_4_x2F__x3C_Group_x3E_"
     x="0" /><use
     id="use93"
     style="overflow:visible;opacity:0.42190001;enable-background:new"
     transform="matrix(1,0,0,-1,-82.349826,119.09612)"
     y="-0.95599997"
     x="0.041999999"
     height="0.95599997"
     width="2.51"
     xlink:href="#flash0.ai_x5F_0_x2F_Layer_4_x2F__x3C_Path_x3E__x5F_7" /><path
     id="path100"
     d="M 15.3,4 12.45,3.8 c -0.4,0 -0.534,-0.35 -0.4,-1.05 0.133,-0.733 0.5,-1.367 1.1,-1.9 0.833,-0.767 1.7,-1 2.6,-0.7 l 0.45,1.3 C 16.367,2.483 16.067,3.333 15.3,4 Z"
     style="clip-rule:evenodd;fill:url(#SVGID_6_);fill-rule:evenodd"
     inkscape:connector-curvature="0" /><path
     id="path107"
     d="m 15.75,0.15 c 1.1,1.7 1.9,3.934 2.4,6.7 0.267,1.433 0.417,2.967 0.45,4.6 0,0.267 -0.267,0.433 -0.8,0.5 -0.267,0.033 -0.483,0.033 -0.65,0 L 17,11.85 C 16.9,9.783 16.217,7.817 14.95,5.95 14.45,5.217 13.85,4.617 13.15,4.15 L 12.25,3.7 c 0.8,0.066 1.617,-0.267 2.45,-1 0.633,-0.567 1,-1.167 1.1,-1.8 0.067,-0.3 0.05,-0.55 -0.05,-0.75 z"
     style="clip-rule:evenodd;fill:url(#SVGID_7_);fill-rule:evenodd"
     inkscape:connector-curvature="0" /><path
     id="path114"
     d="m 15.75,13.3 c 2.467,-0.933 4.7,-0.733 6.7,0.6 1.967,1.3 3,2.483 3.1,3.55 0.134,1.066 -0.6,2.267 -2.2,3.6 -1.633,1.4 -3.75,1.884 -6.35,1.45 -2.533,-0.434 -4.033,-1.483 -4.5,-3.15 -0.433,-1.467 -0.233,-2.783 0.6,-3.95 0.667,-0.933 1.55,-1.633 2.65,-2.1 z"
     style="clip-rule:evenodd;fill:url(#SVGID_8_);fill-rule:evenodd"
     inkscape:connector-curvature="0" /><use
     id="use116"
     style="overflow:visible;opacity:0.39840004;enable-background:new"
     transform="matrix(1,0,0,-1,-95.050026,119.74602)"
     y="-2.2019999"
     x="-0.064999998"
     height="2.247"
     width="2.9590001"
     xlink:href="#flash0.ai_x5F_0_x2F_Layer_4_x2F__x3C_Path_x3E__x5F_3" /><use
     id="use118"
     style="overflow:visible;opacity:0.39840004;enable-background:new"
     transform="matrix(1,0,0,-1,-85.050026,122.49602)"
     y="-3.3959999"
     x="-0.025"
     height="3.3770001"
     width="2.9890001"
     xlink:href="#flash0.ai_x5F_0_x2F_Layer_4_x2F__x3C_Path_x3E__x5F_2" /><use
     id="use120"
     style="overflow:visible;opacity:0.39840004;enable-background:new"
     transform="matrix(1,0,0,-1,-85.500226,115.24602)"
     y="-1.4859999"
     x="-0.050000001"
     height="1.5"
     width="1.645"
     xlink:href="#flash0.ai_x5F_0_x2F_Layer_4_x2F__x3C_Path_x3E__x5F_1" /><use
     id="use122"
     style="overflow:visible;opacity:0.23829998;enable-background:new"
     transform="matrix(1,0,0,-1,-84.849826,111.84612)"
     y="-5.5170002"
     x="0.0049999999"
     height="5.5209999"
     width="2.7590001"
     xlink:href="#flash0.ai_x5F_0_x2F_Layer_4_x2F__x3C_Path_x3E_" /></g>
</svg>