<?xml version="1.0" encoding="UTF-8" standalone="no"?>
<!-- Generator: Adobe Illustrator 15.1.0, SVG Export Plug-In . SVG Version: 6.00 Build 0)  -->

<svg
   xmlns:dc="http://purl.org/dc/elements/1.1/"
   xmlns:cc="http://creativecommons.org/ns#"
   xmlns:rdf="http://www.w3.org/1999/02/22-rdf-syntax-ns#"
   xmlns:svg="http://www.w3.org/2000/svg"
   xmlns="http://www.w3.org/2000/svg"
   xmlns:sodipodi="http://sodipodi.sourceforge.net/DTD/sodipodi-0.dtd"
   xmlns:inkscape="http://www.inkscape.org/namespaces/inkscape"
   version="1.1"
   id="flash0.ai"
   x="0px"
   y="0px"
   width="256"
   height="256"
   viewBox="0 0 256 256"
   xml:space="preserve"
   sodipodi:docname="tangerine_slice.svg"
   inkscape:version="0.92.4 (5da689c313, 2019-01-14)"><title
   id="title1978">Tangerine Slice</title><metadata
   id="metadata1171"><rdf:RDF><cc:Work
       rdf:about=""><dc:format>image/svg+xml</dc:format><dc:type
         rdf:resource="http://purl.org/dc/dcmitype/StillImage" /><dc:title>Tangerine Slice</dc:title><cc:license
         rdf:resource="http://creativecommons.org/publicdomain/zero/1.0/" /><dc:creator><cc:Agent><dc:title>Glitch</dc:title></cc:Agent></dc:creator><dc:source>https://opengameart.org/node/20149</dc:source></cc:Work><cc:License
       rdf:about="http://creativecommons.org/publicdomain/zero/1.0/"><cc:permits
         rdf:resource="http://creativecommons.org/ns#Reproduction" /><cc:permits
         rdf:resource="http://creativecommons.org/ns#Distribution" /><cc:permits
         rdf:resource="http://creativecommons.org/ns#DerivativeWorks" /></cc:License></rdf:RDF></metadata><defs
   id="defs1169" /><sodipodi:namedview
   pagecolor="#ffffff"
   bordercolor="#666666"
   borderopacity="1"
   objecttolerance="10"
   gridtolerance="10"
   guidetolerance="10"
   inkscape:pageopacity="0"
   inkscape:pageshadow="2"
   inkscape:window-width="1920"
   inkscape:window-height="1025"
   id="namedview1167"
   showgrid="false"
   inkscape:zoom="0.95"
   inkscape:cx="-99.965676"
   inkscape:cy="-25.320349"
   inkscape:window-x="-8"
   inkscape:window-y="-8"
   inkscape:window-maximized="1"
   inkscape:current-layer="flash0.ai"
   fit-margin-top="0"
   fit-margin-left="0"
   fit-margin-right="0"
   fit-margin-bottom="0" />
<g
   id="g1238"
   transform="matrix(24.376376,0,0,24.376376,-461.20607,-1035.5111)"><path
     inkscape:connector-curvature="0"
     id="path189"
     d="m 29.05,45.529 c 0.293,0.907 0.413,1.641 0.36,2.2 -0.053,0.72 -0.44,1.507 -1.16,2.359 -0.747,0.827 -1.533,1.4 -2.36,1.721 -0.56,0.187 -1.213,0.333 -1.96,0.439 -0.907,0.107 -1.626,0.094 -2.16,-0.039 -1.146,-0.32 -1.973,-0.761 -2.48,-1.32 -0.479,-0.507 -0.493,-1.08 -0.04,-1.721 0.24,-0.373 1.133,-0.693 2.68,-0.959 0.773,-0.16 1.626,-0.521 2.56,-1.08 0.56,-0.347 1.027,-1.067 1.4,-2.16 0.24,-0.72 0.506,-1.28 0.8,-1.681 0.267,-0.293 0.693,-0.146 1.28,0.44 0.48,0.428 0.84,1.028 1.08,1.801 z"
     style="clip-rule:evenodd;fill:#ffaa00;fill-rule:evenodd" /><path
     inkscape:connector-curvature="0"
     id="path191"
     d="m 28.01,47.449 c -0.134,-0.213 0,-0.173 0.4,0.12 0.08,0.08 0.213,0.387 0.4,0.92 0.133,0.293 0.066,0 -0.2,-0.88 v -0.72 c 0.026,-0.24 0.04,-0.373 0.04,-0.4 0.027,-0.026 0.08,0.027 0.16,0.16 0.08,0.134 0.133,0.307 0.16,0.521 l 0.08,0.56 c 0.08,0.24 0.187,0.32 0.32,0.24 -0.107,0.693 -0.52,1.439 -1.24,2.24 -0.693,0.772 -1.44,1.307 -2.24,1.6 -0.56,0.187 -1.213,0.333 -1.96,0.439 -0.907,0.107 -1.626,0.094 -2.16,-0.039 -1.146,-0.32 -1.973,-0.761 -2.48,-1.32 -0.479,-0.507 -0.493,-1.08 -0.04,-1.721 l 0.16,-0.159 c 0.4,-0.027 0.92,0.159 1.56,0.56 0.32,0.187 0.667,0.413 1.04,0.68 0.133,0.054 0.133,0.134 0,0.24 -0.053,0.054 -0.16,0.12 -0.32,0.2 -0.186,0.054 -0.253,0.16 -0.2,0.32 0.053,0.079 0.293,0.093 0.72,0.04 0.133,0 0.213,0.066 0.24,0.199 0.054,0.188 0.093,0.294 0.12,0.32 0.08,0.106 0.293,-0.053 0.64,-0.48 0.106,-0.053 0.16,-0.026 0.16,0.08 0.026,0.24 0.04,0.374 0.04,0.4 0.027,0.213 0.107,0.36 0.24,0.44 0.08,0.053 0.133,0.04 0.16,-0.04 0,-0.107 0.013,-0.2 0.04,-0.28 0.027,-0.08 0.107,-0.08 0.24,0 0.054,0.054 0.134,0.12 0.24,0.2 0.053,0.026 0.2,0.026 0.44,0 0.213,-0.027 0.253,-0.107 0.12,-0.24 -0.24,0 -0.44,-0.04 -0.6,-0.12 -0.106,-0.026 -0.213,-0.146 -0.32,-0.36 -0.107,-0.239 -0.133,-0.399 -0.08,-0.479 0.106,-0.187 0.213,-0.134 0.32,0.16 0.026,0.08 0.08,0.106 0.16,0.08 0.16,-0.054 0.253,-0.08 0.28,-0.08 0.106,0 0.24,0.08 0.4,0.239 0.133,0.107 0.346,0.094 0.64,-0.039 l 0.4,-0.24 c 0.054,-0.054 0.054,-0.134 0,-0.24 l -0.16,-0.4 c -0.054,-0.159 -0.013,-0.307 0.12,-0.439 0.08,-0.106 0.2,-0.08 0.36,0.08 0.053,0.026 0.08,0.094 0.08,0.2 0.027,0.079 0.014,0.12 -0.04,0.12 -0.027,0 -0.067,-0.027 -0.12,-0.08 -0.08,-0.027 -0.133,-0.014 -0.16,0.039 -0.053,0.107 0,0.294 0.16,0.561 0,0.24 0.12,0.333 0.36,0.28 0.08,-0.026 0.12,-0.067 0.12,-0.12 0,-0.106 0.014,-0.2 0.04,-0.28 0.054,-0.08 0.04,-0.253 -0.04,-0.52 -0.053,-0.16 -0.04,-0.294 0.04,-0.4 0.026,-0.054 0.08,-0.04 0.16,0.04 l 0.24,0.12 c 0.08,0.026 0.187,0.134 0.32,0.319 0.08,0.027 0.254,-0.106 0.52,-0.399 0.107,-0.106 0.16,-0.24 0.16,-0.4 -0.053,-0.159 -0.093,-0.267 -0.12,-0.319 -0.08,-0.267 -0.067,-0.4 0.04,-0.4 0.08,-0.026 0.213,0.054 0.4,0.24 0.054,0.026 0.067,0 0.041,-0.08 -0.08,-0.16 -0.134,-0.293 -0.16,-0.399 z"
     style="clip-rule:evenodd;fill:#e89a00;fill-rule:evenodd" /><path
     inkscape:connector-curvature="0"
     id="path193"
     d="m 28.01,44.489 c 0.267,1.2 0.066,2.2 -0.6,3 -0.534,0.667 -0.92,1.12 -1.16,1.36 -0.48,0.453 -1.026,0.813 -1.64,1.08 -0.64,0.267 -1.173,0.439 -1.6,0.52 -0.24,0.054 -0.733,0.106 -1.48,0.16 -0.773,0.054 -1.307,0.054 -1.6,0 -0.506,-0.106 -0.84,-0.36 -1,-0.76 0.053,-0.24 0.16,-0.467 0.32,-0.681 0.24,-0.373 1.133,-0.693 2.68,-0.959 0.773,-0.16 1.626,-0.521 2.56,-1.08 0.56,-0.347 1.027,-1.067 1.4,-2.16 0.24,-0.72 0.506,-1.28 0.8,-1.681 0.134,-0.133 0.333,-0.159 0.6,-0.079 0.373,0.268 0.613,0.694 0.72,1.28 z"
     style="clip-rule:evenodd;fill:#ffbf1c;fill-rule:evenodd" /><path
     inkscape:connector-curvature="0"
     id="path195"
     d="m 26.13,44.729 c 0.133,-0.187 0.293,-0.373 0.48,-0.56 0.186,-0.188 0.266,-0.24 0.24,-0.16 -0.16,0.24 -0.28,0.427 -0.36,0.56 -0.186,0.267 -0.2,0.374 -0.04,0.32 0.4,-0.16 0.707,-0.134 0.92,0.08 0.16,0.16 0.093,0.24 -0.2,0.24 h -0.28 c -0.053,0 -0.014,0.04 0.12,0.12 0.133,0.106 0.24,0.253 0.32,0.439 0.107,0.16 0.12,0.254 0.04,0.28 -0.107,-0.054 -0.24,-0.094 -0.4,-0.12 -0.16,-0.026 -0.347,-0.026 -0.56,0 -0.267,0.026 -0.347,0.08 -0.24,0.16 0.4,0.267 0.534,0.413 0.4,0.439 -0.026,0.027 -0.146,0.04 -0.359,0.04 -0.134,0.026 -0.16,0.067 -0.08,0.12 0.266,0.347 0.4,0.573 0.4,0.68 0,0.08 -0.041,0.12 -0.12,0.12 -0.08,0 -0.187,-0.079 -0.32,-0.239 -0.4,-0.507 -0.626,-0.693 -0.68,-0.561 -0.133,0.214 -0.2,0.387 -0.2,0.521 0,0.106 -0.041,0.187 -0.121,0.239 -0.08,0.054 -0.146,0.067 -0.2,0.04 -0.16,0 -0.2,0.08 -0.12,0.24 0.107,0.187 0.253,0.374 0.44,0.56 0.106,0.187 0.173,0.347 0.2,0.48 0,0.106 -0.04,0.134 -0.12,0.08 -0.053,-0.026 -0.133,-0.16 -0.24,-0.4 -0.133,-0.267 -0.227,-0.426 -0.28,-0.479 -0.08,-0.08 -0.173,-0.12 -0.28,-0.12 -0.107,0 -0.146,0.054 -0.12,0.16 0.134,0.399 0.173,0.613 0.12,0.64 l -0.12,-0.24 c -0.053,-0.133 -0.093,-0.159 -0.12,-0.079 -0.026,0.079 -0.026,0.213 0,0.399 0.027,0.213 0.027,0.387 0,0.52 -0.053,0.214 -0.187,0.347 -0.4,0.4 -0.213,0.08 -0.28,0.014 -0.2,-0.2 0.053,-0.213 0.026,-0.467 -0.08,-0.76 -0.08,-0.32 -0.146,-0.427 -0.2,-0.32 -0.16,0.48 -0.267,0.667 -0.32,0.561 -0.054,-0.106 -0.04,-0.24 0.04,-0.4 0.054,-0.134 0.041,-0.187 -0.04,-0.16 -0.213,0.134 -0.36,0.4 -0.44,0.8 -0.027,0.134 -0.054,0.28 -0.08,0.44 -0.054,0.106 -0.16,0.2 -0.32,0.28 -0.16,0.106 -0.253,0.093 -0.28,-0.04 -0.053,-0.106 -0.026,-0.24 0.08,-0.4 0.213,-0.347 0.32,-0.546 0.32,-0.6 0.027,-0.054 -0.026,-0.094 -0.16,-0.12 -0.16,0 -0.293,0.026 -0.4,0.08 -0.16,0.106 -0.24,0.094 -0.24,-0.04 0.053,-0.026 0.093,-0.054 0.12,-0.08 0.026,-0.054 -0.04,-0.026 -0.2,0.08 -0.72,0.667 -1.106,0.92 -1.16,0.76 -0.08,-0.24 0,-0.399 0.24,-0.479 0.374,-0.134 0.56,-0.227 0.56,-0.28 0,-0.053 -0.08,-0.08 -0.24,-0.08 -0.187,0.026 -0.307,0.026 -0.36,0 -0.08,0 -0.027,-0.066 0.16,-0.2 l 1.28,-0.279 c 0.773,-0.16 1.626,-0.521 2.56,-1.08 0.48,-0.32 0.92,-0.96 1.32,-1.92 z"
     style="clip-rule:evenodd;fill:#ffaa00;fill-rule:evenodd" /><path
     inkscape:connector-curvature="0"
     id="path197"
     d="m 27.97,46.369 c -0.08,0.427 -0.267,0.801 -0.56,1.12 -0.534,0.667 -0.92,1.12 -1.16,1.36 -0.48,0.453 -1.026,0.813 -1.64,1.08 -0.64,0.267 -1.173,0.439 -1.6,0.52 -0.24,0.054 -0.733,0.106 -1.48,0.16 -0.773,0.054 -1.307,0.054 -1.6,0 -0.506,-0.106 -0.84,-0.36 -1,-0.76 0.027,-0.134 0.12,-0.333 0.28,-0.601 -0.027,0.294 0.133,0.574 0.479,0.84 0.4,0.32 1.227,0.36 2.48,0.121 1.014,-0.134 1.76,-0.32 2.24,-0.561 0.693,-0.293 1.347,-0.746 1.96,-1.36 0.8,-0.719 1.334,-1.358 1.601,-1.919 z"
     style="clip-rule:evenodd;fill:#ffd770;fill-rule:evenodd" /><path
     inkscape:connector-curvature="0"
     id="path199"
     d="m 27.569,44.17 c -0.026,0.053 -0.253,0.199 -0.68,0.439 l -0.76,0.521 c -0.4,0.267 -0.334,0.2 0.2,-0.2 l 0.64,-0.68 c 0.133,-0.134 0.28,-0.2 0.44,-0.2 0.16,-0.027 0.214,0.013 0.16,0.12 z"
     style="clip-rule:evenodd;fill:#ffd770;fill-rule:evenodd" /><path
     inkscape:connector-curvature="0"
     id="path201"
     d="m 27.729,45.21 c 0.027,0.133 -0.12,0.159 -0.44,0.079 -0.427,0.054 -0.693,0.067 -0.8,0.041 0.16,-0.027 0.32,-0.067 0.48,-0.12 0.481,-0.08 0.734,-0.08 0.76,0 z"
     style="clip-rule:evenodd;fill:#ffd770;fill-rule:evenodd" /><path
     inkscape:connector-curvature="0"
     id="path203"
     d="m 25.87,45.97 c 0.094,-0.003 0.381,-0.03 0.86,-0.08 0.267,0 0.427,0.014 0.48,0.04 0.133,0.026 0.24,0.12 0.32,0.28 0.053,0.133 0,0.239 -0.16,0.319 -0.133,0.08 -0.253,0.094 -0.36,0.04 L 26.57,46.25 c -0.106,-0.107 -0.307,-0.2 -0.6,-0.28 z"
     style="clip-rule:evenodd;fill:#ffd770;fill-rule:evenodd" /><path
     inkscape:connector-curvature="0"
     id="path205"
     d="m 25.45,46.529 c 0.054,0 0.293,0.28 0.72,0.84 0.107,0.107 0.173,0.214 0.2,0.32 0.053,0.134 0.04,0.16 -0.04,0.08 -0.106,-0.08 -0.36,-0.373 -0.76,-0.88 -0.08,-0.054 -0.12,-0.134 -0.12,-0.24 z"
     style="clip-rule:evenodd;fill:#ffd770;fill-rule:evenodd" /><path
     inkscape:connector-curvature="0"
     id="path207"
     d="m 24.97,47.17 0.4,0.6 c 0.134,0.187 0.187,0.307 0.16,0.36 -0.4,-0.507 -0.587,-0.72 -0.56,-0.641 0.026,0.106 0.187,0.374 0.48,0.8 0.106,0.641 0.093,0.761 -0.04,0.36 -0.4,-0.507 -0.627,-0.84 -0.68,-1 -0.027,-0.133 0,-0.267 0.08,-0.399 0.08,-0.134 0.133,-0.16 0.16,-0.08 z"
     style="clip-rule:evenodd;fill:#ffd770;fill-rule:evenodd" /><path
     inkscape:connector-curvature="0"
     id="path209"
     d="m 24.169,48.05 c 0,-0.24 0.094,0.106 0.28,1.039 0.054,0.107 0.026,0.254 -0.08,0.44 -0.106,0.16 -0.173,0.174 -0.2,0.04 0,-0.533 -0.026,-0.906 -0.08,-1.12 0.054,-0.133 0.08,-0.266 0.08,-0.399 z"
     style="clip-rule:evenodd;fill:#ffd770;fill-rule:evenodd" /><path
     inkscape:connector-curvature="0"
     id="path211"
     d="m 23.089,48.289 c -0.026,0.027 -0.133,0.228 -0.32,0.601 0,0.026 -0.066,0.307 -0.2,0.84 -0.027,0.24 -0.08,0.24 -0.16,0 0.053,-0.134 0.107,-0.413 0.16,-0.84 0.026,-0.16 0.133,-0.32 0.32,-0.48 0.401,-0.347 0.467,-0.387 0.2,-0.121 z"
     style="clip-rule:evenodd;fill:#ffd770;fill-rule:evenodd" /><path
     inkscape:connector-curvature="0"
     id="path213"
     d="m 21.61,48.689 -0.64,0.72 c -0.213,0.214 -0.4,0.347 -0.56,0.4 -0.213,0.026 -0.16,-0.08 0.16,-0.32 l 0.72,-0.68 c 0.054,-0.054 0.147,-0.12 0.28,-0.2 0.133,-0.08 0.146,-0.053 0.04,0.08 z"
     style="clip-rule:evenodd;fill:#ffd770;fill-rule:evenodd" /><path
     inkscape:connector-curvature="0"
     id="path215"
     d="m 21.73,49.01 -0.2,0.6 c -0.08,0.08 -0.173,0.134 -0.28,0.16 -0.08,0.026 -0.12,0.026 -0.12,0 l 0.04,-0.16 0.44,-0.68 c 0.053,-0.106 0.093,-0.134 0.12,-0.08 0.053,0.026 0.053,0.08 0,0.16 z"
     style="clip-rule:evenodd;fill:#ffd770;fill-rule:evenodd" /></g>
</svg>