<?xml version="1.0" encoding="UTF-8" standalone="no"?>
<svg
   id="svg2"
   height="197.60548pt"
   width="256pt"
   version="1.1"
   viewBox="0 0 256 197.60549"
   sodipodi:docname="sickle.svg"
   inkscape:version="1.3.2 (091e20e, 2023-11-25, custom)"
   xmlns:inkscape="http://www.inkscape.org/namespaces/inkscape"
   xmlns:sodipodi="http://sodipodi.sourceforge.net/DTD/sodipodi-0.dtd"
   xmlns="http://www.w3.org/2000/svg"
   xmlns:svg="http://www.w3.org/2000/svg"
   xmlns:rdf="http://www.w3.org/1999/02/22-rdf-syntax-ns#"
   xmlns:cc="http://creativecommons.org/ns#"
   xmlns:dc="http://purl.org/dc/elements/1.1/">
  <title
     id="title1">Sickle</title>
  <defs
     id="defs1" />
  <sodipodi:namedview
     id="namedview1"
     pagecolor="#ffffff"
     bordercolor="#666666"
     borderopacity="1.0"
     inkscape:showpageshadow="2"
     inkscape:pageopacity="0.0"
     inkscape:pagecheckerboard="true"
     inkscape:deskcolor="#d1d1d1"
     inkscape:document-units="pt"
     inkscape:zoom="0.97758207"
     inkscape:cx="88.995086"
     inkscape:cy="107.91933"
     inkscape:window-width="1920"
     inkscape:window-height="1025"
     inkscape:window-x="-8"
     inkscape:window-y="-8"
     inkscape:window-maximized="1"
     inkscape:current-layer="svg2" />
  <path
     id="path40"
     d="m 170.34891,170.10417 c 1.08159,0.56339 -2.39139,3.82254 -3.12959,3.90685 0.78755,-1.45994 1.84035,-2.84996 3.12959,-3.90685 z m -9.05359,-0.7896 c 0.75464,-0.25497 -0.12954,1.13708 -0.28787,1.14119 -1.85679,2.17346 -3.31054,4.81777 -5.6053,6.53885 1.43937,-2.84788 3.70122,-5.38528 5.89317,-7.68004 z m -3.73206,-1.25636 c 0.35573,-0.11104 0.58601,0.11926 0.5017,0.4791 -4.80952,4.42502 -7.69032,10.73148 -12.66434,14.90153 3.37017,-5.53537 7.60602,-10.80962 12.16264,-15.38063 z m 9.69309,-0.19534 c 0.2817,-0.13572 0.33516,-0.074 0.16244,0.18506 -2.07268,2.86432 -4.16182,5.72456 -6.15637,8.64441 -0.2159,0.65389 -1.47021,1.06719 -0.99933,0.0761 2.11791,-3.10697 4.13715,-6.47304 6.99326,-8.90555 z M 49.460769,149.76181 c 2.183723,-0.12336 -1.505164,2.15906 -1.416746,3.16867 -1.79715,0.39069 0.544904,-2.55797 1.416746,-3.16867 z M 202.64006,55.187311 c 1.89379,-0.02468 -1.1186,2.389347 -1.75809,1.153549 0.28376,-0.756693 1.32833,-0.433865 1.75809,-1.153549 z m 5.13234,-7.8322 c 0.66417,-0.291987 0.64155,0.797819 0.16862,0.982879 -2.5415,2.298873 -4.40035,5.551838 -7.44768,7.176264 1.84445,-3.098748 4.7972,-5.5395 7.27906,-8.159143 z m 2.79033,-5.101522 c 0.39891,0.08019 -0.12748,1.052792 -0.41947,1.342723 -3.00416,2.74713 -4.9617,6.666315 -8.45524,8.82125 2.65664,-3.608694 5.57444,-7.168037 8.87471,-10.163973 z m -8.86237,-0.507891 c 1.94724,-1.427026 2.80059,-4.248181 4.94319,-5.311257 -1.46199,2.983598 -4.64298,5.11386 -6.22423,8.179706 -0.84924,-1.048679 0.72791,-2.031561 1.28104,-2.868449 z M 224.0105,31.72155 c 0.97054,-0.178894 0.31666,1.079522 -0.12338,1.371508 -1.51543,1.262529 -2.33998,3.581964 -4.25024,4.276972 0.9541,-2.159049 2.82735,-3.894513 4.37362,-5.64848 z m -9.0721,-1.192617 c -1.95959,4.71906 -8.2928,8.677314 -9.34353,14.052314 -2.53123,3.855443 -5.56625,7.336649 -8.51899,10.867207 -0.63949,0.39891 -0.91914,0.09664 -0.53668,-0.54079 1.75397,-2.33794 3.69299,-4.558675 5.5539,-6.820534 1.96163,-2.926024 2.84377,-6.830816 5.91988,-8.878827 2.16524,-2.973315 4.168,-6.285911 6.92542,-8.67937 z m 16.45812,-11.959067 c 0.69087,-0.36601 1.04455,0.785482 0.31254,0.929417 -7.60809,5.743066 -12.73632,14.048203 -19.96812,20.149054 6.40725,-7.094011 11.84188,-15.43616 19.65558,-21.078471 z m 6.79585,-2.249523 c 0.38657,-0.261141 0.83689,0.291987 0.63332,0.649771 -2.29066,1.449646 -3.39278,4.19472 -5.60737,5.74718 -0.34133,0.17889 -1.00961,0.09253 -0.81838,-0.427698 1.71903,-2.159047 3.54084,-4.357165 5.79243,-5.969253 z m 3.8575,-0.16861 c 0.2488,1.780698 -3.34961,2.551786 -3.72179,4.645035 1.00962,-0.384516 2.01716,-2.936305 3.08023,-1.270754 -4.83832,5.006934 -9.25923,10.768507 -15.4711,13.933054 2.0994,-3.131647 5.83971,-5.163207 8.04399,-8.315416 -0.66417,0.294041 -1.38797,-0.450316 -0.70324,-0.960263 2.75946,-2.819099 4.77459,-6.87194 8.77191,-8.031656 z m -5.71018,-0.878013 c 1.42293,0.304322 -1.31803,1.860892 -1.65731,2.461314 0.31049,1.647045 -1.93905,3.497656 -3.53467,4.011716 1.41879,-2.144655 3.03295,-4.836267 5.19198,-6.47303 z m 1.62855,-7.3695498 c 1.12476,0.8553943 2.07267,0.1624426 3.11724,0.00411 -0.37835,1.5442331 -2.62374,2.4057958 -3.68272,3.6066378 -1.35095,-0.799876 2.08916,-1.6943385 0.67446,-2.6443194 -1.71491,1.1514924 -3.2324,2.6422624 -5.21874,3.3640014 -6.5347,5.130309 -10.69447,12.843249 -17.58902,17.55614 7.04672,-7.653308 13.26065,-16.780939 22.69878,-21.8865724 z m 5.21873,-0.4359219 c 0.59014,0.6168708 1.71077,-0.5572398 1.88761,0.5140588 -1.17409,0.9725998 -1.91845,3.1069729 -3.57374,3.0473419 -1.71283,-1.104199 0.46678,-3.0596791 1.68613,-3.5614007 z m -8.97958,-0.6867827 c 2.96713,-0.8944624 5.35444,-3.7464616 8.77807,-2.6360943 0.41536,1.8732308 -3.07407,-0.063744 -3.14398,1.7210693 -6.17488,0.7114577 -10.37372,5.6217484 -14.89539,9.3579294 -4.39007,6.452467 -10.27705,11.866537 -15.09687,18.010568 -1.15972,0.972601 -1.77044,2.611421 -3.20567,3.199503 4.98224,-6.137864 9.78561,-12.316852 15.15034,-18.193573 3.06789,-4.825987 7.98025,-8.009039 12.4135,-11.4594024 z M 239.8826,0 h 2.76358 c 3.18511,0.36395372 6.32085,1.6614386 8.9364,3.5963563 2.44486,2.5168326 3.96031,6.7896907 4.4168,10.6471877 v 1.1042 c -1.49078,9.73422 -9.32915,16.495122 -16.23398,22.702898 -12.66436,12.526589 -27.42404,22.972267 -39.60312,36.078714 -2.33793,1.790981 -5.34414,0.22413 -7.73966,1.270753 -3.1337,3.431858 -8.31953,7.383942 -6.26124,12.723987 3.07407,4.026109 5.58061,8.469637 7.70266,13.077654 5.59089,10.0221 8.68349,21.60282 7.57723,33.11157 0.24675,15.11745 -7.49703,29.04228 -16.92282,40.33717 -8.67938,9.72395 -20.76798,15.54927 -32.94296,19.69875 -7.11046,2.05623 -14.54375,2.59497 -21.88658,3.25502 h -1.54422 c -9.62319,0.0411 -19.14974,-1.62855 -28.351378,-4.40034 -2.560021,-1.14327 -5.329765,-1.59566 -8.039886,-2.20842 C 70.699629,183.7514 51.948814,171.03768 35.575009,156.08475 26.718803,146.62812 18.173087,136.58752 12.6048,124.78062 6.9008021,113.83938 2.2557654,102.27717 0.38870325,90.028172 -0.59300543,85.648388 0.51734135,81.980064 1.1659605,77.195204 c 0.3886285,-1.961649 0.8841813,-5.10769 3.5038256,-5.004878 2.926023,13.423106 8.3544859,26.35683 15.2737179,38.252154 3.417465,7.21943 9.366156,12.74455 13.850806,19.24841 13.68836,17.15724 32.428894,29.92853 52.812359,37.87382 8.590954,3.92741 17.944771,5.60325 26.973701,7.96174 5.68549,-0.10487 11.36893,0.6066 16.99273,-0.5593 4.68616,0.55314 8.76573,-2.21661 13.24422,-2.97536 6.0227,-1.79304 11.17769,-5.47372 16.19902,-9.11531 4.94936,-5.22899 9.30858,-11.09543 12.47724,-17.55612 2.09323,-7.24414 5.14265,-14.52115 4.94319,-22.11894 0.77726,-10.40454 -0.86773,-20.86668 -3.97881,-30.74689 -1.35712,-2.309155 -2.09326,-4.914404 -2.90137,-7.443574 -0.46469,-4.856829 3.00007,-8.582728 6.38463,-11.516977 2.03155,-2.348221 4.28108,-4.548393 6.44012,-6.705385 -0.9623,-1.842387 -1.34065,-4.205003 -0.96642,-6.341431 0.40506,-2.095304 2.88284,-2.638151 3.77114,-4.44147 7.04672,-10.965905 16.2895,-20.251865 23.83177,-30.847648 -0.20151,-1.507222 2.11585,-1.126819 2.17959,-2.771807 C 218.44017,15.016689 224.7014,7.0055953 232.73511,1.7601378 235.12447,1.2522475 237.40276,0.22618594 239.90316,0 m 1.5874,1.7292943 c -5.5066,0.1891736 -10.65334,2.3893461 -14.36279,6.5943481 -12.81652,13.5896626 -23.87086,28.6700966 -35.43513,43.3413376 -0.44209,1.381791 -0.89652,3.417464 0.38453,4.486706 3.35782,-3.275583 5.02544,-7.74584 8.02136,-11.325745 -2.20838,4.313981 -4.55045,8.699934 -7.82602,12.407327 0.16861,2.847886 3.11724,4.087797 5.18583,5.451079 2.9507,-0.34956 3.61075,-4.114528 6.29001,-4.930853 0.71353,-0.310492 1.14328,-2.013055 1.88147,-1.355058 -1.07952,3.166602 -4.23173,4.86094 -6.69099,6.853433 -0.44414,0.853338 0.98287,1.196729 1.42703,0.573689 12.36003,-12.693144 26.37534,-23.963371 38.6305,-36.853914 -9.28802,7.449742 -18.40949,15.259326 -27.25131,23.340332 -1.22139,0.945869 -2.40578,1.982213 -3.93769,2.391404 -0.45032,1.223461 -2.07061,2.627868 -3.32081,1.984267 0.12543,-0.444147 2.54768,-2.354391 1.21318,-1.797151 -3.1666,1.97193 0.48939,-3.106971 1.98426,-1.721069 5.41819,-2.644318 9.35177,-7.355156 13.96596,-11.103674 5.44081,-5.171431 11.54164,-9.756838 16.09622,-15.769271 2.53738,-2.543563 4.87739,-5.033665 6.38254,-8.391498 -3.17071,0.267311 0.1172,-2.422246 0.7238,-3.394845 -1.00754,0.343391 -2.98359,1.063074 -1.51338,-0.477047 -0.98699,-1.293372 0.84304,-2.8540556 2.02127,-3.5819629 1.54219,0.04935 -1.19879,2.5250569 0.39892,1.4702084 1.74163,0.2611425 -1.66555,2.9054615 0.20973,1.8012615 1.41264,-0.836888 0.43593,1.050738 1.60182,1.297486 -0.43181,2.183723 -2.90754,3.29409 -3.50383,5.4408 1.92463,-1.758083 3.83694,-3.939747 5.15085,-6.308533 0.69708,-1.001385 -2.08706,-0.07402 -1.10623,-1.151491 1.49898,-2.506551 -2.89314,-3.8143169 -1.75398,-6.0576701 -0.74642,0.2220733 -1.49284,0.4729341 -2.26185,0.5819146 -0.22413,-1.9349179 4.21526,-1.2070103 3.04528,-0.078137 0.074,1.8732309 1.62852,1.0013869 2.67516,0.7587511 -0.004,0.6477142 -0.52846,1.1556045 -0.55931,1.8012625 1.36124,-0.1254304 1.93699,2.2145659 1.88559,3.4585889 1.68404,0.211793 -0.54285,3.193334 0.60453,2.134373 0.80397,-1.324216 -0.30638,1.762194 1.01165,1.021947 -1.27896,3.298203 -1.75395,6.98709 -4.4024,9.584117 -7.4703,10.957679 -19.32861,17.675402 -28.20127,27.319147 -5.32152,4.135091 -9.54709,9.362043 -14.81722,13.546482 -1.21937,0.779314 0.76697,1.548346 1.27075,0.670333 3.7259,-3.682718 7.98642,-6.830816 11.36687,-10.842531 9.32915,-8.185875 19.53424,-15.703474 27.57411,-25.075796 3.95209,-3.119309 6.95419,-7.61424 7.715,-12.637624 1.46405,-2.580577 -0.0452,-5.434633 -0.5922,-8.0563323 -1.65114,-4.4702565 -6.65808,-7.0775634 -11.18181,-7.4003924 m 4.35101,11.9138307 c -1.52163,1.186448 1.05074,0.324885 0,0 m 4.15565,0.680614 c -0.53258,0.586027 -1.28927,1.087747 -1.35713,1.945197 0.55519,-0.427697 1.54014,-1.618257 1.35713,-1.945197 m -3.1337,4.04667 c -0.658,0.108982 -0.89035,0.760808 -0.96438,1.338611 0.50378,-0.139825 1.22347,-1.180279 0.96438,-1.338611 m -4.30165,7.202996 c -6.52856,6.228336 -13.64725,12.366202 -20.0997,19.00373 -4.61625,5.385281 -10.91863,9.113237 -15.12569,14.893316 -1.70871,2.142598 -4.54015,3.263246 -5.94456,5.5395 2.0809,-0.06786 2.96097,-2.237185 4.57307,-3.205673 9.8658,-8.954907 18.76314,-18.985223 29.14509,-27.403454 1.70666,-3.791699 6.21187,-5.157038 7.89594,-8.954906 -0.11104,0.0329 -0.33311,0.09459 -0.44415,0.127487 m -53.38605,29.404171 c -1.59565,1.359172 -2.62786,3.35372 -4.15359,4.844491 -0.80194,0.390685 -0.56341,2.934249 0.35573,1.538064 1.13504,-2.185778 6.11728,-3.701224 3.79786,-6.382555 m 0.46883,3.664212 c -1.65733,1.805375 -3.67244,3.292033 -4.76019,5.52305 0.81838,2.724512 2.1652,5.695773 5.1118,6.734171 1.85266,-2.241296 3.7259,-4.486706 5.99597,-6.337318 -2.72655,-1.340666 -3.70738,-4.620362 -6.34758,-5.919903 m 12.78361,8.463466 c -2.46955,1.65527 -4.14742,4.301646 -6.61903,5.899341 3.48531,0.709401 5.12004,-3.518219 7.90828,-4.762242 -0.52023,-0.220018 -0.84715,-1.052793 -1.28925,-1.137099 m -21.74264,4.737568 c -1.13505,1.712844 -3.30436,2.420189 -4.06106,4.404457 -3.54084,2.477764 -4.41063,7.990533 -2.31326,11.656801 0.82453,5.843822 3.82048,11.253777 4.36125,17.21274 0.074,4.34895 1.95139,8.62386 0.91503,12.98925 -0.1501,12.74249 -2.49831,26.10597 -10.38603,36.47761 -3.81637,6.69512 -10.14547,11.58074 -16.29156,15.78367 -5.68344,5.36884 -9.23455,12.73838 -14.93857,17.95712 4.03228,-5.97336 8.06867,-11.95907 12.94813,-17.258 -0.99934,0.26114 -1.94108,0.72175 -2.79236,1.30367 -4.66766,5.41407 -9.27568,10.89186 -13.67192,16.55269 -0.38864,0.37424 -1.41879,1.43526 -1.76013,1.11243 3.91096,-5.83766 9.15846,-10.88162 13.11054,-16.67402 -1.05894,0.30227 -2.10146,0.68679 -3.06789,1.21728 -4.88563,4.92057 -8.94875,10.66777 -13.51563,15.90911 -0.037,0.66004 -1.19468,0.0432 -0.4791,-0.28787 3.67038,-5.2763 7.93912,-10.2051 12.09683,-15.03727 -7.44565,1.97606 -15.15859,2.58882 -22.82011,2.5991 -3.9747,3.44625 -7.23589,8.00904 -10.60195,11.80485 12.55332,3.1522 26.12652,3.28586 38.83611,0.45648 10.81171,-2.31328 21.39515,-6.7712 29.42475,-14.56844 4.67794,-3.23239 7.33869,-8.3072 10.85076,-12.60062 8.83357,-13.55674 11.61362,-30.83529 8.13241,-46.59428 -2.36467,-9.20989 -6.98093,-17.373146 -12.10506,-25.332835 -1.10214,-3.481206 -1.17822,-8.856206 2.60731,-10.649245 0.68473,-1.155604 4.00349,-3.448306 1.20495,-3.974703 -3.10082,2.37084 -5.39145,5.815035 -6.83905,9.473079 -0.18301,0.337222 -0.89241,0.17478 -0.80811,-0.259086 0.68473,-4.449696 3.88629,-7.926789 6.53679,-11.317522 -0.82249,-1.410577 -2.88489,-2.481877 -4.57307,-2.356446 M 3.1132156,77.127348 c -2.98976674,5.426406 0.6723893,11.081055 1.3057097,16.509517 0.4626531,4.649148 3.2488528,8.722555 4.0507838,13.293565 0.102812,1.87733 1.5812469,3.30026 2.0911919,5.04395 0.296099,0.54902 -0.7114569,0.32077 -0.725851,-0.0781 -4.9306474,-7.19005 -3.9930038,-13.094112 -7.4127295,-20.385523 0.9417559,4.359219 1.6079764,8.701993 3.0658475,12.983083 1.6429331,3.34138 1.9451991,7.54227 4.531944,10.31201 1.628539,4.66766 4.091909,8.95491 6.497705,13.2216 4.081628,6.84521 8.284574,13.77677 13.88576,19.41498 9.415503,11.7884 22.371844,20.07914 34.552986,28.78524 14.434775,8.89939 30.596787,14.86452 47.326327,17.624 15.56776,2.80059 31.87988,1.63675 46.58606,-4.33249 18.58839,-7.07961 33.38094,-23.33212 38.98008,-42.45921 1.95341,-5.12827 0.96849,-10.64924 2.08089,-15.95639 -1.1926,-7.27496 -1.38177,-14.85425 -4.62447,-21.70975 -0.0288,-2.96303 -3.02266,-4.7684 -3.14809,-7.58956 -2.28653,-4.924681 -5.90345,-9.072109 -8.38533,-13.848744 -1.0528,2.183721 1.00345,4.252294 2.29477,5.821202 11.25172,16.373802 14.62394,38.157572 7.80547,56.926882 -5.01105,14.72266 -16.22782,26.61593 -29.32398,34.62908 -5.17966,1.39822 -9.83294,4.70261 -15.26344,5.48191 -22.93937,5.89113 -47.08986,0.49555 -68.678276,-8.02549 -8.987809,-4.53193 -18.043468,-9.16668 -26.219064,-15.11127 -3.111084,-3.21183 -7.184487,-5.3051 -10.168086,-8.6403 -0.892406,0.79371 -1.478432,-0.62716 -2.045954,-1.16177 -6.569674,-4.9946 -11.03993,-12.18116 -16.702803,-18.03936 -5.660816,-8.78629 -11.492301,-17.64045 -15.413545,-27.27802 1.529842,-0.31666 0.143938,1.19056 1.529842,1.1885 3.526444,8.86649 9.024818,17.21686 14.957057,24.81877 2.685446,4.90823 6.499761,9.07005 10.433342,12.99335 7.523767,5.82943 14.290838,13.50536 22.828329,17.69186 3.026779,2.62581 6.658091,4.44147 9.964519,6.68687 10.737663,5.46137 21.93181,10.74178 33.878539,12.54099 2.83144,-3.90685 6.59229,-7.16804 9.13792,-11.22294 -1.48872,-0.70323 -2.43459,0.77932 -3.28793,1.76013 -2.46748,2.17962 -3.77319,5.68345 -6.71772,7.25441 1.71902,-3.44215 4.56279,-6.13581 7.08167,-8.97341 0.45443,-0.86157 -1.18027,-0.85745 -1.59769,-0.44209 -3.79786,3.0535 -6.42985,7.58956 -10.126958,10.5238 2.115868,-4.15154 5.650538,-7.39216 8.724608,-10.83018 0.0391,-0.66417 -1.29132,-0.71969 -1.58743,-0.13777 -1.57712,2.04801 -3.79786,3.59224 -5.1344,5.79447 -0.269368,0.13572 -1.221408,0.66004 -0.995229,0.0432 1.336559,-2.52096 3.618979,-4.40035 5.292759,-6.67044 -3.04324,-0.33929 -4.09602,4.14743 -6.931579,5.00282 0.976721,-2.24129 3.701219,-3.47709 4.585409,-5.57858 -2.481869,-1.3756 -3.100798,2.50657 -4.930859,2.58265 0.187121,-1.0055 1.59153,-1.9267 2.13438,-3.01446 -1.052789,-1.03015 -1.860899,0.34545 -2.831439,0.67239 0.304319,-0.58191 0.769029,-1.07333 0.989049,-1.69638 -17.558197,-5.61969 -34.23838,-14.4759 -48.761574,-25.89829 -1.315989,0.38041 -1.591526,2.73478 -3.164547,2.57028 -0.156274,-1.41878 2.208399,-2.23717 2.243355,-3.48942 -1.967819,-3.07818 -3.265302,2.31944 -5.231065,1.94726 -0.351617,-1.68817 4.546337,-3.18922 1.990436,-4.91235 -1.924637,0.39686 -2.714231,3.42363 -4.75813,3.5758 0.09047,-2.29682 5.506601,-3.97882 2.346165,-6.07206 -2.278309,1.43936 -3.542894,4.71493 -6.010377,5.47163 0.785482,-2.41607 3.431859,-4.07957 5.023386,-6.09262 -4.649151,-5.0275 -9.359986,-10.0406 -13.560876,-15.44646 -1.710788,-3.68272 -4.110415,2.08298 -5.975422,2.62583 0.275537,-2.40992 3.102861,-3.70328 3.818431,-5.81504 -1.936974,-1.82387 -3.516163,3.99527 -5.638199,3.35165 0.61687,-2.06033 3.401015,-3.21182 4.39212,-5.03159 -1.028118,-2.90136 -3.343441,2.54356 -4.825985,1.81565 0.133655,-1.93697 4.65943,-2.79031 2.786199,-4.68617 -0.968488,0.0987 -1.544233,1.46405 -2.594971,1.54836 -0.01028,-1.13299 1.250191,-1.63678 1.840333,-2.44486 -0.363954,-0.89652 -0.86362,-1.75603 -1.223461,-2.66694 -1.172054,0.6292 -1.390017,2.86639 -2.835549,2.82116 -0.09664,-1.39825 1.80743,-2.19196 2.33794,-3.15839 C 13.120915,102.47045 7.2565301,90.844497 3.9213162,78.332302 3.7321426,77.964236 3.8123358,76.971072 3.1132156,77.127348 M 114.27332,177.5025 c -3.61898,3.40924 -6.31675,7.5834 -9.84525,11.09545 0.64975,0.58603 2.11997,1.16383 2.67516,0.13777 2.54356,-3.67655 5.52922,-7.01999 8.65264,-10.21129 1.56889,-1.18848 -0.84717,-1.03427 -1.48255,-1.02193 z"
     style="stroke-width:0.205623" />
  <metadata
     id="metadata1">
    <rdf:RDF>
      <cc:License
         rdf:about="http://creativecommons.org/publicdomain/zero/1.0/">
        <cc:permits
           rdf:resource="http://creativecommons.org/ns#Reproduction" />
        <cc:permits
           rdf:resource="http://creativecommons.org/ns#Distribution" />
        <cc:permits
           rdf:resource="http://creativecommons.org/ns#DerivativeWorks" />
      </cc:License>
      <cc:Work
         rdf:about="">
        <cc:license
           rdf:resource="http://creativecommons.org/publicdomain/zero/1.0/" />
        <dc:title>Sickle</dc:title>
        <dc:creator>
          <cc:Agent>
            <dc:title>Pearson Scott Foresman</dc:title>
          </cc:Agent>
        </dc:creator>
        <dc:publisher>
          <cc:Agent>
            <dc:title>Wikimedia Commons</dc:title>
          </cc:Agent>
        </dc:publisher>
        <dc:source>https://commons.wikimedia.org/wiki/File:Sickle_(PSF).png</dc:source>
        <dc:contributor>
          <cc:Agent>
            <dc:title>Kevin David Pointon (Firkin)</dc:title>
          </cc:Agent>
        </dc:contributor>
        <dc:subject>
          <rdf:Bag>
            <rdf:li>sickle</rdf:li>
            <rdf:li>tool</rdf:li>
            <rdf:li>agriculture</rdf:li>
            <rdf:li>blade</rdf:li>
            <rdf:li>garden</rdf:li>
            <rdf:li>gardening</rdf:li>
          </rdf:Bag>
        </dc:subject>
      </cc:Work>
    </rdf:RDF>
  </metadata>
</svg>
