<?xml version="1.0" encoding="UTF-8" standalone="no"?>
<!-- Generator: Adobe Illustrator 15.1.0, SVG Export Plug-In . SVG Version: 6.00 Build 0)  -->

<svg
   xmlns:dc="http://purl.org/dc/elements/1.1/"
   xmlns:cc="http://creativecommons.org/ns#"
   xmlns:rdf="http://www.w3.org/1999/02/22-rdf-syntax-ns#"
   xmlns:svg="http://www.w3.org/2000/svg"
   xmlns="http://www.w3.org/2000/svg"
   xmlns:sodipodi="http://sodipodi.sourceforge.net/DTD/sodipodi-0.dtd"
   xmlns:inkscape="http://www.inkscape.org/namespaces/inkscape"
   version="1.1"
   id="flash0.ai"
   x="0px"
   y="0px"
   width="256"
   height="256"
   viewBox="0 0 256 256.00001"
   xml:space="preserve"
   sodipodi:docname="easter_egg_05.svg"
   inkscape:version="0.92.4 (5da689c313, 2019-01-14)"><title
   id="title945">Easter Egg</title><metadata
   id="metadata138"><rdf:RDF><cc:Work
       rdf:about=""><dc:format>image/svg+xml</dc:format><dc:type
         rdf:resource="http://purl.org/dc/dcmitype/StillImage" /><dc:title>Easter Egg</dc:title><cc:license
         rdf:resource="http://creativecommons.org/publicdomain/zero/1.0/" /><dc:creator><cc:Agent><dc:title>Glitch</dc:title></cc:Agent></dc:creator><dc:source>https://opengameart.org/node/20149</dc:source></cc:Work><cc:License
       rdf:about="http://creativecommons.org/publicdomain/zero/1.0/"><cc:permits
         rdf:resource="http://creativecommons.org/ns#Reproduction" /><cc:permits
         rdf:resource="http://creativecommons.org/ns#Distribution" /><cc:permits
         rdf:resource="http://creativecommons.org/ns#DerivativeWorks" /></cc:License></rdf:RDF></metadata><defs
   id="defs136" /><sodipodi:namedview
   pagecolor="#ffffff"
   bordercolor="#666666"
   borderopacity="1"
   objecttolerance="10"
   gridtolerance="10"
   guidetolerance="10"
   inkscape:pageopacity="0"
   inkscape:pageshadow="2"
   inkscape:window-width="1920"
   inkscape:window-height="1025"
   id="namedview134"
   showgrid="false"
   inkscape:zoom="0.54029306"
   inkscape:cx="241.18003"
   inkscape:cy="69.267244"
   inkscape:window-x="-8"
   inkscape:window-y="-8"
   inkscape:window-maximized="1"
   inkscape:current-layer="flash0.ai"
   fit-margin-top="0"
   fit-margin-left="0"
   fit-margin-right="0"
   fit-margin-bottom="0" />
<g
   id="g131"
   transform="matrix(8.2853199,0,0,8.2853199,-0.06508337,14.742876)">
	
		<radialGradient
   id="SVGID_1_"
   cx="786.4668"
   cy="-326.0918"
   r="13.2816"
   gradientTransform="matrix(0.3652,1.0845,1.3689,-0.4609,172.0398,-991.6178)"
   gradientUnits="userSpaceOnUse">
		<stop
   offset="0"
   style="stop-color:#FFFFFF"
   id="stop2" />
		<stop
   offset="0.3137"
   style="stop-color:#F2EB6A"
   id="stop4" />
		<stop
   offset="0.4039"
   style="stop-color:#E2D95C"
   id="stop6" />
		<stop
   offset="0.5804"
   style="stop-color:#B9AB38"
   id="stop8" />
		<stop
   offset="0.8235"
   style="stop-color:#7A6500"
   id="stop10" />
	</radialGradient>
	<path
   style="clip-rule:evenodd;fill:url(#SVGID_1_);fill-rule:evenodd"
   d="m 25.309,5.27 c 3.128,1.716 4.939,4.081 5.436,7.095 0.495,3.05 -0.152,5.931 -1.945,8.639 -1.641,2.518 -3.834,4.272 -6.58,5.264 -3.776,1.336 -8.086,1.411 -12.931,0.229 C 4.062,25.238 1.03,22.969 0.191,19.687 -0.572,16.483 1.049,13.069 5.055,9.446 8.793,6.089 12.626,4.124 16.555,3.552 19.529,3.134 22.448,3.706 25.309,5.27 Z"
   id="path13"
   inkscape:connector-curvature="0" />
	
		<radialGradient
   id="SVGID_2_"
   cx="731.08112"
   cy="-433.89209"
   r="17.502001"
   gradientTransform="matrix(0.2118,1.1246,1.1581,-0.2181,362.4497,-908.7784)"
   gradientUnits="userSpaceOnUse">
		<stop
   offset="0"
   style="stop-color:#D3B747;stop-opacity:0"
   id="stop15" />
		<stop
   offset="0.1608"
   style="stop-color:#D7BC4F;stop-opacity:0.0471"
   id="stop17" />
		<stop
   offset="0.4118"
   style="stop-color:#E1C964;stop-opacity:0.1725"
   id="stop19" />
		<stop
   offset="0.7137"
   style="stop-color:#F1DE87;stop-opacity:0.3804"
   id="stop21" />
		<stop
   offset="0.8039"
   style="stop-color:#F7E593;stop-opacity:0.4588"
   id="stop23" />
		<stop
   offset="0.8431"
   style="stop-color:#E9D781;stop-opacity:0.5333"
   id="stop25" />
		<stop
   offset="0.9176"
   style="stop-color:#C6B153;stop-opacity:0.7412"
   id="stop27" />
		<stop
   offset="1"
   style="stop-color:#9A831B"
   id="stop29" />
	</radialGradient>
	<path
   style="clip-rule:evenodd;fill:url(#SVGID_2_);fill-rule:evenodd"
   d="m 25.309,5.27 c 3.128,1.716 4.939,4.081 5.436,7.095 0.495,3.05 -0.152,5.931 -1.945,8.639 -1.641,2.518 -3.834,4.272 -6.58,5.264 -3.776,1.336 -8.086,1.411 -12.931,0.229 C 4.062,25.238 1.03,22.969 0.191,19.687 -0.572,16.483 1.049,13.069 5.055,9.446 8.793,6.089 12.626,4.124 16.555,3.552 19.529,3.134 22.448,3.706 25.309,5.27 Z"
   id="path32"
   inkscape:connector-curvature="0" />
	<g
   id="g129">
		
			<linearGradient
   id="SVGID_3_"
   gradientUnits="userSpaceOnUse"
   x1="6.1162"
   y1="-23.2041"
   x2="9.9399004"
   y2="-23.2041"
   gradientTransform="matrix(0.1111,0.9938,-0.9938,0.1111,-4.44755e-4,-6.969273e-5)">
			<stop
   offset="0"
   style="stop-color:#98412F"
   id="stop34" />
			<stop
   offset="0.4902"
   style="stop-color:#CF6D5B"
   id="stop36" />
			<stop
   offset="0.7804"
   style="stop-color:#762917"
   id="stop38" />
			<stop
   offset="1"
   style="stop-color:#591C0D"
   id="stop40" />
		</linearGradient>
		<path
   style="clip-rule:evenodd;fill:url(#SVGID_3_);fill-rule:evenodd"
   d="m 20.5,4.7 c -0.134,0.1 -0.233,0.167 -0.3,0.2 -0.066,0 -0.15,-0.017 -0.25,-0.05 l 0.3,-0.2 c 0.134,-0.066 0.384,-0.3 0.75,-0.7 0.3,-0.3 0.583,-0.5 0.85,-0.6 0.7,-0.333 1.617,-0.467 2.75,-0.4 1.801,0.233 2.834,0.733 3.101,1.5 0.566,1.833 -0.101,2.85 -2,3.05 -1.8,0.2 -2.75,0.017 -2.851,-0.55 0,-0.067 0,-0.15 0,-0.25 0.267,-0.034 0.634,-0.034 1.101,0 0.399,0 0.684,-0.2 0.85,-0.6 0.066,-0.233 0.084,-0.617 0.05,-1.15 C 24.818,4.717 24.768,4.55 24.702,4.45 24.634,4.183 24.566,4 24.5,3.9 24.066,3.3 23.15,3.3 21.75,3.9 21.55,4 21.3,4.167 21,4.4 c -0.033,0 -0.066,0.017 -0.1,0.05 -0.167,0.1 -0.3,0.183 -0.4,0.25 z"
   id="path43"
   inkscape:connector-curvature="0" />
		<linearGradient
   id="SVGID_4_"
   gradientUnits="userSpaceOnUse"
   x1="19.9004"
   y1="5.6553001"
   x2="26.3004"
   y2="5.6553001">
			<stop
   offset="0"
   style="stop-color:#591C0D"
   id="stop45" />
			<stop
   offset="0.7804"
   style="stop-color:#A44B39"
   id="stop47" />
			<stop
   offset="1"
   style="stop-color:#C05F4D"
   id="stop49" />
		</linearGradient>
		<path
   style="clip-rule:evenodd;fill:url(#SVGID_4_);fill-rule:evenodd"
   d="m 21,4.4 c 0.267,-0.066 0.583,-0.05 0.95,0.05 0.233,0.033 0.566,0.117 1,0.25 0.366,0 0.7,0 1,0 0.2,-0.034 0.45,-0.117 0.75,-0.25 0.066,0.1 0.116,0.267 0.149,0.5 0.034,0.533 0.017,0.917 -0.05,1.15 -0.166,0.4 -0.45,0.6 -0.85,0.6 -0.467,-0.034 -0.834,-0.034 -1.101,0 0,0.1 0,0.183 0,0.25 L 22.748,6.9 C 22.481,5.967 21.665,5.317 20.298,4.95 20.331,4.883 20.382,4.833 20.448,4.8 l 0.05,-0.1 c 0.1,-0.067 0.233,-0.15 0.4,-0.25 C 20.934,4.417 20.967,4.4 21,4.4 Z"
   id="path52"
   inkscape:connector-curvature="0" />
		
			<linearGradient
   id="SVGID_5_"
   gradientUnits="userSpaceOnUse"
   x1="4.9165001"
   y1="-18.8848"
   x2="8.9666004"
   y2="-18.8848"
   gradientTransform="matrix(-0.0031,1,-1,-0.0031,4.343293e-4,-7.342687e-5)">
			<stop
   offset="0"
   style="stop-color:#98412F"
   id="stop54" />
			<stop
   offset="0.4902"
   style="stop-color:#CF6D5B"
   id="stop56" />
			<stop
   offset="0.7804"
   style="stop-color:#762917"
   id="stop58" />
			<stop
   offset="1"
   style="stop-color:#591C0D"
   id="stop60" />
		</linearGradient>
		<path
   style="clip-rule:evenodd;fill:url(#SVGID_5_);fill-rule:evenodd"
   d="M 20.1,9.25 C 19.034,9.283 18.067,9.217 17.201,9.05 16.867,8.984 16.584,8.917 16.35,8.85 15.95,8.683 15.634,8.533 15.4,8.4 15.366,8.334 15.333,8.283 15.299,8.25 15.066,8.017 14.932,7.767 14.899,7.5 c 0,-0.1 0,-0.2 0,-0.3 0.067,-0.7 0.617,-1.3 1.65,-1.8 0.3,-0.133 0.617,-0.267 0.95,-0.4 0.167,-0.067 0.333,-0.117 0.5,-0.15 0.5,-0.133 0.983,-0.184 1.45,-0.15 0.133,0.066 0.267,0.117 0.399,0.15 0.034,0 0.067,0 0.101,0 0.1,0.033 0.184,0.05 0.25,0.05 0.033,0 0.066,0.017 0.1,0.05 1.367,0.367 2.184,1.017 2.45,1.95 0,0.033 0,0.067 0,0.1 0.1,0.4 0.1,0.733 0,1 -0.1,0.267 -0.283,0.483 -0.55,0.65 -0.434,0.367 -1.017,0.567 -1.75,0.6 H 20.35 c -0.1,0 -0.183,0 -0.25,0 z"
   id="path63"
   inkscape:connector-curvature="0" />
		
			<radialGradient
   id="SVGID_6_"
   cx="-1.1748"
   cy="-22.466801"
   r="16.8221"
   gradientTransform="matrix(-0.4126,0.9109,0.9379,0.4248,41.5351,18.8144)"
   gradientUnits="userSpaceOnUse">
			<stop
   offset="0"
   style="stop-color:#F28C79"
   id="stop65" />
			<stop
   offset="0.2706"
   style="stop-color:#AF503E"
   id="stop67" />
			<stop
   offset="0.7608"
   style="stop-color:#6B2210"
   id="stop69" />
			<stop
   offset="1"
   style="stop-color:#9E423A"
   id="stop71" />
		</radialGradient>
		<path
   style="clip-rule:evenodd;fill:url(#SVGID_6_);fill-rule:evenodd"
   d="m 20.35,9.25 h 0.101 c 0.733,-0.033 1.316,-0.233 1.75,-0.6 0.267,-0.167 0.45,-0.383 0.55,-0.65 0.333,0.3 0.65,0.617 0.95,0.95 1.666,1.9 2.6,4.1 2.8,6.6 0.233,3.334 -0.116,6.033 -1.05,8.101 -0.434,1.033 -0.9,1.716 -1.4,2.05 -1.166,0.533 -1.934,0.866 -2.3,1 L 20.6,27 c 0.767,-0.833 1.483,-2.083 2.15,-3.75 C 24.184,19.783 24.267,16.5 23,13.4 22.3,11.733 21.417,10.35 20.35,9.25 Z m -7.5,-4.2 c 0.066,-0.1 0.133,-0.183 0.2,-0.25 L 14.2,4.7 c 0.6,0 1.166,0.05 1.7,0.15 -0.667,0.133 -1.184,0.2 -1.55,0.2 -0.533,0 -1.033,0 -1.5,0 z"
   id="path74"
   inkscape:connector-curvature="0" />
		
			<linearGradient
   id="SVGID_7_"
   gradientUnits="userSpaceOnUse"
   x1="1.3085999"
   y1="-17.1826"
   x2="8.4348001"
   y2="-17.1826"
   gradientTransform="matrix(0.221,0.9753,-0.9753,0.221,-2.992749e-4,-1.169443e-4)">
			<stop
   offset="0"
   style="stop-color:#98412F"
   id="stop76" />
			<stop
   offset="0.4902"
   style="stop-color:#CF6D5B"
   id="stop78" />
			<stop
   offset="0.7804"
   style="stop-color:#762917"
   id="stop80" />
			<stop
   offset="1"
   style="stop-color:#591C0D"
   id="stop82" />
		</linearGradient>
		<path
   style="clip-rule:evenodd;fill:url(#SVGID_7_);fill-rule:evenodd"
   d="M 19.85,4.85 C 19.717,4.817 19.583,4.767 19.451,4.7 18.983,4.667 18.5,4.717 18,4.85 17.667,4.65 17.366,4.416 17.1,4.15 16.901,3.95 16.717,3.733 16.55,3.5 15.85,2.7 15.567,2.017 15.7,1.45 15.833,0.983 16.233,0.6 16.9,0.3 17.533,0.033 18.133,-0.05 18.7,0.05 20,0.217 20.533,1.033 20.3,2.5 20.267,3.1 20.116,3.883 19.85,4.85 Z"
   id="path85"
   inkscape:connector-curvature="0" />
		
			<linearGradient
   id="SVGID_8_"
   gradientUnits="userSpaceOnUse"
   x1="0.021"
   y1="-14.3398"
   x2="3.8473001"
   y2="-14.3398"
   gradientTransform="matrix(-0.2548,0.967,-0.967,-0.2548,-5.140007e-4,3.053546e-4)">
			<stop
   offset="0"
   style="stop-color:#98412F"
   id="stop87" />
			<stop
   offset="0.4902"
   style="stop-color:#CF6D5B"
   id="stop89" />
			<stop
   offset="0.7804"
   style="stop-color:#762917"
   id="stop91" />
			<stop
   offset="1"
   style="stop-color:#591C0D"
   id="stop93" />
		</linearGradient>
		<path
   style="clip-rule:evenodd;fill:url(#SVGID_8_);fill-rule:evenodd"
   d="m 12.4,7.1 c 0.1,0.133 0.217,0.233 0.35,0.3 -0.567,0 -1.033,-0.017 -1.4,-0.05 C 10.75,7.25 10.3,7.1 10,6.9 9.5,6.6 9.217,6.133 9.15,5.5 c -0.1,-0.567 0,-1.083 0.3,-1.55 0.733,-0.967 2.216,-1.167 4.45,-0.6 1.367,0.333 2.433,0.6 3.2,0.8 0.267,0.267 0.567,0.5 0.9,0.7 C 17.833,4.883 17.667,4.933 17.5,5 17.233,4.9 16.967,4.783 16.7,4.65 16.634,4.617 16.566,4.584 16.5,4.55 15.5,4.05 14.667,3.9 14,4.1 13.667,4.166 13.35,4.4 13.05,4.8 12.984,4.867 12.917,4.95 12.85,5.05 12.75,5.217 12.65,5.4 12.55,5.6 12.217,6.233 12.167,6.733 12.4,7.1 Z"
   id="path96"
   inkscape:connector-curvature="0" />
		<linearGradient
   id="SVGID_9_"
   gradientUnits="userSpaceOnUse"
   x1="9.8374004"
   y1="6.0249"
   x2="17.7624"
   y2="6.0249">
			<stop
   offset="0"
   style="stop-color:#591C0D"
   id="stop98" />
			<stop
   offset="0.7804"
   style="stop-color:#A44B39"
   id="stop100" />
			<stop
   offset="1"
   style="stop-color:#C05F4D"
   id="stop102" />
		</linearGradient>
		<path
   style="clip-rule:evenodd;fill:url(#SVGID_9_);fill-rule:evenodd"
   d="M 14.9,7.2 C 14.033,7.4 13.3,7.45 12.7,7.35 L 12.4,7.1 c -0.233,-0.367 -0.183,-0.867 0.15,-1.5 0.1,-0.2 0.2,-0.383 0.3,-0.55 0.467,0 0.967,0 1.5,0 0.367,0 0.883,-0.066 1.55,-0.2 C 15.934,4.817 16,4.8 16.1,4.8 16.3,4.734 16.5,4.683 16.701,4.65 16.967,4.783 17.233,4.9 17.5,5 17.167,5.133 16.85,5.267 16.55,5.4 15.517,5.9 14.967,6.5 14.9,7.2 Z"
   id="path105"
   inkscape:connector-curvature="0" />
		
			<linearGradient
   id="SVGID_10_"
   gradientUnits="userSpaceOnUse"
   x1="-5.1177001"
   y1="16.971701"
   x2="0.46720001"
   y2="16.971701"
   gradientTransform="rotate(-60.797365,-3.3779142e-4,1.5351946e-5)">
			<stop
   offset="0"
   style="stop-color:#98412F"
   id="stop107" />
			<stop
   offset="0.4902"
   style="stop-color:#CF6D5B"
   id="stop109" />
			<stop
   offset="0.7804"
   style="stop-color:#762917"
   id="stop111" />
			<stop
   offset="1"
   style="stop-color:#591C0D"
   id="stop113" />
		</linearGradient>
		<path
   style="clip-rule:evenodd;fill:url(#SVGID_10_);fill-rule:evenodd"
   d="m 16.35,8.85 c 0.233,0.066 0.517,0.133 0.851,0.2 0.866,0.167 1.833,0.233 2.899,0.2 -0.166,0.4 -0.383,0.95 -0.649,1.65 -0.8,2.4 -1.167,4.167 -1.101,5.3 L 17.3,14.4 c -0.333,-0.534 -0.55,-1.067 -0.649,-1.601 l -0.15,-0.35 c -0.733,0.466 -1.267,0.783 -1.6,0.95 -0.233,0.167 -0.566,0.417 -1,0.75 L 14.15,13 C 14.417,11.833 14.7,11.033 15,10.6 l 0.9,-1.2 c 0.067,-0.133 0.216,-0.317 0.45,-0.55 z m -5,-1.5 C 11.717,7.383 12.183,7.4 12.75,7.4 12.617,7.334 12.5,7.233 12.4,7.1 l 0.3,0.25 c 0.6,0.1 1.333,0.05 2.2,-0.15 0,0.1 0,0.2 0,0.3 0.033,0.267 0.167,0.517 0.4,0.75 -0.6,0.3 -1.066,0.517 -1.4,0.65 l -2.8,1.2 c -0.733,0.333 -1.684,0.967 -2.85,1.9 -0.067,-0.267 0,-0.8 0.2,-1.6 L 8.8,9.4 8.85,9.35 C 9.017,9.017 9.1,8.833 9.1,8.8 8.933,8.733 8.517,8.767 7.85,8.9 7.117,9 6.65,9.033 6.45,9 L 6.8,8.8 7.5,8.2 C 7.867,7.9 8.583,7.666 9.65,7.5 c 0.6,-0.033 1.167,-0.083 1.7,-0.15 z"
   id="path116"
   inkscape:connector-curvature="0" />
		
			<radialGradient
   id="SVGID_11_"
   cx="-0.3247"
   cy="-19.6147"
   r="15.8766"
   gradientTransform="matrix(-0.4127,0.9108,0.9378,0.425,36.2609,16.4314)"
   gradientUnits="userSpaceOnUse">
			<stop
   offset="0"
   style="stop-color:#F28C79"
   id="stop118" />
			<stop
   offset="0.2706"
   style="stop-color:#AF503E"
   id="stop120" />
			<stop
   offset="0.7608"
   style="stop-color:#6B2210"
   id="stop122" />
			<stop
   offset="1"
   style="stop-color:#9E423A"
   id="stop124" />
		</radialGradient>
		<path
   style="clip-rule:evenodd;fill:url(#SVGID_11_);fill-rule:evenodd"
   d="m 8.8,9.4 -0.35,1 c -0.2,0.8 -0.267,1.333 -0.2,1.6 1.167,-0.933 2.117,-1.567 2.85,-1.9 l 2.8,-1.2 c 0.333,-0.133 0.8,-0.35 1.4,-0.65 0.033,0.033 0.066,0.083 0.101,0.15 -3.333,1.434 -6.184,3.417 -8.55,5.95 C 4.85,16.45 3.567,18.4 3,20.2 c -0.333,1 -0.367,1.95 -0.1,2.85 0.167,0.434 0.35,0.767 0.55,1 C 2.55,23.517 1.85,22.934 1.35,22.3 0.55,20.6 0.333,19.3 0.7,18.401 1.033,17.334 1.883,15.951 3.25,14.251 4.95,12.217 6.8,10.6 8.8,9.4 Z"
   id="path127"
   inkscape:connector-curvature="0" />
	</g>
</g>
</svg>