<?xml version="1.0" encoding="UTF-8" standalone="no"?>
<!-- Generator: Adobe Illustrator 15.1.0, SVG Export Plug-In . SVG Version: 6.00 Build 0)  -->

<svg
   xmlns:dc="http://purl.org/dc/elements/1.1/"
   xmlns:cc="http://creativecommons.org/ns#"
   xmlns:rdf="http://www.w3.org/1999/02/22-rdf-syntax-ns#"
   xmlns:svg="http://www.w3.org/2000/svg"
   xmlns="http://www.w3.org/2000/svg"
   xmlns:xlink="http://www.w3.org/1999/xlink"
   xmlns:sodipodi="http://sodipodi.sourceforge.net/DTD/sodipodi-0.dtd"
   xmlns:inkscape="http://www.inkscape.org/namespaces/inkscape"
   version="1.1"
   id="flash0.ai"
   x="0px"
   y="0px"
   width="256"
   height="256"
   viewBox="0 0 256.00001 256.00001"
   xml:space="preserve"
   sodipodi:docname="eggs_scrambled.svg"
   inkscape:version="0.92.4 (5da689c313, 2019-01-14)"><title
   id="title1068">Scrambled Eggs</title><metadata
   id="metadata261"><rdf:RDF><cc:Work
       rdf:about=""><dc:format>image/svg+xml</dc:format><dc:type
         rdf:resource="http://purl.org/dc/dcmitype/StillImage" /><dc:title>Scrambled Eggs</dc:title><cc:license
         rdf:resource="http://creativecommons.org/publicdomain/zero/1.0/" /><dc:creator><cc:Agent><dc:title>Glitch</dc:title></cc:Agent></dc:creator><dc:source>https://opengameart.org/node/20149</dc:source></cc:Work><cc:License
       rdf:about="http://creativecommons.org/publicdomain/zero/1.0/"><cc:permits
         rdf:resource="http://creativecommons.org/ns#Reproduction" /><cc:permits
         rdf:resource="http://creativecommons.org/ns#Distribution" /><cc:permits
         rdf:resource="http://creativecommons.org/ns#DerivativeWorks" /></cc:License></rdf:RDF></metadata><defs
   id="defs259"><linearGradient
     inkscape:collect="always"
     xlink:href="#SVGID_1_"
     id="linearGradient1196"
     gradientUnits="userSpaceOnUse"
     gradientTransform="matrix(0.78,4.513881e-4,4.28571e-4,0.78,3.5029,-3.6831)"
     x1="-4.4970999"
     y1="-7.7876"
     x2="38.723"
     y2="-7.7876" /><linearGradient
     inkscape:collect="always"
     xlink:href="#SVGID_2_"
     id="linearGradient1198"
     gradientUnits="userSpaceOnUse"
     gradientTransform="matrix(-0.7546,0.1974,-0.1974,-0.7546,10909.156,-14154.461)"
     x1="18077.559"
     y1="-14011.336"
     x2="18124.607"
     y2="-14011.336" /><linearGradient
     inkscape:collect="always"
     xlink:href="#SVGID_3_"
     id="linearGradient1200"
     gradientUnits="userSpaceOnUse"
     gradientTransform="matrix(0.78,-4.927345e-4,-5.1282e-4,0.78,-4.1919,4.021)"
     x1="7.2188001"
     y1="-16.4624"
     x2="46.7938"
     y2="-16.4624" /></defs><sodipodi:namedview
   pagecolor="#ffffff"
   bordercolor="#666666"
   borderopacity="1"
   objecttolerance="10"
   gridtolerance="10"
   guidetolerance="10"
   inkscape:pageopacity="0"
   inkscape:pageshadow="2"
   inkscape:window-width="1920"
   inkscape:window-height="1025"
   id="namedview257"
   showgrid="false"
   inkscape:zoom="1.6297231"
   inkscape:cx="38.956049"
   inkscape:cy="84.429174"
   inkscape:window-x="-8"
   inkscape:window-y="-8"
   inkscape:window-maximized="1"
   inkscape:current-layer="flash0.ai"
   fit-margin-top="0"
   fit-margin-left="0"
   fit-margin-right="0"
   fit-margin-bottom="0" />
<symbol
   id="eggy"
   viewBox="-0.008 -17.163 33.712 17.144"
   transform="translate(-49.226231,236.83408)">
	<g
   id="Layer_1_2_">
		
			<linearGradient
   id="SVGID_1_"
   gradientUnits="userSpaceOnUse"
   x1="-4.4970999"
   y1="-7.7876"
   x2="38.723"
   y2="-7.7876"
   gradientTransform="matrix(0.78,4.513881e-4,4.28571e-4,0.78,3.5029,-3.6831)">
			<stop
   offset="0.0235"
   style="stop-color:#A0A1A3"
   id="stop2" />
			<stop
   offset="1"
   style="stop-color:#78797A"
   id="stop4" />
		</linearGradient>
		<path
   style="clip-rule:evenodd;fill:url(#linearGradient1196);fill-rule:evenodd"
   d="m 29.835,-4.68 c 2.964,-1.482 4.225,-3.25 3.783,-5.304 -0.442,-2.054 -2.457,-3.783 -6.045,-5.187 -3.588,-1.378 -7.696,-2.041 -12.324,-1.989 -4.628,0.052 -8.424,0.833 -11.388,2.34 -2.964,1.482 -4.226,3.25 -3.783,5.304 0.442,2.054 2.457,3.77 6.045,5.148 3.588,1.404 7.696,2.081 12.324,2.028 4.654,-0.078 8.45,-0.858 11.388,-2.34 z"
   id="path7"
   inkscape:connector-curvature="0" />
		
			<linearGradient
   id="SVGID_2_"
   gradientUnits="userSpaceOnUse"
   x1="18077.559"
   y1="-14011.336"
   x2="18124.607"
   y2="-14011.336"
   gradientTransform="matrix(-0.7546,0.1974,-0.1974,-0.7546,10909.156,-14154.461)">
			<stop
   offset="0"
   style="stop-color:#CCCCCC"
   id="stop9" />
			<stop
   offset="1"
   style="stop-color:#FFFFFF"
   id="stop11" />
		</linearGradient>
		<path
   style="clip-rule:evenodd;fill:url(#linearGradient1198);fill-rule:evenodd"
   d="m 29.835,-4.524 c 2.964,-1.352 4.225,-2.964 3.783,-4.836 -0.416,-1.872 -2.418,-3.445 -6.006,-4.719 -3.588,-1.274 -7.709,-1.885 -12.363,-1.833 -4.628,0.052 -8.424,0.767 -11.388,2.145 -2.964,1.378 -4.226,3.003 -3.783,4.875 0.442,1.872 2.457,3.445 6.045,4.719 3.588,1.274 7.696,1.885 12.324,1.833 4.654,-0.078 8.45,-0.806 11.388,-2.184 z"
   id="path14"
   inkscape:connector-curvature="0" />
		
			<linearGradient
   id="SVGID_3_"
   gradientUnits="userSpaceOnUse"
   x1="7.2188001"
   y1="-16.4624"
   x2="46.7938"
   y2="-16.4624"
   gradientTransform="matrix(0.78,-4.927345e-4,-5.1282e-4,0.78,-4.1919,4.021)">
			<stop
   offset="0"
   style="stop-color:#CCCCCC"
   id="stop16" />
			<stop
   offset="1"
   style="stop-color:#FFFFFF"
   id="stop18" />
		</linearGradient>
		<path
   style="clip-rule:evenodd;fill:url(#linearGradient1200);fill-rule:evenodd"
   d="m 28.821,-4.992 c 2.704,-1.144 3.86,-2.496 3.471,-4.056 -0.416,-1.56 -2.262,-2.873 -5.538,-3.939 -3.302,-1.066 -7.072,-1.573 -11.31,-1.521 -4.238,0.052 -7.722,0.663 -10.452,1.833 -2.704,1.144 -3.86,2.496 -3.471,4.056 0.416,1.56 2.262,2.873 5.538,3.939 3.302,1.066 7.072,1.573 11.31,1.521 4.238,-0.052 7.722,-0.663 10.452,-1.833 z"
   id="path21"
   inkscape:connector-curvature="0" />
		<path
   style="clip-rule:evenodd;fill:#aeb3b3;fill-rule:evenodd"
   d="m 28.977,-7.41 1.443,-0.468 c 0.26,-0.078 0.403,-0.234 0.429,-0.468 0.078,-0.208 0.26,-0.429 0.546,-0.663 0.156,-0.104 0.234,-0.208 0.234,-0.313 0.052,-0.182 0.013,-0.507 -0.117,-0.975 -0.13,-0.468 -0.676,-0.962 -1.638,-1.482 -0.702,-0.364 -1.404,-0.65 -2.106,-0.858 -0.442,-0.156 -0.728,-0.26 -0.858,-0.312 -0.156,-0.026 -0.456,-0.039 -0.897,-0.039 -0.338,0 -0.637,-0.052 -0.897,-0.156 -0.234,-0.078 -0.494,-0.117 -0.78,-0.117 -0.364,0 -0.793,-0.104 -1.287,-0.312 -0.78,-0.312 -1.209,-0.481 -1.287,-0.507 -0.338,-0.104 -0.649,-0.13 -0.936,-0.078 -0.39,0.104 -0.793,0.195 -1.209,0.273 -0.468,0.078 -0.91,0.091 -1.326,0.039 -0.546,-0.026 -0.949,-0.039 -1.209,-0.039 -0.442,0.026 -0.728,0.065 -0.858,0.117 -0.13,0.078 -0.272,0.169 -0.429,0.273 -0.208,0.156 -0.338,0.247 -0.39,0.272 -0.052,0.026 -0.182,0.052 -0.39,0.078 -0.728,0.338 -1.196,0.507 -1.404,0.507 -0.208,0 -0.468,0.091 -0.78,0.273 -0.312,0.156 -0.845,0.234 -1.599,0.234 -0.572,0 -0.858,0.13 -0.858,0.39 0,0.182 -0.299,0.338 -0.897,0.468 -0.364,0.078 -0.715,0.377 -1.053,0.897 L 7.8,-10.452 c -0.208,-0.104 -0.325,-0.156 -0.351,-0.156 -0.026,-0.026 -0.156,-0.026 -0.39,0 -0.494,0 -0.936,-0.052 -1.326,-0.156 -0.52,-0.13 -0.897,-0.04 -1.131,0.272 -0.156,0.182 -0.546,0.338 -1.17,0.468 -0.234,0.079 -0.299,0.222 -0.195,0.43 0.104,0.156 0.208,0.26 0.312,0.312 l 2.808,0.585 c -0.442,0.13 -0.832,0.195 -1.17,0.195 -0.312,-0.026 -0.559,-0.039 -0.741,-0.039 -0.286,-0.026 -0.572,0 -0.858,0.078 -0.286,0.078 -0.078,0.325 0.624,0.741 0.598,0.364 1.027,0.585 1.287,0.663 1.69,0.234 3.081,0.545 4.173,0.936 1.118,0.39 7.553,-0.039 19.305,-1.287 z"
   id="path23"
   inkscape:connector-curvature="0" />
		<path
   style="clip-rule:evenodd;fill:#ffd740;fill-rule:evenodd"
   d="m 23.751,-2.808 0.039,-0.117 c 0.052,-0.052 0.117,-0.078 0.195,-0.078 0.234,0 0.494,-0.221 0.78,-0.663 0.104,-0.156 0.195,-0.325 0.273,-0.507 0.078,-0.156 0.234,-0.247 0.468,-0.273 0.337,-0.026 0.611,-0.168 0.819,-0.429 l 0.078,-0.507 c 0.052,-0.312 0.117,-0.481 0.195,-0.507 0.286,-0.052 0.507,-0.13 0.663,-0.234 l 0.702,-0.585 0.585,-0.117 c 0.442,-0.13 0.754,-0.286 0.936,-0.468 0.338,-0.338 0.377,-0.689 0.117,-1.053 l 0.273,-0.195 c 0.182,-0.156 0.286,-0.312 0.312,-0.468 0.026,-0.234 -0.026,-0.494 -0.156,-0.78 l 0.507,-0.118 c 0.364,-0.078 0.611,-0.182 0.741,-0.312 0.156,-0.156 0.143,-0.351 -0.039,-0.585 -0.182,-0.208 -0.429,-0.377 -0.741,-0.507 -0.468,-0.026 -0.754,-0.117 -0.858,-0.273 -0.104,-0.182 -0.637,-0.338 -1.599,-0.468 -0.234,-0.026 -0.455,0.104 -0.663,0.39 -0.156,0.26 -0.26,0.39 -0.312,0.39 -0.52,-0.182 -0.962,-0.273 -1.326,-0.273 l -1.677,0.078 c -0.494,0.026 -0.897,-0.104 -1.209,-0.39 l -0.273,-0.429 c -0.494,-0.233 -0.949,-0.351 -1.365,-0.351 -0.442,0.026 -0.767,0.026 -0.975,0 -0.364,-0.026 -0.676,-0.117 -0.936,-0.272 -0.338,-0.208 -0.637,-0.338 -0.897,-0.39 -0.312,-0.052 -0.793,-0.065 -1.443,-0.039 -0.546,0.026 -0.897,0.13 -1.053,0.312 l -0.078,0.312 -1.248,-0.039 c -0.286,0 -0.507,0.104 -0.663,0.312 l -0.117,0.351 c -0.39,-0.052 -0.715,-0.052 -0.975,0 -0.234,0.208 -0.533,0.338 -0.897,0.39 -0.182,0.052 -0.363,0.026 -0.545,-0.078 -0.234,-0.104 -0.455,-0.156 -0.663,-0.156 -0.286,-0.026 -0.494,0.091 -0.624,0.351 l -0.117,0.468 c -0.052,0.182 -0.247,0.234 -0.585,0.156 -0.156,-0.052 -0.338,-0.013 -0.546,0.117 -0.208,0.156 -0.351,0.325 -0.429,0.507 -0.078,0.156 -0.039,0.299 0.117,0.429 0.182,0.13 0.325,0.248 0.429,0.352 C 9.1,-9.399 9.074,-9.23 8.892,-9.048 8.71,-8.866 8.502,-8.788 8.268,-8.814 7.956,-8.84 7.67,-8.723 7.41,-8.463 7.332,-8.385 7.215,-8.346 7.059,-8.346 H 6.825 C 6.539,-8.398 6.201,-8.359 5.811,-8.229 5.421,-8.099 4.992,-8.112 4.524,-8.268 4.134,-8.45 3.822,-8.515 3.588,-8.463 c -0.182,0.026 -0.182,0.156 0,0.39 l 0.312,0.39 c -0.286,0.026 -0.468,0.169 -0.546,0.429 -0.026,0.156 0.091,0.299 0.351,0.429 l 0.429,0.156 c -0.156,0.234 -0.104,0.494 0.156,0.78 0.26,0.286 0.676,0.507 1.248,0.663 l 0.468,0.507 c 0.286,0.312 0.624,0.429 1.014,0.351 0.078,0.156 0.221,0.221 0.429,0.195 0.26,-0.052 0.403,-0.078 0.429,-0.078 0.182,0.078 0.312,0.169 0.39,0.273 l 0.234,0.507 c 0.208,0.312 0.416,0.481 0.624,0.507 0.182,0.026 0.351,-0.091 0.507,-0.351 0.182,-0.234 0.299,-0.351 0.351,-0.351 0.13,0 0.403,0.234 0.819,0.702 0.052,0.052 0.143,0.169 0.273,0.351 0.078,0.182 0.247,0.351 0.507,0.507 0.468,0.312 0.65,0.442 0.546,0.39 l 0.234,0.663 c 0.13,0.182 0.507,0.326 1.13,0.429 l 0.352,0.234 c 0.286,0.182 0.572,0.286 0.858,0.312 0.468,0.026 0.793,-0.091 0.975,-0.351 l 0.312,0.156 c 0.286,0.104 0.624,0.182 1.014,0.234 0.442,0.026 0.715,0.026 0.819,0 0.078,-0.026 0.195,-0.13 0.351,-0.313 0.13,-0.104 0.325,-0.143 0.585,-0.117 0.156,0.026 0.39,0.065 0.702,0.117 0.26,0.052 0.429,0.065 0.507,0.039 0.156,-0.026 0.403,-0.143 0.741,-0.351 0.26,-0.182 0.507,-0.429 0.741,-0.741 0.233,-0.286 0.442,-0.481 0.624,-0.585 0.364,-0.234 0.819,-0.364 1.365,-0.39 0.286,-0.103 0.39,-0.246 0.312,-0.428 z"
   id="path25"
   inkscape:connector-curvature="0" />
		<path
   style="clip-rule:evenodd;fill:#f0c426;fill-rule:evenodd"
   d="m 8.19,-7.995 c 0.364,0.13 0.611,0.13 0.741,0 C 9.035,-8.099 9.243,-8.164 9.555,-8.19 9.893,-8.398 9.958,-8.619 9.75,-8.853 L 9.243,-9.438 C 9.165,-9.464 9.074,-9.503 8.97,-9.555 9.1,-9.399 9.074,-9.23 8.892,-9.048 8.71,-8.866 8.502,-8.788 8.268,-8.814 7.956,-8.84 7.67,-8.723 7.41,-8.463 7.332,-8.385 7.215,-8.346 7.059,-8.346 H 6.825 C 6.539,-8.398 6.201,-8.359 5.811,-8.229 5.421,-8.099 4.992,-8.112 4.524,-8.268 4.134,-8.45 3.822,-8.515 3.588,-8.463 c -0.182,0.026 -0.182,0.156 0,0.39 l 0.312,0.39 c -0.286,0.026 -0.468,0.169 -0.546,0.429 -0.026,0.13 0.104,0.286 0.39,0.468 -0.052,-0.338 0.052,-0.52 0.313,-0.546 0.286,-0.026 0.52,-0.13 0.702,-0.312 0.104,-0.026 0.182,-0.026 0.233,0 0.104,0.052 0.221,0.13 0.352,0.233 0.13,0.104 0.26,0.221 0.39,0.352 0.104,0.052 0.221,0.039 0.351,-0.04 C 6.162,-7.15 6.24,-7.241 6.318,-7.371 6.396,-7.475 6.5,-7.54 6.63,-7.566 c 0.104,-0.026 0.247,-0.026 0.429,0 0.13,0.026 0.286,0 0.468,-0.078 C 7.657,-7.696 7.774,-7.8 7.878,-7.956 7.93,-8.034 8.034,-8.047 8.19,-7.995 Z m 15.561,5.187 0.039,-0.117 c 0.052,-0.052 0.117,-0.078 0.195,-0.078 0.234,0 0.494,-0.221 0.78,-0.663 0.104,-0.156 0.195,-0.325 0.273,-0.507 0.078,-0.156 0.234,-0.247 0.468,-0.273 0.337,-0.026 0.611,-0.168 0.819,-0.429 l 0.078,-0.507 c 0.052,-0.312 0.117,-0.481 0.195,-0.507 0.286,-0.052 0.507,-0.13 0.663,-0.234 l 0.702,-0.585 0.585,-0.117 c 0.442,-0.13 0.754,-0.286 0.936,-0.468 0.338,-0.338 0.377,-0.689 0.117,-1.053 l 0.273,-0.195 c 0.182,-0.156 0.286,-0.312 0.312,-0.468 0.026,-0.234 -0.026,-0.494 -0.156,-0.78 l 0.507,-0.118 c 0.364,-0.078 0.611,-0.182 0.741,-0.312 0.182,-0.182 0.156,-0.403 -0.078,-0.663 l -0.897,0.351 c -0.286,0.104 -0.585,0.169 -0.897,0.195 -0.208,0.026 -0.39,0.065 -0.546,0.117 l -0.195,0.117 c 0,0.182 -0.143,0.273 -0.429,0.273 -0.13,0.13 -0.377,0.144 -0.741,0.04 -0.208,-0.052 -0.325,-0.144 -0.351,-0.273 -0.026,-0.208 -0.039,-0.325 -0.039,-0.351 0.104,-0.208 -0.013,-0.455 -0.351,-0.741 l -0.195,-0.234 c -0.312,-0.104 -0.585,-0.156 -0.819,-0.156 l -1.677,0.078 c -0.494,0.026 -0.897,-0.104 -1.209,-0.39 l -0.273,-0.429 c -0.494,-0.233 -0.949,-0.351 -1.365,-0.351 -0.442,0.026 -0.767,0.026 -0.975,0 -0.364,-0.026 -0.676,-0.117 -0.936,-0.272 -0.338,-0.208 -0.637,-0.338 -0.897,-0.39 -0.312,-0.052 -0.793,-0.065 -1.443,-0.039 -0.546,0.026 -0.897,0.13 -1.053,0.312 l -0.078,0.312 -1.248,-0.039 c -0.286,0 -0.507,0.104 -0.663,0.312 l -0.117,0.351 c -0.39,-0.052 -0.715,-0.052 -0.975,0 l -0.156,0.039 -0.702,0.35 h -0.04 c -0.182,0.052 -0.363,0.026 -0.545,-0.078 -0.234,-0.104 -0.455,-0.156 -0.663,-0.156 -0.286,-0.026 -0.494,0.091 -0.624,0.351 l -0.117,0.468 c -0.052,0.182 -0.247,0.234 -0.585,0.156 -0.156,-0.052 -0.338,-0.013 -0.546,0.117 -0.208,0.156 -0.351,0.325 -0.429,0.507 -0.078,0.156 -0.039,0.299 0.117,0.429 0.134,0.096 0.244,0.187 0.332,0.273 -0.086,-0.101 -0.118,-0.192 -0.098,-0.273 0.026,-0.104 0.052,-0.195 0.078,-0.272 0.026,-0.052 0.104,-0.104 0.234,-0.156 0.078,-0.026 0.195,0 0.351,0.078 0.13,0.078 0.234,0.091 0.312,0.039 0.26,-0.208 0.52,-0.39 0.78,-0.546 0.208,-0.104 0.364,-0.195 0.468,-0.273 0.052,-0.026 0.182,-0.026 0.39,0 0.338,0.026 0.559,0.013 0.663,-0.04 0.364,0 0.649,-0.039 0.857,-0.117 0.078,-0.026 0.182,0 0.313,0.078 l 0.234,0.429 c 0.052,0.104 -0.078,0.234 -0.39,0.39 l 0.546,-0.078 c 1.17,-0.26 1.781,-0.26 1.833,0 0,0.104 0,0.168 0,0.195 0.026,0.052 0.091,0.117 0.195,0.195 0.052,0.026 0.091,0.13 0.118,0.312 0,0.156 0.195,0.234 0.585,0.234 0.337,0 0.663,-0.013 0.975,-0.039 0.208,-0.026 0.403,0.013 0.585,0.117 0.052,0.026 0.259,0.091 0.624,0.195 0.182,0.052 0.273,0.156 0.273,0.312 -0.156,0.468 -0.182,0.754 -0.078,0.858 0.156,0.156 0.208,0.352 0.156,0.585 -0.026,0.104 -0.117,0.26 -0.273,0.468 -0.156,0.156 -0.221,0.312 -0.195,0.468 l 0.078,0.624 h -0.39 c -0.39,0.104 -0.637,0.234 -0.741,0.39 -0.052,0.156 -0.104,0.273 -0.156,0.351 -0.104,0.13 -0.351,0.208 -0.741,0.234 -0.052,0 -0.325,0 -0.819,0 -0.13,0 -0.26,0.104 -0.39,0.312 -0.312,0.52 -0.364,0.78 -0.156,0.78 0.182,0 0.507,-0.052 0.975,-0.156 l 0.78,0.273 c 0.156,0.052 0.364,0.078 0.624,0.078 0.26,-0.026 0.403,-0.078 0.43,-0.156 0.026,-0.078 0.143,-0.182 0.351,-0.313 0.234,-0.13 0.39,-0.195 0.468,-0.195 0.286,0 0.572,0.104 0.858,0.312 0.104,0.078 0.182,0.234 0.234,0.468 0.052,0.182 0.143,0.273 0.273,0.273 0.26,0 0.663,-0.091 1.209,-0.273 0,0.104 0.013,0.195 0.039,0.273 0.078,0.208 0.208,0.312 0.39,0.312 0.156,0 -0.078,0.144 -0.702,0.429 -0.676,0.338 -0.988,0.52 -0.936,0.546 0.078,0.078 -0.091,0.117 -0.507,0.117 -0.416,0 -0.65,-0.039 -0.702,-0.117 -0.052,-0.078 -0.208,-0.078 -0.468,0 -0.234,0.078 -0.312,0.169 -0.234,0.273 0.052,0.052 0.325,0.182 0.819,0.39 0.312,0.13 0.494,0.273 0.545,0.429 0.026,0.052 -0.013,0.078 -0.117,0.078 l 0.78,0.351 0.507,-0.273 c 0.26,-0.182 0.507,-0.429 0.741,-0.741 0.233,-0.286 0.442,-0.481 0.624,-0.585 0.364,-0.234 0.819,-0.364 1.365,-0.39 0.285,-0.103 0.389,-0.246 0.311,-0.428 z"
   id="path27"
   inkscape:connector-curvature="0" />
		<path
   style="clip-rule:evenodd;fill:#e3b924;fill-rule:evenodd"
   d="m 24.18,-4.212 c 0.13,-0.13 0.208,-0.221 0.233,-0.273 0.052,-0.078 0.078,-0.143 0.078,-0.195 0.026,0 0.091,0.013 0.195,0.039 0.078,0 0.143,0.052 0.195,0.156 0.052,0.078 0.13,0.13 0.234,0.156 l 0.39,-0.118 c 0.337,-0.026 0.611,-0.168 0.819,-0.429 l 0.078,-0.507 c 0.052,-0.312 0.117,-0.481 0.195,-0.507 l 0.195,-0.078 h -0.039 c -0.104,-0.182 -0.13,-0.429 -0.078,-0.741 0.052,-0.312 0.143,-0.533 0.272,-0.663 0.104,-0.104 0.273,-0.169 0.507,-0.195 0.234,-0.026 0.39,-0.065 0.468,-0.117 0.078,-0.052 0.247,-0.13 0.507,-0.234 0.182,-0.078 0.26,-0.143 0.234,-0.195 0,-0.052 -0.039,-0.13 -0.117,-0.234 -0.026,-0.104 0.039,-0.182 0.195,-0.234 0.468,-0.208 0.702,-0.377 0.702,-0.507 0,-0.026 0.078,-0.143 0.234,-0.351 0.13,-0.182 0.13,-0.299 0,-0.351 -0.208,-0.052 -0.546,0.091 -1.014,0.429 -0.078,0.052 -0.39,0.078 -0.936,0.078 -0.494,-0.026 -0.741,-0.144 -0.741,-0.351 0,-0.052 0.026,-0.169 0.078,-0.351 0.026,-0.13 0.026,-0.221 0,-0.273 -0.104,-0.182 -0.143,-0.39 -0.117,-0.624 0,-0.176 0.072,-0.339 0.215,-0.488 l -0.098,0.098 c -0.52,-0.182 -0.962,-0.273 -1.326,-0.273 l -1.677,0.078 c -0.494,0.026 -0.897,-0.104 -1.209,-0.39 l -0.273,-0.429 c -0.494,-0.233 -0.949,-0.351 -1.365,-0.351 -0.442,0.026 -0.767,0.026 -0.975,0 -0.364,-0.026 -0.676,-0.117 -0.936,-0.272 -0.39,-0.26 -0.793,-0.403 -1.209,-0.429 -0.156,0.104 -0.117,0.273 0.117,0.507 0.13,0.13 0.143,0.325 0.039,0.585 -0.104,0.26 -0.091,0.417 0.039,0.468 0.442,0.234 0.702,0.494 0.78,0.78 0.13,0.39 0.338,0.585 0.624,0.585 0.078,0 0.143,0.104 0.195,0.312 0.078,0.234 0.156,0.39 0.234,0.468 0.052,0.052 0.143,0.117 0.273,0.195 0.078,0.052 0.117,0.117 0.117,0.195 0,0.286 -0.064,0.481 -0.195,0.585 -0.156,0.104 -0.26,0.182 -0.312,0.234 -0.13,0.104 -0.156,0.273 -0.078,0.507 l 0.273,0.741 -0.273,0.352 c -0.26,-0.182 -0.416,-0.13 -0.468,0.156 -0.026,0.052 -0.091,0.195 -0.195,0.429 -0.052,0.104 -0.026,0.182 0.078,0.234 0.104,0.052 0.221,0.104 0.351,0.156 0.078,0.052 0.091,0.156 0.039,0.312 l -0.273,0.585 -0.349,0.194 -0.351,0.39 c -0.052,0 -0.078,0.013 -0.078,0.04 -0.052,0.052 -0.013,0.117 0.117,0.195 0.13,0.052 0.312,0.247 0.546,0.585 0.208,0.312 0.351,0.481 0.429,0.507 0.104,0 0.26,0.039 0.468,0.117 0.234,0.026 0.468,0.026 0.702,0 l 0.585,-0.078 c 0.052,0 0.195,0.026 0.429,0.078 0.078,0 0.169,-0.052 0.273,-0.156 0.156,-0.208 0.312,-0.376 0.468,-0.507 0.026,-0.026 0.039,-0.169 0.039,-0.429 0,-0.13 0.117,-0.195 0.351,-0.195 h 1.092 z"
   id="path29"
   inkscape:connector-curvature="0" />
		<path
   style="clip-rule:evenodd;fill:#f0c426;fill-rule:evenodd"
   d="m 24.258,-5.343 c 0.156,-0.026 0.351,-0.247 0.585,-0.663 0.052,-0.13 -0.013,-0.325 -0.195,-0.585 -0.104,-0.104 -0.221,-0.143 -0.351,-0.117 -0.182,0.104 -0.351,0.195 -0.507,0.273 -0.182,0.078 -0.338,0.117 -0.468,0.117 -0.026,0 -0.143,-0.039 -0.351,-0.117 -0.313,-0.078 -0.689,-0.013 -1.131,0.195 -0.078,0.182 -0.26,0.299 -0.546,0.351 -0.182,0.052 -0.299,0.168 -0.351,0.351 -0.104,0.286 -0.169,0.442 -0.195,0.468 -0.078,0.104 -0.039,0.169 0.117,0.195 0.338,0.026 0.572,0.065 0.702,0.117 0.26,0.052 0.858,-0.117 1.794,-0.507 0.26,-0.104 0.559,-0.13 0.897,-0.078 z"
   id="path31"
   inkscape:connector-curvature="0" />
		<path
   style="clip-rule:evenodd;fill:#f0c426;fill-rule:evenodd"
   d="m 23.829,-7.761 c 0.104,-0.13 0.156,-0.351 0.156,-0.663 0,-0.234 -0.078,-0.377 -0.234,-0.429 -0.208,-0.026 -0.364,-0.065 -0.468,-0.117 -0.26,-0.182 -0.65,-0.234 -1.17,-0.156 -0.182,0.026 -0.352,0.104 -0.507,0.234 -0.208,0.182 -0.364,0.299 -0.468,0.351 -0.234,0.104 -0.312,0.247 -0.234,0.429 0.052,0.182 0.208,0.273 0.468,0.273 0.078,0 0.299,0.052 0.663,0.156 0.337,0.13 0.663,0.182 0.975,0.156 0.416,-0.026 0.689,-0.104 0.819,-0.234 z"
   id="path33"
   inkscape:connector-curvature="0" />
		<path
   style="clip-rule:evenodd;fill:#f0c426;fill-rule:evenodd"
   d="m 24.882,-8.814 c 0.312,0 0.521,-0.117 0.625,-0.351 0.078,-0.234 0.013,-0.416 -0.195,-0.546 -0.182,-0.104 -0.338,-0.13 -0.468,-0.078 -0.234,0.104 -0.39,0.168 -0.468,0.195 -0.234,0.026 -0.26,0.168 -0.078,0.429 0.155,0.234 0.35,0.351 0.584,0.351 z"
   id="path35"
   inkscape:connector-curvature="0" />
		<path
   style="clip-rule:evenodd;fill:#f0c426;fill-rule:evenodd"
   d="m 21.216,-10.608 0.585,-0.39 c 0.208,-0.13 0.312,-0.234 0.312,-0.312 0.026,-0.052 0,-0.143 -0.078,-0.273 -0.156,-0.312 -0.611,-0.468 -1.365,-0.468 -0.312,0 -0.507,0.026 -0.585,0.078 -0.182,0.078 -0.351,0.144 -0.507,0.195 -0.312,0.078 -0.312,0.273 0,0.585 0.208,0.156 0.598,0.468 1.17,0.936 0.26,0.208 0.416,0.091 0.468,-0.351 z"
   id="path37"
   inkscape:connector-curvature="0" />
		<path
   style="clip-rule:evenodd;fill:#f0c426;fill-rule:evenodd"
   d="m 25.935,-4.992 c 0.234,-0.13 0.182,-0.312 -0.156,-0.546 -0.104,-0.078 -0.221,-0.052 -0.351,0.078 -0.104,0.182 -0.195,0.312 -0.273,0.39 -0.13,0.13 -0.078,0.195 0.156,0.195 0.234,0.026 0.442,-0.013 0.624,-0.117 z"
   id="path39"
   inkscape:connector-curvature="0" />
		<path
   style="clip-rule:evenodd;fill:#ffe357;fill-rule:evenodd"
   d="M 20.085,-0.351 V -0.546 C 20.059,-0.598 19.981,-0.65 19.851,-0.702 19.669,-0.754 19.552,-0.806 19.5,-0.858 l -0.039,-0.156 c -0.078,-0.13 -0.234,-0.208 -0.468,-0.234 -0.208,-0.078 -0.338,-0.143 -0.39,-0.195 -0.13,-0.13 -0.364,-0.195 -0.702,-0.195 -0.156,0.026 -0.273,0.052 -0.352,0.078 -0.078,0 -0.195,-0.039 -0.351,-0.117 -0.13,-0.078 -0.039,-0.169 0.273,-0.273 l 0.585,-0.156 c 0.104,-0.182 0.286,-0.312 0.546,-0.39 0.078,0 0.091,-0.065 0.039,-0.195 -0.026,-0.078 0.078,-0.091 0.312,-0.039 0.182,0.052 0.338,0.013 0.468,-0.117 0.104,-0.104 0.156,-0.221 0.156,-0.352 0,-0.078 -0.04,-0.091 -0.117,-0.039 -0.104,0.026 -0.182,0.026 -0.234,0 l -0.195,-0.234 c -0.052,-0.104 -0.117,-0.143 -0.195,-0.117 h -0.234 c -0.026,0 -0.078,-0.117 -0.156,-0.351 -0.052,-0.156 -0.143,-0.195 -0.273,-0.117 -0.182,0.104 -0.338,0.234 -0.468,0.39 -0.286,0.338 -0.481,0.546 -0.585,0.624 -0.208,0.156 -0.442,0.26 -0.702,0.312 -0.13,0.026 -0.377,0 -0.741,-0.078 -0.286,-0.052 -0.468,-0.052 -0.546,0 -0.182,0.104 -0.611,0.117 -1.287,0.04 -0.104,0 -0.338,0.091 -0.702,0.272 -0.13,0.078 -0.26,0.078 -0.39,0 -0.156,-0.13 -0.286,-0.221 -0.39,-0.272 -0.104,-0.052 -0.13,-0.195 -0.078,-0.43 0.052,-0.286 0.052,-0.468 0,-0.545 -0.208,-0.208 -0.312,-0.455 -0.312,-0.741 0,-0.078 0.039,-0.26 0.117,-0.546 0.052,-0.26 -0.338,-0.376 -1.17,-0.351 -0.156,0.156 -0.364,0.26 -0.624,0.312 -0.285,0.078 -0.402,0.273 -0.35,0.585 0,0.156 -0.182,0.286 -0.546,0.39 -0.182,0.078 -0.364,0 -0.546,-0.234 -0.13,-0.156 -0.299,-0.208 -0.507,-0.156 -0.104,0.026 -0.195,0.026 -0.273,0 C 7.839,-4.589 7.709,-4.641 7.683,-4.641 7.293,-4.745 6.916,-4.823 6.552,-4.875 l -0.819,-0.117 0.273,0.273 c 0.286,0.312 0.624,0.429 1.014,0.351 0.078,0.156 0.221,0.221 0.429,0.195 0.26,-0.052 0.403,-0.078 0.429,-0.078 0.182,0.078 0.312,0.169 0.39,0.273 l 0.234,0.507 c 0.208,0.312 0.416,0.481 0.624,0.507 0.182,0.026 0.351,-0.091 0.507,-0.351 0.182,-0.234 0.299,-0.351 0.351,-0.351 0.13,0 0.403,0.234 0.819,0.702 0.052,0.052 0.143,0.169 0.273,0.351 0.078,0.182 0.247,0.351 0.507,0.507 0.468,0.312 0.65,0.442 0.546,0.39 l 0.234,0.663 c 0.13,0.182 0.507,0.326 1.13,0.429 l 0.352,0.234 c 0.286,0.182 0.572,0.286 0.858,0.312 0.468,0.026 0.793,-0.091 0.975,-0.351 l 0.312,0.156 c 0.286,0.104 0.624,0.182 1.014,0.234 0.442,0.026 0.715,0.026 0.819,0 0.078,-0.026 0.195,-0.13 0.351,-0.313 0.13,-0.104 0.325,-0.143 0.585,-0.117 0.156,0.026 0.39,0.065 0.702,0.117 0.286,0.053 0.494,0.053 0.624,0.001 z"
   id="path41"
   inkscape:connector-curvature="0" />
		<path
   style="clip-rule:evenodd;fill:#ffe357;fill-rule:evenodd"
   d="m 8.073,-5.304 c 0.052,0 0.182,0.052 0.39,0.156 0.234,0.104 0.442,0.169 0.624,0.195 0.208,0.026 0.325,0 0.351,-0.078 0.078,-0.26 0.13,-0.403 0.156,-0.429 0.182,-0.208 0.273,-0.338 0.273,-0.39 0.052,-0.104 0.065,-0.26 0.04,-0.468 C 9.88,-6.5 9.802,-6.591 9.672,-6.591 9.516,-6.617 9.412,-6.656 9.36,-6.708 9.23,-6.89 8.996,-6.864 8.658,-6.63 8.502,-6.526 8.255,-6.487 7.917,-6.513 7.657,-6.565 7.28,-6.552 6.786,-6.473 6.474,-6.37 6.253,-6.318 6.123,-6.318 c -0.416,0 -0.676,0.065 -0.78,0.195 -0.078,0.052 -0.039,0.156 0.117,0.312 0.13,0.13 0.247,0.195 0.351,0.195 0.546,0 0.949,0.04 1.209,0.118 0.442,0.129 0.793,0.194 1.053,0.194 z"
   id="path43"
   inkscape:connector-curvature="0" />
		<path
   style="clip-rule:evenodd;fill:#ffe357;fill-rule:evenodd"
   d="m 15.912,-4.641 c 0.104,-0.052 0.416,-0.104 0.936,-0.156 0.26,-0.052 0.39,-0.143 0.39,-0.273 0.026,-0.078 0.026,-0.234 0,-0.468 0.078,-0.234 0.039,-0.325 -0.117,-0.273 0,-0.026 -0.117,-0.091 -0.351,-0.195 -0.026,-0.026 -0.208,-0.039 -0.546,-0.039 -0.416,0 -0.767,-0.026 -1.053,-0.078 -0.338,-0.078 -0.572,-0.182 -0.702,-0.312 -0.104,-0.182 -0.208,-0.338 -0.312,-0.468 -0.182,-0.208 -0.559,-0.286 -1.13,-0.234 -0.65,-0.026 -1.027,-0.04 -1.131,-0.04 -0.26,0 -0.546,0.104 -0.858,0.313 -0.13,0.13 0.052,0.376 0.546,0.741 0.104,0.052 0.234,0.143 0.39,0.273 0.156,0.104 0.338,0.156 0.546,0.156 l 0.546,-0.039 c 0.26,0 0.429,0.026 0.507,0.078 0.156,0.104 0.208,0.247 0.156,0.429 0.026,0.208 0.052,0.377 0.078,0.507 0,0.026 0.104,0.182 0.312,0.468 0.39,0.286 0.715,0.442 0.975,0.468 0.208,0 0.286,-0.026 0.233,-0.078 -0.104,-0.078 -0.143,-0.129 -0.117,-0.156 0.234,-0.364 0.468,-0.572 0.702,-0.624 z"
   id="path45"
   inkscape:connector-curvature="0" />
		<path
   style="clip-rule:evenodd;fill:#ffe357;fill-rule:evenodd"
   d="m 18.096,-6.201 c 0.078,0.052 0.13,0.13 0.156,0.234 0.026,0.052 0.104,0.091 0.234,0.117 0.13,0.026 0.195,0 0.195,-0.078 0.026,-0.078 0.039,-0.26 0.039,-0.545 l 0.078,-0.546 c 0,-0.052 0.039,-0.156 0.117,-0.312 0.078,-0.156 0.104,-0.312 0.078,-0.468 0,-0.182 -0.065,-0.234 -0.195,-0.156 -0.156,0.104 -0.247,0.169 -0.273,0.195 l -1.599,0.118 c -0.442,0.104 -0.599,0.325 -0.468,0.663 0.026,0.13 0.312,0.182 0.858,0.156 0.156,0.076 0.416,0.284 0.78,0.622 z"
   id="path47"
   inkscape:connector-curvature="0" />
		<path
   style="clip-rule:evenodd;fill:#ffe357;fill-rule:evenodd"
   d="m 10.53,-8.931 c -0.416,0.156 -0.169,0.325 0.741,0.507 0.156,0.026 0.481,0.013 0.975,-0.039 0.104,-0.026 0.234,0 0.39,0.078 0.182,0.104 0.376,0.182 0.585,0.234 0.26,0.052 0.468,0.039 0.624,-0.039 0.078,-0.078 0.195,-0.247 0.351,-0.507 C 14.3,-8.879 14.26,-8.983 14.078,-9.009 13.792,-9.035 13.623,-9.1 13.571,-9.204 13.493,-9.334 13.376,-9.412 13.22,-9.438 13.038,-9.49 12.882,-9.529 12.752,-9.555 12.544,-9.607 12.18,-9.49 11.66,-9.204 c -0.493,0.052 -0.87,0.143 -1.13,0.273 z"
   id="path49"
   inkscape:connector-curvature="0" />
		<path
   style="clip-rule:evenodd;fill:#fff0a6;fill-rule:evenodd"
   d="m 8.073,-5.304 c 0.026,0 0.104,0 0.234,0 0.052,0 0.104,-0.026 0.156,-0.078 C 8.515,-5.486 8.411,-5.629 8.151,-5.811 8.073,-5.863 7.995,-5.889 7.917,-5.889 7.735,-5.837 7.566,-5.811 7.41,-5.811 7.176,-5.811 7.033,-5.824 6.981,-5.85 6.929,-5.902 6.825,-5.954 6.669,-6.006 6.461,-6.11 6.279,-6.097 6.123,-5.967 c -0.156,0.104 -0.182,0.195 -0.078,0.273 0.078,0.078 0.208,0.117 0.39,0.117 0.13,0.026 0.377,0.039 0.741,0.039 0.26,0 0.416,0.065 0.468,0.195 0.182,0.052 0.325,0.065 0.429,0.039 z"
   id="path51"
   inkscape:connector-curvature="0" />
		<path
   style="clip-rule:evenodd;fill:#fff0a6;fill-rule:evenodd"
   d="m 12.48,-6.006 c 0.286,0 0.533,-0.078 0.741,-0.234 0.208,-0.13 0.299,-0.26 0.272,-0.39 -0.026,-0.104 -0.078,-0.143 -0.156,-0.117 h -0.312 c -0.078,-0.026 -0.208,0 -0.39,0.078 -0.286,0.13 -0.442,0.195 -0.468,0.195 -0.156,0.052 -0.195,0.143 -0.117,0.272 0.079,0.131 0.222,0.196 0.43,0.196 z"
   id="path53"
   inkscape:connector-curvature="0" />
		<path
   style="clip-rule:evenodd;fill:#fff0a6;fill-rule:evenodd"
   d="m 14.664,-4.056 c 0.13,0.052 0.364,-0.182 0.702,-0.702 0.208,-0.442 0.221,-0.702 0.039,-0.78 -0.104,-0.052 -0.312,-0.078 -0.624,-0.078 -0.13,0 -0.325,0.13 -0.585,0.39 -0.182,0.182 -0.273,0.39 -0.273,0.624 0.026,0.104 0.104,0.195 0.234,0.273 0.26,0.13 0.429,0.221 0.507,0.273 z"
   id="path55"
   inkscape:connector-curvature="0" />
		<path
   style="clip-rule:evenodd;fill:#fff0a6;fill-rule:evenodd"
   d="m 17.004,-1.716 c 0.208,0 0.429,-0.052 0.663,-0.156 0.182,-0.078 0.364,-0.208 0.546,-0.39 0.13,-0.078 0.299,-0.156 0.507,-0.234 0.13,-0.104 0.221,-0.156 0.273,-0.156 l -0.195,-0.273 c -0.078,-0.052 -0.299,-0.065 -0.663,-0.039 -0.233,-0.052 -0.416,-0.065 -0.546,-0.039 -0.26,0.13 -0.429,0.208 -0.507,0.234 -0.026,0.182 -0.091,0.325 -0.195,0.429 -0.052,0.078 -0.13,0.13 -0.234,0.156 -0.13,0.026 -0.234,0.052 -0.312,0.078 L 15.6,-1.794 c -0.156,0.052 -0.221,0.091 -0.195,0.117 0.026,0 0.065,0.013 0.117,0.039 0.208,0.104 0.442,0.156 0.702,0.156 0.156,0 0.286,-0.039 0.39,-0.117 0.078,-0.078 0.208,-0.117 0.39,-0.117 z"
   id="path57"
   inkscape:connector-curvature="0" />
		<path
   style="clip-rule:evenodd;fill:#fff0a6;fill-rule:evenodd"
   d="m 18.096,-0.624 c 0.26,0 0.468,-0.039 0.624,-0.117 0.156,-0.078 0.195,-0.143 0.117,-0.195 -0.052,-0.052 -0.13,-0.078 -0.234,-0.078 -0.156,-0.026 -0.286,-0.052 -0.39,-0.078 -0.13,-0.052 -0.221,-0.065 -0.273,-0.039 -0.234,0.078 -0.364,0.117 -0.39,0.117 -0.234,0.026 -0.26,0.104 -0.078,0.234 0.208,0.104 0.416,0.156 0.624,0.156 z"
   id="path59"
   inkscape:connector-curvature="0" />
		<path
   style="clip-rule:evenodd;fill:#fff0a6;fill-rule:evenodd"
   d="m 13.845,-0.936 c 0.572,0 0.858,-0.091 0.858,-0.273 0,-0.078 -0.039,-0.117 -0.117,-0.117 -0.156,-0.026 -0.299,-0.078 -0.429,-0.156 -0.182,-0.104 -0.312,-0.13 -0.39,-0.078 -0.312,0.156 -0.481,0.234 -0.507,0.234 -0.52,0.156 -0.325,0.286 0.585,0.39 z"
   id="path61"
   inkscape:connector-curvature="0" />
		<path
   style="clip-rule:evenodd;fill:#fff0a6;fill-rule:evenodd"
   d="m 14.664,-0.546 c 0.364,0.078 0.546,0.039 0.546,-0.117 0,-0.13 -0.13,-0.195 -0.39,-0.195 -0.208,0 -0.325,0.052 -0.351,0.156 -0.026,0.078 0.039,0.13 0.195,0.156 z"
   id="path63"
   inkscape:connector-curvature="0" />
		<path
   style="clip-rule:evenodd;fill:#fff0a6;fill-rule:evenodd"
   d="m 12.129,-3.471 0.039,-0.117 c 0,-0.104 -0.208,-0.156 -0.624,-0.156 l -0.351,0.272 c -0.104,0.052 -0.117,0.13 -0.039,0.234 0.052,0.104 0.169,0.182 0.351,0.234 0,0.052 0.026,0.13 0.078,0.234 0.052,0.156 0.156,0.286 0.312,0.39 0.156,0.104 0.299,0.143 0.429,0.117 0.078,0 0.208,-0.04 0.39,-0.117 0.234,-0.026 0.091,-0.221 -0.429,-0.585 z"
   id="path65"
   inkscape:connector-curvature="0" />
		<path
   style="clip-rule:evenodd;fill:#fff0a6;fill-rule:evenodd"
   d="m 10.998,-4.368 c 0.546,-0.104 0.819,-0.169 0.819,-0.195 0,-0.052 -0.091,-0.169 -0.273,-0.351 -0.078,-0.104 -0.13,-0.144 -0.156,-0.118 -0.104,0 -0.169,0 -0.195,0 -0.078,0 -0.169,0.04 -0.273,0.118 -0.13,0.13 -0.26,0.221 -0.39,0.272 -0.156,0.104 -0.169,0.182 -0.039,0.234 0.104,0.053 0.273,0.066 0.507,0.04 z"
   id="path67"
   inkscape:connector-curvature="0" />
		<path
   style="clip-rule:evenodd;fill:#fff0a6;fill-rule:evenodd"
   d="m 13.143,-8.229 c 0.156,0 0.286,-0.078 0.39,-0.234 0.13,-0.156 0.169,-0.273 0.117,-0.351 -0.052,-0.052 -0.312,0.026 -0.78,0.234 l -0.195,0.078 c -0.104,0.052 -0.117,0.104 -0.039,0.156 0.104,0.052 0.273,0.091 0.507,0.117 z"
   id="path69"
   inkscape:connector-curvature="0" />
		<path
   style="clip-rule:evenodd;fill:#ffd740;fill-rule:evenodd"
   d="M 8.112,-7.683 C 8.268,-7.839 8.359,-8.099 8.385,-8.463 8.385,-8.775 8.32,-9.022 8.19,-9.204 8.008,-9.412 7.787,-9.568 7.527,-9.672 7.449,-9.776 7.332,-9.828 7.176,-9.828 6.994,-9.854 6.863,-9.867 6.786,-9.867 L 6.084,-9.984 c -0.13,0 -0.286,-0.091 -0.468,-0.273 -0.104,-0.13 -0.325,-0.195 -0.663,-0.195 -0.104,0 -0.195,0.039 -0.273,0.117 l -0.234,0.273 c -0.13,0.104 -0.416,0.156 -0.858,0.156 -0.338,0 -0.507,0.091 -0.507,0.273 0,0.052 0.104,0.247 0.312,0.585 0.156,0.156 0.429,0.234 0.819,0.234 0.234,0 0.39,0.026 0.468,0.078 0.078,0.104 0.156,0.182 0.234,0.234 0.078,0.026 0.182,0.13 0.312,0.312 0.13,0.182 0.247,0.299 0.351,0.351 0.208,0.078 0.364,0.182 0.468,0.312 0.286,0 0.559,0.078 0.819,0.234 0.312,0.208 0.728,0.078 1.248,-0.39 z"
   id="path71"
   inkscape:connector-curvature="0" />
		<path
   style="clip-rule:evenodd;fill:#f0c426;fill-rule:evenodd"
   d="M 8.112,-7.683 C 8.268,-7.839 8.359,-8.099 8.385,-8.463 8.385,-8.775 8.32,-9.022 8.19,-9.204 8.008,-9.412 7.787,-9.568 7.527,-9.672 7.449,-9.776 7.332,-9.828 7.176,-9.828 6.994,-9.854 6.863,-9.867 6.786,-9.867 L 6.084,-9.984 c -0.13,0 -0.286,-0.091 -0.468,-0.273 -0.104,-0.13 -0.325,-0.195 -0.663,-0.195 -0.104,0 -0.195,0.039 -0.273,0.117 l -0.234,0.273 -0.117,0.078 c -0.13,0.052 -0.376,0.078 -0.741,0.078 -0.338,0 -0.507,0.091 -0.507,0.273 l 0.039,0.078 c 0.208,0 0.416,-0.026 0.624,-0.078 0.338,-0.13 0.611,-0.195 0.819,-0.195 0.104,0 0.377,0.065 0.819,0.195 0.26,0.078 0.455,0.156 0.585,0.234 0.026,0.026 0.091,0.039 0.195,0.039 0.104,0 0.26,0 0.468,0 0.13,0 0.195,0.039 0.195,0.117 -0.026,0.104 -0.039,0.169 -0.039,0.195 -0.026,0.052 0.013,0.117 0.117,0.195 0.182,0.078 0.299,0.143 0.351,0.195 0.13,0.078 0.182,0.143 0.156,0.195 -0.078,0.078 -0.143,0.143 -0.195,0.195 -0.078,0.078 -0.104,0.156 -0.078,0.234 0.052,0.104 0.078,0.169 0.078,0.195 0.026,0.078 0.013,0.143 -0.039,0.195 l -0.312,0.351 c 0.338,0.156 0.754,0.026 1.248,-0.39 z"
   id="path73"
   inkscape:connector-curvature="0" />
		<path
   style="clip-rule:evenodd;fill:#e3b924;fill-rule:evenodd"
   d="M 8.112,-7.683 C 8.268,-7.839 8.359,-8.099 8.385,-8.463 8.385,-8.775 8.32,-9.022 8.19,-9.204 8.008,-9.412 7.787,-9.568 7.527,-9.672 7.449,-9.776 7.332,-9.828 7.176,-9.828 6.994,-9.854 6.863,-9.867 6.786,-9.867 L 6.084,-9.984 c -0.13,0 -0.286,-0.091 -0.468,-0.273 -0.104,-0.13 -0.325,-0.195 -0.663,-0.195 -0.104,0 -0.195,0.039 -0.273,0.117 l -0.234,0.273 -0.156,0.078 h 0.039 c 0.26,-0.104 0.572,-0.091 0.937,0.039 0.13,0.052 0.208,0.091 0.234,0.117 l 0.351,0.04 c 0.182,0.026 0.507,0.091 0.975,0.195 0.285,0.103 0.48,0.155 0.584,0.155 0,0.208 0.013,0.338 0.039,0.39 0.26,0.13 0.39,0.234 0.39,0.312 L 7.8,-8.346 c 0,0.104 0.026,0.195 0.078,0.273 0.13,0.104 0.169,0.26 0.117,0.468 z"
   id="path75"
   inkscape:connector-curvature="0" />
		<path
   style="clip-rule:evenodd;fill:#ffe357;fill-rule:evenodd"
   d="m 5.46,-8.463 c -0.234,0.104 -0.273,0.169 -0.117,0.195 0.234,0.026 0.351,0.052 0.351,0.078 0,0.078 0.091,0.169 0.273,0.273 0.182,0.13 0.338,0.182 0.468,0.156 0.26,-0.052 0.39,-0.156 0.39,-0.312 0,-0.078 -0.052,-0.221 -0.156,-0.429 C 6.617,-8.632 6.565,-8.697 6.513,-8.697 6.383,-8.697 6.305,-8.71 6.279,-8.736 6.175,-8.788 6.084,-8.801 6.006,-8.775 5.85,-8.671 5.668,-8.567 5.46,-8.463 Z"
   id="path77"
   inkscape:connector-curvature="0" />
		<path
   style="clip-rule:evenodd;fill:#ffe357;fill-rule:evenodd"
   d="m 3.861,-9.282 c -0.052,0.078 -0.026,0.156 0.078,0.234 0.052,0.052 0.117,0.078 0.195,0.078 0.052,0 0.182,0 0.39,0 0.468,0 0.741,-0.091 0.819,-0.273 0.052,-0.078 0.052,-0.104 0,-0.078 -0.104,0 -0.208,-0.026 -0.312,-0.078 -0.13,-0.052 -0.234,-0.078 -0.313,-0.078 -0.181,0.052 -0.324,0.078 -0.428,0.078 -0.234,0 -0.377,0.039 -0.429,0.117 z"
   id="path79"
   inkscape:connector-curvature="0" />
		<path
   style="clip-rule:evenodd;fill:#ffe357;fill-rule:evenodd"
   d="m 6.24,-7.917 c 0.364,0 0.481,-0.104 0.351,-0.312 -0.026,-0.026 -0.195,-0.026 -0.507,0 -0.182,0.026 -0.234,0.078 -0.156,0.156 0.104,0.104 0.208,0.156 0.312,0.156 z"
   id="path81"
   inkscape:connector-curvature="0" />
		<path
   style="clip-rule:evenodd;fill:#d9ac0d;fill-rule:evenodd"
   d="m 25.038,-6.123 c 0.182,0.052 0.351,-0.052 0.507,-0.312 0.156,-0.234 0.208,-0.442 0.156,-0.624 -0.052,-0.13 -0.156,-0.222 -0.313,-0.273 -0.156,-0.026 -0.299,-0.065 -0.429,-0.117 -0.208,-0.078 -0.572,-0.013 -1.092,0.195 l -1.755,0.663 0.233,0.118 c 0.182,0.078 0.39,0.091 0.625,0.039 0.286,-0.052 0.559,-0.052 0.819,0 0.182,0.052 0.312,0.052 0.39,0 0.026,-0.052 0.078,-0.13 0.156,-0.234 0.052,-0.026 0.13,0.026 0.234,0.156 0.105,0.181 0.261,0.311 0.469,0.389 z"
   id="path83"
   inkscape:connector-curvature="0" />
		<path
   style="clip-rule:evenodd;fill:#d9ac0d;fill-rule:evenodd"
   d="m 23.985,-8.424 c 0.026,0.234 0.26,0.325 0.702,0.273 0.416,-0.052 0.689,-0.143 0.819,-0.273 0.129,-0.13 -0.078,-0.26 -0.625,-0.39 -0.026,-0.052 -0.338,-0.26 -0.936,-0.624 -0.364,-0.104 -0.741,-0.156 -1.131,-0.156 -0.26,0 -0.533,0.065 -0.819,0.195 -0.313,0.13 -0.403,0.195 -0.273,0.195 l 0.78,-0.118 c 0.13,0 0.39,0.118 0.78,0.352 0.026,0.026 0.195,0.117 0.507,0.273 0.105,0.052 0.17,0.143 0.196,0.273 z"
   id="path85"
   inkscape:connector-curvature="0" />
		<path
   style="clip-rule:evenodd;fill:#d9ac0d;fill-rule:evenodd"
   d="m 25.506,-9.204 c 0.416,0.104 0.559,-0.091 0.429,-0.585 -0.338,-0.156 -0.637,-0.169 -0.897,-0.04 l 0.117,0.312 c 0.13,0.183 0.247,0.287 0.351,0.313 z"
   id="path87"
   inkscape:connector-curvature="0" />
		<path
   style="clip-rule:evenodd;fill:#d9ac0d;fill-rule:evenodd"
   d="m 22.113,-9.945 c 0.286,0.156 0.507,0.143 0.663,-0.039 0.13,-0.182 0.104,-0.351 -0.078,-0.507 -0.13,-0.104 -0.234,-0.156 -0.312,-0.156 -0.13,0.026 -0.299,0.039 -0.507,0.039 -0.468,0 -0.39,0.221 0.234,0.663 z"
   id="path89"
   inkscape:connector-curvature="0" />
		<path
   style="clip-rule:evenodd;fill:#d9ac0d;fill-rule:evenodd"
   d="m 20.748,-6.669 c 0.364,0.078 0.585,0.052 0.663,-0.078 0.026,-0.078 0.026,-0.221 0,-0.429 -0.052,-0.182 -0.273,-0.221 -0.663,-0.117 -0.208,0.026 -0.468,0.104 -0.78,0.234 -0.312,0.13 -0.052,0.26 0.78,0.39 z"
   id="path91"
   inkscape:connector-curvature="0" />
		<path
   style="clip-rule:evenodd;fill:#d9ac0d;fill-rule:evenodd"
   d="m 26.598,-7.488 c 0.364,0.052 0.52,0.013 0.468,-0.117 -0.182,-0.182 -0.312,-0.325 -0.39,-0.429 -0.078,-0.104 -0.144,-0.143 -0.195,-0.117 -0.078,0.052 -0.234,0.078 -0.468,0.078 -0.312,-0.026 -0.364,0.052 -0.156,0.234 0.234,0.182 0.481,0.299 0.741,0.351 z"
   id="path93"
   inkscape:connector-curvature="0" />
		<path
   style="clip-rule:evenodd;fill:#d9ac0d;fill-rule:evenodd"
   d="m 20.241,-2.964 c 0.104,0.13 0.351,0.169 0.741,0.117 0.442,-0.052 0.689,-0.065 0.741,-0.04 0.208,0.104 0.364,-0.156 0.468,-0.78 0.026,-0.155 0.013,-0.233 -0.039,-0.233 -0.156,-0.026 -0.338,-0.117 -0.546,-0.273 -0.182,-0.182 -0.286,-0.26 -0.312,-0.234 -0.052,0.13 -0.208,0.182 -0.468,0.156 -0.313,-0.026 -0.507,-0.039 -0.585,-0.039 -0.078,0.052 -0.208,0.091 -0.39,0.117 -0.286,-0.052 -0.442,-0.078 -0.468,-0.078 -0.026,0 -0.013,0.169 0.039,0.507 0.078,0.416 0.208,0.649 0.39,0.702 0.104,0.026 0.247,0.052 0.429,0.078 z"
   id="path95"
   inkscape:connector-curvature="0" />
		<path
   style="clip-rule:evenodd;fill:#d9ac0d;fill-rule:evenodd"
   d="m 19.266,-7.956 c 0.234,0.052 0.39,-0.026 0.468,-0.234 0.078,-0.208 0,-0.39 -0.234,-0.546 -0.234,-0.156 -0.377,-0.221 -0.429,-0.195 l -0.39,0.39 c -0.104,0.104 -0.104,0.221 0,0.351 0.104,0.13 0.299,0.208 0.585,0.234 z"
   id="path97"
   inkscape:connector-curvature="0" />
		<path
   style="clip-rule:evenodd;fill:#d9ac0d;fill-rule:evenodd"
   d="m 26.481,-9.048 c 0.182,0.442 0.312,0.715 0.39,0.819 0.078,0.182 0.195,0.273 0.351,0.273 0.052,0 0.442,-0.091 1.17,-0.273 0.078,-0.026 0.299,0.052 0.663,0.234 l 0.156,-0.273 c 0.156,-0.156 0.286,-0.182 0.39,-0.078 l 0.273,-0.195 c 0.182,-0.156 0.286,-0.312 0.312,-0.468 0.026,-0.234 -0.026,-0.494 -0.156,-0.78 l 0.507,-0.118 c 0.364,-0.078 0.611,-0.182 0.741,-0.312 0.156,-0.156 0.143,-0.351 -0.039,-0.585 -0.182,-0.208 -0.429,-0.377 -0.741,-0.507 -0.468,-0.026 -0.754,-0.117 -0.858,-0.273 -0.104,-0.182 -0.637,-0.338 -1.599,-0.468 -0.234,-0.026 -0.455,0.104 -0.663,0.39 -0.156,0.26 -0.26,0.39 -0.312,0.39 -0.52,-0.182 -0.962,-0.273 -1.326,-0.273 l -1.677,0.078 c -0.494,0.026 -0.897,-0.104 -1.209,-0.39 l -0.273,-0.429 c -0.494,-0.233 -0.949,-0.351 -1.365,-0.351 -0.442,0.026 -0.767,0.026 -0.975,0 -0.364,-0.026 -0.676,-0.117 -0.936,-0.272 -0.338,-0.208 -0.637,-0.338 -0.897,-0.39 -0.312,-0.052 -0.793,-0.065 -1.443,-0.039 -0.546,0.026 -0.897,0.13 -1.053,0.312 l -0.078,0.312 -1.248,-0.039 c -0.286,0 -0.507,0.104 -0.663,0.312 l -0.117,0.351 c -0.39,-0.052 -0.715,-0.052 -0.975,0 -0.234,0.208 -0.533,0.338 -0.897,0.39 H 11.7 c 0.104,0.104 0.299,0.117 0.585,0.039 0.364,-0.052 0.624,-0.078 0.78,-0.078 0.026,0.026 0.13,0.052 0.312,0.078 0.65,0.26 1.001,0.299 1.053,0.117 0.104,-0.208 0.377,-0.39 0.819,-0.546 0.234,-0.052 0.689,-0.078 1.365,-0.078 0.052,-0.026 0.247,-0.13 0.585,-0.312 0.26,-0.13 0.559,-0.182 0.897,-0.156 0.286,0.052 0.546,0.222 0.78,0.507 l 0.195,0.156 c 0.182,0.078 0.325,0.091 0.429,0.04 0.312,-0.156 0.702,-0.195 1.17,-0.118 l 1.014,0.352 c 0.052,0 0.299,0.169 0.741,0.507 0.468,0.312 0.845,0.481 1.131,0.507 0.234,0.026 0.507,0.052 0.819,0.078 0.234,0.026 0.429,0.091 0.585,0.195 0.26,0.156 0.494,0.299 0.702,0.429 0.208,0.078 0.351,0.156 0.429,0.234 0.104,0.103 0.234,0.337 0.39,0.701 z"
   id="path99"
   inkscape:connector-curvature="0" />
		<path
   style="clip-rule:evenodd;fill:#f0c426;fill-rule:evenodd"
   d="m 28.938,-9.906 c 0.728,-0.182 1.066,-0.507 1.014,-0.975 -0.026,-0.156 -0.104,-0.247 -0.233,-0.273 -0.26,0 -0.43,-0.013 -0.507,-0.039 -0.546,-0.156 -0.936,-0.247 -1.17,-0.273 -0.234,-0.026 -0.39,0.014 -0.468,0.118 -0.078,0.182 -0.169,0.338 -0.273,0.468 -0.078,0.13 -0.026,0.234 0.156,0.312 0.286,0.104 0.468,0.208 0.546,0.312 0.181,0.311 0.493,0.428 0.935,0.35 z"
   id="path101"
   inkscape:connector-curvature="0" />
		<path
   style="clip-rule:evenodd;fill:#ffe357;fill-rule:evenodd"
   d="m 28.665,-10.101 c 0.156,0.026 0.325,-0.026 0.507,-0.156 0.208,-0.104 0.286,-0.208 0.234,-0.312 -0.052,-0.104 -0.273,-0.156 -0.663,-0.156 -0.208,0 -0.325,0.013 -0.351,0.039 -0.052,0.026 -0.104,0.117 -0.156,0.273 -0.078,0.156 -0.065,0.247 0.039,0.273 0.052,0.026 0.182,0.039 0.39,0.039 z"
   id="path103"
   inkscape:connector-curvature="0" />
	</g>
</symbol>

<use
   xlink:href="#eggy"
   width="33.712002"
   height="17.143999"
   x="-0.0080000004"
   y="-17.163"
   transform="matrix(7.5936515,0,0,-7.5936515,373.87012,1861.1971)"
   style="display:inline;overflow:visible"
   id="use220" />





</svg>