<?xml version="1.0" encoding="UTF-8" standalone="no"?>
<!-- Generator: Adobe Illustrator 15.1.0, SVG Export Plug-In . SVG Version: 6.00 Build 0)  -->

<svg
   xmlns:dc="http://purl.org/dc/elements/1.1/"
   xmlns:cc="http://creativecommons.org/ns#"
   xmlns:rdf="http://www.w3.org/1999/02/22-rdf-syntax-ns#"
   xmlns:svg="http://www.w3.org/2000/svg"
   xmlns="http://www.w3.org/2000/svg"
   xmlns:xlink="http://www.w3.org/1999/xlink"
   xmlns:sodipodi="http://sodipodi.sourceforge.net/DTD/sodipodi-0.dtd"
   xmlns:inkscape="http://www.inkscape.org/namespaces/inkscape"
   version="1.1"
   id="Layer_1"
   x="0px"
   y="0px"
   width="256"
   height="256"
   viewBox="0 0 256 256.00001"
   xml:space="preserve"
   sodipodi:docname="oyster.svg"
   inkscape:version="0.92.4 (5da689c313, 2019-01-14)"><title
   id="title870">Oyster</title><metadata
   id="metadata63"><rdf:RDF><cc:Work
       rdf:about=""><dc:format>image/svg+xml</dc:format><dc:type
         rdf:resource="http://purl.org/dc/dcmitype/StillImage" /><dc:title>Oyster</dc:title><cc:license
         rdf:resource="http://creativecommons.org/publicdomain/zero/1.0/" /><dc:creator><cc:Agent><dc:title>Glitch</dc:title></cc:Agent></dc:creator><dc:source>https://opengameart.org/node/20149</dc:source></cc:Work><cc:License
       rdf:about="http://creativecommons.org/publicdomain/zero/1.0/"><cc:permits
         rdf:resource="http://creativecommons.org/ns#Reproduction" /><cc:permits
         rdf:resource="http://creativecommons.org/ns#Distribution" /><cc:permits
         rdf:resource="http://creativecommons.org/ns#DerivativeWorks" /></cc:License></rdf:RDF></metadata><defs
   id="defs61" /><sodipodi:namedview
   pagecolor="#ffffff"
   bordercolor="#666666"
   borderopacity="1"
   objecttolerance="10"
   gridtolerance="10"
   guidetolerance="10"
   inkscape:pageopacity="0"
   inkscape:pageshadow="2"
   inkscape:window-width="1920"
   inkscape:window-height="1025"
   id="namedview59"
   showgrid="false"
   inkscape:zoom="0.73869574"
   inkscape:cx="-99.649236"
   inkscape:cy="58.8955"
   inkscape:window-x="-8"
   inkscape:window-y="-8"
   inkscape:window-maximized="1"
   inkscape:current-layer="Layer_1"
   fit-margin-top="0"
   fit-margin-left="0"
   fit-margin-right="0"
   fit-margin-bottom="0" />
<symbol
   id="rockoystersp"
   viewBox="-0.003 -0.012 75.26 48.009"
   transform="translate(-20.098366,218.64468)">
	<g
   id="Layer_1_2_">
		<path
   style="clip-rule:evenodd;fill:#88826a;fill-rule:evenodd"
   d="m 62.479,20.602 c 0.122,0.457 0.362,1.078 0.72,1.864 0.28,0.74 0.356,1.3 0.229,1.676 -0.121,0.522 -0.994,1.621 -2.617,3.297 -0.17,0.159 -0.337,0.326 -0.502,0.502 -1.576,1.548 -3.279,3.049 -5.11,4.502 -0.313,0.23 -0.606,0.448 -0.877,0.651 0.034,0.007 0.08,-0.005 0.137,-0.037 1.836,-0.884 2.885,-1.507 3.146,-1.871 0.202,-0.282 0.771,-0.777 1.708,-1.485 0.747,-0.56 1.384,-1.016 1.91,-1.368 0.186,-0.099 0.399,-0.214 0.643,-0.344 0.14,-0.086 0.305,-0.171 0.494,-0.255 0.262,-0.119 0.665,-0.292 1.208,-0.52 0.417,-0.209 0.773,-0.402 1.068,-0.58 0.337,-0.204 0.587,-0.427 0.752,-0.666 0.406,-0.615 0.742,-1.097 1.008,-1.445 0.53,-0.763 1.04,-1.389 1.529,-1.878 0.475,-0.421 1.344,-1.258 2.607,-2.511 1.045,-1.096 1.596,-1.839 1.655,-2.23 0.023,-0.218 -0.014,-0.478 -0.111,-0.778 -0.056,-0.148 -0.146,-0.361 -0.269,-0.638 -0.008,-0.031 -0.016,-0.061 -0.024,-0.091 -0.223,-0.528 -0.101,-1.018 0.365,-1.469 0.234,-0.226 0.586,-0.492 1.06,-0.798 0.204,-0.153 0.504,-0.372 0.9,-0.658 l 0.023,-0.006 c 0.048,-0.017 0.082,-0.043 0.102,-0.077 0.23,-0.176 0.422,-0.341 0.576,-0.497 0.007,-0.035 0.037,-0.075 0.09,-0.122 l 0.025,-0.044 c 0.091,-0.167 0.055,-0.316 -0.108,-0.448 -0.011,0.02 -0.066,0.026 -0.166,0.02 -0.274,0.073 -0.432,0.124 -0.474,0.151 -0.242,0.13 -0.749,0.462 -1.52,0.995 -0.109,0.079 -0.222,0.149 -0.335,0.212 0.124,-0.147 0.228,-0.306 0.313,-0.476 -0.057,0.032 -0.101,0.019 -0.133,-0.038 -0.034,-0.007 -0.056,-0.026 -0.064,-0.056 -0.968,0.473 -1.943,0.914 -2.927,1.324 -0.592,0.469 -1.02,0.763 -1.282,0.882 -0.392,0.121 -0.801,0.207 -1.229,0.256 -0.534,0.078 -0.951,0.075 -1.25,-0.008 -0.094,0.074 -0.168,0.135 -0.221,0.182 -0.874,0.756 -1.538,1.448 -1.99,2.075 -0.563,0.82 -0.916,1.755 -1.059,2.805 z"
   id="path2"
   inkscape:connector-curvature="0" />
		<path
   style="clip-rule:evenodd;fill:#6a5a39;fill-rule:evenodd"
   d="M 74.598,8.641 C 74.605,8.606 74.627,8.568 74.665,8.525 74.925,8.096 74.974,7.7 74.811,7.336 74.757,7.318 74.302,7.293 73.445,7.261 73.005,7.265 72.683,7.22 72.479,7.128 c -0.165,0.175 -0.267,0.284 -0.304,0.326 -0.244,0.31 -0.307,0.531 -0.19,0.663 0.009,0.095 0.428,0.195 1.255,0.3 0.828,0.105 1.278,0.172 1.351,0.201 z m 0.324,4.086 c 0.01,-0.017 0.024,-0.041 0.042,-0.072 0.146,-0.186 0.239,-0.358 0.278,-0.515 0.042,-0.207 -0.007,-0.39 -0.147,-0.548 -0.066,-0.063 -0.239,-0.099 -0.518,-0.106 -0.393,0.057 -0.698,0.073 -0.917,0.05 -0.596,0.029 -1.058,-0.018 -1.385,-0.143 -0.049,0.062 -0.094,0.106 -0.135,0.134 -0.312,0.361 -0.376,0.574 -0.195,0.64 0.231,0.134 0.77,0.194 1.614,0.179 0.55,-0.017 0.914,-0.033 1.089,-0.047 0.1,0.006 0.155,0 0.166,-0.02 0.163,0.132 0.199,0.281 0.108,0.448 z m -0.115,0.166 c -0.154,0.156 -0.346,0.321 -0.576,0.497 -0.02,0.034 -0.054,0.06 -0.102,0.077 0.065,-0.021 0.123,-0.053 0.17,-0.095 0.151,-0.106 0.321,-0.266 0.508,-0.479 z"
   id="path4"
   inkscape:connector-curvature="0" />
		<path
   style="clip-rule:evenodd;fill:#d3ccb2;fill-rule:evenodd"
   d="M 1.937,31.635 C 1.78,31.659 1.645,31.672 1.53,31.67 c -0.016,0.004 -0.031,0.008 -0.046,0.012 -0.212,0.122 -0.521,0.581 -0.929,1.375 -0.448,0.887 -0.627,1.408 -0.536,1.563 0.008,0.03 0.047,0.085 0.117,0.164 0.079,0.11 0.206,0.247 0.38,0.413 0.308,0.357 0.476,0.558 0.503,0.6 0.163,0.364 0.259,1.211 0.289,2.541 0.015,0.176 0.027,0.344 0.037,0.505 -0.007,0.703 0.036,1.23 0.13,1.58 0.034,0.187 0.08,0.33 0.139,0.428 0.333,0.694 1.695,1.513 4.085,2.455 1.463,0.588 2.312,0.923 2.546,1.007 0.81,0.403 1.322,0.731 1.537,0.983 0.588,0.854 1.827,1.519 3.715,1.991 0.615,0.162 1.347,0.275 2.197,0.342 0.024,0.026 0.058,0.033 0.104,0.021 0.597,0.035 1.238,0.052 1.922,0.048 0.394,0.009 0.799,-0.002 1.216,-0.032 0.47,-0.012 0.951,-0.043 1.444,-0.093 -0.275,0.008 -0.518,0.016 -0.728,0.023 -0.35,-0.086 -0.625,-0.167 -0.824,-0.244 -0.119,-0.018 -0.202,-0.052 -0.249,-0.104 l -0.052,-0.011 -0.023,0.006 c -0.028,10e-4 -0.056,0.004 -0.083,0.01 -0.027,0 -0.051,0.002 -0.072,0.007 l -0.011,0.003 c -0.03,0.009 -0.056,0.007 -0.075,-0.004 l -0.023,0.006 c -0.426,0.015 -0.824,0.023 -1.192,0.026 -0.65,0.011 -1.207,0.005 -1.669,-0.019 -0.241,0.016 -0.453,0.016 -0.637,0 -0.658,-0.02 -1.057,-0.076 -1.196,-0.17 -0.563,-0.273 -1.001,-0.629 -1.314,-1.067 -0.055,-0.083 -0.122,-0.18 -0.2,-0.289 C 11.88,45.542 11.711,45.277 11.525,44.951 11.192,44.502 10.595,44.066 9.731,43.645 9.196,43.413 8.403,43.103 7.352,42.715 7.283,42.701 7.222,42.685 7.168,42.666 5.964,42.255 5.148,41.951 4.721,41.756 3.958,41.405 3.478,41.044 3.28,40.673 3.155,40.445 3.104,40.165 3.129,39.832 3.089,39.745 3.05,39.657 3.009,39.57 2.936,39.296 2.948,38.918 3.048,38.434 3.147,37.95 3.168,37.602 3.111,37.389 3.063,37.271 2.932,36.995 2.718,36.564 2.474,36.139 2.341,35.857 2.32,35.715 2.153,35.156 2.07,34.664 2.071,34.239 2.082,33.975 2.126,33.743 2.203,33.543 2.228,33.455 2.291,33.356 2.393,33.248 2.546,33.027 2.807,32.81 3.173,32.598 3.931,32.2 4.422,31.897 4.643,31.69 5.232,31.207 5.683,30.514 5.997,29.614 6.088,29.345 6.053,28.76 5.893,27.855 5.864,27.08 6.224,26.625 6.971,26.49 c 0.988,-0.151 1.64,-0.276 1.956,-0.377 0.723,-0.227 1.105,-0.565 1.147,-1.018 0.079,-1.229 0.68,-2.182 1.804,-2.858 0.644,-0.4 1.774,-0.899 3.394,-1.496 0.766,-0.369 1.36,-0.83 1.783,-1.384 0.228,-0.306 0.489,-0.792 0.784,-1.458 0.281,-0.598 0.551,-1.021 0.81,-1.27 0.403,-0.386 0.987,-0.64 1.754,-0.764 0.389,-0.072 0.919,-0.042 1.59,0.087 0.192,0.047 0.843,0.19 1.952,0.432 1.831,0.439 3.294,0.57 4.388,0.391 0.782,-0.128 1.535,-0.485 2.259,-1.07 0.513,-0.398 1.102,-1.005 1.765,-1.819 0.851,-1.028 1.357,-1.604 1.52,-1.729 0.526,-0.532 1.019,-0.828 1.477,-0.885 0.911,-0.13 1.578,0.042 1.999,0.517 0.238,0.279 0.467,0.83 0.687,1.652 0.201,0.811 0.445,1.358 0.733,1.64 0.467,0.462 1.213,0.597 2.238,0.404 3.163,-0.619 5.878,-1.876 8.144,-3.773 0.558,-0.476 1.261,-1.113 2.108,-1.911 0.674,-0.589 1.24,-0.944 1.697,-1.066 0.533,-0.143 0.893,-0.109 1.08,0.102 0.117,0.132 0.172,0.37 0.167,0.714 -0.006,0.524 -0.216,1.11 -0.63,1.76 -0.409,0.665 -0.602,1.132 -0.578,1.403 0.037,0.382 0.469,0.625 1.297,0.729 0.886,0.138 1.898,0.022 3.04,-0.349 1.7,-0.537 3.299,-1.512 4.797,-2.926 0.286,-0.272 0.801,-0.786 1.546,-1.54 0.526,-0.533 0.925,-0.901 1.197,-1.104 0.436,-0.199 0.873,-0.397 1.309,-0.596 -0.021,0.349 -0.037,0.687 -0.046,1.016 -0.329,0.415 -1.089,1.173 -2.279,2.275 -0.813,0.74 -1.191,1.339 -1.134,1.797 0.018,0.371 0.376,0.552 1.076,0.544 0.54,0.002 0.983,-0.076 1.333,-0.235 0.418,-0.145 1.374,-0.751 2.866,-1.82 1.5,-1.104 2.319,-1.698 2.459,-1.785 -0.109,0.813 -0.448,1.466 -1.017,1.961 -0.828,0.564 -1.468,1.038 -1.92,1.42 -0.52,0.498 -0.932,0.968 -1.238,1.409 -0.116,0.178 -0.446,0.772 -0.991,1.783 0.113,0.116 0.266,0.198 0.458,0.245 0.3,0.083 0.716,0.085 1.25,0.008 0.427,-0.049 0.837,-0.135 1.229,-0.256 0.262,-0.119 0.689,-0.413 1.282,-0.882 0.983,-0.41 1.959,-0.851 2.926,-1.322 0.008,0.03 0.03,0.049 0.064,0.056 0.032,0.057 0.076,0.07 0.133,0.038 -0.085,0.169 -0.189,0.328 -0.313,0.476 0.113,-0.063 0.226,-0.134 0.335,-0.212 0.771,-0.533 1.278,-0.864 1.52,-0.995 0.042,-0.027 0.2,-0.078 0.474,-0.151 -0.175,0.014 -0.539,0.03 -1.089,0.047 -0.845,0.015 -1.383,-0.045 -1.614,-0.179 -0.181,-0.066 -0.116,-0.279 0.195,-0.64 0.042,-0.027 0.086,-0.072 0.135,-0.134 0.192,-0.199 0.525,-0.508 1,-0.929 0.2,-0.168 0.383,-0.339 0.548,-0.514 C 74.072,9.704 74.258,9.515 74.386,9.383 74.648,9.019 74.72,8.772 74.603,8.64 L 74.597,8.617 C 74.524,8.588 74.074,8.521 73.246,8.416 72.418,8.312 72,8.211 71.991,8.116 71.874,7.984 71.937,7.763 72.181,7.453 72.218,7.411 72.32,7.302 72.485,7.127 72.617,7.01 72.792,6.841 73.01,6.619 73.371,6.261 73.63,5.947 73.786,5.677 74.002,5.325 74.067,4.99 73.981,4.67 73.913,4.476 73.763,4.345 73.533,4.276 73.399,4.263 73.252,4.262 73.091,4.272 72.763,4.327 72.244,4.491 71.533,4.763 70.72,5.079 70.186,5.246 69.93,5.266 69.43,5.351 69.18,5.239 69.179,4.929 69.169,4.768 69.268,4.53 69.477,4.213 69.679,3.93 69.787,3.632 69.8,3.318 69.818,2.775 69.681,2.477 69.389,2.424 68.872,2.383 67.726,2.796 65.951,3.663 65.015,4.126 64.052,4.645 63.064,5.22 62.193,5.747 61.72,6.021 61.644,6.041 60.876,6.345 60.245,6.457 59.751,6.377 59.498,6.347 59.105,6.191 58.573,5.909 58.072,5.684 57.603,5.549 57.166,5.503 56.489,5.472 55.627,5.605 54.581,5.902 53.664,6.196 52.85,6.505 52.136,6.826 51.689,7.044 51.149,7.344 50.517,7.725 49.858,8.13 49.345,8.407 48.976,8.554 48.293,8.867 47.527,9.114 46.677,9.292 45.79,9.513 44.893,9.607 43.987,9.572 43.467,9.581 42.674,9.516 41.609,9.377 40.578,9.245 39.739,9.16 39.092,9.121 c -1.021,-0.036 -2.04,0 -3.055,0.109 -1.473,0.167 -2.61,0.462 -3.409,0.889 -0.47,0.257 -1.04,0.72 -1.709,1.389 -0.628,0.641 -1.245,1.108 -1.852,1.401 -0.963,0.487 -2.27,0.82 -3.918,1.001 -0.896,0.126 -1.749,0.11 -2.558,-0.049 -0.487,-0.049 -0.792,-0.09 -0.915,-0.122 -0.379,-0.013 -0.744,-0.005 -1.095,0.024 -1.419,0.185 -2.501,0.499 -3.248,0.944 -0.59,0.354 -1.02,0.82 -1.29,1.398 -0.24,0.685 -0.421,1.198 -0.542,1.54 -0.211,0.612 -0.523,1.062 -0.935,1.352 -0.313,0.231 -0.869,0.502 -1.667,0.814 -0.98,0.36 -1.704,0.645 -2.171,0.851 -0.885,0.352 -1.511,0.666 -1.877,0.944 -0.494,0.409 -0.678,0.817 -0.553,1.225 0.11,0.411 0.109,0.771 -0.004,1.078 -0.173,0.39 -0.573,0.758 -1.197,1.104 -0.178,0.129 -0.468,0.264 -0.871,0.404 -0.437,0.199 -0.731,0.318 -0.883,0.359 -0.701,0.367 -1.094,0.758 -1.179,1.173 -0.025,0.088 0.054,0.385 0.239,0.891 0.186,0.57 0.308,1.027 0.367,1.37 0.163,1.278 -0.579,2.073 -2.226,2.384 -0.122,0.032 -0.257,0.044 -0.406,0.035 -0.031,0.008 -0.063,0.009 -0.098,0.002 -0.036,0.01 -0.069,0.011 -0.103,0.004 z"
   id="path6"
   inkscape:connector-curvature="0" />
		<path
   style="clip-rule:evenodd;fill:#6a665a;fill-rule:evenodd"
   d="m 56.244,1.441 c 1.281,0.032 2.281,0.14 3,0.322 0.461,0.138 1.022,0.314 1.684,0.528 0.537,0.117 1.195,0.137 1.974,0.059 0.382,-0.217 0.843,-0.479 1.38,-0.786 C 65.308,0.947 66.099,0.49 66.657,0.193 66.054,0.257 65.47,0.299 64.904,0.32 64.698,0.342 64.48,0.352 64.251,0.348 62.328,0.357 60.774,0.496 59.589,0.765 58.393,1.053 57.359,1.273 56.485,1.425 56.389,1.435 56.309,1.44 56.244,1.441 Z M 69.341,0.257 c -0.51,0.104 -1.175,0.364 -1.994,0.779 -0.11,0.078 -0.242,0.163 -0.397,0.253 -0.545,0.342 -1.316,0.875 -2.313,1.599 -0.521,0.368 -0.969,0.676 -1.344,0.923 -0.567,0.38 -0.942,0.595 -1.125,0.644 -0.456,0.188 -0.939,0.211 -1.45,0.07 C 60.518,4.448 60.335,4.375 60.17,4.305 59.739,4.159 59.366,4.047 59.051,3.968 57.238,3.475 55.026,3.594 52.415,4.326 51.597,4.562 50.921,4.841 50.387,5.163 50.043,5.402 49.668,5.739 49.262,6.174 48.769,6.649 48.392,6.978 48.132,7.162 L 48.07,7.205 C 47.551,7.523 46.928,7.756 46.201,7.902 45.447,8.071 44.681,8.048 43.905,7.832 43.56,7.761 42.812,7.497 41.66,7.038 40.634,6.677 39.763,6.412 39.049,6.245 38.658,6.186 38.277,6.134 37.905,6.086 37.193,6.048 36.484,6.051 35.777,6.093 c -1.866,0.222 -3.219,0.593 -4.059,1.112 -0.521,0.369 -0.953,0.949 -1.296,1.743 -0.379,0.836 -0.766,1.405 -1.158,1.706 -0.136,0.102 -0.282,0.198 -0.437,0.289 -0.754,0.414 -1.796,0.693 -3.128,0.838 -0.519,0.074 -1.069,10e-4 -1.65,-0.219 -0.281,-0.071 -0.617,-0.202 -1.011,-0.39 -0.166,-0.07 -0.352,-0.159 -0.561,-0.266 -0.729,-0.343 -1.228,-0.561 -1.497,-0.651 -0.304,-0.099 -0.584,-0.17 -0.841,-0.216 -0.253,-0.03 -0.465,-0.03 -0.637,0 -2.057,0.241 -3.481,1.137 -4.274,2.687 -0.222,0.451 -0.444,1.082 -0.668,1.893 -0.201,0.772 -0.372,1.291 -0.513,1.557 l -0.023,0.006 c -0.371,0.687 -0.915,1.183 -1.632,1.49 -0.258,0.134 -0.739,0.288 -1.444,0.46 -0.217,0.042 -0.455,0.098 -0.714,0.167 C 9.244,18.564 8.481,18.85 7.942,19.158 7.113,19.657 6.466,20.377 6,21.318 5.8,21.73 5.7,22.239 5.698,22.842 5.661,23.619 5.641,24.09 5.636,24.254 5.568,24.55 5.4,24.775 5.131,24.928 c -0.167,0.11 -0.471,0.225 -0.912,0.343 -0.434,0.148 -0.758,0.276 -0.975,0.384 -0.353,0.208 -0.59,0.476 -0.715,0.804 -0.24,0.505 -0.268,1.132 -0.083,1.882 0.235,0.753 0.376,1.222 0.425,1.404 0.06,0.588 -0.122,1.068 -0.543,1.442 -0.094,0.074 -0.166,0.143 -0.214,0.205 -0.086,0.104 -0.146,0.186 -0.18,0.244 0.035,0.007 0.067,0.006 0.098,-0.002 0.034,0.007 0.067,0.006 0.098,-0.002 0.149,0.009 0.285,-0.003 0.406,-0.035 C 4.182,31.286 4.925,30.492 4.762,29.213 4.703,28.87 4.58,28.413 4.395,27.843 4.21,27.337 4.131,27.04 4.156,26.952 4.241,26.537 4.634,26.146 5.335,25.779 5.487,25.738 5.782,25.619 6.218,25.42 6.62,25.279 6.911,25.145 7.089,25.016 7.714,24.669 8.113,24.301 8.286,23.912 8.399,23.604 8.401,23.245 8.29,22.834 8.165,22.427 8.349,22.019 8.843,21.609 c 0.366,-0.278 0.992,-0.593 1.877,-0.944 0.467,-0.206 1.19,-0.49 2.171,-0.851 0.798,-0.312 1.354,-0.583 1.667,-0.814 0.412,-0.29 0.723,-0.74 0.935,-1.352 0.121,-0.342 0.302,-0.855 0.542,-1.54 0.27,-0.579 0.7,-1.044 1.29,-1.398 0.746,-0.445 1.828,-0.759 3.248,-0.944 0.352,-0.029 0.716,-0.037 1.095,-0.024 0.123,0.032 0.428,0.073 0.915,0.122 0.809,0.159 1.662,0.175 2.558,0.049 1.649,-0.181 2.955,-0.514 3.918,-1.001 0.606,-0.293 1.224,-0.76 1.852,-1.401 0.669,-0.669 1.239,-1.132 1.709,-1.389 0.799,-0.426 1.936,-0.722 3.409,-0.889 1.015,-0.109 2.034,-0.145 3.055,-0.109 0.647,0.039 1.486,0.125 2.517,0.256 1.065,0.139 1.858,0.204 2.378,0.195 0.906,0.035 1.804,-0.059 2.69,-0.28 0.85,-0.179 1.617,-0.425 2.299,-0.738 0.368,-0.147 0.882,-0.424 1.541,-0.829 0.632,-0.381 1.172,-0.681 1.619,-0.899 0.714,-0.322 1.528,-0.63 2.445,-0.924 1.046,-0.297 1.908,-0.43 2.585,-0.399 0.437,0.046 0.905,0.182 1.407,0.406 0.532,0.282 0.925,0.438 1.178,0.468 0.494,0.08 1.125,-0.032 1.893,-0.336 0.076,-0.02 0.549,-0.294 1.42,-0.821 0.988,-0.575 1.951,-1.094 2.887,-1.557 1.775,-0.867 2.921,-1.28 3.438,-1.239 0.292,0.052 0.428,0.35 0.411,0.894 -0.014,0.313 -0.122,0.612 -0.323,0.895 -0.209,0.317 -0.308,0.556 -0.298,0.716 10e-4,0.31 0.252,0.422 0.751,0.337 0.256,-0.02 0.79,-0.187 1.603,-0.503 0.711,-0.272 1.229,-0.436 1.558,-0.491 0.161,-0.01 0.308,-0.009 0.442,0.004 C 73.533,4.065 73.495,3.895 73.413,3.771 73.3,3.654 73.024,3.598 72.584,3.601 71.995,3.643 71.616,3.63 71.45,3.56 71.066,3.467 70.853,3.19 70.811,2.727 70.801,2.567 70.784,2.351 70.76,2.08 70.757,1.885 70.745,1.66 70.725,1.404 70.715,1.243 70.692,1.095 70.655,0.958 70.598,0.745 70.526,0.568 70.44,0.428 70.233,0.206 69.867,0.149 69.341,0.257 Z m -16.5,1.459 C 52.47,1.734 52.09,1.746 51.7,1.752 47.897,2.543 44.004,3.178 40.02,3.658 c -0.996,0.12 -1.938,0.226 -2.828,0.317 -0.332,0.04 -0.642,0.074 -0.928,0.102 1.116,0.207 2.499,0.432 4.146,0.676 0.912,0.115 1.643,0.343 2.191,0.686 0.263,0.19 0.451,0.312 0.562,0.363 0.004,0.015 0.014,0.021 0.029,0.017 0.243,0.114 0.546,0.18 0.91,0.197 0.482,0.034 1.342,0.016 2.58,-0.055 0.371,-0.018 0.716,-0.037 1.037,-0.058 l 0.063,-0.042 c 0.269,-0.153 0.66,-0.43 1.173,-0.828 0.431,-0.344 0.821,-0.62 1.174,-0.829 0.546,-0.277 1.228,-0.533 2.046,-0.769 2.615,-0.717 4.796,-0.95 6.544,-0.701 0.307,0.048 0.667,0.115 1.082,0.2 C 59.536,2.858 59.255,2.754 58.958,2.621 58.331,2.349 57.869,2.179 57.573,2.111 56.959,1.949 56.265,1.858 55.492,1.836 54.838,1.832 54.183,1.853 53.526,1.898 53.281,1.835 53.053,1.774 52.841,1.716 Z"
   id="path8"
   inkscape:connector-curvature="0" />
		<path
   style="clip-rule:evenodd;fill:#92836e;fill-rule:evenodd"
   d="M 3.13,39.833 C 3.162,39.466 3.286,39.016 3.503,38.484 3.705,37.958 3.838,37.635 3.905,37.52 3.992,37.235 3.981,37.01 3.87,36.843 3.41,36.281 3.458,35.396 4.015,34.185 4.07,34.024 4.153,33.846 4.265,33.654 4.913,32.42 5.985,31.243 7.48,30.124 8.221,29.6 9.07,28.842 10.028,27.851 c 1.252,-1.233 2.111,-2.051 2.574,-2.452 2.318,-2.009 5.167,-3.588 8.547,-4.738 1.757,-0.568 3.582,-1.065 5.475,-1.491 2.042,-0.482 4.031,-0.852 5.969,-1.11 1.026,-0.128 2.592,-0.466 4.698,-1.014 2.036,-0.562 3.504,-0.931 4.403,-1.106 2.063,-0.34 4.715,-0.643 7.957,-0.908 1.395,-0.096 3.028,-0.24 4.902,-0.432 0.542,-0.047 1.098,-0.106 1.667,-0.177 0.366,-0.033 0.706,0.015 1.018,0.144 0.44,0.241 0.854,0.449 1.244,0.622 1.279,0.571 2.184,1.022 2.712,1.354 0.458,0.367 0.779,0.925 0.963,1.676 0.074,0.764 0.146,1.364 0.214,1.803 0.027,0.222 0.061,0.408 0.102,0.561 l 0.006,0.022 c 0.143,-1.05 0.496,-1.985 1.06,-2.805 0.452,-0.627 1.116,-1.319 1.99,-2.075 0.053,-0.047 0.126,-0.107 0.221,-0.182 -0.192,-0.047 -0.345,-0.128 -0.458,-0.245 0.545,-1.011 0.875,-1.605 0.991,-1.783 0.306,-0.441 0.719,-0.911 1.238,-1.409 0.452,-0.382 1.092,-0.855 1.92,-1.42 0.569,-0.496 0.908,-1.149 1.017,-1.961 -0.14,0.086 -0.96,0.681 -2.459,1.785 -1.492,1.069 -2.448,1.676 -2.866,1.82 -0.349,0.159 -0.793,0.237 -1.333,0.235 -0.7,0.008 -1.058,-0.173 -1.076,-0.544 -0.058,-0.458 0.321,-1.057 1.134,-1.797 1.19,-1.103 1.95,-1.861 2.279,-2.275 0.01,-0.329 0.025,-0.667 0.046,-1.016 -0.437,0.199 -0.873,0.397 -1.309,0.596 -0.272,0.203 -0.671,0.571 -1.197,1.104 -0.745,0.754 -1.26,1.268 -1.546,1.54 -1.499,1.414 -3.097,2.389 -4.797,2.926 -1.141,0.371 -2.154,0.487 -3.04,0.349 -0.828,-0.104 -1.26,-0.348 -1.297,-0.729 -0.024,-0.271 0.169,-0.739 0.578,-1.403 0.414,-0.649 0.624,-1.236 0.63,-1.76 0.006,-0.344 -0.05,-0.583 -0.167,-0.714 -0.187,-0.211 -0.547,-0.245 -1.08,-0.102 -0.457,0.122 -1.022,0.478 -1.697,1.066 -0.847,0.798 -1.55,1.435 -2.108,1.911 -2.266,1.896 -4.98,3.154 -8.144,3.773 -1.025,0.193 -1.771,0.059 -2.238,-0.404 -0.288,-0.282 -0.532,-0.829 -0.733,-1.64 -0.22,-0.822 -0.449,-1.373 -0.687,-1.652 -0.421,-0.475 -1.088,-0.647 -1.999,-0.517 -0.458,0.058 -0.95,0.353 -1.477,0.885 -0.162,0.125 -0.668,0.702 -1.52,1.729 -0.663,0.814 -1.251,1.42 -1.765,1.819 -0.724,0.585 -1.477,0.942 -2.259,1.07 -1.094,0.179 -2.557,0.049 -4.388,-0.391 -1.109,-0.242 -1.76,-0.385 -1.952,-0.432 -0.671,-0.13 -1.201,-0.159 -1.59,-0.087 -0.767,0.124 -1.351,0.378 -1.754,0.764 -0.259,0.249 -0.529,0.672 -0.81,1.27 -0.295,0.666 -0.556,1.153 -0.784,1.458 -0.423,0.554 -1.017,1.015 -1.783,1.384 -1.619,0.597 -2.75,1.096 -3.394,1.496 -1.124,0.677 -1.726,1.63 -1.804,2.858 -0.042,0.452 -0.425,0.791 -1.147,1.018 -0.316,0.101 -0.967,0.226 -1.956,0.377 -0.747,0.135 -1.106,0.59 -1.078,1.365 0.16,0.904 0.195,1.49 0.104,1.759 -0.314,0.9 -0.765,1.593 -1.354,2.076 -0.222,0.207 -0.712,0.51 -1.47,0.908 -0.367,0.213 -0.627,0.43 -0.78,0.65 -0.102,0.108 -0.165,0.207 -0.19,0.295 -0.077,0.2 -0.121,0.433 -0.132,0.696 -10e-4,0.425 0.082,0.917 0.249,1.476 0.021,0.142 0.154,0.424 0.398,0.849 0.213,0.432 0.345,0.707 0.393,0.825 0.057,0.213 0.036,0.561 -0.063,1.045 -0.099,0.483 -0.112,0.861 -0.039,1.136 0.044,0.083 0.083,0.171 0.123,0.258 z"
   id="path10"
   inkscape:connector-curvature="0" />
		<path
   style="clip-rule:evenodd;fill:#3c3427;fill-rule:evenodd"
   d="m 1.674,21.154 c 0.179,-0.489 0.355,-0.96 0.527,-1.414 -0.259,0.493 -0.454,0.864 -0.583,1.11 -0.527,0.957 -0.816,2.039 -0.869,3.244 -0.058,0.88 0.01,1.988 0.205,3.323 0.301,1.976 0.458,3.051 0.473,3.227 0.033,0.367 0.052,0.713 0.058,1.037 0.015,-0.004 0.03,-0.008 0.046,-0.012 0.115,0.002 0.25,-0.011 0.406,-0.035 C 1.97,31.575 2.03,31.494 2.117,31.39 2.166,31.327 2.237,31.259 2.331,31.185 2.753,30.811 2.934,30.331 2.874,29.743 2.825,29.56 2.684,29.092 2.449,28.339 2.265,27.589 2.292,26.962 2.532,26.457 2.657,26.129 2.894,25.861 3.247,25.653 3.463,25.546 3.788,25.418 4.222,25.269 4.663,25.151 4.967,25.037 5.134,24.926 5.403,24.773 5.571,24.548 5.639,24.252 5.644,24.088 5.664,23.617 5.701,22.84 c 0.001,-0.604 0.102,-1.112 0.302,-1.524 0.466,-0.941 1.113,-1.661 1.942,-2.16 0.538,-0.308 1.302,-0.594 2.292,-0.859 0.259,-0.069 0.497,-0.125 0.714,-0.167 0.705,-0.172 1.186,-0.326 1.444,-0.46 0.718,-0.307 1.262,-0.803 1.632,-1.49 l 0.023,-0.006 c 0.141,-0.266 0.312,-0.785 0.513,-1.557 0.224,-0.811 0.446,-1.441 0.668,-1.893 0.792,-1.55 2.217,-2.446 4.274,-2.687 0.171,-0.03 0.384,-0.029 0.637,0 0.257,0.045 0.537,0.117 0.841,0.216 0.269,0.091 0.768,0.308 1.497,0.651 0.208,0.107 0.395,0.196 0.561,0.266 0.394,0.188 0.73,0.318 1.011,0.39 0.581,0.22 1.131,0.293 1.65,0.219 1.332,-0.145 2.375,-0.424 3.128,-0.838 0.155,-0.091 0.301,-0.187 0.437,-0.289 0.393,-0.301 0.779,-0.869 1.158,-1.706 0.343,-0.793 0.775,-1.374 1.296,-1.743 0.84,-0.519 2.193,-0.89 4.059,-1.112 0.707,-0.042 1.416,-0.045 2.128,-0.007 0.372,0.047 0.753,0.1 1.144,0.159 0.714,0.167 1.585,0.432 2.611,0.793 1.151,0.458 1.899,0.723 2.245,0.794 0.776,0.216 1.542,0.24 2.296,0.07 0.728,-0.146 1.351,-0.378 1.869,-0.697 l 0.063,-0.041 c 0.261,-0.184 0.637,-0.514 1.13,-0.988 0.406,-0.436 0.78,-0.772 1.125,-1.011 0.534,-0.323 1.209,-0.602 2.028,-0.837 2.611,-0.732 4.822,-0.851 6.636,-0.358 0.315,0.079 0.688,0.191 1.119,0.337 0.166,0.07 0.348,0.143 0.548,0.22 0.511,0.141 0.994,0.117 1.45,-0.07 C 62.354,4.406 62.73,4.191 63.297,3.811 63.672,3.563 64.119,3.256 64.641,2.888 65.639,2.164 66.409,1.631 66.954,1.289 67.109,1.199 67.241,1.114 67.351,1.036 68.17,0.62 68.835,0.361 69.345,0.257 68.807,0.075 68.228,-0.014 67.609,-0.012 67.124,0.004 66.46,0.084 65.617,0.228 65.35,0.267 65.114,0.298 64.908,0.321 65.474,0.3 66.058,0.258 66.661,0.194 66.104,0.49 65.312,0.947 64.286,1.565 63.748,1.873 63.288,2.134 62.906,2.351 62.127,2.429 61.469,2.41 60.932,2.292 60.27,2.078 59.709,1.902 59.248,1.764 c -0.718,-0.183 -1.718,-0.29 -3,-0.322 -0.721,0.112 -1.855,0.204 -3.402,0.275 0.211,0.058 0.44,0.119 0.686,0.184 0.657,-0.045 1.312,-0.066 1.966,-0.062 0.773,0.021 1.467,0.113 2.081,0.275 0.295,0.068 0.757,0.238 1.385,0.51 0.297,0.132 0.578,0.237 0.843,0.313 -0.415,-0.084 -0.775,-0.151 -1.082,-0.2 -1.748,-0.25 -3.929,-0.016 -6.544,0.701 -0.818,0.236 -1.5,0.492 -2.046,0.769 -0.353,0.208 -0.743,0.485 -1.174,0.829 -0.513,0.398 -0.904,0.675 -1.173,0.828 L 47.725,5.906 C 47.404,5.927 47.058,5.946 46.688,5.964 45.45,6.034 44.59,6.053 44.108,6.019 43.745,6.002 43.441,5.936 43.198,5.822 43.182,5.826 43.173,5.821 43.169,5.805 43.058,5.753 42.87,5.632 42.607,5.442 42.058,5.099 41.328,4.871 40.416,4.756 38.768,4.512 37.386,4.287 36.27,4.08 c -0.996,0.12 -1.9,0.215 -2.714,0.286 0.216,0.073 0.446,0.142 0.692,0.207 0.623,0.192 1.462,0.465 2.52,0.818 0.381,0.143 0.729,0.254 1.044,0.333 -0.7,0.008 -1.397,0.056 -2.091,0.144 -1.85,0.283 -3.203,0.654 -4.059,1.112 -0.538,0.307 -1,0.774 -1.388,1.4 -0.429,0.653 -0.845,1.107 -1.25,1.363 -0.14,0.086 -0.29,0.167 -0.449,0.243 -0.766,0.369 -1.809,0.648 -3.129,0.838 -0.515,0.089 -1.05,0.069 -1.607,-0.059 -0.269,-0.026 -0.591,-0.103 -0.968,-0.23 -0.157,-0.039 -0.334,-0.09 -0.53,-0.151 -0.696,-0.222 -1.172,-0.355 -1.43,-0.4 -0.295,-0.068 -0.567,-0.109 -0.816,-0.124 -0.245,0 -0.453,0.015 -0.624,0.045 -2.037,0.317 -3.494,1.091 -4.372,2.322 -0.247,0.36 -0.506,0.854 -0.778,1.481 -0.25,0.589 -0.454,0.986 -0.611,1.192 0.104,-0.403 0.189,-0.818 0.254,-1.243 0.086,-0.594 0.179,-1.435 0.279,-2.522 -0.046,-0.233 -0.1,-0.463 -0.161,-0.691 -0.157,0.025 -0.32,0.053 -0.492,0.083 -0.724,1.989 -1.179,3.18 -1.368,3.573 -0.465,0.94 -1.025,1.776 -1.678,2.506 -0.217,0.042 -0.456,0.098 -0.714,0.167 -0.99,0.265 -1.76,0.528 -2.31,0.79 -0.841,0.454 -1.523,1.044 -2.046,1.772 -0.224,0.321 -0.355,0.716 -0.393,1.183 -0.085,0.594 -0.137,0.951 -0.154,1.069 -0.084,0.234 -0.262,0.421 -0.535,0.56 -0.17,0.095 -0.477,0.201 -0.918,0.319 -0.438,0.134 -0.767,0.246 -0.987,0.338 -0.36,0.179 -0.613,0.393 -0.758,0.644 -0.265,0.414 -0.331,0.896 -0.199,1.449 0.182,0.555 0.291,0.901 0.327,1.038 0.03,0.416 -0.159,0.777 -0.567,1.082 C 1.121,25.349 1.097,24.131 1.217,23.365 1.463,21.855 1.616,21.12 1.674,21.154 Z"
   id="path12"
   inkscape:connector-curvature="0" />
		<path
   style="clip-rule:evenodd;fill:#433629;fill-rule:evenodd"
   d="m 53.951,33.267 c 0.559,-0.411 1.11,-0.853 1.653,-1.324 0.871,-0.707 2.072,-1.828 3.603,-3.364 0.494,-0.41 0.883,-1.363 1.167,-2.858 0.178,-1.468 -0.025,-2.531 -0.61,-3.19 -0.459,1.086 -1.206,2.199 -2.238,3.341 0.195,0.241 0.327,0.492 0.396,0.751 0.179,0.604 -0.015,1.374 -0.58,2.31 -0.758,1.067 -1.278,1.811 -1.557,2.229 -0.403,0.63 -1.058,1.197 -1.968,1.702 -1.126,0.547 -1.974,0.978 -2.542,1.293 -2.295,1.301 -4.149,2.36 -5.562,3.179 0.316,-0.101 0.652,-0.215 1.009,-0.344 0.955,-0.337 1.775,-0.654 2.462,-0.953 0.604,-0.243 1.118,-0.487 1.542,-0.731 0.261,-0.119 0.519,-0.253 0.773,-0.403 0.835,-0.487 1.652,-1.033 2.452,-1.638 z m -3.805,-1.502 c 0.263,0.859 0.117,1.625 -0.438,2.296 -0.416,0.519 -1.201,1.121 -2.355,1.806 0.933,-0.479 1.764,-0.938 2.495,-1.378 4.171,-2.521 5.952,-4.435 5.341,-5.739 -0.066,-0.064 -0.135,-0.201 -0.208,-0.41 -1.421,1.213 -3.033,2.354 -4.835,3.425 z m -6.793,5.344 c 2.948,-1.426 4.303,-2.458 4.066,-3.097 -0.077,-0.225 -0.171,-0.428 -0.286,-0.609 -0.933,0.479 -2.208,1.017 -3.827,1.613 0.182,0.131 0.303,0.278 0.363,0.441 0.19,0.587 0.085,1.137 -0.316,1.652 z m -7.748,0.681 c 1.008,0.171 1.597,0.511 1.766,1.021 0.029,0.106 0.042,0.217 0.04,0.332 0.794,-0.327 1.482,-0.65 2.065,-0.97 -0.019,-0.012 -0.006,-0.023 0.04,-0.035 1.007,-0.563 1.47,-1.03 1.387,-1.4 -0.123,-0.276 -0.316,-0.511 -0.58,-0.701 -1.459,0.521 -2.613,0.937 -3.46,1.245 -0.425,0.179 -0.844,0.349 -1.258,0.508 z"
   id="path14"
   inkscape:connector-curvature="0" />
		<path
   style="clip-rule:evenodd;fill:#57493c;fill-rule:evenodd"
   d="M 13.592,46.724 C 13.483,46.557 13.377,46.317 13.276,46 c -0.102,-0.38 -0.003,-0.774 0.295,-1.181 0.273,-0.383 0.362,-0.75 0.269,-1.1 -0.138,-0.453 -0.884,-1.077 -2.239,-1.872 -1.356,-0.796 -2.091,-1.406 -2.205,-1.833 -0.041,-0.152 0.123,-1.004 0.49,-2.555 0.43,-1.747 0.898,-2.86 1.407,-3.339 0.753,-0.724 1.931,-1.472 3.536,-2.245 0.899,-0.42 2.196,-0.972 3.889,-1.653 0.687,-0.299 1.611,-0.75 2.771,-1.354 1.327,-0.649 2.325,-1.129 2.992,-1.438 2.635,-1.13 5.566,-2.006 8.794,-2.626 1.742,-0.319 3.866,-0.555 6.372,-0.703 2.746,-0.165 5.375,-0.249 7.888,-0.253 0.409,0.004 0.811,0.011 1.204,0.02 2.299,0.053 4.203,0.245 5.711,0.575 1.493,0.334 2.518,0.811 3.075,1.428 1.032,-1.142 1.778,-2.255 2.238,-3.341 0.585,0.659 0.788,1.723 0.61,3.19 -0.284,1.495 -0.673,2.448 -1.167,2.858 -1.53,1.536 -2.731,2.657 -3.603,3.364 -0.543,0.472 -1.094,0.913 -1.653,1.324 0.133,-0.053 0.256,-0.11 0.37,-0.173 0.271,-0.203 0.564,-0.421 0.877,-0.651 1.831,-1.453 3.534,-2.954 5.11,-4.502 0.165,-0.176 0.332,-0.343 0.502,-0.502 1.624,-1.676 2.496,-2.774 2.617,-3.297 0.127,-0.376 0.051,-0.936 -0.229,-1.676 -0.358,-0.786 -0.598,-1.407 -0.72,-1.864 L 62.471,20.579 C 62.43,20.427 62.396,20.24 62.369,20.018 62.301,19.58 62.229,18.979 62.155,18.215 61.971,17.465 61.65,16.906 61.192,16.539 60.663,16.207 59.758,15.756 58.48,15.185 c -0.389,-0.173 -0.804,-0.38 -1.244,-0.622 -0.312,-0.128 -0.651,-0.176 -1.018,-0.144 -0.569,0.071 -1.124,0.13 -1.667,0.177 -1.874,0.192 -3.508,0.336 -4.902,0.432 -3.242,0.265 -5.894,0.568 -7.957,0.908 -0.899,0.176 -2.367,0.544 -4.403,1.106 -2.105,0.548 -3.671,0.886 -4.698,1.014 -1.938,0.258 -3.928,0.628 -5.969,1.11 -1.893,0.426 -3.718,0.923 -5.475,1.491 -3.38,1.15 -6.229,2.729 -8.547,4.738 -0.463,0.401 -1.322,1.219 -2.574,2.452 C 9.07,28.842 8.221,29.6 7.48,30.124 5.984,31.243 4.913,32.42 4.265,33.654 4.153,33.846 4.07,34.024 4.015,34.185 3.458,35.396 3.41,36.282 3.87,36.843 c 0.11,0.167 0.122,0.392 0.035,0.677 -0.067,0.115 -0.201,0.438 -0.402,0.964 -0.217,0.531 -0.341,0.981 -0.373,1.349 -0.025,0.333 0.026,0.613 0.151,0.841 0.198,0.371 0.678,0.732 1.441,1.083 0.428,0.195 1.244,0.499 2.447,0.91 0.054,0.019 0.115,0.035 0.184,0.049 1.051,0.388 1.844,0.697 2.379,0.93 0.864,0.421 1.461,0.856 1.794,1.306 0.186,0.326 0.354,0.591 0.507,0.795 -0.049,-0.183 -0.1,-0.373 -0.153,-0.571 0.038,-0.042 0.088,-0.22 0.151,-0.53 0.056,-0.341 0.105,-0.583 0.149,-0.725 C 10.897,43.334 9.68,42.754 8.532,42.181 6.276,41.073 5.085,40.282 4.959,39.809 4.429,37.83 5.134,35.56 7.076,33 c 0.045,-0.013 0.072,-0.036 0.079,-0.07 1.65,-2.123 4.077,-4.274 7.279,-6.454 2.742,-1.828 5.741,-3.424 8.999,-4.786 2.939,-1.212 5.215,-1.944 6.829,-2.196 0.328,-0.056 1.245,-0.105 2.75,-0.149 1.517,-0.064 2.916,-0.202 4.197,-0.415 0.111,-0.013 1.085,-0.242 2.925,-0.686 1.851,-0.463 2.854,-0.708 3.011,-0.733 4.613,-0.992 8.379,-1.495 11.296,-1.509 3.09,0.021 4.899,0.866 5.428,2.536 0.046,0.232 0.003,0.407 -0.129,0.524 -0.143,0.136 -0.2,0.258 -0.171,0.364 0.025,0.156 0.282,0.536 0.77,1.14 -0.104,0.648 -0.295,1.303 -0.575,1.966 C 59.737,22.49 59.7,22.443 59.653,22.39 59.218,21.984 58.693,21.635 58.075,21.344 56.407,20.599 54.097,20.263 51.147,20.336 47.227,20.505 41.745,21.06 34.703,22 c -2.945,0.397 -5.654,0.977 -8.127,1.737 -2.012,0.653 -4.013,1.467 -6.004,2.44 -1.004,0.515 -2.616,1.411 -4.835,2.691 -1.924,1.103 -3.423,1.904 -4.497,2.404 -0.785,0.357 -1.443,0.737 -1.971,1.14 -0.721,0.536 -1.205,1.106 -1.451,1.711 -0.271,0.692 -0.259,1.53 0.036,2.512 0.042,0.217 -0.143,0.838 -0.553,1.861 -0.422,1.044 -0.606,1.607 -0.551,1.69 0.096,0.235 0.471,0.51 1.126,0.824 0.271,0.156 0.936,0.476 1.995,0.958 0.116,0.067 0.235,0.117 0.358,0.149 1.654,0.813 2.583,1.445 2.785,1.897 0.152,0.384 0.144,0.81 -0.024,1.279 -0.198,0.478 -0.254,0.786 -0.168,0.927 0.072,0.21 0.329,0.377 0.77,0.504 z"
   id="path16"
   inkscape:connector-curvature="0" />
		<path
   style="clip-rule:evenodd;fill:#918976;fill-rule:evenodd"
   d="m 47.353,35.866 c -0.792,0.393 -1.638,0.798 -2.538,1.219 -0.072,0.035 -0.133,0.052 -0.183,0.049 -1.195,0.532 -2.124,0.937 -2.785,1.211 -0.543,0.228 -0.924,0.387 -1.145,0.479 -1.248,0.579 -2.782,1.219 -4.602,1.918 -1.648,0.67 -2.943,1.197 -3.885,1.58 -0.22,0.091 -0.427,0.171 -0.621,0.239 -0.083,0.056 -0.163,0.093 -0.239,0.113 0.221,-0.026 0.414,-0.07 0.577,-0.13 l 0.023,-0.007 c 0.293,-0.062 1.171,-0.411 2.632,-1.048 0.881,-0.366 1.707,-0.727 2.477,-1.079 0.277,-0.124 0.805,-0.314 1.585,-0.572 0.475,-0.176 0.935,-0.348 1.379,-0.516 0.24,-0.081 0.478,-0.169 0.713,-0.265 0.376,-0.117 1.205,-0.405 2.486,-0.862 0.692,-0.218 1.521,-0.505 2.486,-0.862 1.413,-0.818 3.267,-1.878 5.562,-3.179 0.568,-0.315 1.416,-0.746 2.542,-1.293 0.91,-0.505 1.565,-1.072 1.968,-1.702 0.279,-0.418 0.799,-1.161 1.557,-2.229 0.565,-0.936 0.759,-1.705 0.58,-2.31 -0.069,-0.259 -0.201,-0.51 -0.396,-0.751 -0.203,0.218 -0.412,0.445 -0.625,0.682 -0.586,0.614 -1.226,1.21 -1.92,1.787 0.073,0.209 0.142,0.346 0.208,0.41 0.611,1.305 -1.169,3.218 -5.341,5.739 -0.731,0.442 -1.562,0.901 -2.495,1.379 z M 18.351,47.26 c 0.012,-0.003 0.031,-0.008 0.057,-0.015 l 0.015,0.008 c 0.027,-0.006 0.055,-0.009 0.083,-0.01 l 0.023,-0.006 0.052,0.011 c -0.07,-0.017 -0.121,-0.052 -0.151,-0.107 -0.421,-0.229 -0.704,-0.586 -0.85,-1.069 -0.088,-0.27 -0.027,-0.678 0.186,-1.225 0.136,-0.347 0.341,-0.736 0.617,-1.169 0.16,-0.255 0.207,-0.627 0.142,-1.115 -0.111,-0.476 -0.129,-0.814 -0.052,-1.015 0.066,-0.181 0.539,-0.52 1.417,-1.016 0.837,-0.469 1.892,-0.98 3.163,-1.533 3.064,-1.294 5.692,-2.146 7.884,-2.553 3.88,-0.746 6.623,-1.016 8.229,-0.81 0.479,0.084 0.866,0.217 1.16,0.399 0.627,-0.217 1.315,-0.45 2.064,-0.7 0.312,-0.116 0.618,-0.223 0.918,-0.319 -0.846,-0.54 -2.965,-0.593 -6.357,-0.157 -2.125,0.292 -4.57,0.76 -7.335,1.402 -1.943,0.423 -3.586,0.807 -4.93,1.15 -2.517,0.657 -4.189,1.236 -5.019,1.736 -0.496,0.279 -0.845,0.471 -1.045,0.573 -0.352,0.209 -0.611,0.4 -0.776,0.575 -0.406,0.436 -0.561,1.138 -0.463,2.107 0.026,0.221 -0.149,0.938 -0.526,2.147 -0.37,1.177 -0.541,1.818 -0.513,1.925 0.065,0.243 0.261,0.485 0.586,0.725 0.08,-0.006 0.155,-10e-4 0.224,0.013 0.349,0.021 0.703,0.032 1.062,0.034 0.011,0.007 0.021,0.012 0.029,0.017 l 0.023,-0.006 c 0.019,0.011 0.044,0.013 0.075,0.004 z"
   id="path18"
   inkscape:connector-curvature="0" />
		<path
   style="clip-rule:evenodd;fill:#9e9785;fill-rule:evenodd"
   d="m 15.192,47.029 -0.029,-0.017 c -0.419,-0.165 -0.663,-0.313 -0.73,-0.441 -0.077,-0.224 -0.091,-0.889 -0.045,-1.995 0.039,-1.071 0.046,-1.652 0.022,-1.744 -0.094,-0.17 -0.539,-0.581 -1.334,-1.233 -0.088,-0.025 -0.175,-0.075 -0.261,-0.15 -0.991,-0.714 -1.522,-1.143 -1.593,-1.286 -0.222,-0.463 0.825,-1.519 3.142,-3.168 2.07,-1.469 3.973,-2.59 5.708,-3.365 0.19,-0.083 0.657,-0.29 1.4,-0.62 0.694,-0.332 1.36,-0.617 1.999,-0.854 1.865,-0.712 3.554,-1.14 5.065,-1.283 1.065,-0.106 2.798,-0.432 5.198,-0.978 2.651,-0.579 4.032,-0.876 4.143,-0.89 1.473,-0.23 3.457,-0.469 5.954,-0.714 1.355,-0.118 3.15,-0.362 5.384,-0.732 0.409,-0.061 0.921,-0.067 1.537,-0.021 0.008,0.031 0.653,0.095 1.936,0.191 1.245,0.14 1.941,0.239 2.087,0.298 0.066,0.063 0.123,0.154 0.17,0.272 0.02,0.011 0.031,0.024 0.035,0.039 0.694,-0.577 1.334,-1.173 1.92,-1.787 0.214,-0.236 0.423,-0.464 0.625,-0.682 -0.557,-0.617 -1.583,-1.094 -3.075,-1.428 -1.509,-0.33 -3.412,-0.522 -5.711,-0.575 -0.394,-0.009 -0.795,-0.016 -1.204,-0.02 -2.513,0.004 -5.142,0.088 -7.888,0.253 -2.506,0.148 -4.63,0.384 -6.372,0.703 -3.228,0.62 -6.16,1.496 -8.794,2.626 -0.667,0.31 -1.665,0.789 -2.992,1.438 -1.16,0.604 -2.084,1.056 -2.771,1.354 -1.693,0.682 -2.99,1.233 -3.889,1.653 -1.604,0.773 -2.783,1.521 -3.536,2.245 -0.508,0.479 -0.977,1.592 -1.407,3.339 -0.367,1.551 -0.531,2.402 -0.49,2.555 0.114,0.427 0.849,1.037 2.205,1.833 1.355,0.795 2.102,1.419 2.239,1.872 0.094,0.35 0.004,0.717 -0.269,1.1 -0.299,0.406 -0.397,0.801 -0.295,1.181 0.101,0.316 0.207,0.557 0.316,0.724 0.392,0.125 0.926,0.227 1.6,0.307 z"
   id="path20"
   inkscape:connector-curvature="0" />
		<path
   style="clip-rule:evenodd;fill:#544434;fill-rule:evenodd"
   d="m 50.146,31.765 c 1.802,-1.07 3.413,-2.212 4.834,-3.426 -0.004,-0.015 -0.016,-0.028 -0.035,-0.039 -0.048,-0.118 -0.104,-0.209 -0.17,-0.272 -0.146,-0.059 -0.842,-0.158 -2.087,-0.298 -1.283,-0.097 -1.928,-0.16 -1.936,-0.191 -0.616,-0.047 -1.128,-0.04 -1.537,0.021 -2.234,0.37 -4.029,0.614 -5.384,0.732 -2.497,0.245 -4.481,0.483 -5.954,0.714 -0.11,0.014 -1.491,0.311 -4.143,0.89 -2.4,0.546 -4.132,0.871 -5.198,0.978 -1.512,0.144 -3.2,0.571 -5.065,1.283 -0.639,0.236 -1.305,0.521 -1.999,0.854 -0.744,0.33 -1.21,0.537 -1.4,0.62 -1.734,0.775 -3.637,1.896 -5.708,3.365 -2.317,1.649 -3.364,2.705 -3.142,3.168 0.071,0.144 0.603,0.572 1.593,1.286 0.085,0.075 0.173,0.125 0.261,0.15 0.795,0.652 1.24,1.063 1.334,1.233 0.024,0.092 0.017,0.673 -0.022,1.744 -0.046,1.106 -0.032,1.771 0.045,1.995 0.067,0.129 0.311,0.276 0.73,0.441 -0.071,-0.145 -0.139,-0.338 -0.205,-0.582 -0.198,-0.616 -0.227,-1.212 -0.087,-1.788 0.113,-0.552 0.088,-1.133 -0.075,-1.742 -0.098,-0.365 -0.304,-0.8 -0.619,-1.303 -0.306,-0.473 -0.51,-0.899 -0.612,-1.28 -0.491,-1.713 2.643,-3.752 9.401,-6.117 3.874,-1.315 7.979,-2.44 12.314,-3.373 0.602,-0.129 1.564,-0.256 2.885,-0.381 1.679,-0.189 3.264,-0.304 4.754,-0.344 4.379,-0.162 6.784,0.377 7.214,1.616 0.005,0.014 0.009,0.03 0.013,0.046 z m -9.822,4.271 c -0.294,-0.183 -0.68,-0.315 -1.16,-0.399 -1.605,-0.206 -4.348,0.063 -8.229,0.81 -2.191,0.407 -4.82,1.259 -7.884,2.553 -1.271,0.553 -2.326,1.064 -3.163,1.533 -0.878,0.496 -1.351,0.835 -1.417,1.016 -0.077,0.2 -0.059,0.539 0.052,1.015 0.065,0.488 0.018,0.86 -0.142,1.115 -0.276,0.433 -0.481,0.822 -0.617,1.169 -0.213,0.547 -0.274,0.955 -0.186,1.225 0.146,0.483 0.429,0.84 0.85,1.069 -0.343,-0.364 -0.565,-0.737 -0.667,-1.118 -0.125,-0.407 0.201,-1.318 0.98,-2.735 0.832,-1.463 1.629,-2.354 2.393,-2.673 1.417,-0.559 4.101,-1.384 8.051,-2.476 1.459,-0.342 3.031,-0.502 4.718,-0.48 0.658,0.02 1.225,0.063 1.7,0.132 0.414,-0.159 0.833,-0.329 1.259,-0.509 0.849,-0.31 2.003,-0.725 3.462,-1.247 z"
   id="path22"
   inkscape:connector-curvature="0" />
		<path
   style="clip-rule:evenodd;fill:#594127;fill-rule:evenodd"
   d="m 15.163,47.013 0.029,0.017 0.023,-0.006 0.006,0.022 0.023,-0.006 c 0.222,0.038 0.468,0.07 0.736,0.097 0.037,0.021 0.095,0.022 0.172,0.003 -0.031,0.007 -0.048,0.003 -0.052,-0.011 -0.281,-0.137 -0.468,-0.315 -0.56,-0.535 -0.176,-0.476 -0.112,-1.211 0.192,-2.206 0.297,-0.961 0.34,-1.683 0.13,-2.165 -0.012,-0.045 -0.149,-0.221 -0.411,-0.526 -0.19,-0.161 -0.307,-0.293 -0.351,-0.396 -0.042,-0.037 -0.068,-0.071 -0.076,-0.102 -0.274,-0.596 0.01,-1.243 0.851,-1.941 0.766,-0.613 2.248,-1.418 4.445,-2.415 1.021,-0.453 3.738,-1.214 8.152,-2.282 2.182,-0.503 4.273,-0.981 6.273,-1.436 -0.251,0.034 -0.498,0.06 -0.738,0.075 2.739,-0.375 4.954,-0.634 6.646,-0.777 1.665,-0.12 2.979,-0.146 3.944,-0.078 0.889,0.089 1.557,0.269 2.005,0.54 0.202,0.143 0.378,0.314 0.531,0.519 0.046,-0.012 0.097,-0.034 0.154,-0.065 0.989,-0.51 1.942,-1.034 2.859,-1.573 -0.004,-0.016 -0.008,-0.031 -0.012,-0.046 -0.43,-1.239 -2.835,-1.778 -7.214,-1.616 -1.49,0.04 -3.075,0.154 -4.754,0.344 -1.321,0.125 -2.283,0.252 -2.885,0.381 -4.335,0.933 -8.44,2.058 -12.314,3.373 -6.759,2.365 -9.893,4.404 -9.401,6.117 0.102,0.381 0.307,0.808 0.612,1.28 0.315,0.503 0.521,0.938 0.619,1.303 0.163,0.609 0.188,1.19 0.075,1.742 -0.139,0.576 -0.11,1.172 0.087,1.788 0.065,0.243 0.133,0.436 0.204,0.581 z M 30.839,2.373 c 0.173,0.035 0.343,0.063 0.512,0.083 C 31.198,2.432 31.042,2.4 30.885,2.361 30.87,2.365 30.854,2.369 30.839,2.373 Z"
   id="path24"
   inkscape:connector-curvature="0" />
		<path
   style="clip-rule:evenodd;fill:#706353;fill-rule:evenodd"
   d="m 59.764,22.529 c 0.279,-0.663 0.471,-1.317 0.575,-1.966 -0.488,-0.604 -0.745,-0.983 -0.77,-1.14 -0.028,-0.106 0.028,-0.229 0.171,-0.364 0.132,-0.117 0.175,-0.292 0.129,-0.524 -0.529,-1.669 -2.338,-2.515 -5.428,-2.536 -2.917,0.015 -6.683,0.518 -11.296,1.509 -0.157,0.025 -1.16,0.27 -3.011,0.733 -1.839,0.444 -2.814,0.673 -2.925,0.686 -1.281,0.213 -2.681,0.351 -4.197,0.415 -1.506,0.044 -2.422,0.094 -2.75,0.149 -1.613,0.252 -3.89,0.984 -6.829,2.196 -3.258,1.362 -6.257,2.958 -8.999,4.786 -3.202,2.18 -5.628,4.331 -7.279,6.454 -0.007,0.034 -0.034,0.058 -0.079,0.07 -1.941,2.56 -2.647,4.83 -2.117,6.809 0.126,0.473 1.317,1.264 3.573,2.372 1.149,0.573 2.365,1.153 3.648,1.74 -0.044,0.142 -0.093,0.384 -0.149,0.725 -0.063,0.311 -0.114,0.488 -0.151,0.53 0.053,0.198 0.104,0.389 0.153,0.571 0.079,0.109 0.145,0.206 0.2,0.289 0.313,0.438 0.751,0.794 1.314,1.067 0.139,0.094 0.538,0.15 1.196,0.17 0.184,0.016 0.396,0.016 0.637,0 0.463,0.023 1.02,0.029 1.669,0.019 0.369,-0.003 0.766,-0.012 1.192,-0.026 -0.008,-0.005 -0.018,-0.01 -0.029,-0.017 -0.359,-0.002 -0.713,-0.013 -1.062,-0.034 -0.069,-0.014 -0.144,-0.019 -0.224,-0.013 -0.279,-0.007 -0.538,-0.027 -0.775,-0.062 -0.077,0.02 -0.135,0.019 -0.172,-0.003 -0.268,-0.026 -0.514,-0.059 -0.736,-0.097 l -0.023,0.006 -0.006,-0.022 -0.023,0.006 c -0.675,-0.08 -1.208,-0.183 -1.6,-0.306 -0.441,-0.127 -0.699,-0.294 -0.771,-0.503 -0.086,-0.141 -0.03,-0.449 0.168,-0.927 0.168,-0.47 0.176,-0.896 0.024,-1.279 C 12.81,43.56 11.882,42.928 10.227,42.115 10.104,42.083 9.985,42.033 9.869,41.966 8.809,41.484 8.144,41.164 7.874,41.008 7.219,40.694 6.843,40.419 6.748,40.184 6.693,40.101 6.877,39.538 7.299,38.494 7.71,37.471 7.894,36.849 7.852,36.633 7.557,35.652 7.544,34.814 7.816,34.121 8.062,33.517 8.545,32.946 9.267,32.41 c 0.528,-0.402 1.186,-0.782 1.971,-1.14 1.074,-0.5 2.573,-1.302 4.497,-2.404 2.219,-1.28 3.831,-2.177 4.835,-2.691 1.991,-0.974 3.993,-1.787 6.004,-2.44 2.473,-0.761 5.182,-1.34 8.127,-1.737 7.042,-0.94 12.524,-1.495 16.444,-1.664 2.951,-0.073 5.26,0.263 6.928,1.008 0.617,0.291 1.143,0.64 1.578,1.046 0.049,0.052 0.086,0.099 0.113,0.141 z"
   id="path26"
   inkscape:connector-curvature="0" />
		<path
   style="clip-rule:evenodd;fill:#4b3a29;fill-rule:evenodd"
   d="m 43.353,37.109 c -0.345,0.174 -0.712,0.354 -1.104,0.54 -0.113,0.063 -0.21,0.098 -0.291,0.103 -1.537,0.722 -3.198,1.437 -4.983,2.144 -0.395,0.171 -0.793,0.326 -1.196,0.467 -1.356,0.543 -2.987,1.339 -4.893,2.389 0.176,-0.015 0.332,-0.04 0.469,-0.077 0.076,-0.021 0.156,-0.058 0.239,-0.113 0.194,-0.068 0.401,-0.148 0.621,-0.239 0.942,-0.383 2.237,-0.91 3.885,-1.58 1.82,-0.699 3.354,-1.339 4.602,-1.918 0.22,-0.092 0.602,-0.251 1.145,-0.479 0.661,-0.274 1.589,-0.679 2.785,-1.211 0.05,0.003 0.111,-0.014 0.183,-0.049 0.899,-0.421 1.745,-0.826 2.538,-1.219 1.155,-0.685 1.94,-1.287 2.355,-1.806 0.555,-0.671 0.701,-1.437 0.438,-2.296 -0.917,0.539 -1.87,1.063 -2.859,1.573 -0.057,0.031 -0.108,0.054 -0.154,0.065 0.114,0.182 0.209,0.385 0.286,0.609 0.237,0.639 -1.118,1.672 -4.066,3.097 z"
   id="path28"
   inkscape:connector-curvature="0" />
		<path
   style="clip-rule:evenodd;fill:#807a6e;fill-rule:evenodd"
   d="m 43.307,35.017 c -0.3,0.097 -0.606,0.203 -0.918,0.319 -0.749,0.25 -1.437,0.483 -2.064,0.7 0.263,0.19 0.457,0.425 0.58,0.701 0.083,0.37 -0.38,0.837 -1.387,1.4 -0.046,0.012 -0.059,0.023 -0.04,0.035 -0.583,0.319 -1.271,0.643 -2.065,0.97 -0.425,0.179 -0.898,0.362 -1.419,0.551 -1.083,0.404 -1.99,0.795 -2.722,1.17 -0.671,0.359 -1.32,0.77 -1.947,1.231 -0.377,0.297 -0.717,0.552 -1.02,0.763 0.21,-0.007 0.405,-0.043 0.583,-0.106 1.906,-1.05 3.537,-1.846 4.893,-2.389 0.403,-0.141 0.802,-0.296 1.196,-0.467 1.785,-0.707 3.446,-1.422 4.983,-2.144 0.08,-0.005 0.177,-0.039 0.291,-0.103 0.391,-0.186 0.759,-0.366 1.104,-0.54 0.401,-0.516 0.506,-1.065 0.317,-1.651 -0.063,-0.162 -0.183,-0.31 -0.365,-0.44 z"
   id="path30"
   inkscape:connector-curvature="0" />
		<path
   style="clip-rule:evenodd;fill:#6d6345;fill-rule:evenodd"
   d="m 37.411,39.143 c 0.002,-0.115 -0.011,-0.226 -0.04,-0.332 -0.169,-0.51 -0.758,-0.85 -1.766,-1.021 -1.497,0.63 -2.729,1.237 -3.698,1.823 -0.348,0.224 -0.673,0.441 -0.975,0.653 0.54,0.067 0.854,0.203 0.942,0.408 0.079,0.354 -0.413,0.927 -1.474,1.717 -0.245,0.18 -0.527,0.378 -0.844,0.594 -0.563,0.396 -1.282,0.882 -2.155,1.458 -0.212,0.122 -0.491,0.36 -0.837,0.714 -0.229,0.241 -0.423,0.432 -0.581,0.572 0.015,-0.004 0.043,-0.02 0.085,-0.047 0.545,-0.342 1.448,-0.902 2.708,-1.681 0.397,-0.286 0.907,-0.667 1.53,-1.145 0.302,-0.211 0.642,-0.466 1.02,-0.763 0.627,-0.462 1.276,-0.872 1.947,-1.231 0.731,-0.375 1.639,-0.766 2.722,-1.17 0.518,-0.187 0.991,-0.371 1.416,-0.549 z"
   id="path32"
   inkscape:connector-curvature="0" />
		<path
   style="clip-rule:evenodd;fill:#cdcbbe;fill-rule:evenodd"
   d="m 30.932,40.267 c -0.283,-0.022 -0.639,-0.041 -1.068,-0.057 -1.284,0.018 -2.66,0.182 -4.127,0.493 -1.802,0.401 -3.375,1.23 -4.719,2.488 -0.545,0.521 -0.958,1.024 -1.236,1.507 -0.278,0.483 -0.373,0.834 -0.28,1.054 -0.015,0.069 0.005,0.113 0.059,0.132 -0.174,0.323 -0.219,0.58 -0.136,0.771 0.078,0.289 0.457,0.579 1.139,0.87 0.02,0.011 0.056,0.025 0.11,0.044 0.037,0.021 0.079,0.026 0.126,0.015 -0.017,0.005 -0.032,0.009 -0.045,0.013 0.031,0.057 0.08,0.085 0.145,0.083 0.17,0.085 0.349,0.144 0.537,0.175 0.568,0.174 1.087,0.19 1.555,0.049 0.583,-0.141 1.294,-0.592 2.134,-1.355 -0.572,0.365 -0.989,0.575 -1.251,0.629 -0.061,0.017 -0.173,0.022 -0.338,0.018 0.004,0.015 -0.003,0.017 -0.022,0.006 -0.031,0.008 -0.051,0.021 -0.063,0.041 -0.037,-0.021 -0.083,-0.042 -0.139,-0.061 0.056,0.018 0.121,0.017 0.195,-0.003 -0.054,-0.019 -0.083,-0.067 -0.088,-0.148 0.244,-0.065 0.514,-0.153 0.81,-0.266 0.045,-0.013 0.104,-0.036 0.177,-0.072 0.439,-0.248 0.965,-0.568 1.578,-0.961 0.158,-0.141 0.352,-0.331 0.581,-0.572 0.346,-0.354 0.625,-0.592 0.837,-0.714 0.874,-0.576 1.592,-1.063 2.155,-1.458 0.317,-0.216 0.599,-0.414 0.844,-0.594 1.061,-0.79 1.553,-1.362 1.474,-1.717 -0.09,-0.207 -0.404,-0.343 -0.944,-0.41 z m -3.442,3.051 c 0.076,-0.021 0.16,-0.043 0.251,-0.067 -0.038,0.043 -0.066,0.059 -0.085,0.047 l -0.023,0.007 c -0.045,0.012 -0.076,0.02 -0.091,0.024 -0.046,0.012 -0.063,0.009 -0.052,-0.011 z"
   id="path34"
   inkscape:connector-curvature="0" />
		<path
   style="clip-rule:evenodd;fill:#6b6559;fill-rule:evenodd"
   d="m 18.58,47.248 c 0.046,0.053 0.129,0.087 0.249,0.104 0.2,0.077 0.475,0.158 0.824,0.244 0.21,-0.008 0.453,-0.016 0.728,-0.023 0.03,-0.009 0.091,-0.024 0.182,-0.049 -0.682,-0.291 -1.061,-0.581 -1.139,-0.87 -0.083,-0.19 -0.038,-0.447 0.136,-0.771 -0.054,-0.019 -0.074,-0.063 -0.059,-0.132 -0.092,-0.22 10e-4,-0.571 0.28,-1.054 0.279,-0.483 0.691,-0.985 1.236,-1.507 1.344,-1.258 2.917,-2.087 4.719,-2.488 1.467,-0.312 2.843,-0.476 4.127,-0.493 0.429,0.016 0.785,0.034 1.068,0.057 0.302,-0.212 0.627,-0.43 0.975,-0.653 0.97,-0.586 2.202,-1.193 3.698,-1.823 -0.476,-0.068 -1.042,-0.112 -1.7,-0.132 -1.687,-0.021 -3.259,0.139 -4.718,0.48 -3.95,1.092 -6.634,1.917 -8.051,2.476 -0.763,0.319 -1.561,1.21 -2.393,2.673 -0.779,1.417 -1.106,2.328 -0.98,2.735 0.102,0.381 0.324,0.754 0.667,1.118 0.03,0.056 0.081,0.091 0.151,0.108 z"
   id="path36"
   inkscape:connector-curvature="0" />
		<path
   style="clip-rule:evenodd;fill:#564533;fill-rule:evenodd"
   d="m 16.927,47.201 c -0.325,-0.239 -0.521,-0.481 -0.586,-0.725 -0.028,-0.106 0.143,-0.748 0.513,-1.925 0.377,-1.21 0.553,-1.927 0.526,-2.147 -0.097,-0.97 0.058,-1.672 0.463,-2.107 0.165,-0.175 0.424,-0.366 0.776,-0.575 0.201,-0.103 0.55,-0.294 1.045,-0.573 0.829,-0.5 2.502,-1.079 5.019,-1.736 1.344,-0.344 2.987,-0.728 4.93,-1.15 2.765,-0.643 5.21,-1.11 7.335,-1.402 3.392,-0.436 5.511,-0.383 6.357,0.157 1.619,-0.597 2.895,-1.135 3.827,-1.613 -0.152,-0.204 -0.329,-0.376 -0.531,-0.519 -0.448,-0.271 -1.116,-0.451 -2.005,-0.54 -0.965,-0.067 -2.28,-0.042 -3.944,0.078 -1.692,0.144 -3.907,0.402 -6.646,0.777 0.24,-0.016 0.487,-0.041 0.738,-0.075 -2,0.454 -4.091,0.933 -6.273,1.436 -4.414,1.068 -7.131,1.829 -8.152,2.282 -2.197,0.997 -3.679,1.802 -4.445,2.415 -0.841,0.698 -1.125,1.346 -0.851,1.941 0.008,0.03 0.034,0.064 0.076,0.102 0.044,0.103 0.161,0.234 0.351,0.396 0.262,0.306 0.398,0.481 0.411,0.526 0.21,0.482 0.167,1.204 -0.13,2.165 -0.305,0.995 -0.369,1.73 -0.192,2.206 0.092,0.22 0.278,0.398 0.56,0.535 0.004,0.014 0.021,0.018 0.052,0.011 0.239,0.033 0.497,0.053 0.776,0.06 z"
   id="path38"
   inkscape:connector-curvature="0" />
		<path
   style="clip-rule:evenodd;fill:#848172;fill-rule:evenodd"
   d="M 33.551,4.363 C 30.928,4.625 29.005,4.904 27.778,5.2 26.51,5.523 25.501,5.777 24.751,5.962 c -0.762,0.204 -1.916,0.554 -3.464,1.051 0.323,0.109 0.59,0.225 0.803,0.348 0.271,0.156 0.709,0.455 1.317,0.896 0.588,0.43 1.059,0.753 1.41,0.969 1.163,0.684 2.414,0.936 3.752,0.757 0.159,-0.075 0.309,-0.156 0.449,-0.243 0.405,-0.255 0.822,-0.709 1.25,-1.363 0.387,-0.626 0.85,-1.093 1.388,-1.4 C 32.512,6.519 33.865,6.148 35.715,5.865 36.409,5.777 37.107,5.729 37.806,5.721 37.491,5.642 37.143,5.531 36.762,5.388 35.704,5.035 34.865,4.763 34.242,4.57 33.997,4.505 33.767,4.437 33.551,4.363 Z"
   id="path40"
   inkscape:connector-curvature="0" />
		<path
   style="clip-rule:evenodd;fill:#797665;fill-rule:evenodd"
   d="m 16.85,6.807 c 0.078,0.044 0.167,0.078 0.271,0.099 0.593,0.266 1.09,0.565 1.489,0.898 0.144,0.108 0.271,0.221 0.385,0.337 -0.78,0.258 -1.751,0.469 -2.915,0.634 -1.205,0.192 -2.52,0.92 -3.944,2.183 -1.481,1.294 -3.679,3.05 -6.593,5.267 C 4.286,17.198 2.997,18.841 1.674,21.154 1.616,21.12 1.463,21.855 1.212,23.358 1.091,24.125 1.115,25.342 1.285,27.01 1.693,26.705 1.882,26.344 1.852,25.928 1.815,25.791 1.706,25.445 1.525,24.89 1.394,24.337 1.46,23.855 1.724,23.441 1.869,23.19 2.121,22.976 2.482,22.797 2.702,22.705 3.031,22.593 3.469,22.459 3.91,22.341 4.217,22.234 4.387,22.14 4.66,22.001 4.838,21.815 4.922,21.58 4.94,21.462 4.991,21.104 5.076,20.511 5.114,20.044 5.245,19.65 5.469,19.328 5.992,18.6 6.675,18.01 7.515,17.556 c 0.55,-0.262 1.32,-0.525 2.31,-0.79 0.259,-0.069 0.497,-0.125 0.714,-0.167 0.653,-0.73 1.213,-1.565 1.678,-2.506 0.189,-0.394 0.645,-1.584 1.368,-3.573 0.172,-0.03 0.335,-0.058 0.492,-0.083 0.061,0.228 0.115,0.458 0.161,0.691 -0.1,1.087 -0.193,1.928 -0.279,2.522 -0.065,0.425 -0.15,0.84 -0.254,1.243 0.157,-0.206 0.361,-0.603 0.611,-1.192 0.272,-0.628 0.532,-1.122 0.778,-1.481 0.878,-1.23 2.334,-2.004 4.372,-2.322 0.171,-0.03 0.379,-0.044 0.624,-0.045 0.249,0.015 0.521,0.056 0.816,0.124 0.257,0.045 0.734,0.179 1.43,0.4 0.196,0.062 0.373,0.112 0.53,0.151 0.377,0.128 0.699,0.205 0.968,0.23 0.557,0.128 1.092,0.148 1.607,0.059 1.32,-0.19 2.363,-0.47 3.129,-0.838 C 27.231,10.158 25.98,9.906 24.818,9.222 24.467,9.006 23.996,8.683 23.408,8.253 22.8,7.815 22.361,7.517 22.09,7.361 21.878,7.238 21.61,7.123 21.287,7.013 20.575,6.73 19.657,6.503 18.534,6.331 18.851,6.295 19.273,6.255 19.8,6.212 21.106,6.091 21.831,6.027 21.976,6.021 22.975,5.852 24.759,5.504 27.327,4.979 29.354,4.566 31.058,4.257 32.439,4.05 c 0.338,0.105 0.708,0.21 1.112,0.314 0.813,-0.071 1.718,-0.167 2.714,-0.286 0.286,-0.028 0.596,-0.062 0.928,-0.102 0.889,-0.091 1.832,-0.197 2.828,-0.317 3.984,-0.48 7.877,-1.115 11.68,-1.906 0.39,-0.006 0.77,-0.019 1.141,-0.036 C 54.389,1.645 55.524,1.553 56.244,1.442 55.116,1.434 53.157,1.494 50.368,1.621 49.317,1.658 48.104,1.852 46.73,2.204 44.706,2.746 43.141,2.97 42.039,2.873 41.167,2.846 39.138,2.916 35.951,3.084 35.446,3.088 34.9,3.088 34.311,3.083 c -1.174,0.005 -2.228,0.091 -3.162,0.26 0.149,0.009 0.3,0.025 0.454,0.05 -0.165,-0.005 -0.331,-0.018 -0.5,-0.038 -0.187,0.034 -0.374,0.067 -0.561,0.101 -0.057,0.032 -0.125,0.05 -0.205,0.055 -1.205,0.257 -3.016,0.653 -5.435,1.187 -2.487,0.585 -4.627,1.125 -6.419,1.622 -0.031,0.008 -0.069,0.018 -0.114,0.03 -0.031,0.008 -0.054,0.015 -0.069,0.019 -0.498,0.15 -0.982,0.296 -1.45,0.438 z"
   id="path42"
   inkscape:connector-curvature="0" />
		<path
   style="clip-rule:evenodd;fill:#a2a093;fill-rule:evenodd"
   d="M 1.674,21.154 C 2.997,18.841 4.286,17.198 5.543,16.225 8.458,14.008 10.655,12.252 12.136,10.958 13.56,9.695 14.875,8.968 16.08,8.775 17.243,8.61 18.215,8.399 18.995,8.141 18.882,8.025 18.754,7.912 18.61,7.804 18.211,7.471 17.714,7.171 17.121,6.906 17.017,6.885 16.927,6.852 16.85,6.807 16.774,6.827 16.705,6.846 16.644,6.862 15.374,7.3 14.149,7.783 12.969,8.312 11.273,9.109 10.02,9.73 9.209,10.176 8.384,10.626 7.567,11.203 6.761,11.909 5.958,12.63 5.167,13.634 4.386,14.92 3.723,15.979 2.995,17.586 2.201,19.741 2.029,20.194 1.854,20.665 1.674,21.154 Z M 21.288,7.013 C 22.836,6.516 23.99,6.166 24.752,5.962 25.502,5.777 26.511,5.524 27.779,5.2 29.006,4.904 30.929,4.625 33.552,4.363 33.149,4.259 32.778,4.155 32.44,4.049 31.059,4.256 29.355,4.566 27.328,4.978 24.76,5.503 22.976,5.851 21.977,6.02 c -0.145,0.006 -0.87,0.07 -2.176,0.191 -0.527,0.043 -0.949,0.083 -1.266,0.119 1.123,0.173 2.04,0.4 2.753,0.683 z"
   id="path44"
   inkscape:connector-curvature="0" />
		<path
   style="clip-rule:evenodd;fill:#e8d287;fill-rule:evenodd"
   d="m 20.038,47.665 c -0.091,0.024 -0.17,0.037 -0.234,0.038 0.083,0.01 0.186,-0.002 0.309,-0.034 -0.032,0.008 -0.057,0.006 -0.075,-0.004 z"
   id="path46"
   inkscape:connector-curvature="0" />
		<path
   style="clip-rule:evenodd;fill:#8f6336;fill-rule:evenodd"
   d="m 18.422,47.253 -0.015,-0.008 c -0.026,0.007 -0.045,0.012 -0.057,0.015 0.021,-0.005 0.045,-0.007 0.072,-0.007 z"
   id="path48"
   inkscape:connector-curvature="0" />
	</g>
</symbol>
<symbol
   id="wsize_x5F_ocoyster"
   viewBox="-0.001 -20.755 32.567 20.775"
   transform="translate(-20.098366,218.64468)">
	<g
   id="Layer_1_3_">
		
			<use
   xlink:href="#rockoystersp"
   width="75.260002"
   height="48.008999"
   x="-0.003"
   y="-0.012"
   transform="matrix(0.4327,0,0,0.4327,8.6965631,-115.35756)"
   style="overflow:visible"
   id="use52" />
	</g>
</symbol>
<use
   xlink:href="#wsize_x5F_ocoyster"
   width="32.567001"
   height="20.775"
   x="-0.001"
   y="-20.754999"
   transform="matrix(7.8611432,0,0,-7.8611432,158.00976,1765.2924)"
   style="overflow:visible"
   id="use56" />
</svg>