<?xml version="1.0" encoding="UTF-8" standalone="no"?>
<!-- Generator: Adobe Illustrator 15.1.0, SVG Export Plug-In . SVG Version: 6.00 Build 0)  -->

<svg
   xmlns:dc="http://purl.org/dc/elements/1.1/"
   xmlns:cc="http://creativecommons.org/ns#"
   xmlns:rdf="http://www.w3.org/1999/02/22-rdf-syntax-ns#"
   xmlns:svg="http://www.w3.org/2000/svg"
   xmlns="http://www.w3.org/2000/svg"
   xmlns:xlink="http://www.w3.org/1999/xlink"
   xmlns:sodipodi="http://sodipodi.sourceforge.net/DTD/sodipodi-0.dtd"
   xmlns:inkscape="http://www.inkscape.org/namespaces/inkscape"
   version="1.1"
   id="flash0.ai"
   x="0px"
   y="0px"
   width="256"
   height="256"
   viewBox="0 0 256.00001 255.99999"
   xml:space="preserve"
   sodipodi:docname="salmon.svg"
   inkscape:version="0.92.4 (5da689c313, 2019-01-14)"
   inkscape:export-xdpi="10.5"
   inkscape:export-ydpi="10.5"><title
   id="title1248">Salmon</title><metadata
   id="metadata441"><rdf:RDF><cc:Work
       rdf:about=""><dc:format>image/svg+xml</dc:format><dc:type
         rdf:resource="http://purl.org/dc/dcmitype/StillImage" /><dc:title>Salmon</dc:title><cc:license
         rdf:resource="http://creativecommons.org/publicdomain/zero/1.0/" /><dc:creator><cc:Agent><dc:title>Glitch</dc:title></cc:Agent></dc:creator><dc:source>https://opengameart.org/node/20149</dc:source></cc:Work><cc:License
       rdf:about="http://creativecommons.org/publicdomain/zero/1.0/"><cc:permits
         rdf:resource="http://creativecommons.org/ns#Reproduction" /><cc:permits
         rdf:resource="http://creativecommons.org/ns#Distribution" /><cc:permits
         rdf:resource="http://creativecommons.org/ns#DerivativeWorks" /></cc:License></rdf:RDF></metadata><defs
   id="defs439" /><sodipodi:namedview
   pagecolor="#ffffff"
   bordercolor="#666666"
   borderopacity="1"
   objecttolerance="10"
   gridtolerance="10"
   guidetolerance="10"
   inkscape:pageopacity="0"
   inkscape:pageshadow="2"
   inkscape:window-width="1920"
   inkscape:window-height="1025"
   id="namedview437"
   showgrid="false"
   inkscape:zoom="0.64864353"
   inkscape:cx="-373.60128"
   inkscape:cy="102.76746"
   inkscape:window-x="-8"
   inkscape:window-y="-8"
   inkscape:window-maximized="1"
   inkscape:current-layer="flash0.ai"
   fit-margin-top="0"
   fit-margin-left="0"
   fit-margin-right="0"
   fit-margin-bottom="0" />
<symbol
   id="flash0.ai_x5F_5_x2F_Layer_11_x2F__x3C_Path_x3E__x5F_10"
   viewBox="-0.013 -4.133 5.263 4.133"
   transform="translate(105.98597,121.50255)">
	<g
   id="Layer_1_48_">
		<path
   style="clip-rule:evenodd;fill-rule:evenodd"
   d="M 4.9,-0.7 C 4.933,-0.933 4.933,-1.183 4.9,-1.45 4.867,-1.617 4.8,-1.883 4.7,-2.25 4.633,-2.683 4.817,-2.983 5.25,-3.15 L 4.4,-3.6 C 3.067,-4.133 2.017,-4.267 1.25,-4 0.783,-3.8 0.433,-3.6 0.2,-3.4 c -0.267,0.233 -0.283,0.367 -0.05,0.4 1.1,0.233 1.95,0.533 2.55,0.9 0.6,0.367 1.25,1.067 1.95,2.1 0.1,-0.133 0.183,-0.367 0.25,-0.7 z"
   id="path2"
   inkscape:connector-curvature="0" />
	</g>
</symbol>
<symbol
   id="flash0.ai_x5F_5_x2F_Layer_11_x2F__x3C_Path_x3E__x5F_15"
   viewBox="0.047 -1.839 1.557 1.867"
   transform="translate(105.98597,121.50255)">
	<g
   id="Layer_1_47_">
		<path
   style="clip-rule:evenodd;fill:#f7f7f7;fill-rule:evenodd"
   d="M 1.6,-0.55 C 1.533,-1.083 1.25,-1.467 0.75,-1.7 0.25,-1.967 0.017,-1.85 0.05,-1.35 0.083,-0.817 0.383,-0.4 0.95,-0.1 1.417,0.167 1.633,0.017 1.6,-0.55 Z"
   id="path6"
   inkscape:connector-curvature="0" />
	</g>
</symbol>
<symbol
   id="flash0.ai_x5F_5_x2F_Layer_11_x2F__x3C_Path_x3E__x5F_16"
   viewBox="0.033 -0.639 1.177 0.664"
   transform="translate(105.98597,121.50255)">
	<g
   id="Layer_1_46_">
		<path
   style="clip-rule:evenodd;fill:#f7f7f7;fill-rule:evenodd"
   d="M 1.2,-0.1 C 1.1,-0.267 0.883,-0.417 0.55,-0.55 0.283,-0.683 0.117,-0.667 0.05,-0.5 c -0.066,0.2 0.067,0.333 0.4,0.4 0.567,0.167 0.817,0.167 0.75,0 z"
   id="path10"
   inkscape:connector-curvature="0" />
	</g>
</symbol>
<symbol
   id="flash0.ai_x5F_5_x2F_Layer_11_x2F__x3C_Path_x3E__x5F_17"
   viewBox="0 -0.889 1.6 0.883"
   transform="translate(105.98597,121.50255)">
	<g
   id="Layer_1_45_">
		<path
   style="clip-rule:evenodd;fill:#f7f7f7;fill-rule:evenodd"
   d="M 0.2,-0.45 C 0.933,-0.017 1.4,0.1 1.6,-0.1 1.5,-0.133 1.417,-0.233 1.35,-0.4 1.317,-0.533 1.133,-0.65 0.8,-0.75 0.433,-0.917 0.183,-0.933 0.05,-0.8 -0.05,-0.7 0,-0.583 0.2,-0.45 Z"
   id="path14"
   inkscape:connector-curvature="0" />
	</g>
</symbol>
<symbol
   id="flash0.ai_x5F_5_x2F_Layer_11_x2F__x3C_Path_x3E__x5F_18"
   viewBox="0.03 -9.961 11.972 9.995"
   transform="translate(105.98597,121.50255)">
	<g
   id="Layer_1_44_">
		<path
   style="clip-rule:evenodd;fill:#f7f7f7;fill-rule:evenodd"
   d="M 11.95,-0.5 C 11.916,-0.567 11.783,-0.65 11.55,-0.75 11.183,-0.883 10.75,-1.1 10.25,-1.4 9.883,-1.633 9.383,-1.8 8.75,-1.9 8.283,-2 7.867,-2.283 7.5,-2.75 7.233,-3.083 6.867,-3.433 6.4,-3.8 6.067,-4.033 5.767,-4.467 5.5,-5.1 5.233,-5.667 4.733,-6.05 4,-6.25 3.233,-6.417 2.767,-6.7 2.6,-7.1 2.233,-8 1.8,-8.517 1.3,-8.65 0.967,-9.217 0.734,-9.55 0.6,-9.65 0.267,-9.95 0.083,-10.033 0.05,-9.9 c -0.066,0.1 0.034,0.467 0.3,1.1 1.167,2.4 2.65,4.217 4.45,5.45 2.667,1.833 4.667,2.917 6,3.25 0.967,0.267 1.35,0.133 1.15,-0.4 z"
   id="path18"
   inkscape:connector-curvature="0" />
	</g>
</symbol>
<symbol
   id="flash0.ai_x5F_5_x2F_Layer_11_x2F__x3C_Path_x3E__x5F_19"
   viewBox="0 -0.773 1.09 0.753"
   transform="translate(105.98597,121.50255)">
	<g
   id="Layer_1_43_">
		<path
   style="clip-rule:evenodd;fill:#f1fced;fill-rule:evenodd"
   d="M 0.45,-0.1 C 0.983,0.033 1.183,0 1.05,-0.2 0.917,-0.4 0.7,-0.567 0.4,-0.7 0.167,-0.833 0.033,-0.783 0,-0.55 c 0,0.233 0.15,0.383 0.45,0.45 z"
   id="path22"
   inkscape:connector-curvature="0" />
	</g>
</symbol>
<symbol
   id="flash0.ai_x5F_5_x2F_Layer_11_x2F__x3C_Path_x3E__x5F_20"
   viewBox="-0.033 -1.004 0.74 1.032"
   transform="translate(105.98597,121.50255)">
	<g
   id="Layer_1_42_">
		<path
   style="clip-rule:evenodd;fill:#f1fced;fill-rule:evenodd"
   d="M 0.7,-0.15 C 0.733,-0.45 0.633,-0.7 0.4,-0.9 0.2,-1.067 0.067,-1.033 0,-0.8 c -0.067,0.233 -0.033,0.417 0.1,0.55 0.333,0.333 0.533,0.367 0.6,0.1 z"
   id="path26"
   inkscape:connector-curvature="0" />
	</g>
</symbol>
<symbol
   id="flash0.ai_x5F_5_x2F_Layer_11_x2F__x3C_Path_x3E__x5F_21"
   viewBox="-0.006 -0.823 0.805 0.827"
   transform="translate(105.98597,121.50255)">
	<g
   id="Layer_1_41_">
		<path
   style="clip-rule:evenodd;fill:#f1fced;fill-rule:evenodd"
   d="M 0.8,-0.2 C 0.8,-0.433 0.65,-0.617 0.35,-0.75 0.083,-0.883 -0.033,-0.833 0,-0.6 c 0.033,0.2 0.167,0.367 0.4,0.5 0.267,0.167 0.4,0.133 0.4,-0.1 z"
   id="path30"
   inkscape:connector-curvature="0" />
	</g>
</symbol>
<symbol
   id="flash0.ai_x5F_5_x2F_Layer_11_x2F__x3C_Path_x3E__x5F_22"
   viewBox="0.044 -0.68 0.657 0.73"
   transform="translate(105.98597,121.50255)">
	<g
   id="Layer_1_40_">
		<path
   style="clip-rule:evenodd;fill:#f1fced;fill-rule:evenodd"
   d="m 0.7,-0.1 c 0,-0.2 -0.117,-0.367 -0.35,-0.5 -0.233,-0.133 -0.333,-0.1 -0.3,0.1 0,0.167 0.083,0.3 0.25,0.4 0.267,0.2 0.4,0.2 0.4,0 z"
   id="path34"
   inkscape:connector-curvature="0" />
	</g>
</symbol>
<symbol
   id="flash0.ai_x5F_5_x2F_Layer_11_x2F__x3C_Path_x3E__x5F_23"
   viewBox="0 -0.629 0.65 0.659"
   transform="translate(105.98597,121.50255)">
	<g
   id="Layer_1_39_">
		<path
   style="clip-rule:evenodd;fill:#f1fced;fill-rule:evenodd"
   d="M 0.65,-0.15 C 0.65,-0.35 0.533,-0.5 0.3,-0.6 0.1,-0.667 0,-0.617 0,-0.45 c 0.033,0.2 0.133,0.333 0.3,0.4 0.233,0.133 0.35,0.1 0.35,-0.1 z"
   id="path38"
   inkscape:connector-curvature="0" />
	</g>
</symbol>
<symbol
   id="flash0.ai_x5F_5_x2F_Layer_11_x2F__x3C_Path_x3E__x5F_24"
   viewBox="0 -0.606 0.706 0.612"
   transform="translate(105.98597,121.50255)">
	<g
   id="Layer_1_38_">
		<path
   style="clip-rule:evenodd;fill:#f1fced;fill-rule:evenodd"
   d="M 0.7,-0.15 C 0.733,-0.317 0.617,-0.45 0.35,-0.55 0.117,-0.65 0,-0.617 0,-0.45 c 0.033,0.167 0.117,0.3 0.25,0.4 0.233,0.1 0.383,0.067 0.45,-0.1 z"
   id="path42"
   inkscape:connector-curvature="0" />
	</g>
</symbol>
<symbol
   id="flash0.ai_x5F_5_x2F_Layer_11_x2F__x3C_Path_x3E__x5F_25"
   viewBox="0 -0.639 0.606 0.639"
   transform="translate(105.98597,121.50255)">
	<g
   id="Layer_1_37_">
		<path
   style="clip-rule:evenodd;fill:#f1fced;fill-rule:evenodd"
   d="M 0.25,-0.1 C 0.483,0.033 0.6,0.033 0.6,-0.1 0.633,-0.267 0.533,-0.416 0.3,-0.55 0.1,-0.683 0,-0.667 0,-0.5 c 0,0.167 0.083,0.3 0.25,0.4 z"
   id="path46"
   inkscape:connector-curvature="0" />
	</g>
</symbol>
<symbol
   id="flash0.ai_x5F_5_x2F_Layer_11_x2F__x3C_Path_x3E__x5F_26"
   viewBox="0.05 -0.675 0.878 0.655"
   transform="translate(105.98597,121.50255)">
	<g
   id="Layer_1_36_">
		<path
   style="clip-rule:evenodd;fill:#f1fced;fill-rule:evenodd"
   d="M 0.4,-0.1 C 0.833,0.033 1,0 0.9,-0.2 0.8,-0.4 0.617,-0.55 0.35,-0.65 c -0.2,-0.067 -0.3,0 -0.3,0.2 0,0.2 0.117,0.317 0.35,0.35 z"
   id="path50"
   inkscape:connector-curvature="0" />
	</g>
</symbol>
<symbol
   id="flash0.ai_x5F_5_x2F_Layer_11_x2F__x3C_Path_x3E__x5F_27"
   viewBox="0 -0.891 0.834 0.93"
   transform="translate(105.98597,121.50255)">
	<g
   id="Layer_1_35_">
		<path
   style="clip-rule:evenodd;fill:#f1fced;fill-rule:evenodd"
   d="M 0.8,-0.25 C 0.9,-0.517 0.783,-0.717 0.45,-0.85 0.15,-0.95 0,-0.867 0,-0.6 c 0,0.233 0.083,0.417 0.25,0.55 0.267,0.167 0.45,0.1 0.55,-0.2 z"
   id="path54"
   inkscape:connector-curvature="0" />
	</g>
</symbol>
<symbol
   id="flash0.ai_x5F_5_x2F_Layer_11_x2F__x3C_Path_x3E__x5F_28"
   viewBox="-0.008 -0.679 0.663 0.692"
   transform="translate(105.98597,121.50255)">
	<g
   id="Layer_1_34_">
		<path
   style="clip-rule:evenodd;fill:#f1fced;fill-rule:evenodd"
   d="M 0.65,-0.15 C 0.617,-0.35 0.5,-0.517 0.3,-0.65 0.133,-0.717 0.033,-0.667 0,-0.5 c -0.033,0.2 0.033,0.333 0.2,0.4 0.333,0.167 0.483,0.15 0.45,-0.05 z"
   id="path58"
   inkscape:connector-curvature="0" />
	</g>
</symbol>
<symbol
   id="flash0.ai_x5F_5_x2F_Layer_11_x2F__x3C_Path_x3E__x5F_29"
   viewBox="0 -0.7 0.606 0.7"
   transform="translate(105.98597,121.50255)">
	<g
   id="Layer_1_33_">
		<path
   style="clip-rule:evenodd;fill:#f1fced;fill-rule:evenodd"
   d="M 0.3,-0.05 C 0.533,0.05 0.633,0 0.6,-0.2 0.567,-0.433 0.45,-0.583 0.25,-0.65 0.083,-0.75 0,-0.7 0,-0.5 c 0,0.2 0.1,0.35 0.3,0.45 z"
   id="path62"
   inkscape:connector-curvature="0" />
	</g>
</symbol>
<symbol
   id="flash0.ai_x5F_5_x2F_Layer_11_x2F__x3C_Path_x3E__x5F_30"
   viewBox="-0.018 -0.896 1.141 0.91"
   transform="translate(105.98597,121.50255)">
	<g
   id="Layer_1_32_">
		<path
   style="clip-rule:evenodd;fill:#f1fced;fill-rule:evenodd"
   d="M 1.1,-0.2 C 0.967,-0.433 0.717,-0.633 0.35,-0.8 0.05,-0.967 -0.067,-0.917 0,-0.65 c 0.1,0.267 0.233,0.433 0.4,0.5 0.567,0.233 0.8,0.217 0.7,-0.05 z"
   id="path66"
   inkscape:connector-curvature="0" />
	</g>
</symbol>
<symbol
   id="flash0.ai_x5F_5_x2F_Layer_11_x2F__x3C_Path_x3E__x5F_31"
   viewBox="0.015 -1.106 1.21 1.099"
   transform="translate(105.98597,121.50255)">
	<g
   id="Layer_1_31_">
		<path
   style="clip-rule:evenodd;fill:#f1fced;fill-rule:evenodd"
   d="M 0.6,-0.2 C 1.1,0.1 1.3,0.05 1.2,-0.35 1.067,-0.783 0.8,-1.033 0.4,-1.1 0.067,-1.133 -0.05,-1.033 0.05,-0.8 0.117,-0.567 0.3,-0.367 0.6,-0.2 Z"
   id="path70"
   inkscape:connector-curvature="0" />
	</g>
</symbol>
<symbol
   id="flash0.ai_x5F_5_x2F_Layer_11_x2F__x3C_Path_x3E__x5F_32"
   viewBox="0.011 -1.117 0.959 1.142"
   transform="translate(105.98597,121.50255)">
	<g
   id="Layer_1_30_">
		<path
   style="clip-rule:evenodd;fill:#f1fced;fill-rule:evenodd"
   d="m 0.95,-0.25 c 0.066,-0.367 -0.034,-0.633 -0.3,-0.8 -0.233,-0.133 -0.417,-0.067 -0.55,0.2 -0.133,0.267 -0.117,0.467 0.05,0.6 0.467,0.367 0.733,0.367 0.8,0 z"
   id="path74"
   inkscape:connector-curvature="0" />
	</g>
</symbol>
<symbol
   id="flash0.ai_x5F_5_x2F_Layer_11_x2F__x3C_Path_x3E__x5F_33"
   viewBox="0 -0.97 0.705 0.953"
   transform="translate(105.98597,121.50255)">
	<g
   id="Layer_1_29_">
		<path
   style="clip-rule:evenodd;fill:#f1fced;fill-rule:evenodd"
   d="M 0.3,-0.1 C 0.6,0.067 0.734,-0.017 0.7,-0.35 0.633,-0.65 0.5,-0.85 0.3,-0.95 0.1,-1.017 0,-0.917 0,-0.65 0,-0.383 0.1,-0.2 0.3,-0.1 Z"
   id="path78"
   inkscape:connector-curvature="0" />
	</g>
</symbol>
<symbol
   id="flash0.ai_x5F_5_x2F_Layer_11_x2F__x3C_Path_x3E__x5F_34"
   viewBox="-0.007 -1.087 0.811 1.074"
   transform="translate(105.98597,121.50255)">
	<g
   id="Layer_1_28_">
		<path
   style="clip-rule:evenodd;fill:#f1fced;fill-rule:evenodd"
   d="m 0.25,-0.15 c 0.4,0.233 0.583,0.167 0.55,-0.2 -0.033,-0.333 -0.167,-0.566 -0.4,-0.7 -0.233,-0.1 -0.367,0 -0.4,0.3 -0.033,0.3 0.05,0.5 0.25,0.6 z"
   id="path82"
   inkscape:connector-curvature="0" />
	</g>
</symbol>
<symbol
   id="flash0.ai_x5F_5_x2F_Layer_11_x2F__x3C_Path_x3E__x5F_35"
   viewBox="-0.006 -0.922 0.662 0.966"
   transform="translate(105.98597,121.50255)">
	<g
   id="Layer_1_27_">
		<path
   style="clip-rule:evenodd;fill:#f1fced;fill-rule:evenodd"
   d="M 0.65,-0.25 C 0.683,-0.583 0.567,-0.8 0.3,-0.9 0.067,-0.967 -0.033,-0.883 0,-0.65 c 0,0.2 0.083,0.383 0.25,0.55 0.267,0.233 0.4,0.183 0.4,-0.15 z"
   id="path86"
   inkscape:connector-curvature="0" />
	</g>
</symbol>
<symbol
   id="flash0.ai_x5F_5_x2F_Layer_11_x2F__x3C_Path_x3E__x5F_36"
   viewBox="-0.007 -0.956 0.773 0.968"
   transform="translate(105.98597,121.50255)">
	<g
   id="Layer_1_26_">
		<path
   style="clip-rule:evenodd;fill:#f1fced;fill-rule:evenodd"
   d="M 0.75,-0.3 C 0.65,-0.667 0.483,-0.883 0.25,-0.95 0.05,-0.983 -0.033,-0.867 0,-0.6 c 0.033,0.267 0.133,0.434 0.3,0.5 0.367,0.2 0.517,0.133 0.45,-0.2 z"
   id="path90"
   inkscape:connector-curvature="0" />
	</g>
</symbol>
<symbol
   id="flash0.ai_x5F_5_x2F_Layer_11_x2F__x3C_Path_x3E__x5F_37"
   viewBox="-0.004 -1.211 1.117 1.271"
   transform="translate(105.98597,121.50255)">
	<g
   id="Layer_1_25_">
		<path
   style="clip-rule:evenodd;fill:#f1fced;fill-rule:evenodd"
   d="M 1.1,-0.3 C 1.033,-0.7 0.833,-0.983 0.5,-1.15 0.2,-1.283 0.033,-1.2 0,-0.9 c -0.033,0.333 0.133,0.6 0.5,0.8 0.467,0.267 0.667,0.2 0.6,-0.2 z"
   id="path94"
   inkscape:connector-curvature="0" />
	</g>
</symbol>
<symbol
   id="flash0.ai_x5F_5_x2F_Layer_11_x2F__x3C_Path_x3E__x5F_38"
   viewBox="-0.008 -0.629 0.615 0.659"
   transform="translate(105.98597,121.50255)">
	<g
   id="Layer_1_24_">
		<path
   style="clip-rule:evenodd;fill:#f1fced;fill-rule:evenodd"
   d="M 0.6,-0.15 C 0.633,-0.383 0.55,-0.533 0.35,-0.6 0.15,-0.667 0.033,-0.617 0,-0.45 c -0.033,0.167 0.033,0.3 0.2,0.4 0.233,0.133 0.367,0.1 0.4,-0.1 z"
   id="path98"
   inkscape:connector-curvature="0" />
	</g>
</symbol>
<symbol
   id="flash0.ai_x5F_5_x2F_Layer_11_x2F__x3C_Path_x3E__x5F_39"
   viewBox="-0.007 -1.15 1.332 1.207"
   transform="translate(105.98597,121.50255)">
	<g
   id="Layer_1_23_">
		<path
   style="clip-rule:evenodd;fill:#f1fced;fill-rule:evenodd"
   d="m 1.25,-0.4 c -0.2,-0.5 -0.5,-0.75 -0.9,-0.75 -0.333,0 -0.434,0.117 -0.3,0.35 0.133,0.2 0.333,0.4 0.6,0.6 0.6,0.4 0.8,0.333 0.6,-0.2 z"
   id="path102"
   inkscape:connector-curvature="0" />
	</g>
</symbol>
<symbol
   id="flash0.ai_x5F_5_x2F_Layer_11_x2F__x3C_Path_x3E__x5F_40"
   viewBox="0.005 -1.167 0.968 1.167"
   transform="translate(105.98597,121.50255)">
	<g
   id="Layer_1_22_">
		<path
   style="clip-rule:evenodd;fill:#f1fced;fill-rule:evenodd"
   d="m 0.25,-0.1 c 0.567,0.2 0.8,0.1 0.7,-0.3 -0.067,-0.4 -0.233,-0.65 -0.5,-0.75 -0.2,-0.067 -0.333,0.066 -0.4,0.4 -0.1,0.367 -0.033,0.583 0.2,0.65 z"
   id="path106"
   inkscape:connector-curvature="0" />
	</g>
</symbol>
<symbol
   id="flash0.ai_x5F_5_x2F_Layer_11_x2F__x3C_Path_x3E__x5F_41"
   viewBox="0.01 -0.807 0.694 0.81"
   transform="translate(105.98597,121.50255)">
	<g
   id="Layer_1_21_">
		<path
   style="clip-rule:evenodd;fill:#f1fced;fill-rule:evenodd"
   d="m 0.7,-0.25 c 0,-0.3 -0.117,-0.483 -0.35,-0.55 -0.167,-0.034 -0.267,0.05 -0.3,0.25 -0.067,0.2 -0.05,0.333 0.05,0.4 0.433,0.233 0.633,0.2 0.6,-0.1 z"
   id="path110"
   inkscape:connector-curvature="0" />
	</g>
</symbol>
<symbol
   id="flash0.ai_x5F_5_x2F_Layer_11_x2F__x3C_Path_x3E__x5F_42"
   viewBox="0 -1.038 0.992 1.021"
   transform="translate(105.98597,121.50255)">
	<g
   id="Layer_1_20_">
		<path
   style="clip-rule:evenodd;fill:#f1fced;fill-rule:evenodd"
   d="M 0.4,-0.1 C 0.9,0.067 1.084,-0.017 0.95,-0.35 0.817,-0.683 0.617,-0.9 0.35,-1 0.117,-1.1 0,-1 0,-0.7 c 0.033,0.333 0.167,0.533 0.4,0.6 z"
   id="path114"
   inkscape:connector-curvature="0" />
	</g>
</symbol>
<symbol
   id="flash0.ai_x5F_5_x2F_Layer_11_x2F__x3C_Path_x3E__x5F_43"
   viewBox="-0.002 -0.861 0.769 0.905"
   transform="translate(105.98597,121.50255)">
	<g
   id="Layer_1_19_">
		<path
   style="clip-rule:evenodd;fill:#f1fced;fill-rule:evenodd"
   d="m 0.75,-0.25 c -0.033,-0.367 -0.2,-0.567 -0.5,-0.6 -0.367,-0.066 -0.333,0.184 0.1,0.75 0.333,0.233 0.467,0.183 0.4,-0.15 z"
   id="path118"
   inkscape:connector-curvature="0" />
	</g>
</symbol>
<symbol
   id="flash0.ai_x5F_5_x2F_Layer_11_x2F__x3C_Path_x3E__x5F_44"
   viewBox="0.018 -1.268 0.932 1.284"
   transform="translate(105.98597,121.50255)">
	<g
   id="Layer_1_18_">
		<path
   style="clip-rule:evenodd;fill:#f1fced;fill-rule:evenodd"
   d="m 0.95,-0.5 c 0,-0.433 -0.167,-0.683 -0.5,-0.75 -0.367,-0.067 -0.5,0.05 -0.4,0.35 0.1,0.3 0.3,0.583 0.6,0.85 0.2,0.167 0.3,0.017 0.3,-0.45 z"
   id="path122"
   inkscape:connector-curvature="0" />
	</g>
</symbol>
<symbol
   id="flash0.ai_x5F_5_x2F_Layer_11_x2F__x3C_Path_x3E__x5F_45"
   viewBox="0 -0.765 0.705 0.821"
   transform="translate(105.98597,121.50255)">
	<g
   id="Layer_1_17_">
		<path
   style="clip-rule:evenodd;fill:#f1fced;fill-rule:evenodd"
   d="M 0.7,-0.3 C 0.667,-0.667 0.533,-0.817 0.3,-0.75 0.1,-0.717 0,-0.617 0,-0.45 c 0.033,0.167 0.133,0.3 0.3,0.4 0.3,0.2 0.433,0.117 0.4,-0.25 z"
   id="path126"
   inkscape:connector-curvature="0" />
	</g>
</symbol>
<symbol
   id="flash0.ai_x5F_5_x2F_Layer_11_x2F__x3C_Path_x3E__x5F_46"
   viewBox="0.01 -0.956 0.996 0.973"
   transform="translate(105.98597,121.50255)">
	<g
   id="Layer_1_16_">
		<path
   style="clip-rule:evenodd;fill:#f1fced;fill-rule:evenodd"
   d="m 0.1,-0.8 c -0.1,0.133 -0.117,0.283 -0.05,0.45 0.034,0.133 0.1,0.233 0.2,0.3 C 0.383,0.017 0.533,0.033 0.7,0 0.9,-0.067 1,-0.2 1,-0.4 1.033,-0.6 0.933,-0.767 0.7,-0.9 0.467,-1 0.267,-0.967 0.1,-0.8 Z"
   id="path130"
   inkscape:connector-curvature="0" />
	</g>
</symbol>
<symbol
   id="flash0.ai_x5F_5_x2F_Layer_11_x2F__x3C_Path_x3E__x5F_47"
   viewBox="-0.02 -1.156 1.426 1.178"
   transform="translate(105.98597,121.50255)">
	<g
   id="Layer_1_15_">
		<path
   style="clip-rule:evenodd;fill:#f1fced;fill-rule:evenodd"
   d="M 0.95,0 C 1.217,-0.067 1.367,-0.183 1.4,-0.35 1.433,-0.483 1.334,-0.65 1.1,-0.85 0.833,-1.05 0.567,-1.15 0.3,-1.15 0.033,-1.183 -0.067,-1.083 0,-0.85 0.033,-0.817 0.133,-0.617 0.3,-0.25 0.4,-0.017 0.617,0.067 0.95,0 Z"
   id="path134"
   inkscape:connector-curvature="0" />
	</g>
</symbol>
<symbol
   id="flash0.ai_x5F_5_x2F_Layer_11_x2F__x3C_Path_x3E__x5F_48"
   viewBox="-0.005 -1.054 0.873 1.05"
   transform="translate(105.98597,121.50255)">
	<g
   id="Layer_1_14_">
		<path
   style="clip-rule:evenodd;fill:#f1fced;fill-rule:evenodd"
   d="M 0.4,-0.1 C 0.633,0.067 0.783,0.017 0.85,-0.25 0.916,-0.55 0.8,-0.783 0.5,-0.95 0.233,-1.117 0.067,-1.083 0,-0.85 c -0.033,0.267 0.1,0.517 0.4,0.75 z"
   id="path138"
   inkscape:connector-curvature="0" />
	</g>
</symbol>
<symbol
   id="flash0.ai_x5F_5_x2F_Layer_11_x2F__x3C_Path_x3E__x5F_49"
   viewBox="-0.014 -1.017 0.814 0.992"
   transform="translate(105.98597,121.50255)">
	<g
   id="Layer_1_13_">
		<path
   style="clip-rule:evenodd;fill:#f1fced;fill-rule:evenodd"
   d="m 0.1,-0.25 c 0.433,0.3 0.667,0.3 0.7,0 0,-0.3 -0.117,-0.533 -0.35,-0.7 -0.2,-0.133 -0.333,-0.066 -0.4,0.2 -0.1,0.233 -0.083,0.4 0.05,0.5 z"
   id="path142"
   inkscape:connector-curvature="0" />
	</g>
</symbol>
<symbol
   id="flash0.ai_x5F_5_x2F_Layer_11_x2F__x3C_Path_x3E__x5F_50"
   viewBox="0.01 -0.972 1 0.975"
   transform="translate(105.98597,121.50255)">
	<g
   id="Layer_1_12_">
		<path
   style="clip-rule:evenodd;fill:#f1fced;fill-rule:evenodd"
   d="M 0.95,-0.15 C 1.117,-0.483 0.933,-0.75 0.4,-0.95 0.233,-1.017 0.117,-0.933 0.05,-0.7 -0.017,-0.5 0,-0.35 0.1,-0.25 c 0.467,0.3 0.75,0.333 0.85,0.1 z"
   id="path146"
   inkscape:connector-curvature="0" />
	</g>
</symbol>
<symbol
   id="flash0.ai_x5F_5_x2F_Layer_11_x2F__x3C_Path_x3E__x5F_51"
   viewBox="0.044 -0.66 0.706 0.656"
   transform="translate(105.98597,121.50255)">
	<g
   id="Layer_1_11_">
		<path
   style="clip-rule:evenodd;fill:#f1fced;fill-rule:evenodd"
   d="m 0.3,-0.1 c 0.3,0.167 0.45,0.117 0.45,-0.15 0,-0.233 -0.133,-0.367 -0.4,-0.4 -0.233,-0.033 -0.333,0.017 -0.3,0.15 0,0.167 0.083,0.3 0.25,0.4 z"
   id="path150"
   inkscape:connector-curvature="0" />
	</g>
</symbol>
<symbol
   id="flash0.ai_x5F_5_x2F_Layer_11_x2F__x3C_Path_x3E__x5F_52"
   viewBox="-0.02 -0.75 0.729 0.788"
   transform="translate(105.98597,121.50255)">
	<g
   id="Layer_1_10_">
		<path
   style="clip-rule:evenodd;fill:#f1fced;fill-rule:evenodd"
   d="m 0.7,-0.3 c 0,-0.3 -0.133,-0.45 -0.4,-0.45 -0.267,0 -0.367,0.083 -0.3,0.25 0.067,0.167 0.233,0.333 0.5,0.5 0.167,0.1 0.233,0 0.2,-0.3 z"
   id="path154"
   inkscape:connector-curvature="0" />
	</g>
</symbol>
<symbol
   id="flash0.ai_x5F_5_x2F_Layer_11_x2F__x3C_Path_x3E__x5F_53"
   viewBox="0.032 -1.206 1.084 1.25"
   transform="translate(105.98597,121.50255)">
	<g
   id="Layer_1_9_">
		<path
   style="clip-rule:evenodd;fill:#f1fced;fill-rule:evenodd"
   d="M 1.1,-0.25 C 1.167,-0.583 1.017,-0.867 0.65,-1.1 0.317,-1.3 0.117,-1.217 0.05,-0.85 -0.017,-0.517 0.1,-0.267 0.4,-0.1 0.767,0.133 1,0.083 1.1,-0.25 Z"
   id="path158"
   inkscape:connector-curvature="0" />
	</g>
</symbol>
<symbol
   id="flash0.ai_x5F_5_x2F_Layer_11_x2F__x3C_Path_x3E__x5F_54"
   viewBox="-0.014 -0.804 0.971 0.829"
   transform="translate(105.98597,121.50255)">
	<g
   id="Layer_1_8_">
		<path
   style="clip-rule:evenodd;fill:#f1fced;fill-rule:evenodd"
   d="M 0.9,-0.1 C 1.033,-0.3 0.933,-0.5 0.6,-0.7 0.3,-0.867 0.117,-0.833 0.05,-0.6 c -0.1,0.267 -0.083,0.434 0.05,0.5 0.367,0.167 0.633,0.167 0.8,0 z"
   id="path162"
   inkscape:connector-curvature="0" />
	</g>
</symbol>
<symbol
   id="flash0.ai_x5F_5_x2F_Layer_11_x2F__x3C_Path_x3E__x5F_55"
   viewBox="0.03 -0.757 0.77 0.796"
   transform="translate(105.98597,121.50255)">
	<g
   id="Layer_1_7_">
		<path
   style="clip-rule:evenodd;fill:#f1fced;fill-rule:evenodd"
   d="m 0.8,-0.25 c 0,-0.333 -0.15,-0.5 -0.45,-0.5 -0.267,-0.033 -0.367,0.05 -0.3,0.25 0.033,0.167 0.15,0.317 0.35,0.45 0.267,0.167 0.4,0.1 0.4,-0.2 z"
   id="path166"
   inkscape:connector-curvature="0" />
	</g>
</symbol>
<symbol
   id="flash0.ai_x5F_5_x2F_Layer_11_x2F__x3C_Path_x3E__x5F_56"
   viewBox="-0.023 -1.156 1.01 1.2"
   transform="translate(105.98597,121.50255)">
	<g
   id="Layer_1_6_">
		<path
   style="clip-rule:evenodd;fill:#f1fced;fill-rule:evenodd"
   d="m 0.95,-0.25 c 0.1,-0.333 0,-0.6 -0.3,-0.8 -0.3,-0.2 -0.5,-0.117 -0.6,0.25 -0.133,0.333 -0.083,0.567 0.15,0.7 0.367,0.233 0.617,0.183 0.75,-0.15 z"
   id="path170"
   inkscape:connector-curvature="0" />
	</g>
</symbol>
<symbol
   id="flash0.ai_x5F_5_x2F_Layer_11_x2F__x3C_Path_x3E__x5F_57"
   viewBox="-0.006 -0.991 0.911 0.98"
   transform="translate(105.98597,121.50255)">
	<g
   id="Layer_1_5_">
		<path
   style="clip-rule:evenodd;fill:#f1fced;fill-rule:evenodd"
   d="M 0.3,-0.1 C 0.7,0.067 0.9,0 0.9,-0.3 0.933,-0.6 0.783,-0.817 0.45,-0.95 0.183,-1.05 0.033,-0.967 0,-0.7 c -0.033,0.267 0.067,0.467 0.3,0.6 z"
   id="path174"
   inkscape:connector-curvature="0" />
	</g>
</symbol>
<symbol
   id="flash0.ai_x5F_5_x2F_Layer_11_x2F__x3C_Path_x3E__x5F_65"
   viewBox="0 -11.9 14.575 11.909"
   transform="translate(105.98597,121.50255)">
	<g
   id="Layer_1_4_">
		<path
   style="clip-rule:evenodd;fill:#5c5c5c;fill-rule:evenodd"
   d="m 13.95,-2.45 c 1.167,-1.7 0.7,-3.25 -1.4,-4.65 C 10.917,-8.2 8.967,-8.85 6.7,-9.05 5.533,-9.183 4.233,-9.3 2.8,-9.4 2,-9.733 1.617,-10.1 1.65,-10.5 c 0,-0.267 0.267,-0.733 0.8,-1.4 l -2.45,1.2 0.15,1.45 4.2,7.35 c 0.2,0.333 0.533,0.667 1,1 1,0.667 2.267,0.967 3.8,0.9 2.1,-0.1 3.7,-0.917 4.8,-2.45 z"
   id="path178"
   inkscape:connector-curvature="0" />
	</g>
</symbol>
<symbol
   id="flash0.ai_x5F_5_x2F_Layer_11_x2F__x3C_Path_x3E__x5F_83"
   viewBox="0.023 -33.05 41.026 33.05"
   transform="translate(105.98597,121.50255)">
	<g
   id="Layer_1_3_">
		<path
   style="clip-rule:evenodd;fill-rule:evenodd"
   d="M 40.55,-0.35 41.05,0 C 40.95,-0.367 40.7,-0.783 40.3,-1.25 39.533,-2.217 38.484,-2.933 37.15,-3.4 36.217,-3.733 35.167,-3.917 34,-3.95 c -1.367,-0.066 -2.067,-0.1 -2.1,-0.1 -0.367,-0.067 -0.583,-0.267 -0.65,-0.6 -0.1,-0.767 -0.683,-2.684 -1.75,-5.75 -1.2,-3.367 -2.25,-5.917 -3.15,-7.65 -1.067,-2.1 -2.75,-4.233 -5.05,-6.4 -2.367,-2.2 -4.95,-4.033 -7.75,-5.5 -3.8,-2.066 -7.066,-3.1 -9.8,-3.1 -1.367,0 -2.417,0.117 -3.15,0.35 -0.467,0.833 -0.65,1.4 -0.55,1.7 0.2,0.467 1,0.783 2.4,0.95 1.167,0.1 2.767,0.05 4.8,-0.15 2.133,0.2 4.817,1.5 8.05,3.9 3.967,2.966 6.8,5.5 8.5,7.6 1.4,1.767 2.733,4.25 4,7.45 0.767,2 1.467,3.917 2.1,5.75 0.333,0.867 0.7,1.45 1.1,1.75 0.333,0.267 0.733,0.4 1.2,0.4 0.733,0 1.5,0.1 2.3,0.3 1.333,0.333 2.9,1.283 4.7,2.85 0.733,-0.233 1.183,-0.283 1.35,-0.15 z"
   id="path182"
   inkscape:connector-curvature="0" />
	</g>
</symbol>
<symbol
   id="flash0.ai_x5F_5_x2F_Layer_11_x2F__x3C_Path_x3E__x5F_84"
   viewBox="0 -29.788 34.95 29.779"
   transform="translate(105.98597,121.50255)">
	<g
   id="Layer_1_2_">
		<path
   style="clip-rule:evenodd;fill-rule:evenodd"
   d="m 34.45,-0.3 0.5,-0.35 c -1,0 -1.667,-0.017 -2,-0.05 -0.534,-0.066 -0.833,-0.283 -0.9,-0.65 -0.1,-0.767 -0.683,-2.683 -1.75,-5.75 -1.2,-3.367 -2.25,-5.917 -3.15,-7.65 -1.066,-2.1 -2.75,-4.233 -5.05,-6.4 -2.367,-2.2 -4.95,-4.033 -7.75,-5.5 -3.434,-1.867 -6.7,-2.9 -9.8,-3.1 -1.133,-0.1 -2.066,0 -2.8,0.3 -0.133,0.067 -0.717,0.434 -1.75,1.1 0.033,0.133 0.35,0.467 0.95,1 l 0.9,0.75 c -0.133,-1.133 0.7,-1.85 2.5,-2.15 2.033,-0.367 4.533,0.117 7.5,1.45 3.3,1.466 6.316,3.45 9.05,5.95 3.1,2.833 5.5,6.067 7.2,9.7 1.4,3 2.367,5.75 2.9,8.25 0.4,1.867 0.667,2.85 0.8,2.95 0.633,0.533 1.517,0.583 2.65,0.15 z"
   id="path186"
   inkscape:connector-curvature="0" />
	</g>
</symbol>
<linearGradient
   id="SVGID_1_"
   gradientUnits="userSpaceOnUse"
   x1="-9.8687"
   y1="26.7344"
   x2="-8.2685003"
   y2="26.7344"
   gradientTransform="matrix(-0.0156,-0.9999,0.9999,-0.0156,-1.137732e-4,7.859021e-4)">
	<stop
   offset="0"
   style="stop-color:#3B3B3B"
   id="stop190" />
	<stop
   offset="1"
   style="stop-color:#919191"
   id="stop192" />
</linearGradient>

<linearGradient
   id="SVGID_2_"
   gradientUnits="userSpaceOnUse"
   x1="-9.9823999"
   y1="18.586901"
   x2="-3.9412999"
   y2="18.586901"
   gradientTransform="matrix(0.509,-0.8608,0.8608,0.509,-9.143353e-5,2.325773e-4)">
	<stop
   offset="0"
   style="stop-color:#454545"
   id="stop197" />
	<stop
   offset="1"
   style="stop-color:#BABABA"
   id="stop199" />
</linearGradient>

<linearGradient
   id="SVGID_3_"
   gradientUnits="userSpaceOnUse"
   x1="-39.361801"
   y1="1.6875"
   x2="-20.596701"
   y2="1.6875"
   gradientTransform="matrix(-0.6848,-0.7287,0.7287,-0.6848,1.648664e-4,-4.149079e-4)">
	<stop
   offset="0"
   style="stop-color:#CF8D8D"
   id="stop204" />
	<stop
   offset="0.1765"
   style="stop-color:#CA9E9E"
   id="stop206" />
	<stop
   offset="0.4314"
   style="stop-color:#C4B0B0"
   id="stop208" />
	<stop
   offset="0.702"
   style="stop-color:#C0BBBB"
   id="stop210" />
	<stop
   offset="1"
   style="stop-color:#BFBFBF"
   id="stop212" />
</linearGradient>



















<linearGradient
   id="SVGID_4_"
   gradientUnits="userSpaceOnUse"
   x1="23.9849"
   y1="23.409201"
   x2="34.078701"
   y2="23.409201"
   gradientTransform="matrix(0.8495,-0.5275,0.5275,0.8495,3.405809e-4,-2.055168e-4)">
	<stop
   offset="0"
   style="stop-color:#424242"
   id="stop253" />
	<stop
   offset="1"
   style="stop-color:#D1D1D1"
   id="stop255" />
</linearGradient>



<linearGradient
   id="SVGID_5_"
   gradientUnits="userSpaceOnUse"
   x1="1.6684999"
   y1="33.5928"
   x2="13.4817"
   y2="33.5928"
   gradientTransform="matrix(0.9968,-0.0804,0.0804,0.9968,7.531047e-5,-1.822412e-5)">
	<stop
   offset="0"
   style="stop-color:#878787"
   id="stop266" />
	<stop
   offset="0"
   style="stop-color:#878787"
   id="stop268" />
	<stop
   offset="0.1882"
   style="stop-color:#A8A8A8"
   id="stop270" />
	<stop
   offset="0.3765"
   style="stop-color:#C2C2C2"
   id="stop272" />
	<stop
   offset="0.5725"
   style="stop-color:#D4D4D4"
   id="stop274" />
	<stop
   offset="0.7765"
   style="stop-color:#DFDFDF"
   id="stop276" />
	<stop
   offset="1"
   style="stop-color:#E3E3E3"
   id="stop278" />
</linearGradient>


<linearGradient
   id="SVGID_6_"
   gradientUnits="userSpaceOnUse"
   x1="-2.1382"
   y1="32.820301"
   x2="2.6745999"
   y2="32.820301"
   gradientTransform="matrix(0.9869,-0.161,0.161,0.9869,4.027486e-4,-9.888411e-5)">
	<stop
   offset="0"
   style="stop-color:#878787"
   id="stop285" />
	<stop
   offset="0"
   style="stop-color:#878787"
   id="stop287" />
	<stop
   offset="0.1882"
   style="stop-color:#A8A8A8"
   id="stop289" />
	<stop
   offset="0.3765"
   style="stop-color:#C2C2C2"
   id="stop291" />
	<stop
   offset="0.5725"
   style="stop-color:#D4D4D4"
   id="stop293" />
	<stop
   offset="0.7765"
   style="stop-color:#DFDFDF"
   id="stop295" />
	<stop
   offset="1"
   style="stop-color:#E3E3E3"
   id="stop297" />
</linearGradient>





















































<linearGradient
   id="SVGID_7_"
   gradientUnits="userSpaceOnUse"
   x1="-11.6797"
   y1="33.2715"
   x2="-4.4288001"
   y2="33.2715"
   gradientTransform="matrix(0.6516,-0.7585,0.7585,0.6516,-1.800656e-4,3.02434e-4)">
	<stop
   offset="0"
   style="stop-color:#3D3D3D"
   id="stop406" />
	<stop
   offset="1"
   style="stop-color:#C7C7C7"
   id="stop408" />
</linearGradient>









<linearGradient
   id="SVGID_8_"
   gradientUnits="userSpaceOnUse"
   x1="19.290001"
   y1="28.4473"
   x2="24.208401"
   y2="28.4473"
   gradientTransform="matrix(0.8489,-0.5286,0.5286,0.8489,-7.259846e-5,-1.23322e-4)">
	<stop
   offset="0"
   style="stop-color:#3B3B3B"
   id="stop429" />
	<stop
   offset="1"
   style="stop-color:#A1A1A1"
   id="stop431" />
</linearGradient>
<g
   id="g1170"
   transform="matrix(5.8616093,0,0,5.8616093,-1.0374527,13.103999)"><path
     id="path195"
     d="m 23.8,10.5 c 0.233,-0.333 0.667,-0.717 1.3,-1.15 0.667,-0.467 1.233,-0.75 1.7,-0.85 0.767,-0.2 1.05,-0.2 0.85,0 l -0.1,0.1 0.25,-0.2 c 0.2,-0.167 0.4,-0.25 0.6,-0.25 0.3,0 0.35,0.083 0.15,0.25 l 0.5,-0.15 c 0.333,-0.1 0.534,-0.117 0.6,-0.05 0.167,0.1 0.133,0.2 -0.1,0.3 0.434,-0.033 0.534,0.033 0.3,0.2 -0.267,0.2 -2.267,0.85 -6,1.95 z"
     style="clip-rule:evenodd;fill:url(#SVGID_1_);fill-rule:evenodd"
     inkscape:connector-curvature="0" /><path
     id="path202"
     d="m 9.9,16.55 c 0.2,-0.466 0.5,-0.966 0.9,-1.5 0.4,-0.5 0.733,-0.833 1,-1 0.367,-0.267 0.55,-0.267 0.55,0 v 0.15 l 0.25,-0.1 c 0.167,-0.033 0.316,0 0.45,0.1 l 0.25,0.2 0.3,-0.15 c 0.233,-0.067 0.383,-0.083 0.45,-0.05 l 0.2,0.1 c 0.867,-0.2 1.1,-0.167 0.7,0.1 -0.434,0.233 -1.15,0.783 -2.15,1.65 -1.2,0.934 -1.883,1.583 -2.05,1.95 -0.833,1.667 -1.25,2.3 -1.25,1.9 -0.133,-1.3 0,-2.417 0.4,-3.35 z"
     style="clip-rule:evenodd;fill:url(#SVGID_2_);fill-rule:evenodd"
     inkscape:connector-curvature="0" /><path
     id="path215"
     d="m 43.1,7.15 c -0.767,0.967 -1.816,1.684 -3.149,2.15 -1.034,0.367 -2.383,0.55 -4.05,0.55 -1.167,0.033 -1.783,0.267 -1.85,0.7 -0.1,0.767 -0.683,2.684 -1.75,5.75 -1.2,3.367 -2.25,5.917 -3.15,7.65 -1.066,2.1 -2.75,4.233 -5.05,6.399 -2.367,2.2 -4.95,4.034 -7.75,5.5 -3.8,2.067 -7.067,3.101 -9.8,3.101 -2.066,0 -3.6,-0.351 -4.6,-1.05 -0.333,-0.267 -0.35,-0.834 -0.05,-1.7 0.567,-1.233 1.017,-2.3 1.35,-3.2 2.533,-6.233 4.567,-10.634 6.1,-13.2 2.3,-3.767 6.45,-6.65 12.45,-8.65 0.633,-0.2 2.934,-0.883 6.9,-2.05 1.7,-0.5 2.75,-0.967 3.15,-1.4 0.4,-0.4 0.45,-0.917 0.15,-1.55 -0.467,-0.933 -0.683,-1.667 -0.65,-2.2 0.066,-1.3 0.767,-2.617 2.1,-3.95 l 1.05,1.7 c 0.767,1.233 1.367,2 1.8,2.3 0.067,0.033 0.417,0.333 1.05,0.9 0.3,0.267 0.733,0.417 1.3,0.45 0.467,0 1.367,0.2 2.7,0.6 1.167,0.333 1.834,0.433 2,0.3 l 0.5,-0.35 C 43.75,6.267 43.5,6.683 43.1,7.15 Z"
     style="clip-rule:evenodd;fill:url(#SVGID_3_);fill-rule:evenodd"
     inkscape:connector-curvature="0" /><use
     id="use217"
     style="overflow:visible;opacity:0.30080004;enable-background:new"
     transform="matrix(1,0,0,-1,-103.98597,130.70275)"
     y="-29.788"
     height="29.778999"
     width="34.950001"
     xlink:href="#flash0.ai_x5F_5_x2F_Layer_11_x2F__x3C_Path_x3E__x5F_84"
     x="0" /><use
     id="use219"
     style="overflow:visible;opacity:0.17190001;enable-background:new"
     transform="matrix(1,0,0,-1,-103.18617,127.40245)"
     y="-33.049999"
     x="0.023"
     height="33.049999"
     width="41.026001"
     xlink:href="#flash0.ai_x5F_5_x2F_Layer_11_x2F__x3C_Path_x3E__x5F_83" /><path
     id="path221"
     d="M 5.45,27.5 2.5,36 C 2.2,36.767 2.833,37.783 4.4,39.05 4.167,39.15 3.85,39.2 3.45,39.2 2.617,39.233 1.8,38.983 1,38.45 0.2,37.95 -0.017,37.134 0.35,36 c 0.1,-0.366 0.633,-1.45 1.6,-3.25 0.3,-0.533 0.917,-1.434 1.85,-2.7 0.867,-1.133 1.417,-1.984 1.65,-2.55 z"
     style="clip-rule:evenodd;fill:#595959;fill-rule:evenodd"
     inkscape:connector-curvature="0" /><path
     id="path223"
     d="m 32.75,8.7 c -0.067,0.133 -1.467,0.716 -4.2,1.75 -3.367,1.233 -6.816,3.25 -10.35,6.05 -3,2.4 -5.25,4.733 -6.75,7 C 10.583,24.833 9.033,27.233 6.8,30.7 5.5,32.467 4.517,33.533 3.85,33.9 3.45,34.134 3,34.25 2.5,34.25 L 3.1,32.9 C 5.367,27.033 7.4,22.633 9.2,19.7 11.467,15.9 15.6,13.016 21.6,11.05 22.133,10.883 24.45,10.2 28.55,9 30.217,8.5 31.267,8.033 31.7,7.6 32,7.267 32.1,6.917 32,6.55 32,6.484 31.833,6.084 31.5,5.35 c 0.767,0.467 1.25,1 1.45,1.6 0.233,0.6 0.167,1.183 -0.2,1.75 z"
     style="clip-rule:evenodd;fill:#595959;fill-rule:evenodd"
     inkscape:connector-curvature="0" /><path
     id="path225"
     d="m 32.4,7.8 c 0.067,0.1 0.05,0.267 -0.05,0.5 -0.067,0.267 -0.233,0.517 -0.5,0.75 -2.667,1 -4.35,1.667 -5.05,2 -2.8,1.333 -5.667,3.15 -8.6,5.45 -2.733,2.2 -4.784,4.25 -6.15,6.15 -0.833,1.166 -2.017,3.05 -3.55,5.649 -1.1,0.634 -2.183,0.983 -3.25,1.05 0.2,-0.333 0.733,-1.533 1.6,-3.6 0.833,-2 1.717,-3.783 2.65,-5.35 1.133,-1.867 2.467,-3.4 4,-4.601 1.233,-0.933 2.967,-1.9 5.2,-2.9 1.566,-0.733 3.633,-1.467 6.2,-2.2 3.133,-0.9 4.733,-1.367 4.8,-1.4 0.8,-0.267 1.5,-0.633 2.1,-1.1 C 32.167,7.9 32.367,7.767 32.4,7.8 Z"
     style="clip-rule:evenodd;fill:#969696;fill-rule:evenodd"
     inkscape:connector-curvature="0" /><path
     id="path227"
     d="m 6.95,26.75 c 0.6,-0.467 0.883,-0.417 0.85,0.15 0,0.533 -0.183,0.966 -0.55,1.3 C 6.917,28.467 6.7,28.35 6.6,27.85 6.5,27.384 6.617,27.017 6.95,26.75 Z"
     style="clip-rule:evenodd;fill:#737373;fill-rule:evenodd"
     inkscape:connector-curvature="0" /><path
     id="path229"
     d="m 8.9,23.75 c 0.233,-0.2 0.45,-0.267 0.65,-0.2 0.2,0.066 0.233,0.25 0.1,0.55 -0.4,1 -0.816,1.483 -1.25,1.45 C 8.133,25.55 8.084,25.3 8.25,24.8 8.383,24.333 8.6,23.983 8.9,23.75 Z"
     style="clip-rule:evenodd;fill:#737373;fill-rule:evenodd"
     inkscape:connector-curvature="0" /><path
     id="path231"
     d="m 8.35,26.75 c 0.5,-0.566 0.733,-0.6 0.7,-0.1 -0.066,0.5 -0.233,0.916 -0.5,1.25 -0.233,0.233 -0.367,0.149 -0.4,-0.25 -0.067,-0.367 0,-0.667 0.2,-0.9 z"
     style="clip-rule:evenodd;fill:#737373;fill-rule:evenodd"
     inkscape:connector-curvature="0" /><path
     id="path233"
     d="m 8.85,22.95 c -0.4,0.166 -0.317,-0.3 0.25,-1.4 0.267,-0.633 0.867,-1.383 1.8,-2.25 0.934,-0.9 1.633,-1.383 2.1,-1.45 0.4,-0.033 0.5,0.117 0.3,0.45 -0.2,0.3 -0.45,0.534 -0.75,0.7 -0.133,0.1 -0.267,0.3 -0.4,0.6 -0.133,0.333 -0.3,0.617 -0.5,0.85 L 10.4,21.9 c -0.367,0.4 -0.883,0.75 -1.55,1.05 z"
     style="clip-rule:evenodd;fill:#737373;fill-rule:evenodd"
     inkscape:connector-curvature="0" /><path
     id="path235"
     d="m 10.65,22.4 c 0.367,-0.467 0.55,-0.434 0.55,0.1 0,0.467 -0.233,0.8 -0.7,1 -0.4,0.167 -0.55,0.116 -0.45,-0.15 0.067,-0.133 0.267,-0.45 0.6,-0.95 z"
     style="clip-rule:evenodd;fill:#737373;fill-rule:evenodd"
     inkscape:connector-curvature="0" /><path
     id="path237"
     d="m 17.65,15.05 c 0.5,-0.3 0.867,-0.383 1.1,-0.25 0.2,0.1 0.05,0.284 -0.45,0.55 -0.833,0.5 -1.433,0.883 -1.8,1.15 -0.467,0.4 -0.817,0.767 -1.05,1.1 -0.333,0.5 -0.65,0.9 -0.95,1.2 -0.5,0.534 -0.8,0.517 -0.9,-0.05 -0.133,-0.567 -0.05,-0.967 0.25,-1.2 1.433,-1.3 2.367,-1.95 2.8,-1.95 0.1,0 0.433,-0.183 1,-0.55 z"
     style="clip-rule:evenodd;fill:#737373;fill-rule:evenodd"
     inkscape:connector-curvature="0" /><path
     id="path239"
     d="m 16.25,14.55 c 0.567,-0.333 0.967,-0.45 1.2,-0.35 0.233,0.1 0.083,0.316 -0.45,0.65 -0.5,0.3 -0.817,0.367 -0.95,0.2 -0.133,-0.167 -0.067,-0.333 0.2,-0.5 z"
     style="clip-rule:evenodd;fill:#737373;fill-rule:evenodd"
     inkscape:connector-curvature="0" /><path
     id="path241"
     d="m 12.8,19.8 c 0.667,-0.5 0.917,-0.483 0.75,0.05 -0.2,0.534 -0.517,0.917 -0.95,1.15 -0.367,0.2 -0.533,0.134 -0.5,-0.2 0.033,-0.366 0.267,-0.7 0.7,-1 z"
     style="clip-rule:evenodd;fill:#737373;fill-rule:evenodd"
     inkscape:connector-curvature="0" /><path
     id="path243"
     d="m 20.1,12.85 c 1.033,-0.4 1.55,-0.467 1.55,-0.2 0,0.167 -0.117,0.467 -0.35,0.9 -0.033,0.333 -0.667,0.55 -1.9,0.65 -0.533,0.066 -0.717,-0.083 -0.55,-0.45 0.2,-0.333 0.617,-0.633 1.25,-0.9 z"
     style="clip-rule:evenodd;fill:#737373;fill-rule:evenodd"
     inkscape:connector-curvature="0" /><path
     id="path245"
     d="m 23.15,12.05 c 0.633,-0.167 0.8,-0.083 0.5,0.25 -0.267,0.333 -0.683,0.517 -1.25,0.55 -0.533,0.033 -0.65,-0.067 -0.35,-0.3 0.3,-0.2 0.667,-0.367 1.1,-0.5 z"
     style="clip-rule:evenodd;fill:#737373;fill-rule:evenodd"
     inkscape:connector-curvature="0" /><path
     id="path247"
     d="m 24.45,10.9 c 0.566,-0.167 0.8,-0.1 0.7,0.2 -0.066,0.3 -0.3,0.483 -0.7,0.55 -0.3,0.067 -0.434,-0.017 -0.4,-0.25 0.033,-0.267 0.167,-0.433 0.4,-0.5 z"
     style="clip-rule:evenodd;fill:#737373;fill-rule:evenodd"
     inkscape:connector-curvature="0" /><path
     id="path249"
     d="m 26.4,10.3 c 0.867,-0.233 1.167,-0.216 0.9,0.05 -0.267,0.267 -0.633,0.433 -1.1,0.5 -0.367,0.033 -0.5,-0.033 -0.4,-0.2 0.1,-0.167 0.3,-0.283 0.6,-0.35 z"
     style="clip-rule:evenodd;fill:#737373;fill-rule:evenodd"
     inkscape:connector-curvature="0" /><path
     id="path251"
     d="m 30.8,8.6 c 0.4,-0.133 0.617,-0.133 0.65,0 C 31.483,8.7 31.367,8.8 31.1,8.9 30.867,9 30.7,9 30.6,8.9 30.5,8.8 30.567,8.7 30.8,8.6 Z"
     style="clip-rule:evenodd;fill:#737373;fill-rule:evenodd"
     inkscape:connector-curvature="0" /><path
     id="path258"
     d="m 41.35,5.95 c 1.167,0.333 1.834,0.433 2,0.3 L 43.85,5.9 C 43.75,6.267 43.5,6.683 43.1,7.15 42.333,8.117 41.284,8.834 39.951,9.3 39.051,9.6 37.618,9.8 35.651,9.9 35.917,9.267 36,8.733 35.9,8.3 35.467,6 34.367,4.883 32.6,4.95 32.4,4.95 32.166,5.067 31.9,5.3 L 31.65,5.5 C 31.35,5.033 31.2,4.617 31.2,4.25 31.2,3.083 31.583,2.033 32.35,1.1 32.717,0.6 33.083,0.233 33.45,0 l 1.05,1.7 c 0.767,1.233 1.367,2 1.8,2.3 0.067,0.033 0.417,0.333 1.05,0.9 0.3,0.267 0.733,0.417 1.3,0.45 0.467,0 1.367,0.2 2.7,0.6 z"
     style="clip-rule:evenodd;fill:url(#SVGID_4_);fill-rule:evenodd"
     inkscape:connector-curvature="0" /><g
     id="g262">
	<path
   inkscape:connector-curvature="0"
   id="path260"
   d="M 42.3,7.5 C 42.967,7 43.484,6.467 43.85,5.9 43.75,6.267 43.5,6.683 43.1,7.15 42.333,8.117 41.284,8.834 39.951,9.3 39.051,9.6 37.618,9.8 35.651,9.9 35.917,9.267 36,8.733 35.9,8.3 35.467,6 34.367,4.883 32.6,4.95 32.433,4.95 32.3,5 32.2,5.1 31.766,3.9 31.766,2.883 32.2,2.05 l 0.45,-0.9 C 32.55,1.383 32.467,1.667 32.4,2 32.233,2.633 32.2,3.133 32.3,3.5 l 0.2,0.9 c 0.367,0.4 0.667,0.383 0.9,-0.05 0.267,-0.5 0.517,-1.133 0.75,-1.9 l -0.1,0.7 C 33.983,3.65 34,4 34.1,4.2 c 0.1,0.167 0.15,0.333 0.15,0.5 0.067,0.066 0.217,0 0.45,-0.2 l 0.75,-0.35 c -0.3,0.233 -0.417,0.567 -0.35,1 0.066,0.434 0.217,0.717 0.45,0.85 0.233,0.133 0.467,0.083 0.7,-0.15 L 37,5.1 C 37,5.633 36.867,6 36.6,6.2 l -0.85,0.6 0.15,0.5 c 0.167,0.267 0.5,0.267 1,0 0.8,-0.4 1.533,-0.983 2.2,-1.75 -0.067,0.233 -0.3,0.65 -0.7,1.25 -0.233,0.367 -0.65,0.733 -1.25,1.1 l -0.8,0.4 0.2,0.1 c 0.233,0.033 0.667,-0.017 1.3,-0.15 1.2,-0.233 2.183,-0.8 2.95,-1.7 l 0.3,-0.3 c 0.034,0.4 -0.45,0.967 -1.45,1.7 -0.633,0.466 -1.3,0.816 -2,1.05 l -0.8,0.2 0.45,0.15 C 37.767,9.416 38.433,9.3 39.3,9 40.3,8.667 40.9,8.45 41.1,8.35 41.233,8.283 41.634,8 42.3,7.5 Z"
   style="clip-rule:evenodd;fill:#454545;fill-rule:evenodd" />
</g><use
     id="use264"
     style="overflow:visible;opacity:0.60939995;enable-background:new"
     transform="matrix(1,0,0,-1,-103.93617,148.80235)"
     y="-11.9"
     height="11.909"
     width="14.575"
     xlink:href="#flash0.ai_x5F_5_x2F_Layer_11_x2F__x3C_Path_x3E__x5F_65"
     x="0" /><path
     id="path281"
     d="m 15.55,29.3 c 1.1,1.233 0.867,2.5 -0.7,3.8 -0.8,0.634 -1.7,1.15 -2.7,1.551 l -1.8,0.699 c -0.567,0.2 -1.6,0.334 -3.1,0.4 -1.467,0.066 -2.6,0.233 -3.4,0.5 -0.934,0.333 -1.117,0.9 -0.55,1.7 0.3,0.366 0.684,0.717 1.15,1.05 L 2.9,38.8 C 1.433,38.567 0.7,37.984 0.7,37.05 0.733,36.116 1.733,34.1 3.7,31 c 1.533,-2.267 3.583,-3.517 6.15,-3.75 2.4,-0.2 4.3,0.483 5.7,2.05 z"
     style="clip-rule:evenodd;fill:url(#SVGID_5_);fill-rule:evenodd"
     inkscape:connector-curvature="0" /><path
     id="path283"
     d="m 12.1,34.7 -1.8,0.649 c -0.566,0.233 -1.6,0.384 -3.1,0.45 -1.5,0.066 -2.633,0.233 -3.4,0.5 -0.933,0.334 -1.117,0.884 -0.55,1.65 C 3.55,38.35 3.933,38.7 4.4,39 L 2.85,38.8 C 1.917,38.7 1.283,38.4 0.95,37.9 0.783,37.633 0.683,37.4 0.65,37.2 V 37.05 L 0.8,36.25 C 1.2,35.684 2.167,35.333 3.7,35.2 4.833,35.1 6.4,35.033 8.4,35 c 1.833,-0.1 3.55,-0.5 5.15,-1.2 l 0.85,-0.4 c -0.733,0.534 -1.5,0.966 -2.3,1.3 z"
     style="clip-rule:evenodd;fill:#707070;fill-rule:evenodd"
     inkscape:connector-curvature="0" /><path
     id="path300"
     d="m 3,32.5 c 0.033,-0.366 0.3,-0.767 0.8,-1.2 0.5,-0.467 0.983,-0.733 1.45,-0.8 0.7,-0.1 1.2,-0.116 1.5,-0.05 0.633,0.133 1.083,0.566 1.35,1.3 0.2,0.566 0.1,1.1 -0.3,1.6 C 7.334,33.884 6.584,34.167 5.55,34.201 3.717,34.233 2.867,33.667 3,32.5 Z"
     style="clip-rule:evenodd;fill:url(#SVGID_6_);fill-rule:evenodd"
     inkscape:connector-curvature="0" /><path
     id="path302"
     d="m 4,31.6 c 0.933,-0.833 1.783,-1 2.55,-0.5 0.767,0.5 0.967,1.017 0.6,1.551 -0.267,0.5 -0.566,0.833 -0.9,1 C 5.85,33.85 5.3,33.917 4.6,33.85 3.9,33.784 3.517,33.467 3.45,32.901 3.383,32.4 3.567,31.967 4,31.6 Z"
     style="clip-rule:evenodd;fill:#ffffff;fill-rule:evenodd"
     inkscape:connector-curvature="0" /><path
     id="path304"
     d="m 4.25,31.6 c 0.567,-0.399 1.083,-0.517 1.55,-0.35 0.4,0.167 0.633,0.417 0.7,0.75 0.1,0.333 0.017,0.65 -0.25,0.95 -0.3,0.366 -0.733,0.533 -1.3,0.5 -0.6,0 -0.967,-0.233 -1.1,-0.7 -0.1,-0.467 0.033,-0.85 0.4,-1.15 z"
     style="clip-rule:evenodd;fill:#454545;fill-rule:evenodd"
     inkscape:connector-curvature="0" /><path
     id="path306"
     d="M 5.05,31.9 C 5.25,32.233 5.167,32.549 4.8,32.849 4.4,33.082 4.084,33.016 3.85,32.65 3.617,32.316 3.7,32.016 4.1,31.75 4.467,31.55 4.783,31.6 5.05,31.9 Z"
     style="clip-rule:evenodd;fill:#ffffff;fill-rule:evenodd"
     inkscape:connector-curvature="0" /><path
     id="path308"
     d="m 6.3,32.25 c 0.1,0.167 0.067,0.3 -0.1,0.4 C 6.033,32.717 5.9,32.7 5.8,32.6 5.734,32.434 5.783,32.3 5.95,32.201 6.117,32.1 6.233,32.116 6.3,32.25 Z"
     style="clip-rule:evenodd;fill:#ffffff;fill-rule:evenodd"
     inkscape:connector-curvature="0" /><use
     id="use310"
     style="overflow:visible;opacity:0.82029999;enable-background:new"
     transform="matrix(1,0,0,-1,-92.586074,146.30235)"
     y="-0.991"
     x="-0.0060000001"
     height="0.98000002"
     width="0.91100001"
     xlink:href="#flash0.ai_x5F_5_x2F_Layer_11_x2F__x3C_Path_x3E__x5F_57" /><use
     id="use312"
     style="overflow:visible;opacity:0.82029999;enable-background:new"
     transform="matrix(1,0,0,-1,-90.785774,145.95275)"
     y="-1.156"
     x="-0.023"
     height="1.2"
     width="1.01"
     xlink:href="#flash0.ai_x5F_5_x2F_Layer_11_x2F__x3C_Path_x3E__x5F_56" /><use
     id="use314"
     style="overflow:visible;opacity:0.82029999;enable-background:new"
     transform="matrix(1,0,0,-1,-91.635874,147.50255)"
     y="-0.75700003"
     x="0.029999999"
     height="0.796"
     width="0.76999998"
     xlink:href="#flash0.ai_x5F_5_x2F_Layer_11_x2F__x3C_Path_x3E__x5F_55" /><use
     id="use316"
     style="overflow:visible;opacity:0.82029999;enable-background:new"
     transform="matrix(1,0,0,-1,-89.785774,147.15295)"
     y="-0.80400002"
     x="-0.014"
     height="0.829"
     width="0.97100002"
     xlink:href="#flash0.ai_x5F_5_x2F_Layer_11_x2F__x3C_Path_x3E__x5F_54" /><use
     id="use318"
     style="overflow:visible;opacity:0.82029999;enable-background:new"
     transform="matrix(1,0,0,-1,-89.336074,145.25255)"
     y="-1.206"
     x="0.032000002"
     height="1.25"
     width="1.084"
     xlink:href="#flash0.ai_x5F_5_x2F_Layer_11_x2F__x3C_Path_x3E__x5F_53" /><use
     id="use320"
     style="overflow:visible;opacity:0.82029999;enable-background:new"
     transform="matrix(1,0,0,-1,-91.235974,144.80235)"
     y="-0.75"
     x="-0.02"
     height="0.78799999"
     width="0.72899997"
     xlink:href="#flash0.ai_x5F_5_x2F_Layer_11_x2F__x3C_Path_x3E__x5F_52" /><use
     id="use322"
     style="overflow:visible;opacity:0.82029999;enable-background:new"
     transform="matrix(1,0,0,-1,-92.686174,144.95275)"
     y="-0.66000003"
     x="0.044"
     height="0.65600002"
     width="0.70599997"
     xlink:href="#flash0.ai_x5F_5_x2F_Layer_11_x2F__x3C_Path_x3E__x5F_51" /><use
     id="use324"
     style="overflow:visible;opacity:0.82029999;enable-background:new"
     transform="matrix(1,0,0,-1,-89.635874,143.65295)"
     y="-0.972"
     x="0.0099999998"
     height="0.97500002"
     width="1"
     xlink:href="#flash0.ai_x5F_5_x2F_Layer_11_x2F__x3C_Path_x3E__x5F_50" /><use
     id="use326"
     style="overflow:visible;opacity:0.82029999;enable-background:new"
     transform="matrix(1,0,0,-1,-90.586074,142.70275)"
     y="-1.017"
     x="-0.014"
     height="0.99199998"
     width="0.81400001"
     xlink:href="#flash0.ai_x5F_5_x2F_Layer_11_x2F__x3C_Path_x3E__x5F_49" /><use
     id="use328"
     style="overflow:visible;opacity:0.82029999;enable-background:new"
     transform="matrix(1,0,0,-1,-89.035774,141.95275)"
     y="-1.054"
     x="-0.0049999999"
     height="1.05"
     width="0.87300003"
     xlink:href="#flash0.ai_x5F_5_x2F_Layer_11_x2F__x3C_Path_x3E__x5F_48" /><use
     id="use330"
     style="overflow:visible;opacity:0.82029999;enable-background:new"
     transform="matrix(1,0,0,-1,-88.285774,143.20275)"
     y="-1.156"
     x="-0.02"
     height="1.178"
     width="1.426"
     xlink:href="#flash0.ai_x5F_5_x2F_Layer_11_x2F__x3C_Path_x3E__x5F_47" /><use
     id="use332"
     style="overflow:visible;opacity:0.82029999;enable-background:new"
     transform="matrix(1,0,0,-1,-87.635874,144.90295)"
     y="-0.95599997"
     x="0.0099999998"
     height="0.97299999"
     width="0.99599999"
     xlink:href="#flash0.ai_x5F_5_x2F_Layer_11_x2F__x3C_Path_x3E__x5F_46" /><use
     id="use334"
     style="overflow:visible;opacity:0.82029999;enable-background:new"
     transform="matrix(1,0,0,-1,-88.235974,146.65295)"
     y="-0.76499999"
     height="0.82099998"
     width="0.70499998"
     xlink:href="#flash0.ai_x5F_5_x2F_Layer_11_x2F__x3C_Path_x3E__x5F_45"
     x="0" /><use
     id="use336"
     style="overflow:visible;opacity:0.82029999;enable-background:new"
     transform="matrix(1,0,0,-1,-86.885874,140.75255)"
     y="-1.268"
     x="0.017999999"
     height="1.284"
     width="0.93199998"
     xlink:href="#flash0.ai_x5F_5_x2F_Layer_11_x2F__x3C_Path_x3E__x5F_44" /><use
     id="use338"
     style="overflow:visible;opacity:0.82029999;enable-background:new"
     transform="matrix(1,0,0,-1,-86.385874,142.75255)"
     y="-0.861"
     x="-0.0020000001"
     height="0.90499997"
     width="0.76899999"
     xlink:href="#flash0.ai_x5F_5_x2F_Layer_11_x2F__x3C_Path_x3E__x5F_43" /><use
     id="use340"
     style="overflow:visible;opacity:0.82029999;enable-background:new"
     transform="matrix(1,0,0,-1,-84.936174,142.25255)"
     y="-1.038"
     height="1.021"
     width="0.99199998"
     xlink:href="#flash0.ai_x5F_5_x2F_Layer_11_x2F__x3C_Path_x3E__x5F_42"
     x="0" /><use
     id="use342"
     style="overflow:visible;opacity:0.82029999;enable-background:new"
     transform="matrix(1,0,0,-1,-88.186174,140.75255)"
     y="-0.80699998"
     x="0.0099999998"
     height="0.81"
     width="0.69400001"
     xlink:href="#flash0.ai_x5F_5_x2F_Layer_11_x2F__x3C_Path_x3E__x5F_41" /><use
     id="use344"
     style="overflow:visible;opacity:0.82029999;enable-background:new"
     transform="matrix(1,0,0,-1,-84.985974,139.20275)"
     y="-1.1670001"
     x="0.0049999999"
     height="1.1670001"
     width="0.96799999"
     xlink:href="#flash0.ai_x5F_5_x2F_Layer_11_x2F__x3C_Path_x3E__x5F_40" /><use
     id="use346"
     style="overflow:visible;opacity:0.82029999;enable-background:new"
     transform="matrix(1,0,0,-1,-83.586074,139.55235)"
     y="-1.15"
     x="-0.0070000002"
     height="1.207"
     width="1.332"
     xlink:href="#flash0.ai_x5F_5_x2F_Layer_11_x2F__x3C_Path_x3E__x5F_39" /><use
     id="use348"
     style="overflow:visible;opacity:0.82029999;enable-background:new"
     transform="matrix(1,0,0,-1,-84.735974,141.15245)"
     y="-0.62900001"
     x="-0.0080000004"
     height="0.65899998"
     width="0.61500001"
     xlink:href="#flash0.ai_x5F_5_x2F_Layer_11_x2F__x3C_Path_x3E__x5F_38" /><use
     id="use350"
     style="overflow:visible;opacity:0.82029999;enable-background:new"
     transform="matrix(1,0,0,-1,-82.436174,137.25255)"
     y="-1.211"
     x="-0.0040000002"
     height="1.271"
     width="1.117"
     xlink:href="#flash0.ai_x5F_5_x2F_Layer_11_x2F__x3C_Path_x3E__x5F_37" /><use
     id="use352"
     style="overflow:visible;opacity:0.82029999;enable-background:new"
     transform="matrix(1,0,0,-1,-81.635874,138.95275)"
     y="-0.95599997"
     x="-0.0070000002"
     height="0.96799999"
     width="0.773"
     xlink:href="#flash0.ai_x5F_5_x2F_Layer_11_x2F__x3C_Path_x3E__x5F_36" /><use
     id="use354"
     style="overflow:visible;opacity:0.82029999;enable-background:new"
     transform="matrix(1,0,0,-1,-83.235974,141.35265)"
     y="-0.92199999"
     x="-0.0060000001"
     height="0.96600002"
     width="0.662"
     xlink:href="#flash0.ai_x5F_5_x2F_Layer_11_x2F__x3C_Path_x3E__x5F_35" /><use
     id="use356"
     style="overflow:visible;opacity:0.82029999;enable-background:new"
     transform="matrix(1,0,0,-1,-85.936174,144.15295)"
     y="-1.087"
     x="-0.0070000002"
     height="1.074"
     width="0.81099999"
     xlink:href="#flash0.ai_x5F_5_x2F_Layer_11_x2F__x3C_Path_x3E__x5F_34" /><use
     id="use358"
     style="overflow:visible;opacity:0.82029999;enable-background:new"
     transform="matrix(1,0,0,-1,-94.385874,146.65295)"
     y="-0.97000003"
     height="0.95300001"
     width="0.70499998"
     xlink:href="#flash0.ai_x5F_5_x2F_Layer_11_x2F__x3C_Path_x3E__x5F_33"
     x="0" /><use
     id="use360"
     style="overflow:visible;opacity:0.82029999;enable-background:new"
     transform="matrix(1,0,0,-1,-84.385874,137.50255)"
     y="-1.117"
     x="0.011"
     height="1.142"
     width="0.95899999"
     xlink:href="#flash0.ai_x5F_5_x2F_Layer_11_x2F__x3C_Path_x3E__x5F_32" /><use
     id="use362"
     style="overflow:visible;opacity:0.82029999;enable-background:new"
     transform="matrix(1,0,0,-1,-86.785774,138.65245)"
     y="-1.1059999"
     x="0.015"
     height="1.099"
     width="1.21"
     xlink:href="#flash0.ai_x5F_5_x2F_Layer_11_x2F__x3C_Path_x3E__x5F_31" /><use
     id="use364"
     style="overflow:visible;opacity:0.82029999;enable-background:new"
     transform="matrix(1,0,0,-1,-83.285774,136.15245)"
     y="-0.89600003"
     x="-0.017999999"
     height="0.91000003"
     width="1.141"
     xlink:href="#flash0.ai_x5F_5_x2F_Layer_11_x2F__x3C_Path_x3E__x5F_30" /><use
     id="use366"
     style="overflow:visible;opacity:0.82029999;enable-background:new"
     transform="matrix(1,0,0,-1,-81.336074,134.70275)"
     y="-0.69999999"
     height="0.69999999"
     width="0.60600001"
     xlink:href="#flash0.ai_x5F_5_x2F_Layer_11_x2F__x3C_Path_x3E__x5F_29"
     x="0" /><use
     id="use368"
     style="overflow:visible;opacity:0.82029999;enable-background:new"
     transform="matrix(1,0,0,-1,-81.336074,135.85265)"
     y="-0.67900002"
     x="-0.0080000004"
     height="0.69199997"
     width="0.66299999"
     xlink:href="#flash0.ai_x5F_5_x2F_Layer_11_x2F__x3C_Path_x3E__x5F_28" /><use
     id="use370"
     style="overflow:visible;opacity:0.82029999;enable-background:new"
     transform="matrix(1,0,0,-1,-80.586074,136.95275)"
     y="-0.89099997"
     height="0.93000001"
     width="0.83399999"
     xlink:href="#flash0.ai_x5F_5_x2F_Layer_11_x2F__x3C_Path_x3E__x5F_27"
     x="0" /><use
     id="use372"
     style="overflow:visible;opacity:0.82029999;enable-background:new"
     transform="matrix(1,0,0,-1,-80.135874,134.65245)"
     y="-0.67500001"
     x="0.050000001"
     height="0.65499997"
     width="0.87800002"
     xlink:href="#flash0.ai_x5F_5_x2F_Layer_11_x2F__x3C_Path_x3E__x5F_26" /><use
     id="use374"
     style="overflow:visible;opacity:0.82029999;enable-background:new"
     transform="matrix(1,0,0,-1,-85.785774,137.60265)"
     y="-0.639"
     height="0.639"
     width="0.60600001"
     xlink:href="#flash0.ai_x5F_5_x2F_Layer_11_x2F__x3C_Path_x3E__x5F_25"
     x="0" /><use
     id="use376"
     style="overflow:visible;opacity:0.82029999;enable-background:new"
     transform="matrix(1,0,0,-1,-80.535774,133.95275)"
     y="-0.60600001"
     height="0.61199999"
     width="0.70599997"
     xlink:href="#flash0.ai_x5F_5_x2F_Layer_11_x2F__x3C_Path_x3E__x5F_24"
     x="0" /><use
     id="use378"
     style="overflow:visible;opacity:0.82029999;enable-background:new"
     transform="matrix(1,0,0,-1,-79.186174,133.55235)"
     y="-0.62900001"
     height="0.65899998"
     width="0.64999998"
     xlink:href="#flash0.ai_x5F_5_x2F_Layer_11_x2F__x3C_Path_x3E__x5F_23"
     x="0" /><use
     id="use380"
     style="overflow:visible;opacity:0.82029999;enable-background:new"
     transform="matrix(1,0,0,-1,-77.735974,132.90245)"
     y="-0.68000001"
     x="0.044"
     height="0.73000002"
     width="0.65700001"
     xlink:href="#flash0.ai_x5F_5_x2F_Layer_11_x2F__x3C_Path_x3E__x5F_22" /><use
     id="use382"
     style="overflow:visible;opacity:0.82029999;enable-background:new"
     transform="matrix(1,0,0,-1,-78.885874,134.90245)"
     y="-0.82300001"
     x="-0.0060000001"
     height="0.82700002"
     width="0.80500001"
     xlink:href="#flash0.ai_x5F_5_x2F_Layer_11_x2F__x3C_Path_x3E__x5F_21" /><use
     id="use384"
     style="overflow:visible;opacity:0.82029999;enable-background:new"
     transform="matrix(1,0,0,-1,-79.285774,136.35265)"
     y="-1.0039999"
     x="-0.033"
     height="1.0319999"
     width="0.74000001"
     xlink:href="#flash0.ai_x5F_5_x2F_Layer_11_x2F__x3C_Path_x3E__x5F_20" /><use
     id="use386"
     style="overflow:visible;opacity:0.82029999;enable-background:new"
     transform="matrix(1,0,0,-1,-76.336074,132.35265)"
     y="-0.773"
     height="0.75300002"
     width="1.09"
     xlink:href="#flash0.ai_x5F_5_x2F_Layer_11_x2F__x3C_Path_x3E__x5F_19"
     x="0" /><use
     id="use388"
     style="overflow:visible;opacity:0.53910002;enable-background:new"
     transform="matrix(1,0,0,-1,-97.235974,134.00255)"
     y="-9.9610004"
     x="0.029999999"
     height="9.9949999"
     width="11.972"
     xlink:href="#flash0.ai_x5F_5_x2F_Layer_11_x2F__x3C_Path_x3E__x5F_18" /><use
     id="use390"
     style="overflow:visible;opacity:0.53910002;enable-background:new"
     transform="matrix(1,0,0,-1,-84.385874,132.80235)"
     y="-0.889"
     x="0"
     height="0.88300002"
     width="1.6"
     xlink:href="#flash0.ai_x5F_5_x2F_Layer_11_x2F__x3C_Path_x3E__x5F_17" /><use
     id="use392"
     style="overflow:visible;opacity:0.53910002;enable-background:new"
     transform="matrix(1,0,0,-1,-81.385874,132.05235)"
     y="-0.639"
     x="0.033"
     height="0.66399997"
     width="1.177"
     xlink:href="#flash0.ai_x5F_5_x2F_Layer_11_x2F__x3C_Path_x3E__x5F_16" /><use
     id="use394"
     style="overflow:visible;opacity:0.53910002;enable-background:new"
     transform="matrix(1,0,0,-1,-98.885874,145.65295)"
     y="-1.839"
     x="0.046999998"
     height="1.867"
     width="1.557"
     xlink:href="#flash0.ai_x5F_5_x2F_Layer_11_x2F__x3C_Path_x3E__x5F_15" /><path
     id="path396"
     d="m 22.25,13.45 c 1.8,-1.067 2.983,-1.684 3.55,-1.85 0.333,-0.1 0.333,0.017 0,0.35 -0.267,0.333 -0.633,0.65 -1.1,0.95 -1.233,0.733 -2,1.317 -2.3,1.75 -0.2,0.3 -0.517,0.6 -0.95,0.9 -0.567,0.333 -1.017,0.6 -1.35,0.8 -0.4,0.233 -0.633,0.417 -0.7,0.55 -0.033,0.133 -0.133,0.417 -0.3,0.85 -0.167,0.367 -0.483,0.633 -0.95,0.8 -0.6,0.233 -0.967,0.4 -1.1,0.5 -0.267,0.233 -0.483,0.55 -0.65,0.95 -0.2,0.467 -0.4,0.816 -0.6,1.05 -0.167,0.233 -0.617,0.55 -1.35,0.95 -0.733,0.434 -1.333,0.934 -1.8,1.5 -0.6,0.733 -0.9,0.85 -0.9,0.35 -0.033,-0.5 0.217,-1.116 0.75,-1.85 1.233,-1.733 2.617,-3.283 4.15,-4.65 1.467,-1.267 3.333,-2.567 5.6,-3.9 z"
     style="clip-rule:evenodd;fill:#f1fced;fill-rule:evenodd"
     inkscape:connector-curvature="0" /><path
     id="path398"
     d="m 10.9,24.7 c 0.5,-0.3 0.667,-0.233 0.5,0.2 -0.133,0.433 -0.35,0.75 -0.65,0.949 -0.267,0.167 -0.4,0.084 -0.4,-0.25 0,-0.366 0.183,-0.665 0.55,-0.899 z"
     style="clip-rule:evenodd;fill:#f1fced;fill-rule:evenodd"
     inkscape:connector-curvature="0" /><path
     id="path400"
     d="m 28.2,10.25 c 0.533,-0.2 0.85,-0.233 0.95,-0.1 0.067,0.1 0.017,0.25 -0.15,0.45 -0.267,0.333 -0.767,0.5 -1.5,0.5 -0.333,-0.033 -0.417,-0.133 -0.25,-0.3 0.133,-0.2 0.45,-0.383 0.95,-0.55 z"
     style="clip-rule:evenodd;fill:#f1fced;fill-rule:evenodd"
     inkscape:connector-curvature="0" /><path
     id="path402"
     d="m 30.45,9.55 c 0.566,-0.133 0.8,-0.083 0.7,0.15 -0.133,0.233 -0.367,0.367 -0.7,0.4 -0.267,0.033 -0.4,-0.033 -0.4,-0.2 -0.033,-0.2 0.1,-0.317 0.4,-0.35 z"
     style="clip-rule:evenodd;fill:#f1fced;fill-rule:evenodd"
     inkscape:connector-curvature="0" /><use
     id="use404"
     style="overflow:visible;opacity:0.17190001;enable-background:new"
     transform="matrix(1,0,0,-1,-88.836074,147.15295)"
     y="-4.1329999"
     x="-0.013"
     height="4.1329999"
     width="5.263"
     xlink:href="#flash0.ai_x5F_5_x2F_Layer_11_x2F__x3C_Path_x3E__x5F_10" /><path
     id="path411"
     d="m 17.25,28.05 c 0.433,-0.133 1.283,-0.6 2.55,-1.399 0.633,-0.301 1.184,-0.784 1.65,-1.45 l 0.15,0.55 c 0.066,0.467 0,1.033 -0.2,1.7 -0.2,0.666 -0.15,1.05 0.15,1.149 0.167,0.034 0.333,0 0.5,-0.1 l -0.7,0.45 c -0.8,0.5 -1.917,0.649 -3.35,0.45 -0.633,-0.101 -1.017,-0.317 -1.15,-0.65 -0.133,-0.3 0,-0.533 0.4,-0.7 z"
     style="clip-rule:evenodd;fill:url(#SVGID_7_);fill-rule:evenodd"
     inkscape:connector-curvature="0" /><path
     id="path413"
     d="m 16.75,29.35 c -0.6,-0.3 -0.933,-0.649 -1,-1.05 -0.067,-0.2 0.017,-0.434 0.25,-0.7 0.233,-0.266 0.483,-0.399 0.75,-0.399 0.233,0 0.317,0.05 0.25,0.149 -0.033,0.067 -0.2,0.284 -0.5,0.65 -0.333,0.5 -0.25,0.95 0.25,1.35 z"
     style="clip-rule:evenodd;fill:#f1fced;fill-rule:evenodd"
     inkscape:connector-curvature="0" /><path
     id="path415"
     d="m 7.5,30 c 0.467,-0.1 0.917,0.1 1.35,0.6 0.433,0.467 0.667,0.967 0.7,1.5 0.034,0.667 -0.3,1.134 -1,1.4 l 0.2,-1.4 C 8.817,31.634 8.633,31.151 8.2,30.651 Z"
     style="clip-rule:evenodd;fill:#9e9e9e;fill-rule:evenodd"
     inkscape:connector-curvature="0" /><path
     id="path417"
     d="m 10.75,32 c 0.2,-0.233 0.45,-0.283 0.75,-0.15 0.3,0.134 0.35,0.284 0.15,0.45 -0.233,0.134 -0.5,0.167 -0.8,0.101 C 10.55,32.333 10.517,32.2 10.75,32 Z"
     style="clip-rule:evenodd;fill:#f1fced;fill-rule:evenodd"
     inkscape:connector-curvature="0" /><path
     id="path419"
     d="m 10.95,29.9 c 0.6,-0.334 1.05,-0.267 1.35,0.199 0.3,0.467 0.2,0.767 -0.3,0.9 -0.4,0.134 -0.717,0.017 -0.95,-0.35 -0.267,-0.366 -0.3,-0.616 -0.1,-0.749 z"
     style="clip-rule:evenodd;fill:#f1fced;fill-rule:evenodd"
     inkscape:connector-curvature="0" /><path
     id="path421"
     d="m 11.05,28.1 c 0.4,-0.166 0.617,-0.149 0.65,0.051 0.033,0.233 -0.15,0.383 -0.55,0.449 -0.333,0.067 -0.517,0.034 -0.55,-0.1 -0.033,-0.134 0.117,-0.267 0.45,-0.4 z"
     style="clip-rule:evenodd;fill:#f1fced;fill-rule:evenodd"
     inkscape:connector-curvature="0" /><path
     id="path423"
     d="m 12.7,28.45 c 0.333,-0.101 0.55,-0.066 0.65,0.1 0.1,0.167 0,0.283 -0.3,0.351 -0.267,0.1 -0.433,0.066 -0.5,-0.101 -0.067,-0.166 -0.017,-0.283 0.15,-0.35 z"
     style="clip-rule:evenodd;fill:#f1fced;fill-rule:evenodd"
     inkscape:connector-curvature="0" /><path
     id="path425"
     d="m 13.35,30.55 c 0.533,-0.2 0.8,-0.116 0.8,0.25 0,0.4 -0.167,0.667 -0.5,0.8 -0.267,0.134 -0.433,0.017 -0.5,-0.35 -0.1,-0.4 -0.033,-0.634 0.2,-0.7 z"
     style="clip-rule:evenodd;fill:#f1fced;fill-rule:evenodd"
     inkscape:connector-curvature="0" /><path
     id="path427"
     d="m 18.35,27.65 c -0.533,0.333 -0.733,0.483 -0.6,0.449 0.167,0 0.383,-0.083 0.65,-0.25 0.5,-0.333 0.767,-0.5 0.8,-0.5 l 1.35,-0.8 c -0.566,0.601 -1.033,0.983 -1.4,1.15 l -1.3,0.7 0.75,0.05 c 0.6,-0.134 1.15,-0.384 1.65,-0.75 l 0.3,-0.2 c -0.367,0.434 -0.783,0.75 -1.25,0.95 -0.433,0.233 -0.883,0.366 -1.35,0.399 l 0.25,0.25 c 0.2,0.134 0.433,0.167 0.7,0.101 0.434,-0.101 0.767,-0.217 1,-0.351 -0.2,0.301 -0.483,0.467 -0.85,0.5 l -0.8,0.051 0.475,0.25 C 18.573,29.603 18.465,29.57 18.4,29.548 17.5,29.281 17,29.065 16.9,28.899 c -0.1,-0.2 -0.15,-0.317 -0.15,-0.351 0.033,-0.033 0.083,-0.116 0.15,-0.25 0.133,-0.166 0.467,-0.366 1,-0.6 l 1.1,-0.65 c -0.267,0.336 -0.483,0.535 -0.65,0.602 z"
     style="clip-rule:evenodd;fill:#454545;fill-rule:evenodd"
     inkscape:connector-curvature="0" /><path
     id="path434"
     d="m 33.35,11.3 c 0.167,-1.1 0.583,-1.533 1.25,-1.3 0.333,0.1 0.333,0.217 0,0.35 l 0.15,0.1 c 0.133,0.133 0.233,0.316 0.3,0.55 0.1,0.367 -0.05,0.533 -0.45,0.5 l 0.15,0.1 c 0.1,0.133 0.133,0.3 0.1,0.5 -0.033,0.3 -0.117,0.467 -0.25,0.5 l 0.05,0.25 c 0.033,0.1 -0.25,0.417 -0.85,0.95 -0.233,0.233 -0.533,0.617 -0.9,1.15 l -0.45,0.7 0.35,-0.95 c 0.167,-0.5 0.35,-1.633 0.55,-3.4 z"
     style="clip-rule:evenodd;fill:url(#SVGID_8_);fill-rule:evenodd"
     inkscape:connector-curvature="0" /></g>
</svg>