<?xml version="1.0" encoding="UTF-8" standalone="no"?>
<!-- Created with Inkscape (http://www.inkscape.org/) -->
<svg xmlns:rdf="http://www.w3.org/1999/02/22-rdf-syntax-ns#" xmlns="http://www.w3.org/2000/svg" xmlns:cc="http://web.resource.org/cc/" xmlns:dc="http://purl.org/dc/elements/1.1/" xmlns:svg="http://www.w3.org/2000/svg" xmlns:inkscape="http://www.inkscape.org/namespaces/inkscape" xmlns:sodipodi="http://sodipodi.sourceforge.net/DTD/sodipodi-0.dtd" xmlns:ns1="http://sozi.baierouge.fr" xmlns:xlink="http://www.w3.org/1999/xlink" id="Layer_1" xml:space="preserve" version="1.0" viewBox="0 0 391.743 561.659" inkscape:version="0.91 r13725">
<g id="g5">
	<path id="path7" style="stroke:black;stroke-width:.036;stroke-miterlimit:10;fill-rule:evenodd" d="m28.562 76.308l8.928 14.292 8.676 12.89-0.108 1.55 3.312 4.46 1.26 0.14 15.336 22.72c-0.9 1.04-1.152 2.02-0.9 3.2 0.216 1.08 1.08 2.24 2.448 3.46-0.324 0.58 0.108 1.76 1.152 3.71 1.044 1.76 3.024 4.32 5.112 7.67 1.98 3.34 4.32 7.48 7.02 12.56 0 0.97 0.252 1.91 0.756 2.81 0.468 0.9 1.188 1.62 2.16 2.45l5.508 9.32c-0.468 2.16-0.504 3.6-0.252 4.72 0.216 1.04 0.864 1.51 1.8 1.54 0 0.94 0.036 1.84 0.504 2.56 0.288 0.68 1.008 1.19 1.764 1.66l8.822 12.88c-0.4 1.26-0.4 2.42 0 3.06 0.32 0.76 1.19 1.01 2.3 1.16l6.66 8.82c-0.03 1.8 0.22 2.98 0.76 3.85 0.54 0.75 1.26 1.04 2.3 0.86l4.97 5.91c-0.25 1.8-0.07 2.98 0.4 3.96 0.46 0.86 1.36 1.33 2.55 1.4l5.11 7.49c-0.1 1.69 0.11 3.35 0.26 5.11 0.1 1.84 0.54 3.67 0.9 5.36 0.32 1.52 0.79 2.42 1.4 3.82 0.47 1.33 1.48 2.88 1.76 4.1 0.22 1.12 0.18 1.88-0.25 2.42-1.15 0.32-1.83 0.79-1.76 1.54-0.04 0.62 0.83 1.98 1.76 2.7 0.83 0.58 2.45 1.37 3.21 1.26 0.64-0.21 0.9-1.22 0.9-1.9-0.04-0.65-0.47-1.48-1.16-2.2 0.08-1.48-0.14-2.88-0.5-4.21-0.54-1.44-1.4-2.34-2.05-3.82-0.79-1.58-1.3-3.35-1.66-5-0.32-1.69-0.32-3.35-0.14-4.97l2.05 2.81c-0.07 1.15 0.14 2.52 0.5 3.71 0.36 1.11 0.87 2.3 1.66 3.7 0.76 1.44 1.98 3.24 2.7 4.72 0.54 1.3 0.65 2.09 0.76 3.35-0.04 1.11-0.26 2.3-0.65 3.56-0.79-0.21-1.3-0.18-1.51 0.51-0.26 0.5-0.4 2.12 0.25 3.06 0.57 0.97 2.55 2.01 3.45 2.3 0.8 0.11 1.3-0.86 1.52-1.4 0.1-0.62-0.15-1.52-0.76-2.42 0.58-0.1 0.86-0.57 1.01-1.4 0.07-0.9-0.15-2.05-0.51-3.6 1.08 1.12 1.98 2.48 2.7 4.1 0.69 1.66 1.19 3.35 1.52 5.48-1.73-0.72-2.7-0.76-3.06-0.11-0.36 0.54 0.03 2.73 0.9 3.81 0.72 1.01 1.9 1.73 3.56 2.31-0.43 1.73-0.25 3.09 0.4 3.96 0.64 0.79 1.8 0.9 3.45 1.15 1.66 0.14 3.56 0.29 6.12 0.14l6.01 8.57c-0.39 0.94-0.39 1.69 0.15 2.41 0.47 0.65 1.44 1.12 2.92 1.55 0.79 1.37 2.15 3.53 4.1 6.48 1.91 2.99 4.32 6.55 7.38 11.09-0.4 1.48-0.4 2.45 0 3.2 0.32 0.69 1.19 0.98 2.3 1.01l9.47 13.83c-0.68 1.26-0.72 2.01-0.39 2.55 0.39 0.4 1.15 0.58 2.55 0.25 1.15 1.98 2.27 3.39 3.21 4.07 0.9 0.69 1.8 0.36 2.41 0 0.54-0.5 0.93-1.22 1.04-2.56-0.18 0.19 0.07 0.44 0.36 0.9 0.4 0.44 0.83 0.94 1.69 1.66l-0.39 1.4c-2.23 0.54-4.07 1.41-5.51 2.2-1.66 0.79-2.66 1.58-3.31 2.81-0.61 1.15-0.65 2.66-0.11 3.96 0.36 1.04 1.62 2.52 2.81 2.92 1.15 0.39 2.55 0.18 4.21-0.51-0.47 0.65-0.47 1.3 0 1.65 0.4 0.37 1.33 0.58 2.66 0.65-1.47 2.23-2.37 4.11-2.3 5.62-0.04 1.51 0.97 2.52 2.2 3.31 1.15 0.76 2.77 1.01 4.86 1.05 1.83 1.58 3.52 2.48 5.22 2.55 1.65 0 3.27-0.68 4.86-2.19 1.62 2.08 2.98 3.45 3.96 4.5 0.93 1 1.62 1.29 1.9 1.26-1.22 1.22-2.16 2.34-2.8 3.2-0.8 0.86-1.37 1.59-1.16 2.16 0.18 0.58 1.08 0.86 2.56 1.15-0.22 1.98 0.22 3.31 0.9 3.86 0.68 0.53 1.84 0.35 3.46-0.55 3.31 2.2 5.9 4.07 7.77 6.16 1.87 1.94 0.22 1.3 3.21 5.69 2.77 4.43 9.54 13.93 13.93 20.59 4.43 6.52 8.46 12.64 12.38 18.5-0.54 0.15-0.75 0.37-1.04 0.8-0.29 0.36-0.54 0.86-0.36 1.65 0.14 0.72 0.65 1.69 1.51 2.92-0.43 0.68-0.68 1.37-0.61 1.91 0 0.5 0.11 1.11 0.75 1.44 0.51 0.35 1.41 0.43 2.56 0.5 1.48 2.23 2.66 3.85 3.96 4.86 1.3 0.86 2.3 1.15 3.31 1.01 0.76-0.15 1.41-0.79 1.66-1.8l4.1 7.56-0.25 1.15 3.06 5.72 1.3 0.26c6.23 12.38 11.41 22.39 15.69 30.56 4.18 7.99 6.16 10.62 9.83 17.75 3.6 7.06 9.04 18.14 11.88 24.8 2.67 6.55 3.74 10.8 4.61 14.69 0.79 3.85 1.01 6.44 0.5 8.17-1.22 1.52-2.16 2.95-2.81 4.47-0.72 1.44-1 2.84-1.15 4.21 4.07 0.94 8.28 0.94 12.78 0 4.36-1.01 8.35-3.06 13.79-5.87 5.4-2.95 13.93-8.17 18.65-11.23 4.64-3.1 7.7-5.33 9.32-6.98 3.85-2.7 7.09-5.3 9.87-8.07 2.62-2.77 4.93-6.08 6.37-8.42 1.4-2.49 1.8-4.57 2.16-6.12 0.25-1.55 0.18-2.63-0.36-3.1-4.5 0.29-8.03 0.25-10.87-0.25-2.88-0.54-3.82-1.15-6.12-2.66-2.27-1.59-4.83-3.86-7.67-6.66-2.99-2.85-5.65-5.33-10.23-10.23-4.78-5.15-11.62-12.63-17.74-19.55-6.23-7.02-13.65-15.76-18.65-21.67-5.04-5.87-8.57-10.11-11.02-13.14l-0.11-1.4-3.96-5.37-1.4-0.28c-5.58-7.71-10.73-14.98-15.98-22.36-5.19-7.38-10.3-14.44-15.2-21.46-0.28-1.33-0.72-2.34-1.29-3.31-0.65-0.97-1.4-1.76-2.41-2.37-5.4-7.82-10.37-15.12-15.19-22.07-4.86-7.02-9.33-13.54-13.54-19.69 0.43-0.87 0.47-1.98 0.25-3.21-0.21-1.37-0.9-3.13-1.91-4.32-1.18-1.22-2.8-2.16-5-2.81-1.98-2.91-4.32-6.3-6.88-10.15-2.66-3.92-5.76-8.64-8.71-13.03-2.99-4.46-6.01-8.71-9.07-13.18 1.55-0.54 2.63-1.22 3.1-1.9 0.36-0.8 0.21-1.98-0.29-2.45-0.58-0.61-2.02-0.86-2.81-0.76-0.86 0.11-1.58 0.36-2.16 1.15l-1.55-1.65c2.13-1.41 3.32-2.38 3.71-3.31 0.22-0.98-0.61-1.84-1.51-2.06-0.94-0.32-2.13-0.14-3.71 0.4 3.1-1.66 5.04-3.1 6.12-4.61 1.01-1.47 0.36-3.06 0-4.21-0.5-1.33-1.4-2.99-2.56-3.31-1.33-0.4-2.95 0.21-4.71 1.01-1.73 0.68-3.6 1.65-5.62 3.06-5.76-8.03-10.44-14.4-14.33-19.8-3.92-5.33-6.77-9.33-8.82-11.99 1.95-4.18 3.1-7.2 3.46-9.22 0.25-2.05-0.36-2.55-1.26-3.06-0.9-0.68-2.59-0.72-3.96-0.39-1.37 0.39-2.77 1.15-4.21 2.55-2.09-3.27-4.18-6.33-6.41-9.57-2.27-3.24-4.43-6.27-6.77-9.47 0.32-1.91 0.29-3.53-0.11-4.86-0.47-1.44-1.33-2.59-2.3-3.31-1.12-0.8-2.34-1.23-3.96-1.3l-13.43-20.05c-0.07-2.67-0.36-4.79-1.01-6.66-0.61-1.95-1.51-3.39-2.7-4.32-1.44-0.97-3.09-1.19-5.36-1.05l-1.41-2.16c0.36-1.33 0.33-2.77-0.1-4.46-0.58-1.76-1.05-3.42-2.81-5.51-1.91-2.16-4.47-4.53-8.07-7.27l-5.47-9.29c1.41-0.43 2.56-0.9 3.31-1.55 0.65-0.79 1.23-1.51 1.16-2.3-0.18-0.76-0.87-1.94-1.66-2.16-0.94-0.4-2.38 0-3.2 0.5-0.83 0.47-1.48 1.37-1.8 2.56-0.87-0.97-2.96-3.78-6.267-8.82-3.492-5.15-9.612-14.94-13.644-21.06-4.032-6.23-7.488-11.231-10.368-15.587v-1.296l-3.456-4.968-1.152-0.648-5.364-7.776c-3.816-5.544-7.344-10.44-10.728-15.12-3.456-4.716-6.588-8.928-9.684-12.78v-1.152l-0.792-1.296c0.576-0.432 1.008-0.936 1.152-1.512 0.108-0.648 0.072-1.656-0.252-2.196-0.54-0.612-1.404-1.224-2.16-1.404-0.792-0.252-1.512-0.252-2.304 0l-2.052-3.708-1.404-0.504-3.06-4.212c0.828-1.008 1.26-1.944 1.296-2.808s-0.396-2.268-1.152-2.556c-0.828-0.432-2.16-0.396-3.852 0.108l-3.204-3.06-1.512-0.504c-5.724-7.92-10.152-14.004-13.68-18.396-3.528-4.428-5.868-7.02-7.164-7.92l-4.068 3.96c-0.327 1.69-0.508 4.535-0.399 8.675 0.036 4.14 0.252 9.288 0.648 15.84l6.012 11.268-0.252 1.512c0.972 2.268 2.376 4.788 3.816 7.56 1.476 2.736 3.78 7.056 5.112 8.928 1.332 1.764 2.052 2.268 2.556 1.656l1.548 1.8-0.54 1.008 1.548 2.556 1.152 0.396c2.304 3.708 4.608 7.416 6.912 11.124zm118.66 178.74l2.3 3.56 1.51 0.76 4.76 8.21c0.43 0.82 0.64 1.58 0.5 2.41-0.11 0.79-0.57 1.51-1.26 2.3l-9.22-16.34c0.47-0.29 0.94-0.58 1.41-0.9zm19.04 35.49c0-0.68 0.25-1.11 0.76-0.9 0.47 0.08 0.39-0.79 2.16 1.7 1.69 2.48 4.28 6.76 7.92 12.99l-0.18 2.56c-2.23-3.31-4.22-6.37-5.94-9.04-1.88-2.73-3.32-5.22-4.72-7.31zm15.84 20.42c-0.11-0.08-0.36-0.11-0.75-0.11-0.54-0.07-1.62-0.4-1.7 0-0.14 0.36 0.8 1.58 1.41 2.41 0.5 0.72 1.15 1.66 1.94 2.41 0.76-0.25 1.01-0.68 1.15-1.15 0.04-0.58-0.5-1.48-0.79-2.02-0.32-0.64-0.79-1.11-1.26-1.54zm4.32 8.96l2.45 3.06 0.11 1.91c-0.9-1.12-1.62-2.2-2.02-2.95-0.47-0.9-0.65-1.48-0.54-2.02zm6.91 9.58l2.06 2.8c0.03 0.98-0.19 1.23-0.65 0.9-0.47-0.39-1.33-1.51-2.31-3.2 0.29-0.14 0.58-0.32 0.9-0.5z"/>
	<path id="path9" style="fill-rule:evenodd;stroke:black;stroke-width:.036;stroke-miterlimit:10;fill:silver" d="m147.97 253.93c0.51 1.73 0.94 2.88 1.44 3.46 0.4 0.5 0.51 0.5 1.3 0 0.68-0.51 1.65-1.59 2.91-3.1 1.7 2.27 3.35 4.03 4.97 5.29 1.62 1.19 3.21 1.26 4.76 2.02 1.36 0.65 2.19-0.25 4.03 2.02 1.76 2.16 3.06 5.43 6.94 11.19 3.78 5.8 10.08 14.19 16.13 23.08 5.98 8.82 12.53 18.25 19.8 29.12-2.59 1.51-4.68 3.24-6.4 5.04-1.91 1.87-4 5.26-4.04 5.87 0.04 0.4 2.24-1.51 4.22-2.95 1.9-1.55 4.53-4.25 6.77-5.87 2.01-1.69 3.85-2.99 5.5-4.03-3.13-5.08-6.08-9.58-9-14.08-2.95-4.53-5.76-8.49-8.42-12.45l1.48-0.94c1.8 2.48 4.35 6.08 7.52 10.8 3.24 4.72 6.95 10.33 11.52 17.24-2.2 1.01-4.03 1.98-5.51 2.92-1.62 0.9-2.55 1.3-3.63 2.56-1.16 1.11-3.07 4.21-2.96 4.57 0.08 0.21 1.37-1.33 3.32-2.56 1.9-1.29 5.5-3.85 7.88-4.75 2.23-0.9 4.07-1.19 5.65-0.72-1.87-3.35-4.39-7.63-7.85-12.85-3.42-5.29-7.63-11.52-12.63-18.69l4.57-5.29c1.08-0.11 1.76-0.47 2.19-0.94 0.29-0.54 0.47-1.72 0-2.01-0.5-0.36-2.12-0.36-2.77 0-0.64 0.21-1.11 0.86-1.26 1.65l-5.51 3.49-2.37-3.31c2.12-1.73 3.85-3.02 5.33-4.03 1.51-1.08 2.41-1.48 3.09-2.02 0.4-0.72 0.29-1.26-0.18-1.62-0.68-0.43-2.3-0.61-2.91-0.39-0.65 0.21-0.8 0.72-0.58 1.65l-6.23 3.68-16.67-19.8c-0.29-5.48-0.97-9.76-1.65-13.25-0.9-3.46-1.87-5.4-2.92-7.35-1.11-2.05-2.12-3.63-3.31-4.75 1.29-2.37 2.09-4.39 2.77-6.05 0.65-1.72 0.9-3.02 0.9-4.03-0.25-1.08-0.86-2.19-1.84-2.37-1.11-0.26-2.84 0.14-4.21 0.9-1.4 0.64-2.88 2.12-4.03 3.31-1.26 1.15-2.34 1.62-3.1 3.49-0.79 1.76-1.22 4.14-1.29 7.13-1.48-0.61-2.77-0.97-4.03-0.94-1.41-0.11-2.67-0.18-3.64 0.76-1.01 0.9-1.58 2.37-2.02 4.57-1.44 1.19-2.48 2.23-3.13 3.13-0.64 0.83-1.04 1.66-0.9 2.2zm33.52 23.98l7.31 12.45 1.29-0.9-8.6-11.55zm10.26 16.13l2.02 2.91 1.26-0.9-2.02-2.91-1.26 0.9zm-10.26-20.16l10.26 14.65 1.26-1.08-11.52-13.57zm13.53 18.5l2.2 2.95 1.3-0.39-2.2-3.46-1.3 0.9zm0.76 8.06l1.84-0.72 16.27 24.73-1.08 0.73-17.03-24.74z"/>
	<path id="path11" style="fill-rule:evenodd;stroke:black;stroke-width:.036;stroke-miterlimit:10;fill:silver" d="m85.406 160.58l6.876-5-3.816-5.98c-1.26 0-1.98-0.39-2.556-0.9-0.684-0.72-0.9-1.62-0.648-2.55 0.252-1.05 0.972-2.95 2.16-3.1 0.972-0.07 2.34 0.65 3.96 2.45 0.648-0.25 1.332 0 2.196 0.9 0.648 0.79 1.44 2.52 2.664 4.21 1.224 1.66 3.168 4.39 5.008 5.87 1.8 1.33 3.74 1.4 5.97 2.56 2.16 1.11 4.97 2.19 7.06 4.21 1.98 1.98 3.63 4.97 4.82 7.41 1.08 2.2 1.73 4.18 1.8 6.38 0.11 2.16 0.11 6.04-1.26 6.66-1.58 0.46-5.72-1.23-7.56-3.57-1.83-2.48-2.88-7.92-3.71-10.62-0.9-2.77-1.29-4.46-2.01-5.61-0.97-1.23-2.09-1.73-3.21-1.66-1.15-0.04-2.08 0.29-3.2 1.26 2.12 0.11 3.53 0.58 4.36 1.55 0.75 0.93 0.79 3.09 0.25 3.96-0.61 0.68-2.77 1.04-3.71 0.65-1.116-0.51-1.98-2.27-2.304-3.21-0.432-1.04-0.216-1.76 0.252-2.55l-4.716-6.02-5.508 4.11 2.7 5.36 2.556-1.55c-0.54-1.22-0.72-2.16-0.396-2.66 0.288-0.58 1.296-0.94 2.052-0.65 0.54 0.18 1.656 1.05 1.8 1.91 0.072 0.68-0.036 1.62-0.9 2.81-0.936 1.11-2.34 2.48-4.356 4.1l0.9 2.67c2.376 0.57 4.464 1.29 6.264 2.55 1.766 1.19 3.956 2.63 4.356 4.47 0.18 1.83-0.5 3.78-2.59 6.26l2.3 2.95c-0.21-1.55 0.22-2.7 1.15-3.31 0.94-0.79 3.14-1.01 4.5-0.65 1.3 0.33 2.49 1.41 3.17 2.95 0.65 1.44 0.87 4.18 0.51 5.87-0.47 1.62-1.48 3.03-3.17 4.07 0.86 0.86 1.15 1.48 1.01 1.98-0.33 0.5-1.52 0.9-2.16 0.76-0.62-0.29-1.08-1.19-1.41-2.56l-2.55 1.91c0.21 0.9 0.43 1.62 0.25 2.16-0.15 0.43-0.76 0.86-1.01 0.9-0.43-0.04-0.83-0.07-1.04-0.51-0.29-0.46-0.51-1.26-0.51-1.8 0.04-0.54 0.11-1 0.51-1.4l-8.932-13.39c-0.792 0.07-1.296-0.36-1.656-0.9-0.36-0.65-0.54-1.59-0.54-2.81-0.684-0.07-1.188-0.32-1.512-0.76-0.468-0.46-0.684-1.33-0.648-2.19-0.036-0.97 0.18-2.13 0.648-3.46l-5.616-9.43c-0.612 0.04-1.116-0.4-1.656-1.3s-0.972-2.3-1.44-4.06c-2.16-4-4.032-7.42-5.616-10.12-1.764-2.81-2.844-4.61-4.068-6.37-1.26-1.84-2.556-3.24-3.06-4.36-0.576-1.19-0.612-2.12-0.252-2.66-0.9-0.61-1.548-1.26-1.944-1.95-0.504-0.75-0.9-1.47-0.756-2.16 0.036-0.75 0.504-1.47 1.26-2.16 1.188 0.87 2.052 1.66 2.448 2.67 0.396 0.86 0.396 1.94 0 2.95-0.108 0.76 0.324 1.91 1.152 3.46 0.828 1.4 2.196 3.13 3.96 5.61 1.692 2.41 3.78 5.44 6.264 9.07-0.288-2.01-0.036-3.27 0.612-4.21 0.576-0.9 2.376-1.33 3.456-1.15 1.008 0.04 2.268 0.72 2.808 1.76 0.432 1.01 0.396 3.21-0.108 4.36-0.54 1.01-1.656 1.69-3.204 1.91 0.432 0.54 0.864 1.08 1.296 1.65zm1.511 3.1c-0.72 0.22-1.404 0.47-1.656 0.9-0.432 0.32-0.432 0.79-0.396 1.4 0.9 1.48 1.62 2.49 2.304 3.17 0.648 0.72 1.296 0.94 1.548 0.79 0.144-0.32-0.252-1.54-0.504-2.55-0.359-1.08-0.792-2.27-1.296-3.71zm7.812 23.11c0.108 0 0.18-0.18 0.36-0.39 0.108-0.29 0.288-0.76 0.54-1.26 1.368 1.51 2.808 3.24 4.32 5.61 1.511 2.23 2.951 4.97 4.611 8.07l-1.41 0.86c-1.33-2.02-2.7-3.92-4.101-6.12-1.403-2.23-2.843-4.36-4.32-6.77zm11.881 2.41c-0.47 0.15-1.23 0.4-1.3 1.3-0.21 0.83-0.18 2.2 0.4 3.56 0.54 1.26 1.94 3.6 2.81 3.96 0.64 0.26 1.29-1.29 1.51-2.3 0.07-1.19-0.15-2.88-0.51-3.96-0.39-1.12-1.22-1.87-1.65-2.27-0.54-0.5-0.86-0.47-1.26-0.29z"/>
	<path id="path13" style="fill-rule:evenodd;fill:#616161" d="m0.806 4.127l-0.252 8.676 0.252 9.324 0.396 6.012s2.592-2.268 3.96-5.004c1.368-2.7 1.26-2.7 1.548-5.868 0.252-3.168 0.252-2.916-0.54-6.768-0.756-3.816-2.52-8.568-2.52-8.568l-2.844 2.196z"/>
	<path id="path15" style="fill-rule:evenodd;stroke:black;stroke-width:.036;stroke-miterlimit:10;fill:silver" d="m6.961 41.027c0.036-0.972 0.504-2.124 1.26-3.456 0.828-1.44 1.764-3.384 3.348-4.716 1.368-1.476 3.168-2.664 5.112-3.564 1.908-0.972 4.5-1.512 6.228-1.908 1.656-0.432 2.844-0.432 3.708-0.288l3.348 3.456c-2.304-0.108-4.392-0.072-6.408 0.396-2.016 0.396-3.852 1.08-5.508 2.052 1.728 0.504 2.916 1.044 3.996 2.016 0.936 0.864 1.62 1.98 1.908 3.348 0.252 1.224 0.252 2.628-0.144 4.212 1.728-1.044 3.384-1.944 5.112-2.304 1.764-0.468 3.384-0.504 5.004-0.396 1.512-0.036 2.736 0.144 3.96 0.396l2.016 3.708c-2.376-0.54-4.788-0.36-7.38 0.396-2.7 0.756-5.94 2.484-8.064 4.068-2.124 1.476-3.6 3.276-4.716 5.112-1.188 1.764-2.088 3.6-2.556 5.508-0.288-0.108-0.792-0.792-1.656-2.052-0.936-1.368-2.196-3.564-3.348-5.616-1.188-2.268-2.88-5.256-3.708-7.02-0.899-1.728-1.403-2.844-1.512-3.348zm4.861-1.907c-0.576 0.504-0.828 0.864-0.9 1.908-0.18 0.864-0.108 2.412 0.36 3.96 0.36 1.548 1.404 4.032 2.304 5.364 0.828 1.26 1.728 2.232 2.7 1.944 0.9-0.504 2.34-3.024 3.06-4.5 0.648-1.548 1.26-3.168 1.008-4.716-0.36-1.692-1.8-3.96-2.808-4.86-1.08-0.9-2.376-0.612-3.312-0.396-0.972 0.179-1.908 0.612-2.412 1.296z"/>
	<path id="path17" style="fill-rule:evenodd;stroke:black;stroke-width:.036;stroke-miterlimit:10;fill:silver" d="m19.49 62.375c0.396-1.656 1.08-3.096 1.908-4.608 0.828-1.584 1.476-2.808 3.06-4.356 1.512-1.692 3.564-3.492 5.76-4.716 2.088-1.08 4.536-1.764 6.516-2.052 1.836-0.396 3.276-0.612 4.464-0.504l2.916 3.853v1.008c-1.584-0.324-3.276-0.144-5.472 0.396-2.268 0.468-4.968 1.26-7.416 2.808-2.484 1.404-5.472 4.464-7.02 6.264-1.692 1.728-2.412 3.168-2.556 4.32-0.216 0.144-0.612 0.072-0.9-0.36-0.433-0.432-0.756-1.116-1.26-2.053z"/>
	<path id="path19" style="stroke:black;stroke-width:.036;stroke-miterlimit:10;fill-rule:evenodd" d="m24.602 55.967c1.08-1.548 2.304-2.952 4.068-4.068 1.728-1.332 3.924-2.268 6.012-2.952 1.944-0.648 3.816-0.9 5.76-0.756-2.448 0.288-4.572 0.9-6.516 1.548-2.052 0.612-3.528 1.512-5.112 2.556-1.585 1.08-2.988 2.161-4.212 3.672z"/>
	<path id="path21" style="fill-rule:evenodd;stroke:black;stroke-width:.036;stroke-miterlimit:10;fill:silver" d="m30.578 30.803l2.7 3.456c0.468-1.08 0.684-1.98 0.648-2.556-0.108-0.612-0.504-1.044-1.044-1.152-0.505-0.144-1.404-0.108-2.304 0.252z"/>
	<path id="path23" style="fill-rule:evenodd;stroke:black;stroke-width:.036;stroke-miterlimit:10;fill:silver" d="m41.306 44.627l2.052 3.168c0.36-0.72 0.576-1.404 0.504-1.908-0.252-0.72-0.54-1.188-1.008-1.404-0.468-0.18-0.937-0.18-1.548 0.144z"/>
	<path id="path25" style="fill-rule:evenodd;fill:#212121" d="m3.253 2.436l1.26-1.008c1.872 2.916 3.276 5.904 4.356 8.82 1.008 2.916 2.952 5.76 1.8 8.676-1.224 2.772-4.212 5.544-8.964 8.172 2.556-2.52 4.176-5.148 4.86-8.172 0.684-3.132-0.576-7.056-1.008-9.828-0.503-2.845-1.403-4.932-2.304-6.66z"/>
	<path id="path27" style="fill-rule:evenodd;stroke:black;stroke-width:.036;stroke-miterlimit:10;fill:silver" d="m49.622 109.1l-3.06-4.21c0.252-1.73 0.9-3.35 1.8-5.002 0.9-1.692 1.908-3.312 3.564-4.86 1.62-1.728 3.672-3.312 5.868-4.464 1.944-1.188 4.032-1.728 6.264-2.16 2.16-0.504 4.464-0.72 6.912-0.648l3.564 4.716-0.252 0.9c-1.8-0.324-3.888-0.108-6.264 0.504-2.52 0.504-6.12 1.944-8.316 3.204s-3.852 2.844-5.112 4.36c-1.44 1.44-2.232 2.7-2.916 4.06-0.684 1.23-1.116 2.38-1.152 3.46-0.289 0.04-0.576 0.07-0.9 0.14z"/>
	<path id="path29" style="stroke:black;stroke-width:.036;stroke-miterlimit:10;fill-rule:evenodd" d="m53.33 98.412c1.008-1.656 2.376-2.88 4.104-4.104 1.764-1.332 3.852-2.268 5.976-2.952 1.944-0.648 3.816-0.9 5.76-0.756-2.448 0.288-4.572 0.9-6.516 1.548-2.052 0.612-3.528 1.512-5.112 2.556s-2.988 2.232-4.212 3.708z"/>
	<path id="path31" style="fill-rule:evenodd;stroke:black;stroke-width:.036;stroke-miterlimit:10;fill:silver" d="m105.71 139.85c0.21-0.9 0.65-1.62 1.15-2.16 0.43-0.61 1.3-1.23 2.05-1.15 0.69 0.03 1.91 0.5 2.27 1.26 0.14 0.61 0.07 1.83-0.61 2.55-0.72 0.58-1.66 1.01-3.21 1.15-0.53-0.54-1.07-1.08-1.65-1.65z"/>
	<path id="path33" style="fill-rule:evenodd;stroke:black;stroke-width:.036;stroke-miterlimit:10;fill:#404040" d="m114.78 153.82c1.62 1.08 2.85 2.08 4.07 3.31 1.08 1.11 1.98 2.63 2.7 3.71 0.61 1.04 0.94 1.65 1.26 2.66 0.25 0.97 0.43 2.09 0.54 3.35-2.84-4.32-5.69-8.68-8.57-13.03z"/>
	<path id="path35" style="fill-rule:evenodd;fill:silver" d="m125.76 171.31c1.59-0.14 2.95 0.07 3.96 0.65 1.01 0.61 1.59 1.55 2.16 2.52 0.4 0.79 0.65 1.51 0.9 2.45 0.29 0.9 0.69 1.83 0.9 2.81 0.11 0.75 0.11 1.44-0.14 2.05-2.59-3.49-5.19-6.99-7.78-10.48z"/>
	<path id="path37" style="fill-rule:evenodd;fill:#212121" d="m126.66 172.97c1.08 0 2.02 0.03 2.67 0.39 0.61 0.18 0.9 0.47 1.29 1.41 0.29 0.9 0.51 2.3 0.65 4.21-1.51-1.98-3.06-4-4.61-6.01z"/>
	<path id="path39" style="fill-rule:evenodd;fill:white" d="m109.67 165.44c-0.07 0.8 2.01 5.84 3.06 8.32 0.9 2.45 1.62 4.68 2.55 6.26 0.94 1.44 2.31 2.85 2.7 2.42 0.18-0.62-0.21-3.28-1.04-5.62-0.94-2.34-2.45-6.62-3.71-8.42-1.33-1.98-3.49-3.89-3.56-2.96z"/>
	<path id="path41" style="fill-rule:evenodd;fill:white" d="m106.97 160.33c1.55 0.61 5.51 2.13 7.31 3.85 1.69 1.55 2.66 4.58 3.31 6.02 0.61 1.44 1.01 2.98 0.65 2.55-0.61-0.57-2.05-4.25-3.35-5.76-1.33-1.62-2.56-2.66-4.21-3.71-1.8-1.11-5.19-2.37-5.87-2.8-0.61-0.62 0.43-0.76 2.16-0.15z"/>
	<path id="path43" style="fill-rule:evenodd;fill:white" d="m99.842 164.83c-0.396 0.15-0.252 0.61 0 1.26 0.178 0.61 0.828 2.34 1.258 2.56 0.33 0.07 0.58-1.23 0.76-1.8 0.07-0.61 0.25-1.48 0-1.77-0.36-0.36-1.73-0.39-2.018-0.25z"/>
	<path id="path45" style="fill-rule:evenodd;fill:white" d="m92.282 175.16c0.828 0.44 3.24 1.91 4.464 3.32 1.152 1.26 2.376 3.49 2.556 4.35 0 0.72-1.188 1.05-2.016 0.4-0.9-0.76-1.836-3.13-2.808-4.36-1.044-1.29-2.772-2.45-3.096-3.06-0.432-0.61 0-1.15 0.9-0.65z"/>
	<path id="path47" style="fill-rule:evenodd;fill:white" d="m110.03 188.09c0.5 0.36 1.3 1.73 1.55 2.55 0.18 0.76-0.36 2.13-0.51 2.02-0.25-0.22-0.5-2.66-0.9-3.31-0.36-0.69-1.65-1.12-1.54-1.15-0.01-0.22 0.79-0.58 1.4-0.11z"/>
	<path id="path49" style="fill-rule:evenodd;fill:white" d="m102.51 192.16c0.43 0.9 1.62 2.91 2.44 4.1 0.8 1.04 2.2 2.63 2.27 2.41-0.11-0.29-1.29-2.45-2.16-3.71-0.97-1.36-2.37-3.92-2.81-4.32-0.36-0.5-0.32 0.51 0.26 1.52z"/>
	<path id="path51" style="fill-rule:evenodd;fill:white" d="m82.31 157.52c-0.324-0.21-0.576-1.26-0.756-2.01-0.18-0.83-0.18-2.2 0-2.7 0.18-0.61 0.756-1.01 0.9-0.76 0 0.15-0.504 1.15-0.396 1.91 0.072 0.68 0.468 1.76 0.648 2.41-0.037 0.58-0.216 1.19-0.396 1.15z"/>
	<path id="path53" style="fill-rule:evenodd;fill:white" d="m89.078 158.82c0.612-0.79 1.98-1.66 2.844-2.3 0.72-0.72 1.908-1.52 2.016-1.41 0.036 0.11-0.432 0.76-1.404 1.8-1.152 0.9-3.924 3.39-4.572 3.71-0.504 0.18 0.288-1.12 1.116-1.8z"/>
	<path id="path55" style="fill-rule:evenodd;fill:#212121" d="m98.438 177.97c-0.324 0.11 0.756 1.69 1.008 2.81 0.144 1.01-0.18 2.99 0.144 3.46 0.252 0.28 1.44-0.47 1.76-1.16 0.22-0.75 0.33-2.23-0.1-3.06-0.54-0.97-2.596-2.16-2.812-2.05z"/>
	<path id="path57" style="fill-rule:evenodd;fill:#212121" d="m88.826 148.99c0.396 0.15 0.612 0 1.044-0.29 0.252-0.36 0.72-0.86 1.008-1.65-0.216 0.39-0.036 1.08 0.396 2.05 0.468 0.94 2.016 3.42 2.16 3.71-0.108 0.11-1.62-1.95-2.16-2.56-0.576-0.54-0.648-0.79-1.044-0.9-0.432-0.25-0.9-0.32-1.404-0.36z"/>
	<path id="path59" style="fill-rule:evenodd;fill:#212121" d="m95.485 155.62c0.324 0.39 3.492 4.82 3.816 5.5 0.18 0.51-1.656-1.33-2.304-2.19-0.647-0.97-1.943-3.75-1.512-3.31z"/>
	<path id="path61" style="fill-rule:evenodd;fill:#212121" d="m103.01 165.84c-0.29 0.11-0.36 1.22-0.36 1.8 0 0.4 0.07 0.97 0.36 0.9 0.22-0.18 0.94-0.97 1.04-1.4-0.1-0.51-0.82-1.44-1.04-1.3z"/>
	<path id="path63" style="fill-rule:evenodd;fill:#212121" d="m82.598 162.02c0.036-0.5 0.252-0.79 0.504-1.15 0.252-0.39 0.864-1.26 1.008-0.79-0.072 0.4-0.468 2.48-0.756 3.2-0.36 0.44-0.936 0.47-1.044 0.26-0.072-0.36 0.072-1.05 0.288-1.52z"/>
	<path id="path65" style="fill-rule:evenodd;fill:#212121" d="m91.778 178.22c0 0.11 0.9 0.51 1.152 1.05 0.18 0.47-0.108 2.01 0.108 2.16 0.144 0.07 0.504-1.05 0.648-1.55-0.18-0.72-0.432-1.4-0.756-1.76-0.396-0.26-1.152-0.22-1.152 0.1z"/>
	<path id="path67" style="fill-rule:evenodd;fill:#212121" d="m93.83 181.57c0 0.15 0.9 0.43 1.152 1.01 0.18 0.54-0.108 1.91 0.108 2.16 0.144 0 0.504-0.97 0.648-1.51-0.18-0.69-0.432-1.48-0.756-1.8-0.397-0.29-1.152-0.15-1.152 0.14z"/>
	<path id="path69" style="fill-rule:evenodd;stroke:black;stroke-width:.036;stroke-miterlimit:10;fill:silver" d="m105.56 204.07l5.87 7.67c-0.5-2.12-0.57-3.74-0.36-4.86 0.18-1.15 0.72-1.84 1.77-2.05 1-0.43 2.88-0.97 4.1-0.11 1.12 0.79 2.16 3.64 2.3 5.22-0.07 1.58-1.29 3.64-2.3 4.21-1.12 0.47-2.34-0.21-3.96-1.65l0.11 1.65c0.86 0.58 1.33 1.23 1.69 1.8 0.29 0.58 0.32 1.08 0.11 1.66l4.21 5.51c-0.72-2.02-1.15-3.5-1.15-4.86-0.11-1.48 0.14-2.45 1.04-3.06 0.87-0.69 3.13-0.72 4.47-0.26 1.33 0.47 2.66 1.66 3.45 3.42 0.61 1.77 0.83 5.26 0.65 7.02-0.36 1.59-1.15 2.31-1.94 2.85-0.76 0.47-1.7 0.47-2.67 0 4.54 6.8 8.25 12.38 11.13 16.59 2.84 4.22 4.75 7.06 5.86 8.68l-1.29 1.15c0.11 1.05 0.14 2.2 0.39 3.31 0.22 1.19 0.47 2.34 0.76 3.46 0.07 0.9 0.25 1.62 0.14 2.3-0.14 0.65-0.54 1.12-1.04 1.55 0.65 0.9 0.9 1.8 0.9 2.31-0.04 0.54-0.61 0.97-1.15 1-0.61-0.1-2.16-0.57-2.56-1.26-0.5-0.72-0.57-2.26-0.36-2.7 0.18-0.5 0.51-0.72 1.26-0.5 0.54-0.76 0.79-1.73 0.9-3.06-0.03-1.44-0.07-3.2-0.65-4.75-0.57-1.66-2.16-3.13-2.8-4.57-0.8-1.52-1.3-2.7-1.66-3.96-0.4-1.26-0.61-2.38-0.65-3.35l-2.81-3.57c-0.36 0.83-0.43 1.8-0.36 3.21 0.04 1.33 0.33 3.31 0.87 4.82 0.43 1.41 1.04 2.77 1.69 3.96 0.5 1.05 0.97 1.77 1.4 2.7 0.29 0.83 0.54 1.73 0.62 2.56 0.03 0.75 0 1.44-0.11 2.05 0.5 0.4 0.75 0.72 0.9 1.26 0.11 0.43 0.07 1.4-0.25 1.55-0.51-0.11-1.88-0.51-2.45-1.05-0.65-0.39-1.44-1.22-1.41-1.65-0.03-0.51 0.4-1.19 1.3-1.66 0.5-0.54 0.76-1.22 0.61-2.05-0.18-0.9-0.97-2.09-1.4-3.17-0.58-1.22-1.23-2.19-1.66-3.6-0.54-1.47-1.01-2.77-1.26-4.86-0.32-2.12-0.5-4.71-0.54-7.77l-5.36-7.92c-0.76 0.1-1.3-0.08-1.77-0.4-0.46-0.4-0.72-1.22-0.9-1.91-0.21-0.79-0.21-1.73-0.14-2.81l-5.22-6.26c-0.61 0.22-1.08 0.18-1.4-0.11-0.36-0.36-0.8-0.97-0.9-1.69-0.15-0.72-0.36-1.62-0.26-2.56l-6.51-8.53c0.25-0.29 0.5-0.57 0.75-0.9zm14.19 12.78c-0.43 0.79-0.47 1.98-0.11 3.57 0.29 1.4 1.01 3.81 2.02 4.71 0.9 0.76 3.02 0.72 3.6-0.11 0.39-1 0.03-3.96-0.54-5.36-0.69-1.55-2.13-2.88-2.92-3.31-0.97-0.54-1.65-0.18-2.05 0.5z"/>
	<path id="path71" style="fill-rule:evenodd;fill:white" d="m114.39 205.73c-0.47-0.33-1.26-0.11-1.55 0.25-0.43 0.32-0.69 1.37-0.61 2.16 0.07 0.79 0.46 2.66 0.75 2.56 0-0.22-0.29-3.21 0.11-3.71 0.43-0.69 2.09 0.29 2.45 0.14 0.07-0.29-0.69-1.22-1.15-1.4z"/>
	<path id="path73" style="fill-rule:evenodd;fill:white" d="m126.77 221.06c0.22 1.01 0.4 2.67 0.4 3.71-0.04 0.9-0.47 1.62-0.9 2.16-0.65 0.4-2.02 0.79-2.16 0.76-0.11-0.15 1.04-0.58 1.51-1.15 0.47-0.65 0.68-1.41 0.79-2.67-0.14-1.44-0.9-4.89-0.9-5.36 0.07-0.47 0.86 1.4 1.26 2.55z"/>
	<path id="path75" style="fill-rule:evenodd;fill:#404040" d="m113.88 211.74c-0.07-0.14 0.87 0.9 1.26 0.76 0.33-0.44 0.9-2.16 1.15-2.42 0.29-0.21 0.47 0.76 0.4 1.41-0.22 0.54-1.15 1.91-1.55 2.01-0.61-0.07-1.22-1.58-1.26-1.76z"/>
	<path id="path77" style="fill-rule:evenodd;stroke:black;stroke-width:.036;stroke-miterlimit:10;fill:silver" d="m127.56 229.34c-0.29 1.48-0.29 2.67 0 3.71 0.29 1.08 1.15 1.95 1.77 2.31 0.43 0.14 0.75-1.3 1.4-1.01s2.16 2.66 2.45 2.55c0.03-0.21-0.76-3.2-1.41-3.7-0.79-0.62-1.98 0.68-2.3 0.14-0.25-0.72-0.18-1.87 0.76-3.6 0.82-1.76 3.06-4.39 4.21-6.37 0.93-2.02 1.29-4.03 1.91-5.37 0.43-1.33 0.9-2.26 1.54-2.8 0.65-0.83 1.52-1.12 2.31-1.16 0.65 0 1.29 0.47 1.8 1.41-0.65 1.04-0.65 1.8-0.4 2.66 0.22 0.83 1.26 1.84 2.16 2.05 0.9-0.03 2.67-0.86 3.21-1.65 0.35-0.97-0.19-2.59-0.65-3.31-0.54-0.72-1.3-0.94-2.41-0.8l-1.05-2.01 3.6-2.05c0.79 1.22 1.51 2.16 2.31 2.8 0.68 0.65 1.4 0.94 2.16 1.01l2.41-1.91c0.57-2.16 0.57-3.81 0.14-5.11-0.5-1.33-2.09-2.12-2.95-2.66-0.97-0.65-1.87-1.37-2.56-0.9-0.75 0.43-1.29 1.44-1.76 3.31l-4.86 2.16-4.46-5.22c0-1.04-0.22-1.76-0.8-2.3-0.64-0.65-1.87-0.9-2.55-0.76-0.72 0.18-1.19 1.04-1.41 1.91-0.28 0.75-0.46 2.16-0.1 2.81 0.28 0.57 0.82 0.64 1.76 0.5 0.83 0.65 1.3 2.02 1.4 3.96 0 2.05-0.28 5.4-0.86 7.67-0.65 1.94-1.87 3.2-2.7 4.61-0.86 1.36-1.8 2.59-2.41 3.81-0.72 1.15-1.23 2.31-1.66 3.31z"/>
	<path id="path79" style="fill-rule:evenodd;fill:white" d="m134.94 202.52c-0.32-0.25-2.38 0.15-2.41 0.65-0.07 0.33 1.4 1.62 1.91 1.55 0.36-0.14 0.75-1.98 0.5-2.2z"/>
	<path id="path81" style="fill-rule:evenodd;fill:white" d="m143.76 215.95c-0.43-0.07-0.68 1.41-0.61 1.91 0.04 0.43 0.32 1.01 0.86 1.04 0.36-0.07 1.7-0.68 1.66-1.15-0.22-0.57-1.4-1.87-1.91-1.8z"/>
	<path id="path83" style="fill-rule:evenodd;fill:white" d="m148.48 210.08c0.39 0.76 0.86 1.26 1.55 1.66 0.64 0.32 1.51 0.54 2.44 0.5 0.33-0.68 0.54-1.4 0.51-2.16-0.07-0.82-0.29-1.69-0.65-2.44-0.36-0.76-1.01-1.44-1.65-2.06 0.64 0.98 1.11 1.91 1.4 2.96 0.21 1 0.25 1.98 0.11 3.06-0.8-0.18-1.37-0.4-2.02-0.65-0.69-0.25-1.15-0.54-1.69-0.87z"/>
	<path id="path85" style="fill-rule:evenodd;fill:#404040" d="m142.25 210.95c2.05-1.01 3.71-1.77 5.11-2.27 1.33-0.54 2.31-0.94 2.92-1.04 0.57 0.86 0.79 1.33 0.79 1.8-0.11 0.43-0.65 0.46-1.04 0.5-0.44-0.14-0.9-0.43-1.41-1.01-1.29 0.47-2.44 0.94-3.45 1.26-1.12 0.33-2.09 0.58-2.92 0.76z"/>
	<path id="path87" style="fill-rule:evenodd;stroke:black;stroke-width:.036;stroke-miterlimit:10;fill:#404040" d="m196.39 274.45c-0.1 0.69 0.29 1.8 1.05 2.95 0.72 1.16 1.91 2.56 3.56 4.22 1.15-0.47 2.34-1.12 3.56-1.8 1.23-0.87 2.7-1.62 3.61-2.67 0.72-1.08 0.79-2.37 0.75-3.35-0.11-1.11-1.04-2.05-1.55-2.66-0.64-0.65-1.18-1.04-2.16-0.9-1.11 0.11-2.48 0.76-3.96 1.55-1.47 0.65-3.09 1.58-4.86 2.66z"/>
	<path id="path89" style="fill-rule:evenodd;stroke:black;stroke-width:.036;stroke-miterlimit:10;fill:silver" d="m135.08 240.97c0-0.5 0.04-0.97 0.4-1.4 0.29-0.51 1.22-0.97 1.4-1.26 0.04-0.36-0.5-0.72-0.79-0.65-0.39 0-0.86 0.25-1.4 0.76-0.76-0.29-1.3-0.33-1.77-0.11-0.57 0.11-1.15 0.54-1.04 1.15 0.07 0.61 0.68 1.55 1.55 2.66 0.79 1.12 1.76 2.34 3.06 4.22 1.15 1.8 2.73 3.88 4.35 6.4 1.48-2.62 3.35-4.96 5.48-7.02 2.19-2.19 4.89-3.85 7.27-5.36 2.27-1.51 4.68-2.02 6.26-3.46 1.44-1.65 2.49-4.17 2.45-5.76-0.11-1.54-1.58-3.2-3.06-3.31-1.69-0.11-4.72 0.94-6.16 2.31-1.36 1.18-1.62 3.34-2.3 4.96-0.86 1.48-1.62 2.74-2.66 4.36-1.23 1.55-2.78 3.74-4.22 5.22-1.47 1.4-2.88 2.7-4.35 3.6-1.48-2.41-2.95-4.86-4.47-7.31z"/>
	<path id="path91" style="fill-rule:evenodd;fill:white" d="m152.58 235.36c-0.86 0.57-2.38 2.44-3.71 4.1-1.44 1.51-4.28 4.97-4.21 5.11 0.11 0.04 3.38-3.53 4.97-4.86 1.51-1.44 3.38-2.77 3.96-3.45 0.39-0.76-0.22-1.48-1.01-0.9z"/>
	<path id="path93" style="fill-rule:evenodd;fill:#404040" d="m151.68 238.42c0.9-0.72 2.56-1.98 3.6-2.27 0.94-0.33 2.13-0.11 1.91 0.36-0.36 0.39-2.48 1.4-3.6 2.05-1.23 0.54-3.02 1.51-3.31 1.55-0.43-0.11 0.54-1.05 1.4-1.69z"/>
	<path id="path95" style="fill-rule:evenodd;fill:#404040" d="m157.55 232.69c0.22 0.69 0.47 2.38 0.9 2.56 0.39 0.03 1.51-1.12 1.55-1.8-0.07-0.76-1.41-2.02-1.91-2.41-0.58-0.4-1.69-0.54-1.69-0.15-0.08 0.33 0.68 0.97 1.15 1.8z"/>
	<path id="path97" style="fill-rule:evenodd;fill:white" d="m133.79 238.96c-0.29-0.11-0.5 0.1-0.5 0.5 0 0.25 0.21 1.4 0.5 1.51 0.18-0.03 0.58-0.79 0.65-1.15-0.07-0.47-0.47-0.76-0.65-0.86z"/>
	<path id="path99" style="fill-rule:evenodd;stroke:black;stroke-width:.036;stroke-miterlimit:10;fill:#404040" d="m113.2 187.08c1.83 0.61 3.02 1.48 3.42 2.74 0.39 1.26 0.11 2.66-0.87 4.6 0.18-1.54 0.08-2.91-0.32-4.1-0.5-1.26-1.12-2.34-2.23-3.24z"/>
	<path id="path101" style="fill-rule:evenodd;stroke:black;stroke-width:.036;stroke-miterlimit:10;fill:#404040" d="m117.12 203.68c0.33-1.08 0.9-1.66 1.73-1.73 0.79-0.11 1.76 0.29 3.06 1.19-1.48-0.08-2.45 0.1-3.06 0.54-0.65 0.32-0.83 0.93-0.54 1.69-0.4-0.54-0.79-1.12-1.19-1.69z"/>
	<path id="path103" style="fill-rule:evenodd;stroke:black;stroke-width:.036;stroke-miterlimit:10;fill:#404040" d="m119.86 206.05c1.15 0.4 1.72 0.9 1.72 1.37 0 0.5-0.68 0.97-1.9 1.55 0.03-0.97 0.11-1.95 0.18-2.92z"/>
	<path id="path105" style="fill-rule:evenodd;stroke:black;stroke-width:.036;stroke-miterlimit:10;fill:#404040" d="m120.04 212.89c1.15 0.07 2.05 0 2.55-0.36 0.47-0.43 0.69-1.01 0.51-1.87-0.33 0.14-0.72 0.43-1.19 0.86-0.47 0.33-1.22 0.83-1.87 1.37z"/>
	<path id="path107" style="fill-rule:evenodd;stroke:black;stroke-width:.036;stroke-miterlimit:10;fill:#404040" d="m124.97 213.58c0.18-0.76 0.54-0.98 1.22-1.05 0.69-0.11 1.88 0.18 2.74 0.87 0.83 0.64 1.51 1.72 2.05 3.09 0.36 1.3 0.47 2.99 0.33 4.93l-1.37 1.55c0.39-2.55 0.07-4.61-0.69-6.15-0.9-1.59-2.23-2.67-4.28-3.24z"/>
	<path id="path109" style="fill-rule:evenodd;stroke:black;stroke-width:.036;stroke-miterlimit:10;fill:#404040" d="m138.83 233.74c-0.54 2.55-0.32 4.17 0.5 5.14 0.76 0.83 3.5 1.26 4.47 0.33 0.9-1.01 1.8-5.01 1.19-6.16-0.65-1.22-2.42-1.62-5.15-1.19 1.87 0 3.13 0.4 3.78 1.19 0.61 0.79 0.03 2.59-0.18 3.6-0.43 0.94-1.05 1.66-1.69 1.87-0.65 0.11-1.66-0.28-2.06-1.04-0.54-0.79-0.82-2.09-0.86-3.74z"/>
	<path id="path111" style="fill-rule:evenodd;fill:white" d="m175.8 267.83c0.22 0.47-2.91-3.13-4.93-4.57-2.2-1.41-4.86-2.09-7.17-3.86-2.37-1.87-5.14-5.22-6.22-7.12-1.12-2.13-1.05-5.55-0.18-4.97 0.75 0.57 2.91 6.3 4.96 8.42 1.91 1.98 4.68 1.84 6.95 3.85 2.23 1.98 6.19 7.6 6.59 8.25z"/>
	<path id="path113" style="fill-rule:evenodd;fill:white" d="m173.78 272.44c0.29 0.57 6.7 9.57 10.62 15.19 3.78 5.51 10.16 15.69 11.92 17.93 1.51 2.05 0.43-1.55-1.84-5.12-2.3-3.74-8.1-11.59-11.55-16.3-3.57-4.83-9.4-12.24-9.15-11.7z"/>
	<path id="path115" style="fill-rule:evenodd;fill:white" d="m174.32 257.57c-0.03-0.87-0.57-4.07-1.62-6.41-1.26-2.34-4.21-6.84-4.96-7.13-0.76-0.32-0.54 3.13 0.36 5.11 0.86 1.84 3.42 4.79 4.6 6.23 1.01 1.37 1.55 2.85 1.62 2.2z"/>
	<path id="path117" style="fill-rule:evenodd;fill:white" d="m166.66 238.88c0.25-1.15 1.69-4.14 2.91-5.47 1.05-1.4 3.28-3.13 3.49-2.55 0.15 0.57-1.62 4.42-2.37 6.01-0.83 1.51-2.02 2.3-2.59 2.77-0.76 0.32-1.7 0.22-1.44-0.76z"/>
	<path id="path119" style="fill-rule:evenodd;fill:#404040" d="m170.11 238.34c0.43-1.4 3.13-5.94 3.67-6.22 0.44-0.22-0.46 3.31-0.89 4.75-0.54 1.22-1.59 2.66-2.02 2.95-0.54 0.25-1.3-0.29-0.76-1.48z"/>
	<path id="path121" style="fill-rule:evenodd;fill:#404040" d="m166.08 241.66c0.36-0.36 0.86-0.44 1.66-0.36 0.68-0.08 2.37-0.11 3.13 0.18 0.72 0.25 1.22 1.33 1.08 1.44-0.43 0-1.62-1.05-2.74-0.9-1.08 0.1-2.98 0.75-3.49 1.65-0.61 0.87-0.83 1.37 0.18 3.46 0.94 2.05 5.04 7.7 5.51 8.6 0.29 0.72-2.45-2.3-3.49-3.81-1.12-1.59-2.67-3.96-3.1-5.33-0.5-1.44-0.36-2.34 0-3.1 0.18-0.9 0.65-1.51 1.26-1.83z"/>
	<path id="path123" style="fill-rule:evenodd;fill:#404040" d="m162.98 247.52c0.44 0.8 2.6 4 5.12 7.67 2.41 3.53 8.78 12.53 9.54 13.39 0.68 0.76-3.17-5.68-5.15-8.64-2.13-3.13-5.37-7.45-6.95-9.5-1.62-2.12-3.02-3.74-2.56-2.92z"/>
	<path id="path125" style="fill-rule:evenodd;fill:#404040" d="m154.38 248.6c0 1.01 0.15 2.49 0.72 3.86 0.58 1.36 2.13 3.52 2.56 3.85 0.29 0.14-0.22-1.62-0.54-2.95-0.47-1.52-1.3-4.11-1.66-5.3-0.54-1.15-0.5-1.83-0.72-1.65-0.25 0-0.47 1.19-0.36 2.19z"/>
	<path id="path127" style="fill-rule:evenodd;fill:#404040" d="m151.07 251.34c-0.97 0.94-1.59 1.73-1.84 2.38-0.36 0.57-0.68 1.44 0 1.47 0.61-0.07 1.73-0.57 3.49-1.65-0.07-0.58-0.32-1.12-0.36-1.62-0.07-0.51-0.32-1.05-0.36-1.48-0.28 0.29-0.61 0.58-0.93 0.9z"/>
	<path id="path129" style="fill-rule:evenodd;fill:white" d="m205.47 282.3c-0.22-0.25-0.51-0.25-0.72 0-0.33 0.14-0.65 1.04-0.54 1.3 0 0.18 0.86 0.18 1.07 0 0.15-0.26 0.26-1.16 0.19-1.3z"/>
	<path id="path131" style="fill-rule:evenodd;fill:white" d="m208.78 288.17c-0.47-0.07-1.37 0.61-1.3 0.93 0 0.15 1.58 0.65 1.84 0.54 0.18-0.14-0.33-1.47-0.54-1.47z"/>
	<path id="path133" style="fill-rule:evenodd;fill:white" d="m197.62 288.17c0.43-0.47 3.99-2.74 4.57-2.92 0.32-0.21-1.48 1.48-2.2 2.02-0.82 0.43-2.73 1.19-2.37 0.9z"/>
	<path id="path135" style="fill-rule:evenodd;fill:white" d="m202.91 294.22c0.32-0.18 3.24-2.45 3.49-2.92 0.18-0.5-1.65-0.4-2.19 0.18-0.73 0.4-1.66 2.74-1.3 2.74z"/>
	<path id="path137" style="fill-rule:evenodd;fill:white" d="m198.7 308.15c1.01 1.55 2.48 3.96 4.57 6.95 2.05 3.09 4.57 6.62 7.7 11.16l1.12-0.73c-1.37-1.69-3.1-3.81-5.33-6.76-2.23-2.96-4.97-6.45-8.06-10.62z"/>
	<path id="path139" style="fill-rule:evenodd;stroke:black;stroke-width:.036;stroke-miterlimit:10;fill:silver" d="m191.75 330.9c0.65 0.83 1.15 1.62 1.65 2.38 0.51 0.75 1.16 1.47 1.26 2.01 0 0.43-0.35 1.08-1.08 0.54-0.79-0.72-1.8-2.09-3.31-4.39-0.72 0.25-1.4 0.32-1.65 0.36-0.36-0.11-0.44-0.11-0.36-0.54 0-0.43 0.07-1.15 0.36-2.02l-9.51-14.29c-1.19 0.22-2.12 0.04-2.41-0.54-0.4-0.65-0.32-1.69 0.22-3.13l-12.28-18.11c-1.37-0.22-2.23-0.54-2.59-1.12-0.43-0.57-0.36-1.26 0.22-2.19l-6.63-9.15c-2.81 0.08-4.75-0.14-6.23-0.35-1.51-0.29-1.98-0.72-2.37-1.3-0.51-0.65-0.51-1.62 0-2.38 0.46-0.82 1.51-1.8 3.13-2.77l-3.85 1.66c-1.26-0.54-2.2-1.26-2.96-2.02-0.79-0.9-1.98-2.52-1.62-2.91 0.22-0.54 2.7 0.32 3.28 0.36 0.5 0.03 0.5 0.03 0 0 0.18-1.37 0-2.85-0.54-4.58-0.61-1.76-2.12-4.5-2.74-5.68-0.79-1.26-1.15-1.66-1.47-1.48l-0.72-4.03c0.43-0.18 1.47 0.97 3.27 3.85 1.77 2.74 6.16 11.23 7.35 12.85 0.97 1.41 0.32-0.65-1.12-3.67-1.47-3.13-3.92-7.78-7.49-14.47l1.08-2.2c2.63 4.97 4.76 9.25 6.77 13 1.95 3.74 3.49 6.66 4.79 9.14 1.33-0.54 2.05-1.33 2.56-2.37 0.28-1.05-0.04-2.85 0-3.86 0-1.18-0.4-2.05 0.18-2.73 0.47-0.69 1.83-1.44 3.13-1.3 1.33 0 3.17 0.51 4.39 1.66 1.08 1.11 1.87 3.63 1.8 5.33-0.36 1.72-1.76 3.67-3.09 4.57-1.44 0.68-3.64-0.58-4.94-0.18-1.36 0.32-2.3 1.11-2.95 2.37l7.89 10.8c-0.8-2.3-1.05-4.17-0.9-6.05 0.1-1.94 0.75-3.63 1.8-4.93 0.93-1.36 2.41-2.7 4.03-2.73 1.48-0.07 4.03 0.97 5.33 2.55 1.19 1.59 2.05 4.58 2.19 6.59 0.04 1.94-0.47 3.67-1.65 4.75-1.3 0.87-3.89 0.47-5.29 0.76-1.44 0.14-2.67 0.18-3.14 0.54-0.61 0.36-0.57 0.76-0.18 1.48 1.66 2.62 3.49 5.25 5.51 8.42 2.02 3.06 4.21 6.3 6.59 9.86l0.54-4.93c-0.76-1.37-1.01-2.66-0.9-4.03 0.04-1.48 0.58-3.38 1.62-4.21 1.01-0.94 2.81-1.62 4.43-1.08 1.55 0.32 3.35 2.09 4.57 3.63 1.01 1.55 1.8 3.82 1.84 5.69-0.15 1.73-1.05 3.64-2.02 4.75-1.08 1.08-2.41 1.3-3.85 1.48-1.44 0.04-2.92-0.32-4.58-1.08l-0.39 1.62 3.85 6.8c0.79-1.4 1.73-2.62 2.95-3.67 1.15-1.08 3.6-2.91 4.03-2.73 0.33 0.1-1.26 2.37-1.83 3.45-0.69 0.9-1.59 1.62-2.02 2.56-0.5 0.97-0.86 2.48-0.94 3.13-0.18 0.5-0.18 0.5 0 0l4.79 6.77 0.18-4.39c-0.65-1.19-0.9-2.42-0.75-3.68 0.1-1.36 0.61-2.98 1.65-4.03 1.01-1.11 2.85-2.12 4.39-2.19 1.48-0.18 2.74 0.43 4.22 1.83 1.44 1.48 3.24 4.43 3.85 6.77 0.32 2.31-0.32 5.11-1.26 6.63-0.94 1.22-2.85 1.58-4.21 1.61-1.55 0-2.99-0.32-4.61-1.26l-1.62 0.36c0.11 0.62 0.21 1.23 0.36 1.84zm-26.75-52.38c-0.29 0.79-0.4 1.87-0.18 3.1 0.04 1.22 0.32 3.09 1.26 4.21 0.86 1.04 3.42 1.76 4.61 2.01 1.15-0.07 1.91-0.36 2.55-1.26 0.54-0.9 0.98-2.01 0.9-3.49-0.18-1.58-0.86-4.1-1.65-5.33-0.97-1.29-2.45-1.83-3.46-2.01-0.97-0.25-1.76 0.03-2.37 0.57-0.72 0.44-1.41 1.3-1.66 2.2zm13.18 22.72c0 1.4 0.86 3.34 1.47 4.57 0.54 1.15 0.94 1.65 2.02 2.19 1.01 0.47 3.06 0.72 4.21 0.36 1.08-0.47 1.95-1.94 2.2-3.31 0.03-1.59-0.29-4.11-1.12-5.47-0.9-1.41-2.23-2.45-3.45-2.74-1.3-0.39-2.95-0.22-3.86 0.54-0.93 0.72-1.47 2.38-1.47 3.86zm13.93 15.91c-0.97 1.01-1.19 2.41-0.94 4.21 0.29 1.66 1.33 4.43 2.59 5.69 1.05 1.11 2.96 1.44 4.22 1.11 1.18-0.43 2.88-1.72 3.27-3.31 0.33-1.76-0.36-4.82-1.08-6.41-0.93-1.58-2.3-2.59-3.67-2.73-1.48-0.29-3.49 0.47-4.39 1.44z"/>
	<path id="path141" style="fill-rule:evenodd;stroke:black;stroke-width:.036;stroke-miterlimit:10;fill:#404040" d="m166.26 279.96c0.04-1.12 0.51-1.84 1.12-2.02 0.61-0.21 1.98 0.04 2.73 0.76 0.79 0.5 1.3 1.55 1.66 2.74 0.18 1.15 0.11 3.52-0.36 4.21-0.65 0.54-1.84 0.03-2.74-0.54-0.86-0.65-1.55-1.69-2.19-3.14-0.33 1.23-0.25 2.27 0.36 3.14 0.54 0.75 2.09 1.69 3.09 1.83 0.9 0.15 1.95-0.21 2.56-0.93 0.54-0.87 0.79-2.27 0.76-3.64-0.18-1.44-0.58-3.67-1.48-4.61-1.08-0.93-3.02-1.4-4.03-1.26-0.94-0.03-1.33 0.61-1.48 1.26-0.29 0.51-0.29 1.34 0 2.2z"/>
	<path id="path143" style="fill-rule:evenodd;stroke:black;stroke-width:.036;stroke-miterlimit:10;fill:#404040" d="m180.19 301.96c0.04-1.52 0.36-2.38 1.12-2.74 0.68-0.36 2.55-0.07 3.27 0.72 0.62 0.79 0.87 3.17 0.76 4.21-0.18 0.97-0.72 1.62-1.48 1.66-0.79-0.04-1.83-0.54-3.13-1.66 0.47 1.51 1.08 2.56 1.84 3.13 0.72 0.47 1.51 0.72 2.37 0.36 0.72-0.36 1.59-1.04 2.02-2.19 0.29-1.23 0.18-3.31-0.18-4.61-0.43-1.26-1.26-2.41-2.2-2.92-1.15-0.57-2.95-0.75-3.85-0.54-0.97 0.15-1.11 0.83-1.26 1.66-0.03 0.72 0.07 1.69 0.72 2.92z"/>
	<path id="path145" style="fill-rule:evenodd;stroke:black;stroke-width:.036;stroke-miterlimit:10;fill:#404040" d="m192.11 322.3c-0.36-0.76-0.47-1.55-0.18-2.38 0.14-0.94 0.83-2.23 1.65-2.77 0.87-0.58 2.45-1.08 3.64-0.54 1.01 0.54 2.45 1.98 2.95 3.49 0.47 1.3 0.47 3.53 0 4.75-0.57 1.15-1.83 2.38-2.95 2.56-1.19 0-2.41-0.54-3.82-2.02 2.06 0.36 3.53 0.25 4.58-0.18 1-0.54 1.26-1.44 1.44-2.55 0.07-1.19-0.18-3.03-0.9-3.86-0.8-0.86-2.56-1.22-3.5-1.08-0.9 0.22-1.62 0.87-2.01 1.8-0.54 0.79-0.79 1.62-0.9 2.78z"/>
	<path id="path147" style="fill-rule:evenodd;fill:white" d="m163.52 266.06c0.8 1.01 1.34 1.98 1.48 2.92 0.11 0.94-0.07 1.98-0.54 2.74-0.54 0.75-1.3 1.11-2.41 1.47-1.4-0.93-2.2-1.94-2.38-2.73-0.25-0.87 0.4-1.66 1.12-2.38 0.57-0.79 1.58-1.37 2.73-2.02z"/>
	<path id="path149" style="fill-rule:evenodd;fill:white" d="m152.73 275.39c-1.73 0.68-2.6 1.29-2.74 1.83-0.11 0.51 0.97 0.94 1.84 1.3 0.64 0.22 1.44 0.43 2.37 0.36-0.47-1.15-0.97-2.3-1.47-3.49z"/>
	<path id="path151" style="fill-rule:evenodd;fill:white" d="m146.86 269.34l1.83 3.31c-0.43 1.12-1.04 1.8-1.83 1.66-0.94-0.15-3.28-1.8-3.28-2.2-0.07-0.47 2.88 0.25 3.46-0.18 0.57-0.5 0.46-1.37-0.18-2.59z"/>
	<path id="path153" style="fill-rule:evenodd;fill:#404040" d="m159.49 268.26c0.4 0.36 2.95-1.01 3.49-1.48 0.33-0.57-0.54-1.11-0.93-1.47-0.51-0.47-0.79-1.37-1.26-0.9-0.58 0.47-1.66 3.42-1.3 3.85z"/>
	<path id="path155" style="fill-rule:evenodd;fill:#404040" d="m159.85 271.18c0.33 0.07 1.62 1.98 1.66 2.37-0.11 0.29-1.8-0.21-2.02-0.54-0.29-0.43-0.03-2.01 0.36-1.83z"/>
	<path id="path157" style="fill-rule:evenodd;fill:#404040" d="m157.3 273.55c-0.65 0.33-2.52 1.69-2.56 2.02-0.18 0.21 1.08-0.29 1.84-0.54 0.64-0.4 1.98-1.26 2.19-1.48 0.15-0.36-0.9-0.36-1.47 0z"/>
	<path id="path159" style="fill-rule:evenodd;stroke:black;stroke-width:.036;stroke-miterlimit:10;fill:silver" d="m208.02 344.18c-1.58-1.51-2.99-2.62-4.21-3.49-1.26-1.01-1.84-1.51-3.28-1.65-1.55-0.04-4.43 0.46-5.87 1.11-1.54 0.47-2.59 1.08-3.27 1.84-0.9 0.61-1.44 1.4-1.48 2.37-0.03 1.01 0.33 2.38 1.08 3.28 0.58 0.72 1.73 1.15 2.77 1.3 1.01 0 1.95-0.26 3.1-0.9-0.14-0.51 0.15-1.19 0.72-1.66 0.54-0.5 1.51-1.19 2.77-1.66-1.26 0.83-1.98 1.73-2.55 2.56-0.47 0.86-0.8 1.66-0.58 2.38 0.14 0.5 0.47 0.72 1.12 0.93 0.46 0.15 1.08 0.15 1.83 0 0.43-0.68 0.94-1.18 1.66-1.65 0.68-0.51 1.58-0.83 2.55-1.12-1.87 1.26-3.27 2.31-4.21 3.68-1.01 1.14-1.33 2.8-1.65 3.85-0.44 0.93-0.94 1.54-0.54 2.37 0.36 0.87 1.4 2.31 2.55 2.78 1.05 0.32 2.95-0.15 3.49-0.58 0.33-0.54-0.86-1.51-0.93-2.38-0.18-1.01-0.43-2.23 0.36-3.09 0.72-0.87 2.12-1.48 4.21-1.84-1.55 0.5-2.74 1.23-3.28 2.02-0.57 0.72-0.64 1.58-0.36 2.73 0.15 1.05 0.58 2.88 1.44 3.85 0.87 0.9 2.31 1.41 3.5 1.66 0.93 0.11 1.8-0.18 2.73-0.58 0.97-0.39 1.77-0.93 2.77-1.61 1.08 1.54 2.13 2.84 3.28 4.03 1.15 1.22 2.27 2.01 3.49 2.91-1.26 1.12-2.19 1.98-2.95 2.74-0.83 0.65-1.73 1.15-1.44 1.65 0.32 0.47 1.22 1.16 3.1 1.66-0.4 1.47-0.36 2.3-0.18 2.92 0.25 0.35 0.64 0.32 1.47 0.18 0.61-0.11 1.66-0.29 2.74-0.55l7.88 7.71 29.31 44.85c-0.54 0.4-0.9 0.83-1.08 1.3-0.36 0.29-0.44 0.72-0.22 1.3 0.25 0.61 0.76 1.29 1.66 2.19-0.36 1.08-0.54 1.87-0.54 2.38-0.08 0.36 0 0.29 0.36 0.36 0.25 0.03 0.93 0.14 1.65 0.18 1.59 2.09 2.88 3.67 4.03 4.75 1.05 1.08 1.8 1.44 2.56 1.48 0.68-0.11 1.19-0.72 1.66-1.84l-0.72-2.92c2.19-0.07 3.49-0.39 4.03-1.11 0.43-0.83-0.11-2.52-0.94-3.27-0.86-0.83-2.84-1.45-3.85-1.3-0.97 0.07-1.69 0.79-2.02 2.01l-22.53-33.51 1.29-0.9 2.56 2.73c0 1.16 0.25 2.06 0.75 2.56 0.44 0.43 1.34 0.83 2.02 0.36 0.69-0.58 1.94-2.7 1.84-3.45-0.33-0.83-1.44-1.27-3.49-1.3l-1.84-3.14c1.48-1.9 2.59-3.16 3.49-4.21 0.83-1 1.37-1.65 1.62-1.8 1.62 1.73 3.56 2.78 5.69 3.28 2.16 0.5 5.15 0.47 7.16-0.54 1.95-1.23 3.6-4.32 4.39-6.23 0.62-1.94 0.58-3.85-0.39-5.33-1.05-1.58-3.96-3.06-5.83-3.85-1.98-0.86-4.04-1.26-5.87-0.9-1.91 0.25-4.29 1.04-5.33 2.92-1.08 1.87-1.55 4.43-1.26 8.06-1.51 1.08-2.63 2.02-3.49 2.95-0.9 0.87-1.51 1.66-1.84 2.38l-11.34-15.77c1.62 0.58 2.74 0.58 3.64 0 0.79-0.68 1.87-2.59 1.29-3.64-0.68-1.04-4.14-2.26-5.11-2.41-1.08-0.29-1.4 0.18-1.11 1.12l-4.57-6.05 5.68-4.39 1.44 1.83c-0.54 1.52-0.43 2.67 0.18 3.46 0.54 0.72 2.49 1.37 3.49 1.11 0.87-0.32 2.63-1.69 2.38-2.73-0.36-1.08-1.76-2.2-4.21-3.49l-0.72-1.48c0.39-0.68 0.64-1.19 0.9-1.65 0.21-0.54 0.75-0.9 0.36-1.08-0.51-0.18-1.55-0.18-3.28 0l-12.27-18.33 2.19-1.26c0.76 0.94 1.87 1.73 3.49 2.38 1.52 0.61 4.22 1.87 5.87 1.44 1.58-0.62 3.13-2.92 3.82-4.57 0.57-1.77 0.57-4.07 0-5.51-0.65-1.48-2.06-2.7-3.64-3.28-1.73-0.68-4.54-0.97-6.05-0.72-1.55 0.18-2.45 0.72-3.13 2.02-0.83 1.22-1.33 3.09-1.66 5.47l-2.91 0.94c-1.33-2.16-2.49-3.93-3.31-5.15-0.9-1.3-1.52-2.09-1.84-2.38l-2.2 1.3 4.97 7.67c-2.37 1.33-4.1 2.37-5.33 3.13-1.22 0.65-1.94 1.01-2.01 1.08l-0.9-1.44c0.29-1.95 0.11-3.17-0.54-3.67-0.69-0.62-2.81 0.07-3.31 0.54-0.51 0.39-0.22 1.44 0.18 2.01 0.32 0.51 0.82 0.83 1.65 1.12l0.36 1.44c-0.35 0.25-0.71 0.5-1.11 0.75zm6.45 2.74c0.79-1.15 1.65-2.12 2.73-2.92 1.05-0.79 2.16-1.4 3.49-1.83l13 17.75c-1.51 1.29-2.59 2.23-3.67 2.95-1.05 0.68-1.95 1.15-2.56 1.26l-4.75-6.95c1.98-0.32 2.91-0.94 3.09-1.84 0.11-1.08-1.51-3.38-2.37-3.85-1.01-0.47-2.13-0.03-3.49 1.3-1.26-1.8-2.23-3.24-2.92-4.03-0.79-0.87-0.9-0.87-1.3-1.12-0.5-0.33-0.79-0.61-1.25-0.72z"/>
	<path id="path161" style="fill-rule:evenodd;fill:white" d="m230.95 331.55c1.69 0.25 2.77 0.9 3.64 1.8 0.79 0.86 0.94 1.98 1.12 3.49 0.07 1.48-0.22 2.95-0.73 4.97 1.84-0.9 2.99-2.02 3.46-3.49 0.32-1.52 0.04-4.22-0.72-5.33-0.76-1.23-2.63-1.44-3.67-1.62-1.23-0.29-2.12-0.18-3.1 0.18z"/>
	<path id="path163" style="fill-rule:evenodd;fill:white" d="m260.08 380.44c3.38 1.54 5.51 2.91 6.77 4.39 1.08 1.37 0.64 2.52 0.36 4.03-0.26 1.48-0.98 3.02-2.02 4.79 2.12-1.55 3.38-2.99 4.21-4.61 0.65-1.73 0.76-3.56 0.18-4.93-0.65-1.44-2.09-2.05-3.49-2.95-1.51-1.05-4.14-2.42-5.11-2.56-0.97-0.18-1.37 0.43-0.9 1.84z"/>
	<path id="path165" style="fill-rule:evenodd;fill:white" d="m253.67 389.98c-0.29-0.11-2.63 1.33-3.67 2.37-1.08 0.79-2.52 2.74-2.38 2.92 0.15 0.07 2.16-1.15 3.28-2.02 1-0.94 2.81-3.13 2.77-3.27z"/>
	<path id="path167" style="fill-rule:evenodd;fill:white" d="m218.28 340.87c-0.36 0-2.34 0.94-3.46 1.84-1.29 0.83-3.99 2.52-3.67 2.73 0.44 0.04 4.32-1.73 5.69-2.37 1.05-0.9 1.8-2.09 1.44-2.2z"/>
	<path id="path169" style="fill-rule:evenodd;fill:white" d="m223.79 343.25c1.08 1.33 6.95 9.54 7.88 11.01 0.8 1.34-1.69-1.44-2.73-2.77-1.15-1.47-3.24-3.89-4.03-5.29-0.94-1.55-2.24-4.25-1.12-2.95z"/>
	<path id="path171" style="fill-rule:evenodd;fill:white" d="m238.8 365.6c-0.29 0.26-0.39 0.98-0.18 1.48 0.22 0.32 1.08 0.9 1.48 0.9 0.39-0.11 0.68-0.9 0.72-1.26-0.04-0.54-0.61-0.86-0.9-1.12-0.44-0.18-0.94-0.36-1.12 0z"/>
	<path id="path173" style="fill-rule:evenodd;fill:white" d="m230.56 373.85l-3.28-4.57c0.47 1.44 0.87 2.48 1.48 3.27 0.57 0.72 1.08 1.15 1.8 1.3z"/>
	<path id="path175" style="fill-rule:evenodd;fill:white" d="m234.77 380.8c0.61 0.79 3.49 5.58 5.33 8.24 1.76 2.59 5.25 6.88 5.33 7.16-0.11 0.15-3.78-3.89-5.33-5.86-1.59-2.09-3.21-4.43-4.03-6.05-1.01-1.62-1.91-4.36-1.3-3.49z"/>
	<path id="path177" style="fill-rule:evenodd;fill:white" d="m250.36 401.86c-0.36 0.1-0.29 1.36-0.18 1.83 0.18 0.33 0.68 0.9 1.08 0.76 0.28-0.22 0.46-1.48 0.39-1.84-0.18-0.43-1.11-1.01-1.29-0.75z"/>
	<path id="path179" style="fill-rule:evenodd;fill:white" d="m271.06 434.11c-0.61 0.04-1.12 1.08-0.94 1.48 0.04 0.32 1.3 1.19 1.84 1.08 0.57-0.25 1.33-1.37 1.29-1.84-0.21-0.54-1.69-0.83-2.19-0.72z"/>
	<path id="path181" style="fill-rule:evenodd;fill:white" d="m262.45 430.08c-0.57 0.25-0.72 0.58-0.57 1.12 0.1 0.5 0.64 1.22 1.47 2.01-0.9 0.61-0.97 1.41-0.36 2.38 0.58 0.97 2.99 2.34 4.04 3.27 0.93 0.87 1.98 2.42 2.01 2.02 0.04-0.58-0.97-3.46-1.65-4.75-0.76-1.33-1.95-1.98-2.74-2.92-0.87-1.01-1.55-2.05-2.2-3.13z"/>
	<path id="path183" style="fill-rule:evenodd;fill:white" d="m247.8 406.46l8.43 13.54c-1.59-3.2-2.96-5.76-4.4-8.06-1.47-2.34-2.77-4.04-4.03-5.48z"/>
	<path id="path185" style="fill-rule:evenodd;fill:white" d="m231.13 381.55c-0.36-0.32-2.23-1.69-3.13-3.13-1.04-1.51-2.7-4.75-2.73-5.29-0.04-0.58 1.4 0.93 2.37 2.01 0.83 1.01 1.91 3.06 2.56 4.22 0.57 1.08 1.26 2.26 0.93 2.19z"/>
	<path id="path187" style="fill-rule:evenodd;fill:white" d="m221.41 365.96c-0.03-0.1-4.17-5.58-6.05-7.66-1.94-2.13-3.96-4.43-4.93-4.97-0.97-0.61-1.55 0.18-0.75 1.11 0.72 0.8 3.13 2.09 5.14 4.03 1.95 1.99 6.41 7.35 6.59 7.49z"/>
	<path id="path189" style="fill-rule:evenodd;fill:white" d="m224.51 364.52c-1.01-1.4-4.61-5.94-5.11-6.23-0.47-0.32 1.44 3.93 2.37 5.12 0.83 1.15 2.2 1.98 2.74 2.19 0.36 0.22 0.83 0 0-1.08z"/>
	<path id="path191" style="fill-rule:evenodd;fill:white" d="m216.84 351.85c-0.32-0.57-3.45-3.09-3.85-3.09-0.51-0.04 0.86 2.23 1.48 2.91 0.61 0.47 2.51 0.58 2.37 0.18z"/>
	<path id="path193" style="fill-rule:evenodd;fill:white" d="m218.1 354.26c-0.47 0.22-0.68 0.76-0.36 1.08 0.22 0.08 0.87-0.07 1.66 0 0.65 0 2.09 0.54 2.37 0.36 0.11-0.36-0.43-1.36-1.08-1.62-0.72-0.21-2.09-0.1-2.59 0.18z"/>
	<path id="path195" style="fill-rule:evenodd;fill:#404040" d="m206.58 345.44c-0.39-0.64-3.27-3.13-4.21-3.85-1.05-0.72-1.77-0.97-1.48-0.36 0.4 0.54 2.2 2.92 3.32 3.67 0.86 0.69 2.62 1.05 2.37 0.54z"/>
	<path id="path197" style="fill-rule:evenodd;fill:#404040" d="m197.22 342.35c-0.03-0.04-0.03-0.04 0 0-0.03-0.04-0.03-0.04 0 0-2.45 1.04-3.81 2.01-4.39 2.91-0.58 0.83 0.57 1.95 1.11 2.38 0.51 0.36 1.23 0.47 2.02 0.18 0.07-0.9 0.32-1.58 0.9-2.2 0.54-0.64 1.98-0.93 2.38-1.44 0.28-0.57-0.15-1.18-0.9-1.83h-1.12z"/>
	<path id="path199" style="fill-rule:evenodd;fill:#404040" d="m202.91 346.38c-0.22 0.36-1.4 1.15-2.02 1.84-0.68 0.61-1.33 1.36-1.65 1.44-0.47-0.11-0.65-1.8-0.54-2.02 0.07-0.4 0.68 0.25 1.29 0 0.47-0.29 1.26-1.48 1.84-1.62 0.4-0.29 1.22-0.04 1.08 0.36z"/>
	<path id="path201" style="fill-rule:evenodd;fill:#404040" d="m207.84 349.12c-0.18 0.07 1.84 1.08 3.13 2.19 1.26 1.05 3.96 3.56 4.22 3.67 0-0.1-2.24-2.62-3.5-3.67-1.29-1.11-3.78-2.12-3.85-2.19z"/>
	<path id="path203" style="fill-rule:evenodd;fill:#404040" d="m206.4 348.76c-0.61 0-3.17 0.75-4.21 1.83-1.26 1.05-2.63 3.93-2.59 4.21 0 0.18 1.9-2.48 2.95-3.13 0.9-0.72 2.48-0.86 3.09-1.26 0.55-0.61 1.3-1.62 0.76-1.65z"/>
	<path id="path205" style="fill-rule:evenodd;fill:#404040" d="m228.54 337.38c0.79-0.58 3.56-2.41 4.43-2.2 0.76 0.15 0.76 2.67 0.54 3.14-0.32 0.32-1.04-1.01-2.02-0.94-0.97-0.04-3.45 1.12-3.85 1.12-0.47-0.08-0.07-0.54 0.9-1.12z"/>
	<path id="path207" style="fill-rule:evenodd;fill:#404040" d="m226.17 335.94c0.43-0.04 3.88-1.55 4.39-2.2 0.36-0.75-1.44-1.83-1.8-1.83-0.4-0.07-0.47 0.93-0.76 1.65-0.54 0.65-2.27 2.27-1.83 2.38z"/>
	<path id="path209" style="fill-rule:evenodd;fill:#404040" d="m254.75 387.78c0.47-0.29 3.89-3.06 4.57-3.85 0.47-0.87-1.08-1.37-1.44-1.12-0.43 0.18-0.47 1.44-0.94 2.38-0.54 0.83-2.66 2.66-2.19 2.59z"/>
	<path id="path211" style="fill-rule:evenodd;fill:#404040" d="m256.77 390.52c0.61-1.08 5.79-3.86 6.22-4.04 0.44-0.21-3.06 2.42-3.67 3.32-0.68 0.86-0.21 2.05-0.54 2.19-0.54 0.04-2.7-0.5-2.01-1.47z"/>
	<path id="path213" style="fill-rule:evenodd;stroke:black;stroke-width:.036;stroke-miterlimit:10;fill:silver" d="m276.17 450.17c1.04-2.05 2.34-3.89 4.03-5.65 1.62-1.73 3.2-3.24 5.87-4.97 2.73-1.98 6.87-4.75 10.08-6.23 3.06-1.48 5.76-2.27 8.24-2.38l3.67 4.22v1.83c-5.18 1.44-9.54 3.28-13.21 5.51-3.78 2.2-6.59 5.26-8.96 7.67-2.45 2.27-4.18 4.17-5.33 5.87l-1.62-0.54c-0.9-1.77-1.84-3.53-2.77-5.33z"/>
	<path id="path215" style="stroke:black;stroke-width:.036;stroke-miterlimit:10;fill-rule:evenodd" d="m282.58 447.25c2.44-2.95 5.11-5.65 8.42-7.7 3.21-2.09 6.77-3.93 10.84-5.11-4.68 2.23-8.5 4.42-11.74 6.58-3.28 2.16-5.69 4.14-7.52 6.23z"/>
	<path id="path217" style="fill-rule:evenodd;stroke:black;stroke-width:.036;stroke-miterlimit:10;fill:silver" d="m319.4 560.33c0.76-3.13 2.16-6.09 4.76-9 2.37-2.99 5.18-4.68 10.08-8.43 4.93-3.88 12.89-9.82 19.44-14.07 6.44-4.36 12.74-8.17 19.04-11.02 6.26-2.84 12.24-4.75 18.32-5.87l-1.11 5.87c-0.04-1.04-2.13-0.86-6.41 0.94-4.43 1.69-11.99 4.89-19.22 9.32-7.31 4.36-17.72 12.21-24.02 17.03-6.4 4.75-10.87 8.64-13.53 11.37-2.59 2.6-3.42 4.11-2.2 4.4-1.51-0.18-2.63-0.25-3.49-0.36-0.9-0.07-1.4-0.18-1.66-0.18z"/>
	<path id="path219" style="fill-rule:evenodd;fill:white" d="m328.55 550.25c2.95-2.74 10.8-9.65 16.88-13.94 6.05-4.46 15.81-10.04 18.87-11.73 2.77-1.48 1.62-0.36-1.66 2.23-3.42 2.38-12.09 8.03-17.96 12.24-5.91 4.21-14.01 10.66-16.67 12.67-2.66 1.88-2.49 1.01 0.54-1.47z"/>
	<path id="path221" style="fill-rule:evenodd;stroke:black;stroke-width:.036;stroke-miterlimit:10;fill:#616161" d="m333.34 559.21c-1.08 0.47-2.2 0.79-3.49 1.12-1.37 0.29-2.74 0.57-4.4 0.72-0.68-0.25-0.75-0.79-0.36-1.48 0.36-0.79 0.9-1.26 2.74-2.91 1.8-1.8 4.82-4.32 8.24-7.17 3.42-2.91 8.1-6.59 12.1-9.5 3.81-2.99 7.49-5.73 11.16-8.07 3.67-2.41 7.13-4.39 10.8-6.22 3.6-2.06 7.67-4.11 10.65-5.33 2.81-1.23 5.08-1.44 6.41-1.62 1.33-0.29 1.77-0.04 1.44 0.36-0.36 0.9-1.01 1.94-1.8 3.27-0.86 1.33-2.01 2.67-3.31 4.43 0.86-2.55-0.11-3.45-3.31-2.41-3.28 0.94-9.76 4.79-15.55 8.24-5.94 3.32-13.58 8.43-18.87 12.28-5.25 3.96-10.19 8.21-12.27 10.8-2.09 2.38-2.2 3.49-0.18 3.49z"/>
	<path id="path223" style="fill-rule:evenodd;fill:silver" d="m347.99 542.72c2.66-2.05 5.65-4.24 9.5-6.58 3.86-2.45 12.46-7.49 13.76-7.89 1.11-0.47-3.35 2.63-6.59 4.97-3.39 2.12-8.93 5.33-13.18 8.24-4.43 2.92-10.37 7.67-12.27 8.97-1.77 0.97-0.19-0.83 1.43-2.2 1.41-1.37 4.51-3.53 7.35-5.51z"/>
</g>
<metadata><rdf:RDF><cc:Work><dc:format>image/svg+xml</dc:format><dc:type rdf:resource="http://purl.org/dc/dcmitype/StillImage"/><cc:license rdf:resource="http://creativecommons.org/licenses/publicdomain/"/><dc:publisher><cc:Agent rdf:about="http://openclipart.org/"><dc:title>Openclipart</dc:title></cc:Agent></dc:publisher><dc:title>Clarinet</dc:title><dc:date>2006-10-17T10:39:49</dc:date><dc:description>To fulfill a request for a clarinet in the WIKI requests page.</dc:description><dc:source>https://openclipart.org/detail/694/clarinet-by-gerald_g</dc:source><dc:creator><cc:Agent><dc:title>Gerald_G</dc:title></cc:Agent></dc:creator><dc:subject><rdf:Bag><rdf:li>clarinet</rdf:li><rdf:li>instrument</rdf:li><rdf:li>music</rdf:li><rdf:li>request+completed</rdf:li><rdf:li>source+wiki</rdf:li></rdf:Bag></dc:subject></cc:Work><cc:License rdf:about="http://creativecommons.org/licenses/publicdomain/"><cc:permits rdf:resource="http://creativecommons.org/ns#Reproduction"/><cc:permits rdf:resource="http://creativecommons.org/ns#Distribution"/><cc:permits rdf:resource="http://creativecommons.org/ns#DerivativeWorks"/></cc:License></rdf:RDF></metadata></svg>
