<?xml version="1.0" encoding="UTF-8" standalone="no"?>
<!-- Generator: Adobe Illustrator 10.0, SVG Export Plug-In . SVG Version: 3.0.0 Build 77)  -->

<svg
   xmlns:i="http://ns.adobe.com/AdobeIllustrator/10.0/"
   xmlns:dc="http://purl.org/dc/elements/1.1/"
   xmlns:cc="http://creativecommons.org/ns#"
   xmlns:rdf="http://www.w3.org/1999/02/22-rdf-syntax-ns#"
   xmlns:svg="http://www.w3.org/2000/svg"
   xmlns="http://www.w3.org/2000/svg"
   xmlns:sodipodi="http://sodipodi.sourceforge.net/DTD/sodipodi-0.dtd"
   xmlns:inkscape="http://www.inkscape.org/namespaces/inkscape"
   i:rulerOrigin="0 0"
   i:viewOrigin="59.9995 757"
   space="preserve"
   i:pageBounds="0 792 612 0"
   viewBox="0 0 173.91229 256.00001"
   enable-background="new 0 0 490.94 722.699"
   overflow="visible"
   version="1.1"
   id="svg273"
   sodipodi:docname="harp.svg"
   inkscape:version="0.92.4 (5da689c313, 2019-01-14)"
   width="173.91229"
   height="256"
   style="overflow:visible">
  <defs
     id="defs277" />
  <sodipodi:namedview
     pagecolor="#ffffff"
     bordercolor="#666666"
     borderopacity="1"
     objecttolerance="10"
     gridtolerance="10"
     guidetolerance="10"
     inkscape:pageopacity="0"
     inkscape:pageshadow="2"
     inkscape:window-width="1920"
     inkscape:window-height="1025"
     id="namedview275"
     showgrid="false"
     inkscape:zoom="1.8472665"
     inkscape:cx="58.992818"
     inkscape:cy="136.67703"
     inkscape:window-x="-8"
     inkscape:window-y="-8"
     inkscape:window-maximized="1"
     inkscape:current-layer="svg273"
     fit-margin-top="0"
     fit-margin-left="0"
     fit-margin-right="0"
     fit-margin-bottom="0" />
  <g
     style="stroke:#000000;stroke-width:0.036;stroke-miterlimit:10"
     id="g264"
     i:knockout="Off"
     stroke-miterlimit="10"
     transform="matrix(0.35418073,0,0,0.35418073,0.00542687,0.03250179)">
    <path
       inkscape:connector-curvature="0"
       id="path2"
       i:knockout="Off"
       d="m 51.776,170.77 -1.944,251.1 c -4.536,4.645 -7.272,8.785 -8.064,12.709 -0.864,3.815 0.216,7.271 3.096,10.367 -3.132,3.096 -4.536,5.688 -4.644,8.063 -0.072,2.305 1.296,4.213 4.248,5.867 l -2.304,141.91 c -2.664,1.584 -4.428,3.385 -5.004,5.004 -0.612,1.584 -0.324,3.385 1.152,5.006 -2.664,2.41 -4.032,4.752 -4.248,7.308 -0.216,2.483 0.864,5.041 3.096,7.668 -4.212,5.903 -8.064,10.477 -11.556,13.86 -3.564,3.312 -6.768,5.363 -9.612,6.154 -4.536,0.145 -7.56,1.117 -9.216,3.061 -1.728,1.943 -1.512,5.688 -0.756,8.461 0.72,2.699 2.34,5.22 5.004,7.703 l -0.396,19.584 c -4.86,1.261 -8.064,2.81 -9.612,4.646 -1.656,1.69 -1.008,3.744 0,6.156 0.864,2.411 2.7,4.967 5.364,8.063 l 42.696,19.225 c 25.668,-0.358 46.404,-0.827 63.468,-1.547 16.956,-0.686 29.556,-1.477 37.656,-2.664 7.92,-1.297 10.98,-2.916 9.612,-5.004 5.256,-1.01 13.536,-2.521 25.38,-4.248 11.844,-1.873 34.848,-4.465 45,-6.518 9.828,-2.051 12.06,-3.383 14.616,-5.795 2.556,-2.412 2.808,-5.4 0.756,-8.82 5.905,-0.072 10.223,-0.973 13.104,-2.305 2.809,-1.439 4.03,-3.492 3.815,-6.156 5.543,1.693 9.937,2.629 13.463,2.664 3.386,-0.035 5.222,-0.756 7.31,-2.303 2.088,-1.584 3.707,-3.89 5.004,-6.912 2.194,2.195 4.969,2.627 8.461,1.152 3.42,-1.513 10.438,-6.05 12.311,-10.009 1.621,-3.996 0.181,-10.692 -1.547,-13.823 -1.764,-3.168 -5.508,-4.5 -8.461,-5.4 -3.022,-0.973 -6.371,-0.107 -9.215,-0.756 -2.916,-0.828 -5.256,-2.484 -7.705,-3.853 -2.557,-1.403 -4.68,-2.881 -6.912,-4.43 6.588,-12.527 14.4,-27.252 23.832,-45 9.361,-17.891 19.26,-37.438 32.328,-60.729 13.033,-23.365 26.533,-45.433 45.756,-78.156 19.297,-32.978 50.473,-84.853 68.832,-117.29 18.146,-32.508 32.221,-58.104 39.6,-75.384 7.164,-17.136 5.904,-17.892 3.854,-26.712 -2.16,-8.892 -9.072,-20.664 -16.164,-26.172 -7.164,-5.58 -16.85,-6.588 -26.137,-6.912 -9.396,-0.432 -17.137,-0.612 -29.629,4.608 -12.707,5.22 -31.066,20.736 -45.359,26.532 -14.291,5.652 -26.244,8.46 -39.6,7.308 -13.5,-1.332 -29.377,-6.372 -39.996,-14.976 -10.513,-8.64 -16.092,-19.152 -22.717,-36.54 -6.769,-17.748 -10.08,-49.14 -17.279,-68.076 -7.38,-18.864 -16.488,-32.58 -25.776,-44.208 -9.324,-11.736 -18,-18.72 -29.232,-25.38 -11.448,-6.768 -26.352,-11.592 -38.052,-14.616 -11.628,-3.132 -21.816,-4.104 -31.14,-3.456 1.692,-2.052 3.636,-4.032 6.12,-5.796 2.412,-1.908 5.184,-3.384 8.46,-4.968 1.476,-1.26 2.196,-2.628 2.7,-4.248 0.36,-1.584 0.288,-3.42 -0.36,-5.364 -5.976,-2.916 -14.004,-5.184 -24.624,-6.948 -10.76,-1.756 -23.896,-4.06 -38.836,-3.448 -15.084,0.54 -31.5,2.628 -50.364,6.552 -2.124,3.78 -3.204,6.984 -3.096,9.612 0.036,2.628 1.188,4.68 3.456,6.156 4.356,1.224 7.56,2.844 10.008,5.004 2.376,2.088 3.744,4.644 4.248,7.668 l -1.944,119.23 7.704,16.53 z m 61.924,-4.54 c 7.272,-2.7 13.788,-3.672 19.98,-3.06 6.084,0.612 10.296,1.116 16.524,6.912 6.084,5.724 13.536,15.804 20.412,27.324 6.84,11.52 12.6,28.944 20.736,40.752 8.064,11.628 15.948,19.8 27.684,28.836 11.772,8.928 26.712,19.08 42.3,24.624 15.553,5.364 35.315,7.308 50.004,8.064 14.436,0.72 23.473,-0.756 36.539,-3.456 13.141,-2.736 27.686,-7.668 41.545,-12.708 13.752,-5.148 26.928,-10.944 40.354,-17.676 -18.863,22.932 -38.447,46.692 -59.58,72.396 -21.239,25.776 -45,54.504 -66.563,80.75 -21.636,26.135 -41.326,50.725 -62.279,74.592 -21.204,23.688 -43.524,46.404 -63.072,66.637 -19.476,20.158 -36.972,37.654 -53.064,53.459 -0.108,-1.438 -0.72,-2.447 -1.548,-3.455 -0.864,-0.973 -2.232,-1.801 -3.816,-2.34 1.152,-1.979 1.404,-3.422 0.756,-4.609 -0.648,-1.114 -2.232,-1.979 -4.608,-2.303 l 1.152,-144.97 c 2.844,-2.377 4.248,-4.681 4.212,-6.912 -0.144,-2.305 -1.584,-4.394 -4.608,-6.553 2.808,-2.052 3.564,-4.607 2.7,-7.668 -1.008,-3.203 -3.78,-6.623 -8.46,-10.8 l -1.152,-251.39 c 1.26,-2.11 2.56,-4.27 3.86,-6.43 z" />
    <path
       style="fill:#a16121"
       inkscape:connector-curvature="0"
       id="path4"
       i:knockout="Off"
       d="m 54.116,177.17 c 1.26,-2.304 3.78,-4.104 7.704,-5.544 3.924,-1.476 9.756,-2.88 15.696,-3.096 5.976,-0.36 14.436,-0.072 19.404,1.548 4.752,1.548 7.884,4.212 9.252,7.992 l -0.324,244.01 c -2.448,2.916 -6.408,4.824 -12.312,5.867 -5.94,1.008 -16.128,1.477 -22.788,0.289 -6.66,-1.297 -12.312,-3.816 -16.956,-7.705 0.106,-81.11 0.214,-162.22 0.322,-243.37 z" />
    <path
       inkscape:connector-curvature="0"
       id="path6"
       i:knockout="Off"
       d="m 56.888,184.88 c 1.152,-1.656 2.124,-2.304 3.06,-1.548 0.864,0.648 1.584,-0.792 2.16,5.544 0.468,6.336 1.26,15.588 1.26,32.328 -0.108,16.812 -1.08,41.472 -1.26,67.176 -0.18,25.596 -0.072,65.052 0.324,85.319 0.288,19.908 1.548,26.676 1.548,34.201 -0.108,7.416 -1.152,8.639 -1.872,10.475 -0.9,1.766 -2.016,0.721 -2.772,0.324 -0.792,-0.539 -1.404,-1.619 -1.836,-3.383 0.468,2.375 1.188,4.067 2.16,5.219 0.936,1.151 2.196,2.088 3.384,1.549 1.08,-0.684 2.808,1.512 3.096,-5.221 0.216,-6.912 -1.224,-20.195 -1.548,-35.424 -0.396,-15.517 -0.648,-35.208 -0.612,-55.765 -0.036,-20.592 0.54,-46.656 0.612,-66.24 -0.072,-19.62 -0.648,-37.656 -0.612,-50.22 -0.072,-12.672 0.972,-19.548 0.612,-24.66 -0.468,-5.04 -1.584,-4.752 -2.772,-5.544 -1.26,-1.008 -3.492,-1.008 -4.32,0 -0.828,0.96 -1.08,2.87 -0.612,5.86 z" />
    <path
       inkscape:connector-curvature="0"
       id="path8"
       i:knockout="Off"
       d="m 71.036,179.12 c 1.224,-1.8 2.16,-2.34 3.096,-1.62 0.864,0.612 1.584,-0.792 2.16,5.796 0.504,6.66 1.188,16.308 1.224,33.804 -0.144,17.568 -1.008,43.344 -1.224,70.236 -0.18,26.784 -0.072,68.04 0.324,89.207 0.216,20.881 1.512,27.9 1.512,35.785 -0.144,7.774 -1.08,8.963 -1.836,10.942 -0.936,1.765 -1.908,0.9 -2.772,0.324 -0.792,-0.576 -1.404,-1.764 -1.836,-3.563 0.54,2.449 1.116,4.285 2.124,5.508 0.9,1.225 2.268,2.125 3.42,1.584 1.116,-0.646 2.736,1.514 3.06,-5.471 0.216,-7.201 -1.224,-21.168 -1.548,-37.045 -0.396,-16.093 -0.648,-36.863 -0.612,-58.285 -0.036,-21.528 0.54,-48.78 0.612,-69.264 -0.072,-20.556 -0.648,-39.312 -0.612,-52.524 -0.072,-13.14 0.972,-20.52 0.612,-25.74 -0.468,-5.292 -1.584,-4.86 -2.772,-5.796 -1.296,-1.044 -3.42,-1.044 -4.284,0 -0.828,1.02 -1.044,2.97 -0.648,6.1 z" />
    <path
       inkscape:connector-curvature="0"
       id="path10"
       i:knockout="Off"
       d="m 86.768,181.96 c 1.224,-1.656 2.16,-2.304 3.096,-1.548 0.792,0.648 1.548,-0.864 2.124,5.616 0.468,6.372 1.26,15.912 1.26,32.796 -0.108,17.028 -1.08,42.048 -1.26,68.112 -0.18,26.028 -0.072,65.988 0.324,86.544 0.288,20.268 1.548,26.963 1.548,34.668 -0.108,7.522 -1.152,8.748 -1.872,10.618 -0.9,1.802 -2.016,0.793 -2.772,0.324 -0.792,-0.539 -1.404,-1.69 -1.836,-3.455 0.468,2.412 1.188,4.14 2.16,5.328 0.936,1.15 2.196,2.088 3.384,1.547 1.08,-0.719 2.808,1.584 3.096,-5.291 0.216,-7.092 -1.224,-20.412 -1.548,-35.928 C 94.076,365.666 93.824,345.47 93.86,324.734 93.824,303.926 94.4,277.322 94.472,257.558 94.4,237.65 93.824,219.434 93.86,206.654 c -0.072,-12.816 0.972,-19.8 0.612,-24.984 -0.468,-5.076 -1.584,-4.824 -2.772,-5.652 -1.26,-1.008 -3.492,-1.008 -4.32,0 -0.828,0.96 -1.08,2.94 -0.612,5.93 z" />
    <path
       inkscape:connector-curvature="0"
       id="path12"
       i:knockout="Off"
       d="m 99.08,191.03 c 1.224,-1.62 2.16,-2.052 3.096,-1.439 0.864,0.576 1.584,-0.792 2.16,5.184 0.504,5.976 1.188,14.652 1.224,30.348 -0.144,15.768 -1.008,38.916 -1.224,63.036 -0.18,24.084 -0.036,61.092 0.288,80.063 0.288,18.757 1.548,24.912 1.548,32.076 -0.144,6.912 -1.08,8.101 -1.836,9.828 -0.828,1.584 -1.98,0.756 -2.772,0.287 -0.792,-0.539 -1.368,-1.549 -1.872,-3.168 0.468,2.195 1.188,3.779 2.16,4.896 0.936,1.114 2.196,1.87 3.384,1.438 1.08,-0.684 2.808,1.477 3.096,-4.896 0.216,-6.517 -1.224,-18.937 -1.548,-33.228 -0.396,-14.509 -0.648,-33.121 -0.612,-52.345 -0.036,-19.26 0.54,-43.812 0.612,-62.136 -0.072,-18.468 -0.648,-35.28 -0.612,-47.124 -0.072,-11.844 0.972,-18.396 0.612,-23.112 -0.468,-4.716 -1.584,-4.464 -2.772,-5.22 -1.26,-0.936 -3.492,-0.936 -4.32,0 -0.836,0.9 -1.088,2.73 -0.62,5.5 z" />
    <path
       style="fill:#a16121"
       inkscape:connector-curvature="0"
       id="path14"
       i:knockout="Off"
       d="m 52.568,424.78 c 5.148,2.735 10.44,4.682 16.02,5.832 5.58,1.151 10.404,1.514 17.244,0.938 6.768,-0.686 14.292,-2.521 23.112,-5.221 2.952,1.367 4.752,3.168 5.544,5.832 0.756,2.557 0.252,5.688 -1.224,9.539 -2.88,2.846 -7.812,4.86 -15.084,6.192 -7.416,1.188 -20.016,2.341 -28.368,1.513 -8.352,-0.828 -15.3,-3.023 -21.24,-6.443 -2.556,-1.908 -3.996,-3.961 -4.32,-6.156 -0.432,-2.34 0.756,-5.075 2.16,-7.092 1.372,-1.98 3.425,-3.67 6.16,-4.93 z" />
    <path
       style="fill:#a16121"
       inkscape:connector-curvature="0"
       id="path16"
       i:knockout="Off"
       d="m 47.313,446.64 c 3.888,2.017 9.288,3.563 16.056,4.644 6.768,1.081 15.948,2.809 24.624,1.836 8.64,-1.188 17.388,-3.779 26.82,-8.314 2.34,0.322 3.564,1.402 3.672,3.097 0.036,1.69 -0.936,3.995 -3.06,7.055 -8.856,3.024 -16.596,5.041 -24.048,6.192 -7.38,1.152 -12.708,1.261 -20.016,0.611 -7.488,-0.791 -15.228,-2.34 -24.048,-4.932 -2.844,-1.656 -4.32,-3.205 -4.284,-4.933 -0.032,-1.77 1.444,-3.43 4.289,-5.26 z" />
    <path
       style="fill:#a16121"
       inkscape:connector-curvature="0"
       id="path18"
       i:knockout="Off"
       d="m 43.316,602.62 c 3.06,2.305 7.2,4.104 12.96,5.545 5.76,1.404 13.068,2.699 20.952,2.771 7.704,-0.144 18.612,-1.691 24.948,-3.097 6.156,-1.477 10.116,-3.274 12.024,-5.543 1.98,0 3.06,0.467 3.384,1.547 0.288,0.974 -0.18,2.558 -1.548,4.607 -3.708,2.305 -8.64,4.104 -14.796,5.545 -6.372,1.404 -14.364,2.699 -22.176,2.771 -7.776,0 -17.496,-2.123 -23.724,-3.059 -6.228,-1.045 -10.512,-2.271 -13.248,-3.385 -1.44,-1.478 -2.052,-2.771 -1.836,-4.031 0.191,-1.29 1.162,-2.52 3.07,-3.67 z" />
    <path
       style="fill:#a16121"
       inkscape:connector-curvature="0"
       id="path20"
       i:knockout="Off"
       d="m 39.932,612.16 c 1.116,1.691 5.076,3.133 12.024,4.32 6.984,1.188 20.772,2.627 29.268,2.771 8.208,-0.035 13.968,-0.863 20.34,-2.483 6.372,-1.656 12.132,-4.068 17.568,-7.38 2.268,2.269 3.492,4.933 3.672,7.992 0.072,3.097 -1.224,7.416 -2.772,10.188 -1.62,2.627 -1.656,3.778 -6.768,5.543 -5.328,1.692 -16.488,3.602 -24.048,4.319 -7.56,0.576 -13.608,0.218 -20.628,-0.936 -7.2,-1.367 -16.56,-4.354 -21.564,-6.479 -4.968,-2.123 -7.596,-4.177 -8.028,-6.156 -1.872,-2.412 -2.556,-4.572 -2.448,-6.479 0.076,-1.97 1.336,-3.66 3.388,-5.21 z" />
    <path
       style="fill:#a16121"
       inkscape:connector-curvature="0"
       id="path22"
       i:knockout="Off"
       d="m 39.645,629.41 c -2.412,3.022 -4.68,5.543 -6.804,7.703 -2.124,2.016 -4.032,3.061 -6.156,4.934 -2.304,1.799 -4.716,3.852 -7.38,6.154 l 33.588,15.408 c 2.556,-2.699 4.716,-5.939 6.768,-10.152 1.98,-4.248 3.672,-9.035 5.22,-14.795 -4.5,0.287 -8.676,-0.324 -12.924,-1.836 -4.249,-1.62 -8.353,-3.99 -12.312,-7.41 z" />
    <path
       style="fill:#a16121"
       inkscape:connector-curvature="0"
       id="path24"
       i:knockout="Off"
       d="m 70.136,639.88 c 8.208,0.685 16.092,0.539 24.336,-0.289 8.208,-0.862 16.092,-2.557 24.336,-4.932 5.364,3.816 9.576,7.668 12.924,11.699 3.276,3.961 5.544,8.063 6.804,12.313 -5.256,1.836 -14.508,3.023 -28.044,3.996 -13.752,0.828 -30.96,1.297 -52.992,1.26 4.464,-4.68 7.704,-9 9.864,-12.959 2.162,-4.11 2.954,-7.67 2.774,-11.09 z" />
    <path
       style="fill:#a16121"
       inkscape:connector-curvature="0"
       id="path26"
       i:knockout="Off"
       d="m 146.85,661.59 c 2.988,0.107 4.572,1.008 4.608,3.096 0.036,2.054 -1.404,4.896 -4.32,8.929 -12.96,1.477 -26.748,2.664 -42.192,3.709 -15.48,0.973 -31.896,1.69 -49.932,2.159 -2.124,-2.557 -3.24,-4.86 -3.06,-6.768 0.036,-1.945 1.368,-3.637 3.708,-4.934 22.932,-0.035 41.652,-0.504 56.988,-1.547 15.34,-1.16 26.46,-2.52 34.2,-4.65 z" />
    <path
       style="fill:#a16121"
       inkscape:connector-curvature="0"
       id="path28"
       i:knockout="Off"
       d="m 51.956,665.91 c -0.108,-0.469 -3.24,-2.017 -9.54,-4.933 -6.336,-2.881 -15.588,-6.983 -28.044,-12.313 -3.636,0.396 -5.544,1.729 -5.868,3.996 -0.252,2.305 0.9,5.399 3.996,9.576 l 37.296,15.694 c -1.62,-2.698 -2.232,-5.11 -1.836,-7.092 0.324,-1.99 1.656,-3.68 3.996,-4.94 z" />
    <path
       style="fill:#a16121"
       inkscape:connector-curvature="0"
       id="path30"
       i:knockout="Off"
       d="m 51.021,681.32 -0.288,18.791 -35.748,-15.084 -0.936,-18.791 36.972,15.08 z" />
    <path
       style="fill:#a16121"
       inkscape:connector-curvature="0"
       id="path32"
       i:knockout="Off"
       d="m 55.34,682.54 -0.324,17.281 89.352,-4.033 -0.288,-16.631 -88.74,3.38 z" />
    <path
       style="fill:#a16121"
       inkscape:connector-curvature="0"
       id="path34"
       i:knockout="Off"
       d="m 52.892,703.2 c -2.808,-0.035 -4.428,1.189 -5.256,3.674 -0.72,2.482 -0.648,6.084 0.612,11.088 34.236,-0.252 59.508,-1.01 77.328,-2.125 17.604,-1.188 23.436,-2.879 28.044,-4.932 4.428,-2.195 0.18,-5.545 -0.936,-7.705 -1.152,-2.158 -3.096,-3.959 -5.832,-5.256 -12.852,1.225 -26.748,2.16 -42.516,3.098 -15.87,0.87 -32.646,1.59 -51.438,2.16 z" />
    <path
       style="fill:#a16121"
       inkscape:connector-curvature="0"
       id="path36"
       i:knockout="Off"
       d="m 11.888,686.57 c -3.744,-0.433 -6.048,0.539 -6.768,2.771 -0.828,2.269 -0.108,5.761 2.16,10.765 l 37.908,16.633 c -1.368,-4.285 -1.548,-7.523 -0.936,-9.863 0.72,-2.412 2.232,-3.744 4.932,-4.285 -12.42,-5.31 -24.84,-10.64 -37.296,-16.01 z" />
    <path
       style="fill:#a16121"
       inkscape:connector-curvature="0"
       id="path38"
       i:knockout="Off"
       d="m 46.412,459.09 c 3.06,2.232 7.776,3.779 14.292,4.789 6.552,0.937 15.192,2.088 24.372,1.115 9.108,-1.115 18.648,-3.42 29.448,-7.31 l -1.98,141.81 c -2.664,3.203 -7.704,5.543 -15.408,6.731 -7.812,1.188 -21.78,1.513 -30.528,0.576 -8.856,-1.08 -15.948,-3.276 -21.852,-6.731 0.544,-46.99 1.084,-93.98 1.66,-140.99 z" />
    <path
       style="fill:#a16121"
       inkscape:connector-curvature="0"
       id="path40"
       i:knockout="Off"
       d="m 50.012,37.638 -2.016,114.98 c 7.344,-1.8 16.416,-2.808 27.648,-2.736 11.232,-0.072 24.084,0.937 39.24,2.736 l 3.888,-112.43 C 108.368,37.272 97.64,35.616 86.156,35.22 74.638,34.828 62.686,35.584 50.014,37.636 Z" />
    <path
       style="fill:#a16121"
       inkscape:connector-curvature="0"
       id="path42"
       i:knockout="Off"
       d="m 48.536,154.85 c 7.164,-1.584 14.796,-2.304 23.04,-2.592 8.28,-0.18 18.72,0.288 26.172,1.116 7.272,0.684 13.176,1.62 17.712,2.952 l -8.496,13.248 c -6.552,-3.204 -13.968,-4.86 -22.68,-4.968 -8.712,-0.108 -18.432,1.116 -29.304,4.068 -2.12,-4.61 -4.28,-9.22 -6.44,-13.83 z" />
    <path
       style="fill:#a16121"
       inkscape:connector-curvature="0"
       id="path44"
       i:knockout="Off"
       d="m 34.892,20.574 c 5.436,-1.872 13.032,-3.312 23.22,-4.608 10.08,-1.332 24.264,-3.564 37.26,-2.952 13.032,0.612 25.992,2.52 39.996,6.264 l -17.712,15.48 C 102.572,32.418 89.828,31.194 78.596,31.086 67.364,30.978 58.292,31.77 50.948,33.858 48.32,29.25 45.62,25.866 42.992,23.706 40.216,21.438 37.66,20.394 34.888,20.574 Z" />
    <path
       style="fill:#a16121"
       inkscape:connector-curvature="0"
       id="path46"
       i:knockout="Off"
       d="m 34.712,17.082 c -1.98,-1.44 -2.916,-2.808 -2.952,-4.248 -0.072,-1.548 0.792,-2.88 2.592,-4.428 18.108,-4.428 35.424,-6.408 53.065,-6.084 17.496,0.288 34.56,2.988 51.624,8.1 1.584,1.224 2.304,2.268 2.016,3.528 -0.288,1.188 -1.512,2.304 -3.672,3.492 -17.244,-4.896 -33.948,-7.308 -51.228,-7.38 -17.322,0 -34.098,2.16 -51.45,7.02 z" />
    <path
       style="fill:#fbdf99"
       inkscape:connector-curvature="0"
       id="path48"
       i:knockout="Off"
       d="m 125.18,35.19 c 15.696,0.468 29.664,2.556 42.336,6.12 12.6,3.528 23.004,8.46 33.156,15.336 10.044,6.732 19.044,14.58 27,25.488 7.92,10.944 14.472,23.76 19.943,39.564 5.256,15.84 6.84,38.016 11.988,54.036 5.076,15.768 10.477,29.592 18.721,40.212 8.244,10.548 18.035,18.108 30.349,22.68 12.274,4.284 28.764,5.328 42.371,3.708 13.356,-1.656 24.911,-7.308 37.729,-13.212 12.781,-6.084 27.613,-18.216 38.377,-22.104 10.691,-3.852 20.375,-2.628 25.164,-0.612 4.57,2.016 4.967,7.884 2.447,12.6 -2.558,4.644 -8.531,9.504 -17.783,15.012 -4.609,-2.124 -9.217,-2.988 -14.113,-2.448 -4.967,0.54 -7.344,1.368 -15.047,5.544 -7.885,4.14 -19.656,13.896 -30.996,19.008 -11.483,4.932 -25.129,8.568 -36.504,10.764 -11.377,2.16 -18.793,5.184 -30.996,2.124 -12.42,-3.132 -29.305,-8.784 -42.049,-20.844 -12.744,-12.348 -23.4,-31.68 -33.768,-51.876 -10.548,-20.34 -18.72,-49.68 -28.548,-68.436 C 195.165,109.206 188.613,95.31 175.185,84.906 161.649,74.43 145.053,67.878 124.569,65.25 c 0.18,-10.004 0.39,-20.012 0.61,-30.056 z" />
    <path
       style="fill:#a16121"
       inkscape:connector-curvature="0"
       id="path50"
       i:knockout="Off"
       d="m 124.24,70.686 c 10.728,0.396 20.376,2.448 29.484,6.444 8.964,3.924 16.128,6.876 24.552,17.208 8.424,10.332 18.252,29.412 25.452,44.172 7.02,14.688 10.872,29.628 16.56,43.272 5.616,13.5 11.124,26.676 17.208,37.44 6.048,10.656 10.26,18.108 19.008,26.388 8.641,8.1 21.203,17.748 32.832,22.428 11.557,4.572 21.637,6.3 36.217,5.184 14.543,-1.296 36.646,-6.804 50.328,-11.952 13.463,-5.184 21.742,-14.004 30.383,-18.396 8.496,-4.428 15.301,-7.272 20.557,-7.704 5.076,-0.468 8.316,2.232 10.152,4.608 1.691,2.232 1.188,5.328 0.287,8.892 -0.937,3.528 -2.879,7.38 -5.832,11.988 -12.959,6.984 -27.469,12.888 -44.496,18.396 -17.1,5.4 -38.195,11.952 -56.771,13.824 -18.721,1.764 -36.575,0.864 -54,-3.384 -17.495,-4.5 -35.64,-12.024 -49.715,-22.716 -14.004,-10.908 -25.164,-28.08 -34.056,-41.112 -9,-12.996 -13.788,-26.64 -19.656,-36.216 -5.94,-9.612 -10.152,-15.876 -15.948,-21.168 -5.976,-5.436 -12.78,-8.892 -19.044,-11.052 -6.372,-2.304 -12.276,-2.88 -18.396,-2.16 1.64,-28.12 3.26,-56.232 4.91,-84.384 z" />
    <path
       style="fill:#fbdf99"
       inkscape:connector-curvature="0"
       id="path52"
       i:knockout="Off"
       d="m 462.61,206.66 c 5.58,1.512 8.894,5.148 9.793,11.052 0.828,5.904 -0.828,14.724 -4.285,24.228 -3.492,9.396 -5.58,13.752 -16.271,31.932 -10.908,18.252 -32.004,52.596 -47.881,76.392 -15.875,23.617 -29.195,39.744 -46.619,64.763 -17.604,25.021 -41.004,60.407 -57.42,84.385 -16.381,23.832 -26.713,38.483 -39.89,57.996 -13.21,19.512 -26.17,39.707 -38.482,58.067 -12.348,18.216 -23.832,34.668 -34.992,50.328 l -31.32,3.097 c 1.044,-2.125 1.404,-3.925 0.936,-5.545 -0.504,-1.691 -1.548,-3.023 -3.672,-3.996 -2.232,-1.009 -5.364,-1.765 -9.54,-2.123 -1.404,-4.177 -3.852,-8.138 -7.056,-12.277 -3.384,-4.176 -7.38,-8.135 -12.564,-12.275 1.908,-4.282 3.132,-7.487 3.672,-10.151 0.54,-2.627 0.288,-4.463 -0.612,-5.508 15.732,-13.968 34.128,-31.896 56.16,-54.611 22.032,-22.932 53.1,-56.699 74.879,-81.037 21.601,-24.371 38.232,-44.531 54.324,-63.826 15.947,-19.332 28.045,-34.668 41.436,-51.014 13.357,-16.343 25.31,-30.815 38.341,-46.331 13.032,-15.804 30.239,-34.92 38.987,-46.656 8.461,-11.628 10.656,-16.56 12.277,-22.716 1.654,-6.228 0.791,-10.98 -2.449,-14.4 7.344,-2.844 12.816,-6.732 16.562,-11.664 3.65,-5.03 5.6,-10.94 5.67,-18.1 z" />
    <path
       style="fill:#a16121"
       inkscape:connector-curvature="0"
       id="path54"
       i:knockout="Off"
       d="m 476.94,218.61 c 3.637,3.492 6.049,7.308 7.381,11.988 1.26,4.536 3.527,5.436 0.287,15.336 -3.348,9.9 -8.279,21.132 -20.232,43.56 -12.239,22.5 -37.114,64.836 -51.588,89.928 -14.508,24.805 -17.026,28.367 -34.344,58.32 -17.424,30.061 -50.256,86.652 -69.047,120.06 -18.793,33.154 -32.941,58.57 -42.984,77.615 -2.483,-0.396 -4.68,-0.035 -6.731,0.936 -2.088,0.974 -3.89,2.558 -5.545,4.896 -4.463,-1.332 -8.063,-1.836 -11.339,-1.512 -3.276,0.18 -5.472,1.26 -7.992,3.383 -2.592,2.125 -5.04,5.293 -7.344,9.504 -5.328,-0.646 -9.432,-0.898 -12.888,-0.611 -3.384,0.146 -5.004,0.107 -7.38,2.125 -2.52,1.943 -5.076,5.22 -7.668,9.828 l -8.28,0.322 c 21.456,-29.375 41.616,-58.211 61.993,-87.768 20.269,-29.736 40.824,-61.921 58.607,-88.38 17.567,-26.495 28.584,-42.983 46.655,-68.76 18.107,-25.957 46.043,-63.001 61.058,-84.745 14.688,-21.672 20.229,-31.824 27.61,-44.208 7.345,-12.42 12.313,-21.168 16.562,-29.448 4.031,-8.28 6.479,-12.888 8.604,-19.944 2.16,-7.13 3.74,-14.47 4.61,-22.43 z" />
    <path
       inkscape:connector-curvature="0"
       id="path56"
       i:knockout="Off"
       d="m 133.06,58.122 h 2.88 v 579.1 h -2.88 z" />
    <path
       inkscape:connector-curvature="0"
       id="path58"
       i:knockout="Off"
       d="m 147.46,59.562 h 2.88 v 564.7 h -2.88 z" />
    <path
       inkscape:connector-curvature="0"
       id="path60"
       i:knockout="Off"
       d="m 161.86,64.962 h 2.88 v 543.06 h -2.88 z" />
    <path
       inkscape:connector-curvature="0"
       id="path62"
       i:knockout="Off"
       d="m 176.26,72.522 h 2.88 v 518.58 h -2.88 z" />
    <path
       inkscape:connector-curvature="0"
       id="path64"
       i:knockout="Off"
       d="m 190.66,84.762 h 2.88 v 489.78 h -2.88 z" />
    <path
       inkscape:connector-curvature="0"
       id="path66"
       i:knockout="Off"
       d="m 205.06,103.88 h 2.88 v 454.1 h -2.88 z" />
    <path
       inkscape:connector-curvature="0"
       id="path68"
       i:knockout="Off"
       d="m 219.46,129.44 h 2.88 v 409.79 h -2.88 z" />
    <path
       inkscape:connector-curvature="0"
       id="path70"
       i:knockout="Off"
       d="m 233.86,162.23 h 2.88 v 360.43 h -2.88 z" />
    <path
       inkscape:connector-curvature="0"
       id="path72"
       i:knockout="Off"
       d="m 248.26,196.07 h 2.881 v 309.67 h -2.881 z" />
    <path
       inkscape:connector-curvature="0"
       id="path74"
       i:knockout="Off"
       d="m 262.66,220.19 h 2.88 v 268.27 h -2.88 z" />
    <path
       inkscape:connector-curvature="0"
       id="path76"
       i:knockout="Off"
       d="m 277.06,238.23 h 2.879 v 233.64 h -2.879 z" />
    <path
       inkscape:connector-curvature="0"
       id="path78"
       i:knockout="Off"
       d="m 291.46,247.95 h 2.881 v 205.56 h -2.881 z" />
    <path
       inkscape:connector-curvature="0"
       id="path80"
       i:knockout="Off"
       d="m 305.86,254.43 h 2.881 v 182.88 h -2.881 z" />
    <path
       inkscape:connector-curvature="0"
       id="path82"
       i:knockout="Off"
       d="m 320.26,258.03 h 2.881 v 162.36 h -2.881 z" />
    <path
       inkscape:connector-curvature="0"
       id="path84"
       i:knockout="Off"
       d="m 334.66,257.31 h 2.88 v 146.12 h -2.88 z" />
    <path
       inkscape:connector-curvature="0"
       id="path86"
       i:knockout="Off"
       d="m 349.06,255.15 h 2.879 v 130.28 h -2.879 z" />
    <path
       inkscape:connector-curvature="0"
       id="path88"
       i:knockout="Off"
       d="m 363.46,250.47 h 2.881 v 116.6 h -2.881 z" />
    <path
       inkscape:connector-curvature="0"
       id="path90"
       i:knockout="Off"
       d="m 377.86,244.35 h 2.881 v 105.08 h -2.881 z" />
    <path
       inkscape:connector-curvature="0"
       id="path92"
       i:knockout="Off"
       d="m 392.26,236.79 h 2.881 v 96.048 h -2.881 v -96.05 z" />
    <path
       inkscape:connector-curvature="0"
       id="path94"
       i:knockout="Off"
       d="m 406.66,229.95 h 2.88 v 85.608 h -2.88 v -85.61 z" />
    <path
       inkscape:connector-curvature="0"
       id="path96"
       i:knockout="Off"
       d="m 129.68,56.502 c 0,2.088 2.016,3.78 4.5,3.78 2.52,0 4.536,-1.692 4.536,-3.78 0,-2.088 -2.016,-3.78 -4.536,-3.78 -2.48,0 -4.5,1.692 -4.5,3.78 z" />
    <path
       style="fill:#a16121"
       inkscape:connector-curvature="0"
       id="path98"
       i:knockout="Off"
       d="m 131.48,56.142 c 0,1.08 1.044,1.944 2.34,1.944 1.296,0 2.376,-0.864 2.376,-1.944 0,-1.116 -1.08,-1.98 -2.376,-1.98 -1.3,0 -2.34,0.864 -2.34,1.98 z" />
    <path
       inkscape:connector-curvature="0"
       id="path100"
       i:knockout="Off"
       d="m 144.08,60.102 c 0,2.088 2.016,3.78 4.5,3.78 2.52,0 4.536,-1.692 4.536,-3.78 0,-2.088 -2.016,-3.78 -4.536,-3.78 -2.48,0 -4.5,1.692 -4.5,3.78 z" />
    <path
       style="fill:#a16121"
       inkscape:connector-curvature="0"
       id="path102"
       i:knockout="Off"
       d="m 145.88,59.742 c 0,1.08 1.044,1.944 2.34,1.944 1.296,0 2.376,-0.864 2.376,-1.944 0,-1.116 -1.08,-1.979 -2.376,-1.979 -1.3,0 -2.34,0.863 -2.34,1.979 z" />
    <path
       inkscape:connector-curvature="0"
       id="path104"
       i:knockout="Off"
       d="m 158.48,65.862 c 0,2.088 2.016,3.78 4.5,3.78 2.52,0 4.536,-1.692 4.536,-3.78 0,-2.088 -2.016,-3.78 -4.536,-3.78 -2.48,0 -4.5,1.692 -4.5,3.78 z" />
    <path
       style="fill:#a16121"
       inkscape:connector-curvature="0"
       id="path106"
       i:knockout="Off"
       d="m 160.28,65.502 c 0,1.08 1.044,1.98 2.34,1.98 1.296,0 2.376,-0.9 2.376,-1.98 0,-1.08 -1.08,-1.98 -2.376,-1.98 -1.296,0 -2.34,0.9 -2.34,1.98 z" />
    <path
       inkscape:connector-curvature="0"
       id="path108"
       i:knockout="Off"
       d="m 172.88,73.062 c 0,2.088 2.016,3.78 4.5,3.78 2.52,0 4.536,-1.692 4.536,-3.78 0,-2.088 -2.016,-3.78 -4.536,-3.78 -2.48,0 -4.5,1.692 -4.5,3.78 z" />
    <path
       style="fill:#a16121"
       inkscape:connector-curvature="0"
       id="path110"
       i:knockout="Off"
       d="m 174.68,72.702 c 0,1.08 1.044,1.98 2.34,1.98 1.296,0 2.376,-0.9 2.376,-1.98 0,-1.08 -1.08,-1.98 -2.376,-1.98 -1.296,0 -2.34,0.9 -2.34,1.98 z" />
    <path
       inkscape:connector-curvature="0"
       id="path112"
       i:knockout="Off"
       d="m 187.28,86.382 c 0,2.088 2.016,3.816 4.5,3.816 2.52,0 4.536,-1.728 4.536,-3.816 0,-2.088 -2.016,-3.78 -4.536,-3.78 -2.48,0 -4.5,1.692 -4.5,3.78 z" />
    <path
       style="fill:#a16121"
       inkscape:connector-curvature="0"
       id="path114"
       i:knockout="Off"
       d="m 189.08,86.022 c 0,1.08 1.044,1.98 2.34,1.98 1.296,0 2.376,-0.9 2.376,-1.98 0,-1.08 -1.08,-1.944 -2.376,-1.944 -1.296,0 -2.34,0.864 -2.34,1.944 z" />
    <path
       inkscape:connector-curvature="0"
       id="path116"
       i:knockout="Off"
       d="m 201.68,105.14 c 0,2.088 2.016,3.78 4.5,3.78 2.52,0 4.536,-1.692 4.536,-3.78 0,-2.088 -2.016,-3.78 -4.536,-3.78 -2.48,0 -4.5,1.69 -4.5,3.78 z" />
    <path
       style="fill:#a16121"
       inkscape:connector-curvature="0"
       id="path118"
       i:knockout="Off"
       d="m 203.48,104.74 c 0,1.116 1.044,1.98 2.34,1.98 1.296,0 2.376,-0.864 2.376,-1.98 0,-1.08 -1.08,-1.944 -2.376,-1.944 -1.3,0 -2.34,0.86 -2.34,1.94 z" />
    <path
       inkscape:connector-curvature="0"
       id="path120"
       i:knockout="Off"
       d="m 216.08,129.98 c 0,2.088 2.016,3.78 4.5,3.78 2.52,0 4.536,-1.692 4.536,-3.78 0,-2.088 -2.016,-3.78 -4.536,-3.78 -2.48,0 -4.5,1.69 -4.5,3.78 z" />
    <path
       style="fill:#a16121"
       inkscape:connector-curvature="0"
       id="path122"
       i:knockout="Off"
       d="m 217.88,129.62 c 0,1.08 1.044,1.98 2.34,1.98 1.296,0 2.376,-0.9 2.376,-1.98 0,-1.08 -1.08,-1.98 -2.376,-1.98 -1.3,0 -2.34,0.9 -2.34,1.98 z" />
    <path
       inkscape:connector-curvature="0"
       id="path124"
       i:knockout="Off"
       d="m 230.48,164.21 c 0,2.088 2.016,3.78 4.5,3.78 2.52,0 4.536,-1.692 4.536,-3.78 0,-2.088 -2.016,-3.78 -4.536,-3.78 -2.48,0 -4.5,1.7 -4.5,3.78 z" />
    <path
       style="fill:#a16121"
       inkscape:connector-curvature="0"
       id="path126"
       i:knockout="Off"
       d="m 232.28,163.82 c 0,1.116 1.044,1.98 2.34,1.98 1.296,0 2.376,-0.864 2.376,-1.98 0,-1.08 -1.08,-1.944 -2.376,-1.944 -1.296,0 -2.34,0.86 -2.34,1.94 z" />
    <path
       inkscape:connector-curvature="0"
       id="path128"
       i:knockout="Off"
       d="m 244.88,196.61 c 0,2.088 2.016,3.78 4.5,3.78 2.521,0 4.536,-1.692 4.536,-3.78 0,-2.088 -2.016,-3.78 -4.536,-3.78 -2.48,0 -4.5,1.7 -4.5,3.78 z" />
    <path
       style="fill:#a16121"
       inkscape:connector-curvature="0"
       id="path130"
       i:knockout="Off"
       d="m 246.68,196.25 c 0,1.08 1.044,1.98 2.339,1.98 1.297,0 2.377,-0.9 2.377,-1.98 0,-1.08 -1.08,-1.98 -2.377,-1.98 -1.3,0 -2.34,0.9 -2.34,1.98 z" />
    <path
       inkscape:connector-curvature="0"
       id="path132"
       i:knockout="Off"
       d="m 259.28,220.05 c 0,2.088 2.017,3.78 4.5,3.78 2.521,0 4.537,-1.692 4.537,-3.78 0,-2.124 -2.018,-3.816 -4.537,-3.816 -2.48,0 -4.5,1.7 -4.5,3.82 z" />
    <path
       style="fill:#a16121"
       inkscape:connector-curvature="0"
       id="path134"
       i:knockout="Off"
       d="m 261.08,219.65 c 0,1.08 1.043,1.98 2.341,1.98 1.295,0 2.375,-0.9 2.375,-1.98 0,-1.08 -1.08,-1.944 -2.375,-1.944 -1.3,0 -2.34,0.86 -2.34,1.94 z" />
    <path
       inkscape:connector-curvature="0"
       id="path136"
       i:knockout="Off"
       d="m 273.68,238.41 c 0,2.088 2.016,3.78 4.5,3.78 2.52,0 4.535,-1.692 4.535,-3.78 0,-2.088 -2.017,-3.78 -4.535,-3.78 -2.48,0 -4.5,1.69 -4.5,3.78 z" />
    <path
       style="fill:#a16121"
       inkscape:connector-curvature="0"
       id="path138"
       i:knockout="Off"
       d="m 275.48,238.01 c 0,1.116 1.043,1.98 2.34,1.98 1.295,0 2.375,-0.864 2.375,-1.98 0,-1.08 -1.08,-1.944 -2.375,-1.944 -1.3,0 -2.34,0.86 -2.34,1.94 z" />
    <path
       inkscape:connector-curvature="0"
       id="path140"
       i:knockout="Off"
       d="m 288.08,247.77 c 0,2.088 2.017,3.78 4.5,3.78 2.521,0 4.535,-1.692 4.535,-3.78 0,-2.088 -2.016,-3.78 -4.535,-3.78 -2.48,0 -4.5,1.69 -4.5,3.78 z" />
    <path
       style="fill:#a16121"
       inkscape:connector-curvature="0"
       id="path142"
       i:knockout="Off"
       d="m 289.88,247.41 c 0,1.08 1.045,1.944 2.342,1.944 1.295,0 2.375,-0.864 2.375,-1.944 0,-1.116 -1.08,-1.98 -2.375,-1.98 -1.3,0 -2.34,0.86 -2.34,1.98 z" />
    <path
       inkscape:connector-curvature="0"
       id="path144"
       i:knockout="Off"
       d="m 302.48,255.69 c 0,2.088 2.016,3.78 4.5,3.78 2.521,0 4.535,-1.692 4.535,-3.78 0,-2.088 -2.016,-3.78 -4.535,-3.78 -2.48,0 -4.5,1.69 -4.5,3.78 z" />
    <path
       style="fill:#a16121"
       inkscape:connector-curvature="0"
       id="path146"
       i:knockout="Off"
       d="m 304.28,255.33 c 0,1.08 1.045,1.944 2.34,1.944 1.297,0 2.377,-0.864 2.377,-1.944 0,-1.116 -1.079,-1.98 -2.377,-1.98 -1.3,0 -2.34,0.86 -2.34,1.98 z" />
    <path
       inkscape:connector-curvature="0"
       id="path148"
       i:knockout="Off"
       d="m 316.88,258.21 c 0,2.088 2.018,3.78 4.5,3.78 2.521,0 4.537,-1.692 4.537,-3.78 0,-2.088 -2.017,-3.78 -4.537,-3.78 -2.48,0 -4.5,1.69 -4.5,3.78 z" />
    <path
       style="fill:#a16121"
       inkscape:connector-curvature="0"
       id="path150"
       i:knockout="Off"
       d="m 318.68,257.85 c 0,1.08 1.045,1.944 2.34,1.944 1.297,0 2.377,-0.864 2.377,-1.944 0,-1.116 -1.08,-1.98 -2.377,-1.98 -1.3,0 -2.34,0.86 -2.34,1.98 z" />
    <path
       inkscape:connector-curvature="0"
       id="path152"
       i:knockout="Off"
       d="m 331.28,256.41 c 0,2.088 2.017,3.78 4.5,3.78 2.521,0 4.537,-1.692 4.537,-3.78 0,-2.088 -2.018,-3.78 -4.537,-3.78 -2.48,0 -4.5,1.69 -4.5,3.78 z" />
    <path
       style="fill:#a16121"
       inkscape:connector-curvature="0"
       id="path154"
       i:knockout="Off"
       d="m 333.08,256.05 c 0,1.08 1.043,1.944 2.341,1.944 1.295,0 2.375,-0.864 2.375,-1.944 0,-1.116 -1.08,-1.98 -2.375,-1.98 -1.3,0 -2.34,0.86 -2.34,1.98 z" />
    <path
       inkscape:connector-curvature="0"
       id="path156"
       i:knockout="Off"
       d="m 345.68,254.97 c 0,2.088 2.016,3.78 4.5,3.78 2.52,0 4.535,-1.692 4.535,-3.78 0,-2.088 -2.017,-3.78 -4.535,-3.78 -2.48,0 -4.5,1.69 -4.5,3.78 z" />
    <path
       style="fill:#a16121"
       inkscape:connector-curvature="0"
       id="path158"
       i:knockout="Off"
       d="m 347.48,254.61 c 0,1.08 1.043,1.944 2.34,1.944 1.295,0 2.375,-0.864 2.375,-1.944 0,-1.116 -1.08,-1.98 -2.375,-1.98 -1.3,0 -2.34,0.86 -2.34,1.98 z" />
    <path
       inkscape:connector-curvature="0"
       id="path160"
       i:knockout="Off"
       d="m 360.08,250.29 c 0,2.088 2.017,3.78 4.5,3.78 2.521,0 4.535,-1.692 4.535,-3.78 0,-2.088 -2.016,-3.78 -4.535,-3.78 -2.48,0 -4.5,1.69 -4.5,3.78 z" />
    <path
       style="fill:#a16121"
       inkscape:connector-curvature="0"
       id="path162"
       i:knockout="Off"
       d="m 361.88,249.93 c 0,1.08 1.045,1.944 2.342,1.944 1.295,0 2.375,-0.864 2.375,-1.944 0,-1.116 -1.08,-1.98 -2.375,-1.98 -1.3,0 -2.34,0.86 -2.34,1.98 z" />
    <path
       inkscape:connector-curvature="0"
       id="path164"
       i:knockout="Off"
       d="m 374.48,245.25 c 0,2.088 2.016,3.78 4.5,3.78 2.521,0 4.535,-1.692 4.535,-3.78 0,-2.088 -2.016,-3.78 -4.535,-3.78 -2.48,0 -4.5,1.69 -4.5,3.78 z" />
    <path
       style="fill:#a16121"
       inkscape:connector-curvature="0"
       id="path166"
       i:knockout="Off"
       d="m 376.28,244.89 c 0,1.08 1.045,1.944 2.34,1.944 1.297,0 2.377,-0.864 2.377,-1.944 0,-1.116 -1.079,-1.98 -2.377,-1.98 -1.3,0 -2.34,0.86 -2.34,1.98 z" />
    <path
       inkscape:connector-curvature="0"
       id="path168"
       i:knockout="Off"
       d="m 388.88,236.25 c 0,2.088 2.018,3.78 4.5,3.78 2.521,0 4.537,-1.692 4.537,-3.78 0,-2.088 -2.017,-3.78 -4.537,-3.78 -2.48,0 -4.5,1.69 -4.5,3.78 z" />
    <path
       style="fill:#a16121"
       inkscape:connector-curvature="0"
       id="path170"
       i:knockout="Off"
       d="m 390.68,235.85 c 0,1.116 1.045,1.98 2.34,1.98 1.297,0 2.377,-0.864 2.377,-1.98 0,-1.08 -1.08,-1.944 -2.377,-1.944 -1.3,0 -2.34,0.86 -2.34,1.94 z" />
    <path
       inkscape:connector-curvature="0"
       id="path172"
       i:knockout="Off"
       d="m 403.28,230.13 c 0,2.088 2.017,3.78 4.5,3.78 2.521,0 4.537,-1.692 4.537,-3.78 0,-2.088 -2.018,-3.78 -4.537,-3.78 -2.48,0 -4.5,1.69 -4.5,3.78 z" />
    <path
       style="fill:#a16121"
       inkscape:connector-curvature="0"
       id="path174"
       i:knockout="Off"
       d="m 405.08,229.73 c 0,1.08 1.043,1.98 2.341,1.98 1.295,0 2.375,-0.9 2.375,-1.98 0,-1.08 -1.08,-1.944 -2.375,-1.944 -1.3,0 -2.34,0.86 -2.34,1.94 z" />
    <path
       inkscape:connector-curvature="0"
       id="path176"
       i:knockout="Off"
       d="m 129.68,635.99 c 0,1.438 2.016,2.627 4.5,2.627 2.52,0 4.536,-1.188 4.536,-2.627 0,-1.478 -2.016,-2.629 -4.536,-2.629 -2.48,0 -4.5,1.16 -4.5,2.63 z" />
    <path
       style="fill:#a16121"
       inkscape:connector-curvature="0"
       id="path178"
       i:knockout="Off"
       d="m 131.48,635.74 c 0,0.756 1.044,1.367 2.34,1.367 1.296,0 2.376,-0.611 2.376,-1.367 0,-0.756 -1.08,-1.369 -2.376,-1.369 -1.3,0 -2.34,0.62 -2.34,1.37 z" />
    <path
       inkscape:connector-curvature="0"
       id="path180"
       i:knockout="Off"
       d="m 144.08,624.83 c 0,1.439 2.016,2.629 4.5,2.629 2.52,0 4.536,-1.188 4.536,-2.629 0,-1.477 -2.016,-2.629 -4.536,-2.629 -2.48,0 -4.5,1.16 -4.5,2.63 z" />
    <path
       style="fill:#a16121"
       inkscape:connector-curvature="0"
       id="path182"
       i:knockout="Off"
       d="m 145.88,624.58 c 0,0.756 1.044,1.367 2.34,1.367 1.296,0 2.376,-0.611 2.376,-1.367 0,-0.756 -1.08,-1.404 -2.376,-1.404 -1.3,0 -2.34,0.65 -2.34,1.4 z" />
    <path
       inkscape:connector-curvature="0"
       id="path184"
       i:knockout="Off"
       d="m 158.48,608.64 c 0,1.439 2.016,2.627 4.5,2.627 2.52,0 4.536,-1.188 4.536,-2.627 0,-1.477 -2.016,-2.664 -4.536,-2.664 -2.48,-0.01 -4.5,1.18 -4.5,2.66 z" />
    <path
       style="fill:#a16121"
       inkscape:connector-curvature="0"
       id="path186"
       i:knockout="Off"
       d="m 160.28,608.35 c 0,0.756 1.044,1.404 2.34,1.404 1.296,0 2.376,-0.648 2.376,-1.404 0,-0.756 -1.08,-1.367 -2.376,-1.367 -1.296,0 -2.34,0.61 -2.34,1.37 z" />
    <path
       inkscape:connector-curvature="0"
       id="path188"
       i:knockout="Off"
       d="m 172.88,592.4 c 0,1.475 2.016,2.664 4.5,2.664 2.52,0 4.536,-1.189 4.536,-2.664 0,-1.441 -2.016,-2.63 -4.536,-2.63 -2.48,0 -4.5,1.19 -4.5,2.63 z" />
    <path
       style="fill:#a16121"
       inkscape:connector-curvature="0"
       id="path190"
       i:knockout="Off"
       d="m 174.68,592.15 c 0,0.756 1.044,1.366 2.34,1.366 1.296,0 2.376,-0.61 2.376,-1.366 0,-0.757 -1.08,-1.369 -2.376,-1.369 -1.296,0 -2.34,0.61 -2.34,1.37 z" />
    <path
       inkscape:connector-curvature="0"
       id="path192"
       i:knockout="Off"
       d="m 187.28,575.48 c 0,1.476 2.016,2.628 4.5,2.628 2.52,0 4.536,-1.152 4.536,-2.628 0,-1.44 -2.016,-2.629 -4.536,-2.629 -2.48,0 -4.5,1.19 -4.5,2.63 z" />
    <path
       style="fill:#a16121"
       inkscape:connector-curvature="0"
       id="path194"
       i:knockout="Off"
       d="m 189.08,575.23 c 0,0.757 1.044,1.367 2.34,1.367 1.296,0 2.376,-0.61 2.376,-1.367 0,-0.756 -1.08,-1.368 -2.376,-1.368 -1.296,0 -2.34,0.61 -2.34,1.37 z" />
    <path
       inkscape:connector-curvature="0"
       id="path196"
       i:knockout="Off"
       d="m 201.68,558.56 c 0,1.439 2.016,2.627 4.5,2.627 2.52,0 4.536,-1.188 4.536,-2.627 0,-1.477 -2.016,-2.629 -4.536,-2.629 -2.48,0 -4.5,1.15 -4.5,2.63 z" />
    <path
       style="fill:#a16121"
       inkscape:connector-curvature="0"
       id="path198"
       i:knockout="Off"
       d="m 203.48,558.31 c 0,0.756 1.044,1.367 2.34,1.367 1.296,0 2.376,-0.611 2.376,-1.367 0,-0.756 -1.08,-1.403 -2.376,-1.403 -1.3,-0.01 -2.34,0.64 -2.34,1.4 z" />
    <path
       inkscape:connector-curvature="0"
       id="path200"
       i:knockout="Off"
       d="m 216.08,538.36 c 0,1.477 2.016,2.664 4.5,2.664 2.52,0 4.536,-1.188 4.536,-2.664 0,-1.439 -2.016,-2.627 -4.536,-2.627 -2.48,0 -4.5,1.19 -4.5,2.63 z" />
    <path
       style="fill:#a16121"
       inkscape:connector-curvature="0"
       id="path202"
       i:knockout="Off"
       d="m 217.88,538.11 c 0,0.756 1.044,1.369 2.34,1.369 1.296,0 2.376,-0.613 2.376,-1.369 0,-0.757 -1.08,-1.367 -2.376,-1.367 -1.3,0 -2.34,0.61 -2.34,1.37 z" />
    <path
       inkscape:connector-curvature="0"
       id="path204"
       i:knockout="Off"
       d="m 230.48,522.88 c 0,1.476 2.016,2.664 4.5,2.664 2.52,0 4.536,-1.188 4.536,-2.664 0,-1.44 -2.016,-2.629 -4.536,-2.629 -2.48,0 -4.5,1.19 -4.5,2.63 z" />
    <path
       style="fill:#a16121"
       inkscape:connector-curvature="0"
       id="path206"
       i:knockout="Off"
       d="m 232.28,522.63 c 0,0.756 1.044,1.367 2.34,1.367 1.296,0 2.376,-0.611 2.376,-1.367 0,-0.758 -1.08,-1.369 -2.376,-1.369 -1.296,0 -2.34,0.61 -2.34,1.37 z" />
    <path
       inkscape:connector-curvature="0"
       id="path208"
       i:knockout="Off"
       d="m 244.88,506.32 c 0,1.438 2.016,2.627 4.5,2.627 2.521,0 4.536,-1.188 4.536,-2.627 0,-1.439 -2.016,-2.629 -4.536,-2.629 -2.48,0 -4.5,1.19 -4.5,2.63 z" />
    <path
       style="fill:#a16121"
       inkscape:connector-curvature="0"
       id="path210"
       i:knockout="Off"
       d="m 246.68,506.07 c 0,0.756 1.044,1.366 2.339,1.366 1.297,0 2.377,-0.61 2.377,-1.366 0,-0.756 -1.08,-1.369 -2.377,-1.369 -1.3,0 -2.34,0.61 -2.34,1.37 z" />
    <path
       inkscape:connector-curvature="0"
       id="path212"
       i:knockout="Off"
       d="m 259.28,488.32 c 0,1.438 2.017,2.627 4.5,2.627 2.521,0 4.537,-1.188 4.537,-2.627 0,-1.478 -2.018,-2.664 -4.537,-2.664 -2.48,0 -4.5,1.19 -4.5,2.66 z" />
    <path
       style="fill:#a16121"
       inkscape:connector-curvature="0"
       id="path214"
       i:knockout="Off"
       d="m 261.08,488.07 c 0,0.756 1.043,1.366 2.341,1.366 1.295,0 2.375,-0.61 2.375,-1.366 0,-0.793 -1.08,-1.404 -2.375,-1.404 -1.3,0 -2.34,0.61 -2.34,1.4 z" />
    <path
       inkscape:connector-curvature="0"
       id="path216"
       i:knockout="Off"
       d="m 273.68,472.44 c 0,1.477 2.016,2.664 4.5,2.664 2.52,0 4.535,-1.188 4.535,-2.664 0,-1.439 -2.017,-2.627 -4.535,-2.627 -2.48,0.01 -4.5,1.2 -4.5,2.63 z" />
    <path
       style="fill:#a16121"
       inkscape:connector-curvature="0"
       id="path218"
       i:knockout="Off"
       d="m 275.48,472.19 c 0,0.756 1.043,1.369 2.34,1.369 1.295,0 2.375,-0.613 2.375,-1.369 0,-0.756 -1.08,-1.367 -2.375,-1.367 -1.3,0.01 -2.34,0.62 -2.34,1.37 z" />
    <path
       inkscape:connector-curvature="0"
       id="path220"
       i:knockout="Off"
       d="m 288.08,455.17 c 0,1.477 2.017,2.664 4.5,2.664 2.521,0 4.535,-1.188 4.535,-2.664 0,-1.439 -2.016,-2.629 -4.535,-2.629 -2.48,0 -4.5,1.19 -4.5,2.63 z" />
    <path
       style="fill:#a16121"
       inkscape:connector-curvature="0"
       id="path222"
       i:knockout="Off"
       d="m 289.88,454.91 c 0,0.756 1.045,1.367 2.342,1.367 1.295,0 2.375,-0.611 2.375,-1.367 0,-0.756 -1.08,-1.367 -2.375,-1.367 -1.3,0.01 -2.34,0.62 -2.34,1.37 z" />
    <path
       inkscape:connector-curvature="0"
       id="path224"
       i:knockout="Off"
       d="m 302.48,438.25 c 0,1.438 2.016,2.627 4.5,2.627 2.521,0 4.535,-1.188 4.535,-2.627 0,-1.477 -2.016,-2.629 -4.535,-2.629 -2.48,0 -4.5,1.15 -4.5,2.63 z" />
    <path
       style="fill:#a16121"
       inkscape:connector-curvature="0"
       id="path226"
       i:knockout="Off"
       d="m 304.28,437.99 c 0,0.756 1.045,1.367 2.34,1.367 1.297,0 2.377,-0.611 2.377,-1.367 0,-0.756 -1.079,-1.367 -2.377,-1.367 -1.3,0.01 -2.34,0.62 -2.34,1.37 z" />
    <path
       inkscape:connector-curvature="0"
       id="path228"
       i:knockout="Off"
       d="m 316.88,420.6 c 0,1.44 2.018,2.629 4.5,2.629 2.521,0 4.537,-1.188 4.537,-2.629 0,-1.476 -2.017,-2.664 -4.537,-2.664 -2.48,0 -4.5,1.19 -4.5,2.66 z" />
    <path
       style="fill:#a16121"
       inkscape:connector-curvature="0"
       id="path230"
       i:knockout="Off"
       d="m 318.68,420.35 c 0,0.756 1.045,1.368 2.34,1.368 1.297,0 2.377,-0.612 2.377,-1.368 0,-0.791 -1.08,-1.404 -2.377,-1.404 -1.3,0 -2.34,0.61 -2.34,1.4 z" />
    <path
       inkscape:connector-curvature="0"
       id="path232"
       i:knockout="Off"
       d="m 331.28,404.73 c 0,1.475 2.017,2.663 4.5,2.663 2.521,0 4.537,-1.188 4.537,-2.663 0,-1.441 -2.018,-2.63 -4.537,-2.63 -2.48,0 -4.5,1.19 -4.5,2.63 z" />
    <path
       style="fill:#a16121"
       inkscape:connector-curvature="0"
       id="path234"
       i:knockout="Off"
       d="m 333.08,404.48 c 0,0.756 1.043,1.366 2.341,1.366 1.295,0 2.375,-0.61 2.375,-1.366 0,-0.757 -1.08,-1.369 -2.375,-1.369 -1.3,0 -2.34,0.61 -2.34,1.37 z" />
    <path
       inkscape:connector-curvature="0"
       id="path236"
       i:knockout="Off"
       d="m 345.68,385.65 c 0,1.477 2.016,2.664 4.5,2.664 2.52,0 4.535,-1.188 4.535,-2.664 0,-1.439 -2.017,-2.629 -4.535,-2.629 -2.48,0 -4.5,1.19 -4.5,2.63 z" />
    <path
       style="fill:#a16121"
       inkscape:connector-curvature="0"
       id="path238"
       i:knockout="Off"
       d="m 347.48,385.4 c 0,0.756 1.043,1.366 2.34,1.366 1.295,0 2.375,-0.61 2.375,-1.366 0,-0.757 -1.08,-1.369 -2.375,-1.369 -1.3,0 -2.34,0.61 -2.34,1.37 z" />
    <path
       inkscape:connector-curvature="0"
       id="path240"
       i:knockout="Off"
       d="m 360.08,366.57 c 0,1.438 2.017,2.627 4.5,2.627 2.521,0 4.535,-1.188 4.535,-2.627 0,-1.478 -2.016,-2.629 -4.535,-2.629 -2.48,0 -4.5,1.15 -4.5,2.63 z" />
    <path
       style="fill:#a16121"
       inkscape:connector-curvature="0"
       id="path242"
       i:knockout="Off"
       d="m 361.88,366.32 c 0,0.756 1.045,1.366 2.342,1.366 1.295,0 2.375,-0.61 2.375,-1.366 0,-0.756 -1.08,-1.369 -2.375,-1.369 -1.3,0 -2.34,0.61 -2.34,1.37 z" />
    <path
       inkscape:connector-curvature="0"
       id="path244"
       i:knockout="Off"
       d="m 374.48,350.01 c 0,1.44 2.016,2.628 4.5,2.628 2.521,0 4.535,-1.188 4.535,-2.628 0,-1.476 -2.016,-2.664 -4.535,-2.664 -2.48,0 -4.5,1.18 -4.5,2.66 z" />
    <path
       style="fill:#a16121"
       inkscape:connector-curvature="0"
       id="path246"
       i:knockout="Off"
       d="m 376.28,349.72 c 0,0.792 1.045,1.404 2.34,1.404 1.297,0 2.377,-0.612 2.377,-1.404 0,-0.756 -1.079,-1.368 -2.377,-1.368 -1.3,0 -2.34,0.62 -2.34,1.37 z" />
    <path
       inkscape:connector-curvature="0"
       id="path248"
       i:knockout="Off"
       d="m 388.88,333.05 c 0,1.476 2.018,2.664 4.5,2.664 2.521,0 4.537,-1.188 4.537,-2.664 0,-1.44 -2.017,-2.628 -4.537,-2.628 -2.48,0.01 -4.5,1.19 -4.5,2.63 z" />
    <path
       style="fill:#a16121"
       inkscape:connector-curvature="0"
       id="path250"
       i:knockout="Off"
       d="m 390.68,332.8 c 0,0.756 1.045,1.368 2.34,1.368 1.297,0 2.377,-0.612 2.377,-1.368 0,-0.756 -1.08,-1.368 -2.377,-1.368 -1.3,0 -2.34,0.62 -2.34,1.37 z" />
    <path
       inkscape:connector-curvature="0"
       id="path252"
       i:knockout="Off"
       d="m 403.28,316.13 c 0,1.476 2.017,2.664 4.5,2.664 2.521,0 4.537,-1.188 4.537,-2.664 0,-1.44 -2.018,-2.628 -4.537,-2.628 -2.48,0.01 -4.5,1.19 -4.5,2.63 z" />
    <path
       style="fill:#a16121"
       inkscape:connector-curvature="0"
       id="path254"
       i:knockout="Off"
       d="m 405.08,315.88 c 0,0.756 1.043,1.368 2.341,1.368 1.295,0 2.375,-0.612 2.375,-1.368 0,-0.756 -1.08,-1.368 -2.375,-1.368 -1.3,0 -2.34,0.62 -2.34,1.37 z" />
    <path
       style="fill:#a16121"
       inkscape:connector-curvature="0"
       id="path256"
       i:knockout="Off"
       d="m 155.06,671.09 c -0.504,1.152 -1.188,2.232 -2.052,3.638 -0.864,1.295 -1.98,2.735 -3.204,4.319 v 14.543 c 2.628,0.359 4.608,1.621 6.372,4.068 1.62,2.375 2.88,5.795 3.636,10.26 18.612,-1.729 33.768,-3.6 46.152,-5.473 12.204,-1.943 21.672,-3.131 27.288,-5.902 5.508,-2.772 7.488,-6.336 5.94,-10.692 -4.248,-3.925 -8.604,-6.552 -13.212,-8.425 -4.572,-1.764 -10.224,-0.827 -14.328,-2.483 -4.32,-1.765 -7.776,-4.535 -10.908,-8.172 -15.23,1.43 -30.46,2.86 -45.69,4.3 z" />
    <path
       style="fill:#e5953c"
       inkscape:connector-curvature="0"
       id="path258"
       i:knockout="Off"
       d="m 205.96,664.47 c 0.252,2.195 1.08,3.636 4.572,5.004 3.42,1.15 11.736,0.646 16.344,2.521 4.428,1.764 6.912,6.912 10.944,8.641 4.104,1.584 9.719,2.482 13.391,1.584 3.563,-1.008 7.561,-3.637 7.957,-7.057 0.217,-3.527 -1.873,-10.729 -6.119,-13.394 -4.248,-2.698 -13.357,-1.618 -19.117,-2.735 -6.084,-1.295 -11.484,-3.888 -15.912,-4.318 -4.392,-0.396 -7.776,0.107 -9.756,1.799 -2,1.67 -2.72,5.67 -2.29,7.97 z" />
    <path
       style="fill:#e5953c"
       inkscape:connector-curvature="0"
       id="path260"
       i:knockout="Off"
       d="m 233.04,652.88 c 3.564,-5.904 7.38,-9.037 11.592,-9.541 4.14,-0.469 8.243,4.787 13.429,6.588 5.219,1.584 13.139,0.937 17.496,3.205 4.139,2.303 6.768,6.406 7.738,10.224 0.938,3.563 1.44,9.827 -1.837,11.592 -3.383,1.766 -9.395,1.332 -18.18,-1.15 -0.106,-6.805 -2.123,-11.557 -5.904,-14.545 -3.924,-2.951 -13.031,-2.195 -17.063,-3.168 -4.12,-1.16 -6.49,-2.1 -7.28,-3.21 z" />
    <path
       style="fill:#e5953c"
       inkscape:connector-curvature="0"
       id="path262"
       i:knockout="Off"
       d="m 260.54,643.81 c 0.828,-1.692 2.271,-2.809 4.32,-3.205 1.98,-0.467 4.033,-1.008 7.957,0.47 3.853,1.26 10.223,6.155 15.228,7.739 4.86,1.548 11.377,-0.396 14.112,1.8 2.627,2.159 2.484,7.885 1.799,10.907 -0.827,2.81 -3.383,5.58 -6.118,6.373 -2.771,0.791 -5.978,0.144 -10.009,-1.801 -0.756,-5.867 -2.771,-10.008 -5.903,-12.959 -3.275,-2.988 -9.611,-2.809 -13.176,-4.32 -3.57,-1.58 -6.3,-3.21 -8.21,-5 z" />
  </g>
  <metadata
     id="metadata271">
    <rdf:RDF>
      <cc:Work>
        <dc:format>image/svg+xml</dc:format>
        <dc:type
           rdf:resource="http://purl.org/dc/dcmitype/StillImage" />
        <cc:license
           rdf:resource="http://creativecommons.org/publicdomain/zero/1.0/" />
        <dc:publisher>
          <cc:Agent
             rdf:about="http://openclipart.org/">
            <dc:title>OpenClipart Library</dc:title>
          </cc:Agent>
        </dc:publisher>
        <dc:title>Harp</dc:title>
        <dc:date>2006-10-17T10:43:34</dc:date>
        <dc:description />
        <dc:source>https://openclipart.org/detail/8464</dc:source>
        <dc:creator>
          <cc:Agent>
            <dc:title>Gerald_G</dc:title>
          </cc:Agent>
        </dc:creator>
        <dc:subject>
          <rdf:Bag>
            <rdf:li>colouring book</rdf:li>
            <rdf:li>harp</rdf:li>
            <rdf:li>instrument</rdf:li>
            <rdf:li>music</rdf:li>
          </rdf:Bag>
        </dc:subject>
      </cc:Work>
      <cc:License
         rdf:about="http://creativecommons.org/publicdomain/zero/1.0/">
        <cc:permits
           rdf:resource="http://creativecommons.org/ns#Reproduction" />
        <cc:permits
           rdf:resource="http://creativecommons.org/ns#Distribution" />
        <cc:permits
           rdf:resource="http://creativecommons.org/ns#DerivativeWorks" />
      </cc:License>
    </rdf:RDF>
  </metadata>
</svg>
