<?xml version="1.0" encoding="UTF-8" standalone="no"?>
<!-- Created with Inkscape (http://www.inkscape.org/) -->

<svg
   xmlns:dc="http://purl.org/dc/elements/1.1/"
   xmlns:cc="http://creativecommons.org/ns#"
   xmlns:rdf="http://www.w3.org/1999/02/22-rdf-syntax-ns#"
   xmlns:svg="http://www.w3.org/2000/svg"
   xmlns="http://www.w3.org/2000/svg"
   xmlns:xlink="http://www.w3.org/1999/xlink"
   xmlns:sodipodi="http://sodipodi.sourceforge.net/DTD/sodipodi-0.dtd"
   xmlns:inkscape="http://www.inkscape.org/namespaces/inkscape"
   height="255.91217"
   width="256"
   id="svg7931"
   sodipodi:version="0.32"
   inkscape:version="0.92.4 (5da689c313, 2019-01-14)"
   version="1.0"
   sodipodi:docname="violin.svg"
   inkscape:output_extension="org.inkscape.output.svg.inkscape">
  <title
     id="title842">Violin</title>
  <defs
     id="defs7933">
    <radialGradient
       inkscape:collect="always"
       xlink:href="#linearGradient11085"
       id="radialGradient11091"
       cx="1049.4054"
       cy="260.33261"
       fx="1049.4054"
       fy="260.33261"
       r="151.54768"
       gradientTransform="matrix(-0.4814499,-0.4814499,0.6543995,-0.6543997,716.80238,973.82458)"
       gradientUnits="userSpaceOnUse" />
    <linearGradient
       inkscape:collect="always"
       id="linearGradient11085">
      <stop
         style="stop-color:#e8943a;stop-opacity:1"
         offset="0"
         id="stop11087" />
      <stop
         style="stop-color:#af412a;stop-opacity:1"
         offset="1"
         id="stop11089" />
    </linearGradient>
  </defs>
  <sodipodi:namedview
     id="base"
     pagecolor="#ffffff"
     bordercolor="#666666"
     borderopacity="1.0"
     inkscape:pageopacity="0.0"
     inkscape:pageshadow="2"
     inkscape:cx="177.91547"
     inkscape:cy="45.839734"
     inkscape:zoom="0.78499997"
     inkscape:document-units="px"
     inkscape:current-layer="svg7931"
     width="500px"
     height="500px"
     inkscape:window-width="1920"
     inkscape:window-height="1025"
     inkscape:window-x="-8"
     inkscape:window-y="-8"
     showgrid="false"
     borderlayer="false"
     inkscape:window-maximized="1"
     fit-margin-top="0"
     fit-margin-left="0"
     fit-margin-right="0"
     fit-margin-bottom="0"
     inkscape:pagecheckerboard="true" />
  <metadata
     id="metadata7936">
    <rdf:RDF>
      <cc:Work
         rdf:about="">
        <dc:format>image/svg+xml</dc:format>
        <dc:type
           rdf:resource="http://purl.org/dc/dcmitype/StillImage" />
        <dc:title>Violin</dc:title>
        <cc:license
           rdf:resource="http://creativecommons.org/publicdomain/zero/1.0/" />
        <dc:creator>
          <cc:Agent>
            <dc:title>papapishu</dc:title>
          </cc:Agent>
        </dc:creator>
        <dc:publisher>
          <cc:Agent>
            <dc:title>OpenClipart Library</dc:title>
          </cc:Agent>
        </dc:publisher>
        <dc:source>https://openclipart.org/detail/4802</dc:source>
      </cc:Work>
      <cc:License
         rdf:about="http://creativecommons.org/publicdomain/zero/1.0/">
        <cc:permits
           rdf:resource="http://creativecommons.org/ns#Reproduction" />
        <cc:permits
           rdf:resource="http://creativecommons.org/ns#Distribution" />
        <cc:permits
           rdf:resource="http://creativecommons.org/ns#DerivativeWorks" />
      </cc:License>
    </rdf:RDF>
  </metadata>
  <g
     transform="matrix(-0.65567464,-0.01121365,-0.01121365,0.65567464,293.94088,-31.988466)"
     style="display:inline"
     id="g1144">
    <path
       sodipodi:nodetypes="ccccccccscccccccc"
       id="path8016"
       d="m 161.78344,162.42037 c -26.16266,19.7719 -43.02713,41.46756 -20.38217,71.33758 15.11152,21.34975 38.41949,22.33212 36.94268,38.21656 13.45101,-9.93878 28.37625,-6.60954 45.22293,14.01274 16.7568,34.17926 5.11761,43.34474 -8.28026,49.04459 18.96952,3.48325 17.23673,25.25873 31.84713,54.14013 24.24732,28.51922 53.03461,39.27375 73.88536,35.66878 34.64613,-4.28964 50.26226,-14.29218 72.61146,-29.9363 26.97794,-20.4336 50.77701,-41.37676 48.40765,-71.97452 -1.85633,-23.97236 -15.24517,-40.78506 -35.03185,-54.77707 -18.75702,-13.2189 -36.40296,-10.5936 -41.40127,-29.93631 -11.35085,9.32511 -25.95621,12.46665 -54.14013,-10.19108 -30.01583,-28.71429 -9.14137,-26.59318 -5.73249,-34.39491 -18.24616,-0.91996 -13.83194,-20.79386 -28.66242,-36.94267 -22.97921,-22.38077 -52.3942,-24.53482 -87.26114,-9.55414 v 0 0"
       style="opacity:1;fill:#a8412e;fill-opacity:1;fill-rule:evenodd;stroke:#000000;stroke-width:1px;stroke-linecap:butt;stroke-linejoin:miter;stroke-opacity:1"
       inkscape:connector-curvature="0" />
    <path
       style="opacity:1;fill:url(#radialGradient11091);fill-opacity:1;fill-rule:evenodd;stroke:#000000;stroke-width:0.94279218px;stroke-linecap:butt;stroke-linejoin:miter;stroke-opacity:1"
       d="m 164.98268,165.41282 c -23.62428,18.91542 -41.60318,40.84539 -18.877,68.89785 15.23443,20.05969 35.27197,17.60753 34.65458,32.63928 12.15694,-9.51077 29.5272,-2.02996 46.35676,17.32726 14.2178,29.62883 8.18437,44.76259 -4.12818,50.26486 17.99311,3.13377 19.33168,44.75696 28.72799,54.10794 23.84784,26.12479 53.01093,34.77723 72.42797,31.19298 32.3463,-4.34783 47.80843,-15.21102 70.59744,-30.19134 24.35826,-19.54796 46.06529,-39.70795 42.70866,-72.2732 -3.26013,-20.2711 -18.29021,-35.89832 -37.56074,-48.96161 -18.26554,-12.34097 -30.89713,-7.16226 -36.53161,-25.40939 -10.21334,8.91282 -26.96926,9.45853 -54.55026,-11.7278 -29.59598,-26.8976 -14.3376,-30.16337 -10.23896,-36.29503 -15.91525,-2.62698 -8.90961,-20.81872 -23.62777,-35.9631 -22.67709,-20.96829 -50.76166,-23.13038 -82.79703,-8.67192"
       id="path8030"
       sodipodi:nodetypes="ccccccccccccccc"
       inkscape:connector-curvature="0" />
    <path
       sodipodi:nodetypes="ccccccc"
       id="path8050"
       d="M 234.3949,236.30572 98.089172,93.630567 C 89.399837,84.261805 82.583071,80.503478 73.88535,84.71337 90.021231,73.673028 103.60934,72.823775 114.64968,82.165599 l 74.54578,66.159381 78.32046,69.5094 c -12.05719,-0.96087 -22.7465,7.65351 -33.12102,18.47134 z"
       style="fill:#000000;fill-opacity:1;fill-rule:evenodd;stroke:#000000;stroke-width:1px;stroke-linecap:butt;stroke-linejoin:miter;stroke-opacity:1"
       inkscape:connector-curvature="0" />
    <path
       sodipodi:nodetypes="ccccccc"
       id="path8052"
       d="m 94.267516,98.726109 -11.464968,5.095541 c 1.404091,6.67829 0.778465,8.09362 -6.369427,10.19108 -5.373855,-0.78326 -8.042862,-4.27136 -8.280255,-10.19108 4.317522,-8.614159 8.367467,-5.493709 12.101911,-5.095541 l 11.464968,-5.095542 c 1.800818,1.460624 4.017117,2.817377 2.547771,5.095542 z"
       style="fill:none;fill-rule:evenodd;stroke:#000000;stroke-width:1px;stroke-linecap:butt;stroke-linejoin:miter;stroke-opacity:1"
       inkscape:connector-curvature="0" />
    <path
       sodipodi:nodetypes="ccccccc"
       id="path8120"
       d="m 108.09276,77.537471 5.62983,-3.377899 c -1.76307,-5.22581 1.1013,-7.752274 6.5306,-8.782536 6.14537,0.310167 8.10572,4.80536 7.65657,11.710048 -2.67998,5.145016 -6.40375,6.636802 -11.48485,3.377899 l -2.47713,0.900773 0.45039,0.450387"
       style="fill:none;fill-rule:evenodd;stroke:#000000;stroke-width:1px;stroke-linecap:butt;stroke-linejoin:miter;stroke-opacity:1"
       inkscape:connector-curvature="0" />
    <path
       sodipodi:nodetypes="cc"
       id="path8122"
       d="m 102.01254,75.285538 c -1.27253,-4.500296 3.54307,-9.443073 11.25966,-6.530604"
       style="fill:none;fill-rule:evenodd;stroke:#000000;stroke-width:1px;stroke-linecap:butt;stroke-linejoin:miter;stroke-opacity:1"
       inkscape:connector-curvature="0" />
    <path
       sodipodi:nodetypes="ccccccccccccccc"
       d="m 85.573432,77.537471 -4.954251,4.954251 c 16.316362,2.633954 24.811879,17.838488 34.004179,28.824728 -14.36171,9.60093 -19.017231,-18.085967 -29.275121,-5.85502 L 75.101947,92.062434 c -2.181056,-3.426545 -6.356442,-8.365181 -7.994361,-12.94861 -3.939788,2.936984 -7.1688,-0.167634 -9.908502,-7.431377 1.426224,-2.134922 2.852447,-3.253759 4.278671,-1.801546 -0.318107,-6.455785 -4.912191,-18.50323 1.801546,-15.763527 0.863186,-1.351225 0.627882,-4.020639 4.278672,-2.02674 4.01763,-5.130128 10.004503,3.524453 15.087947,5.855025 5.623088,-1.062362 7.43246,3.170298 5.855024,9.908503 2.141736,6.899542 -0.37713,7.973332 -2.927512,9.007729 l 0.225193,1.125966 h -0.225193"
       style="fill:#b84e2c;fill-opacity:1;fill-rule:evenodd;stroke:#000000;stroke-width:1px;stroke-linecap:butt;stroke-linejoin:miter;stroke-opacity:1"
       id="path8124"
       inkscape:connector-curvature="0" />
    <path
       sodipodi:nodetypes="cccccccccccc"
       id="path8130"
       d="m 244.10947,263.32189 c -9.36941,-0.9886 -7.47145,6.63479 -3.1527,15.53833 9.9861,10.42525 25.74629,25.0494 23.4201,40.3096 0.3694,9.02114 -6.04783,12.56606 -16.88949,9.9085 -3.03699,-2.0757 -6.05375,-5.29925 -0.67559,-9.00773 5.16412,-1.39592 4.84163,2.11017 4.72907,5.40463 7.15674,3.65081 9.73653,-1.41403 8.10695,-8.55734 -2.01239,-8.54204 -8.61591,-15.24514 -14.63756,-22.06893 -15.83927,-22.01877 -11.80534,-28.91011 -8.33215,-32.87822 3.45296,-1.6258 6.90593,-3.56969 10.35889,-1.12596 2.26068,2.32918 3.70425,4.1163 2.25193,5.85502 -3.12962,2.63496 -5.86555,0.42872 -5.17945,-3.3779 z"
       style="fill:#000000;fill-opacity:1;fill-rule:evenodd;stroke:#000000;stroke-width:1px;stroke-linecap:butt;stroke-linejoin:miter;stroke-opacity:1"
       inkscape:connector-curvature="0" />
    <path
       sodipodi:nodetypes="ccccccccccccc"
       id="path8132"
       d="m 349.49991,261.97073 c 3.35166,7.53653 -12.60882,1.71088 -15.98872,-0.90077 l -30.40109,-23.4201 c -12.78785,-8.84822 -14.06449,-6.70086 -20.04219,-5.40464 -1.44848,2.05074 -4.3731,3.43051 0.45038,8.33215 4.51537,2.11331 4.74633,-0.0578 5.17945,-2.02673 l -3.60309,-2.47713 c 2.75024,-5.83253 9.42398,-0.8117 13.0612,2.25193 11.0063,9.43924 22.20798,20.05072 32.65302,26.12242 9.08802,5.10145 14.70057,3.8312 20.2674,2.47712 3.4968,-1.45033 2.85406,-4.67475 2.25193,-7.88176 -2.79692,-2.89667 -5.91656,-4.66385 -9.90851,-3.3779 -3.40127,2.69657 0.24877,5.48542 6.08022,6.30541 z"
       style="fill:#000000;fill-opacity:1;fill-rule:evenodd;stroke:#000000;stroke-width:1px;stroke-linecap:butt;stroke-linejoin:miter;stroke-opacity:1"
       inkscape:connector-curvature="0" />
    <path
       sodipodi:nodetypes="ccccc"
       id="path8134"
       d="m 264.82725,281.56254 -2.70232,-14.41236 c 13.10977,-18.38653 27.13279,-23.98753 41.43556,-25.67203 l -3.1527,19.36662 z"
       style="fill:#d5b29b;fill-opacity:1;fill-rule:evenodd;stroke:#000000;stroke-width:1px;stroke-linecap:butt;stroke-linejoin:miter;stroke-opacity:1"
       inkscape:connector-curvature="0" />
    <path
       sodipodi:nodetypes="ccccccc"
       id="path8136"
       d="m 300.40779,307.68496 c 7.64335,-7.96476 16.14915,-15.41204 29.7255,-19.817 6.90593,10.79251 13.81185,21.21677 20.71778,37.83246 14.43105,25.63466 41.78133,46.59903 50.89368,59.45101 l -21.61856,13.96199 c -14.33943,-19.0282 -9.07686,-28.52074 -41.43555,-60.35179 -13.49669,-9.3779 -28.15528,-17.20661 -38.28285,-31.07667 z"
       style="fill:#000000;fill-opacity:1;fill-rule:evenodd;stroke:#000000;stroke-width:1px;stroke-linecap:butt;stroke-linejoin:miter;stroke-opacity:1"
       inkscape:connector-curvature="0" />
    <path
       sodipodi:nodetypes="cc"
       id="path8138"
       d="m 304.01088,310.83767 c 9.30799,-10.24983 18.61597,-15.98531 27.92396,-20.2674"
       style="fill:none;fill-rule:evenodd;stroke:#000000;stroke-width:1px;stroke-linecap:butt;stroke-linejoin:miter;stroke-opacity:1"
       inkscape:connector-curvature="0" />
    <path
       id="path8140"
       d="M 96.178344,91.719739 115.28662,81.528656"
       style="fill:none;fill-rule:evenodd;stroke:#000000;stroke-width:1px;stroke-linecap:butt;stroke-linejoin:miter;stroke-opacity:1"
       inkscape:connector-curvature="0" />
    <path
       id="path8142"
       d="M 305.73248,303.1847 268.78981,259.23566 100,89.808911 v 0"
       style="fill:none;fill-rule:evenodd;stroke:#858585;stroke-width:1px;stroke-linecap:butt;stroke-linejoin:miter;stroke-opacity:1"
       inkscape:connector-curvature="0" />
    <path
       id="path8144"
       d="M 311.46497,298.08916 277.07006,250.9554 104.4586,87.26114"
       style="fill:none;fill-rule:evenodd;stroke:#858585;stroke-width:1px;stroke-linecap:butt;stroke-linejoin:miter;stroke-opacity:1"
       inkscape:connector-curvature="0" />
    <path
       id="path8146"
       d="M 319.74522,291.71974 287.26115,244.58598 108.9172,84.076427 v 0 h 1.27388"
       style="fill:none;fill-rule:evenodd;stroke:#858585;stroke-width:1px;stroke-linecap:butt;stroke-linejoin:miter;stroke-opacity:1"
       inkscape:connector-curvature="0" />
    <path
       id="path8148"
       d="M 327.38854,287.89808 296.81529,242.67515 114.01274,82.165599 v 0"
       style="fill:none;fill-rule:evenodd;stroke:#858585;stroke-width:1px;stroke-linecap:butt;stroke-linejoin:miter;stroke-opacity:1"
       inkscape:connector-curvature="0" />
    <g
       transform="translate(9.1120896e-8,-5.5839769e-6)"
       id="g15943">
      <path
         sodipodi:nodetypes="cccccc"
         d="m 134.3949,224.84076 c -5.47715,43.94904 51.2832,49.68153 45.22293,68.78981 l 3.82166,1.27389 c 24.30008,-22.51546 45.68328,15.55836 45.70164,28.54859 10.02233,-13.91126 -13.96132,-75.87317 -51.23847,-51.34861 1.52816,-17.69681 -23.02411,-15.53545 -43.2371,-46.38981"
         style="fill:#af412a;fill-opacity:1;fill-rule:evenodd;stroke:#000000;stroke-width:1px;stroke-linecap:butt;stroke-linejoin:miter;stroke-opacity:1"
         id="path8150"
         inkscape:connector-curvature="0" />
    </g>
    <path
       sodipodi:nodetypes="ccccccccccc"
       d="m 213.93358,334.25776 c 26.368,2.23437 20.04345,35.03875 34.67976,56.29831 38.09673,40.65696 71.56901,36.70118 105.84082,27.02319 47.21026,-21.45711 77.91564,-51.86461 87.04845,-80.97231 -4.13617,20.22984 1.95467,33.94443 -44.05038,73.58412 -45.10816,34.02957 -63.63478,32.61708 -84.07643,33.75796 -33.70465,-2.60108 -52.31778,-20.29369 -67.51593,-41.40127 -12.31281,-16.56249 -8.22738,-41.56021 -25.4777,-43.94904 -4.15339,-1.59493 -2.41032,-4.98312 -1.27389,-7.00637 l -1.27389,-11.46497 c -3.34561,-0.54041 -2.58624,-3.5438 -3.18471,-5.73249"
       style="fill:#af412a;fill-opacity:1;fill-rule:evenodd;stroke:#000000;stroke-width:1px;stroke-linecap:butt;stroke-linejoin:miter;stroke-opacity:1"
       id="path8152"
       inkscape:connector-curvature="0" />
    <path
       sodipodi:nodetypes="ccccc"
       d="m 306.488,193.51199 c 0.88494,2.49159 1.52787,4.82184 -1.12596,4.95425 v 13.96198 c 1.82596,4.10059 2.33332,7.27817 -3.3779,6.41801 -19.88283,-21.96631 2.2644,-17.66584 4.27867,-26.00982"
       style="fill:#af412a;fill-opacity:1;fill-rule:evenodd;stroke:#000000;stroke-width:1px;stroke-linecap:butt;stroke-linejoin:miter;stroke-opacity:1"
       id="path8128"
       inkscape:connector-curvature="0" />
    <path
       style="opacity:1;fill:#000000;fill-opacity:1;fill-rule:evenodd;stroke:#000000;stroke-width:1px;stroke-linecap:butt;stroke-linejoin:miter;stroke-opacity:1"
       d="m 103.13647,81.187361 11.19134,-5.671337 c -1.74151,-6.598346 -1.18858,-8.043629 5.84354,-10.501465 5.4067,0.509279 8.24945,3.857301 8.78723,9.75732 -3.87438,8.822352 -8.0776,5.911652 -11.82745,5.703691 l -11.19133,5.671336 c -1.87269,-1.36726 -4.15505,-2.60968 -2.80333,-4.959545 z"
       id="path16989"
       sodipodi:nodetypes="ccccccc"
       inkscape:connector-curvature="0" />
    <path
       sodipodi:nodetypes="ccccccc"
       id="path16987"
       d="m 91.426426,79.836202 11.191344,-5.671337 c -1.74151,-6.598346 -1.18858,-8.043629 5.84354,-10.501465 5.4067,0.509279 8.24945,3.857301 8.78723,9.75732 -3.87438,8.822352 -8.0776,5.911652 -11.82745,5.703691 l -11.191334,5.671336 c -1.87269,-1.36726 -4.15505,-2.60968 -2.80333,-4.959545 z"
       style="opacity:1;fill:#000000;fill-opacity:1;fill-rule:evenodd;stroke:#000000;stroke-width:1px;stroke-linecap:butt;stroke-linejoin:miter;stroke-opacity:1"
       inkscape:connector-curvature="0" />
    <path
       id="path16007"
       d="m 177.07006,271.33757 3.82166,23.56688 v 0"
       style="fill:none;fill-rule:evenodd;stroke:#000000;stroke-width:1px;stroke-linecap:butt;stroke-linejoin:miter;stroke-opacity:1"
       inkscape:connector-curvature="0" />
    <path
       inkscape:connector-curvature="0"
       sodipodi:nodetypes="ccccccc"
       id="path8093"
       d="m 93.817129,99.176502 -11.464968,5.095538 c 1.404091,6.67829 0.778465,8.09362 -6.369427,10.19108 -5.373855,-0.78326 -8.042862,-4.27136 -8.280255,-10.19108 4.317522,-8.614158 8.367467,-5.493708 12.101911,-5.095538 l 11.464968,-5.09554 c 1.800818,1.46062 4.017117,2.81737 2.547771,5.09554 z"
       style="opacity:1;fill:#000000;fill-opacity:1;fill-rule:evenodd;stroke:#000000;stroke-width:1px;stroke-linecap:butt;stroke-linejoin:miter;stroke-opacity:1" />
    <path
       inkscape:connector-curvature="0"
       style="opacity:1;fill:#000000;fill-opacity:1;fill-rule:evenodd;stroke:#000000;stroke-width:1px;stroke-linecap:butt;stroke-linejoin:miter;stroke-opacity:1"
       d="m 84.359014,91.970319 -11.464968,5.09554 c 1.404091,6.678291 0.778465,8.093621 -6.369427,10.191081 -5.373855,-0.78326 -8.042862,-4.27136 -8.280255,-10.191081 4.317522,-8.61416 8.367467,-5.49371 12.101911,-5.09554 l 11.464968,-5.09554 c 1.800818,1.46062 4.017117,2.81737 2.547771,5.09554 z"
       id="path8054"
       sodipodi:nodetypes="ccccccc" />
  </g>
</svg>
