<?xml version="1.0" encoding="UTF-8" standalone="no"?>
<!-- Created with Inkscape (http://www.inkscape.org/) -->

<svg
   xmlns:dc="http://purl.org/dc/elements/1.1/"
   xmlns:cc="http://creativecommons.org/ns#"
   xmlns:rdf="http://www.w3.org/1999/02/22-rdf-syntax-ns#"
   xmlns:svg="http://www.w3.org/2000/svg"
   xmlns="http://www.w3.org/2000/svg"
   xmlns:xlink="http://www.w3.org/1999/xlink"
   xmlns:sodipodi="http://sodipodi.sourceforge.net/DTD/sodipodi-0.dtd"
   xmlns:inkscape="http://www.inkscape.org/namespaces/inkscape"
   id="svg1"
   sodipodi:docname="long_sword_01.svg"
   viewBox="0 0 256.00001 256"
   sodipodi:version="0.32"
   version="1.1"
   inkscape:version="0.92.4 (5da689c313, 2019-01-14)"
   width="256"
   height="256">
  <defs
     id="defs3">
    <linearGradient
       id="linearGradient8383">
      <stop
         id="stop8384"
         style="stop-color:#ffffff;stop-opacity:.79775"
         offset="0" />
      <stop
         id="stop8385"
         style="stop-color:#ffffff;stop-opacity:.19101"
         offset="1" />
    </linearGradient>
    <linearGradient
       id="linearGradient8386"
       y2="131.02"
       xlink:href="#linearGradient8383"
       gradientUnits="userSpaceOnUse"
       x2="253.13"
       gradientTransform="scale(1.019,0.98135)"
       y1="116.42"
       x1="238.23"
       inkscape:collect="always" />
    <linearGradient
       id="linearGradient9631"
       y2="121.26"
       xlink:href="#linearGradient8383"
       gradientUnits="userSpaceOnUse"
       x2="249"
       gradientTransform="scale(1.0069,0.99313)"
       y1="118.28"
       x1="244.23"
       inkscape:collect="always" />
    <linearGradient
       id="linearGradient10266"
       y2="10.028"
       xlink:href="#linearGradient8383"
       gradientUnits="userSpaceOnUse"
       x2="179.83"
       gradientTransform="scale(1.4723,0.67921)"
       y1="-7.8098001"
       x1="164.00999"
       inkscape:collect="always" />
    <linearGradient
       id="linearGradient1552"
       y2="43.692001"
       xlink:href="#linearGradient8383"
       gradientUnits="userSpaceOnUse"
       x2="996.79999"
       gradientTransform="scale(0.25725,3.8873)"
       y1="113.94"
       x1="996.79999"
       inkscape:collect="always" />
    <linearGradient
       id="linearGradient1553"
       y2="37.900002"
       gradientUnits="userSpaceOnUse"
       x2="962.58002"
       gradientTransform="scale(0.25725,3.8873)"
       y1="115.4"
       x1="962.58002"
       inkscape:collect="always">
      <stop
         id="stop1555"
         style="stop-color:#000000;stop-opacity:.22472"
         offset="0" />
      <stop
         id="stop1560"
         style="stop-color:#000000;stop-opacity:.49412"
         offset=".5" />
      <stop
         id="stop1556"
         style="stop-color:#000000;stop-opacity:.18824"
         offset="1" />
    </linearGradient>
    <linearGradient
       id="linearGradient2186"
       y2="44.563"
       xlink:href="#linearGradient8383"
       gradientUnits="userSpaceOnUse"
       x2="415.32001"
       gradientTransform="scale(0.60899,1.6421)"
       y1="25.473"
       x1="387.82999"
       inkscape:collect="always" />
    <linearGradient
       id="linearGradient2809"
       y2="148.33"
       xlink:href="#linearGradient8383"
       gradientUnits="userSpaceOnUse"
       x2="159.94"
       gradientTransform="scale(1.2637,0.79131)"
       y1="142.91"
       x1="148.44"
       inkscape:collect="always" />
    <linearGradient
       id="linearGradient2811"
       y2="160.61"
       xlink:href="#linearGradient8383"
       gradientUnits="userSpaceOnUse"
       x2="227.55"
       gradientTransform="scale(1.2966,0.77128)"
       y1="146.27"
       x1="215.25"
       inkscape:collect="always" />
    <linearGradient
       id="linearGradient2813"
       y2="176.13"
       xlink:href="#linearGradient8383"
       gradientUnits="userSpaceOnUse"
       x2="173.2"
       gradientTransform="scale(1.4147,0.70688)"
       y1="151.92"
       x1="155.59"
       inkscape:collect="always" />
    <linearGradient
       id="linearGradient2815"
       y2="17.92"
       xlink:href="#linearGradient8383"
       gradientUnits="userSpaceOnUse"
       x2="270.95001"
       gradientTransform="scale(0.92563,1.0803)"
       y1="-4.6202998"
       x1="247.39999"
       inkscape:collect="always" />
    <linearGradient
       id="linearGradient5315"
       y2="68.191002"
       xlink:href="#linearGradient8383"
       spreadMethod="reflect"
       gradientUnits="userSpaceOnUse"
       x2="336.85001"
       gradientTransform="scale(0.70228,1.4239)"
       y1="51.486"
       x1="354.45999"
       inkscape:collect="always" />
    <linearGradient
       inkscape:collect="always"
       xlink:href="#linearGradient8383"
       id="linearGradient853"
       gradientUnits="userSpaceOnUse"
       gradientTransform="scale(1.019,0.98135)"
       x1="238.23"
       y1="116.42"
       x2="253.13"
       y2="131.02" />
    <linearGradient
       inkscape:collect="always"
       xlink:href="#linearGradient8383"
       id="linearGradient855"
       gradientUnits="userSpaceOnUse"
       gradientTransform="scale(1.0069,0.99313)"
       x1="244.23"
       y1="118.28"
       x2="249"
       y2="121.26" />
  </defs>
  <sodipodi:namedview
     id="base"
     bordercolor="#666666"
     inkscape:pageshadow="2"
     inkscape:window-y="-8"
     pagecolor="#ffffff"
     inkscape:window-height="1025"
     inkscape:window-maximized="1"
     inkscape:zoom="2.8284271"
     inkscape:window-x="-8"
     showgrid="false"
     borderopacity="1.0"
     inkscape:current-layer="g5316"
     inkscape:cx="14.779143"
     inkscape:cy="108.10183"
     inkscape:window-width="1920"
     inkscape:pageopacity="0.0"
     fit-margin-top="0"
     fit-margin-left="0"
     fit-margin-right="0"
     fit-margin-bottom="0" />
  <g
     id="g5316"
     transform="matrix(-0.45266774,-0.50250651,0.50250651,-0.45266774,119.97787,362.49589)">
    <g
       id="g882"
       transform="matrix(1.0387656,-0.04694088,0.04694088,1.0387656,-21.182179,2.5940406)">
      <path
         d="m 247.81,119.41 v 0.03 l -12.84,1.31 c 0.67,5.17 -0.86,18.03 -4.5,29.91 2.49,3.64 7.18,11.66 7.65,17.03 l 9.79,-0.1 H 248 l 9.78,0.1 c 0.48,-5.37 5.17,-13.39 7.66,-17.03 -3.64,-11.88 -5.17,-24.74 -4.5,-29.91 l -12.85,-1.31 v -0.03 z"
         inkscape:connector-curvature="0"
         style="fill:#dadac7;fill-rule:evenodd;stroke:#000000;stroke-width:1.00000003pt"
         id="path2160" />
      <path
         d="m 237,426.43 c -1.5,-89.48 -1.5,-178.33 -1.75,-267.5 4.56,-7.14 2.62,-20.76 2.43,-31.14 h 20.58 c 0.51,11.26 -2.22,23.15 3.02,30.52 0.72,88.69 1.52,177.53 0.68,266.85 -0.79,24.71 -6.73,47.88 -10.1,71.82 -4.95,-23.52 -13.51,-45.36 -14.86,-70.55 z"
         style="fill:#cacbcb;fill-rule:evenodd;stroke:#000000;stroke-width:1.25;stroke-linejoin:round"
         sodipodi:nodetypes="cccccccc"
         inkscape:connector-curvature="0"
         id="path908" />
      <path
         d="m 233.34,37.375 c 0.17,1.117 1.09,1.247 1,3.375 1.52,23.194 2.01,43.101 1.5,65.03 -0.16,1.39 -0.32,3.27 -1.25,4.66 l 13.03,0.22 13,-0.22 c -0.92,-1.39 -1.08,-3.27 -1.24,-4.66 -0.51,-21.929 -0.02,-41.836 1.5,-65.03 -0.09,-2.128 0.86,-2.258 1.03,-3.375 l -14.29,0.219 z"
         style="fill:#cacbcb;fill-rule:evenodd;stroke:#000000;stroke-width:1.00000003pt;stroke-linejoin:round"
         sodipodi:nodetypes="ccccccccccc"
         inkscape:connector-curvature="0"
         id="path4029" />
      <path
         d="m 234.4,38.183 c 0.17,1.117 1.08,1.248 1,3.375 1.52,23.194 2,40.901 1.5,62.832 -0.17,1.39 -0.32,3.26 -1.25,4.66 l 12.15,0.21 11.68,-0.21 c -0.93,-1.4 -1.08,-3.27 -1.25,-4.66 -0.51,-21.931 -0.02,-39.638 1.5,-62.832 -0.09,-2.127 0.86,-2.258 1.03,-3.375 l -12.96,0.219 z"
         style="fill:url(#linearGradient2186);fill-rule:evenodd"
         sodipodi:nodetypes="ccccccccccc"
         inkscape:connector-curvature="0"
         id="path1561" />
      <path
         d="m 260.91,44.094 c -1.14,0.071 -7.33,13.72 -13.41,27.594 -5.97,-13.601 -12.04,-26.931 -13.16,-27 -2.04,-0.273 -2.06,3.404 -0.15,6.124 0.76,1.078 5.97,13.526 11.19,25.719 -4.37,10.048 -9.1,21.063 -9.63,21.969 -1.77,2.86 -1.64,6.14 0.81,5.59 1.04,-0.24 5.9,-11.056 10.94,-22.715 5.15,11.912 10.13,23.035 11.19,23.285 2.45,0.54 2.58,-2.71 0.81,-5.566 -0.55,-0.931 -5.35,-12.166 -9.88,-22.563 5.35,-12.493 10.66,-25.21 11.44,-26.312 1.91,-2.721 1.89,-6.397 -0.15,-6.125 z"
         inkscape:connector-curvature="0"
         style="fill:#9b9b5d;fill-rule:evenodd;stroke:#000000;stroke-width:1.00000003pt"
         id="path2818" />
      <path
         d="m 220.04,115.5 c -7.15,-0.53 -19.48,-3.04 -26.27,-1.78 -5.72,1.07 -7.51,4.46 -8.05,8.58 0,3.93 0.54,6.07 5.19,9.47 4.29,2.68 13.05,3.93 13.05,-4.29 -0.54,-5.01 -3.22,-4.11 -5.54,-2.68 4.29,-3.93 15.55,-3.93 21.62,-3.58 0,-2.32 -1.07,-3.93 0,-5.72 z"
         style="fill:#9b9b5d;fill-rule:evenodd;stroke:#000000;stroke-width:1.00000003pt;stroke-linejoin:round"
         sodipodi:nodetypes="cccccccc"
         inkscape:connector-curvature="0"
         id="path6517" />
      <path
         d="m 276.53,115.29 c 7.15,-0.54 19.48,-3.04 26.28,-1.79 5.72,1.07 7.5,4.47 8.04,8.58 0,3.93 -0.54,6.08 -5.18,9.47 -4.29,2.69 -13.05,3.94 -13.05,-4.29 0.53,-5 3.22,-4.11 5.54,-2.68 -4.29,-3.93 -15.55,-3.93 -21.63,-3.57 0,-2.33 1.07,-3.93 0,-5.72 z"
         style="fill:#9b9b5d;fill-rule:evenodd;stroke:#000000;stroke-width:1.00000003pt;stroke-linejoin:round"
         sodipodi:nodetypes="cccccccc"
         inkscape:connector-curvature="0"
         id="path7760" />
      <path
         d="m 247.41,110.25 -13.03,0.08 c 0,0 1.54,3.01 0,4.11 -1.55,1.1 -12.55,0.66 -16.29,0.44 -0.44,1.54 -0.22,4.61 0.22,6.59 7.93,-0.44 14.53,11.23 25.75,9.47 -1.98,2.2 -2.63,6.82 -0.65,10.34 1.76,-3.74 3.62,-9.11 4.43,-9.56 0.88,0.44 2.21,5.73 3.97,9.47 1.98,-3.52 1.33,-8.15 -0.65,-10.35 11.22,1.76 17.82,-9.91 25.75,-9.46 0.44,-1.99 0.66,-5.06 0.21,-6.6 -3.74,0.22 -14.74,0.63 -16.28,-0.47 -1.54,-1.1 -0.13,-3.66 -0.13,-3.66 z"
         style="fill:#9b9b5d;fill-rule:evenodd;stroke:#000000;stroke-width:1.00000003pt;stroke-linejoin:round"
         sodipodi:nodetypes="ccccccccccccccc"
         inkscape:connector-curvature="0"
         id="path1533" />
      <path
         d="m 247.6,111.02 -12.37,-0.13 c 0,0 1.54,2.78 0,3.88 -1.55,1.1 -12.54,1.1 -16.29,0.88 -0.44,1.54 -0.66,3.29 -0.22,5.27 7.93,-0.44 14.75,11.23 25.97,9.47 -1.98,2.2 -3.07,5.94 -1.09,9.47 1.76,-3.75 3.4,-9.12 4.21,-9.57 0.88,0.44 2.21,5.73 3.97,9.47 1.98,-3.52 0.01,-7.26 -1.97,-9.46 11.22,1.76 18.48,-9.91 26.41,-9.47 0.44,-1.98 0.21,-3.95 -0.23,-5.49 -3.74,0.22 -13.64,0.85 -15.18,-0.25 -1.54,-1.1 -1.67,-3.01 -1.23,-3.89 -2.2,0.44 -11.98,-0.18 -11.98,-0.18 z"
         style="fill:url(#linearGradient2813);fill-rule:evenodd"
         sodipodi:nodetypes="ccccccccccccccc"
         inkscape:connector-curvature="0"
         id="path2812" />
      <path
         d="m 233.46,37.922 c 0.17,-1.116 1.08,-1.247 1,-3.375 -0.22,-8.685 -5.41,-11.046 -5.68,-24.839 -0.02,-20.191 37.11,-21.447 38.06,-1.2969 0.44,14.854 -5.89,17.991 -5.85,26.136 -0.09,2.128 0.86,2.259 1.03,3.375 l -14.28,-0.219 -14.28,0.219 z"
         style="fill:#9b9b5d;fill-rule:evenodd;stroke:#000000;stroke-width:1.00000003pt;stroke-linejoin:round"
         sodipodi:nodetypes="cccccccc"
         inkscape:connector-curvature="0"
         id="path5274" />
      <g
         id="g9632">
        <path
           d="m 258.1,121.41 c 0,4 -3.38,7.25 -7.54,7.25 -4.17,0 -7.55,-3.25 -7.55,-7.25 0,-4 3.38,-7.24 7.55,-7.24 4.16,0 7.54,3.24 7.54,7.24 z"
           transform="matrix(1.0695,0,0,1.1128,-19.772,-14.033)"
           style="fill:url(#linearGradient853);fill-rule:evenodd;stroke:#000000;stroke-width:1.14579999"
           inkscape:connector-curvature="0"
           id="path7761" />
        <path
           d="m 252.6,121.99 c 0,2.03 -1.68,3.67 -3.74,3.67 -2.07,0 -3.75,-1.64 -3.75,-3.67 0,-2.03 1.68,-3.67 3.75,-3.67 2.06,0 3.74,1.64 3.74,3.67 z"
           transform="matrix(1.4311,0,0,1.4304,-107.7,-53.432)"
           style="fill:#004691;fill-rule:evenodd;stroke:#000000;stroke-width:0.87366998"
           inkscape:connector-curvature="0"
           id="path8387" />
        <path
           d="m 246.13,124.62 c -4.96,-3.54 0.11,-9.55 3.89,-7.55 6.48,4.6 0.12,10.14 -3.89,7.55 z"
           style="fill:url(#linearGradient855);fill-rule:evenodd"
           sodipodi:nodetypes="ccc"
           inkscape:connector-curvature="0"
           id="path9009" />
      </g>
      <path
         d="m 235.2,36.968 c 0.17,-1.117 -0.24,-0.808 -0.32,-2.935 -0.22,-8.685 -4.97,-11.046 -5.24,-24.839 -0.15,-19.239 35.13,-18.807 36.3,-1.0771 0.44,14.854 -5,17.77 -4.97,25.916 -0.08,2.127 -0.9,2.038 -0.73,3.155 l -12.52,10e-4 -12.52,-0.221 z"
         style="fill:url(#linearGradient2815);fill-rule:evenodd"
         sodipodi:nodetypes="cccccccc"
         inkscape:connector-curvature="0"
         id="path2814" />
      <g
         transform="translate(-0.42198,-106.95)"
         id="g9636">
        <path
           d="m 258.1,121.41 c 0,4 -3.38,7.25 -7.54,7.25 -4.17,0 -7.55,-3.25 -7.55,-7.25 0,-4 3.38,-7.24 7.55,-7.24 4.16,0 7.54,3.24 7.54,7.24 z"
           transform="matrix(1.0695,0,0,1.1128,-19.772,-14.033)"
           style="fill:url(#linearGradient8386);fill-rule:evenodd;stroke:#000000;stroke-width:1.14579999"
           inkscape:connector-curvature="0"
           id="path9637" />
        <path
           d="m 252.6,121.99 c 0,2.03 -1.68,3.67 -3.74,3.67 -2.07,0 -3.75,-1.64 -3.75,-3.67 0,-2.03 1.68,-3.67 3.75,-3.67 2.06,0 3.74,1.64 3.74,3.67 z"
           transform="matrix(1.4311,0,0,1.4304,-107.7,-53.432)"
           style="fill:#004691;fill-rule:evenodd;stroke:#000000;stroke-width:0.87366998"
           inkscape:connector-curvature="0"
           id="path9638" />
        <path
           d="m 246.13,124.62 c -4.96,-3.54 0.11,-9.55 3.89,-7.55 6.48,4.6 0.12,10.14 -3.89,7.55 z"
           style="fill:url(#linearGradient9631);fill-rule:evenodd"
           sodipodi:nodetypes="ccc"
           inkscape:connector-curvature="0"
           id="path9639" />
      </g>
      <path
         d="m 229.53,9.6625 10.04,1.8675 c 0.62,-2.5677 3.26,-5.9134 7.93,-6.069 4.2,-0.1556 7.63,2.7232 8.56,5.913 l 9.96,-0.778 c 0.78,-2.5674 -0.39,-16.028 -17.97,-16.028 -14.24,0 -19.45,10.193 -18.52,15.094 z"
         style="fill:url(#linearGradient10266);fill-rule:evenodd"
         sodipodi:nodetypes="ccccccc"
         inkscape:connector-curvature="0"
         id="path9644" />
      <path
         d="m 239.07,157.54 c 0.12,11.09 0.22,273.82 2.87,282.87 4.91,18.04 12.1,17.82 16.52,-1.43 1.43,-7.9 -2.16,-274.52 -2.16,-280.72 -0.7,-7.61 -6.44,-10.78 -8.6,-20.3 -2.87,10.05 -7.99,14.04 -8.63,19.58 z"
         style="fill:url(#linearGradient1552);fill-rule:evenodd;stroke:url(#linearGradient1553);stroke-width:1.00000003pt"
         sodipodi:nodetypes="cccccc"
         inkscape:connector-curvature="0"
         id="path930" />
      <path
         d="m 217.2,116.04 c -7.15,-0.54 -16.62,-2.82 -23.41,-1.57 -5.72,1.08 -6.85,4.03 -7.39,8.14 0,3.94 0.32,4.98 4.97,8.38 4.29,2.68 11.51,4.81 11.51,-3.41 -0.54,-5.01 -3.22,-3.45 -5.54,-2.02 4.29,-3.94 13.79,-5.48 19.86,-5.12 0,-2.32 -1.07,-2.61 0,-4.4 z"
         style="fill:url(#linearGradient2809);fill-rule:evenodd"
         sodipodi:nodetypes="cccccccc"
         inkscape:connector-curvature="0"
         id="path2187" />
      <path
         d="m 277.95,115.6 c 7.15,-0.54 17.95,-2.38 24.74,-1.13 5.72,1.08 6.85,3.59 7.38,7.7 0,3.94 0.35,4.98 -4.3,8.38 -4.29,2.68 -12.17,5.25 -12.17,-2.97 0.54,-5.01 4.1,-3.45 6.42,-2.02 -4.29,-3.94 -15.77,-5.7 -21.85,-5.34 0,-2.32 0.86,-2.83 -0.22,-4.62 z"
         style="fill:url(#linearGradient2811);fill-rule:evenodd"
         sodipodi:nodetypes="cccccccc"
         inkscape:connector-curvature="0"
         id="path2810" />
      <path
         d="m 260.84,45.03 c -1.13,0.071 -7.05,14.401 -13.13,28.274 -5.97,-13.6 -12.04,-27.066 -13.16,-27.952 -2.04,-0.272 -1.51,2.86 0.39,5.581 0.76,1.078 5.97,13.389 11.19,25.583 -4.37,10.048 -9.09,21.062 -9.63,21.968 -1.08,2.996 -2.45,5.326 0,4.776 1.04,-0.24 6.03,-11.874 11.07,-23.533 5.15,11.913 10.4,23.713 11.46,23.963 1.77,0.27 1.77,-1.08 0,-3.932 -0.55,-0.93 -5.08,-12.709 -9.6,-23.106 4.8,-12.902 10.38,-25.618 11.16,-26.721 1.91,-2.72 2.29,-5.173 0.25,-4.901 z"
         style="fill:url(#linearGradient5315);fill-rule:evenodd"
         sodipodi:nodetypes="ccccccccccccc"
         inkscape:connector-curvature="0"
         id="path4693" />
    </g>
  </g>
  <metadata
     id="metadata47">
    <rdf:RDF>
      <cc:Work>
        <dc:format>image/svg+xml</dc:format>
        <dc:type
           rdf:resource="http://purl.org/dc/dcmitype/StillImage" />
        <cc:license
           rdf:resource="http://creativecommons.org/publicdomain/zero/1.0/" />
        <dc:publisher>
          <cc:Agent
             rdf:about="http://openclipart.org/">
            <dc:title>Openclipart</dc:title>
          </cc:Agent>
        </dc:publisher>
        <dc:title></dc:title>
      </cc:Work>
      <cc:License
         rdf:about="http://creativecommons.org/publicdomain/zero/1.0/">
        <cc:permits
           rdf:resource="http://creativecommons.org/ns#Reproduction" />
        <cc:permits
           rdf:resource="http://creativecommons.org/ns#Distribution" />
        <cc:permits
           rdf:resource="http://creativecommons.org/ns#DerivativeWorks" />
      </cc:License>
    </rdf:RDF>
  </metadata>
</svg>
