<?xml version="1.0" encoding="UTF-8" standalone="no"?>
<!-- Created with Inkscape (http://www.inkscape.org/) -->

<svg
   xmlns:dc="http://purl.org/dc/elements/1.1/"
   xmlns:cc="http://creativecommons.org/ns#"
   xmlns:rdf="http://www.w3.org/1999/02/22-rdf-syntax-ns#"
   xmlns:svg="http://www.w3.org/2000/svg"
   xmlns="http://www.w3.org/2000/svg"
   xmlns:sodipodi="http://sodipodi.sourceforge.net/DTD/sodipodi-0.dtd"
   xmlns:inkscape="http://www.inkscape.org/namespaces/inkscape"
   width="471.01904mm"
   height="105.00008mm"
   viewBox="0 0 1668.9651 372.04751"
   id="svg3488"
   version="1.1"
   inkscape:version="0.91 r13725"
   sodipodi:docname="short-sword.svg">
  <title
     id="title3574">Short Sword</title>
  <defs
     id="defs3490" />
  <sodipodi:namedview
     id="base"
     pagecolor="#ffffff"
     bordercolor="#666666"
     borderopacity="1.0"
     inkscape:pageopacity="0.0"
     inkscape:pageshadow="2"
     inkscape:zoom="0.35"
     inkscape:cx="1007.0471"
     inkscape:cy="-25.406795"
     inkscape:document-units="px"
     inkscape:current-layer="layer1"
     showgrid="false"
     fit-margin-top="0"
     fit-margin-left="0"
     fit-margin-right="0"
     fit-margin-bottom="0"
     inkscape:window-width="1440"
     inkscape:window-height="795"
     inkscape:window-x="0"
     inkscape:window-y="1"
     inkscape:window-maximized="1" />
  <metadata
     id="metadata3493">
    <rdf:RDF>
      <cc:Work
         rdf:about="">
        <dc:format>image/svg+xml</dc:format>
        <dc:type
           rdf:resource="http://purl.org/dc/dcmitype/StillImage" />
        <dc:title>Short Sword</dc:title>
        <cc:license
           rdf:resource="http://creativecommons.org/publicdomain/zero/1.0/" />
        <dc:creator>
          <cc:Agent>
            <dc:title>Bevouliin - Imaginary Perception</dc:title>
          </cc:Agent>
        </dc:creator>
        <dc:source>https://opengameart.org/node/67847</dc:source>
        <dc:identifier></dc:identifier>
        <dc:publisher>
          <cc:Agent>
            <dc:title>http://bevouliin.com/</dc:title>
          </cc:Agent>
        </dc:publisher>
      </cc:Work>
      <cc:License
         rdf:about="http://creativecommons.org/publicdomain/zero/1.0/">
        <cc:permits
           rdf:resource="http://creativecommons.org/ns#Reproduction" />
        <cc:permits
           rdf:resource="http://creativecommons.org/ns#Distribution" />
        <cc:permits
           rdf:resource="http://creativecommons.org/ns#DerivativeWorks" />
      </cc:License>
    </rdf:RDF>
  </metadata>
  <g
     inkscape:label="Layer 1"
     inkscape:groupmode="layer"
     id="layer1"
     transform="translate(632.04712,-134.90791)">
    <g
       id="g3558"
       transform="translate(-500,-525.71429)">
      <path
         style="fill:#ced0d1"
         d="m 472.77598,1030.4088 c -0.3332,-1.2435 -0.61197,-31.84835 -0.61948,-68.01085 l -0.0136,-65.75 -229.17627,0 -229.17628,0 -6.57372,6.67845 c -15.90123,16.15455 -35.40196,24.32155 -58.07373,24.32155 -16.81601,0 -30.76694,-4.08285 -44.33944,-12.97627 -37.52638,-24.5893 -48.15565,-75.01676 -23.68429,-112.36317 24.586895,-37.52271 74.95253,-48.14459 112.36317,-23.69687 3.93831,2.57367 10.11874,7.68471 13.73429,11.35786 l 6.57372,6.67845 229.17628,0 229.17627,0 0.0136,-65.75 c 0.008,-36.1625 0.28628,-66.76739 0.61948,-68.01088 l 0.60582,-2.26087 41.63053,0.26087 41.63057,0.26088 0.26487,29.74606 0.26488,29.74606 374.73515,0.25394 374.7352,0.25394 115.2728,61 c 97.5937,51.64454 115.2311,61.30219 115,62.97034 -0.2076,1.50006 -27.7211,16.89491 -115.2728,64.5 l -115,62.52966 -374.7352,0.25394 -374.73515,0.25394 -0.26488,29.74607 -0.26487,29.7461 -41.63052,0.2608 -41.63053,0.2609 -0.60582,-2.2609 z M 1403.0233,901.50587 c 55.8907,-30.32814 101.9811,-55.46216 102.423,-55.85339 0.4419,-0.39122 -45.3907,-25.13249 -101.8503,-54.9806 l -102.6536,-54.2693 -7.6498,0.47273 -7.6497,0.47274 -97,51.76783 c -115.6672,61.73028 -106.085,56.4054 -104.3585,57.99249 0.7472,0.68691 45.0084,24.1106 98.3585,52.05265 53.3499,27.94205 99.8498,52.30745 103.3331,54.14533 11.8226,6.23817 2.4255,10.39696 117.0473,-51.80048 z M -80.35715,806.39279 c 11.63551,-5.79894 31.86032,-11.71437 40.20784,-11.76015 1.53569,-0.008 3.39096,-0.39492 4.12282,-0.85887 3.85224,-2.44208 -20.30387,-2.93498 -29.27836,-0.59743 -9.01907,2.34917 -19.10377,8.16171 -26.070511,15.02632 -9.250629,9.11501 -10.268979,11.81513 -2.332459,6.18441 3.492868,-2.47808 9.50067,-6.07551 13.35067,-7.99428 z"
         id="path3572"
         inkscape:connector-curvature="0" />
      <path
         style="fill:#e8c9aa"
         d="m 474.89285,1031.5679 c -1.6393,-0.9548 -1.75,-5.2862 -1.75,-68.46964 l 0,-67.45031 -229.77889,0 -229.77889,0 -6.47111,6.5891 c -16.31799,16.61552 -35.142,24.60514 -57.97111,24.60514 -22.73809,0 -41.965978,-8.12842 -57.6124,-24.35514 -15.38495,-15.95554 -22.58184,-33.75162 -22.58184,-55.8391 0,-22.08748 7.19689,-39.88356 22.58184,-55.8391 15.646422,-16.22672 34.87431,-24.35514 57.6124,-24.35514 22.82911,0 41.65312,7.98962 57.97111,24.60514 l 6.47111,6.5891 229.77889,0 229.77889,0 0,-67.46482 c 0,-65.67703 0.0513,-67.49224 1.93426,-68.5 2.64318,-1.41458 76.4883,-1.41458 79.13148,0 1.84516,0.9875 1.93426,2.39246 1.93426,30.5 l 0,29.46482 374.75,0.0124 374.75005,0.0124 115,60.83346 c 82.9236,43.86546 115,61.30226 115,62.51422 0,1.20249 -32.7249,19.45707 -115,64.14921 l -115,62.46844 -374.75005,0.005 -374.75,0.005 0,29.46482 c 0,28.1075 -0.0891,29.5125 -1.93426,30.5 -2.61624,1.4001 -76.90691,1.3581 -79.31574,-0.045 z m 838.66265,-80.34419 c 44.5722,-23.68947 193.7879,-105.36295 193.7818,-106.06682 0,-0.47452 -45.837,-25.16992 -101.8509,-54.87867 l -101.8435,-54.0159 -8.5,-0.0559 c -4.675,-0.0307 -172.6375,0.056 -373.25005,0.19282 l -364.75,0.24869 0,55 0,55 260.4875,0 260.48735,0 103.2627,54.19846 c 56.7944,29.80915 104.8375,54.7644 106.7625,55.45611 7.7366,2.77997 12.3676,1.85444 25.4127,-5.07881 z M -81.85715,808.24008 c 12.4009,-6.47956 27.12176,-10.73181 46.5,-13.43194 l 6,-0.83603 -3,-1.31277 c -1.70214,-0.74483 -8.40775,-1.5113 -15.5,-1.77168 -11.52327,-0.42306 -13.11165,-0.25352 -20.32783,2.16975 -8.92599,2.99743 -17.215329,7.91601 -23.496528,13.94193 -4.842047,4.64526 -11.175642,12.85323 -11.175642,14.48298 0,0.58653 3.2625,-1.38886 7.25,-4.38976 3.9875,-3.0009 10.175,-6.98451 13.75,-8.85248 z"
         id="path3570"
         inkscape:connector-curvature="0" />
      <path
         style="fill:#a4a6a9"
         d="m 474.89285,1031.5679 c -1.6393,-0.9548 -1.75,-5.2862 -1.75,-68.46964 l 0,-67.45031 -229.77889,0 -229.77889,0 -6.47111,6.5891 c -16.31799,16.61552 -35.142,24.60514 -57.97111,24.60514 -22.73809,0 -41.965978,-8.12842 -57.6124,-24.35514 -15.38495,-15.95554 -22.58184,-33.75162 -22.58184,-55.8391 0,-22.08748 7.19689,-39.88356 22.58184,-55.8391 15.646422,-16.22672 34.87431,-24.35514 57.6124,-24.35514 22.82911,0 41.65312,7.98962 57.97111,24.60514 l 6.47111,6.5891 229.77889,0 229.77889,0 0,-67.46482 c 0,-65.67703 0.0513,-67.49224 1.93426,-68.5 2.64318,-1.41458 76.4883,-1.41458 79.13148,0 1.84516,0.9875 1.93426,2.39246 1.93426,30.5 l 0,29.46482 374.75,0.0124 374.75005,0.0124 115,60.83346 c 82.9236,43.86546 115,61.30226 115,62.51422 0,1.20249 -32.7249,19.45707 -115,64.14921 l -115,62.46844 -374.75005,0.005 -374.75,0.005 0,29.46482 c 0,28.1075 -0.0891,29.5125 -1.93426,30.5 -2.61624,1.4001 -76.90691,1.3581 -79.31574,-0.045 z m 838.66265,-80.34419 c 44.5722,-23.68947 193.7879,-105.36295 193.7818,-106.06682 0,-0.47452 -45.837,-25.16992 -101.8509,-54.87867 l -101.8435,-54.0159 -8.5,-0.0559 c -4.675,-0.0307 -172.6375,0.056 -373.25005,0.19282 l -364.75,0.24869 0,55 0,55 260.4875,0 260.48735,0 103.2627,54.19846 c 56.7944,29.80915 104.8375,54.7644 106.7625,55.45611 7.7366,2.77997 12.3676,1.85444 25.4127,-5.07881 z M 63.56399,881.03984 c 0.87159,-0.33446 6.51174,-7.64696 12.53367,-16.25 6.02194,-8.60304 14.48657,-20.59189 18.8103,-26.64189 l 7.86133,-11 27.12062,-0.26595 27.12061,-0.26595 4.56617,-6.53196 c 2.51139,-3.59258 4.56616,-6.9604 4.56616,-7.48405 0,-0.58161 -11.66121,-0.95209 -29.96761,-0.95209 l -29.9676,0 -3.87983,5.25 c -7.71361,10.43769 -43.19999,61.62559 -43.79212,63.16865 -0.64211,1.67331 1.91444,2.16814 5.0283,0.97324 z m 80,0 c 0.87159,-0.33446 6.51174,-7.64696 12.53367,-16.25 6.02194,-8.60304 14.48657,-20.59189 18.8103,-26.64189 l 7.86133,-11 27.12062,-0.26595 27.12061,-0.26595 4.56617,-6.53196 c 2.51139,-3.59258 4.56616,-6.9604 4.56616,-7.48405 0,-0.58161 -11.66121,-0.95209 -29.96761,-0.95209 l -29.9676,0 -3.87983,5.25 c -7.71361,10.43769 -43.19999,61.62559 -43.79212,63.16865 -0.64211,1.67331 1.91444,2.16814 5.0283,0.97324 z m 80,0 c 0.87159,-0.33446 6.51174,-7.64696 12.53367,-16.25 6.02194,-8.60304 14.48657,-20.59189 18.8103,-26.64189 l 7.86133,-11 27.12062,-0.26595 27.12061,-0.26595 4.56617,-6.53196 c 2.51139,-3.59258 4.56616,-6.9604 4.56616,-7.48405 0,-0.58161 -11.66121,-0.95209 -29.96761,-0.95209 l -29.9676,0 -3.87983,5.25 c -7.71361,10.43769 -43.19999,61.62559 -43.79212,63.16865 -0.64211,1.67331 1.91444,2.16814 5.0283,0.97324 z m 80,0 c 0.87159,-0.33446 6.51174,-7.64696 12.53367,-16.25 6.02194,-8.60304 14.48657,-20.59189 18.8103,-26.64189 l 7.86133,-11 27.12062,-0.26595 27.12061,-0.26595 4.56617,-6.53196 c 2.51139,-3.59258 4.56616,-6.9604 4.56616,-7.48405 0,-0.58161 -11.66121,-0.95209 -29.96761,-0.95209 l -29.9676,0 -3.87983,5.25 c -7.71361,10.43769 -43.19999,61.62559 -43.79212,63.16865 -0.64211,1.67331 1.91444,2.16814 5.0283,0.97324 z m 80,0 c 0.87159,-0.33446 6.51174,-7.64696 12.53367,-16.25 6.02194,-8.60304 14.48627,-20.59189 18.80964,-26.64189 l 7.86067,-11 24.93744,-0.5 24.93744,-0.5 0,-7 0,-7 -23.20378,-0.26832 -23.20377,-0.26831 -3.89366,5.26831 c -7.71852,10.44355 -43.21303,61.64187 -43.80595,63.18697 -0.64211,1.67331 1.91444,2.16814 5.0283,0.97324 z M 81.56553,820.10004 c 2.51753,-3.60135 4.57732,-6.97635 4.57732,-7.5 0,-1.19574 -61.66573,-1.30196 -62.40396,-0.10749 -0.28709,0.46453 0.37935,3.27703 1.48098,6.25 1.10163,2.97297 2.19585,5.9679 2.43159,6.6554 0.3272,0.95424 6.2147,1.25 24.88269,1.25 l 24.45407,0 4.57731,-6.54791 z M -81.85715,808.24008 c 12.4009,-6.47956 27.12176,-10.73181 46.5,-13.43194 l 6,-0.83603 -3,-1.31277 c -1.70214,-0.74483 -8.40775,-1.5113 -15.5,-1.77168 -11.52327,-0.42306 -13.11165,-0.25352 -20.32783,2.16975 -8.92599,2.99743 -17.215329,7.91601 -23.496528,13.94193 -4.842047,4.64526 -11.175642,12.85323 -11.175642,14.48298 0,0.58653 3.2625,-1.38886 7.25,-4.38976 3.9875,-3.0009 10.175,-6.98451 13.75,-8.85248 z m 623.51328,-84.84213 c 0.30327,-1.2375 0.42434,-12.375 0.26906,-24.75 l -0.28234,-22.5 -26.75,-0.26633 -26.75,-0.26634 0,24.34967 c 0,13.39232 0.3,24.64967 0.66667,25.01633 0.36666,0.36667 12.28309,0.66667 26.48094,0.66667 l 25.81429,0 0.55138,-2.25 z"
         id="path3568"
         inkscape:connector-curvature="0" />
      <path
         style="fill:#bf966a"
         d="m 474.61456,1030.4095 c -0.26089,-0.6939 -0.58625,-31.41155 -0.72303,-68.26155 l -0.24868,-67 -229.87144,-0.25214 -229.87144,-0.25215 -9.23054,8.82446 c -10.57305,10.1079 -22.23919,16.83944 -35.25292,20.34146 -10.84289,2.91784 -29.64952,2.93333 -40.41719,0.0333 -27.504215,-7.40771 -49.64369,-29.54719 -57.05138,-57.0514 -1.56072,-5.79484 -2.05862,-10.66683 -2.05862,-20.14353 0,-9.4767 0.4979,-14.34869 2.05862,-20.14353 7.40769,-27.50421 29.547165,-49.64369 57.05138,-57.05138 10.76767,-2.90005 29.5743,-2.88456 40.41719,0.0333 13.01373,3.50202 24.67987,10.23356 35.25292,20.34146 l 9.23054,8.82446 229.87144,-0.25215 229.87144,-0.25216 0.5,-68 0.5,-68 40,0 40,0 0.5,30 0.5,30 375.5,0.5 c 269.15705,0.3584 376.06635,0.80992 377.50005,1.59432 1.0999,0.60188 52.5125,27.78258 114.25,60.40155 61.7375,32.61897 112.2462,59.80153 112.2415,60.40568 -0.01,0.97221 -37.9963,21.81091 -188.4009,103.34713 l -41.0407,22.24869 -375.02495,0.25131 -375.025,0.25132 -0.5,30.00005 -0.5,30 -39.77697,0.2615 c -31.28955,0.2057 -39.87819,-0.01 -40.25132,-1 z m 830.81814,-73.89593 c 12.5223,-6.34829 201.4251,-109.26133 202.5757,-110.36187 1.1464,-1.09659 0.9859,-1.54806 -1,-2.81287 -1.301,-0.82865 -47.5905,-25.47959 -102.8655,-54.77988 l -100.5,-53.27324 -8,-0.0665 c -4.4001,-0.0366 -172.5895,0.0449 -373.75445,0.18112 l -365.75433,0.24765 0.25436,110.75 0.25437,110.75 124.94485,0.25391 124.94485,0.25391 13.8746,-9.00391 c 7.631,-4.95215 14.7451,-9.00391 15.809,-9.00391 1.0639,0 9.0338,4.05 17.7108,9 8.9956,5.13174 16.9211,9 18.4398,9 1.4649,0 8.376,-2.7 15.3581,-6 6.9821,-3.3 13.472,-6 14.422,-6 0.9501,0 7.7504,2.58605 15.1117,5.74678 l 13.3843,5.74678 180.99995,0.50993 c 99.55,0.28046 182.9304,0.6194 185.2898,0.75322 2.8008,0.15884 5.7513,-0.49761 8.5,-1.89109 z M 76.17911,864.64795 c 6.38116,-9.075 14.97753,-21.225 19.10304,-27 l 7.50093,-10.5 27.14078,-0.266 27.14077,-0.266 4.53911,-6.36099 c 2.49651,-3.49855 4.53911,-6.86635 4.53911,-7.484 0,-1.28226 -58.73464,-1.62925 -60.54738,-0.3577 -1.62176,1.13759 -47.45262,67.10594 -47.45262,68.30269 0,0.5905 1.42275,0.92013 3.21708,0.74536 2.91738,-0.28417 4.2979,-1.85046 14.81918,-16.81336 z m 80,0 c 6.38116,-9.075 14.97753,-21.225 19.10304,-27 l 7.50093,-10.5 27.14078,-0.266 27.14077,-0.266 4.53911,-6.36099 c 2.49651,-3.49855 4.53911,-6.86635 4.53911,-7.484 0,-1.28226 -58.73464,-1.62925 -60.54738,-0.3577 -1.62176,1.13759 -47.45262,67.10594 -47.45262,68.30269 0,0.5905 1.42275,0.92013 3.21708,0.74536 2.91738,-0.28417 4.2979,-1.85046 14.81918,-16.81336 z m 80,0 c 6.38116,-9.075 14.97753,-21.225 19.10304,-27 l 7.50093,-10.5 27.14078,-0.266 27.14077,-0.266 4.53911,-6.36099 c 2.49651,-3.49855 4.53911,-6.86635 4.53911,-7.484 0,-1.28226 -58.73464,-1.62925 -60.54738,-0.3577 -1.62176,1.13759 -47.45262,67.10594 -47.45262,68.30269 0,0.5905 1.42275,0.92013 3.21708,0.74536 2.91738,-0.28417 4.2979,-1.85046 14.81918,-16.81336 z m 80,0 c 6.38116,-9.075 14.97753,-21.225 19.10304,-27 l 7.50093,-10.5 27.14078,-0.266 27.14077,-0.266 4.53911,-6.36099 c 2.49651,-3.49855 4.53911,-6.86635 4.53911,-7.484 0,-1.28226 -58.73464,-1.62925 -60.54738,-0.3577 -1.62176,1.13759 -47.45262,67.10594 -47.45262,68.30269 0,0.5905 1.42275,0.92013 3.21708,0.74536 2.91738,-0.28417 4.2979,-1.85046 14.81918,-16.81336 z m 80,0 c 6.38116,-9.075 14.97723,-21.225 19.10238,-27 l 7.50027,-10.5 24.93054,-0.5 24.93055,-0.5 0,-7 0,-7 -23,-0.24502 c -12.65,-0.13477 -23.47132,0.0902 -24.04738,0.5 -1.6342,1.16244 -47.45262,67.12285 -47.45262,68.31302 0,0.5905 1.42275,0.92013 3.21708,0.74536 2.91738,-0.28417 4.2979,-1.85046 14.81918,-16.81336 z M -93.35715,817.00384 c 14.79529,-11.28059 33.41646,-17.79329 60.28789,-21.08551 3.45835,-0.42371 6.37736,-1.22038 6.48669,-1.77038 0.51807,-2.606 -19.19551,-6.06805 -28.77458,-5.05332 -17.37116,1.84015 -32.060526,9.87728 -43.019944,23.5379 -8.507516,10.60439 -10.768226,16.99135 -4.063596,11.48049 1.69595,-1.39399 5.78354,-4.59312 9.08354,-7.10918 z m 174.94947,3.26712 c 2.50279,-3.50735 4.55053,-6.88235 4.55053,-7.5 0,-0.80691 -8.86642,-1.12301 -31.5,-1.12301 -19.52602,0 -31.5,0.36605 -31.5,0.96298 0,0.52964 0.82882,3.11714 1.84181,5.75 1.013,2.63286 2.12388,5.57452 2.46862,6.53702 0.57377,1.60194 2.698,1.75 25.10766,1.75 l 24.48086,0 4.55052,-6.37699 z m 459.94354,-96.2048 c 0.33385,-0.86998 0.60699,-12.12721 0.60699,-25.01607 l 0,-23.43428 -27.25,0.26607 -27.25,0.26607 -0.26885,22.78052 c -0.17198,14.57176 0.11096,23.4902 0.78518,24.75 1.00687,1.88136 2.21104,1.96948 26.91186,1.96948 22.65647,0 25.93298,-0.19583 26.46482,-1.58179 z"
         id="path3566"
         inkscape:connector-curvature="0" />
      <path
         style="fill:#916540"
         d="m 474.61456,1030.4095 c -0.26089,-0.6939 -0.58625,-31.41155 -0.72303,-68.26155 l -0.24868,-67 -229.87144,-0.25214 -229.87144,-0.25215 -9.23054,8.82446 c -10.57305,10.1079 -22.23919,16.83944 -35.25292,20.34146 -10.84289,2.91784 -29.64952,2.93333 -40.41719,0.0333 -27.504215,-7.40771 -49.64369,-29.54719 -57.05138,-57.0514 -1.56072,-5.79484 -2.05862,-10.66683 -2.05862,-20.14353 0,-9.4767 0.4979,-14.34869 2.05862,-20.14353 7.40769,-27.50421 29.547165,-49.64369 57.05138,-57.05138 10.76767,-2.90005 29.5743,-2.88456 40.41719,0.0333 13.01373,3.50202 24.67987,10.23356 35.25292,20.34146 l 9.23054,8.82446 229.87144,-0.25215 229.87144,-0.25216 0.5,-68 0.5,-68 40,0 40,0 0.5,30 0.5,30 375.5,0.5 c 269.15705,0.3584 376.06635,0.80992 377.50005,1.59432 1.0999,0.60188 52.5125,27.78258 114.25,60.40155 61.7375,32.61897 112.2462,59.80153 112.2415,60.40568 -0.01,0.97221 -37.9963,21.81091 -188.4009,103.34713 l -41.0407,22.24869 -375.02495,0.25131 -375.025,0.25132 -0.5,30.00005 -0.5,30 -39.77697,0.2615 c -31.28955,0.2057 -39.87819,-0.01 -40.25132,-1 z m 67.28599,-131.19454 0.25769,-61.93299 -5.50769,-5.0851 c -3.02924,-2.79681 -5.5077,-5.80974 -5.5077,-6.6954 0,-0.88567 2.475,-3.51975 5.5,-5.85352 7.89943,-6.09437 7.69891,-8.34607 -1.5,-16.84353 -3.85,-3.55642 -7,-7.23014 -7,-8.16383 0,-0.93368 2.8125,-3.88398 6.25,-6.55621 3.4375,-2.67224 6.52261,-5.24769 6.85581,-5.72323 0.86472,-1.23415 2.18407,-103.85493 1.36232,-105.9632 -0.62641,-1.60711 -2.90503,-1.75 -27.90668,-1.75 l -27.22457,0 0.40917,137.25 0.40917,137.25 6.3344,6.27099 6.3344,6.27098 20.33799,-0.27098 20.33799,-0.27099 0.2577,-61.93299 z m 763.53215,57.29861 c 12.5223,-6.34829 201.4251,-109.26133 202.5757,-110.36187 1.1464,-1.09659 0.9859,-1.54806 -1,-2.81287 -1.301,-0.82865 -47.5905,-25.47959 -102.8655,-54.77988 l -100.5,-53.27324 -8,-0.0665 c -4.4001,-0.0366 -172.5895,0.0449 -373.75445,0.18112 l -365.75433,0.24765 0.25436,110.75 0.25437,110.75 124.94485,0.25391 124.94485,0.25391 13.8746,-9.00391 c 7.631,-4.95215 14.7451,-9.00391 15.809,-9.00391 1.0639,0 9.0338,4.05 17.7108,9 8.9956,5.13174 16.9211,9 18.4398,9 1.4649,0 8.376,-2.7 15.3581,-6 6.9821,-3.3 13.472,-6 14.422,-6 0.9501,0 7.7504,2.58605 15.1117,5.74678 l 13.3843,5.74678 180.99995,0.50993 c 99.55,0.28046 182.9304,0.6194 185.2898,0.75322 2.8008,0.15884 5.7513,-0.49761 8.5,-1.89109 z M 64.36728,881.75272 c 1.43066,-0.54393 7.17569,-7.80049 14.64064,-18.49258 6.75731,-9.67855 12.86046,-17.9382 13.56257,-18.35478 0.70211,-0.41657 3.5106,-3.90741 6.24109,-7.75741 l 4.96454,-7 25.5322,-0.5 c 20.62369,-0.40388 25.87727,-0.78678 27.32706,-1.9917 2.85058,-2.36911 11.52287,-15.17437 10.92829,-16.13642 -0.64971,-1.05125 -60.43563,-1.15391 -62.06092,-0.10657 -0.62705,0.40408 -11.97193,16.24402 -25.21084,35.19987 -16.62241,23.80044 -23.69607,34.7033 -22.8599,35.23469 1.61689,1.02756 4.07097,0.99391 6.93527,-0.0951 z m 80,0 c 1.43066,-0.54393 7.17569,-7.80049 14.64064,-18.49258 6.75731,-9.67855 12.86046,-17.9382 13.56257,-18.35478 0.70211,-0.41657 3.5106,-3.90741 6.24109,-7.75741 l 4.96454,-7 25.5322,-0.5 c 20.62369,-0.40388 25.87727,-0.78678 27.32706,-1.9917 2.85058,-2.36911 11.52287,-15.17437 10.92829,-16.13642 -0.64971,-1.05125 -60.43563,-1.15391 -62.06092,-0.10657 -0.62705,0.40408 -11.97193,16.24402 -25.21084,35.19987 -16.62241,23.80044 -23.69607,34.7033 -22.8599,35.23469 1.61689,1.02756 4.07097,0.99391 6.93527,-0.0951 z m 80,0 c 1.43066,-0.54393 7.17569,-7.80049 14.64064,-18.49258 6.75731,-9.67855 12.86046,-17.9382 13.56257,-18.35478 0.70211,-0.41657 3.5106,-3.90741 6.24109,-7.75741 l 4.96454,-7 25.5322,-0.5 c 20.62369,-0.40388 25.87727,-0.78678 27.32706,-1.9917 2.85058,-2.36911 11.52287,-15.17437 10.92829,-16.13642 -0.64971,-1.05125 -60.43563,-1.15391 -62.06092,-0.10657 -0.62705,0.40408 -11.97193,16.24402 -25.21084,35.19987 -16.62241,23.80044 -23.69607,34.7033 -22.8599,35.23469 1.61689,1.02756 4.07097,0.99391 6.93527,-0.0951 z m 80,0 c 1.43066,-0.54393 7.17569,-7.80049 14.64064,-18.49258 6.75731,-9.67855 12.86046,-17.9382 13.56257,-18.35478 0.70211,-0.41657 3.5106,-3.90741 6.24109,-7.75741 l 4.96454,-7 25.5322,-0.5 c 20.62369,-0.40388 25.87727,-0.78678 27.32706,-1.9917 2.85058,-2.36911 11.52287,-15.17437 10.92829,-16.13642 -0.64971,-1.05125 -60.43563,-1.15391 -62.06092,-0.10657 -0.62705,0.40408 -11.97193,16.24402 -25.21084,35.19987 -16.62241,23.80044 -23.69607,34.7033 -22.8599,35.23469 1.61689,1.02756 4.07097,0.99391 6.93527,-0.0951 z m 80,0 c 1.43066,-0.54393 7.17569,-7.80049 14.64064,-18.49258 6.75731,-9.67855 12.86046,-17.9382 13.56257,-18.35478 0.70211,-0.41657 3.51115,-3.90741 6.24233,-7.75741 l 4.96576,-7 24.02956,-0.26743 24.02957,-0.26743 1.15257,-2.52963 c 1.51445,-3.32386 1.48213,-13.70595 -0.0474,-15.23551 -1.34423,-1.34423 -45.4022,-1.74792 -47.4401,-0.43469 -0.62705,0.40408 -11.97193,16.24402 -25.21084,35.19987 -16.62241,23.80044 -23.69607,34.7033 -22.8599,35.23469 1.61689,1.02756 4.07097,0.99391 6.93527,-0.0951 z M 75.14285,828.35403 c 2.89466,-1.46404 13.2607,-15.47525 12.4362,-16.80932 -0.77727,-1.25764 -64.14972,-1.16932 -64.92832,0.0905 -0.87774,1.42021 4.27019,15.27738 6.22735,16.76275 2.34053,1.77632 42.74168,1.73797 46.26477,-0.0439 z m -168.5,-11.35019 c 14.79529,-11.28059 33.41646,-17.79329 60.28789,-21.08551 3.45835,-0.42371 6.37736,-1.22038 6.48669,-1.77038 0.51807,-2.606 -19.19551,-6.06805 -28.77458,-5.05332 -17.37116,1.84015 -32.060526,9.87728 -43.019944,23.5379 -8.507516,10.60439 -10.768226,16.99135 -4.063596,11.48049 1.69595,-1.39399 5.78354,-4.59312 9.08354,-7.10918 z"
         id="path3564"
         inkscape:connector-curvature="0" />
      <path
         style="fill:#59595a"
         d="m 474.61456,1030.4095 c -0.26089,-0.6939 -0.58625,-31.41155 -0.72303,-68.26155 l -0.24868,-67 -229.87144,-0.25214 -229.87144,-0.25215 -9.23054,8.82446 c -10.57305,10.1079 -22.23919,16.83944 -35.25292,20.34146 -10.84289,2.91784 -29.64952,2.93333 -40.41719,0.0333 -27.504215,-7.40771 -49.64369,-29.54719 -57.05138,-57.0514 -1.56072,-5.79484 -2.05862,-10.66683 -2.05862,-20.14353 0,-9.4767 0.4979,-14.34869 2.05862,-20.14353 7.40769,-27.50421 29.547165,-49.64369 57.05138,-57.05138 10.76767,-2.90005 29.5743,-2.88456 40.41719,0.0333 13.01373,3.50202 24.67987,10.23356 35.25292,20.34146 l 9.23054,8.82446 229.87144,-0.25215 229.87144,-0.25216 0.5,-68 0.5,-68 40,0 40,0 0.5,30 0.5,30 375.5,0.5 c 269.15705,0.3584 376.06635,0.80992 377.50005,1.59432 1.0999,0.60188 52.5125,27.78258 114.25,60.40155 61.7375,32.61897 112.2462,59.80153 112.2415,60.40568 -0.01,0.97221 -37.9963,21.81091 -188.4009,103.34713 l -41.0407,22.24869 -375.02495,0.25131 -375.025,0.25132 -0.5,30.00005 -0.5,30 -39.77697,0.2615 c -31.28955,0.2057 -39.87819,-0.01 -40.25132,-1 z m 67.86552,-54.92554 c 0.36452,-23.19019 0.66277,-63.72359 0.66277,-90.07423 l 0,-47.91025 -5.75,-6.0316 -5.75,-6.0316 5.7636,-5.14416 c 7.97139,-7.11468 7.84172,-8.68611 -1.51282,-18.33348 l -7.24921,-7.47615 3.09563,-2.66727 c 1.70261,-1.467 4.96873,-4.29392 7.25805,-6.28205 l 4.16241,-3.61479 -0.25883,-53.38521 -0.25883,-53.38522 -28,0 -28,0 0.30754,136 c 0.16915,74.8 0.28165,136.52601 0.25,137.16891 -0.0317,0.6429 2.97996,4.16475 6.69246,7.82632 l 6.75,6.65741 -3.08023,2.67368 c -1.69412,1.47052 -4.73162,4.09778 -6.75,5.83835 l -3.66977,3.16466 0,20.91867 c 0,11.50525 0.3,21.21865 0.66667,21.58535 0.36666,0.3667 12.66842,0.6667 27.33722,0.6667 l 26.67057,0 0.66277,-42.16404 z m 762.95262,-18.97039 c 12.5223,-6.34829 201.4251,-109.26133 202.5757,-110.36187 1.1464,-1.09659 0.9859,-1.54806 -1,-2.81287 -1.301,-0.82865 -47.5905,-25.47959 -102.8655,-54.77988 l -100.5,-53.27324 -8,-0.0665 c -4.4001,-0.0366 -172.5895,0.0449 -373.75445,0.18112 l -365.75433,0.24765 0.25436,110.75 0.25437,110.75 124.94485,0.25391 124.94485,0.25391 13.8746,-9.00391 c 7.631,-4.95215 14.7451,-9.00391 15.809,-9.00391 1.0639,0 9.0338,4.05 17.7108,9 8.9956,5.13174 16.9211,9 18.4398,9 1.4649,0 8.376,-2.7 15.3581,-6 6.9821,-3.3 13.472,-6 14.422,-6 0.9501,0 7.7504,2.58605 15.1117,5.74678 l 13.3843,5.74678 180.99995,0.50993 c 99.55,0.28046 182.9304,0.6194 185.2898,0.75322 2.8008,0.15884 5.7513,-0.49761 8.5,-1.89109 z M 95.24452,881.64795 l 23.79991,0 10.23793,-14.75 c 5.63086,-8.1125 12.32986,-17.45 14.88666,-20.75 2.5568,-3.3 6.5234,-8.7 8.81467,-12 2.29126,-3.3 6.62553,-9.375 9.63171,-13.5 3.00618,-4.125 5.47966,-8.06882 5.49662,-8.76405 0.0243,-0.99822 -6.63947,-1.20852 -31.68736,-1 l -31.71819,0.26405 -24.23489,34.5 c -13.32918,18.975 -24.256,35.12853 -24.28181,35.89674 -0.038,1.13231 1.40151,1.27429 7.60396,0.75 4.20798,-0.35571 18.36084,-0.64674 31.45079,-0.64674 z m 80,0 23.79991,0 10.23793,-14.75 c 5.63086,-8.1125 12.32986,-17.45 14.88666,-20.75 2.5568,-3.3 6.5234,-8.7 8.81467,-12 2.29126,-3.3 6.62553,-9.375 9.63171,-13.5 3.00618,-4.125 5.47966,-8.06882 5.49662,-8.76405 0.0243,-0.99822 -6.63947,-1.20852 -31.68736,-1 l -31.71819,0.26405 -24.23489,34.5 c -13.32918,18.975 -24.256,35.12853 -24.28181,35.89674 -0.038,1.13231 1.40151,1.27429 7.60396,0.75 4.20798,-0.35571 18.36084,-0.64674 31.45079,-0.64674 z m 80,0 23.79991,0 10.23793,-14.75 c 5.63086,-8.1125 12.32986,-17.45 14.88666,-20.75 2.5568,-3.3 6.5234,-8.7 8.81467,-12 2.29126,-3.3 6.62553,-9.375 9.63171,-13.5 3.00618,-4.125 5.47966,-8.06882 5.49662,-8.76405 0.0244,-0.99822 -6.63947,-1.20852 -31.68736,-1 l -31.71819,0.26405 -24.23489,34.5 c -13.32918,18.975 -24.256,35.12853 -24.28181,35.89674 -0.038,1.13231 1.40151,1.27429 7.60396,0.75 4.20798,-0.35571 18.36084,-0.64674 31.45079,-0.64674 z m 80,0 23.79991,0 10.23793,-14.75 c 5.63086,-8.1125 12.32986,-17.45 14.88666,-20.75 2.5568,-3.3 6.5234,-8.7 8.81467,-12 2.29126,-3.3 6.62553,-9.375 9.63171,-13.5 3.00618,-4.125 5.47966,-8.06882 5.49662,-8.76405 0.0244,-0.99822 -6.63947,-1.20852 -31.68736,-1 l -31.71819,0.26405 -24.23489,34.5 c -13.32918,18.975 -24.256,35.12853 -24.28181,35.89674 -0.038,1.13231 1.40151,1.27429 7.60396,0.75 4.20798,-0.35571 18.36084,-0.64674 31.45079,-0.64674 z m 137.54126,-0.33896 c 0.0786,-0.0886 0.30362,-15.91104 0.5,-35.16104 l 0.35707,-35 -24.46774,0 -24.46775,0 -24.23533,34.5 c -13.32943,18.975 -24.25658,34.95 -24.28256,35.5 -0.0311,0.65796 16.45623,0.88406 48.20308,0.66104 26.53766,-0.18643 48.31462,-0.41143 48.39323,-0.5 z M 49.28236,866.89795 c 5.63086,-8.1125 12.32986,-17.45 14.88666,-20.75 2.5568,-3.3 6.5234,-8.7 8.81467,-12 2.29126,-3.3 6.62553,-9.375 9.63171,-13.5 3.00618,-4.125 5.47966,-8.06857 5.49662,-8.76348 0.0244,-0.99841 -6.94483,-1.2082 -33.21917,-1 -28.8751,0.22881 -33.22416,0.46084 -33.05363,1.76348 0.108,0.825 1.55172,5.19205 3.20827,9.70456 5.82449,15.86617 6.03284,33.69221 0.58352,49.92546 -1.36849,4.07665 -2.48816,7.85261 -2.48816,8.39103 0,0.55651 3.43093,0.97895 7.95079,0.97895 l 7.95079,0 10.23793,-14.75 z M -93.35715,817.00384 c 14.79529,-11.28059 33.41646,-17.79329 60.28789,-21.08551 3.45835,-0.42371 6.37736,-1.22038 6.48669,-1.77038 0.51807,-2.606 -19.19551,-6.06805 -28.77458,-5.05332 -17.37116,1.84015 -32.060526,9.87728 -43.019944,23.5379 -8.507516,10.60439 -10.768226,16.99135 -4.063596,11.48049 1.69595,-1.39399 5.78354,-4.59312 9.08354,-7.10918 z"
         id="path3562"
         inkscape:connector-curvature="0" />
      <path
         style="fill:#080707"
         d="m 475.82109,1029.9929 c -0.37303,-0.3731 -0.67824,-30.93014 -0.67824,-67.90463 0,-60.37914 -0.16111,-67.28817 -1.58179,-67.83333 -0.86998,-0.33385 -104.79472,-0.60699 -230.94387,-0.60699 l -229.36208,0 -7.30613,7.28557 c -16.59814,16.55144 -34.07867,23.90867 -56.80613,23.90867 -24.70024,0 -46.748974,-10.51702 -61.45683,-29.3143 -11.50773,-14.70737 -16.73741,-29.98015 -16.73741,-48.87994 0,-19.16472 5.34019,-34.50227 17.21643,-49.44727 14.722806,-18.5271 36.40111,-28.74697 60.97781,-28.74697 22.72746,0 40.20799,7.35723 56.80613,23.90867 l 7.30613,7.28557 229.69387,-0.0153 c 126.33163,-0.008 230.25318,-0.37051 230.93677,-0.80463 0.96623,-0.61362 1.30013,-15.80258 1.5,-68.23469 l 0.2571,-67.44538 39,0 39,0 0.53741,30 c 0.29558,16.5 0.63308,30.1125 0.75,30.25 0.11693,0.1375 169.0195,0.25 375.33909,0.25 l 375.12645,0 113.6235,60.09006 c 62.4929,33.04953 113.9808,60.42929 114.4174,60.84391 0.4367,0.41461 -50.6991,28.72409 -113.6349,62.90994 l -114.4288,62.15609 -375.11515,0 c -206.31323,0 -375.21066,0.1125 -375.32759,0.25 -0.11692,0.1375 -0.45442,13.75 -0.75,30.25005 l -0.53741,30 -38.57176,0.2615 c -21.21446,0.1439 -38.87696,-0.044 -39.25,-0.4166 z m 66.78442,-12.2845 c 0.31939,-0.5168 0.86957,-41.19804 1.22262,-90.40276 l 0.64192,-89.46313 -5.86216,-6.14586 -5.86216,-6.14587 5.69856,-5.26131 c 7.86032,-7.25722 7.73415,-8.74964 -1.55144,-18.35201 l -7.25,-7.49733 4.4959,-3.64609 c 2.47275,-2.00535 5.73917,-4.8529 7.25872,-6.32789 l 2.76282,-2.6818 -0.25872,-53.8182 -0.25872,-53.8182 -28.6372,-0.26515 c -22.37924,-0.20721 -28.73626,0.0113 -29.09055,1 -0.24935,0.69583 -0.24089,62.89152 0.0188,138.21263 l 0.47214,136.94749 6.61841,6.37815 6.61841,6.37815 -4,3.16577 c -2.2,1.74117 -5.2375,4.37252 -6.75,5.84744 l -2.75,2.68167 0,21.41026 c 0,11.77564 0.3,21.71024 0.66667,22.07694 1.05617,1.0562 55.13806,0.7916 55.79599,-0.2729 z M 1404.8514,903.98355 c 56.3617,-30.61542 103.4191,-56.42806 104.5716,-57.36142 2.0868,-1.68966 2.0788,-1.70791 -1.8422,-4.20749 -2.1659,-1.38075 -49.2203,-26.41871 -104.5655,-55.6399 l -100.6277,-53.12944 -373.26335,0.25132 c -337.01735,0.22693 -373.35905,0.40292 -374.24813,1.8124 -0.64262,1.01876 -0.72488,40.01428 -0.2368,112.25 l 0.74789,110.68893 126.41116,0 126.41115,0 10.21663,-6.80819 c 5.6192,-3.74451 11.9208,-7.84146 14.0036,-9.10435 l 3.7868,-2.29615 15.9593,9.10435 c 20.0342,11.42895 19.8093,11.41014 37.2749,3.11792 l 12.609,-5.98643 13.7915,5.73643 13.7916,5.73642 180.00005,0.50541 c 99,0.27798 182.8648,0.61548 186.3663,0.75 l 6.3663,0.24459 102.4759,-55.6644 z m -1439.20855,6.993 c 18.12033,-4.41488 34.57828,-17.7636 42.93557,-34.82418 5.02478,-10.25759 6.77593,-18.21782 6.93058,-31.50442 0.11187,-9.6116 -0.24102,-12.58441 -2.14905,-18.10386 -3.71748,-10.75377 -2.30633,-10.16814 -20.04653,-8.31928 -8.43118,0.87869 -15.58917,1.33787 -15.90665,1.02039 -0.31747,-0.31747 3.54327,-4.83653 8.57943,-10.04236 5.03616,-5.20582 9.15665,-9.90026 9.15665,-10.43209 0,-3.22128 -15.33389,-12.72427 -27,-16.73292 -7.86848,-2.70372 -30.12944,-2.70414 -38,-7e-4 -23.92864,8.21918 -40.01916,25.12117 -46.14037,48.46729 -3.36273,12.82537 -1.22882,31.21165 5.19039,44.72151 13.564893,28.54867 45.23111,43.35688 76.44998,35.75062 z m 128.71761,-28.32149 24.7176,-0.007 3.87636,-5.25 c 2.13201,-2.8875 10.95385,-15.15 19.60411,-27.25 8.65026,-12.1 18.1862,-25.35216 21.19098,-29.44924 3.00479,-4.09707 5.329,-8.14707 5.16491,-9 -0.26081,-1.35567 -4.25941,-1.58128 -31.78495,-1.7934 -17.31764,-0.13345 -31.98262,0.0915 -32.58885,0.5 -0.60622,0.40845 -12.01274,16.3909 -25.34781,35.51655 -16.38226,23.49604 -24.04416,35.29883 -23.6245,36.39243 0.52236,1.36125 1.69036,1.51753 7.34781,0.9832 3.6997,-0.34943 17.84965,-0.63852 31.44434,-0.64243 z m 80,0 24.7176,-0.007 3.87636,-5.25 c 2.13201,-2.8875 10.95385,-15.15 19.60411,-27.25 8.65026,-12.1 18.1862,-25.35216 21.19098,-29.44924 3.00479,-4.09707 5.329,-8.14707 5.16491,-9 -0.26081,-1.35567 -4.25941,-1.58128 -31.78495,-1.7934 -17.31764,-0.13345 -31.98262,0.0915 -32.58885,0.5 -0.60622,0.40845 -12.01274,16.3909 -25.34781,35.51655 -16.38226,23.49604 -24.04416,35.29883 -23.6245,36.39243 0.52236,1.36125 1.69036,1.51753 7.34781,0.9832 3.6997,-0.34943 17.84965,-0.63852 31.44434,-0.64243 z m 80,0 24.7176,-0.007 3.87636,-5.25 c 2.13201,-2.8875 10.95385,-15.15 19.60411,-27.25 8.65026,-12.1 18.1862,-25.35216 21.19098,-29.44924 3.00479,-4.09707 5.329,-8.14707 5.16491,-9 -0.26081,-1.35567 -4.25941,-1.58128 -31.78495,-1.7934 -17.31764,-0.13345 -31.98262,0.0915 -32.58885,0.5 -0.60622,0.40845 -12.01274,16.3909 -25.34781,35.51655 -16.38226,23.49604 -24.04416,35.29883 -23.6245,36.39243 0.52236,1.36125 1.69036,1.51753 7.34781,0.9832 3.6997,-0.34943 17.84965,-0.63852 31.44434,-0.64243 z m 80,0 24.7176,-0.007 3.87636,-5.25 c 2.13201,-2.8875 10.95385,-15.15 19.60411,-27.25 8.65026,-12.1 18.1862,-25.35216 21.19098,-29.44924 3.00479,-4.09707 5.329,-8.14707 5.16491,-9 -0.26081,-1.35567 -4.25941,-1.58128 -31.78495,-1.7934 -17.31764,-0.13345 -31.98262,0.0915 -32.58885,0.5 -0.60622,0.40845 -12.01274,16.3909 -25.34781,35.51655 -16.38226,23.49604 -24.04416,35.29883 -23.6245,36.39243 0.52236,1.36125 1.69036,1.51753 7.34781,0.9832 3.6997,-0.34943 17.84965,-0.63852 31.44434,-0.64243 z m 138.38693,-0.46048 c 1.48788,-0.50141 2.60972,-69.49903 1.15921,-71.29663 -0.75614,-0.93708 -6.92338,-1.24617 -24.63619,-1.23469 -12.99516,0.008 -24.12356,0.34592 -24.72979,0.75 -2.30457,1.53611 -49.57082,70.34139 -49.12332,71.5086 0.36428,0.95014 11.24568,1.16069 48.34781,0.93551 26.33276,-0.15981 48.37478,-0.45807 48.98228,-0.66279 z M 42.95442,877.39795 c 2.13201,-2.8875 10.95385,-15.15 19.60411,-27.25 8.65026,-12.1 18.1862,-25.35216 21.19098,-29.44924 3.00479,-4.09707 5.32886,-8.14707 5.1646,-9 -0.26283,-1.36474 -4.37549,-1.55076 -34.28496,-1.55076 -39.32708,0 -35.66988,-1.48443 -30.5385,12.39536 6.11601,16.54309 5.95104,36.64891 -0.43034,52.44762 -1.33294,3.3 -2.1931,6.37284 -1.91147,6.82851 0.28162,0.45568 4.29591,0.82851 8.92063,0.82851 l 8.40859,0 3.87636,-5.25 z"
         id="path3560"
         inkscape:connector-curvature="0" />
    </g>
  </g>
</svg>
