<?xml version="1.0" encoding="UTF-8" standalone="no"?>
<svg
   height="24"
   version="1.1"
   width="24"
   id="svg128"
   sodipodi:docname="activity-pixel.svg"
   inkscape:version="1.3.2 (091e20e, 2023-11-25, custom)"
   xmlns:inkscape="http://www.inkscape.org/namespaces/inkscape"
   xmlns:sodipodi="http://sodipodi.sourceforge.net/DTD/sodipodi-0.dtd"
   xmlns="http://www.w3.org/2000/svg"
   xmlns:svg="http://www.w3.org/2000/svg"
   xmlns:rdf="http://www.w3.org/1999/02/22-rdf-syntax-ns#"
   xmlns:cc="http://creativecommons.org/ns#"
   xmlns:dc="http://purl.org/dc/elements/1.1/">
  <title
     id="title131">Pixel Activity Icon</title>
  <sodipodi:namedview
     id="namedview128"
     pagecolor="#ffffff"
     bordercolor="#666666"
     borderopacity="1.0"
     inkscape:showpageshadow="2"
     inkscape:pageopacity="0.0"
     inkscape:pagecheckerboard="true"
     inkscape:deskcolor="#d1d1d1"
     inkscape:zoom="9.2141453"
     inkscape:cx="7.2171642"
     inkscape:cy="7.325693"
     inkscape:window-width="1920"
     inkscape:window-height="1025"
     inkscape:window-x="-8"
     inkscape:window-y="-8"
     inkscape:window-maximized="1"
     inkscape:current-layer="svg128"
     showgrid="true">
    <inkscape:grid
       id="grid131"
       units="px"
       originx="0"
       originy="0"
       spacingx="1"
       spacingy="1"
       empcolor="#3f3fff"
       empopacity="0.25098039"
       color="#3f3fff"
       opacity="0.1254902"
       empspacing="24"
       dotted="false"
       gridanglex="30"
       gridanglez="30"
       visible="true" />
  </sodipodi:namedview>
  <defs
     id="defs1" />
  <g
     id="g131"
     inkscape:label="cog"
     transform="matrix(0.025,0,0,0.025,5,6)">
    <g
       id="g130"
       inkscape:label="fill">
      <rect
         fill="#ffffff"
         height="40"
         width="40"
         x="160"
         y="40"
         id="rect8" />
      <rect
         fill="#ffffff"
         height="40"
         width="40"
         x="320"
         y="40"
         id="rect12" />
      <rect
         fill="#ffffff"
         height="40"
         width="40"
         x="160"
         y="80"
         id="rect16" />
      <rect
         fill="#ffffff"
         height="40"
         width="40"
         x="200"
         y="80"
         id="rect17" />
      <rect
         fill="#ffffff"
         height="40"
         width="40"
         x="280"
         y="80"
         id="rect19" />
      <rect
         fill="#ffffff"
         height="40"
         width="40"
         x="320"
         y="80"
         id="rect20" />
      <rect
         fill="#ffffff"
         height="40"
         width="40"
         x="120"
         y="120"
         id="rect26" />
      <rect
         fill="#ffffff"
         height="40"
         width="40"
         x="160"
         y="120"
         id="rect27" />
      <rect
         fill="#ffffff"
         height="40"
         width="40"
         x="200"
         y="120"
         id="rect28" />
      <rect
         fill="#ffffff"
         height="40"
         width="40"
         x="240"
         y="120"
         id="rect29" />
      <rect
         fill="#ffffff"
         height="40"
         width="40"
         x="280"
         y="120"
         id="rect30" />
      <rect
         fill="#ffffff"
         height="40"
         width="40"
         x="320"
         y="120"
         id="rect31" />
      <rect
         fill="#ffffff"
         height="40"
         width="40"
         x="360"
         y="120"
         id="rect32" />
      <rect
         fill="#ffffff"
         height="40"
         width="40"
         x="40"
         y="160"
         id="rect37" />
      <rect
         fill="#ffffff"
         height="40"
         width="40"
         x="80"
         y="160"
         id="rect38" />
      <rect
         fill="#ffffff"
         height="40"
         width="40"
         x="120"
         y="160"
         id="rect39" />
      <rect
         fill="#ffffff"
         height="40"
         width="40"
         x="360"
         y="160"
         id="rect45" />
      <rect
         fill="#ffffff"
         height="40"
         width="40"
         x="400"
         y="160"
         id="rect46" />
      <rect
         fill="#ffffff"
         height="40"
         width="40"
         x="440"
         y="160"
         id="rect47" />
      <rect
         fill="#ffffff"
         height="40"
         width="40"
         x="80"
         y="200"
         id="rect51" />
      <rect
         fill="#ffffff"
         height="40"
         width="40"
         x="120"
         y="200"
         id="rect52" />
      <rect
         fill="#ffffff"
         height="40"
         width="40"
         x="360"
         y="200"
         id="rect57" />
      <rect
         fill="#ffffff"
         height="40"
         width="40"
         x="400"
         y="200"
         id="rect58" />
      <rect
         fill="#ffffff"
         height="40"
         width="40"
         x="120"
         y="240"
         id="rect63" />
      <rect
         fill="#ffffff"
         height="40"
         width="40"
         x="360"
         y="240"
         id="rect66" />
      <rect
         fill="#ffffff"
         height="40"
         width="40"
         x="80"
         y="280"
         id="rect71" />
      <rect
         fill="#ffffff"
         height="40"
         width="40"
         x="120"
         y="280"
         id="rect72" />
      <rect
         fill="#ffffff"
         height="40"
         width="40"
         x="360"
         y="280"
         id="rect77" />
      <rect
         fill="#ffffff"
         height="40"
         width="40"
         x="400"
         y="280"
         id="rect78" />
      <rect
         fill="#ffffff"
         height="40"
         width="40"
         x="40"
         y="320"
         id="rect82" />
      <rect
         fill="#ffffff"
         height="40"
         width="40"
         x="80"
         y="320"
         id="rect83" />
      <rect
         fill="#ffffff"
         height="40"
         width="40"
         x="120"
         y="320"
         id="rect84" />
      <rect
         fill="#ffffff"
         height="40"
         width="40"
         x="360"
         y="320"
         id="rect90" />
      <rect
         fill="#ffffff"
         height="40"
         width="40"
         x="400"
         y="320"
         id="rect91" />
      <rect
         fill="#ffffff"
         height="40"
         width="40"
         x="440"
         y="320"
         id="rect92" />
      <rect
         fill="#ffffff"
         height="40"
         width="40"
         x="120"
         y="360"
         id="rect97" />
      <rect
         fill="#ffffff"
         height="40"
         width="40"
         x="160"
         y="360"
         id="rect98" />
      <rect
         fill="#ffffff"
         height="40"
         width="40"
         x="200"
         y="360"
         id="rect99" />
      <rect
         fill="#ffffff"
         height="40"
         width="40"
         x="240"
         y="360"
         id="rect100" />
      <rect
         fill="#ffffff"
         height="40"
         width="40"
         x="280"
         y="360"
         id="rect101" />
      <rect
         fill="#ffffff"
         height="40"
         width="40"
         x="320"
         y="360"
         id="rect102" />
      <rect
         fill="#ffffff"
         height="40"
         width="40"
         x="360"
         y="360"
         id="rect103" />
      <rect
         fill="#ffffff"
         height="40"
         width="40"
         x="160"
         y="400"
         id="rect109" />
      <rect
         fill="#ffffff"
         height="40"
         width="40"
         x="200"
         y="400"
         id="rect110" />
      <rect
         fill="#ffffff"
         height="40"
         width="40"
         x="280"
         y="400"
         id="rect112" />
      <rect
         fill="#ffffff"
         height="40"
         width="40"
         x="320"
         y="400"
         id="rect113" />
      <rect
         fill="#ffffff"
         height="40"
         width="40"
         x="160"
         y="440"
         id="rect117" />
      <rect
         fill="#ffffff"
         height="40"
         width="40"
         x="320"
         y="440"
         id="rect121" />
    </g>
    <g
       id="g129"
       inkscape:label="shading">
      <rect
         fill="#bbbeba"
         height="40"
         width="40"
         x="240"
         y="80"
         id="rect18" />
      <rect
         fill="#bbbeba"
         height="40"
         width="40"
         x="160"
         y="160"
         id="rect40" />
      <rect
         fill="#bbbeba"
         height="40"
         width="40"
         x="320"
         y="160"
         id="rect44" />
      <rect
         fill="#bbbeba"
         height="40"
         width="40"
         x="80"
         y="240"
         id="rect62" />
      <rect
         fill="#bbbeba"
         height="40"
         width="40"
         x="400"
         y="240"
         id="rect67" />
      <rect
         fill="#bbbeba"
         height="40"
         width="40"
         x="160"
         y="320"
         id="rect85" />
      <rect
         fill="#bbbeba"
         height="40"
         width="40"
         x="320"
         y="320"
         id="rect89" />
      <rect
         fill="#bbbeba"
         height="40"
         width="40"
         x="240"
         y="400"
         id="rect111" />
    </g>
    <g
       id="g128"
       inkscape:label="outline">
      <rect
         fill="#000000"
         height="40"
         width="40"
         x="120"
         y="0"
         id="rect1" />
      <rect
         fill="#000000"
         height="40"
         width="40"
         x="160"
         y="0"
         id="rect2" />
      <rect
         fill="#000000"
         height="40"
         width="40"
         x="200"
         y="0"
         id="rect3" />
      <rect
         fill="#000000"
         height="40"
         width="40"
         x="280"
         y="0"
         id="rect4" />
      <rect
         fill="#000000"
         height="40"
         width="40"
         x="320"
         y="0"
         id="rect5" />
      <rect
         fill="#000000"
         height="40"
         width="40"
         x="360"
         y="0"
         id="rect6" />
      <rect
         fill="#000000"
         height="40"
         width="40"
         x="120"
         y="40"
         id="rect7" />
      <rect
         fill="#000000"
         height="40"
         width="40"
         x="200"
         y="40"
         id="rect9" />
      <rect
         fill="#000000"
         height="40"
         width="40"
         x="240"
         y="40"
         id="rect10" />
      <rect
         fill="#000000"
         height="40"
         width="40"
         x="280"
         y="40"
         id="rect11" />
      <rect
         fill="#000000"
         height="40"
         width="40"
         x="360"
         y="40"
         id="rect13" />
      <rect
         fill="#000000"
         height="40"
         width="40"
         x="80"
         y="80"
         id="rect14" />
      <rect
         fill="#000000"
         height="40"
         width="40"
         x="120"
         y="80"
         id="rect15" />
      <rect
         fill="#000000"
         height="40"
         width="40"
         x="360"
         y="80"
         id="rect21" />
      <rect
         fill="#000000"
         height="40"
         width="40"
         x="400"
         y="80"
         id="rect22" />
      <rect
         fill="#000000"
         height="40"
         width="40"
         x="0"
         y="120"
         id="rect23" />
      <rect
         fill="#000000"
         height="40"
         width="40"
         x="40"
         y="120"
         id="rect24" />
      <rect
         fill="#000000"
         height="40"
         width="40"
         x="80"
         y="120"
         id="rect25" />
      <rect
         fill="#000000"
         height="40"
         width="40"
         x="400"
         y="120"
         id="rect33" />
      <rect
         fill="#000000"
         height="40"
         width="40"
         x="440"
         y="120"
         id="rect34" />
      <rect
         fill="#000000"
         height="40"
         width="40"
         x="480"
         y="120"
         id="rect35" />
      <rect
         fill="#000000"
         height="40"
         width="40"
         x="0"
         y="160"
         id="rect36" />
      <rect
         fill="#000000"
         height="40"
         width="40"
         x="200"
         y="160"
         id="rect41" />
      <rect
         fill="#000000"
         height="40"
         width="40"
         x="240"
         y="160"
         id="rect42" />
      <rect
         fill="#000000"
         height="40"
         width="40"
         x="280"
         y="160"
         id="rect43" />
      <rect
         fill="#000000"
         height="40"
         width="40"
         x="480"
         y="160"
         id="rect48" />
      <rect
         fill="#000000"
         height="40"
         width="40"
         x="0"
         y="200"
         id="rect49" />
      <rect
         fill="#000000"
         height="40"
         width="40"
         x="40"
         y="200"
         id="rect50" />
      <rect
         fill="#000000"
         height="40"
         width="40"
         x="160"
         y="200"
         id="rect53" />
      <rect
         fill="#000000"
         height="40"
         width="40"
         x="200"
         y="200"
         id="rect54" />
      <rect
         fill="#000000"
         height="40"
         width="40"
         x="280"
         y="200"
         id="rect55" />
      <rect
         fill="#000000"
         height="40"
         width="40"
         x="320"
         y="200"
         id="rect56" />
      <rect
         fill="#000000"
         height="40"
         width="40"
         x="440"
         y="200"
         id="rect59" />
      <rect
         fill="#000000"
         height="40"
         width="40"
         x="480"
         y="200"
         id="rect60" />
      <rect
         fill="#000000"
         height="40"
         width="40"
         x="40"
         y="240"
         id="rect61" />
      <rect
         fill="#000000"
         height="40"
         width="40"
         x="160"
         y="240"
         id="rect64" />
      <rect
         fill="#000000"
         height="40"
         width="40"
         x="320"
         y="240"
         id="rect65" />
      <rect
         fill="#000000"
         height="40"
         width="40"
         x="440"
         y="240"
         id="rect68" />
      <rect
         fill="#000000"
         height="40"
         width="40"
         x="0"
         y="280"
         id="rect69" />
      <rect
         fill="#000000"
         height="40"
         width="40"
         x="40"
         y="280"
         id="rect70" />
      <rect
         fill="#000000"
         height="40"
         width="40"
         x="160"
         y="280"
         id="rect73" />
      <rect
         fill="#000000"
         height="40"
         width="40"
         x="200"
         y="280"
         id="rect74" />
      <rect
         fill="#000000"
         height="40"
         width="40"
         x="280"
         y="280"
         id="rect75" />
      <rect
         fill="#000000"
         height="40"
         width="40"
         x="320"
         y="280"
         id="rect76" />
      <rect
         fill="#000000"
         height="40"
         width="40"
         x="440"
         y="280"
         id="rect79" />
      <rect
         fill="#000000"
         height="40"
         width="40"
         x="480"
         y="280"
         id="rect80" />
      <rect
         fill="#000000"
         height="40"
         width="40"
         x="0"
         y="320"
         id="rect81" />
      <rect
         fill="#000000"
         height="40"
         width="40"
         x="200"
         y="320"
         id="rect86" />
      <rect
         fill="#000000"
         height="40"
         width="40"
         x="240"
         y="320"
         id="rect87" />
      <rect
         fill="#000000"
         height="40"
         width="40"
         x="280"
         y="320"
         id="rect88" />
      <rect
         fill="#000000"
         height="40"
         width="40"
         x="480"
         y="320"
         id="rect93" />
      <rect
         fill="#000000"
         height="40"
         width="40"
         x="0"
         y="360"
         id="rect94" />
      <rect
         fill="#000000"
         height="40"
         width="40"
         x="40"
         y="360"
         id="rect95" />
      <rect
         fill="#000000"
         height="40"
         width="40"
         x="80"
         y="360"
         id="rect96" />
      <rect
         fill="#000000"
         height="40"
         width="40"
         x="400"
         y="360"
         id="rect104" />
      <rect
         fill="#000000"
         height="40"
         width="40"
         x="440"
         y="360"
         id="rect105" />
      <rect
         fill="#000000"
         height="40"
         width="40"
         x="480"
         y="360"
         id="rect106" />
      <rect
         fill="#000000"
         height="40"
         width="40"
         x="80"
         y="400"
         id="rect107" />
      <rect
         fill="#000000"
         height="40"
         width="40"
         x="120"
         y="400"
         id="rect108" />
      <rect
         fill="#000000"
         height="40"
         width="40"
         x="360"
         y="400"
         id="rect114" />
      <rect
         fill="#000000"
         height="40"
         width="40"
         x="400"
         y="400"
         id="rect115" />
      <rect
         fill="#000000"
         height="40"
         width="40"
         x="120"
         y="440"
         id="rect116" />
      <rect
         fill="#000000"
         height="40"
         width="40"
         x="200"
         y="440"
         id="rect118" />
      <rect
         fill="#000000"
         height="40"
         width="40"
         x="240"
         y="440"
         id="rect119" />
      <rect
         fill="#000000"
         height="40"
         width="40"
         x="280"
         y="440"
         id="rect120" />
      <rect
         fill="#000000"
         height="40"
         width="40"
         x="360"
         y="440"
         id="rect122" />
      <rect
         fill="#000000"
         height="40"
         width="40"
         x="120"
         y="480"
         id="rect123" />
      <rect
         fill="#000000"
         height="40"
         width="40"
         x="160"
         y="480"
         id="rect124" />
      <rect
         fill="#000000"
         height="40"
         width="40"
         x="200"
         y="480"
         id="rect125" />
      <rect
         fill="#000000"
         height="40"
         width="40"
         x="280"
         y="480"
         id="rect126" />
      <rect
         fill="#000000"
         height="40"
         width="40"
         x="320"
         y="480"
         id="rect127" />
      <rect
         fill="#000000"
         height="40"
         width="40"
         x="360"
         y="480"
         id="rect128" />
    </g>
  </g>
  <metadata
     id="metadata131">
    <rdf:RDF>
      <cc:Work
         rdf:about="">
        <dc:creator>
          <cc:Agent>
            <dc:title>Hendrik Brummermann</dc:title>
          </cc:Agent>
        </dc:creator>
        <cc:license
           rdf:resource="https://www.gnu.org/licenses/old-licenses/gpl-2.0.html" />
        <dc:title>Pixel Activity Icon</dc:title>
        <dc:subject>
          <rdf:Bag>
            <rdf:li>icon</rdf:li>
            <rdf:li>menu</rdf:li>
            <rdf:li>button</rdf:li>
            <rdf:li>cursor</rdf:li>
            <rdf:li>Stendhal</rdf:li>
            <rdf:li>cog</rdf:li>
            <rdf:li>gear</rdf:li>
            <rdf:li>settings</rdf:li>
            <rdf:li>activity</rdf:li>
            <rdf:li>action</rdf:li>
            <rdf:li>pixel</rdf:li>
            <rdf:li>pixelized</rdf:li>
          </rdf:Bag>
        </dc:subject>
        <dc:publisher>
          <cc:Agent>
            <dc:title>Stendhal Game</dc:title>
          </cc:Agent>
        </dc:publisher>
        <dc:date>2010-10-30</dc:date>
        <dc:source>https://github.com/arianne/stendhal/blob/b380ac338b68999566ba6b1792e24d159457b775/data/sprites/cursor/activity.png</dc:source>
        <dc:description>A simple pixelized activity icon.</dc:description>
        <dc:contributor>
          <cc:Agent>
            <dc:title>Jordan Irwin (AntumDeluge)</dc:title>
          </cc:Agent>
        </dc:contributor>
      </cc:Work>
    </rdf:RDF>
  </metadata>
</svg>
