<?xml version="1.0" encoding="UTF-8" standalone="no"?>
<!-- Created with Inkscape (http://www.inkscape.org/) -->

<svg
   xmlns:dc="http://purl.org/dc/elements/1.1/"
   xmlns:cc="http://creativecommons.org/ns#"
   xmlns:rdf="http://www.w3.org/1999/02/22-rdf-syntax-ns#"
   xmlns:svg="http://www.w3.org/2000/svg"
   xmlns="http://www.w3.org/2000/svg"
   xmlns:sodipodi="http://sodipodi.sourceforge.net/DTD/sodipodi-0.dtd"
   xmlns:inkscape="http://www.inkscape.org/namespaces/inkscape"
   id="svg39605"
   sodipodi:docname="book_10.svg"
   viewBox="0 0 256.00001 245.79099"
   version="1.1"
   inkscape:version="0.92.4 (5da689c313, 2019-01-14)"
   width="256"
   height="245.79099">
  <defs
     id="defs39607">
    <linearGradient
       id="linearGradient11197"
       y2="157.99001"
       gradientUnits="userSpaceOnUse"
       x2="-19647"
       gradientTransform="matrix(4.8085,0,0,4.8085,94832,200.4)"
       y1="168.56"
       x1="-19645"
       inkscape:collect="always">
      <stop
         id="stop10761"
         style="stop-color:#803300"
         offset="0" />
      <stop
         id="stop10763"
         style="stop-color:#aa4400;stop-opacity:0"
         offset="1" />
    </linearGradient>
    <linearGradient
       id="linearGradient11195"
       y2="153.74001"
       gradientUnits="userSpaceOnUse"
       x2="-19650"
       gradientTransform="matrix(4.8085,0,0,4.8085,94854,197.21)"
       y1="144.61"
       x1="-19657"
       inkscape:collect="always">
      <stop
         id="stop10740"
         style="stop-color:#ff0000"
         offset="0" />
      <stop
         id="stop10742"
         style="stop-color:#ff0000;stop-opacity:0"
         offset="1" />
    </linearGradient>
    <linearGradient
       id="linearGradient11193"
       y2="150.71001"
       gradientUnits="userSpaceOnUse"
       x2="-19645"
       gradientTransform="matrix(4.8085,0,0,4.8085,94832,200.4)"
       y1="160.17"
       x1="-19638"
       inkscape:collect="always">
      <stop
         id="stop10771"
         style="stop-color:#2b1100"
         offset="0" />
      <stop
         id="stop10773"
         style="stop-color:#2b1100;stop-opacity:0"
         offset="1" />
    </linearGradient>
    <linearGradient
       id="linearGradient11191"
       y2="151.77"
       gradientUnits="userSpaceOnUse"
       x2="-19649"
       gradientTransform="matrix(4.8085,0,0,4.8085,94855,195.3)"
       y1="143.61"
       x1="-19653"
       inkscape:collect="always">
      <stop
         id="stop10751"
         style="stop-color:#ff0000"
         offset="0" />
      <stop
         id="stop10753"
         style="stop-color:#ff0000;stop-opacity:0"
         offset="1" />
    </linearGradient>
    <radialGradient
       id="radialGradient11189"
       gradientUnits="userSpaceOnUse"
       cy="120.5"
       cx="-19672"
       gradientTransform="matrix(-18.641,-27.657,1.9096,-1.2871,-366820,-543260)"
       r="28.705"
       inkscape:collect="always">
      <stop
         id="stop10712"
         style="stop-color:#ffefb5"
         offset="0" />
      <stop
         id="stop10714"
         style="stop-color:#ffefb5;stop-opacity:0"
         offset="1" />
    </radialGradient>
    <radialGradient
       id="radialGradient11187"
       gradientUnits="userSpaceOnUse"
       cy="77.421997"
       cx="-19639"
       gradientTransform="matrix(-4.8085,-4.0411,1.3289,-1.5812,-94191,-78574)"
       r="53.220001"
       inkscape:collect="always">
      <stop
         id="stop10725"
         style="stop-color:#734e21"
         offset="0" />
      <stop
         id="stop10727"
         style="stop-color:#734e21;stop-opacity:0"
         offset="1" />
    </radialGradient>
  </defs>
  <sodipodi:namedview
     id="base"
     bordercolor="#666666"
     inkscape:pageshadow="2"
     inkscape:window-y="-8"
     pagecolor="#ffffff"
     inkscape:window-height="1025"
     inkscape:window-maximized="1"
     inkscape:zoom="0.35"
     inkscape:window-x="-8"
     showgrid="false"
     borderopacity="1.0"
     inkscape:current-layer="layer1"
     inkscape:cx="-238.87429"
     inkscape:cy="478.57683"
     inkscape:window-width="1920"
     inkscape:pageopacity="0.0"
     inkscape:document-units="px"
     fit-margin-top="0"
     fit-margin-left="0"
     fit-margin-right="0"
     fit-margin-bottom="0" />
  <g
     id="layer1"
     inkscape:label="Layer 1"
     inkscape:groupmode="layer"
     transform="translate(-91.017541,-765.14381)">
    <g
       id="g853"
       transform="matrix(0.50014466,0,0,0.50014466,45.495604,505.32116)">
      <path
         inkscape:connector-curvature="0"
         inkscape:export-xdpi="90"
         sodipodi:nodetypes="cccccccccc"
         inkscape:export-ydpi="90"
         d="m 567.05,798.4 c 22.998,2.1239 6.7024,9.8616 4.2056,15.627 -69.742,40.345 -177.7,89.914 -268.07,135.24 -13.222,1.7999 -23.242,-2.8018 -30.055,-13.824 l -169.8,-298.44 c -7.8065,-22.374 -24.252,-44.171 2.1028,-68.821 70.641,-16.375 79.729,-34.443 227.8,-48.687 87.553,60.609 178.3,135.04 268.07,205.26 3.9837,8.8751 0.11096,11.85 -8.7109,11.119 -12.19,17.728 -23.597,36.118 -25.544,62.511 z"
         style="fill:#513622"
         id="path11099" />
      <path
         inkscape:connector-curvature="0"
         inkscape:export-xdpi="90"
         sodipodi:nodetypes="cccccccccc"
         inkscape:export-ydpi="90"
         d="m 567.05,798.4 c 22.998,2.1239 6.7024,9.8616 4.2056,15.627 -69.742,40.345 -177.7,89.914 -268.07,135.24 -13.222,1.7999 -23.242,-2.8018 -30.055,-13.824 l -169.8,-298.44 c -7.8065,-22.374 -24.252,-44.171 2.1028,-68.821 70.641,-16.375 79.729,-34.443 227.8,-48.687 87.553,60.609 178.3,135.04 268.07,205.26 3.9837,8.8751 0.11096,11.85 -8.7109,11.119 -12.19,17.728 -23.597,36.118 -25.544,62.511 z"
         style="opacity:0.63477999;fill:url(#radialGradient11187)"
         id="path11101" />
      <path
         inkscape:connector-curvature="0"
         inkscape:export-xdpi="90"
         sodipodi:nodetypes="ccccc"
         inkscape:export-ydpi="90"
         d="M 570.66,806.81 296.57,940.25 c -13.383,-1.2483 -15.219,-47.912 23.442,-64.915 l 272.89,-139.45 c -25.256,43.464 -25.434,59.072 -22.238,70.925 z"
         style="fill:#634218"
         id="path11103" />
      <path
         inkscape:connector-curvature="0"
         inkscape:export-xdpi="90"
         sodipodi:nodetypes="ccccccccccccc"
         inkscape:export-ydpi="90"
         d="m 363.29,848.89 -45.679,27.048 c -15.041,7.6783 -24.396,15.831 -25.844,24.643 -0.56592,9.7451 -0.85998,18.948 -3.6064,33.059 6.5137,6.0809 14.132,3.38 21.749,0.60477 l 52.493,-26.776 4.6717,9.775 -63.112,31.664 c -14.709,5.14 -21.422,-0.72292 -27.198,-7.863 l -171.83,-298.63 c -26.588,-50.729 -8.4945,-65.067 0.38838,-74.231 l 31.98,-10.82 226.01,291.52 z"
         style="fill:#bd8431"
         id="path11105" />
      <path
         inkscape:connector-curvature="0"
         inkscape:export-xdpi="90"
         sodipodi:nodetypes="ccccccccccccc"
         inkscape:export-ydpi="90"
         d="m 363.29,848.89 -45.679,27.048 c -15.041,7.6783 -24.396,15.831 -25.844,24.643 -0.56592,9.7451 -0.85998,18.948 -3.6064,33.059 6.5137,6.0809 14.132,3.38 21.749,0.60477 l 52.493,-26.776 4.6717,9.775 -63.112,31.664 c -14.709,5.14 -21.422,-0.72292 -27.198,-7.863 l -171.83,-298.63 c -26.588,-50.729 -8.4945,-65.067 0.38838,-74.231 l 31.98,-10.82 226.01,291.52 z"
         style="fill:url(#radialGradient11189)"
         id="path11107" />
      <path
         inkscape:connector-curvature="0"
         inkscape:export-xdpi="90"
         sodipodi:nodetypes="ccsccc"
         inkscape:export-ydpi="90"
         d="m 338.81,888.34 c 21.749,23.342 12.711,44.027 40.375,82.241 0,0 6.8078,-8.9256 9.3545,-8.9256 2.5467,0 15.724,0.84996 15.724,0.84996 -37.473,-48.052 -9.0826,-44.574 -48.026,-82.877 l -17.427,8.7125 z"
         style="fill:#c63900"
         id="path11109" />
      <path
         inkscape:connector-curvature="0"
         inkscape:export-xdpi="90"
         sodipodi:nodetypes="ccsccc"
         inkscape:export-ydpi="90"
         d="m 338.81,888.34 c 21.749,23.342 12.711,44.027 40.375,82.241 0,0 6.8078,-8.9256 9.3545,-8.9256 2.5467,0 15.724,0.84996 15.724,0.84996 -37.473,-48.052 -9.0826,-44.574 -48.026,-82.877 l -17.427,8.7125 z"
         style="opacity:0.54782996;fill:url(#linearGradient11191)"
         id="path11111" />
      <path
         inkscape:connector-curvature="0"
         inkscape:export-xdpi="90"
         sodipodi:nodetypes="ccsccc"
         inkscape:export-ydpi="90"
         d="m 338.81,888.34 c 21.749,23.342 12.711,44.027 40.375,82.241 0,0 6.8078,-8.9256 9.3545,-8.9256 2.5467,0 15.724,0.84996 15.724,0.84996 -37.473,-48.052 -9.0826,-44.574 -48.026,-82.877 l -17.427,8.7125 z"
         style="opacity:0.54782996;fill:url(#linearGradient11193)"
         id="path11113" />
      <path
         inkscape:connector-curvature="0"
         inkscape:export-xdpi="90"
         sodipodi:nodetypes="ccsccc"
         inkscape:export-ydpi="90"
         d="m 322.33,896.56 c 37.473,28.442 8.9661,68.309 32.574,108.03 0,0 2.2082,-7.9552 4.7549,-7.9552 2.5467,0 6.9964,14.3 6.9964,14.3 4.0114,-24.375 9.643,-105.67 -26.898,-123.08 l -17.427,8.7131 z"
         style="fill:#d45500"
         id="path11115" />
      <path
         inkscape:connector-curvature="0"
         inkscape:export-xdpi="90"
         sodipodi:nodetypes="ccsccc"
         inkscape:export-ydpi="90"
         d="m 322.33,896.56 c 37.473,28.442 8.9661,68.309 32.574,108.03 0,0 2.2082,-7.9552 4.7549,-7.9552 2.5467,0 6.9964,14.3 6.9964,14.3 4.0114,-24.375 9.643,-105.67 -26.898,-123.08 l -17.427,8.7131 z"
         style="opacity:0.66522001;fill:url(#linearGradient11195)"
         id="path11117" />
      <path
         inkscape:connector-curvature="0"
         inkscape:export-xdpi="90"
         sodipodi:nodetypes="ccsccc"
         inkscape:export-ydpi="90"
         d="m 322.33,896.56 c 37.473,28.442 8.9661,68.309 32.574,108.03 0,0 2.2082,-7.9552 4.7549,-7.9552 2.5467,0 6.9964,14.3 6.9964,14.3 4.0114,-24.375 9.643,-105.67 -26.898,-123.08 l -17.427,8.7131 z"
         style="opacity:0.66522001;fill:url(#linearGradient11197)"
         id="path11119" />
    </g>
  </g>
  <metadata
     id="metadata34">
    <rdf:RDF>
      <cc:Work>
        <dc:format>image/svg+xml</dc:format>
        <dc:type
           rdf:resource="http://purl.org/dc/dcmitype/StillImage" />
        <cc:license
           rdf:resource="http://creativecommons.org/publicdomain/zero/1.0/" />
        <dc:publisher>
          <cc:Agent
             rdf:about="http://openclipart.org/">
            <dc:title>Openclipart</dc:title>
          </cc:Agent>
        </dc:publisher>
        <dc:title>Registry book</dc:title>
        <dc:date>2010-08-01T08:48:40</dc:date>
        <dc:description />
        <dc:source>https://openclipart.org/detail/75799/registry-book-by-wakro</dc:source>
        <dc:creator>
          <cc:Agent>
            <dc:title>wakro</dc:title>
          </cc:Agent>
        </dc:creator>
        <dc:subject>
          <rdf:Bag>
            <rdf:li>book</rdf:li>
            <rdf:li>registry book</rdf:li>
            <rdf:li>wedding</rdf:li>
          </rdf:Bag>
        </dc:subject>
      </cc:Work>
      <cc:License
         rdf:about="http://creativecommons.org/publicdomain/zero/1.0/">
        <cc:permits
           rdf:resource="http://creativecommons.org/ns#Reproduction" />
        <cc:permits
           rdf:resource="http://creativecommons.org/ns#Distribution" />
        <cc:permits
           rdf:resource="http://creativecommons.org/ns#DerivativeWorks" />
      </cc:License>
    </rdf:RDF>
  </metadata>
</svg>
