<?xml version="1.0" encoding="UTF-8" standalone="no"?>
<svg
   xmlns:dc="http://purl.org/dc/elements/1.1/"
   xmlns:cc="http://creativecommons.org/ns#"
   xmlns:rdf="http://www.w3.org/1999/02/22-rdf-syntax-ns#"
   xmlns:svg="http://www.w3.org/2000/svg"
   xmlns="http://www.w3.org/2000/svg"
   xmlns:xlink="http://www.w3.org/1999/xlink"
   xmlns:sodipodi="http://sodipodi.sourceforge.net/DTD/sodipodi-0.dtd"
   xmlns:inkscape="http://www.inkscape.org/namespaces/inkscape"
   id="svg1"
   viewBox="0 0 256.00001 200.78077"
   version="1.0"
   y="0"
   x="0"
   sodipodi:docname="holy_book_01.svg"
   inkscape:version="0.92.4 (5da689c313, 2019-01-14)"
   width="256"
   height="200.78078">
  <sodipodi:namedview
     pagecolor="#ffffff"
     bordercolor="#666666"
     borderopacity="1"
     objecttolerance="10"
     gridtolerance="10"
     guidetolerance="10"
     inkscape:pageopacity="0"
     inkscape:pageshadow="2"
     inkscape:window-width="1920"
     inkscape:window-height="1025"
     id="namedview38"
     showgrid="false"
     inkscape:zoom="1.1973037"
     inkscape:cx="123.74562"
     inkscape:cy="93.703796"
     inkscape:window-x="-8"
     inkscape:window-y="-8"
     inkscape:window-maximized="1"
     inkscape:current-layer="svg1"
     fit-margin-top="0"
     fit-margin-left="0"
     fit-margin-right="0"
     fit-margin-bottom="0" />
  <defs
     id="defs3">
    <linearGradient
       id="linearGradient3803">
      <stop
         id="stop3805"
         stop-color="#d98f26"
         offset="0" />
      <stop
         id="stop3815"
         stop-color="#c69b5e"
         offset=".25" />
      <stop
         id="stop3811"
         stop-color="#e7bb7b"
         offset=".48033" />
      <stop
         id="stop3813"
         stop-color="#d28b26"
         offset=".75" />
      <stop
         id="stop3807"
         stop-color="#e8be80"
         offset="1" />
    </linearGradient>
    <linearGradient
       id="linearGradient4725">
      <stop
         id="stop4727"
         stop-color="#860500"
         offset="0" />
      <stop
         id="stop4729"
         stop-color="#9d0600"
         offset="1" />
    </linearGradient>
    <linearGradient
       id="linearGradient3600"
       x1="394.81"
       xlink:href="#linearGradient3803"
       gradientUnits="userSpaceOnUse"
       y1="198.08"
       gradientTransform="translate(-174.66,-89.281)"
       x2="589.89001"
       y2="198.08" />
    <linearGradient
       id="linearGradient3603"
       x1="443.07999"
       xlink:href="#linearGradient3803"
       gradientUnits="userSpaceOnUse"
       y1="135.2"
       gradientTransform="translate(-174.66,-89.281)"
       x2="620.84003"
       y2="315.26999" />
    <linearGradient
       id="linearGradient3606"
       y2="201.67"
       gradientUnits="userSpaceOnUse"
       y1="201.67"
       x2="417.84"
       x1="62.030998">
      <stop
         id="stop7488"
         stop-color="#3e0000"
         offset="0" />
      <stop
         id="stop7490"
         stop-color="#800000"
         offset="1" />
    </linearGradient>
    <linearGradient
       id="linearGradient3609"
       x1="86.438004"
       xlink:href="#linearGradient4725"
       gradientUnits="userSpaceOnUse"
       x2="705.5"
       y1="198.34"
       y2="198.34" />
    <linearGradient
       id="linearGradient3612"
       x1="5.3438001"
       xlink:href="#linearGradient4725"
       gradientUnits="userSpaceOnUse"
       x2="385.41"
       y1="249.45"
       y2="249.45" />
    <linearGradient
       id="linearGradient3616"
       y2="427.69"
       gradientUnits="userSpaceOnUse"
       y1="427.69"
       x2="677.5"
       x1="317.38">
      <stop
         id="stop4715"
         stop-color="#de9e44"
         offset="0" />
      <stop
         id="stop4717"
         stop-color="#c69b5e"
         offset=".25" />
      <stop
         id="stop4719"
         stop-color="#e7bb7b"
         offset=".48033" />
      <stop
         id="stop4721"
         stop-color="#d28b26"
         offset=".75" />
      <stop
         id="stop4723"
         stop-color="#e8be80"
         offset="1" />
    </linearGradient>
    <linearGradient
       id="linearGradient3619"
       x1="3.3125"
       xlink:href="#linearGradient4725"
       gradientUnits="userSpaceOnUse"
       x2="681.21997"
       y1="293.60999"
       y2="293.60999" />
  </defs>
  <g
     id="g854"
     transform="matrix(0.35887098,0,0,0.35887098,0.38686292,0.70934438)">
    <path
       d="m 3.3125,85.5 3.0625,4.0625 311.88,411.12 0.78125,1.0312 1.3125,-0.0312 18.875,-0.625 0.375,-0.0312 0.375,-0.125 16.875,-6.0938 16.875,6.0938 0.40625,0.15625 h 301.63 l 1.875,-4.1564 -354.34,-407.47 -0.71875,-0.84375 -1.125,-0.03125 -313.03,-3 z"
       style="color:#000000;text-indent:0;text-transform:none;fill:url(#linearGradient3619);fill-rule:evenodd"
       id="path4694"
       inkscape:connector-curvature="0" />
    <path
       d="m 373,372.03 -0.6875,1.375 -53.156,106.31 -1.7812,3.625 h 318.06 l -0.1875,-2.6562 c -2.2356,-34.868 7.2429,-69.368 42.25,-104.38 l -1.75,-1.75 v -2.5312 h -302.75 z"
       style="color:#000000;text-indent:0;text-transform:none;fill:url(#linearGradient3616);fill-rule:evenodd"
       id="path4678"
       inkscape:connector-curvature="0" />
    <path
       d="m 35.515,-1.9766 -36.593,91.469 322.22,411.75 54.25,-108.47 h 14.125 c 0.47503,0.14577 0.99372,0.14577 1.4688,0 0.0104,6e-5 0.0208,6e-5 0.0312,0 l 17.281,7.375 0.96875,0.40625 0.96875,-0.40625 17.281,-7.375 h 282.91 l 1.8438,-4.1875 c -119.06,-129.54 -235.73,-261.28 -355.07,-390.56 h -274.84 c -5.4999,2.1982 -11,4.3959 -16.5,6.5938 -5.8018,-2.8484 -11.985,-4.5873 -17.25,-6.5938 z"
       style="color:#000000;text-indent:0;text-transform:none;fill:#9a0600;fill-rule:evenodd"
       id="path3877"
       inkscape:connector-curvature="0" />
    <path
       d="m 39.625,5 h 8.75 l 3.6875,1.4062 333.34,383.34 h -12.375 l -0.71875,1.375 -51.375,102.78 -315.6,-403.24 34.285,-85.66 z"
       style="color:#000000;text-indent:0;text-transform:none;fill:url(#linearGradient3612);fill-rule:evenodd"
       id="path3875"
       inkscape:connector-curvature="0" />
    <path
       d="m 86.438,5 h 269.31 l 349.75,384.75 h -278.28 l -0.46875,0.1875 -4.0625,1.75 -336.25,-386.69 z"
       style="color:#000000;text-indent:0;text-transform:none;fill:url(#linearGradient3609);fill-rule:evenodd"
       id="path3873"
       inkscape:connector-curvature="0" />
    <path
       d="m 80.906,6.25 336.94,387.5 -7.8438,3.3438 -16.75,-7.1562 -0.46875,-0.1875 h -0.75 l -330,-379.53 4.5938,1.75 z"
       style="color:#000000;text-indent:0;text-transform:none;fill:url(#linearGradient3606);fill-rule:evenodd"
       id="path1689"
       inkscape:connector-curvature="0" />
    <path
       d="m 271.77,35.553 a 12.501,12.501 0 0 0 -9.25,20.688 l 155.62,184.62 a 12.508,12.508 0 1 0 19.125,-16.125 L 281.625,40.116 a 12.501,12.501 0 0 0 -9.8438,-4.5625 z"
       style="color:#000000;text-indent:0;text-transform:none;fill:url(#linearGradient3603)"
       id="path6077"
       inkscape:connector-curvature="0" />
    <path
       d="m 232.84,96.303 c -3.302,-0.0467 -6.6023,1.2795 -8.9538,3.598 -2.3515,2.3185 -3.7243,5.5997 -3.7243,8.902 0,3.3023 1.3727,6.5835 3.7243,8.902 2.3515,2.3185 5.6518,3.6447 8.9538,3.598 h 84.354 l 7.3956,-12.326 25.474,12.326 h 52.495 c 3.302,0.0467 6.6023,-1.2795 8.9538,-3.598 2.3515,-2.3185 3.7243,-5.5997 3.7243,-8.902 0,-3.3023 -1.3727,-6.5835 -3.7243,-8.902 -2.3515,-2.3185 -5.6518,-3.6447 -8.9538,-3.598 h -74.271 l -4.1087,11.915 -28.35,-11.915 z"
       style="color:#000000;text-indent:0;text-transform:none;fill:url(#linearGradient3600)"
       id="path6699"
       inkscape:connector-curvature="0" />
    <path
       d="m 364.84,434.03 c -0.79405,-0.002 -1.6101,0.0163 -2.4062,0.0312 -6.36,0.12 -12.43,0.72 -12.43,0.72 2.4921,4.1113 5.8575,7.7798 8.5,11.969 3.9251,4.9587 5.6191,11.335 7.9688,17.094 2.5162,5.8404 1.7974,12.428 1.7812,18.688 0.93645,5.7927 -1.048,10.041 -3.375,14.688 -0.70002,0.17767 -0.67032,1.0416 -2.4688,3.2188 -3.4454,1.9764 -6.2206,3.5857 -8.7188,5.0312 -4.7292,4.4781 -9.2645,10.244 -9.875,15.969 -2.7863,5.1278 -4.8876,9.6279 -5.4375,15.438 1.6962,6.5551 5.4515,10.032 10.781,13.844 3.4022,2.275 6.832,4.4112 10.156,6.7812 l 17.72,-11.34 c -3.26,-2.36 -6.61,-4.44 -10.03,-6.6 -4.8609,-3.4655 -8.5478,-6.2176 -9.9375,-12.344 1.109,-5.3001 3.9051,-9.813 5.6562,-15 0.38048,-3.1475 5.277,-8.9412 6.5625,-11.125 2.5901,-1.5844 5.4431,-3.54 7.9688,-5.375 -2.403,1.1484 10.758,-11.456 -7.6562,4.4688 -0.0548,-0.0306 -0.17125,-0.0172 -0.3125,0.0312 3.3405,-1.8543 5.1023,-3.7698 6.5938,-4.5938 0.0277,-0.0201 1.1109,0.0886 1.375,0.0937 0.0299,5.8e-4 0.15313,0.002 0.15625,0 2.4019,-1.7501 4.4155,-3.426 5.875,-5 2.5338,-5.8492 4.6478,-11.07 3.6875,-17.719 0.0139,-6.6549 0.68597,-13.618 -2.2812,-19.75 -2.3615,-5.7306 -4.0434,-12.15 -8.0312,-17.031 -1.0383,-1.6802 -6.2541,-2.1734 -11.812,-2.1875 z"
       id="path3598"
       inkscape:connector-curvature="0"
       style="fill:#8f0000" />
  </g>
  <metadata
     id="metadata35">
    <rdf:RDF>
      <cc:Work>
        <dc:format>image/svg+xml</dc:format>
        <dc:type
           rdf:resource="http://purl.org/dc/dcmitype/StillImage" />
        <cc:license
           rdf:resource="http://creativecommons.org/publicdomain/zero/1.0/" />
        <dc:publisher>
          <cc:Agent
             rdf:about="http://openclipart.org/">
            <dc:title>Openclipart</dc:title>
          </cc:Agent>
        </dc:publisher>
        <dc:title>Sinterklaas book closed</dc:title>
        <dc:date>2013-08-10T10:46:14</dc:date>
        <dc:description>An image of Sinterklaas his book closed.</dc:description>
        <dc:source>https://openclipart.org/detail/181737/sinterklaas-book-closed-by-rdevries-181737</dc:source>
        <dc:creator>
          <cc:Agent>
            <dc:title>rdevries</dc:title>
          </cc:Agent>
        </dc:creator>
        <dc:subject>
          <rdf:Bag>
            <rdf:li>Book</rdf:li>
            <rdf:li>celebrate</rdf:li>
            <rdf:li>celebration</rdf:li>
            <rdf:li>event</rdf:li>
            <rdf:li>sinterklaas</rdf:li>
            <rdf:li>sinterklaasfeest</rdf:li>
          </rdf:Bag>
        </dc:subject>
      </cc:Work>
      <cc:License
         rdf:about="http://creativecommons.org/publicdomain/zero/1.0/">
        <cc:permits
           rdf:resource="http://creativecommons.org/ns#Reproduction" />
        <cc:permits
           rdf:resource="http://creativecommons.org/ns#Distribution" />
        <cc:permits
           rdf:resource="http://creativecommons.org/ns#DerivativeWorks" />
      </cc:License>
    </rdf:RDF>
  </metadata>
</svg>
