<?xml version="1.0" encoding="UTF-8" standalone="no"?>
<!--Generator: Xara Designer (www.xara.com), SVG filter version: 6.1.0.16-->

<svg
   xmlns:dc="http://purl.org/dc/elements/1.1/"
   xmlns:cc="http://creativecommons.org/ns#"
   xmlns:rdf="http://www.w3.org/1999/02/22-rdf-syntax-ns#"
   xmlns:svg="http://www.w3.org/2000/svg"
   xmlns="http://www.w3.org/2000/svg"
   xmlns:sodipodi="http://sodipodi.sourceforge.net/DTD/sodipodi-0.dtd"
   xmlns:inkscape="http://www.inkscape.org/namespaces/inkscape"
   version="1.1"
   overflow="visible"
   width="256"
   height="232.01749"
   viewBox="0 0 192 174.01311"
   id="svg29"
   sodipodi:docname="holy_book_02.svg"
   inkscape:version="0.92.4 (5da689c313, 2019-01-14)"
   style="overflow:visible;fill-rule:evenodd;stroke-width:0.50099999;stroke-linejoin:bevel">
  <metadata
     id="metadata33">
    <rdf:RDF>
      <cc:Work
         rdf:about="">
        <dc:format>image/svg+xml</dc:format>
        <dc:type
           rdf:resource="http://purl.org/dc/dcmitype/StillImage" />
        <dc:title></dc:title>
        <cc:license
           rdf:resource="http://creativecommons.org/publicdomain/zero/1.0/" />
        <dc:source>https://openclipart.org/detail/266088</dc:source>
      </cc:Work>
      <cc:License
         rdf:about="http://creativecommons.org/publicdomain/zero/1.0/">
        <cc:permits
           rdf:resource="http://creativecommons.org/ns#Reproduction" />
        <cc:permits
           rdf:resource="http://creativecommons.org/ns#Distribution" />
        <cc:permits
           rdf:resource="http://creativecommons.org/ns#DerivativeWorks" />
      </cc:License>
    </rdf:RDF>
  </metadata>
  <sodipodi:namedview
     pagecolor="#ffffff"
     bordercolor="#666666"
     borderopacity="1"
     objecttolerance="10"
     gridtolerance="10"
     guidetolerance="10"
     inkscape:pageopacity="0"
     inkscape:pageshadow="2"
     inkscape:window-width="1920"
     inkscape:window-height="1025"
     id="namedview31"
     showgrid="false"
     inkscape:zoom="0.69532167"
     inkscape:cx="70.167634"
     inkscape:cy="-86.158768"
     inkscape:window-x="-8"
     inkscape:window-y="-8"
     inkscape:window-maximized="1"
     inkscape:current-layer="svg29"
     units="px"
     fit-margin-top="0"
     fit-margin-left="0"
     fit-margin-right="0"
     fit-margin-bottom="0" />
  <defs
     id="defs12">
    <linearGradient
       id="LinearGradient"
       gradientUnits="userSpaceOnUse"
       x1="0"
       y1="0"
       x2="-55.993999"
       y2="-20.997999"
       gradientTransform="translate(126.524,551.594)">
      <stop
         offset="0"
         stop-color="#5eada4"
         id="stop2" />
      <stop
         offset="1"
         stop-color="#3c877f"
         id="stop4" />
    </linearGradient>
    <linearGradient
       id="LinearGradient_1"
       gradientUnits="userSpaceOnUse"
       x1="0"
       y1="0"
       x2="0"
       y2="35.327"
       gradientTransform="translate(385.837,77.219)">
      <stop
         offset="0"
         stop-color="#ffffff"
         id="stop7" />
      <stop
         offset="1"
         stop-color="#b2b2b2"
         id="stop9" />
    </linearGradient>
  </defs>
  <g
     id="Document"
     font-size="16"
     transform="matrix(0.26666592,0,0,-0.26666592,5.3959406e-5,-16.257821)"
     style="font-size:16px;font-family:'Times New Roman';fill:none;stroke:#000000">
    <g
       id="Spread"
       transform="translate(0,-720)">
      <g
         id="Layer 1">
        <path
           d="M 502.884,655.839 50.341,657.764 C 14.18,651.845 -5.997,626.902 1.584,568.92 L 181.668,9.123 c -9.701,42.757 -4.096,81.141 45.61,106.928 l 484.783,3.581 z"
           stroke-miterlimit="79.8403193612775"
           id="path14"
           inkscape:connector-curvature="0"
           style="fill:url(#LinearGradient);stroke:none;stroke-width:13.79399967;stroke-linecap:round;stroke-linejoin:miter;stroke-miterlimit:79.84031677;marker-start:none;marker-end:none" />
        <path
           d="M 578.795,450.703 C 335.277,563.453 214.618,371.272 77.865,328.836 L 173.017,6.482 c 3.885,46.593 14.452,88.731 57.407,109.287 l 481.637,-4.283 z"
           stroke-miterlimit="79.8403193612775"
           id="path16"
           inkscape:connector-curvature="0"
           style="fill:#3c877f;stroke:none;stroke-width:13.79399967;stroke-linecap:round;stroke-linejoin:miter;stroke-miterlimit:79.84031677;marker-start:none;marker-end:none" />
        <path
           d="m 664.587,116.913 -428.163,1.923 C 182.722,95.276 166.178,61.103 199.464,12.695 l 468.269,6.726 c -20.056,30.313 -20.328,58.906 -3.146,97.492 z"
           stroke-miterlimit="79.8403193612775"
           id="path18"
           inkscape:connector-curvature="0"
           style="fill:url(#LinearGradient_1);stroke:none;stroke-width:13.79399967;stroke-linecap:round;stroke-linejoin:miter;stroke-miterlimit:79.84031677;marker-start:none;marker-end:none" />
        <path
           d="m 179.116,11.054 -0.029,0.06 c -22.258,47.418 -3.503,90.584 44.612,113.772 l -0.03,-0.016 c 0.889,0.446 1.872,0.673 2.867,0.664 l 2.952,-0.026 -176.141,525.169 -0.247,2.016 h -0.031 v 0.051 l 0.015,0.079 -0.044,0.365 0.407,1.43 0.116,0.573 0.082,0.122 0.064,0.224 0.612,0.777 0.591,0.875 0.209,0.141 0.098,0.125 0.482,0.266 1.209,0.817 0.42,0.085 0.103,0.057 0.048,0.015 0.012,-0.039 1.865,0.377 h 437.265 c 2.564,0 4.873,-1.558 5.832,-3.935 L 719.54,117.216 c 1.674,-4.15 -1.412,-8.683 -5.888,-8.643 l -485.529,4.269 -13.609,-7.801 C 187.739,86.805 177.126,60.666 185.031,31.419 l 4.152,-11.208 502.015,3.897 c 3.465,0.027 6.302,-2.76 6.337,-6.225 l 10e-4,-0.099 c 0.035,-3.477 -2.763,-6.326 -6.24,-6.353 L 184.829,7.5 c -2.431,-0.019 -4.656,1.365 -5.713,3.554 z M 704.205,121.335 492.312,646.355 H 68.169 L 241.521,129.507 c 0.277,-0.828 0.372,-1.673 0.308,-2.492 l -0.452,-1.612 z"
           stroke-miterlimit="79.8403193612775"
           id="path20"
           inkscape:connector-curvature="0"
           style="fill:#377b74;fill-rule:evenodd;stroke:none;stroke-width:0.5;stroke-miterlimit:79.84031677;marker-start:none;marker-end:none" />
        <text
           xml:space="preserve"
           transform="matrix(1.000133,0,0.36557,-0.999893,311.687,343.383)"
           font-size="343.393"
           stroke-miterlimit="79.8403193612775"
           id="text24"
           style="font-size:343.39300537px;font-family:Arial;fill:#403f00;stroke:none;stroke-width:12.875;stroke-linecap:round;stroke-linejoin:round;stroke-miterlimit:79.84031677"><tspan
             x="0"
             y="0"
             id="tspan22">†</tspan></text>
      </g>
    </g>
  </g>
</svg>
