<?xml version="1.0" encoding="UTF-8" standalone="no"?>
<!-- Created with Inkscape (http://www.inkscape.org/) -->

<svg
   xmlns:dc="http://purl.org/dc/elements/1.1/"
   xmlns:cc="http://creativecommons.org/ns#"
   xmlns:rdf="http://www.w3.org/1999/02/22-rdf-syntax-ns#"
   xmlns:svg="http://www.w3.org/2000/svg"
   xmlns="http://www.w3.org/2000/svg"
   xmlns:xlink="http://www.w3.org/1999/xlink"
   xmlns:sodipodi="http://sodipodi.sourceforge.net/DTD/sodipodi-0.dtd"
   xmlns:inkscape="http://www.inkscape.org/namespaces/inkscape"
   id="svg2748"
   sodipodi:docname="open_book_06.svg"
   viewBox="0 0 256 240.792"
   sodipodi:version="0.32"
   version="1.0"
   inkscape:output_extension="org.inkscape.output.svg.inkscape"
   inkscape:version="0.92.4 (5da689c313, 2019-01-14)"
   width="256"
   height="240.79201">
  <defs
     id="defs2750">
    <linearGradient
       id="linearGradient4839">
      <stop
         id="stop4841"
         style="stop-color:#f8f8f8"
         offset="0" />
      <stop
         id="stop4843"
         style="stop-color:#c4c4c4"
         offset="1" />
    </linearGradient>
    <linearGradient
       id="linearGradient5124"
       y2="437.69"
       xlink:href="#linearGradient4839"
       gradientUnits="userSpaceOnUse"
       x2="272.34"
       gradientTransform="matrix(0.80184,0.21485,-0.21485,0.80184,-64.832,-39.717)"
       y1="437.69"
       x1="220.34"
       inkscape:collect="always" />
    <linearGradient
       id="linearGradient5126"
       y2="410.41"
       xlink:href="#linearGradient4839"
       gradientUnits="userSpaceOnUse"
       x2="536.34003"
       gradientTransform="matrix(0.80184,0.21485,-0.21485,0.80184,-64.832,-39.717)"
       y1="410.41"
       x1="588.34998"
       inkscape:collect="always" />
    <linearGradient
       id="linearGradient5128"
       y2="161.72"
       gradientUnits="userSpaceOnUse"
       x2="195"
       gradientTransform="matrix(0.80184,0.21485,-0.21485,0.80184,49.143,206.34)"
       y1="162.32001"
       x1="327"
       inkscape:collect="always">
      <stop
         id="stop4806"
         style="stop-color:#f2f2f2"
         offset="0" />
      <stop
         id="stop4808"
         style="stop-color:#a6a6a6"
         offset="1" />
    </linearGradient>
    <linearGradient
       id="linearGradient5130"
       y2="206.91"
       gradientUnits="userSpaceOnUse"
       x2="195"
       gradientTransform="matrix(0.80184,0.21485,-0.21485,0.80184,49.143,206.34)"
       y1="206.91"
       x1="63"
       inkscape:collect="always">
      <stop
         id="stop4750"
         style="stop-color:#f8f8f8"
         offset="0" />
      <stop
         id="stop4798"
         style="stop-color:#c4c4c4"
         offset=".83333" />
      <stop
         id="stop4752"
         style="stop-color:#9b9b9b"
         offset="1" />
    </linearGradient>
    <linearGradient
       id="linearGradient5132"
       y2="159.10001"
       xlink:href="#linearGradient4839"
       gradientUnits="userSpaceOnUse"
       x2="67.057999"
       gradientTransform="matrix(0.80184,0.21485,-0.21485,0.80184,49.143,206.34)"
       y1="159.10001"
       x1="299.09"
       inkscape:collect="always" />
  </defs>
  <sodipodi:namedview
     id="base"
     bordercolor="#666666"
     inkscape:pageshadow="2"
     guidetolerance="10"
     pagecolor="#ffffff"
     gridtolerance="10000"
     inkscape:window-height="1025"
     inkscape:zoom="0.98994949"
     objecttolerance="10"
     showgrid="false"
     borderopacity="1.0"
     inkscape:current-layer="svg2748"
     inkscape:cx="45.178898"
     inkscape:cy="396.81368"
     inkscape:window-y="-8"
     inkscape:window-x="-8"
     inkscape:window-width="1920"
     inkscape:pageopacity="0.0"
     inkscape:document-units="px"
     inkscape:window-maximized="1"
     fit-margin-top="0"
     fit-margin-left="0"
     fit-margin-right="0"
     fit-margin-bottom="0" />
  <g
     id="g5100"
     transform="matrix(0.64767379,0,0,0.64767379,22.300606,-142.64382)">
    <path
       id="path4887"
       sodipodi:nodetypes="ccccccccccccccccccccccccccccccccc"
       style="fill:#333333;stroke:#333333;stroke-width:10;stroke-linecap:round;stroke-linejoin:round;stroke-miterlimit:20"
       d="m -29.431,503.79 146.26,75.38 164.36,7.85 74.64,-278.55 -164.36,-7.85 -146.26,-75.38 c -24.883,92.85 -49.762,185.7 -74.641,278.55 z m 0,0 146.26,75.38 164.36,7.85 74.64,-278.55 -164.36,-7.85 -146.26,-75.38 c -24.883,92.85 -49.762,185.7 -74.641,278.55 z m 0,0 146.26,75.38 164.36,7.85 74.64,-278.55 -164.36,-7.85 -146.26,-75.38 c -24.883,92.85 -49.762,185.7 -74.641,278.55 z m 0,0 74.637,-278.55 c -24.879,92.85 -49.758,185.7 -74.637,278.55 z m 310.62,83.23 74.64,-278.55 z m -310.63,-83.23 146.27,75.38 z m 146.27,75.38 164.36,7.85 z"
       inkscape:connector-curvature="0" />
    <path
       id="path5195"
       sodipodi:nodetypes="ccccccccccc"
       style="fill:#e6e6e6"
       d="m -19.789,498.9 45.993,-4.86 92.956,76.47 118.73,-19.75 37.4,27.21 c 23.63,-88.21 47.27,-176.41 70.9,-264.61 L 308.79,286.15 190.06,305.9 97.105,229.43 51.112,234.29 C 27.479,322.5 3.845,410.7 -19.789,498.9 Z"
       inkscape:connector-curvature="0" />
    <path
       id="path5197"
       sodipodi:nodetypes="ccccccccc"
       style="fill:#e6e6e6"
       d="m -19.789,498.9 138.95,71.61 156.13,7.46 c 23.63,-88.21 47.27,-176.41 70.9,-264.61 l -37.4,-27.21 -118.73,19.75 -92.955,-76.47 -45.993,4.86 C 27.48,322.5 3.846,410.7 -19.788,498.9 Z"
       inkscape:connector-curvature="0" />
    <path
       id="path5199"
       sodipodi:nodetypes="ccccccccccc"
       style="fill:#e6e6e6"
       d="m -19.789,498.9 45.993,-4.86 92.956,76.47 118.73,-19.75 37.4,27.21 c 23.63,-88.21 47.27,-176.41 70.9,-264.61 L 308.79,286.15 190.06,305.9 97.105,229.43 51.112,234.29 C 27.479,322.5 3.845,410.7 -19.789,498.9 Z"
       inkscape:connector-curvature="0" />
    <path
       id="path5201"
       sodipodi:nodetypes="ccccc"
       style="fill:url(#linearGradient5124)"
       d="m -19.789,498.9 45.993,-4.86 70.901,-264.61 -45.993,4.86 C 27.479,322.5 3.845,410.7 -19.789,498.9 Z"
       inkscape:connector-curvature="0" />
    <path
       id="path5203"
       sodipodi:nodetypes="ccccc"
       style="fill:url(#linearGradient5126)"
       d="m 237.89,550.76 37.4,27.21 c 23.63,-88.21 47.27,-176.41 70.9,-264.61 l -37.4,-27.21 z"
       inkscape:connector-curvature="0" />
    <path
       id="path5205"
       sodipodi:nodetypes="czczcczczcc"
       style="fill:#e6e6e6"
       d="m 26.204,494.04 c 0,0 33.405,13.24 56.642,32.36 23.234,19.12 36.314,44.11 36.314,44.11 0,0 23.81,-15.11 53.49,-20.04 29.69,-4.94 65.24,0.29 65.24,0.29 l 70.9,-264.61 c 0,0 -35.55,-5.23 -65.24,-0.29 -29.68,4.94 -53.49,20.04 -53.49,20.04 0,0 -13.07,-24.99 -36.31,-44.1 -23.24,-19.12 -56.645,-32.37 -56.645,-32.37 z"
       inkscape:connector-curvature="0" />
    <path
       id="path5207"
       style="fill:url(#linearGradient5128)"
       d="m 190.05,305.9 -70.9,264.61 c 0,0 23.81,-15.11 53.5,-20.05 29.68,-4.93 65.23,0.3 65.23,0.3 l 70.91,-264.61 c 0,0 -35.56,-5.23 -65.24,-0.29 -29.68,4.93 -53.5,20.04 -53.5,20.04 z"
       inkscape:connector-curvature="0" />
    <path
       id="path5209"
       style="fill:url(#linearGradient5130)"
       d="m 97.1,229.43 -70.901,264.6 c 0,0 33.405,13.25 56.643,32.37 23.238,19.12 36.308,44.11 36.308,44.11 l 70.9,-264.61 c 0,0 -13.07,-24.99 -36.31,-44.11 C 130.51,242.68 97.1,229.43 97.1,229.43 Z"
       inkscape:connector-curvature="0" />
    <path
       id="path5211"
       style="fill:#b3b3b3"
       d="m 26.199,494.04 -45.993,4.86 138.94,71.61 c 0,0 -0.83,-1.56 -2.42,-4.2 -1.59,-2.64 -3.93,-6.37 -7.02,-10.69 -1.54,-2.16 -3.27,-4.46 -5.17,-6.86 -1.9,-2.4 -3.97,-4.87 -6.213,-7.39 -2.246,-2.51 -4.678,-5.07 -7.26,-7.58 -2.581,-2.51 -5.321,-5 -8.226,-7.39 -2.904,-2.39 -5.978,-4.68 -9.115,-6.87 -3.138,-2.19 -6.355,-4.28 -9.554,-6.24 -3.2,-1.97 -6.387,-3.81 -9.479,-5.52 -3.092,-1.71 -6.073,-3.3 -8.887,-4.72 -5.628,-2.85 -10.521,-5.09 -14.016,-6.63 -3.494,-1.54 -5.591,-2.38 -5.591,-2.38 z"
       inkscape:connector-curvature="0" />
    <path
       id="path5213"
       style="fill:#b3b3b3"
       d="m 119.15,570.51 156.13,7.46 -37.4,-27.21 c 0,0 -2.23,-0.32 -6.03,-0.73 -3.8,-0.42 -9.15,-0.93 -15.45,-1.27 -3.15,-0.17 -6.53,-0.29 -10.06,-0.36 -3.53,-0.06 -7.21,-0.06 -10.97,0.04 -3.75,0.11 -7.58,0.3 -11.39,0.63 -3.81,0.33 -7.62,0.78 -11.33,1.39 -3.71,0.62 -7.33,1.4 -10.82,2.29 -3.49,0.88 -6.88,1.88 -10.08,2.94 -3.2,1.05 -6.23,2.16 -9.07,3.29 -2.85,1.12 -5.5,2.26 -7.91,3.36 -4.83,2.19 -8.73,4.25 -11.43,5.74 -2.69,1.5 -4.19,2.43 -4.19,2.43 z"
       inkscape:connector-curvature="0" />
    <path
       id="path5215"
       sodipodi:nodetypes="cczcczc"
       style="fill:url(#linearGradient5132)"
       d="m 190.05,305.9 -70.9,264.61 c 0,0 14.46,-31.31 41.02,-41.65 26.57,-10.34 65.24,0.29 65.24,0.29 l 70.9,-264.61 c 0,0 -38.67,-10.63 -65.24,-0.29 -26.56,10.34 -41.02,41.65 -41.02,41.65 z"
       inkscape:connector-curvature="0" />
  </g>
  <metadata
     id="metadata31">
    <rdf:RDF>
      <cc:Work>
        <dc:format>image/svg+xml</dc:format>
        <dc:type
           rdf:resource="http://purl.org/dc/dcmitype/StillImage" />
        <cc:license
           rdf:resource="http://creativecommons.org/publicdomain/zero/1.0/" />
        <dc:publisher>
          <cc:Agent
             rdf:about="http://openclipart.org/">
            <dc:title>Openclipart</dc:title>
          </cc:Agent>
        </dc:publisher>
        <dc:title></dc:title>
        <dc:date>2007-12-13T04:48:00</dc:date>
        <dc:description>A book icon.</dc:description>
        <dc:source>https://openclipart.org/detail/24723/book-by-barretr</dc:source>
        <dc:creator>
          <cc:Agent>
            <dc:title>barretr</dc:title>
          </cc:Agent>
        </dc:creator>
        <dc:subject>
          <rdf:Bag>
            <rdf:li>book</rdf:li>
            <rdf:li>icon</rdf:li>
          </rdf:Bag>
        </dc:subject>
      </cc:Work>
      <cc:License
         rdf:about="http://creativecommons.org/publicdomain/zero/1.0/">
        <cc:permits
           rdf:resource="http://creativecommons.org/ns#Reproduction" />
        <cc:permits
           rdf:resource="http://creativecommons.org/ns#Distribution" />
        <cc:permits
           rdf:resource="http://creativecommons.org/ns#DerivativeWorks" />
      </cc:License>
    </rdf:RDF>
  </metadata>
</svg>
