<?xml version="1.0" encoding="UTF-8" standalone="no"?>
<!-- Created with Inkscape (http://www.inkscape.org/) -->

<svg
   xmlns:dc="http://purl.org/dc/elements/1.1/"
   xmlns:cc="http://creativecommons.org/ns#"
   xmlns:rdf="http://www.w3.org/1999/02/22-rdf-syntax-ns#"
   xmlns:svg="http://www.w3.org/2000/svg"
   xmlns="http://www.w3.org/2000/svg"
   xmlns:xlink="http://www.w3.org/1999/xlink"
   xmlns:sodipodi="http://sodipodi.sourceforge.net/DTD/sodipodi-0.dtd"
   xmlns:inkscape="http://www.inkscape.org/namespaces/inkscape"
   id="svg2"
   sodipodi:docname="buckler.svg"
   viewBox="0 0 256.00006 256"
   sodipodi:version="0.32"
   version="1.0"
   inkscape:version="0.92.4 (5da689c313, 2019-01-14)"
   width="256.00006"
   height="256">
  <defs
     id="defs97" />
  <sodipodi:namedview
     id="base"
     bordercolor="#666666"
     inkscape:pageshadow="2"
     inkscape:window-y="-8"
     pagecolor="#ffffff"
     inkscape:window-height="1025"
     width="760px"
     inkscape:zoom="1.4142136"
     inkscape:window-x="-8"
     height="760px"
     borderopacity="1.0"
     inkscape:current-layer="layer1"
     inkscape:cx="31.979316"
     inkscape:cy="114.13635"
     showguides="false"
     inkscape:guide-bbox="true"
     inkscape:window-width="1920"
     showborder="true"
     inkscape:pageopacity="0.0"
     inkscape:document-units="px"
     showgrid="false"
     inkscape:window-maximized="1"
     fit-margin-top="0"
     fit-margin-left="0"
     fit-margin-right="0"
     fit-margin-bottom="0"
     inkscape:showpageshadow="false">
    <sodipodi:guide
       id="guide4561"
       position="127.84034,-251.32661"
       orientation="vertical"
       inkscape:locked="false" />
  </sodipodi:namedview>
  <g
     id="layer1"
     inkscape:label="Calque 1"
     inkscape:groupmode="layer"
     transform="translate(-251.876,-252.67341)">
    <g
       id="g993"
       transform="matrix(0.34115299,0,0,0.34115299,250.28019,250.7194)">
      <circle
         r="313.14728"
         cy="365.45847"
         cx="369.71582"
         transform="translate(10.102,16.162)"
         style="fill:#c32b2b;fill-rule:evenodd"
         id="path2762" />
      <use
         x="0"
         y="0"
         width="744.09448"
         height="1052.3622"
         transform="matrix(-1,0,0,1,759.63,0)"
         xlink:href="#path2760"
         id="use4539" />
      <path
         inkscape:connector-curvature="0"
         d="m 379.82,694.77 c -21.61,0 -68.16,-6.08 -88.9,-12.73 -9.9,-3.18 23.41,-169.07 63.89,-245.48 6.36,3.31 16.69,4.9 25.08,4.9 l -0.04,-123.23 c -8.28,0.07 -13.74,0.88 -18.02,2.64 -20.48,-42.68 -25.96,-171.5 -31.57,-247.15 18.32,-4.683 27.95,-5.246 49.56,-5.246 l 0.05,-60.61 C 173.55,7.8645 6.06,175.314 6.06,381.624 c 9e-4,206.31 167.44,373.76 373.76,373.76 M 338.8,427.594 c -11.56,41.22 -117.37,224.93 -134.03,213.67 -16.66,-11.25 -32.18,-24.07 -46.35,-38.24 -56.68,-56.68 -91.75,-134.97 -91.75,-221.4 0,-86.43 35.07,-164.71 91.75,-221.39 29.73,-28.49 71.22,-55.95 115.08,-73.21 21.86,70.88 63.69,149.52 70.29,241.1 -14.54,9.24 -24.93,34.56 -24.93,51.34 0,16.78 6.81,38.53 19.94,48.13 z"
         style="fill:#d7d7d7;fill-rule:evenodd"
         sodipodi:nodetypes="cscccccccsccssscccsc"
         id="path2760" />
      <path
         inkscape:connector-curvature="0"
         d="m 271,88.362 -4,-11 c -247.26,89.198 -283.31,424 -61,564 43.59,-63.61 123.13,-179.5 124.43,-206.61 C 229.74,552.912 114.5,573.342 91.96,483.702 49.449,314.662 130.66,172.092 271,88.362 Z m 159,-14 c -35.66,-3.661 -62.31,0.579 -92.34,4.425 5.81,80.523 5.37,161.05 23.22,241.57 -16.74,-31.97 -28.54,-127.22 -36.17,-256 41.87,-3.136 83.67,-6.192 105.29,10.002 z m -13.41,253.83 c 30.52,-145.57 50.25,-166.6 73.12,-234.76 31.02,8.68 59.04,15.35 150.71,114.08 C 579.64,102.302 526.67,94.092 484.6,73.072 c -40.33,71.09 -80.54,258.1 -68.01,255.12 z m -4.06,28.46 c 0,0 -20.69,14.61 -31.93,17.35 -0.28,12.28 -8.78,21.86 -19.06,35.85 35.23,23.55 71.03,-16.37 50.99,-53.2 z m 306.5,-130.29 c 189.95,441.44 -421.14,739.14 -661.66,340.88 236.4,341.45 811.52,141.13 661.66,-340.88 z m -301.86,200.59 c 10.79,30.69 79.92,183.36 136.67,215.82 -22.38,4 206.35,-112.04 113.9,-380.85 -14.84,193.24 -240.26,153.77 -242.19,166.77 -1.66,11.22 21.48,-32.28 12.07,-69.11 1.32,38.01 -6.91,59.05 -20.45,67.37 z m -12.23,9.18 c -17.59,1.46 -35.19,2.97 -50.94,-4.77 -42.18,77.75 -63.02,161.26 -64,248 51.89,10.93 124.41,20.23 174.57,-2.93 4.42,-18.99 -15.37,-102.59 -30.37,-157.56 -98.06,56.49 -84.92,-39.94 -29.26,-82.74 z"
         style="opacity:0.25;fill:#000000;fill-rule:evenodd"
         sodipodi:nodetypes="ccccscccccccccccccccccccccscccccccc"
         id="path1953" />
      <path
         inkscape:connector-curvature="0"
         d="M 668.92,143.02 C 343.48,-175.9 -121.29,160.27 49.5,558.8 -149.44,158.23 360.24,-197.43 668.92,143.02 Z M 431.34,72.312 c -9.68,82.498 3.06,168.44 -31.74,250.94 -12.09,-3.47 -25.17,-3.02 -38.18,-2.83 5.81,-1.28 14.92,-4.38 36.15,-0.18 30.87,-73.77 21.54,-169.07 33.77,-247.93 z m -99,183.85 20.51,74.25 c -25.88,27.79 -46.44,61.97 -7.78,96.87 -34.9,81.83 -77.95,159.33 -137.18,214.96 51.37,-66.47 107.81,-131.18 131.52,-214.25 -21.89,-22.63 -32.63,-59.09 4.24,-100.41 0.93,-34.35 -8.85,-47.21 -11.31,-71.42 z m -28.28,428.51 c 37.37,11.72 72.78,24.54 172.53,1.41 -5.12,-89.51 -29.32,-171.16 -66.47,-247.49 28.98,78.26 60.06,162.87 59.4,241.13 -58.6,17.93 -103.18,20.84 -165.46,4.95 z m 245.36,-42.43 c 189.09,-88.66 149.95,-343.89 113.14,-397.39 70.55,136.22 11.08,333.2 -113.14,397.39 z m -169.7,-269.41 c -14.71,13.63 -25.09,27.61 -37.15,13.84 -11.88,-30.27 16.38,-55.41 43.51,-45.66 -9.02,13.24 -6.89,32.68 -6.36,31.82 z"
         style="opacity:0.75;fill:#ffffff;fill-rule:evenodd"
         sodipodi:nodetypes="ccccccccccccccccccccccccccc"
         id="path2865" />
      <g
         transform="translate(15,-15)"
         id="g7317">
        <circle
           r="14"
           cy="151.86218"
           cx="127"
           transform="translate(-3.5,-2)"
           style="opacity:0.75;fill:#b1b1b1;fill-rule:evenodd"
           id="path4656" />
        <path
           inkscape:connector-curvature="0"
           d="m 134.69,141.49 c 8.35,2.5 5.9,34.21 -20.31,19.12 9.39,3.97 24.16,-1.67 20.31,-19.12 z"
           style="opacity:0.25;fill:#000000;fill-rule:evenodd"
           sodipodi:nodetypes="ccc"
           id="path4658" />
        <path
           inkscape:connector-curvature="0"
           d="m 111,156.36 c 0.24,-2.82 1,-16.82 18.94,-19.12 -21.95,-6.26 -22.29,16.48 -18.94,19.12 z"
           style="opacity:0.75;fill:#ffffff;fill-rule:evenodd"
           sodipodi:nodetypes="ccc"
           id="path4660" />
      </g>
      <g
         transform="translate(101.3,-74.401)"
         id="g7338">
        <circle
           r="14"
           cy="151.86218"
           cx="127"
           transform="translate(-3.5,-2)"
           style="opacity:0.75;fill:#b1b1b1;fill-rule:evenodd"
           id="path7340" />
        <path
           inkscape:connector-curvature="0"
           d="m 134.69,141.49 c 8.35,2.5 5.9,34.21 -20.31,19.12 9.39,3.97 24.16,-1.67 20.31,-19.12 z"
           style="opacity:0.25;fill:#000000;fill-rule:evenodd"
           sodipodi:nodetypes="ccc"
           id="path7342" />
        <path
           inkscape:connector-curvature="0"
           d="m 111,156.36 c 0.24,-2.82 1,-16.82 18.94,-19.12 -21.95,-6.26 -22.29,16.48 -18.94,19.12 z"
           style="opacity:0.75;fill:#ffffff;fill-rule:evenodd"
           sodipodi:nodetypes="ccc"
           id="path7344" />
      </g>
      <g
         transform="translate(204.8,-106.9)"
         id="g7362">
        <circle
           r="14"
           cy="151.86218"
           cx="127"
           transform="translate(-3.5,-2)"
           style="opacity:0.75;fill:#b1b1b1;fill-rule:evenodd"
           id="path7364" />
        <path
           inkscape:connector-curvature="0"
           d="m 134.69,141.49 c 8.35,2.5 5.9,34.21 -20.31,19.12 9.39,3.97 24.16,-1.67 20.31,-19.12 z"
           style="opacity:0.25;fill:#000000;fill-rule:evenodd"
           sodipodi:nodetypes="ccc"
           id="path7366" />
        <path
           inkscape:connector-curvature="0"
           d="m 111,156.36 c 0.24,-2.82 1,-16.82 18.94,-19.12 -21.95,-6.26 -22.29,16.48 -18.94,19.12 z"
           style="opacity:0.75;fill:#ffffff;fill-rule:evenodd"
           sodipodi:nodetypes="ccc"
           id="path7368" />
      </g>
      <g
         transform="translate(312.3,-104.4)"
         id="g7378">
        <circle
           r="14"
           cy="151.86218"
           cx="127"
           transform="translate(-3.5,-2)"
           style="opacity:0.75;fill:#b1b1b1;fill-rule:evenodd"
           id="path7380" />
        <path
           inkscape:connector-curvature="0"
           d="m 134.69,141.49 c 8.35,2.5 5.9,34.21 -20.31,19.12 9.39,3.97 24.16,-1.67 20.31,-19.12 z"
           style="opacity:0.25;fill:#000000;fill-rule:evenodd"
           sodipodi:nodetypes="ccc"
           id="path7382" />
        <path
           inkscape:connector-curvature="0"
           d="m 111,156.36 c 0.24,-2.82 1,-16.82 18.94,-19.12 -21.95,-6.26 -22.29,16.48 -18.94,19.12 z"
           style="opacity:0.75;fill:#ffffff;fill-rule:evenodd"
           sodipodi:nodetypes="ccc"
           id="path7384" />
      </g>
      <g
         transform="translate(409.8,-73.901)"
         id="g7394">
        <circle
           r="14"
           cy="151.86218"
           cx="127"
           transform="translate(-3.5,-2)"
           style="opacity:0.75;fill:#b1b1b1;fill-rule:evenodd"
           id="path7396" />
        <path
           inkscape:connector-curvature="0"
           d="m 134.69,141.49 c 8.35,2.5 5.9,34.21 -20.31,19.12 9.39,3.97 24.16,-1.67 20.31,-19.12 z"
           style="opacity:0.25;fill:#000000;fill-rule:evenodd"
           sodipodi:nodetypes="ccc"
           id="path7398" />
        <path
           inkscape:connector-curvature="0"
           d="m 111,156.36 c 0.24,-2.82 1,-16.82 18.94,-19.12 -21.95,-6.26 -22.29,16.48 -18.94,19.12 z"
           style="opacity:0.75;fill:#ffffff;fill-rule:evenodd"
           sodipodi:nodetypes="ccc"
           id="path7400" />
      </g>
      <g
         transform="translate(549.8,55.099)"
         id="g7418">
        <circle
           r="14"
           cy="151.86218"
           cx="127"
           transform="translate(-3.5,-2)"
           style="opacity:0.75;fill:#b1b1b1;fill-rule:evenodd"
           id="path7420" />
        <path
           inkscape:connector-curvature="0"
           d="m 134.69,141.49 c 8.35,2.5 5.9,34.21 -20.31,19.12 9.39,3.97 24.16,-1.67 20.31,-19.12 z"
           style="opacity:0.25;fill:#000000;fill-rule:evenodd"
           sodipodi:nodetypes="ccc"
           id="path7422" />
        <path
           inkscape:connector-curvature="0"
           d="m 111,156.36 c 0.24,-2.82 1,-16.82 18.94,-19.12 -21.95,-6.26 -22.29,16.48 -18.94,19.12 z"
           style="opacity:0.75;fill:#ffffff;fill-rule:evenodd"
           sodipodi:nodetypes="ccc"
           id="path7424" />
      </g>
      <g
         transform="translate(587.8,160.1)"
         id="g7434">
        <circle
           r="14"
           cy="151.86218"
           cx="127"
           transform="translate(-3.5,-2)"
           style="opacity:0.75;fill:#b1b1b1;fill-rule:evenodd"
           id="path7436" />
        <path
           inkscape:connector-curvature="0"
           d="m 134.69,141.49 c 8.35,2.5 5.9,34.21 -20.31,19.12 9.39,3.97 24.16,-1.67 20.31,-19.12 z"
           style="opacity:0.25;fill:#000000;fill-rule:evenodd"
           sodipodi:nodetypes="ccc"
           id="path7438" />
        <path
           inkscape:connector-curvature="0"
           d="m 111,156.36 c 0.24,-2.82 1,-16.82 18.94,-19.12 -21.95,-6.26 -22.29,16.48 -18.94,19.12 z"
           style="opacity:0.75;fill:#ffffff;fill-rule:evenodd"
           sodipodi:nodetypes="ccc"
           id="path7440" />
      </g>
      <g
         transform="translate(590.8,259.1)"
         id="g7450">
        <circle
           r="14"
           cy="151.86218"
           cx="127"
           transform="translate(-3.5,-2)"
           style="opacity:0.75;fill:#b1b1b1;fill-rule:evenodd"
           id="path7452" />
        <path
           inkscape:connector-curvature="0"
           d="m 134.69,141.49 c 8.35,2.5 5.9,34.21 -20.31,19.12 9.39,3.97 24.16,-1.67 20.31,-19.12 z"
           style="opacity:0.25;fill:#000000;fill-rule:evenodd"
           sodipodi:nodetypes="ccc"
           id="path7454" />
        <path
           inkscape:connector-curvature="0"
           d="m 111,156.36 c 0.24,-2.82 1,-16.82 18.94,-19.12 -21.95,-6.26 -22.29,16.48 -18.94,19.12 z"
           style="opacity:0.75;fill:#ffffff;fill-rule:evenodd"
           sodipodi:nodetypes="ccc"
           id="path7456" />
      </g>
      <g
         transform="translate(570.3,359.1)"
         id="g7466">
        <circle
           r="14"
           cy="151.86218"
           cx="127"
           transform="translate(-3.5,-2)"
           style="opacity:0.75;fill:#b1b1b1;fill-rule:evenodd"
           id="path7468" />
        <path
           inkscape:connector-curvature="0"
           d="m 134.69,141.49 c 8.35,2.5 5.9,34.21 -20.31,19.12 9.39,3.97 24.16,-1.67 20.31,-19.12 z"
           style="opacity:0.25;fill:#000000;fill-rule:evenodd"
           sodipodi:nodetypes="ccc"
           id="path7470" />
        <path
           inkscape:connector-curvature="0"
           d="m 111,156.36 c 0.24,-2.82 1,-16.82 18.94,-19.12 -21.95,-6.26 -22.29,16.48 -18.94,19.12 z"
           style="opacity:0.75;fill:#ffffff;fill-rule:evenodd"
           sodipodi:nodetypes="ccc"
           id="path7472" />
      </g>
      <g
         transform="translate(521.8,442.1)"
         id="g7482">
        <circle
           r="14"
           cy="151.86218"
           cx="127"
           transform="translate(-3.5,-2)"
           style="opacity:0.75;fill:#b1b1b1;fill-rule:evenodd"
           id="path7484" />
        <path
           inkscape:connector-curvature="0"
           d="m 134.69,141.49 c 8.35,2.5 5.9,34.21 -20.31,19.12 9.39,3.97 24.16,-1.67 20.31,-19.12 z"
           style="opacity:0.25;fill:#000000;fill-rule:evenodd"
           sodipodi:nodetypes="ccc"
           id="path7486" />
        <path
           inkscape:connector-curvature="0"
           d="m 111,156.36 c 0.24,-2.82 1,-16.82 18.94,-19.12 -21.95,-6.26 -22.29,16.48 -18.94,19.12 z"
           style="opacity:0.75;fill:#ffffff;fill-rule:evenodd"
           sodipodi:nodetypes="ccc"
           id="path7488" />
      </g>
      <g
         transform="translate(450.8,511.1)"
         id="g7498">
        <circle
           r="14"
           cy="151.86218"
           cx="127"
           transform="translate(-3.5,-2)"
           style="opacity:0.75;fill:#b1b1b1;fill-rule:evenodd"
           id="path7500" />
        <path
           inkscape:connector-curvature="0"
           d="m 134.69,141.49 c 8.35,2.5 5.9,34.21 -20.31,19.12 9.39,3.97 24.16,-1.67 20.31,-19.12 z"
           style="opacity:0.25;fill:#000000;fill-rule:evenodd"
           sodipodi:nodetypes="ccc"
           id="path7502" />
        <path
           inkscape:connector-curvature="0"
           d="m 111,156.36 c 0.24,-2.82 1,-16.82 18.94,-19.12 -21.95,-6.26 -22.29,16.48 -18.94,19.12 z"
           style="opacity:0.75;fill:#ffffff;fill-rule:evenodd"
           sodipodi:nodetypes="ccc"
           id="path7504" />
      </g>
      <g
         transform="translate(345.8,562.1)"
         id="g7514">
        <circle
           r="14"
           cy="151.86218"
           cx="127"
           transform="translate(-3.5,-2)"
           style="opacity:0.75;fill:#b1b1b1;fill-rule:evenodd"
           id="path7516" />
        <path
           inkscape:connector-curvature="0"
           d="m 134.69,141.49 c 8.35,2.5 5.9,34.21 -20.31,19.12 9.39,3.97 24.16,-1.67 20.31,-19.12 z"
           style="opacity:0.25;fill:#000000;fill-rule:evenodd"
           sodipodi:nodetypes="ccc"
           id="path7518" />
        <path
           inkscape:connector-curvature="0"
           d="m 111,156.36 c 0.24,-2.82 1,-16.82 18.94,-19.12 -21.95,-6.26 -22.29,16.48 -18.94,19.12 z"
           style="opacity:0.75;fill:#ffffff;fill-rule:evenodd"
           sodipodi:nodetypes="ccc"
           id="path7520" />
      </g>
      <g
         transform="translate(230.3,576.1)"
         id="g7530">
        <circle
           r="14"
           cy="151.86218"
           cx="127"
           transform="translate(-3.5,-2)"
           style="opacity:0.75;fill:#b1b1b1;fill-rule:evenodd"
           id="path7532" />
        <path
           inkscape:connector-curvature="0"
           d="m 134.69,141.49 c 8.35,2.5 5.9,34.21 -20.31,19.12 9.39,3.97 24.16,-1.67 20.31,-19.12 z"
           style="opacity:0.25;fill:#000000;fill-rule:evenodd"
           sodipodi:nodetypes="ccc"
           id="path7534" />
        <path
           inkscape:connector-curvature="0"
           d="m 111,156.36 c 0.24,-2.82 1,-16.82 18.94,-19.12 -21.95,-6.26 -22.29,16.48 -18.94,19.12 z"
           style="opacity:0.75;fill:#ffffff;fill-rule:evenodd"
           sodipodi:nodetypes="ccc"
           id="path7536" />
      </g>
      <g
         transform="translate(120.8,551.6)"
         id="g7546">
        <circle
           r="14"
           cy="151.86218"
           cx="127"
           transform="translate(-3.5,-2)"
           style="opacity:0.75;fill:#b1b1b1;fill-rule:evenodd"
           id="path7548" />
        <path
           inkscape:connector-curvature="0"
           d="m 134.69,141.49 c 8.35,2.5 5.9,34.21 -20.31,19.12 9.39,3.97 24.16,-1.67 20.31,-19.12 z"
           style="opacity:0.25;fill:#000000;fill-rule:evenodd"
           sodipodi:nodetypes="ccc"
           id="path7550" />
        <path
           inkscape:connector-curvature="0"
           d="m 111,156.36 c 0.24,-2.82 1,-16.82 18.94,-19.12 -21.95,-6.26 -22.29,16.48 -18.94,19.12 z"
           style="opacity:0.75;fill:#ffffff;fill-rule:evenodd"
           sodipodi:nodetypes="ccc"
           id="path7552" />
      </g>
      <g
         transform="translate(-24.204,432.1)"
         id="g7570">
        <circle
           r="14"
           cy="151.86218"
           cx="127"
           transform="translate(-3.5,-2)"
           style="opacity:0.75;fill:#b1b1b1;fill-rule:evenodd"
           id="path7572" />
        <path
           inkscape:connector-curvature="0"
           d="m 134.69,141.49 c 8.35,2.5 5.9,34.21 -20.31,19.12 9.39,3.97 24.16,-1.67 20.31,-19.12 z"
           style="opacity:0.25;fill:#000000;fill-rule:evenodd"
           sodipodi:nodetypes="ccc"
           id="path7574" />
        <path
           inkscape:connector-curvature="0"
           d="m 111,156.36 c 0.24,-2.82 1,-16.82 18.94,-19.12 -21.95,-6.26 -22.29,16.48 -18.94,19.12 z"
           style="opacity:0.75;fill:#ffffff;fill-rule:evenodd"
           sodipodi:nodetypes="ccc"
           id="path7576" />
      </g>
      <g
         transform="translate(-69.704,348.1)"
         id="g7586">
        <circle
           r="14"
           cy="151.86218"
           cx="127"
           transform="translate(-3.5,-2)"
           style="opacity:0.75;fill:#b1b1b1;fill-rule:evenodd"
           id="path7588" />
        <path
           inkscape:connector-curvature="0"
           d="m 134.69,141.49 c 8.35,2.5 5.9,34.21 -20.31,19.12 9.39,3.97 24.16,-1.67 20.31,-19.12 z"
           style="opacity:0.25;fill:#000000;fill-rule:evenodd"
           sodipodi:nodetypes="ccc"
           id="path7590" />
        <path
           inkscape:connector-curvature="0"
           d="m 111,156.36 c 0.24,-2.82 1,-16.82 18.94,-19.12 -21.95,-6.26 -22.29,16.48 -18.94,19.12 z"
           style="opacity:0.75;fill:#ffffff;fill-rule:evenodd"
           sodipodi:nodetypes="ccc"
           id="path7592" />
      </g>
      <g
         transform="translate(-87.704,249.6)"
         id="g7602">
        <circle
           r="14"
           cy="151.86218"
           cx="127"
           transform="translate(-3.5,-2)"
           style="opacity:0.75;fill:#b1b1b1;fill-rule:evenodd"
           id="path7604" />
        <path
           inkscape:connector-curvature="0"
           d="m 134.69,141.49 c 8.35,2.5 5.9,34.21 -20.31,19.12 9.39,3.97 24.16,-1.67 20.31,-19.12 z"
           style="opacity:0.25;fill:#000000;fill-rule:evenodd"
           sodipodi:nodetypes="ccc"
           id="path7606" />
        <path
           inkscape:connector-curvature="0"
           d="m 111,156.36 c 0.24,-2.82 1,-16.82 18.94,-19.12 -21.95,-6.26 -22.29,16.48 -18.94,19.12 z"
           style="opacity:0.75;fill:#ffffff;fill-rule:evenodd"
           sodipodi:nodetypes="ccc"
           id="path7608" />
      </g>
      <g
         transform="translate(-79.204,158.6)"
         id="g7618">
        <circle
           r="14"
           cy="151.86218"
           cx="127"
           transform="translate(-3.5,-2)"
           style="opacity:0.75;fill:#b1b1b1;fill-rule:evenodd"
           id="path7620" />
        <path
           inkscape:connector-curvature="0"
           d="m 134.69,141.49 c 8.35,2.5 5.9,34.21 -20.31,19.12 9.39,3.97 24.16,-1.67 20.31,-19.12 z"
           style="opacity:0.25;fill:#000000;fill-rule:evenodd"
           sodipodi:nodetypes="ccc"
           id="path7622" />
        <path
           inkscape:connector-curvature="0"
           d="m 111,156.36 c 0.24,-2.82 1,-16.82 18.94,-19.12 -21.95,-6.26 -22.29,16.48 -18.94,19.12 z"
           style="opacity:0.75;fill:#ffffff;fill-rule:evenodd"
           sodipodi:nodetypes="ccc"
           id="path7624" />
      </g>
      <g
         transform="translate(-47.704,64.099)"
         id="g7642">
        <circle
           r="14"
           cy="151.86218"
           cx="127"
           transform="translate(-3.5,-2)"
           style="opacity:0.75;fill:#b1b1b1;fill-rule:evenodd"
           id="path7644" />
        <path
           inkscape:connector-curvature="0"
           d="m 134.69,141.49 c 8.35,2.5 5.9,34.21 -20.31,19.12 9.39,3.97 24.16,-1.67 20.31,-19.12 z"
           style="opacity:0.25;fill:#000000;fill-rule:evenodd"
           sodipodi:nodetypes="ccc"
           id="path7646" />
        <path
           inkscape:connector-curvature="0"
           d="m 111,156.36 c 0.24,-2.82 1,-16.82 18.94,-19.12 -21.95,-6.26 -22.29,16.48 -18.94,19.12 z"
           style="opacity:0.75;fill:#ffffff;fill-rule:evenodd"
           sodipodi:nodetypes="ccc"
           id="path7648" />
      </g>
      <g
         transform="translate(489.8,-19.901)"
         id="g7658">
        <circle
           r="14"
           cy="151.86218"
           cx="127"
           transform="translate(-3.5,-2)"
           style="opacity:0.75;fill:#b1b1b1;fill-rule:evenodd"
           id="path7660" />
        <path
           inkscape:connector-curvature="0"
           d="m 134.69,141.49 c 8.35,2.5 5.9,34.21 -20.31,19.12 9.39,3.97 24.16,-1.67 20.31,-19.12 z"
           style="opacity:0.25;fill:#000000;fill-rule:evenodd"
           sodipodi:nodetypes="ccc"
           id="path7662" />
        <path
           inkscape:connector-curvature="0"
           d="m 111,156.36 c 0.24,-2.82 1,-16.82 18.94,-19.12 -21.95,-6.26 -22.29,16.48 -18.94,19.12 z"
           style="opacity:0.75;fill:#ffffff;fill-rule:evenodd"
           sodipodi:nodetypes="ccc"
           id="path7664" />
      </g>
      <g
         transform="translate(43.796,503.1)"
         id="g7666">
        <circle
           r="14"
           cy="151.86218"
           cx="127"
           transform="translate(-3.5,-2)"
           style="opacity:0.75;fill:#b1b1b1;fill-rule:evenodd"
           id="path7668" />
        <path
           inkscape:connector-curvature="0"
           d="m 134.69,141.49 c 8.35,2.5 5.9,34.21 -20.31,19.12 9.39,3.97 24.16,-1.67 20.31,-19.12 z"
           style="opacity:0.25;fill:#000000;fill-rule:evenodd"
           sodipodi:nodetypes="ccc"
           id="path7670" />
        <path
           inkscape:connector-curvature="0"
           d="m 111,156.36 c 0.24,-2.82 1,-16.82 18.94,-19.12 -21.95,-6.26 -22.29,16.48 -18.94,19.12 z"
           style="opacity:0.75;fill:#ffffff;fill-rule:evenodd"
           sodipodi:nodetypes="ccc"
           id="path7672" />
      </g>
    </g>
  </g>
  <metadata
     id="metadata94">
    <rdf:RDF>
      <cc:Work>
        <dc:format>image/svg+xml</dc:format>
        <dc:type
           rdf:resource="http://purl.org/dc/dcmitype/StillImage" />
        <cc:license
           rdf:resource="http://creativecommons.org/publicdomain/zero/1.0/" />
        <dc:publisher>
          <cc:Agent
             rdf:about="http://openclipart.org/">
            <dc:title>Openclipart</dc:title>
          </cc:Agent>
        </dc:publisher>
        <dc:title></dc:title>
      </cc:Work>
      <cc:License
         rdf:about="http://creativecommons.org/publicdomain/zero/1.0/">
        <cc:permits
           rdf:resource="http://creativecommons.org/ns#Reproduction" />
        <cc:permits
           rdf:resource="http://creativecommons.org/ns#Distribution" />
        <cc:permits
           rdf:resource="http://creativecommons.org/ns#DerivativeWorks" />
      </cc:License>
    </rdf:RDF>
  </metadata>
</svg>
