<?xml version="1.0" encoding="UTF-8" standalone="no"?>
<!-- Generator: Adobe Illustrator 15.1.0, SVG Export Plug-In . SVG Version: 6.00 Build 0)  -->

<svg
   xmlns:dc="http://purl.org/dc/elements/1.1/"
   xmlns:cc="http://creativecommons.org/ns#"
   xmlns:rdf="http://www.w3.org/1999/02/22-rdf-syntax-ns#"
   xmlns:svg="http://www.w3.org/2000/svg"
   xmlns="http://www.w3.org/2000/svg"
   xmlns:xlink="http://www.w3.org/1999/xlink"
   xmlns:sodipodi="http://sodipodi.sourceforge.net/DTD/sodipodi-0.dtd"
   xmlns:inkscape="http://www.inkscape.org/namespaces/inkscape"
   version="1.1"
   id="flash0.ai"
   x="0px"
   y="0px"
   width="256"
   height="256"
   viewBox="0 0 255.99999 256.00001"
   xml:space="preserve"
   sodipodi:docname="mild_sauce.svg"
   inkscape:version="0.92.4 (5da689c313, 2019-01-14)"
   inkscape:export-filename="C:\Users\antum\Development\game-resources\icon\CC0\food\individual\Glitch\32x32\condiment\mild_sauce.png"
   inkscape:export-xdpi="10.5"
   inkscape:export-ydpi="10.5"><title
   id="title937">Mild Sauce</title><metadata
   id="metadata130"><rdf:RDF><cc:Work
       rdf:about=""><dc:format>image/svg+xml</dc:format><dc:type
         rdf:resource="http://purl.org/dc/dcmitype/StillImage" /><dc:title>Mild Sauce</dc:title><cc:license
         rdf:resource="http://creativecommons.org/publicdomain/zero/1.0/" /><dc:creator><cc:Agent><dc:title>Glitch</dc:title></cc:Agent></dc:creator><dc:source>https://opengameart.org/node/20149</dc:source></cc:Work><cc:License
       rdf:about="http://creativecommons.org/publicdomain/zero/1.0/"><cc:permits
         rdf:resource="http://creativecommons.org/ns#Reproduction" /><cc:permits
         rdf:resource="http://creativecommons.org/ns#Distribution" /><cc:permits
         rdf:resource="http://creativecommons.org/ns#DerivativeWorks" /></cc:License></rdf:RDF></metadata><defs
   id="defs128"><linearGradient
     inkscape:collect="always"
     xlink:href="#SVGID_1_"
     id="linearGradient976"
     gradientUnits="userSpaceOnUse"
     x1="4.2182999"
     y1="-27.480499"
     x2="2.4683001"
     y2="-2.3805001" /><linearGradient
     inkscape:collect="always"
     xlink:href="#SVGID_2_"
     id="linearGradient978"
     gradientUnits="userSpaceOnUse"
     gradientTransform="matrix(0.0696,-0.9976,0.9976,0.0696,15753.899,548.5234)"
     x1="-545.93848"
     y1="-15752.09"
     x2="-520.77753"
     y2="-15752.09" /></defs><sodipodi:namedview
   pagecolor="#ffffff"
   bordercolor="#666666"
   borderopacity="1"
   objecttolerance="10"
   gridtolerance="10"
   guidetolerance="10"
   inkscape:pageopacity="0"
   inkscape:pageshadow="2"
   inkscape:window-width="1920"
   inkscape:window-height="1025"
   id="namedview126"
   showgrid="false"
   inkscape:zoom="0.71342203"
   inkscape:cx="-19.483858"
   inkscape:cy="31.107633"
   inkscape:window-x="-8"
   inkscape:window-y="-8"
   inkscape:window-maximized="1"
   inkscape:current-layer="flash0.ai"
   fit-margin-top="0"
   fit-margin-left="0"
   fit-margin-right="0"
   fit-margin-bottom="0" />
<symbol
   id="flash0.ai_x5F_8_x2F_Layer_47_copy_x2F__x3C_Path_x3E__x5F_2"
   viewBox="-0.022 -1.179 9.522 1.179"
   transform="translate(0,216.03772)">
	<g
   id="Layer_1_5_">
		<path
   style="clip-rule:evenodd;fill:#ffffff;fill-rule:evenodd"
   d="m 0.4,-0.05 c 0.667,-0.2 1.717,-0.4 3.15,-0.6 C 5.317,-0.883 7.3,-1 9.5,-1 9.433,-1.167 8.35,-1.217 6.25,-1.15 c -1.4,0.066 -2.733,0.217 -4,0.45 -1.033,0.167 -1.7,0.317 -2,0.45 -0.233,0.067 -0.317,0.133 -0.25,0.2 0.1,0.067 0.233,0.067 0.4,0 z"
   id="path2"
   inkscape:connector-curvature="0" />
	</g>
</symbol>
<symbol
   id="flash0.ai_x5F_8_x2F_Layer_47_copy_x2F__x3C_Path_x3E__x5F_7"
   viewBox="0 -3.161 16.45 3.161"
   transform="translate(0,216.03772)">
	<g
   id="Layer_1_4_">
		<path
   style="clip-rule:evenodd;fill:#84683d;fill-rule:evenodd"
   d="m 15.55,0 c 0.267,-0.5 0.567,-0.983 0.9,-1.45 -1.367,-1.233 -3.934,-1.8 -7.7,-1.7 C 4.55,-3.017 1.633,-2.267 0,-0.9 L 0.5,0 8.05,-0.4 Z"
   id="path6"
   inkscape:connector-curvature="0" />
	</g>
</symbol>
<symbol
   id="flash0.ai_x5F_8_x2F_Layer_47_copy_x2F__x3C_Path_x3E__x5F_8"
   viewBox="0 -31.45 5.25 31.45"
   transform="translate(0,216.03772)">
	<g
   id="Layer_1_3_">
		<linearGradient
   id="SVGID_1_"
   gradientUnits="userSpaceOnUse"
   x1="4.2182999"
   y1="-27.480499"
   x2="2.4683001"
   y2="-2.3805001">
			<stop
   offset="0"
   style="stop-color:#FFFFFF"
   id="stop10" />
			<stop
   offset="1"
   style="stop-color:#000000"
   id="stop12" />
		</linearGradient>
		<path
   style="clip-rule:evenodd;fill:url(#linearGradient976);fill-rule:evenodd"
   d="M 1.95,-0.5 C 2.117,-1.1 2.567,-1.983 3.3,-3.15 3.5,-3.45 3.883,-3.967 4.45,-4.7 4.95,-5.4 5.217,-6 5.25,-6.5 L 4.9,-27.5 4.5,-28.35 C 4.167,-28.983 3.817,-29.533 3.45,-30 2.817,-30.767 2.333,-31.25 2,-31.45 c 0.333,1.267 0.533,3.317 0.6,6.15 0.133,10.467 0.083,16.483 -0.15,18.05 -0.067,0.5 -0.333,1.283 -0.8,2.35 -0.6,1.367 -0.967,2.267 -1.1,2.7 C 0.183,-1 0,-0.267 0,0 Z"
   id="path15"
   inkscape:connector-curvature="0" />
	</g>
</symbol>
<symbol
   id="flash0.ai_x5F_8_x2F_Layer_47_copy_x2F__x3C_Path_x3E__x5F_9"
   viewBox="0 -31.45 5.25 31.45"
   transform="translate(0,216.03772)">
	<g
   id="Layer_1_2_">
		
			<linearGradient
   id="SVGID_2_"
   gradientUnits="userSpaceOnUse"
   x1="-545.93848"
   y1="-15752.09"
   x2="-520.77753"
   y2="-15752.09"
   gradientTransform="matrix(0.0696,-0.9976,0.9976,0.0696,15753.899,548.5234)">
			<stop
   offset="0"
   style="stop-color:#FFFFFF"
   id="stop19" />
			<stop
   offset="1"
   style="stop-color:#000000"
   id="stop21" />
		</linearGradient>
		<path
   style="clip-rule:evenodd;fill:url(#linearGradient978);fill-rule:evenodd"
   d="M 3.3,-0.5 5.25,0 c 0,-0.267 -0.2,-1 -0.6,-2.2 C 4.517,-2.7 4.167,-3.6 3.6,-4.9 3.133,-5.967 2.867,-6.75 2.8,-7.25 2.567,-8.817 2.517,-14.833 2.65,-25.3 c 0.033,-2.833 0.233,-4.883 0.6,-6.15 -0.367,0.2 -0.85,0.683 -1.45,1.45 -0.367,0.467 -0.733,1.017 -1.1,1.65 L 0.3,-27.5 0,-6.5 c 0.033,0.5 0.3,1.1 0.8,1.8 0.6,0.733 0.983,1.25 1.15,1.55 0.733,1.167 1.183,2.05 1.35,2.65 z"
   id="path24"
   inkscape:connector-curvature="0" />
	</g>
</symbol>
<linearGradient
   id="SVGID_3_"
   gradientUnits="userSpaceOnUse"
   x1="0"
   y1="22.9814"
   x2="24.174999"
   y2="22.9814">
	<stop
   offset="0"
   style="stop-color:#F7D38A"
   id="stop28" />
	<stop
   offset="1"
   style="stop-color:#7D6138"
   id="stop30" />
</linearGradient>

<linearGradient
   id="SVGID_4_"
   gradientUnits="userSpaceOnUse"
   x1="0.64990002"
   y1="22.8564"
   x2="23.3496"
   y2="22.8564">
	<stop
   offset="0"
   style="stop-color:#DEB461"
   id="stop35" />
	<stop
   offset="1"
   style="stop-color:#917141"
   id="stop37" />
</linearGradient>

<linearGradient
   id="SVGID_5_"
   gradientUnits="userSpaceOnUse"
   x1="1.2759"
   y1="25.1367"
   x2="18.2036"
   y2="25.1367">
	<stop
   offset="0.0353"
   style="stop-color:#CF6417"
   id="stop42" />
	<stop
   offset="1"
   style="stop-color:#9E2409"
   id="stop44" />
</linearGradient>

<linearGradient
   id="SVGID_6_"
   gradientUnits="userSpaceOnUse"
   x1="2.6020999"
   y1="25.283199"
   x2="16.577101"
   y2="25.283199">
	<stop
   offset="0.0353"
   style="stop-color:#FFB13B"
   id="stop49" />
	<stop
   offset="1"
   style="stop-color:#BD6222"
   id="stop51" />
</linearGradient>





<linearGradient
   id="SVGID_11_"
   gradientUnits="userSpaceOnUse"
   x1="3.2997999"
   y1="6.0497999"
   x2="20.774799"
   y2="6.0497999">
	<stop
   offset="0"
   style="stop-color:#F7D38A"
   id="stop92" />
	<stop
   offset="1"
   style="stop-color:#7D6138"
   id="stop94" />
</linearGradient>

<linearGradient
   id="SVGID_12_"
   gradientUnits="userSpaceOnUse"
   x1="3"
   y1="5.5497999"
   x2="21.200199"
   y2="5.5497999">
	<stop
   offset="0"
   style="stop-color:#B8550D"
   id="stop99" />
	<stop
   offset="0.2588"
   style="stop-color:#E07838"
   id="stop101" />
	<stop
   offset="1"
   style="stop-color:#8A1F08"
   id="stop103" />
</linearGradient>

<linearGradient
   id="SVGID_13_"
   gradientUnits="userSpaceOnUse"
   x1="3.25"
   y1="4.3252001"
   x2="20.924999"
   y2="4.3252001">
	<stop
   offset="0.0235"
   style="stop-color:#D44626"
   id="stop108" />
	<stop
   offset="0.2588"
   style="stop-color:#E07838"
   id="stop110" />
	<stop
   offset="1"
   style="stop-color:#9E2409"
   id="stop112" />
</linearGradient>




<g
   id="g970"
   transform="matrix(6.4060409,0,0,6.4060409,50.647056,-2.1646088e-7)"><path
     id="path33"
     d="m 22.3,9.7 c 0.667,0.767 1.134,1.483 1.4,2.15 0.3,0.8 0.45,1.883 0.45,3.25 0,1.267 -0.117,4.483 -0.351,9.65 -0.2,4.4 -0.35,7.25 -0.45,8.55 -0.1,1.101 -0.566,2.15 -1.399,3.15 -1.1,1.366 -2.717,2.333 -4.85,2.899 -1.6,0.467 -3.267,0.667 -5,0.601 C 10.333,40.016 8.65,39.816 7.05,39.349 4.917,38.783 3.3,37.816 2.2,36.45 1.367,35.45 0.9,34.4 0.8,33.3 0.733,32 0.583,29.15 0.35,24.75 0.117,19.583 0,16.367 0,15.1 0,13.733 0.15,12.65 0.45,11.85 0.717,11.183 1.183,10.467 1.85,9.7 3.25,8.2 4.15,6.967 4.55,6 L 12.1,6.4 19.6,6 c 0.4,0.967 1.3,2.2 2.7,3.7 z"
     style="clip-rule:evenodd;fill:url(#SVGID_3_);fill-rule:evenodd"
     inkscape:connector-curvature="0" /><path
     id="path40"
     d="m 21.6,9.95 c 0.634,0.7 1.067,1.383 1.301,2.05 0.3,0.8 0.449,1.85 0.449,3.15 0,1.333 -0.116,4.45 -0.35,9.35 -0.2,4.733 -0.35,7.517 -0.45,8.35 -0.066,1.034 -0.483,2.051 -1.25,3.051 -1.066,1.333 -2.6,2.283 -4.6,2.85 -1.633,0.467 -3.2,0.667 -4.7,0.6 -1.5,0.067 -3.083,-0.133 -4.75,-0.6 C 5.25,38.185 3.733,37.234 2.7,35.901 1.933,34.934 1.5,33.918 1.4,32.85 1.333,31.717 1.2,28.934 1,24.5 0.767,19.5 0.65,16.383 0.65,15.15 0.65,13.817 0.8,12.767 1.1,12 1.333,11.333 1.767,10.65 2.4,9.95 3.5,8.683 4.35,7.483 4.95,6.35 L 12,6.7 19.05,6.35 c 0.467,1 1.317,2.2 2.55,3.6 z"
     style="clip-rule:evenodd;fill:url(#SVGID_4_);fill-rule:evenodd"
     inkscape:connector-curvature="0" /><path
     id="path47"
     d="m 1.35,23.7 c 0.167,-1.4 0.9,-2.601 2.2,-3.6 1.3,-0.967 2.9,-1.533 4.8,-1.7 2.5,-0.2 4.717,0.283 6.65,1.45 2.1,1.266 3.167,3.034 3.2,5.3 0.066,2.466 -0.833,4.3 -2.7,5.5 -1.933,1.267 -4.583,1.583 -7.95,0.949 C 5.117,31.133 3.367,30.049 2.3,28.349 1.433,26.95 1.117,25.4 1.35,23.7 Z"
     style="clip-rule:evenodd;fill:url(#SVGID_5_);fill-rule:evenodd"
     inkscape:connector-curvature="0" /><path
     id="path54"
     d="m 2.65,24.1 c 0.167,-1.199 0.783,-2.199 1.85,-3 1.067,-0.766 2.383,-1.233 3.95,-1.399 2.066,-0.2 3.9,0.2 5.5,1.2 1.733,1.067 2.617,2.534 2.65,4.4 0.066,2.033 -0.667,3.55 -2.2,4.55 -1.633,1.067 -3.833,1.334 -6.6,0.801 -2,-0.4 -3.45,-1.301 -4.35,-2.7 C 2.75,26.783 2.483,25.5 2.65,24.1 Z"
     style="clip-rule:evenodd;fill:url(#SVGID_6_);fill-rule:evenodd"
     inkscape:connector-curvature="0" /><g
     id="g84">
	
		<linearGradient
   gradientTransform="matrix(0.9995,0.0311,0,1.0005,-1.001358e-4,-3.649108e-4)"
   y2="25.1348"
   x2="13.5816"
   y1="25.1348"
   x1="2.3262"
   gradientUnits="userSpaceOnUse"
   id="SVGID_7_">
		<stop
   id="stop56"
   style="stop-color:#CF6417"
   offset="0.0353" />
		<stop
   id="stop58"
   style="stop-color:#9E2409"
   offset="1" />
	</linearGradient>
	<path
   inkscape:connector-curvature="0"
   id="path61"
   d="M 3.25,21.55 4.1,26.85 5.05,21.6 5.9,21.65 V 21.9 L 5.7,22.05 5.65,22.2 5.6,22.45 v 5.75 l 0.1,0.45 0.2,0.1 v 0.3 L 4.85,29 v -0.3 c 0.033,0 0.1,-0.05 0.2,-0.15 L 5.15,27.651 5.2,22.8 H 5.15 l -1,5.3 H 3.85 L 2.95,22.6 H 2.9 l 0.05,5.5 0.05,0.25 0.1,0.15 0.15,0.15 v 0.25 h -0.9 v -0.3 l 0.2,-0.149 0.1,-0.9 L 2.6,22.051 2.5,21.9 2.35,21.8 v -0.3 z"
   style="clip-rule:evenodd;fill:url(#SVGID_7_);fill-rule:evenodd" />
	
		<linearGradient
   gradientTransform="matrix(0.9995,0.0313,0,1.0005,5.507469e-5,1.986995e-4)"
   y2="25.304701"
   x2="17.233299"
   y1="25.304701"
   x1="0.47510001"
   gradientUnits="userSpaceOnUse"
   id="SVGID_8_">
		<stop
   id="stop63"
   style="stop-color:#CF6417"
   offset="0.0353" />
		<stop
   id="stop65"
   style="stop-color:#9E2409"
   offset="1" />
	</linearGradient>
	<polygon
   id="polygon68"
   points="7.85,28.8 7.95,29 8.2,29.15 8.2,29.4 6.65,29.35 6.65,29.1 6.95,28.9 7.05,28.6 7.1,27.95 7.1,23.15 7.05,22.55 7,22.3 6.9,22.15 6.65,22 6.65,21.7 8.2,21.75 8.2,22.05 7.95,22.15 7.85,22.3 7.75,23.15 7.75,28 7.8,28.55 "
   style="clip-rule:evenodd;fill:url(#SVGID_8_);fill-rule:evenodd" />
	
		<linearGradient
   gradientTransform="matrix(0.9995,0.0313,0,1.0005,5.507469e-5,1.986995e-4)"
   y2="25.327101"
   x2="17.232901"
   y1="25.327101"
   x1="0.47510001"
   gradientUnits="userSpaceOnUse"
   id="SVGID_9_">
		<stop
   id="stop70"
   style="stop-color:#CF6417"
   offset="0.0353" />
		<stop
   id="stop72"
   style="stop-color:#9E2409"
   offset="1" />
	</linearGradient>
	<path
   inkscape:connector-curvature="0"
   id="path75"
   d="M 9.45,22.35 9.35,22.2 9.1,22.05 V 21.8 l 1.55,0.05 v 0.25 l -0.25,0.15 -0.1,0.1 -0.1,0.9 v 5.7 l 0.95,0.05 0.3,-0.05 0.15,-0.05 0.15,-0.15 0.35,-1.45 h 0.35 l -0.05,2.25 -3.3,-0.1 v -0.3 c 0.167,-0.067 0.267,-0.134 0.3,-0.2 l 0.1,-0.3 v -6 z"
   style="clip-rule:evenodd;fill:url(#SVGID_9_);fill-rule:evenodd" />
	
		<linearGradient
   gradientTransform="matrix(0.9995,0.0313,0,1.0005,5.507469e-5,1.986995e-4)"
   y2="25.2598"
   x2="17.0331"
   y1="25.2598"
   x1="0.27489999"
   gradientUnits="userSpaceOnUse"
   id="SVGID_10_">
		<stop
   id="stop77"
   style="stop-color:#CF6417"
   offset="0.0353" />
		<stop
   id="stop79"
   style="stop-color:#9E2409"
   offset="1" />
	</linearGradient>
	<path
   inkscape:connector-curvature="0"
   id="path82"
   d="m 14.55,21.9 c 0.467,0.066 0.85,0.166 1.15,0.3 0.3,0.133 0.55,0.366 0.75,0.7 0.2,0.3 0.35,0.683 0.45,1.149 0.1,0.466 0.15,1 0.15,1.601 0,0.666 -0.05,1.216 -0.15,1.649 -0.1,0.566 -0.233,0.967 -0.4,1.2 -0.133,0.233 -0.333,0.467 -0.6,0.7 -0.133,0.133 -0.35,0.233 -0.65,0.3 -0.167,0.033 -0.483,0.05 -0.95,0.05 l -1.35,-0.05 v -0.25 l 0.25,-0.15 c 0.066,0 0.1,-0.05 0.1,-0.149 L 13.35,28.7 13.4,28.15 V 23.3 L 13.35,22.7 13.3,22.45 13.2,22.3 12.95,22.151 V 21.85 Z m -0.5,0.5 v 6.649 h 0.45 c 0.167,0.033 0.35,0.017 0.55,-0.05 l 0.45,-0.2 0.35,-0.5 0.25,-0.649 c 0,-0.034 0.05,-0.317 0.15,-0.851 l 0.05,-1.05 c 0,-0.833 -0.066,-1.467 -0.2,-1.9 -0.133,-0.5 -0.333,-0.85 -0.6,-1.05 C 15.167,22.532 14.85,22.4 14.55,22.4 Z"
   style="clip-rule:evenodd;fill:url(#SVGID_10_);fill-rule:evenodd" />
</g><use
     id="use86"
     style="overflow:visible;opacity:0.57810005;enable-background:new"
     transform="matrix(1,0,0,-1,2.2002,222.38782)"
     y="-31.450001"
     height="31.450001"
     width="5.25"
     xlink:href="#flash0.ai_x5F_8_x2F_Layer_47_copy_x2F__x3C_Path_x3E__x5F_9"
     x="0" /><use
     id="use88"
     style="overflow:visible;opacity:0.21089998;enable-background:new"
     transform="matrix(1,0,0,-1,16.8999,222.38782)"
     y="-31.450001"
     height="31.450001"
     width="5.25"
     xlink:href="#flash0.ai_x5F_8_x2F_Layer_47_copy_x2F__x3C_Path_x3E__x5F_8"
     x="0" /><use
     id="use90"
     style="overflow:visible;opacity:0.67189995;enable-background:new"
     transform="matrix(1,0,0,-1,4.0498,222.03772)"
     y="-3.161"
     height="3.161"
     width="16.450001"
     xlink:href="#flash0.ai_x5F_8_x2F_Layer_47_copy_x2F__x3C_Path_x3E__x5F_7"
     x="0" /><path
     id="path97"
     d="m 20.8,6.05 c 0,0.567 -0.85,1.05 -2.55,1.45 -1.733,0.4 -3.8,0.6 -6.2,0.6 C 9.617,8.1 7.55,7.9 5.85,7.5 4.15,7.1 3.3,6.617 3.3,6.05 3.3,5.483 4.15,5 5.85,4.6 7.55,4.2 9.617,4 12.05,4 c 2.4,0 4.467,0.2 6.2,0.6 1.7,0.4 2.55,0.883 2.55,1.45 z"
     style="clip-rule:evenodd;fill:url(#SVGID_11_);fill-rule:evenodd"
     inkscape:connector-curvature="0" /><path
     id="path106"
     d="m 21.2,5.55 c 0,0.567 -0.883,1.034 -2.65,1.4 -1.767,0.4 -3.917,0.6 -6.45,0.6 C 9.6,7.55 7.467,7.35 5.7,6.95 3.9,6.583 3,6.117 3,5.55 c 0,-0.533 0.9,-1 2.7,-1.4 1.767,-0.4 3.9,-0.6 6.4,-0.6 2.533,0 4.683,0.2 6.45,0.6 1.767,0.367 2.65,0.833 2.65,1.4 z"
     style="clip-rule:evenodd;fill:url(#SVGID_12_);fill-rule:evenodd"
     inkscape:connector-curvature="0" /><path
     id="path115"
     d="m 20.9,1.65 v 3.6 C 20.834,5.683 19.95,6.083 18.25,6.45 16.45,6.817 14.4,7 12.1,7 9.767,7 7.7,6.817 5.9,6.45 4.2,6.083 3.317,5.683 3.25,5.25 v -3.6 z"
     style="clip-rule:evenodd;fill:url(#SVGID_13_);fill-rule:evenodd"
     inkscape:connector-curvature="0" /><path
     id="path117"
     d="m 20.9,1.7 c 0,0.466 -0.867,0.883 -2.6,1.25 -1.733,0.333 -3.816,0.5 -6.25,0.5 -2.4,0 -4.466,-0.167 -6.2,-0.5 C 4.117,2.583 3.25,2.166 3.25,1.7 3.25,1.233 4.117,0.833 5.85,0.5 7.583,0.167 9.65,0 12.05,0 c 2.434,0 4.517,0.167 6.25,0.5 1.733,0.333 2.6,0.733 2.6,1.2 z"
     style="clip-rule:evenodd;fill:#df6937;fill-rule:evenodd"
     inkscape:connector-curvature="0" /><use
     id="use119"
     style="overflow:visible;opacity:0.48050005;enable-background:new"
     transform="matrix(1,0,0,-1,4.2998,222.88782)"
     y="-1.179"
     x="-0.022"
     height="1.179"
     width="9.5220003"
     xlink:href="#flash0.ai_x5F_8_x2F_Layer_47_copy_x2F__x3C_Path_x3E__x5F_2" /><path
     id="path121"
     d="m 4.55,36.35 c 0.7,0.4 1.117,0.801 1.25,1.2 0.133,0.334 0.05,0.5 -0.25,0.5 -0.533,0 -1.183,-0.366 -1.95,-1.1 C 3.233,36.583 3.2,36.333 3.5,36.2 3.8,36.1 4.15,36.15 4.55,36.35 Z"
     style="clip-rule:evenodd;fill:#ffffff;fill-rule:evenodd"
     inkscape:connector-curvature="0" /><path
     id="path123"
     d="m 7.2,37.75 c 0.5,0.1 0.633,0.267 0.4,0.5 -0.233,0.267 -0.434,0.333 -0.6,0.2 -0.167,-0.134 -0.25,-0.3 -0.25,-0.5 -0.033,-0.233 0.117,-0.3 0.45,-0.2 z"
     style="clip-rule:evenodd;fill:#ffffff;fill-rule:evenodd"
     inkscape:connector-curvature="0" /></g>
</svg>