<?xml version="1.0" encoding="UTF-8" standalone="no"?>
<!-- Generator: Adobe Illustrator 15.1.0, SVG Export Plug-In . SVG Version: 6.00 Build 0)  -->

<svg
   xmlns:dc="http://purl.org/dc/elements/1.1/"
   xmlns:cc="http://creativecommons.org/ns#"
   xmlns:rdf="http://www.w3.org/1999/02/22-rdf-syntax-ns#"
   xmlns:svg="http://www.w3.org/2000/svg"
   xmlns="http://www.w3.org/2000/svg"
   xmlns:xlink="http://www.w3.org/1999/xlink"
   xmlns:sodipodi="http://sodipodi.sourceforge.net/DTD/sodipodi-0.dtd"
   xmlns:inkscape="http://www.inkscape.org/namespaces/inkscape"
   version="1.1"
   id="flash0.ai"
   x="0px"
   y="0px"
   width="256"
   height="256"
   viewBox="0 0 256.00001 256"
   xml:space="preserve"
   sodipodi:docname="red.svg"
   inkscape:version="0.92.4 (5da689c313, 2019-01-14)"
   inkscape:export-xdpi="10.5"
   inkscape:export-ydpi="10.5"><title
   id="title919">Red Sauce</title><metadata
   id="metadata112"><rdf:RDF><cc:Work
       rdf:about=""><dc:format>image/svg+xml</dc:format><dc:type
         rdf:resource="http://purl.org/dc/dcmitype/StillImage" /><dc:title>Red Sauce</dc:title><cc:license
         rdf:resource="http://creativecommons.org/publicdomain/zero/1.0/" /><dc:creator><cc:Agent><dc:title>Glitch</dc:title></cc:Agent></dc:creator><dc:source>https://opengameart.org/node/20149</dc:source></cc:Work><cc:License
       rdf:about="http://creativecommons.org/publicdomain/zero/1.0/"><cc:permits
         rdf:resource="http://creativecommons.org/ns#Reproduction" /><cc:permits
         rdf:resource="http://creativecommons.org/ns#Distribution" /><cc:permits
         rdf:resource="http://creativecommons.org/ns#DerivativeWorks" /></cc:License></rdf:RDF></metadata><defs
   id="defs110"><linearGradient
     inkscape:collect="always"
     xlink:href="#SVGID_1_"
     id="linearGradient997"
     gradientUnits="userSpaceOnUse"
     x1="4.2660999"
     y1="-27.480499"
     x2="2.5160999"
     y2="-2.3805001" /><linearGradient
     inkscape:collect="always"
     xlink:href="#SVGID_2_"
     id="linearGradient999"
     gradientUnits="userSpaceOnUse"
     gradientTransform="matrix(0.0696,-0.9976,0.9976,0.0696,15759.415,556.4365)"
     x1="-538.43158"
     y1="-15758.143"
     x2="-513.27069"
     y2="-15758.143" /><linearGradient
     inkscape:collect="always"
     xlink:href="#SVGID_3_"
     id="linearGradient1001"
     gradientUnits="userSpaceOnUse"
     x1="-0.037599999"
     y1="-16.9814"
     x2="24.1374"
     y2="-16.9814" /><linearGradient
     inkscape:collect="always"
     xlink:href="#SVGID_4_"
     id="linearGradient1003"
     gradientUnits="userSpaceOnUse"
     x1="0"
     y1="-5.5249"
     x2="18.200199"
     y2="-5.5249" /><linearGradient
     inkscape:collect="always"
     xlink:href="#SVGID_5_"
     id="linearGradient1005"
     gradientUnits="userSpaceOnUse"
     x1="0.2124"
     y1="-4.2997999"
     x2="17.8874"
     y2="-4.2997999" /><linearGradient
     inkscape:collect="always"
     xlink:href="#SVGID_6_"
     id="linearGradient1007"
     gradientUnits="userSpaceOnUse"
     x1="0"
     y1="-16.5063"
     x2="22.700199"
     y2="-16.5063" /></defs><sodipodi:namedview
   pagecolor="#ffffff"
   bordercolor="#666666"
   borderopacity="1"
   objecttolerance="10"
   gridtolerance="10"
   guidetolerance="10"
   inkscape:pageopacity="0"
   inkscape:pageshadow="2"
   inkscape:window-width="1920"
   inkscape:window-height="1025"
   id="namedview108"
   showgrid="false"
   inkscape:zoom="0.68129332"
   inkscape:cx="163.66975"
   inkscape:cy="16.651763"
   inkscape:window-x="-8"
   inkscape:window-y="-8"
   inkscape:window-maximized="1"
   inkscape:current-layer="flash0.ai"
   fit-margin-top="0"
   fit-margin-left="0"
   fit-margin-right="0"
   fit-margin-bottom="0" />
<symbol
   id="flash0.ai_x5F_8_x2F_Layer_43_x2F__x3C_Path_x3E__x5F_10"
   viewBox="0 -31.5 5.3 31.5"
   transform="translate(-3.5498,212.87971)">
	<g
   id="Layer_1_6_">
		<linearGradient
   id="SVGID_1_"
   gradientUnits="userSpaceOnUse"
   x1="4.2660999"
   y1="-27.480499"
   x2="2.5160999"
   y2="-2.3805001">
			<stop
   offset="0"
   style="stop-color:#FFFFFF"
   id="stop2" />
			<stop
   offset="1"
   style="stop-color:#000000"
   id="stop4" />
		</linearGradient>
		<path
   style="clip-rule:evenodd;fill:url(#linearGradient997);fill-rule:evenodd"
   d="M 2,-0.55 C 2.167,-1.15 2.617,-2.033 3.35,-3.2 3.55,-3.5 3.933,-4 4.5,-4.7 5,-5.4 5.267,-6 5.3,-6.5 l -0.35,-21 -0.4,-0.85 c -0.333,-0.667 -0.7,-1.233 -1.1,-1.7 -0.6,-0.733 -1.067,-1.217 -1.4,-1.45 0.333,1.267 0.517,3.333 0.55,6.2 0.066,2.4 0.083,5.767 0.05,10.1 0,4.633 -0.05,7.267 -0.15,7.9 C 2.433,-6.8 2.167,-6.017 1.7,-4.95 1.133,-3.583 0.767,-2.667 0.6,-2.2 0.2,-1 0,-0.267 0,0 Z"
   id="path7"
   inkscape:connector-curvature="0" />
	</g>
</symbol>
<symbol
   id="flash0.ai_x5F_8_x2F_Layer_43_x2F__x3C_Path_x3E__x5F_11"
   viewBox="0 -31.5 5.25 31.5"
   transform="translate(-3.5498,212.87971)">
	<g
   id="Layer_1_4_">
		
			<linearGradient
   id="SVGID_2_"
   gradientUnits="userSpaceOnUse"
   x1="-538.43158"
   y1="-15758.143"
   x2="-513.27069"
   y2="-15758.143"
   gradientTransform="matrix(0.0696,-0.9976,0.9976,0.0696,15759.415,556.4365)">
			<stop
   offset="0"
   style="stop-color:#FFFFFF"
   id="stop11" />
			<stop
   offset="1"
   style="stop-color:#000000"
   id="stop13" />
		</linearGradient>
		<path
   style="clip-rule:evenodd;fill:url(#linearGradient999);fill-rule:evenodd"
   d="M 3.3,-0.55 5.25,0 c 0,-0.267 -0.2,-1 -0.6,-2.2 C 4.483,-2.733 4.133,-3.65 3.6,-4.95 3.133,-6.017 2.867,-6.8 2.8,-7.3 2.7,-7.9 2.65,-10.533 2.65,-15.2 c -0.033,-3.966 -0.033,-7.333 0,-10.1 0.033,-2.867 0.233,-4.934 0.6,-6.2 -0.367,0.233 -0.85,0.717 -1.45,1.45 -0.367,0.466 -0.733,1.033 -1.1,1.7 L 0.3,-27.5 0,-6.5 c 0.033,0.5 0.3,1.1 0.8,1.8 0.6,0.7 0.983,1.2 1.15,1.5 0.733,1.167 1.183,2.05 1.35,2.65 z"
   id="path16"
   inkscape:connector-curvature="0" />
	</g>
</symbol>
<symbol
   id="flash0.ai_x5F_8_x2F_Layer_43_x2F__x3C_Path_x3E__x5F_4"
   viewBox="-0.022 -1.206 9.522 1.206"
   transform="translate(-3.5498,212.87971)">
	<g
   id="Layer_1_7_">
		<path
   style="clip-rule:evenodd;fill:#ffffff;fill-rule:evenodd"
   d="m 0.4,-0.05 c 0.633,-0.2 1.667,-0.4 3.1,-0.6 1.8,-0.267 3.8,-0.4 6,-0.4 -0.067,-0.167 -1.15,-0.2 -3.25,-0.1 -2.533,0.066 -4.533,0.35 -6,0.85 -0.233,0.1 -0.317,0.183 -0.25,0.25 0.067,0.067 0.2,0.067 0.4,0 z"
   id="path20"
   inkscape:connector-curvature="0" />
	</g>
</symbol>
<symbol
   id="flash0.ai_x5F_8_x2F_Layer_43_x2F__x3C_Path_x3E__x5F_9"
   viewBox="0 -3.112 16.45 3.112"
   transform="translate(-3.5498,212.87971)">
	<g
   id="Layer_1_5_">
		<path
   style="clip-rule:evenodd;fill:#94894d;fill-rule:evenodd"
   d="m 15.55,0 c 0.1,-0.233 0.4,-0.717 0.9,-1.45 C 14.983,-2.65 12.416,-3.2 8.75,-3.1 4.617,-3 1.7,-2.25 0,-0.85 L 0.5,0 8,-0.4 Z"
   id="path24"
   inkscape:connector-curvature="0" />
	</g>
</symbol>
<symbol
   id="jar"
   viewBox="0 -33.963 24.15 33.963"
   transform="translate(-3.5498,212.87971)">
	<g
   id="Layer_1_2_">
		<linearGradient
   id="SVGID_3_"
   gradientUnits="userSpaceOnUse"
   x1="-0.037599999"
   y1="-16.9814"
   x2="24.1374"
   y2="-16.9814">
			<stop
   offset="0"
   style="stop-color:#FFE8AD"
   id="stop28" />
			<stop
   offset="1"
   style="stop-color:#8F7441"
   id="stop30" />
		</linearGradient>
		<path
   style="clip-rule:evenodd;fill:url(#linearGradient1001);fill-rule:evenodd"
   d="m 24.15,-9.1 c 0,-1.267 -0.117,-4.467 -0.35,-9.6 -0.2,-4.433 -0.35,-7.3 -0.45,-8.6 -0.1,-1.067 -0.567,-2.1 -1.4,-3.1 -1.1,-1.367 -2.717,-2.35 -4.85,-2.95 -1.733,-0.467 -3.417,-0.667 -5.05,-0.6 -1.6,-0.066 -3.267,0.133 -5,0.6 -2.133,0.6 -3.75,1.583 -4.85,2.95 -0.833,1 -1.3,2.033 -1.4,3.1 -0.066,0.867 -0.216,3.733 -0.45,8.6 -0.233,5.033 -0.35,8.233 -0.35,9.6 0,1.4 0.15,2.5 0.45,3.3 0.267,0.667 0.733,1.367 1.4,2.1 1.333,1.433 2.233,2.667 2.7,3.7 l 7.5,-0.4 7.55,0.4 c 0.467,-1.033 1.367,-2.267 2.7,-3.7 0.667,-0.733 1.133,-1.433 1.4,-2.1 0.3,-0.8 0.45,-1.9 0.45,-3.3 z"
   id="path33"
   inkscape:connector-curvature="0" />
	</g>
</symbol>
<symbol
   id="jartwo"
   viewBox="0 -3.112 16.45 3.112"
   transform="translate(-3.5498,212.87971)">
	<g
   id="Layer_1_9_">
		
			<use
   xlink:href="#flash0.ai_x5F_8_x2F_Layer_43_x2F__x3C_Path_x3E__x5F_9"
   width="16.450001"
   height="3.112"
   y="-3.112"
   style="overflow:visible;opacity:0.67189995;enable-background:new"
   id="use37"
   x="0"
   transform="translate(3.5498,-212.87971)" />
	</g>
</symbol>
<symbol
   id="lid"
   viewBox="0 -7.55 18.2 7.55"
   transform="translate(-3.5498,212.87971)">
	<g
   id="Layer_1_8_">
		<linearGradient
   id="SVGID_4_"
   gradientUnits="userSpaceOnUse"
   x1="0"
   y1="-5.5249"
   x2="18.200199"
   y2="-5.5249">
			<stop
   offset="0"
   style="stop-color:#E68045"
   id="stop41" />
			<stop
   offset="0.2118"
   style="stop-color:#FF9B61"
   id="stop43" />
			<stop
   offset="1"
   style="stop-color:#914C1A"
   id="stop45" />
		</linearGradient>
		<path
   style="clip-rule:evenodd;fill:url(#linearGradient1003);fill-rule:evenodd"
   d="m 18.2,-5.55 c 0,-0.567 -0.883,-1.034 -2.65,-1.4 -1.767,-0.4 -3.917,-0.6 -6.45,-0.6 -2.5,0 -4.633,0.2 -6.4,0.6 -1.8,0.367 -2.7,0.833 -2.7,1.4 0,0.567 0.9,1.05 2.7,1.45 1.767,0.4 3.9,0.6 6.4,0.6 2.533,0 4.683,-0.2 6.45,-0.6 1.767,-0.4 2.65,-0.883 2.65,-1.45 z"
   id="path48"
   inkscape:connector-curvature="0" />
		<linearGradient
   id="SVGID_5_"
   gradientUnits="userSpaceOnUse"
   x1="0.2124"
   y1="-4.2997999"
   x2="17.8874"
   y2="-4.2997999">
			<stop
   offset="0"
   style="stop-color:#FF8E4D"
   id="stop50" />
			<stop
   offset="0.2118"
   style="stop-color:#FF9B61"
   id="stop52" />
			<stop
   offset="1"
   style="stop-color:#AB591F"
   id="stop54" />
		</linearGradient>
		<path
   style="clip-rule:evenodd;fill:url(#linearGradient1005);fill-rule:evenodd"
   d="M 17.9,-1.65 V -5.2 c -0.066,-0.433 -0.95,-0.833 -2.65,-1.2 -1.767,-0.367 -3.833,-0.55 -6.2,-0.55 -2.333,0 -4.383,0.184 -6.15,0.55 -1.7,0.367 -2.583,0.767 -2.65,1.2 v 3.55 H 17.9 Z"
   id="path57"
   inkscape:connector-curvature="0" />
		<path
   style="clip-rule:evenodd;fill:#ff9b61;fill-rule:evenodd"
   d="m 17.9,-1.7 c 0,-0.466 -0.867,-0.867 -2.6,-1.2 -1.7,-0.333 -3.783,-0.5 -6.25,-0.5 -2.433,0 -4.5,0.167 -6.2,0.5 -1.733,0.333 -2.6,0.733 -2.6,1.2 0,0.467 0.867,0.867 2.6,1.2 1.7,0.333 3.767,0.5 6.2,0.5 2.467,0 4.55,-0.167 6.25,-0.5 1.733,-0.333 2.6,-0.733 2.6,-1.2 z"
   id="path59"
   inkscape:connector-curvature="0" />
	</g>
</symbol>
<symbol
   id="sauce"
   viewBox="0 -33.013 22.7 33.013"
   transform="translate(-3.5498,212.87971)">
	<g
   id="Layer_1_3_">
		<linearGradient
   id="SVGID_6_"
   gradientUnits="userSpaceOnUse"
   x1="0"
   y1="-16.5063"
   x2="22.700199"
   y2="-16.5063">
			<stop
   offset="0"
   style="stop-color:#FFD770"
   id="stop63" />
			<stop
   offset="1"
   style="stop-color:#A3844A"
   id="stop65" />
		</linearGradient>
		<path
   style="clip-rule:evenodd;fill:url(#linearGradient1007);fill-rule:evenodd"
   d="m 20.95,-3.6 c 0.633,-0.733 1.066,-1.417 1.3,-2.05 0.3,-0.8 0.45,-1.867 0.45,-3.2 0,-1.333 -0.117,-4.45 -0.35,-9.35 -0.2,-4.733 -0.35,-7.517 -0.45,-8.35 -0.066,-1.033 -0.483,-2.033 -1.25,-3 -1.066,-1.333 -2.6,-2.283 -4.6,-2.85 -1.633,-0.466 -3.2,-0.667 -4.7,-0.6 -1.567,-0.067 -3.15,0.133 -4.75,0.6 -2,0.567 -3.517,1.517 -4.55,2.85 -0.767,0.934 -1.2,1.934 -1.3,3 -0.066,1.133 -0.2,3.917 -0.4,8.35 -0.233,5 -0.35,8.117 -0.35,9.35 0,1.333 0.15,2.4 0.45,3.2 0.233,0.633 0.667,1.317 1.3,2.05 1.2,1.333 2.033,2.533 2.5,3.6 l 7.1,-0.4 7.05,0.4 c 0.5,-1.1 1.35,-2.3 2.55,-3.6 z"
   id="path68"
   inkscape:connector-curvature="0" />
	</g>
</symbol>
<g
   id="g105"
   transform="matrix(8.0074097,0,0,8.0074097,22.223719,-89.281834)">
	
		<use
   xlink:href="#jar"
   width="24.15"
   height="33.963001"
   y="-33.963001"
   transform="matrix(0.8,0,0,-0.8,6.38964,186.25397)"
   style="overflow:visible"
   id="use72"
   x="0" />
	
		<use
   xlink:href="#sauce"
   width="22.700001"
   height="33.013"
   y="-33.013"
   transform="matrix(0.8,0,0,-0.8,6.93994,186.50397)"
   style="overflow:visible"
   id="use74"
   x="0" />
	
		<use
   xlink:href="#flash0.ai_x5F_8_x2F_Layer_43_x2F__x3C_Path_x3E__x5F_11"
   width="5.25"
   height="31.5"
   y="-31.5"
   transform="matrix(0.8,0,0,-0.8,8.13964,186.50397)"
   style="overflow:visible;opacity:0.57810005;enable-background:new"
   id="use76"
   x="0" />
	
		<use
   xlink:href="#jartwo"
   width="16.450001"
   height="3.112"
   y="-3.112"
   transform="matrix(0.8,0,0,-0.8,9.63964,186.25397)"
   style="overflow:visible"
   id="use78"
   x="0" />
	
		<use
   xlink:href="#flash0.ai_x5F_8_x2F_Layer_43_x2F__x3C_Path_x3E__x5F_10"
   width="5.3000002"
   height="31.5"
   y="-31.5"
   transform="matrix(0.8,0,0,-0.8,19.88964,186.50397)"
   style="overflow:visible;opacity:0.21089998;enable-background:new"
   id="use80"
   x="0" />
	
		<linearGradient
   id="SVGID_7_"
   gradientUnits="userSpaceOnUse"
   x1="3.2997999"
   y1="6"
   x2="20.774799"
   y2="6"
   gradientTransform="matrix(0.8,0,0,0.8,3.5497,11.1498)">
		<stop
   offset="0"
   style="stop-color:#FFFFF0"
   id="stop82" />
		<stop
   offset="1"
   style="stop-color:#918649"
   id="stop84" />
	</linearGradient>
	<path
   style="clip-rule:evenodd;fill:url(#SVGID_7_);fill-rule:evenodd"
   d="m 20.189,15.95 c 0,0.454 -0.68,0.84 -2.04,1.16 -1.387,0.32 -3.04,0.48 -4.96,0.48 -1.946,0 -3.6,-0.16 -4.959,-0.48 -1.36,-0.32 -2.041,-0.707 -2.041,-1.16 0,-0.453 0.68,-0.84 2.041,-1.16 1.387,-0.32 3.04,-0.479 4.959,-0.479 1.919,0 3.573,0.16 4.96,0.479 1.361,0.32 2.04,0.706 2.04,1.16 z"
   id="path87"
   inkscape:connector-curvature="0" />
	
		<use
   xlink:href="#flash0.ai_x5F_8_x2F_Layer_43_x2F__x3C_Path_x3E__x5F_4"
   width="9.5220003"
   height="1.206"
   x="-0.022"
   y="-1.206"
   transform="matrix(0.8,0,0,-0.8,9.83984,186.90387)"
   style="overflow:visible;opacity:0.48050005;enable-background:new"
   id="use89" />
	<path
   style="clip-rule:evenodd;fill:#ffffff;fill-rule:evenodd"
   d="m 7.189,40.229 c 0.56,0.293 0.894,0.6 1,0.92 0.107,0.293 0.041,0.439 -0.2,0.439 -0.373,0 -0.894,-0.306 -1.56,-0.919 -0.293,-0.294 -0.32,-0.48 -0.08,-0.561 0.241,-0.105 0.521,-0.066 0.84,0.121 z"
   id="path91"
   inkscape:connector-curvature="0" />
	<path
   style="clip-rule:evenodd;fill:#ffffff;fill-rule:evenodd"
   d="m 9.31,41.31 c 0.4,0.08 0.506,0.227 0.32,0.439 -0.187,0.214 -0.347,0.254 -0.48,0.121 -0.133,-0.107 -0.2,-0.241 -0.2,-0.4 -0.027,-0.16 0.093,-0.213 0.36,-0.16 z"
   id="path93"
   inkscape:connector-curvature="0" />
	
		<use
   xlink:href="#lid"
   width="18.200001"
   height="7.5500002"
   y="-7.5500002"
   transform="matrix(0.8,0,0,-0.8,8.79004,181.45367)"
   style="overflow:visible"
   id="use95"
   x="0" />
	<g
   id="g103">
		<path
   style="clip-rule:evenodd;fill:#ffc5a3;fill-rule:evenodd"
   d="m 12.043,27.422 1.549,-0.097 c 1.129,0.064 1.985,0.452 2.565,1.162 1.194,1.517 1.404,3.162 0.63,4.937 -0.903,1.968 -2.711,2.952 -5.421,2.952 -3.678,0 -5.663,-1.452 -5.953,-4.356 -0.258,-2.58 0.177,-4.082 1.306,-4.5 0.678,-0.259 1.372,-0.42 2.082,-0.484 l -0.388,-1.21 0.629,-0.533 c 0.484,-0.322 0.919,-0.468 1.307,-0.435 0.581,0.063 1.113,0.338 1.598,0.822 z"
   id="path97"
   inkscape:connector-curvature="0" />
		<path
   style="clip-rule:evenodd;fill:#e15418;fill-rule:evenodd"
   d="M 10.591,28.584 11.898,28.1 c 1.033,-0.29 2.049,-0.29 3.049,0 1.388,0.388 1.92,1.63 1.598,3.727 -0.323,2.228 -1.693,3.502 -4.114,3.824 C 9.913,36.006 8.01,35.329 6.719,33.618 5.493,32.005 5.38,30.424 6.381,28.875 c 0.774,-1.194 1.71,-1.597 2.807,-1.21 0.548,0.192 1.016,0.499 1.403,0.919 z"
   id="path99"
   inkscape:connector-curvature="0" />
		<path
   style="clip-rule:evenodd;fill:#77a32f;fill-rule:evenodd"
   d="m 10.35,29.067 -1.21,-2.904 0.242,-0.29 c 0.226,-0.226 0.404,-0.355 0.532,-0.388 0.226,-0.032 0.63,0.114 1.21,0.437 l 0.098,2.71 z"
   id="path101"
   inkscape:connector-curvature="0" />
	</g>
</g>
</svg>