<?xml version="1.0" encoding="UTF-8" standalone="no"?>
<!-- Generator: Adobe Illustrator 15.1.0, SVG Export Plug-In . SVG Version: 6.00 Build 0)  -->

<svg
   xmlns:dc="http://purl.org/dc/elements/1.1/"
   xmlns:cc="http://creativecommons.org/ns#"
   xmlns:rdf="http://www.w3.org/1999/02/22-rdf-syntax-ns#"
   xmlns:svg="http://www.w3.org/2000/svg"
   xmlns="http://www.w3.org/2000/svg"
   xmlns:xlink="http://www.w3.org/1999/xlink"
   xmlns:sodipodi="http://sodipodi.sourceforge.net/DTD/sodipodi-0.dtd"
   xmlns:inkscape="http://www.inkscape.org/namespaces/inkscape"
   version="1.1"
   id="flash0.ai"
   x="0px"
   y="0px"
   width="256"
   height="256"
   viewBox="0 0 256 256"
   xml:space="preserve"
   sodipodi:docname="ketchup.svg"
   inkscape:version="0.92.4 (5da689c313, 2019-01-14)"
   inkscape:export-filename="C:\Users\antum\Development\game-resources\icon\CC0\food\individual\Glitch\32x32\condiment\ketchup.png"
   inkscape:export-xdpi="10.5"
   inkscape:export-ydpi="10.5"><title
   id="title974">Ketchup</title><metadata
   id="metadata167"><rdf:RDF><cc:Work
       rdf:about=""><dc:format>image/svg+xml</dc:format><dc:type
         rdf:resource="http://purl.org/dc/dcmitype/StillImage" /><dc:title>Ketchup</dc:title><cc:license
         rdf:resource="http://creativecommons.org/publicdomain/zero/1.0/" /><dc:creator><cc:Agent><dc:title>Glitch</dc:title></cc:Agent></dc:creator><dc:source>https://opengameart.org/node/20149</dc:source></cc:Work><cc:License
       rdf:about="http://creativecommons.org/publicdomain/zero/1.0/"><cc:permits
         rdf:resource="http://creativecommons.org/ns#Reproduction" /><cc:permits
         rdf:resource="http://creativecommons.org/ns#Distribution" /><cc:permits
         rdf:resource="http://creativecommons.org/ns#DerivativeWorks" /></cc:License></rdf:RDF></metadata><defs
   id="defs165"><linearGradient
     inkscape:collect="always"
     xlink:href="#SVGID_1_"
     id="linearGradient1001"
     gradientUnits="userSpaceOnUse"
     gradientTransform="matrix(0.0696,-0.9976,0.9976,0.0696,15755.828,548.5908)"
     x1="-546.00592"
     y1="-15753.969"
     x2="-520.84491"
     y2="-15753.969" /><linearGradient
     inkscape:collect="always"
     xlink:href="#SVGID_2_"
     id="linearGradient1003"
     gradientUnits="userSpaceOnUse"
     x1="4.2163"
     y1="-27.4844"
     x2="2.4663"
     y2="-2.3843999" /></defs><sodipodi:namedview
   pagecolor="#ffffff"
   bordercolor="#666666"
   borderopacity="1"
   objecttolerance="10"
   gridtolerance="10"
   guidetolerance="10"
   inkscape:pageopacity="0"
   inkscape:pageshadow="2"
   inkscape:window-width="1920"
   inkscape:window-height="1025"
   id="namedview163"
   showgrid="false"
   inkscape:zoom="0.73842302"
   inkscape:cx="65.935937"
   inkscape:cy="-5.8763835"
   inkscape:window-x="-8"
   inkscape:window-y="-8"
   inkscape:window-maximized="1"
   inkscape:current-layer="flash0.ai"
   fit-margin-top="0"
   fit-margin-left="0"
   fit-margin-right="0"
   fit-margin-bottom="0" />
<symbol
   id="flash0.ai_x5F_8_x2F_Layer_12_x2F__x3C_Path_x3E__x5F_10"
   viewBox="0 -31.5 5.3 31.5"
   transform="translate(0,216.03672)">
	<g
   id="Layer_1_2_">
		
			<linearGradient
   id="SVGID_1_"
   gradientUnits="userSpaceOnUse"
   x1="-546.00592"
   y1="-15753.969"
   x2="-520.84491"
   y2="-15753.969"
   gradientTransform="matrix(0.0696,-0.9976,0.9976,0.0696,15755.828,548.5908)">
			<stop
   offset="0"
   style="stop-color:#FFFFFF"
   id="stop2" />
			<stop
   offset="1"
   style="stop-color:#000000"
   id="stop4" />
		</linearGradient>
		<path
   style="clip-rule:evenodd;fill:url(#linearGradient1001);fill-rule:evenodd"
   d="M 3.35,-0.55 5.3,0 C 5.3,-0.267 5.1,-1 4.7,-2.2 4.533,-2.667 4.167,-3.583 3.6,-4.95 3.133,-6.017 2.867,-6.8 2.8,-7.3 2.7,-7.933 2.65,-10.567 2.65,-15.2 2.617,-19.533 2.633,-22.9 2.7,-25.3 c 0.033,-2.867 0.216,-4.934 0.55,-6.2 -0.333,0.233 -0.8,0.717 -1.4,1.45 -0.4,0.466 -0.767,1.033 -1.1,1.7 L 0.35,-27.5 0,-6.5 c 0.033,0.5 0.3,1.1 0.8,1.8 0.6,0.7 0.983,1.2 1.15,1.5 0.733,1.167 1.2,2.05 1.4,2.65 z"
   id="path7"
   inkscape:connector-curvature="0" />
	</g>
</symbol>
<symbol
   id="flash0.ai_x5F_8_x2F_Layer_12_x2F__x3C_Path_x3E__x5F_2"
   viewBox="0.028 -1.206 9.472 1.206"
   transform="translate(0,216.03672)">
	<g
   id="Layer_1_5_">
		<path
   style="clip-rule:evenodd;fill:#ffffff;fill-rule:evenodd"
   d="m 0.45,-0.05 c 0.633,-0.2 1.667,-0.4 3.1,-0.6 1.8,-0.267 3.784,-0.4 5.95,-0.4 -0.067,-0.167 -1.15,-0.2 -3.25,-0.1 -2.667,0.1 -4.65,0.383 -5.95,0.85 -0.233,0.1 -0.317,0.183 -0.25,0.25 0.067,0.067 0.2,0.067 0.4,0 z"
   id="path11"
   inkscape:connector-curvature="0" />
	</g>
</symbol>
<symbol
   id="flash0.ai_x5F_8_x2F_Layer_12_x2F__x3C_Path_x3E__x5F_8"
   viewBox="0 -3.112 16.5 3.112"
   transform="translate(0,216.03672)">
	<g
   id="Layer_1_4_">
		<path
   style="clip-rule:evenodd;fill:#752a20;fill-rule:evenodd"
   d="M 15.55,0 16.5,-1.45 C 14.9,-2.65 12.317,-3.2 8.75,-3.1 4.683,-3 1.767,-2.25 0,-0.85 L 0.55,0 8.05,-0.4 Z"
   id="path15"
   inkscape:connector-curvature="0" />
	</g>
</symbol>
<symbol
   id="flash0.ai_x5F_8_x2F_Layer_12_x2F__x3C_Path_x3E__x5F_9"
   viewBox="0 -31.5 5.25 31.5"
   transform="translate(0,216.03672)">
	<g
   id="Layer_1_3_">
		<linearGradient
   id="SVGID_2_"
   gradientUnits="userSpaceOnUse"
   x1="4.2163"
   y1="-27.4844"
   x2="2.4663"
   y2="-2.3843999">
			<stop
   offset="0"
   style="stop-color:#FFFFFF"
   id="stop19" />
			<stop
   offset="1"
   style="stop-color:#000000"
   id="stop21" />
		</linearGradient>
		<path
   style="clip-rule:evenodd;fill:url(#linearGradient1003);fill-rule:evenodd"
   d="M 1.95,-0.55 C 2.117,-1.15 2.567,-2.033 3.3,-3.2 3.5,-3.5 3.883,-4 4.45,-4.7 4.95,-5.4 5.217,-6 5.25,-6.5 l -0.3,-21 -0.4,-0.85 c -0.367,-0.667 -0.733,-1.233 -1.1,-1.7 -0.6,-0.733 -1.083,-1.217 -1.45,-1.45 0.367,1.267 0.567,3.333 0.6,6.2 0.133,10.5 0.083,16.5 -0.15,18 -0.067,0.5 -0.333,1.283 -0.8,2.35 C 1.117,-3.65 0.767,-2.733 0.6,-2.2 0.2,-1 0,-0.267 0,0 Z"
   id="path24"
   inkscape:connector-curvature="0" />
	</g>
</symbol>
<linearGradient
   id="SVGID_3_"
   gradientUnits="userSpaceOnUse"
   x1="0"
   y1="22.9814"
   x2="24.174999"
   y2="22.9814">
	<stop
   offset="0"
   style="stop-color:#EB6B44"
   id="stop28" />
	<stop
   offset="1"
   style="stop-color:#662111"
   id="stop30" />
</linearGradient>

<linearGradient
   id="SVGID_4_"
   gradientUnits="userSpaceOnUse"
   x1="0.64990002"
   y1="22.806601"
   x2="23.3496"
   y2="22.806601">
	<stop
   offset="0"
   style="stop-color:#C44822"
   id="stop35" />
	<stop
   offset="1"
   style="stop-color:#7D2512"
   id="stop37" />
</linearGradient>

<linearGradient
   id="SVGID_5_"
   gradientUnits="userSpaceOnUse"
   x1="0.75"
   y1="26.0732"
   x2="16.049999"
   y2="26.0732">
	<stop
   offset="0"
   style="stop-color:#EDD144"
   id="stop42" />
	<stop
   offset="0.1882"
   style="stop-color:#E5C841"
   id="stop44" />
	<stop
   offset="0.4941"
   style="stop-color:#D1AF38"
   id="stop46" />
	<stop
   offset="0.8784"
   style="stop-color:#AF872B"
   id="stop48" />
	<stop
   offset="1"
   style="stop-color:#A37926"
   id="stop50" />
</linearGradient>

<linearGradient
   id="SVGID_6_"
   gradientUnits="userSpaceOnUse"
   x1="1.2998"
   y1="26.2637"
   x2="15.2748"
   y2="26.2637">
	<stop
   offset="0"
   style="stop-color:#79C22F"
   id="stop55" />
	<stop
   offset="0.1686"
   style="stop-color:#73B92D"
   id="stop57" />
	<stop
   offset="0.4471"
   style="stop-color:#64A027"
   id="stop59" />
	<stop
   offset="0.8"
   style="stop-color:#4C781D"
   id="stop61" />
	<stop
   offset="1"
   style="stop-color:#3C5E16"
   id="stop63" />
</linearGradient>

<linearGradient
   id="SVGID_7_"
   gradientUnits="userSpaceOnUse"
   x1="0.75"
   y1="21.9561"
   x2="16.049999"
   y2="21.9561">
	<stop
   offset="0"
   style="stop-color:#EDD144"
   id="stop68" />
	<stop
   offset="0.1882"
   style="stop-color:#E5C841"
   id="stop70" />
	<stop
   offset="0.4941"
   style="stop-color:#D1AF38"
   id="stop72" />
	<stop
   offset="0.8784"
   style="stop-color:#AF872B"
   id="stop74" />
	<stop
   offset="1"
   style="stop-color:#A37926"
   id="stop76" />
</linearGradient>

<linearGradient
   id="SVGID_8_"
   gradientUnits="userSpaceOnUse"
   x1="4.4375"
   y1="22.012699"
   x2="10.0625"
   y2="22.012699">
	<stop
   offset="0"
   style="stop-color:#C44822"
   id="stop81" />
	<stop
   offset="1"
   style="stop-color:#7D2512"
   id="stop83" />
</linearGradient>

<linearGradient
   id="SVGID_9_"
   gradientUnits="userSpaceOnUse"
   x1="2.5752001"
   y1="28.836901"
   x2="8.8252001"
   y2="28.836901">
	<stop
   offset="0"
   style="stop-color:#C44822"
   id="stop88" />
	<stop
   offset="1"
   style="stop-color:#7D2512"
   id="stop90" />
</linearGradient>

<linearGradient
   id="SVGID_10_"
   gradientUnits="userSpaceOnUse"
   x1="6.7251"
   y1="29.730499"
   x2="12.7751"
   y2="29.730499">
	<stop
   offset="0"
   style="stop-color:#C44822"
   id="stop95" />
	<stop
   offset="1"
   style="stop-color:#7D2512"
   id="stop97" />
</linearGradient>




<linearGradient
   id="SVGID_11_"
   gradientUnits="userSpaceOnUse"
   x1="3.2997999"
   y1="6"
   x2="20.774799"
   y2="6">
	<stop
   offset="0"
   style="stop-color:#C44822"
   id="stop108" />
	<stop
   offset="1"
   style="stop-color:#96301A"
   id="stop110" />
</linearGradient>

<linearGradient
   id="SVGID_12_"
   gradientUnits="userSpaceOnUse"
   x1="3.0497999"
   y1="5.5249"
   x2="21.25"
   y2="5.5249">
	<stop
   offset="0"
   style="stop-color:#6E6E6E"
   id="stop115" />
	<stop
   offset="0.3255"
   style="stop-color:#C7C7C7"
   id="stop117" />
	<stop
   offset="0.4549"
   style="stop-color:#BEBEBE"
   id="stop119" />
	<stop
   offset="0.6627"
   style="stop-color:#A5A5A5"
   id="stop121" />
	<stop
   offset="0.9255"
   style="stop-color:#7D7D7D"
   id="stop123" />
	<stop
   offset="1"
   style="stop-color:#707070"
   id="stop125" />
</linearGradient>


<linearGradient
   id="SVGID_13_"
   gradientUnits="userSpaceOnUse"
   x1="3.25"
   y1="4.2997999"
   x2="20.924999"
   y2="4.2997999">
	<stop
   offset="0"
   style="stop-color:#B3B3B3"
   id="stop132" />
	<stop
   offset="0.2314"
   style="stop-color:#E8E8E8"
   id="stop134" />
	<stop
   offset="0.3647"
   style="stop-color:#DFDFDF"
   id="stop136" />
	<stop
   offset="0.5882"
   style="stop-color:#C6C6C6"
   id="stop138" />
	<stop
   offset="0.8706"
   style="stop-color:#9E9E9E"
   id="stop140" />
	<stop
   offset="1"
   style="stop-color:#898989"
   id="stop142" />
</linearGradient>

<linearGradient
   id="SVGID_14_"
   gradientUnits="userSpaceOnUse"
   x1="-19.399401"
   y1="-2.5801001"
   x2="-3.3813"
   y2="-2.5801001"
   gradientTransform="matrix(-0.9973,0.0734,-0.0734,-0.9973,-3.074706e-4,4.560053e-4)">
	<stop
   offset="0"
   style="stop-color:#C9C9C9"
   id="stop147" />
	<stop
   offset="0.6039"
   style="stop-color:#D2D2D2"
   id="stop149" />
	<stop
   offset="1"
   style="stop-color:#DBDBDB"
   id="stop151" />
</linearGradient>



<g
   id="g995"
   transform="matrix(6.4058806,0,0,6.4058806,50.488845,-1.8001515e-7)"><path
     id="path33"
     d="m 22.3,9.7 c 0.7,0.733 1.167,1.433 1.4,2.1 0.333,0.833 0.5,1.934 0.5,3.3 0,1.333 -0.117,4.533 -0.351,9.6 -0.233,4.833 -0.399,7.7 -0.5,8.6 -0.1,1.066 -0.566,2.101 -1.399,3.101 -1.101,1.366 -2.717,2.35 -4.85,2.949 -1.7,0.467 -3.367,0.667 -5,0.601 C 10.467,40.017 8.783,39.817 7.05,39.35 4.917,38.75 3.3,37.767 2.2,36.4 1.367,35.4 0.916,34.366 0.85,33.299 0.75,32.4 0.583,29.532 0.35,24.699 0.117,19.633 0,16.433 0,15.1 0,13.733 0.167,12.633 0.5,11.8 0.733,11.167 1.183,10.467 1.85,9.7 3.05,8.433 3.967,7.2 4.6,6 L 12.1,6.4 19.6,6 c 0.7,1.267 1.6,2.5 2.7,3.7 z"
     style="clip-rule:evenodd;fill:url(#SVGID_3_);fill-rule:evenodd"
     inkscape:connector-curvature="0" /><path
     id="path40"
     d="m 21.6,9.9 c 0.634,0.733 1.084,1.417 1.351,2.05 0.267,0.8 0.399,1.867 0.399,3.2 0,1.233 -0.116,4.35 -0.35,9.35 -0.2,4.434 -0.333,7.217 -0.4,8.35 -0.1,1.067 -0.533,2.067 -1.3,3 -1.033,1.334 -2.55,2.284 -4.55,2.851 -1.667,0.467 -3.25,0.666 -4.75,0.6 -1.533,0.066 -3.1,-0.133 -4.7,-0.6 C 5.3,38.135 3.783,37.184 2.75,35.85 1.95,34.884 1.517,33.884 1.45,32.85 1.383,32.017 1.233,29.233 1,24.5 0.767,19.6 0.65,16.483 0.65,15.15 0.65,13.817 0.8,12.75 1.1,11.95 1.333,11.317 1.767,10.633 2.4,9.9 3.6,8.6 4.45,7.4 4.95,6.3 L 12,6.7 19.05,6.3 c 0.667,1.233 1.516,2.433 2.55,3.6 z"
     style="clip-rule:evenodd;fill:url(#SVGID_4_);fill-rule:evenodd"
     inkscape:connector-curvature="0" /><path
     id="path53"
     d="m 13,21.55 c 1.733,0 2.8,-0.083 3.2,-0.25 l -0.05,12.25 c -1.667,0.7 -4.533,0.834 -8.6,0.4 C 5.317,33.717 3.633,33.167 2.5,32.3 L 1.45,31.1 0.8,20.1 c 0.267,0.2 0.817,0.4 1.65,0.601 -0.1,-0.867 0.267,-1.583 1.1,-2.15 0.8,-0.566 2.383,-0.733 4.75,-0.5 2.534,0.233 4.05,0.917 4.55,2.05 0.267,0.566 0.317,1.049 0.15,1.449 z"
     style="clip-rule:evenodd;fill:url(#SVGID_5_);fill-rule:evenodd"
     inkscape:connector-curvature="0" /><path
     id="path66"
     d="m 12.35,22.2 c 1.6,0 2.583,-0.084 2.95,-0.25 L 15.2,33 c -0.367,0.167 -0.967,0.3 -1.8,0.4 C 11.733,33.633 9.75,33.616 7.45,33.349 5.383,33.116 3.833,32.616 2.8,31.849 L 1.9,30.8 1.3,20.9 c 0.233,0.166 0.733,0.333 1.5,0.5 -0.1,-0.733 0.233,-1.367 1,-1.9 0.767,-0.5 2.2,-0.65 4.3,-0.45 2.3,0.2 3.683,0.817 4.15,1.851 0.2,0.499 0.233,0.932 0.1,1.299 z"
     style="clip-rule:evenodd;fill:url(#SVGID_6_);fill-rule:evenodd"
     inkscape:connector-curvature="0" /><path
     id="path79"
     d="m 7.85,19.85 c 1.333,0.133 2.283,0.5 2.85,1.1 0.5,0.566 0.6,1.25 0.3,2.05 -0.3,0.8 -1.483,1.167 -3.55,1.1 C 5.383,24.034 4.166,23.517 3.8,22.55 3,20.483 4.35,19.583 7.85,19.85 Z"
     style="clip-rule:evenodd;fill:url(#SVGID_7_);fill-rule:evenodd"
     inkscape:connector-curvature="0" /><path
     id="path86"
     d="m 7.65,20.35 c 1,0.101 1.684,0.384 2.05,0.851 0.367,0.434 0.45,0.967 0.25,1.6 -0.2,0.667 -1.067,0.967 -2.6,0.9 C 5.783,23.635 4.867,23.218 4.6,22.451 4.033,20.85 5.05,20.15 7.65,20.35 Z"
     style="clip-rule:evenodd;fill:url(#SVGID_8_);fill-rule:evenodd"
     inkscape:connector-curvature="0" /><path
     id="path93"
     d="m 6.55,26.45 c 1.434,0.533 2.2,1.316 2.3,2.35 0.1,1.034 -0.467,1.8 -1.7,2.3 C 5.983,31.6 4.917,31.567 3.95,31 3.016,30.467 2.567,29.667 2.6,28.6 c 0.066,-0.966 0.55,-1.649 1.45,-2.05 0.833,-0.4 1.667,-0.434 2.5,-0.1 z"
     style="clip-rule:evenodd;fill:url(#SVGID_9_);fill-rule:evenodd"
     inkscape:connector-curvature="0" /><path
     id="path100"
     d="m 10.6,27.35 c 1.667,0.534 2.383,1.517 2.15,2.95 -0.2,1.367 -0.933,2.033 -2.2,2 -2.2,-0.066 -3.45,-0.684 -3.75,-1.85 -0.233,-0.834 0.017,-1.634 0.75,-2.4 0.8,-0.866 1.817,-1.1 3.05,-0.7 z"
     style="clip-rule:evenodd;fill:url(#SVGID_10_);fill-rule:evenodd"
     inkscape:connector-curvature="0" /><use
     id="use102"
     style="overflow:visible;opacity:0.57810005;enable-background:new"
     transform="matrix(1,0,0,-1,2.2002,222.33652)"
     y="-31.5"
     height="31.5"
     width="5.3000002"
     xlink:href="#flash0.ai_x5F_8_x2F_Layer_12_x2F__x3C_Path_x3E__x5F_10"
     x="0" /><use
     id="use104"
     style="overflow:visible;opacity:0.21089998;enable-background:new"
     transform="matrix(1,0,0,-1,16.8999,222.33652)"
     y="-31.5"
     height="31.5"
     width="5.25"
     xlink:href="#flash0.ai_x5F_8_x2F_Layer_12_x2F__x3C_Path_x3E__x5F_9"
     x="0" /><use
     id="use106"
     style="overflow:visible;opacity:0.67189995;enable-background:new"
     transform="matrix(1,0,0,-1,4.0498,222.03672)"
     y="-3.112"
     height="3.112"
     width="16.5"
     xlink:href="#flash0.ai_x5F_8_x2F_Layer_12_x2F__x3C_Path_x3E__x5F_8"
     x="0" /><path
     id="path113"
     d="m 20.8,6 c 0,0.567 -0.85,1.05 -2.55,1.45 -1.7,0.4 -3.767,0.6 -6.2,0.6 C 9.65,8.05 7.6,7.85 5.9,7.45 4.167,7.05 3.3,6.567 3.3,6 3.3,5.433 4.167,4.95 5.9,4.55 c 1.7,-0.4 3.75,-0.6 6.15,-0.6 2.4,0 4.467,0.2 6.2,0.6 1.7,0.4 2.55,0.883 2.55,1.45 z"
     style="clip-rule:evenodd;fill:url(#SVGID_11_);fill-rule:evenodd"
     inkscape:connector-curvature="0" /><path
     id="path128"
     d="m 21.25,5.55 c 0,0.567 -0.884,1.034 -2.65,1.4 -1.8,0.4 -3.95,0.6 -6.45,0.6 C 9.617,7.55 7.467,7.35 5.7,6.95 3.933,6.583 3.05,6.117 3.05,5.55 3.05,4.984 3.933,4.5 5.7,4.1 7.467,3.7 9.617,3.5 12.15,3.5 c 2.5,0 4.65,0.2 6.45,0.6 1.766,0.4 2.65,0.883 2.65,1.45 z"
     style="clip-rule:evenodd;fill:url(#SVGID_12_);fill-rule:evenodd"
     inkscape:connector-curvature="0" /><path
     id="path130"
     d="M 20.95,1.8 V 5.2 C 20.917,5.6 20.033,5.933 18.3,6.2 16.6,6.467 14.533,6.6 12.1,6.6 9.666,6.6 7.6,6.467 5.9,6.2 4.2,5.933 3.317,5.6 3.25,5.2 V 1.8 Z"
     style="clip-rule:evenodd;fill:#0304d6;fill-rule:evenodd"
     inkscape:connector-curvature="0" /><path
     id="path145"
     d="M 20.95,1.65 V 5.2 C 20.884,5.633 20,6.033 18.3,6.4 16.5,6.767 14.433,6.95 12.1,6.95 9.767,6.95 7.7,6.766 5.9,6.4 4.2,6.033 3.317,5.633 3.25,5.2 V 1.65 Z"
     style="clip-rule:evenodd;fill:url(#SVGID_13_);fill-rule:evenodd"
     inkscape:connector-curvature="0" /><path
     id="path154"
     d="m 20.9,1.7 c 0,0.466 -0.867,0.867 -2.601,1.2 -1.7,0.333 -3.767,0.5 -6.2,0.5 C 9.632,3.4 7.549,3.233 5.849,2.9 4.116,2.567 3.249,2.167 3.249,1.7 3.249,1.233 4.116,0.833 5.849,0.5 7.55,0.167 9.633,0 12.1,0 c 2.433,0 4.5,0.167 6.2,0.5 1.733,0.333 2.6,0.733 2.6,1.2 z"
     style="clip-rule:evenodd;fill:url(#SVGID_14_);fill-rule:evenodd"
     inkscape:connector-curvature="0" /><use
     id="use156"
     style="overflow:visible;opacity:0.48050005;enable-background:new"
     transform="matrix(1,0,0,-1,4.2998,222.83652)"
     y="-1.206"
     x="0.028000001"
     height="1.206"
     width="9.4720001"
     xlink:href="#flash0.ai_x5F_8_x2F_Layer_12_x2F__x3C_Path_x3E__x5F_2" /><path
     id="path158"
     d="m 4.55,36.35 c 0.7,0.367 1.117,0.75 1.25,1.15 0.133,0.366 0.05,0.55 -0.25,0.55 -0.433,0 -1.066,-0.383 -1.9,-1.149 -0.367,-0.367 -0.4,-0.601 -0.1,-0.7 0.3,-0.135 0.633,-0.085 1,0.149 z"
     style="clip-rule:evenodd;fill:#f9e2c9;fill-rule:evenodd"
     inkscape:connector-curvature="0" /><path
     id="path160"
     d="M 7.25,37.7 C 7.717,37.8 7.833,37.983 7.6,38.25 7.367,38.517 7.167,38.566 7,38.4 6.833,38.266 6.75,38.099 6.75,37.9 6.717,37.7 6.883,37.634 7.25,37.7 Z"
     style="clip-rule:evenodd;fill:#f9e2c9;fill-rule:evenodd"
     inkscape:connector-curvature="0" /></g>
</svg>