<?xml version="1.0" encoding="UTF-8" standalone="no"?>
<!-- Generator: Adobe Illustrator 15.1.0, SVG Export Plug-In . SVG Version: 6.00 Build 0)  -->

<svg
   xmlns:dc="http://purl.org/dc/elements/1.1/"
   xmlns:cc="http://creativecommons.org/ns#"
   xmlns:rdf="http://www.w3.org/1999/02/22-rdf-syntax-ns#"
   xmlns:svg="http://www.w3.org/2000/svg"
   xmlns="http://www.w3.org/2000/svg"
   xmlns:xlink="http://www.w3.org/1999/xlink"
   xmlns:sodipodi="http://sodipodi.sourceforge.net/DTD/sodipodi-0.dtd"
   xmlns:inkscape="http://www.inkscape.org/namespaces/inkscape"
   version="1.1"
   id="flash0.ai"
   x="0px"
   y="0px"
   width="256"
   height="256"
   viewBox="0 0 256 256"
   xml:space="preserve"
   sodipodi:docname="secret_sauce.svg"
   inkscape:version="0.92.4 (5da689c313, 2019-01-14)"
   inkscape:export-filename="C:\Users\antum\Development\game-resources\icon\CC0\food\individual\Glitch\32x32\condiment\sauce_secret.png"
   inkscape:export-xdpi="10.5"
   inkscape:export-ydpi="10.5"><title
   id="title944">Secret Sauce</title><metadata
   id="metadata137"><rdf:RDF><cc:Work
       rdf:about=""><dc:format>image/svg+xml</dc:format><dc:type
         rdf:resource="http://purl.org/dc/dcmitype/StillImage" /><dc:title>Secret Sauce</dc:title><cc:license
         rdf:resource="http://creativecommons.org/publicdomain/zero/1.0/" /><dc:creator><cc:Agent><dc:title>Glitch</dc:title></cc:Agent></dc:creator><dc:source>https://opengameart.org/node/20149</dc:source></cc:Work><cc:License
       rdf:about="http://creativecommons.org/publicdomain/zero/1.0/"><cc:permits
         rdf:resource="http://creativecommons.org/ns#Reproduction" /><cc:permits
         rdf:resource="http://creativecommons.org/ns#Distribution" /><cc:permits
         rdf:resource="http://creativecommons.org/ns#DerivativeWorks" /></cc:License></rdf:RDF></metadata><defs
   id="defs135"><linearGradient
     inkscape:collect="always"
     xlink:href="#SVGID_1_"
     id="linearGradient982"
     gradientUnits="userSpaceOnUse"
     gradientTransform="matrix(0.0696,-0.9976,0.9976,0.0696,15752.902,549.4541)"
     x1="-544.94141"
     y1="-15751.136"
     x2="-519.78052"
     y2="-15751.136" /><linearGradient
     inkscape:collect="always"
     xlink:href="#SVGID_2_"
     id="linearGradient984"
     gradientUnits="userSpaceOnUse"
     x1="4.2182999"
     y1="-27.480499"
     x2="2.4683001"
     y2="-2.3805001" /></defs><sodipodi:namedview
   pagecolor="#ffffff"
   bordercolor="#666666"
   borderopacity="1"
   objecttolerance="10"
   gridtolerance="10"
   guidetolerance="10"
   inkscape:pageopacity="0"
   inkscape:pageshadow="2"
   inkscape:window-width="1920"
   inkscape:window-height="1025"
   id="namedview133"
   showgrid="false"
   inkscape:zoom="0.98278679"
   inkscape:cx="66.087215"
   inkscape:cy="41.537234"
   inkscape:window-x="-8"
   inkscape:window-y="-8"
   inkscape:window-maximized="1"
   inkscape:current-layer="flash0.ai"
   fit-margin-top="0"
   fit-margin-left="0"
   fit-margin-right="0"
   fit-margin-bottom="0" />
<symbol
   id="flash0.ai_x5F_8_x2F_Layer_37_copy_x2F__x3C_Path_x3E__x5F_10"
   viewBox="0 -31.45 5.25 31.45"
   transform="translate(0,216.03672)">
	<g
   id="Layer_1_2_">
		
			<linearGradient
   id="SVGID_1_"
   gradientUnits="userSpaceOnUse"
   x1="-544.94141"
   y1="-15751.136"
   x2="-519.78052"
   y2="-15751.136"
   gradientTransform="matrix(0.0696,-0.9976,0.9976,0.0696,15752.902,549.4541)">
			<stop
   offset="0"
   style="stop-color:#FFFFFF"
   id="stop2" />
			<stop
   offset="1"
   style="stop-color:#000000"
   id="stop4" />
		</linearGradient>
		<path
   style="clip-rule:evenodd;fill:url(#linearGradient982);fill-rule:evenodd"
   d="M 3.3,-0.5 5.25,0 C 5.25,-0.267 5.067,-1 4.7,-2.2 4.567,-2.667 4.2,-3.567 3.6,-4.9 3.133,-5.967 2.867,-6.767 2.8,-7.3 2.7,-7.9 2.65,-10.533 2.65,-15.2 c -0.033,-3.966 -0.033,-7.333 0,-10.1 0.067,-2.867 0.267,-4.917 0.6,-6.15 -0.333,0.2 -0.8,0.667 -1.4,1.4 -0.4,0.466 -0.767,1.033 -1.1,1.7 L 0.35,-27.5 0,-6.5 c 0.033,0.5 0.3,1.1 0.8,1.8 0.6,0.7 0.983,1.2 1.15,1.5 0.733,1.167 1.183,2.067 1.35,2.7 z"
   id="path7"
   inkscape:connector-curvature="0" />
	</g>
</symbol>
<symbol
   id="flash0.ai_x5F_8_x2F_Layer_37_copy_x2F__x3C_Path_x3E__x5F_2"
   viewBox="0.028 -1.2 9.472 1.2"
   transform="translate(0,216.03672)">
	<g
   id="Layer_1_5_">
		<path
   style="clip-rule:evenodd;fill:#ffffff;fill-rule:evenodd"
   d="m 0.45,-0.05 c 0.633,-0.2 1.667,-0.4 3.1,-0.6 C 5.35,-0.917 7.333,-1.033 9.5,-1 9.433,-1.2 8.35,-1.25 6.25,-1.15 3.583,-1.05 1.6,-0.767 0.3,-0.3 c -0.233,0.1 -0.317,0.183 -0.25,0.25 0.067,0.067 0.2,0.067 0.4,0 z"
   id="path11"
   inkscape:connector-curvature="0" />
	</g>
</symbol>
<symbol
   id="flash0.ai_x5F_8_x2F_Layer_37_copy_x2F__x3C_Path_x3E__x5F_8"
   viewBox="0 -3.112 16.45 3.112"
   transform="translate(0,216.03672)">
	<g
   id="Layer_1_4_">
		<path
   style="clip-rule:evenodd;fill:#94894d;fill-rule:evenodd"
   d="m 15.55,0 0.9,-1.45 C 14.983,-2.65 12.416,-3.2 8.75,-3.1 4.617,-3 1.7,-2.25 0,-0.85 L 0.5,0 8.05,-0.35 Z"
   id="path15"
   inkscape:connector-curvature="0" />
	</g>
</symbol>
<symbol
   id="flash0.ai_x5F_8_x2F_Layer_37_copy_x2F__x3C_Path_x3E__x5F_9"
   viewBox="0 -31.45 5.25 31.45"
   transform="translate(0,216.03672)">
	<g
   id="Layer_1_3_">
		<linearGradient
   id="SVGID_2_"
   gradientUnits="userSpaceOnUse"
   x1="4.2182999"
   y1="-27.480499"
   x2="2.4683001"
   y2="-2.3805001">
			<stop
   offset="0"
   style="stop-color:#FFFFFF"
   id="stop19" />
			<stop
   offset="1"
   style="stop-color:#000000"
   id="stop21" />
		</linearGradient>
		<path
   style="clip-rule:evenodd;fill:url(#linearGradient984);fill-rule:evenodd"
   d="M 1.95,-0.5 C 2.117,-1.133 2.567,-2.033 3.3,-3.2 3.5,-3.5 3.883,-4 4.45,-4.7 4.95,-5.4 5.217,-6 5.25,-6.5 l -0.3,-21 -0.4,-0.85 c -0.367,-0.667 -0.733,-1.233 -1.1,-1.7 -0.6,-0.733 -1.083,-1.2 -1.45,-1.4 0.367,1.233 0.567,3.284 0.6,6.15 0.133,10.5 0.083,16.5 -0.15,18 C 2.383,-6.8 2.117,-6 1.65,-4.9 1.117,-3.6 0.767,-2.7 0.6,-2.2 0.2,-1 0,-0.267 0,0 Z"
   id="path24"
   inkscape:connector-curvature="0" />
	</g>
</symbol>
<linearGradient
   id="SVGID_3_"
   gradientUnits="userSpaceOnUse"
   x1="0"
   y1="22.9814"
   x2="24.174999"
   y2="22.9814">
	<stop
   offset="0"
   style="stop-color:#FFFFF0"
   id="stop28" />
	<stop
   offset="1"
   style="stop-color:#918649"
   id="stop30" />
</linearGradient>

<linearGradient
   id="SVGID_4_"
   gradientUnits="userSpaceOnUse"
   x1="0.64990002"
   y1="22.806601"
   x2="23.3496"
   y2="22.806601">
	<stop
   offset="0"
   style="stop-color:#F5F3A7"
   id="stop35" />
	<stop
   offset="1"
   style="stop-color:#B3A662"
   id="stop37" />
</linearGradient>















<linearGradient
   id="SVGID_5_"
   gradientUnits="userSpaceOnUse"
   x1="0.70020002"
   y1="25.0254"
   x2="23.2752"
   y2="25.0254">
	<stop
   offset="0"
   style="stop-color:#5CF261"
   id="stop70" />
	<stop
   offset="1"
   style="stop-color:#278029"
   id="stop72" />
</linearGradient>

<linearGradient
   id="SVGID_6_"
   gradientUnits="userSpaceOnUse"
   x1="6.9790001"
   y1="23.628901"
   x2="15.7421"
   y2="23.628901"
   gradientTransform="matrix(0.9928,0.1198,-0.1198,0.9928,-1.889467e-5,-4.252642e-4)">
	<stop
   offset="0"
   style="stop-color:#F5F5F5"
   id="stop77" />
	<stop
   offset="1"
   style="stop-color:#D4D4D4"
   id="stop79" />
</linearGradient>

<linearGradient
   id="SVGID_7_"
   gradientUnits="userSpaceOnUse"
   x1="5.4408998"
   y1="30.508801"
   x2="14.1802"
   y2="30.508801"
   gradientTransform="matrix(0.9984,0.0572,-0.0572,0.9984,-1.663938e-4,4.033372e-4)">
	<stop
   offset="0"
   style="stop-color:#F5F5F5"
   id="stop84" />
	<stop
   offset="1"
   style="stop-color:#D4D4D4"
   id="stop86" />
</linearGradient>




<linearGradient
   id="SVGID_8_"
   gradientUnits="userSpaceOnUse"
   x1="3.2997999"
   y1="6"
   x2="20.774799"
   y2="6">
	<stop
   offset="0"
   style="stop-color:#FFFFF0"
   id="stop97" />
	<stop
   offset="1"
   style="stop-color:#918649"
   id="stop99" />
</linearGradient>

<linearGradient
   id="SVGID_9_"
   gradientUnits="userSpaceOnUse"
   x1="3.0497999"
   y1="5.5249"
   x2="21.25"
   y2="5.5249">
	<stop
   offset="0"
   style="stop-color:#51D656"
   id="stop104" />
	<stop
   offset="0.2549"
   style="stop-color:#5FFF63"
   id="stop106" />
	<stop
   offset="1"
   style="stop-color:#247827"
   id="stop108" />
</linearGradient>


<linearGradient
   id="SVGID_10_"
   gradientUnits="userSpaceOnUse"
   x1="3.25"
   y1="4.2754002"
   x2="20.924999"
   y2="4.2754002">
	<stop
   offset="0"
   style="stop-color:#5CF261"
   id="stop115" />
	<stop
   offset="0.2549"
   style="stop-color:#5FFF63"
   id="stop117" />
	<stop
   offset="1"
   style="stop-color:#2C912F"
   id="stop119" />
</linearGradient>




<g
   id="g976"
   transform="matrix(6.4058806,0,0,6.4058806,50.488845,-1.8001515e-7)"><path
     id="path33"
     d="m 22.3,9.7 c 0.7,0.733 1.167,1.433 1.4,2.1 0.333,0.833 0.5,1.934 0.5,3.3 0,1.333 -0.117,4.533 -0.351,9.6 -0.233,4.8 -0.399,7.666 -0.5,8.6 -0.1,1.066 -0.566,2.101 -1.399,3.101 -1.1,1.366 -2.717,2.35 -4.85,2.949 -1.7,0.467 -3.367,0.667 -5,0.601 C 10.467,40.017 8.783,39.817 7.05,39.35 4.917,38.75 3.3,37.767 2.2,36.4 1.367,35.4 0.916,34.366 0.85,33.299 0.75,32.365 0.583,29.499 0.35,24.699 0.117,19.633 0,16.433 0,15.1 0,13.7 0.15,12.6 0.45,11.8 0.717,11.133 1.183,10.433 1.85,9.7 3.25,8.166 4.15,6.933 4.55,6 L 12.1,6.35 19.6,6 c 0.633,1.167 1.534,2.4 2.7,3.7 z"
     style="clip-rule:evenodd;fill:url(#SVGID_3_);fill-rule:evenodd"
     inkscape:connector-curvature="0" /><path
     id="path40"
     d="m 21.6,9.9 c 0.634,0.7 1.067,1.383 1.301,2.05 0.3,0.8 0.449,1.867 0.449,3.2 0,1.233 -0.116,4.35 -0.35,9.35 -0.2,4.366 -0.333,7.15 -0.4,8.35 -0.1,1.034 -0.533,2.034 -1.3,3 -1.066,1.334 -2.6,2.284 -4.6,2.851 -1.6,0.467 -3.167,0.666 -4.7,0.6 -1.533,0.066 -3.1,-0.133 -4.7,-0.6 C 5.3,38.135 3.783,37.184 2.75,35.85 1.95,34.884 1.517,33.884 1.45,32.85 1.383,31.983 1.233,29.2 1,24.5 0.767,19.6 0.65,16.483 0.65,15.15 0.65,13.817 0.8,12.75 1.1,11.95 1.333,11.283 1.767,10.6 2.4,9.9 3.7,8.367 4.55,7.167 4.95,6.3 L 12,6.7 19.05,6.3 c 0.4,0.867 1.25,2.067 2.55,3.6 z"
     style="clip-rule:evenodd;fill:url(#SVGID_4_);fill-rule:evenodd"
     inkscape:connector-curvature="0" /><path
     id="path42"
     d="m 6.45,12.75 c 0.6,0 0.8,0.167 0.6,0.5 C 6.85,13.583 6.567,13.7 6.2,13.6 5.933,13.567 5.85,13.416 5.95,13.15 c 0.1,-0.267 0.267,-0.4 0.5,-0.4 z"
     style="clip-rule:evenodd;fill:#757369;fill-rule:evenodd"
     inkscape:connector-curvature="0" /><path
     id="path44"
     d="m 10.95,14.2 c 0.767,-0.034 1.15,0.133 1.15,0.5 0,0.4 -0.3,0.583 -0.9,0.55 -0.5,-0.033 -0.75,-0.217 -0.75,-0.55 0,-0.333 0.167,-0.5 0.5,-0.5 z"
     style="clip-rule:evenodd;fill:#757369;fill-rule:evenodd"
     inkscape:connector-curvature="0" /><path
     id="path46"
     d="m 7.05,17.25 c 0.434,-0.133 0.65,0.017 0.65,0.45 0,0.4 -0.2,0.6 -0.6,0.6 -0.367,0 -0.533,-0.15 -0.5,-0.45 0.033,-0.3 0.183,-0.5 0.45,-0.6 z"
     style="clip-rule:evenodd;fill:#757369;fill-rule:evenodd"
     inkscape:connector-curvature="0" /><path
     id="path48"
     d="M 2.3,14.45 C 2.633,14.617 2.7,14.833 2.5,15.1 2.333,15.4 2.133,15.5 1.9,15.4 1.667,15.334 1.617,15.133 1.75,14.8 1.883,14.433 2.067,14.317 2.3,14.45 Z"
     style="clip-rule:evenodd;fill:#757369;fill-rule:evenodd"
     inkscape:connector-curvature="0" /><path
     id="path50"
     d="m 10.55,11.85 c 0.4,-0.033 0.583,0.117 0.55,0.45 0,0.3 -0.217,0.45 -0.65,0.45 -0.367,0 -0.517,-0.15 -0.45,-0.45 0.1,-0.267 0.283,-0.417 0.55,-0.45 z"
     style="clip-rule:evenodd;fill:#757369;fill-rule:evenodd"
     inkscape:connector-curvature="0" /><path
     id="path52"
     d="m 17.25,10.85 c 0.267,0.2 0.417,0.533 0.45,1 0,0.5 -0.25,0.633 -0.75,0.4 -0.534,-0.233 -0.717,-0.583 -0.55,-1.05 0.167,-0.467 0.45,-0.583 0.85,-0.35 z"
     style="clip-rule:evenodd;fill:#757369;fill-rule:evenodd"
     inkscape:connector-curvature="0" /><path
     id="path54"
     d="m 19.65,14.2 c 0.267,0.133 0.3,0.383 0.1,0.75 -0.2,0.4 -0.433,0.517 -0.7,0.35 -0.3,-0.133 -0.367,-0.4 -0.2,-0.8 0.167,-0.4 0.433,-0.5 0.8,-0.3 z"
     style="clip-rule:evenodd;fill:#757369;fill-rule:evenodd"
     inkscape:connector-curvature="0" /><path
     id="path56"
     d="M 6.85,9.05 C 7.217,9.017 7.4,9.15 7.4,9.45 7.367,9.783 7.15,9.916 6.75,9.85 6.417,9.817 6.3,9.683 6.4,9.45 6.5,9.217 6.65,9.083 6.85,9.05 Z"
     style="clip-rule:evenodd;fill:#757369;fill-rule:evenodd"
     inkscape:connector-curvature="0" /><path
     id="path58"
     d="m 5.6,33.25 c 0.433,0.267 0.467,0.467 0.1,0.6 -0.367,0.167 -0.65,0.167 -0.85,0 -0.167,-0.133 -0.15,-0.3 0.05,-0.5 0.2,-0.234 0.433,-0.267 0.7,-0.1 z"
     style="clip-rule:evenodd;fill:#757369;fill-rule:evenodd"
     inkscape:connector-curvature="0" /><path
     id="path60"
     d="m 7.6,35.8 c 0.467,0.134 0.633,0.334 0.5,0.601 -0.167,0.233 -0.45,0.3 -0.85,0.199 -0.367,-0.066 -0.5,-0.25 -0.4,-0.55 0.1,-0.3 0.35,-0.383 0.75,-0.25 z"
     style="clip-rule:evenodd;fill:#757369;fill-rule:evenodd"
     inkscape:connector-curvature="0" /><path
     id="path62"
     d="m 18.15,32.35 c 0.4,-0.033 0.567,0.101 0.5,0.4 -0.1,0.333 -0.333,0.5 -0.7,0.5 -0.333,0 -0.467,-0.15 -0.4,-0.45 0.067,-0.267 0.267,-0.416 0.6,-0.45 z"
     style="clip-rule:evenodd;fill:#757369;fill-rule:evenodd"
     inkscape:connector-curvature="0" /><path
     id="path64"
     d="m 20.65,34.2 c 0.333,-0.033 0.417,0.1 0.25,0.399 -0.167,0.334 -0.367,0.5 -0.6,0.5 -0.233,0 -0.3,-0.149 -0.2,-0.449 0.067,-0.266 0.25,-0.417 0.55,-0.45 z"
     style="clip-rule:evenodd;fill:#757369;fill-rule:evenodd"
     inkscape:connector-curvature="0" /><path
     id="path66"
     d="m 16.9,37 c 0.434,0.066 0.533,0.25 0.3,0.55 -0.233,0.3 -0.467,0.45 -0.7,0.45 -0.233,0 -0.317,-0.184 -0.25,-0.55 0.067,-0.367 0.283,-0.516 0.65,-0.45 z"
     style="clip-rule:evenodd;fill:#757369;fill-rule:evenodd"
     inkscape:connector-curvature="0" /><path
     id="path68"
     d="m 11.5,34 c 0.5,0.134 0.667,0.366 0.5,0.7 -0.2,0.366 -0.483,0.517 -0.85,0.45 C 10.817,35.116 10.7,34.9 10.8,34.5 10.9,34.1 11.133,33.934 11.5,34 Z"
     style="clip-rule:evenodd;fill:#757369;fill-rule:evenodd"
     inkscape:connector-curvature="0" /><path
     id="path75"
     d="m 0.7,17.9 c 3.066,0.934 6.733,1.4 11,1.4 4.6,0 8.466,-0.533 11.6,-1.6 -0.066,2.3 -0.25,6.416 -0.55,12.35 -3,1.533 -6.683,2.3 -11.05,2.3 -4.067,0 -7.534,-0.666 -10.4,-2 z"
     style="clip-rule:evenodd;fill:url(#SVGID_5_);fill-rule:evenodd"
     inkscape:connector-curvature="0" /><path
     id="path82"
     d="m 4.9,22.1 c 0.267,-0.899 0.85,-1.466 1.75,-1.7 1.067,-0.267 2.05,-0.283 2.95,-0.05 1,0.233 1.733,0.717 2.2,1.45 0.467,0.733 0.6,1.5 0.4,2.3 -0.167,0.733 -0.567,1.317 -1.2,1.75 -0.767,0.534 -1.417,0.851 -1.95,0.95 L 8.7,27.7 c -0.167,0.6 -0.067,0.916 0.3,0.95 0.6,0.066 0.783,-0.134 0.55,-0.601 l 0.4,0.2 c 0.233,0.167 0.316,0.35 0.25,0.55 -0.1,0.3 -0.417,0.517 -0.95,0.65 -0.6,0.133 -1.1,0.017 -1.5,-0.351 -0.967,-0.966 -1.033,-1.866 -0.2,-2.699 l 1.65,-1 c 0.667,-0.4 1.033,-0.95 1.1,-1.65 0.067,-0.8 -0.167,-1.4 -0.7,-1.8 -0.434,-0.4 -0.967,-0.567 -1.6,-0.5 -0.5,0.033 -0.967,0.2 -1.4,0.5 -0.4,0.3 -0.567,0.55 -0.5,0.75 L 6.2,23.1 6.75,23.05 c 0.367,0 0.65,0.117 0.85,0.351 0.2,0.267 0.283,0.433 0.25,0.5 C 7.817,23.967 7.533,24.233 7,24.7 6.767,24.933 6.45,24.967 6.05,24.8 5.683,24.634 5.35,24.35 5.05,23.95 4.683,23.517 4.633,22.9 4.9,22.1 Z"
     style="clip-rule:evenodd;fill:url(#SVGID_6_);fill-rule:evenodd"
     inkscape:connector-curvature="0" /><path
     id="path89"
     d="m 8.85,30.3 c 1.066,0.233 1.333,0.601 0.8,1.101 C 9.117,31.934 8.517,31.984 7.85,31.55 7.416,31.25 7.367,30.95 7.7,30.651 8,30.316 8.383,30.2 8.85,30.3 Z"
     style="clip-rule:evenodd;fill:url(#SVGID_7_);fill-rule:evenodd"
     inkscape:connector-curvature="0" /><use
     id="use91"
     style="overflow:visible;opacity:0.57810005;enable-background:new"
     transform="matrix(1,0,0,-1,2.2002,222.33652)"
     y="-31.450001"
     height="31.450001"
     width="5.25"
     xlink:href="#flash0.ai_x5F_8_x2F_Layer_37_copy_x2F__x3C_Path_x3E__x5F_10"
     x="0" /><use
     id="use93"
     style="overflow:visible;opacity:0.21089998;enable-background:new"
     transform="matrix(1,0,0,-1,16.8999,222.33652)"
     y="-31.450001"
     height="31.450001"
     width="5.25"
     xlink:href="#flash0.ai_x5F_8_x2F_Layer_37_copy_x2F__x3C_Path_x3E__x5F_9"
     x="0" /><use
     id="use95"
     style="overflow:visible;opacity:0.67189995;enable-background:new"
     transform="matrix(1,0,0,-1,4.0498,222.03672)"
     y="-3.112"
     height="3.112"
     width="16.450001"
     xlink:href="#flash0.ai_x5F_8_x2F_Layer_37_copy_x2F__x3C_Path_x3E__x5F_8"
     x="0" /><path
     id="path102"
     d="m 20.8,6 c 0,0.567 -0.85,1.05 -2.55,1.45 -1.7,0.4 -3.767,0.6 -6.2,0.6 C 9.65,8.05 7.6,7.85 5.9,7.45 4.167,7.05 3.3,6.567 3.3,6 3.3,5.433 4.167,4.95 5.9,4.55 c 1.7,-0.4 3.75,-0.6 6.15,-0.6 2.4,0 4.467,0.2 6.2,0.6 1.7,0.4 2.55,0.883 2.55,1.45 z"
     style="clip-rule:evenodd;fill:url(#SVGID_8_);fill-rule:evenodd"
     inkscape:connector-curvature="0" /><path
     id="path111"
     d="m 21.25,5.5 c 0,0.567 -0.883,1.05 -2.65,1.45 -1.8,0.4 -3.95,0.6 -6.45,0.6 C 9.617,7.55 7.467,7.35 5.7,6.95 3.933,6.55 3.05,6.067 3.05,5.5 3.05,4.933 3.933,4.467 5.7,4.1 7.467,3.7 9.617,3.5 12.15,3.5 c 2.5,0 4.65,0.2 6.45,0.6 1.767,0.4 2.65,0.867 2.65,1.4 z"
     style="clip-rule:evenodd;fill:url(#SVGID_9_);fill-rule:evenodd"
     inkscape:connector-curvature="0" /><path
     id="path113"
     d="M 20.95,1.8 V 5.2 H 20.9 C 20.867,5.567 19.983,5.9 18.25,6.2 16.517,6.467 14.467,6.6 12.1,6.6 9.7,6.6 7.633,6.467 5.9,6.2 4.2,5.9 3.317,5.567 3.25,5.2 V 1.8 Z"
     style="clip-rule:evenodd;fill:#0304d6;fill-rule:evenodd"
     inkscape:connector-curvature="0" /><path
     id="path122"
     d="M 20.95,1.6 V 5.2 H 20.9 C 20.834,5.633 19.95,6.033 18.25,6.4 16.483,6.767 14.433,6.95 12.1,6.95 9.733,6.95 7.666,6.766 5.9,6.4 4.2,6.033 3.317,5.633 3.25,5.2 V 1.6 Z"
     style="clip-rule:evenodd;fill:url(#SVGID_10_);fill-rule:evenodd"
     inkscape:connector-curvature="0" /><path
     id="path124"
     d="m 20.9,1.7 c 0,0.466 -0.867,0.867 -2.6,1.2 C 16.6,3.233 14.533,3.4 12.1,3.4 9.633,3.4 7.55,3.233 5.85,2.9 4.117,2.567 3.25,2.167 3.25,1.7 3.25,1.233 4.117,0.833 5.85,0.5 7.55,0.167 9.633,0 12.1,0 c 2.433,0 4.5,0.167 6.2,0.5 1.733,0.333 2.6,0.733 2.6,1.2 z"
     style="clip-rule:evenodd;fill:#5ffe63;fill-rule:evenodd"
     inkscape:connector-curvature="0" /><use
     id="use126"
     style="overflow:visible;opacity:0.48050005;enable-background:new"
     transform="matrix(1,0,0,-1,4.2998,222.83652)"
     y="-1.2"
     x="0.028000001"
     height="1.2"
     width="9.4720001"
     xlink:href="#flash0.ai_x5F_8_x2F_Layer_37_copy_x2F__x3C_Path_x3E__x5F_2" /><path
     id="path128"
     d="m 4.55,36.35 c 0.7,0.367 1.117,0.75 1.25,1.15 0.133,0.366 0.05,0.55 -0.25,0.55 -0.433,0 -1.066,-0.383 -1.9,-1.149 C 3.283,36.533 3.233,36.3 3.5,36.2 3.8,36.066 4.15,36.116 4.55,36.35 Z"
     style="clip-rule:evenodd;fill:#ffffff;fill-rule:evenodd"
     inkscape:connector-curvature="0" /><path
     id="path130"
     d="m 7.2,37.7 c 0.5,0.1 0.633,0.267 0.4,0.5 C 7.367,38.467 7.166,38.533 7,38.4 6.833,38.266 6.75,38.099 6.75,37.9 6.717,37.667 6.867,37.6 7.2,37.7 Z"
     style="clip-rule:evenodd;fill:#ffffff;fill-rule:evenodd"
     inkscape:connector-curvature="0" /></g>
</svg>