<?xml version="1.0" encoding="UTF-8" standalone="no"?>
<!-- Generator: Adobe Illustrator 15.1.0, SVG Export Plug-In . SVG Version: 6.00 Build 0)  -->

<svg
   xmlns:dc="http://purl.org/dc/elements/1.1/"
   xmlns:cc="http://creativecommons.org/ns#"
   xmlns:rdf="http://www.w3.org/1999/02/22-rdf-syntax-ns#"
   xmlns:svg="http://www.w3.org/2000/svg"
   xmlns="http://www.w3.org/2000/svg"
   xmlns:sodipodi="http://sodipodi.sourceforge.net/DTD/sodipodi-0.dtd"
   xmlns:inkscape="http://www.inkscape.org/namespaces/inkscape"
   version="1.1"
   id="flash0.ai"
   x="0px"
   y="0px"
   width="256"
   height="256"
   viewBox="0 0 256.00001 256"
   xml:space="preserve"
   sodipodi:docname="older_spice.svg"
   inkscape:version="0.92.4 (5da689c313, 2019-01-14)"
   inkscape:export-filename="C:\Users\antum\Development\game-resources\icon\CC0\food\individual\Glitch\32x32\condiment\spice_older.png"
   inkscape:export-xdpi="9"
   inkscape:export-ydpi="9"><title
   id="title986">Older Spice</title><metadata
   id="metadata179"><rdf:RDF><cc:Work
       rdf:about=""><dc:format>image/svg+xml</dc:format><dc:type
         rdf:resource="http://purl.org/dc/dcmitype/StillImage" /><dc:title>Older Spice</dc:title><cc:license
         rdf:resource="http://creativecommons.org/publicdomain/zero/1.0/" /><dc:creator><cc:Agent><dc:title>Glitch</dc:title></cc:Agent></dc:creator><dc:source>https://opengameart.org/node/20149</dc:source></cc:Work><cc:License
       rdf:about="http://creativecommons.org/publicdomain/zero/1.0/"><cc:permits
         rdf:resource="http://creativecommons.org/ns#Reproduction" /><cc:permits
         rdf:resource="http://creativecommons.org/ns#Distribution" /><cc:permits
         rdf:resource="http://creativecommons.org/ns#DerivativeWorks" /></cc:License></rdf:RDF></metadata><defs
   id="defs177" /><sodipodi:namedview
   pagecolor="#ffffff"
   bordercolor="#666666"
   borderopacity="1"
   objecttolerance="10"
   gridtolerance="10"
   guidetolerance="10"
   inkscape:pageopacity="0"
   inkscape:pageshadow="2"
   inkscape:window-width="1920"
   inkscape:window-height="1025"
   id="namedview175"
   showgrid="false"
   inkscape:zoom="1.1160059"
   inkscape:cx="138.27846"
   inkscape:cy="5.4672994"
   inkscape:window-x="-8"
   inkscape:window-y="-8"
   inkscape:window-maximized="1"
   inkscape:current-layer="flash0.ai"
   fit-margin-top="0"
   fit-margin-left="0"
   fit-margin-right="0"
   fit-margin-bottom="0" />





















































































<g
   id="g1074"
   transform="matrix(5.4634945,0,0,5.4634945,0.01426829,78.730987)"><path
     id="path2"
     d="m 44.5,8.9 c 0.4,0.133 0.616,0.3 0.65,0.5 -0.967,0.833 -1.667,1.184 -2.101,1.05 -0.233,-0.067 -0.416,0.066 -0.55,0.4 -0.233,0.433 -0.566,0.75 -1,0.95 -0.533,0.267 -1.066,0.417 -1.6,0.45 l -0.65,-0.05 c -0.467,1 -1.217,1.55 -2.25,1.649 l -1.55,0.101 c -0.8,0.666 -1.534,0.899 -2.2,0.7 -0.4,-0.134 -0.867,-0.351 -1.4,-0.65 l -0.65,-0.4 c -0.167,0.267 -0.517,0.384 -1.05,0.351 -0.367,-0.033 -0.667,-0.101 -0.9,-0.2 l -0.3,-0.15 c -0.534,0.334 -1.067,0.517 -1.6,0.551 -0.333,0 -0.617,-0.084 -0.85,-0.25 L 26.25,13.6 c -0.3,0.301 -0.567,0.4 -0.8,0.301 -0.133,-0.067 -0.4,-0.051 -0.8,0.05 -0.467,0.133 -0.8,0.2 -1,0.2 -0.3,0.033 -0.55,-0.017 -0.75,-0.15 l -0.25,-0.15 c -0.467,0.467 -0.867,0.534 -1.2,0.2 l -0.8,-0.75 c -0.167,0.434 -0.55,0.617 -1.15,0.55 -0.367,-0.066 -0.683,-0.149 -0.95,-0.25 l -0.3,-0.149 -1,0.2 c -1.2,0.199 -1.85,0.05 -1.95,-0.45 -0.066,-0.3 -0.167,-0.517 -0.3,-0.65 l -0.2,-0.1 c -0.2,0.533 -0.6,0.75 -1.2,0.649 -0.367,-0.033 -0.667,-0.116 -0.9,-0.25 l -0.2,-0.199 c -0.667,0.533 -1.267,0.6 -1.8,0.199 -0.367,-0.267 -0.617,-0.5 -0.75,-0.699 l -0.1,-0.2 C 9.183,12.616 8.7,12.767 8.4,12.4 L 7.8,11.55 v -0.3 C 7.767,11.05 7.75,10.833 7.75,10.6 7.783,10.166 7.95,9.883 8.25,9.75 8.75,9.55 9.283,9.433 9.85,9.4 9.883,9.3 9.933,9.167 10,9 10.167,8.7 10.367,8.483 10.6,8.35 11,8.083 11.383,7.967 11.75,8 l 0.3,-0.45 c 0.2,-0.3 0.4,-0.517 0.6,-0.65 0.3,-0.2 0.883,-0.167 1.75,0.1 0,-0.2 0,-0.417 0,-0.65 0.067,-0.434 0.217,-0.717 0.45,-0.85 L 15.8,5.05 16.25,4.6 c 0.367,-0.233 0.75,-0.233 1.15,0 0.7,0.367 1.15,0.367 1.35,0 L 19.1,4.2 C 19.367,3.9 19.666,3.717 20,3.65 20.3,3.584 20.483,3.417 20.55,3.15 20.683,2.717 20.817,2.433 20.95,2.3 21.283,1.9 21.817,1.85 22.55,2.15 L 23,1.55 c 0.367,-0.4 0.75,-0.566 1.15,-0.5 l 0.95,0.2 0.7,-0.1 c 0.5,-0.033 0.833,0.033 1,0.2 l 0.4,0.4 0.35,-0.1 c 0.233,-0.033 0.434,0.05 0.6,0.25 0.233,0.267 0.367,0.767 0.4,1.5 l 0.5,-0.25 C 29.45,2.983 29.767,2.933 30,3 c 0.433,0.133 0.717,0.367 0.85,0.7 L 31.2,3.65 c 0.3,0.033 0.55,0.2 0.75,0.5 l 0.5,0.7 L 33,4.9 c 0.4,0.067 0.7,0.184 0.9,0.35 0.333,0.267 0.534,0.517 0.6,0.75 l 0.35,-0.2 c 0.267,-0.133 0.5,-0.167 0.7,-0.1 0.334,0.1 0.75,0.383 1.25,0.85 L 38.65,7.8 38.9,7.6 c 0.199,-0.133 0.449,-0.184 0.75,-0.15 0.466,0.1 0.666,0.316 0.6,0.65 l 0.4,0.05 c 0.267,0.067 0.449,0.167 0.55,0.3 l 0.3,0.35 0.3,-0.25 c 0.267,-0.167 0.55,-0.216 0.851,-0.15 0.433,0.067 0.633,0.267 0.6,0.6 l 0.4,-0.1 c 0.299,-0.067 0.582,-0.067 0.849,0 z"
     style="clip-rule:evenodd;fill:#a61418;fill-rule:evenodd"
     inkscape:connector-curvature="0" /><path
     id="path4"
     d="m 36.2,7.3 c 0.733,0.633 0.833,1.233 0.3,1.8 -0.533,0.6 -0.983,0.517 -1.35,-0.25 -0.334,-0.667 -0.334,-1.184 0,-1.55 0.3,-0.333 0.65,-0.333 1.05,0 z"
     style="clip-rule:evenodd;fill:#205099;fill-rule:evenodd"
     inkscape:connector-curvature="0" /><path
     id="path6"
     d="m 28.7,3.05 c 0.867,0.7 1.017,1.383 0.45,2.05 -0.6,0.7 -1.117,0.65 -1.55,-0.15 -0.367,-0.667 -0.367,-1.233 0,-1.7 0.367,-0.433 0.733,-0.5 1.1,-0.2 z"
     style="clip-rule:evenodd;fill:#205099;fill-rule:evenodd"
     inkscape:connector-curvature="0" /><path
     id="path8"
     d="m 27.85,6.95 c 1.1,0.033 1.5,0.583 1.2,1.65 -0.3,1.1 -0.75,1.483 -1.35,1.15 -0.5,-0.267 -0.717,-0.8 -0.65,-1.6 0.067,-0.833 0.333,-1.233 0.8,-1.2 z"
     style="clip-rule:evenodd;fill:#205099;fill-rule:evenodd"
     inkscape:connector-curvature="0" /><path
     id="path10"
     d="m 31.05,9.85 c 0.567,0.333 0.833,0.816 0.8,1.45 -0.033,0.667 -0.383,0.884 -1.05,0.65 -0.633,-0.2 -0.833,-0.65 -0.6,-1.35 0.233,-0.7 0.517,-0.95 0.85,-0.75 z"
     style="clip-rule:evenodd;fill:#205099;fill-rule:evenodd"
     inkscape:connector-curvature="0" /><path
     id="path12"
     d="m 24.9,12.1 c 0.7,0.034 1.05,0.417 1.05,1.15 -0.034,0.7 -0.333,1.05 -0.9,1.05 -0.533,0 -0.85,-0.383 -0.95,-1.149 -0.067,-0.734 0.2,-1.085 0.8,-1.051 z"
     style="clip-rule:evenodd;fill:#205099;fill-rule:evenodd"
     inkscape:connector-curvature="0" /><path
     id="path14"
     d="m 18.65,10.5 c 0.567,0.3 0.733,0.8 0.5,1.5 -0.233,0.7 -0.583,0.8 -1.05,0.3 -0.4,-0.434 -0.467,-0.883 -0.2,-1.35 0.267,-0.4 0.517,-0.55 0.75,-0.45 z"
     style="clip-rule:evenodd;fill:#205099;fill-rule:evenodd"
     inkscape:connector-curvature="0" /><path
     id="path16"
     d="m 12.4,11.3 c 0.6,0.267 0.733,0.75 0.4,1.45 -0.333,0.667 -0.733,0.884 -1.2,0.65 -0.434,-0.2 -0.5,-0.634 -0.2,-1.301 0.3,-0.699 0.633,-0.965 1,-0.799 z"
     style="clip-rule:evenodd;fill:#205099;fill-rule:evenodd"
     inkscape:connector-curvature="0" /><path
     id="path18"
     d="m 7.7,10.4 c 0.633,0.167 0.833,0.5 0.6,1 C 8.067,11.9 7.767,12.083 7.4,11.95 7.067,11.849 6.933,11.55 7,11.05 7.067,10.517 7.3,10.3 7.7,10.4 Z"
     style="clip-rule:evenodd;fill:#205099;fill-rule:evenodd"
     inkscape:connector-curvature="0" /><path
     id="path20"
     d="M 17.4,6.25 C 18.067,6.383 18.183,6.767 17.75,7.4 17.317,8.1 16.933,8.317 16.6,8.05 16.233,7.783 16.117,7.417 16.25,6.95 16.417,6.417 16.8,6.183 17.4,6.25 Z"
     style="clip-rule:evenodd;fill:#205099;fill-rule:evenodd"
     inkscape:connector-curvature="0" /><path
     id="path22"
     d="m 35.6,11.1 c 0.767,0 1.117,0.367 1.051,1.101 -0.034,0.733 -0.384,1.066 -1.051,1 -0.566,-0.033 -0.833,-0.4 -0.8,-1.101 0.066,-0.666 0.334,-1 0.8,-1 z"
     style="clip-rule:evenodd;fill:#205099;fill-rule:evenodd"
     inkscape:connector-curvature="0" /><path
     id="path24"
     d="m 39.8,9.95 c 0.367,0.6 0.434,1.083 0.2,1.45 -0.2,0.333 -0.583,0.449 -1.15,0.35 C 38.284,11.616 38.201,11.1 38.6,10.2 38.967,9.3 39.366,9.217 39.8,9.95 Z"
     style="clip-rule:evenodd;fill:#205099;fill-rule:evenodd"
     inkscape:connector-curvature="0" /><path
     id="path26"
     d="m 41.5,8.15 c 0.267,0.3 0.333,0.667 0.2,1.1 C 41.533,9.65 41.3,9.7 41,9.4 40.7,9.067 40.634,8.683 40.8,8.25 c 0.134,-0.4 0.367,-0.433 0.7,-0.1 z"
     style="clip-rule:evenodd;fill:#205099;fill-rule:evenodd"
     inkscape:connector-curvature="0" /><path
     id="path28"
     d="m 42.95,10.2 c 0.434,0.233 0.483,0.6 0.149,1.1 -0.3,0.5 -0.649,0.684 -1.05,0.55 -0.366,-0.1 -0.416,-0.449 -0.149,-1.05 0.267,-0.6 0.617,-0.8 1.05,-0.6 z"
     style="clip-rule:evenodd;fill:#205099;fill-rule:evenodd"
     inkscape:connector-curvature="0" /><path
     id="path30"
     d="m 32.55,5.5 c 0.467,0.1 0.633,0.483 0.5,1.15 -0.167,0.667 -0.466,0.833 -0.9,0.5 -0.4,-0.3 -0.483,-0.667 -0.25,-1.1 0.233,-0.433 0.45,-0.617 0.65,-0.55 z"
     style="clip-rule:evenodd;fill:#205099;fill-rule:evenodd"
     inkscape:connector-curvature="0" /><path
     id="path32"
     d="m 30.25,5.95 c 0.7,0.3 0.917,0.7 0.65,1.2 -0.233,0.5 -0.566,0.65 -1,0.45 C 29.6,7.467 29.567,7.15 29.8,6.65 Z"
     style="clip-rule:evenodd;fill:#205099;fill-rule:evenodd"
     inkscape:connector-curvature="0" /><path
     id="path34"
     d="m 25.2,5.7 c 0.867,0.367 1.05,0.883 0.55,1.55 -0.5,0.7 -0.933,0.967 -1.3,0.8 -0.267,-0.1 -0.3,-0.55 -0.1,-1.35 0.2,-0.8 0.483,-1.133 0.85,-1 z"
     style="clip-rule:evenodd;fill:#205099;fill-rule:evenodd"
     inkscape:connector-curvature="0" /><path
     id="path36"
     d="m 21.15,7.95 c 1.033,-0.1 1.434,0.35 1.2,1.35 -0.233,0.967 -0.6,1.45 -1.1,1.45 -0.333,0 -0.483,-0.467 -0.45,-1.4 0,-0.9 0.117,-1.367 0.35,-1.4 z"
     style="clip-rule:evenodd;fill:#205099;fill-rule:evenodd"
     inkscape:connector-curvature="0" /><path
     id="path38"
     d="m 14.8,8.75 c 0.333,0.633 0.333,1.15 0,1.55 -0.3,0.4 -0.667,0.4 -1.1,0 C 13.266,9.933 13.283,9.467 13.75,8.9 14.25,8.333 14.6,8.283 14.8,8.75 Z"
     style="clip-rule:evenodd;fill:#205099;fill-rule:evenodd"
     inkscape:connector-curvature="0" /><path
     id="path40"
     d="m 22.7,3.8 c 0.8,0.167 0.95,0.617 0.45,1.35 -0.533,0.767 -1,1 -1.4,0.7 C 21.383,5.55 21.317,5.117 21.55,4.55 21.817,3.95 22.2,3.7 22.7,3.8 Z"
     style="clip-rule:evenodd;fill:#205099;fill-rule:evenodd"
     inkscape:connector-curvature="0" /><path
     id="path42"
     d="M 11.8,7.05 C 12.433,7.517 12.517,8 12.05,8.5 11.55,9 11.183,9 10.95,8.5 10.75,8.067 10.783,7.667 11.05,7.3 11.283,6.933 11.533,6.85 11.8,7.05 Z"
     style="clip-rule:evenodd;fill:#205099;fill-rule:evenodd"
     inkscape:connector-curvature="0" /><path
     id="path44"
     d="m 14.8,11.4 c 0.8,0.166 1,0.716 0.6,1.649 -0.4,0.933 -0.816,1.134 -1.25,0.601 -0.367,-0.467 -0.45,-0.983 -0.25,-1.551 0.2,-0.533 0.5,-0.766 0.9,-0.699 z"
     style="clip-rule:evenodd;fill:#205099;fill-rule:evenodd"
     inkscape:connector-curvature="0" /><path
     id="path46"
     d="m 21,12.65 c 0.567,0.233 0.767,0.6 0.6,1.1 -0.2,0.533 -0.533,0.684 -1,0.45 -0.434,-0.2 -0.55,-0.533 -0.35,-1 0.2,-0.467 0.45,-0.65 0.75,-0.55 z"
     style="clip-rule:evenodd;fill:#205099;fill-rule:evenodd"
     inkscape:connector-curvature="0" /><path
     id="path48"
     d="m 19.25,5.7 c 1.033,0.066 1.433,0.466 1.2,1.2 -0.233,0.767 -0.667,1.083 -1.3,0.95 -0.5,-0.133 -0.717,-0.517 -0.65,-1.15 0.067,-0.667 0.317,-1 0.75,-1 z"
     style="clip-rule:evenodd;fill:#205099;fill-rule:evenodd"
     inkscape:connector-curvature="0" /><path
     id="path50"
     d="m 20.35,2.6 c 0.767,0.033 0.95,0.35 0.55,0.95 -0.433,0.6 -0.8,0.8 -1.1,0.6 -0.267,-0.2 -0.333,-0.5 -0.2,-0.9 0.133,-0.467 0.383,-0.683 0.75,-0.65 z"
     style="clip-rule:evenodd;fill:#205099;fill-rule:evenodd"
     inkscape:connector-curvature="0" /><path
     id="path52"
     d="m 25.2,2.8 c 0.867,0.167 1.083,0.55 0.65,1.15 C 25.383,4.65 25.033,4.867 24.8,4.6 24.633,4.433 24.6,4.083 24.7,3.55 24.8,3.017 24.967,2.767 25.2,2.8 Z"
     style="clip-rule:evenodd;fill:#205099;fill-rule:evenodd"
     inkscape:connector-curvature="0" /><path
     id="path54"
     d="m 30.95,3.8 c 0.6,0.467 0.7,0.917 0.3,1.35 -0.467,0.5 -0.783,0.5 -0.95,0 -0.133,-0.367 -0.117,-0.733 0.05,-1.1 0.167,-0.333 0.367,-0.417 0.6,-0.25 z"
     style="clip-rule:evenodd;fill:#205099;fill-rule:evenodd"
     inkscape:connector-curvature="0" /><path
     id="path56"
     d="m 28.7,10.5 c 0.8,0.467 0.917,1.017 0.35,1.65 -0.567,0.633 -1.05,0.683 -1.45,0.15 -0.333,-0.467 -0.333,-0.95 0,-1.45 0.333,-0.467 0.7,-0.583 1.1,-0.35 z"
     style="clip-rule:evenodd;fill:#205099;fill-rule:evenodd"
     inkscape:connector-curvature="0" /><path
     id="path58"
     d="m 35.05,5.45 c 0.667,0.5 0.75,0.867 0.25,1.1 -0.566,0.233 -0.916,0.2 -1.05,-0.1 -0.1,-0.233 -0.05,-0.5 0.15,-0.8 0.2,-0.333 0.416,-0.4 0.65,-0.2 z"
     style="clip-rule:evenodd;fill:#205099;fill-rule:evenodd"
     inkscape:connector-curvature="0" /><path
     id="path60"
     d="m 33.5,9.15 c 0.967,0.267 1.283,0.7 0.95,1.3 -0.367,0.6 -0.817,0.717 -1.35,0.35 -0.434,-0.3 -0.55,-0.667 -0.35,-1.1 0.167,-0.467 0.417,-0.65 0.75,-0.55 z"
     style="clip-rule:evenodd;fill:#205099;fill-rule:evenodd"
     inkscape:connector-curvature="0" /><path
     id="path62"
     d="m 32,12.75 c 1.133,0.333 1.5,0.767 1.1,1.3 -0.434,0.533 -0.967,0.684 -1.6,0.45 -0.533,-0.167 -0.683,-0.533 -0.45,-1.1 0.2,-0.6 0.517,-0.817 0.95,-0.65 z"
     style="clip-rule:evenodd;fill:#205099;fill-rule:evenodd"
     inkscape:connector-curvature="0" /><path
     id="path64"
     d="m 38.8,12.45 c 0.7,0.267 1.017,0.467 0.95,0.6 -0.267,0.134 -0.483,0.283 -0.65,0.45 -0.267,0.3 -0.666,0.517 -1.199,0.65 C 37.3,14.316 37,14.217 37,13.85 c 0,-0.433 0.2,-0.833 0.6,-1.199 0.433,-0.368 0.834,-0.434 1.2,-0.201 z"
     style="clip-rule:evenodd;fill:#205099;fill-rule:evenodd"
     inkscape:connector-curvature="0" /><path
     id="path66"
     d="m 18.45,7.85 c 0.767,0.4 0.9,1.033 0.4,1.9 -0.467,0.867 -0.934,1.167 -1.4,0.9 -0.434,-0.233 -0.517,-0.833 -0.25,-1.8 0.233,-0.967 0.65,-1.3 1.25,-1 z"
     style="clip-rule:evenodd;fill:#de1a21;fill-rule:evenodd"
     inkscape:connector-curvature="0" /><path
     id="path68"
     d="m 15.45,9.3 c 1.133,0.1 1.583,0.65 1.35,1.65 -0.267,1.033 -0.716,1.366 -1.35,1 -0.5,-0.267 -0.7,-0.783 -0.6,-1.55 0.067,-0.767 0.267,-1.133 0.6,-1.1 z"
     style="clip-rule:evenodd;fill:#de1a21;fill-rule:evenodd"
     inkscape:connector-curvature="0" /><path
     id="path70"
     d="m 11.1,9.4 c 0.467,-0.333 0.7,-0.017 0.7,0.95 0.034,0.966 -0.233,1.4 -0.8,1.3 -0.5,-0.101 -0.683,-0.45 -0.55,-1.05 0.1,-0.533 0.317,-0.933 0.65,-1.2 z"
     style="clip-rule:evenodd;fill:#de1a21;fill-rule:evenodd"
     inkscape:connector-curvature="0" /><path
     id="path72"
     d="m 16.5,5.4 c 0.667,0.1 0.9,0.55 0.7,1.35 -0.2,0.833 -0.567,1.167 -1.1,1 -0.533,-0.167 -0.733,-0.633 -0.6,-1.4 0.1,-0.733 0.433,-1.05 1,-0.95 z"
     style="clip-rule:evenodd;fill:#de1a21;fill-rule:evenodd"
     inkscape:connector-curvature="0" /><path
     id="path74"
     d="m 18.35,3.6 c 0.433,-0.233 0.7,0.017 0.8,0.75 0.1,0.733 -0.066,1.117 -0.5,1.15 -0.367,0.033 -0.566,-0.233 -0.6,-0.8 -0.067,-0.6 0.033,-0.967 0.3,-1.1 z"
     style="clip-rule:evenodd;fill:#de1a21;fill-rule:evenodd"
     inkscape:connector-curvature="0" /><path
     id="path76"
     d="m 26.65,10.2 c 0.7,0 0.934,0.417 0.7,1.25 -0.233,0.866 -0.517,1.233 -0.85,1.1 -0.367,-0.166 -0.583,-0.583 -0.65,-1.25 -0.067,-0.733 0.2,-1.1 0.8,-1.1 z"
     style="clip-rule:evenodd;fill:#de1a21;fill-rule:evenodd"
     inkscape:connector-curvature="0" /><path
     id="path78"
     d="M 24,3.35 C 24.6,3.416 24.817,3.867 24.65,4.7 24.483,5.533 24.1,5.833 23.5,5.6 22.933,5.4 22.75,4.967 22.95,4.3 23.15,3.633 23.5,3.317 24,3.35 Z"
     style="clip-rule:evenodd;fill:#de1a21;fill-rule:evenodd"
     inkscape:connector-curvature="0" /><path
     id="path80"
     d="m 22.55,11.2 c 0.867,0.033 1.35,0.434 1.45,1.2 0.133,0.767 -0.2,1.066 -1,0.899 -0.7,-0.133 -1.067,-0.533 -1.1,-1.2 -0.033,-0.632 0.183,-0.932 0.65,-0.899 z"
     style="clip-rule:evenodd;fill:#de1a21;fill-rule:evenodd"
     inkscape:connector-curvature="0" /><path
     id="path82"
     d="m 17.65,12.3 c 0.567,0.2 0.867,0.617 0.9,1.25 0.034,0.634 -0.35,0.884 -1.15,0.75 -0.8,-0.1 -1.1,-0.5 -0.9,-1.2 0.2,-0.7 0.583,-0.966 1.15,-0.8 z"
     style="clip-rule:evenodd;fill:#de1a21;fill-rule:evenodd"
     inkscape:connector-curvature="0" /><path
     id="path84"
     d="m 33.05,11.4 c 0.767,-0.101 1.084,0.283 0.95,1.149 -0.167,0.834 -0.517,1.2 -1.05,1.101 -0.467,-0.134 -0.667,-0.534 -0.6,-1.2 0.067,-0.634 0.3,-0.983 0.7,-1.05 z"
     style="clip-rule:evenodd;fill:#de1a21;fill-rule:evenodd"
     inkscape:connector-curvature="0" /><path
     id="path86"
     d="m 13.9,5.7 c 0.733,0.066 0.95,0.45 0.65,1.15 -0.3,0.667 -0.667,0.883 -1.1,0.65 C 13.083,7.3 12.983,6.933 13.15,6.4 13.317,5.9 13.567,5.667 13.9,5.7 Z"
     style="clip-rule:evenodd;fill:#de1a21;fill-rule:evenodd"
     inkscape:connector-curvature="0" /><path
     id="path88"
     d="m 10.15,8.6 c 0.3,0 0.434,0.25 0.4,0.75 -0.033,0.5 -0.167,0.816 -0.4,0.95 C 9.917,10.434 9.567,10.367 9.1,10.1 8.633,9.8 8.433,9.45 8.5,9.05 8.6,8.683 8.783,8.5 9.05,8.5 c 0.167,0 0.533,0.033 1.1,0.1 z"
     style="clip-rule:evenodd;fill:#de1a21;fill-rule:evenodd"
     inkscape:connector-curvature="0" /><path
     id="path90"
     d="m 24.65,0 c 0.967,0 1.367,0.367 1.2,1.1 C 25.717,1.8 25.367,2.15 24.8,2.15 24.367,2.15 24.133,1.8 24.1,1.1 24.067,0.367 24.25,0 24.65,0 Z"
     style="clip-rule:evenodd;fill:#de1a21;fill-rule:evenodd"
     inkscape:connector-curvature="0" /><path
     id="path92"
     d="m 29,1.35 c 0.4,0.333 0.333,0.683 -0.2,1.05 -0.566,0.4 -0.9,0.434 -1,0.1 -0.167,-0.4 -0.15,-0.783 0.05,-1.15 0.233,-0.433 0.617,-0.433 1.15,0 z"
     style="clip-rule:evenodd;fill:#de1a21;fill-rule:evenodd"
     inkscape:connector-curvature="0" /><path
     id="path94"
     d="M 32.65,4.05 C 33.35,4.65 33.5,5.133 33.1,5.5 32.7,5.867 32.333,5.9 32,5.6 31.733,5.367 31.667,4.967 31.8,4.4 31.967,3.833 32.25,3.717 32.65,4.05 Z"
     style="clip-rule:evenodd;fill:#de1a21;fill-rule:evenodd"
     inkscape:connector-curvature="0" /><path
     id="path96"
     d="m 36.65,6.05 c 0.666,0.033 1.05,0.483 1.15,1.35 0.134,0.867 -0.083,1.2 -0.649,1 C 36.684,8.233 36.418,7.8 36.35,7.1 36.283,6.367 36.384,6.017 36.65,6.05 Z"
     style="clip-rule:evenodd;fill:#de1a21;fill-rule:evenodd"
     inkscape:connector-curvature="0" /><path
     id="path98"
     d="m 33.45,7.3 c 0.5,0 0.733,0.367 0.7,1.1 -0.034,0.7 -0.317,1.033 -0.851,1 -0.533,-0.033 -0.733,-0.4 -0.6,-1.1 0.168,-0.667 0.418,-1 0.751,-1 z"
     style="clip-rule:evenodd;fill:#de1a21;fill-rule:evenodd"
     inkscape:connector-curvature="0" /><path
     id="path100"
     d="m 30.8,7.95 c 0.4,0.167 0.467,0.6 0.2,1.3 -0.3,0.667 -0.617,0.933 -0.95,0.8 C 29.717,9.95 29.65,9.533 29.85,8.8 30.083,8.1 30.4,7.817 30.8,7.95 Z"
     style="clip-rule:evenodd;fill:#de1a21;fill-rule:evenodd"
     inkscape:connector-curvature="0" /><path
     id="path102"
     d="m 24.45,8.05 c 0.767,0.534 0.933,1.05 0.5,1.55 -0.467,0.533 -0.867,0.533 -1.2,0 -0.233,-0.4 -0.233,-0.8 0,-1.2 0.267,-0.367 0.5,-0.483 0.7,-0.35 z"
     style="clip-rule:evenodd;fill:#de1a21;fill-rule:evenodd"
     inkscape:connector-curvature="0" /><path
     id="path104"
     d="m 20.55,6.05 c 0.434,0 0.667,0.317 0.7,0.95 0.067,0.6 -0.117,0.95 -0.55,1.05 -0.434,0.133 -0.65,-0.167 -0.65,-0.9 -0.033,-0.733 0.133,-1.1 0.5,-1.1 z"
     style="clip-rule:evenodd;fill:#de1a21;fill-rule:evenodd"
     inkscape:connector-curvature="0" /><path
     id="path106"
     d="m 17.15,3.6 c 0.767,-0.2 1.167,0.117 1.2,0.95 0.033,0.867 -0.283,1.3 -0.95,1.3 -0.6,0 -0.867,-0.35 -0.8,-1.05 0.033,-0.7 0.217,-1.1 0.55,-1.2 z"
     style="clip-rule:evenodd;fill:#bfad8b;fill-rule:evenodd"
     inkscape:connector-curvature="0" /><path
     id="path108"
     d="M 22.7,2.05 C 23.4,2.283 23.65,2.7 23.45,3.3 23.25,3.933 22.867,4.1 22.3,3.8 21.8,3.533 21.617,3.133 21.75,2.6 21.883,2.067 22.2,1.883 22.7,2.05 Z"
     style="clip-rule:evenodd;fill:#bfad8b;fill-rule:evenodd"
     inkscape:connector-curvature="0" /><path
     id="path110"
     d="m 21.65,4.8 c 0.4,0.2 0.434,0.717 0.1,1.55 C 21.417,7.183 21.033,7.3 20.6,6.7 20.133,6.133 20.067,5.617 20.4,5.15 20.7,4.683 21.117,4.567 21.65,4.8 Z"
     style="clip-rule:evenodd;fill:#bfad8b;fill-rule:evenodd"
     inkscape:connector-curvature="0" /><path
     id="path112"
     d="M 22.7,7.05 C 23.367,7.183 23.633,7.633 23.5,8.4 23.4,9.2 23.05,9.417 22.45,9.05 21.95,8.75 21.8,8.333 22,7.8 22.167,7.267 22.4,7.017 22.7,7.05 Z"
     style="clip-rule:evenodd;fill:#bfad8b;fill-rule:evenodd"
     inkscape:connector-curvature="0" /><path
     id="path114"
     d="m 19.7,8.75 c 0.6,0.767 0.733,1.4 0.4,1.9 -0.367,0.5 -0.85,0.45 -1.45,-0.15 -0.5,-0.5 -0.517,-1.017 -0.05,-1.55 0.467,-0.5 0.833,-0.567 1.1,-0.2 z"
     style="clip-rule:evenodd;fill:#bfad8b;fill-rule:evenodd"
     inkscape:connector-curvature="0" /><path
     id="path116"
     d="m 15.3,6.95 c 0.667,0.633 0.733,1.183 0.2,1.65 -0.533,0.5 -1,0.5 -1.4,0 -0.367,-0.4 -0.35,-0.867 0.05,-1.4 0.4,-0.5 0.783,-0.583 1.15,-0.25 z"
     style="clip-rule:evenodd;fill:#bfad8b;fill-rule:evenodd"
     inkscape:connector-curvature="0" /><path
     id="path118"
     d="m 12.3,8.75 c 1.167,-0.067 1.583,0.4 1.25,1.4 -0.333,1.067 -0.716,1.45 -1.15,1.15 -0.367,-0.267 -0.6,-0.733 -0.7,-1.4 -0.1,-0.733 0.1,-1.117 0.6,-1.15 z"
     style="clip-rule:evenodd;fill:#bfad8b;fill-rule:evenodd"
     inkscape:connector-curvature="0" /><path
     id="path120"
     d="m 9.25,9.85 c 0.633,0.033 0.867,0.433 0.7,1.2 -0.167,0.767 -0.483,1 -0.95,0.7 C 8.567,11.483 8.417,11.1 8.55,10.6 8.65,10.067 8.883,9.817 9.25,9.85 Z"
     style="clip-rule:evenodd;fill:#bfad8b;fill-rule:evenodd"
     inkscape:connector-curvature="0" /><path
     id="path122"
     d="m 21.25,10.75 c 0.967,0.167 1.4,0.6 1.3,1.3 -0.066,0.7 -0.533,1.05 -1.4,1.05 -0.767,0 -1.083,-0.416 -0.95,-1.25 0.133,-0.833 0.483,-1.2 1.05,-1.1 z"
     style="clip-rule:evenodd;fill:#bfad8b;fill-rule:evenodd"
     inkscape:connector-curvature="0" /><path
     id="path124"
     d="m 26.25,9.3 c 0.467,-0.066 0.717,0.333 0.75,1.2 0,0.866 -0.25,1.25 -0.75,1.15 -0.5,-0.134 -0.733,-0.551 -0.7,-1.25 0.033,-0.667 0.267,-1.033 0.7,-1.1 z"
     style="clip-rule:evenodd;fill:#bfad8b;fill-rule:evenodd"
     inkscape:connector-curvature="0" /><path
     id="path126"
     d="M 26.4,5.15 C 27.067,5.383 27.283,5.9 27.05,6.7 26.817,7.533 26.417,7.833 25.85,7.6 25.283,7.367 25.1,6.867 25.3,6.1 25.533,5.3 25.9,4.983 26.4,5.15 Z"
     style="clip-rule:evenodd;fill:#bfad8b;fill-rule:evenodd"
     inkscape:connector-curvature="0" /><path
     id="path128"
     d="m 24.8,2.15 c 0.8,-0.333 1.167,-0.083 1.1,0.75 -0.033,0.867 -0.316,1.25 -0.85,1.15 -0.5,-0.133 -0.783,-0.433 -0.85,-0.9 -0.067,-0.5 0.133,-0.833 0.6,-1 z"
     style="clip-rule:evenodd;fill:#bfad8b;fill-rule:evenodd"
     inkscape:connector-curvature="0" /><path
     id="path130"
     d="M 32.4,9.05 C 33,9.383 33.25,9.8 33.15,10.3 33.084,10.8 32.733,10.984 32.1,10.85 31.467,10.75 31.25,10.367 31.45,9.7 31.617,9.033 31.933,8.817 32.4,9.05 Z"
     style="clip-rule:evenodd;fill:#bfad8b;fill-rule:evenodd"
     inkscape:connector-curvature="0" /><path
     id="path132"
     d="m 28.7,12.2 c 0.633,0.1 0.917,0.467 0.85,1.1 -0.1,0.601 -0.417,0.934 -0.95,1 -0.467,0.066 -0.65,-0.283 -0.55,-1.05 0.1,-0.767 0.317,-1.116 0.65,-1.05 z"
     style="clip-rule:evenodd;fill:#bfad8b;fill-rule:evenodd"
     inkscape:connector-curvature="0" /><path
     id="path134"
     d="m 1.55,9.75 c 0.767,0.467 0.817,0.9 0.15,1.3 C 1,11.483 0.5,11.5 0.2,11.1 -0.1,10.701 -0.067,10.3 0.3,9.9 0.667,9.5 1.083,9.45 1.55,9.75 Z"
     style="clip-rule:evenodd;fill:#205099;fill-rule:evenodd"
     inkscape:connector-curvature="0" /><path
     id="path136"
     d="m 38.55,7.2 c 0.733,0.467 0.85,0.833 0.35,1.1 -0.467,0.3 -0.917,0.3 -1.351,0 C 37.216,8.033 37.199,7.734 37.499,7.4 37.8,7.033 38.15,6.967 38.55,7.2 Z"
     style="clip-rule:evenodd;fill:#205099;fill-rule:evenodd"
     inkscape:connector-curvature="0" /><path
     id="path138"
     d="m 36.7,14.95 c 1.133,-0.066 1.5,0.233 1.1,0.899 -0.399,0.7 -0.833,0.967 -1.3,0.801 -0.4,-0.101 -0.583,-0.4 -0.55,-0.9 0.033,-0.5 0.283,-0.767 0.75,-0.8 z"
     style="clip-rule:evenodd;fill:#205099;fill-rule:evenodd"
     inkscape:connector-curvature="0" /><path
     id="path140"
     d="m 27.9,15 c 1.333,-0.267 1.967,0.017 1.9,0.85 -0.066,0.834 -0.566,1.25 -1.5,1.25 -0.767,0 -1.117,-0.333 -1.05,-1 0.067,-0.666 0.283,-1.034 0.65,-1.1 z"
     style="clip-rule:evenodd;fill:#205099;fill-rule:evenodd"
     inkscape:connector-curvature="0" /><path
     id="path142"
     d="m 8.85,13.1 c 0.9,0.434 0.983,0.884 0.25,1.351 -0.767,0.467 -1.35,0.467 -1.75,0 -0.367,-0.434 -0.333,-0.834 0.1,-1.2 0.433,-0.367 0.9,-0.418 1.4,-0.151 z"
     style="clip-rule:evenodd;fill:#205099;fill-rule:evenodd"
     inkscape:connector-curvature="0" /><path
     id="path144"
     d="m 3.85,9.75 c 1,0.8 1.033,1.5 0.1,2.1 C 2.983,12.451 2.35,12.367 2.05,11.6 1.817,10.967 1.967,10.417 2.5,9.95 3,9.483 3.45,9.417 3.85,9.75 Z"
     style="clip-rule:evenodd;fill:#a61418;fill-rule:evenodd"
     inkscape:connector-curvature="0" /><path
     id="path146"
     d="m 2.55,13.1 c 0.534,0.134 0.7,0.517 0.5,1.15 -0.2,0.6 -0.6,0.667 -1.2,0.2 C 1.317,14.016 1.183,13.65 1.45,13.349 1.717,13.083 2.083,13 2.55,13.1 Z"
     style="clip-rule:evenodd;fill:#a61418;fill-rule:evenodd"
     inkscape:connector-curvature="0" /><path
     id="path148"
     d="m 15.55,15.55 c 0.733,0.167 0.9,0.584 0.5,1.25 -0.4,0.7 -0.883,0.95 -1.45,0.75 -0.533,-0.166 -0.667,-0.566 -0.4,-1.2 0.3,-0.666 0.75,-0.933 1.35,-0.8 z"
     style="clip-rule:evenodd;fill:#a61418;fill-rule:evenodd"
     inkscape:connector-curvature="0" /><path
     id="path150"
     d="m 25.05,14.3 c 0.867,0.334 1.1,0.8 0.7,1.4 C 25.317,16.333 24.733,16.4 24,15.9 23.333,15.433 23.2,15 23.6,14.599 24,14.233 24.483,14.134 25.05,14.3 Z"
     style="clip-rule:evenodd;fill:#a61418;fill-rule:evenodd"
     inkscape:connector-curvature="0" /><path
     id="path152"
     d="m 32.8,14.2 c 0.733,0.066 0.883,0.5 0.45,1.3 -0.433,0.8 -1.017,1.017 -1.75,0.65 -0.767,-0.367 -0.917,-0.801 -0.45,-1.301 0.433,-0.499 1.017,-0.715 1.75,-0.649 z"
     style="clip-rule:evenodd;fill:#a61418;fill-rule:evenodd"
     inkscape:connector-curvature="0" /><path
     id="path154"
     d="m 27.55,16.45 c 0.7,0.2 0.917,0.55 0.65,1.05 -0.233,0.5 -0.617,0.65 -1.15,0.45 C 26.584,17.816 26.467,17.5 26.7,17 c 0.2,-0.467 0.483,-0.65 0.85,-0.55 z"
     style="clip-rule:evenodd;fill:#a61418;fill-rule:evenodd"
     inkscape:connector-curvature="0" /><path
     id="path156"
     d="m 39.15,12.55 c 1.033,0.2 1.283,0.65 0.75,1.351 -0.5,0.699 -1.1,0.932 -1.8,0.699 -0.633,-0.199 -0.783,-0.633 -0.449,-1.3 0.332,-0.633 0.832,-0.883 1.499,-0.75 z"
     style="clip-rule:evenodd;fill:#a61418;fill-rule:evenodd"
     inkscape:connector-curvature="0" /><path
     id="path158"
     d="m 43.95,12.55 c 0.467,0.033 0.633,0.316 0.5,0.851 -0.134,0.5 -0.483,0.716 -1.05,0.649 -0.567,-0.1 -0.733,-0.383 -0.5,-0.85 0.2,-0.5 0.55,-0.717 1.05,-0.65 z"
     style="clip-rule:evenodd;fill:#a61418;fill-rule:evenodd"
     inkscape:connector-curvature="0" /><path
     id="path160"
     d="m 41.75,14.35 c 0.934,0.167 1.2,0.667 0.8,1.5 -0.4,0.834 -0.95,1.1 -1.65,0.8 -0.601,-0.267 -0.733,-0.75 -0.4,-1.45 0.333,-0.634 0.75,-0.917 1.25,-0.85 z"
     style="clip-rule:evenodd;fill:#a61418;fill-rule:evenodd"
     inkscape:connector-curvature="0" /><path
     id="path162"
     d="m 45.7,8.85 c 1,0.2 1.35,0.566 1.05,1.1 -0.3,0.566 -0.816,0.783 -1.55,0.65 -0.601,-0.133 -0.783,-0.483 -0.55,-1.05 0.2,-0.567 0.55,-0.8 1.05,-0.7 z"
     style="clip-rule:evenodd;fill:#a61418;fill-rule:evenodd"
     inkscape:connector-curvature="0" /><path
     id="path164"
     d="M 6.6,11 C 6.9,11.366 6.767,11.866 6.2,12.5 5.6,13.1 5.2,13.083 5,12.45 4.8,11.816 4.95,11.333 5.45,11 5.95,10.667 6.333,10.667 6.6,11 Z"
     style="clip-rule:evenodd;fill:#a61418;fill-rule:evenodd"
     inkscape:connector-curvature="0" /><path
     id="path166"
     d="m 4.15,11.6 c 0.733,0.067 0.833,0.434 0.3,1.101 C 3.917,13.366 3.433,13.55 3,13.25 2.6,12.917 2.55,12.55 2.85,12.15 3.15,11.717 3.583,11.533 4.15,11.6 Z"
     style="clip-rule:evenodd;fill:#bfad8b;fill-rule:evenodd"
     inkscape:connector-curvature="0" /><path
     id="path168"
     d="m 11.6,14.15 c 0.867,0.166 1.033,0.483 0.5,0.949 -0.533,0.467 -1.017,0.534 -1.45,0.2 -0.367,-0.267 -0.383,-0.533 -0.05,-0.8 0.3,-0.299 0.633,-0.416 1,-0.349 z"
     style="clip-rule:evenodd;fill:#bfad8b;fill-rule:evenodd"
     inkscape:connector-curvature="0" /><path
     id="path170"
     d="m 21.35,13.95 c 0.367,0.066 0.566,0.3 0.6,0.7 0,0.333 -0.067,0.55 -0.2,0.649 -0.133,0.101 -0.35,0.117 -0.65,0.05 -0.367,-0.133 -0.733,-0.383 -1.1,-0.75 -0.367,-0.366 -0.333,-0.6 0.1,-0.699 0.3,-0.067 0.717,-0.05 1.25,0.05 z"
     style="clip-rule:evenodd;fill:#bfad8b;fill-rule:evenodd"
     inkscape:connector-curvature="0" /><path
     id="path172"
     d="m 38.7,14.45 c 0.6,0.1 0.899,0.333 0.899,0.7 0,0.3 -0.166,0.55 -0.5,0.75 -0.233,0.133 -0.416,0.183 -0.55,0.149 -0.133,0 -0.366,-0.1 -0.7,-0.3 -0.366,-0.233 -0.416,-0.517 -0.149,-0.85 0.267,-0.366 0.6,-0.515 1,-0.449 z"
     style="clip-rule:evenodd;fill:#bfad8b;fill-rule:evenodd"
     inkscape:connector-curvature="0" /></g>
</svg>