<?xml version="1.0" encoding="UTF-8" standalone="no"?>
<!-- Generator: Adobe Illustrator 15.1.0, SVG Export Plug-In . SVG Version: 6.00 Build 0)  -->

<svg
   xmlns:dc="http://purl.org/dc/elements/1.1/"
   xmlns:cc="http://creativecommons.org/ns#"
   xmlns:rdf="http://www.w3.org/1999/02/22-rdf-syntax-ns#"
   xmlns:svg="http://www.w3.org/2000/svg"
   xmlns="http://www.w3.org/2000/svg"
   xmlns:sodipodi="http://sodipodi.sourceforge.net/DTD/sodipodi-0.dtd"
   xmlns:inkscape="http://www.inkscape.org/namespaces/inkscape"
   version="1.1"
   id="flash0.ai"
   x="0px"
   y="0px"
   width="256"
   height="256"
   viewBox="0 0 255.99999 255.99999"
   xml:space="preserve"
   sodipodi:docname="cinnamon.svg"
   inkscape:version="0.92.4 (5da689c313, 2019-01-14)"
   inkscape:export-filename="C:\Users\antum\Development\game-resources\icon\CC0\food\individual\Glitch\32x32\condiment\cinnamon.png"
   inkscape:export-xdpi="9"
   inkscape:export-ydpi="9"><title
   id="title1014">Cinnamon</title><metadata
   id="metadata207"><rdf:RDF><cc:Work
       rdf:about=""><dc:format>image/svg+xml</dc:format><dc:type
         rdf:resource="http://purl.org/dc/dcmitype/StillImage" /><dc:title>Cinnamon</dc:title><cc:license
         rdf:resource="http://creativecommons.org/publicdomain/zero/1.0/" /><dc:creator><cc:Agent><dc:title>Glitch</dc:title></cc:Agent></dc:creator><dc:source>https://opengameart.org/node/20149</dc:source></cc:Work><cc:License
       rdf:about="http://creativecommons.org/publicdomain/zero/1.0/"><cc:permits
         rdf:resource="http://creativecommons.org/ns#Reproduction" /><cc:permits
         rdf:resource="http://creativecommons.org/ns#Distribution" /><cc:permits
         rdf:resource="http://creativecommons.org/ns#DerivativeWorks" /></cc:License></rdf:RDF></metadata><defs
   id="defs205" /><sodipodi:namedview
   pagecolor="#ffffff"
   bordercolor="#666666"
   borderopacity="1"
   objecttolerance="10"
   gridtolerance="10"
   guidetolerance="10"
   inkscape:pageopacity="0"
   inkscape:pageshadow="2"
   inkscape:window-width="1920"
   inkscape:window-height="1025"
   id="namedview203"
   showgrid="false"
   inkscape:zoom="1.0404669"
   inkscape:cx="116.26463"
   inkscape:cy="57.381346"
   inkscape:window-x="-8"
   inkscape:window-y="-8"
   inkscape:window-maximized="1"
   inkscape:current-layer="flash0.ai"
   fit-margin-top="0"
   fit-margin-left="0"
   fit-margin-right="0"
   fit-margin-bottom="0" />
<linearGradient
   id="SVGID_1_"
   gradientUnits="userSpaceOnUse"
   x1="6.5142002"
   y1="7.2217002"
   x2="41.614601"
   y2="7.2217002"
   gradientTransform="matrix(1,-0.005,0.005,1,3.339346e-4,-2.228124e-4)">
	<stop
   offset="0"
   style="stop-color:#A1530B"
   id="stop2" />
	<stop
   offset="0.9882"
   style="stop-color:#5E350E"
   id="stop4" />
</linearGradient>










<linearGradient
   id="SVGID_2_"
   gradientUnits="userSpaceOnUse"
   x1="2.8501"
   y1="11.1348"
   x2="6.1501002"
   y2="11.1348">
	<stop
   offset="0"
   style="stop-color:#A15A18"
   id="stop27" />
	<stop
   offset="0.9882"
   style="stop-color:#5E350E"
   id="stop29" />
</linearGradient>

<linearGradient
   id="SVGID_3_"
   gradientUnits="userSpaceOnUse"
   x1="0.1001"
   y1="12.002"
   x2="2.8001001"
   y2="12.002">
	<stop
   offset="0"
   style="stop-color:#A15A18"
   id="stop34" />
	<stop
   offset="0.9882"
   style="stop-color:#5E350E"
   id="stop36" />
</linearGradient>

<linearGradient
   id="SVGID_4_"
   gradientUnits="userSpaceOnUse"
   x1="10.5498"
   y1="13.0264"
   x2="13.4498"
   y2="13.0264">
	<stop
   offset="0"
   style="stop-color:#A15A18"
   id="stop41" />
	<stop
   offset="0.9882"
   style="stop-color:#5E350E"
   id="stop43" />
</linearGradient>

<linearGradient
   id="SVGID_5_"
   gradientUnits="userSpaceOnUse"
   x1="7.2002001"
   y1="13.5967"
   x2="8.8002005"
   y2="13.5967">
	<stop
   offset="0"
   style="stop-color:#A15A18"
   id="stop48" />
	<stop
   offset="0.9882"
   style="stop-color:#5E350E"
   id="stop50" />
</linearGradient>

<linearGradient
   id="SVGID_6_"
   gradientUnits="userSpaceOnUse"
   x1="17.8125"
   y1="14.0762"
   x2="22.6875"
   y2="14.0762">
	<stop
   offset="0"
   style="stop-color:#A15A18"
   id="stop55" />
	<stop
   offset="0.9882"
   style="stop-color:#5E350E"
   id="stop57" />
</linearGradient>

<linearGradient
   id="SVGID_7_"
   gradientUnits="userSpaceOnUse"
   x1="20.9888"
   y1="15.2441"
   x2="25.512699"
   y2="15.2441">
	<stop
   offset="0"
   style="stop-color:#A15A18"
   id="stop62" />
	<stop
   offset="0.9882"
   style="stop-color:#5E350E"
   id="stop64" />
</linearGradient>

<linearGradient
   id="SVGID_8_"
   gradientUnits="userSpaceOnUse"
   x1="32.012699"
   y1="13.748"
   x2="37.387699"
   y2="13.748">
	<stop
   offset="0"
   style="stop-color:#A15A18"
   id="stop69" />
	<stop
   offset="0.9882"
   style="stop-color:#5E350E"
   id="stop71" />
</linearGradient>

<linearGradient
   id="SVGID_9_"
   gradientUnits="userSpaceOnUse"
   x1="30.987301"
   y1="15.5908"
   x2="34.712299"
   y2="15.5908">
	<stop
   offset="0"
   style="stop-color:#A15A18"
   id="stop76" />
	<stop
   offset="0.9882"
   style="stop-color:#5E350E"
   id="stop78" />
</linearGradient>

<linearGradient
   id="SVGID_10_"
   gradientUnits="userSpaceOnUse"
   x1="27.875"
   y1="16.991199"
   x2="30.325001"
   y2="16.991199">
	<stop
   offset="0"
   style="stop-color:#A15A18"
   id="stop83" />
	<stop
   offset="0.9882"
   style="stop-color:#5E350E"
   id="stop85" />
</linearGradient>

<linearGradient
   id="SVGID_11_"
   gradientUnits="userSpaceOnUse"
   x1="16.262699"
   y1="16.3818"
   x2="18.9377"
   y2="16.3818">
	<stop
   offset="0"
   style="stop-color:#A15A18"
   id="stop90" />
	<stop
   offset="0.9882"
   style="stop-color:#5E350E"
   id="stop92" />
</linearGradient>

<linearGradient
   id="SVGID_12_"
   gradientUnits="userSpaceOnUse"
   x1="8.7749004"
   y1="15.042"
   x2="10.2249"
   y2="15.042">
	<stop
   offset="0"
   style="stop-color:#A15A18"
   id="stop97" />
	<stop
   offset="0.9882"
   style="stop-color:#5E350E"
   id="stop99" />
</linearGradient>

<linearGradient
   id="SVGID_13_"
   gradientUnits="userSpaceOnUse"
   x1="28.4629"
   y1="13.4512"
   x2="31.137899"
   y2="13.4512">
	<stop
   offset="0"
   style="stop-color:#A15A18"
   id="stop104" />
	<stop
   offset="0.9882"
   style="stop-color:#5E350E"
   id="stop106" />
</linearGradient>

<linearGradient
   id="SVGID_14_"
   gradientUnits="userSpaceOnUse"
   x1="36.4375"
   y1="14.4023"
   x2="41.5625"
   y2="14.4023">
	<stop
   offset="0"
   style="stop-color:#A15A18"
   id="stop111" />
	<stop
   offset="0.9882"
   style="stop-color:#5E350E"
   id="stop113" />
</linearGradient>

<linearGradient
   id="SVGID_15_"
   gradientUnits="userSpaceOnUse"
   x1="42.487301"
   y1="15.2148"
   x2="44.812302"
   y2="15.2148">
	<stop
   offset="0"
   style="stop-color:#A15A18"
   id="stop118" />
	<stop
   offset="0.9882"
   style="stop-color:#5E350E"
   id="stop120" />
</linearGradient>

<linearGradient
   id="SVGID_16_"
   gradientUnits="userSpaceOnUse"
   x1="39.799801"
   y1="11.6279"
   x2="42.799801"
   y2="11.6279">
	<stop
   offset="0"
   style="stop-color:#A15A18"
   id="stop125" />
	<stop
   offset="0.9882"
   style="stop-color:#5E350E"
   id="stop127" />
</linearGradient>

<linearGradient
   id="SVGID_17_"
   gradientUnits="userSpaceOnUse"
   x1="42.987301"
   y1="10.4043"
   x2="45.4123"
   y2="10.4043">
	<stop
   offset="0"
   style="stop-color:#A15A18"
   id="stop132" />
	<stop
   offset="0.9882"
   style="stop-color:#5E350E"
   id="stop134" />
</linearGradient>

<linearGradient
   id="SVGID_18_"
   gradientUnits="userSpaceOnUse"
   x1="2.0497999"
   y1="13.1543"
   x2="4.1497998"
   y2="13.1543">
	<stop
   offset="0"
   style="stop-color:#A15A18"
   id="stop139" />
	<stop
   offset="0.9882"
   style="stop-color:#5E350E"
   id="stop141" />
</linearGradient>




























<g
   id="g1071"
   transform="matrix(5.6420725,0,0,5.6420725,-0.50732928,77.483961)"><path
     id="path7"
     d="m 25.4,13.85 c -6.567,0.233 -12.05,-0.233 -16.45,-1.399 -2.2,-0.566 -3.733,-1.167 -4.6,-1.8 1.8,-0.567 3.783,-1.534 5.95,-2.9 1.8,-1.167 4.117,-2.567 6.95,-4.2 3.067,-1.8 4.933,-2.833 5.6,-3.1 0.767,-0.3 1.667,-0.133 2.7,0.5 0.7,0.433 2.3,1.45 4.8,3.05 2.301,1.333 5.7,3.033 10.2,5.1 1.233,0.567 2.2,1.084 2.9,1.551 -0.867,0.466 -2.283,0.949 -4.25,1.449 -3.9,0.999 -8.5,1.583 -13.8,1.749 z"
     style="clip-rule:evenodd;fill:url(#SVGID_1_);fill-rule:evenodd"
     inkscape:connector-curvature="0" /><path
     id="path9"
     d="m 39.6,9.45 c 1,0.633 1.067,1.066 0.2,1.3 -0.967,0.267 -1.533,0.15 -1.7,-0.35 -0.166,-0.434 -0.066,-0.767 0.301,-1 0.366,-0.233 0.766,-0.216 1.199,0.05 z"
     style="clip-rule:evenodd;fill:#592e04;fill-rule:evenodd"
     inkscape:connector-curvature="0" /><path
     id="path11"
     d="M 34.25,6.9 C 35.116,7.5 35.1,7.9 34.2,8.1 33.233,8.333 32.717,8.217 32.65,7.75 32.583,7.35 32.733,7.033 33.099,6.8 33.467,6.567 33.85,6.6 34.25,6.9 Z"
     style="clip-rule:evenodd;fill:#592e04;fill-rule:evenodd"
     inkscape:connector-curvature="0" /><path
     id="path13"
     d="m 36.7,9.2 c 0.633,0.6 0.483,1.017 -0.45,1.25 -0.933,0.233 -1.434,0.05 -1.5,-0.55 -0.033,-0.567 0.184,-0.933 0.65,-1.1 0.466,-0.167 0.9,-0.033 1.3,0.4 z"
     style="clip-rule:evenodd;fill:#592e04;fill-rule:evenodd"
     inkscape:connector-curvature="0" /><path
     id="path15"
     d="m 32.65,9.2 c 0.533,0.6 0.5,1.033 -0.101,1.3 -0.666,0.233 -1.116,0.167 -1.35,-0.2 C 30.966,10 31.065,9.651 31.499,9.25 31.967,8.85 32.35,8.833 32.65,9.2 Z"
     style="clip-rule:evenodd;fill:#592e04;fill-rule:evenodd"
     inkscape:connector-curvature="0" /><path
     id="path17"
     d="m 29.75,4.5 c 0.733,0.167 1.15,0.5 1.25,1 0.134,0.467 -0.05,0.7 -0.55,0.7 -0.467,0 -0.8,-0.3 -1,-0.9 -0.233,-0.6 -0.134,-0.867 0.3,-0.8 z"
     style="clip-rule:evenodd;fill:#592e04;fill-rule:evenodd"
     inkscape:connector-curvature="0" /><path
     id="path19"
     d="m 27.1,3.1 c 0.7,0.233 1,0.617 0.9,1.15 C 27.934,4.817 27.717,5 27.35,4.8 27.117,4.633 26.967,4.283 26.901,3.75 26.833,3.25 26.9,3.033 27.1,3.1 Z"
     style="clip-rule:evenodd;fill:#592e04;fill-rule:evenodd"
     inkscape:connector-curvature="0" /><path
     id="path21"
     d="m 29.6,6.8 c 0.801,0.7 0.884,1.233 0.25,1.6 C 29.184,8.8 28.734,8.733 28.5,8.2 28.3,7.733 28.366,7.333 28.7,7 29,6.633 29.3,6.567 29.6,6.8 Z"
     style="clip-rule:evenodd;fill:#592e04;fill-rule:evenodd"
     inkscape:connector-curvature="0" /><path
     id="path23"
     d="m 30.95,11.4 c 0.7,0.399 0.8,0.783 0.3,1.149 -0.533,0.334 -0.983,0.3 -1.35,-0.1 -0.301,-0.4 -0.301,-0.717 0,-0.95 0.3,-0.266 0.65,-0.299 1.05,-0.099 z"
     style="clip-rule:evenodd;fill:#592e04;fill-rule:evenodd"
     inkscape:connector-curvature="0" /><path
     id="path25"
     d="m 34.35,11.4 c 0.7,0.1 0.817,0.316 0.351,0.649 -0.5,0.3 -0.867,0.4 -1.101,0.3 -0.199,-0.133 -0.233,-0.333 -0.1,-0.6 0.134,-0.299 0.417,-0.416 0.85,-0.349 z"
     style="clip-rule:evenodd;fill:#592e04;fill-rule:evenodd"
     inkscape:connector-curvature="0" /><path
     id="path32"
     d="m 5.6,10.75 c 0.2,0.4 0.383,0.733 0.55,1 0,0.134 -0.267,0.217 -0.8,0.25 C 4.65,12.066 4.017,11.983 3.45,11.75 2.817,11.517 2.667,11.2 3,10.8 c 0.3,-0.399 0.783,-0.583 1.45,-0.55 0.633,0.033 1.017,0.2 1.15,0.5 z"
     style="clip-rule:evenodd;fill:url(#SVGID_2_);fill-rule:evenodd"
     inkscape:connector-curvature="0" /><path
     id="path39"
     d="m 2.65,11.65 c 0.434,0.333 0.133,0.633 -0.9,0.899 -1.067,0.267 -1.617,0.2 -1.65,-0.2 C 0.033,11.95 0.3,11.634 0.9,11.4 1.533,11.2 2.117,11.283 2.65,11.65 Z"
     style="clip-rule:evenodd;fill:url(#SVGID_3_);fill-rule:evenodd"
     inkscape:connector-curvature="0" /><path
     id="path46"
     d="m 11.9,12.1 c 1.467,0.101 1.917,0.483 1.35,1.15 -0.567,0.667 -1.25,0.866 -2.05,0.6 -0.667,-0.199 -0.867,-0.55 -0.6,-1.05 0.233,-0.533 0.667,-0.767 1.3,-0.7 z"
     style="clip-rule:evenodd;fill:url(#SVGID_4_);fill-rule:evenodd"
     inkscape:connector-curvature="0" /><path
     id="path53"
     d="M 8.1,13 C 8.8,12.866 9,13.083 8.7,13.65 8.4,14.183 8.05,14.349 7.65,14.15 7.283,13.917 7.15,13.7 7.25,13.5 7.35,13.267 7.633,13.1 8.1,13 Z"
     style="clip-rule:evenodd;fill:url(#SVGID_5_);fill-rule:evenodd"
     inkscape:connector-curvature="0" /><path
     id="path60"
     d="m 20.55,12.75 c 0.833,0 1.467,0.283 1.9,0.85 0.433,0.567 0.35,1 -0.25,1.301 -0.667,0.333 -1.417,0.5 -2.25,0.5 -0.9,0.033 -1.55,-0.2 -1.95,-0.7 -0.4,-0.467 -0.3,-0.917 0.3,-1.351 0.567,-0.4 1.317,-0.6 2.25,-0.6 z"
     style="clip-rule:evenodd;fill:url(#SVGID_6_);fill-rule:evenodd"
     inkscape:connector-curvature="0" /><path
     id="path67"
     d="m 25.25,14.9 c 0.333,0.399 0.35,0.767 0.05,1.1 -0.367,0.4 -1.15,0.533 -2.35,0.4 -1.233,-0.101 -1.883,-0.317 -1.95,-0.65 -0.067,-0.167 0.167,-0.533 0.7,-1.1 0.433,-0.467 1.017,-0.667 1.75,-0.601 0.733,0.034 1.333,0.317 1.8,0.851 z"
     style="clip-rule:evenodd;fill:url(#SVGID_7_);fill-rule:evenodd"
     inkscape:connector-curvature="0" /><path
     id="path74"
     d="m 34.15,15.4 c -0.567,0 -1.067,-0.101 -1.5,-0.301 -0.5,-0.233 -0.7,-0.55 -0.601,-0.949 0.167,-0.5 0.45,-0.967 0.851,-1.4 0.533,-0.467 1.1,-0.684 1.699,-0.65 0.634,0.034 1.284,0.367 1.95,1 0.634,0.601 0.917,1.117 0.851,1.551 -0.1,0.499 -1.183,0.749 -3.25,0.749 z"
     style="clip-rule:evenodd;fill:url(#SVGID_8_);fill-rule:evenodd"
     inkscape:connector-curvature="0" /><path
     id="path81"
     d="m 34.7,15.85 c -0.101,0.467 -0.5,0.733 -1.2,0.801 -0.6,0.033 -1.25,-0.067 -1.95,-0.301 -0.566,-0.199 -0.717,-0.5 -0.45,-0.899 0.233,-0.4 0.634,-0.667 1.2,-0.8 0.634,-0.167 1.2,-0.167 1.7,0 0.6,0.199 0.833,0.599 0.7,1.199 z"
     style="clip-rule:evenodd;fill:url(#SVGID_9_);fill-rule:evenodd"
     inkscape:connector-curvature="0" /><path
     id="path88"
     d="m 29.9,16.6 c 0.566,0.301 0.583,0.567 0.05,0.801 -0.5,0.199 -1.084,0.25 -1.75,0.149 -0.601,-0.1 -0.601,-0.366 0,-0.8 0.6,-0.434 1.166,-0.483 1.7,-0.15 z"
     style="clip-rule:evenodd;fill:url(#SVGID_10_);fill-rule:evenodd"
     inkscape:connector-curvature="0" /><path
     id="path95"
     d="m 18.55,15.85 c 0.6,0.2 0.583,0.5 -0.05,0.9 -0.6,0.4 -1.217,0.434 -1.85,0.1 -0.6,-0.333 -0.6,-0.649 0,-0.949 0.633,-0.267 1.267,-0.285 1.9,-0.051 z"
     style="clip-rule:evenodd;fill:url(#SVGID_11_);fill-rule:evenodd"
     inkscape:connector-curvature="0" /><path
     id="path102"
     d="m 9.25,14.55 c 0.633,0.066 0.95,0.25 0.95,0.55 0.033,0.301 -0.2,0.45 -0.7,0.45 -0.433,0 -0.683,-0.184 -0.75,-0.55 -0.067,-0.366 0.1,-0.517 0.5,-0.45 z"
     style="clip-rule:evenodd;fill:url(#SVGID_12_);fill-rule:evenodd"
     inkscape:connector-curvature="0" /><path
     id="path109"
     d="m 29.9,12.45 c 1.233,0.166 1.566,0.566 1,1.2 -0.601,0.6 -1.267,0.866 -2,0.8 -0.567,-0.033 -0.65,-0.384 -0.25,-1.05 0.4,-0.7 0.817,-1.016 1.25,-0.95 z"
     style="clip-rule:evenodd;fill:url(#SVGID_13_);fill-rule:evenodd"
     inkscape:connector-curvature="0" /><path
     id="path116"
     d="m 41.15,13.8 c 0.366,0.434 0.5,0.884 0.399,1.351 -0.066,0.433 -0.416,0.699 -1.05,0.8 -0.434,0.1 -1.184,0.116 -2.25,0.05 -0.9,-0.033 -1.434,-0.134 -1.6,-0.3 -0.2,-0.134 -0.233,-0.434 -0.101,-0.9 0.134,-0.533 0.517,-1.033 1.15,-1.5 0.7,-0.5 1.366,-0.649 2,-0.45 0.602,0.166 1.085,0.482 1.452,0.949 z"
     style="clip-rule:evenodd;fill:url(#SVGID_14_);fill-rule:evenodd"
     inkscape:connector-curvature="0" /><path
     id="path123"
     d="m 44.2,14.65 c 0.666,0.267 0.816,0.566 0.45,0.899 -0.367,0.334 -0.917,0.4 -1.65,0.2 -0.667,-0.2 -0.75,-0.483 -0.25,-0.85 0.533,-0.333 1.017,-0.416 1.45,-0.249 z"
     style="clip-rule:evenodd;fill:url(#SVGID_15_);fill-rule:evenodd"
     inkscape:connector-curvature="0" /><path
     id="path130"
     d="m 42.1,10.75 c 0.434,0.066 0.667,0.333 0.7,0.8 0.033,0.434 -0.149,0.733 -0.55,0.9 -0.4,0.166 -0.9,0.184 -1.5,0.05 -0.634,-0.134 -0.95,-0.333 -0.95,-0.6 0,-0.367 0.167,-0.667 0.5,-0.9 0.4,-0.333 1,-0.417 1.8,-0.25 z"
     style="clip-rule:evenodd;fill:url(#SVGID_16_);fill-rule:evenodd"
     inkscape:connector-curvature="0" /><path
     id="path137"
     d="m 43.85,9.55 c 0.667,0 1.134,0.217 1.4,0.65 0.267,0.366 0.283,0.649 0.05,0.85 -0.166,0.167 -0.399,0.233 -0.7,0.2 -0.133,0 -0.517,-0.066 -1.149,-0.2 -0.467,-0.066 -0.584,-0.333 -0.351,-0.8 0.233,-0.467 0.483,-0.7 0.75,-0.7 z"
     style="clip-rule:evenodd;fill:url(#SVGID_17_);fill-rule:evenodd"
     inkscape:connector-curvature="0" /><path
     id="path144"
     d="M 3.75,12.6 C 4.183,12.833 4.3,13.134 4.1,13.5 3.867,13.9 3.383,13.934 2.65,13.6 1.917,13.3 1.817,13.017 2.35,12.75 2.917,12.45 3.383,12.4 3.75,12.6 Z"
     style="clip-rule:evenodd;fill:url(#SVGID_18_);fill-rule:evenodd"
     inkscape:connector-curvature="0" /><path
     id="path146"
     d="m 8.95,9.6 c 0.767,0 0.95,0.217 0.55,0.65 -0.4,0.4 -0.85,0.566 -1.35,0.5 C 7.75,10.65 7.717,10.434 8.05,10.1 8.383,9.767 8.683,9.6 8.95,9.6 Z"
     style="clip-rule:evenodd;fill:#ba6414;fill-rule:evenodd"
     inkscape:connector-curvature="0" /><path
     id="path148"
     d="m 11.75,8.1 c 0.8,-0.133 1.117,0.033 0.95,0.5 -0.2,0.466 -0.6,0.7 -1.2,0.7 -0.567,0 -0.767,-0.184 -0.6,-0.55 0.133,-0.367 0.417,-0.583 0.85,-0.65 z"
     style="clip-rule:evenodd;fill:#ba6414;fill-rule:evenodd"
     inkscape:connector-curvature="0" /><path
     id="path150"
     d="m 11.8,9.9 c 0.567,0.033 0.75,0.416 0.55,1.149 -0.233,0.733 -0.667,0.917 -1.3,0.55 C 10.45,11.233 10.334,10.832 10.7,10.4 11,10 11.367,9.833 11.8,9.9 Z"
     style="clip-rule:evenodd;fill:#ba6414;fill-rule:evenodd"
     inkscape:connector-curvature="0" /><path
     id="path152"
     d="m 14.55,10.4 c 0.3,0.3 0.317,0.683 0.05,1.149 -0.267,0.466 -0.55,0.584 -0.85,0.351 -0.267,-0.2 -0.267,-0.567 0,-1.101 0.267,-0.534 0.533,-0.665 0.8,-0.399 z"
     style="clip-rule:evenodd;fill:#ba6414;fill-rule:evenodd"
     inkscape:connector-curvature="0" /><path
     id="path154"
     d="m 17.7,11.6 c 0.367,0.134 0.433,0.417 0.2,0.851 -0.233,0.399 -0.583,0.5 -1.05,0.3 -0.5,-0.2 -0.6,-0.483 -0.3,-0.85 0.3,-0.368 0.683,-0.467 1.15,-0.301 z"
     style="clip-rule:evenodd;fill:#ba6414;fill-rule:evenodd"
     inkscape:connector-curvature="0" /><path
     id="path156"
     d="m 19.9,9.35 c 0.633,0.301 0.8,0.684 0.5,1.15 -0.267,0.467 -0.717,0.566 -1.35,0.3 -0.6,-0.233 -0.7,-0.566 -0.3,-1 0.367,-0.467 0.75,-0.616 1.15,-0.45 z"
     style="clip-rule:evenodd;fill:#ba6414;fill-rule:evenodd"
     inkscape:connector-curvature="0" /><path
     id="path158"
     d="m 16.5,8.45 c 0.833,0.066 1.05,0.417 0.65,1.05 -0.433,0.667 -0.85,0.884 -1.25,0.65 C 15.567,9.95 15.5,9.6 15.7,9.1 15.9,8.633 16.167,8.417 16.5,8.45 Z"
     style="clip-rule:evenodd;fill:#ba6414;fill-rule:evenodd"
     inkscape:connector-curvature="0" /><path
     id="path160"
     d="m 14.1,7.4 c 0.867,0 1.15,0.267 0.85,0.8 -0.3,0.6 -0.667,0.816 -1.1,0.65 -0.333,-0.1 -0.434,-0.367 -0.3,-0.8 0.1,-0.433 0.283,-0.65 0.55,-0.65 z"
     style="clip-rule:evenodd;fill:#ba6414;fill-rule:evenodd"
     inkscape:connector-curvature="0" /><path
     id="path162"
     d="M 15.4,5.8 C 15.8,5.667 15.95,5.767 15.85,6.1 15.717,6.4 15.483,6.583 15.15,6.65 14.817,6.683 14.717,6.567 14.85,6.3 14.983,6.033 15.167,5.867 15.4,5.8 Z"
     style="clip-rule:evenodd;fill:#ba6414;fill-rule:evenodd"
     inkscape:connector-curvature="0" /><path
     id="path164"
     d="m 18.2,3.85 c 0.466,0.133 0.55,0.367 0.25,0.7 -0.333,0.333 -0.7,0.467 -1.1,0.4 -0.367,-0.067 -0.4,-0.284 -0.1,-0.65 0.3,-0.366 0.617,-0.517 0.95,-0.45 z"
     style="clip-rule:evenodd;fill:#ba6414;fill-rule:evenodd"
     inkscape:connector-curvature="0" /><path
     id="path166"
     d="m 20.15,2.55 c 0.533,0.034 0.7,0.2 0.5,0.5 -0.2,0.267 -0.483,0.367 -0.85,0.3 C 19.5,3.25 19.433,3.1 19.6,2.9 19.733,2.667 19.917,2.55 20.15,2.55 Z"
     style="clip-rule:evenodd;fill:#ba6414;fill-rule:evenodd"
     inkscape:connector-curvature="0" /><path
     id="path168"
     d="m 20.3,4.5 c 0.767,0.133 0.867,0.467 0.3,1 C 20,6.033 19.533,6.167 19.2,5.9 18.933,5.633 18.967,5.317 19.3,4.95 19.6,4.583 19.933,4.433 20.3,4.5 Z"
     style="clip-rule:evenodd;fill:#ba6414;fill-rule:evenodd"
     inkscape:connector-curvature="0" /><path
     id="path170"
     d="M 17.7,6.05 C 17.833,6.45 17.733,6.767 17.4,7 17.1,7.2 16.834,7.2 16.6,7 16.367,6.833 16.45,6.55 16.85,6.15 17.283,5.75 17.567,5.717 17.7,6.05 Z"
     style="clip-rule:evenodd;fill:#ba6414;fill-rule:evenodd"
     inkscape:connector-curvature="0" /><path
     id="path172"
     d="m 19.4,6.9 c 0.434,0 0.567,0.283 0.4,0.85 -0.033,0.167 -0.233,0.233 -0.6,0.2 C 18.867,7.916 18.617,7.817 18.45,7.65 18.283,7.483 18.3,7.317 18.5,7.15 18.7,6.983 19,6.9 19.4,6.9 Z"
     style="clip-rule:evenodd;fill:#ba6414;fill-rule:evenodd"
     inkscape:connector-curvature="0" /><path
     id="path174"
     d="M 21.85,7.05 C 22.583,7.183 22.767,7.5 22.4,8 22.033,8.5 21.683,8.667 21.35,8.5 21.083,8.367 21.033,8.083 21.2,7.65 21.333,7.217 21.55,7.017 21.85,7.05 Z"
     style="clip-rule:evenodd;fill:#ba6414;fill-rule:evenodd"
     inkscape:connector-curvature="0" /><path
     id="path176"
     d="m 22.35,10.55 c 0.566,0.101 0.7,0.4 0.4,0.9 -0.333,0.5 -0.667,0.684 -1,0.55 -0.3,-0.134 -0.383,-0.417 -0.25,-0.85 0.167,-0.433 0.45,-0.633 0.85,-0.6 z"
     style="clip-rule:evenodd;fill:#ba6414;fill-rule:evenodd"
     inkscape:connector-curvature="0" /><path
     id="path178"
     d="m 25.4,11.15 c 0.899,0.366 0.983,0.716 0.25,1.05 -0.8,0.399 -1.267,0.483 -1.4,0.25 -0.133,-0.2 -0.067,-0.5 0.2,-0.9 0.267,-0.434 0.583,-0.567 0.95,-0.4 z"
     style="clip-rule:evenodd;fill:#ba6414;fill-rule:evenodd"
     inkscape:connector-curvature="0" /><path
     id="path180"
     d="m 11.55,12.35 c 0.4,0.067 0.517,0.25 0.35,0.551 -0.167,0.267 -0.417,0.399 -0.75,0.399 -0.267,0 -0.316,-0.166 -0.15,-0.5 0.2,-0.333 0.383,-0.484 0.55,-0.45 z"
     style="clip-rule:evenodd;fill:#ba6414;fill-rule:evenodd"
     inkscape:connector-curvature="0" /><path
     id="path182"
     d="m 19.7,13.3 c 0.566,0.134 0.683,0.4 0.35,0.8 -0.367,0.4 -0.767,0.517 -1.2,0.351 -0.434,-0.134 -0.5,-0.4 -0.2,-0.8 0.3,-0.368 0.65,-0.484 1.05,-0.351 z"
     style="clip-rule:evenodd;fill:#ba6414;fill-rule:evenodd"
     inkscape:connector-curvature="0" /><path
     id="path184"
     d="m 22.7,14.55 c 0.466,0.066 0.5,0.334 0.1,0.8 -0.433,0.5 -0.833,0.684 -1.2,0.551 -0.367,-0.134 -0.367,-0.4 0,-0.801 0.367,-0.4 0.733,-0.583 1.1,-0.55 z"
     style="clip-rule:evenodd;fill:#ba6414;fill-rule:evenodd"
     inkscape:connector-curvature="0" /><path
     id="path186"
     d="m 17.6,16 c 0.133,0.134 0.1,0.283 -0.1,0.45 -0.2,0.166 -0.4,0.184 -0.6,0.05 -0.2,-0.134 -0.167,-0.283 0.1,-0.45 0.267,-0.166 0.467,-0.184 0.6,-0.05 z"
     style="clip-rule:evenodd;fill:#ba6414;fill-rule:evenodd"
     inkscape:connector-curvature="0" /><path
     id="path188"
     d="m 38.5,13.6 c 0.5,0.267 0.483,0.7 -0.05,1.301 -0.566,0.6 -1,0.8 -1.3,0.6 -0.267,-0.2 -0.2,-0.616 0.199,-1.25 C 37.75,13.616 38.134,13.4 38.5,13.6 Z"
     style="clip-rule:evenodd;fill:#ba6414;fill-rule:evenodd"
     inkscape:connector-curvature="0" /><path
     id="path190"
     d="m 34.25,12.6 c 0.267,0.134 0.2,0.467 -0.2,1 -0.366,0.5 -0.75,0.684 -1.149,0.551 -0.434,-0.167 -0.434,-0.534 0,-1.101 0.432,-0.567 0.882,-0.717 1.349,-0.45 z"
     style="clip-rule:evenodd;fill:#ba6414;fill-rule:evenodd"
     inkscape:connector-curvature="0" /><path
     id="path192"
     d="m 32.8,14.9 c 0.233,0.066 0.15,0.283 -0.25,0.649 -0.434,0.334 -0.75,0.4 -0.95,0.2 -0.199,-0.233 -0.116,-0.467 0.25,-0.7 0.367,-0.233 0.683,-0.282 0.95,-0.149 z"
     style="clip-rule:evenodd;fill:#ba6414;fill-rule:evenodd"
     inkscape:connector-curvature="0" /><path
     id="path194"
     d="m 29.65,12.95 c 0.333,0.066 0.35,0.267 0.05,0.6 -0.3,0.3 -0.566,0.384 -0.8,0.25 -0.2,-0.1 -0.167,-0.283 0.1,-0.55 0.267,-0.267 0.483,-0.366 0.65,-0.3 z"
     style="clip-rule:evenodd;fill:#ba6414;fill-rule:evenodd"
     inkscape:connector-curvature="0" /><path
     id="path196"
     d="m 41.05,11.05 c 0.566,-0.033 0.75,0.134 0.55,0.5 -0.233,0.367 -0.533,0.517 -0.899,0.45 -0.334,-0.066 -0.434,-0.233 -0.3,-0.5 0.099,-0.267 0.316,-0.417 0.649,-0.45 z"
     style="clip-rule:evenodd;fill:#ba6414;fill-rule:evenodd"
     inkscape:connector-curvature="0" /><path
     id="path198"
     d="m 44.2,9.9 c 0.366,0.133 0.45,0.333 0.25,0.6 -0.2,0.3 -0.483,0.35 -0.851,0.15 -0.333,-0.2 -0.383,-0.4 -0.149,-0.601 C 43.684,9.848 43.934,9.8 44.2,9.9 Z"
     style="clip-rule:evenodd;fill:#ba6414;fill-rule:evenodd"
     inkscape:connector-curvature="0" /><path
     id="path200"
     d="M 4.5,10.65 C 4.767,10.783 4.867,10.966 4.8,11.2 4.7,11.4 4.484,11.433 4.15,11.3 3.817,11.167 3.7,10.984 3.8,10.75 3.933,10.517 4.167,10.483 4.5,10.65 Z"
     style="clip-rule:evenodd;fill:#ba6414;fill-rule:evenodd"
     inkscape:connector-curvature="0" /></g>
</svg>