<?xml version="1.0" encoding="UTF-8" standalone="no"?>
<!-- Generator: Adobe Illustrator 15.1.0, SVG Export Plug-In . SVG Version: 6.00 Build 0)  -->

<svg
   xmlns:dc="http://purl.org/dc/elements/1.1/"
   xmlns:cc="http://creativecommons.org/ns#"
   xmlns:rdf="http://www.w3.org/1999/02/22-rdf-syntax-ns#"
   xmlns:svg="http://www.w3.org/2000/svg"
   xmlns="http://www.w3.org/2000/svg"
   xmlns:sodipodi="http://sodipodi.sourceforge.net/DTD/sodipodi-0.dtd"
   xmlns:inkscape="http://www.inkscape.org/namespaces/inkscape"
   version="1.1"
   id="flash0.ai"
   x="0px"
   y="0px"
   width="256"
   height="256"
   viewBox="0 0 256 255.99999"
   xml:space="preserve"
   sodipodi:docname="cumin.svg"
   inkscape:version="0.92.4 (5da689c313, 2019-01-14)"
   inkscape:export-filename="C:\Users\antum\Development\game-resources\icon\CC0\food\individual\Glitch\32x32\condiment\cumin.png"
   inkscape:export-xdpi="9"
   inkscape:export-ydpi="9"><title
   id="title1003">Cumin</title><metadata
   id="metadata196"><rdf:RDF><cc:Work
       rdf:about=""><dc:format>image/svg+xml</dc:format><dc:type
         rdf:resource="http://purl.org/dc/dcmitype/StillImage" /><dc:title>Cumin</dc:title><cc:license
         rdf:resource="http://creativecommons.org/publicdomain/zero/1.0/" /><dc:creator><cc:Agent><dc:title>Glitch</dc:title></cc:Agent></dc:creator><dc:source>https://opengameart.org/node/20149</dc:source></cc:Work><cc:License
       rdf:about="http://creativecommons.org/publicdomain/zero/1.0/"><cc:permits
         rdf:resource="http://creativecommons.org/ns#Reproduction" /><cc:permits
         rdf:resource="http://creativecommons.org/ns#Distribution" /><cc:permits
         rdf:resource="http://creativecommons.org/ns#DerivativeWorks" /></cc:License></rdf:RDF></metadata><defs
   id="defs194" /><sodipodi:namedview
   pagecolor="#ffffff"
   bordercolor="#666666"
   borderopacity="1"
   objecttolerance="10"
   gridtolerance="10"
   guidetolerance="10"
   inkscape:pageopacity="0"
   inkscape:pageshadow="2"
   inkscape:window-width="1920"
   inkscape:window-height="1025"
   id="namedview192"
   showgrid="false"
   inkscape:zoom="1.3571429"
   inkscape:cx="56.240032"
   inkscape:cy="21.82149"
   inkscape:window-x="-8"
   inkscape:window-y="-8"
   inkscape:window-maximized="1"
   inkscape:current-layer="flash0.ai"
   fit-margin-top="0"
   fit-margin-left="0"
   fit-margin-right="0"
   fit-margin-bottom="0" />
<linearGradient
   id="SVGID_1_"
   gradientUnits="userSpaceOnUse"
   x1="7.2002001"
   y1="7.1508999"
   x2="40.5"
   y2="7.1508999">
	<stop
   offset="0"
   style="stop-color:#FFD773"
   id="stop2" />
	<stop
   offset="1"
   style="stop-color:#CC9831"
   id="stop4" />
</linearGradient>



































<linearGradient
   id="SVGID_2_"
   gradientUnits="userSpaceOnUse"
   x1="4.3999"
   y1="11.1201"
   x2="8.1998997"
   y2="11.1201">
	<stop
   offset="0"
   style="stop-color:#FFDD8A"
   id="stop77" />
	<stop
   offset="1"
   style="stop-color:#CC982F"
   id="stop79" />
</linearGradient>

<linearGradient
   id="SVGID_3_"
   gradientUnits="userSpaceOnUse"
   x1="11.6499"
   y1="13.8604"
   x2="17.1499"
   y2="13.8604">
	<stop
   offset="0"
   style="stop-color:#FFDD8A"
   id="stop84" />
	<stop
   offset="1"
   style="stop-color:#CC982F"
   id="stop86" />
</linearGradient>

<linearGradient
   id="SVGID_4_"
   gradientUnits="userSpaceOnUse"
   x1="17.737301"
   y1="15.2549"
   x2="24.659201"
   y2="15.2549">
	<stop
   offset="0"
   style="stop-color:#FFDD8A"
   id="stop91" />
	<stop
   offset="1"
   style="stop-color:#CC982F"
   id="stop93" />
</linearGradient>

<linearGradient
   id="SVGID_5_"
   gradientUnits="userSpaceOnUse"
   x1="27.1499"
   y1="14.1504"
   x2="33.249901"
   y2="14.1504">
	<stop
   offset="0"
   style="stop-color:#FFDD8A"
   id="stop98" />
	<stop
   offset="1"
   style="stop-color:#CC982F"
   id="stop100" />
</linearGradient>

<linearGradient
   id="SVGID_6_"
   gradientUnits="userSpaceOnUse"
   x1="33.637699"
   y1="14.9912"
   x2="38.262699"
   y2="14.9912">
	<stop
   offset="0"
   style="stop-color:#FFDD8A"
   id="stop105" />
	<stop
   offset="1"
   style="stop-color:#CC982F"
   id="stop107" />
</linearGradient>

<linearGradient
   id="SVGID_7_"
   gradientUnits="userSpaceOnUse"
   x1="37.849602"
   y1="11.8701"
   x2="42.749599"
   y2="11.8701">
	<stop
   offset="0"
   style="stop-color:#FFDD8A"
   id="stop112" />
	<stop
   offset="1"
   style="stop-color:#CC982F"
   id="stop114" />
</linearGradient>

<linearGradient
   id="SVGID_8_"
   gradientUnits="userSpaceOnUse"
   x1="5.2124"
   y1="13.4551"
   x2="7.5874"
   y2="13.4551">
	<stop
   offset="0"
   style="stop-color:#FFDD8A"
   id="stop119" />
	<stop
   offset="1"
   style="stop-color:#CC982F"
   id="stop121" />
</linearGradient>

<linearGradient
   id="SVGID_9_"
   gradientUnits="userSpaceOnUse"
   x1="0.0625"
   y1="11.9014"
   x2="2.9375"
   y2="11.9014">
	<stop
   offset="0"
   style="stop-color:#FFDD8A"
   id="stop126" />
	<stop
   offset="1"
   style="stop-color:#CC982F"
   id="stop128" />
</linearGradient>

<linearGradient
   id="SVGID_10_"
   gradientUnits="userSpaceOnUse"
   x1="7.2876"
   y1="14.3945"
   x2="9.1126003"
   y2="14.3945">
	<stop
   offset="0"
   style="stop-color:#FFDD8A"
   id="stop133" />
	<stop
   offset="1"
   style="stop-color:#CC982F"
   id="stop135" />
</linearGradient>

<linearGradient
   id="SVGID_11_"
   gradientUnits="userSpaceOnUse"
   x1="11.5249"
   y1="15.6396"
   x2="15.8749"
   y2="15.6396">
	<stop
   offset="0"
   style="stop-color:#FFDD8A"
   id="stop140" />
	<stop
   offset="1"
   style="stop-color:#CC982F"
   id="stop142" />
</linearGradient>

<linearGradient
   id="SVGID_12_"
   gradientUnits="userSpaceOnUse"
   x1="18.2251"
   y1="17.314501"
   x2="22.375099"
   y2="17.314501">
	<stop
   offset="0"
   style="stop-color:#FFDD8A"
   id="stop147" />
	<stop
   offset="1"
   style="stop-color:#CC982F"
   id="stop149" />
</linearGradient>

<linearGradient
   id="SVGID_13_"
   gradientUnits="userSpaceOnUse"
   x1="25.785601"
   y1="15.8311"
   x2="29.910601"
   y2="15.8311">
	<stop
   offset="0"
   style="stop-color:#FFDD8A"
   id="stop154" />
	<stop
   offset="1"
   style="stop-color:#CC982F"
   id="stop156" />
</linearGradient>















<g
   id="g1067"
   transform="matrix(5.988258,0,0,5.988258,-0.14820947,71.837758)"><path
     id="path7"
     d="m 32,5.9 8.5,5.2 c -1.233,0.567 -2.917,1.117 -5.05,1.65 -4.3,1.066 -8.717,1.583 -13.25,1.55 C 17.666,14.234 13.8,13.634 10.6,12.5 9.033,11.967 7.9,11.417 7.2,10.85 7.5,10.85 8.233,10.5 9.4,9.8 10.834,8.933 12.217,7.9 13.55,6.7 14.984,5.433 16.834,3.967 19.1,2.3 21.2,0.767 22.35,0 22.55,0 22.783,0 25.933,1.967 32,5.9 Z"
     style="clip-rule:evenodd;fill:url(#SVGID_1_);fill-rule:evenodd"
     inkscape:connector-curvature="0" /><path
     id="path9"
     d="m 24.95,1.85 c 0.933,0.667 1.267,1.117 1,1.35 C 25.75,3.367 25.433,3.333 25,3.1 24.567,2.833 24.35,2.55 24.35,2.25 c 0,-0.567 0.2,-0.7 0.6,-0.4 z"
     style="clip-rule:evenodd;fill:#c98e36;fill-rule:evenodd"
     inkscape:connector-curvature="0" /><path
     id="path11"
     d="m 28.35,4.05 c 0.634,0.6 0.75,0.967 0.351,1.1 -0.467,0.167 -0.8,0.017 -1,-0.45 -0.133,-0.367 -0.117,-0.617 0.05,-0.75 0.132,-0.167 0.332,-0.133 0.599,0.1 z"
     style="clip-rule:evenodd;fill:#c98e36;fill-rule:evenodd"
     inkscape:connector-curvature="0" /><path
     id="path13"
     d="m 26.6,3.85 c 0.4,0.367 0.566,0.7 0.5,1 -0.033,0.2 -0.2,0.417 -0.5,0.65 -0.233,0.167 -0.567,0.167 -1,0 C 25.133,5.333 24.916,5.033 24.95,4.6 24.983,4.133 25.2,3.817 25.6,3.65 c 0.4,-0.133 0.733,-0.067 1,0.2 z"
     style="clip-rule:evenodd;fill:#c98e36;fill-rule:evenodd"
     inkscape:connector-curvature="0" /><path
     id="path15"
     d="M 24.3,3.4 C 24.667,4.033 24.65,4.467 24.25,4.7 23.85,4.933 23.6,4.85 23.5,4.45 23.433,4.117 23.517,3.8 23.75,3.5 23.95,3.167 24.133,3.133 24.3,3.4 Z"
     style="clip-rule:evenodd;fill:#c98e36;fill-rule:evenodd"
     inkscape:connector-curvature="0" /><path
     id="path17"
     d="m 29.35,6.35 c 0.733,0.5 0.9,1.033 0.5,1.6 -0.399,0.6 -0.783,0.6 -1.149,0 -0.334,-0.5 -0.4,-0.967 -0.2,-1.4 0.199,-0.4 0.482,-0.467 0.849,-0.2 z"
     style="clip-rule:evenodd;fill:#c98e36;fill-rule:evenodd"
     inkscape:connector-curvature="0" /><path
     id="path19"
     d="m 31.3,6.25 c 0.434,0.3 0.55,0.6 0.351,0.9 -0.233,0.3 -0.467,0.3 -0.7,0 -0.2,-0.267 -0.267,-0.533 -0.2,-0.8 0.099,-0.267 0.282,-0.3 0.549,-0.1 z"
     style="clip-rule:evenodd;fill:#c98e36;fill-rule:evenodd"
     inkscape:connector-curvature="0" /><path
     id="path21"
     d="m 36.25,9 c 0.566,0.433 0.7,0.917 0.4,1.45 -0.301,0.5 -0.684,0.566 -1.15,0.2 C 35.033,10.283 34.9,9.817 35.1,9.25 35.3,8.683 35.684,8.6 36.25,9 Z"
     style="clip-rule:evenodd;fill:#c98e36;fill-rule:evenodd"
     inkscape:connector-curvature="0" /><path
     id="path23"
     d="m 33.05,7.15 c 0.334,0.267 0.367,0.467 0.101,0.6 C 32.884,7.85 32.701,7.783 32.6,7.55 32.534,7.35 32.55,7.2 32.651,7.1 32.783,7 32.917,7.017 33.05,7.15 Z"
     style="clip-rule:evenodd;fill:#c98e36;fill-rule:evenodd"
     inkscape:connector-curvature="0" /><path
     id="path25"
     d="m 31.55,8 c 0.8,0.5 1.033,1 0.7,1.5 -0.333,0.533 -0.684,0.616 -1.05,0.25 C 30.934,9.483 30.866,9.1 31,8.6 31.167,8.1 31.35,7.9 31.55,8 Z"
     style="clip-rule:evenodd;fill:#c98e36;fill-rule:evenodd"
     inkscape:connector-curvature="0" /><path
     id="path27"
     d="m 28.95,9.65 c 0.7,0.233 0.983,0.683 0.85,1.35 -0.1,0.7 -0.434,0.95 -1,0.75 -0.5,-0.167 -0.7,-0.583 -0.6,-1.25 0.067,-0.7 0.317,-0.983 0.75,-0.85 z"
     style="clip-rule:evenodd;fill:#c98e36;fill-rule:evenodd"
     inkscape:connector-curvature="0" /><path
     id="path29"
     d="m 32.8,11.1 c 0.601,0.534 0.717,0.967 0.351,1.301 -0.367,0.3 -0.733,0.3 -1.101,0 -0.333,-0.233 -0.366,-0.567 -0.1,-1 0.267,-0.434 0.55,-0.535 0.85,-0.301 z"
     style="clip-rule:evenodd;fill:#c98e36;fill-rule:evenodd"
     inkscape:connector-curvature="0" /><path
     id="path31"
     d="m 34.65,10.75 c 0.366,0.066 0.566,0.25 0.6,0.55 0,0.3 -0.2,0.467 -0.6,0.5 -0.367,0.033 -0.517,-0.133 -0.45,-0.5 0.067,-0.366 0.217,-0.55 0.45,-0.55 z"
     style="clip-rule:evenodd;fill:#c98e36;fill-rule:evenodd"
     inkscape:connector-curvature="0" /><path
     id="path33"
     d="m 38.05,10.5 c 0.3,0.167 0.367,0.35 0.2,0.55 -0.167,0.2 -0.417,0.267 -0.75,0.2 -0.333,-0.033 -0.4,-0.2 -0.2,-0.5 0.2,-0.333 0.45,-0.417 0.75,-0.25 z"
     style="clip-rule:evenodd;fill:#c98e36;fill-rule:evenodd"
     inkscape:connector-curvature="0" /><path
     id="path35"
     d="m 26.15,7.9 c 0.3,0.233 0.35,0.467 0.15,0.7 -0.2,0.267 -0.433,0.3 -0.7,0.1 -0.2,-0.167 -0.2,-0.367 0,-0.6 0.167,-0.267 0.35,-0.333 0.55,-0.2 z"
     style="clip-rule:evenodd;fill:#c98e36;fill-rule:evenodd"
     inkscape:connector-curvature="0" /><path
     id="path37"
     d="m 25.55,10.65 c 0.534,0.466 0.65,0.916 0.35,1.35 -0.267,0.434 -0.6,0.55 -1,0.35 -0.367,-0.166 -0.4,-0.55 -0.1,-1.149 0.267,-0.601 0.517,-0.784 0.75,-0.551 z"
     style="clip-rule:evenodd;fill:#c98e36;fill-rule:evenodd"
     inkscape:connector-curvature="0" /><path
     id="path39"
     d="m 27.65,12.5 c 0.4,0.267 0.534,0.5 0.4,0.7 -0.133,0.2 -0.367,0.3 -0.7,0.3 -0.333,0 -0.434,-0.217 -0.3,-0.65 0.133,-0.4 0.333,-0.517 0.6,-0.35 z"
     style="clip-rule:evenodd;fill:#c98e36;fill-rule:evenodd"
     inkscape:connector-curvature="0" /><path
     id="path41"
     d="m 22.85,12.3 c 0.367,0.267 0.433,0.55 0.2,0.851 -0.2,0.267 -0.483,0.35 -0.85,0.25 C 21.9,13.3 21.867,13.05 22.1,12.651 22.333,12.217 22.583,12.1 22.85,12.3 Z"
     style="clip-rule:evenodd;fill:#c98e36;fill-rule:evenodd"
     inkscape:connector-curvature="0" /><path
     id="path43"
     d="m 26.75,6.1 c 0.567,-0.133 0.817,0.083 0.75,0.65 -0.067,0.6 -0.317,0.867 -0.75,0.8 -0.367,-0.066 -0.5,-0.316 -0.4,-0.75 0.067,-0.433 0.2,-0.667 0.4,-0.7 z"
     style="clip-rule:evenodd;fill:#c98e36;fill-rule:evenodd"
     inkscape:connector-curvature="0" /><path
     id="path45"
     d="m 23.6,7.4 c 0.533,0.367 0.633,0.75 0.3,1.15 C 23.567,8.917 23.267,9.017 23,8.85 22.8,8.717 22.8,8.4 23,7.9 23.2,7.433 23.4,7.267 23.6,7.4 Z"
     style="clip-rule:evenodd;fill:#c98e36;fill-rule:evenodd"
     inkscape:connector-curvature="0" /><path
     id="path47"
     d="m 21,1.55 c 0.4,0 0.317,0.333 -0.25,1 -0.567,0.667 -0.917,0.833 -1.05,0.5 -0.133,-0.3 -0.034,-0.633 0.3,-1 0.333,-0.333 0.667,-0.5 1,-0.5 z"
     style="clip-rule:evenodd;fill:#ffe68a;fill-rule:evenodd"
     inkscape:connector-curvature="0" /><path
     id="path49"
     d="m 11,9.55 c 0.267,0.367 0.167,0.667 -0.3,0.9 -0.5,0.233 -0.8,0.2 -0.9,-0.101 C 9.734,10.082 9.883,9.833 10.25,9.599 10.617,9.333 10.867,9.317 11,9.55 Z"
     style="clip-rule:evenodd;fill:#ffe68a;fill-rule:evenodd"
     inkscape:connector-curvature="0" /><path
     id="path51"
     d="m 18.4,3.5 c 0.733,-0.233 0.817,0.1 0.25,1 -0.6,0.933 -1.083,1.267 -1.45,1 C 16.867,5.267 16.9,4.883 17.3,4.35 17.667,3.883 18.033,3.6 18.4,3.5 Z"
     style="clip-rule:evenodd;fill:#ffe68a;fill-rule:evenodd"
     inkscape:connector-curvature="0" /><path
     id="path53"
     d="M 14.5,6.8 C 15.233,6.734 15.433,7.05 15.1,7.75 14.767,8.417 14.317,8.667 13.75,8.5 13.217,8.333 13.1,8.017 13.4,7.55 13.7,7.083 14.067,6.833 14.5,6.8 Z"
     style="clip-rule:evenodd;fill:#ffe68a;fill-rule:evenodd"
     inkscape:connector-curvature="0" /><path
     id="path55"
     d="m 12.7,9.05 c 0.667,0.034 0.883,0.4 0.65,1.101 -0.267,0.733 -0.617,0.916 -1.05,0.55 -0.4,-0.3 -0.5,-0.667 -0.3,-1.1 0.167,-0.368 0.4,-0.551 0.7,-0.551 z"
     style="clip-rule:evenodd;fill:#ffe68a;fill-rule:evenodd"
     inkscape:connector-curvature="0" /><path
     id="path57"
     d="M 20,3.9 C 20.5,3.733 20.633,4.033 20.4,4.8 20.2,5.567 19.883,5.834 19.45,5.6 19.05,5.433 18.95,5.133 19.15,4.7 19.35,4.3 19.633,4.033 20,3.9 Z"
     style="clip-rule:evenodd;fill:#ffe68a;fill-rule:evenodd"
     inkscape:connector-curvature="0" /><path
     id="path59"
     d="M 21.45,2.75 C 21.717,2.683 21.766,2.833 21.6,3.2 21.4,3.567 21.183,3.733 20.95,3.7 20.75,3.666 20.733,3.516 20.9,3.25 21.067,2.983 21.25,2.817 21.45,2.75 Z"
     style="clip-rule:evenodd;fill:#ffe68a;fill-rule:evenodd"
     inkscape:connector-curvature="0" /><path
     id="path61"
     d="m 22.2,0.6 c 0.4,-0.067 0.517,0.066 0.35,0.4 -0.167,0.367 -0.4,0.55 -0.7,0.55 -0.233,0 -0.267,-0.15 -0.1,-0.45 0.133,-0.3 0.283,-0.467 0.45,-0.5 z"
     style="clip-rule:evenodd;fill:#ffe68a;fill-rule:evenodd"
     inkscape:connector-curvature="0" /><path
     id="path63"
     d="m 18,6.25 c 0.733,-0.133 0.933,0.2 0.6,1 -0.3,0.833 -0.667,1.2 -1.1,1.1 -0.333,-0.1 -0.4,-0.467 -0.2,-1.1 0.233,-0.633 0.467,-0.967 0.7,-1 z"
     style="clip-rule:evenodd;fill:#ffe68a;fill-rule:evenodd"
     inkscape:connector-curvature="0" /><path
     id="path65"
     d="m 18.5,9.4 c 0.5,-0.367 0.667,-0.15 0.5,0.65 -0.167,0.767 -0.467,1.101 -0.9,1 -0.4,-0.1 -0.517,-0.35 -0.35,-0.75 0.133,-0.367 0.383,-0.667 0.75,-0.9 z"
     style="clip-rule:evenodd;fill:#ffe68a;fill-rule:evenodd"
     inkscape:connector-curvature="0" /><path
     id="path67"
     d="m 15.5,8.7 c 0.367,-0.133 0.367,0.167 0,0.9 -0.333,0.7 -0.65,0.883 -0.95,0.55 C 14.117,9.683 14.433,9.2 15.5,8.7 Z"
     style="clip-rule:evenodd;fill:#ffe68a;fill-rule:evenodd"
     inkscape:connector-curvature="0" /><path
     id="path69"
     d="M 15.6,5.5 C 16,5.133 16.183,5.15 16.15,5.55 16.117,6.017 16,6.283 15.8,6.35 15.633,6.416 15.533,6.333 15.5,6.1 15.433,5.833 15.467,5.633 15.6,5.5 Z"
     style="clip-rule:evenodd;fill:#ffe68a;fill-rule:evenodd"
     inkscape:connector-curvature="0" /><path
     id="path71"
     d="M 21.75,4.5 C 22.317,4.467 22.467,4.633 22.2,5 21.967,5.367 21.717,5.533 21.45,5.5 21.25,5.467 21.2,5.3 21.3,5 21.433,4.7 21.583,4.533 21.75,4.5 Z"
     style="clip-rule:evenodd;fill:#ffe68a;fill-rule:evenodd"
     inkscape:connector-curvature="0" /><path
     id="path73"
     d="m 11.75,11.05 c 0.533,0.167 0.667,0.467 0.4,0.9 -0.267,0.433 -0.667,0.566 -1.2,0.399 -0.467,-0.1 -0.534,-0.366 -0.2,-0.8 0.367,-0.433 0.7,-0.599 1,-0.499 z"
     style="clip-rule:evenodd;fill:#ffe68a;fill-rule:evenodd"
     inkscape:connector-curvature="0" /><path
     id="path75"
     d="m 14.1,11.45 c 0.833,0.1 1.066,0.366 0.7,0.8 -0.4,0.434 -0.767,0.583 -1.1,0.45 -0.267,-0.101 -0.317,-0.334 -0.15,-0.7 0.133,-0.4 0.317,-0.583 0.55,-0.55 z"
     style="clip-rule:evenodd;fill:#ffe68a;fill-rule:evenodd"
     inkscape:connector-curvature="0" /><path
     id="path82"
     d="m 8.05,10.85 c 0.233,0.301 0.2,0.584 -0.1,0.851 -0.367,0.3 -1.034,0.434 -2,0.399 -0.967,-0.033 -1.483,-0.183 -1.55,-0.449 -0.066,-0.167 0.1,-0.5 0.5,-1 0.3,-0.4 0.817,-0.567 1.55,-0.5 0.733,0.066 1.267,0.299 1.6,0.699 z"
     style="clip-rule:evenodd;fill:url(#SVGID_2_);fill-rule:evenodd"
     inkscape:connector-curvature="0" /><path
     id="path89"
     d="m 16.95,14.4 c -0.367,0.366 -1.1,0.633 -2.2,0.8 -1.167,0.166 -2.05,0.083 -2.65,-0.25 -0.6,-0.3 -0.617,-0.767 -0.05,-1.4 0.534,-0.6 1.15,-0.95 1.85,-1.05 0.9,-0.167 1.75,0 2.55,0.5 0.8,0.467 0.967,0.934 0.5,1.4 z"
     style="clip-rule:evenodd;fill:url(#SVGID_3_);fill-rule:evenodd"
     inkscape:connector-curvature="0" /><path
     id="path96"
     d="m 24.05,14.2 c 0.534,0 0.733,0.416 0.6,1.25 -0.133,0.8 -0.45,1.267 -0.95,1.399 -0.333,0.067 -0.917,-0.017 -1.75,-0.25 C 21.183,16.4 20.7,16.333 20.5,16.4 20.167,16.566 19.667,16.599 19,16.5 18.3,16.366 17.9,16.15 17.8,15.85 17.7,15.583 17.834,15.3 18.2,15 c 0.3,-0.233 0.883,-0.583 1.75,-1.05 0.6,-0.334 1.316,-0.4 2.15,-0.2 1.2,0.3 1.85,0.45 1.95,0.45 z"
     style="clip-rule:evenodd;fill:url(#SVGID_4_);fill-rule:evenodd"
     inkscape:connector-curvature="0" /><path
     id="path103"
     d="m 30,12.7 c 1.134,0.033 2.033,0.399 2.7,1.1 0.633,0.667 0.733,1.2 0.3,1.601 -0.3,0.233 -0.733,0.267 -1.3,0.1 -0.8,-0.233 -1.334,-0.35 -1.601,-0.35 -1.366,0.133 -2.316,-0.017 -2.85,-0.45 -0.333,-0.3 -0.167,-0.7 0.5,-1.2 C 28.45,12.934 29.2,12.667 30,12.7 Z"
     style="clip-rule:evenodd;fill:url(#SVGID_5_);fill-rule:evenodd"
     inkscape:connector-curvature="0" /><path
     id="path110"
     d="m 36,13.3 c 1.267,-0.033 2.017,0.384 2.25,1.25 0.2,0.8 -0.017,1.384 -0.65,1.75 -0.533,0.334 -1.166,0.45 -1.899,0.351 -0.834,-0.067 -1.45,-0.4 -1.851,-1 C 33.451,15.05 33.55,14.517 34.151,14.05 34.684,13.616 35.3,13.366 36,13.3 Z"
     style="clip-rule:evenodd;fill:url(#SVGID_6_);fill-rule:evenodd"
     inkscape:connector-curvature="0" /><path
     id="path117"
     d="m 41.15,10.7 c 1.699,0.133 2.066,0.533 1.1,1.2 -0.833,0.633 -1.767,1.017 -2.8,1.149 -0.634,0.101 -1.101,-0.116 -1.4,-0.649 -0.2,-0.367 -0.267,-0.733 -0.2,-1.101 0.067,-0.2 0.4,-0.366 1,-0.5 0.667,-0.132 1.433,-0.165 2.3,-0.099 z"
     style="clip-rule:evenodd;fill:url(#SVGID_7_);fill-rule:evenodd"
     inkscape:connector-curvature="0" /><path
     id="path124"
     d="M 7.2,12.7 C 7.867,12.766 7.8,13.099 7,13.7 6.2,14.266 5.65,14.366 5.35,14 5.05,13.667 5.183,13.35 5.75,13.05 6.283,12.783 6.767,12.667 7.2,12.7 Z"
     style="clip-rule:evenodd;fill:url(#SVGID_8_);fill-rule:evenodd"
     inkscape:connector-curvature="0" /><path
     id="path131"
     d="m 2.2,11.05 c 0.966,0.334 1.083,0.767 0.35,1.3 -0.767,0.534 -1.466,0.634 -2.1,0.301 -0.567,-0.334 -0.567,-0.733 0,-1.2 C 0.983,10.983 1.567,10.85 2.2,11.05 Z"
     style="clip-rule:evenodd;fill:url(#SVGID_9_);fill-rule:evenodd"
     inkscape:connector-curvature="0" /><path
     id="path138"
     d="m 8.7,13.75 c 0.533,0.134 0.6,0.434 0.2,0.9 C 8.5,15.116 8.067,15.2 7.6,14.9 7.166,14.633 7.15,14.349 7.55,14.049 7.917,13.75 8.3,13.65 8.7,13.75 Z"
     style="clip-rule:evenodd;fill:url(#SVGID_10_);fill-rule:evenodd"
     inkscape:connector-curvature="0" /><path
     id="path145"
     d="m 15.9,15.6 c 0.067,0.534 -0.283,0.9 -1.05,1.101 -0.767,0.233 -1.617,0.184 -2.55,-0.15 -0.8,-0.3 -0.966,-0.6 -0.5,-0.899 0.3,-0.167 0.833,-0.417 1.6,-0.75 0.533,-0.367 1.033,-0.517 1.5,-0.45 0.567,0.031 0.9,0.414 1,1.148 z"
     style="clip-rule:evenodd;fill:url(#SVGID_11_);fill-rule:evenodd"
     inkscape:connector-curvature="0" /><path
     id="path152"
     d="m 22.2,17.1 c 0.433,0.134 0.316,0.467 -0.35,1 -0.667,0.567 -1.4,0.767 -2.2,0.601 -0.833,-0.167 -1.3,-0.566 -1.4,-1.2 -0.1,-0.6 0.167,-1.083 0.8,-1.45 0.434,-0.267 0.917,-0.233 1.45,0.101 0.9,0.565 1.467,0.881 1.7,0.948 z"
     style="clip-rule:evenodd;fill:url(#SVGID_12_);fill-rule:evenodd"
     inkscape:connector-curvature="0" /><path
     id="path159"
     d="m 29.9,16.05 c -0.4,0.634 -1.101,0.983 -2.101,1.05 -0.966,0.067 -1.6,-0.133 -1.9,-0.6 -0.267,-0.4 -0.066,-0.833 0.6,-1.3 0.6,-0.434 1.167,-0.65 1.7,-0.65 0.434,0 0.866,0.2 1.3,0.601 0.435,0.366 0.567,0.665 0.401,0.899 z"
     style="clip-rule:evenodd;fill:url(#SVGID_13_);fill-rule:evenodd"
     inkscape:connector-curvature="0" /><path
     id="path161"
     d="m 1.35,11.35 c 0.333,0.1 0.317,0.25 -0.05,0.45 -0.4,0.233 -0.633,0.267 -0.7,0.101 -0.067,-0.167 -0.017,-0.317 0.15,-0.45 0.2,-0.135 0.4,-0.168 0.6,-0.101 z"
     style="clip-rule:evenodd;fill:#fff38a;fill-rule:evenodd"
     inkscape:connector-curvature="0" /><path
     id="path163"
     d="M 5.85,10.4 C 6.183,10.366 6.433,10.433 6.6,10.599 6.8,10.767 6.783,10.9 6.55,11 5.417,11.5 4.834,11.634 4.8,11.4 4.767,11.233 4.883,11.016 5.15,10.75 5.417,10.517 5.65,10.4 5.85,10.4 Z"
     style="clip-rule:evenodd;fill:#fff38a;fill-rule:evenodd"
     inkscape:connector-curvature="0" /><path
     id="path165"
     d="m 6.2,13.15 c 0.233,0 0.2,0.133 -0.1,0.399 -0.267,0.233 -0.45,0.3 -0.55,0.2 -0.1,-0.066 -0.066,-0.184 0.1,-0.35 C 5.817,13.233 6,13.15 6.2,13.15 Z"
     style="clip-rule:evenodd;fill:#fff38a;fill-rule:evenodd"
     inkscape:connector-curvature="0" /><path
     id="path167"
     d="m 8.15,13.95 c 0.2,0 0.184,0.116 -0.05,0.35 -0.233,0.267 -0.4,0.334 -0.5,0.2 -0.067,-0.1 -0.05,-0.217 0.05,-0.35 0.1,-0.133 0.267,-0.2 0.5,-0.2 z"
     style="clip-rule:evenodd;fill:#fff38a;fill-rule:evenodd"
     inkscape:connector-curvature="0" /><path
     id="path169"
     d="m 14.1,12.8 c 0.333,-0.033 0.467,0.05 0.4,0.25 -0.067,0.167 -0.283,0.351 -0.65,0.55 -0.5,0.267 -0.833,0.417 -1,0.45 -0.267,0.101 -0.4,0.05 -0.4,-0.149 0,-0.233 0.2,-0.467 0.6,-0.7 0.367,-0.234 0.717,-0.368 1.05,-0.401 z"
     style="clip-rule:evenodd;fill:#fff38a;fill-rule:evenodd"
     inkscape:connector-curvature="0" /><path
     id="path171"
     d="m 13.95,14.85 c 0.3,-0.033 0.483,0.017 0.55,0.15 0.067,0.133 -0.033,0.233 -0.3,0.3 -0.067,0.033 -0.333,0.184 -0.8,0.45 -0.3,0.2 -0.483,0.217 -0.55,0.05 -0.033,-0.2 0.066,-0.399 0.3,-0.6 0.233,-0.167 0.5,-0.283 0.8,-0.35 z"
     style="clip-rule:evenodd;fill:#fff38a;fill-rule:evenodd"
     inkscape:connector-curvature="0" /><path
     id="path173"
     d="m 12.15,15.7 c -0.066,0.166 -0.167,0.25 -0.3,0.25 -0.1,0 -0.1,-0.033 0,-0.101 0.067,-0.099 0.167,-0.149 0.3,-0.149 z"
     style="clip-rule:evenodd;fill:#fff38a;fill-rule:evenodd"
     inkscape:connector-curvature="0" /><path
     id="path175"
     d="m 20.9,14 c 0.267,0.033 0.383,0.184 0.35,0.45 -0.033,0.2 -0.15,0.383 -0.35,0.55 -0.2,0.167 -0.633,0.3 -1.3,0.4 -0.7,0.1 -1,0.017 -0.9,-0.25 0.1,-0.267 0.433,-0.534 1,-0.801 C 20.2,14.116 20.6,14 20.9,14 Z"
     style="clip-rule:evenodd;fill:#fff38a;fill-rule:evenodd"
     inkscape:connector-curvature="0" /><path
     id="path177"
     d="m 23.4,14.65 c 0.2,-0.067 0.333,-0.034 0.4,0.1 0.067,0.134 0.034,0.283 -0.1,0.45 -0.467,0.566 -0.75,0.733 -0.85,0.5 -0.1,-0.167 -0.083,-0.384 0.05,-0.65 0.167,-0.234 0.333,-0.366 0.5,-0.4 z"
     style="clip-rule:evenodd;fill:#fff38a;fill-rule:evenodd"
     inkscape:connector-curvature="0" /><path
     id="path179"
     d="m 19.45,16.3 c 0.566,0.033 0.617,0.267 0.15,0.7 -0.5,0.467 -0.75,0.517 -0.75,0.15 -0.067,-0.633 0.133,-0.917 0.6,-0.85 z"
     style="clip-rule:evenodd;fill:#fff38a;fill-rule:evenodd"
     inkscape:connector-curvature="0" /><path
     id="path181"
     d="m 27.35,14.95 c 0.566,-0.167 0.716,0.083 0.45,0.75 -0.1,0.233 -0.3,0.416 -0.6,0.55 -0.3,0.134 -0.55,0.066 -0.75,-0.2 -0.3,-0.4 0,-0.767 0.9,-1.1 z"
     style="clip-rule:evenodd;fill:#fff38a;fill-rule:evenodd"
     inkscape:connector-curvature="0" /><path
     id="path183"
     d="m 29.35,13.1 c 0.233,-0.033 0.334,0.084 0.301,0.351 -0.034,0.267 -0.184,0.483 -0.45,0.649 -0.233,0.167 -0.517,0.217 -0.851,0.15 -0.333,-0.033 -0.483,-0.134 -0.45,-0.3 0,-0.134 0.183,-0.3 0.55,-0.5 0.333,-0.167 0.633,-0.283 0.9,-0.35 z"
     style="clip-rule:evenodd;fill:#fff38a;fill-rule:evenodd"
     inkscape:connector-curvature="0" /><path
     id="path185"
     d="m 32.15,13.95 c 0.366,0.1 0.433,0.3 0.199,0.6 -0.233,0.267 -0.416,0.367 -0.55,0.3 -0.1,-0.066 -0.116,-0.25 -0.05,-0.55 0.101,-0.267 0.234,-0.383 0.401,-0.35 z"
     style="clip-rule:evenodd;fill:#fff38a;fill-rule:evenodd"
     inkscape:connector-curvature="0" /><path
     id="path187"
     d="m 35.2,13.95 c 0.399,-0.101 0.533,0.166 0.399,0.8 -0.6,0.533 -0.983,0.65 -1.149,0.35 -0.101,-0.199 -0.066,-0.433 0.1,-0.699 0.2,-0.234 0.417,-0.384 0.65,-0.451 z"
     style="clip-rule:evenodd;fill:#fff38a;fill-rule:evenodd"
     inkscape:connector-curvature="0" /><path
     id="path189"
     d="m 39.4,11.2 c 0.233,-0.033 0.383,0.033 0.449,0.2 0.034,0.199 -0.05,0.366 -0.25,0.5 -0.199,0.133 -0.449,0.166 -0.75,0.1 -0.267,-0.066 -0.416,-0.184 -0.449,-0.35 0,-0.134 0.1,-0.217 0.3,-0.25 0.133,-0.034 0.366,-0.1 0.7,-0.2 z"
     style="clip-rule:evenodd;fill:#fff38a;fill-rule:evenodd"
     inkscape:connector-curvature="0" /></g>
</svg>