<?xml version="1.0" encoding="UTF-8" standalone="no"?>
<!-- Generator: Adobe Illustrator 15.1.0, SVG Export Plug-In . SVG Version: 6.00 Build 0)  -->

<svg
   xmlns:dc="http://purl.org/dc/elements/1.1/"
   xmlns:cc="http://creativecommons.org/ns#"
   xmlns:rdf="http://www.w3.org/1999/02/22-rdf-syntax-ns#"
   xmlns:svg="http://www.w3.org/2000/svg"
   xmlns="http://www.w3.org/2000/svg"
   xmlns:sodipodi="http://sodipodi.sourceforge.net/DTD/sodipodi-0.dtd"
   xmlns:inkscape="http://www.inkscape.org/namespaces/inkscape"
   version="1.1"
   id="flash0.ai"
   x="0px"
   y="0px"
   width="256"
   height="256"
   viewBox="0 0 256 256.00001"
   xml:space="preserve"
   sodipodi:docname="turmeric.svg"
   inkscape:version="0.92.4 (5da689c313, 2019-01-14)"
   inkscape:export-filename="C:\Users\antum\Development\game-resources\icon\CC0\food\individual\Glitch\32x32\condiment\spice_turmeric.png"
   inkscape:export-xdpi="9"
   inkscape:export-ydpi="9"><title
   id="title1093">Turmeric</title><metadata
   id="metadata286"><rdf:RDF><cc:Work
       rdf:about=""><dc:format>image/svg+xml</dc:format><dc:type
         rdf:resource="http://purl.org/dc/dcmitype/StillImage" /><dc:title>Turmeric</dc:title><cc:license
         rdf:resource="http://creativecommons.org/publicdomain/zero/1.0/" /><dc:creator><cc:Agent><dc:title>Glitch</dc:title></cc:Agent></dc:creator><dc:source>https://opengameart.org/node/20149</dc:source></cc:Work><cc:License
       rdf:about="http://creativecommons.org/publicdomain/zero/1.0/"><cc:permits
         rdf:resource="http://creativecommons.org/ns#Reproduction" /><cc:permits
         rdf:resource="http://creativecommons.org/ns#Distribution" /><cc:permits
         rdf:resource="http://creativecommons.org/ns#DerivativeWorks" /></cc:License></rdf:RDF></metadata><defs
   id="defs284" /><sodipodi:namedview
   pagecolor="#ffffff"
   bordercolor="#666666"
   borderopacity="1"
   objecttolerance="10"
   gridtolerance="10"
   guidetolerance="10"
   inkscape:pageopacity="0"
   inkscape:pageshadow="2"
   inkscape:window-width="1920"
   inkscape:window-height="1025"
   id="namedview282"
   showgrid="false"
   inkscape:zoom="1.5184815"
   inkscape:cx="64.098291"
   inkscape:cy="109.27033"
   inkscape:window-x="-8"
   inkscape:window-y="-8"
   inkscape:window-maximized="1"
   inkscape:current-layer="flash0.ai"
   fit-margin-top="0"
   fit-margin-left="0"
   fit-margin-right="0"
   fit-margin-bottom="0" />
<linearGradient
   id="SVGID_1_"
   gradientUnits="userSpaceOnUse"
   x1="10.9556"
   y1="21.158199"
   x2="22.2514"
   y2="21.158199"
   gradientTransform="matrix(0.8255,-0.5644,0.5644,0.8255,-3.397465e-5,-8.571148e-5)">
	<stop
   offset="0"
   style="stop-color:#F59300"
   id="stop2" />
	<stop
   offset="1"
   style="stop-color:#C25100"
   id="stop4" />
</linearGradient>

<linearGradient
   id="SVGID_2_"
   gradientUnits="userSpaceOnUse"
   x1="-5.1718998"
   y1="10.5879"
   x2="-4.5061998"
   y2="10.5879"
   gradientTransform="matrix(0.8262,-0.5633,0.5633,0.8262,1.341105e-5,-1.403093e-4)">
	<stop
   offset="0"
   style="stop-color:#F59300"
   id="stop9" />
	<stop
   offset="1"
   style="stop-color:#C25100"
   id="stop11" />
</linearGradient>

<linearGradient
   id="SVGID_3_"
   gradientUnits="userSpaceOnUse"
   x1="-5.2212"
   y1="12.9199"
   x2="-4.7150002"
   y2="12.9199"
   gradientTransform="matrix(0.8396,-0.5433,0.5433,0.8396,1.093149e-4,3.308058e-5)">
	<stop
   offset="0"
   style="stop-color:#F59300"
   id="stop16" />
	<stop
   offset="1"
   style="stop-color:#C25100"
   id="stop18" />
</linearGradient>

<linearGradient
   id="SVGID_4_"
   gradientUnits="userSpaceOnUse"
   x1="-3.665"
   y1="12.7051"
   x2="-3.415"
   y2="12.7051"
   gradientTransform="rotate(-36.869898,2.428293e-4,-7.284879e-4)">
	<stop
   offset="0"
   style="stop-color:#F59300"
   id="stop23" />
	<stop
   offset="1"
   style="stop-color:#C25100"
   id="stop25" />
</linearGradient>

<linearGradient
   id="SVGID_5_"
   gradientUnits="userSpaceOnUse"
   x1="-2.5585999"
   y1="14.3223"
   x2="-2.3783"
   y2="14.3223"
   gradientTransform="matrix(0.8321,-0.5547,0.5547,0.8321,3.721714e-4,1.28746e-4)">
	<stop
   offset="0"
   style="stop-color:#F59300"
   id="stop30" />
	<stop
   offset="1"
   style="stop-color:#C25100"
   id="stop32" />
</linearGradient>

<linearGradient
   id="SVGID_6_"
   gradientUnits="userSpaceOnUse"
   x1="0.53369999"
   y1="18.505899"
   x2="1.65"
   y2="18.505899"
   gradientTransform="matrix(0.8286,-0.5599,0.5599,0.8286,-3.079772e-4,9.804964e-5)">
	<stop
   offset="0"
   style="stop-color:#F59300"
   id="stop37" />
	<stop
   offset="1"
   style="stop-color:#C25100"
   id="stop39" />
</linearGradient>

<linearGradient
   id="SVGID_7_"
   gradientUnits="userSpaceOnUse"
   x1="-1.2881"
   y1="17.820299"
   x2="-0.80269998"
   y2="17.820299"
   gradientTransform="matrix(0.824,-0.5665,0.5665,0.824,-2.231598e-4,-5.00679e-5)">
	<stop
   offset="0"
   style="stop-color:#F59300"
   id="stop44" />
	<stop
   offset="1"
   style="stop-color:#C25100"
   id="stop46" />
</linearGradient>

<linearGradient
   id="SVGID_8_"
   gradientUnits="userSpaceOnUse"
   x1="-3.4052999"
   y1="10.2354"
   x2="-2.8850999"
   y2="10.2354"
   gradientTransform="matrix(0.817,-0.5767,0.5767,0.817,-1.112819e-4,-1.579523e-4)">
	<stop
   offset="0"
   style="stop-color:#F59300"
   id="stop51" />
	<stop
   offset="1"
   style="stop-color:#C25100"
   id="stop53" />
</linearGradient>

<linearGradient
   id="SVGID_9_"
   gradientUnits="userSpaceOnUse"
   x1="-6.6851001"
   y1="9.8325005"
   x2="-6.4351001"
   y2="9.8325005"
   gradientTransform="rotate(-36.869898,2.428293e-4,-7.284879e-4)">
	<stop
   offset="0"
   style="stop-color:#F59300"
   id="stop58" />
	<stop
   offset="1"
   style="stop-color:#C25100"
   id="stop60" />
</linearGradient>

<linearGradient
   id="SVGID_10_"
   gradientUnits="userSpaceOnUse"
   x1="-4.0366001"
   y1="16.505899"
   x2="-3.4263"
   y2="16.505899"
   gradientTransform="matrix(0.8192,-0.5735,0.5735,0.8192,-5.775094e-4,1.975298e-4)">
	<stop
   offset="0"
   style="stop-color:#F59300"
   id="stop65" />
	<stop
   offset="1"
   style="stop-color:#C25100"
   id="stop67" />
</linearGradient>

<linearGradient
   id="SVGID_11_"
   gradientUnits="userSpaceOnUse"
   x1="6.3042002"
   y1="23.4121"
   x2="8.0861998"
   y2="23.4121"
   gradientTransform="matrix(0.8277,-0.5612,0.5612,0.8277,-9.524822e-5,-7.987022e-5)">
	<stop
   offset="0"
   style="stop-color:#F59300"
   id="stop72" />
	<stop
   offset="1"
   style="stop-color:#C25100"
   id="stop74" />
</linearGradient>

<linearGradient
   id="SVGID_12_"
   gradientUnits="userSpaceOnUse"
   x1="8.6288996"
   y1="25.816401"
   x2="9.9809999"
   y2="25.816401"
   gradientTransform="matrix(0.8321,-0.5547,0.5547,0.8321,-1.134276e-4,1.28448e-4)">
	<stop
   offset="0"
   style="stop-color:#F59300"
   id="stop79" />
	<stop
   offset="1"
   style="stop-color:#C25100"
   id="stop81" />
</linearGradient>

<linearGradient
   id="SVGID_13_"
   gradientUnits="userSpaceOnUse"
   x1="3.5996001"
   y1="23.779301"
   x2="4.5356998"
   y2="23.779301"
   gradientTransform="matrix(0.8279,-0.5608,0.5608,0.8279,-2.965331e-4,-1.716614e-4)">
	<stop
   offset="0"
   style="stop-color:#F59300"
   id="stop86" />
	<stop
   offset="1"
   style="stop-color:#C25100"
   id="stop88" />
</linearGradient>

<linearGradient
   id="SVGID_14_"
   gradientUnits="userSpaceOnUse"
   x1="1.8994"
   y1="23.380899"
   x2="2.4749999"
   y2="23.380899"
   gradientTransform="matrix(0.8253,-0.5647,0.5647,0.8253,-2.244115e-4,-2.345443e-4)">
	<stop
   offset="0"
   style="stop-color:#F59300"
   id="stop93" />
	<stop
   offset="1"
   style="stop-color:#C25100"
   id="stop95" />
</linearGradient>

<linearGradient
   id="SVGID_15_"
   gradientUnits="userSpaceOnUse"
   x1="17.387699"
   y1="30.866199"
   x2="19.0242"
   y2="30.866199"
   gradientTransform="matrix(0.8249,-0.5652,0.5652,0.8249,2.557635e-4,1.120567e-4)">
	<stop
   offset="0"
   style="stop-color:#F59300"
   id="stop100" />
	<stop
   offset="1"
   style="stop-color:#C25100"
   id="stop102" />
</linearGradient>

<linearGradient
   id="SVGID_16_"
   gradientUnits="userSpaceOnUse"
   x1="15.1572"
   y1="30.7061"
   x2="16.238899"
   y2="30.7061"
   gradientTransform="matrix(0.8321,-0.5547,0.5547,0.8321,-6.023049e-4,1.28448e-4)">
	<stop
   offset="0"
   style="stop-color:#F59300"
   id="stop107" />
	<stop
   offset="1"
   style="stop-color:#C25100"
   id="stop109" />
</linearGradient>

<linearGradient
   id="SVGID_17_"
   gradientUnits="userSpaceOnUse"
   x1="12.377"
   y1="30.269501"
   x2="12.9178"
   y2="30.269501"
   gradientTransform="matrix(0.8321,-0.5547,0.5547,0.8321,-6.023049e-4,1.28448e-4)">
	<stop
   offset="0"
   style="stop-color:#F59300"
   id="stop114" />
	<stop
   offset="1"
   style="stop-color:#C25100"
   id="stop116" />
</linearGradient>

<linearGradient
   id="SVGID_18_"
   gradientUnits="userSpaceOnUse"
   x1="13.8604"
   y1="28.327101"
   x2="14.5608"
   y2="28.327101"
   gradientTransform="matrix(0.8209,-0.5711,0.5711,0.8209,1.25587e-4,1.775026e-4)">
	<stop
   offset="0"
   style="stop-color:#F59300"
   id="stop121" />
	<stop
   offset="1"
   style="stop-color:#C25100"
   id="stop123" />
</linearGradient>

<linearGradient
   id="SVGID_19_"
   gradientUnits="userSpaceOnUse"
   x1="23.1772"
   y1="31.832001"
   x2="24.383699"
   y2="31.832001"
   gradientTransform="matrix(0.8288,-0.5595,0.5595,0.8288,-5.154014e-4,9.268522e-5)">
	<stop
   offset="0"
   style="stop-color:#F59300"
   id="stop128" />
	<stop
   offset="1"
   style="stop-color:#C25100"
   id="stop130" />
</linearGradient>

<linearGradient
   id="SVGID_20_"
   gradientUnits="userSpaceOnUse"
   x1="24.497601"
   y1="33.459999"
   x2="25.3783"
   y2="33.459999"
   gradientTransform="matrix(0.8232,-0.5677,0.5677,0.8232,-3.251433e-4,-2.278686e-4)">
	<stop
   offset="0"
   style="stop-color:#F59300"
   id="stop135" />
	<stop
   offset="1"
   style="stop-color:#C25100"
   id="stop137" />
</linearGradient>

<linearGradient
   id="SVGID_21_"
   gradientUnits="userSpaceOnUse"
   x1="27.366199"
   y1="36.5723"
   x2="28.4272"
   y2="36.5723"
   gradientTransform="matrix(0.8247,-0.5655,0.5655,0.8247,4.221797e-4,-1.934171e-4)">
	<stop
   offset="0"
   style="stop-color:#F59300"
   id="stop142" />
	<stop
   offset="1"
   style="stop-color:#C25100"
   id="stop144" />
</linearGradient>

<linearGradient
   id="SVGID_22_"
   gradientUnits="userSpaceOnUse"
   x1="27.226601"
   y1="32.402302"
   x2="27.712"
   y2="32.402302"
   gradientTransform="matrix(0.824,-0.5665,0.5665,0.824,-2.231598e-4,-5.00679e-5)">
	<stop
   offset="0"
   style="stop-color:#F59300"
   id="stop149" />
	<stop
   offset="1"
   style="stop-color:#C25100"
   id="stop151" />
</linearGradient>

<linearGradient
   id="SVGID_23_"
   gradientUnits="userSpaceOnUse"
   x1="26.9814"
   y1="33.703098"
   x2="28.0772"
   y2="33.703098"
   gradientTransform="matrix(0.8214,-0.5704,0.5704,0.8214,5.638003e-4,-1.919866e-4)">
	<stop
   offset="0"
   style="stop-color:#F59300"
   id="stop156" />
	<stop
   offset="1"
   style="stop-color:#C25100"
   id="stop158" />
</linearGradient>

<linearGradient
   id="SVGID_24_"
   gradientUnits="userSpaceOnUse"
   x1="28.6738"
   y1="34.983398"
   x2="29.4296"
   y2="34.983398"
   gradientTransform="matrix(0.8269,-0.5623,0.5623,0.8269,1.236796e-4,-8.791685e-5)">
	<stop
   offset="0"
   style="stop-color:#F59300"
   id="stop163" />
	<stop
   offset="1"
   style="stop-color:#C25100"
   id="stop165" />
</linearGradient>

<linearGradient
   id="SVGID_25_"
   gradientUnits="userSpaceOnUse"
   x1="29.246099"
   y1="31.922899"
   x2="29.6066"
   y2="31.922899"
   gradientTransform="matrix(0.8321,-0.5547,0.5547,0.8321,3.721714e-4,1.28746e-4)">
	<stop
   offset="0"
   style="stop-color:#F59300"
   id="stop170" />
	<stop
   offset="1"
   style="stop-color:#C25100"
   id="stop172" />
</linearGradient>

<linearGradient
   id="SVGID_26_"
   gradientUnits="userSpaceOnUse"
   x1="21.174801"
   y1="34.3027"
   x2="22.8461"
   y2="34.3027"
   gradientTransform="matrix(0.8227,-0.5684,0.5684,0.8227,-1.353025e-4,9.638071e-5)">
	<stop
   offset="0"
   style="stop-color:#F59300"
   id="stop177" />
	<stop
   offset="1"
   style="stop-color:#C25100"
   id="stop179" />
</linearGradient>

<linearGradient
   id="SVGID_27_"
   gradientUnits="userSpaceOnUse"
   x1="24.856001"
   y1="36.816399"
   x2="25.431499"
   y2="36.816399"
   gradientTransform="matrix(0.8253,-0.5647,0.5647,0.8253,-2.244115e-4,-2.345443e-4)">
	<stop
   offset="0"
   style="stop-color:#F59300"
   id="stop184" />
	<stop
   offset="1"
   style="stop-color:#C25100"
   id="stop186" />
</linearGradient>













































<g
   id="g1167"
   transform="matrix(5.7074724,0,0,5.7074724,-0.69437283,74.468929)"><path
     id="path7"
     d="m 40.35,11.3 c -0.767,0.667 -2.116,1.334 -4.05,2 -3.833,1.3 -8.583,1.95 -14.25,1.95 -6.533,0 -11.816,-0.717 -15.85,-2.15 -2.034,-0.733 -3.4,-1.466 -4.1,-2.199 1.167,-0.167 2.65,-0.834 4.45,-2 3.267,-2.167 5.184,-3.4 5.75,-3.7 3.1,-1.733 5.784,-3.467 8.05,-5.2 C 21.783,1.167 25.333,3.2 31,6.1 c 3.7,1.867 6.816,3.6 9.35,5.2 z"
     style="clip-rule:evenodd;fill:url(#SVGID_1_);fill-rule:evenodd"
     inkscape:connector-curvature="0" /><path
     id="path14"
     d="M 2.3,10.9 C 3,11.667 2.95,12.116 2.15,12.25 1.283,12.35 0.783,12.2 0.65,11.8 0.55,11.5 0.733,11.217 1.2,10.95 1.7,10.65 2.067,10.634 2.3,10.9 Z"
     style="clip-rule:evenodd;fill:url(#SVGID_2_);fill-rule:evenodd"
     inkscape:connector-curvature="0" /><path
     id="path21"
     d="m 2.85,13.2 c 0.667,0.267 0.833,0.5 0.5,0.7 C 3.05,14.066 2.666,14.083 2.2,13.95 1.8,13.884 1.733,13.717 2,13.45 2.267,13.183 2.55,13.1 2.85,13.2 Z"
     style="clip-rule:evenodd;fill:url(#SVGID_3_);fill-rule:evenodd"
     inkscape:connector-curvature="0" /><path
     id="path28"
     d="m 4.75,12.2 c 0.367,0.033 0.467,0.133 0.3,0.3 C 4.883,12.634 4.7,12.65 4.5,12.55 4.3,12.483 4.217,12.4 4.25,12.3 4.317,12.2 4.483,12.167 4.75,12.2 Z"
     style="clip-rule:evenodd;fill:url(#SVGID_4_);fill-rule:evenodd"
     inkscape:connector-curvature="0" /><path
     id="path35"
     d="M 5.9,13.2 C 6.334,13.3 6.233,13.384 5.6,13.45 5.5,13.417 5.483,13.366 5.55,13.3 5.65,13.2 5.767,13.167 5.9,13.2 Z"
     style="clip-rule:evenodd;fill:url(#SVGID_5_);fill-rule:evenodd"
     inkscape:connector-curvature="0" /><path
     id="path42"
     d="m 8.9,14.85 c -0.4,-0.199 -0.4,-0.383 0,-0.55 0.367,-0.166 0.7,-0.2 1,-0.1 0.2,0.1 0.833,0.133 1.9,0.1 0.567,0.066 0.833,0.316 0.8,0.75 -0.033,0.2 -0.067,0.45 -0.1,0.75 0.133,0.101 0,0.184 -0.4,0.25 -0.367,0.066 -0.7,0.066 -1,0 -0.233,-0.033 -0.4,-0.149 -0.5,-0.35 -0.1,-0.201 -0.167,-0.316 -0.2,-0.351 z"
     style="clip-rule:evenodd;fill:url(#SVGID_6_);fill-rule:evenodd"
     inkscape:connector-curvature="0" /><path
     id="path49"
     d="m 9.4,15.2 c 0.4,0.1 0.55,0.2 0.45,0.3 C 9.783,15.6 9.6,15.667 9.3,15.7 8.8,15.733 8.45,15.667 8.25,15.5 8.083,15.366 8.183,15.267 8.55,15.2 c 0.333,-0.066 0.617,-0.066 0.85,0 z"
     style="clip-rule:evenodd;fill:url(#SVGID_7_);fill-rule:evenodd"
     inkscape:connector-curvature="0" /><path
     id="path56"
     d="m 3.95,10.35 c -0.4,0.2 -0.733,0.284 -1,0.25 C 2.483,10.534 2.283,10.467 2.35,10.401 2.417,10.267 2.5,10.167 2.6,10.1 2.8,9.9 3.05,9.834 3.35,9.9 c 0.5,0.1 0.7,0.25 0.6,0.45 z"
     style="clip-rule:evenodd;fill:url(#SVGID_8_);fill-rule:evenodd"
     inkscape:connector-curvature="0" /><path
     id="path63"
     d="M 0.95,12.05 C 0.883,12.15 0.733,12.184 0.5,12.15 0.133,12.083 0.033,11.933 0.2,11.7 0.266,11.533 0.45,11.5 0.75,11.599 0.883,11.6 0.95,11.75 0.95,12.05 Z"
     style="clip-rule:evenodd;fill:url(#SVGID_9_);fill-rule:evenodd"
     inkscape:connector-curvature="0" /><path
     id="path70"
     d="M 6.55,15.45 C 7.15,15.516 7.317,15.7 7.05,16 6.783,16.3 6.334,16.35 5.7,16.15 5.133,15.95 5.016,15.766 5.35,15.599 5.65,15.434 6.05,15.384 6.55,15.45 Z"
     style="clip-rule:evenodd;fill:url(#SVGID_10_);fill-rule:evenodd"
     inkscape:connector-curvature="0" /><path
     id="path77"
     d="m 21.55,16.15 c 0,0.066 -0.483,0.149 -1.45,0.25 -1.033,0.133 -1.883,0.199 -2.55,0.199 -0.667,0 -1.2,-0.1 -1.6,-0.3 -0.4,-0.166 -0.55,-0.333 -0.45,-0.5 0.133,-0.467 0.55,-0.916 1.25,-1.35 0.433,-0.267 0.983,-0.334 1.65,-0.2 0.567,0.066 1.1,0.25 1.6,0.55 0.367,0.233 0.733,0.517 1.1,0.851 0.3,0.267 0.45,0.433 0.45,0.5 z"
     style="clip-rule:evenodd;fill:url(#SVGID_11_);fill-rule:evenodd"
     inkscape:connector-curvature="0" /><path
     id="path84"
     d="m 22.6,15.75 1.15,0.85 c -0.133,0.4 -0.567,0.667 -1.3,0.801 -1.034,0.233 -1.967,0.166 -2.8,-0.2 -0.2,-0.101 -0.167,-0.316 0.1,-0.65 0.133,-0.166 0.35,-0.399 0.65,-0.7 0.133,-0.199 0.434,-0.316 0.9,-0.35 0.467,-0.067 0.9,0.016 1.3,0.249 z"
     style="clip-rule:evenodd;fill:url(#SVGID_12_);fill-rule:evenodd"
     inkscape:connector-curvature="0" /><path
     id="path91"
     d="m 16.85,16.85 c 0.3,0.067 0.583,0.233 0.85,0.5 0.233,0.267 0.267,0.467 0.1,0.601 -0.133,0.133 -0.55,0.184 -1.25,0.149 -0.567,-0.034 -1.05,-0.1 -1.45,-0.2 -0.267,-0.067 -0.383,-0.167 -0.35,-0.301 0.033,-0.066 0.183,-0.216 0.45,-0.449 0.4,-0.367 0.95,-0.466 1.65,-0.3 z"
     style="clip-rule:evenodd;fill:url(#SVGID_13_);fill-rule:evenodd"
     inkscape:connector-curvature="0" /><path
     id="path98"
     d="m 15.65,18.1 c 0.133,0.134 0.117,0.233 -0.05,0.301 -0.367,0.166 -0.883,0.183 -1.55,0.05 -0.4,-0.134 -0.233,-0.4 0.5,-0.8 0.167,-0.134 0.367,-0.15 0.6,-0.051 0.233,0.1 0.4,0.266 0.5,0.5 z"
     style="clip-rule:evenodd;fill:url(#SVGID_14_);fill-rule:evenodd"
     inkscape:connector-curvature="0" /><path
     id="path105"
     d="m 29.5,15.5 c 0.1,-0.167 0.233,-0.434 0.4,-0.8 0.133,-0.334 0.35,-0.566 0.649,-0.7 0.367,-0.167 0.783,-0.217 1.25,-0.15 0.467,0.067 0.816,0.217 1.05,0.45 0.267,0.3 0.617,0.533 1.051,0.7 0.199,0.066 0.416,0.267 0.649,0.6 0.2,0.301 0.25,0.483 0.15,0.551 -0.134,0.1 -0.467,0.199 -1,0.3 -0.566,0.133 -1.05,0.217 -1.45,0.25 -0.033,0 -0.45,0.033 -1.25,0.1 -0.467,0.033 -0.816,0 -1.05,-0.1 C 29.716,16.6 29.565,16.418 29.499,16.151 29.434,15.917 29.434,15.7 29.5,15.5 Z"
     style="clip-rule:evenodd;fill:url(#SVGID_15_);fill-rule:evenodd"
     inkscape:connector-curvature="0" /><path
     id="path112"
     d="m 30.2,16.05 c 0.366,0.066 0.717,0.3 1.05,0.7 0.333,0.366 0.384,0.616 0.15,0.75 -0.733,0.3 -1.351,0.45 -1.851,0.45 -0.833,0 -1.399,-0.283 -1.7,-0.851 -0.066,-0.133 0.017,-0.25 0.25,-0.35 0.334,-0.2 0.551,-0.366 0.65,-0.5 0.167,-0.2 0.384,-0.3 0.65,-0.3 0.068,10e-4 0.334,0.034 0.801,0.101 z"
     style="clip-rule:evenodd;fill:url(#SVGID_16_);fill-rule:evenodd"
     inkscape:connector-curvature="0" /><path
     id="path119"
     d="m 27.5,17.9 c 0.5,0.233 0.6,0.449 0.3,0.649 -0.3,0.167 -0.649,0.233 -1.05,0.2 -0.267,-0.033 -0.434,-0.116 -0.5,-0.25 -0.033,-0.134 -0.017,-0.233 0.05,-0.3 0.033,-0.101 0.184,-0.2 0.45,-0.3 C 27.083,17.8 27.333,17.8 27.5,17.9 Z"
     style="clip-rule:evenodd;fill:url(#SVGID_17_);fill-rule:evenodd"
     inkscape:connector-curvature="0" /><path
     id="path126"
     d="m 28.55,15 c 0.267,0.5 -0.233,0.75 -1.5,0.75 -0.533,0 -0.583,-0.25 -0.149,-0.75 0.233,-0.2 0.517,-0.316 0.85,-0.35 0.399,-0.034 0.666,0.083 0.799,0.35 z"
     style="clip-rule:evenodd;fill:url(#SVGID_18_);fill-rule:evenodd"
     inkscape:connector-curvature="0" /><path
     id="path133"
     d="M 38.95,13.15 C 38.316,14.116 37.4,14.516 36.2,14.349 35.434,14.217 35.233,13.9 35.6,13.4 c 0.067,-0.101 0.517,-0.517 1.351,-1.25 0.366,-0.301 0.666,-0.334 0.899,-0.101 0.167,0.135 0.534,0.501 1.1,1.101 z"
     style="clip-rule:evenodd;fill:url(#SVGID_19_);fill-rule:evenodd"
     inkscape:connector-curvature="0" /><path
     id="path140"
     d="m 40.4,13.3 c -0.167,0.767 -0.667,1.15 -1.5,1.15 -0.534,0.033 -0.817,-0.084 -0.851,-0.351 0,-0.133 0.101,-0.416 0.3,-0.85 0.101,-0.233 0.334,-0.333 0.7,-0.3 0.135,0.034 0.585,0.151 1.351,0.351 z"
     style="clip-rule:evenodd;fill:url(#SVGID_20_);fill-rule:evenodd"
     inkscape:connector-curvature="0" /><path
     id="path147"
     d="m 44.3,13.75 c 0.101,0.033 0.25,0.167 0.45,0.4 0.2,0.267 0.267,0.483 0.2,0.649 -0.101,0.267 -1.017,0.334 -2.75,0.2 -0.467,-0.066 -0.634,-0.167 -0.5,-0.3 l 0.5,-0.45 c 0.066,-0.233 0.3,-0.417 0.7,-0.55 0.5,-0.199 0.966,-0.182 1.4,0.051 z"
     style="clip-rule:evenodd;fill:url(#SVGID_21_);fill-rule:evenodd"
     inkscape:connector-curvature="0" /><path
     id="path154"
     d="m 41.15,11.7 c -0.5,-0.167 -0.834,-0.3 -1,-0.4 l -0.601,-0.6 0.15,-0.2 c 0.2,-0.1 0.45,-0.1 0.75,0 0.5,0.2 0.883,0.5 1.149,0.9 0.5,0.366 0.617,0.55 0.351,0.55 -0.065,0 -0.333,-0.084 -0.799,-0.25 z"
     style="clip-rule:evenodd;fill:url(#SVGID_22_);fill-rule:evenodd"
     inkscape:connector-curvature="0" /><path
     id="path161"
     d="M 41.65,12.8 C 41.383,12.8 41,12.734 40.5,12.6 40,12.5 39.717,12.417 39.65,12.35 c -0.034,-0.033 0.033,-0.116 0.199,-0.25 0.067,-0.033 0.15,-0.083 0.25,-0.149 0.2,-0.3 0.467,-0.517 0.801,-0.65 0.333,-0.133 0.649,-0.133 0.949,0 0.4,0.2 0.884,0.55 1.45,1.05 C 42.566,12.65 42.017,12.8 41.65,12.8 Z"
     style="clip-rule:evenodd;fill:url(#SVGID_23_);fill-rule:evenodd"
     inkscape:connector-curvature="0" /><path
     id="path168"
     d="m 44,12.1 c 0.6,0.434 0.8,0.733 0.6,0.9 -0.166,0.1 -0.833,0.116 -2,0.05 -0.366,-0.033 -0.5,-0.133 -0.399,-0.3 0.066,-0.066 0.184,-0.184 0.35,-0.35 0.101,-0.134 0.267,-0.25 0.5,-0.351 0.366,-0.132 0.682,-0.115 0.949,0.051 z"
     style="clip-rule:evenodd;fill:url(#SVGID_24_);fill-rule:evenodd"
     inkscape:connector-curvature="0" /><path
     id="path175"
     d="m 42.15,9.9 c 0.166,0.067 0.316,0.167 0.449,0.3 0.134,0.166 0.134,0.283 0,0.35 -0.199,0.101 -0.583,0.033 -1.149,-0.2 -0.167,-0.033 -0.117,-0.133 0.149,-0.3 0.234,-0.167 0.418,-0.217 0.551,-0.15 z"
     style="clip-rule:evenodd;fill:url(#SVGID_25_);fill-rule:evenodd"
     inkscape:connector-curvature="0" /><path
     id="path182"
     d="m 38.85,14.9 c 0.867,0.933 1.134,1.483 0.801,1.649 -0.233,0.134 -0.733,0.283 -1.5,0.45 -0.834,0.167 -1.5,0.25 -2,0.25 -0.4,-0.033 -0.817,-0.167 -1.25,-0.4 L 34.35,16.5 l 0.7,-1.1 c 0.101,-0.2 0.384,-0.45 0.851,-0.75 0.466,-0.367 0.85,-0.567 1.149,-0.601 0.267,-0.033 0.584,0.05 0.95,0.25 0.2,0.135 0.483,0.335 0.85,0.601 z"
     style="clip-rule:evenodd;fill:url(#SVGID_26_);fill-rule:evenodd"
     inkscape:connector-curvature="0" /><path
     id="path189"
     d="m 41.55,15.9 c 0.566,0.133 0.8,0.3 0.7,0.5 -0.1,0.166 -0.333,0.267 -0.7,0.3 -0.5,0.1 -0.866,0.033 -1.1,-0.2 -0.134,-0.1 -0.066,-0.25 0.2,-0.45 0.3,-0.2 0.6,-0.25 0.9,-0.15 z"
     style="clip-rule:evenodd;fill:url(#SVGID_27_);fill-rule:evenodd"
     inkscape:connector-curvature="0" /><path
     id="path191"
     d="m 32.8,9.35 c 0.3,0.367 0.45,0.6 0.45,0.7 0,0.066 -0.05,0.184 -0.15,0.351 -0.033,0.233 -0.283,0.366 -0.75,0.399 -0.466,0 -0.75,-0.217 -0.85,-0.649 C 31.4,9.55 31.45,9.117 31.65,8.851 31.884,8.55 32.267,8.717 32.8,9.35 Z"
     style="clip-rule:evenodd;fill:#a65000;fill-rule:evenodd"
     inkscape:connector-curvature="0" /><path
     id="path193"
     d="m 35.85,9.65 c 0.767,0.367 0.983,0.767 0.65,1.2 -0.167,0.233 -0.45,0.233 -0.85,0 -0.4,-0.233 -0.617,-0.5 -0.65,-0.8 -0.066,-0.667 0.217,-0.8 0.85,-0.4 z"
     style="clip-rule:evenodd;fill:#a65000;fill-rule:evenodd"
     inkscape:connector-curvature="0" /><path
     id="path195"
     d="m 37.6,10.45 c 0.267,0.233 0.4,0.366 0.4,0.399 0.066,0.067 0.05,0.15 -0.05,0.25 -0.2,0.2 -0.467,0.15 -0.8,-0.149 -0.2,-0.134 -0.2,-0.283 0,-0.45 0.166,-0.167 0.317,-0.184 0.45,-0.05 z"
     style="clip-rule:evenodd;fill:#a65000;fill-rule:evenodd"
     inkscape:connector-curvature="0" /><path
     id="path197"
     d="m 29.65,6.25 c 0.233,0.2 0.366,0.417 0.399,0.65 0.033,0.3 -0.1,0.5 -0.399,0.6 C 29.384,7.633 29.167,7.567 29,7.3 28.866,6.933 28.75,6.65 28.65,6.45 28.517,6.183 28.566,6.033 28.8,6 c 0.233,-0.067 0.516,0.017 0.85,0.25 z"
     style="clip-rule:evenodd;fill:#a65000;fill-rule:evenodd"
     inkscape:connector-curvature="0" /><path
     id="path199"
     d="m 31.85,6.95 c 0.534,0.466 0.684,0.833 0.45,1.1 -0.2,0.3 -0.55,0.1 -1.05,-0.6 C 31.017,7.217 31,7.017 31.2,6.85 c 0.2,-0.133 0.416,-0.1 0.65,0.1 z"
     style="clip-rule:evenodd;fill:#a65000;fill-rule:evenodd"
     inkscape:connector-curvature="0" /><path
     id="path201"
     d="m 33.8,10.5 c 0.3,0.233 0.483,0.5 0.55,0.8 0.067,0.334 -0.066,0.517 -0.399,0.55 -0.334,0.034 -0.55,-0.083 -0.65,-0.35 -0.133,-0.267 -0.133,-0.5 0,-0.7 0.166,-0.366 0.333,-0.467 0.499,-0.3 z"
     style="clip-rule:evenodd;fill:#a65000;fill-rule:evenodd"
     inkscape:connector-curvature="0" /><path
     id="path203"
     d="m 25.15,3.5 c 0.267,0.2 0.399,0.417 0.399,0.65 0.033,0.267 -0.116,0.45 -0.45,0.55 -0.3,0.1 -0.55,-0.034 -0.75,-0.4 C 24.182,4 24.099,3.667 24.099,3.3 24.1,2.867 24.45,2.933 25.15,3.5 Z"
     style="clip-rule:evenodd;fill:#a65000;fill-rule:evenodd"
     inkscape:connector-curvature="0" /><path
     id="path205"
     d="m 23.45,2.9 c 0.133,0.167 0.2,0.333 0.2,0.5 -0.033,0.133 -0.1,0.233 -0.2,0.3 -0.133,0.066 -0.267,0 -0.4,-0.2 C 22.883,3.333 22.8,3.167 22.8,3 c 0,-0.167 0.083,-0.25 0.25,-0.25 0.133,-0.033 0.267,0.017 0.4,0.15 z"
     style="clip-rule:evenodd;fill:#a65000;fill-rule:evenodd"
     inkscape:connector-curvature="0" /><path
     id="path207"
     d="m 28.8,8.6 c 0.5,0.967 0.316,1.55 -0.55,1.75 -0.267,0.067 -0.417,-0.083 -0.45,-0.45 0,-0.1 0.017,-0.467 0.05,-1.1 0,-0.3 0.134,-0.466 0.4,-0.5 0.233,-0.067 0.417,0.033 0.55,0.3 z"
     style="clip-rule:evenodd;fill:#a65000;fill-rule:evenodd"
     inkscape:connector-curvature="0" /><path
     id="path209"
     d="m 30.15,9.95 c 0.267,0.3 0.333,0.633 0.199,1 -0.033,0.133 -0.166,0.166 -0.399,0.1 C 29.717,10.984 29.533,10.8 29.4,10.5 29.299,10.2 29.383,10 29.65,9.9 c 0.234,-0.067 0.4,-0.05 0.5,0.05 z"
     style="clip-rule:evenodd;fill:#a65000;fill-rule:evenodd"
     inkscape:connector-curvature="0" /><path
     id="path211"
     d="m 28.6,12.2 c 0.233,0.267 0.4,0.583 0.5,0.95 0.067,0.433 -0.033,0.699 -0.3,0.8 -0.3,0.1 -0.517,0.083 -0.649,-0.05 -0.134,-0.101 -0.301,-0.351 -0.5,-0.75 -0.2,-0.4 -0.15,-0.717 0.149,-0.95 0.3,-0.266 0.566,-0.266 0.8,0 z"
     style="clip-rule:evenodd;fill:#a65000;fill-rule:evenodd"
     inkscape:connector-curvature="0" /><path
     id="path213"
     d="m 25.3,12.1 c 0.134,-0.033 0.3,0.101 0.5,0.4 0.233,0.267 0.334,0.483 0.3,0.65 -0.066,0.3 -0.399,0.399 -1,0.3 -0.266,-0.033 -0.35,-0.25 -0.25,-0.65 0.067,-0.4 0.216,-0.633 0.45,-0.7 z"
     style="clip-rule:evenodd;fill:#a65000;fill-rule:evenodd"
     inkscape:connector-curvature="0" /><path
     id="path215"
     d="m 33.4,12.4 c 0.2,0.2 0.317,0.4 0.35,0.6 0.033,0.267 -0.05,0.45 -0.25,0.55 -0.333,0.167 -0.65,-0.05 -0.95,-0.649 -0.1,-0.233 -0.05,-0.434 0.15,-0.601 0.234,-0.133 0.467,-0.1 0.7,0.1 z"
     style="clip-rule:evenodd;fill:#a65000;fill-rule:evenodd"
     inkscape:connector-curvature="0" /><path
     id="path217"
     d="M 34.3,8.3 C 34.366,8.9 34.217,9.267 33.85,9.4 33.617,9.467 33.467,9.383 33.401,9.15 33.367,8.85 33.3,8.617 33.201,8.45 33,8.05 33.366,8 34.3,8.3 Z"
     style="clip-rule:evenodd;fill:#a65000;fill-rule:evenodd"
     inkscape:connector-curvature="0" /><path
     id="path219"
     d="m 17.15,3.05 c 0.6,-0.233 0.767,0.05 0.5,0.85 -0.066,0.267 -0.233,0.467 -0.5,0.6 -0.333,0.1 -0.7,0.033 -1.1,-0.2 -0.533,-0.267 -0.167,-0.683 1.1,-1.25 z"
     style="clip-rule:evenodd;fill:#ffa621;fill-rule:evenodd"
     inkscape:connector-curvature="0" /><path
     id="path221"
     d="m 15.6,4.95 c 0.267,0 0.417,0.117 0.45,0.35 C 16.083,5.5 16,5.667 15.8,5.8 15.5,6.033 15.25,5.95 15.05,5.55 14.85,5.15 15.033,4.95 15.6,4.95 Z"
     style="clip-rule:evenodd;fill:#ffa621;fill-rule:evenodd"
     inkscape:connector-curvature="0" /><path
     id="path223"
     d="m 21.45,3.05 c 0.167,0.434 0,0.767 -0.5,1 -0.333,0.167 -0.434,-0.066 -0.3,-0.7 0.033,-0.133 0.15,-0.267 0.35,-0.4 0.233,-0.1 0.383,-0.067 0.45,0.1 z"
     style="clip-rule:evenodd;fill:#ffa621;fill-rule:evenodd"
     inkscape:connector-curvature="0" /><path
     id="path225"
     d="M 19.35,4.65 19.9,4.5 c 0.033,0 0.05,0.083 0.05,0.25 0,0.367 -0.167,0.517 -0.5,0.45 C 19.283,5.166 19.2,5.083 19.2,4.95 19.167,4.817 19.217,4.717 19.35,4.65 Z"
     style="clip-rule:evenodd;fill:#ffa621;fill-rule:evenodd"
     inkscape:connector-curvature="0" /><path
     id="path227"
     d="m 11.6,6.4 c 0.4,-0.1 0.65,-0.05 0.75,0.15 0.066,0.167 0.017,0.4 -0.15,0.7 -0.233,0.4 -0.75,0.467 -1.55,0.2 -0.3,-0.1 -0.267,-0.284 0.1,-0.55 0.3,-0.233 0.583,-0.4 0.85,-0.5 z"
     style="clip-rule:evenodd;fill:#ffa621;fill-rule:evenodd"
     inkscape:connector-curvature="0" /><path
     id="path229"
     d="m 13.6,6.15 c 0.467,-0.2 0.667,-0.133 0.6,0.2 -0.067,0.367 -0.233,0.633 -0.5,0.8 -0.4,0.233 -0.717,0.2 -0.95,-0.1 -0.2,-0.267 0.083,-0.567 0.85,-0.9 z"
     style="clip-rule:evenodd;fill:#ffa621;fill-rule:evenodd"
     inkscape:connector-curvature="0" /><path
     id="path231"
     d="m 8.1,9.1 c 0.267,-0.033 0.417,0.1 0.45,0.4 0.067,0.267 -0.066,0.533 -0.4,0.8 -0.3,0.233 -0.566,0.334 -0.8,0.3 -0.133,0 -0.367,-0.116 -0.7,-0.35 C 6.35,10.083 6.4,9.867 6.8,9.6 7.2,9.333 7.633,9.167 8.1,9.1 Z"
     style="clip-rule:evenodd;fill:#ffa621;fill-rule:evenodd"
     inkscape:connector-curvature="0" /><path
     id="path233"
     d="m 9.55,8.75 c 0.267,-0.067 0.434,0 0.5,0.2 0.067,0.167 -0.033,0.367 -0.3,0.6 C 9.517,9.717 9.333,9.8 9.2,9.8 9.1,9.733 9,9.7 8.9,9.7 8.733,9.666 8.733,9.516 8.9,9.25 9.067,8.983 9.283,8.817 9.55,8.75 Z"
     style="clip-rule:evenodd;fill:#ffa621;fill-rule:evenodd"
     inkscape:connector-curvature="0" /><path
     id="path235"
     d="m 15.35,8.8 c 0.433,-0.033 0.667,0.1 0.7,0.4 0.034,0.233 -0.117,0.55 -0.45,0.95 -0.233,0.333 -0.417,0.466 -0.55,0.399 -0.167,-0.2 -0.333,-0.333 -0.5,-0.399 -0.3,-0.101 -0.333,-0.351 -0.1,-0.75 0.2,-0.367 0.5,-0.567 0.9,-0.6 z"
     style="clip-rule:evenodd;fill:#ffa621;fill-rule:evenodd"
     inkscape:connector-curvature="0" /><path
     id="path237"
     d="m 18.55,9.2 c 0.2,-0.034 0.367,0.05 0.5,0.25 0.167,0.167 0.217,0.3 0.15,0.4 -0.1,0.233 -0.434,0.284 -1,0.15 C 17.933,9.967 17.833,9.833 17.9,9.6 18,9.4 18.217,9.267 18.55,9.2 Z"
     style="clip-rule:evenodd;fill:#ffa621;fill-rule:evenodd"
     inkscape:connector-curvature="0" /><path
     id="path239"
     d="m 18.35,10.5 c 0.5,0.1 0.583,0.283 0.25,0.55 -0.167,0.134 -0.417,0.101 -0.75,-0.1 -0.133,-0.134 -0.133,-0.25 0,-0.351 0.133,-0.099 0.3,-0.132 0.5,-0.099 z"
     style="clip-rule:evenodd;fill:#ffa621;fill-rule:evenodd"
     inkscape:connector-curvature="0" /><path
     id="path241"
     d="m 13.75,12.05 c 0.667,-0.233 1.017,-0.083 1.05,0.45 0,0.533 -0.167,0.9 -0.5,1.1 -0.333,0.2 -0.683,0.034 -1.05,-0.5 -0.1,-0.199 -0.1,-0.399 0,-0.6 0.1,-0.233 0.267,-0.384 0.5,-0.45 z"
     style="clip-rule:evenodd;fill:#ffa621;fill-rule:evenodd"
     inkscape:connector-curvature="0" /><path
     id="path243"
     d="m 9.55,11 c 0.367,-0.2 0.633,-0.25 0.8,-0.15 0.167,0.067 0.233,0.167 0.2,0.301 -0.066,0.366 -0.35,0.6 -0.85,0.699 -0.3,0.067 -0.45,-0.033 -0.45,-0.3 0,-0.267 0.1,-0.45 0.3,-0.55 z"
     style="clip-rule:evenodd;fill:#ffa621;fill-rule:evenodd"
     inkscape:connector-curvature="0" /><path
     id="path245"
     d="m 21,12.8 c 0.8,-0.033 0.833,0.25 0.1,0.851 -0.133,0.1 -0.25,0.133 -0.35,0.1 -0.067,-0.1 -0.133,-0.167 -0.2,-0.2 -0.1,-0.066 -0.117,-0.2 -0.05,-0.399 C 20.6,12.917 20.767,12.8 21,12.8 Z"
     style="clip-rule:evenodd;fill:#ffa621;fill-rule:evenodd"
     inkscape:connector-curvature="0" /><path
     id="path247"
     d="m 17.35,14.45 c 0.333,0.033 0.517,0.233 0.55,0.6 0,0.367 -0.183,0.634 -0.55,0.8 -0.3,0.167 -0.483,0.2 -0.55,0.101 -0.066,-0.2 -0.167,-0.367 -0.3,-0.5 -0.133,-0.2 -0.083,-0.434 0.15,-0.7 0.267,-0.268 0.5,-0.367 0.7,-0.301 z"
     style="clip-rule:evenodd;fill:#ffa621;fill-rule:evenodd"
     inkscape:connector-curvature="0" /><path
     id="path249"
     d="m 20.8,15.85 c 0.133,0.067 0.233,0.184 0.3,0.351 0.1,0.2 0.1,0.366 0,0.5 -0.1,0.166 -0.2,0.217 -0.3,0.149 -0.133,-0.133 -0.283,-0.267 -0.45,-0.399 -0.233,-0.2 -0.267,-0.367 -0.1,-0.5 0.167,-0.168 0.35,-0.201 0.55,-0.101 z"
     style="clip-rule:evenodd;fill:#ffa621;fill-rule:evenodd"
     inkscape:connector-curvature="0" /><path
     id="path251"
     d="m 30.75,14.25 c 0.5,-0.066 0.733,0.1 0.7,0.5 0,0.366 -0.117,0.684 -0.351,0.95 -0.166,0.2 -0.366,0.217 -0.6,0.05 -0.2,-0.134 -0.366,-0.3 -0.5,-0.5 -0.066,-0.167 -0.05,-0.35 0.05,-0.55 0.135,-0.266 0.368,-0.417 0.701,-0.45 z"
     style="clip-rule:evenodd;fill:#ffa621;fill-rule:evenodd"
     inkscape:connector-curvature="0" /><path
     id="path253"
     d="m 1.45,11 c 0.233,-0.066 0.3,0.066 0.2,0.4 C 1.55,11.7 1.367,11.833 1.1,11.799 0.833,11.765 0.767,11.634 0.9,11.4 1.033,11.233 1.217,11.1 1.45,11 Z"
     style="clip-rule:evenodd;fill:#ffa621;fill-rule:evenodd"
     inkscape:connector-curvature="0" /><path
     id="path255"
     d="m 2.55,13.4 c 0.167,0 0.217,0.066 0.15,0.199 C 2.633,13.7 2.5,13.749 2.3,13.749 1.967,13.75 2.05,13.634 2.55,13.4 Z"
     style="clip-rule:evenodd;fill:#ffa621;fill-rule:evenodd"
     inkscape:connector-curvature="0" /><path
     id="path257"
     d="m 9.2,14.4 c 0.133,0.033 0.216,0.1 0.25,0.199 0,0.101 -0.117,0.15 -0.35,0.15 -0.2,0 -0.267,-0.066 -0.2,-0.2 C 9,14.417 9.1,14.366 9.2,14.4 Z"
     style="clip-rule:evenodd;fill:#ffa621;fill-rule:evenodd"
     inkscape:connector-curvature="0" /><path
     id="path259"
     d="m 11.05,14.55 c 0.2,0.033 0.35,0.15 0.45,0.351 0.067,0.166 0.017,0.316 -0.15,0.449 -0.133,0.101 -0.267,0.101 -0.4,0 -0.167,-0.166 -0.333,-0.316 -0.5,-0.449 -0.233,-0.234 -0.033,-0.351 0.6,-0.351 z"
     style="clip-rule:evenodd;fill:#ffa621;fill-rule:evenodd"
     inkscape:connector-curvature="0" /><path
     id="path261"
     d="m 29.2,16.55 c 0.166,0 0.267,0.117 0.3,0.351 0.033,0.199 0.017,0.35 -0.05,0.449 -0.167,0.233 -0.55,0.15 -1.15,-0.25 -0.267,-0.166 -0.267,-0.3 0,-0.399 0.2,-0.101 0.5,-0.151 0.9,-0.151 z"
     style="clip-rule:evenodd;fill:#ffa621;fill-rule:evenodd"
     inkscape:connector-curvature="0" /><path
     id="path263"
     d="m 35.7,15.2 c 0.2,-0.066 0.399,0.033 0.6,0.3 0.233,0.267 0.334,0.517 0.3,0.75 0,0.2 -0.183,0.333 -0.55,0.4 -0.333,0.033 -0.633,0 -0.899,-0.101 -0.233,-0.066 -0.284,-0.283 -0.15,-0.649 0.133,-0.367 0.365,-0.6 0.699,-0.7 z"
     style="clip-rule:evenodd;fill:#ffa621;fill-rule:evenodd"
     inkscape:connector-curvature="0" /><path
     id="path265"
     d="m 36.55,12.95 c 0.3,0 0.384,0.149 0.25,0.45 -0.066,0.199 -0.217,0.316 -0.45,0.35 -0.233,0 -0.399,-0.05 -0.5,-0.15 -0.066,-0.1 -0.017,-0.233 0.15,-0.399 0.167,-0.168 0.35,-0.251 0.55,-0.251 z"
     style="clip-rule:evenodd;fill:#ffa621;fill-rule:evenodd"
     inkscape:connector-curvature="0" /><path
     id="path267"
     d="m 38.6,13.25 c 0.134,-0.033 0.25,0 0.351,0.1 0.1,0.101 0.149,0.217 0.149,0.351 0,0.3 -0.25,0.416 -0.75,0.35 C 38.15,14.017 38.1,13.9 38.2,13.7 c 0.067,-0.233 0.2,-0.384 0.4,-0.45 z"
     style="clip-rule:evenodd;fill:#ffa621;fill-rule:evenodd"
     inkscape:connector-curvature="0" /><path
     id="path269"
     d="m 42.65,14.1 c 0.199,-0.033 0.333,0.034 0.399,0.2 0.066,0.101 0.05,0.2 -0.05,0.3 -0.066,0.067 -0.217,0.101 -0.45,0.101 l -0.3,-0.05 c 0,-0.067 0,-0.15 0,-0.25 0.067,-0.168 0.201,-0.267 0.401,-0.301 z"
     style="clip-rule:evenodd;fill:#ffa621;fill-rule:evenodd"
     inkscape:connector-curvature="0" /><path
     id="path271"
     d="m 43,12.35 c 0.134,-0.033 0.217,0.017 0.25,0.15 0.033,0.1 0,0.2 -0.1,0.3 -0.101,0.134 -0.317,0.15 -0.65,0.05 -0.134,-0.033 -0.116,-0.116 0.05,-0.25 0.134,-0.133 0.283,-0.216 0.45,-0.25 z"
     style="clip-rule:evenodd;fill:#ffa621;fill-rule:evenodd"
     inkscape:connector-curvature="0" /><path
     id="path273"
     d="m 40.7,11.65 c 0.166,-0.101 0.3,-0.017 0.399,0.25 0.067,0.3 0.051,0.5 -0.05,0.6 -0.066,0.066 -0.166,0.05 -0.3,-0.05 -0.134,-0.134 -0.233,-0.233 -0.3,-0.3 -0.199,-0.1 -0.116,-0.266 0.251,-0.5 z"
     style="clip-rule:evenodd;fill:#ffa621;fill-rule:evenodd"
     inkscape:connector-curvature="0" /><path
     id="path275"
     d="m 40.45,10.8 c 0.166,0.3 0.166,0.434 0,0.4 -0.167,-0.066 -0.3,-0.184 -0.4,-0.351 -0.066,-0.1 -0.017,-0.149 0.15,-0.149 0.133,0 0.217,0.033 0.25,0.1 z"
     style="clip-rule:evenodd;fill:#ffa621;fill-rule:evenodd"
     inkscape:connector-curvature="0" /><path
     id="path277"
     d="m 15.75,16.9 c 0.267,0 0.417,0.017 0.45,0.05 0.033,0.033 0.066,0.133 0.1,0.3 0.1,0.167 0.117,0.267 0.05,0.3 -0.067,0.033 -0.317,0 -0.75,-0.1 -0.4,-0.101 -0.517,-0.217 -0.35,-0.351 0.133,-0.132 0.3,-0.199 0.5,-0.199 z"
     style="clip-rule:evenodd;fill:#ffa621;fill-rule:evenodd"
     inkscape:connector-curvature="0" /><path
     id="path279"
     d="m 14.7,17.8 c 0.2,0.033 0.216,0.101 0.05,0.2 -0.166,0.099 -0.35,0.116 -0.55,0.05 -0.2,-0.033 -0.217,-0.1 -0.05,-0.2 0.167,-0.067 0.35,-0.083 0.55,-0.05 z"
     style="clip-rule:evenodd;fill:#ffa621;fill-rule:evenodd"
     inkscape:connector-curvature="0" /></g>
</svg>