<?xml version="1.0" encoding="UTF-8" standalone="no"?>
<!-- Generator: Adobe Illustrator 15.1.0, SVG Export Plug-In . SVG Version: 6.00 Build 0)  -->

<svg
   xmlns:dc="http://purl.org/dc/elements/1.1/"
   xmlns:cc="http://creativecommons.org/ns#"
   xmlns:rdf="http://www.w3.org/1999/02/22-rdf-syntax-ns#"
   xmlns:svg="http://www.w3.org/2000/svg"
   xmlns="http://www.w3.org/2000/svg"
   xmlns:sodipodi="http://sodipodi.sourceforge.net/DTD/sodipodi-0.dtd"
   xmlns:inkscape="http://www.inkscape.org/namespaces/inkscape"
   version="1.1"
   id="flash0.ai"
   x="0px"
   y="0px"
   width="256"
   height="256"
   viewBox="0 0 255.99999 256"
   xml:space="preserve"
   sodipodi:docname="cardamom.svg"
   inkscape:version="0.92.4 (5da689c313, 2019-01-14)"
   inkscape:export-filename="C:\Users\antum\Development\game-resources\icon\CC0\food\individual\Glitch\32x32\condiment\cardamom.png"
   inkscape:export-xdpi="9"
   inkscape:export-ydpi="9"><title
   id="title1175">Cardamom</title><metadata
   id="metadata368"><rdf:RDF><cc:Work
       rdf:about=""><dc:format>image/svg+xml</dc:format><dc:type
         rdf:resource="http://purl.org/dc/dcmitype/StillImage" /><dc:title>Cardamom</dc:title><cc:license
         rdf:resource="http://creativecommons.org/publicdomain/zero/1.0/" /><dc:creator><cc:Agent><dc:title>Glitch</dc:title></cc:Agent></dc:creator><dc:source>https://opengameart.org/node/20149</dc:source></cc:Work><cc:License
       rdf:about="http://creativecommons.org/publicdomain/zero/1.0/"><cc:permits
         rdf:resource="http://creativecommons.org/ns#Reproduction" /><cc:permits
         rdf:resource="http://creativecommons.org/ns#Distribution" /><cc:permits
         rdf:resource="http://creativecommons.org/ns#DerivativeWorks" /></cc:License></rdf:RDF></metadata><defs
   id="defs366" /><sodipodi:namedview
   pagecolor="#ffffff"
   bordercolor="#666666"
   borderopacity="1"
   objecttolerance="10"
   gridtolerance="10"
   guidetolerance="10"
   inkscape:pageopacity="0"
   inkscape:pageshadow="2"
   inkscape:window-width="1920"
   inkscape:window-height="1025"
   id="namedview364"
   showgrid="false"
   inkscape:zoom="1.0404669"
   inkscape:cx="-14.436307"
   inkscape:cy="118.87658"
   inkscape:window-x="-8"
   inkscape:window-y="-8"
   inkscape:window-maximized="1"
   inkscape:current-layer="flash0.ai"
   fit-margin-top="0"
   fit-margin-left="0"
   fit-margin-right="0"
   fit-margin-bottom="0" />
<linearGradient
   id="SVGID_1_"
   gradientUnits="userSpaceOnUse"
   x1="4.2002001"
   y1="5.7227001"
   x2="41.049801"
   y2="5.7227001">
	<stop
   offset="0"
   style="stop-color:#E0FF8A"
   id="stop2" />
	<stop
   offset="1"
   style="stop-color:#898F40"
   id="stop4" />
</linearGradient>










<linearGradient
   id="SVGID_2_"
   gradientUnits="userSpaceOnUse"
   x1="2.5874"
   y1="8.8374004"
   x2="5.7124"
   y2="8.8374004">
	<stop
   offset="0"
   style="stop-color:#E0FF8A"
   id="stop27" />
	<stop
   offset="1"
   style="stop-color:#898F40"
   id="stop29" />
</linearGradient>

<linearGradient
   id="SVGID_3_"
   gradientUnits="userSpaceOnUse"
   x1="0.024900001"
   y1="9.6406002"
   x2="2.5748999"
   y2="9.6406002">
	<stop
   offset="0"
   style="stop-color:#E0FF8A"
   id="stop34" />
	<stop
   offset="1"
   style="stop-color:#898F40"
   id="stop36" />
</linearGradient>

<linearGradient
   id="SVGID_4_"
   gradientUnits="userSpaceOnUse"
   x1="9.8374004"
   y1="10.6162"
   x2="12.5624"
   y2="10.6162">
	<stop
   offset="0"
   style="stop-color:#E0FF8A"
   id="stop41" />
	<stop
   offset="1"
   style="stop-color:#898F40"
   id="stop43" />
</linearGradient>

<linearGradient
   id="SVGID_5_"
   gradientUnits="userSpaceOnUse"
   x1="6.75"
   y1="11.1475"
   x2="8.25"
   y2="11.1475">
	<stop
   offset="0"
   style="stop-color:#E0FF8A"
   id="stop48" />
	<stop
   offset="1"
   style="stop-color:#898F40"
   id="stop50" />
</linearGradient>

<linearGradient
   id="SVGID_6_"
   gradientUnits="userSpaceOnUse"
   x1="16.700199"
   y1="11.625"
   x2="21.3002"
   y2="11.625">
	<stop
   offset="0"
   style="stop-color:#E0FF8A"
   id="stop55" />
	<stop
   offset="1"
   style="stop-color:#898F40"
   id="stop57" />
</linearGradient>

<linearGradient
   id="SVGID_7_"
   gradientUnits="userSpaceOnUse"
   x1="19.7251"
   y1="12.6895"
   x2="23.9751"
   y2="12.6895">
	<stop
   offset="0"
   style="stop-color:#E0FF8A"
   id="stop62" />
	<stop
   offset="1"
   style="stop-color:#898F40"
   id="stop64" />
</linearGradient>

<linearGradient
   id="SVGID_8_"
   gradientUnits="userSpaceOnUse"
   x1="30.112301"
   y1="11.2979"
   x2="35.187302"
   y2="11.2979">
	<stop
   offset="0"
   style="stop-color:#E0FF8A"
   id="stop69" />
	<stop
   offset="1"
   style="stop-color:#898F40"
   id="stop71" />
</linearGradient>

<linearGradient
   id="SVGID_9_"
   gradientUnits="userSpaceOnUse"
   x1="29.137699"
   y1="13.0234"
   x2="32.659199"
   y2="13.0234">
	<stop
   offset="0"
   style="stop-color:#E0FF8A"
   id="stop76" />
	<stop
   offset="1"
   style="stop-color:#898F40"
   id="stop78" />
</linearGradient>

<linearGradient
   id="SVGID_10_"
   gradientUnits="userSpaceOnUse"
   x1="26.200199"
   y1="14.3535"
   x2="28.5002"
   y2="14.3535">
	<stop
   offset="0"
   style="stop-color:#E0FF8A"
   id="stop83" />
	<stop
   offset="1"
   style="stop-color:#898F40"
   id="stop85" />
</linearGradient>

<linearGradient
   id="SVGID_11_"
   gradientUnits="userSpaceOnUse"
   x1="15.2373"
   y1="13.7617"
   x2="17.7623"
   y2="13.7617">
	<stop
   offset="0"
   style="stop-color:#E0FF8A"
   id="stop90" />
	<stop
   offset="1"
   style="stop-color:#898F40"
   id="stop92" />
</linearGradient>

<linearGradient
   id="SVGID_12_"
   gradientUnits="userSpaceOnUse"
   x1="8.1625996"
   y1="12.5176"
   x2="9.5375996"
   y2="12.5176">
	<stop
   offset="0"
   style="stop-color:#E0FF8A"
   id="stop97" />
	<stop
   offset="1"
   style="stop-color:#898F40"
   id="stop99" />
</linearGradient>

<linearGradient
   id="SVGID_13_"
   gradientUnits="userSpaceOnUse"
   x1="26.737301"
   y1="11.001"
   x2="29.2623"
   y2="11.001">
	<stop
   offset="0"
   style="stop-color:#E0FF8A"
   id="stop104" />
	<stop
   offset="1"
   style="stop-color:#898F40"
   id="stop106" />
</linearGradient>

<linearGradient
   id="SVGID_14_"
   gradientUnits="userSpaceOnUse"
   x1="34.287102"
   y1="11.918"
   x2="39.112099"
   y2="11.918">
	<stop
   offset="0"
   style="stop-color:#E0FF8A"
   id="stop111" />
	<stop
   offset="1"
   style="stop-color:#898F40"
   id="stop113" />
</linearGradient>

<linearGradient
   id="SVGID_15_"
   gradientUnits="userSpaceOnUse"
   x1="39.950199"
   y1="12.6895"
   x2="42.1502"
   y2="12.6895">
	<stop
   offset="0"
   style="stop-color:#E0FF8A"
   id="stop118" />
	<stop
   offset="1"
   style="stop-color:#898F40"
   id="stop120" />
</linearGradient>

<linearGradient
   id="SVGID_16_"
   gradientUnits="userSpaceOnUse"
   x1="37.4375"
   y1="9.2890997"
   x2="40.262501"
   y2="9.2890997">
	<stop
   offset="0"
   style="stop-color:#E0FF8A"
   id="stop125" />
	<stop
   offset="1"
   style="stop-color:#898F40"
   id="stop127" />
</linearGradient>

<linearGradient
   id="SVGID_17_"
   gradientUnits="userSpaceOnUse"
   x1="41.299801"
   y1="10.8516"
   x2="44.5998"
   y2="10.8516">
	<stop
   offset="0"
   style="stop-color:#E0FF8A"
   id="stop132" />
	<stop
   offset="1"
   style="stop-color:#898F40"
   id="stop134" />
</linearGradient>

<linearGradient
   id="SVGID_18_"
   gradientUnits="userSpaceOnUse"
   x1="40.462898"
   y1="8.1542997"
   x2="42.7379"
   y2="8.1542997">
	<stop
   offset="0"
   style="stop-color:#E0FF8A"
   id="stop139" />
	<stop
   offset="1"
   style="stop-color:#898F40"
   id="stop141" />
</linearGradient>

<linearGradient
   id="SVGID_19_"
   gradientUnits="userSpaceOnUse"
   x1="43.724602"
   y1="8.8866997"
   x2="45.474602"
   y2="8.8866997">
	<stop
   offset="0"
   style="stop-color:#E0FF8A"
   id="stop146" />
	<stop
   offset="1"
   style="stop-color:#898F40"
   id="stop148" />
</linearGradient>

<linearGradient
   id="SVGID_20_"
   gradientUnits="userSpaceOnUse"
   x1="1.8623"
   y1="10.7285"
   x2="3.8373001"
   y2="10.7285">
	<stop
   offset="0"
   style="stop-color:#E0FF8A"
   id="stop153" />
	<stop
   offset="1"
   style="stop-color:#898F40"
   id="stop155" />
</linearGradient>

<linearGradient
   id="SVGID_21_"
   gradientUnits="userSpaceOnUse"
   x1="7.2997999"
   y1="7.9326"
   x2="8.9997997"
   y2="7.9326">
	<stop
   offset="0"
   style="stop-color:#F7FFA1"
   id="stop160" />
	<stop
   offset="1"
   style="stop-color:#F8FFB3"
   id="stop162" />
</linearGradient>

<linearGradient
   id="SVGID_22_"
   gradientUnits="userSpaceOnUse"
   x1="10.1626"
   y1="6.5029001"
   x2="11.9376"
   y2="6.5029001">
	<stop
   offset="0"
   style="stop-color:#F7FFA1"
   id="stop167" />
	<stop
   offset="1"
   style="stop-color:#F8FFB3"
   id="stop169" />
</linearGradient>

<linearGradient
   id="SVGID_23_"
   gradientUnits="userSpaceOnUse"
   x1="9.8125"
   y1="8.5312996"
   x2="11.5875"
   y2="8.5312996">
	<stop
   offset="0"
   style="stop-color:#F7FFA1"
   id="stop174" />
	<stop
   offset="1"
   style="stop-color:#F8FFB3"
   id="stop176" />
</linearGradient>

<linearGradient
   id="SVGID_24_"
   gradientUnits="userSpaceOnUse"
   x1="13.25"
   y1="8.4307003"
   x2="14.35"
   y2="8.4307003">
	<stop
   offset="0"
   style="stop-color:#F7FFA1"
   id="stop181" />
	<stop
   offset="1"
   style="stop-color:#F8FFB3"
   id="stop183" />
</linearGradient>

<linearGradient
   id="SVGID_25_"
   gradientUnits="userSpaceOnUse"
   x1="15.4502"
   y1="9.3339996"
   x2="16.950199"
   y2="9.3339996">
	<stop
   offset="0"
   style="stop-color:#F7FFA1"
   id="stop188" />
	<stop
   offset="1"
   style="stop-color:#F8FFB3"
   id="stop190" />
</linearGradient>

<linearGradient
   id="SVGID_26_"
   gradientUnits="userSpaceOnUse"
   x1="17.001499"
   y1="7.5634999"
   x2="18.901501"
   y2="7.5634999">
	<stop
   offset="0"
   style="stop-color:#F7FFA1"
   id="stop195" />
	<stop
   offset="1"
   style="stop-color:#F8FFB3"
   id="stop197" />
</linearGradient>

<linearGradient
   id="SVGID_27_"
   gradientUnits="userSpaceOnUse"
   x1="14.6499"
   y1="7.1455002"
   x2="16.249901"
   y2="7.1455002">
	<stop
   offset="0"
   style="stop-color:#F7FFA1"
   id="stop202" />
	<stop
   offset="1"
   style="stop-color:#F8FFB3"
   id="stop204" />
</linearGradient>

<linearGradient
   id="SVGID_28_"
   gradientUnits="userSpaceOnUse"
   x1="12.6626"
   y1="6.02"
   x2="14.1376"
   y2="6.02">
	<stop
   offset="0"
   style="stop-color:#F7FFA1"
   id="stop209" />
	<stop
   offset="1"
   style="stop-color:#F8FFB3"
   id="stop211" />
</linearGradient>

<linearGradient
   id="SVGID_29_"
   gradientUnits="userSpaceOnUse"
   x1="13.9126"
   y1="4.1724"
   x2="14.8876"
   y2="4.1724">
	<stop
   offset="0"
   style="stop-color:#F7FFA1"
   id="stop216" />
	<stop
   offset="1"
   style="stop-color:#F8FFB3"
   id="stop218" />
</linearGradient>

<linearGradient
   id="SVGID_30_"
   gradientUnits="userSpaceOnUse"
   x1="16.174801"
   y1="3.4258001"
   x2="17.6248"
   y2="3.4258001">
	<stop
   offset="0"
   style="stop-color:#F7FFA1"
   id="stop223" />
	<stop
   offset="1"
   style="stop-color:#F8FFB3"
   id="stop225" />
</linearGradient>

<linearGradient
   id="SVGID_31_"
   gradientUnits="userSpaceOnUse"
   x1="18.137699"
   y1="1.9346"
   x2="19.262699"
   y2="1.9346">
	<stop
   offset="0"
   style="stop-color:#F7FFA1"
   id="stop230" />
	<stop
   offset="1"
   style="stop-color:#F8FFB3"
   id="stop232" />
</linearGradient>

<linearGradient
   id="SVGID_32_"
   gradientUnits="userSpaceOnUse"
   x1="17.825199"
   y1="3.9365001"
   x2="19.575199"
   y2="3.9365001">
	<stop
   offset="0"
   style="stop-color:#F7FFA1"
   id="stop237" />
	<stop
   offset="1"
   style="stop-color:#F8FFB3"
   id="stop239" />
</linearGradient>

<linearGradient
   id="SVGID_33_"
   gradientUnits="userSpaceOnUse"
   x1="15.3999"
   y1="5.0819998"
   x2="16.499901"
   y2="5.0819998">
	<stop
   offset="0"
   style="stop-color:#F7FFA1"
   id="stop244" />
	<stop
   offset="1"
   style="stop-color:#F8FFB3"
   id="stop246" />
</linearGradient>

<linearGradient
   id="SVGID_34_"
   gradientUnits="userSpaceOnUse"
   x1="17.487301"
   y1="5.6044998"
   x2="18.9123"
   y2="5.6044998">
	<stop
   offset="0"
   style="stop-color:#F7FFA1"
   id="stop251" />
	<stop
   offset="1"
   style="stop-color:#F8FFB3"
   id="stop253" />
</linearGradient>

<linearGradient
   id="SVGID_35_"
   gradientUnits="userSpaceOnUse"
   x1="20.2251"
   y1="5.7041001"
   x2="21.5751"
   y2="5.7041001">
	<stop
   offset="0"
   style="stop-color:#F7FFA1"
   id="stop258" />
	<stop
   offset="1"
   style="stop-color:#F8FFB3"
   id="stop260" />
</linearGradient>

<linearGradient
   id="SVGID_36_"
   gradientUnits="userSpaceOnUse"
   x1="20.1499"
   y1="8.9902"
   x2="21.4499"
   y2="8.9902">
	<stop
   offset="0"
   style="stop-color:#F7FFA1"
   id="stop265" />
	<stop
   offset="1"
   style="stop-color:#F8FFB3"
   id="stop267" />
</linearGradient>

<linearGradient
   id="SVGID_37_"
   gradientUnits="userSpaceOnUse"
   x1="22.75"
   y1="9.4716997"
   x2="24.549999"
   y2="9.4716997">
	<stop
   offset="0"
   style="stop-color:#F7FFA1"
   id="stop272" />
	<stop
   offset="1"
   style="stop-color:#F8FFB3"
   id="stop274" />
</linearGradient>

<linearGradient
   id="SVGID_38_"
   gradientUnits="userSpaceOnUse"
   x1="10.2124"
   y1="10.3975"
   x2="11.1874"
   y2="10.3975">
	<stop
   offset="0"
   style="stop-color:#F7FFA1"
   id="stop279" />
	<stop
   offset="1"
   style="stop-color:#F8FFB3"
   id="stop281" />
</linearGradient>

<linearGradient
   id="SVGID_39_"
   gradientUnits="userSpaceOnUse"
   x1="17.424801"
   y1="11.4121"
   x2="18.9748"
   y2="11.4121">
	<stop
   offset="0"
   style="stop-color:#F7FFA1"
   id="stop286" />
	<stop
   offset="1"
   style="stop-color:#F8FFB3"
   id="stop288" />
</linearGradient>

<linearGradient
   id="SVGID_40_"
   gradientUnits="userSpaceOnUse"
   x1="20.0625"
   y1="12.7207"
   x2="21.637501"
   y2="12.7207">
	<stop
   offset="0"
   style="stop-color:#F7FFA1"
   id="stop293" />
	<stop
   offset="1"
   style="stop-color:#F8FFB3"
   id="stop295" />
</linearGradient>

<linearGradient
   id="SVGID_41_"
   gradientUnits="userSpaceOnUse"
   x1="15.7627"
   y1="13.6504"
   x2="16.537701"
   y2="13.6504">
	<stop
   offset="0"
   style="stop-color:#F7FFA1"
   id="stop300" />
	<stop
   offset="1"
   style="stop-color:#F8FFB3"
   id="stop302" />
</linearGradient>

<linearGradient
   id="SVGID_42_"
   gradientUnits="userSpaceOnUse"
   x1="34.849602"
   y1="12.0527"
   x2="36.549599"
   y2="12.0527">
	<stop
   offset="0"
   style="stop-color:#F7FFA1"
   id="stop307" />
	<stop
   offset="1"
   style="stop-color:#F8FFB3"
   id="stop309" />
</linearGradient>

<linearGradient
   id="SVGID_43_"
   gradientUnits="userSpaceOnUse"
   x1="30.6875"
   y1="10.8945"
   x2="32.3125"
   y2="10.8945">
	<stop
   offset="0"
   style="stop-color:#F7FFA1"
   id="stop314" />
	<stop
   offset="1"
   style="stop-color:#F8FFB3"
   id="stop316" />
</linearGradient>

<linearGradient
   id="SVGID_44_"
   gradientUnits="userSpaceOnUse"
   x1="29.6621"
   y1="12.8086"
   x2="30.937099"
   y2="12.8086">
	<stop
   offset="0"
   style="stop-color:#F7FFA1"
   id="stop321" />
	<stop
   offset="1"
   style="stop-color:#F8FFB3"
   id="stop323" />
</linearGradient>

<linearGradient
   id="SVGID_45_"
   gradientUnits="userSpaceOnUse"
   x1="27.0879"
   y1="10.959"
   x2="28.1129"
   y2="10.959">
	<stop
   offset="0"
   style="stop-color:#F7FFA1"
   id="stop328" />
	<stop
   offset="1"
   style="stop-color:#F8FFB3"
   id="stop330" />
</linearGradient>

<linearGradient
   id="SVGID_46_"
   gradientUnits="userSpaceOnUse"
   x1="37.987301"
   y1="9.2069998"
   x2="39.212299"
   y2="9.2069998">
	<stop
   offset="0"
   style="stop-color:#F7FFA1"
   id="stop335" />
	<stop
   offset="1"
   style="stop-color:#F8FFB3"
   id="stop337" />
</linearGradient>

<linearGradient
   id="SVGID_47_"
   gradientUnits="userSpaceOnUse"
   x1="42.012699"
   y1="10.4668"
   x2="43.687698"
   y2="10.4668">
	<stop
   offset="0"
   style="stop-color:#F7FFA1"
   id="stop342" />
	<stop
   offset="1"
   style="stop-color:#F8FFB3"
   id="stop344" />
</linearGradient>

<linearGradient
   id="SVGID_48_"
   gradientUnits="userSpaceOnUse"
   x1="40.787102"
   y1="8.0390997"
   x2="41.912102"
   y2="8.0390997">
	<stop
   offset="0"
   style="stop-color:#F7FFA1"
   id="stop349" />
	<stop
   offset="1"
   style="stop-color:#F8FFB3"
   id="stop351" />
</linearGradient>

<linearGradient
   id="SVGID_49_"
   gradientUnits="userSpaceOnUse"
   x1="3.5249"
   y1="8.6718998"
   x2="4.4748998"
   y2="8.6718998">
	<stop
   offset="0"
   style="stop-color:#F7FFA1"
   id="stop356" />
	<stop
   offset="1"
   style="stop-color:#F8FFB3"
   id="stop358" />
</linearGradient>
<g
   id="g1235"
   transform="matrix(5.6270703,0,0,5.6270703,0.01536932,86.081738)"><path
     id="path7"
     d="M 4.2,8.35 C 5.9,7.817 7.766,6.916 9.8,5.65 11.6,4.483 13.45,3.367 15.35,2.3 17.617,1.033 19.067,0.334 19.7,0.2 c 2.767,-0.567 5.767,0.066 9,1.9 2.566,1.467 5.767,3.083 9.6,4.85 1.2,0.533 2.117,1 2.75,1.4 -0.833,0.433 -2.166,0.9 -4,1.4 -3.666,0.934 -8,1.483 -13,1.65 C 17.85,11.599 12.683,11.15 8.55,10.049 6.483,9.517 5.033,8.95 4.2,8.35 Z"
     style="clip-rule:evenodd;fill:url(#SVGID_1_);fill-rule:evenodd"
     inkscape:connector-curvature="0" /><path
     id="path9"
     d="m 37.25,7.25 c 0.967,0.6 1.033,1.017 0.2,1.25 -0.9,0.233 -1.434,0.117 -1.601,-0.35 -0.166,-0.4 -0.083,-0.717 0.25,-0.95 0.335,-0.233 0.717,-0.217 1.151,0.05 z"
     style="clip-rule:evenodd;fill:#888c4b;fill-rule:evenodd"
     inkscape:connector-curvature="0" /><path
     id="path11"
     d="m 34.3,5.65 c 0.8,0.533 0.783,0.9 -0.05,1.1 -0.934,0.233 -1.417,0.133 -1.45,-0.3 -0.066,-0.4 0.066,-0.7 0.4,-0.9 0.333,-0.2 0.7,-0.167 1.1,0.1 z"
     style="clip-rule:evenodd;fill:#888c4b;fill-rule:evenodd"
     inkscape:connector-curvature="0" /><path
     id="path13"
     d="M 34.4,7.65 C 34.966,8.217 34.816,8.6 33.95,8.8 33.05,9.033 32.583,8.867 32.55,8.3 32.517,7.767 32.717,7.433 33.151,7.3 33.583,7.133 34,7.25 34.4,7.65 Z"
     style="clip-rule:evenodd;fill:#888c4b;fill-rule:evenodd"
     inkscape:connector-curvature="0" /><path
     id="path15"
     d="m 31.2,7.35 c 0.5,0.566 0.45,0.967 -0.15,1.2 C 30.45,8.783 30.033,8.717 29.8,8.35 29.6,8.05 29.717,7.733 30.151,7.4 30.55,7.033 30.9,7.017 31.2,7.35 Z"
     style="clip-rule:evenodd;fill:#888c4b;fill-rule:evenodd"
     inkscape:connector-curvature="0" /><path
     id="path17"
     d="m 29.25,3.55 c 0.7,0.167 1.1,0.483 1.2,0.95 0.133,0.433 -0.05,0.65 -0.55,0.65 -0.434,0 -0.75,-0.283 -0.95,-0.85 -0.2,-0.567 -0.1,-0.817 0.3,-0.75 z"
     style="clip-rule:evenodd;fill:#888c4b;fill-rule:evenodd"
     inkscape:connector-curvature="0" /><path
     id="path19"
     d="m 26.45,2.05 c 0.633,0.2 0.916,0.567 0.85,1.1 -0.066,0.533 -0.267,0.7 -0.6,0.5 -0.233,-0.167 -0.384,-0.5 -0.45,-1 -0.066,-0.467 0,-0.667 0.2,-0.6 z"
     style="clip-rule:evenodd;fill:#888c4b;fill-rule:evenodd"
     inkscape:connector-curvature="0" /><path
     id="path21"
     d="m 28.6,5.4 c 0.767,0.667 0.867,1.167 0.301,1.5 C 28.267,7.267 27.834,7.2 27.6,6.7 27.4,6.267 27.45,5.883 27.75,5.55 28.05,5.217 28.333,5.167 28.6,5.4 Z"
     style="clip-rule:evenodd;fill:#888c4b;fill-rule:evenodd"
     inkscape:connector-curvature="0" /><path
     id="path23"
     d="m 29.1,9.1 c 0.667,0.367 0.767,0.717 0.301,1.051 -0.467,0.333 -0.884,0.3 -1.25,-0.101 C 27.85,9.717 27.833,9.417 28.1,9.15 28.4,8.917 28.733,8.9 29.1,9.1 Z"
     style="clip-rule:evenodd;fill:#888c4b;fill-rule:evenodd"
     inkscape:connector-curvature="0" /><path
     id="path25"
     d="M 32.3,9.1 C 33,9.2 33.116,9.4 32.65,9.7 32.15,10 31.8,10.083 31.6,9.95 31.4,9.85 31.366,9.667 31.5,9.4 31.634,9.133 31.9,9.033 32.3,9.1 Z"
     style="clip-rule:evenodd;fill:#888c4b;fill-rule:evenodd"
     inkscape:connector-curvature="0" /><path
     id="path32"
     d="m 5.2,8.45 c 0.2,0.367 0.383,0.7 0.55,1 C 5.75,9.55 5.5,9.616 5,9.65 4.333,9.716 3.733,9.65 3.2,9.45 2.6,9.217 2.45,8.916 2.75,8.55 3.05,8.184 3.517,8 4.15,8 4.717,8.033 5.067,8.183 5.2,8.45 Z"
     style="clip-rule:evenodd;fill:url(#SVGID_2_);fill-rule:evenodd"
     inkscape:connector-curvature="0" /><path
     id="path39"
     d="M 2.4,9.35 C 2.833,9.65 2.567,9.917 1.6,10.15 0.6,10.383 0.067,10.316 0,9.95 -0.033,9.55 0.233,9.267 0.8,9.1 1.367,8.9 1.9,8.983 2.4,9.35 Z"
     style="clip-rule:evenodd;fill:url(#SVGID_3_);fill-rule:evenodd"
     inkscape:connector-curvature="0" /><path
     id="path46"
     d="m 11.15,9.75 c 1.367,0.1 1.783,0.45 1.25,1.05 -0.533,0.634 -1.167,0.834 -1.9,0.601 -0.6,-0.2 -0.783,-0.534 -0.55,-1 0.233,-0.501 0.633,-0.717 1.2,-0.651 z"
     style="clip-rule:evenodd;fill:url(#SVGID_4_);fill-rule:evenodd"
     inkscape:connector-curvature="0" /><path
     id="path53"
     d="m 7.55,10.6 c 0.7,-0.133 0.9,0.067 0.6,0.601 -0.3,0.5 -0.633,0.649 -1,0.45 -0.367,-0.2 -0.5,-0.4 -0.4,-0.601 0.067,-0.234 0.333,-0.383 0.8,-0.45 z"
     style="clip-rule:evenodd;fill:url(#SVGID_5_);fill-rule:evenodd"
     inkscape:connector-curvature="0" /><path
     id="path60"
     d="m 19.3,10.35 c 0.8,0 1.4,0.267 1.8,0.801 0.4,0.533 0.316,0.933 -0.25,1.199 -0.633,0.334 -1.333,0.517 -2.1,0.551 -0.867,0 -1.483,-0.233 -1.85,-0.7 -0.367,-0.467 -0.267,-0.9 0.3,-1.3 0.533,-0.368 1.233,-0.551 2.1,-0.551 z"
     style="clip-rule:evenodd;fill:url(#SVGID_6_);fill-rule:evenodd"
     inkscape:connector-curvature="0" /><path
     id="path67"
     d="m 23.75,12.35 c 0.3,0.4 0.317,0.75 0.05,1.051 -0.333,0.366 -1.083,0.5 -2.25,0.399 -1.167,-0.1 -1.783,-0.3 -1.85,-0.6 -0.067,-0.167 0.15,-0.517 0.65,-1.05 0.4,-0.434 0.967,-0.634 1.7,-0.601 0.7,0.067 1.267,0.335 1.7,0.801 z"
     style="clip-rule:evenodd;fill:url(#SVGID_7_);fill-rule:evenodd"
     inkscape:connector-curvature="0" /><path
     id="path74"
     d="m 32.15,12.85 c -0.534,0 -1.017,-0.1 -1.45,-0.3 -0.467,-0.233 -0.65,-0.533 -0.55,-0.899 0.166,-0.5 0.433,-0.934 0.8,-1.301 0.467,-0.433 1,-0.633 1.6,-0.6 0.634,0.033 1.25,0.35 1.851,0.95 0.6,0.566 0.866,1.05 0.8,1.45 -0.101,0.466 -1.118,0.7 -3.051,0.7 z"
     style="clip-rule:evenodd;fill:url(#SVGID_8_);fill-rule:evenodd"
     inkscape:connector-curvature="0" /><path
     id="path81"
     d="m 32.6,13.25 c -0.1,0.434 -0.466,0.684 -1.1,0.75 -0.566,0.066 -1.184,-0.017 -1.85,-0.25 -0.534,-0.2 -0.667,-0.483 -0.4,-0.85 0.233,-0.4 0.616,-0.65 1.15,-0.75 0.566,-0.167 1.083,-0.167 1.55,0 0.567,0.2 0.783,0.567 0.65,1.1 z"
     style="clip-rule:evenodd;fill:url(#SVGID_9_);fill-rule:evenodd"
     inkscape:connector-curvature="0" /><path
     id="path88"
     d="m 28.15,14 c 0.5,0.267 0.5,0.5 0,0.7 -0.467,0.2 -1,0.25 -1.601,0.149 -0.566,-0.066 -0.566,-0.3 0,-0.699 0.534,-0.4 1.067,-0.45 1.601,-0.15 z"
     style="clip-rule:evenodd;fill:url(#SVGID_10_);fill-rule:evenodd"
     inkscape:connector-curvature="0" /><path
     id="path95"
     d="m 17.4,13.25 c 0.567,0.2 0.567,0.483 0,0.85 -0.6,0.367 -1.183,0.4 -1.75,0.101 -0.566,-0.3 -0.566,-0.584 0,-0.851 0.567,-0.267 1.15,-0.3 1.75,-0.1 z"
     style="clip-rule:evenodd;fill:url(#SVGID_11_);fill-rule:evenodd"
     inkscape:connector-curvature="0" /><path
     id="path102"
     d="M 8.65,12.05 C 9.217,12.116 9.517,12.3 9.55,12.6 9.583,12.866 9.367,13 8.9,13 8.5,13 8.267,12.833 8.2,12.5 8.133,12.134 8.283,11.983 8.65,12.05 Z"
     style="clip-rule:evenodd;fill:url(#SVGID_12_);fill-rule:evenodd"
     inkscape:connector-curvature="0" /><path
     id="path109"
     d="m 28.15,10.05 c 1.166,0.167 1.466,0.55 0.899,1.15 -0.533,0.566 -1.149,0.816 -1.85,0.75 -0.566,-0.033 -0.65,-0.367 -0.25,-1 0.367,-0.667 0.768,-0.967 1.201,-0.9 z"
     style="clip-rule:evenodd;fill:url(#SVGID_13_);fill-rule:evenodd"
     inkscape:connector-curvature="0" /><path
     id="path116"
     d="m 37.35,10.45 c 0.534,0.166 0.983,0.45 1.351,0.85 0.333,0.434 0.467,0.867 0.399,1.3 -0.066,0.4 -0.399,0.667 -1,0.801 -0.399,0.066 -1.1,0.066 -2.1,0 -0.833,-0.034 -1.35,-0.117 -1.55,-0.25 -0.167,-0.101 -0.184,-0.384 -0.05,-0.851 0.133,-0.5 0.5,-0.967 1.1,-1.399 0.634,-0.467 1.25,-0.618 1.85,-0.451 z"
     style="clip-rule:evenodd;fill:url(#SVGID_14_);fill-rule:evenodd"
     inkscape:connector-curvature="0" /><path
     id="path123"
     d="m 41.6,12.15 c 0.667,0.233 0.817,0.517 0.45,0.85 -0.366,0.333 -0.883,0.4 -1.55,0.2 -0.634,-0.2 -0.717,-0.467 -0.25,-0.8 0.467,-0.334 0.917,-0.417 1.35,-0.25 z"
     style="clip-rule:evenodd;fill:url(#SVGID_15_);fill-rule:evenodd"
     inkscape:connector-curvature="0" /><path
     id="path130"
     d="m 39.6,8.45 c 0.434,0.066 0.667,0.316 0.7,0.75 0.033,0.399 -0.149,0.684 -0.55,0.85 -0.366,0.167 -0.833,0.184 -1.4,0.05 C 37.75,9.967 37.451,9.784 37.451,9.55 37.451,9.217 37.6,8.933 37.901,8.7 38.3,8.4 38.866,8.317 39.6,8.45 Z"
     style="clip-rule:evenodd;fill:url(#SVGID_16_);fill-rule:evenodd"
     inkscape:connector-curvature="0" /><path
     id="path137"
     d="m 43.2,9.9 c 1.399,0.233 1.767,0.783 1.1,1.649 -0.166,0.267 -0.566,0.351 -1.2,0.25 C 42.434,11.733 41.901,11.516 41.5,11.15 41.134,10.816 41.184,10.5 41.65,10.2 42.116,9.9 42.634,9.8 43.2,9.9 Z"
     style="clip-rule:evenodd;fill:url(#SVGID_17_);fill-rule:evenodd"
     inkscape:connector-curvature="0" /><path
     id="path144"
     d="m 41.3,7.35 c 0.601,0 1.033,0.2 1.3,0.6 0.233,0.333 0.25,0.6 0.051,0.8 -0.167,0.167 -0.384,0.233 -0.65,0.2 -0.134,0 -0.5,-0.067 -1.1,-0.2 C 40.467,8.683 40.366,8.433 40.6,8 40.8,7.567 41.033,7.35 41.3,7.35 Z"
     style="clip-rule:evenodd;fill:url(#SVGID_18_);fill-rule:evenodd"
     inkscape:connector-curvature="0" /><path
     id="path151"
     d="m 44.8,8.2 c 0.733,0.233 0.884,0.566 0.45,1 C 44.816,9.634 44.4,9.733 44,9.5 43.667,9.3 43.616,9 43.85,8.6 44.084,8.2 44.4,8.067 44.8,8.2 Z"
     style="clip-rule:evenodd;fill:url(#SVGID_19_);fill-rule:evenodd"
     inkscape:connector-curvature="0" /><path
     id="path158"
     d="M 3.45,10.2 C 3.883,10.434 4,10.717 3.8,11.05 3.567,11.417 3.1,11.45 2.4,11.151 1.733,10.884 1.65,10.617 2.15,10.35 2.683,10.083 3.117,10.033 3.45,10.2 Z"
     style="clip-rule:evenodd;fill:url(#SVGID_20_);fill-rule:evenodd"
     inkscape:connector-curvature="0" /><path
     id="path165"
     d="M 8.35,7.4 C 9.05,7.4 9.233,7.6 8.9,8 8.533,8.367 8.117,8.517 7.65,8.45 7.25,8.383 7.2,8.183 7.5,7.85 7.8,7.55 8.083,7.4 8.35,7.4 Z"
     style="clip-rule:evenodd;fill:url(#SVGID_21_);fill-rule:evenodd"
     inkscape:connector-curvature="0" /><path
     id="path172"
     d="m 11,5.95 c 0.767,-0.133 1.067,0.033 0.9,0.5 C 11.733,6.883 11.35,7.1 10.75,7.1 10.25,7.1 10.067,6.916 10.2,6.55 10.333,6.217 10.6,6.017 11,5.95 Z"
     style="clip-rule:evenodd;fill:url(#SVGID_22_);fill-rule:evenodd"
     inkscape:connector-curvature="0" /><path
     id="path179"
     d="m 11.05,7.65 c 0.534,0.067 0.7,0.434 0.5,1.1 -0.167,0.667 -0.566,0.833 -1.2,0.5 C 9.783,8.95 9.667,8.583 10,8.15 10.3,7.783 10.65,7.617 11.05,7.65 Z"
     style="clip-rule:evenodd;fill:url(#SVGID_23_);fill-rule:evenodd"
     inkscape:connector-curvature="0" /><path
     id="path186"
     d="m 14.1,7.75 c 0.3,0.3 0.316,0.667 0.05,1.1 -0.267,0.4 -0.517,0.5 -0.75,0.3 -0.267,-0.2 -0.267,-0.55 0,-1.05 0.233,-0.5 0.467,-0.617 0.7,-0.35 z"
     style="clip-rule:evenodd;fill:url(#SVGID_24_);fill-rule:evenodd"
     inkscape:connector-curvature="0" /><path
     id="path193"
     d="m 16.7,8.75 c 0.333,0.133 0.4,0.4 0.2,0.8 -0.233,0.434 -0.566,0.55 -1,0.351 -0.5,-0.2 -0.6,-0.483 -0.3,-0.851 0.3,-0.367 0.667,-0.467 1.1,-0.3 z"
     style="clip-rule:evenodd;fill:url(#SVGID_25_);fill-rule:evenodd"
     inkscape:connector-curvature="0" /><path
     id="path200"
     d="m 18.35,6.85 c 0.6,0.267 0.767,0.617 0.5,1.05 C 18.55,8.367 18.1,8.467 17.5,8.2 16.933,8 16.85,7.683 17.25,7.25 c 0.367,-0.433 0.733,-0.567 1.1,-0.4 z"
     style="clip-rule:evenodd;fill:url(#SVGID_26_);fill-rule:evenodd"
     inkscape:connector-curvature="0" /><path
     id="path207"
     d="m 15.5,6.3 c 0.8,0.067 1,0.4 0.6,1 C 15.666,7.933 15.267,8.133 14.9,7.9 14.6,7.7 14.55,7.383 14.75,6.95 14.95,6.483 15.2,6.267 15.5,6.3 Z"
     style="clip-rule:evenodd;fill:url(#SVGID_27_);fill-rule:evenodd"
     inkscape:connector-curvature="0" /><path
     id="path214"
     d="m 13.25,5.3 c 0.8,0 1.067,0.267 0.8,0.8 C 13.75,6.633 13.4,6.833 13,6.7 12.667,6.6 12.567,6.333 12.7,5.9 12.8,5.5 12.983,5.3 13.25,5.3 Z"
     style="clip-rule:evenodd;fill:url(#SVGID_28_);fill-rule:evenodd"
     inkscape:connector-curvature="0" /><path
     id="path221"
     d="m 14.45,3.8 c 0.4,-0.133 0.533,-0.05 0.4,0.25 -0.1,0.3 -0.317,0.483 -0.65,0.55 -0.3,0.033 -0.383,-0.067 -0.25,-0.3 0.1,-0.267 0.267,-0.433 0.5,-0.5 z"
     style="clip-rule:evenodd;fill:url(#SVGID_29_);fill-rule:evenodd"
     inkscape:connector-curvature="0" /><path
     id="path228"
     d="m 17.25,2.9 c 0.467,0.133 0.533,0.367 0.2,0.7 -0.3,0.3 -0.633,0.417 -1,0.35 -0.367,-0.067 -0.4,-0.284 -0.1,-0.65 0.267,-0.333 0.567,-0.467 0.9,-0.4 z"
     style="clip-rule:evenodd;fill:url(#SVGID_30_);fill-rule:evenodd"
     inkscape:connector-curvature="0" /><path
     id="path235"
     d="m 18.75,1.55 c 0.5,0.034 0.667,0.184 0.5,0.45 -0.167,0.266 -0.433,0.367 -0.8,0.3 -0.3,-0.1 -0.367,-0.25 -0.2,-0.45 0.133,-0.2 0.3,-0.3 0.5,-0.3 z"
     style="clip-rule:evenodd;fill:url(#SVGID_31_);fill-rule:evenodd"
     inkscape:connector-curvature="0" /><path
     id="path242"
     d="m 19,3.25 c 0.733,0.133 0.817,0.433 0.25,0.9 -0.567,0.5 -1,0.617 -1.3,0.35 -0.267,-0.2 -0.233,-0.483 0.1,-0.85 0.3,-0.333 0.617,-0.467 0.95,-0.4 z"
     style="clip-rule:evenodd;fill:url(#SVGID_32_);fill-rule:evenodd"
     inkscape:connector-curvature="0" /><path
     id="path249"
     d="m 16.45,4.75 c 0.133,0.367 0.066,0.633 -0.2,0.8 C 15.983,5.683 15.733,5.667 15.5,5.5 15.3,5.333 15.367,5.083 15.7,4.75 c 0.367,-0.3 0.617,-0.3 0.75,0 z"
     style="clip-rule:evenodd;fill:url(#SVGID_33_);fill-rule:evenodd"
     inkscape:connector-curvature="0" /><path
     id="path256"
     d="m 18.45,5.1 c 0.333,0 0.466,0.267 0.4,0.8 C 18.817,6.067 18.633,6.133 18.3,6.1 17.967,6.067 17.717,5.967 17.55,5.8 17.383,5.633 17.4,5.484 17.6,5.35 17.8,5.183 18.083,5.1 18.45,5.1 Z"
     style="clip-rule:evenodd;fill:url(#SVGID_34_);fill-rule:evenodd"
     inkscape:connector-curvature="0" /><path
     id="path263"
     d="m 20.95,5 c 0.667,0.1 0.833,0.383 0.5,0.85 -0.367,0.5 -0.7,0.667 -1,0.5 C 20.183,6.25 20.133,5.983 20.3,5.55 20.433,5.15 20.65,4.967 20.95,5 Z"
     style="clip-rule:evenodd;fill:url(#SVGID_35_);fill-rule:evenodd"
     inkscape:connector-curvature="0" /><path
     id="path270"
     d="m 21,8.3 c 0.533,0.067 0.65,0.35 0.35,0.851 -0.3,0.466 -0.6,0.633 -0.9,0.5 -0.3,-0.134 -0.383,-0.4 -0.25,-0.8 C 20.367,8.417 20.633,8.233 21,8.3 Z"
     style="clip-rule:evenodd;fill:url(#SVGID_36_);fill-rule:evenodd"
     inkscape:connector-curvature="0" /><path
     id="path277"
     d="m 23.9,8.85 c 0.833,0.333 0.9,0.667 0.2,1 -0.733,0.334 -1.184,0.4 -1.35,0.2 -0.1,-0.166 -0.033,-0.434 0.2,-0.8 0.267,-0.433 0.583,-0.567 0.95,-0.4 z"
     style="clip-rule:evenodd;fill:url(#SVGID_37_);fill-rule:evenodd"
     inkscape:connector-curvature="0" /><path
     id="path284"
     d="m 10.85,9.95 c 0.367,0.1 0.467,0.283 0.3,0.55 -0.167,0.233 -0.4,0.35 -0.7,0.35 -0.267,0 -0.317,-0.149 -0.15,-0.449 0.167,-0.335 0.35,-0.484 0.55,-0.451 z"
     style="clip-rule:evenodd;fill:url(#SVGID_38_);fill-rule:evenodd"
     inkscape:connector-curvature="0" /><path
     id="path291"
     d="m 18.5,10.85 c 0.5,0.134 0.6,0.4 0.3,0.801 -0.333,0.366 -0.7,0.466 -1.1,0.3 -0.4,-0.134 -0.467,-0.384 -0.2,-0.75 0.3,-0.368 0.633,-0.484 1,-0.351 z"
     style="clip-rule:evenodd;fill:url(#SVGID_39_);fill-rule:evenodd"
     inkscape:connector-curvature="0" /><path
     id="path298"
     d="m 21.35,12.05 c 0.433,0.066 0.45,0.334 0.05,0.8 -0.367,0.467 -0.733,0.634 -1.1,0.5 -0.367,-0.133 -0.367,-0.383 0,-0.75 0.367,-0.4 0.717,-0.583 1.05,-0.55 z"
     style="clip-rule:evenodd;fill:url(#SVGID_40_);fill-rule:evenodd"
     inkscape:connector-curvature="0" /><path
     id="path305"
     d="m 16.5,13.4 c 0.133,0.133 0.117,0.283 -0.05,0.449 -0.167,0.167 -0.35,0.184 -0.55,0.051 -0.2,-0.134 -0.183,-0.284 0.05,-0.45 0.233,-0.167 0.417,-0.183 0.55,-0.05 z"
     style="clip-rule:evenodd;fill:url(#SVGID_41_);fill-rule:evenodd"
     inkscape:connector-curvature="0" /><path
     id="path312"
     d="m 36.25,11.15 c 0.467,0.267 0.434,0.683 -0.1,1.25 -0.5,0.533 -0.9,0.716 -1.2,0.55 -0.267,-0.2 -0.2,-0.584 0.2,-1.15 0.367,-0.6 0.734,-0.817 1.1,-0.65 z"
     style="clip-rule:evenodd;fill:url(#SVGID_42_);fill-rule:evenodd"
     inkscape:connector-curvature="0" /><path
     id="path319"
     d="m 32.2,10.2 c 0.233,0.133 0.184,0.45 -0.15,0.95 -0.366,0.466 -0.733,0.633 -1.1,0.5 -0.4,-0.167 -0.4,-0.5 0,-1 0.434,-0.534 0.85,-0.683 1.25,-0.45 z"
     style="clip-rule:evenodd;fill:url(#SVGID_43_);fill-rule:evenodd"
     inkscape:connector-curvature="0" /><path
     id="path326"
     d="m 30.85,12.35 c 0.2,0.101 0.117,0.317 -0.25,0.65 -0.366,0.333 -0.649,0.4 -0.85,0.2 -0.201,-0.2 -0.134,-0.417 0.2,-0.65 0.333,-0.234 0.633,-0.3 0.9,-0.2 z"
     style="clip-rule:evenodd;fill:url(#SVGID_44_);fill-rule:evenodd"
     inkscape:connector-curvature="0" /><path
     id="path333"
     d="m 27.9,10.55 c 0.3,0.066 0.316,0.25 0.05,0.55 -0.3,0.267 -0.55,0.351 -0.75,0.25 -0.2,-0.1 -0.184,-0.283 0.05,-0.55 0.267,-0.234 0.483,-0.317 0.65,-0.25 z"
     style="clip-rule:evenodd;fill:url(#SVGID_45_);fill-rule:evenodd"
     inkscape:connector-curvature="0" /><path
     id="path340"
     d="m 38.65,8.75 c 0.533,-0.033 0.699,0.133 0.5,0.5 -0.2,0.333 -0.483,0.467 -0.851,0.4 -0.333,-0.067 -0.434,-0.233 -0.3,-0.5 0.101,-0.233 0.317,-0.367 0.651,-0.4 z"
     style="clip-rule:evenodd;fill:url(#SVGID_46_);fill-rule:evenodd"
     inkscape:connector-curvature="0" /><path
     id="path347"
     d="m 43.2,9.9 c 0.6,0.066 0.666,0.3 0.2,0.699 -0.467,0.4 -0.851,0.534 -1.15,0.4 -0.299,-0.134 -0.35,-0.366 -0.15,-0.7 0.233,-0.332 0.6,-0.466 1.1,-0.399 z"
     style="clip-rule:evenodd;fill:url(#SVGID_47_);fill-rule:evenodd"
     inkscape:connector-curvature="0" /><path
     id="path354"
     d="m 41.6,7.65 c 0.334,0.133 0.417,0.333 0.25,0.6 -0.199,0.267 -0.466,0.3 -0.8,0.1 C 40.717,8.183 40.667,8 40.9,7.8 41.1,7.6 41.333,7.55 41.6,7.65 Z"
     style="clip-rule:evenodd;fill:url(#SVGID_48_);fill-rule:evenodd"
     inkscape:connector-curvature="0" /><path
     id="path361"
     d="M 4.2,8.35 C 4.433,8.483 4.516,8.65 4.45,8.85 4.35,9.083 4.15,9.134 3.85,9 3.517,8.867 3.4,8.683 3.5,8.45 3.633,8.25 3.867,8.217 4.2,8.35 Z"
     style="clip-rule:evenodd;fill:url(#SVGID_49_);fill-rule:evenodd"
     inkscape:connector-curvature="0" /></g>
</svg>