<?xml version="1.0" encoding="UTF-8" standalone="no"?>
<!-- Created with Inkscape (http://www.inkscape.org/) -->

<svg
   xmlns:dc="http://purl.org/dc/elements/1.1/"
   xmlns:cc="http://creativecommons.org/ns#"
   xmlns:rdf="http://www.w3.org/1999/02/22-rdf-syntax-ns#"
   xmlns:svg="http://www.w3.org/2000/svg"
   xmlns="http://www.w3.org/2000/svg"
   xmlns:xlink="http://www.w3.org/1999/xlink"
   xmlns:sodipodi="http://sodipodi.sourceforge.net/DTD/sodipodi-0.dtd"
   xmlns:inkscape="http://www.inkscape.org/namespaces/inkscape"
   id="svg2"
   sodipodi:docname="milk_carton.svg"
   viewBox="0 0 256 256"
   sodipodi:version="0.32"
   version="1.0"
   inkscape:output_extension="org.inkscape.output.svg.inkscape"
   inkscape:version="0.92.4 (5da689c313, 2019-01-14)"
   width="256"
   height="256">
  <title
     id="title4550">Milk Carton</title>
  <defs
     id="defs4">
    <linearGradient
       id="linearGradient1400">
      <stop
         id="stop1401"
         style="stop-color:#000000;stop-opacity:.67843"
         offset="0" />
      <stop
         id="stop1403"
         style="stop-color:#000000;stop-opacity:.32941"
         offset="0.57" />
      <stop
         id="stop1402"
         style="stop-color:#000000;stop-opacity:0"
         offset="1" />
    </linearGradient>
    <linearGradient
       id="linearGradient30476"
       y2="300.87"
       gradientUnits="userSpaceOnUse"
       x2="425.12"
       gradientTransform="matrix(2.3629161,1.561274e-6,-1.561274e-6,2.3629161,-657.81525,-596.59277)"
       y1="259.64001"
       x1="425.12"
       inkscape:collect="always">
      <stop
         id="stop2332"
         style="stop-color:white"
         offset="0" />
      <stop
         id="stop2334"
         style="stop-color:white;stop-opacity:0"
         offset="1" />
    </linearGradient>
    <linearGradient
       id="linearGradient30478"
       y2="327.29999"
       xlink:href="#linearGradient1400"
       gradientUnits="userSpaceOnUse"
       x2="375.91"
       y1="303.82001"
       x1="367.45999"
       inkscape:collect="always"
       gradientTransform="matrix(2.7392,1.8099e-6,-1.8099e-6,2.7392,-820.47983,-706.13075)" />
    <linearGradient
       id="linearGradient30480"
       y2="341.35999"
       xlink:href="#linearGradient1400"
       gradientUnits="userSpaceOnUse"
       x2="387.07001"
       y1="328.29999"
       x1="403.22"
       inkscape:collect="always"
       gradientTransform="matrix(2.7392,1.8099e-6,-1.8099e-6,2.7392,-820.47983,-706.13075)" />
    <linearGradient
       id="linearGradient30482"
       y2="383.67001"
       gradientUnits="userSpaceOnUse"
       x2="377.66"
       y1="392.60999"
       x1="313.84"
       inkscape:collect="always"
       gradientTransform="matrix(2.7392,1.8099e-6,-1.8099e-6,2.7392,-820.47983,-706.13075)">
      <stop
         id="stop2310"
         style="stop-color:white"
         offset="0" />
      <stop
         id="stop2312"
         style="stop-color:white;stop-opacity:0"
         offset="1" />
    </linearGradient>
    <linearGradient
       id="linearGradient30484"
       y2="326.34"
       gradientUnits="userSpaceOnUse"
       x2="426.67999"
       gradientTransform="matrix(2.4711967,1.6328194e-6,-1.6328194e-6,2.4711967,-704.00089,-619.04329)"
       y1="243.07001"
       x1="436.98001"
       inkscape:collect="always">
      <stop
         id="stop2320"
         style="stop-color:white"
         offset="0" />
      <stop
         id="stop2322"
         style="stop-color:white;stop-opacity:0"
         offset="1" />
    </linearGradient>
    <linearGradient
       id="linearGradient30486"
       y2="382.82999"
       gradientUnits="userSpaceOnUse"
       x2="423.07001"
       y1="477.48999"
       x1="448.42999"
       inkscape:collect="always"
       gradientTransform="matrix(2.7392,1.8099e-6,-1.8099e-6,2.7392,-820.47983,-706.13075)">
      <stop
         id="stop2300"
         style="stop-color:white"
         offset="0" />
      <stop
         id="stop2302"
         style="stop-color:white;stop-opacity:0"
         offset="1" />
    </linearGradient>
  </defs>
  <sodipodi:namedview
     id="base"
     bordercolor="#666666"
     inkscape:pageshadow="2"
     inkscape:window-y="-8"
     pagecolor="#ffffff"
     inkscape:window-height="1025"
     width="500px"
     inkscape:zoom="1"
     inkscape:window-x="-8"
     height="600px"
     borderopacity="1.0"
     inkscape:current-layer="svg2"
     inkscape:cx="130.03376"
     inkscape:cy="110.68125"
     showguides="true"
     inkscape:guide-bbox="true"
     units="cm"
     inkscape:window-width="1920"
     inkscape:pageopacity="0.0"
     inkscape:document-units="px"
     showgrid="false"
     inkscape:window-maximized="1"
     fit-margin-top="0"
     fit-margin-left="0"
     fit-margin-right="0"
     fit-margin-bottom="0" />
  <metadata
     id="metadata39">
    <rdf:RDF>
      <cc:Work>
        <dc:format>image/svg+xml</dc:format>
        <dc:type
           rdf:resource="http://purl.org/dc/dcmitype/StillImage" />
        <cc:license
           rdf:resource="http://creativecommons.org/publicdomain/zero/1.0/" />
        <dc:publisher>
          <cc:Agent
             rdf:about="http://openclipart.org/">
            <dc:title>OpenClipart</dc:title>
          </cc:Agent>
        </dc:publisher>
        <dc:title>Milk Carton</dc:title>
        <dc:date>2007-08-14T17:11:01</dc:date>
        <dc:description />
        <dc:source>https://openclipart.org/detail/4810</dc:source>
        <dc:creator>
          <cc:Agent>
            <dc:title>jonata</dc:title>
          </cc:Agent>
        </dc:creator>
        <dc:subject>
          <rdf:Bag>
            <rdf:li>box</rdf:li>
            <rdf:li>cartoon blackborder</rdf:li>
            <rdf:li>milk</rdf:li>
          </rdf:Bag>
        </dc:subject>
      </cc:Work>
      <cc:License
         rdf:about="http://creativecommons.org/publicdomain/zero/1.0/">
        <cc:permits
           rdf:resource="http://creativecommons.org/ns#Reproduction" />
        <cc:permits
           rdf:resource="http://creativecommons.org/ns#Distribution" />
        <cc:permits
           rdf:resource="http://creativecommons.org/ns#DerivativeWorks" />
      </cc:License>
    </rdf:RDF>
  </metadata>
  <g
     id="g4717"
     transform="matrix(0.49067771,0,0,0.49067771,-14.983431,-28.797232)">
    <path
       inkscape:connector-curvature="0"
       d="m 378.30641,58.71502 c -1.67102,0.07899 -3.3678,0.289578 -5.39838,1.053067 -55.34819,20.851101 -110.77299,36.252493 -165.5809,44.440393 -9.35772,1.42153 -15.81013,10.18823 -14.83308,19.50838 0.87406,8.71431 0.10279,12.03144 -0.10286,20.92987 -16.09296,21.40404 -33.57366,41.64963 -56.11882,59.55227 -0.18057,0.15802 -0.1029,0.0799 -0.30885,0.26335 -0.95114,0.78983 -1.3881,1.3162 -1.31097,1.23708 -0.92544,0.94785 -1.38796,1.65869 -1.49096,1.81665 -0.0274,0.0274 -0.54037,0.57928 -1.2339,1.81676 -0.79727,1.47423 -0.90009,2.02709 -0.56579,1.31621 0.35985,-0.78996 0,-0.42132 -0.64269,1.4216 -0.0797,0.15795 -0.20534,0.39523 -0.25703,0.57934 -0.51419,1.65845 -0.46297,2.02709 -0.15412,0.89526 0,-0.0274 -0.15417,0.23677 -0.25706,0.76319 0.10289,-0.52642 -0.0274,-0.1315 -0.23171,1.55334 -0.28219,2.2381 -0.23138,2.29077 0,0.15796 -0.2059,1.76416 -0.103,2.44834 -0.103,2.1589 v 0.0803 c 0,-0.57909 -0.1029,-0.13168 0,1.23755 4.88448,55.68206 5.29591,257.34807 0.10278,309.21268 -0.0274,0.0274 -0.0798,0.0538 -0.103,0.0803 -0.82218,8.87189 5.11618,17.42822 13.85644,19.03436 38.14973,7.00292 69.43557,14.50644 114.93749,31.75064 5.16729,1.94847 10.38569,0.0274 12.80248,-0.89505 55.86174,-20.42977 111.74916,-36.09461 167.20016,-45.59857 8.94595,-1.47416 15.39863,-9.87248 14.52445,-19.00816 -4.8326,-52.54909 -5.21855,-253.84703 0.0802,-309.21309 0.23162,-2.60637 -0.28288,-5.10764 -0.97676,-7.18738 h 0.0794 c -0.0274,-0.0799 -0.15443,-0.23678 -0.1802,-0.34211 0,-0.0274 0.0274,-0.10534 0,-0.15801 -0.20581,-0.71084 -0.51413,-1.52688 -1.13089,-2.73819 -0.0802,-0.13148 -0.18017,-0.26329 -0.25713,-0.39479 -0.0539,-0.10515 -0.0274,0 -0.0798,-0.0802 -0.0535,-0.0803 -0.17959,-0.36866 -0.25703,-0.50013 -0.15422,-0.28983 -0.30835,-0.52655 -0.64245,-1.00062 -16.86398,-23.8261 -42.05718,-65.87053 -53.4967,-93.2246 -1.15694,-7.766528 -0.18033,-11.847264 0.5655,-21.325042 0.41113,-5.00215 -1.31121,-10.083295 -4.91027,-13.82178 -3.49594,-3.633151 -8.38043,-5.660346 -13.5218,-5.370732 z"
       style="fill:#000000;stroke:none;stroke-width:2.60153484"
       sodipodi:nodetypes="ccccccssssssssssssscccssccccccsssssssccsc"
       id="path3290" />
    <path
       inkscape:connector-curvature="0"
       d="m 381.91889,62.98262 c -0.84915,0.05478 -1.6983,0.219135 -2.49267,0.520447 -57.49582,21.447898 -115.29295,37.362613 -172.54224,45.826703 -4.41011,0.6574 -7.50541,4.68403 -7.03975,9.09414 1.20524,11.72377 -0.32871,13.42208 -0.0822,27.96723 0.0822,3.86227 2.82137,7.17671 6.60147,7.97108 72.99966,16.07915 133.09773,-5.80702 181.44464,-48.07284 2.21875,-1.94483 3.23225,-4.90317 2.68442,-7.77933 -2.0544,-11.011585 -0.63001,-16.489984 0.19176,-26.515456 0.19174,-2.410496 -0.65741,-4.766208 -2.32832,-6.491905 -1.67091,-1.725697 -4.02662,-2.657027 -6.43712,-2.520069 z"
       style="fill:#c0c0c0;stroke-width:2.73920012"
       id="path3292" />
    <path
       inkscape:connector-curvature="0"
       d="m 379.5084,66.872283 c -0.73959,0.02739 -1.45178,0.191743 -2.13658,0.43827 -49.03169,18.297824 -98.28252,31.856832 -147.09507,39.060897 -3.7527,0.57523 -6.38234,3.99923 -5.97146,7.75193 1.0135,9.99808 -0.30132,11.44986 -0.0822,23.85843 0.0548,3.28704 2.3831,6.10842 5.61536,6.79322 62.23461,13.69604 113.45766,-4.93048 154.68265,-40.97833 1.89005,-1.64352 2.76659,-4.190972 2.30093,-6.656252 -1.75308,-9.368065 -0.54783,-14.024705 0.13697,-22.5984 0.19175,-2.027008 -0.54783,-4.054017 -1.97222,-5.533185 -1.42438,-1.479169 -3.42399,-2.246147 -5.47839,-2.13658 z"
       style="fill:url(#linearGradient30476);stroke-width:2.73920012"
       id="path3294" />
    <path
       inkscape:connector-curvature="0"
       d="m 215.18374,137.62571 c -0.24653,0.0274 -0.49306,0.0548 -0.76698,0.0822 -0.10956,0.0274 -0.21913,0.0822 -0.3287,0.0822 -2.35571,0.3561 -4.87578,0.71219 -7.03974,1.04089 -2.13658,0.32871 -4.08141,1.47917 -5.36884,3.25965 -17.83221,23.96799 -37.47229,46.78551 -63.27556,67.11036 -2.27354,1.80787 -3.42401,4.68403 -3.04052,7.56019 0.41088,2.90355 2.32832,5.36883 5.01273,6.46451 35.55481,14.54518 67.35691,23.00933 103.24043,29.28212 1.34221,0.21913 2.7392,0.10957 4.02662,-0.3561 5.04013,-1.64351 10.16244,-3.28703 15.47649,-5.12229 2.43789,-0.84915 4.32794,-2.76659 5.1497,-5.20448 0.79437,-2.41049 0.41088,-5.09491 -1.04089,-7.20409 -17.0652,-25.17326 -36.02044,-58.70108 -46.97723,-82.01168 3.01312,-2.08179 4.30055,-5.91667 3.12269,-9.39546 -1.17785,-3.47878 -4.51967,-5.75232 -8.1902,-5.58797 z"
       style="fill:#959595;stroke-width:2.73920012"
       id="path3296" />
    <path
       inkscape:connector-curvature="0"
       d="m 246.02711,165.89427 c -0.35609,-0.0822 -0.6848,-0.16435 -1.04089,-0.21913 -0.16435,-0.0274 -0.30131,-0.0274 -0.46567,-0.0548 -3.17747,-0.57523 -6.54668,-1.20525 -9.45023,-1.7257 -2.90356,-0.52045 -5.5058,-0.13696 -7.25889,1.12307 -23.96801,16.95563 -50.4013,32.04861 -85.13436,42.18362 -3.0679,0.93133 -4.62925,3.34182 -4.08141,6.40973 0.54784,3.04051 3.12268,6.24538 6.73842,8.40935 47.82642,28.54249 90.6401,49.55218 138.93218,69.93186 1.80787,0.76698 3.67053,1.17786 5.42362,1.26004 6.79321,0.32871 13.66861,0.68481 20.84531,0.95873 3.25965,0.10957 5.8071,-1.06828 6.90279,-3.17746 1.09568,-2.10919 0.57523,-4.93056 -1.3696,-7.61498 -22.98187,-31.9117 -48.48379,-72.89015 -63.24806,-100.52868 4.08141,-0.87654 5.77971,-4.21837 4.21837,-8.16282 -1.58873,-3.94445 -6.08102,-7.5328 -11.01158,-8.79284 z"
       style="fill:#b6b6b6;stroke-width:2.73920012"
       id="path3298" />
    <path
       inkscape:connector-curvature="0"
       d="m 246.02711,165.89427 c -0.35609,-0.0822 -0.6848,-0.16435 -1.04089,-0.21913 -0.16435,-0.0274 -0.30131,-0.0274 -0.46567,-0.0548 -3.17747,-0.57523 -6.54668,-1.20525 -9.45023,-1.7257 -2.90356,-0.52045 -5.5058,-0.13696 -7.25889,1.12307 -23.96801,16.95563 -50.4013,32.04861 -85.13436,42.18362 -3.0679,0.93133 -4.62925,3.34182 -4.08141,6.40973 0.54784,3.04051 3.12268,6.24538 6.73842,8.40935 47.82642,28.54249 90.6401,49.55218 138.93218,69.93186 1.80787,0.76698 3.67053,1.17786 5.42362,1.26004 6.79321,0.32871 13.66861,0.68481 20.84531,0.95873 3.25965,0.10957 5.8071,-1.06828 6.90279,-3.17746 1.09568,-2.10919 0.57523,-4.93056 -1.3696,-7.61498 -22.98187,-31.9117 -48.48379,-72.89015 -63.24806,-100.52868 4.08141,-0.87654 5.77971,-4.21837 4.21837,-8.16282 -1.58873,-3.94445 -6.08102,-7.5328 -11.01158,-8.79284 z"
       style="fill:url(#linearGradient30478);stroke-width:2.73920012"
       id="path3300" />
    <path
       inkscape:connector-curvature="0"
       d="m 246.02711,165.89427 c -0.35609,-0.0822 -0.6848,-0.16435 -1.04089,-0.21913 -0.16435,-0.0274 -0.30131,-0.0274 -0.46567,-0.0548 -3.17747,-0.57523 -6.54668,-1.20525 -9.45023,-1.7257 -2.90356,-0.52045 -5.5058,-0.13696 -7.25889,1.12307 -23.96801,16.95563 -50.4013,32.04861 -85.13436,42.18362 -3.0679,0.93133 -4.62925,3.34182 -4.08141,6.40973 0.54784,3.04051 3.12268,6.24538 6.73842,8.40935 47.82642,28.54249 90.6401,49.55218 138.93218,69.93186 1.80787,0.76698 3.67053,1.17786 5.42362,1.26004 6.79321,0.32871 13.66861,0.68481 20.84531,0.95873 3.25965,0.10957 5.8071,-1.06828 6.90279,-3.17746 1.09568,-2.10919 0.57523,-4.93056 -1.3696,-7.61498 -22.98187,-31.9117 -48.48379,-72.89015 -63.24806,-100.52868 4.08141,-0.87654 5.77971,-4.21837 4.21837,-8.16282 -1.58873,-3.94445 -6.08102,-7.5328 -11.01158,-8.79284 z"
       style="fill:url(#linearGradient30480);stroke-width:2.73920012"
       id="path3302" />
    <path
       inkscape:connector-curvature="0"
       d="m 142.59489,207.39309 c -4.4375,0.49305 -7.66976,4.4375 -7.25888,8.90239 5.17705,58.70106 5.61519,261.84013 -2.1e-4,317.14458 -0.41088,4.16358 2.41049,7.97107 6.4919,8.82023 36.54092,7.39586 75.46495,15.94219 119.67562,31.66523 2.62964,0.90393 5.53319,0.43827 7.72455,-1.28742 2.21875,-1.6983 3.39661,-4.41011 3.15008,-7.1767 -5.20444,-58.70106 -5.61518,-261.75796 2.1e-4,-317.0624 0.46567,-4.38272 -2.60223,-8.32717 -6.93017,-8.98458 -43.4711,-6.46455 -78.31371,-14.84652 -118.82647,-31.41871 -1.26003,-0.54784 -2.65703,-0.73958 -4.02663,-0.60262 z"
       style="fill:#c0c0c0;stroke-width:2.73920012"
       id="path3304" />
    <path
       inkscape:connector-curvature="0"
       d="m 149.08678,237.74343 c -3.97184,0.43827 -6.8754,3.97183 -6.5193,7.97106 4.6566,52.48308 5.01258,234.14682 -1.9e-4,283.61677 -0.3561,3.72531 2.16396,7.12192 5.83449,7.8889 32.65126,6.62889 67.46649,14.24389 107.02053,28.3234 2.32832,0.82176 4.93056,0.38349 6.90278,-1.15046 1.97223,-1.53395 3.01312,-3.94444 2.79399,-6.43712 -4.62921,-52.48307 -5.01258,-234.06464 1.9e-4,-283.53459 0.43827,-3.91705 -2.30093,-7.45062 -6.19059,-8.05325 -38.86924,-5.77974 -70.01394,-13.25778 -106.25355,-28.07687 -1.12307,-0.49306 -2.3831,-0.6848 -3.58835,-0.54784 z"
       style="fill:url(#linearGradient30482);stroke-width:2.73920012"
       id="path3306" />
    <path
       inkscape:connector-curvature="0"
       d="m 382.63107,92.346845 c -1.09568,0.05478 -2.16397,0.301311 -3.17748,0.766974 -44.45723,20.352231 -120.22351,36.266931 -172.73398,46.128011 -2.46528,0.46567 -4.57446,1.99962 -5.75232,4.19097 -1.17786,2.21876 -1.31482,4.821 -0.32871,7.12192 11.61419,27.06331 37.77352,71.93142 58.37229,100.99435 0.38348,0.54784 0.82175,1.04089 1.28742,1.47917 27.20024,23.44757 61.96068,27.529 95.18719,17.53094 33.25389,-9.97067 65.57647,-33.44559 91.24279,-65.30247 2.32832,-2.87616 2.4105,-6.93017 0.27393,-9.94329 -17.96914,-25.17326 -44.375,-68.5896 -56.59181,-97.926442 -1.28742,-3.122689 -4.38272,-5.122307 -7.77932,-5.040133 z"
       style="fill:#c7c7c7;stroke-width:2.73920012"
       id="path3308" />
    <path
       inkscape:connector-curvature="0"
       d="m 381.39842,101.30403 c -0.98611,0.0548 -1.94483,0.27392 -2.84877,0.71219 -40.12929,18.35261 -108.47234,32.70597 -155.83311,41.60834 -2.21876,0.41088 -4.1362,1.80787 -5.20449,3.7801 -1.06829,1.99961 -1.17785,4.35532 -0.30131,6.40972 10.49112,24.43367 34.0756,64.91907 52.67475,91.13322 0.32871,0.49306 0.71219,0.93133 1.15047,1.31482 24.54321,21.17403 55.90705,24.84458 85.87391,15.83263 29.99424,-9.01195 59.16674,-30.15855 82.34039,-58.92014 2.08179,-2.60223 2.16397,-6.24537 0.21914,-8.95718 -16.21605,-22.70798 -40.01967,-61.87855 -51.03124,-88.33923 -1.17785,-2.82138 -3.97184,-4.62925 -7.03974,-4.57447 z"
       style="fill:url(#linearGradient30484);stroke-width:2.73920012"
       id="path3310" />
    <path
       inkscape:connector-curvature="0"
       d="m 251.91627,359.09005 c -3.45145,79.24506 -4.46501,172.43264 -2.13672,210.9184 0.16435,2.52007 1.50656,4.7936 3.58835,6.13581 2.10918,1.3696 4.7936,1.7257 7.20409,0.87655 l 7.17671,-2.73919 c -2.3831,0.84915 -5.04013,0.57523 -7.1767,-0.76698 -2.16397,-1.36961 -3.53357,-3.64314 -3.7801,-6.16321 -3.56093,-38.02009 -5.69745,-129.83808 -4.87563,-208.26138 z"
       style="fill:#000000;stroke-width:2.73920012"
       sodipodi:nodetypes="ccsccscc"
       id="path3312" />
    <path
       inkscape:connector-curvature="0"
       d="m 440.23638,192.32768 c -0.87655,0 -1.75309,0.13696 -2.57485,0.43827 -57.98888,20.98224 -116.22428,37.25305 -174.02141,47.05934 -3.53357,0.63002 -6.27277,3.45139 -6.76583,7.03974 -7.75197,61.13894 -5.77988,259.67616 -0.0824,320.4864 0.24653,2.52007 1.64352,4.76621 3.7801,6.13581 2.13657,1.34221 4.7936,1.64353 7.1767,0.79438 57.98888,-21.00963 116.33385,-37.19826 174.10358,-47.00456 4.27316,-0.6848 7.28628,-4.60185 6.84801,-8.9024 -5.14966,-55.68793 -5.64258,-258.44352 2.1e-4,-317.0624 0.24653,-2.35571 -0.57523,-4.68403 -2.19136,-6.40972 -1.61612,-1.7257 -3.91705,-2.65703 -6.27276,-2.57486 z"
       style="fill:#dcdcdc;stroke-width:2.73920012"
       id="path3314" />
    <path
       inkscape:connector-curvature="0"
       d="m 433.22401,212.73472 c -0.82176,0 -1.61613,0.13696 -2.3831,0.38348 -53.44181,19.36611 -107.15753,34.37689 -160.43498,43.41622 -3.28704,0.54784 -5.8071,3.17747 -6.24538,6.46451 -7.14935,56.40012 -5.34159,239.40607 -0.0824,295.4775 0.24653,2.32832 1.53395,4.41011 3.50617,5.67015 1.97223,1.23264 4.41012,1.50656 6.60148,0.71219 53.46919,-19.33871 107.2397,-34.26732 160.51714,-43.30664 3.94445,-0.65741 6.71105,-4.24576 6.32756,-8.2176 -4.76617,-51.33261 -5.20432,-238.25562 2e-4,-292.32742 0.19174,-2.16397 -0.54784,-4.32794 -2.02701,-5.91668 -1.50656,-1.56134 -3.61574,-2.43789 -5.77971,-2.35571 z"
       style="fill:url(#linearGradient30486);stroke-width:2.73920012"
       id="path3316" />
  </g>
</svg>
