<?xml version="1.0" encoding="UTF-8" standalone="no"?>
<svg
   xmlns:dc="http://purl.org/dc/elements/1.1/"
   xmlns:cc="http://creativecommons.org/ns#"
   xmlns:rdf="http://www.w3.org/1999/02/22-rdf-syntax-ns#"
   xmlns:svg="http://www.w3.org/2000/svg"
   xmlns="http://www.w3.org/2000/svg"
   xmlns:sodipodi="http://sodipodi.sourceforge.net/DTD/sodipodi-0.dtd"
   xmlns:inkscape="http://www.inkscape.org/namespaces/inkscape"
   version="1.1"
   x="0"
   y="0"
   width="256"
   height="256"
   viewBox="0 0 256.00002 256.00001"
   id="svg286"
   sodipodi:docname="soda_can_grape.svg"
   inkscape:version="0.92.4 (5da689c313, 2019-01-14)">
  <title
     id="title915">Grape Soda</title>
  <metadata
     id="metadata292">
    <rdf:RDF>
      <cc:Work
         rdf:about="">
        <dc:format>image/svg+xml</dc:format>
        <dc:type
           rdf:resource="http://purl.org/dc/dcmitype/StillImage" />
        <dc:title>Grape Soda</dc:title>
        <cc:license
           rdf:resource="http://creativecommons.org/publicdomain/zero/1.0/" />
        <dc:source>https://openclipart.org/detail/285219</dc:source>
        <dc:creator>
          <cc:Agent>
            <dc:title>oksmith</dc:title>
          </cc:Agent>
        </dc:creator>
      </cc:Work>
      <cc:License
         rdf:about="http://creativecommons.org/publicdomain/zero/1.0/">
        <cc:permits
           rdf:resource="http://creativecommons.org/ns#Reproduction" />
        <cc:permits
           rdf:resource="http://creativecommons.org/ns#Distribution" />
        <cc:permits
           rdf:resource="http://creativecommons.org/ns#DerivativeWorks" />
      </cc:License>
    </rdf:RDF>
  </metadata>
  <defs
     id="defs290" />
  <sodipodi:namedview
     pagecolor="#ffffff"
     bordercolor="#666666"
     borderopacity="1"
     objecttolerance="10"
     gridtolerance="10"
     guidetolerance="10"
     inkscape:pageopacity="0"
     inkscape:pageshadow="2"
     inkscape:window-width="1920"
     inkscape:window-height="1025"
     id="namedview288"
     showgrid="false"
     inkscape:zoom="0.94258169"
     inkscape:cx="-103.31793"
     inkscape:cy="13.157977"
     inkscape:window-x="-8"
     inkscape:window-y="-8"
     inkscape:window-maximized="1"
     inkscape:current-layer="svg286"
     fit-margin-top="0"
     fit-margin-left="0"
     fit-margin-right="0"
     fit-margin-bottom="0" />
  <g
     id="g1796"
     transform="matrix(1.0414844,0,0,1.0414844,-279.01991,5.0134e-6)">
    <path
       d="m 390.88,244.003 v -1.872 c -15.84,0 -30.528,-3.096 -41.039,-7.992 -5.256,-2.448 -9.504,-5.256 -12.312,-8.352 -1.44,-1.512 -2.448,-3.096 -3.168,-4.608 -0.72,-1.584 -1.08,-3.096 -1.08,-4.68 0,-1.079 0,-154.724 0,-175.604 h -1.872 l 1.8,0.432 0.36,-1.728 c 0.72,-3.168 2.664,-6.264 5.832,-9.216 4.752,-4.392 12.096,-8.279 21.023,-10.943 8.928,-2.736 19.44,-4.32 30.456,-4.32 14.688,0 28.439,2.808 38.807,7.344 5.184,2.231 9.504,4.967 12.672,7.919 3.168,2.952 5.112,6.048 5.832,9.216 v 0 l 0.144,0.72 v 0 0.216 0.216 0 c 0.072,0.576 0.144,1.08 0.144,1.44 0,0.432 0,0.864 -0.144,1.44 v 0 0.216 0.216 c 0,0 0,0.648 0,1.944 0,18.792 0.144,169.413 0.144,170.492 0,1.584 -0.36,3.096 -1.08,4.68 -1.224,2.736 -3.6,5.472 -6.912,7.92 -5.04,3.744 -12.24,7.056 -20.736,9.36 -8.568,2.304 -18.431,3.6 -28.799,3.6 v 1.872 1.872 c 16.344,0 31.463,-3.168 42.551,-8.352 5.544,-2.592 10.152,-5.616 13.464,-9.144 1.656,-1.728 2.952,-3.6 3.888,-5.616 0.936,-2.016 1.368,-4.104 1.368,-6.192 0,-1.151 -0.144,-172.436 -0.144,-172.436 h -1.872 l 1.872,0.216 v -0.216 0 c 0.072,-0.72 0.144,-1.368 0.144,-1.944 0,-0.576 -0.072,-1.224 -0.144,-1.944 v 0 -0.072 -0.072 c 0,-0.144 0,-0.288 -0.072,-0.432 l -0.216,-0.864 v 0 c -0.936,-4.104 -3.384,-7.848 -6.912,-11.16 -5.328,-4.967 -13.104,-8.927 -22.464,-11.807 -9.288,-2.808 -20.159,-4.464 -31.535,-4.464 -15.192,0 -29.376,2.88 -40.319,7.632 -5.472,2.376 -10.08,5.255 -13.68,8.567 -3.528,3.312 -6.048,7.056 -6.912,11.16 l -0.36,1.728 c 0,0.144 -0.072,0.288 -0.072,0.432 0,20.808 0,174.525 0,175.604 0,2.16 0.504,4.248 1.368,6.192 1.584,3.456 4.392,6.624 8.064,9.36 5.544,4.176 13.104,7.56 22.031,9.936 8.856,2.376 19.08,3.744 29.808,3.744 v -1.872 z"
       id="path42189"
       inkscape:connector-curvature="0"
       style="fill:#373435" />
    <path
       d="m 390.88,244.003 c -32.255,0 -59.471,-12.6 -59.471,-27.432 0,-1.079 0,-154.724 0,-175.604 l 0.36,-1.728 c 3.24,-14.544 29.159,-25.919 59.111,-25.919 29.879,0 55.871,11.375 59.111,25.919 l 0.216,0.864 v 0.216 0.216 c 0.072,0.648 0.144,1.224 0.144,1.728 0,0.504 -0.072,1.008 -0.144,1.728 v 0.216 c 0,0 0.144,171.213 0.144,172.436 0,14.904 -27.216,27.432 -59.471,27.432 z"
       id="path42191"
       inkscape:connector-curvature="0"
       style="fill:#d2d3d5" />
    <path
       d="m 452.871,36.863 2.448,0.288 c 0.072,-0.72 0.143,-1.512 0.143,-2.376 0,-0.864 -0.071,-1.656 -0.143,-2.376 l -2.448,0.288 h 2.448 v -4.032 h -2.736 v 2.448 l 2.448,-0.504 c -1.008,-4.536 -3.6,-8.639 -7.344,-12.311 C 442.071,12.816 434.007,8.496 424.215,5.4 414.423,2.304 403.048,0.576 390.808,0.576 c -16.272,0 -31.175,3.096 -42.551,8.352 -5.688,2.592 -10.584,5.76 -14.256,9.36 -3.744,3.6 -6.336,7.775 -7.344,12.311 l 2.448,0.504 v -2.448 h -0.432 -2.448 v 2.448 c 0,0 0,0.72 0,2.016 0,19.44 0,174.813 0,175.965 0,2.448 0.504,4.824 1.44,7.055 1.656,3.96 4.608,7.488 8.496,10.584 5.832,4.68 13.752,8.424 23.111,11.016 9.36,2.592 20.16,4.104 31.608,4.104 17.495,0 33.335,-3.456 45.071,-9.144 5.832,-2.88 10.656,-6.264 14.112,-10.224 1.728,-1.944 3.096,-4.104 4.032,-6.336 0.936,-2.231 1.439,-4.607 1.439,-7.055 0,-1.152 -0.143,-172.221 -0.143,-172.221 h -2.448 l 2.448,0.288 -2.448,-0.288 h -2.448 c 0,0 0,0.648 0,1.944 0,18.792 0.144,169.197 0.144,170.277 0,1.728 -0.36,3.456 -1.08,5.112 -1.224,2.951 -3.6,5.903 -6.984,8.639 -5.112,4.104 -12.456,7.632 -21.312,10.08 -8.856,2.52 -19.223,3.888 -30.239,3.888 -16.848,0 -32.04,-3.312 -42.839,-8.64 -5.4,-2.664 -9.72,-5.76 -12.528,-9 -1.44,-1.656 -2.52,-3.311 -3.24,-5.039 -0.72,-1.728 -1.08,-3.384 -1.08,-5.112 0,-1.152 0,-177.909 0,-177.909 h -2.448 v 2.448 h 0.432 2.016 l 0.432,-1.944 c 0.72,-3.384 2.736,-6.696 5.976,-9.791 4.824,-4.68 12.24,-8.856 21.456,-11.736 9.215,-2.88 20.159,-4.608 31.895,-4.608 15.624,0 29.879,3.024 40.463,7.92 5.328,2.448 9.648,5.328 12.888,8.424 3.168,3.095 5.184,6.479 5.976,9.791 l 0.432,1.944 h 2.232 v -2.448 h -2.448 v 1.728 0.144 c 0.072,0.648 0.144,1.224 0.144,1.728 0,0.576 -0.072,1.152 -0.144,1.728 v 0.144 0.144 h 2.448 z"
       id="path42193"
       inkscape:connector-curvature="0"
       style="fill:#49382f" />
    <path
       d="m 452.871,36.863 c 0.072,-0.648 0.144,-1.368 0.144,-2.088 0,-0.72 -0.072,-1.368 -0.144,-2.088 v -1.584 h -0.288 C 449.055,15.264 422.775,3.024 390.808,3.024 c -31.895,0 -58.247,12.312 -61.775,28.079 h -0.432 c 0,0 0,176.757 0,177.909 0,16.703 27.864,30.311 62.135,30.311 34.343,0 62.135,-13.536 62.135,-30.311 0,-1.152 -0.144,-172.221 -0.144,-172.221 z"
       id="path42195"
       inkscape:connector-curvature="0"
       style="fill:#874b9b" />
    <path
       d="m 453.015,34.847 c 0,17.496 -27.864,31.68 -62.135,31.68 -34.343,0 -62.135,-14.184 -62.135,-31.68 0,-17.495 27.864,-31.679 62.135,-31.679 34.343,0 62.135,14.184 62.135,31.679 z"
       id="path42197"
       inkscape:connector-curvature="0"
       style="fill:#d2d3d5" />
    <path
       d="m 450.423,38.447 h -0.648 c 0,3.672 -1.512,7.2 -4.32,10.512 -4.248,4.896 -11.52,9.216 -20.88,12.168 -9.36,3.024 -20.951,4.752 -33.767,4.752 -17.064,0 -31.895,-3.24 -42.407,-8.352 -5.256,-2.592 -9.432,-5.616 -12.24,-8.928 -2.808,-3.312 -4.32,-6.84 -4.32,-10.584 0,-3.672 1.512,-7.2 4.32,-10.44 4.248,-4.823 11.52,-8.999 20.952,-11.951 9.431,-2.952 20.951,-4.608 33.767,-4.608 17.063,0 31.895,3.096 42.407,8.064 5.256,2.52 9.432,5.471 12.24,8.711 2.808,3.24 4.32,6.768 4.32,10.512 h 0.648 0.648 c 0,-4.032 -1.656,-7.848 -4.608,-11.304 -4.464,-5.111 -11.88,-9.431 -21.456,-12.455 -9.576,-3.024 -21.167,-4.752 -34.127,-4.752 -17.208,0 -32.255,3.024 -42.983,8.064 -5.4,2.52 -9.648,5.544 -12.672,8.927 -3.024,3.384 -4.68,7.2 -4.68,11.232 0,4.032 1.656,7.92 4.68,11.376 4.464,5.184 11.952,9.576 21.456,12.744 9.575,3.096 21.239,4.968 34.127,4.968 17.207,0 32.183,-3.168 42.911,-8.352 5.328,-2.592 9.648,-5.616 12.672,-9.072 2.952,-3.456 4.608,-7.272 4.608,-11.304 h -0.648 z"
       id="path42199"
       inkscape:connector-curvature="0"
       style="fill:#373435" />
    <path
       d="m 450.423,38.447 c 0,15.48 -25.272,28.08 -59.615,28.08 -34.343,0 -59.687,-12.96 -59.687,-28.44 0,-15.479 25.344,-27.575 59.687,-27.575 34.343,0 59.615,12.456 59.615,27.935 z"
       id="path42201"
       inkscape:connector-curvature="0"
       style="fill:#e7e8e8" />
    <path
       d="m 453.015,34.847 h -3.096 c 0,1.8 -0.36,3.528 -1.008,5.256 -1.224,3.024 -3.528,6.048 -6.84,8.856 -4.968,4.176 -12.312,7.92 -21.096,10.44 -8.784,2.592 -19.079,4.104 -30.095,4.104 -16.704,0 -31.896,-3.456 -42.551,-8.928 -5.328,-2.736 -9.576,-5.904 -12.312,-9.288 -1.368,-1.656 -2.448,-3.384 -3.096,-5.112 -0.72,-1.728 -1.008,-3.456 -1.008,-5.256 0,-1.8 0.36,-3.528 1.008,-5.256 1.224,-3.024 3.528,-6.047 6.84,-8.855 4.968,-4.176 12.312,-7.92 21.095,-10.44 8.784,-2.592 19.08,-4.104 30.096,-4.104 16.703,0 31.823,3.456 42.551,8.928 5.328,2.736 9.576,5.904 12.312,9.287 1.368,1.656 2.448,3.384 3.096,5.112 0.72,1.728 1.008,3.456 1.008,5.256 h 3.096 3.095 c 0,-2.592 -0.504,-5.112 -1.511,-7.56 -1.656,-4.175 -4.68,-7.991 -8.64,-11.303 C 440.055,11.016 432.063,7.056 422.631,4.32 413.199,1.584 402.4,0 390.808,0 373.24,0 357.257,3.6 345.449,9.648 c -5.904,3.024 -10.8,6.624 -14.328,10.872 -1.728,2.088 -3.168,4.391 -4.104,6.767 -0.936,2.376 -1.512,4.968 -1.512,7.56 0,2.592 0.504,5.112 1.512,7.56 1.728,4.176 4.68,7.992 8.64,11.304 5.904,4.968 13.896,8.928 23.327,11.664 9.432,2.736 20.232,4.32 31.824,4.32 17.567,0 33.551,-3.6 45.359,-9.648 5.904,-3.024 10.8,-6.624 14.328,-10.872 1.728,-2.088 3.168,-4.392 4.104,-6.768 0.935,-2.376 1.511,-4.968 1.511,-7.56 z"
       id="path42203"
       inkscape:connector-curvature="0"
       style="fill:#373435" />
    <path
       d="m 453.015,34.847 h -1.224 c 0,4.032 -1.584,7.92 -4.608,11.592 -4.536,5.472 -12.168,10.224 -21.96,13.608 -9.792,3.384 -21.599,5.328 -34.343,5.328 -16.992,0 -32.399,-3.528 -43.415,-9.144 -5.544,-2.808 -9.936,-6.12 -12.96,-9.792 -3.024,-3.6 -4.608,-7.488 -4.608,-11.592 0,-4.032 1.584,-7.92 4.608,-11.591 4.536,-5.472 12.168,-10.224 21.96,-13.608 9.791,-3.384 21.599,-5.328 34.343,-5.328 16.991,0 32.399,3.528 43.415,9.144 5.544,2.808 9.936,6.12 12.96,9.792 3.024,3.599 4.608,7.487 4.608,11.591 h 1.224 1.224 c 0,-4.68 -1.872,-9.144 -5.184,-13.103 C 444.159,15.84 436.023,10.872 426.015,7.416 415.935,3.96 403.84,1.944 390.88,1.944 c -17.352,0 -33.047,3.6 -44.495,9.432 -5.76,2.952 -10.44,6.408 -13.68,10.368 -3.312,3.959 -5.184,8.423 -5.184,13.103 0,4.68 1.872,9.144 5.184,13.104 4.968,5.904 13.032,10.872 23.04,14.328 10.079,3.456 22.175,5.472 35.135,5.472 17.351,0 33.047,-3.6 44.495,-9.432 5.76,-2.952 10.44,-6.408 13.68,-10.368 3.312,-3.96 5.184,-8.424 5.184,-13.104 z"
       id="path42205"
       inkscape:connector-curvature="0"
       style="fill:#a9abae" />
    <g
       transform="matrix(1,0,0,0.79647086,0,7.1217899)"
       id="g1396">
      <path
         style="fill:#d2d3d5"
         inkscape:connector-curvature="0"
         id="path42207"
         d="m 432.423,35.711 c 0,6.408 -5.256,11.664 -11.664,11.664 h -24.551 c -6.408,0 -11.664,-5.256 -11.664,-11.664 v -1.44 c 0,-6.408 5.256,-11.663 11.664,-11.663 h 24.551 c 6.408,0 11.664,5.255 11.664,11.663 z" />
      <path
         style="fill:#373435"
         inkscape:connector-curvature="0"
         id="path42209"
         d="m 432.423,35.711 h -0.648 c 0,3.024 -1.224,5.832 -3.24,7.776 -2.016,2.016 -4.752,3.24 -7.776,3.24 h -24.551 c -3.024,0 -5.832,-1.224 -7.776,-3.24 -2.016,-2.016 -3.24,-4.752 -3.24,-7.776 v -1.44 c 0,-3.024 1.224,-5.832 3.24,-7.776 2.016,-2.016 4.752,-3.239 7.776,-3.239 h 24.551 c 3.024,0 5.832,1.223 7.776,3.239 2.016,2.016 3.24,4.752 3.24,7.776 v 1.44 h 0.648 0.648 v -1.44 c 0,-6.768 -5.472,-12.311 -12.312,-12.311 h -24.551 c -6.768,0 -12.312,5.471 -12.312,12.311 v 1.44 c 0,6.768 5.472,12.312 12.312,12.312 h 24.551 c 6.768,0 12.312,-5.472 12.312,-12.312 z" />
      <path
         style="fill:#373435"
         inkscape:connector-curvature="0"
         id="path42211"
         d="m 427.887,35.567 h -0.648 c 0,2.448 -1.008,4.608 -2.592,6.264 -1.584,1.584 -3.816,2.592 -6.264,2.592 h -19.871 c -2.448,0 -4.608,-1.008 -6.264,-2.592 -1.584,-1.584 -2.592,-3.816 -2.592,-6.264 v -1.152 c 0,-2.448 1.008,-4.608 2.592,-6.264 1.584,-1.584 3.816,-2.592 6.264,-2.592 h 19.871 c 2.448,0 4.608,1.008 6.264,2.592 1.584,1.584 2.592,3.816 2.592,6.264 v 1.152 h 0.648 0.648 v -1.152 c 0,-5.544 -4.536,-10.08 -10.08,-10.08 h -19.871 c -5.544,0 -10.08,4.536 -10.08,10.08 v 1.152 c 0,5.544 4.536,10.08 10.08,10.08 h 19.871 c 5.544,0 10.08,-4.536 10.08,-10.08 z" />
      <path
         style="fill:#a9abae"
         inkscape:connector-curvature="0"
         id="path42213"
         d="m 427.887,35.567 c 0,5.184 -4.248,9.432 -9.432,9.432 h -19.871 c -5.184,0 -9.432,-4.248 -9.432,-9.432 v -1.152 c 0,-5.184 4.248,-9.432 9.432,-9.432 h 19.871 c 5.184,0 9.432,4.248 9.432,9.432 z" />
      <path
         style="fill:#a0a2a5"
         inkscape:connector-curvature="0"
         id="path42215"
         d="m 403.192,35.711 c 0,6.408 -5.256,11.664 -11.664,11.664 h -24.552 c -6.408,0 -11.663,-5.256 -11.663,-11.664 v -1.44 c 0,-6.408 5.255,-11.663 11.663,-11.663 h 24.552 c 6.408,0 11.664,5.255 11.664,11.663 z" />
      <path
         style="fill:#373435"
         inkscape:connector-curvature="0"
         id="path42217"
         d="m 403.192,35.711 h -0.648 c 0,3.024 -1.224,5.832 -3.24,7.776 -2.016,2.016 -4.752,3.24 -7.776,3.24 h -24.552 c -3.024,0 -5.832,-1.224 -7.775,-3.24 -2.016,-2.016 -3.24,-4.752 -3.24,-7.776 v -1.44 c 0,-3.024 1.224,-5.832 3.24,-7.776 2.015,-2.016 4.751,-3.239 7.775,-3.239 h 24.552 c 3.024,0 5.832,1.223 7.776,3.239 2.016,2.016 3.24,4.752 3.24,7.776 v 1.44 h 0.648 0.648 v -1.44 c 0,-6.768 -5.472,-12.311 -12.312,-12.311 h -24.552 c -6.768,0 -12.311,5.471 -12.311,12.311 v 1.44 c 0,6.768 5.471,12.312 12.311,12.312 h 24.552 c 6.768,0 12.312,-5.472 12.312,-12.312 z" />
      <path
         style="fill:#fefefe"
         inkscape:connector-curvature="0"
         id="path42219"
         d="m 374.536,38.159 c 0,3.096 -3.024,5.616 -6.696,5.616 -3.672,0 -6.696,-2.52 -6.696,-5.616 v -6.048 c 0,-3.096 3.024,-5.616 6.696,-5.616 3.672,0 6.696,2.52 6.696,5.616 z" />
      <path
         style="fill:#373435"
         inkscape:connector-curvature="0"
         id="path42221"
         d="m 374.536,38.159 h -0.648 c 0,1.368 -0.648,2.592 -1.728,3.456 -1.08,0.936 -2.592,1.512 -4.32,1.512 -1.728,0 -3.24,-0.576 -4.32,-1.512 -1.08,-0.936 -1.728,-2.16 -1.728,-3.456 v -6.048 c 0,-1.368 0.648,-2.592 1.728,-3.456 1.08,-0.936 2.592,-1.512 4.32,-1.512 1.728,0 3.24,0.576 4.32,1.512 1.08,0.936 1.728,2.16 1.728,3.456 v 6.048 h 0.648 0.648 v -6.048 c 0,-1.728 -0.864,-3.312 -2.16,-4.392 -1.296,-1.08 -3.168,-1.8 -5.112,-1.8 -2.016,0 -3.816,0.648 -5.112,1.8 -1.296,1.08 -2.16,2.664 -2.16,4.392 v 6.048 c 0,1.728 0.864,3.312 2.16,4.392 1.296,1.08 3.168,1.8 5.112,1.8 2.016,0 3.816,-0.648 5.112,-1.8 1.296,-1.08 2.16,-2.664 2.16,-4.392 z" />
      <path
         style="fill:#fefefe"
         inkscape:connector-curvature="0"
         id="path42223"
         d="m 385.12,26.495 c -3.672,0 -6.696,2.52 -6.696,5.616 v 6.048 c 0,3.096 3.024,5.616 6.696,5.616 3.672,0 6.696,-2.52 6.696,-5.616 v -6.048 c 0,-3.096 -3.024,-5.616 -6.696,-5.616 z m 0,15.768 v 0 c -3.168,0 -5.76,-2.232 -5.76,-4.968 v -4.392 c 0,-2.736 2.592,-4.968 5.76,-4.968 2.808,0 5.184,1.728 5.688,4.032 0.144,0.504 -0.216,1.008 -0.72,1.152 -0.504,0.144 -1.008,-0.216 -1.152,-0.72 -0.288,-1.44 -1.944,-2.52 -3.744,-2.52 -2.088,0 -3.816,1.368 -3.816,3.024 v 4.392 c 0,1.656 1.728,3.024 3.816,3.024 2.088,0 3.816,-1.368 3.816,-3.024 0,-0.504 0.432,-0.936 1.008,-0.936 0.504,0 0.936,0.432 0.936,0.936 0,2.736 -2.592,4.968 -5.76,4.968 z" />
      <path
         style="fill:#373435"
         inkscape:connector-curvature="0"
         id="path42225"
         d="m 385.12,26.495 v -0.648 c -2.016,0 -3.816,0.648 -5.112,1.8 -1.296,1.08 -2.16,2.664 -2.16,4.392 v 6.048 c 0,1.728 0.864,3.312 2.16,4.392 1.296,1.08 3.168,1.8 5.112,1.8 2.016,0 3.816,-0.648 5.112,-1.8 1.296,-1.08 2.16,-2.664 2.16,-4.392 v -6.048 c 0,-1.728 -0.864,-3.312 -2.16,-4.392 -1.296,-1.08 -3.168,-1.8 -5.112,-1.8 v 0.648 0.648 c 1.728,0 3.24,0.576 4.32,1.512 1.08,0.936 1.728,2.16 1.728,3.456 v 6.048 c 0,1.368 -0.648,2.592 -1.728,3.456 -1.08,0.936 -2.592,1.512 -4.32,1.512 -1.728,0 -3.24,-0.576 -4.32,-1.512 -1.08,-0.936 -1.728,-2.16 -1.728,-3.456 v -6.048 c 0,-1.368 0.648,-2.592 1.728,-3.456 1.08,-0.936 2.592,-1.512 4.32,-1.512 z m 0,15.768 v 0 -0.648 c -1.44,0 -2.736,-0.504 -3.672,-1.296 -0.936,-0.792 -1.512,-1.872 -1.512,-3.024 v -4.392 c 0,-1.152 0.576,-2.232 1.512,-3.024 0.936,-0.792 2.232,-1.296 3.672,-1.296 1.296,0 2.448,0.36 3.312,1.008 0.864,0.648 1.512,1.512 1.728,2.52 v 0.072 c 0,0.144 -0.144,0.288 -0.288,0.36 H 389.8 c -0.144,0 -0.288,-0.144 -0.36,-0.288 v 0 0 c -0.216,-0.936 -0.792,-1.656 -1.584,-2.16 -0.792,-0.504 -1.728,-0.864 -2.808,-0.864 -1.224,0 -2.304,0.36 -3.096,1.008 -0.792,0.648 -1.368,1.584 -1.368,2.664 v 4.392 c 0,1.08 0.576,2.016 1.368,2.664 0.792,0.648 1.872,1.008 3.096,1.008 1.224,0 2.304,-0.36 3.096,-1.008 0.792,-0.648 1.368,-1.584 1.368,-2.664 0,-0.216 0.144,-0.36 0.36,-0.36 0.216,0 0.36,0.144 0.36,0.36 0,1.152 -0.576,2.232 -1.512,3.024 -0.936,0.792 -2.232,1.296 -3.672,1.296 v 0.648 0.648 c 1.728,0 3.312,-0.576 4.464,-1.584 1.152,-1.008 1.872,-2.448 1.872,-3.96 0,-0.864 -0.72,-1.584 -1.584,-1.584 -0.864,0 -1.584,0.72 -1.584,1.584 0,0.648 -0.288,1.224 -0.864,1.656 -0.576,0.432 -1.368,0.792 -2.304,0.792 -0.936,0 -1.728,-0.288 -2.304,-0.792 -0.576,-0.432 -0.864,-1.08 -0.864,-1.656 v -4.392 c 0,-0.648 0.288,-1.224 0.864,-1.656 0.576,-0.432 1.368,-0.792 2.304,-0.792 0.792,0 1.584,0.216 2.088,0.648 0.576,0.36 0.936,0.864 1.08,1.44 v 0 0 c 0.144,0.72 0.792,1.224 1.584,1.224 0.144,0 0.216,0 0.36,0 0.72,-0.144 1.224,-0.792 1.224,-1.584 0,-0.144 0,-0.216 0,-0.36 -0.288,-1.368 -1.08,-2.52 -2.232,-3.312 -1.152,-0.792 -2.52,-1.296 -4.032,-1.296 -1.728,0 -3.312,0.576 -4.464,1.584 -1.152,1.008 -1.944,2.448 -1.872,3.96 v 4.392 c 0,1.584 0.72,3.024 1.872,3.96 1.152,1.008 2.736,1.584 4.464,1.584 v -0.648 z" />
      <path
         style="fill:#a9abae"
         inkscape:connector-curvature="0"
         id="path42227"
         d="m 388.648,34.991 c 0,1.368 -1.08,2.448 -2.448,2.448 -1.368,0 -2.448,-1.08 -2.448,-2.448 0,-1.368 1.08,-2.448 2.448,-2.448 1.368,0 2.448,1.08 2.448,2.448 z" />
      <path
         style="fill:#373435"
         inkscape:connector-curvature="0"
         id="path42229"
         d="M 388.648,34.991 H 388 c 0,1.008 -0.792,1.8 -1.8,1.8 -1.008,0 -1.8,-0.792 -1.8,-1.8 0,-1.008 0.792,-1.8 1.8,-1.8 1.008,0 1.8,0.792 1.8,1.8 h 0.648 0.648 c 0,-1.656 -1.368,-3.024 -3.024,-3.024 -1.656,0 -3.024,1.368 -3.024,3.024 0,1.656 1.368,3.024 3.024,3.024 1.656,0 3.024,-1.368 3.024,-3.024 z" />
    </g>
    <path
       d="m 331.193,72.286 c 0,4.824 3.744,8.784 8.424,8.784 4.608,0 8.424,-3.96 8.424,-8.784 0,-4.823 -3.744,-8.783 -8.424,-8.783 -4.608,0 -8.424,3.96 -8.424,8.783 z"
       id="path42231"
       inkscape:connector-curvature="0"
       style="fill:#a771af" />
    <path
       d="m 351.497,77.398 c 0,3.672 2.808,6.624 6.264,6.624 3.455,0 6.263,-2.952 6.263,-6.624 0,-3.672 -2.808,-6.551 -6.263,-6.551 -3.456,0 -6.264,2.951 -6.264,6.551 z"
       id="path42233"
       inkscape:connector-curvature="0"
       style="fill:#a771af" />
    <path
       d="m 366.544,82.51 c 0,3.24 2.52,5.832 5.616,5.832 3.096,0 5.616,-2.592 5.616,-5.832 0,-3.24 -2.52,-5.832 -5.616,-5.832 -3.096,0 -5.616,2.592 -5.616,5.832 z"
       id="path42235"
       inkscape:connector-curvature="0"
       style="fill:#a771af" />
    <path
       d="m 380.728,86.542 c 0,2.448 1.944,4.464 4.248,4.464 2.376,0 4.248,-2.016 4.248,-4.464 0,-2.448 -1.944,-4.464 -4.248,-4.464 -2.376,0 -4.248,2.016 -4.248,4.464 z"
       id="path42237"
       inkscape:connector-curvature="0"
       style="fill:#a771af" />
    <path
       d="m 390.88,89.71 c 0,1.872 1.44,3.384 3.24,3.384 1.8,0 3.24,-1.512 3.24,-3.384 0,-1.872 -1.44,-3.384 -3.24,-3.384 -1.8,0 -3.24,1.512 -3.24,3.384 z"
       id="path42239"
       inkscape:connector-curvature="0"
       style="fill:#a771af" />
    <path
       d="m 400.096,92.158 c 0,1.296 1.008,2.376 2.232,2.376 1.224,0 2.232,-1.08 2.232,-2.376 0,-1.296 -1.008,-2.376 -2.232,-2.376 -1.224,0 -2.232,1.08 -2.232,2.376 z"
       id="path42241"
       inkscape:connector-curvature="0"
       style="fill:#a771af" />
    <path
       d="m 331.193,92.086 c 0,4.824 3.744,8.784 8.424,8.784 4.608,0 8.424,-3.96 8.424,-8.784 0,-4.824 -3.744,-8.784 -8.424,-8.784 -4.608,0 -8.424,3.96 -8.424,8.784 z"
       id="path42243"
       inkscape:connector-curvature="0"
       style="fill:#a771af" />
    <path
       d="m 351.497,97.198 c 0,3.672 2.808,6.624 6.264,6.624 3.455,0 6.263,-2.952 6.263,-6.624 0,-3.672 -2.808,-6.552 -6.263,-6.552 -3.456,0 -6.264,2.952 -6.264,6.552 z"
       id="path42245"
       inkscape:connector-curvature="0"
       style="fill:#a771af" />
    <path
       d="m 366.544,102.31 c 0,3.24 2.52,5.832 5.616,5.832 3.096,0 5.616,-2.592 5.616,-5.832 0,-3.24 -2.52,-5.832 -5.616,-5.832 -3.096,0 -5.616,2.592 -5.616,5.832 z"
       id="path42247"
       inkscape:connector-curvature="0"
       style="fill:#a771af" />
    <path
       d="m 380.728,106.342 c 0,2.448 1.944,4.464 4.248,4.464 2.376,0 4.248,-2.016 4.248,-4.464 0,-2.448 -1.944,-4.464 -4.248,-4.464 -2.376,0 -4.248,2.016 -4.248,4.464 z"
       id="path42249"
       inkscape:connector-curvature="0"
       style="fill:#a771af" />
    <path
       d="m 390.88,109.51 c 0,1.872 1.44,3.384 3.24,3.384 1.8,0 3.24,-1.512 3.24,-3.384 0,-1.872 -1.44,-3.384 -3.24,-3.384 -1.8,0 -3.24,1.512 -3.24,3.384 z"
       id="path42251"
       inkscape:connector-curvature="0"
       style="fill:#a771af" />
    <path
       d="m 400.096,112.03 c 0,1.296 1.008,2.376 2.232,2.376 1.224,0 2.232,-1.08 2.232,-2.376 0,-1.296 -1.008,-2.376 -2.232,-2.376 -1.224,0 -2.232,1.08 -2.232,2.376 z"
       id="path42253"
       inkscape:connector-curvature="0"
       style="fill:#a771af" />
    <path
       d="m 331.193,111.886 c 0,4.824 3.744,8.783 8.424,8.783 4.608,0 8.424,-3.959 8.424,-8.783 0,-4.824 -3.744,-8.784 -8.424,-8.784 -4.608,0 -8.424,3.96 -8.424,8.784 z"
       id="path42255"
       inkscape:connector-curvature="0"
       style="fill:#a771af" />
    <path
       d="m 351.497,116.998 c 0,3.671 2.808,6.623 6.264,6.623 3.455,0 6.263,-2.952 6.263,-6.623 0,-3.672 -2.808,-6.552 -6.263,-6.552 -3.456,0 -6.264,2.952 -6.264,6.552 z"
       id="path42257"
       inkscape:connector-curvature="0"
       style="fill:#a771af" />
    <path
       d="m 366.544,122.109 c 0,3.24 2.52,5.832 5.616,5.832 3.096,0 5.616,-2.592 5.616,-5.832 0,-3.239 -2.52,-5.831 -5.616,-5.831 -3.096,0 -5.616,2.592 -5.616,5.831 z"
       id="path42259"
       inkscape:connector-curvature="0"
       style="fill:#a771af" />
    <path
       d="m 380.728,126.141 c 0,2.448 1.944,4.464 4.248,4.464 2.376,0 4.248,-2.016 4.248,-4.464 0,-2.448 -1.944,-4.464 -4.248,-4.464 -2.376,0 -4.248,2.016 -4.248,4.464 z"
       id="path42261"
       inkscape:connector-curvature="0"
       style="fill:#a771af" />
    <path
       d="m 390.88,129.309 c 0,1.872 1.44,3.384 3.24,3.384 1.8,0 3.24,-1.512 3.24,-3.384 0,-1.872 -1.44,-3.384 -3.24,-3.384 -1.8,0 -3.24,1.512 -3.24,3.384 z"
       id="path42263"
       inkscape:connector-curvature="0"
       style="fill:#a771af" />
    <path
       d="m 400.096,131.829 c 0,1.296 1.008,2.376 2.232,2.376 1.224,0 2.232,-1.08 2.232,-2.376 0,-1.296 -1.008,-2.376 -2.232,-2.376 -1.224,0 -2.232,1.08 -2.232,2.376 z"
       id="path42265"
       inkscape:connector-curvature="0"
       style="fill:#a771af" />
    <path
       d="m 331.193,131.685 c 0,4.824 3.744,8.784 8.424,8.784 4.608,0 8.424,-3.96 8.424,-8.784 0,-4.824 -3.744,-8.784 -8.424,-8.784 -4.608,0 -8.424,3.96 -8.424,8.784 z"
       id="path42267"
       inkscape:connector-curvature="0"
       style="fill:#a771af" />
    <path
       d="m 351.497,136.797 c 0,3.672 2.808,6.624 6.264,6.624 3.455,0 6.263,-2.952 6.263,-6.624 0,-3.672 -2.808,-6.552 -6.263,-6.552 -3.456,0 -6.264,2.952 -6.264,6.552 z"
       id="path42269"
       inkscape:connector-curvature="0"
       style="fill:#a771af" />
    <path
       d="m 366.544,141.909 c 0,3.24 2.52,5.832 5.616,5.832 3.096,0 5.616,-2.592 5.616,-5.832 0,-3.24 -2.52,-5.832 -5.616,-5.832 -3.096,0 -5.616,2.592 -5.616,5.832 z"
       id="path42271"
       inkscape:connector-curvature="0"
       style="fill:#a771af" />
    <path
       d="m 380.728,145.941 c 0,2.448 1.944,4.464 4.248,4.464 2.376,0 4.248,-2.016 4.248,-4.464 0,-2.448 -1.944,-4.464 -4.248,-4.464 -2.376,0 -4.248,2.016 -4.248,4.464 z"
       id="path42273"
       inkscape:connector-curvature="0"
       style="fill:#a771af" />
    <path
       d="m 390.88,149.109 c 0,1.872 1.44,3.384 3.24,3.384 1.8,0 3.24,-1.512 3.24,-3.384 0,-1.872 -1.44,-3.384 -3.24,-3.384 -1.8,0 -3.24,1.512 -3.24,3.384 z"
       id="path42275"
       inkscape:connector-curvature="0"
       style="fill:#a771af" />
    <path
       d="m 400.096,151.629 c 0,1.296 1.008,2.376 2.232,2.376 1.224,0 2.232,-1.08 2.232,-2.376 0,-1.296 -1.008,-2.376 -2.232,-2.376 -1.224,0 -2.232,1.08 -2.232,2.376 z"
       id="path42277"
       inkscape:connector-curvature="0"
       style="fill:#a771af" />
    <path
       d="m 331.193,151.485 c 0,4.824 3.744,8.784 8.424,8.784 4.608,0 8.424,-3.96 8.424,-8.784 0,-4.824 -3.744,-8.784 -8.424,-8.784 -4.608,0 -8.424,3.96 -8.424,8.784 z"
       id="path42279"
       inkscape:connector-curvature="0"
       style="fill:#a771af" />
    <path
       d="m 351.497,156.597 c 0,3.672 2.808,6.552 6.264,6.552 3.455,0 6.263,-2.952 6.263,-6.552 0,-3.672 -2.808,-6.624 -6.263,-6.624 -3.456,0 -6.264,2.952 -6.264,6.624 z"
       id="path42281"
       inkscape:connector-curvature="0"
       style="fill:#a771af" />
    <path
       d="m 366.544,161.709 c 0,3.24 2.52,5.832 5.616,5.832 3.096,0 5.616,-2.592 5.616,-5.832 0,-3.24 -2.52,-5.832 -5.616,-5.832 -3.096,0 -5.616,2.592 -5.616,5.832 z"
       id="path42283"
       inkscape:connector-curvature="0"
       style="fill:#a771af" />
    <path
       d="m 380.728,165.741 c 0,2.447 1.944,4.463 4.248,4.463 2.376,0 4.248,-2.016 4.248,-4.463 0,-2.448 -1.944,-4.464 -4.248,-4.464 -2.376,0 -4.248,2.016 -4.248,4.464 z"
       id="path42285"
       inkscape:connector-curvature="0"
       style="fill:#a771af" />
    <path
       d="m 390.88,168.908 c 0,1.872 1.44,3.384 3.24,3.384 1.8,0 3.24,-1.512 3.24,-3.384 0,-1.871 -1.44,-3.383 -3.24,-3.383 -1.8,0 -3.24,1.512 -3.24,3.383 z"
       id="path42287"
       inkscape:connector-curvature="0"
       style="fill:#a771af" />
    <path
       d="m 400.096,171.428 c 0,1.296 1.008,2.376 2.232,2.376 1.224,0 2.232,-1.08 2.232,-2.376 0,-1.296 -1.008,-2.376 -2.232,-2.376 -1.224,0 -2.232,1.08 -2.232,2.376 z"
       id="path42289"
       inkscape:connector-curvature="0"
       style="fill:#a771af" />
    <path
       d="m 331.193,171.284 c 0,4.824 3.744,8.784 8.424,8.784 4.608,0 8.424,-3.96 8.424,-8.784 0,-4.823 -3.744,-8.783 -8.424,-8.783 -4.608,0 -8.424,3.96 -8.424,8.783 z"
       id="path42291"
       inkscape:connector-curvature="0"
       style="fill:#a771af" />
    <path
       d="m 351.497,176.396 c 0,3.672 2.808,6.624 6.264,6.624 3.455,0 6.263,-2.952 6.263,-6.624 0,-3.672 -2.808,-6.552 -6.263,-6.552 -3.456,0 -6.264,2.952 -6.264,6.552 z"
       id="path42293"
       inkscape:connector-curvature="0"
       style="fill:#a771af" />
    <path
       d="m 366.544,181.58 c 0,3.24 2.52,5.832 5.616,5.832 3.096,0 5.616,-2.592 5.616,-5.832 0,-3.24 -2.52,-5.832 -5.616,-5.832 -3.096,0 -5.616,2.592 -5.616,5.832 z"
       id="path42295"
       inkscape:connector-curvature="0"
       style="fill:#a771af" />
    <path
       d="m 380.728,185.54 c 0,2.448 1.944,4.464 4.248,4.464 2.376,0 4.248,-2.016 4.248,-4.464 0,-2.448 -1.944,-4.464 -4.248,-4.464 -2.376,0 -4.248,2.016 -4.248,4.464 z"
       id="path42297"
       inkscape:connector-curvature="0"
       style="fill:#a771af" />
    <path
       d="m 390.88,188.708 c 0,1.872 1.44,3.384 3.24,3.384 1.8,0 3.24,-1.512 3.24,-3.384 0,-1.872 -1.44,-3.384 -3.24,-3.384 -1.8,0 -3.24,1.512 -3.24,3.384 z"
       id="path42299"
       inkscape:connector-curvature="0"
       style="fill:#a771af" />
    <path
       d="m 400.096,191.228 c 0,1.296 1.008,2.376 2.232,2.376 1.224,0 2.232,-1.08 2.232,-2.376 0,-1.296 -1.008,-2.376 -2.232,-2.376 -1.224,0 -2.232,1.08 -2.232,2.376 z"
       id="path42301"
       inkscape:connector-curvature="0"
       style="fill:#a771af" />
    <path
       d="m 331.193,191.084 c 0,4.824 3.744,8.784 8.424,8.784 4.608,0 8.424,-3.96 8.424,-8.784 0,-4.824 -3.744,-8.784 -8.424,-8.784 -4.608,0 -8.424,3.96 -8.424,8.784 z"
       id="path42303"
       inkscape:connector-curvature="0"
       style="fill:#a771af" />
    <path
       d="m 351.497,196.196 c 0,3.672 2.808,6.552 6.264,6.552 3.455,0 6.263,-2.952 6.263,-6.552 0,-3.672 -2.808,-6.624 -6.263,-6.624 -3.456,0 -6.264,2.952 -6.264,6.624 z"
       id="path42305"
       inkscape:connector-curvature="0"
       style="fill:#a771af" />
    <path
       d="m 366.544,201.38 c 0,3.24 2.52,5.832 5.616,5.832 3.096,0 5.616,-2.592 5.616,-5.832 0,-3.24 -2.52,-5.832 -5.616,-5.832 -3.096,0 -5.616,2.592 -5.616,5.832 z"
       id="path42307"
       inkscape:connector-curvature="0"
       style="fill:#a771af" />
    <path
       d="m 380.728,205.34 c 0,2.448 1.944,4.464 4.248,4.464 2.376,0 4.248,-2.016 4.248,-4.464 0,-2.448 -1.944,-4.464 -4.248,-4.464 -2.376,0 -4.248,2.016 -4.248,4.464 z"
       id="path42309"
       inkscape:connector-curvature="0"
       style="fill:#a771af" />
    <path
       d="m 390.88,208.508 c 0,1.872 1.44,3.384 3.24,3.384 1.8,0 3.24,-1.512 3.24,-3.384 0,-1.872 -1.44,-3.384 -3.24,-3.384 -1.8,0 -3.24,1.512 -3.24,3.384 z"
       id="path42311"
       inkscape:connector-curvature="0"
       style="fill:#a771af" />
    <path
       d="m 400.096,211.028 c 0,1.296 1.008,2.376 2.232,2.376 1.224,0 2.232,-1.08 2.232,-2.376 0,-1.296 -1.008,-2.376 -2.232,-2.376 -1.224,0 -2.232,1.08 -2.232,2.376 z"
       id="path42313"
       inkscape:connector-curvature="0"
       style="fill:#a771af" />
    <path
       d="m 331.193,210.884 c 0,4.823 3.744,8.783 8.424,8.783 4.608,0 8.424,-3.96 8.424,-8.783 0,-4.824 -3.744,-8.784 -8.424,-8.784 -4.608,0 -8.424,3.96 -8.424,8.784 z"
       id="path42315"
       inkscape:connector-curvature="0"
       style="fill:#a771af" />
    <path
       d="m 351.497,215.995 c 0,3.672 2.808,6.552 6.264,6.552 3.455,0 6.263,-2.952 6.263,-6.552 0,-3.671 -2.808,-6.551 -6.263,-6.551 -3.456,0 -6.264,2.952 -6.264,6.551 z"
       id="path42317"
       inkscape:connector-curvature="0"
       style="fill:#a771af" />
    <path
       d="m 366.544,221.179 c 0,3.24 2.52,5.832 5.616,5.832 3.096,0 5.616,-2.592 5.616,-5.832 0,-3.24 -2.52,-5.831 -5.616,-5.831 -3.096,0 -5.616,2.591 -5.616,5.831 z"
       id="path42319"
       inkscape:connector-curvature="0"
       style="fill:#a771af" />
    <path
       d="m 380.728,225.139 c 0,2.448 1.944,4.464 4.248,4.464 2.376,0 4.248,-2.016 4.248,-4.464 0,-2.448 -1.944,-4.464 -4.248,-4.464 -2.376,0 -4.248,2.016 -4.248,4.464 z"
       id="path42321"
       inkscape:connector-curvature="0"
       style="fill:#a771af" />
    <path
       d="m 390.88,228.307 c 0,1.872 1.44,3.384 3.24,3.384 1.8,0 3.24,-1.512 3.24,-3.384 0,-1.872 -1.44,-3.384 -3.24,-3.384 -1.8,0 -3.24,1.512 -3.24,3.384 z"
       id="path42323"
       inkscape:connector-curvature="0"
       style="fill:#a771af" />
    <path
       d="m 400.096,230.827 c 0,1.296 1.008,2.376 2.232,2.376 1.224,0 2.232,-1.08 2.232,-2.376 0,-1.296 -1.008,-2.376 -2.232,-2.376 -1.224,0 -2.232,1.08 -2.232,2.376 z"
       id="path42325"
       inkscape:connector-curvature="0"
       style="fill:#a771af" />
    <path
       d="m 344.513,107.566 c -1.728,2.52 -4.824,7.272 -7.488,7.632 -3.672,0.504 -6.048,-2.16 -7.056,-5.688 -1.224,-4.392 0.216,-10.584 2.016,-14.328 2.016,-4.752 8.208,-14.184 20.304,-19.224 0.864,-0.36 1.368,-0.288 2.088,0.36 0.72,0.648 1.44,2.016 1.728,3.024 0.36,1.296 -0.36,2.376 -1.08,3.24 -4.968,6.336 -5.832,6.624 -6.264,6.696 -0.36,0.072 -0.648,-0.144 -0.792,-0.576 -0.144,-0.504 0.576,-1.44 0.792,-1.8 l 1.44,-2.232 -0.144,-0.072 c -12.312,8.208 -16.92,22.824 -15.696,25.272 0.504,1.008 1.152,1.728 2.088,1.512 0.936,-0.288 2.088,-1.584 2.664,-2.448 l 12.6,-18.72 c 0.216,-0.36 0.432,-0.864 0.864,-0.936 0.432,-0.144 1.512,0.216 1.944,0.36 0.576,0.144 1.368,0.36 1.512,1.08 0.144,0.504 -0.072,1.512 -0.144,1.944 -0.72,4.968 -2.304,10.152 -4.104,17.28 l 0.144,0.072 7.92,-10.008 c 0.503,2.232 0.935,2.592 -3.888,8.928 l -5.76,7.56 c -1.08,3.383 -5.544,13.607 -8.64,14.399 -1.152,0.288 -1.944,-0.576 -2.304,-1.656 -1.08,-3.384 1.656,-9 5.472,-12.671 1.656,-4.752 3.168,-9.576 3.744,-14.544 l -0.144,-0.072 -3.888,5.472 z"
       id="path42327"
       inkscape:connector-curvature="0"
       style="fill:#fefefe" />
    <path
       d="m 362.944,98.71 c -0.792,3.24 -2.304,5.112 -3.672,7.776 l -0.792,-2.16 c 0.864,-1.368 1.512,-2.952 1.944,-4.536 -1.007,0.144 -1.368,-0.144 -1.656,-1.224 -1.007,-3.672 2.592,-8.568 3.672,-8.856 0.432,-0.144 0.936,0.144 1.08,0.648 0.144,0.504 0.144,1.008 0.072,1.512 4.032,-1.872 6.408,-3.168 6.984,-2.664 0.936,0.792 1.512,1.512 1.872,2.376 0.432,1.584 -0.216,2.592 -1.008,3.816 -0.936,1.656 -2.448,4.752 -1.944,6.768 0.216,0.792 1.152,1.224 1.8,1.008 1.944,-0.576 3.888,-4.608 5.04,-6.336 l 0.864,1.8 c -1.08,2.664 -4.752,9.72 -7.344,10.44 -1.872,0.504 -3.6,-1.08 -4.176,-3.024 -0.936,-3.456 0.648,-6.768 1.8,-9.72 l -0.144,-0.072 z"
       id="path42329"
       inkscape:connector-curvature="0"
       style="fill:#fefefe" />
    <path
       d="m 384.976,100.654 c -0.648,1.008 -2.808,4.464 -3.816,4.752 -1.296,0.36 -4.824,-2.232 -5.616,-4.896 -1.944,-6.264 7.992,-16.056 13.176,-17.64 2.088,-0.648 3.456,1.008 3.6,1.584 0.144,0.576 -0.864,1.44 -1.224,1.728 1.008,0.144 1.584,0.576 1.872,1.728 0.432,1.656 -2.52,6.264 -1.8,8.64 0.216,0.864 1.008,1.008 1.728,0.792 1.872,-0.504 3.744,-3.816 5.328,-5.832 l 0.864,1.8 c -1.224,3.024 -5.832,10.152 -7.992,10.728 -1.512,0.432 -2.52,-0.576 -2.952,-2.088 -0.432,-1.656 -0.144,-4.608 0.072,-6.12 l -0.144,-0.072 z m -5.832,0.216 v 0 c 0.144,0.216 0.576,1.08 1.152,0.792 0.864,-0.432 2.304,-0.72 8.424,-13.32 l -0.144,-0.072 c -9.72,6.696 -10.152,10.152 -9.504,12.672 z"
       id="path42331"
       inkscape:connector-curvature="0"
       style="fill:#fefefe" />
    <path
       d="m 401.752,108.79 c -0.144,0.864 -0.576,2.448 -1.44,2.664 -1.008,0.288 -1.728,-1.008 -1.944,-1.944 -0.72,-2.52 -0.432,-5.328 0.576,-8.784 1.152,-3.888 2.232,-8.64 3.672,-15.048 l -0.144,-0.072 -5.04,9.648 -0.864,-2.304 7.992,-17.784 c 0.72,-1.656 1.152,-3.312 2.808,-3.815 0.648,-0.144 2.159,-0.36 2.447,0.647 0.288,1.152 -1.368,4.176 -1.871,5.256 -1.008,2.232 -1.944,4.536 -2.16,7.056 l 0.144,0.072 c 1.512,-2.088 5.111,-6.768 7.559,-7.416 1.224,-0.36 2.232,0.504 2.592,1.872 0.792,2.808 -0.504,6.912 -4.176,13.32 3.96,-0.792 4.68,-1.872 8.208,-7.848 l 0.936,2.232 c -2.304,4.608 -5.4,9.36 -10.296,10.728 -1.224,0.36 -2.231,0.216 -3.527,-0.144 -0.648,0.36 -1.296,0.648 -2.016,0.864 -0.648,0.144 -1.296,0.216 -1.872,0.216 l -1.656,10.512 z m 9.359,-21.96 v 0 c 0.288,-0.864 0.72,-1.872 0.432,-2.808 -0.072,-0.36 -0.36,-0.648 -0.72,-0.576 -0.72,0.216 -2.448,2.376 -2.952,3.024 -1.295,1.8 -2.087,3.888 -2.807,6.048 1.296,-0.504 2.592,-0.648 3.959,-0.576 l 2.016,-5.184 z"
       id="path42333"
       inkscape:connector-curvature="0"
       style="fill:#fefefe" />
    <path
       d="m 437.391,81.646 c -1.728,4.392 -5.4,10.512 -9.864,11.808 -3.312,0.936 -5.76,-1.944 -6.768,-5.256 -2.016,-6.552 2.664,-15.192 8.496,-16.775 1.44,-0.432 3.384,-0.504 3.96,1.511 0.72,2.448 -0.504,6.84 -8.28,12.456 l 0.216,1.152 c 0.432,1.944 2.088,2.232 3.528,1.8 3.24,-0.864 5.976,-5.688 7.776,-8.424 l 0.936,1.8 z m -7.92,-6.552 v 0 c -0.072,-0.36 -0.432,-0.576 -0.72,-0.432 -2.088,1.296 -4.032,4.464 -4.32,8.136 3.528,-2.664 5.328,-6.912 5.04,-7.704 z"
       id="path42335"
       inkscape:connector-curvature="0"
       style="fill:#fefefe" />
    <path
       d="m 452.223,76.246 1.008,1.8 c -1.872,3.888 -5.544,9.864 -9.216,10.656 -3.096,0.72 -6.984,-0.288 -8.784,-3.744 -0.216,0.36 -0.432,0.792 -0.792,0.936 -0.432,0.144 -0.936,-0.288 -1.008,-0.72 -0.216,-0.648 0.36,-1.584 0.576,-2.088 l 6.984,-12.815 c -0.36,-1.728 0,-3.528 1.656,-4.032 1.368,-0.36 1.728,0 2.304,1.368 0.72,1.872 1.872,3.384 2.52,5.615 1.152,4.176 -0.936,8.064 -3.312,10.872 3.024,-0.288 4.392,-2.232 6.12,-4.752 l 2.088,-3.096 z m -15.12,5.328 v 0 c 1.728,-0.36 3.168,0.936 4.392,2.016 2.16,-2.664 2.664,-3.672 2.016,-6.696 -0.432,-1.008 -1.008,-2.376 -1.728,-3.96 l -4.608,8.64 z"
       id="path42337"
       inkscape:connector-curvature="0"
       style="fill:#fefefe" />
    <path
       d="m 424.719,167.684 0.432,-1.871 c -0.072,0 -1.44,-0.288 -3.312,-0.288 -1.584,0 -3.672,0.216 -5.688,1.008 -0.936,0.36 -1.8,0.863 -2.592,1.439 -1.224,0.792 -2.448,1.728 -3.456,2.376 -0.504,0.36 -0.936,0.576 -1.368,0.72 -0.36,0.144 -0.648,0.216 -0.648,0.216 v 0 0.216 l 0.145,-0.144 -0.145,-0.072 v 0.216 l 0.145,-0.144 v 0 c 0,0 -0.073,-0.072 -0.145,-0.288 -0.863,-1.872 -1.367,-3.455 -1.799,-4.679 -0.36,-1.296 -0.576,-2.232 -0.792,-3.096 v 0 c -0.216,-0.576 -0.504,-1.08 -0.864,-1.584 -0.576,-0.72 -1.296,-1.368 -2.232,-1.872 -0.936,-0.504 -2.016,-0.864 -3.24,-0.864 -0.432,0 -0.864,0.072 -1.296,0.144 h -0.144 c -0.288,0 -1.008,-0.144 -1.8,-0.432 -1.224,-0.432 -2.808,-1.224 -4.392,-2.016 -1.584,-0.72 -3.168,-1.44 -4.752,-1.8 -0.72,-0.144 -1.8,-0.36 -3.024,-0.576 -1.8,-0.36 -3.888,-0.864 -5.4,-1.368 -0.72,-0.288 -1.368,-0.576 -1.656,-0.792 l -0.144,-0.144 v 0 0 l -0.432,0.36 0.576,-0.216 c -0.072,-0.072 -0.072,-0.144 -0.072,-0.144 l -0.432,0.36 0.576,-0.216 -0.936,0.432 h 1.008 c 0,-0.144 -0.072,-0.288 -0.072,-0.432 l -0.936,0.432 h 1.008 -1.008 l 0.864,0.432 c 0.072,-0.072 0.072,-0.288 0.072,-0.432 h -1.008 l 0.864,0.432 -0.504,-0.288 0.504,0.36 0.072,-0.072 -0.504,-0.288 0.504,0.36 -0.144,-0.072 0.144,0.144 v 0 l -0.144,-0.072 0.144,0.144 c 0,0 0.288,-0.288 0.936,-0.576 1.728,-0.864 3.024,-1.512 4.032,-2.088 1.512,-0.864 2.448,-1.512 3.024,-1.872 0.288,-0.144 0.504,-0.288 0.792,-0.36 0.288,-0.072 0.576,-0.144 1.008,-0.288 v 0 0 c 1.584,-0.288 2.952,-0.72 4.176,-1.08 1.224,-0.36 2.376,-0.72 3.528,-0.864 0.432,-0.072 0.648,-0.072 0.72,-0.072 h 0.072 v 0 l 0.072,-0.432 -0.072,0.432 h 0.072 l 0.072,-0.432 -0.072,0.432 0.072,-0.36 -0.072,0.36 v 0 l 0.072,-0.36 -0.072,0.36 c 0,0 0.072,0 0.144,0 0.072,0 0.288,0.072 0.432,0.072 0.36,0 0.648,-0.072 0.864,-0.144 0.288,-0.144 0.504,-0.216 0.792,-0.36 0.288,-0.144 0.72,-0.36 1.368,-0.72 1.656,-0.864 2.808,-1.44 3.456,-1.728 0.36,-0.144 0.576,-0.288 0.72,-0.288 l 0.144,-0.072 v 0 l -0.216,-0.576 0.216,0.576 v 0 l -0.216,-0.576 0.216,0.576 2.016,-0.72 -1.008,-1.944 v 0 c 0,-0.072 -0.432,-0.864 -0.864,-2.016 -0.432,-1.08 -0.792,-2.448 -0.792,-3.456 0,-0.432 0.072,-0.792 0.144,-0.936 1.08,-2.232 1.224,-4.176 1.224,-5.256 0,-0.504 -0.072,-0.792 -0.072,-0.864 l -1.872,0.216 -0.216,1.872 v 0 c 0.144,0 2.016,0.216 3.96,0.72 1.008,0.216 1.944,0.576 2.736,0.936 0.431,0.144 0.719,0.36 1.007,0.576 0.288,0.144 0.432,0.36 0.504,0.432 0.864,1.152 1.944,1.872 3.096,2.376 1.152,0.432 2.304,0.576 3.384,0.576 1.224,0 2.448,-0.144 3.528,-0.36 0.432,-0.072 1.008,-0.144 1.512,-0.144 1.08,0 2.088,0.216 2.808,0.504 0.36,0.144 0.576,0.36 0.792,0.576 0.144,0.216 0.288,0.36 0.36,0.648 0,0.144 0.072,0.36 0.072,0.576 0,0.576 -0.144,1.44 -0.504,2.376 -1.08,2.808 -4.032,6.696 -10.584,9.072 l -4.968,1.8 4.968,1.8 c 2.016,0.72 5.4,2.376 8.208,4.464 1.368,1.008 2.592,2.16 3.384,3.24 0.432,0.504 0.72,1.08 0.936,1.512 0.216,0.504 0.288,0.864 0.288,1.224 0,0.504 -0.144,1.008 -0.576,1.584 -0.432,0.648 -1.296,1.368 -2.592,2.088 l 0.936,1.655 0.432,-1.871 -0.432,1.871 0.936,1.656 c 1.656,-0.936 2.952,-1.943 3.816,-3.167 0.864,-1.152 1.368,-2.592 1.368,-3.888 0,-0.936 -0.216,-1.872 -0.576,-2.736 -0.648,-1.512 -1.584,-2.808 -2.808,-3.96 -1.8,-1.8 -3.96,-3.312 -6.12,-4.608 -2.16,-1.296 -4.248,-2.232 -5.832,-2.808 l -0.648,1.8 0.648,1.8 c 4.968,-1.8 8.352,-4.464 10.512,-7.2 1.08,-1.368 1.872,-2.736 2.304,-4.104 0.504,-1.296 0.72,-2.592 0.72,-3.744 0,-0.504 -0.072,-1.008 -0.144,-1.512 -0.216,-0.936 -0.648,-1.728 -1.224,-2.376 -0.864,-0.936 -1.944,-1.512 -3.096,-1.872 -1.08,-0.36 -2.232,-0.504 -3.384,-0.504 -0.72,0 -1.44,0.072 -2.088,0.144 -1.008,0.144 -2.016,0.288 -2.88,0.288 -0.792,0 -1.44,-0.072 -2.016,-0.288 -0.576,-0.216 -1.008,-0.504 -1.44,-1.08 -0.432,-0.576 -0.936,-0.936 -1.44,-1.296 -0.936,-0.648 -1.944,-1.08 -2.952,-1.44 -1.583,-0.504 -3.167,-0.864 -4.391,-1.08 -1.224,-0.216 -2.088,-0.288 -2.16,-0.288 l -2.376,-0.216 0.288,2.376 1.152,-0.144 -1.152,0.144 v 0 l 1.152,-0.144 -1.152,0.144 v 0 c 0,0.072 0,0.216 0,0.432 0,0.648 -0.144,2.088 -0.864,3.6 -0.432,0.864 -0.576,1.8 -0.576,2.664 0,1.8 0.576,3.528 1.008,4.896 0.504,1.368 1.008,2.304 1.008,2.304 l 1.728,-0.864 -0.648,-1.8 c -0.144,0.072 -1.44,0.504 -4.824,2.304 -0.864,0.432 -1.296,0.72 -1.584,0.864 l -0.144,0.072 v 0 0 l 0.36,0.936 -0.216,-1.008 c -0.072,0 -0.144,0.072 -0.144,0.072 l 0.36,0.936 -0.216,-1.008 0.36,1.512 v -1.584 c -0.144,0 -0.288,0 -0.36,0.072 l 0.36,1.512 v -1.584 1.512 l 0.36,-1.512 c 0,0 -0.144,-0.072 -0.36,0 v 1.512 l 0.36,-1.512 v 0.072 -0.072 0 0.072 -0.072 c -0.072,0 -0.216,-0.072 -0.36,-0.072 -0.144,0 -0.36,-0.072 -0.576,-0.072 -0.36,0 -0.792,0 -1.296,0.144 -1.512,0.216 -2.808,0.648 -4.032,1.008 -1.224,0.36 -2.448,0.72 -3.744,0.936 v 0 0 c -0.792,0.144 -1.512,0.36 -2.16,0.648 -0.504,0.216 -0.936,0.432 -1.296,0.72 -0.648,0.36 -1.296,0.792 -2.304,1.368 -1.008,0.576 -2.304,1.296 -4.104,2.16 -0.792,0.36 -1.368,0.792 -1.944,1.296 -0.288,0.288 -0.504,0.576 -0.72,0.936 -0.216,0.36 -0.288,0.792 -0.288,1.296 0,0.432 0.144,0.864 0.288,1.224 0.36,0.648 0.792,1.08 1.296,1.44 0.792,0.576 1.728,0.936 2.736,1.296 1.512,0.504 3.312,0.936 4.896,1.296 1.584,0.36 3.024,0.576 3.888,0.792 0.648,0.144 1.512,0.432 2.448,0.864 1.44,0.648 3.024,1.44 4.608,2.16 0.792,0.36 1.584,0.648 2.376,0.936 0.792,0.216 1.512,0.432 2.376,0.432 0.288,0 0.648,0 0.936,-0.072 0.144,0 0.288,-0.072 0.432,-0.072 0.576,0 1.224,0.288 1.8,0.648 0.288,0.216 0.504,0.432 0.648,0.648 0.072,0.072 0.144,0.216 0.144,0.216 l 0.072,0.072 v 0 0 c 0.144,0.576 0.36,1.656 0.792,3.096 0.432,1.439 1.008,3.239 1.944,5.255 0.288,0.72 0.792,1.296 1.44,1.8 0.648,0.432 1.44,0.648 2.087,0.648 1.08,0 2.016,-0.36 2.808,-0.792 1.224,-0.648 2.448,-1.584 3.6,-2.376 1.152,-0.792 2.232,-1.512 3.024,-1.8 1.44,-0.576 3.024,-0.72 4.32,-0.72 0.792,0 1.44,0.072 1.872,0.144 0.216,0 0.432,0.072 0.504,0.072 h 0.144 v 0 l 0.072,-0.36 -0.072,0.36 v 0 l 0.072,-0.36 -0.072,0.36 0.72,0.144 0.648,-0.36 -0.936,-1.656 z"
       id="path42339"
       inkscape:connector-curvature="0"
       style="fill:#49382f" />
    <path
       d="m 424.719,167.684 c 0,0 -4.104,-0.863 -7.92,0.576 -3.744,1.44 -8.712,7.56 -10.511,3.6 -1.8,-3.888 -2.304,-6.695 -2.664,-8.063 -0.36,-1.368 -2.736,-3.528 -5.328,-2.952 -2.592,0.576 -8.352,-3.456 -11.952,-4.248 -3.528,-0.72 -16.272,-2.736 -9.648,-5.976 6.768,-3.24 6.552,-4.248 9.36,-4.752 2.88,-0.504 5.112,-1.584 7.704,-1.944 2.664,-0.432 0.36,0.72 3.744,-1.08 3.384,-1.8 4.608,-2.232 4.608,-2.232 0,0 -2.808,-5.4 -1.44,-8.136 1.368,-2.736 1.008,-5.112 1.008,-5.112 0,0 7.631,0.72 9.575,3.384 2.016,2.664 5.328,2.304 8.208,1.872 2.88,-0.504 6.912,0.144 7.632,3.096 0.72,3.024 -1.872,10.44 -12.168,14.256 5.976,2.16 21.456,11.232 9.864,17.64 z"
       id="path42341"
       inkscape:connector-curvature="0"
       style="fill:#21b354" />
    <path
       d="m 434.151,162.573 -1.872,0.288 c 0,0.072 0.216,1.224 0.792,2.808 0.576,1.584 1.512,3.599 3.168,5.327 0.72,0.792 1.656,1.44 2.52,2.088 1.368,0.936 2.736,1.728 3.744,2.52 0.504,0.36 0.864,0.72 1.008,0.936 0.072,0.144 0.144,0.216 0.144,0.216 v 0 l 0.144,-0.072 h -0.144 v 0.072 l 0.144,-0.072 h -0.144 0.288 l -0.288,-0.072 v 0.072 h 0.288 l -0.288,-0.072 h 0.072 -0.072 v 0 h 0.072 -0.072 c 0,0 -0.072,0.072 -0.216,0.216 -1.368,1.512 -2.664,2.592 -3.744,3.384 -1.08,0.792 -1.872,1.368 -2.592,1.872 v 0 0 c -0.72,0.576 -1.224,1.296 -1.584,2.16 -0.36,0.864 -0.648,1.872 -0.648,2.952 0,1.152 0.288,2.376 1.008,3.456 0,0 0.144,0.288 0.216,0.72 0.072,0.432 0.144,1.008 0.144,1.728 0,1.008 -0.072,2.16 -0.144,3.384 -0.072,1.224 -0.144,2.448 -0.144,3.672 0,0.864 0.072,1.656 0.144,2.448 0.144,1.008 0.504,2.52 0.792,4.248 0.288,1.656 0.504,3.456 0.504,4.824 0,0.72 -0.072,1.296 -0.144,1.44 v 0 l 0.288,0.144 -0.288,-0.216 -0.072,0.072 0.288,0.144 -0.288,-0.216 0.72,0.576 -0.432,-0.864 c -0.144,0.072 -0.288,0.216 -0.288,0.288 l 0.72,0.576 -0.432,-0.864 0.504,0.936 v -1.08 c -0.144,0 -0.36,0.072 -0.504,0.144 l 0.504,0.936 v -1.08 0.576 l 0.144,-0.576 c 0,0 -0.072,0 -0.144,0 v 0.576 l 0.144,-0.576 v 0 c -0.072,0 -0.432,-0.216 -0.864,-0.648 -1.44,-1.296 -2.52,-2.232 -3.456,-2.952 -1.368,-1.08 -2.304,-1.728 -2.808,-2.16 -0.576,-0.432 -0.792,-0.648 -1.224,-1.44 v 0 c -0.864,-1.368 -1.728,-2.52 -2.52,-3.528 -0.792,-1.008 -1.512,-1.944 -2.088,-2.952 v 0 c -0.144,-0.288 -0.216,-0.432 -0.288,-0.576 -0.072,-0.072 -0.072,-0.144 -0.072,-0.144 l -0.144,0.072 0.144,-0.072 v 0 l -0.144,0.072 0.144,-0.072 -0.504,0.144 0.504,-0.072 v 0 l -0.504,0.144 0.504,-0.072 -0.288,0.072 0.288,-0.072 v 0 l -0.288,0.072 0.288,-0.072 c 0,0 0,-0.072 0,-0.216 0,-0.144 -0.072,-0.288 -0.144,-0.504 -0.144,-0.288 -0.36,-0.504 -0.432,-0.648 -0.216,-0.216 -0.36,-0.36 -0.648,-0.576 -0.288,-0.216 -0.648,-0.504 -1.152,-0.936 -1.44,-1.224 -2.304,-2.088 -2.88,-2.592 -0.288,-0.288 -0.432,-0.432 -0.576,-0.576 l -0.144,-0.144 v 0 l -0.504,0.432 0.504,-0.432 v 0 l -0.504,0.432 0.504,-0.432 -1.44,-1.656 -1.44,1.656 0.432,0.36 -0.432,-0.36 v 0 l 0.432,0.36 -0.432,-0.36 c 0,0 -0.936,1.08 -2.088,2.016 -0.576,0.504 -1.224,0.936 -1.8,1.224 -0.576,0.288 -1.152,0.432 -1.368,0.432 h -0.072 v 0 c -0.36,0 -0.648,-0.072 -1.008,-0.072 -3.023,0 -5.039,1.08 -5.183,1.224 l 0.936,1.656 1.872,-0.504 v 0 c -0.072,-0.144 -0.288,-1.08 -0.576,-2.304 -0.216,-1.224 -0.432,-2.736 -0.432,-4.032 0,-0.576 0.072,-1.08 0.144,-1.44 0.072,-0.432 0.216,-0.648 0.288,-0.792 0.719,-1.224 1.007,-2.52 1.007,-3.672 0,-1.296 -0.359,-2.52 -0.791,-3.6 -0.432,-1.08 -1.008,-2.088 -1.512,-2.952 -0.36,-0.576 -0.648,-1.224 -0.864,-1.944 -0.216,-0.72 -0.36,-1.368 -0.36,-1.944 0,-0.504 0.072,-0.864 0.216,-1.152 0.144,-0.288 0.288,-0.504 0.576,-0.648 v 0 c 0.216,-0.144 0.576,-0.288 1.08,-0.432 0.504,-0.144 1.224,-0.216 1.943,-0.216 3.024,0 7.632,1.368 12.168,6.48 l 3.528,3.96 -0.216,-5.256 c 0,-0.216 0,-0.432 0,-0.72 0,-2.592 0.504,-6.768 1.584,-10.007 0.576,-1.656 1.296,-3.096 2.016,-3.96 0.36,-0.432 0.792,-0.72 1.152,-0.936 0.36,-0.216 0.72,-0.288 1.152,-0.288 0.432,0 0.936,0.072 1.512,0.36 0.648,0.288 1.368,0.72 2.232,1.44 l 1.224,-1.512 -1.872,0.288 1.872,-0.288 1.224,-1.512 c -1.08,-0.864 -2.088,-1.512 -3.096,-1.944 -1.008,-0.432 -2.088,-0.72 -3.096,-0.72 -1.08,0 -2.088,0.288 -2.952,0.72 -1.512,0.792 -2.664,2.16 -3.456,3.6 -1.296,2.232 -2.088,4.896 -2.592,7.559 -0.504,2.664 -0.72,5.184 -0.72,7.128 0,0.288 0,0.576 0,0.792 l 1.944,-0.072 1.44,-1.296 c -5.184,-5.76 -10.8,-7.776 -14.975,-7.704 -1.08,0 -2.088,0.144 -2.952,0.36 -0.864,0.216 -1.656,0.576 -2.304,1.008 v 0 c -0.864,0.576 -1.512,1.44 -1.872,2.304 -0.36,0.864 -0.504,1.8 -0.504,2.664 0,2.16 0.792,4.176 1.728,5.832 0.504,0.864 0.936,1.656 1.296,2.448 0.36,0.792 0.504,1.512 0.504,2.16 0,0.576 -0.144,1.08 -0.504,1.728 -0.432,0.648 -0.648,1.368 -0.72,2.088 -0.144,0.72 -0.144,1.44 -0.216,2.16 0,1.8 0.288,3.6 0.576,5.04 0.288,1.44 0.576,2.376 0.576,2.448 l 0.648,2.304 2.088,-1.152 -0.36,-0.72 0.36,0.72 v 0 l -0.36,-0.72 0.36,0.72 c 0,0 1.439,-0.72 3.383,-0.72 0.216,0 0.432,0 0.648,0 v 0 c 0.144,0 0.288,0 0.36,0 1.224,0 2.304,-0.432 3.24,-0.936 1.44,-0.72 2.592,-1.8 3.528,-2.592 0.864,-0.864 1.44,-1.512 1.512,-1.512 l -1.44,-1.224 -1.44,1.296 c 0.072,0.072 1.008,1.152 3.96,3.6 0.72,0.648 1.152,1.008 1.368,1.152 l 0.144,0.144 0.648,-0.648 -0.792,0.576 0.072,0.144 0.648,-0.648 -0.792,0.576 1.296,-0.936 -1.44,0.576 c 0.072,0.144 0.144,0.288 0.216,0.36 l 1.296,-0.936 -1.44,0.576 1.44,-0.576 -1.512,0.288 c 0,0.072 0,0.144 0.072,0.288 l 1.44,-0.576 -1.512,0.288 1.008,-0.216 -1.008,0.144 v 0.072 l 1.008,-0.216 -1.008,0.144 v 0.072 c 0,0.216 0.072,0.504 0.216,0.864 0.144,0.36 0.288,0.72 0.576,1.152 v -0.072 0.072 c 0.792,1.296 1.656,2.376 2.448,3.384 0.792,1.008 1.584,2.016 2.304,3.096 v 0 c 0.432,0.72 0.864,1.296 1.368,1.8 0.36,0.36 0.792,0.648 1.152,0.936 0.576,0.432 1.224,0.864 2.16,1.584 0.864,0.72 2.016,1.656 3.528,3.024 0.504,0.504 1.008,0.863 1.512,1.151 0.504,0.288 1.08,0.504 1.8,0.504 0.36,0 0.648,-0.072 1.008,-0.216 0.576,-0.216 1.008,-0.647 1.296,-1.007 0.432,-0.648 0.576,-1.224 0.72,-1.8 0.072,-0.576 0.144,-1.224 0.144,-1.872 0,-1.728 -0.288,-3.6 -0.576,-5.4 -0.288,-1.8 -0.648,-3.384 -0.792,-4.248 -0.072,-0.432 -0.144,-1.08 -0.144,-1.8 0,-1.008 0.072,-2.232 0.144,-3.384 0.072,-1.224 0.144,-2.448 0.144,-3.672 0,-0.792 -0.072,-1.584 -0.144,-2.304 -0.144,-0.72 -0.36,-1.512 -0.792,-2.232 -0.288,-0.432 -0.36,-0.864 -0.36,-1.368 0,-0.504 0.144,-1.008 0.288,-1.44 0.072,-0.216 0.216,-0.36 0.288,-0.504 l 0.144,-0.144 v 0 0 0 0 c 0.432,-0.36 1.368,-1.008 2.592,-1.872 1.152,-0.936 2.592,-2.16 4.176,-3.816 0.36,-0.36 0.648,-0.792 0.864,-1.296 0.216,-0.504 0.36,-1.008 0.36,-1.512 0,-0.648 -0.216,-1.296 -0.504,-1.8 -0.504,-0.864 -1.152,-1.512 -1.872,-2.088 -1.08,-0.864 -2.304,-1.584 -3.456,-2.376 -1.152,-0.72 -2.16,-1.44 -2.664,-2.016 -1.152,-1.223 -1.944,-2.807 -2.376,-4.031 -0.216,-0.648 -0.36,-1.152 -0.504,-1.584 -0.072,-0.216 -0.072,-0.36 -0.072,-0.432 v -0.072 0 l -0.504,0.072 0.504,-0.072 v 0 l -0.504,0.072 0.504,-0.072 -0.144,-0.72 -0.576,-0.432 -1.224,1.512 z"
       id="path42343"
       inkscape:connector-curvature="0"
       style="fill:#49382f" />
    <path
       d="m 434.151,162.573 c 0,0 0.72,4.176 3.456,7.127 2.736,2.952 10.224,5.328 7.2,8.496 -2.952,3.168 -5.4,4.608 -6.48,5.472 -1.08,0.864 -2.232,3.816 -0.792,6.048 1.512,2.16 -0.144,9.072 0.504,12.672 0.576,3.528 3.456,16.127 -1.944,11.16 -5.544,-5.112 -6.408,-4.536 -7.92,-6.984 -1.512,-2.52 -3.312,-4.176 -4.68,-6.48 -1.368,-2.304 0.504,-0.648 -2.376,-3.096 -2.88,-2.448 -3.744,-3.456 -3.744,-3.456 0,0 -3.96,4.608 -6.984,4.392 -3.024,-0.216 -5.111,0.936 -5.111,0.936 0,0 -2.16,-7.344 -0.432,-10.152 1.728,-2.88 0.216,-5.832 -1.296,-8.28 -1.512,-2.52 -2.448,-6.48 0.072,-8.208 2.52,-1.8 10.439,-2.088 17.783,6.048 -0.216,-6.336 2.52,-24.119 12.744,-15.623 z"
       id="path42345"
       inkscape:connector-curvature="0"
       style="fill:#21b354" />
    <path
       d="m 409.887,168.116 c 2.664,-2.807 5.112,-5.327 7.416,-7.415 3.528,-3.168 6.696,-5.472 10.296,-7.056 3.6,-1.512 7.704,-2.448 13.176,-2.448 0.648,0 1.296,0 1.944,0 2.736,0.072 5.04,-2.016 5.112,-4.752 0.072,-2.736 -2.016,-5.04 -4.752,-5.112 -0.792,0 -1.512,-0.072 -2.304,-0.072 -4.392,0 -8.352,0.504 -11.952,1.44 -5.4,1.44 -10.008,3.96 -14.184,7.2 -4.176,3.24 -7.919,7.056 -11.951,11.376 -1.872,2.016 -1.8,5.112 0.144,6.983 2.016,1.872 5.111,1.8 6.983,-0.144 z"
       id="path42347"
       inkscape:connector-curvature="0"
       style="fill:#49382f" />
    <path
       d="m 408.375,166.677 c 5.4,-5.688 9.864,-10.08 14.688,-13.032 2.448,-1.44 4.968,-2.592 7.848,-3.384 2.88,-0.792 6.12,-1.152 9.936,-1.152 0.648,0 1.296,0 2.016,0.072 1.584,0.072 2.88,-1.152 2.952,-2.736 0.072,-1.584 -1.152,-2.88 -2.736,-2.952 -0.72,0 -1.512,-0.072 -2.232,-0.072 -4.248,0 -7.992,0.432 -11.376,1.368 -5.112,1.368 -9.432,3.744 -13.392,6.84 -3.96,3.096 -7.631,6.84 -11.735,11.16 -1.08,1.152 -1.008,2.952 0.072,4.032 1.152,1.079 2.952,1.007 4.032,-0.072 z"
       id="path42349"
       inkscape:connector-curvature="0"
       style="fill:#7a563b" />
    <path
       d="m 353.297,182.588 -0.288,-2.808 c -1.656,0.144 -3.24,0.576 -4.68,1.296 -2.16,1.08 -3.96,2.808 -5.112,4.968 -1.152,2.16 -1.728,4.752 -1.728,7.56 0,0.144 0,0.36 0,0.504 v 0 c 0.072,2.16 0.648,4.176 1.728,5.904 1.584,2.52 3.96,4.32 6.552,5.472 2.592,1.152 5.472,1.656 8.352,1.656 0.864,0 1.728,-0.072 2.519,-0.144 1.584,-0.216 3.096,-0.648 4.392,-1.368 1.944,-1.08 3.528,-2.664 4.68,-4.464 1.152,-1.8 1.8,-3.888 2.088,-5.976 v 0 c 0.072,-0.576 0.144,-1.08 0.144,-1.656 0,-2.016 -0.576,-3.96 -1.44,-5.544 -1.368,-2.376 -3.456,-4.176 -5.688,-5.4 -2.232,-1.296 -4.679,-2.088 -6.983,-2.448 v 0 c -1.08,-0.216 -2.16,-0.288 -3.24,-0.288 -0.504,0 -1.08,0 -1.584,0.072 l 0.288,2.808 0.288,2.808 c 0.288,0 0.648,-0.072 1.008,-0.072 0.72,0 1.44,0.072 2.232,0.216 h -0.072 0.072 c 2.304,0.36 4.895,1.368 6.623,2.808 0.864,0.72 1.584,1.512 2.088,2.304 0.432,0.864 0.72,1.728 0.72,2.736 0,0.288 0,0.576 -0.072,0.864 v -0.072 0.072 c -0.288,1.872 -1.008,3.528 -2.016,4.752 -0.504,0.576 -1.152,1.08 -1.8,1.512 -0.72,0.36 -1.44,0.648 -2.376,0.72 -0.575,0.072 -1.223,0.144 -1.871,0.144 -2.808,0 -5.76,-0.792 -7.704,-2.088 -1.008,-0.648 -1.8,-1.44 -2.304,-2.304 -0.504,-0.864 -0.864,-1.872 -0.864,-3.096 v 0 c 0,-0.144 0,-0.216 0,-0.36 0,-1.368 0.216,-2.52 0.504,-3.528 0.504,-1.44 1.224,-2.448 2.16,-3.24 0.936,-0.72 2.16,-1.224 3.744,-1.368 l -0.288,-2.808 z"
       id="path42351"
       inkscape:connector-curvature="0"
       style="fill:#49382f" />
    <path
       d="m 353.297,182.588 c -5.544,0.504 -9.072,4.608 -8.928,11.376 0.216,7.632 8.856,10.944 15.983,10.08 4.968,-0.576 8.064,-4.752 8.712,-9.432 0.936,-6.984 -5.976,-10.944 -11.663,-11.88 -1.44,-0.216 -2.808,-0.288 -4.032,-0.216 z"
       id="path42353"
       inkscape:connector-curvature="0"
       style="fill:#953993" />
    <path
       d="m 372.52,172.94 -0.288,-2.808 c -1.656,0.144 -3.24,0.576 -4.68,1.296 -2.16,1.08 -3.96,2.808 -5.112,4.968 -1.152,2.16 -1.728,4.752 -1.728,7.56 0,0.144 0,0.36 0,0.504 v 0 c 0.072,2.16 0.648,4.176 1.728,5.904 1.584,2.52 3.96,4.32 6.552,5.472 2.592,1.152 5.472,1.656 8.352,1.656 0.864,0 1.728,-0.072 2.52,-0.144 1.584,-0.216 3.096,-0.648 4.392,-1.368 1.944,-1.08 3.528,-2.664 4.68,-4.464 1.152,-1.8 1.8,-3.888 2.088,-5.976 0.072,-0.576 0.144,-1.08 0.144,-1.656 0,-2.016 -0.576,-3.96 -1.44,-5.544 -1.368,-2.376 -3.456,-4.176 -5.688,-5.4 -2.232,-1.296 -4.68,-2.088 -6.984,-2.448 -1.08,-0.216 -2.16,-0.288 -3.24,-0.288 -0.504,0 -1.008,0 -1.512,0.072 v 0 0 l 0.288,2.808 0.288,2.808 c 0.288,0 0.648,-0.072 1.008,-0.072 0.72,0 1.44,0.072 2.232,0.216 2.304,0.36 4.824,1.368 6.624,2.808 0.864,0.72 1.584,1.512 2.088,2.304 0.432,0.864 0.72,1.656 0.72,2.736 0,0.288 0,0.576 -0.072,0.864 -0.216,1.872 -1.008,3.528 -2.016,4.752 -0.504,0.576 -1.152,1.08 -1.8,1.512 -0.72,0.36 -1.44,0.648 -2.376,0.72 -0.576,0.072 -1.224,0.144 -1.872,0.144 -2.808,0 -5.76,-0.792 -7.776,-2.088 -1.008,-0.648 -1.8,-1.44 -2.304,-2.304 -0.504,-0.864 -0.864,-1.872 -0.864,-3.096 v 0 c 0,-0.144 0,-0.216 0,-0.36 0,-1.368 0.216,-2.52 0.504,-3.528 0.504,-1.44 1.224,-2.448 2.16,-3.24 0.936,-0.72 2.16,-1.224 3.744,-1.368 v 0 0 l -0.288,-2.808 z"
       id="path42355"
       inkscape:connector-curvature="0"
       style="fill:#49382f" />
    <path
       d="m 372.52,172.94 c -5.544,0.576 -9.072,4.608 -8.928,11.376 0.144,7.632 8.856,10.944 15.984,10.08 4.968,-0.576 8.064,-4.752 8.64,-9.432 0.936,-6.984 -5.976,-10.944 -11.664,-11.88 -1.44,-0.216 -2.808,-0.288 -4.032,-0.216 z"
       id="path42357"
       inkscape:connector-curvature="0"
       style="fill:#953993" />
    <path
       d="m 373.384,152.205 -0.288,-2.808 c -1.656,0.144 -3.24,0.576 -4.68,1.296 -2.16,1.08 -3.96,2.808 -5.112,4.896 -1.152,2.16 -1.728,4.752 -1.728,7.56 0,0.144 0,0.36 0,0.504 v 0.072 -0.072 c 0.072,2.16 0.648,4.176 1.728,5.903 1.584,2.52 3.96,4.32 6.552,5.472 2.592,1.152 5.472,1.656 8.352,1.656 0.864,0 1.728,-0.072 2.52,-0.144 v 0 c 1.584,-0.216 3.096,-0.648 4.392,-1.368 1.944,-1.08 3.528,-2.664 4.608,-4.464 1.152,-1.8 1.8,-3.887 2.088,-5.975 0.072,-0.576 0.144,-1.08 0.144,-1.656 0,-2.016 -0.576,-3.96 -1.44,-5.544 -1.368,-2.376 -3.456,-4.176 -5.688,-5.4 -2.232,-1.296 -4.68,-2.088 -6.984,-2.448 -1.08,-0.216 -2.16,-0.288 -3.24,-0.288 -0.504,0 -1.08,0 -1.584,0.072 l 0.288,2.808 0.288,2.808 c 0.288,0 0.648,-0.072 1.008,-0.072 0.72,0 1.44,0.072 2.232,0.216 2.304,0.36 4.896,1.368 6.624,2.808 0.864,0.72 1.584,1.512 2.088,2.304 0.432,0.864 0.72,1.656 0.72,2.736 0,0.288 0,0.576 -0.072,0.864 -0.288,1.872 -1.008,3.528 -2.016,4.751 -0.504,0.576 -1.152,1.08 -1.8,1.512 -0.72,0.36 -1.44,0.648 -2.376,0.72 v 0 c -0.576,0.072 -1.224,0.144 -1.872,0.144 -2.808,0 -5.76,-0.792 -7.776,-2.088 -1.008,-0.648 -1.8,-1.439 -2.304,-2.303 -0.504,-0.864 -0.864,-1.872 -0.864,-3.096 v 0 c 0,-0.144 0,-0.216 0,-0.36 0,-1.368 0.216,-2.52 0.504,-3.528 0.504,-1.44 1.224,-2.448 2.16,-3.24 0.936,-0.72 2.16,-1.224 3.744,-1.368 l -0.288,-2.808 z"
       id="path42359"
       inkscape:connector-curvature="0"
       style="fill:#49382f" />
    <path
       d="m 373.384,152.205 c -5.544,0.504 -9.072,4.608 -8.928,11.376 0.144,7.631 8.856,10.943 15.984,10.079 4.968,-0.576 8.064,-4.752 8.64,-9.431 0.936,-6.984 -5.976,-10.944 -11.664,-11.88 -1.44,-0.216 -2.808,-0.288 -4.032,-0.216 z"
       id="path42361"
       inkscape:connector-curvature="0"
       style="fill:#953993" />
    <path
       d="m 351.641,200.444 -0.288,-2.808 c -1.656,0.144 -3.24,0.576 -4.68,1.296 -2.16,1.08 -3.96,2.808 -5.112,4.896 -1.152,2.16 -1.728,4.68 -1.728,7.56 0,0.144 0,0.36 0,0.504 v 0.072 -0.072 c 0.072,2.16 0.648,4.175 1.728,5.903 1.584,2.52 3.96,4.32 6.552,5.472 2.592,1.152 5.472,1.656 8.352,1.656 0.864,0 1.728,-0.072 2.592,-0.144 v 0 c 1.583,-0.216 3.095,-0.648 4.391,-1.368 1.944,-1.08 3.528,-2.664 4.68,-4.464 1.152,-1.8 1.8,-3.887 2.088,-5.975 v 0 c 0.072,-0.576 0.144,-1.08 0.144,-1.656 0,-2.016 -0.576,-3.96 -1.44,-5.544 -1.368,-2.376 -3.456,-4.176 -5.688,-5.4 -2.232,-1.296 -4.679,-2.088 -6.983,-2.448 -1.08,-0.216 -2.16,-0.288 -3.24,-0.288 -0.504,0 -1.008,0 -1.512,0.072 v 0 0 l 0.288,2.808 0.288,2.808 c 0.36,0 0.648,-0.072 1.008,-0.072 0.72,0 1.44,0.072 2.232,0.216 2.304,0.36 4.895,1.368 6.623,2.808 0.864,0.72 1.584,1.512 2.088,2.304 0.432,0.864 0.72,1.656 0.72,2.736 0,0.288 0,0.576 -0.072,0.864 v 0 c -0.216,1.872 -1.008,3.528 -2.016,4.751 -0.504,0.576 -1.152,1.08 -1.8,1.512 -0.719,0.36 -1.439,0.648 -2.375,0.72 v 0 0 c -0.648,0.072 -1.224,0.144 -1.872,0.144 -2.808,0 -5.76,-0.792 -7.704,-2.088 -1.008,-0.648 -1.8,-1.44 -2.304,-2.303 -0.504,-0.864 -0.864,-1.872 -0.864,-3.096 v 0 c 0,-0.144 0,-0.216 0,-0.36 0,-1.368 0.216,-2.52 0.504,-3.528 0.504,-1.44 1.224,-2.448 2.16,-3.24 0.936,-0.72 2.16,-1.224 3.744,-1.368 v 0 0 l -0.288,-2.808 z"
       id="path42363"
       inkscape:connector-curvature="0"
       style="fill:#49382f" />
    <path
       d="m 351.641,200.444 c -5.544,0.576 -9.072,4.608 -8.928,11.376 0.144,7.631 8.856,10.943 15.984,10.079 4.967,-0.576 8.063,-4.752 8.711,-9.431 0.936,-6.984 -5.976,-10.872 -11.663,-11.88 -1.44,-0.216 -2.736,-0.288 -4.032,-0.216 z"
       id="path42365"
       inkscape:connector-curvature="0"
       style="fill:#953993" />
    <path
       d="m 394.624,163.437 -0.288,-2.808 c -1.656,0.144 -3.24,0.576 -4.68,1.296 -2.16,1.08 -3.96,2.808 -5.112,4.968 -1.152,2.159 -1.728,4.751 -1.728,7.559 0,0.144 0,0.36 0,0.504 0.072,2.16 0.648,4.176 1.728,5.904 1.584,2.52 3.96,4.32 6.552,5.472 2.592,1.152 5.472,1.656 8.352,1.656 0.864,0 1.728,-0.072 2.52,-0.144 1.584,-0.216 3.096,-0.648 4.392,-1.368 1.943,-1.08 3.527,-2.664 4.679,-4.464 1.152,-1.8 1.8,-3.888 2.088,-5.976 v -0.072 0.072 c 0.072,-0.576 0.144,-1.08 0.144,-1.656 0,-2.016 -0.576,-3.96 -1.44,-5.544 -1.368,-2.375 -3.456,-4.175 -5.687,-5.399 -2.232,-1.296 -4.68,-2.088 -6.984,-2.448 -1.08,-0.216 -2.16,-0.288 -3.24,-0.288 -0.504,0 -1.008,0 -1.584,0.072 l 0.288,2.808 0.288,2.808 c 0.288,0 0.648,-0.072 1.008,-0.072 0.72,0 1.44,0.072 2.232,0.216 2.304,0.36 4.896,1.367 6.624,2.807 0.864,0.72 1.584,1.512 2.088,2.304 0.432,0.864 0.719,1.656 0.719,2.736 0,0.288 0,0.576 -0.071,0.864 v 0 c -0.216,1.872 -1.008,3.528 -2.016,4.752 -0.504,0.576 -1.152,1.08 -1.8,1.512 -0.72,0.36 -1.44,0.648 -2.376,0.72 -0.576,0.072 -1.224,0.144 -1.872,0.144 -2.808,0 -5.76,-0.792 -7.704,-2.088 -1.008,-0.648 -1.8,-1.44 -2.304,-2.304 -0.504,-0.864 -0.864,-1.872 -0.864,-3.096 0,-0.144 0,-0.216 0,-0.36 0,-1.368 0.216,-2.52 0.504,-3.528 0.504,-1.44 1.224,-2.448 2.16,-3.239 0.936,-0.72 2.16,-1.224 3.744,-1.368 l -0.288,-2.808 z"
       id="path42367"
       inkscape:connector-curvature="0"
       style="fill:#49382f" />
    <path
       d="m 394.624,163.437 c -5.544,0.504 -9.072,4.607 -8.928,11.375 0.216,7.632 8.856,10.944 15.984,10.08 4.968,-0.576 8.063,-4.752 8.711,-9.432 0.936,-6.984 -5.975,-10.943 -11.663,-11.879 -1.44,-0.216 -2.808,-0.288 -4.032,-0.216 z"
       id="path42369"
       inkscape:connector-curvature="0"
       style="fill:#953993" />
    <path
       d="m 374.464,196.628 -0.288,-2.808 c -1.656,0.144 -3.24,0.576 -4.68,1.296 -2.16,1.08 -3.96,2.808 -5.112,4.968 -1.152,2.16 -1.728,4.752 -1.728,7.56 0,0.144 0,0.36 0,0.504 0.072,2.16 0.648,4.176 1.728,5.904 1.584,2.519 3.96,4.319 6.552,5.471 2.592,1.152 5.472,1.656 8.352,1.656 0.864,0 1.728,-0.072 2.52,-0.144 1.584,-0.216 3.096,-0.648 4.392,-1.368 1.944,-1.08 3.528,-2.664 4.68,-4.463 1.152,-1.8 1.8,-3.888 2.088,-5.976 v 0 c 0.072,-0.576 0.144,-1.08 0.144,-1.656 0,-2.016 -0.576,-3.96 -1.44,-5.544 -1.368,-2.376 -3.456,-4.176 -5.688,-5.4 -2.232,-1.296 -4.68,-2.088 -6.984,-2.448 H 379.072 379 c -1.08,-0.216 -2.16,-0.288 -3.24,-0.288 -0.504,0 -1.08,0 -1.584,0.072 l 0.288,2.808 0.288,2.808 c 0.288,0 0.648,-0.072 1.008,-0.072 0.72,0 1.44,0.072 2.232,0.216 h -0.072 0.072 c 2.304,0.36 4.896,1.368 6.624,2.808 0.864,0.72 1.584,1.512 2.088,2.304 0.432,0.864 0.72,1.656 0.72,2.736 0,0.288 0,0.576 -0.072,0.864 v 0 c -0.216,1.872 -1.008,3.6 -2.016,4.752 -0.504,0.576 -1.152,1.08 -1.8,1.512 -0.72,0.36 -1.44,0.648 -2.376,0.72 -0.576,0.072 -1.224,0.144 -1.872,0.144 -2.808,0 -5.76,-0.792 -7.776,-2.088 -1.008,-0.648 -1.8,-1.44 -2.304,-2.304 -0.504,-0.864 -0.864,-1.872 -0.864,-3.096 0,-0.144 0,-0.216 0,-0.36 0,-1.368 0.216,-2.52 0.504,-3.528 0.504,-1.44 1.224,-2.448 2.16,-3.24 0.936,-0.72 2.16,-1.224 3.744,-1.368 l -0.288,-2.808 z"
       id="path42371"
       inkscape:connector-curvature="0"
       style="fill:#49382f" />
    <path
       d="m 374.464,196.628 c -5.544,0.504 -9.072,4.608 -8.928,11.376 0.144,7.631 8.856,10.943 15.984,10.151 4.968,-0.576 8.064,-4.751 8.712,-9.431 0.936,-6.984 -5.976,-10.872 -11.664,-11.88 -1.44,-0.216 -2.808,-0.288 -4.032,-0.216 z"
       id="path42373"
       inkscape:connector-curvature="0"
       style="fill:#953993" />
    <path
       d="m 399.088,145.653 -0.288,-2.808 c -1.656,0.144 -3.24,0.576 -4.68,1.296 -2.16,1.08 -3.96,2.808 -5.112,4.968 -1.152,2.16 -1.728,4.752 -1.728,7.56 0,0.144 0,0.36 0,0.504 v 0 c 0.072,2.16 0.648,4.176 1.728,5.904 1.584,2.52 3.96,4.319 6.552,5.471 2.592,1.152 5.472,1.656 8.352,1.656 0.864,0 1.728,-0.072 2.52,-0.144 v 0 c 1.584,-0.216 3.095,-0.648 4.391,-1.368 1.944,-1.079 3.528,-2.663 4.68,-4.463 1.152,-1.8 1.8,-3.888 2.088,-5.976 0.072,-0.576 0.144,-1.08 0.144,-1.656 0,-2.016 -0.576,-3.96 -1.44,-5.544 -1.368,-2.376 -3.456,-4.176 -5.688,-5.4 -2.232,-1.296 -4.679,-2.088 -6.983,-2.448 -1.08,-0.216 -2.16,-0.288 -3.24,-0.288 -0.504,0 -1.008,0 -1.512,0.072 v 0 l 0.288,2.808 0.288,2.808 c 0.288,0 0.648,-0.072 1.008,-0.072 0.72,0 1.44,0.072 2.232,0.216 2.304,0.36 4.895,1.368 6.623,2.808 0.864,0.72 1.584,1.512 2.088,2.304 0.432,0.864 0.72,1.656 0.72,2.736 0,0.288 0,0.576 -0.072,0.864 -0.216,1.872 -1.008,3.528 -2.016,4.752 -0.504,0.576 -1.152,1.08 -1.799,1.512 -0.72,0.36 -1.44,0.648 -2.376,0.72 v 0 c -0.576,0.072 -1.224,0.144 -1.872,0.144 -2.808,0 -5.76,-0.792 -7.704,-2.088 -1.008,-0.648 -1.8,-1.44 -2.304,-2.304 -0.504,-0.864 -0.864,-1.872 -0.864,-3.096 v 0 c 0,-0.144 0,-0.216 0,-0.36 0,-1.368 0.216,-2.52 0.504,-3.528 0.504,-1.44 1.224,-2.448 2.16,-3.24 0.936,-0.72 2.16,-1.224 3.744,-1.368 v 0 l -0.288,-2.808 z"
       id="path42375"
       inkscape:connector-curvature="0"
       style="fill:#49382f" />
    <path
       d="m 399.088,145.653 c -5.544,0.504 -9.072,4.608 -8.928,11.376 0.144,7.56 8.856,10.944 15.984,10.08 4.967,-0.576 8.063,-4.752 8.711,-9.432 0.936,-6.984 -5.976,-10.872 -11.663,-11.88 -1.44,-0.216 -2.808,-0.288 -4.032,-0.216 z"
       id="path42377"
       inkscape:connector-curvature="0"
       style="fill:#953993" />
    <path
       d="m 391.888,185.036 -0.288,-2.808 c -1.656,0.144 -3.24,0.576 -4.68,1.296 -2.16,1.08 -3.96,2.808 -5.112,4.896 -1.152,2.16 -1.728,4.752 -1.728,7.56 0,0.144 0,0.36 0,0.504 v 0 c 0.072,2.16 0.648,4.176 1.728,5.904 1.584,2.52 3.96,4.32 6.552,5.472 2.592,1.152 5.472,1.656 8.352,1.656 0.864,0 1.728,-0.072 2.592,-0.144 v 0 c 1.584,-0.216 3.096,-0.648 4.392,-1.368 1.944,-1.08 3.528,-2.664 4.679,-4.464 1.152,-1.8 1.8,-3.888 2.088,-5.976 v 0.072 -0.072 c 0.072,-0.576 0.144,-1.08 0.144,-1.656 0,-2.016 -0.576,-3.888 -1.44,-5.544 -1.368,-2.376 -3.455,-4.176 -5.687,-5.4 -2.232,-1.296 -4.68,-2.088 -6.984,-2.448 -1.08,-0.216 -2.16,-0.288 -3.24,-0.288 -0.504,0 -1.008,0 -1.584,0.072 v 0 l 0.288,2.808 0.288,2.808 c 0.288,0 0.648,-0.072 1.008,-0.072 0.72,0 1.44,0.072 2.232,0.216 2.304,0.36 4.896,1.368 6.624,2.808 0.864,0.72 1.584,1.512 2.088,2.304 0.432,0.864 0.72,1.656 0.72,2.736 0,0.288 0,0.576 -0.072,0.864 v -0.072 0.072 c -0.216,1.872 -1.008,3.528 -2.016,4.752 -0.504,0.576 -1.152,1.08 -1.8,1.512 -0.72,0.36 -1.44,0.648 -2.376,0.72 v 0 c -0.576,0.072 -1.224,0.144 -1.872,0.144 -2.808,0 -5.76,-0.792 -7.704,-2.088 -1.008,-0.648 -1.8,-1.44 -2.304,-2.304 -0.504,-0.864 -0.864,-1.872 -0.864,-3.096 v 0 c 0,-0.144 0,-0.216 0,-0.36 0,-1.368 0.216,-2.52 0.504,-3.528 0.504,-1.44 1.224,-2.448 2.16,-3.24 0.936,-0.72 2.16,-1.224 3.744,-1.368 v 0 l -0.288,-2.808 z"
       id="path42379"
       inkscape:connector-curvature="0"
       style="fill:#49382f" />
    <path
       d="m 391.888,185.036 c -5.544,0.504 -9.144,4.608 -8.928,11.376 0.216,7.632 8.856,10.944 15.984,10.08 4.968,-0.576 8.064,-4.752 8.711,-9.432 0.936,-6.984 -5.975,-10.872 -11.663,-11.88 -1.44,-0.216 -2.808,-0.288 -4.032,-0.216 z"
       id="path42381"
       inkscape:connector-curvature="0"
       style="fill:#953993" />
    <path
       d="m 407.799,166.461 -2.735,-0.576 c -0.216,1.008 -0.36,2.015 -0.36,3.023 0,2.808 0.936,5.544 2.808,7.632 1.799,2.16 4.463,3.744 7.559,4.68 1.152,0.36 2.304,0.504 3.456,0.504 2.016,0 3.888,-0.504 5.544,-1.44 2.52,-1.296 4.464,-3.384 6.048,-5.688 1.512,-2.304 2.592,-4.968 3.096,-7.703 v 0 c 0.144,-0.792 0.216,-1.584 0.216,-2.376 0,-2.664 -0.936,-5.184 -2.376,-7.2 -1.44,-2.016 -3.456,-3.6 -5.688,-4.68 -1.656,-0.792 -3.312,-1.152 -4.968,-1.152 -1.656,0 -3.168,0.36 -4.536,0.936 -2.088,0.864 -3.888,2.232 -5.4,3.816 -1.512,1.584 -2.735,3.312 -3.671,5.112 v 0 c -0.792,1.512 -1.368,2.952 -1.656,4.464 v -0.072 0.072 l 2.735,0.576 2.736,0.576 c 0.216,-0.936 0.576,-1.944 1.152,-3.096 v -0.072 0.072 c 0.936,-1.728 2.304,-3.6 3.888,-4.824 0.792,-0.648 1.584,-1.152 2.376,-1.512 0.792,-0.36 1.584,-0.504 2.376,-0.504 0.792,0 1.584,0.144 2.52,0.576 1.512,0.72 2.736,1.728 3.6,2.88 0.864,1.152 1.296,2.448 1.296,3.888 0,0.432 -0.072,0.864 -0.144,1.296 v -0.072 0.072 c -0.504,2.591 -1.8,5.327 -3.456,7.199 -0.864,0.936 -1.8,1.728 -2.736,2.232 -0.936,0.504 -1.872,0.72 -2.952,0.72 -0.576,0 -1.152,-0.072 -1.8,-0.288 -2.376,-0.72 -3.888,-1.728 -4.896,-2.88 -0.936,-1.152 -1.44,-2.448 -1.44,-4.032 0,-0.576 0.072,-1.151 0.216,-1.799 v 0.072 -0.072 l -2.736,-0.576 z"
       id="path42383"
       inkscape:connector-curvature="0"
       style="fill:#49382f" />
    <path
       d="m 407.799,166.461 c -1.223,5.471 1.584,10.079 8.064,12.023 7.272,2.16 13.176,-5.04 14.544,-12.095 0.936,-4.968 -2.016,-9.072 -6.264,-11.16 -6.336,-3.024 -12.24,2.304 -14.904,7.488 -0.648,1.296 -1.152,2.52 -1.44,3.744 z"
       id="path42385"
       inkscape:connector-curvature="0"
       style="fill:#953993" />
    <path
       d="m 415.935,173.66 -0.288,-2.808 c -1.656,0.144 -3.24,0.576 -4.68,1.296 -2.16,1.08 -3.959,2.808 -5.111,4.968 -1.152,2.16 -1.728,4.752 -1.728,7.56 0,0.144 0,0.36 0,0.504 v 0 c 0.072,2.16 0.648,4.176 1.728,5.904 1.584,2.52 3.959,4.32 6.551,5.472 2.592,1.152 5.472,1.656 8.352,1.656 0.864,0 1.728,-0.072 2.52,-0.144 1.584,-0.216 3.096,-0.648 4.392,-1.368 1.944,-1.08 3.528,-2.664 4.68,-4.464 1.152,-1.8 1.8,-3.888 2.088,-5.976 v 0 c 0.072,-0.576 0.144,-1.08 0.144,-1.656 0,-2.016 -0.576,-3.96 -1.44,-5.544 -1.368,-2.376 -3.456,-4.176 -5.688,-5.4 -2.232,-1.296 -4.68,-2.088 -6.984,-2.448 -1.08,-0.216 -2.16,-0.288 -3.24,-0.288 -0.504,0 -1.008,0 -1.512,0.072 v 0 0 l 0.288,2.808 0.288,2.808 c 0.288,0 0.648,-0.072 1.008,-0.072 0.72,0 1.44,0.072 2.232,0.216 2.304,0.36 4.824,1.368 6.624,2.808 0.864,0.72 1.584,1.512 2.088,2.304 0.432,0.864 0.72,1.656 0.72,2.736 0,0.288 0,0.576 -0.072,0.864 v 0.072 -0.072 c -0.216,1.872 -1.008,3.528 -2.016,4.752 -0.504,0.576 -1.152,1.08 -1.8,1.512 -0.72,0.36 -1.44,0.648 -2.376,0.72 -0.576,0.072 -1.224,0.144 -1.872,0.144 -2.808,0 -5.76,-0.792 -7.776,-2.088 -1.008,-0.648 -1.8,-1.44 -2.304,-2.304 -0.504,-0.864 -0.864,-1.872 -0.864,-3.096 v 0 c 0,-0.144 0,-0.216 0,-0.36 0,-1.368 0.216,-2.52 0.504,-3.528 0.504,-1.44 1.224,-2.448 2.16,-3.24 0.936,-0.72 2.16,-1.224 3.744,-1.368 v 0 0 l -0.288,-2.808 z"
       id="path42387"
       inkscape:connector-curvature="0"
       style="fill:#49382f" />
    <path
       d="m 415.935,173.66 c -5.544,0.576 -9.071,4.608 -8.927,11.376 0.144,7.632 8.855,10.944 15.983,10.08 4.968,-0.576 8.064,-4.752 8.712,-9.432 0.936,-6.984 -5.976,-10.944 -11.664,-11.88 -1.44,-0.216 -2.808,-0.288 -4.032,-0.216 z"
       id="path42389"
       inkscape:connector-curvature="0"
       style="fill:#953993" />
  </g>
</svg>
