<?xml version="1.0" encoding="UTF-8" standalone="no"?>
<svg
   xmlns:dc="http://purl.org/dc/elements/1.1/"
   xmlns:cc="http://creativecommons.org/ns#"
   xmlns:rdf="http://www.w3.org/1999/02/22-rdf-syntax-ns#"
   xmlns:svg="http://www.w3.org/2000/svg"
   xmlns="http://www.w3.org/2000/svg"
   xmlns:sodipodi="http://sodipodi.sourceforge.net/DTD/sodipodi-0.dtd"
   xmlns:inkscape="http://www.inkscape.org/namespaces/inkscape"
   version="1.1"
   id="Layer_1"
   x="0px"
   y="0px"
   viewBox="0 0 256 256"
   enable-background="new 0 0 2772 1368"
   xml:space="preserve"
   sodipodi:docname="soda_glass.svg"
   inkscape:version="0.92.4 (5da689c313, 2019-01-14)"
   width="256"
   height="256"><title
   id="title4630">Soda</title><metadata
   id="metadata3823"><rdf:RDF><cc:Work
       rdf:about=""><dc:format>image/svg+xml</dc:format><dc:type
         rdf:resource="http://purl.org/dc/dcmitype/StillImage" /><dc:title>Soda</dc:title><cc:license
         rdf:resource="http://creativecommons.org/publicdomain/zero/1.0/" /><dc:source>https://openclipart.org/detail/311979</dc:source><dc:creator><cc:Agent><dc:title>GDJ</dc:title></cc:Agent></dc:creator></cc:Work><cc:License
       rdf:about="http://creativecommons.org/publicdomain/zero/1.0/"><cc:permits
         rdf:resource="http://creativecommons.org/ns#Reproduction" /><cc:permits
         rdf:resource="http://creativecommons.org/ns#Distribution" /><cc:permits
         rdf:resource="http://creativecommons.org/ns#DerivativeWorks" /></cc:License></rdf:RDF></metadata><defs
   id="defs3821" /><sodipodi:namedview
   pagecolor="#ffffff"
   bordercolor="#666666"
   borderopacity="1"
   objecttolerance="10"
   gridtolerance="10"
   guidetolerance="10"
   inkscape:pageopacity="0"
   inkscape:pageshadow="2"
   inkscape:window-width="1920"
   inkscape:window-height="1025"
   id="namedview3819"
   showgrid="false"
   inkscape:zoom="1.7546898"
   inkscape:cx="22.554784"
   inkscape:cy="114.62788"
   inkscape:window-x="-8"
   inkscape:window-y="-8"
   inkscape:window-maximized="1"
   inkscape:current-layer="Layer_1"
   fit-margin-top="0"
   fit-margin-left="0"
   fit-margin-right="0"
   fit-margin-bottom="0" />

<g
   id="g196"
   transform="matrix(0.55331299,0,0,0.55331299,-1279.032,-88.903996)">
	<path
   d="m 2650.013,160.97 c 5.19,1.4 10.2,3.41 15.47,4.59 -0.55,6.23 -3.69,11.71 -5.5,17.59 -5.49,11.63 -8.54,24.26 -14.19,35.81 -1.14,3.39 -2.36,6.73 -3.7,10.03 -1.84,4.23 -2.48,9.96 -7.24,11.97 -5.59,2.22 -11.51,3.56 -17.45,4.34 2.24,-5.6 4.35,-11.26 6.78,-16.79 0.5,-1.36 0.97,-2.73 1.46,-4.11 1.89,-5.82 4.23,-11.49 6.23,-17.29 4.99,-11.01 8.57,-22.6 12.88,-33.9 1.06,-4.35 3.24,-8.27 5.26,-12.24 z"
   id="path140"
   inkscape:connector-curvature="0"
   style="fill:#e63e00;stroke:#e63e00;stroke-width:0.5" />
	<path
   d="m 2488.604,219.69 c 7.06,0.16 13.9,-2.07 20.97,-1.9 18.34,0 36.68,-0.05 55.02,0.02 7.06,-0.14 13.91,2.03 20.98,1.89 8.4,0.44 16.9,0.61 25.12,2.62 4.95,0.83 9.86,2.44 14.95,2.08 -0.49,1.38 -0.96,2.75 -1.46,4.11 -7.97,-3.28 -16.71,-3.02 -25.07,-4.38 -7.35,-1.28 -14.85,-1.15 -22.17,-2.54 -7.06,-1.28 -14.25,-0.55 -21.36,-0.7 -18.36,-0.39 -36.73,-0.06 -55.08,0.1 -17.77,2.62 -35.85,3.34 -53.37,7.45 -4.55,1.2 -9.72,2.34 -12.79,6.21 -1.86,2.35 1.12,4.45 2.99,5.47 5.73,2.98 12.22,4.07 18.53,5.25 7.99,1.19 15.94,2.65 23.94,3.9 20.19,1.96 40.5,1.63 60.77,1.7 13.66,-0.14 27.33,0.15 40.97,-0.85 12.11,-0.13 23.93,-3.01 35.86,-4.82 5.94,-0.78 11.86,-2.12 17.45,-4.34 4.76,-2.01 5.4,-7.74 7.24,-11.97 2.16,1.36 4.5,2.43 6.75,3.7 2.49,1.34 3.22,4.3 4.04,6.8 -3.31,2.28 -6.64,4.54 -10.32,6.13 -2.27,0.9 -4.57,1.67 -6.84,2.44 -6.73,2.49 -13.97,2.86 -20.78,5 -0.41,0.99 -0.78,2 -1.11,3.01 -0.05,-0.75 -0.16,-2.23 -0.22,-2.98 -6.24,0.3 -12.45,0.98 -18.59,1.99 -19.08,2.09 -38.28,1.89 -57.44,2.08 -15.96,-0.35 -31.96,0.33 -47.86,-1.25 -0.54,-0.08 -1.61,-0.24 -2.15,-0.32 -3.99,-1.69 -7.93,-3.59 -12.2,-4.41 -5.2,-0.98 -10.48,-1.38 -15.66,-2.4 -7.6,-1.51 -15.36,-0.3 -23,-1.11 -2.12,-0.52 -4.19,-1.2 -6.18,-2 -3.62,-1.84 -6.86,-4.28 -10.16,-6.61 1.3,-5.81 7.28,-8.29 12.35,-10.03 9.63,-3.38 19.76,-4.73 29.75,-6.68 8.529,-2.1 17.39,-2.25 26.13,-2.66 z"
   id="path142"
   inkscape:connector-curvature="0"
   style="fill:#e6cfa0;stroke:#e6cfa0;stroke-width:0.5" />
	<path
   d="m 2447.134,228.44 c 17.52,-4.11 35.6,-4.83 53.37,-7.45 18.35,-0.16 36.72,-0.49 55.08,-0.1 7.11,0.15 14.3,-0.58 21.36,0.7 7.32,1.39 14.82,1.26 22.17,2.54 8.36,1.36 17.1,1.1 25.07,4.38 -2.43,5.53 -4.54,11.19 -6.78,16.79 -11.93,1.81 -23.75,4.69 -35.86,4.82 -13.64,1 -27.31,0.71 -40.97,0.85 -20.27,-0.07 -40.58,0.26 -60.77,-1.7 -8,-1.25 -15.95,-2.71 -23.94,-3.9 -6.31,-1.18 -12.8,-2.27 -18.53,-5.25 -1.87,-1.02 -4.85,-3.12 -2.99,-5.47 3.07,-3.87 8.239,-5.01 12.79,-6.21 z"
   id="path144"
   inkscape:connector-curvature="0"
   style="fill:#f1e8ce;stroke:#f1e8ce;stroke-width:0.5" />
	<path
   d="m 2420.374,239.06 c 3.3,2.33 6.54,4.77 10.16,6.61 -0.44,10.13 -0.45,20.29 0.01,30.43 -3.69,1.64 -6.89,4.12 -9.98,6.66 -0.351,-14.57 0.01,-29.14 -0.19,-43.7 z"
   id="path146"
   inkscape:connector-curvature="0"
   style="fill:#b38559;stroke:#b38559;stroke-width:0.5" />
	<path
   d="m 2642.563,245.62 c 3.68,-1.59 7.01,-3.85 10.32,-6.13 -0.1,14.46 -0.25,28.92 0.07,43.38 -3.15,-2.75 -6.56,-5.27 -10.48,-6.76 0.631,-10.14 0.52,-20.33 0.09,-30.49 z"
   id="path148"
   inkscape:connector-curvature="0"
   style="fill:#b28458;stroke:#b28458;stroke-width:0.5" />
	<path
   d="m 2430.533,245.67 c 1.99,0.8 4.06,1.48 6.18,2 -0.79,1.21 -1.56,2.42 -2.28,3.63 1.73,0.92 3.47,1.82 5.31,2.6 2.93,5.67 2.87,12.65 -0.4,18.16 2.19,-0.28 4.4,-0.52 6.64,-0.81 -3.29,0.97 -6.49,2.18 -9.7,3.3 -1.95,0.48 -3.87,0.96 -5.74,1.55 -0.46,-10.14 -0.449,-20.3 -0.01,-30.43 z"
   id="path150"
   inkscape:connector-curvature="0"
   style="fill:#f1e8ce;stroke:#f1e8ce;stroke-width:0.5" />
	<path
   d="m 2635.723,248.06 c 2.27,-0.77 4.57,-1.54 6.84,-2.44 0.43,10.16 0.54,20.35 -0.09,30.49 -5.25,-1.66 -10.67,-2.9 -15.63,-5.32 2.69,-7.67 5.021,-15.53 8.88,-22.73 z"
   id="path152"
   inkscape:connector-curvature="0"
   style="fill:#f1e8ce;stroke:#f1e8ce;stroke-width:0.5" />
	<path
   d="m 2436.713,247.67 c 7.64,0.81 15.4,-0.4 23,1.11 5.18,1.02 10.46,1.42 15.66,2.4 4.27,0.82 8.21,2.72 12.2,4.41 -1.63,1.65 -3.45,3.39 -5.93,3.2 -14.09,0.67 -28.43,-0.6 -41.9,-4.89 -1.84,-0.78 -3.58,-1.68 -5.31,-2.6 0.721,-1.21 1.491,-2.42 2.28,-3.63 z"
   id="path154"
   inkscape:connector-curvature="0"
   style="fill:#fffefe;stroke:#fffefe;stroke-width:0.5" />
	<path
   d="m 2614.944,253.06 c 6.81,-2.14 14.05,-2.51 20.78,-5 -3.86,7.2 -6.19,15.06 -8.88,22.73 -1.97,6.05 -4.33,11.96 -6.71,17.85 -5.9,0.67 -11.85,0.65 -17.75,0.13 1.64,-6.99 3.86,-13.87 6.78,-20.45 1.81,-3.98 3.26,-8.11 4.67,-12.25 0.33,-1.01 0.699,-2.02 1.11,-3.01 z"
   id="path156"
   inkscape:connector-curvature="0"
   style="fill:#e63e00;stroke:#e63e00;stroke-width:0.5" />
	<path
   d="m 2595.023,255.08 c 6.14,-1.01 12.35,-1.69 18.59,-1.99 0.06,0.75 0.17,2.23 0.22,2.98 -1.41,4.14 -2.86,8.27 -4.67,12.25 -7.94,-1.08 -15.94,-1.55 -23.91,-2.13 -7.8,-1.57 -15.78,-0.99 -23.66,-1.5 -15.63,-0.7 -31.27,-0.46 -46.9,-0.28 -8.54,0.5 -17.16,-0.15 -25.63,1.2 0.18,-3.23 0.4,-6.47 0.66,-9.7 15.9,1.58 31.9,0.9 47.86,1.25 19.16,-0.19 38.361,0.01 57.44,-2.08 z"
   id="path158"
   inkscape:connector-curvature="0"
   style="fill:#f1e8ce;stroke:#f1e8ce;stroke-width:0.5" />
	<path
   d="m 2439.743,253.9 c 13.47,4.29 27.81,5.56 41.9,4.89 2.48,0.19 4.3,-1.55 5.93,-3.2 0.54,0.08 1.61,0.24 2.15,0.32 -0.26,3.23 -0.48,6.47 -0.66,9.7 -8.93,1.65 -18.09,1.45 -27.01,3.1 -5.33,1.04 -10.72,1.68 -16.07,2.54 -2.24,0.29 -4.45,0.53 -6.64,0.81 3.271,-5.51 3.331,-12.49 0.4,-18.16 z"
   id="path160"
   inkscape:connector-curvature="0"
   style="fill:#f5efdd;stroke:#f5efdd;stroke-width:0.5" />
	<path
   d="m 2514.694,264.41 c 15.63,-0.18 31.27,-0.42 46.9,0.28 7.88,0.51 15.86,-0.07 23.66,1.5 7.97,0.58 15.97,1.05 23.91,2.13 -2.92,6.58 -5.14,13.46 -6.78,20.45 5.9,0.52 11.85,0.54 17.75,-0.13 2.38,-5.89 4.74,-11.8 6.71,-17.85 4.96,2.42 10.38,3.66 15.63,5.32 3.92,1.49 7.33,4.01 10.48,6.76 -0.11,0.67 -0.31,2.02 -0.42,2.69 -5.88,6 -14.31,8.26 -22.26,9.97 -8.39,1.58 -16.54,4.5 -25.12,4.83 -6.23,0.21 -12.37,1.23 -18.52,2.11 -15.33,0.86 -30.68,1.6 -46.05,1.41 -13.32,-0.13 -26.67,0.29 -39.96,-0.79 -3.94,-0.26 -7.87,-0.28 -11.79,-0.25 0.27,-11.91 0,-23.82 0.13,-35.73 9.73,-2.47 19.81,-1.59 29.74,-1.63 -1.381,-0.37 -2.681,-0.75 -4.01,-1.07 z"
   id="path162"
   inkscape:connector-curvature="0"
   style="fill:#663725;stroke:#663725;stroke-width:0.5" />
	<path
   d="m 2489.063,265.61 c 8.47,-1.35 17.09,-0.7 25.63,-1.2 1.33,0.32 2.63,0.7 4.01,1.07 -9.93,0.04 -20.01,-0.84 -29.74,1.63 -0.13,11.91 0.14,23.82 -0.13,35.73 -8.92,-2.25 -18.16,-1.85 -27.18,-3.24 -4.95,-0.65 -10.09,-3.4 -14.93,-0.94 -1.25,-4.42 -1.04,-9.46 -3.68,-13.35 -0.88,-1.64 -2.84,-0.95 -4.28,-0.94 2.24,-3.1 3.19,-6.81 3.19,-10.62 -1.93,0.25 -3.81,0.48 -5.67,0.8 3.21,-1.12 6.41,-2.33 9.7,-3.3 5.35,-0.86 10.74,-1.5 16.07,-2.54 8.92,-1.65 18.081,-1.45 27.01,-3.1 z"
   id="path164"
   inkscape:connector-curvature="0"
   style="fill:#947367;stroke:#947367;stroke-width:0.5" />
	<path
   d="m 2436.283,274.55 c 1.86,-0.32 3.74,-0.55 5.67,-0.8 0,3.81 -0.95,7.52 -3.19,10.62 -2.97,4.69 -3.15,10.36 -3.65,15.72 -0.09,-2.27 -0.34,-4.52 -0.56,-6.78 -5.06,-1.58 -9.75,-4.15 -13.75,-7.63 -0.06,-0.73 -0.18,-2.19 -0.24,-2.92 3.09,-2.54 6.29,-5.02 9.98,-6.66 1.871,-0.59 3.79,-1.07 5.74,-1.55 z"
   id="path166"
   inkscape:connector-curvature="0"
   style="fill:#663725;stroke:#663725;stroke-width:0.5" />
	<path
   d="m 2438.763,284.37 c 1.44,-0.01 3.4,-0.7 4.28,0.94 2.64,3.89 2.43,8.93 3.68,13.35 1.3,11.93 1.1,24.26 -2.71,35.74 -0.73,1.39 -2.31,2.05 -3.43,3.03 -2.67,-3.42 -4.46,-7.46 -4.83,-11.8 -0.97,-8.47 -1.25,-17.03 -0.64,-25.54 0.501,-5.36 0.68,-11.03 3.65,-15.72 z"
   id="path168"
   inkscape:connector-curvature="0"
   style="fill:#ffffff;stroke:#ffffff;stroke-width:0.5" />
	<path
   d="m 2420.803,285.68 c 4,3.48 8.69,6.05 13.75,7.63 0.22,2.26 0.47,4.51 0.56,6.78 -0.61,8.51 -0.33,17.07 0.64,25.54 0.37,4.34 2.16,8.38 4.83,11.8 1.25,3.34 1.51,7.01 1.02,10.53 -2.27,3.23 -1.84,7.22 -1.8,10.95 -0.11,4.25 1.49,8.9 5.16,11.35 4.93,18.1 8.15,36.61 12.55,54.85 3.67,11.55 5.55,23.55 8.3,35.33 3.17,15.39 6.05,30.85 8.28,46.4 0.54,11.51 0.29,23.07 0.19,34.59 -2.52,6.12 -2.74,12.92 -1.68,19.39 0.43,2.69 2.06,4.97 3.54,7.21 2.69,3.15 5.81,6.88 10.37,6.81 8.71,1.18 17.4,-5.25 19.32,-13.71 0.94,-4.26 1,-8.67 2.24,-12.87 4.29,-13 3.76,-26.9 3.8,-40.42 -0.3,-11.38 -0.98,-22.84 -3.41,-33.99 -1.26,-5.67 -1.97,-11.44 -2.63,-17.2 -2.49,-14.68 -4.62,-29.41 -7.06,-44.1 -1.29,-6.46 -3.01,-12.86 -3.59,-19.44 -0.66,-7.87 -2.76,-15.53 -3.31,-23.41 -0.41,-5.3 -1.33,-10.54 -1.95,-15.82 -1.75,-16.96 -0.57,-34.03 -1.09,-51.04 3.92,-0.03 7.85,-0.01 11.79,0.25 13.29,1.08 26.64,0.66 39.96,0.79 15.37,0.19 30.72,-0.55 46.05,-1.41 6.15,-0.88 12.29,-1.9 18.52,-2.11 8.58,-0.33 16.73,-3.25 25.12,-4.83 7.95,-1.71 16.38,-3.97 22.26,-9.97 0.62,12.41 0.1,24.85 0.27,37.28 0.05,7.51 0.07,15.06 -0.74,22.53 -2.13,5.53 -1.86,11.56 -3.27,17.25 -3.3,11.99 -5.54,24.23 -9.16,36.13 -2.82,12.14 -7.25,23.78 -10.37,35.82 -1.84,6.28 -3.54,12.58 -5.22,18.89 -5.76,16.99 -9.27,34.64 -12.26,52.29 -1.28,10.6 -0.7,21.3 0.16,31.9 0.57,4.74 1.49,9.43 1.59,14.22 0.3,9.5 2.43,19.05 0.51,28.5 -3.93,2.8 -8.26,4.9 -12.71,6.72 -7.31,-5.95 -16.72,-8.08 -25.84,-9.26 -14.79,-2.8 -29.91,-3.1 -44.91,-2.95 -14.98,0.19 -29.95,1.79 -44.53,5.27 -5.24,1.17 -9.92,3.88 -14.11,7.15 -3.76,-1.77 -7.59,-3.49 -10.75,-6.24 -5.2,-5.35 -1.95,-13.19 -2.25,-19.74 0.4,0.31 0.83,0.63 1.28,0.97 0.19,-14.19 1.35,-28.37 2.75,-42.48 -0.47,-5.95 -1.4,-11.87 -1.8,-17.83 -0.54,-7.5 -3.19,-14.58 -4.78,-21.87 -3.01,-12.45 -5.71,-25 -9.98,-37.1 -3.76,-13.3 -7.43,-26.62 -11.21,-39.91 -5.61,-16.69 -9.24,-33.96 -12.29,-51.27 -0.41,-2.49 -1.08,-4.91 -1.79,-7.31 -0.77,-6.53 -0.16,-13.13 -0.34,-19.69 0,-13.05 -0.03,-26.1 0.02,-39.15 m 141.22,32.6 c -8.05,2.52 -8.11,15.68 -0.25,18.44 3.89,2.44 8.56,0.62 12.03,-1.71 2.33,-2.77 2.32,-6.78 1.98,-10.21 -0.399,-6.31 -8.7,-8.7 -13.76,-6.52 m 45.881,6.94 c -2.96,1.07 -5.13,3.61 -6.78,6.18 -3.43,6.34 -0.83,14.82 5.08,18.69 3.85,1.46 8.2,1.38 12.21,0.56 4.48,-0.99 7.25,-5.2 8.57,-9.31 2.04,-6.3 -2.04,-13.36 -7.88,-15.92 -3.601,-1.19 -7.571,-1.07 -11.2,-0.2 m -18.02,86.09 c -3.11,0.11 -6.23,1.17 -8.47,3.34 -4.88,4.13 -5.17,12.03 -1.79,17.16 3.71,4.35 10.52,6.65 15.84,3.9 3.19,-1.6 6.44,-4 7.4,-7.63 1.22,-4.57 0.41,-10.05 -3.28,-13.28 -2.7,-2.24 -6.2,-3.56 -9.7,-3.49 m -49.641,79.2 c -5.3,3.14 -6.19,10.81 -3.14,15.79 2.18,3.54 6.7,4.06 10.49,3.7 5.05,-0.16 9.1,-5.18 8.81,-10.11 0.03,-4.35 -3.01,-8.4 -7.01,-9.93 -2.989,-0.73 -6.36,-0.81 -9.15,0.55 m 30.83,16.94 c -6.24,1.46 -11.19,6.19 -14.04,11.76 -1.39,3.99 -1.49,8.45 -0.35,12.52 2.63,7.01 9.41,12.29 16.87,13.09 4.62,0.25 9.13,-1.63 12.97,-4.07 5.84,-4.59 7.15,-12.83 5.88,-19.78 -1.85,-9.31 -12.259,-15.52 -21.33,-13.52 m -39.889,28.06 c -3.22,2.14 -6.47,5.22 -6.78,9.31 -0.36,3.92 -0.43,8.58 2.65,11.53 3.62,4.3 10,4.25 15,2.92 4.22,-2.14 8.22,-6.34 7.75,-11.43 0.75,-5.51 -3.87,-9.42 -7.83,-12.34 -3.34,-1.42 -7.461,-1.3 -10.79,0.01 z"
   id="path170"
   inkscape:connector-curvature="0"
   style="fill:#2b090a;stroke:#2b090a;stroke-width:0.5" />
	<path
   d="m 2446.723,298.66 c 4.84,-2.46 9.98,0.29 14.93,0.94 9.02,1.39 18.26,0.99 27.18,3.24 0.52,17.01 -0.66,34.08 1.09,51.04 0.62,5.28 1.54,10.52 1.95,15.82 0.55,7.88 2.65,15.54 3.31,23.41 0.58,6.58 2.3,12.98 3.59,19.44 2.44,14.69 4.57,29.42 7.06,44.1 0.66,5.76 1.37,11.53 2.63,17.2 2.43,11.15 3.11,22.61 3.41,33.99 -0.04,13.52 0.49,27.42 -3.8,40.42 -1.24,4.2 -1.3,8.61 -2.24,12.87 -1.92,8.46 -10.61,14.89 -19.32,13.71 -4.56,0.07 -7.68,-3.66 -10.37,-6.81 1.5,-0.92 3.67,-1.41 4.23,-3.32 1.51,-4.13 0.96,-8.62 1.09,-12.92 -0.11,-3.74 0.16,-8.22 -2.9,-10.94 -1.15,-1.73 -2.91,0.21 -4.28,0.58 0.1,-11.52 0.35,-23.08 -0.19,-34.59 -2.23,-15.55 -5.11,-31.01 -8.28,-46.4 -2.75,-11.78 -4.63,-23.78 -8.3,-35.33 -4.4,-18.24 -7.62,-36.75 -12.55,-54.85 0.66,-3.43 2.57,-6.76 1.94,-10.33 -0.92,-4.3 -1.4,-9.22 -5.3,-11.97 0.49,-3.52 0.23,-7.19 -1.02,-10.53 1.12,-0.98 2.7,-1.64 3.43,-3.03 3.81,-11.48 4.01,-23.81 2.71,-35.74 z"
   id="path172"
   inkscape:connector-curvature="0"
   style="fill:#6b5354;stroke:#6b5354;stroke-width:0.5" />
	<path
   d="m 2562.023,318.28 c 5.06,-2.18 13.36,0.21 13.76,6.52 0.34,3.43 0.35,7.44 -1.98,10.21 -3.47,2.33 -8.14,4.15 -12.03,1.71 -7.859,-2.76 -7.8,-15.92 0.25,-18.44 z"
   id="path174"
   inkscape:connector-curvature="0"
   style="fill:#663725;stroke:#663725;stroke-width:0.5" />
	<path
   d="m 2607.904,325.22 c 3.63,-0.87 7.6,-0.99 11.2,0.2 5.84,2.56 9.92,9.62 7.88,15.92 -1.32,4.11 -4.09,8.32 -8.57,9.31 -4.01,0.82 -8.36,0.9 -12.21,-0.56 -5.91,-3.87 -8.51,-12.35 -5.08,-18.69 1.649,-2.57 3.82,-5.11 6.78,-6.18 z"
   id="path176"
   inkscape:connector-curvature="0"
   style="fill:#663725;stroke:#663725;stroke-width:0.5" />
	<path
   d="m 2421.124,344.52 c 0.71,2.4 1.38,4.82 1.79,7.31 3.05,17.31 6.68,34.58 12.29,51.27 3.78,13.29 7.45,26.61 11.21,39.91 4.27,12.1 6.97,24.65 9.98,37.1 1.59,7.29 4.24,14.37 4.78,21.87 0.4,5.96 1.33,11.88 1.8,17.83 -1.4,14.11 -2.56,28.29 -2.75,42.48 -0.45,-0.34 -0.88,-0.66 -1.28,-0.97 0.3,6.55 -2.95,14.39 2.25,19.74 -1.22,1.72 -2.4,3.56 -2.38,5.75 -0.38,4.89 -0.85,9.86 -0.19,14.75 1.84,2.13 4.87,2.76 7.44,3.77 15.78,4.66 32.2,6.46 48.51,8.16 7.65,0.4 15.33,0.07 23.01,0.16 9.71,-0.12 19.51,0.58 29.15,-1.11 10.88,-0.92 21.7,-2.64 32.36,-5.02 5.14,-1.36 10.57,-2.3 15.16,-5.15 1.72,-7.2 -0.34,-14.69 -0.21,-22 1.92,-9.45 -0.21,-19 -0.51,-28.5 -0.1,-4.79 -1.02,-9.48 -1.59,-14.22 -0.86,-10.6 -1.44,-21.3 -0.16,-31.9 2.99,-17.65 6.5,-35.3 12.26,-52.29 1.68,-6.31 3.38,-12.61 5.22,-18.89 3.12,-12.04 7.55,-23.68 10.37,-35.82 3.62,-11.9 5.86,-24.14 9.16,-36.13 1.41,-5.69 1.14,-11.72 3.27,-17.25 -0.97,11.44 -2.6,22.89 -5.83,33.94 -2.09,12.94 -5.17,25.69 -7.79,38.53 -1.93,8.05 -3.32,16.21 -5.76,24.13 -4.14,18.1 -7.38,36.37 -10.68,54.63 -1.35,5.96 -1.45,12.11 -1.98,18.18 -0.71,8.71 1.05,17.35 0.86,26.05 -0.04,4.36 0.09,8.71 0.23,13.07 0.36,-1.34 0.75,-2.68 1.15,-4.02 -0.67,9.02 0.78,18 0.72,27.02 1.34,8.59 1.92,17.3 1.83,26 -0.07,1.6 -0.35,3.45 -1.85,4.32 -3.77,2.65 -7.63,5.36 -12,6.9 -12.81,3.88 -26.06,6.31 -39.43,6.97 -5.4,0.02 -10.54,2.07 -15.94,1.99 -12.34,0.02 -24.68,0 -37.02,0.01 -5.75,0.1 -11.23,-2.07 -16.96,-2.01 -7.42,-0.51 -14.89,-1.11 -22.13,-2.88 -8.88,-1.62 -18.03,-3.5 -25.7,-8.51 -2.07,-1.35 -4.6,-3.03 -4.49,-5.81 -0.42,-8.88 0.66,-17.73 0.96,-26.59 0.3,-7.02 0.14,-14.08 1.1,-21.04 1.69,-7.38 0.45,-14.98 1.35,-22.43 0.83,-13.67 0.88,-27.55 -2.09,-40.98 -0.64,-7.98 -2.29,-15.81 -4.44,-23.51 -3.42,-18.4 -7.8,-36.61 -11.49,-54.96 -4.24,-13.83 -6.35,-28.18 -9.26,-42.32 -1.01,-9.25 -4.401,-18.16 -4.3,-27.53 z"
   id="path178"
   inkscape:connector-curvature="0"
   style="fill:#b3855a;stroke:#b3855a;stroke-width:0.5" />
	<path
   d="m 2441.604,347.96 c 3.9,2.75 4.38,7.67 5.3,11.97 0.63,3.57 -1.28,6.9 -1.94,10.33 -3.67,-2.45 -5.27,-7.1 -5.16,-11.35 -0.041,-3.73 -0.471,-7.72 1.8,-10.95 z"
   id="path180"
   inkscape:connector-curvature="0"
   style="fill:#fefefe;stroke:#fefefe;stroke-width:0.5" />
	<path
   d="m 2589.884,411.31 c 3.5,-0.07 7,1.25 9.7,3.49 3.69,3.23 4.5,8.71 3.28,13.28 -0.96,3.63 -4.21,6.03 -7.4,7.63 -5.32,2.75 -12.13,0.45 -15.84,-3.9 -3.38,-5.13 -3.09,-13.03 1.79,-17.16 2.24,-2.17 5.359,-3.23 8.47,-3.34 z"
   id="path182"
   inkscape:connector-curvature="0"
   style="fill:#663725;stroke:#663725;stroke-width:0.5" />
	<path
   d="m 2540.243,490.51 c 2.79,-1.36 6.16,-1.28 9.15,-0.55 4,1.53 7.04,5.58 7.01,9.93 0.29,4.93 -3.76,9.95 -8.81,10.11 -3.79,0.36 -8.31,-0.16 -10.49,-3.7 -3.05,-4.98 -2.159,-12.65 3.14,-15.79 z"
   id="path184"
   inkscape:connector-curvature="0"
   style="fill:#663725;stroke:#663725;stroke-width:0.5" />
	<path
   d="m 2571.073,507.45 c 9.07,-2 19.48,4.21 21.33,13.52 1.27,6.95 -0.04,15.19 -5.88,19.78 -3.84,2.44 -8.35,4.32 -12.97,4.07 -7.46,-0.8 -14.24,-6.08 -16.87,-13.09 -1.14,-4.07 -1.04,-8.53 0.35,-12.52 2.851,-5.57 7.8,-10.3 14.04,-11.76 z"
   id="path186"
   inkscape:connector-curvature="0"
   style="fill:#663725;stroke:#663725;stroke-width:0.5" />
	<path
   d="m 2531.184,535.51 c 3.33,-1.31 7.45,-1.43 10.79,-0.01 3.96,2.92 8.58,6.83 7.83,12.34 0.47,5.09 -3.53,9.29 -7.75,11.43 -5,1.33 -11.38,1.38 -15,-2.92 -3.08,-2.95 -3.01,-7.61 -2.65,-11.53 0.309,-4.09 3.559,-7.17 6.78,-9.31 z"
   id="path188"
   inkscape:connector-curvature="0"
   style="fill:#663725;stroke:#663725;stroke-width:0.5" />
	<path
   d="m 2474.283,541.43 c 1.37,-0.37 3.13,-2.31 4.28,-0.58 3.06,2.72 2.79,7.2 2.9,10.94 -0.13,4.3 0.42,8.79 -1.09,12.92 -0.56,1.91 -2.73,2.4 -4.23,3.32 -1.48,-2.24 -3.11,-4.52 -3.54,-7.21 -1.06,-6.47 -0.84,-13.27 1.68,-19.39 z"
   id="path190"
   inkscape:connector-curvature="0"
   style="fill:#ffffff;stroke:#ffffff;stroke-width:0.5" />
	<path
   d="m 2486.053,580.15 c 14.58,-3.48 29.55,-5.08 44.53,-5.27 15,-0.15 30.12,0.15 44.91,2.95 9.12,1.18 18.53,3.31 25.84,9.26 -0.72,2.28 -0.74,5.23 -3.17,6.44 -4.07,2.52 -8.66,4.11 -13.14,5.73 -5.86,1.52 -11.98,1.61 -17.85,3.07 -17.49,1.84 -35.15,2.17 -52.69,0.77 -6.59,-0.03 -12.91,-1.92 -19.4,-2.58 -6.42,-0.71 -12.49,-3.17 -18.25,-5.95 -2.87,-1.38 -4.4,-4.24 -4.89,-7.27 4.191,-3.27 8.87,-5.98 14.11,-7.15 z"
   id="path192"
   inkscape:connector-curvature="0"
   style="fill:#663725;stroke:#663725;stroke-width:0.5" />
	<path
   d="m 2601.333,587.09 c 4.45,-1.82 8.78,-3.92 12.71,-6.72 -0.13,7.31 1.93,14.8 0.21,22 -4.59,2.85 -10.02,3.79 -15.16,5.15 -10.66,2.38 -21.48,4.1 -32.36,5.02 -9.64,1.69 -19.44,0.99 -29.15,1.11 -7.68,-0.09 -15.36,0.24 -23.01,-0.16 -16.31,-1.7 -32.73,-3.5 -48.51,-8.16 -2.57,-1.01 -5.6,-1.64 -7.44,-3.77 -0.66,-4.89 -0.19,-9.86 0.19,-14.75 -0.02,-2.19 1.16,-4.03 2.38,-5.75 3.16,2.75 6.99,4.47 10.75,6.24 0.49,3.03 2.02,5.89 4.89,7.27 5.76,2.78 11.83,5.24 18.25,5.95 6.49,0.66 12.81,2.55 19.4,2.58 17.54,1.4 35.2,1.07 52.69,-0.77 5.87,-1.46 11.99,-1.55 17.85,-3.07 4.48,-1.62 9.07,-3.21 13.14,-5.73 2.431,-1.21 2.451,-4.16 3.17,-6.44 z"
   id="path194"
   inkscape:connector-curvature="0"
   style="fill:#f1e8ce;stroke:#f1e8ce;stroke-width:0.5" />
</g>







</svg>