<?xml version="1.0" encoding="UTF-8" standalone="no"?>
<svg
   xmlns:dc="http://purl.org/dc/elements/1.1/"
   xmlns:cc="http://creativecommons.org/ns#"
   xmlns:rdf="http://www.w3.org/1999/02/22-rdf-syntax-ns#"
   xmlns:svg="http://www.w3.org/2000/svg"
   xmlns="http://www.w3.org/2000/svg"
   xmlns:sodipodi="http://sodipodi.sourceforge.net/DTD/sodipodi-0.dtd"
   xmlns:inkscape="http://www.inkscape.org/namespaces/inkscape"
   version="1.1"
   x="0"
   y="0"
   width="256"
   height="256"
   viewBox="0 0 256.00002 256.00001"
   id="svg286"
   sodipodi:docname="soda_can_orange.svg"
   inkscape:version="0.92.4 (5da689c313, 2019-01-14)">
  <title
     id="title1101">Orange Soda</title>
  <metadata
     id="metadata292">
    <rdf:RDF>
      <cc:Work
         rdf:about="">
        <dc:format>image/svg+xml</dc:format>
        <dc:type
           rdf:resource="http://purl.org/dc/dcmitype/StillImage" />
        <dc:title>Orange Soda</dc:title>
        <cc:license
           rdf:resource="http://creativecommons.org/publicdomain/zero/1.0/" />
        <dc:source>https://openclipart.org/detail/285219</dc:source>
        <dc:creator>
          <cc:Agent>
            <dc:title>oksmith</dc:title>
          </cc:Agent>
        </dc:creator>
      </cc:Work>
      <cc:License
         rdf:about="http://creativecommons.org/publicdomain/zero/1.0/">
        <cc:permits
           rdf:resource="http://creativecommons.org/ns#Reproduction" />
        <cc:permits
           rdf:resource="http://creativecommons.org/ns#Distribution" />
        <cc:permits
           rdf:resource="http://creativecommons.org/ns#DerivativeWorks" />
      </cc:License>
    </rdf:RDF>
  </metadata>
  <defs
     id="defs290" />
  <sodipodi:namedview
     pagecolor="#ffffff"
     bordercolor="#666666"
     borderopacity="1"
     objecttolerance="10"
     gridtolerance="10"
     guidetolerance="10"
     inkscape:pageopacity="0"
     inkscape:pageshadow="2"
     inkscape:window-width="1920"
     inkscape:window-height="1025"
     id="namedview288"
     showgrid="false"
     inkscape:zoom="0.94258169"
     inkscape:cx="369.12392"
     inkscape:cy="13.157977"
     inkscape:window-x="-8"
     inkscape:window-y="-8"
     inkscape:window-maximized="1"
     inkscape:current-layer="svg286"
     fit-margin-top="0"
     fit-margin-left="0"
     fit-margin-right="0"
     fit-margin-bottom="0" />
  <g
     id="g1607"
     transform="matrix(1.0414844,0,0,1.0414844,59.988465,5.0134e-6)">
    <path
       d="m 65.375,244.003 v -1.872 c -15.84,0 -30.528,-3.096 -41.04,-7.992 -5.255,-2.448 -9.503,-5.256 -12.311,-8.352 -1.44,-1.512 -2.448,-3.096 -3.168,-4.608 -0.72,-1.584 -1.08,-3.096 -1.08,-4.68 0,-1.079 0,-154.724 0,-175.604 H 5.904 l 1.8,0.432 0.36,-1.728 c 0.72,-3.168 2.664,-6.264 5.832,-9.216 4.752,-4.392 12.095,-8.279 21.023,-10.943 8.928,-2.736 19.44,-4.32 30.456,-4.32 14.687,0 28.439,2.808 38.807,7.344 5.184,2.231 9.504,4.967 12.6,7.919 3.167,2.952 5.111,6.048 5.831,9.216 l 0.144,0.72 v 0 0.216 0.216 0 c 0.072,0.648 0.072,1.08 0.072,1.44 0,0.432 0,0.864 -0.072,1.44 v 0 0.216 0.216 c 0,0 0,0.648 0,1.944 0,18.792 0.144,169.413 0.144,170.492 0,1.584 -0.36,3.096 -1.08,4.68 -1.224,2.736 -3.599,5.472 -6.911,7.92 -5.04,3.744 -12.24,7.056 -20.736,9.36 -8.568,2.304 -18.432,3.6 -28.799,3.6 v 1.872 1.872 c 16.343,0 31.463,-3.168 42.551,-8.352 5.544,-2.592 10.152,-5.616 13.463,-9.144 1.656,-1.728 2.952,-3.6 3.888,-5.616 0.936,-2.016 1.368,-4.104 1.368,-6.192 0,-1.151 -0.144,-172.436 -0.144,-172.436 h -1.872 l 1.872,0.216 v -0.216 0 c 0.072,-0.72 0.144,-1.368 0.144,-1.944 0,-0.576 -0.072,-1.224 -0.144,-1.944 v 0 -0.072 -0.072 c 0,-0.144 0,-0.288 -0.072,-0.432 l -0.216,-0.864 c -0.936,-4.104 -3.384,-7.848 -6.911,-11.16 -5.328,-4.967 -13.104,-8.927 -22.464,-11.807 -9.288,-2.808 -20.16,-4.464 -31.535,-4.464 -15.192,0 -29.376,2.88 -40.32,7.632 -5.471,2.376 -10.079,5.255 -13.679,8.567 -3.528,3.312 -6.048,7.056 -6.912,11.16 l -0.36,1.728 c 0,0.144 -0.072,0.288 -0.072,0.432 0,20.808 0,174.525 0,175.604 0,2.16 0.504,4.248 1.368,6.192 1.584,3.456 4.392,6.624 8.064,9.36 5.544,4.176 13.103,7.56 22.031,9.936 8.856,2.376 19.08,3.744 29.808,3.744 v -1.872 z"
       id="path41825"
       inkscape:connector-curvature="0"
       style="fill:#373435" />
    <path
       d="m 65.375,244.003 c -32.184,0 -59.471,-12.6 -59.471,-27.432 0,-1.079 0,-154.724 0,-175.604 l 0.36,-1.728 C 9.504,24.695 35.423,13.32 65.375,13.32 c 29.879,0 55.87,11.375 59.11,25.919 l 0.216,0.864 v 0.216 0.216 c 0.072,0.648 0.144,1.224 0.144,1.728 0,0.504 -0.072,1.008 -0.144,1.728 v 0.216 c 0,0 0.144,171.213 0.144,172.436 0,14.904 -27.215,27.432 -59.47,27.432 z"
       id="path41827"
       inkscape:connector-curvature="0"
       style="fill:#d2d3d5" />
    <path
       d="m 127.365,36.863 2.448,0.288 c 0.072,-0.72 0.144,-1.512 0.144,-2.376 0,-0.864 -0.072,-1.656 -0.144,-2.376 l -2.448,0.288 h 2.448 v -1.584 c 0,-0.648 -0.288,-1.296 -0.72,-1.728 -0.432,-0.432 -1.08,-0.72 -1.728,-0.72 h -0.288 v 2.448 l 2.448,-0.504 c -1.008,-4.536 -3.6,-8.639 -7.344,-12.311 C 116.566,12.888 108.502,8.496 98.71,5.4 88.918,2.304 77.542,0.576 65.303,0.576 49.031,0.576 34.127,3.672 22.752,8.928 17.064,11.52 12.168,14.688 8.496,18.288 4.752,21.888 2.16,26.063 1.152,30.599 L 3.6,31.103 V 28.655 H 3.168 c -0.648,0 -1.296,0.288 -1.728,0.72 -0.432,0.432 -0.72,1.08 -0.72,1.728 0,0 0,0.72 0,2.016 0,19.44 0,174.813 0,175.965 0,2.448 0.504,4.824 1.44,7.055 1.656,3.96 4.608,7.488 8.496,10.584 5.832,4.68 13.751,8.424 23.111,11.016 9.36,2.592 20.16,4.104 31.608,4.104 17.495,0 33.335,-3.456 45.071,-9.144 5.832,-2.88 10.655,-6.264 14.111,-10.224 1.728,-1.944 3.096,-4.104 4.032,-6.336 0.936,-2.231 1.44,-4.607 1.44,-7.055 0,-1.152 -0.144,-172.221 -0.144,-172.221 h -2.448 l 2.448,0.288 -2.448,-0.288 h -2.448 c 0,0 0,0.648 0,1.944 0,18.792 0.144,169.197 0.144,170.277 0,1.728 -0.36,3.456 -1.08,5.112 -1.224,2.951 -3.6,5.903 -6.983,8.639 -5.112,4.104 -12.456,7.632 -21.312,10.08 -8.856,2.52 -19.224,3.888 -30.239,3.888 -16.848,0 -32.04,-3.312 -42.839,-8.64 -5.4,-2.664 -9.72,-5.76 -12.528,-9 -1.44,-1.656 -2.52,-3.311 -3.24,-5.039 -0.72,-1.728 -1.08,-3.384 -1.08,-5.112 0,-1.152 0,-177.909 0,-177.909 H 3.384 v 2.448 h 0.432 c 1.152,0 2.16,-0.792 2.448,-1.944 C 6.984,28.223 9,24.911 12.24,21.816 17.064,17.136 24.479,12.96 33.695,10.08 42.911,7.2 53.855,5.472 65.591,5.472 c 15.623,0 29.879,3.024 40.463,7.92 5.328,2.448 9.648,5.328 12.888,8.424 3.167,3.095 5.183,6.479 5.975,9.791 0.288,1.152 1.296,1.944 2.448,1.944 h 0.288 v -2.448 h -2.448 v 1.584 c 0,0.072 0,0.216 0,0.288 0.072,0.648 0.144,1.224 0.144,1.728 0,0.576 -0.072,1.152 -0.144,1.728 0,0.072 0,0.216 0,0.288 h 2.448 z"
       id="path41829"
       inkscape:connector-curvature="0"
       style="fill:#373435" />
    <path
       d="m 127.365,36.863 c 0.072,-0.648 0.144,-1.368 0.144,-2.088 0,-0.72 -0.072,-1.368 -0.144,-2.088 v -1.584 h -0.288 C 123.549,15.264 97.27,3.024 65.303,3.024 33.407,3.024 7.056,15.336 3.528,31.103 H 3.096 c 0,0 0,176.757 0,177.909 0,16.703 27.863,30.311 62.135,30.311 34.343,0 62.134,-13.536 62.134,-30.311 0,-1.152 -0.144,-172.221 -0.144,-172.221 z"
       id="path41831"
       inkscape:connector-curvature="0"
       style="fill:#f79733" />
    <path
       d="m 127.509,34.847 c 0,17.496 -27.863,31.68 -62.134,31.68 C 31.031,66.527 3.24,52.343 3.24,34.847 3.24,17.352 31.103,3.168 65.375,3.168 c 34.343,0 62.134,14.184 62.134,31.679 z"
       id="path41833"
       inkscape:connector-curvature="0"
       style="fill:#d2d3d5" />
    <path
       d="m 124.917,38.447 h -0.648 c 0,3.672 -1.512,7.2 -4.32,10.512 -4.247,4.896 -11.519,9.216 -20.879,12.168 -9.36,3.024 -20.952,4.752 -33.767,4.752 -17.064,0 -31.896,-3.24 -42.407,-8.352 -5.256,-2.592 -9.432,-5.616 -12.24,-8.928 -2.808,-3.312 -4.32,-6.84 -4.32,-10.584 0,-3.672 1.512,-7.2 4.32,-10.44 4.248,-4.823 11.52,-8.999 20.951,-11.951 9.432,-2.952 20.952,-4.608 33.768,-4.608 17.063,0 31.895,3.096 42.407,8.064 5.256,2.52 9.432,5.471 12.239,8.711 2.808,3.24 4.32,6.768 4.32,10.512 h 0.648 0.648 c 0,-4.032 -1.656,-7.848 -4.608,-11.304 C 116.566,21.888 109.15,17.568 99.574,14.544 89.998,11.52 78.406,9.792 65.447,9.792 c -17.208,0 -32.256,3.024 -42.983,8.064 -5.4,2.52 -9.648,5.544 -12.672,8.927 -3.024,3.384 -4.68,7.2 -4.68,11.232 0,4.032 1.656,7.92 4.68,11.376 4.464,5.184 11.952,9.576 21.455,12.744 9.576,3.096 21.24,4.968 34.128,4.968 17.207,0 32.183,-3.168 42.911,-8.352 5.328,-2.592 9.648,-5.616 12.671,-9.072 2.952,-3.456 4.608,-7.272 4.608,-11.304 h -0.648 z"
       id="path41835"
       inkscape:connector-curvature="0"
       style="fill:#373435" />
    <path
       d="m 124.917,38.447 c 0,15.48 -25.271,28.08 -59.614,28.08 -34.344,0 -59.687,-12.96 -59.687,-28.44 0,-15.479 25.343,-27.575 59.687,-27.575 34.343,0 59.614,12.456 59.614,27.935 z"
       id="path41837"
       inkscape:connector-curvature="0"
       style="fill:#e7e8e8" />
    <path
       d="m 127.509,34.847 h -3.096 c 0,1.8 -0.36,3.528 -1.008,5.256 -1.224,3.024 -3.528,6.048 -6.839,8.856 -4.968,4.176 -12.312,7.92 -21.096,10.44 -8.784,2.592 -19.08,4.104 -30.095,4.104 -16.704,0 -31.896,-3.456 -42.551,-8.928 C 17.496,51.839 13.248,48.671 10.512,45.287 9.144,43.631 8.064,41.903 7.416,40.175 6.696,38.447 6.408,36.719 6.408,34.919 c 0,-1.8 0.36,-3.528 1.008,-5.256 1.224,-3.024 3.528,-6.047 6.84,-8.855 4.968,-4.176 12.311,-7.92 21.095,-10.44 8.784,-2.592 19.08,-4.104 30.096,-4.104 16.703,0 31.823,3.456 42.551,8.928 5.328,2.736 9.576,5.904 12.311,9.287 1.368,1.656 2.448,3.384 3.096,5.112 0.72,1.728 1.008,3.456 1.008,5.256 h 3.096 3.096 c 0,-2.592 -0.504,-5.112 -1.512,-7.56 -1.728,-4.175 -4.68,-7.991 -8.64,-11.303 C 114.55,11.016 106.558,7.056 97.126,4.32 87.694,1.584 76.894,0 65.303,0 47.735,0 31.751,3.6 19.944,9.648 14.04,12.672 9.144,16.272 5.616,20.52 3.888,22.608 2.448,24.911 1.512,27.287 0.576,29.663 0,32.255 0,34.847 c 0,2.592 0.504,5.112 1.512,7.56 1.728,4.176 4.68,7.992 8.64,11.304 5.904,4.968 13.895,8.928 23.327,11.664 9.432,2.736 20.232,4.32 31.824,4.32 17.567,0 33.551,-3.6 45.359,-9.648 5.904,-3.024 10.799,-6.624 14.327,-10.872 1.728,-2.088 3.168,-4.392 4.104,-6.768 0.936,-2.376 1.512,-4.968 1.512,-7.56 z"
       id="path41839"
       inkscape:connector-curvature="0"
       style="fill:#373435" />
    <path
       d="m 127.509,34.847 h -1.224 c 0,4.032 -1.584,7.92 -4.608,11.592 -4.535,5.472 -12.167,10.224 -21.959,13.608 -9.792,3.384 -21.6,5.328 -34.343,5.328 -16.992,0 -32.4,-3.528 -43.415,-9.144 C 16.416,53.423 12.024,50.111 9,46.439 5.976,42.839 4.392,38.951 4.392,34.847 4.392,30.815 5.976,26.927 9,23.256 13.536,17.784 21.168,13.032 30.959,9.648 40.751,6.264 52.559,4.32 65.303,4.32 c 16.991,0 32.399,3.528 43.415,9.144 5.544,2.808 9.936,6.12 12.959,9.792 3.024,3.599 4.608,7.487 4.608,11.591 h 1.224 1.224 c 0,-4.68 -1.872,-9.144 -5.184,-13.103 C 118.582,15.84 110.518,10.872 100.51,7.416 90.43,3.96 78.334,1.944 65.375,1.944 c -17.352,0 -33.048,3.6 -44.495,9.432 -5.76,2.952 -10.44,6.408 -13.68,10.368 -3.312,3.959 -5.184,8.423 -5.184,13.103 0,4.68 1.872,9.144 5.184,13.104 4.968,5.904 13.032,10.872 23.039,14.328 10.08,3.456 22.176,5.472 35.136,5.472 17.351,0 33.047,-3.6 44.495,-9.432 5.76,-2.952 10.439,-6.408 13.679,-10.368 3.312,-3.96 5.184,-8.424 5.184,-13.104 z"
       id="path41841"
       inkscape:connector-curvature="0"
       style="fill:#a9abae" />
    <path
       d="m 5.688,72.286 c 0,4.824 3.744,8.784 8.424,8.784 4.608,0 8.424,-3.96 8.424,-8.784 0,-4.823 -3.744,-8.783 -8.424,-8.783 -4.608,0 -8.424,3.96 -8.424,8.783 z"
       id="path41867"
       inkscape:connector-curvature="0"
       style="fill:#f47e35" />
    <path
       d="m 25.991,77.398 c 0,3.672 2.808,6.624 6.264,6.624 3.456,0 6.264,-2.952 6.264,-6.624 0,-3.672 -2.808,-6.551 -6.264,-6.551 -3.456,0 -6.264,2.951 -6.264,6.551 z"
       id="path41869"
       inkscape:connector-curvature="0"
       style="fill:#f47e35" />
    <path
       d="m 41.039,82.51 c 0,3.24 2.52,5.832 5.616,5.832 3.096,0 5.616,-2.592 5.616,-5.832 0,-3.24 -2.52,-5.832 -5.616,-5.832 -3.096,0 -5.616,2.592 -5.616,5.832 z"
       id="path41871"
       inkscape:connector-curvature="0"
       style="fill:#f47e35" />
    <path
       d="m 55.223,86.542 c 0,2.448 1.944,4.464 4.248,4.464 2.376,0 4.248,-2.016 4.248,-4.464 0,-2.448 -1.944,-4.464 -4.248,-4.464 -2.376,0 -4.248,2.016 -4.248,4.464 z"
       id="path41873"
       inkscape:connector-curvature="0"
       style="fill:#f47e35" />
    <path
       d="m 65.375,89.71 c 0,1.872 1.44,3.384 3.24,3.384 1.8,0 3.239,-1.512 3.239,-3.384 0,-1.872 -1.439,-3.384 -3.239,-3.384 -1.8,0 -3.24,1.512 -3.24,3.384 z"
       id="path41875"
       inkscape:connector-curvature="0"
       style="fill:#f47e35" />
    <path
       d="m 74.59,92.158 c 0,1.296 1.008,2.376 2.232,2.376 1.224,0 2.232,-1.08 2.232,-2.376 0,-1.296 -1.008,-2.376 -2.232,-2.376 -1.224,0 -2.232,1.08 -2.232,2.376 z"
       id="path41877"
       inkscape:connector-curvature="0"
       style="fill:#f47e35" />
    <path
       d="m 5.688,92.086 c 0,4.824 3.744,8.784 8.424,8.784 4.608,0 8.424,-3.96 8.424,-8.784 0,-4.824 -3.744,-8.784 -8.424,-8.784 -4.608,0 -8.424,3.96 -8.424,8.784 z"
       id="path41879"
       inkscape:connector-curvature="0"
       style="fill:#f47e35" />
    <path
       d="m 25.991,97.198 c 0,3.672 2.808,6.624 6.264,6.624 3.456,0 6.264,-2.952 6.264,-6.624 0,-3.672 -2.808,-6.552 -6.264,-6.552 -3.456,0 -6.264,2.952 -6.264,6.552 z"
       id="path41881"
       inkscape:connector-curvature="0"
       style="fill:#f47e35" />
    <path
       d="m 41.039,102.31 c 0,3.24 2.52,5.832 5.616,5.832 3.096,0 5.616,-2.592 5.616,-5.832 0,-3.24 -2.52,-5.832 -5.616,-5.832 -3.096,0 -5.616,2.592 -5.616,5.832 z"
       id="path41883"
       inkscape:connector-curvature="0"
       style="fill:#f47e35" />
    <path
       d="m 55.223,106.342 c 0,2.448 1.944,4.464 4.248,4.464 2.376,0 4.248,-2.016 4.248,-4.464 0,-2.448 -1.944,-4.464 -4.248,-4.464 -2.376,0 -4.248,2.016 -4.248,4.464 z"
       id="path41885"
       inkscape:connector-curvature="0"
       style="fill:#f47e35" />
    <path
       d="m 65.375,109.51 c 0,1.872 1.44,3.384 3.24,3.384 1.8,0 3.239,-1.512 3.239,-3.384 0,-1.872 -1.439,-3.384 -3.239,-3.384 -1.8,0 -3.24,1.512 -3.24,3.384 z"
       id="path41887"
       inkscape:connector-curvature="0"
       style="fill:#f47e35" />
    <path
       d="m 74.59,112.03 c 0,1.296 1.008,2.376 2.232,2.376 1.224,0 2.232,-1.08 2.232,-2.376 0,-1.296 -1.008,-2.376 -2.232,-2.376 -1.224,0 -2.232,1.08 -2.232,2.376 z"
       id="path41889"
       inkscape:connector-curvature="0"
       style="fill:#f47e35" />
    <path
       d="m 5.688,111.886 c 0,4.824 3.744,8.783 8.424,8.783 4.608,0 8.424,-3.959 8.424,-8.783 0,-4.824 -3.744,-8.784 -8.424,-8.784 -4.608,0 -8.424,3.96 -8.424,8.784 z"
       id="path41891"
       inkscape:connector-curvature="0"
       style="fill:#f47e35" />
    <path
       d="m 25.991,116.998 c 0,3.671 2.808,6.623 6.264,6.623 3.456,0 6.264,-2.952 6.264,-6.623 0,-3.672 -2.808,-6.552 -6.264,-6.552 -3.456,0 -6.264,2.952 -6.264,6.552 z"
       id="path41893"
       inkscape:connector-curvature="0"
       style="fill:#f47e35" />
    <path
       d="m 41.039,122.109 c 0,3.24 2.52,5.832 5.616,5.832 3.096,0 5.616,-2.592 5.616,-5.832 0,-3.239 -2.52,-5.831 -5.616,-5.831 -3.096,0 -5.616,2.592 -5.616,5.831 z"
       id="path41895"
       inkscape:connector-curvature="0"
       style="fill:#f47e35" />
    <path
       d="m 55.223,126.141 c 0,2.448 1.944,4.464 4.248,4.464 2.376,0 4.248,-2.016 4.248,-4.464 0,-2.448 -1.944,-4.464 -4.248,-4.464 -2.376,0 -4.248,2.016 -4.248,4.464 z"
       id="path41897"
       inkscape:connector-curvature="0"
       style="fill:#f47e35" />
    <path
       d="m 65.375,129.309 c 0,1.872 1.44,3.384 3.24,3.384 1.8,0 3.239,-1.512 3.239,-3.384 0,-1.872 -1.439,-3.384 -3.239,-3.384 -1.8,0 -3.24,1.512 -3.24,3.384 z"
       id="path41899"
       inkscape:connector-curvature="0"
       style="fill:#f47e35" />
    <path
       d="m 74.59,131.829 c 0,1.296 1.008,2.376 2.232,2.376 1.224,0 2.232,-1.08 2.232,-2.376 0,-1.296 -1.008,-2.376 -2.232,-2.376 -1.224,0 -2.232,1.08 -2.232,2.376 z"
       id="path41901"
       inkscape:connector-curvature="0"
       style="fill:#f47e35" />
    <path
       d="m 5.688,131.685 c 0,4.824 3.744,8.784 8.424,8.784 4.608,0 8.424,-3.96 8.424,-8.784 0,-4.824 -3.744,-8.784 -8.424,-8.784 -4.608,0 -8.424,3.96 -8.424,8.784 z"
       id="path41903"
       inkscape:connector-curvature="0"
       style="fill:#f47e35" />
    <path
       d="m 25.991,136.797 c 0,3.672 2.808,6.624 6.264,6.624 3.456,0 6.264,-2.952 6.264,-6.624 0,-3.672 -2.808,-6.552 -6.264,-6.552 -3.456,0 -6.264,2.952 -6.264,6.552 z"
       id="path41905"
       inkscape:connector-curvature="0"
       style="fill:#f47e35" />
    <path
       d="m 41.039,141.909 c 0,3.24 2.52,5.832 5.616,5.832 3.096,0 5.616,-2.592 5.616,-5.832 0,-3.24 -2.52,-5.832 -5.616,-5.832 -3.096,0 -5.616,2.592 -5.616,5.832 z"
       id="path41907"
       inkscape:connector-curvature="0"
       style="fill:#f47e35" />
    <path
       d="m 55.223,145.941 c 0,2.448 1.944,4.464 4.248,4.464 2.376,0 4.248,-2.016 4.248,-4.464 0,-2.448 -1.944,-4.464 -4.248,-4.464 -2.376,0 -4.248,2.016 -4.248,4.464 z"
       id="path41909"
       inkscape:connector-curvature="0"
       style="fill:#f47e35" />
    <path
       d="m 65.375,149.109 c 0,1.872 1.44,3.384 3.24,3.384 1.8,0 3.239,-1.512 3.239,-3.384 0,-1.872 -1.439,-3.384 -3.239,-3.384 -1.8,0 -3.24,1.512 -3.24,3.384 z"
       id="path41911"
       inkscape:connector-curvature="0"
       style="fill:#f47e35" />
    <path
       d="m 74.59,151.629 c 0,1.296 1.008,2.376 2.232,2.376 1.224,0 2.232,-1.08 2.232,-2.376 0,-1.296 -1.008,-2.376 -2.232,-2.376 -1.224,0 -2.232,1.08 -2.232,2.376 z"
       id="path41913"
       inkscape:connector-curvature="0"
       style="fill:#f47e35" />
    <path
       d="m 5.688,151.485 c 0,4.824 3.744,8.784 8.424,8.784 4.608,0 8.424,-3.96 8.424,-8.784 0,-4.824 -3.744,-8.784 -8.424,-8.784 -4.608,0 -8.424,3.96 -8.424,8.784 z"
       id="path41915"
       inkscape:connector-curvature="0"
       style="fill:#f47e35" />
    <path
       d="m 25.991,156.597 c 0,3.672 2.808,6.552 6.264,6.552 3.456,0 6.264,-2.952 6.264,-6.552 0,-3.672 -2.808,-6.624 -6.264,-6.624 -3.456,0 -6.264,2.952 -6.264,6.624 z"
       id="path41917"
       inkscape:connector-curvature="0"
       style="fill:#f47e35" />
    <path
       d="m 41.039,161.709 c 0,3.24 2.52,5.832 5.616,5.832 3.096,0 5.616,-2.592 5.616,-5.832 0,-3.24 -2.52,-5.832 -5.616,-5.832 -3.096,0 -5.616,2.592 -5.616,5.832 z"
       id="path41919"
       inkscape:connector-curvature="0"
       style="fill:#f47e35" />
    <path
       d="m 55.223,165.741 c 0,2.447 1.944,4.463 4.248,4.463 2.376,0 4.248,-2.016 4.248,-4.463 0,-2.448 -1.944,-4.464 -4.248,-4.464 -2.376,0 -4.248,2.016 -4.248,4.464 z"
       id="path41921"
       inkscape:connector-curvature="0"
       style="fill:#f47e35" />
    <path
       d="m 65.375,168.908 c 0,1.872 1.44,3.384 3.24,3.384 1.8,0 3.239,-1.512 3.239,-3.384 0,-1.871 -1.439,-3.383 -3.239,-3.383 -1.8,0 -3.24,1.512 -3.24,3.383 z"
       id="path41923"
       inkscape:connector-curvature="0"
       style="fill:#f47e35" />
    <path
       d="m 74.59,171.428 c 0,1.296 1.008,2.376 2.232,2.376 1.224,0 2.232,-1.08 2.232,-2.376 0,-1.296 -1.008,-2.376 -2.232,-2.376 -1.224,0 -2.232,1.08 -2.232,2.376 z"
       id="path41925"
       inkscape:connector-curvature="0"
       style="fill:#f47e35" />
    <path
       d="m 5.688,171.284 c 0,4.824 3.744,8.784 8.424,8.784 4.608,0 8.424,-3.96 8.424,-8.784 0,-4.823 -3.744,-8.783 -8.424,-8.783 -4.608,0 -8.424,3.96 -8.424,8.783 z"
       id="path41927"
       inkscape:connector-curvature="0"
       style="fill:#f47e35" />
    <path
       d="m 25.991,176.396 c 0,3.672 2.808,6.624 6.264,6.624 3.456,0 6.264,-2.952 6.264,-6.624 0,-3.672 -2.808,-6.552 -6.264,-6.552 -3.456,0 -6.264,2.952 -6.264,6.552 z"
       id="path41929"
       inkscape:connector-curvature="0"
       style="fill:#f47e35" />
    <path
       d="m 41.039,181.58 c 0,3.24 2.52,5.832 5.616,5.832 3.096,0 5.616,-2.592 5.616,-5.832 0,-3.24 -2.52,-5.832 -5.616,-5.832 -3.096,0 -5.616,2.592 -5.616,5.832 z"
       id="path41931"
       inkscape:connector-curvature="0"
       style="fill:#f47e35" />
    <path
       d="m 55.223,185.54 c 0,2.448 1.944,4.464 4.248,4.464 2.376,0 4.248,-2.016 4.248,-4.464 0,-2.448 -1.944,-4.464 -4.248,-4.464 -2.376,0 -4.248,2.016 -4.248,4.464 z"
       id="path41933"
       inkscape:connector-curvature="0"
       style="fill:#f47e35" />
    <path
       d="m 65.375,188.708 c 0,1.872 1.44,3.384 3.24,3.384 1.8,0 3.239,-1.512 3.239,-3.384 0,-1.872 -1.439,-3.384 -3.239,-3.384 -1.8,0 -3.24,1.512 -3.24,3.384 z"
       id="path41935"
       inkscape:connector-curvature="0"
       style="fill:#f47e35" />
    <path
       d="m 74.59,191.228 c 0,1.296 1.008,2.376 2.232,2.376 1.224,0 2.232,-1.08 2.232,-2.376 0,-1.296 -1.008,-2.376 -2.232,-2.376 -1.224,0 -2.232,1.08 -2.232,2.376 z"
       id="path41937"
       inkscape:connector-curvature="0"
       style="fill:#f47e35" />
    <path
       d="m 5.688,191.084 c 0,4.824 3.744,8.784 8.424,8.784 4.608,0 8.424,-3.96 8.424,-8.784 0,-4.824 -3.744,-8.784 -8.424,-8.784 -4.608,0 -8.424,3.96 -8.424,8.784 z"
       id="path41939"
       inkscape:connector-curvature="0"
       style="fill:#f47e35" />
    <path
       d="m 25.991,196.196 c 0,3.672 2.808,6.552 6.264,6.552 3.456,0 6.264,-2.952 6.264,-6.552 0,-3.672 -2.808,-6.624 -6.264,-6.624 -3.456,0 -6.264,2.952 -6.264,6.624 z"
       id="path41941"
       inkscape:connector-curvature="0"
       style="fill:#f47e35" />
    <path
       d="m 41.039,201.38 c 0,3.24 2.52,5.832 5.616,5.832 3.096,0 5.616,-2.592 5.616,-5.832 0,-3.24 -2.52,-5.832 -5.616,-5.832 -3.096,0 -5.616,2.592 -5.616,5.832 z"
       id="path41943"
       inkscape:connector-curvature="0"
       style="fill:#f47e35" />
    <path
       d="m 55.223,205.34 c 0,2.448 1.944,4.464 4.248,4.464 2.376,0 4.248,-2.016 4.248,-4.464 0,-2.448 -1.944,-4.464 -4.248,-4.464 -2.376,0 -4.248,2.016 -4.248,4.464 z"
       id="path41945"
       inkscape:connector-curvature="0"
       style="fill:#f47e35" />
    <path
       d="m 65.375,208.508 c 0,1.872 1.44,3.384 3.24,3.384 1.8,0 3.239,-1.512 3.239,-3.384 0,-1.872 -1.439,-3.384 -3.239,-3.384 -1.8,0 -3.24,1.512 -3.24,3.384 z"
       id="path41947"
       inkscape:connector-curvature="0"
       style="fill:#f47e35" />
    <path
       d="m 74.59,211.028 c 0,1.296 1.008,2.376 2.232,2.376 1.224,0 2.232,-1.08 2.232,-2.376 0,-1.296 -1.008,-2.376 -2.232,-2.376 -1.224,0 -2.232,1.08 -2.232,2.376 z"
       id="path41949"
       inkscape:connector-curvature="0"
       style="fill:#f47e35" />
    <path
       d="m 5.688,210.884 c 0,4.823 3.744,8.783 8.424,8.783 4.608,0 8.424,-3.96 8.424,-8.783 0,-4.824 -3.744,-8.784 -8.424,-8.784 -4.608,0 -8.424,3.96 -8.424,8.784 z"
       id="path41951"
       inkscape:connector-curvature="0"
       style="fill:#f47e35" />
    <path
       d="m 25.991,215.995 c 0,3.672 2.808,6.552 6.264,6.552 3.456,0 6.264,-2.952 6.264,-6.552 0,-3.671 -2.808,-6.551 -6.264,-6.551 -3.456,0 -6.264,2.952 -6.264,6.551 z"
       id="path41953"
       inkscape:connector-curvature="0"
       style="fill:#f47e35" />
    <path
       d="m 41.039,221.179 c 0,3.24 2.52,5.832 5.616,5.832 3.096,0 5.616,-2.592 5.616,-5.832 0,-3.24 -2.52,-5.831 -5.616,-5.831 -3.096,0 -5.616,2.591 -5.616,5.831 z"
       id="path41955"
       inkscape:connector-curvature="0"
       style="fill:#f47e35" />
    <path
       d="m 55.223,225.139 c 0,2.448 1.944,4.464 4.248,4.464 2.376,0 4.248,-2.016 4.248,-4.464 0,-2.448 -1.944,-4.464 -4.248,-4.464 -2.376,0 -4.248,2.016 -4.248,4.464 z"
       id="path41957"
       inkscape:connector-curvature="0"
       style="fill:#f47e35" />
    <path
       d="m 65.375,228.307 c 0,1.872 1.44,3.384 3.24,3.384 1.8,0 3.239,-1.512 3.239,-3.384 0,-1.872 -1.439,-3.384 -3.239,-3.384 -1.8,0 -3.24,1.512 -3.24,3.384 z"
       id="path41959"
       inkscape:connector-curvature="0"
       style="fill:#f47e35" />
    <path
       d="m 74.59,230.827 c 0,1.296 1.008,2.376 2.232,2.376 1.224,0 2.232,-1.08 2.232,-2.376 0,-1.296 -1.008,-2.376 -2.232,-2.376 -1.224,0 -2.232,1.08 -2.232,2.376 z"
       id="path41961"
       inkscape:connector-curvature="0"
       style="fill:#f47e35" />
    <path
       d="m 77.254,135.789 -0.504,2.16 c 9.216,2.088 17.64,6.624 23.904,13.032 6.264,6.48 10.368,14.832 10.944,25.127 0.072,0.936 0.072,1.8 0.072,2.664 0,6.48 -1.368,11.952 -3.744,16.56 -3.6,6.912 -9.504,11.952 -16.704,15.336 -7.272,3.384 -15.84,5.04 -24.623,5.04 -10.584,0 -21.312,-2.376 -30.024,-6.84 -7.056,-3.6 -12.024,-8.208 -15.335,-13.32 -3.24,-5.112 -4.824,-10.8 -4.824,-16.632 0,-6.336 1.8,-12.743 5.328,-18.719 3.455,-5.976 8.567,-11.448 15.191,-15.768 8.136,-5.328 17.784,-7.92 27.36,-7.92 4.176,0 8.351,0.504 12.383,1.44 h 0.072 -0.072 l 0.504,-2.16 0.504,-2.16 c -4.392,-1.008 -8.855,-1.512 -13.391,-1.512 -10.44,0 -20.88,2.736 -29.808,8.64 -7.128,4.68 -12.743,10.656 -16.559,17.208 -3.816,6.624 -5.904,13.823 -5.904,20.951 0,6.624 1.8,13.104 5.472,19.008 3.744,5.832 9.359,11.016 17.063,14.904 9.432,4.823 20.808,7.343 32.04,7.343 12.383,0 24.623,-3.024 33.983,-9.791 4.68,-3.384 8.568,-7.704 11.304,-12.96 2.736,-5.256 4.248,-11.448 4.248,-18.576 0,-0.936 0,-1.944 -0.072,-2.952 -0.648,-11.303 -5.256,-20.807 -12.24,-27.935 -6.984,-7.128 -16.2,-11.952 -26.136,-14.256 v 0 l -0.504,2.16 z"
       id="path41963"
       inkscape:connector-curvature="0"
       style="fill:#49382f" />
    <path
       d="m 77.254,135.789 c 19.152,4.392 35.424,18.648 36.648,40.175 2.376,41.831 -48.455,49.967 -78.263,34.848 -30.671,-15.552 -26.063,-50.975 0.144,-68.255 12.24,-8.064 27.648,-10.008 41.543,-6.768 z"
       id="path41965"
       inkscape:connector-curvature="0"
       style="fill:#f68e34" />
    <path
       d="m 60.695,142.197 c -1.152,-0.072 -2.232,-0.36 -3.456,-0.72 -1.152,-0.288 -2.448,-0.648 -3.744,-0.648 -0.936,0 -1.944,0.144 -3.024,0.648 -1.008,0.504 -2.088,1.224 -3.168,2.376 l 1.008,0.936 c 1.008,-1.008 1.872,-1.656 2.736,-2.088 0.864,-0.36 1.656,-0.504 2.448,-0.504 1.08,0 2.232,0.288 3.384,0.576 1.152,0.288 2.376,0.648 3.744,0.72 l 0.072,-1.368 z"
       id="path41967"
       inkscape:connector-curvature="0"
       style="fill:#49382f" />
    <path
       d="m 84.886,143.205 c -1.152,-0.072 -2.232,-0.36 -3.456,-0.72 -1.152,-0.288 -2.448,-0.648 -3.744,-0.648 -0.936,0 -1.944,0.144 -3.024,0.648 -1.008,0.504 -2.088,1.224 -3.167,2.376 l 1.007,0.936 c 1.008,-1.008 1.872,-1.656 2.736,-2.088 0.864,-0.36 1.656,-0.504 2.448,-0.504 1.08,0 2.232,0.288 3.384,0.576 1.152,0.288 2.376,0.648 3.744,0.72 l 0.072,-1.368 z"
       id="path41969"
       inkscape:connector-curvature="0"
       style="fill:#49382f" />
    <path
       d="m 68.111,146.301 v 0.072 c 0.216,0.216 1.008,1.296 1.8,2.664 0.792,1.368 1.512,2.952 1.512,4.104 0,0.504 -0.144,0.864 -0.36,1.224 l 1.007,0.864 c 0.504,-0.576 0.648,-1.296 0.648,-2.016 0,-0.864 -0.216,-1.728 -0.576,-2.664 -1.007,-2.592 -3.023,-5.04 -3.023,-5.04 l -1.008,0.864 z"
       id="path41971"
       inkscape:connector-curvature="0"
       style="fill:#49382f" />
    <path
       d="m 50.903,190.868 c -0.072,0.936 -0.792,1.656 -1.728,1.584 -0.936,-0.072 -1.656,-0.792 -1.584,-1.728 0.072,-0.936 0.792,-1.656 1.728,-1.584 0.936,0.072 1.656,0.792 1.584,1.728 z"
       id="path41973"
       inkscape:connector-curvature="0"
       style="fill:#f47e35" />
    <path
       d="m 36.719,184.172 c -0.072,0.936 -0.792,1.656 -1.728,1.584 -0.936,-0.072 -1.656,-0.792 -1.584,-1.728 0.072,-0.936 0.792,-1.656 1.728,-1.584 0.936,0.072 1.656,0.792 1.584,1.728 z"
       id="path41975"
       inkscape:connector-curvature="0"
       style="fill:#f47e35" />
    <path
       d="m 79.918,188.42 c -0.072,0.936 -0.792,1.656 -1.728,1.584 -0.936,-0.072 -1.656,-0.792 -1.584,-1.728 0.072,-0.936 0.792,-1.656 1.728,-1.584 0.936,0.072 1.656,0.792 1.584,1.728 z"
       id="path41977"
       inkscape:connector-curvature="0"
       style="fill:#f47e35" />
    <path
       d="m 57.815,179.06 c -0.072,0.936 -0.792,1.656 -1.728,1.584 -0.936,-0.072 -1.656,-0.792 -1.584,-1.728 0.072,-0.936 0.792,-1.656 1.728,-1.584 0.936,0.072 1.656,0.792 1.584,1.728 z"
       id="path41979"
       inkscape:connector-curvature="0"
       style="fill:#f47e35" />
    <path
       d="m 65.879,209.66 c -0.072,0.936 -0.792,1.656 -1.728,1.584 -0.936,-0.072 -1.656,-0.792 -1.584,-1.728 0.072,-0.936 0.792,-1.656 1.728,-1.584 0.936,0.072 1.656,0.792 1.584,1.728 z"
       id="path41981"
       inkscape:connector-curvature="0"
       style="fill:#f47e35" />
    <path
       d="m 88.63,197.852 c -0.072,0.936 -0.792,1.656 -1.728,1.584 -0.936,-0.072 -1.656,-0.792 -1.584,-1.728 0.072,-0.936 0.792,-1.656 1.728,-1.584 0.936,0.072 1.656,0.792 1.584,1.728 z"
       id="path41983"
       inkscape:connector-curvature="0"
       style="fill:#f47e35" />
    <path
       d="m 76.534,197.348 c -0.072,0.936 -0.792,1.656 -1.728,1.584 -0.936,-0.072 -1.656,-0.792 -1.584,-1.728 0.072,-0.936 0.792,-1.656 1.728,-1.584 0.936,0.072 1.656,0.792 1.584,1.728 z"
       id="path41985"
       inkscape:connector-curvature="0"
       style="fill:#f47e35" />
    <path
       d="m 97.198,194.18 c -0.072,0.936 -0.792,1.656 -1.728,1.584 -0.936,-0.072 -1.656,-0.792 -1.584,-1.728 0.072,-0.936 0.792,-1.656 1.728,-1.584 0.936,0.072 1.656,0.792 1.584,1.728 z"
       id="path41987"
       inkscape:connector-curvature="0"
       style="fill:#f47e35" />
    <path
       d="m 39.599,203.036 c 0,0.936 -0.72,1.728 -1.656,1.728 -0.936,0 -1.728,-0.72 -1.728,-1.656 0,-0.936 0.72,-1.728 1.656,-1.728 0.936,0 1.728,0.72 1.728,1.656 z"
       id="path41989"
       inkscape:connector-curvature="0"
       style="fill:#f47e35" />
    <path
       d="m 52.127,201.02 c -0.072,0.936 -0.792,1.656 -1.728,1.584 -0.936,-0.072 -1.656,-0.792 -1.584,-1.728 0.072,-0.936 0.792,-1.656 1.728,-1.584 0.936,0.072 1.656,0.792 1.584,1.728 z"
       id="path41991"
       inkscape:connector-curvature="0"
       style="fill:#f47e35" />
    <path
       d="m 61.487,187.916 c -0.072,0.936 -0.792,1.656 -1.728,1.584 -0.936,-0.072 -1.656,-0.792 -1.584,-1.728 0.072,-0.936 0.792,-1.656 1.728,-1.584 0.936,0.072 1.656,0.792 1.584,1.728 z"
       id="path41993"
       inkscape:connector-curvature="0"
       style="fill:#f47e35" />
    <path
       d="m 70.775,181.94 c -0.072,0.936 -0.792,1.656 -1.728,1.584 -0.936,-0.072 -1.656,-0.792 -1.584,-1.728 0.072,-0.936 0.792,-1.656 1.728,-1.584 0.936,0.072 1.656,0.792 1.584,1.728 z"
       id="path41995"
       inkscape:connector-curvature="0"
       style="fill:#f47e35" />
    <path
       d="m 66.311,200.228 c -0.072,0.936 -0.792,1.656 -1.728,1.584 -0.936,-0.072 -1.656,-0.792 -1.584,-1.728 0.072,-0.936 0.792,-1.656 1.728,-1.584 0.936,0.072 1.656,0.792 1.584,1.728 z"
       id="path41997"
       inkscape:connector-curvature="0"
       style="fill:#f47e35" />
    <path
       d="m 89.422,186.116 c -0.072,0.936 -0.792,1.656 -1.728,1.584 -0.936,-0.072 -1.656,-0.792 -1.584,-1.728 0.072,-0.936 0.792,-1.656 1.728,-1.584 0.936,0.072 1.656,0.792 1.584,1.728 z"
       id="path41999"
       inkscape:connector-curvature="0"
       style="fill:#f47e35" />
    <path
       d="m 85.174,206.78 c -0.072,0.936 -0.792,1.656 -1.728,1.584 -0.936,-0.072 -1.656,-0.792 -1.584,-1.728 0.072,-0.936 0.792,-1.656 1.728,-1.584 0.936,0.072 1.656,0.792 1.584,1.728 z"
       id="path42001"
       inkscape:connector-curvature="0"
       style="fill:#f47e35" />
    <path
       d="m 75.598,140.109 -0.144,-1.656 0.144,1.368 v -1.368 h -0.144 l 0.144,1.368 v -1.368 1.44 l 0.648,-1.296 c -0.216,-0.144 -0.504,-0.144 -0.648,-0.144 v 1.44 l 0.648,-1.296 -0.72,1.296 1.152,-0.936 c -0.144,-0.144 -0.288,-0.288 -0.432,-0.36 l -0.72,1.296 1.152,-0.936 -1.08,0.864 1.296,-0.36 c 0,-0.144 -0.072,-0.288 -0.288,-0.504 l -1.08,0.864 1.296,-0.36 -0.936,0.216 h 1.008 c 0,-0.072 0,-0.144 0,-0.216 l -0.936,0.216 h 1.008 -0.432 l 0.432,0.072 v -0.072 h -0.432 l 0.432,0.072 v 0 c 0,-0.072 0.144,-0.504 0.36,-0.936 0.432,-0.864 1.152,-2.088 2.16,-3.384 1.512,-1.944 3.744,-4.104 6.48,-5.688 2.736,-1.656 6.048,-2.736 9.864,-2.736 2.592,0 5.472,0.504 8.64,1.8 l 0.648,-1.512 -1.512,-0.648 c -0.864,2.016 -1.872,3.6 -3.096,4.896 -0.936,0.936 -2.016,1.8 -3.384,2.52 -2.016,1.08 -4.68,1.944 -8.208,2.664 -3.528,0.72 -7.92,1.296 -13.392,1.8 v 0 0 l 0.144,1.656 0.144,1.656 c 9.864,-0.936 16.416,-2.016 21.168,-4.032 2.376,-1.008 4.32,-2.304 5.904,-3.96 1.584,-1.656 2.736,-3.6 3.744,-5.832 l 0.648,-1.584 -1.584,-0.648 c -3.528,-1.44 -6.84,-2.016 -9.864,-2.016 -3.528,0 -6.696,0.792 -9.432,2.088 -4.104,1.872 -7.2,4.752 -9.36,7.416 -1.08,1.296 -1.872,2.592 -2.448,3.672 -0.288,0.576 -0.504,1.008 -0.648,1.512 -0.144,0.504 -0.288,0.864 -0.288,1.44 0,0.144 0,0.288 0.072,0.504 0.072,0.288 0.216,0.648 0.576,1.008 0.144,0.144 0.432,0.288 0.648,0.36 0.216,0.072 0.432,0.144 0.648,0.144 h 0.216 v 0 0 l -0.144,-1.656 z"
       id="path42003"
       inkscape:connector-curvature="0"
       style="fill:#49382f" />
    <path
       d="m 75.598,140.109 c -2.088,0.216 9,-21.167 29.448,-12.888 -3.744,8.568 -9.864,11.016 -29.448,12.888 z"
       id="path42005"
       inkscape:connector-curvature="0"
       style="fill:#45b653" />
    <path
       d="m 61.127,135.501 1.584,1.512 c 0.288,-0.288 0.792,-0.648 1.584,-0.864 0.72,-0.216 1.656,-0.36 2.592,-0.36 0.864,0 1.656,0.144 2.376,0.36 0.72,0.216 1.296,0.504 1.656,0.864 v 0 c 0.648,0.576 1.007,1.08 1.223,1.44 0.216,0.36 0.216,0.648 0.216,0.792 0,0.144 0,0.288 -0.144,0.432 -0.216,0.288 -0.647,0.72 -1.439,1.008 -0.72,0.288 -1.728,0.504 -2.736,0.504 -0.936,0 -1.872,-0.144 -2.664,-0.432 -0.792,-0.288 -1.512,-0.72 -2.016,-1.368 -0.432,-0.504 -0.648,-0.864 -0.792,-1.152 -0.144,-0.288 -0.144,-0.504 -0.144,-0.576 0,-0.072 0,-0.144 0.072,-0.216 0,-0.072 0.072,-0.216 0.216,-0.288 v 0 l -1.584,-1.512 -1.584,-1.512 c -0.432,0.432 -0.792,1.008 -1.08,1.584 -0.288,0.648 -0.432,1.296 -0.432,2.016 0,0.792 0.216,1.656 0.576,2.448 0.36,0.792 0.864,1.512 1.512,2.232 1.08,1.224 2.376,2.016 3.744,2.52 1.368,0.504 2.808,0.72 4.248,0.72 2.016,0 4.031,-0.432 5.687,-1.44 0.792,-0.504 1.584,-1.152 2.16,-1.944 0.576,-0.792 0.936,-1.872 0.936,-2.952 0,-1.008 -0.288,-1.944 -0.792,-2.88 -0.504,-0.936 -1.224,-1.8 -2.088,-2.592 v 0 c -0.936,-0.936 -2.16,-1.512 -3.311,-1.872 -1.224,-0.36 -2.448,-0.576 -3.672,-0.576 -1.368,0 -2.736,0.216 -3.96,0.648 -1.224,0.432 -2.448,1.008 -3.384,2.016 v 0 0 l 1.584,1.512 z"
       id="path42007"
       inkscape:connector-curvature="0"
       style="fill:#49382f" />
    <path
       d="m 61.127,135.501 c 2.304,-2.376 8.496,-2.736 11.231,-0.144 7.272,6.768 -5.831,11.016 -10.655,5.472 -1.944,-2.232 -1.8,-4.104 -0.576,-5.328 z"
       id="path42009"
       inkscape:connector-curvature="0"
       style="fill:#90c74a" />
    <path
       d="m 75.526,139.173 c 2.448,-3.096 6.408,-6.048 10.872,-8.208 4.464,-2.16 9.504,-3.528 14.184,-3.528 1.512,0 2.952,0.144 4.392,0.432 l 0.288,-1.296 c -1.512,-0.36 -3.096,-0.504 -4.68,-0.504 -4.896,0 -10.08,1.44 -14.76,3.6 -4.608,2.232 -8.712,5.256 -11.376,8.568 l 1.08,0.864 z"
       id="path42011"
       inkscape:connector-curvature="0"
       style="fill:#49382f" />
    <path
       d="m 23.831,82.15 c 1.728,-1.152 3.096,-1.152 4.176,-0.288 1.08,0.864 1.8,2.664 2.16,5.112 2.16,13.608 -5.904,34.559 -16.271,36.863 -3.6,0.72 -8.136,-1.584 -10.08,-12.167 -2.664,-14.688 9.936,-34.992 18.432,-38.88 2.087,-0.936 5.039,3.384 5.183,4.464 0.216,1.44 -1.224,2.448 -1.872,2.952 -0.648,0.576 -1.224,1.296 -1.8,1.944 l 0.072,0.072 z m -11.015,18.576 v 0 c -0.576,0.144 -0.792,-1.152 -0.936,-1.8 -1.944,4.464 -3.672,10.512 -2.88,16.128 0.36,2.376 1.296,4.32 3.024,3.888 2.52,-0.576 6.048,-4.392 7.56,-7.272 4.895,-9.216 7.127,-18.432 6.551,-23.472 -0.216,-1.656 -1.08,-3.24 -2.232,-2.952 -3.959,0.936 -8.639,7.848 -10.079,13.248 -0.216,0.648 -0.576,2.016 -1.152,2.16 z"
       id="path42013"
       inkscape:connector-curvature="0"
       style="fill:#fefefe" />
    <path
       d="m 34.127,103.318 c -1.008,4.176 -2.664,6.336 -4.176,9.792 l -0.648,-2.952 c 0.936,-1.728 1.656,-3.672 2.232,-5.688 -0.936,0.072 -1.296,-0.432 -1.512,-1.872 -0.72,-4.968 3.168,-10.944 4.248,-11.232 0.432,-0.072 0.864,0.36 1.008,1.008 0.072,0.72 0.072,1.368 -0.072,2.016 4.104,-1.872 6.48,-3.24 7.056,-2.52 0.864,1.152 1.368,2.16 1.584,3.384 0.288,2.16 -0.432,3.384 -1.224,4.896 -1.08,2.016 -2.808,5.904 -2.376,8.64 0.144,1.08 1.008,1.728 1.656,1.584 1.944,-0.432 4.176,-5.544 5.4,-7.632 l 0.648,2.448 c -1.296,3.384 -5.4,12.168 -7.992,12.744 -1.872,0.432 -3.456,-1.944 -3.816,-4.608 -0.648,-4.68 1.152,-8.856 2.52,-12.6 l -0.144,-0.144 -4.464,2.664 z"
       id="path42015"
       inkscape:connector-curvature="0"
       style="fill:#fefefe" />
    <path
       d="m 55.511,108.934 c -0.72,1.224 -3.096,5.472 -4.104,5.688 -1.296,0.288 -4.536,-3.672 -5.112,-7.2 -1.44,-8.568 9.072,-20.016 14.256,-21.456 2.088,-0.576 3.312,1.8 3.384,2.592 0.144,0.792 -0.936,1.8 -1.368,2.088 0.936,0.36 1.512,1.008 1.728,2.52 0.288,2.232 -2.952,7.92 -2.448,11.16 0.144,1.152 0.936,1.512 1.656,1.296 1.872,-0.432 3.96,-4.536 5.616,-6.984 l 0.72,2.448 c -1.44,3.816 -6.48,12.528 -8.64,13.104 -1.512,0.36 -2.376,-1.152 -2.664,-3.168 -0.288,-2.232 0.216,-6.12 0.576,-8.064 l -0.144,-0.144 -3.456,6.048 z m -5.76,-0.504 v 0 c 0.072,0.36 0.432,1.512 1.08,1.152 0.864,-0.504 2.304,-0.576 9.288,-16.416 l -0.144,-0.144 c -10.008,7.488 -10.728,12.024 -10.224,15.336 z"
       id="path42017"
       inkscape:connector-curvature="0"
       style="fill:#fefefe" />
    <path
       d="m 89.998,91.798 0.792,2.952 c -1.944,3.744 -5.4,13.32 -8.64,14.04 -1.728,0.432 -2.88,-1.584 -3.168,-3.96 -0.576,-4.104 1.224,-9.216 2.16,-12.744 l -0.144,-0.144 c -2.16,3.528 -3.96,7.632 -5.472,12.096 -0.504,1.44 -1.656,5.184 -2.88,5.472 -2.015,0.432 -3.095,-3.744 -3.455,-6.048 -0.792,-4.68 1.008,-12.312 3.167,-16.272 0.504,-0.864 0.864,-1.08 1.656,-1.224 2.736,-0.504 2.664,0.504 2.736,0.936 0.36,2.664 -4.32,10.944 -4.104,12.6 0.072,0.432 0.36,0.72 0.576,0.648 0.288,-0.072 0.648,-0.792 0.792,-1.152 2.592,-7.848 9.72,-18.216 11.016,-18.504 0.216,-0.072 0.504,0.216 0.936,1.152 0.432,0.936 0.864,2.16 1.224,3.528 0.36,2.664 -4.392,9.216 -3.744,13.896 0.072,0.648 0.504,1.152 1.008,1.08 1.08,-0.216 2.736,-3.096 3.384,-4.32 l 2.232,-4.032 z"
       id="path42019"
       inkscape:connector-curvature="0"
       style="fill:#fefefe" />
    <path
       d="m 102.238,92.734 -0.144,-0.144 c -1.224,3.096 -5.04,10.44 -7.56,11.016 -2.52,0.576 -4.104,-4.248 -4.536,-7.272 -1.296,-9 7.488,-18.576 10.944,-19.872 0.648,-0.216 2.448,-0.36 2.664,1.152 0.144,1.224 -0.576,2.376 -1.08,3.168 l -4.536,5.472 c -2.52,3.024 -5.544,5.688 -4.464,10.584 0.144,0.504 0.432,0.648 0.792,0.504 1.296,-0.072 3.816,-2.376 5.112,-5.616 l 3.672,-9.216 c 0.36,-0.864 0.72,-2.16 1.44,-2.304 0.936,-0.216 2.088,1.944 2.232,3.096 0.144,1.008 -0.288,2.736 -0.432,3.744 l -2.016,10.368 0.144,0.144 5.76,-9.072 0.648,2.808 -7.992,13.032 c -3.096,12.6 -6.408,17.855 -8.208,18.287 -0.648,0.144 -1.152,-0.504 -1.296,-1.44 -0.72,-4.967 4.896,-15.191 6.984,-18.503 l 1.8,-10.152 z"
       id="path42021"
       inkscape:connector-curvature="0"
       style="fill:#fefefe" />
    <path
       d="m 126.933,86.758 c -2.088,5.544 -6.12,13.104 -10.583,14.184 -3.312,0.792 -5.472,-3.384 -6.192,-7.848 -1.512,-8.928 3.744,-19.656 9.647,-20.952 1.44,-0.36 3.312,-0.216 3.744,2.52 0.504,3.384 -1.008,8.928 -9.071,15.264 l 0.144,1.512 c 0.216,2.664 1.872,3.168 3.312,2.88 3.239,-0.72 6.263,-6.624 8.279,-10.08 l 0.792,2.52 z m -7.2,-9.792 v 0 c -0.072,-0.504 -0.359,-0.864 -0.647,-0.648 -2.16,1.44 -4.248,5.328 -4.824,10.152 3.672,-2.952 5.687,-8.352 5.471,-9.504 z"
       id="path42023"
       inkscape:connector-curvature="0"
       style="fill:#fefefe" />
    <g
       transform="matrix(1,0,0,0.79647086,0,7.1217899)"
       id="g1424">
      <path
         style="fill:#d2d3d5"
         inkscape:connector-curvature="0"
         id="path41843"
         d="m 106.918,35.711 c 0,6.408 -5.256,11.664 -11.664,11.664 H 70.703 c -6.408,0 -11.664,-5.256 -11.664,-11.664 v -1.44 c 0,-6.408 5.256,-11.663 11.664,-11.663 h 24.551 c 6.408,0 11.664,5.255 11.664,11.663 z" />
      <path
         style="fill:#373435"
         inkscape:connector-curvature="0"
         id="path41845"
         d="m 106.918,35.711 h -0.648 c 0,3.024 -1.224,5.832 -3.24,7.776 -2.016,2.016 -4.752,3.24 -7.776,3.24 H 70.703 c -3.024,0 -5.832,-1.224 -7.776,-3.24 -2.016,-2.016 -3.24,-4.752 -3.24,-7.776 v -1.44 c 0,-3.024 1.224,-5.832 3.24,-7.776 2.016,-2.016 4.752,-3.239 7.776,-3.239 h 24.551 c 3.024,0 5.832,1.223 7.776,3.239 2.016,2.016 3.24,4.752 3.24,7.776 v 1.44 h 0.648 0.648 v -1.44 c 0,-6.768 -5.472,-12.311 -12.312,-12.311 H 70.703 c -6.768,0 -12.312,5.471 -12.312,12.311 v 1.44 c 0,6.768 5.472,12.312 12.312,12.312 h 24.551 c 6.768,0 12.312,-5.472 12.312,-12.312 z" />
      <path
         style="fill:#373435"
         inkscape:connector-curvature="0"
         id="path41847"
         d="m 102.382,35.567 h -0.648 c 0,2.448 -1.008,4.608 -2.592,6.264 -1.584,1.584 -3.816,2.592 -6.264,2.592 H 73.006 c -2.447,0 -4.607,-1.008 -6.263,-2.592 -1.584,-1.584 -2.592,-3.816 -2.592,-6.264 v -1.152 c 0,-2.448 1.008,-4.608 2.592,-6.264 1.584,-1.584 3.816,-2.592 6.263,-2.592 h 19.872 c 2.448,0 4.608,1.008 6.264,2.592 1.584,1.584 2.592,3.816 2.592,6.264 v 1.152 h 0.648 0.648 v -1.152 c 0,-5.544 -4.536,-10.08 -10.08,-10.08 H 73.078 c -5.543,0 -10.079,4.536 -10.079,10.08 v 1.152 c 0,5.544 4.536,10.08 10.079,10.08 H 92.95 c 5.544,0 10.08,-4.536 10.08,-10.08 z" />
      <path
         style="fill:#a9abae"
         inkscape:connector-curvature="0"
         id="path41849"
         d="m 102.382,35.567 c 0,5.184 -4.248,9.432 -9.432,9.432 H 73.078 c -5.183,0 -9.431,-4.248 -9.431,-9.432 v -1.152 c 0,-5.184 4.248,-9.432 9.431,-9.432 H 92.95 c 5.184,0 9.432,4.248 9.432,9.432 z" />
      <path
         style="fill:#a0a2a5"
         inkscape:connector-curvature="0"
         id="path41851"
         d="m 77.686,35.711 c 0,6.408 -5.256,11.664 -11.663,11.664 H 41.471 c -6.408,0 -11.664,-5.256 -11.664,-11.664 v -1.44 c 0,-6.408 5.256,-11.663 11.664,-11.663 h 24.552 c 6.407,0 11.663,5.255 11.663,11.663 z" />
      <path
         style="fill:#373435"
         inkscape:connector-curvature="0"
         id="path41853"
         d="m 77.686,35.711 h -0.648 c 0,3.024 -1.224,5.832 -3.24,7.776 -2.016,2.016 -4.751,3.24 -7.775,3.24 H 41.471 c -3.024,0 -5.832,-1.224 -7.776,-3.24 -2.016,-2.016 -3.24,-4.752 -3.24,-7.776 v -1.44 c 0,-3.024 1.224,-5.832 3.24,-7.776 2.016,-2.016 4.752,-3.239 7.776,-3.239 h 24.552 c 3.024,0 5.831,1.223 7.775,3.239 2.016,2.016 3.24,4.752 3.24,7.776 v 1.44 h 0.648 0.648 v -1.44 C 78.334,27.503 72.862,21.96 66.023,21.96 H 41.471 c -6.768,0 -12.312,5.471 -12.312,12.311 v 1.44 c 0,6.768 5.472,12.312 12.312,12.312 h 24.552 c 6.767,0 12.311,-5.472 12.311,-12.312 z" />
      <path
         style="fill:#fefefe"
         inkscape:connector-curvature="0"
         id="path41855"
         d="m 49.031,38.159 c 0,3.096 -3.024,5.616 -6.696,5.616 -3.672,0 -6.696,-2.52 -6.696,-5.616 v -6.048 c 0,-3.096 3.024,-5.616 6.696,-5.616 3.672,0 6.696,2.52 6.696,5.616 z" />
      <path
         style="fill:#373435"
         inkscape:connector-curvature="0"
         id="path41857"
         d="m 49.031,38.159 h -0.648 c 0,1.368 -0.648,2.592 -1.728,3.456 -1.08,0.936 -2.592,1.512 -4.32,1.512 -1.728,0 -3.24,-0.576 -4.32,-1.512 -1.08,-0.936 -1.728,-2.16 -1.728,-3.456 v -6.048 c 0,-1.368 0.648,-2.592 1.728,-3.456 1.08,-0.936 2.592,-1.512 4.32,-1.512 1.728,0 3.24,0.576 4.32,1.512 1.08,0.936 1.728,2.16 1.728,3.456 v 6.048 h 0.648 0.648 v -6.048 c 0,-1.728 -0.864,-3.312 -2.16,-4.392 -1.296,-1.08 -3.168,-1.8 -5.112,-1.8 -2.016,0 -3.816,0.648 -5.112,1.8 -1.296,1.08 -2.16,2.664 -2.16,4.392 v 6.048 c 0,1.728 0.864,3.312 2.16,4.392 1.296,1.08 3.168,1.8 5.112,1.8 2.016,0 3.816,-0.648 5.112,-1.8 1.296,-1.08 2.16,-2.664 2.16,-4.392 z" />
      <path
         style="fill:#fefefe"
         inkscape:connector-curvature="0"
         id="path41859"
         d="m 59.615,26.495 c -3.672,0 -6.696,2.52 -6.696,5.616 v 6.048 c 0,3.096 3.024,5.616 6.696,5.616 3.672,0 6.696,-2.52 6.696,-5.616 v -6.048 c 0,-3.096 -3.024,-5.616 -6.696,-5.616 z m 0,15.768 v 0 c -3.168,0 -5.76,-2.232 -5.76,-4.968 v -4.392 c 0,-2.736 2.592,-4.968 5.76,-4.968 2.808,0 5.184,1.728 5.688,4.032 0.144,0.504 -0.216,1.008 -0.72,1.152 -0.504,0.144 -1.008,-0.216 -1.152,-0.72 -0.288,-1.44 -1.944,-2.52 -3.744,-2.52 -2.088,0 -3.816,1.368 -3.816,3.024 v 4.392 c 0,1.656 1.728,3.024 3.816,3.024 2.088,0 3.816,-1.368 3.816,-3.024 0,-0.504 0.432,-0.936 1.008,-0.936 0.504,0 0.936,0.432 0.936,0.936 0,2.736 -2.592,4.968 -5.76,4.968 z" />
      <path
         style="fill:#373435"
         inkscape:connector-curvature="0"
         id="path41861"
         d="m 59.615,26.495 v -0.648 c -2.016,0 -3.816,0.648 -5.112,1.8 -1.296,1.08 -2.16,2.664 -2.16,4.392 v 6.048 c 0,1.728 0.864,3.312 2.16,4.392 1.296,1.08 3.168,1.8 5.112,1.8 2.016,0 3.816,-0.648 5.112,-1.8 1.296,-1.08 2.16,-2.664 2.16,-4.392 v -6.048 c 0,-1.728 -0.864,-3.312 -2.16,-4.392 -1.296,-1.08 -3.168,-1.8 -5.112,-1.8 v 0.648 0.648 c 1.728,0 3.24,0.576 4.32,1.512 1.08,0.936 1.728,2.16 1.728,3.456 v 6.048 c 0,1.368 -0.648,2.592 -1.728,3.456 -1.08,0.936 -2.592,1.512 -4.32,1.512 -1.728,0 -3.24,-0.576 -4.32,-1.512 -1.08,-0.936 -1.728,-2.16 -1.728,-3.456 v -6.048 c 0,-1.368 0.648,-2.592 1.728,-3.456 1.08,-0.936 2.592,-1.512 4.32,-1.512 z m 0,15.768 v 0 -0.648 c -1.44,0 -2.736,-0.504 -3.672,-1.296 -0.936,-0.792 -1.512,-1.872 -1.512,-3.024 v -4.392 c 0,-1.152 0.576,-2.232 1.512,-3.024 0.936,-0.792 2.232,-1.296 3.672,-1.296 1.296,0 2.448,0.36 3.312,1.008 0.864,0.648 1.512,1.512 1.728,2.52 v 0.072 c 0,0.144 -0.144,0.288 -0.288,0.36 v 0 0 h -0.072 c -0.144,0 -0.288,-0.144 -0.36,-0.288 -0.216,-0.936 -0.792,-1.656 -1.584,-2.16 -0.792,-0.504 -1.728,-0.864 -2.808,-0.864 -1.224,0 -2.304,0.36 -3.096,1.008 -0.792,0.648 -1.368,1.584 -1.368,2.664 v 4.392 c 0,1.08 0.576,2.016 1.368,2.664 0.792,0.648 1.872,1.008 3.096,1.008 1.224,0 2.304,-0.36 3.096,-1.008 0.792,-0.648 1.368,-1.584 1.368,-2.664 0,-0.216 0.144,-0.36 0.36,-0.36 0.216,0 0.36,0.144 0.36,0.36 0,1.152 -0.576,2.232 -1.512,3.024 -0.936,0.792 -2.232,1.296 -3.672,1.296 v 0.648 0.648 c 1.728,0 3.312,-0.576 4.464,-1.584 1.152,-1.008 1.944,-2.448 1.872,-3.96 0,-0.864 -0.72,-1.584 -1.584,-1.584 -0.864,0 -1.584,0.72 -1.584,1.584 0,0.648 -0.288,1.224 -0.864,1.656 -0.576,0.432 -1.368,0.792 -2.304,0.792 -0.936,0 -1.728,-0.288 -2.304,-0.792 -0.576,-0.432 -0.864,-1.08 -0.864,-1.656 v -4.392 c 0,-0.648 0.288,-1.224 0.864,-1.656 0.576,-0.432 1.368,-0.792 2.304,-0.792 0.792,0 1.584,0.216 2.088,0.648 0.576,0.36 0.936,0.864 1.08,1.44 0.144,0.72 0.792,1.224 1.584,1.224 0.144,0 0.216,0 0.36,0 v 0 0 c 0.72,-0.144 1.224,-0.792 1.224,-1.584 0,-0.144 0,-0.216 0,-0.36 -0.288,-1.368 -1.08,-2.52 -2.232,-3.312 -1.152,-0.792 -2.52,-1.296 -4.032,-1.296 -1.728,0 -3.312,0.576 -4.464,1.584 -1.152,1.008 -1.944,2.448 -1.872,3.96 v 4.392 c 0,1.584 0.72,3.024 1.872,3.96 1.152,1.008 2.736,1.584 4.464,1.584 v -0.648 z" />
      <path
         style="fill:#a9abae"
         inkscape:connector-curvature="0"
         id="path41863"
         d="m 63.143,34.991 c 0,1.368 -1.08,2.448 -2.448,2.448 -1.368,0 -2.448,-1.08 -2.448,-2.448 0,-1.368 1.08,-2.448 2.448,-2.448 1.368,0 2.448,1.08 2.448,2.448 z" />
      <path
         style="fill:#373435"
         inkscape:connector-curvature="0"
         id="path41865"
         d="m 63.143,34.991 h -0.648 c 0,1.008 -0.792,1.8 -1.8,1.8 -1.008,0 -1.8,-0.792 -1.8,-1.8 0,-1.008 0.792,-1.8 1.8,-1.8 1.008,0 1.8,0.792 1.8,1.8 h 0.648 0.648 c 0,-1.656 -1.368,-3.024 -3.024,-3.024 -1.656,0 -3.024,1.368 -3.024,3.024 0,1.656 1.368,3.024 3.024,3.024 1.656,0 3.024,-1.368 3.024,-3.024 z" />
    </g>
  </g>
</svg>
