<?xml version="1.0" encoding="UTF-8" standalone="no"?>
<svg
   xmlns:dc="http://purl.org/dc/elements/1.1/"
   xmlns:cc="http://creativecommons.org/ns#"
   xmlns:rdf="http://www.w3.org/1999/02/22-rdf-syntax-ns#"
   xmlns:svg="http://www.w3.org/2000/svg"
   xmlns="http://www.w3.org/2000/svg"
   xmlns:sodipodi="http://sodipodi.sourceforge.net/DTD/sodipodi-0.dtd"
   xmlns:inkscape="http://www.inkscape.org/namespaces/inkscape"
   version="1.1"
   id="Layer_1"
   x="0px"
   y="0px"
   viewBox="0 0 256 256"
   enable-background="new 0 0 3000 1500"
   xml:space="preserve"
   sodipodi:docname="water_mug.svg"
   inkscape:version="0.92.4 (5da689c313, 2019-01-14)"
   width="256"
   height="256"><title
   id="title2730">Water Mug</title><metadata
   id="metadata1923"><rdf:RDF><cc:Work
       rdf:about=""><dc:format>image/svg+xml</dc:format><dc:type
         rdf:resource="http://purl.org/dc/dcmitype/StillImage" /><dc:title>Water Mug</dc:title><cc:license
         rdf:resource="http://creativecommons.org/publicdomain/zero/1.0/" /><dc:creator><cc:Agent><dc:title>GDJ</dc:title></cc:Agent></dc:creator><dc:source>https://openclipart.org/detail/306096</dc:source></cc:Work><cc:License
       rdf:about="http://creativecommons.org/publicdomain/zero/1.0/"><cc:permits
         rdf:resource="http://creativecommons.org/ns#Reproduction" /><cc:permits
         rdf:resource="http://creativecommons.org/ns#Distribution" /><cc:permits
         rdf:resource="http://creativecommons.org/ns#DerivativeWorks" /></cc:License></rdf:RDF></metadata><defs
   id="defs1921" /><sodipodi:namedview
   pagecolor="#ffffff"
   bordercolor="#666666"
   borderopacity="1"
   objecttolerance="10"
   gridtolerance="10"
   guidetolerance="10"
   inkscape:pageopacity="0"
   inkscape:pageshadow="2"
   inkscape:window-width="1920"
   inkscape:window-height="1025"
   id="namedview1919"
   showgrid="false"
   inkscape:zoom="0.40533333"
   inkscape:cx="239.57354"
   inkscape:cy="37.192945"
   inkscape:window-x="-8"
   inkscape:window-y="-8"
   inkscape:window-maximized="1"
   inkscape:current-layer="Layer_1"
   fit-margin-top="0"
   fit-margin-left="0"
   fit-margin-right="0"
   fit-margin-bottom="0" />





<g
   id="g740"
   transform="matrix(0.55611551,0,0,0.55611551,-999.54367,-335.82312)">
	<path
   d="m 1887.125,617.16 c 28.31,-7.75 57.61,-11.1 86.84,-12.94 19.71,-0.46 39.46,0.74 59.04,3.08 23.69,2.92 47.42,7.63 69.39,17.24 13.78,6.18 27.23,14.35 36.55,26.49 3.08,4.5 6.38,9.34 6.81,14.93 0.4,19.69 -1.28,39.32 -1.9,58.99 16.25,-4.11 34.36,-1.82 48.15,8.07 15.99,11.27 25.36,29.34 31.49,47.45 4.16,13.8 7.73,28.01 7.45,42.53 1.24,34.02 -11.77,68.81 -36.49,92.47 -16.64,16.01 -38.73,26.94 -62.02,27.85 -1.22,20.44 -2.18,40.9 -4.12,61.28 -0.54,5.01 -3.88,9.05 -6.68,13.02 -9.86,12.87 -23.83,21.97 -38.53,28.43 -22.07,9.87 -45.86,16.07 -70.01,17.57 -14.61,0.43 -29.24,0.56 -43.82,-0.27 -30.61,-3.37 -61.38,-8.28 -90.23,-19.4 -10.2,-4.06 -20.17,-9.18 -28.27,-16.69 -5.74,-5.39 -10.73,-12.26 -11.61,-20.29 -1.02,-16.98 -2.53,-33.94 -3.02,-50.95 -1.08,-27.98 -2.58,-55.93 -3.75,-83.91 -1.23,-21.05 -1.53,-42.14 -2.8,-63.19 -1.39,-23.31 -1.87,-46.66 -3.1,-69.98 -1.28,-23.27 -1.63,-46.59 -2.39,-69.89 -0.77,-10.54 5.87,-19.86 13.1,-26.85 13.95,-12.8 32.07,-19.63 49.92,-25.04 m 83.329,-8.56 c -30.66,1.92 -61.46,5.75 -90.82,15.09 -15.23,5.38 -30.71,12.01 -42.07,23.87 -5.5,6 -10.63,13.96 -8.85,22.47 0.67,7.7 5.46,14.25 11.15,19.16 7.9,6.97 17.45,11.68 26.99,15.98 8.47,3.51 16.96,7.1 25.94,9.12 23.44,6.73 47.98,7.51 72.19,8.43 24.35,1.04 48.88,0.94 73.05,-2.62 15.12,-1.83 29.93,-5.5 44.61,-9.44 15.3,-4.55 31.23,-8.97 44.02,-18.96 8.06,-6.2 14.14,-15.43 14.95,-25.72 -1.61,-8.95 -8.24,-15.94 -14.74,-21.84 -16.62,-14.05 -37.66,-21.33 -58.45,-26.63 -18.85,-4.28 -38.03,-7.1 -57.33,-8.1 -13.529,-0.82 -27.11,-1.64 -40.64,-0.81 m 162.29,83.17 c -6.73,6.36 -15.05,10.75 -23.49,14.37 -17.46,6.64 -35.56,11.5 -53.85,15.15 -21.48,4.55 -43.5,5.8 -65.4,5.95 -12.87,0.14 -25.73,-0.91 -38.57,-0.9 -4.77,-0.79 -9.61,-0.75 -14.4,-0.98 -13.38,-0.29 -26.6,-2.75 -39.59,-5.76 -10.14,-2.05 -19.94,-5.56 -29.43,-9.61 -14.62,-6.27 -29.84,-13.7 -39.18,-27.14 0.22,19.74 1.12,39.48 1.69,59.22 1.42,25.3 1.8,50.65 3.63,75.92 1.05,14.92 1.02,29.91 2.05,44.82 -0.18,5.76 0.19,11.52 0.4,17.27 1.4,28.23 2.54,56.46 3.98,84.68 0.75,11.08 1.5,22.17 1.9,33.28 0.34,5.03 0.1,10.37 2.52,14.98 4.31,8.94 12.39,15.31 20.8,20.2 5.74,2.92 11.42,6.46 17.85,7.6 3.41,2.1 7.29,3.23 11.12,4.39 9.81,2.71 19.58,5.72 29.67,7.36 35.68,7.44 72.65,9.99 108.83,4.79 19.53,-3.56 38.53,-9.96 56.29,-18.83 12.97,-6.95 25.18,-16.35 32.78,-29.18 2.8,-4.27 2.3,-9.55 2.84,-14.4 0.86,-11 1.58,-22.02 2.28,-33.03 0.35,-18.67 2.34,-37.24 3.33,-55.87 1.65,-22.65 2.61,-45.34 3.67,-68.02 -0.04,-6.57 1.38,-13.17 0.37,-19.7 0.79,-1.1 0.61,-2.57 0.83,-3.83 1.92,-33.82 3.37,-67.66 4.51,-101.52 0.2,-10.46 1.49,-20.91 1.07,-31.38 -2.68,3.51 -5.29,7.11 -8.5,10.17 m 10.8,37.67 c -0.14,8.31 -0.9,16.62 -0.85,24.94 7.86,-1.68 16.17,-2.7 23.98,-0.13 13.04,3.47 22.09,14.96 27.17,26.91 7.86,19.41 10.09,40.87 7.78,61.6 l 0.42,0.54 c -1.61,4.43 -1.54,9.24 -2.99,13.71 -1.42,5.84 -4.25,11.22 -5.82,17 -2.65,3.22 -4.37,7.06 -6.81,10.42 -4.44,6.12 -9.85,11.56 -16.04,15.92 -10.37,7.45 -23.18,10.95 -35.84,11.32 -0.98,9.15 -1.01,18.38 -1.71,27.57 11.18,-1.01 22.96,-2.92 32.62,-8.83 3.59,-1.01 6.7,-3.15 9.86,-5.09 8.05,-5.04 15.29,-11.3 21.72,-18.29 1.34,-1.57 3.12,-3 3.68,-5.07 5.08,-4.54 8.14,-10.84 11.62,-16.59 16.78,-30.76 18.87,-68.46 7.89,-101.5 -5.11,-16.61 -13.15,-33.08 -26.6,-44.5 -13.53,-11.55 -33.18,-15.65 -50.08,-9.93 m -1.04,29.23 c -0.9,11.1 -0.93,22.26 -1.72,33.37 -1.59,38.48 -3.81,76.92 -6.06,115.37 13.03,0.09 26.07,-4.26 36.19,-12.52 12.88,-10.2 21.22,-25.36 24.7,-41.28 4.38,-18.18 3.71,-37.37 -0.63,-55.49 -1.35,-7 -4,-13.66 -7.1,-20.04 -4.3,-8.28 -10.92,-15.83 -19.85,-19.14 -8.11,-3.52 -17.24,-2.52 -25.53,-0.27 z"
   id="path714"
   inkscape:connector-curvature="0"
   style="stroke:#000000;stroke-width:0.5" />
	<path
   d="m 1970.454,608.6 c 13.53,-0.83 27.11,-0.01 40.64,0.81 19.3,1 38.48,3.82 57.33,8.1 20.79,5.3 41.83,12.58 58.45,26.63 6.5,5.9 13.13,12.89 14.74,21.84 -0.81,10.29 -6.89,19.52 -14.95,25.72 -12.79,9.99 -28.72,14.41 -44.02,18.96 -14.68,3.94 -29.49,7.61 -44.61,9.44 -24.17,3.56 -48.7,3.66 -73.05,2.62 -24.21,-0.92 -48.75,-1.7 -72.19,-8.43 -8.98,-2.02 -17.47,-5.61 -25.94,-9.12 -9.54,-4.3 -19.09,-9.01 -26.99,-15.98 -5.69,-4.91 -10.48,-11.46 -11.15,-19.16 -1.78,-8.51 3.35,-16.47 8.85,-22.47 11.36,-11.86 26.84,-18.49 42.07,-23.87 29.361,-9.34 60.161,-13.17 90.82,-15.09 m -10.12,13.73 c -13.89,0.68 -27.74,2.18 -41.45,4.53 -17.17,2.66 -34.21,6.94 -50.16,13.94 -8.73,3.93 -16.69,10.77 -19.86,20.04 -1.64,5.82 -2.03,12.6 1.36,17.9 4.43,6.95 11.68,11.4 18.87,15.07 20.37,9.43 42.76,13.2 64.88,15.86 41.78,4.65 84.28,3.5 125.6,-4.37 17.44,-3.97 35.21,-8.49 50.43,-18.27 5.6,-3.95 11.36,-8.79 13.2,-15.7 1.81,-6.2 -0.72,-12.92 -5.07,-17.43 -7.82,-8.32 -18.55,-12.97 -29.02,-16.98 -17.47,-6.24 -35.78,-9.73 -54.14,-12.09 -24.709,-3.42 -49.75,-3.29 -74.64,-2.5 z"
   id="path716"
   inkscape:connector-curvature="0"
   style="fill:#16a0b7;stroke:#16a0b7;stroke-width:0.5" />
	<path
   d="m 1960.334,622.33 c 24.89,-0.79 49.93,-0.92 74.64,2.5 18.36,2.36 36.67,5.85 54.14,12.09 10.47,4.01 21.2,8.66 29.02,16.98 4.35,4.51 6.88,11.23 5.07,17.43 -1.84,6.91 -7.6,11.75 -13.2,15.7 -15.22,9.78 -32.99,14.3 -50.43,18.27 -41.32,7.87 -83.82,9.02 -125.6,4.37 -22.12,-2.66 -44.51,-6.43 -64.88,-15.86 -7.19,-3.67 -14.44,-8.12 -18.87,-15.07 -3.39,-5.3 -3,-12.08 -1.36,-17.9 3.17,-9.27 11.13,-16.11 19.86,-20.04 15.95,-7 32.99,-11.28 50.16,-13.94 13.71,-2.35 27.56,-3.85 41.45,-4.53 m -32.23,7.03 c -18.16,2.79 -36.34,6.44 -53.47,13.24 -7.09,2.99 -14.29,6.77 -18.77,13.27 -4.15,6.18 -6.13,14.83 -1.8,21.45 3.77,-4.35 8.04,-8.33 13.15,-11.08 14.81,-7.99 31.25,-12.51 47.76,-15.4 28.65,-5.32 57.95,-5.75 87,-5.01 21.99,0.48 43.88,3.22 65.38,7.81 9.06,2.52 18.2,5.12 26.6,9.46 7.64,3.72 15.18,8.66 19.17,16.44 4.25,-3.96 8.15,-9.84 6.22,-15.89 -2.52,-7.51 -9.47,-12.19 -16.01,-15.98 -10.64,-5.89 -22.35,-9.39 -34,-12.63 -10.07,-2.1 -20.13,-4.29 -30.32,-5.72 -36.78,-4.68 -74.139,-4.66 -110.91,0.04 m 11,22.29 c -21.48,1.82 -42.98,6.05 -62.87,14.54 -7.16,3.58 -15.32,7.21 -18.92,14.89 9.36,8.76 21.87,12.95 33.92,16.56 8.07,2.58 16.47,3.84 24.78,5.44 23.07,4.15 46.59,4.96 69.99,5.14 27.22,-0.29 54.55,-2.41 81.06,-8.8 13.41,-3.3 26.87,-7.35 38.77,-14.53 1.51,-1.05 4.35,-2.26 2.9,-4.55 -3.47,-7.12 -11.13,-10.7 -17.77,-14.29 -7.19,-3.05 -14.46,-6.17 -22.14,-7.69 -17.55,-4.7 -35.67,-6.5 -53.73,-7.85 -25.299,-1.73 -50.76,-1.43 -75.99,1.14 z"
   id="path718"
   inkscape:connector-curvature="0"
   style="stroke:#000000;stroke-width:0.5" />
	<path
   d="m 1928.104,629.36 c 36.77,-4.7 74.13,-4.72 110.91,-0.04 10.19,1.43 20.25,3.62 30.32,5.72 0.78,6.17 1.95,13.2 -1.98,18.6 -21.5,-4.59 -43.39,-7.33 -65.38,-7.81 -29.05,-0.74 -58.35,-0.31 -87,5.01 -16.51,2.89 -32.95,7.41 -47.76,15.4 -5.11,2.75 -9.38,6.73 -13.15,11.08 -4.33,-6.62 -2.35,-15.27 1.8,-21.45 4.48,-6.5 11.68,-10.28 18.77,-13.27 17.131,-6.8 35.31,-10.45 53.47,-13.24 z"
   id="path720"
   inkscape:connector-curvature="0"
   style="fill:#16a0b7;stroke:#16a0b7;stroke-width:0.5" />
	<path
   d="m 2069.334,635.04 c 11.65,3.24 23.36,6.74 34,12.63 6.54,3.79 13.49,8.47 16.01,15.98 1.93,6.05 -1.97,11.93 -6.22,15.89 -3.99,-7.78 -11.53,-12.72 -19.17,-16.44 -8.4,-4.34 -17.54,-6.94 -26.6,-9.46 3.93,-5.4 2.761,-12.43 1.98,-18.6 z"
   id="path722"
   inkscape:connector-curvature="0"
   style="fill:#1490a4;stroke:#1490a4;stroke-width:0.5" />
	<path
   d="m 1939.104,651.65 c 25.23,-2.57 50.69,-2.87 75.99,-1.14 18.06,1.35 36.18,3.15 53.73,7.85 -0.3,7.89 0.72,15.77 0.29,23.67 -0.26,5.84 -1.45,11.58 -2.05,17.39 -26.51,6.39 -53.84,8.51 -81.06,8.8 -23.4,-0.18 -46.92,-0.99 -69.99,-5.14 -8.31,-1.6 -16.71,-2.86 -24.78,-5.44 -12.05,-3.61 -24.56,-7.8 -33.92,-16.56 3.6,-7.68 11.76,-11.31 18.92,-14.89 19.891,-8.49 41.391,-12.72 62.87,-14.54 z"
   id="path724"
   inkscape:connector-curvature="0"
   style="fill:#98e5ed;stroke:#98e5ed;stroke-width:0.5" />
	<path
   d="m 2068.824,658.36 c 7.68,1.52 14.95,4.64 22.14,7.69 6.64,3.59 14.3,7.17 17.77,14.29 1.45,2.29 -1.39,3.5 -2.9,4.55 -11.9,7.18 -25.36,11.23 -38.77,14.53 0.6,-5.81 1.79,-11.55 2.05,-17.39 0.43,-7.9 -0.59,-15.78 -0.29,-23.67 z"
   id="path726"
   inkscape:connector-curvature="0"
   style="fill:#89ced5;stroke:#89ced5;stroke-width:0.5" />
	<path
   d="m 2132.744,691.77 c 3.21,-3.06 5.82,-6.66 8.5,-10.17 0.42,10.47 -0.87,20.92 -1.07,31.38 -1.14,33.86 -2.59,67.7 -4.51,101.52 -0.22,1.26 -0.04,2.73 -0.83,3.83 -4,4.94 -5.35,11.24 -7.37,17.12 -11.66,33.74 -25.23,67.18 -44.86,97.16 -12.12,18.69 -26.69,35.91 -43.92,50.08 -4.39,3.58 -8.36,7.66 -12.85,11.12 -12.47,9.22 -25.41,17.95 -39.51,24.51 -17.22,8.87 -35.87,14.97 -55.03,17.82 -9.35,1.64 -18.85,1.71 -28.28,2.46 -6.52,0.14 -13.12,0.07 -19.36,2.22 -6.43,-1.14 -12.11,-4.68 -17.85,-7.6 -8.41,-4.89 -16.49,-11.26 -20.8,-20.2 -2.42,-4.61 -2.18,-9.95 -2.52,-14.98 -0.4,-11.11 -1.15,-22.2 -1.9,-33.28 -1.44,-28.22 -2.58,-56.45 -3.98,-84.68 -0.21,-5.75 -0.58,-11.51 -0.4,-17.27 0.28,1.39 0.65,2.77 1.04,4.17 3.42,-7.39 4.81,-15.49 7.65,-23.1 3.53,-10.28 6.91,-20.65 11.43,-30.55 4.35,-8.31 9.48,-16.26 15.64,-23.36 10.33,-11.68 22.05,-22.01 33.97,-32.03 6.77,-5.93 13.27,-12.2 20.74,-17.28 7.74,-5.63 16.58,-9.4 24.76,-14.32 12.84,-0.01 25.7,1.04 38.57,0.9 21.9,-0.15 43.92,-1.4 65.4,-5.95 18.29,-3.65 36.39,-8.51 53.85,-15.15 8.44,-3.62 16.76,-8.01 23.49,-14.37 z"
   id="path728"
   inkscape:connector-curvature="0"
   style="fill:#16a0b7;stroke:#16a0b7;stroke-width:0.5" />
	<path
   d="m 1828.834,682.85 c 9.34,13.44 24.56,20.87 39.18,27.14 9.49,4.05 19.29,7.56 29.43,9.61 12.99,3.01 26.21,5.47 39.59,5.76 4.79,0.23 9.63,0.19 14.4,0.98 -8.18,4.92 -17.02,8.69 -24.76,14.32 -7.47,5.08 -13.97,11.35 -20.74,17.28 -11.92,10.02 -23.64,20.35 -33.97,32.03 -6.16,7.1 -11.29,15.05 -15.64,23.36 -4.52,9.9 -7.9,20.27 -11.43,30.55 -2.84,7.61 -4.23,15.71 -7.65,23.1 -0.39,-1.4 -0.76,-2.78 -1.04,-4.17 -1.03,-14.91 -1,-29.9 -2.05,-44.82 -1.83,-25.27 -2.21,-50.62 -3.63,-75.92 -0.57,-19.74 -1.469,-39.48 -1.69,-59.22 z"
   id="path730"
   inkscape:connector-curvature="0"
   style="fill:#2eaabe;stroke:#2eaabe;stroke-width:0.5" />
	<path
   d="m 2143.544,729.44 c 16.9,-5.72 36.55,-1.62 50.08,9.93 13.45,11.42 21.49,27.89 26.6,44.5 10.98,33.04 8.89,70.74 -7.89,101.5 -3.48,5.75 -6.54,12.05 -11.62,16.59 1.44,-8.39 5.57,-16.04 6.68,-24.51 2.22,-11.37 2.81,-24.89 -5.35,-34.15 l -0.42,-0.54 c 2.31,-20.73 0.08,-42.19 -7.78,-61.6 -5.08,-11.95 -14.13,-23.44 -27.17,-26.91 -7.81,-2.57 -16.12,-1.55 -23.98,0.13 -0.05,-8.32 0.71,-16.63 0.85,-24.94 z"
   id="path732"
   inkscape:connector-curvature="0"
   style="fill:#16a0b7;stroke:#16a0b7;stroke-width:0.5" />
	<path
   d="m 2127.464,835.45 c 2.02,-5.88 3.37,-12.18 7.37,-17.12 1.01,6.53 -0.41,13.13 -0.37,19.7 -1.06,22.68 -2.02,45.37 -3.67,68.02 -0.99,18.63 -2.98,37.2 -3.33,55.87 -0.7,11.01 -1.42,22.03 -2.28,33.03 -0.54,4.85 -0.04,10.13 -2.84,14.4 -7.6,12.83 -19.81,22.23 -32.78,29.18 -17.76,8.87 -36.76,15.27 -56.29,18.83 -36.18,5.2 -73.15,2.65 -108.83,-4.79 -10.09,-1.64 -19.86,-4.65 -29.67,-7.36 -3.83,-1.16 -7.71,-2.29 -11.12,-4.39 6.24,-2.15 12.84,-2.08 19.36,-2.22 9.43,-0.75 18.93,-0.82 28.28,-2.46 19.16,-2.85 37.81,-8.95 55.03,-17.82 14.1,-6.56 27.04,-15.29 39.51,-24.51 4.49,-3.46 8.46,-7.54 12.85,-11.12 17.23,-14.17 31.8,-31.39 43.92,-50.08 19.63,-29.98 33.2,-63.42 44.86,-97.16 z"
   id="path734"
   inkscape:connector-curvature="0"
   style="fill:#1490a4;stroke:#1490a4;stroke-width:0.5" />
	<path
   d="m 2199.054,857.01 c 1.45,-4.47 1.38,-9.28 2.99,-13.71 8.16,9.26 7.57,22.78 5.35,34.15 -1.11,8.47 -5.24,16.12 -6.68,24.51 -0.56,2.07 -2.34,3.5 -3.68,5.07 -6.43,6.99 -13.67,13.25 -21.72,18.29 -3.16,1.94 -6.27,4.08 -9.86,5.09 3.29,-5.84 8.55,-10.18 12.25,-15.74 8.36,-11.99 14.1,-26.05 15.53,-40.66 1.57,-5.78 4.4,-11.16 5.82,-17 z"
   id="path736"
   inkscape:connector-curvature="0"
   style="fill:#2eaabe;stroke:#2eaabe;stroke-width:0.5" />
	<path
   d="m 2186.424,884.43 c 2.44,-3.36 4.16,-7.2 6.81,-10.42 -1.43,14.61 -7.17,28.67 -15.53,40.66 -3.7,5.56 -8.96,9.9 -12.25,15.74 -9.66,5.91 -21.44,7.82 -32.62,8.83 0.7,-9.19 0.73,-18.42 1.71,-27.57 12.66,-0.37 25.47,-3.87 35.84,-11.32 6.19,-4.36 11.6,-9.8 16.04,-15.92 z"
   id="path738"
   inkscape:connector-curvature="0"
   style="fill:#16a0b7;stroke:#16a0b7;stroke-width:0.5" />
</g>








</svg>