<?xml version="1.0" encoding="UTF-8" standalone="no"?>
<!-- Generator: Adobe Illustrator 15.1.0, SVG Export Plug-In . SVG Version: 6.00 Build 0)  -->

<svg
   xmlns:dc="http://purl.org/dc/elements/1.1/"
   xmlns:cc="http://creativecommons.org/ns#"
   xmlns:rdf="http://www.w3.org/1999/02/22-rdf-syntax-ns#"
   xmlns:svg="http://www.w3.org/2000/svg"
   xmlns="http://www.w3.org/2000/svg"
   xmlns:xlink="http://www.w3.org/1999/xlink"
   xmlns:sodipodi="http://sodipodi.sourceforge.net/DTD/sodipodi-0.dtd"
   xmlns:inkscape="http://www.inkscape.org/namespaces/inkscape"
   version="1.1"
   id="flash0.ai"
   x="0px"
   y="0px"
   width="256"
   height="256"
   viewBox="0 0 256 256.00001"
   xml:space="preserve"
   sodipodi:docname="banana_no_names.svg"
   inkscape:version="0.92.4 (5da689c313, 2019-01-14)"><title
   id="title955">Banana no Name</title><metadata
   id="metadata148"><rdf:RDF><cc:Work
       rdf:about=""><dc:format>image/svg+xml</dc:format><dc:type
         rdf:resource="http://purl.org/dc/dcmitype/StillImage" /><dc:title>Banana no Name</dc:title><cc:license
         rdf:resource="http://creativecommons.org/publicdomain/zero/1.0/" /><dc:creator><cc:Agent><dc:title>Glitch</dc:title></cc:Agent></dc:creator><dc:source>https://opengameart.org/node/20149</dc:source></cc:Work><cc:License
       rdf:about="http://creativecommons.org/publicdomain/zero/1.0/"><cc:permits
         rdf:resource="http://creativecommons.org/ns#Reproduction" /><cc:permits
         rdf:resource="http://creativecommons.org/ns#Distribution" /><cc:permits
         rdf:resource="http://creativecommons.org/ns#DerivativeWorks" /></cc:License></rdf:RDF></metadata><defs
   id="defs146" /><sodipodi:namedview
   pagecolor="#ffffff"
   bordercolor="#666666"
   borderopacity="1"
   objecttolerance="10"
   gridtolerance="10"
   guidetolerance="10"
   inkscape:pageopacity="0"
   inkscape:pageshadow="2"
   inkscape:window-width="1920"
   inkscape:window-height="1025"
   id="namedview144"
   showgrid="false"
   inkscape:zoom="0.92178587"
   inkscape:cx="131.94652"
   inkscape:cy="292.30143"
   inkscape:window-x="-8"
   inkscape:window-y="-8"
   inkscape:window-maximized="1"
   inkscape:current-layer="flash0.ai"
   fit-margin-top="0"
   fit-margin-left="0"
   fit-margin-right="0"
   fit-margin-bottom="0" />
<symbol
   id="flash0.ai_x5F_8_x2F_Layer_13_x2F__x3C_Path_x3E__x5F_48"
   viewBox="0 -12.8 31.625 12.8"
   transform="translate(0.00327954,228.29622)">
	<g
   id="Layer_1_2_">
		<path
   style="clip-rule:evenodd;fill-rule:evenodd"
   d="m 30.95,-5.05 c 0.367,-0.233 0.583,-0.467 0.65,-0.7 0.033,-0.133 0.033,-0.333 0,-0.6 C 31.567,-6.517 31.483,-6.633 31.35,-6.7 31.083,-6.8 30.8,-6.9 30.5,-7 c -0.333,-0.133 -0.483,-0.233 -0.45,-0.3 0.067,-0.2 0.1,-0.317 0.1,-0.35 -0.033,-0.1 -0.133,-0.184 -0.3,-0.25 -0.2,-0.067 -0.317,-0.133 -0.35,-0.2 -0.1,-0.566 -0.2,-0.917 -0.3,-1.05 -0.3,-0.5 -1.483,-1.367 -3.55,-2.6 -0.867,-0.533 -1.467,-0.867 -1.8,-1 -0.2,-0.067 -0.4,-0.067 -0.6,0 -0.3,0.033 -0.6,0.083 -0.9,0.15 -0.2,0.033 -0.467,0.217 -0.8,0.55 l -0.45,0.5 0.2,0.55 c 0.1,0.333 0.233,1.333 0.4,3 0.167,1.8 0.2,2.8 0.1,3 -0.333,0.367 -0.55,0.633 -0.65,0.8 -0.467,0.567 -0.9,0.883 -1.3,0.95 -0.8,0.167 -1.417,0.35 -1.85,0.55 -0.333,0.067 -0.717,0.167 -1.15,0.3 -0.267,0.1 -0.533,0.05 -0.8,-0.15 -0.233,-0.233 -0.417,-0.383 -0.55,-0.45 -0.367,-0.133 -0.783,0.067 -1.25,0.6 -0.133,0.233 -0.267,0.35 -0.4,0.35 -0.4,-0.067 -0.667,-0.034 -0.8,0.1 -0.067,0.067 -0.417,0.117 -1.05,0.15 -0.133,0 -0.533,-0.05 -1.2,-0.15 C 10.234,-2.05 9.8,-2.233 9.5,-2.5 8.967,-2.867 8.267,-3.083 7.4,-3.15 7.2,-3.15 6.717,-3.267 5.95,-3.5 4.95,-3.833 4.35,-4 4.15,-4 c -0.2,0 -0.467,0.167 -0.8,0.5 -0.167,0.167 -0.567,0.217 -1.2,0.15 -0.4,-0.033 -0.617,-0.167 -0.65,-0.4 -0.2,0.067 -0.4,0.2 -0.6,0.4 -0.233,0.2 -0.533,0.533 -0.9,1 l 0.35,0.1 17.9,2.25 c 7.867,-3.067 12.1,-4.75 12.7,-5.05 z"
   id="path2"
   inkscape:connector-curvature="0" />
	</g>
</symbol>
<g
   id="g141"
   transform="matrix(5.5948933,0,0,5.5948933,0.01834952,50.505428)">
	<path
   style="clip-rule:evenodd;fill:#ffffff;fill-rule:evenodd"
   d="M 44.95,14.05 27.9,27 c -0.6,0.4 -1.35,0.634 -2.25,0.7 -0.967,0.033 -1.917,-0.15 -2.85,-0.55 L 0.85,17.45 C 0.317,17.083 0.033,16.55 0,15.85 c -0.033,-0.7 0.183,-1.133 0.65,-1.3 0.067,-0.066 0.333,-0.05 0.8,0.05 0.5,0.1 0.8,0.117 0.9,0.05 L 16.2,6.45 c 1.733,-0.967 2.933,-1.567 3.6,-1.8 0.867,-0.333 1.6,-0.4 2.2,-0.2 l 22.75,6.35 c 0.634,0.267 0.967,0.784 1,1.55 0.033,0.733 -0.233,1.3 -0.8,1.7 z"
   id="path6"
   inkscape:connector-curvature="0" />
	<path
   style="clip-rule:evenodd;fill:#d4d5d6;fill-rule:evenodd"
   d="m 44.75,10.8 c 0.634,0.267 0.967,0.784 1,1.55 0.033,0.733 -0.233,1.3 -0.8,1.7 L 27.9,27 c -0.633,0.4 -1.417,0.634 -2.35,0.7 0.1,-0.434 0.067,-0.917 -0.1,-1.45 -0.133,-0.533 -0.3,-0.884 -0.5,-1.05 8.233,-10.434 12.5,-15.767 12.8,-16 0.134,-0.067 0.5,-0.05 1.1,0.05 z"
   id="path8"
   inkscape:connector-curvature="0" />
	
		<linearGradient
   id="SVGID_1_"
   gradientUnits="userSpaceOnUse"
   x1="9.3301001"
   y1="-16.866199"
   x2="39.941799"
   y2="-16.866199"
   gradientTransform="matrix(0.3389,0.9408,-0.9408,0.3389,4.309416e-4,2.770424e-4)">
		<stop
   offset="0"
   style="stop-color:#E3E3E3"
   id="stop10" />
		<stop
   offset="1"
   style="stop-color:#FFFFFF"
   id="stop12" />
	</linearGradient>
	<path
   style="clip-rule:evenodd;fill:url(#SVGID_1_);fill-rule:evenodd"
   d="m 44.65,13.1 -16.95,12 c -0.567,0.4 -1.284,0.65 -2.15,0.75 -0.833,0.101 -1.566,0.017 -2.2,-0.25 L 1.1,16.3 C 0.133,15.867 -0.15,15.283 0.25,14.55 0.417,14.25 0.65,14 0.95,13.8 l 15.3,-8.6 c 1.7,-0.934 2.9,-1.534 3.6,-1.8 0.867,-0.333 1.6,-0.4 2.2,-0.2 l 22.45,7.45 c 0.634,0.267 0.967,0.65 1,1.15 0,0.467 -0.283,0.9 -0.85,1.3 z"
   id="path15"
   inkscape:connector-curvature="0" />
	<path
   style="clip-rule:evenodd;fill:#c9c9c9;fill-rule:evenodd"
   d="m 3.1,15.35 c 0.667,0.7 2.5,1.85 5.5,3.45 2.7,1.467 5.45,2.817 8.25,4.05 L 1.1,16.3 C 0.133,15.867 -0.15,15.283 0.25,14.55 0.417,14.25 0.65,14 0.95,13.8 l 13.2,-7.4 c -5.2,3.267 -7.933,5 -8.2,5.2 -2.533,1.8 -3.483,3.05 -2.85,3.75 z"
   id="path17"
   inkscape:connector-curvature="0" />
	<path
   style="clip-rule:evenodd;fill:#ffffff;fill-rule:evenodd"
   d="m 44.5,10.65 c 0.634,0.267 0.967,0.65 1,1.15 0,0.467 -0.283,0.9 -0.85,1.3 l -16.95,12 c -0.567,0.4 -1.284,0.65 -2.15,0.75 -0.833,0.101 -1.566,0.017 -2.2,-0.25 l -2.7,-1.149 c 1.033,0.166 1.867,0.233 2.5,0.2 0.867,-0.067 1.833,-0.317 2.9,-0.75 2.333,-0.934 5.467,-2.684 9.4,-5.25 3.533,-2.333 6,-4.133 7.399,-5.4 1,-0.9 1.551,-1.483 1.65,-1.75 0.167,-0.367 -0.083,-0.733 -0.75,-1.1 z"
   id="path19"
   inkscape:connector-curvature="0" />
	
		<use
   xlink:href="#flash0.ai_x5F_8_x2F_Layer_13_x2F__x3C_Path_x3E__x5F_48"
   width="31.625"
   height="12.8"
   y="-12.8"
   transform="matrix(1,0,0,-1,6.6466205,238.34602)"
   style="overflow:visible;opacity:0.23049999;enable-background:new"
   id="use21"
   x="0" />
	<path
   style="clip-rule:evenodd;fill:#c9952c;fill-rule:evenodd"
   d="m 35.45,8.35 1.05,1.05 0.45,0.25 c 0.333,0.233 0.533,0.5 0.6,0.8 0.066,0.267 0.101,0.517 0.101,0.75 -0.034,0.133 -0.017,0.216 0.05,0.25 0.467,0.333 0.733,0.833 0.8,1.5 0.066,0.533 -0.15,0.883 -0.65,1.05 l -0.35,0.3 0.3,0.2 c 0.233,0.167 0.334,0.35 0.3,0.55 -0.133,0.733 -0.517,1.133 -1.149,1.2 -0.3,0.033 -0.45,0.183 -0.45,0.45 0,0.3 -0.033,0.45 -0.1,0.45 -0.5,-0.033 -0.917,0.067 -1.25,0.3 -0.267,0.267 -0.467,0.45 -0.601,0.55 -0.233,0.233 -0.566,0.433 -1,0.6 -0.333,0.167 -0.5,0.383 -0.5,0.65 0,0.3 -0.149,0.567 -0.45,0.8 -0.333,0.267 -0.3,0.467 0.101,0.6 0.366,0.133 0.416,0.25 0.149,0.35 -0.366,0.167 -0.833,0.267 -1.399,0.3 -0.634,0.034 -0.983,0.067 -1.05,0.1 l -0.5,0.15 c -0.134,0 -0.317,-0.05 -0.551,-0.15 -0.199,-0.066 -0.35,-0.066 -0.45,0 -0.1,0.067 -0.183,0.1 -0.25,0.1 -0.033,0 -0.3,-0.183 -0.8,-0.55 -0.2,-0.133 -0.25,-0.434 -0.15,-0.9 0.033,-0.133 -0.017,-0.267 -0.15,-0.4 -0.2,-0.133 -0.316,-0.25 -0.35,-0.35 l -0.05,-0.6 c 0.367,-0.267 0.567,-0.483 0.6,-0.65 0,-0.633 0.083,-1.05 0.25,-1.25 0.2,-0.233 0.483,-0.716 0.85,-1.45 0.333,-0.767 0.55,-1.383 0.65,-1.85 0.1,-0.367 -0.667,-0.833 -2.3,-1.4 -1.733,-0.467 -2.684,-0.733 -2.85,-0.8 -0.2,-0.066 -0.333,-0.017 -0.4,0.15 L 23.9,11.7 c -0.633,0.2 -1.017,0.3 -1.15,0.3 -0.067,0 -0.117,0.067 -0.15,0.2 -0.067,0.133 -0.167,0.2 -0.3,0.2 -0.033,0 -0.167,0.033 -0.4,0.1 -0.133,0 -0.25,-0.033 -0.35,-0.1 -0.1,-0.066 -0.3,-0.133 -0.6,-0.2 C 20.683,12.166 20.5,12.1 20.4,12 20.334,11.933 20.3,11.817 20.3,11.65 20.267,11.55 20.133,11.483 19.9,11.45 L 18.45,11.4 c -0.333,-0.1 -0.633,-0.05 -0.9,0.15 -0.333,0.267 -0.633,0.317 -0.9,0.15 -0.167,-0.1 -0.467,0.033 -0.9,0.4 -0.133,0.133 -0.267,0.217 -0.4,0.25 -0.133,0.033 -0.217,0.05 -0.25,0.05 l -0.75,0.2 c -0.133,0.066 -0.434,0.017 -0.9,-0.15 -0.1,-0.034 -0.2,0 -0.3,0.1 -0.066,0.067 -0.117,0.117 -0.15,0.15 -0.067,0.133 -0.217,0.183 -0.45,0.15 -0.167,-0.033 -0.316,0 -0.45,0.1 -0.067,0.033 -0.167,0.117 -0.3,0.25 -0.133,0.1 -0.367,0.2 -0.7,0.3 -0.4,0.1 -0.65,0.1 -0.75,0 l -0.7,-0.3 c -0.3,0.133 -0.733,0.15 -1.3,0.05 L 7.6,13 C 7.333,13.033 7.033,12.883 6.7,12.55 6.4,12.183 6.6,12 7.3,12 16.167,7.767 21.867,5.483 24.4,5.15 26,4.95 27.867,5.167 30,5.8 c 1.1,0.3 2.15,0.667 3.15,1.1 0.966,0.367 1.533,0.567 1.699,0.6 0.168,0.067 0.368,0.35 0.601,0.85 z"
   id="path23"
   inkscape:connector-curvature="0" />
	<g
   id="g39">
		<path
   style="clip-rule:evenodd;fill:#b88318;fill-rule:evenodd"
   d="m 16.6,11.35 c 0.133,0.066 0.316,0.117 0.55,0.15 0.209,0.052 0.334,0.077 0.375,0.075 -0.322,0.247 -0.613,0.289 -0.875,0.125 -0.167,-0.1 -0.467,0.033 -0.9,0.4 -0.133,0.133 -0.267,0.217 -0.4,0.25 -0.133,0.033 -0.217,0.05 -0.25,0.05 l -0.75,0.2 c -0.1,0.033 -0.217,0.033 -0.35,0 0.367,-0.1 0.567,-0.167 0.6,-0.2 l 0.25,-0.15 c 0.3,0.1 0.7,-0.067 1.2,-0.5 0.133,-0.133 0.233,-0.267 0.3,-0.4 0.033,-0.033 0.117,-0.033 0.25,0 z"
   id="path25"
   inkscape:connector-curvature="0" />
		<path
   style="clip-rule:evenodd;fill:#b88318;fill-rule:evenodd"
   d="M 7.6,13 7.25,12.9 c 0.267,-0.133 0.4,-0.183 0.4,-0.15 L 7.8,13.1 Z"
   id="path27"
   inkscape:connector-curvature="0" />
		<path
   style="clip-rule:evenodd;fill:#b88318;fill-rule:evenodd"
   d="m 20.3,10.15 c 0.534,-0.033 0.9,0.017 1.1,0.15 0.6,0.333 0.717,0.517 0.35,0.55 -0.2,0.033 -0.367,0.15 -0.5,0.35 -0.133,0.167 -0.167,0.3 -0.1,0.4 0.667,0.3 1,0.367 1,0.2 -0.033,-0.167 -0.05,-0.283 -0.05,-0.35 0,-0.133 0.066,-0.133 0.2,0 0.2,0.2 0.45,0.233 0.75,0.1 -0.2,-0.133 -0.35,-0.267 -0.45,-0.4 -0.2,-0.2 -0.2,-0.333 0,-0.4 0.733,-0.267 1.217,-0.267 1.45,0 0.1,0.133 0.483,0.4 1.15,0.8 L 24.35,11.3 c -0.2,-0.066 -0.333,-0.017 -0.4,0.15 L 23.9,11.7 c -0.633,0.2 -1.017,0.3 -1.15,0.3 -0.067,0 -0.117,0.067 -0.15,0.2 -0.067,0.133 -0.167,0.2 -0.3,0.2 -0.033,0 -0.167,0.033 -0.4,0.1 -0.133,0 -0.25,-0.033 -0.35,-0.1 -0.1,-0.066 -0.3,-0.133 -0.6,-0.2 C 20.683,12.166 20.5,12.1 20.4,12 20.334,11.933 20.3,11.817 20.3,11.65 20.267,11.55 20.133,11.483 19.9,11.45 L 18.45,11.4 c -0.283,-0.085 -0.542,-0.06 -0.775,0.075 0.102,-0.077 0.176,-0.152 0.225,-0.225 0.067,-0.1 0.283,-0.133 0.65,-0.1 0.034,0 0.1,0.017 0.2,0.05 0.1,0 0.183,-0.034 0.25,-0.1 0.033,-0.067 0.017,-0.15 -0.05,-0.25 -0.1,-0.067 -0.167,-0.133 -0.2,-0.2 -0.2,-0.1 -0.317,-0.183 -0.35,-0.25 -0.1,-0.1 0.05,-0.15 0.45,-0.15 0.333,0 0.817,-0.033 1.45,-0.1 z"
   id="path29"
   inkscape:connector-curvature="0" />
		<path
   style="clip-rule:evenodd;fill:#b88318;fill-rule:evenodd"
   d="m 29.35,19.3 c 0.067,0 0.351,-0.15 0.851,-0.45 0.566,-0.233 1.066,-0.233 1.5,0 0.533,0.233 1.467,-0.033 2.8,-0.8 -0.333,0.233 -0.65,0.417 -0.95,0.55 -0.333,0.167 -0.5,0.383 -0.5,0.65 0,0.3 -0.149,0.567 -0.45,0.8 -0.333,0.267 -0.3,0.467 0.101,0.6 0.366,0.133 0.416,0.25 0.149,0.35 -0.366,0.167 -0.833,0.267 -1.399,0.3 -0.634,0.034 -0.983,0.067 -1.05,0.1 l -0.5,0.15 c -0.134,0 -0.317,-0.05 -0.551,-0.15 -0.199,-0.066 -0.35,-0.066 -0.45,0 -0.1,0.067 -0.183,0.1 -0.25,0.1 -0.033,0 -0.3,-0.183 -0.8,-0.55 -0.2,-0.133 -0.25,-0.434 -0.15,-0.9 0.033,-0.133 -0.017,-0.267 -0.15,-0.4 -0.2,-0.133 -0.316,-0.25 -0.35,-0.35 l -0.05,-0.6 0.4,-0.35 c 0.034,0.267 0.1,0.45 0.2,0.55 l 0.049,0.1 0.3,0.5 c 0.033,0.1 0.1,0.317 0.2,0.65 0.034,0.133 0.117,0.184 0.25,0.15 0.167,-0.033 0.25,-0.117 0.25,-0.25 0.067,-0.233 0.1,-0.367 0.1,-0.4 0.1,-0.233 0.25,-0.35 0.45,-0.35 z"
   id="path31"
   inkscape:connector-curvature="0" />
		<path
   style="clip-rule:evenodd;fill:#b88318;fill-rule:evenodd"
   d="m 9.65,13.2 c -0.3,0.133 -0.733,0.15 -1.3,0.05 L 8,13.2 c 0.4,-0.3 0.633,-0.417 0.7,-0.35 0.1,0.3 0.25,0.35 0.45,0.15 0.033,-0.033 0.117,-0.167 0.25,-0.4 0.067,-0.1 0.15,-0.1 0.25,0 0.233,0.2 0.383,0.3 0.45,0.3 0.033,0 0.133,-0.1 0.3,-0.3 0.1,-0.167 0.184,-0.167 0.25,0 0.067,0.167 0.133,0.316 0.2,0.45 0.033,0.1 0.133,0.1 0.3,0 0.233,-0.133 0.367,-0.267 0.4,-0.4 h 0.5 c 0,-0.033 0,-0.066 0,-0.1 0.067,-0.033 0.167,0 0.3,0.1 l 0.3,0.2 h -0.1 c -0.167,-0.033 -0.316,0 -0.45,0.1 -0.067,0.033 -0.167,0.117 -0.3,0.25 -0.133,0.1 -0.367,0.2 -0.7,0.3 -0.4,0.1 -0.65,0.1 -0.75,0 z"
   id="path33"
   inkscape:connector-curvature="0" />
		<path
   style="clip-rule:evenodd;fill:#b88318;fill-rule:evenodd"
   d="m 37.7,12.05 c 0,-0.233 0,-0.383 0,-0.45 l 0.05,-0.1 c 0.434,0.3 0.684,0.783 0.75,1.45 0.066,0.533 -0.15,0.883 -0.65,1.05 l -0.35,0.3 0.3,0.2 c 0.233,0.167 0.334,0.35 0.3,0.55 -0.133,0.733 -0.517,1.133 -1.149,1.2 -0.134,0 -0.25,0.05 -0.351,0.15 l 0.65,-0.7 -0.1,-0.5 c 0,-0.467 0.05,-0.767 0.149,-0.9 l 0.3,-0.15 c 0.101,-0.066 0.15,-0.183 0.15,-0.35 0,-0.1 -0.066,-0.233 -0.2,-0.4 -0.1,-0.133 -0.1,-0.35 0,-0.65 0.135,-0.267 0.184,-0.5 0.151,-0.7 z"
   id="path35"
   inkscape:connector-curvature="0" />
		<path
   style="clip-rule:evenodd;fill:#b88318;fill-rule:evenodd"
   d="m 36.4,17.15 -0.55,0.05 0.5,-0.45 0.226,-0.3 c -0.045,0.073 -0.053,0.206 -0.025,0.4 -0.001,0.167 -0.051,0.267 -0.151,0.3 z"
   id="path37"
   inkscape:connector-curvature="0" />
	</g>
	<path
   style="clip-rule:evenodd;fill:#ebb038;fill-rule:evenodd"
   d="m 31.2,3.05 c 1.2,0.3 2.017,0.733 2.45,1.3 L 34.85,7 c 0.267,0.567 0.784,1.533 1.551,2.9 0.533,0.9 0.883,1.75 1.05,2.55 0.2,0.9 0.066,1.85 -0.4,2.85 -0.033,0.067 -0.517,0.934 -1.45,2.6 -0.066,0.1 -0.3,0.633 -0.699,1.6 -0.134,0.3 -0.483,0.633 -1.051,1 -1.233,0.8 -2.566,0.9 -4,0.3 -0.466,-0.167 -0.883,-0.683 -1.25,-1.55 l -0.35,-1.3 c 0.3,-1.733 0.317,-2.867 0.05,-3.4 -0.167,-0.333 -0.25,-0.517 -0.25,-0.55 -0.133,-0.133 -0.35,-0.4 -0.65,-0.8 -0.3,-0.434 -0.833,-0.733 -1.6,-0.9 -1.1,-0.2 -1.9,-0.433 -2.4,-0.7 -1.2,-0.633 -1.9,-0.983 -2.1,-1.05 -0.633,-0.167 -1.633,-0.167 -3,0 -0.8,0.1 -1.55,0.4 -2.25,0.9 -0.5,0.367 -1.083,0.466 -1.75,0.3 -0.767,-0.2 -1.583,-0.217 -2.45,-0.05 -1.733,0.333 -2.684,0.5 -2.85,0.5 -1,0.1 -1.567,0.083 -1.7,-0.05 0,-0.267 -0.133,-0.5 -0.4,-0.7 -0.367,-0.233 -0.583,-0.4 -0.65,-0.5 -0.067,-0.2 -0.15,-0.4 -0.25,-0.6 C 5.867,10.05 5.933,9.5 6.2,8.7 6.467,7.933 6.8,7.333 7.2,6.9 7.5,6.6 8,6.333 8.7,6.1 9.533,5.8 10,5.617 10.1,5.55 c 0.5,-0.233 1.417,-0.9 2.75,-2 0.767,-0.533 2.617,-1.417 5.55,-2.65 0.967,-0.4 1.567,-0.6 1.8,-0.6 0.9,0.1 1.5,0.15 1.8,0.15 0.667,-0.034 1.35,-0.133 2.05,-0.3 0.367,-0.066 0.8,-0.033 1.3,0.1 0.4,0.1 1.217,0.517 2.45,1.25 1.233,0.767 2.367,1.283 3.4,1.55 z"
   id="path41"
   inkscape:connector-curvature="0" />
	<g
   id="g47">
		<path
   style="clip-rule:evenodd;fill:#d4a035;fill-rule:evenodd"
   d="m 33.2,3.9 c 0.3,0.233 0.583,0.633 0.85,1.2 0.134,0.333 0.4,0.967 0.8,1.9 0.267,0.567 0.784,1.533 1.551,2.9 0.533,0.9 0.883,1.75 1.05,2.55 0.2,0.9 0.066,1.85 -0.4,2.85 -0.033,0.067 -0.517,0.934 -1.45,2.6 -0.066,0.1 -0.3,0.633 -0.699,1.6 -0.134,0.3 -0.483,0.633 -1.051,1 -1.233,0.8 -2.566,0.9 -4,0.3 -0.399,-0.133 -0.75,-0.517 -1.05,-1.15 h 0.1 c 0.067,-0.033 0.15,-0.167 0.25,-0.4 0.133,-0.167 0.283,-0.15 0.449,0.05 0.167,0.167 0.301,0.317 0.4,0.45 0.033,0.033 0.2,0.05 0.5,0.05 0.733,0 1.134,-0.133 1.2,-0.4 0,-0.033 0,-0.167 0,-0.4 -0.033,-0.2 0,-0.35 0.1,-0.45 0.2,-0.133 0.4,-0.25 0.601,-0.35 -0.101,0 -0.117,-0.284 -0.051,-0.85 0.067,-0.6 0.233,-0.95 0.5,-1.05 0.134,-0.033 0.567,-0.167 1.301,-0.4 0.566,-0.167 0.866,-0.283 0.899,-0.35 0.134,-0.233 0.217,-0.433 0.25,-0.6 0.134,-0.3 0.167,-0.583 0.101,-0.85 -0.334,-1 -0.617,-1.633 -0.851,-1.9 -0.2,-0.267 -0.3,-0.417 -0.3,-0.45 -0.066,-0.133 -0.083,-0.317 -0.05,-0.55 0.033,-0.233 0.1,-0.45 0.2,-0.65 0.066,-0.066 0.116,-0.133 0.149,-0.2 -0.033,-0.3 -0.149,-0.6 -0.35,-0.9 -0.566,-0.733 -0.816,-1.133 -0.75,-1.2 l 0.6,-0.7 0.15,-0.6 c -0.2,-0.267 -0.316,-0.467 -0.351,-0.6 l -0.75,-1.5 0.25,-0.5 z"
   id="path43"
   inkscape:connector-curvature="0" />
		<path
   style="clip-rule:evenodd;fill:#d49f33;fill-rule:evenodd"
   d="m 21.05,5.05 c 0.067,-0.133 0.167,-0.083 0.3,0.15 0.2,0.433 0.367,0.733 0.5,0.9 0.433,0.5 0.85,0.717 1.25,0.65 0.033,0 0.2,-0.133 0.5,-0.4 0.2,-0.2 0.367,-0.233 0.5,-0.1 0.033,0.033 0.367,0.2 1,0.5 0.467,0.267 0.717,0.483 0.75,0.65 0.1,0.867 0.233,1.383 0.4,1.55 0.1,0.067 0.35,0.117 0.75,0.15 0.267,0.033 0.4,0.183 0.4,0.45 0,0.233 -0.05,0.583 -0.15,1.05 -0.033,0.4 0.083,0.7 0.35,0.9 0.267,0.267 0.55,0.667 0.85,1.2 0.233,0.5 0.35,0.833 0.35,1 0,0.367 -0.083,0.7 -0.25,1 l -0.1,0.4 -0.15,-0.55 C 28.133,14.217 28.05,14.033 28.05,14 27.917,13.867 27.7,13.6 27.4,13.2 c -0.3,-0.434 -0.833,-0.733 -1.6,-0.9 -1.1,-0.2 -1.9,-0.433 -2.4,-0.7 -1.2,-0.633 -1.9,-0.983 -2.1,-1.05 -0.633,-0.167 -1.633,-0.167 -3,0 -0.8,0.1 -1.55,0.4 -2.25,0.9 -0.5,0.367 -1.083,0.466 -1.75,0.3 -0.767,-0.2 -1.583,-0.217 -2.45,-0.05 -1.733,0.333 -2.684,0.5 -2.85,0.5 -1,0.1 -1.567,0.083 -1.7,-0.05 0,-0.267 -0.133,-0.5 -0.4,-0.7 -0.367,-0.233 -0.583,-0.4 -0.65,-0.5 0.267,0.167 0.533,0.267 0.8,0.3 0.3,0.033 0.5,0 0.6,-0.1 0.033,-0.033 0.083,-0.183 0.15,-0.45 0,-0.1 0.133,-0.117 0.4,-0.05 l 1.1,0.15 c 0.434,0.067 0.717,-0.033 0.85,-0.3 0.1,-0.267 0.2,-0.45 0.3,-0.55 0.133,-0.167 0.383,-0.2 0.75,-0.1 l 1.6,0.45 c 0.133,0.034 0.35,0.083 0.65,0.15 0.3,0.033 0.55,0 0.75,-0.1 0.167,-0.067 0.45,-0.133 0.85,-0.2 0.4,-0.066 0.633,-0.117 0.7,-0.15 0.067,-0.033 0.167,-0.067 0.3,-0.1 0.167,0 0.333,-0.05 0.5,-0.15 0.333,-0.167 0.717,-0.467 1.15,-0.9 0.3,-0.367 0.583,-0.55 0.85,-0.55 0.167,0 0.467,0.067 0.9,0.2 0.367,0.067 0.566,-0.017 0.6,-0.25 0,-0.3 0,-0.533 0,-0.7 0,-0.267 0.067,-0.566 0.2,-0.9 z"
   id="path45"
   inkscape:connector-curvature="0" />
	</g>
	<path
   style="clip-rule:evenodd;fill:#bf8e2c;fill-rule:evenodd"
   d="M 23.35,9.1 23.7,9.05 c 0.267,0 0.5,0.117 0.7,0.35 0.2,0.3 0.333,0.483 0.4,0.55 0.1,0.033 0.317,0.05 0.65,0.05 0.833,0 1.25,0.2 1.25,0.6 0,0.2 0.167,0.467 0.5,0.8 0.367,0.367 0.566,0.65 0.6,0.85 0.1,0.467 0.233,0.9 0.4,1.3 0.633,0.3 0.65,0.6 0.05,0.9 -0.1,-0.267 -0.167,-0.417 -0.2,-0.45 -0.233,-0.267 -0.45,-0.533 -0.65,-0.8 -0.3,-0.434 -0.833,-0.733 -1.6,-0.9 -1.1,-0.2 -1.9,-0.433 -2.4,-0.7 -1.2,-0.633 -1.9,-0.983 -2.1,-1.05 -0.633,-0.167 -1.633,-0.167 -3,0 -0.8,0.1 -1.55,0.4 -2.25,0.9 -0.5,0.367 -1.083,0.466 -1.75,0.3 -0.767,-0.2 -1.583,-0.217 -2.45,-0.05 -1.733,0.333 -2.684,0.5 -2.85,0.5 -0.8,0.1 -1.317,0.117 -1.55,0.05 -0.1,-0.033 -0.184,-0.167 -0.25,-0.4 0.533,0.1 1.283,0.033 2.25,-0.2 0.533,-0.1 1.05,-0.167 1.55,-0.2 0.367,-0.034 0.567,-0.067 0.6,-0.1 0.1,-0.1 0.35,-0.15 0.75,-0.15 1.6,0 2.483,-0.067 2.65,-0.2 0.133,-0.133 0.433,-0.3 0.9,-0.5 0.867,-0.333 1.45,-0.5 1.75,-0.5 0.867,0 1.4,-0.083 1.6,-0.25 0.433,-0.367 0.867,-0.517 1.3,-0.45 0.2,0.067 0.4,0.067 0.6,0 0.2,-0.066 0.283,-0.167 0.25,-0.3 -0.033,-0.133 0,-0.267 0.1,-0.4 0.067,-0.133 0.133,-0.2 0.2,-0.2 0.2,0 0.466,0.133 0.8,0.4 0.2,0.133 0.483,0.233 0.85,0.3 z"
   id="path49"
   inkscape:connector-curvature="0" />
	<path
   style="clip-rule:evenodd;fill:#fad68f;fill-rule:evenodd"
   d="M 9.725,6.25 C 9.694,6.331 9.669,6.448 9.65,6.6 9.617,6.933 9.584,7.133 9.55,7.2 9.484,7.367 9.334,7.367 9.1,7.2 8.967,7.067 8.783,7.15 8.55,7.45 8.317,7.783 8.15,7.933 8.05,7.9 8.017,7.9 7.967,7.75 7.9,7.45 7.867,7.35 7.75,7.367 7.55,7.5 7.45,7.567 7.35,7.633 7.25,7.7 L 7.3,7.2 7.75,6.65 C 8.083,6.483 8.4,6.383 8.7,6.35 L 9.5,6.3 C 9.596,6.288 9.671,6.271 9.725,6.25 Z"
   id="path51"
   inkscape:connector-curvature="0" />
	<path
   style="clip-rule:evenodd;fill:#fad68f;fill-rule:evenodd"
   d="m 12.5,5 c -0.2,0.4 -0.3,0.617 -0.3,0.65 0,0.133 -0.083,0.233 -0.25,0.3 -0.133,0 -0.233,-0.05 -0.3,-0.15 -0.066,-0.133 -0.033,-0.4 0.1,-0.8 0.038,-0.093 0.071,-0.176 0.1,-0.25 0.084,-0.023 0.167,-0.09 0.25,-0.2 0.033,0 0.217,0 0.55,0 z M 10.7,5.65 C 10.867,5.584 10.967,5.517 11,5.45 11.067,5.317 11.2,5.166 11.4,5 11.576,4.853 11.701,4.77 11.775,4.75 11.652,5.018 11.494,5.368 11.3,5.8 c -0.1,0.267 -0.183,0.367 -0.25,0.3 -0.233,0.1 -0.4,0.2 -0.5,0.3 -0.2,0.267 -0.367,0.717 -0.5,1.35 L 9.9,7.2 10.15,6.15 C 10.317,5.983 10.417,5.867 10.45,5.8 10.483,5.733 10.567,5.683 10.7,5.65 Z"
   id="path53"
   inkscape:connector-curvature="0" />
	<path
   style="clip-rule:evenodd;fill:#fad68f;fill-rule:evenodd"
   d="M 18.25,2.7 18,2.95 C 17.567,3.15 17.317,3.333 17.25,3.5 17.183,3.6 17.133,3.817 17.1,4.15 17.033,4.45 16.916,4.667 16.75,4.8 16.25,4.734 15.917,4.75 15.75,4.85 15.45,5.083 15.2,5.133 15,5 14.867,4.933 14.7,4.917 14.5,4.95 l -0.2,0.1 -0.25,0.3 C 13.717,5.75 13.5,6.05 13.4,6.25 13.334,6.383 13.283,6.417 13.25,6.35 13.217,6.25 13.183,6.166 13.15,6.1 13.084,6 13.05,5.867 13.05,5.7 13.017,5.5 13.033,5.367 13.1,5.3 L 13.2,4.35 C 13.266,4.017 13.5,3.767 13.9,3.6 l 0.5,-0.2 c 0.1,-0.033 0.15,0 0.15,0.1 -0.066,0.2 -0.083,0.333 -0.05,0.4 0.067,0.2 0.233,0.067 0.5,-0.4 0.3,-0.367 0.5,-0.517 0.6,-0.45 0.133,0.1 0.417,0.034 0.85,-0.2 0.267,-0.167 0.483,-0.367 0.65,-0.6 0.167,-0.133 0.333,-0.183 0.5,-0.15 0.066,0.033 0.217,0.083 0.45,0.15 0.167,0.033 0.25,0.083 0.25,0.15 0,0.067 -0.017,0.167 -0.05,0.3 z"
   id="path55"
   inkscape:connector-curvature="0" />
	<path
   style="clip-rule:evenodd;fill:#fad68f;fill-rule:evenodd"
   d="m 14.9,2.7 c 0.233,0 0.333,0.033 0.3,0.1 L 14.75,3.2 C 14.65,3.233 14.633,3.15 14.7,2.95 14.733,2.783 14.8,2.7 14.9,2.7 Z"
   id="path57"
   inkscape:connector-curvature="0" />
	<path
   style="clip-rule:evenodd;fill:#fad68f;fill-rule:evenodd"
   d="m 23.7,0.7 c 0.466,-0.167 0.783,-0.184 0.95,-0.05 0.067,0.033 0.05,0.067 -0.05,0.1 -0.133,0.1 -0.233,0.183 -0.3,0.25 -0.133,0.133 -0.2,0.517 -0.2,1.15 -0.033,0.3 -0.233,0.333 -0.6,0.1 -0.033,-0.3 -0.133,-0.5 -0.3,-0.6 -0.1,-0.066 -0.383,0 -0.85,0.2 -0.467,0.2 -0.717,0.3 -0.75,0.3 -0.133,0 -0.3,0.1 -0.5,0.3 -0.067,0.1 -0.167,0.117 -0.3,0.05 L 20.65,2.35 C 20.517,2.083 20.4,1.983 20.3,2.05 19.933,2.317 19.7,2.4 19.6,2.3 19.433,2.133 19.4,1.883 19.5,1.55 c 0.067,-0.3 0.367,-0.5 0.9,-0.6 0.1,-0.034 0.5,0 1.2,0.1 0.233,0.067 0.6,0.017 1.1,-0.15 0.3,0 0.633,-0.067 1,-0.2 z"
   id="path59"
   inkscape:connector-curvature="0" />
	<path
   style="clip-rule:evenodd;fill:#fad68f;fill-rule:evenodd"
   d="m 20.05,2.65 c 0.133,-0.033 0.25,0 0.35,0.1 C 20.433,2.817 20.483,2.9 20.55,3 20.617,3.067 20.6,3.3 20.5,3.7 20.467,3.867 20.417,3.95 20.35,3.95 20.317,3.95 20.217,3.933 20.05,3.9 19.75,3.9 19.6,3.6 19.6,3 19.567,2.767 19.717,2.65 20.05,2.65 Z"
   id="path61"
   inkscape:connector-curvature="0" />
	<path
   style="clip-rule:evenodd;fill:#fad68f;fill-rule:evenodd"
   d="m 22.7,2 c 0.133,0 0.216,0.083 0.25,0.25 0.033,0.167 0.017,0.3 -0.05,0.4 0,0.033 -0.117,0.083 -0.35,0.15 C 22.417,2.867 22.283,2.767 22.15,2.5 22.017,2.167 22.2,2 22.7,2 Z"
   id="path63"
   inkscape:connector-curvature="0" />
	<path
   style="clip-rule:evenodd;fill:#fad68f;fill-rule:evenodd"
   d="M 30.5,4.05 C 30.7,4.217 30.75,4.433 30.65,4.7 30.616,4.8 30.4,4.933 30,5.1 L 29.65,4.5 C 29.549,4.4 29.466,4.3 29.4,4.2 29.233,4.033 29.133,3.833 29.099,3.6 29.066,3.4 28.999,3.317 28.899,3.35 28.666,3.45 28.449,3.5 28.249,3.5 27.583,3.467 27.167,3.317 27,3.05 L 26.65,2.65 26.6,2.3 c -0.033,-0.133 0.017,-0.2 0.15,-0.2 0.067,-0.033 0.35,-0.017 0.85,0.05 0.2,0.033 0.683,0.267 1.45,0.7 0.1,0.033 0.217,0.117 0.35,0.25 0.1,0.1 0.333,0.267 0.699,0.5 0.101,0.2 0.234,0.35 0.401,0.45 z"
   id="path65"
   inkscape:connector-curvature="0" />
	<path
   style="clip-rule:evenodd;fill:#fad68f;fill-rule:evenodd"
   d="m 26,1.5 c 0.2,0.1 0.2,0.4 0,0.9 L 25.85,2.65 C 25.817,2.617 25.733,2.567 25.6,2.5 25.5,2.467 25.433,2.383 25.4,2.25 25.367,2.083 25.317,1.967 25.25,1.9 25.15,1.767 25.2,1.633 25.4,1.5 25.6,1.367 25.8,1.367 26,1.5 Z"
   id="path67"
   inkscape:connector-curvature="0" />
	<path
   style="clip-rule:evenodd;fill:#fad68f;fill-rule:evenodd"
   d="m 31.6,5.8 c 0.167,-0.033 0.267,0 0.301,0.1 0.066,0.1 0.116,0.15 0.149,0.15 0.2,0 0.25,0.133 0.15,0.4 L 32.05,6.9 31.7,7.35 c -0.066,0.133 -0.066,0.233 0,0.3 0.066,0.033 0.184,0.1 0.35,0.2 0.2,0.133 0.3,0.3 0.3,0.5 0.167,0.167 0.117,0.367 -0.149,0.6 C 31.967,9.183 31.85,9.5 31.85,9.9 l 0.101,0.5 c 0.033,0.233 0.017,0.4 -0.05,0.5 -0.067,0.1 -0.284,0.184 -0.65,0.25 l -0.6,-0.05 C 30.584,11.067 30.501,10.983 30.401,10.85 30.334,10.717 30.3,10.617 30.3,10.55 l 0.2,-0.5 0.15,-0.7 C 30.683,9.217 30.516,9.2 30.15,9.3 c -0.067,0.034 -0.334,0.333 -0.801,0.9 -0.066,0.133 -0.1,0.15 -0.1,0.05 V 10.1 c 0.033,-0.233 0.066,-0.483 0.1,-0.75 0.134,-0.533 0.267,-0.934 0.4,-1.2 C 29.884,7.917 30,7.5 30.1,6.9 30.167,6.633 30.401,6.383 30.8,6.15 31.134,5.917 31.4,5.8 31.6,5.8 Z"
   id="path69"
   inkscape:connector-curvature="0" />
	<path
   style="clip-rule:evenodd;fill:#fad68f;fill-rule:evenodd"
   d="m 29.95,15.45 c -0.066,0.167 -0.134,0.283 -0.2,0.35 -0.2,0.2 -0.184,0.067 0.05,-0.4 0,-0.1 0.084,-0.316 0.25,-0.65 0.167,-0.367 0.334,-0.6 0.5,-0.7 0.167,-0.1 0.184,-0.233 0.05,-0.4 -0.166,-0.3 -0.25,-0.483 -0.25,-0.55 -0.1,-0.434 0.45,-0.55 1.65,-0.35 0.167,0.033 0.25,0.183 0.25,0.45 0,0.167 -0.033,0.4 -0.1,0.7 -0.067,0.267 -0.2,0.367 -0.4,0.3 -0.167,0.333 -0.333,0.617 -0.5,0.85 -0.1,0.133 -0.2,0.184 -0.3,0.15 -0.167,-0.034 -0.334,-0.034 -0.5,0 -0.233,0.067 -0.4,0.15 -0.5,0.25 z"
   id="path71"
   inkscape:connector-curvature="0" />
	<path
   style="clip-rule:evenodd;fill:#fad68f;fill-rule:evenodd"
   d="m 30.7,11.75 c 0.2,-0.067 0.383,-0.017 0.55,0.15 0.134,0.133 0.2,0.25 0.2,0.35 0,0.1 -0.2,0.1 -0.601,0 H 30.15 l 0.1,-0.2 c 0.1,-0.133 0.25,-0.233 0.45,-0.3 z"
   id="path73"
   inkscape:connector-curvature="0" />
	<path
   style="clip-rule:evenodd;fill:#d9d4ca;fill-rule:evenodd"
   d="m 5.15,13.9 0.9,-0.05 c 0.2,0 0.45,0.167 0.75,0.5 0.167,0.167 0.117,0.316 -0.15,0.45 -0.267,0.134 -0.533,0.184 -0.8,0.15 C 5.65,14.916 5.467,14.733 5.3,14.4 Z"
   id="path75"
   inkscape:connector-curvature="0" />
	<path
   style="clip-rule:evenodd;fill:#d9d4ca;fill-rule:evenodd"
   d="m 11.75,16.1 0.55,-0.3 c 0.4,-0.2 0.7,-0.283 0.9,-0.25 0.433,0.067 0.583,0.284 0.45,0.65 -0.066,0.167 -0.2,0.316 -0.4,0.45 -0.233,0.167 -0.45,0.25 -0.65,0.25 -0.2,0 -0.4,-0.133 -0.6,-0.4 z"
   id="path77"
   inkscape:connector-curvature="0" />
	<path
   style="clip-rule:evenodd;fill:#d9d4ca;fill-rule:evenodd"
   d="m 21.6,16.65 1.15,-0.5 h 0.45 c 0.633,0 0.95,0.167 0.95,0.5 0,0.3 -0.433,0.45 -1.3,0.45 -0.3,0 -0.6,-0.067 -0.9,-0.2 z"
   id="path79"
   inkscape:connector-curvature="0" />
	<path
   style="clip-rule:evenodd;fill:#d9d4ca;fill-rule:evenodd"
   d="m 21.8,13.85 0.5,-0.4 h 0.35 c 0.2,0 0.333,0.083 0.4,0.25 0.034,0.2 -0.05,0.383 -0.25,0.55 -0.2,0.133 -0.433,0.117 -0.7,-0.05 z"
   id="path81"
   inkscape:connector-curvature="0" />
	<path
   style="clip-rule:evenodd;fill:#d9d4ca;fill-rule:evenodd"
   d="m 25.5,21.25 h 0.6 c 0.4,0 0.7,0.033 0.9,0.1 0.3,0.167 0.317,0.4 0.05,0.7 h -0.5 c -0.2,0 -0.433,-0.133 -0.7,-0.4 z"
   id="path83"
   inkscape:connector-curvature="0" />
	<path
   style="clip-rule:evenodd;fill:#d9d4ca;fill-rule:evenodd"
   d="m 40.85,11.25 0.2,-0.15 c 0.167,-0.067 0.367,-0.083 0.601,-0.05 0.3,0.067 0.433,0.167 0.399,0.3 -0.034,0.133 -0.2,0.217 -0.5,0.25 -0.2,0.033 -0.383,-0.017 -0.55,-0.15 z"
   id="path85"
   inkscape:connector-curvature="0" />
	<path
   style="clip-rule:evenodd;fill:#d9d4ca;fill-rule:evenodd"
   d="m 38.25,10.75 0.35,-0.2 c 0.267,-0.133 0.5,-0.2 0.7,-0.2 0.233,0 0.334,0.083 0.3,0.25 -0.033,0.2 -0.199,0.333 -0.5,0.4 -0.233,0.1 -0.449,0.083 -0.649,-0.05 z"
   id="path87"
   inkscape:connector-curvature="0" />
	<path
   style="clip-rule:evenodd;fill:#d9d4ca;fill-rule:evenodd"
   d="m 40.85,13.35 c 0.233,0 0.417,-0.017 0.551,-0.05 l -0.051,0.3 c -0.033,0.2 -0.133,0.367 -0.3,0.5 -0.166,0.1 -0.3,0.133 -0.399,0.1 l -0.7,-0.15 0.149,-0.35 c 0.2,-0.233 0.45,-0.35 0.75,-0.35 z"
   id="path89"
   inkscape:connector-curvature="0" />
	<path
   style="clip-rule:evenodd;fill:#c9952c;fill-rule:evenodd"
   d="m 12.85,14.95 c 0.566,0.4 0.75,0.8 0.55,1.2 -0.1,0.233 -0.183,0.35 -0.25,0.35 -0.1,-0.067 -0.2,-0.1 -0.3,-0.1 -0.467,0 -0.833,-0.1 -1.1,-0.3 C 11.617,15.967 11.7,15.6 12,15 l 0.25,-0.55 z"
   id="path91"
   inkscape:connector-curvature="0" />
	<path
   style="clip-rule:evenodd;fill:#c9952c;fill-rule:evenodd"
   d="m 23.45,15.95 c 0.4,0.267 0.433,0.45 0.1,0.55 -0.633,0.367 -1.2,0.5 -1.7,0.4 -0.3,-0.066 -0.4,-0.2 -0.3,-0.4 0.067,-0.1 0.2,-0.267 0.4,-0.5 l 0.4,-0.7 0.25,-0.05 c 0.167,-0.067 0.316,-0.033 0.45,0.1 z"
   id="path93"
   inkscape:connector-curvature="0" />
	<path
   style="clip-rule:evenodd;fill:#c9952c;fill-rule:evenodd"
   d="m 22.35,13.3 c 0.433,-0.033 0.583,0.133 0.45,0.5 -0.066,0.2 -0.333,0.25 -0.8,0.15 -0.267,-0.034 -0.3,-0.15 -0.1,-0.35 0.2,-0.2 0.35,-0.3 0.45,-0.3 z"
   id="path95"
   inkscape:connector-curvature="0" />
	<path
   style="clip-rule:evenodd;fill:#c9952c;fill-rule:evenodd"
   d="m 6.05,13.45 c 0.167,0.1 0.317,0.183 0.45,0.25 0.067,0.033 0.1,0.15 0.1,0.35 0,0.167 -0.033,0.267 -0.1,0.3 -0.267,0.066 -0.417,0.1 -0.45,0.1 -0.133,0.066 -0.267,0.083 -0.4,0.05 -0.133,-0.1 -0.267,-0.183 -0.4,-0.25 -0.233,-0.1 -0.233,-0.3 0,-0.6 0.2,-0.3 0.467,-0.367 0.8,-0.2 z"
   id="path97"
   inkscape:connector-curvature="0" />
	<path
   style="clip-rule:evenodd;fill:#c9952c;fill-rule:evenodd"
   d="m 26.05,21 h 0.5 c 0.333,0.033 0.483,0.15 0.45,0.35 -0.033,0.167 -0.067,0.233 -0.1,0.2 -0.066,-0.033 -0.167,-0.017 -0.3,0.05 -0.167,0.1 -0.317,0.133 -0.45,0.1 -0.133,-0.1 -0.283,-0.167 -0.45,-0.2 -0.2,-0.067 -0.267,-0.183 -0.2,-0.35 0.1,-0.133 0.283,-0.183 0.55,-0.15 z"
   id="path99"
   inkscape:connector-curvature="0" />
	<path
   style="clip-rule:evenodd;fill:#c9952c;fill-rule:evenodd"
   d="m 38.5,10.2 c 0.233,-0.167 0.55,-0.1 0.95,0.2 l -0.4,0.2 c -0.166,0.1 -0.366,0.167 -0.6,0.2 -0.167,0.034 -0.233,-0.033 -0.2,-0.2 0.033,-0.167 0.116,-0.3 0.25,-0.4 z"
   id="path101"
   inkscape:connector-curvature="0" />
	<path
   style="clip-rule:evenodd;fill:#c9952c;fill-rule:evenodd"
   d="m 41.35,10.85 c 0.267,0.033 0.4,0.117 0.4,0.25 -0.033,0.133 -0.167,0.233 -0.4,0.3 -0.166,0.067 -0.283,0.067 -0.35,0 -0.033,-0.066 -0.083,-0.117 -0.15,-0.15 -0.1,-0.067 -0.1,-0.15 0,-0.25 0.1,-0.133 0.266,-0.183 0.5,-0.15 z"
   id="path103"
   inkscape:connector-curvature="0" />
	<path
   style="clip-rule:evenodd;fill:#c9952c;fill-rule:evenodd"
   d="m 40.6,13.2 c 0.301,-0.067 0.434,0.05 0.4,0.35 -0.033,0.233 -0.15,0.45 -0.35,0.65 -0.134,0.1 -0.233,0.133 -0.301,0.1 -0.166,-0.133 -0.3,-0.216 -0.399,-0.25 -0.2,-0.1 -0.217,-0.267 -0.05,-0.5 0.2,-0.2 0.433,-0.317 0.7,-0.35 z"
   id="path105"
   inkscape:connector-curvature="0" />
	<path
   style="clip-rule:evenodd;fill:#ba7000;fill-rule:evenodd"
   d="M 10.7,5.2 C 10.567,5.333 10.433,5.483 10.3,5.65 10.033,5.983 9.85,6.25 9.75,6.45 9.617,6.75 9.45,7.383 9.25,8.35 9.017,9.45 8.9,10.333 8.9,11 8.9,11.667 8.85,12.1 8.75,12.3 8.65,12.467 8.4,12.767 8,13.2 7.5,13.833 6.933,14.3 6.3,14.6 l 1.4,-0.25 c 0.333,-0.067 0.75,-0.15 1.25,-0.25 0.466,-0.1 1.033,-0.317 1.7,-0.65 0.7,-0.3 1.417,-0.85 2.15,-1.65 0.767,-0.8 1.25,-1.6 1.45,-2.4 0.333,-2.133 0.65,-3.833 0.95,-5.1 0.4,-1.966 0.917,-3.05 1.55,-3.25 0.533,-0.133 0.933,-0.133 1.2,0 -0.333,0.067 -0.667,0.317 -1,0.75 -0.567,0.633 -1.017,2.284 -1.35,4.95 -0.233,2.1 -0.667,3.717 -1.3,4.85 -0.3,0.533 -0.933,1.133 -1.9,1.8 -0.933,0.667 -1.917,1.184 -2.95,1.55 -1.667,0.6 -3.1,0.883 -4.3,0.85 -0.533,-0.033 -0.7,-0.267 -0.5,-0.7 0.167,-0.333 0.467,-0.667 0.9,-1 L 6.85,13.2 7.9,12.15 C 8,12.05 8.084,11.567 8.15,10.7 8.25,9.333 8.334,8.45 8.4,8.05 8.5,7.283 8.733,6.633 9.1,6.1 9.3,5.833 9.567,5.55 9.9,5.25 10.1,4.983 10.367,4.967 10.7,5.2 Z"
   id="path107"
   inkscape:connector-curvature="0" />
	<path
   style="clip-rule:evenodd;fill:#ba7000;fill-rule:evenodd"
   d="M 31.55,3.15 31.2,3.05 C 30.833,2.883 30.283,3.167 29.55,3.9 29.083,4.367 28.817,5 28.75,5.8 28.717,6.1 28.617,6.267 28.45,6.3 28.283,6.334 28.166,6.2 28.1,5.9 27.967,5.3 28.2,4.65 28.8,3.95 c 0.533,-0.633 0.533,-0.833 0,-0.6 -0.433,0.167 -0.833,0.5 -1.2,1 -0.533,0.6 -0.85,1.316 -0.95,2.15 -0.2,1.267 -0.316,3.167 -0.35,5.7 -0.033,0.233 -0.566,0.65 -1.6,1.25 -1.333,0.7 -2.317,1.216 -2.95,1.55 -3.633,1.967 -6.033,3.083 -7.2,3.35 -0.833,0.2 -1.483,0.217 -1.95,0.05 -0.434,-0.133 -0.633,-0.4 -0.6,-0.8 0.033,-0.3 0.467,-0.85 1.3,-1.65 0.7,-0.633 1.417,-1.2 2.15,-1.7 1.133,-0.733 2.066,-1.85 2.8,-3.35 0.333,-0.667 0.6,-1.8 0.8,-3.4 0.1,-0.867 0.3,-1.95 0.6,-3.25 0.3,-1.367 0.567,-2.383 0.8,-3.05 0.333,-0.833 0.683,-1.233 1.05,-1.2 0.2,0 0.45,0.1 0.75,0.3 -0.433,0.2 -0.8,0.617 -1.1,1.25 C 20.683,2.583 20.3,4.567 20,7.5 c -0.367,3.167 -1.35,5.417 -2.95,6.75 -1.367,1.167 -2.483,2.083 -3.35,2.75 -0.3,0.2 -0.25,0.3 0.15,0.3 0.4,-0.033 0.767,-0.15 1.1,-0.35 0.233,-0.1 1.1,-0.45 2.6,-1.05 1.534,-0.633 2.567,-1.15 3.1,-1.55 0.867,-0.633 2.283,-1.517 4.25,-2.65 0.167,-0.133 0.267,-0.55 0.3,-1.25 0.133,-1.934 0.216,-3 0.25,-3.2 0.3,-2.633 1.083,-4.25 2.35,-4.85 1.067,-0.5 1.9,-0.583 2.5,-0.25 0.533,0.3 0.95,0.633 1.25,1 z"
   id="path109"
   inkscape:connector-curvature="0" />
	<path
   style="clip-rule:evenodd;fill:#ba7000;fill-rule:evenodd"
   d="m 32.8,6.5 c 0.867,-0.033 1.55,0.133 2.05,0.5 0.334,0.233 0.684,0.667 1.051,1.3 0.533,0.9 0.916,1.2 1.149,0.9 C 37.15,9.1 37.134,9.033 37,9 36.733,8.967 36.55,8.917 36.45,8.85 36.116,8.617 36.7,8.6 38.2,8.8 c 0.399,0.067 0.45,0.217 0.149,0.45 -0.267,0.233 -0.683,0.383 -1.25,0.45 -0.5,0.1 -0.85,0 -1.05,-0.3 l -0.2,-0.5 C 35.516,8.367 35.033,7.967 34.4,7.7 33.599,7.367 32.533,7.567 31.2,8.3 c -0.601,0.3 -1.15,0.883 -1.65,1.75 -0.434,0.8 -0.7,1.617 -0.8,2.45 -0.167,1.4 -0.483,2.4 -0.95,3 -0.267,0.333 -0.7,0.717 -1.3,1.15 l -3.35,2.1 1.45,-0.1 c 0.566,-0.066 1.583,-0.517 3.05,-1.35 0.133,-0.066 0.217,-0.183 0.25,-0.35 0.033,-0.267 0.083,-0.55 0.15,-0.85 0.4,-1.667 0.917,-2.767 1.55,-3.3 0.9,-0.767 1.967,-1.033 3.2,-0.8 0.533,0.1 1,0.417 1.4,0.95 0.033,0.066 0.267,0.5 0.7,1.3 0.233,0.467 0.449,1.367 0.649,2.7 0.134,0.433 0.066,0.7 -0.2,0.8 -0.3,0.067 -0.483,-0.067 -0.55,-0.4 0.101,-1.267 0.033,-2.167 -0.2,-2.7 -0.399,-0.8 -1.3,-1.25 -2.699,-1.35 -0.567,-0.033 -1.134,0.167 -1.7,0.6 -0.467,0.4 -0.834,0.883 -1.101,1.45 -0.167,0.3 -0.383,0.867 -0.649,1.7 -0.233,0.667 -0.383,1 -0.45,1 l -3.2,1.4 c -0.7,0.3 -1.35,0.466 -1.95,0.5 -0.633,0.033 -1.05,-0.1 -1.25,-0.4 -0.133,-0.233 0.433,-0.8 1.7,-1.7 0.667,-0.467 1.517,-1.017 2.55,-1.65 0.566,-0.4 1.3,-1.034 2.2,-1.9 L 28,13.75 c 0,-1.6 0.367,-3.117 1.1,-4.55 0.467,-0.867 1.067,-1.55 1.801,-2.05 0.632,-0.4 1.266,-0.617 1.899,-0.65 z"
   id="path111"
   inkscape:connector-curvature="0" />
	<path
   style="clip-rule:evenodd;fill:#eb9800;fill-rule:evenodd"
   d="M 9.4,6.05 C 9.733,5.65 9.917,5.517 9.95,5.65 9.683,6.05 9.483,6.334 9.35,6.5 9.25,6.633 9.133,6.967 9,7.5 8.867,8.067 8.783,8.6 8.75,9.1 8.683,9.833 8.583,10.35 8.45,10.65 L 8.4,10.1 C 8.333,9.4 8.417,8.533 8.65,7.5 8.783,6.933 9.033,6.45 9.4,6.05 Z"
   id="path113"
   inkscape:connector-curvature="0" />
	<path
   style="clip-rule:evenodd;fill:#eb9800;fill-rule:evenodd"
   d="m 5.6,14.35 c 0.167,-0.033 0.25,0.017 0.25,0.15 -0.067,0.167 -0.05,0.267 0.05,0.3 0.167,0.067 0.85,0 2.05,-0.2 0.5,0 0.45,0.05 -0.15,0.15 L 6.3,15.1 C 6,15.2 5.6,15.183 5.1,15.05 c -0.167,-0.033 -0.167,-0.167 0,-0.4 0.2,-0.2 0.367,-0.3 0.5,-0.3 z"
   id="path115"
   inkscape:connector-curvature="0" />
	<path
   style="clip-rule:evenodd;fill:#eb9800;fill-rule:evenodd"
   d="m 15.35,4.4 c 0.3,-1.667 0.617,-2.633 0.95,-2.9 0.233,-0.2 0.4,-0.283 0.5,-0.25 0.1,0 0.083,0.083 -0.05,0.25 -0.167,0.133 -0.35,0.417 -0.55,0.85 -0.2,0.467 -0.333,0.9 -0.4,1.3 -0.066,0.6 -0.383,2.15 -0.95,4.65 -0.167,0.934 -0.367,1.45 -0.6,1.55 0.133,-0.2 0.233,-0.533 0.3,-1 z"
   id="path117"
   inkscape:connector-curvature="0" />
	<path
   style="clip-rule:evenodd;fill:#eb9800;fill-rule:evenodd"
   d="m 21.15,0.25 c 0.2,-0.1 0.35,-0.1 0.45,0 l -0.55,0.7 c -0.4,0.566 -0.7,1.5 -0.9,2.8 l -0.9,4.45 c -0.1,0.6 -0.017,-0.3 0.25,-2.7 0.033,-0.333 0.15,-0.85 0.35,-1.55 0.2,-0.8 0.333,-1.383 0.4,-1.75 0.167,-1.033 0.467,-1.683 0.9,-1.95 z"
   id="path119"
   inkscape:connector-curvature="0" />
	<path
   style="clip-rule:evenodd;fill:#eb9800;fill-rule:evenodd"
   d="m 14.5,15.1 c 0.333,-0.3 0.8,-0.6 1.4,-0.9 0.567,-0.333 0.733,-0.383 0.5,-0.15 -0.467,0.333 -0.85,0.65 -1.15,0.95 -0.2,0.233 -0.883,0.683 -2.05,1.35 -0.167,0.066 0.033,-0.15 0.6,-0.65 z"
   id="path121"
   inkscape:connector-curvature="0" />
	<path
   style="clip-rule:evenodd;fill:#eb9800;fill-rule:evenodd"
   d="m 16.1,16.95 c -0.067,0.066 -0.184,0.15 -0.35,0.25 -0.133,0.2 -0.617,0.4 -1.45,0.6 -0.6,0.2 -1.133,0.25 -1.6,0.15 -0.267,-0.067 -0.4,-0.217 -0.4,-0.45 -0.033,-0.233 0.05,-0.367 0.25,-0.4 0.167,-0.033 0.267,-0.017 0.3,0.05 0,0.067 -0.017,0.184 -0.05,0.35 0,0.133 0.117,0.167 0.35,0.1 0.467,-0.1 0.75,-0.15 0.85,-0.15 0.467,0 1.117,-0.167 1.95,-0.5 0.2,-0.067 0.25,-0.067 0.15,0 z"
   id="path123"
   inkscape:connector-curvature="0" />
	<path
   style="clip-rule:evenodd;fill:#eb9800;fill-rule:evenodd"
   d="M 29.6,2.9 C 29.534,2.933 29.467,2.917 29.401,2.85 29.367,2.75 29.284,2.717 29.151,2.75 28.617,2.917 28.167,3.083 27.8,3.25 27.334,3.483 26.883,4.167 26.45,5.3 26.283,5.767 26,6.75 25.6,8.25 c -0.033,0.067 0.017,-0.5 0.15,-1.7 0.133,-1.133 0.5,-2.15 1.1,-3.05 0.433,-0.7 1.1,-1.133 2,-1.3 0.8,-0.034 1.35,0.1 1.65,0.4 0.167,0.2 -0.134,0.3 -0.9,0.3 z"
   id="path125"
   inkscape:connector-curvature="0" />
	<path
   style="clip-rule:evenodd;fill:#eb9800;fill-rule:evenodd"
   d="m 28.5,4.65 c 0.167,-0.233 0.2,-0.133 0.1,0.3 0,0.1 -0.017,0.3 -0.05,0.6 C 28.484,5.783 28.4,5.883 28.3,5.85 28.2,5.817 28.183,5.65 28.25,5.35 28.317,5.017 28.4,4.783 28.5,4.65 Z"
   id="path127"
   inkscape:connector-curvature="0" />
	<path
   style="clip-rule:evenodd;fill:#eb9800;fill-rule:evenodd"
   d="m 25.2,11.75 c 0.133,0 0.267,0.067 0.4,0.2 0.1,0.133 0.117,0.233 0.05,0.3 -0.033,0.033 -0.283,0.05 -0.75,0.05 -0.233,0.034 -0.283,-0.05 -0.15,-0.25 0.1,-0.2 0.25,-0.3 0.45,-0.3 z"
   id="path129"
   inkscape:connector-curvature="0" />
	<path
   style="clip-rule:evenodd;fill:#eb9800;fill-rule:evenodd"
   d="m 23.45,19.1 0.95,0.1 c -0.333,0.133 -0.717,0.216 -1.15,0.25 -0.267,0.033 -0.467,0.033 -0.6,0 -0.2,-0.034 -0.35,-0.05 -0.45,-0.05 -0.233,0 -0.284,-0.083 -0.15,-0.25 0.1,-0.167 0.25,-0.3 0.45,-0.4 0.067,-0.033 0.133,-0.017 0.2,0.05 0.033,0.067 0.033,0.117 0,0.15 -0.033,0.1 0.217,0.15 0.75,0.15 z"
   id="path131"
   inkscape:connector-curvature="0" />
	<path
   style="clip-rule:evenodd;fill:#eb9800;fill-rule:evenodd"
   d="m 31.6,7 c 1,-0.367 1.75,-0.333 2.25,0.1 -0.133,0 -0.666,0.117 -1.6,0.35 -0.733,0.133 -1.35,0.4 -1.85,0.8 -0.167,0.133 -0.467,0.533 -0.9,1.2 -0.366,0.6 -0.567,0.9 -0.6,0.9 -0.066,-0.067 0.167,-0.583 0.7,-1.55 0.433,-0.867 1.1,-1.467 2,-1.8 z"
   id="path133"
   inkscape:connector-curvature="0" />
	<path
   style="clip-rule:evenodd;fill:#eb9800;fill-rule:evenodd"
   d="m 29.5,13.85 c -0.333,0.5 -0.567,0.816 -0.7,0.95 -0.167,0.233 -0.216,0.217 -0.15,-0.05 0.067,-0.233 0.2,-0.533 0.4,-0.9 0.267,-0.567 0.75,-1 1.45,-1.3 0.467,-0.2 1.017,-0.267 1.65,-0.2 0.333,0.033 0.716,0.083 1.149,0.15 0.267,0.033 0.4,0.117 0.4,0.25 -0.033,0.1 -0.15,0.15 -0.351,0.15 -0.6,-0.133 -1.183,-0.183 -1.75,-0.15 -0.3,0.033 -0.716,0.15 -1.25,0.35 -0.232,0.067 -0.515,0.317 -0.848,0.75 z"
   id="path135"
   inkscape:connector-curvature="0" />
	<path
   style="clip-rule:evenodd;fill:#eb9800;fill-rule:evenodd"
   d="M 37.8,8.85 C 38.1,8.817 38.217,8.867 38.15,9 38.116,9.1 38.016,9.2 37.849,9.3 37.616,9.4 37.45,9.35 37.349,9.15 37.217,8.95 37.366,8.85 37.8,8.85 Z"
   id="path137"
   inkscape:connector-curvature="0" />
	<path
   style="clip-rule:evenodd;fill:#eb9800;fill-rule:evenodd"
   d="m 35.1,16.85 c 0.301,0.3 0.317,0.5 0.051,0.6 -0.134,0.033 -0.2,-0.067 -0.2,-0.3 C 34.95,16.883 35,16.783 35.1,16.85 Z"
   id="path139"
   inkscape:connector-curvature="0" />
</g>
</svg>