<?xml version="1.0" encoding="UTF-8" standalone="no"?>
<!-- Generator: Adobe Illustrator 15.1.0, SVG Export Plug-In . SVG Version: 6.00 Build 0)  -->

<svg
   xmlns:dc="http://purl.org/dc/elements/1.1/"
   xmlns:cc="http://creativecommons.org/ns#"
   xmlns:rdf="http://www.w3.org/1999/02/22-rdf-syntax-ns#"
   xmlns:svg="http://www.w3.org/2000/svg"
   xmlns="http://www.w3.org/2000/svg"
   xmlns:xlink="http://www.w3.org/1999/xlink"
   xmlns:sodipodi="http://sodipodi.sourceforge.net/DTD/sodipodi-0.dtd"
   xmlns:inkscape="http://www.inkscape.org/namespaces/inkscape"
   version="1.1"
   id="flash0.ai"
   x="0px"
   y="0px"
   width="256"
   height="256"
   viewBox="0 0 256 256.00001"
   xml:space="preserve"
   sodipodi:docname="bean_dip.svg"
   inkscape:version="0.92.4 (5da689c313, 2019-01-14)"><title
   id="title966">Bean Dip</title><metadata
   id="metadata159"><rdf:RDF><cc:Work
       rdf:about=""><dc:format>image/svg+xml</dc:format><dc:type
         rdf:resource="http://purl.org/dc/dcmitype/StillImage" /><dc:title>Bean Dip</dc:title><cc:license
         rdf:resource="http://creativecommons.org/publicdomain/zero/1.0/" /><dc:creator><cc:Agent><dc:title>Glitch</dc:title></cc:Agent></dc:creator><dc:source>https://opengameart.org/node/20149</dc:source></cc:Work><cc:License
       rdf:about="http://creativecommons.org/publicdomain/zero/1.0/"><cc:permits
         rdf:resource="http://creativecommons.org/ns#Reproduction" /><cc:permits
         rdf:resource="http://creativecommons.org/ns#Distribution" /><cc:permits
         rdf:resource="http://creativecommons.org/ns#DerivativeWorks" /></cc:License></rdf:RDF></metadata><defs
   id="defs157"><linearGradient
     inkscape:collect="always"
     xlink:href="#SVGID_1_"
     id="linearGradient984"
     gradientUnits="userSpaceOnUse"
     gradientTransform="matrix(0.3521,-0.936,0.936,0.3521,12938.142,2358.9668)"
     x1="-2344.2666"
     y1="-12937.217"
     x2="-2333.2617"
     y2="-12937.217" /></defs><sodipodi:namedview
   pagecolor="#ffffff"
   bordercolor="#666666"
   borderopacity="1"
   objecttolerance="10"
   gridtolerance="10"
   guidetolerance="10"
   inkscape:pageopacity="0"
   inkscape:pageshadow="2"
   inkscape:window-width="1920"
   inkscape:window-height="1025"
   id="namedview155"
   showgrid="false"
   inkscape:zoom="1.6506153"
   inkscape:cx="88.021152"
   inkscape:cy="47.836552"
   inkscape:window-x="-8"
   inkscape:window-y="-8"
   inkscape:window-maximized="1"
   inkscape:current-layer="flash0.ai"
   fit-margin-top="0"
   fit-margin-left="0"
   fit-margin-right="0"
   fit-margin-bottom="0" />
<symbol
   id="flash0.ai_x5F_1_x2F_Layer_22_x2F__x3C_Path_x3E__x5F_51"
   viewBox="0 -13.45 12 13.45"
   transform="translate(-5.5999997,205.462)">
	<g
   id="Layer_1_2_">
		
			<linearGradient
   id="SVGID_1_"
   gradientUnits="userSpaceOnUse"
   x1="-2344.2666"
   y1="-12937.217"
   x2="-2333.2617"
   y2="-12937.217"
   gradientTransform="matrix(0.3521,-0.936,0.936,0.3521,12938.142,2358.9668)">
			<stop
   offset="0.0039"
   style="stop-color:#FFFFFF"
   id="stop2" />
			<stop
   offset="1"
   style="stop-color:#B8EEFF"
   id="stop4" />
		</linearGradient>
		<path
   style="clip-rule:evenodd;fill:url(#linearGradient984);fill-rule:evenodd"
   d="m 0.05,0 5.5,-2.25 C 5.383,-2.55 5.267,-3.017 5.2,-3.65 5.033,-4.85 5.217,-6.2 5.75,-7.7 c 0.6,-1.833 1.817,-3.35 3.65,-4.55 0.934,-0.567 1.8,-0.967 2.6,-1.2 -1.033,0.267 -2.183,0.7 -3.45,1.3 -2.533,1.2 -4.367,2.617 -5.5,4.25 C 1.55,-5.7 0.6,-3.733 0.2,-2 0,-1.1 -0.05,-0.433 0.05,0 Z"
   id="path7"
   inkscape:connector-curvature="0" />
	</g>
</symbol>
<g
   id="g152"
   transform="matrix(9.5611578,0,0,9.5611578,-53.542484,-273.45389)">
	
		<linearGradient
   id="SVGID_2_"
   gradientUnits="userSpaceOnUse"
   x1="0.20020001"
   y1="15.4995"
   x2="35.5"
   y2="15.4995"
   gradientTransform="matrix(0.75,0,0,0.75,5.6001,33.4004)">
		<stop
   offset="0"
   style="stop-color:#DAE9ED"
   id="stop11" />
		<stop
   offset="0.9843"
   style="stop-color:#8DD0D9"
   id="stop13" />
	</linearGradient>
	<path
   style="clip-rule:evenodd;fill:url(#SVGID_2_);fill-rule:evenodd"
   d="m 18.988,41.35 c 5,0 9.413,-0.612 13.237,-1.837 -0.449,3.125 -1.924,5.737 -4.425,7.837 -2.524,2.125 -5.462,3.188 -8.812,3.188 -3.375,0 -6.325,-1.063 -8.85,-3.188 -2.5,-2.1 -3.963,-4.712 -4.388,-7.837 3.825,1.224 8.237,1.837 13.238,1.837 z"
   id="path16"
   inkscape:connector-curvature="0" />
	
		<use
   xlink:href="#flash0.ai_x5F_1_x2F_Layer_22_x2F__x3C_Path_x3E__x5F_51"
   width="12"
   height="13.45"
   x="0"
   y="-13.45"
   transform="matrix(0.75,0,0,-0.75,11.45,193.7967)"
   style="overflow:visible;opacity:0.53130002;enable-background:new"
   id="use18" />
	<path
   style="clip-rule:evenodd;fill:#91bdc4;fill-rule:evenodd"
   d="m 28.513,40.487 2.85,-1.05 -0.075,1.2 c -0.199,1.125 -0.662,2.475 -1.387,4.05 -0.676,1.525 -1.9,2.75 -3.676,3.675 l -2.25,0.882 c 0.54,-0.235 1.103,-0.566 1.688,-0.994 1.325,-0.975 2.188,-2.112 2.588,-3.412 0.4,-1.325 0.563,-2.45 0.487,-3.375 z"
   id="path20"
   inkscape:connector-curvature="0" />
	<path
   style="clip-rule:evenodd;fill:#d1f5ff;fill-rule:evenodd"
   d="m 32.375,38.912 c 0,0.926 -1.313,1.713 -3.938,2.363 -2.6,0.649 -5.75,0.975 -9.45,0.975 -3.7,0 -6.85,-0.325 -9.45,-0.975 C 6.913,40.625 5.6,39.838 5.6,38.912 5.6,37.987 6.913,37.2 9.538,36.55 c 2.6,-0.649 5.75,-0.975 9.45,-0.975 3.7,0 6.85,0.325 9.45,0.975 2.625,0.65 3.937,1.437 3.937,2.362 z"
   id="path22"
   inkscape:connector-curvature="0" />
	
		<linearGradient
   id="SVGID_3_"
   gradientUnits="userSpaceOnUse"
   x1="2"
   y1="6.9751"
   x2="33.700199"
   y2="6.9751"
   gradientTransform="matrix(0.75,0,0,0.75,5.6001,33.4004)">
		<stop
   offset="0.0039"
   style="stop-color:#68A8B0"
   id="stop24" />
		<stop
   offset="1"
   style="stop-color:#B8EEFF"
   id="stop26" />
	</linearGradient>
	<path
   style="clip-rule:evenodd;fill:url(#SVGID_3_);fill-rule:evenodd"
   d="m 30.875,38.612 c 0,0.725 -1.162,1.351 -3.487,1.875 -2.325,0.525 -5.125,0.788 -8.4,0.788 -3.275,0 -6.075,-0.263 -8.4,-0.788 C 8.263,39.963 7.1,39.337 7.1,38.612 c 0,-0.725 1.163,-1.35 3.487,-1.875 2.3,-0.5 5.1,-0.75 8.4,-0.75 3.299,0 6.1,0.25 8.4,0.75 2.326,0.526 3.488,1.151 3.488,1.875 z"
   id="path29"
   inkscape:connector-curvature="0" />
	
		<radialGradient
   id="SVGID_4_"
   cx="14.8999"
   cy="4.75"
   r="18.1625"
   gradientTransform="matrix(0.75,0,0,-0.75,5.6001,40.5254)"
   gradientUnits="userSpaceOnUse">
		<stop
   offset="0"
   style="stop-color:#EBAB70"
   id="stop31" />
		<stop
   offset="1"
   style="stop-color:#C99360"
   id="stop33" />
	</radialGradient>
	<path
   style="clip-rule:evenodd;fill:url(#SVGID_4_);fill-rule:evenodd"
   d="m 30.313,39.475 c -0.45,0.301 -1.263,0.601 -2.438,0.9 -2.35,0.6 -5.313,0.9 -8.887,0.9 -4.375,0 -7.625,-0.363 -9.75,-1.088 -1.075,-0.375 -1.712,-0.75 -1.913,-1.125 0.5,-0.7 0.975,-1.063 1.425,-1.088 0.225,-0.024 0.388,-0.024 0.488,0 0.05,0 0.1,-0.024 0.15,-0.074 0.35,-0.351 0.55,-0.613 0.6,-0.788 0.05,-0.25 0.1,-0.412 0.15,-0.487 0.075,-0.15 0.262,-0.288 0.563,-0.412 1.225,-0.4 1.85,-0.626 1.875,-0.676 0.35,-0.449 0.6,-0.688 0.75,-0.712 l 1.875,-0.038 c 0.175,-0.024 0.438,-0.112 0.788,-0.262 0.4,-0.15 0.762,-0.263 1.087,-0.338 C 17.6,34.063 18.275,34 19.1,34 c 0.926,0.025 1.563,0.138 1.913,0.338 l 0.75,0.449 0.45,-0.225 c 0.4,-0.125 0.8,-0.125 1.199,0 0.351,0.1 0.813,0.225 1.388,0.375 0.426,0.125 0.7,0.25 0.825,0.375 0.075,0.075 0.412,0.213 1.013,0.412 0.6,0.226 1.013,0.463 1.237,0.713 l 0.975,1.237 c 0.051,0.05 0.238,0.175 0.563,0.375 0.301,0.2 0.45,0.388 0.45,0.563 -0.001,0.276 0.15,0.563 0.45,0.863 z"
   id="path36"
   inkscape:connector-curvature="0" />
	<path
   style="clip-rule:evenodd;fill:#c98e57;fill-rule:evenodd"
   d="m 22.4,35.05 h 1.462 c 0.5,0 0.763,0.213 0.788,0.638 0.05,0.274 0.025,0.438 -0.075,0.487 -0.1,0.025 -0.362,-0.037 -0.788,-0.188 -0.35,-0.125 -0.688,-0.313 -1.012,-0.563 z"
   id="path38"
   inkscape:connector-curvature="0" />
	<path
   style="clip-rule:evenodd;fill:#c98e57;fill-rule:evenodd"
   d="m 14.488,35.725 0.825,-0.6 c 0.625,-0.425 1.175,-0.638 1.65,-0.638 0.475,0 0.788,0.15 0.938,0.45 0.05,0.1 0.075,0.35 0.075,0.75 0,0.225 -0.063,0.375 -0.188,0.45 -0.15,0.075 -0.487,0.112 -1.013,0.112 -0.425,0 -0.938,-0.088 -1.537,-0.263 z"
   id="path40"
   inkscape:connector-curvature="0" />
	<path
   style="clip-rule:evenodd;fill:#c98e57;fill-rule:evenodd"
   d="m 10.475,39.1 c 0.2,0.176 0.325,0.488 0.375,0.938 -0.2,0.351 -0.475,0.476 -0.825,0.375 l -1.612,-0.6 0.375,-0.825 c 0.125,-0.3 0.375,-0.45 0.75,-0.45 0.299,-10e-4 0.612,0.187 0.937,0.562 z"
   id="path42"
   inkscape:connector-curvature="0" />
	<path
   style="clip-rule:evenodd;fill:#c98e57;fill-rule:evenodd"
   d="m 10.288,37.713 0.45,-0.676 c 0.025,-0.399 0.4,-0.688 1.125,-0.862 0.35,-0.075 0.612,-0.149 0.787,-0.225 0.025,0 0.15,0.138 0.375,0.412 0.275,0.3 0.363,0.575 0.263,0.825 -0.125,0.25 -0.462,0.45 -1.013,0.6 -0.75,0.226 -1.413,0.2 -1.987,-0.074 z"
   id="path44"
   inkscape:connector-curvature="0" />
	<path
   style="clip-rule:evenodd;fill:#c98e57;fill-rule:evenodd"
   d="m 19.85,35.088 0.338,-0.375 c 0.275,-0.176 0.563,-0.15 0.862,0.074 0.351,0.275 0.525,0.5 0.525,0.676 -0.025,0.175 -0.188,0.25 -0.487,0.225 -0.226,-0.025 -0.5,-0.138 -0.825,-0.338 z"
   id="path46"
   inkscape:connector-curvature="0" />
	<path
   style="clip-rule:evenodd;fill:#c98e57;fill-rule:evenodd"
   d="M 16.55,40.713 16.475,40.3 c 0.075,-0.274 0.175,-0.55 0.3,-0.825 0.275,-0.55 0.55,-0.837 0.825,-0.862 0.3,-0.025 0.487,0.013 0.563,0.112 0.05,0.05 0.075,0.226 0.075,0.525 0,0.7 -0.15,1.2 -0.45,1.5 -0.25,0.25 -0.663,0.237 -1.238,-0.037 z"
   id="path48"
   inkscape:connector-curvature="0" />
	<path
   style="clip-rule:evenodd;fill:#c98e57;fill-rule:evenodd"
   d="m 25.813,38.612 c 0.25,-0.225 0.65,-0.388 1.2,-0.487 0.625,-0.125 1.138,-0.05 1.537,0.225 0.45,0.325 0.626,0.638 0.525,0.938 -0.1,0.301 -0.487,0.45 -1.163,0.45 -0.574,0 -1.1,-0.188 -1.574,-0.563 z"
   id="path50"
   inkscape:connector-curvature="0" />
	<path
   style="clip-rule:evenodd;fill:#cfa34b;fill-rule:evenodd"
   d="M 16.925,35.987 C 16,35.912 15.413,35.7 15.163,35.35 l -0.3,-1.612 1.125,0.262 c 0.45,0.125 0.775,0.287 0.975,0.487 z"
   id="path52"
   inkscape:connector-curvature="0" />
	<path
   style="clip-rule:evenodd;fill:#ffe78a;fill-rule:evenodd"
   d="m 14.488,35.725 c 0,-0.325 0.125,-0.987 0.375,-1.987 l 1.725,1.987 0.338,0.263 h -1.463 c -0.3,0 -0.55,-0.037 -0.75,-0.112 z"
   id="path54"
   inkscape:connector-curvature="0" />
	<path
   style="clip-rule:evenodd;fill:#cfa34b;fill-rule:evenodd"
   d="m 24.35,35.725 c -0.324,0.125 -0.637,0.176 -0.938,0.15 -0.175,-0.025 -0.35,-0.125 -0.524,-0.3 l -0.226,-0.226 1.013,-1.05 c 0.15,-0.1 0.288,0.025 0.413,0.375 0.074,0.226 0.162,0.576 0.262,1.051 z"
   id="path56"
   inkscape:connector-curvature="0" />
	<path
   style="clip-rule:evenodd;fill:#ffe78a;fill-rule:evenodd"
   d="m 23.6,35.35 -0.188,0.525 C 23.163,35.774 22.912,35.6 22.662,35.35 L 22.4,35.05 22.55,34.9 c 0.101,-0.125 0.226,-0.226 0.375,-0.301 l 0.75,-0.3 C 23.625,34.625 23.6,34.975 23.6,35.35 Z"
   id="path58"
   inkscape:connector-curvature="0" />
	<path
   style="clip-rule:evenodd;fill:#cfa34b;fill-rule:evenodd"
   d="m 21.725,39.362 0.938,-0.375 0.188,0.563 c 0,0.15 -0.062,0.325 -0.188,0.525 -0.125,0.199 -0.249,0.3 -0.375,0.3 h -0.563 c -0.1,-0.05 -0.199,-0.125 -0.3,-0.225 -0.2,-0.15 -0.287,-0.263 -0.263,-0.338 0.025,-0.075 0.126,-0.175 0.301,-0.3 0.1,-0.049 0.187,-0.1 0.262,-0.15 z"
   id="path60"
   inkscape:connector-curvature="0" />
	<path
   style="clip-rule:evenodd;fill:#ffe78a;fill-rule:evenodd"
   d="m 21.162,39.813 c 0,-0.35 0.088,-0.612 0.263,-0.787 0.175,-0.176 0.4,-0.226 0.675,-0.15 l 0.563,0.112 c -0.3,0.7 -0.574,1.05 -0.824,1.05 -0.15,0 -0.313,-0.037 -0.488,-0.112 z"
   id="path62"
   inkscape:connector-curvature="0" />
	<path
   style="clip-rule:evenodd;fill:#c98e57;fill-rule:evenodd"
   d="m 11.9,38.537 c 0.3,0 0.425,0.176 0.375,0.525 -0.025,0.35 -0.15,0.6 -0.375,0.75 -0.175,0.1 -0.387,0.025 -0.637,-0.225 -0.225,-0.2 -0.425,-0.463 -0.6,-0.788 -0.125,-0.225 -0.125,-0.337 0,-0.337 0.125,0 0.537,0.025 1.237,0.075 z"
   id="path64"
   inkscape:connector-curvature="0" />
	<path
   style="clip-rule:evenodd;fill:#c98e57;fill-rule:evenodd"
   d="m 12.913,39.175 c 0.275,0.025 0.363,0.162 0.263,0.413 -0.125,0.25 -0.3,0.337 -0.525,0.262 -0.2,-0.05 -0.25,-0.175 -0.15,-0.375 0.099,-0.225 0.236,-0.326 0.412,-0.3 z"
   id="path66"
   inkscape:connector-curvature="0" />
	<path
   style="clip-rule:evenodd;fill:#c98e57;fill-rule:evenodd"
   d="m 19.588,36.287 c 0.449,0 0.563,0.15 0.337,0.45 -0.225,0.3 -0.475,0.463 -0.75,0.487 -0.25,0.05 -0.5,-0.024 -0.75,-0.225 -0.275,-0.2 -0.325,-0.412 -0.15,-0.638 0.15,-0.175 0.3,-0.25 0.45,-0.225 0.4,0.101 0.687,0.151 0.863,0.151 z"
   id="path68"
   inkscape:connector-curvature="0" />
	<path
   style="clip-rule:evenodd;fill:#c98e57;fill-rule:evenodd"
   d="m 20.713,37.225 c 0.375,-0.175 0.563,0.038 0.563,0.638 0,0.45 -0.325,0.638 -0.976,0.563 -0.324,-0.025 -0.388,-0.2 -0.188,-0.524 0.151,-0.302 0.351,-0.527 0.601,-0.677 z"
   id="path70"
   inkscape:connector-curvature="0" />
	<path
   style="clip-rule:evenodd;fill:#c98e57;fill-rule:evenodd"
   d="m 19.963,38.8 c 0.324,-0.025 0.449,0.112 0.375,0.413 -0.051,0.3 -0.188,0.512 -0.413,0.637 -0.325,0.226 -0.537,0.088 -0.638,-0.412 -0.074,-0.375 0.151,-0.588 0.676,-0.638 z"
   id="path72"
   inkscape:connector-curvature="0" />
	<path
   style="clip-rule:evenodd;fill:#c98e57;fill-rule:evenodd"
   d="m 24.237,39.737 c 0.125,0.05 0.125,0.162 0,0.338 -0.124,0.199 -0.3,0.362 -0.524,0.487 -0.35,0.2 -0.55,0.075 -0.601,-0.375 -0.024,-0.175 0.088,-0.313 0.338,-0.412 0.276,-0.075 0.537,-0.087 0.787,-0.038 z"
   id="path74"
   inkscape:connector-curvature="0" />
	<path
   style="clip-rule:evenodd;fill:#c98e57;fill-rule:evenodd"
   d="m 24.537,37 c 0.25,-0.075 0.338,0.013 0.263,0.263 0,0.024 -0.087,0.225 -0.263,0.6 -0.049,0.125 -0.175,0.213 -0.375,0.263 -0.199,0.025 -0.35,-0.025 -0.449,-0.15 -0.101,-0.125 -0.075,-0.287 0.074,-0.487 0.151,-0.202 0.401,-0.364 0.75,-0.489 z"
   id="path76"
   inkscape:connector-curvature="0" />
	<path
   style="clip-rule:evenodd;fill:#c98e57;fill-rule:evenodd"
   d="m 24.987,35.725 c 0.2,-0.05 0.438,-0.05 0.713,0 0.3,0.075 0.476,0.2 0.524,0.375 0.126,0.4 -0.225,0.575 -1.05,0.525 -0.324,-0.025 -0.487,-0.175 -0.487,-0.45 0.026,-0.225 0.126,-0.375 0.3,-0.45 z"
   id="path78"
   inkscape:connector-curvature="0" />
	<path
   style="clip-rule:evenodd;fill:#c98e57;fill-rule:evenodd"
   d="m 29.412,38.8 c 0.426,0.15 0.563,0.3 0.413,0.45 -0.15,0.125 -0.325,0.188 -0.525,0.188 -0.1,0 -0.137,-0.125 -0.112,-0.375 0,-0.225 0.075,-0.313 0.224,-0.263 z"
   id="path80"
   inkscape:connector-curvature="0" />
	<path
   style="clip-rule:evenodd;fill:#e6c088;fill-rule:evenodd"
   d="M 8.525,38.162 C 8.825,38.138 8.9,38.225 8.75,38.425 8.675,38.526 8.525,38.688 8.3,38.912 8.225,39.037 8.088,39.062 7.887,38.987 7.826,38.969 7.776,38.964 7.737,38.968 7.776,38.907 7.825,38.826 7.887,38.724 8.063,38.375 8.275,38.188 8.525,38.162 Z"
   id="path82"
   inkscape:connector-curvature="0" />
	<path
   style="clip-rule:evenodd;fill:#e6c088;fill-rule:evenodd"
   d="m 13.175,35.162 c 0.325,-0.325 0.575,-0.074 0.75,0.75 0.025,0.25 0.275,0.551 0.75,0.9 0,0.2 -0.087,0.3 -0.263,0.3 -0.125,0 -0.3,-0.063 -0.525,-0.188 -0.2,-0.1 -0.313,-0.2 -0.337,-0.3 l -0.75,-0.9 z"
   id="path84"
   inkscape:connector-curvature="0" />
	<path
   style="clip-rule:evenodd;fill:#e6c088;fill-rule:evenodd"
   d="m 13.587,37.563 c 0.45,0.05 0.65,0.138 0.6,0.263 -0.15,0.149 -0.262,0.263 -0.337,0.337 -0.075,0.125 -0.163,0.188 -0.263,0.188 -0.05,0 -0.15,-0.037 -0.3,-0.112 -0.15,-0.05 -0.188,-0.188 -0.112,-0.412 0.075,-0.202 0.213,-0.29 0.412,-0.264 z"
   id="path86"
   inkscape:connector-curvature="0" />
	<path
   style="clip-rule:evenodd;fill:#e6c088;fill-rule:evenodd"
   d="m 14.788,38.612 c 0.275,-0.225 0.475,-0.313 0.6,-0.263 0.125,0.075 0.087,0.25 -0.113,0.525 -0.15,0.225 -0.225,0.513 -0.225,0.862 0,0.175 0.012,0.362 0.037,0.563 0,0.101 -0.087,0.075 -0.262,-0.075 -0.175,-0.149 -0.313,-0.313 -0.413,-0.487 -0.199,-0.375 -0.075,-0.75 0.376,-1.125 z"
   id="path88"
   inkscape:connector-curvature="0" />
	<path
   style="clip-rule:evenodd;fill:#e6c088;fill-rule:evenodd"
   d="m 16.212,37 c 0.25,-0.025 0.438,0 0.563,0.075 0.125,0.075 0.125,0.125 0,0.149 -0.45,0.301 -0.762,0.45 -0.938,0.45 -0.125,0 -0.15,-0.112 -0.075,-0.337 0.1,-0.199 0.251,-0.312 0.45,-0.337 z"
   id="path90"
   inkscape:connector-curvature="0" />
	<path
   style="clip-rule:evenodd;fill:#e6c088;fill-rule:evenodd"
   d="m 18.725,34.375 c 0.175,-0.125 0.288,-0.125 0.337,0 0.101,0.375 0.213,0.638 0.338,0.787 0.323,0.439 0.724,0.684 1.199,0.731 -0.883,-0.068 -1.42,-0.175 -1.612,-0.318 -0.15,-0.101 -0.238,-0.325 -0.263,-0.675 v -0.525 z"
   id="path92"
   inkscape:connector-curvature="0" />
	<path
   style="clip-rule:evenodd;fill:#e6c088;fill-rule:evenodd"
   d="m 22.287,35.8 c 0.075,-0.274 0.176,-0.337 0.301,-0.188 0.074,0.101 0.262,0.35 0.563,0.75 0.278,0.315 0.572,0.435 0.881,0.356 -0.205,0.063 -0.449,0.094 -0.731,0.094 -0.3,0 -0.563,-0.162 -0.787,-0.487 z"
   id="path94"
   inkscape:connector-curvature="0" />
	<path
   style="clip-rule:evenodd;fill:#e6c088;fill-rule:evenodd"
   d="m 22.287,36.925 c 0.275,0.025 0.4,0.213 0.375,0.563 0,0.325 -0.1,0.537 -0.3,0.638 -0.225,0.125 -0.462,-0.025 -0.712,-0.45 -0.051,-0.149 -0.013,-0.313 0.112,-0.487 0.15,-0.202 0.326,-0.29 0.525,-0.264 z"
   id="path96"
   inkscape:connector-curvature="0" />
	<path
   style="clip-rule:evenodd;fill:#e6c088;fill-rule:evenodd"
   d="m 23.112,37.188 c 0.375,0 0.538,0.05 0.487,0.15 0,0.074 -0.1,0.25 -0.3,0.524 -0.124,0.226 -0.212,0.175 -0.263,-0.149 -0.073,-0.351 -0.048,-0.525 0.076,-0.525 z"
   id="path98"
   inkscape:connector-curvature="0" />
	<path
   style="clip-rule:evenodd;fill:#e6c088;fill-rule:evenodd"
   d="m 18.65,37.563 c 0.4,0.025 0.575,0.213 0.525,0.563 -0.05,0.375 -0.237,0.563 -0.562,0.563 -0.3,0 -0.438,-0.188 -0.413,-0.563 0.025,-0.401 0.175,-0.589 0.45,-0.563 z"
   id="path100"
   inkscape:connector-curvature="0" />
	<path
   style="clip-rule:evenodd;fill:#e6c088;fill-rule:evenodd"
   d="m 18.837,39.925 c 0.35,0 0.513,0.138 0.488,0.413 -0.05,0.274 -0.213,0.412 -0.488,0.412 -0.225,0 -0.325,-0.138 -0.3,-0.412 0.026,-0.275 0.126,-0.413 0.3,-0.413 z"
   id="path102"
   inkscape:connector-curvature="0" />
	<path
   style="clip-rule:evenodd;fill:#e6c088;fill-rule:evenodd"
   d="m 20.9,40.225 c 0.375,0.176 0.512,0.325 0.412,0.45 -0.1,0.15 -0.313,0.15 -0.638,0 -0.3,-0.125 -0.388,-0.25 -0.263,-0.375 0.127,-0.125 0.289,-0.15 0.489,-0.075 z"
   id="path104"
   inkscape:connector-curvature="0" />
	<path
   style="clip-rule:evenodd;fill:#e6c088;fill-rule:evenodd"
   d="m 25.4,37.75 c 0.1,0 0.137,0.087 0.112,0.263 -0.025,0.325 -0.013,0.625 0.037,0.899 0.074,0.588 0.437,0.9 1.088,0.938 -0.853,-0.028 -1.365,-0.153 -1.538,-0.375 -0.149,-0.175 -0.262,-0.387 -0.337,-0.637 -0.075,-0.325 -0.05,-0.588 0.075,-0.788 0.225,-0.35 0.362,-0.513 0.412,-0.487 0.026,0.025 0.076,0.086 0.151,0.187 z"
   id="path106"
   inkscape:connector-curvature="0" />
	<path
   style="clip-rule:evenodd;fill:#e6c088;fill-rule:evenodd"
   d="m 27.05,36.25 c 0.375,0 0.438,0.087 0.188,0.263 -0.25,0.175 -0.487,0.225 -0.712,0.149 -0.2,-0.05 -0.226,-0.138 -0.075,-0.262 0.124,-0.1 0.324,-0.15 0.599,-0.15 z"
   id="path108"
   inkscape:connector-curvature="0" />
	<path
   style="clip-rule:evenodd;fill:#e6c088;fill-rule:evenodd"
   d="m 13.775,39.438 c 0.275,0.2 0.4,0.4 0.375,0.6 -0.025,0.2 -0.163,0.25 -0.412,0.15 -0.25,-0.075 -0.338,-0.25 -0.263,-0.525 0.05,-0.275 0.15,-0.35 0.3,-0.225 z"
   id="path110"
   inkscape:connector-curvature="0" />
	
		<radialGradient
   id="SVGID_5_"
   cx="6.6001"
   cy="2.9502001"
   r="2.5625"
   gradientTransform="matrix(0.75,0,0,-0.75,5.6001,37.8257)"
   gradientUnits="userSpaceOnUse">
		<stop
   offset="0"
   style="stop-color:#75AD45"
   id="stop112" />
		<stop
   offset="1"
   style="stop-color:#527737"
   id="stop114" />
	</radialGradient>
	<path
   style="clip-rule:evenodd;fill:url(#SVGID_5_);fill-rule:evenodd"
   d="m 12.125,36.063 c 0.1,0.35 -0.063,0.7 -0.487,1.05 -0.425,0.375 -0.875,0.575 -1.35,0.601 0.125,-0.375 0.063,-0.626 -0.188,-0.75 -0.275,-0.125 -0.438,-0.4 -0.487,-0.825 -0.075,-0.5 0.163,-0.851 0.712,-1.05 0.525,-0.176 0.987,-0.063 1.387,0.337 0.201,0.199 0.338,0.412 0.413,0.637 z"
   id="path117"
   inkscape:connector-curvature="0" />
	
		<radialGradient
   id="SVGID_6_"
   cx="29.950199"
   cy="5.2002001"
   r="4.0124998"
   gradientTransform="matrix(0.75,0,0,-0.75,5.6001,41.2007)"
   gradientUnits="userSpaceOnUse">
		<stop
   offset="0"
   style="stop-color:#75AD45"
   id="stop119" />
		<stop
   offset="1"
   style="stop-color:#527737"
   id="stop121" />
	</radialGradient>
	<path
   style="clip-rule:evenodd;fill:url(#SVGID_6_);fill-rule:evenodd"
   d="m 26.675,37.225 c 0.325,0.1 0.588,0.075 0.788,-0.075 0.324,-0.251 0.625,-0.4 0.899,-0.45 0.525,-0.05 0.875,0.162 1.05,0.638 0.176,0.475 0.038,0.938 -0.412,1.387 -0.45,0.45 -1.063,0.676 -1.838,0.676 -0.774,-0.025 -1.225,-0.288 -1.35,-0.788 -0.125,-0.475 -0.05,-0.85 0.225,-1.125 0.226,-0.251 0.438,-0.338 0.638,-0.263 z"
   id="path124"
   inkscape:connector-curvature="0" />
	<path
   style="clip-rule:evenodd;fill:#8fb360;fill-rule:evenodd"
   d="M 19.737,34.638 C 19.662,34.588 19.588,34.45 19.512,34.225 19.462,34 19.499,33.738 19.624,33.438 l 0.263,0.037 c 0.275,0.075 0.587,0.275 0.938,0.601 0.524,0.475 0.712,0.8 0.563,0.975 -0.5,0.125 -0.9,0.112 -1.2,-0.037 -0.175,-0.075 -0.3,-0.163 -0.375,-0.263 z"
   id="path126"
   inkscape:connector-curvature="0" />
	
		<radialGradient
   id="SVGID_7_"
   cx="19.779301"
   cy="2.2602999"
   r="2.4717"
   gradientTransform="matrix(0.7472,-0.0645,-0.0796,-0.9217,5.9259,37.1726)"
   gradientUnits="userSpaceOnUse">
		<stop
   offset="0"
   style="stop-color:#75AD45"
   id="stop128" />
		<stop
   offset="1"
   style="stop-color:#527737"
   id="stop130" />
	</radialGradient>
	<path
   style="clip-rule:evenodd;fill:url(#SVGID_7_);fill-rule:evenodd"
   d="m 21.088,35.388 c -0.476,0.125 -0.888,0.024 -1.238,-0.3 -0.324,-0.301 -0.524,-0.601 -0.6,-0.9 V 33.85 l 0.375,-0.412 c 0,0.125 0.013,0.263 0.037,0.412 0.101,0.325 0.301,0.601 0.601,0.825 0.425,0.3 0.737,0.45 0.938,0.45 0.067,0 0.118,-0.013 0.149,-0.037 z"
   id="path133"
   inkscape:connector-curvature="0" />
	<path
   style="clip-rule:evenodd;fill:#8fb360;fill-rule:evenodd"
   d="m 17.525,39.025 c -0.225,0.65 -0.575,1.075 -1.05,1.275 -0.35,0.15 -0.625,0.075 -0.825,-0.225 -0.225,-0.3 -0.225,-0.638 0,-1.013 0.225,-0.375 0.488,-0.675 0.788,-0.9 0.325,-0.199 0.588,-0.262 0.788,-0.188 0.274,0.101 0.374,0.451 0.299,1.051 z"
   id="path135"
   inkscape:connector-curvature="0" />
	
		<radialGradient
   id="SVGID_8_"
   cx="15.3999"
   cy="6.9502001"
   r="3.6500001"
   gradientTransform="matrix(0.75,0,0,-0.75,5.6001,43.8257)"
   gradientUnits="userSpaceOnUse">
		<stop
   offset="0"
   style="stop-color:#75AD45"
   id="stop137" />
		<stop
   offset="1"
   style="stop-color:#527737"
   id="stop139" />
	</radialGradient>
	<path
   style="clip-rule:evenodd;fill:url(#SVGID_8_);fill-rule:evenodd"
   d="m 17.225,37.975 0.638,0.601 c 0.175,0.3 0.075,0.75 -0.3,1.35 -0.35,0.601 -0.688,0.862 -1.012,0.788 L 15.837,40.3 c 0.275,0 0.65,-0.263 1.125,-0.787 0.501,-0.526 0.588,-1.038 0.263,-1.538 z"
   id="path142"
   inkscape:connector-curvature="0" />
	<path
   style="clip-rule:evenodd;fill:#7fb85c;fill-rule:evenodd"
   d="m 10.325,35.237 c 0.275,-0.1 0.487,-0.1 0.637,0 0.126,0.101 0.138,0.238 0.038,0.413 -0.4,0.6 -0.712,0.774 -0.938,0.524 C 9.887,36.025 9.837,35.849 9.912,35.65 9.963,35.475 10.1,35.338 10.325,35.237 Z"
   id="path144"
   inkscape:connector-curvature="0" />
	<path
   style="clip-rule:evenodd;fill:#7fb85c;fill-rule:evenodd"
   d="m 19.55,33.85 c 0.25,-0.05 0.2,0.101 -0.149,0.45 -0.025,-0.025 -0.025,-0.1 0,-0.225 0.049,-0.125 0.099,-0.2 0.149,-0.225 z"
   id="path146"
   inkscape:connector-curvature="0" />
	<path
   style="clip-rule:evenodd;fill:#7fb85c;fill-rule:evenodd"
   d="m 16.288,40.225 c 0.075,-0.125 0.188,-0.1 0.337,0.075 0.075,0.05 0.138,0.088 0.188,0.112 0.025,0.025 0,0.05 -0.075,0.075 -0.075,0.025 -0.175,-0.013 -0.3,-0.112 z"
   id="path148"
   inkscape:connector-curvature="0" />
	<path
   style="clip-rule:evenodd;fill:#95d96d;fill-rule:evenodd"
   d="m 10.212,35.35 c 0.2,-0.1 0.3,-0.063 0.3,0.113 0,0.175 -0.1,0.3 -0.3,0.375 -0.15,0.05 -0.225,0 -0.225,-0.15 0.026,-0.175 0.101,-0.289 0.225,-0.338 z"
   id="path150"
   inkscape:connector-curvature="0" />
</g>
</svg>