<?xml version="1.0" encoding="UTF-8" standalone="no"?>
<!-- Generator: Adobe Illustrator 15.1.0, SVG Export Plug-In . SVG Version: 6.00 Build 0)  -->

<svg
   xmlns:dc="http://purl.org/dc/elements/1.1/"
   xmlns:cc="http://creativecommons.org/ns#"
   xmlns:rdf="http://www.w3.org/1999/02/22-rdf-syntax-ns#"
   xmlns:svg="http://www.w3.org/2000/svg"
   xmlns="http://www.w3.org/2000/svg"
   xmlns:xlink="http://www.w3.org/1999/xlink"
   xmlns:sodipodi="http://sodipodi.sourceforge.net/DTD/sodipodi-0.dtd"
   xmlns:inkscape="http://www.inkscape.org/namespaces/inkscape"
   version="1.1"
   id="flash0.ai"
   x="0px"
   y="0px"
   width="256"
   height="256"
   viewBox="0 0 256 256.00001"
   xml:space="preserve"
   sodipodi:docname="birch_syrup.svg"
   inkscape:version="0.92.4 (5da689c313, 2019-01-14)"><title
   id="title1930">Birch Syrup</title><metadata
   id="metadata1123"><rdf:RDF><cc:Work
       rdf:about=""><dc:format>image/svg+xml</dc:format><dc:type
         rdf:resource="http://purl.org/dc/dcmitype/StillImage" /><dc:title>Birch Syrup</dc:title><cc:license
         rdf:resource="http://creativecommons.org/publicdomain/zero/1.0/" /><dc:creator><cc:Agent><dc:title>Glitch</dc:title></cc:Agent></dc:creator><dc:source>https://opengameart.org/node/20149</dc:source></cc:Work><cc:License
       rdf:about="http://creativecommons.org/publicdomain/zero/1.0/"><cc:permits
         rdf:resource="http://creativecommons.org/ns#Reproduction" /><cc:permits
         rdf:resource="http://creativecommons.org/ns#Distribution" /><cc:permits
         rdf:resource="http://creativecommons.org/ns#DerivativeWorks" /></cc:License></rdf:RDF></metadata><defs
   id="defs1121"><linearGradient
     inkscape:collect="always"
     xlink:href="#SVGID_4_"
     id="linearGradient1881"
     gradientUnits="userSpaceOnUse"
     gradientTransform="matrix(4.938271e-4,-1,1,-0.001,16333.97,-4.168)"
     x1="11.7524"
     y1="-16332.984"
     x2="13.7774"
     y2="-16332.984" /><linearGradient
     inkscape:collect="always"
     xlink:href="#SVGID_8_"
     id="linearGradient1883"
     gradientUnits="userSpaceOnUse"
     gradientTransform="matrix(-0.0116,-0.9999,0.9999,-0.0116,16432.453,-91.5117)"
     x1="83.267097"
     y1="-16420.453"
     x2="119.8696"
     y2="-16420.453" /><radialGradient
     inkscape:collect="always"
     xlink:href="#SVGID_12_"
     id="radialGradient1885"
     gradientUnits="userSpaceOnUse"
     gradientTransform="matrix(1,0,0,-1,0,-46.7002)"
     cx="12.5"
     cy="-23.3501"
     r="22.825001" /><linearGradient
     inkscape:collect="always"
     xlink:href="#SVGID_16_"
     id="linearGradient1887"
     gradientUnits="userSpaceOnUse"
     gradientTransform="matrix(0.1151,-0.9934,0.9934,0.1151,15343.203,889.7451)"
     x1="-881.82709"
     y1="-15332.224"
     x2="-844.25238"
     y2="-15332.224" /></defs><sodipodi:namedview
   pagecolor="#ffffff"
   bordercolor="#666666"
   borderopacity="1"
   objecttolerance="10"
   gridtolerance="10"
   guidetolerance="10"
   inkscape:pageopacity="0"
   inkscape:pageshadow="2"
   inkscape:window-width="1920"
   inkscape:window-height="1025"
   id="namedview1119"
   showgrid="false"
   inkscape:zoom="1.2266113"
   inkscape:cx="175.45984"
   inkscape:cy="139.49156"
   inkscape:window-x="-8"
   inkscape:window-y="-8"
   inkscape:window-maximized="1"
   inkscape:current-layer="flash0.ai"
   fit-margin-top="0"
   fit-margin-left="0"
   fit-margin-right="0"
   fit-margin-bottom="0" />



<symbol
   id="flash0.ai_x2F_Layer_26_copy_2_x2F__x3C_Group_x3E__x5F_2"
   viewBox="0 -4.1 3.45 4.1"
   transform="translate(-8.5200005,207.912)">
	<g
   id="Layer_1_45_">
		<g
   id="g30">
			<g
   id="g28">
				<path
   style="clip-rule:evenodd;fill:#a35700;fill-rule:evenodd"
   d="M 3.45,0 2.9,-3.65 C 2.633,-3.883 1.667,-4.033 0,-4.1 c 0.8,0.3 1.3,0.583 1.5,0.85 0.4,0.533 0.533,1.45 0.4,2.75 z"
   id="path26"
   inkscape:connector-curvature="0" />
			</g>
		</g>
	</g>
</symbol>



<symbol
   id="flash0.ai_x2F_Layer_26_copy_2_x2F__x3C_Path_x3E__x5F_22_x5F_2"
   viewBox="0 -2.05 1.15 2.05"
   transform="translate(-8.5200005,207.912)">
	<g
   id="Layer_1_44_">
		<path
   style="clip-rule:evenodd;fill-rule:evenodd"
   d="M 0,-0.15 0.55,0 c 0.4,-0.033 0.6,-0.333 0.6,-0.9 0,-0.567 -0.217,-0.95 -0.65,-1.15 l 0.05,0.9 c 0,0.533 -0.183,0.867 -0.55,1 z"
   id="path46"
   inkscape:connector-curvature="0" />
	</g>
</symbol>


<symbol
   id="flash0.ai_x2F_Layer_26_copy_2_x2F__x3C_Path_x3E__x5F_23_x5F_1"
   viewBox="-0.008 -2.15 1.981 2.15"
   transform="translate(-8.5200005,207.912)">
	<g
   id="Layer_1_32_">
		
			<linearGradient
   id="SVGID_3_"
   gradientUnits="userSpaceOnUse"
   x1="11.8027"
   y1="-16332.984"
   x2="13.8277"
   y2="-16332.984"
   gradientTransform="matrix(4.938271e-4,-1,1,-0.001,16333.97,-4.168)">
			<stop
   offset="0.0118"
   style="stop-color:#FFFFFF"
   id="stop68" />
			<stop
   offset="1"
   style="stop-color:#000000"
   id="stop70" />
		</linearGradient>
		<path
   style="clip-rule:evenodd;fill:url(#SVGID_3_);fill-rule:evenodd"
   d="M 1,-0.05 C 1.3,-0.083 1.617,-0.067 1.95,0 2.05,0 1.817,-0.15 1.25,-0.45 0.617,-0.783 0.567,-1.35 1.1,-2.15 0.433,-1.95 0.067,-1.667 0,-1.3 c -0.067,0.867 0.267,1.283 1,1.25 z"
   id="path73"
   inkscape:connector-curvature="0" />
	</g>
</symbol>
<symbol
   id="flash0.ai_x2F_Layer_26_copy_2_x2F__x3C_Path_x3E__x5F_23_x5F_2"
   viewBox="-0.008 -2.1 1.98 2.1"
   transform="translate(-8.5200005,207.912)">
	<g
   id="Layer_1_43_">
		
			<linearGradient
   id="SVGID_4_"
   gradientUnits="userSpaceOnUse"
   x1="11.7524"
   y1="-16332.984"
   x2="13.7774"
   y2="-16332.984"
   gradientTransform="matrix(4.938271e-4,-1,1,-0.001,16333.97,-4.168)">
			<stop
   offset="0.0118"
   style="stop-color:#FFFFFF"
   id="stop77" />
			<stop
   offset="1"
   style="stop-color:#000000"
   id="stop79" />
		</linearGradient>
		<path
   style="clip-rule:evenodd;fill:url(#linearGradient1881);fill-rule:evenodd"
   d="M 1,0 C 1.3,-0.033 1.617,-0.033 1.95,0 2.05,0 1.8,-0.15 1.2,-0.45 0.567,-0.783 0.533,-1.333 1.1,-2.1 0.433,-1.9 0.067,-1.617 0,-1.25 -0.067,-0.417 0.267,0 1,0 Z"
   id="path82"
   inkscape:connector-curvature="0" />
	</g>
</symbol>



<symbol
   id="flash0.ai_x2F_Layer_26_copy_2_x2F__x3C_Path_x3E__x5F_24_x5F_2"
   viewBox="-0.032 -3.675 9.491 3.7"
   transform="translate(-8.5200005,207.912)">
	<g
   id="Layer_1_42_">
		<path
   style="clip-rule:evenodd;fill:none;fill-rule:evenodd;stroke:#edcc56;stroke-width:0.25"
   d="M 8.5,-2.9 C 7.767,-3.233 6.783,-3.433 5.55,-3.5 4.317,-3.6 3.167,-3.55 2.1,-3.35 c -1.033,0.2 -1.667,0.6 -1.9,1.2 -0.267,0.6 -0.034,1.066 0.7,1.4 0.734,0.334 1.717,0.533 2.95,0.6 C 5.117,-0.05 6.267,-0.1 7.3,-0.3 8.334,-0.5 8.984,-0.9 9.25,-1.5 9.483,-2.1 9.233,-2.567 8.5,-2.9 Z"
   id="path98"
   inkscape:connector-curvature="0" />
	</g>
</symbol>



<symbol
   id="flash0.ai_x2F_Layer_26_copy_2_x2F__x3C_Path_x3E__x5F_32_x5F_2"
   viewBox="0.009 -34.475 23.343 34.475"
   transform="translate(-8.5200005,207.912)">
	<g
   id="Layer_1_41_">
		
			<linearGradient
   id="SVGID_8_"
   gradientUnits="userSpaceOnUse"
   x1="83.267097"
   y1="-16420.453"
   x2="119.8696"
   y2="-16420.453"
   gradientTransform="matrix(-0.0116,-0.9999,0.9999,-0.0116,16432.453,-91.5117)">
			<stop
   offset="0.0118"
   style="stop-color:#FFFFFF"
   id="stop129" />
			<stop
   offset="1"
   style="stop-color:#000000"
   id="stop131" />
		</linearGradient>
		<path
   style="clip-rule:evenodd;fill:url(#linearGradient1883);fill-rule:evenodd"
   d="m 22.75,-21.75 c -0.467,-1.233 -1.067,-2.2 -1.8,-2.9 -0.6,-0.6 -0.9,-0.967 -0.9,-1.1 -0.066,-0.533 0.083,-0.917 0.45,-1.15 0.367,-0.233 0.733,-0.15 1.1,0.25 0.7,0.767 1.217,0.983 1.55,0.65 0.367,-0.333 0.083,-1.167 -0.85,-2.5 -0.966,-1.333 -2.383,-2.25 -4.25,-2.75 -1.367,-0.367 -1.966,-0.683 -1.8,-0.95 0.433,-0.733 0.667,-1.216 0.7,-1.45 0.033,-0.367 -0.2,-0.6 -0.7,-0.7 -0.833,-0.167 -2.4,-0.167 -4.7,0 -2.433,0.1 -4,0.267 -4.7,0.5 -0.5,0.133 -0.717,0.367 -0.65,0.7 0.033,0.267 0.267,0.733 0.7,1.4 0.2,0.267 -0.367,0.65 -1.7,1.15 -1.867,0.667 -3.25,1.717 -4.15,3.15 -0.9,1.434 -1.216,2.267 -0.95,2.5 0.267,0.2 0.8,-0.066 1.6,-0.8 0.466,-0.433 0.966,-0.517 1.5,-0.25 0.533,0.267 0.716,0.683 0.55,1.25 0,0.033 -0.383,0.4 -1.15,1.1 -0.733,0.7 -1.317,1.683 -1.75,2.95 -0.533,1.567 -0.7,3.184 -0.5,4.85 0.167,1.633 0.55,2.233 1.15,1.8 0.167,-0.133 0.6,-0.55 1.3,-1.25 0.367,-0.367 0.733,-0.534 1.1,-0.5 0.434,0.066 0.583,0.367 0.45,0.9 -0.2,1.1 -0.267,2.017 -0.2,2.75 0.1,1.233 0.333,1.917 0.7,2.05 0.333,0.167 0.667,-0.167 1,-1 0.267,-0.767 0.6,-1.1 1,-1 0.4,0.1 0.566,0.45 0.5,1.05 -0.133,1.433 0.05,2.3 0.55,2.6 0.167,0.1 0.317,-0.017 0.45,-0.35 0.133,-0.333 0.367,-0.45 0.7,-0.35 0.667,0.133 1,3.183 1,9.15 l 2.2,-0.45 c 0.667,-0.066 1.167,-0.083 1.5,-0.05 -0.033,-1.4 -0.017,-2.833 0.05,-4.3 0.1,-2.867 0.383,-4.4 0.85,-4.6 0.333,-0.133 0.633,-0.05 0.9,0.25 0.233,0.3 0.434,0.4 0.6,0.3 0.5,-0.367 0.65,-1.25 0.45,-2.65 -0.067,-0.6 0.05,-0.967 0.35,-1.1 0.3,-0.133 0.617,0.167 0.95,0.9 0.333,0.8 0.7,1.1 1.1,0.9 0.433,-0.2 0.683,-0.917 0.75,-2.15 0.033,-0.367 -0.017,-1.267 -0.15,-2.7 -0.033,-0.567 0.167,-0.9 0.6,-1 0.333,-0.067 0.6,0.1 0.8,0.5 0.3,0.6 0.633,1.017 1,1.25 0.6,0.433 1.017,-0.217 1.25,-1.95 0.233,-1.767 0.067,-3.4 -0.5,-4.9 z"
   id="path134"
   inkscape:connector-curvature="0" />
	</g>
</symbol>



<symbol
   id="flash0.ai_x2F_Layer_26_copy_2_x2F__x3C_Path_x3E__x5F_34_x5F_2"
   viewBox="0 -17.251 13.55 17.252"
   transform="translate(-8.5200005,207.912)">
	<g
   id="Layer_1_40_">
		<path
   style="clip-rule:evenodd;fill:#fffed9;fill-rule:evenodd"
   d="m 6.7,0 c 2.267,-0.033 4.033,-1.117 5.3,-3.25 1.033,-1.767 1.55,-3.8 1.55,-6.1 0,-2.6 -0.283,-4.417 -0.85,-5.45 -0.934,-1.667 -2.867,-2.483 -5.8,-2.45 -2.667,0.033 -4.517,0.717 -5.55,2.05 -0.9,1.167 -1.35,3.067 -1.35,5.7 0,2.567 0.6,4.767 1.8,6.6 1.267,1.967 2.9,2.933 4.9,2.9 z"
   id="path150"
   inkscape:connector-curvature="0" />
	</g>
</symbol>



<symbol
   id="flash0.ai_x2F_Layer_26_copy_2_x2F__x3C_Path_x3E__x5F_35_x5F_2"
   viewBox="0 -17.251 13.55 17.252"
   transform="translate(-8.5200005,207.912)">
	<g
   id="Layer_1_39_">
		<path
   style="clip-rule:evenodd;fill-rule:evenodd"
   d="m 6.65,0 c 2.267,-0.033 4.033,-1.117 5.3,-3.25 1.066,-1.767 1.6,-3.8 1.6,-6.1 0,-2.6 -0.283,-4.417 -0.85,-5.45 -0.967,-1.667 -2.917,-2.483 -5.85,-2.45 -2.633,0.033 -4.467,0.717 -5.5,2.05 -0.9,1.167 -1.35,3.067 -1.35,5.7 0,2.567 0.6,4.767 1.8,6.6 1.267,1.967 2.883,2.933 4.85,2.9 z"
   id="path166"
   inkscape:connector-curvature="0" />
	</g>
</symbol>



<symbol
   id="flash0.ai_x2F_Layer_26_copy_2_x2F__x3C_Path_x3E__x5F_36_x5F_2"
   viewBox="0.048 -1.49 13.61 1.5"
   transform="translate(-8.5200005,207.912)">
	<g
   id="Layer_1_38_">
		<path
   style="clip-rule:evenodd;fill:#42210b;fill-rule:evenodd"
   d="m 0.2,-0.9 c -0.5,0.2 0.233,0.45 2.2,0.75 1.133,0.133 3.3,0.183 6.5,0.15 3.3,-0.033 4.883,-0.167 4.75,-0.4 -0.233,-0.4 -1.4,-0.733 -3.5,-1 C 9.05,-1.5 7.367,-1.517 5.1,-1.45 2.5,-1.35 0.867,-1.167 0.2,-0.9 Z"
   id="path182"
   inkscape:connector-curvature="0" />
	</g>
</symbol>



<symbol
   id="flash0.ai_x2F_Layer_26_copy_2_x2F__x3C_Path_x3E__x5F_37_x5F_2"
   viewBox="0.005 -36.454 25.789 36.454"
   transform="translate(-8.5200005,207.912)">
	<g
   id="Layer_1_37_">
		
			<radialGradient
   id="SVGID_12_"
   cx="12.5"
   cy="-23.3501"
   r="22.825001"
   gradientTransform="matrix(1,0,0,-1,0,-46.7002)"
   gradientUnits="userSpaceOnUse">
			<stop
   offset="0.0118"
   style="stop-color:#CC861C"
   id="stop213" />
			<stop
   offset="1"
   style="stop-color:#662500"
   id="stop215" />
		</radialGradient>
		<path
   style="clip-rule:evenodd;fill:url(#radialGradient1885);fill-rule:evenodd"
   d="m 20.75,-9.65 c 0.467,-0.2 0.75,-0.983 0.85,-2.35 0.033,-0.467 0.017,-1.5 -0.05,-3.1 -0.066,-0.633 0.15,-1 0.65,-1.1 0.367,-0.066 0.65,0.133 0.85,0.6 0.3,0.633 0.667,1.1 1.1,1.4 0.667,0.467 1.15,-0.267 1.45,-2.2 0.3,-1.967 0.15,-3.8 -0.45,-5.5 -0.5,-1.367 -1.167,-2.467 -2,-3.3 -0.667,-0.667 -0.983,-1.1 -0.95,-1.3 0.066,-0.533 0.233,-0.783 0.5,-0.75 0.2,0.033 0.517,0.3 0.95,0.8 0.767,0.867 1.4,0.95 1.9,0.25 0.5,-0.7 0.233,-1.8 -0.8,-3.3 -1.033,-1.533 -2.583,-2.617 -4.65,-3.25 -1.533,-0.433 -2.2,-0.8 -2,-1.1 0.5,-0.767 0.767,-1.3 0.8,-1.6 0.033,-0.4 -0.217,-0.667 -0.75,-0.8 -1.033,-0.233 -2.783,-0.267 -5.25,-0.1 -2.566,0 -4.316,0.15 -5.25,0.45 -0.566,0.167 -0.816,0.433 -0.75,0.8 0.033,0.3 0.3,0.817 0.8,1.55 0.2,0.3 -0.467,0.716 -2,1.25 -2.067,0.733 -3.617,1.9 -4.65,3.5 -1.033,1.6 -1.3,2.733 -0.8,3.4 0.5,0.667 1.133,0.533 1.9,-0.4 0.833,-1.067 1.317,-1.1 1.45,-0.1 0.033,0.167 -0.283,0.6 -0.95,1.3 -0.867,0.9 -1.533,2.05 -2,3.45 -0.6,1.767 -0.75,3.617 -0.45,5.55 0.3,1.934 0.783,2.633 1.45,2.1 0.4,-0.3 0.75,-0.8 1.05,-1.5 0.233,-0.5 0.533,-0.717 0.9,-0.65 0.5,0.066 0.717,0.433 0.65,1.1 -0.1,1.6 -0.133,2.617 -0.1,3.05 0.133,1.367 0.434,2.15 0.9,2.35 0.467,0.167 0.867,-0.2 1.2,-1.1 0.367,-0.833 0.733,-1.2 1.1,-1.1 0.333,0.1 0.467,0.5 0.4,1.2 -0.2,1.6 -0.017,2.583 0.55,2.95 0.167,0.1 0.317,-0.017 0.45,-0.35 C 8.917,-7.95 9.2,-8.1 9.6,-8 c 0.566,0.133 0.733,2.8 0.5,8 h 5.25 c -0.067,-1.333 -0.083,-2.667 -0.05,-4 0,-2.667 0.184,-4.033 0.55,-4.1 0.4,-0.133 0.733,-0.033 1,0.3 0.267,0.3 0.483,0.4 0.65,0.3 0.567,-0.4 0.75,-1.383 0.55,-2.95 -0.066,-0.7 0.067,-1.117 0.4,-1.25 0.367,-0.133 0.716,0.217 1.05,1.05 0.367,0.867 0.783,1.2 1.25,1 z"
   id="path218"
   inkscape:connector-curvature="0" />
	</g>
</symbol>



<symbol
   id="flash0.ai_x2F_Layer_26_copy_2_x2F__x3C_Path_x3E__x5F_38_x5F_2"
   viewBox="0.005 -36.45 25.789 36.45"
   transform="translate(-8.5200005,207.912)">
	<g
   id="Layer_1_36_">
		<path
   style="clip-rule:evenodd;fill:#edcc56;fill-rule:evenodd"
   d="m 20.75,-9.65 c 0.467,-0.233 0.75,-1.033 0.85,-2.4 0.033,-0.3 0,-1.333 -0.1,-3.1 -0.033,-0.633 0.2,-1 0.7,-1.1 0.367,-0.067 0.65,0.133 0.85,0.6 0.3,0.667 0.667,1.15 1.1,1.45 0.667,0.467 1.15,-0.267 1.45,-2.2 0.3,-2 0.133,-3.85 -0.5,-5.55 -0.467,-1.367 -1.117,-2.466 -1.95,-3.3 -0.667,-0.667 -0.983,-1.083 -0.95,-1.25 0.066,-0.567 0.233,-0.833 0.5,-0.8 0.2,0.033 0.517,0.3 0.95,0.8 0.767,0.9 1.4,1 1.9,0.3 0.5,-0.7 0.233,-1.816 -0.8,-3.35 -1.033,-1.567 -2.583,-2.633 -4.65,-3.2 -1.533,-0.433 -2.2,-0.8 -2,-1.1 0.5,-0.767 0.767,-1.316 0.8,-1.65 0.033,-0.4 -0.217,-0.65 -0.75,-0.75 -0.867,-0.2 -2.617,-0.25 -5.25,-0.15 -2.733,0.1 -4.483,0.267 -5.25,0.5 -0.566,0.133 -0.816,0.4 -0.75,0.8 0.033,0.267 0.3,0.783 0.8,1.55 0.2,0.3 -0.467,0.716 -2,1.25 -2.067,0.733 -3.617,1.9 -4.65,3.5 -1.033,1.6 -1.3,2.733 -0.8,3.4 0.5,0.667 1.133,0.533 1.9,-0.4 0.833,-1.1 1.317,-1.15 1.45,-0.15 0.033,0.2 -0.283,0.65 -0.95,1.35 -0.867,0.9 -1.533,2.033 -2,3.4 -0.6,1.767 -0.75,3.617 -0.45,5.55 0.3,1.933 0.783,2.65 1.45,2.15 0.4,-0.3 0.75,-0.8 1.05,-1.5 0.233,-0.5 0.533,-0.717 0.9,-0.65 0.5,0.066 0.717,0.417 0.65,1.05 -0.1,1.633 -0.133,2.667 -0.1,3.1 0.133,1.367 0.434,2.15 0.9,2.35 0.467,0.167 0.867,-0.2 1.2,-1.1 0.367,-0.867 0.733,-1.233 1.1,-1.1 0.367,0.1 0.5,0.5 0.4,1.2 -0.2,1.566 -0.017,2.533 0.55,2.9 0.167,0.1 0.317,-0.017 0.45,-0.35 0.167,-0.367 0.45,-0.5 0.85,-0.4 0.566,0.1 0.733,2.767 0.5,8 h 5.25 c -0.067,-1.333 -0.083,-2.667 -0.05,-4 0,-2.667 0.184,-4.05 0.55,-4.15 0.4,-0.1 0.733,0.017 1,0.35 0.267,0.3 0.483,0.4 0.65,0.3 0.567,-0.4 0.75,-1.4 0.55,-3 -0.066,-0.667 0.067,-1.067 0.4,-1.2 0.367,-0.167 0.716,0.167 1.05,1 0.367,0.9 0.783,1.25 1.25,1.05 z"
   id="path234"
   inkscape:connector-curvature="0" />
	</g>
</symbol>



<symbol
   id="flash0.ai_x2F_Layer_26_copy_2_x2F__x3C_Path_x3E__x5F_39_x5F_2"
   viewBox="-0.017 -37.867 28.379 37.867"
   transform="translate(-8.5200005,207.912)">
	<g
   id="Layer_1_35_">
		
			<linearGradient
   id="SVGID_16_"
   gradientUnits="userSpaceOnUse"
   x1="-881.82709"
   y1="-15332.224"
   x2="-844.25238"
   y2="-15332.224"
   gradientTransform="matrix(0.1151,-0.9934,0.9934,0.1151,15343.203,889.7451)">
			<stop
   offset="0.0118"
   style="stop-color:#C46900"
   id="stop265" />
			<stop
   offset="1"
   style="stop-color:#522302"
   id="stop267" />
		</linearGradient>
		<path
   style="clip-rule:evenodd;fill:url(#linearGradient1887);fill-rule:evenodd"
   d="m 20.45,-11 c 0.066,0.1 0.316,0.25 0.75,0.45 0.9,0.5 1.5,0.667 1.8,0.5 0.4,-0.233 0.65,-1.05 0.75,-2.45 0.1,-1.167 0.067,-2.333 -0.1,-3.5 0.1,0.133 0.25,0.25 0.45,0.35 l 0.15,0.15 -0.15,-0.05 c 0.2,0.1 0.55,0.216 1.05,0.35 0.567,0.133 1.033,0.284 1.4,0.45 0.8,0.367 1.35,-0.433 1.65,-2.4 0.3,-1.967 0.117,-3.85 -0.55,-5.65 -0.5,-1.333 -1.167,-2.417 -2,-3.25 -0.621,-0.622 -1.013,-1.021 -1.175,-1.2 0.298,0.151 0.639,0.267 1.025,0.35 1.3,0.167 2.167,0 2.6,-0.5 0.533,-0.633 0.25,-1.733 -0.85,-3.3 -1.167,-1.6 -2.883,-2.716 -5.15,-3.35 -1.667,-0.434 -2.4,-0.817 -2.2,-1.15 0.5,-0.733 0.75,-1.25 0.75,-1.55 -0.033,-0.3 -0.35,-0.517 -0.95,-0.65 -1.5,-0.333 -2.784,-0.483 -3.85,-0.45 -0.833,-0.033 -1.833,-0.017 -3,0.05 -2.567,0 -4.317,0.15 -5.25,0.45 -0.567,0.167 -0.817,0.434 -0.75,0.8 0.033,0.3 0.3,0.816 0.8,1.55 0.2,0.3 -0.467,0.717 -2,1.25 -2.066,0.733 -3.617,1.9 -4.65,3.5 -0.767,1.133 -1.1,2.083 -1,2.85 0.033,0.633 0.4,1.05 1.1,1.25 0.7,0.167 1.3,-0.033 1.8,-0.6 0.167,-0.2 0.283,-0.4 0.35,-0.6 0.033,-0.1 0.1,-0.15 0.2,-0.15 0.066,0 0.1,0.05 0.1,0.15 0.034,0.167 -0.283,0.6 -0.95,1.3 -0.867,0.9 -1.533,2.05 -2,3.45 -0.434,1.267 -0.617,2.7 -0.55,4.3 -0.033,1.333 0.184,2.417 0.65,3.25 0.433,0.867 0.9,1.117 1.4,0.75 0.467,-0.333 0.8,-0.817 1,-1.45 0.133,-0.4 0.4,-0.567 0.8,-0.5 l 0.35,0.05 c -0.133,1.7 -0.183,2.784 -0.15,3.25 0.1,1.067 0.3,1.784 0.6,2.15 0.333,0.7 0.683,1.066 1.05,1.1 0.433,0.067 0.8,-0.267 1.1,-1 0.267,-0.533 0.55,-0.9 0.85,-1.1 v 0.2 C 7.5,-10 7.683,-9.017 8.25,-8.65 L 8.3,-8.6 c 0.1,0.467 0.367,0.817 0.8,1.05 0.2,0.1 0.35,0.05 0.45,-0.15 0.133,-0.333 0.267,-0.533 0.4,-0.6 0.2,1.466 0.233,3.75 0.1,6.85 l 0.45,0.65 c 0.233,0.4 0.417,0.667 0.55,0.8 l 5.8,-0.05 c -0.067,-1.367 -0.083,-2.733 -0.05,-4.1 0.034,-2.767 0.233,-4.2 0.6,-4.3 0.434,-0.133 0.8,-0.033 1.1,0.3 0.267,0.333 0.5,0.45 0.7,0.35 0.633,-0.4 0.85,-1.434 0.65,-3.1 -0.067,-0.2 -0.067,-0.383 0,-0.55 0.233,0.3 0.433,0.45 0.6,0.45 z"
   id="path270"
   inkscape:connector-curvature="0" />
	</g>
</symbol>




<g
   id="g1114"
   transform="matrix(7.4596422,0,0,7.4596422,-22.52812,-102.71927)">
		<g
   id="g910">
			<g
   id="g908">
				<path
   inkscape:connector-curvature="0"
   id="path906"
   d="m 17.24,18.13 -0.36,0.52 0.041,2.08 c 0.027,1.546 -0.013,2.68 -0.12,3.399 -0.107,-0.053 -0.213,-0.213 -0.32,-0.479 -0.08,-0.16 -0.2,-0.2 -0.36,-0.121 -0.346,0.187 -0.56,0.467 -0.64,0.841 l -0.041,0.04 c -0.453,0.293 -0.6,1.08 -0.439,2.36 v 0.16 c -0.24,-0.16 -0.467,-0.453 -0.68,-0.88 -0.24,-0.587 -0.533,-0.854 -0.88,-0.8 -0.293,0.026 -0.573,0.32 -0.84,0.879 -0.24,0.294 -0.4,0.867 -0.48,1.721 -0.026,0.373 0.013,1.24 0.12,2.6 l -0.28,0.04 c -0.32,0.054 -0.534,-0.079 -0.64,-0.399 -0.16,-0.507 -0.427,-0.894 -0.8,-1.16 -0.4,-0.293 -0.773,-0.094 -1.12,0.6 -0.374,0.667 -0.546,1.533 -0.52,2.6 -0.053,1.281 0.093,2.428 0.44,3.44 0.374,1.12 0.907,2.04 1.6,2.76 0.533,0.561 0.787,0.907 0.76,1.041 0,0.079 -0.026,0.119 -0.08,0.119 -0.08,0 -0.133,-0.04 -0.16,-0.119 -0.053,-0.16 -0.146,-0.32 -0.279,-0.48 -0.4,-0.453 -0.88,-0.613 -1.44,-0.48 -0.56,0.16 -0.853,0.493 -0.88,1 -0.08,0.613 0.187,1.374 0.8,2.28 0.827,1.28 2.067,2.213 3.72,2.8 1.227,0.427 1.76,0.76 1.6,1 -0.4,0.587 -0.614,1 -0.64,1.24 -0.053,0.293 0.147,0.507 0.6,0.641 0.747,0.239 2.146,0.359 4.2,0.359 0.933,0.054 1.733,0.066 2.399,0.04 0.854,0.026 1.88,-0.094 3.08,-0.36 0.479,-0.106 0.733,-0.28 0.76,-0.52 0,-0.24 -0.199,-0.653 -0.6,-1.24 -0.16,-0.267 0.427,-0.573 1.76,-0.92 1.813,-0.507 3.188,-1.4 4.12,-2.68 0.88,-1.254 1.106,-2.134 0.681,-2.641 -0.348,-0.399 -1.041,-0.533 -2.081,-0.399 -0.399,0.079 -0.68,0.173 -0.84,0.279 0.374,-0.347 0.721,-0.692 1.04,-1.04 0.64,-0.64 1.146,-1.479 1.521,-2.52 0.532,-1.44 0.68,-2.946 0.439,-4.52 -0.239,-1.573 -0.68,-2.214 -1.32,-1.921 -0.267,0.134 -0.613,0.254 -1.04,0.36 -0.373,0.08 -0.626,0.16 -0.76,0.24 l -0.159,0.12 c -0.16,0.08 -0.28,0.174 -0.36,0.279 0.133,-0.933 0.16,-1.866 0.08,-2.8 -0.08,-1.119 -0.28,-1.773 -0.601,-1.96 -0.239,-0.133 -0.72,0 -1.439,0.4 -0.347,0.16 -0.547,0.28 -0.601,0.359 -0.133,0 -0.293,0.121 -0.479,0.36 -0.054,-0.134 -0.054,-0.279 0,-0.439 0.159,-1.333 -0.013,-2.16 -0.521,-2.48 -0.16,-0.08 -0.347,0.013 -0.56,0.28 -0.24,0.267 -0.533,0.347 -0.88,0.24 -0.294,-0.08 -0.453,-1.227 -0.48,-3.439 l 0.041,-3.28 -4.641,-0.04 c -0.108,0.106 -0.255,0.32 -0.441,0.64 z M 17,17.97 c 0.187,-0.32 0.347,-0.546 0.48,-0.68 l 0.12,-0.08 h 5.04 v 5.52 c 0.026,0.586 0.106,1 0.239,1.24 l 0.16,0.04 c 0.081,0 0.214,-0.067 0.4,-0.2 0.053,-0.027 0.12,-0.107 0.2,-0.24 0.106,-0.107 0.239,-0.173 0.399,-0.2 0.054,0 0.16,0.04 0.32,0.12 0.427,0.32 0.667,0.986 0.72,2 l -0.04,0.48 h 0.081 l 0.56,-0.28 c 0.533,-0.319 0.973,-0.493 1.32,-0.52 0.373,0 0.652,0.213 0.84,0.64 0.133,0.319 0.239,0.88 0.32,1.68 l 0.039,0.8 -0.079,1.32 c 0.187,-0.08 0.466,-0.173 0.84,-0.28 0.399,-0.079 0.72,-0.173 0.96,-0.279 0.133,-0.08 0.267,-0.12 0.4,-0.12 0.453,0.027 0.826,0.427 1.119,1.199 0.24,0.641 0.36,1.441 0.36,2.4 0,1.228 -0.187,2.32 -0.561,3.28 -0.427,1.2 -1.04,2.16 -1.84,2.88 l 0.561,-0.04 c 0.506,0 0.933,0.107 1.279,0.32 0.4,0.24 0.601,0.587 0.601,1.04 0,0.56 -0.32,1.293 -0.961,2.2 -0.8,1.119 -1.893,1.946 -3.279,2.479 -1.36,0.347 -2.187,0.573 -2.479,0.681 L 25,45.449 v 0.04 c 0.347,0.507 0.533,0.96 0.56,1.36 0,0.453 -0.307,0.733 -0.92,0.84 -0.427,0.106 -0.773,0.187 -1.04,0.239 -0.479,0.107 -0.934,0.16 -1.36,0.16 l -3.119,-0.04 C 16.961,47.969 15.534,47.835 14.841,47.649 14.28,47.516 14,47.236 14,46.81 c 0,-0.294 0.227,-0.787 0.68,-1.48 l 0.04,-0.04 V 45.25 L 13,44.65 C 11.4,44.037 10.187,43.103 9.36,41.85 8.8,40.996 8.52,40.249 8.52,39.61 v -0.2 c 0.026,-0.399 0.2,-0.733 0.52,-1 0.293,-0.239 0.64,-0.359 1.041,-0.359 l 0.24,0.039 c -0.533,-0.692 -0.96,-1.506 -1.28,-2.439 -0.32,-0.88 -0.479,-1.92 -0.479,-3.12 v -0.52 c 0,-0.96 0.146,-1.76 0.44,-2.4 0.346,-0.72 0.746,-1.094 1.2,-1.12 0.16,0 0.32,0.054 0.48,0.16 0.374,0.267 0.68,0.68 0.92,1.24 0.027,0.08 0.067,0.173 0.12,0.28 0,0.026 0.026,0.04 0.08,0.04 h 0.12 c -0.08,-0.721 -0.12,-1.268 -0.12,-1.64 l 0.04,-0.761 c 0.08,-0.88 0.253,-1.493 0.52,-1.84 0.32,-0.693 0.707,-1.041 1.16,-1.041 0.454,0 0.813,0.333 1.08,1 l 0.04,0.08 c 0.054,-0.934 0.24,-1.52 0.56,-1.76 v -0.04 c 0.133,-0.427 0.387,-0.747 0.76,-0.96 l 0.32,-0.08 c 0.16,0 0.253,0.041 0.28,0.12 v -4.76 l 0.08,-0.08 z"
   style="clip-rule:evenodd;fill:#c7a040;fill-rule:evenodd" />
			</g>
		</g>
		
			<use
   id="use912"
   style="overflow:visible;opacity:0.85160002;enable-background:new"
   transform="matrix(0.8,0,0,-0.8,15.6661,183.8296)"
   y="-37.867001"
   x="-0.017000001"
   height="37.867001"
   width="28.379"
   xlink:href="#flash0.ai_x2F_Layer_26_copy_2_x2F__x3C_Path_x3E__x5F_39_x5F_2" />
		
			<use
   id="use914"
   style="overflow:visible;opacity:0.91019999;enable-background:new"
   transform="matrix(0.8,0,0,-0.8,15.8658,184.7798)"
   y="-36.450001"
   x="0.0049999999"
   height="36.450001"
   width="25.789"
   xlink:href="#flash0.ai_x2F_Layer_26_copy_2_x2F__x3C_Path_x3E__x5F_38_x5F_2" />
		
			<use
   id="use916"
   style="overflow:visible;opacity:0.91019999;enable-background:new"
   transform="matrix(0.8,0,0,-0.8,15.6158,184.9795)"
   y="-36.453999"
   x="0.0049999999"
   height="36.453999"
   width="25.789"
   xlink:href="#flash0.ai_x2F_Layer_26_copy_2_x2F__x3C_Path_x3E__x5F_37_x5F_2" />
		
			<use
   id="use918"
   style="overflow:visible;opacity:0.26170002;enable-background:new"
   transform="matrix(0.8,0,0,-0.8,21.2662,212.98)"
   y="-1.49"
   x="0.048"
   height="1.5"
   width="13.61"
   xlink:href="#flash0.ai_x2F_Layer_26_copy_2_x2F__x3C_Path_x3E__x5F_36_x5F_2" />
		
			<use
   x="0"
   id="use920"
   style="overflow:visible;opacity:0.37110003;enable-background:new"
   transform="matrix(0.8,0,0,-0.8,20.0162,196.5796)"
   y="-17.250999"
   height="17.252001"
   width="13.55"
   xlink:href="#flash0.ai_x2F_Layer_26_copy_2_x2F__x3C_Path_x3E__x5F_35_x5F_2" />
		
			<use
   x="0"
   id="use922"
   style="overflow:visible;opacity:0.37110003;enable-background:new"
   transform="matrix(0.8,0,0,-0.8,20.7159,197.1792)"
   y="-17.250999"
   height="17.252001"
   width="13.55"
   xlink:href="#flash0.ai_x2F_Layer_26_copy_2_x2F__x3C_Path_x3E__x5F_34_x5F_2" />
		
			<radialGradient
   gradientUnits="userSpaceOnUse"
   gradientTransform="matrix(0.8,0,0,-0.8,6.103516e-5,64.5291)"
   r="13.9625"
   cy="38.299801"
   cx="22.450199"
   id="SVGID_81_">
			<stop
   id="stop924"
   style="stop-color:#9DD950"
   offset="0" />
			<stop
   id="stop926"
   style="stop-color:#66912C"
   offset="1" />
		</radialGradient>
		<path
   inkscape:connector-curvature="0"
   id="path929"
   d="m 18.839,30.649 c 1.813,0.026 3.227,0.894 4.24,2.601 0.827,1.413 1.241,3.039 1.241,4.879 0,2.081 -0.228,3.534 -0.681,4.36 -0.747,1.334 -2.293,1.986 -4.64,1.96 -2.133,-0.026 -3.613,-0.573 -4.439,-1.64 -0.72,-0.934 -1.08,-2.453 -1.08,-4.561 0,-2.053 0.48,-3.813 1.44,-5.279 1.013,-1.573 2.32,-2.346 3.919,-2.32 z"
   style="clip-rule:evenodd;fill:url(#SVGID_81_);fill-rule:evenodd" />
		<g
   id="g935">
			<g
   id="g933">
				<path
   inkscape:connector-curvature="0"
   id="path931"
   d="m 15.12,43.37 c 0.96,-0.214 2.173,-0.32 3.64,-0.32 1.707,0 3.014,0.16 3.92,0.479 -0.827,0.641 -2.053,0.946 -3.68,0.92 -1.708,0 -3,-0.36 -3.88,-1.079 z"
   style="clip-rule:evenodd;fill:#bbc737;fill-rule:evenodd" />
			</g>
		</g>
		
			<use
   id="use937"
   style="overflow:visible;opacity:0.91019999;enable-background:new"
   transform="matrix(0.8,0,0,-0.8,16.316,185.9795)"
   y="-34.474998"
   x="0.0089999996"
   height="34.474998"
   width="23.343"
   xlink:href="#flash0.ai_x2F_Layer_26_copy_2_x2F__x3C_Path_x3E__x5F_32_x5F_2" />
		<path
   inkscape:connector-curvature="0"
   id="path939"
   d="m 15,32.89 0.72,0.64 c 0.693,0.454 1.6,0.773 2.72,0.96 1.04,0.16 1.547,0.253 1.521,0.28 0,-0.533 -0.24,-1.04 -0.72,-1.52 l -0.44,-0.4 0.479,0.16 c 0.374,0.16 0.681,0.387 0.92,0.68 0.374,0.453 0.573,0.854 0.6,1.2 h 1.399 c 0.801,0 1.32,-0.04 1.561,-0.12 l 0.16,0.359 c 0.133,0.347 0.227,0.773 0.279,1.28 0.107,0.934 0.147,1.693 0.121,2.28 -0.613,0.16 -2.121,-0.267 -4.521,-1.28 -1.574,-0.667 -2.907,-1.507 -4,-2.52 l -1.16,-1.36 z"
   style="clip-rule:evenodd;fill:#6d8c43;fill-rule:evenodd" />
		<g
   id="g945">
			<g
   id="g943">
				<path
   inkscape:connector-curvature="0"
   id="path941"
   d="m 20.08,33.57 0.12,0.119 0.28,0.439 -0.6,0.16 -0.319,-0.64 z m -0.28,-0.241 -0.4,0.12 -0.16,-0.199 -0.44,-0.4 c 0.266,0 0.6,0.16 1,0.479 z m -4,1.521 -0.16,-0.16 c 0.267,-0.453 0.52,-0.72 0.76,-0.8 l 0.28,0.12 -0.28,0.2 c -0.24,0.186 -0.44,0.399 -0.6,0.64 z m 0.36,0.36 -0.32,-0.28 c 0.4,-0.32 0.8,-0.587 1.2,-0.801 l 0.681,0.2 -0.48,0.44 c -0.16,0.24 -0.24,0.453 -0.24,0.64 0.107,-0.106 0.24,-0.239 0.4,-0.399 0.32,-0.268 0.64,-0.453 0.96,-0.561 l 0.08,0.04 0.521,0.081 c -0.134,0.133 -0.253,0.306 -0.36,0.52 -0.213,0.479 -0.307,0.813 -0.28,0.999 0.08,-0.16 0.187,-0.347 0.32,-0.56 0.293,-0.4 0.626,-0.68 1,-0.84 0.213,0.026 0.32,0.053 0.32,0.08 l -0.04,-0.199 0.72,-0.16 0.16,0.479 h 0.439 c -0.266,0.32 -0.453,0.733 -0.56,1.239 -0.08,0.4 -0.119,0.707 -0.119,0.921 0.053,-0.267 0.146,-0.561 0.279,-0.88 0.24,-0.641 0.574,-1.067 1,-1.28 h 0.68 c -0.133,0.16 -0.254,0.373 -0.359,0.64 -0.134,0.454 -0.16,0.946 -0.081,1.48 0.187,-0.96 0.547,-1.681 1.081,-2.16 l 0.6,-0.08 0.16,0.44 c -0.16,0.586 -0.24,1.026 -0.24,1.319 v 1.44 c 0.027,-0.613 0.187,-1.2 0.48,-1.76 l 0.039,0.199 c 0.107,0.934 0.147,1.693 0.121,2.28 -0.055,0.026 -0.134,0.026 -0.241,0 l 0.12,-1.12 -0.64,1.08 -0.16,-0.04 v -2.12 l -0.32,2.08 L 23,38.529 v -2.601 l -0.561,2.441 -0.76,-0.241 v -2.52 l -0.76,2.24 -0.72,-0.28 0.12,-1.641 -0.28,0.441 c -0.187,0.346 -0.306,0.666 -0.36,0.959 L 19,37.05 l 0.36,-1.84 -0.28,0.439 c -0.213,0.373 -0.373,0.76 -0.48,1.16 l -0.84,-0.48 0.6,-1.359 -0.36,0.2 c -0.266,0.213 -0.493,0.506 -0.68,0.88 l -0.84,-0.601 0.56,-0.92 -0.28,0.12 c -0.24,0.134 -0.44,0.321 -0.6,0.561 z m -0.8,-0.8 -0.72,-0.881 0.36,-0.639 0.2,0.239 c 0.213,0.214 0.467,0.4 0.76,0.561 -0.187,0.133 -0.387,0.373 -0.6,0.72 z"
   style="clip-rule:evenodd;fill:#c5eba9;fill-rule:evenodd" />
			</g>
		</g>
		<path
   inkscape:connector-curvature="0"
   id="path947"
   d="m 18.92,37.729 1.64,3.399 c 0.426,0.854 0.439,1.613 0.04,2.28 -0.4,0.693 -1.08,0.947 -2.04,0.761 -0.747,-0.134 -1.2,-0.654 -1.36,-1.561 -0.16,-0.853 -0.013,-1.6 0.44,-2.239 0.267,-0.374 0.56,-0.934 0.88,-1.681 z"
   style="clip-rule:evenodd;fill:#fcee21;fill-rule:evenodd" />
		<path
   inkscape:connector-curvature="0"
   id="path949"
   d="m 18.72,39.01 -0.16,0.479 c -0.107,0.427 -0.174,0.894 -0.2,1.4 -0.026,0.267 0.013,0.64 0.12,1.12 0.054,0.319 0.027,0.56 -0.08,0.72 -0.24,0.267 -0.467,0.307 -0.68,0.12 -0.187,-0.16 -0.294,-0.374 -0.32,-0.64 0,-0.348 0.133,-0.827 0.4,-1.44 z"
   style="clip-rule:evenodd;fill:#ffffff;fill-rule:evenodd" />
		<path
   inkscape:connector-curvature="0"
   id="path951"
   d="m 19.839,40.77 0.521,0.84 c 0.293,0.64 0.306,1.187 0.04,1.64 -0.4,0.747 -0.974,0.934 -1.721,0.561 0.428,0.106 0.828,-0.053 1.2,-0.48 0.347,-0.373 0.44,-0.92 0.28,-1.64 z"
   style="clip-rule:evenodd;fill:#dbc037;fill-rule:evenodd" />
		<path
   inkscape:connector-curvature="0"
   id="path953"
   d="m 18.279,32.449 c -0.133,-0.293 -0.146,-0.613 -0.04,-0.96 l 0.16,-0.439 0.52,0.36 c 0.32,0.319 0.48,0.6 0.48,0.84 -0.027,0.32 -0.187,0.52 -0.48,0.6 -0.293,0.052 -0.506,-0.08 -0.64,-0.401 z"
   style="clip-rule:evenodd;fill:#518c27;fill-rule:evenodd" />
		<path
   inkscape:connector-curvature="0"
   id="path955"
   d="m 18.64,32.77 c -0.32,0.56 -0.747,0.601 -1.28,0.12 l -0.72,-0.84 0.24,-0.12 c 0.241,-0.08 0.521,-0.133 0.841,-0.16 0.373,-0.027 0.653,0.08 0.84,0.32 0.212,0.239 0.239,0.467 0.079,0.68 z"
   style="clip-rule:evenodd;fill:#62a82f;fill-rule:evenodd" />
		
			<linearGradient
   gradientTransform="matrix(0.7998,0.0151,-0.0151,0.7998,-3.032573e-5,3.2502)"
   y2="17.812"
   x2="29.3325"
   y1="17.812"
   x1="20.130899"
   gradientUnits="userSpaceOnUse"
   id="SVGID_82_">
			<stop
   id="stop957"
   style="stop-color:#CC861C"
   offset="0.0118" />
			<stop
   id="stop959"
   style="stop-color:#662500"
   offset="1" />
		</linearGradient>
		<path
   inkscape:connector-curvature="0"
   id="path962"
   d="m 22.56,18.73 c -0.587,0.266 -1.373,0.426 -2.36,0.48 -0.987,0.08 -1.907,0.04 -2.76,-0.12 -0.827,-0.16 -1.333,-0.48 -1.52,-0.96 -0.213,-0.48 -0.027,-0.854 0.56,-1.12 0.586,-0.267 1.373,-0.427 2.359,-0.48 1.014,-0.08 1.934,-0.04 2.76,0.12 0.826,0.16 1.347,0.48 1.561,0.96 0.187,0.48 -0.014,0.853 -0.6,1.12 z"
   style="clip-rule:evenodd;fill:url(#SVGID_82_);fill-rule:evenodd" />
		
			<use
   id="use964"
   style="overflow:visible;opacity:0.91019999;enable-background:new"
   transform="matrix(0.8,0,0,-0.8,22.566,182.7295)"
   y="-3.675"
   x="-0.032000002"
   height="3.7"
   width="9.4910002"
   xlink:href="#flash0.ai_x2F_Layer_26_copy_2_x2F__x3C_Path_x3E__x5F_24_x5F_2" />
		
			<use
   id="use966"
   style="overflow:visible;enable-background:new"
   transform="matrix(0.8,0,0,-0.8,23.2662,183.6797)"
   y="-2.0999999"
   x="-0.0080000004"
   height="2.0999999"
   width="1.98"
   xlink:href="#flash0.ai_x2F_Layer_26_copy_2_x2F__x3C_Path_x3E__x5F_23_x5F_2" />
		
			<use
   x="0"
   id="use968"
   style="overflow:visible;opacity:0.23829998;enable-background:new"
   transform="matrix(0.8,0,0,-0.8,28.4664,183.4795)"
   y="-2.05"
   height="2.05"
   width="1.15"
   xlink:href="#flash0.ai_x2F_Layer_26_copy_2_x2F__x3C_Path_x3E__x5F_22_x5F_2" />
		
			<linearGradient
   gradientTransform="matrix(0.8,0,0,0.8,6.103516e-5,3.2503)"
   y2="17.5"
   x2="27.5742"
   y1="17.5"
   x1="21.125"
   gradientUnits="userSpaceOnUse"
   id="SVGID_83_">
			<stop
   id="stop970"
   style="stop-color:#522304"
   offset="0.0118" />
			<stop
   id="stop972"
   style="stop-color:#A85202"
   offset="1" />
		</linearGradient>
		<path
   inkscape:connector-curvature="0"
   id="path975"
   d="m 22.039,17.25 c 0,0.133 -0.253,0.24 -0.76,0.32 -0.506,0.106 -1.106,0.16 -1.8,0.16 -0.693,0 -1.306,-0.054 -1.84,-0.16 -0.506,-0.08 -0.76,-0.187 -0.76,-0.32 0,-0.133 0.254,-0.24 0.76,-0.32 0.534,-0.106 1.147,-0.16 1.84,-0.16 0.694,0 1.293,0.054 1.8,0.16 0.507,0.08 0.76,0.187 0.76,0.32 z"
   style="clip-rule:evenodd;fill:url(#SVGID_83_);fill-rule:evenodd" />
		
			<linearGradient
   gradientTransform="matrix(0.8,0,0,0.8,6.103516e-5,3.2503)"
   y2="16.054199"
   x2="27.9373"
   y1="16.054199"
   x1="20.362301"
   gradientUnits="userSpaceOnUse"
   id="SVGID_84_">
			<stop
   id="stop977"
   style="stop-color:#EBD47D"
   offset="0.0118" />
			<stop
   id="stop979"
   style="stop-color:#FFE99E"
   offset="0.3294" />
			<stop
   id="stop981"
   style="stop-color:#C9B054"
   offset="1" />
		</linearGradient>
		<path
   inkscape:connector-curvature="0"
   id="path984"
   d="m 22.359,14.45 -0.439,2.92 c -0.187,0.187 -1,0.307 -2.44,0.36 -0.746,0.026 -1.373,-0.027 -1.88,-0.16 l -0.56,-0.16 c -0.106,-0.134 -0.2,-0.387 -0.28,-0.76 l -0.48,-2.16 z"
   style="clip-rule:evenodd;fill:url(#SVGID_84_);fill-rule:evenodd" />
		
			<g
   id="use986"
   transform="matrix(0.8,0,0,-0.8,19.6001,17.7302)">
	<g
   id="g1869">
		
			<use
   id="use1867"
   style="overflow:visible;opacity:0.17190001;enable-background:new"
   y="-4.0999999"
   height="4.0999999"
   width="3.45"
   xlink:href="#flash0.ai_x2F_Layer_26_copy_2_x2F__x3C_Group_x3E__x5F_2"
   x="0"
   transform="translate(8.5200005,-207.912)" />
	</g>
</g>
		
			<linearGradient
   gradientTransform="matrix(-0.7794,0.1803,-0.1803,-0.7794,6.699711e-4,3.2499)"
   y2="-19.029301"
   x2="-14.8922"
   y1="-19.029301"
   x1="-24.540501"
   gradientUnits="userSpaceOnUse"
   id="SVGID_85_">
			<stop
   id="stop988"
   style="stop-color:#FFE99E"
   offset="0" />
			<stop
   id="stop990"
   style="stop-color:#C9B054"
   offset="1" />
		</linearGradient>
		<path
   inkscape:connector-curvature="0"
   id="path993"
   d="m 22.359,14.41 c 0,0.186 -0.293,0.333 -0.88,0.439 -0.613,0.133 -1.346,0.2 -2.2,0.2 -0.853,0 -1.573,-0.067 -2.159,-0.2 -0.587,-0.106 -0.88,-0.253 -0.88,-0.439 0,-0.187 0.293,-0.334 0.88,-0.44 0.586,-0.133 1.306,-0.2 2.159,-0.2 0.854,0 1.587,0.067 2.2,0.2 0.587,0.106 0.88,0.253 0.88,0.44 z"
   style="clip-rule:evenodd;fill:url(#SVGID_85_);fill-rule:evenodd" />
		
			<linearGradient
   gradientTransform="matrix(-0.1178,-0.7913,0.7913,-0.1178,-7.547438e-6,3.2503)"
   y2="18.726101"
   x2="-18.015699"
   y1="18.726101"
   x1="-19.2036"
   gradientUnits="userSpaceOnUse"
   id="SVGID_86_">
			<stop
   id="stop995"
   style="stop-color:#FFE99E"
   offset="0" />
			<stop
   id="stop997"
   style="stop-color:#C9B054"
   offset="1" />
		</linearGradient>
		<path
   inkscape:connector-curvature="0"
   id="path1000"
   d="m 17,15.33 c 0.16,0.16 0.213,0.359 0.16,0.6 -0.08,0.24 -0.16,0.28 -0.24,0.12 -0.081,-0.133 -0.107,-0.307 -0.081,-0.52 0,-0.214 0.054,-0.28 0.161,-0.2 z"
   style="clip-rule:evenodd;fill:url(#SVGID_86_);fill-rule:evenodd" />
		
			<linearGradient
   gradientTransform="matrix(-0.0963,-0.7942,0.7942,-0.0963,3.542975e-4,3.2495)"
   y2="19.700701"
   x2="-18.6436"
   y1="19.700701"
   x1="-19.4746"
   gradientUnits="userSpaceOnUse"
   id="SVGID_87_">
			<stop
   id="stop1002"
   style="stop-color:#FFE99E"
   offset="0" />
			<stop
   id="stop1004"
   style="stop-color:#C9B054"
   offset="1" />
		</linearGradient>
		<path
   inkscape:connector-curvature="0"
   id="path1007"
   d="m 17.479,16.21 c 0.16,0.08 0.2,0.213 0.12,0.4 -0.053,0.16 -0.12,0.187 -0.2,0.08 -0.08,-0.106 -0.107,-0.227 -0.08,-0.359 0.001,-0.161 0.054,-0.201 0.16,-0.121 z"
   style="clip-rule:evenodd;fill:url(#SVGID_87_);fill-rule:evenodd" />
		
			<linearGradient
   gradientTransform="matrix(-0.0823,-0.7957,0.7957,-0.0823,2.463683e-4,3.2505)"
   y2="20.9424"
   x2="-17.582701"
   y1="20.9424"
   x1="-18.311501"
   gradientUnits="userSpaceOnUse"
   id="SVGID_88_">
			<stop
   id="stop1009"
   style="stop-color:#FFE99E"
   offset="0" />
			<stop
   id="stop1011"
   style="stop-color:#C9B054"
   offset="1" />
		</linearGradient>
		<path
   inkscape:connector-curvature="0"
   id="path1014"
   d="m 18.2,15.57 c 0.08,0.187 0.08,0.32 0,0.4 -0.08,0.106 -0.134,0.093 -0.16,-0.04 -0.026,-0.106 -0.013,-0.213 0.04,-0.32 0.053,-0.133 0.093,-0.147 0.12,-0.04 z"
   style="clip-rule:evenodd;fill:url(#SVGID_88_);fill-rule:evenodd" />
		
			<linearGradient
   gradientTransform="matrix(-0.086,-0.7954,0.7954,-0.086,5.673021e-4,3.2506)"
   y2="22.617701"
   x2="-18.622299"
   y1="22.617701"
   x1="-19.5527"
   gradientUnits="userSpaceOnUse"
   id="SVGID_89_">
			<stop
   id="stop1016"
   style="stop-color:#FFE99E"
   offset="0" />
			<stop
   id="stop1018"
   style="stop-color:#C9B054"
   offset="1" />
		</linearGradient>
		<path
   inkscape:connector-curvature="0"
   id="path1021"
   d="m 19.679,16.09 c 0.16,0 0.228,0.106 0.2,0.32 -0.053,0.24 -0.159,0.346 -0.319,0.32 -0.16,-0.027 -0.227,-0.147 -0.2,-0.36 0.027,-0.213 0.133,-0.307 0.319,-0.28 z"
   style="clip-rule:evenodd;fill:url(#SVGID_89_);fill-rule:evenodd" />
		
			<linearGradient
   gradientTransform="matrix(-0.0823,-0.7957,0.7957,-0.0823,2.463683e-4,3.2505)"
   y2="20.846701"
   x2="-19.134899"
   y1="20.846701"
   x1="-19.8638"
   gradientUnits="userSpaceOnUse"
   id="SVGID_90_">
			<stop
   id="stop1023"
   style="stop-color:#FFE99E"
   offset="0" />
			<stop
   id="stop1025"
   style="stop-color:#C9B054"
   offset="1" />
		</linearGradient>
		<path
   inkscape:connector-curvature="0"
   id="path1028"
   d="m 18.279,16.77 c 0.16,0.054 0.2,0.16 0.121,0.32 -0.08,0.16 -0.187,0.213 -0.32,0.16 -0.133,-0.054 -0.173,-0.16 -0.12,-0.32 0.053,-0.134 0.16,-0.187 0.319,-0.16 z"
   style="clip-rule:evenodd;fill:url(#SVGID_90_);fill-rule:evenodd" />
		
			<linearGradient
   gradientTransform="matrix(-0.0758,-0.7964,0.7964,-0.0758,2.421215e-4,3.2508)"
   y2="19.762699"
   x2="-19.101"
   y1="19.762699"
   x1="-19.628401"
   gradientUnits="userSpaceOnUse"
   id="SVGID_91_">
			<stop
   id="stop1030"
   style="stop-color:#FFE99E"
   offset="0" />
			<stop
   id="stop1032"
   style="stop-color:#C9B054"
   offset="1" />
		</linearGradient>
		<path
   inkscape:connector-curvature="0"
   id="path1035"
   d="m 17.279,17.01 c 0.054,0.107 0.067,0.187 0.041,0.24 -0.027,0.08 -0.08,0.106 -0.16,0.08 -0.08,-0.027 -0.094,-0.107 -0.04,-0.24 0.053,-0.133 0.106,-0.16 0.159,-0.08 z"
   style="clip-rule:evenodd;fill:url(#SVGID_91_);fill-rule:evenodd" />
		
			<linearGradient
   gradientTransform="matrix(-0.0992,-0.7938,0.7938,-0.0992,-2.703071e-5,3.25)"
   y2="21.6187"
   x2="-20.2376"
   y1="21.6187"
   x1="-20.8423"
   gradientUnits="userSpaceOnUse"
   id="SVGID_92_">
			<stop
   id="stop1037"
   style="stop-color:#FFE99E"
   offset="0" />
			<stop
   id="stop1039"
   style="stop-color:#C9B054"
   offset="1" />
		</linearGradient>
		<path
   inkscape:connector-curvature="0"
   id="path1042"
   d="m 19.32,17.21 c 0.08,0.16 0.08,0.267 0,0.32 -0.08,0.08 -0.16,0.08 -0.24,0 -0.08,-0.053 -0.08,-0.147 0,-0.28 0.107,-0.133 0.186,-0.146 0.24,-0.04 z"
   style="clip-rule:evenodd;fill:url(#SVGID_92_);fill-rule:evenodd" />
		
			<linearGradient
   gradientTransform="matrix(-0.0963,-0.7942,0.7942,-0.0963,3.542975e-4,3.2495)"
   y2="24.726101"
   x2="-18.550301"
   y1="24.726101"
   x1="-19.3813"
   gradientUnits="userSpaceOnUse"
   id="SVGID_93_">
			<stop
   id="stop1044"
   style="stop-color:#FFE99E"
   offset="0" />
			<stop
   id="stop1046"
   style="stop-color:#C9B054"
   offset="1" />
		</linearGradient>
		<path
   inkscape:connector-curvature="0"
   id="path1049"
   d="m 21.64,15.689 c 0,0.187 -0.04,0.334 -0.12,0.44 -0.08,0.106 -0.16,0.08 -0.24,-0.08 -0.053,-0.133 -0.014,-0.267 0.12,-0.4 0.16,-0.132 0.24,-0.119 0.24,0.04 z"
   style="clip-rule:evenodd;fill:url(#SVGID_93_);fill-rule:evenodd" />
		
			<linearGradient
   gradientTransform="matrix(-0.0724,-0.7967,0.7967,-0.0724,2.424419e-5,3.2501)"
   y2="25.207001"
   x2="-19.284201"
   y1="25.207001"
   x1="-19.836399"
   gradientUnits="userSpaceOnUse"
   id="SVGID_94_">
			<stop
   id="stop1051"
   style="stop-color:#FFE99E"
   offset="0" />
			<stop
   id="stop1053"
   style="stop-color:#C9B054"
   offset="1" />
		</linearGradient>
		<path
   inkscape:connector-curvature="0"
   id="path1056"
   d="m 21.6,16.81 c 0,0.213 0,0.333 0,0.36 -0.026,0.026 -0.08,0.026 -0.16,0 -0.08,-0.027 -0.066,-0.107 0.04,-0.24 0.08,-0.16 0.12,-0.2 0.12,-0.12 z"
   style="clip-rule:evenodd;fill:url(#SVGID_94_);fill-rule:evenodd" />
		
			<linearGradient
   gradientTransform="matrix(-0.7998,0.017,-0.017,-0.7998,8.059125e-4,3.25)"
   y2="-14.5562"
   x2="-20.9575"
   y1="-14.5562"
   x1="-22.132799"
   gradientUnits="userSpaceOnUse"
   id="SVGID_95_">
			<stop
   id="stop1058"
   style="stop-color:#FFE99E"
   offset="0" />
			<stop
   id="stop1060"
   style="stop-color:#C9B054"
   offset="1" />
		</linearGradient>
		<path
   inkscape:connector-curvature="0"
   id="path1063"
   d="m 17.679,14.45 c 0.134,0.027 0.174,0.054 0.121,0.08 -0.053,0.053 -0.16,0.08 -0.32,0.08 -0.133,0 -0.16,-0.027 -0.08,-0.08 0.079,-0.08 0.173,-0.107 0.279,-0.08 z"
   style="clip-rule:evenodd;fill:url(#SVGID_95_);fill-rule:evenodd" />
		
			<linearGradient
   gradientTransform="matrix(-0.7998,0.0154,-0.0154,-0.7998,8.876836e-4,3.2503)"
   y2="-13.9214"
   x2="-22.386801"
   y1="-13.9214"
   x1="-23.687"
   gradientUnits="userSpaceOnUse"
   id="SVGID_96_">
			<stop
   id="stop1065"
   style="stop-color:#FFE99E"
   offset="0" />
			<stop
   id="stop1067"
   style="stop-color:#C9B054"
   offset="1" />
		</linearGradient>
		<path
   inkscape:connector-curvature="0"
   id="path1070"
   d="m 18.76,13.93 c 0.213,0 0.28,0.04 0.2,0.12 -0.081,0.054 -0.2,0.08 -0.36,0.08 -0.133,0 -0.173,-0.026 -0.12,-0.08 0.053,-0.08 0.146,-0.12 0.28,-0.12 z"
   style="clip-rule:evenodd;fill:url(#SVGID_96_);fill-rule:evenodd" />
		
			<linearGradient
   gradientTransform="matrix(-0.7999,0.0143,-0.0143,-0.7999,3.293902e-5,3.2501)"
   y2="-14.25"
   x2="-21.899099"
   y1="-14.25"
   x1="-23.299299"
   gradientUnits="userSpaceOnUse"
   id="SVGID_97_">
			<stop
   id="stop1072"
   style="stop-color:#FFE99E"
   offset="0" />
			<stop
   id="stop1074"
   style="stop-color:#C9B054"
   offset="1" />
		</linearGradient>
		<path
   inkscape:connector-curvature="0"
   id="path1077"
   d="m 18.4,14.21 c 0.4,0.053 0.333,0.133 -0.2,0.24 -0.107,-0.026 -0.12,-0.08 -0.04,-0.16 0.08,-0.08 0.16,-0.107 0.24,-0.08 z"
   style="clip-rule:evenodd;fill:url(#SVGID_97_);fill-rule:evenodd" />
		
			<linearGradient
   gradientTransform="matrix(-0.7999,0.0114,-0.0114,-0.7999,-3.495272e-4,3.25)"
   y2="-14.3013"
   x2="-23.973"
   y1="-14.3013"
   x1="-25.723101"
   gradientUnits="userSpaceOnUse"
   id="SVGID_98_">
			<stop
   id="stop1079"
   style="stop-color:#FFE99E"
   offset="0" />
			<stop
   id="stop1081"
   style="stop-color:#C9B054"
   offset="1" />
		</linearGradient>
		<path
   inkscape:connector-curvature="0"
   id="path1084"
   d="m 20.24,14.25 c 0.293,0.026 0.36,0.093 0.2,0.2 -0.16,0.107 -0.319,0.133 -0.479,0.08 -0.134,-0.026 -0.147,-0.08 -0.04,-0.16 0.079,-0.08 0.186,-0.12 0.319,-0.12 z"
   style="clip-rule:evenodd;fill:url(#SVGID_98_);fill-rule:evenodd" />
		
			<linearGradient
   gradientTransform="matrix(-0.7999,0.0131,-0.0131,-0.7999,-1.438232e-4,3.2499)"
   y2="-14.6084"
   x2="-24.9011"
   y1="-14.6084"
   x1="-26.4263"
   gradientUnits="userSpaceOnUse"
   id="SVGID_99_">
			<stop
   id="stop1086"
   style="stop-color:#FFE99E"
   offset="0" />
			<stop
   id="stop1088"
   style="stop-color:#C9B054"
   offset="1" />
		</linearGradient>
		<path
   inkscape:connector-curvature="0"
   id="path1091"
   d="m 21,14.53 c 0.213,0.027 0.227,0.066 0.04,0.12 -0.186,0.053 -0.333,0.053 -0.439,0 C 20.413,14.517 20.546,14.477 21,14.53 Z"
   style="clip-rule:evenodd;fill:url(#SVGID_99_);fill-rule:evenodd" />
		
			<linearGradient
   gradientTransform="matrix(-0.7999,0.0145,-0.0145,-0.7999,8.941786e-4,3.2501)"
   y2="-14.9624"
   x2="-22.794701"
   y1="-14.9624"
   x1="-24.169901"
   gradientUnits="userSpaceOnUse"
   id="SVGID_100_">
			<stop
   id="stop1093"
   style="stop-color:#FFE99E"
   offset="0" />
			<stop
   id="stop1095"
   style="stop-color:#C9B054"
   offset="1" />
		</linearGradient>
		<path
   inkscape:connector-curvature="0"
   id="path1098"
   d="m 19.2,14.77 c 0.213,0 0.253,0.041 0.12,0.12 -0.133,0.08 -0.267,0.106 -0.4,0.08 -0.107,-0.026 -0.12,-0.066 -0.041,-0.12 0.081,-0.054 0.187,-0.08 0.321,-0.08 z"
   style="clip-rule:evenodd;fill:url(#SVGID_100_);fill-rule:evenodd" />
		
			<linearGradient
   gradientTransform="matrix(-0.7997,0.0205,-0.0205,-0.7997,9.758305e-4,3.2498)"
   y2="-14.0234"
   x2="-24.1106"
   y1="-14.0234"
   x1="-25.085899"
   gradientUnits="userSpaceOnUse"
   id="SVGID_101_">
			<stop
   id="stop1100"
   style="stop-color:#FFE99E"
   offset="0" />
			<stop
   id="stop1102"
   style="stop-color:#C9B054"
   offset="1" />
		</linearGradient>
		<path
   inkscape:connector-curvature="0"
   id="path1105"
   d="m 20.12,13.93 c 0.24,0.027 0.159,0.053 -0.241,0.08 -0.053,-0.027 -0.04,-0.053 0.041,-0.08 0.053,-0.027 0.12,-0.027 0.2,0 z"
   style="clip-rule:evenodd;fill:url(#SVGID_101_);fill-rule:evenodd" />
		
			<linearGradient
   gradientTransform="matrix(-0.7998,0.0167,-0.0167,-0.7998,-4.494358e-4,3.2502)"
   y2="-14.2725"
   x2="-25.9589"
   y1="-14.2725"
   x1="-27.159201"
   gradientUnits="userSpaceOnUse"
   id="SVGID_102_">
			<stop
   id="stop1107"
   style="stop-color:#FFE99E"
   offset="0" />
			<stop
   id="stop1109"
   style="stop-color:#C9B054"
   offset="1" />
		</linearGradient>
		<path
   inkscape:connector-curvature="0"
   id="path1112"
   d="m 21.6,14.13 c 0.32,0.026 0.267,0.093 -0.16,0.2 -0.106,-0.027 -0.133,-0.08 -0.08,-0.16 0.053,-0.053 0.132,-0.066 0.24,-0.04 z"
   style="clip-rule:evenodd;fill:url(#SVGID_102_);fill-rule:evenodd" />
	</g>
</svg>