<?xml version="1.0" encoding="UTF-8" standalone="no"?>
<!-- Generator: Adobe Illustrator 15.1.0, SVG Export Plug-In . SVG Version: 6.00 Build 0)  -->

<svg
   xmlns:dc="http://purl.org/dc/elements/1.1/"
   xmlns:cc="http://creativecommons.org/ns#"
   xmlns:rdf="http://www.w3.org/1999/02/22-rdf-syntax-ns#"
   xmlns:svg="http://www.w3.org/2000/svg"
   xmlns="http://www.w3.org/2000/svg"
   xmlns:sodipodi="http://sodipodi.sourceforge.net/DTD/sodipodi-0.dtd"
   xmlns:inkscape="http://www.inkscape.org/namespaces/inkscape"
   version="1.1"
   id="flash0.ai"
   x="0px"
   y="0px"
   width="256"
   height="256"
   viewBox="0 0 255.99999 256"
   xml:space="preserve"
   sodipodi:docname="bubble_and_squeak.svg"
   inkscape:version="0.92.4 (5da689c313, 2019-01-14)"><title
   id="title1003">Bubble and Squeak</title><metadata
   id="metadata196"><rdf:RDF><cc:Work
       rdf:about=""><dc:format>image/svg+xml</dc:format><dc:type
         rdf:resource="http://purl.org/dc/dcmitype/StillImage" /><dc:title>Bubble and Squeak</dc:title><cc:license
         rdf:resource="http://creativecommons.org/publicdomain/zero/1.0/" /><dc:creator><cc:Agent><dc:title>Glitch</dc:title></cc:Agent></dc:creator><dc:source>https://opengameart.org/node/20149</dc:source></cc:Work><cc:License
       rdf:about="http://creativecommons.org/publicdomain/zero/1.0/"><cc:permits
         rdf:resource="http://creativecommons.org/ns#Reproduction" /><cc:permits
         rdf:resource="http://creativecommons.org/ns#Distribution" /><cc:permits
         rdf:resource="http://creativecommons.org/ns#DerivativeWorks" /></cc:License></rdf:RDF></metadata><defs
   id="defs194" /><sodipodi:namedview
   pagecolor="#ffffff"
   bordercolor="#666666"
   borderopacity="1"
   objecttolerance="10"
   gridtolerance="10"
   guidetolerance="10"
   inkscape:pageopacity="0"
   inkscape:pageshadow="2"
   inkscape:window-width="1920"
   inkscape:window-height="1025"
   id="namedview192"
   showgrid="false"
   inkscape:zoom="1.9540655"
   inkscape:cx="214.28074"
   inkscape:cy="50.147833"
   inkscape:window-x="-8"
   inkscape:window-y="-8"
   inkscape:window-maximized="1"
   inkscape:current-layer="flash0.ai"
   fit-margin-top="0"
   fit-margin-left="0"
   fit-margin-right="0"
   fit-margin-bottom="0" />
<g
   id="g1086"
   transform="matrix(7.4469084,0,0,7.4469084,-64.209614,-92.350296)"><path
     style="clip-rule:evenodd;fill:#ffcf4f;fill-rule:evenodd"
     d="m 40.72,25.63 c 0.854,0.693 1.373,1.16 1.56,1.399 0.106,0.16 0.228,0.533 0.36,1.12 0.106,0.454 0.094,0.96 -0.04,1.521 -0.08,0.319 -0.227,0.8 -0.44,1.439 -0.08,0.32 -0.187,0.801 -0.32,1.44 -0.187,0.56 -0.56,1.12 -1.119,1.68 -0.747,0.747 -1.373,1.294 -1.881,1.64 -0.692,0.427 -1.626,0.841 -2.8,1.24 l -2.52,0.84 c -0.641,0.16 -1.76,0.334 -3.359,0.521 -1.281,0.133 -2.32,0.014 -3.121,-0.36 -0.879,-0.373 -1.8,-0.547 -2.76,-0.52 C 23,37.643 21.987,37.496 21.24,37.15 20.333,36.617 19.453,36.164 18.6,35.79 17.88,35.497 16.96,35.204 15.84,34.911 15.04,34.697 14.36,34.39 13.8,33.99 13.426,33.723 12.68,33.337 11.56,32.831 10.706,32.431 10.053,31.977 9.6,31.471 9.067,30.884 8.84,30.244 8.92,29.551 c 0.026,-0.267 0.253,-1.014 0.68,-2.24 0.24,-0.666 0.72,-1.16 1.44,-1.479 0.747,-0.32 1.147,-0.587 1.2,-0.8 0.133,-0.454 0.44,-0.827 0.92,-1.12 0.56,-0.347 1.493,-0.693 2.8,-1.04 0.853,-0.214 1.946,-0.427 3.28,-0.641 1.12,-0.187 2.08,-0.413 2.88,-0.68 2.506,-0.8 4.546,-1.04 6.119,-0.72 1.387,0.266 2.507,0.573 3.36,0.92 1.04,0.427 2.04,0.76 3,1 1.6,0.399 2.813,0.8 3.64,1.2 0.694,0.345 1.521,0.905 2.481,1.679 z"
     id="path19"
     inkscape:connector-curvature="0" /><path
     style="clip-rule:evenodd;fill:#f0b941;fill-rule:evenodd"
     d="m 16.64,29.149 c 0.347,0.134 0.733,0.347 1.16,0.64 0.533,0.24 1.346,0.387 2.44,0.44 1.227,0.08 2.173,0.227 2.839,0.44 0.374,0.133 0.947,0.426 1.721,0.88 0.426,0.239 0.773,0.467 1.04,0.68 0.134,0.08 0.426,0.134 0.88,0.16 0.772,0.026 1.12,0.227 1.04,0.6 l -0.16,1.24 c -0.08,0.934 -0.026,1.64 0.16,2.12 0.133,0.32 0.146,0.613 0.04,0.88 -0.054,0.16 -0.147,0.387 -0.28,0.681 l -0.08,0.359 C 26.961,38.056 26.56,37.896 26.24,37.789 25.707,37.63 25.053,37.562 24.28,37.59 23,37.643 21.987,37.496 21.24,37.15 20.333,36.617 19.453,36.164 18.6,35.79 17.88,35.497 16.96,35.204 15.84,34.911 15.04,34.697 14.36,34.39 13.8,33.99 13.426,33.723 12.68,33.337 11.56,32.831 10.706,32.431 10.053,31.977 9.6,31.471 9.067,30.884 8.84,30.244 8.92,29.551 c 0.026,-0.267 0.253,-1.014 0.68,-2.24 0.133,-0.427 0.36,-0.773 0.68,-1.04 1.307,0.986 2.347,1.573 3.12,1.76 0.426,0.078 1.506,0.451 3.24,1.118 z"
     id="path21"
     inkscape:connector-curvature="0" /><path
     style="clip-rule:evenodd;fill:#d19b30;fill-rule:evenodd"
     d="m 40.879,28.39 c 0.268,-0.054 0.468,-0.146 0.601,-0.28 0.054,-0.026 0.16,-0.173 0.32,-0.439 0.239,-0.374 0.387,-0.613 0.439,-0.721 0.134,0.188 0.268,0.587 0.4,1.2 0.106,0.454 0.094,0.96 -0.04,1.521 -0.08,0.319 -0.227,0.8 -0.44,1.439 -0.08,0.32 -0.187,0.801 -0.32,1.44 -0.187,0.56 -0.56,1.12 -1.119,1.68 -0.747,0.747 -1.373,1.294 -1.881,1.64 -0.692,0.427 -1.626,0.841 -2.8,1.24 l -2.52,0.84 c -0.641,0.16 -1.76,0.334 -3.359,0.521 -1.227,0.133 -2.2,0.04 -2.921,-0.28 l 0.2,-1.16 -0.2,-3.64 0.081,-0.56 c 0.159,0 0.532,-0.08 1.119,-0.24 0.587,-0.16 1.04,-0.24 1.36,-0.24 0.239,0 0.934,-0.054 2.079,-0.16 0.454,-0.053 0.921,-0.187 1.4,-0.4 0.507,-0.239 0.92,-0.386 1.24,-0.439 1.014,-0.187 1.946,-0.493 2.8,-0.92 0.72,-0.347 1.254,-0.667 1.601,-0.96 0.773,-0.616 1.428,-0.976 1.96,-1.082 z"
     id="path23"
     inkscape:connector-curvature="0" /><path
     style="clip-rule:evenodd;fill:#ffe6a3;fill-rule:evenodd"
     d="m 39.479,29.39 c -0.24,0.267 -0.547,0.533 -0.92,0.8 -0.507,0.347 -0.96,0.667 -1.36,0.96 -0.507,0.374 -0.986,0.587 -1.439,0.64 -0.534,0.027 -0.974,0.054 -1.32,0.08 -0.427,0.054 -0.706,0.107 -0.84,0.16 -0.214,0.16 -0.507,0.334 -0.88,0.521 -0.428,0.213 -0.894,0.307 -1.399,0.28 -0.801,-0.027 -1.36,-0.014 -1.681,0.039 -0.747,0.107 -1.493,0.587 -2.24,1.44 l -0.12,-1.16 0.041,-0.319 c 0.159,0 0.532,-0.08 1.119,-0.24 0.587,-0.16 1.04,-0.24 1.36,-0.24 0.239,0 0.934,-0.054 2.079,-0.16 0.454,-0.053 0.921,-0.187 1.4,-0.4 0.507,-0.239 0.92,-0.386 1.24,-0.439 1.014,-0.187 1.946,-0.493 2.8,-0.92 0.72,-0.347 1.254,-0.667 1.601,-0.96 0.729,-0.579 1.35,-0.933 1.859,-1.06 -0.662,0.446 -1.095,0.774 -1.3,0.978 z"
     id="path25"
     inkscape:connector-curvature="0" /><path
     style="clip-rule:evenodd;fill:#ffe6a3;fill-rule:evenodd"
     d="m 16.64,29.149 c 0.347,0.134 0.733,0.347 1.16,0.64 0.533,0.24 1.346,0.387 2.44,0.44 1.227,0.08 2.173,0.227 2.839,0.44 0.374,0.133 0.947,0.426 1.721,0.88 0.426,0.239 0.773,0.467 1.04,0.68 0.134,0.08 0.426,0.134 0.88,0.16 0.772,0.026 1.12,0.227 1.04,0.6 l -0.16,1.24 c -0.08,0.934 -0.026,1.64 0.16,2.12 0.133,0.32 0.146,0.613 0.04,0.88 -0.054,0.16 -0.147,0.387 -0.28,0.681 l -0.08,0.359 -0.36,-0.12 c 0,-0.373 0.067,-0.693 0.2,-0.96 0.054,-0.133 0.041,-0.267 -0.04,-0.4 -0.106,-0.186 -0.173,-0.439 -0.2,-0.76 -0.026,-0.72 -0.053,-1.267 -0.079,-1.64 -0.054,-0.667 -0.174,-1.054 -0.36,-1.16 -0.293,-0.24 -0.987,-0.6 -2.08,-1.08 -0.907,-0.427 -1.587,-0.706 -2.041,-0.84 -0.346,-0.106 -0.693,-0.173 -1.04,-0.2 h -0.4 c -0.293,-0.026 -0.693,-0.146 -1.2,-0.359 -0.16,-0.054 -0.76,-0.16 -1.8,-0.32 -0.986,-0.16 -1.8,-0.373 -2.44,-0.641 -0.667,-0.266 -1.2,-0.533 -1.6,-0.8 -0.613,-0.453 -0.934,-0.68 -0.96,-0.68 -0.293,-0.16 -0.786,-0.56 -1.479,-1.2 0.907,0.561 1.52,0.867 1.84,0.92 0.425,0.08 1.505,0.453 3.239,1.12 z"
     id="path27"
     inkscape:connector-curvature="0" /><g
     id="g39">
		<path
   style="clip-rule:evenodd;fill:#deb33a;fill-rule:evenodd"
   d="m 13.48,24.75 c -0.613,0.187 -0.934,0.146 -0.96,-0.12 -0.026,-0.267 0.24,-0.52 0.8,-0.76 0.08,0 0.12,-0.014 0.12,-0.04 0.187,-0.106 0.387,-0.174 0.6,-0.2 0.267,-0.026 0.44,0.014 0.521,0.12 0.186,0.187 0.013,0.439 -0.521,0.76 z"
   id="path29"
   inkscape:connector-curvature="0" />
		<path
   style="clip-rule:evenodd;fill:#deb33a;fill-rule:evenodd"
   d="m 16.919,23.75 c -0.213,0.133 -0.426,0.2 -0.64,0.2 h -0.44 c -0.613,0 -0.907,-0.227 -0.88,-0.681 0.026,-0.159 0.133,-0.253 0.32,-0.28 0.267,-0.026 0.44,-0.066 0.52,-0.119 0.16,-0.107 0.307,-0.146 0.44,-0.12 0.08,0 0.173,0.013 0.28,0.04 h 0.56 c 0.16,0.026 0.227,0.146 0.2,0.359 -0.026,0.214 -0.146,0.414 -0.36,0.601 z"
   id="path31"
   inkscape:connector-curvature="0" />
		<path
   style="clip-rule:evenodd;fill:#deb33a;fill-rule:evenodd"
   d="m 26.84,29.47 c 0.426,0.054 0.467,0.2 0.12,0.44 -0.32,0.266 -0.681,0.426 -1.081,0.479 -0.427,0.08 -0.8,0.014 -1.12,-0.2 -0.16,-0.106 0.026,-0.293 0.56,-0.56 0.506,-0.16 0.867,-0.2 1.08,-0.12 z"
   id="path33"
   inkscape:connector-curvature="0" />
		<path
   style="clip-rule:evenodd;fill:#deb33a;fill-rule:evenodd"
   d="m 21.04,25.149 0.76,0.04 c 0.133,0 0.347,0.04 0.64,0.12 l 0.92,-0.16 -0.281,-0.039 c -0.506,0.159 -0.866,0.106 -1.08,-0.16 z m 1.28,-2.799 c 0,-0.106 0.04,-0.2 0.12,-0.28 l -0.319,0.12 c 0.105,0.053 0.171,0.106 0.199,0.16 z m 0.519,0.52 c -0.24,-0.027 -0.4,-0.12 -0.479,-0.28 l -0.04,0.16 c -0.054,0.133 -0.146,0.239 -0.28,0.319 0.374,0 0.56,0.08 0.56,0.24 0.24,0 0.4,0.027 0.479,0.08 l 0.681,-0.24 C 23.707,23.096 23.679,23.003 23.679,22.87 l 0.041,-0.12 -0.16,0.04 c -0.24,0.106 -0.481,0.133 -0.721,0.08 z m 8.481,3.64 0.559,-0.399 -0.239,-0.24 h -0.28 l -1.68,-0.2 h -0.16 c 0.106,0.16 0.106,0.307 0,0.44 l -0.08,0.119 c 0.213,-0.053 0.4,-0.013 0.561,0.12 l 0.279,-0.08 c 0.506,-0.133 0.853,-0.053 1.04,0.24 z M 24.96,27.949 24.92,27.71 24.679,27.63 24.559,27.55 24,27.39 c -0.053,-0.026 -0.12,-0.106 -0.2,-0.24 l -0.36,-0.04 c -0.053,-0.026 -0.106,-0.093 -0.16,-0.199 h -0.24 c -0.133,0.133 -0.2,0.253 -0.2,0.359 0.027,0.4 -0.266,0.667 -0.879,0.8 -0.613,0.16 -0.934,0.067 -0.96,-0.28 0,-0.266 0.053,-0.493 0.16,-0.68 l -2,0.521 c 0.24,0.159 0.347,0.347 0.32,0.56 0.133,-0.026 0.28,-0.014 0.439,0.04 0.16,0.026 0.187,0.094 0.08,0.2 l 0.48,0.04 c 0.026,-0.026 0.16,-0.066 0.399,-0.12 l 0.48,0.08 c 0.374,-0.213 0.787,-0.32 1.24,-0.32 h 1.68 c 0.267,-0.108 0.494,-0.162 0.681,-0.162 z m 1.76,-0.239 -0.12,0.159 c -0.08,0.107 -0.253,0.214 -0.521,0.32 0.534,0.106 0.894,0.106 1.081,0 0.426,-0.267 0.853,-0.333 1.279,-0.2 0.32,-0.159 0.653,-0.227 1,-0.2 0.299,0.021 0.453,0.115 0.46,0.28 0.042,-0.126 0.182,-0.233 0.421,-0.319 0.266,-0.107 0.559,-0.174 0.879,-0.2 -0.16,-0.026 -0.253,-0.094 -0.279,-0.2 -0.107,0.08 -0.213,0.12 -0.32,0.12 -0.96,0.24 -1.627,0.213 -2,-0.08 -0.267,-0.214 -0.293,-0.453 -0.08,-0.72 h -0.2 l -1.041,-0.24 0.2,0.24 c 0.267,0.054 0.387,0.187 0.36,0.399 -0.08,0.347 -0.427,0.561 -1.04,0.641 z m -1.241,-2.32 -0.2,-0.04 -1.8,0.44 0.041,0.04 v 0.2 l 1.319,0.039 c 0.213,0.08 0.333,0.134 0.36,0.16 h 0.28 l 0.24,-0.04 c -0.213,-0.133 -0.146,-0.333 0.2,-0.6 l -0.041,-0.2 h -0.399 z m 3.041,-1.12 -0.16,-0.159 c -0.08,0.133 -0.199,0.213 -0.359,0.239 l 1.16,0.08 z m 5.4,4.919 v -0.04 l -0.12,-0.04 c -0.24,-0.08 -0.4,-0.227 -0.48,-0.439 -0.028,0.293 0.172,0.467 0.6,0.519 z m 1.159,-1.719 0.041,0.12 c 0,0.373 0.053,0.586 0.159,0.64 0.213,0.08 0.267,0.2 0.16,0.36 0.294,0.053 0.373,0.16 0.239,0.32 h 0.2 l 0.521,-0.16 c 0.32,-0.08 0.561,-0.107 0.721,-0.08 -0.294,-0.107 -0.441,-0.28 -0.441,-0.521 -0.293,-0.133 -0.239,-0.36 0.16,-0.68 l 0.2,-0.08 v -0.12 l -0.479,0.28 c -0.721,0.24 -1.213,0.214 -1.481,-0.079 z m 0.96,-4.04 -0.919,-0.24 0.039,0.2 c 0,0.134 0.12,0.254 0.36,0.36 0.08,-0.106 0.2,-0.2 0.359,-0.28 z m -2.479,0.84 c -0.134,-0.133 -0.213,-0.267 -0.24,-0.399 -0.133,0.053 -0.32,0.08 -0.56,0.08 l 0.079,0.119 c 0.134,0.613 0.627,1.32 1.48,2.12 0.16,0.134 0.014,0.307 -0.44,0.521 -0.453,0.187 -0.826,0.253 -1.119,0.2 l -0.24,0.279 c -0.24,0.24 -0.533,0.36 -0.88,0.36 l 0.12,0.08 v 0.08 c 0.316,0 0.556,0.079 0.72,0.239 -0.053,-0.053 -0.066,-0.08 -0.04,-0.08 0.053,0.027 0.106,0.041 0.16,0.041 0.267,0 0.439,0.106 0.521,0.319 l 0.119,0.04 V 27.83 c 0,-0.268 0.24,-0.467 0.721,-0.601 0.453,-0.134 0.786,-0.106 1,0.08 l -0.04,-0.08 c -0.027,-0.213 0.066,-0.426 0.279,-0.64 l 0.4,-0.36 c 0.187,-0.16 0.439,-0.279 0.76,-0.359 -0.613,0 -1.12,-0.107 -1.521,-0.32 -0.266,-0.08 -0.492,-0.187 -0.68,-0.32 -0.373,-0.187 -0.613,-0.373 -0.72,-0.56 -0.026,-0.16 0.013,-0.294 0.121,-0.4 z m -0.84,-1.48 c 0,-0.054 0.053,-0.107 0.159,-0.16 l 0.2,-0.08 -0.479,0.08 c -0.986,0 -1.6,-0.04 -1.84,-0.12 -1.521,0.08 -2.307,0.12 -2.36,0.12 h -0.08 v 0.04 c -0.027,0.213 -0.147,0.399 -0.36,0.56 -0.214,0.134 -0.427,0.2 -0.64,0.2 h -1.16 l -0.081,0.24 c 0.561,-0.106 1.2,-0.16 1.921,-0.16 0.187,0 0.333,0.04 0.439,0.12 l 0.2,-0.24 c 0.48,-0.267 0.934,-0.307 1.36,-0.12 h 0.039 c 0.374,-0.373 0.987,-0.56 1.84,-0.56 z m 4.24,1.399 0.16,0.04 c -0.268,-0.133 -0.641,-0.227 -1.121,-0.279 0.32,0.133 0.641,0.213 0.961,0.239 z m 4.56,2.96 c -0.32,0.507 -0.547,0.813 -0.681,0.92 -0.347,0.294 -0.76,0.44 -1.239,0.44 -0.08,0.026 -0.2,0.014 -0.36,-0.04 -0.16,-0.054 -0.2,-0.12 -0.119,-0.2 L 39,28.349 c -0.293,0.16 -0.68,0.267 -1.16,0.32 0.294,0 0.48,0.08 0.561,0.24 0.08,0.106 0.053,0.227 -0.08,0.359 -0.187,0.267 -0.586,0.427 -1.199,0.48 -0.268,0 -0.441,-0.054 -0.521,-0.16 -0.721,0.187 -1.12,0.293 -1.2,0.32 -0.479,0.079 -0.88,0.066 -1.2,-0.041 h -0.12 l 0.24,0.12 c 0.133,0.106 0.106,0.24 -0.08,0.4 -0.24,0.16 -0.387,0.253 -0.439,0.28 -0.534,0.213 -0.934,0.213 -1.2,0 -0.494,-0.015 -0.628,-0.161 -0.4,-0.44 0.134,-0.134 0.293,-0.24 0.479,-0.319 -0.826,-0.054 -1.226,-0.307 -1.199,-0.761 L 31,29.27 l 0.039,0.04 c 0.054,0.347 -0.213,0.601 -0.8,0.76 l -0.479,0.08 -0.12,0.08 c -0.427,0.294 -0.866,0.36 -1.319,0.2 -0.721,-0.267 -1.134,-0.653 -1.241,-1.16 -0.026,-0.08 0,-0.187 0.081,-0.32 -0.801,0.24 -1.64,0.254 -2.521,0.04 l -0.16,0.28 c -0.267,0.24 -0.6,0.36 -1,0.36 -0.373,0.106 -0.627,0.106 -0.76,0 l -0.08,-0.12 h -0.08 c -0.32,0.16 -0.586,0.253 -0.8,0.279 -0.293,0.374 -0.694,0.507 -1.2,0.4 l -0.32,0.04 c -0.507,0.134 -0.8,0.106 -0.88,-0.08 -0.027,-0.133 0.013,-0.28 0.12,-0.439 -0.187,-0.027 -0.334,-0.094 -0.44,-0.2 -0.133,-0.134 -0.16,-0.293 -0.08,-0.48 l 0.12,-0.119 h -0.2 l -0.12,0.039 c -0.213,0.16 -0.467,0.24 -0.76,0.24 -0.32,0 -0.56,-0.094 -0.72,-0.279 V 28.87 l -0.04,-0.08 c -0.267,0.08 -0.547,0.08 -0.84,0 -0.213,-0.026 -0.36,-0.146 -0.44,-0.359 -0.32,0.32 -0.747,0.427 -1.28,0.32 h -0.24 c -0.32,0.239 -0.707,0.319 -1.16,0.239 l -0.32,-0.04 c -0.214,0 -0.387,-0.08 -0.521,-0.239 -0.133,-0.134 -0.146,-0.294 -0.04,-0.48 0.133,-0.319 0.426,-0.507 0.88,-0.56 l 0.36,-0.32 c 0.374,-0.16 0.587,-0.24 0.64,-0.24 l 0.12,-0.239 c -0.32,0 -0.48,-0.054 -0.48,-0.16 v -0.12 h -0.24 l -0.24,0.04 h -0.12 c -0.293,0 -0.507,-0.054 -0.64,-0.16 -0.213,0.16 -0.44,0.24 -0.68,0.24 -0.374,0 -0.627,-0.12 -0.76,-0.36 -0.107,-0.213 -0.093,-0.427 0.04,-0.64 0.4,-0.134 0.68,-0.28 0.84,-0.44 h 0.041 c 0.266,0 0.466,0.067 0.6,0.2 0.24,-0.187 0.48,-0.28 0.72,-0.28 h 0.12 l 0.16,0.04 v -0.04 c 0.16,-0.133 0.6,-0.373 1.32,-0.72 0.586,-0.267 1.013,-0.24 1.28,0.08 0.133,0.16 0.133,0.333 0,0.52 -0.134,0.16 -0.293,0.28 -0.48,0.36 l -0.36,0.16 c -0.187,0.106 -0.266,0.134 -0.24,0.08 l -0.08,0.08 c 0.054,0.054 0.054,0.12 0,0.2 0.347,0 0.533,0.066 0.56,0.199 0.053,0.054 0.066,0.12 0.04,0.2 h 0.04 c 0.267,0.08 0.4,0.24 0.4,0.48 l 0.2,-0.04 0.48,0.04 0.28,-0.04 0.56,-0.28 -0.12,-0.08 c -0.133,-0.08 -0.2,-0.187 -0.2,-0.319 0.08,-0.294 0.28,-0.534 0.6,-0.721 l -0.24,-0.04 c -0.427,-0.054 -0.626,-0.239 -0.6,-0.56 -0.32,-0.027 -0.347,-0.16 -0.08,-0.4 0.267,-0.213 0.8,-0.4 1.6,-0.56 l 0.52,-0.04 c 0.08,-0.187 0.333,-0.347 0.76,-0.48 h 0.04 c -0.213,-0.08 -0.28,-0.199 -0.2,-0.359 l -0.04,-0.04 -0.04,0.12 c -0.374,0.373 -0.813,0.493 -1.32,0.359 l -0.28,-0.04 c -0.187,0 -0.347,-0.066 -0.48,-0.2 -0.133,-0.133 -0.16,-0.293 -0.08,-0.479 l 0.2,-0.2 1.56,-0.28 0.16,0.04 c 0.134,0.027 0.253,0.12 0.36,0.28 0.106,-0.187 0.253,-0.32 0.44,-0.399 l -0.12,-0.08 c 0.827,-0.187 1.466,-0.347 1.92,-0.48 l 0.8,-0.24 c 0.08,0.106 0.08,0.24 0,0.4 l -0.12,0.12 c 0.479,-0.213 1.24,-0.347 2.279,-0.4 l 2.761,-0.2 c 0.56,-0.027 0.813,0.133 0.76,0.48 l 0.561,-0.08 c 0.613,0 1.239,-0.04 1.879,-0.12 0.348,0.133 0.801,0.32 1.36,0.56 0.613,0.24 1.347,0.467 2.2,0.681 2.267,0.56 3.92,1.227 4.96,2 l -0.16,0.08 0.4,0.08 0.079,0.04 0.081,0.08 c 0.105,0.133 -0.014,0.293 -0.36,0.479 -0.4,0.187 -0.787,0.267 -1.16,0.24 l -0.2,0.04 c -0.373,0 -0.6,0.014 -0.68,0.04 l -0.6,0.12 c 0.319,0.133 0.399,0.333 0.239,0.6 0.08,0.08 0.12,0.146 0.12,0.2 0.027,0.106 0,0.227 -0.08,0.359 l 0.2,-0.12 0.681,-0.199 0.159,-0.28 c 0.213,-0.293 0.533,-0.413 0.96,-0.36 0.294,-0.239 0.653,-0.359 1.08,-0.359 0.24,0 0.467,0.053 0.68,0.16 0.293,0.16 0.24,0.413 -0.16,0.76 -0.319,0.16 -0.626,0.239 -0.919,0.239 v 0.04 l -0.081,0.12 -0.039,0.2 c 0.16,-0.134 0.479,-0.267 0.96,-0.399 0.639,-0.058 0.892,0.023 0.76,0.235 z"
   id="path35"
   inkscape:connector-curvature="0" />
		<path
   style="clip-rule:evenodd;fill:#deb33a;fill-rule:evenodd"
   d="m 35.199,30.229 c 0.026,-0.24 0.347,-0.413 0.96,-0.52 0.613,-0.107 0.894,-0.054 0.84,0.159 -0.026,0.134 -0.133,0.268 -0.32,0.4 -0.453,0.24 -0.893,0.347 -1.319,0.32 -0.32,0 -0.387,-0.094 -0.2,-0.28 z"
   id="path37"
   inkscape:connector-curvature="0" />
	</g><path
     style="clip-rule:evenodd;fill:#ebc355;fill-rule:evenodd"
     d="m 12.439,28.75 c 0.48,1.173 0.641,1.88 0.48,2.119 -0.187,0.268 -0.613,0.348 -1.28,0.24 -0.32,-0.053 -0.546,-0.373 -0.68,-0.96 -0.106,-0.479 -0.134,-0.84 -0.08,-1.08 0.026,-0.159 0.213,-0.307 0.56,-0.439 0.401,-0.107 0.734,-0.067 1,0.12 z"
     id="path41"
     inkscape:connector-curvature="0" /><path
     style="clip-rule:evenodd;fill:#ebc355;fill-rule:evenodd"
     d="m 23.92,32.109 c 0.293,1.04 0.373,1.721 0.24,2.04 -0.053,0.214 -0.227,0.32 -0.52,0.32 -0.374,-0.026 -0.68,-0.04 -0.92,-0.04 -0.293,0 -0.546,-0.174 -0.76,-0.52 -0.213,-0.294 -0.32,-0.601 -0.32,-0.921 0,-0.718 0.759,-1.011 2.28,-0.879 z"
     id="path43"
     inkscape:connector-curvature="0" /><path
     style="clip-rule:evenodd;fill:#ebc355;fill-rule:evenodd"
     d="m 18.68,32.31 c 0.347,0.106 0.613,0.36 0.8,0.76 0.187,0.4 0.146,0.653 -0.12,0.761 -0.48,0.213 -1.093,-0.054 -1.84,-0.801 -0.293,-0.293 -0.28,-0.52 0.041,-0.68 0.319,-0.133 0.692,-0.147 1.119,-0.04 z"
     id="path45"
     inkscape:connector-curvature="0" /><path
     style="clip-rule:evenodd;fill:#ebc355;fill-rule:evenodd"
     d="m 15.76,30.27 c 0.4,0.08 0.667,0.28 0.8,0.6 0.16,0.32 0.053,0.561 -0.32,0.721 -0.32,0.16 -0.6,0.187 -0.84,0.08 -0.32,-0.214 -0.64,-0.4 -0.96,-0.561 -0.479,-0.24 -0.533,-0.479 -0.16,-0.72 0.373,-0.241 0.866,-0.281 1.48,-0.12 z"
     id="path47"
     inkscape:connector-curvature="0" /><path
     style="clip-rule:evenodd;fill:#ebc355;fill-rule:evenodd"
     d="m 30.039,32.91 c 0.268,-0.08 0.494,0.239 0.681,0.959 0.214,0.721 0.187,1.188 -0.08,1.4 -0.267,0.187 -0.467,0.293 -0.601,0.32 -0.079,0.026 -0.347,0.014 -0.8,-0.04 -0.64,-0.026 -0.96,-0.547 -0.96,-1.561 0,-0.319 0.12,-0.533 0.36,-0.64 0.187,-0.078 0.654,-0.225 1.4,-0.438 z"
     id="path49"
     inkscape:connector-curvature="0" /><path
     style="clip-rule:evenodd;fill:#ebc355;fill-rule:evenodd"
     d="m 25,34.83 c 0.293,-0.027 0.466,0.253 0.521,0.84 0.053,0.56 -0.067,0.88 -0.36,0.96 -0.48,0.159 -0.894,-0.04 -1.24,-0.601 -0.16,-0.213 -0.147,-0.453 0.04,-0.72 C 24.173,35.043 24.52,34.883 25,34.83 Z"
     id="path51"
     inkscape:connector-curvature="0" /><path
     style="clip-rule:evenodd;fill:#ebc355;fill-rule:evenodd"
     d="m 21.4,35.31 c 0.08,-0.026 0.2,0.12 0.36,0.44 0.16,0.319 0.2,0.533 0.12,0.64 -0.08,0.106 -0.173,0.146 -0.28,0.12 -0.16,-0.106 -0.333,-0.227 -0.52,-0.36 -0.454,-0.32 -0.347,-0.6 0.32,-0.84 z"
     id="path53"
     inkscape:connector-curvature="0" /><path
     style="clip-rule:evenodd;fill:#ebc355;fill-rule:evenodd"
     d="m 38.8,30.63 c 1.066,-0.187 1.387,0.493 0.96,2.04 -0.081,0.347 -0.187,0.56 -0.32,0.64 -0.054,0.054 -0.319,0.146 -0.8,0.28 -0.374,0.106 -0.641,-0.04 -0.801,-0.44 -0.079,-0.187 -0.173,-0.587 -0.279,-1.2 -0.053,-0.346 0.053,-0.64 0.319,-0.88 0.241,-0.214 0.547,-0.36 0.921,-0.44 z"
     id="path55"
     inkscape:connector-curvature="0" /><path
     style="clip-rule:evenodd;fill:#ebc355;fill-rule:evenodd"
     d="m 40.679,28.75 c 0.32,-0.188 0.587,-0.094 0.801,0.279 0.24,0.4 0.187,0.773 -0.16,1.12 -0.293,0.294 -0.52,0.387 -0.68,0.28 -0.214,-0.24 -0.44,-0.427 -0.68,-0.561 -0.32,-0.187 -0.36,-0.387 -0.121,-0.6 0.081,-0.079 0.36,-0.251 0.84,-0.518 z"
     id="path57"
     inkscape:connector-curvature="0" /><path
     style="clip-rule:evenodd;fill:#ebc355;fill-rule:evenodd"
     d="m 35.999,34.47 c 0.508,0.134 0.867,0.573 1.08,1.319 -1.439,0.374 -2.359,0.4 -2.76,0.08 -0.32,-0.239 -0.24,-0.56 0.24,-0.959 0.454,-0.4 0.933,-0.547 1.44,-0.44 z"
     id="path59"
     inkscape:connector-curvature="0" /><path
     style="clip-rule:evenodd;fill:#ebc355;fill-rule:evenodd"
     d="m 34.199,32.869 c 0.107,0.16 0.16,0.387 0.16,0.681 -0.026,0.373 -0.146,0.64 -0.36,0.8 -0.213,0.16 -0.399,0.2 -0.56,0.12 -0.054,-0.026 -0.187,-0.146 -0.4,-0.36 -0.16,-0.16 -0.066,-0.493 0.28,-1 0.321,-0.506 0.614,-0.587 0.88,-0.241 z"
     id="path61"
     inkscape:connector-curvature="0" /><path
     style="clip-rule:evenodd;fill:#ebc355;fill-rule:evenodd"
     d="m 32.72,36.51 c 0.373,0.053 0.666,0.279 0.88,0.68 0.187,0.4 0.04,0.653 -0.44,0.76 -0.453,0.107 -0.773,0.094 -0.96,-0.039 -0.187,-0.188 -0.347,-0.334 -0.479,-0.44 -0.187,-0.134 -0.134,-0.333 0.159,-0.601 0.266,-0.266 0.546,-0.388 0.84,-0.36 z"
     id="path63"
     inkscape:connector-curvature="0" /><path
     style="clip-rule:evenodd;fill:#deb33a;fill-rule:evenodd"
     d="m 29.96,30.989 c 0.239,0.08 0.479,0.24 0.72,0.48 0.213,0.267 0.24,0.453 0.08,0.56 -0.32,0.214 -0.867,0.134 -1.64,-0.24 -0.4,-0.213 -0.454,-0.426 -0.16,-0.64 0.267,-0.212 0.6,-0.266 1,-0.16 z"
     id="path65"
     inkscape:connector-curvature="0" /><path
     style="clip-rule:evenodd;fill:#ffe6a3;fill-rule:evenodd"
     d="m 23.92,32.109 c -0.72,0.267 -1.16,0.573 -1.32,0.92 l -0.479,1.04 c -0.241,-0.213 -0.4,-0.439 -0.48,-0.68 -0.106,-0.24 -0.16,-0.413 -0.16,-0.521 -0.053,-0.187 0,-0.346 0.16,-0.479 0.267,-0.24 0.707,-0.36 1.32,-0.36 z"
     id="path67"
     inkscape:connector-curvature="0" /><path
     style="clip-rule:evenodd;fill:#ffe6a3;fill-rule:evenodd"
     d="m 19.36,32.67 c -0.374,0 -0.667,0.08 -0.88,0.24 l -0.24,0.199 -0.36,0.16 c -0.16,0.16 -0.28,0.08 -0.36,-0.24 -0.053,-0.267 -0.053,-0.426 0,-0.479 0.054,-0.106 0.24,-0.16 0.56,-0.16 0.426,0 0.853,0.092 1.28,0.28 z"
     id="path69"
     inkscape:connector-curvature="0" /><path
     style="clip-rule:evenodd;fill:#ffe6a3;fill-rule:evenodd"
     d="m 16.28,30.47 c -0.48,0 -0.907,0.16 -1.28,0.479 l -0.24,0.16 c -0.4,0.134 -0.613,0.094 -0.64,-0.12 -0.133,-0.479 0.027,-0.772 0.48,-0.88 0.346,-0.08 0.906,0.04 1.68,0.361 z"
     id="path71"
     inkscape:connector-curvature="0" /><path
     style="clip-rule:evenodd;fill:#ffe6a3;fill-rule:evenodd"
     d="m 12.439,28.75 c -0.4,0.346 -0.68,0.56 -0.84,0.64 -0.106,0.054 -0.16,0.146 -0.16,0.28 0,0.08 0.014,0.187 0.041,0.319 0,0.106 -0.107,0.4 -0.32,0.88 -0.187,-0.64 -0.28,-1.039 -0.28,-1.199 v -0.601 l 0.2,-0.239 c 0.187,-0.188 0.4,-0.28 0.64,-0.28 0.4,0 0.64,0.066 0.719,0.2 z"
     id="path73"
     inkscape:connector-curvature="0" /><path
     style="clip-rule:evenodd;fill:#c28e25;fill-rule:evenodd"
     d="m 9.84,30.229 1.32,-0.08 c 0.986,0.026 1.693,0.2 2.12,0.521 0.48,0.399 0.626,0.854 0.44,1.359 -0.187,0.48 -0.52,0.787 -1,0.92 -0.64,0.16 -1.6,-0.746 -2.88,-2.72 z"
     id="path75"
     inkscape:connector-curvature="0" /><path
     style="clip-rule:evenodd;fill:#c28e25;fill-rule:evenodd"
     d="m 20.48,33.069 1.64,0.44 c 1.146,0.293 1.826,0.507 2.04,0.64 0.16,0.08 0.56,0.24 1.2,0.48 0.613,0.213 1.04,0.399 1.28,0.56 0.267,0.187 0.427,0.561 0.48,1.12 0.026,0.479 -0.027,0.894 -0.16,1.24 -0.081,0.267 -0.253,0.387 -0.521,0.36 -0.16,0 -0.506,-0.08 -1.04,-0.24 -0.347,-0.08 -0.693,-0.12 -1.04,-0.12 -0.374,0.026 -0.6,0.026 -0.681,0 -0.187,-0.026 -0.506,-0.32 -0.959,-0.88 -0.4,-0.561 -0.64,-0.947 -0.72,-1.16 -0.053,-0.16 -0.173,-0.24 -0.36,-0.24 l -0.24,0.04 c -0.107,0.026 -0.2,0.066 -0.28,0.12 -0.16,0.16 -0.173,0.4 -0.041,0.72 0.133,0.347 -0.04,0.507 -0.52,0.48 -0.454,-0.026 -0.84,-0.147 -1.16,-0.36 -0.187,-0.16 -0.6,-0.359 -1.24,-0.6 -0.693,-0.24 -1.12,-0.4 -1.28,-0.48 -0.187,-0.08 -0.347,-0.387 -0.48,-0.92 -0.187,-0.64 -0.307,-1 -0.36,-1.08 -0.106,-0.187 -0.253,-0.359 -0.44,-0.52 L 15.318,32.509 14,31.43 h 2.48 c 0.933,0 1.773,0.347 2.52,1.04 0.64,0.587 1.133,0.786 1.48,0.599 z"
     id="path77"
     inkscape:connector-curvature="0" /><path
     style="clip-rule:evenodd;fill:#b87e21;fill-rule:evenodd"
     d="m 29.68,34.35 0.28,0.48 c 0.213,0.346 0.333,0.666 0.36,0.959 0.026,0.428 0.159,0.761 0.399,1 0.133,0.134 0.267,0.348 0.4,0.641 0.159,0.373 0.227,0.666 0.2,0.88 -0.027,0.214 -0.241,0.319 -0.641,0.319 -0.347,0 -0.653,-0.066 -0.92,-0.199 l -0.681,-0.96 0.4,-0.601 L 29,36.51 c -0.188,-0.134 -0.374,-0.4 -0.561,-0.8 l -0.24,-0.601 h 0.48 z"
     id="path79"
     inkscape:connector-curvature="0" /><path
     style="clip-rule:evenodd;fill:#b87e21;fill-rule:evenodd"
     d="m 38.079,33.83 c 0.24,0.026 0.4,0.253 0.48,0.68 0.08,0.427 -0.08,0.746 -0.48,0.96 -0.506,0.16 -0.84,0.267 -1,0.319 0.08,0.348 0.067,0.587 -0.04,0.721 -0.187,0.373 -0.84,0.68 -1.96,0.92 -0.959,0.16 -1.76,0.106 -2.4,-0.16 -0.187,-0.08 -0.399,-0.28 -0.64,-0.6 l -0.319,-0.44 -0.2,-0.92 2.68,-0.8 c 0.214,-0.054 0.601,-0.187 1.16,-0.4 0.561,-0.187 1.066,-0.267 1.52,-0.24 0.399,0.026 0.799,0.013 1.199,-0.04 z"
     id="path81"
     inkscape:connector-curvature="0" /><path
     style="clip-rule:evenodd;fill:#b87e21;fill-rule:evenodd"
     d="m 39.72,31.029 2.319,-0.279 c 0.081,0.026 0.12,0.227 0.12,0.6 0,0.4 -0.213,0.693 -0.64,0.88 -0.399,0.16 -0.733,0.174 -1,0.04 -0.134,-0.106 -0.307,-0.347 -0.521,-0.72 z"
     id="path83"
     inkscape:connector-curvature="0" /><path
     style="clip-rule:evenodd;fill:#e68b00;fill-rule:evenodd"
     d="m 18.08,33.55 c 0.507,0.026 1.2,0.239 2.08,0.64 l 0.04,0.88 -3.08,0.08 c -0.693,0.026 -1.24,-0.066 -1.64,-0.28 L 15.08,34.551 15,33.35 l 0.16,-0.36 1.16,0.28 c 0.853,0.16 1.44,0.253 1.76,0.28 z"
     id="path85"
     inkscape:connector-curvature="0" /><path
     style="clip-rule:evenodd;fill:#e68b00;fill-rule:evenodd"
     d="M 20.839,34.35 C 20.546,34.163 20.4,33.897 20.4,33.55 l 0.08,-0.48 2.12,-0.04 c 0.453,-0.026 1.187,0.146 2.2,0.521 l 0.16,0.439 c -0.427,0.294 -1.16,0.561 -2.2,0.8 -0.64,0.16 -1.16,0.134 -1.56,-0.079 z"
     id="path87"
     inkscape:connector-curvature="0" /><path
     style="clip-rule:evenodd;fill:#e68b00;fill-rule:evenodd"
     d="m 28.12,34.71 1.56,-0.36 c 0.08,0.587 0.066,1 -0.04,1.24 -0.106,0.187 -0.28,0.307 -0.52,0.359 -0.268,0.027 -0.494,-0.026 -0.681,-0.16 -0.16,-0.106 -0.267,-0.319 -0.319,-0.64 z"
     id="path89"
     inkscape:connector-curvature="0" /><path
     style="clip-rule:evenodd;fill:#e68b00;fill-rule:evenodd"
     d="m 36.359,35.149 c 0.187,0 0.427,-0.026 0.72,-0.08 0.107,0 0.174,0.04 0.2,0.12 0.054,0.134 0.027,0.36 -0.08,0.68 -0.106,0.32 -0.239,0.534 -0.399,0.641 -0.293,0.213 -1.066,0.32 -2.32,0.32 -0.507,0 -1.027,-0.054 -1.56,-0.16 -0.454,-0.08 -0.721,-0.16 -0.8,-0.24 l -0.4,-0.2 -0.2,-0.92 z"
     id="path91"
     inkscape:connector-curvature="0" /><path
     style="clip-rule:evenodd;fill:#e68b00;fill-rule:evenodd"
     d="M 40.039,31.51 C 39.933,31.483 39.8,31.35 39.64,31.11 l -0.16,-0.359 2.199,-0.28 c 0.4,0 0.813,0.066 1.241,0.2 l 0.079,0.68 c -0.106,0.106 -0.359,0.213 -0.76,0.32 -0.719,0.159 -1.453,0.105 -2.2,-0.161 z"
     id="path93"
     inkscape:connector-curvature="0" /><path
     style="clip-rule:evenodd;fill:#e68b00;fill-rule:evenodd"
     d="m 40.879,33.67 -0.159,-0.84 0.64,0.159 0.12,0.12 c 0.054,0.107 0.066,0.254 0.04,0.44 -0.027,0.239 -0.12,0.36 -0.28,0.36 -0.134,-0.026 -0.254,-0.106 -0.361,-0.239 z"
     id="path95"
     inkscape:connector-curvature="0" /><path
     style="clip-rule:evenodd;fill:#ff9a00;fill-rule:evenodd"
     d="m 15.76,32.43 2.92,0.88 c 0.693,0.16 1.187,0.453 1.48,0.88 l -0.48,0.08 c -1.093,0.267 -2.374,0.174 -3.84,-0.28 -0.747,-0.239 -0.986,-0.573 -0.72,-1 0.133,-0.214 0.347,-0.4 0.64,-0.56 z"
     id="path97"
     inkscape:connector-curvature="0" /><path
     style="clip-rule:evenodd;fill:#ff9a00;fill-rule:evenodd"
     d="m 36.879,33.869 c 0.561,0.801 0.641,1.36 0.241,1.681 -0.428,0.373 -1.454,0.56 -3.081,0.56 -0.479,0 -1.04,-0.133 -1.68,-0.399 l -0.84,-0.4 c 0.453,-0.24 0.76,-0.373 0.92,-0.399 z"
     id="path99"
     inkscape:connector-curvature="0" /><path
     style="clip-rule:evenodd;fill:#ff9a00;fill-rule:evenodd"
     d="m 41.399,29.59 c 0.24,-0.027 0.6,0.12 1.08,0.439 0.48,0.32 0.627,0.533 0.44,0.641 -0.721,0.319 -1.308,0.453 -1.761,0.399 l -1.68,-0.319 0.68,-0.561 c 0.508,-0.373 0.921,-0.573 1.241,-0.599 z"
     id="path101"
     inkscape:connector-curvature="0" /><path
     style="clip-rule:evenodd;fill:#ff9a00;fill-rule:evenodd"
     d="m 41.76,32.43 c 0.079,0 0.106,0.174 0.079,0.52 -0.053,0.374 -0.16,0.574 -0.319,0.601 -0.24,0.106 -0.48,-0.04 -0.72,-0.44 -0.107,-0.187 -0.04,-0.347 0.199,-0.479 0.214,-0.136 0.467,-0.202 0.761,-0.202 z"
     id="path103"
     inkscape:connector-curvature="0" /><path
     style="clip-rule:evenodd;fill:#ff9a00;fill-rule:evenodd"
     d="m 29.56,34.149 c 0.16,0.72 -0.026,1.146 -0.56,1.28 -0.348,0.053 -0.561,0 -0.641,-0.16 -0.053,-0.267 -0.133,-0.453 -0.239,-0.56 -0.107,-0.106 0,-0.174 0.319,-0.2 0.507,-0.079 0.881,-0.199 1.121,-0.36 z"
     id="path105"
     inkscape:connector-curvature="0" /><path
     style="clip-rule:evenodd;fill:#ff9a00;fill-rule:evenodd"
     d="m 24.2,32.989 c 0.64,0.294 0.84,0.48 0.6,0.561 -0.854,0.373 -1.721,0.587 -2.6,0.64 -0.56,0.027 -1.053,-0.187 -1.48,-0.64 -0.24,-0.24 -0.32,-0.48 -0.24,-0.72 0.053,-0.268 0.293,-0.4 0.72,-0.4 0.56,0 1.56,0.186 3,0.559 z"
     id="path107"
     inkscape:connector-curvature="0" /><path
     style="clip-rule:evenodd;fill:#7a5822;fill-rule:evenodd"
     d="m 30.439,37.83 c -0.187,0.026 -0.467,-0.027 -0.84,-0.16 l -0.521,-0.2 c -0.106,-0.026 -0.159,-0.187 -0.159,-0.48 0,-0.187 0.2,-0.347 0.6,-0.479 0.4,-0.134 0.773,-0.174 1.12,-0.12 0.347,0.054 0.48,0.293 0.399,0.72 -0.052,0.425 -0.252,0.665 -0.599,0.719 z"
     id="path109"
     inkscape:connector-curvature="0" /><path
     style="clip-rule:evenodd;fill:#7a5822;fill-rule:evenodd"
     d="m 38.479,34.109 c -2.32,0.907 -4.014,1.36 -5.08,1.36 -0.373,0 -0.773,-0.054 -1.2,-0.16 -0.347,-0.054 -0.613,-0.066 -0.8,-0.04 -0.267,0.026 -0.466,-0.066 -0.6,-0.28 -0.134,-0.213 -0.174,-0.413 -0.12,-0.6 0.293,-0.56 1.546,-0.974 3.76,-1.24 0.934,-0.08 2.32,-0.239 4.16,-0.479 0.507,0.72 0.466,1.199 -0.12,1.439 z"
     id="path111"
     inkscape:connector-curvature="0" /><path
     style="clip-rule:evenodd;fill:#7a5822;fill-rule:evenodd"
     d="m 41.839,30.229 c -0.532,0.054 -0.879,0.08 -1.039,0.08 -0.293,0 -0.414,-0.146 -0.36,-0.44 0.106,-0.453 0.547,-0.68 1.32,-0.68 h 0.479 l 0.4,0.2 0.08,0.64 c -0.186,0.134 -0.48,0.2 -0.88,0.2 z"
     id="path113"
     inkscape:connector-curvature="0" /><path
     style="clip-rule:evenodd;fill:#996d2b;fill-rule:evenodd"
     d="m 33.12,32.83 c 1.492,-0.374 2.68,-0.561 3.559,-0.561 0.428,0 0.934,0.08 1.521,0.24 0.32,0.08 0.44,0.187 0.36,0.32 -0.16,0.187 -0.28,0.319 -0.36,0.399 -0.347,0.4 -1.413,0.813 -3.2,1.24 -0.826,0.187 -1.64,0.253 -2.439,0.2 -0.747,-0.107 -1.28,-0.16 -1.6,-0.16 -0.374,0.026 -0.334,-0.16 0.119,-0.561 0.241,-0.187 0.507,-0.387 0.8,-0.6 l 0.32,-0.2 c 0.292,-0.13 0.6,-0.237 0.92,-0.317 z"
     id="path115"
     inkscape:connector-curvature="0" /><path
     style="clip-rule:evenodd;fill:#996d2b;fill-rule:evenodd"
     d="m 41.879,28.67 c 0.187,-0.054 0.44,0.187 0.761,0.72 -0.587,0.373 -1.227,0.56 -1.92,0.56 -0.48,0 -0.547,-0.173 -0.2,-0.52 0.319,-0.373 0.772,-0.627 1.359,-0.76 z"
     id="path117"
     inkscape:connector-curvature="0" /><path
     style="clip-rule:evenodd;fill:#996d2b;fill-rule:evenodd"
     d="m 30.16,36.109 c 0.399,0.027 0.666,0.174 0.8,0.44 0.106,0.267 0.04,0.479 -0.2,0.64 -0.16,0.134 -0.32,0.174 -0.48,0.12 -0.346,-0.08 -0.653,-0.12 -0.92,-0.12 -0.507,0 -0.6,-0.187 -0.28,-0.56 0.293,-0.373 0.653,-0.546 1.08,-0.52 z"
     id="path119"
     inkscape:connector-curvature="0" /><path
     style="clip-rule:evenodd;fill:#996d2b;fill-rule:evenodd"
     d="m 30.279,26.27 c 0.613,0 1.187,0.134 1.721,0.4 0.56,0.267 0.772,0.506 0.64,0.72 -0.08,0.16 -0.28,0.253 -0.601,0.28 -0.56,0.026 -0.96,0.066 -1.199,0.119 -0.587,0.134 -1.054,0.2 -1.4,0.2 -0.4,0 -0.84,-0.079 -1.319,-0.239 -0.587,-0.214 -0.681,-0.507 -0.28,-0.88 0.425,-0.427 1.238,-0.627 2.438,-0.6 z"
     id="path121"
     inkscape:connector-curvature="0" /><path
     style="clip-rule:evenodd;fill:#996d2b;fill-rule:evenodd"
     d="m 29.6,28.71 c 0.32,0.026 0.547,0.106 0.68,0.239 0.107,0.16 0.041,0.307 -0.2,0.44 -0.239,0.134 -0.453,0.187 -0.64,0.16 -0.213,-0.106 -0.427,-0.2 -0.64,-0.28 -0.267,-0.106 -0.293,-0.24 -0.08,-0.4 0.214,-0.133 0.507,-0.186 0.88,-0.159 z"
     id="path123"
     inkscape:connector-curvature="0" /><path
     style="clip-rule:evenodd;fill:#996d2b;fill-rule:evenodd"
     d="m 22.04,23.069 c 0.613,-0.053 1.24,0.107 1.88,0.48 0.64,0.373 0.733,0.68 0.28,0.92 -0.4,0.213 -0.667,0.32 -0.8,0.32 -0.293,0.026 -0.666,0.053 -1.12,0.08 -0.559,0.053 -0.973,0.053 -1.24,0 -0.427,-0.107 -0.894,-0.214 -1.4,-0.32 -0.72,-0.16 -0.773,-0.427 -0.16,-0.8 0.613,-0.373 1.467,-0.6 2.56,-0.68 z"
     id="path125"
     inkscape:connector-curvature="0" /><path
     style="clip-rule:evenodd;fill:#996d2b;fill-rule:evenodd"
     d="m 30.359,24.11 c 0.507,0.026 0.801,0.106 0.88,0.239 0.054,0.08 -0.013,0.174 -0.2,0.28 -0.16,0.08 -0.319,0.12 -0.479,0.12 -0.026,0 -0.333,-0.054 -0.92,-0.16 -0.427,-0.08 -0.533,-0.187 -0.319,-0.32 0.212,-0.132 0.558,-0.186 1.038,-0.159 z"
     id="path127"
     inkscape:connector-curvature="0" /><path
     style="clip-rule:evenodd;fill:#996d2b;fill-rule:evenodd"
     d="m 30.479,21.79 c 0.8,0.027 1.146,0.187 1.04,0.48 -0.106,0.267 -0.427,0.4 -0.96,0.4 -0.48,0 -0.747,-0.146 -0.8,-0.44 -0.052,-0.32 0.187,-0.467 0.72,-0.44 z"
     id="path129"
     inkscape:connector-curvature="0" /><path
     style="clip-rule:evenodd;fill:#996d2b;fill-rule:evenodd"
     d="m 38.279,26.51 c 0.773,-0.08 1.134,0.12 1.08,0.6 -0.053,0.453 -0.333,0.84 -0.84,1.16 -0.88,0.587 -1.907,0.826 -3.08,0.72 -0.587,-0.053 -0.84,-0.279 -0.761,-0.68 0.107,-0.373 0.374,-0.64 0.801,-0.8 0.267,-0.106 0.613,-0.293 1.04,-0.561 0.48,-0.213 1.067,-0.359 1.76,-0.439 z"
     id="path131"
     inkscape:connector-curvature="0" /><path
     style="clip-rule:evenodd;fill:#996d2b;fill-rule:evenodd"
     d="m 20.36,27.869 c 0.506,0.027 0.947,0.32 1.319,0.881 0.374,0.586 0.254,0.906 -0.359,0.96 -0.533,0.053 -0.907,0.013 -1.12,-0.12 -0.56,-0.32 -0.854,-0.48 -0.88,-0.48 -0.56,-0.213 -0.707,-0.479 -0.44,-0.8 0.24,-0.347 0.733,-0.494 1.48,-0.441 z"
     id="path133"
     inkscape:connector-curvature="0" /><path
     style="clip-rule:evenodd;fill:#7a5822;fill-rule:evenodd"
     d="m 8.8,28.949 4.4,1.44 c 0.133,0.054 0.107,0.453 -0.08,1.2 -0.187,0.16 -0.52,0.293 -1,0.399 -0.506,0.08 -1.08,-0.053 -1.72,-0.399 C 10,31.429 9.72,31.295 9.56,31.189 9.293,31.029 9.053,30.75 8.84,30.349 8.653,29.976 8.587,29.629 8.64,29.309 Z"
     id="path135"
     inkscape:connector-curvature="0" /><path
     style="clip-rule:evenodd;fill:#996d2b;fill-rule:evenodd"
     d="m 11.96,29.069 c 0.24,0.08 0.653,0.521 1.24,1.32 0.107,0.134 0.054,0.267 -0.16,0.399 -0.213,0.107 -0.493,0.188 -0.84,0.24 -0.32,0.027 -0.573,0.014 -0.76,-0.04 -0.106,-0.026 -0.426,-0.187 -0.959,-0.479 -0.427,-0.24 -0.813,-0.521 -1.16,-0.84 C 9,29.35 8.827,29.109 8.8,28.949 c 0,-0.187 0.173,-0.333 0.52,-0.439 0.347,-0.16 0.72,-0.2 1.12,-0.12 0.32,0.08 0.6,0.2 0.84,0.36 0.293,0.16 0.52,0.267 0.68,0.319 z"
     id="path137"
     inkscape:connector-curvature="0" /><path
     style="clip-rule:evenodd;fill:#7a5822;fill-rule:evenodd"
     d="m 16.2,30.229 c 0.4,0.054 0.88,0.2 1.44,0.44 0.586,0.213 0.947,0.399 1.08,0.56 0.293,0.374 0.387,0.787 0.28,1.24 -0.053,0.16 -0.373,0.2 -0.96,0.12 -0.187,-0.027 -0.52,-0.134 -1,-0.32 -0.453,-0.187 -0.827,-0.307 -1.12,-0.359 -0.64,-0.107 -1.04,-0.174 -1.2,-0.2 -0.427,-0.134 -0.707,-0.334 -0.84,-0.601 -0.134,-0.293 0.093,-0.533 0.68,-0.72 0.56,-0.186 1.107,-0.24 1.64,-0.16 z"
     id="path139"
     inkscape:connector-curvature="0" /><path
     style="clip-rule:evenodd;fill:#996d2b;fill-rule:evenodd"
     d="m 18.72,31.229 c -0.773,0.24 -1.414,0.267 -1.92,0.08 -0.267,-0.106 -0.546,-0.173 -0.84,-0.2 -0.4,-0.053 -0.733,-0.12 -1,-0.199 l -1.08,-0.08 0.24,-0.28 c 0.187,-0.214 0.427,-0.32 0.72,-0.32 0.24,0 0.547,-0.026 0.92,-0.08 0.373,-0.054 0.747,-0.013 1.12,0.12 0.64,0.24 1.253,0.56 1.84,0.959 z"
     id="path141"
     inkscape:connector-curvature="0" /><path
     style="clip-rule:evenodd;fill:#7a5822;fill-rule:evenodd"
     d="m 23.879,37.109 c -0.293,-0.213 -0.52,-0.373 -0.68,-0.479 -0.427,-0.294 -0.667,-0.667 -0.72,-1.12 l 0.041,-0.8 0.879,0.159 1.08,-0.239 c 0.773,-0.134 1.32,-0.12 1.641,0.04 0.319,0.16 0.479,0.453 0.479,0.88 0.026,0.267 -0.014,0.52 -0.12,0.76 -0.026,0.054 -0.08,0.187 -0.159,0.4 -0.081,0.213 -0.188,0.373 -0.321,0.479 -0.133,0.134 -0.347,0.2 -0.64,0.2 -0.16,0 -0.427,-0.014 -0.8,-0.04 -0.212,-0.026 -0.439,-0.106 -0.68,-0.24 z"
     id="path143"
     inkscape:connector-curvature="0" /><path
     style="clip-rule:evenodd;fill:#996d2b;fill-rule:evenodd"
     d="m 24.16,36.149 c -0.187,-0.054 -0.453,-0.239 -0.8,-0.56 -0.374,-0.347 -0.626,-0.573 -0.76,-0.68 -0.16,-0.134 -0.12,-0.268 0.12,-0.4 0.16,-0.08 0.467,-0.227 0.92,-0.44 0.453,-0.267 0.773,-0.293 0.96,-0.08 l 0.92,0.2 c 0.719,0.373 0.987,0.8 0.8,1.28 -0.134,0.373 -0.414,0.653 -0.841,0.84 -0.187,0.08 -0.4,0.094 -0.64,0.04 -0.293,-0.079 -0.519,-0.146 -0.679,-0.2 z"
     id="path145"
     inkscape:connector-curvature="0" /><path
     style="clip-rule:evenodd;fill:#b3872b;fill-rule:evenodd"
     d="m 13.88,24.35 3.8,0.04 c 0.64,-0.026 1.04,0.106 1.2,0.4 0.133,0.293 0,0.533 -0.4,0.72 -0.054,0.026 -0.427,0.373 -1.12,1.04 -0.534,0.479 -1.08,0.64 -1.64,0.479 -0.587,-0.159 -1.387,-0.506 -2.4,-1.04 L 12,25.229 Z"
     id="path147"
     inkscape:connector-curvature="0" /><path
     style="clip-rule:evenodd;fill:#b3872b;fill-rule:evenodd"
     d="m 20.439,27.63 4,-1.16 c 1.36,-0.4 2.227,-0.587 2.6,-0.56 0.427,0.026 0.681,0.253 0.761,0.68 0.106,0.399 0,0.76 -0.32,1.08 -1.093,1.093 -2.04,1.693 -2.84,1.8 -0.506,0.08 -1.36,-0.2 -2.56,-0.84 z"
     id="path149"
     inkscape:connector-curvature="0" /><path
     style="clip-rule:evenodd;fill:#b3872b;fill-rule:evenodd"
     d="m 24.839,21.35 c 0.694,-0.026 1.667,0.107 2.92,0.4 1.227,0.293 1.773,0.507 1.64,0.64 -0.187,0.214 -0.453,0.414 -0.8,0.6 -0.479,0.214 -0.893,0.28 -1.24,0.2 l -3.8,-1 z"
     id="path151"
     inkscape:connector-curvature="0" /><path
     style="clip-rule:evenodd;fill:#b3872b;fill-rule:evenodd"
     d="m 37.8,24.35 c 0.586,0.267 0.986,0.587 1.199,0.96 0.188,0.32 0.2,0.561 0.04,0.721 -0.133,0.159 -0.573,0.293 -1.319,0.399 -0.8,0.106 -1.587,0.134 -2.36,0.08 -0.693,-0.054 -1.227,-0.28 -1.6,-0.68 l -0.4,-0.561 0.561,-0.92 1.479,-0.2 c 1.066,-0.08 1.866,-0.012 2.4,0.201 z"
     id="path153"
     inkscape:connector-curvature="0" /><path
     style="clip-rule:evenodd;fill:#e68b00;fill-rule:evenodd"
     d="m 12,25.229 -0.28,-0.52 3.16,-0.36 c 0.587,-0.106 1.6,-0.227 3.04,-0.36 l 0.12,0.521 -1.44,1.24 c -0.4,0.507 -0.813,0.72 -1.24,0.64 -0.374,-0.08 -0.907,-0.227 -1.6,-0.439 C 12.986,25.683 12.4,25.443 12,25.229 Z"
     id="path155"
     inkscape:connector-curvature="0" /><path
     style="clip-rule:evenodd;fill:#e68b00;fill-rule:evenodd"
     d="m 24.679,26.35 c 1.494,-0.479 2.333,-0.693 2.52,-0.64 0.188,0.08 0.147,0.373 -0.12,0.88 -0.239,0.453 -0.493,0.813 -0.759,1.08 -0.241,0.24 -0.601,0.506 -1.081,0.8 -0.506,0.319 -0.933,0.507 -1.279,0.56 -0.32,0.054 -0.934,-0.119 -1.84,-0.52 -0.694,-0.32 -1.254,-0.613 -1.681,-0.88 -0.186,-0.16 -0.333,-0.374 -0.44,-0.641 l -0.12,-0.359 0.959,0.24 c 0.721,0.133 1.268,0.199 1.64,0.199 z"
     id="path157"
     inkscape:connector-curvature="0" /><path
     style="clip-rule:evenodd;fill:#e68b00;fill-rule:evenodd"
     d="m 28.96,22.03 -1.36,0.64 -0.96,-0.12 c -1.92,-0.24 -2.947,-0.36 -3.08,-0.36 -0.133,0 -0.213,-0.12 -0.24,-0.359 v -0.36 l 2,-0.2 1,0.2 c 0.453,0.106 1.266,0.134 2.439,0.08 z"
     id="path159"
     inkscape:connector-curvature="0" /><path
     style="clip-rule:evenodd;fill:#e68b00;fill-rule:evenodd"
     d="m 33.359,25.27 -0.681,-1.159 3.641,-0.28 c 0.613,-0.026 1.307,0.173 2.08,0.6 0.427,0.24 0.427,0.587 0,1.04 l -0.721,0.28 c -0.159,0.054 -1.093,0.2 -2.8,0.439 -0.239,0.027 -0.479,-0.066 -0.72,-0.279 z"
     id="path161"
     inkscape:connector-curvature="0" /><path
     style="clip-rule:evenodd;fill:#e68b00;fill-rule:evenodd"
     d="m 25.879,30.63 2.241,0.52 c 0.133,0.106 0.159,0.227 0.079,0.36 -0.079,0.133 -0.199,0.213 -0.359,0.24 -0.106,0.026 -0.307,-0.014 -0.601,-0.12 -0.347,-0.16 -0.613,-0.254 -0.8,-0.28 -0.24,-0.054 -0.493,-0.174 -0.76,-0.36 l -0.28,-0.239 z"
     id="path163"
     inkscape:connector-curvature="0" /><path
     style="clip-rule:evenodd;fill:#ff9a00;fill-rule:evenodd"
     d="m 19.88,26.63 c 0.426,-0.106 1.36,-0.413 2.799,-0.92 1.387,-0.427 2.454,-0.613 3.2,-0.561 0.828,0.08 1.267,0.254 1.32,0.521 0.054,0.213 -0.133,0.467 -0.56,0.76 -0.561,0.533 -1.027,0.934 -1.4,1.2 -0.719,0.533 -1.36,0.746 -1.919,0.64 -0.56,-0.08 -1.293,-0.373 -2.2,-0.88 z"
     id="path165"
     inkscape:connector-curvature="0" /><path
     style="clip-rule:evenodd;fill:#ff9a00;fill-rule:evenodd"
     d="m 36.879,22.87 c 0.374,0.08 0.947,0.68 1.721,1.8 l -2.28,0.76 c -0.96,0.32 -1.667,0.36 -2.12,0.12 -0.427,-0.4 -0.826,-0.707 -1.2,-0.92 -0.666,-0.347 -0.6,-0.787 0.2,-1.32 0.826,-0.56 2.053,-0.706 3.679,-0.44 z"
     id="path167"
     inkscape:connector-curvature="0" /><path
     style="clip-rule:evenodd;fill:#ff9a00;fill-rule:evenodd"
     d="m 25.079,20.55 3.681,1 c -0.48,0.374 -1.094,0.561 -1.84,0.561 -1.2,0 -2.294,-0.147 -3.28,-0.44 -0.533,-0.133 -0.587,-0.333 -0.16,-0.6 0.427,-0.295 0.959,-0.467 1.599,-0.521 z"
     id="path169"
     inkscape:connector-curvature="0" /><path
     style="clip-rule:evenodd;fill:#ff9a00;fill-rule:evenodd"
     d="m 14.12,23.75 c 0.64,-0.267 1.907,-0.187 3.8,0.239 -0.959,0.534 -1.6,0.974 -1.919,1.32 -0.187,0.214 -0.693,0.24 -1.52,0.08 -1.041,-0.24 -1.8,-0.4 -2.28,-0.479 -0.586,-0.106 -0.693,-0.32 -0.32,-0.641 0.187,-0.159 0.427,-0.319 0.72,-0.479 l 0.36,0.16 c 0.319,0.053 0.706,-0.013 1.159,-0.2 z"
     id="path171"
     inkscape:connector-curvature="0" /><path
     style="clip-rule:evenodd;fill:#ff9a00;fill-rule:evenodd"
     d="m 26.64,30.55 c 0.533,0.106 0.946,0.227 1.239,0.36 0.374,0.159 0.414,0.307 0.121,0.439 -0.267,0.106 -0.561,0.12 -0.88,0.04 -0.4,-0.16 -0.773,-0.294 -1.121,-0.4 -0.534,-0.133 -0.72,-0.279 -0.56,-0.439 0.134,-0.134 0.534,-0.134 1.201,0 z"
     id="path173"
     inkscape:connector-curvature="0" /><path
     style="clip-rule:evenodd;fill:#ffb23d;fill-rule:evenodd"
     d="m 17,23.989 c 0.187,0.027 0.107,0.134 -0.24,0.32 -0.347,0.186 -0.707,0.32 -1.08,0.4 -0.373,0.08 -0.813,0.106 -1.32,0.08 -0.534,-0.054 -0.934,-0.146 -1.2,-0.28 -0.347,-0.134 0.24,-0.32 1.76,-0.56 0.16,-0.027 0.32,0.026 0.48,0.16 -0.613,0.133 -0.987,0.239 -1.12,0.319 -0.133,0.08 0.32,0.08 1.36,0 0.24,0.026 0.493,-0.04 0.76,-0.2 0.293,-0.159 0.493,-0.239 0.6,-0.239 z"
     id="path175"
     inkscape:connector-curvature="0" /><path
     style="clip-rule:evenodd;fill:#ffb23d;fill-rule:evenodd"
     d="m 24.72,25.63 c 0.453,0 0.773,0.106 0.959,0.32 0.187,0.16 0.2,0.333 0.041,0.52 -0.586,0.747 -1.387,1.16 -2.4,1.24 -0.72,0.026 -1.2,-0.147 -1.44,-0.521 -0.213,-0.373 -0.12,-0.666 0.28,-0.88 1.013,-0.453 1.866,-0.679 2.56,-0.679 z"
     id="path177"
     inkscape:connector-curvature="0" /><path
     style="clip-rule:evenodd;fill:#ffb23d;fill-rule:evenodd"
     d="m 35.96,23.189 c 0.453,0.027 0.853,0.2 1.199,0.521 0.348,0.32 0.467,0.573 0.36,0.76 -0.16,0.213 -0.907,0.347 -2.24,0.4 -0.453,0.053 -0.88,-0.066 -1.28,-0.36 -0.373,-0.267 -0.492,-0.507 -0.359,-0.72 0.213,-0.4 0.986,-0.601 2.32,-0.601 z"
     id="path179"
     inkscape:connector-curvature="0" /><path
     style="clip-rule:evenodd;fill:#ffb23d;fill-rule:evenodd"
     d="m 26.239,21.07 c 0.694,0.133 1.16,0.28 1.4,0.44 0.187,0.107 0.213,0.187 0.08,0.24 -0.054,0.053 -0.493,0.053 -1.32,0 -0.426,-0.027 -0.853,-0.094 -1.279,-0.2 -0.507,-0.133 -0.747,-0.267 -0.721,-0.4 0.08,-0.32 0.694,-0.347 1.84,-0.08 z"
     id="path181"
     inkscape:connector-curvature="0" /><path
     style="clip-rule:evenodd;fill:#ff9a00;fill-rule:evenodd"
     d="m 24.439,25.91 c 0.347,0.026 0.534,0.159 0.56,0.399 0.053,0.24 -0.053,0.427 -0.32,0.561 -0.853,0.426 -1.533,0.466 -2.04,0.119 -0.374,-0.239 -0.267,-0.493 0.32,-0.76 0.507,-0.24 1.001,-0.346 1.48,-0.319 z"
     id="path183"
     inkscape:connector-curvature="0" /><path
     style="clip-rule:evenodd;fill:#ff9a00;fill-rule:evenodd"
     d="m 36.279,23.51 c 0.427,0.08 0.6,0.24 0.521,0.479 -0.08,0.214 -0.254,0.334 -0.521,0.36 -0.293,0.026 -0.667,-0.013 -1.12,-0.12 -0.507,-0.133 -0.746,-0.267 -0.72,-0.399 0.053,-0.134 0.28,-0.24 0.681,-0.32 0.4,-0.054 0.786,-0.054 1.159,0 z"
     id="path185"
     inkscape:connector-curvature="0" /><path
     style="clip-rule:evenodd;fill:#ff9a00;fill-rule:evenodd"
     d="m 26.399,21.27 c 0.16,0.027 0.32,0.08 0.479,0.16 0.188,0.08 0.2,0.12 0.041,0.12 -0.907,0 -1.44,-0.093 -1.6,-0.28 -0.081,-0.106 -0.013,-0.146 0.2,-0.12 0.16,0 0.454,0.039 0.88,0.12 z"
     id="path187"
     inkscape:connector-curvature="0" /></g>
</svg>