<?xml version="1.0" encoding="UTF-8" standalone="no"?>
<!-- Generator: Adobe Illustrator 15.1.0, SVG Export Plug-In . SVG Version: 6.00 Build 0)  -->

<svg
   xmlns:dc="http://purl.org/dc/elements/1.1/"
   xmlns:cc="http://creativecommons.org/ns#"
   xmlns:rdf="http://www.w3.org/1999/02/22-rdf-syntax-ns#"
   xmlns:svg="http://www.w3.org/2000/svg"
   xmlns="http://www.w3.org/2000/svg"
   xmlns:xlink="http://www.w3.org/1999/xlink"
   xmlns:sodipodi="http://sodipodi.sourceforge.net/DTD/sodipodi-0.dtd"
   xmlns:inkscape="http://www.inkscape.org/namespaces/inkscape"
   version="1.1"
   id="flash0.ai"
   x="0px"
   y="0px"
   width="256"
   height="256"
   viewBox="0 0 256 255.99999"
   xml:space="preserve"
   sodipodi:docname="bun.svg"
   inkscape:version="0.92.4 (5da689c313, 2019-01-14)"
   inkscape:export-filename="C:\Users\antum\Development\game-resources\icon\CC0\food\individual\Glitch\32x32\bun.png"
   inkscape:export-xdpi="10.5"
   inkscape:export-ydpi="10.5"><title
   id="title1114">Bun</title><metadata
   id="metadata307"><rdf:RDF><cc:Work
       rdf:about=""><dc:format>image/svg+xml</dc:format><dc:type
         rdf:resource="http://purl.org/dc/dcmitype/StillImage" /><dc:title>Bun</dc:title><cc:license
         rdf:resource="http://creativecommons.org/publicdomain/zero/1.0/" /><dc:creator><cc:Agent><dc:title>Glitch</dc:title></cc:Agent></dc:creator><dc:source>https://opengameart.org/node/20149</dc:source></cc:Work><cc:License
       rdf:about="http://creativecommons.org/publicdomain/zero/1.0/"><cc:permits
         rdf:resource="http://creativecommons.org/ns#Reproduction" /><cc:permits
         rdf:resource="http://creativecommons.org/ns#Distribution" /><cc:permits
         rdf:resource="http://creativecommons.org/ns#DerivativeWorks" /></cc:License></rdf:RDF></metadata><defs
   id="defs305">
		
		
		
		
	<linearGradient
   inkscape:collect="always"
   xlink:href="#SVGID_19_"
   id="linearGradient1702"
   gradientUnits="userSpaceOnUse"
   gradientTransform="matrix(0.6462,-0.3807,0.3807,0.6462,3959.0615,2259.415)"
   x1="-2976.5439"
   y1="-5288.5039"
   x2="-2956.8423"
   y2="-5288.5039" /><linearGradient
   inkscape:collect="always"
   xlink:href="#SVGID_20_"
   id="linearGradient1704"
   gradientUnits="userSpaceOnUse"
   gradientTransform="matrix(0.1238,-0.7397,0.7397,0.1238,11158.228,920.7354)"
   x1="-1213.0908"
   y1="-14857.426"
   x2="-1202.0391"
   y2="-14857.426" /><linearGradient
   inkscape:collect="always"
   xlink:href="#SVGID_21_"
   id="linearGradient1706"
   gradientUnits="userSpaceOnUse"
   gradientTransform="matrix(-0.6364,-0.3969,0.3969,-0.6364,14562.46,-8092.604)"
   x1="10753.822"
   y1="-19387.469"
   x2="10772.06"
   y2="-19387.469" /><linearGradient
   inkscape:collect="always"
   xlink:href="#SVGID_22_"
   id="linearGradient1708"
   gradientUnits="userSpaceOnUse"
   gradientTransform="matrix(0.6012,-0.4484,0.4484,0.6012,4879.5933,2444.3027)"
   x1="-3234.3682"
   y1="-6509.0083"
   x2="-3225.1682"
   y2="-6509.0083" /><linearGradient
   inkscape:collect="always"
   xlink:href="#SVGID_23_"
   id="linearGradient1710"
   gradientUnits="userSpaceOnUse"
   gradientTransform="matrix(0.75,0,0,0.75,0,-0.0498)"
   x1="27.3843"
   y1="-23.291"
   x2="44.350399"
   y2="-23.291" /><linearGradient
   inkscape:collect="always"
   xlink:href="#SVGID_24_"
   id="linearGradient1712"
   gradientUnits="userSpaceOnUse"
   gradientTransform="matrix(0.75,0,0,0.75,0,-0.0498)"
   x1="33.725101"
   y1="-30.0874"
   x2="53.275101"
   y2="-30.0874" /></defs><sodipodi:namedview
   pagecolor="#ffffff"
   bordercolor="#666666"
   borderopacity="1"
   objecttolerance="10"
   gridtolerance="10"
   guidetolerance="10"
   inkscape:pageopacity="0"
   inkscape:pageshadow="2"
   inkscape:window-width="1920"
   inkscape:window-height="1025"
   id="namedview303"
   showgrid="false"
   inkscape:zoom="0.9346107"
   inkscape:cx="33.429453"
   inkscape:cy="-36.692626"
   inkscape:window-x="-8"
   inkscape:window-y="-8"
   inkscape:window-maximized="1"
   inkscape:current-layer="flash0.ai"
   fit-margin-top="0"
   fit-margin-left="0"
   fit-margin-right="0"
   fit-margin-bottom="0" />
<symbol
   id="bun4"
   viewBox="2.993 -34.318 51.889 30.9"
   transform="translate(102.79054,142.21221)">
	<g
   id="g296"
   style="display:inline">
			
				<linearGradient
   gradientTransform="matrix(0.6462,-0.3807,0.3807,0.6462,3959.0615,2259.415)"
   y2="-5288.5039"
   x2="-2956.8423"
   y1="-5288.5039"
   x1="-2976.5439"
   gradientUnits="userSpaceOnUse"
   id="SVGID_19_">
				<stop
   id="stop224"
   style="stop-color:#FDCB53"
   offset="0" />
				<stop
   id="stop226"
   style="stop-color:#D48801"
   offset="1" />
			</linearGradient>
			<path
   inkscape:connector-curvature="0"
   id="path229"
   d="m 32.1,-21.575 c 2.7,-1.949 4.15,-4.087 4.351,-6.412 0.175,-2 -0.85,-3.563 -3.075,-4.688 -1.425,-0.7 -3.275,-1.2 -5.55,-1.5 -2.375,-0.3 -4.488,-0.063 -6.338,0.713 -1.45,0.6 -2.425,1.337 -2.925,2.212 0.325,1.325 0.825,2.763 1.5,4.313 1.375,3.1 2.963,5.238 4.763,6.413 2.049,1.324 4.474,0.974 7.274,-1.051 z"
   style="clip-rule:evenodd;fill:url(#linearGradient1702);fill-rule:evenodd" />
			<path
   inkscape:connector-curvature="0"
   id="path231"
   d="m 35.7,-25.888 0.225,-0.225 c 0.275,-0.675 0.45,-1.3 0.525,-1.875 0.175,-2 -0.85,-3.563 -3.075,-4.688 -1.425,-0.7 -3.275,-1.2 -5.55,-1.5 -2.375,-0.3 -4.488,-0.063 -6.338,0.713 -1.45,0.6 -2.425,1.337 -2.925,2.212 0.3,1.225 0.763,2.575 1.388,4.05 1.274,2.926 2.737,5.025 4.388,6.301 0.399,0.149 0.612,0.149 0.637,0 0.025,-0.125 0.1,-0.563 0.226,-1.313 0.625,-2.076 0.387,-3.75 -0.713,-5.025 -0.55,-0.625 -1.162,-1.05 -1.837,-1.275 l -0.075,-0.524 c 0,-0.425 0.1,-0.8 0.3,-1.125 0.725,-1 2.45,-1.313 5.175,-0.938 3.05,0.4 5.238,1.388 6.563,2.962 0.673,0.801 1.036,1.551 1.086,2.25 z"
   style="clip-rule:evenodd;fill:#c98000;fill-rule:evenodd" />
			<path
   inkscape:connector-curvature="0"
   id="path233"
   d="m 36.45,-27.987 c 0.175,-2 -0.85,-3.563 -3.075,-4.688 -1.425,-0.7 -3.275,-1.2 -5.55,-1.5 -3.226,-0.425 -5.875,0.1 -7.95,1.575 3,-1.15 6.05,-1.375 9.15,-0.675 1.725,0.375 3.225,1.05 4.5,2.024 1.55,1.2 2.375,2.6 2.475,4.2 l 0.075,0.525 c 0.175,-0.424 0.3,-0.912 0.375,-1.461 z"
   style="clip-rule:evenodd;fill:#a86f0d;fill-rule:evenodd" />
			<path
   inkscape:connector-curvature="0"
   id="path235"
   d="m 14.4,-23.149 c 1.524,0.675 3.162,1.25 4.912,1.725 3.45,1 5.688,1.05 6.713,0.15 1.274,-1.125 1.075,-3.025 -0.601,-5.7 -1.7,-2.675 -3.587,-3.813 -5.662,-3.413 -3.525,0.7 -5.6,1.175 -6.226,1.426 -1.574,0.625 -2.35,1.688 -2.324,3.188 0.05,1.325 0.412,2.037 1.087,2.137 1.251,0.199 1.951,0.361 2.101,0.487 z"
   style="clip-rule:evenodd;fill:#ede2ad;fill-rule:evenodd" />
			
				<linearGradient
   gradientTransform="matrix(0.1238,-0.7397,0.7397,0.1238,11158.228,920.7354)"
   y2="-14857.426"
   x2="-1202.0391"
   y1="-14857.426"
   x1="-1213.0908"
   gradientUnits="userSpaceOnUse"
   id="SVGID_20_">
				<stop
   id="stop237"
   style="stop-color:#FDCB53"
   offset="0" />
				<stop
   id="stop239"
   style="stop-color:#D48801"
   offset="1" />
			</linearGradient>
			<path
   inkscape:connector-curvature="0"
   id="path242"
   d="m 11.025,-23.337 c 0.25,0.475 0.662,0.899 1.237,1.274 0.675,0.4 1.175,0.725 1.5,0.976 l 4.837,0.712 c 3.425,0.3 5.65,0 6.676,-0.899 1.225,-1.101 1.287,-2.738 0.188,-4.913 -1.125,-2.2 -2.875,-3.812 -5.25,-4.837 -2.25,-0.976 -4.476,-0.775 -6.676,0.6 -2.1,1.275 -3.125,2.825 -3.074,4.65 0.024,1.049 0.212,1.861 0.562,2.437 z"
   style="clip-rule:evenodd;fill:url(#linearGradient1704);fill-rule:evenodd" />
			
				<linearGradient
   gradientTransform="matrix(-0.6364,-0.3969,0.3969,-0.6364,14562.46,-8092.604)"
   y2="-19387.469"
   x2="10772.06"
   y1="-19387.469"
   x1="10753.822"
   gradientUnits="userSpaceOnUse"
   id="SVGID_21_">
				<stop
   id="stop244"
   style="stop-color:#D69211"
   offset="0" />
				<stop
   id="stop246"
   style="stop-color:#C98000"
   offset="1" />
			</linearGradient>
			<path
   inkscape:connector-curvature="0"
   id="path249"
   d="m 20.213,-31.024 c -2.25,-0.976 -4.476,-0.775 -6.676,0.6 -2.1,1.275 -3.125,2.825 -3.074,4.65 0,0.1 0.037,0.487 0.112,1.162 0.3,-3.025 2.312,-4.663 6.037,-4.912 2.275,-0.176 4.388,0.399 6.338,1.724 1.9,1.275 3,2.775 3.3,4.5 -0.075,-1.85 -0.913,-3.587 -2.513,-5.213 -1.15,-1.149 -2.325,-1.987 -3.524,-2.511 z"
   style="clip-rule:evenodd;fill:url(#linearGradient1706);fill-rule:evenodd" />
			<path
   inkscape:connector-curvature="0"
   id="path251"
   d="m 21.338,-15.649 c 0.774,-0.05 1.649,-0.963 2.625,-2.738 0.5,-0.875 0.912,-1.75 1.237,-2.625 0.25,-0.024 0.3,-0.1 0.149,-0.225 -0.275,-0.225 -1.387,-0.587 -3.337,-1.088 -2.5,-0.625 -4.838,-0.824 -7.013,-0.6 l -2.55,0.563 c -0.325,0.325 -0.5,0.775 -0.525,1.35 0,1.125 0.825,2.25 2.476,3.375 1.1,0.75 2.587,1.3 4.462,1.65 0.926,0.2 1.75,0.312 2.476,0.338 z"
   style="clip-rule:evenodd;fill:#ede2ad;fill-rule:evenodd" />
			
				<linearGradient
   gradientTransform="matrix(0.6012,-0.4484,0.4484,0.6012,4879.5933,2444.3027)"
   y2="-6509.0083"
   x2="-3225.1682"
   y1="-6509.0083"
   x1="-3234.3682"
   gradientUnits="userSpaceOnUse"
   id="SVGID_22_">
				<stop
   id="stop253"
   style="stop-color:#FDCB53"
   offset="0" />
				<stop
   id="stop255"
   style="stop-color:#D48801"
   offset="1" />
			</linearGradient>
			<path
   inkscape:connector-curvature="0"
   id="path258"
   d="m 20.963,-15.575 c 0.774,-0.024 2.1,-0.762 3.975,-2.212 0.95,-0.725 1.813,-1.45 2.588,-2.175 -0.625,-0.475 -2.5,-1.101 -5.625,-1.875 -2.5,-0.625 -4.95,-0.925 -7.351,-0.9 l -2.85,0.225 c -0.275,0.375 -0.388,0.863 -0.338,1.463 0.125,1.225 1.013,2.4 2.663,3.525 1.1,0.725 2.587,1.274 4.462,1.649 0.926,0.175 1.75,0.275 2.476,0.3 z"
   style="clip-rule:evenodd;fill:url(#linearGradient1708);fill-rule:evenodd" />
			<path
   inkscape:connector-curvature="0"
   id="path260"
   d="m 31.05,-17.188 c -1.55,-0.175 -2.737,-0.55 -3.563,-1.125 -0.825,-0.6 -1.5,-1.288 -2.024,-2.063 C 25.188,-20.75 25,-21.075 24.9,-21.35 c -1.525,1.15 -2.725,2.188 -3.601,3.112 -0.75,0.825 -1.037,1.525 -0.862,2.1 0.25,0.7 1.25,1.25 3,1.65 2.575,0.6 4.962,0.338 7.162,-0.787 1.101,-0.55 1.938,-1.163 2.513,-1.838 -0.599,0.026 -1.287,0.001 -2.062,-0.075 z"
   style="clip-rule:evenodd;fill:#ede2ad;fill-rule:evenodd" />
			
				<linearGradient
   gradientTransform="matrix(0.75,0,0,0.75,0,-0.0498)"
   y2="-23.291"
   x2="44.350399"
   y1="-23.291"
   x1="27.3843"
   gradientUnits="userSpaceOnUse"
   id="SVGID_23_">
				<stop
   id="stop262"
   style="stop-color:#FDCB53"
   offset="0" />
				<stop
   id="stop264"
   style="stop-color:#D48801"
   offset="1" />
			</linearGradient>
			<path
   inkscape:connector-curvature="0"
   id="path267"
   d="m 31.2,-16.774 c -1.55,-0.175 -2.737,-0.55 -3.563,-1.125 -0.825,-0.601 -1.463,-1.338 -1.913,-2.213 -0.225,-0.45 -0.375,-0.837 -0.449,-1.162 -1.675,1.375 -2.95,2.525 -3.825,3.449 -0.75,0.825 -1.037,1.525 -0.862,2.1 0.25,0.7 1.25,1.25 3,1.649 2.575,0.601 4.962,0.338 7.162,-0.787 1.1,-0.55 1.938,-1.162 2.513,-1.838 -0.601,0.026 -1.288,0.001 -2.063,-0.073 z"
   style="clip-rule:evenodd;fill:url(#linearGradient1710);fill-rule:evenodd" />
			<path
   inkscape:connector-curvature="0"
   id="path269"
   d="m 33.825,-16.774 c 2.125,-0.925 3.7,-2.688 4.725,-5.288 0.775,-2.024 0.738,-3.487 -0.112,-4.388 l -1.5,-0.75 c 0.1,0.85 0.037,1.75 -0.188,2.7 -0.45,1.85 -1.475,2.95 -3.075,3.3 -2.5,0.55 -4.712,0.738 -6.638,0.563 L 24.9,-21.05 c -0.05,0.35 0.037,0.763 0.262,1.237 0.4,1 1.225,1.875 2.476,2.625 2.05,1.201 4.112,1.338 6.187,0.414 z"
   style="clip-rule:evenodd;fill:#ede2ad;fill-rule:evenodd" />
			
				<linearGradient
   gradientTransform="matrix(0.75,0,0,0.75,0,-0.0498)"
   y2="-30.0874"
   x2="53.275101"
   y1="-30.0874"
   x1="33.725101"
   gradientUnits="userSpaceOnUse"
   id="SVGID_24_">
				<stop
   id="stop271"
   style="stop-color:#FDCB53"
   offset="0" />
				<stop
   id="stop273"
   style="stop-color:#D48801"
   offset="1" />
			</linearGradient>
			<path
   inkscape:connector-curvature="0"
   id="path276"
   d="m 34.5,-16.625 c 2.35,-0.75 4.025,-2.399 5.025,-4.95 0.774,-2 0.487,-3.837 -0.863,-5.512 -0.675,-0.85 -1.437,-1.488 -2.287,-1.913 -0.075,0.75 -0.288,1.6 -0.638,2.55 -0.7,1.875 -1.75,3.238 -3.149,4.088 -1.95,1.175 -3.75,1.712 -5.4,1.612 l -1.912,-0.524 c -0.05,0.35 0.037,0.762 0.262,1.237 0.4,1 1.225,1.862 2.476,2.587 2.098,1.275 4.261,1.55 6.486,0.825 z"
   style="clip-rule:evenodd;fill:url(#linearGradient1712);fill-rule:evenodd" />
			<path
   inkscape:connector-curvature="0"
   id="path278"
   d="m 36.375,-29 c -0.075,0.825 -0.3,1.726 -0.675,2.7 1.274,0.525 2.15,1.337 2.625,2.438 0.625,1.55 0.437,3.25 -0.563,5.1 0.725,-0.774 1.313,-1.712 1.763,-2.813 0.774,-2 0.487,-3.837 -0.863,-5.512 -0.675,-0.85 -1.437,-1.488 -2.287,-1.913 z"
   style="clip-rule:evenodd;fill:#c98000;fill-rule:evenodd" />
			<path
   inkscape:connector-curvature="0"
   id="path280"
   d="m 39.787,-22.325 c 0.45,-1.8 0.013,-3.449 -1.313,-4.949 -0.65,-0.75 -1.35,-1.326 -2.1,-1.726 -0.05,0.525 -0.188,1.138 -0.412,1.838 0.375,0 0.824,0.137 1.35,0.412 0.7,0.4 1.325,1.013 1.875,1.838 0.351,0.524 0.55,1.388 0.6,2.587 z"
   style="clip-rule:evenodd;fill:#a86f0d;fill-rule:evenodd" />
			<path
   inkscape:connector-curvature="0"
   id="path282"
   d="m 33.412,-22.438 c 0.7,-0.55 1.288,-1.288 1.763,-2.212 0.475,-0.925 0.713,-1.763 0.713,-2.513 -0.025,0.775 -0.388,1.675 -1.088,2.7 -0.65,1 -1.288,1.674 -1.912,2.024 -2.15,1.15 -4.063,1.688 -5.737,1.612 l -1.875,-0.449 C 25,-21.4 24.875,-21.35 24.9,-21.125 c 1.299,0.65 2.725,0.838 4.274,0.563 1.501,-0.225 2.913,-0.85 4.238,-1.876 z"
   style="clip-rule:evenodd;fill:#ede2ad;fill-rule:evenodd" />
			<path
   inkscape:connector-curvature="0"
   id="path284"
   d="m 25.088,-20.712 c 0.425,0.05 0.787,0.062 1.087,0.037 0.325,-0.025 0.413,-0.075 0.263,-0.15 -0.426,-0.175 -0.613,-0.4 -0.563,-0.675 0,-0.125 -0.087,-0.149 -0.263,-0.075 -0.35,0.15 -0.85,0.125 -1.5,-0.074 l -0.243,-0.094 c 0.199,0.095 0.368,0.251 0.506,0.469 l 0.263,0.412 c 0.075,0 0.224,0.05 0.45,0.15 z"
   style="clip-rule:evenodd;fill:#ede2ad;fill-rule:evenodd" />
			<path
   inkscape:connector-curvature="0"
   id="path286"
   d="m 17.7,-17.337 c 0.7,0.074 1.075,-0.125 1.125,-0.601 0.025,-0.5 -0.413,-0.737 -1.313,-0.712 -0.55,0.024 -0.75,0.237 -0.601,0.637 0.127,0.401 0.389,0.626 0.789,0.676 z"
   style="clip-rule:evenodd;fill:#ede2ad;fill-rule:evenodd" />
			<path
   inkscape:connector-curvature="0"
   id="path288"
   d="m 27.45,-14.899 c 0.825,-0.15 1.025,-0.4 0.6,-0.75 -0.425,-0.351 -0.875,-0.425 -1.35,-0.226 -0.4,0.15 -0.475,0.363 -0.226,0.638 0.276,0.275 0.601,0.387 0.976,0.338 z"
   style="clip-rule:evenodd;fill:#ede2ad;fill-rule:evenodd" />
			<path
   inkscape:connector-curvature="0"
   id="path290"
   d="m 35.662,-18.237 c 0.7,-0.175 0.875,-0.462 0.525,-0.862 -0.35,-0.375 -0.737,-0.325 -1.162,0.149 -0.226,0.25 -0.275,0.45 -0.15,0.601 0.1,0.174 0.362,0.212 0.787,0.112 z"
   style="clip-rule:evenodd;fill:#ede2ad;fill-rule:evenodd" />
			<path
   inkscape:connector-curvature="0"
   id="path292"
   d="m 30.45,-19.325 c 0.825,0.05 1.187,-0.162 1.087,-0.637 -0.1,-0.5 -0.549,-0.601 -1.35,-0.301 -0.375,0.15 -0.538,0.338 -0.487,0.563 0.05,0.225 0.3,0.35 0.75,0.375 z"
   style="clip-rule:evenodd;fill:#ede2ad;fill-rule:evenodd" />
			<path
   inkscape:connector-curvature="0"
   id="path294"
   d="m 23.662,-23.487 c 0.5,-0.125 0.638,-0.388 0.413,-0.787 -0.226,-0.4 -0.601,-0.638 -1.125,-0.713 -0.5,-0.05 -0.813,-0.013 -0.938,0.112 -0.125,0.125 -0.138,0.363 -0.038,0.713 0.075,0.275 0.325,0.475 0.75,0.6 0.376,0.125 0.689,0.15 0.938,0.075 z"
   style="clip-rule:evenodd;fill:#ede2ad;fill-rule:evenodd" />
		</g>
</symbol>
<use
   xlink:href="#bun4"
   width="51.889"
   height="30.9"
   x="2.993"
   y="-34.318001"
   transform="matrix(8.6788637,0,0,-8.6788637,-982.89654,1153.6006)"
   style="overflow:visible"
   id="use300" />
</svg>