<?xml version="1.0" encoding="UTF-8" standalone="no"?>
<!-- Generator: Adobe Illustrator 15.1.0, SVG Export Plug-In . SVG Version: 6.00 Build 0)  -->

<svg
   xmlns:dc="http://purl.org/dc/elements/1.1/"
   xmlns:cc="http://creativecommons.org/ns#"
   xmlns:rdf="http://www.w3.org/1999/02/22-rdf-syntax-ns#"
   xmlns:svg="http://www.w3.org/2000/svg"
   xmlns="http://www.w3.org/2000/svg"
   xmlns:xlink="http://www.w3.org/1999/xlink"
   xmlns:sodipodi="http://sodipodi.sourceforge.net/DTD/sodipodi-0.dtd"
   xmlns:inkscape="http://www.inkscape.org/namespaces/inkscape"
   version="1.1"
   id="flash0.ai"
   x="0px"
   y="0px"
   width="256"
   height="256"
   viewBox="0 0 256 256"
   xml:space="preserve"
   sodipodi:docname="carpaccio.svg"
   inkscape:version="0.92.4 (5da689c313, 2019-01-14)"><title
   id="title1764">Carpaccio</title><metadata
   id="metadata957"><rdf:RDF><cc:Work
       rdf:about=""><dc:format>image/svg+xml</dc:format><dc:type
         rdf:resource="http://purl.org/dc/dcmitype/StillImage" /><dc:title>Carpaccio</dc:title><cc:license
         rdf:resource="http://creativecommons.org/publicdomain/zero/1.0/" /><dc:creator><cc:Agent><dc:title>Glitch</dc:title></cc:Agent></dc:creator><dc:source>https://opengameart.org/node/20149</dc:source></cc:Work><cc:License
       rdf:about="http://creativecommons.org/publicdomain/zero/1.0/"><cc:permits
         rdf:resource="http://creativecommons.org/ns#Reproduction" /><cc:permits
         rdf:resource="http://creativecommons.org/ns#Distribution" /><cc:permits
         rdf:resource="http://creativecommons.org/ns#DerivativeWorks" /></cc:License></rdf:RDF></metadata><defs
   id="defs955"><linearGradient
     inkscape:collect="always"
     xlink:href="#SVGID_1_"
     id="linearGradient1575"
     gradientUnits="userSpaceOnUse"
     x1="0"
     y1="-6.2217002"
     x2="37.649799"
     y2="-6.2217002" /></defs><sodipodi:namedview
   pagecolor="#ffffff"
   bordercolor="#666666"
   borderopacity="1"
   objecttolerance="10"
   gridtolerance="10"
   guidetolerance="10"
   inkscape:pageopacity="0"
   inkscape:pageshadow="2"
   inkscape:window-width="1920"
   inkscape:window-height="1025"
   id="namedview953"
   showgrid="false"
   inkscape:zoom="1.9035692"
   inkscape:cx="225.00174"
   inkscape:cy="70.890417"
   inkscape:window-x="-8"
   inkscape:window-y="-8"
   inkscape:window-maximized="1"
   inkscape:current-layer="flash0.ai"
   fit-margin-top="0"
   fit-margin-left="0"
   fit-margin-right="0"
   fit-margin-bottom="0" />
<symbol
   id="flash0.ai_x5F_2_x2F_Layer_19_copy_x2F__x3C_Group_x3E_"
   viewBox="0 -12.407 37.15 12.407"
   transform="translate(-19.558832,220.45725)">
	<g
   id="Layer_1_20_">
		<g
   id="g14">
			
				<use
   xlink:href="#flash0.ai_x5F_2_x2F_Layer_19_copy_x2F__x3C_Path_x3E__x5F_5_x5F_0"
   width="10.126"
   height="10.1"
   x="0.023"
   y="-10.1"
   transform="translate(33.158932,-220.55735)"
   style="overflow:visible;opacity:0.66019999;enable-background:new"
   id="use2" />
			
				<use
   xlink:href="#flash0.ai_x5F_2_x2F_Layer_19_copy_x2F__x3C_Path_x3E__x5F_4"
   width="13.978"
   height="7.1500001"
   x="0.025"
   y="-7.1500001"
   transform="translate(19.858632,-220.45725)"
   style="overflow:visible;opacity:0.66019999;enable-background:new"
   id="use4" />
			
				<use
   xlink:href="#flash0.ai_x5F_2_x2F_Layer_19_copy_x2F__x3C_Path_x3E__x5F_3_x5F_0"
   width="5.8449998"
   height="7.25"
   x="0.02"
   y="-7.25"
   transform="translate(43.009032,-222.80735)"
   style="overflow:visible;opacity:0.66019999;enable-background:new"
   id="use6" />
			
				<use
   xlink:href="#flash0.ai_x5F_2_x2F_Layer_19_copy_x2F__x3C_Path_x3E__x5F_2_x5F_0"
   width="15.75"
   height="8.9569998"
   y="-8.9569998"
   transform="translate(40.958732,-223.90745)"
   style="overflow:visible;opacity:0.66019999;enable-background:new"
   id="use8"
   x="0" />
			
				<use
   xlink:href="#flash0.ai_x5F_2_x2F_Layer_19_copy_x2F__x3C_Path_x3E__x5F_1_x5F_0"
   width="20.950001"
   height="7.7329998"
   y="-7.7329998"
   transform="translate(19.558832,-221.50705)"
   style="overflow:visible;opacity:0.66019999;enable-background:new"
   id="use10"
   x="0" />
			
				<use
   xlink:href="#flash0.ai_x5F_2_x2F_Layer_19_copy_x2F__x3C_Path_x3E_"
   width="14.753"
   height="7.8720002"
   x="-0.003"
   y="-7.8720002"
   transform="translate(32.108632,-223.95725)"
   style="overflow:visible;opacity:0.66019999;enable-background:new"
   id="use12" />
		</g>
	</g>
</symbol>
<symbol
   id="flash0.ai_x5F_2_x2F_Layer_19_copy_x2F__x3C_Path_x3E_"
   viewBox="-0.003 -7.872 14.753 7.872"
   transform="translate(-19.558832,220.45725)">
	<g
   id="Layer_1_13_">
		<path
   style="clip-rule:evenodd;fill:#8f3b00;fill-rule:evenodd"
   d="M 13.95,-0.85 9.3,-3.5 C 6.467,-5.267 4.667,-6.35 3.9,-6.75 2.733,-7.35 1.65,-7.717 0.65,-7.85 0.183,-7.917 -0.033,-7.833 0,-7.6 h 0.4 c 1,0.133 2.083,0.5 3.25,1.1 0.767,0.4 2.567,1.483 5.4,3.25 L 14.75,0 Z"
   id="path18"
   inkscape:connector-curvature="0" />
	</g>
</symbol>
<symbol
   id="flash0.ai_x5F_2_x2F_Layer_19_copy_x2F__x3C_Path_x3E__x5F_0"
   viewBox="0 -7.95 8.464 7.956"
   transform="translate(-19.558832,220.45725)">
	<g
   id="Layer_1_15_">
		<path
   style="clip-rule:evenodd;fill:#4f2316;fill-rule:evenodd"
   d="M 5.1,-0.05 5.7,0 C 5.667,-0.1 5.533,-0.233 5.3,-0.4 5.1,-0.567 5.45,-0.733 6.35,-0.9 l 0.6,-0.3 C 7.15,-1.3 7.133,-1.6 6.9,-2.1 6.833,-2.233 6.883,-2.317 7.05,-2.35 c 0.1,0 0.25,0.017 0.45,0.05 0.267,0 0.55,-0.2 0.85,-0.6 C 8.483,-3.067 8.5,-3.183 8.4,-3.25 8.267,-3.283 8.183,-3.3 8.15,-3.3 8.183,-3.6 8.117,-3.767 7.95,-3.8 7.883,-3.833 7.867,-3.917 7.9,-4.05 c 0,-0.067 0.017,-0.167 0.05,-0.3 l 0.1,-0.7 c -0.033,-0.167 -0.2,-0.434 -0.5,-0.8 -0.066,-0.2 -0.066,-0.35 0,-0.45 0.034,-0.067 0.1,-0.133 0.2,-0.2 0,-0.033 -0.067,-0.15 -0.2,-0.35 C 7.517,-6.95 7.333,-7 7,-7 6.933,-7.033 6.867,-7.1 6.8,-7.2 6.733,-7.367 6.65,-7.483 6.55,-7.55 6.45,-7.65 6.25,-7.734 5.95,-7.8 5.717,-7.9 5.533,-7.933 5.4,-7.9 L 4.9,-7.7 C 4.8,-7.666 4.717,-7.7 4.65,-7.8 4.617,-7.833 4.6,-7.883 4.6,-7.95 4.467,-7.917 4.317,-7.833 4.15,-7.7 4.083,-7.633 3.933,-7.6 3.7,-7.6 3.4,-7.7 3.2,-7.717 3.1,-7.65 L 2.7,-7.4 C 2.6,-7.333 2.517,-7.317 2.45,-7.35 L 2.4,-7.4 C 2.4,-7.233 2.367,-7.1 2.3,-7 2.267,-6.967 2.283,-6.783 2.35,-6.45 2.35,-6.35 2.3,-6.2 2.2,-6 2.067,-5.8 2,-5.667 2,-5.6 2,-5.5 1.883,-5.383 1.65,-5.25 1.25,-5.15 1.033,-5.05 1,-4.95 0.967,-4.917 0.817,-4.8 0.55,-4.6 0.383,-4.433 0.283,-4.25 0.25,-4.05 L 0,-3.5 c 0.067,0.033 0.217,0.017 0.45,-0.05 0.9,1.633 1.55,2.533 1.95,2.7 0.167,0.067 0.5,0.233 1,0.5 0.4,0.267 0.667,0.383 0.8,0.35 0.267,0 0.283,-0.083 0.05,-0.25 z"
   id="path22"
   inkscape:connector-curvature="0" />
	</g>
</symbol>
<symbol
   id="flash0.ai_x5F_2_x2F_Layer_19_copy_x2F__x3C_Path_x3E__x5F_1"
   viewBox="0.01 -3.802 7.602 3.792"
   transform="translate(-19.558832,220.45725)">
	<g
   id="Layer_1_6_">
		<path
   style="clip-rule:evenodd;fill:#c94e29;fill-rule:evenodd"
   d="m 7.05,-0.45 c 0.5,-0.167 0.667,-0.3 0.5,-0.4 -0.8,-0.533 -1.617,-1.233 -2.45,-2.1 -0.567,-0.6 -1,-0.883 -1.3,-0.85 -0.233,0.033 -0.733,0.317 -1.5,0.85 -0.633,0.467 -1.117,0.833 -1.45,1.1 -0.4,0.233 -0.65,0.417 -0.75,0.55 -0.2,0.233 -0.067,0.466 0.4,0.7 0.533,0.233 1.333,0.4 2.4,0.5 1,0.1 1.817,0.117 2.45,0.05 0.633,-0.067 1.2,-0.2 1.7,-0.4 z"
   id="path26"
   inkscape:connector-curvature="0" />
	</g>
</symbol>
<symbol
   id="flash0.ai_x5F_2_x2F_Layer_19_copy_x2F__x3C_Path_x3E__x5F_1_x5F_0"
   viewBox="0 -7.733 20.95 7.733"
   transform="translate(-19.558832,220.45725)">
	<g
   id="Layer_1_12_">
		<path
   style="clip-rule:evenodd;fill:#8f3b00;fill-rule:evenodd"
   d="M 18.8,-1.35 C 17.267,-2.017 16.333,-2.367 16,-2.4 15.3,-2.5 14.717,-2.6 14.25,-2.7 13.45,-2.867 12.767,-3.166 12.2,-3.6 10.5,-4.867 8.767,-5.8 7,-6.4 6.4,-6.6 5.217,-6.817 3.45,-7.05 1.817,-7.25 0.967,-7.367 0.9,-7.4 0.8,-7.467 0.683,-7.567 0.55,-7.7 0.45,-7.767 0.333,-7.733 0.2,-7.6 L 0,-7.35 c 0.133,-0.1 0.25,-0.117 0.35,-0.05 0.1,0.1 0.2,0.183 0.3,0.25 0.067,0.033 0.917,0.15 2.55,0.35 1.767,0.2 2.95,0.417 3.55,0.65 1.633,0.566 3.367,1.5 5.2,2.8 0.566,0.434 1.25,0.733 2.05,0.9 0.033,0.034 0.617,0.133 1.75,0.3 0.633,0.1 2.367,0.816 5.2,2.15 z"
   id="path30"
   inkscape:connector-curvature="0" />
	</g>
</symbol>
<symbol
   id="flash0.ai_x5F_2_x2F_Layer_19_copy_x2F__x3C_Path_x3E__x5F_1_x5F_1"
   viewBox="0 -10.073 13.65 10.073"
   transform="translate(-19.558832,220.45725)">
	<g
   id="Layer_1_14_">
		<path
   style="clip-rule:evenodd;fill:#4f2316;fill-rule:evenodd"
   d="m 12.85,-1.85 0.2,-0.3 c 0.2,-0.167 0.383,-0.383 0.55,-0.65 0.066,-0.1 0.066,-0.15 0,-0.15 H 13.45 C 13.317,-3.117 13.2,-3.183 13.1,-3.15 l -0.2,0.05 -0.05,-0.5 c 0,-0.1 -0.117,-0.15 -0.35,-0.15 l -0.75,-0.3 c -0.233,-0.2 -0.367,-0.3 -0.4,-0.3 -0.1,-0.1 -0.117,-0.267 -0.05,-0.5 0,-0.1 -0.083,-0.117 -0.25,-0.05 l -0.1,-0.3 c 0,-0.133 -0.117,-0.117 -0.35,0.05 -0.1,0.066 -0.167,0.083 -0.2,0.05 0,-0.1 -0.017,-0.167 -0.05,-0.2 -0.033,-0.067 -0.1,-0.05 -0.2,0.05 -0.033,0.033 -0.183,0 -0.45,-0.1 C 9.633,-5.383 9.583,-5.517 9.55,-5.75 9.45,-6.083 9.35,-6.283 9.25,-6.35 9.183,-6.383 9.083,-6.467 8.95,-6.6 L 8.75,-7.2 C 8.683,-7.033 8.617,-6.95 8.55,-6.95 8.417,-6.983 8.267,-7.183 8.1,-7.55 7.933,-7.917 7.683,-8.167 7.35,-8.3 7.183,-8.4 7.083,-8.467 7.05,-8.5 7.017,-8.567 6.95,-8.7 6.85,-8.9 6.75,-9.1 6.683,-9.2 6.65,-9.2 6.583,-9.167 6.5,-9.15 6.4,-9.15 c -0.066,-0.033 -0.1,0 -0.1,0.1 0.034,0.1 0.05,0.183 0.05,0.25 0,0.1 -0.217,0 -0.65,-0.3 C 5.5,-9.233 5.367,-9.4 5.3,-9.6 5.267,-9.7 5.25,-9.833 5.25,-10 5.217,-10.133 5.2,-10.083 5.2,-9.85 5.2,-9.583 5.117,-9.4 4.95,-9.3 4.65,-9.1 4.467,-9.117 4.4,-9.35 4.334,-9.583 3.983,-9.617 3.35,-9.45 3.283,-9.417 3.233,-9.333 3.2,-9.2 3.167,-9.033 3.117,-8.917 3.05,-8.85 2.883,-8.683 2.733,-8.733 2.6,-9 l -0.1,0.35 c -0.1,0.233 -0.183,0.3 -0.25,0.2 -0.067,-0.133 -0.067,-0.333 0,-0.6 l -0.3,0.2 c -0.067,0.067 -0.183,0.083 -0.35,0.05 -0.133,0 -0.25,0.033 -0.35,0.1 l -0.3,0.3 c -0.1,0.2 0.117,0.467 0.65,0.8 0.3,0.167 0.367,0.383 0.2,0.65 0,0.067 -0.1,0.1 -0.3,0.1 -0.1,-0.033 -0.183,0 -0.25,0.1 l -0.2,0.3 C 0.983,-6.383 0.9,-6.367 0.8,-6.4 c -0.066,0 -0.1,0.017 -0.1,0.05 0.133,0.133 0.183,0.3 0.15,0.5 -0.033,0.1 -0.1,0.133 -0.2,0.1 -0.066,-0.033 -0.1,-0.017 -0.1,0.05 0.133,0.4 0.183,0.65 0.15,0.75 -0.167,0.033 -0.267,0.117 -0.3,0.25 -0.067,0.1 -0.05,0.2 0.05,0.3 0.2,-0.2 0.3,-0.217 0.3,-0.05 l 0.05,0.6 c -0.533,-0.033 -0.8,0 -0.8,0.1 0.2,0.367 0.317,0.567 0.35,0.6 0.066,0.033 0.15,0.2 0.25,0.5 0.133,0.233 0.283,0.35 0.45,0.35 0.167,-0.034 0.3,0.017 0.4,0.15 0.067,0.133 0.15,0.267 0.25,0.4 0.033,0.067 0.083,0.083 0.15,0.05 0.067,-0.033 0.117,-0.05 0.15,-0.05 0.067,0 0.167,0.083 0.3,0.25 0.167,0.1 0.284,0.217 0.35,0.35 0.067,0.1 0.1,0.217 0.1,0.35 0,0.066 0.017,0.083 0.05,0.05 0.133,-0.2 0.383,-0.15 0.75,0.15 0.2,0.1 0.333,0.15 0.4,0.15 0.066,0 0.133,0.117 0.2,0.35 L 4.2,-0.2 C 4.266,-0.3 4.333,-0.333 4.4,-0.3 4.5,-0.233 4.617,-0.133 4.75,0 4.95,0 5.1,-0.217 5.2,-0.65 5.233,-0.817 5.317,-1 5.45,-1.2 5.483,-1.3 5.6,-1.367 5.8,-1.4 l 0.35,-0.35 c 0.067,-0.067 0.2,-0.1 0.4,-0.1 L 7,-1.65 c 0.1,0.1 0.3,0.117 0.6,0.05 H 8.4 C 8.667,-1.733 8.817,-1.8 8.85,-1.8 L 9.2,-2.15 c 0.066,-0.033 0.183,0 0.35,0.1 0.067,0.033 0.15,0 0.25,-0.1 0.033,-0.033 0.117,0.017 0.25,0.15 0.1,0.033 0.184,0.1 0.25,0.2 0.067,-0.067 0.184,-0.067 0.35,0 0.1,0.1 0.167,0.15 0.2,0.15 L 11,-1.7 c 0.067,0 0.133,0.05 0.2,0.15 l 0.35,0.05 c 0.1,0.033 0.117,0.1 0.05,0.2 l 0.25,-0.1 c 0.066,-0.033 0.25,-0.017 0.55,0.05 0.067,0.033 0.217,-0.133 0.45,-0.5 z"
   id="path34"
   inkscape:connector-curvature="0" />
	</g>
</symbol>
<symbol
   id="flash0.ai_x5F_2_x2F_Layer_19_copy_x2F__x3C_Path_x3E__x5F_1_x5F_2"
   viewBox="0 -4.9 2.4 4.9"
   transform="translate(-19.558832,220.45725)">
	<g
   id="Layer_1_19_">
		<path
   style="clip-rule:evenodd;fill:#ed6f64;fill-rule:evenodd"
   d="m 1.1,0 0.1,-0.2 c 0,-0.267 0.183,-0.483 0.55,-0.65 0.233,-0.1 0.45,-0.1 0.65,0 C 2.333,-1.317 2.217,-1.733 2.05,-2.1 L 0.8,-4.9 0,-4.3 c 0,0.167 0.1,0.517 0.3,1.05 0.2,0.533 0.417,1.6 0.65,3.2 z"
   id="path38"
   inkscape:connector-curvature="0" />
	</g>
</symbol>
<symbol
   id="flash0.ai_x5F_2_x2F_Layer_19_copy_x2F__x3C_Path_x3E__x5F_2"
   viewBox="0 -12.409 37.65 12.376"
   transform="translate(-19.558832,220.45725)">
	<g
   id="Layer_1_7_">
		<linearGradient
   id="SVGID_1_"
   gradientUnits="userSpaceOnUse"
   x1="0"
   y1="-6.2217002"
   x2="37.649799"
   y2="-6.2217002">
			<stop
   offset="0"
   style="stop-color:#FFC142"
   id="stop42" />
			<stop
   offset="1"
   style="stop-color:#EBAD13"
   id="stop44" />
		</linearGradient>
		<path
   style="clip-rule:evenodd;fill:url(#linearGradient1575);fill-rule:evenodd"
   d="M 31.35,-7.6 C 29.917,-8.9 28.8,-9.717 28,-10.05 c -0.667,-0.233 -1.95,-0.483 -3.85,-0.75 -0.733,-0.1 -1.217,-0.35 -1.45,-0.75 -0.067,-0.633 -0.2,-0.917 -0.4,-0.85 -0.3,0.1 -0.433,0.25 -0.4,0.45 -0.033,0.233 -0.05,0.434 -0.05,0.6 0.066,0.367 0.3,0.733 0.7,1.1 0.633,0.567 1.4,1.567 2.3,3 0.867,1.033 1.933,2.2 3.2,3.5 L 22.35,-7 c -2.833,-1.767 -4.633,-2.85 -5.4,-3.25 -1.167,-0.6 -2.25,-0.967 -3.25,-1.1 -0.434,-0.066 -0.65,-0.033 -0.65,0.1 -0.033,0.167 0.133,0.6 0.5,1.3 0.5,0.833 1.467,2.333 2.9,4.5 0.733,1.034 1.75,1.967 3.05,2.8 l 2.2,1.35 C 18.867,-2.633 17.133,-3.35 16.5,-3.45 15.367,-3.617 14.783,-3.717 14.75,-3.75 13.95,-3.917 13.267,-4.217 12.7,-4.65 10.867,-5.95 9.133,-6.883 7.5,-7.45 6.9,-7.683 5.717,-7.9 3.95,-8.1 2.317,-8.3 1.467,-8.417 1.4,-8.45 1.3,-8.516 1.183,-8.617 1.05,-8.75 0.95,-8.817 0.834,-8.783 0.7,-8.65 c -0.233,0.2 -0.417,0.467 -0.55,0.8 -0.2,0.434 -0.2,0.817 0,1.15 0.167,0.233 0.483,0.45 0.95,0.65 0.033,0.033 0.9,0.35 2.6,0.95 0.667,0.233 1.417,0.517 2.25,0.85 0.367,0.133 0.717,0.233 1.05,0.3 0.333,0.067 0.567,0.2 0.7,0.4 0.267,0.333 0.5,0.583 0.7,0.75 0.467,0.367 1.934,1.117 4.4,2.25 1.267,0.566 1.934,0.667 2,0.3 0.034,-0.167 -0.25,-0.367 -0.85,-0.6 C 13.217,-1.117 12.733,-1.3 12.5,-1.4 10.2,-2.267 8.883,-2.85 8.55,-3.15 7.984,-3.95 7.584,-4.417 7.35,-4.55 5.183,-5.183 3.733,-5.7 3,-6.1 2.633,-6.3 2.1,-6.583 1.4,-6.95 0.933,-7.217 0.95,-7.367 1.45,-7.4 c 0.8,-0.033 2,0.1 3.6,0.4 2.033,0.4 3.583,0.917 4.65,1.55 0.566,0.333 1.45,0.883 2.65,1.65 0.667,0.4 1.183,0.683 1.55,0.85 0.4,0.133 0.767,0.2 1.1,0.2 0.467,0 0.817,0.033 1.05,0.1 0.633,0.133 1.4,0.433 2.3,0.9 0.933,0.333 2.15,0.7 3.65,1.1 0.367,0.1 0.883,0.267 1.55,0.5 0.5,0.133 0.733,0.083 0.7,-0.15 -0.033,-0.2 -0.917,-0.917 -2.65,-2.15 -1.967,-1.4 -3,-2.15 -3.1,-2.25 -0.4,-0.367 -1.15,-1.417 -2.25,-3.15 -0.167,-0.233 -0.6,-0.8 -1.3,-1.7 -0.467,-0.567 -0.65,-0.867 -0.55,-0.9 0.3,-0.066 1.733,0.7 4.3,2.3 0.566,0.367 1.45,0.85 2.65,1.45 1.167,0.633 1.967,1.083 2.4,1.35 0.5,0.3 1.3,0.733 2.4,1.3 1.1,0.533 1.783,0.883 2.05,1.05 0.6,0.367 0.95,0.567 1.05,0.6 0.267,0.133 0.45,0.05 0.55,-0.25 0.067,-0.233 -0.1,-0.583 -0.5,-1.05 -0.5,-0.533 -0.85,-0.917 -1.05,-1.15 -0.933,-1.367 -1.683,-2.367 -2.25,-3 -0.633,-0.633 -1.067,-1.066 -1.3,-1.3 -0.4,-0.434 -0.55,-0.667 -0.45,-0.7 0.233,-0.1 0.917,0 2.05,0.3 1.333,0.4 2.35,0.917 3.05,1.55 0.6,0.6 1.2,1.067 1.8,1.4 1.033,0.567 1.667,0.934 1.9,1.1 0.667,0.433 1.267,0.767 1.8,1 0.5,0.233 0.833,0.4 1,0.5 0.566,0.4 1,0.6 1.3,0.6 0.3,0 0.467,-0.1 0.5,-0.3 -0.633,-0.3 -1.167,-0.617 -1.6,-0.95 -0.1,-0.067 -0.8,-0.483 -2.1,-1.25 -1.233,-0.7 -2.1,-1.267 -2.6,-1.7 z"
   id="path47"
   inkscape:connector-curvature="0" />
	</g>
</symbol>
<symbol
   id="flash0.ai_x5F_2_x2F_Layer_19_copy_x2F__x3C_Path_x3E__x5F_2_x5F_0"
   viewBox="0 -8.957 15.75 8.957"
   transform="translate(-19.558832,220.45725)">
	<g
   id="Layer_1_11_">
		<path
   style="clip-rule:evenodd;fill:#8f3b00;fill-rule:evenodd"
   d="m 15.5,0 c 0.167,-0.067 0.25,-0.15 0.25,-0.25 -0.633,-0.3 -1.167,-0.617 -1.6,-0.95 -0.1,-0.066 -0.8,-0.483 -2.1,-1.25 C 10.817,-3.117 9.967,-3.667 9.5,-4.1 8.033,-5.433 6.9,-6.267 6.1,-6.6 5.433,-6.833 4.15,-7.083 2.25,-7.35 1.583,-7.45 1.1,-7.7 0.8,-8.1 0.767,-8.167 0.717,-8.367 0.65,-8.7 0.617,-8.9 0.533,-8.983 0.4,-8.95 0.133,-8.85 0,-8.75 0,-8.65 L 0.15,-8.7 c 0.1,-0.033 0.184,0.05 0.25,0.25 0.067,0.333 0.117,0.534 0.15,0.6 0.233,0.4 0.717,0.65 1.45,0.75 1.9,0.267 3.183,0.517 3.85,0.75 0.8,0.333 1.917,1.15 3.35,2.45 0.5,0.433 1.367,1 2.6,1.7 1.3,0.767 2,1.184 2.1,1.25 0.433,0.333 0.967,0.65 1.6,0.95 z"
   id="path51"
   inkscape:connector-curvature="0" />
	</g>
</symbol>
<symbol
   id="flash0.ai_x5F_2_x2F_Layer_19_copy_x2F__x3C_Path_x3E__x5F_2_x5F_1"
   viewBox="0.02 -5.406 4.53 5.406"
   transform="translate(-19.558832,220.45725)">
	<g
   id="Layer_1_18_">
		<path
   style="clip-rule:evenodd;fill:#f0665b;fill-rule:evenodd"
   d="M 0.1,-3.75 C -0.033,-3.65 0,-3.2 0.2,-2.4 0.4,-1.6 0.533,-0.8 0.6,0 0.967,-0.933 1.533,-1.583 2.3,-1.95 3.3,-2.416 4.05,-2.5 4.55,-2.2 3.85,-3.667 3.167,-4.617 2.5,-5.05 1.967,-5.417 1.467,-5.5 1,-5.3 0.467,-5.067 0.183,-4.517 0.15,-3.65 Z"
   id="path55"
   inkscape:connector-curvature="0" />
	</g>
</symbol>
<symbol
   id="flash0.ai_x5F_2_x2F_Layer_19_copy_x2F__x3C_Path_x3E__x5F_3"
   viewBox="-0.031 -3.138 9.184 3.145"
   transform="translate(-19.558832,220.45725)">
	<g
   id="Layer_1_5_">
		<path
   style="clip-rule:evenodd;fill:#c94e29;fill-rule:evenodd"
   d="m 0.05,-2.9 c -0.3,0.2 0.233,0.733 1.6,1.6 1.433,0.933 2.733,1.367 3.9,1.3 2.467,-0.2 3.667,-0.733 3.6,-1.6 C 9.083,-2.2 7.633,-2.65 4.8,-2.95 2.033,-3.217 0.45,-3.2 0.05,-2.9 Z"
   id="path59"
   inkscape:connector-curvature="0" />
	</g>
</symbol>
<symbol
   id="flash0.ai_x5F_2_x2F_Layer_19_copy_x2F__x3C_Path_x3E__x5F_3_x5F_0"
   viewBox="0.02 -7.25 5.845 7.25"
   transform="translate(-19.558832,220.45725)">
	<g
   id="Layer_1_10_">
		<path
   style="clip-rule:evenodd;fill:#8f3b00;fill-rule:evenodd"
   d="M 5.6,-0.05 5.55,0 c 0.1,0 0.2,-0.1 0.3,-0.3 C 5.917,-0.533 5.767,-0.883 5.4,-1.35 4.9,-1.883 4.55,-2.267 4.35,-2.5 3.416,-3.833 2.65,-4.817 2.05,-5.45 c -0.433,-0.466 -1,-1.066 -1.7,-1.8 h -0.3 c -0.1,0.033 0.05,0.267 0.45,0.7 0.567,0.533 1,0.966 1.3,1.3 0.567,0.633 1.317,1.633 2.25,3 0.2,0.233 0.55,0.617 1.05,1.15 0.4,0.467 0.567,0.817 0.5,1.05 z"
   id="path63"
   inkscape:connector-curvature="0" />
	</g>
</symbol>
<symbol
   id="flash0.ai_x5F_2_x2F_Layer_19_copy_x2F__x3C_Path_x3E__x5F_3_x5F_1"
   viewBox="0.042 -2.279 3.562 2.262"
   transform="translate(-19.558832,220.45725)">
	<g
   id="Layer_1_17_">
		<path
   style="clip-rule:evenodd;fill:#ed6f64;fill-rule:evenodd"
   d="m 3.2,-2.25 c -0.4,-0.067 -0.733,-0.017 -1,0.15 -0.4,0.167 -0.7,0.317 -0.9,0.45 -0.367,0.233 -0.65,0.5 -0.85,0.8 -0.133,0.233 -0.267,0.45 -0.4,0.65 -0.033,0.067 0.034,0.117 0.2,0.15 0.333,0.066 0.683,0.033 1.05,-0.1 0.367,-0.1 0.7,-0.25 1,-0.45 L 2.2,-0.85 2.8,-1.2 c 0.434,-0.3 0.684,-0.517 0.75,-0.65 0.133,-0.167 0.017,-0.3 -0.35,-0.4 z"
   id="path67"
   inkscape:connector-curvature="0" />
	</g>
</symbol>
<symbol
   id="flash0.ai_x5F_2_x2F_Layer_19_copy_x2F__x3C_Path_x3E__x5F_4"
   viewBox="0.025 -7.15 13.978 7.15"
   transform="translate(-19.558832,220.45725)">
	<g
   id="Layer_1_9_">
		<path
   style="clip-rule:evenodd;fill:#8f3b00;fill-rule:evenodd"
   d="m 11.45,-1.15 c 0.233,0.1 0.716,0.283 1.45,0.55 0.6,0.233 0.883,0.434 0.85,0.6 C 13.917,-0.067 14,-0.15 14,-0.25 14.033,-0.417 13.75,-0.617 13.15,-0.85 12.417,-1.117 11.933,-1.3 11.7,-1.4 9.4,-2.267 8.083,-2.85 7.75,-3.15 7.183,-3.95 6.783,-4.417 6.55,-4.55 4.383,-5.183 2.933,-5.7 2.2,-6.1 1.733,-6.367 1.117,-6.717 0.35,-7.15 c -0.434,0.033 -0.434,0.183 0,0.45 0.7,0.367 1.233,0.65 1.6,0.85 0.733,0.4 2.183,0.917 4.35,1.55 0.233,0.133 0.633,0.6 1.2,1.4 0.333,0.3 1.65,0.883 3.95,1.75 z"
   id="path71"
   inkscape:connector-curvature="0" />
	</g>
</symbol>
<symbol
   id="flash0.ai_x5F_2_x2F_Layer_19_copy_x2F__x3C_Path_x3E__x5F_5"
   viewBox="0.012 -3.851 10.103 3.841"
   transform="translate(-19.558832,220.45725)">
	<g
   id="Layer_1_4_">
		<path
   style="clip-rule:evenodd;fill:#c94e29;fill-rule:evenodd"
   d="M 1.3,-0.05 C 2.7,0.017 4.417,0 6.45,-0.1 9.05,-0.267 10.266,-0.567 10.1,-1 9.8,-1.6 9.233,-2.183 8.4,-2.75 7.333,-3.45 6.2,-3.817 5,-3.85 c -1.8,-0.033 -3.4,0.9 -4.8,2.8 -0.233,0.367 -0.25,0.617 -0.05,0.75 0.167,0.133 0.55,0.217 1.15,0.25 z"
   id="path75"
   inkscape:connector-curvature="0" />
	</g>
</symbol>
<symbol
   id="flash0.ai_x5F_2_x2F_Layer_19_copy_x2F__x3C_Path_x3E__x5F_5_x5F_0"
   viewBox="0.023 -10.1 10.126 10.1"
   transform="translate(-19.558832,220.45725)">
	<g
   id="Layer_1_8_">
		<path
   style="clip-rule:evenodd;fill:#8f3b00;fill-rule:evenodd"
   d="m 7.2,-2.15 c 1.7,1.2 2.583,1.917 2.65,2.15 0.2,0 0.3,-0.067 0.3,-0.2 C 10.117,-0.4 9.233,-1.117 7.5,-2.35 5.533,-3.75 4.5,-4.5 4.4,-4.6 4.333,-4.7 3.583,-5.733 2.15,-7.7 1.817,-8.2 1.25,-8.95 0.45,-9.95 l -0.4,-0.15 c -0.1,0.033 0.083,0.333 0.55,0.9 0.7,0.9 1.133,1.467 1.3,1.7 1.1,1.733 1.85,2.783 2.25,3.15 0.133,0.133 1.15,0.867 3.05,2.2 z"
   id="path79"
   inkscape:connector-curvature="0" />
	</g>
</symbol>
<symbol
   id="flash0.ai_x5F_2_x2F_Layer_19_copy_x2F__x3C_Path_x3E__x5F_6"
   viewBox="0 -4.106 10.45 4.106"
   transform="translate(-19.558832,220.45725)">
	<g
   id="Layer_1_16_">
		<path
   style="clip-rule:evenodd;fill-rule:evenodd"
   d="M 0,-1.95 0.5,0 c 4.7,-0.1 7.617,-0.317 8.75,-0.65 0.767,-0.267 1.167,-0.7 1.2,-1.3 C 10.45,-2.517 10.2,-3 9.7,-3.4 9.2,-3.8 8.833,-4.017 8.6,-4.05 8.233,-4.15 7.617,-4.117 6.75,-3.95 5.517,-3.75 4.783,-3.233 4.55,-2.4 4.317,-2.5 3.767,-2.583 2.9,-2.65 2.067,-2.717 1.483,-2.533 1.15,-2.1 Z"
   id="path83"
   inkscape:connector-curvature="0" />
	</g>
</symbol>
<symbol
   id="flash0.ai_x5F_2_x2F_Layer_19_copy_x2F__x3C_Path_x3E__x5F_7"
   viewBox="-0.056 -4.683 8.556 4.69"
   transform="translate(-19.558832,220.45725)">
	<g
   id="Layer_1_3_">
		<path
   style="clip-rule:evenodd;fill:#c94e29;fill-rule:evenodd"
   d="m 8.4,-0.65 c 0.133,-0.467 0.133,-1.233 0,-2.3 C 8.3,-3.85 8,-4.383 7.5,-4.55 7.133,-4.683 5.95,-4.717 3.95,-4.65 c -1.667,0.066 -2.833,0.4 -3.5,1 -0.6,0.566 -0.667,1.017 -0.2,1.35 0.333,0.267 1.467,0.7 3.4,1.3 1.567,0.5 2.667,0.817 3.3,0.95 0.767,0.167 1.25,-0.033 1.45,-0.6 z"
   id="path87"
   inkscape:connector-curvature="0" />
	</g>
</symbol>
<symbol
   id="flash0.ai_x5F_2_x2F_Layer_19_copy_x2F__x3C_Path_x3E__x5F_9"
   viewBox="-0.055 -4.302 11.793 4.307"
   transform="translate(-19.558832,220.45725)">
	<g
   id="Layer_1_2_">
		<path
   style="clip-rule:evenodd;fill:#c94e29;fill-rule:evenodd"
   d="m 6.7,-0.1 c 0.5,-0.066 1.083,-0.267 1.75,-0.6 0.433,-0.2 1.3,-0.617 2.6,-1.25 1.133,-0.533 0.867,-1.066 -0.8,-1.6 C 8.683,-4.05 6.8,-4.3 4.6,-4.3 2.667,-4.333 1.317,-4.05 0.55,-3.45 c -0.733,0.534 -0.8,1.167 -0.2,1.9 0.533,0.667 1.483,1.117 2.85,1.35 1.2,0.233 2.367,0.267 3.5,0.1 z"
   id="path91"
   inkscape:connector-curvature="0" />
	</g>
</symbol>

<g
   id="g948"
   transform="matrix(6.2842067,0,0,6.2842067,-122.91173,-36.152133)">
	<g
   id="g544">
		
			<linearGradient
   id="SVGID_29_"
   gradientUnits="userSpaceOnUse"
   x1="0.017100001"
   y1="13.9146"
   x2="52.244099"
   y2="13.9146"
   gradientTransform="matrix(0.78,-3.735626e-4,-3.560014e-4,0.78,19.55,16.7005)">
			<stop
   offset="0.0235"
   style="stop-color:#DADCDE"
   id="stop523" />
			<stop
   offset="1"
   style="stop-color:#B3B4B5"
   id="stop525" />
		</linearGradient>
		<path
   style="clip-rule:evenodd;fill:url(#SVGID_29_);fill-rule:evenodd"
   d="m 60.188,27.815 c -0.546,2.21 -2.99,4.068 -7.332,5.577 -4.342,1.508 -9.308,2.223 -14.897,2.145 -5.59,-0.052 -10.179,-0.884 -13.767,-2.496 -3.562,-1.611 -5.07,-3.523 -4.524,-5.732 0.521,-2.211 2.951,-4.069 7.293,-5.577 4.316,-1.509 9.282,-2.236 14.897,-2.185 5.59,0.078 10.18,0.924 13.768,2.535 3.587,1.612 5.107,3.523 4.562,5.733 z"
   id="path528"
   inkscape:connector-curvature="0" />
		
			<linearGradient
   id="SVGID_30_"
   gradientUnits="userSpaceOnUse"
   x1="-54.377899"
   y1="-6.0098"
   x2="2.4633"
   y2="-6.0098"
   gradientTransform="matrix(-0.7546,-0.1974,0.1974,-0.7546,19.549,16.7012)">
			<stop
   offset="0"
   style="stop-color:#CCCCCC"
   id="stop530" />
			<stop
   offset="1"
   style="stop-color:#FFFFFF"
   id="stop532" />
		</linearGradient>
		<path
   style="clip-rule:evenodd;fill:url(#SVGID_30_);fill-rule:evenodd"
   d="m 60.188,27.152 c -0.52,2.002 -2.951,3.692 -7.293,5.07 -4.342,1.378 -9.308,2.04 -14.898,1.988 -5.59,-0.078 -10.179,-0.858 -13.767,-2.34 -3.588,-1.482 -5.109,-3.237 -4.563,-5.265 0.521,-2.002 2.951,-3.692 7.293,-5.07 4.342,-1.378 9.308,-2.041 14.897,-1.989 5.616,0.078 10.205,0.858 13.768,2.34 3.588,1.483 5.108,3.238 4.563,5.266 z"
   id="path535"
   inkscape:connector-curvature="0" />
		
			<linearGradient
   id="SVGID_31_"
   gradientUnits="userSpaceOnUse"
   x1="2.2686"
   y1="12.6348"
   x2="50.118198"
   y2="12.6348"
   gradientTransform="matrix(0.78,4.075228e-4,4.259963e-4,0.78,19.5499,16.7005)">
			<stop
   offset="0"
   style="stop-color:#CCCCCC"
   id="stop537" />
			<stop
   offset="1"
   style="stop-color:#FFFFFF"
   id="stop539" />
		</linearGradient>
		<path
   style="clip-rule:evenodd;fill:url(#SVGID_31_);fill-rule:evenodd"
   d="m 58.55,26.802 c -0.494,1.689 -2.717,3.106 -6.669,4.251 -3.978,1.144 -8.528,1.689 -13.65,1.638 -5.148,-0.078 -9.36,-0.741 -12.636,-1.989 -3.276,-1.222 -4.667,-2.678 -4.173,-4.368 0.494,-1.69 2.717,-3.12 6.669,-4.29 3.978,-1.144 8.528,-1.677 13.65,-1.599 5.121,0.052 9.334,0.702 12.636,1.949 3.275,1.249 4.667,2.717 4.173,4.408 z"
   id="path542"
   inkscape:connector-curvature="0" />
	</g>
	<g
   id="g634">
		
			<linearGradient
   id="SVGID_32_"
   gradientUnits="userSpaceOnUse"
   x1="6.1469998"
   y1="13.4609"
   x2="47.150398"
   y2="13.4609"
   gradientTransform="matrix(0.78,0,0,0.78,19.5498,16.7003)">
			<stop
   offset="0"
   style="stop-color:#E3AC3B"
   id="stop546" />
			<stop
   offset="1"
   style="stop-color:#C7A910"
   id="stop548" />
		</linearGradient>
		<path
   style="clip-rule:evenodd;fill:url(#SVGID_32_);fill-rule:evenodd"
   d="m 51.529,24.656 c 0.885,0.052 1.833,0.286 2.848,0.702 1.3,0.546 1.95,1.17 1.95,1.872 -0.026,1.378 -1.196,2.21 -3.51,2.496 -0.755,0.104 -1.613,0.039 -2.575,-0.195 l -1.209,-0.352 0.118,0.313 c 0.104,0.234 0.168,0.494 0.194,0.78 0.13,0.753 -0.923,1.365 -3.159,1.833 -1.897,0.416 -3.406,0.338 -4.523,-0.234 -0.521,-0.261 -0.832,-0.402 -0.937,-0.429 -0.208,-0.053 -0.416,0 -0.624,0.155 -0.208,0.286 -0.39,0.494 -0.546,0.625 -0.312,0.233 -0.819,0.377 -1.521,0.429 -1.352,0.104 -3.029,-0.182 -5.031,-0.858 -0.598,-0.208 -1.001,-0.494 -1.209,-0.857 -0.234,-0.416 -0.39,-0.65 -0.468,-0.702 -0.182,-0.078 -0.741,-0.053 -1.677,0.078 -1.092,0.182 -1.911,0.247 -2.457,0.194 -0.754,-0.052 -1.404,-0.299 -1.95,-0.74 -0.468,-0.391 -0.754,-0.807 -0.858,-1.248 -0.104,-0.313 -0.013,-0.819 0.273,-1.521 0.208,-0.546 0.39,-0.91 0.546,-1.092 0.078,-0.104 0.468,-0.286 1.17,-0.546 0.728,-0.286 1.235,-0.442 1.521,-0.468 0.338,-0.026 0.663,-0.078 0.975,-0.156 0.338,-0.104 0.455,-0.195 0.351,-0.273 -0.39,-0.26 -0.611,-0.468 -0.663,-0.624 -0.052,-0.182 0.026,-0.377 0.234,-0.585 0.234,-0.208 0.468,-0.312 0.702,-0.312 l 3.744,-0.469 c 2.6,-0.312 4.186,-0.441 4.758,-0.39 0.494,0.053 0.91,0.26 1.249,0.624 0.26,0.26 0.468,0.338 0.623,0.234 0.209,-0.104 0.43,-0.299 0.663,-0.585 0.208,-0.286 0.378,-0.469 0.508,-0.547 0.233,-0.13 1.352,-0.104 3.354,0.078 2.055,0.183 3.38,0.391 3.979,0.625 0.571,0.208 0.832,0.429 0.78,0.662 -0.026,0.156 -0.261,0.391 -0.703,0.702 -0.286,0.208 -0.468,0.43 -0.545,0.663 -0.053,0.104 -0.065,0.195 -0.04,0.273 l 1.404,-0.117 c 1.014,-0.051 1.767,-0.064 2.261,-0.038 z"
   id="path551"
   inkscape:connector-curvature="0" />
		
			<linearGradient
   id="SVGID_33_"
   gradientUnits="userSpaceOnUse"
   x1="12.1001"
   y1="18.707001"
   x2="15.0001"
   y2="18.707001"
   gradientTransform="matrix(0.78,0,0,0.78,19.5498,16.7003)">
			<stop
   offset="0"
   style="stop-color:#E3AC3B"
   id="stop553" />
			<stop
   offset="1"
   style="stop-color:#C7A910"
   id="stop555" />
		</linearGradient>
		<path
   style="clip-rule:evenodd;fill:url(#SVGID_33_);fill-rule:evenodd"
   d="m 30.548,30.429 c 0.416,0.025 0.637,0.169 0.663,0.429 0.052,0.26 -0.091,0.559 -0.429,0.896 -0.598,0.598 -1.183,0.533 -1.755,-0.195 -0.182,-0.26 -0.052,-0.52 0.39,-0.779 0.416,-0.26 0.792,-0.378 1.131,-0.351 z"
   id="path558"
   inkscape:connector-curvature="0" />
		
			<linearGradient
   id="SVGID_34_"
   gradientUnits="userSpaceOnUse"
   x1="26"
   y1="20.3799"
   x2="28.5"
   y2="20.3799"
   gradientTransform="matrix(0.78,0,0,0.78,19.5498,16.7003)">
			<stop
   offset="0"
   style="stop-color:#E3AC3B"
   id="stop560" />
			<stop
   offset="1"
   style="stop-color:#C7A910"
   id="stop562" />
		</linearGradient>
		<path
   style="clip-rule:evenodd;fill:url(#SVGID_34_);fill-rule:evenodd"
   d="m 40.961,31.949 c 0.754,0.39 0.988,0.728 0.702,1.014 -0.156,0.182 -0.43,0.286 -0.819,0.313 -0.416,0.052 -0.715,0 -0.897,-0.156 -0.208,-0.156 -0.155,-0.429 0.156,-0.819 0.312,-0.364 0.598,-0.482 0.858,-0.352 z"
   id="path565"
   inkscape:connector-curvature="0" />
		
			<linearGradient
   id="SVGID_35_"
   gradientUnits="userSpaceOnUse"
   x1="39.100601"
   y1="18.042999"
   x2="41.800598"
   y2="18.042999"
   gradientTransform="matrix(0.78,0,0,0.78,19.5498,16.7003)">
			<stop
   offset="0"
   style="stop-color:#E3AC3B"
   id="stop567" />
			<stop
   offset="1"
   style="stop-color:#C7A910"
   id="stop569" />
		</linearGradient>
		<path
   style="clip-rule:evenodd;fill:url(#SVGID_35_);fill-rule:evenodd"
   d="m 51.179,30.194 c 0.572,0.104 0.897,0.299 0.975,0.585 0.052,0.286 -0.104,0.52 -0.468,0.702 -0.312,0.156 -0.676,0.052 -1.092,-0.313 -0.364,-0.338 -0.546,-0.649 -0.546,-0.936 0,-0.183 0.091,-0.261 0.273,-0.234 0.129,0.027 0.415,0.092 0.858,0.196 z"
   id="path572"
   inkscape:connector-curvature="0" />
		
			<linearGradient
   id="SVGID_36_"
   gradientUnits="userSpaceOnUse"
   x1="37.6875"
   y1="18.976601"
   x2="39.012501"
   y2="18.976601"
   gradientTransform="matrix(0.78,0,0,0.78,19.5498,16.7003)">
			<stop
   offset="0"
   style="stop-color:#E3AC3B"
   id="stop574" />
			<stop
   offset="1"
   style="stop-color:#C7A910"
   id="stop576" />
		</linearGradient>
		<path
   style="clip-rule:evenodd;fill:url(#SVGID_36_);fill-rule:evenodd"
   d="m 49.696,31.13 c 0.338,0 0.403,0.144 0.195,0.429 -0.233,0.287 -0.48,0.378 -0.74,0.273 -0.234,-0.104 -0.273,-0.247 -0.118,-0.429 0.183,-0.182 0.404,-0.273 0.663,-0.273 z"
   id="path579"
   inkscape:connector-curvature="0" />
		
			<linearGradient
   id="SVGID_37_"
   gradientUnits="userSpaceOnUse"
   x1="38.5625"
   y1="8.4188995"
   x2="41.4375"
   y2="8.4188995"
   gradientTransform="matrix(0.78,0,0,0.78,19.5498,16.7003)">
			<stop
   offset="0"
   style="stop-color:#E3AC3B"
   id="stop581" />
			<stop
   offset="1"
   style="stop-color:#C7A910"
   id="stop583" />
		</linearGradient>
		<path
   style="clip-rule:evenodd;fill:url(#SVGID_37_);fill-rule:evenodd"
   d="m 51.725,23.135 c 0.234,0.234 0.156,0.455 -0.233,0.663 -0.416,0.208 -0.846,0.222 -1.288,0.039 -0.441,-0.155 -0.623,-0.377 -0.545,-0.663 0.078,-0.286 0.169,-0.468 0.272,-0.546 0.13,-0.078 0.377,-0.078 0.741,0 0.494,0.104 0.845,0.273 1.053,0.507 z"
   id="path586"
   inkscape:connector-curvature="0" />
		
			<linearGradient
   id="SVGID_38_"
   gradientUnits="userSpaceOnUse"
   x1="42.012699"
   y1="8.8486004"
   x2="44.287701"
   y2="8.8486004"
   gradientTransform="matrix(0.78,0,0,0.78,19.5498,16.7003)">
			<stop
   offset="0"
   style="stop-color:#E3AC3B"
   id="stop588" />
			<stop
   offset="1"
   style="stop-color:#C7A910"
   id="stop590" />
		</linearGradient>
		<path
   style="clip-rule:evenodd;fill:url(#SVGID_38_);fill-rule:evenodd"
   d="m 53.44,23.213 c 0.78,0.26 0.897,0.481 0.352,0.663 -0.546,0.208 -0.988,0.222 -1.326,0.039 -0.261,-0.156 -0.233,-0.338 0.078,-0.546 0.286,-0.208 0.585,-0.26 0.896,-0.156 z"
   id="path593"
   inkscape:connector-curvature="0" />
		
			<linearGradient
   id="SVGID_39_"
   gradientUnits="userSpaceOnUse"
   x1="23.887699"
   y1="5.9960999"
   x2="26.1127"
   y2="5.9960999"
   gradientTransform="matrix(0.78,0,0,0.78,19.5498,16.7003)">
			<stop
   offset="0"
   style="stop-color:#E3AC3B"
   id="stop595" />
			<stop
   offset="1"
   style="stop-color:#C7A910"
   id="stop597" />
		</linearGradient>
		<path
   style="clip-rule:evenodd;fill:url(#SVGID_39_);fill-rule:evenodd"
   d="m 38.503,20.951 c 0.442,-0.078 0.82,-0.065 1.131,0.039 0.286,0.078 0.377,0.195 0.273,0.352 -0.261,0.441 -0.663,0.598 -1.209,0.467 -0.338,-0.077 -0.507,-0.233 -0.507,-0.467 10e-4,-0.209 0.105,-0.339 0.312,-0.391 z"
   id="path600"
   inkscape:connector-curvature="0" />
		
			<linearGradient
   id="SVGID_40_"
   gradientUnits="userSpaceOnUse"
   x1="7.3125"
   y1="9.7769003"
   x2="10.8875"
   y2="9.7769003"
   gradientTransform="matrix(0.78,0,0,0.78,19.5498,16.7003)">
			<stop
   offset="0"
   style="stop-color:#E3AC3B"
   id="stop602" />
			<stop
   offset="1"
   style="stop-color:#C7A910"
   id="stop604" />
		</linearGradient>
		<path
   style="clip-rule:evenodd;fill:url(#SVGID_40_);fill-rule:evenodd"
   d="m 27.74,23.915 c 0.52,0.286 0.403,0.56 -0.351,0.819 -0.65,0.208 -1.222,0.299 -1.716,0.272 -0.338,-0.025 -0.481,-0.182 -0.429,-0.468 0.078,-0.286 0.313,-0.52 0.702,-0.702 0.598,-0.285 1.196,-0.259 1.794,0.079 z"
   id="path607"
   inkscape:connector-curvature="0" />
		
			<linearGradient
   id="SVGID_41_"
   gradientUnits="userSpaceOnUse"
   x1="10.2876"
   y1="8.2538996"
   x2="11.2126"
   y2="8.2538996"
   gradientTransform="matrix(0.78,0,0,0.78,19.5498,16.7003)">
			<stop
   offset="0"
   style="stop-color:#E3AC3B"
   id="stop609" />
			<stop
   offset="1"
   style="stop-color:#C7A910"
   id="stop611" />
		</linearGradient>
		<path
   style="clip-rule:evenodd;fill:url(#SVGID_41_);fill-rule:evenodd"
   d="m 27.857,22.862 c 0.364,0.025 0.494,0.13 0.39,0.312 -0.104,0.183 -0.26,0.261 -0.468,0.234 -0.182,-0.025 -0.247,-0.117 -0.195,-0.273 0.026,-0.182 0.117,-0.273 0.273,-0.273 z"
   id="path614"
   inkscape:connector-curvature="0" />
		<path
   style="clip-rule:evenodd;fill:#ffffff;fill-rule:evenodd"
   d="m 29.885,30.74 c 0.442,-0.078 0.572,0.025 0.39,0.313 -0.208,0.285 -0.468,0.416 -0.78,0.39 -0.26,-0.026 -0.325,-0.144 -0.195,-0.351 0.13,-0.183 0.325,-0.3 0.585,-0.352 z"
   id="path616"
   inkscape:connector-curvature="0" />
		<path
   style="clip-rule:evenodd;fill:#ffffff;fill-rule:evenodd"
   d="m 40.609,32.183 c 0.313,0.027 0.391,0.169 0.234,0.43 -0.182,0.234 -0.377,0.324 -0.585,0.272 -0.156,-0.052 -0.195,-0.182 -0.117,-0.39 0.105,-0.233 0.26,-0.338 0.468,-0.312 z"
   id="path618"
   inkscape:connector-curvature="0" />
		<path
   style="clip-rule:evenodd;fill:#ffffff;fill-rule:evenodd"
   d="m 51.412,30.817 c 0,0.104 -0.09,0.195 -0.272,0.274 -0.13,0.052 -0.285,0.013 -0.468,-0.118 -0.156,-0.129 -0.261,-0.26 -0.313,-0.39 -0.025,-0.104 0.014,-0.143 0.118,-0.117 0.077,0 0.233,0.026 0.467,0.078 0.313,0.054 0.468,0.144 0.468,0.273 z"
   id="path620"
   inkscape:connector-curvature="0" />
		<path
   style="clip-rule:evenodd;fill:#ffffff;fill-rule:evenodd"
   d="m 49.385,31.325 c 0.182,-0.026 0.247,0.013 0.195,0.117 -0.078,0.104 -0.169,0.155 -0.273,0.155 -0.078,0 -0.117,-0.039 -0.117,-0.116 0.026,-0.104 0.091,-0.156 0.195,-0.156 z"
   id="path622"
   inkscape:connector-curvature="0" />
		<path
   style="clip-rule:evenodd;fill:#ffffff;fill-rule:evenodd"
   d="m 26.57,23.837 c 0.52,0 0.559,0.156 0.117,0.469 -0.494,0.312 -0.819,0.39 -0.975,0.233 -0.156,-0.13 -0.104,-0.286 0.156,-0.468 0.208,-0.156 0.442,-0.234 0.702,-0.234 z"
   id="path624"
   inkscape:connector-curvature="0" />
		<path
   style="clip-rule:evenodd;fill:#ffffff;fill-rule:evenodd"
   d="m 27.896,23.097 c -0.026,0.104 -0.104,0.143 -0.234,0.116 -0.104,-0.025 -0.117,-0.078 -0.039,-0.156 0.078,-0.077 0.156,-0.104 0.234,-0.077 0.078,-0.001 0.091,0.039 0.039,0.117 z"
   id="path626"
   inkscape:connector-curvature="0" />
		<path
   style="clip-rule:evenodd;fill:#ffffff;fill-rule:evenodd"
   d="m 39.283,21.107 c 0.131,0.182 0.026,0.299 -0.312,0.351 -0.364,0.052 -0.52,0 -0.468,-0.156 0.052,-0.13 0.182,-0.221 0.39,-0.272 0.182,-0.052 0.313,-0.027 0.39,0.077 z"
   id="path628"
   inkscape:connector-curvature="0" />
		<path
   style="clip-rule:evenodd;fill:#ffffff;fill-rule:evenodd"
   d="m 50.944,23.252 c -0.494,0.156 -0.831,0.169 -1.014,0.039 -0.156,-0.104 -0.156,-0.221 0,-0.351 0.183,-0.156 0.377,-0.208 0.585,-0.156 0.703,0.182 0.845,0.338 0.429,0.468 z"
   id="path630"
   inkscape:connector-curvature="0" />
		<path
   style="clip-rule:evenodd;fill:#ffffff;fill-rule:evenodd"
   d="m 53.246,23.291 c 0.208,0 0.247,0.065 0.116,0.195 -0.129,0.13 -0.272,0.169 -0.429,0.117 -0.156,-0.026 -0.182,-0.091 -0.078,-0.195 0.13,-0.078 0.26,-0.117 0.391,-0.117 z"
   id="path632"
   inkscape:connector-curvature="0" />
	</g>
	<g
   id="g660">
		<path
   style="clip-rule:evenodd;fill:#85181f;fill-rule:evenodd"
   d="m 34.058,25.514 c 2.418,0.755 2.353,1.729 -0.195,2.926 -2.548,1.222 -4.719,1.611 -6.513,1.17 -1.456,-0.364 -2.314,-1.053 -2.574,-2.067 -0.208,-0.884 0.078,-1.534 0.858,-1.95 1.144,-0.571 2.678,-0.806 4.602,-0.701 1.456,0.076 2.73,0.284 3.822,0.622 z"
   id="path636"
   inkscape:connector-curvature="0" />
		<path
   style="clip-rule:evenodd;fill:#b12029;fill-rule:evenodd"
   d="m 34.019,25.476 c 2.444,0.728 2.392,1.65 -0.156,2.769 -2.522,1.092 -4.693,1.43 -6.513,1.014 -1.456,-0.363 -2.301,-1 -2.535,-1.911 -0.234,-0.857 0.039,-1.469 0.819,-1.833 1.144,-0.52 2.678,-0.728 4.602,-0.623 1.456,0.076 2.717,0.271 3.783,0.584 z"
   id="path638"
   inkscape:connector-curvature="0" />
		<path
   style="clip-rule:evenodd;fill:#85181f;fill-rule:evenodd"
   d="m 53.44,28.985 c -1.793,0.468 -3.965,0.091 -6.513,-1.131 -2.574,-1.196 -2.639,-2.171 -0.195,-2.926 1.093,-0.338 2.366,-0.546 3.822,-0.623 1.95,-0.104 3.484,0.129 4.603,0.701 0.78,0.416 1.065,1.066 0.857,1.95 -0.233,0.989 -1.091,1.665 -2.574,2.029 z"
   id="path640"
   inkscape:connector-curvature="0" />
		<path
   style="clip-rule:evenodd;fill:#b12029;fill-rule:evenodd"
   d="m 53.44,28.634 c -1.793,0.442 -3.965,0.104 -6.513,-1.014 -2.548,-1.118 -2.6,-2.028 -0.156,-2.729 1.066,-0.313 2.327,-0.508 3.783,-0.585 1.95,-0.104 3.484,0.104 4.603,0.623 0.78,0.364 1.065,0.962 0.857,1.795 -0.259,0.935 -1.118,1.572 -2.574,1.91 z"
   id="path642"
   inkscape:connector-curvature="0" />
		<path
   style="clip-rule:evenodd;fill:#85181f;fill-rule:evenodd"
   d="m 37.841,26.918 c 1.04,-0.104 1.716,0.078 2.027,0.546 0.286,0.391 0.339,1.066 0.156,2.028 -0.208,1.04 -0.48,1.689 -0.818,1.95 -0.546,0.39 -1.651,0.546 -3.315,0.468 -2.678,-0.104 -3.796,-0.767 -3.354,-1.989 0.156,-0.39 0.962,-0.988 2.418,-1.794 1.378,-0.728 2.34,-1.131 2.886,-1.209 z"
   id="path644"
   inkscape:connector-curvature="0" />
		<path
   style="clip-rule:evenodd;fill:#b12029;fill-rule:evenodd"
   d="m 37.841,26.918 c 1.04,-0.104 1.716,0.052 2.027,0.469 0.286,0.363 0.339,0.987 0.156,1.871 -0.208,0.963 -0.48,1.573 -0.818,1.834 -0.546,0.363 -1.651,0.506 -3.315,0.429 -2.678,-0.104 -3.796,-0.716 -3.354,-1.833 0.156,-0.364 0.962,-0.91 2.418,-1.639 1.378,-0.676 2.34,-1.053 2.886,-1.131 z"
   id="path646"
   inkscape:connector-curvature="0" />
		<path
   style="clip-rule:evenodd;fill:#85181f;fill-rule:evenodd"
   d="m 41.624,27.035 c 0.988,-0.13 2.431,0.078 4.329,0.624 1.144,0.313 1.963,0.715 2.457,1.209 0.598,0.572 0.559,1.131 -0.117,1.677 -1.066,0.832 -2.847,1.157 -5.343,0.976 -0.833,-0.052 -1.431,-0.377 -1.794,-0.976 -0.183,-0.338 -0.377,-0.949 -0.585,-1.833 -0.182,-1.04 0.168,-1.599 1.053,-1.677 z"
   id="path648"
   inkscape:connector-curvature="0" />
		<path
   style="clip-rule:evenodd;fill:#b12029;fill-rule:evenodd"
   d="m 41.741,26.879 c 0.961,-0.13 2.379,0.065 4.25,0.585 1.119,0.313 1.925,0.702 2.419,1.17 0.571,0.572 0.532,1.118 -0.117,1.639 -1.015,0.832 -2.77,1.144 -5.265,0.936 -0.78,-0.052 -1.353,-0.377 -1.717,-0.975 -0.233,-0.338 -0.429,-0.924 -0.585,-1.755 -0.233,-0.962 0.105,-1.496 1.015,-1.6 z"
   id="path650"
   inkscape:connector-curvature="0" />
		<path
   style="clip-rule:evenodd;fill:#85181f;fill-rule:evenodd"
   d="m 36.866,25.319 c -1.612,-0.234 -2.99,-0.455 -4.134,-0.663 -2.21,-0.39 -3.341,-0.793 -3.393,-1.209 -0.052,-0.754 1.339,-1.339 4.173,-1.755 2.574,-0.391 4.186,-0.195 4.836,0.585 1.014,1.326 1.561,2.105 1.639,2.34 0.259,0.962 -0.781,1.196 -3.121,0.702 z"
   id="path652"
   inkscape:connector-curvature="0" />
		<path
   style="clip-rule:evenodd;fill:#b12029;fill-rule:evenodd"
   d="m 36.905,25.007 c -1.586,-0.208 -2.938,-0.416 -4.056,-0.624 -2.184,-0.363 -3.289,-0.74 -3.315,-1.131 -0.078,-0.702 1.274,-1.234 4.056,-1.599 2.574,-0.338 4.16,-0.156 4.758,0.546 1.014,1.222 1.561,1.937 1.639,2.145 0.259,0.884 -0.768,1.105 -3.082,0.663 z"
   id="path654"
   inkscape:connector-curvature="0" />
		<path
   style="clip-rule:evenodd;fill:#85181f;fill-rule:evenodd"
   d="m 45.328,25.319 c -0.598,0.312 -1.469,0.494 -2.612,0.546 -1.248,0.078 -1.911,-0.091 -1.989,-0.507 -0.104,-0.546 -0.169,-1.131 -0.195,-1.755 0,-0.729 0.092,-1.235 0.273,-1.521 0.208,-0.338 0.728,-0.585 1.561,-0.74 0.936,-0.183 1.924,-0.183 2.963,0 1.326,0.233 2.119,0.39 2.38,0.467 0.494,0.156 0.806,0.403 0.936,0.741 0.13,0.338 -0.26,0.833 -1.17,1.482 -0.625,0.443 -1.34,0.871 -2.147,1.287 z"
   id="path656"
   inkscape:connector-curvature="0" />
		<path
   style="clip-rule:evenodd;fill:#b12029;fill-rule:evenodd"
   d="m 45.29,24.968 c -0.599,0.286 -1.456,0.455 -2.574,0.508 -1.248,0.078 -1.911,-0.078 -1.989,-0.469 -0.104,-0.52 -0.169,-1.053 -0.195,-1.599 0,-0.676 0.092,-1.144 0.273,-1.404 0.208,-0.286 0.728,-0.507 1.561,-0.662 0.909,-0.156 1.885,-0.156 2.925,0 1.273,0.207 2.054,0.351 2.34,0.429 0.494,0.13 0.806,0.351 0.936,0.663 0.13,0.312 -0.26,0.767 -1.17,1.364 -0.626,0.416 -1.328,0.806 -2.107,1.17 z"
   id="path658"
   inkscape:connector-curvature="0" />
	</g>
	<g
   id="g682">
		
			<use
   xlink:href="#flash0.ai_x5F_2_x2F_Layer_19_copy_x2F__x3C_Path_x3E__x5F_9"
   width="11.793"
   height="4.3070002"
   x="-0.055"
   y="-4.302"
   transform="matrix(0.78,0,0,-0.78,45.456089,195.30625)"
   style="overflow:visible;opacity:0.83980001;enable-background:new"
   id="use662" />
		<path
   style="clip-rule:evenodd;fill:#85181f;fill-rule:evenodd"
   d="m 37.412,26.333 c 1.17,-0.26 1.794,-0.559 1.872,-0.896 0.104,0.39 -0.454,0.74 -1.676,1.053 -1.17,0.286 -2.457,0.442 -3.861,0.468 -1.534,0.026 -2.6,-0.208 -3.198,-0.702 -0.546,-0.441 -0.585,-0.975 -0.117,-1.599 l 0.039,-0.039 c -0.442,0.572 -0.39,1.066 0.156,1.481 0.598,0.442 1.651,0.65 3.159,0.625 1.273,0 2.482,-0.131 3.626,-0.391 z"
   id="path664"
   inkscape:connector-curvature="0" />
		
			<use
   xlink:href="#flash0.ai_x5F_2_x2F_Layer_19_copy_x2F__x3C_Path_x3E__x5F_7"
   width="8.5559998"
   height="4.6900001"
   x="-0.056000002"
   y="-4.6830001"
   transform="matrix(0.78,0,0,-0.78,49.405789,197.70665)"
   style="overflow:visible;opacity:0.83980001;enable-background:new"
   id="use666" />
		<path
   style="clip-rule:evenodd;fill:#85181f;fill-rule:evenodd"
   d="m 40.727,28.088 0.078,-0.896 c 0,0.494 -0.025,0.871 -0.078,1.131 -0.078,0.702 -0.312,1.118 -0.702,1.248 -0.312,0.078 -1.235,0.091 -2.769,0.039 -1.092,-0.026 -1.911,-0.222 -2.457,-0.585 -0.494,-0.286 -0.689,-0.599 -0.585,-0.937 0.052,0.313 0.312,0.599 0.78,0.858 0.572,0.286 1.326,0.441 2.262,0.468 1.56,0.052 2.482,0.026 2.769,-0.078 0.39,-0.13 0.623,-0.546 0.702,-1.248 z"
   id="path668"
   inkscape:connector-curvature="0" />
		
			<use
   xlink:href="#flash0.ai_x5F_2_x2F_Layer_19_copy_x2F__x3C_Path_x3E__x5F_5"
   width="10.103"
   height="3.8410001"
   x="0.012"
   y="-3.8510001"
   transform="matrix(0.78,0,0,-0.78,56.055689,197.35705)"
   style="overflow:visible;opacity:0.83980001;enable-background:new"
   id="use670" />
		<path
   style="clip-rule:evenodd;fill:#85181f;fill-rule:evenodd"
   d="m 48.644,26.061 c 0.078,0.078 0.104,0.143 0.078,0.194 -0.208,0.547 -0.649,1.054 -1.326,1.521 -0.832,0.598 -1.716,0.91 -2.652,0.936 -1.43,0 -2.69,-0.793 -3.782,-2.379 -0.104,-0.13 -0.156,-0.272 -0.156,-0.429 l 0.156,0.351 c 1.092,1.482 2.34,2.21 3.744,2.185 0.936,-0.026 1.819,-0.313 2.651,-0.858 0.65,-0.442 1.092,-0.897 1.326,-1.364 z"
   id="path672"
   inkscape:connector-curvature="0" />
		
			<use
   xlink:href="#flash0.ai_x5F_2_x2F_Layer_19_copy_x2F__x3C_Path_x3E__x5F_3"
   width="9.184"
   height="3.145"
   x="-0.030999999"
   y="-3.138"
   transform="matrix(0.78,0,0,-0.78,56.005889,194.75645)"
   style="overflow:visible;opacity:0.83980001;enable-background:new"
   id="use674" />
		<path
   style="clip-rule:evenodd;fill:#85181f;fill-rule:evenodd"
   d="m 47.825,23.72 c 0.104,0.13 0.155,0.286 0.155,0.469 -0.052,0.52 -1.196,0.896 -3.432,1.131 -2.158,0.234 -3.406,0.234 -3.744,0 -0.052,-0.026 -0.052,-0.104 0,-0.234 0.364,0.234 1.612,0.247 3.744,0.039 2.184,-0.233 3.302,-0.585 3.354,-1.053 z"
   id="path676"
   inkscape:connector-curvature="0" />
		
			<use
   xlink:href="#flash0.ai_x5F_2_x2F_Layer_19_copy_x2F__x3C_Path_x3E__x5F_1"
   width="7.6020002"
   height="3.7920001"
   x="0.0099999998"
   y="-3.802"
   transform="matrix(0.78,0,0,-0.78,52.105989,194.00645)"
   style="overflow:visible;opacity:0.83980001;enable-background:new"
   id="use678" />
		<path
   style="clip-rule:evenodd;fill:#85181f;fill-rule:evenodd"
   d="m 37.529,23.525 c 0.26,0.208 0.637,0.494 1.131,0.857 0.598,0.416 0.988,0.638 1.17,0.663 0.233,0.026 0.571,-0.194 1.014,-0.663 0.65,-0.676 1.287,-1.222 1.911,-1.638 l 0.039,-0.039 -0.039,0.078 c -0.624,0.442 -1.261,1.04 -1.911,1.794 -0.442,0.494 -0.78,0.728 -1.014,0.702 -0.338,-0.026 -1.105,-0.572 -2.301,-1.638 -0.208,-0.156 -0.351,-0.26 -0.429,-0.313 -0.156,-0.13 -0.234,-0.247 -0.234,-0.351 0.052,0.132 0.273,0.314 0.663,0.548 z"
   id="path680"
   inkscape:connector-curvature="0" />
	</g>
	<g
   id="g692">
		
			<use
   xlink:href="#flash0.ai_x5F_2_x2F_Layer_19_copy_x2F__x3C_Path_x3E__x5F_2"
   width="37.650002"
   height="12.376"
   x="0"
   y="-12.409"
   transform="matrix(0.78,0,0,-0.78,39.805689,193.60705)"
   style="overflow:visible;opacity:0.78910002;enable-background:new"
   id="use684" />
		
			<use
   xlink:href="#flash0.ai_x5F_2_x2F_Layer_19_copy_x2F__x3C_Group_x3E_"
   width="37.150002"
   height="12.407"
   y="-12.407"
   transform="matrix(0.78,0,0,-0.78,40.405789,193.80625)"
   style="overflow:visible;opacity:0.35940001;enable-background:new"
   id="use686"
   x="0" />
		
			<use
   xlink:href="#flash0.ai_x5F_2_x2F_Layer_19_copy_x2F__x3C_Path_x3E__x5F_1_x5F_1"
   width="13.65"
   height="10.073"
   y="-10.073"
   transform="matrix(0.78,0,0,-0.78,46.905789,194.45665)"
   style="overflow:visible;opacity:0.53130002;enable-background:new"
   id="use688"
   x="0" />
		
			<use
   xlink:href="#flash0.ai_x5F_2_x2F_Layer_19_copy_x2F__x3C_Path_x3E__x5F_0"
   width="8.4639997"
   height="7.9559999"
   y="-7.9499998"
   transform="matrix(0.78,0,0,-0.78,56.355489,194.70665)"
   style="overflow:visible;opacity:0.53130002;enable-background:new"
   id="use690"
   x="0" />
	</g>
	<g
   id="g705">
		
			<linearGradient
   id="SVGID_42_"
   gradientUnits="userSpaceOnUse"
   x1="-30.450701"
   y1="-0.58499998"
   x2="-22.488899"
   y2="-0.58499998"
   gradientTransform="matrix(-0.7543,-0.1984,0.1984,-0.7543,19.5502,16.7005)">
			<stop
   offset="0"
   style="stop-color:#669624"
   id="stop694" />
			<stop
   offset="1"
   style="stop-color:#648F29"
   id="stop696" />
		</linearGradient>
		<path
   style="clip-rule:evenodd;fill:url(#SVGID_42_);fill-rule:evenodd"
   d="m 41.507,21.342 h 0.39 c 0.131,0 0.208,0.025 0.234,0.077 0.156,0.156 0.247,0.286 0.272,0.39 v 0.352 c -0.104,0.052 -0.155,0.13 -0.155,0.233 0.025,0.078 0.091,0.209 0.194,0.391 -0.077,0.156 -0.169,0.247 -0.272,0.272 -0.053,0.026 -0.195,0.156 -0.429,0.391 -0.131,0.156 -0.547,0.234 -1.248,0.234 -0.78,-0.026 -1.274,-0.039 -1.482,-0.039 -0.52,0 -0.832,-0.014 -0.936,-0.039 l -1.092,-0.117 c 0.312,-0.182 0.442,-0.364 0.39,-0.546 -0.052,-0.13 -0.091,-0.208 -0.117,-0.234 -0.026,-0.078 -0.013,-0.156 0.039,-0.234 0.104,-0.104 0.208,-0.194 0.312,-0.272 0.078,-0.13 0.117,-0.221 0.117,-0.272 L 37.49,21.577 c -0.052,0 -0.078,-0.039 -0.078,-0.117 L 37.49,21.226 37.451,21.032 37.333,20.837 37.294,20.72 c 0,-0.155 0.039,-0.26 0.117,-0.312 0.052,-0.053 0.156,-0.065 0.312,-0.039 0.182,0.052 0.338,0.117 0.468,0.195 0.078,0.052 0.156,0.143 0.234,0.272 0.052,0.078 0.117,0.117 0.195,0.117 l 0.662,-0.078 c 0.209,0 0.378,0.104 0.508,0.313 0.26,0.26 0.52,0.363 0.78,0.312 z"
   id="path699"
   inkscape:connector-curvature="0" />
		<path
   style="clip-rule:evenodd;fill:#59851f;fill-rule:evenodd"
   d="m 41.779,21.458 c 0.156,0 0.234,0.065 0.234,0.195 -0.052,-0.13 -0.182,-0.104 -0.39,0.078 -0.078,0.052 -0.104,0.104 -0.078,0.155 l 0.195,0.273 c 0.052,0.104 0.025,0.195 -0.078,0.273 -0.131,0.078 -0.195,0.143 -0.195,0.194 0,0.156 -0.104,0.325 -0.312,0.507 -0.131,0.286 -0.222,0.442 -0.273,0.469 l -0.819,-0.156 c -0.208,-0.078 -0.416,-0.078 -0.624,0 -0.156,0.078 -0.351,0.052 -0.584,-0.078 -0.26,-0.13 -0.364,-0.234 -0.312,-0.313 0.208,-0.415 0.403,-0.688 0.585,-0.818 l 1.716,-0.507 0.039,-0.156 c 0.052,-0.104 0.13,-0.182 0.233,-0.233 0.131,-0.077 0.352,-0.039 0.663,0.117 z"
   id="path701"
   inkscape:connector-curvature="0" />
		<path
   style="clip-rule:evenodd;fill:#59851f;fill-rule:evenodd"
   d="m 37.88,20.717 0.039,-0.078 0.118,0.273 c 0.104,0.182 0.247,0.273 0.429,0.273 0.416,0.754 0.416,1.222 0,1.403 -0.286,0.131 -0.442,0.078 -0.468,-0.155 -0.026,-0.053 -0.013,-0.247 0.04,-0.585 0.026,-0.104 -0.014,-0.222 -0.118,-0.352 -0.078,-0.104 -0.117,-0.233 -0.117,-0.39 -10e-4,-0.181 0.025,-0.311 0.077,-0.389 z"
   id="path703"
   inkscape:connector-curvature="0" />
	</g>
	<g
   id="g766">
		
			<linearGradient
   id="SVGID_43_"
   gradientUnits="userSpaceOnUse"
   x1="10.3789"
   y1="17.7202"
   x2="22.876801"
   y2="17.7202"
   gradientTransform="matrix(0.7271,-0.2824,0.3009,0.7199,19.5491,16.7002)">
			<stop
   offset="0"
   style="stop-color:#669624"
   id="stop707" />
			<stop
   offset="1"
   style="stop-color:#648F29"
   id="stop709" />
		</linearGradient>
		<path
   style="clip-rule:evenodd;fill:url(#SVGID_43_);fill-rule:evenodd"
   d="m 39.05,22.94 c 0.052,-0.026 0.117,0 0.195,0.078 0.025,0.025 0.091,-0.014 0.194,-0.117 0.078,-0.026 0.144,-0.078 0.195,-0.156 0.104,0.104 0.182,0.104 0.233,0 0.078,-0.078 0.144,-0.117 0.195,-0.117 l 0.078,0.039 c 0.026,0 0.078,-0.039 0.156,-0.117 l 0.273,-0.038 c 0.077,-0.026 0.091,-0.078 0.038,-0.156 l 0.195,0.078 c 0.053,0.025 0.183,0.013 0.39,-0.04 0.078,0 0.208,0.144 0.391,0.43 l 0.585,0.78 c 0.052,0.078 0.052,0.116 0,0.116 h -0.117 c -0.078,0.156 -0.169,0.208 -0.273,0.156 l -0.155,-0.039 -0.039,0.43 c 0,0.052 -0.091,0.091 -0.273,0.116 -0.233,0.104 -0.416,0.17 -0.546,0.195 -0.052,0.026 -0.156,0.117 -0.312,0.273 l -0.039,0.39 c 0,0.104 -0.065,0.117 -0.195,0.039 l -0.078,0.273 c 0,0.104 -0.091,0.077 -0.273,-0.078 -0.052,-0.053 -0.091,-0.065 -0.116,-0.039 0,0.025 -0.014,0.077 -0.039,0.155 -0.026,0.053 -0.078,0.039 -0.156,-0.038 l -0.351,0.077 c -0.053,0.026 -0.091,0.144 -0.117,0.352 -0.026,0.208 -0.091,0.364 -0.195,0.468 -0.052,0.026 -0.13,0.104 -0.234,0.233 l -0.156,0.43 c -0.052,-0.104 -0.104,-0.156 -0.156,-0.156 -0.104,0 -0.221,0.156 -0.351,0.468 -0.156,0.286 -0.338,0.481 -0.545,0.585 -0.13,0.078 -0.208,0.144 -0.234,0.195 -0.026,0.104 -0.078,0.208 -0.156,0.313 -0.052,0.155 -0.104,0.233 -0.156,0.233 -0.052,-0.026 -0.104,-0.039 -0.156,-0.039 -0.078,0.026 -0.104,0 -0.078,-0.078 0.026,-0.077 0.039,-0.143 0.039,-0.194 -0.026,-0.104 -0.195,-0.026 -0.507,0.233 -0.156,0.104 -0.247,0.247 -0.273,0.43 -0.026,0.077 -0.039,0.182 -0.039,0.312 -0.026,0.104 -0.04,0.065 -0.04,-0.117 0,-0.208 -0.064,-0.364 -0.195,-0.468 -0.234,-0.234 -0.377,-0.221 -0.429,0.039 -0.026,0.104 -0.156,0.156 -0.39,0.156 -0.182,-0.026 -0.325,-0.065 -0.429,-0.117 -0.052,-0.026 -0.091,-0.091 -0.117,-0.195 0,-0.13 -0.039,-0.233 -0.117,-0.312 -0.078,-0.104 -0.182,-0.065 -0.312,0.117 -0.026,0.052 -0.039,0.052 -0.039,0 -0.026,-0.13 -0.052,-0.222 -0.078,-0.273 -0.026,-0.234 -0.078,-0.286 -0.156,-0.156 v 0.469 c -0.052,0 -0.13,-0.053 -0.234,-0.156 -0.052,-0.053 -0.143,-0.065 -0.273,-0.039 -0.104,0 -0.195,-0.026 -0.273,-0.078 -0.052,-0.078 -0.117,-0.169 -0.195,-0.273 -0.104,-0.155 0.052,-0.363 0.468,-0.623 0.208,-0.131 0.26,-0.313 0.156,-0.547 -0.026,-0.052 -0.104,-0.078 -0.234,-0.078 -0.078,0.026 -0.143,0 -0.195,-0.078 l -0.156,-0.233 c -0.052,-0.052 -0.117,-0.078 -0.195,-0.078 -0.052,0 -0.078,-0.013 -0.078,-0.039 0.104,-0.104 0.13,-0.234 0.078,-0.39 -0.026,-0.104 -0.064,-0.144 -0.117,-0.117 -0.052,0.026 -0.078,0.026 -0.078,0 l 0.117,-0.624 c -0.13,-0.052 -0.221,-0.117 -0.273,-0.195 -0.052,-0.104 -0.039,-0.194 0.039,-0.272 0.156,0.156 0.234,0.182 0.234,0.078 l 0.039,-0.507 c -0.026,-0.053 -0.13,-0.065 -0.312,-0.039 -0.182,0 -0.273,-0.014 -0.273,-0.039 0.104,-0.313 0.182,-0.481 0.234,-0.508 0.052,-0.025 0.104,-0.091 0.156,-0.194 0.026,-0.104 0.039,-0.169 0.039,-0.195 0.078,-0.208 0.182,-0.299 0.313,-0.273 0.13,0 0.233,-0.052 0.312,-0.155 0.026,0 0.091,-0.104 0.195,-0.313 0.026,-0.052 0.064,-0.064 0.117,-0.039 0.052,0.026 0.091,0.039 0.117,0.039 0.052,0 0.13,-0.064 0.234,-0.195 0.104,-0.104 0.182,-0.207 0.234,-0.312 0.026,-0.052 0.052,-0.143 0.078,-0.273 0.026,-0.052 0.052,-0.052 0.078,0 0.078,0.104 0.26,0.065 0.546,-0.116 0.156,-0.104 0.247,-0.156 0.273,-0.156 0.078,0 0.143,-0.091 0.195,-0.272 l 0.039,0.078 c 0.052,0.077 0.104,0.104 0.156,0.077 0.026,0 0.065,-0.039 0.117,-0.117 0.026,-0.052 0.065,-0.091 0.117,-0.116 0.182,0 0.299,0.182 0.351,0.546 0.026,0.077 0.091,0.233 0.195,0.468 0.026,0.078 0.117,0.13 0.273,0.156 l 0.273,0.272 c 0.078,0.078 0.182,0.117 0.312,0.117 0.208,-0.052 0.325,-0.104 0.351,-0.156 0.026,-0.052 0.169,-0.077 0.429,-0.077 l 0.273,0.038 h 0.312 l 0.39,0.195 0.273,0.273 c 0.051,0.047 0.129,0.021 0.233,-0.083 z"
   id="path712"
   inkscape:connector-curvature="0" />
		<path
   style="clip-rule:evenodd;fill:#779e39;fill-rule:evenodd"
   d="m 38.348,23.097 c 0.416,0.208 0.637,0.312 0.663,0.312 0.13,0 0.272,-0.104 0.429,-0.312 0.053,-0.131 0.222,-0.222 0.507,-0.273 l 1.326,-0.39 0.117,0.078 c 0.053,0.025 0.117,0.13 0.195,0.312 l 0.078,0.117 0.272,0.156 c 0.104,0.052 0.195,0.221 0.273,0.507 H 42.17 c -0.13,-0.104 -0.221,-0.156 -0.273,-0.156 -0.104,0.025 -0.247,0.117 -0.429,0.272 -0.104,0.078 -0.169,0.17 -0.195,0.273 0,0.104 -0.025,0.169 -0.078,0.195 -0.182,0.104 -0.233,0.052 -0.155,-0.156 0.052,-0.26 -0.014,-0.338 -0.195,-0.234 -0.052,0.026 -0.221,0.208 -0.507,0.546 -0.286,0.494 -0.455,0.768 -0.507,0.819 -0.104,0.078 -0.208,0.117 -0.313,0.117 h -0.156 l 0.352,-0.624 c 0.104,-0.156 0.312,-0.39 0.624,-0.702 l -0.624,0.273 c -0.078,0.052 -0.169,0.182 -0.273,0.39 -0.104,0.208 -0.208,0.351 -0.312,0.429 -0.078,0.052 -0.286,0.325 -0.625,0.819 -0.078,0.104 -0.221,0.26 -0.429,0.468 -0.234,0.234 -0.39,0.351 -0.468,0.351 -0.078,0.026 -0.117,-0.025 -0.117,-0.155 -0.026,-0.104 -0.013,-0.195 0.039,-0.273 0.026,-0.052 0.377,-0.416 1.053,-1.092 0.13,-0.104 0.195,-0.169 0.195,-0.195 l -0.195,0.039 c -0.234,0.234 -0.468,0.391 -0.702,0.469 -0.156,0.052 -0.312,0.169 -0.468,0.351 -0.13,0.234 -0.247,0.416 -0.351,0.546 -0.13,0.156 -0.26,0.221 -0.39,0.195 l -0.156,-0.039 0.741,-1.053 0.897,-0.663 -0.78,0.039 c -0.572,0.155 -0.871,0.233 -0.897,0.233 -0.417,0.286 -0.767,0.469 -1.053,0.546 l -1.092,0.352 0.351,-0.156 0.819,-0.468 c 0.182,-0.104 0.403,-0.299 0.663,-0.585 l -1.092,0.233 h -0.468 l 0.429,-0.194 c 0.13,-0.026 0.455,-0.17 0.975,-0.43 l -0.234,-0.039 c -0.312,0.026 -0.637,0.026 -0.975,0 -0.234,-0.025 -0.39,-0.091 -0.468,-0.194 -0.052,-0.104 -0.014,-0.182 0.117,-0.234 0.104,-0.025 0.364,0.013 0.78,0.117 l 0.936,0.117 c 0.208,0.026 0.611,-0.014 1.209,-0.117 l -0.429,-0.078 -0.702,0.117 c -0.026,-0.026 -0.039,-0.065 -0.039,-0.117 -0.026,-0.078 -0.013,-0.13 0.039,-0.156 0.364,-0.155 0.676,-0.169 0.936,-0.039 0.182,0.078 0.468,0.091 0.858,0.039 0.182,-0.025 0.312,-0.091 0.39,-0.194 -0.078,-0.131 -0.208,-0.234 -0.39,-0.313 -0.338,-0.13 -0.494,-0.208 -0.468,-0.234 0.13,-0.132 0.39,-0.119 0.78,0.038 z"
   id="path714"
   inkscape:connector-curvature="0" />
		<path
   style="clip-rule:evenodd;fill:#59851f;fill-rule:evenodd"
   d="m 34.409,26.217 c 0,0.077 -0.052,0.168 -0.156,0.272 0.026,0.026 0.078,0 0.156,-0.078 0.052,-0.078 0.117,-0.117 0.195,-0.117 0,0.026 -0.052,0.091 -0.156,0.195 0.078,0.052 0.156,0.026 0.234,-0.078 0.104,-0.13 0.169,-0.194 0.195,-0.194 0,0.052 -0.039,0.13 -0.117,0.233 -0.078,0.052 -0.078,0.117 0,0.195 0,0.052 -0.039,0.064 -0.117,0.038 -0.052,-0.025 -0.078,-0.013 -0.078,0.04 0.052,0.078 0.039,0.143 -0.039,0.194 -0.156,0.104 -0.247,0.169 -0.273,0.195 l 0.117,-0.195 c 0,-0.052 -0.013,-0.064 -0.039,-0.039 -0.026,0.053 -0.065,0.065 -0.117,0.039 0,-0.025 0.013,-0.064 0.039,-0.116 0.026,-0.026 0.013,-0.065 -0.039,-0.118 l -0.273,0.352 c 0.026,0.104 0.117,0.169 0.273,0.195 l -0.078,0.351 -0.195,-0.078 c 0.13,-0.182 0.117,-0.299 -0.039,-0.351 -0.026,-0.156 0.013,-0.273 0.117,-0.351 0.13,-0.104 0.195,-0.195 0.195,-0.273 -0.052,0.025 -0.169,0.169 -0.351,0.429 -0.13,0.208 -0.273,0.286 -0.429,0.234 0.078,-0.234 0.182,-0.352 0.313,-0.352 l -0.156,-0.468 c 0,0.052 -0.039,0.078 -0.117,0.078 l 0.156,0.156 c 0.026,0.077 -0.013,0.143 -0.117,0.195 0.026,-0.261 -0.026,-0.364 -0.156,-0.313 l 0.039,-0.039 c 0.052,0 0.117,-0.065 0.195,-0.195 0.052,-0.078 0.104,-0.064 0.156,0.039 0.052,-0.052 0.064,-0.143 0.039,-0.272 0.155,0.027 0.363,0.092 0.623,0.197 z m -0.546,0.467 c 0.026,0.026 0.052,0.026 0.078,0 0,-0.182 -0.039,-0.272 -0.117,-0.272 0.052,0.13 0.026,0.208 -0.078,0.234 0.026,0 0.065,0.012 0.117,0.038 z"
   id="path716"
   inkscape:connector-curvature="0" />
		<path
   style="clip-rule:evenodd;fill:#59851f;fill-rule:evenodd"
   d="m 35.033,26.489 c 0.026,-0.026 0.052,-0.039 0.078,-0.039 0.026,0 0.039,0.026 0.039,0.078 0,0.025 -0.065,0.13 -0.195,0.312 -0.026,0.053 -0.065,0.13 -0.117,0.234 -0.026,0.078 -0.13,0.182 -0.312,0.313 v -0.234 l 0.195,-0.195 c 0.052,-0.052 0.065,-0.091 0.039,-0.117 z"
   id="path718"
   inkscape:connector-curvature="0" />
		<path
   style="clip-rule:evenodd;fill:#59851f;fill-rule:evenodd"
   d="m 36.515,27.542 0.234,-0.078 c 0.026,0 0.13,0.026 0.313,0.078 0.104,0.026 0.247,-0.039 0.429,-0.195 -0.156,0.208 -0.286,0.325 -0.39,0.352 -0.078,0.026 -0.13,0.091 -0.156,0.195 -0.052,0.208 -0.104,0.324 -0.156,0.351 -0.078,0.182 -0.117,0.247 -0.117,0.195 0,-0.104 -0.156,-0.026 -0.468,0.233 -0.156,0.13 -0.247,0.3 -0.273,0.507 -0.026,0.208 -0.052,0.3 -0.078,0.273 v -0.078 l -0.039,-0.39 c 0.052,0.052 0.091,0.039 0.117,-0.039 l 0.039,-0.313 c 0,-0.077 0.052,-0.221 0.156,-0.429 0.052,-0.078 -0.052,-0.247 -0.312,-0.507 -0.078,-0.078 -0.13,-0.091 -0.156,-0.039 -0.052,0.104 -0.117,0.195 -0.195,0.272 l -0.234,0.234 0.195,-0.546 c 0.078,-0.104 -0.013,-0.156 -0.273,-0.156 -0.052,0 -0.195,0.195 -0.429,0.585 -0.052,0.104 -0.078,-0.025 -0.078,-0.39 0,-0.104 0.064,-0.221 0.195,-0.351 l 0.117,-0.195 0.039,-0.195 c 0.052,-0.104 0.13,-0.182 0.234,-0.234 0.026,-0.013 0.052,-0.025 0.078,-0.038 l -0.195,0.312 -0.039,0.234 0.078,0.039 0.195,-0.273 c 0.052,-0.078 0.104,-0.078 0.156,0 l -0.078,0.273 c 0,0.025 0.078,0.038 0.234,0.038 0.052,0 0.143,0.053 0.273,0.156 l 0.195,0.078 z"
   id="path720"
   inkscape:connector-curvature="0" />
		<path
   style="clip-rule:evenodd;fill:#59851f;fill-rule:evenodd"
   d="m 37.88,27.854 -0.273,0.194 c -0.052,0 -0.13,0.039 -0.234,0.117 -0.078,0.078 -0.13,0.144 -0.156,0.195 l -0.156,0.272 c -0.026,0.131 -0.052,0.195 -0.078,0.195 l -0.195,-0.039 h -0.195 l 0.078,-0.117 0.117,-0.116 c 0.13,0.052 0.195,0.013 0.195,-0.117 0.078,-0.208 0.13,-0.325 0.156,-0.352 0.052,-0.025 0.156,-0.116 0.313,-0.272 0.026,0 0.143,-0.169 0.351,-0.507 l 0.156,-0.43 c 0.286,-0.13 0.429,-0.182 0.429,-0.155 z"
   id="path722"
   inkscape:connector-curvature="0" />
		<path
   style="clip-rule:evenodd;fill:#59851f;fill-rule:evenodd"
   d="m 38.972,25.748 0.078,-0.117 0.039,-0.039 h 0.194 l -0.116,0.195 -0.078,0.39 c -0.104,0.234 -0.182,0.352 -0.234,0.352 -0.104,0.052 -0.156,0.104 -0.156,0.155 l -0.117,0.273 -0.039,0.195 c 0,0.052 -0.013,0.078 -0.04,0.078 l -0.078,-0.195 0.117,-0.312 c 0.052,-0.078 0.104,-0.17 0.156,-0.273 l 0.156,-0.233 z"
   id="path724"
   inkscape:connector-curvature="0" />
		<path
   style="clip-rule:evenodd;fill:#59851f;fill-rule:evenodd"
   d="m 36.437,27.074 c 0.13,-0.052 0.234,0.026 0.312,0.234 l -0.078,-0.04 -0.195,0.078 c -0.026,0 -0.065,-0.025 -0.118,-0.078 -0.025,-0.025 0,-0.09 0.079,-0.194 z"
   id="path726"
   inkscape:connector-curvature="0" />
		<path
   style="clip-rule:evenodd;fill:#59851f;fill-rule:evenodd"
   d="m 36.788,25.592 -0.858,0.897 -0.156,0.117 c -0.104,0.104 -0.156,0.117 -0.156,0.039 0,-0.104 -0.026,-0.13 -0.078,-0.078 h -0.039 c -0.026,-0.104 0.052,-0.183 0.234,-0.234 0.026,0 0.091,-0.064 0.195,-0.194 l 0.429,-0.273 c 0.13,-0.027 0.273,-0.118 0.429,-0.274 z"
   id="path728"
   inkscape:connector-curvature="0" />
		<path
   style="clip-rule:evenodd;fill:#59851f;fill-rule:evenodd"
   d="m 35.345,26.139 -0.195,0.116 c -0.104,0 -0.143,-0.013 -0.117,-0.038 l 0.234,-0.195 c 0.052,-0.104 0.104,-0.156 0.156,-0.156 l 0.156,-0.039 0.429,-0.156 c -0.13,0.13 -0.26,0.208 -0.39,0.234 -0.052,0.026 -0.143,0.103 -0.273,0.234 z"
   id="path730"
   inkscape:connector-curvature="0" />
		<path
   style="clip-rule:evenodd;fill:#59851f;fill-rule:evenodd"
   d="m 32.264,23.33 0.156,0.117 c 0.156,0 0.234,0.013 0.234,0.039 0,0.13 0.013,0.195 0.039,0.195 l 0.234,-0.039 c 0.104,0 0.182,0.025 0.234,0.077 0,0.053 0.052,0.104 0.156,0.156 l 0.117,0.117 0.273,0.156 0.195,0.039 c 0.104,0 0.208,0.025 0.312,0.078 -0.286,0.052 -0.481,0.052 -0.585,0 l -0.312,-0.156 -0.156,-0.156 -0.429,-0.117 -0.195,-0.078 -0.078,-0.077 h -0.156 l -0.117,-0.039 h -0.04 l 0.078,-0.156 z"
   id="path732"
   inkscape:connector-curvature="0" />
		<path
   style="clip-rule:evenodd;fill:#59851f;fill-rule:evenodd"
   d="m 32.498,24.306 -0.234,-0.078 -0.195,0.039 -0.234,-0.039 c 0.052,-0.156 0.156,-0.222 0.312,-0.195 0.156,0.025 0.286,0.078 0.39,0.156 0.052,0.025 0.221,0.117 0.507,0.272 l 0.313,0.117 -0.469,-0.078 z"
   id="path734"
   inkscape:connector-curvature="0" />
		<path
   style="clip-rule:evenodd;fill:#59851f;fill-rule:evenodd"
   d="m 32.381,24.813 0.039,-0.43 V 24.5 l 0.195,0.117 0.234,0.195 0.273,0.116 c 0.078,0 0.182,-0.038 0.312,-0.116 0.078,-0.026 0.299,-0.039 0.663,-0.039 l 0.663,-0.117 c 0,0.052 -0.078,0.091 -0.234,0.117 l -0.39,0.078 -0.624,0.194 -0.741,0.039 z"
   id="path736"
   inkscape:connector-curvature="0" />
		<path
   style="clip-rule:evenodd;fill:#59851f;fill-rule:evenodd"
   d="m 33.005,25.709 c 0.13,-0.025 0.273,-0.078 0.429,-0.155 0.104,-0.078 0.182,-0.092 0.234,-0.04 l 0.273,0.156 0.156,-0.039 h 0.312 c -0.182,0.156 -0.312,0.222 -0.39,0.195 l -0.312,-0.078 c -0.052,-0.052 -0.156,-0.039 -0.312,0.039 L 33.2,25.826 h -0.117 z"
   id="path738"
   inkscape:connector-curvature="0" />
		<path
   style="clip-rule:evenodd;fill:#59851f;fill-rule:evenodd"
   d="m 33.512,22.706 0.234,-0.039 0.117,0.156 0.156,0.039 0.156,0.078 0.156,-0.117 v 0.195 l 0.078,0.116 0.273,-0.038 c 0.026,0 0.078,0.038 0.156,0.116 0.208,0.104 0.351,0.156 0.429,0.156 l 0.625,0.117 -0.858,0.078 -0.234,-0.156 c -0.156,0.026 -0.299,0.039 -0.429,0.039 -0.078,0 -0.143,-0.026 -0.195,-0.078 -0.078,-0.104 -0.13,-0.169 -0.156,-0.195 z"
   id="path740"
   inkscape:connector-curvature="0" />
		<path
   style="clip-rule:evenodd;fill:#59851f;fill-rule:evenodd"
   d="M 34.136,22.745 33.863,22.628 C 33.811,22.603 33.772,22.576 33.746,22.55 33.694,22.498 33.72,22.472 33.824,22.472 h 0.273 c 0.052,0.052 0.065,0.143 0.039,0.273 z"
   id="path742"
   inkscape:connector-curvature="0" />
		<path
   style="clip-rule:evenodd;fill:#59851f;fill-rule:evenodd"
   d="m 34.526,22.784 0.312,0.039 c 0.026,0.026 0.013,0.052 -0.039,0.078 l -0.234,0.078 z"
   id="path744"
   inkscape:connector-curvature="0" />
		<path
   style="clip-rule:evenodd;fill:#7bb334;fill-rule:evenodd"
   d="m 35.345,22.434 c 0.026,0.052 0.091,0.052 0.195,0 l 0.156,-0.352 0.429,0.546 c 0.078,0.078 0.195,0.144 0.351,0.195 l -0.313,0.156 -0.468,-0.039 c -0.078,-0.026 -0.156,0 -0.234,0.078 -0.026,0.025 -0.091,-0.014 -0.195,-0.117 -0.13,-0.156 -0.208,-0.247 -0.234,-0.273 l -0.351,-0.39 c -0.104,-0.104 -0.026,-0.156 0.234,-0.156 l 0.078,0.117 c 0.052,0.078 0.117,0.117 0.195,0.117 0.079,0 0.131,0.039 0.157,0.118 z"
   id="path746"
   inkscape:connector-curvature="0" />
		<path
   style="clip-rule:evenodd;fill:#7bb334;fill-rule:evenodd"
   d="m 35.033,21.927 h 0.273 l 0.117,0.038 -0.078,0.195 c -0.026,0.026 -0.104,0.013 -0.234,-0.039 -0.078,-0.026 -0.117,-0.078 -0.117,-0.156 0,-0.052 0.013,-0.065 0.039,-0.038 z"
   id="path748"
   inkscape:connector-curvature="0" />
		<path
   style="clip-rule:evenodd;fill:#7bb334;fill-rule:evenodd"
   d="m 37.256,22.94 c -0.078,0.025 -0.104,0.091 -0.078,0.194 0,0.053 0.013,0.092 0.039,0.117 l -0.156,0.273 c -0.026,0.052 -0.052,0.078 -0.078,0.078 -0.078,-0.026 -0.169,-0.053 -0.273,-0.078 l -0.429,-0.117 0.039,-0.195 0.546,-0.116 0.468,-0.273 c 0.104,-0.026 0.078,0.013 -0.078,0.117 z"
   id="path750"
   inkscape:connector-curvature="0" />
		<path
   style="clip-rule:evenodd;fill:#7bb334;fill-rule:evenodd"
   d="m 37.412,23.408 c 0.182,0 0.273,0.078 0.273,0.234 -0.026,0.052 -0.052,0.091 -0.078,0.116 -0.078,0 -0.143,0 -0.195,0 -0.078,0 -0.182,-0.039 -0.312,-0.116 -0.052,-0.026 -0.039,-0.078 0.039,-0.156 0.104,-0.051 0.194,-0.078 0.273,-0.078 z"
   id="path752"
   inkscape:connector-curvature="0" />
		<path
   style="clip-rule:evenodd;fill:#7bb334;fill-rule:evenodd"
   d="m 36.71,23.643 c 0.104,0.025 0.169,0.064 0.195,0.116 0.026,0.053 0.013,0.078 -0.039,0.078 l -0.312,0.039 c -0.13,-0.104 -0.221,-0.169 -0.273,-0.194 -0.026,-0.027 0.117,-0.039 0.429,-0.039 z"
   id="path754"
   inkscape:connector-curvature="0" />
		<path
   style="clip-rule:evenodd;fill:#7bb334;fill-rule:evenodd"
   d="m 35.072,23.72 0.78,-0.116 c 0.13,0 0.26,0.064 0.39,0.194 0.026,0.078 -0.065,0.104 -0.273,0.078 -0.078,-0.026 -0.234,-0.039 -0.468,-0.039 z"
   id="path756"
   inkscape:connector-curvature="0" />
		<path
   style="clip-rule:evenodd;fill:#7bb334;fill-rule:evenodd"
   d="m 35.852,23.954 c 0.13,0 0.221,0.026 0.273,0.078 -0.182,0.078 -0.338,0.104 -0.468,0.078 -0.078,-0.026 -0.078,-0.053 0,-0.078 0.052,-0.052 0.116,-0.078 0.195,-0.078 z"
   id="path758"
   inkscape:connector-curvature="0" />
		<path
   style="clip-rule:evenodd;fill:#7bb334;fill-rule:evenodd"
   d="m 33.434,22.862 c 0.078,0.104 0.195,0.194 0.351,0.272 0.208,0.208 0.325,0.338 0.351,0.391 0.104,0.104 0.286,0.182 0.546,0.233 -0.208,-0.025 -0.364,-0.025 -0.468,0 -0.078,0.026 -0.156,-0.052 -0.234,-0.233 -0.13,-0.183 -0.299,-0.325 -0.507,-0.429 -0.078,-0.026 -0.156,-0.078 -0.234,-0.156 -0.078,-0.104 -0.078,-0.169 0,-0.195 0.104,0 0.169,0.039 0.195,0.117 z"
   id="path760"
   inkscape:connector-curvature="0" />
		<path
   style="clip-rule:evenodd;fill:#7bb334;fill-rule:evenodd"
   d="m 32.303,23.759 0.273,0.117 c 0.104,0.052 0.156,0.104 0.156,0.156 l 0.234,0.039 0.936,0.351 -0.273,0.039 C 33.577,24.487 33.434,24.448 33.2,24.344 32.992,24.24 32.862,24.189 32.81,24.189 32.758,24.214 32.706,24.202 32.654,24.15 32.602,24.046 32.55,23.981 32.498,23.955 l -0.39,-0.078 z"
   id="path762"
   inkscape:connector-curvature="0" />
		<path
   style="clip-rule:evenodd;fill:#7bb334;fill-rule:evenodd"
   d="m 32.615,25.241 c 0.026,-0.052 0.065,-0.065 0.117,-0.039 0.026,0 0.052,0.013 0.078,0.039 l 0.156,0.039 0.819,-0.195 0.156,0.039 0.468,0.039 c 0.13,-0.025 0.195,-0.013 0.195,0.039 l -0.234,0.078 -0.273,0.039 h -0.195 l -0.234,-0.117 c -0.026,-0.026 -0.04,-0.026 -0.04,0 0,0.025 -0.026,0.052 -0.078,0.078 h -0.156 l -0.624,0.156 c -0.129,-0.104 -0.181,-0.168 -0.155,-0.195 z"
   id="path764"
   inkscape:connector-curvature="0" />
	</g>
	<g
   id="g801">
		
			<linearGradient
   id="SVGID_44_"
   gradientUnits="userSpaceOnUse"
   x1="-36.1353"
   y1="-8.7938995"
   x2="-25.7866"
   y2="-8.7938995"
   gradientTransform="matrix(-0.7782,-0.0528,0.0617,-0.7776,19.5503,16.7008)">
			<stop
   offset="0"
   style="stop-color:#669624"
   id="stop768" />
			<stop
   offset="1"
   style="stop-color:#648F29"
   id="stop770" />
		</linearGradient>
		<path
   style="clip-rule:evenodd;fill:url(#SVGID_44_);fill-rule:evenodd"
   d="M 45.328,22.472 45.29,22.55 c -0.053,0.13 -0.039,0.261 0.038,0.391 0.131,0.182 0.234,0.221 0.313,0.116 0.13,-0.104 0.351,0 0.663,0.313 0.052,0.078 0.052,0.208 0,0.39 0.052,0.078 0.104,0.117 0.156,0.117 l 0.156,-0.039 c 0.025,0 0.013,0.078 -0.039,0.234 0,0.13 0.039,0.182 0.116,0.156 0.053,-0.052 0.091,-0.156 0.117,-0.313 l 0.156,0.195 c 0.025,0.078 0.091,0.13 0.195,0.156 0.078,0.052 0.13,0.104 0.155,0.155 l 0.078,0.234 c 0.052,0.156 -0.13,0.234 -0.546,0.234 -0.13,-0.026 -0.208,0.013 -0.233,0.116 -0.026,0.053 -0.039,0.104 -0.039,0.156 l 0.155,0.117 c 0.026,0.025 0.092,0.156 0.195,0.39 0.052,0.104 0.104,0.156 0.156,0.156 -0.026,0.052 -0.092,0.13 -0.195,0.234 0,0.052 0.026,0.078 0.078,0.078 0.025,0.025 0.039,0.052 0.039,0.078 l -0.273,0.312 c 0,0.052 0.052,0.13 0.156,0.233 0,0.104 -0.039,0.156 -0.117,0.156 l -0.078,-0.116 c -0.025,-0.053 -0.052,-0.053 -0.077,0 l -0.156,0.312 c 0.312,0.155 0.442,0.247 0.39,0.273 -0.078,0.155 -0.182,0.233 -0.312,0.233 -0.131,0.078 -0.221,0.13 -0.273,0.156 -0.052,0.13 -0.156,0.155 -0.312,0.078 -0.026,-0.026 -0.117,-0.039 -0.273,-0.039 -0.025,0 -0.104,0.039 -0.233,0.116 -0.053,0.026 -0.078,0.026 -0.078,0 -0.026,-0.052 -0.053,-0.077 -0.078,-0.077 -0.053,-0.026 -0.144,-0.014 -0.273,0.039 -0.104,0 -0.195,0.025 -0.273,0.078 -0.104,0.155 -0.168,0.194 -0.194,0.116 0,-0.104 -0.156,-0.156 -0.468,-0.156 h -0.234 l -0.233,0.078 c 0,-0.104 -0.026,-0.155 -0.078,-0.155 -0.104,0.052 -0.195,0.064 -0.273,0.039 -0.104,-0.053 -0.13,-0.208 -0.078,-0.469 l -0.039,-0.39 c 0,-0.025 -0.052,-0.091 -0.156,-0.195 -0.025,-0.104 -0.064,-0.208 -0.116,-0.312 -0.026,-0.078 -0.092,-0.13 -0.195,-0.156 L 42.368,26.29 c -0.078,0.053 -0.195,0.014 -0.352,-0.117 l -0.195,-0.155 c -0.155,-0.053 -0.246,-0.091 -0.272,-0.117 l -0.195,-0.273 c -0.052,-0.104 -0.104,-0.194 -0.156,-0.272 0,-0.026 -0.064,-0.039 -0.194,-0.039 -0.078,0 -0.117,-0.052 -0.117,-0.156 h -0.195 c -0.104,0.052 -0.169,0.064 -0.194,0.039 -0.078,-0.078 -0.144,-0.117 -0.195,-0.117 -0.078,0.026 -0.13,0.026 -0.156,0 l -0.078,-0.039 h -0.117 l -0.233,-0.078 -0.078,0.078 -0.117,-0.117 c -0.025,-0.077 -0.13,-0.116 -0.312,-0.116 l -0.156,-0.43 c 0.025,-0.025 0.013,-0.104 -0.039,-0.233 -0.078,-0.13 -0.143,-0.3 -0.195,-0.507 0,-0.078 0.013,-0.104 0.039,-0.078 l 0.117,0.039 c 0.078,-0.078 0.156,-0.078 0.234,0 l 0.117,0.116 0.116,-0.272 c 0.026,-0.026 0.117,-0.013 0.273,0.039 0.104,0.052 0.26,0.078 0.468,0.078 0.104,0.025 0.208,0.013 0.313,-0.039 l 0.155,-0.234 0.156,0.039 0.117,-0.117 c 0.052,-0.104 0.117,-0.052 0.194,0.156 0.026,0.078 0.053,0.091 0.078,0.039 0.026,0 0.053,-0.025 0.078,-0.078 0.026,0 0.065,0.026 0.117,0.078 0.053,0.078 0.143,0.117 0.273,0.117 0.052,0 0.116,-0.053 0.194,-0.156 0.13,-0.156 0.234,-0.234 0.313,-0.234 l 0.233,-0.038 c 0.078,-0.026 0.156,-0.104 0.234,-0.234 l 0.078,0.156 c 0.078,0.052 0.208,0 0.39,-0.156 0.182,-0.13 0.391,-0.183 0.624,-0.156 0.13,0 0.273,-0.052 0.429,-0.156 0.104,-0.052 0.17,-0.078 0.195,-0.078 0.026,0.026 0.065,0.053 0.117,0.078 0.078,0.026 0.052,0.092 -0.078,0.195 0,0.052 0.156,0.065 0.469,0.039 0.155,0 0.272,-0.039 0.351,-0.117 0.021,-0.052 0.06,-0.117 0.112,-0.195 z"
   id="path773"
   inkscape:connector-curvature="0" />
		<path
   style="clip-rule:evenodd;fill:#779e39;fill-rule:evenodd"
   d="m 44.588,23.057 -0.78,0.117 c -0.208,0.053 -0.429,0.156 -0.663,0.313 -0.26,0.182 -0.468,0.312 -0.624,0.39 l -0.936,0.391 0.546,0.039 c 0.104,0 0.325,-0.065 0.663,-0.195 0.338,-0.156 0.676,-0.261 1.014,-0.313 0.364,-0.052 0.676,-0.064 0.936,-0.039 0.131,0.053 0.352,0.117 0.663,0.195 0.234,0.052 0.455,0.144 0.663,0.273 0.208,0.129 0.273,0.194 0.195,0.194 -0.52,-0.182 -1.092,-0.272 -1.716,-0.272 -0.391,-0.026 -0.729,0.026 -1.014,0.156 l -0.351,0.194 1.443,-0.039 c 0.286,0.026 0.546,0.104 0.779,0.234 0.131,0.104 0.364,0.286 0.702,0.546 0.442,0.338 0.599,0.507 0.469,0.507 -0.416,-0.234 -0.91,-0.455 -1.482,-0.663 -0.364,-0.156 -0.688,-0.208 -0.975,-0.156 l -0.352,0.117 1.015,0.43 c 0.312,0.182 0.559,0.559 0.74,1.131 0.064,0.17 0.123,0.3 0.176,0.39 l -0.487,-0.351 c 0,-0.156 -0.247,-0.442 -0.741,-0.858 -0.208,-0.182 -0.455,-0.286 -0.741,-0.312 h -0.39 l 0.039,0.429 c 0,0.078 0.078,0.208 0.234,0.39 0.13,0.208 0.233,0.403 0.312,0.585 0.104,0.364 0.052,0.416 -0.156,0.156 -0.26,-0.39 -0.441,-0.702 -0.546,-0.937 -0.052,-0.13 -0.194,-0.285 -0.429,-0.468 -0.26,-0.155 -0.429,-0.272 -0.507,-0.351 -0.078,-0.079 -0.455,-0.299 -1.131,-0.663 -0.156,-0.078 -0.299,-0.104 -0.43,-0.078 -0.155,0.052 -0.299,0.065 -0.429,0.039 -0.208,-0.025 -0.468,-0.078 -0.78,-0.156 l -0.39,-0.155 c -0.104,-0.053 -0.169,-0.131 -0.195,-0.234 v -0.117 l 0.391,0.156 c 0.312,0.078 0.571,0.117 0.779,0.117 0.442,0.025 0.871,-0.013 1.287,-0.117 0.416,-0.104 0.976,-0.403 1.677,-0.897 0.365,-0.209 0.872,-0.248 1.522,-0.118 z"
   id="path775"
   inkscape:connector-curvature="0" />
		<path
   style="clip-rule:evenodd;fill:#59851f;fill-rule:evenodd"
   d="M 44.042,26.333 C 44.016,26.229 43.95,26.125 43.847,26.021 l 0.156,0.117 0.78,0.468 c 0.104,0.104 0.169,0.221 0.194,0.351 l 0.313,0.546 c 0.13,0.26 0.13,0.377 0,0.352 -0.104,0.052 -0.195,0.064 -0.273,0.039 -0.052,-0.026 -0.117,-0.026 -0.195,0 l -0.078,0.078 -0.038,-0.04 c 0,-0.104 -0.026,-0.194 -0.078,-0.272 l -0.195,-0.156 -0.468,0.273 -0.039,0.155 h -0.195 v -0.194 l -0.194,-0.039 -0.039,-0.819 0.039,0.234 c 0,0.104 0.064,0.208 0.194,0.312 0.078,0.078 0.183,0.092 0.313,0.039 0.078,-0.077 0.143,-0.091 0.194,-0.039 L 44.16,27.232 44.278,26.998 C 44.2,26.894 44.147,26.816 44.122,26.764 Z"
   id="path777"
   inkscape:connector-curvature="0" />
		<path
   style="clip-rule:evenodd;fill:#59851f;fill-rule:evenodd"
   d="m 46.382,26.177 c 0.078,0.078 0.117,0.183 0.117,0.313 l 0.078,0.156 c 0.052,0.025 0.077,0.078 0.077,0.156 l -0.077,0.155 c -0.026,0.104 -0.065,0.156 -0.117,0.156 -0.078,0.025 -0.195,-0.091 -0.352,-0.352 -0.338,-0.363 -0.52,-0.598 -0.546,-0.701 0,-0.104 -0.025,-0.195 -0.078,-0.273 l -0.272,-0.273 -0.391,-0.233 0.43,0.078 c 0.286,0.078 0.494,0.182 0.624,0.312 z"
   id="path779"
   inkscape:connector-curvature="0" />
		<path
   style="clip-rule:evenodd;fill:#59851f;fill-rule:evenodd"
   d="m 46.616,25.202 -0.43,-0.273 C 45.9,24.721 45.745,24.617 45.718,24.617 l -0.624,-0.156 0.896,0.078 c 0.364,0.078 0.56,0.13 0.586,0.156 0.025,0.052 0.13,0.078 0.312,0.078 0.313,-0.104 0.468,-0.169 0.468,-0.195 v -0.039 c 0.104,0.13 0.104,0.222 0,0.273 -0.338,0.13 -0.52,0.194 -0.546,0.194 l -0.078,0.156 c -0.025,0.053 -0.064,0.066 -0.116,0.04 z"
   id="path781"
   inkscape:connector-curvature="0" />
		<path
   style="clip-rule:evenodd;fill:#59851f;fill-rule:evenodd"
   d="m 46.304,23.408 v -0.039 l 0.078,0.234 c 0,0.104 0.078,0.182 0.234,0.233 l -0.313,0.195 c 0,0.025 -0.104,0.013 -0.313,-0.039 -0.104,-0.052 -0.246,-0.117 -0.429,-0.195 -0.182,0 -0.363,-0.025 -0.546,-0.078 l -0.663,-0.077 c -0.155,-0.026 -0.377,-0.014 -0.662,0.039 l -0.43,0.077 c 0.26,-0.13 0.403,-0.221 0.43,-0.272 h 0.545 l 0.585,-0.078 h 0.507 c 0.078,0 0.273,0.039 0.586,0.117 0.313,0.052 0.442,0.013 0.391,-0.117 z"
   id="path783"
   inkscape:connector-curvature="0" />
		<path
   style="clip-rule:evenodd;fill:#59851f;fill-rule:evenodd"
   d="M 41.116,25.085 H 40.883 L 40.415,24.852 41,24.891 c 0.078,0 0.194,0.077 0.351,0.233 0.052,0.052 0.234,0.104 0.546,0.156 0.156,0.052 0.261,0.117 0.313,0.195 0.078,0.13 0.156,0.221 0.233,0.272 0.13,0.078 0.3,0.13 0.508,0.156 0.182,0.078 0.247,0.221 0.194,0.429 l -0.116,-0.194 -0.352,-0.117 c -0.234,0 -0.39,-0.026 -0.468,-0.078 -0.104,-0.053 -0.222,-0.091 -0.352,-0.117 -0.104,0 -0.169,-0.026 -0.194,-0.078 C 41.637,25.67 41.61,25.605 41.585,25.554 41.507,25.398 41.429,25.281 41.351,25.202 41.272,25.098 41.194,25.06 41.116,25.085 Z"
   id="path785"
   inkscape:connector-curvature="0" />
		<path
   style="clip-rule:evenodd;fill:#7bb334;fill-rule:evenodd"
   d="m 45.836,23.135 c 0.182,0.053 0.286,0.13 0.312,0.234 0.026,0.052 0,0.065 -0.078,0.039 -0.155,-0.052 -0.26,-0.078 -0.312,-0.078 h -1.677 l 0.468,-0.117 0.663,0.039 c 0.156,0 0.364,-0.039 0.624,-0.117 z"
   id="path787"
   inkscape:connector-curvature="0" />
		<path
   style="clip-rule:evenodd;fill:#7bb334;fill-rule:evenodd"
   d="m 47.162,24.422 c 0.025,0.078 0,0.131 -0.078,0.156 -0.156,0.104 -0.313,0.104 -0.468,0 -0.234,-0.078 -0.247,-0.117 -0.039,-0.117 0.077,-0.026 0.155,-0.091 0.233,-0.194 z"
   id="path789"
   inkscape:connector-curvature="0" />
		<path
   style="clip-rule:evenodd;fill:#7bb334;fill-rule:evenodd"
   d="m 46.693,26.099 c 0.026,0 0.053,0.026 0.078,0.078 0.053,0.053 0.065,0.092 0.039,0.117 l -0.156,0.234 c -0.052,0.104 -0.091,0.013 -0.116,-0.273 l -0.313,-0.39 z"
   id="path791"
   inkscape:connector-curvature="0" />
		<path
   style="clip-rule:evenodd;fill:#7bb334;fill-rule:evenodd"
   d="m 46.265,27.191 0.273,0.272 c -0.183,0 -0.313,0.026 -0.391,0.078 -0.104,0.026 -0.182,-0.013 -0.233,-0.117 l -0.078,-0.351 c 0,-0.156 -0.052,-0.338 -0.156,-0.546 0,-0.026 0.065,0.039 0.195,0.195 0.208,0.288 0.338,0.443 0.39,0.469 z"
   id="path793"
   inkscape:connector-curvature="0" />
		<path
   style="clip-rule:evenodd;fill:#7bb334;fill-rule:evenodd"
   d="m 45.602,27.425 c 0.208,0.13 0.26,0.183 0.156,0.156 l -0.312,0.039 c -0.156,-0.13 -0.247,-0.247 -0.273,-0.352 0,-0.104 -0.13,-0.376 -0.39,-0.818 l 0.39,0.429 c 0.026,0.026 0.078,0.117 0.155,0.273 0.078,0.13 0.17,0.221 0.274,0.273 z"
   id="path795"
   inkscape:connector-curvature="0" />
		<path
   style="clip-rule:evenodd;fill:#7bb334;fill-rule:evenodd"
   d="m 43.301,26.762 c 0.026,0.026 0.091,0.208 0.195,0.547 0.025,0.104 0.013,0.182 -0.039,0.233 -0.052,0.053 -0.104,0.065 -0.156,0.039 v -0.429 c 0,-0.13 -0.065,-0.26 -0.195,-0.391 l -0.194,-0.429 0.117,0.195 c 0.076,0.079 0.168,0.157 0.272,0.235 z"
   id="path797"
   inkscape:connector-curvature="0" />
		<path
   style="clip-rule:evenodd;fill:#7bb334;fill-rule:evenodd"
   d="m 41.429,23.604 c 0.364,0.052 0.468,0.104 0.313,0.155 l -0.508,0.156 -0.779,0.078 0.272,-0.195 c 0.156,0 0.299,-0.064 0.43,-0.194 z"
   id="path799"
   inkscape:connector-curvature="0" />
	</g>
	<g
   id="g805">
		
			<use
   xlink:href="#flash0.ai_x5F_2_x2F_Layer_19_copy_x2F__x3C_Path_x3E__x5F_6"
   width="10.45"
   height="4.1059999"
   y="-4.1059999"
   transform="matrix(0.78,0,0,-0.78,50.805689,196.05625)"
   style="overflow:visible;opacity:0.17970001;enable-background:new"
   id="use803"
   x="0" />
	</g>
	<g
   id="g813">
		<path
   style="clip-rule:evenodd;fill:#659425;fill-rule:evenodd"
   d="m 35.345,21.497 c 0.026,-0.598 0.026,-1.079 0,-1.443 -0.052,-0.701 0.104,-1.819 0.468,-3.354 0,0.052 0,0.13 0,0.234 0.026,0.182 0.104,0.364 0.234,0.546 0.078,0.156 0.195,0.312 0.351,0.468 l 0.117,0.624 c 0.104,0.39 0.312,0.676 0.624,0.858 l 1.287,1.014 c 0.546,0.416 0.871,1.04 0.976,1.872 0.077,0.416 0.091,0.793 0.038,1.131 -0.156,0.312 -0.272,0.494 -0.351,0.546 -0.13,0.078 -0.455,0.156 -0.975,0.234 -0.494,0.078 -1.014,-0.092 -1.56,-0.508 -0.442,-0.337 -0.767,-0.701 -0.975,-1.092 -0.13,-0.259 -0.208,-0.636 -0.234,-1.13 z"
   id="path807"
   inkscape:connector-curvature="0" />
		<path
   style="clip-rule:evenodd;fill:#659425;fill-rule:evenodd"
   d="m 43.651,22.512 c -0.155,0.208 -0.377,0.429 -0.663,0.662 -0.286,0.234 -0.546,0.377 -0.779,0.43 -0.702,0.182 -1.313,0.221 -1.833,0.116 -0.313,-0.052 -0.468,-0.091 -0.468,-0.116 -0.026,-0.026 -0.04,-0.313 -0.04,-0.858 0.78,-0.988 1.678,-1.625 2.691,-1.911 0.053,-0.025 0.313,-0.052 0.78,-0.078 0.156,0 0.26,-0.155 0.312,-0.468 0.026,-0.312 0,-0.598 -0.078,-0.857 -0.13,-0.338 -0.194,-0.56 -0.194,-0.663 -0.026,-0.338 -0.117,-0.611 -0.273,-0.819 0.962,0.468 1.547,0.936 1.756,1.404 0.233,0.441 0.376,0.845 0.429,1.209 l 0.546,-0.117 -0.897,0.857 c -0.755,0.624 -1.184,1.026 -1.289,1.209 z"
   id="path809"
   inkscape:connector-curvature="0" />
		<path
   style="clip-rule:evenodd;fill:#59851f;fill-rule:evenodd"
   d="m 43.457,21.927 -0.448,0.448 c -0.145,0.063 -0.333,0.199 -0.566,0.409 -0.415,0.416 -0.715,0.688 -0.896,0.819 -0.286,0.182 -0.676,0.221 -1.17,0.116 -0.702,0.053 -1.196,0.092 -1.482,0.117 -0.468,0 -0.845,-0.324 -1.131,-0.975 -0.156,-0.234 -0.26,-0.391 -0.312,-0.469 -0.104,-0.129 -0.26,-0.221 -0.468,-0.272 l -1.248,-0.39 0.312,-0.117 c 0.234,-0.078 0.429,-0.091 0.585,-0.039 0.754,0.26 0.897,0.221 0.429,-0.117 -0.182,-0.13 -0.39,-0.234 -0.625,-0.312 -0.182,-0.053 -0.312,-0.131 -0.39,-0.234 -0.104,-0.156 -0.195,-0.338 -0.273,-0.546 l -0.078,-0.313 c 0.858,0.677 1.131,0.768 0.819,0.273 -0.39,-0.649 -0.585,-1.104 -0.585,-1.365 l 0.039,-0.975 0.741,1.911 0.273,0.507 0.156,-0.39 v -0.234 l 0.117,0.117 c 0.078,0.13 0.13,0.299 0.156,0.507 l 0.078,1.17 c 0.468,0.078 0.663,-0.039 0.585,-0.352 -0.052,-0.208 -0.052,-0.376 0,-0.507 l 0.117,-0.155 0.234,1.17 c 0,0.571 0.338,0.962 1.014,1.17 0.729,0.233 1.274,0.091 1.639,-0.43 0.468,-0.754 0.871,-1.183 1.209,-1.286 0.312,-0.078 0.598,-0.104 0.857,-0.078 -0.13,0.052 -0.272,0.116 -0.429,0.194 -0.26,0.156 -0.364,0.313 -0.313,0.469 0.078,0.182 0.234,0.233 0.469,0.156 0.208,-0.078 0.415,-0.234 0.624,-0.469 0.025,-0.025 0.208,-0.156 0.546,-0.39 0.156,-0.104 0.221,-0.313 0.194,-0.624 -0.025,-0.521 -0.143,-1.001 -0.351,-1.443 0.338,0.442 0.521,0.923 0.546,1.443 0.026,0.338 -0.064,0.624 -0.273,0.857 -0.285,0.265 -0.519,0.473 -0.701,0.629 z m -0.448,0.448 c 0.178,-0.079 0.288,-0.047 0.331,0.097 l -0.352,-0.078 z"
   id="path811"
   inkscape:connector-curvature="0" />
	</g>
	<g
   id="g823">
		
			<use
   xlink:href="#flash0.ai_x5F_2_x2F_Layer_19_copy_x2F__x3C_Path_x3E__x5F_3_x5F_1"
   width="3.562"
   height="2.2620001"
   x="0.041999999"
   y="-2.279"
   transform="matrix(0.78,0,0,-0.78,54.605489,192.00645)"
   style="overflow:visible;opacity:0.76950001;enable-background:new"
   id="use815" />
		
			<use
   xlink:href="#flash0.ai_x5F_2_x2F_Layer_19_copy_x2F__x3C_Path_x3E__x5F_2_x5F_1"
   width="4.5300002"
   height="5.4060001"
   x="0.02"
   y="-5.4060001"
   transform="matrix(0.78,0,0,-0.78,54.105989,192.00645)"
   style="overflow:visible;opacity:0.89839998;enable-background:new"
   id="use817" />
		
			<use
   xlink:href="#flash0.ai_x5F_2_x2F_Layer_19_copy_x2F__x3C_Path_x3E__x5F_1_x5F_2"
   width="2.4000001"
   height="4.9000001"
   y="-4.9000001"
   transform="matrix(0.78,0,0,-0.78,54.555689,192.35705)"
   style="overflow:visible;opacity:0.73830004;enable-background:new"
   id="use819"
   x="0" />
		<path
   style="clip-rule:evenodd;fill:#cc4b41;fill-rule:evenodd"
   d="m 39.323,20.054 c -0.053,-0.13 0.155,-0.143 0.623,-0.038 0.442,0.104 0.768,0.207 0.976,0.312 0.39,0.234 0.272,0.221 -0.351,-0.039 -0.313,-0.104 -0.572,-0.156 -0.78,-0.156 -0.183,0.026 -0.247,0.091 -0.195,0.195 0.208,0.521 0.599,0.91 1.17,1.17 0.313,0.156 0.624,0.208 0.937,0.156 0.312,-0.026 0.415,-0.091 0.312,-0.195 -0.338,-0.338 -0.741,-0.585 -1.209,-0.741 -0.39,-0.13 -0.52,-0.078 -0.39,0.156 0.104,0.156 0.299,0.221 0.585,0.195 0.099,0.032 0.163,0.052 0.194,0.059 -0.087,0.114 -0.27,0.134 -0.546,0.059 -0.39,-0.13 -0.585,-0.364 -0.585,-0.702 0,-0.131 0.156,-0.144 0.468,-0.039 0.313,0.078 0.585,0.194 0.819,0.351 0.858,0.494 1.209,0.819 1.053,0.976 -0.286,0.286 -0.806,0.247 -1.56,-0.117 -0.806,-0.367 -1.313,-0.9 -1.521,-1.602 z"
   id="path821"
   inkscape:connector-curvature="0" />
	</g>
	<g
   id="g922">
		
			<linearGradient
   id="SVGID_45_"
   gradientUnits="userSpaceOnUse"
   x1="21.987301"
   y1="9.1142998"
   x2="26.3123"
   y2="9.1142998"
   gradientTransform="matrix(0.78,0,0,0.78,19.5498,16.7003)">
			<stop
   offset="0"
   style="stop-color:#D13506"
   id="stop825" />
			<stop
   offset="1"
   style="stop-color:#942B04"
   id="stop827" />
		</linearGradient>
		<path
   style="clip-rule:evenodd;fill:url(#SVGID_45_);fill-rule:evenodd"
   d="m 37.958,22.667 c 0.156,-0.26 0.507,-0.364 1.053,-0.312 0.442,0.025 0.702,0.221 0.78,0.585 0.077,0.546 0.13,0.832 0.155,0.857 0.156,0.234 0.195,0.416 0.117,0.546 -0.052,0.053 -0.221,0.195 -0.507,0.43 -0.182,0.13 -0.377,0.233 -0.585,0.312 -0.312,0.104 -0.481,0.156 -0.507,0.156 -0.156,0.078 -0.39,0.026 -0.702,-0.156 -0.312,-0.156 -0.546,-0.338 -0.702,-0.546 -0.234,-0.26 -0.351,-0.598 -0.351,-1.014 0,-0.053 0.195,-0.183 0.585,-0.391 0.391,-0.207 0.612,-0.363 0.664,-0.467 z"
   id="path830"
   inkscape:connector-curvature="0" />
		
			<linearGradient
   id="SVGID_46_"
   gradientUnits="userSpaceOnUse"
   x1="21.776899"
   y1="11.1514"
   x2="24.3269"
   y2="11.1514"
   gradientTransform="matrix(0.78,0,0,0.78,19.5498,16.7003)">
			<stop
   offset="0"
   style="stop-color:#D13506"
   id="stop832" />
			<stop
   offset="1"
   style="stop-color:#942B04"
   id="stop834" />
		</linearGradient>
		<path
   style="clip-rule:evenodd;fill:url(#SVGID_46_);fill-rule:evenodd"
   d="m 37.997,24.734 c 0.312,0.104 0.494,0.233 0.546,0.39 0.026,0.104 -0.065,0.273 -0.273,0.507 -0.233,0.234 -0.546,0.377 -0.936,0.43 -0.416,0.052 -0.676,-0.039 -0.78,-0.273 -0.078,-0.208 0.091,-0.455 0.507,-0.741 0.416,-0.261 0.728,-0.364 0.936,-0.313 z"
   id="path837"
   inkscape:connector-curvature="0" />
		
			<linearGradient
   id="SVGID_47_"
   gradientUnits="userSpaceOnUse"
   x1="19.8501"
   y1="9.6406002"
   x2="22.9501"
   y2="9.6406002"
   gradientTransform="matrix(0.78,0,0,0.78,19.5498,16.7003)">
			<stop
   offset="0"
   style="stop-color:#D13506"
   id="stop839" />
			<stop
   offset="1"
   style="stop-color:#942B04"
   id="stop841" />
		</linearGradient>
		<path
   style="clip-rule:evenodd;fill:url(#SVGID_47_);fill-rule:evenodd"
   d="m 37.1,23.72 c 0.156,0.078 0.26,0.17 0.312,0.273 0,0.026 0.013,0.143 0.04,0.351 0.026,0.131 -0.078,0.247 -0.313,0.352 -0.312,0.104 -0.559,0.182 -0.741,0.233 -0.234,0.078 -0.533,0.014 -0.897,-0.194 -0.338,-0.182 -0.494,-0.364 -0.468,-0.546 0.026,-0.131 0.182,-0.234 0.468,-0.313 0.364,-0.13 0.585,-0.221 0.663,-0.272 0.13,-0.104 0.247,-0.144 0.351,-0.117 0.104,0.027 0.299,0.103 0.585,0.233 z"
   id="path844"
   inkscape:connector-curvature="0" />
		
			<linearGradient
   id="SVGID_48_"
   gradientUnits="userSpaceOnUse"
   x1="19.5249"
   y1="10.8291"
   x2="21.6749"
   y2="10.8291"
   gradientTransform="matrix(0.78,0,0,0.78,19.5498,16.7003)">
			<stop
   offset="0"
   style="stop-color:#D13506"
   id="stop846" />
			<stop
   offset="1"
   style="stop-color:#942B04"
   id="stop848" />
		</linearGradient>
		<path
   style="clip-rule:evenodd;fill:url(#SVGID_48_);fill-rule:evenodd"
   d="m 36.008,24.383 c 0.468,0.052 0.585,0.273 0.351,0.663 -0.182,0.26 -0.441,0.521 -0.78,0.78 -0.182,0.13 -0.338,0.117 -0.468,-0.039 -0.052,-0.052 -0.156,-0.221 -0.312,-0.507 -0.104,-0.208 -0.013,-0.416 0.273,-0.624 0.286,-0.208 0.597,-0.299 0.936,-0.273 z"
   id="path851"
   inkscape:connector-curvature="0" />
		
			<linearGradient
   id="SVGID_49_"
   gradientUnits="userSpaceOnUse"
   x1="24.7251"
   y1="10.7383"
   x2="26.9751"
   y2="10.7383"
   gradientTransform="matrix(0.78,0,0,0.78,19.5498,16.7003)">
			<stop
   offset="0"
   style="stop-color:#D13506"
   id="stop853" />
			<stop
   offset="1"
   style="stop-color:#942B04"
   id="stop855" />
		</linearGradient>
		<path
   style="clip-rule:evenodd;fill:url(#SVGID_49_);fill-rule:evenodd"
   d="m 40.298,24.578 c 0.286,0.078 0.377,0.234 0.273,0.468 -0.053,0.182 -0.195,0.352 -0.43,0.508 -0.155,0.104 -0.351,0.116 -0.585,0.038 -0.26,-0.104 -0.468,-0.26 -0.624,-0.468 -0.156,-0.208 -0.104,-0.377 0.156,-0.507 0.287,-0.13 0.689,-0.142 1.21,-0.039 z"
   id="path858"
   inkscape:connector-curvature="0" />
		
			<linearGradient
   id="SVGID_50_"
   gradientUnits="userSpaceOnUse"
   x1="26.799801"
   y1="9.1147003"
   x2="31.1998"
   y2="9.1147003"
   gradientTransform="matrix(0.78,0,0,0.78,19.5498,16.7003)">
			<stop
   offset="0"
   style="stop-color:#D13506"
   id="stop860" />
			<stop
   offset="1"
   style="stop-color:#942B04"
   id="stop862" />
		</linearGradient>
		<path
   style="clip-rule:evenodd;fill:url(#SVGID_50_);fill-rule:evenodd"
   d="m 43.691,23.486 c 0.207,0.156 0.259,0.351 0.155,0.585 -0.052,0.13 -0.169,0.325 -0.351,0.585 -0.104,0.182 -0.234,0.286 -0.391,0.312 -0.13,0 -0.39,-0.052 -0.779,-0.155 -0.494,-0.13 -0.884,-0.195 -1.17,-0.195 -0.286,0 -0.521,-0.208 -0.702,-0.624 -0.053,-0.182 0.039,-0.351 0.272,-0.507 0.234,-0.156 0.521,-0.26 0.858,-0.313 l 0.272,-0.429 c 0.078,-0.156 0.352,-0.117 0.819,0.117 0.341,0.182 0.679,0.39 1.017,0.624 z"
   id="path865"
   inkscape:connector-curvature="0" />
		
			<linearGradient
   id="SVGID_51_"
   gradientUnits="userSpaceOnUse"
   x1="31.0874"
   y1="10.4795"
   x2="32.912399"
   y2="10.4795"
   gradientTransform="matrix(0.78,0,0,0.78,19.5498,16.7003)">
			<stop
   offset="0"
   style="stop-color:#D13506"
   id="stop867" />
			<stop
   offset="1"
   style="stop-color:#942B04"
   id="stop869" />
		</linearGradient>
		<path
   style="clip-rule:evenodd;fill:url(#SVGID_51_);fill-rule:evenodd"
   d="m 44.432,24.383 c 0.937,0.078 1.066,0.378 0.39,0.897 -0.13,0.104 -0.299,0.117 -0.507,0.039 -0.208,-0.156 -0.351,-0.26 -0.429,-0.313 -0.13,-0.078 -0.13,-0.208 0,-0.39 0.13,-0.181 0.312,-0.259 0.546,-0.233 z"
   id="path872"
   inkscape:connector-curvature="0" />
		
			<linearGradient
   id="SVGID_52_"
   gradientUnits="userSpaceOnUse"
   x1="21.4624"
   y1="7.9960999"
   x2="22.6374"
   y2="7.9960999"
   gradientTransform="matrix(0.78,0,0,0.78,19.5498,16.7003)">
			<stop
   offset="0"
   style="stop-color:#D13506"
   id="stop874" />
			<stop
   offset="1"
   style="stop-color:#942B04"
   id="stop876" />
		</linearGradient>
		<path
   style="clip-rule:evenodd;fill:url(#SVGID_52_);fill-rule:evenodd"
   d="m 36.983,22.706 c 0.312,0.052 0.364,0.156 0.156,0.313 -0.234,0.182 -0.455,0.208 -0.663,0.078 -0.208,-0.131 -0.234,-0.234 -0.078,-0.313 0.13,-0.078 0.325,-0.104 0.585,-0.078 z"
   id="path879"
   inkscape:connector-curvature="0" />
		
			<linearGradient
   id="SVGID_53_"
   gradientUnits="userSpaceOnUse"
   x1="25.9751"
   y1="9.8480997"
   x2="28.3251"
   y2="9.8480997"
   gradientTransform="matrix(0.78,0,0,0.78,19.5498,16.7003)">
			<stop
   offset="0"
   style="stop-color:#D13506"
   id="stop881" />
			<stop
   offset="1"
   style="stop-color:#942B04"
   id="stop883" />
		</linearGradient>
		<path
   style="clip-rule:evenodd;fill:url(#SVGID_53_);fill-rule:evenodd"
   d="m 41.233,23.915 c 0.286,0.053 0.43,0.286 0.43,0.702 0,0.26 -0.416,0.338 -1.248,0.234 -0.442,-0.026 -0.638,-0.273 -0.585,-0.741 0.052,-0.234 0.52,-0.298 1.403,-0.195 z"
   id="path886"
   inkscape:connector-curvature="0" />
		
			<linearGradient
   id="SVGID_54_"
   gradientUnits="userSpaceOnUse"
   x1="27.5874"
   y1="10.9092"
   x2="30.5124"
   y2="10.9092"
   gradientTransform="matrix(0.78,0,0,0.78,19.5498,16.7003)">
			<stop
   offset="0"
   style="stop-color:#D13506"
   id="stop888" />
			<stop
   offset="1"
   style="stop-color:#942B04"
   id="stop890" />
		</linearGradient>
		<path
   style="clip-rule:evenodd;fill:url(#SVGID_54_);fill-rule:evenodd"
   d="m 42.131,24.306 c 0.754,0.052 1.156,0.272 1.209,0.662 0.052,0.313 -0.078,0.624 -0.39,0.937 -0.208,0.182 -0.364,0.247 -0.469,0.194 -0.312,-0.182 -0.48,-0.272 -0.507,-0.272 -0.208,-0.052 -0.351,-0.156 -0.429,-0.313 -0.13,-0.182 -0.247,-0.312 -0.352,-0.39 -0.233,-0.104 -0.194,-0.272 0.117,-0.507 0.288,-0.234 0.561,-0.338 0.821,-0.311 z"
   id="path893"
   inkscape:connector-curvature="0" />
		
			<linearGradient
   id="SVGID_55_"
   gradientUnits="userSpaceOnUse"
   x1="29.8008"
   y1="12.1108"
   x2="31.2008"
   y2="12.1108"
   gradientTransform="matrix(0.78,0,0,0.78,19.5498,16.7003)">
			<stop
   offset="0"
   style="stop-color:#D13506"
   id="stop895" />
			<stop
   offset="1"
   style="stop-color:#942B04"
   id="stop897" />
		</linearGradient>
		<path
   style="clip-rule:evenodd;fill:url(#SVGID_55_);fill-rule:evenodd"
   d="m 43.729,25.631 c 0.183,0.053 0.234,0.222 0.156,0.508 -0.052,0.285 -0.169,0.493 -0.351,0.623 -0.13,0.131 -0.286,0.04 -0.469,-0.272 -0.182,-0.286 -0.272,-0.546 -0.272,-0.78 10e-4,-0.287 0.312,-0.313 0.936,-0.079 z"
   id="path900"
   inkscape:connector-curvature="0" />
		<path
   style="clip-rule:evenodd;fill:#fc4c00;fill-rule:evenodd"
   d="m 38.465,22.55 c 0.208,0 0.325,0.053 0.351,0.156 l -0.039,0.391 c -0.026,0.155 -0.104,0.246 -0.234,0.272 h -0.429 c -0.156,0.026 -0.273,0 -0.351,-0.078 -0.104,-0.078 -0.117,-0.13 -0.039,-0.156 0.052,-0.052 0.182,-0.155 0.39,-0.312 0.104,-0.156 0.221,-0.247 0.351,-0.273 z"
   id="path902"
   inkscape:connector-curvature="0" />
		<path
   style="clip-rule:evenodd;fill:#fc4c00;fill-rule:evenodd"
   d="m 36.515,23.682 c 0.338,-0.026 0.403,0.13 0.195,0.468 -0.078,0.078 -0.221,0.104 -0.429,0.078 -0.208,0 -0.338,-0.052 -0.39,-0.156 -0.156,-0.209 0.052,-0.339 0.624,-0.39 z"
   id="path904"
   inkscape:connector-curvature="0" />
		<path
   style="clip-rule:evenodd;fill:#fc4c00;fill-rule:evenodd"
   d="m 35.618,24.539 c 0.286,-0.026 0.286,0.13 0,0.468 -0.26,0.313 -0.442,0.313 -0.546,0 -0.052,-0.234 0.13,-0.39 0.546,-0.468 z"
   id="path906"
   inkscape:connector-curvature="0" />
		<path
   style="clip-rule:evenodd;fill:#fc4c00;fill-rule:evenodd"
   d="m 37.763,24.968 c 0.156,0.026 0.221,0.078 0.195,0.156 -0.026,0.052 -0.078,0.117 -0.156,0.195 -0.052,0.078 -0.169,0.143 -0.351,0.194 -0.208,0.026 -0.326,0 -0.352,-0.077 -0.052,-0.078 0,-0.183 0.156,-0.313 0.157,-0.129 0.326,-0.181 0.508,-0.155 z"
   id="path908"
   inkscape:connector-curvature="0" />
		<path
   style="clip-rule:evenodd;fill:#fc4c00;fill-rule:evenodd"
   d="m 39.596,24.656 c 0.156,0.104 0.169,0.221 0.039,0.351 -0.13,0.131 -0.247,0.156 -0.352,0.078 -0.104,-0.078 -0.104,-0.194 0,-0.351 0.078,-0.156 0.183,-0.181 0.313,-0.078 z"
   id="path910"
   inkscape:connector-curvature="0" />
		<path
   style="clip-rule:evenodd;fill:#fc4c00;fill-rule:evenodd"
   d="m 40.648,24.032 c 0.234,0.025 0.247,0.13 0.039,0.312 -0.104,0.104 -0.221,0.156 -0.351,0.156 -0.13,0.026 -0.195,-0.025 -0.195,-0.156 0.001,-0.26 0.17,-0.364 0.507,-0.312 z"
   id="path912"
   inkscape:connector-curvature="0" />
		<path
   style="clip-rule:evenodd;fill:#fc4c00;fill-rule:evenodd"
   d="m 41.857,23.369 c 0.26,-0.026 0.442,0.026 0.546,0.156 0.078,0.104 0.065,0.208 -0.038,0.312 -0.053,0.078 -0.208,0.078 -0.469,0 -0.26,-0.052 -0.454,-0.143 -0.585,-0.272 -0.104,-0.104 -0.078,-0.169 0.078,-0.195 0.105,-0.001 0.26,-0.001 0.468,-0.001 z"
   id="path914"
   inkscape:connector-curvature="0" />
		<path
   style="clip-rule:evenodd;fill:#fc4c00;fill-rule:evenodd"
   d="m 42.248,24.578 c 0.286,0.078 0.39,0.183 0.312,0.313 -0.025,0.077 -0.117,0.207 -0.272,0.39 -0.052,0.104 -0.183,0.117 -0.391,0.039 -0.208,-0.104 -0.312,-0.222 -0.312,-0.352 -0.026,-0.104 0.039,-0.207 0.194,-0.312 0.157,-0.078 0.313,-0.103 0.469,-0.078 z"
   id="path916"
   inkscape:connector-curvature="0" />
		<path
   style="clip-rule:evenodd;fill:#fc4c00;fill-rule:evenodd"
   d="m 43.262,25.709 c 0.156,0 0.234,0.104 0.234,0.313 -0.026,0.233 -0.104,0.299 -0.234,0.195 -0.13,-0.078 -0.182,-0.195 -0.156,-0.352 0.026,-0.13 0.078,-0.181 0.156,-0.156 z"
   id="path918"
   inkscape:connector-curvature="0" />
		<path
   style="clip-rule:evenodd;fill:#fc4c00;fill-rule:evenodd"
   d="m 44.432,24.695 c 0.286,0.025 0.352,0.117 0.195,0.272 -0.13,0.13 -0.247,0.13 -0.351,0 -0.053,-0.052 -0.065,-0.116 -0.04,-0.194 0.027,-0.078 0.092,-0.104 0.196,-0.078 z"
   id="path920"
   inkscape:connector-curvature="0" />
	</g>
	<g
   id="g946">
		<path
   style="clip-rule:evenodd;fill:#659425;fill-rule:evenodd"
   d="m 24.62,24.968 c 0.156,0.078 0.078,0.273 -0.234,0.586 -0.182,0.155 -0.559,0.025 -1.131,-0.391 0.026,-0.078 0.065,-0.156 0.117,-0.234 0.078,-0.182 0.195,-0.272 0.351,-0.272 0.182,-0.001 0.481,0.104 0.897,0.311 z"
   id="path924"
   inkscape:connector-curvature="0" />
		<path
   style="clip-rule:evenodd;fill:#659425;fill-rule:evenodd"
   d="m 28.168,30.936 c 0.286,0.104 0.442,0.169 0.468,0.194 0,0.026 -0.052,0.091 -0.156,0.195 -0.13,0.156 -0.377,0.272 -0.741,0.352 -0.26,-0.156 -0.416,-0.326 -0.468,-0.508 -0.051,-0.338 0.248,-0.416 0.897,-0.233 z"
   id="path926"
   inkscape:connector-curvature="0" />
		<path
   style="clip-rule:evenodd;fill:#659425;fill-rule:evenodd"
   d="m 33.356,32.262 c 0.234,0 0.416,0.052 0.546,0.155 0.156,0.104 0.169,0.208 0.039,0.313 -0.182,0.13 -0.325,0.182 -0.429,0.155 -0.442,-0.052 -0.741,-0.143 -0.897,-0.272 -0.234,-0.235 0.013,-0.351 0.741,-0.351 z"
   id="path928"
   inkscape:connector-curvature="0" />
		<path
   style="clip-rule:evenodd;fill:#659425;fill-rule:evenodd"
   d="m 44.236,32.612 c -0.286,0.391 -0.637,0.585 -1.053,0.585 -0.26,0 -0.377,-0.13 -0.351,-0.39 l 0.117,-0.43 0.078,-0.155 c 0.104,-0.131 0.207,-0.195 0.312,-0.195 0.182,0 0.481,0.196 0.897,0.585 z"
   id="path930"
   inkscape:connector-curvature="0" />
		<path
   style="clip-rule:evenodd;fill:#659425;fill-rule:evenodd"
   d="m 53.479,29.921 c 0.131,0.078 0.183,0.195 0.156,0.352 -0.025,0.156 -0.182,0.272 -0.469,0.351 -0.285,0.078 -0.454,0.091 -0.506,0.039 l -0.039,-0.117 -0.858,-0.896 1.014,-0.039 c 0.183,-0.002 0.417,0.102 0.702,0.31 z"
   id="path932"
   inkscape:connector-curvature="0" />
		<path
   style="clip-rule:evenodd;fill:#659425;fill-rule:evenodd"
   d="m 57.497,24.617 c -0.026,0.468 -0.222,0.688 -0.585,0.663 l -0.897,-0.117 0.508,-0.546 c 0.233,-0.234 0.557,-0.234 0.974,0 z"
   id="path934"
   inkscape:connector-curvature="0" />
		<path
   style="clip-rule:evenodd;fill:#659425;fill-rule:evenodd"
   d="m 58.042,25.748 c 0.521,0.13 0.456,0.377 -0.194,0.741 -0.155,0.078 -0.324,0.013 -0.507,-0.195 l -0.195,-0.351 0.117,-0.039 c 0.338,-0.156 0.597,-0.208 0.779,-0.156 z"
   id="path936"
   inkscape:connector-curvature="0" />
		<path
   style="clip-rule:evenodd;fill:#659425;fill-rule:evenodd"
   d="m 52.7,22.16 c 0.441,0.078 0.559,0.286 0.351,0.624 -0.13,0.208 -0.441,0.247 -0.936,0.117 l 0.038,-0.195 c 0.079,-0.39 0.261,-0.571 0.547,-0.546 z"
   id="path938"
   inkscape:connector-curvature="0" />
		<path
   style="clip-rule:evenodd;fill:#659425;fill-rule:evenodd"
   d="m 48.917,20.873 c 1.04,0.313 0.832,0.585 -0.624,0.819 -0.053,-0.104 -0.026,-0.273 0.078,-0.507 0.077,-0.286 0.26,-0.39 0.546,-0.312 z"
   id="path940"
   inkscape:connector-curvature="0" />
		<path
   style="clip-rule:evenodd;fill:#659425;fill-rule:evenodd"
   d="m 29.456,21.536 c 0.494,0.208 0.611,0.416 0.351,0.624 -0.156,0.13 -0.364,0.169 -0.624,0.117 -0.156,-0.026 -0.312,-0.13 -0.468,-0.313 l -0.156,-0.272 0.195,-0.156 c 0.182,-0.103 0.416,-0.103 0.702,0 z"
   id="path942"
   inkscape:connector-curvature="0" />
		<path
   style="clip-rule:evenodd;fill:#659425;fill-rule:evenodd"
   d="m 47.084,20.522 0.312,0.078 c 0.026,0 0.026,0.025 0,0.078 -0.025,0.077 -0.325,0.246 -0.896,0.507 -0.026,-0.026 -0.039,-0.065 -0.039,-0.117 -0.026,-0.13 -0.013,-0.247 0.039,-0.352 0.078,-0.104 0.194,-0.169 0.351,-0.194 0.077,0 0.155,0 0.233,0 z"
   id="path944"
   inkscape:connector-curvature="0" />
	</g>
</g>

</svg>