<?xml version="1.0" encoding="UTF-8" standalone="no"?>
<!-- Generator: Adobe Illustrator 15.1.0, SVG Export Plug-In . SVG Version: 6.00 Build 0)  -->

<svg
   xmlns:dc="http://purl.org/dc/elements/1.1/"
   xmlns:cc="http://creativecommons.org/ns#"
   xmlns:rdf="http://www.w3.org/1999/02/22-rdf-syntax-ns#"
   xmlns:svg="http://www.w3.org/2000/svg"
   xmlns="http://www.w3.org/2000/svg"
   xmlns:xlink="http://www.w3.org/1999/xlink"
   xmlns:sodipodi="http://sodipodi.sourceforge.net/DTD/sodipodi-0.dtd"
   xmlns:inkscape="http://www.inkscape.org/namespaces/inkscape"
   version="1.1"
   id="FlashAICB"
   x="0px"
   y="0px"
   width="256"
   height="256"
   viewBox="0 0 255.99999 256"
   xml:space="preserve"
   sodipodi:docname="cornbread.svg"
   inkscape:version="0.92.4 (5da689c313, 2019-01-14)"><title
   id="title934">Cornbread</title><metadata
   id="metadata127"><rdf:RDF><cc:Work
       rdf:about=""><dc:format>image/svg+xml</dc:format><dc:type
         rdf:resource="http://purl.org/dc/dcmitype/StillImage" /><dc:title>Cornbread</dc:title><cc:license
         rdf:resource="http://creativecommons.org/publicdomain/zero/1.0/" /><dc:creator><cc:Agent><dc:title>Glitch</dc:title></cc:Agent></dc:creator><dc:source>https://opengameart.org/node/20149</dc:source></cc:Work><cc:License
       rdf:about="http://creativecommons.org/publicdomain/zero/1.0/"><cc:permits
         rdf:resource="http://creativecommons.org/ns#Reproduction" /><cc:permits
         rdf:resource="http://creativecommons.org/ns#Distribution" /><cc:permits
         rdf:resource="http://creativecommons.org/ns#DerivativeWorks" /></cc:License></rdf:RDF></metadata><defs
   id="defs125" /><sodipodi:namedview
   pagecolor="#ffffff"
   bordercolor="#666666"
   borderopacity="1"
   objecttolerance="10"
   gridtolerance="10"
   guidetolerance="10"
   inkscape:pageopacity="0"
   inkscape:pageshadow="2"
   inkscape:window-width="1920"
   inkscape:window-height="1025"
   id="namedview123"
   showgrid="false"
   inkscape:zoom="1.5295802"
   inkscape:cx="155.48507"
   inkscape:cy="108.648"
   inkscape:window-x="-8"
   inkscape:window-y="-8"
   inkscape:window-maximized="1"
   inkscape:current-layer="FlashAICB"
   fit-margin-top="0"
   fit-margin-left="0"
   fit-margin-right="0"
   fit-margin-bottom="0" />
<symbol
   id="_x34_"
   viewBox="0 -19.45 28.504 19.452"
   transform="translate(0,236.55)">
	<g
   id="Layer_1_2_">
		<path
   style="clip-rule:evenodd;fill:#f2e396;fill-rule:evenodd"
   d="m 11.25,-1.55 c 0.5,0.1 0.967,0.233 1.4,0.4 0.167,-0.067 0.333,-0.067 0.5,0 l 0.55,0.5 c 0.333,0.067 0.583,0.033 0.75,-0.1 0.3,0.633 0.684,0.867 1.15,0.7 l 0.05,-0.3 c 0.2,-0.1 0.417,-0.1 0.65,0 0.267,0.1 0.483,0.133 0.65,0.1 L 17,-0.5 c 0.267,0.3 0.566,0.383 0.9,0.25 l 0.05,-0.3 c 0.133,0.1 0.383,0.15 0.75,0.15 0.3,0 0.567,-0.117 0.8,-0.35 0.267,-0.066 0.533,-0.066 0.8,0 0.2,-0.066 0.35,-0.2 0.45,-0.4 0.033,-0.2 0.15,-0.317 0.35,-0.35 0.167,-0.1 0.417,-0.117 0.75,-0.05 0.3,-0.067 0.566,-0.184 0.8,-0.35 0.133,-0.1 0.3,-0.267 0.5,-0.5 0.233,-0.267 0.4,-0.433 0.5,-0.5 0.1,-0.033 0.567,-0.067 1.4,-0.1 0.7,0 1.067,-0.133 1.1,-0.4 0.067,0 0.233,-0.017 0.5,-0.05 v -0.2 c 0.333,0 0.617,-0.117 0.85,-0.35 0.233,-0.233 0.25,-0.483 0.05,-0.75 L 27.6,-4.8 c 0.233,-0.067 0.367,-0.184 0.4,-0.35 0,-0.033 0,-0.233 0,-0.6 0.033,-0.133 -0.017,-0.316 -0.15,-0.55 0,-0.033 0.033,-0.15 0.1,-0.35 0.067,-0.133 0.067,-0.267 0,-0.4 l -0.3,-0.05 c 0.333,-0.533 0.417,-0.966 0.25,-1.3 0.2,-0.133 0.3,-0.367 0.3,-0.7 0,-0.167 -0.017,-0.433 -0.05,-0.8 v -1.25 c -0.033,-0.167 -0.133,-0.35 -0.3,-0.55 0.733,-0.8 0.85,-1.6 0.35,-2.4 -0.1,-0.167 -0.3,-0.35 -0.6,-0.55 -0.3,-0.2 -0.55,-0.333 -0.75,-0.4 H 25.8 l -0.1,-0.05 c -0.133,-0.066 -0.333,-0.216 -0.6,-0.45 -0.233,-0.233 -0.467,-0.383 -0.7,-0.45 -0.167,-0.033 -0.417,-0.05 -0.75,-0.05 -0.333,0 -0.6,-0.05 -0.8,-0.15 -0.167,-0.067 -0.35,-0.217 -0.55,-0.45 -0.3,-0.267 -0.483,-0.433 -0.55,-0.5 -0.233,-0.133 -0.483,-0.233 -0.75,-0.3 -0.5,-0.067 -0.767,-0.1 -0.8,-0.1 -0.167,-0.033 -0.466,-0.15 -0.9,-0.35 -0.333,-0.133 -0.667,-0.2 -1,-0.2 -0.333,0 -0.717,-0.083 -1.15,-0.25 -0.5,-0.2 -0.9,-0.3 -1.2,-0.3 -0.433,-0.033 -0.917,-0.15 -1.45,-0.35 l -0.6,-0.25 -0.35,0.15 c -0.767,-0.2 -1.4,-0.316 -1.9,-0.35 l 0.25,0.3 h -0.05 c -0.2,-0.2 -0.417,-0.3 -0.65,-0.3 -0.5,0 -0.75,0.167 -0.75,0.5 -0.466,-0.167 -0.833,-0.184 -1.1,-0.05 -0.1,0 -0.2,0.067 -0.3,0.2 -0.1,0.167 -0.2,0.267 -0.3,0.3 l -0.8,0.05 -1.1,0.55 c -0.133,0.033 -0.434,0.217 -0.9,0.55 -0.8,0.534 -1.383,0.85 -1.75,0.95 -0.433,0 -0.75,0.017 -0.95,0.05 l -0.2,0.3 c -0.1,0.033 -0.4,0.05 -0.9,0.05 -0.067,0.267 -0.1,0.45 -0.1,0.55 -0.333,0.066 -0.55,0.1 -0.65,0.1 l -0.05,0.45 c -0.267,-0.033 -0.45,0 -0.55,0.1 -0.066,0.066 -0.133,0.233 -0.2,0.5 0.033,0.267 0.033,0.467 0,0.6 -0.233,0.267 -0.367,0.433 -0.4,0.5 -0.1,0.1 -0.167,0.25 -0.2,0.45 0,0.1 0.066,0.184 0.2,0.25 0.133,0.133 0.2,0.233 0.2,0.3 0.033,0.133 0,0.3 -0.1,0.5 -0.066,0.2 -0.1,0.35 -0.1,0.45 0.167,0.9 0.25,1.583 0.25,2.05 0.1,0.133 0.133,0.267 0.1,0.4 0,0.1 -0.05,0.233 -0.15,0.4 -0.133,0.133 -0.2,0.266 -0.2,0.4 0,0.1 0.117,0.333 0.35,0.7 -0.4,0.167 -0.5,0.4 -0.3,0.7 0.3,0.333 0.467,0.567 0.5,0.7 0.033,0.1 0.017,0.233 -0.05,0.4 -0.066,0.2 -0.1,0.333 -0.1,0.4 l -0.2,0.15 c -0.033,0.2 0.017,0.333 0.15,0.4 0.067,0.033 0.217,0.083 0.45,0.15 0.267,-0.033 0.45,-0.017 0.55,0.05 0.167,0.067 0.233,0.233 0.2,0.5 0.367,0.233 0.983,0.35 1.85,0.35 0.867,-0.033 1.483,0.05 1.85,0.25 -0.033,0.067 0,0.133 0.1,0.2 0.433,-0.067 0.883,-0.017 1.35,0.15 0.2,0.067 0.45,0.217 0.75,0.45 0.233,0.133 0.467,0.133 0.7,0 0.1,0.233 0.5,0.4 1.2,0.5 h 0.95 c 0.2,0.066 0.45,0.2 0.75,0.4 z"
   id="path2"
   inkscape:connector-curvature="0" />
		<path
   style="clip-rule:evenodd;fill:#d5c476;fill-rule:evenodd"
   d="m 13.8,-8 c 0.1,0.167 0.2,0.283 0.3,0.35 L 14.05,-8 Z"
   id="path4"
   inkscape:connector-curvature="0" />
		<path
   style="clip-rule:evenodd;fill:#d5c476;fill-rule:evenodd"
   d="m 21.55,-8.601 -0.4,-0.15 c -0.2,-0.133 -0.25,-0.267 -0.15,-0.4 0.566,-0.067 0.8,0.117 0.7,0.55 z m -3.1,-5.149 0.1,0.55 c -0.233,0.033 -0.45,-0.017 -0.65,-0.15 -0.233,-0.133 -0.35,-0.3 -0.35,-0.5 -0.033,-0.4 0.2,-0.566 0.7,-0.5 z M 16.4,-12 c -0.5,-0.133 -0.9,-0.267 -1.2,-0.4 -0.6,-0.267 -0.6,-0.517 0,-0.75 0.434,-0.267 0.833,-0.3 1.2,-0.1 0.167,0.1 0.35,0.517 0.55,1.25 z m 1.35,1.2 c -0.333,0.066 -0.567,0.1 -0.7,0.1 -0.033,-0.2 0.1,-0.383 0.4,-0.55 0.167,-0.1 0.467,-0.2 0.9,-0.3 0.433,-0.1 0.716,-0.117 0.85,-0.05 0.467,0.233 0.7,0.817 0.7,1.75 l -1,-0.35 c -0.167,-0.233 -0.317,-0.383 -0.45,-0.45 -0.167,-0.134 -0.4,-0.183 -0.7,-0.15 z m -0.15,3.15 c -0.167,-0.067 -0.6,-0.167 -1.3,-0.3 -0.5,-0.067 -0.7,-0.2 -0.6,-0.4 0.067,-0.1 0.284,-0.167 0.65,-0.2 0.333,-0.033 0.566,-0.017 0.7,0.05 0.233,0.133 0.417,0.417 0.55,0.85 z m -2.7,0 h 0.35 L 16,-7.75 c 0.7,-0.066 1.25,0.017 1.65,0.25 L 17.6,-7.65 c 0.167,0.1 0.267,0.217 0.3,0.35 l 0.15,0.2 c 0.434,0.034 1.083,0.05 1.95,0.05 l 0.1,0.35 0.7,0.05 v -0.1 l 0.2,0.1 h 0.1 C 21.033,-6.783 20.933,-6.867 20.8,-6.9 20.6,-6.933 20.45,-6.967 20.35,-7 L 20.1,-7.1 c -0.133,-0.133 -0.1,-0.267 0.1,-0.4 0.3,-0.233 0.7,-0.233 1.2,0 0.367,0.133 0.483,0.533 0.35,1.2 l 0.7,0.4 c 0.2,-0.067 0.4,-0.067 0.6,0 0.2,0.067 0.45,0.2 0.75,0.4 0.133,0.033 0.367,0.033 0.7,0 0.3,-0.066 0.533,-0.066 0.7,0 0.167,0.033 0.3,0.117 0.4,0.25 0.133,0.133 0.267,0.216 0.4,0.25 0.2,0.033 0.4,0.033 0.6,0 h -0.05 c -0.066,-0.066 -0.333,-0.283 -0.8,-0.65 -0.367,-0.4 -0.434,-0.667 -0.2,-0.8 0.133,-0.1 0.367,-0.133 0.7,-0.1 0.267,0 0.483,0.05 0.65,0.15 0.433,0.2 0.65,0.717 0.65,1.55 l 0.05,0.05 c 0.233,-0.067 0.367,-0.184 0.4,-0.35 0,-0.033 0,-0.233 0,-0.6 0.033,-0.133 -0.017,-0.316 -0.15,-0.55 0,-0.033 0.033,-0.15 0.1,-0.35 0.067,-0.133 0.067,-0.267 0,-0.4 l -0.3,-0.05 c 0.067,-0.133 0.167,-0.316 0.3,-0.55 -0.066,-0.267 -0.167,-0.417 -0.3,-0.45 H 27.3 C 27.2,-8.133 27.1,-8.25 27,-8.45 26.833,-8.517 26.65,-8.533 26.45,-8.5 c -0.233,0.067 -0.367,0.184 -0.4,0.35 0.033,0.3 -0.017,0.517 -0.15,0.65 -0.167,-0.1 -0.25,-0.283 -0.25,-0.55 -0.067,-0.367 -0.117,-0.583 -0.15,-0.65 -0.1,-0.2 -0.267,-0.317 -0.5,-0.35 -0.267,0 -0.483,0 -0.65,0 -0.034,-0.2 0.216,-0.383 0.75,-0.55 0.5,-0.167 0.933,-0.216 1.3,-0.15 v -0.65 l -0.3,-0.3 c -0.067,-0.133 -0.117,-0.4 -0.15,-0.8 -0.1,-0.333 -0.267,-0.533 -0.5,-0.6 -0.2,0.2 -0.3,0.483 -0.3,0.85 -0.033,-0.2 -0.133,-0.483 -0.3,-0.85 l -0.35,-1.05 c -0.2,0.033 -0.35,-0.033 -0.45,-0.2 0,-0.033 -0.066,-0.216 -0.2,-0.55 -0.167,-0.4 -0.434,-0.617 -0.8,-0.65 -0.267,0 -0.45,0.033 -0.55,0.1 -0.067,0.1 0.017,0.183 0.25,0.25 0.267,0.1 0.417,0.183 0.45,0.25 0.067,0.133 0.067,0.3 0,0.5 -0.066,0.167 -0.167,0.283 -0.3,0.35 -0.2,-0.4 -0.4,-0.65 -0.6,-0.75 -0.233,-0.167 -0.55,-0.15 -0.95,0.05 0.3,0.5 0.383,1.217 0.25,2.15 -0.167,-0.2 -0.333,-0.567 -0.5,-1.1 -0.167,-0.533 -0.35,-0.9 -0.55,-1.1 -0.1,-0.1 -0.417,-0.233 -0.95,-0.4 0.2,-0.1 0.417,-0.133 0.65,-0.1 0.133,0 0.333,0.034 0.6,0.1 -0.034,-0.133 -0.067,-0.316 -0.1,-0.55 -0.033,-0.2 -0.117,-0.367 -0.25,-0.5 -0.133,-0.1 -0.367,-0.233 -0.7,-0.4 -0.133,-0.133 -0.267,-0.3 -0.4,-0.5 -0.167,-0.133 -0.367,-0.217 -0.6,-0.25 -0.433,0 -0.667,0.083 -0.7,0.25 0.133,0.033 0.383,0.117 0.75,0.25 0,0.133 -0.1,0.233 -0.3,0.3 -0.2,0.033 -0.367,0.033 -0.5,0 -0.133,0 -0.2,-0.067 -0.2,-0.2 -0.133,-0.133 -0.3,-0.316 -0.5,-0.55 -0.2,-0.2 -0.417,-0.333 -0.65,-0.4 -0.267,-0.067 -0.483,-0.083 -0.65,-0.05 -0.267,-0.1 -0.467,-0.167 -0.6,-0.2 -0.233,-0.067 -0.45,-0.033 -0.65,0.1 0.033,0.1 0.184,0.25 0.45,0.45 0.233,0.167 0.333,0.35 0.3,0.55 -0.033,-0.1 -0.133,-0.15 -0.3,-0.15 -0.2,0 -0.333,-0.033 -0.4,-0.1 -0.133,-0.1 -0.25,-0.25 -0.35,-0.45 h -0.8 c -0.033,-0.2 -0.033,-0.583 0,-1.15 0,-0.5 -0.033,-0.883 -0.1,-1.15 h -0.15 l -0.15,-0.2 -1.65,-0.3 0.25,0.3 h -0.05 c -0.2,-0.2 -0.417,-0.3 -0.65,-0.3 -0.5,0 -0.75,0.167 -0.75,0.5 -0.466,-0.167 -0.833,-0.184 -1.1,-0.05 -0.1,0 -0.2,0.067 -0.3,0.2 -0.1,0.167 -0.2,0.267 -0.3,0.3 l -0.8,0.05 -1.1,0.55 c -0.133,0.033 -0.434,0.217 -0.9,0.55 -0.8,0.534 -1.383,0.85 -1.75,0.95 l -0.05,0.05 1.6,-0.05 c -0.067,-0.5 0.05,-0.667 0.35,-0.5 0.333,0.3 0.533,0.483 0.6,0.55 0.233,0.167 0.517,0.267 0.85,0.3 0.2,0 0.533,0.017 1,0.05 0.133,0.233 0.217,0.4 0.25,0.5 0.3,-0.233 0.267,-0.483 -0.1,-0.75 -0.167,-0.133 -0.45,-0.3 -0.85,-0.5 0.167,-0.233 0.45,-0.35 0.85,-0.35 0.434,-0.033 0.717,-0.1 0.85,-0.2 0.033,-0.033 0.067,-0.184 0.1,-0.45 0.067,-0.267 0.15,-0.433 0.25,-0.5 0.2,-0.133 0.467,-0.15 0.8,-0.05 l 0.45,0.25 c 0,-0.467 0.167,-0.633 0.5,-0.5 0.5,0.167 0.75,0.683 0.75,1.55 l -0.2,1.25 c 0,-0.633 -0.183,-1.083 -0.55,-1.35 l -0.35,-0.3 -0.05,0.05 c -0.067,0.167 -0.2,0.317 -0.4,0.45 -0.233,0.133 -0.383,0.267 -0.45,0.4 0.3,0.133 0.517,0.4 0.65,0.8 0.167,0.367 0.184,0.716 0.05,1.05 -0.067,0.2 -0.4,0.333 -1,0.4 -0.567,0.067 -0.867,0.317 -0.9,0.75 0.133,0.033 0.417,0.017 0.85,-0.05 0.4,-0.033 0.7,0 0.9,0.1 0.233,0.133 0.383,0.417 0.45,0.85 0.267,-0.066 0.517,-0.066 0.75,0 v -0.15 c -0.033,-0.1 -0.283,-0.316 -0.75,-0.65 -0.2,-0.167 -0.633,-0.283 -1.3,-0.35 0.033,-0.233 0.35,-0.35 0.95,-0.35 0.1,0 0.333,0.133 0.7,0.4 0.2,-0.3 0.583,-0.45 1.15,-0.45 0.567,0 0.8,0.217 0.7,0.65 -0.367,0 -0.567,0.15 -0.6,0.45 -0.033,0.133 0,0.433 0.1,0.9 0.2,0.233 0.417,0.617 0.65,1.15 0.267,0.633 0.45,1.017 0.55,1.15 l -1.15,1.15 c 0.5,0.1 0.8,0.333 0.9,0.7 h 0.8 z"
   id="path6"
   inkscape:connector-curvature="0" />
		<path
   style="clip-rule:evenodd;fill:#d5c476;fill-rule:evenodd"
   d="m 5.1,-8.55 c 0.233,0.133 0.45,0.383 0.65,0.75 L 5.55,-8.4 C 5.417,-8.5 5.267,-8.55 5.1,-8.55 Z"
   id="path8"
   inkscape:connector-curvature="0" />
		<path
   style="clip-rule:evenodd;fill:#d5c476;fill-rule:evenodd"
   d="m 3.85,-8.4 c 0.033,0 0.25,-0.05 0.65,-0.15 0.233,-0.033 0.433,-0.033 0.6,0 -0.467,-0.367 -0.883,-0.5 -1.25,-0.4 -0.034,0.166 -0.034,0.349 0,0.55 z"
   id="path10"
   inkscape:connector-curvature="0" />
		<path
   style="clip-rule:evenodd;fill:#d5c476;fill-rule:evenodd"
   d="m 4.4,-10.75 c 0.233,-0.5 0.7,-0.6 1.4,-0.3 0.7,0.267 1.117,0.65 1.25,1.15 l 0.8,-0.8 c 0.066,-0.8 -0.517,-1.2 -1.75,-1.2 -1.267,0 -1.833,0.383 -1.7,1.15 z"
   id="path12"
   inkscape:connector-curvature="0" />
		<path
   style="clip-rule:evenodd;fill:#d5c476;fill-rule:evenodd"
   d="m 4.3,-12.601 c -0.167,-0.367 -0.483,-0.566 -0.95,-0.6 -0.5,-0.034 -0.733,0.15 -0.7,0.55 0.133,-0.267 0.383,-0.367 0.75,-0.3 0.2,0.067 0.5,0.184 0.9,0.35 z"
   id="path14"
   inkscape:connector-curvature="0" />
		<path
   style="clip-rule:evenodd;fill:#d5c476;fill-rule:evenodd"
   d="m 0.6,-13.7 -0.05,0.05 c 0.633,0.2 1.1,0.683 1.4,1.45 0,-1.133 -0.433,-1.9 -1.3,-2.3 l -0.05,0.2 c 0.033,0.266 0.033,0.467 0,0.6 z"
   id="path16"
   inkscape:connector-curvature="0" />
		<path
   style="clip-rule:evenodd;fill:#d5c476;fill-rule:evenodd"
   d="m 3.6,-16 c -0.467,-0.1 -0.95,-0.033 -1.45,0.2 l -0.1,0.325 c 0.333,-0.051 0.649,0.074 0.95,0.375 0.3,0.233 0.517,0.55 0.65,0.95 0,-1.034 -0.017,-1.65 -0.05,-1.85 z"
   id="path18"
   inkscape:connector-curvature="0" />
		<path
   style="clip-rule:evenodd;fill:#d5c476;fill-rule:evenodd"
   d="m 7.65,-14.65 c -0.233,-0.067 -0.583,-0.067 -1.05,0 -0.5,0.067 -0.85,0.117 -1.05,0.15 h 1.7 c 0.033,0.133 0.066,0.233 0.1,0.3 0.033,0.066 0.117,0.1 0.25,0.1 0.067,-0.267 0.083,-0.45 0.05,-0.55 z"
   id="path20"
   inkscape:connector-curvature="0" />
		<path
   style="clip-rule:evenodd;fill:#d5c476;fill-rule:evenodd"
   d="m 4.15,-6.7 c 0.5,0 0.783,-0.017 0.85,-0.05 l 0.7,-0.4 C 5.133,-7.083 4.617,-6.934 4.15,-6.7 Z"
   id="path22"
   inkscape:connector-curvature="0" />
		<path
   style="clip-rule:evenodd;fill:#d5c476;fill-rule:evenodd"
   d="m 8.2,-7.75 c 0.333,0.033 0.65,-0.033 0.95,-0.2 L 9.8,-8.1 h 0.1 c 1.7,-0.633 2.667,-0.716 2.9,-0.25 l 1.5,-1.5 c -0.1,-0.133 -0.283,-0.517 -0.55,-1.15 -0.233,-0.533 -0.45,-0.917 -0.65,-1.15 l 0.05,0.6 c -0.233,0.467 -0.35,0.816 -0.35,1.05 0.067,0.3 0.117,0.55 0.15,0.75 H 12.8 l -0.5,-0.1 c 0.033,-0.333 0,-0.583 -0.1,-0.75 -0.066,-0.133 -0.15,-0.283 -0.25,-0.45 -0.033,-0.167 0,-0.434 0.1,-0.8 0.1,-0.366 0.133,-0.617 0.1,-0.75 -0.233,-0.066 -0.483,-0.066 -0.75,0 -0.367,0.034 -0.733,0.15 -1.1,0.35 -0.6,0.267 -0.867,0.55 -0.8,0.85 0.133,0.267 0.316,0.483 0.55,0.65 0.233,0.1 0.367,0.184 0.4,0.25 0.1,0.1 0.133,0.267 0.1,0.5 -0.066,0.4 -0.283,0.65 -0.65,0.75 C 9.4,-9.117 9.033,-9.167 8.8,-9.4 8.767,-9.667 8.65,-9.75 8.45,-9.65 c 0,0.467 -0.05,0.733 -0.15,0.8 -0.267,0.034 -0.467,0.117 -0.6,0.25 l -0.05,0.35 c -0.1,0.2 -0.433,0.3 -1,0.3 -0.4,0.033 -0.6,0.25 -0.6,0.65 0.2,-0.1 0.417,-0.15 0.65,-0.15 0.4,0.066 0.617,0.1 0.65,0.1 0,-0.334 0.283,-0.467 0.85,-0.4 z"
   id="path24"
   inkscape:connector-curvature="0" />
		<path
   style="clip-rule:evenodd;fill:#d5c476;fill-rule:evenodd"
   d="m 15.15,-6.351 c -0.7,-0.167 -1.017,-0.117 -0.95,0.15 0.133,0 0.3,0.05 0.5,0.15 0.2,0.1 0.317,0.2 0.35,0.3 -0.1,0.267 -0.15,0.451 -0.15,0.551 l 0.8,-0.4 c 0.033,-0.3 -0.15,-0.55 -0.55,-0.751 z"
   id="path26"
   inkscape:connector-curvature="0" />
		<path
   style="clip-rule:evenodd;fill:#d5c476;fill-rule:evenodd"
   d="m 13.7,-4.101 0.1,-0.25 c -0.167,-0.3 -0.367,-0.517 -0.6,-0.65 -0.167,-0.066 -0.333,-0.05 -0.5,0.05 -0.2,0.066 -0.283,0.183 -0.25,0.35 0.067,0 0.217,0 0.45,0 0.167,0 0.3,0.034 0.4,0.1 z"
   id="path28"
   inkscape:connector-curvature="0" />
		<path
   style="clip-rule:evenodd;fill:#d5c476;fill-rule:evenodd"
   d="M 19.8,-1.9 C 19.667,-2 19.4,-2.034 19,-2 c -0.4,0.067 -0.633,0.167 -0.7,0.3 0.2,0.066 0.467,0.15 0.8,0.25 0.233,0.1 0.35,0.3 0.35,0.6 l 0.25,0.1 0.25,-0.05 c 0.1,-0.634 0.05,-1 -0.15,-1.1 z"
   id="path30"
   inkscape:connector-curvature="0" />
		<path
   style="clip-rule:evenodd;fill:#d5c476;fill-rule:evenodd"
   d="m 21.55,-3 c -0.033,0.033 -0.033,0.083 0,0.15 0.133,0 0.4,0.034 0.8,0.1 0.4,0.033 0.7,0.117 0.9,0.25 l 0.4,-0.4 0.35,-0.05 c -0.233,-0.1 -0.517,-0.15 -0.85,-0.15 -0.733,-10e-4 -1.267,0.033 -1.6,0.1 z"
   id="path32"
   inkscape:connector-curvature="0" />
		<path
   style="clip-rule:evenodd;fill:#d5c476;fill-rule:evenodd"
   d="m 24.2,-3.9 c 0.1,0.167 0.333,0.267 0.7,0.3 0.467,0.067 0.733,0.117 0.8,0.15 0.167,0.066 0.25,0.167 0.25,0.3 l 0.2,-0.25 c 0.067,0 0.233,-0.017 0.5,-0.05 -0.233,-0.334 -0.417,-0.55 -0.55,-0.651 -0.233,-0.133 -0.55,-0.167 -0.95,-0.1 -0.4,0.034 -0.717,0.134 -0.95,0.301 z"
   id="path34"
   inkscape:connector-curvature="0" />
		<path
   style="clip-rule:evenodd;fill:#d5c476;fill-rule:evenodd"
   d="m 19.35,-5.601 c -0.434,-0.033 -0.617,0.083 -0.55,0.35 0.067,0 0.283,-0.017 0.65,-0.05 0.367,-0.033 0.567,0 0.6,0.1 0.067,0.2 -0.167,0.367 -0.7,0.5 0.033,0.133 0.167,0.216 0.4,0.25 0.2,0.066 0.367,0.066 0.5,0 0.133,-0.034 0.25,-0.133 0.35,-0.3 0.033,-0.066 0.083,-0.217 0.15,-0.45 0.267,0 0.717,0.017 1.35,0.05 0.1,-0.033 0.183,-0.067 0.25,-0.1 0.033,0 0.066,-0.083 0.1,-0.25 v -0.45 l -0.7,-0.35 -0.05,0.101 -0.55,0.25 c 0.1,-0.133 0.117,-0.3 0.05,-0.5 L 21.15,-6.6 21,-6.65 20.8,-6.75 v 0.1 c 0.3,0.733 0.117,1.117 -0.55,1.15 -0.367,-0.067 -0.667,-0.101 -0.9,-0.101 z"
   id="path36"
   inkscape:connector-curvature="0" />
		<path
   style="clip-rule:evenodd;fill:#d5c476;fill-rule:evenodd"
   d="m 16.9,-2.851 0.75,0.15 c 0,-0.567 -0.133,-0.9 -0.4,-1 -0.2,-0.067 -0.417,-0.067 -0.65,0 -0.267,0.066 -0.4,0.183 -0.4,0.35 0,0.133 0.15,0.233 0.45,0.3 0.233,0.067 0.317,0.134 0.25,0.2 z"
   id="path38"
   inkscape:connector-curvature="0" />
		<path
   style="clip-rule:evenodd;fill:#d5c476;fill-rule:evenodd"
   d="m 9,-4.4 c -0.033,0.067 -0.133,0.133 -0.3,0.2 -0.2,0.066 -0.317,0.133 -0.35,0.2 0.633,0 1.033,0.1 1.2,0.3 H 9.7 C 9.433,-4.1 9.267,-4.317 9.2,-4.35 Z"
   id="path40"
   inkscape:connector-curvature="0" />
		<path
   style="clip-rule:evenodd;fill:#d5c476;fill-rule:evenodd"
   d="M 8.75,-2.95 8.35,-2.8 H 8.3 l -0.4,0.2 0.05,0.1 c 0.1,0 0.317,0 0.65,0 0.267,0 0.383,-0.1 0.35,-0.3 0,-0.1 -0.067,-0.15 -0.2,-0.15 z"
   id="path42"
   inkscape:connector-curvature="0" />
		<path
   style="clip-rule:evenodd;fill:#d5c476;fill-rule:evenodd"
   d="m 9.45,-5.2 c 0.3,0 0.467,-0.067 0.5,-0.2 C 10.017,-5.634 9.967,-5.833 9.8,-6 9.733,-6.067 9.5,-6.083 9.1,-6.05 8.667,-6.017 8.417,-6 8.35,-6 8.017,-5.934 7.8,-5.867 7.7,-5.8 c 0.267,0.2 0.633,0.383 1.1,0.55 z"
   id="path44"
   inkscape:connector-curvature="0" />
		<path
   style="clip-rule:evenodd;fill:#d5c476;fill-rule:evenodd"
   d="m 11.2,-7 0.45,-0.1 c 0.233,-0.066 0.25,-0.167 0.05,-0.3 -0.167,-0.133 -0.35,-0.167 -0.55,-0.1 -0.167,0.067 -0.25,0.15 -0.25,0.25 0,0.133 0.1,0.216 0.3,0.25 z"
   id="path46"
   inkscape:connector-curvature="0" />
		<path
   style="clip-rule:evenodd;fill:#fff5bd;fill-rule:evenodd"
   d="m 5.2,-6.15 c 0.467,-0.033 0.833,-0.133 1.1,-0.3 0.233,-0.133 0.617,-0.233 1.15,-0.3 0.2,-0.033 0.483,-0.15 0.85,-0.35 0.133,-0.033 0.35,-0.066 0.65,-0.1 0.3,-0.034 0.517,-0.083 0.65,-0.15 0.2,-0.1 0.45,-0.3 0.75,-0.6 0.066,-0.034 0.35,-0.067 0.85,-0.1 0.467,-0.067 0.65,-0.184 0.55,-0.35 -0.067,-0.167 -0.267,-0.15 -0.6,0.05 -0.367,0.2 -0.584,0.316 -0.65,0.35 L 10.15,-8.1 H 9.8 l -0.65,0.15 c -0.3,0.167 -0.617,0.233 -0.95,0.2 -0.566,-0.066 -0.85,0.067 -0.85,0.4 -0.034,0 -0.25,-0.033 -0.65,-0.1 -0.233,0 -0.45,0.05 -0.65,0.15 L 5.7,-7.15 5,-6.75 C 4.933,-6.717 4.65,-6.7 4.15,-6.7 L 3.5,-6.6 3,-6.25 c -0.233,-0.033 -0.4,-0.033 -0.5,0 -0.267,0 -0.567,0.083 -0.9,0.25 0.066,0.2 0.25,0.3 0.55,0.3 L 0.65,-5.35 0.6,-5.101 0.4,-4.95 c 0,0.167 0.05,0.3 0.15,0.4 0.367,-0.133 0.717,-0.367 1.05,-0.7 0.2,-0.167 0.433,-0.25 0.7,-0.25 h 0.4 l 0.35,-0.15 1.05,-0.3 c 0.133,-0.034 0.5,-0.1 1.1,-0.2 z"
   id="path48"
   inkscape:connector-curvature="0" />
		<path
   style="clip-rule:evenodd;fill:#fff5bd;fill-rule:evenodd"
   d="M 1.6,-6 1.55,-6.5 C 1.517,-6.733 1.433,-6.85 1.3,-6.85 1.267,-6.85 1.1,-6.816 0.8,-6.75 0.733,-6.984 0.833,-7.134 1.1,-7.2 1.267,-7.267 1.5,-7.317 1.8,-7.35 1.734,-7.517 1.567,-7.717 1.3,-7.95 1.367,-8.017 1.533,-8.067 1.8,-8.1 2,-8.1 2.117,-8.217 2.15,-8.45 2.15,-8.683 2.067,-8.817 1.9,-8.85 1.733,-8.917 1.6,-8.867 1.5,-8.7 1.467,-8.767 1.517,-9.034 1.65,-9.5 1.717,-9.767 1.566,-9.917 1.2,-9.95 l -0.1,-0.9 c 0.033,-0.233 0.033,-0.367 0,-0.4 0,-0.066 -0.117,-0.167 -0.35,-0.3 0.167,-0.067 0.433,-0.1 0.8,-0.1 0.233,-0.067 0.233,-0.267 0,-0.6 -0.133,-0.167 -0.367,-0.333 -0.7,-0.5 -0.133,-0.1 -0.333,-0.267 -0.6,-0.5 L 0.2,-13.2 c -0.1,0.1 -0.167,0.25 -0.2,0.45 0,0.1 0.066,0.184 0.2,0.25 0.133,0.133 0.2,0.233 0.2,0.3 0.033,0.133 0,0.3 -0.1,0.5 -0.066,0.2 -0.1,0.35 -0.1,0.45 0.167,0.9 0.25,1.583 0.25,2.05 0.1,0.133 0.133,0.267 0.1,0.4 0,0.1 -0.05,0.233 -0.15,0.4 -0.133,0.133 -0.2,0.266 -0.2,0.4 0,0.1 0.117,0.333 0.35,0.7 -0.4,0.167 -0.5,0.4 -0.3,0.7 0.3,0.333 0.467,0.567 0.5,0.7 0,0.033 -0.033,0.217 -0.1,0.55 L 2.15,-5.7 C 1.85,-5.7 1.667,-5.8 1.6,-6 Z"
   id="path50"
   inkscape:connector-curvature="0" />
		<path
   style="clip-rule:evenodd;fill:#fff5bd;fill-rule:evenodd"
   d="m 3.05,-6.7 c 0.667,0.066 0.967,-0.117 0.9,-0.55 0,-0.267 -0.167,-0.433 -0.5,-0.5 -0.2,-0.066 -0.4,-0.05 -0.6,0.05 -0.2,0.066 -0.3,0.2 -0.3,0.4 0,0.167 0.117,0.4 0.35,0.7 z"
   id="path52"
   inkscape:connector-curvature="0" />
		<path
   style="clip-rule:evenodd;fill:#fff5bd;fill-rule:evenodd"
   d="m 6.45,-8.7 c 0.167,0 0.233,-0.217 0.2,-0.65 -0.033,-0.367 -0.1,-0.617 -0.2,-0.75 -0.267,-0.367 -0.833,-0.4 -1.7,-0.1 -0.467,0.2 -0.567,0.516 -0.3,0.95 0.133,0.167 0.333,0.283 0.6,0.35 0.4,0.1 0.617,0.167 0.65,0.2 z"
   id="path54"
   inkscape:connector-curvature="0" />
		<path
   style="clip-rule:evenodd;fill:#fff5bd;fill-rule:evenodd"
   d="m 1.8,-10.601 c 0.1,0.233 0.283,0.417 0.55,0.55 0.167,0.066 0.433,0.167 0.8,0.3 l 0.25,-0.35 c 0.167,-0.167 0.267,-0.367 0.3,-0.6 0.034,-0.267 -0.017,-0.483 -0.15,-0.65 -0.367,-0.3 -0.816,-0.35 -1.35,-0.15 -0.467,0.168 -0.6,0.467 -0.4,0.9 z"
   id="path56"
   inkscape:connector-curvature="0" />
		<path
   style="clip-rule:evenodd;fill:#fff5bd;fill-rule:evenodd"
   d="m 7.95,-12.351 c 0.1,-0.667 -0.033,-1.05 -0.4,-1.15 -0.3,-0.1 -0.783,-0.1 -1.45,0 -0.4,0.033 -0.55,0.233 -0.45,0.6 0.1,0.433 0.367,0.683 0.8,0.75 0.267,0.033 0.684,0.05 1.25,0.05 z"
   id="path58"
   inkscape:connector-curvature="0" />
		<path
   style="clip-rule:evenodd;fill:#fff5bd;fill-rule:evenodd"
   d="m 9.2,-13 c -0.133,0.133 -0.183,0.283 -0.15,0.45 0.033,0.233 0.15,0.3 0.35,0.2 l 0.65,-0.35 c 0,-0.2 -0.033,-0.333 -0.1,-0.4 -0.033,-0.033 -0.15,-0.05 -0.35,-0.05 -0.2,0.033 -0.333,0.083 -0.4,0.15 z"
   id="path60"
   inkscape:connector-curvature="0" />
		<path
   style="clip-rule:evenodd;fill:#fff5bd;fill-rule:evenodd"
   d="m 8.95,-10.45 0.6,0.35 c 0.033,-0.333 -0.017,-0.566 -0.15,-0.7 -0.1,-0.1 -0.333,-0.117 -0.7,-0.05 -0.067,0.267 0.017,0.4 0.25,0.4 z"
   id="path62"
   inkscape:connector-curvature="0" />
		<path
   style="clip-rule:evenodd;fill:#fff5bd;fill-rule:evenodd"
   d="m 5.95,-15.5 c -0.033,0.267 0.184,0.45 0.65,0.55 0.466,0.1 0.783,0.083 0.95,-0.05 l -0.4,-0.45 C 7.183,-15.684 7,-15.8 6.6,-15.8 c -0.4,0 -0.617,0.1 -0.65,0.3 z"
   id="path64"
   inkscape:connector-curvature="0" />
		<path
   style="clip-rule:evenodd;fill:#fff5bd;fill-rule:evenodd"
   d="m 2.4,-14.65 c -0.167,0.1 -0.267,0.267 -0.3,0.5 0,0.233 0.066,0.417 0.2,0.55 l 0.85,-0.65 c -0.2,-0.434 -0.45,-0.567 -0.75,-0.4 z"
   id="path66"
   inkscape:connector-curvature="0" />
		<path
   style="clip-rule:evenodd;fill:#fff5bd;fill-rule:evenodd"
   d="M 8.75,-2.95 9,-3 C 9.267,-3.2 9.267,-3.4 9,-3.6 8.867,-3.7 8.633,-3.817 8.3,-3.95 L 8.35,-4 C 8.383,-4.067 8.5,-4.134 8.7,-4.2 8.867,-4.267 8.967,-4.333 9,-4.4 h 0.05 c 0.133,-0.367 -0.3,-0.55 -1.3,-0.55 -0.434,0 -1.05,0.033 -1.85,0.1 -0.4,0 -0.65,0.05 -0.75,0.15 -0.133,0.133 -0.15,0.266 -0.05,0.4 0.2,0.1 0.333,0.183 0.4,0.25 -0.333,-0.167 -1.133,-0.2 -2.4,-0.1 -0.6,0 -0.9,0.133 -0.9,0.4 l 0.05,0.1 c 0.3,0.1 0.833,0.133 1.6,0.1 0.733,0 1.267,0.1 1.6,0.3 -0.033,0.067 0,0.133 0.1,0.2 0.433,-0.067 0.883,-0.017 1.35,0.15 l 0.5,0.25 0.9,-0.15 h 0.05 z"
   id="path68"
   inkscape:connector-curvature="0" />
		<path
   style="clip-rule:evenodd;fill:#fff5bd;fill-rule:evenodd"
   d="m 8.85,-2.101 0.7,0.15 h 0.95 c 0.2,0.066 0.45,0.2 0.75,0.4 L 12.3,-1.3 c 0,-0.767 -0.25,-1.184 -0.75,-1.25 -0.9,-0.233 -1.667,-0.2 -2.3,0.1 -0.2,0.066 -0.333,0.183 -0.4,0.349 z"
   id="path70"
   inkscape:connector-curvature="0" />
		<path
   style="clip-rule:evenodd;fill:#fff5bd;fill-rule:evenodd"
   d="m 13.15,-1.15 0.55,0.5 c 0.333,0.067 0.583,0.033 0.75,-0.1 l 0.25,0.4 0.25,0.1 c 0.167,-0.233 0.184,-0.5 0.05,-0.8 -0.1,-0.133 -0.467,-0.2 -1.1,-0.2 -0.433,0 -0.683,0.033 -0.75,0.1 z"
   id="path72"
   inkscape:connector-curvature="0" />
		<path
   style="clip-rule:evenodd;fill:#fff5bd;fill-rule:evenodd"
   d="m 14.7,-1.5 c 0.167,0.233 0.534,0.367 1.1,0.4 0.5,0.034 0.883,-0.017 1.15,-0.15 h 0.1 c 0,-0.433 -0.1,-0.717 -0.3,-0.85 -0.233,-0.167 -0.633,-0.25 -1.2,-0.25 -0.4,0 -0.7,0.034 -0.9,0.1 -0.167,0.167 -0.15,0.417 0.05,0.75 z"
   id="path74"
   inkscape:connector-curvature="0" />
		<path
   style="clip-rule:evenodd;fill:#fff5bd;fill-rule:evenodd"
   d="m 14.1,-2.4 c -0.067,-0.033 -0.233,-0.05 -0.5,-0.05 -0.3,0 -0.483,0.033 -0.55,0.1 -0.3,0.3 -0.083,0.517 0.65,0.65 l 0.5,-0.25 c 0.033,-0.2 0,-0.35 -0.1,-0.45 z"
   id="path76"
   inkscape:connector-curvature="0" />
		<path
   style="clip-rule:evenodd;fill:#fff5bd;fill-rule:evenodd"
   d="m 11.7,-3.75 c -0.033,0.6 0.45,0.934 1.45,1 l 0.4,-0.6 c -0.1,-0.233 -0.383,-0.383 -0.85,-0.45 -0.367,-0.033 -0.7,-0.017 -1,0.05 z"
   id="path78"
   inkscape:connector-curvature="0" />
		<path
   style="clip-rule:evenodd;fill:#fff5bd;fill-rule:evenodd"
   d="m 15.4,-4.101 c -0.067,-0.233 -0.333,-0.35 -0.8,-0.35 -0.434,0.033 -0.667,0.167 -0.7,0.4 0.333,0.333 0.767,0.533 1.3,0.6 z"
   id="path80"
   inkscape:connector-curvature="0" />
		<path
   style="clip-rule:evenodd;fill:#fff5bd;fill-rule:evenodd"
   d="m 15.65,-5 c 0.033,0.2 0.367,0.367 1,0.5 0.433,0.1 0.767,0.15 1,0.15 l 1.3,0.35 c 0.067,-0.733 -0.1,-1.183 -0.5,-1.35 -0.633,-0.3 -1.433,-0.333 -2.4,-0.1 -0.233,0.066 -0.367,0.117 -0.4,0.15 -0.033,0.033 -0.033,0.133 0,0.3 z"
   id="path82"
   inkscape:connector-curvature="0" />
		<path
   style="clip-rule:evenodd;fill:#fff5bd;fill-rule:evenodd"
   d="m 19.15,-3 c -0.533,0.267 -0.267,0.4 0.8,0.4 l 0.35,-0.1 c 0.067,-0.233 -0.066,-0.367 -0.4,-0.4 -0.334,-0.034 -0.584,-10e-4 -0.75,0.1 z"
   id="path84"
   inkscape:connector-curvature="0" />
		<path
   style="clip-rule:evenodd;fill:#fff5bd;fill-rule:evenodd"
   d="m 20.75,-2.101 c 0.1,0.367 0.433,0.55 1,0.55 h 0.1 c 0.3,-0.067 0.566,-0.184 0.8,-0.35 l 0.4,-0.4 c -0.767,-0.166 -1.533,-0.099 -2.3,0.2 z"
   id="path86"
   inkscape:connector-curvature="0" />
		<path
   style="clip-rule:evenodd;fill:#fff5bd;fill-rule:evenodd"
   d="m 23.45,-4.75 c -0.466,-0.233 -0.966,-0.35 -1.5,-0.35 -0.6,0.034 -1.05,0.217 -1.35,0.55 0.267,0.333 0.683,0.583 1.25,0.75 0.333,0.066 0.816,0.167 1.45,0.3 z"
   id="path88"
   inkscape:connector-curvature="0" />
		<path
   style="clip-rule:evenodd;fill:#fff5bd;fill-rule:evenodd"
   d="m 16,-7.75 -0.75,0.1 c -0.6,0.133 -0.9,0.283 -0.9,0.45 0.333,0.167 0.7,0.316 1.1,0.45 L 18.2,-6.7 18.05,-7.1 17.9,-7.3 v 0.1 L 17.8,-7 17.65,-7.5 C 17.25,-7.734 16.7,-7.817 16,-7.75 Z"
   id="path90"
   inkscape:connector-curvature="0" />
		<path
   style="clip-rule:evenodd;fill:#fff5bd;fill-rule:evenodd"
   d="m 12.05,-6.25 c 0,0.333 0.117,0.567 0.35,0.7 0.133,0.066 0.4,0.133 0.8,0.2 L 13.8,-5.6 C 13.7,-5.833 13.433,-6.017 13,-6.15 12.633,-6.284 12.316,-6.317 12.05,-6.25 Z"
   id="path92"
   inkscape:connector-curvature="0" />
		<path
   style="clip-rule:evenodd;fill:#fff5bd;fill-rule:evenodd"
   d="m 4.9,-5.5 c 0.133,0 0.4,0.033 0.8,0.1 0.333,0.033 0.6,0 0.8,-0.1 0.033,-0.534 -0.383,-0.7 -1.25,-0.5 -0.533,0.133 -1.1,0.35 -1.7,0.65 z"
   id="path94"
   inkscape:connector-curvature="0" />
		<path
   style="clip-rule:evenodd;fill:#b9aa61;fill-rule:evenodd"
   d="m 20.55,-13.851 c 0.2,0.2 0.383,0.567 0.55,1.1 0.167,0.533 0.333,0.9 0.5,1.1 0.133,-0.933 0.05,-1.65 -0.25,-2.15 0.4,-0.2 0.716,-0.217 0.95,-0.05 0.2,0.1 0.4,0.35 0.6,0.75 0.133,-0.066 0.233,-0.183 0.3,-0.35 0.067,-0.2 0.067,-0.367 0,-0.5 -0.033,-0.067 -0.183,-0.15 -0.45,-0.25 -0.233,-0.067 -0.317,-0.15 -0.25,-0.25 0.1,-0.067 0.283,-0.1 0.55,-0.1 0.367,0.033 0.633,0.25 0.8,0.65 0.133,0.333 0.2,0.517 0.2,0.55 0.1,0.167 0.25,0.233 0.45,0.2 l 0.35,1.05 c 0.167,0.367 0.267,0.65 0.3,0.85 0,-0.367 0.1,-0.65 0.3,-0.85 0.233,0.067 0.4,0.267 0.5,0.6 0.034,0.4 0.083,0.667 0.15,0.8 l 0.3,0.3 v 0.65 c -0.367,-0.066 -0.8,-0.017 -1.3,0.15 -0.534,0.167 -0.784,0.35 -0.75,0.55 0.167,0 0.383,0 0.65,0 0.233,0.033 0.4,0.15 0.5,0.35 0.033,0.066 0.083,0.283 0.15,0.65 0,0.267 0.083,0.45 0.25,0.55 0.133,-0.133 0.183,-0.35 0.15,-0.65 0.033,-0.167 0.167,-0.283 0.4,-0.35 0.2,-0.033 0.383,-0.017 0.55,0.05 0.1,0.2 0.2,0.316 0.3,0.35 h 0.35 c 0.133,0.034 0.233,0.184 0.3,0.45 0.067,-0.266 0.05,-0.516 -0.05,-0.749 0.2,-0.133 0.3,-0.367 0.3,-0.7 0,-0.167 -0.017,-0.433 -0.05,-0.8 v -1.25 c -0.033,-0.167 -0.133,-0.35 -0.3,-0.55 0.733,-0.8 0.85,-1.6 0.35,-2.4 -0.1,-0.167 -0.3,-0.35 -0.6,-0.55 -0.3,-0.2 -0.55,-0.333 -0.75,-0.4 H 25.8 l -0.1,-0.05 c -0.133,-0.066 -0.333,-0.216 -0.6,-0.45 -0.233,-0.233 -0.467,-0.383 -0.7,-0.45 -0.167,-0.033 -0.417,-0.05 -0.75,-0.05 -0.333,0 -0.6,-0.05 -0.8,-0.15 -0.167,-0.067 -0.35,-0.217 -0.55,-0.45 -0.3,-0.267 -0.483,-0.433 -0.55,-0.5 -0.233,-0.133 -0.483,-0.233 -0.75,-0.3 -0.5,-0.067 -0.767,-0.1 -0.8,-0.1 -0.167,-0.033 -0.466,-0.15 -0.9,-0.35 -0.333,-0.133 -0.667,-0.2 -1,-0.2 -0.333,0 -0.717,-0.083 -1.15,-0.25 -0.5,-0.2 -0.9,-0.3 -1.2,-0.3 -0.433,-0.033 -0.917,-0.15 -1.45,-0.35 l -0.6,-0.25 -0.35,0.15 -0.25,-0.05 0.15,0.2 h 0.15 c 0.066,0.267 0.1,0.65 0.1,1.15 -0.033,0.566 -0.033,0.95 0,1.15 h 0.8 c 0.1,0.2 0.217,0.35 0.35,0.45 0.066,0.066 0.2,0.1 0.4,0.1 0.167,0 0.267,0.05 0.3,0.15 0.033,-0.2 -0.066,-0.383 -0.3,-0.55 -0.267,-0.2 -0.417,-0.35 -0.45,-0.45 0.2,-0.133 0.417,-0.167 0.65,-0.1 0.133,0.033 0.333,0.1 0.6,0.2 0.167,-0.033 0.383,-0.017 0.65,0.05 0.233,0.066 0.45,0.2 0.65,0.4 0.2,0.233 0.367,0.417 0.5,0.55 0,0.133 0.066,0.2 0.2,0.2 0.133,0.033 0.3,0.033 0.5,0 0.2,-0.067 0.3,-0.167 0.3,-0.3 -0.367,-0.133 -0.617,-0.217 -0.75,-0.25 0.033,-0.167 0.267,-0.25 0.7,-0.25 0.233,0.033 0.434,0.117 0.6,0.25 0.133,0.2 0.267,0.367 0.4,0.5 0.333,0.167 0.567,0.3 0.7,0.4 0.133,0.133 0.217,0.3 0.25,0.5 0.033,0.233 0.066,0.417 0.1,0.55 -0.267,-0.066 -0.467,-0.1 -0.6,-0.1 -0.233,-0.033 -0.45,0 -0.65,0.1 0.533,0.167 0.85,0.3 0.95,0.399 z"
   id="path96"
   inkscape:connector-curvature="0" />
		<path
   style="clip-rule:evenodd;fill:#b9aa61;fill-rule:evenodd"
   d="m 11.95,-11.05 c 0.1,0.167 0.184,0.316 0.25,0.45 0.1,0.167 0.133,0.417 0.1,0.75 l 0.5,0.1 h 0.15 c -0.033,-0.2 -0.083,-0.45 -0.15,-0.75 0,-0.233 0.117,-0.583 0.35,-1.05 l -0.05,-0.6 c -0.1,-0.467 -0.133,-0.767 -0.1,-0.9 0.033,-0.3 0.233,-0.45 0.6,-0.45 0.1,-0.433 -0.133,-0.65 -0.7,-0.65 -0.567,0 -0.95,0.15 -1.15,0.45 -0.367,-0.267 -0.6,-0.4 -0.7,-0.4 -0.6,0 -0.917,0.117 -0.95,0.35 0.667,0.067 1.1,0.184 1.3,0.35 0.467,0.333 0.717,0.55 0.75,0.65 v 0.15 c 0.033,0.133 0,0.383 -0.1,0.75 -0.1,0.367 -0.133,0.633 -0.1,0.8 z"
   id="path98"
   inkscape:connector-curvature="0" />
		<path
   style="clip-rule:evenodd;fill:#b9aa61;fill-rule:evenodd"
   d="m 11.65,-18.55 c -0.333,-0.133 -0.5,0.033 -0.5,0.5 H 11.1 c 0,0.333 0.066,0.55 0.2,0.65 l 0.35,0.3 c 0.367,0.267 0.55,0.717 0.55,1.35 L 12.4,-17 c 0,-0.867 -0.25,-1.384 -0.75,-1.55 z"
   id="path100"
   inkscape:connector-curvature="0" />
		<path
   style="clip-rule:evenodd;fill:#b9aa61;fill-rule:evenodd"
   d="m 17.45,-11.25 c -0.3,0.167 -0.433,0.35 -0.4,0.55 0.133,0 0.367,-0.034 0.7,-0.1 0.3,-0.033 0.533,0.017 0.7,0.15 0.133,0.067 0.284,0.217 0.45,0.45 l 1,0.35 c 0,-0.933 -0.233,-1.517 -0.7,-1.75 -0.133,-0.066 -0.417,-0.05 -0.85,0.05 -0.433,0.1 -0.733,0.199 -0.9,0.3 z"
   id="path102"
   inkscape:connector-curvature="0" />
		<path
   style="clip-rule:evenodd;fill:#b9aa61;fill-rule:evenodd"
   d="m 21.7,-8.601 c 0.1,-0.433 -0.133,-0.617 -0.7,-0.55 -0.1,0.133 -0.05,0.267 0.15,0.4 l 0.4,0.15 z"
   id="path104"
   inkscape:connector-curvature="0" />
		<path
   style="clip-rule:evenodd;fill:#b9aa61;fill-rule:evenodd"
   d="m 21.15,-5.95 0.55,-0.25 0.05,-0.1 c 0.133,-0.667 0.017,-1.067 -0.35,-1.2 -0.5,-0.233 -0.9,-0.233 -1.2,0 -0.2,0.133 -0.233,0.267 -0.1,0.4 l 0.25,0.1 c 0.1,0.033 0.25,0.067 0.45,0.1 0.133,0.033 0.233,0.117 0.3,0.25 h 0.05 v 0.05 l 0.05,0.15 c 0.067,0.2 0.05,0.367 -0.05,0.5 z"
   id="path106"
   inkscape:connector-curvature="0" />
		<path
   style="clip-rule:evenodd;fill:#b9aa61;fill-rule:evenodd"
   d="m 15.7,-8.351 c -0.1,0.2 0.1,0.333 0.6,0.4 0.7,0.133 1.133,0.233 1.3,0.3 -0.133,-0.433 -0.317,-0.717 -0.55,-0.85 -0.133,-0.066 -0.367,-0.083 -0.7,-0.05 -0.367,0.034 -0.583,0.101 -0.65,0.2 z"
   id="path108"
   inkscape:connector-curvature="0" />
		<path
   style="clip-rule:evenodd;fill:#b9aa61;fill-rule:evenodd"
   d="M 17.6,-7.65 17.8,-7 17.9,-7.2 V -7.3 C 17.867,-7.434 17.767,-7.55 17.6,-7.65 Z"
   id="path110"
   inkscape:connector-curvature="0" />
		<path
   style="clip-rule:evenodd;fill:#b9aa61;fill-rule:evenodd"
   d="m 15.2,-13.15 c -0.6,0.233 -0.6,0.483 0,0.75 0.3,0.133 0.7,0.267 1.2,0.4 h 0.55 c -0.2,-0.733 -0.383,-1.15 -0.55,-1.25 -0.367,-0.2 -0.767,-0.167 -1.2,0.1 z"
   id="path112"
   inkscape:connector-curvature="0" />
		<path
   style="clip-rule:evenodd;fill:#b9aa61;fill-rule:evenodd"
   d="m 27.55,-4.7 v -0.15 c 0,-0.833 -0.217,-1.35 -0.65,-1.55 -0.167,-0.1 -0.383,-0.15 -0.65,-0.15 -0.333,-0.033 -0.567,0 -0.7,0.1 -0.233,0.133 -0.167,0.4 0.2,0.8 0.467,0.367 0.733,0.583 0.8,0.65 h 0.05 z"
   id="path114"
   inkscape:connector-curvature="0" />
		<path
   style="clip-rule:evenodd;fill:#b9aa61;fill-rule:evenodd"
   d="m 17.55,-13.851 c 0,0.2 0.117,0.367 0.35,0.5 0.2,0.133 0.417,0.184 0.65,0.15 l -0.1,-0.55 -0.2,-0.6 c -0.5,-0.066 -0.733,0.101 -0.7,0.5 z"
   id="path116"
   inkscape:connector-curvature="0" />
	</g>
</symbol>
<use
   xlink:href="#_x34_"
   width="28.504"
   height="19.452"
   y="-19.450001"
   transform="matrix(8.9812094,0,0,-8.9812094,-3.2683312e-7,2165.1726)"
   style="overflow:visible"
   id="use120"
   x="0" />
</svg>