<?xml version="1.0" encoding="UTF-8" standalone="no"?>
<!-- Generator: Adobe Illustrator 15.1.0, SVG Export Plug-In . SVG Version: 6.00 Build 0)  -->

<svg
   xmlns:dc="http://purl.org/dc/elements/1.1/"
   xmlns:cc="http://creativecommons.org/ns#"
   xmlns:rdf="http://www.w3.org/1999/02/22-rdf-syntax-ns#"
   xmlns:svg="http://www.w3.org/2000/svg"
   xmlns="http://www.w3.org/2000/svg"
   xmlns:xlink="http://www.w3.org/1999/xlink"
   xmlns:sodipodi="http://sodipodi.sourceforge.net/DTD/sodipodi-0.dtd"
   xmlns:inkscape="http://www.inkscape.org/namespaces/inkscape"
   version="1.1"
   id="flash0.ai"
   x="0px"
   y="0px"
   width="256"
   height="256"
   viewBox="0 0 256 256.00001"
   xml:space="preserve"
   sodipodi:docname="crepes.svg"
   inkscape:version="0.92.4 (5da689c313, 2019-01-14)"><title
   id="title1218">Crepes</title><metadata
   id="metadata411"><rdf:RDF><cc:Work
       rdf:about=""><dc:format>image/svg+xml</dc:format><dc:type
         rdf:resource="http://purl.org/dc/dcmitype/StillImage" /><dc:title>Crepes</dc:title><cc:license
         rdf:resource="http://creativecommons.org/publicdomain/zero/1.0/" /><dc:creator><cc:Agent><dc:title>Glitch</dc:title></cc:Agent></dc:creator><dc:source>https://opengameart.org/node/20149</dc:source></cc:Work><cc:License
       rdf:about="http://creativecommons.org/publicdomain/zero/1.0/"><cc:permits
         rdf:resource="http://creativecommons.org/ns#Reproduction" /><cc:permits
         rdf:resource="http://creativecommons.org/ns#Distribution" /><cc:permits
         rdf:resource="http://creativecommons.org/ns#DerivativeWorks" /></cc:License></rdf:RDF></metadata><defs
   id="defs409"><radialGradient
     inkscape:collect="always"
     xlink:href="#SVGID_1_"
     id="radialGradient1678"
     gradientUnits="userSpaceOnUse"
     gradientTransform="matrix(1,0,0,1.0892,0,0.5264)"
     cx="27.049801"
     cy="-5.8999"
     r="23.2623" /><radialGradient
     inkscape:collect="always"
     xlink:href="#SVGID_2_"
     id="radialGradient1680"
     gradientUnits="userSpaceOnUse"
     gradientTransform="matrix(0.9945,-0.1051,0.0439,0.4927,729.2617,369.8184)"
     cx="-665.20117"
     cy="-905.18213"
     r="19.382401" /><radialGradient
     inkscape:collect="always"
     xlink:href="#SVGID_3_"
     id="radialGradient1682"
     gradientUnits="userSpaceOnUse"
     gradientTransform="matrix(0.8873,0.4611,0.6249,-0.9605,-6864.6113,32.7324)"
     cx="5780.7949"
     cy="2817.6846"
     r="10.77" /><linearGradient
     inkscape:collect="always"
     xlink:href="#SVGID_4_"
     id="linearGradient1684"
     gradientUnits="userSpaceOnUse"
     gradientTransform="matrix(0.9924,-0.1229,-0.0382,1.0124,-250.4395,1102.7441)"
     x1="227.57671"
     y1="-1066.9883"
     x2="233.0683"
     y2="-1066.9883" /><linearGradient
     inkscape:collect="always"
     xlink:href="#SVGID_5_"
     id="linearGradient1686"
     gradientUnits="userSpaceOnUse"
     gradientTransform="matrix(0.9876,-0.1567,-0.004,1.0132,67.8418,1384.8145)"
     x1="-68.1045"
     y1="-1390.8916"
     x2="-35.248402"
     y2="-1390.8916" /><linearGradient
     inkscape:collect="always"
     xlink:href="#SVGID_6_"
     id="linearGradient1688"
     gradientUnits="userSpaceOnUse"
     gradientTransform="matrix(-0.7617,-0.0183,0.0183,-0.7617,12576.463,-12301.616)"
     x1="16065.893"
     y1="-16533.535"
     x2="16083.598"
     y2="-16533.535" /><radialGradient
     inkscape:collect="always"
     xlink:href="#SVGID_7_"
     id="radialGradient1690"
     gradientUnits="userSpaceOnUse"
     gradientTransform="matrix(0.7619,0,0,-0.7619,11.2998,-5.105)"
     cx="23.299801"
     cy="-4.3999"
     r="3.8627999" /><radialGradient
     inkscape:collect="always"
     xlink:href="#SVGID_8_"
     id="radialGradient1692"
     gradientUnits="userSpaceOnUse"
     gradientTransform="matrix(0.7619,0,0,-0.7619,11.2998,-5.3335)"
     cx="18.299801"
     cy="-4.5497999"
     r="0.32499999" /><radialGradient
     inkscape:collect="always"
     xlink:href="#SVGID_9_"
     id="radialGradient1694"
     gradientUnits="userSpaceOnUse"
     gradientTransform="matrix(0.7619,0,0,-0.7619,11.2998,-9.2954)"
     cx="24.299801"
     cy="-7.1499"
     r="0.2375" /><radialGradient
     inkscape:collect="always"
     xlink:href="#SVGID_10_"
     id="radialGradient1696"
     gradientUnits="userSpaceOnUse"
     gradientTransform="matrix(0.7619,0,0,-0.7619,11.2998,-8.7612)"
     cx="26.8999"
     cy="-6.7997999"
     r="0.2375" /><linearGradient
     inkscape:collect="always"
     xlink:href="#SVGID_11_"
     id="linearGradient1698"
     gradientUnits="userSpaceOnUse"
     gradientTransform="matrix(0.7619,0,0,0.7619,11.2998,1.6001)"
     x1="25.180201"
     y1="-13.0493"
     x2="14.7777"
     y2="-8.2297001" /><radialGradient
     inkscape:collect="always"
     xlink:href="#SVGID_12_"
     id="radialGradient1700"
     gradientUnits="userSpaceOnUse"
     gradientTransform="matrix(-0.519,-0.5578,0.4879,-0.5831,14380.158,-6378.2085)"
     cx="9151.6475"
     cy="-19685.955"
     r="4.8999" /><radialGradient
     inkscape:collect="always"
     xlink:href="#SVGID_13_"
     id="radialGradient1702"
     gradientUnits="userSpaceOnUse"
     gradientTransform="matrix(-0.7614,0.0273,-0.0315,-0.8784,46.5195,-17.2461)"
     cx="23.3501"
     cy="-11.1001"
     r="0.32519999" /><radialGradient
     inkscape:collect="always"
     xlink:href="#SVGID_14_"
     id="radialGradient1704"
     gradientUnits="userSpaceOnUse"
     gradientTransform="matrix(-0.7615,0.0246,-0.0491,-0.8843,11969.897,-14627.343)"
     cx="16719.072"
     cy="-16067.313"
     r="0.38769999" /><radialGradient
     inkscape:collect="always"
     xlink:href="#SVGID_15_"
     id="radialGradient1706"
     gradientUnits="userSpaceOnUse"
     gradientTransform="matrix(-0.7613,0.0312,-0.0352,-0.8604,41.645,-18.4961)"
     cx="20.200199"
     cy="-12"
     r="0.28780001" /><radialGradient
     inkscape:collect="always"
     xlink:href="#SVGID_16_"
     id="radialGradient1708"
     gradientUnits="userSpaceOnUse"
     gradientTransform="matrix(-0.7615,0.0246,-0.0491,-0.8843,11969.9,-14627.267)"
     cx="16722.641"
     cy="-16066.697"
     r="0.38769999" /><linearGradient
     inkscape:collect="always"
     xlink:href="#SVGID_17_"
     id="linearGradient1710"
     gradientUnits="userSpaceOnUse"
     gradientTransform="matrix(0.7619,0,0,0.7619,10.3501,-4.8999)"
     x1="6.9751"
     y1="-9.2587996"
     x2="11.6251"
     y2="-9.2587996" /><radialGradient
     inkscape:collect="always"
     xlink:href="#SVGID_18_"
     id="radialGradient1712"
     gradientUnits="userSpaceOnUse"
     gradientTransform="matrix(0.7619,0,0,-0.7619,10.3501,-19.1479)"
     cx="6.4990001"
     cy="-9.3500996"
     r="3.6506" /><radialGradient
     inkscape:collect="always"
     xlink:href="#SVGID_19_"
     id="radialGradient1714"
     gradientUnits="userSpaceOnUse"
     gradientTransform="matrix(0.7619,0,0,-0.7619,10.3501,-15.8716)"
     cx="10"
     cy="-7.2002001"
     r="0.33750001" /><radialGradient
     inkscape:collect="always"
     xlink:href="#SVGID_20_"
     id="radialGradient1716"
     gradientUnits="userSpaceOnUse"
     gradientTransform="matrix(0.7619,0,0,-0.7619,10.3501,-20.8237)"
     cx="10.8501"
     cy="-10.4502"
     r="0.26249999" /><radialGradient
     inkscape:collect="always"
     xlink:href="#SVGID_21_"
     id="radialGradient1718"
     gradientUnits="userSpaceOnUse"
     gradientTransform="matrix(0.7619,0,0,-0.7619,10.3501,-18.3862)"
     cx="11"
     cy="-8.8500996"
     r="0.25" /><linearGradient
     inkscape:collect="always"
     xlink:href="#SVGID_24_"
     id="linearGradient1720"
     gradientUnits="userSpaceOnUse"
     gradientTransform="matrix(1.5074,0,0,1.5074,-8.6006,-1.9995)"
     x1="13.6768"
     y1="-3.6747999"
     x2="6.4510002"
     y2="-0.72670001" /><radialGradient
     inkscape:collect="always"
     xlink:href="#SVGID_25_"
     id="radialGradient1722"
     gradientUnits="userSpaceOnUse"
     gradientTransform="matrix(-1.261,-0.8259,1.3177,-0.7881,31961.48,-11219.766)"
     cx="4996.9404"
     cy="-19468.719"
     r="2.9885001" /><radialGradient
     inkscape:collect="always"
     xlink:href="#SVGID_26_"
     id="radialGradient1724"
     gradientUnits="userSpaceOnUse"
     gradientTransform="matrix(-1.5074,0,0,-0.9331,28.6338,-7.6113)"
     cx="12.3501"
     cy="-2.2997999"
     r="0.26249999" /><radialGradient
     inkscape:collect="always"
     xlink:href="#SVGID_27_"
     id="radialGradient1726"
     gradientUnits="userSpaceOnUse"
     gradientTransform="matrix(-1.5074,0,0,-0.9647,24.1123,-9.1675)"
     cx="10.8501"
     cy="-2.8999"
     r="0.3125" /><radialGradient
     inkscape:collect="always"
     xlink:href="#SVGID_28_"
     id="radialGradient1728"
     gradientUnits="userSpaceOnUse"
     gradientTransform="matrix(-1.5074,0,0,-0.9212,21.2471,-8.6763)"
     cx="9.8999004"
     cy="-2.75"
     r="0.22499999" /><radialGradient
     inkscape:collect="always"
     xlink:href="#SVGID_29_"
     id="radialGradient1730"
     gradientUnits="userSpaceOnUse"
     gradientTransform="matrix(-1.5074,0,0,-0.9647,15.6689,-9.9097)"
     cx="8.0497999"
     cy="-3.2002001"
     r="0.3125" /><linearGradient
     inkscape:collect="always"
     xlink:href="#SVGID_30_"
     id="linearGradient1732"
     gradientUnits="userSpaceOnUse"
     gradientTransform="matrix(-0.9259,-0.3779,-0.3779,0.9259,-3591.873,2486.4688)"
     x1="-2456.8818"
     y1="-3690.0688"
     x2="-2444.2449"
     y2="-3690.0688" /><radialGradient
     inkscape:collect="always"
     xlink:href="#SVGID_31_"
     id="radialGradient1734"
     gradientUnits="userSpaceOnUse"
     gradientTransform="matrix(-0.6926,-0.7213,0.7213,-0.6926,3790.1479,-8229.3877)"
     cx="-3358.4219"
     cy="-8380.4219"
     r="5.2160001" /><radialGradient
     inkscape:collect="always"
     xlink:href="#SVGID_32_"
     id="radialGradient1736"
     gradientUnits="userSpaceOnUse"
     gradientTransform="rotate(180,50.2749,-12.3501)"
     cx="26"
     cy="-18.950199"
     r="0.375" /><radialGradient
     inkscape:collect="always"
     xlink:href="#SVGID_33_"
     id="radialGradient1738"
     gradientUnits="userSpaceOnUse"
     gradientTransform="rotate(180,50.2749,-13.75)"
     cx="28.200199"
     cy="-20.3501"
     r="0.44999999" /><radialGradient
     inkscape:collect="always"
     xlink:href="#SVGID_34_"
     id="radialGradient1740"
     gradientUnits="userSpaceOnUse"
     gradientTransform="rotate(180,50.2749,-13.3999)"
     cx="29.549801"
     cy="-20"
     r="0.32499999" /><radialGradient
     inkscape:collect="always"
     xlink:href="#SVGID_35_"
     id="radialGradient1742"
     gradientUnits="userSpaceOnUse"
     gradientTransform="rotate(180,50.2749,-14.3999)"
     cx="32.2495"
     cy="-21"
     r="0.45019999" /><linearGradient
     inkscape:collect="always"
     xlink:href="#SVGID_36_"
     id="linearGradient1744"
     gradientUnits="userSpaceOnUse"
     gradientTransform="matrix(-1,0,0,1,104.1504,11.5498)"
     x1="45.629398"
     y1="-22.9561"
     x2="34.328602"
     y2="-18.358" /><radialGradient
     inkscape:collect="always"
     xlink:href="#SVGID_37_"
     id="radialGradient1746"
     gradientUnits="userSpaceOnUse"
     gradientTransform="matrix(0.7177,-0.6964,-0.7496,-0.6698,-20042.244,-7981.5498)"
     cx="7469.7866"
     cy="-19672.256"
     r="4.7027998" /><radialGradient
     inkscape:collect="always"
     xlink:href="#SVGID_38_"
     id="radialGradient1748"
     gradientUnits="userSpaceOnUse"
     gradientTransform="matrix(1,0,0,-0.9286,17.1504,-28.7559)"
     cx="43.5"
     cy="-20.8999"
     r="0.34999999" /><radialGradient
     inkscape:collect="always"
     xlink:href="#SVGID_39_"
     id="radialGradient1750"
     gradientUnits="userSpaceOnUse"
     gradientTransform="matrix(1,0,0,-0.9118,21.25,-30.6992)"
     cx="41.450199"
     cy="-22.1001"
     r="0.42500001" /><radialGradient
     inkscape:collect="always"
     xlink:href="#SVGID_40_"
     id="radialGradient1752"
     gradientUnits="userSpaceOnUse"
     gradientTransform="matrix(1,0,0,-0.9583,23.75,-31.1406)"
     cx="40.200199"
     cy="-21.799801"
     r="0.30000001" /><radialGradient
     inkscape:collect="always"
     xlink:href="#SVGID_41_"
     id="radialGradient1754"
     gradientUnits="userSpaceOnUse"
     gradientTransform="matrix(1,0,0,-0.9118,28.8496,-31.8477)"
     cx="37.650398"
     cy="-22.700199"
     r="0.42480001" /><linearGradient
     inkscape:collect="always"
     xlink:href="#SVGID_42_"
     id="linearGradient1756"
     gradientUnits="userSpaceOnUse"
     gradientTransform="matrix(-1.1193,0,0,1.1193,22.9009,-6.6001)"
     x1="13.6768"
     y1="-3.6747999"
     x2="6.4510002"
     y2="-0.72670001" /><radialGradient
     inkscape:collect="always"
     xlink:href="#SVGID_43_"
     id="radialGradient1758"
     gradientUnits="userSpaceOnUse"
     gradientTransform="matrix(0.9363,-0.6133,-0.9785,-0.5852,-23716.475,-8336.3477)"
     cx="4996.9404"
     cy="-19468.719"
     r="2.9885001" /><radialGradient
     inkscape:collect="always"
     xlink:href="#SVGID_44_"
     id="radialGradient1760"
     gradientUnits="userSpaceOnUse"
     gradientTransform="matrix(1.1193,0,0,-0.6929,-4.7471,-10.7671)"
     cx="12.3501"
     cy="-2.2997999"
     r="0.26249999" /><radialGradient
     inkscape:collect="always"
     xlink:href="#SVGID_45_"
     id="radialGradient1762"
     gradientUnits="userSpaceOnUse"
     gradientTransform="matrix(1.1193,0,0,-0.7164,-1.3892,-11.9229)"
     cx="10.8501"
     cy="-2.8999"
     r="0.3125" /><radialGradient
     inkscape:collect="always"
     xlink:href="#SVGID_46_"
     id="radialGradient1764"
     gradientUnits="userSpaceOnUse"
     gradientTransform="matrix(1.1193,0,0,-0.684,0.7378,-11.5581)"
     cx="9.8999004"
     cy="-2.75"
     r="0.22499999" /><radialGradient
     inkscape:collect="always"
     xlink:href="#SVGID_47_"
     id="radialGradient1766"
     gradientUnits="userSpaceOnUse"
     gradientTransform="matrix(1.1193,0,0,-0.7164,4.8804,-12.4736)"
     cx="8.0497999"
     cy="-3.2002001"
     r="0.3125" /></defs><sodipodi:namedview
   pagecolor="#ffffff"
   bordercolor="#666666"
   borderopacity="1"
   objecttolerance="10"
   gridtolerance="10"
   guidetolerance="10"
   inkscape:pageopacity="0"
   inkscape:pageshadow="2"
   inkscape:window-width="1920"
   inkscape:window-height="1025"
   id="namedview407"
   showgrid="false"
   inkscape:zoom="2.4455115"
   inkscape:cx="95.729185"
   inkscape:cy="100.17961"
   inkscape:window-x="-8"
   inkscape:window-y="-8"
   inkscape:window-maximized="1"
   inkscape:current-layer="flash0.ai"
   fit-margin-top="0"
   fit-margin-left="0"
   fit-margin-right="0"
   fit-margin-bottom="0" />
<symbol
   id="crepes"
   viewBox="-6.798 -19.495 73.196 19.483"
   transform="translate(-18.19036,215.70553)">
	<g
   id="Layer_1_3_">
		<g
   id="g187">
			<g
   id="g24">
				<path
   style="clip-rule:evenodd;fill:#fff6c4;fill-rule:evenodd"
   d="m 50.75,-14 c 0,0.033 -0.017,0.05 -0.05,0.05 h -0.05 c -1.633,0.4 -2.783,0.717 -3.45,0.95 -0.833,0.3 -1.817,0.833 -2.95,1.6 -0.933,0.667 -1.967,1.217 -3.1,1.65 -1.267,0.5 -2.1,0.883 -2.5,1.15 -0.833,0.5 -2.483,1.117 -4.95,1.85 -2.6,0.767 -4.55,1.15 -5.85,1.15 -3.267,0 -6.55,-0.65 -9.85,-1.95 -2.033,-0.733 -3.817,-1.383 -5.35,-1.95 -2.433,-0.9 -4.2,-1.5 -5.3,-1.8 -0.467,-0.2 -0.934,-0.4 -1.4,-0.6 -1.934,-0.733 -3.5,-1.1 -4.7,-1.1 -0.533,0 -0.867,0.05 -1,0.15 -0.033,0.133 -0.05,0.25 -0.05,0.35 0,0.133 0,0.233 0,0.3 0.167,0.5 0.383,0.95 0.65,1.35 l 1.05,1.4 c 0.867,0.833 1.383,1.567 1.55,2.2 0.167,0.667 0.25,1.317 0.25,1.95 0,0.167 0.033,0.333 0.1,0.5 0.034,0 0.05,0.05 0.05,0.15 0,0.133 0.033,0.25 0.1,0.35 0.133,0.367 0.317,0.717 0.55,1.05 1.033,0.1 2,-0.4 2.9,-1.5 0.833,-1 1.5,-1.733 2,-2.2 0.467,-0.466 1.184,-1 2.15,-1.6 0.333,-0.2 0.617,-0.383 0.85,-0.55 h 0.05 c -0.1,-0.033 -0.184,-0.066 -0.25,-0.1 -0.534,0.3 -1.1,0.65 -1.7,1.05 C 9.667,-7.517 8.933,-7.033 8.3,-6.7 8.133,-6.6 7.617,-6.033 6.75,-5 6.083,-4.133 5.433,-3.7 4.8,-3.7 4.767,-3.7 4.717,-3.717 4.65,-3.75 4.55,-4.05 4.45,-4.5 4.35,-5.1 4.25,-5.733 4.167,-6.133 4.1,-6.3 3.933,-6.834 3.6,-7.5 3.1,-8.3 2.933,-8.6 2.483,-9.25 1.75,-10.25 c -0.667,-0.933 -1,-1.5 -1,-1.7 0,-0.133 0.117,-0.267 0.35,-0.4 0.2,-0.1 0.383,-0.15 0.55,-0.15 1.067,0 3.1,0.55 6.1,1.65 2.2,0.833 3.683,1.383 4.45,1.65 l 0.05,-0.05 c 0.067,0.067 0.15,0.1 0.25,0.1 0.067,0.033 0.15,0.083 0.25,0.15 5.733,2.6 10.617,3.883 14.65,3.85 4.033,-0.067 7.133,-0.65 9.3,-1.75 2.167,-1.067 3.716,-1.867 4.65,-2.4 0.167,-0.034 0.316,-0.1 0.45,-0.2 0.633,-0.333 1.317,-0.717 2.05,-1.15 0.633,-0.367 1.316,-0.767 2.05,-1.2 0.434,-0.1 1.467,-0.45 3.1,-1.05 0.833,-0.267 1.7,-0.483 2.6,-0.65 0.5,0.1 0.833,0.183 1,0.25 0.5,0.233 0.75,0.667 0.75,1.3 0,0.333 -0.15,0.817 -0.45,1.45 -0.3,0.667 -0.583,1.183 -0.85,1.55 -0.3,0.4 -0.617,0.933 -0.95,1.6 -0.333,0.667 -0.6,1.183 -0.8,1.55 -0.167,0.367 -0.333,0.767 -0.5,1.2 -0.233,0.433 -0.55,0.65 -0.95,0.65 -0.567,0 -1.2,-0.433 -1.9,-1.3 -0.367,-0.434 -0.717,-0.867 -1.05,-1.3 -1.367,-1.2 -2.2,-1.9 -2.5,-2.1 -0.233,-0.2 -0.7,-0.433 -1.4,-0.7 -0.133,0.1 -0.25,0.183 -0.35,0.25 0.3,0.2 0.617,0.4 0.95,0.6 0.967,0.6 1.667,1.133 2.1,1.6 0.5,0.467 1.183,1.2 2.05,2.2 0.867,1.1 1.817,1.6 2.85,1.5 0.066,-0.633 0.333,-1.383 0.8,-2.25 0.434,-0.9 0.867,-1.633 1.3,-2.2 0.433,-0.533 0.683,-0.867 0.75,-1 0.033,-0.133 0.267,-0.566 0.7,-1.3 0.4,-0.7 0.667,-1.433 0.8,-2.2 -0.034,-0.066 -0.034,-0.167 0,-0.3 0,-0.133 -0.05,-0.3 -0.15,-0.5 l -0.05,-0.05 c -0.067,-0.167 -0.183,-0.317 -0.35,-0.45 -0.167,-0.067 -0.35,-0.15 -0.55,-0.25 -0.3,-0.1 -0.633,-0.183 -1,-0.25 -0.233,0 -0.367,-0.017 -0.4,-0.05 -0.133,0 -0.233,0 -0.3,0 -0.167,0.1 -0.3,0.117 -0.4,0.05 z"
   id="path2"
   inkscape:connector-curvature="0" />
				<path
   style="clip-rule:evenodd;fill:#c8af58;fill-rule:evenodd"
   d="m 43.85,-10.65 c -0.633,0.467 -1.25,0.883 -1.85,1.25 0.7,0.267 1.167,0.5 1.4,0.7 0.3,0.2 1.133,0.9 2.5,2.1 0.333,0.434 0.684,0.867 1.05,1.3 0.7,0.867 1.333,1.3 1.9,1.3 0.4,0 0.717,-0.217 0.95,-0.65 0.167,-0.434 0.333,-0.833 0.5,-1.2 0.2,-0.367 0.467,-0.883 0.8,-1.55 0.333,-0.667 0.65,-1.2 0.95,-1.6 0.267,-0.367 0.55,-0.883 0.85,-1.55 0.3,-0.633 0.45,-1.117 0.45,-1.45 0,-0.633 -0.25,-1.067 -0.75,-1.3 -0.167,-0.067 -0.5,-0.15 -1,-0.25 -0.9,0.167 -1.767,0.383 -2.6,0.65 -1.633,0.6 -2.667,0.95 -3.1,1.05 -0.733,0.433 -1.417,0.833 -2.05,1.2 z M 12.2,-9.2 c -0.767,-0.267 -2.25,-0.816 -4.45,-1.65 -3,-1.1 -5.033,-1.65 -6.1,-1.65 -0.167,0 -0.35,0.05 -0.55,0.15 -0.233,0.133 -0.35,0.267 -0.35,0.4 0,0.2 0.333,0.767 1,1.7 0.733,1 1.183,1.65 1.35,1.95 0.5,0.8 0.833,1.466 1,2 0.066,0.167 0.15,0.566 0.25,1.2 0.1,0.6 0.2,1.05 0.3,1.35 0.067,0.033 0.117,0.05 0.15,0.05 0.633,0 1.284,-0.433 1.95,-1.3 0.867,-1.033 1.383,-1.6 1.55,-1.7 0.633,-0.333 1.367,-0.816 2.2,-1.45 0.6,-0.4 1.167,-0.75 1.7,-1.05 z"
   id="path4"
   inkscape:connector-curvature="0" />
				
					<radialGradient
   id="SVGID_1_"
   cx="27.049801"
   cy="-5.8999"
   r="23.2623"
   gradientTransform="matrix(1,0,0,1.0892,0,0.5264)"
   gradientUnits="userSpaceOnUse">
					<stop
   offset="0"
   style="stop-color:#FFE47B"
   id="stop6" />
					<stop
   offset="1"
   style="stop-color:#CFBA63"
   id="stop8" />
				</radialGradient>
				<path
   style="clip-rule:evenodd;fill:url(#radialGradient1678);fill-rule:evenodd"
   d="m 41.65,-9.15 c -1.8,1.2 -3.233,2.1 -4.3,2.7 -2.467,1.367 -5.017,2.05 -7.65,2.05 -2.733,0 -5.75,-0.4 -9.05,-1.2 -3.3,-0.767 -6.05,-1.933 -8.25,-3.5 -0.233,0.167 -0.517,0.35 -0.85,0.55 -0.966,0.6 -1.683,1.133 -2.15,1.6 -0.5,0.467 -1.167,1.2 -2,2.2 -0.9,1.1 -1.867,1.6 -2.9,1.5 0.267,0.267 0.717,0.433 1.35,0.5 0.233,0.067 0.483,0.1 0.75,0.1 0.1,0 0.183,-0.017 0.25,-0.05 2.4,-0.4 4.8,-0.683 7.2,-0.85 3.333,-0.434 6.333,-0.583 9,-0.45 2.633,0.167 5.3,0.333 8,0.5 2.667,0.2 5.117,0.25 7.35,0.15 2.2,-0.067 4.667,0.05 7.4,0.35 0.534,0.133 1.05,0.25 1.55,0.35 0.033,0 0.083,0 0.15,0 0.233,0 0.483,-0.033 0.75,-0.1 0.633,-0.067 1.083,-0.233 1.35,-0.5 -1.033,0.1 -1.983,-0.4 -2.85,-1.5 -0.867,-1 -1.55,-1.733 -2.05,-2.2 -0.434,-0.466 -1.133,-1 -2.1,-1.6 -0.333,-0.2 -0.65,-0.4 -0.95,-0.6 z"
   id="path11"
   inkscape:connector-curvature="0" />
				<path
   style="clip-rule:evenodd;fill:#8c6820;fill-opacity:0.85880001;fill-rule:evenodd"
   d="m 12.5,-9.15 c 0,0.033 -0.017,0.05 -0.05,0.05 H 12.4 c 2.2,1.567 4.95,2.733 8.25,3.5 3.3,0.8 6.317,1.2 9.05,1.2 2.633,0 5.183,-0.684 7.65,-2.05 1.066,-0.6 2.5,-1.5 4.3,-2.7 0.1,-0.067 0.217,-0.15 0.35,-0.25 0.6,-0.367 1.217,-0.783 1.85,-1.25 -0.733,0.433 -1.417,0.816 -2.05,1.15 -0.133,0.1 -0.283,0.167 -0.45,0.2 -0.934,0.533 -2.483,1.333 -4.65,2.4 -2.167,1.1 -5.267,1.683 -9.3,1.75 C 23.367,-5.117 18.483,-6.4 12.75,-9 12.65,-9.067 12.567,-9.117 12.5,-9.15 Z"
   id="path13"
   inkscape:connector-curvature="0" />
				
					<radialGradient
   id="SVGID_2_"
   cx="-665.20117"
   cy="-905.18213"
   r="19.382401"
   gradientTransform="matrix(0.9945,-0.1051,0.0439,0.4927,729.2617,369.8184)"
   gradientUnits="userSpaceOnUse">
					<stop
   offset="0"
   style="stop-color:#FFE47B"
   id="stop15" />
					<stop
   offset="1"
   style="stop-color:#CFBA63"
   id="stop17" />
				</radialGradient>
				<path
   style="clip-rule:evenodd;fill:url(#radialGradient1680);fill-rule:evenodd"
   d="m 50.7,-13.95 c 0.033,0 0.05,-0.017 0.05,-0.05 H 50.7 Z m -50.45,1.1 c 0.133,-0.1 0.467,-0.15 1,-0.15 1.2,0 2.767,0.367 4.7,1.1 0.466,0.2 0.933,0.4 1.4,0.6 1.1,0.3 2.867,0.9 5.3,1.8 1.533,0.567 3.317,1.217 5.35,1.95 3.3,1.3 6.583,1.95 9.85,1.95 1.3,0 3.25,-0.383 5.85,-1.15 2.466,-0.733 4.117,-1.35 4.95,-1.85 0.4,-0.267 1.233,-0.65 2.5,-1.15 1.133,-0.433 2.167,-0.983 3.1,-1.65 1.133,-0.767 2.117,-1.3 2.95,-1.6 0.667,-0.233 1.816,-0.55 3.45,-0.95 -0.066,0 -0.117,-0.017 -0.15,-0.05 -2.633,0.1 -4.817,0.017 -6.55,-0.25 -1.934,-0.067 -4.25,-0.117 -6.95,-0.15 -0.433,0 -0.867,0 -1.3,0 -1.133,0 -2.317,0.05 -3.55,0.15 -0.4,0 -0.767,0 -1.1,0 -7.566,0 -12.216,-0.05 -13.95,-0.15 -2.7,0.033 -5.017,0.083 -6.95,0.15 -1.733,0.267 -3.9,0.35 -6.5,0.25 -0.066,0.033 -0.133,0.05 -0.2,0.05 L 3.4,-14 H 3.35 c -0.067,0.067 -0.183,0.05 -0.35,-0.05 -0.1,0 -0.2,0 -0.3,0 -0.067,0.033 -0.217,0.05 -0.45,0.05 -0.633,0.133 -1.133,0.3 -1.5,0.5 -0.2,0.133 -0.333,0.283 -0.4,0.45 -0.033,0.033 -0.033,0.05 0,0.05 -0.033,0.067 -0.067,0.117 -0.1,0.15 z"
   id="path20"
   inkscape:connector-curvature="0" />
				
					<use
   xlink:href="#st_x5F_01"
   width="104.6"
   height="14"
   x="-11"
   y="-14"
   transform="matrix(0.6998,0,0,0.7619,13.629514,-167.94614)"
   style="overflow:visible"
   id="use22" />
			</g>
			<g
   id="g57">
				<g
   id="g30">
					<g
   id="g28">
						<path
   style="clip-rule:evenodd;fill:#a1230d;fill-opacity:0.94899998;fill-rule:evenodd"
   d="m 34.05,-3.3 c 1.5,-0.133 2.4,-0.15 2.7,-0.05 0.5,0.167 1.067,0.2 1.7,0.1 l 0.25,-0.2 c -0.267,0.1 -0.7,0.083 -1.3,-0.05 -1.3,-0.133 -2.417,-0.25 -3.35,-0.35 -1.433,-0.167 -2.7,-0.967 -3.8,-2.4 -0.733,-0.967 -1.133,-2 -1.2,-3.1 0.034,-0.066 -0.133,-0.333 -0.5,-0.8 -0.333,-0.467 -0.433,-0.9 -0.3,-1.3 0.1,-0.333 0.317,-1.017 0.65,-2.05 0.333,-1 0.25,-1.667 -0.25,-2 -0.533,-0.333 -0.85,-0.517 -0.95,-0.55 -0.333,-0.2 -0.633,-0.284 -0.9,-0.25 -0.1,0 -0.45,0.066 -1.05,0.2 -0.433,0.033 -0.883,-0.1 -1.35,-0.4 -0.433,-0.233 -1.033,-0.767 -1.8,-1.6 -0.7,-0.7 -1.483,-1.133 -2.35,-1.3 -0.767,-0.2 -1.383,-0.083 -1.85,0.35 0.5,-0.2 0.934,-0.284 1.3,-0.25 0.367,0.033 1.017,0.333 1.95,0.9 0.934,0.6 1.367,1 1.3,1.2 l 0.55,0.65 c 0.467,0.466 0.883,0.733 1.25,0.8 0.3,0 0.867,-0.05 1.7,-0.15 0.733,-0.033 1.233,0.1 1.5,0.4 0.233,0.3 0.283,0.783 0.15,1.45 -0.2,1.033 -0.317,1.633 -0.35,1.8 -0.1,1.033 0.067,2.05 0.5,3.05 0.1,0.2 0.3,0.784 0.6,1.75 0.367,0.934 0.8,1.65 1.3,2.15 1.6,1.367 2.9,2.033 3.9,2 z"
   id="path26"
   inkscape:connector-curvature="0" />
					</g>
				</g>
				<g
   id="g39">
					
						<radialGradient
   id="SVGID_3_"
   cx="5780.7949"
   cy="2817.6846"
   r="10.77"
   gradientTransform="matrix(0.8873,0.4611,0.6249,-0.9605,-6864.6113,32.7324)"
   gradientUnits="userSpaceOnUse">
						<stop
   offset="0"
   style="stop-color:#F34508;stop-opacity:0.902"
   id="stop32" />
						<stop
   offset="1"
   style="stop-color:#E01C04;stop-opacity:0.902"
   id="stop34" />
					</radialGradient>
					<path
   style="clip-rule:evenodd;fill:url(#radialGradient1682);fill-rule:evenodd"
   d="m 31.95,-2.15 c 1.6,0.033 2.75,-0.017 3.45,-0.15 1.4,-0.167 2.45,-0.5 3.15,-1 -0.3,0.1 -0.733,0.083 -1.3,-0.05 -0.3,-0.066 -0.783,-0.133 -1.45,-0.2 -0.933,-0.1 -1.566,-0.167 -1.9,-0.2 -1.433,-0.133 -2.717,-0.933 -3.85,-2.4 -0.667,-0.867 -1.066,-1.883 -1.2,-3.05 0,-0.033 -0.167,-0.3 -0.5,-0.8 -0.3,-0.5 -0.383,-0.917 -0.25,-1.25 0.1,-0.333 0.3,-1.033 0.6,-2.1 0.333,-1 0.25,-1.667 -0.25,-2 -0.534,-0.333 -0.833,-0.517 -0.9,-0.55 -0.333,-0.167 -0.633,-0.25 -0.9,-0.25 -0.167,0 -0.533,0.066 -1.1,0.2 -0.4,0.067 -0.85,-0.05 -1.35,-0.35 -0.333,-0.267 -0.934,-0.817 -1.8,-1.65 -0.633,-0.7 -1.4,-1.15 -2.3,-1.35 -0.8,-0.167 -1.417,-0.05 -1.85,0.35 -0.3,0.3 -0.183,0.85 0.35,1.65 0.467,0.733 0.583,1.167 0.35,1.3 -0.267,0.2 -0.934,0.317 -2,0.35 -1.3,0.1 -2.133,0.2 -2.5,0.3 -0.534,0.133 -0.633,0.467 -0.3,1 0.5,0.567 0.733,0.934 0.7,1.1 0,0.333 0,0.6 0,0.8 -0.033,0.3 0.05,0.567 0.25,0.8 0.233,0.333 0.367,0.8 0.4,1.4 0.033,0.667 -0.067,1.233 -0.3,1.7 -0.267,0.466 -0.367,0.816 -0.3,1.05 -0.033,0.167 0.033,0.383 0.2,0.65 l 0.75,0.95 c 0.4,0.467 0.617,0.85 0.65,1.15 0.033,0.367 0.417,0.783 1.15,1.25 0.633,0.4 1.317,0.717 2.05,0.95 0.966,0.3 1.867,0.5 2.7,0.6 1,0.034 1.667,0.1 2,0.2 0.667,0.167 1.35,0.217 2.05,0.15 0.433,-0.033 1.2,-0.15 2.3,-0.35 0.6,-0.133 1.667,-0.2 3.2,-0.2 z"
   id="path37"
   inkscape:connector-curvature="0" />
				</g>
				<g
   id="g55">
					
						<linearGradient
   id="SVGID_4_"
   gradientUnits="userSpaceOnUse"
   x1="227.57671"
   y1="-1066.9883"
   x2="233.0683"
   y2="-1066.9883"
   gradientTransform="matrix(0.9924,-0.1229,-0.0382,1.0124,-250.4395,1102.7441)">
						<stop
   offset="0"
   style="stop-color:#FFFFFF;stop-opacity:0.3373"
   id="stop41" />
						<stop
   offset="1"
   style="stop-color:#FFFFFF;stop-opacity:0"
   id="stop43" />
					</linearGradient>
					<path
   style="clip-rule:evenodd;fill:url(#linearGradient1684);fill-rule:evenodd"
   d="m 24.05,-2.25 c 0.434,-0.367 0.417,-0.667 -0.05,-0.9 -0.267,-0.133 -0.767,-0.184 -1.5,-0.15 -0.7,0.066 -1.267,0.017 -1.7,-0.15 -0.933,-0.433 -1.2,-1.533 -0.8,-3.3 0.267,-1.333 0.8,-2.4 1.6,-3.2 0.433,-0.4 0.35,-0.583 -0.25,-0.55 -0.567,0.033 -1.25,0.217 -2.05,0.55 -0.433,0.167 -0.933,0.417 -1.5,0.75 -0.367,0.267 -0.716,0.417 -1.05,0.45 -0.7,0.2 -0.967,0.817 -0.8,1.85 0.066,0.267 0.267,0.617 0.6,1.05 0.233,0.233 0.5,0.517 0.8,0.85 0.066,0.067 0.2,0.35 0.4,0.85 0.133,0.3 0.4,0.566 0.8,0.8 1.034,0.533 2.35,1.017 3.95,1.45 0.6,0.167 1.117,0.05 1.55,-0.35 z"
   id="path46"
   inkscape:connector-curvature="0" />
					
						<linearGradient
   id="SVGID_5_"
   gradientUnits="userSpaceOnUse"
   x1="-68.1045"
   y1="-1390.8916"
   x2="-35.248402"
   y2="-1390.8916"
   gradientTransform="matrix(0.9876,-0.1567,-0.004,1.0132,67.8418,1384.8145)">
						<stop
   offset="0"
   style="stop-color:#FFFFFF;stop-opacity:0.3373"
   id="stop48" />
						<stop
   offset="1"
   style="stop-color:#FFFFFF;stop-opacity:0"
   id="stop50" />
					</linearGradient>
					<path
   style="clip-rule:evenodd;fill:url(#linearGradient1686);fill-rule:evenodd"
   d="m 25.6,-15.55 c -0.967,0.033 -1.934,-0.333 -2.9,-1.1 -1.434,-1.2 -2.534,-1.767 -3.3,-1.7 -0.467,0.033 -0.583,0.25 -0.35,0.65 0.167,0.4 0.434,0.767 0.8,1.1 0.233,0.167 0.35,0.317 0.35,0.45 -0.034,0.167 -0.067,0.35 -0.1,0.55 -0.067,0.233 -0.5,0.383 -1.3,0.45 -0.966,0.033 -1.7,0.1 -2.2,0.2 -0.6,0.067 -0.633,0.15 -0.1,0.25 0.233,0.1 0.617,0.2 1.15,0.3 0.333,0.1 0.883,0.433 1.65,1 0.2,0.133 0.517,0.133 0.95,0 0.767,-0.267 1.267,-0.417 1.5,-0.45 0.3,-0.066 0.833,-0.217 1.6,-0.45 0.533,-0.167 1,-0.233 1.4,-0.2 1,0.1 1.85,-0.133 2.55,-0.7 0.333,-0.267 -0.233,-0.383 -1.7,-0.35 z"
   id="path53"
   inkscape:connector-curvature="0" />
				</g>
			</g>
			<g
   id="g144">
				
					<linearGradient
   id="SVGID_6_"
   gradientUnits="userSpaceOnUse"
   x1="16065.893"
   y1="-16533.535"
   x2="16083.598"
   y2="-16533.535"
   gradientTransform="matrix(-0.7617,-0.0183,0.0183,-0.7617,12576.463,-12301.616)">
					<stop
   offset="0"
   style="stop-color:#ED0101"
   id="stop59" />
					<stop
   offset="1"
   style="stop-color:#7E0806"
   id="stop61" />
				</linearGradient>
				<path
   style="clip-rule:evenodd;fill:url(#linearGradient1688);fill-rule:evenodd"
   d="m 28.176,-1.371 c 2.997,-0.965 4.546,-1.524 4.648,-1.677 0.102,-0.152 0.025,-0.355 -0.229,-0.609 -0.051,-0.051 -0.216,-0.076 -0.496,-0.076 -0.406,0 -0.673,-0.013 -0.8,-0.038 -0.203,-0.026 -0.495,-0.115 -0.876,-0.267 -0.432,-0.178 -0.762,-0.305 -0.991,-0.381 -0.355,-0.102 -0.825,-0.102 -1.409,0 -0.61,0.102 -1.08,0.254 -1.41,0.457 -0.356,0.254 -0.724,0.584 -1.105,0.991 -0.406,0.482 -0.622,0.876 -0.648,1.181 -0.025,0.279 0.051,0.61 0.229,0.991 0.076,0.203 0.152,0.381 0.229,0.533 l 0.8,-0.267 c 0.661,-0.229 1.347,-0.509 2.058,-0.838 z"
   id="path64"
   inkscape:connector-curvature="0" />
				
					<radialGradient
   id="SVGID_7_"
   cx="23.299801"
   cy="-4.3999"
   r="3.8627999"
   gradientTransform="matrix(0.7619,0,0,-0.7619,11.2998,-5.105)"
   gradientUnits="userSpaceOnUse">
					<stop
   offset="0"
   style="stop-color:#F34508"
   id="stop66" />
					<stop
   offset="1"
   style="stop-color:#E01C04"
   id="stop68" />
				</radialGradient>
				<path
   style="clip-rule:evenodd;fill:url(#radialGradient1690);fill-rule:evenodd"
   d="m 30.157,-1.371 c 1.473,-0.584 2.337,-1.067 2.591,-1.448 0.254,-0.355 0.051,-0.534 -0.609,-0.534 -1.168,0 -1.766,0 -1.791,0 -0.686,-0.126 -1.283,-0.126 -1.791,0 -0.813,0.203 -1.663,0.724 -2.552,1.562 -0.889,0.838 -1.016,1.384 -0.381,1.638 0.584,0.229 1.207,0.178 1.867,-0.152 0.253,-0.127 1.142,-0.482 2.666,-1.066 z"
   id="path71"
   inkscape:connector-curvature="0" />
				<path
   style="clip-rule:evenodd;fill:#df9568;fill-rule:evenodd"
   d="m 27.262,-0.686 c 0.661,-0.178 1.879,-0.686 3.657,-1.524 0.254,-0.127 0.317,-0.229 0.19,-0.305 -0.102,-0.102 -0.343,-0.114 -0.724,-0.038 -0.813,0.203 -1.524,0.152 -2.133,-0.152 -0.228,-0.127 -0.597,-0.013 -1.104,0.343 -0.508,0.33 -0.914,0.711 -1.219,1.143 -0.254,0.356 -0.178,0.571 0.228,0.648 0.304,0.05 0.673,0.012 1.105,-0.115 z"
   id="path73"
   inkscape:connector-curvature="0" />
				<path
   style="clip-rule:evenodd;fill:#e01c04;fill-rule:evenodd"
   d="m 29.738,-1.867 c 0.177,-0.076 0.012,-0.102 -0.496,-0.076 -0.762,0.051 -1.245,0.063 -1.448,0.038 -0.355,-0.051 -0.559,0.013 -0.609,0.19 -0.05,0.177 0.063,0.292 0.343,0.343 0.229,0.025 0.584,-0.013 1.067,-0.114 0.432,-0.101 0.813,-0.228 1.143,-0.381 z"
   id="path75"
   inkscape:connector-curvature="0" />
				
					<radialGradient
   id="SVGID_8_"
   cx="18.299801"
   cy="-4.5497999"
   r="0.32499999"
   gradientTransform="matrix(0.7619,0,0,-0.7619,11.2998,-5.3335)"
   gradientUnits="userSpaceOnUse">
					<stop
   offset="0"
   style="stop-color:#FDC743"
   id="stop77" />
					<stop
   offset="1"
   style="stop-color:#B58821"
   id="stop79" />
				</radialGradient>
				<path
   style="clip-rule:evenodd;fill:url(#radialGradient1692);fill-rule:evenodd"
   d="m 25.433,-1.752 c 0.025,-0.254 -0.025,-0.394 -0.152,-0.419 -0.127,-0.051 -0.19,0 -0.19,0.152 -0.025,0.152 0.025,0.279 0.152,0.381 0.101,0.127 0.165,0.089 0.19,-0.114 z"
   id="path82"
   inkscape:connector-curvature="0" />
				
					<radialGradient
   id="SVGID_9_"
   cx="24.299801"
   cy="-7.1499"
   r="0.2375"
   gradientTransform="matrix(0.7619,0,0,-0.7619,11.2998,-9.2954)"
   gradientUnits="userSpaceOnUse">
					<stop
   offset="0"
   style="stop-color:#FDC743"
   id="stop84" />
					<stop
   offset="1"
   style="stop-color:#B58821"
   id="stop86" />
				</radialGradient>
				<path
   style="clip-rule:evenodd;fill:url(#radialGradient1694);fill-rule:evenodd"
   d="m 29.966,-3.733 c 0.102,-0.051 0.102,-0.114 0,-0.19 C 29.865,-4.025 29.776,-4.051 29.7,-4 c -0.102,0.051 -0.114,0.127 -0.038,0.229 0.101,0.076 0.203,0.089 0.304,0.038 z"
   id="path89"
   inkscape:connector-curvature="0" />
				
					<radialGradient
   id="SVGID_10_"
   cx="26.8999"
   cy="-6.7997999"
   r="0.2375"
   gradientTransform="matrix(0.7619,0,0,-0.7619,11.2998,-8.7612)"
   gradientUnits="userSpaceOnUse">
					<stop
   offset="0"
   style="stop-color:#FDC743"
   id="stop91" />
					<stop
   offset="1"
   style="stop-color:#B58821"
   id="stop93" />
				</radialGradient>
				<path
   style="clip-rule:evenodd;fill:url(#radialGradient1696);fill-rule:evenodd"
   d="m 31.643,-3.466 c 0.254,0.025 0.368,-0.064 0.343,-0.267 h -0.152 c -0.102,0 -0.178,0.038 -0.229,0.114 -0.077,0.101 -0.064,0.153 0.038,0.153 z"
   id="path96"
   inkscape:connector-curvature="0" />
				
					<linearGradient
   id="SVGID_11_"
   gradientUnits="userSpaceOnUse"
   x1="25.180201"
   y1="-13.0493"
   x2="14.7777"
   y2="-8.2297001"
   gradientTransform="matrix(0.7619,0,0,0.7619,11.2998,1.6001)">
					<stop
   offset="0"
   style="stop-color:#ED0101"
   id="stop98" />
					<stop
   offset="1"
   style="stop-color:#7E0806"
   id="stop100" />
				</linearGradient>
				<path
   style="clip-rule:evenodd;fill:url(#linearGradient1698);fill-rule:evenodd"
   d="M 30.157,-6.362 C 29.979,-6.717 29.827,-6.971 29.7,-7.124 29.014,-7.657 28.227,-8.051 27.338,-8.305 27.008,-8.407 26.525,-8.534 25.89,-8.686 25.179,-8.864 24.76,-8.94 24.633,-8.915 24.405,-8.965 24.24,-8.99 24.138,-8.99 c -0.229,0 -0.331,0.14 -0.305,0.419 l 0.076,2.133 c 0,0.457 0.051,0.939 0.152,1.448 0.203,0.863 0.508,1.435 0.915,1.714 0.686,0.457 2.26,0.025 4.724,-1.295 l 0.648,-0.077 c 0.05,-0.787 -0.013,-1.358 -0.191,-1.714 z"
   id="path103"
   inkscape:connector-curvature="0" />
				
					<radialGradient
   id="SVGID_12_"
   cx="9151.6475"
   cy="-19685.955"
   r="4.8999"
   gradientTransform="matrix(-0.519,-0.5578,0.4879,-0.5831,14380.158,-6378.2085)"
   gradientUnits="userSpaceOnUse">
					<stop
   offset="0"
   style="stop-color:#F34508"
   id="stop105" />
					<stop
   offset="1"
   style="stop-color:#E01C04"
   id="stop107" />
				</radialGradient>
				<path
   style="clip-rule:evenodd;fill:url(#radialGradient1700);fill-rule:evenodd"
   d="m 30.157,-4.457 c 0.458,-0.229 0.292,-0.686 -0.495,-1.372 -0.787,-0.66 -1.587,-1.054 -2.4,-1.181 -0.33,-0.051 -1.003,-0.229 -2.019,-0.534 -0.635,-0.178 -1.016,-0.203 -1.143,-0.076 -0.102,0.076 -0.114,0.343 -0.038,0.8 0.153,0.635 0.216,1.206 0.19,1.714 -0.051,0.66 0.14,1.244 0.572,1.752 0.355,0.432 0.736,0.673 1.143,0.724 0.432,0.025 1.346,-0.368 2.743,-1.181 0.533,-0.202 1.015,-0.418 1.447,-0.646 z"
   id="path110"
   inkscape:connector-curvature="0" />
				<path
   style="clip-rule:evenodd;fill:#df9568;fill-rule:evenodd"
   d="m 28.786,-4.114 c 0.076,-0.203 -0.013,-0.444 -0.267,-0.724 -0.279,-0.305 -0.673,-0.495 -1.181,-0.571 -0.381,-0.076 -0.876,-0.279 -1.486,-0.609 -0.482,-0.254 -0.724,-0.33 -0.724,-0.229 0,0.127 0.089,0.381 0.267,0.762 0.229,0.508 0.355,0.787 0.381,0.837 0.432,1.016 0.838,1.499 1.219,1.448 0.305,-0.026 0.698,-0.127 1.181,-0.305 0.331,-0.102 0.508,-0.203 0.534,-0.305 0.05,-0.05 0.076,-0.152 0.076,-0.304 z"
   id="path112"
   inkscape:connector-curvature="0" />
				<path
   style="clip-rule:evenodd;fill:#e01c04;fill-rule:evenodd"
   d="m 26.843,-3.924 c 0.178,0.153 0.457,0.216 0.838,0.19 0.229,0 0.267,-0.139 0.114,-0.419 -0.178,-0.305 -0.444,-0.546 -0.8,-0.724 l -1.41,-0.838 z"
   id="path114"
   inkscape:connector-curvature="0" />
				
					<radialGradient
   id="SVGID_13_"
   cx="23.3501"
   cy="-11.1001"
   r="0.32519999"
   gradientTransform="matrix(-0.7614,0.0273,-0.0315,-0.8784,46.5195,-17.2461)"
   gradientUnits="userSpaceOnUse">
					<stop
   offset="0"
   style="stop-color:#FDC743"
   id="stop116" />
					<stop
   offset="1"
   style="stop-color:#B58821"
   id="stop118" />
				</radialGradient>
				<path
   style="clip-rule:evenodd;fill:url(#radialGradient1702);fill-rule:evenodd"
   d="m 29.167,-6.628 c 0.152,0.076 0.229,0.051 0.229,-0.076 0,-0.127 -0.089,-0.242 -0.267,-0.343 -0.178,-0.101 -0.279,-0.089 -0.305,0.039 -0.026,0.151 0.089,0.278 0.343,0.38 z"
   id="path121"
   inkscape:connector-curvature="0" />
				
					<radialGradient
   id="SVGID_14_"
   cx="16719.072"
   cy="-16067.313"
   r="0.38769999"
   gradientTransform="matrix(-0.7615,0.0246,-0.0491,-0.8843,11969.897,-14627.343)"
   gradientUnits="userSpaceOnUse">
					<stop
   offset="0"
   style="stop-color:#FDC743"
   id="stop123" />
					<stop
   offset="1"
   style="stop-color:#B58821"
   id="stop125" />
				</radialGradient>
				<path
   style="clip-rule:evenodd;fill:url(#radialGradient1704);fill-rule:evenodd"
   d="m 27.757,-7.619 c 0.178,0.051 0.254,0.013 0.229,-0.114 -0.025,-0.127 -0.178,-0.229 -0.457,-0.305 -0.279,-0.051 -0.368,0 -0.267,0.152 0.101,0.127 0.266,0.217 0.495,0.267 z"
   id="path128"
   inkscape:connector-curvature="0" />
				
					<radialGradient
   id="SVGID_15_"
   cx="20.200199"
   cy="-12"
   r="0.28780001"
   gradientTransform="matrix(-0.7613,0.0312,-0.0352,-0.8604,41.645,-18.4961)"
   gradientUnits="userSpaceOnUse">
					<stop
   offset="0"
   style="stop-color:#FDC743"
   id="stop130" />
					<stop
   offset="1"
   style="stop-color:#B58821"
   id="stop132" />
				</radialGradient>
				<path
   style="clip-rule:evenodd;fill:url(#radialGradient1706);fill-rule:evenodd"
   d="m 26.729,-7.39 c 0.127,0.025 0.216,0 0.267,-0.076 0.051,-0.077 -0.025,-0.14 -0.229,-0.191 -0.203,-0.051 -0.317,-0.025 -0.342,0.077 -0.052,0.101 0.049,0.164 0.304,0.19 z"
   id="path135"
   inkscape:connector-curvature="0" />
				
					<radialGradient
   id="SVGID_16_"
   cx="16722.641"
   cy="-16066.697"
   r="0.38769999"
   gradientTransform="matrix(-0.7615,0.0246,-0.0491,-0.8843,11969.9,-14627.267)"
   gradientUnits="userSpaceOnUse">
					<stop
   offset="0"
   style="stop-color:#FDC743"
   id="stop137" />
					<stop
   offset="1"
   style="stop-color:#B58821"
   id="stop139" />
				</radialGradient>
				<path
   style="clip-rule:evenodd;fill:url(#radialGradient1708);fill-rule:evenodd"
   d="m 24.9,-8.038 c 0.254,0.102 0.355,0.063 0.305,-0.114 -0.025,-0.152 -0.152,-0.241 -0.381,-0.267 -0.229,-0.051 -0.344,-0.025 -0.344,0.076 0,0.101 0.141,0.203 0.42,0.305 z"
   id="path142"
   inkscape:connector-curvature="0" />
			</g>
			<g
   id="g185">
				
					<linearGradient
   id="SVGID_17_"
   gradientUnits="userSpaceOnUse"
   x1="6.9751"
   y1="-9.2587996"
   x2="11.6251"
   y2="-9.2587996"
   gradientTransform="matrix(0.7619,0,0,0.7619,10.3501,-4.8999)">
					<stop
   offset="0"
   style="stop-color:#ED0101"
   id="stop146" />
					<stop
   offset="1"
   style="stop-color:#7E0806"
   id="stop148" />
				</linearGradient>
				<path
   style="clip-rule:evenodd;fill:url(#linearGradient1710);fill-rule:evenodd"
   d="m 15.646,-11.529 c 0.051,0.915 0.229,1.651 0.533,2.21 h 0.571 c 0.432,-0.026 0.8,-0.14 1.105,-0.343 0.635,-0.406 1.092,-1.41 1.371,-3.01 0.077,-0.406 -0.139,-0.876 -0.647,-1.409 -0.533,-0.534 -0.914,-0.648 -1.143,-0.343 z"
   id="path151"
   inkscape:connector-curvature="0" />
				
					<radialGradient
   id="SVGID_18_"
   cx="6.4990001"
   cy="-9.3500996"
   r="3.6506"
   gradientTransform="matrix(0.7619,0,0,-0.7619,10.3501,-19.1479)"
   gradientUnits="userSpaceOnUse">
					<stop
   offset="0"
   style="stop-color:#F34508"
   id="stop153" />
					<stop
   offset="1"
   style="stop-color:#E01C04"
   id="stop155" />
				</radialGradient>
				<path
   style="clip-rule:evenodd;fill:url(#radialGradient1712);fill-rule:evenodd"
   d="m 16.75,-9.662 c 0.787,-0.838 1.27,-1.816 1.448,-2.934 0.152,-1.042 0,-1.689 -0.457,-1.943 -0.407,-0.203 -1.283,-0.063 -2.629,0.419 -1.244,0.458 -2.083,0.864 -2.514,1.219 -0.305,0.254 -0.331,0.534 -0.077,0.838 0.025,0.05 0.343,0.33 0.953,0.838 0.635,0.609 1.155,1.066 1.562,1.371 0.762,0.535 1.333,0.599 1.714,0.192 z"
   id="path158"
   inkscape:connector-curvature="0" />
				<path
   style="clip-rule:evenodd;fill:#df9568;fill-rule:evenodd"
   d="m 13.703,-12.557 c -0.077,0.051 -0.013,0.127 0.19,0.229 0.355,0.178 0.635,0.356 0.838,0.534 0.381,0.355 0.813,0.66 1.295,0.914 0.584,0.33 1.016,0.432 1.295,0.305 0.229,-0.102 0.406,-0.343 0.534,-0.724 0.051,-0.229 0.152,-0.648 0.305,-1.257 0.127,-0.406 0.025,-0.635 -0.305,-0.686 -0.406,0.026 -0.66,0.039 -0.762,0.039 l -0.724,0.076 c -0.355,0.025 -0.863,0.114 -1.524,0.267 -0.635,0.151 -1.015,0.252 -1.142,0.303 z"
   id="path160"
   inkscape:connector-curvature="0" />
				<path
   style="clip-rule:evenodd;fill:#e01c04;fill-rule:evenodd"
   d="m 16.864,-11.871 c 0.152,-0.051 0.242,-0.153 0.267,-0.305 0.051,-0.153 0.025,-0.292 -0.076,-0.419 -0.152,-0.178 -1.054,-0.102 -2.705,0.229 l 0.534,0.038 0.686,0.267 c 0.558,0.203 0.99,0.266 1.294,0.19 z"
   id="path162"
   inkscape:connector-curvature="0" />
				
					<radialGradient
   id="SVGID_19_"
   cx="10"
   cy="-7.2002001"
   r="0.33750001"
   gradientTransform="matrix(0.7619,0,0,-0.7619,10.3501,-15.8716)"
   gradientUnits="userSpaceOnUse">
					<stop
   offset="0"
   style="stop-color:#FDC743"
   id="stop164" />
					<stop
   offset="1"
   style="stop-color:#B58821"
   id="stop166" />
				</radialGradient>
				<path
   style="clip-rule:evenodd;fill:url(#radialGradient1714);fill-rule:evenodd"
   d="m 17.893,-10.157 c 0.279,-0.076 0.394,-0.19 0.343,-0.343 -0.051,-0.127 -0.152,-0.165 -0.305,-0.114 -0.127,0.025 -0.204,0.114 -0.229,0.267 -0.025,0.178 0.039,0.241 0.191,0.19 z"
   id="path169"
   inkscape:connector-curvature="0" />
				
					<radialGradient
   id="SVGID_20_"
   cx="10.8501"
   cy="-10.4502"
   r="0.26249999"
   gradientTransform="matrix(0.7619,0,0,-0.7619,10.3501,-20.8237)"
   gradientUnits="userSpaceOnUse">
					<stop
   offset="0"
   style="stop-color:#FDC743"
   id="stop171" />
					<stop
   offset="1"
   style="stop-color:#B58821"
   id="stop173" />
				</radialGradient>
				<path
   style="clip-rule:evenodd;fill:url(#radialGradient1716);fill-rule:evenodd"
   d="m 18.655,-12.671 c 0.178,-0.025 0.229,-0.102 0.152,-0.229 -0.076,-0.152 -0.178,-0.203 -0.305,-0.152 -0.102,0.051 -0.127,0.127 -0.076,0.229 0.026,0.101 0.102,0.152 0.229,0.152 z"
   id="path176"
   inkscape:connector-curvature="0" />
				
					<radialGradient
   id="SVGID_21_"
   cx="11"
   cy="-8.8500996"
   r="0.25"
   gradientTransform="matrix(0.7619,0,0,-0.7619,10.3501,-18.3862)"
   gradientUnits="userSpaceOnUse">
					<stop
   offset="0"
   style="stop-color:#FDC743"
   id="stop178" />
					<stop
   offset="1"
   style="stop-color:#B58821"
   id="stop180" />
				</radialGradient>
				<path
   style="clip-rule:evenodd;fill:url(#radialGradient1718);fill-rule:evenodd"
   d="m 18.655,-11.453 c 0.229,0.051 0.318,-0.076 0.267,-0.381 h -0.19 c -0.102,0 -0.165,0.064 -0.19,0.19 -0.027,0.128 0.011,0.191 0.113,0.191 z"
   id="path183"
   inkscape:connector-curvature="0" />
			</g>
		</g>
	</g>
</symbol>
<symbol
   id="st_x5F_01"
   viewBox="-11 -14 104.6 14"
   transform="translate(-18.19036,215.70553)">
	<g
   id="g401">
		<defs
   id="defs192">
			<path
   id="SVGID_22_"
   d="M 10.8,-3.9 C 10.567,-3.767 9.834,-3.017 8.6,-1.65 7.633,-0.55 6.7,0 5.8,0 5.733,0 5.667,-0.017 5.6,-0.05 5.133,-0.283 4.117,-0.733 2.55,-1.4 1.15,-2 0.1,-2.567 -0.6,-3.1 -0.933,-3.367 -3,-4.483 -6.8,-6.45 -9.6,-7.917 -11,-9.033 -11,-9.8 c 0,-0.667 0.1,-1.1 0.3,-1.3 0.167,-0.167 0.633,-0.333 1.4,-0.5 0.867,-0.2 1.566,-0.35 2.1,-0.45 1,-0.167 1.784,-0.25 2.35,-0.25 1.067,0 2.3,0.117 3.7,0.35 0.659,0.115 1.425,0.265 2.3,0.45 H 1.6 c 1.637,0.102 4.437,0.819 8.4,2.15 3.133,1.1 5.25,1.817 6.35,2.15 -0.767,0.4 -1.567,0.867 -2.4,1.4 -1.2,0.833 -2.25,1.467 -3.15,1.9 z m 78,0.25 c -3.267,1.8 -6.667,2.85 -10.2,3.15 L 72.15,0 C 71.383,0 70.433,-0.067 69.3,-0.2 68.81,-0.258 68.41,-0.358 68.1,-0.5 67.461,-0.713 66.778,-1.247 66.05,-2.1 65.517,-2.667 65,-3.233 64.5,-3.8 62.567,-5.367 61.4,-6.283 61,-6.55 c -0.367,-0.267 -1.05,-0.567 -2.05,-0.9 0.833,-0.5 1.716,-1.05 2.65,-1.65 0.9,-0.467 1.867,-0.983 2.9,-1.55 0.633,-0.133 2.117,-0.6 4.45,-1.4 1.081,-0.3 2.206,-0.559 3.375,-0.775 l 0.025,-0.025 c 0.175,-0.088 1.042,-0.288 2.6,-0.6 2.4,-0.367 5.566,-0.55 9.5,-0.55 2.167,0 4.25,0.6 6.25,1.8 1.933,1.167 2.9,2.35 2.9,3.55 0,1.567 -1.6,3.233 -4.8,5 z"
   inkscape:connector-curvature="0" />
		</defs>
		<clipPath
   id="SVGID_23_">
			<use
   xlink:href="#SVGID_22_"
   style="overflow:visible"
   id="use194"
   x="0"
   y="0"
   width="100%"
   height="100%" />
		</clipPath>
		<g
   id="Layer_1_2_"
   clip-path="url(#SVGID_23_)">
			<g
   id="g199">
				<path
   style="clip-rule:evenodd;fill:#fff6c4;fill-rule:evenodd"
   d="m 13.125,-5.8 c 0.085,-0.003 0.143,-0.037 0.175,-0.1 v 0.1 c -0.06,0 -0.118,0 -0.175,0 z M 7.4,-5.3 c 0.064,0 0.13,0 0.2,0 C 7.552,-5.299 7.51,-5.291 7.475,-5.275 7.443,-5.261 7.418,-5.236 7.4,-5.2 Z m 9.1,-2.05 c 0,-1 -1.4,-1.816 -4.2,-2.45 -2.133,-0.467 -4.117,-0.7 -5.95,-0.7 -1.1,0 -2.267,0.15 -3.5,0.45 -1.067,0.267 -1.65,0.483 -1.75,0.65 0.333,0.066 0.533,0.133 0.6,0.2 -0.067,0.033 -0.667,0.133 -1.8,0.3 -0.8,0.1 -1.2,0.3 -1.2,0.6 0,0.6 0.617,1 1.85,1.2 1.867,0.333 2.817,0.5 2.85,0.5 0.243,0.101 0.526,0.243 0.85,0.425 L 4.2,-6.15 C 4.067,-6.117 4,-5.983 4,-5.75 c 0,0.3 0.417,0.583 1.25,0.85 0.833,0.233 1.25,0.517 1.25,0.85 -0.133,0.733 -0.167,1.25 -0.1,1.55 0.067,0.533 0.55,0.8 1.45,0.8 0.3,0 1.083,-0.267 2.35,-0.8 1.5,-0.633 2.5,-1.233 3,-1.8 0.533,-0.6 1.316,-1.133 2.35,-1.6 0.633,-0.267 0.95,-0.75 0.95,-1.45 z"
   id="path197"
   inkscape:connector-curvature="0" />
			</g>
			<g
   id="g247">
				
					<linearGradient
   id="SVGID_24_"
   gradientUnits="userSpaceOnUse"
   x1="13.6768"
   y1="-3.6747999"
   x2="6.4510002"
   y2="-0.72670001"
   gradientTransform="matrix(1.5074,0,0,1.5074,-8.6006,-1.9995)">
					<stop
   offset="0"
   style="stop-color:#ED0101"
   id="stop201" />
					<stop
   offset="1"
   style="stop-color:#7E0806"
   id="stop203" />
				</linearGradient>
				<path
   style="clip-rule:evenodd;fill:url(#linearGradient1720);fill-rule:evenodd"
   d="M 7.378,-6.824 3.157,-7.426 c -0.301,-0.05 -0.553,-0.075 -0.753,-0.075 -0.301,0 -0.452,0.1 -0.452,0.301 l -0.076,1.884 c 0,1.407 0.502,2.337 1.508,2.789 1.004,0.402 3.466,0.075 7.386,-0.98 h 1.055 c 0.101,-0.704 0.051,-1.206 -0.15,-1.508 L 10.996,-5.693 C 9.94,-6.195 8.734,-6.572 7.378,-6.824 Z"
   id="path206"
   inkscape:connector-curvature="0" />
				
					<radialGradient
   id="SVGID_25_"
   cx="4996.9404"
   cy="-19468.719"
   r="2.9885001"
   gradientTransform="matrix(-1.261,-0.8259,1.3177,-0.7881,31961.48,-11219.766)"
   gradientUnits="userSpaceOnUse">
					<stop
   offset="0"
   style="stop-color:#F34508"
   id="stop208" />
					<stop
   offset="1"
   style="stop-color:#E01C04"
   id="stop210" />
				</radialGradient>
				<path
   style="clip-rule:evenodd;fill:url(#radialGradient1722);fill-rule:evenodd"
   d="m 11.523,-3.356 c 0.753,-0.201 0.528,-0.603 -0.679,-1.207 -1.156,-0.653 -2.361,-1.03 -3.618,-1.13 -2.964,-0.603 -4.622,-0.829 -4.973,-0.678 -0.151,0.05 -0.176,0.276 -0.076,0.678 0.201,0.553 0.252,1.055 0.151,1.507 -0.151,0.553 0.101,1.056 0.754,1.508 0.553,0.402 1.13,0.628 1.733,0.678 0.704,0.05 2.161,-0.226 4.372,-0.829 z"
   id="path213"
   inkscape:connector-curvature="0" />
				<path
   style="clip-rule:evenodd;fill:#df9568;fill-rule:evenodd"
   d="M 9.337,-3.13 C 9.438,-3.331 9.313,-3.532 8.96,-3.733 8.559,-4.035 7.956,-4.236 7.152,-4.336 6.548,-4.387 5.77,-4.563 4.815,-4.864 4.162,-5.115 3.835,-5.19 3.835,-5.089 c 0.453,0.652 0.754,1.104 0.905,1.356 0.301,0.904 0.879,1.332 1.733,1.281 0.452,0 1.08,-0.076 1.884,-0.227 0.502,-0.05 0.804,-0.125 0.904,-0.226 0.052,-0.049 0.076,-0.124 0.076,-0.225 z"
   id="path215"
   inkscape:connector-curvature="0" />
				<path
   style="clip-rule:evenodd;fill:#e01c04;fill-rule:evenodd"
   d="m 7.604,-2.829 c 0.352,0 0.402,-0.125 0.151,-0.376 C 7.503,-3.457 7.127,-3.683 6.625,-3.884 L 4.438,-4.638 5.87,-3.432 c 0.402,0.403 0.98,0.603 1.734,0.603 z"
   id="path217"
   inkscape:connector-curvature="0" />
				
					<radialGradient
   id="SVGID_26_"
   cx="12.3501"
   cy="-2.2997999"
   r="0.26249999"
   gradientTransform="matrix(-1.5074,0,0,-0.9331,28.6338,-7.6113)"
   gradientUnits="userSpaceOnUse">
					<stop
   offset="0"
   style="stop-color:#FDC743"
   id="stop219" />
					<stop
   offset="1"
   style="stop-color:#B58821"
   id="stop221" />
				</radialGradient>
				<path
   style="clip-rule:evenodd;fill:url(#radialGradient1724);fill-rule:evenodd"
   d="m 10.091,-5.24 c 0.252,0.05 0.377,0.025 0.377,-0.076 0,-0.15 -0.125,-0.251 -0.377,-0.301 -0.251,-0.151 -0.427,-0.151 -0.527,0 -0.051,0.1 0.125,0.226 0.527,0.377 z"
   id="path224"
   inkscape:connector-curvature="0" />
				
					<radialGradient
   id="SVGID_27_"
   cx="10.8501"
   cy="-2.8999"
   r="0.3125"
   gradientTransform="matrix(-1.5074,0,0,-0.9647,24.1123,-9.1675)"
   gradientUnits="userSpaceOnUse">
					<stop
   offset="0"
   style="stop-color:#FDC743"
   id="stop226" />
					<stop
   offset="1"
   style="stop-color:#B58821"
   id="stop228" />
				</radialGradient>
				<path
   style="clip-rule:evenodd;fill:url(#radialGradient1726);fill-rule:evenodd"
   d="m 7.981,-6.22 c 0.302,0.05 0.427,0.025 0.377,-0.076 -0.05,-0.1 -0.276,-0.176 -0.679,-0.226 -0.452,-0.05 -0.603,-0.025 -0.452,0.075 0.151,0.101 0.402,0.176 0.754,0.227 z"
   id="path231"
   inkscape:connector-curvature="0" />
				
					<radialGradient
   id="SVGID_28_"
   cx="9.8999004"
   cy="-2.75"
   r="0.22499999"
   gradientTransform="matrix(-1.5074,0,0,-0.9212,21.2471,-8.6763)"
   gradientUnits="userSpaceOnUse">
					<stop
   offset="0"
   style="stop-color:#FDC743"
   id="stop233" />
					<stop
   offset="1"
   style="stop-color:#B58821"
   id="stop235" />
				</radialGradient>
				<path
   style="clip-rule:evenodd;fill:url(#radialGradient1728);fill-rule:evenodd"
   d="m 6.398,-5.994 c 0.854,0 0.879,-0.101 0.075,-0.302 -0.351,-0.05 -0.552,-0.025 -0.602,0.076 -0.05,0.1 0.125,0.176 0.527,0.226 z"
   id="path238"
   inkscape:connector-curvature="0" />
				
					<radialGradient
   id="SVGID_29_"
   cx="8.0497999"
   cy="-3.2002001"
   r="0.3125"
   gradientTransform="matrix(-1.5074,0,0,-0.9647,15.6689,-9.9097)"
   gradientUnits="userSpaceOnUse">
					<stop
   offset="0"
   style="stop-color:#FDC743"
   id="stop240" />
					<stop
   offset="1"
   style="stop-color:#B58821"
   id="stop242" />
				</radialGradient>
				<path
   style="clip-rule:evenodd;fill:url(#radialGradient1730);fill-rule:evenodd"
   d="m 3.534,-6.673 c 0.403,0.05 0.604,0.025 0.604,-0.075 C 4.086,-6.899 3.886,-7 3.534,-7.05 c -0.351,0 -0.553,0.05 -0.603,0.151 -0.05,0.101 0.151,0.176 0.603,0.226 z"
   id="path245"
   inkscape:connector-curvature="0" />
			</g>
			<g
   id="g251">
				<path
   style="clip-rule:evenodd;fill:#fff6c4;fill-rule:evenodd"
   d="m 75.75,-8.45 c -0.133,-0.167 -0.133,-0.3 0,-0.4 0.033,-0.1 0.3,-0.283 0.8,-0.55 0.367,-0.167 0.733,-0.367 1.1,-0.6 0.333,-0.167 0.633,-0.233 0.9,-0.2 0.3,0.067 0.784,-0.1 1.45,-0.5 0.6,-0.4 0.933,-0.716 1,-0.95 -0.067,-0.133 -0.467,-0.05 -1.2,0.25 -0.9,0.367 -1.45,0.55 -1.65,0.55 -0.467,0.033 -0.4,-0.167 0.2,-0.6 0.667,-0.433 0.95,-0.7 0.85,-0.8 -0.2,-0.167 -0.767,-0.117 -1.7,0.15 -1.067,0.333 -1.783,0.417 -2.15,0.25 -0.267,-0.133 -1.233,0.033 -2.9,0.5 l -4.35,1.05 -0.35,-0.9 -1.35,0.1 c -0.5,0 -0.833,0.033 -1,0.1 -0.367,0.133 -0.767,0.283 -1.2,0.45 -0.467,0.2 -0.767,0.283 -0.9,0.25 -0.066,-0.1 -0.2,-0.184 -0.4,-0.25 -0.267,-0.067 -0.867,0.033 -1.8,0.3 -0.934,0.3 -1.85,0.667 -2.75,1.1 -4.333,2.633 -7.117,4.433 -8.35,5.4 -0.733,0.567 -0.817,0.883 -0.25,0.95 0.367,0.033 1.117,0.017 2.25,-0.05 1.1,0.033 4.617,-0.5 10.55,-1.6 4.3,-0.633 6.917,-1.083 7.85,-1.35 0.9,-0.233 1.617,-0.483 2.15,-0.75 0.333,-0.167 0.783,-0.45 1.35,-0.85 0.3,-0.2 0.767,-0.417 1.4,-0.65 0.333,-0.133 0.483,-0.267 0.45,-0.4 z"
   id="path249"
   inkscape:connector-curvature="0" />
			</g>
			<g
   id="g299">
				
					<linearGradient
   id="SVGID_30_"
   gradientUnits="userSpaceOnUse"
   x1="-2456.8818"
   y1="-3690.0688"
   x2="-2444.2449"
   y2="-3690.0688"
   gradientTransform="matrix(-0.9259,-0.3779,-0.3779,0.9259,-3591.873,2486.4688)">
					<stop
   offset="0"
   style="stop-color:#ED0101"
   id="stop253" />
					<stop
   offset="1"
   style="stop-color:#7E0806"
   id="stop255" />
				</linearGradient>
				<path
   style="clip-rule:evenodd;fill:url(#linearGradient1732);fill-rule:evenodd"
   d="m 75.25,-2.75 -3,1.1 c -2.133,0.633 -3.5,0.75 -4.1,0.35 -0.934,-0.6 -1.4,-2.017 -1.4,-4.25 l 0.05,-2.8 c 0,-0.367 0.15,-0.534 0.45,-0.5 0.367,0.066 0.617,0.1 0.75,0.1 0.2,0 0.816,0.133 1.85,0.4 0.966,0.233 1.683,0.417 2.15,0.55 0.8,0.233 1.617,0.583 2.45,1.05 l 1,0.65 0.6,1.05 c 0.133,0.3 0.217,0.767 0.25,1.4 l -0.05,0.85 z"
   id="path258"
   inkscape:connector-curvature="0" />
				
					<radialGradient
   id="SVGID_31_"
   cx="-3358.4219"
   cy="-8380.4219"
   r="5.2160001"
   gradientTransform="matrix(-0.6926,-0.7213,0.7213,-0.6926,3790.1479,-8229.3877)"
   gradientUnits="userSpaceOnUse">
					<stop
   offset="0"
   style="stop-color:#F34508"
   id="stop260" />
					<stop
   offset="1"
   style="stop-color:#E01C04"
   id="stop262" />
				</radialGradient>
				<path
   style="clip-rule:evenodd;fill:url(#radialGradient1734);fill-rule:evenodd"
   d="m 75.95,-2.55 -2.2,0.8 c -0.434,0.133 -1.167,0.417 -2.2,0.85 -0.967,0.367 -1.633,0.533 -2,0.5 -0.567,-0.1 -1.117,-0.433 -1.65,-1 -0.6,-0.7 -0.85,-1.483 -0.75,-2.35 0.1,-0.667 0.066,-1.433 -0.1,-2.3 -0.1,-0.6 -0.084,-0.95 0.05,-1.05 0.2,-0.133 0.767,-0.067 1.7,0.2 1.433,0.434 2.45,0.7 3.05,0.8 1.167,0.2 2.317,0.767 3.45,1.7 1.133,0.967 1.35,1.584 0.65,1.85 z"
   id="path265"
   inkscape:connector-curvature="0" />
				<path
   style="clip-rule:evenodd;fill:#df9568;fill-rule:evenodd"
   d="m 73.85,-2.2 c -0.066,0.1 -0.1,0.233 -0.1,0.4 -0.067,0.1 -0.35,0.217 -0.85,0.35 -0.833,0.2 -1.417,0.316 -1.75,0.35 -0.7,0.033 -1.267,-0.617 -1.7,-1.95 -0.033,-0.1 -0.2,-0.483 -0.5,-1.15 -0.267,-0.5 -0.383,-0.833 -0.35,-1 0,-0.133 0.333,-0.017 1,0.35 0.866,0.467 1.6,0.75 2.2,0.85 0.733,0.133 1.3,0.417 1.7,0.85 0.367,0.4 0.483,0.717 0.35,0.95 z"
   id="path267"
   inkscape:connector-curvature="0" />
				<path
   style="clip-rule:evenodd;fill:#e01c04;fill-rule:evenodd"
   d="m 72.2,-1.75 c -0.566,0 -0.983,-0.1 -1.25,-0.3 -0.033,-0.033 -0.167,-0.233 -0.4,-0.6 L 69.2,-4.5 c 0.667,0.434 1.35,0.833 2.05,1.2 0.533,0.267 0.917,0.6 1.15,1 0.233,0.367 0.166,0.55 -0.2,0.55 z"
   id="path269"
   inkscape:connector-curvature="0" />
				
					<radialGradient
   id="SVGID_32_"
   cx="26"
   cy="-18.950199"
   r="0.375"
   gradientTransform="rotate(180,50.2749,-12.3501)"
   gradientUnits="userSpaceOnUse">
					<stop
   offset="0"
   style="stop-color:#FDC743"
   id="stop271" />
					<stop
   offset="1"
   style="stop-color:#B58821"
   id="stop273" />
				</radialGradient>
				<path
   style="clip-rule:evenodd;fill:url(#radialGradient1736);fill-rule:evenodd"
   d="m 74.6,-5.45 c -0.4,-0.167 -0.566,-0.333 -0.5,-0.5 0.067,-0.2 0.233,-0.217 0.5,-0.05 0.233,0.167 0.35,0.317 0.35,0.45 0,0.167 -0.117,0.2 -0.35,0.1 z"
   id="path276"
   inkscape:connector-curvature="0" />
				
					<radialGradient
   id="SVGID_33_"
   cx="28.200199"
   cy="-20.3501"
   r="0.44999999"
   gradientTransform="rotate(180,50.2749,-13.75)"
   gradientUnits="userSpaceOnUse">
					<stop
   offset="0"
   style="stop-color:#FDC743"
   id="stop278" />
					<stop
   offset="1"
   style="stop-color:#B58821"
   id="stop280" />
				</radialGradient>
				<path
   style="clip-rule:evenodd;fill:url(#radialGradient1738);fill-rule:evenodd"
   d="m 72.6,-6.85 c -0.367,-0.067 -0.633,-0.2 -0.8,-0.4 -0.133,-0.2 0.017,-0.25 0.45,-0.15 0.4,0.1 0.633,0.233 0.7,0.4 0.033,0.167 -0.083,0.217 -0.35,0.15 z"
   id="path283"
   inkscape:connector-curvature="0" />
				
					<radialGradient
   id="SVGID_34_"
   cx="29.549801"
   cy="-20"
   r="0.32499999"
   gradientTransform="rotate(180,50.2749,-13.3999)"
   gradientUnits="userSpaceOnUse">
					<stop
   offset="0"
   style="stop-color:#FDC743"
   id="stop285" />
					<stop
   offset="1"
   style="stop-color:#B58821"
   id="stop287" />
				</radialGradient>
				<path
   style="clip-rule:evenodd;fill:url(#radialGradient1740);fill-rule:evenodd"
   d="m 71.05,-6.6 c -0.367,-0.034 -0.533,-0.117 -0.5,-0.25 0.067,-0.133 0.25,-0.167 0.55,-0.1 0.267,0.066 0.367,0.15 0.3,0.25 -0.067,0.1 -0.184,0.134 -0.35,0.1 z"
   id="path290"
   inkscape:connector-curvature="0" />
				
					<radialGradient
   id="SVGID_35_"
   cx="32.2495"
   cy="-21"
   r="0.45019999"
   gradientTransform="rotate(180,50.2749,-14.3999)"
   gradientUnits="userSpaceOnUse">
					<stop
   offset="0"
   style="stop-color:#FDC743"
   id="stop292" />
					<stop
   offset="1"
   style="stop-color:#B58821"
   id="stop294" />
				</radialGradient>
				<path
   style="clip-rule:evenodd;fill:url(#radialGradient1742);fill-rule:evenodd"
   d="m 68.35,-7.55 c -0.433,-0.133 -0.633,-0.283 -0.6,-0.45 0.033,-0.133 0.216,-0.167 0.55,-0.1 0.333,0.033 0.517,0.167 0.55,0.4 0.033,0.234 -0.134,0.283 -0.5,0.15 z"
   id="path297"
   inkscape:connector-curvature="0" />
			</g>
			<g
   id="g347">
				
					<linearGradient
   id="SVGID_36_"
   gradientUnits="userSpaceOnUse"
   x1="45.629398"
   y1="-22.9561"
   x2="34.328602"
   y2="-18.358"
   gradientTransform="matrix(-1,0,0,1,104.1504,11.5498)">
					<stop
   offset="0"
   style="stop-color:#ED0101"
   id="stop301" />
					<stop
   offset="1"
   style="stop-color:#7E0806"
   id="stop303" />
				</linearGradient>
				<path
   style="clip-rule:evenodd;fill:url(#linearGradient1744);fill-rule:evenodd"
   d="m 63,-11.15 c 2.267,-0.566 3.533,-0.85 3.8,-0.85 0.3,-0.067 0.533,-0.1 0.7,-0.1 0.267,0 0.4,0.15 0.4,0.45 l 0.05,2.45 c 0,1.967 -0.433,3.217 -1.3,3.75 -0.9,0.533 -3.133,0.1 -6.7,-1.3 L 59.05,-6.8 C 58.95,-7.7 59,-8.35 59.2,-8.75 l 0.6,-0.9 c 0.934,-0.667 2,-1.167 3.2,-1.5 z"
   id="path306"
   inkscape:connector-curvature="0" />
				
					<radialGradient
   id="SVGID_37_"
   cx="7469.7866"
   cy="-19672.256"
   r="4.7027998"
   gradientTransform="matrix(0.7177,-0.6964,-0.7496,-0.6698,-20042.244,-7981.5498)"
   gradientUnits="userSpaceOnUse">
					<stop
   offset="0"
   style="stop-color:#F34508"
   id="stop308" />
					<stop
   offset="1"
   style="stop-color:#E01C04"
   id="stop310" />
				</radialGradient>
				<path
   style="clip-rule:evenodd;fill:url(#radialGradient1746);fill-rule:evenodd"
   d="m 59.351,-6.55 c -0.667,-0.233 -0.467,-0.767 0.6,-1.6 1.067,-0.833 2.15,-1.333 3.25,-1.5 0.6,-0.1 1.55,-0.333 2.85,-0.7 0.867,-0.233 1.383,-0.3 1.55,-0.2 0.133,0.1 0.15,0.417 0.05,0.95 -0.167,0.733 -0.2,1.4 -0.1,2 0.1,0.767 -0.133,1.45 -0.7,2.05 -0.467,0.467 -0.984,0.75 -1.551,0.85 -0.6,0.067 -1.9,-0.333 -3.9,-1.2 -0.766,-0.2 -1.45,-0.417 -2.049,-0.65 z"
   id="path313"
   inkscape:connector-curvature="0" />
				<path
   style="clip-rule:evenodd;fill:#df9568;fill-rule:evenodd"
   d="m 61.3,-6.25 c -0.133,-0.233 -0.033,-0.517 0.3,-0.85 0.367,-0.367 0.9,-0.617 1.6,-0.75 0.567,-0.1 1.25,-0.35 2.05,-0.75 0.634,-0.3 0.95,-0.4 0.95,-0.3 0.034,0.133 -0.066,0.434 -0.3,0.9 l -0.5,1 c -0.1,0.4 -0.267,0.75 -0.5,1.05 -0.333,0.467 -0.7,0.683 -1.1,0.65 -0.3,-0.033 -0.833,-0.133 -1.6,-0.3 -0.466,-0.1 -0.75,-0.2 -0.85,-0.3 -0.033,-0.067 -0.05,-0.183 -0.05,-0.35 z"
   id="path315"
   inkscape:connector-curvature="0" />
				<path
   style="clip-rule:evenodd;fill:#e01c04;fill-rule:evenodd"
   d="m 62.7,-6.35 c 0.2,-0.333 0.55,-0.617 1.05,-0.85 l 1.9,-1.05 c -0.7,0.833 -1.117,1.367 -1.25,1.6 -0.233,0.333 -0.366,0.517 -0.4,0.55 -0.233,0.167 -0.617,0.25 -1.15,0.25 -0.333,0 -0.383,-0.167 -0.15,-0.5 z"
   id="path317"
   inkscape:connector-curvature="0" />
				
					<radialGradient
   id="SVGID_38_"
   cx="43.5"
   cy="-20.8999"
   r="0.34999999"
   gradientTransform="matrix(1,0,0,-0.9286,17.1504,-28.7559)"
   gradientUnits="userSpaceOnUse">
					<stop
   offset="0"
   style="stop-color:#FDC743"
   id="stop319" />
					<stop
   offset="1"
   style="stop-color:#B58821"
   id="stop321" />
				</radialGradient>
				<path
   style="clip-rule:evenodd;fill:url(#radialGradient1748);fill-rule:evenodd"
   d="m 60.601,-9.1 c -0.233,0.066 -0.35,0.033 -0.35,-0.1 0,-0.133 0.117,-0.267 0.35,-0.4 0.233,-0.133 0.383,-0.117 0.45,0.05 0.066,0.167 -0.084,0.317 -0.45,0.45 z"
   id="path324"
   inkscape:connector-curvature="0" />
				
					<radialGradient
   id="SVGID_39_"
   cx="41.450199"
   cy="-22.1001"
   r="0.42500001"
   gradientTransform="matrix(1,0,0,-0.9118,21.25,-30.6992)"
   gradientUnits="userSpaceOnUse">
					<stop
   offset="0"
   style="stop-color:#FDC743"
   id="stop326" />
					<stop
   offset="1"
   style="stop-color:#B58821"
   id="stop328" />
				</radialGradient>
				<path
   style="clip-rule:evenodd;fill:url(#radialGradient1750);fill-rule:evenodd"
   d="m 62.45,-10.3 c -0.233,0.033 -0.333,-0.033 -0.3,-0.2 0.033,-0.133 0.25,-0.233 0.65,-0.3 0.4,-0.1 0.533,-0.066 0.4,0.1 -0.166,0.2 -0.416,0.333 -0.75,0.4 z"
   id="path331"
   inkscape:connector-curvature="0" />
				
					<radialGradient
   id="SVGID_40_"
   cx="40.200199"
   cy="-21.799801"
   r="0.30000001"
   gradientTransform="matrix(1,0,0,-0.9583,23.75,-31.1406)"
   gradientUnits="userSpaceOnUse">
					<stop
   offset="0"
   style="stop-color:#FDC743"
   id="stop333" />
					<stop
   offset="1"
   style="stop-color:#B58821"
   id="stop335" />
				</radialGradient>
				<path
   style="clip-rule:evenodd;fill:url(#radialGradient1752);fill-rule:evenodd"
   d="m 63.9,-10.1 c -0.167,0.033 -0.283,0 -0.35,-0.1 -0.066,-0.1 0.033,-0.167 0.3,-0.2 0.3,-0.066 0.466,-0.05 0.5,0.05 0.034,0.1 -0.116,0.183 -0.45,0.25 z"
   id="path338"
   inkscape:connector-curvature="0" />
				
					<radialGradient
   id="SVGID_41_"
   cx="37.650398"
   cy="-22.700199"
   r="0.42480001"
   gradientTransform="matrix(1,0,0,-0.9118,28.8496,-31.8477)"
   gradientUnits="userSpaceOnUse">
					<stop
   offset="0"
   style="stop-color:#FDC743"
   id="stop340" />
					<stop
   offset="1"
   style="stop-color:#B58821"
   id="stop342" />
				</radialGradient>
				<path
   style="clip-rule:evenodd;fill:url(#radialGradient1754);fill-rule:evenodd"
   d="m 66.45,-10.95 c -0.333,0.133 -0.483,0.1 -0.45,-0.1 0.033,-0.2 0.2,-0.316 0.5,-0.35 0.333,-0.066 0.5,-0.033 0.5,0.1 0.034,0.1 -0.149,0.217 -0.55,0.35 z"
   id="path345"
   inkscape:connector-curvature="0" />
			</g>
			<g
   id="g395">
				
					<linearGradient
   id="SVGID_42_"
   gradientUnits="userSpaceOnUse"
   x1="13.6768"
   y1="-3.6747999"
   x2="6.4510002"
   y2="-0.72670001"
   gradientTransform="matrix(-1.1193,0,0,1.1193,22.9009,-6.6001)">
					<stop
   offset="0"
   style="stop-color:#ED0101"
   id="stop349" />
					<stop
   offset="1"
   style="stop-color:#7E0806"
   id="stop351" />
				</linearGradient>
				<path
   style="clip-rule:evenodd;fill:url(#linearGradient1756);fill-rule:evenodd"
   d="m 11.036,-10.182 3.134,-0.448 c 0.224,-0.037 0.411,-0.056 0.56,-0.056 0.223,0 0.335,0.074 0.335,0.223 l 0.056,1.399 c 0,1.045 -0.373,1.735 -1.119,2.071 -0.746,0.298 -2.574,0.056 -5.485,-0.728 H 7.734 C 7.66,-8.242 7.697,-8.614 7.846,-8.838 L 8.35,-9.342 c 0.784,-0.373 1.679,-0.653 2.686,-0.84 z"
   id="path354"
   inkscape:connector-curvature="0" />
				
					<radialGradient
   id="SVGID_43_"
   cx="4996.9404"
   cy="-19468.719"
   r="2.9885001"
   gradientTransform="matrix(0.9363,-0.6133,-0.9785,-0.5852,-23716.475,-8336.3477)"
   gradientUnits="userSpaceOnUse">
					<stop
   offset="0"
   style="stop-color:#F34508"
   id="stop356" />
					<stop
   offset="1"
   style="stop-color:#E01C04"
   id="stop358" />
				</radialGradient>
				<path
   style="clip-rule:evenodd;fill:url(#radialGradient1758);fill-rule:evenodd"
   d="m 7.958,-7.607 c -0.56,-0.149 -0.392,-0.448 0.504,-0.896 0.858,-0.485 1.753,-0.765 2.687,-0.839 2.201,-0.448 3.433,-0.616 3.693,-0.503 0.112,0.037 0.13,0.205 0.056,0.503 -0.149,0.41 -0.187,0.784 -0.112,1.119 0.112,0.411 -0.075,0.784 -0.56,1.119 -0.411,0.299 -0.84,0.467 -1.287,0.504 -0.522,0.038 -1.605,-0.167 -3.246,-0.615 z"
   id="path361"
   inkscape:connector-curvature="0" />
				<path
   style="clip-rule:evenodd;fill:#df9568;fill-rule:evenodd"
   d="M 9.582,-7.439 C 9.506,-7.588 9.6,-7.738 9.861,-7.887 c 0.298,-0.224 0.746,-0.373 1.343,-0.447 0.448,-0.038 1.026,-0.168 1.735,-0.392 0.484,-0.187 0.727,-0.243 0.727,-0.167 -0.335,0.484 -0.56,0.82 -0.671,1.007 -0.224,0.672 -0.653,0.989 -1.287,0.952 -0.335,0 -0.802,-0.056 -1.399,-0.168 C 9.936,-7.141 9.712,-7.197 9.637,-7.271 9.6,-7.309 9.582,-7.364 9.582,-7.439 Z"
   id="path363"
   inkscape:connector-curvature="0" />
				<path
   style="clip-rule:evenodd;fill:#e01c04;fill-rule:evenodd"
   d="m 10.869,-7.215 c -0.262,0 -0.299,-0.093 -0.112,-0.28 0.187,-0.187 0.467,-0.354 0.839,-0.504 l 1.624,-0.56 -1.064,0.895 c -0.299,0.3 -0.728,0.449 -1.287,0.449 z"
   id="path365"
   inkscape:connector-curvature="0" />
				
					<radialGradient
   id="SVGID_44_"
   cx="12.3501"
   cy="-2.2997999"
   r="0.26249999"
   gradientTransform="matrix(1.1193,0,0,-0.6929,-4.7471,-10.7671)"
   gradientUnits="userSpaceOnUse">
					<stop
   offset="0"
   style="stop-color:#FDC743"
   id="stop367" />
					<stop
   offset="1"
   style="stop-color:#B58821"
   id="stop369" />
				</radialGradient>
				<path
   style="clip-rule:evenodd;fill:url(#radialGradient1760);fill-rule:evenodd"
   d="m 9.021,-9.006 c -0.187,0.037 -0.28,0.019 -0.28,-0.056 0,-0.111 0.093,-0.187 0.28,-0.224 0.187,-0.112 0.317,-0.112 0.392,0 0.038,0.074 -0.093,0.168 -0.392,0.28 z"
   id="path372"
   inkscape:connector-curvature="0" />
				
					<radialGradient
   id="SVGID_45_"
   cx="10.8501"
   cy="-2.8999"
   r="0.3125"
   gradientTransform="matrix(1.1193,0,0,-0.7164,-1.3892,-11.9229)"
   gradientUnits="userSpaceOnUse">
					<stop
   offset="0"
   style="stop-color:#FDC743"
   id="stop374" />
					<stop
   offset="1"
   style="stop-color:#B58821"
   id="stop376" />
				</radialGradient>
				<path
   style="clip-rule:evenodd;fill:url(#radialGradient1762);fill-rule:evenodd"
   d="m 10.588,-9.734 c -0.224,0.037 -0.317,0.019 -0.28,-0.056 0.037,-0.074 0.205,-0.13 0.504,-0.168 0.336,-0.037 0.448,-0.019 0.336,0.056 -0.112,0.075 -0.298,0.131 -0.56,0.168 z"
   id="path379"
   inkscape:connector-curvature="0" />
				
					<radialGradient
   id="SVGID_46_"
   cx="9.8999004"
   cy="-2.75"
   r="0.22499999"
   gradientTransform="matrix(1.1193,0,0,-0.684,0.7378,-11.5581)"
   gradientUnits="userSpaceOnUse">
					<stop
   offset="0"
   style="stop-color:#FDC743"
   id="stop381" />
					<stop
   offset="1"
   style="stop-color:#B58821"
   id="stop383" />
				</radialGradient>
				<path
   style="clip-rule:evenodd;fill:url(#radialGradient1764);fill-rule:evenodd"
   d="m 11.764,-9.566 c -0.634,0 -0.653,-0.075 -0.056,-0.224 0.261,-0.037 0.41,-0.019 0.447,0.056 0.038,0.075 -0.092,0.131 -0.391,0.168 z"
   id="path386"
   inkscape:connector-curvature="0" />
				
					<radialGradient
   id="SVGID_47_"
   cx="8.0497999"
   cy="-3.2002001"
   r="0.3125"
   gradientTransform="matrix(1.1193,0,0,-0.7164,4.8804,-12.4736)"
   gradientUnits="userSpaceOnUse">
					<stop
   offset="0"
   style="stop-color:#FDC743"
   id="stop388" />
					<stop
   offset="1"
   style="stop-color:#B58821"
   id="stop390" />
				</radialGradient>
				<path
   style="clip-rule:evenodd;fill:url(#radialGradient1766);fill-rule:evenodd"
   d="m 13.891,-10.07 c -0.299,0.037 -0.448,0.019 -0.448,-0.056 0.038,-0.112 0.187,-0.187 0.448,-0.224 0.261,0 0.411,0.037 0.448,0.112 0.036,0.075 -0.112,0.131 -0.448,0.168 z"
   id="path393"
   inkscape:connector-curvature="0" />
			</g>
		</g>
		<g
   id="Layer_3_1_"
   clip-path="url(#SVGID_23_)">
			<path
   style="clip-rule:evenodd;fill-opacity:0.50199998;fill-rule:evenodd"
   d="m 14,-7.25 c 0,0.5 -0.5,0.917 -1.5,1.25 -1.2,0.3 -2,0.533 -2.4,0.7 -0.167,0.069 -0.85,0.736 -2.05,2 -1.2,1.259 -2.058,1.926 -2.575,2 C 5.396,-1.288 5.321,-1.28 5.25,-1.275 5.38,-0.741 5.497,-0.333 5.6,-0.05 5.667,-0.017 5.733,0 5.8,0 c 0.9,0 1.833,-0.55 2.8,-1.65 1.233,-1.367 1.967,-2.117 2.2,-2.25 0.9,-0.434 1.95,-1.067 3.15,-1.9 0.833,-0.534 1.633,-1 2.4,-1.4 C 15.707,-7.395 14.715,-7.72 13.375,-8.175 13.792,-7.931 14,-7.623 14,-7.25 Z m 53.2,4.65 c -0.133,-0.1 -0.534,-0.667 -1.2,-1.7 -0.233,-0.3 -1.05,-1.017 -2.45,-2.15 -1.233,-1 -1.85,-1.617 -1.85,-1.85 0,-0.424 0.108,-0.766 0.325,-1.025 -0.142,0.076 -0.283,0.152 -0.425,0.225 -0.934,0.6 -1.817,1.15 -2.65,1.65 1,0.333 1.683,0.633 2.05,0.9 0.4,0.267 1.567,1.183 3.5,2.75 0.5,0.566 1.017,1.133 1.55,1.7 0.967,1.133 1.85,1.7 2.65,1.7 0.586,0 1.027,-0.267 1.325,-0.8 C 68.932,-1.282 67.99,-1.749 67.2,-2.6 Z"
   id="path398"
   inkscape:connector-curvature="0" />
		</g>
	</g>
</symbol>
<use
   xlink:href="#crepes"
   width="73.195999"
   height="19.483"
   x="-6.7979999"
   y="-19.495001"
   transform="matrix(4.444943,0,0,-4.444943,80.898849,1043.4447)"
   style="overflow:visible"
   id="use404" />
</svg>