<?xml version="1.0" encoding="UTF-8" standalone="no"?>
<!-- Generator: Adobe Illustrator 15.1.0, SVG Export Plug-In . SVG Version: 6.00 Build 0)  -->

<svg
   xmlns:dc="http://purl.org/dc/elements/1.1/"
   xmlns:cc="http://creativecommons.org/ns#"
   xmlns:rdf="http://www.w3.org/1999/02/22-rdf-syntax-ns#"
   xmlns:svg="http://www.w3.org/2000/svg"
   xmlns="http://www.w3.org/2000/svg"
   xmlns:xlink="http://www.w3.org/1999/xlink"
   xmlns:sodipodi="http://sodipodi.sourceforge.net/DTD/sodipodi-0.dtd"
   xmlns:inkscape="http://www.inkscape.org/namespaces/inkscape"
   version="1.1"
   id="flash0.ai"
   x="0px"
   y="0px"
   width="256"
   height="256"
   viewBox="0 0 256.00001 255.99999"
   xml:space="preserve"
   sodipodi:docname="fried_bread.svg"
   inkscape:version="0.92.4 (5da689c313, 2019-01-14)"
   inkscape:export-xdpi="10.5"
   inkscape:export-ydpi="10.5"><title
   id="title1462">Fried Bread</title><metadata
   id="metadata655"><rdf:RDF><cc:Work
       rdf:about=""><dc:format>image/svg+xml</dc:format><dc:type
         rdf:resource="http://purl.org/dc/dcmitype/StillImage" /><dc:title>Fried Bread</dc:title><cc:license
         rdf:resource="http://creativecommons.org/publicdomain/zero/1.0/" /><dc:creator><cc:Agent><dc:title>Glitch</dc:title></cc:Agent></dc:creator><dc:source>https://opengameart.org/node/20149</dc:source></cc:Work><cc:License
       rdf:about="http://creativecommons.org/publicdomain/zero/1.0/"><cc:permits
         rdf:resource="http://creativecommons.org/ns#Reproduction" /><cc:permits
         rdf:resource="http://creativecommons.org/ns#Distribution" /><cc:permits
         rdf:resource="http://creativecommons.org/ns#DerivativeWorks" /></cc:License></rdf:RDF></metadata><defs
   id="defs653" /><sodipodi:namedview
   pagecolor="#ffffff"
   bordercolor="#666666"
   borderopacity="1"
   objecttolerance="10"
   gridtolerance="10"
   guidetolerance="10"
   inkscape:pageopacity="0"
   inkscape:pageshadow="2"
   inkscape:window-width="1920"
   inkscape:window-height="1025"
   id="namedview651"
   showgrid="false"
   inkscape:zoom="0.4153023"
   inkscape:cx="636.86105"
   inkscape:cy="9.7670228"
   inkscape:window-x="-8"
   inkscape:window-y="-8"
   inkscape:window-maximized="1"
   inkscape:current-layer="flash0.ai"
   fit-margin-top="0"
   fit-margin-left="0"
   fit-margin-right="0"
   fit-margin-bottom="0" />
<symbol
   id="flash0.ai_x5F_7_x2F_Layer_9_x2F__x3C_Path_x3E_"
   viewBox="0.244 -6.2 16.465 6.157"
   transform="translate(95.553329,164.03464)">
	<g
   id="Layer_1_3_">
		<path
   style="clip-rule:evenodd;fill:#ffd37a;fill-rule:evenodd"
   d="M 14.5,-0.05 C 16.367,0.016 17.05,-0.4 16.55,-1.3 16.283,-1.767 15.767,-2.35 15,-3.05 14.867,-3.283 14.033,-3.734 12.5,-4.4 10.9,-5.067 9.55,-5.533 8.45,-5.8 7.416,-6.033 5.95,-6.167 4.05,-6.2 2.317,-6.2 1.067,-6.133 0.3,-6 c -0.2,0.033 0.133,0.067 1,0.1 1.733,0.1 3.25,0.383 4.55,0.85 3.233,1.2 5.383,2.417 6.45,3.65 0.767,0.867 1.5,1.317 2.2,1.35 z"
   id="path2"
   inkscape:connector-curvature="0" />
	</g>
</symbol>
<symbol
   id="flash0.ai_x5F_7_x2F_Layer_9_x2F__x3C_Path_x3E__x5F_1"
   viewBox="-0.009 -8.93 21.55 8.93"
   transform="translate(95.553329,164.03464)">
	<g
   id="Layer_1_2_">
		<path
   style="clip-rule:evenodd;fill:#ffd37a;fill-rule:evenodd"
   d="m 21.05,-1.45 c 0.6,-0.7 0.65,-1.283 0.15,-1.75 -0.434,-0.367 -1.034,-0.583 -1.8,-0.65 -1.5,0 -3.017,-0.017 -4.55,-0.05 C 13.05,-3.933 11.2,-4.467 9.3,-5.5 6.2,-7.133 4.233,-8.1 3.4,-8.4 1.233,-9.233 0.1,-9.083 0,-7.95 c -0.067,0.733 0.25,1.633 0.95,2.7 0.367,0.533 1.733,1.367 4.1,2.5 2.367,1.133 4.333,1.883 5.9,2.25 1.433,0.333 2.5,0.5 3.2,0.5 0.1,0 1.583,-0.083 4.45,-0.25 1,-0.067 1.817,-0.467 2.45,-1.2 z"
   id="path6"
   inkscape:connector-curvature="0" />
	</g>
</symbol>



<g
   id="g648"
   transform="matrix(7.4744844,0,0,7.4744844,-114.52434,-8.4194844)">
	<path
   style="clip-rule:evenodd;fill:#a6752a;fill-rule:evenodd"
   d="m 39.581,9.946 c 0.938,0.839 2.364,1.771 4.28,2.798 1.588,0.878 2.89,1.912 3.905,3.101 1.292,1.531 1.892,2.89 1.796,4.076 -0.069,0.933 -0.631,1.942 -1.686,3.028 -1.561,1.575 -2.708,2.608 -3.443,3.101 -1.683,1.106 -3.714,1.734 -6.095,1.884 -6.793,0.399 -11.252,0.133 -13.376,-0.802 -1.66,-0.744 -2.934,-1.361 -3.823,-1.854 -1.451,-0.835 -2.854,-1.851 -4.211,-3.047 -1.384,-1.199 -1.874,-2.646 -1.468,-4.341 0.274,-1.253 0.978,-2.533 2.111,-3.838 0.876,-1.02 1.392,-1.592 1.547,-1.718 0.221,-0.205 0.863,-0.622 1.926,-1.251 0.941,-0.557 2.057,-1.01 3.347,-1.359 0.469,-0.122 1.594,-0.389 3.375,-0.8 2.162,-0.515 4.47,-0.658 6.924,-0.429 2.427,0.224 4.057,0.708 4.891,1.451 z"
   id="path490"
   inkscape:connector-curvature="0" />
	<path
   style="clip-rule:evenodd;fill:#f2b63d;fill-rule:evenodd"
   d="m 34.5,8.688 c 2.285,0.21 3.834,0.657 4.646,1.341 0.912,0.808 2.259,1.689 4.039,2.645 1.51,0.813 2.749,1.769 3.716,2.867 1.246,1.44 1.825,2.712 1.738,3.814 -0.092,0.873 -0.632,1.814 -1.62,2.821 -1.465,1.471 -2.548,2.426 -3.249,2.865 -1.589,1.03 -3.516,1.611 -5.78,1.745 -6.449,0.379 -10.681,0.121 -12.696,-0.773 -1.528,-0.645 -2.734,-1.227 -3.62,-1.746 -1.372,-0.771 -2.712,-1.708 -4.021,-2.814 -1.306,-1.133 -1.776,-2.493 -1.41,-4.079 0.262,-1.141 0.927,-2.324 1.995,-3.551 0.839,-0.938 1.336,-1.47 1.492,-1.596 0.218,-0.177 0.827,-0.555 1.828,-1.134 0.904,-0.475 1.959,-0.892 3.165,-1.25 0.706,-0.21 1.759,-0.471 3.159,-0.78 2.069,-0.467 4.276,-0.592 6.618,-0.375 z"
   id="path492"
   inkscape:connector-curvature="0" />
	<g
   id="g498">
		<path
   style="clip-rule:evenodd;fill:#e3a33a;fill-rule:evenodd"
   d="m 16.958,20.739 c -0.905,-1.149 -1.081,-2.464 -0.527,-3.944 0.439,0.701 1.631,1.153 3.576,1.357 l 4.819,0.504 c -0.764,0.49 -1.652,0.952 -2.667,1.387 -2.082,0.837 -3.816,1.068 -5.201,0.696 z"
   id="path494"
   inkscape:connector-curvature="0" />
		<path
   style="clip-rule:evenodd;fill:#e8a93b;fill-rule:evenodd"
   d="m 43.185,12.673 c 1.51,0.813 2.749,1.769 3.716,2.867 1.246,1.44 1.825,2.712 1.738,3.814 -0.092,0.873 -0.632,1.814 -1.62,2.821 -1.465,1.471 -2.548,2.426 -3.249,2.865 -1.589,1.03 -3.516,1.611 -5.78,1.745 -6.449,0.379 -10.681,0.121 -12.696,-0.773 -1.989,-0.863 -3.61,-1.703 -4.864,-2.518 0.51,0.025 0.982,-0.125 1.415,-0.45 0.77,-0.546 2.31,-0.969 4.62,-1.269 2.167,-0.285 4.488,-0.413 6.962,-0.382 2.047,0.043 3.852,-0.053 5.414,-0.288 0.494,-0.091 1.515,-0.312 3.061,-0.662 0.672,-0.158 0.911,0.01 0.718,0.502 -0.083,0.248 -0.24,0.517 -0.47,0.806 0.658,-0.302 1.293,-1.332 1.904,-3.091 0.672,-1.781 -0.536,-4.129 -3.621,-7.045 -0.872,-0.917 -1.83,-1.702 -2.873,-2.352 0.689,0.215 1.219,0.47 1.587,0.765 0.911,0.808 2.257,1.69 4.038,2.645 z"
   id="path496"
   inkscape:connector-curvature="0" />
	</g>
	<g
   id="g504">
		<path
   style="clip-rule:evenodd;fill:#e8a93b;fill-rule:evenodd"
   d="m 21.976,19.341 c -2.185,-0.086 -4.079,-0.769 -5.683,-2.047 l 0.137,-0.498 c 0.439,0.701 1.631,1.153 3.576,1.357 l 4.819,0.504 -1.366,0.797 z"
   id="path500"
   inkscape:connector-curvature="0" />
		<path
   style="clip-rule:evenodd;fill:#e3a33a;fill-rule:evenodd"
   d="m 46.9,15.541 c 1.246,1.44 1.825,2.712 1.738,3.814 -0.092,0.873 -0.632,1.814 -1.62,2.821 -1.465,1.471 -2.548,2.426 -3.249,2.865 -1.589,1.03 -3.516,1.611 -5.78,1.745 -6.449,0.379 -10.681,0.121 -12.696,-0.773 -1.091,-0.456 -2.177,-0.969 -3.257,-1.537 0.78,-0.374 1.409,-0.665 1.886,-0.871 0.896,-0.391 1.764,-0.656 2.604,-0.796 0.782,-0.117 2.405,-0.118 4.872,-0.003 2.269,0.096 3.972,0.017 5.11,-0.234 2.068,-0.438 3.766,-0.731 5.092,-0.877 l 0.729,0.376 c 0.577,0.202 1.034,0.193 1.37,-0.028 0.512,-0.26 0.932,-0.742 1.263,-1.448 0.427,-0.811 0.642,-1.771 0.644,-2.881 -0.005,-1.311 -0.014,-2.053 -0.023,-2.225 -0.085,-0.55 -0.375,-1.179 -0.871,-1.886 0.822,0.57 1.553,1.216 2.188,1.938 z"
   id="path502"
   inkscape:connector-curvature="0" />
	</g>
	<path
   style="clip-rule:evenodd;fill:#c78e33;fill-rule:evenodd"
   d="m 47.215,16.214 c 1.061,1.307 1.52,2.495 1.379,3.563 -0.113,0.814 -0.649,1.713 -1.606,2.694 -1.523,1.493 -2.606,2.448 -3.248,2.865 -1.59,1.03 -3.517,1.612 -5.78,1.745 -2.696,0.174 -5.107,0.206 -7.232,0.098 -2.551,-0.125 -4.371,-0.429 -5.459,-0.913 -1.528,-0.644 -2.734,-1.227 -3.62,-1.747 -1.373,-0.771 -2.712,-1.708 -4.021,-2.813 -1.255,-1.071 -1.731,-2.375 -1.428,-3.91 0.097,0.979 0.763,1.689 1.999,2.132 1.154,0.405 2.712,0.354 4.674,-0.152 -2.666,0.975 -4.112,1.45 -4.337,1.427 l -0.338,-0.035 c 1.119,1.285 2.404,2.203 3.856,2.753 0.301,0.118 1.037,0.437 2.208,0.958 0.571,0.26 1.168,0.407 1.791,0.444 1.812,0.104 3.851,0.36 6.115,0.769 0.78,0.166 2.069,0.23 3.869,0.19 1.745,-0.074 2.97,-0.202 3.672,-0.385 0.909,-0.247 1.622,-0.528 2.14,-0.844 0.605,0.205 1.443,-0.177 2.513,-1.147 2.178,-2.022 3.334,-3.683 3.47,-4.979 0.082,-0.816 -0.122,-1.721 -0.617,-2.713 z"
   id="path506"
   inkscape:connector-curvature="0" />
	<path
   style="clip-rule:evenodd;fill:#ffc54f;fill-rule:evenodd"
   d="m 34.98,9.806 c 0.699,0.13 1.752,0.411 3.16,0.843 0.718,0.218 1.421,0.847 2.109,1.887 0.669,0.954 0.979,1.669 0.929,2.149 -0.021,0.197 0.164,0.615 0.553,1.254 0.366,0.58 0.466,1.131 0.297,1.655 -0.181,0.636 -0.84,1.08 -1.977,1.332 -0.615,0.164 -1.872,0.331 -3.771,0.503 -1.816,0.209 -3.127,0.342 -3.931,0.4 -1.404,0.081 -2.58,0.015 -3.526,-0.198 -0.918,-0.21 -0.717,-0.631 0.603,-1.262 0.87,-0.421 1.73,-0.745 2.58,-0.969 -1.974,0.079 -3.455,0.208 -4.442,0.39 -0.669,0.129 -1.499,0.028 -2.49,-0.303 -0.636,-0.18 -1.812,-0.66 -3.524,-1.437 -1.333,-0.596 -1.783,-1.34 -1.347,-2.235 0.33,-0.706 1.049,-1.314 2.157,-1.825 1.672,-0.737 4.485,-1.482 8.438,-2.236 1.223,-0.244 2.617,-0.226 4.182,0.052 z"
   id="path508"
   inkscape:connector-curvature="0" />
	<path
   style="clip-rule:evenodd;fill:#ffcc63;fill-rule:evenodd"
   d="m 34.768,11.023 c 0.573,0.516 0.247,0.909 -0.978,1.18 -0.76,0.177 -1.513,0.439 -2.262,0.789 -1.08,0.514 -1.753,0.828 -2.022,0.942 -0.596,0.251 -1.413,0.436 -2.451,0.555 -1.354,0.143 -2.293,0.272 -2.818,0.389 -0.937,0.244 -1.688,0.208 -2.254,-0.108 -0.512,-0.281 -0.645,-0.637 -0.4,-1.067 0.241,-0.402 0.724,-0.793 1.447,-1.174 0.723,-0.38 1.434,-0.633 2.13,-0.759 0.435,-0.069 1.284,-0.293 2.549,-0.674 1.203,-0.33 1.992,-0.518 2.367,-0.563 2.53,-0.22 4.094,-0.057 4.692,0.49 z"
   id="path510"
   inkscape:connector-curvature="0" />
	<path
   style="clip-rule:evenodd;fill:#ffcc63;fill-rule:evenodd"
   d="m 36.157,16.125 c 1.841,-0.177 3.082,-0.19 3.722,-0.038 l 0.284,0.542 c 0.118,0.24 0.042,0.417 -0.226,0.532 -0.472,0.15 -0.901,0.305 -1.288,0.464 -0.446,0.181 -1.024,0.263 -1.735,0.246 -0.795,-0.026 -1.405,-0.047 -1.831,-0.063 -0.484,0.006 -1.225,0.142 -2.222,0.408 -0.968,0.269 -1.537,0.395 -1.706,0.377 -0.629,0.02 -0.405,-0.213 0.672,-0.699 0.209,-0.092 0.883,-0.406 2.021,-0.942 1.105,-0.483 1.875,-0.759 2.309,-0.827 z"
   id="path512"
   inkscape:connector-curvature="0" />
	<path
   style="clip-rule:evenodd;fill:#d19536;fill-rule:evenodd"
   d="m 30.307,23.846 c 1.344,0.226 1.913,0.499 1.709,0.819 -0.04,0.11 -0.391,0.33 -1.052,0.659 -0.209,0.092 -0.594,0.095 -1.155,0.007 -0.977,-0.187 -1.508,-0.285 -1.593,-0.294 -0.62,-0.064 -0.65,-0.325 -0.09,-0.779 0.558,-0.426 1.285,-0.564 2.181,-0.412 z"
   id="path514"
   inkscape:connector-curvature="0" />
	<path
   style="clip-rule:evenodd;fill:#d19536;fill-rule:evenodd"
   d="m 34.235,24.684 c 0.614,0.121 0.68,0.313 0.196,0.577 -0.486,0.29 -0.98,0.381 -1.481,0.271 -0.473,-0.106 -0.482,-0.293 -0.027,-0.559 0.455,-0.264 0.892,-0.362 1.312,-0.289 z"
   id="path516"
   inkscape:connector-curvature="0" />
	<path
   style="clip-rule:evenodd;fill:#d19536;fill-rule:evenodd"
   d="m 42.214,23.169 c 0.548,-0.057 0.757,0.122 0.628,0.535 -0.126,0.386 -0.4,0.557 -0.823,0.513 -0.395,-0.041 -0.575,-0.217 -0.543,-0.526 0.06,-0.308 0.306,-0.482 0.738,-0.522 z"
   id="path518"
   inkscape:connector-curvature="0" />
	<path
   style="clip-rule:evenodd;fill:#d19536;fill-rule:evenodd"
   d="m 47.447,18.076 c 0.007,1.026 -0.42,1.295 -1.281,0.806 -0.134,-0.071 -0.18,-0.318 -0.136,-0.741 0.047,-0.451 0.183,-0.792 0.407,-1.025 0.192,-0.208 0.41,-0.114 0.653,0.282 0.15,0.215 0.268,0.441 0.357,0.678 z"
   id="path520"
   inkscape:connector-curvature="0" />
	<path
   style="clip-rule:evenodd;fill:#e3a33a;fill-rule:evenodd"
   d="m 38.339,11.61 c 0.521,0.197 0.833,0.344 0.937,0.44 0.107,0.068 0.229,0.266 0.365,0.594 0.165,0.331 0.241,0.552 0.229,0.665 -0.021,0.197 -0.729,0.294 -2.124,0.291 -0.457,0.009 -0.718,0.053 -0.783,0.131 -0.096,0.104 -0.299,0.14 -0.609,0.107 -0.369,-0.01 -0.714,0.011 -1.032,0.063 -0.406,0.072 -0.781,0.118 -1.125,0.139 -0.488,0.035 -0.863,0.081 -1.126,0.139 -0.24,0.117 -0.462,0.194 -0.665,0.23 -0.412,0.127 -1.171,0.575 -2.277,1.342 -0.679,0.499 -1.048,0.759 -1.107,0.782 -0.452,0.237 -0.98,0.381 -1.583,0.432 -0.46,0.037 -0.759,0.177 -0.898,0.419 -0.108,0.216 -0.416,0.298 -0.923,0.245 -1.13,-0.09 -2.136,-0.28 -3.017,-0.572 -0.527,-0.141 -1.194,-0.296 -2.002,-0.466 -0.389,-0.098 -0.645,-0.238 -0.768,-0.422 -0.086,-0.265 -0.176,-0.502 -0.268,-0.711 -0.114,-0.269 -0.067,-0.449 0.142,-0.541 0.271,-0.143 0.409,-0.228 0.412,-0.256 0.301,-0.424 0.555,-0.811 0.762,-1.16 0.198,-0.264 0.616,-0.576 1.252,-0.937 0.67,-0.414 1.222,-0.655 1.657,-0.724 0.288,-0.027 1.319,-0.36 3.096,-1 1.658,-0.596 2.687,-0.901 3.087,-0.916 0.37,0.01 0.839,0.017 1.409,0.02 0.485,-0.007 0.937,0.026 1.357,0.099 0.724,0.162 1.676,0.46 2.854,0.897 0.692,0.187 1.226,0.271 1.598,0.252 0.219,0.05 0.604,0.19 1.15,0.418 z"
   id="path522"
   inkscape:connector-curvature="0" />
	<path
   style="clip-rule:evenodd;fill:#e3a33a;fill-rule:evenodd"
   d="m 43.322,16.662 c -0.136,1.296 -0.577,2.247 -1.324,2.852 -0.56,0.455 -1.044,0.718 -1.449,0.789 -0.145,0.013 -0.784,0.003 -1.92,-0.03 -0.911,-0.01 -1.602,0.061 -2.073,0.21 -0.412,0.128 -1.047,0.475 -1.903,1.04 -0.702,0.439 -1.445,0.604 -2.231,0.493 -1.056,-0.253 -1.99,-0.45 -2.801,-0.593 -1.124,-0.146 -1.906,-0.299 -2.345,-0.459 -0.194,-0.049 -0.752,-0.292 -1.675,-0.73 -0.653,-0.296 -0.997,-0.546 -1.033,-0.749 0.105,-0.188 0.167,-0.367 0.184,-0.536 0.07,-0.392 1.537,-0.936 4.402,-1.633 0.234,-0.061 0.628,-0.29 1.183,-0.688 0.49,-0.319 0.922,-0.501 1.297,-0.548 0.347,-0.049 1.035,-0.361 2.064,-0.938 1.06,-0.601 1.809,-0.95 2.246,-1.047 0.553,-0.113 1.354,-0.143 2.402,-0.09 0.623,0.037 1.527,0.103 2.714,0.199 0.683,0.015 1.057,0.11 1.123,0.289 0.19,0.361 0.325,0.575 0.403,0.64 0.556,0.399 0.802,0.909 0.736,1.529 z"
   id="path524"
   inkscape:connector-curvature="0" />
	<g
   id="g548">
		<path
   style="clip-rule:evenodd;fill:#d99932;fill-rule:evenodd"
   d="m 36.677,11.564 -0.545,-0.1 -0.064,0.207 -0.013,0.127 0.296,0.031 0.046,-0.038 c 0.04,-0.109 0.133,-0.185 0.28,-0.227 z m 1.715,-1.273 c 0.526,0.141 0.834,0.472 0.921,0.994 0.064,0.206 -0.012,0.383 -0.226,0.532 -0.185,0.123 -0.419,0.184 -0.703,0.183 -0.24,0.118 -0.459,0.166 -0.656,0.145 l -0.127,-0.013 c 0.241,0.139 0.338,0.306 0.289,0.5 -0.063,0.335 -0.352,0.504 -0.864,0.507 0.36,0.095 0.675,0.213 0.945,0.356 0.163,0.074 -0.021,0.197 -0.552,0.369 -0.471,0.15 -0.828,0.156 -1.069,0.016 -0.271,-0.142 -0.716,-0.246 -1.335,-0.311 -0.142,-0.015 -0.223,-0.052 -0.245,-0.111 0.009,-0.084 0.074,-0.163 0.195,-0.236 0.209,-0.092 0.458,-0.151 0.745,-0.178 L 35.339,12.92 c -0.237,0.089 -0.539,0.114 -0.905,0.076 -1.556,-0.105 -2.72,-0.142 -3.493,-0.109 l -0.249,-0.069 c -0.604,0.051 -1.227,0.157 -1.87,0.317 l -0.047,0.038 c 0.401,-0.015 0.604,0.077 0.612,0.278 0.058,0.262 -0.205,0.462 -0.789,0.601 l -0.906,0.077 c 0.194,0.048 0.269,0.156 0.223,0.322 -0.046,0.167 -0.158,0.283 -0.336,0.35 -0.181,0.095 -0.698,0.269 -1.55,0.521 -0.297,0.111 -0.434,0.197 -0.412,0.256 0.025,0.031 0.203,0.107 0.532,0.227 0.135,0.071 0.214,0.136 0.236,0.195 0.113,0.012 0.221,0.066 0.325,0.163 0.146,-0.042 0.302,-0.026 0.465,0.048 0.451,0.047 0.609,0.164 0.476,0.349 l -0.093,0.076 c 0.011,0.172 -0.105,0.331 -0.349,0.476 0.62,0.065 1.082,0.142 1.386,0.23 0.22,0.08 0.322,0.19 0.307,0.332 0.133,-0.186 0.398,-0.271 0.796,-0.259 0.372,-0.018 0.622,0.051 0.748,0.207 0.126,0.156 0.199,0.277 0.218,0.365 0.12,0.212 0.076,0.364 -0.133,0.456 l -0.412,0.256 -0.351,0.092 c -0.489,0.319 -1.033,0.476 -1.63,0.47 -1.048,-0.053 -1.406,-0.446 -1.073,-1.181 -0.921,-0.182 -1.479,-0.297 -1.673,-0.346 -0.661,-0.212 -1.004,-0.476 -1.028,-0.792 l -0.296,-0.031 c -0.479,-0.05 -0.594,-0.176 -0.345,-0.378 0.096,-0.104 0.292,-0.197 0.585,-0.28 -0.61,-0.435 -0.641,-0.822 -0.092,-1.164 0.268,-0.114 0.772,-0.304 1.512,-0.568 l -0.24,-0.153 c -0.132,-0.099 -0.163,-0.216 -0.091,-0.351 0.068,-0.107 0.177,-0.195 0.326,-0.265 0.449,-0.209 1.367,-0.398 2.752,-0.566 l 0.088,-0.034 C 28.253,13.12 28.052,12.999 27.96,12.79 l -0.215,0.02 c -0.068,0.107 -0.265,0.214 -0.589,0.323 -0.41,0.1 -0.871,0.293 -1.385,0.582 -0.303,0.167 -0.651,0.23 -1.046,0.189 0.298,0.145 0.293,0.33 -0.015,0.554 -0.337,0.221 -0.742,0.278 -1.215,0.171 l -0.33,-0.12 c -0.235,-0.195 -0.174,-0.375 0.185,-0.536 0.333,-0.193 0.654,-0.259 0.961,-0.198 0.006,-0.057 0.071,-0.135 0.196,-0.236 l 0.58,-0.238 c -0.276,-0.086 -0.42,-0.201 -0.434,-0.344 -0.042,-0.147 0.129,-0.286 0.513,-0.417 0.353,-0.105 0.921,-0.231 1.707,-0.377 0.756,-0.149 1.326,-0.289 1.71,-0.419 0.294,-0.083 0.758,-0.305 1.395,-0.666 0.574,-0.311 1.036,-0.504 1.385,-0.582 0.525,-0.116 0.801,-0.03 0.828,0.258 0.03,0.259 -0.203,0.448 -0.7,0.567 l -0.355,0.133 0.896,0.008 c 0.535,0.056 0.751,0.307 0.647,0.752 l 1.107,0.03 c -0.021,-0.06 -0.004,-0.1 0.056,-0.122 l 0.141,-0.114 0.004,-0.042 c 0.049,-0.194 0.208,-0.348 0.476,-0.463 l 0.056,-0.122 c 0.006,-0.056 0.055,-0.108 0.145,-0.156 l -1.09,-0.2 c -0.332,-0.092 -0.347,-0.222 -0.045,-0.389 0.394,-0.215 0.785,-0.288 1.177,-0.219 l 1.8,0.359 c 0.1,-0.132 0.255,-0.258 0.467,-0.378 0.503,-0.203 0.976,-0.239 1.419,-0.107 z"
   id="path526"
   inkscape:connector-curvature="0" />
		<path
   style="clip-rule:evenodd;fill:#d99932;fill-rule:evenodd"
   d="m 32.93,17.155 0.875,0.22 c 0.468,-0.122 0.773,-0.047 0.916,0.224 0.048,0.09 0.259,0.112 0.634,0.066 l 1.074,-0.059 c 0.173,-0.011 0.34,0.021 0.503,0.095 0.164,0.075 0.221,0.208 0.172,0.403 -0.12,0.329 -0.451,0.494 -0.992,0.494 -0.693,0.099 -1.239,0.141 -1.637,0.128 -0.71,-0.017 -1.173,-0.223 -1.389,-0.615 L 32.79,18.08 C 32.283,18.027 31.824,17.921 31.413,17.765 31.137,17.679 31.08,17.545 31.242,17.362 L 31.4,17.08 C 30.836,17.021 30.428,16.978 30.174,16.952 29.67,16.87 29.253,16.77 28.924,16.65 c -0.329,-0.12 -0.253,-0.297 0.227,-0.532 0.687,-0.299 1.509,-0.397 2.467,-0.297 0.507,0.053 0.633,0.209 0.378,0.467 l 0.925,0.139 c 0.282,0.03 0.371,0.139 0.266,0.327 z"
   id="path528"
   inkscape:connector-curvature="0" />
		<path
   style="clip-rule:evenodd;fill:#d99932;fill-rule:evenodd"
   d="m 35.87,16.01 c 0.108,0.325 -0.114,0.543 -0.667,0.656 -0.581,0.11 -0.925,-0.011 -1.03,-0.364 l -0.071,-0.136 c -0.108,-0.325 0.128,-0.542 0.709,-0.652 0.553,-0.113 0.883,0.007 0.988,0.36 z"
   id="path530"
   inkscape:connector-curvature="0" />
		<path
   style="clip-rule:evenodd;fill:#d99932;fill-rule:evenodd"
   d="m 42.309,14.504 -0.004,0.042 c 0.051,0.063 0.046,0.104 -0.014,0.127 l -0.068,0.25 -0.136,0.071 c 0.296,-0.112 0.454,-0.252 0.472,-0.421 -0.027,-0.288 -0.339,-0.577 -0.936,-0.867 l -0.317,0.181 c 0.335,0.063 0.362,0.209 0.082,0.436 0.694,-0.099 1.001,-0.038 0.921,0.181 z m -0.237,-1.819 c 1.574,0.479 2.295,1.067 2.165,1.765 -0.055,0.251 -0.191,0.479 -0.413,0.683 l 0.16,0.103 c 0.079,0.065 0.176,0.089 0.292,0.073 0.337,0.036 0.556,0.13 0.653,0.282 0.174,0.247 0.147,0.5 -0.079,0.761 0.075,0.093 0.079,0.193 0.011,0.3 l -0.279,0.228 c -0.334,0.193 -0.712,0.267 -1.135,0.223 0.105,0.353 -0.064,0.62 -0.511,0.801 -0.447,0.181 -0.783,0.132 -1.011,-0.148 l -0.089,0.033 c -0.173,0.295 -0.418,0.455 -0.733,0.479 -0.466,0.094 -0.76,0.177 -0.881,0.25 -0.399,0.271 -0.798,0.273 -1.196,0.003 -0.158,-0.13 -0.198,-0.292 -0.121,-0.483 0.046,-0.166 0.159,-0.297 0.34,-0.392 0.458,-0.294 1.019,-0.478 1.682,-0.551 l 0.212,0.022 0.06,-0.164 c 0.043,-0.138 0.254,-0.245 0.632,-0.319 0.35,-0.077 0.635,-0.076 0.854,0.004 l 0.419,0.087 0.042,0.004 c 0.006,-0.057 0.054,-0.108 0.145,-0.156 l 0.233,-0.189 -0.037,-0.046 c -0.255,-0.027 -0.488,-0.108 -0.702,-0.245 -0.039,0.11 -0.148,0.198 -0.326,0.265 -1.336,0.515 -2.063,0.382 -2.181,-0.399 -0.016,-0.116 0.082,-0.233 0.294,-0.354 0.036,-0.082 0.176,-0.181 0.416,-0.298 -0.367,-0.039 -0.528,-0.126 -0.485,-0.265 -0.226,-0.023 -0.5,-0.124 -0.823,-0.3 -0.107,-0.068 -0.142,-0.143 -0.104,-0.225 0.03,-0.025 0.203,-0.178 0.518,-0.458 l 0.178,-0.067 -0.87,-0.262 c -0.301,-0.117 -0.367,-0.295 -0.2,-0.533 L 38.835,13.03 c -0.104,-0.096 -0.051,-0.19 0.158,-0.282 0.181,-0.095 0.313,-0.139 0.397,-0.13 0.503,-0.175 0.859,-0.181 1.07,-0.016 0.079,0.065 0.23,0.11 0.456,0.133 l 0.123,0.056 c 0.356,-0.163 0.701,-0.198 1.033,-0.106 z"
   id="path532"
   inkscape:connector-curvature="0" />
		<path
   style="clip-rule:evenodd;fill:#d99932;fill-rule:evenodd"
   d="m 24.068,17.723 c 0.535,0.056 0.767,0.294 0.694,0.714 -0.073,0.42 -0.394,0.628 -0.963,0.626 l -0.084,-0.009 c -0.44,0.124 -0.757,0.021 -0.95,-0.313 -0.19,-0.362 -0.031,-0.659 0.478,-0.89 0.239,-0.119 0.515,-0.161 0.825,-0.128 z"
   id="path534"
   inkscape:connector-curvature="0" />
		<path
   style="clip-rule:evenodd;fill:#d99932;fill-rule:evenodd"
   d="m 19.946,15.454 -0.22,0.062 c -0.528,0.144 -0.883,0.136 -1.066,-0.026 -0.233,-0.224 -0.292,-0.472 -0.178,-0.745 0.086,-0.276 0.498,-0.404 1.237,-0.383 -0.242,-0.139 -0.295,-0.315 -0.159,-0.529 0.233,-0.317 0.617,-0.448 1.152,-0.392 l 0.211,0.022 c 0.169,0.018 0.304,0.089 0.405,0.213 0.101,0.125 0.1,0.267 -0.002,0.427 -0.232,0.317 -0.617,0.448 -1.152,0.392 L 20.09,14.486 c 0.057,0.008 0.08,0.053 0.071,0.136 -0.043,0.138 -0.014,0.269 0.087,0.394 0.28,-0.227 0.575,-0.324 0.885,-0.292 0.479,0.05 0.618,0.221 0.417,0.514 0.406,-0.071 0.684,0 0.832,0.215 0.174,0.246 0.081,0.45 -0.278,0.612 l 0.067,0.178 c -0.043,0.138 -0.052,0.223 -0.027,0.254 l 0.3,-0.011 0.169,0.018 c 0.169,0.018 0.279,0.058 0.329,0.12 0.516,-0.032 0.719,0.075 0.607,0.32 -0.102,0.16 -0.298,0.268 -0.589,0.323 0.479,0.05 0.593,0.19 0.341,0.42 -0.227,0.261 -0.608,0.363 -1.144,0.308 l -0.423,-0.044 c -0.479,-0.05 -0.608,-0.178 -0.387,-0.382 0.153,-0.098 0.26,-0.172 0.322,-0.223 -0.341,-0.007 -0.648,-0.068 -0.921,-0.182 -0.015,0.141 -0.159,0.296 -0.433,0.467 -0.303,0.167 -0.566,0.24 -0.792,0.216 -0.225,-0.023 -0.36,-0.094 -0.405,-0.213 -0.275,-0.086 -0.359,-0.237 -0.251,-0.454 0.259,-0.571 0.725,-0.936 1.396,-1.093 L 20.39,16.1 c -0.02,-0.087 -0.011,-0.172 0.026,-0.253 -0.389,-0.071 -0.547,-0.202 -0.47,-0.393 z"
   id="path536"
   inkscape:connector-curvature="0" />
		<path
   style="clip-rule:evenodd;fill:#d99932;fill-rule:evenodd"
   d="m 21.706,19.057 c 0.163,0.074 0.251,0.183 0.265,0.327 0.013,0.144 -0.044,0.28 -0.171,0.409 -0.374,0.303 -0.78,0.374 -1.219,0.214 -0.242,-0.139 -0.41,-0.299 -0.505,-0.479 -0.193,-0.334 -0.01,-0.585 0.549,-0.755 0.53,-0.172 0.878,-0.093 1.043,0.237 z"
   id="path538"
   inkscape:connector-curvature="0" />
		<path
   style="clip-rule:evenodd;fill:#d99932;fill-rule:evenodd"
   d="m 32.782,20.601 c 0.156,-0.126 0.362,-0.19 0.619,-0.191 0.229,-0.005 0.421,0.059 0.578,0.188 0.286,0.258 0.244,0.524 -0.126,0.799 0.132,0.099 0.161,0.23 0.087,0.394 l 0.498,0.138 c 0.169,0.018 0.264,0.07 0.283,0.157 -0.006,0.057 -0.084,0.12 -0.234,0.189 -0.39,0.188 -0.781,0.26 -1.176,0.219 -0.254,-0.026 -0.503,-0.095 -0.748,-0.206 L 32.525,22.241 32.318,22.177 C 32.08,22.01 31.97,21.827 31.991,21.63 c 0.104,-0.446 0.367,-0.789 0.791,-1.029 z"
   id="path540"
   inkscape:connector-curvature="0" />
		<path
   style="clip-rule:evenodd;fill:#d99932;fill-rule:evenodd"
   d="m 31.666,20.654 c 0.323,0.177 0.245,0.382 -0.235,0.617 l -0.178,0.066 c 0.016,0.116 -0.01,0.227 -0.078,0.334 l -0.102,0.16 c -0.264,0.343 -0.646,0.459 -1.147,0.35 -0.253,-0.026 -0.448,-0.075 -0.583,-0.146 -0.569,-0.002 -1.037,-0.023 -1.404,-0.062 -0.535,-0.056 -0.756,-0.265 -0.661,-0.624 0.046,-0.167 0.175,-0.31 0.387,-0.431 0.181,-0.095 0.37,-0.132 0.567,-0.11 l 0.38,0.039 c 0.298,-0.396 0.805,-0.613 1.521,-0.652 0.507,0.053 0.711,0.146 0.612,0.277 -0.071,0.135 -0.193,0.208 -0.365,0.218 l 0.3,-0.011 c 0.387,-0.158 0.716,-0.166 0.986,-0.025 z"
   id="path542"
   inkscape:connector-curvature="0" />
		<path
   style="clip-rule:evenodd;fill:#d99932;fill-rule:evenodd"
   d="m 31.611,13.427 c 0.576,-0.054 0.877,0.049 0.908,0.309 0.027,0.288 -0.236,0.488 -0.79,0.601 -0.957,0.156 -1.593,-0.024 -1.909,-0.542 -0.171,-0.274 0.007,-0.483 0.536,-0.628 0.531,-0.172 0.883,-0.135 1.057,0.111 0.1,0.125 0.167,0.174 0.198,0.149 z"
   id="path544"
   inkscape:connector-curvature="0" />
		<path
   style="clip-rule:evenodd;fill:#d99932;fill-rule:evenodd"
   d="m 43.141,18.395 c -0.066,-0.178 -0.034,-0.346 0.096,-0.502 0.103,-0.161 0.24,-0.26 0.416,-0.299 l 0.44,-0.125 c 0.557,-0.141 0.932,-0.06 1.127,0.246 0.099,0.152 0.081,0.322 -0.053,0.507 -0.127,0.129 -0.28,0.227 -0.458,0.294 l -0.131,0.029 c -0.04,0.109 -0.149,0.198 -0.327,0.265 -0.649,0.217 -1.146,0.336 -1.489,0.357 -0.551,0.084 -0.846,0.039 -0.884,-0.136 l 0.014,-0.127 -0.225,0.105 -0.614,0.149 c -0.212,0.12 -0.462,0.193 -0.75,0.22 -0.591,-0.062 -0.819,-0.199 -0.683,-0.413 l 0.102,-0.16 0.146,-0.156 -0.207,-0.064 c -0.139,-0.043 -0.159,-0.117 -0.063,-0.22 0.096,-0.104 0.202,-0.164 0.317,-0.181 0.503,-0.175 0.906,-0.218 1.211,-0.13 l 0.08,0.051 0.638,0.024 c 0.113,0.012 0.179,0.062 0.198,0.149 -0.009,0.084 -0.103,0.161 -0.28,0.228 l 0.16,0.102 c 0.082,0.037 0.12,0.083 0.113,0.14 0.119,-0.045 0.339,-0.107 0.661,-0.188 l 0.524,-0.116 z"
   id="path546"
   inkscape:connector-curvature="0" />
	</g>
	<path
   style="clip-rule:evenodd;fill:#c4831d;fill-rule:evenodd"
   d="m 25.919,15.139 c 0.531,0.369 0.741,0.675 0.629,0.92 -0.08,0.22 -0.277,0.341 -0.593,0.365 -0.516,0.032 -1.002,0.052 -1.459,0.061 -0.573,0.025 -1.041,0.005 -1.404,-0.062 -0.498,-0.138 -0.97,-0.258 -1.415,-0.362 -0.589,-0.09 -0.787,-0.239 -0.594,-0.447 0.065,-0.079 0.371,-0.275 0.916,-0.588 0.365,-0.218 0.634,-0.347 0.81,-0.385 0.265,-0.086 0.668,-0.129 1.21,-0.13 0.682,0.016 1.315,0.225 1.9,0.628 z"
   id="path550"
   inkscape:connector-curvature="0" />
	<path
   style="clip-rule:evenodd;fill:#c4831d;fill-rule:evenodd"
   d="m 28.032,14.548 c 0.231,-0.033 0.463,0.063 0.696,0.287 0.208,0.193 0.263,0.341 0.167,0.445 -0.13,0.157 -0.34,0.249 -0.627,0.276 -0.378,0.074 -0.782,-0.011 -1.213,-0.255 -0.213,-0.136 -0.211,-0.292 0.007,-0.469 0.188,-0.152 0.511,-0.247 0.97,-0.284 z"
   id="path552"
   inkscape:connector-curvature="0" />
	<path
   style="clip-rule:evenodd;fill:#c4831d;fill-rule:evenodd"
   d="m 29.8,14.392 c 0.282,0.029 0.418,0.086 0.41,0.171 0.025,0.031 -0.01,0.099 -0.107,0.203 -0.037,0.082 -0.306,0.067 -0.807,-0.042 -0.223,-0.052 -0.259,-0.113 -0.109,-0.183 0.124,-0.101 0.329,-0.151 0.613,-0.149 z"
   id="path554"
   inkscape:connector-curvature="0" />
	<path
   style="clip-rule:evenodd;fill:#c4831d;fill-rule:evenodd"
   d="m 25.907,12.403 c 0.516,-0.032 0.882,0.007 1.099,0.115 0.216,0.108 0.161,0.231 -0.167,0.368 -0.212,0.12 -0.417,0.17 -0.614,0.149 -0.335,-0.063 -0.588,-0.09 -0.761,-0.08 -0.4,0.015 -0.534,-0.07 -0.4,-0.256 0.134,-0.186 0.414,-0.284 0.843,-0.296 z"
   id="path556"
   inkscape:connector-curvature="0" />
	<path
   style="clip-rule:evenodd;fill:#c4831d;fill-rule:evenodd"
   d="m 27.078,11.415 c 0.654,0.011 0.855,0.132 0.603,0.362 -0.283,0.255 -0.692,0.355 -1.228,0.299 -0.507,-0.053 -0.666,-0.169 -0.477,-0.349 0.166,-0.211 0.532,-0.315 1.102,-0.312 z"
   id="path558"
   inkscape:connector-curvature="0" />
	<path
   style="clip-rule:evenodd;fill:#c4831d;fill-rule:evenodd"
   d="m 35.472,12.464 c 0.494,-0.091 0.941,-0.016 1.344,0.226 0.32,0.205 0.481,0.435 0.483,0.691 0.005,0.229 -0.065,0.35 -0.209,0.363 -0.028,-0.003 -0.385,0.002 -1.07,0.016 -0.481,-0.022 -0.765,-0.038 -0.85,-0.046 -0.163,-0.074 -0.411,-0.157 -0.743,-0.249 -0.473,-0.107 -0.568,-0.288 -0.285,-0.543 0.28,-0.226 0.723,-0.379 1.33,-0.458 z"
   id="path560"
   inkscape:connector-curvature="0" />
	<path
   style="clip-rule:evenodd;fill:#c4831d;fill-rule:evenodd"
   d="m 39.674,11.921 c 0.284,0.001 0.506,0.067 0.663,0.198 0.129,0.127 0.133,0.228 0.011,0.3 -0.121,0.073 -0.295,0.097 -0.521,0.073 -0.278,-0.057 -0.53,-0.098 -0.756,-0.122 -0.311,-0.032 -0.373,-0.11 -0.189,-0.233 0.155,-0.126 0.42,-0.198 0.792,-0.216 z"
   id="path562"
   inkscape:connector-curvature="0" />
	<path
   style="clip-rule:evenodd;fill:#c4831d;fill-rule:evenodd"
   d="m 39.842,11.127 c 0.167,0.046 0.159,0.116 -0.021,0.211 -0.155,0.126 -0.332,0.179 -0.529,0.158 -0.226,-0.024 -0.287,-0.116 -0.186,-0.276 0.099,-0.132 0.344,-0.163 0.736,-0.093 z"
   id="path564"
   inkscape:connector-curvature="0" />
	<path
   style="clip-rule:evenodd;fill:#c4831d;fill-rule:evenodd"
   d="m 40.049,14.054 c 0.727,0.133 0.987,0.359 0.783,0.68 -0.071,0.135 -0.133,0.185 -0.187,0.151 -0.186,-0.133 -0.432,-0.23 -0.739,-0.291 -0.335,-0.063 -0.6,-0.12 -0.794,-0.169 -0.272,-0.114 -0.507,-0.195 -0.701,-0.244 -0.444,-0.104 -0.466,-0.177 -0.063,-0.22 0.432,-0.04 0.999,-0.009 1.701,0.093 z"
   id="path566"
   inkscape:connector-curvature="0" />
	<path
   style="clip-rule:evenodd;fill:#c4831d;fill-rule:evenodd"
   d="m 34.647,14.215 c 0.764,0.051 1.555,0.248 2.374,0.59 -0.972,0.297 -1.873,0.473 -2.705,0.528 -0.459,0.038 -0.867,0.123 -1.223,0.257 -0.446,0.181 -0.845,0.311 -1.195,0.388 l -2.798,0.604 0.467,-0.378 c 0.371,-0.274 0.7,-0.425 0.988,-0.452 0.666,-0.102 1.322,-0.389 1.97,-0.862 0.68,-0.498 1.387,-0.723 2.122,-0.675 z"
   id="path568"
   inkscape:connector-curvature="0" />
	<path
   style="clip-rule:evenodd;fill:#c4831d;fill-rule:evenodd"
   d="m 22.121,12.647 c 0.381,-0.103 0.605,-0.065 0.672,0.113 0.064,0.206 -0.097,0.375 -0.48,0.505 -0.325,0.108 -0.529,0.158 -0.614,0.149 -0.166,-0.046 -0.36,-0.095 -0.583,-0.147 -0.533,-0.082 -0.198,-0.289 1.005,-0.62 z"
   id="path570"
   inkscape:connector-curvature="0" />
	<path
   style="clip-rule:evenodd;fill:#c4831d;fill-rule:evenodd"
   d="m 19.991,15.843 c 0.25,0.055 0.383,0.154 0.396,0.298 0.014,0.144 -0.072,0.277 -0.255,0.401 -0.125,0.101 -0.242,0.131 -0.352,0.091 -0.242,-0.14 -0.405,-0.214 -0.489,-0.223 -0.251,-0.055 -0.252,-0.183 -0.003,-0.384 0.218,-0.176 0.452,-0.237 0.703,-0.183 z"
   id="path572"
   inkscape:connector-curvature="0" />
	<path
   style="clip-rule:evenodd;fill:#c4831d;fill-rule:evenodd"
   d="m 24.34,19.204 c 0.733,0.076 1.071,0.383 1.015,0.918 -0.018,0.169 -0.056,0.265 -0.115,0.287 -0.144,0.014 -0.33,0.022 -0.559,0.027 -0.231,0.032 -0.444,0.024 -0.638,-0.024 -0.363,-0.066 -0.798,-0.126 -1.306,-0.179 -0.764,-0.052 -0.884,-0.264 -0.361,-0.637 0.52,-0.344 1.175,-0.475 1.964,-0.392 z"
   id="path574"
   inkscape:connector-curvature="0" />
	<path
   style="clip-rule:evenodd;fill:#c4831d;fill-rule:evenodd"
   d="m 26.397,18.736 c 0.381,-0.103 0.606,-0.079 0.676,0.071 0.073,0.122 0.031,0.245 -0.125,0.372 -0.125,0.101 -0.23,0.16 -0.318,0.18 -0.059,0.022 -0.258,0.016 -0.596,-0.02 -0.282,-0.029 -0.372,-0.124 -0.27,-0.284 0.129,-0.13 0.34,-0.236 0.633,-0.319 z"
   id="path576"
   inkscape:connector-curvature="0" />
	<path
   style="clip-rule:evenodd;fill:#c4831d;fill-rule:evenodd"
   d="m 30.413,19.156 c 0.538,0.027 0.869,0.134 0.992,0.317 0.051,0.063 0.064,0.206 0.041,0.432 -0.012,0.112 -0.147,0.184 -0.407,0.214 -0.459,0.037 -0.861,0.066 -1.206,0.087 -0.431,0.041 -0.716,0.039 -0.854,-0.004 -0.188,-0.105 -0.405,-0.213 -0.649,-0.324 -0.271,-0.142 -0.37,-0.28 -0.298,-0.416 0.184,-0.123 0.294,-0.226 0.331,-0.307 0.065,-0.079 0.282,-0.113 0.651,-0.104 0.225,0.025 0.692,0.059 1.399,0.105 z"
   id="path578"
   inkscape:connector-curvature="0" />
	<path
   style="clip-rule:evenodd;fill:#c4831d;fill-rule:evenodd"
   d="m 34.808,17.992 c 0.266,-0.086 0.476,-0.05 0.63,0.109 0.123,0.184 0.02,0.358 -0.312,0.522 -0.508,0.232 -0.896,0.391 -1.16,0.477 -0.234,0.062 -0.404,0.043 -0.508,-0.053 -0.123,-0.184 -0.235,-0.338 -0.336,-0.463 -0.102,-0.125 0.039,-0.238 0.42,-0.341 0.234,-0.059 0.656,-0.144 1.266,-0.251 z"
   id="path580"
   inkscape:connector-curvature="0" />
	<path
   style="clip-rule:evenodd;fill:#c4831d;fill-rule:evenodd"
   d="m 35.312,19.711 2.022,-0.13 c 0.375,-0.046 0.616,-0.035 0.723,0.033 0.056,0.006 0.092,0.081 0.104,0.225 0.064,0.206 -0.146,0.44 -0.629,0.703 -0.24,0.117 -0.586,0.152 -1.037,0.105 -0.619,-0.065 -1.141,-0.119 -1.563,-0.164 -0.535,-0.056 -0.692,-0.187 -0.472,-0.391 0.221,-0.204 0.505,-0.331 0.852,-0.381 z"
   id="path582"
   inkscape:connector-curvature="0" />
	<path
   style="clip-rule:evenodd;fill:#c4831d;fill-rule:evenodd"
   d="m 41.284,19.396 c 0.229,-0.005 0.666,-0.102 1.313,-0.29 0.443,-0.153 0.685,-0.142 0.723,0.033 0.067,0.178 0.084,0.294 0.05,0.347 -0.094,0.076 -0.204,0.179 -0.332,0.308 -0.161,0.183 -0.344,0.292 -0.547,0.327 -0.087,0.02 -0.404,0.058 -0.952,0.114 -0.4,0.015 -0.684,-10e-4 -0.85,-0.046 -0.242,-0.14 -0.512,-0.282 -0.81,-0.428 -0.353,-0.179 -0.355,-0.279 -0.012,-0.3 0.203,-0.035 0.676,-0.057 1.417,-0.065 z"
   id="path584"
   inkscape:connector-curvature="0" />
	<path
   style="clip-rule:evenodd;fill:#c4831d;fill-rule:evenodd"
   d="m 38.827,17.559 c 0.395,0.041 0.646,0.082 0.757,0.122 0.163,0.074 0.151,0.187 -0.036,0.338 -0.221,0.206 -0.689,0.199 -1.407,-0.019 -0.194,-0.049 -0.2,-0.135 -0.017,-0.258 0.185,-0.124 0.418,-0.185 0.703,-0.183 z"
   id="path586"
   inkscape:connector-curvature="0" />
	<path
   style="clip-rule:evenodd;fill:#c4831d;fill-rule:evenodd"
   d="m 36.537,16.165 c 0.4,-0.015 0.708,0.045 0.921,0.182 0.211,0.164 0.181,0.318 -0.091,0.46 -0.243,0.146 -0.393,0.216 -0.449,0.21 -0.223,-0.052 -0.501,-0.11 -0.836,-0.173 -0.477,-0.078 -0.605,-0.206 -0.388,-0.382 0.218,-0.177 0.499,-0.276 0.843,-0.297 z"
   id="path588"
   inkscape:connector-curvature="0" />
	<path
   style="clip-rule:evenodd;fill:#c4831d;fill-rule:evenodd"
   d="m 34.813,16.711 c 0.403,-0.043 0.693,0.044 0.87,0.262 0.18,0.19 0.191,0.348 0.036,0.474 -0.094,0.076 -0.211,0.106 -0.352,0.091 l -0.635,-0.066 c -0.313,-0.004 -0.457,-0.119 -0.434,-0.345 0.028,-0.253 0.2,-0.392 0.515,-0.416 z"
   id="path590"
   inkscape:connector-curvature="0" />
	<path
   style="clip-rule:evenodd;fill:#c4831d;fill-rule:evenodd"
   d="m 40.313,16.432 c 0.998,-0.01 1.494,0.014 1.488,0.07 -0.015,0.141 -0.185,0.266 -0.51,0.374 -0.299,0.14 -0.772,0.175 -1.421,0.107 -0.479,-0.05 -0.596,-0.162 -0.35,-0.335 0.215,-0.148 0.48,-0.22 0.793,-0.216 z"
   id="path592"
   inkscape:connector-curvature="0" />
	<path
   style="clip-rule:evenodd;fill:#c4831d;fill-rule:evenodd"
   d="m 42.507,14.653 c 0.339,0.035 0.54,0.156 0.604,0.362 0.095,0.181 0.038,0.317 -0.171,0.409 -0.147,0.042 -0.275,0.042 -0.385,0.002 -0.248,-0.083 -0.457,-0.133 -0.625,-0.151 -0.364,-0.066 -0.451,-0.189 -0.261,-0.369 0.164,-0.209 0.443,-0.294 0.838,-0.253 z"
   id="path594"
   inkscape:connector-curvature="0" />
	<path
   style="clip-rule:evenodd;fill:#c4831d;fill-rule:evenodd"
   d="m 41.195,12.892 c 0.397,0.013 0.685,0.128 0.861,0.347 0.148,0.215 0.159,0.387 0.032,0.516 -0.065,0.079 -0.141,0.113 -0.225,0.104 -0.197,-0.021 -0.383,-0.026 -0.555,-0.015 -0.231,0.033 -0.414,0.014 -0.55,-0.057 -0.213,-0.137 -0.403,-0.228 -0.569,-0.273 -0.357,-0.123 -0.427,-0.273 -0.209,-0.449 0.216,-0.149 0.622,-0.207 1.215,-0.173 z"
   id="path596"
   inkscape:connector-curvature="0" />
	<path
   style="clip-rule:evenodd;fill:#c4831d;fill-rule:evenodd"
   d="m 33.982,9.958 c 0.913,-0.018 1.173,0.223 0.778,0.723 -0.13,0.157 -0.38,0.231 -0.749,0.221 -0.372,0.018 -0.722,-0.047 -1.048,-0.195 -0.302,-0.117 -0.314,-0.261 -0.04,-0.432 0.25,-0.203 0.602,-0.308 1.059,-0.317 z"
   id="path598"
   inkscape:connector-curvature="0" />
	<path
   style="clip-rule:evenodd;fill:#c4831d;fill-rule:evenodd"
   d="m 32.614,11.182 c 0.511,0.025 0.855,0.132 1.035,0.322 0.177,0.218 0.089,0.38 -0.265,0.485 -0.266,0.086 -0.511,0.118 -0.736,0.094 -0.25,-0.055 -0.501,-0.109 -0.752,-0.164 -0.391,-0.069 -0.477,-0.207 -0.256,-0.412 0.196,-0.236 0.521,-0.344 0.974,-0.325 z"
   id="path600"
   inkscape:connector-curvature="0" />
	<path
   style="clip-rule:evenodd;fill:#c4831d;fill-rule:evenodd"
   d="m 30.239,11.831 c 0.341,0.007 0.602,0.105 0.781,0.295 0.18,0.189 0.139,0.313 -0.124,0.371 -0.206,0.064 -0.378,0.075 -0.516,0.032 -0.191,-0.077 -0.411,-0.157 -0.659,-0.24 -0.335,-0.063 -0.411,-0.157 -0.227,-0.28 0.213,-0.12 0.461,-0.179 0.745,-0.178 z"
   id="path602"
   inkscape:connector-curvature="0" />
	<path
   style="clip-rule:evenodd;fill:#c4831d;fill-rule:evenodd"
   d="m 28.969,12.125 c 0.367,0.038 0.457,0.133 0.27,0.284 -0.215,0.149 -0.493,0.219 -0.834,0.212 -0.341,-0.007 -0.417,-0.101 -0.227,-0.28 0.193,-0.207 0.456,-0.279 0.791,-0.216 z"
   id="path604"
   inkscape:connector-curvature="0" />
	<path
   style="clip-rule:evenodd;fill:#ffcc61;fill-rule:evenodd"
   d="m 30.665,9.397 c 1.001,-0.038 1.612,0.112 1.833,0.448 0.196,0.305 0.059,0.533 -0.413,0.684 -0.296,0.111 -0.625,0.119 -0.985,0.025 -0.667,-0.156 -1.072,-0.24 -1.212,-0.255 -0.479,-0.05 -0.591,-0.205 -0.336,-0.462 0.225,-0.262 0.597,-0.409 1.113,-0.44 z"
   id="path606"
   inkscape:connector-curvature="0" />
	<path
   style="clip-rule:evenodd;fill:#ffcc61;fill-rule:evenodd"
   d="m 24.093,11.358 c 0.685,-0.014 1.037,0.166 1.055,0.538 0.015,0.4 -0.389,0.586 -1.212,0.557 -0.798,0.001 -1.092,-0.186 -0.881,-0.563 0.178,-0.351 0.525,-0.528 1.038,-0.532 z"
   id="path608"
   inkscape:connector-curvature="0" />
	<path
   style="clip-rule:evenodd;fill:#ffd37a;fill-rule:evenodd"
   d="m 36.694,15.071 c 0.485,-0.007 0.804,0.084 0.955,0.271 0.123,0.184 -0.019,0.312 -0.425,0.383 -1.101,0.17 -1.915,0.198 -2.445,0.086 -0.419,-0.072 -0.348,-0.208 0.214,-0.405 0.562,-0.198 1.129,-0.31 1.701,-0.335 z"
   id="path610"
   inkscape:connector-curvature="0" />
	<path
   style="clip-rule:evenodd;fill:#ffcc61;fill-rule:evenodd"
   d="m 38.536,10.947 c 0.066,0.178 0.102,0.396 0.103,0.652 0.045,0.119 0.022,0.202 -0.068,0.249 -0.031,0.025 -0.22,0.063 -0.567,0.111 -0.231,0.033 -0.484,0.007 -0.761,-0.08 -0.389,-0.097 -0.667,-0.155 -0.837,-0.173 -0.484,0.006 -0.854,-0.004 -1.107,-0.03 -0.457,0.009 -0.859,-0.09 -1.208,-0.297 -0.352,-0.18 -0.451,-0.318 -0.299,-0.416 0.094,-0.076 0.29,-0.183 0.59,-0.323 0.124,-0.101 0.125,-0.243 0.002,-0.427 -0.199,-0.277 -0.292,-0.472 -0.28,-0.585 -0.008,-0.2 0.378,-0.216 1.158,-0.049 0.78,0.167 1.428,0.377 1.942,0.63 0.188,0.105 0.142,0.143 -0.14,0.114 l 0.461,0.091 c 0.56,0.087 0.897,0.265 1.011,0.533 z"
   id="path612"
   inkscape:connector-curvature="0" />
	<path
   style="clip-rule:evenodd;fill:#ffcc61;fill-rule:evenodd"
   d="m 27.679,10.58 c 0.372,-0.018 0.388,0.098 0.048,0.348 -0.336,0.221 -0.703,0.325 -1.101,0.312 -0.429,0.012 -0.475,-0.093 -0.138,-0.314 0.337,-0.222 0.733,-0.337 1.191,-0.346 z"
   id="path614"
   inkscape:connector-curvature="0" />
	<path
   style="clip-rule:evenodd;fill:#ffd37a;fill-rule:evenodd"
   d="m 27.438,14.102 c 0.323,0.176 0.355,0.421 0.094,0.736 -0.261,0.315 -0.547,0.47 -0.86,0.466 -0.285,-10e-4 -0.482,-0.022 -0.592,-0.062 -0.141,-0.015 -0.357,-0.123 -0.649,-0.324 -0.267,-0.17 -0.31,-0.303 -0.129,-0.398 0.093,-0.076 0.245,-0.16 0.454,-0.252 0.181,-0.095 0.417,-0.17 0.708,-0.225 0.407,-0.101 0.732,-0.081 0.974,0.059 z"
   id="path616"
   inkscape:connector-curvature="0" />
	<path
   style="clip-rule:evenodd;fill:#ffcc61;fill-rule:evenodd"
   d="m 33.354,15.96 c 0.533,0.084 0.635,0.194 0.308,0.331 -0.3,0.14 -0.636,0.219 -1.008,0.236 -0.284,-0.001 -0.316,-0.104 -0.096,-0.309 0.252,-0.23 0.517,-0.316 0.796,-0.258 z"
   id="path618"
   inkscape:connector-curvature="0" />
	<path
   style="clip-rule:evenodd;fill:#ffcc61;fill-rule:evenodd"
   d="m 39.317,14.918 c 0.423,0.044 0.824,0.157 1.203,0.339 0.38,0.182 0.563,0.344 0.548,0.485 -0.015,0.141 -0.083,0.248 -0.204,0.32 -0.147,0.042 -0.466,0.093 -0.957,0.156 -0.403,0.043 -0.655,0.002 -0.756,-0.122 -0.23,-0.252 -0.357,-0.394 -0.383,-0.425 -0.242,-0.139 -0.282,-0.3 -0.121,-0.482 0.166,-0.21 0.388,-0.301 0.67,-0.271 z"
   id="path620"
   inkscape:connector-curvature="0" />
	<path
   style="clip-rule:evenodd;fill:#ffd37a;fill-rule:evenodd"
   d="m 33.538,11.749 c 0.563,0.059 0.892,0.193 0.983,0.402 0.067,0.178 -0.074,0.306 -0.424,0.383 -0.235,0.061 -0.406,0.071 -0.517,0.031 -0.301,-0.117 -0.563,-0.201 -0.785,-0.253 -0.42,-0.073 -0.507,-0.195 -0.261,-0.369 0.276,-0.171 0.61,-0.235 1.004,-0.194 z"
   id="path622"
   inkscape:connector-curvature="0" />
	<path
   style="clip-rule:evenodd;fill:#ffcc61;fill-rule:evenodd"
   d="m 27.036,18.76 c 0.313,0.004 0.515,0.11 0.607,0.32 0.092,0.209 -0.068,0.377 -0.48,0.505 -0.44,0.125 -0.687,0.028 -0.739,-0.291 -0.021,-0.344 0.183,-0.522 0.612,-0.534 z"
   id="path624"
   inkscape:connector-curvature="0" />
	<path
   style="clip-rule:evenodd;fill:#ffcc61;fill-rule:evenodd"
   d="m 24.032,13.574 c 0.263,-0.058 0.421,0.058 0.476,0.349 0.03,0.26 -0.119,0.458 -0.446,0.594 -0.241,0.117 -0.631,0.176 -1.172,0.177 -0.601,0.022 -0.974,0.055 -1.122,0.096 -0.29,0.055 -0.367,-0.024 -0.231,-0.238 0.105,-0.188 0.265,-0.357 0.48,-0.505 0.212,-0.12 0.883,-0.278 2.015,-0.473 z"
   id="path626"
   inkscape:connector-curvature="0" />
	<path
   style="clip-rule:evenodd;fill:#ffcc61;fill-rule:evenodd"
   d="m 20.876,11.876 c 0.443,-0.153 0.707,-0.083 0.79,0.21 0.055,0.291 -0.111,0.516 -0.498,0.675 -0.206,0.064 -0.524,0.244 -0.954,0.541 -0.336,0.221 -0.619,0.334 -0.847,0.338 -0.37,-0.01 -0.343,-0.264 0.08,-0.761 0.397,-0.526 0.873,-0.861 1.429,-1.003 z"
   id="path628"
   inkscape:connector-curvature="0" />
	<path
   style="clip-rule:evenodd;fill:#ffcc61;fill-rule:evenodd"
   d="m 29.854,17.56 c 0.397,0.013 0.803,0.084 1.217,0.212 0.439,0.16 0.542,0.27 0.308,0.331 -0.435,0.069 -0.978,0.226 -1.63,0.471 -0.266,0.086 -0.427,0.126 -0.483,0.121 -0.166,-0.046 -0.363,-0.066 -0.592,-0.062 -0.654,-0.012 -1.036,-0.038 -1.146,-0.078 -0.11,-0.04 -0.061,-0.106 0.149,-0.198 0.209,-0.092 0.474,-0.178 0.796,-0.259 0.175,-0.039 0.401,-0.157 0.678,-0.356 0.183,-0.123 0.418,-0.184 0.703,-0.182 z"
   id="path630"
   inkscape:connector-curvature="0" />
	<path
   style="clip-rule:evenodd;fill:#f2b63d;fill-rule:evenodd"
   d="m 39.891,18.012 c 0.531,-0.172 1.186,-0.303 1.964,-0.393 0.811,-0.114 1.223,-0.114 1.239,0.001 0.014,0.145 -0.028,0.268 -0.124,0.372 -0.094,0.076 -0.397,0.257 -0.912,0.545 -0.424,0.24 -0.766,0.375 -1.025,0.406 -0.027,-0.003 -0.513,0.003 -1.455,0.018 -0.685,0.014 -0.899,-0.108 -0.645,-0.367 0.198,-0.263 0.517,-0.457 0.958,-0.582 z"
   id="path632"
   inkscape:connector-curvature="0" />
	<path
   style="clip-rule:evenodd;fill:#ffcc61;fill-rule:evenodd"
   d="m 38.638,16.513 c 0.36,0.095 0.458,0.248 0.294,0.458 -0.134,0.185 -0.426,0.254 -0.877,0.207 -0.479,-0.05 -0.604,-0.206 -0.378,-0.467 0.226,-0.261 0.547,-0.327 0.961,-0.198 z"
   id="path634"
   inkscape:connector-curvature="0" />
	<path
   style="clip-rule:evenodd;fill:#ffcf6b;fill-rule:evenodd"
   d="m 38.419,12.474 c 0.386,0.125 0.53,0.24 0.435,0.344 -0.094,0.076 -0.369,0.118 -0.825,0.127 -0.341,-0.007 -0.579,-0.046 -0.714,-0.117 -0.268,-0.17 -0.428,-0.272 -0.481,-0.307 -0.304,-0.089 -0.24,-0.153 0.191,-0.193 0.431,-0.041 0.896,0.008 1.394,0.146 z"
   id="path636"
   inkscape:connector-curvature="0" />
	<path
   style="clip-rule:evenodd;fill:#f2b63d;fill-rule:evenodd"
   d="m 30.239,19.181 c 0.392,0.069 0.919,0.067 1.582,-0.005 0.55,-0.086 0.932,-0.06 1.146,0.076 0.267,0.171 0.226,0.295 -0.124,0.372 -0.147,0.042 -0.826,0.127 -2.036,0.257 -0.838,0.111 -1.255,0.012 -1.25,-0.302 0.035,-0.338 0.262,-0.471 0.682,-0.398 z"
   id="path638"
   inkscape:connector-curvature="0" />
	<path
   style="clip-rule:evenodd;fill:#ffcc63;fill-rule:evenodd"
   d="m 26.279,17.826 c 0.412,-0.128 0.486,-0.021 0.223,0.322 -0.263,0.343 -0.596,0.521 -0.996,0.537 -0.372,0.018 -0.448,-0.075 -0.227,-0.28 0.223,-0.233 0.557,-0.426 1,-0.579 z"
   id="path640"
   inkscape:connector-curvature="0" />
	<path
   style="clip-rule:evenodd;fill:#f2b63d;fill-rule:evenodd"
   d="m 36.356,17.898 c 0.8,-0.03 1.249,0.174 1.346,0.611 0.1,0.41 -0.215,0.689 -0.942,0.842 -0.554,0.112 -0.952,0.114 -1.197,0.003 -0.568,-0.287 -0.895,-0.436 -0.979,-0.444 -0.529,-0.113 -0.509,-0.31 0.063,-0.592 0.541,-0.286 1.111,-0.425 1.709,-0.42 z"
   id="path642"
   inkscape:connector-curvature="0" />
	
		<use
   xlink:href="#flash0.ai_x5F_7_x2F_Layer_9_x2F__x3C_Path_x3E__x5F_1"
   width="21.549999"
   height="8.9300003"
   x="-0.0089999996"
   y="-8.9300003"
   transform="matrix(0.8454,0.0885,0.0885,-0.8454,-74.897951,138.21842)"
   style="overflow:visible;opacity:0.55860003;enable-background:new"
   id="use644" />
	
		<use
   xlink:href="#flash0.ai_x5F_7_x2F_Layer_9_x2F__x3C_Path_x3E_"
   width="16.465"
   height="6.1570001"
   x="0.244"
   y="-6.1999998"
   transform="matrix(0.8454,0.0885,0.0885,-0.8454,-65.697751,144.41862)"
   style="overflow:visible;opacity:0.55860003;enable-background:new"
   id="use646" />
</g>
</svg>