<?xml version="1.0" encoding="UTF-8" standalone="no"?>
<!-- Generator: Adobe Illustrator 15.1.0, SVG Export Plug-In . SVG Version: 6.00 Build 0)  -->

<svg
   xmlns:dc="http://purl.org/dc/elements/1.1/"
   xmlns:cc="http://creativecommons.org/ns#"
   xmlns:rdf="http://www.w3.org/1999/02/22-rdf-syntax-ns#"
   xmlns:svg="http://www.w3.org/2000/svg"
   xmlns="http://www.w3.org/2000/svg"
   xmlns:sodipodi="http://sodipodi.sourceforge.net/DTD/sodipodi-0.dtd"
   xmlns:inkscape="http://www.inkscape.org/namespaces/inkscape"
   version="1.1"
   id="flash0.ai"
   x="0px"
   y="0px"
   width="256"
   height="256"
   viewBox="0 0 255.99999 256.00001"
   xml:space="preserve"
   sodipodi:docname="fry_up.svg"
   inkscape:version="0.92.4 (5da689c313, 2019-01-14)"><title
   id="title1681">Fry Up</title><metadata
   id="metadata874"><rdf:RDF><cc:Work
       rdf:about=""><dc:format>image/svg+xml</dc:format><dc:type
         rdf:resource="http://purl.org/dc/dcmitype/StillImage" /><dc:title>Fry Up</dc:title><cc:license
         rdf:resource="http://creativecommons.org/publicdomain/zero/1.0/" /><dc:creator><cc:Agent><dc:title>Glitch</dc:title></cc:Agent></dc:creator><dc:source>https://opengameart.org/node/20149</dc:source></cc:Work><cc:License
       rdf:about="http://creativecommons.org/publicdomain/zero/1.0/"><cc:permits
         rdf:resource="http://creativecommons.org/ns#Reproduction" /><cc:permits
         rdf:resource="http://creativecommons.org/ns#Distribution" /><cc:permits
         rdf:resource="http://creativecommons.org/ns#DerivativeWorks" /></cc:License></rdf:RDF></metadata><defs
   id="defs872" /><sodipodi:namedview
   pagecolor="#ffffff"
   bordercolor="#666666"
   borderopacity="1"
   objecttolerance="10"
   gridtolerance="10"
   guidetolerance="10"
   inkscape:pageopacity="0"
   inkscape:pageshadow="2"
   inkscape:window-width="1920"
   inkscape:window-height="1025"
   id="namedview870"
   showgrid="false"
   inkscape:zoom="1.6089854"
   inkscape:cx="-14.489045"
   inkscape:cy="73.619663"
   inkscape:window-x="-8"
   inkscape:window-y="-8"
   inkscape:window-maximized="1"
   inkscape:current-layer="flash0.ai"
   fit-margin-top="0"
   fit-margin-left="0"
   fit-margin-right="0"
   fit-margin-bottom="0" />



<g
   id="g861"
   transform="matrix(7.346395,0,0,7.346395,-117.50477,-51.018126)">
	
		<linearGradient
   id="SVGID_16_"
   gradientUnits="userSpaceOnUse"
   x1="0.00048828131"
   y1="14.5146"
   x2="44.6768"
   y2="14.5146"
   gradientTransform="matrix(0.78,-4.367294e-4,-4.162217e-4,0.78,16,15.6499)">
		<stop
   offset="0.0235"
   style="stop-color:#DADCDE"
   id="stop664" />
		<stop
   offset="1"
   style="stop-color:#B3B4B5"
   id="stop666" />
	</linearGradient>
	<path
   style="clip-rule:evenodd;fill:url(#SVGID_16_);fill-rule:evenodd"
   d="m 46.849,22.787 c 3.068,1.222 4.368,2.678 3.9,4.368 -0.442,1.689 -2.522,3.106 -6.24,4.251 -3.691,1.17 -7.942,1.729 -12.752,1.677 -4.784,-0.052 -8.71,-0.702 -11.778,-1.95 -3.042,-1.222 -4.342,-2.678 -3.9,-4.368 0.468,-1.689 2.561,-3.106 6.279,-4.251 3.692,-1.144 7.93,-1.703 12.714,-1.677 4.783,0.052 8.708,0.702 11.777,1.95 z"
   id="path669"
   inkscape:connector-curvature="0" />
	
		<linearGradient
   id="SVGID_17_"
   gradientUnits="userSpaceOnUse"
   x1="-47.160198"
   y1="-7.7412"
   x2="1.4647"
   y2="-7.7412"
   gradientTransform="matrix(-0.7546,-0.1974,0.1974,-0.7546,15.9999,15.6496)">
		<stop
   offset="0"
   style="stop-color:#CCCCCC"
   id="stop671" />
		<stop
   offset="1"
   style="stop-color:#FFFFFF"
   id="stop673" />
	</linearGradient>
	<path
   style="clip-rule:evenodd;fill:url(#SVGID_17_);fill-rule:evenodd"
   d="m 46.849,22.631 c 3.068,1.144 4.368,2.483 3.9,4.018 -0.442,1.533 -2.522,2.833 -6.24,3.899 -3.718,1.04 -7.969,1.534 -12.752,1.482 -4.758,-0.026 -8.671,-0.611 -11.739,-1.756 -3.068,-1.144 -4.381,-2.482 -3.939,-4.017 0.468,-1.534 2.561,-2.834 6.279,-3.899 3.692,-1.041 7.93,-1.548 12.714,-1.521 4.783,0.052 8.708,0.65 11.777,1.794 z"
   id="path676"
   inkscape:connector-curvature="0" />
	
		<linearGradient
   id="SVGID_18_"
   gradientUnits="userSpaceOnUse"
   x1="1.9365"
   y1="13.5117"
   x2="42.894501"
   y2="13.5117"
   gradientTransform="matrix(0.78,4.764805e-4,4.97766e-4,0.78,16.0002,15.6501)">
		<stop
   offset="0"
   style="stop-color:#CCCCCC"
   id="stop678" />
		<stop
   offset="1"
   style="stop-color:#FFFFFF"
   id="stop680" />
	</linearGradient>
	<path
   style="clip-rule:evenodd;fill:url(#SVGID_18_);fill-rule:evenodd"
   d="m 45.796,23.021 c 2.808,0.936 4.004,2.054 3.588,3.354 -0.441,1.3 -2.353,2.379 -5.732,3.237 -3.433,0.884 -7.333,1.3 -11.7,1.248 -4.394,-0.026 -7.995,-0.521 -10.803,-1.482 -2.782,-0.937 -3.965,-2.054 -3.549,-3.354 0.417,-1.3 2.327,-2.379 5.733,-3.236 3.406,-0.884 7.293,-1.3 11.661,-1.248 4.368,0.052 7.968,0.545 10.802,1.481 z"
   id="path683"
   inkscape:connector-curvature="0" />
	<path
   style="clip-rule:evenodd;fill:#969c9c;fill-rule:evenodd"
   d="m 48.253,24.814 c 0.598,0.286 1.001,0.638 1.209,1.054 0.234,0.416 -0.156,1.014 -1.17,1.794 -0.779,0.598 -1.6,1.079 -2.457,1.442 -0.494,0.234 -1.261,0.377 -2.301,0.43 -0.339,0.025 -0.963,0.038 -1.872,0.038 -0.599,0 -0.988,0.131 -1.17,0.391 -0.104,0.182 -0.624,0.377 -1.561,0.585 -0.884,0.182 -1.481,0.247 -1.794,0.194 L 35.188,30.47 c -0.521,-0.13 -1.093,-0.208 -1.717,-0.233 -0.441,0 -0.741,0 -0.896,0 -0.234,-0.026 -0.52,-0.117 -0.858,-0.273 -0.338,-0.155 -0.507,-0.325 -0.507,-0.507 0,-0.233 0,-0.364 0,-0.39 -0.26,-0.364 -0.689,-0.611 -1.287,-0.741 -0.26,-0.053 -0.39,-0.014 -0.39,0.116 0,0.208 -0.091,0.352 -0.273,0.43 l -1.443,0.624 c -0.39,-0.026 -0.845,-0.104 -1.365,-0.234 -1.56,-0.39 -2.509,-0.676 -2.847,-0.857 -0.182,-0.104 -0.442,-0.144 -0.78,-0.117 -0.598,0.077 -1.014,0.117 -1.248,0.117 -0.806,0 -1.456,-0.131 -1.95,-0.391 -0.234,-0.13 -0.598,-0.442 -1.092,-0.936 l -0.663,-0.702 c 2.132,-0.676 4.472,-1.339 7.02,-1.989 5.044,-1.352 8.554,-2.027 10.53,-2.027 2.106,0 4.394,0.233 6.864,0.701 1.95,0.364 3.341,0.715 4.173,1.054 0.416,0.18 1.014,0.414 1.794,0.699 z"
   id="path685"
   inkscape:connector-curvature="0" />
	<path
   style="clip-rule:evenodd;fill:#ffd740;fill-rule:evenodd"
   d="m 39.985,18.848 c 0.104,0.13 0.272,0.364 0.507,0.702 0.182,0.183 0.637,0.455 1.365,0.819 0.676,0.363 1.13,0.676 1.365,0.936 0.39,0.391 0.793,0.988 1.208,1.794 0.183,0.338 0.234,0.533 0.156,0.585 -0.182,0.026 -0.325,0.091 -0.43,0.195 -0.415,0.286 -0.909,0.676 -1.481,1.17 -0.312,0.286 -0.546,0.429 -0.702,0.429 -0.546,-0.025 -0.857,-0.039 -0.936,-0.039 -0.494,0.026 -0.806,0.104 -0.937,0.234 -0.155,0.208 -0.338,0.416 -0.546,0.624 -0.233,0.286 -0.48,0.39 -0.74,0.312 -0.261,-0.155 -0.481,-0.272 -0.663,-0.351 -0.13,-0.052 -0.391,-0.117 -0.78,-0.195 -0.26,-0.052 -0.403,-0.104 -0.429,-0.155 -0.026,-0.052 -0.234,-0.039 -0.625,0.039 -0.39,0.077 -0.715,0.169 -0.975,0.272 -0.363,0.13 -0.818,0.014 -1.365,-0.351 -0.182,-0.104 -0.351,-0.144 -0.507,-0.117 -0.26,0.052 -0.468,0.064 -0.624,0.039 -0.208,-0.053 -0.507,0.052 -0.897,0.312 -0.546,0.364 -1.04,0.624 -1.482,0.78 -0.572,0.208 -0.806,0.338 -0.702,0.39 0.13,0.053 0.182,0.092 0.156,0.117 -0.26,0.182 -0.832,0.144 -1.716,-0.117 -0.416,-0.104 -0.871,-0.116 -1.365,-0.038 -0.624,0.13 -0.975,0.194 -1.053,0.194 -0.39,0 -0.663,0.013 -0.819,0.039 -0.234,0.052 -0.52,0.182 -0.858,0.39 -0.312,0.208 -0.624,0.3 -0.936,0.273 -0.078,0 -0.273,-0.052 -0.585,-0.156 -0.078,-0.052 -0.351,-0.064 -0.819,-0.039 -0.624,0 -1.027,0 -1.209,0 -0.338,0 -0.533,-0.013 -0.585,-0.038 -0.026,0 -0.156,-0.092 -0.39,-0.273 -0.234,-0.183 -0.442,-0.312 -0.624,-0.39 l -0.195,-0.04 c -0.39,-0.208 -0.702,-0.402 -0.936,-0.585 -0.208,-0.182 -0.312,-0.507 -0.312,-0.975 0,-0.13 0.039,-0.221 0.117,-0.272 l 0.078,-0.039 c -0.026,-0.338 0,-0.599 0.078,-0.78 0.026,-0.104 0.156,-0.221 0.39,-0.351 0.286,-0.156 0.455,-0.261 0.507,-0.313 l 1.872,-1.482 c 0.052,-0.208 0.273,-0.546 0.663,-1.014 0.39,-0.442 0.884,-0.767 1.482,-0.975 l 0.819,-0.663 c 0.598,-0.442 1.001,-0.663 1.209,-0.663 l 0.312,-0.469 c 0.234,-0.312 0.416,-0.493 0.546,-0.545 0.104,-0.026 0.234,-0.144 0.39,-0.352 0.208,-0.26 0.377,-0.429 0.507,-0.507 0.13,-0.078 0.312,-0.208 0.546,-0.39 0.234,-0.13 0.598,-0.195 1.092,-0.195 0.364,0 0.741,0.026 1.131,0.078 0.338,0 0.741,-0.065 1.209,-0.195 0.442,-0.104 0.754,-0.208 0.936,-0.312 0.156,-0.13 0.325,-0.208 0.507,-0.234 0.312,-0.026 0.767,0.104 1.365,0.39 l 1.286,0.78 c 0.131,0.078 0.469,0.13 1.015,0.156 0.338,0.025 0.936,0.039 1.794,0.039 0.468,0.025 0.754,0.116 0.857,0.272 0.183,0.261 0.456,0.469 0.819,0.624 0.497,0.21 0.809,0.418 0.939,0.626 z"
   id="path687"
   inkscape:connector-curvature="0" />
	<path
   style="clip-rule:evenodd;fill:#f0c426;fill-rule:evenodd"
   d="m 39.985,18.848 c 0.104,0.13 0.272,0.364 0.507,0.702 0.182,0.183 0.637,0.455 1.365,0.819 0.676,0.363 1.13,0.676 1.365,0.936 0.39,0.391 0.793,0.988 1.208,1.794 0.183,0.338 0.234,0.533 0.156,0.585 -0.182,0.026 -0.325,0.091 -0.43,0.195 -0.415,0.286 -0.909,0.676 -1.481,1.17 -0.312,0.286 -0.546,0.429 -0.702,0.429 -0.546,-0.025 -0.857,-0.039 -0.936,-0.039 -0.494,0.026 -0.806,0.104 -0.937,0.234 -0.155,0.208 -0.338,0.416 -0.546,0.624 -0.233,0.286 -0.48,0.39 -0.74,0.312 -0.261,-0.155 -0.481,-0.272 -0.663,-0.351 -0.13,-0.052 -0.391,-0.117 -0.78,-0.195 -0.26,-0.052 -0.403,-0.104 -0.429,-0.155 -0.026,-0.052 -0.234,-0.039 -0.625,0.039 -0.39,0.077 -0.715,0.169 -0.975,0.272 -0.363,0.13 -0.818,0.014 -1.365,-0.351 -0.182,-0.104 -0.351,-0.144 -0.507,-0.117 -0.26,0.052 -0.468,0.064 -0.624,0.039 -0.208,-0.053 -0.507,0.052 -0.897,0.312 -0.546,0.364 -1.04,0.624 -1.482,0.78 -0.572,0.208 -0.806,0.338 -0.702,0.39 0.13,0.053 0.182,0.092 0.156,0.117 -0.26,0.182 -0.832,0.144 -1.716,-0.117 -0.416,-0.104 -0.871,-0.116 -1.365,-0.038 -0.624,0.13 -0.975,0.194 -1.053,0.194 -0.39,0 -0.663,0.013 -0.819,0.039 -0.234,0.052 -0.52,0.182 -0.858,0.39 -0.312,0.208 -0.624,0.3 -0.936,0.273 -0.078,0 -0.273,-0.052 -0.585,-0.156 -0.078,-0.052 -0.351,-0.064 -0.819,-0.039 -0.624,0 -1.027,0 -1.209,0 -0.338,0 -0.533,-0.013 -0.585,-0.038 -0.026,0 -0.156,-0.092 -0.39,-0.273 -0.234,-0.183 -0.442,-0.312 -0.624,-0.39 l -0.195,-0.04 c -0.39,-0.208 -0.702,-0.402 -0.936,-0.585 -0.208,-0.182 -0.312,-0.507 -0.312,-0.975 0,-0.13 0.039,-0.221 0.117,-0.272 l 0.078,-0.039 v -0.039 c 0.286,0.078 0.455,0.13 0.507,0.155 0.13,0.078 0.325,0.183 0.585,0.313 0.208,0.13 0.299,0.247 0.273,0.351 -0.026,0.131 0.052,0.234 0.234,0.313 0.104,0.052 0.286,0.117 0.546,0.194 0.337,0.131 0.845,0.195 1.521,0.195 l 1.014,0.078 c 0.026,-0.052 0.078,-0.117 0.156,-0.195 0.156,-0.13 0.338,-0.233 0.546,-0.312 0.312,-0.13 0.637,-0.169 0.975,-0.117 l 1.365,0.234 c 0.234,0.078 0.39,-0.052 0.468,-0.391 0.156,-0.441 0.39,-0.74 0.702,-0.896 0.052,-0.026 0.13,-0.091 0.234,-0.195 0.104,-0.104 0.221,-0.143 0.351,-0.117 0.182,0.026 0.533,0.195 1.053,0.507 l 1.17,0.039 0.741,-0.39 1.365,-0.546 c 0.39,-0.052 0.611,-0.091 0.663,-0.117 0.182,-0.052 0.26,-0.143 0.234,-0.272 0,-0.053 -0.078,-0.144 -0.234,-0.273 -0.078,-0.078 -0.052,-0.169 0.078,-0.273 0.052,-0.052 0.182,-0.143 0.39,-0.272 0.13,-0.078 0.195,-0.143 0.195,-0.195 0,-0.286 -0.117,-0.52 -0.351,-0.702 -0.13,-0.104 -0.299,-0.272 -0.507,-0.507 -0.156,-0.208 -0.26,-0.312 -0.312,-0.312 -0.078,-0.026 -0.13,-0.078 -0.156,-0.156 0,-0.104 0.052,-0.195 0.156,-0.273 0.312,-0.208 0.429,-0.39 0.351,-0.546 -0.026,-0.104 -0.052,-0.182 -0.078,-0.233 -0.052,-0.078 -0.182,-0.117 -0.39,-0.117 -0.728,0 -1.274,-0.078 -1.638,-0.234 -0.39,-0.104 -0.494,-0.325 -0.312,-0.663 0.13,-0.26 0.064,-0.559 -0.195,-0.896 l 0.312,-0.273 c 0.104,-0.052 0.39,0.039 0.858,0.273 l 0.507,0.195 0.585,-0.078 c 0.441,-0.208 0.819,-0.247 1.13,-0.117 0.313,0.155 0.689,0.299 1.132,0.429 0.493,0.156 0.779,0.195 0.857,0.117 0.13,-0.208 0.195,-0.416 0.195,-0.624 L 34.56,18.307 C 34.327,18.255 34.106,18.152 33.898,17.995 L 33.625,17.8 33.664,17.41 h 0.78 c -0.026,-0.13 -0.026,-0.234 0,-0.313 l 0.116,0.039 c 0.131,0.078 0.794,0.144 1.989,0.195 h 0.819 c 0.468,0.025 0.754,0.116 0.857,0.272 0.183,0.261 0.456,0.469 0.819,0.624 0.499,0.205 0.811,0.413 0.941,0.621 z"
   id="path689"
   inkscape:connector-curvature="0" />
	<path
   style="clip-rule:evenodd;fill:#e3b924;fill-rule:evenodd"
   d="m 40.219,20.135 0.858,-0.156 1.053,0.546 -0.233,0.313 c -0.052,0.025 -0.104,0.078 -0.156,0.156 -0.078,0.104 -0.053,0.233 0.077,0.39 0.104,0.13 0.261,0.26 0.469,0.391 0.182,0.13 0.299,0.233 0.352,0.312 0.104,0.156 0.221,0.299 0.35,0.429 0.027,0.078 0.065,0.13 0.117,0.156 0.053,0 0.26,0.039 0.624,0.117 l 0.624,0.116 0.078,0.195 c 0.183,0.338 0.234,0.533 0.156,0.585 -0.182,0.026 -0.325,0.091 -0.43,0.195 -0.415,0.286 -0.909,0.676 -1.481,1.17 -0.312,0.286 -0.546,0.429 -0.702,0.429 -0.546,-0.025 -0.857,-0.039 -0.936,-0.039 -0.494,0.026 -0.806,0.104 -0.937,0.234 -0.155,0.208 -0.338,0.416 -0.546,0.624 -0.233,0.286 -0.48,0.39 -0.74,0.312 -0.261,-0.155 -0.481,-0.272 -0.663,-0.351 -0.13,-0.052 -0.391,-0.117 -0.78,-0.195 -0.26,-0.052 -0.403,-0.104 -0.429,-0.155 -0.026,-0.052 -0.234,-0.039 -0.625,0.039 -0.39,0.077 -0.715,0.169 -0.975,0.272 -0.363,0.13 -0.818,0.014 -1.365,-0.351 -0.182,-0.104 -0.351,-0.144 -0.507,-0.117 -0.26,0.052 -0.468,0.064 -0.624,0.039 -0.208,-0.053 -0.507,0.052 -0.897,0.312 -0.546,0.364 -1.04,0.624 -1.482,0.78 -0.572,0.208 -0.806,0.338 -0.702,0.39 0.13,0.053 0.182,0.092 0.156,0.117 -0.26,0.182 -0.832,0.144 -1.716,-0.117 -0.39,-0.078 -0.702,-0.104 -0.936,-0.078 0.078,-0.39 0.143,-0.676 0.195,-0.857 0.078,-0.338 0.208,-0.494 0.39,-0.468 0.39,0.025 0.741,0.194 1.053,0.507 0.442,0.078 0.78,0.052 1.014,-0.078 0.234,-0.13 0.546,-0.221 0.936,-0.273 l 0.663,-0.429 c 0.468,-0.233 0.741,-0.338 0.819,-0.312 0.104,0.025 0.325,0.039 0.663,0.039 0.026,0 0.222,0.025 0.585,0.077 0.208,0 0.352,-0.025 0.429,-0.077 0.053,-0.026 0.026,-0.117 -0.077,-0.273 -0.104,-0.156 -0.092,-0.26 0.038,-0.313 0.104,-0.025 0.222,-0.052 0.352,-0.077 0.052,-0.052 0.025,-0.234 -0.078,-0.546 l -0.546,-1.21 -0.039,-1.13 c 0,-0.078 -0.104,-0.195 -0.313,-0.352 -0.182,-0.156 -0.285,-0.286 -0.312,-0.39 l -0.039,-0.585 0.078,-0.156 c 0.052,-0.078 0.117,-0.13 0.195,-0.156 0.26,-0.104 0.468,-0.156 0.624,-0.156 0.884,0 1.495,-0.104 1.832,-0.312 0.104,-0.078 0.17,-0.169 0.195,-0.273 0.026,-0.104 0.053,-0.208 0.078,-0.312 0.026,-0.052 0.013,-0.143 -0.039,-0.273 -0.052,-0.077 0,-0.155 0.156,-0.233 0.078,-0.026 0.403,-0.117 0.975,-0.273 0.183,-0.025 0.403,-0.117 0.663,-0.273 l 0.313,0.04 c 0.233,0.025 0.377,0.078 0.429,0.155 0.052,0.13 0.169,0.26 0.351,0.39 l 0.313,0.118 c 0.182,0.104 0.286,0.194 0.313,0.272 0.104,0.468 0.169,0.729 0.194,0.78 0.103,0.153 0.285,0.271 0.545,0.349 z"
   id="path691"
   inkscape:connector-curvature="0" />
	<g
   id="g697">
		<path
   style="clip-rule:evenodd;fill:#d9ac0d;fill-rule:evenodd"
   d="m 42.52,22.28 c 0.104,-0.053 0.26,0.025 0.468,0.233 0.183,0.156 0.417,0.325 0.703,0.508 0.207,0.13 0.325,0.246 0.351,0.351 l 0.195,0.429 -0.079,0.078 c -0.415,0.286 -0.909,0.676 -1.481,1.17 -0.312,0.286 -0.546,0.429 -0.702,0.429 -0.546,-0.025 -0.857,-0.039 -0.936,-0.039 -0.494,0.026 -0.806,0.104 -0.937,0.234 -0.155,0.208 -0.338,0.416 -0.546,0.624 -0.233,0.286 -0.48,0.39 -0.74,0.312 -0.261,-0.155 -0.481,-0.272 -0.663,-0.351 -0.13,-0.052 -0.391,-0.117 -0.78,-0.195 -0.26,-0.052 -0.403,-0.104 -0.429,-0.155 -0.026,-0.052 -0.234,-0.039 -0.625,0.039 -0.39,0.077 -0.715,0.169 -0.975,0.272 -0.338,0.13 -0.688,0.078 -1.053,-0.156 l 0.195,-0.155 0.585,-0.391 c 0.155,-0.13 0.208,-0.286 0.155,-0.468 -0.182,-0.624 -0.182,-1.066 0,-1.326 0.156,-0.182 0.234,-0.338 0.234,-0.468 0,-0.104 -0.078,-0.26 -0.234,-0.468 L 34.797,22.163 C 34.745,21.85 34.706,21.669 34.68,21.617 l -0.233,-0.702 0.585,0.195 c 0.468,0.13 0.923,0.207 1.364,0.233 0.339,0.026 0.833,-0.013 1.482,-0.117 0.468,-0.078 0.729,-0.078 0.78,0 0.052,0.104 0.091,0.221 0.117,0.352 0.052,0.078 0.182,0.117 0.39,0.117 l 1.17,-0.078 c 0.313,-0.026 0.533,0.025 0.663,0.156 l 0.468,0.116 c 0.338,0.104 0.586,0.208 0.741,0.313 0.105,0.078 0.209,0.104 0.313,0.078 z"
   id="path693"
   inkscape:connector-curvature="0" />
		<path
   style="clip-rule:evenodd;fill:#d9ac0d;fill-rule:evenodd"
   d="m 32.848,25.79 c -0.208,-0.053 -0.507,0.052 -0.897,0.312 -0.546,0.364 -1.04,0.624 -1.482,0.78 -0.572,0.208 -0.806,0.338 -0.702,0.39 0.13,0.053 0.182,0.092 0.156,0.117 -0.26,0.182 -0.832,0.144 -1.716,-0.117 -0.442,-0.104 -0.845,-0.116 -1.209,-0.038 l 0.195,-1.015 c 0.312,0.052 0.715,0.234 1.209,0.546 0.182,0.104 0.351,0.143 0.507,0.117 0.104,0 0.325,-0.026 0.663,-0.078 0.26,-0.025 0.442,-0.078 0.546,-0.155 0.182,-0.156 0.39,-0.273 0.624,-0.352 0.26,-0.078 0.637,-0.221 1.131,-0.429 0.39,-0.156 0.715,-0.182 0.975,-0.078 z"
   id="path695"
   inkscape:connector-curvature="0" />
	</g>
	<path
   style="clip-rule:evenodd;fill:#f0c426;fill-rule:evenodd"
   d="m 37.918,22.67 c 0.572,0.104 0.975,0.247 1.209,0.429 0.26,0.183 0.208,0.377 -0.156,0.585 -0.285,0.026 -0.52,0.144 -0.702,0.352 -0.233,0.208 -0.61,0.182 -1.131,-0.078 -0.26,-0.13 -0.468,-0.364 -0.624,-0.702 -0.077,-0.208 0.065,-0.377 0.43,-0.507 0.337,-0.131 0.662,-0.157 0.974,-0.079 z"
   id="path699"
   inkscape:connector-curvature="0" />
	<path
   style="clip-rule:evenodd;fill:#f0c426;fill-rule:evenodd"
   d="m 37.723,24.932 c 0.183,-0.025 0.403,0.039 0.663,0.195 0.26,0.13 0.377,0.26 0.352,0.39 -0.026,0.208 -0.234,0.273 -0.624,0.195 -0.131,0 -0.261,-0.052 -0.391,-0.156 -0.13,-0.13 -0.26,-0.208 -0.39,-0.233 -0.208,-0.026 -0.273,-0.092 -0.195,-0.195 0.104,-0.079 0.3,-0.144 0.585,-0.196 z"
   id="path701"
   inkscape:connector-curvature="0" />
	<path
   style="clip-rule:evenodd;fill:#f0c426;fill-rule:evenodd"
   d="m 41.116,23.255 c 0.39,0.026 0.61,0.169 0.663,0.429 0.078,0.234 -0.026,0.442 -0.313,0.624 -0.208,0.13 -0.338,0.17 -0.39,0.117 -0.078,-0.13 -0.144,-0.195 -0.195,-0.195 -0.104,-0.052 -0.195,-0.116 -0.273,-0.194 -0.052,-0.104 -0.104,-0.195 -0.155,-0.273 -0.078,-0.104 -0.039,-0.221 0.117,-0.351 0.156,-0.13 0.338,-0.183 0.546,-0.157 z"
   id="path703"
   inkscape:connector-curvature="0" />
	<path
   style="clip-rule:evenodd;fill:#ffe357;fill-rule:evenodd"
   d="m 32.458,22.202 c 0.104,0.13 0.221,0.325 0.351,0.585 0.078,0.13 0.104,0.194 0.078,0.194 -0.026,-0.025 -0.039,0.014 -0.039,0.117 0.026,0.104 -0.026,0.144 -0.156,0.117 l -0.429,-0.156 c -0.104,-0.025 -0.169,-0.025 -0.195,0 -0.026,0.078 -0.13,0.144 -0.312,0.195 -0.208,0.078 -0.364,0.091 -0.468,0.039 -0.13,-0.078 -0.247,-0.156 -0.351,-0.234 -0.13,-0.078 -0.182,-0.143 -0.156,-0.194 0.026,-0.053 0.052,-0.117 0.078,-0.195 0.182,-0.26 0.26,-0.481 0.234,-0.663 -0.026,-0.13 0.064,-0.364 0.273,-0.702 z"
   id="path705"
   inkscape:connector-curvature="0" />
	<path
   style="clip-rule:evenodd;fill:#ffe357;fill-rule:evenodd"
   d="m 29.533,19.55 c -0.026,-0.025 -0.052,-0.052 -0.078,-0.078 -0.026,-0.052 0.026,-0.091 0.156,-0.117 0.234,-0.052 0.585,0.234 1.053,0.858 v 0.39 c 0,0.156 -0.104,0.234 -0.312,0.234 -0.26,0 -0.455,0 -0.585,0 -0.546,0.182 -0.936,0.286 -1.17,0.312 l -0.585,0.078 -0.78,-0.116 -1.209,0.038 0.234,-0.351 c 0.052,-0.052 0.13,-0.169 0.234,-0.351 0.156,-0.156 0.39,-0.247 0.702,-0.273 0.26,-0.026 0.546,-0.052 0.858,-0.078 0.208,-0.052 0.429,-0.13 0.663,-0.233 0.442,-0.209 0.715,-0.313 0.819,-0.313 z"
   id="path707"
   inkscape:connector-curvature="0" />
	<path
   style="clip-rule:evenodd;fill:#ffe357;fill-rule:evenodd"
   d="m 21.928,24.503 c 0.078,-0.025 0.234,0.156 0.468,0.546 0.104,0.182 0.208,0.364 0.312,0.546 l -1.131,0.117 c -0.182,0.052 -0.56,-0.091 -1.131,-0.429 -0.313,-0.183 -0.286,-0.377 0.078,-0.585 0.078,-0.053 0.299,-0.091 0.663,-0.117 0.39,-0.026 0.637,-0.052 0.741,-0.078 z"
   id="path709"
   inkscape:connector-curvature="0" />
	<path
   style="clip-rule:evenodd;fill:#ffe357;fill-rule:evenodd"
   d="m 22.513,23.566 c 0.286,-0.025 0.429,0.04 0.429,0.195 0,0.104 -0.065,0.286 -0.195,0.546 -0.078,0.156 -0.182,0.195 -0.312,0.117 -0.13,-0.156 -0.234,-0.286 -0.312,-0.39 -0.208,-0.26 -0.078,-0.415 0.39,-0.468 z"
   id="path711"
   inkscape:connector-curvature="0" />
	<path
   style="clip-rule:evenodd;fill:#ffe357;fill-rule:evenodd"
   d="m 27.661,24.035 c 0.078,-0.234 0.117,-0.403 0.117,-0.507 0,-0.104 0.052,-0.17 0.156,-0.195 0.078,-0.026 0.222,-0.039 0.43,-0.039 0.078,0 0.195,-0.091 0.351,-0.272 0.13,-0.183 0.351,-0.3 0.663,-0.352 0.364,-0.104 0.572,0.325 0.624,1.287 0.026,0.286 -0.013,0.429 -0.117,0.429 -0.442,-0.052 -0.689,-0.078 -0.741,-0.078 -0.286,0.052 -0.468,0.065 -0.546,0.039 -0.13,-0.025 -0.286,-0.039 -0.468,-0.039 -0.313,0 -0.469,-0.091 -0.469,-0.273 z"
   id="path713"
   inkscape:connector-curvature="0" />
	<path
   style="clip-rule:evenodd;fill:#ffe357;fill-rule:evenodd"
   d="m 31.912,15.962 c 0.312,-0.052 0.702,0.039 1.17,0.273 l 0.117,0.507 c 0.078,0.234 0.104,0.364 0.078,0.39 -0.078,-0.026 -0.13,-0.026 -0.156,0 -0.026,0.104 0.064,0.286 0.272,0.546 0.104,0.156 0.104,0.26 0,0.313 -0.208,0.052 -0.39,0.091 -0.545,0.116 -0.338,0.104 -0.533,0.065 -0.585,-0.116 -0.026,-0.053 -0.117,-0.117 -0.273,-0.195 l -0.233,-0.117 c -0.078,-0.286 -0.234,-0.429 -0.468,-0.429 -0.104,0 -0.156,0.013 -0.156,0.039 0.078,0.052 0.091,0.117 0.039,0.195 -0.052,0.155 -0.221,0.208 -0.507,0.155 -0.182,0.104 -0.429,0.156 -0.741,0.156 l -1.716,-0.078 c -0.338,0 -0.533,0.039 -0.585,0.117 -0.13,0.26 -0.481,0.403 -1.053,0.429 -0.286,0.026 -0.767,0.156 -1.443,0.391 l -0.078,-0.04 c 0.208,-0.337 0.39,-0.52 0.546,-0.545 0.104,-0.026 0.234,-0.144 0.39,-0.352 0.208,-0.26 0.377,-0.429 0.507,-0.507 0.13,-0.078 0.312,-0.208 0.546,-0.39 0.234,-0.13 0.598,-0.195 1.092,-0.195 0.364,0 0.741,0.026 1.131,0.078 0.338,0 0.741,-0.065 1.209,-0.195 0.442,-0.104 0.754,-0.208 0.936,-0.312 0.155,-0.13 0.324,-0.208 0.506,-0.234 z"
   id="path715"
   inkscape:connector-curvature="0" />
	<path
   style="clip-rule:evenodd;fill:#ffe357;fill-rule:evenodd"
   d="m 24.463,20.018 c 0.39,-0.078 0.533,0.052 0.429,0.391 -0.026,0.13 -0.169,0.377 -0.429,0.74 -0.078,0.131 -0.208,0.183 -0.39,0.156 -0.312,-0.052 -0.507,-0.078 -0.585,-0.078 -0.234,0.026 -0.403,0.014 -0.507,-0.039 -0.052,-0.025 -0.143,-0.116 -0.273,-0.272 -0.104,-0.13 0.039,-0.299 0.429,-0.507 0.39,-0.183 0.832,-0.313 1.326,-0.391 z"
   id="path717"
   inkscape:connector-curvature="0" />
	<path
   style="clip-rule:evenodd;fill:#cca20a;fill-rule:evenodd"
   d="m 37.333,24.151 -0.624,-0.468 0.429,0.273 c 0.13,0.052 0.507,0.078 1.131,0.078 0.183,0 0.325,-0.065 0.43,-0.195 0.104,-0.104 0.194,-0.156 0.272,-0.156 0.208,0.026 0.325,-0.169 0.352,-0.585 l 0.233,0.273 c 0.13,0.208 0.195,0.402 0.195,0.585 0,0.208 -0.065,0.325 -0.195,0.351 -0.182,0 -0.338,0.014 -0.468,0.039 -0.312,0.234 -0.61,0.338 -0.896,0.313 -0.131,-0.026 -0.418,-0.195 -0.859,-0.508 z"
   id="path719"
   inkscape:connector-curvature="0" />
	<path
   style="clip-rule:evenodd;fill:#cca20a;fill-rule:evenodd"
   d="m 41.077,24.425 c 0.494,-0.052 0.74,-0.169 0.74,-0.351 v -0.313 l 0.391,0.39 c 0.156,0.234 0.104,0.364 -0.155,0.391 -0.156,0.025 -0.365,0.013 -0.625,-0.039 z"
   id="path721"
   inkscape:connector-curvature="0" />
	<path
   style="clip-rule:evenodd;fill:#cca20a;fill-rule:evenodd"
   d="M 34.798,22.163 35.5,21.89 c 0.494,-0.208 0.871,-0.312 1.131,-0.312 0.442,0 1.04,-0.078 1.794,-0.234 l -0.117,0.546 c -0.052,0.183 -0.415,0.273 -1.092,0.273 -0.312,0 -0.48,0.039 -0.507,0.117 0,0.104 -0.026,0.182 -0.078,0.233 -0.078,0.104 -0.442,0.156 -1.092,0.156 -0.156,0 -0.299,-0.065 -0.429,-0.195 -0.156,-0.181 -0.26,-0.286 -0.312,-0.311 z"
   id="path723"
   inkscape:connector-curvature="0" />
	<path
   style="clip-rule:evenodd;fill:#cca20a;fill-rule:evenodd"
   d="m 31.912,19.433 c 0.104,0.026 0.117,0.092 0.039,0.195 -0.104,0.104 -0.26,0.182 -0.468,0.234 -0.208,0.077 -0.338,0.104 -0.39,0.077 v -0.077 l 0.233,-0.273 c 0.183,-0.156 0.378,-0.208 0.586,-0.156 z"
   id="path725"
   inkscape:connector-curvature="0" />
	<path
   style="clip-rule:evenodd;fill:#f0c426;fill-rule:evenodd"
   d="m 26.569,21.032 0.702,-0.117 c 0.026,0 0.338,0.039 0.936,0.117 0.104,0.025 0.247,0 0.429,-0.078 0.234,-0.078 0.429,-0.117 0.585,-0.117 0.494,0 0.975,-0.078 1.443,-0.234 0.156,-0.025 0.117,0.144 -0.117,0.508 -0.26,0.363 -0.52,0.637 -0.78,0.818 l -0.429,0.352 c -0.26,0.208 -0.767,0.156 -1.521,-0.156 -0.156,-0.052 -0.364,-0.208 -0.624,-0.468 -0.286,-0.287 -0.494,-0.495 -0.624,-0.625 z"
   id="path727"
   inkscape:connector-curvature="0" />
	<path
   style="clip-rule:evenodd;fill:#f0c426;fill-rule:evenodd"
   d="m 24.463,21.148 0.546,-0.818 c 0,0.338 -0.052,0.61 -0.156,0.818 -0.078,0.131 -0.273,0.325 -0.585,0.585 -0.156,0.131 -0.247,0.183 -0.273,0.156 0,-0.052 -0.104,-0.052 -0.312,0 -0.234,0.053 -0.468,-0.064 -0.702,-0.351 l -0.234,-0.429 -0.039,-0.195 1.014,0.429 c 0.182,0.027 0.429,-0.038 0.741,-0.195 z"
   id="path729"
   inkscape:connector-curvature="0" />
	<path
   style="clip-rule:evenodd;fill:#fff0a6;fill-rule:evenodd"
   d="m 27.739,19.979 c 0.521,0 0.754,0.065 0.702,0.195 -0.026,0.078 -0.169,0.169 -0.429,0.273 -0.104,0.052 -0.221,0.064 -0.351,0.039 -0.156,-0.053 -0.299,-0.091 -0.429,-0.117 -0.182,-0.052 -0.208,-0.13 -0.078,-0.234 0.156,-0.104 0.351,-0.156 0.585,-0.156 z"
   id="path731"
   inkscape:connector-curvature="0" />
	<path
   style="clip-rule:evenodd;fill:#fff0a6;fill-rule:evenodd"
   d="m 27.466,16.859 c 0.832,0 1.326,0.156 1.482,0.468 0.052,0.13 0.052,0.169 0,0.116 -0.13,-0.077 -0.26,-0.116 -0.39,-0.116 l -0.975,-0.039 c -0.182,0 -0.338,0.039 -0.468,0.117 -0.129,0.052 -0.273,0.078 -0.429,0.078 -0.234,0 -0.208,-0.104 0.078,-0.313 0.286,-0.207 0.52,-0.311 0.702,-0.311 z"
   id="path733"
   inkscape:connector-curvature="0" />
	<path
   style="clip-rule:evenodd;fill:#fff0a6;fill-rule:evenodd"
   d="m 32.068,16.274 c 0.416,0.026 0.624,0.364 0.624,1.014 0,0.26 -0.065,0.351 -0.195,0.273 -0.156,-0.156 -0.299,-0.273 -0.429,-0.352 -0.13,-0.079 -0.208,-0.156 -0.234,-0.234 -0.026,-0.104 -0.078,-0.195 -0.156,-0.273 -0.156,-0.13 -0.195,-0.234 -0.117,-0.312 0.078,-0.103 0.247,-0.142 0.507,-0.116 z"
   id="path735"
   inkscape:connector-curvature="0" />
	<path
   style="clip-rule:evenodd;fill:#fff0a6;fill-rule:evenodd"
   d="m 24.463,20.018 c 0.13,-0.025 0.195,0.014 0.195,0.117 0,0.078 -0.04,0.156 -0.117,0.234 -0.182,0.233 -0.442,0.363 -0.78,0.39 -0.208,0.026 -0.325,0.014 -0.351,-0.039 0.052,-0.078 0.078,-0.169 0.078,-0.272 0.026,-0.183 0.351,-0.326 0.975,-0.43 z"
   id="path737"
   inkscape:connector-curvature="0" />
	<path
   style="clip-rule:evenodd;fill:#fff0a6;fill-rule:evenodd"
   d="m 21.421,24.62 c 0.156,-0.053 0.272,0.025 0.351,0.233 0.078,0.209 0.013,0.325 -0.195,0.352 -0.182,0.025 -0.325,0 -0.429,-0.078 -0.13,-0.104 -0.273,-0.195 -0.429,-0.273 -0.208,-0.104 -0.221,-0.155 -0.039,-0.155 0.13,-0.027 0.377,-0.053 0.741,-0.079 z"
   id="path739"
   inkscape:connector-curvature="0" />
	<path
   style="clip-rule:evenodd;fill:#fff0a6;fill-rule:evenodd"
   d="m 28.753,23.294 c 0.338,0.026 0.481,0.104 0.429,0.234 -0.026,0.078 -0.143,0.208 -0.351,0.39 -0.078,0.104 -0.117,0.143 -0.117,0.117 0.026,-0.078 0,-0.13 -0.078,-0.156 -0.182,-0.156 -0.351,-0.299 -0.507,-0.429 -0.234,-0.156 -0.026,-0.208 0.624,-0.156 z"
   id="path741"
   inkscape:connector-curvature="0" />
	<path
   style="clip-rule:evenodd;fill:#cfa146;fill-rule:evenodd"
   d="m 47.317,23.255 1.365,2.613 c -0.443,0.857 -0.963,1.481 -1.561,1.872 -0.364,0.233 -0.702,0.416 -1.015,0.546 l -0.351,0.117 c -0.65,0.468 -1.364,0.728 -2.145,0.779 l -1.17,0.117 c -0.572,-0.26 -1.027,-0.39 -1.365,-0.39 h -0.469 c -0.26,0.702 -0.649,0.987 -1.17,0.857 -0.312,-0.078 -0.623,-0.233 -0.936,-0.468 l -0.351,-0.313 c -0.572,0.729 -1.248,1.093 -2.028,1.093 h -1.17 c -0.91,-0.468 -1.495,-0.663 -1.755,-0.585 -0.78,0.441 -1.274,0.598 -1.482,0.468 -0.156,-0.104 -0.338,-0.325 -0.546,-0.663 -0.234,-0.364 -0.312,-0.559 -0.234,-0.585 -0.052,-0.182 -0.078,-0.377 -0.078,-0.585 0,-0.39 0.091,-0.624 0.273,-0.702 l 0.507,-0.194 c -0.104,-0.104 -0.208,-0.234 -0.312,-0.391 -0.182,-0.286 -0.208,-0.507 -0.078,-0.663 l 0.273,-0.39 c -0.13,-0.104 -0.234,-0.247 -0.312,-0.429 -0.156,-0.339 -0.052,-0.625 0.312,-0.858 0.598,-0.39 1.053,-0.585 1.365,-0.585 0.026,-0.208 0.052,-0.43 0.078,-0.663 0.104,-0.468 0.208,-0.767 0.313,-0.896 0.207,-0.183 0.715,-0.248 1.521,-0.195 1.196,-0.26 1.807,-0.455 1.833,-0.585 0.078,-0.208 0.221,-0.391 0.429,-0.546 0.338,-0.208 0.677,-0.234 1.015,-0.078 0.571,0.286 0.936,0.533 1.092,0.741 l 0.195,-0.117 c 0.233,-0.078 0.559,-0.065 0.975,0.039 0.702,0.182 1.196,0.441 1.481,0.779 l 0.547,-0.429 c 0.39,-0.26 0.676,-0.351 0.858,-0.272 0.337,0.13 0.727,0.351 1.17,0.663 l 0.585,-0.234 c 0.441,-0.104 0.806,-0.052 1.091,0.156 0.444,0.313 0.861,0.638 1.25,0.976 z"
   id="path743"
   inkscape:connector-curvature="0" />
	<path
   style="clip-rule:evenodd;fill:#ffe191;fill-rule:evenodd"
   d="m 33.862,24.464 c 0.155,0.078 0.233,0.13 0.233,0.156 0.026,0.025 -0.013,0.064 -0.117,0.116 -0.494,0.364 -0.884,0.611 -1.17,0.741 -0.208,0.078 -0.39,0.078 -0.545,0 -0.234,-0.155 -0.429,-0.285 -0.585,-0.39 -0.104,0 -0.208,-0.025 -0.312,-0.078 -0.156,-0.078 -0.156,-0.182 0,-0.312 0.26,-0.183 0.767,-0.442 1.521,-0.78 z"
   id="path745"
   inkscape:connector-curvature="0" />
	<path
   style="clip-rule:evenodd;fill:#ffe191;fill-rule:evenodd"
   d="m 31.522,25.79 0.936,0.468 c 0.286,0.104 0.377,0.273 0.273,0.507 h -0.585 l -0.975,-0.194 c 0,-0.078 0.013,-0.17 0.039,-0.273 0.052,-0.235 0.156,-0.404 0.312,-0.508 z"
   id="path747"
   inkscape:connector-curvature="0" />
	<path
   style="clip-rule:evenodd;fill:#ffe191;fill-rule:evenodd"
   d="m 31.639,27.233 1.092,0.74 -0.195,0.234 c -0.442,0.104 -0.78,0.104 -1.014,0 -0.156,-0.052 -0.299,-0.182 -0.429,-0.39 l -0.195,-0.273 z"
   id="path749"
   inkscape:connector-curvature="0" />
	<path
   style="clip-rule:evenodd;fill:#ffe191;fill-rule:evenodd"
   d="m 35.617,24.814 c 1.248,0.208 1.807,0.416 1.677,0.624 -0.052,0.104 -0.104,0.156 -0.156,0.156 -0.13,0 -0.312,0.039 -0.546,0.117 -0.26,0.13 -0.546,0.156 -0.858,0.078 -0.312,-0.104 -0.545,-0.169 -0.701,-0.195 -0.208,-0.052 -0.234,-0.156 -0.078,-0.312 0.129,-0.155 0.35,-0.311 0.662,-0.468 z"
   id="path751"
   inkscape:connector-curvature="0" />
	<path
   style="clip-rule:evenodd;fill:#ffe191;fill-rule:evenodd"
   d="m 35.227,22.787 c 0.521,0.025 1.015,0.13 1.482,0.312 0.416,0.183 0.624,0.325 0.624,0.43 0,0.155 -0.273,0.233 -0.819,0.233 l -1.677,-0.117 z"
   id="path753"
   inkscape:connector-curvature="0" />
	<path
   style="clip-rule:evenodd;fill:#ffe191;fill-rule:evenodd"
   d="m 33.277,22.358 c 0.233,-0.183 0.74,-0.248 1.521,-0.195 -0.078,0.233 -0.26,0.416 -0.546,0.546 -0.208,0.104 -0.455,0.091 -0.741,-0.039 -0.285,-0.105 -0.364,-0.208 -0.234,-0.312 z"
   id="path755"
   inkscape:connector-curvature="0" />
	<path
   style="clip-rule:evenodd;fill:#ffe191;fill-rule:evenodd"
   d="m 36.67,26.882 c 0.182,-0.052 0.39,0.039 0.624,0.273 0.208,0.233 0.313,0.402 0.313,0.507 0,0.052 -0.183,0.104 -0.547,0.156 -0.415,0.052 -0.715,0.091 -0.896,0.116 -0.312,0.026 -0.507,-0.169 -0.585,-0.585 -0.027,-0.129 0.337,-0.286 1.091,-0.467 z"
   id="path757"
   inkscape:connector-curvature="0" />
	<path
   style="clip-rule:evenodd;fill:#ffe191;fill-rule:evenodd"
   d="m 34.642,27.077 c 0.313,-0.026 0.391,0.104 0.234,0.39 -0.156,0.312 -0.364,0.468 -0.624,0.468 -0.416,0 -0.572,-0.116 -0.468,-0.351 0.052,-0.286 0.338,-0.455 0.858,-0.507 z"
   id="path759"
   inkscape:connector-curvature="0" />
	<path
   style="clip-rule:evenodd;fill:#ffe191;fill-rule:evenodd"
   d="m 40.023,25.244 c 0.209,0.052 0.469,0.143 0.78,0.272 0.338,0.156 0.494,0.261 0.468,0.313 -0.025,0.104 -0.246,0.221 -0.663,0.351 -0.338,0.104 -0.779,-0.091 -1.325,-0.585 -0.156,-0.13 -0.156,-0.233 0,-0.312 0.155,-0.078 0.403,-0.091 0.74,-0.039 z"
   id="path761"
   inkscape:connector-curvature="0" />
	<path
   style="clip-rule:evenodd;fill:#ffe191;fill-rule:evenodd"
   d="m 38.776,22.592 c 0.468,0.026 1.039,0.13 1.716,0.312 -0.026,0.183 -0.13,0.313 -0.313,0.391 -0.13,0.078 -0.351,0.091 -0.663,0.039 -0.39,-0.078 -0.676,-0.13 -0.857,-0.156 -0.26,-0.025 -0.338,-0.13 -0.234,-0.312 0.078,-0.183 0.195,-0.274 0.351,-0.274 z"
   id="path763"
   inkscape:connector-curvature="0" />
	<path
   style="clip-rule:evenodd;fill:#ffe191;fill-rule:evenodd"
   d="m 38.386,24.035 c 0.156,-0.026 0.403,0.013 0.741,0.116 0.364,0.104 0.481,0.195 0.352,0.273 -0.208,0.13 -0.729,0.195 -1.561,0.195 -0.312,0 -0.364,-0.078 -0.156,-0.234 0.156,-0.156 0.364,-0.272 0.624,-0.35 z"
   id="path765"
   inkscape:connector-curvature="0" />
	<path
   style="clip-rule:evenodd;fill:#ffe191;fill-rule:evenodd"
   d="m 39.438,26.843 c 0.183,0.026 0.364,0.221 0.547,0.585 0.182,0.338 0.233,0.546 0.155,0.624 -0.077,0.078 -0.325,0.144 -0.74,0.195 -0.416,0.052 -0.702,0.052 -0.858,0 -0.208,-0.052 -0.156,-0.455 0.156,-1.209 0.052,-0.208 0.299,-0.273 0.74,-0.195 z"
   id="path767"
   inkscape:connector-curvature="0" />
	<path
   style="clip-rule:evenodd;fill:#ffe191;fill-rule:evenodd"
   d="m 42.013,26.882 c 0.261,0.025 0.494,0.117 0.702,0.273 0.234,0.156 0.325,0.299 0.272,0.429 -0.052,0.104 -0.129,0.182 -0.233,0.234 -0.104,0.052 -0.195,0.091 -0.272,0.116 -0.079,0.078 -0.3,0.053 -0.664,-0.078 -0.312,-0.13 -0.546,-0.26 -0.701,-0.39 -0.156,-0.13 -0.144,-0.26 0.039,-0.39 0.207,-0.155 0.493,-0.221 0.857,-0.194 z"
   id="path769"
   inkscape:connector-curvature="0" />
	<path
   style="clip-rule:evenodd;fill:#ffe191;fill-rule:evenodd"
   d="m 42.676,25.166 c 1.118,0.416 1.573,0.715 1.365,0.896 -0.233,0.208 -0.663,0.286 -1.287,0.234 -0.234,-0.026 -0.403,-0.117 -0.507,-0.273 -0.104,-0.182 -0.182,-0.312 -0.234,-0.39 -0.052,-0.104 0,-0.208 0.156,-0.312 0.13,-0.077 0.299,-0.129 0.507,-0.155 z"
   id="path771"
   inkscape:connector-curvature="0" />
	<path
   style="clip-rule:evenodd;fill:#ffe191;fill-rule:evenodd"
   d="m 41.233,23.723 c 0.312,-0.025 0.598,0.039 0.857,0.195 0.234,0.156 0.273,0.273 0.117,0.351 l -0.78,0.43 c -0.13,0.052 -0.26,0.013 -0.39,-0.117 -0.13,-0.208 -0.247,-0.352 -0.352,-0.43 -0.206,-0.208 -0.024,-0.351 0.548,-0.429 z"
   id="path773"
   inkscape:connector-curvature="0" />
	<path
   style="clip-rule:evenodd;fill:#ffe191;fill-rule:evenodd"
   d="m 46.107,24.62 c 0.364,0.025 0.508,0.156 0.43,0.39 -0.026,0.104 -0.169,0.299 -0.43,0.585 -0.104,0.156 -0.208,0.195 -0.312,0.117 -0.104,-0.13 -0.208,-0.234 -0.313,-0.313 -0.182,-0.104 -0.194,-0.272 -0.038,-0.507 0.183,-0.207 0.404,-0.298 0.663,-0.272 z"
   id="path775"
   inkscape:connector-curvature="0" />
	<path
   style="clip-rule:evenodd;fill:#a87932;fill-rule:evenodd"
   d="m 47.668,24.893 c 0.286,-0.208 0.533,-0.156 0.741,0.156 0.156,0.208 0.246,0.48 0.273,0.819 0.025,0.208 -0.092,0.377 -0.352,0.507 -0.286,0.156 -0.469,0.247 -0.546,0.273 -0.078,0.052 -0.208,-0.104 -0.391,-0.469 l -0.272,-0.585 0.117,-0.233 c 0.105,-0.182 0.247,-0.339 0.43,-0.468 z"
   id="path777"
   inkscape:connector-curvature="0" />
	<path
   style="clip-rule:evenodd;fill:#a87932;fill-rule:evenodd"
   d="m 47.239,27.662 c -0.65,0.441 -1.145,0.688 -1.482,0.741 -0.234,0.052 -0.377,-0.078 -0.429,-0.391 -0.078,-0.338 -0.039,-0.559 0.117,-0.663 0.285,-0.286 0.662,-0.48 1.131,-0.585 0.285,-0.025 0.507,0.274 0.663,0.898 z"
   id="path779"
   inkscape:connector-curvature="0" />
	<path
   style="clip-rule:evenodd;fill:#a87932;fill-rule:evenodd"
   d="m 44.157,26.023 c 0.339,0.469 0.339,0.78 0,0.937 -0.415,0.182 -0.701,0.182 -0.857,0 l -0.546,-0.663 h 0.507 c 0.208,0 0.507,-0.091 0.896,-0.274 z"
   id="path781"
   inkscape:connector-curvature="0" />
	<path
   style="clip-rule:evenodd;fill:#a87932;fill-rule:evenodd"
   d="m 43.69,28.403 c 0.312,-0.026 0.467,0.078 0.467,0.312 0,0.208 -0.104,0.338 -0.312,0.39 -0.155,0.052 -0.338,0.065 -0.546,0.039 l -0.233,-0.039 0.194,-0.351 c 0.131,-0.234 0.274,-0.351 0.43,-0.351 z"
   id="path783"
   inkscape:connector-curvature="0" />
	<path
   style="clip-rule:evenodd;fill:#a87932;fill-rule:evenodd"
   d="m 44.978,25.517 c 0.077,-0.052 0.246,-0.052 0.506,0 0.234,0.078 0.391,0.169 0.469,0.273 0.052,0.104 0.039,0.182 -0.039,0.233 -0.26,0.183 -0.403,0.286 -0.43,0.313 -0.182,0.13 -0.324,0.169 -0.429,0.117 -0.104,-0.104 -0.221,-0.221 -0.351,-0.352 -0.183,-0.207 -0.091,-0.402 0.274,-0.584 z"
   id="path785"
   inkscape:connector-curvature="0" />
	<path
   style="clip-rule:evenodd;fill:#a87932;fill-rule:evenodd"
   d="m 46.849,23.177 c 0.183,0.156 0.208,0.338 0.079,0.546 -0.104,0.208 -0.261,0.338 -0.469,0.391 -0.13,0.052 -0.221,0 -0.272,-0.156 -0.026,-0.026 -0.066,-0.221 -0.118,-0.585 -0.052,-0.26 0,-0.416 0.156,-0.469 0.156,-0.052 0.364,0.039 0.624,0.273 z"
   id="path787"
   inkscape:connector-curvature="0" />
	<path
   style="clip-rule:evenodd;fill:#a87932;fill-rule:evenodd"
   d="m 42.208,24.151 c 0.208,-0.025 0.351,0.026 0.43,0.156 0.077,0.104 0.052,0.208 -0.079,0.313 -0.077,0.078 -0.299,0.143 -0.662,0.194 -0.313,0.026 -0.547,0.026 -0.703,0 -0.104,-0.025 0,-0.143 0.313,-0.351 0.285,-0.181 0.518,-0.285 0.701,-0.312 z"
   id="path789"
   inkscape:connector-curvature="0" />
	<path
   style="clip-rule:evenodd;fill:#a87932;fill-rule:evenodd"
   d="m 42.949,22.396 c 0.936,-0.182 0.975,0.273 0.117,1.365 -0.079,0.053 -0.183,-0.025 -0.313,-0.233 -0.156,-0.234 -0.234,-0.43 -0.234,-0.585 0.001,-0.286 0.144,-0.468 0.43,-0.547 z"
   id="path791"
   inkscape:connector-curvature="0" />
	<path
   style="clip-rule:evenodd;fill:#a87932;fill-rule:evenodd"
   d="m 41.662,22.865 c 0.26,-0.026 0.391,0.064 0.391,0.272 0,0.183 -0.092,0.325 -0.273,0.429 -0.156,0.131 -0.416,0.04 -0.78,-0.272 -0.13,-0.13 -0.13,-0.234 0,-0.313 0.13,-0.079 0.35,-0.116 0.662,-0.116 z"
   id="path793"
   inkscape:connector-curvature="0" />
	<path
   style="clip-rule:evenodd;fill:#a87932;fill-rule:evenodd"
   d="m 40.765,26.063 c 0.251,-0.039 0.42,-0.078 0.507,-0.116 l -0.038,0.585 c -0.026,0.26 -0.234,0.429 -0.625,0.507 -0.13,0.052 -0.221,-0.013 -0.272,-0.195 -0.026,-0.234 -0.065,-0.39 -0.117,-0.468 -0.053,-0.105 0.129,-0.209 0.545,-0.313 z"
   id="path795"
   inkscape:connector-curvature="0" />
	<path
   style="clip-rule:evenodd;fill:#a87932;fill-rule:evenodd"
   d="m 41.389,27.818 c 0.521,0.338 0.637,0.598 0.352,0.779 -0.183,0.104 -0.313,0.117 -0.391,0.039 -0.104,-0.155 -0.233,-0.286 -0.39,-0.39 -0.233,-0.183 -0.286,-0.325 -0.156,-0.429 0.13,-0.129 0.325,-0.129 0.585,0.001 z"
   id="path797"
   inkscape:connector-curvature="0" />
	<path
   style="clip-rule:evenodd;fill:#a87932;fill-rule:evenodd"
   d="m 46.459,25.283 c 0.078,-0.026 0.194,-0.065 0.351,-0.117 0.156,-0.078 0.234,-0.195 0.234,-0.352 -0.13,-0.701 -0.169,-1.117 -0.116,-1.248 0.025,-0.104 0.052,-0.182 0.077,-0.233 0.026,-0.078 0.091,-0.144 0.195,-0.195 l 0.117,0.117 1.365,2.613 c -0.443,0.857 -0.963,1.481 -1.561,1.872 -0.364,0.233 -0.702,0.416 -1.015,0.546 l -0.351,0.117 c -0.65,0.468 -1.364,0.728 -2.145,0.779 l -1.17,0.117 c -0.572,-0.26 -1.027,-0.39 -1.365,-0.39 h -0.469 c -0.26,0.702 -0.649,0.987 -1.17,0.857 -0.312,-0.078 -0.623,-0.233 -0.936,-0.468 l -0.351,-0.313 c -0.572,0.729 -1.248,1.093 -2.028,1.093 H 34.99 c 0.208,-0.286 0.52,-0.637 0.936,-1.053 0.676,-0.053 1.301,-0.247 1.872,-0.586 0.208,-0.052 0.352,-0.078 0.429,-0.078 0.078,0.026 0.234,0.118 0.469,0.273 0.546,0.286 0.987,0.286 1.325,0 0.078,-0.078 0.17,-0.182 0.273,-0.312 0.13,-0.078 0.39,-0.092 0.78,-0.039 0.312,0.025 0.585,0.091 0.819,0.195 0.156,0.025 0.402,-0.078 0.741,-0.313 0.26,-0.156 0.454,-0.351 0.585,-0.585 0.077,-0.13 0.208,-0.195 0.39,-0.195 0.104,0 0.233,0.039 0.39,0.117 0.052,0.026 0.208,-0.039 0.468,-0.194 0.442,-0.286 0.768,-0.469 0.976,-0.547 0.208,-0.13 0.363,-0.221 0.468,-0.272 l 0.039,-0.234 c 0.026,-0.156 0.091,-0.338 0.195,-0.546 0.131,-0.257 0.236,-0.4 0.314,-0.426 z"
   id="path799"
   inkscape:connector-curvature="0" />
	<path
   style="clip-rule:evenodd;fill:#bd881e;fill-rule:evenodd"
   d="m 19.354,23.488 c 0.338,-0.155 0.702,-0.299 1.092,-0.429 0.78,-0.286 1.326,-0.402 1.638,-0.351 0.286,0.026 0.416,0.156 0.39,0.39 0,0.104 -0.052,0.247 -0.156,0.43 -0.026,0.104 -0.13,0.194 -0.312,0.272 -0.182,0.104 -0.403,0.156 -0.663,0.156 l -2.145,-0.195 z"
   id="path801"
   inkscape:connector-curvature="0" />
	<path
   style="clip-rule:evenodd;fill:#bd881e;fill-rule:evenodd"
   d="m 24.736,24.932 1.56,-1.287 1.326,0.313 c -0.286,0.13 -0.533,0.286 -0.741,0.468 -0.156,0.183 -0.286,0.312 -0.39,0.39 -0.182,0.13 -0.39,0.208 -0.625,0.234 z"
   id="path803"
   inkscape:connector-curvature="0" />
	<path
   style="clip-rule:evenodd;fill:#bd881e;fill-rule:evenodd"
   d="m 31.093,18.965 0.936,-0.624 c 0.65,-0.39 1.079,-0.546 1.288,-0.468 0.363,0.13 0.61,0.312 0.74,0.546 l -0.233,0.039 c -0.598,0.26 -1.105,0.468 -1.521,0.624 -0.26,0.104 -0.533,0.117 -0.819,0.039 z"
   id="path805"
   inkscape:connector-curvature="0" />
	<path
   style="clip-rule:evenodd;fill:#8a6416;fill-rule:evenodd"
   d="m 30.859,26.023 0.897,-0.39 c 0.649,-0.26 1.156,-0.39 1.521,-0.39 0.441,0 0.818,0.064 1.131,0.194 0.312,0.104 0.455,0.234 0.429,0.391 -0.026,0.182 -0.351,0.507 -0.975,0.975 -0.313,-0.078 -0.702,-0.208 -1.17,-0.39 -0.364,-0.181 -0.975,-0.311 -1.833,-0.39 z"
   id="path807"
   inkscape:connector-curvature="0" />
	<path
   style="clip-rule:evenodd;fill:#8a6416;fill-rule:evenodd"
   d="m 35.071,22.085 1.17,-0.585 c 0.806,-0.364 1.3,-0.533 1.481,-0.507 0.286,0.078 0.702,0.286 1.248,0.624 -0.182,0.312 -0.468,0.468 -0.857,0.468 -0.208,0 -0.547,0.078 -1.015,0.233 -0.546,0.156 -0.896,0.247 -1.053,0.273 -0.234,0.052 -0.468,-0.013 -0.702,-0.195 z"
   id="path809"
   inkscape:connector-curvature="0" />
	<path
   style="clip-rule:evenodd;fill:#7d4e1e;fill-rule:evenodd"
   d="m 41.701,22.553 c 0,-0.676 -0.026,-1.118 -0.078,-1.326 l -0.352,-0.585 0.508,0.117 c 0.338,0.104 0.559,0.247 0.663,0.429 0.155,0.338 0.221,0.729 0.195,1.171 z"
   id="path811"
   inkscape:connector-curvature="0" />
	<path
   style="clip-rule:evenodd;fill:#915922;fill-rule:evenodd"
   d="m 19.198,23.762 c -0.078,-0.26 -0.117,-0.676 -0.117,-1.248 0,-0.155 0.117,-0.272 0.351,-0.351 0.26,-0.104 0.403,-0.169 0.429,-0.195 0.078,-0.052 0.286,-0.013 0.624,0.117 0.156,0.052 0.312,0.117 0.468,0.195 l 0.585,1.442 z"
   id="path813"
   inkscape:connector-curvature="0" />
	<path
   style="clip-rule:evenodd;fill:#7d4e1e;fill-rule:evenodd"
   d="m 21.499,23.723 c -0.364,-0.649 -0.676,-1.092 -0.936,-1.326 -0.156,-0.104 -0.429,-0.155 -0.819,-0.155 l -0.545,0.039 c 0.13,-0.104 0.286,-0.195 0.468,-0.273 0.338,-0.208 0.598,-0.312 0.78,-0.312 0.208,0 0.533,0.143 0.975,0.429 0.39,0.286 0.611,0.48 0.663,0.585 0.025,0.129 -0.17,0.467 -0.586,1.013 z"
   id="path815"
   inkscape:connector-curvature="0" />
	<path
   style="clip-rule:evenodd;fill:#915922;fill-rule:evenodd"
   d="m 26.647,28.169 c 0.052,0.182 0.039,0.364 -0.039,0.546 -0.13,0.233 -0.312,0.3 -0.546,0.195 -0.312,-0.13 -0.702,-0.261 -1.17,-0.391 -0.468,-0.13 -0.715,-0.194 -0.741,-0.194 -0.052,-0.053 -0.104,-0.273 -0.156,-0.663 -0.026,-0.391 -0.052,-0.611 -0.078,-0.663 -0.182,-0.364 0.013,-0.546 0.585,-0.546 0.988,0 1.521,0.052 1.599,0.155 0.026,0.027 0.208,0.547 0.546,1.561 z"
   id="path817"
   inkscape:connector-curvature="0" />
	<path
   style="clip-rule:evenodd;fill:#7d4e1e;fill-rule:evenodd"
   d="m 28.051,27.467 c 0,0.182 0.026,0.352 0.078,0.507 -0.442,0.313 -0.793,0.533 -1.053,0.663 -0.313,0.156 -0.507,0.26 -0.585,0.312 -0.156,0.053 -0.234,0.039 -0.234,-0.038 v -0.547 c 0,-0.52 -0.026,-0.884 -0.078,-1.092 l -0.078,-0.663 0.78,-0.39 c 0.441,-0.208 0.793,-0.338 1.052,-0.39 z"
   id="path819"
   inkscape:connector-curvature="0" />
	<path
   style="clip-rule:evenodd;fill:#b36f2b;fill-rule:evenodd"
   d="m 26.101,26.608 h -2.184 c 0.078,-0.077 0.169,-0.168 0.273,-0.272 0.182,-0.208 0.351,-0.351 0.507,-0.429 0.208,-0.078 0.494,-0.183 0.858,-0.313 l 2.301,0.273 z"
   id="path821"
   inkscape:connector-curvature="0" />
	<path
   style="clip-rule:evenodd;fill:#b36f2b;fill-rule:evenodd"
   d="m 25.165,22.124 c 0.884,0.026 1.43,0.156 1.638,0.39 0.156,0.156 0.13,0.313 -0.078,0.468 l -1.053,0.78 -1.95,-0.818 c -0.156,-0.104 0,-0.273 0.468,-0.507 0.286,-0.209 0.611,-0.313 0.975,-0.313 z"
   id="path823"
   inkscape:connector-curvature="0" />
	<path
   style="clip-rule:evenodd;fill:#7d4e1e;fill-rule:evenodd"
   d="m 26.92,23.879 c -0.416,0.338 -0.676,0.572 -0.78,0.702 -0.104,0.13 -0.208,0.208 -0.312,0.233 -0.13,-0.39 -0.195,-0.663 -0.195,-0.818 v -0.273 l 0.78,-0.585 c 0.182,-0.13 0.325,-0.338 0.429,-0.624 l 0.117,0.819 c 0.026,0.155 0.013,0.338 -0.039,0.546 z"
   id="path825"
   inkscape:connector-curvature="0" />
	<path
   style="clip-rule:evenodd;fill:#915922;fill-rule:evenodd"
   d="m 23.917,23.957 c 0,-0.026 -0.026,-0.169 -0.078,-0.429 l -0.117,-0.585 1.521,0.585 0.39,0.194 0.195,0.702 v 0.39 c -0.728,0.391 -1.092,0.43 -1.092,0.117 0.026,-0.26 -0.104,-0.494 -0.39,-0.702 z"
   id="path827"
   inkscape:connector-curvature="0" />
	<path
   style="clip-rule:evenodd;fill:#b36f2b;fill-rule:evenodd"
   d="m 37.099,28.441 c 0.78,0.026 1.04,0.208 0.78,0.546 -0.182,0.208 -0.507,0.417 -0.975,0.625 -0.234,0.104 -0.638,0.091 -1.209,-0.04 -0.599,-0.129 -0.962,-0.208 -1.092,-0.233 -0.131,-0.026 -0.104,-0.13 0.077,-0.312 0.208,-0.234 0.313,-0.378 0.313,-0.43 0,-0.156 0.702,-0.207 2.106,-0.156 z"
   id="path829"
   inkscape:connector-curvature="0" />
	<path
   style="clip-rule:evenodd;fill:#915922;fill-rule:evenodd"
   d="m 34.486,29.3 2.145,0.313 0.117,0.936 c 0,0.104 -0.039,0.182 -0.117,0.234 -0.104,0.025 -0.208,-0.013 -0.313,-0.117 -0.13,-0.131 -0.337,-0.221 -0.623,-0.272 -0.416,-0.079 -0.638,-0.118 -0.663,-0.118 -0.026,-0.025 -0.144,-0.077 -0.352,-0.155 -0.104,-0.026 -0.155,-0.078 -0.155,-0.156 z"
   id="path831"
   inkscape:connector-curvature="0" />
	<path
   style="clip-rule:evenodd;fill:#7d4e1e;fill-rule:evenodd"
   d="m 38.074,29.885 c -0.052,0.13 -0.156,0.221 -0.313,0.272 -0.233,0.079 -0.377,0.144 -0.429,0.195 l -0.819,0.39 v -0.623 l 0.117,-0.507 0.663,-0.313 0.313,-0.272 0.312,-0.391 0.117,0.468 c 0.078,0.339 0.091,0.599 0.039,0.781 z"
   id="path833"
   inkscape:connector-curvature="0" />
	<path
   style="clip-rule:evenodd;fill:#b36f2b;fill-rule:evenodd"
   d="m 36.631,19.667 c 0.858,0.364 1.482,0.78 1.872,1.248 l -0.429,0.039 c -0.26,0.026 -1.015,0.169 -2.263,0.429 -0.39,0.052 -0.649,-0.065 -0.779,-0.351 -0.13,-0.416 -0.286,-0.768 -0.469,-1.054 -0.26,-0.363 -0.077,-0.559 0.547,-0.585 0.546,-0.025 1.053,0.066 1.521,0.274 z"
   id="path835"
   inkscape:connector-curvature="0" />
	<path
   style="clip-rule:evenodd;fill:#915922;fill-rule:evenodd"
   d="m 34.525,19.55 0.701,1.638 -0.155,0.897 c 0,0.104 -0.091,0.065 -0.273,-0.117 l -0.546,-1.092 c 0.025,-0.234 0.039,-0.429 0.039,-0.585 z"
   id="path837"
   inkscape:connector-curvature="0" />
	<path
   style="clip-rule:evenodd;fill:#7d4e1e;fill-rule:evenodd"
   d="m 35.539,22.163 c -0.182,0.078 -0.313,0.091 -0.391,0.039 l -0.077,-0.117 0.155,-0.897 h 0.585 c 0.208,0.053 0.689,-0.025 1.443,-0.233 0.442,-0.052 0.858,-0.065 1.248,-0.039 l -0.078,0.429 -1.092,0.43 c -0.909,0.154 -1.507,0.284 -1.793,0.388 z"
   id="path839"
   inkscape:connector-curvature="0" />
	<path
   style="clip-rule:evenodd;fill:#915922;fill-rule:evenodd"
   d="m 43.924,23.138 c 0.677,0.234 0.962,0.533 0.858,0.897 -0.026,0.13 -0.208,0.351 -0.546,0.663 -0.104,0.13 -0.261,0.13 -0.469,0 -0.285,-0.183 -0.493,-0.313 -0.624,-0.391 -0.26,-0.13 -0.39,-0.585 -0.39,-1.364 0,-0.183 0.117,-0.234 0.351,-0.156 0.157,0.052 0.43,0.169 0.82,0.351 z"
   id="path841"
   inkscape:connector-curvature="0" />
	<path
   style="clip-rule:evenodd;fill:#b36f2b;fill-rule:evenodd"
   d="m 43.808,23.488 -1.015,-0.74 0.273,-0.234 c 0.233,-0.13 0.468,-0.208 0.701,-0.233 0.521,-0.078 0.91,0.013 1.17,0.272 l 0.976,0.897 -1.209,0.39 c -0.13,0.026 -0.429,-0.091 -0.896,-0.352 z"
   id="path843"
   inkscape:connector-curvature="0" />
	<path
   style="clip-rule:evenodd;fill:#7d4e1e;fill-rule:evenodd"
   d="m 44.236,24.698 0.468,-0.858 0.468,-0.195 c 0.338,-0.13 0.585,-0.194 0.741,-0.194 0.234,0 0.194,0.208 -0.117,0.624 l -0.194,0.155 c -1.041,0.624 -1.497,0.78 -1.366,0.468 z"
   id="path845"
   inkscape:connector-curvature="0" />
	<path
   style="clip-rule:evenodd;fill:#915922;fill-rule:evenodd"
   d="m 41.233,20.642 c 0.182,0 0.324,0.247 0.429,0.741 0.104,0.391 0.155,0.728 0.155,1.014 0,0.234 -0.39,0.222 -1.169,-0.038 -0.339,-0.183 -0.611,-0.378 -0.819,-0.585 0.13,-0.286 0.351,-0.547 0.663,-0.78 0.286,-0.235 0.533,-0.352 0.741,-0.352 z"
   id="path847"
   inkscape:connector-curvature="0" />
	<path
   style="clip-rule:evenodd;fill:#b36f2b;fill-rule:evenodd"
   d="m 30.586,15.65 c 0.988,0 1.781,0.143 2.379,0.429 0.313,0.13 0.52,0.26 0.624,0.39 l -1.638,0.468 c -0.65,0.286 -1.326,0.247 -2.028,-0.117 l -1.326,-0.78 0.585,-0.195 c 0.494,-0.13 0.962,-0.195 1.404,-0.195 z"
   id="path849"
   inkscape:connector-curvature="0" />
	<path
   style="clip-rule:evenodd;fill:#b36f2b;fill-rule:evenodd"
   d="m 33.589,23.606 c 0.313,0.025 0.247,0.363 -0.195,1.014 -0.104,0.13 -0.571,0.194 -1.404,0.194 -0.988,0 -1.664,-0.078 -2.028,-0.233 -0.13,-0.078 -0.013,-0.273 0.351,-0.585 0.156,-0.156 0.338,-0.299 0.546,-0.43 l 0.195,-0.078 c 0.208,-0.052 0.455,-0.064 0.741,-0.038 0.65,0 1.248,0.052 1.794,0.156 z"
   id="path851"
   inkscape:connector-curvature="0" />
	<path
   style="clip-rule:evenodd;fill:#915922;fill-rule:evenodd"
   d="m 29.923,16.547 c 0.364,0.182 0.793,0.338 1.287,0.468 l 0.117,1.599 c 0.026,0.183 -0.013,0.286 -0.117,0.313 -0.104,0.027 -0.208,0 -0.312,-0.078 -0.65,-0.312 -1.209,-0.61 -1.677,-0.896 -0.338,-0.234 -0.533,-0.377 -0.585,-0.43 -0.052,-0.052 -0.078,-0.155 -0.078,-0.312 l 0.039,-1.17 z"
   id="path853"
   inkscape:connector-curvature="0" />
	<path
   style="clip-rule:evenodd;fill:#915922;fill-rule:evenodd"
   d="M 33.433,26.453 30.82,26.14 c -0.442,-0.312 -0.689,-0.624 -0.741,-0.936 l -0.117,-0.78 c 0.26,0.156 1.352,0.234 3.276,0.234 0.182,0.027 0.246,0.625 0.195,1.795 z"
   id="path855"
   inkscape:connector-curvature="0" />
	<path
   style="clip-rule:evenodd;fill:#7d4e1e;fill-rule:evenodd"
   d="m 33.628,18.028 c -0.052,0.234 -0.221,0.352 -0.507,0.352 -0.156,0 -0.468,0.091 -0.936,0.273 -0.494,0.208 -0.767,0.312 -0.819,0.312 h -0.273 c 0.078,-0.754 0.104,-1.248 0.078,-1.481 l 0.039,-0.469 1.131,-0.39 c 0.337,-0.156 0.753,-0.208 1.248,-0.156 z"
   id="path857"
   inkscape:connector-curvature="0" />
	<path
   style="clip-rule:evenodd;fill:#7d4e1e;fill-rule:evenodd"
   d="m 33.238,24.659 0.078,-0.156 0.272,-0.896 0.195,0.194 c 0.13,0.156 0.208,0.325 0.233,0.507 l 0.078,1.17 -0.663,0.976 c -0.104,-0.261 -0.169,-0.533 -0.194,-0.819 v -0.976 z"
   id="path859"
   inkscape:connector-curvature="0" />
</g>



</svg>