<?xml version="1.0" encoding="UTF-8" standalone="no"?>
<!-- Generator: Adobe Illustrator 15.1.0, SVG Export Plug-In . SVG Version: 6.00 Build 0)  -->

<svg
   xmlns:dc="http://purl.org/dc/elements/1.1/"
   xmlns:cc="http://creativecommons.org/ns#"
   xmlns:rdf="http://www.w3.org/1999/02/22-rdf-syntax-ns#"
   xmlns:svg="http://www.w3.org/2000/svg"
   xmlns="http://www.w3.org/2000/svg"
   xmlns:xlink="http://www.w3.org/1999/xlink"
   xmlns:sodipodi="http://sodipodi.sourceforge.net/DTD/sodipodi-0.dtd"
   xmlns:inkscape="http://www.inkscape.org/namespaces/inkscape"
   version="1.1"
   id="flash0.ai"
   x="0px"
   y="0px"
   width="256"
   height="256"
   viewBox="0 0 256.00001 256"
   xml:space="preserve"
   sodipodi:docname="gruel_01.svg"
   inkscape:version="0.92.4 (5da689c313, 2019-01-14)"><title
   id="title1058">Gruel</title><metadata
   id="metadata251"><rdf:RDF><cc:Work
       rdf:about=""><dc:format>image/svg+xml</dc:format><dc:type
         rdf:resource="http://purl.org/dc/dcmitype/StillImage" /><dc:title>Gruel</dc:title><cc:license
         rdf:resource="http://creativecommons.org/publicdomain/zero/1.0/" /><dc:creator><cc:Agent><dc:title>Glitch</dc:title></cc:Agent></dc:creator><dc:source>https://opengameart.org/node/20149</dc:source></cc:Work><cc:License
       rdf:about="http://creativecommons.org/publicdomain/zero/1.0/"><cc:permits
         rdf:resource="http://creativecommons.org/ns#Reproduction" /><cc:permits
         rdf:resource="http://creativecommons.org/ns#Distribution" /><cc:permits
         rdf:resource="http://creativecommons.org/ns#DerivativeWorks" /></cc:License></rdf:RDF></metadata><defs
   id="defs249"><linearGradient
     inkscape:collect="always"
     xlink:href="#SVGID_1_"
     id="linearGradient1164"
     gradientUnits="userSpaceOnUse"
     x1="-0.024900001"
     y1="-1.4751"
     x2="4.3252001"
     y2="-1.4751" /><linearGradient
     inkscape:collect="always"
     xlink:href="#SVGID_2_"
     id="linearGradient1166"
     gradientUnits="userSpaceOnUse"
     x1="0"
     y1="-1.5498"
     x2="4.5"
     y2="-1.5498" /><linearGradient
     inkscape:collect="always"
     xlink:href="#SVGID_3_"
     id="linearGradient1168"
     gradientUnits="userSpaceOnUse"
     x1="0.0127"
     y1="-1.125"
     x2="3.0876999"
     y2="-1.125" /><linearGradient
     inkscape:collect="always"
     xlink:href="#SVGID_4_"
     id="linearGradient1170"
     gradientUnits="userSpaceOnUse"
     x1="-0.0127"
     y1="-1.375"
     x2="3.8123"
     y2="-1.375" /><linearGradient
     inkscape:collect="always"
     xlink:href="#SVGID_5_"
     id="linearGradient1172"
     gradientUnits="userSpaceOnUse"
     gradientTransform="matrix(1,-0.0034,0.0034,1,28.1753,28.0781)"
     x1="-24.8174"
     y1="-34.920399"
     x2="-10.2923"
     y2="-34.920399" /></defs><sodipodi:namedview
   pagecolor="#ffffff"
   bordercolor="#666666"
   borderopacity="1"
   objecttolerance="10"
   gridtolerance="10"
   guidetolerance="10"
   inkscape:pageopacity="0"
   inkscape:pageshadow="2"
   inkscape:window-width="1920"
   inkscape:window-height="1025"
   id="namedview247"
   showgrid="false"
   inkscape:zoom="1.4658385"
   inkscape:cx="116.36123"
   inkscape:cy="-10.885169"
   inkscape:window-x="-8"
   inkscape:window-y="-8"
   inkscape:window-maximized="1"
   inkscape:current-layer="flash0.ai"
   fit-margin-top="0"
   fit-margin-left="0"
   fit-margin-right="0"
   fit-margin-bottom="0" />
<symbol
   id="flash0.ai_x5F_8_x2F_Layer_7_x2F__x3C_Path_x3E__x5F_16"
   viewBox="0 -2.95 4.35 2.95"
   transform="translate(0,229.54901)">
	<g
   id="Layer_1_10_">
		<linearGradient
   id="SVGID_1_"
   gradientUnits="userSpaceOnUse"
   x1="-0.024900001"
   y1="-1.4751"
   x2="4.3252001"
   y2="-1.4751">
			<stop
   offset="0"
   style="stop-color:#FFFCED"
   id="stop2" />
			<stop
   offset="1"
   style="stop-color:#E3D998"
   id="stop4" />
		</linearGradient>
		<path
   style="clip-rule:evenodd;fill:url(#linearGradient1164);fill-rule:evenodd"
   d="m 0,-2.25 c 0.067,0.633 0.3,1.167 0.7,1.6 C 1.133,-0.217 1.633,0 2.2,0 c 0.533,0 1,-0.183 1.4,-0.55 0.4,-0.367 0.65,-0.833 0.75,-1.4 -0.5,-0.667 -1.267,-1 -2.3,-1 -0.767,0 -1.45,0.233 -2.05,0.7 z"
   id="path7"
   inkscape:connector-curvature="0" />
	</g>
</symbol>
<symbol
   id="flash0.ai_x5F_8_x2F_Layer_7_x2F__x3C_Path_x3E__x5F_22"
   viewBox="0 -3.1 4.5 3.1"
   transform="translate(0,229.54901)">
	<g
   id="Layer_1_9_">
		<linearGradient
   id="SVGID_2_"
   gradientUnits="userSpaceOnUse"
   x1="0"
   y1="-1.5498"
   x2="4.5"
   y2="-1.5498">
			<stop
   offset="0"
   style="stop-color:#FFFCED"
   id="stop11" />
			<stop
   offset="1"
   style="stop-color:#E3D998"
   id="stop13" />
		</linearGradient>
		<path
   style="clip-rule:evenodd;fill:url(#linearGradient1166);fill-rule:evenodd"
   d="M 0,-2.35 C 0.067,-1.717 0.317,-1.167 0.75,-0.7 1.183,-0.233 1.683,0 2.25,0 2.783,0 3.267,-0.2 3.7,-0.6 4.133,-1 4.4,-1.5 4.5,-2.1 4,-2.767 3.2,-3.1 2.1,-3.1 1.267,-3.1 0.567,-2.85 0,-2.35 Z"
   id="path16"
   inkscape:connector-curvature="0" />
	</g>
</symbol>
<symbol
   id="flash0.ai_x5F_8_x2F_Layer_7_x2F__x3C_Path_x3E__x5F_23"
   viewBox="-0.002 -11.143 31.002 11.178"
   transform="translate(0,229.54901)">
	<g
   id="Layer_1_8_">
		<path
   style="clip-rule:evenodd;fill:#ff5c2b;fill-rule:evenodd"
   d="m 28.25,-5.7 c 0.567,0.4 1.15,0.667 1.75,0.8 0.667,0.133 1,-0.017 1,-0.45 0,-0.367 -0.317,-0.783 -0.95,-1.25 -0.8,-0.6 -1.3,-1.066 -1.5,-1.4 -0.3,-0.5 -0.05,-0.817 0.75,-0.95 0.4,-0.066 0.833,-0.083 1.3,-0.05 -0.967,-0.667 -2,-0.85 -3.1,-0.55 -0.7,0.2 -0.567,0.867 0.4,2 0.5,0.566 1.05,1.117 1.65,1.65 -1.1,-0.6 -1.783,-1 -2.05,-1.2 -1.933,-1.2 -3.233,-2 -3.9,-2.4 -1.2,-0.7 -2.367,-1.183 -3.5,-1.45 -1.233,-0.3 -2.05,-0.25 -2.45,0.15 -0.367,0.333 -0.033,1.2 1,2.6 0.833,1.1 1.633,1.983 2.4,2.65 0.7,0.6 1.717,1.667 3.05,3.2 C 22.933,-2.583 21.817,-3 20.75,-3.6 20.183,-3.933 19.383,-4.517 18.35,-5.35 17.083,-6.383 16.067,-7.166 15.3,-7.7 c -1.433,-1.033 -2.883,-1.867 -4.35,-2.5 -1.733,-0.733 -3.017,-0.95 -3.85,-0.65 -1,0.367 -0.517,1.35 1.45,2.95 0.367,0.267 1.783,1.233 4.25,2.9 2.434,1.6 3.767,2.517 4,2.75 0.367,0.3 0.65,0.633 0.85,1 0.167,0.367 0.133,0.533 -0.1,0.5 C 16.783,-0.783 15.433,-1.333 13.5,-2.4 11.333,-3.667 9.85,-4.5 9.05,-4.9 7.75,-5.567 6.133,-6.233 4.2,-6.9 2,-7.667 0.717,-7.933 0.35,-7.7 c -0.6,0.4 -0.434,1.083 0.5,2.05 1.367,1.1 2.283,1.933 2.75,2.5 0.667,0.733 1.566,1.3 2.7,1.7 1.034,0.367 1.717,0.434 2.05,0.2 -0.667,0.1 -1.6,-0.2 -2.8,-0.9 -1.267,-0.7 -2.4,-1.983 -3.4,-3.85 2.6,0.6 4.517,1.2 5.75,1.8 0.6,0.3 1.767,0.9 3.5,1.8 1.633,0.833 2.867,1.4 3.7,1.7 1.066,0.367 1.983,0.6 2.75,0.7 0.8,0.1 1.183,-0.017 1.15,-0.35 -0.033,-0.767 -1.317,-2.133 -3.85,-4.1 -3.4,-2.367 -5.533,-3.9 -6.4,-4.6 -0.567,-0.5 -0.483,-0.7 0.25,-0.6 0.633,0.066 1.2,0.217 1.7,0.45 1.133,0.633 2.5,1.517 4.1,2.65 0.867,0.667 2.05,1.566 3.55,2.7 1,0.733 2.233,1.35 3.7,1.85 1.467,0.5 2.45,0.667 2.95,0.5 0.9,-0.333 0.283,-1.5 -1.85,-3.5 -0.767,-0.7 -1.533,-1.567 -2.3,-2.6 -0.6,-0.833 -0.967,-1.4 -1.1,-1.7 -0.1,-0.2 0.167,-0.267 0.8,-0.2 0.667,0.033 1.233,0.217 1.7,0.55 0.333,0.233 1.333,0.767 3,1.6 1.667,0.833 2.667,1.383 3,1.65 z"
   id="path20"
   inkscape:connector-curvature="0" />
	</g>
</symbol>
<symbol
   id="flash0.ai_x5F_8_x2F_Layer_7_x2F__x3C_Path_x3E__x5F_47"
   viewBox="0 -2.25 3.1 2.25"
   transform="translate(0,229.54901)">
	<g
   id="Layer_1_7_">
		<linearGradient
   id="SVGID_3_"
   gradientUnits="userSpaceOnUse"
   x1="0.0127"
   y1="-1.125"
   x2="3.0876999"
   y2="-1.125">
			<stop
   offset="0"
   style="stop-color:#FFFCED"
   id="stop24" />
			<stop
   offset="1"
   style="stop-color:#E3D998"
   id="stop26" />
		</linearGradient>
		<path
   style="clip-rule:evenodd;fill:url(#linearGradient1168);fill-rule:evenodd"
   d="m 0,-1.7 c 0.067,0.467 0.233,0.867 0.5,1.2 0.3,0.333 0.65,0.5 1.05,0.5 0.367,0 0.7,-0.15 1,-0.45 C 2.85,-0.717 3.033,-1.067 3.1,-1.5 2.7,-2 2.15,-2.25 1.45,-2.25 0.917,-2.25 0.433,-2.067 0,-1.7 Z"
   id="path29"
   inkscape:connector-curvature="0" />
	</g>
</symbol>
<symbol
   id="flash0.ai_x5F_8_x2F_Layer_7_x2F__x3C_Path_x3E__x5F_58"
   viewBox="0 -2.75 3.8 2.75"
   transform="translate(0,229.54901)">
	<g
   id="Layer_1_6_">
		<linearGradient
   id="SVGID_4_"
   gradientUnits="userSpaceOnUse"
   x1="-0.0127"
   y1="-1.375"
   x2="3.8123"
   y2="-1.375">
			<stop
   offset="0"
   style="stop-color:#FFFCED"
   id="stop33" />
			<stop
   offset="1"
   style="stop-color:#E3D998"
   id="stop35" />
		</linearGradient>
		<path
   style="clip-rule:evenodd;fill:url(#linearGradient1170);fill-rule:evenodd"
   d="M 0,-2.1 C 0.033,-1.5 0.233,-1 0.6,-0.6 0.967,-0.2 1.4,0 1.9,0 2.367,0 2.783,-0.183 3.15,-0.55 3.483,-0.883 3.7,-1.317 3.8,-1.85 c -0.433,-0.6 -1.1,-0.9 -2,-0.9 -0.767,0 -1.367,0.217 -1.8,0.65 z"
   id="path38"
   inkscape:connector-curvature="0" />
	</g>
</symbol>
<symbol
   id="flash0.ai_x5F_8_x2F_Layer_7_x2F__x3C_Path_x3E__x5F_59"
   viewBox="0 -11 38.7 10.955"
   transform="translate(0,229.54901)">
	<g
   id="Layer_1_5_">
		<path
   style="clip-rule:evenodd;fill-rule:evenodd"
   d="m 32.15,-2.05 c 4.367,-1.667 6.55,-3.333 6.55,-5 0,-1.2 -0.333,-2.083 -1,-2.65 h -0.55 c 0.667,1.233 0.817,2.2 0.45,2.9 -0.367,0.767 -2.317,1.85 -5.85,3.25 -1.167,0.466 -3.2,0.917 -6.1,1.35 C 22.483,-1.667 20.267,-1.5 19,-1.7 17.233,-1.9 15.933,-2.05 15.1,-2.15 13.666,-2.317 12.4,-2.567 11.3,-2.9 8.033,-3.9 5.9,-5.217 4.9,-6.85 4.167,-7.95 3.834,-9.333 3.9,-11 2.967,-10.567 2.1,-10.067 1.3,-9.5 0.5,-8.933 0.067,-8.517 0,-8.25 L 1.1,-8.9 c -0.533,1.8 0.633,3.667 3.5,5.6 1.1,0.733 3.2,1.45 6.3,2.15 3.2,0.7 6.133,1.066 8.8,1.1 4.633,0.067 8.783,-0.6 12.45,-2 z"
   id="path42"
   inkscape:connector-curvature="0" />
	</g>
</symbol>
<symbol
   id="flash0.ai_x5F_8_x2F_Layer_7_x2F__x3C_Path_x3E__x5F_63"
   viewBox="0 -13.35 11.8 13.35"
   transform="translate(0,229.54901)">
	<g
   id="Layer_1_4_">
		<path
   style="clip-rule:evenodd;fill:#595959;fill-rule:evenodd"
   d="m 11.8,-13.35 c -2.933,1.3 -5.45,3.1 -7.55,5.4 C 2.15,-5.583 0.733,-2.933 0,0 l 0.35,-0.1 0.7,-0.45 c 0.534,-1.767 1.333,-3.5 2.4,-5.2 2.167,-3.467 4.95,-6 8.35,-7.6 z"
   id="path46"
   inkscape:connector-curvature="0" />
	</g>
</symbol>
<symbol
   id="flash0.ai_x5F_8_x2F_Layer_7_x2F__x3C_Path_x3E__x5F_64"
   viewBox="0 -13.95 15.9 13.95"
   transform="translate(0,229.54901)">
	<g
   id="Layer_1_3_">
		<path
   style="clip-rule:evenodd;fill:#595959;fill-rule:evenodd"
   d="m 9.35,-1.6 c 2.967,0.467 5.15,1 6.55,1.6 -0.3,-1 -0.75,-2.033 -1.35,-3.1 -1.167,-2.133 -2.95,-4.267 -5.35,-6.4 -1.867,-1.667 -4.217,-3 -7.05,-4 L 0,-13.95 c 3.733,1.7 6.35,3.934 7.85,6.7 0.733,1.3 1.183,2.517 1.35,3.65 0.033,0.1 0.083,0.767 0.15,2 z"
   id="path50"
   inkscape:connector-curvature="0" />
	</g>
</symbol>
<symbol
   id="flash0.ai_x5F_8_x2F_Layer_7_x2F__x3C_Path_x3E__x5F_65"
   viewBox="0 -13.55 22.5 13.55"
   transform="translate(0,229.54901)">
	<g
   id="Layer_1_2_">
		
			<linearGradient
   id="SVGID_5_"
   gradientUnits="userSpaceOnUse"
   x1="-24.8174"
   y1="-34.920399"
   x2="-10.2923"
   y2="-34.920399"
   gradientTransform="matrix(1,-0.0034,0.0034,1,28.1753,28.0781)">
			<stop
   offset="0"
   style="stop-color:#FFFFFF"
   id="stop54" />
			<stop
   offset="1"
   style="stop-color:#000000"
   id="stop56" />
		</linearGradient>
		<path
   style="clip-rule:evenodd;fill:url(#linearGradient1172);fill-rule:evenodd"
   d="m 2.45,-0.6 c 4.133,-0.9 9.167,-1.35 15.1,-1.35 l 4.95,0.1 -2.95,-11.6 c -0.933,-0.066 -1.667,-0.1 -2.2,-0.1 l -2.55,0.15 c -1.066,0.2 -2.216,0.566 -3.45,1.1 C 9.983,-11.733 8.867,-11.117 8,-10.45 5.133,-8.317 2.95,-5.933 1.45,-3.3 0.683,-2 0.2,-0.9 0,0 Z"
   id="path59"
   inkscape:connector-curvature="0" />
	</g>
</symbol>
<g
   id="g244"
   transform="matrix(5.9122402,0,0,5.9122402,-3.3000001e-7,49.807667)">
	<path
   style="clip-rule:evenodd;fill:#d9d9d9;fill-rule:evenodd"
   d="m 42.6,11.35 0.2,-0.05 c -1.2,4.4 -3.75,8.017 -7.649,10.851 -3.967,2.866 -8.5,4.3 -13.601,4.3 -5.133,0 -9.683,-1.45 -13.65,-4.351 -3.933,-2.899 -6.467,-6.566 -7.6,-11 l 0.35,0.1 c 1.2,1.066 3.75,1.933 7.65,2.6 3.934,0.7 8.417,1.05 13.45,1.05 4.866,0 9.25,-0.333 13.15,-1 3.8,-0.667 6.367,-1.5 7.7,-2.5 z"
   id="path63"
   inkscape:connector-curvature="0" />
	
		<use
   xlink:href="#flash0.ai_x5F_8_x2F_Layer_7_x2F__x3C_Path_x3E__x5F_65"
   width="22.5"
   height="13.55"
   y="-13.55"
   transform="matrix(1,0,0,-1,4.2002,242.44891)"
   style="overflow:visible;opacity:0.71880002;enable-background:new"
   id="use65"
   x="0" />
	
		<use
   xlink:href="#flash0.ai_x5F_8_x2F_Layer_7_x2F__x3C_Path_x3E__x5F_64"
   width="15.9"
   height="13.95"
   y="-13.95"
   transform="matrix(1,0,0,-1,25.0498,241.79901)"
   style="overflow:visible;opacity:0.16019999;enable-background:new"
   id="use67"
   x="0" />
	
		<use
   xlink:href="#flash0.ai_x5F_8_x2F_Layer_7_x2F__x3C_Path_x3E__x5F_63"
   width="11.8"
   height="13.35"
   y="-13.35"
   transform="matrix(1,0,0,-1,0.2998,240.64911)"
   style="overflow:visible;opacity:0.32030005;enable-background:new"
   id="use69"
   x="0" />
	<linearGradient
   id="SVGID_6_"
   gradientUnits="userSpaceOnUse"
   x1="0.75"
   y1="9.2002001"
   x2="42.599602"
   y2="9.2002001">
		<stop
   offset="0"
   style="stop-color:#7D7D7D"
   id="stop71" />
		<stop
   offset="1"
   style="stop-color:#D4D4D4"
   id="stop73" />
	</linearGradient>
	<path
   style="clip-rule:evenodd;fill:url(#SVGID_6_);fill-rule:evenodd"
   d="m 36.5,2.8 c 4.066,1.767 6.1,3.9 6.1,6.4 0,2.5 -2.033,4.633 -6.1,6.4 -4.1,1.767 -9.05,2.65 -14.85,2.65 -5.767,0 -10.7,-0.883 -14.8,-2.65 -4.067,-1.767 -6.1,-3.9 -6.1,-6.4 0,-2.5 2.033,-4.633 6.1,-6.4 4.1,-1.767 9.033,-2.65 14.8,-2.65 5.8,0 10.75,0.883 14.85,2.65 z"
   id="path76"
   inkscape:connector-curvature="0" />
	<path
   style="clip-rule:evenodd;fill:#f5f5f5;fill-rule:evenodd"
   d="m 43.25,8.5 h -1.4 C 41.583,6.3 39.517,4.45 35.651,2.95 c -3.9,-1.534 -8.534,-2.3 -13.9,-2.3 -5.367,0 -9.983,0.767 -13.85,2.3 C 4.033,4.45 1.967,6.3 1.7,8.5 H 0.1 C 0.567,6.1 2.867,4.083 7,2.45 11.133,0.817 16.017,0 21.65,0 27.283,0 32.167,0.817 36.3,2.45 40.434,4.083 42.75,6.1 43.25,8.5 Z"
   id="path78"
   inkscape:connector-curvature="0" />
	<path
   style="clip-rule:evenodd;fill:#fff2de;fill-rule:evenodd"
   d="M 7.1,6.8 C 7.367,6.8 7.5,6.667 7.5,6.4 7.5,6.1 7.367,5.95 7.1,5.95 6.833,5.95 6.7,6.1 6.7,6.4 6.7,6.667 6.833,6.8 7.1,6.8 Z M 6,7.8 C 6.2,7.8 6.383,7.717 6.55,7.55 6.683,7.383 6.75,7.183 6.75,6.95 6.75,6.416 6.5,6.15 6,6.15 5.467,6.15 5.2,6.417 5.2,6.95 5.2,7.183 5.283,7.383 5.45,7.55 5.583,7.717 5.767,7.8 6,7.8 Z M 4.4,9.2 C 4.6,9.2 4.7,9.1 4.7,8.9 4.7,8.733 4.6,8.65 4.4,8.65 4.2,8.65 4.1,8.733 4.1,8.9 4.1,9.1 4.2,9.2 4.4,9.2 Z M 8.75,5.1 c -0.467,0 -0.7,0.267 -0.7,0.8 0,0.5 0.233,0.75 0.7,0.75 C 9.183,6.65 9.4,6.4 9.4,5.9 9.4,5.367 9.183,5.1 8.75,5.1 Z m 1.2,0.2 C 9.783,5.3 9.7,5.383 9.7,5.55 c 0,0.2 0.083,0.3 0.25,0.3 0.167,0 0.25,-0.1 0.25,-0.3 C 10.2,5.383 10.117,5.3 9.95,5.3 Z M 14.15,5 c 0.167,0 0.25,-0.1 0.25,-0.3 0,-0.167 -0.083,-0.25 -0.25,-0.25 -0.167,0 -0.25,0.083 -0.25,0.25 0,0.2 0.083,0.3 0.25,0.3 z m 4.5,-0.9 c 0,0.233 0.117,0.35 0.35,0.35 0.267,0 0.4,-0.117 0.4,-0.35 0,-0.267 -0.133,-0.4 -0.4,-0.4 -0.233,0 -0.35,0.133 -0.35,0.4 z M 16.1,4.55 C 16.1,4.183 15.883,4 15.45,4 15.016,4 14.8,4.183 14.8,4.55 c 0,0.367 0.217,0.55 0.65,0.55 0.433,0 0.65,-0.183 0.65,-0.55 z M 24,3.8 c 0,-0.367 -0.167,-0.55 -0.5,-0.55 -0.366,0 -0.55,0.183 -0.55,0.55 0,0.333 0.184,0.5 0.55,0.5 0.333,0 0.5,-0.167 0.5,-0.5 z M 21.3,3.65 c 0,0.5 0.233,0.75 0.7,0.75 0.434,0 0.65,-0.25 0.65,-0.75 0,-0.5 -0.216,-0.75 -0.65,-0.75 -0.467,0 -0.7,0.25 -0.7,0.75 z m 5.2,0.1 c -0.3,0 -0.45,0.167 -0.45,0.5 0,0.3 0.15,0.45 0.45,0.45 0.3,0 0.45,-0.15 0.45,-0.45 0,-0.333 -0.15,-0.5 -0.45,-0.5 z m 1.2,0.1 c -0.233,0 -0.351,0.117 -0.351,0.35 0,0.267 0.117,0.4 0.351,0.4 0.234,0 0.35,-0.133 0.35,-0.4 0,-0.233 -0.116,-0.35 -0.35,-0.35 z m 10.8,4.3 C 38.833,8.15 39,7.933 39,7.5 39,7.1 38.833,6.9 38.5,6.9 c -0.366,0 -0.55,0.2 -0.55,0.6 0,0.433 0.184,0.65 0.55,0.65 z m -3.55,-2.3 c 0,-0.267 -0.15,-0.4 -0.45,-0.4 -0.267,0 -0.4,0.133 -0.4,0.4 0,0.267 0.134,0.4 0.4,0.4 0.3,0 0.45,-0.133 0.45,-0.4 z M 33.1,5.7 c 0.167,0 0.25,-0.117 0.25,-0.35 0,-0.2 -0.083,-0.3 -0.25,-0.3 -0.199,0 -0.3,0.1 -0.3,0.3 0,0.233 0.1,0.35 0.3,0.35 z m 3.95,-0.45 c -0.233,0 -0.434,0.1 -0.6,0.3 -0.167,0.2 -0.25,0.434 -0.25,0.7 0,0.266 0.083,0.483 0.25,0.65 0.166,0.2 0.366,0.3 0.6,0.3 0.234,0 0.417,-0.1 0.55,-0.3 0.167,-0.167 0.25,-0.383 0.25,-0.65 0,-0.667 -0.267,-1 -0.8,-1 z m 3.9,5 c 0.3,0 0.45,-0.2 0.45,-0.6 0,-0.4 -0.15,-0.6 -0.45,-0.6 -0.3,0 -0.45,0.2 -0.45,0.6 0,0.4 0.15,0.6 0.45,0.6 z m 0.35,-1.7 c 0.3,0.233 0.45,0.517 0.45,0.85 0,0.8 -0.116,1.434 -0.35,1.9 -4.334,3.567 -7.75,5.434 -10.25,5.6 -2.867,0.434 -5.334,0.733 -7.4,0.9 C 19.983,18.033 16.267,17.667 12.6,16.7 8.933,15.733 6.2,14.766 4.4,13.8 L 2.8,12.6 C 2.4,12.333 2.283,11.7 2.45,10.7 2.55,10.166 2.85,9.617 3.35,9.05 3.917,8.383 4.267,7.9 4.4,7.6 4.933,6.3 5.483,5.65 6.05,5.65 L 7.45,5.7 C 7.483,5.5 7.567,5.3 7.7,5.1 7.933,4.733 8.317,4.567 8.85,4.6 c 0.8,0.033 1.367,0.117 1.7,0.25 L 14.05,4 c 0.667,-0.2 1.534,-0.367 2.6,-0.5 1.333,-0.133 2.25,-0.25 2.75,-0.35 1.734,-0.333 3.067,-0.45 4,-0.35 0.3,0.034 0.816,0.15 1.55,0.35 0.6,0.167 1.15,0.25 1.65,0.25 1.7,0 3.25,0.217 4.65,0.65 0.566,0.2 1.283,0.45 2.15,0.75 0.666,0.2 1.183,0.3 1.55,0.3 0.1,0 0.483,-0.083 1.149,-0.25 0.434,-0.1 0.884,-0.033 1.351,0.2 0.8,0.4 1.434,1.25 1.899,2.55 l 0.101,0.35 c 0.133,0.2 0.383,0.3 0.75,0.3 0.434,0 0.8,0.1 1.1,0.3 z"
   id="path80"
   inkscape:connector-curvature="0" />
	<linearGradient
   id="SVGID_7_"
   gradientUnits="userSpaceOnUse"
   x1="2.0497999"
   y1="11.0361"
   x2="40.75"
   y2="11.0361">
		<stop
   offset="0"
   style="stop-color:#EDDF9F"
   id="stop82" />
		<stop
   offset="1"
   style="stop-color:#BFB36B"
   id="stop84" />
	</linearGradient>
	<path
   style="clip-rule:evenodd;fill:url(#SVGID_7_);fill-rule:evenodd"
   d="M 20.85,18.1 C 16.483,17.933 12.183,17.067 7.95,15.5 4.283,14.133 2.317,13.017 2.05,12.15 l 1.1,0.65 C 2.617,11 3.783,9.133 6.65,7.2 c 1.1,-0.733 3.2,-1.45 6.3,-2.15 3.2,-0.7 6.133,-1.066 8.8,-1.1 4.634,-0.067 8.783,0.6 12.45,2 4.366,1.667 6.55,3.333 6.55,5 0,1.2 -0.333,2.083 -1,2.65 -0.833,0.7 -2.833,1.566 -6,2.6 -4.434,1.433 -8.733,2.067 -12.9,1.9 z"
   id="path87"
   inkscape:connector-curvature="0" />
	
		<use
   xlink:href="#flash0.ai_x5F_8_x2F_Layer_7_x2F__x3C_Path_x3E__x5F_59"
   width="38.700001"
   height="10.955"
   y="-11"
   transform="matrix(1,0,0,-1,2.0498,233.44891)"
   style="overflow:visible;opacity:0.10160002;enable-background:new"
   id="use89"
   x="0" />
	
		<use
   xlink:href="#flash0.ai_x5F_8_x2F_Layer_7_x2F__x3C_Path_x3E__x5F_58"
   width="3.8"
   height="2.75"
   y="-2.75"
   transform="matrix(1,0,0,-1,8.2002,236.79901)"
   style="overflow:visible;opacity:0.67970001;enable-background:new"
   id="use91"
   x="0" />
	<path
   style="clip-rule:evenodd;fill:#fdfae8;fill-rule:evenodd"
   d="M 11.8,9.1 C 11.7,9.267 11.517,9.367 11.25,9.4 11.383,8.8 11.3,8.333 11,8 10.813,7.782 10.638,7.624 10.475,7.525 L 10.6,7.55 c 0.333,0.133 0.6,0.317 0.8,0.55 0.3,0.4 0.433,0.733 0.4,1 z"
   id="path93"
   inkscape:connector-curvature="0" />
	<linearGradient
   id="SVGID_8_"
   gradientUnits="userSpaceOnUse"
   x1="17.8374"
   y1="5.7749"
   x2="20.9624"
   y2="5.7749">
		<stop
   offset="0"
   style="stop-color:#E3DBB6"
   id="stop95" />
		<stop
   offset="1"
   style="stop-color:#CFC482"
   id="stop97" />
	</linearGradient>
	<path
   style="clip-rule:evenodd;fill:url(#SVGID_8_);fill-rule:evenodd"
   d="m 17.8,6.35 c 0.067,-0.467 0.233,-0.867 0.5,-1.2 0.3,-0.333 0.667,-0.5 1.1,-0.5 0.367,0 0.7,0.15 1,0.45 0.3,0.267 0.483,0.617 0.55,1.05 -0.333,0.5 -0.883,0.75 -1.65,0.75 -0.633,0 -1.133,-0.183 -1.5,-0.55 z"
   id="path100"
   inkscape:connector-curvature="0" />
	<path
   style="clip-rule:evenodd;fill:#fdfae8;fill-rule:evenodd"
   d="M 20.8,6.15 C 20.7,6.283 20.55,6.367 20.35,6.4 20.45,5.933 20.383,5.55 20.15,5.25 19.995,5.064 19.854,4.939 19.725,4.875 L 19.85,4.9 c 0.233,0.1 0.433,0.25 0.6,0.45 0.267,0.333 0.383,0.6 0.35,0.8 z"
   id="path102"
   inkscape:connector-curvature="0" />
	<linearGradient
   id="SVGID_9_"
   gradientUnits="userSpaceOnUse"
   x1="5.4126"
   y1="11.2002"
   x2="8.6876001"
   y2="11.2002">
		<stop
   offset="0"
   style="stop-color:#FFFCED"
   id="stop104" />
		<stop
   offset="1"
   style="stop-color:#E3D998"
   id="stop106" />
	</linearGradient>
	<path
   style="clip-rule:evenodd;fill:url(#SVGID_9_);fill-rule:evenodd"
   d="M 5.4,11.8 C 5.467,11.3 5.65,10.883 5.95,10.55 6.25,10.183 6.617,10 7.05,10 c 0.4,0 0.75,0.15 1.05,0.45 0.333,0.3 0.533,0.683 0.6,1.15 -0.4,0.533 -0.983,0.8 -1.75,0.8 -0.633,0 -1.15,-0.2 -1.55,-0.6 z"
   id="path109"
   inkscape:connector-curvature="0" />
	<path
   style="clip-rule:evenodd;fill:#fdfae8;fill-rule:evenodd"
   d="M 8,11.85 C 8.167,11.35 8.1,10.95 7.8,10.65 7.64,10.458 7.498,10.308 7.375,10.2 L 7.5,10.25 c 0.233,0.1 0.45,0.267 0.65,0.5 0.3,0.333 0.417,0.617 0.35,0.85 -0.067,0.133 -0.233,0.217 -0.5,0.25 z"
   id="path111"
   inkscape:connector-curvature="0" />
	<linearGradient
   id="SVGID_10_"
   gradientUnits="userSpaceOnUse"
   x1="14.7627"
   y1="8.375"
   x2="17.137699"
   y2="8.375">
		<stop
   offset="0"
   style="stop-color:#FFFCED"
   id="stop113" />
		<stop
   offset="1"
   style="stop-color:#E3D998"
   id="stop115" />
	</linearGradient>
	<path
   style="clip-rule:evenodd;fill:url(#SVGID_10_);fill-rule:evenodd"
   d="m 14.75,8.8 c 0.033,-0.367 0.167,-0.667 0.4,-0.9 0.2,-0.267 0.467,-0.4 0.8,-0.4 0.633,0 1.033,0.383 1.2,1.15 -0.3,0.4 -0.717,0.6 -1.25,0.6 -0.467,0 -0.85,-0.15 -1.15,-0.45 z"
   id="path118"
   inkscape:connector-curvature="0" />
	<path
   style="clip-rule:evenodd;fill:#fdfae8;fill-rule:evenodd"
   d="M 16.65,8.85 C 16.75,8.483 16.7,8.183 16.5,7.95 L 16,7.65 16.25,7.7 c 0.2,0.066 0.367,0.183 0.5,0.35 0.2,0.233 0.283,0.434 0.25,0.6 -0.067,0.1 -0.183,0.167 -0.35,0.2 z"
   id="path120"
   inkscape:connector-curvature="0" />
	<linearGradient
   id="SVGID_11_"
   gradientUnits="userSpaceOnUse"
   x1="35.637699"
   y1="9.5995998"
   x2="39.062698"
   y2="9.5995998">
		<stop
   offset="0"
   style="stop-color:#FFFCED"
   id="stop122" />
		<stop
   offset="1"
   style="stop-color:#E3D998"
   id="stop124" />
	</linearGradient>
	<path
   style="clip-rule:evenodd;fill:url(#SVGID_11_);fill-rule:evenodd"
   d="M 35.6,10.2 C 35.667,9.7 35.867,9.283 36.201,8.95 36.534,8.583 36.918,8.4 37.35,8.4 c 0.434,0 0.801,0.15 1.101,0.45 0.333,0.3 0.533,0.683 0.6,1.15 -0.399,0.533 -1,0.8 -1.8,0.8 -0.635,0 -1.185,-0.2 -1.651,-0.6 z"
   id="path127"
   inkscape:connector-curvature="0" />
	<path
   style="clip-rule:evenodd;fill:#fdfae8;fill-rule:evenodd"
   d="m 37.8,8.65 c 0.267,0.1 0.5,0.25 0.7,0.45 0.3,0.367 0.417,0.667 0.35,0.9 -0.066,0.133 -0.233,0.217 -0.5,0.25 0.167,-0.5 0.101,-0.9 -0.199,-1.2 -0.16,-0.191 -0.318,-0.333 -0.476,-0.425 z"
   id="path129"
   inkscape:connector-curvature="0" />
	<linearGradient
   id="SVGID_12_"
   gradientUnits="userSpaceOnUse"
   x1="32.237301"
   y1="10.9248"
   x2="35.362301"
   y2="10.9248">
		<stop
   offset="0"
   style="stop-color:#FFFCED"
   id="stop131" />
		<stop
   offset="1"
   style="stop-color:#E3D998"
   id="stop133" />
	</linearGradient>
	<path
   style="clip-rule:evenodd;fill:url(#SVGID_12_);fill-rule:evenodd"
   d="m 32.25,11.5 c 0.033,-0.467 0.2,-0.867 0.5,-1.2 0.3,-0.3 0.65,-0.45 1.05,-0.45 0.867,0 1.384,0.483 1.55,1.45 -0.333,0.467 -0.883,0.7 -1.65,0.7 -0.566,0 -1.05,-0.167 -1.45,-0.5 z"
   id="path136"
   inkscape:connector-curvature="0" />
	
		<use
   xlink:href="#flash0.ai_x5F_8_x2F_Layer_7_x2F__x3C_Path_x3E__x5F_47"
   width="3.0999999"
   height="2.25"
   y="-2.25"
   transform="matrix(1,0,0,-1,32.1504,236.74921)"
   style="overflow:visible;opacity:0.69139997;enable-background:new"
   id="use138"
   x="0" />
	<path
   style="clip-rule:evenodd;fill:#fdfae8;fill-rule:evenodd"
   d="M 34.6,8.95 C 34.734,8.45 34.667,8.067 34.401,7.8 34.267,7.6 34.117,7.467 33.951,7.4 L 33.8,7.35 l 0.351,0.1 c 0.233,0.1 0.433,0.25 0.6,0.45 0.267,0.3 0.366,0.567 0.3,0.8 -0.068,0.133 -0.218,0.217 -0.451,0.25 z"
   id="path140"
   inkscape:connector-curvature="0" />
	<path
   style="clip-rule:evenodd;fill:#fdfae8;fill-rule:evenodd"
   d="m 34.85,10.5 c 0.267,0.333 0.384,0.6 0.351,0.8 -0.101,0.133 -0.25,0.217 -0.45,0.25 0.134,-0.466 0.066,-0.833 -0.2,-1.1 -0.154,-0.186 -0.296,-0.311 -0.425,-0.375 L 34.25,10.1 c 0.233,0.067 0.434,0.2 0.6,0.4 z"
   id="path142"
   inkscape:connector-curvature="0" />
	<path
   style="clip-rule:evenodd;fill:#ffffff;fill-rule:evenodd"
   d="m 6.4,10.55 c 0.3,0 0.383,0.184 0.25,0.55 -0.167,0.333 -0.367,0.467 -0.6,0.4 -0.2,-0.1 -0.233,-0.283 -0.1,-0.55 0.133,-0.267 0.283,-0.4 0.45,-0.4 z"
   id="path144"
   inkscape:connector-curvature="0" />
	<path
   style="clip-rule:evenodd;fill:#ffffff;fill-rule:evenodd"
   d="M 33.25,7.7 C 33.55,7.833 33.6,8.067 33.4,8.4 33.2,8.767 32.983,8.9 32.75,8.8 32.55,8.667 32.533,8.433 32.7,8.1 32.9,7.767 33.083,7.633 33.25,7.7 Z"
   id="path146"
   inkscape:connector-curvature="0" />
	<path
   style="clip-rule:evenodd;fill:#ffffff;fill-rule:evenodd"
   d="M 9.45,7.85 C 9.85,7.983 9.967,8.283 9.8,8.75 9.6,9.183 9.333,9.3 9,9.1 8.667,8.933 8.6,8.667 8.8,8.3 9,7.933 9.217,7.783 9.45,7.85 Z"
   id="path148"
   inkscape:connector-curvature="0" />
	<path
   style="clip-rule:evenodd;fill:#ffffff;fill-rule:evenodd"
   d="m 15.6,8 c 0.2,0.067 0.283,0.233 0.25,0.5 C 15.783,8.767 15.633,8.883 15.4,8.85 15.167,8.817 15.1,8.65 15.2,8.35 15.3,8.083 15.433,7.967 15.6,8 Z"
   id="path150"
   inkscape:connector-curvature="0" />
	<path
   style="clip-rule:evenodd;fill:#ffffff;fill-rule:evenodd"
   d="m 18.95,5.15 c 0.333,0.133 0.383,0.4 0.15,0.8 C 18.9,6.35 18.666,6.433 18.4,6.2 18.167,6 18.15,5.75 18.35,5.45 c 0.167,-0.267 0.367,-0.367 0.6,-0.3 z"
   id="path152"
   inkscape:connector-curvature="0" />
	<path
   style="clip-rule:evenodd;fill:#ffffff;fill-rule:evenodd"
   d="m 33.4,10.4 c 0.199,0.1 0.216,0.317 0.05,0.65 -0.134,0.367 -0.316,0.483 -0.55,0.35 -0.234,-0.133 -0.25,-0.367 -0.051,-0.7 0.168,-0.367 0.351,-0.467 0.551,-0.3 z"
   id="path154"
   inkscape:connector-curvature="0" />
	<path
   style="clip-rule:evenodd;fill:#ffffff;fill-rule:evenodd"
   d="m 36.8,8.8 c 0.434,0 0.5,0.35 0.2,1.05 -0.066,0.167 -0.217,0.233 -0.45,0.2 C 36.35,10.017 36.2,9.933 36.1,9.8 36,9.633 36.017,9.433 36.15,9.2 36.316,8.933 36.533,8.8 36.8,8.8 Z"
   id="path156"
   inkscape:connector-curvature="0" />
	<path
   style="clip-rule:evenodd;fill:#ffffff;fill-rule:evenodd"
   d="M 13.5,7.25 C 14.667,7.283 15.017,7.5 14.55,7.9 14.05,8.334 13.4,8.417 12.6,8.15 12.233,8.05 12.217,7.867 12.55,7.6 12.883,7.333 13.2,7.217 13.5,7.25 Z"
   id="path158"
   inkscape:connector-curvature="0" />
	<path
   style="clip-rule:evenodd;fill:#ffffff;fill-rule:evenodd"
   d="m 13.25,8.85 c 0.567,0.033 0.7,0.167 0.4,0.4 C 13.383,9.483 13.067,9.567 12.7,9.5 12.333,9.433 12.233,9.3 12.4,9.1 12.533,8.933 12.817,8.85 13.25,8.85 Z"
   id="path160"
   inkscape:connector-curvature="0" />
	<path
   style="clip-rule:evenodd;fill:#ffffff;fill-rule:evenodd"
   d="m 8.35,13.2 c 0.633,0.066 0.683,0.3 0.15,0.7 -0.567,0.367 -1.133,0.417 -1.7,0.15 -0.566,-0.267 -0.617,-0.483 -0.15,-0.65 0.433,-0.2 1,-0.267 1.7,-0.2 z"
   id="path162"
   inkscape:connector-curvature="0" />
	<path
   style="clip-rule:evenodd;fill:#ffffff;fill-rule:evenodd"
   d="m 15.65,11.9 c 1.167,0.033 1.533,0.283 1.1,0.75 -0.433,0.467 -0.967,0.583 -1.6,0.35 -0.566,-0.167 -0.783,-0.4 -0.65,-0.7 0.167,-0.267 0.55,-0.4 1.15,-0.4 z"
   id="path164"
   inkscape:connector-curvature="0" />
	<path
   style="clip-rule:evenodd;fill:#ffffff;fill-rule:evenodd"
   d="m 18.4,9.7 c 0.934,0 1.267,0.2 1,0.6 -0.267,0.4 -0.683,0.55 -1.25,0.45 -0.5,-0.067 -0.717,-0.25 -0.65,-0.55 0.067,-0.3 0.367,-0.467 0.9,-0.5 z"
   id="path166"
   inkscape:connector-curvature="0" />
	<path
   style="clip-rule:evenodd;fill:#ffffff;fill-rule:evenodd"
   d="m 22.8,7.3 c 0.3,0.034 0.384,0.133 0.25,0.3 -0.133,0.2 -0.316,0.283 -0.55,0.25 -0.2,0 -0.267,-0.1 -0.2,-0.3 0.1,-0.2 0.266,-0.283 0.5,-0.25 z"
   id="path168"
   inkscape:connector-curvature="0" />
	<path
   style="clip-rule:evenodd;fill:#ffffff;fill-rule:evenodd"
   d="m 22.3,10.25 c 0.566,0.067 0.667,0.183 0.3,0.35 -0.399,0.167 -0.733,0.2 -1,0.1 -0.233,-0.034 -0.233,-0.133 0,-0.3 0.2,-0.133 0.433,-0.183 0.7,-0.15 z"
   id="path170"
   inkscape:connector-curvature="0" />
	<path
   style="clip-rule:evenodd;fill:#ffffff;fill-rule:evenodd"
   d="m 25.2,11.4 c 0.467,0.133 0.6,0.35 0.399,0.65 -0.166,0.267 -0.483,0.333 -0.949,0.2 -0.467,-0.133 -0.584,-0.333 -0.351,-0.6 C 24.5,11.383 24.8,11.3 25.2,11.4 Z"
   id="path172"
   inkscape:connector-curvature="0" />
	<path
   style="clip-rule:evenodd;fill:#ffffff;fill-rule:evenodd"
   d="m 28.65,9.85 c 0.5,-0.033 0.666,0.1 0.5,0.4 -0.167,0.267 -0.483,0.383 -0.95,0.35 -0.434,-0.033 -0.55,-0.167 -0.351,-0.4 0.168,-0.2 0.434,-0.317 0.801,-0.35 z"
   id="path174"
   inkscape:connector-curvature="0" />
	<path
   style="clip-rule:evenodd;fill:#ffffff;fill-rule:evenodd"
   d="m 28.85,12.55 c 0.934,0.1 1.051,0.367 0.351,0.8 -0.7,0.433 -1.4,0.6 -2.101,0.5 -0.699,-0.133 -0.75,-0.4 -0.149,-0.8 0.566,-0.4 1.199,-0.567 1.899,-0.5 z"
   id="path176"
   inkscape:connector-curvature="0" />
	<path
   style="clip-rule:evenodd;fill:#ffffff;fill-rule:evenodd"
   d="m 25.15,15.75 c 1.166,0 1.5,0.217 1,0.65 -0.534,0.434 -1.217,0.567 -2.051,0.4 -0.767,-0.167 -0.966,-0.383 -0.6,-0.65 0.366,-0.267 0.918,-0.4 1.651,-0.4 z"
   id="path178"
   inkscape:connector-curvature="0" />
	<path
   style="clip-rule:evenodd;fill:#ffffff;fill-rule:evenodd"
   d="m 22,16 c 0.667,0.067 0.816,0.2 0.45,0.4 -0.4,0.2 -0.783,0.25 -1.15,0.15 C 21,16.484 20.967,16.367 21.2,16.2 21.434,16.033 21.7,15.967 22,16 Z"
   id="path180"
   inkscape:connector-curvature="0" />
	<path
   style="clip-rule:evenodd;fill:#ffffff;fill-rule:evenodd"
   d="m 31.75,9.3 c 0.767,0.034 1.017,0.217 0.75,0.55 -0.233,0.333 -0.6,0.483 -1.1,0.45 C 31,10.267 30.866,10.084 31,9.75 31.134,9.416 31.384,9.267 31.75,9.3 Z"
   id="path182"
   inkscape:connector-curvature="0" />
	<path
   style="clip-rule:evenodd;fill:#ffffff;fill-rule:evenodd"
   d="m 38.15,11.8 c 0.966,0.133 1.233,0.4 0.8,0.8 -0.467,0.4 -1.05,0.533 -1.75,0.4 -0.601,-0.133 -0.684,-0.383 -0.25,-0.75 0.4,-0.367 0.8,-0.517 1.2,-0.45 z"
   id="path184"
   inkscape:connector-curvature="0" />
	
		<use
   xlink:href="#flash0.ai_x5F_8_x2F_Layer_7_x2F__x3C_Path_x3E__x5F_23"
   width="31.002001"
   height="11.178"
   x="-0.0020000001"
   y="-11.143"
   transform="matrix(1,0,0,-1,7,234.64911)"
   style="overflow:visible;opacity:0.78910002;enable-background:new"
   id="use186" />
	
		<use
   xlink:href="#flash0.ai_x5F_8_x2F_Layer_7_x2F__x3C_Path_x3E__x5F_22"
   width="4.5"
   height="3.0999999"
   y="-3.0999999"
   transform="matrix(1,0,0,-1,9.6499,241.14911)"
   style="overflow:visible;opacity:0.67970001;enable-background:new"
   id="use188"
   x="0" />
	<path
   style="clip-rule:evenodd;fill:#fdfae8;fill-rule:evenodd"
   d="m 13.25,14.05 c 0.167,-0.667 0.067,-1.2 -0.3,-1.6 C 12.717,12.183 12.5,12 12.3,11.9 l -0.25,-0.1 0.45,0.1 c 0.367,0.133 0.667,0.35 0.9,0.65 0.4,0.467 0.567,0.85 0.5,1.15 -0.1,0.167 -0.317,0.283 -0.65,0.35 z"
   id="path190"
   inkscape:connector-curvature="0" />
	<path
   style="clip-rule:evenodd;fill:#ffffff;fill-rule:evenodd"
   d="m 11.05,12.2 c 0.467,0.1 0.6,0.383 0.4,0.85 -0.2,0.5 -0.483,0.684 -0.85,0.55 -0.333,-0.133 -0.383,-0.417 -0.15,-0.85 0.2,-0.4 0.4,-0.583 0.6,-0.55 z"
   id="path192"
   inkscape:connector-curvature="0" />
	<linearGradient
   id="SVGID_13_"
   gradientUnits="userSpaceOnUse"
   x1="30.0879"
   y1="15.0249"
   x2="32.912899"
   y2="15.0249">
		<stop
   offset="0"
   style="stop-color:#FFFCED"
   id="stop194" />
		<stop
   offset="1"
   style="stop-color:#E3D998"
   id="stop196" />
	</linearGradient>
	<path
   style="clip-rule:evenodd;fill:url(#SVGID_13_);fill-rule:evenodd"
   d="m 30.1,15.55 c 0.034,-0.433 0.184,-0.8 0.45,-1.1 0.267,-0.3 0.584,-0.45 0.95,-0.45 0.366,0 0.684,0.133 0.95,0.4 0.267,0.233 0.416,0.55 0.45,0.95 -0.334,0.467 -0.834,0.7 -1.5,0.7 -0.534,0 -0.966,-0.167 -1.3,-0.5 z"
   id="path199"
   inkscape:connector-curvature="0" />
	<path
   style="clip-rule:evenodd;fill:#fdfae8;fill-rule:evenodd"
   d="m 32.35,15.6 c 0.101,-0.467 0.034,-0.817 -0.199,-1.05 l -0.551,-0.4 0.3,0.05 c 0.233,0.066 0.416,0.2 0.55,0.4 0.233,0.3 0.333,0.55 0.3,0.75 -0.066,0.133 -0.2,0.217 -0.4,0.25 z"
   id="path201"
   inkscape:connector-curvature="0" />
	<path
   style="clip-rule:evenodd;fill:#ffffff;fill-rule:evenodd"
   d="m 31,14.45 c 0.233,-0.034 0.333,0.15 0.3,0.55 0,0.4 -0.149,0.583 -0.45,0.55 -0.267,-0.033 -0.366,-0.216 -0.3,-0.55 0.066,-0.3 0.217,-0.483 0.45,-0.55 z"
   id="path203"
   inkscape:connector-curvature="0" />
	
		<use
   xlink:href="#flash0.ai_x5F_8_x2F_Layer_7_x2F__x3C_Path_x3E__x5F_16"
   width="4.3499999"
   height="2.95"
   y="-2.95"
   transform="matrix(1,0,0,-1,20.3501,242.14911)"
   style="overflow:visible;opacity:0.67970001;enable-background:new"
   id="use205"
   x="0" />
	<path
   style="clip-rule:evenodd;fill:#fdfae8;fill-rule:evenodd"
   d="M 23.8,14.9 C 24,14.267 23.917,13.767 23.55,13.4 23.317,13.167 23.1,13 22.901,12.9 l -0.25,-0.1 0.449,0.1 c 0.367,0.133 0.667,0.333 0.9,0.6 0.366,0.433 0.517,0.783 0.45,1.05 -0.1,0.2 -0.316,0.317 -0.65,0.35 z"
   id="path207"
   inkscape:connector-curvature="0" />
	<path
   style="clip-rule:evenodd;fill:#ffffff;fill-rule:evenodd"
   d="m 22,13.2 c 0.2,0.1 0.283,0.333 0.25,0.7 -0.033,0.3 -0.134,0.55 -0.3,0.75 -0.2,0.2 -0.4,0.3 -0.601,0.3 -0.233,0.033 -0.383,-0.117 -0.45,-0.45 -0.066,-0.333 0.05,-0.667 0.35,-1 C 21.55,13.2 21.8,13.1 22,13.2 Z"
   id="path209"
   inkscape:connector-curvature="0" />
	<path
   style="clip-rule:evenodd;fill:#ffffff;fill-rule:evenodd"
   d="M 26.35,6.3 C 26.65,6.367 26.7,6.6 26.5,7 26.3,7.4 26.066,7.533 25.8,7.4 25.567,7.3 25.55,7.084 25.75,6.75 c 0.2,-0.334 0.4,-0.483 0.6,-0.45 z"
   id="path211"
   inkscape:connector-curvature="0" />
	<linearGradient
   id="SVGID_14_"
   gradientUnits="userSpaceOnUse"
   x1="25.2246"
   y1="6.8501"
   x2="27.9746"
   y2="6.8501">
		<stop
   offset="0"
   style="stop-color:#FFFCED"
   id="stop213" />
		<stop
   offset="1"
   style="stop-color:#E3D998"
   id="stop215" />
	</linearGradient>
	<path
   style="clip-rule:evenodd;fill:url(#SVGID_14_);fill-rule:evenodd"
   d="M 25.2,7.35 C 25.266,6.95 25.417,6.6 25.65,6.3 25.917,6 26.233,5.85 26.6,5.85 c 0.767,0 1.233,0.45 1.4,1.35 -0.333,0.433 -0.833,0.65 -1.5,0.65 -0.533,0 -0.967,-0.167 -1.3,-0.5 z"
   id="path218"
   inkscape:connector-curvature="0" />
	<path
   style="clip-rule:evenodd;fill:#fdfae8;fill-rule:evenodd"
   d="M 27.4,7.45 C 27.533,7.016 27.483,6.666 27.25,6.4 L 26.7,6 26.95,6.1 c 0.233,0.066 0.416,0.183 0.55,0.35 0.267,0.3 0.366,0.55 0.3,0.75 -0.067,0.1 -0.2,0.183 -0.4,0.25 z"
   id="path220"
   inkscape:connector-curvature="0" />
	<path
   style="clip-rule:evenodd;fill:#fff2de;fill-rule:evenodd"
   d="m 7.95,11.15 c 0.267,-0.167 0.383,-0.2 0.35,-0.1 -0.1,0.267 -0.15,0.417 -0.15,0.45 0.033,0.167 0.2,0.267 0.5,0.3 L 8,11.85 C 7.733,11.883 7.617,11.8 7.65,11.6 7.683,11.4 7.783,11.25 7.95,11.15 Z"
   id="path222"
   inkscape:connector-curvature="0" />
	<path
   style="clip-rule:evenodd;fill:#fff2de;fill-rule:evenodd"
   d="M 21.2,6.5 14.45,10 c -1.233,0.633 -2.567,1 -4,1.1 l 2.15,-0.7 c 0.3,-0.033 1.117,-0.35 2.45,-0.95 0.333,-0.167 1.383,-0.7 3.15,-1.6 0.933,-0.467 1.933,-0.917 3,-1.35 z"
   id="path224"
   inkscape:connector-curvature="0" />
	<path
   style="clip-rule:evenodd;fill:#fff2de;fill-rule:evenodd"
   d="m 25.3,5.2 c 0.2,0 0.267,0.083 0.2,0.25 C 25.434,5.617 25.3,5.733 25.1,5.8 24.967,5.867 24.9,5.817 24.9,5.65 24.933,5.45 24.917,5.334 24.849,5.3 24.75,5.233 24.9,5.2 25.3,5.2 Z"
   id="path226"
   inkscape:connector-curvature="0" />
	<path
   style="clip-rule:evenodd;fill:#fff2de;fill-rule:evenodd"
   d="m 21.3,9.45 c 0.566,-0.333 0.517,-0.233 -0.149,0.3 -0.667,0.5 -1.333,0.95 -2,1.35 l -3.45,2.25 1.75,-1.4 c 1.799,-1.267 3.082,-2.1 3.849,-2.5 z"
   id="path228"
   inkscape:connector-curvature="0" />
	<path
   style="clip-rule:evenodd;fill:#fff2de;fill-rule:evenodd"
   d="m 14.45,14.85 c 0.133,-0.167 0.25,-0.2 0.35,-0.1 0.034,0.033 0.1,0.15 0.2,0.35 0.133,0.167 0.517,0.283 1.15,0.35 H 15.1 c -0.467,0 -0.717,-0.083 -0.75,-0.25 -0.067,-0.1 -0.033,-0.217 0.1,-0.35 z"
   id="path230"
   inkscape:connector-curvature="0" />
	<path
   style="clip-rule:evenodd;fill:#fff2de;fill-rule:evenodd"
   d="m 25.9,8.9 c 0.733,-0.367 0.6,-0.183 -0.4,0.55 -1.434,1.066 -2.417,1.8 -2.95,2.2 -1.033,0.833 -2.017,1.5 -2.95,2 l 1.55,-1.25 c 0.466,-0.4 1.233,-1 2.3,-1.8 1.234,-0.933 2.05,-1.5 2.45,-1.7 z"
   id="path232"
   inkscape:connector-curvature="0" />
	<path
   style="clip-rule:evenodd;fill:#fff2de;fill-rule:evenodd"
   d="m 31.15,6.85 c 0.399,0 0.55,0.117 0.449,0.35 -0.066,0.2 -0.133,0.333 -0.199,0.4 -0.067,0.066 -0.051,-0.017 0.05,-0.25 0.066,-0.2 0,-0.283 -0.2,-0.25 -0.267,0.033 -0.467,0.05 -0.6,0.05 C 30.45,7.15 30.433,7.1 30.599,7 30.8,6.9 30.983,6.85 31.15,6.85 Z"
   id="path234"
   inkscape:connector-curvature="0" />
	<path
   style="clip-rule:evenodd;fill:#fff2de;fill-rule:evenodd"
   d="m 28.95,10.2 c 0.566,-0.467 0.666,-0.534 0.3,-0.2 -0.333,0.333 -0.9,1 -1.7,2 -0.899,1.167 -1.467,1.983 -1.7,2.45 -0.271,0.493 -0.271,0.776 0,0.85 h -0.1 c -0.267,0 -0.417,-0.066 -0.45,-0.2 -0.066,-0.167 0.033,-0.517 0.3,-1.05 0.233,-0.5 0.784,-1.216 1.65,-2.15 0.733,-0.8 1.3,-1.367 1.7,-1.7 z"
   id="path236"
   inkscape:connector-curvature="0" />
	<path
   style="clip-rule:evenodd;fill:#fff2de;fill-rule:evenodd"
   d="m 32.4,12.5 c 0.267,-0.067 0.416,-0.1 0.449,-0.1 0.034,0.033 -0.166,0.167 -0.6,0.4 -2.033,1.3 -3.184,1.9 -3.45,1.8 -0.2,-0.1 0.267,-0.333 1.4,-0.7 0.301,-0.1 1.034,-0.567 2.201,-1.4 z"
   id="path238"
   inkscape:connector-curvature="0" />
	<path
   style="clip-rule:evenodd;fill:#fff2de;fill-rule:evenodd"
   d="m 37.05,10.5 c 0.367,0.067 0.233,0.333 -0.399,0.8 0.233,-0.333 0.233,-0.5 0,-0.5 -0.134,0 -0.15,-0.05 -0.051,-0.15 0.1,-0.133 0.25,-0.183 0.45,-0.15 z"
   id="path240"
   inkscape:connector-curvature="0" />
	<path
   style="clip-rule:evenodd;fill:#f5f5f5;fill-rule:evenodd"
   d="m 41.85,8.5 h 1.4 l 0.05,0.8 c 0,2.567 -2.116,4.767 -6.35,6.6 -4.233,1.833 -9.334,2.75 -15.3,2.75 -5.967,0 -11.067,-0.917 -15.3,-2.75 C 2.117,14.067 0,11.867 0,9.3 L 0.1,8.5 H 1.7 L 1.65,8.95 c 0,2.3 1.967,4.267 5.9,5.9 3.9,1.6 8.633,2.4 14.2,2.4 5.566,0 10.316,-0.8 14.25,-2.4 3.934,-1.633 5.9,-3.6 5.9,-5.9 z"
   id="path242"
   inkscape:connector-curvature="0" />
</g>
</svg>