<?xml version="1.0" encoding="UTF-8" standalone="no"?>
<!-- Generator: Adobe Illustrator 15.1.0, SVG Export Plug-In . SVG Version: 6.00 Build 0)  -->

<svg
   xmlns:dc="http://purl.org/dc/elements/1.1/"
   xmlns:cc="http://creativecommons.org/ns#"
   xmlns:rdf="http://www.w3.org/1999/02/22-rdf-syntax-ns#"
   xmlns:svg="http://www.w3.org/2000/svg"
   xmlns="http://www.w3.org/2000/svg"
   xmlns:xlink="http://www.w3.org/1999/xlink"
   xmlns:sodipodi="http://sodipodi.sourceforge.net/DTD/sodipodi-0.dtd"
   xmlns:inkscape="http://www.inkscape.org/namespaces/inkscape"
   version="1.1"
   id="flash0.ai"
   x="0px"
   y="0px"
   width="256"
   height="256"
   viewBox="0 0 256.00001 255.99999"
   xml:space="preserve"
   sodipodi:docname="gruel_02.svg"
   inkscape:version="0.92.4 (5da689c313, 2019-01-14)"><title
   id="title1209">Gruel</title><metadata
   id="metadata402"><rdf:RDF><cc:Work
       rdf:about=""><dc:format>image/svg+xml</dc:format><dc:type
         rdf:resource="http://purl.org/dc/dcmitype/StillImage" /><dc:title>Gruel</dc:title><cc:license
         rdf:resource="http://creativecommons.org/publicdomain/zero/1.0/" /><dc:creator><cc:Agent><dc:title>Glitch</dc:title></cc:Agent></dc:creator><dc:source>https://opengameart.org/node/20149</dc:source></cc:Work><cc:License
       rdf:about="http://creativecommons.org/publicdomain/zero/1.0/"><cc:permits
         rdf:resource="http://creativecommons.org/ns#Reproduction" /><cc:permits
         rdf:resource="http://creativecommons.org/ns#Distribution" /><cc:permits
         rdf:resource="http://creativecommons.org/ns#DerivativeWorks" /></cc:License></rdf:RDF></metadata><defs
   id="defs400"><linearGradient
     inkscape:collect="always"
     xlink:href="#SVGID_1_"
     id="linearGradient1356"
     gradientUnits="userSpaceOnUse"
     x1="0"
     y1="-2.7925"
     x2="21.1"
     y2="-2.7925" /><linearGradient
     inkscape:collect="always"
     xlink:href="#SVGID_2_"
     id="linearGradient1358"
     gradientUnits="userSpaceOnUse"
     gradientTransform="matrix(1,-0.0032,0.0032,1,26.0669,25.9785)"
     x1="-22.4639"
     y1="-32.381302"
     x2="-6.7638001"
     y2="-32.381302" /></defs><sodipodi:namedview
   pagecolor="#ffffff"
   bordercolor="#666666"
   borderopacity="1"
   objecttolerance="10"
   gridtolerance="10"
   guidetolerance="10"
   inkscape:pageopacity="0"
   inkscape:pageshadow="2"
   inkscape:window-width="1920"
   inkscape:window-height="1025"
   id="namedview398"
   showgrid="false"
   inkscape:zoom="1.065627"
   inkscape:cx="87.930162"
   inkscape:cy="-6.2563858"
   inkscape:window-x="-8"
   inkscape:window-y="-8"
   inkscape:window-maximized="1"
   inkscape:current-layer="flash0.ai"
   fit-margin-top="0"
   fit-margin-left="0"
   fit-margin-right="0"
   fit-margin-bottom="0" />
<symbol
   id="flash0.ai_x5F_7_x2F_Layer_29_x2F__x3C_Path_x3E__x5F_17"
   viewBox="0.037 -9.05 40.474 9.094"
   transform="translate(-5.2,216.864)">
	<g
   id="Layer_1_6_">
		<path
   style="clip-rule:evenodd;fill-rule:evenodd"
   d="m 31.65,-1.7 c 0.667,-0.1 1.667,-0.216 3,-0.35 0.934,-0.1 1.934,-0.567 3,-1.4 0.8,-0.566 1.5,-1.216 2.1,-1.95 0.567,-0.633 0.817,-1.133 0.75,-1.5 -0.1,-0.6 -0.883,-1.233 -2.35,-1.9 1.133,0.566 1.1,1.45 -0.1,2.65 -0.967,0.967 -2.15,1.75 -3.55,2.35 -0.867,0.4 -1.867,0.633 -3,0.7 -0.3,0.033 -1.25,0.05 -2.85,0.05 -0.7,0 -2,0.133 -3.9,0.4 -2.467,0.4 -4.217,0.65 -5.25,0.75 -1.467,0.133 -3.167,-0.033 -5.1,-0.5 -2.5,-0.567 -3.917,-0.867 -4.25,-0.9 -0.9,-0.1 -1.667,-0.417 -2.3,-0.95 -0.9,-0.767 -1.934,-1.367 -3.1,-1.8 -2.3,-0.867 -3.217,-1.867 -2.75,-3 -0.767,0.6 -1.3,1.15 -1.6,1.65 -0.467,0.4 -0.483,0.817 -0.05,1.25 0.3,0.3 0.983,0.75 2.05,1.35 0.6,0.333 1.433,0.95 2.5,1.85 1.067,0.733 2.183,1.117 3.35,1.15 1.067,0.066 2.733,0.333 5,0.8 2.4,0.5 3.95,0.783 4.65,0.85 4.033,0.4 7.367,0.183 10,-0.65 1.333,-0.433 2.583,-0.733 3.75,-0.9 z"
   id="path2"
   inkscape:connector-curvature="0" />
	</g>
</symbol>
<symbol
   id="flash0.ai_x5F_7_x2F_Layer_29_x2F__x3C_Path_x3E__x5F_18"
   viewBox="-0.082 -5.588 21.166 5.591"
   transform="translate(-5.2,216.864)">
	<g
   id="Layer_1_5_">
		<linearGradient
   id="SVGID_1_"
   gradientUnits="userSpaceOnUse"
   x1="0"
   y1="-2.7925"
   x2="21.1"
   y2="-2.7925">
			<stop
   offset="0"
   style="stop-color:#DEB41D"
   id="stop6" />
			<stop
   offset="1"
   style="stop-color:#D17D1D"
   id="stop8" />
		</linearGradient>
		<path
   style="clip-rule:evenodd;fill:url(#linearGradient1356);fill-rule:evenodd"
   d="m 20.9,-4.15 c 0.3,-0.333 0.233,-0.65 -0.2,-0.95 -0.5,-0.4 -1.25,-0.483 -2.25,-0.25 -1.3,0.4 -2.35,0.7 -3.15,0.9 -0.8,0.233 -2.3,0.083 -4.5,-0.45 -2.333,-0.567 -3.95,-0.783 -4.85,-0.65 -1.034,0.133 -2,0.566 -2.9,1.3 -1.167,0.933 -2,1.5 -2.5,1.7 -1.067,0.433 -0.783,0.95 0.85,1.55 1.633,0.6 3.483,0.867 5.55,0.8 0.2,0 1.417,0.067 3.65,0.2 0.733,0.033 1.6,-0.2 2.6,-0.7 0.933,-0.466 1.716,-0.617 2.35,-0.45 0.833,0.233 1.5,0.3 2,0.2 1.467,-0.267 2.333,-0.45 2.6,-0.55 0.7,-0.267 0.883,-0.7 0.55,-1.3 -0.233,-0.467 -0.167,-0.917 0.2,-1.35 z"
   id="path11"
   inkscape:connector-curvature="0" />
	</g>
</symbol>
<symbol
   id="flash0.ai_x5F_7_x2F_Layer_29_x2F__x3C_Path_x3E__x5F_34"
   viewBox="0 -12.55 12.75 12.55"
   transform="translate(-5.2,216.864)">
	<g
   id="Layer_1_4_">
		<path
   style="clip-rule:evenodd;fill:#595959;fill-rule:evenodd"
   d="M 12.75,-12.55 C 9.55,-11.317 6.833,-9.617 4.6,-7.45 2.333,-5.217 0.8,-2.733 0,0 L 0.35,-0.05 1.1,-0.5 c 0.533,-1.567 1.4,-3.2 2.6,-4.9 2.367,-3.267 5.383,-5.65 9.05,-7.15 z"
   id="path15"
   inkscape:connector-curvature="0" />
	</g>
</symbol>
<symbol
   id="flash0.ai_x5F_7_x2F_Layer_29_x2F__x3C_Path_x3E__x5F_35"
   viewBox="0 -13.1 17.2 13.1"
   transform="translate(-5.2,216.864)">
	<g
   id="Layer_1_3_">
		<path
   style="clip-rule:evenodd;fill:#595959;fill-rule:evenodd"
   d="M 10.15,-1.55 C 13.283,-1.083 15.633,-0.567 17.2,0 16.9,-0.933 16.433,-1.917 15.8,-2.95 14.533,-4.917 12.6,-6.9 10,-8.9 7.967,-10.5 5.417,-11.767 2.35,-12.7 L 0,-13.1 c 4.067,1.567 6.9,3.667 8.5,6.3 0.767,1.2 1.267,2.333 1.5,3.4 0.033,0.233 0.083,0.85 0.15,1.85 z"
   id="path19"
   inkscape:connector-curvature="0" />
	</g>
</symbol>
<symbol
   id="flash0.ai_x5F_7_x2F_Layer_29_x2F__x3C_Path_x3E__x5F_36"
   viewBox="0 -12.7 24.3 12.7"
   transform="translate(-5.2,216.864)">
	<g
   id="Layer_1_2_">
		
			<linearGradient
   id="SVGID_2_"
   gradientUnits="userSpaceOnUse"
   x1="-22.4639"
   y1="-32.381302"
   x2="-6.7638001"
   y2="-32.381302"
   gradientTransform="matrix(1,-0.0032,0.0032,1,26.0669,25.9785)">
			<stop
   offset="0"
   style="stop-color:#FFFFFF"
   id="stop23" />
			<stop
   offset="1"
   style="stop-color:#000000"
   id="stop25" />
		</linearGradient>
		<path
   style="clip-rule:evenodd;fill:url(#linearGradient1358);fill-rule:evenodd"
   d="m 24.3,-1.7 -3.2,-10.9 -2.35,-0.1 c -0.033,0 -0.95,0.05 -2.75,0.15 -1.133,0.167 -2.383,0.5 -3.75,1 -1.433,0.533 -2.633,1.117 -3.6,1.75 -3.066,2.033 -5.433,4.267 -7.1,6.7 C 0.717,-1.867 0.2,-0.833 0,0 l 2.65,-0.55 c 4.434,-0.833 9.867,-1.25 16.3,-1.25 z"
   id="path28"
   inkscape:connector-curvature="0" />
	</g>
</symbol>

<g
   id="g379"
   transform="matrix(7.2934473,0,0,7.2934473,-37.925926,-89.476012)">
		<path
   inkscape:connector-curvature="0"
   id="path213"
   d="m 39.737,28.487 0.15,-0.037 c -0.975,3.1 -3.037,5.649 -6.188,7.649 -3.225,2.025 -6.9,3.037 -11.025,3.037 -4.149,0 -7.837,-1.024 -11.063,-3.074 -3.2,-2.025 -5.25,-4.6 -6.149,-7.725 l 0.263,0.037 c 0.975,0.75 3.037,1.375 6.188,1.875 3.174,0.475 6.812,0.713 10.912,0.713 3.975,0 7.524,-0.238 10.65,-0.713 3.1,-0.449 5.187,-1.036 6.262,-1.762 z"
   style="clip-rule:evenodd;fill:#d9d9d9;fill-rule:evenodd" />
		
			<use
   x="0"
   id="use215"
   style="overflow:visible;opacity:0.71880002;enable-background:new"
   transform="matrix(0.75,0,0,-0.75,12.5001,192.2476)"
   y="-12.7"
   height="12.7"
   width="24.299999"
   xlink:href="#flash0.ai_x5F_7_x2F_Layer_29_x2F__x3C_Path_x3E__x5F_36" />
		
			<use
   x="0"
   id="use217"
   style="overflow:visible;opacity:0.16019999;enable-background:new"
   transform="matrix(0.75,0,0,-0.75,29.4,191.7476)"
   y="-13.1"
   height="13.1"
   width="17.200001"
   xlink:href="#flash0.ai_x5F_7_x2F_Layer_29_x2F__x3C_Path_x3E__x5F_35" />
		
			<use
   x="0"
   id="use219"
   style="overflow:visible;opacity:0.32030005;enable-background:new"
   transform="matrix(0.75,0,0,-0.75,9.3502,190.9976)"
   y="-12.55"
   height="12.55"
   width="12.75"
   xlink:href="#flash0.ai_x5F_7_x2F_Layer_29_x2F__x3C_Path_x3E__x5F_34" />
		
			<linearGradient
   gradientTransform="matrix(0.75,0,0,0.75,5.2002,20.5)"
   y2="8.6499004"
   x2="46.049801"
   y1="8.6499004"
   x1="0.79979998"
   gradientUnits="userSpaceOnUse"
   id="SVGID_23_">
			<stop
   id="stop221"
   style="stop-color:#7D7D7D"
   offset="0" />
			<stop
   id="stop223"
   style="stop-color:#D4D4D4"
   offset="1" />
		</linearGradient>
		<path
   inkscape:connector-curvature="0"
   id="path226"
   d="m 34.75,22.487 c 3.325,1.25 4.987,2.75 4.987,4.5 0,1.775 -1.662,3.275 -4.987,4.5 -3.3,1.25 -7.3,1.875 -12,1.875 -4.675,0 -8.675,-0.625 -12,-1.875 -3.3,-1.225 -4.95,-2.725 -4.95,-4.5 0,-1.75 1.65,-3.25 4.95,-4.5 3.325,-1.25 7.325,-1.875 12,-1.875 4.7,0 8.7,0.625 12,1.875 z"
   style="clip-rule:evenodd;fill:url(#SVGID_23_);fill-rule:evenodd" />
		<path
   inkscape:connector-curvature="0"
   id="path228"
   d="m 40.226,26.5 h -1.088 c -0.225,-1.55 -1.912,-2.862 -5.063,-3.938 -3.151,-1.076 -6.9,-1.612 -11.25,-1.612 -4.325,0 -8.063,0.537 -11.213,1.612 C 8.463,23.638 6.775,24.95 6.55,26.5 H 5.275 c 0.4,-1.675 2.262,-3.088 5.587,-4.237 C 14.237,21.088 18.2,20.5 22.75,20.5 c 4.575,0 8.537,0.588 11.888,1.763 3.35,1.149 5.213,2.562 5.588,4.237 z"
   style="clip-rule:evenodd;fill:#f5f5f5;fill-rule:evenodd" />
		
			<linearGradient
   gradientTransform="matrix(0.75,0,0,0.75,5.2002,20.5)"
   y2="10.7534"
   x2="44.060501"
   y1="10.7534"
   x1="3.5874"
   gradientUnits="userSpaceOnUse"
   id="SVGID_24_">
			<stop
   id="stop230"
   style="stop-color:#FFEA9E"
   offset="0" />
			<stop
   id="stop232"
   style="stop-color:#C7AC77"
   offset="1" />
		</linearGradient>
		<path
   inkscape:connector-curvature="0"
   id="path235"
   d="m 36.476,30.4 c -1.4,0.649 -3.438,1.287 -6.113,1.912 -3.05,0.725 -5.587,1.075 -7.612,1.05 -3.025,-0.05 -5.75,-0.325 -8.175,-0.825 -3.35,-0.725 -5.488,-1.787 -6.412,-3.188 -0.351,-0.3 -0.363,-0.612 -0.038,-0.938 0.226,-0.225 0.738,-0.563 1.538,-1.012 0.449,-0.25 1.075,-0.713 1.875,-1.388 0.8,-0.55 1.637,-0.838 2.512,-0.862 0.8,-0.051 2.05,-0.25 3.75,-0.601 1.801,-0.375 2.963,-0.587 3.488,-0.638 3.024,-0.3 5.524,-0.137 7.5,0.488 0.999,0.324 1.937,0.55 2.813,0.675 0.499,0.075 1.249,0.162 2.25,0.263 1.249,0.149 2.524,0.987 3.824,2.512 0.425,0.476 0.612,0.851 0.563,1.125 -0.076,0.452 -0.664,0.927 -1.763,1.427 z"
   style="clip-rule:evenodd;fill:url(#SVGID_24_);fill-rule:evenodd" />
		<path
   inkscape:connector-curvature="0"
   id="path237"
   d="m 14.612,27.025 c 0.425,0.074 0.538,0.237 0.338,0.487 -0.225,0.225 -0.5,0.337 -0.825,0.337 -0.524,0 -0.85,-0.012 -0.975,-0.037 -0.375,-0.075 -0.575,-0.275 -0.601,-0.6 -0.024,-0.325 0.188,-0.476 0.638,-0.45 0.025,0.001 0.501,0.088 1.425,0.263 z"
   style="clip-rule:evenodd;fill:#fff7db;fill-rule:evenodd" />
		<path
   inkscape:connector-curvature="0"
   id="path239"
   d="m 15.362,28.45 c 1.2,0 1.588,0.237 1.163,0.712 -0.45,0.476 -1.025,0.663 -1.726,0.563 -0.575,-0.1 -0.75,-0.337 -0.524,-0.712 0.225,-0.375 0.588,-0.563 1.087,-0.563 z"
   style="clip-rule:evenodd;fill:#fff7db;fill-rule:evenodd" />
		<path
   inkscape:connector-curvature="0"
   id="path241"
   d="m 11.538,28.975 c 0.5,0.051 0.563,0.226 0.188,0.525 -0.351,0.275 -0.763,0.3 -1.238,0.075 -0.449,-0.175 -0.475,-0.338 -0.074,-0.487 0.374,-0.15 0.749,-0.188 1.124,-0.113 z"
   style="clip-rule:evenodd;fill:#fff7db;fill-rule:evenodd" />
		<path
   inkscape:connector-curvature="0"
   id="path243"
   d="m 17.913,25.525 c 0.65,0.05 0.938,0.225 0.862,0.524 -0.05,0.325 -0.413,0.487 -1.088,0.487 -0.7,0 -1,-0.175 -0.899,-0.524 0.1,-0.35 0.475,-0.512 1.125,-0.487 z"
   style="clip-rule:evenodd;fill:#fff7db;fill-rule:evenodd" />
		<path
   inkscape:connector-curvature="0"
   id="path245"
   d="m 21.813,25.825 c 0.55,0.05 0.975,0.175 1.275,0.375 0.175,0.125 0.45,0.313 0.825,0.563 0.399,0.175 0.437,0.313 0.112,0.412 -0.3,0.075 -0.813,0.088 -1.538,0.038 -0.475,-0.025 -0.725,-0.125 -0.75,-0.301 -0.024,-0.225 -0.25,-0.375 -0.675,-0.449 -0.625,-0.125 -0.8,-0.275 -0.524,-0.45 0.275,-0.175 0.7,-0.238 1.275,-0.188 z"
   style="clip-rule:evenodd;fill:#fff7db;fill-rule:evenodd" />
		<path
   inkscape:connector-curvature="0"
   id="path247"
   d="m 21.25,27.588 c 0.725,0.05 1,0.225 0.825,0.524 -0.175,0.275 -0.638,0.325 -1.388,0.15 -0.675,-0.125 -0.837,-0.275 -0.487,-0.45 0.35,-0.175 0.7,-0.249 1.05,-0.224 z"
   style="clip-rule:evenodd;fill:#fff7db;fill-rule:evenodd" />
		<path
   inkscape:connector-curvature="0"
   id="path249"
   d="M 22.487,30.287 C 24.037,30.213 24.875,30.45 25,31 c 0.15,0.65 -0.225,0.85 -1.125,0.6 -0.55,-0.149 -0.949,-0.199 -1.2,-0.149 -0.3,0.05 -0.587,0.05 -0.862,0 -0.525,-0.05 -0.675,-0.25 -0.451,-0.601 0.226,-0.35 0.6,-0.537 1.125,-0.563 z"
   style="clip-rule:evenodd;fill:#fff7db;fill-rule:evenodd" />
		<path
   inkscape:connector-curvature="0"
   id="path251"
   d="m 19.038,30.325 c 0.35,0.024 0.425,0.125 0.225,0.3 -0.2,0.15 -0.462,0.225 -0.787,0.225 -0.325,0 -0.413,-0.1 -0.263,-0.3 0.149,-0.175 0.425,-0.25 0.825,-0.225 z"
   style="clip-rule:evenodd;fill:#fff7db;fill-rule:evenodd" />
		<path
   inkscape:connector-curvature="0"
   id="path253"
   d="m 29.05,27.588 c 1.051,-0.025 1.601,0.175 1.65,0.6 0.024,0.375 -0.25,0.675 -0.825,0.9 -0.35,0.149 -0.574,0.188 -0.675,0.112 -0.3,-0.2 -0.638,-0.338 -1.013,-0.413 -0.625,-0.149 -0.762,-0.387 -0.412,-0.712 0.35,-0.3 0.776,-0.463 1.275,-0.487 z"
   style="clip-rule:evenodd;fill:#fff7db;fill-rule:evenodd" />
		<path
   inkscape:connector-curvature="0"
   id="path255"
   d="m 33.101,28.9 c 0.925,0.125 1.175,0.375 0.75,0.75 -0.4,0.375 -0.9,0.475 -1.5,0.3 -0.501,-0.15 -0.601,-0.375 -0.301,-0.675 0.275,-0.3 0.626,-0.425 1.051,-0.375 z"
   style="clip-rule:evenodd;fill:#fff7db;fill-rule:evenodd" />
		<path
   inkscape:connector-curvature="0"
   id="path257"
   d="m 29.05,25.9 c 0.876,0 1.175,0.125 0.9,0.375 -0.275,0.25 -0.7,0.35 -1.275,0.3 C 28.2,26.55 28.038,26.437 28.188,26.237 28.363,26.013 28.65,25.9 29.05,25.9 Z"
   style="clip-rule:evenodd;fill:#fff7db;fill-rule:evenodd" />
		<path
   inkscape:connector-curvature="0"
   id="path259"
   d="m 29.688,30.325 c 1.05,0.149 1.375,0.313 0.976,0.487 -0.351,0.175 -0.8,0.263 -1.351,0.263 -0.35,0 -0.45,-0.138 -0.3,-0.413 0.15,-0.25 0.375,-0.362 0.675,-0.337 z"
   style="clip-rule:evenodd;fill:#fff7db;fill-rule:evenodd" />
		
			<use
   id="use261"
   style="overflow:visible;opacity:0.78910002;enable-background:new"
   transform="matrix(0.75,0,0,-0.75,19.7999,188.7476)"
   y="-5.5879998"
   x="-0.082000002"
   height="5.5910001"
   width="21.166"
   xlink:href="#flash0.ai_x5F_7_x2F_Layer_29_x2F__x3C_Path_x3E__x5F_18" />
		
			<use
   id="use263"
   style="overflow:visible;opacity:0.17190001;enable-background:new"
   transform="matrix(0.75,0,0,-0.75,11.7501,186.4478)"
   y="-9.0500002"
   x="0.037"
   height="9.0939999"
   width="40.473999"
   xlink:href="#flash0.ai_x5F_7_x2F_Layer_29_x2F__x3C_Path_x3E__x5F_17" />
		
			<linearGradient
   gradientTransform="matrix(0.75,0,0,0.75,5.2002,20.5)"
   y2="8.6254997"
   x2="25.362301"
   y1="8.6254997"
   x1="18.737301"
   gradientUnits="userSpaceOnUse"
   id="SVGID_25_">
			<stop
   id="stop265"
   style="stop-color:#BA782D"
   offset="0" />
			<stop
   id="stop267"
   style="stop-color:#8C5414"
   offset="1" />
		</linearGradient>
		<path
   inkscape:connector-curvature="0"
   id="path270"
   d="m 21.175,25.825 c 2.751,0.1 3.626,0.774 2.625,2.024 -0.3,0.4 -1.012,0.351 -2.137,-0.149 -0.301,-0.125 -0.726,-0.263 -1.275,-0.413 -0.375,-0.125 -0.7,-0.274 -0.975,-0.449 -0.325,-0.226 -0.25,-0.463 0.225,-0.713 0.425,-0.225 0.937,-0.325 1.537,-0.3 z"
   style="clip-rule:evenodd;fill:url(#SVGID_25_);fill-rule:evenodd" />
		
			<linearGradient
   gradientTransform="matrix(0.75,0,0,0.75,5.2002,20.5)"
   y2="9.9053001"
   x2="25.1623"
   y1="9.9053001"
   x1="21.737301"
   gradientUnits="userSpaceOnUse"
   id="SVGID_26_">
			<stop
   id="stop272"
   style="stop-color:#BA782D"
   offset="0" />
			<stop
   id="stop274"
   style="stop-color:#8C5414"
   offset="1" />
		</linearGradient>
		<path
   inkscape:connector-curvature="0"
   id="path277"
   d="m 22.487,27.213 c 1.051,0 1.588,0.25 1.613,0.75 0,0.5 -0.476,0.725 -1.426,0.675 -0.874,-0.025 -1.262,-0.263 -1.162,-0.713 0.076,-0.475 0.401,-0.712 0.975,-0.712 z"
   style="clip-rule:evenodd;fill:url(#SVGID_26_);fill-rule:evenodd" />
		
			<linearGradient
   gradientTransform="matrix(0.75,0,0,0.75,5.2002,20.5)"
   y2="9.9057999"
   x2="18.4501"
   y1="9.9057999"
   x1="15.8501"
   gradientUnits="userSpaceOnUse"
   id="SVGID_27_">
			<stop
   id="stop279"
   style="stop-color:#BA782D"
   offset="0" />
			<stop
   id="stop281"
   style="stop-color:#8C5414"
   offset="1" />
		</linearGradient>
		<path
   inkscape:connector-curvature="0"
   id="path284"
   d="m 17.8,27.325 c 1.075,0 1.476,0.212 1.2,0.638 -0.3,0.425 -0.737,0.612 -1.313,0.563 -0.45,-0.025 -0.638,-0.238 -0.563,-0.638 0.051,-0.375 0.276,-0.563 0.676,-0.563 z"
   style="clip-rule:evenodd;fill:url(#SVGID_27_);fill-rule:evenodd" />
		
			<linearGradient
   gradientTransform="matrix(0.75,0,0,0.75,5.2002,20.5)"
   y2="11.3081"
   x2="21.385401"
   y1="11.3081"
   x1="18.7104"
   gradientUnits="userSpaceOnUse"
   id="SVGID_28_">
			<stop
   id="stop286"
   style="stop-color:#BA782D"
   offset="0" />
			<stop
   id="stop288"
   style="stop-color:#8C5414"
   offset="1" />
		</linearGradient>
		<path
   inkscape:connector-curvature="0"
   id="path291"
   d="m 20.237,28.6 c 1.025,0.101 1.3,0.263 0.825,0.488 -0.5,0.25 -0.987,0.337 -1.462,0.262 -0.351,-0.074 -0.45,-0.237 -0.301,-0.487 0.151,-0.225 0.464,-0.313 0.938,-0.263 z"
   style="clip-rule:evenodd;fill:url(#SVGID_28_);fill-rule:evenodd" />
		
			<linearGradient
   gradientTransform="matrix(0.75,0,0,0.75,5.2002,20.5)"
   y2="7.7451"
   x2="28.450199"
   y1="7.7451"
   x1="25.450199"
   gradientUnits="userSpaceOnUse"
   id="SVGID_29_">
			<stop
   id="stop293"
   style="stop-color:#BA782D"
   offset="0" />
			<stop
   id="stop295"
   style="stop-color:#8C5414"
   offset="1" />
		</linearGradient>
		<path
   inkscape:connector-curvature="0"
   id="path298"
   d="m 25.75,25.9 c 0.9,0.024 1.075,0.188 0.525,0.487 -0.551,0.325 -1.088,0.412 -1.612,0.263 -0.476,-0.125 -0.538,-0.288 -0.188,-0.488 0.326,-0.199 0.751,-0.287 1.275,-0.262 z"
   style="clip-rule:evenodd;fill:url(#SVGID_29_);fill-rule:evenodd" />
		
			<linearGradient
   gradientTransform="matrix(0.75,0,0,0.75,5.2002,20.5)"
   y2="10.3779"
   x2="29.887501"
   y1="10.3779"
   x1="26.3125"
   gradientUnits="userSpaceOnUse"
   id="SVGID_30_">
			<stop
   id="stop300"
   style="stop-color:#BA782D"
   offset="0" />
			<stop
   id="stop302"
   style="stop-color:#8C5414"
   offset="1" />
		</linearGradient>
		<path
   inkscape:connector-curvature="0"
   id="path305"
   d="m 26.5,27.7 c 0.7,0.075 1.063,0.2 1.088,0.375 0.025,0.125 -0.112,0.313 -0.413,0.563 -0.2,0.2 -0.462,0.274 -0.787,0.225 -0.45,-0.075 -0.837,-0.149 -1.162,-0.225 -0.45,-0.101 -0.463,-0.288 -0.038,-0.563 0.425,-0.3 0.862,-0.425 1.312,-0.375 z"
   style="clip-rule:evenodd;fill:url(#SVGID_30_);fill-rule:evenodd" />
		
			<linearGradient
   gradientTransform="matrix(0.75,0,0,0.75,5.2002,20.5)"
   y2="11.4434"
   x2="30.874599"
   y1="11.4434"
   x1="27.2246"
   gradientUnits="userSpaceOnUse"
   id="SVGID_31_">
			<stop
   id="stop307"
   style="stop-color:#BA782D"
   offset="0" />
			<stop
   id="stop309"
   style="stop-color:#8C5414"
   offset="1" />
		</linearGradient>
		<path
   inkscape:connector-curvature="0"
   id="path312"
   d="m 26.538,28.6 c 0.55,0.101 1.012,0.25 1.387,0.45 0.4,0.175 0.525,0.313 0.375,0.413 -0.124,0.074 -0.388,0.112 -0.787,0.112 -0.575,-0.025 -1.038,-0.038 -1.388,-0.038 -0.5,0 -0.638,-0.175 -0.412,-0.524 0.225,-0.325 0.5,-0.463 0.825,-0.413 z"
   style="clip-rule:evenodd;fill:url(#SVGID_31_);fill-rule:evenodd" />
		
			<linearGradient
   gradientTransform="matrix(0.75,0,0,0.75,5.2002,20.5)"
   y2="13.0513"
   x2="28.2502"
   y1="13.0513"
   x1="25.450199"
   gradientUnits="userSpaceOnUse"
   id="SVGID_32_">
			<stop
   id="stop314"
   style="stop-color:#BA782D"
   offset="0" />
			<stop
   id="stop316"
   style="stop-color:#8C5414"
   offset="1" />
		</linearGradient>
		<path
   inkscape:connector-curvature="0"
   id="path319"
   d="m 24.737,29.725 c 1.2,0 1.751,0.176 1.65,0.525 -0.101,0.349 -0.5,0.55 -1.2,0.6 -0.55,0.025 -0.85,-0.162 -0.899,-0.563 -0.05,-0.375 0.1,-0.562 0.449,-0.562 z"
   style="clip-rule:evenodd;fill:url(#SVGID_32_);fill-rule:evenodd" />
		
			<linearGradient
   gradientTransform="matrix(0.75,0,0,0.75,5.2002,20.5)"
   y2="10.9502"
   x2="34.8498"
   y1="10.9502"
   x1="32.549801"
   gradientUnits="userSpaceOnUse"
   id="SVGID_33_">
			<stop
   id="stop321"
   style="stop-color:#BA782D"
   offset="0" />
			<stop
   id="stop323"
   style="stop-color:#8C5414"
   offset="1" />
		</linearGradient>
		<path
   inkscape:connector-curvature="0"
   id="path326"
   d="m 30.737,28.263 c 0.55,-0.101 0.726,0.05 0.525,0.45 -0.2,0.399 -0.587,0.55 -1.162,0.449 -0.525,-0.074 -0.65,-0.225 -0.375,-0.449 0.225,-0.2 0.563,-0.351 1.012,-0.45 z"
   style="clip-rule:evenodd;fill:url(#SVGID_33_);fill-rule:evenodd" />
		
			<linearGradient
   gradientTransform="matrix(0.75,0,0,0.75,5.2002,20.5)"
   y2="8.4434004"
   x2="35.0252"
   y1="8.4434004"
   x1="32.575199"
   gradientUnits="userSpaceOnUse"
   id="SVGID_34_">
			<stop
   id="stop328"
   style="stop-color:#BA782D"
   offset="0" />
			<stop
   id="stop330"
   style="stop-color:#8C5414"
   offset="1" />
		</linearGradient>
		<path
   inkscape:connector-curvature="0"
   id="path333"
   d="m 30.813,26.388 c 0.65,0.075 0.862,0.25 0.638,0.524 -0.225,0.25 -0.649,0.375 -1.275,0.375 -0.575,0 -0.712,-0.162 -0.412,-0.487 0.3,-0.325 0.648,-0.462 1.049,-0.412 z"
   style="clip-rule:evenodd;fill:url(#SVGID_34_);fill-rule:evenodd" />
		
			<linearGradient
   gradientTransform="matrix(0.75,0,0,0.75,5.2002,20.5)"
   y2="6.1034999"
   x2="25.149799"
   y1="6.1034999"
   x1="22.549801"
   gradientUnits="userSpaceOnUse"
   id="SVGID_35_">
			<stop
   id="stop335"
   style="stop-color:#BA782D"
   offset="0" />
			<stop
   id="stop337"
   style="stop-color:#8C5414"
   offset="1" />
		</linearGradient>
		<path
   inkscape:connector-curvature="0"
   id="path340"
   d="m 23.125,24.662 c 0.825,0.25 1.1,0.476 0.825,0.676 -0.225,0.175 -0.675,0.237 -1.35,0.188 -0.525,-0.025 -0.663,-0.2 -0.413,-0.525 0.276,-0.351 0.588,-0.464 0.938,-0.339 z"
   style="clip-rule:evenodd;fill:url(#SVGID_35_);fill-rule:evenodd" />
		
			<linearGradient
   gradientTransform="matrix(0.75,0,0,0.75,5.2002,20.5)"
   y2="6.5668998"
   x2="19.7127"
   y1="6.5668998"
   x1="17.887699"
   gradientUnits="userSpaceOnUse"
   id="SVGID_36_">
			<stop
   id="stop342"
   style="stop-color:#BA782D"
   offset="0" />
			<stop
   id="stop344"
   style="stop-color:#8C5414"
   offset="1" />
		</linearGradient>
		<path
   inkscape:connector-curvature="0"
   id="path347"
   d="m 19.413,25.075 c 0.449,0.1 0.637,0.237 0.563,0.412 -0.075,0.2 -0.363,0.3 -0.863,0.3 -0.475,0 -0.625,-0.137 -0.449,-0.412 0.173,-0.25 0.424,-0.35 0.749,-0.3 z"
   style="clip-rule:evenodd;fill:url(#SVGID_36_);fill-rule:evenodd" />
		
			<linearGradient
   gradientTransform="matrix(0.75,0,0,0.75,5.2002,20.5)"
   y2="8.8212996"
   x2="16.1502"
   y1="8.8212996"
   x1="13.4502"
   gradientUnits="userSpaceOnUse"
   id="SVGID_37_">
			<stop
   id="stop349"
   style="stop-color:#BA782D"
   offset="0" />
			<stop
   id="stop351"
   style="stop-color:#8C5414"
   offset="1" />
		</linearGradient>
		<path
   inkscape:connector-curvature="0"
   id="path354"
   d="m 16.487,26.575 c 0.45,-0.025 0.726,0.037 0.825,0.188 0.075,0.1 0.013,0.212 -0.188,0.337 -0.175,0.15 -0.313,0.263 -0.412,0.338 -0.226,0.15 -0.55,0.225 -0.976,0.225 -0.5,0 -0.612,-0.175 -0.337,-0.524 0.276,-0.326 0.639,-0.514 1.088,-0.564 z"
   style="clip-rule:evenodd;fill:url(#SVGID_37_);fill-rule:evenodd" />
		
			<linearGradient
   gradientTransform="matrix(0.75,0,0,0.75,5.2002,20.5)"
   y2="10.7983"
   x2="15.5375"
   y1="10.7983"
   x1="13.0625"
   gradientUnits="userSpaceOnUse"
   id="SVGID_38_">
			<stop
   id="stop356"
   style="stop-color:#BA782D"
   offset="0" />
			<stop
   id="stop358"
   style="stop-color:#8C5414"
   offset="1" />
		</linearGradient>
		<path
   inkscape:connector-curvature="0"
   id="path361"
   d="m 15.851,28.15 c 1,0.199 1.262,0.425 0.787,0.675 -0.5,0.225 -0.962,0.287 -1.388,0.188 -0.325,-0.05 -0.375,-0.226 -0.149,-0.525 0.199,-0.275 0.449,-0.388 0.75,-0.338 z"
   style="clip-rule:evenodd;fill:url(#SVGID_38_);fill-rule:evenodd" />
		
			<linearGradient
   gradientTransform="matrix(0.75,0,0,0.75,5.2002,20.5)"
   y2="12.8232"
   x2="17.799801"
   y1="12.8232"
   x1="15.2998"
   gradientUnits="userSpaceOnUse"
   id="SVGID_39_">
			<stop
   id="stop363"
   style="stop-color:#BA782D"
   offset="0" />
			<stop
   id="stop365"
   style="stop-color:#8C5414"
   offset="1" />
		</linearGradient>
		<path
   inkscape:connector-curvature="0"
   id="path368"
   d="m 17.351,29.575 c 0.899,0.1 1.299,0.3 1.199,0.6 -0.125,0.325 -0.524,0.487 -1.199,0.487 -0.525,0 -0.75,-0.188 -0.676,-0.563 0.1,-0.374 0.325,-0.549 0.676,-0.524 z"
   style="clip-rule:evenodd;fill:url(#SVGID_39_);fill-rule:evenodd" />
		
			<linearGradient
   gradientTransform="matrix(0.75,0,0,0.75,5.2002,20.5)"
   y2="11.208"
   x2="10.9118"
   y1="11.208"
   x1="9.4868002"
   gradientUnits="userSpaceOnUse"
   id="SVGID_40_">
			<stop
   id="stop370"
   style="stop-color:#BA782D"
   offset="0" />
			<stop
   id="stop372"
   style="stop-color:#8C5414"
   offset="1" />
		</linearGradient>
		<path
   inkscape:connector-curvature="0"
   id="path375"
   d="m 12.737,28.525 c 0.475,0 0.688,0.112 0.638,0.337 -0.05,0.226 -0.237,0.362 -0.563,0.413 -0.275,0.05 -0.437,-0.063 -0.487,-0.338 -0.05,-0.275 0.088,-0.412 0.412,-0.412 z"
   style="clip-rule:evenodd;fill:url(#SVGID_40_);fill-rule:evenodd" />
		<path
   inkscape:connector-curvature="0"
   id="path377"
   d="m 39.138,26.5 h 1.088 c 0.05,0.125 0.074,0.313 0.074,0.563 0,1.825 -1.712,3.375 -5.137,4.65 -3.425,1.274 -7.563,1.912 -12.413,1.912 -4.85,0 -8.987,-0.638 -12.412,-1.912 C 6.913,30.438 5.2,28.888 5.2,27.063 L 5.275,26.5 H 6.55 v 0.3 c 0,1.625 1.588,3 4.763,4.125 3.175,1.15 7.013,1.726 11.513,1.726 4.524,0 8.375,-0.575 11.55,-1.726 3.176,-1.125 4.763,-2.5 4.763,-4.125 v -0.3 z"
   style="clip-rule:evenodd;fill:#f5f5f5;fill-rule:evenodd" />
	</g>
</svg>