<?xml version="1.0" encoding="UTF-8" standalone="no"?>
<!-- Generator: Adobe Illustrator 15.1.0, SVG Export Plug-In . SVG Version: 6.00 Build 0)  -->

<svg
   xmlns:dc="http://purl.org/dc/elements/1.1/"
   xmlns:cc="http://creativecommons.org/ns#"
   xmlns:rdf="http://www.w3.org/1999/02/22-rdf-syntax-ns#"
   xmlns:svg="http://www.w3.org/2000/svg"
   xmlns="http://www.w3.org/2000/svg"
   xmlns:xlink="http://www.w3.org/1999/xlink"
   xmlns:sodipodi="http://sodipodi.sourceforge.net/DTD/sodipodi-0.dtd"
   xmlns:inkscape="http://www.inkscape.org/namespaces/inkscape"
   version="1.1"
   id="flash0.ai"
   x="0px"
   y="0px"
   width="256"
   height="256"
   viewBox="0 0 255.99999 256"
   xml:space="preserve"
   sodipodi:docname="honey.svg"
   inkscape:version="0.92.4 (5da689c313, 2019-01-14)"
   inkscape:export-xdpi="10.5"
   inkscape:export-ydpi="10.5"><title
   id="title1045">Honey</title><metadata
   id="metadata238"><rdf:RDF><cc:Work
       rdf:about=""><dc:format>image/svg+xml</dc:format><dc:type
         rdf:resource="http://purl.org/dc/dcmitype/StillImage" /><dc:title>Honey</dc:title><cc:license
         rdf:resource="http://creativecommons.org/publicdomain/zero/1.0/" /><dc:creator><cc:Agent><dc:title>Glitch</dc:title></cc:Agent></dc:creator><dc:source>https://opengameart.org/node/20149</dc:source></cc:Work><cc:License
       rdf:about="http://creativecommons.org/publicdomain/zero/1.0/"><cc:permits
         rdf:resource="http://creativecommons.org/ns#Reproduction" /><cc:permits
         rdf:resource="http://creativecommons.org/ns#Distribution" /><cc:permits
         rdf:resource="http://creativecommons.org/ns#DerivativeWorks" /></cc:License></rdf:RDF></metadata><defs
   id="defs236"><linearGradient
     inkscape:collect="always"
     xlink:href="#SVGID_1_"
     id="linearGradient1026"
     gradientUnits="userSpaceOnUse"
     x1="0"
     y1="-1.9502"
     x2="28.200199"
     y2="-1.9502" /><linearGradient
     inkscape:collect="always"
     xlink:href="#SVGID_2_"
     id="linearGradient1028"
     gradientUnits="userSpaceOnUse"
     gradientTransform="matrix(7.246377e-5,1,-1,-0.001,1.4067,-16354.172)"
     x1="16338.473"
     y1="0.84079999"
     x2="16352.272"
     y2="0.84079999" /><linearGradient
     inkscape:collect="always"
     xlink:href="#SVGID_3_"
     id="linearGradient1030"
     gradientUnits="userSpaceOnUse"
     gradientTransform="matrix(4.56621e-5,-1,1,-0.001,16345.628,-6.1719)"
     x1="14.5205"
     y1="-16342.921"
     x2="36.420502"
     y2="-16342.921" /><linearGradient
     inkscape:collect="always"
     xlink:href="#SVGID_4_"
     id="linearGradient1032"
     gradientUnits="userSpaceOnUse"
     gradientTransform="matrix(0.9744,0.2249,-0.2249,0.9744,-1628.7012,-2048.0391)"
     x1="2050.2607"
     y1="1623.0049"
     x2="2074.3789"
     y2="1623.0049" /><radialGradient
     inkscape:collect="always"
     xlink:href="#SVGID_5_"
     id="radialGradient1034"
     gradientUnits="userSpaceOnUse"
     gradientTransform="matrix(1,0,0,-1,0,-1.9004)"
     cx="0.95020002"
     cy="-0.95020002"
     r="0" /><radialGradient
     inkscape:collect="always"
     xlink:href="#SVGID_6_"
     id="radialGradient1036"
     gradientUnits="userSpaceOnUse"
     gradientTransform="matrix(1,0,0,-1,0,-5.0391)"
     cx="2.5195"
     cy="-2.5195"
     r="0.63880002" /><radialGradient
     inkscape:collect="always"
     xlink:href="#SVGID_7_"
     id="radialGradient1038"
     gradientUnits="userSpaceOnUse"
     gradientTransform="matrix(1,0,0,-1,0,-0.75)"
     cx="0.375"
     cy="-0.375"
     r="0.0328" /><radialGradient
     inkscape:collect="always"
     xlink:href="#SVGID_8_"
     id="radialGradient1040"
     gradientUnits="userSpaceOnUse"
     gradientTransform="matrix(1,0,0,-1,0,-4.8994)"
     cx="2.3627999"
     cy="-2.4497001"
     r="0.56730002" /><radialGradient
     inkscape:collect="always"
     xlink:href="#SVGID_9_"
     id="radialGradient1042"
     gradientUnits="userSpaceOnUse"
     gradientTransform="matrix(1,0,0,-1,0,-3.4004)"
     cx="1.7002"
     cy="-1.7002"
     r="1.6876" /><radialGradient
     inkscape:collect="always"
     xlink:href="#SVGID_10_"
     id="radialGradient1044"
     gradientUnits="userSpaceOnUse"
     gradientTransform="matrix(1,0,0,-1,0,-4.2891)"
     cx="2.1445"
     cy="-2.1445"
     r="0.40189999" /><radialGradient
     inkscape:collect="always"
     xlink:href="#SVGID_11_"
     id="radialGradient1046"
     gradientUnits="userSpaceOnUse"
     gradientTransform="matrix(1,0,0,-1,0,-3.0996)"
     cx="1.5498"
     cy="-1.5498"
     r="1.5247999" /><radialGradient
     inkscape:collect="always"
     xlink:href="#SVGID_12_"
     id="radialGradient1048"
     gradientUnits="userSpaceOnUse"
     gradientTransform="matrix(1,0,0,-1,0,-4.0293)"
     cx="2.0796001"
     cy="-2.0146"
     r="0.37189999" /><radialGradient
     inkscape:collect="always"
     xlink:href="#SVGID_13_"
     id="radialGradient1050"
     gradientUnits="userSpaceOnUse"
     gradientTransform="matrix(1,0,0,-1,0,-2.5996)"
     cx="1.3501"
     cy="-1.2998"
     r="1.3252" /><linearGradient
     inkscape:collect="always"
     xlink:href="#SVGID_14_"
     id="linearGradient1052"
     gradientUnits="userSpaceOnUse"
     gradientTransform="matrix(4.352557e-5,-1,1,-0.001,16345.644,-6.1724)"
     x1="12.9707"
     y1="-16330.57"
     x2="35.945702"
     y2="-16330.57" /><linearGradient
     inkscape:collect="always"
     xlink:href="#SVGID_15_"
     id="linearGradient1054"
     gradientUnits="userSpaceOnUse"
     x1="0"
     y1="-16.674801"
     x2="32.450001"
     y2="-16.674801" /><linearGradient
     inkscape:collect="always"
     xlink:href="#SVGID_16_"
     id="linearGradient1056"
     gradientUnits="userSpaceOnUse"
     gradientTransform="matrix(0.0023,-1,1,0.0023,16327.101,20.8516)"
     x1="-15.7441"
     y1="-16311.746"
     x2="5.9059"
     y2="-16311.746" /></defs><sodipodi:namedview
   pagecolor="#ffffff"
   bordercolor="#666666"
   borderopacity="1"
   objecttolerance="10"
   gridtolerance="10"
   guidetolerance="10"
   inkscape:pageopacity="0"
   inkscape:pageshadow="2"
   inkscape:window-width="1920"
   inkscape:window-height="1025"
   id="namedview234"
   showgrid="false"
   inkscape:zoom="1.0575234"
   inkscape:cx="-15.839174"
   inkscape:cy="100.97009"
   inkscape:window-x="-8"
   inkscape:window-y="-8"
   inkscape:window-maximized="1"
   inkscape:current-layer="flash0.ai"
   fit-margin-top="0"
   fit-margin-left="0"
   fit-margin-right="0"
   fit-margin-bottom="0" />
<symbol
   id="flash0.ai_x5F_3_x2F_Layer_4_x2F__x3C_Path_x3E__x5F_21"
   viewBox="0 -3.9 28.2 3.9"
   transform="translate(88.318089,108.28619)">
	<g
   id="Layer_1_16_">
		<linearGradient
   id="SVGID_1_"
   gradientUnits="userSpaceOnUse"
   x1="0"
   y1="-1.9502"
   x2="28.200199"
   y2="-1.9502">
			<stop
   offset="0"
   style="stop-color:#FFFFFF"
   id="stop2" />
			<stop
   offset="1"
   style="stop-color:#CC9C74"
   id="stop4" />
		</linearGradient>
		<polygon
   style="clip-rule:evenodd;fill:url(#linearGradient1026);fill-rule:evenodd"
   points="28.2,-3.9 0,-3.9 0,0 28.2,0 "
   id="polygon7" />
	</g>
</symbol>
<symbol
   id="flash0.ai_x5F_3_x2F_Layer_4_x2F__x3C_Path_x3E__x5F_22"
   viewBox="0 -17.944 3.5 17.944"
   transform="translate(88.318089,108.28619)">
	<g
   id="Layer_1_15_">
		
			<linearGradient
   id="SVGID_2_"
   gradientUnits="userSpaceOnUse"
   x1="16338.473"
   y1="0.84079999"
   x2="16352.272"
   y2="0.84079999"
   gradientTransform="matrix(7.246377e-5,1,-1,-0.001,1.4067,-16354.172)">
			<stop
   offset="0"
   style="stop-color:#000000"
   id="stop11" />
			<stop
   offset="1"
   style="stop-color:#FFFFFF"
   id="stop13" />
		</linearGradient>
		<path
   style="clip-rule:evenodd;fill:url(#linearGradient1028);fill-rule:evenodd"
   d="m 3.5,-10.25 c 0,-4.433 -0.05,-6.95 -0.15,-7.55 -0.067,-0.467 -0.184,0.2 -0.35,2 -0.6,5.9 -1.017,8.85 -1.25,8.85 -0.267,0 -0.683,-2.95 -1.25,-8.85 -0.167,-1.8 -0.283,-2.467 -0.35,-2 C 0.05,-17.2 0,-14.683 0,-10.25 0,-7.383 0.167,-4.967 0.5,-3 0.833,-1 1.25,0 1.75,0 2.217,0 2.633,-1 3,-3 3.333,-5 3.5,-7.417 3.5,-10.25 Z"
   id="path16"
   inkscape:connector-curvature="0" />
	</g>
</symbol>
<symbol
   id="flash0.ai_x5F_3_x2F_Layer_4_x2F__x3C_Path_x3E__x5F_25"
   viewBox="0 -32.05 5.412 32.05"
   transform="translate(88.318089,108.28619)">
	<g
   id="Layer_1_14_">
		
			<linearGradient
   id="SVGID_3_"
   gradientUnits="userSpaceOnUse"
   x1="14.5205"
   y1="-16342.921"
   x2="36.420502"
   y2="-16342.921"
   gradientTransform="matrix(4.56621e-5,-1,1,-0.001,16345.628,-6.1719)">
			<stop
   offset="0"
   style="stop-color:#FFFFFF"
   id="stop20" />
			<stop
   offset="1"
   style="stop-color:#000000"
   id="stop22" />
		</linearGradient>
		<path
   style="clip-rule:evenodd;fill:url(#linearGradient1030);fill-rule:evenodd"
   d="m 4.75,-2.5 c -0.733,-1 -1.067,-2.3 -1,-3.9 v -23.15 l -0.1,-0.7 c 0,-0.567 0.067,-1.167 0.2,-1.8 -1.333,0.167 -2.25,0.333 -2.75,0.5 -0.367,0.5 -0.65,1.017 -0.85,1.55 L 0,-29.3 v 22.75 c 0,1 0.2,1.8 0.6,2.4 0.533,0.6 0.917,1.066 1.15,1.4 0.467,0.6 0.733,1.517 0.8,2.75 H 5.4 C 5.467,-0.967 5.25,-1.8 4.75,-2.5 Z"
   id="path25"
   inkscape:connector-curvature="0" />
	</g>
</symbol>
<symbol
   id="flash0.ai_x5F_3_x2F_Layer_4_x2F__x3C_Path_x3E__x5F_26"
   viewBox="0 -5.7 30.25 5.7"
   transform="translate(88.318089,108.28619)">
	<g
   id="Layer_1_13_">
		
			<linearGradient
   id="SVGID_4_"
   gradientUnits="userSpaceOnUse"
   x1="2050.2607"
   y1="1623.0049"
   x2="2074.3789"
   y2="1623.0049"
   gradientTransform="matrix(0.9744,0.2249,-0.2249,0.9744,-1628.7012,-2048.0391)">
			<stop
   offset="0"
   style="stop-color:#F59200"
   id="stop29" />
			<stop
   offset="1"
   style="stop-color:#FFC800"
   id="stop31" />
		</linearGradient>
		<path
   style="clip-rule:evenodd;fill:url(#linearGradient1032);fill-rule:evenodd"
   d="m 30.25,-2.85 c 0,-0.8 -1.483,-1.483 -4.45,-2.05 -2.933,-0.533 -6.5,-0.8 -10.7,-0.8 -4.2,0 -7.767,0.267 -10.7,0.8 -2.933,0.567 -4.4,1.25 -4.4,2.05 0,0.767 1.467,1.434 4.4,2 2.967,0.567 6.533,0.85 10.7,0.85 4.167,0 7.733,-0.283 10.7,-0.85 2.967,-0.567 4.45,-1.233 4.45,-2 z"
   id="path34"
   inkscape:connector-curvature="0" />
	</g>
</symbol>
<symbol
   id="flash0.ai_x5F_3_x2F_Layer_4_x2F__x3C_Path_x3E__x5F_27"
   viewBox="0 -0.95 0.95 0.95"
   transform="translate(88.318089,108.28619)">
	<g
   id="Layer_1_12_">
		
			<radialGradient
   id="SVGID_5_"
   cx="0.95020002"
   cy="-0.95020002"
   r="0"
   gradientTransform="matrix(1,0,0,-1,0,-1.9004)"
   gradientUnits="userSpaceOnUse">
			<stop
   offset="0"
   style="stop-color:#FFCB0F"
   id="stop38" />
			<stop
   offset="1"
   style="stop-color:#E09500"
   id="stop40" />
		</radialGradient>
		<path
   style="clip-rule:evenodd;fill:url(#radialGradient1034);fill-rule:evenodd"
   d="M 0.95,-0.5 C 0.95,-0.8 0.8,-0.95 0.5,-0.95 0.167,-0.95 0,-0.8 0,-0.5 0,-0.167 0.167,0 0.5,0 0.8,0 0.95,-0.167 0.95,-0.5 Z"
   id="path43"
   inkscape:connector-curvature="0" />
	</g>
</symbol>
<symbol
   id="flash0.ai_x5F_3_x2F_Layer_4_x2F__x3C_Path_x3E__x5F_28"
   viewBox="0 -1.8 1.8 1.8"
   transform="translate(88.318089,108.28619)">
	<g
   id="Layer_1_11_">
		
			<radialGradient
   id="SVGID_6_"
   cx="2.5195"
   cy="-2.5195"
   r="0.63880002"
   gradientTransform="matrix(1,0,0,-1,0,-5.0391)"
   gradientUnits="userSpaceOnUse">
			<stop
   offset="0"
   style="stop-color:#FFCB0F"
   id="stop47" />
			<stop
   offset="1"
   style="stop-color:#E09500"
   id="stop49" />
		</radialGradient>
		<path
   style="clip-rule:evenodd;fill:url(#radialGradient1036);fill-rule:evenodd"
   d="M 1.8,-0.9 C 1.8,-1.167 1.717,-1.383 1.55,-1.55 1.383,-1.717 1.167,-1.8 0.9,-1.8 0.667,-1.8 0.45,-1.717 0.25,-1.55 0.083,-1.383 0,-1.167 0,-0.9 0,-0.667 0.083,-0.45 0.25,-0.25 0.45,-0.083 0.667,0 0.9,0 1.167,0 1.383,-0.083 1.55,-0.25 1.717,-0.45 1.8,-0.667 1.8,-0.9 Z"
   id="path52"
   inkscape:connector-curvature="0" />
	</g>
</symbol>
<symbol
   id="flash0.ai_x5F_3_x2F_Layer_4_x2F__x3C_Path_x3E__x5F_29"
   viewBox="0 -0.5 0.5 0.5"
   transform="translate(88.318089,108.28619)">
	<g
   id="Layer_1_10_">
		
			<radialGradient
   id="SVGID_7_"
   cx="0.375"
   cy="-0.375"
   r="0.0328"
   gradientTransform="matrix(1,0,0,-1,0,-0.75)"
   gradientUnits="userSpaceOnUse">
			<stop
   offset="0"
   style="stop-color:#FFCB0F"
   id="stop56" />
			<stop
   offset="1"
   style="stop-color:#E09500"
   id="stop58" />
		</radialGradient>
		<path
   style="clip-rule:evenodd;fill:url(#radialGradient1038);fill-rule:evenodd"
   d="M 0.5,-0.25 C 0.5,-0.417 0.417,-0.5 0.25,-0.5 0.083,-0.5 0,-0.417 0,-0.25 0,-0.083 0.083,0 0.25,0 0.417,0 0.5,-0.083 0.5,-0.25 Z"
   id="path61"
   inkscape:connector-curvature="0" />
	</g>
</symbol>
<symbol
   id="flash0.ai_x5F_3_x2F_Layer_4_x2F__x3C_Path_x3E__x5F_3"
   viewBox="-0.005 -3.313 1.317 3.388"
   transform="translate(88.318089,108.28619)">
	<g
   id="Layer_1_18_">
		<path
   style="clip-rule:evenodd;fill:#ffe0a1;fill-rule:evenodd"
   d="M 0.95,-0.2 C 0.95,-0.666 1.067,-1.583 1.3,-2.95 1.367,-3.417 1.167,-3.433 0.7,-3 0.267,-2.6 0.033,-2.167 0,-1.7 c -0.033,0.667 0.117,1.167 0.45,1.5 0.333,0.367 0.5,0.367 0.5,0 z"
   id="path65"
   inkscape:connector-curvature="0" />
	</g>
</symbol>
<symbol
   id="flash0.ai_x5F_3_x2F_Layer_4_x2F__x3C_Path_x3E__x5F_30"
   viewBox="0 -1.75 1.75 1.75"
   transform="translate(88.318089,108.28619)">
	<g
   id="Layer_1_9_">
		
			<radialGradient
   id="SVGID_8_"
   cx="2.3627999"
   cy="-2.4497001"
   r="0.56730002"
   gradientTransform="matrix(1,0,0,-1,0,-4.8994)"
   gradientUnits="userSpaceOnUse">
			<stop
   offset="0"
   style="stop-color:#FFCB0F"
   id="stop69" />
			<stop
   offset="1"
   style="stop-color:#E09500"
   id="stop71" />
		</radialGradient>
		<path
   style="clip-rule:evenodd;fill:url(#radialGradient1040);fill-rule:evenodd"
   d="M 1.75,-0.9 C 1.75,-1.133 1.667,-1.334 1.5,-1.5 1.3,-1.667 1.083,-1.75 0.85,-1.75 0.617,-1.75 0.417,-1.667 0.25,-1.5 0.083,-1.333 0,-1.133 0,-0.9 0,-0.667 0.083,-0.45 0.25,-0.25 0.417,-0.083 0.617,0 0.85,0 1.117,0 1.333,-0.083 1.5,-0.25 1.667,-0.45 1.75,-0.667 1.75,-0.9 Z"
   id="path74"
   inkscape:connector-curvature="0" />
	</g>
</symbol>
<symbol
   id="flash0.ai_x5F_3_x2F_Layer_4_x2F__x3C_Path_x3E__x5F_31"
   viewBox="0 -3.35 3.4 3.35"
   transform="translate(88.318089,108.28619)">
	<g
   id="Layer_1_8_">
		
			<radialGradient
   id="SVGID_9_"
   cx="1.7002"
   cy="-1.7002"
   r="1.6876"
   gradientTransform="matrix(1,0,0,-1,0,-3.4004)"
   gradientUnits="userSpaceOnUse">
			<stop
   offset="0"
   style="stop-color:#FFCB0F"
   id="stop78" />
			<stop
   offset="1"
   style="stop-color:#E09500"
   id="stop80" />
		</radialGradient>
		<path
   style="clip-rule:evenodd;fill:url(#radialGradient1042);fill-rule:evenodd"
   d="m 3.4,-1.7 c 0,-0.466 -0.167,-0.85 -0.5,-1.15 -0.333,-0.333 -0.733,-0.5 -1.2,-0.5 -0.467,0 -0.867,0.167 -1.2,0.5 C 0.167,-2.55 0,-2.167 0,-1.7 0,-1.233 0.167,-0.833 0.5,-0.5 0.833,-0.167 1.233,0 1.7,0 2.166,0 2.567,-0.167 2.9,-0.5 3.233,-0.833 3.4,-1.233 3.4,-1.7 Z"
   id="path83"
   inkscape:connector-curvature="0" />
	</g>
</symbol>
<symbol
   id="flash0.ai_x5F_3_x2F_Layer_4_x2F__x3C_Path_x3E__x5F_32"
   viewBox="0 -1.65 1.65 1.65"
   transform="translate(88.318089,108.28619)">
	<g
   id="Layer_1_7_">
		
			<radialGradient
   id="SVGID_10_"
   cx="2.1445"
   cy="-2.1445"
   r="0.40189999"
   gradientTransform="matrix(1,0,0,-1,0,-4.2891)"
   gradientUnits="userSpaceOnUse">
			<stop
   offset="0"
   style="stop-color:#FFCB0F"
   id="stop87" />
			<stop
   offset="1"
   style="stop-color:#E09500"
   id="stop89" />
		</radialGradient>
		<path
   style="clip-rule:evenodd;fill:url(#radialGradient1044);fill-rule:evenodd"
   d="M 1.65,-0.8 C 1.65,-1.367 1.367,-1.65 0.8,-1.65 0.267,-1.65 0,-1.367 0,-0.8 0,-0.267 0.267,0 0.8,0 1.033,0 1.234,-0.083 1.4,-0.25 1.567,-0.383 1.65,-0.567 1.65,-0.8 Z"
   id="path92"
   inkscape:connector-curvature="0" />
	</g>
</symbol>
<symbol
   id="flash0.ai_x5F_3_x2F_Layer_4_x2F__x3C_Path_x3E__x5F_33"
   viewBox="0 -3.1 3.1 3.1"
   transform="translate(88.318089,108.28619)">
	<g
   id="Layer_1_6_">
		
			<radialGradient
   id="SVGID_11_"
   cx="1.5498"
   cy="-1.5498"
   r="1.5247999"
   gradientTransform="matrix(1,0,0,-1,0,-3.0996)"
   gradientUnits="userSpaceOnUse">
			<stop
   offset="0"
   style="stop-color:#FFCB0F"
   id="stop96" />
			<stop
   offset="1"
   style="stop-color:#E09500"
   id="stop98" />
		</radialGradient>
		<path
   style="clip-rule:evenodd;fill:url(#radialGradient1046);fill-rule:evenodd"
   d="m 3.1,-1.55 c 0,-0.434 -0.15,-0.8 -0.45,-1.1 -0.3,-0.3 -0.667,-0.45 -1.1,-0.45 -0.433,0 -0.8,0.15 -1.1,0.45 -0.3,0.3 -0.45,0.667 -0.45,1.1 0,0.433 0.15,0.8 0.45,1.1 0.3,0.3 0.667,0.45 1.1,0.45 0.434,0 0.8,-0.15 1.1,-0.45 0.3,-0.3 0.45,-0.667 0.45,-1.1 z"
   id="path101"
   inkscape:connector-curvature="0" />
	</g>
</symbol>
<symbol
   id="flash0.ai_x5F_3_x2F_Layer_4_x2F__x3C_Path_x3E__x5F_34"
   viewBox="0 -1.55 1.6 1.55"
   transform="translate(88.318089,108.28619)">
	<g
   id="Layer_1_5_">
		
			<radialGradient
   id="SVGID_12_"
   cx="2.0796001"
   cy="-2.0146"
   r="0.37189999"
   gradientTransform="matrix(1,0,0,-1,0,-4.0293)"
   gradientUnits="userSpaceOnUse">
			<stop
   offset="0"
   style="stop-color:#FFCB0F"
   id="stop105" />
			<stop
   offset="1"
   style="stop-color:#E09500"
   id="stop107" />
		</radialGradient>
		<path
   style="clip-rule:evenodd;fill:url(#radialGradient1048);fill-rule:evenodd"
   d="M 1.6,-0.8 C 1.6,-1 1.517,-1.183 1.35,-1.35 1.217,-1.483 1.033,-1.55 0.8,-1.55 0.267,-1.55 0,-1.3 0,-0.8 0,-0.267 0.267,0 0.8,0 1.333,0 1.6,-0.267 1.6,-0.8 Z"
   id="path110"
   inkscape:connector-curvature="0" />
	</g>
</symbol>
<symbol
   id="flash0.ai_x5F_3_x2F_Layer_4_x2F__x3C_Path_x3E__x5F_35"
   viewBox="0 -2.65 2.65 2.65"
   transform="translate(88.318089,108.28619)">
	<g
   id="Layer_1_4_">
		
			<radialGradient
   id="SVGID_13_"
   cx="1.3501"
   cy="-1.2998"
   r="1.3252"
   gradientTransform="matrix(1,0,0,-1,0,-2.5996)"
   gradientUnits="userSpaceOnUse">
			<stop
   offset="0"
   style="stop-color:#FFCB0F"
   id="stop114" />
			<stop
   offset="1"
   style="stop-color:#E09500"
   id="stop116" />
		</radialGradient>
		<path
   style="clip-rule:evenodd;fill:url(#radialGradient1050);fill-rule:evenodd"
   d="m 2.65,-1.3 c 0,-0.367 -0.133,-0.684 -0.4,-0.95 -0.267,-0.266 -0.583,-0.4 -0.95,-0.4 -0.367,0 -0.667,0.133 -0.9,0.4 C 0.133,-1.983 0,-1.667 0,-1.3 c 0,0.333 0.133,0.633 0.4,0.9 0.267,0.267 0.567,0.4 0.9,0.4 0.367,0 0.684,-0.133 0.95,-0.4 0.267,-0.233 0.4,-0.533 0.4,-0.9 z"
   id="path119"
   inkscape:connector-curvature="0" />
	</g>
</symbol>
<symbol
   id="flash0.ai_x5F_3_x2F_Layer_4_x2F__x3C_Path_x3E__x5F_37"
   viewBox="0 -26.6 30.15 26.6"
   transform="translate(88.318089,108.28619)">
	<g
   id="Layer_1_3_">
		
			<linearGradient
   id="SVGID_14_"
   gradientUnits="userSpaceOnUse"
   x1="12.9707"
   y1="-16330.57"
   x2="35.945702"
   y2="-16330.57"
   gradientTransform="matrix(4.352557e-5,-1,1,-0.001,16345.644,-6.1724)">
			<stop
   offset="0"
   style="stop-color:#D68000"
   id="stop123" />
			<stop
   offset="1"
   style="stop-color:#F2BE00"
   id="stop125" />
		</linearGradient>
		<path
   style="clip-rule:evenodd;fill:url(#linearGradient1052);fill-rule:evenodd"
   d="m 30.15,0 v -20.8 c 0,-1.034 -0.367,-1.983 -1.1,-2.85 -0.733,-0.833 -1.7,-1.434 -2.9,-1.8 l -0.25,-0.1 -0.85,-0.15 c -3.433,-0.6 -6.633,-0.9 -9.6,-0.9 -2.7,0 -5.25,0.133 -7.65,0.4 -2.2,0.267 -3.566,0.55 -4.1,0.85 -1.1,0.4 -1.983,1 -2.65,1.8 C 0.35,-22.717 0,-21.8 0,-20.8 v 20.75 c 1.333,-0.567 3.333,-1.017 6,-1.35 2.733,-0.333 5.75,-0.5 9.05,-0.5 3.333,0 6.367,0.167 9.1,0.5 2.7,0.367 4.7,0.833 6,1.4 z"
   id="path128"
   inkscape:connector-curvature="0" />
	</g>
</symbol>
<symbol
   id="flash0.ai_x5F_3_x2F_Layer_4_x2F__x3C_Path_x3E__x5F_38"
   viewBox="0 -33.35 32.5 33.35"
   transform="translate(88.318089,108.28619)">
	<g
   id="Layer_1_2_">
		<linearGradient
   id="SVGID_15_"
   gradientUnits="userSpaceOnUse"
   x1="0"
   y1="-16.674801"
   x2="32.450001"
   y2="-16.674801">
			<stop
   offset="0"
   style="stop-color:#FFFFFF"
   id="stop132" />
			<stop
   offset="1"
   style="stop-color:#CC9C74"
   id="stop134" />
		</linearGradient>
		<path
   style="clip-rule:evenodd;fill:url(#linearGradient1054);fill-rule:evenodd"
   d="m 30,-2 c 0.233,-0.267 0.717,-0.8 1.45,-1.6 0.667,-0.9 1.017,-1.883 1.05,-2.95 v -18.6 c 0,-1.4 -0.4,-2.684 -1.2,-3.85 -0.8,-1.133 -1.85,-1.95 -3.15,-2.45 L 27,-31.75 c -1.667,-0.433 -3.1,-0.75 -4.3,-0.95 -2.133,-0.433 -4.167,-0.65 -6.1,-0.65 -2.767,0 -5.5,0.25 -8.2,0.75 -2.3,0.434 -3.767,0.867 -4.4,1.3 -1.2,0.533 -2.167,1.35 -2.9,2.45 -0.733,1.1 -1.1,2.333 -1.1,3.7 v 18.6 c 0.033,1.067 0.383,2.05 1.05,2.95 0.367,0.467 0.85,1 1.45,1.6 0.467,0.467 0.733,1.133 0.8,2 h 25.9 c 0.033,-0.233 0.083,-0.483 0.15,-0.75 C 29.483,-1.283 29.7,-1.7 30,-2 Z"
   id="path137"
   inkscape:connector-curvature="0" />
	</g>
</symbol>
<symbol
   id="flash0.ai_x5F_3_x2F_Layer_4_x2F__x3C_Path_x3E__x5F_5"
   viewBox="-0.003 -23.528 30.753 23.53"
   transform="translate(88.318089,108.28619)">
	<g
   id="Layer_1_17_">
		
			<linearGradient
   id="SVGID_16_"
   gradientUnits="userSpaceOnUse"
   x1="-15.7441"
   y1="-16311.746"
   x2="5.9059"
   y2="-16311.746"
   gradientTransform="matrix(0.0023,-1,1,0.0023,16327.101,20.8516)">
			<stop
   offset="0"
   style="stop-color:#FFAA00"
   id="stop141" />
			<stop
   offset="1"
   style="stop-color:#FFBB33"
   id="stop143" />
		</linearGradient>
		<path
   style="clip-rule:evenodd;fill:url(#linearGradient1056);fill-rule:evenodd"
   d="m 30.6,-2.8 c 0.1,-0.434 0.083,-0.784 -0.05,-1.05 -0.066,-0.133 -0.267,-0.4 -0.6,-0.8 -0.2,-0.3 -0.267,-0.617 -0.2,-0.95 0.033,-0.3 0.2,-0.75 0.5,-1.35 0.333,-0.633 0.5,-0.966 0.5,-1 0,-0.167 -0.233,-0.4 -0.7,-0.7 -0.8,-0.533 -1.167,0.167 -1.1,2.1 0,0.433 0.15,1.066 0.45,1.9 0.233,0.633 0.267,1.066 0.1,1.3 -0.2,0.267 -0.65,0.317 -1.35,0.15 -0.967,-0.333 -1.783,-0.583 -2.45,-0.75 -0.534,-0.133 -1.5,-0.267 -2.9,-0.4 -1.066,-0.1 -1.85,-0.283 -2.35,-0.55 -0.534,-0.3 -0.75,-0.633 -0.65,-1 0.067,-0.233 0.25,-0.733 0.55,-1.5 0.167,-0.733 0.033,-1.283 -0.4,-1.65 -0.434,-0.333 -0.917,-0.217 -1.45,0.35 -0.4,0.4 -0.567,0.867 -0.5,1.4 0.067,0.7 0.017,1.233 -0.15,1.6 -0.233,0.633 -0.967,0.983 -2.2,1.05 -1.133,0.066 -2.017,-0.133 -2.65,-0.6 -0.633,-0.433 -1.217,-1.267 -1.75,-2.5 -0.567,-1.333 -0.867,-2.717 -0.9,-4.15 -0.033,-1.1 0.1,-2.767 0.4,-5 0.333,-2.333 0.5,-3.883 0.5,-4.65 0,-1.167 -0.217,-1.817 -0.65,-1.95 -0.333,-0.1 -0.8,0.067 -1.4,0.5 -0.733,0.533 -0.75,2.45 -0.05,5.75 0.367,1.633 0.383,3.683 0.05,6.15 -0.367,2.667 -1,4.333 -1.9,5 -0.567,0.4 -2.05,1.017 -4.45,1.85 -1.967,0.667 -2.917,1.167 -2.85,1.5 0.133,0.5 0.233,0.767 0.3,0.8 0.1,0.133 0.5,0.333 1.2,0.6 2.233,0.867 6.683,1.317 13.35,1.35 4.667,0.033 8.583,-0.317 11.75,-1.05 2.567,-0.567 3.9,-1.15 4,-1.75 z"
   id="path146"
   inkscape:connector-curvature="0" />
	</g>
</symbol>


































<linearGradient
   id="SVGID_17_"
   gradientUnits="userSpaceOnUse"
   x1="3.3999"
   y1="2.5253999"
   x2="30.2012"
   y2="2.5253999"
   gradientTransform="matrix(0.9769,0,0,0.9769,0.2502,0)">
	<stop
   offset="0"
   style="stop-color:#BA7200"
   id="stop218" />
	<stop
   offset="1"
   style="stop-color:#FFD47D"
   id="stop220" />
</linearGradient>




<g
   id="g992"
   transform="matrix(6.4922225,0,0,6.4922225,21.72881,0.01358473)"><use
     id="use150"
     style="overflow:visible;opacity:0.48050005;enable-background:new"
     transform="matrix(0.9769,0,0,-0.9769,-85.777941,112.63487)"
     y="-33.349998"
     height="33.349998"
     width="32.5"
     xlink:href="#flash0.ai_x5F_3_x2F_Layer_4_x2F__x3C_Path_x3E__x5F_38"
     x="0" /><use
     id="use152"
     style="overflow:visible;opacity:0.89839998;enable-background:new"
     transform="matrix(0.9769,0,0,-0.9769,-84.628041,118.08457)"
     y="-26.6"
     height="26.6"
     width="30.15"
     xlink:href="#flash0.ai_x5F_3_x2F_Layer_4_x2F__x3C_Path_x3E__x5F_37"
     x="0" /><path
     id="path154"
     d="m 5.135,37.026 c 0.423,-0.978 4.201,-1.597 11.333,-1.856 2.442,-0.065 4.819,-0.017 7.131,0.146 2.572,0.228 4.396,0.554 5.471,0.977 -0.781,0.455 -1.4,0.749 -1.856,0.879 l -0.244,0.099 -0.83,0.146 c -3.354,0.587 -6.48,0.88 -9.379,0.88 -2.637,0 -5.128,-0.131 -7.473,-0.392 -2.149,-0.26 -3.485,-0.537 -4.005,-0.83 z"
     style="clip-rule:evenodd;fill:#e39700;fill-rule:evenodd"
     inkscape:connector-curvature="0" /><use
     id="use156"
     style="overflow:visible;opacity:0.89839998;enable-background:new"
     transform="matrix(0.9769,0,0,-0.9769,-74.427841,127.78477)"
     y="-2.6500001"
     height="2.6500001"
     width="2.6500001"
     xlink:href="#flash0.ai_x5F_3_x2F_Layer_4_x2F__x3C_Path_x3E__x5F_35"
     x="0" /><use
     id="use158"
     style="overflow:visible;opacity:0.89839998;enable-background:new"
     transform="matrix(0.9769,0,0,-0.9769,-71.677841,125.88437)"
     y="-1.55"
     height="1.55"
     width="1.6"
     xlink:href="#flash0.ai_x5F_3_x2F_Layer_4_x2F__x3C_Path_x3E__x5F_34"
     x="0" /><use
     id="use160"
     style="overflow:visible;opacity:0.89839998;enable-background:new"
     transform="matrix(0.9769,0,0,-0.9769,-73.378041,134.73497)"
     y="-3.0999999"
     height="3.0999999"
     width="3.0999999"
     xlink:href="#flash0.ai_x5F_3_x2F_Layer_4_x2F__x3C_Path_x3E__x5F_33"
     x="0" /><use
     id="use162"
     style="overflow:visible;opacity:0.89839998;enable-background:new"
     transform="matrix(0.9769,0,0,-0.9769,-65.228141,137.33457)"
     y="-1.65"
     height="1.65"
     width="1.65"
     xlink:href="#flash0.ai_x5F_3_x2F_Layer_4_x2F__x3C_Path_x3E__x5F_32"
     x="0" /><use
     id="use164"
     style="overflow:visible;opacity:0.89839998;enable-background:new"
     transform="matrix(0.9769,0,0,-0.9769,-65.928341,132.43517)"
     y="-3.3499999"
     height="3.3499999"
     width="3.4000001"
     xlink:href="#flash0.ai_x5F_3_x2F_Layer_4_x2F__x3C_Path_x3E__x5F_31"
     x="0" /><use
     id="use166"
     style="overflow:visible;opacity:0.89839998;enable-background:new"
     transform="matrix(0.9769,0,0,-0.9769,-79.327741,130.08457)"
     y="-1.75"
     height="1.75"
     width="1.75"
     xlink:href="#flash0.ai_x5F_3_x2F_Layer_4_x2F__x3C_Path_x3E__x5F_30"
     x="0" /><use
     id="use168"
     style="overflow:visible;opacity:0.89839998;enable-background:new"
     transform="matrix(0.9769,0,0,-0.9769,-78.378041,126.03477)"
     y="-0.5"
     height="0.5"
     width="0.5"
     xlink:href="#flash0.ai_x5F_3_x2F_Layer_4_x2F__x3C_Path_x3E__x5F_29"
     x="0" /><use
     id="use170"
     style="overflow:visible;opacity:0.89839998;enable-background:new"
     transform="matrix(0.9769,0,0,-0.9769,-57.827741,120.38487)"
     y="-1.8"
     height="1.8"
     width="1.8"
     xlink:href="#flash0.ai_x5F_3_x2F_Layer_4_x2F__x3C_Path_x3E__x5F_28"
     x="0" /><use
     id="use172"
     style="overflow:visible;opacity:0.89839998;enable-background:new"
     transform="matrix(0.9769,0,0,-0.9769,-61.627541,120.78477)"
     y="-0.94999999"
     height="0.94999999"
     width="0.94999999"
     xlink:href="#flash0.ai_x5F_3_x2F_Layer_4_x2F__x3C_Path_x3E__x5F_27"
     x="0" /><use
     id="use174"
     style="overflow:visible;opacity:0.89839998;enable-background:new"
     transform="matrix(0.9769,0,0,-0.9769,-84.677841,115.18467)"
     y="-5.6999998"
     height="5.6999998"
     width="30.25"
     xlink:href="#flash0.ai_x5F_3_x2F_Layer_4_x2F__x3C_Path_x3E__x5F_26"
     x="0" /><use
     id="use176"
     style="overflow:visible;enable-background:new"
     transform="matrix(0.9769,0,0,-0.9769,-82.378041,112.63487)"
     y="-32.049999"
     height="32.049999"
     width="5.4120002"
     xlink:href="#flash0.ai_x5F_3_x2F_Layer_4_x2F__x3C_Path_x3E__x5F_25"
     x="0" /><path
     id="path178"
     d="M 29.802,8.792 C 29.509,8.499 29.298,8.092 29.167,7.571 L 29.021,6.838 H 3.718 C 3.653,7.685 3.393,8.336 2.937,8.792 2.742,9.052 2.27,9.573 1.52,10.355 0.869,11.234 0.527,12.195 0.494,13.237 v 18.171 c 0,1.335 0.358,2.54 1.075,3.614 0.717,1.075 1.661,1.873 2.833,2.394 0.651,0.424 1.84,0.781 3.566,1.075 2.214,0.391 4.999,0.586 8.353,0.586 3.289,0 5.763,-0.146 7.424,-0.439 0.944,-0.162 1.986,-0.424 3.126,-0.781 l 1.124,-0.293 c 1.27,-0.489 2.296,-1.286 3.077,-2.394 0.781,-1.141 1.172,-2.395 1.172,-3.762 V 13.237 C 32.212,12.195 31.869,11.235 31.219,10.355 30.502,9.574 30.03,9.053 29.802,8.792 Z"
     style="clip-rule:evenodd;fill:none;fill-rule:evenodd;stroke:#f8da9f;stroke-width:0.5"
     inkscape:connector-curvature="0" /><path
     id="path180"
     d="m 16.321,11.821 c 1.335,-0.032 2.116,0.016 2.344,0.146 0.26,0.13 -0.7,0.261 -2.882,0.391 -1.628,0.098 -2.931,0.098 -3.908,0 -1.075,-0.163 -1.449,-0.423 -1.124,-0.781 0.13,-0.13 0.586,-0.13 1.368,0 1.303,0.195 2.703,0.277 4.202,0.244 z"
     style="clip-rule:evenodd;fill:#ffffff;fill-rule:evenodd"
     inkscape:connector-curvature="0" /><use
     id="use182"
     style="overflow:visible;opacity:0.35160002;enable-background:new"
     transform="matrix(0.9769,0,0,-0.9769,-60.277941,120.68467)"
     y="-17.944"
     height="17.944"
     width="3.5"
     xlink:href="#flash0.ai_x5F_3_x2F_Layer_4_x2F__x3C_Path_x3E__x5F_22"
     x="0" /><use
     id="use184"
     style="overflow:visible;opacity:0.48050005;enable-background:new"
     transform="matrix(0.9769,0,0,-0.9769,-83.577741,108.93467)"
     y="-3.9000001"
     height="3.9000001"
     width="28.200001"
     xlink:href="#flash0.ai_x5F_3_x2F_Layer_4_x2F__x3C_Path_x3E__x5F_21"
     x="0" /><rect
     id="rect186"
     height="3.8099999"
     width="27.549999"
     style="clip-rule:evenodd;fill:none;fill-rule:evenodd;stroke:#c4a76e;stroke-width:0.5"
     y="3.1259999"
     x="2.6919999" /><path
     id="path188"
     d="m 27.751,2.296 c 0.781,-0.13 1.221,-0.065 1.318,0.195 0.098,0.293 -0.113,0.554 -0.636,0.782 C 27.978,3.468 27.62,3.387 27.359,3.029 27.1,2.638 27.229,2.394 27.751,2.296 Z"
     style="clip-rule:evenodd;fill:#d1b162;fill-rule:evenodd"
     inkscape:connector-curvature="0" /><path
     id="path190"
     d="m 26.236,1.612 c 0.456,0 0.586,0.277 0.391,0.831 -0.163,0.554 -0.472,0.684 -0.928,0.391 -0.456,-0.26 -0.586,-0.537 -0.391,-0.831 0.195,-0.261 0.505,-0.391 0.928,-0.391 z"
     style="clip-rule:evenodd;fill:#d1b162;fill-rule:evenodd"
     inkscape:connector-curvature="0" /><path
     id="path192"
     d="m 31.463,6.937 c 0,0.619 -1.465,1.139 -4.396,1.563 C 24.136,8.956 20.603,9.184 16.468,9.184 11.258,9.184 7.138,8.859 4.11,8.207 2.35,7.848 1.471,7.425 1.471,6.937 c 0,-0.619 1.465,-1.14 4.396,-1.563 2.931,-0.423 6.464,-0.635 10.6,-0.635 4.167,0 7.702,0.212 10.599,0.635 2.932,0.422 4.397,0.943 4.397,1.563 z"
     style="clip-rule:evenodd;fill:#f8e5bf;fill-rule:evenodd"
     inkscape:connector-curvature="0" /><path
     id="path194"
     d="M 1.471,6.937 C 1.471,6.546 1.878,6.22 2.692,5.96 3.506,5.732 4.044,5.618 4.304,5.618 L 5.525,6.253 C 4.874,6.382 4.37,6.562 4.011,6.79 3.295,7.213 3.653,7.637 5.086,8.06 L 7.137,8.695 C 5.77,8.532 4.76,8.369 4.109,8.206 2.35,7.848 1.471,7.425 1.471,6.937 Z"
     style="clip-rule:evenodd;fill:#c4a76e;fill-rule:evenodd"
     inkscape:connector-curvature="0" /><path
     id="path196"
     d="m 31.561,6.937 c 0,0.488 -0.896,0.911 -2.687,1.27 -0.717,0.163 -1.71,0.326 -2.979,0.488 L 27.946,8.06 c 1.4,-0.423 1.743,-0.847 1.026,-1.27 l -1.465,-0.538 1.221,-0.635 1.611,0.342 c 0.815,0.261 1.222,0.586 1.222,0.978 z"
     style="clip-rule:evenodd;fill:#c4a76e;fill-rule:evenodd"
     inkscape:connector-curvature="0" /><path
     id="path198"
     d="M 2.839,6.692 3.523,5.422 30.144,5.617 C 30.08,5.975 29.477,6.334 28.337,6.692 26.058,7.474 22.247,7.929 16.906,8.06 11.566,8.19 7.625,7.995 5.086,7.474 3.816,7.246 3.067,6.985 2.839,6.692 Z"
     style="clip-rule:evenodd;fill:#c4a76e;fill-rule:evenodd"
     inkscape:connector-curvature="0" /><path
     id="path200"
     d="m 31.463,4.982 c 0,0.619 -1.465,1.14 -4.396,1.563 C 24.17,6.968 20.635,7.18 16.468,7.18 12.332,7.18 8.799,6.968 5.868,6.545 2.937,6.122 1.471,5.601 1.471,4.982 c 0,-0.619 1.465,-1.14 4.396,-1.563 2.931,-0.423 6.464,-0.635 10.6,-0.635 4.167,0 7.702,0.212 10.599,0.635 2.932,0.423 4.397,0.945 4.397,1.563 z"
     style="clip-rule:evenodd;fill:#f8e5bf;fill-rule:evenodd"
     inkscape:connector-curvature="0" /><path
     id="path202"
     d="M 1.471,4.982 C 1.471,4.722 1.862,4.428 2.643,4.103 3.425,4.005 4.19,3.957 4.939,3.957 L 5.525,4.299 C 4.874,4.429 4.37,4.592 4.011,4.787 3.295,5.21 3.653,5.65 5.086,6.106 L 7.137,6.692 4.109,6.252 C 2.35,5.829 1.471,5.406 1.471,4.982 Z"
     style="clip-rule:evenodd;fill:#c4a76e;fill-rule:evenodd"
     inkscape:connector-curvature="0" /><path
     id="path204"
     d="m 31.561,4.982 c 0,0.423 -0.896,0.847 -2.687,1.27 l -2.979,0.439 2.051,-0.586 c 1.4,-0.456 1.743,-0.896 1.026,-1.319 l -1.465,-0.488 0.586,-0.342 2.295,0.147 c 0.782,0.326 1.173,0.619 1.173,0.879 z"
     style="clip-rule:evenodd;fill:#c4a76e;fill-rule:evenodd"
     inkscape:connector-curvature="0" /><path
     id="path206"
     d="M 2.79,4.836 3.474,3.517 30.095,3.712 C 30.031,4.07 29.427,4.445 28.288,4.836 26.008,5.585 22.198,6.024 16.858,6.154 11.517,6.284 7.577,6.106 5.037,5.617 3.767,5.389 3.018,5.129 2.79,4.836 Z"
     style="clip-rule:evenodd;fill:#c4a76e;fill-rule:evenodd"
     inkscape:connector-curvature="0" /><path
     id="path208"
     d="m 31.463,2.931 c 0,0.749 -1.465,1.368 -4.396,1.856 C 24.17,5.308 20.635,5.569 16.468,5.569 12.332,5.569 8.799,5.308 5.868,4.787 2.937,4.266 1.471,3.647 1.471,2.931 c 0,-0.716 1.465,-1.335 4.396,-1.856 2.963,-0.521 6.497,-0.782 10.6,-0.782 4.135,0 7.668,0.261 10.599,0.782 2.932,0.521 4.397,1.139 4.397,1.856 z"
     style="clip-rule:evenodd;fill:#f8e5bf;fill-rule:evenodd"
     inkscape:connector-curvature="0" /><path
     id="path210"
     d="m 26.09,7.669 c 0.749,-0.098 1.091,-0.098 1.025,0 C 27.051,7.734 26.659,7.832 25.943,7.962 24.901,8.19 23.272,8.385 21.058,8.548 18.03,8.776 15.017,8.84 12.021,8.743 9.091,8.646 7.431,8.45 7.04,8.157 6.616,7.832 7.235,7.75 8.896,7.913 14.334,8.434 20.065,8.353 26.09,7.669 Z"
     style="clip-rule:evenodd;fill:#ffffff;fill-rule:evenodd"
     inkscape:connector-curvature="0" /><path
     id="path212"
     d="m 26.041,5.715 c 0.749,-0.098 1.091,-0.098 1.025,0 C 27.002,5.779 26.611,5.894 25.894,6.057 21.889,6.773 17.248,7.017 11.973,6.79 9.042,6.692 7.381,6.497 6.991,6.204 6.567,5.878 7.187,5.796 8.847,5.959 14.285,6.48 20.017,6.399 26.041,5.715 Z"
     style="clip-rule:evenodd;fill:#ffffff;fill-rule:evenodd"
     inkscape:connector-curvature="0" /><path
     id="path214"
     d="m 25.991,4.054 c 0.749,-0.098 1.092,-0.098 1.027,0 C 26.952,4.119 26.562,4.233 25.845,4.396 21.84,5.113 17.2,5.357 11.924,5.129 8.994,5.031 7.333,4.836 6.942,4.542 6.519,4.217 7.137,4.136 8.798,4.298 c 5.439,0.521 11.17,0.44 17.193,-0.244 z"
     style="clip-rule:evenodd;fill:#ffffff;fill-rule:evenodd"
     inkscape:connector-curvature="0" /><use
     id="use216"
     style="overflow:visible;opacity:0.64839998;enable-background:new"
     transform="matrix(0.9769,0,0,-0.9769,-84.577741,105.78477)"
     y="-23.528"
     x="-0.003"
     height="23.530001"
     width="30.753"
     xlink:href="#flash0.ai_x5F_3_x2F_Layer_4_x2F__x3C_Path_x3E__x5F_5" /><path
     id="path223"
     d="m 29.754,2.442 c 0,0.488 -1.271,0.912 -3.811,1.27 C 23.371,4.038 20.277,4.201 16.662,4.201 13.048,4.201 9.971,4.038 7.431,3.712 4.858,3.354 3.572,2.931 3.572,2.442 c 0,-0.456 1.287,-0.863 3.859,-1.221 2.54,-0.326 5.617,-0.488 9.231,-0.488 3.615,0 6.709,0.163 9.281,0.488 2.54,0.359 3.811,0.765 3.811,1.221 z"
     style="clip-rule:evenodd;fill:url(#SVGID_17_);fill-rule:evenodd"
     inkscape:connector-curvature="0" /><use
     id="use225"
     style="overflow:visible;opacity:0.89839998;enable-background:new"
     transform="matrix(0.9769,0,0,-0.9769,-75.927841,124.88487)"
     y="-3.313"
     x="-0.0049999999"
     height="3.388"
     width="1.317"
     xlink:href="#flash0.ai_x5F_3_x2F_Layer_4_x2F__x3C_Path_x3E__x5F_3" /><path
     id="path227"
     d="m 20.277,6.252 c 0.032,0.163 0.212,0.554 0.537,1.172 0.228,0.553 0.195,0.879 -0.098,0.977 -0.326,0.098 -0.57,0.016 -0.732,-0.245 -0.131,-0.228 -0.195,-0.538 -0.195,-0.928 0,-0.619 -0.114,-1.335 -0.342,-2.149 -0.033,-0.195 0.081,-0.13 0.342,0.195 0.228,0.327 0.391,0.653 0.488,0.978 z"
     style="clip-rule:evenodd;fill:#ffe0a1;fill-rule:evenodd"
     inkscape:connector-curvature="0" /><path
     id="path229"
     d="m 9.14,4.933 c 0.325,0.196 0.733,0.701 1.221,1.515 0.521,0.847 0.733,1.417 0.635,1.709 C 10.931,8.418 10.833,8.45 10.703,8.255 10.67,8.19 10.508,7.88 10.215,7.327 9.987,6.904 9.645,6.432 9.189,5.91 8.7,5.389 8.293,5.031 7.968,4.836 7.609,4.641 7.642,4.575 8.065,4.641 8.489,4.673 8.847,4.771 9.14,4.933 Z"
     style="clip-rule:evenodd;fill:#ffe0a1;fill-rule:evenodd"
     inkscape:connector-curvature="0" /><path
     id="path231"
     d="m 30.828,6.937 c 0.292,0.781 0.276,1.221 -0.049,1.319 -0.392,0.13 -0.586,-0.049 -0.586,-0.538 0,-0.391 0.081,-0.667 0.244,-0.831 0.195,-0.162 0.326,-0.146 0.391,0.05 z"
     style="clip-rule:evenodd;fill:#ffe0a1;fill-rule:evenodd"
     inkscape:connector-curvature="0" /></g>
</svg>