<?xml version="1.0" encoding="UTF-8" standalone="no"?>
<!-- Generator: Adobe Illustrator 15.1.0, SVG Export Plug-In . SVG Version: 6.00 Build 0)  -->

<svg
   xmlns:dc="http://purl.org/dc/elements/1.1/"
   xmlns:cc="http://creativecommons.org/ns#"
   xmlns:rdf="http://www.w3.org/1999/02/22-rdf-syntax-ns#"
   xmlns:svg="http://www.w3.org/2000/svg"
   xmlns="http://www.w3.org/2000/svg"
   xmlns:xlink="http://www.w3.org/1999/xlink"
   xmlns:sodipodi="http://sodipodi.sourceforge.net/DTD/sodipodi-0.dtd"
   xmlns:inkscape="http://www.inkscape.org/namespaces/inkscape"
   version="1.1"
   id="flash0.ai"
   x="0px"
   y="0px"
   width="256"
   height="256"
   viewBox="0 0 255.99999 256"
   xml:space="preserve"
   sodipodi:docname="ice_cube.svg"
   inkscape:version="0.92.4 (5da689c313, 2019-01-14)"
   inkscape:export-xdpi="9"
   inkscape:export-ydpi="9"><title
   id="title858">Ice Cube</title><metadata
   id="metadata51"><rdf:RDF><cc:Work
       rdf:about=""><dc:format>image/svg+xml</dc:format><dc:type
         rdf:resource="http://purl.org/dc/dcmitype/StillImage" /><dc:title>Ice Cube</dc:title><cc:license
         rdf:resource="http://creativecommons.org/publicdomain/zero/1.0/" /><dc:creator><cc:Agent><dc:title>Glitch</dc:title></cc:Agent></dc:creator><dc:source>https://opengameart.org/node/20149</dc:source></cc:Work><cc:License
       rdf:about="http://creativecommons.org/publicdomain/zero/1.0/"><cc:permits
         rdf:resource="http://creativecommons.org/ns#Reproduction" /><cc:permits
         rdf:resource="http://creativecommons.org/ns#Distribution" /><cc:permits
         rdf:resource="http://creativecommons.org/ns#DerivativeWorks" /></cc:License></rdf:RDF></metadata><defs
   id="defs49" /><sodipodi:namedview
   pagecolor="#ffffff"
   bordercolor="#666666"
   borderopacity="1"
   objecttolerance="10"
   gridtolerance="10"
   guidetolerance="10"
   inkscape:pageopacity="0"
   inkscape:pageshadow="2"
   inkscape:window-width="1920"
   inkscape:window-height="1025"
   id="namedview47"
   showgrid="false"
   inkscape:zoom="0.82402237"
   inkscape:cx="148.23678"
   inkscape:cy="101.125"
   inkscape:window-x="-8"
   inkscape:window-y="-8"
   inkscape:window-maximized="1"
   inkscape:current-layer="flash0.ai"
   fit-margin-top="0"
   fit-margin-left="0"
   fit-margin-right="0"
   fit-margin-bottom="0" />
<symbol
   id="flash0.ai_x5F_8_x2F_Layer_9_x2F__x3C_Path_x3E_"
   viewBox="0.014 -6.932 11.336 6.888"
   transform="translate(109.25288,115.12148)">
	<g
   id="Layer_1_7_">
		<path
   style="clip-rule:evenodd;fill:#ffffff;fill-rule:evenodd"
   d="m 10.85,-1.4 c 0.033,-0.233 0.183,-1.483 0.45,-3.75 0.1,-0.934 0.05,-1.467 -0.15,-1.6 C 10.75,-6.783 10.334,-6.833 9.9,-6.9 9.367,-7 8.183,-6.867 6.35,-6.5 c -2.1,0.433 -3.483,0.717 -4.15,0.85 -1.133,0.233 -1.833,0.467 -2.1,0.7 -0.3,0.3 0.183,0.45 1.45,0.45 0.967,0 1.717,0.05 2.25,0.15 0.5,0.133 1.133,0.2 1.9,0.2 1.133,0 1.917,0.1 2.35,0.3 0.367,0.2 0.683,0.567 0.95,1.1 0.333,0.667 0.667,1.467 1,2.4 0.333,0.633 0.617,0.283 0.85,-1.05 z"
   id="path2"
   inkscape:connector-curvature="0" />
	</g>
</symbol>
<symbol
   id="flash0.ai_x5F_8_x2F_Layer_9_x2F__x3C_Path_x3E__x5F_1"
   viewBox="0.01 -5.936 15.545 5.98"
   transform="translate(109.25288,115.12148)">
	<g
   id="Layer_1_6_">
		<path
   style="clip-rule:evenodd;fill:#77a7b5;fill-rule:evenodd"
   d="m 10.4,-0.6 c 2.5,-0.6 4.083,-1.316 4.75,-2.15 0.6,-0.8 0.533,-1.233 -0.2,-1.3 -0.633,-0.067 -2.167,0.1 -4.6,0.5 -2,0.367 -3.5,0.417 -4.5,0.15 -0.233,-0.033 -1.133,-0.417 -2.7,-1.15 -0.7,-0.333 -1.4,-0.784 -2.1,-1.35 -0.367,-0.167 -0.667,0.25 -0.9,1.25 -0.3,1.133 -0.117,2.167 0.55,3.1 0.6,0.833 1.383,1.317 2.35,1.45 2.233,0.3 4.683,0.133 7.35,-0.5 z"
   id="path6"
   inkscape:connector-curvature="0" />
	</g>
</symbol>
<symbol
   id="flash0.ai_x5F_8_x2F_Layer_9_x2F__x3C_Path_x3E__x5F_5"
   viewBox="0.022 -33.859 35.323 33.902"
   transform="translate(109.25288,115.12148)">
	<g
   id="Layer_1_5_">
		<path
   style="clip-rule:evenodd;fill:#b3e1f0;fill-rule:evenodd"
   d="m 26.5,-1.35 c 4.7,-0.7 7.483,-1.566 8.35,-2.6 0.367,-0.433 0.483,-1.466 0.35,-3.1 -0.3,-3.4 -0.467,-5.5 -0.5,-6.3 -0.034,-1.933 0.1,-4.5 0.4,-7.7 0.233,-2.633 0.3,-4.133 0.2,-4.5 -0.1,-0.434 -1.167,-1.284 -3.2,-2.55 -2.8,-1.7 -4.383,-2.683 -4.75,-2.95 -1.6,-1.2 -2.633,-1.934 -3.1,-2.2 -1.067,-0.533 -2.233,-0.717 -3.5,-0.55 -0.933,0.133 -3,0.6 -6.2,1.4 -3.167,0.767 -5.233,1.217 -6.2,1.35 -1.934,0.2 -3.3,0.383 -4.1,0.55 -1.3,0.267 -2.05,0.767 -2.25,1.5 -0.233,0.933 -0.517,4.883 -0.85,11.85 -0.033,0.367 -0.283,1.883 -0.75,4.55 -0.367,2.1 -0.467,3.434 -0.3,4 0.133,0.333 1.117,1.05 2.95,2.15 3,1.733 4.867,2.85 5.6,3.35 4.1,2.733 7.367,3.684 9.8,2.85 0.6,-0.2 3.283,-0.567 8.05,-1.1 z"
   id="path10"
   inkscape:connector-curvature="0" />
	</g>
</symbol>
<symbol
   id="flash0.ai_x5F_8_x2F_Layer_9_x2F__x3C_Path_x3E__x5F_6"
   viewBox="-0.004 -23.153 18.439 23.171"
   transform="translate(109.25288,115.12148)">
	<g
   id="Layer_1_4_">
		<path
   style="clip-rule:evenodd;fill:#ffffff;fill-rule:evenodd"
   d="m 17.85,-8.05 c -0.233,-3.4 -0.35,-5.233 -0.35,-5.5 0,-0.367 0.25,-2.333 0.75,-5.9 0.333,-2.433 0.217,-3.667 -0.35,-3.7 -0.5,-0.033 -2.083,0.233 -4.75,0.8 -3,0.667 -5.033,1.05 -6.1,1.15 -2,-0.033 -3.35,-0.033 -4.05,0 -1.067,0.067 -1.7,0.517 -1.9,1.35 -0.2,0.833 -0.35,3.184 -0.45,7.05 -0.033,2.033 -0.083,4.35 -0.15,6.95 -0.167,1.533 -0.3,2.683 -0.4,3.45 -0.167,1.433 -0.133,2.183 0.1,2.25 0.833,0.267 2.067,0.217 3.7,-0.15 2.467,-0.534 4.083,-0.833 4.85,-0.9 2.967,-0.333 4.85,-0.566 5.65,-0.7 1.934,-0.367 3.033,-0.917 3.3,-1.65 0.267,-0.633 0.317,-2.133 0.15,-4.5 z"
   id="path14"
   inkscape:connector-curvature="0" />
	</g>
</symbol>
<symbol
   id="flash0.ai_x5F_8_x2F_Layer_9_x2F__x3C_Path_x3E__x5F_7"
   viewBox="-0.001 -26.226 14.603 26.248"
   transform="translate(109.25288,115.12148)">
	<g
   id="Layer_1_3_">
		<path
   style="clip-rule:evenodd;fill:#ffffff;fill-rule:evenodd"
   d="m 13.25,0 c 0.6,0.3 1,-2.433 1.2,-8.2 0.1,-2.966 0.15,-6.383 0.15,-10.25 0.033,-0.867 -0.417,-1.6 -1.35,-2.2 -1.433,-0.7 -2.65,-1.283 -3.65,-1.75 -1,-0.5 -2.717,-1.5 -5.15,-3 -1.967,-1.067 -3.067,-1.1 -3.3,-0.1 -0.233,1 -0.483,3.833 -0.75,8.5 -0.133,2.367 -0.267,4.95 -0.4,7.75 -0.033,0.6 1.1,1.717 3.4,3.35 1.267,0.9 3.117,2.133 5.55,3.7 1.1,0.7 1.95,1.184 2.55,1.45 1.033,0.433 1.617,0.683 1.75,0.75 z"
   id="path18"
   inkscape:connector-curvature="0" />
	</g>
</symbol>
<symbol
   id="flash0.ai_x5F_8_x2F_Layer_9_x2F__x3C_Path_x3E__x5F_8"
   viewBox="-0.01 -10.032 30.76 10.039"
   transform="translate(109.25288,115.12148)">
	<g
   id="Layer_1_2_">
		<path
   style="clip-rule:evenodd;fill-rule:evenodd"
   d="m 3.9,-7.65 c -4.2,0.2 -5.017,0.883 -2.45,2.05 3.2,1.467 5.933,2.967 8.2,4.5 0.967,0.633 2.184,1 3.65,1.1 0.767,0.033 2.583,-0.05 5.45,-0.25 2.667,-0.167 5.317,-0.517 7.95,-1.05 3,-0.6 4.333,-1.167 4,-1.7 -0.333,-0.533 -2.017,-1.75 -5.05,-3.65 -2.933,-1.8 -4.95,-2.9 -6.05,-3.3 -0.667,-0.233 -2.733,0.034 -6.2,0.8 -4.2,0.9 -7.367,1.4 -9.5,1.5 z"
   id="path22"
   inkscape:connector-curvature="0" />
	</g>
</symbol>









<g
   id="g853"
   transform="matrix(6.8642751,0,0,6.8642751,-0.68660621,5.0469808)"><path
     id="path26"
     d="m 36.75,14.15 c -0.066,2.033 0.066,4.734 0.4,8.1 0.233,2.8 0.3,4.384 0.199,4.75 -0.133,0.5 -1.25,1.4 -3.35,2.7 -3.033,1.866 -4.7,2.899 -5,3.1 -1.767,1.334 -2.85,2.117 -3.25,2.351 -1.167,0.6 -2.417,0.8 -3.75,0.6 -1,-0.167 -3.184,-0.65 -6.55,-1.45 -3.333,-0.833 -5.517,-1.333 -6.55,-1.5 -2.066,-0.2 -3.5,-0.383 -4.3,-0.55 -1.4,-0.267 -2.2,-0.783 -2.4,-1.55 C 2,29.934 1.8,27.9 1.6,24.6 1.433,21.067 1.317,18.917 1.25,18.151 1.217,17.784 0.967,16.184 0.5,13.351 0.1,11.117 0,9.7 0.2,9.1 0.3,8.767 1.333,8.033 3.3,6.9 6.234,5.167 8.2,3.967 9.2,3.3 c 4.367,-2.867 7.816,-3.867 10.35,-3 0.634,0.2 3.483,0.583 8.55,1.15 4.966,0.733 7.9,1.65 8.8,2.75 0.399,0.466 0.517,1.566 0.35,3.3 -0.3,3.567 -0.467,5.783 -0.5,6.65 z m -0.3,7.75 c -0.3,-3.2 -0.434,-5.767 -0.4,-7.7 0.033,-0.8 0.2,-2.9 0.5,-6.3 C 36.684,6.267 36.567,5.233 36.2,4.8 35.333,3.767 32.55,2.9 27.849,2.2 23.083,1.667 20.4,1.3 19.8,1.1 17.367,0.267 14.1,1.217 10,3.95 9.267,4.45 7.4,5.567 4.4,7.3 2.567,8.4 1.583,9.117 1.45,9.45 c -0.167,0.566 -0.067,1.9 0.3,4 0.467,2.667 0.717,4.183 0.75,4.55 0.333,6.967 0.617,10.917 0.85,11.85 0.2,0.733 0.95,1.233 2.25,1.5 0.8,0.167 2.167,0.35 4.1,0.55 0.966,0.133 3.033,0.583 6.2,1.35 3.2,0.8 5.267,1.267 6.2,1.4 1.267,0.166 2.434,-0.017 3.5,-0.551 0.467,-0.267 1.5,-1 3.101,-2.199 0.366,-0.267 1.95,-1.25 4.75,-2.95 2.033,-1.267 3.1,-2.117 3.2,-2.55 0.099,-0.367 0.033,-1.867 -0.201,-4.5 z"
     style="clip-rule:evenodd;fill:#9fd9f0;fill-rule:evenodd"
     inkscape:connector-curvature="0" /><use
     id="use28"
     style="overflow:visible;opacity:0.37110003;enable-background:new"
     transform="matrix(1,0,0,-1,-104.75288,138.22108)"
     y="-10.032"
     x="-0.0099999998"
     height="10.039"
     width="30.76"
     xlink:href="#flash0.ai_x5F_8_x2F_Layer_9_x2F__x3C_Path_x3E__x5F_8" /><use
     id="use30"
     style="overflow:visible;opacity:0.33980001;enable-background:new"
     transform="matrix(1,0,0,-1,-105.85298,117.17128)"
     y="-26.226"
     x="-0.001"
     height="26.247999"
     width="14.603"
     xlink:href="#flash0.ai_x5F_8_x2F_Layer_9_x2F__x3C_Path_x3E__x5F_7" /><use
     id="use32"
     style="overflow:visible;opacity:0.69139997;enable-background:new"
     transform="matrix(1,0,0,-1,-91.752882,117.02138)"
     y="-23.153"
     x="-0.0040000002"
     height="23.171"
     width="18.438999"
     xlink:href="#flash0.ai_x5F_8_x2F_Layer_9_x2F__x3C_Path_x3E__x5F_6" /><use
     id="use34"
     style="overflow:visible;opacity:0.82029999;enable-background:new"
     transform="matrix(1,0,0,-1,-107.90278,115.97158)"
     y="-33.859001"
     x="0.022"
     height="33.902"
     width="35.323002"
     xlink:href="#flash0.ai_x5F_8_x2F_Layer_9_x2F__x3C_Path_x3E__x5F_5" /><path
     id="path36"
     d="m 23.8,9.6 c 2.9,-0.5 6.167,-1.667 9.8,-3.5 -1.033,0.867 -2.566,1.933 -4.6,3.2 -1.333,0.833 -2.2,1.684 -2.6,2.55 -0.101,0.2 -0.434,1.383 -1,3.55 -0.567,2.1 -1.051,6.917 -1.45,14.45 -0.467,-2.5 -0.7,-4.666 -0.7,-6.5 0,-1.633 -0.134,-3.517 -0.4,-5.649 -0.3,-2.434 -0.649,-3.883 -1.05,-4.35 -0.366,-0.434 -1.233,-0.783 -2.6,-1.05 -2.1,-0.3 -3.967,-0.583 -5.6,-0.85 -2.6,-0.367 -4.467,-0.5 -5.6,-0.4 -1.333,0.167 -2.317,0.684 -2.95,1.55 -0.765,1.163 -1.181,3.462 -1.25,6.9 v -0.95 c 0,-0.633 -0.117,-2.05 -0.35,-4.25 -0.267,-2.2 -0.4,-3.533 -0.4,-4 0,-0.633 0.784,-1.5 2.35,-2.6 1.267,-0.867 2.6,-1.633 4,-2.3 0.333,-0.167 1.6,-0.85 3.8,-2.05 1.6,-0.867 2.683,-1.383 3.25,-1.55 0.966,-0.267 2.267,-0.083 3.899,0.55 -0.767,0 -1.633,0.1 -2.6,0.3 -1.9,0.333 -4.2,1.434 -6.9,3.3 -1.767,1.2 -2.45,2.1 -2.05,2.7 0.333,0.467 1.5,0.783 3.5,0.95 3.233,0.233 5.067,0.35 5.5,0.35 C 19.934,10.017 21.934,9.9 23.8,9.6 Z"
     style="clip-rule:evenodd;fill:#fbf2f5;fill-rule:evenodd"
     inkscape:connector-curvature="0" /><path
     id="path38"
     d="m 4.05,24.2 c 0.1,0.5 0.4,1.033 0.9,1.6 0.466,0.5 0.7,0.884 0.7,1.15 0,0.6 -0.333,1.233 -1,1.899 L 4.5,28.4 Z"
     style="clip-rule:evenodd;fill:#fbf2f5;fill-rule:evenodd"
     inkscape:connector-curvature="0" /><path
     id="path40"
     d="m 34.65,19.3 c 0.066,-1.1 0.166,-1.917 0.3,-2.45 0.166,-0.533 0.25,-0.25 0.25,0.85 0,0.767 0.149,2.333 0.45,4.7 0.166,2.066 0.017,3.3 -0.45,3.699 -0.767,0.667 -2.634,1.867 -5.601,3.601 1.733,-1.634 3.117,-3.134 4.15,-4.5 0.667,-0.834 1,-1.851 1,-3.05 C 34.65,20.85 34.616,19.9 34.65,19.3 Z"
     style="clip-rule:evenodd;fill:#fbf2f5;fill-rule:evenodd"
     inkscape:connector-curvature="0" /><use
     id="use42"
     style="overflow:visible;opacity:0.25;enable-background:new"
     transform="matrix(1,0,0,-1,-104.00288,128.22158)"
     y="-5.9359999"
     x="0.0099999998"
     height="5.98"
     width="15.545"
     xlink:href="#flash0.ai_x5F_8_x2F_Layer_9_x2F__x3C_Path_x3E__x5F_1" /><use
     id="use44"
     style="overflow:visible;opacity:0.64060005;enable-background:new"
     transform="matrix(1,0,0,-1,-98.352982,140.87148)"
     y="-6.9320002"
     x="0.014"
     height="6.888"
     width="11.336"
     xlink:href="#flash0.ai_x5F_8_x2F_Layer_9_x2F__x3C_Path_x3E_" /></g>
</svg>