<?xml version="1.0" encoding="UTF-8" standalone="no"?>
<!-- Generator: Adobe Illustrator 15.1.0, SVG Export Plug-In . SVG Version: 6.00 Build 0)  -->

<svg
   xmlns:dc="http://purl.org/dc/elements/1.1/"
   xmlns:cc="http://creativecommons.org/ns#"
   xmlns:rdf="http://www.w3.org/1999/02/22-rdf-syntax-ns#"
   xmlns:svg="http://www.w3.org/2000/svg"
   xmlns="http://www.w3.org/2000/svg"
   xmlns:xlink="http://www.w3.org/1999/xlink"
   xmlns:sodipodi="http://sodipodi.sourceforge.net/DTD/sodipodi-0.dtd"
   xmlns:inkscape="http://www.inkscape.org/namespaces/inkscape"
   version="1.1"
   id="flash0.ai"
   x="0px"
   y="0px"
   width="256"
   height="256"
   viewBox="0 0 256 256"
   xml:space="preserve"
   sodipodi:docname="omelet_01.svg"
   inkscape:version="0.92.4 (5da689c313, 2019-01-14)"><title
   id="title956">Omelet</title><metadata
   id="metadata149"><rdf:RDF><cc:Work
       rdf:about=""><dc:format>image/svg+xml</dc:format><dc:type
         rdf:resource="http://purl.org/dc/dcmitype/StillImage" /><dc:title>Omelet</dc:title><cc:license
         rdf:resource="http://creativecommons.org/publicdomain/zero/1.0/" /><dc:creator><cc:Agent><dc:title>Glitch</dc:title></cc:Agent></dc:creator><dc:source>https://opengameart.org/node/20149</dc:source></cc:Work><cc:License
       rdf:about="http://creativecommons.org/publicdomain/zero/1.0/"><cc:permits
         rdf:resource="http://creativecommons.org/ns#Reproduction" /><cc:permits
         rdf:resource="http://creativecommons.org/ns#Distribution" /><cc:permits
         rdf:resource="http://creativecommons.org/ns#DerivativeWorks" /></cc:License></rdf:RDF></metadata><defs
   id="defs147" /><sodipodi:namedview
   pagecolor="#ffffff"
   bordercolor="#666666"
   borderopacity="1"
   objecttolerance="10"
   gridtolerance="10"
   guidetolerance="10"
   inkscape:pageopacity="0"
   inkscape:pageshadow="2"
   inkscape:window-width="1920"
   inkscape:window-height="1025"
   id="namedview145"
   showgrid="false"
   inkscape:zoom="1.2411112"
   inkscape:cx="188.83904"
   inkscape:cy="50.163404"
   inkscape:window-x="-8"
   inkscape:window-y="-8"
   inkscape:window-maximized="1"
   inkscape:current-layer="flash0.ai"
   fit-margin-top="0"
   fit-margin-left="0"
   fit-margin-right="0"
   fit-margin-bottom="0" />
<symbol
   id="Symbol_1"
   viewBox="0.004 -21.565 40.121 21.563"
   transform="translate(-13.253485,219.38514)">
	<g
   id="Layer_1_4_">
		<use
   xlink:href="#Symbol_2"
   width="40.120998"
   height="21.563"
   x="0.0040000002"
   y="-21.565001"
   style="overflow:visible"
   id="use2"
   transform="translate(13.253485,-219.38514)" />
	</g>
</symbol>
<symbol
   id="Symbol_2"
   viewBox="0.004 -21.565 40.121 21.563"
   transform="translate(-13.253485,219.38514)">
	<g
   id="Layer_1_3_">
		<g
   id="g116">
			<path
   style="clip-rule:evenodd;fill:#e6b70e;fill-rule:evenodd"
   d="m 38.888,-7.725 c 0.725,-1.2 1.087,-2.05 1.087,-2.551 0,-1.7 -0.037,-2.712 -0.112,-3.037 -0.149,-0.675 -0.638,-1.212 -1.462,-1.612 -1.775,-0.925 -2.888,-1.6 -3.338,-2.025 -0.35,-0.375 -0.587,-0.612 -0.713,-0.712 -0.174,-0.15 -0.449,-0.301 -0.824,-0.45 -1.275,-0.575 -2.101,-0.962 -2.476,-1.163 -0.524,-0.275 -1.274,-0.612 -2.25,-1.012 -1.15,-0.45 -1.912,-0.676 -2.287,-0.676 -0.2,0 -0.538,0.038 -1.013,0.113 -0.35,0.074 -0.713,0.087 -1.088,0.037 -2.1,-0.475 -3.6,-0.675 -4.5,-0.6 -1.724,0.276 -2.987,0.413 -3.787,0.413 -0.6,0 -1.425,0.075 -2.475,0.225 -1.075,0.15 -1.875,0.313 -2.4,0.488 -0.3,0.1 -0.875,0.225 -1.725,0.375 -0.775,0.125 -1.388,0.287 -1.838,0.487 -0.15,0.05 -1.225,0.45 -3.225,1.2 -0.226,0.1 -0.513,0.312 -0.863,0.637 -0.324,0.301 -0.624,0.513 -0.899,0.638 -1.55,0.625 -2.375,1.075 -2.476,1.351 -0.25,0.65 0.088,1.187 1.013,1.612 0.475,0.225 5.025,1.975 13.65,5.25 4.3,1.625 8.55,3.237 12.75,4.837 l 4.087,2.625 c 1.95,-0.375 3.013,-0.675 3.188,-0.899 0.576,-0.7 1.025,-1.088 1.351,-1.163 0.375,-0.1 0.775,-0.275 1.2,-0.524 0.575,-0.3 0.899,-0.575 0.975,-0.825 0.05,-0.2 0.125,-0.763 0.225,-1.688 0.099,-0.851 0.174,-1.301 0.225,-1.351 z"
   id="path6"
   inkscape:connector-curvature="0" />
			<path
   style="clip-rule:evenodd;fill:#c78a12;fill-rule:evenodd"
   d="m 34.65,-3.338 c 1.4,-0.2 2.25,-0.762 2.55,-1.688 0.05,-0.125 0.175,-0.412 0.375,-0.862 0.175,-0.375 0.3,-0.737 0.375,-1.087 0.075,-0.425 0,-0.763 -0.226,-1.013 -0.124,-0.15 -0.487,-0.412 -1.086,-0.787 -0.425,-0.25 -0.388,-0.812 0.112,-1.688 0.45,-0.8 0.85,-1.25 1.2,-1.35 0.325,-0.1 0.538,-0.35 0.638,-0.75 0.125,-0.45 0.037,-0.913 -0.263,-1.388 -0.3,-0.425 -0.8,-0.725 -1.5,-0.899 -0.25,-0.05 -0.813,-0.113 -1.688,-0.188 -0.35,-0.025 -0.788,-0.263 -1.313,-0.713 -0.825,-0.725 -1.45,-1.225 -1.875,-1.5 -1.575,-1.025 -3.638,-1.363 -6.188,-1.013 -0.825,0.1 -1.538,-0.012 -2.138,-0.337 l -0.675,-0.525 0.375,-0.487 c 0.25,-0.35 0.062,-0.638 -0.563,-0.862 l -0.86,0.412 c -0.226,0.125 -0.55,0.4 -0.976,0.825 -0.375,0.35 -0.737,0.587 -1.087,0.712 -0.475,0.175 -1.3,0.238 -2.476,0.188 -1.2,-0.05 -2.188,-0.2 -2.962,-0.449 -0.65,-0.201 -1.525,-0.138 -2.625,0.188 -1.174,0.399 -1.987,0.649 -2.436,0.749 -0.976,0.175 -1.688,0.312 -2.138,0.412 -0.8,0.15 -1.275,0.3 -1.425,0.45 -0.125,0.125 -0.663,0.3 -1.613,0.524 C 3.163,-16.188 2.575,-16 2.4,-15.9 c -0.625,0.375 -0.838,0.676 -0.638,0.9 0.425,0.475 2.362,0.862 5.813,1.162 1.05,0.075 5.712,1.888 13.987,5.438 8.1,3.45 12.463,5.137 13.088,5.062 z"
   id="path8"
   inkscape:connector-curvature="0" />
			<path
   style="clip-rule:evenodd;fill:#ffd642;fill-rule:evenodd"
   d="m 34.612,-2.888 c 1.4,-0.2 2.25,-0.775 2.55,-1.725 0.05,-0.125 0.175,-0.413 0.375,-0.862 0.175,-0.375 0.301,-0.738 0.375,-1.088 0.075,-0.425 0,-0.763 -0.225,-1.013 -0.1,-0.1 -0.462,-0.35 -1.088,-0.75 -0.425,-0.275 -0.387,-0.837 0.113,-1.688 0.425,-0.8 0.824,-1.262 1.199,-1.388 0.325,-0.074 0.538,-0.312 0.638,-0.712 0.125,-0.45 0.038,-0.913 -0.263,-1.388 -0.3,-0.45 -0.8,-0.763 -1.5,-0.938 -0.25,-0.05 -0.812,-0.112 -1.688,-0.188 -0.35,-0.025 -0.787,-0.263 -1.313,-0.713 -0.85,-0.75 -1.475,-1.25 -1.875,-1.5 -1.574,-1.025 -3.637,-1.362 -6.188,-1.012 -0.824,0.1 -1.537,0 -2.137,-0.301 l -0.676,-0.524 0.375,-0.525 c 0.25,-0.35 0.063,-0.638 -0.563,-0.862 l -0.862,0.45 c -0.25,0.125 -0.575,0.387 -0.975,0.787 -0.375,0.35 -0.738,0.587 -1.088,0.713 -0.475,0.175 -1.3,0.237 -2.475,0.188 -1.175,-0.05 -2.163,-0.188 -2.963,-0.413 -0.625,-0.225 -1.5,-0.174 -2.625,0.15 -1.175,0.425 -1.987,0.675 -2.438,0.75 -0.975,0.175 -1.688,0.313 -2.138,0.412 -0.8,0.15 -1.274,0.301 -1.425,0.45 -0.125,0.125 -0.662,0.313 -1.612,0.563 -1,0.25 -1.587,0.438 -1.763,0.563 -0.625,0.375 -0.837,0.675 -0.638,0.9 0.425,0.45 2.363,0.825 5.813,1.125 1.051,0.1 5.713,1.912 13.988,5.438 8.105,3.476 12.468,5.176 13.092,5.101 z"
   id="path10"
   inkscape:connector-curvature="0" />
			<path
   style="clip-rule:evenodd;fill:#fffc8a;fill-rule:evenodd"
   d="m 4.237,-15.338 c 0.525,-0.1 0.938,-0.262 1.237,-0.487 0.301,-0.225 0.338,-0.337 0.113,-0.337 -0.175,0 -0.55,0.074 -1.125,0.225 -0.601,0.175 -0.988,0.313 -1.163,0.412 -0.175,0.1 -0.137,0.175 0.112,0.226 0.227,0.024 0.502,0.011 0.826,-0.039 z"
   id="path12"
   inkscape:connector-curvature="0" />
			<path
   style="clip-rule:evenodd;fill:#fffc8a;fill-rule:evenodd"
   d="m 9.487,-16.725 c 1.125,-0.425 2.075,-0.7 2.851,-0.825 0.35,-0.05 0.637,-0.163 0.862,-0.338 0.225,-0.149 0.212,-0.225 -0.038,-0.225 -0.5,0 -1.062,0.125 -1.688,0.375 -1.625,0.425 -2.587,0.712 -2.887,0.862 -0.2,0.101 -0.162,0.176 0.113,0.226 0.275,0.05 0.538,0.025 0.787,-0.075 z"
   id="path14"
   inkscape:connector-curvature="0" />
			<path
   style="clip-rule:evenodd;fill:#fffc8a;fill-rule:evenodd"
   d="m 21.412,-18.412 c 0.125,-0.075 0.288,-0.263 0.488,-0.563 0.85,-0.275 1.1,-0.488 0.75,-0.638 -0.226,-0.1 -0.513,0 -0.863,0.3 -0.325,0.275 -0.537,0.538 -0.637,0.787 L 21,-18.188 Z"
   id="path16"
   inkscape:connector-curvature="0" />
			<path
   style="clip-rule:evenodd;fill:#fffc8a;fill-rule:evenodd"
   d="m 28.162,-17.1 c 0.25,0 0.663,0.024 1.238,0.074 0.449,0.025 0.662,-0.024 0.637,-0.149 -0.074,-0.3 -0.7,-0.487 -1.875,-0.563 -0.6,-0.025 -0.837,0.075 -0.712,0.3 0.1,0.225 0.337,0.338 0.712,0.338 z"
   id="path18"
   inkscape:connector-curvature="0" />
			<path
   style="clip-rule:evenodd;fill:#fffc8a;fill-rule:evenodd"
   d="m 37.237,-7.275 c 0.425,0.05 0.4,-0.087 -0.075,-0.412 -0.5,-0.325 -0.812,-0.462 -0.938,-0.412 -0.1,0.024 -0.024,0.162 0.226,0.412 0.275,0.249 0.538,0.387 0.787,0.412 z"
   id="path20"
   inkscape:connector-curvature="0" />
			<path
   style="clip-rule:evenodd;fill:#d9870d;fill-rule:evenodd"
   d="m 30.263,-14.588 c 0.149,0.275 -0.013,0.475 -0.487,0.601 -0.5,0.125 -0.825,0.012 -0.976,-0.338 -0.1,-0.25 0.075,-0.412 0.525,-0.487 0.475,-0.101 0.787,-0.025 0.938,0.224 z m 4.087,0.113 c -0.1,-0.375 0.013,-0.576 0.338,-0.601 0.475,-0.025 0.875,0.138 1.2,0.487 0.3,0.351 0.012,0.563 -0.862,0.638 -0.326,0.026 -0.551,-0.149 -0.676,-0.524 z m -1.575,1.5 c -0.425,0.05 -0.813,-0.125 -1.163,-0.525 -0.375,-0.375 -0.287,-0.638 0.263,-0.787 0.675,-0.175 1.262,-0.013 1.763,0.487 0.5,0.475 0.212,0.75 -0.863,0.825 z M 37.2,-13.2 c 0.025,0 0.037,-0.137 0.037,-0.412 -0.075,-0.65 -0.45,-1.175 -1.125,-1.575 -0.425,-0.225 -0.938,-0.388 -1.537,-0.487 l -0.75,-0.075 c -0.25,0.25 -0.65,0.388 -1.2,0.412 -0.325,0.025 -0.613,-0.074 -0.862,-0.3 l -0.263,-0.338 -1.162,0.112 c -0.25,0.05 -0.763,0.263 -1.538,0.638 l -1.125,0.563 c 0.375,-0.15 2.138,1.313 5.288,4.387 l 1.5,-0.3 c 1.075,-0.225 1.75,-0.437 2.024,-0.638 0.425,-0.3 0.563,-0.587 0.413,-0.862 -0.075,-0.05 -0.15,-0.125 -0.226,-0.225 -0.125,-0.226 -0.2,-0.487 -0.225,-0.788 -0.025,-0.149 0.062,-0.212 0.263,-0.188 0.125,10e-4 0.288,0.026 0.488,0.076 z m -2.437,0.862 c 0.3,0.125 0.462,0.313 0.487,0.563 0,0.301 -0.288,0.475 -0.862,0.525 -0.425,0.025 -0.862,-0.037 -1.313,-0.188 -0.45,-0.125 -0.688,-0.263 -0.713,-0.412 -0.025,-0.15 0.313,-0.288 1.013,-0.413 0.675,-0.125 1.138,-0.149 1.388,-0.075 z"
   id="path22"
   inkscape:connector-curvature="0" />
			<path
   style="clip-rule:evenodd;fill:#ffa826;fill-rule:evenodd"
   d="m 30.263,-14.138 c 0.149,0.275 -0.013,0.475 -0.487,0.601 -0.5,0.125 -0.825,0 -0.976,-0.375 -0.125,-0.226 0.05,-0.388 0.525,-0.488 0.475,-0.075 0.787,0.013 0.938,0.262 z m 4.087,0.075 c -0.1,-0.375 0.013,-0.575 0.338,-0.6 0.475,-0.025 0.875,0.137 1.2,0.487 0.3,0.35 0.012,0.575 -0.862,0.675 -0.326,0.026 -0.551,-0.162 -0.676,-0.562 z m -2.738,0.975 c -0.375,-0.375 -0.287,-0.625 0.263,-0.75 0.675,-0.174 1.262,-0.012 1.763,0.488 0.5,0.449 0.212,0.725 -0.862,0.824 -0.426,0.026 -0.814,-0.162 -1.164,-0.562 z m 4.838,0.413 c -0.05,-0.475 0.212,-0.638 0.787,-0.487 -0.075,-0.65 -0.45,-1.175 -1.125,-1.575 -0.425,-0.25 -0.938,-0.425 -1.537,-0.525 l -0.75,-0.075 c -0.25,0.25 -0.65,0.388 -1.2,0.413 C 32.3,-14.9 32.012,-15 31.763,-15.225 l -0.263,-0.338 -1.162,0.15 c -0.25,0.024 -0.763,0.225 -1.538,0.6 l -1.125,0.563 c 0.375,-0.125 2.138,1.337 5.288,4.388 l 1.199,-0.075 c 0.825,-0.075 1.375,-0.2 1.65,-0.375 0.45,-0.325 0.813,-0.775 1.088,-1.35 -0.075,-0.05 -0.15,-0.125 -0.226,-0.226 -0.124,-0.224 -0.199,-0.487 -0.224,-0.787 z m -1.687,0.787 c 0.3,0.1 0.462,0.288 0.487,0.563 0,0.3 -0.288,0.463 -0.862,0.487 -0.425,0.025 -0.862,-0.037 -1.313,-0.188 -0.45,-0.125 -0.688,-0.262 -0.713,-0.412 -0.025,-0.15 0.313,-0.288 1.013,-0.412 0.675,-0.125 1.138,-0.137 1.388,-0.038 z"
   id="path24"
   inkscape:connector-curvature="0" />
			<path
   style="clip-rule:evenodd;fill:#d9870d;fill-rule:evenodd"
   d="m 25.05,-17.175 1.688,0.225 0.375,-0.712 c -0.575,-0.45 -1.1,-0.738 -1.575,-0.863 l -1.238,-0.525 -0.112,0.487 v 0.713 z"
   id="path26"
   inkscape:connector-curvature="0" />
			<path
   style="clip-rule:evenodd;fill:#d9870d;fill-rule:evenodd"
   d="m 8.963,-16.2 2.512,0.788 0.301,-0.863 -0.601,-0.337 c -0.425,-0.226 -0.913,-0.425 -1.462,-0.601 H 9.412 c -0.2,0 -1.037,0.125 -2.512,0.375 l -0.038,0.525 z"
   id="path28"
   inkscape:connector-curvature="0" />
			<path
   style="clip-rule:evenodd;fill:#ffa826;fill-rule:evenodd"
   d="m 7.912,-15.3 3.863,-0.226 c -1,-0.8 -1.763,-1.199 -2.288,-1.199 -0.35,0 -0.887,0.062 -1.612,0.188 l -1.013,0.225 c 0.075,0.175 0.175,0.35 0.3,0.525 0.226,0.349 0.475,0.512 0.75,0.487 z"
   id="path30"
   inkscape:connector-curvature="0" />
			<path
   style="clip-rule:evenodd;fill:#ffc042;fill-rule:evenodd"
   d="m 24.3,-19.05 c -1.625,0.85 -2.938,1.737 -3.938,2.662 -0.625,0.601 -0.175,0.688 1.351,0.263 0.774,-0.225 1.6,-0.5 2.475,-0.825 z"
   id="path32"
   inkscape:connector-curvature="0" />
			<path
   style="clip-rule:evenodd;fill:#ffa826;fill-rule:evenodd"
   d="m 26.737,-16.95 c -0.5,-0.1 -1.05,-0.325 -1.649,-0.675 L 24.3,-18.112 c -1.05,0.375 -1.887,0.712 -2.513,1.013 l -3.037,1.35 3,0.338 2.813,-0.863 c 0.875,-0.301 1.6,-0.526 2.174,-0.676 z"
   id="path34"
   inkscape:connector-curvature="0" />
			
				<use
   xlink:href="#flash0.ai_x5F_3_x2F_Layer_3_x2F__x3C_Path_x3E__x5F_39"
   width="48.962002"
   height="17.978001"
   x="-0.0060000001"
   y="-18"
   transform="matrix(0.75,0,0,0.75,10.540214,-168.43876)"
   style="overflow:visible;opacity:0.64060005;enable-background:new"
   id="use36" />
			<path
   style="clip-rule:evenodd;fill:#edc913;fill-rule:evenodd"
   d="m 32.963,-0.037 c 0.3,-0.1 0.587,-0.375 0.862,-0.825 0.25,-0.425 0.375,-0.8 0.375,-1.125 0,-0.25 0.237,-0.587 0.712,-1.013 0.55,-0.475 0.838,-0.75 0.863,-0.825 0.75,-1.25 0.938,-2.125 0.563,-2.625 -0.1,-0.149 -0.5,-0.65 -1.2,-1.5 -0.5,-0.6 -0.75,-0.975 -0.75,-1.125 0,-0.175 -0.425,-0.638 -1.275,-1.388 -1,-0.85 -1.663,-1.412 -1.987,-1.688 -0.525,-0.449 -1.5,-1.037 -2.925,-1.762 -1.475,-0.775 -2.476,-1.175 -3,-1.2 -1.075,-0.075 -2.663,-0.3 -4.763,-0.675 -1.425,-0.075 -2.6,-0.163 -3.525,-0.263 -0.7,-0.1 -1.162,-0.175 -1.387,-0.226 -0.375,-0.05 -0.8,-0.012 -1.275,0.113 -0.225,0.05 -0.675,0.262 -1.35,0.637 -0.475,0.301 -1,0.413 -1.575,0.338 -1.726,-0.225 -3.063,-0.238 -4.013,-0.037 -0.175,0.024 -0.775,0.2 -1.8,0.524 -0.85,0.25 -1.475,0.388 -1.875,0.413 -0.85,0.024 -1.625,0 -2.325,-0.075 -0.725,-0.1 -1.038,-0.463 -0.938,-1.088 0.075,-0.675 -0.013,-0.675 -0.263,0 -0.175,0.45 -0.075,0.85 0.3,1.2 0.425,0.425 1.763,1.1 4.013,2.025 2.25,0.899 4.1,1.524 5.55,1.875 1.125,0.277 3.225,1.127 6.3,2.552 3.549,1.675 5.462,2.563 5.737,2.662 1.475,0.575 3.65,1.675 6.524,3.3 1.825,0.9 2.8,1.388 2.926,1.463 0.751,0.325 1.25,0.438 1.501,0.338 z"
   id="path38"
   inkscape:connector-curvature="0" />
			<path
   style="clip-rule:evenodd;fill:#d4ae1e;fill-rule:evenodd"
   d="m 15.563,-14.063 c 0.3,-0.125 0.512,-0.2 0.638,-0.225 0.225,-0.05 0.587,-0.038 1.087,0.037 0,-0.075 -0.062,-0.163 -0.188,-0.263 -0.125,-0.1 -0.188,-0.2 -0.188,-0.3 -0.149,-0.025 -0.35,0.025 -0.6,0.15 -0.3,0.149 -0.5,0.237 -0.6,0.262 -0.525,0.125 -1,0.088 -1.426,-0.112 -0.1,-0.1 -0.2,-0.163 -0.3,-0.188 -0.1,-0.025 -0.263,-0.012 -0.487,0.038 -0.225,0.05 -0.388,0.074 -0.487,0.074 -0.4,-0.125 -0.713,-0.212 -0.938,-0.262 -0.9,-0.175 -1.738,-0.238 -2.513,-0.188 -0.425,0 -0.775,0.012 -1.05,0.037 -0.5,0.05 -0.725,0.175 -0.675,0.375 h 0.037 c 0.025,0.05 0.263,0.075 0.713,0.075 0.1,0 0.3,0.05 0.6,0.149 0.225,0.05 0.388,0.063 0.487,0.038 l 0.487,-0.15 c 0.175,-0.05 0.45,-0.025 0.825,0.075 l 1.538,0.338 c 0.125,0.024 0.262,0.05 0.412,0.074 0.075,0 0.125,0.075 0.15,0.226 0.05,0.175 -0.088,0.325 -0.413,0.45 -0.575,0.275 -0.899,0.462 -0.975,0.563 -0.275,0.275 -0.475,0.449 -0.601,0.524 -0.125,0.05 -0.35,0.238 -0.675,0.563 -0.275,0.275 -0.538,0.425 -0.787,0.45 -0.25,0.025 -0.525,-0.075 -0.825,-0.3 -0.35,-0.275 -0.587,-0.438 -0.713,-0.487 -0.024,0 -0.475,-0.013 -1.35,-0.038 -0.621,-0.022 -0.946,-0.185 -0.971,-0.485 0.3,-0.1 0.712,-0.125 1.237,-0.075 0.275,0.025 0.688,0.075 1.237,0.15 0.525,0.025 1.375,-0.075 2.55,-0.3 -0.05,-0.201 -0.225,-0.325 -0.524,-0.375 -0.025,0 -0.325,0 -0.9,0 -1.025,0.051 -1.775,0.063 -2.25,0.038 -0.925,-0.1 -1.625,-0.15 -2.1,-0.15 -0.375,0 -0.65,0.038 -0.825,0.113 -0.25,0.149 -0.475,0.225 -0.675,0.225 -0.05,0.2 0.062,0.338 0.337,0.412 0.126,0.025 0.338,0.063 0.638,0.113 0.65,0.275 1,0.412 1.05,0.412 0.625,0.15 1.488,0.45 2.588,0.9 L 8.1,-11.175 c 0.125,0.025 0.238,0.1 0.338,0.225 0.1,0.15 0.188,0.238 0.263,0.263 0.149,0.05 0.475,0.1 0.975,0.15 0.226,0.05 0.625,0.174 1.2,0.375 0.5,0.149 0.887,0.188 1.162,0.112 -0.05,-0.1 -0.35,-0.275 -0.899,-0.525 -0.425,-0.175 -0.55,-0.4 -0.375,-0.675 0.125,-0.175 0.524,-0.412 1.2,-0.713 0.325,-0.25 0.75,-0.5 1.274,-0.75 0.45,-0.225 0.688,-0.35 0.713,-0.375 0.075,-0.1 0.112,-0.237 0.112,-0.412 0.075,-0.175 0.163,-0.275 0.263,-0.3 0.125,-0.05 0.225,-0.075 0.3,-0.075 l 0.263,0.037 c 0.198,-0.024 0.424,-0.1 0.674,-0.225 z"
   id="path40"
   inkscape:connector-curvature="0" />
			<path
   style="clip-rule:evenodd;fill:#d4ae1e;fill-rule:evenodd"
   d="m 19.35,-9.3 c 0.325,0.025 0.726,-0.013 1.2,-0.112 0.601,-0.1 0.838,-0.275 0.713,-0.525 -0.075,-0.175 -0.4,-0.325 -0.976,-0.45 -0.549,-0.1 -0.912,-0.1 -1.087,0 0.025,0.025 0.275,0.138 0.75,0.338 0.3,0.125 0.212,0.2 -0.263,0.225 -0.575,0.05 -1.1,-0.062 -1.575,-0.337 l 0.038,-0.413 c -0.45,0.025 -0.775,0.025 -0.976,0 -0.3,-0.175 -0.538,-0.287 -0.712,-0.337 -0.275,-0.175 -0.525,-0.226 -0.75,-0.15 -0.125,0.15 -0.263,0.263 -0.413,0.338 -0.149,0.05 -0.575,0.012 -1.274,-0.113 -0.601,-0.125 -0.988,-0.1 -1.163,0.075 -0.175,0.175 0,0.275 0.525,0.3 0.275,0.025 0.625,0.025 1.05,0 l 0.075,0.038 c 0.125,0.125 0.35,0.212 0.675,0.263 0.175,0.024 0.438,0.024 0.787,0 l 0.413,0.188 c 0.825,0.375 1.288,0.575 1.388,0.6 0.3,0.047 0.825,0.072 1.575,0.072 z"
   id="path42"
   inkscape:connector-curvature="0" />
			<path
   style="clip-rule:evenodd;fill:#d4ae1e;fill-rule:evenodd"
   d="m 16.575,-8.213 0.075,0.038 c 0.275,0.05 0.549,0.137 0.824,0.263 0.15,0.1 0.375,0.237 0.676,0.412 0.5,0.25 0.8,0.325 0.899,0.225 0.175,-0.149 0.05,-0.337 -0.375,-0.563 0.425,-0.25 0.413,-0.412 -0.037,-0.487 -0.625,-0.05 -1.013,-0.1 -1.163,-0.149 0.026,-0.051 0.076,-0.126 0.151,-0.226 0.05,-0.1 0.05,-0.175 0,-0.225 -0.075,-0.05 -0.212,-0.05 -0.412,0 -0.226,0.075 -0.375,0.125 -0.45,0.149 -0.226,0.025 -0.5,-0.012 -0.825,-0.112 -0.35,-0.1 -0.625,-0.137 -0.825,-0.112 0.05,0.25 0.25,0.425 0.601,0.525 0.173,0.05 0.461,0.138 0.861,0.262 z"
   id="path44"
   inkscape:connector-curvature="0" />
			<path
   style="clip-rule:evenodd;fill:#d4ae1e;fill-rule:evenodd"
   d="m 16.2,-13.5 c -0.55,-0.15 -0.838,-0.075 -0.862,0.225 -0.325,0.025 -0.576,0.088 -0.75,0.188 -0.201,0.175 -0.375,0.325 -0.525,0.45 -0.475,0.15 -0.725,0.313 -0.75,0.487 0,0.201 0.263,0.263 0.787,0.188 l 0.038,-0.112 c 0.025,0 0.225,-0.05 0.6,-0.149 0.226,-0.025 0.313,-0.138 0.263,-0.338 0.75,-0.1 1.275,-0.125 1.575,-0.075 0.575,0.075 0.775,-0.025 0.6,-0.3 -0.126,-0.202 -0.451,-0.389 -0.976,-0.564 z"
   id="path46"
   inkscape:connector-curvature="0" />
			<path
   style="clip-rule:evenodd;fill:#d4ae1e;fill-rule:evenodd"
   d="m 19.65,-11.888 c 0.125,-0.05 0.024,-0.137 -0.301,-0.263 -0.3,-0.1 -0.537,-0.112 -0.712,-0.037 -0.5,0.2 -0.9,0.275 -1.2,0.225 -0.6,-0.074 -0.913,-0.112 -0.938,-0.112 -0.7,-0.05 -1.1,0.05 -1.2,0.3 -0.05,0.1 0.112,0.188 0.487,0.263 0.375,0.075 0.588,0.063 0.638,-0.037 0.05,-0.175 0.275,-0.238 0.675,-0.188 0.226,0.025 0.525,0.075 0.9,0.149 0.426,0.025 0.976,-0.074 1.651,-0.3 z"
   id="path48"
   inkscape:connector-curvature="0" />
			<path
   style="clip-rule:evenodd;fill:#d4ae1e;fill-rule:evenodd"
   d="m 17.813,-14.85 c -0.125,0.074 -0.013,0.162 0.338,0.262 0.35,0.1 0.587,0.113 0.712,0.038 0.2,-0.125 0.463,-0.2 0.788,-0.226 0.2,0 0.487,0.013 0.862,0.038 0.475,-0.025 1.162,0.025 2.063,0.149 0.475,0.025 0.313,-0.1 -0.487,-0.375 -0.65,-0.1 -1.138,-0.149 -1.463,-0.149 h -1.05 c -0.901,10e-4 -1.489,0.088 -1.763,0.263 z"
   id="path50"
   inkscape:connector-curvature="0" />
			<path
   style="clip-rule:evenodd;fill:#d4ae1e;fill-rule:evenodd"
   d="m 19.294,-13.331 c 0.075,0.012 0.144,0.019 0.206,0.019 0.225,-0.075 0.338,-0.125 0.338,-0.15 0,-0.174 -0.213,-0.287 -0.638,-0.337 -0.7,-0.15 -1.025,-0.075 -0.976,0.225 0,0.125 0.188,0.212 0.563,0.263 0.301,0.041 0.47,0.035 0.507,-0.02 z"
   id="path52"
   inkscape:connector-curvature="0" />
			<path
   style="clip-rule:evenodd;fill:#d4ae1e;fill-rule:evenodd"
   d="M 27.45,-13.688 27.412,-13.8 c -0.2,-0.175 -0.475,-0.275 -0.824,-0.3 -0.325,-0.025 -0.613,0.024 -0.863,0.149 l -0.037,0.075 c 0.025,0.075 0.112,0.137 0.263,0.188 0.042,0.033 0.104,0.071 0.188,0.112 0.275,0.075 0.538,0.1 0.787,0.075 0.274,-0.049 0.449,-0.111 0.524,-0.187 z"
   id="path54"
   inkscape:connector-curvature="0" />
			<path
   style="clip-rule:evenodd;fill:#d4ae1e;fill-rule:evenodd"
   d="m 24.862,-14.138 c 0.05,-0.025 0.112,-0.062 0.188,-0.112 0.076,-0.05 0.1,-0.1 0.075,-0.15 -0.025,-0.149 -0.137,-0.262 -0.338,-0.337 -0.35,-0.2 -0.75,-0.238 -1.199,-0.112 -0.125,0.024 -0.201,0.074 -0.226,0.149 -0.025,0.075 0,0.15 0.075,0.226 0.1,0.074 0.238,0.137 0.412,0.188 0.04,0.014 0.078,0.026 0.113,0.037 0.033,0.025 0.071,0.05 0.112,0.075 0.251,0.149 0.513,0.162 0.788,0.036 z"
   id="path56"
   inkscape:connector-curvature="0" />
			<path
   style="clip-rule:evenodd;fill:#d4ae1e;fill-rule:evenodd"
   d="m 17.213,-14.813 0.3,-0.037 c 0.125,-0.05 0.137,-0.113 0.037,-0.188 -0.4,-0.4 -0.987,-0.513 -1.763,-0.338 -0.5,-0.15 -0.812,-0.238 -0.938,-0.263 -0.3,-0.075 -0.6,-0.075 -0.899,0 -0.1,0 -0.138,0.038 -0.112,0.112 0.125,0.425 0.762,0.638 1.912,0.638 0.187,0 0.293,-0.019 0.318,-0.056 0.119,0 0.257,-0.013 0.413,-0.038 0.016,0.004 0.035,0.01 0.056,0.019 0.276,0.127 0.501,0.176 0.676,0.151 z"
   id="path58"
   inkscape:connector-curvature="0" />
			<path
   style="clip-rule:evenodd;fill:#d4ae1e;fill-rule:evenodd"
   d="m 30.75,-7.65 c 0.325,-0.05 0.438,-0.162 0.338,-0.337 -0.125,-0.2 -0.463,-0.463 -1.013,-0.788 -0.25,-0.2 -0.513,-0.225 -0.788,-0.074 -0.225,0.1 -0.2,0.237 0.075,0.412 0.35,0.2 0.575,0.375 0.675,0.525 0.151,0.174 0.388,0.262 0.713,0.262 z"
   id="path60"
   inkscape:connector-curvature="0" />
			<path
   style="clip-rule:evenodd;fill:#d4ae1e;fill-rule:evenodd"
   d="m 28.05,-12.638 c 0.053,0 0.097,-0.006 0.132,-0.019 0.069,0.019 0.15,0.038 0.243,0.057 0.45,0 0.713,-0.013 0.788,-0.038 0.174,-0.05 0.237,-0.163 0.188,-0.337 -0.075,-0.175 -0.375,-0.325 -0.9,-0.45 -0.675,-0.075 -1.2,0.075 -1.575,0.45 l 0.112,0.149 c 0.324,0.176 0.662,0.239 1.012,0.188 z"
   id="path62"
   inkscape:connector-curvature="0" />
			<path
   style="clip-rule:evenodd;fill:#d4ae1e;fill-rule:evenodd"
   d="m 31.763,-3 c 0.225,0 0.287,-0.075 0.188,-0.225 -0.2,-0.201 -0.375,-0.325 -0.525,-0.375 -0.125,-0.05 -0.287,-0.088 -0.487,-0.113 -0.25,-0.05 -0.388,-0.012 -0.412,0.113 -0.025,0.1 0.012,0.212 0.112,0.337 0.009,0.019 0.021,0.038 0.037,0.057 0.062,0.056 0.174,0.105 0.338,0.149 L 31.275,-3 c 0.175,0.025 0.337,0.025 0.488,0 z m -0.75,-0.412 0.075,-0.038 -0.02,0.038 z"
   id="path64"
   inkscape:connector-curvature="0" />
			<path
   style="clip-rule:evenodd;fill:#d4ae1e;fill-rule:evenodd"
   d="m 23.775,-6.825 c -0.125,0.175 -0.013,0.325 0.337,0.45 0.325,0.1 0.55,0.075 0.675,-0.075 0.201,-0.275 0.213,-0.525 0.038,-0.75 -0.175,-0.175 -0.425,-0.263 -0.75,-0.263 -0.325,0.075 -0.425,0.188 -0.3,0.338 0.075,0.1 0.075,0.2 0,0.3 z"
   id="path66"
   inkscape:connector-curvature="0" />
			<path
   style="clip-rule:evenodd;fill:#d4ae1e;fill-rule:evenodd"
   d="m 14.662,-9.037 c 0.201,0 0.313,-0.025 0.338,-0.075 0,-0.075 -0.05,-0.138 -0.15,-0.188 h -0.037 c 0,-0.025 -0.013,-0.038 -0.037,-0.038 l -0.113,-0.188 c -0.125,-0.174 -0.2,-0.275 -0.225,-0.3 -0.175,-0.175 -0.4,-0.263 -0.675,-0.263 -0.25,0 -0.475,0.075 -0.675,0.226 -0.079,0.059 -0.06,0.108 0.056,0.149 -0.085,0.028 -0.104,0.078 -0.056,0.15 0.3,0.352 0.824,0.527 1.574,0.527 z"
   id="path68"
   inkscape:connector-curvature="0" />
			<path
   style="clip-rule:evenodd;fill:#d4ae1e;fill-rule:evenodd"
   d="m 22.688,-10.725 c -0.5,-0.25 -0.787,-0.413 -0.862,-0.488 -0.05,-0.074 -0.2,-0.125 -0.45,-0.149 -0.3,-0.025 -0.563,0 -0.787,0.075 -0.325,0.074 -0.563,0.137 -0.713,0.188 -0.225,0.074 -0.35,0.137 -0.375,0.188 -0.025,0.149 0.475,0.225 1.5,0.225 0.375,0 0.7,0.137 0.975,0.412 0.425,0.175 0.713,0.175 0.863,0 0.148,-0.201 0.099,-0.351 -0.151,-0.451 z"
   id="path70"
   inkscape:connector-curvature="0" />
			<path
   style="clip-rule:evenodd;fill:#d4ae1e;fill-rule:evenodd"
   d="m 23.175,-7.575 c 0.4,-0.175 0.7,-0.325 0.9,-0.45 0.125,-0.1 -0.038,-0.2 -0.487,-0.3 -0.55,-0.125 -0.85,-0.212 -0.9,-0.263 -0.075,-0.1 0.137,-0.225 0.638,-0.375 0.575,-0.174 0.875,-0.275 0.899,-0.3 0.075,-0.075 0.2,-0.125 0.375,-0.149 0.201,-0.025 0.325,-0.063 0.375,-0.113 0.15,-0.1 0.201,-0.262 0.15,-0.487 0.025,-0.1 0.175,-0.149 0.45,-0.149 0.25,0 0.425,0.024 0.524,0.074 0.15,0.075 0.063,0.238 -0.262,0.488 -0.074,0.074 0.013,0.112 0.263,0.112 0.226,0 0.413,-0.05 0.563,-0.15 0.15,-0.1 0.163,-0.287 0.038,-0.563 -0.075,-0.275 -0.212,-0.512 -0.413,-0.712 -0.1,-0.125 -0.25,-0.226 -0.449,-0.301 -0.175,-0.074 -0.275,-0.149 -0.301,-0.225 -0.074,-0.15 -0.412,-0.25 -1.012,-0.3 -0.175,-0.025 -0.363,-0.1 -0.563,-0.226 l -0.45,-0.3 c -0.1,-0.075 -0.3,-0.1 -0.601,-0.075 -0.3,0.025 -0.462,0.025 -0.487,0 -0.05,-0.35 -0.225,-0.563 -0.524,-0.637 -0.175,-0.075 -0.413,-0.038 -0.713,0.112 -0.225,0.1 -0.412,0.225 -0.563,0.375 -0.1,0.1 -0.025,0.225 0.225,0.375 0.15,0.1 0.363,0.237 0.638,0.412 0.1,0.075 0.425,0.163 0.976,0.263 0.6,0.1 0.987,0.2 1.162,0.3 0.25,0.15 0.388,0.338 0.412,0.563 0.025,0.226 -0.062,0.375 -0.262,0.45 -0.15,0.05 -0.263,0.175 -0.338,0.375 -0.125,0.25 -0.212,0.4 -0.263,0.45 -0.125,0.1 -0.437,0.212 -0.938,0.337 -0.725,0.176 -1.137,0.276 -1.237,0.302 -0.35,0.1 -0.35,0.225 0,0.375 0.325,0.149 0.713,0.212 1.162,0.188 0.201,0 0.288,0.1 0.263,0.3 -0.025,0.25 -0.025,0.387 0,0.412 0.075,0.05 0.325,-0.013 0.75,-0.188 z"
   id="path72"
   inkscape:connector-curvature="0" />
			<path
   style="clip-rule:evenodd;fill:#d4ae1e;fill-rule:evenodd"
   d="M 21.75,-7.838 C 21.625,-7.813 21.388,-7.85 21.037,-7.95 20.762,-8 20.55,-7.987 20.4,-7.912 c -0.175,0.074 -0.226,0.188 -0.15,0.337 0.05,0.1 0.125,0.175 0.225,0.226 l 1.425,0.562 c 0.3,0.1 0.325,-0.063 0.074,-0.488 -0.024,-0.025 0.014,-0.163 0.114,-0.413 0.05,-0.15 -0.063,-0.2 -0.338,-0.15 z"
   id="path74"
   inkscape:connector-curvature="0" />
			<path
   style="clip-rule:evenodd;fill:#d4ae1e;fill-rule:evenodd"
   d="m 21.412,-14.063 c -0.149,0 -0.05,0.125 0.301,0.375 0.325,0.25 0.6,0.4 0.824,0.45 0.15,0.025 0.226,0.125 0.226,0.3 0,0.2 0.025,0.3 0.075,0.3 0.725,0.075 1.425,0.013 2.1,-0.188 0.3,-0.1 0.45,-0.237 0.45,-0.412 -0.025,-0.175 -0.163,-0.288 -0.413,-0.338 -0.475,-0.125 -0.887,-0.287 -1.237,-0.487 -0.3,-0.15 -1.075,-0.15 -2.326,0 z"
   id="path76"
   inkscape:connector-curvature="0" />
			<path
   style="clip-rule:evenodd;fill:#d4ae1e;fill-rule:evenodd"
   d="m 31.05,-9.713 c 0.225,0.175 0.45,0.213 0.675,0.113 0.226,-0.1 0.313,-0.25 0.263,-0.45 -0.1,-0.475 -0.524,-0.862 -1.274,-1.163 -0.301,-0.125 -0.538,-0.25 -0.713,-0.375 -0.15,-0.1 -0.325,-0.188 -0.525,-0.262 C 29.2,-11.95 29,-12 28.875,-12 c -0.2,0.025 -0.438,0.063 -0.713,0.112 C 27.837,-11.863 27.5,-11.9 27.15,-12 c -0.475,-0.15 -0.775,-0.238 -0.9,-0.263 -0.325,-0.025 -0.55,-0.025 -0.675,0 -0.05,0 -0.175,0.063 -0.375,0.188 -0.175,0.1 -0.1,0.212 0.225,0.338 0.35,0.125 0.675,0.163 0.976,0.112 0.1,-0.025 0.337,0.125 0.712,0.45 0.125,0.05 0.25,0.163 0.375,0.337 0.15,0.201 0.275,0.338 0.375,0.413 0.15,0.1 0.375,0.112 0.675,0.037 0.15,-0.05 0.363,-0.137 0.638,-0.263 0.15,-0.074 0.45,0.013 0.9,0.263 0.349,0.2 0.674,0.426 0.974,0.675 z"
   id="path78"
   inkscape:connector-curvature="0" />
			<path
   style="clip-rule:evenodd;fill:#d4ae1e;fill-rule:evenodd"
   d="m 30.713,-9.487 c 0.024,-0.075 -0.063,-0.15 -0.263,-0.226 -0.275,-0.125 -0.463,-0.237 -0.563,-0.337 -0.175,-0.15 -0.388,-0.226 -0.638,-0.226 -0.225,0 -0.388,0.038 -0.487,0.113 -0.1,0.05 -0.1,0.137 0,0.262 0.1,0.125 0.287,0.213 0.563,0.263 0.875,0.226 1.338,0.276 1.388,0.151 z"
   id="path80"
   inkscape:connector-curvature="0" />
			<path
   style="clip-rule:evenodd;fill:#d4ae1e;fill-rule:evenodd"
   d="m 25.987,-7.425 c -0.025,0.05 0.1,0.163 0.375,0.337 0.275,0.226 0.575,0.413 0.9,0.563 0.45,0.226 0.987,0.15 1.612,-0.225 -0.025,-0.1 0.238,-0.3 0.787,-0.6 0.125,-0.1 0.088,-0.201 -0.112,-0.301 -0.3,-0.074 -0.512,-0.137 -0.638,-0.188 -0.125,-0.05 -0.3,-0.024 -0.524,0.075 -0.25,0.125 -0.425,0.188 -0.525,0.188 -0.125,0 -0.412,-0.1 -0.862,-0.3 -0.475,-0.2 -0.75,-0.3 -0.825,-0.3 -0.125,0 -0.313,-0.088 -0.563,-0.263 -0.3,-0.225 -0.55,-0.375 -0.75,-0.45 -0.25,-0.1 -0.425,-0.112 -0.524,-0.037 -0.1,0.125 -0.188,0.225 -0.263,0.3 -0.125,0.1 0.263,0.338 1.162,0.713 0.551,0.25 0.801,0.413 0.75,0.488 z"
   id="path82"
   inkscape:connector-curvature="0" />
			<path
   style="clip-rule:evenodd;fill:#d4ae1e;fill-rule:evenodd"
   d="m 27.75,-8.1 c 0.275,0.024 0.538,-0.038 0.787,-0.188 -0.275,-0.301 -0.5,-0.5 -0.675,-0.601 -0.325,-0.225 -0.7,-0.313 -1.125,-0.263 -0.2,0.025 -0.337,0.088 -0.412,0.188 -0.05,0.15 -0.088,0.263 -0.112,0.338 -0.025,0.1 0.125,0.212 0.449,0.338 0.351,0.1 0.713,0.163 1.088,0.188 z"
   id="path84"
   inkscape:connector-curvature="0" />
			<path
   style="clip-rule:evenodd;fill:#d4ae1e;fill-rule:evenodd"
   d="m 27.787,-9.563 c 0.201,0.075 0.301,0.025 0.301,-0.15 0,-0.2 -0.075,-0.337 -0.226,-0.412 -0.125,-0.075 -0.275,-0.125 -0.45,-0.15 -0.174,0 -0.275,0.063 -0.3,0.188 -0.025,0.125 0.038,0.225 0.188,0.3 z"
   id="path86"
   inkscape:connector-curvature="0" />
			<path
   style="clip-rule:evenodd;fill:#d4ae1e;fill-rule:evenodd"
   d="m 23.625,-5.475 c 0.55,-0.05 0.7,-0.163 0.45,-0.338 -0.275,-0.175 -0.475,-0.3 -0.601,-0.375 -0.2,-0.075 -0.449,-0.125 -0.75,-0.15 -0.275,-0.024 -0.712,-0.149 -1.313,-0.375 -0.8,-0.3 -1.212,-0.449 -1.237,-0.449 -0.25,-0.075 -0.337,-0.013 -0.263,0.188 0.075,0.174 0.201,0.35 0.375,0.524 0.075,0.075 0.363,0.175 0.863,0.3 0.551,0.15 0.939,0.3 1.164,0.45 0.324,0.2 0.762,0.275 1.312,0.225 z"
   id="path88"
   inkscape:connector-curvature="0" />
			<path
   style="clip-rule:evenodd;fill:#d4ae1e;fill-rule:evenodd"
   d="m 24.675,-4.388 c 0.45,0.2 0.862,0.338 1.237,0.413 0.45,0.1 0.613,0.062 0.488,-0.113 -0.275,-0.5 -0.8,-0.812 -1.575,-0.938 -0.675,-0.125 -1.2,-0.1 -1.575,0.075 -0.175,0.05 -0.063,0.138 0.338,0.263 0.675,0.175 1.037,0.275 1.087,0.3 z"
   id="path90"
   inkscape:connector-curvature="0" />
			<path
   style="clip-rule:evenodd;fill:#d4ae1e;fill-rule:evenodd"
   d="m 30.638,-1.388 c 0.5,-0.1 0.712,-0.2 0.638,-0.3 -0.05,-0.075 -0.238,-0.15 -0.563,-0.225 -0.351,-0.1 -0.55,-0.175 -0.601,-0.226 -0.275,-0.55 -0.6,-0.899 -0.975,-1.05 -0.575,-0.225 -1.25,-0.388 -2.025,-0.487 -0.5,-0.05 -0.75,0.025 -0.75,0.225 0.025,0.2 0.226,0.438 0.601,0.713 0.475,0.325 1.175,0.738 2.1,1.238 0.5,0.175 1.024,0.212 1.575,0.112 z"
   id="path92"
   inkscape:connector-curvature="0" />
			<path
   style="clip-rule:evenodd;fill:#d4ae1e;fill-rule:evenodd"
   d="m 31.8,-0.45 c 0.5,0.275 0.738,0.212 0.713,-0.188 -0.025,-0.275 -0.188,-0.475 -0.487,-0.6 -0.201,-0.075 -0.426,-0.087 -0.676,-0.037 -0.3,0.1 -0.537,0.175 -0.712,0.226 -0.2,0.025 -0.15,0.087 0.149,0.188 0.501,0.173 0.838,0.311 1.013,0.411 z"
   id="path94"
   inkscape:connector-curvature="0" />
			<path
   style="clip-rule:evenodd;fill:#d4ae1e;fill-rule:evenodd"
   d="m 29.362,-3.638 c 0.475,0.125 0.675,0.05 0.601,-0.225 -0.05,-0.25 -0.226,-0.475 -0.525,-0.675 C 29.213,-4.764 29.05,-4.926 28.951,-5.026 28.775,-5.175 28.537,-5.3 28.237,-5.4 c -0.8,-0.275 -1.55,-0.487 -2.25,-0.637 -0.45,-0.075 -0.7,-0.075 -0.75,0 0.05,0.125 0.075,0.237 0.075,0.337 0,0.1 0.275,0.238 0.825,0.413 0.275,0.1 0.625,0.212 1.05,0.337 0.25,0.075 0.388,0.388 0.412,0.938 0.075,0.15 0.301,0.238 0.676,0.263 0.6,0.049 0.962,0.086 1.087,0.111 z"
   id="path96"
   inkscape:connector-curvature="0" />
			<path
   style="clip-rule:evenodd;fill:#d4ae1e;fill-rule:evenodd"
   d="m 25.912,-6.338 c 0.201,0.025 0.15,-0.074 -0.149,-0.3 -0.325,-0.225 -0.5,-0.287 -0.525,-0.188 -0.1,0.226 0.125,0.388 0.674,0.488 z"
   id="path98"
   inkscape:connector-curvature="0" />
			<path
   style="clip-rule:evenodd;fill:#d4ae1e;fill-rule:evenodd"
   d="m 30.525,-5.625 c 0.325,0.075 0.662,0.2 1.012,0.375 0.375,0.2 0.638,0.175 0.788,-0.075 0.149,-0.225 0.062,-0.437 -0.263,-0.638 -0.425,-0.3 -0.862,-0.537 -1.312,-0.712 -0.3,-0.1 -0.538,-0.125 -0.713,-0.075 -0.149,0.075 -0.3,0.137 -0.449,0.188 -0.15,0.024 -0.313,0.112 -0.488,0.262 -0.225,0.225 -0.362,0.35 -0.412,0.375 -0.15,0.075 -0.075,0.2 0.225,0.375 0.301,0.2 0.638,0.3 1.013,0.3 0.2,0 0.288,-0.037 0.263,-0.112 -0.025,-0.05 -0.063,-0.125 -0.112,-0.226 -0.002,-0.074 0.148,-0.087 0.448,-0.037 z"
   id="path100"
   inkscape:connector-curvature="0" />
			<path
   style="clip-rule:evenodd;fill:#d4ae1e;fill-rule:evenodd"
   d="m 31.05,-4.313 c 0.275,0.025 0.413,-0.05 0.413,-0.225 0.024,-0.15 -0.138,-0.25 -0.488,-0.301 -0.35,-0.049 -0.475,0.014 -0.375,0.189 0.075,0.2 0.225,0.313 0.45,0.337 z"
   id="path102"
   inkscape:connector-curvature="0" />
			<path
   style="clip-rule:evenodd;fill:#d4ae1e;fill-rule:evenodd"
   d="m 33.6,-3.037 c 0.375,0.024 0.663,-0.125 0.863,-0.45 0.174,-0.3 0.162,-0.55 -0.038,-0.75 -0.25,-0.226 -0.45,-0.163 -0.6,0.188 -0.05,0.1 -0.388,0.2 -1.013,0.3 -0.3,0.075 -0.338,0.2 -0.112,0.375 0.225,0.174 0.525,0.287 0.9,0.337 z"
   id="path104"
   inkscape:connector-curvature="0" />
			<path
   style="clip-rule:evenodd;fill:#d4ae1e;fill-rule:evenodd"
   d="m 33,-2.325 c -0.175,-0.149 -0.438,-0.188 -0.787,-0.112 -0.375,0.075 -0.513,0.15 -0.413,0.224 0.15,0.15 0.375,0.226 0.675,0.226 0.125,0 0.263,-0.038 0.413,-0.112 C 33.063,-2.175 33.1,-2.25 33,-2.325 Z"
   id="path106"
   inkscape:connector-curvature="0" />
			<path
   style="clip-rule:evenodd;fill:#d4ae1e;fill-rule:evenodd"
   d="m 32.7,-4.8 c 0.025,0.025 0.362,0.062 1.013,0.112 0.6,0.075 0.899,-0.275 0.899,-1.05 0,-0.175 -0.188,-0.363 -0.563,-0.563 -0.3,-0.175 -0.212,-0.413 0.263,-0.713 0.275,-0.225 0.025,-0.45 -0.75,-0.675 -0.25,-0.075 -0.613,-0.037 -1.088,0.112 -0.424,0.152 -0.649,0.277 -0.674,0.377 0,0.05 0.226,0.238 0.675,0.563 0.525,0.374 0.825,0.612 0.9,0.712 0.1,0.149 0.05,0.3 -0.15,0.45 -0.275,0.2 -0.487,0.35 -0.637,0.449 -0.15,0.126 -0.113,0.201 0.112,0.226 z"
   id="path108"
   inkscape:connector-curvature="0" />
			<path
   style="clip-rule:evenodd;fill:#d4ae1e;fill-rule:evenodd"
   d="m 32.475,-8.063 c 0.25,0.05 0.413,-0.087 0.488,-0.412 0.074,-0.325 -0.025,-0.538 -0.301,-0.638 -0.25,-0.1 -0.437,-0.15 -0.563,-0.15 -0.125,0.025 -0.237,0.05 -0.337,0.075 -0.3,0.1 -0.475,0.313 -0.525,0.638 -0.025,0.149 0.1,0.263 0.375,0.337 0.176,0.025 0.463,0.075 0.863,0.15 z"
   id="path110"
   inkscape:connector-curvature="0" />
			<path
   style="clip-rule:evenodd;fill:#d4ae1e;fill-rule:evenodd"
   d="m 33.862,-8.063 c 0.15,-0.5 0.038,-0.688 -0.337,-0.563 -0.45,0.151 -0.337,0.339 0.337,0.563 z"
   id="path112"
   inkscape:connector-curvature="0" />
			<path
   style="clip-rule:evenodd;fill:#fff273;fill-rule:evenodd"
   d="m 34.388,-9.075 c 0,0.15 0.25,0.525 0.75,1.125 0.7,0.85 1.1,1.351 1.2,1.5 0.375,0.5 0.225,1.325 -0.45,2.476 0.25,-0.25 0.475,-0.601 0.675,-1.051 0.175,-0.399 0.263,-0.774 0.263,-1.125 0,-0.35 -0.125,-0.675 -0.375,-0.975 C 36.126,-7.45 35.888,-7.688 35.738,-7.838 35.387,-8.188 35.125,-8.575 34.95,-9 34.75,-9.475 34.6,-9.787 34.5,-9.938 c -0.45,-0.625 -1.275,-1.438 -2.475,-2.438 -1.4,-1.15 -2.625,-1.95 -3.676,-2.4 -0.975,-0.449 -1.75,-0.762 -2.324,-0.938 L 22.912,-16.2 c -1.05,-0.2 -1.987,-0.337 -2.813,-0.412 -0.275,-0.025 -0.899,-0.025 -1.875,0 -0.875,0 -1.512,-0.038 -1.912,-0.112 -0.65,-0.226 -1.3,-0.213 -1.95,0.037 -0.55,0.25 -0.925,0.412 -1.125,0.487 -0.275,0.1 -0.538,0.163 -0.787,0.188 -0.425,0.05 -1.388,0.075 -2.888,0.075 -1.575,0 -2.875,0.163 -3.9,0.487 -1.5,0.525 -2.699,0.738 -3.6,0.638 -0.85,-0.075 -1.288,-0.125 -1.313,-0.15 -0.274,-0.075 -0.287,-0.288 -0.036,-0.638 0.174,-0.25 0.612,-0.475 1.313,-0.676 0.8,-0.2 1.299,-0.375 1.5,-0.524 0.074,-0.05 0.35,-0.288 0.824,-0.713 0.275,-0.25 0.638,-0.437 1.088,-0.563 1.075,-0.325 2.075,-0.675 3,-1.05 0.3,-0.125 0.813,-0.225 1.537,-0.3 0.75,-0.1 1.275,-0.2 1.575,-0.3 0.875,-0.325 2.138,-0.588 3.788,-0.788 l 3.824,-0.337 c 1.326,-0.125 2.538,-0.063 3.638,0.188 1.2,0.3 2.125,0.387 2.775,0.262 0.375,-0.074 0.7,-0.174 0.975,-0.3 0.075,0.025 0.513,0.175 1.313,0.45 0.9,0.325 1.638,0.638 2.213,0.938 0.1,0.05 0.837,0.388 2.212,1.013 0.85,0.4 1.45,0.775 1.801,1.125 0.3,0.3 0.662,0.688 1.087,1.162 0.4,0.375 0.962,0.713 1.688,1.013 0.55,0.25 1.2,0.538 1.95,0.862 0.475,0.275 0.75,0.638 0.825,1.088 0.275,1.55 0.362,2.55 0.263,3 l -0.038,0.337 0.226,-1.688 c 0.024,-0.774 0.037,-1.262 0.037,-1.462 -0.05,-0.575 -0.175,-1.013 -0.375,-1.313 -0.35,-0.5 -1.112,-1 -2.287,-1.5 -1.101,-0.55 -1.938,-1.1 -2.513,-1.65 -0.4,-0.4 -0.763,-0.688 -1.088,-0.862 -0.149,-0.075 -0.524,-0.225 -1.125,-0.45 -0.375,-0.125 -0.862,-0.362 -1.462,-0.712 -0.7,-0.4 -1.075,-0.613 -1.125,-0.638 -0.375,-0.175 -1,-0.4 -1.875,-0.675 -1.051,-0.325 -1.75,-0.45 -2.101,-0.375 L 25.763,-21 c -0.3,0.1 -0.55,0.15 -0.75,0.15 -0.35,0.05 -0.825,0 -1.425,-0.15 -1.5,-0.4 -2.75,-0.587 -3.75,-0.563 -0.4,0 -0.775,0.05 -1.125,0.15 -0.4,0.1 -0.75,0.149 -1.051,0.149 -1.225,0 -2.063,0.025 -2.512,0.075 -0.075,0 -1.138,0.188 -3.188,0.563 l -1.013,0.188 c -0.7,0.2 -1.313,0.338 -1.838,0.412 -0.374,0.051 -0.986,0.226 -1.836,0.526 -0.201,0.05 -0.613,0.212 -1.238,0.487 -0.5,0.25 -0.875,0.388 -1.125,0.413 -0.399,0.05 -0.887,0.362 -1.462,0.938 -0.375,0.375 -0.788,0.637 -1.237,0.787 -1.2,0.4 -1.888,0.763 -2.063,1.088 -0.275,0.65 -0.163,1.112 0.337,1.387 0.375,0.226 1.425,0.263 3.15,0.113 0.475,-0.05 1.125,-0.201 1.95,-0.45 0.8,-0.25 1.299,-0.375 1.5,-0.375 0.05,0 0.462,-0.038 1.237,-0.112 0.6,-0.05 1.162,-0.05 1.688,0 1.675,0.149 2.888,-0.013 3.638,-0.488 0.399,-0.25 0.762,-0.387 1.087,-0.412 0.15,-0.025 0.563,0 1.237,0.075 0.726,0.075 1.875,0.125 3.45,0.149 0.4,0.025 0.95,0.113 1.65,0.263 0.725,0.15 1.274,0.238 1.649,0.263 l 2.476,0.263 c 0.524,0.025 1.525,0.425 3,1.2 1.425,0.725 2.399,1.313 2.925,1.762 0.325,0.275 0.988,0.838 1.987,1.688 0.851,0.748 1.277,1.211 1.277,1.386 z"
   id="path114"
   inkscape:connector-curvature="0" />
		</g>
	</g>
</symbol>
<symbol
   id="flash0.ai_x5F_3_x2F_Layer_3_x2F__x3C_Path_x3E__x5F_39"
   viewBox="-0.006 -18 48.962 17.978"
   transform="translate(-13.253485,219.38514)">
	<g
   id="Layer_1_2_">
		<path
   style="clip-rule:evenodd;fill:#ab6700;fill-rule:evenodd"
   d="m 46.35,-0.1 c 1.1,-0.5 1.833,-1.167 2.2,-2 0.2,-0.4 0.333,-1.05 0.4,-1.95 0.033,-0.434 -0.083,-0.8 -0.35,-1.1 -0.434,-0.4 -0.783,-0.75 -1.05,-1.05 -0.333,-0.4 -0.6,-0.883 -0.8,-1.45 -0.133,-0.333 -0.267,-0.717 -0.4,-1.15 -0.067,-0.167 -0.167,-0.284 -0.3,-0.35 -0.3,-0.233 -0.7,-0.583 -1.2,-1.05 -1.3,-1.267 -2.567,-2.233 -3.8,-2.9 -0.633,-0.333 -1.3,-0.85 -2,-1.55 -0.667,-0.633 -1.083,-0.983 -1.25,-1.05 -1.367,-0.5 -2.066,-0.75 -2.1,-0.75 -1.167,-0.367 -2.133,-0.55 -2.9,-0.55 -0.867,0 -1.966,-0.117 -3.3,-0.35 -1.233,-0.2 -1.95,-0.367 -2.15,-0.5 -0.133,-0.1 -0.733,-0.15 -1.8,-0.15 -1.033,0 -2.017,0.05 -2.95,0.15 -0.5,0.067 -1.217,0.033 -2.15,-0.1 -0.767,-0.1 -1.467,-0.033 -2.1,0.2 l -3,0.9 -1.4,0.05 c -2.167,-0.034 -4.05,0.1 -5.65,0.4 -0.7,0.133 -1.6,0.35 -2.7,0.65 -0.867,0.233 -1.717,0.4 -2.55,0.5 -0.933,0.067 -1.466,-0.15 -1.6,-0.65 -0.067,-0.233 -0.034,-0.483 0.1,-0.75 -0.833,-0.133 -1.333,0.133 -1.5,0.8 -0.1,0.434 -0.066,0.8 0.1,1.1 l 0.3,0.3 c 2.6,1.2 5.05,2.184 7.35,2.95 10.434,3.533 16.967,5.717 19.6,6.55 11.6,3.7 17.917,5.317 18.95,4.85 z"
   id="path120"
   inkscape:connector-curvature="0" />
	</g>
</symbol>
<use
   xlink:href="#Symbol_1"
   width="40.120998"
   height="21.563"
   x="0.0040000002"
   y="-21.565001"
   transform="matrix(6.3802984,0,0,-6.3802984,84.538955,1458.9413)"
   style="overflow:visible"
   id="use124" />






</svg>