<?xml version="1.0" encoding="UTF-8" standalone="no"?>
<!-- Generator: Adobe Illustrator 15.1.0, SVG Export Plug-In . SVG Version: 6.00 Build 0)  -->

<svg
   xmlns:dc="http://purl.org/dc/elements/1.1/"
   xmlns:cc="http://creativecommons.org/ns#"
   xmlns:rdf="http://www.w3.org/1999/02/22-rdf-syntax-ns#"
   xmlns:svg="http://www.w3.org/2000/svg"
   xmlns="http://www.w3.org/2000/svg"
   xmlns:sodipodi="http://sodipodi.sourceforge.net/DTD/sodipodi-0.dtd"
   xmlns:inkscape="http://www.inkscape.org/namespaces/inkscape"
   version="1.1"
   id="flash0.ai"
   x="0px"
   y="0px"
   width="256"
   height="256"
   viewBox="0 0 256 256"
   xml:space="preserve"
   sodipodi:docname="pad_tii.svg"
   inkscape:version="0.92.4 (5da689c313, 2019-01-14)"><title
   id="title974">Pad Tii</title><metadata
   id="metadata167"><rdf:RDF><cc:Work
       rdf:about=""><dc:format>image/svg+xml</dc:format><dc:type
         rdf:resource="http://purl.org/dc/dcmitype/StillImage" /><dc:title>Pad Tii</dc:title><cc:license
         rdf:resource="http://creativecommons.org/publicdomain/zero/1.0/" /><dc:creator><cc:Agent><dc:title>Glitch</dc:title></cc:Agent></dc:creator><dc:source>https://opengameart.org/node/20149</dc:source></cc:Work><cc:License
       rdf:about="http://creativecommons.org/publicdomain/zero/1.0/"><cc:permits
         rdf:resource="http://creativecommons.org/ns#Reproduction" /><cc:permits
         rdf:resource="http://creativecommons.org/ns#Distribution" /><cc:permits
         rdf:resource="http://creativecommons.org/ns#DerivativeWorks" /></cc:License></rdf:RDF></metadata><defs
   id="defs165" /><sodipodi:namedview
   pagecolor="#ffffff"
   bordercolor="#666666"
   borderopacity="1"
   objecttolerance="10"
   gridtolerance="10"
   guidetolerance="10"
   inkscape:pageopacity="0"
   inkscape:pageshadow="2"
   inkscape:window-width="1920"
   inkscape:window-height="1025"
   id="namedview163"
   showgrid="false"
   inkscape:zoom="1.579652"
   inkscape:cx="113.14437"
   inkscape:cy="-23.445451"
   inkscape:window-x="-8"
   inkscape:window-y="-8"
   inkscape:window-maximized="1"
   inkscape:current-layer="flash0.ai"
   fit-margin-top="0"
   fit-margin-left="0"
   fit-margin-right="0"
   fit-margin-bottom="0" />
<g
   id="g160"
   transform="matrix(5.5054333,0,0,5.5054333,0.04333034,-15.694686)">
	<path
   style="clip-rule:evenodd;fill:#4b4330;fill-rule:evenodd"
   d="m 12.4,19.35 c 8.167,-2.333 12.534,-3.5 13.1,-3.5 0.5,0 4.1,1.533 10.8,4.6 6.566,3 9.934,4.583 10.101,4.75 0.233,0.2 0.017,0.767 -0.65,1.7 -0.767,0.966 -1.2,1.517 -1.3,1.649 -0.2,0.3 -8.733,3.434 -25.6,9.4 -0.533,0.1 -6.067,-3.467 -16.6,-10.7 -0.4,-0.566 -0.8,-1.15 -1.2,-1.75 C 0.283,24.233 -0.066,23.434 0,23.1 0.067,22.934 4.2,21.684 12.4,19.35 Z"
   id="path2"
   inkscape:connector-curvature="0" />
	<path
   style="clip-rule:evenodd;fill:#060c00;fill-rule:evenodd"
   d="m 44.45,28.55 -25.4,9.101 -0.3,-2.95 27.65,-9.5 c -0.134,0.967 -0.434,1.649 -0.9,2.05 -0.3,0.267 -0.566,0.566 -0.8,0.9 z"
   id="path4"
   inkscape:connector-curvature="0" />
	<path
   style="clip-rule:evenodd;fill:#1d191a;fill-rule:evenodd"
   d="m 0.45,23 18.5,11.4 -0.1,3.55 L 2.25,27.25 0.2,24.35 C 0.067,24.151 0.067,23.867 0.2,23.5 Z"
   id="path6"
   inkscape:connector-curvature="0" />
	<polygon
   style="clip-rule:evenodd;fill:#362f22;fill-rule:evenodd"
   points="5.45,25.9 1.45,23.1 25.6,16.4 25.95,19.85 "
   id="polygon8" />
	<polygon
   style="clip-rule:evenodd;fill:#262118;fill-rule:evenodd"
   points="41.1,26.45 25.7,19.65 25.6,16.75 44.9,25 "
   id="polygon10" />
	<path
   style="clip-rule:evenodd;fill:#d9b456;fill-rule:evenodd"
   d="m 25.95,17.9 c 0.399,0 1.267,-0.133 2.6,-0.4 1.167,-0.1 1.733,0.333 1.7,1.3 l 0.15,0.3 c 0.333,-0.266 0.666,-0.433 1,-0.5 0.433,-0.067 0.699,0.1 0.8,0.5 0.233,-0.1 0.517,-0.133 0.85,-0.1 0.334,0.066 0.601,0.2 0.8,0.4 0.567,0.633 0.851,1.116 0.851,1.449 0,0.267 0.116,0.551 0.35,0.851 0.2,0.267 0.233,0.616 0.101,1.05 -0.067,0.267 -0.034,0.616 0.1,1.05 0.1,0.367 0.1,0.566 0,0.601 -0.267,0.066 -0.816,0.3 -1.65,0.699 -0.866,0.434 -1.416,0.717 -1.649,0.851 -0.3,0.233 -0.733,0.333 -1.3,0.3 -0.567,-0.033 -0.95,0.033 -1.15,0.2 -0.267,0.166 -0.783,0.267 -1.55,0.3 -1.033,0.066 -1.601,0.1 -1.7,0.1 -0.934,0.101 -1.517,0.233 -1.75,0.4 -0.167,0.1 -0.35,0.283 -0.55,0.55 -0.267,0.3 -0.467,0.5 -0.601,0.601 -1.033,0.8 -2.1,0.916 -3.2,0.35 -1.767,-0.833 -2.767,-1.267 -3,-1.3 -0.8,-0.101 -1.25,-0.167 -1.35,-0.2 -0.4,-0.1 -0.767,-0.333 -1.1,-0.7 L 14.25,26 C 14.083,25.8 13.9,25.65 13.7,25.55 13.166,25.517 12.766,25.434 12.5,25.3 c -0.867,-0.399 -1.183,-1.05 -0.95,-1.95 0.167,-0.8 0.634,-1.466 1.4,-2 0.367,-0.267 0.767,-0.433 1.2,-0.5 0.267,-0.033 0.717,-0.1 1.35,-0.199 0.434,-0.134 0.767,-0.367 1,-0.7 0.1,-0.2 0.283,-0.517 0.55,-0.95 0.233,-0.267 0.784,-0.75 1.65,-1.45 0.3,-0.3 0.633,-0.5 1,-0.6 0.2,-0.067 0.583,-0.133 1.15,-0.2 0.7,-0.067 1.5,0.067 2.4,0.4 0.267,0.1 0.717,0.25 1.35,0.45 0.567,0.199 1.016,0.299 1.35,0.299 z"
   id="path12"
   inkscape:connector-curvature="0" />
	<path
   style="clip-rule:evenodd;fill:#ffd465;fill-rule:evenodd"
   d="M 24.25,17.9 23.4,17.7 c 0.166,0.2 0.166,0.4 0,0.6 -0.134,0.2 -0.367,0.267 -0.7,0.2 -0.367,-0.1 -0.633,-0.167 -0.8,-0.2 -1.566,-0.133 -2.867,0.45 -3.9,1.75 0.233,-0.967 1.117,-1.783 2.65,-2.45 1.633,-0.667 2.833,-0.567 3.6,0.3 z"
   id="path14"
   inkscape:connector-curvature="0" />
	<path
   style="clip-rule:evenodd;fill:#ffd465;fill-rule:evenodd"
   d="m 32.6,19.6 h -0.475 c 0.324,0.026 0.499,0.143 0.525,0.351 0.033,0.267 -0.2,0.416 -0.7,0.45 -0.233,0.033 -0.566,-0.034 -1,-0.2 -0.367,-0.167 -0.667,-0.217 -0.9,-0.15 -0.133,0.033 -0.283,0.15 -0.45,0.351 -0.199,0.199 -0.35,0.3 -0.449,0.3 -0.233,0.033 -0.384,0 -0.45,-0.101 -0.134,-0.1 -0.25,-0.166 -0.351,-0.199 -0.267,-0.067 -0.517,-0.184 -0.75,-0.351 -0.366,-0.233 -0.583,-0.366 -0.649,-0.399 -0.5,-0.233 -0.9,-0.301 -1.2,-0.2 -0.134,0.033 -0.483,0.217 -1.05,0.55 -0.334,0.167 -0.783,0.3 -1.351,0.4 -0.6,0.133 -1.066,0.267 -1.399,0.399 l -1.35,0.75 c -0.267,-0.033 -0.417,-0.149 -0.45,-0.35 -0.033,-0.167 0.05,-0.334 0.25,-0.5 0.1,-0.101 0.3,-0.15 0.6,-0.15 0.167,-0.033 0.383,-0.05 0.65,-0.05 0.1,-0.033 0.534,-0.217 1.3,-0.55 0.533,-0.2 1.383,-0.601 2.55,-1.2 1.066,-0.4 1.983,-0.45 2.75,-0.15 0.233,0.1 0.55,0.333 0.95,0.7 0.3,0.267 0.616,0.4 0.95,0.4 0.066,0 0.483,-0.117 1.25,-0.351 C 31.9,19.217 32.3,19.3 32.6,19.6 Z"
   id="path16"
   inkscape:connector-curvature="0" />
	<path
   style="clip-rule:evenodd;fill:#ffd465;fill-rule:evenodd"
   d="m 18.15,20.9 v 0.024 c -0.104,0.484 -0.37,0.759 -0.8,0.825 -0.233,0.033 -0.7,0 -1.4,-0.1 -0.833,-0.167 -1.367,-0.167 -1.6,0 -0.033,0 -0.4,0.383 -1.1,1.149 -0.533,-0.267 -0.566,-0.633 -0.1,-1.1 0.4,-0.434 0.85,-0.717 1.35,-0.851 0.533,-0.166 1.167,-0.25 1.9,-0.25 0.484,0 0.917,0.051 1.3,0.15 0.159,0.044 0.309,0.095 0.45,0.153 z"
   id="path18"
   inkscape:connector-curvature="0" />
	<path
   style="clip-rule:evenodd;fill:#ffd465;fill-rule:evenodd"
   d="m 21.6,22.25 -0.35,-0.3 c 0.067,0 0.283,0.033 0.65,0.1 0.034,0.434 -0.233,0.733 -0.8,0.9 -0.4,0.1 -0.867,0.1 -1.4,0 -0.567,-0.167 -1.017,-0.267 -1.35,-0.3 -0.667,-0.067 -0.85,0.166 -0.55,0.699 0.1,0.2 0.85,0.384 2.25,0.551 0.467,0.1 0.85,0.267 1.15,0.5 0.433,0.3 0.3,0.55 -0.4,0.75 -0.233,0.1 -0.616,-0.034 -1.15,-0.4 -0.633,-0.467 -1.017,-0.717 -1.15,-0.75 -0.667,-0.1 -1.133,-0.184 -1.4,-0.25 -0.434,-0.134 -0.533,-0.434 -0.3,-0.9 0.3,-0.5 1.05,-0.767 2.25,-0.8 0.967,-0.067 1.817,0 2.55,0.2 z"
   id="path20"
   inkscape:connector-curvature="0" />
	<path
   style="clip-rule:evenodd;fill:#ffd465;fill-rule:evenodd"
   d="m 29.6,21.35 c -0.4,0.867 -1.05,1.084 -1.95,0.65 -1,-0.5 -1.667,-0.55 -2,-0.15 -0.2,0.233 -0.184,0.5 0.05,0.801 0.233,0.333 0.316,0.616 0.25,0.85 -0.167,0.434 -0.566,0.7 -1.2,0.8 -0.566,0.066 -1.1,0 -1.6,-0.2 0.1,-0.066 0.483,-0.149 1.149,-0.25 0.533,-0.1 0.816,-0.35 0.851,-0.75 0.033,-0.199 -0.15,-0.533 -0.551,-1 -0.267,-0.333 -0.199,-0.683 0.2,-1.05 0.367,-0.3 0.75,-0.399 1.15,-0.3 0.233,0.066 0.633,0.2 1.2,0.4 0.666,0.115 1.484,0.181 2.451,0.199 z"
   id="path22"
   inkscape:connector-curvature="0" />
	<path
   style="clip-rule:evenodd;fill:#91793a;fill-rule:evenodd"
   d="m 23.3,18.85 c -0.466,0.066 -0.85,0.133 -1.15,0.2 -0.3,0.066 -0.7,0.351 -1.2,0.851 -0.5,0.433 -0.867,0.649 -1.1,0.649 0.1,-0.899 0.7,-1.667 1.8,-2.3 1.053,-0.631 1.927,-0.657 2.625,-0.075 L 24.3,18.2 c -0.02,0.024 -0.036,0.049 -0.05,0.075 -0.291,0.321 -0.607,0.513 -0.95,0.575 z"
   id="path24"
   inkscape:connector-curvature="0" />
	<g
   id="g32">
		<path
   style="clip-rule:evenodd;fill:#91793a;fill-rule:evenodd"
   d="m 32.55,20.9 c -0.166,0.133 -0.366,0.449 -0.6,0.949 -0.267,0.467 -0.5,0.801 -0.7,1 0.033,-0.466 0.066,-0.85 0.1,-1.149 0.067,-0.566 0.217,-0.884 0.45,-0.95 0.167,-0.033 0.417,0.017 0.75,0.15 z"
   id="path26"
   inkscape:connector-curvature="0" />
		<path
   style="clip-rule:evenodd;fill:#91793a;fill-rule:evenodd"
   d="m 29.8,23.45 c 0.634,0 1.117,-0.2 1.45,-0.601 -0.033,0.434 -0.1,1.017 -0.2,1.75 -0.066,0.634 -0.184,1.184 -0.35,1.65 -0.634,0 -1.033,0.066 -1.2,0.2 -0.267,0.166 -0.783,0.267 -1.55,0.3 -1.033,0.066 -1.601,0.1 -1.7,0.1 -0.934,0.101 -1.517,0.233 -1.75,0.4 -0.167,0.1 -0.35,0.283 -0.55,0.55 -0.267,0.3 -0.467,0.5 -0.601,0.601 -1.033,0.8 -2.1,0.916 -3.2,0.35 -1.767,-0.833 -2.767,-1.267 -3,-1.3 -0.8,-0.101 -1.25,-0.167 -1.35,-0.2 -0.4,-0.1 -0.767,-0.333 -1.1,-0.7 L 14.25,26 C 14.083,25.8 13.9,25.65 13.7,25.55 13.166,25.517 12.766,25.434 12.5,25.3 11.8,25 11.45,24.484 11.45,23.75 c 0.4,-0.267 0.767,-0.35 1.1,-0.25 0.2,0.066 0.55,0.25 1.05,0.55 0.367,0.167 0.833,0.233 1.4,0.2 0.767,0 1.25,0.017 1.45,0.05 0.533,0.066 0.966,0.233 1.3,0.5 0.233,0.2 0.517,0.533 0.85,1 0.566,0.767 1.133,1.283 1.7,1.55 0.8,0.4 1.467,0.184 2,-0.649 0.2,-0.267 0.367,-0.566 0.5,-0.9 0.167,-0.166 0.55,-0.233 1.15,-0.2 0.3,0.034 0.75,0.084 1.35,0.15 0.566,0.066 1.033,0.017 1.4,-0.15 0.366,-0.133 0.583,-0.366 0.649,-0.699 0.101,-0.5 0.217,-0.867 0.351,-1.101 0.3,-0.5 0.616,-0.717 0.95,-0.649 0.2,0.032 0.583,0.131 1.15,0.298 z"
   id="path28"
   inkscape:connector-curvature="0" />
		<path
   style="clip-rule:evenodd;fill:#91793a;fill-rule:evenodd"
   d="m 34.7,20.65 v 0.199 c 0,0.233 0.05,0.434 0.149,0.601 0.067,0.1 0.167,0.233 0.301,0.399 l -0.551,0.2 c -0.3,0.033 -0.649,-0.1 -1.05,-0.399 -0.434,-0.367 -0.767,-0.617 -1,-0.75 0.334,-0.267 0.8,-0.317 1.4,-0.15 l 0.1,-0.3 z"
   id="path30"
   inkscape:connector-curvature="0" />
	</g>
	<path
   style="clip-rule:evenodd;fill:#91793a;fill-rule:evenodd"
   d="m 22.75,24.8 c 0.2,0.434 0,0.617 -0.6,0.55 0.034,-0.4 -0.15,-0.784 -0.55,-1.15 -0.367,-0.4 -0.767,-0.634 -1.2,-0.7 0,-0.233 0.434,-0.45 1.3,-0.65 0.864,-0.179 1.405,-0.412 1.625,-0.699 0.16,0.055 0.285,0.171 0.375,0.35 -0.101,0.167 -0.4,0.366 -0.9,0.6 -0.4,0.2 -0.583,0.45 -0.55,0.75 0,0.099 0.167,0.416 0.5,0.949 z"
   id="path34"
   inkscape:connector-curvature="0" />
	<path
   style="clip-rule:evenodd;fill:#91793a;fill-rule:evenodd"
   d="m 18.05,21.15 0.1,-0.301 c 0,-0.233 0.083,-0.416 0.25,-0.55 l 0.85,0.5 c 0.1,0.5 0.017,0.8 -0.25,0.9 -0.433,0.066 -0.783,0.149 -1.05,0.25 -0.133,0.068 -0.45,0.284 -0.95,0.651 -0.367,0.233 -0.75,0.334 -1.15,0.301 -0.033,-0.467 0.3,-0.817 1,-1.051 0.8,-0.333 1.267,-0.6 1.4,-0.8 -0.033,-0.067 -0.1,-0.033 -0.2,0.1 z"
   id="path36"
   inkscape:connector-curvature="0" />
	<path
   style="clip-rule:evenodd;fill:#91793a;fill-rule:evenodd"
   d="m 34.15,24.55 c -1.034,0.167 -1.667,0.316 -1.9,0.45 l -0.6,0.9 c -0.267,0.433 -0.584,0.583 -0.95,0.449 -0.367,-0.166 -0.334,-0.416 0.1,-0.75 0.5,-0.433 0.733,-0.699 0.7,-0.8 -0.033,-0.2 -0.283,-0.333 -0.75,-0.399 -0.366,-0.101 -0.483,-0.351 -0.35,-0.75 0.166,-0.634 0.833,-0.75 2,-0.351 0.923,0.28 1.456,0.172 1.6,-0.325 0.124,0.045 0.424,0.119 0.9,0.226 0.433,0.1 0.666,0.3 0.699,0.6 0.034,0.334 -0.116,0.533 -0.449,0.601 -0.433,0.066 -0.766,0.116 -1,0.149 z"
   id="path38"
   inkscape:connector-curvature="0" />
	<g
   id="g62">
		<path
   style="clip-rule:evenodd;fill:#f9be70;fill-rule:evenodd"
   d="m 11.15,18.9 c 0.9,-0.733 3.017,-0.933 6.35,-0.6 -1.066,0.434 -2.117,0.983 -3.15,1.65 -2.067,1.366 -3.05,2.684 -2.95,3.95 0.067,1.1 0.867,1.733 2.4,1.899 1.4,0.134 2.034,0.483 1.9,1.05 -0.267,1.233 -1.45,1.95 -3.55,2.15 -2.267,0.2 -4,-0.717 -5.2,-2.75 -1.133,-1.866 -0.767,-3.65 1.1,-5.35 0.933,-0.866 1.967,-1.533 3.1,-1.999 z"
   id="path40"
   inkscape:connector-curvature="0" />
		<path
   style="clip-rule:evenodd;fill:#d9742e;fill-rule:evenodd"
   d="m 10.3,19.55 c 1.134,-0.6 2.233,-1.05 3.3,-1.35 1.7,-0.434 3.55,-0.434 5.55,0 -2.133,0.6 -3.716,1.166 -4.75,1.7 -0.633,0.3 -1.316,0.833 -2.05,1.6 l -0.85,1.05 c -0.233,-0.8 -0.533,-1.333 -0.9,-1.6 -0.233,-0.167 -0.583,-0.3 -1.05,-0.4 L 8.95,20.4 Z"
   id="path42"
   inkscape:connector-curvature="0" />
		<path
   style="clip-rule:evenodd;fill:#d9742e;fill-rule:evenodd"
   d="M 7.4,27.05 C 7.3,26.95 7.217,26.833 7.15,26.7 6.983,26.433 6.917,26.283 6.95,26.25 7.016,26.184 6.783,25.733 6.25,24.9 l 0.7,-0.7 C 7.516,23.667 8.033,23.266 8.5,23 c 0.733,-0.366 1.65,-0.366 2.75,0 l 0.15,1.8 c -0.9,-0.2 -1.683,-0.1 -2.35,0.3 -0.4,0.267 -0.8,0.667 -1.2,1.2 z"
   id="path44"
   inkscape:connector-curvature="0" />
		<path
   style="clip-rule:evenodd;fill:#d9742e;fill-rule:evenodd"
   d="m 12.05,25.5 1.55,0.35 -0.65,1.2 c -0.1,0.267 -0.117,0.584 -0.05,0.95 0.034,0.2 0.083,0.366 0.15,0.5 -0.667,0.333 -1.183,0.533 -1.55,0.6 -0.233,0.034 -0.517,-0.033 -0.85,-0.199 L 10.25,28.6 c 0.1,-0.899 0.217,-1.55 0.35,-1.949 0.1,-0.233 0.367,-0.5 0.8,-0.801 0.233,-0.133 0.45,-0.25 0.65,-0.35 z"
   id="path46"
   inkscape:connector-curvature="0" />
		<path
   style="clip-rule:evenodd;fill:#e15e18;fill-rule:evenodd"
   d="M 9.4,21.85 C 8.767,21.884 8.15,22.034 7.55,22.3 L 6.85,22.651 7.2,22 C 7.433,21.533 7.65,21.217 7.85,21.05 8.117,20.783 8.7,20.366 9.6,19.8 l 1.65,0.101 c 0.767,0 1.333,0.283 1.7,0.85 l -1.45,1.8 C 11.133,22.017 10.434,21.783 9.4,21.85 Z"
   id="path48"
   inkscape:connector-curvature="0" />
		<path
   style="clip-rule:evenodd;fill:#ffe0b7;fill-rule:evenodd"
   d="m 10.4,25.3 v -0.1 c 0.333,0.1 0.45,0.316 0.35,0.649 -0.1,0.301 -0.3,0.534 -0.6,0.7 C 9.717,26.249 9.5,25.966 9.5,25.699 9.5,25.432 9.8,25.3 10.4,25.3 Z"
   id="path50"
   inkscape:connector-curvature="0" />
		<path
   style="clip-rule:evenodd;fill:#ffe0b7;fill-rule:evenodd"
   d="m 14.025,26.2 c 0.144,0.104 0.369,0.255 0.675,0.45 0.267,0.233 0.167,0.449 -0.3,0.649 -0.4,0.167 -0.633,0.05 -0.7,-0.35 -0.058,-0.35 0.05,-0.6 0.325,-0.749 z"
   id="path52"
   inkscape:connector-curvature="0" />
		<path
   style="clip-rule:evenodd;fill:#ffe0b7;fill-rule:evenodd"
   d="M 9.95,22.25 9.6,22.15 c 0.467,-0.034 0.9,0 1.3,0.1 0,0.233 -0.167,0.434 -0.5,0.6 -0.333,0.134 -0.633,0.134 -0.9,0 -0.3,-0.133 -0.383,-0.283 -0.25,-0.449 0.167,-0.168 0.4,-0.217 0.7,-0.151 z"
   id="path54"
   inkscape:connector-curvature="0" />
		<path
   style="clip-rule:evenodd;fill:#a84612;fill-rule:evenodd"
   d="m 10.875,19.7 c 0.287,-0.201 0.612,-0.435 0.975,-0.7 0.8,-0.533 1.533,-0.867 2.2,-1 0.733,-0.1 1.467,-0.15 2.2,-0.15 1.033,0.033 1.667,0.217 1.9,0.55 0.034,0 -0.017,0.067 -0.15,0.2 -0.6,-0.4 -1.483,-0.45 -2.65,-0.15 -1.267,0.433 -2.15,0.684 -2.65,0.75 -0.72,0.131 -1.328,0.297 -1.825,0.5 z m -0.95,0.55 C 9.34,20.699 8.931,21.3 8.7,22.05 8.333,21.984 7.95,21.984 7.55,22.05 7.366,22.087 7.216,22.137 7.1,22.2 l 0.15,-0.25 -0.2,0.2 c 0,-0.534 0.333,-0.983 1,-1.351 C 8.417,20.566 9,20.3 9.8,20 c 0.054,0.106 0.095,0.19 0.125,0.25 0.085,-0.07 0.177,-0.138 0.275,-0.2 0.196,-0.127 0.421,-0.243 0.675,-0.35 -0.384,0.278 -0.693,0.495 -0.925,0.649 z"
   id="path56"
   inkscape:connector-curvature="0" />
		<path
   style="clip-rule:evenodd;fill:#a84612;fill-rule:evenodd"
   d="m 7.5,24 c -0.033,0.333 0.017,0.833 0.15,1.5 0.1,0.566 0.083,1.05 -0.05,1.45 C 7.166,26.75 6.867,26.283 6.7,25.55 6.5,24.783 6.55,24.234 6.85,23.901 Z"
   id="path58"
   inkscape:connector-curvature="0" />
		<path
   style="clip-rule:evenodd;fill:#a84612;fill-rule:evenodd"
   d="m 10.45,27.3 c 0.534,0.157 1.101,0.107 1.7,-0.149 0.3,0.133 0.467,0.399 0.5,0.8 0.034,0.233 0.05,0.583 0.05,1.05 -0.967,0.134 -1.517,0.167 -1.65,0.1 -0.167,-0.133 -0.233,-0.35 -0.2,-0.649 0,-0.434 0,-0.667 0,-0.7 z"
   id="path60"
   inkscape:connector-curvature="0" />
	</g>
	<g
   id="g86">
		<path
   style="clip-rule:evenodd;fill:#f9be70;fill-rule:evenodd"
   d="m 21.15,20 c -1.033,0.434 -2.066,0.983 -3.1,1.65 -2.066,1.366 -3.066,2.683 -3,3.949 0.067,1.101 0.867,1.717 2.4,1.851 1.433,0.133 2.083,0.483 1.95,1.05 -0.267,1.233 -1.45,1.95 -3.55,2.15 -2.3,0.233 -4.05,-0.667 -5.25,-2.7 -1.1,-1.9 -0.717,-3.7 1.15,-5.4 0.934,-0.866 1.967,-1.533 3.1,-2 0.867,-0.7 2.967,-0.883 6.3,-0.55 z"
   id="path64"
   inkscape:connector-curvature="0" />
		<path
   style="clip-rule:evenodd;fill:#d9742e;fill-rule:evenodd"
   d="m 12.6,22.05 1.35,-0.85 c 1.133,-0.601 2.233,-1.033 3.3,-1.3 1.7,-0.467 3.55,-0.467 5.55,0 -2.133,0.566 -3.716,1.116 -4.75,1.649 -0.633,0.334 -1.316,0.884 -2.05,1.65 l -0.85,1 c -0.2,-0.8 -0.5,-1.316 -0.9,-1.55 -0.233,-0.167 -0.583,-0.317 -1.05,-0.45 z"
   id="path66"
   inkscape:connector-curvature="0" />
		<path
   style="clip-rule:evenodd;fill:#d9742e;fill-rule:evenodd"
   d="m 12.15,24.7 c 0.733,-0.4 1.667,-0.4 2.8,0 l 0.1,1.75 c -0.9,-0.2 -1.683,-0.101 -2.35,0.3 -0.4,0.267 -0.8,0.667 -1.2,1.2 l -0.45,0.75 c -0.1,-0.101 -0.183,-0.217 -0.25,-0.351 -0.167,-0.233 -0.233,-0.366 -0.2,-0.399 0.066,-0.066 -0.15,-0.533 -0.65,-1.4 l 0.7,-0.7 c 0.534,-0.5 1.034,-0.883 1.5,-1.15 z"
   id="path68"
   inkscape:connector-curvature="0" />
		<path
   style="clip-rule:evenodd;fill:#d9742e;fill-rule:evenodd"
   d="m 14.25,28.35 c 0.1,-0.233 0.367,-0.5 0.8,-0.8 0.233,-0.166 0.45,-0.3 0.65,-0.399 l 1.55,0.399 -0.65,1.15 c -0.133,0.399 -0.1,0.899 0.1,1.5 -0.667,0.333 -1.184,0.533 -1.55,0.6 -0.233,0.033 -0.5,-0.033 -0.8,-0.2 l -0.4,-0.3 c 0.067,-0.934 0.167,-1.583 0.3,-1.95 z"
   id="path70"
   inkscape:connector-curvature="0" />
		<path
   style="clip-rule:evenodd;fill:#e15e18;fill-rule:evenodd"
   d="m 16.6,22.45 -1.45,1.75 c -0.367,-0.533 -1.066,-0.767 -2.1,-0.7 -0.633,0.033 -1.25,0.184 -1.85,0.45 l -0.7,0.35 0.35,-0.649 c 0.233,-0.467 0.45,-0.767 0.65,-0.9 0.3,-0.267 0.883,-0.7 1.75,-1.3 l 1.7,0.1 c 0.734,-10e-4 1.283,0.299 1.65,0.899 z"
   id="path72"
   inkscape:connector-curvature="0" />
		<path
   style="clip-rule:evenodd;fill:#ffe0b7;fill-rule:evenodd"
   d="m 14.05,26.95 v -0.1 c 0.333,0.101 0.45,0.317 0.35,0.65 -0.1,0.3 -0.3,0.55 -0.6,0.75 -0.433,-0.333 -0.65,-0.616 -0.65,-0.85 0,-0.266 0.3,-0.417 0.9,-0.45 z"
   id="path74"
   inkscape:connector-curvature="0" />
		<path
   style="clip-rule:evenodd;fill:#ffe0b7;fill-rule:evenodd"
   d="m 17.7,27.9 c 0.371,0.237 0.588,0.388 0.65,0.449 0.267,0.233 0.167,0.45 -0.3,0.65 -0.4,0.167 -0.616,0.05 -0.65,-0.35 -0.059,-0.35 0.041,-0.6 0.3,-0.749 z"
   id="path76"
   inkscape:connector-curvature="0" />
		<path
   style="clip-rule:evenodd;fill:#ffe0b7;fill-rule:evenodd"
   d="m 13.6,23.9 -0.35,-0.1 c 0.434,-0.033 0.883,0 1.35,0.101 -0.033,0.267 -0.217,0.466 -0.55,0.6 -0.333,0.134 -0.633,0.134 -0.9,0 -0.3,-0.134 -0.367,-0.283 -0.2,-0.45 0.133,-0.167 0.35,-0.218 0.65,-0.151 z"
   id="path78"
   inkscape:connector-curvature="0" />
		<path
   style="clip-rule:evenodd;fill:#a84612;fill-rule:evenodd"
   d="m 13.45,21.65 0.125,0.274 c -0.583,0.425 -0.992,1.017 -1.225,1.775 -0.367,-0.066 -0.75,-0.066 -1.15,0 -0.159,0.031 -0.292,0.073 -0.4,0.125 l 0.15,-0.226 -0.2,0.2 c 0,-0.533 0.333,-0.983 1,-1.35 0.367,-0.231 0.934,-0.498 1.7,-0.798 z M 17.7,19.7 c 0.667,-0.134 1.4,-0.184 2.2,-0.15 1.034,0 1.684,0.184 1.95,0.55 l -0.15,0.15 c -0.6,-0.366 -1.483,-0.4 -2.65,-0.1 -1.267,0.433 -2.15,0.683 -2.65,0.75 -0.719,0.127 -1.327,0.285 -1.825,0.475 0.287,-0.204 0.612,-0.446 0.975,-0.725 0.767,-0.534 1.483,-0.85 2.15,-0.95 z"
   id="path80"
   inkscape:connector-curvature="0" />
		<path
   style="clip-rule:evenodd;fill:#a84612;fill-rule:evenodd"
   d="m 11.15,25.7 c -0.033,0.333 0.017,0.816 0.15,1.45 0.1,0.566 0.083,1.05 -0.05,1.449 -0.4,-0.166 -0.7,-0.633 -0.9,-1.399 -0.2,-0.733 -0.15,-1.267 0.15,-1.601 z"
   id="path82"
   inkscape:connector-curvature="0" />
		<path
   style="clip-rule:evenodd;fill:#a84612;fill-rule:evenodd"
   d="m 13.85,28.9 c -0.033,-0.067 -0.033,-0.101 0,-0.101 0.066,-0.033 0.1,-0.066 0.1,-0.1 l 0.225,0.274 c 0.529,0.111 1.071,0.069 1.625,-0.125 0.3,0.134 0.467,0.4 0.5,0.801 0.034,0.233 0.05,0.566 0.05,1 -0.967,0.133 -1.5,0.166 -1.6,0.1 -0.167,-0.1 -0.25,-0.316 -0.25,-0.65 0,-0.433 0,-0.666 0,-0.699 L 14.175,28.974 C 14.065,28.959 13.957,28.934 13.85,28.9 Z"
   id="path84"
   inkscape:connector-curvature="0" />
	</g>
	<g
   id="g110">
		<path
   style="clip-rule:evenodd;fill:#f9be70;fill-rule:evenodd"
   d="m 18.4,23.2 c 0.333,-0.601 1.367,-1.217 3.1,-1.851 0.867,-0.333 1.7,-0.6 2.5,-0.8 -0.8,0.733 -1.533,1.584 -2.2,2.55 -1.333,1.967 -1.683,3.517 -1.05,4.65 0.567,1 1.583,1.316 3.05,0.95 1.367,-0.367 2.117,-0.25 2.25,0.35 0.267,1.2 -0.517,2.25 -2.35,3.15 -2.034,0.967 -4.034,0.717 -6,-0.75 -1.867,-1.367 -2.3,-3.15 -1.3,-5.351 z"
   id="path88"
   inkscape:connector-curvature="0" />
		<path
   style="clip-rule:evenodd;fill:#d9742e;fill-rule:evenodd"
   d="m 25.5,19.9 c -1.733,1.267 -2.967,2.316 -3.7,3.149 -0.466,0.533 -0.85,1.25 -1.15,2.15 -0.167,0.467 -0.283,0.883 -0.35,1.25 -0.566,-0.634 -1.066,-1.017 -1.5,-1.15 -0.3,-0.066 -0.683,-0.083 -1.15,-0.05 L 17,25.3 17.9,24.1 c 0.767,-0.933 1.583,-1.716 2.45,-2.35 1.4,-1 3.117,-1.616 5.15,-1.85 z"
   id="path90"
   inkscape:connector-curvature="0" />
		<path
   style="clip-rule:evenodd;fill:#d9742e;fill-rule:evenodd"
   d="m 18.45,32 c -0.133,-0.066 -0.267,-0.15 -0.4,-0.25 -0.267,-0.167 -0.383,-0.267 -0.35,-0.3 0.033,-0.101 -0.383,-0.45 -1.25,-1.05 0.1,-0.267 0.216,-0.567 0.35,-0.9 0.3,-0.667 0.6,-1.2 0.9,-1.6 0.533,-0.601 1.4,-0.9 2.6,-0.9 l 0.85,1.6 c -0.9,0.101 -1.583,0.45 -2.05,1.051 -0.267,0.366 -0.45,0.866 -0.55,1.5 -0.067,0.332 -0.1,0.616 -0.1,0.849 z"
   id="path92"
   inkscape:connector-curvature="0" />
		<path
   style="clip-rule:evenodd;fill:#d9742e;fill-rule:evenodd"
   d="m 22.05,29 1.601,-0.15 -0.101,1.3 c 0.033,0.399 0.283,0.833 0.75,1.3 -0.467,0.533 -0.866,0.899 -1.2,1.1 -0.2,0.101 -0.483,0.117 -0.85,0.05 l -0.5,-0.1 c -0.3,-0.866 -0.467,-1.517 -0.5,-1.95 -0.033,-0.233 0.1,-0.566 0.4,-1 0.133,-0.2 0.267,-0.383 0.4,-0.55 z"
   id="path94"
   inkscape:connector-curvature="0" />
		<path
   style="clip-rule:evenodd;fill:#e15e18;fill-rule:evenodd"
   d="m 20.85,24.35 -0.55,2.1 c -0.566,-0.367 -1.316,-0.334 -2.25,0.1 -0.566,0.267 -1.083,0.601 -1.55,1 L 16,28.1 c 0,-0.199 0.017,-0.433 0.05,-0.699 0.034,-0.5 0.1,-0.867 0.2,-1.101 l 1.1,-1.75 1.6,-0.45 c 0.667,-0.267 1.3,-0.183 1.9,0.25 z"
   id="path96"
   inkscape:connector-curvature="0" />
		<path
   style="clip-rule:evenodd;fill:#ffe0b7;fill-rule:evenodd"
   d="M 20.45,29.35 20.4,29.3 c 0.367,-0.033 0.567,0.117 0.6,0.45 0.033,0.3 -0.033,0.6 -0.2,0.9 -0.566,-0.134 -0.9,-0.317 -1,-0.551 -0.133,-0.266 0.083,-0.516 0.65,-0.749 z"
   id="path98"
   inkscape:connector-curvature="0" />
		<path
   style="clip-rule:evenodd;fill:#ffe0b7;fill-rule:evenodd"
   d="m 24.2,29.025 c 0.174,0.032 0.457,0.091 0.85,0.175 0.334,0.133 0.316,0.366 -0.05,0.7 -0.3,0.3 -0.55,0.267 -0.75,-0.101 -0.195,-0.307 -0.212,-0.565 -0.05,-0.774 z"
   id="path100"
   inkscape:connector-curvature="0" />
		<path
   style="clip-rule:evenodd;fill:#ffe0b7;fill-rule:evenodd"
   d="m 18.7,26.7 h -0.35 c 0.533,-0.2 0.967,-0.3 1.3,-0.3 0.1,0.233 0.017,0.466 -0.25,0.699 -0.267,0.233 -0.55,0.334 -0.85,0.301 -0.333,-0.034 -0.466,-0.15 -0.4,-0.351 0.067,-0.165 0.25,-0.282 0.55,-0.349 z"
   id="path102"
   inkscape:connector-curvature="0" />
		<path
   style="clip-rule:evenodd;fill:#a84612;fill-rule:evenodd"
   d="m 17.85,24.85 c -0.355,0.608 -0.488,1.309 -0.4,2.101 -0.333,0.033 -0.684,0.149 -1.05,0.35 -0.141,0.087 -0.25,0.171 -0.325,0.25 l 0.025,-0.2 -0.1,0.2 c -0.233,-0.5 -0.133,-1.033 0.3,-1.6 0.267,-0.3 0.717,-0.733 1.35,-1.3 z m 6.85,-4.45 -0.1,0.2 c -0.699,-0.133 -1.533,0.134 -2.5,0.801 -0.967,0.833 -1.667,1.366 -2.1,1.6 -0.617,0.353 -1.117,0.703 -1.5,1.05 -0.233,0.391 -0.417,0.69 -0.55,0.9 l -0.1,-0.101 c 0.044,-0.087 0.094,-0.17 0.15,-0.25 0.135,-0.181 0.302,-0.363 0.5,-0.55 0.172,-0.281 0.372,-0.615 0.6,-1 0.5,-0.767 1.033,-1.316 1.6,-1.649 0.633,-0.367 1.283,-0.65 1.95,-0.851 0.966,-0.333 1.65,-0.383 2.05,-0.15 z"
   id="path104"
   inkscape:connector-curvature="0" />
		<path
   style="clip-rule:evenodd;fill:#a84612;fill-rule:evenodd"
   d="m 17.2,29.15 c 0.1,0.3 0.367,0.75 0.8,1.35 0.333,0.467 0.517,0.917 0.55,1.35 -0.466,-0.066 -0.95,-0.399 -1.45,-1 -0.5,-0.6 -0.684,-1.116 -0.55,-1.55 z"
   id="path106"
   inkscape:connector-curvature="0" />
		<path
   style="clip-rule:evenodd;fill:#a84612;fill-rule:evenodd"
   d="m 21.425,31.225 c -0.107,0.017 -0.216,0.025 -0.325,0.025 -0.067,-0.066 -0.083,-0.116 -0.05,-0.15 0.034,0 0.05,-0.017 0.05,-0.05 l 0.325,0.175 c 0.532,-0.064 1.007,-0.307 1.425,-0.725 0.333,0.033 0.617,0.233 0.85,0.6 l 0.5,0.9 c -0.867,0.467 -1.367,0.684 -1.5,0.65 -0.2,-0.034 -0.35,-0.2 -0.45,-0.5 -0.167,-0.367 -0.283,-0.584 -0.35,-0.65 z"
   id="path108"
   inkscape:connector-curvature="0" />
	</g>
	<path
   style="clip-rule:evenodd;fill:#3b5200;fill-rule:evenodd"
   d="m 32.1,18.5 c 2.034,2.1 3.417,3.45 4.15,4.05 0.1,0.101 1.1,0.783 3,2.05 1,0.667 1.384,1.167 1.15,1.5 -0.4,0.567 -1.15,0.534 -2.25,-0.1 0.633,0.833 0.716,1.384 0.25,1.65 -0.301,0.199 -0.717,0.1 -1.25,-0.301 l -0.75,-0.6 -1.45,0.95 c -2.967,-3 -5,-4.917 -6.101,-5.75 -0.699,-0.533 -1.933,-1.634 -3.699,-3.3 L 22.7,16.3 l 2.5,0.95 -2.5,-3 3.899,2.7 -1.399,-2.6 6.3,6.4 -2.2,-5.25 z"
   id="path112"
   inkscape:connector-curvature="0" />
	<path
   style="clip-rule:evenodd;fill:#92a661;fill-rule:evenodd"
   d="m 40.4,26.1 c -0.4,0.567 -1.15,0.534 -2.25,-0.1 0.833,0.9 1,1.483 0.5,1.75 -0.301,0.2 -0.767,0.167 -1.4,-0.1 l -0.9,-0.45 c -0.399,0.333 -0.866,0.5 -1.399,0.5 -0.267,0 -0.584,-0.217 -0.95,-0.65 -0.566,-0.8 -1,-1.333 -1.3,-1.6 l 0.6,-0.2 c 0.101,-0.033 0.316,-0.05 0.65,-0.05 0.267,-0.033 0.45,-0.084 0.55,-0.15 0.167,-0.066 0.3,-0.267 0.4,-0.6 0.1,-0.066 0.716,-0.134 1.85,-0.2 0.8,-0.033 1.066,-0.283 0.8,-0.75 1.4,0.934 2.134,1.417 2.2,1.45 0.633,0.5 0.849,0.883 0.649,1.15 z"
   id="path114"
   inkscape:connector-curvature="0" />
	<path
   style="clip-rule:evenodd;fill:#90a701;fill-rule:evenodd"
   d="m 24.95,17.25 0.55,0.15 c 0.467,0.2 0.917,0.5 1.35,0.9 0.634,0.534 2.034,1.8 4.2,3.8 2.233,2.034 3.334,3.051 3.3,3.051 -0.267,0 -0.816,-0.45 -1.649,-1.351 -0.3,-0.333 -1.684,-1.517 -4.15,-3.55 z"
   id="path116"
   inkscape:connector-curvature="0" />
	<polygon
   style="clip-rule:evenodd;fill:#90a701;fill-rule:evenodd"
   points="33.45,22.25 29.8,19.4 33.95,23.65 23.3,14.8 28.15,18.4 25.9,14.65 "
   id="polygon118" />
	<path
   style="clip-rule:evenodd;fill:#90a701;fill-rule:evenodd"
   d="m 32,18.8 -1.9,-2.55 8,7.8 C 35.934,22.783 34.684,22 34.35,21.7 34.116,21.5 33.333,20.533 32,18.8 Z"
   id="path120"
   inkscape:connector-curvature="0" />
	<path
   style="clip-rule:evenodd;fill:#bdd67d;fill-rule:evenodd"
   d="m 38.075,24.225 c 0.098,0.115 0.256,0.156 0.475,0.125 0.066,0 0.25,0.117 0.55,0.351 0.601,0.434 0.767,0.75 0.5,0.95 -0.166,0.166 -0.517,0.05 -1.05,-0.351 -0.366,-0.366 -0.566,-0.616 -0.6,-0.75 0.1,-0.1 0.149,-0.184 0.149,-0.25 z"
   id="path122"
   inkscape:connector-curvature="0" />
	<path
   style="clip-rule:evenodd;fill:#bdd67d;fill-rule:evenodd"
   d="m 37.15,25.5 0.6,0.75 c 0.366,0.467 0.55,0.717 0.55,0.75 0.033,0.533 -0.283,0.467 -0.95,-0.2 C 36.85,26.401 36.567,26.134 36.5,26 36.467,25.634 36.417,25.35 36.35,25.15 L 36.2,24.925 c 0.192,0.153 0.508,0.345 0.95,0.575 z"
   id="path124"
   inkscape:connector-curvature="0" />
	<path
   style="clip-rule:evenodd;fill:#bdd67d;fill-rule:evenodd"
   d="m 34.35,25.7 -0.05,-0.15 0.55,0.351 c 0.534,0.533 0.801,0.816 0.801,0.85 0.033,0.3 -0.167,0.333 -0.601,0.1 -0.133,-0.1 -0.3,-0.283 -0.5,-0.55 C 34.35,26 34.283,25.8 34.35,25.7 Z"
   id="path126"
   inkscape:connector-curvature="0" />
	<path
   style="clip-rule:evenodd;fill:#bdd67d;fill-rule:evenodd"
   d="m 35.1,24.8 c 0.055,0.027 0.122,0.061 0.2,0.101 0.3,0.233 0.45,0.483 0.45,0.75 -0.134,0 -0.3,-0.117 -0.5,-0.351 C 35.05,25.033 35,24.866 35.1,24.8 Z"
   id="path128"
   inkscape:connector-curvature="0" />
	<path
   style="clip-rule:evenodd;fill:#3b5200;fill-rule:evenodd"
   d="m 37.45,24.9 c 0.434,0.566 0.85,0.983 1.25,1.25 -0.3,-0.101 -0.517,-0.2 -0.65,-0.301 -0.267,-0.267 -0.467,-0.449 -0.6,-0.55 L 35.9,24.15 h 0.149 c 0.066,0.066 0.267,0.017 0.601,-0.15 0.133,0.233 0.4,0.533 0.8,0.9 z"
   id="path130"
   inkscape:connector-curvature="0" />
	<path
   style="clip-rule:evenodd;fill:#3b5200;fill-rule:evenodd"
   d="m 34.85,24.05 c -0.033,-0.033 0,-0.083 0.101,-0.149 C 35.017,23.833 35.1,23.8 35.2,23.8 c 0.133,0.367 0.35,0.733 0.649,1.101 -0.166,0 -0.35,-0.101 -0.55,-0.301 -0.267,-0.267 -0.434,-0.416 -0.5,-0.449 z"
   id="path132"
   inkscape:connector-curvature="0" />
	<path
   style="clip-rule:evenodd;fill:#3b5200;fill-rule:evenodd"
   d="m 34.5,24.9 v -0.55 c 0.033,0.101 0.217,0.317 0.55,0.65 l 0.5,0.85 c 0.033,0.067 0.233,0.334 0.601,0.801 0.267,0.333 0.433,0.616 0.5,0.85 l -0.45,-0.4 c -0.134,0.034 -0.267,-0.033 -0.4,-0.199 -0.133,-0.167 -0.233,-0.284 -0.3,-0.351 -0.267,-0.333 -0.483,-0.583 -0.65,-0.75 -0.238,-0.298 -0.396,-0.557 -0.475,-0.774 z"
   id="path134"
   inkscape:connector-curvature="0" />
	<path
   style="clip-rule:evenodd;fill:#3b5200;fill-rule:evenodd"
   d="M 27.95,20.75 33,25.1 c 0.267,0.267 0.483,0.934 0.65,2 l -3.4,-3.449 C 30.017,23.418 29.066,22.634 27.4,21.3 25.833,20.067 25.066,19.45 25.099,19.45 Z"
   id="path136"
   inkscape:connector-curvature="0" />
	<g
   id="g156">
		<path
   style="clip-rule:evenodd;fill:#989a13;fill-rule:evenodd"
   d="m 25.95,22.7 c 3.066,-1.167 5.399,-0.584 7,1.75 0.633,0.934 0.816,1.883 0.55,2.85 -0.3,1.033 -1.134,1.8 -2.5,2.3 -2.667,1.034 -4.65,0.334 -5.95,-2.1 -0.533,-0.967 -0.733,-1.917 -0.6,-2.85 0.166,-0.966 0.666,-1.617 1.5,-1.95 z"
   id="path138"
   inkscape:connector-curvature="0" />
		<path
   style="clip-rule:evenodd;fill:#c6d077;fill-rule:evenodd"
   d="m 26.5,23.4 c 2.434,-0.934 4.283,-0.483 5.55,1.35 1.267,1.833 0.75,3.184 -1.55,4.05 -2.1,0.834 -3.667,0.283 -4.7,-1.649 C 24.767,25.25 25,24 26.5,23.4 Z"
   id="path140"
   inkscape:connector-curvature="0" />
		<polygon
   style="clip-rule:evenodd;fill:#feffeb;fill-rule:evenodd"
   points="28.9,25.8 27.6,23.2 28.65,23.05 "
   id="polygon142" />
		<polygon
   style="clip-rule:evenodd;fill:#feffeb;fill-rule:evenodd"
   points="28.9,25.8 32.45,25.8 32.45,27.1 "
   id="polygon144" />
		<path
   style="clip-rule:evenodd;fill:#feffeb;fill-rule:evenodd"
   d="m 28.8,28.9 c -0.434,0.1 -0.783,0.1 -1.05,0 l -0.9,-0.551 1.95,-2.3 z"
   id="path146"
   inkscape:connector-curvature="0" />
		<path
   style="clip-rule:evenodd;fill:#feffeb;fill-rule:evenodd"
   d="m 26.65,26.5 0.1,0.05 c 0.1,0.033 0.116,0.134 0.05,0.3 h -0.35 c -0.033,-0.166 -0.017,-0.267 0.05,-0.3 0.052,-0.026 0.102,-0.042 0.15,-0.05 z"
   id="path148"
   inkscape:connector-curvature="0" />
		<path
   style="clip-rule:evenodd;fill:#feffeb;fill-rule:evenodd"
   d="m 30.2,27.55 -0.25,-0.1 c 0.3,-0.134 0.5,-0.101 0.6,0.1 0.134,0.2 0.117,0.417 -0.05,0.65 -0.333,-0.033 -0.533,-0.117 -0.6,-0.25 -0.1,-0.134 0,-0.266 0.3,-0.4 z"
   id="path150"
   inkscape:connector-curvature="0" />
		<path
   style="clip-rule:evenodd;fill:#feffeb;fill-rule:evenodd"
   d="m 27.35,24.65 -0.1,-0.2 c 0.967,0.366 1.083,0.6 0.35,0.7 -0.9,0.166 -0.984,0 -0.25,-0.5 z"
   id="path152"
   inkscape:connector-curvature="0" />
		<path
   style="clip-rule:evenodd;fill:#feffeb;fill-rule:evenodd"
   d="m 29.85,24.2 -0.3,0.149 c 0.634,-0.433 0.917,-0.283 0.851,0.45 -0.034,0.167 -0.167,0.184 -0.4,0.05 C 29.733,24.717 29.684,24.5 29.85,24.2 Z"
   id="path154"
   inkscape:connector-curvature="0" />
	</g>
	<path
   style="clip-rule:evenodd;fill:#9c8b63;fill-rule:evenodd"
   d="m 45.8,24.75 0.6,0.45 -26.9,9.6 C 19.133,34.833 12.633,30.934 0,23.1 l 0.65,-0.2 c 12.067,7.3 18.3,10.949 18.7,10.949 0.267,0 4.75,-1.517 13.45,-4.55 4.367,-1.499 8.7,-3.016 13,-4.549 z"
   id="path158"
   inkscape:connector-curvature="0" />
</g>
</svg>