<?xml version="1.0" encoding="UTF-8" standalone="no"?>
<!-- Generator: Adobe Illustrator 15.1.0, SVG Export Plug-In . SVG Version: 6.00 Build 0)  -->

<svg
   xmlns:dc="http://purl.org/dc/elements/1.1/"
   xmlns:cc="http://creativecommons.org/ns#"
   xmlns:rdf="http://www.w3.org/1999/02/22-rdf-syntax-ns#"
   xmlns:svg="http://www.w3.org/2000/svg"
   xmlns="http://www.w3.org/2000/svg"
   xmlns:xlink="http://www.w3.org/1999/xlink"
   xmlns:sodipodi="http://sodipodi.sourceforge.net/DTD/sodipodi-0.dtd"
   xmlns:inkscape="http://www.inkscape.org/namespaces/inkscape"
   version="1.1"
   id="flash0.ai"
   x="0px"
   y="0px"
   width="256"
   height="256"
   viewBox="0 0 256.00001 255.99999"
   xml:space="preserve"
   sodipodi:docname="pancakes.svg"
   inkscape:version="0.92.4 (5da689c313, 2019-01-14)"
   inkscape:export-xdpi="10.5"
   inkscape:export-ydpi="10.5"><title
   id="title950">Pancake</title><metadata
   id="metadata143"><rdf:RDF><cc:Work
       rdf:about=""><dc:format>image/svg+xml</dc:format><dc:type
         rdf:resource="http://purl.org/dc/dcmitype/StillImage" /><dc:title>Pancake</dc:title><cc:license
         rdf:resource="http://creativecommons.org/publicdomain/zero/1.0/" /><dc:creator><cc:Agent><dc:title>Glitch</dc:title></cc:Agent></dc:creator><dc:source>https://opengameart.org/node/20149</dc:source></cc:Work><cc:License
       rdf:about="http://creativecommons.org/publicdomain/zero/1.0/"><cc:permits
         rdf:resource="http://creativecommons.org/ns#Reproduction" /><cc:permits
         rdf:resource="http://creativecommons.org/ns#Distribution" /><cc:permits
         rdf:resource="http://creativecommons.org/ns#DerivativeWorks" /></cc:License></rdf:RDF></metadata><defs
   id="defs141"><linearGradient
     inkscape:collect="always"
     xlink:href="#SVGID_1_"
     id="linearGradient896"
     gradientUnits="userSpaceOnUse"
     x1="0"
     y1="-1.3965"
     x2="22.5"
     y2="-1.3965" /></defs><sodipodi:namedview
   pagecolor="#ffffff"
   bordercolor="#666666"
   borderopacity="1"
   objecttolerance="10"
   gridtolerance="10"
   guidetolerance="10"
   inkscape:pageopacity="0"
   inkscape:pageshadow="2"
   inkscape:window-width="1920"
   inkscape:window-height="1025"
   id="namedview139"
   showgrid="false"
   inkscape:zoom="1.5169661"
   inkscape:cx="-54.148391"
   inkscape:cy="10.122639"
   inkscape:window-x="-8"
   inkscape:window-y="-8"
   inkscape:window-maximized="1"
   inkscape:current-layer="flash0.ai"
   fit-margin-top="0"
   fit-margin-left="0"
   fit-margin-right="0"
   fit-margin-bottom="0" />
<symbol
   id="flash0.ai_x5F_4_x2F_Layer_10_x2F__x3C_Path_x3E__x5F_1"
   viewBox="0 -21.205 40.85 21.2"
   transform="translate(102.94809,160.55418)">
	<g
   id="Layer_1_4_">
		<path
   style="clip-rule:evenodd;fill:#946114;fill-rule:evenodd"
   d="m 21.8,-3.45 c 1.034,-0.267 3.083,-0.7 6.15,-1.3 2.933,-0.7 5.283,-1.567 7.05,-2.6 2.767,-1.566 4.583,-3.417 5.45,-5.55 1.1,-2.7 -0.067,-4.934 -3.5,-6.7 -3.267,-1.7 -7.483,-2.05 -12.65,-1.05 -3.267,0.667 -6.233,1.65 -8.9,2.95 -5.6,2.633 -9.3,4.583 -11.1,5.85 -1.7,1.2 -2.767,2.033 -3.2,2.5 -0.733,0.933 -1.1,2.233 -1.1,3.9 0.033,2.067 0.983,3.5 2.85,4.3 0.333,0.167 1.85,0.5 4.55,1 1.9,0.367 4.483,0.033 7.75,-1 1.767,-0.567 3.983,-1.333 6.65,-2.3 z"
   id="path2"
   inkscape:connector-curvature="0" />
	</g>
</symbol>
<symbol
   id="flash0.ai_x5F_4_x2F_Layer_12_x2F__x3C_Path_x3E_"
   viewBox="0 -18.8 19.65 18.8"
   transform="translate(102.94809,160.55418)">
	<g
   id="Layer_1_3_">
		<path
   style="clip-rule:evenodd;fill:#5c3100;fill-rule:evenodd"
   d="M 3.3,-10.95 C 1.1,-9.883 0,-7.917 0,-5.05 0,-2.717 1.017,-1.033 3.05,0 l 16.6,-17.45 c -0.2,-0.433 -0.967,-0.767 -2.3,-1 -0.833,-0.133 -1.617,-0.233 -2.35,-0.3 l -0.85,-0.05 c 0.133,0.1 0.167,0.367 0.1,0.8 l -0.7,1.55 c -0.433,-0.066 -1.267,0.267 -2.5,1 -3.6,2.2 -6.183,3.7 -7.75,4.5 z"
   id="path6"
   inkscape:connector-curvature="0" />
	</g>
</symbol>
<symbol
   id="flash0.ai_x5F_4_x2F_Layer_13_x2F__x3C_Path_x3E__x5F_1"
   viewBox="0.052 -14.177 44.596 14.177"
   transform="translate(102.94809,160.55418)">
	<g
   id="Layer_1_6_">
		<path
   style="clip-rule:evenodd;fill:#946114;fill-rule:evenodd"
   d="m 42.5,-6.6 c 1.867,-1.533 2.517,-2.95 1.95,-4.25 -0.567,-1.3 -2.233,-2.267 -5,-2.9 -2.3,-0.533 -4.983,-0.567 -8.05,-0.1 -3.5,0.733 -6.217,1.233 -8.15,1.5 -2.167,0.267 -5.65,0.184 -10.45,-0.25 -5.4,-0.5 -8.75,-0.733 -10.05,-0.7 -3.933,0.1 -3.567,2.65 1.1,7.65 C 7.317,-1.883 12.233,0 18.6,0 c 5.233,0 10.15,-0.7 14.75,-2.1 3.967,-1.233 7.017,-2.733 9.15,-4.5 z"
   id="path10"
   inkscape:connector-curvature="0" />
	</g>
</symbol>
<symbol
   id="flash0.ai_x5F_4_x2F_Layer_14_x2F__x3C_Path_x3E_"
   viewBox="0 -9.262 43.788 9.264"
   transform="translate(102.94809,160.55418)">
	<g
   id="Layer_1_5_">
		<path
   style="clip-rule:evenodd;fill:#5c3100;fill-rule:evenodd"
   d="m 43.55,-4.45 c 0.6,-0.767 0.067,-1.683 -1.6,-2.75 -1.7,-1.1 -3.7,-1.75 -6,-1.95 -1.967,-0.2 -3.65,-0.133 -5.05,0.2 -1.933,0.534 -3.816,1 -5.65,1.4 C 22.917,-7.05 21,-6.833 19.5,-6.9 18.167,-7.067 17.25,-7.183 16.75,-7.25 16.117,-7.35 15.733,-7.5 15.6,-7.7 l -0.05,-0.25 -1,0.3 c -0.3,0.066 -1.183,0.033 -2.65,-0.1 C 9.933,-7.917 8.15,-7.983 6.55,-7.95 3.55,-7.883 1.367,-7.967 0,-8.2 l 0.45,0.6 c 0.2,0.233 0.417,0.4 0.65,0.5 0.133,0.067 0.233,0.1 0.3,0.1 0.867,1.367 1.85,2.467 2.95,3.3 1.933,0.6 4.033,1.217 6.3,1.85 4.567,1.2 7.7,1.817 9.4,1.85 2.233,0.033 6.517,-0.517 12.85,-1.65 6.567,-1.2 10.117,-2.133 10.65,-2.8 z"
   id="path14"
   inkscape:connector-curvature="0" />
	</g>
</symbol>
<symbol
   id="flash0.ai_x5F_4_x2F_Layer_17_x2F__x3C_Path_x3E_"
   viewBox="0 -6.887 44.271 6.898"
   transform="translate(102.94809,160.55418)">
	<g
   id="Layer_1_7_">
		<path
   style="clip-rule:evenodd;fill:#5c3100;fill-rule:evenodd"
   d="m 41.2,-4.4 c -0.071,-0.341 0.571,-0.774 1.925,-1.3 1.349,-0.522 1.507,-0.864 0.475,-1.025 -1.025,-0.16 -2.333,-0.202 -3.925,-0.125 -1.587,0.07 -3.429,0.37 -5.525,0.9 -1.833,0.467 -4.833,0.85 -9,1.15 -4.3,0.267 -7.017,0.466 -8.15,0.6 -1.4,0.167 -3.45,0.233 -6.15,0.2 C 7.75,-4.1 5.517,-4.167 4.15,-4.2 1.45,-4.267 0.067,-4.117 0,-3.75 l 1,1 c 0.6,0.5 1.35,1 2.25,1.5 C 4.583,-0.55 5.833,-0.133 7,0 8.233,0.1 14.283,-0.533 25.15,-1.9 35.918,-3.231 41.269,-4.065 41.2,-4.4 Z"
   id="path18"
   inkscape:connector-curvature="0" />
	</g>
</symbol>
<symbol
   id="flash0.ai_x5F_4_x2F_Layer_21_x2F__x3C_Path_x3E__x5F_4"
   viewBox="-0.05 -2.805 22.583 2.818"
   transform="translate(102.94809,160.55418)">
	<g
   id="Layer_1_9_">
		<linearGradient
   id="SVGID_1_"
   gradientUnits="userSpaceOnUse"
   x1="0"
   y1="-1.3965"
   x2="22.5"
   y2="-1.3965">
			<stop
   offset="0"
   style="stop-color:#FAA72F"
   id="stop22" />
			<stop
   offset="1"
   style="stop-color:#B07919"
   id="stop24" />
		</linearGradient>
		<path
   style="clip-rule:evenodd;fill:url(#linearGradient896);fill-rule:evenodd"
   d="m 1.7,-1.9 c -2.133,0.2 -2.317,0.5 -0.55,0.9 2.033,0.433 5.434,0.75 10.2,0.95 3.8,0.167 6.983,0 9.55,-0.5 1.5,-0.3 1.967,-0.7 1.4,-1.2 -0.533,-0.433 -1.25,-0.65 -2.15,-0.65 -0.467,0 -1.566,-0.067 -3.3,-0.2 -1.833,-0.133 -3.05,-0.2 -3.65,-0.2 -0.6,-0.034 -1.534,0.083 -2.8,0.35 -1.333,0.267 -2.433,0.4 -3.3,0.4 C 5.267,-2.117 3.467,-2.067 1.7,-1.9 Z"
   id="path27"
   inkscape:connector-curvature="0" />
	</g>
</symbol>
<symbol
   id="flash0.ai_x5F_4_x2F_Layer_21_x2F__x3C_Path_x3E__x5F_5"
   viewBox="0.033 -6.84 28.882 6.822"
   transform="translate(102.94809,160.55418)">
	<g
   id="Layer_1_8_">
		<path
   style="clip-rule:evenodd;fill:#915600;fill-rule:evenodd"
   d="m 24.1,-0.6 c 1.6,-0.167 2.917,-0.6 3.95,-1.3 1,-0.667 1.133,-1 0.4,-1 -1.133,0 -2.133,-0.25 -3,-0.75 -0.567,-0.434 -0.983,-0.7 -1.25,-0.8 -0.434,-0.2 -1.1,-0.3 -2,-0.3 -2.067,0 -3.9,-0.533 -5.5,-1.6 -0.7,-0.467 -1.667,-0.6 -2.9,-0.4 -0.9,0.167 -1.767,0.45 -2.6,0.85 -0.867,0.467 -1.55,0.833 -2.05,1.1 -0.967,0.466 -1.967,0.833 -3,1.1 -0.467,0.1 -1.833,0.267 -4.1,0.5 -1.466,0.133 -2.133,0.383 -2,0.75 0.233,0.733 2.2,1.4 5.9,2 2.733,0.367 6.083,0.5 10.05,0.4 3.067,-0.067 5.767,-0.25 8.1,-0.55 z"
   id="path31"
   inkscape:connector-curvature="0" />
	</g>
</symbol>
<symbol
   id="flash0.ai_x5F_4_x2F_Layer_7_x2F__x3C_Path_x3E__x5F_1"
   viewBox="-0.023 -18.417 40.429 18.437"
   transform="translate(102.94809,160.55418)">
	<g
   id="Layer_1_2_">
		<path
   style="clip-rule:evenodd;fill:#946114;fill-rule:evenodd"
   d="m 32.2,-1.6 c 2.1,-0.633 4.25,-1.767 6.45,-3.4 1.233,-0.933 1.817,-1.983 1.75,-3.15 0,-0.7 -0.316,-1.65 -0.95,-2.85 -0.3,-0.6 -0.684,-1.117 -1.15,-1.55 -0.667,-0.567 -1.167,-1.067 -1.5,-1.5 -1.1,-1.4 -3.117,-2.2 -6.05,-2.4 -0.2,-0.033 -1.7,-0.466 -4.5,-1.3 -2.233,-0.667 -4.017,-0.833 -5.35,-0.5 -4,0.967 -8.167,1.5 -12.5,1.6 -2.867,0.1 -5.117,1.183 -6.75,3.25 -1.566,1.967 -2.033,4.117 -1.4,6.45 0.567,2 2.833,3.717 6.8,5.15 3.2,1.167 6,1.767 8.4,1.8 7.2,0.133 12.783,-0.4 16.75,-1.6 z"
   id="path35"
   inkscape:connector-curvature="0" />
	</g>
</symbol>
<g
   id="g136"
   transform="matrix(5.1084095,0,0,5.1084095,0.02451073,27.554224)">
	
		<linearGradient
   id="SVGID_2_"
   gradientUnits="userSpaceOnUse"
   x1="-0.0063"
   y1="27.357401"
   x2="41.423801"
   y2="27.357401"
   gradientTransform="matrix(0.85,0,0,0.85,1.220703e-4,4.55)">
		<stop
   offset="0"
   style="stop-color:#F7EDB0"
   id="stop39" />
		<stop
   offset="1"
   style="stop-color:#C7AB48"
   id="stop41" />
	</linearGradient>
	<path
   style="clip-rule:evenodd;fill:url(#SVGID_2_);fill-rule:evenodd"
   d="m 22.184,22.017 c 6.318,-0.878 9.775,-1.119 10.37,-0.722 1.474,0.963 2.338,2.224 2.593,3.782 0.198,1.388 -0.071,2.479 -0.808,3.272 -0.991,1.218 -1.813,2.152 -2.465,2.805 -1.219,1.189 -2.365,1.842 -3.442,1.954 -1.7,0.171 -2.89,0.284 -3.57,0.341 -1.133,0.113 -2.083,0.24 -2.847,0.383 -1.644,0.368 -2.579,0.565 -2.805,0.595 -1.077,0.142 -2.125,0.07 -3.145,-0.213 C 14.564,33.76 11.433,33.351 6.673,32.982 3.868,32.812 1.856,31.551 0.638,29.2 0.014,28.01 -0.155,26.607 0.128,24.992 L 0.723,22.91 c 6.205,0.198 10.256,0.383 12.154,0.553 3.032,-0.511 6.134,-0.993 9.307,-1.446 z"
   id="path44"
   inkscape:connector-curvature="0" />
	
		<use
   xlink:href="#flash0.ai_x5F_4_x2F_Layer_7_x2F__x3C_Path_x3E__x5F_1"
   width="40.429001"
   height="18.437"
   x="-0.023"
   y="-18.417"
   transform="matrix(0.85,0,0,-0.85,-87.355973,153.87095)"
   style="overflow:visible;opacity:0.82810005;enable-background:new"
   id="use46" />
	
		<linearGradient
   id="SVGID_3_"
   gradientUnits="userSpaceOnUse"
   x1="3.5220001"
   y1="21.215799"
   x2="42.471298"
   y2="21.215799"
   gradientTransform="matrix(0.8445,0.096,-0.096,0.8445,2.985448e-4,4.5497)">
		<stop
   offset="0"
   style="stop-color:#F0B543"
   id="stop48" />
		<stop
   offset="1"
   style="stop-color:#C48C1B"
   id="stop50" />
	</linearGradient>
	<path
   style="clip-rule:evenodd;fill:url(#SVGID_3_);fill-rule:evenodd"
   d="m 27.284,18.319 c 1.757,0.538 3.542,1.516 5.355,2.933 1.02,0.793 1.516,1.7 1.487,2.72 0,0.595 -0.256,1.402 -0.766,2.423 -0.255,0.51 -0.581,0.948 -0.978,1.317 -0.566,0.481 -0.991,0.92 -1.275,1.317 -0.878,1.218 -2.55,1.912 -5.014,2.082 -0.171,0.028 -1.417,0.397 -3.741,1.105 -1.87,0.566 -3.357,0.708 -4.462,0.425 C 14.547,31.819 11.077,31.366 7.478,31.281 5.07,31.196 3.186,30.275 1.826,28.519 0.523,26.79 0.14,24.92 0.679,22.909 c 0.482,-1.729 2.366,-3.201 5.653,-4.42 2.635,-0.991 4.972,-1.516 7.012,-1.572 6.035,-0.113 10.682,0.354 13.94,1.402 z"
   id="path53"
   inkscape:connector-curvature="0" />
	
		<use
   xlink:href="#flash0.ai_x5F_4_x2F_Layer_12_x2F__x3C_Path_x3E_"
   width="19.65"
   height="18.799999"
   y="-18.799999"
   transform="matrix(0.85,0,0,-0.85,-73.405773,153.82115)"
   style="overflow:visible;opacity:0.42970001;enable-background:new"
   id="use55"
   x="0" />
	
		<linearGradient
   id="SVGID_4_"
   gradientUnits="userSpaceOnUse"
   x1="24.165001"
   y1="9.0200005"
   x2="65.347298"
   y2="9.0200005"
   gradientTransform="matrix(0.7982,0.292,-0.292,0.7982,-3.52025e-4,4.55)">
		<stop
   offset="0"
   style="stop-color:#F7EDB0"
   id="stop57" />
		<stop
   offset="1"
   style="stop-color:#C7AB48"
   id="stop59" />
	</linearGradient>
	<path
   style="clip-rule:evenodd;fill:url(#SVGID_4_);fill-rule:evenodd"
   d="m 38.079,18.234 c 2.55,0.481 4.576,1.19 6.077,2.125 2.861,1.813 4.703,3.626 5.525,5.439 1.048,2.38 0.17,4.562 -2.636,6.545 -2.72,1.898 -6.332,2.494 -10.837,1.785 -3.286,-0.51 -5.964,-1.388 -8.032,-2.635 -0.595,-0.368 -2.168,-1.104 -4.718,-2.21 -2.38,-1.049 -4.065,-1.927 -5.057,-2.635 -1.501,-1.021 -2.437,-1.771 -2.805,-2.253 -0.68,-0.85 -1.063,-2.082 -1.147,-3.697 -0.113,-2.068 0.439,-3.584 1.658,-4.547 0.595,-0.481 1.714,-0.963 3.357,-1.445 1.615,-0.482 3.98,-0.255 7.097,0.68 1.672,0.481 3.74,1.133 6.205,1.955 0.907,0.199 2.678,0.497 5.313,0.893 z"
   id="path62"
   inkscape:connector-curvature="0" />
	
		<use
   xlink:href="#flash0.ai_x5F_4_x2F_Layer_10_x2F__x3C_Path_x3E__x5F_1"
   width="40.849998"
   height="21.200001"
   y="-21.205"
   transform="matrix(0.85,0,0,-0.85,-72.456073,151.07115)"
   style="overflow:visible;opacity:0.82810005;enable-background:new"
   id="use64"
   x="0" />
	
		<linearGradient
   id="SVGID_5_"
   gradientUnits="userSpaceOnUse"
   x1="25.0488"
   y1="4.6729002"
   x2="64.619698"
   y2="4.6729002"
   gradientTransform="matrix(0.7781,0.342,-0.342,0.7781,4.563928e-4,4.5502)">
		<stop
   offset="0"
   style="stop-color:#F0B543"
   id="stop66" />
		<stop
   offset="1"
   style="stop-color:#C48C1B"
   id="stop68" />
	</linearGradient>
	<path
   style="clip-rule:evenodd;fill:url(#SVGID_5_);fill-rule:evenodd"
   d="m 38.759,18.319 c 2.465,0.595 4.434,1.317 5.907,2.168 2.323,1.359 3.839,2.946 4.548,4.759 0.906,2.295 -0.071,4.208 -2.933,5.737 -2.748,1.445 -6.29,1.743 -10.625,0.894 -2.748,-0.567 -5.241,-1.403 -7.479,-2.508 -1.87,-0.906 -3.386,-1.657 -4.547,-2.253 -2.125,-1.076 -3.712,-1.997 -4.76,-2.762 -1.445,-1.049 -2.323,-1.757 -2.635,-2.125 -0.651,-0.794 -0.963,-1.898 -0.935,-3.315 0.028,-1.756 0.821,-2.975 2.379,-3.654 0.369,-0.17 1.644,-0.468 3.825,-0.893 1.615,-0.312 3.783,-0.028 6.502,0.85 1.474,0.482 3.328,1.133 5.567,1.955 0.879,0.226 2.608,0.609 5.186,1.147 z"
   id="path71"
   inkscape:connector-curvature="0" />
	
		<use
   xlink:href="#flash0.ai_x5F_4_x2F_Layer_14_x2F__x3C_Path_x3E_"
   width="43.787998"
   height="9.2639999"
   y="-9.2620001"
   transform="matrix(0.85,0,0,-0.85,-86.255873,151.27085)"
   style="overflow:visible;opacity:0.42970001;enable-background:new"
   id="use73"
   x="0" />
	
		<linearGradient
   id="SVGID_6_"
   gradientUnits="userSpaceOnUse"
   x1="-0.00048828131"
   y1="12.0132"
   x2="45.524502"
   y2="12.0132"
   gradientTransform="matrix(0.85,0,0,0.85,1.220703e-4,4.55)">
		<stop
   offset="0"
   style="stop-color:#F7EDB0"
   id="stop75" />
		<stop
   offset="1"
   style="stop-color:#C7AB48"
   id="stop77" />
	</linearGradient>
	<path
   style="clip-rule:evenodd;fill:url(#SVGID_6_);fill-rule:evenodd"
   d="m 36.677,14.239 c 1.643,1.559 2.21,2.989 1.7,4.293 -0.482,1.274 -1.927,2.224 -4.336,2.847 -1.982,0.511 -4.292,0.539 -6.927,0.086 -3.032,-0.709 -5.383,-1.205 -7.055,-1.487 -1.87,-0.284 -4.874,-0.199 -9.01,0.255 -4.647,0.509 -7.537,0.736 -8.67,0.68 -2.012,-0.057 -2.748,-0.935 -2.21,-2.636 0.368,-1.161 1.417,-2.818 3.145,-4.972 3.003,-3.711 7.239,-5.567 12.707,-5.567 4.562,0 8.826,0.694 12.792,2.083 3.429,1.189 6.05,2.662 7.864,4.418 z"
   id="path80"
   inkscape:connector-curvature="0" />
	
		<use
   xlink:href="#flash0.ai_x5F_4_x2F_Layer_13_x2F__x3C_Path_x3E__x5F_1"
   width="44.596001"
   height="14.177"
   x="0.052000001"
   y="-14.177"
   transform="matrix(0.85,0,0,-0.85,-87.055673,144.57115)"
   style="overflow:visible;opacity:0.82810005;enable-background:new"
   id="use82" />
	
		<linearGradient
   id="SVGID_7_"
   gradientUnits="userSpaceOnUse"
   x1="0.5474"
   y1="10.8311"
   x2="45.1982"
   y2="10.8311"
   gradientTransform="matrix(0.85,0,0,0.85,1.220703e-4,4.55)">
		<stop
   offset="0"
   style="stop-color:#F0B543"
   id="stop84" />
		<stop
   offset="1"
   style="stop-color:#C48C1B"
   id="stop86" />
	</linearGradient>
	<path
   style="clip-rule:evenodd;fill:url(#SVGID_7_);fill-rule:evenodd"
   d="m 36.591,13.304 c 1.588,1.332 2.14,2.55 1.658,3.655 -0.453,1.105 -1.87,1.926 -4.25,2.465 -1.955,0.453 -4.235,0.467 -6.842,0.042 C 24.182,18.871 21.872,18.46 20.229,18.234 18.387,17.979 15.426,18.049 11.347,18.447 6.729,18.872 3.882,19.07 2.805,19.042 0.822,18.985 0.099,18.234 0.638,16.79 1.006,15.77 2.04,14.339 3.74,12.498 c 2.975,-3.173 7.154,-4.76 12.537,-4.76 4.448,0 8.627,0.595 12.538,1.785 3.371,1.019 5.963,2.28 7.776,3.781 z"
   id="path89"
   inkscape:connector-curvature="0" />
	
		<use
   xlink:href="#flash0.ai_x5F_4_x2F_Layer_17_x2F__x3C_Path_x3E_"
   width="44.271"
   height="6.8979998"
   y="-6.8870001"
   transform="matrix(0.8378,0.1433,0.1433,-0.8378,-103.75732,127.90973)"
   style="overflow:visible;opacity:0.42970001;enable-background:new"
   id="use91"
   x="0" />
	
		<linearGradient
   id="SVGID_8_"
   gradientUnits="userSpaceOnUse"
   x1="3.2583001"
   y1="6.6684999"
   x2="50.158298"
   y2="6.6684999"
   gradientTransform="matrix(0.8378,0.1433,-0.1433,0.8378,4.1496,1.7002)">
		<stop
   offset="0"
   style="stop-color:#F7EDB0"
   id="stop93" />
		<stop
   offset="1"
   style="stop-color:#C7AB48"
   id="stop95" />
	</linearGradient>
	<path
   style="clip-rule:evenodd;fill:url(#SVGID_8_);fill-rule:evenodd"
   d="m 43.493,13.172 c 2.144,1.919 2.13,3.426 -0.04,4.521 -2.05,1.058 -4.344,1.197 -6.885,0.418 C 32.941,16.973 28.893,15.849 24.425,14.74 18.055,13.162 13.071,12.223 9.472,11.924 5.79,11.61 4.661,10.727 6.088,9.275 7.272,8.069 9.253,7.072 12.032,6.282 c 1.992,-0.55 4.121,-0.819 6.39,-0.805 1.924,0.013 4.604,0.227 8.039,0.643 3.916,0.468 7.173,1.255 9.771,2.361 2.464,1.054 4.885,2.618 7.261,4.691 z"
   id="path98"
   inkscape:connector-curvature="0" />
	<path
   style="clip-rule:evenodd;fill:#946114;fill-rule:evenodd"
   d="m 42.915,12.771 c 2.141,1.602 2.266,2.802 0.376,3.6 -1.792,0.729 -3.937,0.75 -6.436,0.063 C 33.515,15.46 29.577,14.456 25.039,13.422 18.841,12.016 13.987,11.157 10.476,10.845 6.905,10.55 5.941,9.796 7.586,8.582 8.969,7.554 11.02,6.741 13.737,6.142 c 1.879,-0.397 3.806,-0.571 5.781,-0.521 1.285,0.047 3.729,0.293 7.333,0.737 3.687,0.458 6.776,1.217 9.269,2.275 2.065,0.871 4.33,2.251 6.795,4.138 z"
   id="path100"
   inkscape:connector-curvature="0" />
	
		<linearGradient
   id="SVGID_9_"
   gradientUnits="userSpaceOnUse"
   x1="4.46"
   y1="5.6322999"
   x2="49.261101"
   y2="5.6322999"
   gradientTransform="matrix(0.8388,0.1372,-0.1505,0.8367,4.1497,1.6998)">
		<stop
   offset="0"
   style="stop-color:#F0B543"
   id="stop102" />
		<stop
   offset="1"
   style="stop-color:#C48C1B"
   id="stop104" />
	</linearGradient>
	<path
   style="clip-rule:evenodd;fill:url(#SVGID_9_);fill-rule:evenodd"
   d="m 42.805,12.408 c 2.141,1.602 2.251,2.799 0.334,3.592 -1.797,0.756 -3.927,0.78 -6.393,0.071 C 32.986,15.025 29.031,14.032 24.88,13.093 18.653,11.683 13.799,10.823 10.317,10.515 6.751,10.193 5.789,9.425 7.434,8.211 8.785,7.206 10.849,6.395 13.627,5.778 c 1.879,-0.397 3.792,-0.573 5.739,-0.527 1.313,0.052 3.757,0.298 7.333,0.737 3.659,0.453 6.749,1.212 9.27,2.275 2.036,0.866 4.315,2.247 6.836,4.145 z"
   id="path107"
   inkscape:connector-curvature="0" />
	
		<use
   xlink:href="#flash0.ai_x5F_4_x2F_Layer_21_x2F__x3C_Path_x3E__x5F_5"
   width="28.882"
   height="6.822"
   x="0.033"
   y="-6.8400002"
   transform="matrix(0.8378,0.1433,0.1433,-0.8378,-94.05712,123.35993)"
   style="overflow:visible;opacity:0.69919996;enable-background:new"
   id="use109" />
	
		<use
   xlink:href="#flash0.ai_x5F_4_x2F_Layer_21_x2F__x3C_Path_x3E__x5F_4"
   width="22.583"
   height="2.8180001"
   x="-0.050000001"
   y="-2.8050001"
   transform="matrix(0.8378,0.1433,0.1433,-0.8378,-92.10742,124.10993)"
   style="overflow:visible;opacity:0.5;enable-background:new"
   id="use111" />
	
		<linearGradient
   id="SVGID_10_"
   gradientUnits="userSpaceOnUse"
   x1="25.8018"
   y1="4.8179002"
   x2="29.8018"
   y2="4.8179002"
   gradientTransform="matrix(0.8378,0.1433,-0.1433,0.8378,4.1496,1.7002)">
		<stop
   offset="0"
   style="stop-color:#B87B18"
   id="stop113" />
		<stop
   offset="0.9569"
   style="stop-color:#AC7314"
   id="stop115" />
	</linearGradient>
	<path
   style="clip-rule:evenodd;fill:url(#SVGID_10_);fill-rule:evenodd"
   d="m 27.677,9.346 c 0.572,0.184 0.842,0.374 0.808,0.569 -0.056,0.163 -0.366,0.296 -0.931,0.401 -0.531,0.082 -1.026,0.04 -1.487,-0.125 -0.433,-0.16 -0.736,-0.399 -0.912,-0.716 -0.147,-0.313 0.039,-0.482 0.562,-0.508 0.46,-0.007 1.113,0.119 1.96,0.379 z"
   id="path118"
   inkscape:connector-curvature="0" />
	
		<linearGradient
   id="SVGID_11_"
   gradientUnits="userSpaceOnUse"
   x1="35.162102"
   y1="3.5864"
   x2="37.037102"
   y2="3.5864"
   gradientTransform="matrix(0.8378,0.1433,-0.1433,0.8378,4.1496,1.7002)">
		<stop
   offset="0"
   style="stop-color:#B87B18"
   id="stop120" />
		<stop
   offset="0.9569"
   style="stop-color:#AC7314"
   id="stop122" />
	</linearGradient>
	<path
   style="clip-rule:evenodd;fill:url(#SVGID_11_);fill-rule:evenodd"
   d="m 33.929,9.596 c 0.833,0.171 0.996,0.313 0.488,0.428 -0.536,0.109 -0.939,0.112 -1.21,0.009 -0.214,-0.094 -0.222,-0.21 -0.025,-0.35 0.163,-0.115 0.413,-0.144 0.747,-0.087 z"
   id="path125"
   inkscape:connector-curvature="0" />
	
		<linearGradient
   id="SVGID_12_"
   gradientUnits="userSpaceOnUse"
   x1="39.150398"
   y1="2.1401"
   x2="40.350399"
   y2="2.1401"
   gradientTransform="matrix(0.8378,0.1433,-0.1433,0.8378,4.1496,1.7002)">
		<stop
   offset="0"
   style="stop-color:#B87B18"
   id="stop127" />
		<stop
   offset="0.9569"
   style="stop-color:#AC7314"
   id="stop129" />
	</linearGradient>
	<path
   style="clip-rule:evenodd;fill:url(#SVGID_12_);fill-rule:evenodd"
   d="m 37.412,8.898 c 0.354,0.119 0.399,0.27 0.138,0.455 -0.239,0.218 -0.485,0.233 -0.741,0.046 -0.232,-0.155 -0.25,-0.302 -0.054,-0.44 0.164,-0.117 0.383,-0.136 0.657,-0.061 z"
   id="path132"
   inkscape:connector-curvature="0" />
	<path
   style="clip-rule:evenodd;fill:#915600;fill-rule:evenodd"
   d="m 37.772,9.563 c 0.53,0.091 0.861,0.09 0.992,-0.003 0.356,0.435 0.312,0.614 -0.135,0.538 -0.95,-0.163 -1.824,-0.096 -2.621,0.198 -0.537,0.282 -0.924,0.446 -1.162,0.492 -0.392,0.105 -0.965,0.093 -1.719,-0.036 -1.731,-0.296 -3.344,-0.112 -4.837,0.553 -0.653,0.291 -1.482,0.264 -2.487,-0.081 -0.73,-0.269 -1.416,-0.63 -2.057,-1.085 C 23.087,9.624 22.567,9.219 22.186,8.924 21.443,8.395 20.657,7.944 19.83,7.573 19.453,7.422 18.332,7.086 16.466,6.566 15.258,6.245 14.736,5.94 14.9,5.652 14.919,5.54 15.006,5.454 15.16,5.394 c 0.059,0.327 0.763,0.663 2.112,1.008 2.411,0.527 4.35,1.376 5.816,2.547 0.353,0.29 0.908,0.745 1.664,1.362 0.753,0.474 1.525,0.664 2.318,0.569 0.526,-0.054 1.274,-0.228 2.245,-0.521 0.667,-0.202 1.253,-0.274 1.761,-0.216 0.475,0.081 1.126,0.221 1.955,0.42 0.665,0.143 1.188,0.117 1.564,-0.077 1.448,-0.73 2.507,-1.037 3.177,-0.923 z"
   id="path134"
   inkscape:connector-curvature="0" />
</g>
</svg>