<?xml version="1.0" encoding="UTF-8" standalone="no"?>
<!-- Generator: Adobe Illustrator 15.1.0, SVG Export Plug-In . SVG Version: 6.00 Build 0)  -->

<svg
   xmlns:dc="http://purl.org/dc/elements/1.1/"
   xmlns:cc="http://creativecommons.org/ns#"
   xmlns:rdf="http://www.w3.org/1999/02/22-rdf-syntax-ns#"
   xmlns:svg="http://www.w3.org/2000/svg"
   xmlns="http://www.w3.org/2000/svg"
   xmlns:sodipodi="http://sodipodi.sourceforge.net/DTD/sodipodi-0.dtd"
   xmlns:inkscape="http://www.inkscape.org/namespaces/inkscape"
   version="1.1"
   id="flash0.ai"
   x="0px"
   y="0px"
   width="256"
   height="256"
   viewBox="0 0 256.00001 255.99999"
   xml:space="preserve"
   sodipodi:docname="pizza_01.svg"
   inkscape:version="0.92.4 (5da689c313, 2019-01-14)"><title
   id="title1904">Pizza</title><metadata
   id="metadata1097"><rdf:RDF><cc:Work
       rdf:about=""><dc:format>image/svg+xml</dc:format><dc:type
         rdf:resource="http://purl.org/dc/dcmitype/StillImage" /><dc:title>Pizza</dc:title><cc:license
         rdf:resource="http://creativecommons.org/publicdomain/zero/1.0/" /><dc:creator><cc:Agent><dc:title>Glitch</dc:title></cc:Agent></dc:creator><dc:source>https://opengameart.org/node/20149</dc:source></cc:Work><cc:License
       rdf:about="http://creativecommons.org/publicdomain/zero/1.0/"><cc:permits
         rdf:resource="http://creativecommons.org/ns#Reproduction" /><cc:permits
         rdf:resource="http://creativecommons.org/ns#Distribution" /><cc:permits
         rdf:resource="http://creativecommons.org/ns#DerivativeWorks" /></cc:License></rdf:RDF></metadata><defs
   id="defs1095" /><sodipodi:namedview
   pagecolor="#ffffff"
   bordercolor="#666666"
   borderopacity="1"
   objecttolerance="10"
   gridtolerance="10"
   guidetolerance="10"
   inkscape:pageopacity="0"
   inkscape:pageshadow="2"
   inkscape:window-width="1920"
   inkscape:window-height="1025"
   id="namedview1093"
   showgrid="false"
   inkscape:zoom="2.2880305"
   inkscape:cx="165.34355"
   inkscape:cy="-18.294931"
   inkscape:window-x="-8"
   inkscape:window-y="-8"
   inkscape:window-maximized="1"
   inkscape:current-layer="flash0.ai"
   fit-margin-top="0"
   fit-margin-left="0"
   fit-margin-right="0"
   fit-margin-bottom="0" />








<g
   id="g291"
   transform="matrix(5.0491954,0,0,5.0491954,-105.55974,-26.456441)">
	<path
   style="clip-rule:evenodd;fill:#ebc76c;fill-rule:evenodd"
   d="m 67.8,26 c 2.634,1.533 3.9,3.5 3.8,5.9 -0.166,3.366 -4.116,5.699 -11.85,7 -6.733,1.166 -14.3,1.333 -22.7,0.5 -6.367,-0.634 -10.966,-2.15 -13.8,-4.551 -2.5,-2.1 -3,-4.066 -1.5,-5.899 1.367,-1.7 2.833,-3 4.4,-3.9 1.767,-1.033 4.15,-1.866 7.15,-2.5 7.8,-1.633 15.384,-1.717 22.75,-0.25 5.4,1.033 9.316,2.266 11.75,3.7 z"
   id="path34"
   inkscape:connector-curvature="0" />
	<path
   style="clip-rule:evenodd;fill:#fadca0;fill-rule:evenodd"
   d="M 64.95,25.75 C 61.183,24.283 57.167,23.217 52.9,22.55 50.309,22.136 47.984,21.91 45.924,21.875 l 2.625,-0.025 c 3.5,0.101 6.684,0.483 9.55,1.15 2.967,0.7 5.384,1.467 7.25,2.3 0.9,0.4 1.934,0.967 3.101,1.7 0.6,0.366 0.899,0.816 0.899,1.35 0,0.267 -0.05,0.483 -0.149,0.65 -0.033,-0.267 -0.25,-0.616 -0.65,-1.05 -0.767,-0.834 -1.967,-1.566 -3.6,-2.2 z"
   id="path36"
   inkscape:connector-curvature="0" />
	<path
   style="clip-rule:evenodd;fill:#c99f48;fill-rule:evenodd"
   d="m 70.7,32.25 c 0.366,-0.833 0.333,-2.1 -0.101,-3.8 0.733,1.033 1.067,2.184 1,3.45 -0.166,3.366 -4.116,5.699 -11.85,7 -6.733,1.166 -14.3,1.333 -22.7,0.5 -5.566,-0.567 -9.816,-1.817 -12.75,-3.75 -2.566,-1.7 -3.633,-3.483 -3.2,-5.351 0.333,1.5 1.316,2.816 2.95,3.95 2.067,1.434 5.034,2.4 8.9,2.9 13.767,1.733 22.566,1.933 26.399,0.6 1.733,-0.6 3.467,-1.35 5.2,-2.25 1.434,-0.8 2.4,-1.25 2.9,-1.35 1.1,-0.233 1.783,-0.417 2.05,-0.551 0.535,-0.265 0.936,-0.714 1.202,-1.348 z"
   id="path38"
   inkscape:connector-curvature="0" />
	<path
   style="clip-rule:evenodd;fill:#a88334;fill-rule:evenodd"
   d="m 67.35,36.1 c 2.267,-1.333 3.667,-2.733 4.2,-4.199 -0.166,3.366 -4.116,5.699 -11.85,7 -6.7,1.166 -14.25,1.333 -22.65,0.5 -3.767,-0.367 -6.95,-1.067 -9.55,-2.101 -2.333,-0.934 -4.067,-2.05 -5.2,-3.35 0.967,0.8 2.1,1.55 3.4,2.25 1.433,0.733 2.667,1.166 3.7,1.3 0.067,0 1.217,0.3 3.45,0.9 1.433,0.366 3.183,0.566 5.25,0.6 1.7,0.033 4.717,0.134 9.05,0.3 3.833,0.101 6.517,0.05 8.05,-0.149 2.767,-0.334 4.8,-0.634 6.1,-0.9 2.4,-0.501 4.417,-1.218 6.05,-2.151 z"
   id="path40"
   inkscape:connector-curvature="0" />
	<path
   style="clip-rule:evenodd;fill:#bd4d1e;fill-rule:evenodd"
   d="m 63.1,25.7 c 3.134,1.333 4.801,2.566 5,3.7 0.2,1.166 -0.933,2.333 -3.399,3.5 -2.634,1.267 -6.05,2.133 -10.25,2.6 -3.066,0.366 -6.334,0.483 -9.8,0.35 -4,-0.133 -7.733,-0.583 -11.2,-1.35 -5.567,-1.2 -8.184,-3.2 -7.85,-6 0.1,-0.934 1.3,-1.95 3.6,-3.05 1.933,-0.9 3.933,-1.584 6,-2.05 2.966,-0.634 6.316,-0.917 10.05,-0.851 1.9,0.066 4.467,0.267 7.7,0.601 3.566,0.367 6.949,1.216 10.149,2.55 z"
   id="path42"
   inkscape:connector-curvature="0" />
	<path
   style="clip-rule:evenodd;fill:#fadca0;fill-rule:evenodd"
   d="m 43.55,37.45 c 2.367,0.233 4.134,0.467 5.3,0.7 1.667,0.333 4.534,0.333 8.601,0 -1.4,0.333 -3.017,0.5 -4.851,0.5 -3.4,0 -5.7,-0.05 -6.9,-0.15 -2.567,-0.167 -5.017,-0.366 -7.35,-0.6 -3.233,-0.367 -5.533,-0.7 -6.9,-1 -1.267,-0.267 -2.317,-0.551 -3.15,-0.851 -1,-0.399 -1.9,-0.75 -2.7,-1.05 -1.867,-0.667 -2.867,-1.75 -3,-3.25 -0.067,-0.6 -0.133,-0.95 -0.2,-1.05 -0.066,-0.134 -0.217,-0.15 -0.45,-0.05 -0.333,0.166 -0.317,-0.117 0.05,-0.851 0.333,-0.7 0.783,-1.166 1.35,-1.399 0.233,-0.101 0.333,0.25 0.3,1.05 -0.033,0.434 -0.1,1.083 -0.2,1.95 0,0.466 0.167,0.883 0.5,1.25 0.2,0.267 0.583,0.6 1.15,1 0.2,0.133 0.583,0.383 1.15,0.75 0.433,0.267 0.8,0.517 1.1,0.75 0.467,0.366 2.167,0.783 5.1,1.25 3.3,0.5 5.433,0.75 6.4,0.75 0.967,0 2.533,0.101 4.7,0.301 z"
   id="path44"
   inkscape:connector-curvature="0" />
	<path
   style="clip-rule:evenodd;fill:#c99f48;fill-rule:evenodd"
   d="m 61.05,36.2 c -0.833,0.866 -1.6,1.25 -2.3,1.149 -0.566,-0.066 -0.583,-0.399 -0.05,-1 0.533,-0.566 1.083,-0.899 1.649,-1 1.301,-0.233 1.535,0.051 0.701,0.851 z"
   id="path46"
   inkscape:connector-curvature="0" />
	<path
   style="clip-rule:evenodd;fill:#c99f48;fill-rule:evenodd"
   d="m 56.25,36.6 c 0.6,0 0.85,0.184 0.75,0.551 -0.066,0.366 -0.366,0.517 -0.9,0.449 -0.5,-0.033 -0.699,-0.216 -0.6,-0.55 0.066,-0.3 0.316,-0.45 0.75,-0.45 z"
   id="path48"
   inkscape:connector-curvature="0" />
	<path
   style="clip-rule:evenodd;fill:#c99f48;fill-rule:evenodd"
   d="m 69.6,31.1 c 0.867,-0.267 1.117,-0.066 0.75,0.601 -0.399,0.666 -0.85,1 -1.35,1 -0.4,0 -0.483,-0.233 -0.25,-0.7 C 68.983,31.5 69.267,31.2 69.6,31.1 Z"
   id="path50"
   inkscape:connector-curvature="0" />
	<path
   style="clip-rule:evenodd;fill:#c99f48;fill-rule:evenodd"
   d="m 70,29.1 c 0.4,0.067 0.467,0.301 0.2,0.7 -0.3,0.4 -0.566,0.55 -0.8,0.45 C 69.2,30.184 69.183,29.967 69.349,29.6 69.483,29.233 69.7,29.066 70,29.1 Z"
   id="path52"
   inkscape:connector-curvature="0" />
	<path
   style="clip-rule:evenodd;fill:#c99f48;fill-rule:evenodd"
   d="m 28.85,33.95 c 0.633,0.133 0.983,0.416 1.05,0.85 0.1,0.4 -0.2,0.533 -0.9,0.4 -0.667,-0.167 -0.967,-0.434 -0.9,-0.8 0.033,-0.367 0.283,-0.516 0.75,-0.45 z"
   id="path54"
   inkscape:connector-curvature="0" />
	<path
   style="clip-rule:evenodd;fill:#8a3915;fill-rule:evenodd"
   d="m 65.25,27.8 1.1,0.75 0.5,0.7 c -0.267,-0.066 -0.55,0.066 -0.85,0.4 -0.167,0.166 -0.233,0.366 -0.2,0.6 0.066,0.333 0.05,0.65 -0.05,0.95 -0.134,0.333 -0.65,0.6 -1.55,0.8 -1.101,0.233 -1.8,0.45 -2.101,0.65 L 59.9,33.9 57.4,34.349 c -0.233,0.034 -0.801,0.2 -1.7,0.5 -0.9,0.301 -2.017,0.517 -3.351,0.65 -2.633,0.3 -5.199,0.116 -7.7,-0.55 -2,-0.601 -3.617,-0.767 -4.85,-0.5 -1.033,0.233 -2.716,0.033 -5.05,-0.601 -0.2,-0.033 -0.817,-0.083 -1.85,-0.149 -0.967,-0.066 -1.75,-0.217 -2.35,-0.45 -0.566,-0.2 -1.05,-0.667 -1.45,-1.4 -0.434,-0.699 -0.833,-1.083 -1.2,-1.149 -0.5,-0.101 -0.917,-0.367 -1.25,-0.8 l -0.35,-0.65 c 0.833,-0.467 1.717,-0.9 2.65,-1.3 0.7,-0.3 1.066,-0.533 1.1,-0.7 C 30.083,27.083 29.8,27 29.2,27 28.7,27 28.35,26.783 28.15,26.35 l -0.2,-0.649 c 1.233,-0.367 2.783,-0.367 4.65,0 l 23,0.899 c 5.834,0.433 9.05,0.834 9.65,1.2 z"
   id="path56"
   inkscape:connector-curvature="0" />
	<linearGradient
   id="SVGID_1_"
   gradientUnits="userSpaceOnUse"
   x1="26.2124"
   y1="28.7363"
   x2="66.187401"
   y2="28.7363">
		<stop
   offset="0"
   style="stop-color:#FFF3C2"
   id="stop58" />
		<stop
   offset="1"
   style="stop-color:#FFEE9E"
   id="stop60" />
	</linearGradient>
	<path
   style="clip-rule:evenodd;fill:url(#SVGID_1_);fill-rule:evenodd"
   d="m 64.6,26.5 c 1.167,0.533 1.684,0.967 1.551,1.3 -0.101,0.2 -0.351,0.467 -0.751,0.8 -0.067,0.2 0.05,0.45 0.35,0.75 0.3,0.334 0.45,0.717 0.45,1.15 0,0.566 -0.45,0.9 -1.351,1 -0.066,0 -0.916,0 -2.55,0 -0.6,0 -1.017,0.25 -1.25,0.75 -0.366,0.8 -0.75,1.35 -1.149,1.65 -0.567,0.433 -1.15,0.566 -1.75,0.399 -0.7,-0.3 -1.284,-0.483 -1.75,-0.55 -0.634,-0.1 -1.317,-0.033 -2.051,0.2 -0.166,0.033 -1.05,0.333 -2.649,0.899 -0.9,0.334 -1.867,0.434 -2.9,0.301 -1.066,-0.2 -1.866,-0.301 -2.399,-0.301 -0.534,0 -1.05,-0.216 -1.55,-0.649 -0.667,-0.566 -1.434,-1 -2.3,-1.3 -0.966,-0.301 -1.783,-0.2 -2.45,0.3 -0.867,0.633 -1.5,0.967 -1.9,1 -0.7,0.066 -1.284,-0.033 -1.75,-0.3 -0.467,-0.367 -0.9,-0.634 -1.3,-0.801 -0.467,-0.199 -1.033,-0.233 -1.7,-0.1 l -0.85,0.25 -1.95,-0.5 c -0.8,-0.2 -1.35,-0.55 -1.65,-1.05 -0.233,-0.634 -0.433,-1.084 -0.6,-1.351 -0.133,-0.267 -0.433,-0.433 -0.9,-0.5 -0.533,-0.066 -0.933,-0.267 -1.2,-0.6 -0.367,-0.434 0.034,-1 1.2,-1.7 1,-0.6 1.95,-1 2.85,-1.2 0.267,-0.066 0.05,-0.1 -0.65,-0.1 -1.167,0 -1.75,-0.184 -1.75,-0.55 0,-0.3 1,-0.483 3,-0.55 2.1,-0.034 3.283,-0.233 3.55,-0.601 0.433,-0.566 0.783,-0.95 1.05,-1.149 0.6,-0.434 1.383,-0.684 2.35,-0.75 0.767,-0.067 1.617,-0.184 2.55,-0.351 0.767,-0.1 1.683,0.017 2.75,0.351 0.6,0.199 1.45,0.283 2.55,0.25 0.667,0 1.8,-0.034 3.4,-0.101 1.8,0 2.733,0 2.8,0 0.733,0.033 1.666,0.2 2.8,0.5 1,0.233 1.884,0.533 2.65,0.9 0.866,0.467 1.483,0.75 1.85,0.85 0.167,0.066 0.9,0.217 2.2,0.45 0.966,0.171 2.016,0.504 3.149,1.004 z"
   id="path63"
   inkscape:connector-curvature="0" />
	<path
   style="clip-rule:evenodd;fill:#f7cf6a;fill-rule:evenodd"
   d="m 64.8,28.35 c -0.033,-0.1 0.084,-0.25 0.351,-0.449 0.399,-0.301 0.649,-0.517 0.75,-0.65 0.3,0.267 0.316,0.517 0.05,0.75 -0.367,0.333 -0.55,0.533 -0.55,0.6 -0.067,0.2 0.05,0.45 0.35,0.75 0.3,0.334 0.45,0.717 0.45,1.15 0,0.566 -0.45,0.9 -1.351,1 -0.066,0 -0.916,0 -2.55,0 -0.6,0 -1.017,0.25 -1.25,0.75 -0.366,0.8 -0.75,1.35 -1.149,1.65 -0.567,0.433 -1.15,0.566 -1.75,0.399 -0.7,-0.3 -1.284,-0.483 -1.75,-0.55 -0.634,-0.1 -1.317,-0.033 -2.051,0.2 -0.166,0.033 -1.05,0.333 -2.649,0.899 -0.9,0.334 -1.867,0.434 -2.9,0.301 -1.066,-0.2 -1.866,-0.301 -2.399,-0.301 -0.534,0 -1.05,-0.216 -1.55,-0.649 -0.667,-0.566 -1.434,-1 -2.3,-1.3 -0.966,-0.301 -1.783,-0.2 -2.45,0.3 -0.867,0.633 -1.5,0.967 -1.9,1 -0.7,0.066 -1.284,-0.033 -1.75,-0.3 -0.467,-0.367 -0.9,-0.634 -1.3,-0.801 -0.467,-0.199 -1.033,-0.233 -1.7,-0.1 l -0.85,0.25 -1.95,-0.5 c -0.8,-0.2 -1.35,-0.55 -1.65,-1.05 -0.233,-0.634 -0.433,-1.084 -0.6,-1.351 -0.133,-0.267 -0.433,-0.433 -0.9,-0.5 -0.533,-0.066 -0.933,-0.267 -1.2,-0.6 -0.2,-0.3 -0.117,-0.634 0.25,-1 0,0.434 0.267,0.7 0.8,0.8 0.6,0.134 1.05,0.417 1.35,0.851 0.2,0.233 0.5,0.649 0.9,1.25 1.033,1.233 2.05,1.683 3.05,1.35 0.5,-0.167 1.117,-0.167 1.85,0 0.433,0.1 1.083,0.3 1.95,0.6 1.233,0.367 2.433,0.067 3.6,-0.899 0.434,-0.367 1.067,-0.533 1.9,-0.5 0.933,0 1.716,0.25 2.35,0.75 1.567,1.166 3.134,1.7 4.7,1.6 0.533,-0.033 1.417,-0.267 2.65,-0.7 1.267,-0.466 2.033,-0.716 2.3,-0.75 0.133,-0.033 0.833,0.167 2.1,0.601 1.066,0.366 1.934,0.333 2.601,-0.101 0.5,-0.366 1.05,-0.883 1.649,-1.55 0.434,-0.5 0.816,-0.767 1.15,-0.8 0.333,-0.033 1.017,-0.017 2.05,0.05 0.967,0.033 1.533,-0.116 1.7,-0.45 0.298,-0.466 0.164,-1.133 -0.402,-2 z"
   id="path65"
   inkscape:connector-curvature="0" />
	<path
   style="clip-rule:evenodd;fill:#bd4d1e;fill-rule:evenodd"
   d="m 33.35,28.95 c 1.467,0.066 1.767,0.649 0.9,1.75 -0.9,1.066 -1.85,1.483 -2.85,1.25 -1.733,-0.4 -1.917,-1.233 -0.55,-2.5 0.3,-0.3 0.683,-0.467 1.15,-0.5 0.233,-0.033 0.683,-0.033 1.35,0 z"
   id="path67"
   inkscape:connector-curvature="0" />
	<path
   style="clip-rule:evenodd;fill:#bd4d1e;fill-rule:evenodd"
   d="m 28.8,27.75 c 0.967,-0.267 1.733,-0.267 2.3,0 0.533,0.267 0.617,0.5 0.25,0.7 -0.333,0.2 -0.783,0.333 -1.35,0.399 -0.633,0.134 -1.15,0.117 -1.55,-0.05 -0.4,-0.166 -0.517,-0.366 -0.35,-0.6 C 28.233,28 28.467,27.85 28.8,27.75 Z"
   id="path69"
   inkscape:connector-curvature="0" />
	<path
   style="clip-rule:evenodd;fill:#bd4d1e;fill-rule:evenodd"
   d="m 30.65,26.85 c 0.6,-0.199 1.3,-0.199 2.1,0 0.8,0.167 0.75,0.367 -0.15,0.601 -0.434,0.1 -0.917,0.033 -1.45,-0.2 -0.533,-0.233 -0.7,-0.367 -0.5,-0.401 z"
   id="path71"
   inkscape:connector-curvature="0" />
	<path
   style="clip-rule:evenodd;fill:#bd4d1e;fill-rule:evenodd"
   d="m 47.6,27.25 c 0.301,0 0.851,-0.066 1.65,-0.2 0.6,-0.133 0.934,-0.133 1,0 0.233,0.334 -0.3,0.867 -1.6,1.601 -1.567,0.933 -2.9,1.017 -4,0.25 -0.633,-0.434 -0.533,-0.834 0.3,-1.2 0.767,-0.368 1.65,-0.517 2.65,-0.451 z"
   id="path73"
   inkscape:connector-curvature="0" />
	<path
   style="clip-rule:evenodd;fill:#bd4d1e;fill-rule:evenodd"
   d="m 51.2,30.45 c 0.633,0 1.383,0.217 2.25,0.649 0.899,0.434 0.983,0.801 0.25,1.101 -1.167,0.5 -2.033,0.8 -2.6,0.9 -0.966,0.2 -1.733,0.084 -2.3,-0.35 -0.6,-0.467 -0.5,-0.967 0.3,-1.5 0.7,-0.533 1.4,-0.8 2.1,-0.8 z"
   id="path75"
   inkscape:connector-curvature="0" />
	<path
   style="clip-rule:evenodd;fill:#bd4d1e;fill-rule:evenodd"
   d="m 44.25,24.75 c -0.3,-0.134 -0.55,-0.3 -0.75,-0.5 -0.4,-0.333 -0.333,-0.566 0.2,-0.7 0.6,-0.133 1.283,-0.133 2.05,0 0.733,0.134 1.066,0.283 1,0.45 -0.066,0.2 -0.333,0.384 -0.8,0.55 -0.5,0.167 -1.067,0.233 -1.7,0.2 z"
   id="path77"
   inkscape:connector-curvature="0" />
	<path
   style="clip-rule:evenodd;fill:#bd4d1e;fill-rule:evenodd"
   d="m 47.1,25.15 c 0.534,0.033 0.884,0.233 1.051,0.6 0.166,0.333 0.1,0.566 -0.2,0.7 -0.3,0.133 -0.767,0.184 -1.4,0.149 -0.667,-0.033 -1.233,-0.149 -1.7,-0.35 -0.434,-0.233 -0.283,-0.483 0.45,-0.75 C 46,25.233 46.6,25.116 47.1,25.15 Z"
   id="path79"
   inkscape:connector-curvature="0" />
	<path
   style="clip-rule:evenodd;fill:#bd4d1e;fill-rule:evenodd"
   d="m 57.95,29.25 c -0.167,0.5 -0.717,0.816 -1.65,0.95 -0.899,0.1 -1.55,-0.05 -1.95,-0.45 -0.533,-0.533 -0.816,-0.833 -0.85,-0.9 -0.1,-0.233 0.184,-0.399 0.85,-0.5 0.634,-0.1 1.417,0 2.351,0.301 0.865,0.266 1.282,0.465 1.249,0.599 z"
   id="path81"
   inkscape:connector-curvature="0" />
	<path
   style="clip-rule:evenodd;fill:#bd4d1e;fill-rule:evenodd"
   d="m 38.05,30.2 c -0.066,-0.134 0.5,-0.334 1.7,-0.601 1.2,-0.3 2.15,-0.416 2.85,-0.35 0.566,0.066 0.8,0.233 0.7,0.5 -0.267,0.533 -0.4,0.816 -0.4,0.85 0.1,0.634 -0.983,0.867 -3.25,0.7 -0.933,-0.066 -1.45,-0.2 -1.55,-0.399 0.067,-0.266 0.05,-0.5 -0.05,-0.7 z"
   id="path83"
   inkscape:connector-curvature="0" />
	<path
   style="clip-rule:evenodd;fill:#bd4d1e;fill-rule:evenodd"
   d="m 52.05,27.3 c 0.5,-0.033 0.917,-0.017 1.25,0.05 0.367,0.101 0.483,0.217 0.351,0.351 -0.134,0.133 -0.317,0.233 -0.551,0.3 L 52.8,28.051 51.55,27.9 C 51.116,27.833 51,27.716 51.2,27.549 51.366,27.384 51.65,27.3 52.05,27.3 Z"
   id="path85"
   inkscape:connector-curvature="0" />
	
		
	
		
	
		
	
		
	<linearGradient
   id="SVGID_2_"
   gradientUnits="userSpaceOnUse"
   x1="30.200199"
   y1="25.4902"
   x2="44.5252"
   y2="25.4902">
		<stop
   offset="0"
   style="stop-color:#FFEC45"
   id="stop95" />
		<stop
   offset="1"
   style="stop-color:#EBBE0F"
   id="stop97" />
	</linearGradient>
	
	<linearGradient
   id="SVGID_3_"
   gradientUnits="userSpaceOnUse"
   x1="33.461399"
   y1="22.875"
   x2="41.236401"
   y2="22.875">
		<stop
   offset="0"
   style="stop-color:#FFEC45"
   id="stop102" />
		<stop
   offset="1"
   style="stop-color:#EBBE0F"
   id="stop104" />
	</linearGradient>
	
	
	
	<linearGradient
   id="SVGID_4_"
   gradientUnits="userSpaceOnUse"
   x1="46.450199"
   y1="24.482401"
   x2="60.5252"
   y2="24.482401">
		<stop
   offset="0"
   style="stop-color:#FFEC45"
   id="stop141" />
		<stop
   offset="1"
   style="stop-color:#EBBE0F"
   id="stop143" />
	</linearGradient>
	
	<linearGradient
   id="SVGID_5_"
   gradientUnits="userSpaceOnUse"
   x1="49.887699"
   y1="22.1504"
   x2="57.512699"
   y2="22.1504">
		<stop
   offset="0"
   style="stop-color:#FFEC45"
   id="stop148" />
		<stop
   offset="1"
   style="stop-color:#EBBE0F"
   id="stop150" />
	</linearGradient>
	
	
	
	<linearGradient
   id="SVGID_6_"
   gradientUnits="userSpaceOnUse"
   x1="50.974602"
   y1="31.2764"
   x2="65.724602"
   y2="31.2764">
		<stop
   offset="0"
   style="stop-color:#FFEC45"
   id="stop187" />
		<stop
   offset="1"
   style="stop-color:#EBBE0F"
   id="stop189" />
	</linearGradient>
	
	<linearGradient
   id="SVGID_7_"
   gradientUnits="userSpaceOnUse"
   x1="54.387699"
   y1="27.9258"
   x2="62.412701"
   y2="27.9258">
		<stop
   offset="0"
   style="stop-color:#FFEC45"
   id="stop194" />
		<stop
   offset="1"
   style="stop-color:#EBBE0F"
   id="stop196" />
	</linearGradient>
	
	
	
	
		<linearGradient
   id="SVGID_8_"
   gradientUnits="userSpaceOnUse"
   x1="31.310101"
   y1="32.124001"
   x2="48.785099"
   y2="32.124001"
   gradientTransform="matrix(1,0.0029,0.0032,1,1.899553e-4,-4.786705e-4)">
		<stop
   offset="0"
   style="stop-color:#FFEC45"
   id="stop233" />
		<stop
   offset="1"
   style="stop-color:#EBBE0F"
   id="stop235" />
	</linearGradient>
	
	<linearGradient
   id="SVGID_9_"
   gradientUnits="userSpaceOnUse"
   x1="35.487301"
   y1="28.575199"
   x2="45.012299"
   y2="28.575199">
		<stop
   offset="0"
   style="stop-color:#FFEC45"
   id="stop240" />
		<stop
   offset="1"
   style="stop-color:#EBBE0F"
   id="stop242" />
	</linearGradient>
	
	
	
	
		
	
		
	
		
	
		
	<path
   style="clip-rule:evenodd;fill:#ffffff;fill-rule:evenodd"
   d="m 50.7,30.4 c -0.634,-0.4 -0.917,-0.934 -0.851,-1.601 0.034,-0.399 0.317,-0.8 0.851,-1.2 0.267,-0.199 0.533,-0.35 0.8,-0.449 -0.066,0.1 -0.15,0.216 -0.25,0.35 C 51.083,27.767 51,28.05 51,28.35 Z"
   id="path287"
   inkscape:connector-curvature="0" />
	<path
   style="clip-rule:evenodd;fill:#ffffff;fill-rule:evenodd"
   d="m 27.65,27.6 c 0.4,-0.133 0.633,0.017 0.7,0.45 0.033,0.434 -0.233,0.667 -0.8,0.7 -0.5,0.033 -0.683,-0.134 -0.55,-0.5 0.133,-0.333 0.35,-0.55 0.65,-0.65 z"
   id="path289"
   inkscape:connector-curvature="0" />
</g>



</svg>