<?xml version="1.0" encoding="UTF-8" standalone="no"?>
<!-- Generator: Adobe Illustrator 15.1.0, SVG Export Plug-In . SVG Version: 6.00 Build 0)  -->

<svg
   xmlns:dc="http://purl.org/dc/elements/1.1/"
   xmlns:cc="http://creativecommons.org/ns#"
   xmlns:rdf="http://www.w3.org/1999/02/22-rdf-syntax-ns#"
   xmlns:svg="http://www.w3.org/2000/svg"
   xmlns="http://www.w3.org/2000/svg"
   xmlns:xlink="http://www.w3.org/1999/xlink"
   xmlns:sodipodi="http://sodipodi.sourceforge.net/DTD/sodipodi-0.dtd"
   xmlns:inkscape="http://www.inkscape.org/namespaces/inkscape"
   version="1.1"
   id="flash0.ai"
   x="0px"
   y="0px"
   width="256"
   height="256"
   viewBox="0 0 255.99999 256.00001"
   xml:space="preserve"
   sodipodi:docname="potatoes_mashed.svg"
   inkscape:version="0.92.4 (5da689c313, 2019-01-14)"><title
   id="title901">Mashed Potatoes</title><metadata
   id="metadata91"><rdf:RDF><cc:Work
       rdf:about=""><dc:format>image/svg+xml</dc:format><dc:type
         rdf:resource="http://purl.org/dc/dcmitype/StillImage" /><dc:title>Mashed Potatoes</dc:title><cc:license
         rdf:resource="http://creativecommons.org/publicdomain/zero/1.0/" /><dc:creator><cc:Agent><dc:title>Glitch</dc:title></cc:Agent></dc:creator><dc:source>https://opengameart.org/node/20149</dc:source></cc:Work><cc:License
       rdf:about="http://creativecommons.org/publicdomain/zero/1.0/"><cc:permits
         rdf:resource="http://creativecommons.org/ns#Reproduction" /><cc:permits
         rdf:resource="http://creativecommons.org/ns#Distribution" /><cc:permits
         rdf:resource="http://creativecommons.org/ns#DerivativeWorks" /></cc:License></rdf:RDF></metadata><defs
   id="defs89"><linearGradient
     inkscape:collect="always"
     xlink:href="#SVGID_1_"
     id="linearGradient907"
     gradientUnits="userSpaceOnUse"
     gradientTransform="matrix(1,-0.0032,0.0032,1,26.0796,25.9814)"
     x1="-22.476601"
     y1="-32.3843"
     x2="-6.7765002"
     y2="-32.3843" /></defs><sodipodi:namedview
   pagecolor="#ffffff"
   bordercolor="#666666"
   borderopacity="1"
   objecttolerance="10"
   gridtolerance="10"
   guidetolerance="10"
   inkscape:pageopacity="0"
   inkscape:pageshadow="2"
   inkscape:window-width="1920"
   inkscape:window-height="1025"
   id="namedview87"
   showgrid="false"
   inkscape:zoom="1.2454256"
   inkscape:cx="73.668524"
   inkscape:cy="-37.850515"
   inkscape:window-x="-8"
   inkscape:window-y="-8"
   inkscape:window-maximized="1"
   inkscape:current-layer="flash0.ai"
   fit-margin-top="0"
   fit-margin-left="0"
   fit-margin-right="0"
   fit-margin-bottom="0" />
<symbol
   id="flash0.ai_x2F_Layer_1_x2F__x3C_Path_x3E__x5F_10"
   viewBox="0 -20.25 25.8 20.25"
   transform="translate(-4.1000005,224.41232)">
	<g
   id="Layer_1_6_">
		<path
   style="clip-rule:evenodd;fill:#ad4b01;fill-rule:evenodd"
   d="m 22.05,-3.9 c 0.9,-0.4 1.367,-1.067 1.4,-2 0.933,-0.2 1.716,-0.667 2.35,-1.4 L 25.5,-8 c -0.233,0.133 -0.583,0.233 -1.05,0.3 -0.567,0.1 -0.934,0.184 -1.1,0.25 0.066,-0.367 0.617,-1.283 1.65,-2.75 0.7,-1.2 0.35,-1.6 -1.05,-1.2 0.167,0.9 -0.267,1.85 -1.3,2.85 -1.066,0.966 -2.133,1.417 -3.2,1.35 0.233,-0.333 0.45,-1 0.65,-2 -0.467,0.1 -0.883,0.35 -1.25,0.75 -0.533,0.6 -0.9,0.967 -1.1,1.1 -0.367,-0.6 -0.05,-1.583 0.95,-2.95 1.167,-1.567 1.75,-2.617 1.75,-3.15 0.3,-0.1 0.667,-0.3 1.1,-0.6 -0.566,-0.833 -1.333,-1.2 -2.3,-1.1 0.167,1.5 -0.067,2.75 -0.7,3.75 -0.466,0.733 -1.433,1.633 -2.9,2.7 -1.233,-0.533 -1.983,-1.683 -2.25,-3.45 -0.3,-1.867 0.4,-2.817 2.1,-2.85 0.033,-0.2 0.017,-0.5 -0.05,-0.9 l -3.25,0.1 c -0.067,-0.434 0.05,-1.184 0.35,-2.25 0.233,-0.9 0.167,-1.633 -0.2,-2.2 -0.133,0.167 -0.467,1.2 -1,3.1 -0.367,1.267 -1.2,1.816 -2.5,1.65 0.1,0.4 0.167,0.65 0.2,0.75 0.034,0.1 0.233,0.25 0.6,0.45 0.167,0.933 -0.033,1.933 -0.6,3 -0.633,1.2 -1.433,1.65 -2.4,1.35 -0.733,-0.233 -1.1,-1 -1.1,-2.3 0,-1.067 0.15,-1.933 0.45,-2.6 -1.867,-0.233 -2.367,0.75 -1.5,2.95 1.067,2.633 1.333,4.15 0.8,4.55 -1.033,0.767 -1.817,0.017 -2.35,-2.25 -0.5,-2.066 -0.6,-3.5 -0.3,-4.3 -1.333,0 -2.217,0.367 -2.65,1.1 1.367,0.233 2.15,0.85 2.35,1.85 0.033,1.3 0.2,2.317 0.5,3.05 0.1,0.2 0.65,0.9 1.65,2.1 0.333,0.4 0.133,1.1 -0.6,2.1 -0.033,0.033 -0.467,0.167 -1.3,0.4 -0.5,0.133 -0.4,0.5 0.3,1.1 0.333,0.267 0.917,0.417 1.75,0.45 0.333,0 0.967,-0.05 1.9,-0.15 0.133,0 0.75,-0.117 1.85,-0.35 0.867,-0.2 1.45,-0.233 1.75,-0.1 0.393,0.14 0.734,0.44 1.025,0.9 0.019,0.026 0.036,0.051 0.05,0.075 0.044,0.076 0.086,0.151 0.125,0.225 0.3,0.633 0.7,1.017 1.2,1.15 l -0.825,-0.875 c 0.177,0.134 0.335,0.192 0.475,0.175 0.8,-0.066 1.2,-0.267 1.2,-0.6 0.033,-0.633 0.067,-0.967 0.1,-1 0.1,-0.167 0.083,-0.5 -0.05,-1 -0.1,-0.333 0.167,-0.6 0.8,-0.8 0.567,-0.2 1.033,-0.183 1.4,0.05 0.233,0.133 0.533,0.4 0.9,0.8 0.167,0.133 0.284,0.533 0.35,1.2 0.067,0.5 0.467,0.733 1.2,0.7 0.3,0 0.583,-0.217 0.85,-0.65 0.333,-0.533 0.566,-0.85 0.7,-0.95 0.467,-0.3 1.267,-0.617 2.4,-0.95 z"
   id="path2"
   inkscape:connector-curvature="0" />
	</g>
</symbol>
<symbol
   id="flash0.ai_x5F_7_x2F_Layer_2_x2F__x3C_Path_x3E__x5F_63"
   viewBox="-0.042 -9.65 41.792 9.681"
   transform="translate(-4.1000005,224.41232)">
	<g
   id="Layer_1_5_">
		<path
   style="clip-rule:evenodd;fill-rule:evenodd"
   d="m 40.9,-5.45 c 0.533,-0.633 0.817,-1.25 0.85,-1.85 L 41.5,-7 c -0.867,1.5 -2.367,2.533 -4.5,3.1 -0.567,0.167 -1.517,0.35 -2.85,0.55 -1.433,0.2 -2.683,0.434 -3.75,0.7 -1.2,0.3 -2.617,0.417 -4.25,0.35 -1.867,-0.133 -3.367,-0.2 -4.5,-0.2 -3.6,0 -6.1,-0.05 -7.5,-0.15 -1,-0.033 -2.4,-0.483 -4.2,-1.35 C 8.317,-4.8 7.25,-5.45 6.75,-5.95 6.517,-5.85 6.233,-5.817 5.9,-5.85 5.267,-5.983 4.733,-6.5 4.3,-7.4 4.2,-7.6 3.833,-7.95 3.2,-8.45 2.6,-8.95 2.266,-9.35 2.2,-9.65 1.1,-9.017 0.367,-8.467 0,-8 c -0.133,0.467 0.05,1.05 0.55,1.75 0.434,0.633 1,1.167 1.7,1.6 0.467,0.3 1.467,0.683 3,1.15 1.533,0.5 2.583,0.917 3.15,1.25 1.833,1.133 4.083,1.75 6.75,1.85 0.633,0.033 2.217,0.083 4.75,0.15 2.133,0.067 3.8,0.15 5,0.25 2.133,0.167 4.883,-0.333 8.25,-1.5 2.9,-1.033 4.934,-1.867 6.1,-2.5 0.633,-0.333 1.183,-0.817 1.65,-1.45 z"
   id="path6"
   inkscape:connector-curvature="0" />
	</g>
</symbol>
<symbol
   id="flash0.ai_x5F_7_x2F_Layer_2_x2F__x3C_Path_x3E__x5F_70"
   viewBox="0 -12.55 12.75 12.55"
   transform="translate(-4.1000005,224.41232)">
	<g
   id="Layer_1_4_">
		<path
   style="clip-rule:evenodd;fill:#595959;fill-rule:evenodd"
   d="m 12.75,-12.55 c -3.2,1.2 -5.917,2.9 -8.15,5.1 C 2.333,-5.25 0.8,-2.767 0,0 L 0.35,-0.1 1.1,-0.55 c 0.533,-1.6 1.4,-3.233 2.6,-4.9 2.333,-3.233 5.35,-5.6 9.05,-7.1 z"
   id="path10"
   inkscape:connector-curvature="0" />
	</g>
</symbol>
<symbol
   id="flash0.ai_x5F_7_x2F_Layer_2_x2F__x3C_Path_x3E__x5F_71"
   viewBox="0 -13.05 17.2 13.05"
   transform="translate(-4.1000005,224.41232)">
	<g
   id="Layer_1_3_">
		<path
   style="clip-rule:evenodd;fill:#595959;fill-rule:evenodd"
   d="m 10.15,-1.5 c 3,0.4 5.35,0.9 7.05,1.5 C 16.9,-0.933 16.433,-1.917 15.8,-2.95 14.533,-4.917 12.6,-6.9 10,-8.9 8,-10.4 5.45,-11.667 2.35,-12.7 L 0,-13.05 c 4,1.433 6.833,3.517 8.5,6.25 0.767,1.2 1.25,2.333 1.45,3.4 0.133,0.567 0.2,1.2 0.2,1.9 z"
   id="path14"
   inkscape:connector-curvature="0" />
	</g>
</symbol>
<symbol
   id="flash0.ai_x5F_7_x2F_Layer_2_x2F__x3C_Path_x3E__x5F_72"
   viewBox="0 -12.7 24.3 12.7"
   transform="translate(-4.1000005,224.41232)">
	<g
   id="Layer_1_2_">
		
			<linearGradient
   id="SVGID_1_"
   gradientUnits="userSpaceOnUse"
   x1="-22.476601"
   y1="-32.3843"
   x2="-6.7765002"
   y2="-32.3843"
   gradientTransform="matrix(1,-0.0032,0.0032,1,26.0796,25.9814)">
			<stop
   offset="0"
   style="stop-color:#FFFFFF"
   id="stop18" />
			<stop
   offset="1"
   style="stop-color:#000000"
   id="stop20" />
		</linearGradient>
		<path
   style="clip-rule:evenodd;fill:url(#linearGradient907);fill-rule:evenodd"
   d="m 24.3,-1.75 -3.2,-10.85 -2.35,-0.1 c -0.933,0 -1.85,0.05 -2.75,0.15 -1.1,0.167 -2.35,0.5 -3.75,1 -1.433,0.533 -2.633,1.117 -3.6,1.75 -3.066,2 -5.433,4.233 -7.1,6.7 C 0.717,-1.867 0.2,-0.833 0,0 l 2.65,-0.55 c 4.567,-0.867 10,-1.3 16.3,-1.3 z"
   id="path23"
   inkscape:connector-curvature="0" />
	</g>
</symbol>
<g
   id="g84"
   transform="matrix(7.2797589,0,0,7.2797589,-29.847012,-29.356423)">
	<g
   id="g48">
		<path
   style="clip-rule:evenodd;fill:#d9d9d9;fill-rule:evenodd"
   d="m 38.702,20.607 0.15,-0.038 c -0.977,3.185 -3.043,5.792 -6.199,7.821 -3.23,2.081 -6.913,3.121 -11.046,3.121 -4.157,0 -7.852,-1.053 -11.083,-3.159 -3.206,-2.081 -5.26,-4.727 -6.161,-7.938 l 0.263,0.077 c 0.977,0.771 3.043,1.413 6.199,1.927 3.181,0.487 6.825,0.731 10.933,0.731 3.982,0 7.539,-0.244 10.67,-0.731 3.105,-0.462 5.197,-1.065 6.274,-1.811 z"
   id="path27"
   inkscape:connector-curvature="0" />
		
			<use
   xlink:href="#flash0.ai_x5F_7_x2F_Layer_2_x2F__x3C_Path_x3E__x5F_72"
   width="24.299999"
   height="12.7"
   y="-12.7"
   transform="matrix(0.7514,0,0,-0.7707,10.33074,194.75437)"
   style="overflow:visible;opacity:0.71880002;enable-background:new"
   id="use29"
   x="0" />
		
			<use
   xlink:href="#flash0.ai_x5F_7_x2F_Layer_2_x2F__x3C_Path_x3E__x5F_71"
   width="17.200001"
   height="13.05"
   y="-13.05"
   transform="matrix(0.7514,0,0,-0.7707,28.83074,194.00437)"
   style="overflow:visible;opacity:0.16019999;enable-background:new"
   id="use31"
   x="0" />
		
			<use
   xlink:href="#flash0.ai_x5F_7_x2F_Layer_2_x2F__x3C_Path_x3E__x5F_70"
   width="12.75"
   height="12.55"
   y="-12.55"
   transform="matrix(0.7514,0,0,-0.7707,7.8307404,194.00437)"
   style="overflow:visible;opacity:0.32030005;enable-background:new"
   id="use33"
   x="0" />
		
			<linearGradient
   id="SVGID_2_"
   gradientUnits="userSpaceOnUse"
   x1="0.79930001"
   y1="8.5995998"
   x2="46.048801"
   y2="8.5995998"
   gradientTransform="matrix(0.7514,0,0,0.7707,4.1004,12.3999)">
			<stop
   offset="0"
   style="stop-color:#7D7D7D"
   id="stop35" />
			<stop
   offset="1"
   style="stop-color:#D4D4D4"
   id="stop37" />
		</linearGradient>
		<path
   style="clip-rule:evenodd;fill:url(#SVGID_2_);fill-rule:evenodd"
   d="m 33.706,14.404 c 3.33,1.284 4.996,2.826 4.996,4.624 0,1.824 -1.666,3.365 -4.996,4.624 -3.307,1.284 -7.314,1.927 -12.022,1.927 -4.685,0 -8.692,-0.643 -12.023,-1.927 -3.306,-1.259 -4.959,-2.8 -4.959,-4.624 0,-1.798 1.653,-3.339 4.959,-4.624 3.331,-1.285 7.338,-1.927 12.023,-1.927 4.683,0 8.69,0.642 12.022,1.927 z"
   id="path40"
   inkscape:connector-curvature="0" />
		<path
   style="clip-rule:evenodd;fill:#f5f5f5;fill-rule:evenodd"
   d="m 39.19,18.565 h -1.089 c -0.226,-1.593 -1.916,-2.942 -5.072,-4.046 -3.131,-1.104 -6.889,-1.657 -11.271,-1.657 -4.358,0 -8.102,0.552 -11.233,1.657 -3.156,1.104 -4.846,2.454 -5.072,4.046 H 4.175 C 4.576,16.818 6.442,15.354 9.773,14.172 13.154,12.99 17.125,12.4 21.684,12.4 c 4.583,0 8.553,0.591 11.909,1.772 3.331,1.182 5.197,2.646 5.597,4.393 z"
   id="path42"
   inkscape:connector-curvature="0" />
		
			<use
   xlink:href="#flash0.ai_x5F_7_x2F_Layer_2_x2F__x3C_Path_x3E__x5F_63"
   width="41.792"
   height="9.6809998"
   x="-0.041999999"
   y="-9.6499996"
   transform="matrix(0.7514,0,0,-0.7707,9.1808404,187.85447)"
   style="overflow:visible;opacity:0.28910002;enable-background:new"
   id="use44" />
		<path
   style="clip-rule:evenodd;fill:#f5f5f5;fill-rule:evenodd"
   d="m 38.102,18.526 h 1.089 c 0.05,0.154 0.075,0.359 0.075,0.617 0,1.875 -1.716,3.468 -5.146,4.778 -3.432,1.31 -7.577,1.965 -12.436,1.965 -4.86,0 -9.005,-0.655 -12.437,-1.965 C 5.816,22.611 4.1,21.019 4.1,19.144 l 0.075,-0.617 h 1.277 v 0.347 c 0,1.67 1.59,3.083 4.771,4.239 3.181,1.182 7.025,1.772 11.534,1.772 4.533,0 8.392,-0.591 11.572,-1.772 3.181,-1.156 4.771,-2.569 4.771,-4.239 v -0.348 z"
   id="path46"
   inkscape:connector-curvature="0" />
	</g>
	<g
   id="g82">
		<path
   style="clip-rule:evenodd;fill:#f8f4b7;fill-rule:evenodd"
   d="m 24.632,11.958 c 0.978,-0.4 2.023,-0.316 3.137,0.253 l 0.04,1.074 c 0.979,0.126 1.97,0.348 2.975,0.664 1.086,0.336 1.752,0.663 1.996,0.979 -0.054,0.189 -0.082,0.4 -0.082,0.632 0.109,0 0.272,0.074 0.489,0.221 0.19,0.126 0.394,0.158 0.611,0.095 0,-0.147 0.04,-0.39 0.121,-0.727 0.082,-0.316 0.109,-0.547 0.082,-0.695 0.108,-0.021 0.271,-0.021 0.489,0 0.244,0.021 0.326,0.074 0.244,0.158 0.108,-0.042 0.353,0.221 0.733,0.79 0.407,0.568 0.679,0.842 0.814,0.82 0.951,1.116 1.493,1.821 1.63,2.116 0.461,0.843 0.394,1.601 -0.204,2.274 -0.108,0 -0.217,-0.074 -0.326,-0.222 -0.135,-0.168 -0.258,-0.263 -0.366,-0.283 -0.217,0.568 -0.421,0.947 -0.61,1.137 -0.245,-0.063 -0.733,-0.105 -1.468,-0.127 -0.624,0 -1.126,-0.084 -1.507,-0.252 0.244,1.031 0.23,1.842 -0.04,2.432 -0.381,0.82 -1.195,0.968 -2.444,0.442 -0.517,0.842 -1.563,1.441 -3.138,1.8 -1.629,0.357 -2.838,0.147 -3.625,-0.632 -0.082,0.211 -0.149,0.484 -0.203,0.821 -0.109,-0.021 -0.286,-0.115 -0.53,-0.284 -0.244,-0.147 -0.421,-0.231 -0.53,-0.253 -0.461,0.042 -0.746,0.053 -0.854,0.031 -0.082,0 -0.326,-0.147 -0.733,-0.442 -1.358,0.085 -2.688,-0.188 -3.992,-0.82 -0.733,0.779 -1.657,0.947 -2.77,0.505 -1.25,-0.736 -2.132,-1.179 -2.648,-1.326 C 10.293,22.824 9.071,22.56 8.256,22.35 6.789,21.928 6.477,21.349 7.319,20.613 6.558,20.276 6.151,20.055 6.097,19.95 6.07,19.866 6.233,19.55 6.586,19.003 6.45,18.665 6.355,18.444 6.301,18.339 6.246,18.171 6.273,17.929 6.382,17.613 5.812,17.213 5.716,16.781 6.097,16.318 6.287,16.065 6.789,15.686 7.604,15.181 8.582,14.57 9.451,14.749 10.211,15.718 9.967,15.36 9.858,15.108 9.885,14.96 c 0.244,-0.294 0.475,-0.621 0.693,-0.979 0.461,0.316 0.72,0.516 0.773,0.6 -0.353,-0.737 -0.082,-1.2 0.815,-1.39 0.733,-0.147 1.616,-0.074 2.648,0.221 -0.38,-0.968 -0.149,-1.548 0.692,-1.737 0.842,-0.147 1.575,0.221 2.2,1.105 0.923,0.168 1.588,0.316 1.996,0.442 0.761,-0.4 1.494,-0.505 2.2,-0.315 0.679,0.189 1.194,0.631 1.548,1.326 -0.163,-1.075 0.231,-1.833 1.182,-2.275 z"
   id="path50"
   inkscape:connector-curvature="0" />
		<path
   style="clip-rule:evenodd;fill:#ede26a;fill-rule:evenodd"
   d="m 14.755,12.793 c 0.796,-0.188 1.662,-0.121 2.597,0.201 -0.416,1.047 -0.052,1.651 1.091,1.812 1.039,0.161 2.095,-0.04 3.168,-0.604 0.104,0.134 0.382,0.389 0.831,0.765 0.382,0.323 0.606,0.618 0.676,0.886 0.45,-0.295 0.728,-0.698 0.831,-1.208 0.034,-0.456 -0.069,-0.913 -0.312,-1.369 0.416,-0.081 0.899,-0.121 1.454,-0.121 0.623,1.1 1.057,1.772 1.299,2.014 0.657,0.644 1.575,0.913 2.753,0.805 1.315,1.101 2.043,1.731 2.182,1.893 0.554,0.617 0.883,1.437 0.986,2.457 -0.138,0.026 -0.242,-0.014 -0.312,-0.121 -0.034,0.026 -0.086,0.107 -0.155,0.241 -0.07,0.161 -0.156,0.269 -0.26,0.322 L 29.35,20.203 29.3,19.196 c -0.659,0 -1.108,-0.027 -1.351,-0.08 -0.52,-0.726 -1.835,-1.007 -3.948,-0.847 -2.39,0.376 -3.965,0.617 -4.727,0.726 -1.385,0.241 -2.286,0.375 -2.701,0.402 C 16.019,19.451 15.101,19.383 13.82,19.196 12.469,19.142 11.517,19.088 10.963,19.035 9.924,18.928 9.595,18.659 9.976,18.229 L 8.782,18.712 C 8.089,18.095 7.778,17.289 7.846,16.296 c 0.588,-0.054 1.992,-0.107 4.207,-0.161 0,-0.296 0.053,-0.51 0.156,-0.644 1.87,0.215 2.857,0.939 2.96,2.173 1.039,0.081 1.818,0.081 2.337,0 0.762,-0.16 1.264,-0.522 1.506,-1.087 -1.385,-0.725 -2.337,-1.261 -2.856,-1.61 -0.795,-0.563 -1.262,-1.287 -1.401,-2.174 z"
   id="path52"
   inkscape:connector-curvature="0" />
		<path
   style="clip-rule:evenodd;fill:#ede26a;fill-rule:evenodd"
   d="m 28.599,19.136 -0.026,-0.02 0.052,0.02 c 0.095,0.001 0.199,0.008 0.312,0.021 1.628,0.188 2.112,0.737 1.454,1.65 -0.297,0.509 -1.11,1.099 -2.44,1.772 -3.222,1.584 -5.714,2.174 -7.48,1.771 0,-0.431 0.034,-0.766 0.104,-1.007 0.867,-0.054 1.852,-0.806 2.961,-2.256 0.899,-1.208 2.146,-1.449 3.739,-0.724 -0.547,-0.92 -0.106,-1.329 1.324,-1.227 z"
   id="path54"
   inkscape:connector-curvature="0" />
		<path
   style="clip-rule:evenodd;fill:#d1b92f;fill-rule:evenodd"
   d="m 32.046,17.137 0.203,0.506 0.611,-0.284 c 0.163,0.189 0.476,0.41 0.938,0.663 0.271,0.189 0.516,0.442 0.732,0.758 l 0.978,-0.442 c 0.462,0.19 0.938,0.506 1.426,0.948 0.49,0.463 0.748,0.863 0.774,1.199 -0.679,0.506 -1.208,0.874 -1.589,1.105 -0.38,0.211 -0.923,0.569 -1.629,1.074 0.136,-0.127 -0.313,-0.021 -1.344,0.315 -1.006,0.358 -1.549,0.59 -1.63,0.695 -0.354,-0.421 -0.57,-0.769 -0.652,-1.042 -0.651,-0.337 -1.223,-0.579 -1.711,-0.727 0.163,0.547 0.218,0.968 0.163,1.263 -0.054,1.012 -0.801,1.643 -2.24,1.896 -0.272,-0.084 -2.607,-0.127 -7.007,-0.127 -3.803,0.021 -5.948,-0.379 -6.437,-1.199 -0.951,0.084 -1.562,0.115 -1.833,0.094 C 11.391,23.811 11.12,23.58 10.984,23.138 10.685,23.117 10.332,23.022 9.924,22.854 9.463,22.685 9.123,22.591 8.906,22.57 8.906,22.507 8.729,22.391 8.376,22.222 8.023,22.033 7.819,21.907 7.765,21.843 7.303,21.738 6.936,21.475 6.665,21.054 6.339,20.548 6.081,20.242 5.891,20.138 l 2.118,0.031 C 7.955,20.022 7.928,19.906 7.928,19.821 c -0.082,-0.126 -0.082,-0.263 0,-0.41 0.353,-0.084 0.543,-0.126 0.57,-0.126 0.055,-0.042 0.122,-0.169 0.204,-0.38 0.462,0.063 1.209,0.074 2.241,0.032 -0.082,-0.127 -0.149,-0.432 -0.204,-0.916 -0.054,-0.442 -0.163,-0.758 -0.326,-0.947 l 1.059,0.252 c 0.054,-0.082 0.013,-0.145 -0.122,-0.189 0.415,0.127 1.094,0.211 2.037,0.253 l 0.57,-0.916 c 1.358,0.169 2.417,0.158 3.177,-0.031 0.924,-0.273 1.195,-0.821 0.815,-1.643 0.76,0.021 1.331,0.295 1.711,0.821 0.245,0.295 0.516,0.769 0.815,1.422 0.19,-0.127 0.529,-0.264 1.018,-0.411 0.544,-0.147 0.856,-0.253 0.938,-0.315 l -0.366,0.727 c 0.108,0.021 0.366,0.031 0.773,0.031 0.299,0 0.517,0.042 0.652,0.126 -0.435,0.674 -0.747,1.074 -0.937,1.2 -0.326,-0.147 -0.625,-0.221 -0.897,-0.221 l -0.244,0.442 c -1.439,-0.253 -2.824,-0.2 -4.155,0.157 l -0.041,0.727 c 0.896,-0.105 1.656,-0.084 2.281,0.063 0.815,0.231 1.304,0.61 1.467,1.137 -0.407,-0.273 -0.774,-0.432 -1.1,-0.474 -0.298,0.315 -0.543,0.579 -0.733,0.789 -0.082,0.042 -0.598,0.095 -1.548,0.158 l 0.204,0.537 c -0.136,0.104 -0.231,0.2 -0.285,0.284 0.461,0.042 0.747,0.137 0.855,0.284 0.217,0.294 0.353,0.463 0.408,0.505 l -0.611,0.063 c -0.108,0.505 -0.136,0.747 -0.082,0.727 0.163,0.104 0.502,0.137 1.019,0.095 0.271,0.483 0.638,0.842 1.1,1.073 0.271,-0.379 0.462,-0.705 0.57,-0.979 0.353,0 0.923,-0.042 1.711,-0.127 0.68,-0.084 1.249,-0.104 1.711,-0.063 -0.027,-0.147 -0.041,-0.411 -0.041,-0.79 0,-0.379 -0.041,-0.631 -0.122,-0.758 0.081,-0.042 0.19,0 0.325,0.127 0.137,0.104 0.232,0.146 0.286,0.126 -0.027,-0.4 0.054,-0.643 0.244,-0.727 0.081,0.042 0.421,0.158 1.019,0.348 0.517,0.147 0.869,0.295 1.059,0.442 0.571,-0.442 1.223,-0.611 1.956,-0.506 0.081,0.021 0.163,0.042 0.244,0.063 -0.081,-0.484 -0.23,-1.074 -0.448,-1.769 -0.407,-1.264 -0.476,-2.105 -0.203,-2.526 0.38,-0.65 1.561,-0.807 3.544,-0.471 z"
   id="path56"
   inkscape:connector-curvature="0" />
		<path
   style="clip-rule:evenodd;fill:#ede26a;fill-rule:evenodd"
   d="m 15.535,18.833 c -0.296,0.419 -0.434,0.849 -0.416,1.289 0.035,1.423 0,2.295 -0.104,2.618 -1.108,-0.484 -1.922,-0.86 -2.442,-1.128 -0.865,-0.456 -1.229,-1.007 -1.091,-1.651 0.174,0.027 0.537,0.027 1.091,0 0.52,-0.026 0.884,-0.013 1.092,0.04 0.034,-0.51 0.242,-0.832 0.623,-0.966 0.062,-0.049 0.478,-0.116 1.247,-0.202 z m -0.157,-0.805 c 0.277,-0.215 0.676,-0.295 1.195,-0.241 -0.431,0.323 -0.769,0.651 -1.013,0.985 l -0.961,-0.06 c 0.381,-0.348 0.641,-0.576 0.779,-0.684 z"
   id="path58"
   inkscape:connector-curvature="0" />
		
			<use
   xlink:href="#flash0.ai_x2F_Layer_1_x2F__x3C_Path_x3E__x5F_10"
   width="25.799999"
   height="20.25"
   y="-20.25"
   transform="matrix(1.0388,0,0,-0.8054,12.609181,193.14158)"
   style="overflow:visible;opacity:0.60160002;enable-background:new"
   id="use60"
   x="0" />
		<path
   style="clip-rule:evenodd;fill:#dcc8bf;fill-rule:evenodd"
   d="m 20.313,18.189 1.714,0.121 c -0.347,0.644 -1.143,1.073 -2.389,1.288 -0.104,0.376 -0.036,0.872 0.207,1.489 0.277,0.699 0.416,1.182 0.416,1.45 -0.728,-0.671 -1.247,-1.557 -1.559,-2.658 -0.345,-1.287 0.192,-1.851 1.611,-1.69 z"
   id="path62"
   inkscape:connector-curvature="0" />
		<path
   style="clip-rule:evenodd;fill:#dcc8bf;fill-rule:evenodd"
   d="m 27.222,15.693 v -0.201 c 0.588,-0.161 1.177,-0.148 1.767,0.04 0.554,0.188 1.003,0.483 1.35,0.885 -0.796,-0.053 -1.646,-0.04 -2.545,0.04 -1.039,0.162 -1.835,0.27 -2.39,0.323 -0.001,-0.859 0.606,-1.221 1.818,-1.087 z"
   id="path64"
   inkscape:connector-curvature="0" />
		<path
   style="clip-rule:evenodd;fill:#dcc8bf;fill-rule:evenodd"
   d="m 14.131,15.492 c 0.07,0.188 0.139,0.496 0.208,0.925 -0.242,-0.268 -0.9,-0.818 -1.973,-1.65 0.692,-0.456 1.87,-0.416 3.532,0.121 1.664,0.567 2.893,0.662 3.688,0.282 0.927,0.627 0.511,0.882 -1.246,0.765 -2.494,-0.296 -3.896,-0.443 -4.209,-0.443 z"
   id="path66"
   inkscape:connector-curvature="0" />
		<path
   style="clip-rule:evenodd;fill:#7fa511;fill-rule:evenodd"
   d="m 27.845,20.041 c 0.312,0.081 0.588,0.229 0.831,0.443 -0.484,0.269 -0.883,0.416 -1.194,0.443 -0.347,0.054 -0.866,0.026 -1.559,-0.081 0.104,-0.591 0.641,-1.087 1.61,-1.489 l -0.779,0.522 c 0.658,0.109 1.021,0.162 1.091,0.162 z"
   id="path68"
   inkscape:connector-curvature="0" />
		<path
   style="clip-rule:evenodd;fill:#7fa511;fill-rule:evenodd"
   d="m 31.013,15.813 c 0.424,0.222 0.719,0.396 0.884,0.523 0.277,0.215 0.433,0.483 0.468,0.806 -0.97,-0.054 -1.575,-0.282 -1.818,-0.686 -0.209,-0.342 -0.053,-0.557 0.466,-0.643 z"
   id="path70"
   inkscape:connector-curvature="0" />
		<path
   style="clip-rule:evenodd;fill:#7fa511;fill-rule:evenodd"
   d="m 17.015,19.699 1.48,0.101 c 0.173,0.671 0.034,1.114 -0.415,1.329 -0.451,0.242 -1.075,0.201 -1.871,-0.121 0.035,-0.447 0.303,-0.884 0.806,-1.309 z"
   id="path72"
   inkscape:connector-curvature="0" />
		<path
   style="clip-rule:evenodd;fill:#7fa511;fill-rule:evenodd"
   d="M 23.741,18.391 V 18.11 l 1.194,0.04 c 0.381,0.054 0.711,0.188 0.987,0.402 -0.796,0.725 -1.783,0.926 -2.961,0.604 0.035,-0.323 0.173,-0.537 0.416,-0.645 0.209,-0.054 0.329,-0.094 0.364,-0.12 z"
   id="path74"
   inkscape:connector-curvature="0" />
		<path
   style="clip-rule:evenodd;fill:#7fa511;fill-rule:evenodd"
   d="m 12.443,17.323 1.584,0.101 c -0.034,0.215 -0.052,0.551 -0.052,1.007 -0.935,-0.08 -1.523,-0.241 -1.766,-0.482 -0.174,-0.195 -0.096,-0.404 0.234,-0.626 z"
   id="path76"
   inkscape:connector-curvature="0" />
		<path
   style="clip-rule:evenodd;fill:#7fa511;fill-rule:evenodd"
   d="m 25.299,13.357 -0.415,0.242 c 0.173,0.053 0.433,0.201 0.779,0.443 0.381,0.214 0.865,0.295 1.454,0.242 -0.173,1.047 -0.917,1.328 -2.233,0.845 -1.281,-0.483 -1.143,-1.074 0.415,-1.772 z"
   id="path78"
   inkscape:connector-curvature="0" />
		<path
   style="clip-rule:evenodd;fill:#7fa511;fill-rule:evenodd"
   d="m 21.352,12.955 c 0.45,0.268 0.364,0.604 -0.26,1.006 -0.657,0.457 -1.073,0.47 -1.247,0.041 -0.161,-0.376 -0.049,-0.738 0.338,-1.087 0.388,-0.191 0.777,-0.178 1.169,0.04 z m -1.169,-0.04 c -0.031,0.012 -0.056,0.026 -0.078,0.04 l 0.156,-0.121 c -0.031,0.024 -0.055,0.052 -0.078,0.081 z"
   id="path80"
   inkscape:connector-curvature="0" />
	</g>
</g>
</svg>