<?xml version="1.0" encoding="UTF-8" standalone="no"?>
<!-- Generator: Adobe Illustrator 15.1.0, SVG Export Plug-In . SVG Version: 6.00 Build 0)  -->

<svg
   xmlns:dc="http://purl.org/dc/elements/1.1/"
   xmlns:cc="http://creativecommons.org/ns#"
   xmlns:rdf="http://www.w3.org/1999/02/22-rdf-syntax-ns#"
   xmlns:svg="http://www.w3.org/2000/svg"
   xmlns="http://www.w3.org/2000/svg"
   xmlns:sodipodi="http://sodipodi.sourceforge.net/DTD/sodipodi-0.dtd"
   xmlns:inkscape="http://www.inkscape.org/namespaces/inkscape"
   version="1.1"
   id="flash0.ai"
   x="0px"
   y="0px"
   width="256"
   height="256"
   viewBox="0 0 256.00001 255.99999"
   xml:space="preserve"
   sodipodi:docname="pottine.svg"
   inkscape:version="0.92.4 (5da689c313, 2019-01-14)"><title
   id="title932">Pottine</title><metadata
   id="metadata125"><rdf:RDF><cc:Work
       rdf:about=""><dc:format>image/svg+xml</dc:format><dc:type
         rdf:resource="http://purl.org/dc/dcmitype/StillImage" /><dc:title>Pottine</dc:title><cc:license
         rdf:resource="http://creativecommons.org/publicdomain/zero/1.0/" /><dc:creator><cc:Agent><dc:title>Glitch</dc:title></cc:Agent></dc:creator><dc:source>https://opengameart.org/node/20149</dc:source></cc:Work><cc:License
       rdf:about="http://creativecommons.org/publicdomain/zero/1.0/"><cc:permits
         rdf:resource="http://creativecommons.org/ns#Reproduction" /><cc:permits
         rdf:resource="http://creativecommons.org/ns#Distribution" /><cc:permits
         rdf:resource="http://creativecommons.org/ns#DerivativeWorks" /></cc:License></rdf:RDF></metadata><defs
   id="defs123" /><sodipodi:namedview
   pagecolor="#ffffff"
   bordercolor="#666666"
   borderopacity="1"
   objecttolerance="10"
   gridtolerance="10"
   guidetolerance="10"
   inkscape:pageopacity="0"
   inkscape:pageshadow="2"
   inkscape:window-width="1920"
   inkscape:window-height="1025"
   id="namedview121"
   showgrid="false"
   inkscape:zoom="1.1409791"
   inkscape:cx="112.38206"
   inkscape:cy="29.191704"
   inkscape:window-x="-8"
   inkscape:window-y="-8"
   inkscape:window-maximized="1"
   inkscape:current-layer="flash0.ai"
   fit-margin-top="0"
   fit-margin-left="0"
   fit-margin-right="0"
   fit-margin-bottom="0" />
<g
   id="g118"
   transform="matrix(5.8701081,0,0,5.8701081,-7.6252711,20.01033)">
	<g
   id="g116">
		<path
   style="clip-rule:evenodd;fill:#dbdbdb;fill-rule:evenodd"
   d="m 44.647,16.39 v 1.168 c 0,0.854 -0.05,1.484 -0.149,1.892 -0.101,0.408 -0.767,0.761 -2,1.058 -1.367,0.297 -2.233,0.501 -2.601,0.612 -0.333,0.148 -0.683,0.704 -1.05,1.669 -0.434,1.112 -1,2.003 -1.7,2.671 -0.933,0.816 -2.233,1.391 -3.898,1.725 -1.4,0.297 -4.017,0.557 -7.851,0.779 -4.3,0.26 -8,0.129 -11.099,-0.391 -2.667,-0.444 -4.683,-1.112 -6.05,-2.002 -1,-0.631 -1.633,-1.299 -1.9,-2.003 C 6.182,22.789 6.033,22.214 5.899,21.842 5.732,21.398 5.215,21.064 4.349,20.841 2.982,20.507 2.249,20.321 2.149,20.284 1.616,20.061 1.332,19.524 1.299,18.671 l 0.1,-1.169 z"
   id="path2"
   inkscape:connector-curvature="0" />
		<path
   style="clip-rule:evenodd;fill:#c9c9c9;fill-rule:evenodd"
   d="M 2.15,20.284 C 1.617,20.061 1.333,19.524 1.3,18.671 l 0.1,-1.169 h 0.35 c 0.633,0.075 1.667,0.464 3.1,1.169 1.367,0.667 2.216,1.168 2.55,1.502 0.4,0.445 0.85,1.188 1.35,2.226 l 0.05,0.835 c 0.067,0.667 0.183,1.224 0.35,1.669 l 0.5,1.392 C 8.983,25.998 8.517,25.757 8.25,25.571 7.25,24.94 6.617,24.272 6.35,23.568 6.183,22.789 6.034,22.214 5.9,21.842 5.733,21.398 5.216,21.064 4.35,20.841 2.983,20.507 2.25,20.321 2.15,20.284 Z"
   id="path4"
   inkscape:connector-curvature="0" />
		<path
   style="clip-rule:evenodd;fill:#c9c9c9;fill-rule:evenodd"
   d="m 44.647,16.278 c 0.334,1.669 0.334,2.782 0,3.338 -0.333,0.557 -1.916,1.058 -4.75,1.503 l -1.649,3.505 c -0.367,1.001 -2.066,1.93 -5.1,2.782 -1.233,0.334 -3.75,0.575 -7.55,0.723 l -5.35,0.112 3.399,-1.002 c 1,-0.26 2.417,-0.724 4.25,-1.391 l -5.399,-0.278 5.399,-0.557 c 0.634,-0.111 1.084,-0.594 1.351,-1.446 l 0.25,-1.225 6.999,-3.449 z"
   id="path6"
   inkscape:connector-curvature="0" />
		<path
   style="clip-rule:evenodd;fill:#b2b2b2;fill-rule:evenodd"
   d="m 43.897,17.78 0.75,-1.391 0.15,1.058 c 0.1,0.741 0.134,1.224 0.1,1.446 -0.166,0.593 -0.416,1.02 -0.75,1.279 -0.267,0.148 -1.05,0.353 -2.35,0.612 l -1.9,0.334 c -0.767,2.41 -1.316,3.895 -1.649,4.451 -0.334,0.556 -2.617,1.205 -6.85,1.947 l 1.25,-1.392 c 0.966,-1.001 1.8,-1.743 2.499,-2.226 0.634,-0.444 1.051,-0.908 1.25,-1.391 0.334,-0.705 0.584,-1.168 0.75,-1.391 0.334,-0.445 0.9,-0.705 1.7,-0.779 0.467,-0.037 1.267,-0.093 2.4,-0.167 1.167,-0.183 2.051,-0.98 2.65,-2.39 z"
   id="path8"
   inkscape:connector-curvature="0" />
		<path
   style="clip-rule:evenodd;fill:#f5f5f5;fill-rule:evenodd"
   d="m 42.598,14.943 c 1.2,0.297 1.884,0.778 2.05,1.446 0.134,0.705 -0.633,1.354 -2.3,1.947 -2.133,0.631 -3.616,1.095 -4.45,1.391 -1.5,0.742 -2.816,1.316 -3.949,1.725 -2.033,0.668 -4.8,1.113 -8.3,1.336 C 21.816,23.048 18.133,22.936 14.6,22.454 11.467,22.009 9.35,21.433 8.25,20.729 7.383,20.136 5.966,19.524 4,18.894 2.433,18.412 1.566,17.948 1.4,17.502 1.2,16.982 2.133,16.445 4.2,15.889 5.933,15.407 7.083,15.165 7.65,15.165 l -2.4,1.113 27.499,-2.782 c 0.799,-0.074 1.865,-0.037 3.199,0.111 1.3,0.148 2.366,0.334 3.199,0.557 0.767,0.26 1.917,0.52 3.451,0.779 z"
   id="path10"
   inkscape:connector-curvature="0" />
		<g
   id="g106">
			<path
   style="clip-rule:evenodd;fill:#eec591;fill-rule:evenodd"
   d="m 32.599,12.328 1.499,0.946 0.75,-0.39 c 0.566,-0.296 1.033,-0.482 1.4,-0.556 0.566,-0.111 1.35,0.39 2.35,1.502 l -0.85,1.669 2.35,-0.224 c 0.533,1.113 0.584,1.854 0.15,2.226 -0.267,0.223 -0.816,0.482 -1.65,0.779 l -1.2,0.334 c -0.866,0.333 -2.133,0.687 -3.8,1.058 -3.299,0.667 -6.966,1.001 -10.999,1.001 -4.033,0 -7.599,-0.482 -10.7,-1.446 -1.533,-0.481 -2.667,-0.964 -3.4,-1.446 l -3,-2.782 c -0.133,-0.223 -0.217,-0.463 -0.25,-0.723 -0.034,-0.482 0.3,-0.761 1,-0.834 1.133,-0.111 1.866,0.204 2.199,0.946 l 1.45,-0.39 C 9.565,12.403 9.515,11.29 9.748,10.66 9.981,10.029 10.365,9.603 10.898,9.381 l 1.2,1.836 0.65,-1.28 1.65,0.557 0.45,-0.39 c 0.333,-0.26 0.633,-0.39 0.9,-0.39 0.433,0 1.05,0.686 1.849,2.059 l 0.7,-1.001 c 0.5,-0.705 0.933,-1.168 1.3,-1.391 0.534,-0.371 1.367,-0.631 2.5,-0.779 l 0.65,1.892 2,0.167 c -0.033,-0.26 -0.033,-0.519 0,-0.779 0.066,-0.557 0.233,-0.909 0.5,-1.057 0.434,-0.26 0.934,-0.334 1.5,-0.223 l 2,3.005 1.25,-0.835 c 0.866,-0.556 1.399,-0.834 1.6,-0.834 0.334,0 1.05,0.371 2.149,1.113 z"
   id="path12"
   inkscape:connector-curvature="0" />
			<path
   style="clip-rule:evenodd;fill:#d69349;fill-rule:evenodd"
   d="m 37.397,13.274 1.2,0.557 -0.85,1.669 -4.649,0.89 1.949,-1.558 c 1.367,-1.039 2.151,-1.558 2.35,-1.558 z"
   id="path14"
   inkscape:connector-curvature="0" />
			<path
   style="clip-rule:evenodd;fill:#d69349;fill-rule:evenodd"
   d="m 40.248,17.502 c -0.667,0.52 -1.851,1.058 -3.55,1.614 -3.433,1.149 -7.749,1.799 -12.949,1.947 -5.2,0.148 -9.3,-0.353 -12.3,-1.502 -1.5,-0.594 -2.483,-1.188 -2.95,-1.781 l -3,-2.782 9.599,3.839 c 1.2,0.519 1.967,0.815 2.3,0.89 0.433,0.111 1.65,0.223 3.65,0.334 2.033,0.111 3.217,0.13 3.55,0.056 l 3.5,-0.945 3.15,0.39 2.349,-1.113 3.15,-0.668 c 2.134,-0.409 3.301,-0.502 3.501,-0.279 z"
   id="path16"
   inkscape:connector-curvature="0" />
			<path
   style="clip-rule:evenodd;fill:#d69349;fill-rule:evenodd"
   d="m 9.399,12.495 c -0.2,-0.223 -0.2,-0.593 0,-1.113 0.1,-0.259 0.217,-0.501 0.35,-0.723 l 3.15,4.841 -0.8,0.89 -3.65,-2.003 1.45,-0.39 z"
   id="path18"
   inkscape:connector-curvature="0" />
			<path
   style="clip-rule:evenodd;fill:#d69349;fill-rule:evenodd"
   d="m 14.75,16.779 2.849,-1.503 1,2.226 -2.199,-0.166 c -0.533,-0.075 -0.967,-0.187 -1.3,-0.335 z"
   id="path20"
   inkscape:connector-curvature="0" />
			<polygon
   style="clip-rule:evenodd;fill:#d69349;fill-rule:evenodd"
   points="25.898,19.95 23.599,20.507 19.749,17.502 21.249,16.779 "
   id="polygon22" />
			<polygon
   style="clip-rule:evenodd;fill:#d69349;fill-rule:evenodd"
   points="16.599,13.274 14.399,10.492 15.75,9.713 "
   id="polygon24" />
			<polygon
   style="clip-rule:evenodd;fill:#d69349;fill-rule:evenodd"
   points="18.899,9.546 20.399,9.546 20.249,12.718 17.599,11.771 "
   id="polygon26" />
			<polygon
   style="clip-rule:evenodd;fill:#d69349;fill-rule:evenodd"
   points="24.749,10.659 25.249,8.823 26.898,12.328 22.749,10.492 "
   id="polygon28" />
			<polygon
   style="clip-rule:evenodd;fill:#d69349;fill-rule:evenodd"
   points="29.249,13.997 33.748,11.048 34.248,12.495 "
   id="polygon30" />
			<path
   style="clip-rule:evenodd;fill:#d69349;fill-rule:evenodd"
   d="m 27.898,16.056 c -2,-0.26 -3.216,-0.575 -3.649,-0.945 -0.268,-0.223 -0.351,-0.594 -0.25,-1.113 l 0.25,-0.723 z"
   id="path32"
   inkscape:connector-curvature="0" />
			<path
   style="clip-rule:evenodd;fill:#ffdbb3;fill-rule:evenodd"
   d="m 36.248,12.328 -5.649,3.338 -0.7,-0.946 2.15,-1.224 c 1.499,-0.816 2.449,-1.261 2.849,-1.335 0.666,-0.148 1.117,-0.093 1.35,0.167 z"
   id="path34"
   inkscape:connector-curvature="0" />
			<polygon
   style="clip-rule:evenodd;fill:#ffdbb3;fill-rule:evenodd"
   points="40.098,15.276 40.248,16.39 30.898,17.892 30.749,16.612 "
   id="polygon36" />
			<polygon
   style="clip-rule:evenodd;fill:#ffdbb3;fill-rule:evenodd"
   points="29.749,16.39 24.249,13.274 22.749,10.492 29.249,13.997 "
   id="polygon38" />
			<polygon
   style="clip-rule:evenodd;fill:#ffdbb3;fill-rule:evenodd"
   points="20.249,13.441 20.399,9.546 22.099,8.6 21.599,12.884 "
   id="polygon40" />
			<polygon
   style="clip-rule:evenodd;fill:#ffdbb3;fill-rule:evenodd"
   points="14.599,15.276 10.899,10.659 10.899,9.379 15.399,14.72 "
   id="polygon42" />
			<polygon
   style="clip-rule:evenodd;fill:#ffdbb3;fill-rule:evenodd"
   points="25.599,19.172 21.899,16.612 22.899,15.11 26.898,19.005 "
   id="polygon44" />
			<polygon
   style="clip-rule:evenodd;fill:#ffdbb3;fill-rule:evenodd"
   points="18.599,17.502 17.749,13.997 18.399,13.831 19.749,16.39 "
   id="polygon46" />
			<polygon
   style="clip-rule:evenodd;fill:#ffdbb3;fill-rule:evenodd"
   points="5.4,14.387 6.25,13.441 12.099,16.39 12.599,17.169 "
   id="polygon48" />
			<path
   style="clip-rule:evenodd;fill:#99481b;fill-rule:evenodd"
   d="m 32.099,12.829 c 0.566,-0.222 0.983,-0.334 1.249,-0.334 0.066,0.853 -0.216,1.447 -0.849,1.781 -0.834,0.26 -1.45,0.556 -1.851,0.89 -0.199,0.408 -0.383,0.742 -0.55,1.002 -0.3,0.482 -0.649,0.52 -1.05,0.111 -0.233,-0.223 -0.283,-0.557 -0.15,-1.002 0.134,-0.408 0.317,-0.704 0.551,-0.89 l -0.5,-0.445 c 0.433,-0.705 1.366,-1.057 2.8,-1.057 l -1,0.167 c 0.366,0.036 0.816,-0.038 1.35,-0.223 z"
   id="path50"
   inkscape:connector-curvature="0" />
			<path
   style="clip-rule:evenodd;fill:#99481b;fill-rule:evenodd"
   d="m 22.549,11.271 c 0.033,0.705 0.233,1.299 0.6,1.781 0.2,0.296 0.583,0.797 1.15,1.502 -0.233,0.222 -0.467,0.296 -0.7,0.222 -0.3,-0.111 -0.517,-0.13 -0.65,-0.056 l -1.2,0.78 c -0.6,0.259 -1,0.407 -1.2,0.444 -0.6,0.111 -1.033,-0.111 -1.3,-0.668 -0.133,-0.26 -0.1,-0.575 0.1,-0.946 0.233,-0.37 0.317,-0.612 0.25,-0.723 -0.167,-0.333 -0.383,-0.482 -0.65,-0.445 -0.333,0.037 -0.566,0 -0.7,-0.111 -0.5,-0.445 -0.767,-0.687 -0.8,-0.723 -0.133,-0.186 -0.133,-0.445 0,-0.779 0.067,-0.222 -0.05,-0.333 -0.35,-0.333 l -0.35,-0.39 c 0.599,-0.297 1.099,-0.167 1.5,0.39 0.533,0.705 0.983,1.094 1.35,1.168 0.5,0.111 0.967,-0.074 1.4,-0.556 0.466,-0.52 0.983,-0.705 1.55,-0.557 z"
   id="path52"
   inkscape:connector-curvature="0" />
			<path
   style="clip-rule:evenodd;fill:#99481b;fill-rule:evenodd"
   d="m 32.099,17.725 c 0.733,0.111 1.266,0.353 1.6,0.724 -0.433,-0.037 -0.816,0.093 -1.149,0.39 -0.467,0.445 -0.783,0.705 -0.95,0.778 -0.6,0.26 -1.083,0.241 -1.45,-0.055 -0.566,-0.445 -0.966,-0.687 -1.199,-0.724 -1.034,0.223 -1.817,0.353 -2.351,0.389 -1,0.075 -1.399,-0.537 -1.2,-1.836 -0.666,-0.073 -1.1,-0.39 -1.3,-0.945 0.867,-0.223 2.033,0.019 3.5,0.724 1.254,0.564 2.32,0.713 3.2,0.444 -0.215,-0.031 -0.398,-0.068 -0.55,-0.111 0.066,-0.148 0.184,-0.26 0.35,-0.333 l 0.5,0.333 c -0.098,0.043 -0.197,0.08 -0.3,0.111 0.348,0.051 0.782,0.088 1.299,0.111 z"
   id="path54"
   inkscape:connector-curvature="0" />
			<path
   style="clip-rule:evenodd;fill:#99481b;fill-rule:evenodd"
   d="m 16.799,13.607 c 0.2,0.371 0.233,0.816 0.1,1.336 -0.1,0.444 -0.267,0.778 -0.5,1.001 -0.333,0.297 -0.617,0.575 -0.85,0.835 0.467,0.704 1.367,1.02 2.7,0.945 -0.4,0.52 -0.8,0.761 -1.2,0.724 -0.5,-0.186 -0.933,-0.297 -1.3,-0.334 -0.133,0 -0.6,0.093 -1.4,0.278 -0.6,0.111 -1.033,0.093 -1.3,-0.056 -0.233,-0.148 -0.383,-0.334 -0.45,-0.557 -0.033,-0.333 -0.083,-0.538 -0.15,-0.611 0,-0.371 -0.066,-0.649 -0.2,-0.835 -0.067,-0.074 -0.167,-0.111 -0.3,-0.111 -0.2,0 -0.316,-0.019 -0.35,-0.056 -0.3,-0.26 -0.8,-0.557 -1.5,-0.891 -0.767,-0.371 -1.283,-0.667 -1.55,-0.89 0.367,-0.297 1.333,-0.13 2.9,0.5 1.222,0.489 1.972,0.303 2.25,-0.557 0.127,-0.035 0.277,-0.073 0.45,-0.111 0.433,-0.111 0.7,-0.371 0.8,-0.778 -0.5,-1.521 -0.783,-2.448 -0.85,-2.782 0.534,0 0.95,0.241 1.25,0.723 0.267,0.445 0.35,1.001 0.25,1.669 0.6,-0.072 1,0.114 1.2,0.558 z"
   id="path56"
   inkscape:connector-curvature="0" />
			<path
   style="clip-rule:evenodd;fill:#99481b;fill-rule:evenodd"
   d="m 38.073,14.943 h 0.024 c 0.218,-0.022 0.468,-0.041 0.75,-0.056 0.5,0.074 0.733,0.389 0.7,0.946 -0.434,0 -0.934,0.204 -1.5,0.612 -0.634,0.445 -1.116,0.667 -1.45,0.667 -0.033,-0.481 -0.05,-0.834 -0.05,-1.057 -0.434,-0.26 -0.75,-0.408 -0.95,-0.445 0.233,-0.408 0.601,-0.63 1.101,-0.667 0.182,-0.023 0.423,-0.032 0.725,-0.028 0.087,-0.063 0.145,-0.128 0.175,-0.195 z"
   id="path58"
   inkscape:connector-curvature="0" />
			<path
   style="clip-rule:evenodd;fill:#99481b;fill-rule:evenodd"
   d="m 22.299,19.172 c 0.367,0.036 0.883,0.223 1.55,0.556 0.634,0.334 1.101,0.631 1.4,0.891 -0.167,-0.037 -0.483,0 -0.95,0.111 0.366,1.001 0.2,1.632 -0.5,1.892 -0.7,0.223 -1,-0.167 -0.9,-1.169 -0.4,0.075 -0.75,-0.055 -1.05,-0.389 -0.4,-0.334 -0.716,-0.52 -0.95,-0.557 -0.367,-0.074 -0.95,-0.037 -1.75,0.111 -0.9,0.148 -1.533,0.223 -1.899,0.223 0.333,-0.111 0.899,-0.705 1.699,-1.78 0.429,-0.596 1.003,-0.81 1.725,-0.64 0.003,-0.027 0.045,-0.073 0.125,-0.14 0.8,-0.26 1.3,0.037 1.5,0.891 z"
   id="path60"
   inkscape:connector-curvature="0" />
			<path
   style="clip-rule:evenodd;fill:#b56b48;fill-rule:evenodd"
   d="m 27.449,16.612 h -0.275 c 0.691,0.03 1.583,0.196 2.675,0.5 1.3,0.335 2.316,0.483 3.05,0.445 -0.633,0.445 -1.566,0.742 -2.8,0.891 -1.566,0.148 -2.566,0.093 -3,-0.167 0.101,-0.148 0.25,-0.39 0.45,-0.724 -0.167,0.038 -0.417,0.02 -0.75,-0.056 -0.333,-0.074 -0.566,-0.13 -0.7,-0.166 0.1,-0.704 0.549,-0.945 1.35,-0.723 z"
   id="path62"
   inkscape:connector-curvature="0" />
			<path
   style="clip-rule:evenodd;fill:#b56b48;fill-rule:evenodd"
   d="m 30.599,13.274 -0.35,-0.39 c 0.399,-0.111 0.866,-0.148 1.399,-0.111 0.301,0 0.767,0.037 1.4,0.111 l -0.75,0.222 c -0.167,0.557 -0.517,0.854 -1.05,0.891 -0.267,0 -0.767,-0.093 -1.5,-0.278 0.066,-0.371 0.166,-0.556 0.3,-0.556 0.1,0 0.284,0.037 0.551,0.111 z"
   id="path64"
   inkscape:connector-curvature="0" />
			<path
   style="clip-rule:evenodd;fill:#b56b48;fill-rule:evenodd"
   d="m 22.749,13.385 c -0.034,-0.074 -0.067,-0.111 -0.1,-0.111 -0.467,0.705 -1.083,0.927 -1.85,0.667 0.333,-0.482 0.317,-0.835 -0.05,-1.057 -0.6,-0.148 -1.034,-0.278 -1.3,-0.39 0.369,-0.663 0.819,-0.932 1.35,-0.807 0.151,-0.064 0.334,-0.147 0.55,-0.25 0.467,-0.186 0.867,-0.241 1.2,-0.167 -0.133,0.26 -0.133,0.631 0,1.113 0.067,0.223 0.183,0.575 0.35,1.058 -0.067,0.037 -0.117,0.018 -0.15,-0.056 z"
   id="path66"
   inkscape:connector-curvature="0" />
			<path
   style="clip-rule:evenodd;fill:#b56b48;fill-rule:evenodd"
   d="m 12.949,14.554 h 0.15 c 0.567,-0.964 1.383,-1.317 2.45,-1.058 -0.033,0.186 -0.133,0.39 -0.3,0.612 -0.2,0.222 -0.3,0.371 -0.3,0.445 0,0.074 0.05,0.296 0.15,0.668 0.067,0.296 0.067,0.5 0,0.611 -0.566,0.891 -1.233,1.132 -2,0.724 0,-0.52 -0.25,-0.891 -0.75,-1.113 -0.8,-0.408 -1.216,-0.63 -1.25,-0.667 0.7,-0.445 1.317,-0.519 1.85,-0.222 z"
   id="path68"
   inkscape:connector-curvature="0" />
			<path
   style="clip-rule:evenodd;fill:#b56b48;fill-rule:evenodd"
   d="m 21.099,18.059 c 0.333,0.148 1.217,0.371 2.65,0.668 1.066,0.37 1.066,0.778 0,1.224 -0.567,0.26 -1.25,0.204 -2.05,-0.167 -0.9,-0.445 -1.6,-0.648 -2.1,-0.611 0.1,-0.371 0.3,-0.687 0.6,-0.946 0.3,-0.261 0.6,-0.317 0.9,-0.168 z"
   id="path70"
   inkscape:connector-curvature="0" />
			<path
   style="clip-rule:evenodd;fill:#b56b48;fill-rule:evenodd"
   d="m 37.022,14.665 -0.574,-0.111 c 1.033,-0.075 1.75,0.055 2.149,0.39 -0.267,0.297 -0.633,0.463 -1.1,0.5 -0.467,0.074 -0.884,0.019 -1.25,-0.167 0.173,-0.41 0.431,-0.614 0.775,-0.612 z"
   id="path72"
   inkscape:connector-curvature="0" />
			<path
   style="clip-rule:evenodd;fill:#99481b;fill-rule:evenodd"
   d="m 30.023,10.297 -0.074,-0.028 c 0.5,-0.148 0.833,-0.148 1,0 -0.034,0.112 -0.084,0.167 -0.15,0.167 -0.1,0 -0.167,0.019 -0.2,0.056 0.167,1.075 -0.5,1.613 -2,1.613 -0.166,-0.668 -0.05,-1.187 0.351,-1.558 0.322,-0.276 0.681,-0.36 1.073,-0.25 z"
   id="path74"
   inkscape:connector-curvature="0" />
			<path
   style="clip-rule:evenodd;fill:#fcdc79;fill-rule:evenodd"
   d="m 32.499,14.72 c 0.605,0.072 1.088,0.23 1.449,0.473 0.204,0.133 0.371,0.29 0.5,0.473 0.045,0.098 0.079,0.21 0.1,0.334 -0.833,0.223 -1.699,0.353 -2.599,0.39 -1.334,0.074 -1.801,-0.241 -1.4,-0.946 0.333,-0.594 0.983,-0.835 1.95,-0.724 z"
   id="path76"
   inkscape:connector-curvature="0" />
			<path
   style="clip-rule:evenodd;fill:#fcdc79;fill-rule:evenodd"
   d="m 20.249,15.5 -0.3,0.333 c 0.434,0.037 1.083,0.111 1.95,0.223 -0.2,0.891 -0.417,1.446 -0.65,1.669 -0.333,0.371 -0.833,0.371 -1.5,0 -0.467,-0.297 -0.717,-0.464 -0.75,-0.5 -0.167,-0.186 -0.133,-0.52 0.1,-1.002 0.1,-0.26 0.3,-0.464 0.6,-0.612 0.233,-0.111 0.417,-0.149 0.55,-0.111 z"
   id="path78"
   inkscape:connector-curvature="0" />
			<path
   style="clip-rule:evenodd;fill:#fcdc79;fill-rule:evenodd"
   d="m 9.949,12.328 0.15,0.167 c 0.133,0.037 0.534,0.019 1.2,-0.055 0.667,-0.111 1.15,-0.13 1.45,-0.056 0.033,0.631 -0.034,1.335 -0.2,2.114 -0.333,-0.074 -0.783,-0.111 -1.35,-0.111 l -1.4,-0.056 c -0.067,-0.296 -0.033,-0.686 0.1,-1.168 0.067,-0.483 0.083,-0.761 0.05,-0.835 z"
   id="path80"
   inkscape:connector-curvature="0" />
			<path
   style="clip-rule:evenodd;fill:#e8cb6f;fill-rule:evenodd"
   d="m 12.75,20.284 c -0.3,-0.668 -0.45,-1.261 -0.45,-1.78 0.333,-0.148 0.767,-0.26 1.3,-0.334 0.667,-0.074 1.117,-0.037 1.35,0.111 0.367,0.26 0.55,0.575 0.55,0.945 -0.067,0.52 0,0.946 0.2,1.28 -0.4,0.148 -0.917,0.186 -1.55,0.111 -0.867,-0.074 -1.4,-0.111 -1.6,-0.111 0.099,-0.073 0.166,-0.148 0.2,-0.222 z"
   id="path82"
   inkscape:connector-curvature="0" />
			<path
   style="clip-rule:evenodd;fill:#fcdc79;fill-rule:evenodd"
   d="m 25.449,11.938 c 0.1,-0.593 0.483,-1.039 1.149,-1.335 0.634,-0.259 1.25,-0.241 1.851,0.056 0.6,0.334 0.783,0.779 0.55,1.335 -0.134,0.334 -0.4,0.928 -0.8,1.781 -0.434,-0.148 -0.967,-0.408 -1.601,-0.779 -0.8,-0.482 -1.3,-0.761 -1.5,-0.834 z"
   id="path84"
   inkscape:connector-curvature="0" />
			<path
   style="clip-rule:evenodd;fill:#fff1c7;fill-rule:evenodd"
   d="m 27.749,10.826 -0.3,0.223 c 0.566,0 1,0.222 1.3,0.667 -0.566,0.408 -1.084,0.519 -1.55,0.334 -0.534,-0.148 -0.617,-0.593 -0.25,-1.335 0.199,-0.112 0.466,-0.075 0.8,0.111 z"
   id="path86"
   inkscape:connector-curvature="0" />
			<path
   style="clip-rule:evenodd;fill:#fff1c7;fill-rule:evenodd"
   d="m 31.849,15.388 c -0.221,-0.633 0.037,-0.754 0.775,-0.361 l -0.525,-0.306 c 1.066,-0.223 1.549,0.093 1.449,0.946 -0.933,0.37 -1.499,0.277 -1.699,-0.279 z"
   id="path88"
   inkscape:connector-curvature="0" />
			<path
   style="clip-rule:evenodd;fill:#fff1c7;fill-rule:evenodd"
   d="m 20.249,16.056 h -0.65 c 0.633,-0.148 0.95,0.019 0.95,0.501 0,0.52 -0.317,0.779 -0.95,0.779 -0.067,-0.705 0.15,-1.132 0.65,-1.28 z"
   id="path90"
   inkscape:connector-curvature="0" />
			<path
   style="clip-rule:evenodd;fill:#fff1c7;fill-rule:evenodd"
   d="m 13.75,18.281 -0.15,0.167 c 0.233,0 0.617,0.074 1.15,0.223 -0.133,1.224 -0.684,1.465 -1.65,0.724 -0.333,-0.26 -0.466,-0.501 -0.4,-0.724 0.066,-0.297 0.416,-0.427 1.05,-0.39 z"
   id="path92"
   inkscape:connector-curvature="0" />
			<path
   style="clip-rule:evenodd;fill:#fff1c7;fill-rule:evenodd"
   d="M 11.25,12.495 10.6,12.328 c 0.233,-0.037 0.717,-0.019 1.45,0.055 0.067,0.557 -0.117,0.891 -0.55,1.001 -0.333,0.075 -0.733,0.019 -1.2,-0.167 0.033,-0.333 0.349,-0.574 0.95,-0.722 z"
   id="path94"
   inkscape:connector-curvature="0" />
			<path
   style="clip-rule:evenodd;fill:#d69349;fill-rule:evenodd"
   d="m 23.799,10.993 1.85,0.223 0.551,0.612 c 0.399,0.482 0.716,0.797 0.949,0.946 0.367,0.297 1.117,0.575 2.25,0.834 l 0.2,0.835 z"
   id="path96"
   inkscape:connector-curvature="0" />
			<polygon
   style="clip-rule:evenodd;fill:#d69349;fill-rule:evenodd"
   points="26.199,16.779 24.049,14.999 31.049,16.39 30.949,17.279 "
   id="polygon98" />
			<path
   style="clip-rule:evenodd;fill:#fcdc79;fill-rule:evenodd"
   d="m 25.049,15.276 c 0.366,-0.147 0.75,-0.036 1.15,0.334 0.399,0.334 0.483,0.612 0.25,0.835 -0.233,0.223 -0.75,0.26 -1.551,0.111 -0.767,-0.148 -1.184,-0.353 -1.25,-0.612 -0.099,-0.222 0.368,-0.444 1.401,-0.668 z"
   id="path100"
   inkscape:connector-curvature="0" />
			<path
   style="clip-rule:evenodd;fill:#99481b;fill-rule:evenodd"
   d="m 9.199,17.502 c 0.533,0.408 0.833,0.816 0.9,1.225 -0.333,-0.037 -0.65,0.074 -0.95,0.334 -0.367,0.334 -0.65,0.556 -0.85,0.667 -0.1,-0.074 -0.2,-0.26 -0.3,-0.556 C 7.932,18.875 7.882,18.708 7.849,18.671 7.783,18.597 7.582,18.523 7.249,18.448 6.982,18.411 6.815,18.337 6.749,18.225 6.516,17.78 6.582,17.39 6.949,17.057 7.217,16.813 7.475,16.73 7.724,16.806 c 0.084,0.015 0.167,0.052 0.25,0.111 0.361,0.011 0.77,0.205 1.225,0.585 z"
   id="path102"
   inkscape:connector-curvature="0" />
			<path
   style="clip-rule:evenodd;fill:#99481b;fill-rule:evenodd"
   d="m 34.498,19.616 -0.75,0.39 c 0,0.037 0.233,-0.074 0.7,-0.333 0.5,-0.26 0.85,-0.371 1.05,-0.335 -0.033,0.594 -0.4,1.262 -1.101,2.004 -0.8,0.89 -1.266,1.521 -1.398,1.892 -0.066,0.223 -0.101,0.593 -0.101,1.112 -0.1,0.408 -0.399,0.538 -0.899,0.39 -0.267,-0.074 -0.45,-0.353 -0.55,-0.835 -0.101,-0.481 -0.25,-0.76 -0.45,-0.834 -0.4,-0.148 -0.917,0.241 -1.55,1.168 -0.434,0.631 -0.834,0.334 -1.2,-0.89 -0.233,-0.816 -0.684,-1.316 -1.351,-1.503 -1.399,-0.481 -2.116,-0.723 -2.149,-0.723 0.233,-0.445 0.934,-0.668 2.1,-0.668 0.634,0 1.483,0.037 2.55,0.111 0.301,0 0.733,0 1.301,0 0.533,0.037 0.966,-0.019 1.3,-0.167 0.333,-0.111 0.733,-0.297 1.2,-0.557 0.431,-0.222 0.864,-0.295 1.298,-0.222 z"
   id="path104"
   inkscape:connector-curvature="0" />
		</g>
		<path
   style="clip-rule:evenodd;fill:#b56b48;fill-rule:evenodd"
   d="m 32.749,19.783 c 0.865,-0.259 1.365,-0.259 1.499,0 0.133,0.26 0.017,0.52 -0.351,0.779 -0.433,0.223 -0.682,0.371 -0.749,0.445 -0.399,0.631 -0.783,1.001 -1.149,1.112 l -1.55,-0.557 c -0.667,-0.296 -0.983,-0.036 -0.95,0.779 -0.367,0.037 -0.684,-0.056 -0.95,-0.278 -0.267,-0.26 -0.366,-0.593 -0.3,-1.001 -0.533,0.11 -1.15,0.13 -1.851,0.056 0.167,-0.297 0.434,-0.501 0.801,-0.612 0.282,-0.086 0.558,-0.096 0.824,-0.028 0.771,-0.1 1.813,-0.164 3.125,-0.194 0.167,0 0.701,-0.167 1.601,-0.501 z"
   id="path108"
   inkscape:connector-curvature="0" />
		<path
   style="clip-rule:evenodd;fill:#feffff;fill-rule:evenodd"
   d="m 1.4,18.059 c 0.5,0.186 1.033,0.427 1.6,0.724 0.367,0.148 0.917,0.241 1.65,0.278 0.433,0.036 1.183,0.074 2.25,0.111 0.833,0.074 1.667,0.296 2.5,0.667 0.7,0.334 1.733,0.946 3.1,1.836 1.1,0.705 3.617,1.095 7.549,1.169 1.5,0.056 2.925,0.064 4.275,0.028 -3.819,0.229 -6.627,0.294 -8.425,0.194 -1.4,-0.037 -2.883,-0.334 -4.45,-0.891 C 10.016,21.693 9.116,21.248 8.749,20.84 8.482,20.543 7.782,20.228 6.649,19.894 5.616,19.597 4.699,19.413 3.899,19.337 2.9,19.227 2.066,18.801 1.4,18.059 Z"
   id="path110"
   inkscape:connector-curvature="0" />
		<path
   style="clip-rule:evenodd;fill:#feffff;fill-rule:evenodd"
   d="m 44.248,17.112 c 0,0.557 -0.25,1.058 -0.75,1.503 -0.334,0.333 -0.967,0.575 -1.9,0.723 -0.467,0.075 -1.416,0.167 -2.85,0.278 -0.834,0.037 -1.667,0.26 -2.5,0.668 l -1,0.557 0.85,-0.668 c 0.634,-0.481 1.15,-0.816 1.55,-1.001 0.667,-0.26 2.034,-0.482 4.101,-0.668 0.832,-0.111 1.665,-0.575 2.499,-1.392 z"
   id="path112"
   inkscape:connector-curvature="0" />
		<path
   style="clip-rule:evenodd;fill:#e4e4e4;fill-rule:evenodd"
   d="m 10.899,22.677 1.65,0.612 c 1.3,0.445 2.417,0.705 3.35,0.778 1.5,0.074 3.583,-0.073 6.25,-0.444 -1.667,1.779 -2.8,2.8 -3.4,3.06 -0.6,0.297 -2.55,0.167 -5.85,-0.389 -0.934,-0.187 -1.55,-0.835 -1.85,-1.948 z"
   id="path114"
   inkscape:connector-curvature="0" />
	</g>
</g>
</svg>