<?xml version="1.0" encoding="UTF-8" standalone="no"?>
<!-- Generator: Adobe Illustrator 15.1.0, SVG Export Plug-In . SVG Version: 6.00 Build 0)  -->

<svg
   xmlns:dc="http://purl.org/dc/elements/1.1/"
   xmlns:cc="http://creativecommons.org/ns#"
   xmlns:rdf="http://www.w3.org/1999/02/22-rdf-syntax-ns#"
   xmlns:svg="http://www.w3.org/2000/svg"
   xmlns="http://www.w3.org/2000/svg"
   xmlns:xlink="http://www.w3.org/1999/xlink"
   xmlns:sodipodi="http://sodipodi.sourceforge.net/DTD/sodipodi-0.dtd"
   xmlns:inkscape="http://www.inkscape.org/namespaces/inkscape"
   version="1.1"
   id="flash0.ai"
   x="0px"
   y="0px"
   width="256"
   height="256"
   viewBox="0 0 256 256"
   xml:space="preserve"
   sodipodi:docname="salad_lazy.svg"
   inkscape:version="0.92.4 (5da689c313, 2019-01-14)"><title
   id="title1727">Lazy Salad</title><metadata
   id="metadata920"><rdf:RDF><cc:Work
       rdf:about=""><dc:format>image/svg+xml</dc:format><dc:type
         rdf:resource="http://purl.org/dc/dcmitype/StillImage" /><dc:title>Lazy Salad</dc:title><cc:license
         rdf:resource="http://creativecommons.org/publicdomain/zero/1.0/" /><dc:creator><cc:Agent><dc:title>Glitch</dc:title></cc:Agent></dc:creator><dc:source>https://opengameart.org/node/20149</dc:source></cc:Work><cc:License
       rdf:about="http://creativecommons.org/publicdomain/zero/1.0/"><cc:permits
         rdf:resource="http://creativecommons.org/ns#Reproduction" /><cc:permits
         rdf:resource="http://creativecommons.org/ns#Distribution" /><cc:permits
         rdf:resource="http://creativecommons.org/ns#DerivativeWorks" /></cc:License></rdf:RDF></metadata><defs
   id="defs918"><linearGradient
     inkscape:collect="always"
     xlink:href="#SVGID_7_"
     id="linearGradient1985"
     gradientUnits="userSpaceOnUse"
     gradientTransform="matrix(-0.75,0,0,-0.75,12253.5,-12265.5)"
     x1="16281.125"
     y1="-16341.676"
     x2="16339.675"
     y2="-16341.676" /><linearGradient
     inkscape:collect="always"
     xlink:href="#SVGID_8_"
     id="linearGradient1987"
     gradientUnits="userSpaceOnUse"
     gradientTransform="scale(0.75)"
     x1="0.1001"
     y1="-18.300301"
     x2="48.350101"
     y2="-18.300301" /></defs><sodipodi:namedview
   pagecolor="#ffffff"
   bordercolor="#666666"
   borderopacity="1"
   objecttolerance="10"
   gridtolerance="10"
   guidetolerance="10"
   inkscape:pageopacity="0"
   inkscape:pageshadow="2"
   inkscape:window-width="1920"
   inkscape:window-height="1025"
   id="namedview916"
   showgrid="false"
   inkscape:zoom="1.6521739"
   inkscape:cx="116.67364"
   inkscape:cy="90.358779"
   inkscape:window-x="-8"
   inkscape:window-y="-8"
   inkscape:window-maximized="1"
   inkscape:current-layer="flash0.ai"
   fit-margin-top="0"
   fit-margin-left="0"
   fit-margin-right="0"
   fit-margin-bottom="0" />
<symbol
   id="lazysalad4"
   viewBox="0 -29.462 37.35 29.462"
   transform="translate(-4.3501,237.888)">
	<g
   id="g858">
				
					<linearGradient
   id="SVGID_7_"
   gradientUnits="userSpaceOnUse"
   x1="16281.125"
   y1="-16341.676"
   x2="16339.675"
   y2="-16341.676"
   gradientTransform="matrix(-0.75,0,0,-0.75,12253.5,-12265.5)">
					<stop
   offset="0"
   style="stop-color:#FFFFFF"
   id="stop644" />
					<stop
   offset="1"
   style="stop-color:#A9CAD1"
   id="stop646" />
				</linearGradient>
				<path
   style="clip-rule:evenodd;fill:url(#linearGradient1985);fill-rule:evenodd"
   d="m 36.3,-9.263 c 0,-1.025 -1.775,-1.887 -5.325,-2.587 -3.549,-0.726 -7.825,-1.088 -12.824,-1.088 -5,0 -9.275,0.362 -12.825,1.088 C 1.775,-11.15 0,-10.288 0,-9.263 c 0,1.025 1.775,1.9 5.325,2.625 3.55,0.725 7.825,1.088 12.825,1.088 5,0 9.275,-0.363 12.824,-1.088 3.551,-0.725 5.326,-1.599 5.326,-2.625 z"
   id="path649"
   inkscape:connector-curvature="0" />
				<path
   style="clip-rule:evenodd;fill:#ffffff;fill-rule:evenodd"
   d="M 36.225,-8.963 H 35.063 L 35.1,-8.85 c 0,0.8 -1.649,1.5 -4.949,2.1 -3.325,0.575 -7.3,0.862 -11.926,0.862 -4.625,0 -8.587,-0.287 -11.887,-0.862 -3.301,-0.6 -4.95,-1.3 -4.95,-2.1 V -8.963 H 0.075 c 0.375,0.951 2.287,1.763 5.738,2.438 3.475,0.65 7.587,0.975 12.337,0.975 4.75,0 8.862,-0.325 12.337,-0.976 3.451,-0.674 5.363,-1.486 5.738,-2.437 z"
   id="path651"
   inkscape:connector-curvature="0" />
				<path
   style="clip-rule:evenodd;fill:#bf5d00;fill-rule:evenodd"
   d="m 31.987,-12.037 c -0.275,-0.125 -2.05,-0.438 -5.325,-0.938 -3.225,-0.525 -5.225,-0.8 -6,-0.825 -1,-0.075 -6.938,0.7 -17.813,2.325 L 3.487,-9.3 5.1,-8.287 6,-7.838 c 0.675,0.325 1.125,0.488 1.35,0.488 0.15,0 0.588,0.087 1.313,0.262 0.7,0.201 1.225,0.301 1.575,0.301 0.625,0 2.8,0.137 6.525,0.412 0.025,0 0.862,0.1 2.513,0.3 1.375,0.15 2.212,0.138 2.512,-0.037 0.301,-0.2 0.85,-0.4 1.65,-0.601 0.85,-0.2 1.3,-0.312 1.35,-0.337 0.25,-0.125 1.213,-0.038 2.888,0.263 l 0.638,-0.075 c 0.425,-0.075 0.663,-0.188 0.713,-0.338 0.1,-0.225 0.899,-0.712 2.399,-1.462 0.175,-0.1 0.45,-0.351 0.825,-0.75 0.425,-0.425 0.65,-0.7 0.675,-0.825 0.075,-0.175 0,-0.475 -0.225,-0.9 -0.201,-0.451 -0.438,-0.751 -0.714,-0.9 z"
   id="path653"
   inkscape:connector-curvature="0" />
				<path
   style="clip-rule:evenodd;fill:#ffcf1c;fill-rule:evenodd"
   d="m 15.3,-10.688 -1.013,-1.088 c -0.225,0.475 -0.375,0.875 -0.449,1.2 L 13.612,-9.3 c 0,0.149 0,0.313 0,0.487 0,0.325 0.025,0.475 0.075,0.45 l 1.35,-0.788 z"
   id="path655"
   inkscape:connector-curvature="0" />
				<path
   style="clip-rule:evenodd;fill:#db9d00;fill-rule:evenodd"
   d="m 15.525,-9.638 c 1.45,-0.05 2.212,-0.149 2.287,-0.3 0.075,-0.151 -0.025,-0.65 -0.3,-1.5 h -0.938 l -2.288,-0.338 -0.037,0.413 v 0.899 z"
   id="path657"
   inkscape:connector-curvature="0" />
				<path
   style="clip-rule:evenodd;fill:#ffdc57;fill-rule:evenodd"
   d="M 16.463,-7.875 17.4,-9 c 0.149,-0.225 0.287,-0.538 0.412,-0.938 -1.35,-0.275 -2.213,-0.425 -2.588,-0.45 l -0.975,-0.075 c -0.325,0.775 -0.5,1.326 -0.525,1.65 l -0.037,0.45 z"
   id="path659"
   inkscape:connector-curvature="0" />
				<path
   style="clip-rule:evenodd;fill:#ffcf1c;fill-rule:evenodd"
   d="m 18,-6.188 -1.05,-1.088 c -0.226,0.45 -0.363,0.85 -0.413,1.2 l -0.262,1.237 c 0,0.15 0,0.313 0,0.488 0,0.325 0.024,0.487 0.074,0.487 L 17.7,-4.688 Z"
   id="path661"
   inkscape:connector-curvature="0" />
				<path
   style="clip-rule:evenodd;fill:#db9d00;fill-rule:evenodd"
   d="m 18.188,-5.175 c 1.45,-0.025 2.213,-0.112 2.287,-0.263 0.075,-0.15 -0.024,-0.65 -0.3,-1.5 l -0.938,-0.037 c -0.375,0 -0.862,-0.05 -1.462,-0.15 L 16.95,-7.275 16.912,-6.9 v 0.938 z"
   id="path663"
   inkscape:connector-curvature="0" />
				<path
   style="clip-rule:evenodd;fill:#ffdc57;fill-rule:evenodd"
   d="m 19.125,-3.375 0.938,-1.162 c 0.15,-0.226 0.288,-0.525 0.412,-0.9 -1.35,-0.275 -2.2,-0.425 -2.55,-0.45 l -1.013,-0.075 c -0.325,0.75 -0.5,1.288 -0.524,1.613 l -0.038,0.487 z"
   id="path665"
   inkscape:connector-curvature="0" />
				<path
   style="clip-rule:evenodd;fill:#ffcf1c;fill-rule:evenodd"
   d="m 3.9,-9.412 -1.013,-1.051 c -0.25,0.45 -0.4,0.85 -0.45,1.2 l -0.224,1.238 c -0.025,0.15 -0.038,0.313 -0.038,0.488 0,0.325 0.025,0.487 0.075,0.487 l 1.388,-0.825 z"
   id="path667"
   inkscape:connector-curvature="0" />
				<path
   style="clip-rule:evenodd;fill:#db9d00;fill-rule:evenodd"
   d="M 2.888,-10.463 2.813,-9.15 4.126,-8.362 5.213,-8.4 C 5.963,-8.45 6.362,-8.525 6.412,-8.625 6.487,-8.8 6.375,-9.3 6.075,-10.125 l -0.9,-0.037 c -0.625,0 -1.388,-0.1 -2.287,-0.301 z"
   id="path669"
   inkscape:connector-curvature="0" />
				<path
   style="clip-rule:evenodd;fill:#ffdc57;fill-rule:evenodd"
   d="M 5.025,-6.563 6,-7.725 C 6.15,-7.951 6.288,-8.25 6.412,-8.625 5.038,-8.9 4.175,-9.05 3.825,-9.075 L 2.813,-9.15 c -0.325,0.75 -0.5,1.288 -0.525,1.613 L 2.25,-7.05 Z"
   id="path671"
   inkscape:connector-curvature="0" />
				<path
   style="clip-rule:evenodd;fill:#e8512e;fill-rule:evenodd"
   d="M 9.563,-6.938 7.688,-5.4 7.425,-4.35 8.363,-4.388 c 0.75,0 1.425,0.038 2.025,0.112 0.675,0.075 1.438,0.1 2.287,0.075 1,-2.35 1.351,-3.625 1.05,-3.825 -0.3,-0.199 -1.688,0.164 -4.162,1.088 z"
   id="path673"
   inkscape:connector-curvature="0" />
				<path
   style="clip-rule:evenodd;fill:#ba2400;fill-rule:evenodd"
   d="m 7.425,-4.35 0.3,-0.601 C 8.1,-5.45 8.737,-5.963 9.638,-6.487 c 1.4,-0.775 2.513,-1.237 3.337,-1.388 0.425,-0.075 0.713,-0.075 0.863,0 l -0.9,-2.063 c -1.1,-0.1 -2.45,0.288 -4.05,1.162 -1.45,0.8 -2.275,1.513 -2.476,2.138 z"
   id="path675"
   inkscape:connector-curvature="0" />
				<path
   style="clip-rule:evenodd;fill:#cc2700;fill-rule:evenodd"
   d="m 11.963,-4.575 c -0.425,-1.025 -1,-1.512 -1.726,-1.462 -0.5,0.024 -0.887,0.212 -1.162,0.563 -0.25,0.35 -0.25,0.587 0,0.712 0.125,0.075 0.65,0.125 1.575,0.15 0.45,0.025 0.888,0.037 1.313,0.037 z"
   id="path677"
   inkscape:connector-curvature="0" />
				<path
   style="clip-rule:evenodd;fill:#cc2700;fill-rule:evenodd"
   d="M 12.525,-4.838 12.9,-5.662 c 0.225,-0.625 0.325,-1.075 0.3,-1.351 -0.025,-0.324 -0.325,-0.387 -0.9,-0.187 -0.6,0.2 -0.875,0.487 -0.825,0.862 0.025,0.175 0.2,0.475 0.525,0.9 0.175,0.225 0.35,0.426 0.525,0.6 z"
   id="path679"
   inkscape:connector-curvature="0" />
				<path
   style="clip-rule:evenodd;fill:#d69635;fill-rule:evenodd"
   d="m 10.425,-5.063 c 0.075,-0.225 0.013,-0.362 -0.188,-0.412 -0.149,-0.05 -0.287,-0.038 -0.412,0.037 -0.1,0.075 -0.138,0.163 -0.112,0.263 0.024,0.075 0.149,0.112 0.375,0.112 0.124,0 0.237,0 0.337,0 z"
   id="path681"
   inkscape:connector-curvature="0" />
				<path
   style="clip-rule:evenodd;fill:#d69635;fill-rule:evenodd"
   d="m 12.3,-5.888 c 0.175,-0.2 0.238,-0.35 0.188,-0.45 -0.025,-0.1 -0.062,-0.174 -0.112,-0.225 -0.075,-0.05 -0.188,-0.025 -0.338,0.075 -0.149,0.1 -0.149,0.237 0,0.412 0.074,0.076 0.162,0.138 0.262,0.188 z"
   id="path683"
   inkscape:connector-curvature="0" />
				<path
   style="clip-rule:evenodd;fill:#ffffff;fill-rule:evenodd"
   d="m 12.15,-6.075 c 0.074,0.05 0.125,0.013 0.149,-0.112 0,-0.1 -0.025,-0.163 -0.075,-0.188 -0.05,0 -0.087,0.037 -0.112,0.112 -0.025,0.075 -0.012,0.138 0.038,0.188 z"
   id="path685"
   inkscape:connector-curvature="0" />
				<path
   style="clip-rule:evenodd;fill:#ffffff;fill-rule:evenodd"
   d="M 10.05,-5.175 C 10.175,-5.3 10.113,-5.325 9.862,-5.25 9.813,-5.2 9.825,-5.163 9.9,-5.138 c 0.075,0.025 0.125,0.013 0.15,-0.037 z"
   id="path687"
   inkscape:connector-curvature="0" />
				<path
   style="clip-rule:evenodd;fill:#e8512e;fill-rule:evenodd"
   d="m 22.275,-5.213 -2.25,0.75 -0.638,0.788 0.862,0.263 c 0.7,0.25 1.313,0.5 1.838,0.75 0.625,0.275 1.337,0.524 2.137,0.75 1.75,-1.701 2.525,-2.688 2.325,-2.963 -0.199,-0.25 -1.624,-0.362 -4.274,-0.338 z"
   id="path689"
   inkscape:connector-curvature="0" />
				<path
   style="clip-rule:evenodd;fill:#ba2400;fill-rule:evenodd"
   d="m 25.838,-4.987 c 0.425,0.05 0.687,0.137 0.787,0.263 L 26.513,-6.75 c -0.976,-0.425 -2.375,-0.512 -4.2,-0.263 -1.025,0.15 -1.838,0.375 -2.438,0.675 l -0.638,0.413 0.15,2.25 0.487,-0.413 c 0.525,-0.3 1.3,-0.537 2.325,-0.712 1.576,-0.25 2.789,-0.313 3.639,-0.187 z"
   id="path691"
   inkscape:connector-curvature="0" />
				<path
   style="clip-rule:evenodd;fill:#cc2700;fill-rule:evenodd"
   d="m 23.662,-2.438 c 0,-0.25 -0.037,-0.512 -0.112,-0.787 -0.175,-0.576 -0.487,-0.913 -0.938,-1.013 -0.5,-0.125 -0.925,-0.075 -1.274,0.149 -0.375,0.201 -0.475,0.4 -0.301,0.601 0.1,0.1 0.576,0.3 1.426,0.6 0.399,0.151 0.8,0.3 1.199,0.45 z"
   id="path693"
   inkscape:connector-curvature="0" />
				<path
   style="clip-rule:evenodd;fill:#cc2700;fill-rule:evenodd"
   d="m 24.3,-2.475 0.638,-0.601 c 0.45,-0.475 0.713,-0.825 0.787,-1.05 0.1,-0.325 -0.162,-0.487 -0.787,-0.487 -0.625,-0.025 -0.988,0.149 -1.088,0.524 -0.024,0.15 0.038,0.463 0.188,0.938 z"
   id="path695"
   inkscape:connector-curvature="0" />
				<path
   style="clip-rule:evenodd;fill:#d69635;fill-rule:evenodd"
   d="m 22.425,-3.338 c 0.15,-0.174 0.15,-0.312 0,-0.412 -0.125,-0.075 -0.263,-0.1 -0.412,-0.075 -0.125,0 -0.188,0.05 -0.188,0.15 -0.025,0.075 0.075,0.15 0.3,0.225 0.1,0.05 0.2,0.088 0.3,0.112 z"
   id="path697"
   inkscape:connector-curvature="0" />
				<path
   style="clip-rule:evenodd;fill:#d69635;fill-rule:evenodd"
   d="m 24.487,-3.45 0.188,-0.112 c 0.1,-0.1 0.15,-0.175 0.15,-0.225 0,-0.1 -0.013,-0.175 -0.038,-0.226 C 24.737,-4.088 24.625,-4.1 24.45,-4.05 24.275,-4 24.225,-3.887 24.3,-3.713 Z"
   id="path699"
   inkscape:connector-curvature="0" />
				<path
   style="clip-rule:evenodd;fill:#ffffff;fill-rule:evenodd"
   d="m 24.412,-3.675 c 0.05,0.075 0.1,0.062 0.15,-0.038 0.05,-0.1 0.05,-0.162 0,-0.188 -0.05,-0.024 -0.087,-0.012 -0.112,0.038 -0.05,0.076 -0.062,0.138 -0.038,0.188 z"
   id="path701"
   inkscape:connector-curvature="0" />
				<path
   style="clip-rule:evenodd;fill:#ffffff;fill-rule:evenodd"
   d="m 22.125,-3.525 c 0.2,-0.1 0.137,-0.149 -0.188,-0.149 -0.025,0.025 -0.013,0.062 0.037,0.112 0.051,0.05 0.101,0.062 0.151,0.037 z"
   id="path703"
   inkscape:connector-curvature="0" />
				<path
   style="clip-rule:evenodd;fill:#e8512e;fill-rule:evenodd"
   d="m 30.6,-9.15 -0.75,-0.787 c -0.475,0.9 -1.012,1.725 -1.612,2.475 L 27,-5.513 l 1.162,1.5 c 0.825,1 1.338,1.45 1.538,1.351 0.325,-0.15 0.737,-1.513 1.237,-4.088 z"
   id="path705"
   inkscape:connector-curvature="0" />
				<path
   style="clip-rule:evenodd;fill:#ba2400;fill-rule:evenodd"
   d="M 31.763,-2.325 C 32.413,-3.2 32.776,-4.55 32.85,-6.375 32.95,-8.025 32.776,-9.1 32.326,-9.6 L 29.85,-9.938 c 0.475,0.35 0.688,1.35 0.638,3 -0.05,1.6 -0.225,2.8 -0.524,3.6 l -0.45,0.713 z"
   id="path707"
   inkscape:connector-curvature="0" />
				<path
   style="clip-rule:evenodd;fill:#cc2700;fill-rule:evenodd"
   d="m 27.675,-5.963 0.9,0.038 C 29.2,-6 29.612,-6.238 29.813,-6.638 c 0.25,-0.45 0.288,-0.887 0.112,-1.313 -0.149,-0.4 -0.337,-0.524 -0.563,-0.375 -0.149,0.075 -0.475,0.487 -0.975,1.237 z"
   id="path709"
   inkscape:connector-curvature="0" />
				<path
   style="clip-rule:evenodd;fill:#cc2700;fill-rule:evenodd"
   d="m 27.6,-5.325 0.525,0.75 c 0.4,0.5 0.725,0.825 0.975,0.976 0.301,0.149 0.513,-0.075 0.638,-0.676 0.15,-0.625 0.05,-1.012 -0.3,-1.162 -0.15,-0.075 -0.5,-0.075 -1.05,0 z"
   id="path711"
   inkscape:connector-curvature="0" />
				<path
   style="clip-rule:evenodd;fill:#d69635;fill-rule:evenodd"
   d="m 28.875,-7.013 0.15,0.112 c 0.125,0.075 0.225,0.063 0.3,-0.037 0.125,-0.125 0.188,-0.25 0.188,-0.375 0,-0.125 -0.05,-0.2 -0.15,-0.225 -0.075,-0.025 -0.175,0.05 -0.3,0.225 z"
   id="path713"
   inkscape:connector-curvature="0" />
				<path
   style="clip-rule:evenodd;fill:#d69635;fill-rule:evenodd"
   d="m 28.612,-4.95 0.263,0.375 c 0.05,0 0.137,0 0.263,0 0.1,-0.025 0.137,-0.125 0.112,-0.3 -0.025,-0.275 -0.238,-0.3 -0.638,-0.075 z"
   id="path715"
   inkscape:connector-curvature="0" />
				<path
   style="clip-rule:evenodd;fill:#ffffff;fill-rule:evenodd"
   d="m 28.875,-4.987 c -0.1,0.025 -0.1,0.075 0,0.149 0.075,0.075 0.137,0.088 0.188,0.038 0.025,-0.025 0.013,-0.075 -0.037,-0.15 C 28.975,-5 28.925,-5.012 28.875,-4.987 Z"
   id="path717"
   inkscape:connector-curvature="0" />
				<path
   style="clip-rule:evenodd;fill:#ffffff;fill-rule:evenodd"
   d="m 29.175,-7.275 c 0.025,0.1 0.063,0.113 0.112,0.038 0.05,-0.05 0.075,-0.1 0.075,-0.15 -0.025,-0.05 -0.075,-0.05 -0.149,0 -0.05,0.024 -0.063,0.062 -0.038,0.112 z"
   id="path719"
   inkscape:connector-curvature="0" />
				<polygon
   style="clip-rule:evenodd;fill:#ff6945;fill-rule:evenodd"
   points="27.862,-11.662 26.325,-13.013 23.813,-10.388 23.513,-9.037 28.313,-9.225 "
   id="polygon721" />
				<path
   style="clip-rule:evenodd;fill:#e8512e;fill-rule:evenodd"
   d="m 30.9,-8.362 -0.187,-1.088 -1.65,-1.274 c -1.525,-0.525 -2.4,-0.676 -2.625,-0.45 -0.125,0.149 -0.65,0.55 -1.575,1.2 l -1.35,0.938 3.187,0.374 c 0.9,0.099 2.3,0.2 4.2,0.3 z"
   id="path723"
   inkscape:connector-curvature="0" />
				<path
   style="clip-rule:evenodd;fill:#ba2400;fill-rule:evenodd"
   d="m 31.237,-10.537 c -0.575,-0.625 -1.562,-1.213 -2.962,-1.763 l -1.95,-0.713 -0.3,2.175 2.55,1.013 c 1.375,0.625 2.15,1.113 2.325,1.463 z"
   id="path725"
   inkscape:connector-curvature="0" />
				<path
   style="clip-rule:evenodd;fill:#cc2700;fill-rule:evenodd"
   d="m 24.862,-9 4.425,0.45 c 0.301,0.025 0.438,-0.038 0.413,-0.188 -0.05,-0.15 -0.263,-0.313 -0.638,-0.487 -0.325,-0.125 -0.787,-0.163 -1.388,-0.113 -0.65,0.075 -1.087,0.125 -1.313,0.15 z"
   id="path727"
   inkscape:connector-curvature="0" />
				<path
   style="clip-rule:evenodd;fill:#cc2700;fill-rule:evenodd"
   d="m 24.3,-9.15 2.063,-0.225 c 0.425,-0.05 0.75,-0.137 0.976,-0.263 0.225,-0.125 0.25,-0.237 0.074,-0.337 -0.625,-0.475 -1.187,-0.576 -1.688,-0.301 -0.399,0.201 -0.762,0.45 -1.087,0.75 z"
   id="path729"
   inkscape:connector-curvature="0" />
				<path
   style="clip-rule:evenodd;fill:#d69635;fill-rule:evenodd"
   d="m 27.9,-8.888 0.449,0.075 c 0.325,0.05 0.513,0.05 0.563,0 C 29.038,-8.987 28.9,-9.075 28.5,-9.075 Z"
   id="path731"
   inkscape:connector-curvature="0" />
				<path
   style="clip-rule:evenodd;fill:#d69635;fill-rule:evenodd"
   d="m 25.875,-9.713 0.45,-0.037 c 0.275,-0.025 0.425,-0.087 0.45,-0.188 0,-0.1 -0.063,-0.175 -0.188,-0.225 -0.15,-0.05 -0.263,-0.038 -0.338,0.037 z"
   id="path733"
   inkscape:connector-curvature="0" />
				<path
   style="clip-rule:evenodd;fill:#ffffff;fill-rule:evenodd"
   d="m 26.438,-9.825 c 0.05,0.025 0.1,0.025 0.15,0 0.05,-0.05 0.062,-0.087 0.037,-0.112 -0.025,-0.075 -0.087,-0.087 -0.188,-0.037 -0.1,0.049 -0.1,0.099 10e-4,0.149 z"
   id="path735"
   inkscape:connector-curvature="0" />
				<path
   style="clip-rule:evenodd;fill:#ffffff;fill-rule:evenodd"
   d="m 28.612,-8.813 c 0.1,0.025 0.175,0.013 0.226,-0.037 0.024,-0.05 -0.013,-0.088 -0.113,-0.113 -0.1,-0.024 -0.174,-0.012 -0.225,0.038 -0.05,0.05 -0.013,0.088 0.112,0.112 z"
   id="path737"
   inkscape:connector-curvature="0" />
				<polygon
   style="clip-rule:evenodd;fill:#d6340d;fill-rule:evenodd"
   points="13.537,-8.662 13.463,-9.9 10.838,-13.162 9.15,-11.85 8.438,-9.3 "
   id="polygon739" />
				<path
   style="clip-rule:evenodd;fill:#e8512e;fill-rule:evenodd"
   d="m 13.537,-8.662 -2.962,-2.513 c -0.2,-0.275 -1.138,-0.2 -2.813,0.225 l -1.8,1.2 -0.3,1.125 z"
   id="path741"
   inkscape:connector-curvature="0" />
				<path
   style="clip-rule:evenodd;fill:#ba2400;fill-rule:evenodd"
   d="m 5.662,-8.625 c 0.226,-0.35 1.088,-0.787 2.588,-1.313 1.5,-0.526 2.413,-0.813 2.737,-0.862 l -0.149,-2.362 c 0.1,-0.05 -0.601,0.149 -2.101,0.6 -1.525,0.475 -2.612,1.013 -3.263,1.612 z"
   id="path743"
   inkscape:connector-curvature="0" />
				<path
   style="clip-rule:evenodd;fill:#cc2700;fill-rule:evenodd"
   d="M 12.112,-8.775 C 11.662,-8.9 11.137,-9.012 10.537,-9.112 9.962,-9.238 9.5,-9.325 9.15,-9.375 8.5,-9.475 8,-9.475 7.65,-9.375 7.225,-9.25 7,-9.1 6.975,-8.925 c -0.05,0.175 0.088,0.263 0.413,0.263 z"
   id="path745"
   inkscape:connector-curvature="0" />
				<path
   style="clip-rule:evenodd;fill:#cc2700;fill-rule:evenodd"
   d="m 12.713,-8.888 c -0.275,-0.45 -0.75,-0.887 -1.426,-1.313 -0.524,-0.325 -1.125,-0.263 -1.8,0.188 -0.175,0.1 -0.149,0.226 0.075,0.375 0.225,0.15 0.563,0.263 1.013,0.338 z"
   id="path747"
   inkscape:connector-curvature="0" />
				<path
   style="clip-rule:evenodd;fill:#d69635;fill-rule:evenodd"
   d="M 8.888,-8.925 C 8.762,-9.05 8.55,-9.125 8.25,-9.15 7.8,-9.2 7.65,-9.125 7.8,-8.925 c 0.075,0.05 0.275,0.062 0.6,0.037 0.175,0 0.337,-0.012 0.488,-0.037 z"
   id="path749"
   inkscape:connector-curvature="0" />
				<path
   style="clip-rule:evenodd;fill:#d69635;fill-rule:evenodd"
   d="m 11.1,-9.6 -0.375,-0.488 c -0.074,-0.074 -0.188,-0.1 -0.337,-0.074 -0.15,0.05 -0.226,0.125 -0.226,0.225 0,0.1 0.163,0.188 0.488,0.263 0.15,0.024 0.3,0.049 0.45,0.074 z"
   id="path751"
   inkscape:connector-curvature="0" />
				<path
   style="clip-rule:evenodd;fill:#ffffff;fill-rule:evenodd"
   d="m 10.5,-9.787 c 0.175,-0.05 0.112,-0.1 -0.188,-0.15 -0.025,0.05 -0.013,0.1 0.037,0.15 0.051,0.024 0.101,0.024 0.151,0 z"
   id="path753"
   inkscape:connector-curvature="0" />
				<path
   style="clip-rule:evenodd;fill:#ffffff;fill-rule:evenodd"
   d="m 8.138,-8.888 c 0.125,0 0.163,-0.025 0.112,-0.075 -0.05,-0.074 -0.125,-0.1 -0.225,-0.074 -0.125,0.024 -0.163,0.062 -0.113,0.112 0.026,0.05 0.1,0.062 0.226,0.037 z"
   id="path755"
   inkscape:connector-curvature="0" />
				<polygon
   style="clip-rule:evenodd;fill:#d6340d;fill-rule:evenodd"
   points="18.975,-5.513 17.662,-6.45 12.862,-7.763 13.237,-5.888 15.525,-3.525 "
   id="polygon757" />
				<path
   style="clip-rule:evenodd;fill:#e8512e;fill-rule:evenodd"
   d="m 18.975,-5.513 c -2.424,-0.275 -3.837,-0.462 -4.237,-0.563 -0.25,-0.075 -0.538,0.163 -0.862,0.713 l -0.45,0.825 0.263,1.875 1.013,1.05 z"
   id="path759"
   inkscape:connector-curvature="0" />
				<path
   style="clip-rule:evenodd;fill:#ba2400;fill-rule:evenodd"
   d="m 14.7,-1.612 c -0.25,-0.4 -0.238,-1.175 0.037,-2.325 0.275,-1.15 0.487,-1.825 0.638,-2.025 l -2.513,-1.8 c -0.025,-0.1 -0.212,0.4 -0.563,1.5 -0.224,0.674 -0.312,1.362 -0.262,2.062 l 0.15,0.825 z"
   id="path761"
   inkscape:connector-curvature="0" />
				<path
   style="clip-rule:evenodd;fill:#cc2700;fill-rule:evenodd"
   d="m 18.075,-4.912 c -0.4,0.125 -0.8,0.3 -1.2,0.524 -0.45,0.2 -0.8,0.363 -1.05,0.487 -0.45,0.226 -0.713,0.463 -0.788,0.713 -0.1,0.3 -0.087,0.525 0.038,0.675 0.149,0.15 0.313,0.15 0.487,0 z"
   id="path763"
   inkscape:connector-curvature="0" />
				<path
   style="clip-rule:evenodd;fill:#cc2700;fill-rule:evenodd"
   d="m 18.263,-5.287 c -0.625,-0.226 -1.337,-0.338 -2.138,-0.338 -0.6,0 -0.862,0.35 -0.787,1.05 0.024,0.175 0.174,0.263 0.449,0.263 0.25,0 0.538,-0.087 0.863,-0.263 z"
   id="path765"
   inkscape:connector-curvature="0" />
				<path
   style="clip-rule:evenodd;fill:#d69635;fill-rule:evenodd"
   d="m 16.162,-3.45 c -0.2,-0.025 -0.399,0.025 -0.6,0.15 -0.3,0.175 -0.3,0.3 0,0.375 0.151,0.05 0.351,-0.125 0.6,-0.525 z"
   id="path767"
   inkscape:connector-curvature="0" />
				<path
   style="clip-rule:evenodd;fill:#d69635;fill-rule:evenodd"
   d="M 16.65,-5.063 15.938,-5.25 c -0.125,-0.05 -0.2,-0.013 -0.225,0.112 -0.05,0.1 -0.025,0.188 0.074,0.263 0.175,0.125 0.463,0.062 0.863,-0.188 z"
   id="path769"
   inkscape:connector-curvature="0" />
				<path
   style="clip-rule:evenodd;fill:#ffffff;fill-rule:evenodd"
   d="m 16.162,-4.912 c 0.025,-0.1 -0.024,-0.15 -0.149,-0.15 -0.125,0 -0.163,0.037 -0.112,0.112 0.024,0.05 0.074,0.088 0.149,0.112 0.05,0 0.088,-0.024 0.112,-0.074 z"
   id="path771"
   inkscape:connector-curvature="0" />
				<path
   style="clip-rule:evenodd;fill:#ffffff;fill-rule:evenodd"
   d="m 15.787,-3.037 c 0.05,-0.075 0.038,-0.125 -0.037,-0.15 -0.1,0 -0.175,0.025 -0.225,0.075 -0.025,0.049 0,0.087 0.075,0.112 0.075,0.025 0.137,0.013 0.187,-0.037 z"
   id="path773"
   inkscape:connector-curvature="0" />
				<path
   style="clip-rule:evenodd;fill:#e8512e;fill-rule:evenodd"
   d="m 18.675,-11.963 -2.362,0.601 -0.675,0.825 0.862,0.375 c 0.65,0.325 1.237,0.65 1.763,0.975 0.575,0.375 1.262,0.725 2.063,1.05 1.9,-1.7 2.75,-2.712 2.55,-3.037 -0.176,-0.301 -1.576,-0.563 -4.201,-0.789 z"
   id="path775"
   inkscape:connector-curvature="0" />
				<path
   style="clip-rule:evenodd;fill:#ba2400;fill-rule:evenodd"
   d="m 15.638,-10.537 0.524,-0.413 c 0.55,-0.275 1.351,-0.45 2.4,-0.524 1.6,-0.125 2.813,-0.088 3.638,0.112 0.4,0.125 0.65,0.25 0.75,0.375 l 0.075,-2.25 c -0.226,-0.15 -0.576,-0.288 -1.051,-0.413 -0.95,-0.25 -2,-0.337 -3.149,-0.262 -1.025,0.05 -1.863,0.212 -2.513,0.487 l -0.638,0.412 z"
   id="path777"
   inkscape:connector-curvature="0" />
				<path
   style="clip-rule:evenodd;fill:#cc2700;fill-rule:evenodd"
   d="m 19.8,-8.813 c 0.075,-1.1 -0.225,-1.775 -0.899,-2.025 -0.475,-0.2 -0.913,-0.188 -1.313,0.038 -0.375,0.2 -0.475,0.4 -0.301,0.6 0.1,0.125 0.55,0.388 1.351,0.788 0.4,0.224 0.787,0.425 1.162,0.599 z"
   id="path779"
   inkscape:connector-curvature="0" />
				<path
   style="clip-rule:evenodd;fill:#cc2700;fill-rule:evenodd"
   d="m 20.438,-8.775 0.675,-0.6 c 0.5,-0.45 0.8,-0.8 0.9,-1.05 0.125,-0.325 -0.125,-0.525 -0.75,-0.601 -0.625,-0.074 -1,0.075 -1.125,0.45 -0.05,0.15 -0.013,0.5 0.112,1.05 z"
   id="path781"
   inkscape:connector-curvature="0" />
				<path
   style="clip-rule:evenodd;fill:#d69635;fill-rule:evenodd"
   d="m 18.638,-9.862 c 0.175,-0.175 0.188,-0.338 0.037,-0.487 -0.125,-0.1 -0.263,-0.138 -0.412,-0.113 -0.125,0 -0.188,0.05 -0.188,0.15 -0.025,0.1 0.062,0.2 0.263,0.3 0.1,0.05 0.2,0.099 0.3,0.15 z"
   id="path783"
   inkscape:connector-curvature="0" />
				<path
   style="clip-rule:evenodd;fill:#d69635;fill-rule:evenodd"
   d="m 20.7,-9.825 c 0.25,-0.125 0.362,-0.225 0.337,-0.3 0,-0.05 0,-0.137 0,-0.263 -0.024,-0.1 -0.125,-0.125 -0.3,-0.075 -0.175,0.025 -0.237,0.138 -0.188,0.338 z"
   id="path785"
   inkscape:connector-curvature="0" />
				<path
   style="clip-rule:evenodd;fill:#ffffff;fill-rule:evenodd"
   d="m 20.662,-10.05 c 0.025,0.1 0.075,0.1 0.15,0 0.05,-0.1 0.05,-0.175 0,-0.226 -0.025,-0.05 -0.063,-0.037 -0.112,0.038 -0.05,0.076 -0.062,0.138 -0.038,0.188 z"
   id="path787"
   inkscape:connector-curvature="0" />
				<path
   style="clip-rule:evenodd;fill:#ffffff;fill-rule:evenodd"
   d="m 18.375,-10.125 c 0.15,-0.075 0.087,-0.125 -0.188,-0.15 -0.05,0 -0.05,0.038 0,0.113 0.051,0.05 0.113,0.062 0.188,0.037 z"
   id="path789"
   inkscape:connector-curvature="0" />
				<path
   style="clip-rule:evenodd;fill:#db9d00;fill-rule:evenodd"
   d="m 11.737,-3.6 0.188,-1.838 c 0.125,-0.275 0.075,-0.775 -0.149,-1.5 -0.201,-0.7 -0.301,-1.35 -0.301,-1.95 L 10.013,-8.25 H 9.9 C 9.55,-7 9.575,-6.137 9.975,-5.662 Z"
   id="path791"
   inkscape:connector-curvature="0" />
				<path
   style="clip-rule:evenodd;fill:#ffcf1c;fill-rule:evenodd"
   d="m 11.475,-8.888 c -1,0.15 -1.837,0.325 -2.512,0.525 L 7.725,-7.987 C 7.3,-7.063 7.075,-6.525 7.05,-6.375 V -6.15 L 10.388,-6 c 0.175,-0.4 0.425,-0.837 0.75,-1.313 z"
   id="path793"
   inkscape:connector-curvature="0" />
				<path
   style="clip-rule:evenodd;fill:#ffdc57;fill-rule:evenodd"
   d="m 11.7,-3.6 c -0.025,-0.351 -0.112,-0.938 -0.263,-1.763 -0.15,-0.725 -0.25,-1.363 -0.3,-1.913 -0.15,-0.05 -0.9,0.113 -2.25,0.488 L 6.975,-6.15 c 1.051,0.676 2,1.238 2.851,1.688 0.874,0.449 1.499,0.737 1.874,0.862 z"
   id="path795"
   inkscape:connector-curvature="0" />
				<path
   style="clip-rule:evenodd;fill:#e8512e;fill-rule:evenodd"
   d="m 24.3,-7.463 -2.513,-0.225 -0.937,0.563 0.713,0.638 c 0.55,0.55 1.025,1.063 1.425,1.537 0.475,0.525 1.05,1.075 1.726,1.65 2.424,-0.95 3.6,-1.6 3.524,-1.95 -0.1,-0.375 -1.413,-1.112 -3.938,-2.213 z"
   id="path797"
   inkscape:connector-curvature="0" />
				<path
   style="clip-rule:evenodd;fill:#ba2400;fill-rule:evenodd"
   d="m 24.037,-7.05 c 1.625,0.425 2.813,0.887 3.563,1.388 0.375,0.25 0.588,0.449 0.638,0.6 L 29.025,-7.2 c -0.75,-0.825 -2.05,-1.5 -3.9,-2.024 -1.05,-0.301 -1.938,-0.438 -2.662,-0.413 l -0.75,0.15 -0.863,2.362 0.638,-0.225 c 0.65,-0.075 1.499,0.025 2.549,0.3 z"
   id="path799"
   inkscape:connector-curvature="0" />
				<path
   style="clip-rule:evenodd;fill:#cc2700;fill-rule:evenodd"
   d="m 24.412,-4.05 0.226,-0.862 c 0.075,-0.65 -0.075,-1.125 -0.45,-1.426 -0.4,-0.325 -0.837,-0.462 -1.313,-0.412 -0.425,0.075 -0.6,0.238 -0.525,0.487 0.075,0.15 0.438,0.563 1.088,1.237 0.324,0.351 0.649,0.676 0.974,0.976 z"
   id="path801"
   inkscape:connector-curvature="0" />
				<path
   style="clip-rule:evenodd;fill:#cc2700;fill-rule:evenodd"
   d="m 25.05,-3.825 0.862,-0.337 c 0.625,-0.275 1.025,-0.513 1.2,-0.713 0.226,-0.25 0.05,-0.525 -0.524,-0.825 -0.601,-0.275 -1.025,-0.263 -1.275,0.038 -0.1,0.149 -0.175,0.5 -0.225,1.05 z"
   id="path803"
   inkscape:connector-curvature="0" />
				<path
   style="clip-rule:evenodd;fill:#d69635;fill-rule:evenodd"
   d="m 23.625,-5.475 c 0.2,-0.125 0.25,-0.275 0.15,-0.45 -0.1,-0.125 -0.213,-0.212 -0.338,-0.263 -0.125,-0.025 -0.212,0 -0.263,0.075 -0.05,0.075 0.013,0.2 0.188,0.375 0.076,0.1 0.163,0.188 0.263,0.263 z"
   id="path805"
   inkscape:connector-curvature="0" />
				<path
   style="clip-rule:evenodd;fill:#d69635;fill-rule:evenodd"
   d="m 25.65,-4.725 0.188,-0.038 c 0.125,-0.05 0.2,-0.1 0.225,-0.149 0.075,-0.15 0.112,-0.238 0.112,-0.263 0,-0.1 -0.1,-0.163 -0.3,-0.188 -0.175,-0.025 -0.263,0.075 -0.263,0.3 z"
   id="path807"
   inkscape:connector-curvature="0" />
				<path
   style="clip-rule:evenodd;fill:#ffffff;fill-rule:evenodd"
   d="m 25.65,-4.987 c 0.025,0.075 0.075,0.087 0.15,0.037 0.1,-0.075 0.138,-0.137 0.112,-0.188 -0.024,-0.05 -0.074,-0.05 -0.149,0 -0.075,0.051 -0.113,0.1 -0.113,0.151 z"
   id="path809"
   inkscape:connector-curvature="0" />
				<path
   style="clip-rule:evenodd;fill:#ffffff;fill-rule:evenodd"
   d="m 23.4,-5.813 c 0.174,-0.025 0.137,-0.1 -0.113,-0.225 -0.05,0 -0.062,0.037 -0.037,0.112 0.025,0.075 0.075,0.113 0.15,0.113 z"
   id="path811"
   inkscape:connector-curvature="0" />
				<polygon
   style="clip-rule:evenodd;fill:#d6340d;fill-rule:evenodd"
   points="19.95,-5.438 20.063,-6.75 17.737,-10.688 15.713,-9.563 14.55,-6.9 "
   id="polygon813" />
				<path
   style="clip-rule:evenodd;fill:#e8512e;fill-rule:evenodd"
   d="M 19.95,-5.438 17.137,-8.626 C 16.962,-8.95 15.95,-9.013 14.1,-8.813 l -2.175,1.013 -0.487,1.2 z"
   id="path815"
   inkscape:connector-curvature="0" />
				<path
   style="clip-rule:evenodd;fill:#ba2400;fill-rule:evenodd"
   d="M 11.438,-6.6 12,-6.938 c 0.575,-0.275 1.388,-0.512 2.438,-0.713 1.7,-0.325 2.737,-0.487 3.112,-0.487 l 0.188,-2.55 c 0.125,-0.075 -0.675,0.025 -2.399,0.3 -1.051,0.15 -1.988,0.4 -2.813,0.75 l -0.938,0.488 z"
   id="path817"
   inkscape:connector-curvature="0" />
				<path
   style="clip-rule:evenodd;fill:#cc2700;fill-rule:evenodd"
   d="m 18.412,-5.775 c -0.449,-0.225 -1,-0.425 -1.649,-0.6 -0.601,-0.225 -1.075,-0.388 -1.425,-0.487 -0.676,-0.226 -1.213,-0.3 -1.613,-0.226 -0.475,0.075 -0.75,0.188 -0.825,0.338 -0.075,0.175 0.062,0.288 0.412,0.338 z"
   id="path819"
   inkscape:connector-curvature="0" />
				<path
   style="clip-rule:evenodd;fill:#cc2700;fill-rule:evenodd"
   d="m 19.088,-5.813 c -0.226,-0.525 -0.676,-1.075 -1.351,-1.65 -0.4,-0.35 -1.063,-0.375 -1.987,-0.074 -0.2,0.1 -0.188,0.237 0.037,0.412 0.226,0.2 0.576,0.375 1.051,0.525 z"
   id="path821"
   inkscape:connector-curvature="0" />
				<path
   style="clip-rule:evenodd;fill:#d69635;fill-rule:evenodd"
   d="M 14.963,-6.45 C 14.838,-6.599 14.625,-6.713 14.325,-6.787 13.85,-6.913 13.675,-6.85 13.8,-6.6 c 0.05,0.074 0.263,0.125 0.638,0.149 0.174,10e-4 0.35,10e-4 0.525,10e-4 z"
   id="path823"
   inkscape:connector-curvature="0" />
				<path
   style="clip-rule:evenodd;fill:#d69635;fill-rule:evenodd"
   d="m 17.438,-6.825 c -0.1,-0.25 -0.2,-0.437 -0.3,-0.563 -0.075,-0.125 -0.2,-0.175 -0.375,-0.149 -0.175,0.024 -0.263,0.1 -0.263,0.225 -0.025,0.1 0.125,0.212 0.45,0.338 0.175,0.049 0.337,0.099 0.488,0.149 z"
   id="path825"
   inkscape:connector-curvature="0" />
				<path
   style="clip-rule:evenodd;fill:#ffffff;fill-rule:evenodd"
   d="M 16.838,-7.125 C 16.987,-7.15 17,-7.2 16.875,-7.275 16.775,-7.349 16.7,-7.362 16.65,-7.312 c -0.025,0.05 -0.025,0.1 0,0.15 0.05,0.05 0.113,0.062 0.188,0.037 z"
   id="path827"
   inkscape:connector-curvature="0" />
				<path
   style="clip-rule:evenodd;fill:#ffffff;fill-rule:evenodd"
   d="m 14.138,-6.525 c 0.149,0.025 0.2,0 0.149,-0.074 -0.024,-0.075 -0.1,-0.113 -0.225,-0.113 -0.125,0 -0.175,0.025 -0.15,0.075 0.026,0.074 0.1,0.112 0.226,0.112 z"
   id="path829"
   inkscape:connector-curvature="0" />
				<path
   style="clip-rule:evenodd;fill:#db9d00;fill-rule:evenodd"
   d="m 19.725,-9.112 c 0.7,0.249 1.225,0.287 1.575,0.112 l 2.438,-1.162 -1.725,-0.676 c -0.25,-0.174 -0.75,-0.25 -1.5,-0.225 -0.45,0.025 -0.913,0 -1.388,-0.075 l -0.563,-0.112 0.225,1.575 v 0.112 z"
   id="path831"
   inkscape:connector-curvature="0" />
				<path
   style="clip-rule:evenodd;fill:#ffdc57;fill-rule:evenodd"
   d="m 21.075,-9.45 -1.088,-1.087 c -0.175,-0.025 -0.462,-0.138 -0.862,-0.338 l -0.563,-0.375 c -0.1,1 -0.15,1.862 -0.15,2.588 l 0.075,1.274 1.388,1.013 0.225,0.112 z"
   id="path833"
   inkscape:connector-curvature="0" />
				<path
   style="clip-rule:evenodd;fill:#ffcf1c;fill-rule:evenodd"
   d="m 23.737,-10.162 c -0.35,-0.075 -0.95,-0.138 -1.8,-0.188 l -1.912,-0.188 c -0.1,0.125 -0.138,0.899 -0.113,2.324 0.025,0.976 0.075,1.638 0.15,1.988 l 2.362,-2.325 c 0.651,-0.749 1.089,-1.286 1.313,-1.611 z"
   id="path835"
   inkscape:connector-curvature="0" />
				<path
   style="clip-rule:evenodd;fill:#ffdc57;fill-rule:evenodd"
   d="m 18.938,-3.75 2.325,1.463 3.712,1.162 c 1.15,0.35 2.137,0.725 2.963,1.125 L 27.826,-1.575 V -1.65 C 26.25,-2.8 25.013,-3.388 24.112,-3.412 Z"
   id="path837"
   inkscape:connector-curvature="0" />
				<path
   style="clip-rule:evenodd;fill:#db9d00;fill-rule:evenodd"
   d="m 27.938,0 c 0.325,-0.875 0.525,-1.637 0.6,-2.287 0.1,-0.65 0.138,-1.063 0.113,-1.238 C 27.55,-4.5 26.888,-5.038 26.662,-5.138 l -0.337,-0.188 -1.95,2.476 c 0.475,0.399 0.975,0.899 1.5,1.5 z"
   id="path839"
   inkscape:connector-curvature="0" />
				<path
   style="clip-rule:evenodd;fill:#ffcf1c;fill-rule:evenodd"
   d="m 18.75,-3.713 1.388,0.338 c 1.075,0.3 2,0.587 2.774,0.862 l 2.888,1.125 c 0.175,-0.05 0.35,-0.737 0.525,-2.063 0.1,-0.925 0.112,-1.575 0.037,-1.95 -1.475,0.351 -2.774,0.7 -3.899,1.051 -0.676,0.225 -1.5,0.399 -2.476,0.524 z"
   id="path841"
   inkscape:connector-curvature="0" />
				<path
   style="clip-rule:evenodd;fill:#ffdc57;fill-rule:evenodd"
   d="m 33.525,-7.35 c 0.75,0 1.112,-0.05 1.087,-0.15 -0.025,-0.075 -0.375,-0.475 -1.05,-1.2 L 31.8,-8.85 30.675,-7.8 Z"
   id="path843"
   inkscape:connector-curvature="0" />
				<path
   style="clip-rule:evenodd;fill:#ffcf1c;fill-rule:evenodd"
   d="m 30.675,-7.8 1.5,-0.038 0.788,-1.274 c -0.175,-1.375 -0.351,-2.087 -0.525,-2.138 -0.1,-0.05 -0.412,0 -0.938,0.15 l -0.75,0.262 0.075,0.863 c 0.025,0.35 0,0.824 -0.075,1.425 z"
   id="path845"
   inkscape:connector-curvature="0" />
				<path
   style="clip-rule:evenodd;fill:#db9d00;fill-rule:evenodd"
   d="m 34.612,-7.5 0.3,-2.625 c -0.65,-0.425 -1.112,-0.7 -1.387,-0.825 l -1.088,-0.3 c -0.175,1.3 -0.263,2.113 -0.263,2.438 v 0.975 l 0.75,0.15 c 0.526,0.124 0.901,0.187 1.126,0.187 z"
   id="path847"
   inkscape:connector-curvature="0" />
				
					<linearGradient
   id="SVGID_8_"
   gradientUnits="userSpaceOnUse"
   x1="0.1001"
   y1="-18.300301"
   x2="48.350101"
   y2="-18.300301"
   gradientTransform="scale(0.75)">
					<stop
   offset="0"
   style="stop-color:#FFFFFF"
   id="stop849" />
					<stop
   offset="1"
   style="stop-color:#A9CAD1"
   id="stop851" />
				</linearGradient>
				<path
   style="clip-rule:evenodd;fill:url(#linearGradient1987);fill-rule:evenodd"
   d="m 18.037,-12.787 c 4.275,0 8.101,0.325 11.476,0.975 3.3,0.625 5.55,1.45 6.75,2.475 -0.725,-2.5 -2.788,-4.587 -6.188,-6.262 -3.425,-1.675 -7.4,-2.513 -11.925,-2.513 -4.476,0 -8.425,0.825 -11.851,2.475 -3.35,1.6 -5.425,3.625 -6.225,6.075 1.325,-0.95 3.6,-1.725 6.825,-2.325 3.326,-0.6 7.039,-0.9 11.138,-0.9 z"
   id="path854"
   inkscape:connector-curvature="0" />
				<path
   style="clip-rule:evenodd;fill:#ffffff;fill-rule:evenodd"
   d="m 35.063,-8.963 h 1.162 l 0.075,-0.3 c 0,-1.025 -1.775,-1.887 -5.325,-2.587 -3.549,-0.726 -7.825,-1.088 -12.824,-1.088 -5,0 -9.275,0.362 -12.825,1.088 C 1.775,-11.15 0,-10.288 0,-9.263 c 0,0.15 0.025,0.25 0.075,0.3 h 1.313 c 0.125,-0.8 1.825,-1.475 5.1,-2.024 3.275,-0.575 7.188,-0.862 11.737,-0.862 4.55,0 8.476,0.287 11.775,0.862 3.275,0.549 4.962,1.224 5.063,2.024 z"
   id="path856"
   inkscape:connector-curvature="0" />
			</g>
</symbol>
<use
   xlink:href="#lazysalad4"
   width="37.349998"
   height="29.462"
   y="-29.462"
   transform="matrix(7.0523416,0,0,-7.0523416,30.678391,1741.8014)"
   style="overflow:visible"
   id="use913"
   x="0" />
</svg>