<?xml version="1.0" encoding="UTF-8" standalone="no"?>
<!-- Generator: Adobe Illustrator 15.1.0, SVG Export Plug-In . SVG Version: 6.00 Build 0)  -->

<svg
   xmlns:dc="http://purl.org/dc/elements/1.1/"
   xmlns:cc="http://creativecommons.org/ns#"
   xmlns:rdf="http://www.w3.org/1999/02/22-rdf-syntax-ns#"
   xmlns:svg="http://www.w3.org/2000/svg"
   xmlns="http://www.w3.org/2000/svg"
   xmlns:xlink="http://www.w3.org/1999/xlink"
   xmlns:sodipodi="http://sodipodi.sourceforge.net/DTD/sodipodi-0.dtd"
   xmlns:inkscape="http://www.inkscape.org/namespaces/inkscape"
   version="1.1"
   id="flash0.ai"
   x="0px"
   y="0px"
   width="256"
   height="256"
   viewBox="0 0 255.99999 255.99999"
   xml:space="preserve"
   sodipodi:docname="salad_potato.svg"
   inkscape:version="0.92.4 (5da689c313, 2019-01-14)"><title
   id="title978">Potato Salad</title><metadata
   id="metadata171"><rdf:RDF><cc:Work
       rdf:about=""><dc:format>image/svg+xml</dc:format><dc:type
         rdf:resource="http://purl.org/dc/dcmitype/StillImage" /><dc:title>Potato Salad</dc:title><cc:license
         rdf:resource="http://creativecommons.org/publicdomain/zero/1.0/" /><dc:creator><cc:Agent><dc:title>Glitch</dc:title></cc:Agent></dc:creator><dc:source>https://opengameart.org/node/20149</dc:source></cc:Work><cc:License
       rdf:about="http://creativecommons.org/publicdomain/zero/1.0/"><cc:permits
         rdf:resource="http://creativecommons.org/ns#Reproduction" /><cc:permits
         rdf:resource="http://creativecommons.org/ns#Distribution" /><cc:permits
         rdf:resource="http://creativecommons.org/ns#DerivativeWorks" /></cc:License></rdf:RDF></metadata><defs
   id="defs169"><linearGradient
     inkscape:collect="always"
     xlink:href="#SVGID_1_"
     id="linearGradient1056"
     gradientUnits="userSpaceOnUse"
     gradientTransform="matrix(1,-0.0032,0.0032,1,26.0796,25.9785)"
     x1="-22.476601"
     y1="-32.381302"
     x2="-6.7765002"
     y2="-32.381302" /></defs><sodipodi:namedview
   pagecolor="#ffffff"
   bordercolor="#666666"
   borderopacity="1"
   objecttolerance="10"
   gridtolerance="10"
   guidetolerance="10"
   inkscape:pageopacity="0"
   inkscape:pageshadow="2"
   inkscape:window-width="1920"
   inkscape:window-height="1025"
   id="namedview167"
   showgrid="false"
   inkscape:zoom="1.7117117"
   inkscape:cx="7.8482924"
   inkscape:cy="70.153358"
   inkscape:window-x="-8"
   inkscape:window-y="-8"
   inkscape:window-maximized="1"
   inkscape:current-layer="flash0.ai"
   fit-margin-top="0"
   fit-margin-left="0"
   fit-margin-right="0"
   fit-margin-bottom="0" />
<symbol
   id="flash0.ai_x5F_7_x2F_Layer_2_x2F__x3C_Path_x3E__x5F_63"
   viewBox="-0.042 -9.65 41.792 9.681"
   transform="translate(0,225.40336)">
	<g
   id="Layer_1_5_">
		<path
   style="clip-rule:evenodd;fill-rule:evenodd"
   d="m 40.9,-5.45 c 0.533,-0.633 0.817,-1.25 0.85,-1.85 L 41.5,-7 c -0.867,1.5 -2.367,2.533 -4.5,3.1 -0.567,0.167 -1.517,0.35 -2.85,0.55 -1.433,0.2 -2.683,0.434 -3.75,0.7 -1.2,0.3 -2.617,0.417 -4.25,0.35 -1.867,-0.133 -3.367,-0.2 -4.5,-0.2 -3.6,0 -6.1,-0.05 -7.5,-0.15 -1,-0.033 -2.4,-0.483 -4.2,-1.35 C 8.317,-4.8 7.25,-5.45 6.75,-5.95 6.517,-5.85 6.233,-5.817 5.9,-5.85 5.267,-5.983 4.733,-6.5 4.3,-7.4 4.2,-7.6 3.833,-7.95 3.2,-8.45 2.6,-8.95 2.266,-9.35 2.2,-9.65 1.1,-9.017 0.367,-8.467 0,-8 c -0.133,0.467 0.05,1.05 0.55,1.75 0.434,0.633 1,1.167 1.7,1.6 0.467,0.3 1.467,0.683 3,1.15 1.533,0.5 2.583,0.917 3.15,1.25 1.833,1.133 4.083,1.75 6.75,1.85 0.633,0.033 2.217,0.083 4.75,0.15 2.133,0.067 3.8,0.15 5,0.25 2.133,0.167 4.883,-0.333 8.25,-1.5 2.9,-1.033 4.934,-1.867 6.1,-2.5 0.633,-0.333 1.183,-0.817 1.65,-1.45 z"
   id="path2"
   inkscape:connector-curvature="0" />
	</g>
</symbol>
<symbol
   id="flash0.ai_x5F_7_x2F_Layer_2_x2F__x3C_Path_x3E__x5F_70"
   viewBox="0 -12.55 12.75 12.55"
   transform="translate(0,225.40336)">
	<g
   id="Layer_1_4_">
		<path
   style="clip-rule:evenodd;fill:#595959;fill-rule:evenodd"
   d="m 12.75,-12.55 c -3.2,1.2 -5.917,2.9 -8.15,5.1 C 2.333,-5.25 0.8,-2.767 0,0 L 0.35,-0.1 1.1,-0.55 c 0.533,-1.6 1.4,-3.233 2.6,-4.9 2.333,-3.233 5.35,-5.6 9.05,-7.1 z"
   id="path6"
   inkscape:connector-curvature="0" />
	</g>
</symbol>
<symbol
   id="flash0.ai_x5F_7_x2F_Layer_2_x2F__x3C_Path_x3E__x5F_71"
   viewBox="0 -13.05 17.2 13.05"
   transform="translate(0,225.40336)">
	<g
   id="Layer_1_3_">
		<path
   style="clip-rule:evenodd;fill:#595959;fill-rule:evenodd"
   d="m 10.15,-1.5 c 3,0.4 5.35,0.9 7.05,1.5 C 16.9,-0.933 16.433,-1.917 15.8,-2.95 14.533,-4.917 12.6,-6.9 10,-8.9 8,-10.4 5.45,-11.667 2.35,-12.7 L 0,-13.05 c 4,1.433 6.833,3.517 8.5,6.25 0.767,1.2 1.25,2.333 1.45,3.4 0.133,0.567 0.2,1.2 0.2,1.9 z"
   id="path10"
   inkscape:connector-curvature="0" />
	</g>
</symbol>
<symbol
   id="flash0.ai_x5F_7_x2F_Layer_2_x2F__x3C_Path_x3E__x5F_72"
   viewBox="0 -12.7 24.3 12.7"
   transform="translate(0,225.40336)">
	<g
   id="Layer_1_2_">
		
			<linearGradient
   id="SVGID_1_"
   gradientUnits="userSpaceOnUse"
   x1="-22.476601"
   y1="-32.381302"
   x2="-6.7765002"
   y2="-32.381302"
   gradientTransform="matrix(1,-0.0032,0.0032,1,26.0796,25.9785)">
			<stop
   offset="0"
   style="stop-color:#FFFFFF"
   id="stop14" />
			<stop
   offset="1"
   style="stop-color:#000000"
   id="stop16" />
		</linearGradient>
		<path
   style="clip-rule:evenodd;fill:url(#linearGradient1056);fill-rule:evenodd"
   d="m 24.3,-1.75 -3.2,-10.85 -2.35,-0.1 c -0.933,0 -1.85,0.05 -2.75,0.15 -1.1,0.167 -2.35,0.5 -3.75,1 -1.433,0.533 -2.633,1.117 -3.6,1.75 -3.066,2 -5.433,4.233 -7.1,6.7 C 0.717,-1.867 0.2,-0.833 0,0 l 2.65,-0.55 c 4.567,-0.867 10,-1.3 16.3,-1.3 z"
   id="path19"
   inkscape:connector-curvature="0" />
	</g>
</symbol>

<g
   id="g1052"
   transform="matrix(5.9315554,0,0,5.9315554,2.4570001e-7,38.210391)"><g
     id="g44">
	<path
   inkscape:connector-curvature="0"
   id="path23"
   d="m 42.468,12.995 0.185,-0.061 c -1.199,5.043 -3.735,9.171 -7.608,12.385 -3.965,3.295 -8.484,4.941 -13.557,4.941 -5.103,0 -9.637,-1.667 -13.603,-5.002 C 3.95,21.963 1.429,17.774 0.323,12.69 l 0.323,0.122 c 1.199,1.22 3.735,2.237 7.608,3.05 3.904,0.773 8.376,1.16 13.418,1.16 4.888,0 9.253,-0.387 13.096,-1.16 3.811,-0.732 6.378,-1.688 7.7,-2.867 z"
   style="clip-rule:evenodd;fill:#d9d9d9;fill-rule:evenodd" />
	
		<use
   x="0"
   id="use25"
   style="overflow:visible;opacity:0.71880002;enable-background:new"
   transform="matrix(0.9222,0,0,-1.2202,3.75,290.13728)"
   y="-12.7"
   height="12.7"
   width="24.299999"
   xlink:href="#flash0.ai_x5F_7_x2F_Layer_2_x2F__x3C_Path_x3E__x5F_72" />
	
		<use
   x="0"
   id="use27"
   style="overflow:visible;opacity:0.16019999;enable-background:new"
   transform="matrix(0.9222,0,0,-1.2202,26.3496,288.78718)"
   y="-13.05"
   height="13.05"
   width="17.200001"
   xlink:href="#flash0.ai_x5F_7_x2F_Layer_2_x2F__x3C_Path_x3E__x5F_71" />
	
		<use
   x="0"
   id="use29"
   style="overflow:visible;opacity:0.32030005;enable-background:new"
   transform="matrix(0.9222,0,0,-1.2202,0.8501,288.68708)"
   y="-12.55"
   height="12.55"
   width="12.75"
   xlink:href="#flash0.ai_x5F_7_x2F_Layer_2_x2F__x3C_Path_x3E__x5F_70" />
	
		<linearGradient
   gradientTransform="matrix(0.9222,0,0,1.2202,-6.103516e-5,0)"
   y2="8.5995998"
   x2="46.049801"
   y1="8.5995998"
   x1="0.8003"
   gradientUnits="userSpaceOnUse"
   id="SVGID_2_">
		<stop
   id="stop31"
   style="stop-color:#7D7D7D"
   offset="0" />
		<stop
   id="stop33"
   style="stop-color:#D4D4D4"
   offset="1" />
	</linearGradient>
	<path
   inkscape:connector-curvature="0"
   id="path36"
   d="m 36.336,3.172 c 4.087,2.034 6.132,4.474 6.132,7.321 0,2.888 -2.045,5.328 -6.132,7.321 -4.059,2.033 -8.977,3.05 -14.756,3.05 -5.749,0 -10.667,-1.017 -14.756,-3.05 -4.058,-1.993 -6.086,-4.433 -6.086,-7.321 0,-2.848 2.029,-5.288 6.086,-7.321 4.089,-2.034 9.007,-3.05 14.756,-3.05 5.748,0 10.667,1.017 14.756,3.05 z"
   style="clip-rule:evenodd;fill:url(#SVGID_2_);fill-rule:evenodd" />
	<path
   inkscape:connector-curvature="0"
   id="path38"
   d="M 43.067,9.761 H 41.73 C 41.453,7.239 39.378,5.104 35.504,3.355 31.661,1.606 27.05,0.732 21.671,0.732 16.322,0.732 11.727,1.607 7.884,3.355 4.012,5.104 1.937,7.239 1.66,9.761 H 0.092 C 0.584,6.995 2.874,4.677 6.962,2.806 11.112,0.936 15.985,0 21.58,0 c 5.625,0 10.497,0.936 14.616,2.806 4.089,1.871 6.38,4.19 6.871,6.955 z"
   style="clip-rule:evenodd;fill:#f5f5f5;fill-rule:evenodd" />
	
		<use
   id="use40"
   style="overflow:visible;opacity:0.28910002;enable-background:new"
   transform="matrix(0.9222,0,0,-1.2202,2.3999,279.18708)"
   y="-9.6499996"
   x="-0.041999999"
   height="9.6809998"
   width="41.792"
   xlink:href="#flash0.ai_x5F_7_x2F_Layer_2_x2F__x3C_Path_x3E__x5F_63" />
	<path
   inkscape:connector-curvature="0"
   id="path42"
   d="m 41.73,9.701 h 1.337 c 0.062,0.244 0.092,0.569 0.092,0.976 0,2.969 -2.105,5.491 -6.316,7.565 -4.212,2.075 -9.3,3.111 -15.263,3.111 -5.964,0 -11.052,-1.036 -15.263,-3.111 C 2.105,16.167 0,13.645 0,10.676 L 0.092,9.7 H 1.66 v 0.548 c 0,2.644 1.952,4.881 5.856,6.711 3.904,1.871 8.623,2.807 14.156,2.807 5.563,0 10.299,-0.936 14.202,-2.807 3.904,-1.83 5.856,-4.067 5.856,-6.711 z"
   style="clip-rule:evenodd;fill:#f5f5f5;fill-rule:evenodd" />
</g><g
     id="g164">
	<g
   id="g132">
		<path
   inkscape:connector-curvature="0"
   id="path46"
   d="m 41.661,9.944 c 0.215,0.735 0.28,1.405 0.193,2.01 -0.259,0.778 -1.209,1.621 -2.852,2.528 -3.286,1.859 -8.451,3.09 -15.497,3.696 C 16.502,18.826 10.948,18.199 6.842,16.298 4.767,15.347 3.405,14.331 2.758,13.251 2.411,12.948 2.153,12.559 1.98,12.084 1.634,11.177 1.959,10.269 2.953,9.361 3.947,8.453 5.005,8 6.129,8 6.692,8 7.146,8.086 7.491,8.259 7.231,7.74 7.124,7.178 7.167,6.573 7.253,5.276 8.01,4.326 9.436,3.72 c 1.427,-0.648 3.069,-0.584 4.928,0.194 0.951,0.346 1.75,0.778 2.399,1.297 0.043,-0.605 0.303,-1.232 0.778,-1.88 0.951,-1.34 2.507,-2.14 4.668,-2.399 1.988,-0.259 3.609,-0.065 4.863,0.583 0.648,0.346 1.102,0.713 1.361,1.102 l 0.389,-0.064 c 0.52,-0.086 1.405,-0.13 2.658,-0.13 1.254,0 1.881,0.648 1.881,1.945 0,0.648 -0.13,1.297 -0.389,1.945 l 2.009,-0.13 c 1.6,0 3.027,0.259 4.279,0.778 1.255,0.563 2.055,1.557 2.401,2.983 z"
   style="clip-rule:evenodd;fill:#efdfc8;fill-rule:evenodd" />
		<path
   inkscape:connector-curvature="0"
   id="path48"
   d="m 42.05,11.306 c -0.043,0.389 -0.217,0.8 -0.52,1.232 -0.518,0.908 -1.275,1.491 -2.27,1.75 -0.648,0.173 -2.248,-0.021 -4.797,-0.583 -2.161,-0.519 -3.437,-0.454 -3.825,0.195 -0.476,0.691 0.172,1.231 1.944,1.621 0.908,0.173 1.837,0.28 2.788,0.324 L 28.887,17.53 C 28.022,16.968 26.876,16.32 25.45,15.585 24.542,15.109 23.569,14.807 22.532,14.677 L 21.3,14.548 28.044,11.954 C 29.124,11.478 29.06,10.722 27.849,9.685 26.682,8.604 25.234,8.28 23.505,8.712 20.393,9.403 18.75,9.771 18.577,9.814 c -1.902,0.476 -3.22,1.038 -3.955,1.687 -0.735,0.605 0.043,1.34 2.334,2.204 1.156,0.428 2.378,0.796 3.664,1.102 -0.319,-0.069 -0.957,0.104 -1.913,0.519 -0.648,0.26 -1.081,0.822 -1.297,1.686 -0.13,0.432 -0.194,0.821 -0.194,1.167 -0.087,-0.303 -0.324,-0.67 -0.714,-1.103 -0.777,-0.777 -1.836,-1.339 -3.176,-1.685 -0.951,-0.26 -2.313,-0.043 -4.085,0.648 -1.599,0.648 -2.983,0.648 -4.15,0 C 3.751,15.304 2.8,14.289 2.238,12.992 L 1.85,11.306 c 0.605,0.562 1.686,1.059 3.242,1.491 1.167,0.303 2.378,0.324 3.631,0.065 1.21,-0.259 2.097,-0.713 2.659,-1.361 C 12.073,10.636 10.777,9.556 7.492,8.259 7.188,7.524 7.34,6.811 7.945,6.119 8.247,5.73 9.198,6.033 10.797,7.027 c 1.902,1.296 3.112,1.988 3.631,2.075 0.821,0.173 1.448,-0.411 1.88,-1.75 0.26,-0.691 0.411,-1.405 0.454,-2.14 l 2.075,0.778 c 1.469,0.476 2.442,0.626 2.917,0.454 1.253,-0.475 1.966,-1.319 2.139,-2.529 0.13,-1.167 0.497,-1.88 1.103,-2.14 0.907,-0.346 1.751,-0.302 2.528,0.13 0.39,0.216 0.692,0.454 0.908,0.713 l 1.621,-0.324 c 1.254,-0.087 2.226,0.173 2.918,0.778 0.734,0.605 0.95,1.34 0.647,2.204 -0.129,0.39 -0.346,0.735 -0.647,1.038 L 32,7.74 c -0.39,1.037 0.086,1.815 1.426,2.334 1.341,0.562 2.464,0.886 3.372,0.973 0.734,0.086 2.484,0.173 5.252,0.259 z"
   style="clip-rule:evenodd;fill:#f7daa1;fill-rule:evenodd" />
		<path
   inkscape:connector-curvature="0"
   id="path50"
   d="m 16.179,11.436 c 1.513,0.043 2.766,0.108 3.761,0.195 0.778,0.086 1.577,0.432 2.399,1.038 0.734,0.519 1.361,0.713 1.88,0.583 1.081,-0.216 1.448,0.086 1.103,0.907 -2.031,0.433 -3.933,0.67 -5.706,0.714 -1.124,0.043 -2.183,-0.173 -3.177,-0.648 l -1.167,-0.648 c -0.605,-0.26 -0.973,-0.713 -1.102,-1.362 v -0.843 z"
   style="clip-rule:evenodd;fill:#f7daa1;fill-rule:evenodd" />
		<path
   inkscape:connector-curvature="0"
   id="path52"
   d="m 28.109,1.905 c 0.303,0.389 0.648,1.081 1.037,2.074 0.087,0.13 0.13,0.541 0.13,1.232 -0.043,0.519 0.13,0.864 0.519,1.037 0.648,0.26 1.967,-0.259 3.955,-1.556 l -0.777,1.621 c -0.39,0.475 -1.103,0.951 -2.141,1.426 -0.604,0.346 -1.08,0.648 -1.426,0.907 L 29.146,8.97 25.58,7.22 c 0,-0.389 0.454,-1.188 1.362,-2.398 0.605,-0.735 0.648,-1.535 0.13,-2.399 L 26.1,1.321 l 0.843,0.13 c 0.561,0.086 0.951,0.237 1.166,0.454 z"
   style="clip-rule:evenodd;fill:#c9b284;fill-rule:evenodd" />
		<path
   inkscape:connector-curvature="0"
   id="path54"
   d="m 29.666,8.194 -0.324,0.519 c -0.173,0.476 -0.217,0.973 -0.13,1.491 0.173,0.821 0.648,1.513 1.427,2.075 -2.508,0.129 -4.323,0.065 -5.447,-0.195 -0.476,-0.129 -0.994,-0.519 -1.556,-1.167 -0.519,-0.562 -1.211,-0.907 -2.075,-1.037 -1.038,-0.13 -2.248,0 -3.631,0.389 l -1.75,0.584 C 16.396,9.729 16.742,8.908 17.218,8.389 17.737,7.913 17.585,6.854 16.764,5.212 l 0.519,0.584 c 0.433,0.432 0.887,0.799 1.362,1.102 0.735,0.476 1.967,0.757 3.696,0.843 1.21,-0.043 2.507,-0.605 3.89,-1.686 z"
   style="clip-rule:evenodd;fill:#c9b284;fill-rule:evenodd" />
		<path
   inkscape:connector-curvature="0"
   id="path56"
   d="m 26.488,7.092 c 0.908,-0.303 1.534,0.108 1.881,1.231 0.259,0.951 0.302,1.881 0.129,2.788 -0.086,0.519 -0.41,0.67 -0.973,0.454 -0.777,-0.432 -1.404,-0.734 -1.88,-0.907 -0.778,-0.26 -1.34,-0.671 -1.686,-1.232 -0.433,-0.605 -0.324,-1.059 0.323,-1.361 z"
   style="clip-rule:evenodd;fill:#f7daa1;fill-rule:evenodd" />
		<path
   inkscape:connector-curvature="0"
   id="path58"
   d="m 8.398,7.675 c 1.038,0.951 2.226,1.556 3.566,1.815 2.162,0.347 3.761,0.671 4.798,0.973 -0.648,-0.043 -1.275,-0.021 -1.88,0.065 -1.167,0.173 -1.621,0.605 -1.361,1.297 0.389,0.951 1.146,1.707 2.269,2.269 0.303,0.173 0.67,0.843 1.103,2.009 -0.303,-0.302 -0.757,-0.605 -1.362,-0.907 -1.124,-0.605 -2.313,-0.844 -3.566,-0.714 -1.988,0.217 -3.933,0.865 -5.835,1.945 -0.519,0 -1.037,-0.194 -1.556,-0.583 L 2.953,14.547 c 1.167,0.562 2.853,0.54 5.057,-0.065 0.519,-0.13 1.729,-0.389 3.63,-0.778 0.735,-0.173 1.06,-0.389 0.973,-0.648 0.044,-0.562 0.065,-1.016 0.065,-1.361 -0.043,-0.562 -0.411,-1.016 -1.103,-1.361 L 7.491,8.259 7.297,6.249 Z"
   style="clip-rule:evenodd;fill:#c9b284;fill-rule:evenodd" />
		<path
   inkscape:connector-curvature="0"
   id="path60"
   d="m 33.037,16.493 -3.371,1.167 c -0.778,-0.648 -1.687,-1.297 -2.724,-1.945 -0.605,-0.39 -1.448,-0.714 -2.529,-0.973 l -1.426,-0.26 2.334,-0.324 c 0.734,-0.086 1.275,-0.756 1.621,-2.01 l 0.194,0.973 c 0.216,0.778 0.648,1.427 1.297,1.945 1.038,0.822 2.573,1.297 4.604,1.427 z"
   style="clip-rule:evenodd;fill:#c9b284;fill-rule:evenodd" />
		<path
   inkscape:connector-curvature="0"
   id="path62"
   d="m 41.401,12.408 c 0.173,0.26 0,0.627 -0.52,1.102 L 39.52,14.483 C 37.963,14.44 36.645,14.31 35.565,14.094 l -5.771,-1.686 -0.389,-1.102 1.815,0.519 c 1.47,0.346 2.961,0.605 4.474,0.778 2.205,0.259 4.108,0.194 5.707,-0.195 z"
   style="clip-rule:evenodd;fill:#c9b284;fill-rule:evenodd" />
		<path
   inkscape:connector-curvature="0"
   id="path64"
   d="M 24.219,1.646 C 24.176,2.035 23.614,2.359 22.533,2.618 22.057,2.748 21.734,2.942 21.561,3.202 21.474,3.375 21.323,3.872 21.107,4.693 20.934,5.298 20.545,5.514 19.94,5.341 19.81,5.254 19.292,4.951 18.384,4.433 17.995,4.174 17.93,3.936 18.19,3.72 18.363,3.547 18.795,3.201 19.486,2.682 20.264,2.034 21.453,1.623 23.052,1.451 23.83,1.148 24.219,1.213 24.219,1.646 Z"
   style="clip-rule:evenodd;fill:#fffbe8;fill-rule:evenodd" />
		<path
   inkscape:connector-curvature="0"
   id="path66"
   d="m 34.334,6.833 c 0.389,-0.26 0.8,-0.346 1.231,-0.26 0.303,0.043 0.973,0.195 2.01,0.454 0.994,0.173 1.773,0.519 2.334,1.038 0.563,0.519 0.822,1.102 0.779,1.75 -0.043,0.26 -0.52,0.044 -1.428,-0.648 C 37.877,8.13 36.364,7.763 34.722,8.065 33.858,8.194 33.447,8.129 33.491,7.87 c 0,-0.26 0.28,-0.605 0.843,-1.037 z"
   style="clip-rule:evenodd;fill:#fffbe8;fill-rule:evenodd" />
		<path
   inkscape:connector-curvature="0"
   id="path68"
   d="m 26.813,6.573 c 0.519,-0.216 0.8,-0.237 0.843,-0.064 0.043,0.476 0.173,0.821 0.39,1.037 0.432,0.432 0.691,0.908 0.777,1.426 0.13,0.519 0.022,0.908 -0.324,1.167 -0.346,0.217 -0.95,0.13 -1.815,-0.259 C 25.82,9.49 25.15,9.037 24.674,8.518 24.328,8.086 24.414,7.697 24.933,7.351 25.104,7.265 25.731,7.005 26.813,6.573 Z"
   style="clip-rule:evenodd;fill:#efdfc8;fill-rule:evenodd" />
		<path
   inkscape:connector-curvature="0"
   id="path70"
   d="m 9.89,4.174 c 1.426,-0.303 2.788,-0.217 4.085,0.259 1.253,0.433 1.772,0.973 1.556,1.621 -0.173,0.476 -0.648,0.476 -1.426,0 C 12.765,5.32 12.009,4.93 11.836,4.887 10.755,4.714 10.042,4.584 9.696,4.498 9.22,4.412 9.285,4.303 9.89,4.174 Z"
   style="clip-rule:evenodd;fill:#fffbe8;fill-rule:evenodd" />
		<path
   inkscape:connector-curvature="0"
   id="path72"
   d="m 31.222,13.187 c 1.167,-0.173 2.594,-0.043 4.279,0.389 1.686,0.476 2.377,0.907 2.074,1.297 -0.215,0.346 -0.973,0.389 -2.27,0.129 -1.901,-0.346 -2.981,-0.519 -3.241,-0.519 -0.821,-0.043 -1.297,-0.259 -1.426,-0.648 -0.086,-0.346 0.108,-0.562 0.584,-0.648 z"
   style="clip-rule:evenodd;fill:#fffbe8;fill-rule:evenodd" />
		<path
   inkscape:connector-curvature="0"
   id="path74"
   d="m 11.251,15.197 c 1.254,-0.39 2.421,-0.39 3.501,0 0.907,0.346 1.361,0.713 1.361,1.102 0,0.346 -1.102,0.346 -3.306,0 -0.217,-0.044 -0.821,0 -1.816,0.129 C 9.997,16.515 9.197,16.493 8.592,16.364 7.9,16.191 7.944,15.997 8.721,15.781 c 0.477,-0.087 1.321,-0.282 2.53,-0.584 z"
   style="clip-rule:evenodd;fill:#fffbe8;fill-rule:evenodd" />
		<path
   inkscape:connector-curvature="0"
   id="path76"
   d="M 15.79,15.65 17.995,15.131 17.8,15.65 c -0.043,0.476 0.087,0.908 0.39,1.296 0.562,0.648 2.615,0.995 6.159,1.038 l -3.696,0.389 c -2.161,0.13 -3.955,0.151 -5.381,0.065 -1.599,-0.044 -2.745,-0.303 -3.436,-0.778 l 2.658,-0.648 c 0.735,-0.26 1.166,-0.713 1.296,-1.362 z"
   style="clip-rule:evenodd;fill:#f7daa1;fill-rule:evenodd" />
		<path
   inkscape:connector-curvature="0"
   id="path78"
   d="m 17.087,14.483 c 0.735,0.173 1.578,0.303 2.529,0.39 l -1.621,0.259 c -0.648,0.087 -0.93,0.39 -0.844,0.908 0.044,0.26 0.13,0.691 0.26,1.297 -0.13,0.519 0.757,0.864 2.658,1.037 -1.513,0.043 -2.615,0.108 -3.307,0.194 l -2.853,-0.129 c 1.254,-0.563 2.14,-1.146 2.659,-1.751 0.562,-0.605 0.389,-1.124 -0.519,-1.556 l -1.945,-1.426 z"
   style="clip-rule:evenodd;fill:#c9b284;fill-rule:evenodd" />
		<path
   inkscape:connector-curvature="0"
   id="path80"
   d="m 16.05,15.131 c -0.865,-0.389 -1.535,-1.059 -2.01,-2.01 l -0.519,-1.296 0.648,0.583 c 0.519,0.389 1.059,0.583 1.621,0.583 0.605,0 2.637,0.26 6.095,0.778 0.864,0.13 2.182,0.389 3.955,0.778 -1.081,0 -2.291,0.107 -3.631,0.324 -1.383,0.302 -2.42,0.519 -3.112,0.648 -1.21,0.131 -2.226,0.002 -3.047,-0.388 z"
   style="clip-rule:evenodd;fill:#c9b284;fill-rule:evenodd" />
		<path
   inkscape:connector-curvature="0"
   id="path82"
   d="m 23.182,16.914 c 0.156,-0.049 0.329,-0.06 0.519,-0.032 l -0.13,0.389 c -0.043,0 -0.173,0.022 -0.389,0.065 z"
   style="clip-rule:evenodd;fill:#865517;fill-rule:evenodd" />
		<path
   inkscape:connector-curvature="0"
   id="path84"
   d="m 18.092,12.83 c 0.17,-0.025 0.375,0.007 0.616,0.098 -0.043,0.432 -0.26,0.562 -0.648,0.389 -0.314,-0.158 -0.304,-0.32 0.032,-0.487 z"
   style="clip-rule:evenodd;fill:#865517;fill-rule:evenodd" />
		<path
   inkscape:connector-curvature="0"
   id="path86"
   d="m 21.885,12.02 c 0.389,0.086 0.626,0.216 0.712,0.389 -0.389,0.389 -0.712,0.411 -0.972,0.065 -0.226,-0.303 -0.14,-0.454 0.26,-0.454 z"
   style="clip-rule:evenodd;fill:#865517;fill-rule:evenodd" />
		<path
   inkscape:connector-curvature="0"
   id="path88"
   d="m 35.501,10.723 -0.584,-0.064 c 0.563,-0.087 0.844,0.086 0.844,0.519 -0.39,0 -0.67,-0.043 -0.844,-0.13 0.086,-0.131 0.281,-0.238 0.584,-0.325 z"
   style="clip-rule:evenodd;fill:#865517;fill-rule:evenodd" />
		<path
   inkscape:connector-curvature="0"
   id="path90"
   d="m 32.777,8.259 -0.194,0.194 c 0.303,0 0.454,0.087 0.454,0.26 0,0.129 -0.13,0.259 -0.389,0.389 -0.345,-0.346 -0.302,-0.627 0.129,-0.843 z"
   style="clip-rule:evenodd;fill:#865517;fill-rule:evenodd" />
		<path
   inkscape:connector-curvature="0"
   id="path92"
   d="m 39.618,11.241 c 0.15,-0.015 0.313,0.007 0.486,0.065 -0.129,0.302 -0.367,0.432 -0.713,0.389 0.001,-0.178 0.077,-0.329 0.227,-0.454 z"
   style="clip-rule:evenodd;fill:#865517;fill-rule:evenodd" />
		<path
   inkscape:connector-curvature="0"
   id="path94"
   d="m 26.618,2.553 h -0.13 c 0.26,0.648 0.151,0.778 -0.324,0.389 -0.433,-0.389 -0.281,-0.519 0.454,-0.389 z"
   style="clip-rule:evenodd;fill:#865517;fill-rule:evenodd" />
		<path
   inkscape:connector-curvature="0"
   id="path96"
   d="m 24.219,4.369 h 0.324 C 24.5,4.757 24.262,4.887 23.83,4.757 23.787,4.584 23.916,4.455 24.219,4.369 Z"
   style="clip-rule:evenodd;fill:#865517;fill-rule:evenodd" />
		<path
   inkscape:connector-curvature="0"
   id="path98"
   d="m 14.947,8.129 h 0.519 C 15.628,8.171 15.779,8.236 15.92,8.323 15.617,8.842 15.315,8.907 15.012,8.518 14.811,8.316 14.789,8.187 14.947,8.129 h -0.13 C 15,8.088 15.173,8.078 15.336,8.097 15.162,8.089 15.032,8.1 14.947,8.129 Z"
   style="clip-rule:evenodd;fill:#865517;fill-rule:evenodd" />
		<path
   inkscape:connector-curvature="0"
   id="path100"
   d="m 11.77,7.286 0.26,0.194 c -0.26,0.346 -0.519,0.346 -0.778,0 0.079,-0.118 0.251,-0.183 0.518,-0.194 z"
   style="clip-rule:evenodd;fill:#865517;fill-rule:evenodd" />
		<path
   inkscape:connector-curvature="0"
   id="path102"
   d="m 5.643,11.695 c 0.252,0.096 0.176,0.313 -0.227,0.648 -0.173,0.216 -0.281,0.129 -0.324,-0.26 0,-0.278 0.183,-0.408 0.551,-0.388 z"
   style="clip-rule:evenodd;fill:#865517;fill-rule:evenodd" />
		<path
   inkscape:connector-curvature="0"
   id="path104"
   d="M 9.307,13.251 8.788,13.121 C 9.35,13.035 9.782,13.1 10.084,13.315 9.998,13.618 9.803,13.769 9.501,13.769 9.242,13.812 9.069,13.682 8.982,13.38 Z"
   style="clip-rule:evenodd;fill:#865517;fill-rule:evenodd" />
		<path
   inkscape:connector-curvature="0"
   id="path106"
   d="m 10.603,11.63 -0.227,0.033 c 0.293,-0.027 0.477,0.069 0.551,0.292 -0.259,0.259 -0.497,0.216 -0.713,-0.129 -0.216,-0.39 -0.087,-0.455 0.389,-0.196 z"
   style="clip-rule:evenodd;fill:#865517;fill-rule:evenodd" />
		<path
   inkscape:connector-curvature="0"
   id="path108"
   d="m 14.169,16.688 -0.194,0.13 c 0.043,0 0.281,0.064 0.713,0.194 0.043,0.648 -0.238,0.778 -0.843,0.389 -0.605,-0.389 -0.497,-0.628 0.324,-0.713 z"
   style="clip-rule:evenodd;fill:#865517;fill-rule:evenodd" />
		<path
   inkscape:connector-curvature="0"
   id="path110"
   d="m 26.618,10.334 -0.194,0.064 c 0.302,-0.043 0.497,0.064 0.583,0.324 0.087,0.26 -0.043,0.367 -0.389,0.324 -0.39,-0.043 -0.563,-0.194 -0.519,-0.454 0.044,-0.258 0.216,-0.345 0.519,-0.258 z"
   style="clip-rule:evenodd;fill:#865517;fill-rule:evenodd" />
		<path
   inkscape:connector-curvature="0"
   id="path112"
   d="M 17.605,9.686 18.513,8.908 21.43,8.714 c 0.605,-0.087 1.232,-0.13 1.88,-0.13 0.171,-0.009 0.322,-0.009 0.453,0 0.044,-0.13 0.238,-0.238 0.584,-0.324 l -0.13,3.372 C 23.353,10.811 22.64,10.336 22.077,10.206 21.688,10.119 20.824,10.012 19.484,9.882 Z"
   style="clip-rule:evenodd;fill:#968563;fill-rule:evenodd" />
		<path
   inkscape:connector-curvature="0"
   id="path114"
   d="m 29.212,14.224 -0.454,0.064 c 0.346,0 0.605,0.108 0.778,0.324 -0.26,0.648 -0.541,0.691 -0.843,0.13 -0.302,-0.605 -0.13,-0.778 0.519,-0.518 z"
   style="clip-rule:evenodd;fill:#865517;fill-rule:evenodd" />
		<path
   inkscape:connector-curvature="0"
   id="path116"
   d="m 32.259,16.558 -0.648,-0.324 c 0.303,-0.086 0.605,-0.043 0.908,0.13 0,0.519 -0.303,0.691 -0.908,0.519 0.044,-0.216 0.108,-0.346 0.194,-0.389 0.044,-0.001 0.195,0.021 0.454,0.064 z"
   style="clip-rule:evenodd;fill:#865517;fill-rule:evenodd" />
		<path
   inkscape:connector-curvature="0"
   id="path118"
   d="m 16.503,6.119 c 0.26,0.173 1.017,0.605 2.27,1.297 1.038,0.691 1.319,1.34 0.843,1.945 L 20.199,9.62 C 20.552,9.487 20.941,9.292 21.366,9.037 22.533,8.345 23.397,7.977 23.96,7.934 24.003,8.669 23.592,9.231 22.728,9.62 21.907,9.923 21.15,9.966 20.459,9.75 L 20.2,9.62 C 19.659,9.846 19.206,9.933 18.839,9.88 17.974,9.793 17.434,9.275 17.218,8.323 16.914,7.07 16.676,6.335 16.503,6.119 Z"
   style="clip-rule:evenodd;fill:#91c401;fill-rule:evenodd" />
		<path
   inkscape:connector-curvature="0"
   id="path120"
   d="m 32.129,12.797 c -0.303,0.086 -0.562,-0.065 -0.777,-0.454 -0.217,-0.303 -0.346,-0.648 -0.389,-1.038 0.863,0.216 1.599,0.713 2.204,1.491 0.129,-0.389 0.54,-0.691 1.231,-0.908 0.562,-0.173 1.103,-0.237 1.62,-0.194 -0.043,0.389 -0.346,0.778 -0.906,1.167 -0.648,0.475 -0.994,0.735 -1.038,0.778 -0.216,-0.259 -0.54,-0.411 -0.973,-0.454 -0.389,-0.043 -0.713,0.043 -0.973,0.259 v -0.647 z"
   style="clip-rule:evenodd;fill:#91c401;fill-rule:evenodd" />
		<path
   inkscape:connector-curvature="0"
   id="path122"
   d="m 32.453,2.099 c -0.432,0.519 -0.82,0.843 -1.166,0.973 -0.303,-0.303 -0.758,-0.454 -1.362,-0.454 -0.433,0 -0.854,0.076 -1.265,0.227 L 29.212,2.618 C 28.736,2.575 28.542,2.337 28.628,1.905 28.715,1.473 28.952,1.192 29.342,1.062 l 0.907,1.362 c 0.173,-0.389 0.583,-0.821 1.231,-1.296 0.692,-0.519 1.146,-0.627 1.362,-0.324 0.26,0.301 0.131,0.733 -0.389,1.295 z"
   style="clip-rule:evenodd;fill:#91c401;fill-rule:evenodd" />
		<path
   inkscape:connector-curvature="0"
   id="path124"
   d="m 11.381,14.613 c -0.303,-0.13 -0.584,-0.389 -0.843,-0.778 -0.26,-0.432 -0.303,-0.778 -0.13,-1.037 0.216,-0.389 0.605,-0.367 1.167,0.065 0.346,0.259 0.605,0.53 0.778,0.81 v -1.394 c 0.432,0 0.605,0.367 0.519,1.102 0.13,-0.302 0.389,-0.497 0.778,-0.583 0.129,0.735 -0.065,1.297 -0.584,1.686 -0.475,0.345 -1.036,0.389 -1.685,0.129 z"
   style="clip-rule:evenodd;fill:#728501;fill-rule:evenodd" />
		<path
   inkscape:connector-curvature="0"
   id="path126"
   d="M 12.16,3.202 C 11.77,2.813 11.555,2.381 11.512,1.905 11.468,1.343 11.706,0.954 12.225,0.738 c 0.043,0.433 0.194,1.103 0.454,2.01 0.476,-0.476 0.929,-0.8 1.361,-0.973 0.043,0.259 -0.043,0.756 -0.259,1.491 L 14.364,3.202 C 14.407,3.331 14.385,3.526 14.299,3.785 13.348,3.266 12.591,3.094 12.03,3.266 Z"
   style="clip-rule:evenodd;fill:#91c401;fill-rule:evenodd" />
		<path
   inkscape:connector-curvature="0"
   id="path128"
   d="m 22.922,18.179 0.519,-0.324 c -0.043,0.519 -0.799,0.778 -2.269,0.778 -1.902,-0.043 -2.896,-0.043 -2.982,0 l 0.194,-0.194 c -0.691,-0.433 -1.081,-0.735 -1.167,-0.908 0.519,0.26 0.951,0.411 1.297,0.454 0.086,-0.563 0.389,-0.93 0.907,-1.103 0.519,-0.173 0.692,0.087 0.519,0.778 0.389,-0.173 0.691,-0.433 0.907,-0.778 0,0.087 0.065,0.411 0.195,0.973 0.994,-0.778 1.729,-1.167 2.204,-1.167 0,0.258 -0.107,0.755 -0.324,1.491 z"
   style="clip-rule:evenodd;fill:#728501;fill-rule:evenodd" />
		<path
   inkscape:connector-curvature="0"
   id="path130"
   d="m 27.331,14.094 c 0.087,0.259 -0.043,0.713 -0.389,1.361 0.086,-0.043 0.303,-0.107 0.648,-0.194 v 0.519 l 0.519,-0.064 c -0.043,0.388 -0.194,0.497 -0.454,0.324 -0.303,-0.259 -0.54,-0.432 -0.713,-0.518 -0.648,-0.303 -1.297,-0.411 -1.945,-0.324 -0.346,-0.692 -0.367,-1.103 -0.065,-1.232 0.217,-0.086 0.454,0.021 0.714,0.324 0.13,0.173 0.303,0.433 0.519,0.778 0.172,-0.52 0.561,-0.844 1.166,-0.974 z"
   style="clip-rule:evenodd;fill:#728501;fill-rule:evenodd" />
	</g>
	<path
   inkscape:connector-curvature="0"
   id="path134"
   d="m 36.538,9.426 c 0.086,-0.26 0.648,-0.216 1.686,0.13 0.994,0.303 1.275,0.627 0.844,0.973 -0.434,0.346 -0.994,0.324 -1.686,-0.065 -0.649,-0.39 -0.93,-0.735 -0.844,-1.038 z"
   style="clip-rule:evenodd;fill:#fffbe8;fill-rule:evenodd" />
	<path
   inkscape:connector-curvature="0"
   id="path136"
   d="M 3.601,9.686 C 3.903,9.296 4.768,8.972 6.194,8.713 7.145,8.496 8.182,8.691 9.306,9.296 c 0.951,0.519 1.469,0.994 1.556,1.427 0.043,0.26 -0.13,0.346 -0.519,0.26 C 9.824,10.81 9.37,10.659 8.982,10.529 8.42,10.312 7.988,10.162 7.685,10.075 7.166,10.032 6.41,10.139 5.415,10.399 3.384,10.96 2.78,10.723 3.601,9.686 Z"
   style="clip-rule:evenodd;fill:#fffbe8;fill-rule:evenodd" />
	<path
   inkscape:connector-curvature="0"
   id="path138"
   d="m 18.838,9.88 2.075,-0.13 c 0.604,0 1.318,0.216 2.139,0.648 0.951,0.476 1.34,0.886 1.167,1.232 -0.13,0.259 -0.605,0.195 -1.426,-0.195 -1.038,-0.519 -1.708,-0.777 -2.01,-0.777 -0.994,-0.13 -1.513,-0.195 -1.556,-0.195 -0.476,-0.129 -0.606,-0.324 -0.389,-0.583 z"
   style="clip-rule:evenodd;fill:#fffbe8;fill-rule:evenodd" />
	<path
   inkscape:connector-curvature="0"
   id="path140"
   d="m 26.65,7.221 c 1.034,0.832 1.304,1.351 0.811,1.556 -0.389,0.173 -0.757,0 -1.103,-0.519 C 26.085,7.789 26.182,7.443 26.65,7.221 Z"
   style="clip-rule:evenodd;fill:#fffbe8;fill-rule:evenodd" />
	<path
   inkscape:connector-curvature="0"
   id="path142"
   d="M 19.162,9.556 18.87,9.523 c 0.043,0.043 0.075,0.118 0.097,0.227 L 19.55,9.426 c -0.432,0.476 -1.254,0.713 -2.464,0.713 -0.951,0 -1.21,-0.216 -0.778,-0.648 0.043,-0.043 0.476,0.022 1.297,0.195 -0.389,-0.563 -0.562,-1.081 -0.519,-1.557 0.39,0.087 1.082,0.562 2.076,1.427 z"
   style="clip-rule:evenodd;fill:#728501;fill-rule:evenodd" />
	<path
   inkscape:connector-curvature="0"
   id="path144"
   d="m 27.007,11.047 c -0.043,0.389 -0.303,0.864 -0.778,1.426 -1.08,-0.389 -1.858,-0.821 -2.334,-1.296 v -0.648 l 0.065,0.389 c 0,-0.389 0.194,-0.627 0.583,-0.713 0.087,0.303 0.194,0.756 0.324,1.361 0,-0.432 0.216,-0.67 0.648,-0.713 0.043,0.13 0.13,0.346 0.26,0.648 0.216,0 0.626,-0.151 1.232,-0.454 z"
   style="clip-rule:evenodd;fill:#728501;fill-rule:evenodd" />
	<path
   inkscape:connector-curvature="0"
   id="path146"
   d="m 36.149,12.862 c 0.346,-0.173 0.734,-0.303 1.166,-0.389 0,0.346 -0.129,0.67 -0.389,0.973 -0.303,0.346 -0.453,0.627 -0.453,0.843 -0.303,-0.648 -0.887,-0.886 -1.751,-0.713 l 0.13,-0.26 c -0.519,0 -0.713,-0.281 -0.584,-0.843 0.346,0.043 0.67,0.259 0.973,0.648 0.303,-0.216 0.605,-0.541 0.908,-0.973 z"
   style="clip-rule:evenodd;fill:#728501;fill-rule:evenodd" />
	<path
   inkscape:connector-curvature="0"
   id="path148"
   d="m 12.548,10.853 1.232,0.13 0.195,1.102 c 0.216,0.821 0.497,1.383 0.842,1.686 0.605,0.476 2.054,0.843 4.345,1.103 L 15.79,15.65 12.808,14.743 c -0.605,-0.433 -0.584,-0.886 0.064,-1.362 0.649,-0.432 0.541,-1.275 -0.324,-2.528 z"
   style="clip-rule:evenodd;fill:#968563;fill-rule:evenodd" />
	<path
   inkscape:connector-curvature="0"
   id="path150"
   d="m 20.264,13.77 c 0.476,-0.173 0.886,-0.13 1.231,0.13 0.346,0.259 0.281,0.476 -0.194,0.648 -0.475,0.172 -0.864,0.107 -1.167,-0.195 -0.345,-0.259 -0.302,-0.453 0.13,-0.583 z"
   style="clip-rule:evenodd;fill:#968563;fill-rule:evenodd" />
	<path
   inkscape:connector-curvature="0"
   id="path152"
   d="m 28.109,4.369 v 1.103 c 0.13,0.821 0.497,1.361 1.103,1.621 0.994,0.432 2.247,0.173 3.761,-0.778 C 31.979,7.093 31.265,7.568 30.832,7.741 30.573,7.87 30.206,8.173 29.73,8.648 L 29.082,9.362 C 28.952,8.757 28.606,8.151 28.045,7.546 27.655,7.157 27.224,6.898 26.748,6.768 h -0.584 l 1.103,-0.972 c 0.475,-0.39 0.755,-0.866 0.842,-1.427 z"
   style="clip-rule:evenodd;fill:#968563;fill-rule:evenodd" />
	<path
   inkscape:connector-curvature="0"
   id="path154"
   d="m 30.185,17.206 c -0.217,0.216 -0.541,0.411 -0.973,0.584 -0.26,0.086 -0.714,0.129 -1.362,0.129 l -0.907,-0.064 c -0.087,-0.648 -0.627,-1.21 -1.621,-1.686 -0.605,-0.302 -1.643,-0.605 -3.112,-0.908 l -2.01,-0.324 1.491,-0.26 c 1.167,-0.173 2.119,-0.259 2.853,-0.259 0.735,0 1.361,0.173 1.881,0.519 0.302,0.216 0.713,0.519 1.231,0.908 0.648,0.259 1.49,0.713 2.529,1.361 z"
   style="clip-rule:evenodd;fill:#968563;fill-rule:evenodd" />
	<path
   inkscape:connector-curvature="0"
   id="path156"
   d="M 23.376,1.71 C 23.29,1.84 22.728,2.337 21.69,3.202 L 21.431,2.748 21.69,2.554 C 21.344,2.64 20.999,2.295 20.653,1.516 c -0.302,-0.821 -0.302,-1.383 0,-1.686 0.303,-0.303 0.627,-0.151 0.973,0.454 0.255,0.51 0.385,0.954 0.389,1.329 0.008,-0.417 0.289,-0.86 0.843,-1.329 0.562,-0.433 1.08,-0.627 1.556,-0.584 -0.044,0.649 -0.39,1.319 -1.038,2.01 z"
   style="clip-rule:evenodd;fill:#91c401;fill-rule:evenodd" />
	<path
   inkscape:connector-curvature="0"
   id="path158"
   d="M 20.458,2.748 C 20.397,2.687 20.332,2.633 20.264,2.586 20.28,2.478 20.345,2.424 20.458,2.424 Z m 0.455,0.065 c 0.173,-0.043 0.41,-0.13 0.713,-0.259 -0.173,0.389 -0.13,0.843 0.13,1.361 C 21.41,3.742 21.172,3.569 21.043,3.396 20.222,4.044 19.487,4.282 18.839,4.109 18.925,3.85 19.271,3.59 19.876,3.331 18.925,3.245 18.255,3.136 17.866,3.007 17.218,2.791 16.72,2.337 16.375,1.646 c 1.761,-0.08 3.058,0.233 3.89,0.94 v 0.032 c 0.172,0.173 0.388,0.237 0.648,0.195 z"
   style="clip-rule:evenodd;fill:#91c401;fill-rule:evenodd" />
	<path
   inkscape:connector-curvature="0"
   id="path160"
   d="M 5.027,8.064 C 5.113,8.15 5.395,7.783 5.87,6.962 6.216,7.48 6.237,8.021 5.935,8.583 5.589,9.188 5.222,9.08 4.833,8.259 L 4.638,8.647 C 4.335,8.647 3.925,8.453 3.406,8.064 2.801,7.632 2.585,7.286 2.758,7.027 2.931,6.768 3.341,6.854 3.99,7.286 4.595,7.632 4.94,7.892 5.027,8.064 Z"
   style="clip-rule:evenodd;fill:#91c401;fill-rule:evenodd" />
	<path
   inkscape:connector-curvature="0"
   id="path162"
   d="m 37.058,4.563 c 0.043,0.346 -0.152,0.93 -0.584,1.751 l 0.518,-0.13 C 36.82,6.573 36.41,6.703 35.762,6.573 35.157,6.444 34.811,6.53 34.724,6.833 V 6.638 C 34.205,6.421 33.989,6.033 34.076,5.471 c 0.173,0.043 0.411,0.151 0.714,0.324 0.259,0.173 0.475,0.259 0.648,0.259 0.084,-0.821 0.625,-1.318 1.62,-1.491 z"
   style="clip-rule:evenodd;fill:#91c401;fill-rule:evenodd" />
</g></g>
</svg>