<?xml version="1.0" encoding="UTF-8" standalone="no"?>
<!-- Generator: Adobe Illustrator 15.1.0, SVG Export Plug-In . SVG Version: 6.00 Build 0)  -->

<svg
   xmlns:dc="http://purl.org/dc/elements/1.1/"
   xmlns:cc="http://creativecommons.org/ns#"
   xmlns:rdf="http://www.w3.org/1999/02/22-rdf-syntax-ns#"
   xmlns:svg="http://www.w3.org/2000/svg"
   xmlns="http://www.w3.org/2000/svg"
   xmlns:sodipodi="http://sodipodi.sourceforge.net/DTD/sodipodi-0.dtd"
   xmlns:inkscape="http://www.inkscape.org/namespaces/inkscape"
   version="1.1"
   id="flash0.ai"
   x="0px"
   y="0px"
   width="256"
   height="256"
   viewBox="0 0 256 255.99999"
   xml:space="preserve"
   sodipodi:docname="slaw.svg"
   inkscape:version="0.92.4 (5da689c313, 2019-01-14)"><title
   id="title1034">Slaw</title><metadata
   id="metadata227"><rdf:RDF><cc:Work
       rdf:about=""><dc:format>image/svg+xml</dc:format><dc:type
         rdf:resource="http://purl.org/dc/dcmitype/StillImage" /><dc:title>Slaw</dc:title><cc:license
         rdf:resource="http://creativecommons.org/publicdomain/zero/1.0/" /><dc:creator><cc:Agent><dc:title>Glitch</dc:title></cc:Agent></dc:creator><dc:source>https://opengameart.org/node/20149</dc:source></cc:Work><cc:License
       rdf:about="http://creativecommons.org/publicdomain/zero/1.0/"><cc:permits
         rdf:resource="http://creativecommons.org/ns#Reproduction" /><cc:permits
         rdf:resource="http://creativecommons.org/ns#Distribution" /><cc:permits
         rdf:resource="http://creativecommons.org/ns#DerivativeWorks" /></cc:License></rdf:RDF></metadata><defs
   id="defs225" /><sodipodi:namedview
   pagecolor="#ffffff"
   bordercolor="#666666"
   borderopacity="1"
   objecttolerance="10"
   gridtolerance="10"
   guidetolerance="10"
   inkscape:pageopacity="0"
   inkscape:pageshadow="2"
   inkscape:window-width="1920"
   inkscape:window-height="1025"
   id="namedview223"
   showgrid="false"
   inkscape:zoom="0.79581152"
   inkscape:cx="94.897866"
   inkscape:cy="95.482033"
   inkscape:window-x="-8"
   inkscape:window-y="-8"
   inkscape:window-maximized="1"
   inkscape:current-layer="flash0.ai"
   fit-margin-top="0"
   fit-margin-left="0"
   fit-margin-right="0"
   fit-margin-bottom="0" />

<linearGradient
   id="SVGID_1_"
   gradientUnits="userSpaceOnUse"
   x1="1.3501"
   y1="25.1504"
   x2="32.599602"
   y2="25.1504">
	<stop
   offset="0"
   style="stop-color:#D9D9D9"
   id="stop4" />
	<stop
   offset="0.3216"
   style="stop-color:#EDEDED"
   id="stop6" />
	<stop
   offset="1"
   style="stop-color:#B0B0B0"
   id="stop8" />
</linearGradient>




<radialGradient
   id="SVGID_2_"
   cx="9.9984999"
   cy="-11.8667"
   r="17.2463"
   gradientTransform="matrix(0.309,0.9511,0.9511,-0.309,22.5715,-7.3343)"
   gradientUnits="userSpaceOnUse">
	<stop
   offset="0"
   style="stop-color:#F6FCCC"
   id="stop19" />
	<stop
   offset="1"
   style="stop-color:#87BB44"
   id="stop21" />
</radialGradient>

<radialGradient
   id="SVGID_3_"
   cx="10.855"
   cy="-11.5571"
   r="16.861099"
   gradientTransform="matrix(0.3091,0.951,0.951,-0.3091,21.9819,-7.1447)"
   gradientUnits="userSpaceOnUse">
	<stop
   offset="0"
   style="stop-color:#D3DB97"
   id="stop26" />
	<stop
   offset="1"
   style="stop-color:#75B327"
   id="stop28" />
</radialGradient>

<radialGradient
   id="SVGID_4_"
   cx="10.8076"
   cy="-19.2012"
   r="7.0837002"
   gradientTransform="matrix(0.3088,0.9511,0.9511,-0.3088,36.5253,-11.859)"
   gradientUnits="userSpaceOnUse">
	<stop
   offset="0"
   style="stop-color:#BEDB7F"
   id="stop33" />
	<stop
   offset="1"
   style="stop-color:#96CF4F"
   id="stop35" />
</radialGradient>

<radialGradient
   id="SVGID_5_"
   cx="9.4580002"
   cy="-3.7114"
   r="5.5064998"
   gradientTransform="matrix(0.3087,0.9512,0.9512,-0.3087,7.0607,-2.2918)"
   gradientUnits="userSpaceOnUse">
	<stop
   offset="0"
   style="stop-color:#83AB4F"
   id="stop40" />
	<stop
   offset="1"
   style="stop-color:#739C40"
   id="stop42" />
</radialGradient>

<linearGradient
   id="SVGID_6_"
   gradientUnits="userSpaceOnUse"
   x1="13.2607"
   y1="-19.2495"
   x2="15.7105"
   y2="-19.2495"
   gradientTransform="matrix(0.4184,0.9083,-0.9083,0.4184,-3.951192e-4,6.127357e-5)">
	<stop
   offset="0"
   style="stop-color:#FFE000"
   id="stop47" />
	<stop
   offset="1"
   style="stop-color:#FFF7B5"
   id="stop49" />
</linearGradient>

<radialGradient
   id="SVGID_7_"
   cx="8.8877001"
   cy="-9.5747004"
   r="10.7363"
   gradientTransform="matrix(0.3085,0.9512,0.9512,-0.3085,18.2156,-5.9088)"
   gradientUnits="userSpaceOnUse">
	<stop
   offset="0"
   style="stop-color:#83AB4F"
   id="stop54" />
	<stop
   offset="1"
   style="stop-color:#739C40"
   id="stop56" />
</radialGradient>

<radialGradient
   id="SVGID_8_"
   cx="12.4883"
   cy="-10.1416"
   r="15.638"
   gradientTransform="matrix(0.3085,0.9512,0.9512,-0.3085,19.2935,-6.2585)"
   gradientUnits="userSpaceOnUse">
	<stop
   offset="0"
   style="stop-color:#AFD67C"
   id="stop61" />
	<stop
   offset="1"
   style="stop-color:#709C39"
   id="stop63" />
</radialGradient>

<radialGradient
   id="SVGID_9_"
   cx="10.7891"
   cy="-15.894"
   r="9.8704996"
   gradientTransform="matrix(0.309,0.9511,0.9511,-0.309,30.2326,-9.8227)"
   gradientUnits="userSpaceOnUse">
	<stop
   offset="0"
   style="stop-color:#83AB4F"
   id="stop68" />
	<stop
   offset="1"
   style="stop-color:#739C40"
   id="stop70" />
</radialGradient>

<radialGradient
   id="SVGID_10_"
   cx="16.0166"
   cy="-19.091801"
   r="6.6489"
   gradientTransform="matrix(0.3083,0.9513,0.9513,-0.3083,36.3238,-11.7734)"
   gradientUnits="userSpaceOnUse">
	<stop
   offset="0"
   style="stop-color:#86B548"
   id="stop75" />
	<stop
   offset="1"
   style="stop-color:#5B802D"
   id="stop77" />
</radialGradient>

<linearGradient
   id="SVGID_11_"
   gradientUnits="userSpaceOnUse"
   x1="15.8359"
   y1="-7.2656002"
   x2="18.3974"
   y2="-7.2656002"
   gradientTransform="matrix(0.4197,0.9077,-0.9077,0.4197,2.456009e-4,-2.558827e-4)">
	<stop
   offset="0"
   style="stop-color:#FFE000"
   id="stop82" />
	<stop
   offset="1"
   style="stop-color:#FFF7B5"
   id="stop84" />
</linearGradient>

<radialGradient
   id="SVGID_12_"
   cx="17.4526"
   cy="-24.200701"
   r="5.0321999"
   gradientTransform="matrix(0.308,0.9514,0.9514,-0.308,46.0482,-14.9081)"
   gradientUnits="userSpaceOnUse">
	<stop
   offset="0"
   style="stop-color:#83AB4F"
   id="stop89" />
	<stop
   offset="1"
   style="stop-color:#739C40"
   id="stop91" />
</radialGradient>

<radialGradient
   id="SVGID_13_"
   cx="12.7915"
   cy="-23.080099"
   r="2.8778"
   gradientTransform="matrix(0.3084,0.9513,0.9513,-0.3084,43.9104,-14.2354)"
   gradientUnits="userSpaceOnUse">
	<stop
   offset="0"
   style="stop-color:#83AB4F"
   id="stop96" />
	<stop
   offset="1"
   style="stop-color:#739C40"
   id="stop98" />
</radialGradient>

<linearGradient
   id="SVGID_14_"
   gradientUnits="userSpaceOnUse"
   x1="12.1606"
   y1="-2.2441001"
   x2="14.6164"
   y2="-2.2441001"
   gradientTransform="matrix(0.8144,0.5803,-0.5803,0.8144,-1.106858e-4,-3.379583e-5)">
	<stop
   offset="0"
   style="stop-color:#FFE000"
   id="stop103" />
	<stop
   offset="1"
   style="stop-color:#FFF7B5"
   id="stop105" />
</linearGradient>

<radialGradient
   id="SVGID_15_"
   cx="11.687"
   cy="-11.4004"
   r="8.7518997"
   gradientTransform="matrix(0.3085,0.9512,0.9512,-0.3085,21.6889,-7.0347)"
   gradientUnits="userSpaceOnUse">
	<stop
   offset="0"
   style="stop-color:#83AB4F"
   id="stop110" />
	<stop
   offset="1"
   style="stop-color:#608C2B"
   id="stop112" />
</radialGradient>

<radialGradient
   id="SVGID_16_"
   cx="13.9175"
   cy="-5.7837"
   r="6.1508002"
   gradientTransform="matrix(0.3089,0.9511,0.9511,-0.3089,11.0017,-3.5735)"
   gradientUnits="userSpaceOnUse">
	<stop
   offset="0"
   style="stop-color:#83AB4F"
   id="stop117" />
	<stop
   offset="1"
   style="stop-color:#668A38"
   id="stop119" />
</radialGradient>


<radialGradient
   id="SVGID_17_"
   cx="13.7393"
   cy="-2.6719"
   r="6.6416998"
   gradientTransform="matrix(0.4084,0.9128,0.9128,-0.4084,4.8782,-2.1829)"
   gradientUnits="userSpaceOnUse">
	<stop
   offset="0"
   style="stop-color:#95C755"
   id="stop126" />
	<stop
   offset="1"
   style="stop-color:#6E963E"
   id="stop128" />
</radialGradient>

<radialGradient
   id="SVGID_18_"
   cx="-0.75830001"
   cy="-27.1196"
   r="8.6844997"
   gradientTransform="matrix(-0.3123,0.95,0.95,0.3123,51.5255,16.9413)"
   gradientUnits="userSpaceOnUse">
	<stop
   offset="0"
   style="stop-color:#537525"
   id="stop133" />
	<stop
   offset="1"
   style="stop-color:#547828"
   id="stop135" />
</radialGradient>















<radialGradient
   id="SVGID_19_"
   cx="-26.5825"
   cy="21.255899"
   r="4.5454998"
   gradientTransform="matrix(-0.4317,-0.902,-0.902,0.4317,38.3455,-18.3534)"
   gradientUnits="userSpaceOnUse">
	<stop
   offset="0"
   style="stop-color:#639C35"
   id="stop168" />
	<stop
   offset="0.3098"
   style="stop-color:#79BD40"
   id="stop170" />
	<stop
   offset="1"
   style="stop-color:#699632"
   id="stop172" />
</radialGradient>



<radialGradient
   id="SVGID_20_"
   cx="-18.5786"
   cy="-8.9453001"
   r="4.5384002"
   gradientTransform="matrix(-0.9337,0.3581,0.3581,0.9337,6.4063,16.7043)"
   gradientUnits="userSpaceOnUse">
	<stop
   offset="0"
   style="stop-color:#639C35"
   id="stop181" />
	<stop
   offset="0.3098"
   style="stop-color:#79BD40"
   id="stop183" />
	<stop
   offset="1"
   style="stop-color:#699632"
   id="stop185" />
</radialGradient>



<radialGradient
   id="SVGID_21_"
   cx="0.59810001"
   cy="-10.7139"
   r="5.2665"
   gradientTransform="matrix(-0.5459,0.8378,0.8378,0.5459,17.953,11.6977)"
   gradientUnits="userSpaceOnUse">
	<stop
   offset="0"
   style="stop-color:#639C35"
   id="stop194" />
	<stop
   offset="0.3098"
   style="stop-color:#79BD40"
   id="stop196" />
	<stop
   offset="1"
   style="stop-color:#699632"
   id="stop198" />
</radialGradient>





<linearGradient
   id="SVGID_22_"
   gradientUnits="userSpaceOnUse"
   x1="0"
   y1="18.0254"
   x2="33.799801"
   y2="18.0254">
	<stop
   offset="0"
   style="stop-color:#D9D9D9"
   id="stop211" />
	<stop
   offset="0.3216"
   style="stop-color:#FFFFFF"
   id="stop213" />
	<stop
   offset="1"
   style="stop-color:#BDBDBD"
   id="stop215" />
</linearGradient>

<g
   id="g983"
   transform="matrix(7.3841488,0,0,7.3841488,3.2078853,0.13185987)"><path
     id="path2"
     d="m 33.55,12.95 -0.6,4.6 c -1.533,0.5 -3.517,0.95 -5.95,1.351 -4.8,0.767 -9.333,0.85 -13.6,0.25 C 9.167,18.584 5.834,17.967 3.4,17.3 2.2,16.967 1.417,16.683 1.05,16.45 v -4.6 c 0.633,-0.6 1.733,-1.217 3.3,-1.85 3.167,-1.233 7.066,-1.85 11.7,-1.85 6.767,0 11.717,0.8 14.851,2.4 1.566,0.8 2.449,1.6 2.649,2.4 z"
     style="clip-rule:evenodd;fill:#a3a3a3;fill-rule:evenodd"
     inkscape:connector-curvature="0" /><path
     id="path11"
     d="m 1.35,15.65 15.6,1.5 15.649,-1.5 -3.8,15.1 h -0.05 c -0.134,0.934 -1.333,1.8 -3.6,2.6 -2.434,0.867 -5.167,1.301 -8.2,1.301 -3.133,0 -5.934,-0.434 -8.4,-1.301 -2.333,-0.866 -3.5,-1.767 -3.5,-2.699 V 30.6 Z"
     style="clip-rule:evenodd;fill:url(#SVGID_1_);fill-rule:evenodd"
     inkscape:connector-curvature="0" /><path
     id="path13"
     d="m 31,21.8 c -0.134,0.267 -0.583,0.533 -1.35,0.8 -1.567,0.601 -3.917,1 -7.05,1.2 -5.733,0.367 -10.783,0.033 -15.15,-1 C 5.283,22.3 3.683,21.75 2.65,21.151 L 2.45,20.6 2,18.2 2.15,14.95 31.3,19.85 Z"
     style="clip-rule:evenodd;fill:#8a8a8a;fill-rule:evenodd"
     inkscape:connector-curvature="0" /><path
     id="path15"
     d="M 32.3,12.35 C 32.267,11.25 30.75,10.317 27.75,9.55 24.783,8.783 21.217,8.4 17.05,8.4 12.883,8.4 9.317,8.783 6.35,9.55 3.383,10.317 1.867,11.25 1.8,12.35 H 0.05 C 0.484,11.15 2.3,10.133 5.5,9.3 8.733,8.467 12.533,8.05 16.9,8.05 c 4.367,0 8.167,0.417 11.4,1.25 3.2,0.833 5.017,1.85 5.45,3.05 H 32.3 Z"
     style="clip-rule:evenodd;fill:#ffffff;fill-rule:evenodd"
     inkscape:connector-curvature="0" /><path
     id="path17"
     d="m 16.25,4.85 c 0.167,0.9 -0.2,1.767 -1.1,2.6 1.467,-1.2 1.934,-1.284 1.4,-0.25 -0.267,0.533 -0.566,1.117 -0.9,1.75 C 15.35,9.383 14.8,9.667 14,9.8 12.533,8.567 11.8,7.683 11.8,7.15 c 0,-0.333 0.35,-0.45 1.05,-0.35 0.333,0.067 0.667,0.15 1,0.25 C 13.383,6.783 12.933,6.484 12.5,6.15 11.633,5.483 11.317,5.017 11.55,4.75 11.95,4.317 12.484,4.333 13.15,4.8 12.817,4.533 12.5,4.234 12.2,3.9 11.633,3.267 11.467,2.817 11.7,2.55 12.1,2.15 12.65,2.283 13.35,2.95 13.117,2.583 12.883,2.183 12.65,1.75 12.217,0.917 12.1,0.417 12.3,0.25 c 0.534,-0.5 0.983,-0.3 1.35,0.6 0.167,0.467 0.283,0.967 0.35,1.5 L 14.4,1.4 c 0.333,-0.566 0.6,-0.717 0.8,-0.45 0.333,0.433 0.133,1.267 -0.6,2.5 0.9,-1.1 1.4,-1.367 1.5,-0.8 0.08,0.482 -0.136,1.124 -0.65,1.925 0.431,-0.51 0.697,-0.418 0.8,0.275 z"
     style="clip-rule:evenodd;fill:#547526;fill-rule:evenodd"
     inkscape:connector-curvature="0" /><path
     id="path24"
     d="m 24.15,4.3 c 0.4,0.2 0.95,0.45 1.65,0.75 1.134,0.633 1.75,1.067 1.851,1.3 0.066,0.133 0.149,0.6 0.25,1.4 0.166,0.767 0.399,1.2 0.699,1.3 0.4,0.167 0.65,0.3 0.75,0.4 0.134,0.133 0.317,0.417 0.551,0.85 0.066,0.167 0.183,0.567 0.35,1.2 0.1,0.367 0.25,0.6 0.45,0.7 0.267,0.167 0.517,0.433 0.75,0.8 0.267,0.367 0.399,0.717 0.399,1.05 0,0.633 -1.483,1.684 -4.449,3.15 -3.5,1.666 -6.917,2.399 -10.25,2.2 C 7.917,18.733 3,17.183 2.4,14.75 2.267,14.35 2.267,13.883 2.4,13.35 2.567,12.817 2.683,12.4 2.75,12.1 2.817,11.8 3.067,11.517 3.5,11.25 3.9,11.017 4.083,10.8 4.05,10.6 3.917,10 4.183,9.4 4.85,8.8 c 0.233,-0.267 0.6,-0.6 1.1,-1 0.566,-0.466 1,-0.75 1.3,-0.85 0.2,-0.1 0.6,-0.167 1.2,-0.2 0.633,-0.033 1.183,-0.133 1.65,-0.3 0.5,-0.133 0.917,-0.35 1.25,-0.65 0.433,-0.333 0.767,-0.55 1,-0.65 0.3,-0.167 0.683,-0.25 1.15,-0.25 0.467,0 0.833,-0.083 1.1,-0.25 0.2,-0.133 0.383,-0.367 0.55,-0.7 0.133,-0.233 0.417,-0.383 0.85,-0.45 0.533,-0.1 1.35,-0.383 2.45,-0.85 0.633,-0.3 1.3,-0.417 2,-0.35 0.8,0.067 1.466,0.35 2,0.85 0.467,0.433 1.033,0.817 1.7,1.15 z"
     style="clip-rule:evenodd;fill:url(#SVGID_2_);fill-rule:evenodd"
     inkscape:connector-curvature="0" /><path
     id="path31"
     d="m 27.65,11.1 c 0.199,-0.267 0.383,-0.633 0.55,-1.1 0.1,-0.333 0.217,-0.5 0.35,-0.5 0.066,0.033 0.217,0.05 0.45,0.05 0.1,0 0.134,0.05 0.1,0.15 -0.033,0.1 -0.149,0.333 -0.35,0.7 -0.167,0.333 -0.233,0.55 -0.2,0.65 0.066,0.367 0.25,0.567 0.55,0.6 0.134,0.033 0.351,0 0.65,-0.1 0.167,-0.033 0.05,0.117 -0.35,0.45 -0.834,0.733 -0.917,1.167 -0.25,1.3 0.199,0.067 0.316,0 0.35,-0.2 0.066,-0.233 0.134,-0.367 0.2,-0.4 0.133,-0.034 0.25,-0.083 0.35,-0.15 0.066,0 0.15,0.083 0.25,0.25 l 0.3,0.8 c 0.034,0.066 0.067,0.033 0.101,-0.1 l 0.1,0.5 c 0.101,0.367 0.417,0.717 0.95,1.05 0.233,0.367 -0.217,0.95 -1.35,1.75 -1.267,0.9 -5.117,1.667 -11.55,2.3 -6.167,0.634 -9.9,0.75 -11.2,0.351 -1,-0.3 -2.083,-0.851 -3.25,-1.65 -1.066,-0.733 -1.617,-1.216 -1.65,-1.45 -0.1,-0.467 -0.183,-0.9 -0.25,-1.3 -0.133,-0.733 -0.167,-1.267 -0.1,-1.6 l 0.1,-0.85 0.75,-0.45 0.1,0.65 c 0.367,0.467 0.717,0.7 1.05,0.7 0.2,0 0.45,-0.2 0.75,-0.6 0.367,-0.467 0.617,-0.75 0.75,-0.85 0.2,-0.133 0.15,-0.233 -0.15,-0.3 -0.467,-0.167 -0.767,-0.333 -0.9,-0.5 -0.267,-0.3 -0.434,-0.517 -0.5,-0.65 -0.133,-0.2 -0.117,-0.434 0.05,-0.7 L 5.751,8.251 6,9.3 c 0.1,0.2 0.2,0.483 0.3,0.85 0.133,0.3 0.383,0.467 0.75,0.5 C 7.484,10.683 7.867,10.633 8.2,10.5 8.5,10.4 8.633,10.3 8.6,10.2 8.133,9.667 7.867,9.267 7.8,9 7.767,8.867 7.833,8.617 8,8.25 L 8.2,7.8 8.75,8.5 C 8.75,8.633 8.833,8.733 9,8.8 9.167,8.834 9.267,8.783 9.3,8.65 9.334,8.617 9.35,8.45 9.35,8.15 9.35,7.983 9.4,7.917 9.5,7.95 l 0.6,0.35 c 0.066,0.067 0.25,0.317 0.55,0.75 0.367,0.367 0.7,0.45 1,0.25 C 11.983,9.067 12.167,8.917 12.2,8.85 12.2,8.783 12.067,8.533 11.8,8.1 11.567,7.767 11.417,7.55 11.35,7.45 11.283,7.35 11.267,7.133 11.3,6.8 11.334,6.433 11.5,6.067 11.8,5.7 11.933,5.5 12.067,5.333 12.2,5.2 l -0.1,0.45 c -0.033,0.3 -0.017,0.55 0.05,0.75 0,0.033 0.05,0.217 0.15,0.55 0,0.1 0.133,0.117 0.4,0.05 C 13.133,6.933 13.367,6.9 13.4,6.9 13.533,6.834 13.6,6.7 13.6,6.5 13.533,6.267 13.483,6.117 13.45,6.05 13.416,5.95 13.483,5.834 13.65,5.7 13.817,5.6 13.933,5.483 14,5.35 c 0.067,-0.1 0.15,-0.167 0.25,-0.2 0.133,-0.033 0.317,-0.1 0.55,-0.2 0.167,-0.1 0.267,-0.25 0.3,-0.45 l 0.1,-0.55 0.25,0.15 c 0.167,0.1 0.267,0.217 0.3,0.35 0.033,0.066 0.1,0.15 0.2,0.25 0.033,0.033 0,0.15 -0.1,0.35 -0.167,0.4 -0.25,0.617 -0.25,0.65 -0.133,0.167 -0.317,0.216 -0.55,0.15 -0.233,-0.033 -0.433,0 -0.6,0.1 -0.167,0.066 -0.267,0.167 -0.3,0.3 l 0.1,0.65 C 14.117,7.067 14.017,7.217 13.95,7.35 13.783,7.617 13.8,7.733 14,7.7 c 0.167,-0.034 0.267,-0.2 0.3,-0.5 0.034,-0.3 0.117,-0.5 0.25,-0.6 0.167,-0.1 0.434,-0.25 0.8,-0.45 0.3,-0.2 0.5,-0.45 0.6,-0.75 0.2,-0.5 0.4,-1.066 0.6,-1.7 L 17.4,3.3 c -0.2,0.333 -0.35,0.733 -0.45,1.2 -0.067,0.433 -0.233,0.85 -0.5,1.25 0,0.1 0.083,0.15 0.25,0.15 0.2,0 0.333,-0.066 0.4,-0.2 C 17.5,5.233 17.65,5.1 17.55,5.3 17.483,5.533 17.3,5.833 17,6.2 16.9,6.4 16.667,6.617 16.3,6.85 15.9,7.05 15.617,7.2 15.45,7.3 15.183,7.467 15.033,7.667 15,7.9 c 0,0.1 0.117,0.6 0.35,1.5 0.033,0.167 0.017,0.35 -0.05,0.55 -0.033,0.133 -0.017,0.216 0.05,0.25 0.367,0.133 0.75,0.033 1.15,-0.3 C 16.633,9.8 16.833,9.733 17.1,9.7 17.233,9.666 17.267,9.583 17.2,9.45 17.133,9.317 16.967,9.083 16.7,8.75 16.433,8.45 16.283,8.267 16.25,8.2 l 0.05,-0.6 0.35,0.05 c 0.233,0.033 0.367,0.133 0.4,0.3 0.1,0.267 0.317,0.683 0.65,1.25 0.066,0.167 0.316,0.367 0.75,0.6 0.5,0.233 0.716,0.417 0.65,0.55 -0.133,-0.067 -0.55,-0.017 -1.25,0.15 -1.267,0.3 -1.934,0.467 -2,0.5 l -0.15,0.2 c -0.034,0.033 -0.2,0.066 -0.5,0.1 -0.434,-0.066 -0.733,-0.083 -0.9,-0.05 -0.267,0.033 -0.517,0.233 -0.75,0.6 -0.167,0.3 -0.45,0.617 -0.85,0.95 -0.2,0.233 -0.15,0.417 0.15,0.55 0.267,0.133 0.583,0.316 0.95,0.55 0.3,0.1 0.467,0.017 0.5,-0.25 0.034,-0.2 0,-0.467 -0.1,-0.8 -0.067,-0.267 -0.067,-0.434 0,-0.5 0.1,-0.133 0.167,-0.2 0.2,-0.2 0.067,0 0.184,0.083 0.35,0.25 0.067,0.067 0.35,0.117 0.85,0.15 0.333,0.034 0.4,0.267 0.2,0.7 -0.2,0.433 -0.466,0.817 -0.8,1.15 -0.333,0.3 -0.517,0.5 -0.55,0.6 -0.133,0.367 -0.2,0.583 -0.2,0.65 0,0.233 0.133,0.333 0.4,0.3 0.2,0 0.417,0.05 0.65,0.15 0.2,0 0.367,-0.167 0.5,-0.5 0.1,-0.267 0.2,-0.684 0.3,-1.25 0.1,-0.533 0.217,-0.9 0.35,-1.1 0.133,-0.2 0.267,-0.4 0.4,-0.6 0.066,-0.133 0.233,-0.217 0.5,-0.25 0.433,-0.066 0.767,-0.033 1,0.1 0.967,0.733 1.45,1.133 1.45,1.2 0,0.1 -0.133,0.25 -0.4,0.45 -0.367,-0.367 -0.75,-0.533 -1.15,-0.5 -0.5,0.033 -0.8,0.067 -0.9,0.1 -0.267,0.1 -0.467,0.317 -0.6,0.65 -0.1,0.267 -0.25,0.6 -0.45,1 -0.133,0.267 -0.05,0.417 0.25,0.45 0.469,0.063 0.819,0.096 1.05,0.1 0.005,-0.047 0.089,-0.197 0.25,-0.45 0.233,-0.333 0.483,-0.55 0.75,-0.65 0.667,-0.267 1.05,-0.367 1.15,-0.3 0.267,0.067 0.083,0.333 -0.55,0.8 -0.034,0.033 -0.217,0.133 -0.55,0.3 -0.133,0.067 -0.167,0.2 -0.1,0.4 0.067,0.267 0.217,0.45 0.45,0.55 0.233,0.133 0.433,0.117 0.6,-0.05 0.233,-0.233 0.533,-0.583 0.9,-1.05 0.167,-0.133 0.567,-0.35 1.2,-0.65 0.533,-0.267 0.95,-0.583 1.25,-0.95 0.733,-0.867 1.133,-1.316 1.2,-1.35 0.399,-0.4 0.833,-0.583 1.3,-0.55 0.366,0.033 0.666,0.2 0.899,0.5 0.167,0.233 0.367,0.25 0.601,0.05 0.233,-0.167 0.35,-0.383 0.35,-0.65 0.033,-0.3 0.15,-0.567 0.35,-0.8 z"
     style="clip-rule:evenodd;fill:url(#SVGID_3_);fill-rule:evenodd"
     inkscape:connector-curvature="0" /><path
     id="path38"
     d="m 22.7,3.8 c 0.133,0.067 0.2,0.067 0.2,0 l 0.2,-0.1 0.65,0.45 0.8,0.35 C 24.283,4.533 24.1,4.617 24,4.75 c -0.233,0.333 -0.417,0.567 -0.55,0.7 -0.633,0.433 -0.967,0.7 -1,0.8 0,0.133 0.066,0.317 0.2,0.55 0.133,0.3 0.283,0.417 0.45,0.35 l 0.601,-0.4 c 0.166,-0.167 0.383,-0.2 0.649,-0.1 l 0.351,0.1 c -0.066,0 -0.134,0.017 -0.2,0.05 -0.134,0.067 -0.184,0.217 -0.15,0.45 0,0.167 -0.017,0.35 -0.05,0.55 0,0.1 0.134,0.167 0.4,0.2 0.633,0.033 0.967,0.05 1,0.05 0.066,0 0.133,-0.083 0.2,-0.25 0.033,-0.1 0.183,-0.117 0.449,-0.05 0.233,0.067 0.45,0.133 0.65,0.2 0.1,0.033 0.167,0.1 0.2,0.2 0.033,0.067 0.133,0.133 0.3,0.2 0.134,0.1 0.217,0.2 0.25,0.3 0.033,0.133 0.066,0.317 0.1,0.55 0.034,0.167 -0.017,0.267 -0.149,0.3 C 27.567,9.533 27.201,9.433 26.6,9.2 25.934,8.933 25.583,8.8 25.55,8.8 25.283,8.933 24.934,9.05 24.5,9.15 23.467,9.45 22.817,9.7 22.55,9.9 21.717,10.533 21.234,10.883 21.1,10.95 20.933,11.016 20.65,11 20.25,10.9 19.783,10.8 19.483,10.683 19.35,10.55 19.283,10.484 19.067,10.15 18.7,9.55 18.4,9.017 18.183,8.734 18.05,8.7 17.584,8.333 17.35,8.05 17.35,7.85 17.317,7.65 17.4,7.317 17.6,6.85 17.666,6.617 17.733,6.433 17.8,6.3 17.9,6.067 18.05,5.883 18.25,5.75 L 19.9,5 c 0.6,-0.2 0.917,-0.483 0.95,-0.85 l 0.05,-1.6 0.4,0.55 c 0.167,0.4 0.25,0.85 0.25,1.35 0,0.566 -0.1,0.933 -0.3,1.1 -0.233,0.133 -0.383,0.217 -0.45,0.25 -0.133,0.067 -0.133,0.133 0,0.2 0.133,0.1 0.333,0.133 0.6,0.1 C 21.667,6.067 21.867,5.983 22,5.85 22.133,5.717 22.233,5.433 22.3,5 22.367,4.6 22.383,4.333 22.35,4.2 22.35,4.166 22.3,4.033 22.2,3.8 22.133,3.633 22.15,3.567 22.25,3.6 c 0.033,0 0.183,0.067 0.45,0.2 z"
     style="clip-rule:evenodd;fill:url(#SVGID_4_);fill-rule:evenodd"
     inkscape:connector-curvature="0" /><path
     id="path45"
     d="M 4.65,8.95 C 5.117,8.183 5.633,7.6 6.2,7.2 6.567,6.933 6.85,6.783 7.05,6.75 7.217,6.717 7.6,6.683 8.2,6.65 9,6.583 9.683,6.467 10.25,6.3 10.15,6.4 10.067,6.517 10,6.65 9.867,6.85 9.867,6.95 10,6.95 9.59,6.967 9.007,7.067 8.25,7.25 7.25,7.517 6.6,7.817 6.3,8.15 6.167,8.25 6.017,8.4 5.85,8.6 5.517,8.967 5.233,9.35 5,9.75 4.4,10.783 4.25,11.4 4.55,11.6 4.75,11.7 5.2,11.85 5.9,12.05 6.5,12.483 7.067,12.8 7.6,13 L 7.15,13.8 C 6.05,13.467 5.35,13.183 5.05,12.95 4.283,12.317 3.867,11.6 3.8,10.8 3.767,10.433 3.8,10.15 3.9,9.95 3.933,9.883 4.183,9.55 4.65,8.95 Z"
     style="clip-rule:evenodd;fill:url(#SVGID_5_);fill-rule:evenodd"
     inkscape:connector-curvature="0" /><path
     id="path52"
     d="m 25.4,4.8 c 0.199,0.333 0.216,0.7 0.05,1.1 -0.066,0.167 -0.184,0.3 -0.351,0.4 -0.166,0.067 -0.5,0.15 -1,0.25 -0.466,0.1 -0.816,0.117 -1.05,0.05 L 22.8,6.45 C 22.3,6.183 21.933,5.833 21.7,5.4 21.333,4.867 21.3,4.4 21.6,4 c 0.167,-0.233 0.5,-0.433 1,-0.6 0.633,-0.133 1.167,-0.083 1.6,0.15 0.666,0.333 1.067,0.75 1.2,1.25 z"
     style="clip-rule:evenodd;fill:url(#SVGID_6_);fill-rule:evenodd"
     inkscape:connector-curvature="0" /><path
     id="path59"
     d="M 17.5,2.775 C 17.307,2.935 17.14,3.127 17,3.35 16.833,3.65 16.7,3.967 16.6,4.3 16.467,4.734 16.367,5.033 16.3,5.2 16.2,5.5 16.084,5.7 15.95,5.8 15.717,6.033 15.45,6.283 15.15,6.55 14.817,6.85 14.383,7.167 13.85,7.5 13.35,7.8 13.033,8.017 12.9,8.15 12.667,8.517 12.483,8.783 12.35,8.95 12.117,9.25 11.833,9.5 11.5,9.7 10.933,10 9.9,10.367 8.4,10.8 l 0.15,0.55 c 0.1,0.4 0.25,0.7 0.45,0.9 0.1,0.133 0.433,0.35 1,0.65 0.567,0.3 0.983,0.617 1.25,0.95 0.3,0.4 0.5,0.816 0.6,1.25 0.033,0.133 0.083,0.6 0.15,1.4 0.067,0.7 -0.283,1.083 -1.05,1.15 L 10.2,17.3 C 10.733,15.667 10.717,14.6 10.15,14.1 9.183,13.4 8.517,12.85 8.15,12.45 7.917,12.217 7.7,11.95 7.5,11.65 L 7.3,11.3 C 7.967,11.067 8.467,10.767 8.8,10.4 L 9.35,9.85 10.8,9.05 c 0.567,-0.267 0.817,-0.5 0.75,-0.7 L 11.15,7.9 c 1.3,-0.233 2.4,-0.767 3.3,-1.6 0.3,-0.267 0.6,-0.533 0.9,-0.8 0.133,-0.167 0.183,-0.4 0.15,-0.7 -0.033,-0.3 0.1,-0.667 0.4,-1.1 0.133,-0.233 0.267,-0.434 0.4,-0.6 h 0.3 c 0.233,-0.033 0.517,-0.133 0.85,-0.3 z"
     style="clip-rule:evenodd;fill:url(#SVGID_7_);fill-rule:evenodd"
     inkscape:connector-curvature="0" /><path
     id="path66"
     d="m 22.7,7.1 c 0.333,-0.467 0.533,-0.85 0.6,-1.15 l 1,0.55 c -0.133,0.1 -0.25,0.217 -0.35,0.35 -0.2,0.3 -0.167,0.633 0.1,1 0.967,1.367 1.233,2.433 0.8,3.2 l -0.8,1.2 c -0.2,0.5 -0.184,1 0.05,1.5 0.733,1.7 1.434,2.467 2.101,2.3 0.267,-0.066 0.666,-0.183 1.2,-0.35 0.366,-0.2 0.449,-0.5 0.25,-0.9 -0.367,-0.566 -0.634,-0.966 -0.801,-1.2 -0.233,-0.4 -0.283,-0.783 -0.149,-1.15 0.066,-0.133 0.3,-0.467 0.7,-1 0.233,-0.3 0.25,-0.633 0.05,-1 l -0.95,-1.4 0.35,-0.45 0.7,0.45 c 0.5,0.434 0.733,0.917 0.7,1.45 0,0.367 -0.217,0.85 -0.65,1.45 -0.3,0.433 -0.316,0.85 -0.05,1.25 0.233,0.367 0.55,0.733 0.95,1.1 0.267,0.233 0.417,0.467 0.45,0.7 0.033,0.333 0.217,0.517 0.55,0.55 0.366,0.034 0.55,-0.1 0.55,-0.4 0,-0.233 -0.116,-0.65 -0.35,-1.25 L 29.35,13.1 29.651,12.5 30,13.05 c 0.267,0.434 0.417,0.85 0.45,1.25 0.1,0.7 0.066,1.267 -0.101,1.7 -0.267,0.7 -0.966,1.35 -2.1,1.95 -1.333,0.7 -4.066,1.149 -8.2,1.35 -4.267,0.233 -7.667,0.033 -10.2,-0.6 -2.2,-0.566 -4.217,-1.467 -6.05,-2.7 l -2.05,-1.7 0.7,-2.6 0.551,0.4 0.25,0.05 -0.65,1.6 c -0.1,0.467 -0.1,0.783 0,0.95 0.4,0.066 0.883,-0.3 1.45,-1.1 0.867,-1.233 1.9,-2.083 3.1,-2.55 C 7.75,10.817 8.133,10.6 8.3,10.4 8.467,10.133 8.65,9.867 8.85,9.6 9.317,9.067 9.733,8.75 10.1,8.65 L 11.2,8.8 C 10.933,8.9 10.516,9.2 9.95,9.7 9.75,9.867 9.5,10.183 9.2,10.65 9,10.983 8.7,11.233 8.3,11.4 7,11.967 6.267,12.417 6.1,12.75 c -0.033,0.067 -0.25,0.4 -0.65,1 -0.367,0.667 -0.434,1.233 -0.2,1.7 0.3,0.633 0.5,0.966 0.6,1 0.133,0.133 0.467,0.167 1,0.1 1,-0.133 1.733,-0.767 2.2,-1.9 0.133,-0.333 0.4,-0.683 0.8,-1.05 0.467,-0.434 0.8,-0.85 1,-1.25 l 0.6,-1.65 c 0.233,-0.633 0.583,-1.1 1.05,-1.4 0.6,-0.433 0.95,-0.716 1.05,-0.85 0.133,-0.2 0.117,-0.534 -0.05,-1 -0.133,-0.4 -0.317,-0.733 -0.55,-1 l -0.3,-0.25 1,-0.2 0.4,0.45 c 0.3,0.367 0.483,0.733 0.55,1.1 0.1,0.4 0.1,0.733 0,1 -0.1,0.2 -0.3,0.417 -0.6,0.65 -0.4,0.267 -0.667,0.45 -0.8,0.55 -0.233,0.2 -0.383,0.45 -0.45,0.75 -0.133,0.633 -0.467,1.367 -1,2.2 -0.133,0.2 -0.533,0.667 -1.2,1.4 -0.5,0.5 -0.75,0.867 -0.75,1.1 0,0.2 -0.066,0.417 -0.2,0.65 -0.067,0.2 0.066,0.35 0.4,0.45 0.5,0.167 1.083,0.3 1.75,0.4 0.833,0.133 1.417,0.167 1.75,0.1 0.367,-0.1 0.783,-0.466 1.25,-1.1 0.433,-0.633 0.667,-1.217 0.7,-1.75 0.033,-0.7 0.1,-1.167 0.2,-1.4 0.167,-0.433 0.6,-0.816 1.3,-1.15 0.533,-0.233 1.083,-0.483 1.65,-0.75 0.333,-0.2 0.517,-0.566 0.55,-1.1 C 19.183,9.017 19.133,8.467 19,7.9 L 18.75,7.15 h 0.85 c 0.3,0.233 0.4,0.917 0.3,2.05 -0.1,0.767 -0.333,1.4 -0.7,1.9 -0.233,0.267 -0.65,0.6 -1.25,1 -0.5,0.333 -0.833,0.583 -1,0.75 -0.2,0.267 -0.317,0.566 -0.35,0.9 -0.033,0.3 -0.184,0.75 -0.45,1.35 -0.133,0.3 -0.333,0.733 -0.6,1.3 -0.133,0.434 0.083,0.8 0.65,1.1 0.633,0.367 1.45,0.467 2.45,0.3 0.133,-0.033 1.217,0 3.25,0.1 1.067,0.033 1.617,-0.367 1.65,-1.2 0.033,-0.767 -0.05,-1.583 -0.25,-2.45 -0.166,-0.767 -0.233,-1.283 -0.2,-1.55 0.034,-0.3 0.217,-0.684 0.551,-1.15 0.366,-0.5 0.566,-0.9 0.6,-1.2 0.033,-0.267 -0.267,-0.833 -0.9,-1.7 C 22.75,7.85 22.533,7.333 22.7,7.1 Z"
     style="clip-rule:evenodd;fill:url(#SVGID_8_);fill-rule:evenodd"
     inkscape:connector-curvature="0" /><path
     id="path73"
     d="m 20.45,2.15 0.8,0.2 0.1,0.6 c 0.2,0.8 0.183,1.5 -0.05,2.1 -0.066,0.2 -0.466,0.417 -1.2,0.65 -0.9,0.3 -1.383,0.466 -1.45,0.5 -0.2,0.133 -0.4,0.383 -0.6,0.75 -0.133,0.433 -0.233,0.683 -0.3,0.75 -0.033,0.1 -0.033,0.167 0,0.2 0.133,0.067 0.267,0.2 0.4,0.4 0.367,0.567 1.2,1.233 2.5,2 0.5,0.3 0.917,0.883 1.25,1.75 0.067,0.667 -0.2,1.317 -0.8,1.95 -0.3,0.333 -0.733,0.6 -1.3,0.8 -0.6,0.233 -1,0.434 -1.2,0.6 -0.434,0.4 -0.7,1.117 -0.8,2.15 L 16.05,17.2 c 0.5,-0.534 0.934,-1.133 1.3,-1.8 0.233,-0.4 0.683,-0.767 1.35,-1.1 1.033,-0.533 1.566,-0.816 1.6,-0.85 0.833,-0.567 1.017,-1.167 0.55,-1.8 -0.367,-0.533 -0.9,-0.967 -1.6,-1.3 -0.5,-0.133 -0.867,-0.267 -1.1,-0.4 C 17.75,9.783 17.5,9.5 17.4,9.1 17.3,8.733 17.067,8.383 16.7,8.05 L 16.2,7.65 17.05,7.2 C 17.217,7.166 17.567,6.666 18.1,5.7 18.267,5.433 18.75,5.15 19.55,4.85 20.084,4.683 20.383,4.483 20.45,4.25 20.483,4.117 20.433,3.8 20.3,3.3 20.2,2.734 19.933,2.35 19.5,2.15 Z"
     style="clip-rule:evenodd;fill:url(#SVGID_9_);fill-rule:evenodd"
     inkscape:connector-curvature="0" /><path
     id="path80"
     d="m 23.2,10.3 c -0.534,0.233 -1.034,0.633 -1.5,1.2 l -0.6,0.8 0.35,0.25 c 0.333,0.167 0.683,0.317 1.05,0.45 0.634,0.167 2,0.5 4.1,1 0.534,0.233 1.15,0.7 1.851,1.4 L 27,16 c -0.467,-0.533 -1.066,-1.05 -1.8,-1.55 -0.4,-0.267 -0.867,-0.383 -1.4,-0.35 -0.733,0 -1.433,-0.083 -2.1,-0.25 -0.867,-0.233 -1.5,-0.6 -1.9,-1.1 l -0.4,-0.7 2,-2.1 c 0.167,-0.233 0.533,-0.483 1.1,-0.75 0.3,-0.167 0.684,-0.35 1.15,-0.55 0.366,-0.2 0.783,-0.566 1.25,-1.1 0.066,0.1 0.366,0.133 0.899,0.1 l -0.7,1 c -0.233,0.333 -0.449,0.6 -0.649,0.8 -0.3,0.333 -0.717,0.617 -1.25,0.85 z"
     style="clip-rule:evenodd;fill:url(#SVGID_10_);fill-rule:evenodd"
     inkscape:connector-curvature="0" /><path
     id="path87"
     d="m 11.75,11.4 c 0.233,-0.267 0.6,-0.517 1.1,-0.75 0.667,-0.3 1.217,-0.35 1.65,-0.15 0.667,0.333 1.017,0.917 1.05,1.75 0.1,0.167 0,0.583 -0.3,1.25 -0.1,0.233 -0.167,0.367 -0.2,0.4 -0.133,0.1 -0.417,0.2 -0.85,0.3 -0.467,0.1 -0.833,0.1 -1.1,0 L 12.85,14 c 0.267,0.133 -0.067,-0.25 -1,-1.15 l -0.1,-0.25 c -0.2,-0.533 -0.2,-0.933 0,-1.2 z"
     style="clip-rule:evenodd;fill:url(#SVGID_11_);fill-rule:evenodd"
     inkscape:connector-curvature="0" /><path
     id="path94"
     d="m 30.4,11.35 c 0.033,0.3 0.1,0.517 0.199,0.65 0.101,0.1 0.301,0.3 0.601,0.6 0.399,0.433 0.566,0.767 0.5,1 -0.733,0.633 -1.25,1 -1.55,1.1 -0.634,0.2 -1.117,-0.034 -1.45,-0.7 -0.101,-0.2 -0.417,-0.383 -0.95,-0.55 -0.6,-0.167 -1.033,-0.417 -1.3,-0.75 -0.334,-0.367 -0.367,-0.75 -0.101,-1.15 0.167,-0.267 0.5,-0.767 1,-1.5 0.434,-0.8 0.317,-1.583 -0.35,-2.35 0.167,0.2 0.417,0.316 0.75,0.35 0.4,0.4 0.634,0.75 0.7,1.05 0.133,0.533 -0.184,1.233 -0.95,2.1 -0.167,0.2 -0.2,0.45 -0.1,0.75 0.1,0.267 0.267,0.466 0.5,0.6 0.733,0.4 1.283,0.833 1.649,1.3 0.233,0.333 0.483,0.45 0.75,0.35 0.134,-0.034 0.334,-0.184 0.601,-0.45 0.199,-0.267 0.033,-0.667 -0.5,-1.2 -0.367,-0.333 -0.584,-0.783 -0.65,-1.35 -0.033,-0.233 -0.167,-0.583 -0.4,-1.05 L 29,9.5 29.4,9.75 c 0.2,0.133 0.333,0.183 0.4,0.15 l 0.3,0.45 c 0.167,0.367 0.266,0.7 0.3,1 z"
     style="clip-rule:evenodd;fill:url(#SVGID_12_);fill-rule:evenodd"
     inkscape:connector-curvature="0" /><path
     id="path101"
     d="m 25.8,5.1 0.1,0.3 c 0.066,0.1 0.166,0.317 0.3,0.65 0.166,0.3 0.416,0.517 0.75,0.65 l 1,0.45 0.1,0.9 -0.45,-0.4 C 26.9,7.417 26.4,7.217 26.1,7.05 25.901,6.917 25.701,6.65 25.5,6.25 25.333,5.85 25.233,5.483 25.2,5.15 25.167,4.85 25.016,4.617 24.75,4.45 L 24.4,4.25 c 0.433,0.067 0.9,0.35 1.4,0.85 z"
     style="clip-rule:evenodd;fill:url(#SVGID_13_);fill-rule:evenodd"
     inkscape:connector-curvature="0" /><path
     id="path108"
     d="m 13.7,4.8 c 0.367,0.267 0.566,0.567 0.6,0.9 0.034,0.2 -0.017,0.367 -0.15,0.5 -0.066,0.133 -0.316,0.383 -0.75,0.75 -0.566,0.466 -0.95,0.633 -1.15,0.5 -0.6,0.033 -1.1,-0.067 -1.5,-0.3 C 10.217,6.783 9.95,6.367 9.95,5.9 9.983,5.633 10.2,5.317 10.6,4.95 11.033,4.516 11.5,4.283 12,4.25 12.767,4.217 13.333,4.4 13.7,4.8 Z"
     style="clip-rule:evenodd;fill:url(#SVGID_14_);fill-rule:evenodd"
     inkscape:connector-curvature="0" /><path
     id="path115"
     d="m 10.45,6 c 0.4,-0.067 0.667,-0.183 0.8,-0.35 0.233,-0.233 0.6,-0.4 1.1,-0.5 -0.033,0.2 -0.184,0.434 -0.45,0.7 -0.233,0.267 -0.2,0.867 0.1,1.8 0.133,0.267 0.317,0.483 0.55,0.65 0.167,0.067 0.383,0.167 0.65,0.3 0.833,0.733 1.383,1.333 1.65,1.8 0.133,0.267 0.533,0.533 1.2,0.8 0.4,0.167 1.05,0.383 1.95,0.65 0.633,0.233 1.217,0.667 1.75,1.3 0.467,0.567 0.783,1.133 0.95,1.7 0.167,0.7 -0.034,1.4 -0.6,2.1 l -1.35,-0.1 c 0.633,-0.8 0.967,-1.533 1,-2.2 0.033,-0.467 -0.483,-1.083 -1.55,-1.85 -1.034,-0.767 -1.784,-1.133 -2.25,-1.1 -0.767,0.033 -1.534,-0.417 -2.3,-1.35 -0.3,-0.367 -0.933,-0.867 -1.9,-1.5 -0.933,-0.6 -1.433,-1 -1.5,-1.2 -0.133,-0.3 -0.133,-0.667 0,-1.1 z"
     style="clip-rule:evenodd;fill:url(#SVGID_15_);fill-rule:evenodd"
     inkscape:connector-curvature="0" /><path
     id="path122"
     d="m 7.65,11.15 0.8,-1.5 0.05,0.85 c 0.1,0.667 0.267,1.2 0.5,1.6 0.233,0.5 0.617,0.917 1.15,1.25 0.467,0.333 1.217,0.717 2.25,1.15 0.833,0.367 1.317,1.067 1.45,2.1 0.066,0.533 0.05,1.017 -0.05,1.45 -1.1,0.3 -2.35,0.2 -3.75,-0.3 C 9.383,17.517 8.767,17.117 8.2,16.55 7.433,15.817 7.016,15.017 6.95,14.15 c -0.033,-0.8 0.2,-1.8 0.7,-3 z"
     style="clip-rule:evenodd;fill:url(#SVGID_16_);fill-rule:evenodd"
     inkscape:connector-curvature="0" /><path
     id="path124"
     d="m 25.2,8.1 0.3,-0.5 c 0.267,-0.367 0.517,-0.6 0.75,-0.7 0.233,-0.1 0.333,0.083 0.3,0.55 -0.033,0.466 -0.133,0.8 -0.3,1 L 25.95,8.8 26.4,8.35 c 0.3,-0.267 0.483,-0.267 0.55,0 C 27.017,8.783 26.7,9.267 26,9.8 l 0.7,-0.35 c 0.467,-0.167 0.649,-0.067 0.55,0.3 -0.167,0.567 -0.55,0.967 -1.15,1.2 l 0.65,-0.05 c 0.4,0 0.55,0.167 0.45,0.5 -0.134,0.533 -0.783,1.1 -1.95,1.7 0.967,-0.4 1.366,-0.35 1.2,0.15 -0.134,0.5 -0.65,1.017 -1.55,1.55 l 0.649,-0.05 c 0.434,0 0.65,0.067 0.65,0.2 0,0.333 -0.417,0.767 -1.25,1.3 -1,0.667 -2.083,0.917 -3.25,0.75 -0.667,-0.3 -1.067,-0.8 -1.2,-1.5 -0.067,-0.533 -0.1,-0.983 -0.1,-1.35 0.033,-0.4 0.1,-0.533 0.2,-0.4 l 0.35,0.45 c -0.2,-1.167 -0.233,-2 -0.1,-2.5 0.1,-0.3 0.316,-0.333 0.65,-0.1 0.167,0.133 0.317,0.3 0.45,0.5 -0.167,-0.8 -0.15,-1.483 0.05,-2.05 0.133,-0.333 0.317,-0.35 0.55,-0.05 0.1,0.133 0.2,0.3 0.3,0.5 0,-0.2 0,-0.433 0,-0.7 C 22.883,9.3 23,8.917 23.2,8.65 c 0.3,-0.467 0.517,-0.3 0.649,0.5 L 24.6,7.6 c 0.233,-0.333 0.433,-0.167 0.6,0.5 z"
     style="clip-rule:evenodd;fill:#60872b;fill-rule:evenodd"
     inkscape:connector-curvature="0" /><path
     id="path131"
     d="M 9.2,13.65 8.9,14.25 9.35,15 9.6,15.3 c 0.233,-0.233 0.383,-0.5 0.45,-0.8 l 0.2,-1.1 v 1.2 c -0.033,0.4 -0.167,0.733 -0.4,1 l 0.6,0.6 c 0.333,0.233 0.55,0.35 0.65,0.35 0.066,-0.333 0.1,-0.733 0.1,-1.2 v -1 l 0.5,1.3 c 0.066,0.367 0.167,0.733 0.3,1.1 0.267,0.3 0.433,0.267 0.5,-0.1 0.033,-0.2 0.017,-0.5 -0.05,-0.9 l -0.15,-0.55 0.3,0.55 c 0.2,0.4 0.316,0.7 0.35,0.9 0.033,0.167 0.133,0.4 0.3,0.7 0.033,0.2 -0.217,0.233 -0.75,0.1 -1.333,-0.367 -2.1,-0.667 -2.3,-0.9 L 9.65,15.8 C 9.35,15.834 8.933,15.75 8.4,15.55 L 7.45,14.95 8.4,15.2 9.2,15.3 C 8.967,14.9 8.8,14.667 8.7,14.6 L 8.6,14.45 C 8.467,14.45 8.233,14.367 7.9,14.2 7.7,14.067 7.533,13.9 7.4,13.7 L 7.25,13.4 7.8,13.8 C 8.033,13.933 8.25,14 8.45,14 8.283,13.833 8.15,13.6 8.05,13.3 L 7.95,12 8.3,13.25 8.7,14 9.25,13.05 Z"
     style="clip-rule:evenodd;fill:url(#SVGID_17_);fill-rule:evenodd"
     inkscape:connector-curvature="0" /><path
     id="path138"
     d="m 24.85,9.25 1.25,-1.75 -0.6,1.15 -0.55,0.8 0.149,0.1 c 0.101,0.034 0.217,0 0.351,-0.1 0.233,-0.133 0.483,-0.333 0.75,-0.6 -0.334,0.433 -0.617,0.717 -0.851,0.85 l -0.6,0.15 -0.3,1 v 0.3 l 2.1,-1.2 -1.3,1.1 -0.8,0.5 -0.2,0.7 c -0.033,0.267 -0.134,0.583 -0.3,0.95 l 2.399,-1.5 -2.6,2.25 c -0.066,0.733 -0.134,1.15 -0.2,1.25 l -0.1,0.1 1.85,-1.55 c -0.7,0.967 -1.2,1.583 -1.5,1.85 -0.166,0.133 -0.217,0.383 -0.149,0.75 0.066,0.333 0.017,0.517 -0.15,0.55 -0.2,0.033 -0.467,0 -0.8,-0.1 l -0.4,-0.2 c -0.3,-0.333 -0.533,-0.8 -0.7,-1.4 -0.1,-0.367 -0.15,-0.817 -0.15,-1.35 v -0.7 l 0.1,0.85 c 0.1,0.6 0.25,1.033 0.45,1.3 0.3,0.434 0.65,0.617 1.05,0.55 l 0.351,-2 -0.9,-3 1.15,2.35 0.25,-1.45 C 23.733,11.417 23.583,11.017 23.45,10.55 23.384,10.25 23.349,9.933 23.349,9.6 V 9.15 l 0.601,1.75 0.2,0.25 L 24.55,9.7 24.7,8 Z"
     style="clip-rule:evenodd;fill:url(#SVGID_18_);fill-rule:evenodd"
     inkscape:connector-curvature="0" /><path
     id="path140"
     d="m 19,2.7 c 0.2,0 0.333,0.05 0.4,0.15 0.033,0.066 0.067,0.183 0.1,0.35 0.267,0.433 0.367,0.716 0.3,0.85 C 19.767,4.15 19.633,4.133 19.4,4 19.167,3.8 19,3.667 18.9,3.6 18.834,3.533 18.65,3.467 18.35,3.4 18.083,3.367 17.916,3.334 17.85,3.3 17.65,3.3 17.75,3.183 18.15,2.95 18.483,2.783 18.767,2.7 19,2.7 Z"
     style="clip-rule:evenodd;fill:#ebffbf;fill-rule:evenodd"
     inkscape:connector-curvature="0" /><path
     id="path142"
     d="m 17.55,4.4 c 0.367,-0.033 0.4,0.167 0.1,0.6 l -0.7,0.15 C 16.817,5.183 16.8,5.133 16.9,5 16.967,4.933 17.05,4.817 17.15,4.65 17.183,4.517 17.317,4.433 17.55,4.4 Z"
     style="clip-rule:evenodd;fill:#ebffbf;fill-rule:evenodd"
     inkscape:connector-curvature="0" /><path
     id="path144"
     d="m 18.6,4.65 c 0.4,0 0.6,0.033 0.6,0.1 l -0.3,0.2 C 18.467,5.117 18.1,5.317 17.8,5.55 17.667,5.617 17.7,5.467 17.9,5.1 18.067,4.8 18.3,4.65 18.6,4.65 Z"
     style="clip-rule:evenodd;fill:#ebffbf;fill-rule:evenodd"
     inkscape:connector-curvature="0" /><path
     id="path146"
     d="m 11.85,4.55 c 0.233,0 0.283,0.117 0.15,0.35 -0.2,0.1 -0.383,0.233 -0.55,0.4 -0.233,0.233 -0.4,0.333 -0.5,0.3 -0.2,-0.1 -0.284,-0.25 -0.25,-0.45 0,-0.133 0.15,-0.267 0.45,-0.4 0.233,-0.133 0.467,-0.2 0.7,-0.2 z"
     style="clip-rule:evenodd;fill:#ebffbf;fill-rule:evenodd"
     inkscape:connector-curvature="0" /><path
     id="path148"
     d="M 7.4,8.4 C 7.267,8.5 7.2,8.65 7.2,8.85 L 7.25,9.4 C 7.25,9.6 7.183,9.717 7.05,9.75 6.984,9.75 6.8,9.717 6.5,9.65 6.3,9.583 6.2,9.433 6.2,9.2 6.2,9 6.266,8.783 6.4,8.55 6.5,8.383 6.65,8.25 6.85,8.15 6.983,8.117 7.217,8.033 7.55,7.9 7.717,7.867 7.767,7.917 7.7,8.05 7.667,8.183 7.567,8.3 7.4,8.4 Z"
     style="clip-rule:evenodd;fill:#ebffbf;fill-rule:evenodd"
     inkscape:connector-curvature="0" /><path
     id="path150"
     d="m 9.45,7.3 c 0.233,0.067 0.3,0.15 0.2,0.25 -0.167,0.1 -0.3,0.167 -0.4,0.2 C 9.05,7.917 8.917,7.883 8.85,7.65 8.817,7.517 8.867,7.417 9,7.35 9.133,7.283 9.283,7.267 9.45,7.3 Z"
     style="clip-rule:evenodd;fill:#ebffbf;fill-rule:evenodd"
     inkscape:connector-curvature="0" /><path
     id="path152"
     d="m 10.6,10.65 c 0.167,-0.033 0.167,0.133 0,0.5 -0.167,0.333 -0.35,0.617 -0.55,0.85 -0.133,0.167 -0.233,0.183 -0.3,0.05 -0.067,-0.267 -0.133,-0.5 -0.2,-0.7 -0.1,-0.367 0.25,-0.6 1.05,-0.7 z"
     style="clip-rule:evenodd;fill:#ebffbf;fill-rule:evenodd"
     inkscape:connector-curvature="0" /><path
     id="path154"
     d="m 14.9,9.3 c 0.1,0.034 0.167,0.117 0.2,0.25 0,0.133 -0.033,0.233 -0.1,0.3 -0.033,0.133 -0.2,0 -0.5,-0.4 C 14.3,9.217 14.433,9.167 14.9,9.3 Z"
     style="clip-rule:evenodd;fill:#ebffbf;fill-rule:evenodd"
     inkscape:connector-curvature="0" /><path
     id="path156"
     d="m 18.45,7.55 c 0.2,0.067 0.283,0.2 0.25,0.4 0,0.133 -0.034,0.283 -0.1,0.45 -0.033,0.167 -0.217,0.017 -0.55,-0.45 -0.066,-0.1 -0.066,-0.2 0,-0.3 0.1,-0.1 0.233,-0.133 0.4,-0.1 z"
     style="clip-rule:evenodd;fill:#ebffbf;fill-rule:evenodd"
     inkscape:connector-curvature="0" /><path
     id="path158"
     d="m 20.85,8 c 0.133,0.067 0.217,0.167 0.25,0.3 0.033,0.1 0.133,0.184 0.3,0.25 0.333,0.1 0.333,0.35 0,0.75 -0.333,0.333 -0.633,0.467 -0.9,0.4 -0.233,-0.067 -0.35,-0.25 -0.35,-0.55 0.1,-0.4 0.133,-0.7 0.1,-0.9 -0.033,-0.267 0,-0.417 0.1,-0.45 0.033,0 0.2,0.067 0.5,0.2 z"
     style="clip-rule:evenodd;fill:#ebffbf;fill-rule:evenodd"
     inkscape:connector-curvature="0" /><path
     id="path160"
     d="m 17.75,12.9 c 0.333,0.033 0.45,0.184 0.35,0.45 -0.133,0.033 -0.267,0.05 -0.4,0.05 -0.2,0 -0.367,-0.033 -0.5,-0.1 -0.167,-0.066 -0.167,-0.15 0,-0.25 0.167,-0.1 0.35,-0.15 0.55,-0.15 z"
     style="clip-rule:evenodd;fill:#ebffbf;fill-rule:evenodd"
     inkscape:connector-curvature="0" /><path
     id="path162"
     d="m 12.7,13.65 c 0.2,0.033 0.35,0.133 0.45,0.3 0.133,0.167 0.083,0.25 -0.15,0.25 -0.133,0 -0.483,-0.167 -1.05,-0.5 -0.1,-0.1 -0.05,-0.15 0.15,-0.15 0.2,0 0.4,0.033 0.6,0.1 z"
     style="clip-rule:evenodd;fill:#ebffbf;fill-rule:evenodd"
     inkscape:connector-curvature="0" /><path
     id="path164"
     d="m 22.15,4.1 c 0.233,0 0.317,0.05 0.25,0.15 -0.066,0.067 -0.15,0.167 -0.25,0.3 -0.033,0.067 0.033,0.167 0.2,0.3 0.1,0.1 0.267,0.25 0.5,0.45 0.2,0.133 0.333,0.284 0.4,0.45 0.033,0.167 -0.033,0.167 -0.2,0 -0.767,-0.5 -1.216,-0.833 -1.35,-1 -0.1,-0.1 -0.083,-0.233 0.05,-0.4 0.133,-0.167 0.267,-0.25 0.4,-0.25 z"
     style="clip-rule:evenodd;fill:#ebffbf;fill-rule:evenodd"
     inkscape:connector-curvature="0" /><path
     id="path166"
     d="m 13.3,11 c 0.3,0 0.434,0.1 0.4,0.3 -0.067,0.2 -0.2,0.317 -0.4,0.35 -0.466,0 -0.833,0.133 -1.1,0.4 C 12.1,12.117 12.033,12.1 12,12 11.933,11.9 11.95,11.783 12.05,11.65 12.483,11.217 12.9,11 13.3,11 Z"
     style="clip-rule:evenodd;fill:#ebffbf;fill-rule:evenodd"
     inkscape:connector-curvature="0" /><path
     id="path175"
     d="m 30.3,12.7 1,1.7 -1.35,0.7 C 29.183,15 28.533,14.45 28,13.45 27.6,12.717 27.417,12 27.45,11.3 l 0.2,-0.8 1.25,-0.85 z"
     style="clip-rule:evenodd;fill:url(#SVGID_19_);fill-rule:evenodd"
     inkscape:connector-curvature="0" /><path
     id="path177"
     d="m 30.85,14.45 c -0.433,-0.233 -0.866,-0.583 -1.3,-1.05 -0.833,-0.9 -1.184,-1.9 -1.05,-3 0.1,-0.933 0.6,-1.117 1.5,-0.55 0.833,0.533 1.384,1.2 1.65,2 0.6,1.833 0.333,2.7 -0.8,2.6 z"
     style="clip-rule:evenodd;fill:#68ab2e;fill-rule:evenodd"
     inkscape:connector-curvature="0" /><path
     id="path179"
     d="m 31.45,13.55 c -0.2,0.4 -0.617,0.35 -1.25,-0.15 -0.667,-0.5 -1.066,-1.117 -1.2,-1.85 -0.2,-1.5 0.267,-1.783 1.4,-0.85 0.433,0.367 0.767,0.833 1,1.4 0.234,0.6 0.25,1.083 0.05,1.45 z"
     style="clip-rule:evenodd;fill:#6aa338;fill-rule:evenodd"
     inkscape:connector-curvature="0" /><path
     id="path188"
     d="m 18.45,1.9 1.75,-0.85 0.6,1.4 C 20.633,3.183 20.033,3.8 19,4.3 18.233,4.667 17.517,4.783 16.85,4.65 l -0.8,-0.3 -0.75,-1.3 z"
     style="clip-rule:evenodd;fill:url(#SVGID_20_);fill-rule:evenodd"
     inkscape:connector-curvature="0" /><path
     id="path190"
     d="M 20.25,1.5 C 19.983,1.933 19.6,2.333 19.1,2.7 18.133,3.467 17.1,3.75 16,3.55 15.067,3.35 14.917,2.834 15.55,2 c 0.6,-0.8 1.317,-1.3 2.15,-1.5 0.8,-0.2 1.433,-0.233 1.9,-0.1 0.533,0.167 0.75,0.533 0.65,1.1 z"
     style="clip-rule:evenodd;fill:#7fc743;fill-rule:evenodd"
     inkscape:connector-curvature="0" /><path
     id="path192"
     d="m 19.4,0.85 c 0.367,0.2 0.283,0.617 -0.25,1.25 -0.566,0.633 -1.217,0.967 -1.95,1 -1.534,0.133 -1.784,-0.35 -0.75,-1.45 0.433,-0.4 0.933,-0.683 1.5,-0.85 0.6,-0.167 1.083,-0.15 1.45,0.05 z"
     style="clip-rule:evenodd;fill:#8cd64d;fill-rule:evenodd"
     inkscape:connector-curvature="0" /><path
     id="path201"
     d="m 6.55,7.6 0.9,-1.8 1.3,0.8 c 0.467,1.033 0.467,2.05 0,3.05 -0.467,1 -1.2,1.483 -2.2,1.45 l -2.2,-0.9 z"
     style="clip-rule:evenodd;fill:url(#SVGID_21_);fill-rule:evenodd"
     inkscape:connector-curvature="0" /><path
     id="path203"
     d="M 8,6.4 C 8,6.9 7.883,7.433 7.65,8 7.183,9.167 6.433,9.933 5.4,10.3 4.533,10.633 4.15,10.283 4.25,9.25 4.35,8.25 4.7,7.45 5.3,6.85 5.867,6.25 6.383,5.9 6.85,5.8 7.383,5.633 7.767,5.833 8,6.4 Z"
     style="clip-rule:evenodd;fill:#7fc743;fill-rule:evenodd"
     inkscape:connector-curvature="0" /><path
     id="path205"
     d="m 6.9,6.25 c 0.467,0 0.617,0.4 0.45,1.2 C 7.217,8.283 6.833,8.917 6.2,9.35 4.9,10.25 4.45,9.967 4.85,8.5 4.983,7.933 5.25,7.417 5.65,6.95 6.083,6.483 6.5,6.25 6.9,6.25 Z"
     style="clip-rule:evenodd;fill:#8cd64d;fill-rule:evenodd"
     inkscape:connector-curvature="0" /><path
     id="path207"
     d="M 8.9,7.7 C 8.933,7.833 8.917,8 8.85,8.2 8.883,8.267 8.733,8.233 8.4,8.1 8.033,7.933 7.917,7.717 8.05,7.45 8.083,7.35 8.233,7.333 8.5,7.4 8.733,7.467 8.867,7.567 8.9,7.7 Z"
     style="clip-rule:evenodd;fill:#ffffff;fill-rule:evenodd"
     inkscape:connector-curvature="0" /><path
     id="path209"
     d="m 19.9,2.5 c 0.3,0.3 0.4,0.5 0.3,0.6 -0.034,0.066 -0.133,0.066 -0.3,0 C 19.8,3.033 19.75,2.9 19.75,2.7 19.783,2.5 19.833,2.433 19.9,2.5 Z"
     style="clip-rule:evenodd;fill:#ffffff;fill-rule:evenodd"
     inkscape:connector-curvature="0" /><path
     id="path218"
     d="m 32.75,12.9 h 1.05 v 5.55 c -0.1,1.3 -1.783,2.416 -5.05,3.35 -3.3,0.9 -7.25,1.351 -11.85,1.351 C 12.3,23.151 8.367,22.7 5.1,21.8 1.8,20.866 0.1,19.75 0,18.45 V 12.9 h 0.8 c 0.333,1.067 2.017,1.95 5.05,2.65 3.066,0.7 6.7,1.05 10.9,1.05 4.233,0 7.884,-0.35 10.95,-1.05 3.033,-0.7 4.717,-1.583 5.05,-2.65 z"
     style="clip-rule:evenodd;fill:url(#SVGID_22_);fill-rule:evenodd"
     inkscape:connector-curvature="0" /><path
     id="path220"
     d="m 32.3,12.35 h 1.45 l 0.05,0.5 c 0,1.333 -1.649,2.467 -4.95,3.4 -3.3,0.933 -7.283,1.4 -11.95,1.4 -4.667,0 -8.65,-0.467 -11.95,-1.4 C 1.65,15.317 0,14.183 0,12.85 l 0.05,-0.5 H 1.8 l -0.05,0.1 c 0,1.1 1.5,2.05 4.5,2.85 2.967,0.767 6.567,1.15 10.8,1.15 4.233,0 7.834,-0.383 10.8,-1.15 3,-0.8 4.5,-1.75 4.5,-2.85 z"
     style="clip-rule:evenodd;fill:#ffffff;fill-rule:evenodd"
     inkscape:connector-curvature="0" /></g>
</svg>