<?xml version="1.0" encoding="UTF-8" standalone="no"?>
<!-- Generator: Adobe Illustrator 15.1.0, SVG Export Plug-In . SVG Version: 6.00 Build 0)  -->

<svg
   xmlns:dc="http://purl.org/dc/elements/1.1/"
   xmlns:cc="http://creativecommons.org/ns#"
   xmlns:rdf="http://www.w3.org/1999/02/22-rdf-syntax-ns#"
   xmlns:svg="http://www.w3.org/2000/svg"
   xmlns="http://www.w3.org/2000/svg"
   xmlns:sodipodi="http://sodipodi.sourceforge.net/DTD/sodipodi-0.dtd"
   xmlns:inkscape="http://www.inkscape.org/namespaces/inkscape"
   version="1.1"
   id="flash0.ai"
   x="0px"
   y="0px"
   width="256"
   height="256"
   viewBox="0 0 256 256"
   xml:space="preserve"
   sodipodi:docname="snack_pack.svg"
   inkscape:version="0.92.4 (5da689c313, 2019-01-14)"><title
   id="title1115">Snack Pack</title><metadata
   id="metadata308"><rdf:RDF><cc:Work
       rdf:about=""><dc:format>image/svg+xml</dc:format><dc:type
         rdf:resource="http://purl.org/dc/dcmitype/StillImage" /><dc:title>Snack Pack</dc:title><cc:license
         rdf:resource="http://creativecommons.org/publicdomain/zero/1.0/" /><dc:creator><cc:Agent><dc:title>Glitch</dc:title></cc:Agent></dc:creator><dc:source>https://opengameart.org/node/20149</dc:source></cc:Work><cc:License
       rdf:about="http://creativecommons.org/publicdomain/zero/1.0/"><cc:permits
         rdf:resource="http://creativecommons.org/ns#Reproduction" /><cc:permits
         rdf:resource="http://creativecommons.org/ns#Distribution" /><cc:permits
         rdf:resource="http://creativecommons.org/ns#DerivativeWorks" /></cc:License></rdf:RDF></metadata><defs
   id="defs306" /><sodipodi:namedview
   pagecolor="#ffffff"
   bordercolor="#666666"
   borderopacity="1"
   objecttolerance="10"
   gridtolerance="10"
   guidetolerance="10"
   inkscape:pageopacity="0"
   inkscape:pageshadow="2"
   inkscape:window-width="1920"
   inkscape:window-height="1025"
   id="namedview304"
   showgrid="false"
   inkscape:zoom="1.0133333"
   inkscape:cx="6.3592933"
   inkscape:cy="67.834095"
   inkscape:window-x="-8"
   inkscape:window-y="-8"
   inkscape:window-maximized="1"
   inkscape:current-layer="flash0.ai"
   fit-margin-top="0"
   fit-margin-left="0"
   fit-margin-right="0"
   fit-margin-bottom="0" />
<g
   id="g301"
   transform="matrix(5.9190751,0,0,5.9190751,9.6250001e-7,33.880357)">
	<path
   style="clip-rule:evenodd;fill:#a37f24;fill-rule:evenodd"
   d="m 43.2,11.5 0.05,1.85 c -3.634,3.9 -6.967,7.3 -10,10.2 -3.033,2.9 -6.067,5.65 -9.1,8.25 L 21.9,29.45 16.35,11 Z"
   id="path2"
   inkscape:connector-curvature="0" />
	<g
   id="g10">
		<path
   style="clip-rule:evenodd;fill:#b38b27;fill-rule:evenodd"
   d="m 43.2,11.5 0.05,1.85 -0.8,0.85 c -0.033,-1.067 -0.066,-1.7 -0.101,-1.9 h -0.1 l -0.4,-0.25 c -0.199,-0.167 -0.416,-0.3 -0.649,-0.4 -0.4,-0.2 -0.617,-0.083 -0.65,0.35 -0.033,0.733 -0.017,2.117 0.05,4.15 l -1.7,1.75 c 0,-2.767 -0.117,-4.183 -0.351,-4.25 l -0.3,-2.25 z"
   id="path4"
   inkscape:connector-curvature="0" />
		<path
   style="clip-rule:evenodd;fill:#b38b27;fill-rule:evenodd"
   d="m 23.65,11.15 9.45,0.15 c -0.633,2.434 -0.8,4.517 -0.5,6.25 0.133,0.8 0.183,1.667 0.15,2.6 0,0.267 -0.083,1.633 -0.25,4.1 l -1.55,1.5 c 0.133,-2.433 0.083,-4.033 -0.15,-4.8 -0.333,-0.534 -0.583,-1.083 -0.75,-1.65 -0.233,-1 -0.566,-1.117 -1,-0.35 -0.466,0.8 -0.65,2.117 -0.55,3.95 0.067,1.434 0.167,3.033 0.3,4.8 l -0.55,0.45 c 0.067,-3.2 -0.1,-4.984 -0.5,-5.351 l -0.65,0.4 -0.4,2.55 -0.15,3.95 -0.9,0.8 -0.1,-3.85 C 24.683,20.283 24.05,15.117 23.65,11.15 Z"
   id="path6"
   inkscape:connector-curvature="0" />
		<path
   style="clip-rule:evenodd;fill:#b38b27;fill-rule:evenodd"
   d="m 36.95,19.9 -1.35,1.35 c 0.1,-2.367 0.1,-4.383 0,-6.05 -0.167,-1.5 -0.283,-2.5 -0.35,-3 -0.067,-0.434 -0.133,-0.717 -0.2,-0.85 H 37 c -0.067,0.767 -0.067,1.433 0,2 0.066,0.733 0.05,2.917 -0.05,6.55 z"
   id="path8"
   inkscape:connector-curvature="0" />
	</g>
	<path
   style="clip-rule:evenodd;fill:#ba9129;fill-rule:evenodd"
   d="m 0.5,18.45 -0.5,-2.6 12.55,-3.9 6,3.95 c 3.967,2.967 5.867,5.3 5.7,7 -0.233,2.767 -0.267,5.734 -0.1,8.9 -4.6,-2.434 -8.917,-4.783 -12.95,-7.05 -3.433,-1.933 -7,-4.033 -10.7,-6.3 z"
   id="path12"
   inkscape:connector-curvature="0" />
	<path
   style="clip-rule:evenodd;fill:#d6a731;fill-rule:evenodd"
   d="M 0,15.85 C 3.633,13.283 7.233,10.817 10.8,8.45 14.4,6.083 17.617,4.067 20.45,2.4 l 22.75,9.1 c -6.167,5.2 -10.284,8.75 -12.35,10.65 -2.067,1.9 -4.333,3.8 -6.8,5.7 -6.1,-3.2 -10.883,-5.633 -14.35,-7.3 z"
   id="path14"
   inkscape:connector-curvature="0" />
	<g
   id="g32">
		<path
   style="clip-rule:evenodd;fill:#e3b236;fill-rule:evenodd"
   d="M 4.5,18.05 C 4.067,17.517 3.617,16.867 3.15,16.1 2.65,15.333 2.283,14.767 2.05,14.4 l 2.2,-1.5 c 0.267,0.333 0.717,1.117 1.35,2.35 0.667,1.3 1.333,2.433 2,3.4 0.833,1.2 2.566,2.067 5.2,2.6 4.067,0.833 6.684,1.467 7.85,1.9 2.267,0.867 4.283,1.733 6.05,2.6 l -1.15,0.9 c -1.833,-0.867 -3.816,-1.6 -5.95,-2.2 l -4.05,-1 z"
   id="path16"
   inkscape:connector-curvature="0" />
		<path
   style="clip-rule:evenodd;fill:#e3b236;fill-rule:evenodd"
   d="M 30.8,22.2 C 29.033,21.733 26.867,20.783 24.3,19.35 21.6,17.783 19.75,16.733 18.75,16.2 17.783,15.7 16.717,14.533 15.55,12.7 14.917,11.666 13.933,9.867 12.6,7.3 l 0.8,-0.55 1.1,2.2 c 1.767,3.733 6.033,7 12.8,9.8 2,0.867 3.817,1.433 5.45,1.7 z"
   id="path18"
   inkscape:connector-curvature="0" />
		<path
   style="clip-rule:evenodd;fill:#e3b236;fill-rule:evenodd"
   d="m 43.2,11.5 -0.95,0.8 -0.4,-0.25 C 41.45,11.783 40.366,11 38.6,9.7 Z"
   id="path20"
   inkscape:connector-curvature="0" />
		<path
   style="clip-rule:evenodd;fill:#e3b236;fill-rule:evenodd"
   d="m 21.65,19.65 c 2.6,1.2 5.067,2.567 7.4,4.1 l -1.15,1 C 26.733,23.95 25.367,23.117 23.8,22.25 20.933,20.75 16.35,19.467 10.05,18.4 8.85,18.2 7.783,17.4 6.85,16 6.417,15.367 5.8,14.167 5,12.4 l 1.45,-1 c 1.1,3.467 3.233,5.583 6.4,6.35 0.267,0.067 1.7,0.3 4.3,0.7 1.833,0.267 3.333,0.667 4.5,1.2 z"
   id="path22"
   inkscape:connector-curvature="0" />
		<path
   style="clip-rule:evenodd;fill:#e3b236;fill-rule:evenodd"
   d="M 25.65,4.5 C 24.617,4.8 23.667,4.95 22.8,4.95 20.667,4.95 19.067,4.6 18,3.9 l 2.45,-1.5 z"
   id="path24"
   inkscape:connector-curvature="0" />
		<path
   style="clip-rule:evenodd;fill:#e3b236;fill-rule:evenodd"
   d="M 29.5,11 C 24.767,9.933 22.267,9.367 22,9.3 20.6,8.9 19.383,8.283 18.35,7.45 17.65,6.85 16.916,6.033 16.15,5 l 1.7,-1 c 1.333,1.6 2.483,2.683 3.45,3.25 0.9,0.533 3.083,1.183 6.55,1.95 3.933,0.867 7.017,1.767 9.25,2.7 1.7,0.767 2.867,1.367 3.5,1.8 L 38.8,15.25 36,13.35 C 34.567,12.417 32.4,11.633 29.5,11 Z"
   id="path26"
   inkscape:connector-curvature="0" />
		<path
   style="clip-rule:evenodd;fill:#e3b236;fill-rule:evenodd"
   d="m 10.55,8.65 0.25,-0.2 0.95,-0.6 c 1.767,1.7 2.917,3.417 3.45,5.15 0.566,2.033 -0.35,2.917 -2.75,2.65 C 9.817,15.35 8.133,13.717 7.4,10.75 L 8.3,10.1 c 0.667,1.066 1.467,1.783 2.4,2.15 0.733,0.333 1.4,0.4 2,0.2 0.833,-0.267 0.117,-1.533 -2.15,-3.8 z"
   id="path28"
   inkscape:connector-curvature="0" />
		<path
   style="clip-rule:evenodd;fill:#e3b236;fill-rule:evenodd"
   d="m 31.8,16.45 c -3.033,-0.833 -5.283,-1.467 -6.75,-1.9 -2.566,-0.733 -4.466,-1.533 -5.7,-2.4 C 18.317,11.45 17.4,10.517 16.6,9.35 16.367,9.05 15.7,7.933 14.6,6 l 0.6,-0.35 0.3,0.45 c 0.8,1.3 2.683,2.633 5.65,4 1.533,0.733 4.35,1.85 8.45,3.35 2.267,0.833 4.767,1.917 7.5,3.25 l -1.4,1.2 c -1.033,-0.467 -2.333,-0.95 -3.9,-1.45 z"
   id="path30"
   inkscape:connector-curvature="0" />
	</g>
	<path
   style="clip-rule:evenodd;fill:#a37f24;fill-rule:evenodd"
   d="m 33.85,9.5 c 2.2,0.8 4.4,1.583 6.6,2.35 L 37.7,13.2 c -0.066,-1.067 -0.316,-1.417 -0.75,-1.05 -0.3,0.267 -0.417,0.483 -0.35,0.65 0.066,0.133 0.2,0.317 0.4,0.55 0.167,0.3 0.5,0.55 1,0.75 l -0.7,1.05 c -0.3,0.434 -0.65,0.833 -1.05,1.2 -0.5,0.433 -0.95,0.833 -1.35,1.2 -0.467,0.467 -0.717,0.867 -0.75,1.2 0,0.2 0.033,0.333 0.1,0.4 l -2.15,1.8 c -0.167,0.167 -0.517,0.4 -1.05,0.7 l -0.8,0.35 0.25,0.4 -1.9,1.8 -0.75,0.25 c -0.3,0.1 -0.867,0.15 -1.7,0.15 H 25 l -0.55,0.25 c -0.333,0.167 -1,0.2 -2,0.1 -1.167,-0.1 -2.167,-0.35 -3,-0.75 -0.434,-0.2 -0.6,-0.633 -0.5,-1.3 0.1,-0.9 0.117,-1.433 0.05,-1.6 -0.1,-0.267 -0.167,-0.933 -0.2,-2 -0.033,-1 -0.117,-1.617 -0.25,-1.85 -0.233,-0.333 -0.617,-0.633 -1.15,-0.9 -0.633,-0.333 -1.283,-0.5 -1.95,-0.5 -0.633,0 -1.017,0.133 -1.15,0.4 -0.066,0.167 -0.066,0.466 0,0.9 0.1,0.367 -0.017,0.617 -0.35,0.75 -0.367,0.133 -0.917,0.05 -1.65,-0.25 l -9.25,-3.15 0.5,-1.5 11.3,-6.9 0.5,0.25 2.85,-2.8 4,1.35 1.95,-0.35 c 0.233,-0.067 1.15,0.633 2.75,2.1 0.167,0.133 2.483,1.017 6.95,2.65 z"
   id="path34"
   inkscape:connector-curvature="0" />
	<path
   style="clip-rule:evenodd;fill:#d1ad26;fill-rule:evenodd"
   d="m 17.05,15.8 -0.4,-10.35 1,-4.35 0.65,-0.75 0.05,5.3 c 0,0.733 -0.05,1.317 -0.15,1.75 z"
   id="path36"
   inkscape:connector-curvature="0" />
	
		<linearGradient
   id="SVGID_1_"
   gradientUnits="userSpaceOnUse"
   x1="8.3062"
   y1="-16.6973"
   x2="10.864"
   y2="-16.6973"
   gradientTransform="matrix(0.0782,0.9969,-0.9969,0.0782,-3.421381e-4,-5.089566e-4)">
		<stop
   offset="0"
   style="stop-color:#BF9E23"
   id="stop38" />
		<stop
   offset="0.9882"
   style="stop-color:#E3BC29"
   id="stop40" />
	</linearGradient>
	<path
   style="clip-rule:evenodd;fill:url(#SVGID_1_);fill-rule:evenodd"
   d="m 17.65,8.3 c 0,0.867 -0.083,1.3 -0.25,1.3 -0.167,0 -0.25,-0.434 -0.25,-1.3 0,-0.833 0.083,-1.25 0.25,-1.25 0.167,0 0.25,0.417 0.25,1.25 z"
   id="path43"
   inkscape:connector-curvature="0" />
	
		<linearGradient
   id="SVGID_2_"
   gradientUnits="userSpaceOnUse"
   x1="3.9707"
   y1="-17.5889"
   x2="6.2544999"
   y2="-17.5889"
   gradientTransform="matrix(0.0876,0.9962,-0.9962,0.0876,1.899973e-4,-2.484098e-4)">
		<stop
   offset="0"
   style="stop-color:#BF9E23"
   id="stop45" />
		<stop
   offset="0.9882"
   style="stop-color:#E3BC29"
   id="stop47" />
	</linearGradient>
	<path
   style="clip-rule:evenodd;fill:url(#SVGID_2_);fill-rule:evenodd"
   d="m 18.25,3.65 c 0,0.733 -0.083,1.1 -0.25,1.1 -0.2,0 -0.3,-0.367 -0.3,-1.1 0,-0.767 0.1,-1.15 0.3,-1.15 0.167,0 0.25,0.383 0.25,1.15 z"
   id="path50"
   inkscape:connector-curvature="0" />
	<path
   style="clip-rule:evenodd;fill:#f0c72b;fill-rule:evenodd"
   d="m 16.65,1.6 0.4,14.2 C 17.017,15.433 16.9,14.85 16.7,14.05 l -1.35,-4.9 v -0.7 c 0,-0.467 -0.2,-3.083 -0.6,-7.85 z"
   id="path52"
   inkscape:connector-curvature="0" />
	
		<linearGradient
   id="SVGID_3_"
   gradientUnits="userSpaceOnUse"
   x1="9.3857002"
   y1="-13.1948"
   x2="10.1927"
   y2="-13.1948"
   gradientTransform="matrix(0.2788,0.9603,-0.9642,0.2654,3.23236e-4,-2.876818e-4)">
		<stop
   offset="0"
   style="stop-color:#DEB416"
   id="stop54" />
		<stop
   offset="0.9882"
   style="stop-color:#FFD742"
   id="stop56" />
	</linearGradient>
	<path
   style="clip-rule:evenodd;fill:url(#SVGID_3_);fill-rule:evenodd"
   d="m 15.7,6 c 0.066,1 0.017,1.5 -0.15,1.5 -0.1,0 -0.183,-0.483 -0.25,-1.45 -0.066,-0.933 -0.033,-1.433 0.1,-1.5 0.133,0 0.233,0.483 0.3,1.45 z"
   id="path59"
   inkscape:connector-curvature="0" />
	
		<linearGradient
   id="SVGID_4_"
   gradientUnits="userSpaceOnUse"
   x1="13.8765"
   y1="-12.751"
   x2="14.7865"
   y2="-12.751"
   gradientTransform="matrix(0.2747,0.9615,-0.9644,0.2647,2.368987e-4,2.373159e-4)">
		<stop
   offset="0"
   style="stop-color:#DEB416"
   id="stop61" />
		<stop
   offset="0.9882"
   style="stop-color:#FFD742"
   id="stop63" />
	</linearGradient>
	<path
   style="clip-rule:evenodd;fill:url(#SVGID_4_);fill-rule:evenodd"
   d="m 16.5,10.5 c 0.067,0.933 0.017,1.4 -0.15,1.4 -0.133,0.067 -0.233,-0.383 -0.3,-1.35 0,-0.867 0.05,-1.333 0.15,-1.4 0.133,0 0.233,0.45 0.3,1.35 z"
   id="path66"
   inkscape:connector-curvature="0" />
	<path
   style="clip-rule:evenodd;fill:#ffdc59;fill-rule:evenodd"
   d="M 14.75,0.6 15.1,0.5 C 15.467,0.4 15.95,0.35 16.55,0.35 H 18.3 C 18.033,0.95 17.767,1.867 17.5,3.1 L 16.7,7.55 16,5.2 C 15.667,4.1 15.25,2.567 14.75,0.6 Z"
   id="path68"
   inkscape:connector-curvature="0" />
	<path
   style="clip-rule:evenodd;fill:#f0c72b;fill-rule:evenodd"
   d="m 13.25,5.4 1.9,2.55 0.35,7.25 C 14.1,14.5 12.917,13.75 11.95,12.95 L 9.4,11 C 9.267,10.433 9.183,9.9 9.15,9.4 L 8.8,3.45 10.4,3.4 Z"
   id="path70"
   inkscape:connector-curvature="0" />
	
		<linearGradient
   id="SVGID_5_"
   gradientUnits="userSpaceOnUse"
   x1="11.1582"
   y1="-9.9892998"
   x2="13.7784"
   y2="-9.9892998"
   gradientTransform="matrix(0.267,0.9637,-0.9637,0.267,-1.353025e-5,-6.130338e-5)">
		<stop
   offset="0"
   style="stop-color:#DEB416"
   id="stop72" />
		<stop
   offset="0.9882"
   style="stop-color:#FFD742"
   id="stop74" />
	</linearGradient>
	<path
   style="clip-rule:evenodd;fill:url(#SVGID_5_);fill-rule:evenodd"
   d="m 13.65,9.45 c 0.067,1.133 -0.117,1.733 -0.55,1.8 -0.167,0.033 -0.333,-0.117 -0.5,-0.45 -0.133,-0.3 -0.217,-0.7 -0.25,-1.2 -0.033,-0.467 0.017,-0.883 0.15,-1.25 0.1,-0.333 0.233,-0.517 0.4,-0.55 0.4,-0.067 0.65,0.483 0.75,1.65 z"
   id="path77"
   inkscape:connector-curvature="0" />
	
		<linearGradient
   id="SVGID_6_"
   gradientUnits="userSpaceOnUse"
   x1="15.2334"
   y1="-10.4199"
   x2="17.149799"
   y2="-10.4199"
   gradientTransform="matrix(0.2649,0.9643,-0.9643,0.2649,2.54333e-4,-1.817346e-4)">
		<stop
   offset="0"
   style="stop-color:#DEB416"
   id="stop79" />
		<stop
   offset="0.9882"
   style="stop-color:#FFD742"
   id="stop81" />
	</linearGradient>
	<path
   style="clip-rule:evenodd;fill:url(#SVGID_6_);fill-rule:evenodd"
   d="m 14.8,12.9 c 0.067,0.8 -0.066,1.2 -0.4,1.2 -0.267,0.066 -0.433,-0.283 -0.5,-1.05 -0.066,-0.767 0.067,-1.183 0.4,-1.25 0.333,0 0.5,0.367 0.5,1.1 z"
   id="path84"
   inkscape:connector-curvature="0" />
	
		<linearGradient
   id="SVGID_7_"
   gradientUnits="userSpaceOnUse"
   x1="8.4082003"
   y1="-7.7417002"
   x2="11.0284"
   y2="-7.7417002"
   gradientTransform="matrix(0.267,0.9637,-0.9637,0.267,-1.353025e-5,-6.130338e-5)">
		<stop
   offset="0"
   style="stop-color:#DEB416"
   id="stop86" />
		<stop
   offset="0.9882"
   style="stop-color:#FFD742"
   id="stop88" />
	</linearGradient>
	<path
   style="clip-rule:evenodd;fill:url(#SVGID_7_);fill-rule:evenodd"
   d="m 10.7,7.35 c 0.033,0.467 0,0.883 -0.1,1.25 C 10.467,8.967 10.317,9.166 10.15,9.2 9.983,9.233 9.833,9.083 9.7,8.75 9.567,8.417 9.483,8.017 9.45,7.55 9.417,7.083 9.467,6.667 9.6,6.3 9.7,5.933 9.833,5.733 10,5.7 c 0.4,-0.067 0.633,0.483 0.7,1.65 z"
   id="path91"
   inkscape:connector-curvature="0" />
	<path
   style="clip-rule:evenodd;fill:#ffdc59;fill-rule:evenodd"
   d="m 8.8,3.4 1.8,-1.1 2.1,-0.8 2.25,6.1 0.2,0.4 C 13.283,6.767 11.967,5.867 11.2,5.3 Z"
   id="path93"
   inkscape:connector-curvature="0" />
	<path
   style="clip-rule:evenodd;fill:#ffd63b;fill-rule:evenodd"
   d="M 3.05,15.3 2.6,7.55 3.9,7.15 7,7.55 l 5.15,2.05 0.2,7.65 C 10.017,16.95 8.333,16.667 7.3,16.4 Z"
   id="path95"
   inkscape:connector-curvature="0" />
	<path
   style="clip-rule:evenodd;fill:#ffdc59;fill-rule:evenodd"
   d="m 12.15,9.6 0.2,7.4 c -0.3,-3.8 -0.6,-5.933 -0.9,-6.4 C 11.283,10.333 10.65,10.083 9.55,9.85 8.217,9.617 7.267,9.417 6.7,9.25 5.6,8.917 4.233,8.35 2.6,7.55 L 3.7,7.4 Z"
   id="path97"
   inkscape:connector-curvature="0" />
	<path
   style="clip-rule:evenodd;fill:#ffdc59;fill-rule:evenodd"
   d="M 12.15,9.6 C 9.317,9.2 7.334,8.867 6.2,8.6 4.8,8.267 3.6,7.917 2.6,7.55 3.3,6.55 4.067,5.817 4.9,5.35 5.733,4.883 6.35,4.633 6.75,4.6 Z"
   id="path99"
   inkscape:connector-curvature="0" />
	
		<linearGradient
   id="SVGID_8_"
   gradientUnits="userSpaceOnUse"
   x1="9.9741001"
   y1="-1.2256"
   x2="12.5462"
   y2="-1.2256"
   gradientTransform="matrix(0.2722,0.9623,-0.9623,0.2722,3.215969e-4,-1.032054e-4)">
		<stop
   offset="0"
   style="stop-color:#DEB416"
   id="stop101" />
		<stop
   offset="0.9882"
   style="stop-color:#FFD742"
   id="stop103" />
	</linearGradient>
	<path
   style="clip-rule:evenodd;fill:url(#SVGID_8_);fill-rule:evenodd"
   d="M 4.9,10.5 C 4.967,11.4 4.783,11.883 4.35,11.95 3.95,12.016 3.717,11.6 3.65,10.7 3.583,9.833 3.767,9.367 4.2,9.3 4.6,9.233 4.833,9.633 4.9,10.5 Z"
   id="path106"
   inkscape:connector-curvature="0" />
	
		<linearGradient
   id="SVGID_9_"
   gradientUnits="userSpaceOnUse"
   x1="13.1387"
   y1="-0.9971"
   x2="15.0995"
   y2="-0.9971"
   gradientTransform="matrix(0.3295,0.9442,-0.9442,0.3295,-3.064275e-4,-1.510084e-4)">
		<stop
   offset="0"
   style="stop-color:#DEB416"
   id="stop108" />
		<stop
   offset="0.9882"
   style="stop-color:#FFD742"
   id="stop110" />
	</linearGradient>
	<path
   style="clip-rule:evenodd;fill:url(#SVGID_9_);fill-rule:evenodd"
   d="m 6.1,13 c 0.066,0.667 -0.05,1.033 -0.35,1.1 -0.333,0.1 -0.533,-0.184 -0.6,-0.85 -0.033,-0.267 0,-0.517 0.1,-0.75 0.067,-0.233 0.167,-0.367 0.3,-0.4 0.3,-0.133 0.483,0.167 0.55,0.9 z"
   id="path113"
   inkscape:connector-curvature="0" />
	
		<linearGradient
   id="SVGID_10_"
   gradientUnits="userSpaceOnUse"
   x1="11.6099"
   y1="-4.7856002"
   x2="15.0371"
   y2="-4.7856002"
   gradientTransform="matrix(0.2677,0.9635,-0.9635,0.2677,1.716018e-4,3.399551e-4)">
		<stop
   offset="0"
   style="stop-color:#DEB416"
   id="stop115" />
		<stop
   offset="0.9882"
   style="stop-color:#FFD742"
   id="stop117" />
	</linearGradient>
	<path
   style="clip-rule:evenodd;fill:url(#SVGID_10_);fill-rule:evenodd"
   d="M 9.05,11.6 C 9.084,12.1 9.017,12.55 8.85,12.95 8.717,13.317 8.533,13.516 8.3,13.55 8.067,13.617 7.867,13.467 7.7,13.1 7.533,12.767 7.433,12.35 7.4,11.85 7.367,11.35 7.417,10.9 7.55,10.5 7.717,10.133 7.917,9.933 8.15,9.9 c 0.233,-0.033 0.434,0.117 0.6,0.45 0.167,0.333 0.267,0.75 0.3,1.25 z"
   id="path120"
   inkscape:connector-curvature="0" />
	
		<linearGradient
   id="SVGID_11_"
   gradientUnits="userSpaceOnUse"
   x1="16.346201"
   y1="-6.4180002"
   x2="18.2143"
   y2="-6.4180002"
   gradientTransform="matrix(0.2654,0.9641,-0.9641,0.2654,1.216829e-4,2.604723e-4)">
		<stop
   offset="0"
   style="stop-color:#DEB416"
   id="stop122" />
		<stop
   offset="0.9882"
   style="stop-color:#FFD742"
   id="stop124" />
	</linearGradient>
	<path
   style="clip-rule:evenodd;fill:url(#SVGID_11_);fill-rule:evenodd"
   d="m 11.25,15 c 0.067,0.667 -0.067,1.033 -0.4,1.1 -0.267,0.066 -0.434,-0.25 -0.5,-0.95 0,-0.667 0.133,-1.033 0.4,-1.1 0.133,-0.033 0.25,0.05 0.35,0.25 0.1,0.2 0.15,0.433 0.15,0.7 z"
   id="path127"
   inkscape:connector-curvature="0" />
	
		<linearGradient
   id="SVGID_12_"
   gradientUnits="userSpaceOnUse"
   x1="6.7719998"
   y1="4.3105001"
   x2="7.6781998"
   y2="4.3105001"
   gradientTransform="matrix(0.9104,0.4138,-0.4138,0.9104,-1.439452e-4,-4.640222e-4)">
		<stop
   offset="0"
   style="stop-color:#DEB416"
   id="stop129" />
		<stop
   offset="0.9882"
   style="stop-color:#FFD742"
   id="stop131" />
	</linearGradient>
	<path
   style="clip-rule:evenodd;fill:url(#SVGID_12_);fill-rule:evenodd"
   d="M 4.75,6.35 C 5.217,6.217 5.45,6.333 5.45,6.7 5.517,7.067 5.333,7.317 4.9,7.45 4.467,7.65 4.217,7.55 4.15,7.15 c 0,-0.367 0.2,-0.633 0.6,-0.8 z"
   id="path134"
   inkscape:connector-curvature="0" />
	
		<linearGradient
   id="SVGID_13_"
   gradientUnits="userSpaceOnUse"
   x1="8.9428997"
   y1="2.7427001"
   x2="10.162"
   y2="2.7427001"
   gradientTransform="matrix(0.8795,0.476,-0.476,0.8795,8.940697e-6,-9.086728e-5)">
		<stop
   offset="0"
   style="stop-color:#DEB416"
   id="stop136" />
		<stop
   offset="0.9882"
   style="stop-color:#FFD742"
   id="stop138" />
	</linearGradient>
	<path
   style="clip-rule:evenodd;fill:url(#SVGID_13_);fill-rule:evenodd"
   d="M 7.1,6.25 C 7.333,6.183 7.533,6.2 7.7,6.3 7.9,6.4 8,6.55 8,6.75 8.067,7.217 7.8,7.533 7.2,7.7 6.667,7.833 6.367,7.65 6.3,7.15 6.267,6.983 6.333,6.8 6.5,6.6 6.667,6.433 6.867,6.317 7.1,6.25 Z"
   id="path141"
   inkscape:connector-curvature="0" />
	
		<linearGradient
   id="SVGID_14_"
   gradientUnits="userSpaceOnUse"
   x1="11.0513"
   y1="-1.1162"
   x2="11.8687"
   y2="-1.1162"
   gradientTransform="matrix(0.9176,0.3976,-0.4342,0.9017,4.759431e-5,4.705787e-5)">
		<stop
   offset="0"
   style="stop-color:#DEB416"
   id="stop143" />
		<stop
   offset="0.9882"
   style="stop-color:#FFD742"
   id="stop145" />
	</linearGradient>
	<path
   style="clip-rule:evenodd;fill:url(#SVGID_14_);fill-rule:evenodd"
   d="M 10.95,3.1 C 11.317,2.967 11.533,3.05 11.6,3.35 11.6,3.617 11.416,3.833 11.05,4 10.683,4.133 10.467,4.05 10.4,3.75 10.4,3.417 10.583,3.2 10.95,3.1 Z"
   id="path148"
   inkscape:connector-curvature="0" />
	
		<linearGradient
   id="SVGID_15_"
   gradientUnits="userSpaceOnUse"
   x1="12.9468"
   y1="-2.6104"
   x2="13.9458"
   y2="-2.6104"
   gradientTransform="matrix(0.8508,0.5255,-0.5369,0.8437,-1.580119e-4,-2.95043e-5)">
		<stop
   offset="0"
   style="stop-color:#DEB416"
   id="stop150" />
		<stop
   offset="0.9882"
   style="stop-color:#FFD742"
   id="stop152" />
	</linearGradient>
	<path
   style="clip-rule:evenodd;fill:url(#SVGID_15_);fill-rule:evenodd"
   d="m 12.8,4.3 c 0.5,-0.066 0.75,0.083 0.75,0.45 0,0.4 -0.216,0.633 -0.65,0.7 -0.5,0.066 -0.75,-0.1 -0.75,-0.5 0,-0.367 0.217,-0.583 0.65,-0.65 z"
   id="path155"
   inkscape:connector-curvature="0" />
	
		<linearGradient
   id="SVGID_16_"
   gradientUnits="userSpaceOnUse"
   x1="14.9648"
   y1="-8.5307999"
   x2="15.7207"
   y2="-8.5307999"
   gradientTransform="matrix(0.8269,0.5623,-0.5034,0.867,1.235008e-4,-5.475879e-4)">
		<stop
   offset="0"
   style="stop-color:#DEB416"
   id="stop157" />
		<stop
   offset="0.9882"
   style="stop-color:#FFD742"
   id="stop159" />
	</linearGradient>
	<path
   style="clip-rule:evenodd;fill:url(#SVGID_16_);fill-rule:evenodd"
   d="m 17,0.75 c 0.3,-0.067 0.483,0.067 0.55,0.4 0,0.333 -0.167,0.533 -0.5,0.6 C 16.683,1.817 16.5,1.667 16.5,1.3 16.5,0.933 16.667,0.75 17,0.75 Z"
   id="path162"
   inkscape:connector-curvature="0" />
	
		<linearGradient
   id="SVGID_17_"
   gradientUnits="userSpaceOnUse"
   x1="15.4023"
   y1="-6.8203001"
   x2="16.1376"
   y2="-6.8203001"
   gradientTransform="matrix(0.816,0.578,-0.4821,0.8839,7.578731e-5,8.571148e-5)">
		<stop
   offset="0"
   style="stop-color:#DEB416"
   id="stop164" />
		<stop
   offset="0.9882"
   style="stop-color:#FFD742"
   id="stop166" />
	</linearGradient>
	<path
   style="clip-rule:evenodd;fill:url(#SVGID_17_);fill-rule:evenodd"
   d="m 16.15,2.55 c 0.3,-0.066 0.483,0.1 0.55,0.5 0,0.4 -0.167,0.6 -0.5,0.6 -0.3,0.067 -0.483,-0.1 -0.55,-0.5 0,-0.333 0.167,-0.533 0.5,-0.6 z"
   id="path169"
   inkscape:connector-curvature="0" />
	<path
   style="clip-rule:evenodd;fill:#7d7b16;fill-rule:evenodd"
   d="m 21.8,6.2 c 0.5,-0.467 0.684,-0.85 0.55,-1.15 -0.1,-0.267 -0.05,-0.267 0.15,0 0.1,0.133 0.217,0.3 0.35,0.5 L 23,5.9 c 0.033,0.1 0.1,0.05 0.2,-0.15 0.133,-0.2 0.233,-0.25 0.3,-0.15 0.1,0.2 0.25,0.667 0.45,1.4 0.066,0.233 0.083,0.1 0.05,-0.4 0.067,-0.033 0.2,0.367 0.4,1.2 0.2,0.833 0.283,1.45 0.25,1.85 -0.167,1.3 -0.433,2.483 -0.8,3.55 -0.133,0.333 -0.383,0.716 -0.75,1.15 -0.367,0.4 -0.667,0.617 -0.9,0.65 -0.633,0.367 -1.1,0.533 -1.4,0.5 -0.2,-0.033 -0.383,-0.167 -0.55,-0.4 l -0.4,-0.65 c -0.333,-0.1 -0.533,-0.267 -0.6,-0.5 -0.1,-0.467 -0.217,-0.75 -0.35,-0.85 -0.167,-0.067 -0.267,-0.283 -0.3,-0.65 l -0.35,-1.1 c -0.033,-0.4 -0.083,-0.733 -0.15,-1 C 17.933,10.217 17.817,10 17.75,9.7 L 17.55,8.65 V 7 l 0.55,-0.6 1.15,0.1 c 0.8,0.067 1.3,0.15 1.5,0.25 0.2,0.1 0.55,-0.083 1.05,-0.55 z"
   id="path171"
   inkscape:connector-curvature="0" />
	<path
   style="clip-rule:evenodd;fill:#a8a51d;fill-rule:evenodd"
   d="m 22.65,5.5 c 0.033,0.1 0.117,0.083 0.25,-0.05 0.267,-0.267 0.467,-0.217 0.6,0.15 0.033,0.1 0.05,0.3 0.05,0.6 0.067,0.233 0.133,0.333 0.2,0.3 0.2,-0.067 0.333,0.067 0.4,0.4 0.033,0.2 0.067,0.517 0.1,0.95 0.133,0.2 0.183,0.45 0.15,0.75 -0.033,0.433 -0.167,1.1 -0.4,2 -0.3,1.167 -0.583,1.883 -0.85,2.15 -0.333,0.4 -0.867,0.783 -1.6,1.15 -0.8,0.4 -1.283,0.434 -1.45,0.1 -0.4,-0.8 -0.65,-1.233 -0.75,-1.3 -0.1,-0.034 -0.2,-0.25 -0.3,-0.65 C 18.984,11.683 18.933,11.5 18.9,11.5 18.834,11.167 18.767,10.867 18.7,10.6 18.633,10.333 18.55,10.133 18.45,10 18.25,9.633 18.083,9.117 17.95,8.45 17.95,8.416 17.833,8.133 17.6,7.6 17.367,7.067 17.483,6.45 17.95,5.75 c 0.633,-0.933 1.333,-1.367 2.1,-1.3 0.434,0 0.817,0.083 1.15,0.25 0.233,-0.067 0.367,-0.067 0.4,0 0.033,0.033 0.1,0.083 0.2,0.15 0.133,0.1 0.233,0.1 0.3,0 0.1,-0.1 0.183,-0.117 0.25,-0.05 0.033,0.034 0.1,0.133 0.2,0.3 0.067,0.1 0.1,0.233 0.1,0.4 z"
   id="path173"
   inkscape:connector-curvature="0" />
	<path
   style="clip-rule:evenodd;fill:#bdb921;fill-rule:evenodd"
   d="m 20.25,5.75 c 0.733,0.133 1.267,0.5 1.6,1.1 0.066,0.1 0.233,0.283 0.5,0.55 0.2,0.2 0.333,0.4 0.4,0.6 0.167,0.433 0.167,0.95 0,1.55 -0.167,0.633 -0.517,1.133 -1.05,1.5 -0.133,0.133 -0.367,0.133 -0.7,0 -0.267,-0.133 -0.5,-0.3 -0.7,-0.5 C 20.167,10.417 20.05,10.2 19.95,9.9 19.75,9.334 19.633,9.017 19.6,8.95 19.467,8.65 19.383,8.317 19.35,7.95 19.317,7.35 19.283,7 19.25,6.9 19.217,6.5 19.317,6.2 19.55,6 c 0.2,-0.2 0.433,-0.283 0.7,-0.25 z"
   id="path175"
   inkscape:connector-curvature="0" />
	<path
   style="clip-rule:evenodd;fill:#c4c022;fill-rule:evenodd"
   d="M 21.4,4.85 C 21.3,4.817 21.117,4.783 20.85,4.75 20.483,4.717 20.1,4.733 19.7,4.8 19.333,4.834 19.117,4.867 19.05,4.9 18.817,4.967 18.533,5.15 18.2,5.45 c 0.667,-0.7 1.283,-1.034 1.85,-1 0.434,0 0.817,0.083 1.15,0.25 0.233,-0.067 0.367,-0.067 0.4,0 0.033,0.033 0.1,0.083 0.2,0.15 0.133,0.1 0.233,0.1 0.3,0 0.1,-0.1 0.183,-0.117 0.25,-0.05 0.033,0.034 0.1,0.133 0.2,0.3 0.067,0.1 0.1,0.233 0.1,0.4 0.033,0.1 0.117,0.083 0.25,-0.05 0.267,-0.267 0.467,-0.217 0.6,0.15 0.033,0.1 0.05,0.3 0.05,0.6 0.067,0.233 0.133,0.333 0.2,0.3 0.2,-0.067 0.333,0.067 0.4,0.4 0.033,0.2 0.067,0.517 0.1,0.95 0.133,0.2 0.183,0.45 0.15,0.75 -0.033,0.4 -0.167,1.066 -0.4,2 -0.3,1.133 -0.567,1.85 -0.8,2.15 -0.067,-0.067 -0.034,-0.2 0.1,-0.4 0.367,-0.667 0.6,-1.434 0.7,-2.3 0.033,-0.667 0,-1.117 -0.1,-1.35 -0.066,-0.133 -0.066,-0.333 0,-0.6 l 0.15,-0.35 -0.1,-0.2 c -0.034,-0.1 -0.583,0.667 -1.65,2.3 -0.7,1.1 -1.4,2.017 -2.1,2.75 -0.467,0.5 -0.083,-0.067 1.15,-1.7 0.467,-0.533 1.15,-1.7 2.05,-3.5 0.1,-0.267 0.117,-0.55 0.05,-0.85 0,-0.133 -0.034,-0.283 -0.1,-0.45 -0.067,-0.167 -0.133,-0.184 -0.2,-0.05 -0.9,1.6 -1.566,2.717 -2,3.35 -0.433,0.633 -1.017,1.217 -1.75,1.75 0.133,-0.133 0.833,-1.017 2.1,-2.65 0.633,-0.733 1.083,-1.567 1.35,-2.5 0.033,-0.2 0.033,-0.3 0,-0.3 -0.033,0 -0.1,0.033 -0.2,0.1 C 22.584,5.834 22.55,5.75 22.55,5.55 22.484,5.35 22.433,5.234 22.4,5.2 22.334,5.166 22.167,5.433 21.9,6 21.867,6.1 21.267,6.917 20.1,8.45 l -1.35,1.4 2.95,-4.1 C 21.867,5.517 21.85,5.267 21.65,5 21.584,4.9 20.933,5.467 19.7,6.7 L 18.15,8 C 18.617,7.4 19.233,6.767 20,6.1 20.233,5.933 20.583,5.683 21.05,5.35 21.383,5.05 21.5,4.883 21.4,4.85 Z"
   id="path177"
   inkscape:connector-curvature="0" />
	<path
   style="clip-rule:evenodd;fill:#7d7b16;fill-rule:evenodd"
   d="m 30.45,2.2 c 0.1,0.167 0.133,0.033 0.1,-0.4 0.067,-0.033 0.2,0.233 0.4,0.8 0.233,0.566 0.333,1.017 0.3,1.35 -0.067,0.833 -0.3,1.917 -0.7,3.25 -0.133,0.367 -0.383,0.816 -0.75,1.35 -0.4,0.534 -0.716,0.883 -0.95,1.05 -0.633,0.633 -1.117,1.033 -1.45,1.2 -0.2,0.067 -0.383,0.05 -0.55,-0.05 C 26.617,10.583 26.467,10.5 26.4,10.5 26.267,10.467 26.133,10.467 26,10.5 25.9,10.533 25.817,10.517 25.75,10.45 25.65,10.117 25.533,9.95 25.4,9.95 25.2,9.983 25.084,9.867 25.05,9.6 25.017,9.333 24.9,9.1 24.7,8.9 24.633,8.6 24.567,8.367 24.5,8.2 24.467,8.133 24.417,8.083 24.35,8.05 24.25,8.017 24.183,7.95 24.15,7.85 L 23.9,7.15 23.85,5.8 24.4,5 27.15,3.8 c 0.233,-0.033 0.6,-0.367 1.1,-1 0.5,-0.667 0.683,-1.1 0.55,-1.3 -0.133,-0.133 -0.083,-0.15 0.15,-0.05 0.1,0.066 0.216,0.133 0.35,0.2 l 0.15,0.2 c 0.066,0.066 0.15,-0.017 0.25,-0.25 0.1,-0.233 0.183,-0.333 0.25,-0.3 0.133,0.067 0.3,0.367 0.5,0.9 z"
   id="path179"
   inkscape:connector-curvature="0" />
	<path
   style="clip-rule:evenodd;fill:#a8a51d;fill-rule:evenodd"
   d="m 30.6,5.05 c -0.267,1.1 -0.533,1.833 -0.8,2.2 -0.333,0.533 -0.867,1.133 -1.6,1.8 -0.833,0.767 -1.333,1.067 -1.5,0.9 C 26.266,9.55 25.983,9.35 25.85,9.35 25.75,9.383 25.65,9.267 25.55,9 25.45,8.767 25.383,8.65 25.35,8.65 25.283,8.45 25.2,8.25 25.1,8.05 25.033,7.883 24.95,7.767 24.85,7.7 24.75,7.6 24.567,7.283 24.3,6.75 24.234,6.617 24.1,6.45 23.9,6.25 c -0.2,-0.3 -0.083,-0.867 0.35,-1.7 0.667,-1.1 1.367,-1.833 2.1,-2.2 0.467,-0.233 0.883,-0.4 1.25,-0.5 L 28,1.65 c 0.167,0.167 0.333,0.117 0.5,-0.15 0.133,-0.167 0.3,-0.167 0.5,0 0.067,0.033 0.1,0.1 0.1,0.2 0.033,0.066 0.117,0.017 0.25,-0.15 0.267,-0.367 0.467,-0.45 0.6,-0.25 0.033,0.067 0.066,0.217 0.1,0.45 0.067,0.167 0.15,0.217 0.25,0.15 0.2,-0.267 0.333,-0.233 0.4,0.1 0.033,0.167 0.066,0.4 0.1,0.7 0.167,0.066 0.233,0.233 0.2,0.5 -0.067,0.4 -0.2,1.017 -0.4,1.85 z"
   id="path181"
   inkscape:connector-curvature="0" />
	<path
   style="clip-rule:evenodd;fill:#bdb921;fill-rule:evenodd"
   d="m 26.6,3.3 c 0.767,-0.333 1.333,-0.35 1.7,-0.05 0.067,0.067 0.233,0.117 0.5,0.15 0.267,0.067 0.434,0.15 0.5,0.25 0.133,0.333 0.133,0.75 0,1.25 -0.167,0.567 -0.517,1.167 -1.05,1.8 -0.133,0.2 -0.367,0.333 -0.7,0.4 -0.3,0.066 -0.566,0.066 -0.8,0 C 26.617,7.067 26.5,6.95 26.4,6.75 26.233,6.483 26.117,6.3 26.05,6.2 25.917,6.033 25.834,5.817 25.8,5.55 25.767,5.217 25.717,4.95 25.65,4.75 25.55,4.483 25.617,4.2 25.85,3.9 26.05,3.6 26.3,3.4 26.6,3.3 Z"
   id="path183"
   inkscape:connector-curvature="0" />
	<path
   style="clip-rule:evenodd;fill:#c4c022;fill-rule:evenodd"
   d="M 30.8,2.7 C 30.967,2.766 31.033,2.933 31,3.2 30.967,3.6 30.833,4.217 30.6,5.05 30.333,6.117 30.083,6.834 29.85,7.2 29.75,7.3 29.783,7.183 29.95,6.85 30.317,6.083 30.533,5.333 30.6,4.6 30.633,4.033 30.583,3.683 30.45,3.55 30.383,3.484 30.383,3.317 30.45,3.05 L 30.6,2.7 30.5,2.6 C 30.433,2.567 29.883,3.5 28.85,5.4 28.217,6.533 27.5,7.667 26.7,8.8 c -1.5,2.167 -1.117,1.5 1.15,-2 0.667,-1.033 1.367,-2.367 2.1,-4 0.1,-0.2 0.1,-0.433 0,-0.7 C 29.95,2 29.916,1.9 29.85,1.8 29.783,1.7 29.7,1.734 29.6,1.9 29.2,2.867 28.55,4.133 27.65,5.7 27.217,6.467 26.617,7.266 25.85,8.1 l 2.1,-3.3 c 0.533,-0.767 0.983,-1.683 1.35,-2.75 0.034,-0.2 0.034,-0.283 0,-0.25 -0.033,0 -0.1,0.05 -0.2,0.15 C 29.033,2.017 29,1.967 29,1.8 28.933,1.667 28.883,1.6 28.85,1.6 28.783,1.633 28.6,1.95 28.3,2.55 28.133,3.017 27.533,4 26.5,5.5 l -1.35,1.9 3,-4.95 C 28.317,2.15 28.283,1.967 28.05,1.9 27.984,1.867 27.334,2.683 26.1,4.35 l -1.6,1.9 C 24.6,6.117 25.217,5.267 26.35,3.7 27.416,2.467 27.9,1.867 27.8,1.9 27.267,2.1 26.683,2.4 26.05,2.8 25.45,3.167 24.933,3.633 24.5,4.2 25.133,3.266 25.75,2.65 26.35,2.35 26.817,2.117 27.233,1.95 27.6,1.85 L 28,1.65 c 0.167,0.167 0.333,0.117 0.5,-0.15 0.133,-0.167 0.3,-0.167 0.5,0 0.067,0.033 0.1,0.1 0.1,0.2 0.033,0.066 0.117,0.017 0.25,-0.15 0.267,-0.367 0.467,-0.45 0.6,-0.25 0.033,0.067 0.066,0.217 0.1,0.45 0.067,0.167 0.15,0.217 0.25,0.15 0.2,-0.267 0.333,-0.233 0.4,0.1 0.033,0.167 0.067,0.4 0.1,0.7 z"
   id="path185"
   inkscape:connector-curvature="0" />
	<path
   style="clip-rule:evenodd;fill:#7d7b16;fill-rule:evenodd"
   d="m 24.95,2.95 c 0.066,0.2 0.1,0.1 0.1,-0.3 0.4,1.267 0.55,2.117 0.45,2.55 -0.1,0.667 -0.417,1.533 -0.95,2.6 -0.133,0.233 -0.4,0.45 -0.8,0.65 C 23.35,8.683 23.033,8.8 22.8,8.8 22.167,8.933 21.7,8.95 21.4,8.85 21.2,8.817 21.033,8.683 20.9,8.45 20.633,8.083 20.5,7.883 20.5,7.85 20.4,7.717 20.283,7.617 20.15,7.55 20.017,7.484 19.933,7.417 19.9,7.35 19.733,6.883 19.633,6.633 19.6,6.6 19.5,6.5 19.416,6.3 19.35,6 19.35,5.7 19.267,5.383 19.1,5.05 19.067,4.717 19.033,4.45 19,4.25 18.833,4.083 18.733,3.883 18.7,3.65 18.6,3.283 18.55,3 18.55,2.8 L 18.6,1.45 19.2,1.15 21.8,2 c 0.2,0.133 0.567,0.083 1.1,-0.15 0.5,-0.267 0.7,-0.517 0.6,-0.75 -0.067,-0.233 -0.017,-0.233 0.15,0 0.1,0.133 0.2,0.283 0.3,0.45 l 0.1,0.3 c 0.067,0.1 0.15,0.083 0.25,-0.05 0.133,-0.1 0.233,-0.117 0.3,-0.05 0.133,0.2 0.25,0.6 0.35,1.2 z"
   id="path187"
   inkscape:connector-curvature="0" />
	<path
   style="clip-rule:evenodd;fill:#a8a51d;fill-rule:evenodd"
   d="m 23.7,1.15 c 0,0.033 0.033,0.15 0.1,0.35 0,0.067 0.067,0.067 0.2,0 0.267,-0.167 0.467,-0.083 0.6,0.25 0.033,0.067 0.05,0.217 0.05,0.45 0.033,0.233 0.083,0.333 0.15,0.3 0.2,0 0.333,0.133 0.4,0.4 0,0.5 0.017,0.767 0.05,0.8 0.1,0.133 0.133,0.333 0.1,0.6 C 24.883,5.967 24.4,6.967 23.9,7.3 23.5,7.533 22.95,7.7 22.25,7.8 21.45,7.933 20.967,7.85 20.8,7.55 20.433,6.817 20.2,6.417 20.1,6.35 20.033,6.283 19.967,6.1 19.9,5.8 19.834,5.467 19.783,5.3 19.75,5.3 19.683,5.3 19.65,5.217 19.65,5.05 19.617,4.817 19.584,4.667 19.55,4.6 19.517,4.367 19.45,4.166 19.35,4 19.283,3.867 19.15,3.433 18.95,2.7 l -0.3,-0.75 c -0.2,-0.4 -0.05,-0.833 0.45,-1.3 0.667,-0.6 1.383,-0.783 2.15,-0.55 0.433,0.1 0.817,0.25 1.15,0.45 0.233,0 0.367,0.034 0.4,0.1 0.2,0.2 0.35,0.283 0.45,0.25 0.1,-0.066 0.183,-0.066 0.25,0 0.033,0.033 0.1,0.117 0.2,0.25 z"
   id="path189"
   inkscape:connector-curvature="0" />
	<path
   style="clip-rule:evenodd;fill:#bdb921;fill-rule:evenodd"
   d="m 22.9,2.35 c 0.067,0.1 0.217,0.283 0.45,0.55 0.2,0.233 0.333,0.417 0.4,0.55 0.133,0.4 0.1,0.8 -0.1,1.2 C 23.483,4.983 23.117,5.3 22.55,5.6 22.217,5.733 21.75,5.5 21.15,4.9 21.017,4.767 20.917,4.567 20.85,4.3 20.717,3.9 20.617,3.617 20.55,3.45 20.45,3.217 20.4,2.95 20.4,2.65 20.4,2.217 20.383,1.933 20.35,1.8 c -0.033,-0.333 0.066,-0.55 0.3,-0.65 0.2,-0.1 0.434,-0.1 0.7,0 0.767,0.233 1.283,0.633 1.55,1.2 z"
   id="path191"
   inkscape:connector-curvature="0" />
	<path
   style="clip-rule:evenodd;fill:#c4c022;fill-rule:evenodd"
   d="M 23.65,1.5 C 23.617,1.3 23.584,1.183 23.55,1.15 23.517,1.117 23.333,1.3 23,1.7 22.867,1.867 22.217,2.367 21.05,3.2 l -1.4,0.75 3.15,-2.5 C 22.967,1.317 22.967,1.133 22.8,0.9 22.7,0.8 22.033,1.084 20.8,1.75 19.6,2.25 19.05,2.467 19.15,2.4 19.283,2.334 19.933,1.983 21.1,1.35 21.333,1.283 21.7,1.166 22.2,1 22.533,0.867 22.65,0.767 22.55,0.7 22.183,0.5 21.633,0.367 20.9,0.3 20.533,0.234 20.3,0.2 20.2,0.2 c -0.2,0 -0.483,0.083 -0.85,0.25 0.633,-0.4 1.267,-0.517 1.9,-0.35 0.433,0.1 0.817,0.25 1.15,0.45 0.233,0 0.367,0.034 0.4,0.1 0.2,0.2 0.35,0.283 0.45,0.25 0.1,-0.066 0.183,-0.066 0.25,0 0.033,0.033 0.1,0.117 0.2,0.25 0,0.033 0.033,0.15 0.1,0.35 0,0.067 0.067,0.067 0.2,0 0.267,-0.167 0.467,-0.083 0.6,0.25 0.033,0.067 0.05,0.217 0.05,0.45 0.033,0.233 0.083,0.333 0.15,0.3 0.2,0 0.333,0.133 0.4,0.4 0,0.5 0.017,0.767 0.05,0.8 0.1,0.133 0.133,0.333 0.1,0.6 -0.467,1.633 -0.95,2.617 -1.45,2.95 -0.066,0 -0.017,-0.083 0.15,-0.25 0.4,-0.433 0.667,-0.983 0.8,-1.65 0.1,-0.467 0.1,-0.833 0,-1.1 C 24.783,4.15 24.8,4 24.9,3.8 l 0.15,-0.25 -0.1,-0.2 C 24.916,3.283 24.333,3.767 23.2,4.8 22.4,5.467 21.65,6.033 20.95,6.5 20.617,6.7 20.617,6.633 20.95,6.3 21.317,6 21.717,5.7 22.15,5.4 22.483,5.2 22.933,4.8 23.5,4.2 23.8,3.867 24.117,3.516 24.45,3.15 24.583,2.983 24.6,2.767 24.5,2.5 24.5,2.033 24.4,1.867 24.2,2 c -0.934,1.067 -1.65,1.8 -2.15,2.2 -0.3,0.267 -0.716,0.517 -1.25,0.75 -0.633,0.3 -0.816,0.367 -0.55,0.2 l 2.2,-1.6 C 23.117,3.15 23.6,2.6 23.9,1.9 c 0.067,-0.133 0.083,-0.2 0.05,-0.2 -0.067,0 -0.133,0 -0.2,0 -0.067,0.033 -0.1,-0.033 -0.1,-0.2 z"
   id="path193"
   inkscape:connector-curvature="0" />
	<path
   style="clip-rule:evenodd;fill:#cc3300;fill-rule:evenodd"
   d="m 31.9,11.8 c 0.033,0.1 1.167,-0.066 3.4,-0.5 1.133,-0.233 2.25,-0.466 3.351,-0.7 h 0.05 c -0.3,0.533 -0.7,1.1 -1.2,1.7 -1.033,1.2 -2.1,1.934 -3.2,2.2 -1.9,0.433 -3.45,0.2 -4.65,-0.7 -0.533,-0.433 -0.917,-0.883 -1.15,-1.35 -0.133,-0.3 -0.267,-0.784 -0.4,-1.45 -0.067,-0.467 -0.067,-0.95 0,-1.45 l 0.1,-0.65 c 2.399,1.8 3.632,2.767 3.699,2.9 z"
   id="path195"
   inkscape:connector-curvature="0" />
	<path
   style="clip-rule:evenodd;fill:#f7ee99;fill-rule:evenodd"
   d="m 28.75,7.3 1.35,0.8 c 1.066,0.566 2.083,1 3.05,1.3 1.733,0.533 3.583,0.934 5.55,1.2 -0.834,0.633 -1.85,1.183 -3.05,1.65 -2.367,0.967 -4.367,1.083 -6,0.35 -1.2,-0.533 -1.717,-1.583 -1.55,-3.15 z"
   id="path197"
   inkscape:connector-curvature="0" />
	<path
   style="clip-rule:evenodd;fill:#fff7b0;fill-rule:evenodd"
   d="m 32.25,11.25 c 0.1,-0.267 0.133,-0.4 0.1,-0.4 -0.434,0.633 -0.7,0.933 -0.8,0.9 -0.066,0 -0.083,-0.167 -0.05,-0.5 0,-0.367 -0.017,-0.583 -0.05,-0.65 -0.067,-0.067 -0.25,0.066 -0.55,0.4 -0.367,0.367 -0.6,0.567 -0.7,0.6 -0.1,0.033 -0.184,-0.033 -0.25,-0.2 -0.034,-0.167 -0.034,-0.333 0,-0.5 0,-0.133 0.383,-0.367 1.15,-0.7 0.3,-0.133 0.167,-0.25 -0.4,-0.35 H 30.3 C 30.533,9.583 30.6,9.4 30.5,9.3 30.433,9.234 30.25,9.334 29.95,9.6 c -0.4,0.367 -0.7,0.583 -0.9,0.65 -0.267,0.1 -0.367,0.017 -0.3,-0.25 C 28.783,9.7 28.867,9.533 29,9.5 29.233,9.067 29.3,8.833 29.2,8.8 29.1,8.734 29.183,8.567 29.45,8.3 29.617,8.167 29.467,8.067 29,8 28.933,7.833 29.183,7.817 29.75,7.95 L 29.8,7.9 c 1.067,0.633 2.184,1.133 3.35,1.5 1.8,0.5 3.383,0.85 4.75,1.05 l -0.25,0.1 -0.351,0.2 c -0.267,-0.033 -0.466,-0.017 -0.6,0.05 -0.133,0.133 -0.35,0.2 -0.65,0.2 -0.167,0.033 -0.267,0.017 -0.3,-0.05 -0.033,-0.1 -0.067,-0.15 -0.1,-0.15 -0.133,0 -0.233,0.15 -0.3,0.45 0,0.3 -0.217,0.483 -0.65,0.55 -0.133,0.034 -0.2,-0.017 -0.2,-0.15 0.033,-0.133 0.067,-0.217 0.1,-0.25 0.2,-0.2 0.167,-0.367 -0.1,-0.5 -0.167,-0.066 -0.3,0.017 -0.4,0.25 -0.167,0.333 -0.283,0.517 -0.35,0.55 -0.133,0.1 -0.267,0.167 -0.4,0.2 -0.167,0.033 -0.267,0.017 -0.3,-0.05 0.067,-0.434 0.067,-0.684 0,-0.75 -0.033,0 -0.183,0.083 -0.45,0.25 -0.233,0.2 -0.383,0.3 -0.45,0.3 -0.066,0 -0.032,-0.133 0.101,-0.4 z"
   id="path199"
   inkscape:connector-curvature="0" />
	<path
   style="clip-rule:evenodd;fill:#ebe28f;fill-rule:evenodd"
   d="m 37.8,10.75 c -1.133,-0.3 -1.917,-0.417 -2.35,-0.35 l -1.75,0.15 c -0.133,0.034 -0.284,0.05 -0.45,0.05 -0.267,0 -0.483,-0.05 -0.65,-0.15 C 32.433,10.383 32.233,10.2 32,9.9 31.667,9.533 31.467,9.317 31.4,9.25 30.467,8.65 29.7,8.067 29.1,7.5 c 1.4,0.867 2.75,1.5 4.05,1.9 1.733,0.533 3.583,0.934 5.55,1.2 -0.434,0.367 -0.983,0.717 -1.65,1.05 -1.367,0.7 -2.667,1.05 -3.9,1.05 1.9,-0.267 3.45,-0.917 4.65,-1.95 z"
   id="path201"
   inkscape:connector-curvature="0" />
	<path
   style="clip-rule:evenodd;fill:#8c753b;fill-rule:evenodd"
   d="M 31.95,9.3 C 31.983,9.467 31.9,9.617 31.7,9.75 31.567,9.85 31.45,9.9 31.35,9.9 31.217,9.9 31.166,9.834 31.2,9.7 31.233,9.6 31.367,9.5 31.6,9.4 31.733,9.367 31.85,9.333 31.95,9.3 Z"
   id="path203"
   inkscape:connector-curvature="0" />
	<path
   style="clip-rule:evenodd;fill:#8c753b;fill-rule:evenodd"
   d="m 32.95,9.9 0.15,0.4 c 0,0.1 -0.05,0.2 -0.15,0.3 -0.1,0.133 -0.2,0.15 -0.3,0.05 -0.133,-0.066 -0.117,-0.217 0.05,-0.45 0.067,-0.1 0.15,-0.2 0.25,-0.3 z"
   id="path205"
   inkscape:connector-curvature="0" />
	<path
   style="clip-rule:evenodd;fill:#8c753b;fill-rule:evenodd"
   d="M 34.55,10.15 35,10.3 c 0.133,0.133 0.117,0.25 -0.05,0.35 -0.067,0.067 -0.15,0 -0.25,-0.2 z"
   id="path207"
   inkscape:connector-curvature="0" />
	<path
   style="clip-rule:evenodd;fill:#fffdeb;fill-rule:evenodd"
   d="m 31.45,9.5 c 0.233,-0.1 0.233,-0.033 0,0.2 -0.1,0.066 -0.15,0.066 -0.15,0 0.033,-0.1 0.083,-0.167 0.15,-0.2 z"
   id="path209"
   inkscape:connector-curvature="0" />
	<path
   style="clip-rule:evenodd;fill:#fffdeb;fill-rule:evenodd"
   d="m 32.8,10.2 c 0.067,-0.034 0.1,-0.017 0.1,0.05 -0.033,0.1 -0.083,0.167 -0.15,0.2 -0.1,0.067 -0.083,-0.017 0.05,-0.25 z"
   id="path211"
   inkscape:connector-curvature="0" />
	<path
   style="clip-rule:evenodd;fill:#cc3300;fill-rule:evenodd"
   d="M 26.05,11.55 26.1,10.7 c 2.833,2.3 4.3,3.55 4.4,3.75 0.067,0.133 1.283,-0.117 3.65,-0.75 1.2,-0.333 2.383,-0.667 3.55,-1 l 0.05,0.05 c -0.267,0.7 -0.634,1.45 -1.1,2.25 -1,1.567 -2.083,2.533 -3.25,2.9 -1.933,0.667 -3.65,0.4 -5.15,-0.8 -0.633,-0.533 -1.1,-1.117 -1.4,-1.75 -0.2,-0.367 -0.4,-1 -0.6,-1.9 -0.133,-0.6 -0.2,-1.233 -0.2,-1.9 z"
   id="path213"
   inkscape:connector-curvature="0" />
	<path
   style="clip-rule:evenodd;fill:#f7ee99;fill-rule:evenodd"
   d="m 26.5,8.6 1.55,1 c 1.267,0.7 2.434,1.233 3.5,1.6 1.934,0.667 4,1.167 6.2,1.5 -0.833,0.833 -1.867,1.583 -3.1,2.25 -2.467,1.3 -4.633,1.483 -6.5,0.55 -1.367,-0.667 -2.05,-2.017 -2.05,-4.05 z"
   id="path215"
   inkscape:connector-curvature="0" />
	<path
   style="clip-rule:evenodd;fill:#fff7b0;fill-rule:evenodd"
   d="m 26.85,9.45 c -0.033,-0.067 0.083,-0.1 0.35,-0.1 0.2,0 0.367,0.017 0.5,0.05 h 0.05 c 1.533,0.9 2.8,1.5 3.8,1.8 1.567,0.566 3.317,1.017 5.25,1.35 l -0.2,0.1 -0.35,0.25 c -0.1,0.067 -0.233,0.083 -0.4,0.05 -0.133,0 -0.233,0.017 -0.3,0.05 -0.1,0.067 -0.183,0.117 -0.25,0.15 -0.1,0.067 -0.233,0.117 -0.4,0.15 -0.2,0.034 -0.316,0 -0.35,-0.1 -0.033,-0.1 -0.083,-0.15 -0.15,-0.15 -0.2,-0.033 -0.267,0.167 -0.2,0.6 0,0.4 -0.233,0.633 -0.7,0.7 -0.267,0.1 -0.3,-0.067 -0.1,-0.5 0.133,-0.3 0.067,-0.517 -0.2,-0.65 -0.167,-0.067 -0.3,0.05 -0.4,0.35 -0.133,0.4 -0.233,0.633 -0.3,0.7 -0.133,0.133 -0.283,0.217 -0.45,0.25 -0.167,0.033 -0.283,0.017 -0.35,-0.05 0.033,-0.534 0,-0.85 -0.1,-0.95 -0.033,-0.033 -0.167,0.083 -0.4,0.35 -0.233,0.267 -0.383,0.383 -0.45,0.35 -0.067,-0.034 -0.05,-0.2 0.05,-0.5 0.067,-0.333 0.083,-0.5 0.05,-0.5 -0.4,0.833 -0.667,1.216 -0.8,1.15 -0.066,0 -0.1,-0.217 -0.1,-0.65 0,-0.467 -0.034,-0.75 -0.1,-0.85 -0.067,-0.1 -0.267,0.083 -0.6,0.55 -0.367,0.5 -0.583,0.767 -0.65,0.8 -0.233,0.066 -0.35,-0.233 -0.35,-0.9 -0.033,-0.133 0.1,-0.3 0.4,-0.5 0.167,-0.1 0.434,-0.25 0.8,-0.45 0.3,-0.2 0.133,-0.35 -0.5,-0.45 -0.1,0.033 -0.184,0.05 -0.25,0.05 -0.1,0 -0.15,-0.034 -0.15,-0.1 0.2,-0.3 0.233,-0.533 0.1,-0.7 -0.066,-0.066 -0.25,0.083 -0.55,0.45 -0.4,0.467 -0.7,0.75 -0.9,0.85 -0.3,0.133 -0.434,0.017 -0.4,-0.35 0.034,-0.4 0.117,-0.6 0.25,-0.6 0.067,-0.033 0.117,-0.183 0.15,-0.45 0.066,-0.3 0.066,-0.483 0,-0.55 -0.1,-0.067 -0.034,-0.267 0.2,-0.6 0.1,-0.1 0.05,-0.183 -0.15,-0.25 -0.267,-0.067 -0.4,-0.133 -0.4,-0.2 z"
   id="path217"
   inkscape:connector-curvature="0" />
	<path
   style="clip-rule:evenodd;fill:#ebe28f;fill-rule:evenodd"
   d="m 30.35,11.95 c -0.367,-0.5 -0.6,-0.8 -0.7,-0.9 -1.1,-0.733 -2.017,-1.466 -2.75,-2.2 1.833,1.133 3.383,1.917 4.65,2.35 1.934,0.667 4,1.167 6.2,1.5 -0.434,0.466 -1,0.933 -1.7,1.4 -1.4,0.967 -2.767,1.467 -4.1,1.5 2,-0.4 3.6,-1.3 4.8,-2.7 -1.233,-0.367 -2.1,-0.5 -2.6,-0.4 l -1.85,0.25 c -0.5,0.133 -0.917,0.1 -1.25,-0.1 -0.2,-0.1 -0.433,-0.333 -0.7,-0.7 z"
   id="path219"
   inkscape:connector-curvature="0" />
	<path
   style="clip-rule:evenodd;fill:#8c753b;fill-rule:evenodd"
   d="m 30.2,11.15 c 0.066,0.2 0.017,0.4 -0.15,0.6 -0.133,0.133 -0.267,0.2 -0.4,0.2 -0.133,0 -0.2,-0.083 -0.2,-0.25 0,-0.133 0.133,-0.267 0.4,-0.4 0.1,-0.067 0.217,-0.117 0.35,-0.15 z"
   id="path221"
   inkscape:connector-curvature="0" />
	<path
   style="clip-rule:evenodd;fill:#8c753b;fill-rule:evenodd"
   d="m 31.4,11.9 0.2,0.55 c 0,0.133 -0.033,0.267 -0.1,0.4 -0.1,0.133 -0.217,0.15 -0.35,0.05 -0.133,-0.1 -0.133,-0.3 0,-0.6 z"
   id="path223"
   inkscape:connector-curvature="0" />
	<path
   style="clip-rule:evenodd;fill:#8c753b;fill-rule:evenodd"
   d="m 33.2,12.2 0.5,0.2 c 0.133,0.2 0.117,0.35 -0.05,0.45 -0.066,0.1 -0.167,0.017 -0.3,-0.25 z"
   id="path225"
   inkscape:connector-curvature="0" />
	<path
   style="clip-rule:evenodd;fill:#fffdeb;fill-rule:evenodd"
   d="m 29.7,11.45 c 0.167,-0.1 0.25,-0.1 0.25,0 -0.034,0.066 -0.1,0.15 -0.2,0.25 -0.1,0.066 -0.15,0.05 -0.15,-0.05 0,-0.1 0.033,-0.167 0.1,-0.2 z"
   id="path227"
   inkscape:connector-curvature="0" />
	<path
   style="clip-rule:evenodd;fill:#fffdeb;fill-rule:evenodd"
   d="m 31.25,12.3 c 0.067,-0.066 0.1,-0.05 0.1,0.05 0,0.133 -0.033,0.233 -0.1,0.3 -0.067,0.067 -0.1,0.033 -0.1,-0.1 0,-0.1 0.033,-0.183 0.1,-0.25 z"
   id="path229"
   inkscape:connector-curvature="0" />
	<path
   style="clip-rule:evenodd;fill:#db4200;fill-rule:evenodd"
   d="m 35.1,15.3 c 0.4,-0.1 0.517,0.034 0.35,0.4 -0.133,0.333 -0.417,0.6 -0.85,0.8 -0.633,0.3 -1.117,0.283 -1.45,-0.05 -0.2,-0.2 0.45,-0.583 1.95,-1.15 z"
   id="path231"
   inkscape:connector-curvature="0" />
	<path
   style="clip-rule:evenodd;fill:#cc3300;fill-rule:evenodd"
   d="m 23.55,11.25 0.25,-0.8 c 2,3.6 3.017,5.517 3.05,5.75 0.033,0.133 1.183,0.45 3.45,0.95 1.133,0.233 2.267,0.45 3.4,0.65 h 0.05 c -0.233,0.7 -0.6,1.35 -1.1,1.95 -1,1.267 -2.217,1.75 -3.65,1.45 -2.067,-0.434 -3.55,-1.467 -4.45,-3.1 -0.833,-1.533 -1.25,-3.15 -1.25,-4.85 0,-0.667 0.083,-1.333 0.25,-2 z"
   id="path233"
   inkscape:connector-curvature="0" />
	<path
   style="clip-rule:evenodd;fill:#f7ee99;fill-rule:evenodd"
   d="m 24.6,8.5 1.2,1.75 c 0.967,1.3 1.883,2.383 2.75,3.25 1.6,1.533 3.333,2.967 5.2,4.3 -0.933,0.467 -2.033,0.733 -3.3,0.8 -2.5,0.2 -4.483,-0.6 -5.95,-2.4 -1.067,-1.333 -1.367,-3.017 -0.9,-5.05 0.233,-1 0.567,-1.883 1,-2.65 z"
   id="path235"
   inkscape:connector-curvature="0" />
	<path
   style="clip-rule:evenodd;fill:#fff7b0;fill-rule:evenodd"
   d="m 24.75,9.55 c 0,-0.1 0.1,-0.1 0.3,0 0.167,0.1 0.3,0.2 0.4,0.3 l 0.1,0.05 c 1.034,1.467 2.034,2.667 3,3.6 0.9,0.867 2.367,2.117 4.4,3.75 h -0.2 l -0.4,0.1 c -0.1,0 -0.217,-0.033 -0.35,-0.1 -0.1,-0.1 -0.183,-0.15 -0.25,-0.15 l -0.25,0.1 c -0.133,0 -0.283,-0.034 -0.45,-0.1 -0.167,-0.067 -0.25,-0.15 -0.25,-0.25 -0.033,-0.133 -0.066,-0.217 -0.1,-0.25 -0.133,-0.067 -0.25,0.1 -0.35,0.5 -0.033,0.367 -0.283,0.517 -0.75,0.45 -0.133,-0.033 -0.184,-0.133 -0.15,-0.3 0.033,-0.133 0.083,-0.233 0.15,-0.3 0.2,-0.2 0.183,-0.434 -0.05,-0.7 -0.1,-0.167 -0.233,-0.117 -0.4,0.15 -0.233,0.333 -0.383,0.517 -0.45,0.55 -0.133,0.066 -0.284,0.083 -0.45,0.05 -0.166,-0.033 -0.267,-0.1 -0.3,-0.2 0.167,-0.566 0.216,-0.9 0.15,-1 -0.033,-0.066 -0.184,-0.017 -0.45,0.15 -0.3,0.133 -0.467,0.183 -0.5,0.15 -0.066,-0.067 -0.017,-0.233 0.15,-0.5 0.167,-0.3 0.233,-0.45 0.2,-0.45 -0.033,0 -0.2,0.15 -0.5,0.45 -0.267,0.3 -0.433,0.417 -0.5,0.35 -0.067,-0.067 -0.05,-0.317 0.05,-0.75 0.1,-0.467 0.133,-0.75 0.1,-0.85 -0.033,-0.133 -0.233,-0.05 -0.6,0.25 -0.466,0.333 -0.733,0.5 -0.8,0.5 -0.2,0 -0.25,-0.367 -0.15,-1.1 0.033,-0.133 0.2,-0.233 0.5,-0.3 0.167,-0.034 0.433,-0.067 0.8,-0.1 0.3,-0.033 0.184,-0.25 -0.35,-0.65 -0.267,0 -0.383,-0.067 -0.35,-0.2 0.233,-0.233 0.316,-0.45 0.25,-0.65 -0.034,-0.133 -0.233,-0.083 -0.6,0.15 -0.467,0.3 -0.8,0.45 -1,0.45 -0.3,0 -0.383,-0.184 -0.25,-0.55 0.1,-0.367 0.217,-0.533 0.35,-0.5 0.3,-0.467 0.417,-0.767 0.35,-0.9 -0.066,-0.1 -0.066,-0.183 0,-0.25 0.034,-0.033 0.133,-0.117 0.3,-0.25 0.1,-0.067 0.083,-0.183 -0.05,-0.35 -0.2,-0.2 -0.3,-0.317 -0.3,-0.35 z"
   id="path237"
   inkscape:connector-curvature="0" />
	<path
   style="clip-rule:evenodd;fill:#ebe28f;fill-rule:evenodd"
   d="M 28.85,15.35 C 28.717,15.317 28.567,15.267 28.4,15.2 28.133,15.067 27.917,14.9 27.75,14.7 27.617,14.5 27.467,14.133 27.3,13.6 27.1,13.033 26.95,12.65 26.85,12.45 26.017,11.183 25.367,10.016 24.9,8.95 c 1.2,1.8 2.417,3.316 3.65,4.55 1.6,1.533 3.333,2.967 5.2,4.3 -0.5,0.267 -1.117,0.483 -1.85,0.65 -1.467,0.3 -2.8,0.15 -4,-0.45 1.2,0.333 2.383,0.367 3.55,0.1 0.6,-0.167 1.066,-0.35 1.4,-0.55 C 31.783,16.617 31.033,16.1 30.6,16 29.9,15.8 29.317,15.583 28.85,15.35 Z"
   id="path239"
   inkscape:connector-curvature="0" />
	<path
   style="clip-rule:evenodd;fill:#8c753b;fill-rule:evenodd"
   d="m 27.35,12.8 c 0.033,0.233 -0.067,0.4 -0.3,0.5 -0.167,0.067 -0.3,0.067 -0.4,0 -0.1,-0.066 -0.133,-0.183 -0.1,-0.35 0.034,-0.133 0.184,-0.2 0.45,-0.2 0.133,0 0.25,0.017 0.35,0.05 z"
   id="path241"
   inkscape:connector-curvature="0" />
	<path
   style="clip-rule:evenodd;fill:#8c753b;fill-rule:evenodd"
   d="m 28.25,14.1 0.05,0.65 c 0,0.133 -0.05,0.25 -0.15,0.35 -0.133,0.1 -0.25,0.066 -0.35,-0.1 -0.1,-0.167 -0.05,-0.367 0.15,-0.6 0.1,-0.1 0.2,-0.2 0.3,-0.3 z"
   id="path243"
   inkscape:connector-curvature="0" />
	<path
   style="clip-rule:evenodd;fill:#8c753b;fill-rule:evenodd"
   d="m 29.8,15.2 0.4,0.45 c 0.066,0.233 0.017,0.383 -0.15,0.45 -0.066,0.033 -0.133,-0.1 -0.2,-0.4 z"
   id="path245"
   inkscape:connector-curvature="0" />
	<path
   style="clip-rule:evenodd;fill:#fffdeb;fill-rule:evenodd"
   d="m 26.85,12.85 c 0.167,-0.033 0.233,-0.017 0.2,0.05 -0.033,0.1 -0.117,0.167 -0.25,0.2 -0.1,0.033 -0.133,0 -0.1,-0.1 0.033,-0.1 0.083,-0.15 0.15,-0.15 z"
   id="path247"
   inkscape:connector-curvature="0" />
	<path
   style="clip-rule:evenodd;fill:#fffdeb;fill-rule:evenodd"
   d="m 28,14.4 c 0.1,-0.033 0.15,0.017 0.15,0.15 -0.033,0.1 -0.1,0.167 -0.2,0.2 -0.1,0.033 -0.133,0 -0.1,-0.1 0.033,-0.133 0.083,-0.217 0.15,-0.25 z"
   id="path249"
   inkscape:connector-curvature="0" />
	<path
   style="clip-rule:evenodd;fill:#db4200;fill-rule:evenodd"
   d="m 31.3,19.3 c 0.434,-0.1 0.617,0 0.55,0.3 -0.1,0.3 -0.283,0.533 -0.55,0.7 -0.3,0.2 -0.767,0.3 -1.4,0.3 -0.4,0 -0.816,-0.417 -1.25,-1.25 -0.1,-0.2 0.2,-0.25 0.9,-0.15 0.933,0.133 1.517,0.167 1.75,0.1 z"
   id="path251"
   inkscape:connector-curvature="0" />
	<path
   style="clip-rule:evenodd;fill:#cc3300;fill-rule:evenodd"
   d="m 21.15,11.6 c 1.067,4.066 1.583,6.217 1.55,6.45 -0.034,0.167 0.966,0.7 3,1.6 1,0.434 2,0.85 3,1.25 V 21 c -0.333,0.6 -0.784,1.15 -1.35,1.65 -1.2,1.033 -2.467,1.333 -3.8,0.9 -1.767,-0.566 -2.917,-1.867 -3.45,-3.9 -0.4,-1.733 -0.417,-3.483 -0.05,-5.25 0.167,-0.7 0.4,-1.367 0.7,-2 z"
   id="path253"
   inkscape:connector-curvature="0" />
	<path
   style="clip-rule:evenodd;fill:#f7ee99;fill-rule:evenodd"
   d="m 22.35,9.75 0.7,1.95 c 0.6,1.533 1.217,2.816 1.85,3.85 1.1,1.867 2.383,3.667 3.85,5.4 -1,0.3 -2.083,0.383 -3.25,0.25 -2.367,-0.267 -4.033,-1.45 -5,-3.55 -0.7,-1.566 -0.6,-3.35 0.3,-5.35 0.467,-1 0.983,-1.85 1.55,-2.55 z"
   id="path255"
   inkscape:connector-curvature="0" />
	<path
   style="clip-rule:evenodd;fill:#fff7b0;fill-rule:evenodd"
   d="m 22,12.1 c -0.033,-0.167 0.117,-0.317 0.45,-0.45 0.1,-0.066 0.1,-0.2 0,-0.4 -0.133,-0.233 -0.2,-0.367 -0.2,-0.4 0.033,-0.1 0.133,-0.067 0.3,0.1 0.133,0.1 0.233,0.216 0.3,0.35 h 0.05 c 0.633,1.667 1.3,3.083 2,4.25 0.867,1.5 1.934,3.05 3.2,4.65 l -0.2,-0.05 -0.35,0.05 c -0.1,0 -0.2,-0.067 -0.3,-0.2 -0.1,-0.1 -0.183,-0.15 -0.25,-0.15 -0.167,0.1 -0.367,0.066 -0.6,-0.1 -0.167,-0.1 -0.233,-0.217 -0.2,-0.35 0,-0.133 -0.017,-0.217 -0.05,-0.25 -0.066,-0.066 -0.217,0.083 -0.45,0.45 -0.167,0.4 -0.417,0.5 -0.75,0.3 -0.233,-0.066 -0.2,-0.267 0.1,-0.6 0.067,0 0.117,-0.066 0.15,-0.2 0.1,-0.167 0.1,-0.35 0,-0.55 -0.067,-0.167 -0.2,-0.133 -0.4,0.1 -0.3,0.3 -0.483,0.467 -0.55,0.5 -0.167,0.033 -0.317,0.017 -0.45,-0.05 -0.167,-0.067 -0.233,-0.15 -0.2,-0.25 0.233,-0.533 0.35,-0.867 0.35,-1 0,-0.067 -0.15,-0.05 -0.45,0.05 -0.3,0.1 -0.467,0.133 -0.5,0.1 -0.067,-0.067 0.017,-0.233 0.25,-0.5 0.2,-0.267 0.283,-0.417 0.25,-0.45 -0.633,0.6 -1,0.817 -1.1,0.65 -0.033,-0.067 0.05,-0.3 0.25,-0.7 0.2,-0.467 0.3,-0.767 0.3,-0.9 -0.034,-0.133 -0.25,-0.083 -0.65,0.15 -0.5,0.267 -0.783,0.383 -0.85,0.35 -0.233,-0.033 -0.2,-0.4 0.1,-1.1 0.067,-0.167 0.25,-0.25 0.55,-0.25 0.167,0 0.417,0.017 0.75,0.05 0.3,0 0.25,-0.233 -0.15,-0.7 -0.067,-0.033 -0.133,-0.067 -0.2,-0.1 -0.1,-0.067 -0.133,-0.133 -0.1,-0.2 0,-0.066 0.083,-0.167 0.25,-0.3 0.133,-0.1 0.184,-0.217 0.15,-0.35 0,-0.133 -0.2,-0.117 -0.6,0.05 -0.5,0.233 -0.85,0.333 -1.05,0.3 -0.233,-0.033 -0.267,-0.233 -0.1,-0.6 0.2,-0.367 0.35,-0.517 0.45,-0.45 0.4,-0.433 0.567,-0.717 0.5,-0.85 z"
   id="path257"
   inkscape:connector-curvature="0" />
	<path
   style="clip-rule:evenodd;fill:#ebe28f;fill-rule:evenodd"
   d="m 23.7,15.5 c -0.067,-0.733 -0.117,-1.183 -0.15,-1.35 -0.466,-1.433 -0.8,-2.733 -1,-3.9 0.7,2.1 1.483,3.867 2.35,5.3 1.1,1.867 2.383,3.667 3.85,5.4 -0.533,0.2 -1.15,0.316 -1.85,0.35 -1.467,0.034 -2.683,-0.367 -3.65,-1.2 1.033,0.566 2.117,0.8 3.25,0.7 0.6,-0.033 1.083,-0.133 1.45,-0.3 C 27.183,19.367 26.6,18.7 26.2,18.5 25.3,17.9 24.817,17.583 24.75,17.55 24.617,17.484 24.483,17.4 24.35,17.3 24.15,17.1 24,16.883 23.9,16.65 23.8,16.417 23.733,16.033 23.7,15.5 Z"
   id="path259"
   inkscape:connector-curvature="0" />
	<path
   style="clip-rule:evenodd;fill:#8c753b;fill-rule:evenodd"
   d="m 23.95,14.65 c -0.034,0.233 -0.167,0.383 -0.4,0.45 -0.4,0.1 -0.533,-0.033 -0.4,-0.4 0.067,-0.133 0.217,-0.184 0.45,-0.15 0.133,0.033 0.25,0.067 0.35,0.1 z"
   id="path261"
   inkscape:connector-curvature="0" />
	<path
   style="clip-rule:evenodd;fill:#8c753b;fill-rule:evenodd"
   d="m 24.45,16.1 -0.05,0.7 c -0.3,0.434 -0.483,0.483 -0.55,0.15 -0.067,-0.2 0.017,-0.4 0.25,-0.6 0.1,-0.1 0.217,-0.183 0.35,-0.25 z"
   id="path263"
   inkscape:connector-curvature="0" />
	<path
   style="clip-rule:evenodd;fill:#8c753b;fill-rule:evenodd"
   d="m 25.65,17.55 0.25,0.5 c 0.067,0.3 0,0.45 -0.2,0.45 -0.1,0.033 -0.133,-0.117 -0.1,-0.45 z"
   id="path265"
   inkscape:connector-curvature="0" />
	<path
   style="clip-rule:evenodd;fill:#fffdeb;fill-rule:evenodd"
   d="m 23.45,14.6 c 0.167,0 0.233,0.05 0.2,0.15 -0.066,0.067 -0.167,0.1 -0.3,0.1 -0.133,0.033 -0.167,0 -0.1,-0.1 0.067,-0.1 0.133,-0.15 0.2,-0.15 z"
   id="path267"
   inkscape:connector-curvature="0" />
	<path
   style="clip-rule:evenodd;fill:#fffdeb;fill-rule:evenodd"
   d="m 24.2,16.4 c 0,0.2 -0.05,0.317 -0.15,0.35 -0.1,0.033 -0.117,-0.017 -0.05,-0.15 0.067,-0.1 0.133,-0.167 0.2,-0.2 z"
   id="path269"
   inkscape:connector-curvature="0" />
	<path
   style="clip-rule:evenodd;fill:#db4200;fill-rule:evenodd"
   d="m 26.3,21.8 c 0.534,0 0.684,0.2 0.45,0.6 -0.233,0.333 -0.533,0.567 -0.9,0.7 -0.5,0.233 -1.033,0.2 -1.6,-0.1 -0.233,-0.133 -0.467,-0.6 -0.7,-1.4 -0.033,-0.167 0.333,-0.184 1.1,-0.05 1.067,0.167 1.617,0.25 1.65,0.25 z"
   id="path271"
   inkscape:connector-curvature="0" />
	<path
   style="clip-rule:evenodd;fill:#db4200;fill-rule:evenodd"
   d="m 23.3,22.85 c -0.466,0.467 -1.033,0.85 -1.7,1.15 -1.333,0.6 -2.483,0.483 -3.45,-0.35 -0.733,-0.633 -1.3,-1.4 -1.7,-2.3 -0.434,-0.9 -0.65,-1.8 -0.65,-2.7 0.034,-1.467 0.083,-2.467 0.15,-3 0.1,-1 0.333,-1.8 0.7,-2.4 0.5,-0.933 1.083,-1.65 1.75,-2.15 0,4.167 -0.05,6.367 -0.15,6.6 -0.033,0.133 0.8,1 2.5,2.6 0.867,0.833 1.733,1.633 2.6,2.4 z"
   id="path273"
   inkscape:connector-curvature="0" />
	<g
   id="g277">
		<path
   style="clip-rule:evenodd;fill:#cc3300;fill-rule:evenodd"
   d="M 23.3,22.85 C 22.834,23.317 22.267,23.7 21.6,24 20.267,24.6 19.117,24.483 18.15,23.65 17.65,23.217 17.267,22.767 17,22.3 l -0.6,-1.35 c 0.767,1.533 1.533,2.383 2.3,2.55 0.4,0.067 0.617,0 0.65,-0.2 0.033,-0.133 0.066,-0.233 0.1,-0.3 0.066,-0.1 0.2,-0.15 0.4,-0.15 0.367,0 0.1,-0.45 -0.8,-1.35 -1.066,-1.067 -1.767,-2.267 -2.1,-3.6 l 1.5,0.1 c 0.633,0.767 2.267,2.333 4.9,4.7 z"
   id="path275"
   inkscape:connector-curvature="0" />
	</g>
	<path
   style="clip-rule:evenodd;fill:#f7ee99;fill-rule:evenodd"
   d="m 20,9.9 0.2,2.1 c 0.2,1.633 0.466,3.05 0.8,4.25 0.6,2.2 1.383,4.367 2.35,6.5 -1,-0.133 -2.05,-0.5 -3.15,-1.1 C 18,20.45 16.7,18.7 16.3,16.4 16,14.7 16.517,13.1 17.85,11.6 18.55,10.867 19.267,10.3 20,9.9 Z"
   id="path279"
   inkscape:connector-curvature="0" />
	<path
   style="clip-rule:evenodd;fill:#fff7b0;fill-rule:evenodd"
   d="m 21.35,20.1 c -0.1,-0.167 -0.283,-0.083 -0.55,0.25 -0.233,0.267 -0.517,0.233 -0.85,-0.1 -0.1,-0.1 -0.083,-0.2 0.05,-0.3 0.067,-0.1 0.133,-0.15 0.2,-0.15 0.3,-0.133 0.417,-0.35 0.35,-0.65 -0.033,-0.2 -0.183,-0.233 -0.45,-0.1 -0.333,0.167 -0.533,0.25 -0.6,0.25 -0.167,0 -0.317,-0.066 -0.45,-0.2 -0.133,-0.134 -0.183,-0.25 -0.15,-0.35 0.4,-0.367 0.6,-0.617 0.6,-0.75 0,-0.067 -0.15,-0.117 -0.45,-0.15 -0.3,-0.033 -0.466,-0.083 -0.5,-0.15 -0.033,-0.067 0.1,-0.167 0.4,-0.3 0.233,-0.167 0.35,-0.267 0.35,-0.3 0,-0.033 -0.2,0.017 -0.6,0.15 -0.367,0.1 -0.567,0.1 -0.6,0 0,-0.1 0.133,-0.3 0.4,-0.6 0.3,-0.333 0.467,-0.566 0.5,-0.7 0.033,-0.134 -0.2,-0.167 -0.7,-0.1 -0.533,0.033 -0.833,0.033 -0.9,0 -0.133,-0.133 0,-0.467 0.4,-1 0.1,-0.133 0.3,-0.133 0.6,0 0.133,0.066 0.367,0.183 0.7,0.35 0.3,0.133 0.3,-0.117 0,-0.75 -0.033,-0.034 -0.083,-0.083 -0.15,-0.15 -0.067,-0.1 -0.083,-0.183 -0.05,-0.25 0.333,-0.033 0.517,-0.167 0.55,-0.4 0.033,-0.1 -0.167,-0.15 -0.6,-0.15 -0.533,-0.033 -0.883,-0.1 -1.05,-0.2 -0.233,-0.133 -0.216,-0.316 0.05,-0.55 0.267,-0.267 0.45,-0.35 0.55,-0.25 0.467,-0.233 0.7,-0.433 0.7,-0.6 0,-0.133 0.167,-0.217 0.5,-0.25 0.167,-0.033 0.217,-0.15 0.15,-0.35 -0.1,-0.267 -0.15,-0.417 -0.15,-0.45 0.033,-0.067 0.117,0 0.25,0.2 0.133,0.167 0.217,0.317 0.25,0.45 l 0.05,0.05 c 0.233,1.9 0.517,3.467 0.85,4.7 0.267,0.967 0.917,2.833 1.95,5.6 L 22.8,21.7 c -0.1,0.033 -0.233,0 -0.4,-0.1 C 22.3,21.533 22.217,21.433 22.15,21.3 22.084,21.167 22.033,21.084 22,21.05 21.9,21.017 21.817,21 21.75,21 c -0.1,-0.033 -0.217,-0.133 -0.35,-0.3 -0.1,-0.167 -0.133,-0.284 -0.1,-0.35 0.067,-0.1 0.083,-0.183 0.05,-0.25 z"
   id="path281"
   inkscape:connector-curvature="0" />
	<path
   style="clip-rule:evenodd;fill:#ebe28f;fill-rule:evenodd"
   d="m 21.25,21.75 c 0.567,0.2 1.05,0.3 1.45,0.3 -0.434,-1.367 -0.817,-2.216 -1.15,-2.55 -0.733,-0.933 -1.117,-1.417 -1.15,-1.45 -0.367,-0.367 -0.583,-0.75 -0.65,-1.15 -0.033,-0.233 0,-0.633 0.1,-1.2 0.133,-0.633 0.2,-1.05 0.2,-1.25 -0.1,-1.534 -0.1,-2.867 0,-4 0.233,2.367 0.55,4.3 0.95,5.8 0.6,2.2 1.383,4.367 2.35,6.5 -0.533,-0.033 -1.15,-0.183 -1.85,-0.45 -1.367,-0.533 -2.433,-1.367 -3.2,-2.5 0.867,0.933 1.85,1.583 2.95,1.95 z"
   id="path283"
   inkscape:connector-curvature="0" />
	<path
   style="clip-rule:evenodd;fill:#8c753b;fill-rule:evenodd"
   d="m 20.3,15 c -0.066,0.233 -0.216,0.333 -0.45,0.3 -0.167,-0.033 -0.283,-0.1 -0.35,-0.2 -0.067,-0.1 -0.05,-0.217 0.05,-0.35 0.1,-0.1 0.25,-0.083 0.45,0.05 0.1,0.067 0.2,0.133 0.3,0.2 z"
   id="path285"
   inkscape:connector-curvature="0" />
	<path
   style="clip-rule:evenodd;fill:#8c753b;fill-rule:evenodd"
   d="m 20.45,16.6 -0.25,0.6 c -0.067,0.1 -0.167,0.167 -0.3,0.2 -0.167,0.033 -0.25,-0.05 -0.25,-0.25 0,-0.2 0.133,-0.35 0.4,-0.45 0.133,-0.067 0.267,-0.1 0.4,-0.1 z"
   id="path287"
   inkscape:connector-curvature="0" />
	<path
   style="clip-rule:evenodd;fill:#8c753b;fill-rule:evenodd"
   d="m 21.25,18.4 0.1,0.6 c 0,0.233 -0.1,0.333 -0.3,0.3 -0.1,-0.033 -0.1,-0.183 0,-0.45 z"
   id="path289"
   inkscape:connector-curvature="0" />
	<path
   style="clip-rule:evenodd;fill:#fffdeb;fill-rule:evenodd"
   d="m 19.85,14.8 c 0.167,0.034 0.217,0.1 0.15,0.2 -0.1,0.067 -0.2,0.067 -0.3,0 -0.1,-0.033 -0.117,-0.083 -0.05,-0.15 0.067,-0.067 0.133,-0.083 0.2,-0.05 z"
   id="path291"
   inkscape:connector-curvature="0" />
	<path
   style="clip-rule:evenodd;fill:#fffdeb;fill-rule:evenodd"
   d="m 20.1,16.75 c 0.1,0.033 0.117,0.083 0.05,0.15 C 20.083,17 20,17.033 19.9,17 c -0.1,0 -0.1,-0.033 0,-0.1 0.067,-0.1 0.133,-0.15 0.2,-0.15 z"
   id="path293"
   inkscape:connector-curvature="0" />
	<path
   style="clip-rule:evenodd;fill:#fffdeb;fill-rule:evenodd"
   d="m 21.2,18.85 c 0.1,0.2 0.083,0.3 -0.05,0.3 -0.066,-0.033 -0.083,-0.117 -0.05,-0.25 0.067,-0.167 0.1,-0.183 0.1,-0.05 z"
   id="path295"
   inkscape:connector-curvature="0" />
	<path
   style="clip-rule:evenodd;fill:#e64b09;fill-rule:evenodd"
   d="m 16.4,17.35 c 0.033,0.066 0.2,0.566 0.5,1.5 0.2,0.667 0.367,1.1 0.5,1.3 0.333,0.467 0.517,0.883 0.55,1.25 0.066,0.533 -0.333,0.35 -1.2,-0.55 -0.333,-0.333 -0.55,-0.733 -0.65,-1.2 -0.067,-0.267 -0.1,-0.733 -0.1,-1.4 -0.033,-0.533 0,-0.9 0.1,-1.1 0.1,-0.2 0.2,-0.133 0.3,0.2 z"
   id="path297"
   inkscape:connector-curvature="0" />
	<path
   style="clip-rule:evenodd;fill:#f7733b;fill-rule:evenodd"
   d="m 16.35,18 c 0.2,0.433 0.283,0.817 0.25,1.15 -0.033,0.3 -0.117,0.367 -0.25,0.2 -0.133,-0.133 -0.2,-0.434 -0.2,-0.9 0.033,-0.5 0.1,-0.65 0.2,-0.45 z"
   id="path299"
   inkscape:connector-curvature="0" />
</g>
</svg>