<?xml version="1.0" encoding="UTF-8" standalone="no"?>
<!-- Generator: Adobe Illustrator 15.1.0, SVG Export Plug-In . SVG Version: 6.00 Build 0)  -->

<svg
   xmlns:dc="http://purl.org/dc/elements/1.1/"
   xmlns:cc="http://creativecommons.org/ns#"
   xmlns:rdf="http://www.w3.org/1999/02/22-rdf-syntax-ns#"
   xmlns:svg="http://www.w3.org/2000/svg"
   xmlns="http://www.w3.org/2000/svg"
   xmlns:xlink="http://www.w3.org/1999/xlink"
   xmlns:sodipodi="http://sodipodi.sourceforge.net/DTD/sodipodi-0.dtd"
   xmlns:inkscape="http://www.inkscape.org/namespaces/inkscape"
   version="1.1"
   id="flash0.ai"
   x="0px"
   y="0px"
   width="256"
   height="256"
   viewBox="0 0 256.00001 255.99999"
   xml:space="preserve"
   sodipodi:docname="spread_cloudberry_jam.svg"
   inkscape:version="0.92.4 (5da689c313, 2019-01-14)"><title
   id="title1516">Cloudberry Jam</title><metadata
   id="metadata709"><rdf:RDF><cc:Work
       rdf:about=""><dc:format>image/svg+xml</dc:format><dc:type
         rdf:resource="http://purl.org/dc/dcmitype/StillImage" /><dc:title>Cloudberry Jam</dc:title><cc:license
         rdf:resource="http://creativecommons.org/publicdomain/zero/1.0/" /><dc:creator><cc:Agent><dc:title>Glitch</dc:title></cc:Agent></dc:creator><dc:source>https://opengameart.org/node/20149</dc:source></cc:Work><cc:License
       rdf:about="http://creativecommons.org/publicdomain/zero/1.0/"><cc:permits
         rdf:resource="http://creativecommons.org/ns#Reproduction" /><cc:permits
         rdf:resource="http://creativecommons.org/ns#Distribution" /><cc:permits
         rdf:resource="http://creativecommons.org/ns#DerivativeWorks" /></cc:License></rdf:RDF></metadata><defs
   id="defs707"><linearGradient
     inkscape:collect="always"
     xlink:href="#SVGID_1_"
     id="linearGradient1477"
     gradientUnits="userSpaceOnUse"
     gradientTransform="matrix(0.0696,-0.9976,0.9976,0.0696,15751.972,548.4561)"
     x1="-545.87207"
     y1="-15750.113"
     x2="-520.71112"
     y2="-15750.113" /><linearGradient
     inkscape:collect="always"
     xlink:href="#SVGID_6_"
     id="linearGradient1479"
     gradientUnits="userSpaceOnUse"
     x1="4.2163"
     y1="-27.4844"
     x2="2.4663"
     y2="-2.3843999" /></defs><sodipodi:namedview
   pagecolor="#ffffff"
   bordercolor="#666666"
   borderopacity="1"
   objecttolerance="10"
   gridtolerance="10"
   guidetolerance="10"
   inkscape:pageopacity="0"
   inkscape:pageshadow="2"
   inkscape:window-width="1920"
   inkscape:window-height="1025"
   id="namedview705"
   showgrid="false"
   inkscape:zoom="0.68366162"
   inkscape:cx="81.688119"
   inkscape:cy="10.738487"
   inkscape:window-x="-8"
   inkscape:window-y="-8"
   inkscape:window-maximized="1"
   inkscape:current-layer="flash0.ai"
   fit-margin-top="0"
   fit-margin-left="0"
   fit-margin-right="0"
   fit-margin-bottom="0" />
<symbol
   id="flash0.ai_x5F_4_x2F_Layer_32_x2F__x3C_Path_x3E__x5F_10"
   viewBox="0 -31.5 5.3 31.5"
   transform="translate(-10.489,212.83078)">
	<g
   id="Layer_1_53_">
		
			<linearGradient
   id="SVGID_1_"
   gradientUnits="userSpaceOnUse"
   x1="-545.87207"
   y1="-15750.113"
   x2="-520.71112"
   y2="-15750.113"
   gradientTransform="matrix(0.0696,-0.9976,0.9976,0.0696,15751.972,548.4561)">
			<stop
   offset="0"
   style="stop-color:#FFFFFF"
   id="stop2" />
			<stop
   offset="1"
   style="stop-color:#000000"
   id="stop4" />
		</linearGradient>
		<path
   style="clip-rule:evenodd;fill:url(#linearGradient1477);fill-rule:evenodd"
   d="M 3.35,-0.55 5.3,0 C 5.3,-0.267 5.1,-1 4.7,-2.2 4.533,-2.667 4.167,-3.583 3.6,-4.95 3.133,-6.017 2.867,-6.8 2.8,-7.3 2.7,-7.933 2.65,-10.567 2.65,-15.2 2.617,-19.533 2.633,-22.9 2.7,-25.3 c 0.033,-2.867 0.216,-4.934 0.55,-6.2 -0.333,0.233 -0.8,0.717 -1.4,1.45 -0.4,0.466 -0.767,1.033 -1.1,1.7 L 0.35,-27.5 0,-6.5 c 0.033,0.5 0.3,1.1 0.8,1.8 0.6,0.7 0.983,1.2 1.15,1.5 0.733,1.167 1.2,2.05 1.4,2.65 z"
   id="path7"
   inkscape:connector-curvature="0" />
	</g>
</symbol>






<symbol
   id="flash0.ai_x5F_4_x2F_Layer_32_x2F__x3C_Path_x3E__x5F_16"
   viewBox="-0.041 -2.895 3.153 2.908"
   transform="translate(-10.489,212.83078)">
	<g
   id="Layer_1_52_">
		<path
   style="clip-rule:evenodd;fill:#ffffff;fill-rule:evenodd"
   d="M 2.5,-0.6 C 2.967,-1 3.167,-1.3 3.1,-1.5 2.9,-1.833 2.717,-2.15 2.55,-2.45 2.35,-2.916 1.95,-3.016 1.35,-2.75 0.717,-2.45 0.283,-1.933 0.05,-1.2 -0.183,-0.5 0.033,-0.1 0.7,0 1.333,0.067 1.933,-0.133 2.5,-0.6 Z"
   id="path35"
   inkscape:connector-curvature="0" />
	</g>
</symbol>
<symbol
   id="flash0.ai_x5F_4_x2F_Layer_32_x2F__x3C_Path_x3E__x5F_17"
   viewBox="0.013 -2.9 2.844 2.912"
   transform="translate(-10.489,212.83078)">
	<g
   id="Layer_1_51_">
		<path
   style="clip-rule:evenodd;fill:#ffffff;fill-rule:evenodd"
   d="M 2.85,-0.65 C 2.883,-0.883 2.783,-1.383 2.55,-2.15 2.383,-2.617 2.233,-2.867 2.1,-2.9 c -0.067,0 -0.5,0.133 -1.3,0.4 -0.7,0.233 -0.933,0.7 -0.7,1.4 0.233,0.667 0.683,1.033 1.35,1.1 0.833,0.067 1.3,-0.15 1.4,-0.65 z"
   id="path39"
   inkscape:connector-curvature="0" />
	</g>
</symbol>
<symbol
   id="flash0.ai_x5F_4_x2F_Layer_32_x2F__x3C_Path_x3E__x5F_18"
   viewBox="-0.026 -1.766 2.701 1.811"
   transform="translate(-10.489,212.83078)">
	<g
   id="Layer_1_50_">
		<path
   style="clip-rule:evenodd;fill:#ffffff;fill-rule:evenodd"
   d="m 2.2,-0.05 c 0.633,-0.233 0.633,-0.633 0,-1.2 -0.633,-0.567 -1.25,-0.667 -1.85,-0.3 -0.533,0.367 -0.5,0.75 0.1,1.15 0.6,0.433 1.183,0.55 1.75,0.35 z"
   id="path43"
   inkscape:connector-curvature="0" />
	</g>
</symbol>
<symbol
   id="flash0.ai_x5F_4_x2F_Layer_32_x2F__x3C_Path_x3E__x5F_19"
   viewBox="-0.018 -1.613 2.262 1.624"
   transform="translate(-10.489,212.83078)">
	<g
   id="Layer_1_49_">
		<path
   style="clip-rule:evenodd;fill:#ffffff;fill-rule:evenodd"
   d="M 1.25,0 C 2.117,-0.167 2.417,-0.5 2.15,-1 1.883,-1.467 1.383,-1.667 0.65,-1.6 0.017,-1.533 -0.167,-1.233 0.1,-0.7 0.367,-0.167 0.75,0.067 1.25,0 Z"
   id="path47"
   inkscape:connector-curvature="0" />
	</g>
</symbol>
<symbol
   id="flash0.ai_x5F_4_x2F_Layer_32_x2F__x3C_Path_x3E__x5F_20"
   viewBox="0.005 -2.506 3.337 2.515"
   transform="translate(-10.489,212.83078)">
	<g
   id="Layer_1_48_">
		<path
   style="clip-rule:evenodd;fill:#ffffff;fill-rule:evenodd"
   d="M 2.3,0 C 3.2,-0.033 3.517,-0.4 3.25,-1.1 3.017,-1.7 2.667,-2.133 2.2,-2.4 1.633,-2.733 0.95,-2.283 0.15,-1.05 -0.117,-0.683 -0.017,-0.4 0.45,-0.2 0.85,-0.033 1.467,0.033 2.3,0 Z"
   id="path51"
   inkscape:connector-curvature="0" />
	</g>
</symbol>

<symbol
   id="flash0.ai_x5F_4_x2F_Layer_32_x2F__x3C_Path_x3E__x5F_22"
   viewBox="-0.013 -2.804 2.313 2.905"
   transform="translate(-10.489,212.83078)">
	<g
   id="Layer_1_46_">
		<path
   style="clip-rule:evenodd;fill:#ffffff;fill-rule:evenodd"
   d="M 2.1,-0.4 C 2.433,-1.267 2.35,-1.967 1.85,-2.5 1.35,-3 0.833,-2.883 0.3,-2.15 c -0.5,0.7 -0.4,1.316 0.3,1.85 0.767,0.567 1.267,0.533 1.5,-0.1 z"
   id="path59"
   inkscape:connector-curvature="0" />
	</g>
</symbol>
<symbol
   id="flash0.ai_x5F_4_x2F_Layer_32_x2F__x3C_Path_x3E__x5F_23"
   viewBox="0.017 -1.748 2.161 1.748"
   transform="translate(-10.489,212.83078)">
	<g
   id="Layer_1_45_">
		<path
   style="clip-rule:evenodd;fill:#ffffff;fill-rule:evenodd"
   d="m 1.4,0 c 0.8,-0.067 0.983,-0.433 0.55,-1.1 -0.4,-0.7 -0.9,-0.833 -1.5,-0.4 -0.5,0.367 -0.567,0.717 -0.2,1.05 C 0.55,-0.15 0.933,0 1.4,0 Z"
   id="path63"
   inkscape:connector-curvature="0" />
	</g>
</symbol>
<symbol
   id="flash0.ai_x5F_4_x2F_Layer_32_x2F__x3C_Path_x3E__x5F_24"
   viewBox="0.028 -1.804 3.695 1.827"
   transform="translate(-10.489,212.83078)">
	<g
   id="Layer_1_44_">
		<path
   style="clip-rule:evenodd;fill:#ffffff;fill-rule:evenodd"
   d="M 2.3,0 C 3.7,-0.2 4.067,-0.467 3.4,-0.8 2.3,-1.167 1.6,-1.433 1.3,-1.6 0.867,-1.833 0.533,-1.867 0.3,-1.7 0.067,-1.567 -0.017,-1.333 0.05,-1 c 0.1,0.3 0.333,0.55 0.7,0.75 C 1.217,-0.017 1.733,0.067 2.3,0 Z"
   id="path67"
   inkscape:connector-curvature="0" />
	</g>
</symbol>





<symbol
   id="flash0.ai_x5F_4_x2F_Layer_32_x2F__x3C_Path_x3E__x5F_4"
   viewBox="0.028 -1.206 9.472 1.206"
   transform="translate(-10.489,212.83078)">
	<g
   id="Layer_1_57_">
		<path
   style="clip-rule:evenodd;fill:#ffffff;fill-rule:evenodd"
   d="m 0.45,-0.05 c 0.633,-0.2 1.667,-0.4 3.1,-0.6 1.8,-0.267 3.784,-0.4 5.95,-0.4 -0.067,-0.167 -1.15,-0.2 -3.25,-0.1 -2.667,0.1 -4.65,0.383 -5.95,0.85 -0.233,0.1 -0.317,0.183 -0.25,0.25 0.067,0.067 0.2,0.067 0.4,0 z"
   id="path101"
   inkscape:connector-curvature="0" />
	</g>
</symbol>










<symbol
   id="flash0.ai_x5F_4_x2F_Layer_32_x2F__x3C_Path_x3E__x5F_6"
   viewBox="0 -3.708 17.65 3.708"
   transform="translate(-10.489,212.83078)">
	<g
   id="Layer_1_56_">
		<path
   style="clip-rule:evenodd;fill:#6a6b3b;fill-rule:evenodd"
   d="m 17.25,-0.95 c 0.167,-0.267 0.3,-0.5 0.4,-0.7 C 17.65,-1.717 17.567,-1.834 17.4,-2 17.267,-2.2 17.033,-2.333 16.7,-2.4 16.233,-2.5 15.8,-2.584 15.4,-2.65 13.633,-2.817 12.517,-3 12.05,-3.2 11.45,-3.467 10.8,-3.633 10.1,-3.7 9.933,-3.733 9.633,-3.667 9.2,-3.5 8.667,-3.3 8.217,-3.133 7.85,-3 6.783,-2.7 5.767,-2.75 4.8,-3.15 c -0.6,-0.233 -1.083,-0.1 -1.45,0.4 -0.067,0.1 -0.4,0.2 -1,0.3 C 1.75,-2.383 1.333,-2.233 1.1,-2 0.367,-1.333 0,-0.667 0,0 11.2,-0.1 16.95,-0.417 17.25,-0.95 Z"
   id="path145"
   inkscape:connector-curvature="0" />
	</g>
</symbol>













<symbol
   id="flash0.ai_x5F_4_x2F_Layer_32_x2F__x3C_Path_x3E__x5F_8"
   viewBox="0 -5.383 19.4 5.383"
   transform="translate(-10.489,212.83078)">
	<g
   id="Layer_1_55_">
		<path
   style="clip-rule:evenodd;fill:#ab4515;fill-rule:evenodd"
   d="m 17.9,-0.9 c 0.167,-0.567 0.667,-1.333 1.5,-2.3 -0.467,-0.5 -1.033,-0.933 -1.7,-1.3 -0.367,-0.2 -0.95,-0.35 -1.75,-0.45 -1,-0.133 -1.6,-0.233 -1.8,-0.3 -0.433,-0.133 -1.017,-0.167 -1.75,-0.1 -0.867,0.1 -1.517,0.167 -1.95,0.2 -0.2,0 -0.733,0.167 -1.6,0.5 -0.867,0.267 -2.017,0.433 -3.45,0.5 -1.333,0.066 -2.283,0.233 -2.85,0.5 -0.067,0.033 -0.383,0.283 -0.95,0.75 -0.433,0.333 -0.967,0.467 -1.6,0.4 0.567,0.967 1.05,1.717 1.45,2.25 V 0 c 10.8,0 16.283,-0.3 16.45,-0.9 z"
   id="path211"
   inkscape:connector-curvature="0" />
	</g>
</symbol>



<symbol
   id="flash0.ai_x5F_4_x2F_Layer_32_x2F__x3C_Path_x3E__x5F_9"
   viewBox="0 -31.5 5.25 31.5"
   transform="translate(-10.489,212.83078)">
	<g
   id="Layer_1_54_">
		<linearGradient
   id="SVGID_6_"
   gradientUnits="userSpaceOnUse"
   x1="4.2163"
   y1="-27.4844"
   x2="2.4663"
   y2="-2.3843999">
			<stop
   offset="0"
   style="stop-color:#FFFFFF"
   id="stop227" />
			<stop
   offset="1"
   style="stop-color:#000000"
   id="stop229" />
		</linearGradient>
		<path
   style="clip-rule:evenodd;fill:url(#linearGradient1479);fill-rule:evenodd"
   d="M 1.95,-0.55 C 2.117,-1.15 2.567,-2.033 3.3,-3.2 3.5,-3.5 3.883,-4 4.45,-4.7 4.95,-5.4 5.217,-6 5.25,-6.5 l -0.3,-21 -0.4,-0.85 c -0.367,-0.667 -0.733,-1.233 -1.1,-1.7 -0.6,-0.733 -1.083,-1.217 -1.45,-1.45 0.367,1.267 0.567,3.333 0.6,6.2 0.133,10.5 0.083,16.5 -0.15,18 -0.067,0.5 -0.333,1.283 -0.8,2.35 C 1.117,-3.65 0.767,-2.733 0.6,-2.2 0.2,-1 0,-0.267 0,0 Z"
   id="path232"
   inkscape:connector-curvature="0" />
	</g>
</symbol>





<g
   id="g702"
   transform="matrix(7.9182883,0,0,7.9182883,-31.703957,-85.826327)">
	
		<linearGradient
   id="SVGID_9_"
   gradientUnits="userSpaceOnUse"
   x1="22.375"
   y1="21.200199"
   x2="44.224602"
   y2="21.200199"
   gradientTransform="matrix(0.8,0,0,0.8,0.0497,-1.220703e-4)">
		<stop
   offset="0"
   style="stop-color:#FEA24C"
   id="stop266" />
		<stop
   offset="1"
   style="stop-color:#A84213"
   id="stop268" />
	</linearGradient>
	
	
		<radialGradient
   id="SVGID_10_"
   cx="30.9951"
   cy="-16.542"
   r="20.131001"
   gradientTransform="matrix(0.4277,0.6761,0.6761,-0.4277,22.4166,-14.1494)"
   gradientUnits="userSpaceOnUse">
		<stop
   offset="0"
   style="stop-color:#FFA34D"
   id="stop273" />
		<stop
   offset="1"
   style="stop-color:#CC4B14"
   id="stop275" />
	</radialGradient>
	
	
		
	
		
	
		
	
		
	
		
	
		
	
		
	
		
	
		
	
		<linearGradient
   id="SVGID_11_"
   gradientUnits="userSpaceOnUse"
   x1="23"
   y1="23.1602"
   x2="37.400398"
   y2="23.1602"
   gradientTransform="matrix(0.8,0,0,0.8,0.0497,-1.220703e-4)">
		<stop
   offset="0"
   style="stop-color:#FEFFD6"
   id="stop298" />
		<stop
   offset="1"
   style="stop-color:#C2C2A4"
   id="stop300" />
	</linearGradient>
	
	
		<linearGradient
   id="SVGID_12_"
   gradientUnits="userSpaceOnUse"
   x1="24.5254"
   y1="20.675301"
   x2="32.275398"
   y2="20.675301"
   gradientTransform="matrix(0.8,0,0,0.8,0.0497,-1.220703e-4)">
		<stop
   offset="0"
   style="stop-color:#FFA34D"
   id="stop305" />
		<stop
   offset="1"
   style="stop-color:#CC4B14"
   id="stop307" />
	</linearGradient>
	
	
		<linearGradient
   id="SVGID_13_"
   gradientUnits="userSpaceOnUse"
   x1="24.5254"
   y1="23.575199"
   x2="32.275398"
   y2="23.575199"
   gradientTransform="matrix(0.8,0,0,0.8,0.0497,-1.220703e-4)">
		<stop
   offset="0"
   style="stop-color:#FFA34D"
   id="stop312" />
		<stop
   offset="1"
   style="stop-color:#CC4B14"
   id="stop314" />
	</linearGradient>
	
	
		<linearGradient
   id="SVGID_14_"
   gradientUnits="userSpaceOnUse"
   x1="24.5254"
   y1="23.6504"
   x2="32.275398"
   y2="23.6504"
   gradientTransform="matrix(0.8,0,0,0.8,0.0497,-1.220703e-4)">
		<stop
   offset="0"
   style="stop-color:#FFA34D"
   id="stop319" />
		<stop
   offset="1"
   style="stop-color:#CC4B14"
   id="stop321" />
	</linearGradient>
	
	
		<linearGradient
   id="SVGID_15_"
   gradientUnits="userSpaceOnUse"
   x1="26.200199"
   y1="26.4727"
   x2="31.2988"
   y2="26.4727"
   gradientTransform="matrix(0.8,0,0,0.8,0.0497,-1.220703e-4)">
		<stop
   offset="0"
   style="stop-color:#B7FF59"
   id="stop326" />
		<stop
   offset="1"
   style="stop-color:#77A339"
   id="stop328" />
	</linearGradient>
	
	
		
	
		
	
		
	
		<linearGradient
   id="SVGID_16_"
   gradientUnits="userSpaceOnUse"
   x1="23.862301"
   y1="6.9502001"
   x2="42.837299"
   y2="6.9502001"
   gradientTransform="matrix(0.8,0,0,0.8,0.0497,-1.220703e-4)">
		<stop
   offset="0"
   style="stop-color:#FEFFD6"
   id="stop339" />
		<stop
   offset="1"
   style="stop-color:#ADAD93"
   id="stop341" />
	</linearGradient>
	
	
		
	
		<linearGradient
   id="SVGID_17_"
   gradientUnits="userSpaceOnUse"
   x1="25.4004"
   y1="5.8994002"
   x2="41.200401"
   y2="5.8994002"
   gradientTransform="matrix(0.8,0,0,0.8,0.0497,-1.220703e-4)">
		<stop
   offset="0"
   style="stop-color:#D4B66A"
   id="stop348" />
		<stop
   offset="1"
   style="stop-color:#786636"
   id="stop350" />
	</linearGradient>
	
	
		
	
	
	
		<linearGradient
   id="SVGID_18_"
   gradientUnits="userSpaceOnUse"
   x1="24.9121"
   y1="3.5258999"
   x2="41.687099"
   y2="3.5258999"
   gradientTransform="matrix(0.8,0,0,0.8,0.0497,-1.220703e-4)">
		<stop
   offset="0"
   style="stop-color:#FEFFD6"
   id="stop361" />
		<stop
   offset="1"
   style="stop-color:#91917B"
   id="stop363" />
	</linearGradient>
	
	
		<linearGradient
   id="SVGID_19_"
   gradientUnits="userSpaceOnUse"
   x1="-41.5513"
   y1="-3.9721999"
   x2="-24.361099"
   y2="-3.9721999"
   gradientTransform="matrix(-0.7981,0.0547,-0.0547,-0.7981,0.0505,2.896637e-4)">
		<stop
   offset="0"
   style="stop-color:#FEFFD6"
   id="stop368" />
		<stop
   offset="1"
   style="stop-color:#F9FAD5"
   id="stop370" />
	</linearGradient>
	
	
		<linearGradient
   id="SVGID_20_"
   gradientUnits="userSpaceOnUse"
   x1="-0.049800001"
   y1="28.9746"
   x2="22.450199"
   y2="28.9746"
   gradientTransform="matrix(0.8,0,0,0.8,0.0497,-1.220703e-4)">
		<stop
   offset="0"
   style="stop-color:#FEA24C"
   id="stop375" />
		<stop
   offset="1"
   style="stop-color:#A84213"
   id="stop377" />
	</linearGradient>
	
	
		<radialGradient
   id="SVGID_21_"
   cx="25.5898"
   cy="6.3144999"
   r="20.7551"
   gradientTransform="matrix(0.4278,0.676,0.676,-0.4278,-8.4859,5.4033)"
   gradientUnits="userSpaceOnUse">
		<stop
   offset="0"
   style="stop-color:#FFA34D"
   id="stop382" />
		<stop
   offset="1"
   style="stop-color:#CC4B14"
   id="stop384" />
	</radialGradient>
	
	
		
	
		
	
		
	
		
	
		
	
		
	
		
	
		
	
		
	
		<linearGradient
   id="SVGID_22_"
   gradientUnits="userSpaceOnUse"
   x1="0.58740002"
   y1="31.0098"
   x2="15.4124"
   y2="31.0098"
   gradientTransform="matrix(0.8,0,0,0.8,0.0497,-1.220703e-4)">
		<stop
   offset="0"
   style="stop-color:#FEFFD6"
   id="stop407" />
		<stop
   offset="1"
   style="stop-color:#C2C2A4"
   id="stop409" />
	</linearGradient>
	
	
		<linearGradient
   id="SVGID_23_"
   gradientUnits="userSpaceOnUse"
   x1="2.1626"
   y1="28.450199"
   x2="10.1376"
   y2="28.450199"
   gradientTransform="matrix(0.8,0,0,0.8,0.0497,-1.220703e-4)">
		<stop
   offset="0"
   style="stop-color:#FFA34D"
   id="stop414" />
		<stop
   offset="1"
   style="stop-color:#CC4B14"
   id="stop416" />
	</linearGradient>
	
	
		<linearGradient
   id="SVGID_24_"
   gradientUnits="userSpaceOnUse"
   x1="2.1626"
   y1="31.4258"
   x2="10.1376"
   y2="31.4258"
   gradientTransform="matrix(0.8,0,0,0.8,0.0497,-1.220703e-4)">
		<stop
   offset="0"
   style="stop-color:#FFA34D"
   id="stop421" />
		<stop
   offset="1"
   style="stop-color:#CC4B14"
   id="stop423" />
	</linearGradient>
	
	
		<linearGradient
   id="SVGID_25_"
   gradientUnits="userSpaceOnUse"
   x1="2.1626"
   y1="31.5"
   x2="10.1376"
   y2="31.5"
   gradientTransform="matrix(0.8,0,0,0.8,0.0497,-1.220703e-4)">
		<stop
   offset="0"
   style="stop-color:#FFA34D"
   id="stop428" />
		<stop
   offset="1"
   style="stop-color:#CC4B14"
   id="stop430" />
	</linearGradient>
	
	
		<linearGradient
   id="SVGID_26_"
   gradientUnits="userSpaceOnUse"
   x1="3.8622999"
   y1="34.419899"
   x2="9.1372995"
   y2="34.419899"
   gradientTransform="matrix(0.8,0,0,0.8,0.0497,-1.220703e-4)">
		<stop
   offset="0"
   style="stop-color:#B7FF59"
   id="stop435" />
		<stop
   offset="1"
   style="stop-color:#77A339"
   id="stop437" />
	</linearGradient>
	
	
		
	
		
	
		
	
		<linearGradient
   id="SVGID_27_"
   gradientUnits="userSpaceOnUse"
   x1="1.4751"
   y1="14.2998"
   x2="21.025101"
   y2="14.2998"
   gradientTransform="matrix(0.8,0,0,0.8,0.0497,-1.220703e-4)">
		<stop
   offset="0"
   style="stop-color:#FEFFD6"
   id="stop448" />
		<stop
   offset="1"
   style="stop-color:#ADAD93"
   id="stop450" />
	</linearGradient>
	
	
		
	
		<linearGradient
   id="SVGID_28_"
   gradientUnits="userSpaceOnUse"
   x1="3"
   y1="13.1997"
   x2="19.275"
   y2="13.1997"
   gradientTransform="matrix(0.8,0,0,0.8,0.0497,-1.220703e-4)">
		<stop
   offset="0"
   style="stop-color:#D4B66A"
   id="stop457" />
		<stop
   offset="1"
   style="stop-color:#786636"
   id="stop459" />
	</linearGradient>
	
	
		
	
	
	
		<linearGradient
   id="SVGID_29_"
   gradientUnits="userSpaceOnUse"
   x1="2.4877999"
   y1="10.7539"
   x2="19.7878"
   y2="10.7539"
   gradientTransform="matrix(0.8,0,0,0.8,0.0497,-1.220703e-4)">
		<stop
   offset="0"
   style="stop-color:#FEFFD6"
   id="stop470" />
		<stop
   offset="1"
   style="stop-color:#91917B"
   id="stop472" />
	</linearGradient>
	
	
		<linearGradient
   id="SVGID_30_"
   gradientUnits="userSpaceOnUse"
   x1="-19.267099"
   y1="-9.6533003"
   x2="-1.5497"
   y2="-9.6533003"
   gradientTransform="matrix(-0.7981,0.0553,-0.0553,-0.7981,0.0491,2.038255e-4)">
		<stop
   offset="0"
   style="stop-color:#FEFFD6"
   id="stop477" />
		<stop
   offset="1"
   style="stop-color:#F9FAD5"
   id="stop479" />
	</linearGradient>
	
	
		<linearGradient
   id="SVGID_31_"
   gradientUnits="userSpaceOnUse"
   x1="32.749001"
   y1="31.4746"
   x2="55.249001"
   y2="31.4746"
   gradientTransform="matrix(0.8,0,0,0.8,0.0497,-1.220703e-4)">
		<stop
   offset="0"
   style="stop-color:#FEA24C"
   id="stop484" />
		<stop
   offset="1"
   style="stop-color:#A84213"
   id="stop486" />
	</linearGradient>
	
	
		<radialGradient
   id="SVGID_32_"
   cx="45.2705"
   cy="-20.105499"
   r="20.7551"
   gradientTransform="matrix(0.4278,0.676,0.676,-0.4278,27.2322,-17.2037)"
   gradientUnits="userSpaceOnUse">
		<stop
   offset="0"
   style="stop-color:#FFA34D"
   id="stop491" />
		<stop
   offset="1"
   style="stop-color:#CC4B14"
   id="stop493" />
	</radialGradient>
	
	
		
	
		
	
		
	
		
	
		
	
		
	
		
	
		
	
		
	
		<linearGradient
   id="SVGID_33_"
   gradientUnits="userSpaceOnUse"
   x1="33.4375"
   y1="33.508801"
   x2="48.262501"
   y2="33.508801"
   gradientTransform="matrix(0.8,0,0,0.8,0.0497,-1.220703e-4)">
		<stop
   offset="0"
   style="stop-color:#FEFFD6"
   id="stop516" />
		<stop
   offset="1"
   style="stop-color:#C2C2A4"
   id="stop518" />
	</linearGradient>
	
	
		<linearGradient
   id="SVGID_34_"
   gradientUnits="userSpaceOnUse"
   x1="35.012699"
   y1="30.950199"
   x2="42.987701"
   y2="30.950199"
   gradientTransform="matrix(0.8,0,0,0.8,0.0497,-1.220703e-4)">
		<stop
   offset="0"
   style="stop-color:#FFA34D"
   id="stop523" />
		<stop
   offset="1"
   style="stop-color:#CC4B14"
   id="stop525" />
	</linearGradient>
	
	
		<linearGradient
   id="SVGID_35_"
   gradientUnits="userSpaceOnUse"
   x1="35.012699"
   y1="33.9258"
   x2="42.987701"
   y2="33.9258"
   gradientTransform="matrix(0.8,0,0,0.8,0.0497,-1.220703e-4)">
		<stop
   offset="0"
   style="stop-color:#FFA34D"
   id="stop530" />
		<stop
   offset="1"
   style="stop-color:#CC4B14"
   id="stop532" />
	</linearGradient>
	
	
		<linearGradient
   id="SVGID_36_"
   gradientUnits="userSpaceOnUse"
   x1="35.012699"
   y1="34"
   x2="42.987701"
   y2="34"
   gradientTransform="matrix(0.8,0,0,0.8,0.0497,-1.220703e-4)">
		<stop
   offset="0"
   style="stop-color:#FFA34D"
   id="stop537" />
		<stop
   offset="1"
   style="stop-color:#CC4B14"
   id="stop539" />
	</linearGradient>
	
	
		<linearGradient
   id="SVGID_37_"
   gradientUnits="userSpaceOnUse"
   x1="36.712898"
   y1="36.919899"
   x2="41.9879"
   y2="36.919899"
   gradientTransform="matrix(0.8,0,0,0.8,0.0497,-1.220703e-4)">
		<stop
   offset="0"
   style="stop-color:#B7FF59"
   id="stop544" />
		<stop
   offset="1"
   style="stop-color:#77A339"
   id="stop546" />
	</linearGradient>
	
	
		
	
		
	
		
	
		<linearGradient
   id="SVGID_38_"
   gradientUnits="userSpaceOnUse"
   x1="34.325199"
   y1="16.799801"
   x2="53.875"
   y2="16.799801"
   gradientTransform="matrix(0.8,0,0,0.8,0.0497,-1.220703e-4)">
		<stop
   offset="0"
   style="stop-color:#FEFFD6"
   id="stop557" />
		<stop
   offset="1"
   style="stop-color:#ADAD93"
   id="stop559" />
	</linearGradient>
	
	
		
	
		<linearGradient
   id="SVGID_39_"
   gradientUnits="userSpaceOnUse"
   x1="35.850601"
   y1="15.7002"
   x2="52.125599"
   y2="15.7002"
   gradientTransform="matrix(0.8,0,0,0.8,0.0497,-1.220703e-4)">
		<stop
   offset="0"
   style="stop-color:#D4B66A"
   id="stop566" />
		<stop
   offset="1"
   style="stop-color:#786636"
   id="stop568" />
	</linearGradient>
	
	
		
	
	
	
		<linearGradient
   id="SVGID_40_"
   gradientUnits="userSpaceOnUse"
   x1="35.336899"
   y1="13.2539"
   x2="52.636902"
   y2="13.2539"
   gradientTransform="matrix(0.8,0,0,0.8,0.0497,-1.220703e-4)">
		<stop
   offset="0"
   style="stop-color:#FEFFD6"
   id="stop579" />
		<stop
   offset="1"
   style="stop-color:#91917B"
   id="stop581" />
	</linearGradient>
	
	
		<linearGradient
   id="SVGID_41_"
   gradientUnits="userSpaceOnUse"
   x1="-51.8652"
   y1="-14.417"
   x2="-34.1478"
   y2="-14.417"
   gradientTransform="matrix(-0.7981,0.0553,-0.0553,-0.7981,0.0491,2.038255e-4)">
		<stop
   offset="0"
   style="stop-color:#FEFFD6"
   id="stop586" />
		<stop
   offset="1"
   style="stop-color:#F9FAD5"
   id="stop588" />
	</linearGradient>
	
	
		<linearGradient
   id="SVGID_42_"
   gradientUnits="userSpaceOnUse"
   x1="13.0493"
   y1="36.9814"
   x2="37.2243"
   y2="36.9814"
   gradientTransform="matrix(0.8,0,0,0.8,0.0497,-1.220703e-4)">
		<stop
   offset="0"
   style="stop-color:#FEA24C"
   id="stop593" />
		<stop
   offset="1"
   style="stop-color:#A84213"
   id="stop595" />
	</linearGradient>
	<path
   style="clip-rule:evenodd;fill:url(#SVGID_42_);fill-rule:evenodd"
   d="m 26.17,16 c 0.56,1.013 1.279,2 2.159,2.96 0.561,0.586 0.934,1.147 1.12,1.68 0.267,0.667 0.4,1.547 0.4,2.64 0,1.067 -0.093,3.627 -0.28,7.681 -0.187,3.866 -0.32,6.16 -0.399,6.879 -0.081,0.854 -0.454,1.681 -1.12,2.48 -0.88,1.094 -2.174,1.88 -3.88,2.359 -1.36,0.374 -2.694,0.534 -4,0.48 -1.307,0.054 -2.654,-0.106 -4.041,-0.48 -1.707,-0.479 -3,-1.266 -3.88,-2.359 -0.667,-0.8 -1.026,-1.627 -1.08,-2.48 -0.08,-0.719 -0.213,-3.013 -0.4,-6.879 -0.187,-4.054 -0.28,-6.613 -0.28,-7.681 0,-1.093 0.134,-1.973 0.4,-2.64 0.187,-0.506 0.547,-1.066 1.08,-1.68 0.96,-1.013 1.693,-2 2.2,-2.96 l 6,0.32 z"
   id="path598"
   inkscape:connector-curvature="0" />
	
		<radialGradient
   id="SVGID_43_"
   cx="39.4492"
   cy="-1.2012"
   r="22.288099"
   gradientTransform="matrix(0.4276,0.6761,0.6761,-0.4276,1.6734,-1.0269)"
   gradientUnits="userSpaceOnUse">
		<stop
   offset="0"
   style="stop-color:#FFA34D"
   id="stop600" />
		<stop
   offset="1"
   style="stop-color:#CC4B14"
   id="stop602" />
	</radialGradient>
	<path
   style="clip-rule:evenodd;fill:url(#SVGID_43_);fill-rule:evenodd"
   d="m 25.729,16.24 c 0.533,0.986 1.213,1.947 2.04,2.88 0.507,0.586 0.866,1.133 1.08,1.64 0.213,0.64 0.32,1.493 0.32,2.561 0,0.986 -0.094,3.479 -0.28,7.479 -0.16,3.547 -0.267,5.773 -0.32,6.68 -0.08,0.854 -0.427,1.653 -1.04,2.399 -0.827,1.067 -2.04,1.827 -3.64,2.28 -1.333,0.374 -2.6,0.533 -3.8,0.48 -1.227,0.053 -2.479,-0.106 -3.76,-0.48 -1.6,-0.453 -2.813,-1.213 -3.64,-2.28 -0.64,-0.772 -0.986,-1.572 -1.04,-2.399 -0.053,-0.667 -0.173,-2.894 -0.36,-6.68 -0.187,-3.921 -0.28,-6.413 -0.28,-7.479 0,-1.067 0.12,-1.92 0.36,-2.561 0.187,-0.507 0.534,-1.053 1.04,-1.64 0.96,-1.041 1.64,-2 2.04,-2.88 l 5.64,0.32 z"
   id="path605"
   inkscape:connector-curvature="0" />
	
		<use
   xlink:href="#flash0.ai_x5F_4_x2F_Layer_32_x2F__x3C_Path_x3E__x5F_24"
   width="3.6949999"
   height="1.827"
   x="0.028000001"
   y="-1.804"
   transform="matrix(0.8,0,0,-0.8,24.3414,191.56443)"
   style="overflow:visible;opacity:0.17970001;enable-background:new"
   id="use607" />
	
		<use
   xlink:href="#flash0.ai_x5F_4_x2F_Layer_32_x2F__x3C_Path_x3E__x5F_23"
   width="2.161"
   height="1.748"
   x="0.017000001"
   y="-1.748"
   transform="matrix(0.8,0,0,-0.8,27.941,192.76463)"
   style="overflow:visible;opacity:0.17970001;enable-background:new"
   id="use609" />
	
		<use
   xlink:href="#flash0.ai_x5F_4_x2F_Layer_32_x2F__x3C_Path_x3E__x5F_22"
   width="2.313"
   height="2.905"
   x="-0.013"
   y="-2.8039999"
   transform="matrix(0.8,0,0,-0.8,21.6412,194.01463)"
   style="overflow:visible;opacity:0.17970001;enable-background:new"
   id="use611" />
	
		<g
   id="use613"
   transform="matrix(0.8,0,0,-0.8,13.6802,34.4698)">
	<g
   id="g1291">
		<path
   id="path1289"
   d="M 1.9,-0.1 C 2.334,-0.233 2.5,-0.767 2.4,-1.7 2.333,-2.633 2.083,-3.233 1.65,-3.5 1.283,-3.7 1.033,-3.7 0.9,-3.5 c -0.2,0.4 -0.417,0.783 -0.65,1.15 -0.367,0.567 -0.367,1.133 0,1.7 0.367,0.567 0.917,0.75 1.65,0.55 z"
   style="clip-rule:evenodd;fill:#ffffff;fill-rule:evenodd"
   inkscape:connector-curvature="0" />
	</g>
</g>
	
		<use
   xlink:href="#flash0.ai_x5F_4_x2F_Layer_32_x2F__x3C_Path_x3E__x5F_20"
   width="3.3369999"
   height="2.5150001"
   x="0.0049999999"
   y="-2.506"
   transform="matrix(0.8,0,0,-0.8,22.3414,208.51463)"
   style="overflow:visible;opacity:0.17970001;enable-background:new"
   id="use615" />
	
		<use
   xlink:href="#flash0.ai_x5F_4_x2F_Layer_32_x2F__x3C_Path_x3E__x5F_19"
   width="2.2620001"
   height="1.624"
   x="-0.017999999"
   y="-1.613"
   transform="matrix(0.8,0,0,-0.8,25.5914,209.96483)"
   style="overflow:visible;opacity:0.17970001;enable-background:new"
   id="use617" />
	
		<use
   xlink:href="#flash0.ai_x5F_4_x2F_Layer_32_x2F__x3C_Path_x3E__x5F_18"
   width="2.701"
   height="1.811"
   x="-0.026000001"
   y="-1.766"
   transform="matrix(0.8,0,0,-0.8,31.8414,208.71483)"
   style="overflow:visible;opacity:0.17970001;enable-background:new"
   id="use619" />
	
		<use
   xlink:href="#flash0.ai_x5F_4_x2F_Layer_32_x2F__x3C_Path_x3E__x5F_17"
   width="2.8440001"
   height="2.9119999"
   x="0.013"
   y="-2.9000001"
   transform="matrix(0.8,0,0,-0.8,33.441,205.81443)"
   style="overflow:visible;opacity:0.17970001;enable-background:new"
   id="use621" />
	
		<use
   xlink:href="#flash0.ai_x5F_4_x2F_Layer_32_x2F__x3C_Path_x3E__x5F_16"
   width="3.1530001"
   height="2.908"
   x="-0.041000001"
   y="-2.895"
   transform="matrix(0.8,0,0,-0.8,33.4908,191.96483)"
   style="overflow:visible;opacity:0.17970001;enable-background:new"
   id="use623" />
	
		<linearGradient
   id="SVGID_44_"
   gradientUnits="userSpaceOnUse"
   x1="13.75"
   y1="39.164101"
   x2="29.674999"
   y2="39.164101"
   gradientTransform="matrix(0.8,0,0,0.8,0.0497,-1.220703e-4)">
		<stop
   offset="0"
   style="stop-color:#FEFFD6"
   id="stop625" />
		<stop
   offset="1"
   style="stop-color:#C2C2A4"
   id="stop627" />
	</linearGradient>
	<path
   style="clip-rule:evenodd;fill:url(#SVGID_44_);fill-rule:evenodd"
   d="m 11.05,25.079 c 1.867,0.613 4.56,0.841 8.08,0.681 1.733,-0.053 3.293,-0.187 4.68,-0.4 v 11.479 c -1.28,0.348 -2.747,0.574 -4.4,0.681 -3.333,0.24 -5.947,-0.213 -7.84,-1.36 -0.267,-4.214 -0.44,-7.907 -0.52,-11.081 z"
   id="path630"
   inkscape:connector-curvature="0" />
	
		<linearGradient
   id="SVGID_45_"
   gradientUnits="userSpaceOnUse"
   x1="15.4624"
   y1="36.424801"
   x2="24.037399"
   y2="36.424801"
   gradientTransform="matrix(0.8,0,0,0.8,0.0497,-1.220703e-4)">
		<stop
   offset="0"
   style="stop-color:#FFA34D"
   id="stop632" />
		<stop
   offset="1"
   style="stop-color:#CC4B14"
   id="stop634" />
	</linearGradient>
	<path
   style="clip-rule:evenodd;fill:url(#SVGID_45_);fill-rule:evenodd"
   d="m 16.889,29.12 c 0,0.372 -0.093,0.68 -0.279,0.919 -0.214,0.268 -0.454,0.4 -0.72,0.4 -0.266,0 -0.494,-0.133 -0.68,-0.4 -0.187,-0.239 -0.28,-0.547 -0.28,-0.919 0,-0.347 0.093,-0.654 0.28,-0.921 0.186,-0.239 0.413,-0.359 0.68,-0.359 0.293,0 0.533,0.12 0.72,0.359 0.186,0.267 0.279,0.574 0.279,0.921 z"
   id="path637"
   inkscape:connector-curvature="0" />
	
		<linearGradient
   id="SVGID_46_"
   gradientUnits="userSpaceOnUse"
   x1="15.4624"
   y1="39.625"
   x2="24.037399"
   y2="39.625"
   gradientTransform="matrix(0.8,0,0,0.8,0.0497,-1.220703e-4)">
		<stop
   offset="0"
   style="stop-color:#FFA34D"
   id="stop639" />
		<stop
   offset="1"
   style="stop-color:#CC4B14"
   id="stop641" />
	</linearGradient>
	<path
   style="clip-rule:evenodd;fill:url(#SVGID_46_);fill-rule:evenodd"
   d="m 15.53,31.68 c 0,0.373 -0.093,0.68 -0.28,0.92 -0.187,0.239 -0.426,0.36 -0.72,0.36 -0.267,0 -0.507,-0.121 -0.72,-0.36 -0.187,-0.24 -0.28,-0.547 -0.28,-0.92 0,-0.347 0.093,-0.641 0.28,-0.88 0.213,-0.24 0.453,-0.36 0.72,-0.36 0.266,0 0.506,0.12 0.72,0.36 0.187,0.239 0.28,0.533 0.28,0.88 z"
   id="path644"
   inkscape:connector-curvature="0" />
	
		<linearGradient
   id="SVGID_47_"
   gradientUnits="userSpaceOnUse"
   x1="15.4624"
   y1="39.724602"
   x2="24.037399"
   y2="39.724602"
   gradientTransform="matrix(0.8,0,0,0.8,0.0497,-1.220703e-4)">
		<stop
   offset="0"
   style="stop-color:#FFA34D"
   id="stop646" />
		<stop
   offset="1"
   style="stop-color:#CC4B14"
   id="stop648" />
	</linearGradient>
	<path
   style="clip-rule:evenodd;fill:url(#SVGID_47_);fill-rule:evenodd"
   d="m 18.61,31.76 c 0,0.373 -0.107,0.692 -0.32,0.96 -0.24,0.267 -0.52,0.4 -0.84,0.4 -0.293,0 -0.561,-0.134 -0.8,-0.4 -0.213,-0.268 -0.32,-0.587 -0.32,-0.96 0,-0.347 0.106,-0.653 0.32,-0.92 0.24,-0.267 0.507,-0.4 0.8,-0.4 0.32,0 0.6,0.134 0.84,0.4 0.212,0.239 0.32,0.547 0.32,0.92 z"
   id="path651"
   inkscape:connector-curvature="0" />
	
		<linearGradient
   id="SVGID_48_"
   gradientUnits="userSpaceOnUse"
   x1="17.2749"
   y1="42.819302"
   x2="22.925301"
   y2="42.819302"
   gradientTransform="matrix(0.8,0,0,0.8,0.0497,-1.220703e-4)">
		<stop
   offset="0"
   style="stop-color:#B7FF59"
   id="stop653" />
		<stop
   offset="1"
   style="stop-color:#77A339"
   id="stop655" />
	</linearGradient>
	<path
   style="clip-rule:evenodd;fill:url(#SVGID_48_);fill-rule:evenodd"
   d="m 15.93,32.839 0.2,0.521 c 0.187,0.4 0.427,0.747 0.72,1.04 0.506,0.507 1.026,0.6 1.56,0.279 0,0.374 -0.347,0.681 -1.04,0.921 -0.453,0.16 -0.813,0.053 -1.08,-0.32 l -0.24,-0.601 c -0.32,0.508 -0.667,0.787 -1.04,0.841 -0.24,0.026 -0.493,-0.134 -0.76,-0.48 l -0.36,-0.52 0.8,0.08 c 0.533,0.052 0.946,-0.535 1.24,-1.761 z"
   id="path658"
   inkscape:connector-curvature="0" />
	
		<use
   xlink:href="#flash0.ai_x5F_4_x2F_Layer_32_x2F__x3C_Path_x3E__x5F_10"
   width="5.3000002"
   height="31.5"
   y="-31.5"
   transform="matrix(0.8,0,0,-0.8,20.6412,186.51463)"
   style="overflow:visible;opacity:0.57810005;enable-background:new"
   id="use660"
   x="0" />
	
		<use
   xlink:href="#flash0.ai_x5F_4_x2F_Layer_32_x2F__x3C_Path_x3E__x5F_9"
   width="5.25"
   height="31.5"
   y="-31.5"
   transform="matrix(0.8,0,0,-0.8,32.3912,186.51463)"
   style="overflow:visible;opacity:0.21089998;enable-background:new"
   id="use662"
   x="0" />
	
		<use
   xlink:href="#flash0.ai_x5F_4_x2F_Layer_32_x2F__x3C_Path_x3E__x5F_8"
   width="19.4"
   height="5.3829999"
   y="-5.3829999"
   transform="matrix(0.8,0,0,-0.8,20.9913,186.51463)"
   style="overflow:visible;opacity:0.76950001;enable-background:new"
   id="use664"
   x="0" />
	
		<linearGradient
   id="SVGID_49_"
   gradientUnits="userSpaceOnUse"
   x1="14.6997"
   y1="21.200199"
   x2="35.700199"
   y2="21.200199"
   gradientTransform="matrix(0.8,0,0,0.8,0.0497,-1.220703e-4)">
		<stop
   offset="0"
   style="stop-color:#FEFFD6"
   id="stop666" />
		<stop
   offset="1"
   style="stop-color:#ADAD93"
   id="stop668" />
	</linearGradient>
	<path
   style="clip-rule:evenodd;fill:url(#SVGID_49_);fill-rule:evenodd"
   d="m 20.81,19.36 c -0.426,0.053 -0.867,0 -1.32,-0.16 -1.013,-0.347 -2.013,-0.4 -3,-0.16 -0.773,0.187 -1.56,-0.013 -2.359,-0.6 -0.293,-0.213 -0.587,-0.333 -0.88,-0.36 -0.346,0 -0.573,-0.04 -0.68,-0.12 -0.187,-0.134 -0.373,-0.333 -0.56,-0.6 L 11.81,17 c 0.72,-0.24 1.187,-0.48 1.4,-0.72 0.24,-0.213 0.479,-0.813 0.72,-1.8 l 6.32,0.2 c 4.266,0.24 6.48,0.613 6.64,1.12 0.267,0.827 0.84,1.213 1.72,1.16 0,0.133 -0.04,0.28 -0.12,0.44 -0.187,0.266 -0.493,0.413 -0.92,0.439 -0.16,0 -0.333,0.094 -0.52,0.281 -0.16,0.187 -0.374,0.28 -0.641,0.28 -0.667,0 -1.333,0.066 -2,0.2 -0.239,0.053 -0.626,0.213 -1.16,0.48 -0.453,0.24 -0.813,0.36 -1.079,0.36 -0.641,-0.107 -1.094,-0.133 -1.36,-0.08 z"
   id="path671"
   inkscape:connector-curvature="0" />
	
		<use
   xlink:href="#flash0.ai_x5F_4_x2F_Layer_32_x2F__x3C_Path_x3E__x5F_6"
   width="17.65"
   height="3.7079999"
   y="-3.7079999"
   transform="matrix(0.8,0,0,-0.8,21.691,185.76463)"
   style="overflow:visible;opacity:0.48830004;enable-background:new"
   id="use673"
   x="0" />
	
		<linearGradient
   id="SVGID_50_"
   gradientUnits="userSpaceOnUse"
   x1="16.3501"
   y1="20"
   x2="33.8251"
   y2="20"
   gradientTransform="matrix(0.8,0,0,0.8,0.0497,-1.220703e-4)">
		<stop
   offset="0"
   style="stop-color:#D4B66A"
   id="stop675" />
		<stop
   offset="1"
   style="stop-color:#786636"
   id="stop677" />
	</linearGradient>
	<path
   style="clip-rule:evenodd;fill:url(#SVGID_50_);fill-rule:evenodd"
   d="m 27.129,16 c 0,0.453 -0.68,0.839 -2.04,1.16 -1.359,0.32 -3.013,0.48 -4.959,0.48 -1.92,0 -3.56,-0.16 -4.919,-0.48 -1.387,-0.32 -2.08,-0.707 -2.08,-1.16 0,-0.454 0.693,-0.84 2.08,-1.16 1.359,-0.32 3,-0.48 4.919,-0.48 1.92,0 3.573,0.16 4.959,0.48 1.36,0.32 2.04,0.706 2.04,1.16 z"
   id="path680"
   inkscape:connector-curvature="0" />
	
		<use
   xlink:href="#flash0.ai_x5F_4_x2F_Layer_32_x2F__x3C_Path_x3E__x5F_4"
   width="9.4720001"
   height="1.206"
   x="0.028000001"
   y="-1.206"
   transform="matrix(0.8,0,0,-0.8,22.3414,186.91453)"
   style="overflow:visible;opacity:0.48050005;enable-background:new"
   id="use682" />
	<path
   style="clip-rule:evenodd;fill:#f9e2c9;fill-rule:evenodd"
   d="m 14.13,40.279 c 0.56,0.294 0.893,0.6 1,0.92 0.106,0.293 0.04,0.44 -0.2,0.44 -0.347,0 -0.854,-0.307 -1.52,-0.92 -0.293,-0.294 -0.32,-0.48 -0.08,-0.561 0.239,-0.105 0.506,-0.065 0.8,0.121 z"
   id="path684"
   inkscape:connector-curvature="0" />
	<path
   style="clip-rule:evenodd;fill:#f9e2c9;fill-rule:evenodd"
   d="m 16.29,41.359 c 0.373,0.08 0.467,0.227 0.28,0.44 -0.187,0.213 -0.346,0.253 -0.48,0.12 -0.133,-0.107 -0.2,-0.241 -0.2,-0.4 -0.027,-0.16 0.106,-0.212 0.4,-0.16 z"
   id="path686"
   inkscape:connector-curvature="0" />
	
		<linearGradient
   id="SVGID_51_"
   gradientUnits="userSpaceOnUse"
   x1="15.8623"
   y1="17.4258"
   x2="34.437302"
   y2="17.4258"
   gradientTransform="matrix(0.8,0,0,0.8,0.0497,-1.220703e-4)">
		<stop
   offset="0"
   style="stop-color:#FEFFD6"
   id="stop688" />
		<stop
   offset="1"
   style="stop-color:#91917B"
   id="stop690" />
	</linearGradient>
	<path
   style="clip-rule:evenodd;fill:url(#SVGID_51_);fill-rule:evenodd"
   d="m 25.569,11.439 c 1.254,0.374 1.906,0.854 1.96,1.44 0.187,1.333 0.08,2.267 -0.319,2.8 -0.214,0.32 -0.84,0.6 -1.881,0.84 -1.359,0.32 -3.159,0.494 -5.4,0.52 -3.013,0.027 -5.28,-0.32 -6.799,-1.04 -0.24,-0.107 -0.374,-0.587 -0.4,-1.44 -0.026,-0.72 0,-1.32 0.08,-1.8 0.08,-0.453 0.613,-0.867 1.6,-1.24 1.253,-0.453 3.026,-0.68 5.319,-0.68 2.507,10e-4 4.454,0.201 5.84,0.6 z"
   id="path693"
   inkscape:connector-curvature="0" />
	
		<linearGradient
   id="SVGID_52_"
   gradientUnits="userSpaceOnUse"
   x1="-33.398399"
   y1="-17.1084"
   x2="-14.379"
   y2="-17.1084"
   gradientTransform="matrix(-0.7981,0.0547,-0.0547,-0.7981,0.0508,-4.37133e-4)">
		<stop
   offset="0"
   style="stop-color:#FEFFD6"
   id="stop695" />
		<stop
   offset="1"
   style="stop-color:#F9FAD5"
   id="stop697" />
	</linearGradient>
	<path
   style="clip-rule:evenodd;fill:url(#SVGID_52_);fill-rule:evenodd"
   d="m 20.29,13.84 c -3.68,0 -6.146,-0.414 -7.4,-1.24 0.213,-0.453 0.813,-0.84 1.8,-1.16 1.227,-0.4 2.907,-0.6 5.04,-0.6 4.427,0 6.987,0.56 7.68,1.68 -1.067,0.88 -3.44,1.32 -7.12,1.32 z"
   id="path700"
   inkscape:connector-curvature="0" />
</g>
</svg>