<?xml version="1.0" encoding="UTF-8" standalone="no"?>
<!-- Generator: Adobe Illustrator 15.1.0, SVG Export Plug-In . SVG Version: 6.00 Build 0)  -->

<svg
   xmlns:dc="http://purl.org/dc/elements/1.1/"
   xmlns:cc="http://creativecommons.org/ns#"
   xmlns:rdf="http://www.w3.org/1999/02/22-rdf-syntax-ns#"
   xmlns:svg="http://www.w3.org/2000/svg"
   xmlns="http://www.w3.org/2000/svg"
   xmlns:xlink="http://www.w3.org/1999/xlink"
   xmlns:sodipodi="http://sodipodi.sourceforge.net/DTD/sodipodi-0.dtd"
   xmlns:inkscape="http://www.inkscape.org/namespaces/inkscape"
   version="1.1"
   id="flash0.ai"
   x="0px"
   y="0px"
   width="256"
   height="256"
   viewBox="0 0 255.99999 256"
   xml:space="preserve"
   sodipodi:docname="tagine.svg"
   inkscape:version="0.92.4 (5da689c313, 2019-01-14)"><title
   id="title1536">Tagine</title><metadata
   id="metadata729"><rdf:RDF><cc:Work
       rdf:about=""><dc:format>image/svg+xml</dc:format><dc:type
         rdf:resource="http://purl.org/dc/dcmitype/StillImage" /><dc:title>Tagine</dc:title><cc:license
         rdf:resource="http://creativecommons.org/publicdomain/zero/1.0/" /><dc:creator><cc:Agent><dc:title>Glitch</dc:title></cc:Agent></dc:creator><dc:source>https://opengameart.org/node/20149</dc:source></cc:Work><cc:License
       rdf:about="http://creativecommons.org/publicdomain/zero/1.0/"><cc:permits
         rdf:resource="http://creativecommons.org/ns#Reproduction" /><cc:permits
         rdf:resource="http://creativecommons.org/ns#Distribution" /><cc:permits
         rdf:resource="http://creativecommons.org/ns#DerivativeWorks" /></cc:License></rdf:RDF></metadata><defs
   id="defs727"><linearGradient
     inkscape:collect="always"
     xlink:href="#SVGID_1_"
     id="linearGradient1727"
     gradientUnits="userSpaceOnUse"
     gradientTransform="matrix(1,-0.0032,0.0032,1,26.0635,25.9814)"
     x1="-22.460899"
     y1="-32.3843"
     x2="-6.7609"
     y2="-32.3843" /></defs><sodipodi:namedview
   pagecolor="#ffffff"
   bordercolor="#666666"
   borderopacity="1"
   objecttolerance="10"
   gridtolerance="10"
   guidetolerance="10"
   inkscape:pageopacity="0"
   inkscape:pageshadow="2"
   inkscape:window-width="1920"
   inkscape:window-height="1025"
   id="namedview725"
   showgrid="false"
   inkscape:zoom="1.419976"
   inkscape:cx="66.922714"
   inkscape:cy="48.066276"
   inkscape:window-x="-8"
   inkscape:window-y="-8"
   inkscape:window-maximized="1"
   inkscape:current-layer="flash0.ai"
   fit-margin-top="0"
   fit-margin-left="0"
   fit-margin-right="0"
   fit-margin-bottom="0" />
<symbol
   id="flash0.ai_x5F_7_x2F_Layer_23_x2F__x3C_Path_x3E__x5F_71"
   viewBox="-0.018 -9.55 40.011 9.534"
   transform="translate(-3.8489997,214.47499)">
	<g
   id="Layer_1_5_">
		<path
   style="clip-rule:evenodd;fill-rule:evenodd"
   d="m 35.6,-3.4 c 0.167,-0.267 1.25,-0.9 3.25,-1.9 1.333,-0.667 1.5,-1.383 0.5,-2.15 -0.833,-0.667 -2.333,-1.367 -4.5,-2.1 0,0.033 0.283,0.183 0.85,0.45 0.6,0.267 0.933,0.45 1,0.55 0.5,0.9 -0.1,1.816 -1.8,2.75 -1.533,0.833 -3.35,1.4 -5.45,1.7 -2.533,0.433 -4.45,0.75 -5.75,0.95 -2.267,0.333 -4.184,0.5 -5.75,0.5 -1.9,0 -3.867,-0.2 -5.9,-0.6 C 9.983,-3.65 8.367,-4.167 7.2,-4.8 5.967,-5.333 5.15,-5.767 4.75,-6.1 4.117,-6.666 4.05,-7.483 4.55,-8.55 c 1.8,-1 0.817,-1 -2.95,0 -1.3,0.5 -1.817,1.466 -1.55,2.9 0.267,1.5 1.3,2.367 3.1,2.6 0.667,0.1 2.133,0.216 4.4,0.35 1.333,0.067 2.517,0.317 3.55,0.75 0.9,0.333 2.15,0.85 3.75,1.55 1.433,0.433 2.883,0.5 4.35,0.2 1.167,-0.233 2.617,-0.6 4.35,-1.1 1.534,-0.4 3.034,-0.567 4.5,-0.5 2,0.1 3.567,0.05 4.7,-0.15 1.367,-0.233 2.317,-0.717 2.85,-1.45 z"
   id="path2"
   inkscape:connector-curvature="0" />
	</g>
</symbol>
<symbol
   id="flash0.ai_x5F_7_x2F_Layer_23_x2F__x3C_Path_x3E__x5F_75"
   viewBox="0 -12.55 12.75 12.55"
   transform="translate(-3.8489997,214.47499)">
	<g
   id="Layer_1_4_">
		<path
   style="clip-rule:evenodd;fill:#595959;fill-rule:evenodd"
   d="m 12.75,-12.55 c -3.2,1.2 -5.917,2.9 -8.15,5.1 C 2.367,-5.25 0.833,-2.767 0,0 l 0.4,-0.05 c 0.167,-0.167 0.417,-0.333 0.75,-0.5 0.367,-1.367 1.233,-2.983 2.6,-4.85 2.333,-3.267 5.333,-5.65 9,-7.15 z"
   id="path6"
   inkscape:connector-curvature="0" />
	</g>
</symbol>
<symbol
   id="flash0.ai_x5F_7_x2F_Layer_23_x2F__x3C_Path_x3E__x5F_76"
   viewBox="0 -13.05 17.15 13.05"
   transform="translate(-3.8489997,214.47499)">
	<g
   id="Layer_1_3_">
		<path
   style="clip-rule:evenodd;fill:#595959;fill-rule:evenodd"
   d="m 10.1,-1.5 c 3.066,0.4 5.417,0.9 7.05,1.5 -0.3,-0.933 -0.767,-1.9 -1.4,-2.9 -1.267,-1.967 -3.2,-3.967 -5.8,-6 -2.1,-1.6 -4.65,-2.85 -7.65,-3.75 -0.466,-0.133 -1.233,-0.267 -2.3,-0.4 3.933,1.467 6.767,3.55 8.5,6.25 0.767,1.233 1.25,2.367 1.45,3.4 0.033,0.167 0.083,0.8 0.15,1.9 z"
   id="path10"
   inkscape:connector-curvature="0" />
	</g>
</symbol>
<symbol
   id="flash0.ai_x5F_7_x2F_Layer_23_x2F__x3C_Path_x3E__x5F_77"
   viewBox="0 -12.7 24.35 12.7"
   transform="translate(-3.8489997,214.47499)">
	<g
   id="Layer_1_2_">
		
			<linearGradient
   id="SVGID_1_"
   gradientUnits="userSpaceOnUse"
   x1="-22.460899"
   y1="-32.3843"
   x2="-6.7609"
   y2="-32.3843"
   gradientTransform="matrix(1,-0.0032,0.0032,1,26.0635,25.9814)">
			<stop
   offset="0"
   style="stop-color:#FFFFFF"
   id="stop14" />
			<stop
   offset="1"
   style="stop-color:#000000"
   id="stop16" />
		</linearGradient>
		<path
   style="clip-rule:evenodd;fill:url(#linearGradient1727);fill-rule:evenodd"
   d="m 24.35,-1.7 -3.25,-10.9 -2.35,-0.1 c -0.933,0 -1.85,0.05 -2.75,0.15 -1.133,0.167 -2.383,0.5 -3.75,1 -1.433,0.533 -2.633,1.117 -3.6,1.75 -3.066,2 -5.433,4.233 -7.1,6.7 C 0.717,-1.867 0.2,-0.833 0,0 l 2.65,-0.55 c 4.6,-0.867 10.033,-1.3 16.3,-1.3 1.867,0 3.667,0.05 5.4,0.15 z"
   id="path19"
   inkscape:connector-curvature="0" />
	</g>
</symbol>

<g
   id="g704"
   transform="matrix(7.2855598,0,0,7.2855598,-28.04212,-106.68609)">
		<path
   inkscape:connector-curvature="0"
   id="path371"
   d="m 38.388,30.85 h 0.149 c -0.949,3.075 -3.012,5.613 -6.188,7.613 -3.224,2.024 -6.899,3.037 -11.024,3.037 -4.15,0 -7.837,-1.025 -11.063,-3.075 -3.2,-2.024 -5.25,-4.6 -6.15,-7.725 l 0.3,0.037 c 0.975,0.75 3.025,1.375 6.15,1.875 3.2,0.5 6.838,0.75 10.912,0.75 3.976,0 7.525,-0.237 10.65,-0.712 3.101,-0.45 5.189,-1.05 6.264,-1.8 z"
   style="clip-rule:evenodd;fill:#d9d9d9;fill-rule:evenodd" />
		
			<use
   x="0"
   id="use373"
   style="overflow:visible;opacity:0.71880002;enable-background:new"
   transform="matrix(0.75,0,0,-0.75,10.13675,192.85624)"
   y="-12.7"
   height="12.7"
   width="24.35"
   xlink:href="#flash0.ai_x5F_7_x2F_Layer_23_x2F__x3C_Path_x3E__x5F_77" />
		
			<use
   x="0"
   id="use375"
   style="overflow:visible;opacity:0.16019999;enable-background:new"
   transform="matrix(0.75,0,0,-0.75,27.03715,192.40604)"
   y="-13.05"
   height="13.05"
   width="17.15"
   xlink:href="#flash0.ai_x5F_7_x2F_Layer_23_x2F__x3C_Path_x3E__x5F_76" />
		
			<use
   x="0"
   id="use377"
   style="overflow:visible;opacity:0.32030005;enable-background:new"
   transform="matrix(0.75,0,0,-0.75,6.9868498,191.55644)"
   y="-12.55"
   height="12.55"
   width="12.75"
   xlink:href="#flash0.ai_x5F_7_x2F_Layer_23_x2F__x3C_Path_x3E__x5F_75" />
		
			<linearGradient
   gradientTransform="matrix(0.75,0,0,0.75,3.8501,22.9004)"
   y2="8.5991001"
   x2="46.0508"
   y1="8.5991001"
   x1="0.8003"
   gradientUnits="userSpaceOnUse"
   id="SVGID_39_">
			<stop
   id="stop379"
   style="stop-color:#7D7D7D"
   offset="0" />
			<stop
   id="stop381"
   style="stop-color:#D4D4D4"
   offset="1" />
		</linearGradient>
		<path
   inkscape:connector-curvature="0"
   id="path384"
   d="m 33.4,24.85 c 3.324,1.25 4.987,2.75 4.987,4.5 0,1.75 -1.663,3.25 -4.987,4.5 -3.301,1.25 -7.287,1.875 -11.963,1.875 -4.7,0 -8.7,-0.625 -12,-1.875 -3.325,-1.225 -4.987,-2.725 -4.987,-4.5 0,-1.75 1.662,-3.25 4.987,-4.5 3.3,-1.25 7.3,-1.875 12,-1.875 4.676,0 8.663,0.625 11.963,1.875 z"
   style="clip-rule:evenodd;fill:url(#SVGID_39_);fill-rule:evenodd" />
		<path
   inkscape:connector-curvature="0"
   id="path386"
   d="m 38.912,28.862 h -1.125 c -0.225,-1.55 -1.899,-2.85 -5.024,-3.899 -3.15,-1.075 -6.9,-1.613 -11.25,-1.613 -4.35,0 -8.1,0.538 -11.25,1.613 -3.15,1.05 -4.837,2.35 -5.063,3.899 H 3.925 c 0.4,-1.675 2.262,-3.087 5.587,-4.237 3.376,-1.15 7.338,-1.725 11.888,-1.725 4.574,0 8.55,0.574 11.925,1.725 3.325,1.15 5.188,2.563 5.587,4.237 z"
   style="clip-rule:evenodd;fill:#f5f5f5;fill-rule:evenodd" />
		
			<linearGradient
   gradientTransform="matrix(0.75,0,0,0.75,3.8501,22.9004)"
   y2="11.0327"
   x2="43.993198"
   y1="11.0327"
   x1="4.2392998"
   gradientUnits="userSpaceOnUse"
   id="SVGID_40_">
			<stop
   id="stop388"
   style="stop-color:#FFCF6E"
   offset="0" />
			<stop
   id="stop390"
   style="stop-color:#BF9234"
   offset="1" />
		</linearGradient>
		<path
   inkscape:connector-curvature="0"
   id="path393"
   d="m 36.362,32.162 c -1.024,0.825 -3.024,1.613 -6,2.363 -3.25,0.824 -6.35,1.237 -9.3,1.237 -2.65,0 -5.3,-0.45 -7.95,-1.351 -2.5,-1.024 -4.088,-1.675 -4.763,-1.949 -0.95,-0.4 -1.388,-1.051 -1.313,-1.95 0.1,-0.926 0.825,-1.476 2.175,-1.65 0.5,-0.075 1.6,-0.162 3.3,-0.263 1,-0.05 1.888,-0.237 2.663,-0.563 0.675,-0.25 1.612,-0.637 2.813,-1.162 1.075,-0.325 2.163,-0.375 3.262,-0.15 0.875,0.176 1.963,0.45 3.263,0.825 1.149,0.3 2.274,0.425 3.375,0.375 3.075,-0.175 4.963,0.226 5.662,1.2 0.125,0.2 0.938,0.675 2.438,1.425 1.001,0.501 1.125,1.039 0.375,1.613 z"
   style="clip-rule:evenodd;fill:url(#SVGID_40_);fill-rule:evenodd" />
		
			<use
   id="use395"
   style="overflow:visible;opacity:0.10940001;enable-background:new"
   transform="matrix(0.75,0,0,-0.75,9.7368498,187.45584)"
   y="-9.5500002"
   x="-0.017999999"
   height="9.5340004"
   width="40.011002"
   xlink:href="#flash0.ai_x5F_7_x2F_Layer_23_x2F__x3C_Path_x3E__x5F_71" />
		<path
   inkscape:connector-curvature="0"
   id="path397"
   d="m 20.163,29.125 c 0.475,0.025 0.712,0.125 0.712,0.3 0,0.075 -0.1,0.25 -0.3,0.525 -0.325,0.45 -0.813,0.987 -1.462,1.612 -0.875,0.75 -1.55,1.175 -2.025,1.275 -0.35,0.074 -0.8,0.037 -1.35,-0.113 l -0.713,-0.262 c -0.025,0 -0.05,0.024 -0.075,0.074 -0.075,0.101 -0.15,0.237 -0.225,0.413 -0.225,0.649 -0.587,1.087 -1.087,1.313 -0.2,0.1 -0.388,0.024 -0.563,-0.226 -0.25,-0.375 -0.488,-0.688 -0.712,-0.938 -0.25,-0.3 -0.625,-0.587 -1.125,-0.862 -0.55,-0.3 -0.925,-0.513 -1.125,-0.638 -0.475,-0.274 -0.288,-0.449 0.563,-0.524 1.4,-0.325 2.85,-0.65 4.35,-0.976 C 18,29.425 19.713,29.1 20.163,29.125 Z"
   style="clip-rule:evenodd;fill:#ad7b2f;fill-rule:evenodd" />
		<path
   inkscape:connector-curvature="0"
   id="path399"
   d="m 34.225,30.55 c 0.525,0.55 0.663,1.275 0.413,2.175 -0.15,0.45 -0.351,0.7 -0.601,0.75 -0.399,-0.05 -0.787,-0.087 -1.162,-0.112 -1.175,-0.05 -2.125,-0.087 -2.85,-0.112 -1.351,-0.05 -2.063,-0.05 -2.138,0 -0.226,0.225 -0.45,0.425 -0.675,0.6 -0.4,0.351 -0.775,0.551 -1.125,0.601 -0.35,0.05 -0.676,-0.15 -0.976,-0.601 -0.45,-0.675 -0.699,-1.037 -0.75,-1.087 -0.25,-0.25 -0.587,-0.463 -1.013,-0.638 -0.424,-0.175 -0.774,-0.263 -1.05,-0.263 -0.25,0 -0.475,0.2 -0.675,0.601 -0.125,0.25 -0.313,0.675 -0.563,1.274 -0.15,0.325 -0.237,0.65 -0.263,0.976 0,0.25 -0.05,0.425 -0.149,0.524 -0.175,0.15 -0.638,0.063 -1.388,-0.263 -0.75,-0.3 -1.112,-0.574 -1.087,-0.824 0.5,-0.601 1.038,-1.2 1.612,-1.801 1.175,-1.225 1.962,-1.887 2.363,-1.987 0.649,-0.149 1.138,-0.075 1.462,0.226 l 0.75,0.375 c 0.575,0.25 1.112,0.387 1.612,0.412 0.501,0.025 0.676,-0.088 0.525,-0.338 -0.15,-0.3 -0.212,-0.449 -0.188,-0.449 0.45,-0.226 1.063,-0.513 1.838,-0.863 1.15,-0.524 1.862,-0.8 2.137,-0.824 0.501,-0.101 1.226,0.05 2.176,0.449 0.728,0.274 1.315,0.674 1.765,1.199 z"
   style="clip-rule:evenodd;fill:#ad7b2f;fill-rule:evenodd" />
		<path
   inkscape:connector-curvature="0"
   id="path401"
   d="m 28,28.037 h 0.263 c 0.149,0 0.237,0.063 0.263,0.188 0.05,0.351 -0.125,0.612 -0.525,0.788 -0.15,0.075 -0.412,0.112 -0.787,0.112 -0.35,0.025 -0.613,0.1 -0.788,0.225 -0.1,0.05 -0.462,0.226 -1.087,0.525 -0.175,0.075 -0.45,0.063 -0.825,-0.037 -0.475,-0.176 -0.813,-0.263 -1.013,-0.263 -0.275,-0.025 -0.463,-0.138 -0.563,-0.338 -0.024,-0.175 -0.063,-0.263 -0.112,-0.263 -0.2,0 -0.462,-0.087 -0.788,-0.262 -0.024,-0.025 -0.424,-0.301 -1.199,-0.825 -0.2,-0.15 -0.213,-0.275 -0.038,-0.375 0.051,-0.025 0.226,-0.088 0.525,-0.188 l 4.95,0.412 c 0.349,10e-4 0.924,0.102 1.724,0.301 z"
   style="clip-rule:evenodd;fill:#ad7b2f;fill-rule:evenodd" />
		<path
   inkscape:connector-curvature="0"
   id="path403"
   d="m 9.738,31.45 1.275,0.862 c 0.525,0.45 0.938,0.775 1.237,0.975 0.3,0.2 0.488,0.363 0.563,0.488 l -1.95,-0.938 C 10.188,32.312 9.775,31.924 9.625,31.674 9.525,31.525 9.475,31.4 9.475,31.299 L 9.513,31.15 Z"
   style="clip-rule:evenodd;fill:#ffe8ab;fill-rule:evenodd" />
		<path
   inkscape:connector-curvature="0"
   id="path405"
   d="m 15.475,32.612 0.487,0.188 c 0.4,0.125 0.713,0.188 0.938,0.188 0.375,0 0.688,-0.149 0.938,-0.45 -0.15,0.301 -0.425,0.551 -0.825,0.75 -0.25,0.125 -0.45,0.15 -0.6,0.075 -0.225,-0.149 -0.45,-0.263 -0.675,-0.337 -0.275,-0.101 -0.55,-0.013 -0.825,0.262 -0.141,0.117 -0.247,0.242 -0.319,0.375 0.07,-0.136 0.164,-0.285 0.281,-0.449 0.225,-0.326 0.425,-0.526 0.6,-0.602 z"
   style="clip-rule:evenodd;fill:#ffe8ab;fill-rule:evenodd" />
		<path
   inkscape:connector-curvature="0"
   id="path407"
   d="m 17.2,34.15 c 0.05,0.074 0.087,0.199 0.112,0.375 0.075,0.149 0.237,0.237 0.488,0.262 0.3,0.025 0.412,0.063 0.337,0.113 -0.1,0.05 -0.288,0.05 -0.563,0 -0.625,-0.176 -0.925,-0.338 -0.9,-0.488 0.025,-0.1 0.112,-0.175 0.262,-0.225 0.102,-0.025 0.189,-0.037 0.264,-0.037 z"
   style="clip-rule:evenodd;fill:#ffe8ab;fill-rule:evenodd" />
		<path
   inkscape:connector-curvature="0"
   id="path409"
   d="m 22.6,32.388 0.188,0.337 c 0.15,0.25 0.338,0.363 0.563,0.338 l 0.525,-0.037 c -0.574,0.35 -0.975,0.438 -1.2,0.262 -0.149,-0.1 -0.212,-0.287 -0.188,-0.563 z"
   style="clip-rule:evenodd;fill:#ffe8ab;fill-rule:evenodd" />
		<path
   inkscape:connector-curvature="0"
   id="path411"
   d="m 24.4,33.438 c 0.35,-0.025 0.612,0.05 0.787,0.225 0,0.025 0.1,0.25 0.3,0.676 0.175,0.35 0.138,0.449 -0.112,0.3 -0.125,-0.15 -0.225,-0.338 -0.3,-0.563 C 25.025,33.951 24.9,33.813 24.7,33.663 Z"
   style="clip-rule:evenodd;fill:#ffe8ab;fill-rule:evenodd" />
		<path
   inkscape:connector-curvature="0"
   id="path413"
   d="M 26.275,34.675 26.725,34 c 0.326,-0.425 0.575,-0.612 0.75,-0.563 l 0.301,0.375 c 0.224,0.275 0.412,0.438 0.562,0.488 0.175,0.075 0.162,0.15 -0.038,0.226 -0.225,0.074 -0.388,0.063 -0.487,-0.038 -0.275,-0.425 -0.5,-0.638 -0.675,-0.638 -0.1,0 -0.274,0.138 -0.525,0.413 z"
   style="clip-rule:evenodd;fill:#ffe8ab;fill-rule:evenodd" />
		<path
   inkscape:connector-curvature="0"
   id="path415"
   d="m 21.737,28.787 0.788,0.301 c 0.05,0 0.125,0.063 0.225,0.188 0.125,0.124 0.287,0.199 0.487,0.225 0.351,0.05 0.663,0.037 0.938,-0.037 l 0.188,0.074 c 0.15,0.05 0.313,0.063 0.487,0.038 l 0.375,-0.112 c -0.3,0.274 -0.574,0.399 -0.824,0.375 -0.15,-0.025 -0.476,-0.013 -0.976,0.037 -0.55,0.075 -0.874,0.013 -0.975,-0.188 -0.15,-0.275 -0.237,-0.425 -0.263,-0.45 -0.1,-0.025 -0.199,-0.112 -0.3,-0.263 z"
   style="clip-rule:evenodd;fill:#ffe8ab;fill-rule:evenodd" />
		<path
   inkscape:connector-curvature="0"
   id="path417"
   d="m 11.238,29.125 c -0.175,0.3 -0.038,0.513 0.412,0.638 0.3,0.125 0.25,0.162 -0.15,0.112 -0.3,-0.05 -0.487,-0.175 -0.563,-0.375 -0.1,-0.175 -0.075,-0.288 0.075,-0.338 0.075,-0.024 0.151,-0.037 0.226,-0.037 z"
   style="clip-rule:evenodd;fill:#ffe8ab;fill-rule:evenodd" />
		<path
   inkscape:connector-curvature="0"
   id="path419"
   d="m 9.175,29.725 c 0.4,0.125 0.538,0.313 0.412,0.563 -0.15,0.25 -0.475,0.288 -0.975,0.113 -0.475,-0.15 -0.575,-0.325 -0.3,-0.525 0.276,-0.201 0.563,-0.251 0.863,-0.151 z"
   style="clip-rule:evenodd;fill:#ffe8ab;fill-rule:evenodd" />
		<path
   inkscape:connector-curvature="0"
   id="path421"
   d="m 21.662,33.588 c 0.375,0.074 0.575,0.25 0.601,0.524 0.024,0.3 -0.2,0.438 -0.675,0.413 -0.45,-0.025 -0.625,-0.2 -0.525,-0.525 0.125,-0.325 0.325,-0.463 0.599,-0.412 z"
   style="clip-rule:evenodd;fill:#ffe8ab;fill-rule:evenodd" />
		<path
   inkscape:connector-curvature="0"
   id="path423"
   d="m 21.438,25.9 c 0.424,0.7 0.562,1.05 0.412,1.05 -0.624,-0.226 -1.225,-0.263 -1.8,-0.112 l -1.2,0.6 c -0.55,-0.851 -0.887,-1.513 -1.013,-1.987 -0.075,-0.325 0.087,-0.525 0.488,-0.601 0.35,-0.074 0.763,-0.037 1.237,0.113 0.3,0.1 0.662,0.199 1.088,0.3 0.325,0.099 0.588,0.312 0.788,0.637 z"
   style="clip-rule:evenodd;fill:#f5deb0;fill-rule:evenodd" />
		<path
   inkscape:connector-curvature="0"
   id="path425"
   d="m 21.85,26.95 c -0.624,-0.226 -1.225,-0.263 -1.8,-0.112 l -1.2,0.6 c -0.55,-0.851 -0.887,-1.513 -1.013,-1.987 -0.025,-0.15 0,-0.263 0.075,-0.338 0.05,0.25 0.188,0.563 0.413,0.938 0.25,0.4 0.425,0.612 0.525,0.638 0.1,0.05 0.387,-0.013 0.863,-0.188 0.55,-0.175 0.899,-0.263 1.05,-0.263 0.425,0.05 0.813,0.25 1.162,0.601 0,0.073 -0.025,0.111 -0.075,0.111 z"
   style="clip-rule:evenodd;fill:#ebc985;fill-rule:evenodd" />
		<path
   inkscape:connector-curvature="0"
   id="path427"
   d="m 27.213,27.4 c -0.075,0.175 -0.275,0.399 -0.601,0.675 -0.324,0.3 -0.712,0.574 -1.162,0.825 -0.425,0.25 -0.713,0.375 -0.862,0.375 -0.226,0 -1.063,-0.363 -2.513,-1.088 -0.45,-0.175 -0.737,-0.288 -0.862,-0.338 -0.2,-0.1 -0.388,-0.225 -0.563,-0.375 -0.275,-0.274 -0.438,-0.449 -0.488,-0.524 -0.1,-0.176 -0.087,-0.375 0.038,-0.601 0.175,-0.35 0.575,-0.688 1.2,-1.012 0.75,-0.4 1.399,-0.488 1.949,-0.263 0.75,0.3 1.388,0.513 1.913,0.638 1.075,0.225 1.712,0.6 1.912,1.125 0.101,0.226 0.113,0.413 0.039,0.563 z"
   style="clip-rule:evenodd;fill:#865f24;fill-rule:evenodd" />
		<path
   inkscape:connector-curvature="0"
   id="path429"
   d="m 21.588,25.75 2.399,0.938 0.563,2.55 c -0.225,-0.025 -1.05,-0.375 -2.475,-1.05 -0.45,-0.175 -0.737,-0.288 -0.862,-0.338 -0.2,-0.1 -0.388,-0.225 -0.563,-0.375 -0.275,-0.274 -0.438,-0.449 -0.488,-0.524 -0.1,-0.176 -0.087,-0.375 0.038,-0.601 0.1,-0.199 0.313,-0.412 0.638,-0.637 z"
   style="clip-rule:evenodd;fill:#6b4c1c;fill-rule:evenodd" />
		<path
   inkscape:connector-curvature="0"
   id="path431"
   d="M 20.088,26.688 20.2,26.35 c 0.175,-0.35 0.575,-0.688 1.2,-1.012 0.75,-0.4 1.399,-0.488 1.949,-0.263 0.75,0.3 1.388,0.513 1.913,0.638 0.7,0.149 1.226,0.375 1.575,0.675 l -2.025,1.462 -0.375,0.188 c -0.825,-0.524 -1.55,-0.862 -2.175,-1.012 -0.574,-0.126 -1.3,-0.239 -2.174,-0.338 z"
   style="clip-rule:evenodd;fill:#996c29;fill-rule:evenodd" />
		<path
   inkscape:connector-curvature="0"
   id="path433"
   d="m 23.237,25.787 c 0.15,-0.149 0.175,-0.237 0.075,-0.262 -0.325,-0.051 -0.662,0.137 -1.013,0.563 -0.124,0.175 -0.25,0.3 -0.375,0.375 -0.124,0.074 -0.175,0.074 -0.149,0 0.125,-0.4 0.362,-0.676 0.712,-0.825 0.351,-0.2 0.362,-0.3 0.038,-0.3 l -1.013,0.412 c -0.475,0.25 -0.775,0.462 -0.9,0.638 L 20.725,26.2 c 0.2,-0.25 0.413,-0.45 0.637,-0.601 0.5,-0.3 0.925,-0.449 1.275,-0.449 0.25,-0.025 0.6,0.063 1.05,0.262 0.275,0.15 0.726,0.301 1.35,0.45 0.25,0.075 0.538,0.138 0.863,0.188 0.125,0 0.25,0.038 0.375,0.112 0.125,0.101 0.188,0.176 0.188,0.226 -0.175,0.05 -0.325,0.037 -0.45,-0.038 -0.15,-0.149 -0.362,-0.188 -0.638,-0.112 -0.125,0.025 -0.287,0 -0.487,-0.075 -0.274,-0.05 -0.425,-0.074 -0.45,-0.074 -0.35,0.225 -0.525,0.237 -0.525,0.037 -0.049,-0.225 -0.175,-0.3 -0.375,-0.225 -0.249,0.05 -0.587,0.312 -1.012,0.787 -0.15,0.15 -0.188,0.15 -0.113,0 0.075,-0.15 0.188,-0.313 0.338,-0.487 0.099,-0.101 0.262,-0.238 0.486,-0.414 z"
   style="clip-rule:evenodd;fill:#bd8533;fill-rule:evenodd" />
		<path
   inkscape:connector-curvature="0"
   id="path435"
   d="m 15.325,24.85 c 0.875,0.075 1.263,0.226 1.163,0.45 -0.7,0.65 -1.225,1.45 -1.575,2.4 -0.175,0.475 -0.363,1.225 -0.563,2.25 -1.125,-0.025 -1.913,-0.188 -2.362,-0.487 -0.3,-0.226 -0.325,-0.65 -0.075,-1.275 0.25,-0.6 0.638,-1.15 1.163,-1.65 0.325,-0.3 0.7,-0.712 1.125,-1.237 0.349,-0.326 0.724,-0.476 1.124,-0.451 z"
   style="clip-rule:evenodd;fill:#f5deb0;fill-rule:evenodd" />
		<path
   inkscape:connector-curvature="0"
   id="path437"
   d="m 16.488,25.112 c 0.05,0.05 0.05,0.112 0,0.188 -0.7,0.65 -1.225,1.45 -1.575,2.4 -0.175,0.475 -0.363,1.225 -0.563,2.25 -1.125,-0.025 -1.913,-0.188 -2.362,-0.487 -0.1,-0.075 -0.175,-0.213 -0.225,-0.413 0.25,0.175 0.612,0.288 1.087,0.338 0.5,0.024 0.813,-0.025 0.938,-0.15 0.075,-0.075 0.263,-0.55 0.563,-1.425 0.325,-0.9 0.563,-1.463 0.712,-1.688 0.149,-0.225 0.375,-0.438 0.675,-0.638 0.3,-0.2 0.55,-0.325 0.75,-0.375 z"
   style="clip-rule:evenodd;fill:#ebc985;fill-rule:evenodd" />
		<path
   inkscape:connector-curvature="0"
   id="path439"
   d="m 28.862,26.5 c 0.5,0.975 0.638,1.463 0.413,1.463 -0.301,-0.075 -0.601,-0.15 -0.9,-0.226 -0.55,-0.125 -1.075,-0.125 -1.575,0 l -1.763,0.788 c -0.649,-1.176 -1.012,-2.075 -1.087,-2.7 -0.025,-0.45 0.237,-0.726 0.787,-0.825 0.525,-0.101 1.101,-0.025 1.726,0.225 0.4,0.15 0.875,0.288 1.425,0.413 0.425,0.149 0.75,0.437 0.974,0.862 z"
   style="clip-rule:evenodd;fill:#f5deb0;fill-rule:evenodd" />
		<path
   inkscape:connector-curvature="0"
   id="path441"
   d="m 29.275,27.963 c -0.301,-0.075 -0.601,-0.15 -0.9,-0.226 -0.55,-0.125 -1.075,-0.125 -1.575,0 l -1.763,0.788 c -0.649,-1.176 -1.012,-2.075 -1.087,-2.7 0,-0.226 0.05,-0.388 0.149,-0.487 0.051,0.324 0.2,0.762 0.45,1.313 0.251,0.524 0.45,0.813 0.601,0.862 0.1,0.05 0.524,-0.025 1.274,-0.226 0.75,-0.225 1.237,-0.325 1.463,-0.3 0.225,0.025 0.5,0.138 0.825,0.338 0.3,0.175 0.524,0.35 0.675,0.524 -0.025,0.076 -0.062,0.114 -0.112,0.114 z"
   style="clip-rule:evenodd;fill:#ebc985;fill-rule:evenodd" />
		<path
   inkscape:connector-curvature="0"
   id="path443"
   d="m 20.125,27.588 c 0.275,0.25 0.413,0.499 0.413,0.75 0,0.1 -0.075,0.362 -0.225,0.787 -0.075,0.25 -0.212,0.45 -0.412,0.6 -0.45,0.425 -0.7,0.663 -0.75,0.713 -1.3,1.325 -2.05,2.013 -2.25,2.063 -0.175,0.05 -0.587,-0.025 -1.237,-0.225 C 14.989,32.076 14.351,31.85 13.751,31.6 13.176,31.35 12.789,31.125 12.588,30.925 12.413,30.75 12.3,30.5 12.251,30.175 c -0.125,-0.649 0.375,-1.3 1.5,-1.95 0.7,-0.399 1.3,-0.85 1.8,-1.35 0.5,-0.425 1.325,-0.487 2.475,-0.188 0.949,0.225 1.649,0.526 2.099,0.901 z"
   style="clip-rule:evenodd;fill:#865f24;fill-rule:evenodd" />
		<path
   inkscape:connector-curvature="0"
   id="path445"
   d="m 20.125,27.588 c 0.275,0.25 0.413,0.499 0.413,0.75 0,0.1 -0.075,0.362 -0.225,0.787 -0.075,0.25 -0.212,0.45 -0.412,0.6 -0.45,0.425 -0.7,0.663 -0.75,0.713 -1.275,1.275 -2,1.95 -2.175,2.025 l -1.05,-3.338 2.174,-1.875 0.825,-0.263 c 0.4,0.125 0.801,0.326 1.2,0.601 z"
   style="clip-rule:evenodd;fill:#6b4c1c;fill-rule:evenodd" />
		<path
   inkscape:connector-curvature="0"
   id="path447"
   d="M 20.125,27.588 20.463,28 c -1,0.4 -1.763,0.737 -2.288,1.013 -0.425,0.225 -0.875,0.612 -1.35,1.162 L 16.262,30.888 15.7,30.813 12.325,29.538 c 0.25,-0.475 0.725,-0.912 1.425,-1.313 0.7,-0.399 1.3,-0.85 1.8,-1.35 0.5,-0.425 1.325,-0.487 2.475,-0.188 0.95,0.225 1.65,0.526 2.1,0.901 z"
   style="clip-rule:evenodd;fill:#996c29;fill-rule:evenodd" />
		<path
   inkscape:connector-curvature="0"
   id="path449"
   d="m 16.975,27.362 c 0.575,0.125 1.025,0.4 1.35,0.825 -0.125,0.075 -0.413,-0.025 -0.863,-0.3 -0.675,-0.476 -1.187,-0.612 -1.537,-0.413 -0.1,0.075 -0.025,0.176 0.225,0.301 0.175,0.074 0.462,0.199 0.863,0.375 0.275,0.149 0.513,0.312 0.712,0.487 0.2,0.175 0.163,0.188 -0.112,0.037 C 16.838,28.225 16.263,28 15.888,28 c -0.275,0 -0.362,0.125 -0.263,0.375 0.075,0.175 -0.138,0.213 -0.637,0.112 -0.1,-0.025 -0.275,0.05 -0.525,0.226 -0.075,0.074 -0.125,0.124 -0.15,0.149 -0.05,0 -0.175,0.013 -0.375,0.038 -0.3,0.024 -0.525,0.137 -0.675,0.337 -0.075,0.15 -0.225,0.226 -0.45,0.226 -0.05,-0.101 -0.025,-0.213 0.075,-0.338 0.075,-0.15 0.188,-0.237 0.337,-0.263 l 0.9,-0.487 c 0.575,-0.35 1,-0.663 1.275,-0.938 0.375,-0.375 0.725,-0.588 1.05,-0.638 0.4,-0.1 1,-0.025 1.8,0.226 0.575,0.175 1.038,0.425 1.388,0.75 -0.25,-0.2 -0.737,-0.388 -1.462,-0.563 -0.7,-0.176 -1.188,-0.238 -1.463,-0.188 -0.425,0.076 -0.338,0.189 0.262,0.338 z"
   style="clip-rule:evenodd;fill:#bd8533;fill-rule:evenodd" />
		<path
   inkscape:connector-curvature="0"
   id="path451"
   d="m 30.662,28.037 c 0.575,0.65 1.163,1.188 1.763,1.613 1.075,0.774 1.551,1.563 1.425,2.362 -0.024,0.375 -0.125,0.675 -0.3,0.899 -0.2,0.226 -0.575,0.5 -1.125,0.825 -0.575,0.325 -1.188,0.601 -1.837,0.825 -0.65,0.2 -1.063,0.274 -1.238,0.225 -0.175,-0.05 -0.887,-0.875 -2.137,-2.475 -0.375,-0.4 -0.625,-0.675 -0.75,-0.825 -0.2,-0.2 -0.338,-0.45 -0.413,-0.75 -0.124,-0.524 -0.188,-0.85 -0.188,-0.975 -0.024,-0.3 0.101,-0.588 0.375,-0.862 0.45,-0.45 1.138,-0.813 2.063,-1.088 1.1,-0.348 1.888,-0.274 2.362,0.226 z"
   style="clip-rule:evenodd;fill:#865f24;fill-rule:evenodd" />
		<path
   inkscape:connector-curvature="0"
   id="path453"
   d="m 30.325,30.737 -0.825,3.3 c -0.1,0.25 -0.162,0.488 -0.188,0.713 -0.25,-0.125 -0.949,-0.938 -2.1,-2.438 -0.375,-0.4 -0.625,-0.675 -0.75,-0.825 -0.2,-0.2 -0.338,-0.45 -0.413,-0.75 -0.124,-0.524 -0.188,-0.85 -0.188,-0.975 -0.024,-0.3 0.101,-0.588 0.375,-0.862 0.226,-0.226 0.613,-0.476 1.163,-0.75 l 0.824,0.3 z"
   style="clip-rule:evenodd;fill:#6b4c1c;fill-rule:evenodd" />
		<path
   inkscape:connector-curvature="0"
   id="path455"
   d="m 33.775,31.263 -3.263,1.5 -0.525,0.112 C 29.387,31.8 28.775,31.05 28.15,30.625 28.099,30.6 27.362,30.187 25.937,29.388 c 0.025,-0.101 0.125,-0.263 0.3,-0.487 0.45,-0.45 1.138,-0.813 2.063,-1.088 1.101,-0.35 1.888,-0.275 2.362,0.225 0.575,0.65 1.163,1.188 1.763,1.613 0.7,0.474 1.15,1.011 1.35,1.612 z"
   style="clip-rule:evenodd;fill:#996c29;fill-rule:evenodd" />
		<path
   inkscape:connector-curvature="0"
   id="path457"
   d="m 29.237,29.537 c 0.2,-0.1 0.476,-0.25 0.825,-0.449 0.275,-0.15 0.363,-0.263 0.263,-0.338 -0.325,-0.225 -0.825,-0.063 -1.5,0.487 -0.274,0.226 -0.513,0.375 -0.713,0.45 -0.175,0.05 -0.225,0.025 -0.149,-0.075 0.449,-0.55 0.899,-0.888 1.35,-1.013 0.325,-0.1 0.475,-0.188 0.45,-0.262 0,-0.075 -0.075,-0.125 -0.226,-0.15 -0.225,-0.05 -0.688,0.025 -1.387,0.225 -0.7,0.25 -1.176,0.488 -1.426,0.713 L 26.95,28.9 c 0.375,-0.325 0.737,-0.563 1.087,-0.713 0.775,-0.3 1.363,-0.4 1.763,-0.3 0.375,0.125 0.713,0.399 1.013,0.825 0.25,0.3 0.662,0.675 1.237,1.125 0.375,0.3 0.663,0.487 0.862,0.563 0.15,0.05 0.263,0.162 0.338,0.337 0.075,0.15 0.088,0.275 0.037,0.375 -0.199,0 -0.337,-0.075 -0.412,-0.225 -0.1,-0.25 -0.325,-0.388 -0.675,-0.413 -0.175,-0.024 -0.287,-0.05 -0.338,-0.074 -0.024,-0.051 -0.075,-0.101 -0.149,-0.15 -0.25,-0.225 -0.413,-0.325 -0.488,-0.3 -0.475,0.1 -0.688,0.063 -0.637,-0.112 0.1,-0.325 0.013,-0.488 -0.263,-0.488 -0.351,0 -0.9,0.288 -1.65,0.863 -0.274,0.175 -0.312,0.149 -0.112,-0.075 0.175,-0.226 0.4,-0.425 0.674,-0.601 z"
   style="clip-rule:evenodd;fill:#bd8533;fill-rule:evenodd" />
		<path
   inkscape:connector-curvature="0"
   id="path459"
   d="m 21.325,29.875 c 0.899,0.075 1.287,0.225 1.162,0.45 -0.699,0.649 -1.225,1.45 -1.575,2.399 -0.175,0.476 -0.363,1.226 -0.563,2.25 -1.1,-0.024 -1.875,-0.188 -2.325,-0.487 -0.325,-0.2 -0.35,-0.625 -0.075,-1.274 0.25,-0.601 0.637,-1.15 1.163,-1.65 0.325,-0.3 0.7,-0.713 1.125,-1.237 0.326,-0.351 0.688,-0.501 1.088,-0.451 z"
   style="clip-rule:evenodd;fill:#f5deb0;fill-rule:evenodd" />
		<path
   inkscape:connector-curvature="0"
   id="path461"
   d="m 22.487,30.325 c -0.699,0.649 -1.225,1.45 -1.575,2.399 -0.175,0.476 -0.363,1.226 -0.563,2.25 -1.1,-0.024 -1.875,-0.188 -2.325,-0.487 -0.15,-0.1 -0.225,-0.25 -0.225,-0.45 0.225,0.176 0.575,0.288 1.05,0.338 0.5,0.05 0.812,0.013 0.938,-0.112 0.1,-0.101 0.3,-0.575 0.6,-1.425 0.325,-0.926 0.55,-1.488 0.675,-1.688 0.15,-0.2 0.375,-0.413 0.675,-0.638 0.3,-0.226 0.55,-0.363 0.75,-0.413 0.051,0.076 0.051,0.151 0,0.226 z"
   style="clip-rule:evenodd;fill:#ebc985;fill-rule:evenodd" />
		<path
   inkscape:connector-curvature="0"
   id="path463"
   d="m 13.975,31.188 c 0.45,0.35 0.638,0.7 0.563,1.05 -0.125,0.476 -0.487,1.025 -1.087,1.65 l -1.388,-1.5 C 11.663,32.037 11.226,31.776 10.75,31.6 10.35,31.475 10.113,31.388 10.038,31.338 9.862,31.237 10,30.912 10.45,30.362 c 0.225,-0.25 0.513,-0.325 0.862,-0.225 0.225,0.05 0.625,0.162 1.2,0.337 0.551,0.126 1.038,0.364 1.463,0.714 z"
   style="clip-rule:evenodd;fill:#f5deb0;fill-rule:evenodd" />
		<path
   inkscape:connector-curvature="0"
   id="path465"
   d="M 10.038,31.338 C 9.963,31.313 9.926,31.25 9.926,31.15 c 0.4,-0.176 0.837,-0.15 1.313,0.074 0.175,0.075 0.563,0.4 1.162,0.976 0.575,0.55 0.913,0.825 1.013,0.825 0.125,0.05 0.325,-0.075 0.6,-0.375 0.25,-0.325 0.4,-0.613 0.45,-0.863 0.075,0.176 0.1,0.325 0.075,0.45 -0.125,0.476 -0.487,1.025 -1.087,1.65 l -1.388,-1.5 c -0.4,-0.351 -0.837,-0.612 -1.313,-0.788 -0.401,-0.124 -0.638,-0.211 -0.713,-0.261 z"
   style="clip-rule:evenodd;fill:#ebc985;fill-rule:evenodd" />
		<path
   inkscape:connector-curvature="0"
   id="path467"
   d="m 23.388,30.475 c 0.3,-0.25 0.638,-0.337 1.013,-0.262 0.25,0.074 0.699,0.212 1.35,0.412 0.575,0.125 1.075,0.362 1.5,0.713 0.425,0.399 0.563,0.774 0.412,1.125 -0.249,0.475 -0.799,1.037 -1.649,1.688 -0.525,-0.75 -0.95,-1.275 -1.275,-1.575 -0.375,-0.351 -0.813,-0.625 -1.313,-0.825 -0.425,-0.15 -0.675,-0.25 -0.75,-0.3 -0.176,-0.101 0.062,-0.426 0.712,-0.976 z"
   style="clip-rule:evenodd;fill:#f5deb0;fill-rule:evenodd" />
		<path
   inkscape:connector-curvature="0"
   id="path469"
   d="M 22.675,31.45 C 22.6,31.4 22.575,31.349 22.6,31.3 c 0.176,-0.075 0.4,-0.1 0.676,-0.075 0.324,0 0.588,0.05 0.787,0.15 0.2,0.1 0.588,0.438 1.162,1.013 0.551,0.55 0.876,0.837 0.976,0.862 0.125,0.05 0.375,-0.088 0.75,-0.412 0.35,-0.301 0.587,-0.588 0.712,-0.863 0.051,0.2 0.051,0.363 0,0.488 -0.249,0.475 -0.799,1.037 -1.649,1.688 -0.525,-0.75 -0.95,-1.275 -1.275,-1.575 C 24.364,32.225 23.926,31.951 23.426,31.751 23,31.6 22.75,31.5 22.675,31.45 Z"
   style="clip-rule:evenodd;fill:#ebc985;fill-rule:evenodd" />
		
			<linearGradient
   gradientTransform="matrix(0.75,0,0,0.75,3.8501,22.9004)"
   y2="4.7831998"
   x2="20.537399"
   y1="4.7831998"
   x1="18.4624"
   gradientUnits="userSpaceOnUse"
   id="SVGID_41_">
			<stop
   id="stop471"
   style="stop-color:#FF7C1F"
   offset="0" />
			<stop
   id="stop473"
   style="stop-color:#C7641A"
   offset="1" />
		</linearGradient>
		<path
   inkscape:connector-curvature="0"
   id="path476"
   d="m 18.587,26.013 c 0.725,0.325 0.9,0.6 0.525,0.825 -0.4,0.225 -0.8,0.225 -1.2,0 -0.3,-0.15 -0.313,-0.351 -0.038,-0.601 0.276,-0.25 0.514,-0.325 0.713,-0.224 z"
   style="clip-rule:evenodd;fill:url(#SVGID_41_);fill-rule:evenodd" />
		
			<linearGradient
   gradientTransform="matrix(0.75,0,0,0.75,3.8501,22.9004)"
   y2="6.5946999"
   x2="19.412701"
   y1="6.5946999"
   x1="17.387699"
   gradientUnits="userSpaceOnUse"
   id="SVGID_42_">
			<stop
   id="stop478"
   style="stop-color:#FF7C1F"
   offset="0" />
			<stop
   id="stop480"
   style="stop-color:#C7641A"
   offset="1" />
		</linearGradient>
		<path
   inkscape:connector-curvature="0"
   id="path483"
   d="m 17.725,27.438 c 0.1,0.025 0.288,0.063 0.563,0.112 0.175,0.075 0.175,0.188 0,0.338 -0.55,0.425 -0.975,0.513 -1.275,0.263 -0.2,-0.176 -0.188,-0.363 0.038,-0.563 0.224,-0.176 0.449,-0.226 0.674,-0.15 z"
   style="clip-rule:evenodd;fill:url(#SVGID_42_);fill-rule:evenodd" />
		
			<linearGradient
   gradientTransform="matrix(0.75,0,0,0.75,3.8501,22.9004)"
   y2="7.1387"
   x2="18.3375"
   y1="7.1387"
   x1="17.0625"
   gradientUnits="userSpaceOnUse"
   id="SVGID_43_">
			<stop
   id="stop485"
   style="stop-color:#FF7C1F"
   offset="0" />
			<stop
   id="stop487"
   style="stop-color:#C7641A"
   offset="1" />
		</linearGradient>
		<path
   inkscape:connector-curvature="0"
   id="path490"
   d="m 17.125,27.925 c 0.45,0.025 0.588,0.15 0.413,0.375 -0.15,0.25 -0.375,0.338 -0.675,0.263 -0.25,-0.025 -0.313,-0.15 -0.188,-0.375 0.125,-0.201 0.275,-0.289 0.45,-0.263 z"
   style="clip-rule:evenodd;fill:url(#SVGID_43_);fill-rule:evenodd" />
		
			<linearGradient
   gradientTransform="matrix(0.75,0,0,0.75,3.8501,22.9004)"
   y2="6.2915001"
   x2="14.825"
   y1="6.2915001"
   x1="13.875"
   gradientUnits="userSpaceOnUse"
   id="SVGID_44_">
			<stop
   id="stop492"
   style="stop-color:#FF7C1F"
   offset="0" />
			<stop
   id="stop494"
   style="stop-color:#C7641A"
   offset="1" />
		</linearGradient>
		<path
   inkscape:connector-curvature="0"
   id="path497"
   d="m 14.763,27.4 c 0.175,0.05 0.237,0.149 0.188,0.3 -0.05,0.125 -0.188,0.188 -0.413,0.188 -0.275,0 -0.363,-0.112 -0.263,-0.338 0.075,-0.2 0.238,-0.25 0.488,-0.15 z"
   style="clip-rule:evenodd;fill:url(#SVGID_44_);fill-rule:evenodd" />
		
			<linearGradient
   gradientTransform="matrix(0.75,0,0,0.75,3.8501,22.9004)"
   y2="4.1738"
   x2="26.812901"
   y1="4.1738"
   x1="22.0879"
   gradientUnits="userSpaceOnUse"
   id="SVGID_45_">
			<stop
   id="stop499"
   style="stop-color:#FF7C1F"
   offset="0" />
			<stop
   id="stop501"
   style="stop-color:#C7641A"
   offset="1" />
		</linearGradient>
		<path
   inkscape:connector-curvature="0"
   id="path504"
   d="m 23.875,26.237 c -0.075,0.05 -0.25,0.088 -0.525,0.112 -0.35,0.026 -0.65,0.089 -0.9,0.188 -0.226,0.101 -0.4,0.113 -0.525,0.038 -0.1,-0.05 -0.25,-0.176 -0.45,-0.375 -0.125,-0.15 -0.3,-0.237 -0.524,-0.263 -0.25,-0.025 -0.413,-0.075 -0.487,-0.15 -0.125,-0.125 -0.038,-0.199 0.262,-0.225 0.2,-0.025 0.65,-0.05 1.35,-0.075 0.899,-0.125 1.487,-0.013 1.763,0.338 0.148,0.199 0.161,0.337 0.036,0.412 z"
   style="clip-rule:evenodd;fill:url(#SVGID_45_);fill-rule:evenodd" />
		
			<linearGradient
   gradientTransform="matrix(0.75,0,0,0.75,3.8501,22.9004)"
   y2="5.0654001"
   x2="28.5375"
   y1="5.0654001"
   x1="24.5625"
   gradientUnits="userSpaceOnUse"
   id="SVGID_46_">
			<stop
   id="stop506"
   style="stop-color:#FF7C1F"
   offset="0" />
			<stop
   id="stop508"
   style="stop-color:#C7641A"
   offset="1" />
		</linearGradient>
		<path
   inkscape:connector-curvature="0"
   id="path511"
   d="m 22.9,26.05 c 0.375,-0.1 0.813,-0.087 1.313,0.038 0.425,0.124 0.725,0.287 0.899,0.487 0.125,0.149 0.15,0.274 0.075,0.375 -0.125,0.125 -0.25,0.25 -0.375,0.375 -0.125,0.149 -0.287,0.112 -0.487,-0.112 -0.226,-0.251 -0.438,-0.338 -0.638,-0.263 -0.225,0.1 -0.387,0.138 -0.487,0.112 -0.15,-0.075 -0.338,-0.15 -0.563,-0.225 -0.325,-0.075 -0.45,-0.2 -0.375,-0.375 0.101,-0.175 0.313,-0.312 0.638,-0.412 z"
   style="clip-rule:evenodd;fill:url(#SVGID_46_);fill-rule:evenodd" />
		
			<linearGradient
   gradientTransform="matrix(0.75,0,0,0.75,3.8501,22.9004)"
   y2="5.5946999"
   x2="26.4111"
   y1="5.5946999"
   x1="25.2861"
   gradientUnits="userSpaceOnUse"
   id="SVGID_47_">
			<stop
   id="stop513"
   style="stop-color:#FF7C1F"
   offset="0" />
			<stop
   id="stop515"
   style="stop-color:#C7641A"
   offset="1" />
		</linearGradient>
		<path
   inkscape:connector-curvature="0"
   id="path518"
   d="m 23.237,26.763 c 0.3,0.05 0.45,0.188 0.45,0.412 0,0.2 -0.162,0.288 -0.487,0.263 -0.3,-0.025 -0.425,-0.15 -0.375,-0.375 0.075,-0.25 0.212,-0.35 0.412,-0.3 z"
   style="clip-rule:evenodd;fill:url(#SVGID_47_);fill-rule:evenodd" />
		
			<linearGradient
   gradientTransform="matrix(0.75,0,0,0.75,3.8501,22.9004)"
   y2="7.9980001"
   x2="26.5877"
   y1="7.9980001"
   x1="25.512699"
   gradientUnits="userSpaceOnUse"
   id="SVGID_48_">
			<stop
   id="stop520"
   style="stop-color:#FF7C1F"
   offset="0" />
			<stop
   id="stop522"
   style="stop-color:#C7641A"
   offset="1" />
		</linearGradient>
		<path
   inkscape:connector-curvature="0"
   id="path525"
   d="m 23.2,28.525 c 0.45,0.05 0.65,0.188 0.6,0.412 -0.075,0.225 -0.237,0.338 -0.487,0.338 -0.175,0 -0.287,-0.125 -0.338,-0.375 -0.025,-0.275 0.05,-0.4 0.225,-0.375 z"
   style="clip-rule:evenodd;fill:url(#SVGID_48_);fill-rule:evenodd" />
		
			<linearGradient
   gradientTransform="matrix(0.75,0,0,0.75,3.8501,22.9004)"
   y2="4.7549"
   x2="30.8375"
   y1="4.7549"
   x1="29.5625"
   gradientUnits="userSpaceOnUse"
   id="SVGID_49_">
			<stop
   id="stop527"
   style="stop-color:#FF7C1F"
   offset="0" />
			<stop
   id="stop529"
   style="stop-color:#C7641A"
   offset="1" />
		</linearGradient>
		<path
   inkscape:connector-curvature="0"
   id="path532"
   d="m 26.688,26.2 c 0.3,0.075 0.388,0.199 0.263,0.375 -0.125,0.175 -0.338,0.237 -0.638,0.188 -0.3,-0.049 -0.387,-0.176 -0.263,-0.375 0.125,-0.226 0.338,-0.288 0.638,-0.188 z"
   style="clip-rule:evenodd;fill:url(#SVGID_49_);fill-rule:evenodd" />
		
			<linearGradient
   gradientTransform="matrix(0.75,0,0,0.75,3.8501,22.9004)"
   y2="3.9209001"
   x2="29.4002"
   y1="3.9209001"
   x1="28.700199"
   gradientUnits="userSpaceOnUse"
   id="SVGID_50_">
			<stop
   id="stop534"
   style="stop-color:#FF7C1F"
   offset="0" />
			<stop
   id="stop536"
   style="stop-color:#C7641A"
   offset="1" />
		</linearGradient>
		<path
   inkscape:connector-curvature="0"
   id="path539"
   d="m 25.6,25.638 c 0.25,0.075 0.35,0.162 0.3,0.262 -0.051,0.1 -0.162,0.149 -0.338,0.149 -0.125,0 -0.188,-0.075 -0.188,-0.225 0.026,-0.149 0.101,-0.212 0.226,-0.186 z"
   style="clip-rule:evenodd;fill:url(#SVGID_50_);fill-rule:evenodd" />
		
			<linearGradient
   gradientTransform="matrix(0.75,0,0,0.75,3.8501,22.9004)"
   y2="8.6522999"
   x2="34.499599"
   y1="8.6522999"
   x1="30.0996"
   gradientUnits="userSpaceOnUse"
   id="SVGID_51_">
			<stop
   id="stop541"
   style="stop-color:#FF7C1F"
   offset="0" />
			<stop
   id="stop543"
   style="stop-color:#C7641A"
   offset="1" />
		</linearGradient>
		<path
   inkscape:connector-curvature="0"
   id="path546"
   d="m 29.313,28.6 c 0.3,0.101 0.438,0.226 0.412,0.375 -0.024,0.05 -0.112,0.188 -0.262,0.413 -0.101,0.199 -0.175,0.337 -0.226,0.412 -0.124,0.175 -0.312,0.313 -0.563,0.413 -0.25,0.074 -0.388,0.024 -0.412,-0.15 -0.05,-0.225 -0.15,-0.375 -0.3,-0.45 -0.175,-0.075 -0.488,-0.112 -0.938,-0.112 -0.375,0 -0.575,-0.05 -0.601,-0.15 -0.024,-0.175 0.063,-0.325 0.263,-0.449 0.2,-0.125 0.463,-0.188 0.787,-0.188 0.126,0 0.426,-0.051 0.9,-0.15 0.353,-0.051 0.664,-0.039 0.94,0.036 z"
   style="clip-rule:evenodd;fill:url(#SVGID_51_);fill-rule:evenodd" />
		
			<linearGradient
   gradientTransform="matrix(0.75,0,0,0.75,3.8501,22.9004)"
   y2="9.5712996"
   x2="33.724602"
   y1="9.5712996"
   x1="31.4746"
   gradientUnits="userSpaceOnUse"
   id="SVGID_52_">
			<stop
   id="stop548"
   style="stop-color:#FF7C1F"
   offset="0" />
			<stop
   id="stop550"
   style="stop-color:#C7641A"
   offset="1" />
		</linearGradient>
		<path
   inkscape:connector-curvature="0"
   id="path553"
   d="m 28.487,29.35 c 0.3,-0.05 0.5,0.101 0.601,0.45 0.125,0.35 0.013,0.612 -0.338,0.788 -0.375,0.175 -0.612,0.25 -0.713,0.225 -0.125,-0.025 -0.287,-0.162 -0.487,-0.412 -0.2,-0.251 -0.175,-0.476 0.075,-0.676 0.225,-0.2 0.513,-0.326 0.862,-0.375 z"
   style="clip-rule:evenodd;fill:url(#SVGID_52_);fill-rule:evenodd" />
		
			<linearGradient
   gradientTransform="matrix(0.75,0,0,0.75,3.8501,22.9004)"
   y2="10.2432"
   x2="34.437901"
   y1="10.2432"
   x1="32.962898"
   gradientUnits="userSpaceOnUse"
   id="SVGID_53_">
			<stop
   id="stop555"
   style="stop-color:#FF7C1F"
   offset="0" />
			<stop
   id="stop557"
   style="stop-color:#C7641A"
   offset="1" />
		</linearGradient>
		<path
   inkscape:connector-curvature="0"
   id="path560"
   d="m 29.5,30.213 c 0.275,0.074 0.287,0.237 0.037,0.487 -0.249,0.25 -0.512,0.325 -0.787,0.225 -0.275,-0.1 -0.275,-0.263 0,-0.487 0.25,-0.201 0.5,-0.276 0.75,-0.225 z"
   style="clip-rule:evenodd;fill:url(#SVGID_53_);fill-rule:evenodd" />
		
			<linearGradient
   gradientTransform="matrix(0.75,0,0,0.75,3.8501,22.9004)"
   y2="11.252"
   x2="36.612701"
   y1="11.252"
   x1="35.387699"
   gradientUnits="userSpaceOnUse"
   id="SVGID_54_">
			<stop
   id="stop562"
   style="stop-color:#FF7C1F"
   offset="0" />
			<stop
   id="stop564"
   style="stop-color:#C7641A"
   offset="1" />
		</linearGradient>
		<path
   inkscape:connector-curvature="0"
   id="path567"
   d="m 30.737,30.925 c 0.5,0.025 0.688,0.15 0.563,0.375 -0.124,0.226 -0.35,0.375 -0.675,0.45 -0.225,0.025 -0.3,-0.101 -0.225,-0.375 0.1,-0.3 0.213,-0.45 0.337,-0.45 z"
   style="clip-rule:evenodd;fill:url(#SVGID_54_);fill-rule:evenodd" />
		
			<linearGradient
   gradientTransform="matrix(0.75,0,0,0.75,3.8501,22.9004)"
   y2="9.0674"
   x2="16.237301"
   y1="9.0674"
   x1="14.8623"
   gradientUnits="userSpaceOnUse"
   id="SVGID_55_">
			<stop
   id="stop569"
   style="stop-color:#FF7C1F"
   offset="0" />
			<stop
   id="stop571"
   style="stop-color:#C7641A"
   offset="1" />
		</linearGradient>
		<path
   inkscape:connector-curvature="0"
   id="path574"
   d="m 15.55,29.35 c 0.475,0.15 0.625,0.338 0.45,0.563 -0.175,0.226 -0.413,0.25 -0.712,0.075 -0.25,-0.125 -0.337,-0.287 -0.263,-0.487 C 15.1,29.3 15.275,29.25 15.55,29.35 Z"
   style="clip-rule:evenodd;fill:url(#SVGID_55_);fill-rule:evenodd" />
		
			<linearGradient
   gradientTransform="matrix(0.75,0,0,0.75,3.8501,22.9004)"
   y2="11.2236"
   x2="22.5875"
   y1="11.2236"
   x1="20.3125"
   gradientUnits="userSpaceOnUse"
   id="SVGID_56_">
			<stop
   id="stop576"
   style="stop-color:#FF7C1F"
   offset="0" />
			<stop
   id="stop578"
   style="stop-color:#C7641A"
   offset="1" />
		</linearGradient>
		<path
   inkscape:connector-curvature="0"
   id="path581"
   d="m 20.2,30.625 c 0.65,0.025 0.8,0.338 0.45,0.938 -0.15,0.2 -0.538,0.35 -1.163,0.45 -0.275,0.024 -0.413,-0.075 -0.413,-0.3 0.075,-0.251 0.1,-0.426 0.075,-0.525 -0.05,-0.15 0.038,-0.275 0.263,-0.375 0.2,-0.151 0.463,-0.213 0.788,-0.188 z"
   style="clip-rule:evenodd;fill:url(#SVGID_56_);fill-rule:evenodd" />
		
			<linearGradient
   gradientTransform="matrix(0.75,0,0,0.75,3.8501,22.9004)"
   y2="12.0215"
   x2="22.499901"
   y1="12.0215"
   x1="20.3999"
   gradientUnits="userSpaceOnUse"
   id="SVGID_57_">
			<stop
   id="stop583"
   style="stop-color:#FF7C1F"
   offset="0" />
			<stop
   id="stop585"
   style="stop-color:#C7641A"
   offset="1" />
		</linearGradient>
		<path
   inkscape:connector-curvature="0"
   id="path588"
   d="m 19.975,31.375 c 0.725,0.35 0.938,0.638 0.637,0.862 C 20.388,32.412 20,32.5 19.45,32.5 19.075,32.5 19,32.275 19.225,31.825 19.45,31.4 19.7,31.25 19.975,31.375 Z"
   style="clip-rule:evenodd;fill:url(#SVGID_57_);fill-rule:evenodd" />
		
			<linearGradient
   gradientTransform="matrix(0.75,0,0,0.75,3.8501,22.9004)"
   y2="13.2085"
   x2="20.5126"
   y1="13.2085"
   x1="19.2876"
   gradientUnits="userSpaceOnUse"
   id="SVGID_58_">
			<stop
   id="stop590"
   style="stop-color:#FF7C1F"
   offset="0" />
			<stop
   id="stop592"
   style="stop-color:#C7641A"
   offset="1" />
		</linearGradient>
		<path
   inkscape:connector-curvature="0"
   id="path595"
   d="m 18.85,32.5 c 0.375,0.15 0.487,0.313 0.337,0.487 -0.15,0.15 -0.362,0.2 -0.637,0.15 -0.25,-0.025 -0.313,-0.163 -0.188,-0.413 0.125,-0.249 0.288,-0.325 0.488,-0.224 z"
   style="clip-rule:evenodd;fill:url(#SVGID_58_);fill-rule:evenodd" />
		
			<linearGradient
   gradientTransform="matrix(0.75,0,0,0.75,3.8501,22.9004)"
   y2="11.3926"
   x2="29.3748"
   y1="11.3926"
   x1="28.424801"
   gradientUnits="userSpaceOnUse"
   id="SVGID_59_">
			<stop
   id="stop597"
   style="stop-color:#FF7C1F"
   offset="0" />
			<stop
   id="stop599"
   style="stop-color:#C7641A"
   offset="1" />
		</linearGradient>
		<path
   inkscape:connector-curvature="0"
   id="path602"
   d="m 25.563,31.15 c 0.25,0.1 0.351,0.225 0.3,0.375 -0.024,0.175 -0.175,0.25 -0.45,0.225 -0.249,-0.025 -0.337,-0.15 -0.262,-0.375 0.099,-0.2 0.237,-0.275 0.412,-0.225 z"
   style="clip-rule:evenodd;fill:url(#SVGID_59_);fill-rule:evenodd" />
		
			<linearGradient
   gradientTransform="matrix(0.75,0,0,0.75,3.8501,22.9004)"
   y2="10.2446"
   x2="28.9375"
   y1="10.2446"
   x1="27.0625"
   gradientUnits="userSpaceOnUse"
   id="SVGID_60_">
			<stop
   id="stop604"
   style="stop-color:#FF7C1F"
   offset="0" />
			<stop
   id="stop606"
   style="stop-color:#C7641A"
   offset="1" />
		</linearGradient>
		<path
   inkscape:connector-curvature="0"
   id="path609"
   d="m 24.662,30.138 c 0.625,0.024 0.926,0.149 0.9,0.375 -0.05,0.225 -0.237,0.375 -0.563,0.45 -0.199,0.074 -0.338,0.087 -0.412,0.037 -0.101,-0.101 -0.2,-0.175 -0.301,-0.225 -0.175,-0.101 -0.199,-0.226 -0.074,-0.375 0.101,-0.175 0.251,-0.262 0.45,-0.262 z"
   style="clip-rule:evenodd;fill:url(#SVGID_60_);fill-rule:evenodd" />
		
			<linearGradient
   gradientTransform="matrix(0.75,0,0,0.75,3.8501,22.9004)"
   y2="5.5585999"
   x2="17.762699"
   y1="5.5585999"
   x1="15.1377"
   gradientUnits="userSpaceOnUse"
   id="SVGID_61_">
			<stop
   id="stop611"
   style="stop-color:#FFCE1F"
   offset="0" />
			<stop
   id="stop613"
   style="stop-color:#C78D1A"
   offset="1" />
		</linearGradient>
		<path
   inkscape:connector-curvature="0"
   id="path616"
   d="m 16.638,26.612 c 0.475,0 0.637,0.101 0.487,0.3 -0.125,0.125 -0.325,0.263 -0.6,0.413 -0.4,0.225 -0.762,0.313 -1.087,0.263 -0.325,-0.025 -0.287,-0.313 0.113,-0.863 0.1,-0.125 0.25,-0.188 0.45,-0.188 0.124,0.026 0.336,0.05 0.637,0.075 z"
   style="clip-rule:evenodd;fill:url(#SVGID_61_);fill-rule:evenodd" />
		
			<linearGradient
   gradientTransform="matrix(0.75,0,0,0.75,3.8501,22.9004)"
   y2="6.4296999"
   x2="16.750099"
   y1="6.4296999"
   x1="15.3501"
   gradientUnits="userSpaceOnUse"
   id="SVGID_62_">
			<stop
   id="stop618"
   style="stop-color:#FFCE1F"
   offset="0" />
			<stop
   id="stop620"
   style="stop-color:#C78D1A"
   offset="1" />
		</linearGradient>
		<path
   inkscape:connector-curvature="0"
   id="path623"
   d="m 15.925,27.25 c 0.45,0.075 0.612,0.263 0.487,0.563 -0.15,0.3 -0.4,0.425 -0.75,0.375 -0.3,-0.075 -0.375,-0.25 -0.225,-0.525 0.126,-0.301 0.288,-0.438 0.488,-0.413 z"
   style="clip-rule:evenodd;fill:url(#SVGID_62_);fill-rule:evenodd" />
		
			<linearGradient
   gradientTransform="matrix(0.75,0,0,0.75,3.8501,22.9004)"
   y2="7.9688001"
   x2="14.125"
   y1="7.9688001"
   x1="12.875"
   gradientUnits="userSpaceOnUse"
   id="SVGID_63_">
			<stop
   id="stop625"
   style="stop-color:#FFCE1F"
   offset="0" />
			<stop
   id="stop627"
   style="stop-color:#C78D1A"
   offset="1" />
		</linearGradient>
		<path
   inkscape:connector-curvature="0"
   id="path630"
   d="m 13.9,28.525 c 0.475,0.149 0.65,0.312 0.525,0.487 -0.1,0.125 -0.313,0.199 -0.638,0.225 -0.225,0.025 -0.3,-0.1 -0.225,-0.375 0.076,-0.274 0.188,-0.387 0.338,-0.337 z"
   style="clip-rule:evenodd;fill:url(#SVGID_63_);fill-rule:evenodd" />
		
			<linearGradient
   gradientTransform="matrix(0.75,0,0,0.75,3.8501,22.9004)"
   y2="7.1244998"
   x2="21.5"
   y1="7.1244998"
   x1="19"
   gradientUnits="userSpaceOnUse"
   id="SVGID_64_">
			<stop
   id="stop632"
   style="stop-color:#FFCE1F"
   offset="0" />
			<stop
   id="stop634"
   style="stop-color:#C78D1A"
   offset="1" />
		</linearGradient>
		<path
   inkscape:connector-curvature="0"
   id="path637"
   d="m 19.188,27.775 c 0.375,0.05 0.625,0.188 0.75,0.412 0.1,0.2 0.075,0.362 -0.075,0.487 -0.075,0.075 -0.225,0.075 -0.45,0 -0.275,-0.075 -0.45,-0.112 -0.525,-0.112 -0.125,0.05 -0.3,-0.013 -0.525,-0.188 -0.2,-0.175 -0.288,-0.325 -0.263,-0.45 0.025,-0.149 0.387,-0.199 1.088,-0.149 z"
   style="clip-rule:evenodd;fill:url(#SVGID_64_);fill-rule:evenodd" />
		
			<linearGradient
   gradientTransform="matrix(0.75,0,0,0.75,3.8501,22.9004)"
   y2="7.9345999"
   x2="19.6749"
   y1="7.9345999"
   x1="18.5249"
   gradientUnits="userSpaceOnUse"
   id="SVGID_65_">
			<stop
   id="stop639"
   style="stop-color:#FFCE1F"
   offset="0" />
			<stop
   id="stop641"
   style="stop-color:#C78D1A"
   offset="1" />
		</linearGradient>
		<path
   inkscape:connector-curvature="0"
   id="path644"
   d="m 18.175,28.525 c 0.4,0.074 0.512,0.225 0.337,0.449 -0.175,0.2 -0.362,0.263 -0.563,0.188 -0.175,-0.074 -0.25,-0.212 -0.225,-0.412 0.051,-0.2 0.201,-0.275 0.451,-0.225 z"
   style="clip-rule:evenodd;fill:url(#SVGID_65_);fill-rule:evenodd" />
		
			<linearGradient
   gradientTransform="matrix(0.75,0,0,0.75,3.8501,22.9004)"
   y2="7.1377001"
   x2="25.337299"
   y1="7.1377001"
   x1="23.362301"
   gradientUnits="userSpaceOnUse"
   id="SVGID_66_">
			<stop
   id="stop646"
   style="stop-color:#FFCE1F"
   offset="0" />
			<stop
   id="stop648"
   style="stop-color:#C78D1A"
   offset="1" />
		</linearGradient>
		<path
   inkscape:connector-curvature="0"
   id="path651"
   d="m 22.487,27.775 c 0.4,0.024 0.463,0.312 0.188,0.862 -0.075,0.1 -0.188,0.125 -0.337,0.075 -0.075,-0.025 -0.313,-0.138 -0.713,-0.338 -0.3,-0.175 -0.325,-0.325 -0.075,-0.45 0.225,-0.124 0.538,-0.174 0.937,-0.149 z"
   style="clip-rule:evenodd;fill:url(#SVGID_66_);fill-rule:evenodd" />
		
			<linearGradient
   gradientTransform="matrix(0.75,0,0,0.75,3.8501,22.9004)"
   y2="4.4657998"
   x2="24.3873"
   y1="4.4657998"
   x1="23.112301"
   gradientUnits="userSpaceOnUse"
   id="SVGID_67_">
			<stop
   id="stop653"
   style="stop-color:#FFCE1F"
   offset="0" />
			<stop
   id="stop655"
   style="stop-color:#C78D1A"
   offset="1" />
		</linearGradient>
		<path
   inkscape:connector-curvature="0"
   id="path658"
   d="m 21.85,25.9 c 0.326,0.05 0.4,0.199 0.226,0.449 -0.175,0.226 -0.4,0.301 -0.675,0.226 -0.275,-0.05 -0.338,-0.188 -0.188,-0.413 0.149,-0.199 0.362,-0.287 0.637,-0.262 z"
   style="clip-rule:evenodd;fill:url(#SVGID_67_);fill-rule:evenodd" />
		
			<linearGradient
   gradientTransform="matrix(0.75,0,0,0.75,3.8501,22.9004)"
   y2="2.5028999"
   x2="26.0252"
   y1="2.5028999"
   x1="25.075199"
   gradientUnits="userSpaceOnUse"
   id="SVGID_68_">
			<stop
   id="stop660"
   style="stop-color:#FFCE1F"
   offset="0" />
			<stop
   id="stop662"
   style="stop-color:#C78D1A"
   offset="1" />
		</linearGradient>
		<path
   inkscape:connector-curvature="0"
   id="path665"
   d="m 23.013,24.513 c 0.175,0 0.288,0.1 0.337,0.3 0.051,0.175 -0.074,0.25 -0.375,0.225 -0.3,-0.05 -0.399,-0.149 -0.3,-0.3 0.075,-0.15 0.187,-0.225 0.338,-0.225 z"
   style="clip-rule:evenodd;fill:url(#SVGID_68_);fill-rule:evenodd" />
		
			<linearGradient
   gradientTransform="matrix(0.75,0,0,0.75,3.8501,22.9004)"
   y2="3.0313001"
   x2="29.499599"
   y1="3.0313001"
   x1="28.5996"
   gradientUnits="userSpaceOnUse"
   id="SVGID_69_">
			<stop
   id="stop667"
   style="stop-color:#FFCE1F"
   offset="0" />
			<stop
   id="stop669"
   style="stop-color:#C78D1A"
   offset="1" />
		</linearGradient>
		<path
   inkscape:connector-curvature="0"
   id="path672"
   d="m 25.713,25 c 0.324,0.025 0.4,0.1 0.225,0.225 C 25.763,25.375 25.6,25.4 25.45,25.3 25.176,25.05 25.263,24.95 25.713,25 Z"
   style="clip-rule:evenodd;fill:url(#SVGID_69_);fill-rule:evenodd" />
		
			<linearGradient
   gradientTransform="matrix(0.75,0,0,0.75,3.8501,22.9004)"
   y2="6.5527"
   x2="33.9123"
   y1="6.5527"
   x1="31.987301"
   gradientUnits="userSpaceOnUse"
   id="SVGID_70_">
			<stop
   id="stop674"
   style="stop-color:#FFCE1F"
   offset="0" />
			<stop
   id="stop676"
   style="stop-color:#C78D1A"
   offset="1" />
		</linearGradient>
		<path
   inkscape:connector-curvature="0"
   id="path679"
   d="m 28.675,27.438 c 0.351,0.025 0.55,0.112 0.601,0.263 0.05,0.149 -0.025,0.274 -0.226,0.375 -0.149,0.1 -0.487,0.138 -1.013,0.112 -0.274,-0.025 -0.313,-0.162 -0.112,-0.412 0.2,-0.252 0.45,-0.364 0.75,-0.338 z"
   style="clip-rule:evenodd;fill:url(#SVGID_70_);fill-rule:evenodd" />
		
			<linearGradient
   gradientTransform="matrix(0.75,0,0,0.75,3.8501,22.9004)"
   y2="9.1738005"
   x2="36.137699"
   y1="9.1738005"
   x1="34.762699"
   gradientUnits="userSpaceOnUse"
   id="SVGID_71_">
			<stop
   id="stop681"
   style="stop-color:#FFCE1F"
   offset="0" />
			<stop
   id="stop683"
   style="stop-color:#C78D1A"
   offset="1" />
		</linearGradient>
		<path
   inkscape:connector-curvature="0"
   id="path686"
   d="m 30.063,29.987 c -0.225,-0.175 -0.225,-0.325 0,-0.45 0.225,-0.1 0.475,-0.112 0.75,-0.037 0.25,0.1 0.237,0.25 -0.037,0.45 -0.251,0.199 -0.489,0.212 -0.713,0.037 z"
   style="clip-rule:evenodd;fill:url(#SVGID_71_);fill-rule:evenodd" />
		
			<linearGradient
   gradientTransform="matrix(0.75,0,0,0.75,3.8501,22.9004)"
   y2="11.7495"
   x2="31.4496"
   y1="11.7495"
   x1="30.3496"
   gradientUnits="userSpaceOnUse"
   id="SVGID_72_">
			<stop
   id="stop688"
   style="stop-color:#FFCE1F"
   offset="0" />
			<stop
   id="stop690"
   style="stop-color:#C78D1A"
   offset="1" />
		</linearGradient>
		<path
   inkscape:connector-curvature="0"
   id="path693"
   d="m 26.912,31.3 c 0.426,0 0.601,0.138 0.525,0.413 -0.1,0.274 -0.287,0.412 -0.563,0.412 -0.225,0 -0.313,-0.138 -0.263,-0.412 0.052,-0.275 0.152,-0.413 0.301,-0.413 z"
   style="clip-rule:evenodd;fill:url(#SVGID_72_);fill-rule:evenodd" />
		
			<linearGradient
   gradientTransform="matrix(0.75,0,0,0.75,3.8501,22.9004)"
   y2="12.5503"
   x2="26.899599"
   y1="12.5503"
   x1="25.5996"
   gradientUnits="userSpaceOnUse"
   id="SVGID_73_">
			<stop
   id="stop695"
   style="stop-color:#FFCE1F"
   offset="0" />
			<stop
   id="stop697"
   style="stop-color:#C78D1A"
   offset="1" />
		</linearGradient>
		<path
   inkscape:connector-curvature="0"
   id="path700"
   d="m 23.575,31.975 c 0.375,0.025 0.513,0.163 0.412,0.413 -0.1,0.225 -0.312,0.313 -0.638,0.263 -0.3,-0.025 -0.399,-0.15 -0.3,-0.375 0.101,-0.252 0.276,-0.351 0.526,-0.301 z"
   style="clip-rule:evenodd;fill:url(#SVGID_73_);fill-rule:evenodd" />
		<path
   inkscape:connector-curvature="0"
   id="path702"
   d="m 37.787,28.862 h 1.125 l 0.075,0.601 c 0,1.8 -1.712,3.35 -5.138,4.649 -3.449,1.275 -7.6,1.913 -12.449,1.913 -4.825,0 -8.963,-0.638 -12.413,-1.913 -3.425,-1.3 -5.138,-2.85 -5.138,-4.649 L 3.924,28.862 H 5.2 V 29.2 c 0,1.625 1.587,3 4.762,4.125 3.175,1.149 7.025,1.725 11.55,1.725 4.5,0 8.338,-0.575 11.513,-1.725 3.175,-1.125 4.762,-2.5 4.762,-4.125 z"
   style="clip-rule:evenodd;fill:#f5f5f5;fill-rule:evenodd" />
	</g>
</svg>