<?xml version="1.0" encoding="UTF-8" standalone="no"?>
<!-- Generator: Adobe Illustrator 15.1.0, SVG Export Plug-In . SVG Version: 6.00 Build 0)  -->

<svg
   xmlns:dc="http://purl.org/dc/elements/1.1/"
   xmlns:cc="http://creativecommons.org/ns#"
   xmlns:rdf="http://www.w3.org/1999/02/22-rdf-syntax-ns#"
   xmlns:svg="http://www.w3.org/2000/svg"
   xmlns="http://www.w3.org/2000/svg"
   xmlns:sodipodi="http://sodipodi.sourceforge.net/DTD/sodipodi-0.dtd"
   xmlns:inkscape="http://www.inkscape.org/namespaces/inkscape"
   version="1.1"
   id="flash0.ai"
   x="0px"
   y="0px"
   width="256"
   height="256"
   viewBox="0 0 256 255.99999"
   xml:space="preserve"
   sodipodi:docname="tofu_01.svg"
   inkscape:version="0.92.4 (5da689c313, 2019-01-14)"><title
   id="title912">Tofu</title><metadata
   id="metadata105"><rdf:RDF><cc:Work
       rdf:about=""><dc:format>image/svg+xml</dc:format><dc:type
         rdf:resource="http://purl.org/dc/dcmitype/StillImage" /><dc:title>Tofu</dc:title><cc:license
         rdf:resource="http://creativecommons.org/publicdomain/zero/1.0/" /><dc:creator><cc:Agent><dc:title>Glitch</dc:title></cc:Agent></dc:creator><dc:source>https://opengameart.org/node/20149</dc:source></cc:Work><cc:License
       rdf:about="http://creativecommons.org/publicdomain/zero/1.0/"><cc:permits
         rdf:resource="http://creativecommons.org/ns#Reproduction" /><cc:permits
         rdf:resource="http://creativecommons.org/ns#Distribution" /><cc:permits
         rdf:resource="http://creativecommons.org/ns#DerivativeWorks" /></cc:License></rdf:RDF></metadata><defs
   id="defs103">
	
	
	
	
	
	
	
	
	
	
	
	
	
	
</defs><sodipodi:namedview
   pagecolor="#ffffff"
   bordercolor="#666666"
   borderopacity="1"
   objecttolerance="10"
   gridtolerance="10"
   guidetolerance="10"
   inkscape:pageopacity="0"
   inkscape:pageshadow="2"
   inkscape:window-width="1920"
   inkscape:window-height="1025"
   id="namedview101"
   showgrid="false"
   inkscape:zoom="0.60201008"
   inkscape:cx="-151.23255"
   inkscape:cy="-192.69531"
   inkscape:window-x="-8"
   inkscape:window-y="-8"
   inkscape:window-maximized="1"
   inkscape:current-layer="flash0.ai"
   fit-margin-top="0"
   fit-margin-left="0"
   fit-margin-right="0"
   fit-margin-bottom="0" />
<g
   id="g932"
   transform="matrix(10.581136,0,0,10.581136,-33.542203,-59.434243)"><g
     id="g58">
		<path
   style="clip-rule:evenodd;fill:#f9f5ea;fill-rule:evenodd"
   d="M 3.17,13.785 9.373,9.029 c 1.333,0.414 2.781,0.644 4.343,0.689 1.516,0.046 2.458,0.208 2.826,0.482 l -5.376,4.136 C 10.201,14.198 8.937,14.107 7.375,14.061 Z"
   id="path42"
   inkscape:connector-curvature="0" />
		<path
   style="clip-rule:evenodd;fill:#e8e1c5;fill-rule:evenodd"
   d="m 3.584,13.302 4.825,-0.138 c 0.781,0.046 1.837,0.345 3.17,0.896 l 1.034,9.097 -0.965,-0.274 -6.686,-0.966 z"
   id="path44"
   inkscape:connector-curvature="0" />
		<path
   style="clip-rule:evenodd;fill:#a79e81;fill-rule:evenodd"
   d="m 11.579,14.061 4.963,-3.86 1.447,8.616 c -0.551,0.552 -1.171,1.104 -1.86,1.654 -0.644,0.598 -1.815,1.493 -3.516,2.688 z"
   id="path46"
   inkscape:connector-curvature="0" />
		<path
   style="clip-rule:evenodd;fill:#c1aa76;fill-rule:evenodd"
   d="m 8.754,19.368 c 0.781,-0.368 1.378,-0.299 1.792,0.207 0.368,0.506 0.092,1.01 -0.827,1.516 -0.873,0.46 -1.401,0.368 -1.585,-0.275 -0.185,-0.644 0.022,-1.127 0.62,-1.448 z"
   id="path48"
   inkscape:connector-curvature="0" />
		<path
   style="clip-rule:evenodd;fill:#d9d2b8;fill-rule:evenodd"
   d="m 11.511,10.545 c 0.735,-0.551 1.309,-0.551 1.723,0 0.413,0.551 0.368,0.942 -0.138,1.172 -0.505,0.184 -1.034,0.138 -1.585,-0.138 -0.552,-0.275 -0.552,-0.62 0,-1.034 z"
   id="path50"
   inkscape:connector-curvature="0" />
		<path
   style="clip-rule:evenodd;fill:#c9bf9c;fill-rule:evenodd"
   d="m 13.854,13.647 c 0.736,-0.322 1.149,-0.091 1.241,0.689 0.046,0.735 -0.299,1.355 -1.034,1.861 -0.689,0.46 -0.988,0.184 -0.896,-0.827 0.092,-0.964 0.321,-1.539 0.689,-1.723 z"
   id="path52"
   inkscape:connector-curvature="0" />
		<path
   style="clip-rule:evenodd;fill:#c1aa76;fill-rule:evenodd"
   d="m 5.652,15.921 c 0.414,-0.275 0.689,-0.137 0.828,0.414 0.184,0.551 0.045,0.873 -0.414,0.964 -0.506,0.092 -0.827,-0.022 -0.965,-0.344 -0.184,-0.321 0,-0.665 0.551,-1.034 z"
   id="path54"
   inkscape:connector-curvature="0" />
		<path
   style="clip-rule:evenodd;fill:#d9d2b8;fill-rule:evenodd"
   d="m 7.513,11.717 c 0.321,-0.368 0.643,-0.551 0.964,-0.551 0.322,-0.046 0.322,0.229 0,0.827 C 8.11,12.636 7.719,12.889 7.305,12.751 6.847,12.567 6.916,12.223 7.513,11.717 Z"
   id="path56"
   inkscape:connector-curvature="0" />
	</g><g
     id="g80">
		<path
   style="clip-rule:evenodd;fill:#f9f5ea;fill-rule:evenodd"
   d="m 13.579,15.646 6.892,-3.722 1.172,0.551 c 1.011,0.368 1.999,0.644 2.964,0.827 1.517,0.322 2.435,0.644 2.757,0.965 l -5.996,3.17 c -0.919,-0.275 -2.137,-0.574 -3.653,-0.896 z"
   id="path60"
   inkscape:connector-curvature="0" />
		<path
   style="clip-rule:evenodd;fill:#e8e1c5;fill-rule:evenodd"
   d="m 13.992,15.164 4.825,0.689 c 0.781,0.138 1.793,0.597 3.033,1.378 l -0.482,9.168 -0.896,-0.415 -6.479,-2.067 v -8.753 z"
   id="path62"
   inkscape:connector-curvature="0" />
		<path
   style="clip-rule:evenodd;fill:#c1aa76;fill-rule:evenodd"
   d="m 19.782,16.335 1.585,1.103 c 0.551,0.505 0.367,0.873 -0.552,1.103 -0.644,0.184 -1.103,-0.115 -1.378,-0.896 -0.276,-0.781 -0.161,-1.218 0.345,-1.31 z"
   id="path64"
   inkscape:connector-curvature="0" />
		<polygon
   style="clip-rule:evenodd;fill:#a79e81;fill-rule:evenodd"
   points="25.296,24.33 21.367,26.399 21.85,17.231 27.363,14.268 27.363,22.952 "
   id="polygon66" />
		<path
   style="clip-rule:evenodd;fill:#c9bf9c;fill-rule:evenodd"
   d="m 25.641,17.163 c 0.551,-0.23 0.827,-0.069 0.827,0.482 0,0.506 -0.23,0.805 -0.689,0.896 -0.46,0.092 -0.735,-0.046 -0.827,-0.414 -0.139,-0.367 0.091,-0.689 0.689,-0.964 z"
   id="path68"
   inkscape:connector-curvature="0" />
		<path
   style="clip-rule:evenodd;fill:#c1aa76;fill-rule:evenodd"
   d="m 18.127,22.057 c 0.873,-0.23 1.448,-0.069 1.723,0.482 0.321,0.597 -0.023,1.057 -1.034,1.378 -0.964,0.322 -1.47,0.139 -1.517,-0.551 -0.091,-0.689 0.185,-1.126 0.828,-1.309 z"
   id="path70"
   inkscape:connector-curvature="0" />
		<path
   style="clip-rule:evenodd;fill:#d9d2b8;fill-rule:evenodd"
   d="m 22.263,13.785 c 0.827,-0.414 1.401,-0.322 1.724,0.276 0.367,0.597 0.253,0.964 -0.345,1.103 -0.506,0.138 -1.012,0.023 -1.517,-0.345 -0.506,-0.413 -0.459,-0.758 0.138,-1.034 z"
   id="path72"
   inkscape:connector-curvature="0" />
		<path
   style="clip-rule:evenodd;fill:#c9bf9c;fill-rule:evenodd"
   d="m 24.124,20.126 c 0.781,-0.184 1.148,0.115 1.103,0.896 -0.092,0.781 -0.528,1.333 -1.31,1.654 -0.734,0.321 -0.988,0 -0.759,-0.965 0.231,-0.918 0.553,-1.446 0.966,-1.585 z"
   id="path74"
   inkscape:connector-curvature="0" />
		<path
   style="clip-rule:evenodd;fill:#c1aa76;fill-rule:evenodd"
   d="m 15.646,18.127 c 0.459,-0.184 0.712,0 0.758,0.552 0.092,0.552 -0.092,0.827 -0.551,0.827 -0.506,0 -0.805,-0.161 -0.896,-0.482 -0.138,-0.322 0.091,-0.621 0.689,-0.897 z"
   id="path76"
   inkscape:connector-curvature="0" />
		<path
   style="clip-rule:evenodd;fill:#d9d2b8;fill-rule:evenodd"
   d="m 18.127,14.268 c 0.414,-0.276 0.781,-0.414 1.103,-0.414 0.321,0.047 0.275,0.322 -0.138,0.828 -0.46,0.598 -0.896,0.781 -1.31,0.551 -0.413,-0.23 -0.298,-0.552 0.345,-0.965 z"
   id="path78"
   inkscape:connector-curvature="0" />
	</g></g>
</svg>