<?xml version="1.0" encoding="UTF-8" standalone="no"?>
<!-- Generator: Adobe Illustrator 15.1.0, SVG Export Plug-In . SVG Version: 6.00 Build 0)  -->

<svg
   xmlns:dc="http://purl.org/dc/elements/1.1/"
   xmlns:cc="http://creativecommons.org/ns#"
   xmlns:rdf="http://www.w3.org/1999/02/22-rdf-syntax-ns#"
   xmlns:svg="http://www.w3.org/2000/svg"
   xmlns="http://www.w3.org/2000/svg"
   xmlns:xlink="http://www.w3.org/1999/xlink"
   xmlns:sodipodi="http://sodipodi.sourceforge.net/DTD/sodipodi-0.dtd"
   xmlns:inkscape="http://www.inkscape.org/namespaces/inkscape"
   version="1.1"
   id="Layer_1"
   x="0px"
   y="0px"
   width="256"
   height="256"
   viewBox="0 0 256 256"
   xml:space="preserve"
   sodipodi:docname="tuna_berry.svg"
   inkscape:version="0.92.4 (5da689c313, 2019-01-14)"><title
   id="title900">Tuna Berry</title><metadata
   id="metadata93"><rdf:RDF><cc:Work
       rdf:about=""><dc:format>image/svg+xml</dc:format><dc:type
         rdf:resource="http://purl.org/dc/dcmitype/StillImage" /><dc:title>Tuna Berry</dc:title><cc:license
         rdf:resource="http://creativecommons.org/publicdomain/zero/1.0/" /><dc:creator><cc:Agent><dc:title>Glitch</dc:title></cc:Agent></dc:creator><dc:source>https://opengameart.org/node/20149</dc:source></cc:Work><cc:License
       rdf:about="http://creativecommons.org/publicdomain/zero/1.0/"><cc:permits
         rdf:resource="http://creativecommons.org/ns#Reproduction" /><cc:permits
         rdf:resource="http://creativecommons.org/ns#Distribution" /><cc:permits
         rdf:resource="http://creativecommons.org/ns#DerivativeWorks" /></cc:License></rdf:RDF></metadata><defs
   id="defs91"><radialGradient
     inkscape:collect="always"
     xlink:href="#SVGID_1_"
     id="radialGradient1000"
     gradientUnits="userSpaceOnUse"
     gradientTransform="matrix(0.998,0.052,-0.1954,0.9905,-463,46.4004)"
     cx="573.5"
     cy="-227.6499"
     r="172.4368" /><radialGradient
     inkscape:collect="always"
     xlink:href="#SVGID_2_"
     id="radialGradient1002"
     gradientUnits="userSpaceOnUse"
     gradientTransform="matrix(0.998,0.052,-0.1954,0.9905,-463,46.4004)"
     cx="573.0498"
     cy="-229.7998"
     r="133.4742" /></defs><sodipodi:namedview
   pagecolor="#ffffff"
   bordercolor="#666666"
   borderopacity="1"
   objecttolerance="10"
   gridtolerance="10"
   guidetolerance="10"
   inkscape:pageopacity="0"
   inkscape:pageshadow="2"
   inkscape:window-width="1920"
   inkscape:window-height="1025"
   id="namedview89"
   showgrid="false"
   inkscape:zoom="0.64763997"
   inkscape:cx="-36.880057"
   inkscape:cy="65.33754"
   inkscape:window-x="-8"
   inkscape:window-y="-8"
   inkscape:window-maximized="1"
   inkscape:current-layer="Layer_1"
   fit-margin-top="0"
   fit-margin-left="0"
   fit-margin-right="0"
   fit-margin-bottom="0" />
<symbol
   id="tunaberry2"
   viewBox="11.895 -471.366 384.976 476.576"
   transform="translate(-7.2016657,210.95469)">
	<g
   id="Layer_1_2_">
		<g
   id="g54">
			<path
   style="clip-rule:evenodd;fill:#b5b1b2;fill-rule:evenodd"
   d="m 281.85,-133.7 c 3.033,3.7 2.033,7.942 -3,12.725 10.8,2.05 17.583,2.042 20.35,-0.025 3,-2.2 5.216,-4.433 6.65,-6.7 1.367,-2.133 2.033,-4.316 2,-6.55 -0.434,0.1 -0.817,0.167 -1.15,0.2 0.367,-0.133 0.75,-0.267 1.15,-0.4 -8.133,-1.667 -16.5,-1.483 -25.1,0.55 -0.3,0.133 -0.6,0.2 -0.9,0.2 z"
   id="path2"
   inkscape:connector-curvature="0" />
			<path
   style="clip-rule:evenodd;fill:#c2b8af;fill-rule:evenodd"
   d="m 322,-136.7 -14.15,2.45 c 0.033,2.233 -0.633,4.417 -2,6.55 z m -40.35,2.75 c 0.067,0.067 0.133,0.15 0.2,0.25 0.3,0 0.6,-0.066 0.9,-0.2 8.6,-2.033 16.967,-2.217 25.1,-0.55 0.533,-0.233 1.05,-0.5 1.55,-0.8 14.733,-8.967 16.317,-17.967 4.75,-27 -0.5,-0.067 -1,-0.133 -1.5,-0.2 -0.933,-0.1 -1.933,-0.167 -3,-0.2 l -13.95,0.4 c 0.233,0.3 0.417,0.617 0.55,0.95 4.567,12.833 -0.3,21.95 -14.6,27.35 z m -4.9,-67.7 c -11.5,-2.934 -21.733,-0.617 -30.7,6.95 -0.633,0.567 -1.25,1.117 -1.85,1.65 -0.267,-0.267 -0.55,-0.55 -0.85,-0.85 -0.333,1.066 -0.517,1.8 -0.55,2.2 0.467,-0.466 0.934,-0.917 1.4,-1.35 0.433,0.533 0.833,1.083 1.2,1.65 5.967,8.767 7.867,18.417 5.7,28.95 0.667,-0.367 1.333,-0.733 2,-1.1 12.933,-6.367 25.9,-6.934 38.9,-1.7 0.267,-0.333 0.517,-0.7 0.75,-1.1 5.367,-9.1 4.533,-18.2 -2.5,-27.3 l -6.1,-4.85 c -1.4,-0.833 -2.85,-1.55 -4.35,-2.15 -1,-0.367 -2.017,-0.7 -3.05,-1 z"
   id="path4"
   inkscape:connector-curvature="0" />
			<path
   style="clip-rule:evenodd;fill:#b0a6a7;fill-rule:evenodd"
   d="m 340.7,-170.3 c -7.767,0 -15.2,1.966 -22.3,5.9 -1.4,0.767 -2.816,1.483 -4.25,2.15 11.567,9.033 9.983,18.033 -4.75,27 -0.5,0.3 -1.017,0.567 -1.55,0.8 -0.033,0.067 -0.033,0.133 0,0.2 L 322,-136.7 c 8.933,-3.633 14.383,-6.95 16.35,-9.95 1.967,-3 4.433,-7.55 7.4,-13.65 0,-0.3 0,-0.6 0,-0.9 0.1,-3.2 -1.017,-5.883 -3.35,-8.05 -0.533,-0.433 -1.1,-0.783 -1.7,-1.05 z"
   id="path6"
   inkscape:connector-curvature="0" />
			<path
   style="clip-rule:evenodd;fill:#bcb4b1;fill-rule:evenodd"
   d="m 354.8,-170.7 c -0.933,-4 -3.583,-4.583 -7.95,-1.75 -1.367,0.867 -2.85,1.934 -4.45,3.2 2.333,2.167 3.45,4.85 3.35,8.05 0,0.3 0,0.6 0,0.9 2.467,-2.833 5.483,-6.3 9.05,-10.4 z m -75,-29.95 c 1.5,0.6 2.95,1.316 4.35,2.15 8.5,-3.5 17.083,-5.783 25.75,-6.85 0.6,-26.8 -11.433,-34.933 -36.1,-24.4 0.567,0.767 1.1,1.533 1.6,2.3 5.367,8.367 6.833,17.3 4.4,26.8 z m 37.35,0.25 c 0.2,0.233 0.383,0.483 0.55,0.75 7.167,12.233 5.483,24.633 -5.05,37.2 0.5,0.067 1,0.133 1.5,0.2 1.434,-0.667 2.85,-1.383 4.25,-2.15 7.1,-3.934 14.533,-5.9 22.3,-5.9 8.7,-8.4 11.816,-18.367 9.35,-29.9 -0.1,-0.433 -0.233,-0.867 -0.4,-1.3 l -4.6,-3.5 c -1.3,-0.4 -2.85,-0.633 -4.65,-0.7 -7.333,0.5 -14.5,2.067 -21.5,4.7 -0.6,0.2 -1.183,0.4 -1.75,0.6 z"
   id="path8"
   inkscape:connector-curvature="0" />
			<path
   style="clip-rule:evenodd;fill:#bbb9ba;fill-rule:evenodd"
   d="m 342.4,-169.25 c 1.6,-1.267 3.083,-2.333 4.45,-3.2 4.367,-2.833 7.017,-2.25 7.95,1.75 13.034,-12.5 18.333,-23.267 15.9,-32.3 -1.667,-0.433 -3.467,-0.667 -5.4,-0.7 h -0.8 c -1.5,0.6 -2.4,0.934 -2.7,1 v -0.95 l -12.15,2.15 c 0.167,0.433 0.3,0.867 0.4,1.3 2.467,11.534 -0.65,21.5 -9.35,29.9 0.6,0.267 1.167,0.617 1.7,1.05 z m 1.3,-128.25 -12.1,5.3 c 2.467,1 4.8,2.467 7,4.4 17.533,-3.034 24.25,6.533 20.15,28.7 -1.567,8.5 -5.4,15.85 -11.5,22.05 l 11.05,-0.45 3.1,-5.05 c 6.633,-17.567 5.95,-34.784 -2.05,-51.65 5.467,-6.233 10.917,-8.2 16.35,-5.9 l -0.55,-0.75 3.3,-1.65 0.45,-1.15 -4.35,-5.65 -3.85,-1.4 c 1.733,-14.233 -1.9,-26.483 -10.9,-36.75 -1.933,-1.533 -4.083,-2.75 -6.45,-3.65 -0.767,-0.267 -1.533,-0.5 -2.3,-0.7 -1.533,-0.367 -3.133,-0.633 -4.8,-0.8 -0.967,-0.066 -1.95,-0.1 -2.95,-0.1 -4.767,0 -8.466,1.367 -11.1,4.1 1.566,0.767 3.05,1.7 4.45,2.8 l 1.05,-0.8 c 21.9,0.4 32.167,12.467 30.8,36.2 -5.6,2.9 -10.383,6.917 -14.35,12.05 l -3.4,-0.35 c -2.233,0.1 -4.583,0.5 -7.05,1.2 z m -26.55,97.1 c 0.567,-0.2 1.15,-0.4 1.75,-0.6 7,-2.633 14.167,-4.2 21.5,-4.7 6.934,-27.3 -3.133,-35.7 -30.2,-25.2 0.433,0.633 0.85,1.3 1.25,2 4.833,8.066 5.55,16.533 2.15,25.4 z m 2,-93.1 c 1.367,-0.133 2.75,-0.2 4.15,-0.2 1.434,-17.167 -4.633,-30.966 -18.2,-41.4 -0.467,-0.4 -0.967,-0.767 -1.5,-1.1 -1.6,-0.933 -3.283,-1.733 -5.05,-2.4 -0.933,-0.333 -1.883,-0.633 -2.85,-0.9 -2.267,-0.567 -4.633,-0.933 -7.1,-1.1 -11.867,0.1 -21.333,5.217 -28.4,15.35 -0.6,0.867 -1.2,1.733 -1.8,2.6 0.767,-0.033 1.567,-0.05 2.4,-0.05 3.333,0 6.6,0.7 9.8,2.1 3.433,-2.5 7.1,-4.3 11,-5.4 24.4,-6.6 36.917,4.233 37.55,32.5 z m -131.35,-53 c -0.167,-0.033 -0.316,-0.083 -0.45,-0.15 -1.6,-0.434 -3.233,-0.8 -4.9,-1.1 -16.367,-3.533 -29.9,0.85 -40.6,13.15 -0.434,0.533 -0.817,1.083 -1.15,1.65 l -1.9,5.55 8.4,1.35 c 27.933,-20.4 49.933,-14.684 66,17.15 0.267,0.566 0.383,1.2 0.35,1.9 -19.367,-3.267 -32.9,3.133 -40.6,19.2 l -3.4,-0.95 c -1.3,-0.3 -2.6,-0.6 -3.9,-0.9 -18.167,-4.2 -30.483,2.117 -36.95,18.95 l 10.3,0.5 c 21.033,-17.433 38.4,-13.95 52.1,10.45 0.467,0.833 0.917,1.667 1.35,2.5 -10.133,1.833 -17.6,7.45 -22.4,16.85 l 10.4,5.05 c 0.633,-0.633 1.283,-1.25 1.95,-1.85 21.533,-18.733 37.25,-14.917 47.15,11.45 1.067,0.267 2.117,0.567 3.15,0.9 0,-8.767 -2.2,-16.267 -6.6,-22.5 -4.434,-6.2 -9.767,-9.3 -16,-9.3 l -9.05,-1.05 h -2.3 c -0.067,-0.667 -0.15,-1.35 -0.25,-2.05 -1.667,-12.167 -8.25,-20.75 -19.75,-25.75 0.367,-0.367 0.767,-0.717 1.2,-1.05 25.933,-19.6 45.216,-15.567 57.85,12.1 2.6,0.233 5.05,0.6 7.35,1.1 -1.8,-10.6 -6.833,-19.333 -15.1,-26.2 -0.466,-0.367 -0.933,-0.733 -1.4,-1.1 -1.633,-1.167 -3.35,-2.2 -5.15,-3.1 l -3.45,-1.5 c -1.066,-17.633 -9.483,-30.5 -25.25,-38.6 -2.233,-1.067 -4.567,-1.95 -7,-2.65 z m 107.9,184.25 -3.7,-3 c -13,-5.233 -25.967,-4.667 -38.9,1.7 -0.667,0.367 -1.333,0.733 -2,1.1 l -3.35,1.85 -0.95,-0.1 v 1 l 1.15,-0.8 c 12.8,6.8 24.033,15.65 33.7,26.55 14.3,-5.4 19.167,-14.517 14.6,-27.35 -0.133,-0.333 -0.317,-0.65 -0.55,-0.95 z"
   id="path10"
   inkscape:connector-curvature="0" />
			<path
   style="clip-rule:evenodd;fill:#b8b398;fill-rule:evenodd"
   d="m 372.8,-223.1 c -5.3,-6.566 -12.1,-8.316 -20.4,-5.25 -0.667,0.3 -1.333,0.6 -2,0.9 2.467,8.467 0.684,15.95 -5.35,22.45 l 4.6,3.5 12.15,-2.15 c 4.567,-5.033 8.034,-10.667 10.4,-16.9 0.3,-0.8 0.5,-1.65 0.6,-2.55 z m -25.55,-13.95 c -1.033,0.2 -2.05,0.45 -3.05,0.75 l 1.55,1.55 z m -9.1,-11.3 c 4,-23.667 -4.833,-34.167 -26.5,-31.5 -3.667,0.3 -7.05,1.517 -10.15,3.65 6.3,12.6 7.4,25.667 3.3,39.2 l 1.65,1.6 c 7.867,-8.567 17.267,-10.767 28.2,-6.6 z m -109.5,-52.3 c 0.467,0.367 0.934,0.733 1.4,1.1 8.267,6.867 13.3,15.6 15.1,26.2 l 8.55,2.95 c 9.667,-10.867 21.35,-15.35 35.05,-13.45 -0.033,-0.4 -0.133,-0.783 -0.3,-1.15 -13.867,-29.433 -33.8,-34.65 -59.8,-15.65 z"
   id="path12"
   inkscape:connector-curvature="0" />
			<path
   style="clip-rule:evenodd;fill:#e9e7ec;fill-rule:evenodd"
   d="m 361.8,-203.65 c 0.9,-0.033 1.8,-0.05 2.7,-0.05 h 0.8 c 6.534,-5.2 9.233,-11.167 8.1,-17.9 -0.1,-0.533 -0.3,-1.033 -0.6,-1.5 -0.1,0.9 -0.3,1.75 -0.6,2.55 -2.367,6.233 -5.833,11.867 -10.4,16.9 z m -44.65,3.25 -3.55,-3.1 c 3.4,-8.867 2.683,-17.333 -2.15,-25.4 -0.4,-0.7 -0.817,-1.367 -1.25,-2 27.066,-10.5 37.133,-2.1 30.2,25.2 1.8,0.067 3.35,0.3 4.65,0.7 6.034,-6.5 7.817,-13.983 5.35,-22.45 0.667,-0.3 1.333,-0.6 2,-0.9 8.3,-3.066 15.1,-1.316 20.4,5.25 0.067,-8.167 -3.883,-12.867 -11.85,-14.1 -0.767,-0.1 -1.534,-0.2 -2.3,-0.3 -0.6,0.767 -1.217,1.367 -1.85,1.8 0.434,-0.433 0.934,-1.033 1.5,-1.8 l -11.05,0.45 -1.5,2.3 -1.55,-1.55 -2.35,-1.95 c 12.367,-17.333 11.283,-33.85 -3.25,-49.55 -2.2,-1.934 -4.533,-3.4 -7,-4.4 -2.6,-1 -5.367,-1.5 -8.3,-1.5 -1.4,0 -2.783,0.067 -4.15,0.2 -4.933,0.467 -9.5,1.817 -13.7,4.05 -3.967,2.133 -7.25,4.85 -9.85,8.15 -0.233,0.3 -0.467,0.617 -0.7,0.95 -0.066,0.633 -0.1,1.184 -0.1,1.65 h -1 c 0.367,-0.566 0.733,-1.117 1.1,-1.65 0.033,-0.367 0.1,-0.783 0.2,-1.25 0.066,-16.333 -7.45,-29 -22.55,-38 -0.633,-0.367 -1.283,-0.7 -1.95,-1 -3.2,-1.4 -6.467,-2.1 -9.8,-2.1 -0.833,0 -1.633,0.017 -2.4,0.05 -0.566,0.033 -1.117,0.066 -1.65,0.1 -2.367,0.167 -4.683,0.5 -6.95,1 -4.966,1.133 -9.633,3.033 -14,5.7 -5.367,3.267 -9.466,7.3 -12.3,12.1 1.8,0.9 3.517,1.933 5.15,3.1 26,-19 45.934,-13.783 59.8,15.65 0.167,0.367 0.267,0.75 0.3,1.15 -13.7,-1.9 -25.383,2.583 -35.05,13.45 l -8.55,-2.95 c -2.3,-0.5 -4.75,-0.867 -7.35,-1.1 -14.133,-1.466 -25.767,3.35 -34.9,14.45 -0.633,0.767 -1.25,1.533 -1.85,2.3 l 9.05,1.05 c 26.6,-17.267 45.167,-10.783 55.7,19.45 -0.6,-0.267 -1.216,-0.466 -1.85,-0.6 -13.2,-3.567 -23.55,0.783 -31.05,13.05 1.233,0.467 2.434,1 3.6,1.6 20.567,-13.867 33.95,-7.033 40.15,20.5 0.067,0.333 0.1,0.667 0.1,1 1.033,0.3 2.05,0.633 3.05,1 2.434,-9.5 0.967,-18.434 -4.4,-26.8 -0.5,-0.767 -1.033,-1.533 -1.6,-2.3 24.667,-10.533 36.7,-2.4 36.1,24.4 -8.667,1.067 -17.25,3.35 -25.75,6.85 l 6.1,4.85 c 26.3,-6.667 33.067,3.133 20.3,29.4 -0.267,0.567 -0.566,1.1 -0.9,1.6 1.067,0.033 2.067,0.1 3,0.2 10.533,-12.566 12.217,-24.966 5.05,-37.2 -0.167,-0.267 -0.35,-0.517 -0.55,-0.75 z m 21,-47.95 -3.5,6.35 c -10.933,-4.167 -20.333,-1.967 -28.2,6.6 l -1.65,-1.6 c 4.1,-13.533 3,-26.6 -3.3,-39.2 3.1,-2.133 6.483,-3.35 10.15,-3.65 21.667,-2.667 30.5,7.833 26.5,31.5 z m -68,14.6 c 2.2,-11.667 -0.566,-21.983 -8.3,-30.95 0.833,-0.5 1.683,-0.983 2.55,-1.45 26.333,-12.934 38.117,-4.367 35.35,25.7 -11.333,-4.3 -20.667,-1.533 -28,8.3 z"
   id="path14"
   inkscape:connector-curvature="0" />
			<path
   style="clip-rule:evenodd;fill:#8caaa8;fill-rule:evenodd"
   d="m 385.8,-313.7 -2.9,0.2 -8.35,4.2 4.35,5.65 c 0.1,0.267 0.184,0.533 0.25,0.8 6.6,23.467 0.684,43.567 -17.75,60.3 -0.833,2.133 -1.75,3.816 -2.75,5.05 0.767,0.1 1.533,0.2 2.3,0.3 7.966,1.233 11.917,5.934 11.85,14.1 0.3,0.467 0.5,0.967 0.6,1.5 1.133,6.733 -1.566,12.7 -8.1,17.9 1.934,0.034 3.733,0.267 5.4,0.7 12.433,-16.667 18.283,-35.383 17.55,-56.15 l -1.85,0.95 c 0.8,-1.233 1.6,-2.483 2.4,-3.75 10.934,-17.333 10.758,-34.45 -0.525,-51.35 -0.783,-0.233 -1.608,-0.367 -2.475,-0.4 z m 4.35,41.05 c 0.533,0.133 0.383,1.633 -0.45,4.5 0.167,-1.467 0.317,-2.967 0.45,-4.5 z M 218.2,-391.15 c -2.233,-1.3 -4.833,-2.317 -7.8,-3.05 -0.867,-0.2 -1.75,-0.4 -2.65,-0.6 -1.3,-0.2 -2.633,-0.383 -4,-0.55 -13.933,-1.5 -25.417,3.233 -34.45,14.2 -0.4,0.5 -0.8,1 -1.2,1.5 2.3,0.767 4.383,1.65 6.25,2.65 22.4,-19.333 38.467,-15.467 48.2,11.6 0.1,0.233 0.167,0.467 0.2,0.7 -15.2,-0.767 -26.85,5.3 -34.95,18.2 2.434,0.7 4.767,1.583 7,2.65 3.6,-4.733 8.217,-7.85 13.85,-9.35 29.667,-7.6 43.383,2.95 41.15,31.65 2.267,-0.5 4.583,-0.833 6.95,-1 4.267,-18.3 -1.3,-31.5 -16.7,-39.6 -0.6,-0.333 -1.25,-0.6 -1.95,-0.8 -1.934,-0.5 -4.033,-0.9 -6.3,-1.2 l -3,-0.3 c 1.167,-10.066 -1.75,-18.466 -8.75,-25.2 -0.567,-0.567 -1.183,-1.067 -1.85,-1.5 z"
   id="path16"
   inkscape:connector-curvature="0" />
			<path
   style="clip-rule:evenodd;fill:#c1acac;fill-rule:evenodd"
   d="m 290.25,-193.65 c 7.033,9.1 7.867,18.2 2.5,27.3 -0.233,0.4 -0.483,0.767 -0.75,1.1 l 3.7,3 13.95,-0.4 c 0.333,-0.5 0.633,-1.033 0.9,-1.6 12.767,-26.267 6,-36.067 -20.3,-29.4 z"
   id="path18"
   inkscape:connector-curvature="0" />
			<path
   style="clip-rule:evenodd;fill:#a3a1a2;fill-rule:evenodd"
   d="m 193.3,-210.1 c -0.066,0 -0.15,-0.033 -0.25,-0.1 -14.267,-5.566 -26.017,-2.517 -35.25,9.15 -0.367,0.466 -0.667,0.966 -0.9,1.5 0.067,0.966 0.05,1.867 -0.05,2.7 6.467,1.934 12.917,3.9 19.35,5.9 25.033,7.6 48.883,17.717 71.55,30.35 l 3.35,-1.85 c 2.167,-10.533 0.267,-20.183 -5.7,-28.95 -0.367,-0.567 -0.767,-1.117 -1.2,-1.65 -0.467,0.433 -0.934,0.883 -1.4,1.35 0.034,-0.4 0.217,-1.133 0.55,-2.2 -15.033,-8.367 -27.417,-5.533 -37.15,8.5 0.066,-0.3 0.117,-0.6 0.15,-0.9 1.2,-11.033 -3.15,-18.967 -13.05,-23.8 z m 76.85,-23.65 1.6,1.6 c 7.333,-9.833 16.667,-12.6 28,-8.3 2.767,-30.066 -9.017,-38.633 -35.35,-25.7 -0.867,0.467 -1.717,0.95 -2.55,1.45 7.733,8.967 10.5,19.283 8.3,30.95 z"
   id="path20"
   inkscape:connector-curvature="0" />
			<path
   style="clip-rule:evenodd;fill:#668985;fill-rule:evenodd"
   d="m 347.25,-237.05 c 6.1,-6.2 9.933,-13.55 11.5,-22.05 4.1,-22.167 -2.617,-31.733 -20.15,-28.7 14.533,15.7 15.617,32.216 3.25,49.55 l 2.35,1.95 c 1,-0.3 2.017,-0.55 3.05,-0.75 z m -3.55,-60.45 c 7.033,-27.5 -3.284,-41.767 -30.95,-42.8 -3.633,-0.267 -6.683,1.1 -9.15,4.1 0.533,0.333 1.033,0.7 1.5,1.1 13.566,10.434 19.633,24.233 18.2,41.4 2.934,0 5.7,0.5 8.3,1.5 z m 39.2,-16 c 5.233,-21.867 -0.55,-34.35 -17.35,-37.45 -2.066,-0.267 -3.983,0.9 -5.75,3.5 9,10.267 12.633,22.517 10.9,36.75 l 3.85,1.4 z m -125.55,-89.8 c 0.367,-0.367 0.783,-0.684 1.25,-0.95 23.967,-13.733 38.367,-7.817 43.2,17.75 2.467,0.267 4.8,0.783 7,1.55 1.167,-11.9 -2.283,-22.133 -10.35,-30.7 0.466,-0.333 0.983,-0.533 1.55,-0.6 19.067,-5.133 28.983,3.717 29.75,26.55 h 1.85 c 0.033,-0.066 0.066,-0.15 0.1,-0.25 0,0.1 0,0.184 0,0.25 8.933,0.333 14.767,5.75 17.5,16.25 1.367,5.233 1.983,12.45 1.85,21.65 0.767,0.2 1.534,0.433 2.3,0.7 0.433,-0.767 0.85,-1.55 1.25,-2.35 2.367,-4.733 5.95,-7.483 10.75,-8.25 3.267,-22.667 -6.733,-33.566 -30,-32.7 -1.967,0.1 -3.184,1.583 -3.65,4.45 1.167,-29.367 -10.55,-40.417 -35.15,-33.15 -0.667,0.233 -1.283,0.583 -1.85,1.05 l -0.05,3.85 -2.85,-1.05 c -0.767,-0.167 -1.55,-0.3 -2.35,-0.4 -13.167,-0.333 -25.3,3.15 -36.4,10.45 -0.767,0.467 -1.517,0.95 -2.25,1.45 z m -55.7,-17.6 c -0.033,0.4 -0.066,0.733 -0.1,1 l 2.8,2.8 c 0.4,-0.4 0.816,-0.8 1.25,-1.2 17.767,-16.534 31.017,-13.8 39.75,8.2 0.8,0.3 1.617,0.617 2.45,0.95 2.3,-8.467 0.467,-15.867 -5.5,-22.2 -0.466,-0.5 -0.966,-0.983 -1.5,-1.45 l -0.85,-0.65 c -0.267,-0.2 -0.55,-0.316 -0.85,-0.35 -14.633,-3.133 -27.117,1.167 -37.45,12.9 z"
   id="path22"
   inkscape:connector-curvature="0" />
			<path
   style="clip-rule:evenodd;fill:#97adab;fill-rule:evenodd"
   d="m 361.4,-242.55 c 18.434,-16.733 24.35,-36.833 17.75,-60.3 -0.066,-0.267 -0.15,-0.533 -0.25,-0.8 l -0.45,1.15 -3.3,1.65 0.55,0.75 c -5.434,-2.3 -10.883,-0.333 -16.35,5.9 8,16.867 8.683,34.083 2.05,51.65 z"
   id="path24"
   inkscape:connector-curvature="0" />
			<path
   style="clip-rule:evenodd;fill:#86999f;fill-rule:evenodd"
   d="m 238.1,-362.95 c 18.833,-16.233 35.1,-11.783 48.8,13.35 1.567,2.833 2.133,5.833 1.7,9 2.467,0.167 4.833,0.533 7.1,1.1 3.333,-14.633 -1.45,-25.633 -14.35,-33 -0.533,-0.267 -1.083,-0.533 -1.65,-0.8 24.466,-14.4 40.133,-6.75 47,22.95 -11.8,-1.633 -21.184,2.283 -28.15,11.75 1.767,0.667 3.45,1.467 5.05,2.4 2.467,-3 5.517,-4.367 9.15,-4.1 27.667,1.033 37.983,15.3 30.95,42.8 2.466,-0.7 4.816,-1.1 7.05,-1.2 3.233,-17.466 -1.05,-32.767 -12.85,-45.9 -0.4,-0.433 -0.816,-0.833 -1.25,-1.2 -1.4,-1.1 -2.883,-2.034 -4.45,-2.8 l -2.75,-1.05 c 1.4,-13.9 -3.7,-24.833 -15.3,-32.8 0.2,-0.2 0.417,-0.3 0.65,-0.3 21.467,-3.467 31.95,6.583 31.45,30.15 1.667,0.167 3.267,0.434 4.8,0.8 0.133,-9.2 -0.483,-16.417 -1.85,-21.65 -2.733,-10.5 -8.567,-15.917 -17.5,-16.25 -0.034,0.034 -0.067,0.034 -0.1,0 h -1.85 c -6.7,-0.233 -12.517,1.85 -17.45,6.25 l -3.5,-1.5 c -2.2,-0.767 -4.533,-1.283 -7,-1.55 -11.7,-2 -21.05,1.683 -28.05,11.05 l -2.05,-0.5 c -0.067,-0.633 -0.15,-1.267 -0.25,-1.9 -1.4,-10.4 -6.1,-18.883 -14.1,-25.45 l -6.55,-4.45 c -1,-0.5 -2,-0.967 -3,-1.4 -0.833,-0.333 -1.65,-0.65 -2.45,-0.95 -13.733,-2.533 -25.033,2.383 -33.9,14.75 -0.333,0.4 -0.684,0.783 -1.05,1.15 2.967,0.733 5.567,1.75 7.8,3.05 20.233,-19.533 36.5,-15.317 48.8,12.65 0.233,0.567 0.417,1.133 0.55,1.7 -15.1,-3.733 -27.017,0.483 -35.75,12.65 2.267,0.3 4.367,0.7 6.3,1.2 z m 115.25,11.85 c 2.367,0.9 4.517,2.117 6.45,3.65 1.767,-2.6 3.684,-3.767 5.75,-3.5 16.8,3.1 22.583,15.583 17.35,37.45 l 2.9,-0.2 c 2.8,-22.066 -3.683,-37.966 -19.45,-47.7 -0.3,-0.167 -0.633,-0.267 -1,-0.3 -4.8,0.767 -8.383,3.517 -10.75,8.25 -0.4,0.8 -0.817,1.583 -1.25,2.35 z M 159,-400.4 l 5.05,2.5 c 2,-3.967 4.684,-7.45 8.05,-10.45 17.433,-15.5 27.983,-11.167 31.65,13 1.367,0.167 2.7,0.35 4,0.55 0.033,-1.633 0.05,-3.767 0.05,-6.4 0,-7.2 -1.15,-12.5 -3.45,-15.9 l -2.8,-2.8 c -0.167,-0.1 -0.316,-0.2 -0.45,-0.3 -0.567,-0.3 -1.133,-0.517 -1.7,-0.65 -17.7,-3.233 -31.167,3.583 -40.4,20.45 z"
   id="path26"
   inkscape:connector-curvature="0" />
			<path
   style="clip-rule:evenodd;fill:#71898e;fill-rule:evenodd"
   d="m 295.6,-281.3 c 2.6,-3.3 5.883,-6.017 9.85,-8.15 4.2,-2.233 8.767,-3.583 13.7,-4.05 -0.633,-28.267 -13.15,-39.1 -37.55,-32.5 -3.9,1.1 -7.567,2.9 -11,5.4 0.667,0.3 1.316,0.633 1.95,1 15.1,9 22.617,21.667 22.55,38 0.167,0.1 0.333,0.2 0.5,0.3 z m 55.15,-17.4 3.4,0.35 c 3.967,-5.133 8.75,-9.15 14.35,-12.05 1.367,-23.733 -8.9,-35.8 -30.8,-36.2 l -1.05,0.8 c 0.434,0.367 0.85,0.767 1.25,1.2 11.8,13.133 16.083,28.433 12.85,45.9 z m -186.7,-99.2 -5.05,-2.5 c -18.867,-2.667 -34.217,3.566 -46.05,18.7 -0.5,0.034 -1,0.067 -1.5,0.1 -7.267,0.733 -13.833,3.267 -19.7,7.6 l -16.6,23.05 c -0.367,0.6 -0.733,1.184 -1.1,1.75 1.367,0.934 2.583,2.25 3.65,3.95 2.133,-7.633 6.216,-13.883 12.25,-18.75 16.3,-13.167 26.483,-11.55 30.55,4.85 l 8.1,1.7 c 22.733,-24.466 40.433,-22.117 53.1,7.05 0.367,0.833 0.617,1.717 0.75,2.65 1.667,0.3 3.3,0.667 4.9,1.1 2.1,-12.934 -2.083,-22.95 -12.55,-30.05 -0.167,-0.1 -0.316,-0.2 -0.45,-0.3 -1.867,-1 -3.95,-1.883 -6.25,-2.65 l -1.35,-0.4 c 3.167,-6 2.6,-11.6 -1.7,-16.8 -0.3,-0.367 -0.633,-0.717 -1,-1.05 z m -3.5,16.25 c -15.066,-4.233 -26.55,0.2 -34.45,13.3 1.8,-3.2 1.85,-6.3 0.15,-9.3 -1.033,-1.767 -2.683,-2.833 -4.95,-3.2 3.034,-4.033 6.75,-7.167 11.15,-9.4 15.633,-7.7 25.633,-4.65 30,9.15 -0.667,-0.133 -1.3,-0.317 -1.9,-0.55 z"
   id="path28"
   inkscape:connector-curvature="0" />
			<path
   style="clip-rule:evenodd;fill:#58777b;fill-rule:evenodd"
   d="m 298.55,-338.6 c 6.967,-9.467 16.35,-13.383 28.15,-11.75 -6.867,-29.7 -22.534,-37.35 -47,-22.95 0.566,0.267 1.117,0.533 1.65,0.8 12.9,7.367 17.683,18.367 14.35,33 0.967,0.267 1.917,0.567 2.85,0.9 z m -9.95,-2 c 0.433,-3.167 -0.133,-6.167 -1.7,-9 -13.7,-25.133 -29.967,-29.583 -48.8,-13.35 0.7,0.2 1.35,0.467 1.95,0.8 15.4,8.1 20.967,21.3 16.7,39.6 0.533,-0.034 1.083,-0.067 1.65,-0.1 0.6,-0.867 1.2,-1.733 1.8,-2.6 7.067,-10.133 16.533,-15.25 28.4,-15.35 z m 43.6,-8 c 2.633,-2.733 6.333,-4.1 11.1,-4.1 1,0 1.983,0.034 2.95,0.1 0.5,-23.566 -9.983,-33.617 -31.45,-30.15 -0.233,0 -0.45,0.1 -0.65,0.3 11.6,7.967 16.7,18.9 15.3,32.8 z"
   id="path30"
   inkscape:connector-curvature="0" />
			<path
   style="clip-rule:evenodd;fill:#48626f;fill-rule:evenodd"
   d="m 156.3,-430.6 c -0.566,0.367 -1.142,0.733 -1.725,1.1 l -21.975,15.95 c 6.833,-4.633 14.333,-7.667 22.5,-9.1 10.9,-15.434 24.417,-22.117 40.55,-20.05 4.633,-3.267 9.55,-6.183 14.75,-8.75 22.867,-11.066 32.717,-5.066 29.55,18 l 0.85,0.65 c 5.534,-5.4 11.9,-8.967 19.1,-10.7 21.3,-5.033 31.15,2.917 29.55,23.85 0.8,0.1 1.583,0.233 2.35,0.4 l 2.9,-2.8 c 0.566,-0.467 1.183,-0.817 1.85,-1.05 24.6,-7.267 36.317,3.783 35.15,33.15 0.466,-2.867 1.683,-4.35 3.65,-4.45 23.267,-0.867 33.267,10.033 30,32.7 0.367,0.034 0.7,0.133 1,0.3 15.767,9.733 22.25,25.633 19.45,47.7 0.867,0.034 1.692,0.167 2.475,0.4 8.217,-19.833 5.175,-37.167 -9.125,-52 2.067,-19.267 -4.4,-28.317 -19.4,-27.15 l -0.95,-1.6 c -0.333,-0.567 -0.667,-1.117 -1,-1.65 -8,-13.167 -16.841,-24.483 -26.525,-33.95 -0.25,-0.267 -0.517,-0.525 -0.8,-0.775 -5.117,-4.917 -10.458,-9.325 -16.025,-13.225 -8.867,-6.2 -18.159,-10.967 -27.875,-14.3 -0.417,-0.133 -0.833,-0.275 -1.25,-0.425 -10.85,-3.55 -22.192,-5.325 -34.025,-5.325 -3.7,0 -7.525,0.217 -11.475,0.65 -0.25,0.033 -0.483,0.058 -0.7,0.075 -13.683,1.617 -28.7,5.858 -45.05,12.725 -0.25,0.1 -0.492,0.2 -0.725,0.3 -10.167,4.2 -20,9.117 -29.5,14.75 -2.533,1.533 -5.05,3.067 -7.55,4.6 z m 31.05,83.95 c 0.133,0.066 0.283,0.117 0.45,0.15 8.1,-12.9 19.75,-18.967 34.95,-18.2 -0.033,-0.233 -0.1,-0.466 -0.2,-0.7 -9.733,-27.067 -25.8,-30.934 -48.2,-11.6 0.133,0.1 0.283,0.2 0.45,0.3 10.467,7.1 14.65,17.117 12.55,30.05 z m 7.45,2.8 c 15.767,8.1 24.184,20.967 25.25,38.6 l 3.45,1.5 c 2.833,-4.8 6.933,-8.833 12.3,-12.1 4.367,-2.667 9.034,-4.566 14,-5.7 2.233,-28.7 -11.483,-39.25 -41.15,-31.65 -5.633,1.5 -10.25,4.617 -13.85,9.35 z"
   id="path32"
   inkscape:connector-curvature="0" />
			<path
   style="clip-rule:evenodd;fill:#3b5d5f;fill-rule:evenodd"
   d="M 75.15,-350.95 91.75,-374 c -0.767,0.567 -1.533,1.133 -2.3,1.7 -8.3,6.4 -14.784,14.3 -19.45,23.7 -0.2,0.434 -0.383,0.85 -0.55,1.25 l 3.1,-2.6 c -0.033,0 -0.05,-0.017 -0.05,-0.05 l 0.1,0.05 z m 254.6,-38.75 c -0.767,-22.833 -10.683,-31.683 -29.75,-26.55 -0.567,0.067 -1.083,0.267 -1.55,0.6 8.066,8.566 11.517,18.8 10.35,30.7 l 3.5,1.5 c 4.933,-4.4 10.75,-6.483 17.45,-6.25 z m -125.4,-27.4 c 2.3,3.4 3.45,8.7 3.45,15.9 0,2.633 -0.017,4.767 -0.05,6.4 0.9,0.2 1.783,0.4 2.65,0.6 0.367,-0.367 0.717,-0.75 1.05,-1.15 8.867,-12.367 20.167,-17.283 33.9,-14.75 -8.733,-22 -21.983,-24.733 -39.75,-8.2 -0.433,0.4 -0.85,0.8 -1.25,1.2 z m -75.75,59.65 c 0.6,0.267 1.167,0.583 1.7,0.95 8.1,5.2 11.567,13.05 10.4,23.55 0.333,-0.566 0.716,-1.117 1.15,-1.65 10.7,-12.3 24.233,-16.683 40.6,-13.15 -0.133,-0.933 -0.383,-1.817 -0.75,-2.65 -12.667,-29.167 -30.367,-31.517 -53.1,-7.05 z m 166.1,-64.6 -2.9,2.8 2.85,1.05 z"
   id="path34"
   inkscape:connector-curvature="0" />
			<path
   style="clip-rule:evenodd;fill:#405256;fill-rule:evenodd"
   d="m 247.8,-409.15 c 1,0.433 2,0.9 3,1.4 0.733,-0.5 1.483,-0.983 2.25,-1.45 11.1,-7.3 23.233,-10.783 36.4,-10.45 1.6,-20.934 -8.25,-28.883 -29.55,-23.85 -7.2,1.733 -13.566,5.3 -19.1,10.7 0.534,0.466 1.034,0.95 1.5,1.45 5.967,6.333 7.8,13.733 5.5,22.2 z m -46.15,-11.75 c 10.333,-11.733 22.817,-16.033 37.45,-12.9 0.3,0.033 0.583,0.15 0.85,0.35 3.167,-23.066 -6.684,-29.066 -29.55,-18 -5.2,2.567 -10.117,5.483 -14.75,8.75 -16.133,-2.066 -29.65,4.617 -40.55,20.05 -8.167,1.433 -15.667,4.467 -22.5,9.1 l 21.975,-15.95 -0.575,-1.2 c -17.067,1.667 -28.483,10.633 -34.25,26.9 -25.3,10.367 -41.883,28.767 -49.75,55.2 4.667,-9.4 11.15,-17.3 19.45,-23.7 0.767,-0.567 1.533,-1.133 2.3,-1.7 5.867,-4.333 12.433,-6.867 19.7,-7.6 0.5,-0.033 1,-0.066 1.5,-0.1 11.833,-15.133 27.183,-21.367 46.05,-18.7 9.233,-16.867 22.7,-23.684 40.4,-20.45 0.567,0.133 1.133,0.35 1.7,0.65 0.167,-0.233 0.35,-0.467 0.55,-0.7 z m 37.475,-42.075 c -15.65,-8.017 -29.692,-4.908 -42.125,9.325 -0.967,1.133 -1.942,2.267 -2.925,3.4 16.35,-6.867 31.367,-11.108 45.05,-12.725 z M 156.3,-430.6 c 2.5,-1.533 5.017,-3.066 7.55,-4.6 9.5,-5.633 19.333,-10.55 29.5,-14.75 -14.9,-5.466 -26.65,-0.167 -35.25,15.9 -0.6,1.167 -1.2,2.317 -1.8,3.45 z m 130.275,-27.35 c 9.716,3.333 19.008,8.1 27.875,14.3 5.566,3.9 10.908,8.308 16.025,13.225 -3.883,-24.717 -18.008,-34.342 -42.375,-28.875 -0.667,0.1 -1.309,0.292 -1.925,0.575 -11.417,-14.75 -26.191,-16.592 -44.325,-5.525 -0.667,0.433 -1.342,0.833 -2.025,1.2 3.95,-0.434 7.775,-0.65 11.475,-0.65 11.833,0 23.175,1.775 34.025,5.325 0.283,-0.117 0.566,-0.233 0.85,-0.35 0.15,0.25 0.283,0.508 0.4,0.775 z m 44.7,28.3 c 9.684,9.467 18.525,20.783 26.525,33.95 0.333,0.534 0.667,1.083 1,1.65 1.267,-21.333 -7.383,-33.217 -25.95,-35.65 -0.5,-0.1 -1.025,-0.083 -1.575,0.05 z M 301.8,-386.5 c -4.833,-25.567 -19.233,-31.483 -43.2,-17.75 -0.467,0.267 -0.883,0.583 -1.25,0.95 8,6.566 12.7,15.05 14.1,25.45 0.1,0.633 0.183,1.267 0.25,1.9 l 2.05,0.5 c 7,-9.367 16.35,-13.05 28.05,-11.05 z m -224.1,41.25 4.45,11.7 c 0.5,-1 0.967,-2.017 1.4,-3.05 7.1,-17.5 19.417,-25.017 36.95,-22.55 -4.067,-16.4 -14.25,-18.017 -30.55,-4.85 -6.033,4.867 -10.117,11.117 -12.25,18.75 z m 82.85,-36.4 c 0.6,0.233 1.233,0.417 1.9,0.55 -4.367,-13.8 -14.367,-16.85 -30,-9.15 -4.4,2.233 -8.117,5.367 -11.15,9.4 2.267,0.367 3.917,1.434 4.95,3.2 1.7,3 1.65,6.1 -0.15,9.3 7.9,-13.1 19.383,-17.533 34.45,-13.3 z"
   id="path36"
   inkscape:connector-curvature="0" />
			<path
   style="clip-rule:evenodd;fill:#aba09e;fill-rule:evenodd"
   d="m 229.55,-225.75 c -14.566,-2.7 -26.333,2.05 -35.3,14.25 -0.333,0.467 -0.65,0.933 -0.95,1.4 9.9,4.833 14.25,12.767 13.05,23.8 -0.033,0.3 -0.083,0.6 -0.15,0.9 9.733,-14.033 22.117,-16.867 37.15,-8.5 5.967,-11.333 4.05,-20.833 -5.75,-28.5 -0.333,-0.267 -0.7,-0.517 -1.1,-0.75 -1.167,-0.6 -2.367,-1.133 -3.6,-1.6 -0.133,0.167 -0.25,0.317 -0.35,0.45 0.067,-0.167 0.117,-0.35 0.15,-0.55 0.066,0.033 0.133,0.067 0.2,0.1 7.5,-12.267 17.85,-16.617 31.05,-13.05 0.633,0.133 1.25,0.333 1.85,0.6 -10.533,-30.233 -29.1,-36.716 -55.7,-19.45 6.233,0 11.566,3.1 16,9.3 4.4,6.233 6.6,13.733 6.6,22.5 -1.033,-0.333 -2.083,-0.633 -3.15,-0.9 z m -49.1,-9.6 -10.4,-5.05 c 4.8,-9.4 12.267,-15.017 22.4,-16.85 -0.434,-0.833 -0.883,-1.667 -1.35,-2.5 -13.7,-24.4 -31.067,-27.883 -52.1,-10.45 15.933,2.667 24.917,12.217 26.95,28.65 -0.8,-0.167 -1.6,-0.35 -2.4,-0.55 -15.066,-2.8 -26.316,1.633 -33.75,13.3 0.567,0.2 1.133,0.417 1.7,0.65 13.3,5.433 21.767,14.967 25.4,28.6 0.233,-0.534 0.533,-1.034 0.9,-1.5 9.233,-11.667 20.983,-14.717 35.25,-9.15 0.5,-1.333 0.75,-2.5 0.75,-3.5 0,-8.767 -4.45,-15.983 -13.35,-21.65 z"
   id="path38"
   inkscape:connector-curvature="0" />
			<path
   style="clip-rule:evenodd;fill:#939192;fill-rule:evenodd"
   d="m 129.7,-228.8 c -15.667,-1.8 -25.883,4.933 -30.65,20.2 l -1.2,-0.1 c -0.267,-0.633 -0.567,-1.25 -0.9,-1.85 -11.4,-21.567 -26.65,-25.55 -45.75,-11.95 -3.133,6.433 -1.867,11.117 3.8,14.05 0.5,0.233 1,0.467 1.5,0.7 20.6,39.133 53.183,56.2 97.75,51.2 17.133,-2.034 31.667,2.716 43.6,14.25 21.967,21.267 48.967,28.375 81,21.325 5.033,-4.783 6.033,-9.025 3,-12.725 h -1.05 c 0.267,-0.066 0.55,-0.15 0.85,-0.25 -9.667,-10.9 -20.9,-19.75 -33.7,-26.55 l -1.15,0.8 v -1 l 0.95,0.1 c -22.667,-12.633 -46.517,-22.75 -71.55,-30.35 -6.434,-2 -12.883,-3.966 -19.35,-5.9 0.1,-0.833 0.117,-1.733 0.05,-2.7 -3.633,-13.633 -12.1,-23.167 -25.4,-28.6 -0.567,-0.233 -1.133,-0.45 -1.7,-0.65 v 0.1 c -0.033,0 -0.067,-0.033 -0.1,-0.1 z m -64.1,-50.45 c 19.6,-1.2 31.65,7.567 36.15,26.3 0.2,-0.8 0.45,-1.6 0.75,-2.4 4.1,-11.033 12.483,-16.133 25.15,-15.3 -0.2,-7.767 -3.066,-14.083 -8.6,-18.95 -21.567,-19.067 -39.383,-15.617 -53.45,10.35 z"
   id="path40"
   inkscape:connector-curvature="0" />
			<path
   style="clip-rule:evenodd;fill:#a0909b;fill-rule:evenodd"
   d="m 65.6,-279.25 c -0.367,0.1 -0.717,0.233 -1.05,0.4 -12.566,4.133 -17.65,12.733 -15.25,25.8 l -2.35,3.25 c 0.466,9.667 1.883,18.767 4.25,27.3 19.1,-13.6 34.35,-9.617 45.75,11.95 0.333,0.6 0.633,1.216 0.9,1.85 l 1.2,0.1 c 4.767,-15.267 14.983,-22 30.65,-20.2 0.033,0 0.066,0 0.1,0 7.434,-11.667 18.684,-16.1 33.75,-13.3 0.8,0.2 1.6,0.383 2.4,0.55 -2.034,-16.434 -11.017,-25.983 -26.95,-28.65 l -10.3,-0.5 c -0.367,0.034 -0.717,0.05 -1.05,0.05 -12.667,-0.833 -21.05,4.267 -25.15,15.3 -0.3,0.8 -0.55,1.6 -0.75,2.4 -4.5,-18.733 -16.55,-27.5 -36.15,-26.3 z m 163.95,53.5 c -9.9,-26.367 -25.617,-30.183 -47.15,-11.45 -0.667,0.6 -1.316,1.217 -1.95,1.85 8.9,5.667 13.35,12.883 13.35,21.65 0,1 -0.25,2.167 -0.75,3.5 0.1,0.067 0.184,0.1 0.25,0.1 0.3,-0.467 0.617,-0.933 0.95,-1.4 8.967,-12.2 20.733,-16.95 35.3,-14.25 z"
   id="path42"
   inkscape:connector-curvature="0" />
			<path
   style="clip-rule:evenodd;fill:#9d9b9c;fill-rule:evenodd"
   d="m 128.7,-270.7 c 6.466,-16.833 18.783,-23.15 36.95,-18.95 1.3,0.3 2.6,0.6 3.9,0.9 -1.033,-14.967 -4.466,-25.333 -10.3,-31.1 -2.867,-2.8 -6.883,-4.867 -12.05,-6.2 l -8.4,-1.35 c -18.033,-3.2 -30.783,3.483 -38.25,20.05 -0.966,-3.433 -2.667,-6.4 -5.1,-8.9 -15.667,-16 -29.367,-12.65 -41.1,10.05 l -0.95,5.6 c -8.9,15.133 -11.05,32.067 -6.45,50.8 l 2.35,-3.25 c -2.4,-13.067 2.684,-21.667 15.25,-25.8 0.333,-0.167 0.684,-0.3 1.05,-0.4 14.066,-25.967 31.883,-29.417 53.45,-10.35 5.534,4.867 8.4,11.184 8.6,18.95 0.333,0 0.683,-0.017 1.05,-0.05 z m 109.1,-3.75 c -12.633,-27.667 -31.917,-31.7 -57.85,-12.1 -0.434,0.333 -0.833,0.683 -1.2,1.05 11.5,5 18.083,13.583 19.75,25.75 0.1,0.7 0.183,1.383 0.25,2.05 h 2.3 c 0.6,-0.767 1.217,-1.533 1.85,-2.3 9.133,-11.1 20.767,-15.917 34.9,-14.45 z"
   id="path44"
   inkscape:connector-curvature="0" />
			<path
   style="clip-rule:evenodd;fill:#b8a0a0;fill-rule:evenodd"
   d="m 276.75,-201.65 c 0,-0.333 -0.033,-0.667 -0.1,-1 -6.2,-27.533 -19.583,-34.367 -40.15,-20.5 0.4,0.233 0.767,0.483 1.1,0.75 9.8,7.667 11.717,17.167 5.75,28.5 0.3,0.3 0.583,0.583 0.85,0.85 0.6,-0.534 1.216,-1.083 1.85,-1.65 8.967,-7.567 19.2,-9.883 30.7,-6.95 z"
   id="path46"
   inkscape:connector-curvature="0" />
			<path
   style="clip-rule:evenodd;fill:#878265;fill-rule:evenodd"
   d="m 140.7,-332.95 c 1.167,-10.5 -2.3,-18.35 -10.4,-23.55 -0.533,-0.367 -1.1,-0.683 -1.7,-0.95 l -8.1,-1.7 c -17.533,-2.467 -29.85,5.05 -36.95,22.55 -0.433,1.033 -0.9,2.05 -1.4,3.05 l -4.45,-11.7 c -1.067,-1.7 -2.284,-3.017 -3.65,-3.95 0.367,-0.566 0.733,-1.15 1.1,-1.75 l -2.55,1 h -0.05 l -3.1,2.6 c -0.833,0.8 -1.617,1.633 -2.35,2.5 -11.367,12.8 -16.083,27.283 -14.15,43.45 l 1.4,-4.8 c 11.733,-22.7 25.433,-26.05 41.1,-10.05 2.433,2.5 4.133,5.467 5.1,8.9 7.467,-16.566 20.217,-23.25 38.25,-20.05 z"
   id="path48"
   inkscape:connector-curvature="0" />
			<path
   style="clip-rule:evenodd;fill:#9f9773;fill-rule:evenodd"
   d="m 169.55,-288.75 3.4,0.95 c 7.7,-16.067 21.233,-22.467 40.6,-19.2 0.034,-0.7 -0.083,-1.333 -0.35,-1.9 -16.067,-31.833 -38.067,-37.55 -66,-17.15 5.167,1.333 9.183,3.4 12.05,6.2 5.833,5.767 9.267,16.133 10.3,31.1 z"
   id="path50"
   inkscape:connector-curvature="0" />
			<path
   style="clip-rule:evenodd;fill:#385654;fill-rule:evenodd"
   d="m 203.75,-395.35 c -3.667,-24.167 -14.217,-28.5 -31.65,-13 -3.367,3 -6.05,6.483 -8.05,10.45 0.367,0.333 0.7,0.683 1,1.05 4.3,5.2 4.867,10.8 1.7,16.8 l 1.35,0.4 c 0.4,-0.5 0.8,-1 1.2,-1.5 9.033,-10.967 20.517,-15.7 34.45,-14.2 z m 14.45,4.2 c 0.667,0.433 1.283,0.933 1.85,1.5 7,6.733 9.917,15.133 8.75,25.2 l 3,0.3 c 8.733,-12.167 20.65,-16.383 35.75,-12.65 -0.133,-0.567 -0.316,-1.133 -0.55,-1.7 -12.3,-27.967 -28.567,-32.183 -48.8,-12.65 z"
   id="path52"
   inkscape:connector-curvature="0" />
		</g>
		<g
   id="g74">
			<path
   style="clip-rule:evenodd;fill:#1d3e43;fill-rule:evenodd"
   d="m 218.271,-128.713 c -0.32,-0.083 -0.576,-0.146 -0.77,-0.19 l 0.709,0.237 z m -44.878,18.974 c -0.06,-0.037 -0.104,-0.072 -0.13,-0.106 l -0.75,-0.29 c 0.247,0.113 0.54,0.245 0.88,0.396 z m 2.979,-15.105 c -0.007,-0.134 -0.014,-0.268 -0.022,-0.401 l -0.849,-0.294 c 0.187,0.076 0.478,0.308 0.871,0.695 z m 5.798,-23.263 c -0.074,-0.137 -0.117,-0.256 -0.131,-0.357 l -0.849,-0.294 c 0.313,0.115 0.64,0.333 0.98,0.651 z"
   id="path56"
   inkscape:connector-curvature="0" />
			
				<radialGradient
   id="SVGID_1_"
   cx="573.5"
   cy="-227.6499"
   r="172.4368"
   gradientTransform="matrix(0.998,0.052,-0.1954,0.9905,-463,46.4004)"
   gradientUnits="userSpaceOnUse">
				<stop
   offset="0"
   style="stop-color:#578C90"
   id="stop58" />
				<stop
   offset="1"
   style="stop-color:#2B3D47"
   id="stop60" />
			</radialGradient>
			<path
   style="clip-rule:evenodd;fill:url(#radialGradient1000);fill-rule:evenodd"
   d="m 137.234,-100.467 c 0.088,6.709 0.377,13.679 0.867,20.909 1.168,18.273 3.174,35.023 6.02,50.248 3.061,16.004 6.555,27.511 10.483,34.52 l 0.92,-1.854 c -0.233,-7.851 0.538,-16.7 2.312,-26.547 1.859,-10.277 4.285,-18.573 7.278,-24.888 6.296,-13.348 12.868,-24.263 19.716,-32.745 12.05,-14.916 23.543,-20.537 34.48,-16.864 2.112,0.71 4.708,2.03 7.79,3.958 1.041,0.688 2.095,1.393 3.162,2.116 3.386,0.21 7.002,0.448 10.849,0.716 0.259,0.047 0.972,0.101 2.136,0.161 3.209,2.469 6.001,4.333 8.375,5.59 1.954,1.003 7.013,2.867 15.18,5.595 15.161,5.093 32.529,6.149 52.105,3.167 18.667,-2.796 34.822,-8.624 48.467,-17.486 -8.113,-2.658 -17.721,-4.81 -28.823,-6.457 -11.688,-1.744 -19.896,-3.406 -24.625,-4.987 -23.827,-8.014 -44.603,-18.804 -62.327,-32.371 -4.371,-3.396 -11.497,-9.355 -21.378,-17.876 -4.346,-3.695 -8.328,-7.021 -11.945,-9.979 -3.537,-2.853 -6.757,-5.355 -9.66,-7.508 -7.947,-10.655 -14.423,-19.398 -19.428,-26.231 -9.988,-13.597 -18.052,-25.792 -24.191,-36.585 -18.328,-32.144 -25.181,-60.787 -20.558,-85.93 -0.637,0.333 -1.311,0.682 -2.021,1.045 -15.257,8.344 -25.928,16.526 -32.013,24.548 -2.725,3.594 -5.483,8.287 -8.272,14.079 -3.48,7.59 -6.354,13.812 -8.621,18.664 -11.604,24.412 -14.28,44.969 -8.03,61.673 3.997,10.749 11.611,19.685 22.842,26.809 4.386,-0.938 9.264,-1.985 14.633,-3.139 2.588,0.168 3.655,-0.043 3.2,-0.634 -2.04,-2.608 -6.237,-7.313 -12.592,-14.115 -10.049,-10.564 -16.289,-17.178 -18.722,-19.839 l -1.354,-1.572 c 0.347,0.118 5.636,3.713 15.87,10.785 10.267,7.073 16.283,10.906 18.048,11.498 l 2.838,0.949 -29.064,-30.536 0.435,-0.928 c 1.192,0.429 3.552,1.419 7.077,2.971 3.499,1.517 5.864,2.474 7.097,2.872 l 0.899,0.297 c -0.362,-0.719 -2.68,-4.643 -6.954,-11.771 -3.905,-6.441 -6.053,-10.206 -6.443,-11.293 1.099,0.391 2.934,1.57 5.502,3.539 2.609,1.937 3.994,2.927 4.153,2.969 l 0.889,0.346 -9.306,-22.851 0.435,-0.928 c 0.988,0.952 2.583,2.836 4.783,5.653 2.428,3.195 4.055,5.682 4.88,7.459 l 0.899,0.297 c -0.148,-0.441 -3.546,-7.407 -10.196,-20.896 0.297,-0.652 0.145,-1.077 -0.455,-1.274 0.671,-0.332 1.619,-0.283 2.845,0.148 1.199,0.396 2.379,1.058 3.54,1.986 l 4.537,1.538 c 0.91,-1.887 0.279,-7.207 -1.894,-15.959 0.75,-0.395 2.771,-0.072 6.061,0.966 0.533,0.194 1.086,0.374 1.658,0.537 0.078,-0.563 0.074,-2.932 -0.01,-7.105 0.03,-0.666 0.042,-1.315 0.032,-1.95 0.551,-1.939 1.234,-3.955 2.05,-6.047 0.172,-0.024 0.375,-0.03 0.608,-0.018 1.118,0.125 2.403,0.425 3.855,0.901 -0.572,3.072 -1.202,6.609 -1.891,10.609 -2.384,13.451 -3.578,20.611 -3.581,21.478 l 1.344,-0.68 c 1.49,-3.125 4.635,-8.248 9.434,-15.369 l -0.435,0.928 c -1.324,7.736 -2.385,14.052 -3.182,18.947 -1.445,9.198 -1.965,14.39 -1.561,15.579 3.606,-7.55 6.31,-12.48 8.109,-14.788 l -0.435,0.928 c -0.008,1.234 -0.788,7.064 -2.34,17.49 -1.684,10.752 -2.63,16.741 -2.838,17.964 l 1.394,-0.678 c 0.283,-0.585 0.882,-1.488 1.794,-2.708 0.953,-1.251 1.626,-2.283 2.022,-3.097 0.238,-0.521 1.492,-3.558 3.763,-9.11 1.949,-4.769 3.447,-8.276 4.495,-10.523 -0.029,0.999 -0.501,8.08 -1.417,21.24 -0.879,12.296 -1.171,18.802 -0.875,19.518 1.042,-2.214 2.857,-6.306 5.446,-12.275 2.543,-5.738 4.901,-10.451 7.074,-14.141 l -0.435,0.928 c -1.028,2.148 -2.181,10.46 -3.457,24.937 -1.044,14.155 -1.583,21.315 -1.615,21.48 l 0.435,-0.928 c 1.2,-2.506 3.125,-7.326 5.775,-14.459 1.803,-4.709 3.073,-7.996 3.81,-9.858 -0.654,2.635 -0.627,8.974 0.081,19.017 0.647,10.008 1.337,15.881 2.07,17.62 0.094,0.205 0.165,0.359 0.211,0.461 l 0.445,-0.978 c 0.024,-2.167 0.875,-6.392 2.551,-12.676 1.723,-6.181 3.241,-10.638 4.553,-13.372 0.415,-0.913 0.93,-1.653 1.546,-2.221 0.655,-0.625 1.039,-1.039 1.153,-1.24 l -0.485,0.925 c -1.101,2.345 -1.269,8.223 -0.504,17.636 0.365,4.622 0.974,8.44 1.824,11.453 -0.005,0.2 0.025,0.385 0.092,0.555 0.232,-0.155 0.448,-0.31 0.646,-0.466 2.846,-1.82 5.123,-2.885 6.831,-3.197 0.17,1.01 1.148,3.979 2.932,8.909 0.955,2.651 2.15,5.883 3.583,9.693 0.222,0.579 0.44,1.174 0.656,1.786 0.786,0.274 1.612,0.602 2.479,0.98 0.407,0.155 0.83,0.31 1.269,0.466 7.563,3.063 14.904,4.18 22.024,3.351 7.772,-0.896 13.543,-2.212 17.314,-3.951 l 0.949,0.3 c -2.937,2.449 -7.81,5.264 -14.621,8.444 -2.663,1.229 -3.695,2.375 -3.099,3.441 0.59,1.098 2.721,1.709 6.394,1.834 10.209,-0.135 17.2,-1.071 20.971,-2.809 l 0.899,0.297 c -0.504,0.508 -4.36,2.508 -11.569,6.001 -4.872,2.381 -8.845,4.292 -11.918,5.732 2.97,0.789 9.03,1.588 18.179,2.399 11.369,1.091 18.326,1.045 20.872,-0.137 -1.251,0.61 -4.637,2.394 -10.154,5.349 -6.079,3.219 -9.789,5.244 -11.129,6.074 l -0.445,0.978 4.586,1.54 c 2.115,0.01 8.915,0.382 20.398,1.114 10.632,0.621 16.284,0.766 16.954,0.434 l 0.949,0.299 c -0.04,0.031 -3.176,1.019 -9.406,2.962 -6.231,1.943 -10.678,3.529 -13.34,4.758 4.383,1.463 10.022,2.608 16.917,3.435 5.257,0.607 9.704,0.723 13.341,0.345 -4.648,1.926 -7.736,3.016 -9.265,3.27 l -0.871,1.856 6.435,2.137 c 8.393,-0.463 14.663,-1.07 18.81,-1.821 0.558,-0.104 1.103,-0.226 1.635,-0.365 -1.029,0.447 -2.084,0.942 -3.167,1.486 l -0.435,0.927 c 4.356,1.262 11.104,1.13 20.243,-0.395 5.039,-0.838 10.571,-2.05 16.597,-3.637 -15.685,7.621 -25.532,11.96 -29.538,13.019 -5.708,1.504 -12.394,1.072 -20.06,-1.296 -0.556,0.772 -1.401,1.312 -2.538,1.619 -2.726,0.191 -4.583,0.578 -5.572,1.161 1.695,1.289 1.39,1.557 -0.915,0.803 -0.473,-0.158 -2.011,-1.222 -4.613,-3.193 -2.602,-1.97 -4.124,-3.034 -4.563,-3.19 l -0.445,0.978 c 0.473,0.158 1,0.552 1.582,1.183 0.575,0.664 0.97,1.301 1.185,1.913 -2.209,-1.75 -4.672,-3.663 -7.388,-5.739 -0.38,-0.287 -0.714,-0.554 -1.001,-0.803 -2.816,-2.082 -4.443,-3.201 -4.883,-3.357 -0.946,-0.316 -1.625,-0.368 -2.036,-0.156 l -0.247,0.488 c 0.6,0.198 1.188,1.046 1.767,2.544 -0.073,0.029 -0.14,0.026 -0.2,-0.011 -1.862,-1.464 -5.845,-5.125 -11.95,-10.98 -5.482,-5.09 -8.6,-7.771 -9.353,-8.043 0.605,1.533 1.802,4.581 3.591,9.144 1.561,4.017 2.388,6.379 2.484,7.084 l -0.464,-1.225 c -1.747,-1.192 -4.497,-4.888 -8.249,-11.087 -3.483,-5.853 -5.651,-8.917 -6.504,-9.195 l -0.495,0.975 c 0.909,1.015 2.264,3.688 4.065,8.017 0.84,2.045 1.604,3.62 2.294,4.723 -1.952,-2.37 -5.343,-6.733 -10.172,-13.089 -5.07,-6.669 -8.451,-11.082 -10.143,-13.238 1.948,2.904 4.881,9.244 8.801,19.022 -3.819,-4.836 -12.906,-16.184 -27.263,-34.044 -1.13,-1.426 -2.207,-2.784 -3.23,-4.071 2.259,5.755 4.855,12.444 7.788,20.069 l -0.889,-0.347 c -0.061,-0.037 -2.465,-3.948 -7.214,-11.734 -3.289,-5.476 -5.768,-8.923 -7.437,-10.345 0.739,1.706 2.855,6.57 6.348,14.591 3.528,8.523 5.244,13.966 5.147,16.329 l -0.395,-1.321 c -2.374,-1.424 -5.27,-5.145 -8.688,-11.161 -3.297,-5.775 -5.322,-8.8 -6.075,-9.073 l -0.435,0.928 c 1.062,0.923 3.046,6.363 5.956,16.322 1.458,5.046 2.884,10.257 4.277,15.633 -2.005,-3.64 -3.948,-6.994 -5.83,-10.061 -2.813,-4.65 -4.849,-7.625 -6.104,-8.924 0.104,2.541 1.294,8.857 3.572,18.949 2.212,10.256 3.238,16.214 3.079,17.873 -1.64,-5.489 -2.988,-9.729 -4.045,-12.72 -1.75,-4.761 -3.611,-7.76 -5.585,-8.997 1.157,3.163 2.226,7.371 3.206,12.625 1.604,7.889 1.642,13.145 0.117,15.767 l -0.89,-0.346 c -5.538,-13.498 -8.953,-20.464 -10.246,-20.898 l -0.435,0.928 c 0.471,1.192 1.199,6.617 2.184,16.275 0.481,5.229 0.931,9.255 1.349,12.079 -0.469,-2.393 -1.288,-5.571 -2.455,-9.535 -1.781,-5.964 -2.856,-9.205 -3.224,-9.725 l -0.435,0.928 c -0.065,1.865 -0.36,6.085 -0.885,12.662 -0.44,5.981 -0.767,10.451 -0.98,13.408 -0.127,-1.574 -0.264,-4.033 -0.411,-7.376 -0.257,-5.684 -0.396,-8.56 -0.416,-8.627 -1.22,5.674 -2.925,13.123 -5.114,22.349 -2.026,8.4 -3.535,14.859 -4.527,19.377 -0.182,-5.213 -0.077,-9.661 0.313,-13.343 0.617,-6.595 2.075,-12.581 4.375,-17.959 -0.925,0.815 -1.931,1.956 -3.019,3.419 -1.217,1.571 -2.146,3.04 -2.785,4.408 l -0.949,-0.3 c 0.739,-1.529 1.808,-4.142 3.209,-7.838 1.408,-3.729 2.573,-6.571 3.497,-8.524 l -0.899,-0.297 c -0.416,0.912 -1.513,2.39 -3.294,4.431 -2.072,2.327 -3.528,4.002 -4.369,5.026 0.521,-1.107 1.597,-3.753 3.229,-7.937 1.382,-3.597 2.523,-6.406 3.426,-8.427 -3.393,2.892 -5.756,5.67 -7.088,8.336 l 0.346,-0.732 c 0.817,-1.759 2.044,-5.081 3.679,-9.965 1.59,-4.821 2.509,-7.524 2.76,-8.111 0.396,-0.813 1.28,-2.318 2.655,-4.515 1.401,-2.162 2.247,-3.552 2.536,-4.17 l -0.899,-0.297 c -8.142,7.881 -12.511,11.889 -13.11,12.025 l 0.436,-0.928 c 0.484,-0.242 1.272,-1.168 2.363,-2.779 1.388,-2.096 2.403,-3.494 3.045,-4.194 l 6.665,-14.112 c -0.969,0.483 -3.763,2.723 -8.383,6.718 -5.205,4.602 -8.783,7.75 -10.732,9.45 z m -82.635,-66.402 c 1.05,1.489 3.904,3.973 8.562,7.451 5.525,4.191 8.83,6.949 9.913,8.272 l 0.949,0.3 c -0.612,-1.667 -1.973,-4.223 -4.083,-7.668 -1.568,-2.617 -3.138,-5.05 -4.71,-7.301 0.853,0.278 3.814,2.984 8.884,8.119 5.645,5.798 9.252,9.322 10.821,10.571 l 0.949,0.299 c -0.586,-1.631 -1.937,-4.837 -4.052,-9.618 -1.646,-3.755 -2.593,-6.022 -2.843,-6.803 1.568,1.083 4.402,3.582 8.503,7.498 2.757,2.546 6.017,5.701 9.778,9.466 l 0.949,0.3 c -0.87,-1.212 -2.835,-5.051 -5.896,-11.515 -2.598,-5.572 -4.294,-9.414 -5.087,-11.523 2.85,2.25 10.932,9.576 24.249,21.979 -0.402,-0.688 -1.927,-4.287 -4.576,-10.796 -2.473,-6.033 -3.918,-9.611 -4.336,-10.733 l 0.445,-0.978 c 0.946,0.316 3.179,2.201 6.699,5.653 4.682,4.547 8.428,7.961 11.238,10.243 l 0.852,0.795 c 0.621,0.6 1.105,0.958 1.452,1.077 l -7.833,-19.071 c -2.527,-1.333 -4.895,-2.707 -7.102,-4.123 -6.459,1.398 -11.859,2.534 -16.199,3.408 -13.584,2.761 -25.724,4.329 -36.418,4.705 -0.374,0.015 -0.743,0.012 -1.108,-0.007 z m 82.559,50.937 c -0.099,4.932 -0.09,10.002 0.024,15.212 l 2.235,-4.687 c 0.125,-0.293 3.26,-4.433 9.406,-12.418 2.817,-3.723 4.087,-6.325 3.808,-7.807 -0.319,-1.451 -2.119,-0.928 -5.401,1.569 -4.533,3.567 -7.891,6.277 -10.072,8.131 z m 0.408,-9.735 c 0.085,-0.262 0.185,-0.507 0.296,-0.735 0.948,-2.252 1.762,-4.078 2.441,-5.477 3.006,-6.381 5.018,-10.445 6.035,-12.194 0.416,-0.746 0.611,-1.652 0.587,-2.721 0.009,-1.067 -0.257,-1.681 -0.796,-1.843 -0.981,0.716 -3.253,2.099 -6.817,4.147 -2.687,1.528 -6.105,3.435 -10.252,5.72 -10.292,5.667 -16.689,9.303 -19.19,10.907 l -0.949,-0.3 c 1.624,-1.416 4.682,-4.059 9.175,-7.927 3.665,-3.245 5.586,-5.146 5.763,-5.704 l 0.435,-0.928 c -5.039,2.372 -10.889,4.686 -17.551,6.94 -7.5,2.578 -13.054,3.989 -16.665,4.234 1.691,-1.246 4.5,-3.051 8.428,-5.415 5.109,-3.069 8.834,-5.176 11.178,-6.321 -1.668,0.28 -12.209,3.883 -31.623,10.809 1.347,-0.697 2.907,-1.616 4.678,-2.758 5.121,-3.302 8.475,-5.312 10.062,-6.03 -0.585,0.07 -11.211,0.867 -31.878,2.39 l -0.899,-0.297 c 0.652,0.101 4.045,-0.406 10.18,-1.521 3.164,-0.536 7.033,-1.234 11.605,-2.097 -1.612,-0.518 -6.726,-1.852 -15.343,-4.002 -8.296,-2.067 -12.461,-3.102 -12.495,-3.104 l -3.687,-1.243 c 1.191,0.262 3.926,0.455 8.204,0.578 2.807,0.08 4.956,0.175 6.446,0.287 1.454,0.976 2.368,1.541 2.741,1.694 l 0.899,0.297 c -0.2,-0.177 -0.648,-0.717 -1.344,-1.621 l 0.435,-0.928 -1.568,-0.482 c -1.03,-1.254 -2.291,-2.871 -3.782,-4.85 -3.758,-4.799 -6.267,-8.099 -7.525,-9.899 l -0.303,-0.767 c -13.887,0.376 -27.472,-1.032 -40.756,-4.227 l -1.838,-0.646 c 6.207,4.827 15.283,12.905 27.231,24.236 11.688,9.916 23.995,17.045 36.917,21.388 11.631,3.909 25.205,5.201 40.725,3.875 8.032,-0.681 14.974,-2.054 20.826,-4.117 -0.004,0.203 -0.013,0.419 -0.026,0.652 z"
   id="path63"
   inkscape:connector-curvature="0" />
			
				<radialGradient
   id="SVGID_2_"
   cx="573.0498"
   cy="-229.7998"
   r="133.4742"
   gradientTransform="matrix(0.998,0.052,-0.1954,0.9905,-463,46.4004)"
   gradientUnits="userSpaceOnUse">
				<stop
   offset="0"
   style="stop-color:#ADABAC"
   id="stop65" />
				<stop
   offset="0.1608"
   style="stop-color:#8C9D97"
   id="stop67" />
				<stop
   offset="1"
   style="stop-color:#4E7280"
   id="stop69" />
			</radialGradient>
			<path
   style="clip-rule:evenodd;fill:url(#radialGradient1002);fill-rule:evenodd"
   d="m 54.599,-166.869 c -0.04,0.031 -0.076,0.046 -0.11,0.044 l 0.303,0.767 c 1.258,1.8 3.767,5.1 7.525,9.899 1.492,1.979 2.752,3.596 3.782,4.85 l 1.568,0.482 -0.435,0.928 c 0.696,0.904 1.144,1.444 1.344,1.621 l -0.899,-0.297 c -0.374,-0.153 -1.287,-0.718 -2.741,-1.694 -1.491,-0.112 -3.639,-0.207 -6.446,-0.287 -4.278,-0.123 -7.013,-0.316 -8.204,-0.578 l 3.687,1.243 c 0.033,0.001 4.198,1.036 12.495,3.104 8.617,2.15 13.73,3.484 15.343,4.002 -4.573,0.862 -8.441,1.561 -11.605,2.097 -6.135,1.114 -9.528,1.622 -10.18,1.521 l 0.899,0.297 c 20.667,-1.523 31.293,-2.32 31.878,-2.39 -1.586,0.718 -4.941,2.728 -10.062,6.03 -1.771,1.142 -3.331,2.061 -4.678,2.758 19.413,-6.926 29.954,-10.529 31.623,-10.809 -2.343,1.145 -6.069,3.252 -11.178,6.321 -3.928,2.364 -6.737,4.168 -8.428,5.415 3.611,-0.246 9.166,-1.657 16.665,-4.234 6.662,-2.254 12.512,-4.568 17.551,-6.94 l -0.435,0.928 c -0.177,0.558 -2.099,2.458 -5.763,5.704 -4.493,3.868 -7.552,6.511 -9.175,7.927 l 0.949,0.3 c 2.5,-1.604 8.897,-5.24 19.19,-10.907 4.147,-2.285 7.565,-4.192 10.252,-5.72 3.564,-2.049 5.836,-3.431 6.817,-4.147 0.539,0.162 0.805,0.776 0.796,1.843 0.024,1.069 -0.171,1.976 -0.587,2.721 -1.017,1.749 -3.028,5.813 -6.035,12.194 -0.679,1.399 -1.493,3.225 -2.441,5.477 -0.112,0.228 -0.211,0.473 -0.296,0.735 -0.16,3.027 -0.28,6.106 -0.359,9.238 -0.039,0.198 -0.055,0.364 -0.048,0.498 2.181,-1.854 5.539,-4.564 10.073,-8.13 3.282,-2.498 5.083,-3.021 5.401,-1.569 0.279,1.482 -0.991,4.084 -3.808,7.807 -6.146,7.985 -9.281,12.125 -9.406,12.418 l -2.235,4.687 c 0.014,0.101 0.031,0.185 0.051,0.253 1.949,-1.7 5.527,-4.849 10.735,-9.447 4.62,-3.996 7.414,-6.235 8.383,-6.718 l -6.665,14.112 c -0.643,0.701 -1.658,2.098 -3.045,4.194 -1.09,1.611 -1.878,2.537 -2.363,2.779 l -0.436,0.928 c 0.599,-0.136 4.968,-4.145 13.11,-12.025 l 0.899,0.297 c -0.29,0.619 -1.135,2.009 -2.536,4.17 -1.375,2.197 -2.259,3.702 -2.655,4.515 -0.25,0.587 -1.17,3.291 -2.76,8.111 -1.635,4.885 -2.862,8.206 -3.679,9.965 l -0.346,0.732 c 1.333,-2.666 3.695,-5.444 7.088,-8.336 -0.903,2.021 -2.044,4.83 -3.426,8.427 -1.632,4.184 -2.708,6.83 -3.229,7.937 0.84,-1.024 2.296,-2.699 4.369,-5.026 1.781,-2.042 2.878,-3.519 3.294,-4.431 l 0.899,0.297 c -0.923,1.953 -2.088,4.794 -3.497,8.524 -1.401,3.696 -2.47,6.309 -3.209,7.838 l 0.949,0.3 c 0.64,-1.368 1.568,-2.837 2.785,-4.408 1.088,-1.464 2.094,-2.604 3.019,-3.419 -2.3,5.378 -3.757,11.364 -4.375,17.959 -0.39,3.682 -0.494,8.129 -0.313,13.343 0.992,-4.518 2.501,-10.977 4.527,-19.377 2.189,-9.226 3.894,-16.675 5.114,-22.349 0.02,0.068 0.159,2.944 0.416,8.627 0.147,3.344 0.284,5.802 0.411,7.376 0.213,-2.958 0.54,-7.427 0.98,-13.408 0.524,-6.577 0.819,-10.797 0.885,-12.662 L 163,-92.569 c 0.368,0.52 1.442,3.761 3.224,9.725 1.167,3.964 1.986,7.142 2.455,9.535 -0.418,-2.824 -0.867,-6.85 -1.349,-12.079 -0.985,-9.658 -1.713,-15.083 -2.184,-16.275 l 0.435,-0.928 c 1.292,0.434 4.708,7.4 10.246,20.898 l 0.89,0.346 c 1.525,-2.623 1.487,-7.878 -0.117,-15.767 -0.98,-5.254 -2.049,-9.463 -3.206,-12.625 -0.34,-0.151 -0.633,-0.283 -0.88,-0.396 l 0.75,0.29 c 0.027,0.034 0.07,0.07 0.13,0.106 1.974,1.237 3.836,4.236 5.585,8.997 1.057,2.99 2.405,7.23 4.045,12.72 0.159,-1.659 -0.867,-7.617 -3.079,-17.873 -2.278,-10.092 -3.468,-16.408 -3.572,-18.949 -0.394,-0.388 -0.684,-0.619 -0.871,-0.696 l 0.849,0.294 c 0.008,0.134 0.015,0.268 0.022,0.401 1.256,1.299 3.291,4.274 6.104,8.924 1.882,3.067 3.825,6.42 5.83,10.061 -1.394,-5.376 -2.819,-10.587 -4.277,-15.633 -2.909,-9.958 -4.894,-15.399 -5.956,-16.322 l 0.435,-0.928 c 0.753,0.273 2.778,3.297 6.075,9.073 3.417,6.016 6.313,9.736 8.688,11.161 l 0.395,1.321 c 0.097,-2.363 -1.62,-7.806 -5.147,-16.329 -3.493,-8.021 -5.609,-12.885 -6.348,-14.591 1.669,1.421 4.148,4.869 7.437,10.345 4.749,7.786 7.153,11.697 7.214,11.734 l 0.889,0.347 c -2.932,-7.625 -5.528,-14.314 -7.788,-20.069 1.023,1.287 2.1,2.645 3.23,4.071 14.357,17.861 23.444,29.208 27.263,34.044 -3.919,-9.778 -6.853,-16.118 -8.801,-19.022 1.692,2.156 5.073,6.569 10.143,13.238 4.83,6.356 8.22,10.719 10.172,13.089 -0.69,-1.103 -1.455,-2.678 -2.294,-4.723 -1.801,-4.33 -3.156,-7.002 -4.065,-8.017 l 0.495,-0.975 c 0.853,0.278 3.021,3.343 6.504,9.195 3.751,6.2 6.501,9.896 8.249,11.087 l 0.464,1.225 c -0.096,-0.706 -0.924,-3.067 -2.484,-7.084 -1.789,-4.563 -2.986,-7.611 -3.591,-9.144 0.753,0.273 3.871,2.954 9.353,8.043 6.105,5.855 10.088,9.516 11.95,10.98 0.06,0.037 0.126,0.04 0.2,0.011 -0.578,-1.498 -1.167,-2.346 -1.767,-2.544 l 0.247,-0.488 c 0.412,-0.212 1.09,-0.16 2.036,0.156 0.44,0.156 2.067,1.275 4.883,3.357 0.287,0.249 0.621,0.516 1.001,0.803 2.716,2.076 5.179,3.989 7.388,5.739 -0.215,-0.612 -0.61,-1.25 -1.185,-1.913 -0.582,-0.631 -1.109,-1.025 -1.582,-1.183 l 0.445,-0.978 c 0.439,0.156 1.961,1.22 4.563,3.19 2.603,1.971 4.14,3.035 4.613,3.193 2.305,0.754 2.61,0.486 0.915,-0.803 0.989,-0.583 2.846,-0.969 5.572,-1.161 1.136,-0.308 1.982,-0.847 2.538,-1.619 7.666,2.368 14.353,2.8 20.06,1.296 4.006,-1.059 13.853,-5.398 29.538,-13.019 -6.026,1.587 -11.559,2.799 -16.597,3.637 -9.139,1.525 -15.887,1.657 -20.243,0.395 l 0.435,-0.927 c 1.083,-0.544 2.138,-1.04 3.167,-1.486 -0.532,0.139 -1.077,0.261 -1.635,0.365 -4.147,0.751 -10.417,1.357 -18.81,1.821 l -6.435,-2.137 0.871,-1.856 c 1.528,-0.254 4.617,-1.344 9.265,-3.27 -3.637,0.378 -8.083,0.262 -13.341,-0.345 -6.895,-0.827 -12.534,-1.972 -16.917,-3.435 2.662,-1.229 7.109,-2.814 13.34,-4.758 6.23,-1.943 9.366,-2.931 9.406,-2.962 l -0.949,-0.299 c -0.67,0.332 -6.322,0.187 -16.954,-0.434 -11.484,-0.732 -18.283,-1.104 -20.398,-1.114 l -4.586,-1.54 0.445,-0.978 c 1.34,-0.831 5.05,-2.855 11.129,-6.074 5.518,-2.956 8.903,-4.739 10.154,-5.349 -2.546,1.183 -9.503,1.229 -20.872,0.137 -9.149,-0.811 -15.209,-1.611 -18.179,-2.399 l -0.06,0.047 -0.709,-0.237 c 0.193,0.043 0.45,0.106 0.77,0.19 3.074,-1.441 7.046,-3.352 11.918,-5.732 7.209,-3.494 11.065,-5.494 11.569,-6.001 l -0.899,-0.297 c -3.771,1.738 -10.761,2.674 -20.971,2.809 -3.672,-0.125 -5.803,-0.736 -6.394,-1.834 -0.597,-1.065 0.436,-2.212 3.099,-3.441 6.811,-3.18 11.685,-5.995 14.621,-8.444 l -0.949,-0.3 c -3.771,1.738 -9.542,3.055 -17.314,3.951 -7.12,0.83 -14.462,-0.287 -22.024,-3.351 -0.439,-0.156 -0.862,-0.312 -1.269,-0.466 -0.866,-0.378 -1.692,-0.706 -2.479,-0.98 -0.216,-0.611 -0.434,-1.207 -0.656,-1.786 -1.433,-3.81 -2.627,-7.042 -3.583,-9.693 -1.784,-4.93 -2.761,-7.899 -2.932,-8.909 -1.708,0.312 -3.985,1.377 -6.831,3.197 -0.199,0.156 -0.415,0.312 -0.646,0.466 -0.067,-0.17 -0.098,-0.355 -0.092,-0.555 -0.851,-3.013 -1.459,-6.831 -1.824,-11.453 -0.765,-9.413 -0.597,-15.292 0.504,-17.636 l 0.485,-0.925 c -0.114,0.202 -0.498,0.615 -1.153,1.24 -0.616,0.568 -1.131,1.309 -1.546,2.221 -1.312,2.733 -2.83,7.19 -4.553,13.372 -1.676,6.284 -2.526,10.509 -2.551,12.676 l -0.445,0.978 c -0.046,-0.103 -0.117,-0.256 -0.211,-0.461 -0.733,-1.739 -1.423,-7.612 -2.07,-17.62 -0.708,-10.043 -0.735,-16.382 -0.081,-19.017 -0.737,1.863 -2.007,5.149 -3.81,9.858 -2.65,7.133 -4.575,11.953 -5.775,14.459 l -0.435,0.928 c 0.033,-0.165 0.571,-7.325 1.615,-21.48 1.276,-14.477 2.428,-22.789 3.457,-24.937 l 0.435,-0.928 c -2.173,3.689 -4.531,8.403 -7.074,14.141 -2.589,5.969 -4.404,10.061 -5.446,12.275 -0.296,-0.716 -0.004,-7.222 0.875,-19.518 0.916,-13.161 1.388,-20.241 1.417,-21.24 -1.048,2.247 -2.546,5.754 -4.495,10.523 -2.271,5.552 -3.525,8.589 -3.763,9.11 -0.396,0.813 -1.07,1.846 -2.022,3.097 -0.913,1.22 -1.511,2.123 -1.794,2.708 l -1.394,0.678 c 0.208,-1.223 1.154,-7.211 2.838,-17.964 1.552,-10.426 2.333,-16.256 2.34,-17.49 l 0.435,-0.928 c -1.799,2.308 -4.503,7.237 -8.109,14.788 -0.404,-1.189 0.116,-6.381 1.561,-15.579 0.797,-4.896 1.858,-11.211 3.182,-18.947 l 0.435,-0.928 c -4.799,7.122 -7.943,12.245 -9.434,15.369 l -1.344,0.68 c 0.003,-0.867 1.197,-8.026 3.581,-21.478 0.688,-4 1.318,-7.537 1.891,-10.609 -1.452,-0.476 -2.737,-0.777 -3.855,-0.901 -0.233,-0.012 -0.436,-0.006 -0.608,0.018 -0.816,2.092 -1.499,4.108 -2.05,6.047 0.01,0.634 -10e-4,1.284 -0.032,1.95 0.084,4.174 0.087,6.542 0.01,7.105 -0.572,-0.163 -1.125,-0.343 -1.658,-0.537 -3.29,-1.039 -5.311,-1.361 -6.061,-0.966 2.172,8.752 2.804,14.072 1.894,15.959 l -4.537,-1.538 c -1.161,-0.928 -2.341,-1.59 -3.54,-1.986 -1.226,-0.431 -2.174,-0.48 -2.845,-0.148 0.6,0.198 0.751,0.623 0.455,1.274 6.649,13.489 10.048,20.454 10.196,20.896 l -0.899,-0.297 c -0.825,-1.778 -2.452,-4.264 -4.88,-7.459 -2.2,-2.817 -3.795,-4.701 -4.783,-5.653 l -0.435,0.928 9.306,22.851 -0.889,-0.346 c -0.16,-0.042 -1.544,-1.032 -4.153,-2.969 -2.569,-1.969 -4.403,-3.148 -5.502,-3.539 0.391,1.087 2.538,4.853 6.443,11.293 4.274,7.128 6.592,11.051 6.954,11.771 l -0.899,-0.297 c -1.233,-0.398 -3.598,-1.355 -7.097,-2.872 -3.525,-1.551 -5.884,-2.542 -7.077,-2.971 l -0.435,0.928 29.064,30.536 -2.838,-0.949 c -1.765,-0.592 -7.781,-4.425 -18.048,-11.498 -10.233,-7.072 -15.523,-10.667 -15.87,-10.785 l 1.354,1.572 c 2.433,2.662 8.673,9.275 18.722,19.839 6.355,6.802 10.552,11.507 12.592,14.115 0.455,0.591 -0.612,0.802 -3.2,0.634 -5.37,1.154 -10.248,2.201 -14.633,3.139 2.207,1.416 4.575,2.79 7.102,4.123 l 7.833,19.071 c -0.346,-0.119 -0.831,-0.477 -1.452,-1.077 l -0.852,-0.795 c -2.81,-2.281 -6.556,-5.695 -11.238,-10.243 -3.52,-3.452 -5.753,-5.336 -6.699,-5.653 l -0.445,0.978 c 0.417,1.122 1.863,4.7 4.336,10.733 2.648,6.509 4.173,10.108 4.576,10.796 -13.316,-12.403 -21.399,-19.729 -24.249,-21.979 0.793,2.109 2.49,5.951 5.087,11.523 3.061,6.464 5.025,10.303 5.896,11.515 l -0.949,-0.3 c -3.761,-3.765 -7.021,-6.92 -9.778,-9.466 -4.101,-3.916 -6.935,-6.416 -8.503,-7.498 0.25,0.78 1.197,3.048 2.843,6.803 2.115,4.781 3.466,7.986 4.052,9.618 l -0.949,-0.299 c -1.569,-1.25 -5.176,-4.773 -10.821,-10.571 -5.07,-5.135 -8.032,-7.84 -8.884,-8.119 1.572,2.25 3.143,4.684 4.71,7.301 2.11,3.445 3.471,6.001 4.083,7.668 l -0.949,-0.3 c -1.083,-1.324 -4.387,-4.082 -9.913,-8.272 -4.664,-3.479 -7.518,-5.963 -8.568,-7.452 z m 127.571,18.762 c -0.34,-0.318 -0.667,-0.535 -0.98,-0.652 l 0.849,0.294 c 0.014,0.101 0.058,0.22 0.131,0.358 z"
   id="path72"
   inkscape:connector-curvature="0" />
		</g>
		<g
   id="g78">
			<path
   style="clip-rule:evenodd;fill:#4c787d;fill-rule:evenodd"
   d="m 170.95,-155.725 c -4.535,2.797 -10.318,6.855 -17.35,12.175 -14.267,10.867 -23.066,17.483 -26.4,19.85 -4.367,3.1 -18.517,10.95 -42.45,23.55 -23.767,12.5 -35.95,18.983 -36.55,19.45 0.5,0.5 2.35,3.017 5.55,7.55 3.233,4.3 5.55,6.45 6.95,6.45 0.2,0 7.367,-4.933 21.5,-14.8 15.633,-10.9 27.3,-18.3 35,-22.2 9.133,-4.533 19.733,-12.167 31.8,-22.9 6.633,-5.867 15.4,-13.9 26.3,-24.1 -1.672,-1.963 -3.122,-3.638 -4.35,-5.025 z"
   id="path76"
   inkscape:connector-curvature="0" />
		</g>
	</g>
</symbol>
<symbol
   id="tunaberry_x5F_singl"
   viewBox="0.001 -38.103 30.793 38.12"
   transform="translate(-7.2016657,210.95469)">
	<g
   id="Layer_1_3_">
		
			<use
   xlink:href="#tunaberry2"
   width="384.97601"
   height="476.57599"
   x="11.895"
   y="-471.366"
   transform="matrix(0.08,0,0,0.08,-0.37406675,-17.276275)"
   style="overflow:visible"
   id="use82" />
	</g>
</symbol>
<use
   xlink:href="#tunaberry_x5F_singl"
   width="30.792999"
   height="38.119999"
   x="0.001"
   y="-38.103001"
   transform="matrix(6.7219575,0,0,-6.7145645,72.888739,1416.5823)"
   style="overflow:visible"
   id="use86" />
</svg>