<?xml version="1.0" encoding="UTF-8" standalone="no"?>
<!-- Created with Inkscape (http://www.inkscape.org/) -->

<svg
   xmlns:dc="http://purl.org/dc/elements/1.1/"
   xmlns:cc="http://creativecommons.org/ns#"
   xmlns:rdf="http://www.w3.org/1999/02/22-rdf-syntax-ns#"
   xmlns:svg="http://www.w3.org/2000/svg"
   xmlns="http://www.w3.org/2000/svg"
   xmlns:xlink="http://www.w3.org/1999/xlink"
   xmlns:sodipodi="http://sodipodi.sourceforge.net/DTD/sodipodi-0.dtd"
   xmlns:inkscape="http://www.inkscape.org/namespaces/inkscape"
   id="svg2"
   sodipodi:docname="compass_geometric_02.svg"
   viewBox="0 0 744.09 1052.4"
   sodipodi:version="0.32"
   inkscape:output_extension="org.inkscape.output.svg.inkscape"
   inkscape:version="0.92.4 (5da689c313, 2019-01-14)"
   version="1.1">
  <defs
     id="defs4">
    <linearGradient
       id="linearGradient3293">
      <stop
         id="stop3295"
         style="stop-color:#3a3a3a"
         offset="0" />
      <stop
         id="stop3301"
         style="stop-color:#6d6d6d"
         offset=".5" />
      <stop
         id="stop3297"
         style="stop-color:#3a3a3a"
         offset="1" />
    </linearGradient>
    <linearGradient
       id="linearGradient3400">
      <stop
         id="stop3402"
         style="stop-color:#828282"
         offset="0" />
      <stop
         id="stop3408"
         style="stop-color:#9e9e9e"
         offset=".15909" />
      <stop
         id="stop3410"
         style="stop-color:#a2a2a2"
         offset=".83523" />
      <stop
         id="stop3404"
         style="stop-color:#828282"
         offset="1" />
    </linearGradient>
    <linearGradient
       id="linearGradient3378">
      <stop
         id="stop3380"
         style="stop-color:#d6d6d6"
         offset="0" />
      <stop
         id="stop3382"
         style="stop-color:#828282"
         offset="1" />
    </linearGradient>
    <linearGradient
       id="linearGradient3332">
      <stop
         id="stop3334"
         style="stop-color:#000000;stop-opacity:.63393"
         offset="0" />
      <stop
         id="stop3336"
         style="stop-color:#3a3a3a;stop-opacity:0"
         offset="1" />
    </linearGradient>
    <linearGradient
       id="linearGradient3364"
       y2="703.05"
       xlink:href="#linearGradient3332"
       gradientUnits="userSpaceOnUse"
       x2="230.44"
       gradientTransform="matrix(1.225 0 0 1.225 74.961 -172.87)"
       y1="695.98"
       x1="205.07"
       inkscape:collect="always" />
    <linearGradient
       id="linearGradient3366"
       y2="703.05"
       xlink:href="#linearGradient3332"
       gradientUnits="userSpaceOnUse"
       x2="226.2"
       gradientTransform="matrix(-1.225 0 0 1.225 629.6 -170.9)"
       y1="695.98"
       x1="205.07"
       inkscape:collect="always" />
    <radialGradient
       id="radialGradient3448"
       xlink:href="#linearGradient3378"
       gradientUnits="userSpaceOnUse"
       cy="781.36"
       cx="328"
       gradientTransform="matrix(-1.1292 .025083 -.032244 -1.4516 723.58 1907.4)"
       r="31"
       inkscape:collect="always" />
    <linearGradient
       id="linearGradient3450"
       y2="783.62"
       xlink:href="#linearGradient3400"
       gradientUnits="userSpaceOnUse"
       x2="309.5"
       y1="772.62"
       x1="309.5"
       inkscape:collect="always" />
    <linearGradient
       id="linearGradient3355"
       y2="1295.6"
       xlink:href="#linearGradient3293"
       gradientUnits="userSpaceOnUse"
       x2="152.74"
       gradientTransform="translate(74.953 374.77)"
       y1="1198"
       x1="152.74"
       inkscape:collect="always" />
    <linearGradient
       id="linearGradient3380"
       y2="1724.4"
       gradientUnits="userSpaceOnUse"
       x2="419"
       gradientTransform="matrix(.52889 0 0 .52889 97.939 35.975)"
       y1="1724.4"
       x1="395"
       inkscape:collect="always">
      <stop
         id="stop3376"
         style="stop-color:#000000"
         offset="0" />
      <stop
         id="stop3383"
         style="stop-color:#7b7b7b"
         offset=".5" />
      <stop
         id="stop3378"
         style="stop-color:#000000"
         offset="1" />
    </linearGradient>
    <linearGradient
       id="linearGradient3483"
       y2="1678.9"
       gradientUnits="userSpaceOnUse"
       x2="263.13"
       gradientTransform="matrix(.52889 0 0 .52889 112.22 68.237)"
       y1="1678.9"
       x1="238.87"
       inkscape:collect="always">
      <stop
         id="stop3362"
         style="stop-color:#d2d2d2"
         offset="0" />
      <stop
         id="stop3369"
         style="stop-color:#f6f6f6"
         offset=".5" />
      <stop
         id="stop3364"
         style="stop-color:#d2d2d2"
         offset="1" />
    </linearGradient>
  </defs>
  <sodipodi:namedview
     id="base"
     bordercolor="#666666"
     inkscape:pageshadow="2"
     guidetolerance="10"
     pagecolor="#ffffff"
     gridtolerance="10000"
     inkscape:window-height="1025"
     inkscape:zoom="0.5"
     objecttolerance="10"
     showgrid="false"
     borderopacity="1.0"
     inkscape:current-layer="svg2"
     inkscape:cx="-411.45834"
     inkscape:cy="535.15626"
     inkscape:window-y="-8"
     inkscape:window-x="-8"
     inkscape:window-width="1920"
     inkscape:pageopacity="0.0"
     inkscape:document-units="px"
     inkscape:window-maximized="1" />
  <g
     id="g4694">
    <g
       transform="matrix(0.99452,0.1045,-0.1045,0.99452,24.672,-25.252)"
       inkscape:transform-center-y="374.5818"
       inkscape:transform-center-x="46.38188"
       id="g3408">
      <g
         transform="rotate(-2.1748391,252.18102,222.75344)"
         inkscape:transform-center-y="376.5497"
         inkscape:transform-center-x="32.474238"
         id="g3459">
        <path
           inkscape:connector-curvature="0"
           d="m 245.5,998.75 -6.94,-84.64 12.83,-0.49 z"
           style="fill:url(#linearGradient3483)"
           sodipodi:nodetypes="cccc"
           id="path3357" />
        <g
           transform="matrix(0.52889,0,0,0.7001,317.87,-80.778)"
           inkscape:transform-center-y="337.34003"
           inkscape:transform-center-x="3.4378125"
           id="g3248">
          <g
             transform="translate(-412.95,87.681)"
             id="g3253">
            <path
               inkscape:connector-curvature="0"
               d="m 246,318.36 h 88 l -22,248 -16,790.04 H 246 L 230,566.36 Z"
               inkscape:transform-center-y="486"
               style="fill:#c8c8c8"
               sodipodi:nodetypes="ccccccc"
               id="rect2453" />
            <path
               inkscape:connector-curvature="0"
               d="m 246.98,318.92 4.82,5 h 74.71 l -22,248 -15.38,775.68 5.2,6.3 16.18,-786.98 22,-248 z"
               style="fill:#f7f7f7;fill-opacity:0.43136998"
               sodipodi:nodetypes="ccccccccc"
               id="path3226" />
            <path
               inkscape:connector-curvature="0"
               d="m 246.89,319.7 -16,246.06 16,790.04 h 48 l -12.12,-3.6 -30.94,-2.1 -16,-790 14.21,-236.16 z"
               style="fill:#353535;fill-opacity:0.29412004"
               sodipodi:nodetypes="ccccccccc"
               id="path3231" />
          </g>
        </g>
        <g
           transform="matrix(0.52887,-0.0055416,0.0055416,0.52887,89.23,37.392)"
           inkscape:transform-center-y="25.913232"
           inkscape:transform-center-x="10.200626"
           id="g3303">
          <rect
             x="207.89"
             y="1572.8"
             width="39.598"
             height="97.581001"
             style="fill:url(#linearGradient3355)"
             id="rect3263" />
          <rect
             x="209.45"
             y="1575.6"
             width="36"
             height="2"
             style="fill:#000000"
             id="rect3265" />
          <rect
             x="209.45"
             y="1582.4"
             width="36"
             height="2"
             style="fill:#000000"
             id="rect3267" />
          <rect
             x="209.45"
             y="1602.7"
             width="36"
             height="2"
             style="fill:#000000"
             id="rect3269" />
          <rect
             x="209.45"
             y="1609.5"
             width="36"
             height="2"
             style="fill:#000000"
             id="rect3271" />
          <rect
             x="209.45"
             y="1623"
             width="36"
             height="2"
             style="fill:#000000"
             id="rect3273" />
          <rect
             x="209.45"
             y="1629.8"
             width="36"
             height="2"
             style="fill:#000000"
             id="rect3275" />
          <rect
             x="209.45"
             y="1636.6"
             width="36"
             height="2"
             style="fill:#000000"
             id="rect3277" />
          <rect
             x="209.45"
             y="1650.1"
             width="36"
             height="2"
             style="fill:#000000"
             id="rect3279" />
          <rect
             x="209.45"
             y="1656.9"
             width="36"
             height="2"
             style="fill:#000000"
             id="rect3281" />
          <rect
             x="209.45"
             y="1643.3"
             width="36"
             height="2"
             style="fill:#000000"
             id="rect3283" />
          <rect
             x="209.45"
             y="1616.2"
             width="36"
             height="2"
             style="fill:#000000"
             id="rect3285" />
          <rect
             x="209.45"
             y="1595.9"
             width="36"
             height="2"
             style="fill:#000000"
             id="rect3287" />
          <rect
             x="209.45"
             y="1589.2"
             width="36"
             height="2"
             style="fill:#000000"
             id="rect3289" />
          <rect
             x="209.45"
             y="1663.6"
             width="36"
             height="2"
             style="fill:#000000"
             id="rect3291" />
        </g>
      </g>
    </g>
    <g
       transform="matrix(0.99773,-0.067362,0.067362,0.99773,-14.401,21.013)"
       inkscape:transform-center-y="368.81846"
       inkscape:transform-center-x="-31.495966"
       id="g3385">
      <g
         id="g3436">
        <path
           inkscape:connector-curvature="0"
           d="m 306.85,910.43 h 12.7 v 59.23 l -12.7,15.87 z"
           style="fill:url(#linearGradient3380)"
           sodipodi:nodetypes="ccccc"
           id="rect3371" />
        <g
           transform="matrix(0.52889,0,0,0.7001,-32.208,-34.092)"
           inkscape:transform-center-y="336.62962"
           inkscape:transform-center-x="-1.8698937"
           id="g3258">
          <path
             inkscape:connector-curvature="0"
             d="m 676.9,339.36 h -88 l 22,248 16,790.04 h 50 l 16,-790.04 z"
             style="fill:#c8c8c8"
             inkscape:transform-center-y="486"
             sodipodi:nodetypes="ccccccc"
             id="path3241" />
          <path
             inkscape:connector-curvature="0"
             d="m 592.88,340.67 12.15,8.27 64.32,-0.29 15.5,251 -14.72,766.25 5.09,8.2 16,-785.08 -16,-248 z"
             style="fill:#dcdcdc"
             sodipodi:nodetypes="ccccccccc"
             id="path3236" />
          <path
             inkscape:connector-curvature="0"
             d="m 590.7,341.32 21.65,244.46 16,790.02 h 46.82 l -10.68,-5.2 -30.15,-1 L 617.2,580.97 596.11,351.34 Z"
             style="fill:#9d9d9d"
             sodipodi:nodetypes="ccccccccc"
             id="path3243" />
        </g>
        <g
           transform="matrix(-0.52887,-0.0055416,-0.0055416,0.52887,466.27,37.392)"
           inkscape:transform-center-y="25.913232"
           inkscape:transform-center-x="-10.200623"
           id="g3322">
          <rect
             x="207.89"
             y="1572.8"
             width="39.598"
             height="97.581001"
             style="fill:url(#linearGradient3355)"
             id="rect3324" />
          <rect
             x="209.45"
             y="1575.6"
             width="36"
             height="2"
             style="fill:#000000"
             id="rect3326" />
          <rect
             x="209.45"
             y="1582.4"
             width="36"
             height="2"
             style="fill:#000000"
             id="rect3328" />
          <rect
             x="209.45"
             y="1602.7"
             width="36"
             height="2"
             style="fill:#000000"
             id="rect3330" />
          <rect
             x="209.45"
             y="1609.5"
             width="36"
             height="2"
             style="fill:#000000"
             id="rect3332" />
          <rect
             x="209.45"
             y="1623"
             width="36"
             height="2"
             style="fill:#000000"
             id="rect3334" />
          <rect
             x="209.45"
             y="1629.8"
             width="36"
             height="2"
             style="fill:#000000"
             id="rect3336" />
          <rect
             x="209.45"
             y="1636.6"
             width="36"
             height="2"
             style="fill:#000000"
             id="rect3338" />
          <rect
             x="209.45"
             y="1650.1"
             width="36"
             height="2"
             style="fill:#000000"
             id="rect3340" />
          <rect
             x="209.45"
             y="1656.9"
             width="36"
             height="2"
             style="fill:#000000"
             id="rect3342" />
          <rect
             x="209.45"
             y="1643.3"
             width="36"
             height="2"
             style="fill:#000000"
             id="rect3345" />
          <rect
             x="209.45"
             y="1616.2"
             width="36"
             height="2"
             style="fill:#000000"
             id="rect3347" />
          <rect
             x="209.45"
             y="1595.9"
             width="36"
             height="2"
             style="fill:#000000"
             id="rect3349" />
          <rect
             x="209.45"
             y="1589.2"
             width="36"
             height="2"
             style="fill:#000000"
             id="rect3351" />
          <rect
             x="209.45"
             y="1663.6"
             width="36"
             height="2"
             style="fill:#000000"
             id="rect3353" />
        </g>
      </g>
    </g>
    <g
       transform="matrix(0.52889,0,0,0.52889,91.99,-203.09)"
       id="g3346">
      <rect
         x="329.12"
         y="528.35999"
         width="46"
         height="160"
         ry="11"
         style="fill:#3a3a3a"
         id="rect3288" />
      <path
         inkscape:connector-curvature="0"
         d="m 329.12,660.86 h 46 l 20.25,57 h -86.25 z"
         style="fill:#3a3a3a"
         sodipodi:nodetypes="ccccc"
         id="rect3290" />
      <g
         transform="translate(-0.75241)"
         id="g3317">
        <rect
           x="332"
           y="539.60999"
           width="2.5"
           height="121.5"
           style="fill:#000000"
           id="rect3293" />
        <rect
           x="335.92001"
           y="539.60999"
           width="2.5"
           height="121.5"
           style="fill:#000000"
           id="rect3295" />
        <rect
           x="339.85001"
           y="539.60999"
           width="2.5"
           height="121.5"
           style="fill:#000000"
           id="rect3297" />
        <rect
           x="343.76999"
           y="539.60999"
           width="2.5"
           height="121.5"
           style="fill:#000000"
           id="rect3299" />
        <rect
           x="347.70001"
           y="539.60999"
           width="2.5"
           height="121.5"
           style="fill:#000000"
           id="rect3301" />
        <rect
           x="351.62"
           y="539.60999"
           width="2.5"
           height="121.5"
           style="fill:#000000"
           id="rect3303" />
        <rect
           x="355.54999"
           y="539.60999"
           width="2.5"
           height="121.5"
           style="fill:#000000"
           id="rect3305" />
        <rect
           x="359.48001"
           y="539.60999"
           width="2.5"
           height="121.5"
           style="fill:#000000"
           id="rect3307" />
        <rect
           x="363.39999"
           y="539.60999"
           width="2.5"
           height="121.5"
           style="fill:#000000"
           id="rect3309" />
        <rect
           x="367.32999"
           y="539.60999"
           width="2.5"
           height="121.5"
           style="fill:#000000"
           id="rect3311" />
        <rect
           x="371.25"
           y="539.60999"
           width="2.5"
           height="121.5"
           style="fill:#000000"
           id="rect3313" />
      </g>
      <path
         inkscape:connector-curvature="0"
         d="m 329.36,660.41 h 45.16 l 19.89,55.97 h -84.69 z"
         style="fill:url(#linearGradient3364)"
         sodipodi:nodetypes="ccccc"
         id="path3330" />
      <path
         inkscape:connector-curvature="0"
         d="m 375.2,662.38 h -45.16 l -19.88,55.97 h 84.68 z"
         style="fill:url(#linearGradient3366)"
         sodipodi:nodetypes="ccccc"
         id="path3340" />
    </g>
    <path
       inkscape:connector-curvature="0"
       d="m 277.76,159.41 c -26.32,0 -49.18,8.46 -49.18,8.46 v 105.12 c 0,4.3 4.68,6.47 11.37,6.47 v 74.58 c 0,0 14.01,5.82 38.34,5.82 24.86,0 38.35,-5.82 38.35,-5.82 v -74.58 c 6.53,0 11.37,-4.15 11.37,-6.47 V 167.87 c 0,0 -23.4,-8.46 -50.25,-8.46 z"
       style="fill:#3a3a3a"
       sodipodi:nodetypes="ccccczccccc"
       id="rect3344" />
    <g
       transform="matrix(0.52889,0,0,0.52889,88.287,-188.28)"
       id="g3412">
      <circle
         r="31"
         cy="795.36218"
         cx="319"
         transform="matrix(0.66129,0,0,0.66129,98.548,251.9)"
         style="fill:url(#radialGradient3448)"
         id="path3376" />
      <path
         inkscape:connector-curvature="0"
         d="m 289.69,772.62 c -0.45,1.68 -0.69,3.44 -0.69,5.26 0,1.99 0.31,3.92 0.84,5.74 h 39.32 c 0.53,-1.82 0.84,-3.75 0.84,-5.74 0,-1.82 -0.24,-3.58 -0.69,-5.26 z"
         style="fill:url(#linearGradient3450)"
         id="path3388" />
    </g>
    <g
       transform="matrix(0.45804,0.26445,-0.26445,0.45804,368.55,-215)"
       id="g3416">
      <circle
         r="31"
         cy="795.36218"
         cx="319"
         transform="matrix(0.66129,0,0,0.66129,98.548,251.9)"
         style="fill:url(#radialGradient3448)"
         id="path3418" />
      <path
         inkscape:connector-curvature="0"
         d="m 289.69,772.62 c -0.45,1.68 -0.69,3.44 -0.69,5.26 0,1.99 0.31,3.92 0.84,5.74 h 39.32 c 0.53,-1.82 0.84,-3.75 0.84,-5.74 0,-1.82 -0.24,-3.58 -0.69,-5.26 z"
         style="fill:url(#linearGradient3450)"
         id="path3420" />
    </g>
    <path
       inkscape:connector-curvature="0"
       d="m 278.32,158.28 c -26.32,0 -49.19,8.46 -49.19,8.46 v 2.75 c 6.87,-2.21 25.36,-7.46 46.2,-7.46 26.84,0 50.24,8.47 50.24,8.47 v 105.11 c 0,0.07 -0.01,-1.55 -0.02,-1.48 1.89,-1.3 2.36,-1.34 3.01,-2.27 V 166.74 c 0,0 -23.4,-8.46 -50.24,-8.46 z"
       style="fill:#efefef;fill-opacity:0.28758"
       sodipodi:nodetypes="cccscccccc"
       id="path3463" />
    <path
       inkscape:connector-curvature="0"
       d="m 317.19,279.16 c -0.95,0.2 -1.94,0.33 -2.99,0.33 v 72.63 c 1.96,-0.66 2.99,1.49 2.99,1.49 z"
       style="fill:#efefef;fill-opacity:0.28758"
       sodipodi:nodetypes="ccccc"
       id="path3456" />
    <path
       inkscape:connector-curvature="0"
       d="m 230.62,167.25 c -1.8,0.57 -2.99,0.99 -2.99,0.99 v 105.11 c 0,4.31 4.68,6.48 11.37,6.48 v 74.58 c 0,0 14.02,5.82 38.35,5.82 24.85,0 38.34,-5.82 38.34,-5.82 l -2.43,-1.73 c -5.23,1.68 -14.84,3.81 -32.92,3.81 -24.33,0 -38.35,-5.82 -38.35,-5.82 V 276.1 c -6.69,0 -11.37,-2.17 -11.37,-6.48 z"
       style="fill:#000000;fill-opacity:0.33987002"
       sodipodi:nodetypes="cccccsccscccc"
       id="path3472" />
    <path
       inkscape:connector-curvature="0"
       d="m 327.7,273.1 c -3.22,1.97 -7.85,3.65 -13.23,2.53 v 3.44 c 7.58,0.45 12.41,-3.07 13.23,-5.97 z"
       style="fill:#000000;fill-opacity:0.34000017"
       sodipodi:nodetypes="cccc"
       id="path3465" />
  </g>
  <metadata
     id="metadata108">
    <rdf:RDF>
      <cc:Work>
        <dc:format>image/svg+xml</dc:format>
        <dc:type
           rdf:resource="http://purl.org/dc/dcmitype/StillImage" />
        <cc:license
           rdf:resource="http://creativecommons.org/publicdomain/zero/1.0/" />
        <dc:publisher>
          <cc:Agent
             rdf:about="http://openclipart.org/">
            <dc:title>Openclipart</dc:title>
          </cc:Agent>
        </dc:publisher>
        <dc:title></dc:title>
        <dc:date>2011-03-11T10:07:17</dc:date>
        <dc:description>A (pair of) drawing compass(es). The rotation point of the legs are set at the screw points so resizing them should be very easy with Inkscape</dc:description>
        <dc:source>https://openclipart.org/detail/126697/drawing-compass-by-kevie</dc:source>
        <dc:creator>
          <cc:Agent>
            <dc:title>kevie</dc:title>
          </cc:Agent>
        </dc:creator>
        <dc:subject>
          <rdf:Bag>
            <rdf:li>architecture</rdf:li>
            <rdf:li>circle</rdf:li>
            <rdf:li>design</rdf:li>
            <rdf:li>draw</rdf:li>
            <rdf:li>drawing</rdf:li>
            <rdf:li>equipment</rdf:li>
            <rdf:li>graphics</rdf:li>
            <rdf:li>school</rdf:li>
            <rdf:li>technical</rdf:li>
          </rdf:Bag>
        </dc:subject>
      </cc:Work>
      <cc:License
         rdf:about="http://creativecommons.org/publicdomain/zero/1.0/">
        <cc:permits
           rdf:resource="http://creativecommons.org/ns#Reproduction" />
        <cc:permits
           rdf:resource="http://creativecommons.org/ns#Distribution" />
        <cc:permits
           rdf:resource="http://creativecommons.org/ns#DerivativeWorks" />
      </cc:License>
    </rdf:RDF>
  </metadata>
</svg>
