<?xml version="1.0" encoding="UTF-8" standalone="no"?>
<!-- Generator: Adobe Illustrator 16.0.0, SVG Export Plug-In . SVG Version: 6.00 Build 0)  -->

<svg
   xmlns:dc="http://purl.org/dc/elements/1.1/"
   xmlns:cc="http://creativecommons.org/ns#"
   xmlns:rdf="http://www.w3.org/1999/02/22-rdf-syntax-ns#"
   xmlns:svg="http://www.w3.org/2000/svg"
   xmlns="http://www.w3.org/2000/svg"
   xmlns:sodipodi="http://sodipodi.sourceforge.net/DTD/sodipodi-0.dtd"
   xmlns:inkscape="http://www.inkscape.org/namespaces/inkscape"
   version="1.1"
   id="Layer_1"
   x="0px"
   y="0px"
   width="256"
   height="239.14728"
   viewBox="0 0 256 239.14727"
   enable-background="new 0 0 717.391 667.392"
   xml:space="preserve"
   sodipodi:docname="tape_measure_03.svg"
   inkscape:version="0.92.4 (5da689c313, 2019-01-14)"><title
   id="title882">Measuring Tape</title><metadata
   id="metadata75"><rdf:RDF><cc:Work
       rdf:about=""><dc:format>image/svg+xml</dc:format><dc:type
         rdf:resource="http://purl.org/dc/dcmitype/StillImage" /><dc:title>Measuring Tape</dc:title><cc:license
         rdf:resource="http://creativecommons.org/publicdomain/zero/1.0/" /><dc:date>2017-08-28</dc:date><dc:creator><cc:Agent><dc:title>cactus cowboy</dc:title></cc:Agent></dc:creator><dc:publisher><cc:Agent><dc:title>OpenClipart Library</dc:title></cc:Agent></dc:publisher><dc:source>https://openclipart.org/detail/285706</dc:source></cc:Work><cc:License
       rdf:about="http://creativecommons.org/publicdomain/zero/1.0/"><cc:permits
         rdf:resource="http://creativecommons.org/ns#Reproduction" /><cc:permits
         rdf:resource="http://creativecommons.org/ns#Distribution" /><cc:permits
         rdf:resource="http://creativecommons.org/ns#DerivativeWorks" /></cc:License></rdf:RDF></metadata><defs
   id="defs73" /><sodipodi:namedview
   pagecolor="#ffffff"
   bordercolor="#666666"
   borderopacity="1"
   objecttolerance="10"
   gridtolerance="10"
   guidetolerance="10"
   inkscape:pageopacity="0"
   inkscape:pageshadow="2"
   inkscape:window-width="1920"
   inkscape:window-height="1025"
   id="namedview71"
   showgrid="false"
   inkscape:zoom="0.35361525"
   inkscape:cx="-544.33424"
   inkscape:cy="328.78367"
   inkscape:window-x="-8"
   inkscape:window-y="-8"
   inkscape:window-maximized="1"
   inkscape:current-layer="Layer_1"
   fit-margin-top="0"
   fit-margin-left="0"
   fit-margin-right="0"
   fit-margin-bottom="0" />
<g
   id="g68"
   transform="matrix(0.36445571,0,0,0.36445571,-3.4270223,-2.2972292)">
	
		<path
   d="M 275.186,23.076 C 334.11,15.87 393.59,12.054 452.884,9.42 c 30.197,-1.341 60.717,-2.333 90.932,-0.95 13.928,0.638 31.621,0.262 42.828,9.598 10.544,8.784 17.825,22.815 23.95,34.838 27.326,53.641 45.776,112.363 58.967,170.966 6.372,28.312 8.864,56.79 7.23,85.79 -0.753,13.375 -2.977,27.127 -7.109,39.889 -3.162,9.765 -15.498,26.382 -9.759,35.796 7.195,11.804 15.591,22.748 23.295,34.211 7.047,10.485 17.764,20.694 22.172,32.677 4.584,12.461 4.083,28.428 4.43,41.529 0.349,13.176 1.452,27.391 -1.49,40.346 -2.074,9.134 -20.407,19.023 -27.717,24.038 -12.138,8.325 -23.909,17.191 -35.96,25.648 -23.214,16.291 -46.634,32.479 -70.53,47.751 -12.038,7.693 -24.3,15.389 -37.133,21.703 -13.006,6.399 -24.794,12.329 -35.51,0.479 C 480.414,630.432 458.225,608.105 436.457,585.468 393.756,541.064 351.52,496.229 309.326,451.342 225.413,362.073 143.474,270.396 70.118,172.2 53.74,150.279 34.71,123.129 28.064,96.3 26.751,91.001 22.301,83.783 28.684,80.833 35.402,77.728 42.227,75.142 49.342,73.052 63.937,68.765 78.61,64.94 93.404,61.4 149.595,47.955 206.421,37.497 262.998,25.873 c 4.092,-0.84 8.172,-1.632 12.188,-2.797 z"
   id="path2"
   inkscape:connector-curvature="0"
   style="clip-rule:evenodd;fill:#a8a8a8;fill-rule:evenodd;stroke:#000000;stroke-width:3;stroke-linecap:round;stroke-linejoin:round" />
	
		<path
   d="M 24.764,84.044 C 46.842,65.958 84.132,64.022 111.289,60.2 c 30.079,-4.233 60.388,-6.316 90.692,-8.047 29.18,-1.667 58.668,-2.816 87.898,-2.049 15.724,0.413 31.535,0.539 47.228,1.703 13.328,0.989 32.532,1.196 43.869,9.051 22.403,15.522 33.824,51.39 44.057,75.429 11.919,28.002 20.874,57.474 30.046,86.456 17.592,55.589 32.289,114.533 29.769,173.195 -0.619,14.417 -2.187,28.855 -5.735,42.877 -3.441,13.6 -11.002,26.06 -14.467,39.3 -2.787,10.65 8.742,22.733 14.786,31.299 8.16,11.564 16.351,23.104 24.466,34.699 8.29,11.847 12.816,20.984 14.222,35.563 1.338,13.878 1.708,27.979 1.708,41.91 0,8.904 2.829,34.741 -6.164,38.685 -4.328,1.897 -14.829,-0.809 -19.395,-1.195 -7.797,-0.66 -15.579,-1.392 -23.365,-2.165 C 354.598,645.369 240.035,615.872 127.709,584.64 111.746,580.202 96.059,574.771 80.293,569.684 67.42,565.532 53.038,562.174 41.556,554.886 17.658,539.718 18.793,504.322 16.851,479.307 12.164,418.929 11.299,358.539 10.933,298.01 c -0.219,-36.204 0.792,-72.479 2.184,-108.652 0.702,-18.226 1.764,-36.394 3.18,-54.577 1.249,-16.08 1.069,-36.07 8.467,-50.737 z"
   id="path4"
   inkscape:connector-curvature="0"
   style="clip-rule:evenodd;fill:#a8a8a8;fill-rule:evenodd;stroke:#000000;stroke-width:3;stroke-linecap:round;stroke-linejoin:round" />
	
		<path
   d="M 258.024,518.225 C 383.485,493.605 403.211,318.273 341.393,226.83 308.729,178.513 251.315,135.182 189.47,153.547 129.028,171.495 97.908,225.721 85.362,284.119 62.573,390.192 138.716,529.556 258.024,518.225 Z"
   id="path6"
   inkscape:connector-curvature="0"
   style="clip-rule:evenodd;fill:#ffff54;fill-rule:evenodd;stroke:#000000;stroke-width:3;stroke-linecap:round;stroke-linejoin:round" />
	
		<path
   d="M 398.171,91.344 C 389.378,79.869 380.427,68.832 365.426,65.898 348.934,62.672 332.25,61.325 315.542,59.53 284.487,56.194 252.914,57.857 221.704,57.786 159.772,57.646 97.842,68.338 36.821,77.405 c -0.857,0.127 -1.715,0.255 -2.573,0.382 61.424,-14.911 123.285,-25.496 185.711,-35.31 27.104,-4.261 55.165,-12.106 82.449,-13.291 33.883,-1.472 67.701,-3.452 101.555,-5.507 30.188,-1.833 60.388,-3.342 90.591,-4.894 11.115,-0.571 22.232,-1.438 33.364,-1.356 10.17,0.074 20.341,0.148 30.512,0.223 5.089,0.037 16.83,-3.068 16.297,4.853 -29.903,6.533 -59.877,11.993 -89.643,19.188 -14.396,3.48 -28.711,9.368 -42.717,14.19 -12.987,4.472 -24.475,8.363 -24.475,24.034 0,28.176 16.502,56.25 25.881,82.208 9.914,27.443 18.396,55.587 25.734,83.822 3.433,13.203 6.707,26.43 9.924,39.688 31.766,-8.898 62.667,-20.437 93.651,-31.73 15.594,-5.684 31.188,-11.365 46.768,-17.086 16.743,-6.148 34.638,-6.916 38.039,-26.29 3.606,15.658 6.892,31.429 7.721,47.503 0.707,13.708 5.415,34.676 -6.302,45.43 -5.855,5.374 -16.391,8.839 -23.302,12.543 -7.683,4.119 -14.807,9.621 -22.072,14.425 -13.642,9.019 -17.608,28.067 -24.132,42.726 -4.844,-4.191 -12.753,-14.836 -19.355,-14.462 -10.218,0.579 -20.861,0.322 -30.992,1.756 -8.655,1.225 -16.605,5.131 -25.06,7.225 -7.701,1.907 -17.16,3.655 -21.495,11.262 -3.603,6.32 -3.109,16.766 -3.936,23.894 -1.107,9.558 -3.207,18.976 -5,28.427 -3.268,17.223 -11.873,33.001 -18.09,49.231 7.763,2.957 16.293,7.854 24.654,8.724 8.964,0.933 18.276,-4.207 26.354,-7.163 16.806,-6.149 32.461,-17.166 47.822,-26.374 16.259,-9.746 33.796,-15.332 50.742,-23.767 18.436,-9.176 26.586,-22.245 35.613,-39.977 9.179,12.358 18.482,24.491 28.112,36.5 9.838,12.268 15.427,22.671 18.338,37.952 0.63,3.305 -39.158,21.289 -43.662,23.668 -11.758,6.212 -23.649,12.157 -35.512,18.168 -12.266,6.214 -24.673,12.17 -36.62,18.981 -13.292,7.577 -30.54,14.077 -41.681,24.654 -4.862,4.616 -11.906,9.289 -14.899,15.493 -2.903,6.02 -1.858,14.149 -2.111,20.623 -0.56,14.34 -1.584,28.675 -2.439,42.999 -0.411,6.892 -0.819,13.782 -1.229,20.674 -1.149,-13.853 -2.219,-27.711 -3.355,-41.564 -1.167,-14.214 -0.244,-31.402 -5.373,-44.822 -10.306,-26.97 -29.889,-54.823 -48.003,-77.096 -6.558,-8.063 6.387,-22.587 8.905,-31.421 4.446,-15.592 7.864,-30.587 9.363,-46.755 2.45,-26.449 1.553,-54.614 -3.578,-80.674 C 469.137,287.783 460.346,248.203 446.947,208.001 433.525,167.728 416.69,129.513 398.171,91.344 Z"
   id="path8"
   inkscape:connector-curvature="0"
   style="clip-rule:evenodd;fill:#ffffff;fill-rule:evenodd;stroke:#ffffff;stroke-width:1.30579996;stroke-linecap:round;stroke-linejoin:round" />
	
		<path
   d="M 70.468,512.918 C 57.045,490.412 58.81,463.637 56.594,438.031 c -2.739,-31.646 -5.478,-63.29 -8.217,-94.935 9.944,45.319 16.639,93.522 32.994,137.13 8.972,23.922 22.529,36.978 44.204,49.923 19.995,11.941 43.396,19.794 64.653,29.325 -22.971,-7.555 -45.941,-15.11 -68.912,-22.665 -18.303,-6.018 -35.965,-11.078 -50.848,-23.891 z"
   id="path10"
   inkscape:connector-curvature="0"
   style="clip-rule:evenodd;fill-rule:evenodd;stroke:#000000;stroke-width:1.30579996;stroke-linecap:round;stroke-linejoin:round" />
	
		<path
   d="m 659.12,573.227 -76.714,52.717 c 6.026,-10.242 3.625,-26.992 3.501,-38.441 -0.149,-13.706 -0.824,-27.527 -2.478,-41.14 -3.277,-26.991 -24.016,-48.534 -38.941,-70.472 -5.616,-8.255 -19.219,-22.52 -14.137,-32.667 6.278,-12.531 11.732,-24.686 14.957,-38.412 6.613,-28.144 6.338,-57.855 3.156,-86.465 C 542.103,261.137 522.776,202.946 502.647,149.271 492.32,121.733 481.959,92.135 465.541,67.518 457.805,55.919 449.578,42.483 434.668,39.927 419.379,37.305 404.232,36.533 388.746,35.981 335.705,34.09 282.073,43.782 229.296,40.428 287.833,28.824 346.137,21.164 405.824,17.197 c 28.534,-1.896 58.068,-3.528 86.604,-1.131 13.571,1.14 29.152,1.6 38.799,12.487 9.783,11.043 17.471,23.23 24.311,36.283 27.503,52.489 47.861,111.361 61.597,168.962 13.396,56.185 20.125,115 -7.369,168.138 -5.741,11.098 13.287,29.666 19.605,38.568 9.205,12.97 21.337,25.82 28.42,40.081 6.087,12.256 5.405,30.567 5.405,44.024 0,13.601 3.736,36.908 -4.076,48.618 z"
   id="path12"
   inkscape:connector-curvature="0"
   style="clip-rule:evenodd;fill-rule:evenodd;stroke:#000000;stroke-width:1.30579996;stroke-linecap:round;stroke-linejoin:round" />
	
		<path
   d="m 154.387,149.756 c 55.383,-24.616 114.068,-22.527 161.888,17.401 44.751,37.365 68.655,93.99 73.789,151.141 4.809,53.525 -8.299,102.033 -33.711,149.012 16.57,-23.459 30.575,-48.549 37.904,-76.592 7.86,-30.073 9.166,-56.577 6.853,-87.642 -4.134,-55.507 -36.039,-114.356 -80.316,-147.889 -21.708,-16.44 -51.512,-28.478 -79.045,-28.478 -32.813,-0.001 -57.852,9.73 -87.362,23.047 z"
   id="path14"
   inkscape:connector-curvature="0"
   style="clip-rule:evenodd;fill:#ffffff;fill-rule:evenodd;stroke:#ffffff;stroke-width:1.30579996;stroke-linecap:round;stroke-linejoin:round" />
	
		<path
   d="m 315.112,513.295 c -27.221,11.948 -52.519,18.971 -82.398,16.586 C 202.388,527.46 176.426,513.83 152.794,495.515 106.386,459.55 84.086,398.795 78.996,342.284 74.202,289.064 88.597,242.2 113.14,195.646 c -17.057,24.023 -29.623,47.938 -38.054,76.233 -8.607,28.884 -7.557,58.7 -6.052,88.389 2.793,55.116 36.313,111.83 78.694,145.634 23.227,18.526 50.972,27.485 80.074,30.902 30.972,3.638 60.264,-11.073 87.31,-23.509 z"
   id="path16"
   inkscape:connector-curvature="0"
   style="clip-rule:evenodd;fill-rule:evenodd;stroke:#000000;stroke-width:1.30579996;stroke-linecap:round;stroke-linejoin:round" />
	
		<path
   d="m 514.799,176.395 c 16.249,-5.09 32.498,-10.179 48.746,-15.269 2.232,-0.699 14.927,-2.845 16.019,-5.018 1.432,-2.847 -4.634,-16.375 -5.648,-19.36 -8.956,-26.347 -18.161,-53.55 -32.186,-77.736 -7.537,-12.999 -15.853,-21.074 -28.003,-29.607 -11.29,-7.929 -27.362,-6.146 -40.741,-6.146 -29.03,0 -58.013,1.357 -86.985,3.066 -41.633,2.456 -84.44,3.688 -125.509,11.353 57.366,-2.029 115.786,-9.146 172.967,-0.418 26.77,4.086 39.171,32.112 49.639,54.541 12.364,26.49 22.569,53.851 30.892,81.865 0.269,0.91 0.539,1.819 0.809,2.729 z"
   id="path18"
   inkscape:connector-curvature="0"
   style="clip-rule:evenodd;fill:#a8a8a8;fill-rule:evenodd;stroke:#000000;stroke-width:1.30579996;stroke-linecap:round;stroke-linejoin:round" />
	<path
   d="m 577.099,157.628 c 15.736,56.612 40.476,110.872 36.315,171.063 -0.997,14.421 -3.241,28.863 -7.396,42.749 -4.488,15.003 -14.44,27.873 -12.536,43.535 0.551,4.53 4.167,8.165 6.691,11.887 6.295,9.279 12.59,18.56 18.885,27.84 9.128,13.457 16.912,22.853 20.029,38.637 1.089,5.512 2.421,10.702 2.015,16.354"
   id="path20"
   inkscape:connector-curvature="0"
   style="fill:none;stroke:#ffffff;stroke-width:1.30579996;stroke-linecap:round;stroke-linejoin:round" />
	
		<path
   d="m 632,521.738 c 12.285,-3.465 23.642,-3.711 32.999,5.761 6.559,6.638 2.795,29.859 3.051,38.748 0.284,9.854 3.278,23.569 -1.157,32.962 -2.274,4.816 -6.586,8.482 -11.341,10.532 -2.908,1.254 -14.898,-1.923 -15.623,-0.935 -5.729,7.812 -12.513,21.575 -22.455,25.074 -12.584,4.429 -15.908,-1.999 -17.727,-12.397 -4.673,-26.72 -10.178,-53.356 -15.159,-79.833 7.949,1.574 16.614,1.356 24.466,-0.617 13.389,-3.366 16.212,-7.227 22.946,-19.295 z"
   id="path22"
   inkscape:connector-curvature="0"
   style="clip-rule:evenodd;fill:#a8a8a8;fill-rule:evenodd;stroke:#000000;stroke-width:3;stroke-linecap:round;stroke-linejoin:round" />
	
		<path
   d="m 663.863,532.451 c 3.884,-8.571 -6.975,-9.265 -12.092,-6.02 -7.219,4.578 -11.627,11.615 -18.063,17.019 -11.143,9.355 -26.563,7.622 -39.01,14.171 -11.131,5.856 4.09,8.828 9.754,8.348 7.317,-0.62 14.963,-1.889 21.847,-4.514 15.133,-5.772 26.586,-17.395 37.564,-29.004 z"
   id="path24"
   inkscape:connector-curvature="0"
   style="clip-rule:evenodd;fill:#ffffff;fill-rule:evenodd;stroke:#ffffff;stroke-width:1.30579996;stroke-linecap:round;stroke-linejoin:round" />
	
		<path
   d="m 638.918,588.487 c 4.623,-2.559 19.632,-11.65 15.745,-18.767 -3.815,-6.986 -19.497,0.056 -24.275,2.654 -4.574,2.487 -18.79,11.18 -16.119,18.108 3.001,7.786 19.92,1.151 24.649,-1.995 z"
   id="path26"
   inkscape:connector-curvature="0"
   style="clip-rule:evenodd;fill-rule:evenodd;stroke:#000000;stroke-width:1.30579996;stroke-linecap:round;stroke-linejoin:round" />
	
		<path
   d="m 534.902,248.083 c 5.335,34.469 10.669,68.939 16.004,103.408 0.868,5.612 0.11,26.961 12.007,21.339 16.418,-7.757 32.835,-15.515 49.253,-23.272 6.585,-3.111 31.846,-10.207 32.913,-18.101 2.184,-16.138 6.77,-33.541 6.738,-49.81 -0.029,-15.624 -6.198,-29.355 -11.816,-43.51 -3.141,-7.915 -6.282,-15.829 -9.423,-23.744 -0.65,-1.64 -8.894,2.393 -10.366,2.926 -28.253,10.237 -56.447,22.404 -85.31,30.764 z"
   id="path28"
   inkscape:connector-curvature="0"
   style="clip-rule:evenodd;fill-rule:evenodd;stroke:#ffffff;stroke-width:2;stroke-linecap:round;stroke-linejoin:round" />
	
		<line
   x1="637.40802"
   y1="234.23399"
   x2="554.91498"
   y2="264.20499"
   id="line30"
   style="fill:none;stroke:#ffffff;stroke-width:2;stroke-linecap:round;stroke-linejoin:round" />
	
		<line
   x1="634.367"
   y1="222.381"
   x2="551.78101"
   y2="252.451"
   id="line32"
   style="fill:none;stroke:#ffffff;stroke-width:2;stroke-linecap:round;stroke-linejoin:round" />
	
		<line
   x1="645.56097"
   y1="324.98001"
   x2="567.23602"
   y2="357.78799"
   id="line34"
   style="fill:none;stroke:#ffffff;stroke-width:2;stroke-linecap:round;stroke-linejoin:round" />
	
		<line
   x1="648.69"
   y1="303.64499"
   x2="570.27301"
   y2="335.12799"
   id="line36"
   style="fill:none;stroke:#ffffff;stroke-width:2;stroke-linecap:round;stroke-linejoin:round" />
	
		<line
   x1="647.64398"
   y1="314.74399"
   x2="569.22699"
   y2="346.60199"
   id="line38"
   style="fill:none;stroke:#ffffff;stroke-width:2;stroke-linecap:round;stroke-linejoin:round" />
	
		<line
   x1="650.58698"
   y1="291.892"
   x2="570.27301"
   y2="322.897"
   id="line40"
   style="fill:none;stroke:#ffffff;stroke-width:2;stroke-linecap:round;stroke-linejoin:round" />
	
		<line
   x1="649.73401"
   y1="261.638"
   x2="567.23602"
   y2="291.60901"
   id="line42"
   style="fill:none;stroke:#ffffff;stroke-width:2;stroke-linecap:round;stroke-linejoin:round" />
	
		<line
   x1="645.56097"
   y1="251.97501"
   x2="563.06702"
   y2="281.83899"
   id="line44"
   style="fill:none;stroke:#ffffff;stroke-width:2;stroke-linecap:round;stroke-linejoin:round" />
	
		<line
   x1="642.43402"
   y1="242.00999"
   x2="560.03302"
   y2="272.06799"
   id="line46"
   style="fill:none;stroke:#ffffff;stroke-width:2;stroke-linecap:round;stroke-linejoin:round" />
	
		<path
   d="m 631.24,214.141 c -9.396,-3.437 -14.742,1.607 -24.221,1.607 -9.268,0 -14.422,1.07 -23.151,4.005 -13.109,4.408 -26.22,8.816 -39.329,13.225 -12.08,4.063 -12.339,2.333 -9.069,15.104 31.455,-11.252 63.302,-26.079 95.77,-33.941 z"
   id="path48"
   inkscape:connector-curvature="0"
   style="clip-rule:evenodd;fill-rule:evenodd;stroke:#ffffff;stroke-width:2;stroke-linecap:round;stroke-linejoin:round" />
	
		<path
   d="m 542.77,406.816 c -5.319,10.003 -49.137,61.865 -54.044,31.189 -7.555,14.161 -15.108,28.321 -22.663,42.482 4.949,1.117 12.177,6.638 15.903,2.636 3.955,-4.248 9.743,-7.142 15.188,-8.955 11.492,-3.828 23.997,-4.629 36.039,-4.77 -3.519,-4.907 -7.037,-9.815 -10.555,-14.723 -2.898,-4.042 -0.461,-5.779 1.729,-10.255 6.134,-12.534 12.268,-25.069 18.403,-37.604 z"
   id="path50"
   inkscape:connector-curvature="0"
   style="clip-rule:evenodd;fill-rule:evenodd;stroke:#000000;stroke-width:1.30579996;stroke-linecap:round;stroke-linejoin:round" />
	
		<path
   d="m 620.622,382.732 c -2.984,6.115 -5.969,12.229 -8.953,18.345 -1.091,2.235 5.482,12.805 7.814,13.32 6.283,1.389 20.871,-17.761 24.513,-22.186 2.829,-3.438 7.356,-7.675 8.868,-11.949 2.16,-6.107 -0.059,-5.982 -6.688,-5.731 -7.777,0.293 -24.335,-0.778 -25.554,8.201 z"
   id="path52"
   inkscape:connector-curvature="0"
   style="clip-rule:evenodd;fill-rule:evenodd;stroke:#000000;stroke-width:1.30579996;stroke-linecap:round;stroke-linejoin:round" />
	
		<path
   d="m 426.521,103.197 c 5.686,19.423 20.009,39.828 42.65,33.864 22.863,-6.022 7.442,-45.646 -2.823,-57.85 3.289,13.818 15.42,42.099 -1.327,52.146 -17.832,10.699 -33.701,-14.977 -38.5,-28.16 z"
   id="path54"
   inkscape:connector-curvature="0"
   style="clip-rule:evenodd;fill-rule:evenodd;stroke:#000000;stroke-width:1.30579996;stroke-linecap:round;stroke-linejoin:round" />
	
		<path
   d="m 446.15,148.236 c 10.194,2.118 23.376,-3.66 30.487,-10.764 10.88,-10.867 3.519,-19.051 4.028,-31.339 -0.003,9.827 6.022,16.305 8.012,25.461 2.095,9.637 -2.829,19.61 -7.063,28.021 -3.56,7.071 -10.242,22.113 -18.777,23.753 -6.557,1.261 -14.545,-29.582 -16.687,-35.132 z"
   id="path56"
   inkscape:connector-curvature="0"
   style="clip-rule:evenodd;fill-rule:evenodd;stroke:#000000;stroke-width:1.30579996;stroke-linecap:round;stroke-linejoin:round" />
	
		<path
   d="m 478.865,252.536 c 1.801,7.935 3.603,15.87 5.403,23.804 12.386,-4.026 24.771,-8.052 37.156,-12.079 4.679,-1.521 8.358,-0.761 7.57,-5.839 -1.064,-6.858 -2.129,-13.717 -3.193,-20.576 -5.021,11.046 -36.812,22.808 -46.936,14.69 z"
   id="path58"
   inkscape:connector-curvature="0"
   style="clip-rule:evenodd;fill-rule:evenodd;stroke:#000000;stroke-width:1.30579996;stroke-linecap:round;stroke-linejoin:round" />
	
		<path
   d="m 651.914,216.794 c -0.813,-8.172 -14.328,-8.375 -14.321,0 0.006,8.408 13.621,8.274 14.321,0 z"
   id="path60"
   inkscape:connector-curvature="0"
   style="clip-rule:evenodd;fill-rule:evenodd;stroke:#000000;stroke-width:1.30579996;stroke-linecap:round;stroke-linejoin:round" />
	
		<path
   d="m 31.022,104.33 c -0.796,27.673 -3.551,55.68 -2.654,83.352 0.523,16.145 5.436,25.237 17.308,36.314 9.114,8.504 18.229,16.858 27.83,24.843 0.977,-12.396 5.915,-26.326 12.42,-36.887 2.932,-4.759 9.853,-10.233 8.344,-16.306 C 92.681,189.249 81.858,186.133 77.061,182.704 51.362,164.333 39.704,133.578 31.022,104.33 Z"
   id="path62"
   inkscape:connector-curvature="0"
   style="clip-rule:evenodd;fill-rule:evenodd;stroke:#000000;stroke-width:1.30579996;stroke-linecap:round;stroke-linejoin:round" />
	
		<path
   d="m 384.708,570.197 c 9.78,13.95 19.561,27.901 29.341,41.852 2.604,3.716 10.392,5.022 14.272,7.735 5.494,3.84 9.153,9.416 14.226,13.655 -28.616,2.798 -59.26,-3.594 -87.488,-7.884 -28.998,-4.406 -57.92,-9.47 -86.648,-15.403 -62.088,-12.824 -123.694,-27.037 -183.523,-48.245 -22.171,-7.859 -41.461,-16.725 -60.691,-30.31 5.623,29.514 45.713,36.178 69.47,43.341 29.506,8.896 59.043,17.701 88.606,26.41 55.627,16.388 112.283,27.776 169.425,37.256 29.354,4.87 58.783,9.396 88.282,13.285 14.502,1.913 29.055,3.429 43.647,4.445 6.847,0.478 13.51,0.64 20.326,-0.2 2.389,-0.294 0.17,-12.628 0.009,-14.829 -1.469,-20.112 -2.938,-40.226 -4.406,-60.338 -0.929,-12.711 -11.901,-24.705 -18.289,-35.39 -7.548,-12.626 -12.566,-23.348 -25.163,-31.333 -11.811,-7.486 -24.227,-14.079 -36.353,-21.052 -18.03,-10.367 -40.462,-26.359 -33.62,-49.688 -7.668,11.841 -13.721,24.111 -22.52,35.23 -9.691,12.247 -14.948,25.027 -9.249,40.826 6.613,18.335 21.819,16.895 36.284,24.866 15.696,8.651 14.129,27.593 -5.938,25.771 z"
   id="path64"
   inkscape:connector-curvature="0"
   style="clip-rule:evenodd;fill-rule:evenodd;stroke:#a8a8a8;stroke-width:1.30579996;stroke-linecap:round;stroke-linejoin:round" />
	
		<path
   d="m 634.562,224.281 c 4.931,12.167 14.602,26.982 14.602,40.219 0,16.721 -0.28,33.097 -1.423,49.77 12.221,-8.959 8.916,-36.478 6.923,-49.406 -1.394,-9.043 -3.887,-17.753 -6.911,-26.367 -1.235,-3.518 -2.242,-8.168 -4.185,-11.37 -3.365,-5.548 -2.515,-4.982 -9.006,-2.846 z"
   id="path66"
   inkscape:connector-curvature="0"
   style="clip-rule:evenodd;fill-rule:evenodd;stroke:#000000;stroke-width:1.30579996;stroke-linecap:round;stroke-linejoin:round" />
</g>
</svg>