<?xml version="1.0" encoding="UTF-8" standalone="no"?>
<!-- Generator: Adobe Illustrator 12.0.0, SVG Export Plug-In . SVG Version: 6.00 Build 51448)  -->

<svg
   xmlns:dc="http://purl.org/dc/elements/1.1/"
   xmlns:cc="http://creativecommons.org/ns#"
   xmlns:rdf="http://www.w3.org/1999/02/22-rdf-syntax-ns#"
   xmlns:svg="http://www.w3.org/2000/svg"
   xmlns="http://www.w3.org/2000/svg"
   xmlns:sodipodi="http://sodipodi.sourceforge.net/DTD/sodipodi-0.dtd"
   xmlns:inkscape="http://www.inkscape.org/namespaces/inkscape"
   id="Layer_1"
   space="preserve"
   sodipodi:docname="tape_measure_02.svg"
   viewBox="0 0 256 156.0764"
   sodipodi:version="0.32"
   version="1.1"
   inkscape:version="0.92.4 (5da689c313, 2019-01-14)"
   width="256"
   height="156.0764">
  <defs
     id="defs122" />
  <sodipodi:namedview
     id="base"
     bordercolor="#666666"
     inkscape:pageshadow="2"
     inkscape:window-width="1920"
     pagecolor="#ffffff"
     inkscape:zoom="1.3860387"
     inkscape:window-x="-8"
     borderopacity="1.0"
     inkscape:current-layer="Layer_1"
     inkscape:cx="73.771662"
     inkscape:cy="108.25218"
     inkscape:window-y="-8"
     inkscape:window-height="1025"
     inkscape:pageopacity="0.0"
     showgrid="false"
     inkscape:window-maximized="1"
     fit-margin-top="0"
     fit-margin-left="0"
     fit-margin-right="0"
     fit-margin-bottom="0" />
  <g
     id="g1044"
     transform="matrix(0.6554644,0,0,0.6554644,0.00760853,-0.00190998)">
    <path
       d="m 183.94,225.8 c 9.076,-0.134 18.108,-7.527 25.659,-11.91 8.015,-4.651 17.321,-7.873 24.846,-13.179 13.041,-9.195 9.697,-25.039 9.697,-39.087 V 70.797 c 0,-18.09 1.583,-36.972 -0.223,-54.999 C 242.268,-0.681 225.494,0.007 213.268,0.007 H 127.858 57.293 C 41.279,0.007 24.051,9.756 10.57,17.594 4.174,21.307 0.171,25.302 0.171,32.578 v 29.201 92.945 35.197 c 0,5.83 -1.503,10.781 4.115,13.955 7.781,4.396 20.389,3.458 29.019,3.458 9.29,0 18.68,-0.729 27.863,0.775 20.45,3.353 40.971,6.247 61.454,9.387 19.59,2.98 42.09,8.84 61.31,8.29"
       style="fill:#b2b2b2"
       id="path5"
       inkscape:connector-curvature="0" />
    <path
       d="m 224.47,205.83 c 7.63,-2.926 16.343,-7.726 18.811,-16.125 1.475,-5.02 0.856,-10.667 0.856,-15.836 V 89.723 19.893 c 0,-13.575 -11.304,-23.151 -23.97,-17.5 -24.805,11.068 -49.611,22.136 -74.416,33.205 -5.458,2.435 -5.394,1.728 -5.047,7.464 0.591,9.774 1.182,19.548 1.773,29.323 3.008,49.75 6.016,99.5 9.024,149.25 0.111,1.832 32.913,4.755 36.521,3.552 12.92,-4.3 24.59,-13.85 36.46,-19.35"
       style="fill:#999999"
       id="path7"
       inkscape:connector-curvature="0" />
    <path
       d="m 233.78,1.655 c -21.072,9.674 -42.145,19.349 -63.218,29.022 -4.383,2.012 -2.458,4.658 -1.923,9.364 1.214,10.695 2.429,21.391 3.644,32.086 5.486,48.32 10.973,96.642 16.459,144.96 9.045,-0.802 17.869,-7.509 25.456,-12.062 7.496,-4.497 15.798,-7.519 23.186,-12.11 3.873,-2.407 6.756,-4.274 6.756,-8.849 V 161.618 70.791 c 0,-17.698 2.441,-37.3 -0.15,-54.876 C 243.05,9.62 239.36,4.632 233.77,1.653"
       style="fill:#666666"
       id="path9"
       inkscape:connector-curvature="0" />
    <path
       d="m 184.09,225.8 c 9.147,-0.71 17.961,-7.323 25.605,-11.91 7.955,-4.772 17.217,-7.868 24.748,-13.179 13.041,-9.195 9.697,-25.039 9.697,-39.087 V 70.797 c 0,-17.641 1.994,-36.577 -0.15,-54.125 -0.619,-5.066 -2.031,-11.78 -7.714,-9.204 -12.885,5.842 -25.77,11.683 -38.654,17.524 -3.309,1.5 -16.122,4.687 -16.063,8.907 0.105,7.559 0.211,15.118 0.316,22.676 0.759,54.384 1.518,108.77 2.276,163.15 0,1.76 0.09,4.94 -0.09,6.08"
       style="fill:#808080"
       id="path11"
       inkscape:connector-curvature="0" />
    <path
       d="m 243.99,184.81 c 0.044,-48.78 0.088,-97.561 0.132,-146.34 0.006,-6.727 0.013,-13.455 0.019,-20.182 0.007,-7.445 -1.675,-6.211 -7.548,-3.547 -13.349,6.055 -26.697,12.11 -40.045,18.165 -5.498,2.494 -10.239,2.273 -10.152,8.322 0.883,61.322 1.766,122.64 2.648,183.97 11.775,-4.251 21.359,-12.253 32.427,-17.864 9,-4.57 23.68,-10 22.52,-22.53"
       style="fill:#adadad"
       id="path13"
       inkscape:connector-curvature="0" />
    <path
       d="m 179.44,224.14 c 17.551,0.125 16.964,-17.765 16.964,-30.215 V 107.557 46.512 c 0,-17.166 -16.868,-17.088 -29.248,-17.088 H 18.776 c -16.79,0 -17.243,15.844 -17.243,28.173 v 84.748 64.489 c 0,15.729 14.124,17.456 26.154,17.456 h 150.65 c 0.37,0.01 0.99,-0.13 1.11,-0.15"
       style="fill:#666666"
       id="path15"
       inkscape:connector-curvature="0" />
    <path
       d="m 138.9,161.24 c 5.682,0.405 8.408,-4.831 8.408,-9.735 V 114.909 75.794 c 0,-5.299 -1.344,-9.656 -7.056,-11.086 -7.85,-1.966 -18.174,-0.15 -26.17,-0.15 H 69.411 c -5.098,0 -12.994,-1.517 -16.758,3.002 -3.769,4.524 -2.027,13.319 -2.027,18.642 v 56.384 c 0,7.123 -1.818,16.443 7.055,18.655 3.591,0.895 8.096,0.149 11.73,0.149 h 27.625 c 13.426,0 28.806,1.83 41.866,-0.15"
       style="fill:#adadad"
       id="path17"
       inkscape:connector-curvature="0" />
    <path
       d="m 239.04,178.36 c -7.392,4.204 -14.782,8.408 -22.174,12.612 -3.369,1.916 -6.739,3.833 -10.109,5.75 -1.451,0.825 -0.445,7.392 -0.445,9.111 7.391,-4.17 14.783,-8.341 22.174,-12.511 3.369,-1.901 6.738,-3.803 10.108,-5.704 1.45,-0.83 0.44,-7.51 0.44,-9.26"
       style="fill:#404040"
       id="path19"
       inkscape:connector-curvature="0" />
    <path
       d="m 232.43,53.9 c -4.583,2.185 -16.063,4.517 -16.063,10.125 v 30.668 59.943 c 3.937,-2.208 16.063,-6.068 16.063,-10.859 v -29.643 -60.24"
       style="fill:#333333"
       id="path21"
       inkscape:connector-curvature="0" />
    <path
       d="m 216.22,154.49 c 5.929,-3.212 10.81,-3.417 10.81,-10.172 V 115.672 63.511 c -6.086,2.915 -10.658,2.724 -10.658,9.467 v 28.949 c 0,16.72 2.33,36.62 -0.15,52.57"
       style="fill:#1f1f1f"
       id="path23"
       inkscape:connector-curvature="0" />
    <line
       x1="344.28"
       x2="336.32001"
       y1="187.96001"
       y2="192.62"
       style="fill:none;stroke:#000000;stroke-linecap:square;stroke-miterlimit:10"
       id="line25" />
    <path
       d="m 366.2,201.02 c -6.9,3.997 -5.704,4.921 -5.704,12.93 v 22.952 c 9.543,-6.443 19.086,-12.887 28.629,-19.33 2.508,-1.693 0.945,-9.693 0.945,-12.429 v -17.484 c -3.003,1.751 -6.005,3.503 -9.008,5.254 -0.123,-0.125 0.127,-0.631 0,-0.75 -4.47,2.53 -11.81,5.14 -14.87,8.86"
       style="fill:#808080"
       id="path27"
       inkscape:connector-curvature="0" />
    <path
       d="m 216.22,117.25 0.099,-36.465 c 0.017,-5.959 0.033,-11.918 0.049,-17.877 0.006,-2.231 1.323,-1.356 3.531,-1.356 4.145,0 3.652,0.295 5.281,4.132 0.501,1.183 3.178,5.466 1.794,6.058 -4.214,1.805 -3.515,1.602 -1.794,5.777 1.297,3.149 3.803,5.373 0.349,6.852 -3.454,1.479 -0.948,3.704 0.349,6.853 1.227,2.978 2.747,3.832 -0.349,5.158 -3.454,1.479 -0.948,3.703 0.349,6.852 2.528,6.136 0.037,1.853 -1.249,5.759 -0.754,2.29 0,5.972 0,8.407 -2.81,-0.05 -5.61,-0.1 -8.41,-0.15"
       style="fill:#ffcc00"
       id="path29"
       inkscape:connector-curvature="0" />
    <path
       d="m 224.47,117.25 c 4.333,-1.966 8.666,-3.933 12.999,-5.898 4.693,-2.13 3.214,-4.769 3.214,-9.865 -4.722,2.207 -9.444,4.414 -14.166,6.62 -3.47,1.64 -1.58,6.32 -2.04,9.15"
       style="fill:#ff9900"
       id="path31"
       inkscape:connector-curvature="0" />
    <path
       d="m 224.47,117.25 c 4.333,-1.966 8.666,-3.933 12.999,-5.898 4.693,-2.13 3.214,-4.769 3.214,-9.865 -4.293,2.006 -8.585,4.012 -12.878,6.018 -4.649,2.173 -3.185,4.818 -3.185,9.895"
       style="fill:none;stroke:#000000;stroke-linecap:square;stroke-miterlimit:10"
       id="path33"
       inkscape:connector-curvature="0" />
    <path
       d="m 227.48,107.5 c 4.767,-2.207 9.533,-4.414 14.3,-6.62 3.757,-1.739 -0.839,-7.82 -2.139,-11.095 -5.105,2.363 -10.211,4.727 -15.316,7.09 -2.01,0.925 2.71,8.815 3.16,10.625"
       style="fill:#ff9900"
       id="path35"
       inkscape:connector-curvature="0" />
    <path
       d="m 227.48,107.5 c 4.767,-2.207 9.533,-4.414 14.3,-6.62 3.757,-1.739 -0.839,-7.82 -2.139,-11.095 -4.767,2.207 -9.533,4.414 -14.3,6.62 -3.766,1.743 0.949,7.841 2.29,11.095"
       style="fill:none;stroke:#000000;stroke-linecap:square;stroke-miterlimit:10"
       id="path37"
       inkscape:connector-curvature="0" />
    <path
       d="m 227.48,95.485 c 4.767,-2.207 9.533,-4.414 14.3,-6.62 3.757,-1.739 -0.839,-7.82 -2.139,-11.095 -5.105,2.363 -10.211,4.727 -15.316,7.09 -2.01,0.93 2.71,8.816 3.16,10.625"
       style="fill:#ff9900"
       id="path39"
       inkscape:connector-curvature="0" />
    <path
       d="m 227.48,95.485 c 4.767,-2.207 9.533,-4.414 14.3,-6.62 3.757,-1.739 -0.839,-7.82 -2.139,-11.095 -4.767,2.207 -9.533,4.414 -14.3,6.62 -3.766,1.743 0.949,7.841 2.29,11.095"
       style="fill:none;stroke:#000000;stroke-linecap:square;stroke-miterlimit:10"
       id="path41"
       inkscape:connector-curvature="0" />
    <path
       d="m 227.48,83.475 c 4.767,-2.207 9.533,-4.414 14.3,-6.62 3.757,-1.739 -0.839,-7.82 -2.139,-11.095 -5.105,2.363 -10.211,4.727 -15.316,7.09 -2.01,0.929 2.71,8.816 3.16,10.625"
       style="fill:#ff9900"
       id="path43"
       inkscape:connector-curvature="0" />
    <path
       d="m 227.48,83.475 c 4.767,-2.207 9.533,-4.414 14.3,-6.62 3.757,-1.739 -0.839,-7.82 -2.139,-11.095 -4.767,2.207 -9.533,4.414 -14.3,6.62 -3.766,1.743 0.949,7.841 2.29,11.095"
       style="fill:none;stroke:#000000;stroke-linecap:square;stroke-miterlimit:10"
       id="path45"
       inkscape:connector-curvature="0" />
    <path
       d="m 227.48,71.465 c 4.767,-2.207 9.533,-4.414 14.3,-6.62 3.733,-1.729 -0.815,-7.561 -2.139,-10.795 -5.105,2.364 -10.211,4.727 -15.316,7.09 -1.94,0.899 2.62,8.61 3.16,10.325"
       style="fill:#ff9900"
       id="path47"
       inkscape:connector-curvature="0" />
    <path
       d="m 227.48,71.465 c 4.767,-2.207 9.533,-4.414 14.3,-6.62 3.733,-1.729 -0.815,-7.561 -2.139,-10.795 -4.767,2.207 -9.533,4.414 -14.3,6.62 -3.743,1.732 0.927,7.582 2.29,10.795"
       style="fill:none;stroke:#000000;stroke-linecap:square;stroke-miterlimit:10"
       id="path49"
       inkscape:connector-curvature="0" />
    <path
       d="m 232.43,53.9 c -5.354,2.552 -10.708,5.104 -16.063,7.656 8.951,0 15.129,-3.738 23.27,-7.506 -2.33,0 -5.15,0.1 -7.21,-0.15"
       style="fill:#ffb300"
       id="path51"
       inkscape:connector-curvature="0" />
    <path
       d="m 232.43,145.48 c -4.458,0.124 -17.689,3.014 -16.063,9.158 5.28,-2.96 11.26,-5.68 16.06,-9.16"
       style="fill:#595959"
       id="path53"
       inkscape:connector-curvature="0" />
    <path
       d="m 135.45,157.04 c 5.388,0.18 7.807,-4.402 7.807,-9.15 V 109.068 76.491 c 0,-5.134 -4.297,-7.726 -8.87,-7.726 H 62.761 c -4.733,0 -8.08,3.516 -8.08,8.264 v 35.949 36.283 c 0,5.111 4.153,7.929 8.871,7.929 h 39.32 c 10.5,0 22.37,1.22 32.57,-0.15"
       style="fill:#666666"
       id="path55"
       inkscape:connector-curvature="0" />
    <path
       d="m 107.67,74.017 v 53.025 19.269 c 0,-0.973 21.757,1.617 23.121,0.068 1.934,-2.196 0,-14.813 0,-17.622 V 93.355 74.086 c 0.01,-0.14 -20.87,-0.072 -23.12,-0.072"
       style="fill:#292929"
       id="path57"
       inkscape:connector-curvature="0" />
    <path
       d="m 114.13,187.96 c 5.705,-5.535 12.578,-12.507 14.496,-20.489 2.3,-9.571 -0.417,-19.865 -1.585,-29.503 -2.343,-19.337 -7.505,-39.745 -7.505,-59.226 0,-3.503 4.425,-5.342 7.355,-3.978 4.272,1.989 2.853,8.328 2.853,12.109 v 44.317 14.052 c 0,2.616 3.753,1.681 3.753,-1.342 v -36.861 c 0,-8.905 1.325,-18.944 0,-27.772 -0.878,-5.847 -5.129,-9.182 -11.26,-7.956 -7.533,1.506 -6.174,9.034 -5.555,14.712 2.071,18.979 5.16,37.807 7.506,56.749 1.05,8.479 3.155,17.745 0.123,25.983 -1.214,3.301 -3.496,6.404 -5.752,9.071 -4.03,4.77 -5.34,4.23 -4.43,10.14"
       style="fill:#333333"
       id="path59"
       inkscape:connector-curvature="0" />
    <path
       d="m 21.351,51.948 c 10.05,0.472 10.075,-15.56 0,-15.463 -10.249,0.098 -9.663,16.233 0,15.463"
       style="fill:#adadad"
       id="path61"
       inkscape:connector-curvature="0" />
    <path
       d="m 174.03,51.948 c 10.065,0.606 10.262,-15.367 0.149,-15.463 -10.45,-0.1 -9.37,16.4 -0.15,15.463"
       style="fill:#adadad"
       id="path63"
       inkscape:connector-curvature="0" />
    <path
       d="m 20.9,207.63 c 9.967,0.433 10.039,-15.555 0,-15.464 -10.012,0.09 -9.978,15.89 0,15.46"
       style="fill:#adadad"
       id="path65"
       inkscape:connector-curvature="0" />
    <path
       d="m 173.58,207.63 c 10.003,0.432 10.197,-15.358 0.15,-15.464 -10.44,-0.11 -9.57,16.15 -0.15,15.46"
       style="fill:#adadad"
       id="path67"
       inkscape:connector-curvature="0" />
    <path
       d="m 64.288,71.014 c -10,0.15 -8.371,9.756 -7.628,16.679 1.285,11.997 2.956,23.943 4.711,35.878 3.061,20.813 10.599,44.704 -8.643,59.738 h 56.593 c 14.625,0 16.879,-21.635 15.831,-32.104 -1.603,-16.019 -4.357,-31.903 -6.418,-47.864 -1.065,-8.252 -8.763,-32.106 5.756,-32.329 -20.07,-0.007 -40.135,-0.007 -60.202,-0.007"
       style="fill:#adadad"
       id="path69"
       inkscape:connector-curvature="0" />
    <path
       d="m 98.217,109.75 c -0.503,-4.935 1.268,-17.321 -4.504,-19.667 -7.725,-3.141 -8.446,6.4 -7.957,11.042 0.469,4.455 -0.086,17.62 8.407,15.681 2.874,-0.65 4.649,-4.1 4.054,-7.05"
       style="fill:#666666"
       id="path71"
       inkscape:connector-curvature="0" />
    <path
       d="m 98.217,109.75 c 0.922,5.521 -5.022,9.851 -10.059,7.807 -6.685,-2.713 -6.897,-16.759 -6.455,-22.369 0.374,-4.745 5.16,-11.179 10.658,-7.507 6.306,4.206 5.994,15.946 5.856,22.066"
       style="fill:#1f1f1f"
       id="path73"
       inkscape:connector-curvature="0" />
    <path
       d="M 114.13,187.96 H 80.368 60.347 c -5.6,0 -5.659,0.867 -7.618,-4.653 h 34.886 20.677 c 4.66,0 5.08,-0.33 5.84,4.65"
       style="fill:#333333"
       id="path75"
       inkscape:connector-curvature="0" />
    <path
       d="m 220.57,188.87 c -4.111,2.337 -8.223,4.673 -12.334,7.01 -2.125,1.207 -3.807,7.588 -1.928,9.504 1.219,1.244 10.233,0 11.874,0 h 69.172 63.339 c 12.936,0 24.052,-10.165 35.019,-16.514 h -165.14"
       style="fill:#bfbfbf"
       id="path77"
       inkscape:connector-curvature="0" />
    <path
       d="m 220.57,188.87 c -4.111,2.337 -8.223,4.673 -12.334,7.01 -2.125,1.207 -3.807,7.588 -1.928,9.504 1.219,1.244 10.233,0 11.874,0 h 69.172 63.339 c 12.936,0 24.052,-10.165 35.019,-16.514 h -165.14"
       style="fill:#ffcc00"
       id="path79"
       inkscape:connector-curvature="0" />
    <line
       x1="286.48001"
       x2="318"
       y1="205.98"
       y2="187.96001"
       style="fill:none;stroke:#000000;stroke-linecap:square;stroke-miterlimit:10"
       id="line81" />
    <line
       x1="290.82999"
       x2="296.38"
       y1="205.98"
       y2="202.83"
       style="fill:none;stroke:#000000;stroke-linecap:square;stroke-miterlimit:10"
       id="line83" />
    <line
       x1="295.17999"
       x2="303.29001"
       y1="205.98"
       y2="201.48"
       style="fill:none;stroke:#000000;stroke-linecap:square;stroke-miterlimit:10"
       id="line85" />
    <line
       x1="299.69"
       x2="305.09"
       y1="205.98"
       y2="202.83"
       style="fill:none;stroke:#000000;stroke-linecap:square;stroke-miterlimit:10"
       id="line87" />
    <line
       x1="304.04001"
       x2="314.25"
       y1="205.98"
       y2="200.12"
       style="fill:none;stroke:#000000;stroke-linecap:square;stroke-miterlimit:10"
       id="line89" />
    <line
       x1="308.39999"
       x2="313.79999"
       y1="205.98"
       y2="202.83"
       style="fill:none;stroke:#000000;stroke-linecap:square;stroke-miterlimit:10"
       id="line91" />
    <line
       x1="312.75"
       x2="320.85999"
       y1="205.98"
       y2="201.48"
       style="fill:none;stroke:#000000;stroke-linecap:square;stroke-miterlimit:10"
       id="line93" />
    <line
       x1="317.10001"
       x2="322.66"
       y1="205.98"
       y2="202.83"
       style="fill:none;stroke:#000000;stroke-linecap:square;stroke-miterlimit:10"
       id="line95" />
    <line
       x1="321.45999"
       x2="331.67001"
       y1="205.98"
       y2="200.12"
       style="fill:none;stroke:#000000;stroke-linecap:square;stroke-miterlimit:10"
       id="line97" />
    <line
       x1="325.81"
       x2="331.35999"
       y1="205.98"
       y2="202.83"
       style="fill:none;stroke:#000000;stroke-linecap:square;stroke-miterlimit:10"
       id="line99" />
    <line
       x1="330.31"
       x2="338.26999"
       y1="205.98"
       y2="201.48"
       style="fill:none;stroke:#000000;stroke-linecap:square;stroke-miterlimit:10"
       id="line101" />
    <line
       x1="334.67001"
       x2="340.07001"
       y1="205.98"
       y2="202.83"
       style="fill:none;stroke:#000000;stroke-linecap:square;stroke-miterlimit:10"
       id="line103" />
    <line
       x1="339.01999"
       x2="349.23001"
       y1="205.98"
       y2="200.12"
       style="fill:none;stroke:#000000;stroke-linecap:square;stroke-miterlimit:10"
       id="line105" />
    <line
       x1="343.38"
       x2="348.92999"
       y1="205.98"
       y2="202.83"
       style="fill:none;stroke:#000000;stroke-linecap:square;stroke-miterlimit:10"
       id="line107" />
    <line
       x1="347.73001"
       x2="355.84"
       y1="205.98"
       y2="201.48"
       style="fill:none;stroke:#000000;stroke-linecap:square;stroke-miterlimit:10"
       id="line109" />
    <line
       x1="352.07999"
       x2="357.64001"
       y1="205.98"
       y2="202.83"
       style="fill:none;stroke:#000000;stroke-linecap:square;stroke-miterlimit:10"
       id="line111" />
    <line
       x1="216.52"
       x2="248.03999"
       y1="205.98"
       y2="187.96001"
       style="fill:none;stroke:#000000;stroke-linecap:square;stroke-miterlimit:10"
       id="line113" />
    <line
       x1="220.87"
       x2="226.42"
       y1="205.98"
       y2="202.83"
       style="fill:none;stroke:#000000;stroke-linecap:square;stroke-miterlimit:10"
       id="line115" />
    <line
       x1="225.22"
       x2="233.33"
       y1="205.98"
       y2="201.48"
       style="fill:none;stroke:#000000;stroke-linecap:square;stroke-miterlimit:10"
       id="line117" />
    <line
       x1="229.58"
       x2="235.13"
       y1="205.98"
       y2="202.83"
       style="fill:none;stroke:#000000;stroke-linecap:square;stroke-miterlimit:10"
       id="line119" />
    <line
       x1="233.92999"
       x2="244.28999"
       y1="205.98"
       y2="200.12"
       style="fill:none;stroke:#000000;stroke-linecap:square;stroke-miterlimit:10"
       id="line121" />
    <line
       x1="238.44"
       x2="243.84"
       y1="205.98"
       y2="202.83"
       style="fill:none;stroke:#000000;stroke-linecap:square;stroke-miterlimit:10"
       id="line123" />
    <line
       x1="242.78999"
       x2="250.75"
       y1="205.98"
       y2="201.48"
       style="fill:none;stroke:#000000;stroke-linecap:square;stroke-miterlimit:10"
       id="line125" />
    <line
       x1="247.14"
       x2="252.55"
       y1="205.98"
       y2="202.83"
       style="fill:none;stroke:#000000;stroke-linecap:square;stroke-miterlimit:10"
       id="line127" />
    <line
       x1="251.5"
       x2="261.70999"
       y1="205.98"
       y2="200.12"
       style="fill:none;stroke:#000000;stroke-linecap:square;stroke-miterlimit:10"
       id="line129" />
    <line
       x1="255.85001"
       x2="261.41"
       y1="205.98"
       y2="202.83"
       style="fill:none;stroke:#000000;stroke-linecap:square;stroke-miterlimit:10"
       id="line131" />
    <line
       x1="260.20001"
       x2="268.31"
       y1="205.98"
       y2="201.48"
       style="fill:none;stroke:#000000;stroke-linecap:square;stroke-miterlimit:10"
       id="line133" />
    <line
       x1="264.56"
       x2="270.10999"
       y1="205.98"
       y2="202.83"
       style="fill:none;stroke:#000000;stroke-linecap:square;stroke-miterlimit:10"
       id="line135" />
    <line
       x1="269.06"
       x2="279.26999"
       y1="205.98"
       y2="200.12"
       style="fill:none;stroke:#000000;stroke-linecap:square;stroke-miterlimit:10"
       id="line137" />
    <line
       x1="273.42001"
       x2="278.82001"
       y1="205.98"
       y2="202.83"
       style="fill:none;stroke:#000000;stroke-linecap:square;stroke-miterlimit:10"
       id="line139" />
    <line
       x1="277.76999"
       x2="285.88"
       y1="205.98"
       y2="201.48"
       style="fill:none;stroke:#000000;stroke-linecap:square;stroke-miterlimit:10"
       id="line141" />
    <line
       x1="198.95"
       x2="209.16"
       y1="205.98"
       y2="200.12"
       style="fill:none;stroke:#000000;stroke-linecap:square;stroke-miterlimit:10"
       id="line143" />
    <line
       x1="203.31"
       x2="208.86"
       y1="205.98"
       y2="202.83"
       style="fill:none;stroke:#000000;stroke-linecap:square;stroke-miterlimit:10"
       id="line145" />
    <line
       x1="207.81"
       x2="215.77"
       y1="205.98"
       y2="201.48"
       style="fill:none;stroke:#000000;stroke-linecap:square;stroke-miterlimit:10"
       id="line147" />
    <line
       x1="282.12"
       x2="287.67999"
       y1="205.98"
       y2="202.83"
       style="fill:none;stroke:#000000;stroke-linecap:square;stroke-miterlimit:10"
       id="line149" />
    <line
       x1="212.16"
       x2="217.57001"
       y1="205.98"
       y2="202.83"
       style="fill:none;stroke:#000000;stroke-linecap:square;stroke-miterlimit:10"
       id="line151" />
    <line
       x1="313.64999"
       x2="308.23999"
       y1="187.96001"
       y2="191.12"
       style="fill:none;stroke:#000000;stroke-linecap:square;stroke-miterlimit:10"
       id="line153" />
    <line
       x1="309.29999"
       x2="301.34"
       y1="187.96001"
       y2="192.62"
       style="fill:none;stroke:#000000;stroke-linecap:square;stroke-miterlimit:10"
       id="line155" />
    <line
       x1="304.94"
       x2="299.54001"
       y1="187.96001"
       y2="191.12"
       style="fill:none;stroke:#000000;stroke-linecap:square;stroke-miterlimit:10"
       id="line157" />
    <line
       x1="300.59"
       x2="290.38"
       y1="187.96001"
       y2="193.82001"
       style="fill:none;stroke:#000000;stroke-linecap:square;stroke-miterlimit:10"
       id="line159" />
    <line
       x1="296.07999"
       x2="290.82999"
       y1="187.96001"
       y2="191.12"
       style="fill:none;stroke:#000000;stroke-linecap:square;stroke-miterlimit:10"
       id="line161" />
    <line
       x1="291.73001"
       x2="283.76999"
       y1="187.96001"
       y2="192.62"
       style="fill:none;stroke:#000000;stroke-linecap:square;stroke-miterlimit:10"
       id="line163" />
    <line
       x1="239.34"
       x2="231.38"
       y1="187.96001"
       y2="192.62"
       style="fill:none;stroke:#000000;stroke-linecap:square;stroke-miterlimit:10"
       id="line165" />
    <line
       x1="234.83"
       x2="229.58"
       y1="187.96001"
       y2="191.12"
       style="fill:none;stroke:#000000;stroke-linecap:square;stroke-miterlimit:10"
       id="line167" />
    <line
       x1="230.48"
       x2="220.42"
       y1="187.96001"
       y2="193.82001"
       style="fill:none;stroke:#000000;stroke-linecap:square;stroke-miterlimit:10"
       id="line169" />
    <line
       x1="226.13"
       x2="220.72"
       y1="187.96001"
       y2="191.12"
       style="fill:none;stroke:#000000;stroke-linecap:square;stroke-miterlimit:10"
       id="line171" />
    <line
       x1="221.77"
       x2="213.82001"
       y1="187.96001"
       y2="192.62"
       style="fill:none;stroke:#000000;stroke-linecap:square;stroke-miterlimit:10"
       id="line173" />
    <line
       x1="287.38"
       x2="281.97"
       y1="187.96001"
       y2="191.12"
       style="fill:none;stroke:#000000;stroke-linecap:square;stroke-miterlimit:10"
       id="line175" />
    <line
       x1="283.01999"
       x2="272.95999"
       y1="187.96001"
       y2="193.82001"
       style="fill:none;stroke:#000000;stroke-linecap:square;stroke-miterlimit:10"
       id="line177" />
    <line
       x1="278.67001"
       x2="273.26001"
       y1="187.96001"
       y2="191.12"
       style="fill:none;stroke:#000000;stroke-linecap:square;stroke-miterlimit:10"
       id="line179" />
    <line
       x1="274.32001"
       x2="266.35999"
       y1="187.96001"
       y2="192.62"
       style="fill:none;stroke:#000000;stroke-linecap:square;stroke-miterlimit:10"
       id="line181" />
    <line
       x1="269.95999"
       x2="264.56"
       y1="187.96001"
       y2="191.12"
       style="fill:none;stroke:#000000;stroke-linecap:square;stroke-miterlimit:10"
       id="line183" />
    <line
       x1="265.45999"
       x2="255.39999"
       y1="187.96001"
       y2="193.82001"
       style="fill:none;stroke:#000000;stroke-linecap:square;stroke-miterlimit:10"
       id="line185" />
    <line
       x1="261.10999"
       x2="255.7"
       y1="187.96001"
       y2="191.12"
       style="fill:none;stroke:#000000;stroke-linecap:square;stroke-miterlimit:10"
       id="line187" />
    <line
       x1="256.75"
       x2="248.78999"
       y1="187.96001"
       y2="192.62"
       style="fill:none;stroke:#000000;stroke-linecap:square;stroke-miterlimit:10"
       id="line189" />
    <line
       x1="252.39999"
       x2="246.99001"
       y1="187.96001"
       y2="191.12"
       style="fill:none;stroke:#000000;stroke-linecap:square;stroke-miterlimit:10"
       id="line191" />
    <line
       x1="243.69"
       x2="238.28999"
       y1="187.96001"
       y2="191.12"
       style="fill:none;stroke:#000000;stroke-linecap:square;stroke-miterlimit:10"
       id="line193" />
    <line
       x1="383.60999"
       x2="378.20999"
       y1="187.96001"
       y2="191.12"
       style="fill:none;stroke:#000000;stroke-linecap:square;stroke-miterlimit:10"
       id="line195" />
    <line
       x1="379.26001"
       x2="371.29999"
       y1="187.96001"
       y2="192.62"
       style="fill:none;stroke:#000000;stroke-linecap:square;stroke-miterlimit:10"
       id="line197" />
    <line
       x1="374.89999"
       x2="369.5"
       y1="187.96001"
       y2="191.12"
       style="fill:none;stroke:#000000;stroke-linecap:square;stroke-miterlimit:10"
       id="line199" />
    <line
       x1="370.54999"
       x2="360.34"
       y1="187.96001"
       y2="193.82001"
       style="fill:none;stroke:#000000;stroke-linecap:square;stroke-miterlimit:10"
       id="line201" />
    <line
       x1="366.20001"
       x2="360.79001"
       y1="187.96001"
       y2="191.12"
       style="fill:none;stroke:#000000;stroke-linecap:square;stroke-miterlimit:10"
       id="line203" />
    <line
       x1="361.84"
       x2="353.88"
       y1="187.96001"
       y2="192.62"
       style="fill:none;stroke:#000000;stroke-linecap:square;stroke-miterlimit:10"
       id="line205" />
    <line
       x1="357.34"
       x2="352.07999"
       y1="187.96001"
       y2="191.12"
       style="fill:none;stroke:#000000;stroke-linecap:square;stroke-miterlimit:10"
       id="line207" />
    <line
       x1="352.98001"
       x2="342.92001"
       y1="187.96001"
       y2="193.82001"
       style="fill:none;stroke:#000000;stroke-linecap:square;stroke-miterlimit:10"
       id="line209" />
    <line
       x1="348.63"
       x2="343.23001"
       y1="187.96001"
       y2="191.12"
       style="fill:none;stroke:#000000;stroke-linecap:square;stroke-miterlimit:10"
       id="line211" />
    <line
       x1="339.92001"
       x2="334.51999"
       y1="187.96001"
       y2="191.12"
       style="fill:none;stroke:#000000;stroke-linecap:square;stroke-miterlimit:10"
       id="line213" />
    <line
       x1="335.57001"
       x2="325.35999"
       y1="187.96001"
       y2="193.82001"
       style="fill:none;stroke:#000000;stroke-linecap:square;stroke-miterlimit:10"
       id="line215" />
    <line
       x1="331.22"
       x2="325.81"
       y1="187.96001"
       y2="191.12"
       style="fill:none;stroke:#000000;stroke-linecap:square;stroke-miterlimit:10"
       id="line217" />
    <line
       x1="326.70999"
       x2="318.75"
       y1="187.96001"
       y2="192.62"
       style="fill:none;stroke:#000000;stroke-linecap:square;stroke-miterlimit:10"
       id="line219" />
    <line
       x1="322.35999"
       x2="316.95001"
       y1="187.96001"
       y2="191.12"
       style="fill:none;stroke:#000000;stroke-linecap:square;stroke-miterlimit:10"
       id="line221" />
    <path
       d="m 305.39,199.07 h -1.352 c 2.303,-1.251 4.604,-2.502 6.907,-3.753 h -2.553 c 2.185,-0.779 4.623,-1.199 6.905,-1.652 -3.3,1.8 -6.6,3.6 -9.91,5.4"
       id="path223"
       inkscape:connector-curvature="0" />
    <path
       d="m 239.49,195.62 c 1.69,-0.895 10.986,-3.646 7.807,-0.301 -2.239,2.356 -8.688,2.01 -11.561,3.152 h 5.856 c -2.534,1.214 -5.775,0.601 -8.558,0.601 4.091,-2.209 10.298,-1.387 13.511,-4.504 -2.33,-0.66 -4.7,0.8 -7.06,1.05"
       id="path225"
       inkscape:connector-curvature="0" />
    <path
       d="m 377,190.97 c -4.173,2.384 -10.125,5.62 -14.863,8.257 1.816,1 1.656,0.971 3.003,2.553 2.43,-1.36 20.48,-9 11.86,-10.81"
       style="fill:#cccccc"
       id="path227"
       inkscape:connector-curvature="0" />
    <path
       d="m 388.86,188.71 c -2.952,1.752 -5.904,3.503 -8.856,5.255 -0.73,-5.832 -13.188,4.241 -16.064,5.855 3.893,3.258 -4.063,3.807 -4.504,6.756 5.469,-3.069 10.938,-6.139 16.406,-9.208 3.2,-1.79 12.48,-4.93 13.01,-8.66"
       style="fill:#adadad"
       id="path229"
       inkscape:connector-curvature="0" />
    <path
       d="m 388.86,188.71 c -2.952,1.752 -5.904,3.503 -8.856,5.255 -0.677,-3.953 -10.953,4.158 -13.324,5.489 -1.931,1.083 -1.174,1.858 -1.539,2.168 -2.052,1.736 -6.11,2.696 -5.705,6.154 5.18,-2.9 30.61,-13.19 29.42,-19.06"
       style="fill:#999999"
       id="path231"
       inkscape:connector-curvature="0" />
    <path
       d="m 357.04,205.38 c 0.05,10.909 0.101,21.818 0.15,32.728 4.474,0.46 2.252,-14.077 2.252,-17.416 0,-3.25 2.25,-16.17 -2.4,-15.31"
       style="fill:#808080"
       id="path233"
       inkscape:connector-curvature="0" />
  </g>
  <metadata
     id="metadata119">
    <rdf:RDF>
      <cc:Work>
        <dc:format>image/svg+xml</dc:format>
        <dc:type
           rdf:resource="http://purl.org/dc/dcmitype/StillImage" />
        <cc:license
           rdf:resource="http://creativecommons.org/publicdomain/zero/1.0/" />
        <dc:publisher>
          <cc:Agent
             rdf:about="http://openclipart.org/">
            <dc:title>Openclipart</dc:title>
          </cc:Agent>
        </dc:publisher>
        <dc:title>Architetto -- metro avvolgibile</dc:title>
        <dc:date>2010-03-18T15:56:10</dc:date>
        <dc:description>Drawing by Francesco 'Architetto' Rollandin. From OCAL 0.18 release.</dc:description>
        <dc:source>https://openclipart.org/detail/32185/architetto----metro-avvolgibile-by-anonymous</dc:source>
        <dc:creator>
          <cc:Agent>
            <dc:title>Anonymous</dc:title>
          </cc:Agent>
        </dc:creator>
        <dc:subject>
          <rdf:Bag>
            <rdf:li>measure</rdf:li>
            <rdf:li>measuring tape</rdf:li>
            <rdf:li>meter</rdf:li>
            <rdf:li>tools</rdf:li>
          </rdf:Bag>
        </dc:subject>
      </cc:Work>
      <cc:License
         rdf:about="http://creativecommons.org/publicdomain/zero/1.0/">
        <cc:permits
           rdf:resource="http://creativecommons.org/ns#Reproduction" />
        <cc:permits
           rdf:resource="http://creativecommons.org/ns#Distribution" />
        <cc:permits
           rdf:resource="http://creativecommons.org/ns#DerivativeWorks" />
      </cc:License>
    </rdf:RDF>
  </metadata>
</svg>
