<?xml version="1.0" encoding="utf-8"?>
<!-- Generator: Adobe Illustrator 16.0.0, SVG Export Plug-In . SVG Version: 6.00 Build 0)  -->
<!DOCTYPE svg PUBLIC "-//W3C//DTD SVG 1.1//EN" "http://www.w3.org/Graphics/SVG/1.1/DTD/svg11.dtd">
<svg version="1.1" id="Layer_1" xmlns="http://www.w3.org/2000/svg" xmlns:xlink="http://www.w3.org/1999/xlink" x="0px" y="0px"
	 width="717.391px" height="667.392px" viewBox="0 0 717.391 667.392" enable-background="new 0 0 717.391 667.392"
	 xml:space="preserve">
<g>
	
		<path fill-rule="evenodd" clip-rule="evenodd" fill="#A8A8A8" stroke="#000000" stroke-width="3" stroke-linecap="round" stroke-linejoin="round" d="
		M275.186,23.076C334.11,15.87,393.59,12.054,452.884,9.42c30.197-1.341,60.717-2.333,90.932-0.95
		c13.928,0.638,31.621,0.262,42.828,9.598c10.544,8.784,17.825,22.815,23.95,34.838c27.326,53.641,45.776,112.363,58.967,170.966
		c6.372,28.312,8.864,56.79,7.23,85.79c-0.753,13.375-2.977,27.127-7.109,39.889c-3.162,9.765-15.498,26.382-9.759,35.796
		c7.195,11.804,15.591,22.748,23.295,34.211c7.047,10.485,17.764,20.694,22.172,32.677c4.584,12.461,4.083,28.428,4.43,41.529
		c0.349,13.176,1.452,27.391-1.49,40.346c-2.074,9.134-20.407,19.023-27.717,24.038c-12.138,8.325-23.909,17.191-35.96,25.648
		c-23.214,16.291-46.634,32.479-70.53,47.751c-12.038,7.693-24.3,15.389-37.133,21.703c-13.006,6.399-24.794,12.329-35.51,0.479
		c-21.066-23.297-43.255-45.624-65.023-68.261c-42.701-44.404-84.937-89.239-127.131-134.126
		c-83.913-89.269-165.852-180.946-239.208-279.142C53.74,150.279,34.71,123.129,28.064,96.3c-1.313-5.299-5.763-12.517,0.62-15.467
		c6.718-3.105,13.543-5.691,20.658-7.781C63.937,68.765,78.61,64.94,93.404,61.4c56.191-13.445,113.017-23.903,169.594-35.527
		C267.09,25.033,271.17,24.241,275.186,23.076z"/>
	
		<path fill-rule="evenodd" clip-rule="evenodd" fill="#A8A8A8" stroke="#000000" stroke-width="3" stroke-linecap="round" stroke-linejoin="round" d="
		M24.764,84.044C46.842,65.958,84.132,64.022,111.289,60.2c30.079-4.233,60.388-6.316,90.692-8.047
		c29.18-1.667,58.668-2.816,87.898-2.049c15.724,0.413,31.535,0.539,47.228,1.703c13.328,0.989,32.532,1.196,43.869,9.051
		c22.403,15.522,33.824,51.39,44.057,75.429c11.919,28.002,20.874,57.474,30.046,86.456
		c17.592,55.589,32.289,114.533,29.769,173.195c-0.619,14.417-2.187,28.855-5.735,42.877c-3.441,13.6-11.002,26.06-14.467,39.3
		c-2.787,10.65,8.742,22.733,14.786,31.299c8.16,11.564,16.351,23.104,24.466,34.699c8.29,11.847,12.816,20.984,14.222,35.563
		c1.338,13.878,1.708,27.979,1.708,41.91c0,8.904,2.829,34.741-6.164,38.685c-4.328,1.897-14.829-0.809-19.395-1.195
		c-7.797-0.66-15.579-1.392-23.365-2.165c-116.306-11.542-230.869-41.039-343.195-72.271c-15.963-4.438-31.65-9.869-47.416-14.956
		c-12.873-4.152-27.255-7.51-38.737-14.798c-23.898-15.168-22.763-50.564-24.705-75.579c-4.687-60.378-5.552-120.768-5.918-181.297
		c-0.219-36.204,0.792-72.479,2.184-108.652c0.702-18.226,1.764-36.394,3.18-54.577C17.546,118.701,17.366,98.711,24.764,84.044z"/>
	
		<path fill-rule="evenodd" clip-rule="evenodd" fill="#FFFF54" stroke="#000000" stroke-width="3" stroke-linecap="round" stroke-linejoin="round" d="
		M258.024,518.225c125.461-24.62,145.187-199.952,83.369-291.395c-32.664-48.317-90.078-91.648-151.923-73.283
		c-60.442,17.948-91.562,72.174-104.108,130.572C62.573,390.192,138.716,529.556,258.024,518.225z"/>
	
		<path fill-rule="evenodd" clip-rule="evenodd" fill="#FFFFFF" stroke="#FFFFFF" stroke-width="1.3058" stroke-linecap="round" stroke-linejoin="round" d="
		M398.171,91.344c-8.793-11.475-17.744-22.512-32.745-25.446c-16.492-3.226-33.176-4.573-49.884-6.368
		c-31.055-3.336-62.628-1.673-93.838-1.744C159.772,57.646,97.842,68.338,36.821,77.405c-0.857,0.127-1.715,0.255-2.573,0.382
		c61.424-14.911,123.285-25.496,185.711-35.31c27.104-4.261,55.165-12.106,82.449-13.291c33.883-1.472,67.701-3.452,101.555-5.507
		c30.188-1.833,60.388-3.342,90.591-4.894c11.115-0.571,22.232-1.438,33.364-1.356c10.17,0.074,20.341,0.148,30.512,0.223
		c5.089,0.037,16.83-3.068,16.297,4.853c-29.903,6.533-59.877,11.993-89.643,19.188c-14.396,3.48-28.711,9.368-42.717,14.19
		c-12.987,4.472-24.475,8.363-24.475,24.034c0,28.176,16.502,56.25,25.881,82.208c9.914,27.443,18.396,55.587,25.734,83.822
		c3.433,13.203,6.707,26.43,9.924,39.688c31.766-8.898,62.667-20.437,93.651-31.73c15.594-5.684,31.188-11.365,46.768-17.086
		c16.743-6.148,34.638-6.916,38.039-26.29c3.606,15.658,6.892,31.429,7.721,47.503c0.707,13.708,5.415,34.676-6.302,45.43
		c-5.855,5.374-16.391,8.839-23.302,12.543c-7.683,4.119-14.807,9.621-22.072,14.425c-13.642,9.019-17.608,28.067-24.132,42.726
		c-4.844-4.191-12.753-14.836-19.355-14.462c-10.218,0.579-20.861,0.322-30.992,1.756c-8.655,1.225-16.605,5.131-25.06,7.225
		c-7.701,1.907-17.16,3.655-21.495,11.262c-3.603,6.32-3.109,16.766-3.936,23.894c-1.107,9.558-3.207,18.976-5,28.427
		c-3.268,17.223-11.873,33.001-18.09,49.231c7.763,2.957,16.293,7.854,24.654,8.724c8.964,0.933,18.276-4.207,26.354-7.163
		c16.806-6.149,32.461-17.166,47.822-26.374c16.259-9.746,33.796-15.332,50.742-23.767c18.436-9.176,26.586-22.245,35.613-39.977
		c9.179,12.358,18.482,24.491,28.112,36.5c9.838,12.268,15.427,22.671,18.338,37.952c0.63,3.305-39.158,21.289-43.662,23.668
		c-11.758,6.212-23.649,12.157-35.512,18.168c-12.266,6.214-24.673,12.17-36.62,18.981c-13.292,7.577-30.54,14.077-41.681,24.654
		c-4.862,4.616-11.906,9.289-14.899,15.493c-2.903,6.02-1.858,14.149-2.111,20.623c-0.56,14.34-1.584,28.675-2.439,42.999
		c-0.411,6.892-0.819,13.782-1.229,20.674c-1.149-13.853-2.219-27.711-3.355-41.564c-1.167-14.214-0.244-31.402-5.373-44.822
		c-10.306-26.97-29.889-54.823-48.003-77.096c-6.558-8.063,6.387-22.587,8.905-31.421c4.446-15.592,7.864-30.587,9.363-46.755
		c2.45-26.449,1.553-54.614-3.578-80.674c-8.178-41.529-16.969-81.109-30.368-121.311
		C433.525,167.728,416.69,129.513,398.171,91.344z"/>
	
		<path fill-rule="evenodd" clip-rule="evenodd" stroke="#000000" stroke-width="1.3058" stroke-linecap="round" stroke-linejoin="round" d="
		M70.468,512.918c-13.423-22.506-11.658-49.281-13.874-74.887c-2.739-31.646-5.478-63.29-8.217-94.935
		c9.944,45.319,16.639,93.522,32.994,137.13c8.972,23.922,22.529,36.978,44.204,49.923c19.995,11.941,43.396,19.794,64.653,29.325
		c-22.971-7.555-45.941-15.11-68.912-22.665C103.013,530.791,85.351,525.731,70.468,512.918L70.468,512.918z"/>
	
		<path fill-rule="evenodd" clip-rule="evenodd" stroke="#000000" stroke-width="1.3058" stroke-linecap="round" stroke-linejoin="round" d="
		M659.12,573.227l-76.714,52.717c6.026-10.242,3.625-26.992,3.501-38.441c-0.149-13.706-0.824-27.527-2.478-41.14
		c-3.277-26.991-24.016-48.534-38.941-70.472c-5.616-8.255-19.219-22.52-14.137-32.667c6.278-12.531,11.732-24.686,14.957-38.412
		c6.613-28.144,6.338-57.855,3.156-86.465c-6.361-57.21-25.688-115.401-45.817-169.076c-10.327-27.538-20.688-57.136-37.106-81.753
		c-7.736-11.599-15.963-25.035-30.873-27.591c-15.289-2.622-30.436-3.394-45.922-3.946c-53.041-1.891-106.673,7.801-159.45,4.447
		c58.537-11.604,116.841-19.264,176.528-23.231c28.534-1.896,58.068-3.528,86.604-1.131c13.571,1.14,29.152,1.6,38.799,12.487
		c9.783,11.043,17.471,23.23,24.311,36.283c27.503,52.489,47.861,111.361,61.597,168.962c13.396,56.185,20.125,115-7.369,168.138
		c-5.741,11.098,13.287,29.666,19.605,38.568c9.205,12.97,21.337,25.82,28.42,40.081c6.087,12.256,5.405,30.567,5.405,44.024
		C663.196,538.21,666.932,561.517,659.12,573.227z"/>
	
		<path fill-rule="evenodd" clip-rule="evenodd" fill="#FFFFFF" stroke="#FFFFFF" stroke-width="1.3058" stroke-linecap="round" stroke-linejoin="round" d="
		M154.387,149.756c55.383-24.616,114.068-22.527,161.888,17.401c44.751,37.365,68.655,93.99,73.789,151.141
		c4.809,53.525-8.299,102.033-33.711,149.012c16.57-23.459,30.575-48.549,37.904-76.592c7.86-30.073,9.166-56.577,6.853-87.642
		c-4.134-55.507-36.039-114.356-80.316-147.889c-21.708-16.44-51.512-28.478-79.045-28.478
		C208.936,126.708,183.897,136.439,154.387,149.756L154.387,149.756z"/>
	
		<path fill-rule="evenodd" clip-rule="evenodd" stroke="#000000" stroke-width="1.3058" stroke-linecap="round" stroke-linejoin="round" d="
		M315.112,513.295c-27.221,11.948-52.519,18.971-82.398,16.586c-30.326-2.421-56.288-16.051-79.92-34.366
		c-46.408-35.965-68.708-96.72-73.798-153.231c-4.794-53.22,9.601-100.084,34.144-146.638
		c-17.057,24.023-29.623,47.938-38.054,76.233c-8.607,28.884-7.557,58.7-6.052,88.389c2.793,55.116,36.313,111.83,78.694,145.634
		c23.227,18.526,50.972,27.485,80.074,30.902C258.774,540.442,288.066,525.731,315.112,513.295z"/>
	
		<path fill-rule="evenodd" clip-rule="evenodd" fill="#A8A8A8" stroke="#000000" stroke-width="1.3058" stroke-linecap="round" stroke-linejoin="round" d="
		M514.799,176.395c16.249-5.09,32.498-10.179,48.746-15.269c2.232-0.699,14.927-2.845,16.019-5.018
		c1.432-2.847-4.634-16.375-5.648-19.36c-8.956-26.347-18.161-53.55-32.186-77.736c-7.537-12.999-15.853-21.074-28.003-29.607
		c-11.29-7.929-27.362-6.146-40.741-6.146c-29.03,0-58.013,1.357-86.985,3.066c-41.633,2.456-84.44,3.688-125.509,11.353
		c57.366-2.029,115.786-9.146,172.967-0.418c26.77,4.086,39.171,32.112,49.639,54.541c12.364,26.49,22.569,53.851,30.892,81.865
		C514.259,174.576,514.529,175.485,514.799,176.395z"/>
	<path fill="none" stroke="#FFFFFF" stroke-width="1.3058" stroke-linecap="round" stroke-linejoin="round" d="M577.099,157.628
		c15.736,56.612,40.476,110.872,36.315,171.063c-0.997,14.421-3.241,28.863-7.396,42.749c-4.488,15.003-14.44,27.873-12.536,43.535
		c0.551,4.53,4.167,8.165,6.691,11.887c6.295,9.279,12.59,18.56,18.885,27.84c9.128,13.457,16.912,22.853,20.029,38.637
		c1.089,5.512,2.421,10.702,2.015,16.354"/>
	
		<path fill-rule="evenodd" clip-rule="evenodd" fill="#A8A8A8" stroke="#000000" stroke-width="3" stroke-linecap="round" stroke-linejoin="round" d="
		M632,521.738c12.285-3.465,23.642-3.711,32.999,5.761c6.559,6.638,2.795,29.859,3.051,38.748
		c0.284,9.854,3.278,23.569-1.157,32.962c-2.274,4.816-6.586,8.482-11.341,10.532c-2.908,1.254-14.898-1.923-15.623-0.935
		c-5.729,7.812-12.513,21.575-22.455,25.074c-12.584,4.429-15.908-1.999-17.727-12.397c-4.673-26.72-10.178-53.356-15.159-79.833
		c7.949,1.574,16.614,1.356,24.466-0.617C622.443,537.667,625.266,533.806,632,521.738z"/>
	
		<path fill-rule="evenodd" clip-rule="evenodd" fill="#FFFFFF" stroke="#FFFFFF" stroke-width="1.3058" stroke-linecap="round" stroke-linejoin="round" d="
		M663.863,532.451c3.884-8.571-6.975-9.265-12.092-6.02c-7.219,4.578-11.627,11.615-18.063,17.019
		c-11.143,9.355-26.563,7.622-39.01,14.171c-11.131,5.856,4.09,8.828,9.754,8.348c7.317-0.62,14.963-1.889,21.847-4.514
		C641.432,555.683,652.885,544.06,663.863,532.451z"/>
	
		<path fill-rule="evenodd" clip-rule="evenodd" stroke="#000000" stroke-width="1.3058" stroke-linecap="round" stroke-linejoin="round" d="
		M638.918,588.487c4.623-2.559,19.632-11.65,15.745-18.767c-3.815-6.986-19.497,0.056-24.275,2.654
		c-4.574,2.487-18.79,11.18-16.119,18.108C617.27,598.268,634.189,591.633,638.918,588.487z"/>
	
		<path fill-rule="evenodd" clip-rule="evenodd" stroke="#FFFFFF" stroke-width="2" stroke-linecap="round" stroke-linejoin="round" d="
		M534.902,248.083c5.335,34.469,10.669,68.939,16.004,103.408c0.868,5.612,0.11,26.961,12.007,21.339
		c16.418-7.757,32.835-15.515,49.253-23.272c6.585-3.111,31.846-10.207,32.913-18.101c2.184-16.138,6.77-33.541,6.738-49.81
		c-0.029-15.624-6.198-29.355-11.816-43.51c-3.141-7.915-6.282-15.829-9.423-23.744c-0.65-1.64-8.894,2.393-10.366,2.926
		C591.959,227.556,563.765,239.723,534.902,248.083z"/>
	
		<line fill="none" stroke="#FFFFFF" stroke-width="2" stroke-linecap="round" stroke-linejoin="round" x1="637.408" y1="234.234" x2="554.915" y2="264.205"/>
	
		<line fill="none" stroke="#FFFFFF" stroke-width="2" stroke-linecap="round" stroke-linejoin="round" x1="634.367" y1="222.381" x2="551.781" y2="252.451"/>
	
		<line fill="none" stroke="#FFFFFF" stroke-width="2" stroke-linecap="round" stroke-linejoin="round" x1="645.561" y1="324.98" x2="567.236" y2="357.788"/>
	
		<line fill="none" stroke="#FFFFFF" stroke-width="2" stroke-linecap="round" stroke-linejoin="round" x1="648.69" y1="303.645" x2="570.273" y2="335.128"/>
	
		<line fill="none" stroke="#FFFFFF" stroke-width="2" stroke-linecap="round" stroke-linejoin="round" x1="647.644" y1="314.744" x2="569.227" y2="346.602"/>
	
		<line fill="none" stroke="#FFFFFF" stroke-width="2" stroke-linecap="round" stroke-linejoin="round" x1="650.587" y1="291.892" x2="570.273" y2="322.897"/>
	
		<line fill="none" stroke="#FFFFFF" stroke-width="2" stroke-linecap="round" stroke-linejoin="round" x1="649.734" y1="261.638" x2="567.236" y2="291.609"/>
	
		<line fill="none" stroke="#FFFFFF" stroke-width="2" stroke-linecap="round" stroke-linejoin="round" x1="645.561" y1="251.975" x2="563.067" y2="281.839"/>
	
		<line fill="none" stroke="#FFFFFF" stroke-width="2" stroke-linecap="round" stroke-linejoin="round" x1="642.434" y1="242.01" x2="560.033" y2="272.068"/>
	
		<path fill-rule="evenodd" clip-rule="evenodd" stroke="#FFFFFF" stroke-width="2" stroke-linecap="round" stroke-linejoin="round" d="
		M631.24,214.141c-9.396-3.437-14.742,1.607-24.221,1.607c-9.268,0-14.422,1.07-23.151,4.005
		c-13.109,4.408-26.22,8.816-39.329,13.225c-12.08,4.063-12.339,2.333-9.069,15.104C566.925,236.83,598.772,222.003,631.24,214.141z
		"/>
	
		<path fill-rule="evenodd" clip-rule="evenodd" stroke="#000000" stroke-width="1.3058" stroke-linecap="round" stroke-linejoin="round" d="
		M542.77,406.816c-5.319,10.003-49.137,61.865-54.044,31.189c-7.555,14.161-15.108,28.321-22.663,42.482
		c4.949,1.117,12.177,6.638,15.903,2.636c3.955-4.248,9.743-7.142,15.188-8.955c11.492-3.828,23.997-4.629,36.039-4.77
		c-3.519-4.907-7.037-9.815-10.555-14.723c-2.898-4.042-0.461-5.779,1.729-10.255C530.501,431.886,536.635,419.351,542.77,406.816z"
		/>
	
		<path fill-rule="evenodd" clip-rule="evenodd" stroke="#000000" stroke-width="1.3058" stroke-linecap="round" stroke-linejoin="round" d="
		M620.622,382.732c-2.984,6.115-5.969,12.229-8.953,18.345c-1.091,2.235,5.482,12.805,7.814,13.32
		c6.283,1.389,20.871-17.761,24.513-22.186c2.829-3.438,7.356-7.675,8.868-11.949c2.16-6.107-0.059-5.982-6.688-5.731
		C638.399,374.824,621.841,373.753,620.622,382.732z"/>
	
		<path fill-rule="evenodd" clip-rule="evenodd" stroke="#000000" stroke-width="1.3058" stroke-linecap="round" stroke-linejoin="round" d="
		M426.521,103.197c5.686,19.423,20.009,39.828,42.65,33.864c22.863-6.022,7.442-45.646-2.823-57.85
		c3.289,13.818,15.42,42.099-1.327,52.146C447.189,142.056,431.32,116.38,426.521,103.197z"/>
	
		<path fill-rule="evenodd" clip-rule="evenodd" stroke="#000000" stroke-width="1.3058" stroke-linecap="round" stroke-linejoin="round" d="
		M446.15,148.236c10.194,2.118,23.376-3.66,30.487-10.764c10.88-10.867,3.519-19.051,4.028-31.339
		c-0.003,9.827,6.022,16.305,8.012,25.461c2.095,9.637-2.829,19.61-7.063,28.021c-3.56,7.071-10.242,22.113-18.777,23.753
		C456.28,184.629,448.292,153.786,446.15,148.236z"/>
	
		<path fill-rule="evenodd" clip-rule="evenodd" stroke="#000000" stroke-width="1.3058" stroke-linecap="round" stroke-linejoin="round" d="
		M478.865,252.536c1.801,7.935,3.603,15.87,5.403,23.804c12.386-4.026,24.771-8.052,37.156-12.079
		c4.679-1.521,8.358-0.761,7.57-5.839c-1.064-6.858-2.129-13.717-3.193-20.576C520.78,248.892,488.989,260.654,478.865,252.536
		L478.865,252.536z"/>
	
		<path fill-rule="evenodd" clip-rule="evenodd" stroke="#000000" stroke-width="1.3058" stroke-linecap="round" stroke-linejoin="round" d="
		M651.914,216.794c-0.813-8.172-14.328-8.375-14.321,0C637.599,225.202,651.214,225.068,651.914,216.794z"/>
	
		<path fill-rule="evenodd" clip-rule="evenodd" stroke="#000000" stroke-width="1.3058" stroke-linecap="round" stroke-linejoin="round" d="
		M31.022,104.33c-0.796,27.673-3.551,55.68-2.654,83.352c0.523,16.145,5.436,25.237,17.308,36.314
		c9.114,8.504,18.229,16.858,27.83,24.843c0.977-12.396,5.915-26.326,12.42-36.887c2.932-4.759,9.853-10.233,8.344-16.306
		c-1.589-6.397-12.412-9.513-17.209-12.942C51.362,164.333,39.704,133.578,31.022,104.33z"/>
	
		<path fill-rule="evenodd" clip-rule="evenodd" stroke="#A8A8A8" stroke-width="1.3058" stroke-linecap="round" stroke-linejoin="round" d="
		M384.708,570.197c9.78,13.95,19.561,27.901,29.341,41.852c2.604,3.716,10.392,5.022,14.272,7.735
		c5.494,3.84,9.153,9.416,14.226,13.655c-28.616,2.798-59.26-3.594-87.488-7.884c-28.998-4.406-57.92-9.47-86.648-15.403
		c-62.088-12.824-123.694-27.037-183.523-48.245c-22.171-7.859-41.461-16.725-60.691-30.31c5.623,29.514,45.713,36.178,69.47,43.341
		c29.506,8.896,59.043,17.701,88.606,26.41c55.627,16.388,112.283,27.776,169.425,37.256c29.354,4.87,58.783,9.396,88.282,13.285
		c14.502,1.913,29.055,3.429,43.647,4.445c6.847,0.478,13.51,0.64,20.326-0.2c2.389-0.294,0.17-12.628,0.009-14.829
		c-1.469-20.112-2.938-40.226-4.406-60.338c-0.929-12.711-11.901-24.705-18.289-35.39c-7.548-12.626-12.566-23.348-25.163-31.333
		c-11.811-7.486-24.227-14.079-36.353-21.052c-18.03-10.367-40.462-26.359-33.62-49.688c-7.668,11.841-13.721,24.111-22.52,35.23
		c-9.691,12.247-14.948,25.027-9.249,40.826c6.613,18.335,21.819,16.895,36.284,24.866
		C406.342,553.077,404.775,572.019,384.708,570.197L384.708,570.197z"/>
	
		<path fill-rule="evenodd" clip-rule="evenodd" stroke="#000000" stroke-width="1.3058" stroke-linecap="round" stroke-linejoin="round" d="
		M634.562,224.281c4.931,12.167,14.602,26.982,14.602,40.219c0,16.721-0.28,33.097-1.423,49.77
		c12.221-8.959,8.916-36.478,6.923-49.406c-1.394-9.043-3.887-17.753-6.911-26.367c-1.235-3.518-2.242-8.168-4.185-11.37
		C640.203,221.579,641.053,222.145,634.562,224.281z"/>
</g>
</svg>
