<?xml version="1.0" encoding="UTF-8" standalone="no"?>
<!-- Created with Inkscape (http://www.inkscape.org/) -->

<svg
   xmlns:dc="http://purl.org/dc/elements/1.1/"
   xmlns:cc="http://creativecommons.org/ns#"
   xmlns:rdf="http://www.w3.org/1999/02/22-rdf-syntax-ns#"
   xmlns:svg="http://www.w3.org/2000/svg"
   xmlns="http://www.w3.org/2000/svg"
   xmlns:xlink="http://www.w3.org/1999/xlink"
   xmlns:sodipodi="http://sodipodi.sourceforge.net/DTD/sodipodi-0.dtd"
   xmlns:inkscape="http://www.inkscape.org/namespaces/inkscape"
   id="svg2"
   sodipodi:docname="toolbox_02.svg"
   viewBox="0 0 256 256.00001"
   version="1.1"
   inkscape:version="0.92.4 (5da689c313, 2019-01-14)"
   width="256"
   height="256">
  <title
     id="title881">Toolbox</title>
  <defs
     id="defs4">
    <linearGradient
       id="linearGradient3628"
       inkscape:collect="always">
      <stop
         id="stop3630"
         style="stop-color:#eeeeec"
         offset="0" />
      <stop
         id="stop3632"
         style="stop-color:#d3d7cf"
         offset="1" />
    </linearGradient>
    <filter
       id="filter3617"
       height="3.2488999"
       width="1.0652"
       y="-1.1244"
       x="-0.032618001"
       inkscape:collect="always"
       style="color-interpolation-filters:sRGB">
      <feGaussianBlur
         id="feGaussianBlur3619"
         stdDeviation="3.3382075"
         inkscape:collect="always" />
    </filter>
    <linearGradient
       id="linearGradient3677"
       y2="394.89999"
       gradientUnits="userSpaceOnUse"
       x2="207.03999"
       y1="504.5"
       x1="204.45"
       inkscape:collect="always">
      <stop
         id="stop3673"
         style="stop-color:#c00000"
         offset="0" />
      <stop
         id="stop3679"
         style="stop-color:#d63333"
         offset=".77425" />
      <stop
         id="stop3675"
         style="stop-color:#c00000"
         offset="1" />
    </linearGradient>
    <linearGradient
       id="linearGradient3689"
       y2="-6.5742998"
       gradientUnits="userSpaceOnUse"
       x2="-184.2"
       y1="147.66"
       x1="-184.2"
       inkscape:collect="always"
       gradientTransform="translate(241.22,371.06)">
      <stop
         id="stop3684"
         style="stop-color:#9f0000"
         offset="0" />
      <stop
         id="stop3691"
         style="stop-color:#c00000"
         offset=".63956" />
      <stop
         id="stop3686"
         style="stop-color:#9b0000"
         offset="1" />
    </linearGradient>
    <linearGradient
       id="linearGradient3728"
       y2="397.01001"
       gradientUnits="userSpaceOnUse"
       x2="6.4636002"
       y1="336.20001"
       x1="70.809998"
       inkscape:collect="always">
      <stop
         id="stop3724"
         style="stop-color:#cc0000"
         offset="0" />
      <stop
         id="stop3726"
         style="stop-color:#a60000"
         offset="1" />
    </linearGradient>
    <linearGradient
       id="linearGradient3797"
       y2="444.48001"
       xlink:href="#linearGradient3628"
       spreadMethod="reflect"
       gradientUnits="userSpaceOnUse"
       x2="182.89999"
       gradientTransform="matrix(1.2056,0,0,-2.5343,204.32,1565.5)"
       y1="441.25"
       x1="176.25"
       inkscape:collect="always" />
    <linearGradient
       id="linearGradient3799"
       y2="444.20001"
       xlink:href="#linearGradient3628"
       spreadMethod="reflect"
       gradientUnits="userSpaceOnUse"
       x2="181.13"
       gradientTransform="matrix(1.2056,0,0,2.5343,204.32,-733.6)"
       y1="441.25"
       x1="176.25"
       inkscape:collect="always" />
    <linearGradient
       id="linearGradient3801"
       y2="444.84"
       gradientUnits="userSpaceOnUse"
       x2="188.37"
       gradientTransform="matrix(-1.2056,0,0,2.5343,645.27,-735.39)"
       y1="444.84"
       x1="195.52"
       inkscape:collect="always">
      <stop
         id="stop3690"
         style="stop-color:#ffffff"
         offset="0" />
      <stop
         id="stop3692"
         style="stop-color:#2e3436;stop-opacity:0"
         offset="1" />
    </linearGradient>
    <linearGradient
       id="linearGradient3803"
       y2="449.62"
       gradientUnits="userSpaceOnUse"
       x2="186.09"
       gradientTransform="matrix(1.2056,0,0,2.5343,207.03,-735.39)"
       y1="444.75"
       x1="179.06"
       inkscape:collect="always">
      <stop
         id="stop3703"
         style="stop-color:#000000"
         offset="0" />
      <stop
         id="stop3705"
         style="stop-color:#555753"
         offset="1" />
    </linearGradient>
    <linearGradient
       id="linearGradient3805"
       y2="455.51999"
       gradientUnits="userSpaceOnUse"
       x2="183.05"
       gradientTransform="matrix(1.2056,0,0,2.5343,204.32,-735.39)"
       y1="458.48001"
       x1="183.05"
       inkscape:collect="always">
      <stop
         id="stop3713"
         style="stop-color:#fcaf3e"
         offset="0" />
      <stop
         id="stop3715"
         style="stop-color:#c4a000"
         offset="1" />
    </linearGradient>
    <linearGradient
       id="linearGradient3807"
       y2="444.84"
       gradientUnits="userSpaceOnUse"
       x2="188.37"
       gradientTransform="matrix(-1.2056,0,0,-2.5343,645.68,1566.5)"
       y1="444.84"
       x1="195.52"
       inkscape:collect="always">
      <stop
         id="stop3660"
         style="stop-color:#2e3436"
         offset="0" />
      <stop
         id="stop3662"
         style="stop-color:#2e3436;stop-opacity:0"
         offset="1" />
    </linearGradient>
    <filter
       id="filter3846"
       height="1.7857"
       width="1.9730999"
       y="-0.39285001"
       x="-0.48657"
       inkscape:collect="always"
       style="color-interpolation-filters:sRGB">
      <feGaussianBlur
         id="feGaussianBlur3848"
         stdDeviation="4.2362626"
         inkscape:collect="always" />
    </filter>
    <linearGradient
       id="linearGradient3856"
       y2="289.17001"
       gradientUnits="userSpaceOnUse"
       x2="218.82001"
       y1="286.35001"
       x1="127.73"
       inkscape:collect="always">
      <stop
         id="stop3852"
         style="stop-color:#000000"
         offset="0" />
      <stop
         id="stop3858"
         style="stop-color:#2e3436"
         offset=".18650" />
      <stop
         id="stop3854"
         style="stop-color:#555753"
         offset="1" />
    </linearGradient>
    <filter
       id="filter3871"
       height="1.6202"
       width="1.1061"
       y="-0.31009001"
       x="-0.053027"
       inkscape:collect="always"
       style="color-interpolation-filters:sRGB">
      <feGaussianBlur
         id="feGaussianBlur3873"
         stdDeviation="8.4052313"
         inkscape:collect="always" />
    </filter>
  </defs>
  <sodipodi:namedview
     id="base"
     bordercolor="#666666"
     inkscape:pageshadow="2"
     inkscape:guide-bbox="true"
     pagecolor="#ffffff"
     inkscape:window-height="1025"
     inkscape:window-maximized="1"
     inkscape:zoom="1.4142136"
     inkscape:window-x="-8"
     showgrid="false"
     borderopacity="1.0"
     inkscape:current-layer="svg2"
     inkscape:cx="205.41936"
     inkscape:cy="114.63639"
     showguides="true"
     inkscape:window-y="-8"
     inkscape:window-width="1920"
     inkscape:pageopacity="0.0"
     inkscape:document-units="px"
     inkscape:pagecheckerboard="true"
     fit-margin-top="0"
     fit-margin-left="0"
     fit-margin-right="0"
     fit-margin-bottom="0" />
  <g
     id="g1038"
     transform="matrix(0.78894549,0,0,0.78894549,8.4921391,-183.80734)">
    <path
       inkscape:label="shadow"
       inkscape:connector-curvature="0"
       d="M 6.46,479.04 307.69,504.496 113.94,528.538 -78.39,507.325 6.463,479.041 Z"
       sodipodi:nodetypes="ccccc"
       style="display:none;opacity:0.80460002;fill:#000000;filter:url(#filter3871)"
       id="rect3864" />
    <g
       inkscape:label="handle"
       id="g971">
      <path
         id="path3829"
         sodipodi:nodetypes="ccccccccccccc"
         style="display:inline;fill:#000000"
         d="m 142.56,259.46 c -7.4868,0 -15.864,8.631 -15.864,15.86 v 46.375 h 15.406 v -36.219 c 0,-4.5517 3.7858,-8.1875 8.5,-8.1875 l 38.75,4.5 c 4.7142,0 8.5312,3.6671 8.5312,8.2188 v 31.688 h 13.406 v -40.375 c 0,-7.2287 -6.0444,-13.031 -13.531,-13.031 l -55.199,-8.8284 z"
         inkscape:connector-curvature="0" />
      <path
         id="path3824"
         sodipodi:nodetypes="ccccccccccccc"
         style="display:inline;fill:url(#linearGradient3856)"
         d="m 143.72,259.47 c -7.4868,0 -13.5,5.8026 -13.5,13.031 v 46.375 h 19.406 v -36.219 c 0,-4.5517 3.7858,-8.1875 8.5,-8.1875 l 38.75,4.5 c 4.7142,0 8.5312,3.6671 8.5312,8.2188 v 31.688 h 11.406 v -38.496 c 0,-7.2287 -8.287,-13.738 -15.774,-13.738 l -57.32,-7.1716 z"
         inkscape:connector-curvature="0" />
      <path
         inkscape:connector-curvature="0"
         d="m 122.42,286.89 c -3.9498,-10.012 1.6358,-21.085 12.476,-24.733 1.9963,-0.67183 4.0919,-1.0584 6.2144,-1.1465 l 0.93728,19.275 z"
         transform="matrix(0.74703,0,0,0.74703,37.073,65.704)"
         style="display:inline;opacity:0.9;fill:#ffffff;filter:url(#filter3846)"
         id="path3831" />
    </g>
    <g
       style="display:inline"
       inkscape:label="box"
       id="g1002">
      <path
         id="path3667"
         sodipodi:nodetypes="ccccccc"
         style="display:inline;fill:url(#linearGradient3677)"
         d="m 103.33,394.9 h 207.41 v 96.25 c 0,6.7238 -5.4324,12.156 -12.156,12.156 l -183.12,14 c -6.7238,0 -12.125,-5.4324 -12.125,-12.156 V 394.9 Z"
         inkscape:connector-curvature="0" />
      <path
         id="path2893"
         style="display:inline;fill:url(#linearGradient3689)"
         d="M 121.72,396.31 H -7.69 v 100.25 c 0,6.7238 5.4324,12.156 12.156,12.156 l 105.12,10 c 6.7238,0 12.125,-5.4324 12.125,-12.156 V 396.31 Z"
         inkscape:connector-curvature="0" />
      <path
         id="rect2885"
         sodipodi:nodetypes="ccccccc"
         style="display:inline;fill:url(#linearGradient3728)"
         d="M 112.32,305.1 2.34,315.76 c -7.1619,0 -12.948,5.7554 -12.948,12.92 v 68.331 h 135.84 v -78.987 c 0,-7.1648 -5.753,-12.92 -12.915,-12.92 z"
         inkscape:connector-curvature="0" />
      <path
         id="path3669"
         sodipodi:nodetypes="ccccccc"
         style="display:inline;fill:#d63333"
         d="m 123.35,304.39 177.39,16.656 c 7.1619,0 12.948,5.7554 12.948,12.92 v 62.331 H 110.438 V 317.31 c 0,-7.1648 5.753,-12.92 12.915,-12.92 z"
         inkscape:connector-curvature="0" />
    </g>
    <g
       style="display:inline"
       id="g966">
      <path
         inkscape:connector-curvature="0"
         transform="matrix(0,1.0257,-0.81486,0,459.69,317.32)"
         style="display:inline;fill:#ffffff;filter:url(#filter3617)"
         d="m 75.575,417.69 c -6.6914,13.884 0.09041,0.28855 -2.1318,4.5217 l 110.55,0.86777 c -2.2316,-4.2332 3.1142,-4.5217 -2.163,-4.5217 l -106.26,-0.87 z"
         sodipodi:nodetypes="ccccc"
         id="path3718" />
      <path
         id="path3714"
         sodipodi:nodetypes="cccccc"
         d="m 81.232,402.07 c -5.2772,0 -9.8091,4.6274 -12.031,8.8605 l 198.25,15.62 c -2.2316,-4.2332 -6.7853,-7.125 -12.062,-7.125 l -122.57,-12.21 -51.588,-5.14 z"
         style="display:inline;fill:#ffffff;filter:url(#filter3617)"
         transform="matrix(1,0,0,0.81486,44.269,-19.339)"
         inkscape:connector-curvature="0" />
      <path
         id="path3716"
         sodipodi:nodetypes="ccccc"
         transform="matrix(1,0,0,0.81486,-80.889,-8.0248)"
         style="display:inline;opacity:0.64751;fill:#ffffff;filter:url(#filter3617)"
         d="m 81.232,402.07 c -5.2772,0 -9.8091,4.6274 -12.031,8.8605 l 126.12,-12.15 c -2.2316,-4.2332 -6.7853,-7.125 -12.062,-7.125 l -102.03,10.41 z"
         inkscape:connector-curvature="0" />
      <path
         id="path3720"
         sodipodi:nodetypes="ccccc"
         transform="matrix(0,0.70852,-0.81486,0,458.98,258.15)"
         style="display:inline;fill:#ffffff;filter:url(#filter3617)"
         d="m 75.575,417.69 c -6.6914,13.884 0.09041,0.28855 -2.1318,4.5217 l 118.35,0.86777 c -2.2316,-4.2332 3.1142,-4.5217 -2.163,-4.5217 l -114.06,-0.87 z"
         inkscape:connector-curvature="0" />
    </g>
    <g
       style="display:inline"
       id="g961">
      <path
         id="rect3809"
         style="opacity:0.31801004;fill:#000000"
         sodipodi:nodetypes="ccccc"
         d="m 118.72,393.363 194.5,1 0.5,1.5 h -196.5 z"
         inkscape:connector-curvature="0" />
      <path
         id="path3812"
         sodipodi:nodetypes="ccccc"
         style="opacity:0.31801004;fill:#ffffff"
         d="m 118.72,394.87 194.5,1 0.5,1.5 h -196.5 z"
         inkscape:connector-curvature="0" />
      <path
         id="path3814"
         sodipodi:nodetypes="ccccc"
         style="opacity:0.31801004;fill:#000000"
         d="m -9.6867,392.6 127.68,1.1768 0.32188,1.5 -128.97,-0.17678 0.96562,-2.5 z"
         inkscape:connector-curvature="0" />
      <path
         id="path3816"
         sodipodi:nodetypes="ccccc"
         style="opacity:0.31801004;fill:#ffffff"
         d="m -9.3332,394.28 127.33,1 0.32188,1.5 h -128.26 l 0.61207,-2.5 z"
         inkscape:connector-curvature="0" />
    </g>
    <g
       style="display:inline"
       id="g955">
      <path
         id="path3860"
         sodipodi:nodetypes="cccccc"
         transform="matrix(1,0,0,-0.81486,38.612,842.55)"
         style="display:inline;fill:#954141;filter:url(#filter3617)"
         d="m 81.232,402.07 c -5.2772,0 -9.8091,4.6274 -12.031,8.8605 l 198.25,15.62 c -2.2316,-4.2332 -6.7853,-7.125 -12.062,-7.125 l -122.57,-12.21 -51.588,-5.14 z"
         inkscape:connector-curvature="0" />
      <path
         id="path3862"
         sodipodi:nodetypes="cccccc"
         d="m 162.55,403.81 c -5.2772,0 -9.8091,4.6274 -12.031,8.8605 l 116.93,13.884 c -2.2316,-4.2332 -6.7853,-7.125 -12.062,-7.125 l -122.57,-12.215 29.732,-3.4051 z"
         style="display:inline;fill:#6d3030;filter:url(#filter3617)"
         transform="matrix(-1,0,0,-0.81486,267.08,845.38)"
         inkscape:connector-curvature="0" />
    </g>
    <g
       inkscape:label="lock"
       id="g996">
      <path
         id="path3820"
         style="display:inline;opacity:0.15326;fill:#000000"
         d="m 213.289,359.536 -1.4142,5.3033 -1.4142,28.991 0.35355,31.82 3.5355,5.3033 6.364,-1.4142 6.7175,-2.1213 h -10.96 l -2.1213,-3.5355 -0.70711,-21.92 2.1213,-0.70711 v -6.7175 l -2.4749,-35.002 z"
         inkscape:connector-curvature="0"
         inkscape:label="lock_shadow" />
      <g
         id="g3736"
         transform="translate(-201.17,-24.797)">
        <path
           inkscape:connector-curvature="0"
           d="m 418.73,453 c -2.1253,0 -3.8429,-3.6105 -3.8429,-8.078 v -16.79 c 0,-0.55842 0.0245,-1.1372 0.0754,-1.6631 h 19.742 c 0.0509,0.52589 0.0754,1.1047 0.0754,1.6631 v 15.906 c 0,4.4674 -1.7176,8.078 -3.8429,8.078 l -12.207,0.88387 h -1e-4 z"
           style="fill:url(#linearGradient3797)"
           sodipodi:nodetypes="cccccccccc"
           id="path3639" />
        <path
           inkscape:connector-curvature="0"
           d="m 418.73,378.86 c -2.1253,0 -3.8429,3.6105 -3.8429,8.078 v 31.995 c 0,0.55843 0.0245,1.1372 0.0754,1.6631 h 19.742 c 0.0509,-0.52588 0.0754,-1.1047 0.0754,-1.6631 v -31.288 c 0,-4.4674 -1.7176,-8.078 -3.8429,-8.078 l -12.207,-0.7071 h -1e-4 z"
           style="fill:url(#linearGradient3799)"
           sodipodi:nodetypes="cccccccccc"
           id="rect3626" />
        <path
           inkscape:connector-curvature="0"
           d="m 421.19,379.35 c -2.0228,0 -3.6545,3.3616 -3.6545,7.6028 v 31.203 c 0,0.53014 0.0269,1.0847 0.0754,1.5839 h -2.4112 c -0.0485,-0.49925 -0.0753,-1.0538 -0.0753,-1.5839 v -31.203 c 0,-4.2411 1.6317,-7.6028 3.6545,-7.6028 h 2.4112 z"
           style="opacity:0.6;fill:url(#linearGradient3801)"
           sodipodi:nodetypes="ccccccccc"
           id="path3684" />
        <path
           inkscape:connector-curvature="0"
           d="m 427.12,391.72 c -1.623,0 -2.9387,2.7657 -2.9387,6.1773 0,2.315 0.61045,4.2483 1.507,5.3061 l -2.788,12.117 c 2.7516,1.4063 5.7292,1.4231 8.4769,0 l -2.8256,-12.117 c 0.89656,-1.0578 1.507,-2.9911 1.507,-5.3061 0,-3.4116 -1.3157,-6.1773 -2.9387,-6.1773 z"
           style="fill:url(#linearGradient3803)"
           id="path3696" />
        <rect
           x="417.12"
           y="420.70001"
           width="15.771"
           height="5.8239999"
           style="fill:url(#linearGradient3805)"
           id="rect3709" />
        <path
           inkscape:connector-curvature="0"
           d="m 421.61,451.8 c -2.0228,0 -3.6545,-3.3616 -3.6545,-7.6028 v -15.998 c 0,-0.53014 0.0269,-1.0847 0.0754,-1.5839 h -2.4112 c -0.0485,0.49925 -0.0754,1.0538 -0.0754,1.5839 v 15.998 c 0,4.2411 1.6317,7.6028 3.6545,7.6028 z"
           style="opacity:0.6;fill:url(#linearGradient3807)"
           id="path3730" />
        <rect
           x="417.10001"
           y="420.73999"
           width="2.875"
           height="5.5"
           style="opacity:0.82375004;fill:#bc8f15"
           id="rect3734" />
        <path
           inkscape:connector-curvature="0"
           d="m 427.25,391.84 c -0.18259,0 -0.35788,0.058 -0.53125,0.125 1.3391,0.57601 2.3438,3.0774 2.3438,6.0625 0,2.315 -0.60344,4.2546 -1.5,5.3125 l 2.8125,12.094 c -1.1972,0.62007 -2.4407,0.95374 -3.6875,1.0312 1.6203,0.10824 3.2568,-0.22555 4.8125,-1.0312 l -2.8125,-12.094 c 0.89656,-1.0578 1.5,-2.9975 1.5,-5.3125 0,-3.4116 -1.3145,-6.1875 -2.9375,-6.1875 z"
           style="fill:#888a85"
           id="path3777" />
      </g>
    </g>
  </g>
  <metadata
     id="metadata73">
    <rdf:RDF>
      <cc:Work>
        <dc:format>image/svg+xml</dc:format>
        <dc:type
           rdf:resource="http://purl.org/dc/dcmitype/StillImage" />
        <cc:license
           rdf:resource="http://creativecommons.org/publicdomain/zero/1.0/" />
        <dc:publisher>
          <cc:Agent
             rdf:about="http://openclipart.org/">
            <dc:title>OpenClipart Library</dc:title>
          </cc:Agent>
        </dc:publisher>
        <dc:title>Toolbox</dc:title>
        <dc:date>2010-11-12T21:24:32</dc:date>
        <dc:description />
        <dc:source>https://openclipart.org/detail/95359</dc:source>
        <dc:creator>
          <cc:Agent>
            <dc:title>rg1024</dc:title>
          </cc:Agent>
        </dc:creator>
        <dc:subject>
          <rdf:Bag>
            <rdf:li>3d</rdf:li>
            <rdf:li>box</rdf:li>
            <rdf:li>lunch box</rdf:li>
            <rdf:li>metallic</rdf:li>
            <rdf:li>red</rdf:li>
            <rdf:li>tools box</rdf:li>
          </rdf:Bag>
        </dc:subject>
      </cc:Work>
      <cc:License
         rdf:about="http://creativecommons.org/publicdomain/zero/1.0/">
        <cc:permits
           rdf:resource="http://creativecommons.org/ns#Reproduction" />
        <cc:permits
           rdf:resource="http://creativecommons.org/ns#Distribution" />
        <cc:permits
           rdf:resource="http://creativecommons.org/ns#DerivativeWorks" />
      </cc:License>
    </rdf:RDF>
  </metadata>
</svg>
