<?xml version="1.0" encoding="UTF-8" standalone="no"?>
<!-- Created with Inkscape (http://www.inkscape.org/) -->

<svg
   xmlns:dc="http://purl.org/dc/elements/1.1/"
   xmlns:cc="http://creativecommons.org/ns#"
   xmlns:rdf="http://www.w3.org/1999/02/22-rdf-syntax-ns#"
   xmlns:svg="http://www.w3.org/2000/svg"
   xmlns="http://www.w3.org/2000/svg"
   xmlns:sodipodi="http://sodipodi.sourceforge.net/DTD/sodipodi-0.dtd"
   xmlns:inkscape="http://www.inkscape.org/namespaces/inkscape"
   id="svg3032"
   sodipodi:docname="medal_03.svg"
   viewBox="0 0 119.06806 255.99999"
   version="1.1"
   inkscape:version="0.92.4 (5da689c313, 2019-01-14)"
   width="119.06806"
   height="256">
  <title
     id="title840">Medal</title>
  <defs
     id="defs3034">
    <linearGradient
       id="linearGradient3111"
       y2="791.73999"
       gradientUnits="userSpaceOnUse"
       x2="373.76001"
       gradientTransform="translate(1.7752,0.71429)"
       y1="607.90002"
       x1="269.70999"
       inkscape:collect="always">
      <stop
         id="stop3107"
         style="stop-color:#ffffff"
         offset="0" />
      <stop
         id="stop3109"
         style="stop-color:#ffffff;stop-opacity:0"
         offset="1" />
    </linearGradient>
    <linearGradient
       id="linearGradient3911"
       y2="683.94"
       gradientUnits="userSpaceOnUse"
       x2="-158.48"
       y1="877.27002"
       x1="-268.29999"
       inkscape:collect="always">
      <stop
         id="stop3895"
         style="stop-color:#ffde5a"
         offset="0" />
      <stop
         id="stop3901"
         style="stop-color:#ffde6a"
         offset=".50634" />
      <stop
         id="stop3903"
         style="stop-color:#ffdd75"
         offset=".62003" />
      <stop
         id="stop3897"
         style="stop-color:#ffedc1;stop-opacity:0"
         offset="1" />
    </linearGradient>
  </defs>
  <sodipodi:namedview
     id="base"
     bordercolor="#666666"
     inkscape:pageshadow="2"
     inkscape:window-y="-8"
     pagecolor="#ffffff"
     inkscape:window-height="1025"
     inkscape:window-maximized="1"
     inkscape:zoom="0.24748738"
     inkscape:window-x="-8"
     showgrid="false"
     borderopacity="1.0"
     inkscape:current-layer="svg3032"
     inkscape:cx="-1077.9971"
     inkscape:cy="-31.325264"
     inkscape:window-width="1920"
     inkscape:pageopacity="0.0"
     inkscape:document-units="px"
     fit-margin-top="0"
     fit-margin-left="0"
     fit-margin-right="0"
     fit-margin-bottom="0" />
  <g
     id="g858"
     transform="matrix(0.25336555,0,0,0.25336555,-37.013272,-2.5313398)">
    <g
       transform="matrix(1.0009,0,0,1.0009,-6.2462,46.568)"
       id="g4475">
      <path
         inkscape:connector-curvature="0"
         d="m 187.25,-26.544 v 470.09 l 50,50 2,2 48,48 2,2 48,48 2,2 40.406,40.406 h 9.1876 l 0.40625,-0.40625 42,-42 2,-2 46,-46 4,-4 46,-46 2,-2 50,-50 v -470.09 h -344 z"
         style="fill:#b50000;stroke:#5d3434;stroke-width:20"
         sodipodi:nodetypes="ccccccccccccccccccccccccccccccccccc"
         id="path4456" />
      <path
         inkscape:connector-curvature="0"
         d="m 242.86,-20.544 v 505.67 l 106.29,109.61 v -615.28 z m 175.83,0 v 614.09 l 106.28,-106.63 v -507.46 z"
         style="fill:#dc0000"
         sodipodi:nodetypes="cccccccccc"
         id="rect4379" />
      <rect
         x="182.17"
         y="-32.772999"
         width="403.04999"
         height="42.851002"
         style="color:#000000;fill:#5d3434"
         id="rect3098" />
    </g>
    <circle
       r="71.428574"
       cy="192.36218"
       cx="134.28572"
       transform="matrix(3.2266,0,0,3.2266,-52.227,164.74)"
       style="fill:#ff4646;stroke:#414141;stroke-width:2.7902"
       id="path4010" />
    <circle
       r="71.428574"
       cy="192.36218"
       cx="134.28572"
       transform="matrix(3.2266,0,0,3.2266,-52.227,164.74)"
       style="fill:#7d7d7d"
       id="path2985" />
    <circle
       r="71.428574"
       cy="192.36218"
       cx="134.28572"
       transform="matrix(0.31827,-2.6476,2.6476,0.31827,-170.96,1061.7)"
       style="fill:#868686"
       id="path4110" />
    <circle
       r="71.428574"
       cy="192.36218"
       cx="134.28572"
       transform="matrix(0.31827,-2.6476,2.6476,0.31827,-167.6,1079.5)"
       style="fill:#777777"
       id="path3782" />
    <path
       d="m 381.08,603.67 c -100.37,0 -181.75,81.372 -181.75,181.75 0,100.37 81.372,181.75 181.75,181.75 100.37,0 181.75,-81.372 181.75,-181.75 0,-100.37 -81.372,-181.75 -181.75,-181.75 z"
       inkscape:connector-curvature="0"
       style="fill:#5f5f5f"
       id="path4337" />
    <path
       inkscape:connector-curvature="0"
       d="m 381.06,566.76 c -120.75,0 -218.66,97.897 -218.66,218.66 0,120.75 97.897,218.66 218.66,218.66 120.75,0 218.66,-97.897 218.66,-218.66 0,-120.75 -97.897,-218.66 -218.66,-218.66 z m 0,36.912 c 100.37,0 181.75,81.372 181.75,181.75 0,100.37 -81.372,181.75 -181.75,181.75 -100.37,0 -181.75,-81.372 -181.75,-181.75 0,-100.37 81.372,-181.75 181.75,-181.75 z"
       style="fill:#444444;stroke:#414141;stroke-width:9.00279999"
       id="path3996" />
    <path
       d="m 381.06,566.76 c -120.75,0 -218.66,97.897 -218.66,218.66 0,120.75 97.897,218.66 218.66,218.66 120.75,0 218.66,-97.897 218.66,-218.66 0,-120.75 -97.897,-218.66 -218.66,-218.66 z m 0,36.912 c 100.37,0 181.75,81.372 181.75,181.75 0,100.37 -81.372,181.75 -181.75,181.75 -100.37,0 -181.75,-81.372 -181.75,-181.75 0,-100.37 81.372,-181.75 181.75,-181.75 z"
       inkscape:connector-curvature="0"
       style="fill:#cecec0"
       id="path3787" />
    <g
       transform="matrix(0.90028,0,0,-0.90028,508.65,1579)"
       id="g3816">
      <g
         id="g3905">
        <path
           d="m -455.37678,794.51979 71.79532,-115.61418 -62.67362,-120.8024 136.02247,4.36948 73.28114,-114.67815 64.22716,119.98366 135.954754,6.12425 -71.795314,115.61418 62.673618,120.8024 -136.022468,-4.36948 -73.28114,114.67815 -64.22716,-119.98365 z"
           inkscape:flatsided="false"
           inkscape:rounded="0"
           sodipodi:cx="-246.07317"
           sodipodi:cy="684.21112"
           inkscape:randomized="0"
           transform="matrix(0.67959,-0.016256,0.016256,0.67959,15.431,410.76)"
           sodipodi:arg2="3.1801567"
           sodipodi:arg1="2.6565579"
           sodipodi:r2="137.61061"
           sodipodi:r1="236.59248"
           sodipodi:sides="6"
           sodipodi:type="star"
           style="fill:#ffc022;fill-rule:evenodd;stroke:#b88100;stroke-width:18.06500053"
           id="path3002-8" />
        <path
           sodipodi:sides="6"
           sodipodi:r2="137.61061"
           inkscape:rounded="0"
           sodipodi:cx="-246.07317"
           sodipodi:cy="684.21112"
           inkscape:randomized="0"
           sodipodi:arg1="2.6565579"
           sodipodi:arg2="3.1801567"
           transform="matrix(0.56656,-0.013552,0.013552,0.56656,-10.534,488.76)"
           inkscape:flatsided="false"
           sodipodi:r1="236.59248"
           d="m -455.37678,794.51979 71.79532,-115.61418 -62.67362,-120.8024 136.02247,4.36948 73.28114,-114.67815 64.22716,119.98366 135.954754,6.12425 -71.795314,115.61418 62.673618,120.8024 -136.022468,-4.36948 -73.28114,114.67815 -64.22716,-119.98365 z"
           sodipodi:type="star"
           style="fill:url(#linearGradient3911);fill-rule:evenodd"
           id="path3891" />
      </g>
    </g>
    <path
       d="m 378.56,556.15 c -125.49,0 -227.22,101.73 -227.22,227.22 0,41.887 11.356,81.12 31.125,114.81 57.767,7.1639 121.32,2.1645 185.09,-17.031 101.41,-30.52 182.59,-90.65 229.23,-161.28 -27.48,-94.59 -114.77,-163.72 -218.22,-163.72 z"
       inkscape:connector-curvature="0"
       style="color:#000000;opacity:0.71680998;fill:url(#linearGradient3111)"
       id="path3100" />
  </g>
  <metadata
     id="metadata29">
    <rdf:RDF>
      <cc:Work>
        <dc:format>image/svg+xml</dc:format>
        <dc:type
           rdf:resource="http://purl.org/dc/dcmitype/StillImage" />
        <cc:license
           rdf:resource="http://creativecommons.org/publicdomain/zero/1.0/" />
        <dc:publisher>
          <cc:Agent
             rdf:about="http://openclipart.org/">
            <dc:title>OpenClipart Library</dc:title>
          </cc:Agent>
        </dc:publisher>
        <dc:title>Medal</dc:title>
        <dc:source>https://openclipart.org/detail/204525</dc:source>
      </cc:Work>
      <cc:License
         rdf:about="http://creativecommons.org/publicdomain/zero/1.0/">
        <cc:permits
           rdf:resource="http://creativecommons.org/ns#Reproduction" />
        <cc:permits
           rdf:resource="http://creativecommons.org/ns#Distribution" />
        <cc:permits
           rdf:resource="http://creativecommons.org/ns#DerivativeWorks" />
      </cc:License>
    </rdf:RDF>
  </metadata>
</svg>
