<?xml version="1.0" encoding="UTF-8" standalone="no"?>
<!-- Created with Inkscape (http://www.inkscape.org/) -->

<svg
   xmlns:dc="http://purl.org/dc/elements/1.1/"
   xmlns:cc="http://creativecommons.org/ns#"
   xmlns:rdf="http://www.w3.org/1999/02/22-rdf-syntax-ns#"
   xmlns:svg="http://www.w3.org/2000/svg"
   xmlns="http://www.w3.org/2000/svg"
   xmlns:xlink="http://www.w3.org/1999/xlink"
   xmlns:sodipodi="http://sodipodi.sourceforge.net/DTD/sodipodi-0.dtd"
   xmlns:inkscape="http://www.inkscape.org/namespaces/inkscape"
   id="svg2776"
   sodipodi:docname="medal_01_bronze.svg"
   sodipodi:modified="true"
   viewBox="0 0 189.51814 256.00001"
   sodipodi:version="0.32"
   version="1.0"
   inkscape:output_extension="org.inkscape.output.svg.inkscape"
   inkscape:version="0.92.4 (5da689c313, 2019-01-14)"
   width="189.51813"
   height="256">
  <defs
     id="defs2779">
    <radialGradient
       id="radialGradient2709"
       gradientUnits="userSpaceOnUse"
       cy="485.57001"
       cx="259.85001"
       gradientTransform="matrix(-0.27937,0.65487,-0.65888,-0.087738,657.02,359.29)"
       r="13.5"
       inkscape:collect="always">
      <stop
         id="stop3962"
         style="stop-color:#ffffff"
         offset="0" />
      <stop
         id="stop3964"
         style="stop-color:#ffffff;stop-opacity:0"
         offset="1" />
    </radialGradient>
    <linearGradient
       id="linearGradient2707"
       y2="444.97"
       xlink:href="#linearGradient4142"
       gradientUnits="userSpaceOnUse"
       x2="360.28"
       y1="80.282997"
       x1="361.19"
       inkscape:collect="always" />
    <linearGradient
       id="linearGradient2705"
       y2="444.97"
       xlink:href="#linearGradient4142"
       gradientUnits="userSpaceOnUse"
       x2="360.28"
       y1="110.54"
       x1="361.19"
       inkscape:collect="always" />
    <linearGradient
       id="linearGradient2703"
       y2="440.06"
       xlink:href="#linearGradient4142"
       gradientUnits="userSpaceOnUse"
       x2="357"
       y1="152.25999"
       x1="357.92001"
       inkscape:collect="always" />
    <linearGradient
       id="linearGradient2701"
       y2="180.48"
       xlink:href="#linearGradient4142"
       gradientUnits="userSpaceOnUse"
       x2="359.01001"
       y1="493.62"
       x1="353.59"
       inkscape:collect="always" />
    <linearGradient
       id="linearGradient4142">
      <stop
         id="stop4144"
         style="stop-color:#ffffff"
         offset="0" />
      <stop
         id="stop4146"
         style="stop-color:#ffffff;stop-opacity:0"
         offset="1" />
    </linearGradient>
    <linearGradient
       id="linearGradient3517"
       y2="25.861"
       xlink:href="#linearGradient3391"
       gradientUnits="userSpaceOnUse"
       x2="756.38"
       y1="25.861"
       x1="705.64001"
       inkscape:collect="always" />
    <linearGradient
       id="linearGradient9646"
       y2="794.38"
       xlink:href="#linearGradient3391"
       gradientUnits="userSpaceOnUse"
       x2="618.77002"
       y1="794.38"
       x1="61.585999"
       inkscape:collect="always" />
    <linearGradient
       id="linearGradient3391">
      <stop
         id="stop3393"
         style="stop-color:#ffffff;stop-opacity:0"
         offset="0" />
      <stop
         id="stop3399"
         style="stop-color:#000000"
         offset=".5" />
      <stop
         id="stop3395"
         style="stop-color:#ffffff;stop-opacity:0"
         offset="1" />
    </linearGradient>
    <linearGradient
       id="linearGradient2262"
       y2="381.28"
       gradientUnits="userSpaceOnUse"
       x2="577.03003"
       gradientTransform="matrix(0.36706,0,0,0.36706,-40.34,-43.91)"
       y1="381.28"
       x1="171.84"
       inkscape:collect="always">
      <stop
         id="stop8562"
         style="stop-color:#c2590e"
         offset="0" />
      <stop
         id="stop8564"
         style="stop-color:#e2792e"
         offset=".5" />
      <stop
         id="stop8566"
         style="stop-color:#c2590e"
         offset="1" />
    </linearGradient>
    <linearGradient
       inkscape:collect="always"
       xlink:href="#linearGradient3391"
       id="linearGradient878"
       gradientUnits="userSpaceOnUse"
       x1="61.585999"
       y1="794.38"
       x2="618.77002"
       y2="794.38" />
    <linearGradient
       inkscape:collect="always"
       xlink:href="#linearGradient3391"
       id="linearGradient880"
       gradientUnits="userSpaceOnUse"
       x1="61.585999"
       y1="794.38"
       x2="618.77002"
       y2="794.38" />
    <linearGradient
       inkscape:collect="always"
       xlink:href="#linearGradient3391"
       id="linearGradient882"
       gradientUnits="userSpaceOnUse"
       x1="61.585999"
       y1="794.38"
       x2="618.77002"
       y2="794.38" />
    <linearGradient
       inkscape:collect="always"
       xlink:href="#linearGradient3391"
       id="linearGradient884"
       gradientUnits="userSpaceOnUse"
       x1="61.585999"
       y1="794.38"
       x2="618.77002"
       y2="794.38" />
    <linearGradient
       inkscape:collect="always"
       xlink:href="#linearGradient3391"
       id="linearGradient886"
       gradientUnits="userSpaceOnUse"
       x1="705.64001"
       y1="25.861"
       x2="756.38"
       y2="25.861" />
    <linearGradient
       inkscape:collect="always"
       xlink:href="#linearGradient3391"
       id="linearGradient888"
       gradientUnits="userSpaceOnUse"
       x1="705.64001"
       y1="25.861"
       x2="756.38"
       y2="25.861" />
    <linearGradient
       inkscape:collect="always"
       xlink:href="#linearGradient3391"
       id="linearGradient890"
       gradientUnits="userSpaceOnUse"
       x1="705.64001"
       y1="25.861"
       x2="756.38"
       y2="25.861" />
    <linearGradient
       inkscape:collect="always"
       xlink:href="#linearGradient3391"
       id="linearGradient892"
       gradientUnits="userSpaceOnUse"
       x1="705.64001"
       y1="25.861"
       x2="756.38"
       y2="25.861" />
    <linearGradient
       inkscape:collect="always"
       xlink:href="#linearGradient3391"
       id="linearGradient894"
       gradientUnits="userSpaceOnUse"
       x1="61.585999"
       y1="794.38"
       x2="618.77002"
       y2="794.38" />
    <linearGradient
       inkscape:collect="always"
       xlink:href="#linearGradient3391"
       id="linearGradient896"
       gradientUnits="userSpaceOnUse"
       x1="61.585999"
       y1="794.38"
       x2="618.77002"
       y2="794.38" />
    <linearGradient
       inkscape:collect="always"
       xlink:href="#linearGradient3391"
       id="linearGradient898"
       gradientUnits="userSpaceOnUse"
       x1="61.585999"
       y1="794.38"
       x2="618.77002"
       y2="794.38" />
    <linearGradient
       inkscape:collect="always"
       xlink:href="#linearGradient3391"
       id="linearGradient900"
       gradientUnits="userSpaceOnUse"
       x1="705.64001"
       y1="25.861"
       x2="756.38"
       y2="25.861" />
    <linearGradient
       inkscape:collect="always"
       xlink:href="#linearGradient3391"
       id="linearGradient902"
       gradientUnits="userSpaceOnUse"
       x1="705.64001"
       y1="25.861"
       x2="756.38"
       y2="25.861" />
    <linearGradient
       inkscape:collect="always"
       xlink:href="#linearGradient3391"
       id="linearGradient904"
       gradientUnits="userSpaceOnUse"
       x1="705.64001"
       y1="25.861"
       x2="756.38"
       y2="25.861" />
    <linearGradient
       inkscape:collect="always"
       xlink:href="#linearGradient4142"
       id="linearGradient906"
       gradientUnits="userSpaceOnUse"
       x1="353.59"
       y1="493.62"
       x2="359.01001"
       y2="180.48" />
  </defs>
  <sodipodi:namedview
     id="base"
     bordercolor="#666666"
     inkscape:pageshadow="2"
     guidetolerance="10.0"
     pagecolor="#ffffff"
     gridtolerance="10.0"
     inkscape:showpageshadow="false"
     inkscape:zoom="1.3061134"
     objecttolerance="10.0"
     borderopacity="1.0"
     inkscape:current-layer="svg2776"
     inkscape:cx="-149.3597"
     inkscape:cy="176.20348"
     inkscape:window-y="-8"
     inkscape:window-x="-8"
     inkscape:window-height="1025"
     inkscape:pageopacity="0.0"
     inkscape:window-width="1920"
     showgrid="false"
     inkscape:window-maximized="1"
     fit-margin-top="0"
     fit-margin-left="0"
     fit-margin-right="0"
     fit-margin-bottom="0" />
  <g
     id="g2300"
     transform="matrix(0.7290613,0,0,0.7290613,-16.575209,-13.692186)">
    <g
       id="g3799"
       transform="matrix(1.2465,0.52569,-0.52569,1.2465,-549.52,-509.13)">
      <g
         id="g3801"
         transform="matrix(0.096887,0.13909,0.075379,-0.052506,646.97,345.94)">
        <path
           id="path3803"
           sodipodi:nodetypes="ccccc"
           style="fill:#ff0000"
           d="m -569.1,283.05 c 549.77,-1.39 -1.32,124.72 551.3,123.33 -0.654,81.71 -2.41,-29.39 -1.737,136.47 -547.82,1.39 -3.748,-124.85 -550.67,-123.47 0,-151.32 1.11,48.32 1.11,-136.33 z"
           inkscape:connector-curvature="0" />
        <path
           id="path3805"
           sodipodi:nodetypes="ccccc"
           style="fill:#ffffff"
           d="m -569.1,419.05 c 549.77,-1.39 -1.32,124.72 551.3,123.33 -0.654,81.71 -2.41,-29.39 -1.737,136.47 -547.82,1.39 -3.748,-124.85 -550.67,-123.47 0,-151.32 1.11,48.32 1.11,-136.33 z"
           inkscape:connector-curvature="0" />
        <path
           id="path3807"
           sodipodi:nodetypes="ccccc"
           style="fill:#000080"
           d="m -569.1,555.05 c 549.77,-1.39 -1.32,124.72 551.3,123.33 -0.654,81.71 -2.41,-29.39 -1.737,136.47 -547.82,1.39 -3.748,-124.85 -550.67,-123.47 0,-151.32 1.11,48.32 1.11,-136.33 z"
           inkscape:connector-curvature="0" />
      </g>
      <g
         id="g3809"
         style="opacity:0.39901003;fill:url(#linearGradient884)"
         transform="matrix(0.096887,0.13909,0.075379,-0.052506,567.02,270.61)">
        <path
           id="path3811"
           sodipodi:nodetypes="ccccc"
           style="opacity:1;fill:url(#linearGradient878)"
           d="m 65.077,528.48 c 549.77,-1.39 -1.319,124.71 551.3,123.32 -0.65,81.71 -2.41,-29.38 -1.74,136.47 -547.82,1.39 -3.74,-124.85 -550.67,-123.46 -0.002,-151.33 1.107,48.32 1.107,-136.33 z"
           inkscape:connector-curvature="0" />
        <path
           id="path3813"
           sodipodi:nodetypes="ccccc"
           style="opacity:1;fill:url(#linearGradient880)"
           d="m 65.077,664.48 c 549.77,-1.39 -1.319,124.71 551.3,123.32 -0.65,81.71 -2.41,-29.38 -1.74,136.47 -547.82,1.39 -3.74,-124.85 -550.67,-123.46 -0.002,-151.33 1.107,48.32 1.107,-136.33 z"
           inkscape:connector-curvature="0" />
        <path
           id="path3815"
           sodipodi:nodetypes="ccccc"
           style="opacity:1;fill:url(#linearGradient882)"
           d="m 65.077,800.48 c 549.77,-1.39 -1.319,124.71 551.3,123.32 -0.65,81.7 -2.41,-29.38 -1.74,136.5 -547.82,1.4 -3.74,-124.88 -550.67,-123.49 -0.002,-151.33 1.107,48.32 1.107,-136.33 z"
           inkscape:connector-curvature="0" />
      </g>
      <g
         id="g3817"
         transform="matrix(1.0547,1.5141,0.82056,-0.57156,-17.974,-654.25)">
        <path
           id="path3819"
           sodipodi:nodetypes="cccsssssscc"
           style="fill:#ff0000"
           d="m 697.86,0.0010473 c -50.51,-0.12754 0.12,11.4569997 -50.65,11.3289997 0.06,7.506 0.22,-2.6994997 0.16,12.537 6.29,0.016 11.01,-0.152 14.56,-0.456 3.55,-0.305 5.92,-0.747 7.51,-1.281 1.59,-0.533 2.39,-1.158 2.8,-1.83 0.42,-0.671 0.44,-1.387 0.45,-2.104 0.02,-0.717 0.04,-1.434 0.45,-2.105 0.41,-0.671 1.21,-1.296 2.79,-1.83 1.59,-0.533 3.95,-0.975 7.49,-1.28 0.06,-0.012 14.64,-12.9679997 14.44,-12.9799997 z"
           inkscape:connector-curvature="0" />
        <path
           id="path3821"
           sodipodi:nodetypes="cssssssccsssssscc"
           style="fill:#ffffff"
           d="m 683.26,12.95 c -3.55,0.304 -5.91,0.746 -7.49,1.279 -1.57,0.533 -2.36,1.157 -2.75,1.828 -0.39,0.67 -0.39,1.386 -0.39,2.102 0,0.716 0,1.432 -0.4,2.102 -0.4,0.671 -1.2,1.295 -2.79,1.828 -1.59,0.533 -3.98,0.975 -7.55,1.279 -3.57,0.304 -8.33,0.471 -14.68,0.455 0.06,7.507 0.22,-2.699 0.16,12.537 6.29,0.016 11.01,-0.151 14.56,-0.456 3.55,-0.305 5.92,-0.747 7.51,-1.28 1.59,-0.534 2.39,-1.159 2.8,-1.83 0.42,-0.671 0.44,-1.388 0.45,-2.105 0.02,-0.717 0.04,-1.433 0.45,-2.104 0.41,-0.672 1.21,-1.297 2.79,-1.83 1.59,-0.534 3.95,-0.976 7.49,-1.281 -8.12,-4.805 -8.12,-4.71 -0.16,-12.524 z"
           inkscape:connector-curvature="0" />
        <path
           id="path3823"
           sodipodi:nodetypes="csssssscccc"
           style="fill:#000080"
           d="m 683.26,25.443 c -3.55,0.305 -5.91,0.746 -7.49,1.279 -1.57,0.533 -2.36,1.158 -2.75,1.828 -0.39,0.67 -0.39,1.386 -0.39,2.102 0,0.716 0,1.432 -0.4,2.103 -0.4,0.67 -1.2,1.295 -2.79,1.828 -1.59,0.533 -3.98,0.974 -7.55,1.278 -3.57,0.305 -8.33,0.472 -14.68,0.456 0.06,7.506 0.22,-2.7 0.16,12.537 50.33,0.127 0.34,-11.47 50.59,-11.342 -0.13,-0.192 -14.79,-12.228 -14.7,-12.069 z"
           inkscape:connector-curvature="0" />
      </g>
      <g
         id="g3825"
         style="opacity:0.39899998;fill:url(#linearGradient892)"
         transform="matrix(1.0547,1.5141,0.82056,-0.57156,-80.772,-741.89)">
        <path
           id="path3827"
           sodipodi:nodetypes="cccsssssscc"
           style="opacity:0.39899998;fill:url(#linearGradient886)"
           d="m 756.28,1.4348 c -50.5,-0.1275 0.12,11.456 -50.64,11.329 0.06,7.506 0.22,-2.7 0.16,12.536 6.29,0.016 11.01,-0.151 14.56,-0.455 3.55,-0.305 5.92,-0.747 7.51,-1.281 1.58,-0.533 2.39,-1.159 2.8,-1.83 0.41,-0.671 0.43,-1.388 0.45,-2.104 0.02,-0.717 0.04,-1.434 0.45,-2.105 0.41,-0.671 1.21,-1.296 2.79,-1.83 1.58,-0.534 3.95,-0.976 7.49,-1.28 0.06,-0.012 14.64,-12.968 14.43,-12.98 z"
           inkscape:connector-curvature="0" />
        <path
           id="path3829"
           sodipodi:nodetypes="cssssssccsssssscc"
           style="opacity:0.39899998;fill:url(#linearGradient888)"
           d="m 741.69,14.384 c -3.55,0.304 -5.91,0.745 -7.49,1.279 -1.57,0.533 -2.36,1.157 -2.75,1.827 -0.39,0.671 -0.39,1.387 -0.39,2.103 0,0.716 -0.01,1.432 -0.41,2.102 -0.4,0.67 -1.19,1.295 -2.78,1.828 -1.6,0.533 -3.98,0.974 -7.55,1.279 -3.58,0.304 -8.34,0.471 -14.68,0.455 0.06,7.506 0.22,-2.699 0.16,12.537 6.29,0.016 11.01,-0.151 14.56,-0.456 3.55,-0.305 5.92,-0.747 7.51,-1.28 1.58,-0.534 2.39,-1.159 2.8,-1.83 0.41,-0.671 0.43,-1.388 0.45,-2.105 0.02,-0.717 0.04,-1.434 0.45,-2.105 0.41,-0.671 1.21,-1.296 2.79,-1.83 1.58,-0.533 3.95,-0.975 7.49,-1.28 -8.12,-4.805 -8.12,-4.71 -0.16,-12.524 z"
           inkscape:connector-curvature="0" />
        <path
           id="path3831"
           sodipodi:nodetypes="csssssscccc"
           style="opacity:0.39899998;fill:url(#linearGradient890)"
           d="m 741.69,26.877 c -3.55,0.304 -5.91,0.746 -7.49,1.279 -1.57,0.533 -2.36,1.157 -2.75,1.828 -0.39,0.67 -0.39,1.386 -0.39,2.102 0,0.716 -0.01,1.432 -0.41,2.102 -0.4,0.671 -1.19,1.295 -2.78,1.828 -1.6,0.533 -3.98,0.975 -7.55,1.279 -3.58,0.304 -8.34,0.472 -14.68,0.456 0.06,7.506 0.22,-2.7 0.16,12.536 50.32,0.128 0.34,-11.469 50.58,-11.341 -0.13,-0.192 -14.78,-12.228 -14.69,-12.069 z"
           inkscape:connector-curvature="0" />
      </g>
    </g>
    <g
       id="g3777"
       transform="matrix(1.3528,0,0,1.3528,-730.49,-211.66)">
      <g
         id="g3444"
         transform="matrix(0.096887,0.13909,0.075379,-0.052506,646.97,345.94)">
        <path
           id="path3446"
           sodipodi:nodetypes="ccccc"
           style="fill:#ff0000"
           d="m -569.1,283.05 c 549.77,-1.39 -1.32,124.72 551.3,123.33 -0.654,81.71 -2.41,-29.39 -1.737,136.47 -547.82,1.39 -3.748,-124.85 -550.67,-123.47 0,-151.32 1.11,48.32 1.11,-136.33 z"
           inkscape:connector-curvature="0" />
        <path
           id="path3448"
           sodipodi:nodetypes="ccccc"
           style="fill:#ffffff"
           d="m -569.1,419.05 c 549.77,-1.39 -1.32,124.72 551.3,123.33 -0.654,81.71 -2.41,-29.39 -1.737,136.47 -547.82,1.39 -3.748,-124.85 -550.67,-123.47 0,-151.32 1.11,48.32 1.11,-136.33 z"
           inkscape:connector-curvature="0" />
        <path
           id="path3450"
           sodipodi:nodetypes="ccccc"
           style="fill:#000080"
           d="m -569.1,555.05 c 549.77,-1.39 -1.32,124.72 551.3,123.33 -0.654,81.71 -2.41,-29.39 -1.737,136.47 -547.82,1.39 -3.748,-124.85 -550.67,-123.47 0,-151.32 1.11,48.32 1.11,-136.33 z"
           inkscape:connector-curvature="0" />
      </g>
      <g
         id="g3452"
         style="opacity:0.39901003;fill:url(#linearGradient9646)"
         transform="matrix(0.096887,0.13909,0.075379,-0.052506,567.02,270.61)">
        <path
           id="path3454"
           sodipodi:nodetypes="ccccc"
           style="opacity:1;fill:url(#linearGradient894)"
           d="m 65.077,528.48 c 549.77,-1.39 -1.319,124.71 551.3,123.32 -0.65,81.71 -2.41,-29.38 -1.74,136.47 -547.82,1.39 -3.74,-124.85 -550.67,-123.46 -0.002,-151.33 1.107,48.32 1.107,-136.33 z"
           inkscape:connector-curvature="0" />
        <path
           id="path3456"
           sodipodi:nodetypes="ccccc"
           style="opacity:1;fill:url(#linearGradient896)"
           d="m 65.077,664.48 c 549.77,-1.39 -1.319,124.71 551.3,123.32 -0.65,81.71 -2.41,-29.38 -1.74,136.47 -547.82,1.39 -3.74,-124.85 -550.67,-123.46 -0.002,-151.33 1.107,48.32 1.107,-136.33 z"
           inkscape:connector-curvature="0" />
        <path
           id="path3458"
           sodipodi:nodetypes="ccccc"
           style="opacity:1;fill:url(#linearGradient898)"
           d="m 65.077,800.48 c 549.77,-1.39 -1.319,124.71 551.3,123.32 -0.65,81.7 -2.41,-29.38 -1.74,136.5 -547.82,1.4 -3.74,-124.88 -550.67,-123.49 -0.002,-151.33 1.107,48.32 1.107,-136.33 z"
           inkscape:connector-curvature="0" />
      </g>
      <g
         id="g9451"
         transform="matrix(1.0547,1.5141,0.82056,-0.57156,-17.974,-654.25)">
        <path
           id="path9453"
           sodipodi:nodetypes="cccsssssscc"
           style="fill:#ff0000"
           d="m 697.86,0.0010473 c -50.51,-0.12754 0.12,11.4569997 -50.65,11.3289997 0.06,7.506 0.22,-2.6994997 0.16,12.537 6.29,0.016 11.01,-0.152 14.56,-0.456 3.55,-0.305 5.92,-0.747 7.51,-1.281 1.59,-0.533 2.39,-1.158 2.8,-1.83 0.42,-0.671 0.44,-1.387 0.45,-2.104 0.02,-0.717 0.04,-1.434 0.45,-2.105 0.41,-0.671 1.21,-1.296 2.79,-1.83 1.59,-0.533 3.95,-0.975 7.49,-1.28 0.06,-0.012 14.64,-12.9679997 14.44,-12.9799997 z"
           inkscape:connector-curvature="0" />
        <path
           id="path9455"
           sodipodi:nodetypes="cssssssccsssssscc"
           style="fill:#ffffff"
           d="m 683.26,12.95 c -3.55,0.304 -5.91,0.746 -7.49,1.279 -1.57,0.533 -2.36,1.157 -2.75,1.828 -0.39,0.67 -0.39,1.386 -0.39,2.102 0,0.716 0,1.432 -0.4,2.102 -0.4,0.671 -1.2,1.295 -2.79,1.828 -1.59,0.533 -3.98,0.975 -7.55,1.279 -3.57,0.304 -8.33,0.471 -14.68,0.455 0.06,7.507 0.22,-2.699 0.16,12.537 6.29,0.016 11.01,-0.151 14.56,-0.456 3.55,-0.305 5.92,-0.747 7.51,-1.28 1.59,-0.534 2.39,-1.159 2.8,-1.83 0.42,-0.671 0.44,-1.388 0.45,-2.105 0.02,-0.717 0.04,-1.433 0.45,-2.104 0.41,-0.672 1.21,-1.297 2.79,-1.83 1.59,-0.534 3.95,-0.976 7.49,-1.281 -8.12,-4.805 -8.12,-4.71 -0.16,-12.524 z"
           inkscape:connector-curvature="0" />
        <path
           id="path9457"
           sodipodi:nodetypes="csssssscccc"
           style="fill:#000080"
           d="m 683.26,25.443 c -3.55,0.305 -5.91,0.746 -7.49,1.279 -1.57,0.533 -2.36,1.158 -2.75,1.828 -0.39,0.67 -0.39,1.386 -0.39,2.102 0,0.716 0,1.432 -0.4,2.103 -0.4,0.67 -1.2,1.295 -2.79,1.828 -1.59,0.533 -3.98,0.974 -7.55,1.278 -3.57,0.305 -8.33,0.472 -14.68,0.456 0.06,7.506 0.22,-2.7 0.16,12.537 50.33,0.127 0.34,-11.47 50.59,-11.342 -0.13,-0.192 -14.79,-12.228 -14.7,-12.069 z"
           inkscape:connector-curvature="0" />
      </g>
      <g
         id="g9459"
         style="opacity:0.39899998;fill:url(#linearGradient3517)"
         transform="matrix(1.0547,1.5141,0.82056,-0.57156,-80.772,-741.89)">
        <path
           id="path9461"
           sodipodi:nodetypes="cccsssssscc"
           style="opacity:0.39899998;fill:url(#linearGradient900)"
           d="m 756.28,1.4348 c -50.5,-0.1275 0.12,11.456 -50.64,11.329 0.06,7.506 0.22,-2.7 0.16,12.536 6.29,0.016 11.01,-0.151 14.56,-0.455 3.55,-0.305 5.92,-0.747 7.51,-1.281 1.58,-0.533 2.39,-1.159 2.8,-1.83 0.41,-0.671 0.43,-1.388 0.45,-2.104 0.02,-0.717 0.04,-1.434 0.45,-2.105 0.41,-0.671 1.21,-1.296 2.79,-1.83 1.58,-0.534 3.95,-0.976 7.49,-1.28 0.06,-0.012 14.64,-12.968 14.43,-12.98 z"
           inkscape:connector-curvature="0" />
        <path
           id="path9463"
           sodipodi:nodetypes="cssssssccsssssscc"
           style="opacity:0.39899998;fill:url(#linearGradient902)"
           d="m 741.69,14.384 c -3.55,0.304 -5.91,0.745 -7.49,1.279 -1.57,0.533 -2.36,1.157 -2.75,1.827 -0.39,0.671 -0.39,1.387 -0.39,2.103 0,0.716 -0.01,1.432 -0.41,2.102 -0.4,0.67 -1.19,1.295 -2.78,1.828 -1.6,0.533 -3.98,0.974 -7.55,1.279 -3.58,0.304 -8.34,0.471 -14.68,0.455 0.06,7.506 0.22,-2.699 0.16,12.537 6.29,0.016 11.01,-0.151 14.56,-0.456 3.55,-0.305 5.92,-0.747 7.51,-1.28 1.58,-0.534 2.39,-1.159 2.8,-1.83 0.41,-0.671 0.43,-1.388 0.45,-2.105 0.02,-0.717 0.04,-1.434 0.45,-2.105 0.41,-0.671 1.21,-1.296 2.79,-1.83 1.58,-0.533 3.95,-0.975 7.49,-1.28 -8.12,-4.805 -8.12,-4.71 -0.16,-12.524 z"
           inkscape:connector-curvature="0" />
        <path
           id="path9465"
           sodipodi:nodetypes="csssssscccc"
           style="opacity:0.39899998;fill:url(#linearGradient904)"
           d="m 741.69,26.877 c -3.55,0.304 -5.91,0.746 -7.49,1.279 -1.57,0.533 -2.36,1.157 -2.75,1.828 -0.39,0.67 -0.39,1.386 -0.39,2.102 0,0.716 -0.01,1.432 -0.41,2.102 -0.4,0.671 -1.19,1.295 -2.78,1.828 -1.6,0.533 -3.98,0.975 -7.55,1.279 -3.58,0.304 -8.34,0.472 -14.68,0.456 0.06,7.506 0.22,-2.7 0.16,12.536 50.32,0.128 0.34,-11.469 50.58,-11.341 -0.13,-0.192 -14.78,-12.228 -14.69,-12.069 z"
           inkscape:connector-curvature="0" />
      </g>
    </g>
    <path
       id="path2596"
       sodipodi:nodetypes="ccccscccc"
       style="fill:url(#linearGradient2262)"
       d="m 97.099,45.098 c -28.481,0 -53.227,11.392 -65.673,28.079 h -8.691 l 0.278,27.693 c -0.95,21.71 35.352,46.12 74.815,46.12 39.462,0 73.952,-20.76 73.372,-46.12 l 0.26,-27.693 h -8.69 C 150.33,56.491 125.58,45.098 97.099,45.098 Z"
       inkscape:connector-curvature="0" />
    <ellipse
       id="path2598"
       style="opacity:0.18718998;fill:url(#linearGradient906)"
       transform="matrix(0.26987,0,0,0.20566,-2.1526,49.83)"
       cx="372.07529"
       cy="322.09503"
       rx="199.92105"
       ry="141.61075" />
    <ellipse
       id="path2600"
       style="fill:#d3701f"
       transform="matrix(0.37162,0,0,0.37162,-41.125,-48.291)"
       cx="372.07529"
       cy="322.09503"
       rx="199.92105"
       ry="141.61075" />
    <ellipse
       id="path2602"
       style="fill:#d1681d"
       transform="matrix(0.36435,0,0,0.36435,-38.533,-44.097)"
       cx="372.07529"
       cy="322.09503"
       rx="199.92105"
       ry="141.61075" />
    <ellipse
       id="path2604"
       style="opacity:0.18718998;fill:url(#linearGradient2701)"
       transform="matrix(0.26987,0,0,0.20566,-2.6486,29.496)"
       cx="372.07529"
       cy="322.09503"
       rx="199.92105"
       ry="141.61075" />
    <ellipse
       id="path2606"
       style="opacity:0.34005001;fill:url(#linearGradient2703)"
       transform="matrix(0.33011,0,0,-0.29368,-25.291,164.16)"
       cx="372.07529"
       cy="322.09503"
       rx="199.92105"
       ry="141.61075" />
    <path
       id="path2608"
       style="opacity:0.63054002;fill:url(#linearGradient2705)"
       transform="matrix(0.28435,0,0,0.25296,-8.7645,-19.528)"
       d="m 572,322.1 c 0,78.16 -89.57,141.61 -199.92,141.61 -110.36,0 -199.93,-63.45 -199.93,-141.61 0,-78.17 89.57,-141.62 199.93,-141.62 110.35,0 199.92,63.45 199.92,141.62 z"
       inkscape:connector-curvature="0" />
    <ellipse
       id="path2610"
       style="fill:#d3701f"
       transform="matrix(0.27577,0,0,0.27577,-5.0708,-20.638)"
       cx="372.07529"
       cy="322.09503"
       rx="199.92105"
       ry="141.61075" />
    <path
       id="text2884"
       style="fill:#e5893e"
       transform="scale(1.1818,0.84619)"
       d="M 123.5,76.395 96.414,85.597 105.82,112.47 84.389,93.648 65.672,115.4 71.319,87.374 43.191,82.042 70.273,72.84 60.862,45.967 82.298,64.789 101.01,43.04 95.368,71.062 123.5,76.395 M 99.341,46.386 83.552,77.441 94.009,70.853 99.341,46.386 m 20.179,30.323 -34.295,1.15 10.77,5.96 23.525,-7.11 M 103.94,109.75 84.389,79.846 85.435,92.812 103.94,109.75 m -36.281,2.3 15.893,-32.936 -10.351,8.992 -5.542,23.944 M 46.642,81.832 h 0.209 c 1.324,0 6.483,-0.348 15.475,-1.045 4.392,-0.279 10.944,-0.837 19.658,-1.673 L 70.691,73.99 c -15.893,5.228 -23.91,7.842 -24.049,7.842 M 62.744,49.313 82.925,78.173 81.357,65.416 62.744,49.313"
       inkscape:connector-curvature="0" />
    <g
       id="g2620"
       style="opacity:0.79309998"
       transform="matrix(2.0207,0,0,2.0207,-379.4,-423.55)">
      <ellipse
         id="path2622"
         style="fill:url(#linearGradient2707)"
         transform="matrix(0.11069,0,0,0.09847,194.83,206.82)"
         cx="372.07529"
         cy="322.09503"
         rx="199.92105"
         ry="141.61075" />
      <circle
         id="path2624"
         style="opacity:0.5;fill:url(#radialGradient2709)"
         inkscape:export-ydpi="47.93037"
         transform="matrix(-0.020144,-0.53615,0.93806,-0.042137,-215.63,415.63)"
         inkscape:export-xdpi="47.93037"
         cx="264.5"
         cy="486.86218"
         r="13.5" />
    </g>
  </g>
  <metadata
     id="metadata71">
    <rdf:RDF>
      <cc:Work>
        <dc:format>image/svg+xml</dc:format>
        <dc:type
           rdf:resource="http://purl.org/dc/dcmitype/StillImage" />
        <cc:license
           rdf:resource="http://creativecommons.org/publicdomain/zero/1.0/" />
        <dc:publisher>
          <cc:Agent
             rdf:about="http://openclipart.org/">
            <dc:title>OpenClipart Library</dc:title>
          </cc:Agent>
        </dc:publisher>
        <dc:title>Bronze Medallion</dc:title>
        <dc:date>2007-11-20T17:06:53</dc:date>
        <dc:description>Bronze-toned medallion with blue, white, and red ribbon</dc:description>
        <dc:source>https://openclipart.org/detail/8779</dc:source>
        <dc:creator>
          <cc:Agent>
            <dc:title>momoko</dc:title>
          </cc:Agent>
        </dc:creator>
        <dc:subject>
          <rdf:Bag>
            <rdf:li>bronze</rdf:li>
            <rdf:li>bronze medal</rdf:li>
            <rdf:li>medal</rdf:li>
            <rdf:li>medallion</rdf:li>
            <rdf:li>prize</rdf:li>
            <rdf:li>remix</rdf:li>
            <rdf:li>reward</rdf:li>
            <rdf:li>ribbon</rdf:li>
          </rdf:Bag>
        </dc:subject>
      </cc:Work>
      <cc:License
         rdf:about="http://creativecommons.org/publicdomain/zero/1.0/">
        <cc:permits
           rdf:resource="http://creativecommons.org/ns#Reproduction" />
        <cc:permits
           rdf:resource="http://creativecommons.org/ns#Distribution" />
        <cc:permits
           rdf:resource="http://creativecommons.org/ns#DerivativeWorks" />
      </cc:License>
    </rdf:RDF>
  </metadata>
</svg>
