<?xml version="1.0" encoding="UTF-8" standalone="no"?>
<!-- Created with Inkscape (http://www.inkscape.org/) -->

<svg
   xmlns:dc="http://purl.org/dc/elements/1.1/"
   xmlns:cc="http://creativecommons.org/ns#"
   xmlns:rdf="http://www.w3.org/1999/02/22-rdf-syntax-ns#"
   xmlns:svg="http://www.w3.org/2000/svg"
   xmlns="http://www.w3.org/2000/svg"
   xmlns:xlink="http://www.w3.org/1999/xlink"
   xmlns:sodipodi="http://sodipodi.sourceforge.net/DTD/sodipodi-0.dtd"
   xmlns:inkscape="http://www.inkscape.org/namespaces/inkscape"
   id="svg3518"
   sodipodi:docname="ribbon_01_blue.svg"
   viewBox="0 0 171.19707 256"
   version="1.1"
   inkscape:version="0.92.4 (5da689c313, 2019-01-14)"
   width="171.19707"
   height="256">
  <title
     id="title1034">Blue Ribbon</title>
  <defs
     id="defs3520">
    <linearGradient
       id="linearGradient3943">
      <stop
         id="stop3945"
         style="stop-color:#ffdc55"
         offset="0" />
      <stop
         id="stop3951"
         style="stop-color:#fff1ba"
         offset=".49489" />
      <stop
         id="stop3947"
         style="stop-color:#ffdf63"
         offset="1" />
    </linearGradient>
    <filter
       id="filter14654"
       style="color-interpolation-filters:sRGB">
      <feGaussianBlur
         id="feGaussianBlur14656"
         stdDeviation="3.1142856" />
    </filter>
    <linearGradient
       id="linearGradient14662">
      <stop
         id="stop14664"
         stop-color="#f9f2c3"
         offset="0" />
      <stop
         id="stop14666"
         stop-color="#e0c616"
         offset="1" />
    </linearGradient>
    <linearGradient
       id="linearGradient11372"
       y2="306.01999"
       gradientUnits="userSpaceOnUse"
       y1="306.01999"
       x2="-23.68"
       x1="-144.71001">
      <stop
         id="stop3568"
         stop-color="#fc0"
         offset="0" />
      <stop
         id="stop3580"
         stop-color="#ffd42a"
         offset=".22174" />
      <stop
         id="stop3619"
         stop-color="#ffe066"
         offset=".30522" />
      <stop
         id="stop3574"
         stop-color="#fea"
         offset=".5" />
      <stop
         id="stop3617"
         stop-color="#ffe684"
         offset=".61109" />
      <stop
         id="stop3578"
         stop-color="#ffd42a"
         offset=".76849" />
      <stop
         id="stop3570"
         stop-color="#fc0"
         offset="1" />
    </linearGradient>
    <linearGradient
       id="linearGradient12202"
       x1="114"
       gradientUnits="userSpaceOnUse"
       y1="239"
       gradientTransform="matrix(1.7825,0.34818,-0.47761,1.2994,264.54,154.01)"
       x2="114"
       y2="273">
      <stop
         id="stop4320"
         stop-color="#030162"
         offset="0" />
      <stop
         id="stop4322"
         stop-color="#284f9c"
         offset="1" />
    </linearGradient>
    <linearGradient
       id="linearGradient12199"
       x1="114"
       gradientUnits="userSpaceOnUse"
       y1="239"
       gradientTransform="matrix(-1.7825,0.34818,0.47761,1.2994,494.26,162.57)"
       x2="114"
       y2="273">
      <stop
         id="stop4326"
         stop-color="#030162"
         offset="0" />
      <stop
         id="stop4328"
         stop-color="#284f9c"
         offset="1" />
    </linearGradient>
    <linearGradient
       id="linearGradient12195"
       x1="451"
       gradientUnits="userSpaceOnUse"
       y1="27.129999"
       gradientTransform="matrix(1.6493,0,0,1.6509,-345.3,170.53)"
       x2="475"
       y2="27.129999">
      <stop
         id="stop4332"
         stop-color="#4765ad"
         offset="0" />
      <stop
         id="stop4334"
         stop-color="#001477"
         offset="1" />
    </linearGradient>
    <linearGradient
       id="linearGradient12192"
       x1="451.60999"
       gradientUnits="userSpaceOnUse"
       y1="-155.33"
       gradientTransform="matrix(1.6496,0,0,1.6505,-253.96,289.68)"
       x2="475.60999"
       y2="-155.33">
      <stop
         id="stop4338"
         stop-color="#4765ad"
         offset="0" />
      <stop
         id="stop4340"
         stop-color="#001477"
         offset="1" />
    </linearGradient>
    <linearGradient
       id="linearGradient12189"
       x1="412.01001"
       gradientUnits="userSpaceOnUse"
       y1="-284.42999"
       gradientTransform="matrix(1.6501,0,0,1.6501,-159.77,350.53)"
       x2="436.01001"
       y2="-284.42999">
      <stop
         id="stop4344"
         stop-color="#4765ad"
         offset="0" />
      <stop
         id="stop4346"
         stop-color="#001477"
         offset="1" />
    </linearGradient>
    <linearGradient
       id="linearGradient12186"
       x1="296.44"
       gradientUnits="userSpaceOnUse"
       y1="-428.29999"
       gradientTransform="matrix(1.6507,0,0,1.6495,-13.586,384.85)"
       x2="320.44"
       y2="-428.29999">
      <stop
         id="stop4350"
         stop-color="#4765ad"
         offset="0" />
      <stop
         id="stop4352"
         stop-color="#001477"
         offset="1" />
    </linearGradient>
    <linearGradient
       id="linearGradient12183"
       x1="151.27"
       gradientUnits="userSpaceOnUse"
       y1="-512.56"
       gradientTransform="matrix(1.6509,0,0,1.6493,123.72,364.65)"
       x2="175.27"
       y2="-512.56">
      <stop
         id="stop4356"
         stop-color="#4765ad"
         offset="0" />
      <stop
         id="stop4358"
         stop-color="#001477"
         offset="1" />
    </linearGradient>
    <linearGradient
       id="linearGradient12180"
       x1="-31.719"
       gradientUnits="userSpaceOnUse"
       y1="-539.38"
       gradientTransform="matrix(1.6507,0,0,1.6495,253.87,289.71)"
       x2="-7.7186999"
       y2="-539.38">
      <stop
         id="stop4362"
         stop-color="#4765ad"
         offset="0" />
      <stop
         id="stop4364"
         stop-color="#001477"
         offset="1" />
    </linearGradient>
    <linearGradient
       id="linearGradient12177"
       x1="-161.5"
       gradientUnits="userSpaceOnUse"
       y1="-512.87"
       gradientTransform="matrix(1.6503,0,0,1.6499,326.59,204.34)"
       x2="-137.5"
       y2="-512.87">
      <stop
         id="stop4368"
         stop-color="#4765ad"
         offset="0" />
      <stop
         id="stop4370"
         stop-color="#001477"
         offset="1" />
    </linearGradient>
    <linearGradient
       id="linearGradient12174"
       x1="-320.84"
       gradientUnits="userSpaceOnUse"
       y1="-420.04999"
       gradientTransform="matrix(1.6497,0,0,1.6505,382.64,65.625)"
       x2="-296.84"
       y2="-420.04999">
      <stop
         id="stop4374"
         stop-color="#4765ad"
         offset="0" />
      <stop
         id="stop4376"
         stop-color="#001477"
         offset="1" />
    </linearGradient>
    <linearGradient
       id="linearGradient12171"
       x1="-448.22"
       gradientUnits="userSpaceOnUse"
       y1="-241.53"
       gradientTransform="matrix(1.6493,0,0,1.6509,364.4,-114.55)"
       x2="-424.22"
       y2="-241.53">
      <stop
         id="stop4380"
         stop-color="#4765ad"
         offset="0" />
      <stop
         id="stop4382"
         stop-color="#001477"
         offset="1" />
    </linearGradient>
    <linearGradient
       id="linearGradient12168"
       x1="-482"
       gradientUnits="userSpaceOnUse"
       y1="-59.695"
       gradientTransform="matrix(1.6494,0,0,1.6507,292.97,-245.3)"
       x2="-458"
       y2="-59.695">
      <stop
         id="stop4386"
         stop-color="#4765ad"
         offset="0" />
      <stop
         id="stop4388"
         stop-color="#001477"
         offset="1" />
    </linearGradient>
    <linearGradient
       id="linearGradient12165"
       x1="-454.41"
       gradientUnits="userSpaceOnUse"
       y1="76.251999"
       gradientTransform="matrix(1.6498,0,0,1.6503,212.6,-321.27)"
       x2="-430.41"
       y2="76.251999">
      <stop
         id="stop4392"
         stop-color="#4765ad"
         offset="0" />
      <stop
         id="stop4394"
         stop-color="#001477"
         offset="1" />
    </linearGradient>
    <linearGradient
       id="linearGradient12162"
       x1="-366.20001"
       gradientUnits="userSpaceOnUse"
       y1="236.3"
       gradientTransform="matrix(1.6505,0,0,1.6497,73.652,-378.03)"
       x2="-342.20001"
       y2="236.3">
      <stop
         id="stop4398"
         stop-color="#4765ad"
         offset="0" />
      <stop
         id="stop4400"
         stop-color="#001477"
         offset="1" />
    </linearGradient>
    <linearGradient
       id="linearGradient12159"
       x1="-233.00999"
       gradientUnits="userSpaceOnUse"
       y1="343.64999"
       gradientTransform="matrix(1.6508,0,0,1.6493,-65.1,-379.51)"
       x2="-209.00999"
       y2="343.64999">
      <stop
         id="stop4404"
         stop-color="#4765ad"
         offset="0" />
      <stop
         id="stop4406"
         stop-color="#001477"
         offset="1" />
    </linearGradient>
    <linearGradient
       id="linearGradient12156"
       x1="-59.362"
       gradientUnits="userSpaceOnUse"
       y1="398.70001"
       gradientTransform="matrix(1.6508,0,0,1.6493,-205.41,-325.8)"
       x2="-35.362"
       y2="398.70001">
      <stop
         id="stop4410"
         stop-color="#4765ad"
         offset="0" />
      <stop
         id="stop4412"
         stop-color="#001477"
         offset="1" />
    </linearGradient>
    <linearGradient
       id="linearGradient12153"
       x1="82.417999"
       gradientUnits="userSpaceOnUse"
       y1="393.38"
       gradientTransform="matrix(1.6505,0,0,1.6496,-290.64,-252.86)"
       x2="106.42"
       y2="393.38">
      <stop
         id="stop4416"
         stop-color="#4765ad"
         offset="0" />
      <stop
         id="stop4418"
         stop-color="#001477"
         offset="1" />
    </linearGradient>
    <linearGradient
       id="linearGradient12150"
       x1="251.10001"
       gradientUnits="userSpaceOnUse"
       y1="324.03"
       gradientTransform="matrix(1.6499,0,0,1.6503,-365.16,-122.61)"
       x2="275.10001"
       y2="324.03">
      <stop
         id="stop4422"
         stop-color="#4765ad"
         offset="0" />
      <stop
         id="stop4424"
         stop-color="#001477"
         offset="1" />
    </linearGradient>
    <linearGradient
       id="linearGradient12147"
       x1="394.56"
       gradientUnits="userSpaceOnUse"
       y1="161.34"
       gradientTransform="matrix(1.6493,0,0,1.6508,-380.75,57.416)"
       x2="418.56"
       y2="161.34">
      <stop
         id="stop4428"
         stop-color="#4765ad"
         offset="0" />
      <stop
         id="stop4430"
         stop-color="#001477"
         offset="1" />
    </linearGradient>
    <linearGradient
       id="linearGradient12142"
       x1="198.02"
       gradientUnits="userSpaceOnUse"
       y1="69.139"
       gradientTransform="matrix(1.7293,0,0,1.731,33.988,161.86)"
       x2="198.02"
       y2="171.19">
      <stop
         id="stop4434"
         stop-color="#818fcc"
         offset="0" />
      <stop
         id="stop4436"
         stop-color="#0e358a"
         offset="1" />
    </linearGradient>
    <linearGradient
       id="linearGradient12144"
       x1="251.91"
       gradientUnits="userSpaceOnUse"
       y1="69.879997"
       gradientTransform="matrix(1.7293,0,0,1.731,33.988,161.86)"
       x2="251.91"
       y2="178.81">
      <stop
         id="stop4440"
         stop-color="#bac5f3"
         offset="0" />
      <stop
         id="stop4442"
         stop-color="#2e4c95"
         offset="1" />
    </linearGradient>
    <filter
       id="filter4727"
       inkscape:collect="always"
       style="color-interpolation-filters:sRGB">
      <feGaussianBlur
         id="feGaussianBlur4729"
         stdDeviation="1.4558416"
         inkscape:collect="always" />
    </filter>
    <linearGradient
       inkscape:collect="always"
       xlink:href="#linearGradient12142"
       id="linearGradient1150"
       gradientUnits="userSpaceOnUse"
       gradientTransform="matrix(1.7293,0,0,1.731,33.988,161.86)"
       x1="198.02"
       y1="69.139"
       x2="198.02"
       y2="171.19" />
    <linearGradient
       inkscape:collect="always"
       xlink:href="#linearGradient12144"
       id="linearGradient1152"
       gradientUnits="userSpaceOnUse"
       gradientTransform="matrix(1.7293,0,0,1.731,33.988,161.86)"
       x1="251.91"
       y1="69.879997"
       x2="251.91"
       y2="178.81" />
    <linearGradient
       inkscape:collect="always"
       xlink:href="#linearGradient11372"
       id="linearGradient1154"
       gradientUnits="userSpaceOnUse"
       gradientTransform="matrix(0.81664,1.0119,-1.0119,0.81664,561.2,625.06)"
       x1="-144.71001"
       y1="306.01999"
       x2="-23.68"
       y2="306.01999" />
    <linearGradient
       inkscape:collect="always"
       xlink:href="#linearGradient14662"
       id="linearGradient1156"
       gradientUnits="userSpaceOnUse"
       gradientTransform="matrix(-0.42818,0,0,-0.42723,744.88,539.27)"
       x1="1125.4"
       y1="527.60999"
       x2="619.03003"
       y2="179.8" />
    <linearGradient
       inkscape:collect="always"
       xlink:href="#linearGradient14662"
       id="linearGradient1158"
       gradientUnits="userSpaceOnUse"
       gradientTransform="matrix(-0.42818,0,0,-0.42723,744.88,539.27)"
       x1="1125.4"
       y1="527.60999"
       x2="619.03003"
       y2="179.8" />
    <linearGradient
       inkscape:collect="always"
       xlink:href="#linearGradient14662"
       id="linearGradient1160"
       gradientUnits="userSpaceOnUse"
       gradientTransform="matrix(-0.36929,0,0,-0.36847,283.17,516.34)"
       x1="1125.4"
       y1="527.60999"
       x2="619.03003"
       y2="179.8" />
    <linearGradient
       inkscape:collect="always"
       xlink:href="#linearGradient3943"
       id="linearGradient1162"
       gradientUnits="userSpaceOnUse"
       x1="345.03"
       y1="395.07999"
       x2="419.32999"
       y2="487.01999" />
  </defs>
  <sodipodi:namedview
     id="base"
     bordercolor="#666666"
     inkscape:pageshadow="2"
     inkscape:window-y="-8"
     pagecolor="#ffffff"
     inkscape:window-height="1025"
     inkscape:window-maximized="1"
     inkscape:zoom="1.979899"
     inkscape:window-x="-8"
     showgrid="false"
     borderopacity="1.0"
     inkscape:current-layer="svg3518"
     inkscape:cx="-35.54737"
     inkscape:cy="209.91239"
     inkscape:window-width="1920"
     inkscape:pageopacity="0.0"
     inkscape:document-units="px"
     fit-margin-top="0"
     fit-margin-left="0"
     fit-margin-right="0"
     fit-margin-bottom="0" />
  <g
     id="g4731"
     transform="matrix(0.69279922,0,0,0.69279922,-42.842216,-467.56472)">
    <g
       id="layer2"
       style="enable-background:new"
       transform="matrix(0.70932,0,0,0.70932,-86.288,522.88)">
      <g
         id="g12246">
        <path
           id="path11667"
           style="fill:url(#linearGradient12202)"
           inkscape:connector-curvature="0"
           d="m 401.75,492.78 -106.95,-20.89 -85.97,233.9 64.94,-20.74 42.01,41.63 z" />
        <path
           id="path11669"
           style="fill:url(#linearGradient12199)"
           inkscape:connector-curvature="0"
           d="M 357.05,501.35 464,480.46 l 85.97,233.89 -64.94,-20.74 -42.01,41.64 z" />
        <path
           id="path11671"
           style="fill:#00025b"
           inkscape:connector-curvature="0"
           d="m 377.26,231.19 c 79.7,0 144.31,64.67 144.31,144.45 0,79.78 -64.61,144.45 -144.31,144.45 -79.7,0 -144.31,-64.67 -144.31,-144.45 0,-79.78 64.61,-144.45 144.31,-144.45" />
        <rect
           id="rect11673"
           style="fill:url(#linearGradient12195)"
           transform="matrix(0.99484,0.10149,-0.10129,0.99486,0,0)"
           height="79.241997"
           width="39.583"
           y="175.7"
           x="398.51999" />
        <rect
           id="rect11675"
           style="fill:url(#linearGradient12192)"
           transform="matrix(0.88026,0.47449,-0.47376,0.88066,0,0)"
           height="79.225998"
           width="39.591"
           y="-6.3111"
           x="491.03" />
        <rect
           id="rect11677"
           style="fill:url(#linearGradient12189)"
           transform="matrix(0.70608,0.70813,-0.70743,0.70678,0,0)"
           height="79.204002"
           width="39.602001"
           y="-158.39999"
           x="520.07001" />
        <rect
           id="rect11679"
           style="fill:url(#linearGradient12186)"
           transform="matrix(0.38175,0.92427,-0.924,0.3824,0,0)"
           height="79.176003"
           width="39.616001"
           y="-361.20999"
           x="475.73999" />
        <rect
           id="rect11681"
           style="fill:url(#linearGradient12183)"
           transform="matrix(0.029943,0.99955,-0.99955,0.030002,0,0)"
           height="79.165001"
           width="39.622002"
           y="-520.28003"
           x="373.45999" />
        <rect
           id="rect11683"
           style="fill:url(#linearGradient12180)"
           transform="matrix(-0.35424,0.93516,-0.93492,-0.35485,0,0)"
           height="79.174004"
           width="39.617001"
           y="-639.57001"
           x="201.52" />
        <rect
           id="rect11685"
           style="fill:url(#linearGradient12177)"
           transform="matrix(-0.60863,0.79345,-0.79287,-0.60939,0,0)"
           height="79.194"
           width="39.606998"
           y="-681.41998"
           x="60.056" />
        <rect
           id="rect11687"
           style="fill:url(#linearGradient12174)"
           transform="matrix(-0.86582,0.50035,-0.49961,-0.86625,0,0)"
           height="79.223999"
           width="39.591999"
           y="-667.28003"
           x="-146.64" />
        <rect
           id="rect11689"
           style="fill:url(#linearGradient12171)"
           transform="matrix(-0.99846,0.055535,-0.055426,-0.99846,0,0)"
           height="79.242996"
           width="39.582001"
           y="-552.90002"
           x="-374.84" />
        <rect
           id="rect11691"
           style="fill:url(#linearGradient12168)"
           transform="matrix(-0.94368,-0.33085,0.33027,-0.94389,0,0)"
           height="79.235001"
           width="39.587002"
           y="-383.45999"
           x="-502.06" />
        <rect
           id="rect11693"
           style="fill:url(#linearGradient12165)"
           transform="matrix(-0.80817,-0.58895,0.58818,-0.80873,0,0)"
           height="79.216003"
           width="39.596001"
           y="-235.03999"
           x="-537.09998" />
        <rect
           id="rect11695"
           style="fill:url(#linearGradient12162)"
           transform="matrix(-0.52155,-0.85322,0.85276,-0.52231,0,0)"
           height="79.185997"
           width="39.611"
           y="-27.808001"
           x="-530.73999" />
        <rect
           id="rect11697"
           style="fill:url(#linearGradient12159)"
           transform="matrix(-0.18578,-0.98259,0.98252,-0.18614,0,0)"
           height="79.167"
           width="39.619999"
           y="147.7"
           x="-449.75" />
        <rect
           id="rect11699"
           style="fill:url(#linearGradient12156)"
           transform="matrix(0.20372,-0.97903,0.97895,0.20411,0,0)"
           height="79.167999"
           width="39.619999"
           y="292.20999"
           x="-303.41" />
        <rect
           id="rect11701"
           style="fill:url(#linearGradient12153)"
           transform="matrix(0.47708,-0.87886,0.87846,0.47781,0,0)"
           height="79.181999"
           width="39.612999"
           y="356.47"
           x="-154.60001" />
        <rect
           id="rect11703"
           style="fill:url(#linearGradient12150)"
           transform="matrix(0.77686,-0.62967,0.62892,0.77747,0,0)"
           height="79.211998"
           width="39.598"
           y="372.51001"
           x="49.137001" />
        <rect
           id="rect11705"
           style="fill:url(#linearGradient12147)"
           transform="matrix(0.97856,-0.20596,0.20556,0.97864,0,0)"
           height="79.239998"
           width="39.584"
           y="284.14001"
           x="270.01001" />
        <path
           id="path11707"
           style="fill:url(#linearGradient1150);stroke:url(#linearGradient1152);stroke-width:6.60029984"
           inkscape:connector-curvature="0"
           d="m 377.26,286.49 c 49.19,0 89.06,39.91 89.06,89.15 0,49.23 -39.87,89.15 -89.06,89.15 -49.19,0 -89.06,-39.92 -89.06,-89.15 0,-49.24 39.87,-89.15 89.06,-89.15" />
      </g>
    </g>
    <path
       id="path11361"
       style="fill:url(#linearGradient1154);enable-background:new"
       inkscape:connector-curvature="0"
       d="M 232.19,851.01 A 78.693545,78.693545 0 0 1 133.35,728.53 78.693545,78.693545 0 1 1 232.19,851.01 Z" />
    <g
       id="g11382"
       style="fill:none;enable-background:new"
       transform="matrix(0.53735,0,0,0.53735,-20.993,587.59)">
      <path
         id="path11384"
         inkscape:connector-curvature="0"
         style="stroke:#e07900;stroke-width:3.63330007;filter:url(#filter14654);enable-background:accumulate"
         transform="matrix(-0.42377,0,0,-0.42283,741.12,537.59)"
         d="m 1162.9,380.93 c 0,172 -139.5,311.43 -311.47,311.43 C 679.43,692.36 540,552.93 540,380.93 540,208.94 679.43,69.51 851.43,69.51 1023.4,69.505 1162.9,208.94 1162.9,380.93 Z" />
      <path
         id="path11386"
         style="stroke:url(#linearGradient1156);stroke-width:1.53799999;enable-background:accumulate"
         inkscape:connector-curvature="0"
         d="m 246.97,376.52 c 0,-73.48 59.7,-133.05 133.35,-133.05 73.64,0 133.34,59.57 133.34,133.05 0,73.48 -59.7,133.05 -133.34,133.05 -73.65,0 -133.35,-59.57 -133.35,-133.05 z" />
    </g>
    <text
       id="text3689"
       style="font-size:2.69070005px;line-height:0%;font-family:'Swis721 LtEx BT';text-align:center;text-anchor:middle;fill:#d4aa00;stroke:#f1df6c;stroke-width:0.26907;enable-background:new"
       line-height="125%"
       xml:space="preserve"
       font-size="3.7934px"
       transform="scale(1.0011,0.9989)"
       y="935.45679"
       x="303.76331">       <tspan
   id="tspan3691"
   y="935.45679"
   x="304.13644"
   style="stroke-width:0.26907" />     </text>
    <g
       id="g11429"
       style="fill:none;enable-background:new"
       transform="matrix(0.53735,0,0,0.53735,-20.993,587.59)">
      <path
         id="path11431"
         inkscape:connector-curvature="0"
         style="stroke:#e07900;stroke-width:3.63330007;filter:url(#filter14654);enable-background:accumulate"
         transform="matrix(-0.42377,0,0,-0.42283,741.12,537.59)"
         d="m 1162.9,380.93 c 0,172 -139.5,311.43 -311.47,311.43 C 679.43,692.36 540,552.93 540,380.93 540,208.94 679.43,69.51 851.43,69.51 1023.4,69.505 1162.9,208.94 1162.9,380.93 Z" />
      <path
         id="path11433"
         style="stroke:url(#linearGradient1158);stroke-width:1.53799999;enable-background:accumulate"
         inkscape:connector-curvature="0"
         d="m 246.97,376.52 c 0,-73.48 59.7,-133.05 133.35,-133.05 73.64,0 133.34,59.57 133.34,133.05 0,73.48 -59.7,133.05 -133.34,133.05 -73.65,0 -133.35,-59.57 -133.35,-133.05 z" />
    </g>
    <g
       id="g11447"
       style="fill:none;enable-background:new"
       transform="matrix(0.68775,0,0,0.68775,202.97,530.99)">
      <path
         id="path11437"
         inkscape:connector-curvature="0"
         style="stroke:#e07900;stroke-width:21.91300011;filter:url(#filter14654);enable-background:accumulate"
         transform="matrix(-0.36548,0,0,-0.36467,281.93,514.9)"
         d="m 1162.9,380.93 c 0,172 -139.5,311.43 -311.47,311.43 C 679.43,692.36 540,552.93 540,380.93 540,208.94 679.43,69.51 851.43,69.51 1023.4,69.505 1162.9,208.94 1162.9,380.93 Z" />
      <path
         id="path11439"
         style="stroke:url(#linearGradient1160);stroke-width:3.20000005;enable-background:accumulate"
         inkscape:connector-curvature="0"
         d="m -146.26,375.98 c 0,-63.37 51.489,-114.75 115.01,-114.75 63.513,0 115,51.38 115,114.75 0.003,63.38 -51.487,114.75 -115,114.75 -63.521,0 -115.01,-51.37 -115.01,-114.75 z" />
    </g>
    <path
       id="path4721"
       style="color:#000000;fill:#a06e0a;filter:url(#filter4727)"
       sodipodi:type="star"
       sodipodi:sides="5"
       inkscape:transform-center-x="0.0989281"
       sodipodi:r1="90.101982"
       sodipodi:r2="43.875156"
       inkscape:transform-center-y="-5.7255765"
       sodipodi:arg1="-0.34302394"
       sodipodi:arg2="0.29509127"
       transform="matrix(0.67647,0.016053,-0.016053,0.67647,-62.022,489.57)"
       inkscape:randomized="0"
       sodipodi:cy="433.64374"
       sodipodi:cx="373.75644"
       inkscape:rounded="0.07"
       inkscape:flatsided="false"
       d="m 458.60925,403.33916 c 1.39135,4.01979 -41.67697,38.98284 -42.87413,43.06467 -1.18231,4.03118 16.41464,56.04149 13.06364,58.5751 -3.39309,2.56543 -49.95377,-27.5908 -54.20576,-27.46801 -4.19924,0.12126 -48.22623,32.92903 -51.67135,30.52497 -3.48839,-2.43426 10.80385,-56.03489 9.37313,-60.04083 -1.41296,-3.95625 -46.22009,-35.69024 -44.99829,-39.70964 1.23714,-4.06988 56.63091,-7.04067 59.99868,-9.63926 3.32598,-2.56635 19.66064,-54.98681 23.86087,-55.06687 4.25299,-0.0811 24.19598,51.68351 27.70809,54.08344 3.46853,2.37015 58.37104,1.70652 59.74512,5.67643 z" />
    <path
       id="path3941"
       sodipodi:r2="43.875156"
       style="color:#000000;fill:url(#linearGradient1162);stroke:#ce8314;stroke-width:4.4295001"
       sodipodi:type="star"
       d="m 458.60925,403.33916 c 1.39135,4.01979 -41.67697,38.98284 -42.87413,43.06467 -1.18231,4.03118 16.41464,56.04149 13.06364,58.5751 -3.39309,2.56543 -49.95377,-27.5908 -54.20576,-27.46801 -4.19924,0.12126 -48.22623,32.92903 -51.67135,30.52497 -3.48839,-2.43426 10.80385,-56.03489 9.37313,-60.04083 -1.41296,-3.95625 -46.22009,-35.69024 -44.99829,-39.70964 1.23714,-4.06988 56.63091,-7.04067 59.99868,-9.63926 3.32598,-2.56635 19.66064,-54.98681 23.86087,-55.06687 4.25299,-0.0811 24.19598,51.68351 27.70809,54.08344 3.46853,2.37015 58.37104,1.70652 59.74512,5.67643 z"
       sodipodi:r1="90.101982"
       inkscape:transform-center-x="0.093644783"
       inkscape:transform-center-y="-5.4199523"
       transform="matrix(0.64036,0.015197,-0.015197,0.64036,-48.897,505.55)"
       sodipodi:arg2="0.29509127"
       sodipodi:arg1="-0.34302394"
       inkscape:randomized="0"
       sodipodi:cy="433.64374"
       sodipodi:cx="373.75644"
       inkscape:rounded="0.07"
       inkscape:flatsided="false"
       sodipodi:sides="5" />
  </g>
  <metadata
     id="metadata226">
    <rdf:RDF>
      <cc:Work>
        <dc:format>image/svg+xml</dc:format>
        <dc:type
           rdf:resource="http://purl.org/dc/dcmitype/StillImage" />
        <cc:license
           rdf:resource="http://creativecommons.org/publicdomain/zero/1.0/" />
        <dc:publisher>
          <cc:Agent
             rdf:about="http://openclipart.org/">
            <dc:title>OpenClipart Library</dc:title>
          </cc:Agent>
        </dc:publisher>
        <dc:title>Blue Ribbon</dc:title>
        <dc:source>https://openclipart.org/detail/191178</dc:source>
      </cc:Work>
      <cc:License
         rdf:about="http://creativecommons.org/publicdomain/zero/1.0/">
        <cc:permits
           rdf:resource="http://creativecommons.org/ns#Reproduction" />
        <cc:permits
           rdf:resource="http://creativecommons.org/ns#Distribution" />
        <cc:permits
           rdf:resource="http://creativecommons.org/ns#DerivativeWorks" />
      </cc:License>
    </rdf:RDF>
  </metadata>
</svg>
