<?xml version="1.0" encoding="UTF-8" standalone="no"?>
<svg xmlns:rdf="http://www.w3.org/1999/02/22-rdf-syntax-ns#" xmlns="http://www.w3.org/2000/svg" height="374.06" viewBox="0 0 847.5 374.0625" width="847.5" version="1.1" xmlns:cc="http://creativecommons.org/ns#" xmlns:dc="http://purl.org/dc/elements/1.1/">
<path d="m468.12 372.67c-3.7376-2.6179-68.76-4.1911-98.181-2.3755-11.13 0.68686-14.581 0.6051-16.993-0.40261-3.3761-1.4106-3.1614-1.1411-13.843-17.377-7.6029-11.556-7.7498-11.709-11.917-12.401-6.8905-1.144-11.269-8.4936-8.017-13.457 3.0799-4.7006-18.538-30.817-27.987-33.811-1.0806-0.3424-5.1288-2.5743-8.996-4.9597-10.084-6.2206-17.385-9.2382-26.357-10.895-4.3238-0.79846-11.447-2.4411-15.83-3.6503-4.3828-1.2092-10.5-2.7449-13.594-3.4127-3.0938-0.66779-8.9595-2.4022-13.035-3.8542-5.2082-1.8556-9.2055-2.64-13.453-2.64-7.7058 0-33.693-7.0085-46.169-12.451-1.8047-0.78733-6.2344-1.9567-9.8438-2.5987-5.8986-1.0491-13.665-3.5445-21.562-6.9281-1.5469-0.66275-4.5574-1.9375-6.69-2.8327-2.1326-0.89527-5.7186-2.8492-7.9688-4.3421s-5.2093-2.7161-6.5758-2.7183c-1.3665-0.002-7.6946-2.6001-14.062-5.7732-6.3679-3.1731-13.687-6.7983-16.265-8.0561-2.5781-1.2578-7.1745-4.1931-10.214-6.523-3.0397-2.3299-7.0439-4.8701-8.8983-5.6449-1.8544-0.77481-4.5677-2.4152-6.0296-3.6453s-3.0774-2.2366-3.59-2.2366c-1.7921 0-12.568-8.3674-18.334-14.237-17.125-17.43-22.575-31.12-23.074-57.95l-0.16557-8.9062 5.8107-11.385c6.2379-12.222 11.472-18.707 21.836-27.054 3.201-2.578 7.641-6.164 9.867-7.968 6.121-4.964 13.134-9.848 22.475-15.652 14.395-8.946 19.308-11.536 21.887-11.54 1.3684-0.0019 3.9646-0.904 5.7693-2.0046 5.8531-3.5696 20.808-9.2048 33.281-12.541 6.7031-1.7929 15.984-4.323 20.625-5.6225 11.078-3.102 19.673-4.8469 30-6.09 4.6406-0.55862 10.969-1.5911 14.062-2.2945 3.0938-0.70334 8.1562-1.5601 11.25-1.904 3.0938-0.34386 6.8906-0.96829 8.4375-1.3876 5.4403-1.4748 20.73-3.8157 30.469-4.6648 5.4141-0.47205 13.641-1.3073 18.281-1.8561 14.375-1.7 57.031-4.0206 80.625-4.3863 12.375-0.1918 30.516-0.76249 40.312-1.2682 14.884-0.7683 57.629-0.55601 71.25 0.35386 2.0625 0.13778 15.384 0.5674 29.602 0.95473 14.219 0.38733 27.297 0.8017 29.062 0.92083 9.2423 0.62359 34.051 3.6093 39.773 4.7866 3.6094 0.74266 9.3047 1.517 12.656 1.7207 14.752 0.89672 39.675 4.2684 52.969 7.1659 4.6406 1.0115 9.5441 1.8461 10.897 1.8548 1.3525 0.0086 10.845 1.9653 21.094 4.348s22.309 4.9091 26.799 5.6141c9.5886 1.5054 24.621 4.9829 37.773 8.7383 5.1562 1.4723 14.193 4.0161 20.081 5.6528 5.8885 1.6368 13.482 4.2542 16.875 5.8164 3.3928 1.5622 8.3301 3.6022 10.972 4.5332 4.4293 1.561 32.962 18.117 42.379 24.589 6.007 4.1291 26.696 25.317 30.733 31.473 1.927 2.9393 4.6902 6.7229 6.1405 8.4082 1.4502 1.6852 2.922 4.2165 3.2706 5.625 0.34859 1.4085 1.8004 5.313 3.2262 8.6765 7.0997 16.748 7.2253 19.941 1.6217 41.228-3.1669 12.03-20.159 35.798-31.066 43.455-7.9063 5.55-13.157 8.7288-15.74 9.5288-1.233 0.38189-6.3944 3.2365-11.47 6.3436-5.0754 3.1071-12.922 6.987-17.437 8.6219-4.5152 1.6349-9.433 3.8099-10.928 4.8333-10.17 6.9604-38.659 16.267-49.853 16.285-1.92 0.003-4.5984 0.58367-5.9521 1.29-4.6577 2.4303-20.132 7.1693-26.174 8.0158-3.3287 0.46634-7.7396 1.2705-9.8022 1.787-2.0625 0.51652-10.289 1.2389-18.281 1.6052-7.9922 0.36636-15.493 1.0273-16.669 1.4686-1.1756 0.4414-8.1366 1.6721-15.469 2.735-7.3322 1.0628-15.23 2.5302-17.55 3.2609-2.3203 0.73066-7.1719 1.9678-10.781 2.7492-24.862 5.3826-35.564 10.328-52.065 24.06-6.3204 5.2599-14.029 15.046-14.029 17.81 0 2.8585-6.3902 9.2729-9.2497 9.2849-7.1035 0.0297-9.3863 1.0725-13.064 5.9681-1.9845 2.6415-6.1077 8.1164-9.1628 12.166-3.055 4.0499-7.153 9.5343-9.1066 12.188-5.4553 7.4091-7.0837 8.2909-10.671 5.7785zm6.9016-9.8607c1.831-3.051 3.096-6.4213 3.0983-8.2546 0.004-3.2449 4.4189-10.609 11.478-19.145 3.5104-4.2452 3.9162-6.3501 1.2244-6.3501-1.2625 0-4.8746 3.7277-8.6373 8.9134-2.7693 3.8167-3.8409 2.3014-1.3536-1.9141 2.7148-4.6013 2.2042-4.9701-6.452-4.6591-4.1278 0.14829-7.5051 0.12407-7.5051-0.0538 0-1.4458 11.398-4.6998 21.02-6.0006 11.006-1.4881 12.324-5.372 4.9086-14.469-4.0393-4.9554-7.9789-11.074-10.928-16.973-1.5528-3.1056-3.016-4.7834-4.3359-4.9717-1.3395-0.19111-1.9929-0.95893-1.9944-2.3438-0.00094-1.1328-1.6835-4.5908-3.7384-7.6845-2.0548-3.0938-5.0749-8.1562-6.7112-11.25s-3.8541-7.016-4.9284-8.716c-5.7941-9.1687 2.7759-2.038 9.3447 7.7754 5.3499 7.9925 5.532 8.14 9.2436 7.4943 3.95-0.68724 4.5254 0.59598 2.5668 5.7246-1.8762 4.9128-0.592 8.722 5.8001 17.204 1.7686 2.347 5.4484 7.6144 8.1774 11.705 7.9871 11.973 10.886 13.167 15.169 6.2462 1.0312-1.6662 3.7087-5.8487 5.9498-9.2943 2.2412-3.4456 5.2632-8.5851 6.7157-11.421 1.4524-2.8359 3.5211-5.6872 4.597-6.3361 2.7399-1.6524 2.5531-2.3492-2.7568-10.288-2.5922-3.8756-6.1415-10.138-7.8873-13.917-1.7459-3.7787-4.2656-8.3011-5.5995-10.05-1.3338-1.7488-2.4252-3.6055-2.4252-4.126 0-1.5811-4.6309-6.0534-5.6291-5.4365-1.8317 1.132-0.86431 3.8951 3.9885 11.392 2.707 4.182 5.9766 9.3488 7.2656 11.482 1.2891 2.133 3.9139 6.2959 5.8329 9.251 5.6212 8.6558 5.4445 8.8617-7.0048 8.1614-13.368-0.75203-13.111-0.66045-12.405-4.4253 0.46395-2.4731 0.0245-3.828-2.2685-6.9933-2.97-4.0999-4.6592-8.7138-3.1904-8.7138 1.2401 0 6.2125 5.5224 8.6523 9.6094 3.1467 5.2713 5.4391 4.2203 2.5561-1.1719-6.5934-12.332-8.0738-15.01-9.493-17.176-1.4836-2.2643-1.4951-2.545-0.12508-3.0707 2.0781-0.79744 1.8945-3.8551-0.30208-5.0306-2.2838-1.2222-4.3352 0.65809-6.802 6.2347-1.7423 3.9387-3.2493 5.6193-4.1928 4.6758-0.46354-0.46354 0.70881-4.8335 2.665-9.9336 1.7086-4.4547-2.1137-6.6464-12.311-7.0591-5.9369-0.24027-8.9926-0.75366-9.5148-1.5986-1.3323-2.1557 0.52958-2.7871 9.8597-3.3437 9.5148-0.56767 11.793-1.7392 11.793-6.0641 0-2.3291-7.1834-16.731-9.3536-18.752-0.99912-0.93081-2.9293-3.5911-4.2893-5.9118-3.123-5.329-4.0382-5.286-7.1969 0.338-1.4072 2.5055-3.243 5.1235-4.0795 5.8178-1.9075 1.5831-7.449 10.186-8.3112 12.902-0.35522 1.1192-1.0048 2.0349-1.4435 2.0349s-1.4104 0.23512-2.1592 0.52248c-2.5844 0.99174-17.542-13.878-17.542-17.439 0-1.3147 1.9751-1.0916 3.6762 0.41524 0.81404 0.72112 3.0778 2.1993 5.0306 3.2848l3.5505 1.9737-1.0833-2.113c-0.59579-1.1621-2.5584-3.6569-4.3613-5.544-7.1771-7.512-0.19153-7.3751 7.6449 0.14975 7.4546 7.1582 14.35 3.8048 13.476-6.554l-0.2775-3.2898-18.75-0.47395c-18.751-0.47398-22.946 0.0159-22.961 2.6812-0.009 1.5772 14.034 21.718 18.814 26.982 1.936 2.1324 4.1994 5.191 5.0298 6.7969 2.0301 3.9258 3.7926 3.6762 6.8612-0.97179 2.6302-3.9839 10.447-12.018 11.71-12.036 1.7612-0.025 0.35391 3.8909-3.5156 9.7823-2.8833 4.3899-4.2188 7.4178-4.2188 9.5654 0 3.6826-0.99528 3.8964-4.9684 1.0673-2.7002-1.9227-4.0937-2.0912-18.988-2.2966-8.8404-0.12187-16.454-0.29277-16.918-0.37979-0.46459-0.087-4.2978-0.10825-8.5183-0.0472l-7.6736 0.11098-2.457 3.5156c-1.3513 1.9336-4.7181 7.1016-7.4816 11.484-5.9172 9.3844-8.7506 13.125-9.9418 13.125-1.6001 0-0.88888-1.7232 3.1676-7.6751 12.087-17.735 12.632-19.598 5.7874-19.792-2.8075-0.0796-3.9427 0.44759-5.7458 2.6682-1.2358 1.522-2.6839 3.3041-3.2178 3.9602-0.53396 0.6561-3.7417 5.2967-7.1283 10.312-3.3866 5.0158-8.3397 11.44-11.007 14.276-4.3011 4.5731-8.0349 10.665-8.0349 13.109 0 0.47156 1.1039 2.0393 2.4531 3.4838s4.0938 5.0325 6.099 7.9733c2.0053 2.9408 5.1074 6.4617 6.8937 7.8241s3.9575 4.0858 4.825 6.052c0.86746 1.9661 2.5677 4.0261 3.7782 4.5777 1.473 0.67114 2.201 1.7944 2.201 3.3961 0 3.3297-2.7295 4.1922-4.6168 1.459-0.81235-1.1765-3.6167-4.3085-6.2319-6.96s-7.39-8.5123-10.611-13.024c-6.864-9.6153-8.2908-10.094-11.871-3.9844-5.2292 8.923-5.0944 3.9365 0.16866-6.2384 1.5043-2.9081 1.7216-14.792 0.37867-20.701-0.49968-2.1988-1.3892-8.3084-1.9768-13.577-1.1687-10.479-1.3504-10.785-7.2724-12.235-7.2465-1.7747-16.485 14.26-12.043 20.903 0.68013 1.0171 2.2114 4.1639 3.4027 6.993 2.7776 6.5956 6.2578 11.138 9.0752 11.845 4.8458 1.2162 0.26644 4.6498-4.907 3.6792-3.7042-0.6949-4.1198 0.58101-1.7084 5.2441 1.6392 3.1698 1.2191 5.4938-0.99292 5.4938-1.1218 0-1.3954 0.89955-1.2013 3.9493 0.4489 7.0524-2.2648 5.7842-6.7353-3.1476-5.1751-10.339-7.3581-13.761-9.5173-14.916-5.0934-2.7259-0.64778 8.8818 8.6462 22.575 1.9334 2.8486 4.2814 7.2338 5.2178 9.7449 3.4684 9.3011 7.5248 7.3294 11.643-5.6593 2.3043-7.2678 4.5941-9.202 4.5865-3.8743-0.003 1.6758-1.2881 6.3472-2.8571 10.381-2.8437 7.3108-2.8474 7.3449-1.1676 10.781l1.6852 3.4473 7.6864 0.0302c8.6604 0.0339 9.5373 0.44076 7.8292 3.6324-1.0931 2.0424-0.88837 2.6694 2.1861 6.6959 1.8656 2.4434 3.3921 5.2256 3.3921 6.1827 0 3.2562-2.5754 1.7537-5.6283-3.2835-3.0392-5.0146-7.6011-8.7269-9.3762-7.6298-1.208 0.74657-0.47284 2.0628 6.0182 10.776 2.8799 3.8657 5.2362 7.5571 5.2362 8.2031 0 2.0002-2.3662 1.2982-4.7311-1.4035-1.9768-2.2584-2.2987-2.366-2.595-0.86775-0.18605 0.94072 0.33151 2.4505 1.1502 3.3551 0.81863 0.90459 1.4884 2.045 1.4884 2.5342 0 5.0059 4.623 5.4931 7.5276 0.79329 1.0673-1.7269 2.7263-3.3892 3.6867-3.694 0.9604-0.30482 3.3325-1.8148 5.2713-3.3556 2.5396-2.0182 3.8075-2.5153 4.5354-1.778 1.0421 1.0556-1.4009 3.6494-9.2879 9.8613-7.8958 6.2188 17.867 10.228 31.392 4.8852 3.1185-1.232 11.171-1.5544 13.918-0.55731 3.2232 1.1703 9.0803-0.90398 13.101-4.6397 7.3659-6.8436 11.419-9.2336 11.419-6.734 0 0.53605-1.7182 2.6588-3.8182 4.7172-5.3804 5.2739-4.7225 5.9244 6.7054 6.6302 12.153 0.7505 23.885 2.232 27.582 3.4829 5.7867 1.958 8.0655 1.0498 11.429-4.555zm-84.917-20.714c-12.106-11.646-14.096-10.819 24.738-10.285 7.3098 0.10043 10.094 1.1236 8.2031 3.0146-0.80795 0.80795-5.4626 1.1802-15.453 1.236-16.664 0.093-17.259 0.48859-10.589 7.0352 4.0759 4.0002 5.535 7.5591 3.0731 7.4954-0.64453-0.0167-5.1322-3.8399-9.9726-8.4961zm55.513-7.965c-0.31479-0.82031 0.14162-2.8242 1.0142-4.4531 3.9724-7.4155 6.9411-12.008 10.485-16.222 2.1059-2.5037 4.3286-5.4917 4.9392-6.64 0.61065-1.1483 1.9444-2.5343 2.9638-3.0799 2.5238-1.3507 2.5689 1.7025 0.0649 4.3904-0.98377 1.056-2.6648 3.6374-3.7357 5.7364-1.0709 2.0991-3.7988 6.4826-6.0622 9.7412-2.2633 3.2586-4.436 6.9794-4.8281 8.2685-1.1167 3.6705-3.8164 4.9299-4.8415 2.2585zm-5.9313-7.35c0-0.70543 1.4766-3.4768 3.2812-6.1585 1.8047-2.6818 3.2812-5.5051 3.2812-6.2741 0-0.76897 0.87065-2.5196 1.9348-3.8902 4.1024-5.284 14.94-22.506 14.94-23.741 0-1.7409-9.0561-19.509-11.15-21.876-2.3533-2.6605-5.725-8.7655-5.725-10.366 0-3.5117 4.6382 1.0345 7.1237 6.9824 0.7306 1.7483 4.0055 7.4436 7.2775 12.656 8.4074 13.394 8.3837 16.245-0.2164 26.083-2.3572 2.6966-8.5235 11.672-16.038 23.344-2.4627 3.8252-4.7094 5.3709-4.7094 3.24zm-22.5-0.50631c0-2.0464 6.9833-13.152 8.2701-13.152 1.8166 0 0.71679 4.0265-2.5608 9.375-2.4213 3.9511-5.7092 6.1264-5.7092 3.7772zm-53.794-2.513c-3.1458-2.9169-9.9563-13.18-9.9563-15.003 0-2.3734 1.6496-1.258 6.1074 4.1297 2.4531 2.9648 5.7243 6.5227 7.2694 7.9064 1.7724 1.5873 2.6012 3.0578 2.2456 3.9844-0.81814 2.132-2.6184 1.8089-5.6661-1.0171zm67.86-1.53c0-0.74687 0.88801-2.4869 1.9733-3.8666 1.0854-1.3798 2.9122-4.2843 4.0596-6.4546 2.0049-3.792 5.271-5.8853 5.1669-3.3115-0.14922 3.6873-11.2 17.138-11.2 13.633zm-30.938-20.779c0-1.0227 6.8189-11.61 9.3688-14.546 4.0088-4.6163 3.6464-1.3819-0.48355 4.3154-1.8162 2.5055-4.1782 5.9266-5.2489 7.6024-1.6612 2.6001-3.6364 4.0278-3.6364 2.6284zm24.375-6.1024c0-0.94808 3.378-6.4296 6.3808-10.354 0.9863-1.2891 2.0919-3.293 2.4569-4.4531 0.36502-1.1602 1.0528-2.1094 1.5284-2.1094 0.47561 0 2.4054-2.3203 4.2883-5.1562 3.4338-5.1718 4.4351-5.9448 5.4897-4.2384 0.5275 0.85353-6.7254 12.439-14.245 22.754-2.9489 4.0452-5.8991 5.8242-5.8991 3.5573zm-47.433-4.1544c-0.27443-0.71514 1.0151-3.5628 2.8656-6.3281s4.7876-7.1555 6.527-9.756c4.0919-6.1177 5.8905-7.6404 7.3274-6.2034 0.81863 0.81863 0.59491 1.7122-0.91716 3.6634-1.0999 1.4194-4.4433 6.483-7.4298 11.253-5.2169 8.3317-7.3007 10.166-8.373 7.3716zm39.023-12.456c-0.0154-0.60498 0.92124-2.2958 2.0814-3.7574s2.5765-3.4979 3.1474-4.5251c0.57089-1.0272 1.766-2.0107 2.6559-2.1857 1.3276-0.26102 1.4394-0.008 0.62305 1.4062-1.7526 3.0376-8.4787 10.202-8.5077 9.0619zm-33.77-9.24c0-1.9641 16.854-26.092 17.662-25.284 0.41011 0.41012-2.0614 6.4255-3.6571 8.9009-0.49857 0.77344-1.7202 2.6719-2.7148 4.2188-6.84 10.63-11.29 15.43-11.29 12.16zm108.93 71.526c2.4999-3.9114 2.766-5.2459 0.80448-4.0336-1.343 0.83-4.9789 8.0009-4.0524 7.9923 0.3972-0.004 1.8588-1.7851 3.2479-3.9586zm46.075-49.719c8.2754-11.056 10.646-35.003 3.7283-37.657-2.4959-0.95779-2.7613 0.15493-1.9272 8.0817 1.64 15.586 1.1518 18.702-4.3479 27.755-4.7064 7.7477-2.8715 9.0594 2.5468 1.8206zm-211.25-14.66c0-0.97608-0.63281-2.0175-1.4062-2.3143-1.016-0.38986-1.4062 0.10269-1.4062 1.7747 0 1.4322 0.53602 2.3143 1.4062 2.3143 0.77344 0 1.4062-0.79862 1.4062-1.7747zm-3.4537-6.982c-1.1895-6.2875-3.4142-8.0281-4.9838-3.8996-1.0059 2.6456 0.10596 6.5874 2.0488 7.2636 2.4663 0.85841 3.508-0.33552 2.935-3.364zm306.11 0.22791c5.8464-1.4915 11.753-3.4983 13.125-4.4596 1.3723-0.96129 4.8154-2.5018 7.6514-3.4233 7.9392-2.5798 23.736-14.538 26.121-19.774 1.8237-4.0026-9.614-12.322-23.704-17.241-15.08-5.26-31.79-10.32-37.1-11.23-30.167-5.1425-40.575-0.54806-13.594 6.0013 3.6094 0.87614 8.088 1.9864 9.9525 2.4672 1.8645 0.48082 4.8425 0.87422 6.6177 0.87422s4.0097 0.57181 4.9654 1.2707c2.3113 1.6901 1.2324 4.3543-1.7634 4.3543-2.8878 0-3.7871 1.2959-1.9547 2.8167 0.97319 0.80766 4.4179 1.0506 11.474 0.80935 11.507-0.39353 15.032 2.1106 6.0488 4.2978-2.219 0.54029-4.012 1.2988-3.9844 1.6855 0.0276 0.38671 0.0503 1.1898 0.0503 1.7847 0 0.79035 3.016 0.91939 11.201 0.47928 10.706-0.57566 12.895-0.23587 11.471 1.7807-0.86046 1.2187-8.796 3.2209-12.766 3.2209-4.117 0-6.157 0.80978-6.157 2.444 0 0.86972 1.1059 1.306 3.3107 1.306 2.1708 0 3.509 0.51678 3.8866 1.5009 0.73222 1.9081-1.2209 3.1539-4.9734 3.1723-1.6128 0.008-4.4069 0.63044-6.209 1.3834-1.8022 0.75299-3.5131 1.1326-3.8021 0.84362-1.5895-1.5895-2.496 0.97341-1.0986 3.1061 2.0144 3.0743 1.2637 4.6816-2.5351 5.4278-12.542 2.4634-22.329 6.0094-22.329 8.0897 0 1.6338 14.474-0.0245 26.099-2.9901zm-339.22 0.26033c0-0.42265-0.94922-1.5919-2.1094-2.5984s-5.6607-4.897-10.001-8.6456c-4.3406-3.7486-9.7312-9.1842-11.979-12.079l-4.0872-5.2635 2.1354-2.3309c2.8336-3.0931 12.806-9.564 14.739-9.564 0.84228 0 3.2027-0.89287 5.2453-1.9841 2.0426-1.0913 4.9312-1.924 6.419-1.8504 1.4878 0.0735 3.6879-0.51016 4.8889-1.2971 1.201-0.78695 3.4919-1.4308 5.0908-1.4308s3.7349-0.44304 4.7467-0.98453c2.1443-1.1476 1.4311-3.0745-0.86991-2.3501-0.85895 0.2704-4.093 0.88586-7.1867 1.3677-8.5661 1.3341-37.386 11.626-42.753 15.267-1.9254 1.3065-2.0791 1.7723-1.0732 3.2528 0.64575 0.95037 1.5556 2.601 2.0218 3.6681 0.71949 1.6467 7.779 8.3618 22.6 21.497 5.387 4.7745 12.173 7.7431 12.173 5.3253zm65.434-2.1823c0.87836-1.6229 3.2845-4.9378 5.347-7.3664 11.069-13.034 12.874-15.886 12.228-19.325-0.60833-3.2427 0.7328-4.0689 6.6468-4.0946 2.2953-0.01 3.6738-0.88415 6.3033-3.9972 1.851-2.1914 5.3806-6.3726 7.8435-9.2916 5.2461-6.2176 7.891-7.0704 7.5284-2.4272l-0.23795 3.0469 9.563 0.46875c14.784 0.72468 15.847 3.2579 1.687 4.0207-7.5766 0.4081-13.05 2.0834-12.057 3.6903 0.6047 0.97841 32.141 0.66391 32.754-0.32664 0.63598-1.029-3.1534-8.7883-5.1937-10.635-1.05-0.95021-1.918-2.1896-1.9291-2.7542-0.0111-0.56461-1.8816-3.9-4.1568-7.4119-2.2752-3.512-4.4154-7.6537-4.7558-9.204-0.34049-1.5502-1.1066-2.9422-1.7026-3.0934-0.5959-0.1511-3.2173-0.9796-5.8254-1.8411-2.6401-0.87207-7.0033-1.4711-9.8438-1.3515-2.806 0.11817-11.726-0.0727-19.821-0.42412-14.161-0.61472-17.163-0.19742-14.497 2.0152 1.4723 1.2219 7.2359 1.781 19.676 1.9085 9.9271 0.10179 12.6 2.1591 5.4646 4.2056-2.7496 0.78858-3.0651 1.1991-2.6225 3.4122 0.70771 3.5385-0.85496 4.6852-5.5146 4.0466-4.8854-0.66962-6.2714 0.96546-2.0828 2.4571l3.0458 1.0847-3.0469 1.3052c-3.345 1.4328-3.9059 3.6515-1.6704 6.6071 1.9132 2.5295 1.766 4.1636-0.37511 4.1636-2.0128 0-5.2459-4.0027-6.1533-7.6179-1.9009-7.5739-10.166-14.215-11.294-9.0749-2.0679 9.4256-10.672 18.037-10.769 10.778-0.0251-1.8766-0.27751-1.779-2.9212 1.1293-2.6211 2.8834-2.8383 3.588-2.3051 7.4776 0.84424 6.1595 1.8038 6.7391 12.182 7.3583 4.989 0.29764 9.2633 0.85244 9.4984 1.2329 1.3734 2.2222-5.9927 3.608-12.208 2.2967-7.2301-1.5253-11.643 9.819-6.6134 17 0.74545 1.0643 1.8377 4.0058 2.4272 6.5367s1.232 5.129 1.4278 5.7736c0.61879 2.0373 2.3209 1.2754 3.974-1.7788zm216.88 0.68866c10.372-3.9292 26.127-14.089 26.127-16.848 0-3.1985-7.4275-8.1687-29.531-19.761-3.0938-1.6225-6.4688-3.4663-7.5-4.0974-4.3555-2.665-17.438-5.688-18.023-4.1644-0.76084 1.9828 2.2904 4.0707 9.8309 6.7272 14.755 5.1983 31.135 14.044 32.476 17.538 0.76375 1.9903-13.308 17.195-15.978 17.264-1.7121 0.0442-5.2639 3.5214-4.6356 4.538 0.83438 1.35 0.26428 1.4443 7.2335-1.1959zm26.796-2.0303c8.1534-4.4023 17.144-10.538 17.144-11.701 0-0.50794 1.7401-2.8114 3.867-5.1187 4.6717-5.0682 4.7226-4.9731-6.777-12.653-9.4882-6.3363-13.531-8.2475-27.678-13.085-21.681-7.4143-26.835-5.4821-9.6824 3.6296 36.129 19.192 36.564 19.841 22.304 33.294-10.64 10.037-10.398 11.693 0.82244 5.6341zm80.906-3.5413c24.633-7.519 36.952-14.174 48.84-26.385 7.7656-7.9767 7.0741-11.699-2.5115-13.518-2.5423-0.48255-7.9973-1.7056-12.122-2.7178-4.125-1.0123-10.031-2.3458-13.125-2.9635-3.0938-0.61769-9.8438-2.162-15-3.4318-15.154-3.7319-47.259-6.4994-48.683-4.1965-0.55816 0.90313 1.6306 1.823 10.245 4.3056 3.0938 0.8916 8.4014 2.8273 11.795 4.3016 6.1136 2.656 6.213 2.6667 10.904 1.1666 2.6037-0.83263 5.4171-1.2517 6.252-0.93135 1.6345 0.62723 2.1322 4.3914 0.58054 4.3914-1.4052 0-1.1294 2.7977 0.33101 3.3581 0.69769 0.26773 5.3693-0.17311 10.381-0.97965 5.0121-0.80652 9.5038-1.2248 9.9815-0.92961 1.2636 0.78096 1.0634 3.2291-0.30332 3.709-6.3797 2.2403-6.5458 2.3565-5.3777 3.7639 1.4538 1.7518 4.7316 1.7616 11.364 0.0342 5.783-1.5063 9.49-1.0394 9.0596 1.1409-0.29515 1.4949-6.27 3.3579-14.342 4.472-9.2749 1.2801-11.313 4.828-3.0469 5.3039 8.8918 0.51193 6.4352 2.7724-5.3779 4.9485-10.726 1.9758-14.193 4.2896-8.551 5.7058 3.4163 0.85746 4.8582 2.8503 3.3644 4.6502-0.65155 0.78508-1.879 1.207-2.7277 0.93766-5.5516-1.762-12.314-0.71606-17.46 2.7004-9.6508 6.4078-3.2277 6.889 15.53 1.1634zm-436.13 0.56801c-0.4462-2.33-5.7303-4.6493-13.797-6.0555-9.4568-1.6486-12.493-6.0848-3.8137-5.5727 8.6089 0.50795 0.99606-5.8933-8.1624-6.8634-9.797-1.0377-11.483-6.1178-2.0304-6.1178 7.3844 0 2.7895-4.1468-6.239-5.6306-11.99-1.9704-16.38-3.8608-14.428-6.2126 1.4091-1.6979 5.9143-1.6211 12.066 0.20576 3.7657 1.1183 5.5536 1.2396 7.2014 0.48885 2.8116-1.2811 2.7928-2.5599-0.0483-3.273-2.2982-0.57683-3.8022-2.8945-2.8636-4.4131 0.68975-1.116 7.3254-1.0515 12.407 0.1206 2.7767 0.64051 4.6081 0.61376 5.9163-0.0864 2.473-1.3235 1.8128-3.1541-1.2697-3.5209-2.7649-0.32903-4.9127-2.4207-4.0008-3.8962 0.37371-0.60468 4.8544-0.96862 11.565-0.93936 10.385 0.0453 14.143-0.50647 20.096-2.9498 5.0694-2.081 3.215-3.9266-3.2812-3.2656-3.2226 0.3279-11.312 0.82037-17.977 1.0944-29.76 1.2236-67.101 11.145-67.101 17.828 0 4.8678 18.778 22.452 25.88 24.234 1.4295 0.35879 3.6983 1.435 5.0416 2.3916 11.11 7.9109 45.816 17.534 44.839 12.433zm317.17-2.8147c2.8996-1.9324 6.0637-3.997 7.0312-4.5882 3.5752-2.1842 0.19045-3.3766-7.531-2.653-8.2987 0.77766-8.0237 0.54247-7.374 6.307 0.60461 5.3641 1.1324 5.4268 7.8737 0.9342zm-303.89-4.6498c-2.2433-2.4687-6.7414-7.1151-9.9958-10.325-7.8812-7.7742-7.4045-12.156 1.601-14.717 1.2791-0.3638 6.5444-2.7553 11.701-5.3144 5.1562-2.5591 13.383-5.8511 18.281-7.3155 16.139-4.8248 8.4516-7.9387-8.2799-3.3539-14.503 3.974-16.092 4.6021-25.47 10.066-16.94 9.8692-17.155 10.76-5.4458 22.557 13.023 13.12 28.689 20.597 17.609 8.4032zm37.302 2.3083c4.6662-5.7924 1.7615-9.9076-7.5427-10.686-4.0133-0.33567-7.5187-0.9691-7.7897-1.4076-0.78951-1.2774-4.3346-0.93695-3.9001 0.37458 1.3782 4.1596 17.439 13.946 19.232 11.719zm-106.23-4.3775c1.3127-2.124-9.6596-9.4506-14.153-9.4506-3.6534 0-11.962-1.5995-15.613-3.0057-2.8248-1.0879-3.4037-5.3093-0.63316-4.6173 3.878 0.96865 9.1739 1.1709 9.6693 0.36933 1.3465-2.1786-2.016-4.18-9.0855-5.4076-10.093-1.7528-14.004-5.6199-5.6827-5.6199 6.3232 0 4.5355-2.3906-3.8297-5.1213-9.8529-3.2163-15-5.8018-15-7.535 0-1.8938 3.0812-1.6228 11.574 1.0178 8.6273 2.6825 15.016 0.37352 6.7075-2.424-9.197-3.0966 1.6641-5.0821 13.125-2.3993 3.9601 0.92699 5.7897 0.95661 7.887 0.12769 3.4722-1.3723 2.3622-2.5833-3.7505-4.0918-4.7741-1.1782-7.2809-5.36-2.7303-4.5547 1.0312 0.18251 5.6719 0.52055 10.312 0.75121 4.9406 0.24557 9.6031 1.0154 11.25 1.8576 3.9409 2.0152 20.225-1.9094 17.75-4.2778-7.0563-6.7509-90.689-1.7656-95.39 5.6862-4.3791 6.9423 37.886 39.871 57.08 44.47 1.5109 0.36207 3.205 1.016 3.7647 1.4532 2.673 2.0883 15.825 4.2652 16.748 2.7721zm544.02-3.4982c3.4859-1.3668 7.1817-3.2068 8.213-4.0889 1.0312-0.88207 3.3336-2.0926 5.1164-2.6902 8.8836-2.9775 21.289-15.357 27.158-27.101 3.7387-7.4817 3.1064-8.4326-6.9617-10.469-2.0625-0.41715-7.9688-1.7571-13.125-2.9777-14.705-3.4811-53.346-2.963-54.577 0.73169-0.50134 1.504 11.365 4.3729 15.433 3.7311 13.164-2.0766 23.312-0.10579 13.145 2.5529-5.9951 1.5677 0.25053 2.7809 8.0613 1.5658 9.6434-1.5002 16.864 1.1743 7.5598 2.8002-3.1665 0.55335-4.1875 3.3079-1.5378 4.1488 1.5367 0.48773 10.287-0.98347 16.732-2.8131 4.8469-1.376 3.509 3.729-1.3834 5.2787-7.3332 2.3228-9.4574 4.9256-5.3077 6.5034 4.6778 1.7785-2.5363 8.4375-9.1409 8.4375-4.1917 0-5.825 3.2023-2.1091 4.135 5.9691 1.4982 2.5195 4.8892-5.9391 5.8383-6.9387 0.77854-12.302 3.7535-10.889 6.0398 0.84307 1.3641 2.7683 1.037 9.5528-1.6232zm-418.18-13.32c1.9402-3.2742 4.5875-7.0711 5.8828-8.4375 5.3955-5.6913 8.7426-12.328 6.2176-12.328-4.7953 0-20.236 23.958-20.24 31.406-0.00089 1.4734 4.2692-4.1085 8.14-10.641zm224.81 5.3721c-0.68932-3.6047-9.7147-15.822-14.29-19.345-4.5627-3.5125-3.7127-1.2928 2.9029 7.5808 3.2724 4.3893 6.5072 9.3844 7.1884 11.1 2.5397 6.3971 5.3814 6.8463 4.1991 0.66381zm-413.89-10.51c0-3.7394-9.1877-7.6279-19.04-8.0581-5.7316-0.25029 11.15 8.2241 18.337 9.205 0.38671 0.0528 0.70312-0.46332 0.70312-1.1469zm661.28-9.478c19.606-15.524 30.666-34.547 21.518-37.01-13.514-3.6391-53.272 1.2906-53.272 6.6054 0 2.5013 9.9978 3.0053 16.96 0.85498 8.3269-2.5719 11.429-1.3242 8.3587 3.3618-2.6227 4.0027 5.6792 3.8542 13.776-0.24654 3.7908-1.92 5.6214-1.6513 5.268 0.77328-0.21453 1.4719-2.0008 2.8916-6.2922 5.0008-8.2351 4.0475-12.161 9.8401-5.8078 8.5694 7.7907-1.5581 5.4485 3.7993-3.5723 8.1708-5.7706 2.7965-11.152 8.9146-9.7893 11.131 0.5272 0.85758 7.8559-3.2537 12.853-7.2104zm-686.45-4.86c0.61023-0.7762 1.7545-0.7251 4.3273 0.19323 4.942 1.764 6.7789 1.6474 6.7789-0.43052 0-1.9113-2.3036-3.038-9.751-4.769-9.7036-2.2555-14.132-7.0346-5.9521-6.4236 5.6955 0.42547 6.4346-3.1719 0.99087-4.8228-7.3494-2.2288-12.475-5.0058-12.475-6.7585 0-2.1048 1.5139-2.1446 8.1526-0.21472 6.1014 1.7737 7.852 0.90468 5.4775-2.7192-1.8891-2.8832-0.89066-3.6509 3.3246-2.5565 12.356 3.2079 14.386 2.7737 12.451-2.6621l-0.87875-2.4684-12.531 0.24682c-17.577 0.3462-30.059 3.5184-30.059 7.6392 0 6.7843 27.18 32.912 28.954 27.833 0.19814-0.56719 0.73358-1.5061 1.1899-2.0865zm-21.707-4.47c0-2.3509-8.3812-10.689-12.911-12.845-3.9872-1.8975-7.655-4.4609-12.729-8.8967-2.6828-2.3452-0.5325-3.6968 2.9863-1.8772 3.9768 2.0565 4.0363 1.9858 2.0542-2.4414-1.0856-2.4247-3.4171-5.1312-6.0935-7.0735-6.6607-4.8337-6.7007-10.217-0.04287-5.767 5.151 3.4432 9.0773 4.7603 12.357 4.145 3.9138-0.73423 4.0519-2.7896 0.3172-4.7209-3.0363-1.5701-4.0999-4.958-1.1719-3.7328 0.90234 0.37757 3.1172 1.0061 4.9219 1.3966 1.8047 0.39057 5.8125 1.4133 8.9062 2.2727 5.7824 1.6063 22.031 1.2904 22.031-0.42834 0-1.9828-21.872-7.3424-34.613-8.4819-33.196-2.9687-37.658 0.86335-23.256 19.97 9.3761 12.439 37.245 33.749 37.245 28.48zm466.88-4.7398c0-1.6615-14.217-9.4777-18.75-10.309l-3.2812-0.60137 3.8618 3.574c5.7016 5.2767 18.169 10.311 18.169 7.3359zm-166.4-3.337c0.77211-1.2493-1.9186-2.2337-3.9622-1.4495-1.3829 0.53068-1.4165 0.74459-0.23437 1.4922 1.8119 1.1459 3.4724 1.129 4.1966-0.0427zm264.83-4.64c5.4141-0.48742 14.695-1.3026 20.625-1.8114 5.9297-0.50887 12.891-1.3519 15.469-1.8735 2.5781-0.52155 8.4844-1.4333 13.125-2.0262 4.6406-0.59287 11.602-2.0697 15.469-3.2818 3.8672-1.2121 11.834-3.0931 17.704-4.18 5.8698-1.0869 14.729-3.0516 19.688-4.366 4.9583-1.3145 10.703-2.7815 12.765-3.2601 7.881-1.8288 30.156-13.923 38.774-21.052 5.2131-4.3124 1.6134-17.697-6.1498-22.867-1.9358-1.2891-5.7096-4.1135-8.3861-6.2765s-9.2251-5.8973-14.552-8.2985c-5.3273-2.4012-13.037-6.074-17.132-8.1618-7.4505-3.7982-28.729-10.595-37.554-11.995-2.5781-0.40907-5.9531-1.1934-7.5-1.743-8.7252-3.0999-32.118-7.2277-56.25-9.9254-7.21-0.81-15.92-2.09-19.34-2.849-3.4253-0.75834-7.6441-1.3818-9.375-1.3854-1.7309-0.0037-7.1549-0.65523-12.053-1.448-4.8984-0.79274-10.594-1.6163-12.656-1.8302-2.0625-0.21387-7.3359-1.0253-11.719-1.8031-7.835-1.3905-26.341-3.0233-30.938-2.7297-1.2891 0.08234-5.7188-0.29325-9.8438-0.83465s-10.453-1.0941-14.062-1.2283c-3.6094-0.13418-13.734-0.9877-22.5-1.8967-8.7656-0.90901-21-1.7728-27.188-1.9196-33.721-0.79975-51.17-1.3908-64.219-2.1754-13.349-0.80258-63.811-0.49218-75.938 0.4671-2.8359 0.22433-19.078 1.0337-36.094 1.7986-17.016 0.76489-36 1.844-42.188 2.3981-6.1875 0.55405-14.203 1.1893-17.812 1.4117-3.6094 0.22238-12.282 0.83012-19.272 1.3505-6.9901 0.5204-15.428 0.94584-18.75 0.94544-6.2864-0.000758-16.975 1.7199-29.009 4.6702-3.8672 0.94802-10.406 2.2052-14.531 2.7937-20.817 2.9698-34.876 5.497-43.125 7.7519-54.433 14.879-70.711 23.152-68.521 34.825 1.5214 8.1096 26.385 26.349 43.613 31.993 2.8003 0.91741 6.3862 2.418 7.9687 3.3346 4.0504 2.346 19.93 8.1501 28.487 10.412 20.839 5.5087 24.006 6.2736 24.561 5.9308 0.33199-0.20517 2.6795 0.25924 5.2168 1.032 2.5372 0.7728 8.41 2.0029 13.051 2.7336 14.772 2.3258 19.425 3.197 22.503 4.2126 2.6522 0.8753 13.66 3.0013 29.528 5.7028 18.461 3.1429 42.352 3.6702 53.906 1.1898 3.6094-0.77483 9.5156-2.0517 13.125-2.8376 3.6094-0.78581 12.047-3.2316 18.75-5.4352 16.794-5.5207 42.311-12.344 62.812-16.795 16.086-3.4928 44.786-4.7362 60.938-2.6399 5.1562 0.66924 12.75 1.6255 16.875 2.125 10.145 1.2285 39.38 8.6108 63.281 15.979 5.8329 1.7982 18.7 5.8794 33.75 10.705 3.8672 1.2399 8.9297 2.6987 11.25 3.2418 2.3203 0.54304 6.3281 1.6126 8.9062 2.3768 5.255 1.5577 55.579 1.2488 74.531-0.45746zm-325.78-1.2023c3.3057-2.1412 3.8851-3.0308 2.5226-3.8729-1.0687-0.6605-10.485 4.2997-9.9142 5.2227 0.85356 1.3811 4.0873 0.79056 7.3916-1.3498zm505.44-4.2188c4.9326-5.308 6.6846-8.2625 5.5639-9.3831-0.31349-0.31349-1.0692-0.0708-1.6794 0.5394-1.6256 1.6256-5.1279 1.3527-5.821-0.45365-0.82778-2.1572-1.759-0.83396-4.1366 5.878-3.7546 10.599-1.6829 11.766 6.0731 3.4194zm-681.71-6.7694c0.30933-0.50052-0.61499-1.14-2.054-1.4212-1.4391-0.28114-4.4155-0.92632-6.6143-1.4337-5.8938-1.3601-15.473-1.2093-14.991 0.23594 0.21239 0.63718 2.2042 1.4689 4.4263 1.8482 2.2221 0.37934 4.2632 0.9127 4.5357 1.1852 0.89201 0.892 14.12 0.51894 14.697-0.41448zm336.97-6.0351c-1.6985-1.6637-13.448-4.5406-21.785-5.3341-5.5795-0.53105-13.173-1.4788-16.875-2.1062-11.539-1.9555-55.558-0.9293-61.797 1.4407-5.4989 2.0889-1.0408 2.6457 16.459 2.0557 20.103-0.67772 56.993 0.91993 65.795 2.8495 5.1857 1.1368 19.1 1.9733 18.203 1.0944zm-447.1-1.55c0-1.0621-2.7268-8.1091-5.6997-14.73-3.0955-6.894-1.1027-8.5623 12.887-10.788 7.9131-1.259 8.2023-1.5996 3.2244-3.7958-3.7406-1.6504-11.701-9.236-17.136-16.328-5.0536-6.5955-5.5887-5.0039-1.5388 4.5773 1.0096 2.3886 3.0707 5.5261 4.5802 6.9723 5.3602 5.1354 2.1944 8.7889-3.9351 4.5412-1.9666-1.3628-4.8773-4.5064-6.4683-6.9857-3.4003-5.2989-5.1956-7.0056-6.0001-5.704-1.0618 1.7181 3.4582 11.675 7.087 15.612 4.1347 4.4857 4.3996 5.5836 1.6963 7.0304-1.659 0.88786-2.3747 0.54277-5.1434-2.4799-4.3668-4.7674-4.9626-3.498-1.4501 3.089 4.4422 8.3305 17.896 22.606 17.896 18.99zm797.84-7.9601c5.0841-8.8861 3.4245-10.508-2.7868-2.7244-6.9465 8.7053-9.5472 5.391-3.1602-4.0273 3.6302-5.353 8.1575-16.691 7.2508-18.158-1.0267-1.6612-3.0955 1.0877-7.5052 9.9723-2.3774 4.7899-6.0097 10.413-8.0719 12.496-4.3806 4.4244-4.1849 5.108 2.0561 7.1809 2.566 0.85229 4.9232 1.9667 5.2383 2.4765 0.85463 1.3828 3.8039-1.6667 6.9789-7.2159zm-23.591-2.9253c12.448-9.0329 28.584-47.179 19.957-47.179-1.5241 0-1.9296 1.1745-2.9566 8.5628-1.2094 8.7-4.9033 16.317-11.76 24.25-2.897 3.3516-7.3676 8.5196-9.9348 11.484-6.6622 7.6944-4.1025 9.2657 4.6948 2.8821zm-747.06-18.58c-2.2052-2.3473-4.6875-3.1201-4.6875-1.4594 0 1.1785 3.8152 3.8032 5.5283 3.8032 0.96555 0 0.72123-0.68108-0.84077-2.3438zm751.88-10.16c0-1.201-1.6875-4.4705-3.7499-7.2656s-4.4882-6.2304-5.3906-7.6341c-1.7891-2.783-23.728-15.658-33.984-19.944-13.339-5.5743-25.204-9.7676-31.884-11.269-3.8624-0.86802-12.507-3.1886-19.21-5.1569-20.484-6.0149-26.024-7.4081-31.875-8.016-3.0938-0.32142-7.9453-1.163-10.781-1.8701-11.256-2.8065-21.322-4.9868-25.781-5.5839-4.881-0.6536-7.3761-1.9482-6.4968-3.3709 0.86953-1.4069 10.421-0.92331 18.981 0.96103 4.4777 0.98577 11.305 2.2485 15.173 2.806 12.777 1.842 21.01 3.6674 35.667 7.9078 7.9692 2.3056 17.653 4.903 21.521 5.772 10.402 2.3374 23.642 6.2005 25.781 7.5223 1.0312 0.63726 3.3516 1.4226 5.1562 1.7451 3.9601 0.70772 5.3285 1.3048 21.928 9.5669 7.1621 3.5648 14.894 8.0096 17.182 9.8773 4.9323 4.0266 8.4831 6.0423 9.2656 5.2599 2.1219-2.1219-11.149-12.39-24.242-18.758-17.82-8.659-22.09-10.288-43.35-16.524-7.22-2.116-19.25-5.688-26.72-7.936-7.48-2.248-18.03-5.02-23.44-6.159-5.4141-1.1394-12.164-2.7059-15-3.4811-14.838-4.056-18.66-5.0664-22.734-6.0104-4.7908-1.1101-6.2382-3.9336-2.6072-5.086 2.2962-0.72879 15.409 1.0328 17.997 2.4176 1.0513 0.56262 4.7159 1.4101 8.1437 1.8832 3.4278 0.47316 8.9745 1.5148 12.326 2.3147 3.3516 0.79993 10.312 2.4616 15.469 3.6925 35.671 8.5156 63.577 18.847 92.012 34.065 4.0417 2.163 3.6465 0.30897-0.85294-4.0023-7.0136-6.7202-54.53-27.389-70.534-30.682-2.5781-0.53038-8.0625-1.9388-12.188-3.1298-17.03-4.9172-28.367-7.8825-32.344-8.4602-2.3203-0.33703-8.2266-1.6798-13.125-2.9839s-10.313-2.708-12.033-3.1199c-5.756-1.3785-8.5923-2.9544-8.5923-4.7741 0-3.1062 11.835-1.6778 32.344 3.9035 7.7344 2.1049 16.594 4.4592 19.688 5.2317 10.613 2.6501 16.893 4.3742 28.594 7.8503 14.914 4.4307 24.46 6.7936 25.052 6.2015 1.6481-1.6481-30.762-14.228-43.386-16.84-3.6385-0.75288-9.1228-2.4093-12.188-3.681-6.8554-2.8446-14.957-4.8036-16.854-4.0755-0.77922 0.29902-6.5751-1.082-12.88-3.0689-6.3046-1.9869-13.572-3.9175-16.15-4.2901-2.5781-0.3726-5.4294-1.0745-6.3363-1.5598-2.2628-1.2109-19.067-4.4184-29.155-5.5652-4.5673-0.51914-10.668-1.5595-13.556-2.3119-2.8887-0.75242-9.0659-1.3988-13.727-1.4365-4.6612-0.03764-10.584-0.41573-13.162-0.8402-2.5781-0.42447-8.4844-1.2466-13.125-1.8271-4.6406-0.58042-13.078-1.6596-18.75-2.3981-16.433-2.1398-27.309-3.346-39.375-4.367-6.1875-0.52359-12.516-1.0915-14.062-1.2621-23.064-2.5429-105.79-2.8072-159.84-0.51064-11.602 0.4929-32.273 1.3494-45.938 1.9034-13.664 0.55396-26.868 1.4123-29.343 1.9074-2.4746 0.49512-6.457 0.90022-8.8498 0.90022s-6.6962 0.4118-9.5632 0.91511-9.4314 1.3304-14.588 1.8381c-11.011 1.084-28.249 3.8777-40.781 6.6092-4.8984 1.0677-11.438 2.3189-14.531 2.7805-3.0938 0.4616-10.688 2.4869-16.875 4.5006-6.1875 2.0138-12.938 4.113-15 4.665-14.497 3.8797-22.003 6.0773-24.844 7.2732-1.8047 0.75986-6.8672 2.2837-11.25 3.3863-8.5479 2.1505-13.125 4.088-13.125 5.556 0 1.7511 5.2194 0.89028 14.314-2.3607 5.1354-1.8356 10.705-3.2129 12.68-3.1355 1.9373 0.07591 4.5074-0.38911 5.7112-1.0334 3.0294-1.6213 14.562-4.7445 17.519-4.7445 1.3399 0 5.0366-0.61683 8.215-1.3707 27.512-6.5259 49.373-7.5315 49.373-2.2713 0 1.8237-1.488 2.2061-12.188 3.1318-3.3516 0.28998-8.625 0.90353-11.719 1.3635-3.0938 0.45992-10.688 1.5635-16.875 2.4525-30.654 4.404-88.688 20.733-101.48 28.554-8.9558 5.4741-1.3802 5.7996 9.8021 0.42116 8.6259-4.1489 23.15-9.1341 35.432-12.162 5.1562-1.2711 11.062-2.7309 13.125-3.244 35.157-8.747 80.921-13.86 81.846-9.1437 0.4839 2.4656-3.1397 3.4152-16.999 4.4547-16.085 1.2065-21.371 2.0428-34.379 5.4397-5.9297 1.5485-12.722 3.084-15.093 3.4122-4.1224 0.57059-22.064 5.0037-36.001 8.8953-3.6094 1.0079-10.781 3.3543-15.938 5.2143-5.1562 1.86-13.903 4.9932-19.437 6.9625-5.5344 1.9694-11.54 4.7079-13.347 6.0857-7.6924 5.8673-5.5413 9.4036 2.5895 4.257 9.488-6.0058 19.768-11.203 22.154-11.2 1.3286 0.0016 5.3687-0.81544 8.9781-1.8157 6.2058-1.7198 13.762-3.6947 27.656-7.2279 3.3516-0.8523 7.7812-1.7455 9.8438-1.9849 2.0625-0.23941 4.1885-0.78762 4.7244-1.2183 0.53592-0.43063 2.6453-1.1902 4.6875-1.6879 2.0422-0.49774 6.1595-1.5745 9.1495-2.3928 2.99-0.81832 6.8649-1.4879 8.6108-1.4879 1.746 0 4.3621-0.45661 5.8136-1.0147 8.8635-3.4078 41.822-6.8282 45.198-4.6906 2.8873 1.8282 0.32025 3.8303-4.9112 3.8303-2.7873 0-6.8614 0.63281-9.0535 1.4062-2.1922 0.77344-5.7356 1.4062-7.8743 1.4062-7.7156 0-29.227 4.3811-57.176 11.645-15.985 4.1544-21.29 5.806-46.83 14.58-15.934 5.4741-20.599 8.381-25.077 15.628-2.6774 4.3322-1.2143 5.7607 2.4445 2.3867 5.5-5.072 15.385-10.423 29.6-16.022 13.878-5.4666 19.621-7.1956 36.007-10.841 4.125-0.91757 9.9526-2.4692 12.95-3.4481 2.9976-0.97891 8.9038-2.1901 13.125-2.6915 7.9148-0.94016 16.55-2.4299 28.769-4.9634 3.8672-0.80181 16.523-2.7479 28.125-4.3246s24.68-3.3558 29.062-3.9534c4.3828-0.59767 10.711-1.1901 14.062-1.3165 3.3516-0.12642 13.055-0.69397 21.562-1.2612 18.585-1.2391 36.434-1.7583 84.844-2.4682 37.567-0.55082 64.55-1.1843 67.031-1.5736 0.77344-0.12136 7.9453 0.0758 15.938 0.43813 7.9922 0.36233 22.193 0.89182 31.558 1.1766 9.3649 0.28482 19.49 0.92889 22.5 1.4313 5.944 0.99201 28.977 2.3634 54.223 3.2285 8.7656 0.30036 17.625 0.81758 19.688 1.1494 2.0625 0.33178 4.4411 0.508 5.2857 0.39159 2.0002-0.27568 25.645 3.2083 34.089 5.023 3.6092 0.7756 8.4262 1.4102 10.704 1.4102 2.2783 0 6.7081 0.40099 9.8441 0.89108 3.136 0.4901 11.608 1.579 18.827 2.4198 7.2188 0.84077 17.977 2.3786 23.906 3.4173 5.9297 1.0388 15.633 2.6586 21.562 3.5997 13.08 2.0758 33.443 6.1363 39.844 7.9452 2.5781 0.72857 8.2734 2.2192 12.656 3.3125 4.3828 1.0933 9.8672 2.6349 12.188 3.4257 35.534 12.111 48.424 19.437 60.331 34.286 6.9582 8.6773 8.106 9.5297 8.106 6.0195zm-539.06-84.219c0-1.3781 1.7031-1.6564 16.406-2.681 7.7344-0.53896 18.492-1.3636 23.906-1.8326 12.837-1.112 56.353-1.1704 66.562-0.08942 4.3828 0.46407 9.9967 0.60862 12.475 0.32121 4.823-0.55925 14.712 1.3377 14.712 2.8221 0 0.56593-16.079 0.67474-43.616 0.29518-26.719-0.36829-47.512-0.23892-53.672 0.33394-14.24 1.3243-36.774 1.8332-36.774 0.83056zm0.47587-9.2065c-1.1984-1.939 0.66485-2.6706 8.1995-3.2192 25.67-1.869 101.72-2.8623 110.86-1.4478 13.905 2.1536 18.876 3.632 16.656 4.9535-0.39513 0.23516-6.2028-0.13512-12.906-0.82283-18.435-1.8914-53.227-1.5845-110.8 0.97713-7.2499 0.3226-11.636 0.16159-12.008-0.44078zm137.23-7.9172c-2.4637-2.5203-122.69-5.3959-132.59-3.1714-3.2869 0.73828-6.1115-0.486-4.6026-1.9949 2.7006-2.7006 114.73-3.8231 141.52-1.418 14.152 1.2703 16.804 2.4141 11.353 4.8977-2.67 1.2165-14.856 2.5275-15.678 1.6866zm36.2-12.795c-2.5781-0.41949-20.93-0.74158-40.781-0.71574-128.24 0.16688-131.25 0.11042-131.25-2.4627 0-0.89604 5.1134-1.3087 21.328-1.7213 11.73-0.29846 28.289-1.0051 36.797-1.5702 20.545-1.3648 40.842-1.5871 61.406-0.67255 9.2812 0.41276 21.727 0.939 27.656 1.1694 31.999 1.2435 38.492 2.4671 32.67 6.1565-1.3977 0.88575-1.2318 0.88964-7.8266-0.18342zm-400.79 114.64c0-0.4132-1.8577-2.5218-4.1283-4.6858-4.072-3.88-9.685-12.49-11.117-17.06-2.053-6.54-3.408-16.66-2.935-21.901l0.52-5.755-2.185 3.281c-5.6237 8.4441-1.6254 26.176 8.8461 39.23 4.7367 5.9051 11 9.8301 11 6.8934z"/>
</svg>
