<?xml version="1.0" encoding="UTF-8" standalone="no"?>
<svg
   xmlns:dc="http://purl.org/dc/elements/1.1/"
   xmlns:cc="http://creativecommons.org/ns#"
   xmlns:rdf="http://www.w3.org/1999/02/22-rdf-syntax-ns#"
   xmlns:svg="http://www.w3.org/2000/svg"
   xmlns="http://www.w3.org/2000/svg"
   xmlns:xlink="http://www.w3.org/1999/xlink"
   xmlns:sodipodi="http://sodipodi.sourceforge.net/DTD/sodipodi-0.dtd"
   xmlns:inkscape="http://www.inkscape.org/namespaces/inkscape"
   id="svg2"
   viewBox="0 0 256 170.14674"
   version="1.1"
   sodipodi:docname="ring_02.svg"
   inkscape:version="0.92.4 (5da689c313, 2019-01-14)"
   width="256"
   height="170.14674">
  <title
     id="title872">ring</title>
  <sodipodi:namedview
     pagecolor="#ffffff"
     bordercolor="#666666"
     borderopacity="1"
     objecttolerance="10"
     gridtolerance="10"
     guidetolerance="10"
     inkscape:pageopacity="0"
     inkscape:pageshadow="2"
     inkscape:window-width="1920"
     inkscape:window-height="1025"
     id="namedview65"
     showgrid="false"
     inkscape:zoom="0.42992092"
     inkscape:cx="-286.16073"
     inkscape:cy="68.455542"
     inkscape:window-x="-8"
     inkscape:window-y="-8"
     inkscape:window-maximized="1"
     inkscape:current-layer="svg2"
     fit-margin-top="0"
     fit-margin-left="0"
     fit-margin-right="0"
     fit-margin-bottom="0" />
  <defs
     id="defs4">
    <linearGradient
       id="linearGradient5337">
      <stop
         id="stop5339"
         stop-color="#fff"
         offset="0" />
      <stop
         id="stop5341"
         stop-color="#fff"
         stop-opacity="0"
         offset="1" />
    </linearGradient>
    <linearGradient
       id="linearGradient4377">
      <stop
         id="stop4379"
         stop-color="#754d22"
         offset="0" />
      <stop
         id="stop4412"
         stop-color="#fdda5c"
         offset=".74999" />
      <stop
         id="stop4381"
         stop-color="#fbf384"
         offset="1" />
    </linearGradient>
    <linearGradient
       inkscape:collect="always"
       xlink:href="#linearGradient4377"
       id="linearGradient874"
       gradientUnits="userSpaceOnUse"
       x1="-37.304001"
       y1="144.62"
       x2="52.664001"
       y2="145.34"
       spreadMethod="reflect"
       gradientTransform="translate(105.973,11.411)" />
    <linearGradient
       inkscape:collect="always"
       xlink:href="#linearGradient5337"
       id="linearGradient876"
       gradientUnits="userSpaceOnUse"
       gradientTransform="matrix(-0.52993,0,0,76.119,463.013,-22092.589)"
       x1="3.125"
       y1="304.35999"
       x2="125.22"
       y2="304.35999" />
    <linearGradient
       inkscape:collect="always"
       xlink:href="#linearGradient4377"
       id="linearGradient878"
       gradientUnits="userSpaceOnUse"
       x1="89.975998"
       y1="203.35001"
       x2="494.47"
       y2="-188.78999"
       spreadMethod="reflect"
       gradientTransform="translate(105.973,11.411)" />
    <radialGradient
       inkscape:collect="always"
       xlink:href="#linearGradient4377"
       id="radialGradient880"
       gradientUnits="userSpaceOnUse"
       gradientTransform="matrix(0,1.1822,-0.5085,0,518.563,-4.651)"
       cx="242.49001"
       cy="85.236"
       r="237.14"
       spreadMethod="reflect" />
    <linearGradient
       inkscape:collect="always"
       xlink:href="#linearGradient5337"
       id="linearGradient882"
       gradientUnits="userSpaceOnUse"
       gradientTransform="matrix(-0.71891,0,0,4.3144,525.023,-992.089)"
       x1="3.125"
       y1="304.35999"
       x2="125.22"
       y2="304.35999" />
    <radialGradient
       inkscape:collect="always"
       xlink:href="#linearGradient4377"
       id="radialGradient884"
       gradientUnits="userSpaceOnUse"
       gradientTransform="matrix(0.35506,-0.095137,0.046995,0.17539,194.289,157.291)"
       cx="148.58"
       cy="159.77"
       r="237.14"
       spreadMethod="reflect" />
    <linearGradient
       inkscape:collect="always"
       xlink:href="#linearGradient4377"
       id="linearGradient886"
       gradientUnits="userSpaceOnUse"
       x1="136.64999"
       y1="185.14999"
       x2="160.48"
       y2="143.87"
       gradientTransform="translate(105.973,11.411)" />
    <linearGradient
       inkscape:collect="always"
       xlink:href="#linearGradient5337"
       id="linearGradient888"
       gradientUnits="userSpaceOnUse"
       gradientTransform="matrix(8.8523,0,0,8.8523,-340.607,-2385.789)"
       x1="56.737"
       y1="305.32999"
       x2="61.575001"
       y2="305.32999"
       spreadMethod="reflect" />
    <linearGradient
       inkscape:collect="always"
       xlink:href="#linearGradient5337"
       id="linearGradient890"
       gradientUnits="userSpaceOnUse"
       gradientTransform="matrix(0.71891,0,0,4.6203,-2.157,-1070.989)"
       x1="3.125"
       y1="304.35999"
       x2="125.22"
       y2="304.35999" />
    <linearGradient
       inkscape:collect="always"
       xlink:href="#linearGradient4377"
       id="linearGradient892"
       gradientUnits="userSpaceOnUse"
       x1="-92.602997"
       y1="279.10999"
       x2="-88.561996"
       y2="40.451"
       spreadMethod="reflect"
       gradientTransform="translate(105.973,11.411)" />
    <linearGradient
       inkscape:collect="always"
       xlink:href="#linearGradient4377"
       id="linearGradient894"
       gradientUnits="userSpaceOnUse"
       x1="136.64999"
       y1="185.14999"
       x2="160.48"
       y2="143.87"
       gradientTransform="translate(105.973,11.411)" />
    <linearGradient
       inkscape:collect="always"
       xlink:href="#linearGradient5337"
       id="linearGradient896"
       gradientUnits="userSpaceOnUse"
       x1="275.01001"
       y1="219.73"
       x2="384.14001"
       y2="219.73"
       spreadMethod="reflect"
       gradientTransform="translate(105.973,11.411)" />
    <linearGradient
       inkscape:collect="always"
       xlink:href="#linearGradient4377"
       id="linearGradient898"
       gradientUnits="userSpaceOnUse"
       gradientTransform="translate(105.973,24.34)"
       x1="-50.938"
       y1="95.469002"
       x2="348.09"
       y2="95.469002" />
    <radialGradient
       inkscape:collect="always"
       xlink:href="#linearGradient5337"
       id="radialGradient900"
       gradientUnits="userSpaceOnUse"
       gradientTransform="matrix(0.92675,-0.37568,0.37568,0.92675,-96.287,40.899)"
       cx="56.734001"
       cy="267.35999"
       r="54.234001" />
    <linearGradient
       inkscape:collect="always"
       xlink:href="#linearGradient5337"
       id="linearGradient902"
       gradientUnits="userSpaceOnUse"
       x1="251.60001"
       y1="97.286003"
       x2="348.09"
       y2="97.286003"
       spreadMethod="reflect"
       gradientTransform="translate(105.973,11.411)" />
    <radialGradient
       inkscape:collect="always"
       xlink:href="#linearGradient5337"
       id="radialGradient904"
       gradientUnits="userSpaceOnUse"
       gradientTransform="translate(0,2.151e-6)"
       cx="239.60001"
       cy="63.782001"
       r="44.479" />
  </defs>
  <g
     id="g999"
     transform="matrix(0.53972002,0,0,0.53972002,-9.3765559,-29.164311)">
    <g
       inkscape:label="ring"
       id="g979">
      <path
         id="path3772"
         style="color:#000000;fill:url(#linearGradient874)"
         d="m 491.663,258.031 v -86.875 c 0,-64.696 -106.15,-117.12 -237.12,-117.12 -130.97,0 -237.16,52.429 -237.16,117.12 v 86.875 c 0,-64.696 106.19,-117.12 237.16,-117.12 130.97,0 237.12,52.429 237.12,117.12 z"
         inkscape:connector-curvature="0" />
      <path
         id="path6407"
         style="color:#000000;fill:url(#linearGradient876)"
         d="m 397.033,77.536 -0.03,86.875 c 8.0168,2.9805 15.632,6.2076 22.812,9.6562 v -86.875 c -7.17,-3.448 -14.77,-6.682 -22.78,-9.66 z"
         inkscape:connector-curvature="0" />
      <path
         id="path5221"
         style="color:#000000;fill:url(#linearGradient878)"
         d="m 254.533,132.911 c -130.97,0 -237.16,52.429 -237.16,117.12 v 8 c 0,-64.696 106.19,-117.12 237.16,-117.12 130.97,0 237.12,52.429 237.12,117.12 v -8 c 0,-64.696 -106.15,-117.12 -237.12,-117.12 z"
         inkscape:connector-curvature="0" />
      <path
         id="path2985"
         style="color:#000000;fill:url(#radialGradient880)"
         d="m 17.411,165.291 v 86.875 c 0,64.696 106.15,117.12 237.12,117.12 130.97,0 237.16,-52.429 237.16,-117.12 v -86.875 c 0,64.69 -106.19,117.12 -237.16,117.12 -130.97,0 -237.12,-52.43 -237.12,-117.12 z"
         inkscape:connector-curvature="0" />
      <path
         id="path6312"
         style="color:#000000;fill:url(#linearGradient882)"
         d="m 466.473,225.311 -30.756,15.705 -0.62905,76.908 c 5.9252,-2.7544 11.582,-5.7738 16.917,-8.9915 l 14.468,-16.784 v -66.837 z"
         inkscape:connector-curvature="0" />
      <path
         id="path2987"
         style="color:#000000;fill:url(#radialGradient884)"
         d="m 254.533,54.036 c -130.97,0 -237.12,52.46 -237.12,117.16 0,64.696 106.15,117.12 237.12,117.12 130.97,0 237.16,-52.429 237.16,-117.12 0,-64.695 -106.19,-117.16 -237.16,-117.16 z m 0,18.594 c 110.19,0 199.53,44.129 199.53,98.562 0,54.433 -89.337,98.562 -199.53,98.562 -110.193,0 -199.5,-44.129 -199.5,-98.562 0,-54.433 89.306,-98.562 199.5,-98.562 z"
         inkscape:connector-curvature="0" />
      <path
         id="path5174"
         style="color:#000000;fill:url(#linearGradient886)"
         d="m 254.523,61.016 c -110.19,0 -199.5,44.129 -199.5,98.562 0,2.3732 0.19742,4.7313 0.53125,7.0625 7.3472,-51.128 93.596,-91.5 198.97,-91.5 105.374,0 191.68,40.372 199.03,91.5 0.33395,-2.3312 0.5,-4.6893 0.5,-7.0625 0,-54.433 -89.337,-98.562 -199.53,-98.562 z"
         inkscape:connector-curvature="0" />
      <path
         id="path5189"
         style="color:#000000;fill:url(#linearGradient888)"
         d="m 124.848,269.531 v 75.906 c 22.648,7.6571 48.539,13.346 76.562,16.562 v -75.906 c -28.022,-3.21 -53.915,-8.9 -76.562,-16.56 z"
         inkscape:connector-curvature="0" />
      <path
         id="path6321"
         style="color:#000000;fill:url(#linearGradient890)"
         d="m 56.391,232.661 30.756,16.819 0.62905,82.36 c -5.9252,-2.9496 -11.582,-6.1832 -16.917,-9.629 l -14.468,-17.974 v -71.576 z"
         inkscape:connector-curvature="0" />
      <path
         id="path5242"
         style="color:#000000;fill:url(#linearGradient892)"
         d="m 17.411,165.291 v 86.875 c 0,64.696 106.15,117.12 237.12,117.12 130.97,0 237.16,-52.429 237.16,-117.12 v -86.875 c 0,13.793 -4.8552,27.024 -13.719,39.312 v 48.438 c 0,60.95 -100.05,110.34 -223.44,110.34 -123.39,0 -223.41,-49.394 -223.41,-110.34 v -48.406 c -8.869,-12.3 -13.712,-25.54 -13.712,-39.34 z"
         inkscape:connector-curvature="0" />
      <path
         id="path5112"
         style="color:#000000;fill:url(#linearGradient894)"
         d="m 17.837,166.641 c -0.28314,2.3444 -0.4375,4.683 -0.4375,7.0625 0,64.696 106.15,117.12 237.12,117.12 130.97,0 237.16,-52.429 237.16,-117.12 0,-2.3794 -0.15428,-4.7182 -0.4375,-7.0625 -7.3974,61.405 -110.55,110.06 -236.72,110.06 -126.17,0 -229.29,-48.658 -236.69,-110.06 z"
         inkscape:connector-curvature="0" />
      <path
         id="path5131"
         style="color:#000000;fill:url(#linearGradient896)"
         d="m 17.71,170.871 c -0.03125,0.77056 -0.0625,1.5301 -0.0625,2.3125 0,65.293 105.75,118.22 236.22,118.22 130.47,0 236.25,-52.926 236.25,-118.22 0,-0.77727 2.1e-4,-1.5473 -0.0312,-2.3125 -2.3811,64.261 -107.24,115.97 -236.22,115.97 -128.98,0 -233.78,-51.707 -236.16,-115.97 z"
         inkscape:connector-curvature="0" />
      <path
         id="path5176"
         style="color:#000000;fill:url(#linearGradient898)"
         d="m 254.533,72.058 c -105.37,0 -191.62,40.372 -198.97,91.5 -0.2357,-1.6459 -0.39052,-3.3002 -0.46875,-4.9688 -0.02463,0.63773 -0.0625,1.2656 -0.0625,1.9062 0,2.3732 0.19742,4.7313 0.53125,7.0625 7.3472,-51.128 93.596,-91.5 198.97,-91.5 105.374,0 191.68,40.372 199.03,91.5 0.33395,-2.3312 0.5,-4.6893 0.5,-7.0625 0,-0.64064 -0.0379,-1.2685 -0.0625,-1.9062 -0.069,1.6686 -0.20172,3.3228 -0.4375,4.9688 -7.35,-51.13 -93.65,-91.503 -199.03,-91.503 z"
         inkscape:connector-curvature="0" />
      <path
         id="path5333"
         style="color:#000000;fill:url(#linearGradient902)"
         d="m 254.533,60.947 c -105.37,0 -191.62,40.372 -198.97,91.5 -0.2357,-1.6459 -0.39052,-3.3002 -0.46875,-4.9688 -0.02463,0.63773 -0.0625,1.2656 -0.0625,1.9062 0,2.3732 0.19742,4.7313 0.53125,7.0625 7.3472,-51.128 93.596,-91.5 198.97,-91.5 105.374,0 191.68,40.372 199.03,91.5 0.33395,-2.3312 0.5,-4.6893 0.5,-7.0625 0,-0.64064 -0.0379,-1.2685 -0.0625,-1.9062 -0.069,1.6686 -0.20172,3.3228 -0.4375,4.9688 -7.35,-51.132 -93.65,-91.504 -199.03,-91.504 z"
         inkscape:connector-curvature="0" />
    </g>
    <g
       transform="translate(105.973,11.411)"
       id="g946"
       inkscape:label="glimmer"
       style="display:none">
      <path
         id="path5306"
         style="color:#000000;fill:url(#radialGradient900)"
         d="m 65.364,205.34 -10.962,58.969 -0.38894,-0.0451 -16.983,-12.032 13.726,11.734 -56.041,-5.2361 58.928,10.945 -0.35309,3.9535 -11.589,16.331 11.272,-13.202 -4.8979,52.633 10.905,-58.609 20.447,14.506 -16.995,-14.557 56.331,5.287 -56.745,-10.548 12.736,-17.909 -14.96,17.496 5.5672,-59.716 z"
         inkscape:connector-curvature="0" />
      <path
         id="path5364"
         style="color:#000000;display:inline;fill:url(#radialGradient904)"
         d="m 239.58,108.26 -1.9303,-42.557 -0.27803,-0.0067 -13.126,6.7993 10.806,-6.9088 -39.936,-1.8104 42.526,-1.9222 0.13917,-2.8157 -6.551,-12.624 6.6353,10.392 1.7142,-37.505 1.926,42.298 15.806,-8.1997 -13.382,8.5739 40.145,1.803 -40.951,1.8577 7.2036,13.847 -8.8089,-13.774 -1.9376,42.553 z"
         inkscape:connector-curvature="0" />
    </g>
  </g>
  <metadata
     id="metadata62">
    <rdf:RDF>
      <cc:Work>
        <dc:format>image/svg+xml</dc:format>
        <dc:type
           rdf:resource="http://purl.org/dc/dcmitype/StillImage" />
        <cc:license
           rdf:resource="http://creativecommons.org/publicdomain/zero/1.0/" />
        <dc:publisher>
          <cc:Agent
             rdf:about="http://openclipart.org/">
            <dc:title>Openclipart</dc:title>
          </cc:Agent>
        </dc:publisher>
        <dc:title>ring</dc:title>
        <dc:date>2013-09-06T20:43:39</dc:date>
        <dc:description>ring, žiedas</dc:description>
        <dc:source>https://openclipart.org/detail/183130</dc:source>
        <dc:creator>
          <cc:Agent>
            <dc:title>Keistutis</dc:title>
          </cc:Agent>
        </dc:creator>
        <dc:subject>
          <rdf:Bag>
            <rdf:li>ring</rdf:li>
            <rdf:li>žiedas</rdf:li>
          </rdf:Bag>
        </dc:subject>
      </cc:Work>
      <cc:License
         rdf:about="http://creativecommons.org/publicdomain/zero/1.0/">
        <cc:permits
           rdf:resource="http://creativecommons.org/ns#Reproduction" />
        <cc:permits
           rdf:resource="http://creativecommons.org/ns#Distribution" />
        <cc:permits
           rdf:resource="http://creativecommons.org/ns#DerivativeWorks" />
      </cc:License>
    </rdf:RDF>
  </metadata>
</svg>
