<?xml version="1.0" encoding="UTF-8" standalone="no"?>
<svg
   xmlns:dc="http://purl.org/dc/elements/1.1/"
   xmlns:cc="http://creativecommons.org/ns#"
   xmlns:rdf="http://www.w3.org/1999/02/22-rdf-syntax-ns#"
   xmlns:svg="http://www.w3.org/2000/svg"
   xmlns="http://www.w3.org/2000/svg"
   xmlns:xlink="http://www.w3.org/1999/xlink"
   xmlns:sodipodi="http://sodipodi.sourceforge.net/DTD/sodipodi-0.dtd"
   xmlns:inkscape="http://www.inkscape.org/namespaces/inkscape"
   id="svg51142"
   viewBox="0 0 255.99999 104.87833"
   version="1.0"
   sodipodi:docname="ring_03.svg"
   inkscape:version="0.92.4 (5da689c313, 2019-01-14)"
   width="256"
   height="104.87833">
  <sodipodi:namedview
     pagecolor="#ffffff"
     bordercolor="#666666"
     borderopacity="1"
     objecttolerance="10"
     gridtolerance="10"
     guidetolerance="10"
     inkscape:pageopacity="0"
     inkscape:pageshadow="2"
     inkscape:window-width="1920"
     inkscape:window-height="1025"
     id="namedview67"
     showgrid="false"
     inkscape:zoom="0.324367"
     inkscape:cx="-56.223061"
     inkscape:cy="207.05711"
     inkscape:window-x="-8"
     inkscape:window-y="-8"
     inkscape:window-maximized="1"
     inkscape:current-layer="svg51142"
     fit-margin-top="0"
     fit-margin-left="0"
     fit-margin-right="0"
     fit-margin-bottom="0" />
  <defs
     id="defs51144">
    <linearGradient
       id="linearGradient4006">
      <stop
         id="stop4008"
         stop-color="#f0c61d"
         offset="0" />
      <stop
         id="stop4010"
         stop-color="#f0c61d"
         stop-opacity="0"
         offset="1" />
    </linearGradient>
    <filter
       id="filter37651"
       y="-0.080721997"
       width="1.6528"
       x="-0.32638001"
       height="1.1614">
      <feGaussianBlur
         id="feGaussianBlur37653"
         stdDeviation="4.8309292" />
    </filter>
    <filter
       id="filter55707"
       y="-0.40967"
       width="1.2476"
       x="-0.12382"
       height="1.8193001">
      <feGaussianBlur
         id="feGaussianBlur55709"
         stdDeviation="39.504294" />
    </filter>
    <linearGradient
       id="linearGradient2738"
       y2="55.115002"
       gradientUnits="userSpaceOnUse"
       y1="55.115002"
       x2="-305.79999"
       x1="-990.47998"
       gradientTransform="matrix(0.85496,0,0,0.82048,1018,38)">
      <stop
         id="stop49128"
         stop-color="#fff"
         stop-opacity="0"
         offset="0" />
      <stop
         id="stop49144"
         stop-color="#fff"
         stop-opacity=".13364"
         offset=".1227" />
      <stop
         id="stop49146"
         stop-color="#fff"
         stop-opacity=".059908"
         offset=".15278" />
      <stop
         id="stop49148"
         stop-color="#fff"
         stop-opacity=".4424"
         offset=".21143" />
      <stop
         id="stop49136"
         stop-color="#fff"
         stop-opacity=".059908"
         offset=".2454" />
      <stop
         id="stop49138"
         stop-color="#fff"
         stop-opacity=".23041"
         offset=".35028" />
      <stop
         id="stop49140"
         stop-color="#090504"
         stop-opacity=".26728"
         offset=".49161" />
      <stop
         id="stop49142"
         stop-color="#fff"
         stop-opacity="0"
         offset=".73862" />
      <stop
         id="stop49154"
         stop-color="#10100e"
         stop-opacity=".2765"
         offset=".86931" />
      <stop
         id="stop49156"
         stop-color="#0f0f0e"
         stop-opacity=".25806"
         offset=".93466" />
      <stop
         id="stop49158"
         stop-color="#0e0f0e"
         stop-opacity=".45161"
         offset=".96733" />
      <stop
         id="stop49160"
         stop-color="#0e0f0e"
         stop-opacity=".20737"
         offset=".98366" />
      <stop
         id="stop49162"
         stop-color="#0e0f0e"
         stop-opacity=".20276"
         offset=".98449" />
      <stop
         id="stop49164"
         stop-color="#1e1f1f"
         stop-opacity=".51152"
         offset="1" />
      <stop
         id="stop49130"
         stop-color="#4d4d4f"
         stop-opacity=".51152"
         offset="1" />
    </linearGradient>
    <linearGradient
       id="linearGradient2291"
       x1="-1005.2"
       xlink:href="#linearGradient4006"
       gradientUnits="userSpaceOnUse"
       y1="343.76001"
       gradientTransform="matrix(1.0031,0,0,1.072,857.71,156.53)"
       x2="-18.990999"
       y2="8.9369001" />
    <linearGradient
       id="linearGradient2294"
       x1="205.60001"
       xlink:href="#linearGradient4006"
       gradientUnits="userSpaceOnUse"
       y1="-201.73"
       gradientTransform="matrix(1.0031,0,0,1.072,857.71,17.978)"
       x2="-807.40002"
       y2="322.97" />
    <linearGradient
       id="linearGradient2304"
       x1="-657.81"
       gradientUnits="userSpaceOnUse"
       y1="120.47"
       gradientTransform="translate(826.5,-36.844)"
       x2="-70.280998"
       y2="120.47">
      <stop
         id="stop49112"
         stop-opacity=".70507"
         offset="0" />
      <stop
         id="stop49116"
         stop-color="#fc0"
         stop-opacity=".37255"
         offset=".625" />
      <stop
         id="stop49114"
         stop-color="#fffafa"
         stop-opacity=".57604"
         offset=".75" />
      <stop
         id="stop49108"
         stop-color="#fc0"
         stop-opacity="0"
         offset="1" />
    </linearGradient>
    <radialGradient
       id="radialGradient2310"
       gradientUnits="userSpaceOnUse"
       cy="110.42"
       cx="-364.26999"
       gradientTransform="matrix(1,0,0,0.093392,826.5,63.266)"
       r="342.14001">
      <stop
         id="stop32574"
         stop-color="#fefefe"
         offset="0" />
      <stop
         id="stop32586"
         stop-color="#e9d47f"
         stop-opacity=".49804"
         offset=".5" />
      <stop
         id="stop32576"
         stop-color="#d4aa00"
         stop-opacity="0"
         offset="1" />
    </radialGradient>
    <linearGradient
       id="linearGradient2314"
       x1="-710.71997"
       gradientUnits="userSpaceOnUse"
       y1="227.17"
       gradientTransform="translate(826.5,-36.844)"
       x2="-18.844"
       y2="227.17">
      <stop
         id="stop29901"
         stop-color="#fc0"
         offset="0" />
      <stop
         id="stop29903"
         stop-color="#fc0"
         stop-opacity=".49804"
         offset=".097458" />
      <stop
         id="stop29905"
         stop-color="#806601"
         stop-opacity=".7451"
         offset=".34272" />
      <stop
         id="stop29913"
         stop-color="#040200"
         stop-opacity=".28111"
         offset=".49941" />
      <stop
         id="stop29915"
         stop-color="#806601"
         stop-opacity=".7451"
         offset=".79042" />
      <stop
         id="stop29917"
         stop-color="#bfb17e"
         stop-opacity=".86667"
         offset="1" />
      <stop
         id="stop29919"
         stop-color="#fc0"
         offset="1" />
    </linearGradient>
  </defs>
  <g
     id="g966"
     transform="matrix(0.36903491,0,0,0.36903491,-42.364723,-5.7989326)">
    <path
       style="display:inline;fill:#ffffff;fill-rule:evenodd"
       inkscape:connector-curvature="0"
       d="m 116,237.34 c 30.89,47.77 221.96,62.93 351.95,59.7 181.97,-4.53 330.77,-34.18 339.05,-64.7 v -157 C 770.11,42.691 638.41,20.49 465.01,16.57 356.2,14.089 153.2,32.585 115,78.335 c -0.79,0.607 1,159 1,159 z"
       id="path5774" />
    <path
       inkscape:label="shadow"
       inkscape:connector-curvature="0"
       d="m 876.23,190.93 a 382.86,115.71 0 1 1 -765.72,0 382.86,115.71 0 1 1 765.72,0 z"
       style="color:#000000;display:none;fill:#999999;fill-rule:evenodd;filter:url(#filter55707)"
       id="path54686" />
    <path
       inkscape:connector-curvature="0"
       d="m 807.65528,140.93351 a 344.28686,105.71034 0 1 1 -688.57371,0 344.28686,105.71034 0 1 1 688.57371,0 z"
       style="color:#000000;fill:#ffffff;fill-rule:evenodd;stroke-width:0.90638667"
       id="path55711" />
    <rect
       x="116.23"
       y="149.5"
       width="685.71002"
       height="81.361"
       style="color:#000000;fill:#ffffff;fill-rule:evenodd"
       id="rect56686" />
    <path
       inkscape:connector-curvature="0"
       d="m 462.66,26.281 c -162.29,0 -293.97,25.837 -293.97,57.688 0,2.228 0.65,4.43 1.9,6.593 0.02,0.021 0.02,0.043 0.04,0.063 18.4,28.385 141.98,50.345 291.59,50.345 162.28,0 294,-25.84 294,-57.689 0,-1.99 -0.5,-3.967 -1.5,-5.906 -0.14,-0.265 -0.31,-0.517 -0.47,-0.781 C 735.77,48.227 612.2,26.281 462.66,26.281 Z"
       style="color:#000000;opacity:0.75410001;fill:#ffcc00;fill-rule:evenodd"
       id="path27744" />
    <path
       inkscape:connector-curvature="0"
       d="m 115.78,85.937 v 140.81 h 0.13 v 0.09 c 0,37.47 154.95,67.88 345.87,67.88 5.97,0 11.89,-0.04 17.78,-0.1 182.67,-1.81 328.1,-31.48 328.1,-67.78 0,-0.31 -0.01,-0.65 -0.03,-0.97 -0.02,-0.31 -0.05,-0.62 -0.1,-0.93 v -31.35 c 0.08,-0.58 0.13,-1.16 0.13,-1.75 0,-0.63 -0.04,-1.27 -0.13,-1.9 v -31.25 c 0.09,-0.62 0.13,-1.23 0.13,-1.85 0,-0.31 -0.01,-0.65 -0.03,-0.97 -0.02,-0.31 -0.05,-0.62 -0.1,-0.93 v -31.35 c 0.08,-0.58 0.13,-1.16 0.13,-1.75 0,-0.63 -0.04,-1.27 -0.13,-1.9 v -31.44 c -5.13,36.59 -158.06,66 -345.75,66 -190.92,0 -345.87,-30.4 -345.87,-67.875 0,-0.226 -0.01,-0.462 0,-0.688 h -0.13 z"
       style="color:#000000;opacity:0.75410001;fill:#d4aa00;fill-rule:evenodd"
       id="path27746" />
    <path
       inkscape:connector-curvature="0"
       d="m 115.78,85.937 v 140.81 h 0.13 v 0.09 c 0,37.47 154.95,67.88 345.87,67.88 5.97,0 11.89,-0.04 17.78,-0.1 182.67,-1.81 328.1,-31.48 328.1,-67.78 0,-0.31 -0.01,-0.65 -0.03,-0.97 -0.02,-0.31 -0.05,-0.62 -0.1,-0.93 v -31.35 c 0.08,-0.58 0.13,-1.16 0.13,-1.75 0,-0.63 -0.04,-1.27 -0.13,-1.9 v -31.25 c 0.09,-0.62 0.13,-1.23 0.13,-1.85 0,-0.31 -0.01,-0.65 -0.03,-0.97 -0.02,-0.31 -0.05,-0.62 -0.1,-0.93 v -31.35 c 0.08,-0.58 0.13,-1.16 0.13,-1.75 0,-0.63 -0.04,-1.27 -0.13,-1.9 v -31.44 c -5.13,36.59 -158.06,66 -345.75,66 -190.92,0 -345.87,-30.4 -345.87,-67.875 0,-0.226 -0.01,-0.462 0,-0.688 h -0.13 z"
       style="color:#000000;opacity:0.75410001;fill:url(#linearGradient2314);fill-rule:evenodd"
       id="path28873" />
    <path
       inkscape:connector-curvature="0"
       d="m 453.3,15.72 c -186.8,0.93 -336.95,30.99 -336.95,67.875 0,37.475 154.96,67.875 345.88,67.875 190.92,0 345.87,-30.4 345.87,-67.875 0,-37.471 -154.95,-67.875 -345.87,-67.875 -2.98,0 -5.96,-0.014 -8.93,0 z m 8.93,10.175 c 162.28,0 294,25.85 294,57.7 0,31.855 -131.72,57.705 -294,57.705 -162.29,0 -293.98,-25.85 -293.98,-57.705 0,-31.85 131.69,-57.7 293.98,-57.7 z"
       style="color:#000000;opacity:0.75;fill:#d4aa00;fill-rule:evenodd"
       id="path31506" />
    <path
       inkscape:connector-curvature="0"
       d="m 190.34,41.625 c -36.39,9.074 -61.25,20.022 -70.25,31.969 8.99,11.937 33.81,22.87 70.16,31.936 -14.16,-6.758 -22,-14.179 -22,-21.936 0,-3.407 1.52,-6.755 4.41,-10 -2.89,-3.245 -4.41,-6.594 -4.41,-10 0,-7.775 7.87,-15.198 22.09,-21.969 z m 543.82,0.031 c 14.21,6.769 22.06,14.167 22.06,21.938 0,3.407 -1.52,6.754 -4.41,10 2.89,3.246 4.41,6.592 4.41,10 0,7.744 -7.79,15.157 -21.91,21.906 C 770.62,96.436 795.4,85.522 804.38,73.594 795.39,61.65 770.54,50.726 734.16,41.656 Z"
       style="color:#000000;opacity:0.75;fill:url(#radialGradient2310);fill-rule:evenodd"
       id="path27748" />
    <path
       inkscape:connector-curvature="0"
       d="m 190.34,47.849 c -36.39,9.075 -61.25,20.022 -70.25,31.969 8.99,11.937 33.81,22.872 70.16,31.942 -14.16,-6.76 -22,-14.185 -22,-21.942 0,-3.407 -6.75,-6.755 -3.86,-10 -2.89,-3.245 3.86,-6.593 3.86,-10 0,-7.775 7.87,-15.198 22.09,-21.969 z m 543.82,0.031 c 14.21,6.769 22.06,14.167 22.06,21.938 0,3.407 4.91,6.754 2.02,10 2.89,3.246 -2.02,6.592 -2.02,10 0,7.744 -7.79,15.152 -21.91,21.902 36.31,-9.06 61.09,-19.974 70.07,-31.902 C 795.39,67.874 770.54,56.951 734.16,47.88 Z"
       style="color:#000000;opacity:0.37000002;fill:#ffffff;fill-rule:evenodd"
       id="path32588" />
    <path
       inkscape:connector-curvature="0"
       d="m 733.31,111.41 c 36.4,-9.08 61.26,-20.025 70.25,-31.971 -4.78,-6.36 -20.49,-10.598 -33.62,-16.257 -11.51,-4.963 -19.55,-11.444 -36.53,-15.681 14.16,6.759 22,14.18 22,21.938 0,3.407 4.91,6.755 2.02,10 2.89,3.245 -2.02,6.593 -2.02,10 0,7.775 -7.87,15.201 -22.1,21.971 z M 189.5,111.38 c -14.21,-6.77 -22.06,-14.17 -22.06,-21.941 0,-3.408 -5.83,-6.754 -2.94,-10 -2.89,-3.246 2.94,-6.593 2.94,-10 0,-7.744 7.79,-15.157 21.9,-21.906 -36.3,9.063 -61.09,19.977 -70.06,31.906 4.58,6.085 23.38,10.987 35.62,16.433 11.79,5.238 16.75,11.058 34.6,15.508 z"
       style="color:#000000;opacity:0.37000002;fill:#ffffff;fill-rule:evenodd"
       id="path33559" />
    <path
       inkscape:connector-curvature="0"
       transform="matrix(0.51815,0,0,0.88294,708.21,-78.963)"
       d="m -973.21,322.84 c 0,0.81 -0.9,-0.16 -0.91,0.65 0,0.82 0.67,1.1 0.65,1.91 -0.01,0.82 -1.7,2.12 -1.72,2.93 -0.02,0.81 0.22,1.09 0.19,1.9 -0.02,0.81 0.37,1.71 0.34,2.52 -0.03,0.82 1.14,2.1 1.1,2.9 -0.04,0.82 -1.99,2.85 -2.03,3.66 -0.05,0.82 1.66,3.37 1.61,4.17 -0.05,0.82 -0.98,-0.72 -1.04,0.09 -0.05,0.81 0.29,0.75 0.23,1.56 -0.07,0.81 -0.74,1.49 -0.81,2.3 -0.07,0.81 0.15,3.07 0.07,3.87 -0.08,0.82 -0.47,1.09 -0.56,1.89 -0.08,0.82 -0.43,0.67 -0.52,1.47 -0.1,0.82 1.18,3.45 1.08,4.24 -0.11,0.82 -0.36,-2.1 -0.48,-1.3 -0.11,0.81 -2.33,2.91 -2.45,3.7 -0.13,0.81 0.37,2.22 0.23,3.01 -0.13,0.81 1.83,1.32 1.68,2.11 -0.15,0.81 -0.65,0.69 -0.81,1.48 -0.16,0.81 -2.44,2.44 -2.61,3.22 -0.18,0.81 2.76,1.6 2.57,2.37 -0.19,0.81 -1.98,2.16 -2.19,2.92 -0.22,0.81 -1,0.62 -1.23,1.38 -0.24,0.8 -1.13,2.89 -1.38,3.63 -0.28,0.8 -0.12,2.04 -0.41,2.76 -0.31,0.8 -2.27,2.01 -2.59,2.7 -0.37,0.79 1.53,0.35 1.15,1 -0.45,0.77 -1.31,2.55 -1.78,3.13 -0.58,0.7 -1.18,0.12 -1.78,0.52 -0.74,0.5 -2.35,-0.09 -3.12,-0.09 -0.77,0 -0.53,2.84 -1.28,2.34 -0.6,-0.41 -0.53,-5.07 -1.1,-5.78 -0.47,-0.58 -2.83,0.33 -3.28,-0.43 -0.38,-0.66 1.22,-2.21 0.85,-2.99 -0.32,-0.7 -2.96,2.38 -3.28,1.58 -0.28,-0.72 1.94,-4.16 1.67,-4.96 -0.25,-0.74 -1.38,-1.82 -1.63,-2.62 -0.22,-0.75 -0.62,-1.71 -0.84,-2.52 -0.2,-0.77 -0.68,-0.64 -0.88,-1.45 -0.2,-0.77 0.55,-1.65 0.4,-2.46 -0.2,-0.78 -1.1,-1.65 -1.2,-2.47 -0.2,-0.78 -0.2,-2.91 -0.3,-3.72 -0.2,-0.79 -0.1,1.2 -0.2,0.39 -0.1,-0.79 -0.9,-5.28 -1.1,-6.1 -0.1,-0.79 -0.2,0.36 -0.3,-0.45 -0.2,-0.8 -0.8,-0.17 -1,-0.99 -0.1,-0.79 1.6,-2.11 1.5,-2.92 -0.1,-0.8 -0.6,-1.36 -0.7,-2.18 -0.1,-0.8 -0.3,-2.19 -0.3,-3 -0.1,-0.8 1.5,-1.61 1.4,-2.43 -0.1,-0.8 -1.8,-2.1 -1.9,-2.92 0,-0.8 1.9,-1.19 1.9,-2.01 -0.1,-0.81 -1.5,-0.59 -1.6,-1.41 0,-0.8 -0.7,-1.94 -0.8,-2.76 0,-0.81 0.4,-2.15 0.3,-2.97 0,-0.8 0.3,-2.01 0.3,-2.82 0,-0.81 -1.2,-1.55 -1.2,-2.37 0,-0.81 -0.7,-1.54 -0.7,-2.36 -0.1,-0.81 0.7,-1.1 0.7,-1.92 0,-0.81 1.1,-2.16 1.1,-2.98 0,-0.81 -1.7,-2.97 -1.7,-3.79 0,-0.82 0.6,-1.71 0.6,-2.52 0,-0.82 -2.5,0.25 -2.5,-0.56 0.1,-0.82 0.4,-1.78 0.4,-2.59 0,-0.82 0.4,-2.29 0.4,-3.1 0.1,-0.82 2.4,-1.82 2.4,-2.63 0.1,-0.82 1.1,-1.48 1.2,-2.29 0,-0.81 -2.8,-3.88 -2.8,-4.68 0.1,-0.82 1,1.33 1,0.52 0.1,-0.82 0.9,-1.38 1,-2.18 0,-0.82 -1.7,-2.53 -1.6,-3.33 0.1,-0.82 1.9,-2.52 2,-3.32 0.1,-0.82 2.3,-0.88 2.3,-1.68 0.1,-0.82 -1,-2.23 -0.9,-3.03 0.1,-0.82 -2,0.96 -1.9,0.16 0.1,-0.82 0.8,-3.2 0.9,-4 0.1,-0.82 0.8,-1.59 0.9,-2.39 0.2,-0.81 -0.3,-3.06 -0.2,-3.85 0.1,-0.82 0.5,0.54 0.7,-0.25 0.1,-0.81 -0.9,-2.51 -0.7,-3.29 0.1,-0.82 1.5,-0.57 1.6,-1.35 0.2,-0.82 0.1,-2.49 0.3,-3.27 0.2,-0.81 -0.5,-2.32 -0.3,-3.09 0.2,-0.81 1.21,-0.86 1.42,-1.63 0.21,-0.8 1.38,0.26 1.61,-0.5 0.24,-0.8 -0.55,-3.51 -0.29,-4.25 0.27,-0.8 2.82,-2.61 3.11,-3.33 0.31,-0.8 -1.69,0.18 -1.36,-0.51 0.37,-0.79 1.2,-2.72 1.58,-3.38 0.45,-0.76 -0.99,-2.7 -0.52,-3.27 0.57,-0.71 2.53,0.97 3.13,0.56 0.74,-0.5 -0.64,-0.16 0.13,-0.16 0.77,0 4.91,-0.79 5.65,-0.29 0.6,0.4 -0.66,0.82 -0.08,1.53 0.46,0.58 1.37,1.11 1.82,1.87 0.39,0.66 0.02,2.33 0.39,3.11 0.33,0.7 1.53,-0.77 1.85,0.03 0.29,0.72 2.51,3.36 2.78,4.16 0.25,0.74 -0.64,1.12 -0.4,1.93 0.23,0.75 1.55,1.49 1.77,2.3 0.2,0.76 -1.38,2.3 -1.18,3.11 0.19,0.77 0.79,0.68 0.97,1.49 0.17,0.78 -0.25,1.49 -0.08,2.3 0.15,0.78 2.12,0.69 2.27,1.5 0.14,0.79 -0.05,2.59 0.09,3.4 0.13,0.79 -1.51,1.47 -1.38,2.29 0.12,0.79 1.31,2.46 1.43,3.28 0.11,0.79 0.05,0.68 0.16,1.5 0.1,0.79 -0.84,-0.01 -0.74,0.8 0.1,0.8 -0.87,4.97 -0.78,5.79 0.08,0.8 1.86,0.08 1.94,0.9 0.08,0.8 1.01,0.71 1.08,1.52 0.07,0.81 0.36,3.25 0.43,4.07 0.06,0.8 -1.89,3.17 -1.83,3.99 0.05,0.8 1.24,-0.44 1.29,0.38 0.05,0.8 1.02,4.01 1.07,4.83 0.04,0.8 1.5,-1.28 1.54,-0.46 0.03,0.81 -1.8,1.75 -1.77,2.57 0.03,0.81 -0.5,2.99 -0.48,3.81 0.03,0.8 0.65,-0.49 0.67,0.33 0.02,0.81 1.53,3.68 1.54,4.5 0.01,0.81 -1.53,1.26 -1.52,2.08 0,0.81 -2.1,2.7 -2.1,3.51 l 2.94,0.06"
       style="color:#000000;opacity:0.37000002;fill:#ffffff;fill-rule:evenodd;filter:url(#filter37651)"
       id="path33561" />
    <path
       inkscape:connector-curvature="0"
       d="m 462.66,26.281 c -162.29,0 -293.97,25.837 -293.97,57.688 0,2.228 0.65,4.43 1.9,6.593 0.02,0.021 0.02,0.043 0.04,0.063 18.4,28.385 141.98,50.345 291.59,50.345 162.28,0 294,-25.84 294,-57.689 0,-1.99 -0.5,-3.967 -1.5,-5.906 -0.14,-0.265 -0.31,-0.517 -0.47,-0.781 C 735.77,48.227 612.2,26.281 462.66,26.281 Z"
       style="color:#000000;opacity:0.75410001;fill:url(#linearGradient2304);fill-rule:evenodd"
       id="path49102" />
    <path
       inkscape:connector-curvature="0"
       d="m 756.55323,83.220755 a 292.68701,59.950833 0 1 1 -585.37401,0 292.68701,59.950833 0 1 1 585.37401,0 z"
       style="color:#000000;fill:url(#linearGradient2738);fill-rule:evenodd;stroke-width:0.83754259"
       id="path49124" />
    <path
       inkscape:connector-curvature="0"
       d="m 117.05,82.654 c -0.78,1.86 -1.19,3.76 -1.19,5.656 0,37.42 154.24,67.78 344.31,67.78 190.07,0 344.34,-30.36 344.34,-67.78 0,-0.24 -0.01,-0.479 -0.03,-0.719 C 785.81,121.55 639.62,148 462.2,148 276.3,148 124.64,118.94 118.08,82.654 Z m 687.43,4.937 c 0.9,-1.624 1.51,-3.279 1.82,-4.937 h -2.97 c 0.68,1.632 1.07,3.274 1.15,4.937 z"
       style="color:#000000;fill:#ffcc00;fill-opacity:0.30519002;fill-rule:evenodd"
       id="path3023" />
    <path
       inkscape:connector-curvature="0"
       d="m 117.14,82.636 c -0.78,1.993 -1.19,4.03 -1.19,6.063 0,40.111 154.72,72.661 345.37,72.661 190.65,0 345.4,-32.55 345.4,-72.661 0,-0.257 -0.02,-0.513 -0.04,-0.77 -18.73,36.401 -165.36,64.751 -343.33,64.751 -186.46,0 -338.59,-31.15 -345.17,-70.044 z m 689.54,5.293 c 0.9,-1.741 1.52,-3.516 1.82,-5.293 h -2.98 c 0.69,1.75 1.08,3.51 1.16,5.293 z"
       style="color:#000000;fill:url(#linearGradient2294);fill-rule:evenodd"
       id="path4014" />
    <path
       inkscape:connector-curvature="0"
       d="m 117.14,221.18 c -0.78,2 -1.19,4.04 -1.19,6.07 0,40.11 154.72,72.66 345.37,72.66 190.65,0 345.4,-32.55 345.4,-72.66 0,-0.26 -0.02,-0.52 -0.04,-0.77 -18.73,36.4 -165.36,64.75 -343.33,64.75 -186.46,0 -338.59,-31.15 -345.17,-70.05 z m 689.54,5.3 c 0.9,-1.74 1.52,-3.52 1.82,-5.3 h -2.98 c 0.69,1.75 1.08,3.52 1.16,5.3 z"
       style="color:#000000;fill:url(#linearGradient2291);fill-rule:evenodd"
       id="path2290" />
  </g>
  <metadata
     id="metadata64">
    <rdf:RDF>
      <cc:Work>
        <dc:format>image/svg+xml</dc:format>
        <dc:type
           rdf:resource="http://purl.org/dc/dcmitype/StillImage" />
        <cc:license
           rdf:resource="http://creativecommons.org/publicdomain/zero/1.0/" />
        <dc:publisher>
          <cc:Agent
             rdf:about="http://openclipart.org/">
            <dc:title>Openclipart</dc:title>
          </cc:Agent>
        </dc:publisher>
        <dc:title>Gold Ring</dc:title>
        <dc:date>2008-02-18T05:06:06</dc:date>
        <dc:description>Gold ring.</dc:description>
        <dc:source>https://openclipart.org/detail/183156/Gold-ring-by-vectorscape</dc:source>
        <dc:creator>
          <cc:Agent>
            <dc:title>vectorscape</dc:title>
          </cc:Agent>
        </dc:creator>
        <dc:subject>
          <rdf:Bag>
            <rdf:li>gold</rdf:li>
            <rdf:li>ring</rdf:li>
          </rdf:Bag>
        </dc:subject>
      </cc:Work>
      <cc:License
         rdf:about="http://creativecommons.org/publicdomain/zero/1.0/">
        <cc:permits
           rdf:resource="http://creativecommons.org/ns#Reproduction" />
        <cc:permits
           rdf:resource="http://creativecommons.org/ns#Distribution" />
        <cc:permits
           rdf:resource="http://creativecommons.org/ns#DerivativeWorks" />
      </cc:License>
    </rdf:RDF>
  </metadata>
</svg>
