<?xml version="1.0" encoding="UTF-8" standalone="no"?>
<svg
   xmlns:dc="http://purl.org/dc/elements/1.1/"
   xmlns:cc="http://creativecommons.org/ns#"
   xmlns:rdf="http://www.w3.org/1999/02/22-rdf-syntax-ns#"
   xmlns:svg="http://www.w3.org/2000/svg"
   xmlns="http://www.w3.org/2000/svg"
   xmlns:sodipodi="http://sodipodi.sourceforge.net/DTD/sodipodi-0.dtd"
   xmlns:inkscape="http://www.inkscape.org/namespaces/inkscape"
   version="1.1"
   id="Layer_1"
   x="0px"
   y="0px"
   viewBox="0 0 2629.6631 1596.7983"
   enable-background="new 0 0 2629.6631 1596.7983"
   xml:space="preserve"
   inkscape:version="0.91 r13725"
   sodipodi:docname="Gold Ring Deeper Color.svg"><metadata
     id="metadata155"><rdf:RDF><cc:Work
         rdf:about=""><dc:format>image/svg+xml</dc:format><dc:type
           rdf:resource="http://purl.org/dc/dcmitype/StillImage" /><dc:title></dc:title></cc:Work></rdf:RDF></metadata><defs
     id="defs153"><linearGradient
       y2="605.4476"
       x2="2520.2192"
       y1="605.4476"
       x1="54.6956"
       gradientUnits="userSpaceOnUse"
       id="SVGID_1_"><stop
         id="stop6"
         style="stop-color:#F9CA5D"
         offset="0" /><stop
         id="stop8"
         style="stop-color:#FCEEA5"
         offset="0.0478" /><stop
         id="stop10"
         style="stop-color:#D59712"
         offset="0.094" /><stop
         id="stop12"
         style="stop-color:#F3F4FF"
         offset="0.1209" /><stop
         id="stop14"
         style="stop-color:#F6F4D6"
         offset="0.1418" /><stop
         id="stop16"
         style="stop-color:#F5F1AC"
         offset="0.1746" /><stop
         id="stop18"
         style="stop-color:#F6E88A"
         offset="0.2552" /><stop
         id="stop20"
         style="stop-color:#F4E587"
         offset="0.2726" /><stop
         id="stop22"
         style="stop-color:#EEDB7F"
         offset="0.2862" /><stop
         id="stop24"
         style="stop-color:#E3CA70"
         offset="0.2985" /><stop
         id="stop26"
         style="stop-color:#D4B35B"
         offset="0.31" /><stop
         id="stop28"
         style="stop-color:#C19540"
         offset="0.3209" /><stop
         id="stop30"
         style="stop-color:#B17C2A"
         offset="0.3284" /><stop
         id="stop32"
         style="stop-color:#DFAF51"
         offset="0.3826" /><stop
         id="stop34"
         style="stop-color:#F5C764"
         offset="0.4134" /><stop
         id="stop36"
         style="stop-color:#F6E284"
         offset="0.4761" /><stop
         id="stop38"
         style="stop-color:#FDF6DC"
         offset="0.5776" /><stop
         id="stop40"
         style="stop-color:#D7A036"
         offset="0.606" /><stop
         id="stop42"
         style="stop-color:#D7A036"
         offset="0.6194" /><stop
         id="stop44"
         style="stop-color:#EDCC75"
         offset="0.6418" /><stop
         id="stop46"
         style="stop-color:#E9C670"
         offset="0.6676" /><stop
         id="stop48"
         style="stop-color:#DEB660"
         offset="0.7011" /><stop
         id="stop50"
         style="stop-color:#CC9B47"
         offset="0.7387" /><stop
         id="stop52"
         style="stop-color:#B37624"
         offset="0.7791" /><stop
         id="stop54"
         style="stop-color:#9B5302"
         offset="0.8119" /><stop
         id="stop56"
         style="stop-color:#9B5302"
         offset="0.8269" /><stop
         id="stop58"
         style="stop-color:#AD6D19"
         offset="0.8535" /><stop
         id="stop60"
         style="stop-color:#C58E37"
         offset="0.8945" /><stop
         id="stop62"
         style="stop-color:#D6A64C"
         offset="0.9337" /><stop
         id="stop64"
         style="stop-color:#E0B55A"
         offset="0.9698" /><stop
         id="stop66"
         style="stop-color:#E4BA5E"
         offset="1" /></linearGradient><linearGradient
       y2="798.3992"
       x2="2594.8315"
       y1="798.3992"
       x1="34.8317"
       gradientUnits="userSpaceOnUse"
       id="SVGID_2_"><stop
         id="stop75"
         style="stop-color:#BA8B01"
         offset="0" /><stop
         id="stop77"
         style="stop-color:#CDAA37"
         offset="0.0438" /><stop
         id="stop79"
         style="stop-color:#E8D886"
         offset="0.1121" /><stop
         id="stop81"
         style="stop-color:#F8F4B8"
         offset="0.1607" /><stop
         id="stop83"
         style="stop-color:#FFFFCB"
         offset="0.1847" /><stop
         id="stop85"
         style="stop-color:#FFFFCB"
         offset="0.2986" /><stop
         id="stop87"
         style="stop-color:#FDF9C1"
         offset="0.3078" /><stop
         id="stop89"
         style="stop-color:#F5E6A0"
         offset="0.3415" /><stop
         id="stop91"
         style="stop-color:#F0D989"
         offset="0.374" /><stop
         id="stop93"
         style="stop-color:#EDD17B"
         offset="0.4043" /><stop
         id="stop95"
         style="stop-color:#ECCE76"
         offset="0.4303" /><stop
         id="stop97"
         style="stop-color:#A26F14"
         offset="0.4892" /><stop
         id="stop99"
         style="stop-color:#A26F14"
         offset="0.6051" /><stop
         id="stop101"
         style="stop-color:#A67418"
         offset="0.6074" /><stop
         id="stop103"
         style="stop-color:#C19234"
         offset="0.624" /><stop
         id="stop105"
         style="stop-color:#D4A848"
         offset="0.6402" /><stop
         id="stop107"
         style="stop-color:#E0B654"
         offset="0.6558" /><stop
         id="stop109"
         style="stop-color:#E4BA58"
         offset="0.6699" /><stop
         id="stop111"
         style="stop-color:#D9A94D"
         offset="0.6716" /><stop
         id="stop113"
         style="stop-color:#C38737"
         offset="0.6756" /><stop
         id="stop115"
         style="stop-color:#B36F27"
         offset="0.6793" /><stop
         id="stop117"
         style="stop-color:#A9601D"
         offset="0.6828" /><stop
         id="stop119"
         style="stop-color:#A65B1A"
         offset="0.6857" /><stop
         id="stop121"
         style="stop-color:#AA6222"
         offset="0.6954" /><stop
         id="stop123"
         style="stop-color:#B57637"
         offset="0.7104" /><stop
         id="stop125"
         style="stop-color:#C6965B"
         offset="0.7287" /><stop
         id="stop127"
         style="stop-color:#DEC38B"
         offset="0.7498" /><stop
         id="stop129"
         style="stop-color:#FDFCC9"
         offset="0.7728" /><stop
         id="stop131"
         style="stop-color:#FFFFCD"
         offset="0.7741" /><stop
         id="stop133"
         style="stop-color:#FFFFCD"
         offset="0.7957" /><stop
         id="stop135"
         style="stop-color:#E5BD5D"
         offset="0.8468" /><stop
         id="stop137"
         style="stop-color:#BB913B"
         offset="0.8861" /><stop
         id="stop139"
         style="stop-color:#BB913B"
         offset="0.9116" /><stop
         id="stop141"
         style="stop-color:#BE9337"
         offset="0.9147" /><stop
         id="stop143"
         style="stop-color:#C39830"
         offset="0.925" /><stop
         id="stop145"
         style="stop-color:#C5992E"
         offset="0.9509" /><stop
         id="stop147"
         style="stop-color:#7F470A"
         offset="1" /></linearGradient><filter
       inkscape:label="Combined Lighting"
       inkscape:menu="Bevels"
       inkscape:menu-tooltip="Basic specular bevel to use for building textures"
       style="color-interpolation-filters:sRGB;"
       id="filter6501"><feGaussianBlur
         stdDeviation="6"
         in="SourceGraphic"
         result="result0"
         id="feGaussianBlur6503" /><feDiffuseLighting
         lighting-color="rgb(255,255,255)"
         diffuseConstant="1"
         surfaceScale="4"
         result="result5"
         id="feDiffuseLighting6505"><feDistantLight
           elevation="45"
           azimuth="235"
           id="feDistantLight6507" /></feDiffuseLighting><feComposite
         k1="1.4"
         in2="SourceGraphic"
         in="result5"
         result="fbSourceGraphic"
         operator="arithmetic"
         id="feComposite6509" /><feGaussianBlur
         result="result0"
         in="fbSourceGraphic"
         stdDeviation="6"
         id="feGaussianBlur6511" /><feSpecularLighting
         specularExponent="25"
         specularConstant="1"
         surfaceScale="4"
         lighting-color="rgb(255,255,255)"
         result="result1"
         in="result0"
         id="feSpecularLighting6513"><feDistantLight
           azimuth="235"
           elevation="45"
           id="feDistantLight6515" /></feSpecularLighting><feComposite
         k3="1"
         k2="1"
         operator="arithmetic"
         in="fbSourceGraphic"
         in2="result1"
         result="result4"
         id="feComposite6517" /><feComposite
         operator="in"
         result="result2"
         in2="SourceGraphic"
         in="result4"
         id="feComposite6519" /></filter><filter
       inkscape:label="Combined Lighting"
       inkscape:menu="Bevels"
       inkscape:menu-tooltip="Basic specular bevel to use for building textures"
       style="color-interpolation-filters:sRGB;"
       id="filter6521"><feGaussianBlur
         stdDeviation="6"
         in="SourceGraphic"
         result="result0"
         id="feGaussianBlur6523" /><feDiffuseLighting
         lighting-color="rgb(255,255,255)"
         diffuseConstant="1"
         surfaceScale="4"
         result="result5"
         id="feDiffuseLighting6525"><feDistantLight
           elevation="45"
           azimuth="235"
           id="feDistantLight6527" /></feDiffuseLighting><feComposite
         k1="1.4"
         in2="SourceGraphic"
         in="result5"
         result="fbSourceGraphic"
         operator="arithmetic"
         id="feComposite6529" /><feGaussianBlur
         result="result0"
         in="fbSourceGraphic"
         stdDeviation="6"
         id="feGaussianBlur6531" /><feSpecularLighting
         specularExponent="25"
         specularConstant="1"
         surfaceScale="4"
         lighting-color="rgb(255,255,255)"
         result="result1"
         in="result0"
         id="feSpecularLighting6533"><feDistantLight
           azimuth="235"
           elevation="45"
           id="feDistantLight6535" /></feSpecularLighting><feComposite
         k3="1"
         k2="1"
         operator="arithmetic"
         in="fbSourceGraphic"
         in2="result1"
         result="result4"
         id="feComposite6537" /><feComposite
         operator="in"
         result="result2"
         in2="SourceGraphic"
         in="result4"
         id="feComposite6539" /></filter><filter
       inkscape:label="Combined Lighting"
       inkscape:menu="Bevels"
       inkscape:menu-tooltip="Basic specular bevel to use for building textures"
       style="color-interpolation-filters:sRGB;"
       id="filter6541"><feGaussianBlur
         stdDeviation="6"
         in="SourceGraphic"
         result="result0"
         id="feGaussianBlur6543" /><feDiffuseLighting
         lighting-color="rgb(255,255,255)"
         diffuseConstant="1"
         surfaceScale="4"
         result="result5"
         id="feDiffuseLighting6545"><feDistantLight
           elevation="45"
           azimuth="235"
           id="feDistantLight6547" /></feDiffuseLighting><feComposite
         k1="1.4"
         in2="SourceGraphic"
         in="result5"
         result="fbSourceGraphic"
         operator="arithmetic"
         id="feComposite6549" /><feGaussianBlur
         result="result0"
         in="fbSourceGraphic"
         stdDeviation="6"
         id="feGaussianBlur6551" /><feSpecularLighting
         specularExponent="25"
         specularConstant="1"
         surfaceScale="4"
         lighting-color="rgb(255,255,255)"
         result="result1"
         in="result0"
         id="feSpecularLighting6553"><feDistantLight
           azimuth="235"
           elevation="45"
           id="feDistantLight6555" /></feSpecularLighting><feComposite
         k3="1"
         k2="1"
         operator="arithmetic"
         in="fbSourceGraphic"
         in2="result1"
         result="result4"
         id="feComposite6557" /><feComposite
         operator="in"
         result="result2"
         in2="SourceGraphic"
         in="result4"
         id="feComposite6559" /></filter><filter
       style="color-interpolation-filters:sRGB;"
       inkscape:label="Blend"
       id="filter8061"><feBlend
         in2="SourceGraphic"
         mode="multiply"
         result="blend"
         id="feBlend8063" /></filter></defs><sodipodi:namedview
     pagecolor="#ffffff"
     bordercolor="#666666"
     borderopacity="1"
     objecttolerance="10"
     gridtolerance="10"
     guidetolerance="10"
     inkscape:pageopacity="0"
     inkscape:pageshadow="2"
     inkscape:window-width="640"
     inkscape:window-height="480"
     id="namedview151"
     showgrid="false"
     inkscape:zoom="0.29031168"
     inkscape:cx="990.43695"
     inkscape:cy="491.4082"
     inkscape:current-layer="Layer_1" /><g
     id="g8065"><g
       id="g6561"><path
         inkscape:connector-curvature="0"
         style="fill:url(#SVGID_1_);filter:url(#filter6541)"
         id="path68"
         d="m 2468.3799,591.9158 0.7576,0.6904 c 0.5918,0.5402 1.1958,1.0948 1.8201,1.673 l 0.7717,0.7177 c 0.2375,0.2209 0.4829,0.451 0.7249,0.6771 8.5188,8.0552 14.4392,14.4476 17.5095,17.8137 3.3621,3.8181 6.4651,7.5528 9.3047,11.1539 l 0.077,0.0971 c 1.0806,1.3716 2.1277,2.7255 3.1436,4.0592 l 0.07,0.0923 c 1.0281,1.3506 2.0251,2.6807 2.9934,3.9888 3.0979,4.4675 5.833,8.8249 8.6467,13.3859 l 0,0.005 c 0.035,0.0704 0.069,0.1371 0.1052,0.2089 l 0.2092,0.423 c 0.077,0.1558 0.1553,0.3159 0.2346,0.4784 l 0.2725,0.5608 c 0.1194,0.2466 0.2405,0.4999 0.366,0.7629 l 0.1145,0.2389 c 1.1812,2.487 2.6575,5.7254 4.7158,10.295 -1.8357,-4.0742 -3.9531,-9.2666 -5.8289,-13.9012 -3.0676,-8.2113 -5.3091,-14.2831 -7.3164,-20.3275 -1.624,-5.0639 -3.0527,-9.814 -4.3044,-14.2035 -1.4983,-5.4006 -3.1174,-11.6906 -5.1074,-19.7607 l -8.2148,-40.2771 c -0.918,-4.4313 -1.7275,-8.5042 -2.4678,-12.3578 -0.8555,-4.5498 -1.6221,-8.7548 -2.3083,-12.668 -1.8469,-10.7735 -3.1082,-19.9548 -4.3687,-30.033 1.3738,-3.9851 2.6809,-7.9686 3.8809,-11.9485 5.6987,-18.9004 9.4248,-37.7348 11.0828,-56.4383 1.6575,-18.7036 1.2466,-37.2763 -1.3293,-55.6535 -2.5764,-18.3778 -7.2576,-36.1317 -13.9353,-53.2366 -6.677,-17.1048 -15.3503,-33.5605 -25.9106,-49.3418 -10.5598,-15.7813 -23.0068,-30.8881 -37.231,-45.2953 -14.2246,-14.4072 -30.2271,-28.1148 -47.8972,-41.0973 -70.68,-51.9299 -168.0572,-92.2607 -285.1421,-119.3744 -117.0853,-27.1136 -253.8779,-41.0101 -403.3911,-40.0714 -37.3783,0.2347 -75.5516,1.3966 -114.4108,3.5109 -38.8591,2.1144 -78.4042,5.1812 -118.5261,9.2257 -40.1216,4.0446 -80.8201,9.0669 -121.986,15.0923 -41.1658,6.0253 -82.799,13.0537 -124.7906,21.1103 -41.9904,8.0565 -83.3606,16.9535 -124.0138,26.6263 -40.6533,9.6728 -80.5901,20.1214 -119.713,31.2811 -39.1234,11.1596 -77.4333,23.0304 -114.8333,35.5474 -37.4001,12.517 -73.8903,25.6804 -109.3737,39.4253 -141.9346,54.9796 -267.7661,119.264 -371.3141,188.7092 -103.5483,69.4452 -184.8131,144.0509 -237.6147,219.6733 -13.2007,18.9055 -24.6218,37.8746 -34.1677,56.8425 -9.5463,18.968 -17.2166,37.9346 -22.9148,56.8353 -5.6986,18.9007 -9.4247,37.7354 -11.0827,56.4394 -1.6576,18.704 -1.2466,37.2772 1.3298,55.655 2.576,18.3772 7.2572,36.1307 13.9343,53.235 6.6772,17.1043 15.3508,33.5597 25.9107,49.3406 7.9989,11.9538 17.0852,23.519 27.2021,34.6879 1.0311,3.3343 1.9725,6.5138 2.8312,9.5231 1.4984,5.4012 3.118,11.6915 5.108,19.7627 l 8.2148,40.2781 c -0.4374,-6.5273 -0.9534,-13.1887 -1.343,-19.9203 0.3896,6.7316 0.9056,13.3929 1.343,19.9205 0.6709,3.2388 1.2782,6.2227 1.8377,9.0272 1.4395,7.5508 2.643,14.16 3.6612,20.1462 0.4447,2.7032 0.8847,5.446 1.2978,8.0881 1.052,7.2111 1.987,14.7251 3.1854,24.5776 0.4677,4.7073 0.8706,9.4971 1.256,14.6665 l 0.008,0.6136 c 4e-4,0.067 9e-4,0.1335 0.002,0.1993 l -0.006,1.9578 c -0.0316,2.585 -0.1293,3.9612 -0.1498,4.2218 -0.009,0.1156 -0.0269,0.2697 -0.0307,0.3857 -0.0103,0.3103 -0.002,0.7242 -0.0137,1.0345 -0.008,0.2146 -0.0448,0.499 -0.0636,0.7131 0.1942,-1.4493 0.4007,-2.9236 0.6154,-4.4109 1.2611,-7.5123 2.9477,-17.3683 4.962,-24.9359 0.1997,-0.7458 0.4046,-1.4939 0.618,-2.2472 0.3064,-1.074 0.6316,-2.1799 0.976,-3.3202 0.4396,-1.3076 1.7924,-5.3021 2.066,-6.0963 0.4558,-1.3269 1.8445,-5.364 3.6028,-10.0802 3.1333,-8.4091 5.562,-14.0364 7.0126,-17.3984 0.0184,-0.042 0.0384,-0.087 0.0568,-0.1289 3.6378,-8.1201 7.9754,-16.9387 13.1508,-26.3933 0.2164,-0.3931 0.437,-0.7921 0.6598,-1.1949 0.6709,-1.2158 1.3639,-2.448 2.0626,-3.6843 70.2465,50.1926 165.7896,89.2908 280.147,115.7739 117.0837,27.1146 253.8749,41.0122 403.3847,40.0748 37.3779,-0.2343 75.5504,-1.3958 114.4087,-3.5099 38.8583,-2.1138 78.4025,-5.1805 118.5231,-9.2246 40.1207,-4.0444 80.818,-9.0662 121.9825,-15.0913 41.1646,-6.025 82.7969,-13.053 124.7872,-21.1095 41.9916,-8.0568 83.3632,-16.9541 124.0177,-26.6272 40.6542,-9.6731 80.5922,-20.1221 119.7164,-31.282 39.1241,-11.1599 77.4349,-23.0309 114.8358,-35.5483 37.401,-12.5175 73.892,-25.681 109.3763,-39.4263 141.9376,-54.9809 267.7709,-119.2665 371.3199,-188.7126 103.5498,-69.4459 184.8154,-144.0522 237.6174,-219.6741 5.9883,-8.5764 11.5906,-17.1663 16.8376,-25.7628 7.9697,6.1498 15.6687,12.4819 23.0759,19.0062 0.4497,0.4063 0.896,0.8084 1.3655,1.2351 z m -61.499,27.4071 c -0.1504,0.197 -0.301,0.3964 -0.4512,0.5927 -0.2258,0.2964 -0.4524,0.5939 -0.6902,0.905 -16.9194,22.0402 -32.6965,39.2633 -39.8337,47.0538 -0.5071,0.5537 -1.0344,1.1111 -1.5466,1.6656 -7.8108,8.3456 -18.2285,19.0812 -30.7622,31.0784 -22.1709,21.2212 -42.0662,37.8301 -48.6042,43.2881 -2.2705,1.8951 -4.7322,3.9236 -7.2961,6.02 -1.0122,0.8257 -2.0193,1.6519 -3.0386,2.4771 -0.7183,0.5828 -1.4658,1.1843 -2.2056,1.7806 -1.811,1.4591 -3.6309,2.9173 -5.4624,4.3741 -0.4841,0.3848 -0.9526,0.7603 -1.4443,1.15 -2.1362,1.6933 -4.2881,3.3846 -6.4504,5.0742 -22.6362,17.6646 -52.4556,39.5295 -88.9253,63.2862 -19.8835,12.9521 -40.6404,25.7433 -62.0854,38.311 -2.3899,1.3994 -4.9395,2.8848 -7.6318,4.4442 -3.3022,1.9118 -6.6174,3.8192 -9.9519,5.7196 -2.0049,1.1433 -4.0798,2.3209 -6.2148,3.5266 -4.021,2.2694 -8.0613,4.5314 -12.1262,6.7829 -1.5833,0.8773 -3.2019,1.7701 -4.8428,2.6726 -4.292,2.3597 -8.6067,4.709 -12.9443,7.0474 -1.573,0.8482 -3.1687,1.7052 -4.7866,2.571 -4.3436,2.3248 -8.7098,4.6382 -13.0966,6.9402 -17.4749,9.1705 -37.1901,19.1585 -59.1028,29.7208 -4.0526,1.9372 -9.418,4.4904 -17.3497,8.2641 -9.9846,4.6978 -20.3854,9.4922 -31.186,14.361 -3.3761,1.52 -6.7676,3.0385 -10.1006,4.5219 -5.7644,2.563 -11.641,5.1451 -17.625,7.7429 -0.6121,0.2645 -1.2411,0.5372 -1.8296,0.79 -12.2341,5.2588 -28.5857,12.1793 -40.9086,17.2266 -6.2389,2.5555 -14.574,5.9231 -20.8372,8.4184 -6.3124,2.5149 -14.7687,5.7671 -21.0814,8.2818 l 0,0 c -0.3414,0.1378 -7.6917,2.982 -16.0123,6.1339 -0.9286,0.3516 -1.8594,0.7033 -2.7919,1.0549 -0.8467,0.3197 -1.6956,0.6391 -2.5426,0.9568 -2.6238,0.985 -6.7728,2.5416 -12.2333,4.5609 -1.0977,0.4058 -2.1965,0.8117 -3.299,1.2171 -1.4104,0.5194 -2.8973,1.065 -4.452,1.6341 -1.0396,0.3801 -2.0851,0.7601 -3.1285,1.1401 -1.8667,0.6802 -3.7343,1.3556 -5.6027,2.0316 -41.817,15.1124 -81.9983,28.4312 -120.2528,40.2144 -7.5968,2.3323 -13.974,4.2542 -18.2908,5.5543 -4.3453,1.3091 -14.7102,4.3887 -23.1563,6.8413 -2.3733,0.6895 -6.0652,1.7615 -10.8655,3.1346 -2.0148,0.5758 -4.024,1.1479 -6.026,1.7151 -2.8601,0.8101 -5.9747,1.6873 -9.3632,2.6327 -0.1545,0.043 -0.3081,0.086 -0.4626,0.1292 -7.5653,2.1097 -16.3647,4.527 -26.1855,7.1583 -4.4767,1.2003 -11.4675,3.0477 -11.9045,3.1624 -6.2108,1.6279 -20.7554,5.4401 -35.9525,9.222 -1.8069,0.4496 -4.2207,1.0289 -6.0226,1.4985 0,9e-4 -0.03,0.01 -0.047,0.012 -57.3761,14.1506 -107.2322,24.5051 -147.7288,32.4116 -0.01,0 -0.014,0.021 -0.016,0.058 5e-4,-1e-4 0,-1e-4 0,-1e-4 0,-0.037 0.01,-0.056 0.016,-0.058 l -5e-4,0 0,0 c -58.9094,11.1031 -114.7091,20.1019 -169.4385,27.2336 -0.4263,0.055 -0.8501,0.1102 -1.2721,0.1647 -2.7275,0.3542 -5.4503,0.6989 -8.1731,1.0437 -3.2147,0.406 -6.1697,0.7739 -8.7355,1.0906 -1.1189,0.1378 -2.2379,0.2756 -3.3561,0.4122 -3.6671,0.4481 -6.0975,0.7383 -6.6746,0.807 -0.065,0.01 -0.1259,0.015 -0.1908,0.023 -6.8286,0.8146 -13.6471,1.6014 -20.4574,2.3588 -1.8176,0.2002 -3.8789,0.4259 -6.2965,0.6897 -61.2354,6.658 -121.9855,11.0427 -185.1793,13.4799 -5.2932,0.189 -11.2073,0.3845 -17.4069,0.5624 -9.9078,0.2847 -18.8733,0.4661 -22.7018,0.5437 -5.6325,0.1143 -11.2658,0.1669 -16.8987,0.259 -10.1271,0.1652 -35.7071,0.2386 -55.4672,-0.062 -8.9173,-0.136 -18.9941,-0.3291 -30.1003,-0.6353 -25.7088,-0.7281 -51.1735,-1.91 -76.1069,-3.5283 -19.3973,-1.2782 -40.2415,-2.9476 -62.3121,-5.1434 -26.7731,-2.6638 -52.4521,-5.8373 -78.5049,-9.7017 -0.0123,0 -0.0247,0 -0.0371,-0.01 -12.9352,-1.9832 -33.6646,-5.1624 -59.4813,-10.0773 -3.243,-0.6282 -7.136,-1.3893 -12.1774,-2.3762 -11.9524,-2.3885 -24.7951,-5.1241 -38.3138,-8.2554 -2.71,-0.6287 -5.4186,-1.2657 -8.1214,-1.9124 -0.0504,-0.012 -0.1007,-0.024 -0.1506,-0.036 -8.6002,-2.0583 -17.1423,-4.2015 -25.492,-6.3972 -22.8435,-6.0081 -43.3462,-12.0948 -64.524,-19.1554 -20.7835,-6.9299 -40.1139,-14.1503 -59.0956,-22.0745 -9.3044,-3.884 -18.5033,-7.943 -27.3437,-12.0643 -0.0248,-0.011 -0.05,-0.023 -0.0751,-0.035 -0.0265,-0.012 -0.0504,-0.024 -0.0768,-0.036 -20.7933,-9.7606 -39.7707,-19.8118 -57.1798,-30.2979 -0.2859,-0.1724 -0.5522,-0.3356 -0.8318,-0.505 -1.4988,-0.9067 -2.9792,-1.8185 -4.455,-2.7318 -3.4602,-2.1511 -6.515,-4.1121 -9.6206,-6.1104 -8.6531,-5.6372 -16.8927,-11.4077 -24.7571,-17.3291 17.2648,-29.8365 42.5776,-65.3043 79.7331,-104.53 0.0738,-0.0776 0.1481,-0.1561 0.2224,-0.2339 2.3536,-2.4828 4.7618,-4.9828 7.2111,-7.4951 0.2599,-0.2657 0.5211,-0.5366 0.7801,-0.8008 2.1722,-2.2211 4.3965,-4.4578 6.6447,-6.7011 6.0631,-6.0418 11.5995,-11.374 15.8159,-15.3743 2.7292,-2.5834 5.4682,-5.1459 8.2174,-7.6827 6.9682,-6.3164 10.8727,-9.8553 13.7717,-12.4499 2.8128,-2.4927 5.632,-4.9583 8.4551,-7.4017 0.6077,-0.5234 1.2444,-1.0716 1.9593,-1.6866 13.7654,-11.8433 25.3358,-21.0959 25.8219,-21.4841 8.1086,-6.4769 19.0461,-14.9542 27.278,-21.2737 4.2126,-3.2339 9.9406,-7.3987 14.201,-10.5696 1.6418,-1.222 3.0407,-2.2571 4.4627,-3.2958 0.8079,-0.5865 1.6157,-1.1733 2.4206,-1.7552 4.2621,-3.0685 9.8493,-6.9837 22.5486,-15.8822 0.1195,-0.0837 13.0479,-9.0882 30.8052,-20.6592 2.9882,-1.9469 5.1455,-3.3527 7.1624,-4.6543 1.4796,-0.9504 2.9502,-1.8918 4.4068,-2.8198 3.9053,-2.478 8.971,-5.6421 19.184,-12.0175 21.3759,-13.1657 39.1592,-23.3915 51.4355,-30.4416 5.7025,-3.2374 11.7463,-6.6271 18.0723,-10.1168 23.5178,-12.9744 48.0752,-25.8114 72.9902,-38.1547 12.3007,-6.093 12.5849,-6.2336 36.5961,-17.6589 57.0983,-26.7795 128.4189,-57.0841 212.6147,-86.8929 1.288,-0.4548 2.5756,-0.9095 3.864,-1.3625 2.5251,-0.8892 5.0431,-1.7675 7.561,-2.6448 2.176,-0.7512 4.3534,-1.4988 6.5231,-2.269 12.9959,-4.4891 25.8834,-8.8195 38.6462,-12.9999 1.6046,-0.5203 3.2084,-1.0427 4.8101,-1.5714 3.0475,-0.9915 6.0853,-1.9723 9.117,-2.9465 9.1217,-2.9216 25.2761,-8.0357 43.5463,-13.5493 30.8342,-9.3047 55.0669,-16.0885 69.9662,-20.141 33.2067,-9.0321 60.6375,-15.8894 77.8015,-20.0517 10.0132,-2.4278 18.6608,-4.5245 36.5056,-8.6082 16.7207,-3.8268 31.9476,-7.0997 36.9515,-8.1751 16.8969,-3.6316 31.6971,-6.6216 37.2686,-7.7473 6.8197,-1.3773 12.8615,-2.5716 18.0574,-3.5844 0.2202,-0.0422 0.4502,-0.0876 0.6696,-0.1297 60.9225,-11.6933 120.8447,-21.3492 179.4576,-28.934 0.323,-0.0414 0.6379,-0.0816 0.9572,-0.1225 6.5692,-0.8478 13.1112,-1.6527 19.6471,-2.4483 1.8876,-0.2287 3.2246,-0.3887 3.8477,-0.4629 3.0732,-0.3662 5.5369,-0.6587 7.7556,-0.9192 2.4152,-0.2834 4.8237,-0.5571 7.2341,-0.8334 4.8323,-0.5449 10.5186,-1.1638 21.2919,-2.3363 0.7532,-0.0821 18.7806,-2.039 47.7512,-4.5713 6.614,-0.5789 17.2502,-1.4571 23.7107,-1.9577 10.4037,-0.8072 20.3136,-1.5253 29.455,-2.1346 12.9899,-0.8665 23.2728,-1.4396 23.3752,-1.4453 7.4927,-0.4169 13.8473,-0.7415 18.6791,-0.977 5.3223,-0.2499 10.6512,-0.5084 15.9414,-0.7186 77.5358,-3.0807 151.2783,-2.6429 220.6321,1.271 1.349,0.0782 2.7031,0.1579 4.0679,0.2401 3.9297,0.2301 7.8226,0.4887 11.7233,0.7413 19.1711,1.271 39.7426,2.9236 61.5106,5.0892 22.5857,2.2468 44.3931,4.862 66.3007,7.943 4.0786,0.5825 8.1812,1.1482 12.2191,1.7601 71.8662,10.8914 137.0342,25.5734 194.8887,43.8547 4.4551,1.417 8.9104,2.8611 13.397,4.357 20.7844,6.9295 40.1147,14.1501 59.0964,22.0741 9.248,3.8605 18.3899,7.8937 27.1794,11.9885 0.092,0.0431 0.186,0.0853 0.2783,0.1284 0.01,0.004 0.017,0.008 0.026,0.0121 20.8005,9.7637 39.7839,19.8178 57.198,30.3071 0.2805,0.1691 0.5417,0.329 0.8157,0.4952 1.5061,0.9109 2.9934,1.8271 4.4758,2.7446 3.4548,2.1479 6.5049,4.1059 9.6057,6.1013 0.2766,0.18 0.5496,0.361 0.8254,0.5413 8.1904,5.4902 16.127,11.1564 23.8242,16.9842 -0.106,0.1873 -0.2104,0.3729 -0.3164,0.5608 -12.4021,21.4343 -22.9023,35.8104 -28.6282,43.6424 -0.7408,1.0133 -2.3282,3.1657 -4.5828,6.1347 z" /><g
         id="g70"
         style="filter:url(#filter6521)"><path
           style="fill:#c6dd00"
           inkscape:connector-curvature="0"
           id="path72"
           d="m 2370.6233,181.871 c 18.2095,13.4091 34.4971,27.4501 48.8435,42.0952 14.3462,14.6451 26.7515,29.8944 37.1963,45.7202 10.4446,15.8259 18.929,32.2283 25.4336,49.1797 6.5049,16.9514 11.0298,34.4519 13.5562,52.4737 2.5264,18.0218 3.0161,36.2965 1.4802,54.7905 -1.5361,18.494 -5.0979,37.2074 -10.6748,56.1066 -5.5771,18.8992 -13.1692,37.9843 -22.7661,57.2219 -9.5967,19.2375 -21.1978,38.6275 -34.793,58.1364 -13.1357,18.8472 -27.9863,37.6065 -44.5166,56.2463 -16.5303,18.6399 -34.7402,37.1602 -54.5952,55.5294 -19.8547,18.3691 -41.3545,36.587 -64.4641,54.6219 -23.1099,18.035 -47.8293,35.887 -74.1238,53.5243 -26.2952,17.6326 -53.8352,34.8285 -82.5657,51.5599 -28.7305,16.7314 -58.6514,32.9983 -89.7076,48.7728 -31.0564,15.7745 -63.2484,31.0565 -96.5215,45.8184 -33.2731,14.7619 -67.6271,29.0034 -103.0074,42.6967 -36.6343,14.178 -73.974,27.6104 -111.9504,40.2773 -37.9764,12.6669 -76.5897,24.5687 -115.7709,35.6859 -39.1813,11.1171 -78.9305,21.4495 -119.1791,30.9778 -40.2486,9.5283 -80.9963,18.2526 -122.1747,26.1532 -41.1785,7.9006 -82.1736,14.86 -122.9149,20.8706 -40.7413,6.0107 -81.2286,11.0728 -121.3912,15.1788 -40.1627,4.1062 -80.0006,7.2562 -119.443,9.4431 -39.4424,2.1869 -78.4894,3.4105 -117.07,3.6635 -37.2711,0.2457 -73.7165,-0.412 -109.2778,-1.9669 -35.5613,-1.5551 -70.2387,-4.0073 -103.9736,-7.3507 -33.7349,-3.3434 -66.5274,-7.5779 -98.3192,-12.6973 -31.7917,-5.1194 -62.5826,-11.1237 -92.3144,-18.0067 -29.7379,-6.8867 -58.0405,-14.5657 -84.8661,-23.0199 -26.8256,-8.4542 -52.1743,-17.6836 -76.0042,-27.6711 -23.8299,-9.9877 -46.1411,-20.7334 -66.8917,-32.2205 -20.7506,-11.4869 -39.9407,-23.7152 -57.5285,-36.6676 -18.2146,-13.4057 -34.5047,-27.4443 -48.8519,-42.0879 C 117.1285,972.2829 104.7242,957.0344 94.2809,941.2089 83.8376,925.3833 75.3554,908.9808 68.8524,892.0292 62.3494,875.0775 57.8257,857.5769 55.2994,839.555 c -2.5263,-18.0219 -3.0175,-36.2963 -1.4832,-54.7901 1.5343,-18.4938 5.094,-37.2071 10.6696,-56.1067 5.5756,-18.8995 13.1669,-37.9854 22.7645,-57.2245 9.5976,-19.2391 21.2013,-38.6313 34.8015,-58.1436 13.1307,-18.8437 27.9772,-37.6011 44.5049,-56.2399 16.5276,-18.6387 34.7363,-37.1588 54.5912,-55.5279 19.8549,-18.3691 41.356,-36.5873 64.4684,-54.6222 23.1124,-18.0349 47.8362,-35.8865 74.1365,-53.5225 26.2948,-17.6349 53.8333,-34.8324 82.5619,-51.5647 28.7286,-16.7323 58.6472,-32.9994 89.7022,-48.7736 31.0551,-15.7742 63.2465,-31.0556 96.5208,-45.8164 33.2743,-14.7608 67.6312,-29.0011 103.0174,-42.6931 36.6284,-14.1794 73.9639,-27.612 111.9373,-40.2789 37.9734,-12.6669 76.5846,-24.568 115.7645,-35.6842 39.18,-11.1162 78.9287,-21.4477 119.177,-30.9752 40.2483,-9.5275 80.9962,-18.2511 122.1746,-26.1517 41.1784,-7.9006 82.1735,-14.8606 122.915,-20.8721 40.7415,-6.0115 81.2294,-11.0746 121.3933,-15.1815 40.1639,-4.1069 80.0038,-7.2578 119.4493,-9.4448 39.4455,-2.187 78.4967,-3.4102 117.0831,-3.6618 37.2653,-0.2471 73.7078,0.4093 109.2679,1.9633 35.5601,1.554 70.238,4.0056 103.9744,7.3487 33.7364,3.3431 66.5309,7.5778 98.3245,12.6981 31.7936,5.1203 62.5861,11.1261 92.3182,18.0115 29.7321,6.8854 58.0305,14.564 84.8533,23.0181 26.823,8.4541 52.1702,17.6837 76.0002,27.6713 23.8298,9.9876 46.1423,20.7331 66.8955,32.219 20.7532,11.4862 39.9471,23.7124 57.5401,36.6614 z m -1020.4065,956.8371 c 41.9917,-8.0568 83.363,-16.954 124.0176,-26.6271 40.6546,-9.6731 80.5923,-20.1221 119.7166,-31.282 39.1241,-11.16 77.4351,-23.0311 114.8359,-35.5485 37.4008,-12.5174 73.8918,-25.681 109.3762,-39.4262 141.9376,-54.981 267.771,-119.2667 371.3203,-188.7126 103.5493,-69.4459 184.8149,-144.0522 237.6169,-219.6742 13.2004,-18.9055 24.6221,-37.8745 34.1682,-56.8421 9.5459,-18.9677 17.2166,-37.9341 22.9148,-56.8345 5.6985,-18.9004 9.4248,-37.7347 11.0825,-56.4383 1.6577,-18.7036 1.2468,-37.2763 -1.3293,-55.6535 -2.5762,-18.3778 -7.2573,-36.1317 -13.9348,-53.2365 -6.6772,-17.1048 -15.3506,-33.5605 -25.9106,-49.3418 -10.56,-15.7813 -23.0068,-30.8882 -37.2314,-45.2954 -14.2244,-14.4072 -30.2266,-28.1147 -47.897,-41.0973 C 2298.2803,130.7678 2200.9031,90.437 2083.8182,63.3233 1966.733,36.2097 1829.9403,22.3133 1680.4271,23.2519 c -37.3783,0.2347 -75.5516,1.3965 -114.4109,3.5109 -38.8591,2.1143 -78.4042,5.1811 -118.5259,9.2257 -40.1217,4.0446 -80.8201,9.0669 -121.986,15.0922 -41.1658,6.0253 -82.7992,13.0537 -124.7909,21.1104 -41.9902,8.0564 -83.3604,16.9534 -124.0137,26.6262 -40.6534,9.6728 -80.59,20.1214 -119.7132,31.2811 -39.1232,11.1597 -77.4332,23.0304 -114.8332,35.5474 -37.4,12.517 -73.8901,25.6804 -109.3738,39.4253 -141.9347,54.9796 -267.7661,119.264 -371.3142,188.7091 -103.5481,69.4451 -184.813,144.051 -237.6147,219.6733 -13.2004,18.9056 -24.6219,37.8747 -34.1678,56.8426 -9.5459,18.9679 -17.2164,37.9346 -22.9147,56.8353 -5.6983,18.9007 -9.4247,37.7354 -11.0823,56.4394 -1.6576,18.704 -1.2467,37.2773 1.3295,55.6551 2.5761,18.3772 7.2574,36.1306 13.9346,53.235 6.6772,17.1044 15.3504,33.5597 25.9105,49.3406 10.56,15.781 23.0068,30.8876 37.2312,45.2946 14.2244,14.407 30.2264,28.1144 47.8969,41.0969 70.6818,51.9299 168.0585,92.2612 285.1422,119.3757 117.0837,27.1145 253.8746,41.0121 403.3849,40.0748 37.3776,-0.2344 75.5501,-1.3959 114.4084,-3.5099 38.8583,-2.114 78.4024,-5.1805 118.5231,-9.2247 40.1206,-4.0443 80.8179,-9.0663 121.9825,-15.0913 41.1646,-6.025 82.7968,-13.0531 124.7872,-21.1095" /></g><path
         inkscape:connector-curvature="0"
         style="fill:url(#SVGID_2_);filter:url(#filter6501)"
         id="path149"
         d="m 2594.5071,742.7535 0.01,-0.1803 0,-0.1388 c 0.2939,-8.6932 0.3303,-15.5402 0.3076,-19.7285 -0.01,-1.1298 -0.015,-2.7007 -0.036,-4.6437 l -0.016,-1.9984 -0.034,-1.5652 c -0.033,-1.9861 -0.079,-4.214 -0.1445,-6.6552 l -0.029,-1.3502 c -0.4485,-19.5869 -2.1252,-39.215 -4.2561,-57.1978 -0.7358,-6.3477 -1.6335,-13.3557 -2.7629,-21.2665 -1.145,-8.0195 -2.4402,-16.1563 -3.9602,-24.8754 -0.5435,-3.1162 -1.198,-6.6603 -1.8818,-10.2714 -0.1284,-0.7269 -0.2573,-1.4573 -0.3777,-2.1467 -0.7419,-3.7704 -1.7312,-8.7974 -2.4734,-12.5677 l -8.7449,-42.8755 c -0.4375,-5.7604 -1.2556,-11.3267 -2.3643,-16.7635 -1.6653,-7.9405 -2.9365,-13.9995 -4.627,-21.3712 l -0.01,-0.0469 -0.019,-0.0816 c -0.6921,-3.0164 -1.4587,-6.2678 -2.3484,-9.9504 l -0.3066,-1.2981 -0.2107,-0.8327 c -0.3982,-1.6347 -0.8157,-3.3351 -1.2671,-5.1602 -0.708,-2.8587 -2.2615,-9.1253 -5.0786,-19.3191 l -0.3413,-1.2633 -0.3293,-1.1574 c -4.0083,-14.6057 -8.7583,-30.358 -14.3608,-46.4092 -1.6814,-4.9667 -3.4929,-10.0451 -5.1663,-14.6293 -1.8667,-5.2167 -3.6335,-10.0631 -5.3313,-14.6076 0.015,0.011 0.033,0.0242 0.047,0.0346 -0.8621,-2.3041 -2.4424,-6.5269 -4.4746,-11.6743 l -0.175,-0.4571 -0.2522,-0.6197 c -1.4438,-3.6342 -3.0903,-7.6678 -4.8606,-11.7932 -2.4751,-5.8109 -4.9563,-11.2831 -7.5759,-16.725 -0.4321,-0.9101 -0.8777,-1.8417 -1.3435,-2.8042 l -0.1165,-0.2443 c 0.02,0.0408 0.039,0.0826 0.059,0.1234 -2.0989,-4.3368 -4.5115,-9.1446 -7.1033,-13.9725 -1.1416,-2.1266 -3.606,-6.717 -6.9268,-12.5063 -0.046,-0.0826 -0.09,-0.1623 -0.136,-0.2451 -19.2993,-34.5546 -41.8369,-61.8202 -62.2986,-82.5238 -0.157,-0.1592 -0.3213,-0.3241 -0.4805,-0.485 -0.8271,-0.8339 -1.6528,-1.6668 -2.4727,-2.4791 -0.9888,-0.9846 -2.0024,-1.9872 -3.0642,-3.0249 -9.8489,-9.622 -17.5588,-16.2812 -23.1755,-21.0078 -9.918,-8.3459 -18.6992,-14.7282 -22.9553,-17.8195 -2.3806,-1.7905 -4.8481,-3.5877 -7.3625,-5.3873 -0.2168,-0.1662 -0.4548,-0.3434 -0.7273,-0.5379 -0.3984,-0.2795 -0.8074,-0.5537 -1.2078,-0.8325 -5.2329,-3.6995 -10.6968,-7.4032 -16.4009,-11.0737 -7.4233,-4.7765 -14.0969,-8.7895 -18.3889,-11.3148 -1.26,-0.7414 -5.0947,-2.9977 -9.4441,-5.4601 -3.8042,-2.1537 -9.4924,-5.3141 -9.5283,-5.3338 -0.9534,-0.5237 -2.2314,-1.21 -3.1782,-1.7458 -2e-4,-3e-4 0,-7e-4 0,-10e-4 -0.031,-0.0178 -4.0208,-2.2493 -13.2046,-6.9548 -8.031,-4.1148 -17.3003,-8.5626 -27.552,-13.22 -1.5911,-0.7227 -4.2498,-1.9195 -7.7126,-3.4419 -0.026,-0.0112 -0.051,-0.0222 -0.076,-0.0334 -1.5061,-0.6618 -3.1533,-1.3809 -4.9458,-2.1552 -41.9199,-18.2164 -88.2429,-33.9353 -138.7231,-47.0493 -2.2205,-0.5796 -4.5356,-1.1757 -6.9243,-1.783 -0.3062,-0.0775 -0.6104,-0.1559 -0.9163,-0.2332 -0.9414,-0.2383 -1.8928,-0.4782 -2.8572,-0.7198 -5.8467,-1.4644 -12.0869,-2.9573 -17.7031,-4.2736 -0.061,-0.0144 -0.1226,-0.0294 -0.1841,-0.0438 -0.034,-0.0081 -0.069,-0.0155 -0.1035,-0.0236 -9.9382,-2.3277 -17.8428,-4.0851 -17.9592,-4.1107 -5.7798,-1.2728 -19.3142,-4.2536 -36.8893,-7.5915 -26.7484,-5.0795 -56.4705,-9.9176 -81.5452,-13.2739 -7.5072,-1.0065 -12.875,-1.6851 -14.8347,-1.9303 -1.4921,-0.187 -3.4756,-0.4905 -4.9736,-0.6153 -3.0078,-0.2507 -6.9951,-0.8144 -9.9897,-1.1897 l 0,-10e-5 c -3.0104,-0.3681 -7.0314,-0.8019 -10.0452,-1.1362 -4.1823,-0.464 -8.735,-0.9466 -13.403,-1.4253 -78.2335,-8.1609 -149.2435,-10.3006 -204.2963,-10.1257 -0.1545,5e-4 -0.3077,0.0013 -0.4618,0.0018 -2.1697,6e-4 -3.9271,0.0042 -5.1412,0.0067 -19.2898,0.0415 -35.8125,0.3083 -46.2764,0.5249 -21.363,0.4413 -41.3887,1.2501 -47.0172,1.4876 -1.3755,0.0579 -2.7399,0.123 -4.1119,0.183 -2.4863,0.1068 -4.9863,0.2175 -7.5068,0.3341 -1.162,0.054 -2.3212,0.1103 -3.4811,0.1657 -2.2371,0.1069 -4.4888,0.2175 -6.7552,0.3325 -36.6396,1.8402 -72.4875,4.4003 -109.017,7.7983 -0.1323,0.0118 -0.2607,0.0229 -0.3931,0.0348 -28.1584,2.5228 -57.0428,5.7358 -85.0028,9.2543 -17.4017,2.1727 -31.2085,4.0837 -36.3907,4.8011 -4.184,0.5794 -8.1512,1.1434 -11.7723,1.6651 -32.9314,4.6947 -62.8741,9.5171 -86.558,13.7167 -0.9312,0.1651 -1.8999,0.3398 -2.8396,0.5071 -20.3866,3.5726 -37.7296,6.8472 -52.9122,9.7772 -22.0817,4.2614 -42.2212,8.4473 -59.0106,12.0676 -75.8392,16.2614 -166.3251,38.8544 -267.196,71.3798 -2.3148,0.7449 -4.7384,1.5286 -7.2196,2.3352 -2.1133,0.6882 -4.2267,1.3763 -6.3494,2.0732 -4.3692,1.4338 -8.0125,2.6442 -12.325,4.0772 -0.2164,0.0719 -0.4319,0.1457 -0.6483,0.2179 -1.891,0.6315 -3.791,1.2727 -5.6884,1.9113 -1.6913,0.5713 -3.3825,1.1431 -5.0768,1.7058 -0.0244,0.008 -2.6451,0.8898 -8.246,2.8081 -0.5663,0.1938 -1.1331,0.3882 -1.7003,0.5827 -2.0369,0.6988 -4.3884,1.5072 -7.0992,2.442 -0.0418,0.0144 -4.8348,1.6704 -11.314,3.9442 -5.9402,2.0843 -11.5795,4.0924 -16.783,5.9627 -0.0384,0.0138 -0.076,0.0268 -0.1144,0.0405 -0.0478,0.0171 -0.0939,0.0344 -0.1417,0.0514 -5.4259,1.9511 -10.3486,3.7421 -14.5873,5.2962 -374.9483,137.1583 -548.1487,301.0429 -605.6051,365.7275 -3.8802,4.3416 -9.6338,10.8409 -15.0098,17.1476 -0.227,0.2662 -0.4438,0.53 -0.67,0.7959 -1.5291,1.7975 -3.0953,3.6566 -4.6961,5.5798 -0.2036,0.2443 -0.4033,0.4872 -0.6056,0.7313 -1.5432,1.8592 -3.1163,3.7766 -4.7175,5.7532 -0.2189,0.27 -0.4353,0.539 -0.6529,0.8086 -1.416,1.7538 -2.8512,3.5519 -4.3069,5.3982 -0.3538,0.4485 -0.7046,0.8951 -1.055,1.342 -1.2538,1.6004 -2.5205,3.2343 -3.7999,4.9034 -0.2036,0.2659 -0.4199,0.5381 -0.6222,0.8033 -0.2236,0.2925 -0.4336,0.5788 -0.6555,0.8708 -1.2056,1.5852 -2.4198,3.1972 -3.6446,4.8437 -0.1366,0.1843 -0.2701,0.3659 -0.4063,0.5497 -4.5498,6.1325 -9.219,12.6918 -13.9506,19.6885 -0.1464,0.2121 -0.2906,0.4213 -0.4229,0.612 -3.9553,5.7158 -10.195,15.2256 -15.8458,24.7747 -2.6152,4.4197 -4.8656,8.3604 -6.9268,12.0814 -0.0397,0.0706 -0.0798,0.1391 -0.1195,0.2098 -10.2577,18.1912 -18.0654,35.3337 -24.0461,50.5275 -3.0104,7.5816 -4.9953,13.2533 -6.0259,16.2026 -3.9339,11.259 -7.8824,24.8313 -10.982,37.522 -0.0269,0.1071 -0.0568,0.2239 -0.0832,0.3292 -0.0973,0.3842 -0.1809,0.7786 -0.2765,1.1641 -0.1818,0.7569 -0.3615,1.5102 -0.5369,2.259 -1.1826,4.9552 -2.2392,9.9983 -3.1781,15.1034 -0.2599,1.3856 -0.5027,2.7106 -0.7289,3.9825 -0.0115,0.067 -0.0243,0.1332 -0.0354,0.2003 -0.1229,0.6902 -0.2411,1.3671 -0.3546,2.0294 l 0.1506,-0.9094 -0.1681,1.0085 c -0.8198,4.7842 -1.4228,8.8936 -1.955,13.0218 l -0.0525,0.3829 -0.0644,0.5309 c -0.1839,1.4537 -0.361,2.9163 -0.5373,4.42 -0.1238,1.0582 -0.3649,3.2161 -0.6436,6.1479 l -0.0081,0.0785 -0.0064,0.0739 c -0.1144,1.2083 -0.2347,2.5494 -0.3559,4.0016 -1.2346,13.2206 -1.888,26.1755 -2.1782,38.189 -0.204,7.2122 -0.2296,12.9326 -0.2095,16.6061 0.0064,1.1312 0.0149,2.7053 0.0367,4.6519 l 0.0154,1.9908 0.0209,0.9622 c 0.0043,0.3446 0.0051,0.7106 0.0102,1.0519 0.309,22.1529 1.9682,43.2604 4.1687,62.4093 0.7831,6.9528 1.7587,14.699 3.0283,23.5919 0.3307,2.3184 0.6786,4.6533 1.0362,7.0023 0.6256,4.6581 1.2965,9.5185 1.8718,13.541 0.5027,3.5181 1.2555,8.1967 1.83,11.7039 1.0985,6.7068 2.7142,15.6241 3.9429,22.3081 0.6662,3.6254 1.6614,8.4372 2.3741,12.0566 9e-4,0 0.0017,0.01 0.0026,0.013 l 8.7449,42.8755 c 1.6623,7.9271 2.9323,13.9777 4.618,21.3336 l 0.0098,0.044 0.0179,0.077 c 0.6935,3.022 1.4608,6.2792 2.3528,9.9703 l 0.3026,1.2823 0.2087,0.8243 c 0.3986,1.6362 0.816,3.3384 1.2683,5.1656 0.6969,2.8149 2.2106,8.9249 4.9381,18.8165 1.748,6.4215 3.6676,13.1379 5.7729,20.1376 0.2953,0.9825 0.5898,1.9543 0.8838,2.9163 2.3502,7.7074 4.9407,15.7651 7.8,24.1771 0.2612,0.7747 0.5032,1.4904 0.7101,2.1018 1.5453,4.5669 3.2016,9.2306 4.7589,13.5166 2.0165,5.5718 3.9198,10.7748 5.7686,15.718 -0.01,0 -0.0201,0 -0.0286,0.01 -0.0158,-0.013 -0.0371,-0.03 -0.0529,-0.043 1.8244,4.8781 3.31,8.7321 4.5459,11.8646 l 0.1054,0.2753 0.111,0.2727 c 1.7463,4.4115 2.9728,7.3285 3.9173,9.5726 0.2898,0.6886 0.6043,1.4235 0.9278,2.1746 2.7215,6.4376 5.5462,12.6899 8.6557,19.0795 1.1497,2.3973 3.7679,7.759 7.3959,14.5984 l 0.0209,0.04 0.0615,0.1144 c 2.6839,5.0551 5.9103,10.9022 9.5041,16.958 1.3392,2.2567 2.6814,4.476 4.0261,6.6665 0.1161,0.1951 0.2275,0.3842 0.3448,0.58 12.1394,20.3038 26.4791,39.5702 42.8686,57.7585 0.7387,0.8224 1.4864,1.6477 2.2367,2.4675 1.46,1.5929 2.9315,3.1794 4.4239,4.755 1.451,1.5327 2.9259,3.0719 4.4422,4.6246 1.0968,1.1227 2.2038,2.2395 3.3177,3.3529 2.1868,2.1945 4.426,4.4146 6.7933,6.7075 10.329,10.0045 19.8642,17.9109 23.4534,20.8875 2.975,2.4669 6.7937,5.4875 11.3503,8.9789 0.3252,0.2493 0.7229,0.5508 1.1437,0.868 4.4542,3.4257 9.0346,6.7766 13.6757,10.0913 1.7335,1.2539 3.6471,2.6133 5.7246,4.0603 0.3163,0.2191 0.6286,0.4404 0.9461,0.6593 2.9942,2.0732 6.3375,4.3287 10.0064,6.7295 0.0243,0.016 0.0474,0.032 0.0713,0.048 0.0282,0.018 0.0568,0.036 0.0845,0.054 1.8795,1.2289 3.849,2.4972 5.9034,3.7999 1.2415,0.7899 2.4957,1.5735 3.7496,2.3573 0.175,0.109 0.3495,0.2177 0.5258,0.327 10.2121,6.3669 20.8394,12.5353 31.8777,18.5015 4.2672,2.3409 7.1837,3.8824 11.2491,5.9988 6.0336,3.1401 16.8214,8.5159 27.3698,13.3313 4.4708,2.041 8.7892,3.9636 12.9839,5.7976 0.8283,0.3633 1.6588,0.7253 2.491,1.0865 2.2094,0.9581 4.3837,1.8918 6.5103,2.7937 0.7797,0.3301 1.5624,0.6584 2.3451,0.9868 19.0931,8.0291 34.673,13.7793 45.8057,17.7562 0.09,0.032 9.1191,3.2528 19.8839,6.7728 3.9019,1.2739 7.2401,2.332 8.17,2.6261 4.0884,1.2903 8.1901,2.5374 12.2785,3.8279 0,0 0,0 4e-4,0 7.1565,2.1913 14.1456,4.261 20.7737,6.1522 5.1284,1.4651 10.0704,2.8206 12.7253,3.5488 2.8649,0.7863 5.7426,1.5227 8.6083,2.306 0.0751,0.021 9.537,2.5443 21.9994,5.5526 2.7018,0.6517 5.0892,1.2201 7.1308,1.6981 4.8276,1.1467 9.7043,2.2655 14.6057,3.37 0.2727,0.062 0.5471,0.1252 0.7951,0.183 l 0,2e-4 c 0.0725,0.017 7.3903,1.6962 18.1653,3.9548 0.0273,0.01 0.0542,0.012 0.0819,0.018 0.0512,0.011 0.1033,0.021 0.1545,0.032 1.4284,0.2992 2.9102,0.6073 4.4495,0.9237 1.087,0.2234 2.1927,0.4456 3.2913,0.6681 27.1423,5.5314 55.1996,10.3708 84.1429,14.5026 4.2484,0.6139 8.4794,1.2075 12.6801,1.7782 0.0973,0.013 10.6444,1.4335 19.8071,2.5457 10.652,1.292 19.1008,2.2482 30.1335,3.4103 4.1857,0.4402 14.8954,1.527 25.4677,2.4893 13.1968,1.2009 24.5173,2.0695 25.7643,2.1646 17.9873,1.3715 35.7186,2.4778 52.7026,3.2887 5.6384,0.269 17.3297,0.7981 32.2789,1.3174 3.5529,0.1235 15.3597,0.4985 27.1641,0.7468 27.8388,0.5864 50.3004,0.4567 61.0954,0.3942 7.876,-0.046 15.4929,-0.1265 22.7441,-0.2379 0.1907,0 0.3802,0 0.5714,-0.01 43.7469,-0.6355 99.2095,-2.8455 164.2913,-8.2954 5.4733,-0.4535 11.9349,-1.0052 19.6478,-1.705 20.1515,-1.8287 36.2158,-3.532 42.2635,-4.1733 16.7014,-1.7698 31.5043,-3.5375 36.3685,-4.1183 5.3363,-0.6367 19.5791,-2.3644 36.5479,-4.6433 6.1057,-0.8219 14.0179,-1.9172 18.3628,-2.5306 7.3981,-1.0497 10.178,-1.4594 18.4308,-2.6757 8.1384,-1.2095 27.196,-4.0416 49.125,-7.6689 5.9163,-0.9796 13.2784,-2.1991 24.6458,-4.1761 8.7316,-1.5201 17.3181,-3.0693 18.5349,-3.2913 1.8568,-0.3384 4.3295,-0.8044 6.189,-1.1279 0,-10e-5 0,0 0,0 0.041,-0.01 4.522,-0.8062 18.6027,-3.4807 0.088,-0.017 9.2092,-1.7501 18.6279,-3.5886 3.5148,-0.6858 16.1274,-3.1609 30.8636,-6.2172 2.7715,-0.5748 5.4686,-1.1394 8.0873,-1.6908 0.2416,-0.051 0.4827,-0.1024 0.7242,-0.153 8.9803,-1.8943 16.917,-3.6147 23.033,-4.9563 4.5374,-0.9918 9.0615,-2.0013 13.5835,-3.0126 2.4971,-0.5594 4.9321,-1.1096 7.293,-1.6462 54.9017,-12.4261 108.679,-26.2943 161.7068,-41.7131 2.931,-0.8501 6.588,-1.9161 10.9329,-3.1965 3.7291,-1.1012 7.4581,-2.2046 11.1801,-3.3215 3.0483,-0.9137 6.4906,-1.949 9.2245,-2.7782 6.9064,-2.0938 11.448,-3.4995 11.6379,-3.5583 0.2048,-0.063 0.428,-0.1326 0.6401,-0.1982 0.7827,-0.2419 1.5653,-0.4841 2.3477,-0.7271 16.3993,-5.0819 50.1292,-15.6328 94.4283,-31.1769 21.0233,-7.3767 38.3829,-13.8221 44.8706,-16.2509 2.9139,-1.0906 5.7933,-2.1757 8.6163,-3.2451 72.4005,-27.2037 141.2694,-57.1045 206.0564,-89.4517 4.4524,-2.2202 7.9685,-3.9911 11.2136,-5.6361 2.6694,-1.3545 5.3372,-2.71 7.9929,-4.073 4.3057,-2.2036 8.5911,-4.4474 12.895,-6.6545 2.7742,-1.4226 6.4443,-3.3732 9.2019,-4.8271 11.178,-5.8926 23.3293,-12.4915 36.1172,-19.6134 7.6201,-4.2435 33.1331,-18.6069 63.6746,-37.4568 0.3259,-0.2014 0.6604,-0.399 0.9871,-0.6005 1.0928,-0.6753 2.1709,-1.3544 3.26,-2.0308 0.9814,-0.61 1.9673,-1.2241 2.9575,-1.8428 50.0288,-31.2422 95.3254,-63.5807 135.6167,-96.7963 1.6252,-1.3353 3.2969,-2.7202 4.9451,-4.0952 0.4492,-0.3751 0.8992,-0.7501 1.3472,-1.1254 3.5908,-3.0049 6.877,-5.7915 8.7756,-7.4253 0.9641,-0.8297 2.2402,-1.9469 3.2131,-2.7655 0,-2e-4 0,-4e-4 0,-4e-4 0.017,-0.014 4.1055,-3.5349 9.4861,-8.3094 0,0 0.01,0 0.01,-0.01 2.978,-2.6407 5.9177,-5.2881 8.8333,-7.9391 0.145,-0.1306 0.2903,-0.261 0.4353,-0.3914 5e-4,-2e-4 5e-4,-4e-4 10e-4,-4e-4 0.9255,-0.825 2.1372,-1.9506 3.0508,-2.7889 0.7729,-0.7089 1.4919,-1.3715 2.1863,-2.0122 0.069,-0.064 0.1375,-0.1272 0.2068,-0.1908 3.9104,-3.6108 6.7019,-6.2466 9.6128,-8.9962 1.5439,-1.458 2.5481,-2.4236 5.8752,-5.623 0.875,-0.8412 2.0251,-1.9797 2.9038,-2.8171 0.1072,-0.1022 11.5566,-11.1134 25.0293,-25.5319 3.334,-3.5685 6.7407,-7.3125 10.4158,-11.4465 3.5569,-4.0016 5.1045,-5.7665 8.4832,-9.6788 0.4998,-0.5768 1.0105,-1.1521 1.5078,-1.729 0.3989,-0.4635 0.7861,-0.927 1.1833,-1.3904 0.4045,-0.4695 0.8267,-0.9595 1.2798,-1.4847 1.5991,-1.8556 13.7686,-16.058 26.2437,-32.928 7.2363,-9.741 14.0056,-19.4949 20.3252,-29.2728 0.6511,-0.9993 1.2444,-1.9163 1.7659,-2.7298 0.071,-0.1108 0.1418,-0.2217 0.2122,-0.3326 0.7502,-1.1735 1.3738,-2.1633 1.8589,-2.9429 0.4939,-0.7939 1.0281,-1.6536 1.5955,-2.5707 0.2188,-0.3539 0.4373,-0.7079 0.655,-1.062 0.9438,-1.5342 1.9836,-3.2426 3.1204,-5.1476 0.2937,-0.4907 0.5835,-0.9816 0.8745,-1.4725 0.5151,-0.8716 1.0486,-1.7817 1.6018,-2.7338 21.8306,-37.3677 37.1255,-75.2061 46.2407,-114.1813 0.1692,-0.708 0.3318,-1.3979 0.4875,-2.0688 0.044,-0.1941 0.093,-0.3872 0.137,-0.5812 0.017,-0.0737 0.035,-0.1574 0.053,-0.2323 1.1479,-4.9861 1.9387,-8.8723 2.4521,-11.3969 1.7046,-8.3798 3.1699,-17.7491 4.3555,-27.8476 0.1504,-1.2818 0.6497,-5.7151 1.1323,-11.7375 0.793,-8.777 1.437,-18.6686 1.8223,-29.7202 0.049,-1.2291 0.092,-2.4194 0.1322,-3.5844 z M 43.4187,977.5079 c 0.0077,0.0504 0.0158,0.1008 0.0235,0.1511 0.0879,0.6431 0.1741,1.2725 0.2582,1.8864 -0.009,-0.0536 -0.0184,-0.1104 -0.0273,-0.1638 0,-9e-4 -4e-4,-0.002 -4e-4,-0.003 l -0.254,-1.8711 z m 2330.2119,-796.169 c -0.1729,-6e-4 -0.3484,-0.0157 -0.5198,-0.006 0.1714,-0.01 0.347,0.005 0.5198,0.006 z m 1.3328,0.1069 c -0.1887,-0.0291 -0.3789,-0.0703 -0.5664,-0.0876 0.1875,0.0173 0.3777,0.0584 0.5664,0.0876 z m 5.49,2.3386 c -0.2178,-0.1469 -0.4358,-0.2976 -0.6519,-0.4316 0.2166,0.134 0.4341,0.2847 0.6519,0.4316 z m -1.4016,-0.8622 c -0.2129,-0.1181 -0.4268,-0.2418 -0.6379,-0.3468 0.2111,0.1052 0.425,0.2287 0.6379,0.3468 z m -1.3792,-0.6784 c -0.208,-0.0891 -0.4167,-0.1857 -0.6228,-0.2618 0.2061,0.0762 0.4148,0.1727 0.6228,0.2618 z m -1.3633,-0.4942 c -0.1997,-0.059 -0.4001,-0.1276 -0.5981,-0.174 0.198,0.0463 0.3984,0.1151 0.5981,0.174 z M 166.5565,557.0505 c 16.5274,-18.6388 34.7362,-37.1589 54.591,-55.528 19.8549,-18.369 41.3562,-36.5873 64.4686,-54.6221 23.1124,-18.0349 47.8362,-35.8865 74.1365,-53.5226 26.2948,-17.6349 53.8331,-34.8323 82.5621,-51.5646 28.7282,-16.7323 58.647,-32.9994 89.7019,-48.7736 31.0549,-15.7742 63.2467,-31.0555 96.5208,-45.8164 33.274,-14.7608 67.6313,-29.0011 103.0175,-42.6931 36.6284,-14.1794 73.9641,-27.6121 111.9373,-40.2789 37.9732,-12.6668 76.5844,-24.568 115.7645,-35.6842 39.1801,-11.1162 78.9286,-21.4477 119.1769,-30.9751 40.2483,-9.5275 80.9963,-18.2511 122.1746,-26.1518 41.1782,-7.9006 82.1733,-14.8605 122.9149,-20.8721 40.7417,-6.0114 81.2294,-11.0746 121.3937,-15.1815 40.1637,-4.107 80.0037,-7.2578 119.4492,-9.4449 39.4454,-2.187 78.4967,-3.4102 117.0831,-3.6618 37.2653,-0.2471 73.7076,0.4093 109.2679,1.9633 35.5602,1.554 70.2379,4.0055 103.9742,7.3486 33.7362,3.3432 66.5311,7.5779 98.3243,12.6981 31.7936,5.1203 62.5859,11.1261 92.3184,18.0116 29.7319,6.8854 58.0303,14.5639 84.8535,23.018 26.8225,8.4541 52.1699,17.6838 76,27.6714 23.8298,9.9876 46.1426,20.7331 66.8958,32.219 20.7532,11.4859 39.947,23.7121 57.5398,36.6611 18.2097,13.4092 34.4973,27.4501 48.8435,42.0951 14.3467,14.6451 26.7517,29.8944 37.1965,45.7203 10.4446,15.8259 18.9292,32.2283 25.4338,49.1797 6.5044,16.9514 11.0293,34.4519 13.5559,52.4737 2.5264,18.0219 3.0164,36.2965 1.48,54.7906 -1.5359,18.494 -5.0977,37.2074 -10.6748,56.1066 -5.5769,18.8992 -13.1689,37.9844 -22.7656,57.2219 -9.5967,19.2375 -21.198,38.6274 -34.7935,58.1364 -13.1355,18.8471 -27.9861,37.6065 -44.5164,56.2463 -16.53,18.6398 -34.74,37.1602 -54.595,55.5293 -19.8547,18.3692 -41.3547,36.587 -64.4646,54.622 -23.1094,18.035 -47.8291,35.887 -74.1233,53.5243 -26.2957,17.6325 -53.8357,34.8285 -82.5659,51.5599 -28.7305,16.7314 -58.6514,32.9983 -89.7075,48.7728 -31.0566,15.7744 -63.2484,31.0565 -96.5217,45.8184 -33.2732,14.7618 -67.627,29.0033 -103.0076,42.6967 -36.634,14.178 -73.9739,27.6102 -111.9501,40.2773 -37.9767,12.6669 -76.59,24.5687 -115.771,35.6858 -39.1814,11.1172 -78.9308,21.4496 -119.1791,30.978 -40.2483,9.5282 -80.9963,18.2523 -122.1746,26.1531 -41.1786,7.9008 -82.1737,14.86 -122.9149,20.8706 -40.7412,6.0105 -81.2285,11.0729 -121.3915,15.1787 -40.1625,4.1063 -80.0006,7.2563 -119.4428,9.4432 -39.4425,2.187 -78.4895,3.4105 -117.0699,3.6635 -37.2712,0.2457 -73.7166,-0.4121 -109.2777,-1.9668 -35.5615,-1.5552 -70.2388,-4.0073 -103.9738,-7.3508 -33.735,-3.3435 -66.5277,-7.5779 -98.3192,-12.6974 -31.7915,-5.1193 -62.5826,-11.1237 -92.3146,-18.0065 -29.7379,-6.8867 -58.0402,-14.5659 -84.8658,-23.0203 -26.8257,-8.454 -52.1747,-17.6835 -76.0045,-27.671 -23.8297,-9.9875 -46.1411,-20.7334 -66.8917,-32.2205 -20.7506,-11.4868 -39.9406,-23.7151 -57.5285,-36.6675 -18.2148,-13.4058 -34.5049,-27.4442 -48.8519,-42.0878 C 117.1282,972.2829 104.7238,957.0343 94.2804,941.2087 83.837,925.3833 75.3546,908.9807 68.852,892.0291 62.3489,875.0775 57.8252,857.5768 55.2988,839.5549 c -2.526,-18.0218 -3.0172,-36.2963 -1.483,-54.79 1.5342,-18.4939 5.0939,-37.2072 10.6696,-56.1067 5.5757,-18.8995 13.167,-37.9855 22.7645,-57.2245 9.5975,-19.239 21.2013,-38.6312 34.8015,-58.1436 13.1309,-18.8435 27.9773,-37.601 44.5051,-56.2396 z M 2372.2729,181.4437 c -0.1394,0.0227 -0.2815,0.0292 -0.4207,0.0594 0.1393,-0.0302 0.2813,-0.0367 0.4207,-0.0594 z" /></g><g
       style="filter:url(#filter8061)"
       id="g8047"><path
         d="m 2468.3799,591.9158 0.7576,0.6904 c 0.5918,0.5402 1.1958,1.0948 1.8201,1.673 l 0.7717,0.7177 c 0.2375,0.2209 0.4829,0.451 0.7249,0.6771 8.5188,8.0552 14.4392,14.4476 17.5095,17.8137 3.3621,3.8181 6.4651,7.5528 9.3047,11.1539 l 0.077,0.0971 c 1.0806,1.3716 2.1277,2.7255 3.1436,4.0592 l 0.07,0.0923 c 1.0281,1.3506 2.0251,2.6807 2.9934,3.9888 3.0979,4.4675 5.833,8.8249 8.6467,13.3859 l 0,0.005 c 0.035,0.0704 0.069,0.1371 0.1052,0.2089 l 0.2092,0.423 c 0.077,0.1558 0.1553,0.3159 0.2346,0.4784 l 0.2725,0.5608 c 0.1194,0.2466 0.2405,0.4999 0.366,0.7629 l 0.1145,0.2389 c 1.1812,2.487 2.6575,5.7254 4.7158,10.295 -1.8357,-4.0742 -3.9531,-9.2666 -5.8289,-13.9012 -3.0676,-8.2113 -5.3091,-14.2831 -7.3164,-20.3275 -1.624,-5.0639 -3.0527,-9.814 -4.3044,-14.2035 -1.4983,-5.4006 -3.1174,-11.6906 -5.1074,-19.7607 l -8.2148,-40.2771 c -0.918,-4.4313 -1.7275,-8.5042 -2.4678,-12.3578 -0.8555,-4.5498 -1.6221,-8.7548 -2.3083,-12.668 -1.8469,-10.7735 -3.1082,-19.9548 -4.3687,-30.033 1.3738,-3.9851 2.6809,-7.9686 3.8809,-11.9485 5.6987,-18.9004 9.4248,-37.7348 11.0828,-56.4383 1.6575,-18.7036 1.2466,-37.2763 -1.3293,-55.6535 -2.5764,-18.3778 -7.2576,-36.1317 -13.9353,-53.2366 -6.677,-17.1048 -15.3503,-33.5605 -25.9106,-49.3418 -10.5598,-15.7813 -23.0068,-30.8881 -37.231,-45.2953 -14.2246,-14.4072 -30.2271,-28.1148 -47.8972,-41.0973 -70.68,-51.9299 -168.0572,-92.2607 -285.1421,-119.3744 -117.0853,-27.1136 -253.8779,-41.0101 -403.3911,-40.0714 -37.3783,0.2347 -75.5516,1.3966 -114.4108,3.5109 -38.8591,2.1144 -78.4042,5.1812 -118.5261,9.2257 -40.1216,4.0446 -80.8201,9.0669 -121.986,15.0923 -41.1658,6.0253 -82.799,13.0537 -124.7906,21.1103 -41.9904,8.0565 -83.3606,16.9535 -124.0138,26.6263 -40.6533,9.6728 -80.5901,20.1214 -119.713,31.2811 -39.1234,11.1596 -77.4333,23.0304 -114.8333,35.5474 -37.4001,12.517 -73.8903,25.6804 -109.3737,39.4253 -141.9346,54.9796 -267.7661,119.264 -371.3141,188.7092 -103.5483,69.4452 -184.8131,144.0509 -237.6147,219.6733 -13.2007,18.9055 -24.6218,37.8746 -34.1677,56.8425 -9.5463,18.968 -17.2166,37.9346 -22.9148,56.8353 -5.6986,18.9007 -9.4247,37.7354 -11.0827,56.4394 -1.6576,18.704 -1.2466,37.2772 1.3298,55.655 2.576,18.3772 7.2572,36.1307 13.9343,53.235 6.6772,17.1043 15.3508,33.5597 25.9107,49.3406 7.9989,11.9538 17.0852,23.519 27.2021,34.6879 1.0311,3.3343 1.9725,6.5138 2.8312,9.5231 1.4984,5.4012 3.118,11.6915 5.108,19.7627 l 8.2148,40.2781 c -0.4374,-6.5273 -0.9534,-13.1887 -1.343,-19.9203 0.3896,6.7316 0.9056,13.3929 1.343,19.9205 0.6709,3.2388 1.2782,6.2227 1.8377,9.0272 1.4395,7.5508 2.643,14.16 3.6612,20.1462 0.4447,2.7032 0.8847,5.446 1.2978,8.0881 1.052,7.2111 1.987,14.7251 3.1854,24.5776 0.4677,4.7073 0.8706,9.4971 1.256,14.6665 l 0.008,0.6136 c 4e-4,0.067 9e-4,0.1335 0.002,0.1993 l -0.006,1.9578 c -0.0316,2.585 -0.1293,3.9612 -0.1498,4.2218 -0.009,0.1156 -0.0269,0.2697 -0.0307,0.3857 -0.0103,0.3103 -0.002,0.7242 -0.0137,1.0345 -0.008,0.2146 -0.0448,0.499 -0.0636,0.7131 0.1942,-1.4493 0.4007,-2.9236 0.6154,-4.4109 1.2611,-7.5123 2.9477,-17.3683 4.962,-24.9359 0.1997,-0.7458 0.4046,-1.4939 0.618,-2.2472 0.3064,-1.074 0.6316,-2.1799 0.976,-3.3202 0.4396,-1.3076 1.7924,-5.3021 2.066,-6.0963 0.4558,-1.3269 1.8445,-5.364 3.6028,-10.0802 3.1333,-8.4091 5.562,-14.0364 7.0126,-17.3984 0.0184,-0.042 0.0384,-0.087 0.0568,-0.1289 3.6378,-8.1201 7.9754,-16.9387 13.1508,-26.3933 0.2164,-0.3931 0.437,-0.7921 0.6598,-1.1949 0.6709,-1.2158 1.3639,-2.448 2.0626,-3.6843 70.2465,50.1926 165.7896,89.2908 280.147,115.7739 117.0837,27.1146 253.8749,41.0122 403.3847,40.0748 37.3779,-0.2343 75.5504,-1.3958 114.4087,-3.5099 38.8583,-2.1138 78.4025,-5.1805 118.5231,-9.2246 40.1207,-4.0444 80.818,-9.0662 121.9825,-15.0913 41.1646,-6.025 82.7969,-13.053 124.7872,-21.1095 41.9916,-8.0568 83.3632,-16.9541 124.0177,-26.6272 40.6542,-9.6731 80.5922,-20.1221 119.7164,-31.282 39.1241,-11.1599 77.4349,-23.0309 114.8358,-35.5483 37.401,-12.5175 73.892,-25.681 109.3763,-39.4263 141.9376,-54.9809 267.7709,-119.2665 371.3199,-188.7126 103.5498,-69.4459 184.8154,-144.0522 237.6174,-219.6741 5.9883,-8.5764 11.5906,-17.1663 16.8376,-25.7628 7.9697,6.1498 15.6687,12.4819 23.0759,19.0062 0.4497,0.4063 0.896,0.8084 1.3655,1.2351 z m -61.499,27.4071 c -0.1504,0.197 -0.301,0.3964 -0.4512,0.5927 -0.2258,0.2964 -0.4524,0.5939 -0.6902,0.905 -16.9194,22.0402 -32.6965,39.2633 -39.8337,47.0538 -0.5071,0.5537 -1.0344,1.1111 -1.5466,1.6656 -7.8108,8.3456 -18.2285,19.0812 -30.7622,31.0784 -22.1709,21.2212 -42.0662,37.8301 -48.6042,43.2881 -2.2705,1.8951 -4.7322,3.9236 -7.2961,6.02 -1.0122,0.8257 -2.0193,1.6519 -3.0386,2.4771 -0.7183,0.5828 -1.4658,1.1843 -2.2056,1.7806 -1.811,1.4591 -3.6309,2.9173 -5.4624,4.3741 -0.4841,0.3848 -0.9526,0.7603 -1.4443,1.15 -2.1362,1.6933 -4.2881,3.3846 -6.4504,5.0742 -22.6362,17.6646 -52.4556,39.5295 -88.9253,63.2862 -19.8835,12.9521 -40.6404,25.7433 -62.0854,38.311 -2.3899,1.3994 -4.9395,2.8848 -7.6318,4.4442 -3.3022,1.9118 -6.6174,3.8192 -9.9519,5.7196 -2.0049,1.1433 -4.0798,2.3209 -6.2148,3.5266 -4.021,2.2694 -8.0613,4.5314 -12.1262,6.7829 -1.5833,0.8773 -3.2019,1.7701 -4.8428,2.6726 -4.292,2.3597 -8.6067,4.709 -12.9443,7.0474 -1.573,0.8482 -3.1687,1.7052 -4.7866,2.571 -4.3436,2.3248 -8.7098,4.6382 -13.0966,6.9402 -17.4749,9.1705 -37.1901,19.1585 -59.1028,29.7208 -4.0526,1.9372 -9.418,4.4904 -17.3497,8.2641 -9.9846,4.6978 -20.3854,9.4922 -31.186,14.361 -3.3761,1.52 -6.7676,3.0385 -10.1006,4.5219 -5.7644,2.563 -11.641,5.1451 -17.625,7.7429 -0.6121,0.2645 -1.2411,0.5372 -1.8296,0.79 -12.2341,5.2588 -28.5857,12.1793 -40.9086,17.2266 -6.2389,2.5555 -14.574,5.9231 -20.8372,8.4184 -6.3124,2.5149 -14.7687,5.7671 -21.0814,8.2818 l 0,0 c -0.3414,0.1378 -7.6917,2.982 -16.0123,6.1339 -0.9286,0.3516 -1.8594,0.7033 -2.7919,1.0549 -0.8467,0.3197 -1.6956,0.6391 -2.5426,0.9568 -2.6238,0.985 -6.7728,2.5416 -12.2333,4.5609 -1.0977,0.4058 -2.1965,0.8117 -3.299,1.2171 -1.4104,0.5194 -2.8973,1.065 -4.452,1.6341 -1.0396,0.3801 -2.0851,0.7601 -3.1285,1.1401 -1.8667,0.6802 -3.7343,1.3556 -5.6027,2.0316 -41.817,15.1124 -81.9983,28.4312 -120.2528,40.2144 -7.5968,2.3323 -13.974,4.2542 -18.2908,5.5543 -4.3453,1.3091 -14.7102,4.3887 -23.1563,6.8413 -2.3733,0.6895 -6.0652,1.7615 -10.8655,3.1346 -2.0148,0.5758 -4.024,1.1479 -6.026,1.7151 -2.8601,0.8101 -5.9747,1.6873 -9.3632,2.6327 -0.1545,0.043 -0.3081,0.086 -0.4626,0.1292 -7.5653,2.1097 -16.3647,4.527 -26.1855,7.1583 -4.4767,1.2003 -11.4675,3.0477 -11.9045,3.1624 -6.2108,1.6279 -20.7554,5.4401 -35.9525,9.222 -1.8069,0.4496 -4.2207,1.0289 -6.0226,1.4985 0,9e-4 -0.03,0.01 -0.047,0.012 -57.3761,14.1506 -107.2322,24.5051 -147.7288,32.4116 -0.01,0 -0.014,0.021 -0.016,0.058 5e-4,-1e-4 0,-1e-4 0,-1e-4 0,-0.037 0.01,-0.056 0.016,-0.058 l -5e-4,0 0,0 c -58.9094,11.1031 -114.7091,20.1019 -169.4385,27.2336 -0.4263,0.055 -0.8501,0.1102 -1.2721,0.1647 -2.7275,0.3542 -5.4503,0.6989 -8.1731,1.0437 -3.2147,0.406 -6.1697,0.7739 -8.7355,1.0906 -1.1189,0.1378 -2.2379,0.2756 -3.3561,0.4122 -3.6671,0.4481 -6.0975,0.7383 -6.6746,0.807 -0.065,0.01 -0.1259,0.015 -0.1908,0.023 -6.8286,0.8146 -13.6471,1.6014 -20.4574,2.3588 -1.8176,0.2002 -3.8789,0.4259 -6.2965,0.6897 -61.2354,6.658 -121.9855,11.0427 -185.1793,13.4799 -5.2932,0.189 -11.2073,0.3845 -17.4069,0.5624 -9.9078,0.2847 -18.8733,0.4661 -22.7018,0.5437 -5.6325,0.1143 -11.2658,0.1669 -16.8987,0.259 -10.1271,0.1652 -35.7071,0.2386 -55.4672,-0.062 -8.9173,-0.136 -18.9941,-0.3291 -30.1003,-0.6353 -25.7088,-0.7281 -51.1735,-1.91 -76.1069,-3.5283 -19.3973,-1.2782 -40.2415,-2.9476 -62.3121,-5.1434 -26.7731,-2.6638 -52.4521,-5.8373 -78.5049,-9.7017 -0.0123,0 -0.0247,0 -0.0371,-0.01 -12.9352,-1.9832 -33.6646,-5.1624 -59.4813,-10.0773 -3.243,-0.6282 -7.136,-1.3893 -12.1774,-2.3762 -11.9524,-2.3885 -24.7951,-5.1241 -38.3138,-8.2554 -2.71,-0.6287 -5.4186,-1.2657 -8.1214,-1.9124 -0.0504,-0.012 -0.1007,-0.024 -0.1506,-0.036 -8.6002,-2.0583 -17.1423,-4.2015 -25.492,-6.3972 -22.8435,-6.0081 -43.3462,-12.0948 -64.524,-19.1554 -20.7835,-6.9299 -40.1139,-14.1503 -59.0956,-22.0745 -9.3044,-3.884 -18.5033,-7.943 -27.3437,-12.0643 -0.0248,-0.011 -0.05,-0.023 -0.0751,-0.035 -0.0265,-0.012 -0.0504,-0.024 -0.0768,-0.036 -20.7933,-9.7606 -39.7707,-19.8118 -57.1798,-30.2979 -0.2859,-0.1724 -0.5522,-0.3356 -0.8318,-0.505 -1.4988,-0.9067 -2.9792,-1.8185 -4.455,-2.7318 -3.4602,-2.1511 -6.515,-4.1121 -9.6206,-6.1104 -8.6531,-5.6372 -16.8927,-11.4077 -24.7571,-17.3291 17.2648,-29.8365 42.5776,-65.3043 79.7331,-104.53 0.0738,-0.0776 0.1481,-0.1561 0.2224,-0.2339 2.3536,-2.4828 4.7618,-4.9828 7.2111,-7.4951 0.2599,-0.2657 0.5211,-0.5366 0.7801,-0.8008 2.1722,-2.2211 4.3965,-4.4578 6.6447,-6.7011 6.0631,-6.0418 11.5995,-11.374 15.8159,-15.3743 2.7292,-2.5834 5.4682,-5.1459 8.2174,-7.6827 6.9682,-6.3164 10.8727,-9.8553 13.7717,-12.4499 2.8128,-2.4927 5.632,-4.9583 8.4551,-7.4017 0.6077,-0.5234 1.2444,-1.0716 1.9593,-1.6866 13.7654,-11.8433 25.3358,-21.0959 25.8219,-21.4841 8.1086,-6.4769 19.0461,-14.9542 27.278,-21.2737 4.2126,-3.2339 9.9406,-7.3987 14.201,-10.5696 1.6418,-1.222 3.0407,-2.2571 4.4627,-3.2958 0.8079,-0.5865 1.6157,-1.1733 2.4206,-1.7552 4.2621,-3.0685 9.8493,-6.9837 22.5486,-15.8822 0.1195,-0.0837 13.0479,-9.0882 30.8052,-20.6592 2.9882,-1.9469 5.1455,-3.3527 7.1624,-4.6543 1.4796,-0.9504 2.9502,-1.8918 4.4068,-2.8198 3.9053,-2.478 8.971,-5.6421 19.184,-12.0175 21.3759,-13.1657 39.1592,-23.3915 51.4355,-30.4416 5.7025,-3.2374 11.7463,-6.6271 18.0723,-10.1168 23.5178,-12.9744 48.0752,-25.8114 72.9902,-38.1547 12.3007,-6.093 12.5849,-6.2336 36.5961,-17.6589 57.0983,-26.7795 128.4189,-57.0841 212.6147,-86.8929 1.288,-0.4548 2.5756,-0.9095 3.864,-1.3625 2.5251,-0.8892 5.0431,-1.7675 7.561,-2.6448 2.176,-0.7512 4.3534,-1.4988 6.5231,-2.269 12.9959,-4.4891 25.8834,-8.8195 38.6462,-12.9999 1.6046,-0.5203 3.2084,-1.0427 4.8101,-1.5714 3.0475,-0.9915 6.0853,-1.9723 9.117,-2.9465 9.1217,-2.9216 25.2761,-8.0357 43.5463,-13.5493 30.8342,-9.3047 55.0669,-16.0885 69.9662,-20.141 33.2067,-9.0321 60.6375,-15.8894 77.8015,-20.0517 10.0132,-2.4278 18.6608,-4.5245 36.5056,-8.6082 16.7207,-3.8268 31.9476,-7.0997 36.9515,-8.1751 16.8969,-3.6316 31.6971,-6.6216 37.2686,-7.7473 6.8197,-1.3773 12.8615,-2.5716 18.0574,-3.5844 0.2202,-0.0422 0.4502,-0.0876 0.6696,-0.1297 60.9225,-11.6933 120.8447,-21.3492 179.4576,-28.934 0.323,-0.0414 0.6379,-0.0816 0.9572,-0.1225 6.5692,-0.8478 13.1112,-1.6527 19.6471,-2.4483 1.8876,-0.2287 3.2246,-0.3887 3.8477,-0.4629 3.0732,-0.3662 5.5369,-0.6587 7.7556,-0.9192 2.4152,-0.2834 4.8237,-0.5571 7.2341,-0.8334 4.8323,-0.5449 10.5186,-1.1638 21.2919,-2.3363 0.7532,-0.0821 18.7806,-2.039 47.7512,-4.5713 6.614,-0.5789 17.2502,-1.4571 23.7107,-1.9577 10.4037,-0.8072 20.3136,-1.5253 29.455,-2.1346 12.9899,-0.8665 23.2728,-1.4396 23.3752,-1.4453 7.4927,-0.4169 13.8473,-0.7415 18.6791,-0.977 5.3223,-0.2499 10.6512,-0.5084 15.9414,-0.7186 77.5358,-3.0807 151.2783,-2.6429 220.6321,1.271 1.349,0.0782 2.7031,0.1579 4.0679,0.2401 3.9297,0.2301 7.8226,0.4887 11.7233,0.7413 19.1711,1.271 39.7426,2.9236 61.5106,5.0892 22.5857,2.2468 44.3931,4.862 66.3007,7.943 4.0786,0.5825 8.1812,1.1482 12.2191,1.7601 71.8662,10.8914 137.0342,25.5734 194.8887,43.8547 4.4551,1.417 8.9104,2.8611 13.397,4.357 20.7844,6.9295 40.1147,14.1501 59.0964,22.0741 9.248,3.8605 18.3899,7.8937 27.1794,11.9885 0.092,0.0431 0.186,0.0853 0.2783,0.1284 0.01,0.004 0.017,0.008 0.026,0.0121 20.8005,9.7637 39.7839,19.8178 57.198,30.3071 0.2805,0.1691 0.5417,0.329 0.8157,0.4952 1.5061,0.9109 2.9934,1.8271 4.4758,2.7446 3.4548,2.1479 6.5049,4.1059 9.6057,6.1013 0.2766,0.18 0.5496,0.361 0.8254,0.5413 8.1904,5.4902 16.127,11.1564 23.8242,16.9842 -0.106,0.1873 -0.2104,0.3729 -0.3164,0.5608 -12.4021,21.4343 -22.9023,35.8104 -28.6282,43.6424 -0.7408,1.0133 -2.3282,3.1657 -4.5828,6.1347 z"
         id="path8049"
         style="fill:url(#SVGID_1_);filter:url(#filter6541)"
         inkscape:connector-curvature="0" /><g
         style="filter:url(#filter6521)"
         id="g8051"><path
           d="m 2370.6233,181.871 c 18.2095,13.4091 34.4971,27.4501 48.8435,42.0952 14.3462,14.6451 26.7515,29.8944 37.1963,45.7202 10.4446,15.8259 18.929,32.2283 25.4336,49.1797 6.5049,16.9514 11.0298,34.4519 13.5562,52.4737 2.5264,18.0218 3.0161,36.2965 1.4802,54.7905 -1.5361,18.494 -5.0979,37.2074 -10.6748,56.1066 -5.5771,18.8992 -13.1692,37.9843 -22.7661,57.2219 -9.5967,19.2375 -21.1978,38.6275 -34.793,58.1364 -13.1357,18.8472 -27.9863,37.6065 -44.5166,56.2463 -16.5303,18.6399 -34.7402,37.1602 -54.5952,55.5294 -19.8547,18.3691 -41.3545,36.587 -64.4641,54.6219 -23.1099,18.035 -47.8293,35.887 -74.1238,53.5243 -26.2952,17.6326 -53.8352,34.8285 -82.5657,51.5599 -28.7305,16.7314 -58.6514,32.9983 -89.7076,48.7728 -31.0564,15.7745 -63.2484,31.0565 -96.5215,45.8184 -33.2731,14.7619 -67.6271,29.0034 -103.0074,42.6967 -36.6343,14.178 -73.974,27.6104 -111.9504,40.2773 -37.9764,12.6669 -76.5897,24.5687 -115.7709,35.6859 -39.1813,11.1171 -78.9305,21.4495 -119.1791,30.9778 -40.2486,9.5283 -80.9963,18.2526 -122.1747,26.1532 -41.1785,7.9006 -82.1736,14.86 -122.9149,20.8706 -40.7413,6.0107 -81.2286,11.0728 -121.3912,15.1788 -40.1627,4.1062 -80.0006,7.2562 -119.443,9.4431 -39.4424,2.1869 -78.4894,3.4105 -117.07,3.6635 -37.2711,0.2457 -73.7165,-0.412 -109.2778,-1.9669 -35.5613,-1.5551 -70.2387,-4.0073 -103.9736,-7.3507 -33.7349,-3.3434 -66.5274,-7.5779 -98.3192,-12.6973 -31.7917,-5.1194 -62.5826,-11.1237 -92.3144,-18.0067 -29.7379,-6.8867 -58.0405,-14.5657 -84.8661,-23.0199 -26.8256,-8.4542 -52.1743,-17.6836 -76.0042,-27.6711 -23.8299,-9.9877 -46.1411,-20.7334 -66.8917,-32.2205 -20.7506,-11.4869 -39.9407,-23.7152 -57.5285,-36.6676 -18.2146,-13.4057 -34.5047,-27.4443 -48.8519,-42.0879 C 117.1285,972.2829 104.7242,957.0344 94.2809,941.2089 83.8376,925.3833 75.3554,908.9808 68.8524,892.0292 62.3494,875.0775 57.8257,857.5769 55.2994,839.555 c -2.5263,-18.0219 -3.0175,-36.2963 -1.4832,-54.7901 1.5343,-18.4938 5.094,-37.2071 10.6696,-56.1067 5.5756,-18.8995 13.1669,-37.9854 22.7645,-57.2245 9.5976,-19.2391 21.2013,-38.6313 34.8015,-58.1436 13.1307,-18.8437 27.9772,-37.6011 44.5049,-56.2399 16.5276,-18.6387 34.7363,-37.1588 54.5912,-55.5279 19.8549,-18.3691 41.356,-36.5873 64.4684,-54.6222 23.1124,-18.0349 47.8362,-35.8865 74.1365,-53.5225 26.2948,-17.6349 53.8333,-34.8324 82.5619,-51.5647 28.7286,-16.7323 58.6472,-32.9994 89.7022,-48.7736 31.0551,-15.7742 63.2465,-31.0556 96.5208,-45.8164 33.2743,-14.7608 67.6312,-29.0011 103.0174,-42.6931 36.6284,-14.1794 73.9639,-27.612 111.9373,-40.2789 37.9734,-12.6669 76.5846,-24.568 115.7645,-35.6842 39.18,-11.1162 78.9287,-21.4477 119.177,-30.9752 40.2483,-9.5275 80.9962,-18.2511 122.1746,-26.1517 41.1784,-7.9006 82.1735,-14.8606 122.915,-20.8721 40.7415,-6.0115 81.2294,-11.0746 121.3933,-15.1815 40.1639,-4.1069 80.0038,-7.2578 119.4493,-9.4448 39.4455,-2.187 78.4967,-3.4102 117.0831,-3.6618 37.2653,-0.2471 73.7078,0.4093 109.2679,1.9633 35.5601,1.554 70.238,4.0056 103.9744,7.3487 33.7364,3.3431 66.5309,7.5778 98.3245,12.6981 31.7936,5.1203 62.5861,11.1261 92.3182,18.0115 29.7321,6.8854 58.0305,14.564 84.8533,23.0181 26.823,8.4541 52.1702,17.6837 76.0002,27.6713 23.8298,9.9876 46.1423,20.7331 66.8955,32.219 20.7532,11.4862 39.9471,23.7124 57.5401,36.6614 z m -1020.4065,956.8371 c 41.9917,-8.0568 83.363,-16.954 124.0176,-26.6271 40.6546,-9.6731 80.5923,-20.1221 119.7166,-31.282 39.1241,-11.16 77.4351,-23.0311 114.8359,-35.5485 37.4008,-12.5174 73.8918,-25.681 109.3762,-39.4262 141.9376,-54.981 267.771,-119.2667 371.3203,-188.7126 103.5493,-69.4459 184.8149,-144.0522 237.6169,-219.6742 13.2004,-18.9055 24.6221,-37.8745 34.1682,-56.8421 9.5459,-18.9677 17.2166,-37.9341 22.9148,-56.8345 5.6985,-18.9004 9.4248,-37.7347 11.0825,-56.4383 1.6577,-18.7036 1.2468,-37.2763 -1.3293,-55.6535 -2.5762,-18.3778 -7.2573,-36.1317 -13.9348,-53.2365 -6.6772,-17.1048 -15.3506,-33.5605 -25.9106,-49.3418 -10.56,-15.7813 -23.0068,-30.8882 -37.2314,-45.2954 -14.2244,-14.4072 -30.2266,-28.1147 -47.897,-41.0973 C 2298.2803,130.7678 2200.9031,90.437 2083.8182,63.3233 1966.733,36.2097 1829.9403,22.3133 1680.4271,23.2519 c -37.3783,0.2347 -75.5516,1.3965 -114.4109,3.5109 -38.8591,2.1143 -78.4042,5.1811 -118.5259,9.2257 -40.1217,4.0446 -80.8201,9.0669 -121.986,15.0922 -41.1658,6.0253 -82.7992,13.0537 -124.7909,21.1104 -41.9902,8.0564 -83.3604,16.9534 -124.0137,26.6262 -40.6534,9.6728 -80.59,20.1214 -119.7132,31.2811 -39.1232,11.1597 -77.4332,23.0304 -114.8332,35.5474 -37.4,12.517 -73.8901,25.6804 -109.3738,39.4253 -141.9347,54.9796 -267.7661,119.264 -371.3142,188.7091 -103.5481,69.4451 -184.813,144.051 -237.6147,219.6733 -13.2004,18.9056 -24.6219,37.8747 -34.1678,56.8426 -9.5459,18.9679 -17.2164,37.9346 -22.9147,56.8353 -5.6983,18.9007 -9.4247,37.7354 -11.0823,56.4394 -1.6576,18.704 -1.2467,37.2773 1.3295,55.6551 2.5761,18.3772 7.2574,36.1306 13.9346,53.235 6.6772,17.1044 15.3504,33.5597 25.9105,49.3406 10.56,15.781 23.0068,30.8876 37.2312,45.2946 14.2244,14.407 30.2264,28.1144 47.8969,41.0969 70.6818,51.9299 168.0585,92.2612 285.1422,119.3757 117.0837,27.1145 253.8746,41.0121 403.3849,40.0748 37.3776,-0.2344 75.5501,-1.3959 114.4084,-3.5099 38.8583,-2.114 78.4024,-5.1805 118.5231,-9.2247 40.1206,-4.0443 80.8179,-9.0663 121.9825,-15.0913 41.1646,-6.025 82.7968,-13.0531 124.7872,-21.1095"
           id="path8053"
           inkscape:connector-curvature="0"
           style="fill:#c6dd00" /></g><path
         d="m 2594.5071,742.7535 0.01,-0.1803 0,-0.1388 c 0.2939,-8.6932 0.3303,-15.5402 0.3076,-19.7285 -0.01,-1.1298 -0.015,-2.7007 -0.036,-4.6437 l -0.016,-1.9984 -0.034,-1.5652 c -0.033,-1.9861 -0.079,-4.214 -0.1445,-6.6552 l -0.029,-1.3502 c -0.4485,-19.5869 -2.1252,-39.215 -4.2561,-57.1978 -0.7358,-6.3477 -1.6335,-13.3557 -2.7629,-21.2665 -1.145,-8.0195 -2.4402,-16.1563 -3.9602,-24.8754 -0.5435,-3.1162 -1.198,-6.6603 -1.8818,-10.2714 -0.1284,-0.7269 -0.2573,-1.4573 -0.3777,-2.1467 -0.7419,-3.7704 -1.7312,-8.7974 -2.4734,-12.5677 l -8.7449,-42.8755 c -0.4375,-5.7604 -1.2556,-11.3267 -2.3643,-16.7635 -1.6653,-7.9405 -2.9365,-13.9995 -4.627,-21.3712 l -0.01,-0.0469 -0.019,-0.0816 c -0.6921,-3.0164 -1.4587,-6.2678 -2.3484,-9.9504 l -0.3066,-1.2981 -0.2107,-0.8327 c -0.3982,-1.6347 -0.8157,-3.3351 -1.2671,-5.1602 -0.708,-2.8587 -2.2615,-9.1253 -5.0786,-19.3191 l -0.3413,-1.2633 -0.3293,-1.1574 c -4.0083,-14.6057 -8.7583,-30.358 -14.3608,-46.4092 -1.6814,-4.9667 -3.4929,-10.0451 -5.1663,-14.6293 -1.8667,-5.2167 -3.6335,-10.0631 -5.3313,-14.6076 0.015,0.011 0.033,0.0242 0.047,0.0346 -0.8621,-2.3041 -2.4424,-6.5269 -4.4746,-11.6743 l -0.175,-0.4571 -0.2522,-0.6197 c -1.4438,-3.6342 -3.0903,-7.6678 -4.8606,-11.7932 -2.4751,-5.8109 -4.9563,-11.2831 -7.5759,-16.725 -0.4321,-0.9101 -0.8777,-1.8417 -1.3435,-2.8042 l -0.1165,-0.2443 c 0.02,0.0408 0.039,0.0826 0.059,0.1234 -2.0989,-4.3368 -4.5115,-9.1446 -7.1033,-13.9725 -1.1416,-2.1266 -3.606,-6.717 -6.9268,-12.5063 -0.046,-0.0826 -0.09,-0.1623 -0.136,-0.2451 -19.2993,-34.5546 -41.8369,-61.8202 -62.2986,-82.5238 -0.157,-0.1592 -0.3213,-0.3241 -0.4805,-0.485 -0.8271,-0.8339 -1.6528,-1.6668 -2.4727,-2.4791 -0.9888,-0.9846 -2.0024,-1.9872 -3.0642,-3.0249 -9.8489,-9.622 -17.5588,-16.2812 -23.1755,-21.0078 -9.918,-8.3459 -18.6992,-14.7282 -22.9553,-17.8195 -2.3806,-1.7905 -4.8481,-3.5877 -7.3625,-5.3873 -0.2168,-0.1662 -0.4548,-0.3434 -0.7273,-0.5379 -0.3984,-0.2795 -0.8074,-0.5537 -1.2078,-0.8325 -5.2329,-3.6995 -10.6968,-7.4032 -16.4009,-11.0737 -7.4233,-4.7765 -14.0969,-8.7895 -18.3889,-11.3148 -1.26,-0.7414 -5.0947,-2.9977 -9.4441,-5.4601 -3.8042,-2.1537 -9.4924,-5.3141 -9.5283,-5.3338 -0.9534,-0.5237 -2.2314,-1.21 -3.1782,-1.7458 -2e-4,-3e-4 0,-7e-4 0,-10e-4 -0.031,-0.0178 -4.0208,-2.2493 -13.2046,-6.9548 -8.031,-4.1148 -17.3003,-8.5626 -27.552,-13.22 -1.5911,-0.7227 -4.2498,-1.9195 -7.7126,-3.4419 -0.026,-0.0112 -0.051,-0.0222 -0.076,-0.0334 -1.5061,-0.6618 -3.1533,-1.3809 -4.9458,-2.1552 -41.9199,-18.2164 -88.2429,-33.9353 -138.7231,-47.0493 -2.2205,-0.5796 -4.5356,-1.1757 -6.9243,-1.783 -0.3062,-0.0775 -0.6104,-0.1559 -0.9163,-0.2332 -0.9414,-0.2383 -1.8928,-0.4782 -2.8572,-0.7198 -5.8467,-1.4644 -12.0869,-2.9573 -17.7031,-4.2736 -0.061,-0.0144 -0.1226,-0.0294 -0.1841,-0.0438 -0.034,-0.0081 -0.069,-0.0155 -0.1035,-0.0236 -9.9382,-2.3277 -17.8428,-4.0851 -17.9592,-4.1107 -5.7798,-1.2728 -19.3142,-4.2536 -36.8893,-7.5915 -26.7484,-5.0795 -56.4705,-9.9176 -81.5452,-13.2739 -7.5072,-1.0065 -12.875,-1.6851 -14.8347,-1.9303 -1.4921,-0.187 -3.4756,-0.4905 -4.9736,-0.6153 -3.0078,-0.2507 -6.9951,-0.8144 -9.9897,-1.1897 l 0,-10e-5 c -3.0104,-0.3681 -7.0314,-0.8019 -10.0452,-1.1362 -4.1823,-0.464 -8.735,-0.9466 -13.403,-1.4253 -78.2335,-8.1609 -149.2435,-10.3006 -204.2963,-10.1257 -0.1545,5e-4 -0.3077,0.0013 -0.4618,0.0018 -2.1697,6e-4 -3.9271,0.0042 -5.1412,0.0067 -19.2898,0.0415 -35.8125,0.3083 -46.2764,0.5249 -21.363,0.4413 -41.3887,1.2501 -47.0172,1.4876 -1.3755,0.0579 -2.7399,0.123 -4.1119,0.183 -2.4863,0.1068 -4.9863,0.2175 -7.5068,0.3341 -1.162,0.054 -2.3212,0.1103 -3.4811,0.1657 -2.2371,0.1069 -4.4888,0.2175 -6.7552,0.3325 -36.6396,1.8402 -72.4875,4.4003 -109.017,7.7983 -0.1323,0.0118 -0.2607,0.0229 -0.3931,0.0348 -28.1584,2.5228 -57.0428,5.7358 -85.0028,9.2543 -17.4017,2.1727 -31.2085,4.0837 -36.3907,4.8011 -4.184,0.5794 -8.1512,1.1434 -11.7723,1.6651 -32.9314,4.6947 -62.8741,9.5171 -86.558,13.7167 -0.9312,0.1651 -1.8999,0.3398 -2.8396,0.5071 -20.3866,3.5726 -37.7296,6.8472 -52.9122,9.7772 -22.0817,4.2614 -42.2212,8.4473 -59.0106,12.0676 -75.8392,16.2614 -166.3251,38.8544 -267.196,71.3798 -2.3148,0.7449 -4.7384,1.5286 -7.2196,2.3352 -2.1133,0.6882 -4.2267,1.3763 -6.3494,2.0732 -4.3692,1.4338 -8.0125,2.6442 -12.325,4.0772 -0.2164,0.0719 -0.4319,0.1457 -0.6483,0.2179 -1.891,0.6315 -3.791,1.2727 -5.6884,1.9113 -1.6913,0.5713 -3.3825,1.1431 -5.0768,1.7058 -0.0244,0.008 -2.6451,0.8898 -8.246,2.8081 -0.5663,0.1938 -1.1331,0.3882 -1.7003,0.5827 -2.0369,0.6988 -4.3884,1.5072 -7.0992,2.442 -0.0418,0.0144 -4.8348,1.6704 -11.314,3.9442 -5.9402,2.0843 -11.5795,4.0924 -16.783,5.9627 -0.0384,0.0138 -0.076,0.0268 -0.1144,0.0405 -0.0478,0.0171 -0.0939,0.0344 -0.1417,0.0514 -5.4259,1.9511 -10.3486,3.7421 -14.5873,5.2962 -374.9483,137.1583 -548.1487,301.0429 -605.6051,365.7275 -3.8802,4.3416 -9.6338,10.8409 -15.0098,17.1476 -0.227,0.2662 -0.4438,0.53 -0.67,0.7959 -1.5291,1.7975 -3.0953,3.6566 -4.6961,5.5798 -0.2036,0.2443 -0.4033,0.4872 -0.6056,0.7313 -1.5432,1.8592 -3.1163,3.7766 -4.7175,5.7532 -0.2189,0.27 -0.4353,0.539 -0.6529,0.8086 -1.416,1.7538 -2.8512,3.5519 -4.3069,5.3982 -0.3538,0.4485 -0.7046,0.8951 -1.055,1.342 -1.2538,1.6004 -2.5205,3.2343 -3.7999,4.9034 -0.2036,0.2659 -0.4199,0.5381 -0.6222,0.8033 -0.2236,0.2925 -0.4336,0.5788 -0.6555,0.8708 -1.2056,1.5852 -2.4198,3.1972 -3.6446,4.8437 -0.1366,0.1843 -0.2701,0.3659 -0.4063,0.5497 -4.5498,6.1325 -9.219,12.6918 -13.9506,19.6885 -0.1464,0.2121 -0.2906,0.4213 -0.4229,0.612 -3.9553,5.7158 -10.195,15.2256 -15.8458,24.7747 -2.6152,4.4197 -4.8656,8.3604 -6.9268,12.0814 -0.0397,0.0706 -0.0798,0.1391 -0.1195,0.2098 -10.2577,18.1912 -18.0654,35.3337 -24.0461,50.5275 -3.0104,7.5816 -4.9953,13.2533 -6.0259,16.2026 -3.9339,11.259 -7.8824,24.8313 -10.982,37.522 -0.0269,0.1071 -0.0568,0.2239 -0.0832,0.3292 -0.0973,0.3842 -0.1809,0.7786 -0.2765,1.1641 -0.1818,0.7569 -0.3615,1.5102 -0.5369,2.259 -1.1826,4.9552 -2.2392,9.9983 -3.1781,15.1034 -0.2599,1.3856 -0.5027,2.7106 -0.7289,3.9825 -0.0115,0.067 -0.0243,0.1332 -0.0354,0.2003 -0.1229,0.6902 -0.2411,1.3671 -0.3546,2.0294 l 0.1506,-0.9094 -0.1681,1.0085 c -0.8198,4.7842 -1.4228,8.8936 -1.955,13.0218 l -0.0525,0.3829 -0.0644,0.5309 c -0.1839,1.4537 -0.361,2.9163 -0.5373,4.42 -0.1238,1.0582 -0.3649,3.2161 -0.6436,6.1479 l -0.0081,0.0785 -0.0064,0.0739 c -0.1144,1.2083 -0.2347,2.5494 -0.3559,4.0016 -1.2346,13.2206 -1.888,26.1755 -2.1782,38.189 -0.204,7.2122 -0.2296,12.9326 -0.2095,16.6061 0.0064,1.1312 0.0149,2.7053 0.0367,4.6519 l 0.0154,1.9908 0.0209,0.9622 c 0.0043,0.3446 0.0051,0.7106 0.0102,1.0519 0.309,22.1529 1.9682,43.2604 4.1687,62.4093 0.7831,6.9528 1.7587,14.699 3.0283,23.5919 0.3307,2.3184 0.6786,4.6533 1.0362,7.0023 0.6256,4.6581 1.2965,9.5185 1.8718,13.541 0.5027,3.5181 1.2555,8.1967 1.83,11.7039 1.0985,6.7068 2.7142,15.6241 3.9429,22.3081 0.6662,3.6254 1.6614,8.4372 2.3741,12.0566 9e-4,0 0.0017,0.01 0.0026,0.013 l 8.7449,42.8755 c 1.6623,7.9271 2.9323,13.9777 4.618,21.3336 l 0.0098,0.044 0.0179,0.077 c 0.6935,3.022 1.4608,6.2792 2.3528,9.9703 l 0.3026,1.2823 0.2087,0.8243 c 0.3986,1.6362 0.816,3.3384 1.2683,5.1656 0.6969,2.8149 2.2106,8.9249 4.9381,18.8165 1.748,6.4215 3.6676,13.1379 5.7729,20.1376 0.2953,0.9825 0.5898,1.9543 0.8838,2.9163 2.3502,7.7074 4.9407,15.7651 7.8,24.1771 0.2612,0.7747 0.5032,1.4904 0.7101,2.1018 1.5453,4.5669 3.2016,9.2306 4.7589,13.5166 2.0165,5.5718 3.9198,10.7748 5.7686,15.718 -0.01,0 -0.0201,0 -0.0286,0.01 -0.0158,-0.013 -0.0371,-0.03 -0.0529,-0.043 1.8244,4.8781 3.31,8.7321 4.5459,11.8646 l 0.1054,0.2753 0.111,0.2727 c 1.7463,4.4115 2.9728,7.3285 3.9173,9.5726 0.2898,0.6886 0.6043,1.4235 0.9278,2.1746 2.7215,6.4376 5.5462,12.6899 8.6557,19.0795 1.1497,2.3973 3.7679,7.759 7.3959,14.5984 l 0.0209,0.04 0.0615,0.1144 c 2.6839,5.0551 5.9103,10.9022 9.5041,16.958 1.3392,2.2567 2.6814,4.476 4.0261,6.6665 0.1161,0.1951 0.2275,0.3842 0.3448,0.58 12.1394,20.3038 26.4791,39.5702 42.8686,57.7585 0.7387,0.8224 1.4864,1.6477 2.2367,2.4675 1.46,1.5929 2.9315,3.1794 4.4239,4.755 1.451,1.5327 2.9259,3.0719 4.4422,4.6246 1.0968,1.1227 2.2038,2.2395 3.3177,3.3529 2.1868,2.1945 4.426,4.4146 6.7933,6.7075 10.329,10.0045 19.8642,17.9109 23.4534,20.8875 2.975,2.4669 6.7937,5.4875 11.3503,8.9789 0.3252,0.2493 0.7229,0.5508 1.1437,0.868 4.4542,3.4257 9.0346,6.7766 13.6757,10.0913 1.7335,1.2539 3.6471,2.6133 5.7246,4.0603 0.3163,0.2191 0.6286,0.4404 0.9461,0.6593 2.9942,2.0732 6.3375,4.3287 10.0064,6.7295 0.0243,0.016 0.0474,0.032 0.0713,0.048 0.0282,0.018 0.0568,0.036 0.0845,0.054 1.8795,1.2289 3.849,2.4972 5.9034,3.7999 1.2415,0.7899 2.4957,1.5735 3.7496,2.3573 0.175,0.109 0.3495,0.2177 0.5258,0.327 10.2121,6.3669 20.8394,12.5353 31.8777,18.5015 4.2672,2.3409 7.1837,3.8824 11.2491,5.9988 6.0336,3.1401 16.8214,8.5159 27.3698,13.3313 4.4708,2.041 8.7892,3.9636 12.9839,5.7976 0.8283,0.3633 1.6588,0.7253 2.491,1.0865 2.2094,0.9581 4.3837,1.8918 6.5103,2.7937 0.7797,0.3301 1.5624,0.6584 2.3451,0.9868 19.0931,8.0291 34.673,13.7793 45.8057,17.7562 0.09,0.032 9.1191,3.2528 19.8839,6.7728 3.9019,1.2739 7.2401,2.332 8.17,2.6261 4.0884,1.2903 8.1901,2.5374 12.2785,3.8279 0,0 0,0 4e-4,0 7.1565,2.1913 14.1456,4.261 20.7737,6.1522 5.1284,1.4651 10.0704,2.8206 12.7253,3.5488 2.8649,0.7863 5.7426,1.5227 8.6083,2.306 0.0751,0.021 9.537,2.5443 21.9994,5.5526 2.7018,0.6517 5.0892,1.2201 7.1308,1.6981 4.8276,1.1467 9.7043,2.2655 14.6057,3.37 0.2727,0.062 0.5471,0.1252 0.7951,0.183 l 0,2e-4 c 0.0725,0.017 7.3903,1.6962 18.1653,3.9548 0.0273,0.01 0.0542,0.012 0.0819,0.018 0.0512,0.011 0.1033,0.021 0.1545,0.032 1.4284,0.2992 2.9102,0.6073 4.4495,0.9237 1.087,0.2234 2.1927,0.4456 3.2913,0.6681 27.1423,5.5314 55.1996,10.3708 84.1429,14.5026 4.2484,0.6139 8.4794,1.2075 12.6801,1.7782 0.0973,0.013 10.6444,1.4335 19.8071,2.5457 10.652,1.292 19.1008,2.2482 30.1335,3.4103 4.1857,0.4402 14.8954,1.527 25.4677,2.4893 13.1968,1.2009 24.5173,2.0695 25.7643,2.1646 17.9873,1.3715 35.7186,2.4778 52.7026,3.2887 5.6384,0.269 17.3297,0.7981 32.2789,1.3174 3.5529,0.1235 15.3597,0.4985 27.1641,0.7468 27.8388,0.5864 50.3004,0.4567 61.0954,0.3942 7.876,-0.046 15.4929,-0.1265 22.7441,-0.2379 0.1907,0 0.3802,0 0.5714,-0.01 43.7469,-0.6355 99.2095,-2.8455 164.2913,-8.2954 5.4733,-0.4535 11.9349,-1.0052 19.6478,-1.705 20.1515,-1.8287 36.2158,-3.532 42.2635,-4.1733 16.7014,-1.7698 31.5043,-3.5375 36.3685,-4.1183 5.3363,-0.6367 19.5791,-2.3644 36.5479,-4.6433 6.1057,-0.8219 14.0179,-1.9172 18.3628,-2.5306 7.3981,-1.0497 10.178,-1.4594 18.4308,-2.6757 8.1384,-1.2095 27.196,-4.0416 49.125,-7.6689 5.9163,-0.9796 13.2784,-2.1991 24.6458,-4.1761 8.7316,-1.5201 17.3181,-3.0693 18.5349,-3.2913 1.8568,-0.3384 4.3295,-0.8044 6.189,-1.1279 0,-10e-5 0,0 0,0 0.041,-0.01 4.522,-0.8062 18.6027,-3.4807 0.088,-0.017 9.2092,-1.7501 18.6279,-3.5886 3.5148,-0.6858 16.1274,-3.1609 30.8636,-6.2172 2.7715,-0.5748 5.4686,-1.1394 8.0873,-1.6908 0.2416,-0.051 0.4827,-0.1024 0.7242,-0.153 8.9803,-1.8943 16.917,-3.6147 23.033,-4.9563 4.5374,-0.9918 9.0615,-2.0013 13.5835,-3.0126 2.4971,-0.5594 4.9321,-1.1096 7.293,-1.6462 54.9017,-12.4261 108.679,-26.2943 161.7068,-41.7131 2.931,-0.8501 6.588,-1.9161 10.9329,-3.1965 3.7291,-1.1012 7.4581,-2.2046 11.1801,-3.3215 3.0483,-0.9137 6.4906,-1.949 9.2245,-2.7782 6.9064,-2.0938 11.448,-3.4995 11.6379,-3.5583 0.2048,-0.063 0.428,-0.1326 0.6401,-0.1982 0.7827,-0.2419 1.5653,-0.4841 2.3477,-0.7271 16.3993,-5.0819 50.1292,-15.6328 94.4283,-31.1769 21.0233,-7.3767 38.3829,-13.8221 44.8706,-16.2509 2.9139,-1.0906 5.7933,-2.1757 8.6163,-3.2451 72.4005,-27.2037 141.2694,-57.1045 206.0564,-89.4517 4.4524,-2.2202 7.9685,-3.9911 11.2136,-5.6361 2.6694,-1.3545 5.3372,-2.71 7.9929,-4.073 4.3057,-2.2036 8.5911,-4.4474 12.895,-6.6545 2.7742,-1.4226 6.4443,-3.3732 9.2019,-4.8271 11.178,-5.8926 23.3293,-12.4915 36.1172,-19.6134 7.6201,-4.2435 33.1331,-18.6069 63.6746,-37.4568 0.3259,-0.2014 0.6604,-0.399 0.9871,-0.6005 1.0928,-0.6753 2.1709,-1.3544 3.26,-2.0308 0.9814,-0.61 1.9673,-1.2241 2.9575,-1.8428 50.0288,-31.2422 95.3254,-63.5807 135.6167,-96.7963 1.6252,-1.3353 3.2969,-2.7202 4.9451,-4.0952 0.4492,-0.3751 0.8992,-0.7501 1.3472,-1.1254 3.5908,-3.0049 6.877,-5.7915 8.7756,-7.4253 0.9641,-0.8297 2.2402,-1.9469 3.2131,-2.7655 0,-2e-4 0,-4e-4 0,-4e-4 0.017,-0.014 4.1055,-3.5349 9.4861,-8.3094 0,0 0.01,0 0.01,-0.01 2.978,-2.6407 5.9177,-5.2881 8.8333,-7.9391 0.145,-0.1306 0.2903,-0.261 0.4353,-0.3914 5e-4,-2e-4 5e-4,-4e-4 10e-4,-4e-4 0.9255,-0.825 2.1372,-1.9506 3.0508,-2.7889 0.7729,-0.7089 1.4919,-1.3715 2.1863,-2.0122 0.069,-0.064 0.1375,-0.1272 0.2068,-0.1908 3.9104,-3.6108 6.7019,-6.2466 9.6128,-8.9962 1.5439,-1.458 2.5481,-2.4236 5.8752,-5.623 0.875,-0.8412 2.0251,-1.9797 2.9038,-2.8171 0.1072,-0.1022 11.5566,-11.1134 25.0293,-25.5319 3.334,-3.5685 6.7407,-7.3125 10.4158,-11.4465 3.5569,-4.0016 5.1045,-5.7665 8.4832,-9.6788 0.4998,-0.5768 1.0105,-1.1521 1.5078,-1.729 0.3989,-0.4635 0.7861,-0.927 1.1833,-1.3904 0.4045,-0.4695 0.8267,-0.9595 1.2798,-1.4847 1.5991,-1.8556 13.7686,-16.058 26.2437,-32.928 7.2363,-9.741 14.0056,-19.4949 20.3252,-29.2728 0.6511,-0.9993 1.2444,-1.9163 1.7659,-2.7298 0.071,-0.1108 0.1418,-0.2217 0.2122,-0.3326 0.7502,-1.1735 1.3738,-2.1633 1.8589,-2.9429 0.4939,-0.7939 1.0281,-1.6536 1.5955,-2.5707 0.2188,-0.3539 0.4373,-0.7079 0.655,-1.062 0.9438,-1.5342 1.9836,-3.2426 3.1204,-5.1476 0.2937,-0.4907 0.5835,-0.9816 0.8745,-1.4725 0.5151,-0.8716 1.0486,-1.7817 1.6018,-2.7338 21.8306,-37.3677 37.1255,-75.2061 46.2407,-114.1813 0.1692,-0.708 0.3318,-1.3979 0.4875,-2.0688 0.044,-0.1941 0.093,-0.3872 0.137,-0.5812 0.017,-0.0737 0.035,-0.1574 0.053,-0.2323 1.1479,-4.9861 1.9387,-8.8723 2.4521,-11.3969 1.7046,-8.3798 3.1699,-17.7491 4.3555,-27.8476 0.1504,-1.2818 0.6497,-5.7151 1.1323,-11.7375 0.793,-8.777 1.437,-18.6686 1.8223,-29.7202 0.049,-1.2291 0.092,-2.4194 0.1322,-3.5844 z M 43.4187,977.5079 c 0.0077,0.0504 0.0158,0.1008 0.0235,0.1511 0.0879,0.6431 0.1741,1.2725 0.2582,1.8864 -0.009,-0.0536 -0.0184,-0.1104 -0.0273,-0.1638 0,-9e-4 -4e-4,-0.002 -4e-4,-0.003 l -0.254,-1.8711 z m 2330.2119,-796.169 c -0.1729,-6e-4 -0.3484,-0.0157 -0.5198,-0.006 0.1714,-0.01 0.347,0.005 0.5198,0.006 z m 1.3328,0.1069 c -0.1887,-0.0291 -0.3789,-0.0703 -0.5664,-0.0876 0.1875,0.0173 0.3777,0.0584 0.5664,0.0876 z m 5.49,2.3386 c -0.2178,-0.1469 -0.4358,-0.2976 -0.6519,-0.4316 0.2166,0.134 0.4341,0.2847 0.6519,0.4316 z m -1.4016,-0.8622 c -0.2129,-0.1181 -0.4268,-0.2418 -0.6379,-0.3468 0.2111,0.1052 0.425,0.2287 0.6379,0.3468 z m -1.3792,-0.6784 c -0.208,-0.0891 -0.4167,-0.1857 -0.6228,-0.2618 0.2061,0.0762 0.4148,0.1727 0.6228,0.2618 z m -1.3633,-0.4942 c -0.1997,-0.059 -0.4001,-0.1276 -0.5981,-0.174 0.198,0.0463 0.3984,0.1151 0.5981,0.174 z M 166.5565,557.0505 c 16.5274,-18.6388 34.7362,-37.1589 54.591,-55.528 19.8549,-18.369 41.3562,-36.5873 64.4686,-54.6221 23.1124,-18.0349 47.8362,-35.8865 74.1365,-53.5226 26.2948,-17.6349 53.8331,-34.8323 82.5621,-51.5646 28.7282,-16.7323 58.647,-32.9994 89.7019,-48.7736 31.0549,-15.7742 63.2467,-31.0555 96.5208,-45.8164 33.274,-14.7608 67.6313,-29.0011 103.0175,-42.6931 36.6284,-14.1794 73.9641,-27.6121 111.9373,-40.2789 37.9732,-12.6668 76.5844,-24.568 115.7645,-35.6842 39.1801,-11.1162 78.9286,-21.4477 119.1769,-30.9751 40.2483,-9.5275 80.9963,-18.2511 122.1746,-26.1518 41.1782,-7.9006 82.1733,-14.8605 122.9149,-20.8721 40.7417,-6.0114 81.2294,-11.0746 121.3937,-15.1815 40.1637,-4.107 80.0037,-7.2578 119.4492,-9.4449 39.4454,-2.187 78.4967,-3.4102 117.0831,-3.6618 37.2653,-0.2471 73.7076,0.4093 109.2679,1.9633 35.5602,1.554 70.2379,4.0055 103.9742,7.3486 33.7362,3.3432 66.5311,7.5779 98.3243,12.6981 31.7936,5.1203 62.5859,11.1261 92.3184,18.0116 29.7319,6.8854 58.0303,14.5639 84.8535,23.018 26.8225,8.4541 52.1699,17.6838 76,27.6714 23.8298,9.9876 46.1426,20.7331 66.8958,32.219 20.7532,11.4859 39.947,23.7121 57.5398,36.6611 18.2097,13.4092 34.4973,27.4501 48.8435,42.0951 14.3467,14.6451 26.7517,29.8944 37.1965,45.7203 10.4446,15.8259 18.9292,32.2283 25.4338,49.1797 6.5044,16.9514 11.0293,34.4519 13.5559,52.4737 2.5264,18.0219 3.0164,36.2965 1.48,54.7906 -1.5359,18.494 -5.0977,37.2074 -10.6748,56.1066 -5.5769,18.8992 -13.1689,37.9844 -22.7656,57.2219 -9.5967,19.2375 -21.198,38.6274 -34.7935,58.1364 -13.1355,18.8471 -27.9861,37.6065 -44.5164,56.2463 -16.53,18.6398 -34.74,37.1602 -54.595,55.5293 -19.8547,18.3692 -41.3547,36.587 -64.4646,54.622 -23.1094,18.035 -47.8291,35.887 -74.1233,53.5243 -26.2957,17.6325 -53.8357,34.8285 -82.5659,51.5599 -28.7305,16.7314 -58.6514,32.9983 -89.7075,48.7728 -31.0566,15.7744 -63.2484,31.0565 -96.5217,45.8184 -33.2732,14.7618 -67.627,29.0033 -103.0076,42.6967 -36.634,14.178 -73.9739,27.6102 -111.9501,40.2773 -37.9767,12.6669 -76.59,24.5687 -115.771,35.6858 -39.1814,11.1172 -78.9308,21.4496 -119.1791,30.978 -40.2483,9.5282 -80.9963,18.2523 -122.1746,26.1531 -41.1786,7.9008 -82.1737,14.86 -122.9149,20.8706 -40.7412,6.0105 -81.2285,11.0729 -121.3915,15.1787 -40.1625,4.1063 -80.0006,7.2563 -119.4428,9.4432 -39.4425,2.187 -78.4895,3.4105 -117.0699,3.6635 -37.2712,0.2457 -73.7166,-0.4121 -109.2777,-1.9668 -35.5615,-1.5552 -70.2388,-4.0073 -103.9738,-7.3508 -33.735,-3.3435 -66.5277,-7.5779 -98.3192,-12.6974 -31.7915,-5.1193 -62.5826,-11.1237 -92.3146,-18.0065 -29.7379,-6.8867 -58.0402,-14.5659 -84.8658,-23.0203 -26.8257,-8.454 -52.1747,-17.6835 -76.0045,-27.671 -23.8297,-9.9875 -46.1411,-20.7334 -66.8917,-32.2205 -20.7506,-11.4868 -39.9406,-23.7151 -57.5285,-36.6675 -18.2148,-13.4058 -34.5049,-27.4442 -48.8519,-42.0878 C 117.1282,972.2829 104.7238,957.0343 94.2804,941.2087 83.837,925.3833 75.3546,908.9807 68.852,892.0291 62.3489,875.0775 57.8252,857.5768 55.2988,839.5549 c -2.526,-18.0218 -3.0172,-36.2963 -1.483,-54.79 1.5342,-18.4939 5.0939,-37.2072 10.6696,-56.1067 5.5757,-18.8995 13.167,-37.9855 22.7645,-57.2245 9.5975,-19.239 21.2013,-38.6312 34.8015,-58.1436 13.1309,-18.8435 27.9773,-37.601 44.5051,-56.2396 z M 2372.2729,181.4437 c -0.1394,0.0227 -0.2815,0.0292 -0.4207,0.0594 0.1393,-0.0302 0.2813,-0.0367 0.4207,-0.0594 z"
         id="path8055"
         style="fill:url(#SVGID_2_);filter:url(#filter6501)"
         inkscape:connector-curvature="0" /></g></g></svg>