<?xml version="1.0" encoding="UTF-8" standalone="no"?>
<!-- Created with Inkscape (http://www.inkscape.org/) -->

<svg
   xmlns:dc="http://purl.org/dc/elements/1.1/"
   xmlns:cc="http://creativecommons.org/ns#"
   xmlns:rdf="http://www.w3.org/1999/02/22-rdf-syntax-ns#"
   xmlns:svg="http://www.w3.org/2000/svg"
   xmlns="http://www.w3.org/2000/svg"
   xmlns:sodipodi="http://sodipodi.sourceforge.net/DTD/sodipodi-0.dtd"
   xmlns:inkscape="http://www.inkscape.org/namespaces/inkscape"
   id="svg2414"
   sodipodi:docname="ring_01.svg"
   viewBox="0 0 256 161.66008"
   sodipodi:version="0.32"
   inkscape:export-xdpi="36"
   version="1.0"
   inkscape:output_extension="org.inkscape.output.svg.inkscape"
   inkscape:export-ydpi="36"
   inkscape:version="0.92.4 (5da689c313, 2019-01-14)"
   width="256"
   height="161.66008">
  <defs
     id="defs2416">
    <radialGradient
       id="radialGradient2420"
       gradientUnits="userSpaceOnUse"
       cy="619.09998"
       cx="260.42999"
       gradientTransform="matrix(-7.2141e-8,0.70417,-1.2243,-1.2542e-7,1198.8,112.87)"
       r="113.97"
       inkscape:collect="always">
      <stop
         id="stop2416"
         style="stop-color:#f4e86c"
         offset="0" />
      <stop
         id="stop2424"
         style="stop-color:#f4e86c"
         offset=".66028" />
      <stop
         id="stop2422"
         style="stop-color:#d8b436"
         offset=".83673" />
      <stop
         id="stop2418"
         style="stop-color:#bc8000"
         offset="1" />
    </radialGradient>
    <radialGradient
       id="radialGradient2402"
       gradientUnits="userSpaceOnUse"
       cy="509.16"
       cx="248.69"
       gradientTransform="matrix(1.6436,1.3105e-6,-4.4901e-8,0.65897,36.12,-92.319)"
       r="96.875"
       inkscape:collect="always">
      <stop
         id="stop2398"
         style="stop-color:#f0e464"
         offset="0" />
      <stop
         id="stop2400"
         style="stop-color:#d4a41c"
         offset="1" />
    </radialGradient>
    <linearGradient
       id="linearGradient2412"
       y2="324.88"
       gradientUnits="userSpaceOnUse"
       x2="247.37"
       y1="240.21001"
       x1="247.37"
       inkscape:collect="always">
      <stop
         id="stop2408"
         style="stop-color:#fcfc80"
         offset="0" />
      <stop
         id="stop2410"
         style="stop-color:#ecd450"
         offset="1" />
    </linearGradient>
  </defs>
  <sodipodi:namedview
     id="base"
     bordercolor="#666666"
     inkscape:pageshadow="2"
     inkscape:window-y="-8"
     pagecolor="#ffffff"
     inkscape:window-height="1025"
     inkscape:zoom="0.79754447"
     inkscape:window-x="-8"
     showgrid="false"
     borderopacity="1.0"
     inkscape:current-layer="svg2414"
     inkscape:cx="27.566042"
     inkscape:cy="171.59925"
     inkscape:window-width="1920"
     inkscape:pageopacity="0.0"
     inkscape:document-units="px"
     inkscape:window-maximized="1"
     fit-margin-top="0"
     fit-margin-left="0"
     fit-margin-right="0"
     fit-margin-bottom="0" />
  <g
     id="g833"
     transform="matrix(1.1231026,0,0,1.1231026,-371.62342,-261.19927)">
    <path
       inkscape:connector-curvature="0"
       inkscape:export-xdpi="90"
       inkscape:export-ydpi="90"
       d="m 414.95,237.26 c -48.39,7.02 -84.06,30.54 -84.06,58.53 v 20 c 0,33.52 51.06,60.72 113.97,60.72 62.91,0 113.97,-27.2 113.97,-60.72 v -20 c 0,-28.01 -35.72,-51.53 -84.16,-58.53 2.67,0.47 5.31,0.95 7.87,1.53 2.9,0.66 5.73,1.39 8.47,2.19 2.75,0.8 5.43,1.69 8,2.63 2.58,0.93 5.05,1.94 7.44,3 2.39,1.06 4.72,2.16 6.91,3.34 2.19,1.18 4.27,2.4 6.25,3.69 1.97,1.28 3.82,2.61 5.56,4 1.74,1.38 3.38,2.84 4.87,4.31 1.5,1.47 2.84,2.97 4.07,4.53 1.22,1.56 2.3,3.15 3.25,4.78 0.94,1.63 1.76,3.31 2.4,5 0.65,1.69 1.14,3.41 1.47,5.16 0.33,1.75 0.5,3.52 0.5,5.31 0,1.79 -0.17,3.57 -0.5,5.31 -0.33,1.75 -0.82,3.47 -1.47,5.16 -0.64,1.69 -1.46,3.37 -2.4,5 -0.95,1.63 -2.03,3.19 -3.25,4.75 -0.57,0.71 -1.26,1.39 -1.88,2.09 -9.87,17.57 -45.24,30.6 -87.37,30.6 -42.14,0 -77.51,-13.03 -87.38,-30.6 -0.62,-0.7 -1.31,-1.38 -1.87,-2.09 -1.23,-1.56 -2.34,-3.12 -3.28,-4.75 -0.95,-1.63 -1.73,-3.31 -2.38,-5 -0.64,-1.69 -1.14,-3.41 -1.47,-5.16 -0.33,-1.74 -0.5,-3.52 -0.5,-5.31 0,-1.79 0.17,-3.56 0.5,-5.31 0.33,-1.75 0.83,-3.47 1.47,-5.16 0.65,-1.69 1.43,-3.37 2.38,-5 0.94,-1.63 2.05,-3.22 3.28,-4.78 1.22,-1.56 2.57,-3.06 4.06,-4.53 1.49,-1.47 3.13,-2.93 4.87,-4.31 1.75,-1.39 3.59,-2.72 5.57,-4 1.97,-1.29 4.06,-2.51 6.25,-3.69 2.19,-1.18 4.48,-2.28 6.87,-3.34 2.39,-1.06 4.89,-2.07 7.47,-3 2.58,-0.94 5.26,-1.83 8,-2.63 2.75,-0.8 5.57,-1.53 8.47,-2.19 2.54,-0.57 5.14,-1.07 7.78,-1.53 z"
       style="fill:url(#radialGradient2420);fill-rule:evenodd"
       id="path2390" />
    <path
       inkscape:connector-curvature="0"
       inkscape:export-xdpi="90"
       inkscape:export-ydpi="90"
       d="m 414.95,237.26 c -2.64,0.46 -5.24,0.96 -7.78,1.53 -2.9,0.66 -5.72,1.39 -8.47,2.19 -2.74,0.8 -5.42,1.69 -8,2.63 -2.58,0.93 -5.08,1.94 -7.47,3 -2.39,1.06 -4.68,2.16 -6.87,3.34 -2.19,1.18 -4.28,2.4 -6.25,3.69 -1.98,1.28 -3.82,2.61 -5.57,4 -1.74,1.38 -3.38,2.84 -4.87,4.31 -1.49,1.47 -2.84,2.97 -4.06,4.53 -1.23,1.56 -2.34,3.15 -3.28,4.78 -0.95,1.63 -1.73,3.31 -2.38,5 -0.64,1.69 -1.14,3.41 -1.47,5.16 -0.33,1.75 -0.5,3.52 -0.5,5.31 0,1.79 0.17,3.57 0.5,5.31 0.33,1.75 0.83,3.47 1.47,5.16 0.65,1.69 1.43,3.37 2.38,5 0.94,1.63 2.05,3.19 3.28,4.75 0.56,0.71 1.25,1.39 1.87,2.09 -0.6,-1.07 -1.15,-2.14 -1.56,-3.25 7.08,-19.2 44.22,-33.84 88.94,-33.84 44.71,0 81.85,14.64 88.93,33.84 -0.4,1.11 -0.95,2.18 -1.56,3.25 0.62,-0.7 1.31,-1.38 1.88,-2.09 1.22,-1.56 2.3,-3.12 3.25,-4.75 0.94,-1.63 1.76,-3.31 2.4,-5 0.65,-1.69 1.14,-3.41 1.47,-5.16 0.33,-1.74 0.5,-3.52 0.5,-5.31 0,-1.79 -0.17,-3.56 -0.5,-5.31 -0.33,-1.75 -0.82,-3.47 -1.47,-5.16 -0.64,-1.69 -1.46,-3.37 -2.4,-5 -0.95,-1.63 -2.03,-3.22 -3.25,-4.78 -1.23,-1.56 -2.57,-3.06 -4.07,-4.53 -1.49,-1.47 -3.13,-2.93 -4.87,-4.31 -1.74,-1.39 -3.59,-2.72 -5.56,-4 -1.98,-1.29 -4.06,-2.51 -6.25,-3.69 -2.19,-1.18 -4.52,-2.28 -6.91,-3.34 -2.39,-1.06 -4.86,-2.07 -7.44,-3 -2.57,-0.94 -5.25,-1.83 -8,-2.63 -2.74,-0.8 -5.57,-1.53 -8.47,-2.19 -2.56,-0.58 -5.2,-1.06 -7.87,-1.53 -9.52,-1.37 -19.48,-2.19 -29.81,-2.19 -10.37,0 -20.36,0.81 -29.91,2.19 z"
       style="fill:url(#radialGradient2402);fill-rule:evenodd"
       id="path2392" />
    <ellipse
       ry="60.713203"
       rx="113.9704"
       cy="288.65399"
       cx="250.30882"
       inkscape:export-xdpi="90"
       transform="matrix(0.85001,0,0,0.85671,232.09,39.432)"
       inkscape:export-ydpi="90"
       style="fill:none;stroke:url(#linearGradient2412);stroke-width:5"
       id="path2394" />
  </g>
  <metadata
     id="metadata22">
    <rdf:RDF>
      <cc:Work>
        <dc:format>image/svg+xml</dc:format>
        <dc:type
           rdf:resource="http://purl.org/dc/dcmitype/StillImage" />
        <cc:license
           rdf:resource="http://creativecommons.org/publicdomain/zero/1.0/" />
        <dc:publisher>
          <cc:Agent
             rdf:about="http://openclipart.org/">
            <dc:title>Openclipart</dc:title>
          </cc:Agent>
        </dc:publisher>
        <dc:title>Wedding Ring</dc:title>
        <dc:date>2009-01-01T14:49:59</dc:date>
        <dc:description>A simple golden wedding ring</dc:description>
        <dc:source>https://openclipart.org/detail/20950/wedding-ring-by-freedo</dc:source>
        <dc:creator>
          <cc:Agent>
            <dc:title>freedo</dc:title>
          </cc:Agent>
        </dc:creator>
        <dc:subject>
          <rdf:Bag>
            <rdf:li>color</rdf:li>
            <rdf:li>gold</rdf:li>
            <rdf:li>ring</rdf:li>
            <rdf:li>wedding</rdf:li>
          </rdf:Bag>
        </dc:subject>
      </cc:Work>
      <cc:License
         rdf:about="http://creativecommons.org/publicdomain/zero/1.0/">
        <cc:permits
           rdf:resource="http://creativecommons.org/ns#Reproduction" />
        <cc:permits
           rdf:resource="http://creativecommons.org/ns#Distribution" />
        <cc:permits
           rdf:resource="http://creativecommons.org/ns#DerivativeWorks" />
      </cc:License>
    </rdf:RDF>
  </metadata>
</svg>
