<?xml version="1.0" encoding="UTF-8" standalone="no"?>
<svg
   xmlns:dc="http://purl.org/dc/elements/1.1/"
   xmlns:cc="http://creativecommons.org/ns#"
   xmlns:rdf="http://www.w3.org/1999/02/22-rdf-syntax-ns#"
   xmlns:svg="http://www.w3.org/2000/svg"
   xmlns="http://www.w3.org/2000/svg"
   xmlns:sodipodi="http://sodipodi.sourceforge.net/DTD/sodipodi-0.dtd"
   xmlns:inkscape="http://www.inkscape.org/namespaces/inkscape"
   version="1.1"
   id="Layer_1"
   x="0px"
   y="0px"
   viewBox="0 0 243.6338 256"
   enable-background="new 0 0 1477.356 1552.345"
   xml:space="preserve"
   sodipodi:docname="ring_08.svg"
   inkscape:version="0.92.4 (5da689c313, 2019-01-14)"
   width="243.63379"
   height="256"><metadata
   id="metadata143"><rdf:RDF><cc:Work
       rdf:about=""><dc:format>image/svg+xml</dc:format><dc:type
         rdf:resource="http://purl.org/dc/dcmitype/StillImage" /><dc:title></dc:title><cc:license
         rdf:resource="http://creativecommons.org/publicdomain/zero/1.0/" /><dc:source>https://openclipart.org/detail/229223</dc:source></cc:Work><cc:License
       rdf:about="http://creativecommons.org/publicdomain/zero/1.0/"><cc:permits
         rdf:resource="http://creativecommons.org/ns#Reproduction" /><cc:permits
         rdf:resource="http://creativecommons.org/ns#Distribution" /><cc:permits
         rdf:resource="http://creativecommons.org/ns#DerivativeWorks" /></cc:License></rdf:RDF></metadata><defs
   id="defs141" /><sodipodi:namedview
   pagecolor="#ffffff"
   bordercolor="#666666"
   borderopacity="1"
   objecttolerance="10"
   gridtolerance="10"
   guidetolerance="10"
   inkscape:pageopacity="0"
   inkscape:pageshadow="2"
   inkscape:window-width="1920"
   inkscape:window-height="1025"
   id="namedview139"
   showgrid="false"
   inkscape:zoom="1.2162245"
   inkscape:cx="110.83753"
   inkscape:cy="187.55082"
   inkscape:window-x="-8"
   inkscape:window-y="-8"
   inkscape:window-maximized="1"
   inkscape:current-layer="Layer_1"
   fit-margin-top="0"
   fit-margin-left="0"
   fit-margin-right="0"
   fit-margin-bottom="0" />
<g
   id="g136"
   transform="matrix(0.1751114,0,0,0.1751114,-7.5338016,-7.9167642)">
	<linearGradient
   id="SVGID_1_"
   gradientUnits="userSpaceOnUse"
   x1="441.01611"
   y1="1421.4286"
   x2="1150.2936"
   y2="192.9239">
		<stop
   offset="0"
   style="stop-color:#B3892E"
   id="stop2" />
		<stop
   offset="0.0055"
   style="stop-color:#B58D33"
   id="stop4" />
		<stop
   offset="0.0924"
   style="stop-color:#DAC682"
   id="stop6" />
		<stop
   offset="0.1543"
   style="stop-color:#F1E9B4"
   id="stop8" />
		<stop
   offset="0.1847"
   style="stop-color:#FAF7C7"
   id="stop10" />
		<stop
   offset="0.2986"
   style="stop-color:#FAF7C7"
   id="stop12" />
		<stop
   offset="0.3007"
   style="stop-color:#F9F6C5"
   id="stop14" />
		<stop
   offset="0.3364"
   style="stop-color:#F1E3A4"
   id="stop16" />
		<stop
   offset="0.3707"
   style="stop-color:#ECD58D"
   id="stop18" />
		<stop
   offset="0.4028"
   style="stop-color:#E8CD7F"
   id="stop20" />
		<stop
   offset="0.4303"
   style="stop-color:#E7CA7A"
   id="stop22" />
		<stop
   offset="0.4892"
   style="stop-color:#9B6F2A"
   id="stop24" />
		<stop
   offset="0.6051"
   style="stop-color:#9B6F2A"
   id="stop26" />
		<stop
   offset="0.6055"
   style="stop-color:#9C702B"
   id="stop28" />
		<stop
   offset="0.6226"
   style="stop-color:#B98E43"
   id="stop30" />
		<stop
   offset="0.6393"
   style="stop-color:#CEA454"
   id="stop32" />
		<stop
   offset="0.6554"
   style="stop-color:#DBB25E"
   id="stop34" />
		<stop
   offset="0.6699"
   style="stop-color:#DFB662"
   id="stop36" />
		<stop
   offset="0.671"
   style="stop-color:#D8AC5C"
   id="stop38" />
		<stop
   offset="0.6751"
   style="stop-color:#C08A44"
   id="stop40" />
		<stop
   offset="0.6791"
   style="stop-color:#AF7234"
   id="stop42" />
		<stop
   offset="0.6827"
   style="stop-color:#A56329"
   id="stop44" />
		<stop
   offset="0.6857"
   style="stop-color:#A15E26"
   id="stop46" />
		<stop
   offset="0.6961"
   style="stop-color:#A5652E"
   id="stop48" />
		<stop
   offset="0.7121"
   style="stop-color:#B17A43"
   id="stop50" />
		<stop
   offset="0.7317"
   style="stop-color:#C49B66"
   id="stop52" />
		<stop
   offset="0.7539"
   style="stop-color:#DFC897"
   id="stop54" />
		<stop
   offset="0.7741"
   style="stop-color:#FAF7C9"
   id="stop56" />
		<stop
   offset="0.7957"
   style="stop-color:#FAF7C9"
   id="stop58" />
		<stop
   offset="0.8468"
   style="stop-color:#E0B967"
   id="stop60" />
		<stop
   offset="0.8861"
   style="stop-color:#B38D46"
   id="stop62" />
		<stop
   offset="0.9116"
   style="stop-color:#B38D46"
   id="stop64" />
		<stop
   offset="0.9133"
   style="stop-color:#B58E45"
   id="stop66" />
		<stop
   offset="0.9241"
   style="stop-color:#BC943F"
   id="stop68" />
		<stop
   offset="0.9509"
   style="stop-color:#BE953E"
   id="stop70" />
		<stop
   offset="1"
   style="stop-color:#78481D"
   id="stop72" />
	</linearGradient>
	<path
   d="m 1424.052,649.2803 c -2.1174,-22.5819 -5.2889,-44.6845 -9.4612,-66.2578 -4.1721,-21.5732 -9.3452,-42.6172 -15.4656,-63.0818 -6.1206,-20.4645 -13.1887,-40.3497 -21.1511,-59.6054 -31.8496,-77.0228 -78.0085,-143.9745 -135.0718,-197.6516 -57.0631,-53.6771 -125.0304,-94.0795 -200.4965,-118.0039 -18.8666,-5.9811 -38.2018,-10.9323 -57.9525,-14.8036 -19.7507,-3.8713 -39.9169,-6.6626 -60.4452,-8.324 -20.5284,-1.6613 -41.4191,-2.1927 -62.6188,-1.544 -21.1997,0.6486 -42.7085,2.4774 -64.473,5.5362 -21.7639,3.0587 -43.2765,7.2762 -64.4843,12.5875 -21.2078,5.3113 -42.1107,11.7164 -62.6554,19.1502 -20.5448,7.4338 -40.7314,15.8964 -60.5063,25.3226 -19.7749,9.4263 -39.1381,19.8162 -58.0363,31.1047 -75.5929,45.1544 -143.7447,104.6871 -201.0364,174.4357 -57.2917,69.7486 -103.723,149.7131 -135.8753,235.7309 -8.038,21.5044 -15.1837,43.3871 -21.3834,65.5832 -6.1998,22.1961 -11.4536,44.7054 -15.7081,67.463 -4.2546,22.7576 -7.5098,45.7634 -9.7123,68.9525 -2.2025,23.1891 -3.3523,46.5613 -3.3959,70.0517 -0.0436,23.4912 1.0199,46.5531 3.1375,69.1357 2.1175,22.5826 5.2889,44.6858 9.4611,66.2598 4.1722,21.5739 9.3452,42.6183 15.4656,63.0834 6.1205,20.465 13.1885,40.3507 21.1509,59.6068 31.8495,77.0247 78.0081,143.9775 135.0705,197.6554 57.0625,53.6779 125.0287,94.0809 200.4932,118.0057 18.8662,5.9812 38.2009,10.9325 57.9512,14.8038 19.7502,3.8715 39.9158,6.6628 60.4436,8.3243 20.5278,1.6614 41.418,2.1929 62.6171,1.5442 21.1991,-0.6486 42.7072,-2.4772 64.4711,-5.5359 21.7646,-3.0588 43.2778,-7.2764 64.4862,-12.5879 21.2084,-5.3113 42.1119,-11.7166 62.6572,-19.1504 20.5453,-7.4338 40.7323,-15.8965 60.5077,-25.3229 19.7754,-9.4264 39.139,-19.8163 58.0377,-31.1051 75.5945,-45.1547 143.7473,-104.688 201.0398,-174.4374 57.2924,-69.7494 103.7242,-149.7152 135.8767,-235.7346 8.0381,-21.5049 15.1838,-43.3881 21.3835,-65.5847 6.1997,-22.1966 11.4536,-44.7064 15.7081,-67.4646 4.2545,-22.7582 7.5099,-45.7646 9.7123,-68.9543 2.2026,-23.1897 3.3523,-46.5627 3.396,-70.0538 0.044,-23.4904 -1.02,-46.5517 -3.1376,-69.1336 z m -697.0303,777.0149 c 0.3362,0.1691 0.668,0.3281 1.0059,0.5016 -0.338,-0.1735 -0.6698,-0.3326 -1.0059,-0.5016 z m -3.2276,-1.5691 c 0.3982,0.187 0.792,0.365 1.1931,0.5583 -0.4011,-0.1933 -0.7949,-0.3713 -1.1931,-0.5583 z m -3.0512,-1.3841 c 0.4189,0.1831 0.8337,0.3586 1.2566,0.5491 -0.4228,-0.1904 -0.8377,-0.366 -1.2566,-0.5491 z m -2.9497,-1.2421 c 0.427,0.1729 0.8503,0.3391 1.2817,0.5199 -0.4314,-0.1808 -0.8547,-0.3471 -1.2817,-0.5199 z m -2.8536,-1.1076 c 0.4235,0.1572 0.8435,0.3092 1.2719,0.4747 -0.4284,-0.1655 -0.8485,-0.3176 -1.2719,-0.4747 z m -2.7751,-0.9836 c 0.4172,0.1406 0.8315,0.2771 1.2544,0.4263 -0.4226,-0.1491 -0.8373,-0.2858 -1.2544,-0.4263 z m -2.6882,-0.859 c 0.4072,0.1228 0.8123,0.2426 1.2255,0.374 -0.413,-0.1315 -0.8183,-0.2512 -1.2255,-0.374 z m -2.6067,-0.7381 c 0.3969,0.1049 0.7922,0.2079 1.1953,0.3214 -0.4031,-0.1135 -0.7986,-0.2165 -1.1953,-0.3214 z m -2.513,-0.6148 c 0.3843,0.086 0.7678,0.172 1.1591,0.2671 -0.391,-0.095 -0.7748,-0.1808 -1.1591,-0.2671 z m -2.419,-0.4933 c 0.3707,0.068 0.7415,0.1355 1.1195,0.2122 -0.378,-0.077 -0.7489,-0.1449 -1.1195,-0.2122 z m -2.318,-0.3714 c 0.356,0.049 0.713,0.099 1.0767,0.1567 -0.3636,-0.057 -0.7208,-0.108 -1.0767,-0.1567 z m -2.2115,-0.249 c 0.3394,0.03 0.6809,0.062 1.0286,0.1005 -0.3474,-0.039 -0.6892,-0.071 -1.0286,-0.1005 z m -2.1005,-0.1271 c 0.3215,0.01 0.6462,0.024 0.9762,0.044 -0.3299,-0.019 -0.655,-0.034 -0.9762,-0.044 z m -1.9861,-0.01 c 0.3032,-0.01 0.6113,-0.013 0.9236,-0.013 -0.3122,-10e-5 -0.6204,0 -0.9236,0.013 z m -1.864,0.1172 c 0.2834,-0.028 0.5728,-0.05 0.8655,-0.069 -0.2925,0.019 -0.5822,0.041 -0.8655,0.069 z m -185.4485,-0.2866 c -1.34,-0.4299 -2.6803,-0.8586 -4.0161,-1.2998 1.3352,0.4408 2.676,0.8699 4.0161,1.2998 z m 58.7053,15.0149 c 3.9417,0.7534 7.936,1.4363 11.9636,2.061 -4.0276,-0.6247 -8.0218,-1.3076 -11.9636,-2.061 z m 743.0008,-765.7497 c -0.067,3.354 -0.1847,8.4294 -0.3876,15.4409 -0.062,2.1463 -0.2128,6.7898 -0.5199,13.7742 -0.098,2.2175 -0.349,7.5861 -0.7498,13.9866 -0.5688,9.1682 -1.4595,19.0272 -2.551,28.9708 -0.7339,6.418 -1.7749,15.1096 -3.046,24.4391 -2.1626,15.5586 -4.5931,30.0278 -6.7968,40.8841 -1.1581,5.6306 -2.6953,12.9977 -2.8682,13.6893 0,0 0,10e-5 0,10e-5 -0.01,0.052 -2.8843,13.5585 -6.1272,26.6326 -0.7529,3.0359 -1.3911,5.5526 -1.929,7.6415 -1.2703,4.8755 -2.5862,9.7034 -3.9778,14.5862 -0.4727,1.6053 -1.031,3.4956 -1.1908,4.0283 0,10e-5 0,10e-5 0,2e-4 -0.01,0.0255 -2.8019,9.3917 -4.9298,16.2203 -1.2065,3.8708 -2.2231,7.0623 -3.0676,9.6793 -1.3325,4.0931 -2.7345,8.3259 -4.2229,12.7522 -0.6613,1.9422 -1.4392,4.2045 -2.3091,6.6924 -3.7183,10.6343 -6.782,18.5096 -9.4851,25.4579 -0.1335,0.3431 -0.594,1.522 -1.313,3.3274 -10.4573,26.171 -26.0225,61.0098 -47.4653,99.1256 -5.1636,9.1603 -8.9266,15.439 -10.8738,18.6871 -2.0764,3.4634 -4.8831,8.0586 -7.016,11.4874 -2.131,3.4258 -5.0233,7.9615 -7.1965,11.3607 -1.7958,2.8088 -3.6957,5.7068 -5.5231,8.4585 -0.6152,0.9241 -1.2302,1.8479 -1.8521,2.7729 -11.3477,16.8793 -22.5806,32.3586 -33.6003,46.5984 -1.0859,1.4004 -2.177,2.7966 -3.2725,4.1904 -1.4053,1.7917 -2.8064,3.5624 -4.2041,5.314 -2.1582,2.6998 -4.3223,5.3945 -6.5105,8.0615 -0.1055,0.1288 -0.2119,0.2617 -0.3174,0.3903 -2.8035,3.4127 -5.6292,6.797 -8.4729,10.1449 -5.6387,6.6384 -11.4138,13.2133 -17.2832,19.6831 -0.1667,0.1835 -0.3341,0.3689 -0.5007,0.5518 -0.989,1.0884 -1.9835,2.17 -2.9778,3.252 -0.8225,0.8933 -1.6464,1.7903 -2.4644,2.6702 -0.239,0.2576 -0.4788,0.5139 -0.718,0.7711 -21.8945,23.4877 -42.12,42.2416 -59.675,57.7515 -0.3285,0.2902 -0.6665,0.5808 -0.9966,0.8711 -7.2471,6.2639 -17.5445,14.9276 -29.325,24.1366 -3.2095,2.509 -6.2703,4.8636 -9.3232,7.175 -13.6462,10.2528 -28.226,20.4806 -43.6617,30.6145 -0.0143,0.01 -0.0287,0.019 -0.0428,0.028 -3.4014,2.1969 -7.0198,4.4956 -10.8552,6.8926 -3.2793,2.0491 -7.6879,4.723 -11.0049,6.7104 -0.2942,0.1764 -0.5632,0.335 -0.8477,0.5044 -5.5098,3.2544 -10.9115,6.3372 -16.0806,9.2109 -3.0719,1.6963 -6.8108,3.7308 -11.1454,6.0336 -3.8323,2.0355 -7.2592,3.8104 -8.5493,4.4786 -2.743,1.4197 -4.7594,2.4492 -5.7172,2.9365 -0.8579,0.4363 -2.0051,1.0115 -2.8596,1.454 -1.7117,0.8805 -3.9971,2.049 -5.7295,2.8875 -1.6534,0.8002 -3.2869,1.6405 -4.9312,2.4591 -1.5675,0.7573 -2.8086,1.3486 -3.6361,1.7395 -2.0111,0.9443 -6.1847,2.8806 -11.5402,5.2412 -3.5194,1.5511 -6.9176,3.0068 -10.0154,4.3118 -12.9375,5.439 -24.9114,10.0508 -31.3335,12.5237 -1.6675,0.6421 -3.76,1.4204 -6.314,2.3287 -3.4877,1.2296 -6.9639,2.4127 -10.5918,3.6034 -0.5159,0.1689 -1.0376,0.3391 -1.5745,0.5132 -0.149,0.049 -0.2993,0.097 -0.4492,0.1456 -3.335,1.0782 -7.0784,2.2557 -11.2529,3.5297 -3.7062,1.1218 -8.3562,2.501 -11.6729,3.458 -4.9288,1.422 -6.5104,1.8611 -15.2876,4.2975 -1.1641,0.3231 -2.5707,0.7213 -3.9166,1.0892 -15.9467,4.1018 -32.8475,7.47 -63.1415,12.4651 -12.9575,1.5009 -23.1257,2.5795 -31.528,3.3486 -0.0365,0 -0.0731,0.01 -0.1095,0.01 -0.5031,0.046 -0.9858,0.088 -1.4764,0.1322 -4.1749,0.3691 -8.3342,0.6997 -12.2789,0.9556 -1.3279,0.086 -2.5554,0.1615 -3.7019,0.2288 -5.771,0.3195 -10.7728,0.4565 -15.8202,0.5022 -2.5038,5e-4 -5.6774,-5e-4 -8.8495,-0.01 -1.975,0 -3.9496,-0.013 -5.9243,-0.028 -4.1577,-0.031 -9.177,-0.09 -14.561,-0.2307 -0.1892,0 -0.377,-0.01 -0.568,-0.015 -0.566,-0.015 -1.1371,-0.032 -1.7102,-0.049 -0.2601,-0.01 -0.5209,-0.016 -0.7836,-0.024 -0.5726,-0.018 -1.1483,-0.037 -1.7264,-0.057 -0.23,-0.01 -0.4611,-0.016 -0.6925,-0.024 -0.6768,-0.024 -1.3555,-0.05 -2.0374,-0.077 -0.0586,0 -0.1174,0 -0.176,-0.01 -4.889,-0.1986 -9.8834,-0.4784 -14.6604,-0.876 -1.1533,-0.146 -2.6929,-0.3269 -3.8477,-0.4608 -2.8369,-0.329 -5.6754,-0.6417 -8.5123,-0.9708 -0.8531,-0.099 -1.9907,-0.2319 -2.8439,-0.3312 -0.8448,-0.098 -1.9708,-0.2324 -2.8153,-0.3334 -0.9998,-0.1196 -2.4843,-0.2976 -4.2881,-0.5208 -6.0183,-0.7578 -12.2992,-1.5991 -17.5076,-2.408 -4.4476,-0.6907 -7.9388,-1.3145 -9.9943,-1.6978 -0.7799,-0.1542 -1.5999,-0.3223 -2.479,-0.5088 -0.967,-0.2592 -1.4574,-0.3735 -7.8711,-1.8678 -5e-4,-10e-5 -10e-4,-2e-4 -0.002,-4e-4 -0.8136,-0.1893 -1.8984,-0.4414 -2.7119,-0.6311 -5.6448,-1.3162 -10.1189,-2.3807 -13.2983,-3.1641 -12.3594,-3.0442 -19.8395,-5.1704 -28.585,-8.1255 -7.9004,-2.6696 -14.9514,-5.2729 -21.3516,-7.8162 -3.1368,-1.2524 -6.481,-2.635 -9.9802,-4.1528 -3.0483,-1.3224 -7.47,-3.2896 -12.3999,-5.6274 -4.3237,-2.0701 -8.3459,-4.1003 -12.1844,-6.0938 -0.0831,-0.047 -0.1664,-0.094 -0.2493,-0.1409 -21.3304,-12.4246 -72.5922,-43.2065 -125.1018,-110.8047 l -4.1455,-5.4177 c -0.3145,-0.4163 -0.629,-0.8281 -0.9435,-1.2471 -1.8484,-2.4846 -4.107,-5.6083 -5.9211,-8.0951 -0.4987,-0.7037 -1.0417,-1.4739 -1.6511,-2.3417 l -4.5651,-6.5227 c -1.9164,-2.8027 -4.4067,-6.5836 -6.2922,-9.4072 l -5.7087,-8.9377 c -1.82,-2.9182 -4.1786,-6.8512 -5.9668,-9.7891 l -4.8641,-8.37 c -17.5153,-30.808 -29.7745,-59.5031 -38.0837,-81.6941 l -0.2299,-0.6268 c -0.1282,-0.3507 -0.2586,-0.7095 -0.3892,-1.0688 l -0.8615,-2.3857 -1.0276,-2.887 -1.0153,-2.8911 -1.006,-2.9011 -0.9947,-2.9027 -0.0502,-0.1483 c -1.2853,-3.7886 -2.4861,-7.3896 -3.5357,-10.5701 l -0.1919,-0.5818 c -0.0375,-0.1135 -0.075,-0.2277 -0.112,-0.3401 l -0.9353,-2.8574 -0.9368,-2.8809 -0.9269,-2.8666 c -1.8419,-5.8813 -3.5904,-12.0819 -5.1802,-18.0747 l -0.6497,-2.4772 -0.7851,-3.0568 -0.7711,-3.0636 -0.6879,-2.7866 c -0.0585,-0.239 -0.116,-0.4747 -0.173,-0.7085 l -0.5012,-2.0679 c -0.0995,-0.4128 -0.1964,-0.8159 -0.2893,-1.2042 l -0.428,-1.7972 c -0.1044,-0.4404 -0.2036,-0.8597 -0.2952,-1.2488 l -0.5903,-2.52 -0.7126,-3.0898 -0.7021,-3.0891 -0.003,-0.011 c -0.7786,-3.4988 -1.4542,-6.5347 -2.059,-9.2969 -0.0271,-0.1243 -0.0533,-0.2451 -0.08,-0.3679 l -0.5692,-2.627 -0.3969,-1.8496 c -0.5168,-2.4354 -0.9832,-4.7132 -1.4262,-6.9962 l -0.059,-0.3118 -0.4679,-2.558 c -0.1083,-0.6022 -0.2197,-1.2261 -0.3337,-1.8704 l -0.0218,-0.1233 c -0.1472,-0.8325 -0.2972,-1.6916 -0.447,-2.5588 l -0.3937,-2.3068 c -2e-4,0 -5e-4,0 -8e-4,0 l -0.5286,-3.2044 -0.4405,-2.7615 c -0.0421,-0.2668 -0.0856,-0.5438 -0.1305,-0.8301 l -0.2739,-1.7747 c -0.3485,-2.299 -0.7188,-4.7995 -1.1212,-7.5633 l -0.451,-3.2075 c -0.007,-0.0483 -0.0136,-0.099 -0.0203,-0.1475 l -0.4303,-3.1512 -0.3717,-2.7992 c -0.0585,-0.4454 -0.1163,-0.8894 -0.1738,-1.3329 l -0.1621,-1.2546 c -0.269,-2.0931 -0.5273,-4.1528 -0.7708,-6.1345 l -0.0359,-0.2917 c -0.0817,-0.6661 -0.1616,-1.3236 -0.2398,-1.9701 l -0.278,-2.3159 c -0.0181,-0.1519 -0.035,-0.2957 -0.0528,-0.446 l -0.3482,-2.9658 -0.3001,-2.6097 c -0.7503,-6.9756 -1.3783,-13.7528 -1.8637,-20.269 l -2e-4,-0.002 -0.2257,-3.3654 -0.2088,-3.3736 -0.1928,-3.3854 -0.1633,-3.1224 c -0.0123,-0.2482 -0.0248,-0.498 -0.0372,-0.7524 l -0.0878,-1.8342 c -0.137,-2.9307 -0.2757,-6.2272 -0.406,-9.8448 l -0.0208,-0.5775 c -0.0165,-0.4648 -0.0327,-0.9364 -0.0489,-1.4116 l -0.0932,-2.8715 -0.0993,-3.4068 -0.0887,-3.4022 -0.0787,-3.3998 -0.0438,-2.1414 c -0.0146,-0.7315 -0.0283,-1.4334 -0.0408,-2.0976 l -0.0457,-2.5402 -0.0529,-3.3769 c -0.004,-2.5811 0.009,-5.1155 0.0298,-7.6221 l 0.0136,-0.7085 c 0.1061,-5.3455 0.3117,-14.2675 0.6423,-23.0341 l 0.1128,-2.8641 0.1282,-2.973 c 0.0135,-0.3027 0.027,-0.6046 0.0405,-0.9019 l 0.1261,-2.6826 c 0.0167,-0.3426 0.0334,-0.6713 0.0501,-1.0054 l 0.1072,-2.0951 c 0.0234,-0.4453 0.0466,-0.8813 0.0698,-1.3095 l 0.1211,-2.1824 c 0.0236,-0.4136 0.0469,-0.8169 0.07,-1.2115 l 0.1455,-2.4238 c 0.0205,-0.3309 0.0402,-0.6441 0.0601,-0.9579 l 0.1395,-2.1501 c 0.6574,-9.2677 1.4233,-17.5228 2.184,-24.6827 l 0.2255,-1.9786 c 0.2056,-1.7962 0.4275,-3.7094 0.6669,-5.7306 l 0.2009,-1.6855 c 0.0482,-0.4023 0.0972,-0.8091 0.1468,-1.2189 l 0.3322,-2.7214 c 0.008,-0.0686 0.0166,-0.1354 0.0251,-0.2042 l 0.4043,-3.2302 c 0.008,-0.0668 0.0168,-0.1332 0.0253,-0.2003 l 0.4194,-3.2655 c 0.006,-0.048 0.0127,-0.0966 0.0189,-0.1445 l 0.4364,-3.3077 0.4113,-3.0327 c 0.0298,-0.2184 0.062,-0.4513 0.0929,-0.6761 5e-4,-0.004 0.001,-0.008 0.002,-0.0121 l 0.4288,-3.074 0.4658,-3.2435 c 0.0184,-0.1264 0.0364,-0.2488 0.0546,-0.3737 l 0.3597,-2.4324 c 1.17,-7.7905 2.8032,-17.7172 5.1542,-29.7357 l 0.2538,-1.2482 0.626,-3.0427 c 0.0336,-0.1627 0.0665,-0.3217 0.1007,-0.4869 l 0.5831,-2.7997 c 0.0341,-0.1632 0.0676,-0.3231 0.1021,-0.4877 l 0.6686,-3.1678 0.5988,-2.7983 c 0.4604,-2.137 0.89,-4.1005 1.2043,-5.5297 l 0.3684,-1.6716 c 0.4905,-2.2237 1.0103,-4.4405 1.5043,-6.6634 l 2e-4,-10e-4 0.7709,-3.3297 0.784,-3.3271 0.1467,-0.6111 c 1.715,-7.095 3.6223,-14.6097 5.7499,-22.5475 l 0.7919,-2.8664 c 0.0497,-0.1773 0.1019,-0.363 0.1561,-0.5556 0.6096,-2.1097 1.2386,-4.2137 1.8624,-6.3193 0.001,-0.004 0.003,-0.009 0.004,-0.0132 l 0.9623,-3.226 0.976,-3.2434 0.9854,-3.2442 0.9959,-3.2468 0.9985,-3.2216 c 0.004,-0.0139 0.008,-0.027 0.0127,-0.0409 l 0.3777,-1.2052 c 1.4098,-4.4969 3.0305,-9.5681 4.822,-14.9965 l 0.7011,-2.103 c 0.9777,-2.9131 2.4918,-7.3624 3.9114,-11.4153 0.6481,-1.8398 1.3111,-3.7014 1.9886,-5.5809 0.1176,-0.325 0.2324,-0.6435 0.354,-0.978 l 0.2319,-0.6359 c 0.7362,-2.0186 1.543,-4.2006 2.4225,-6.54 1.2514,-3.3047 2.7636,-7.1904 3.988,-10.3749 0.1678,-0.4278 0.3317,-0.8478 0.5031,-1.2823 l 4.4229,-10.9796 c 0.3032,-0.7379 0.6067,-1.4763 0.918,-2.2278 4.0387,-9.614 8.1206,-19.0253 12.5264,-28.6387 1.163,-2.5098 2.3686,-5.0908 3.373,-7.263 0.0226,-0.0479 0.0455,-0.0962 0.0682,-0.1442 l 5.8437,-12.1107 c 1.6982,-3.4465 3.9893,-7.9382 5.7759,-11.4827 0.2505,-0.4873 0.5043,-0.978 0.7575,-1.4681 l 4.3334,-8.2711 c 3.1726,-5.9728 6.5572,-12.1724 10.2013,-18.6664 l 4.3751,-7.7219 c 10e-4,-0.002 0.002,-0.004 0.003,-0.006 7e-4,-0.001 0.001,-0.002 0.002,-0.003 1.9955,-3.4553 4.709,-8.004 6.7498,-11.4703 0.0499,-0.0833 0.0999,-0.1668 0.1495,-0.2495 l 6.9472,-11.3748 c 5e-4,-8e-4 0.001,-0.002 0.002,-0.003 2.3101,-3.648 5.0231,-7.9532 7.7413,-12.1901 l 6.8277,-10.3979 c 0.7401,-1.0879 1.5581,-2.3028 2.4008,-3.5543 1.7482,-2.5702 3.6242,-5.3018 5.149,-7.543 l 7.7217,-10.9599 c 2.3411,-3.2657 5.5248,-7.575 7.8925,-10.8214 5.9224,-7.849 11.955,-15.7533 18.6227,-24.1058 l 5.4659,-6.7672 c 0.1553,-0.1901 0.3079,-0.3782 0.464,-0.5689 0.0399,-0.0486 0.0784,-0.0959 0.1183,-0.1447 0.2433,-0.297 0.4921,-0.598 0.7374,-0.8963 0.3354,-0.4075 0.6777,-0.8206 1.0175,-1.2316 2.2269,-2.6771 4.7665,-5.6866 6.7748,-8.0908 0.011,-0.0131 0.0225,-0.0263 0.0335,-0.0393 l 7.5131,-8.6982 c 7.5278,-8.5847 15.9771,-17.8374 25.7245,-28.0402 0.8634,-0.9 1.698,-1.7704 2.4579,-2.5662 14.9564,-15.3989 30.5266,-30.1509 46.5333,-44.1343 1.1395,-0.9923 2.2813,-1.9855 3.4486,-2.99 0.3953,-0.3412 0.7938,-0.676 1.1898,-1.0163 20.0562,-17.188 44.1082,-36.0359 71.5962,-54.4314 l 6.7675,-4.4714 c 1.6875,-1.1017 3.3868,-2.201 5.0986,-3.2977 2.3282,-1.479 4.7941,-3.03 6.8981,-4.3635 0.3267,-0.2039 0.6528,-0.4078 0.9802,-0.6115 l 9.2646,-5.6495 c 1.3523,-0.8115 2.6975,-1.6256 4.0631,-2.432 0.066,-0.0389 0.1278,-0.075 0.1932,-0.1135 l 2.5394,-1.4858 c 0.0695,-0.0403 0.1364,-0.0792 0.2051,-0.1191 l 2.3842,-1.3766 c 0.2032,-0.1167 0.405,-0.2325 0.6003,-0.3443 l 2.4779,-1.4125 2.8066,-1.5803 2.6554,-1.4775 c 4.792,-2.6502 9.8911,-5.393 15.319,-8.2411 1.3717,-0.7189 2.7438,-1.437 4.1193,-2.1487 0.2771,-0.1437 0.5605,-0.2895 0.8394,-0.4338 0.8181,-0.415 1.8281,-0.9018 2.5872,-1.3355 0.4276,-0.2198 0.8636,-0.4425 1.2952,-0.6636 l 1.5869,-0.8122 1.209,-0.6147 c 2.3403,-1.186 5.3105,-2.6854 7.8826,-3.9779 l 2.3674,-1.1839 c 2.2864,-1.1385 4.6837,-2.2874 7.1102,-3.4203 l 1.2467,-0.5795 c 0.0719,-0.0333 0.1436,-0.0667 0.2156,-0.0999 l 1.3811,-0.6321 c 1.189,-0.5425 2.547,-1.1582 4.0955,-1.8556 0.4009,-0.1791 0.8003,-0.3571 1.1982,-0.5338 l 0.0826,-0.0367 c 7.86,-3.4891 15.0538,-6.4695 18.74,-7.989 0.5934,-0.2432 1.1869,-0.4865 1.8019,-0.7371 l 0.0192,-0.008 c 3.2877,-1.3392 6.8829,-2.7816 10.7965,-4.3239 l 2.7811,-1.0918 c 0.22,-0.086 0.4362,-0.1703 0.6544,-0.2556 l 2.0352,-0.7933 c 0.3752,-0.1459 0.744,-0.289 1.1077,-0.4301 l 1.9073,-0.7388 c 0.2095,-0.081 0.4235,-0.1639 0.6261,-0.2421 l 2.7854,-1.0726 1.3018,-0.4988 c 7.0238,-2.585 12.5651,-4.4135 19.2762,-6.6255 0.3291,-0.1054 0.6703,-0.2142 1.0231,-0.3265 l 0.4982,-0.1584 c 1.7435,-0.5535 3.7543,-1.1839 6.0269,-1.8847 l 1.5936,-0.4898 3.0199,-0.9138 3.0353,-0.905 2.3508,-0.6912 c 0.375,-0.1097 0.7513,-0.2194 1.1278,-0.3291 1.8805,-0.5457 3.7611,-1.0905 5.644,-1.6283 0.004,-0.001 0.007,-0.002 0.0111,-0.003 l 3.047,-0.8642 2.9829,-0.8376 c 0.0521,-0.0146 0.1044,-0.0292 0.1566,-0.0438 l 2.7607,-0.7683 c 0.1494,-0.0414 0.2985,-0.0828 0.446,-0.1237 l 2.8389,-0.7838 3.0801,-0.8445 0.2217,-0.0604 c 2.1704,-0.5818 4.0007,-1.0577 5.3605,-1.392 0.3091,-0.0748 0.625,-0.151 0.9362,-0.226 1.6461,-0.3959 3.3315,-0.7916 5.0642,-1.187 0.0901,-0.0206 0.1802,-0.0413 0.27,-0.0618 5.726,-1.3032 11.9229,-2.6031 18.5562,-3.8953 2.8076,-0.5425 5.7749,-1.0992 9.001,-1.6893 0.002,-3e-4 0.004,-7e-4 0.005,-0.001 l 3.1021,-0.5579 3.1036,-0.5482 2.3756,-0.4126 c 2.9047,-0.5013 5.7753,-0.987 8.2896,-1.408 l 1.8633,-0.311 3.1632,-0.5229 c 2.0375,-0.3275 5.9263,-0.8123 10.4905,-1.3358 l 0.7806,-0.0886 3.0632,-0.3422 3.0774,-0.3373 2.4558,-0.2632 c 0.4193,-0.0444 0.8381,-0.0887 1.2556,-0.1324 1.1023,-0.1141 2.6803,-0.2761 5.2913,-0.5439 0.1854,-0.0186 0.3662,-0.0366 0.5496,-0.055 l 2.7839,-0.2726 3.0439,-0.2864 c 0.027,-0.002 0.0546,-0.005 0.0815,-0.008 l 3.0273,-0.2724 c 5.8804,-0.4899 10.5771,-0.8363 14.2996,-1.0817 l 0.845,-0.0537 c 0.002,-2e-4 0.004,-2e-4 0.007,-4e-4 l 2.5962,-0.1481 c 0.2366,-0.0129 0.4662,-0.0251 0.6941,-0.0372 l 2.5957,-0.1301 2.887,-0.1232 2.8323,-0.0984 c 0.0427,-2e-4 0.0815,-4e-4 0.1147,-4e-4 0.0183,0 0.0364,0 0.0547,0 l 2.3462,0.003 2.4001,-0.002 2.2063,-0.003 c 19.2493,0.007 36.1716,0.1554 51.4186,1.6284 l 1.9219,0.2238 c 2.837,0.329 5.6755,0.6417 8.5125,0.9708 l 2.8086,0.327 c 0.0111,0.001 0.0244,0.003 0.0355,0.004 2.4839,0.2927 4.6392,0.5524 6.5491,0.7875 l 1.1558,0.1431 c 0.4011,0.0499 0.7891,0.0984 1.1687,0.1462 l 2.0906,0.2661 c 0.1477,0.019 0.2959,0.0381 0.4407,0.0568 l 2.1383,0.2805 c 0.2378,0.0316 0.4712,0.0628 0.7017,0.0938 2.7498,0.3705 5.5145,0.7594 8.2018,1.1591 l 2.1649,0.3289 2.5192,0.3993 c 0.0354,0.006 0.0696,0.0114 0.1047,0.0171 l 2.3262,0.3854 c 0.0679,0.0115 0.1318,0.0225 0.199,0.0338 l 2.3066,0.4001 2.3367,0.425 c 0.0435,0.008 1.2473,0.2588 3.3481,0.7181 0.0876,0.0223 0.1707,0.043 0.2554,0.0643 l 0.14,0.0364 0.1971,0.0477 c 0.6306,0.1559 1.1034,0.2667 1.1111,0.2685 0.6329,0.1472 1.2659,0.2944 1.8987,0.4415 l 0.8446,0.1964 0.0424,0.01 c 1.8096,0.4206 3.6193,0.841 5.4287,1.2623 l 2.7219,0.6361 2.6708,0.6283 2.672,0.6343 2.6125,0.6272 2.3197,0.5646 c 0.1835,0.0449 0.3696,0.0906 0.5453,0.1337 l 0.604,0.1493 c 6.1886,1.573 12.9669,3.382 19.8345,5.3686 l 1.8684,0.5822 c 4.0928,1.3326 9.5295,3.1719 13.5979,4.5771 l 7.4454,2.7392 c 1.3586,0.52 2.9321,1.1374 4.5099,1.7615 2.5342,1.0142 5.321,2.1493 7.9357,3.2328 8.5752,3.6525 18.3021,8.1443 28.9177,13.6033 6e-4,3e-4 0,6e-4 0,0.001 5.7501,3.3468 11.7054,6.8577 18.6974,11.3986 0.4578,0.2984 0.9216,0.6015 1.394,0.9119 0.023,0.0151 0.046,0.0303 0.069,0.0455 0.6382,0.4194 1.2856,0.8472 1.9331,1.2776 2.0657,1.3757 4.2266,2.8469 6.4968,4.4279 0.3386,0.2357 0.6826,0.4756 1.0337,0.7206 1.751,1.2275 3.5627,2.5163 5.4542,3.8856 3.7942,2.7968 8.8024,6.595 12.5326,9.4766 0.063,0.0486 7.1207,5.5776 14.1719,11.6729 5.5723,4.8171 9.8464,8.6801 15.2443,13.778 7.0468,6.6556 13.6256,13.4824 13.6821,13.5421 3.8274,4.0341 8.8821,9.4593 12.6207,13.5758 2.1901,2.4115 5.0022,5.7231 7.1393,8.1818 0.051,0.0588 4.9451,5.7012 11.934,14.5681 0.7205,0.917 1.4421,1.8322 2.1577,2.7565 0.086,0.1114 0.1827,0.2365 0.2715,0.351 10.3911,13.4456 20.2789,27.665 29.6372,42.6338 0.6221,0.9949 1.2332,1.9853 1.8419,2.9746 1.1731,1.9133 2.4364,4.001 3.7806,6.2621 3.1724,5.3358 5.8503,10.0509 7.7836,13.5213 0.3074,0.5536 0.618,1.1096 0.921,1.6596 0.071,0.1282 0.1321,0.2401 0.2,0.3633 0.7279,1.3243 1.4391,2.6347 2.1409,3.937 0.02,0.0373 0.041,0.0771 0.043,0.0807 2.3496,4.4586 3.9092,7.4183 5.0769,9.6545 11.1542,21.7371 18.3215,39.2475 21.8098,47.7903 0.8223,2.062 1.5764,3.9923 2.2405,5.7442 1.4471,3.8185 2.5288,6.6738 4.6487,12.6157 0.8799,2.4791 1.7649,5.0093 2.6384,7.5396 0.8604,2.4949 1.8978,5.5336 2.9297,8.6307 2.2849,6.8554 4.34,13.2252 4.7288,14.4326 0.9883,3.0688 0.9883,3.0688 1.7502,5.6838 1.4851,5.0956 2.807,9.9872 3.8831,14.1124 1.3152,5.0716 2.8634,11.291 4.594,18.6815 0.468,2.0065 0.9884,4.2672 1.5388,6.7067 1.3386,5.9339 2.5947,11.7467 3.3339,15.2025 0.7159,3.4735 1.298,6.4751 1.7975,9.1988 0.4353,2.421 0.9617,5.4404 1.5186,8.8427 0.2189,1.351 0.4316,2.689 0.6481,4.0509 2e-4,0.002 6e-4,0.003 9e-4,0.005 0.302,1.9362 0.6648,4.3025 1.0779,7.1243 0.8926,6.1464 1.8286,13.1553 2.6748,19.9557 0.5792,4.7012 1.0991,9.1699 1.4877,12.5906 0.4221,3.8046 0.7748,7.2505 1.025,10.0744 0.058,0.6769 0.1106,1.2993 0.1489,1.7642 0.011,0.1373 0.023,0.2823 0.034,0.4155 6e-4,0.008 0,0.0162 0,0.0244 0.1466,1.8533 0.2816,3.7125 0.4139,5.5722 0.06,0.8511 0.1177,1.6917 0.175,2.5335 0.4263,6.3074 0.7744,12.6269 1.0291,18.8729 0.083,2.0438 0.1877,4.7691 0.2578,6.8134 0.078,2.2712 0.1357,4.543 0.21,6.8143 0.033,1.0202 0.063,2.3809 0.089,3.4013 0.1008,3.9652 0.178,8.2004 0.2297,11.4429 0.025,3.6696 0.021,7.1924 -0.01,10.571 z"
   id="path75"
   inkscape:connector-curvature="0"
   style="fill:url(#SVGID_1_)" />
	<path
   d="m 1379.5533,459.1743 c 8.2135,19.9046 15.4097,40.2797 21.5811,61.0874 6.1714,20.8076 11.3181,42.0479 15.4327,63.6827 4.1146,21.6349 7.1971,43.6644 9.2404,66.0506 2.0432,22.3862 3.0471,45.1292 3.0043,68.1909 -0.043,23.0648 -1.1317,46.1042 -3.2592,69.0782 -2.1275,22.974 -5.2936,45.8829 -9.4907,68.6866 -4.1971,22.8038 -9.4254,45.5024 -15.6774,68.0563 -6.252,22.5539 -13.5276,44.9628 -21.8193,67.1871 -8.0116,21.4616 -16.882,42.5272 -26.5914,63.1617 -9.7094,20.6345 -20.2579,40.8381 -31.6256,60.5754 -11.3677,19.7374 -23.5547,39.0087 -36.5411,57.7788 -12.9864,18.7701 -26.7723,37.0389 -41.338,54.7716 -14.5657,17.7357 -29.7275,34.7118 -45.4563,50.9028 -15.7288,16.1912 -32.0243,31.5972 -48.8572,46.1929 -16.8329,14.5956 -34.2032,28.3809 -52.0814,41.3303 -17.8783,12.9493 -36.2645,25.063 -55.1292,36.3153 -19.5328,11.6532 -39.3671,22.25 -59.4669,31.7782 -20.0998,9.5281 -40.4651,17.9873 -61.0599,25.3655 -20.5949,7.3781 -41.4194,13.6749 -62.4376,18.8781 -21.0182,5.2031 -42.23,9.3125 -63.5996,12.3158 -21.3696,3.0034 -42.5765,4.8555 -63.5853,5.5588 -21.0087,0.7034 -41.8193,0.2579 -62.3961,-1.3339 -20.5768,-1.5918 -40.9199,-4.3298 -60.9937,-8.2119 -20.0738,-3.8821 -39.8784,-8.9081 -59.3781,-15.0757 -18.8327,-5.9542 -37.1842,-12.9047 -55.0247,-20.8341 -17.8405,-7.9296 -35.1701,-16.838 -51.959,-26.7084 -16.7889,-9.8705 -33.0371,-20.7028 -48.7149,-32.48 -15.6778,-11.7772 -30.7853,-24.4991 -45.2926,-38.1489 -14.5074,-13.6467 -28.2326,-28.0492 -41.1559,-43.1779 -12.9233,-15.1287 -25.0447,-30.9836 -36.3443,-47.5354 -11.2996,-16.5516 -21.7775,-33.8002 -31.4137,-51.7158 -9.6362,-17.9158 -18.4309,-36.4987 -26.3641,-55.7194 -8.2163,-19.9042 -15.4146,-40.2791 -21.5876,-61.0867 -6.173,-20.8076 -11.3207,-42.048 -15.4361,-63.6835 -4.1153,-21.6356 -7.1983,-43.6661 -9.2417,-66.0541 -2.0434,-22.3879 -3.0472,-45.1331 -3.0044,-68.1979 0.0428,-23.0618 1.1317,-46.0988 3.2594,-69.0712 2.1276,-22.9724 5.294,-45.8801 9.4919,-68.6832 4.1979,-22.8031 9.4272,-45.5015 15.6807,-68.0554 6.2535,-22.5538 13.5312,-44.9631 21.8258,-67.1878 8.0088,-21.4642 16.8771,-42.5311 26.5849,-63.166 9.7078,-20.6349 20.2553,-40.8379 31.6223,-60.5744 11.367,-19.7365 23.5536,-39.0066 36.5399,-57.7757 12.9863,-18.7691 26.7722,-37.0373 41.3378,-54.7699 14.5656,-17.7326 29.7282,-34.7073 45.458,-50.8981 15.7298,-16.1909 32.0267,-31.5979 48.8611,-46.1953 16.8343,-14.5974 34.2061,-28.3851 52.0854,-41.3373 17.8793,-12.9522 36.2662,-25.0689 55.1309,-36.3243 19.5328,-11.6502 39.3663,-22.2454 59.4651,-31.7728 20.0987,-9.5274 40.4626,-17.9869 61.0561,-25.3655 20.5935,-7.3786 41.4166,-13.6764 62.4337,-18.8804 21.0171,-5.204 42.2283,-9.3141 63.5978,-12.3174 21.3696,-3.0033 42.5772,-4.8548 63.587,-5.5573 21.0098,-0.7025 41.8217,-0.2562 62.4,1.3361 20.5783,1.5923 40.9227,4.3306 60.9976,8.212 20.0748,3.8813 39.8801,8.9057 59.3798,15.0702 18.8328,5.9574 37.1836,12.9109 55.0229,20.8432 17.8395,7.9323 35.1677,16.8432 51.9552,26.7154 16.7875,9.8721 33.0342,20.7054 48.7109,32.4824 15.6769,11.7769 30.7836,24.4975 45.2909,38.1442 14.5074,13.6467 28.2327,28.0484 41.1561,43.1761 12.9235,15.1277 25.0453,30.9815 36.3456,47.5323 11.3003,16.5508 21.7792,33.7988 31.417,51.7148 9.6378,17.916 18.4347,36.5006 26.3707,55.7239 z m -585.169,1029.6353 c 21.7646,-3.0588 43.2778,-7.2765 64.4861,-12.5879 21.2083,-5.3114 42.1119,-11.7166 62.6572,-19.1504 20.5453,-7.434 40.7323,-15.8966 60.5077,-25.3229 19.7753,-9.4264 39.139,-19.8164 58.0377,-31.1051 75.5944,-45.1547 143.7473,-104.688 201.0397,-174.4374 57.2924,-69.7495 103.7244,-149.7152 135.8768,-235.7346 8.0381,-21.5049 15.1837,-43.3881 21.3834,-65.5847 6.1998,-22.1965 11.4536,-44.7064 15.7083,-67.4646 4.2545,-22.7582 7.5098,-45.7646 9.7123,-68.9543 2.2025,-23.1897 3.3523,-46.5627 3.396,-70.0538 0.044,-23.4904 -1.0199,-46.5516 -3.1375,-69.1335 -2.1176,-22.5819 -5.2889,-44.6845 -9.4612,-66.2578 -4.1722,-21.5732 -9.3452,-42.6172 -15.4657,-63.0817 -6.1205,-20.4646 -13.1886,-40.3497 -21.151,-59.6054 -31.8496,-77.0229 -78.0087,-143.9745 -135.0718,-197.6516 -57.0631,-53.6771 -125.0304,-94.0795 -200.4966,-118.0039 -18.8665,-5.9811 -38.2017,-10.9323 -57.9523,-14.8036 -19.7506,-3.8713 -39.9168,-6.6626 -60.4452,-8.324 -20.5284,-1.6614 -41.4191,-2.1927 -62.6188,-1.544 -21.1997,0.6487 -42.7084,2.4774 -64.4731,5.5362 -21.7639,3.0587 -43.2764,7.2763 -64.4842,12.5875 -21.2078,5.3113 -42.1107,11.7164 -62.6555,19.1502 -20.5448,7.4338 -40.7313,15.8964 -60.5062,25.3226 -19.7749,9.4262 -39.1382,19.8162 -58.0364,31.1048 -75.5928,45.1543 -143.7447,104.6871 -201.0364,174.4357 -57.2917,69.7486 -103.723,149.7129 -135.8753,235.7306 -8.0381,21.5045 -15.1837,43.3872 -21.3834,65.5833 -6.1997,22.196 -11.4536,44.7054 -15.7081,67.463 -4.2545,22.7576 -7.5098,45.7634 -9.7123,68.9525 -2.2025,23.1891 -3.3523,46.5613 -3.3959,70.0517 -0.0436,23.4912 1.0199,46.5531 3.1374,69.1357 2.1175,22.5826 5.289,44.6858 9.4612,66.2596 4.1722,21.5739 9.3452,42.6184 15.4657,63.0835 6.1205,20.465 13.1885,40.3506 21.1509,59.6068 31.8494,77.0245 78.0081,143.9774 135.0705,197.6554 57.0624,53.6779 125.0287,94.0809 200.4932,118.0056 18.8661,5.9812 38.2009,10.9326 57.951,14.804 19.7502,3.8713 39.9158,6.6627 60.4437,8.3242 20.5278,1.6615 41.4179,2.1929 62.617,1.5443 21.1991,-0.6486 42.7072,-2.4773 64.4711,-5.536"
   id="path77"
   inkscape:connector-curvature="0"
   style="fill:#d4dc00" />
	<linearGradient
   id="SVGID_2_"
   gradientUnits="userSpaceOnUse"
   x1="369.3089"
   y1="1415.9242"
   x2="1108.0255"
   y2="136.4294">
		<stop
   offset="0.0034"
   style="stop-color:#562E22"
   id="stop79" />
		<stop
   offset="0.0359"
   style="stop-color:#F3D39E"
   id="stop81" />
		<stop
   offset="0.0855"
   style="stop-color:#F2CF98"
   id="stop83" />
		<stop
   offset="0.1531"
   style="stop-color:#5E3726"
   id="stop85" />
		<stop
   offset="0.1631"
   style="stop-color:#663F2C"
   id="stop87" />
		<stop
   offset="0.1787"
   style="stop-color:#7B543C"
   id="stop89" />
		<stop
   offset="0.1977"
   style="stop-color:#9D7857"
   id="stop91" />
		<stop
   offset="0.2193"
   style="stop-color:#CCA87B"
   id="stop93" />
		<stop
   offset="0.2346"
   style="stop-color:#F2CF98"
   id="stop95" />
		<stop
   offset="0.279"
   style="stop-color:#F3D39E"
   id="stop97" />
		<stop
   offset="0.4354"
   style="stop-color:#9F6C43"
   id="stop99" />
		<stop
   offset="0.5"
   style="stop-color:#B6814F"
   id="stop101" />
		<stop
   offset="0.5163"
   style="stop-color:#B27C4A"
   id="stop103" />
		<stop
   offset="0.5361"
   style="stop-color:#A56D3D"
   id="stop105" />
		<stop
   offset="0.5476"
   style="stop-color:#9B6132"
   id="stop107" />
		<stop
   offset="0.5569"
   style="stop-color:#BB8E5D"
   id="stop109" />
		<stop
   offset="0.5664"
   style="stop-color:#D7B581"
   id="stop111" />
		<stop
   offset="0.5752"
   style="stop-color:#EBD29C"
   id="stop113" />
		<stop
   offset="0.5828"
   style="stop-color:#F8E3AC"
   id="stop115" />
		<stop
   offset="0.5884"
   style="stop-color:#FCE9B2"
   id="stop117" />
		<stop
   offset="0.6429"
   style="stop-color:#F2CF98"
   id="stop119" />
		<stop
   offset="0.7721"
   style="stop-color:#F3D39E"
   id="stop121" />
		<stop
   offset="0.9352"
   style="stop-color:#9B6132"
   id="stop123" />
		<stop
   offset="0.9546"
   style="stop-color:#BC8758"
   id="stop125" />
		<stop
   offset="0.9726"
   style="stop-color:#D4A475"
   id="stop127" />
		<stop
   offset="0.9884"
   style="stop-color:#E3B586"
   id="stop129" />
		<stop
   offset="1"
   style="stop-color:#E8BB8C"
   id="stop131" />
	</linearGradient>
	<path
   d="m 1433.5154,748.9215 c 0.2361,-4.4834 0.4075,-9.1422 0.5305,-13.757 0.067,-2.428 0.1169,-4.7173 0.1567,-6.8908 0.01,-0.4653 0.018,-1.185 0.027,-2.0457 0.1455,-9.8156 0.106,-18.6714 0.051,-24.1733 0,-0.8184 -0.014,-1.6141 -0.03,-2.6287 -0.026,-1.9773 -0.048,-3.1289 -0.049,-3.1839 -0.011,-0.4883 -0.024,-0.952 -0.035,-1.432 -0.012,-0.6375 -0.026,-1.3301 -0.041,-2.1 -0.018,-0.9422 -0.1843,-8.7295 -0.8293,-20.0462 -0.023,-0.3985 -0.046,-0.796 -0.069,-1.1917 -0.035,-0.595 -0.072,-1.2016 -0.1094,-1.8143 -0.017,-0.2698 -0.033,-0.5417 -0.05,-0.8105 -0.01,-0.1614 -0.019,-0.3159 -0.03,-0.4785 -0.3076,-4.8571 -0.7197,-10.2608 -0.7234,-10.3076 -0.1406,-1.795 -0.5142,-6.5632 -0.8492,-10.2881 -0.2784,-3.0957 -0.2784,-3.0957 -0.5892,-6.9382 0,-0.0275 -0.2284,-2.8043 -0.6383,-6.9954 -0.4066,-4.1547 -0.8358,-7.9683 -1.2506,-11.3799 -0.3154,-2.6351 -0.6648,-5.342 -1.0645,-8.2328 -0.228,-1.6702 -0.436,-3.1467 -0.614,-4.4089 -0.229,-1.6261 -0.8907,-6.1888 -2.0842,-13.4197 0,-0.0129 -0.1824,-1.0762 -0.4009,-2.3611 -0.053,-0.3254 -0.1055,-0.6434 -0.1599,-0.9742 -0.3999,-2.4234 -1.8328,-10.9103 -4.1101,-22.2949 -0.033,-0.1628 -0.064,-0.3229 -0.097,-0.4841 -0.01,-0.0504 -0.02,-0.1008 -0.03,-0.1513 -1.4034,-7.0179 -2.6002,-12.4448 -3.3048,-15.5861 -0.089,-0.3995 -0.1799,-0.8011 -0.2706,-1.2032 -0.017,-0.0768 -0.037,-0.1665 -0.054,-0.2386 0,-0.014 -0.01,-0.0276 -0.01,-0.0417 -0.3079,-1.3623 -0.6237,-2.7385 -0.947,-4.1266 -0.071,-0.3047 -0.1417,-0.6086 -0.2128,-0.9119 -0.236,-1.0063 -0.4761,-2.0177 -0.7198,-3.0338 -1.2773,-5.3365 -2.5684,-10.4313 -3.847,-15.2621 -0.2051,-0.7785 -0.4103,-1.5471 -0.6156,-2.316 -0.053,-0.1974 -0.106,-0.3965 -0.1589,-0.593 -3.6088,-13.4713 -7.2339,-25.449 -10.6411,-35.8493 -7.5806,-23.4891 -13.5403,-37.3998 -16.5583,-44.3941 -0.3601,-0.9209 -0.7253,-1.8422 -1.0935,-2.7636 -0.016,-0.0403 -0.028,-0.0774 -0.044,-0.1179 -0.022,-0.0527 -0.044,-0.106 -0.066,-0.1587 -2.7297,-6.8202 -5.6895,-13.6733 -8.9476,-20.7285 -2.7875,-6.067 -6.1421,-12.9918 -10.4572,-21.3506 -0.3525,-0.683 -0.6957,-1.3456 -1.028,-1.9854 -0.1205,-0.2316 -0.2318,-0.4495 -0.3538,-0.6832 -7.4371,-14.2548 -11.8425,-22.6973 -17.7991,-32.7473 -2.4606,-4.1743 -4.6382,-7.7133 -6.3314,-10.4042 -0.8557,-1.3602 -2.4238,-3.8503 -4.6802,-7.3342 -0.1902,-0.2964 -0.3755,-0.5862 -0.5693,-0.8878 -0.1144,-0.178 -8.1887,-12.6832 -18.7228,-27.5825 -4.1073,-5.8356 -8.0798,-11.3127 -12.5265,-17.1507 -0.8911,-1.1752 -1.7841,-2.3444 -2.6775,-3.4996 -0.6044,-0.7815 -1.234,-1.5833 -1.8748,-2.3936 -0.089,-0.1129 -0.1702,-0.2197 -0.2592,-0.333 -1.8287,-2.3282 -4.8853,-6.1377 -9.0612,-11.0641 -0.5488,-0.6476 -1.1482,-1.3445 -1.7339,-2.0209 -7.8035,-9.1844 -15.5833,-17.8884 -19.4592,-22.1852 -2.9426,-3.2687 -5.519,-6.06 -7.9556,-8.6465 -3.2542,-3.4698 -6.395,-6.7195 -10.1277,-10.4269 -1.7395,-1.7314 -3.4512,-3.4079 -4.9135,-4.8054 -2.1876,-2.091 -3.9655,-3.756 -5.3638,-5.0502 -2.9418,-2.788 -6.3303,-5.9876 -9.5669,-9.0164 -1.7266,-1.6457 -4.308,-4.0567 -7.3021,-6.7637 -0.082,-0.0748 -0.168,-0.1536 -0.2488,-0.2271 -7.4541,-6.786 -15.3254,-13.2701 -21.9744,-18.5565 -4.427,-3.5271 -8.1357,-6.3791 -12.0437,-9.3688 -3.6135,-2.7677 -6.7173,-5.1448 -9.4503,-7.2311 -0.8722,-0.6996 -1.7559,-1.3984 -2.6558,-2.0895 -0.9874,-0.7583 -2.3079,-1.7645 -3.303,-2.5127 -2.6498,-1.9922 -4.6505,-3.4528 -6.6849,-4.913 -4.6525,-3.4056 -8.411,-5.9843 -13.6576,-9.4328 -1.0482,-0.695 -2.1454,-1.4173 -3.2938,-2.1642 -0.9817,-0.6386 -1.9369,-1.2549 -2.8667,-1.8514 -0.104,-0.0674 -0.2018,-0.131 -0.3069,-0.1992 -0.021,-0.0139 -0.2947,-0.1888 -0.7769,-0.4947 -5.2476,-3.3498 -9.4788,-5.9296 -11.7391,-7.3077 -2.8153,-1.7164 -7.6353,-4.604 -13.7094,-8.1789 -0.5933,-0.3494 -1.1945,-0.7029 -1.8031,-1.0598 -2.6163,-1.5356 -5.4297,-3.1779 -8.403,-4.9016 -7.0521,-4.088 -12.5326,-7.0922 -15.8071,-8.8872 l -12.6614,-6.8877 c -0.012,-0.007 -0.025,-0.0132 -0.037,-0.02 -1.1379,-0.6151 -2.2063,-1.1888 -3.2385,-1.7407 0.2567,0.1354 0.5068,0.2672 0.7681,0.405 -1.8037,-0.9832 -3.7632,-2.0205 -5.8438,-3.0887 -3.3774,-1.7633 -6.23,-3.2025 -8.9521,-4.5394 -1.5391,-0.759 -3.1471,-1.5383 -4.8625,-2.3537 -0.8173,-0.3908 -1.6442,-0.7847 -2.495,-1.189 -2.0956,-0.9958 -4.9246,-2.2817 -7.7762,-3.5444 -0.081,-0.0364 -0.1555,-0.0703 -0.2371,-0.1068 -0.1609,-0.0721 -11.3973,-5.0945 -25.0455,-10.7991 -5.7351,-2.434 -12.0568,-5.0264 -18.7758,-7.5999 -0.2333,-0.0907 -0.4684,-0.1827 -0.7008,-0.2727 -1.5486,-0.5992 -3.387,-1.3102 -6.4888,-2.4118 -1.6094,-0.5858 -3.2317,-1.1683 -4.8733,-1.7429 -4.3198,-1.5121 -7.793,-2.6378 -7.8245,-2.648 -1.9608,-0.6299 -5.1162,-1.6425 -8.2266,-2.5898 -3.7457,-1.2067 -8.0381,-2.5765 -12.9722,-4.1363 -0.2838,-0.0898 -0.5811,-0.1838 -0.9053,-0.2864 -0.3069,-0.097 -0.6416,-0.2017 -0.9885,-0.3094 -0.9966,-0.3117 -1.9773,-0.6144 -2.9382,-0.9064 -0.002,-5e-4 -0.004,-0.0013 -0.006,-0.0018 -2.3716,-0.7325 -4.8578,-1.4534 -7.188,-2.1085 -2.99,-0.8463 -5.7019,-1.577 -8.0752,-2.1981 -0.084,-0.0223 -0.1752,-0.0466 -0.2549,-0.0677 -3.0144,-0.8007 -6.4622,-1.6588 -10.2939,-2.5648 -15.2107,-3.669 -30.8853,-6.8229 -46.7412,-9.4266 -0.4639,-0.078 -0.9282,-0.1554 -1.3914,-0.2321 -0.8474,-0.1373 -1.6936,-0.2772 -2.5419,-0.4114 -10.9948,-1.7752 -21.8195,-3.2247 -33.1903,-4.4376 -3.7017,-0.3949 -7.2966,-0.7369 -10.6443,-1.0316 -11.0322,-1.0134 -22.0051,-1.7527 -32.8201,-2.185 -3.5121,-0.1508 -6.0352,-0.2274 -7.3318,-0.2665 -6.9399,-0.2088 -14.6543,-0.2478 -21.1653,-0.1071 -3.1959,0.0692 -5.8627,0.1588 -7.7563,0.2322 -7.6047,0.2213 -17.0361,0.6024 -27.2817,1.2539 -10.0077,0.5958 -19.3579,1.4018 -28.2971,2.4358 -0.365,0.0408 -0.7305,0.0795 -1.0952,0.1212 -0.3975,0.0455 -0.9684,0.1154 -1.6819,0.2057 -1.7944,0.2192 -3.577,0.4458 -5.342,0.6843 -1.4468,0.1956 -2.7759,0.3833 -3.8861,0.5436 -3.8671,0.529 -8.2614,1.1437 -12.4762,1.7529 -0.2344,0.032 -0.3711,0.0512 -0.377,0.052 -1.0364,0.1456 -2.418,0.3403 -3.4539,0.4896 -1.6003,0.2306 -4.8167,0.7236 -6.873,1.0626 -0.2837,0.0468 -0.5581,0.0928 -0.8372,0.1392 -0.9479,0.1533 -1.8169,0.298 -2.5703,0.4294 -0.2681,0.0468 -0.522,0.0923 -0.7866,0.1389 -5.0538,0.8719 -9.4154,1.7005 -13.843,2.5942 -1.739,0.3488 -3.4282,0.6963 -5.0813,1.045 -0.1659,0.0347 -0.3296,0.0687 -0.4966,0.1036 -1.3457,0.2817 -6.2786,1.3266 -13.2499,2.9458 -0.5818,0.1351 -1.1622,0.2757 -1.7437,0.4124 -0.5122,0.1188 -1.0231,0.2372 -1.5435,0.3582 -3.5035,0.8146 -8.0432,1.8723 -13.4916,3.2335 -0.8943,0.2131 -1.9465,0.463 -2.7711,0.6688 -4.2709,1.0662 -12.2208,3.0509 -23.1024,6.3362 -4.3574,1.3157 -8.7596,2.7077 -13.1202,4.1306 -11.5703,3.7166 -24.5553,8.256 -38.7308,13.7832 -0.835,0.3237 -1.6392,0.6381 -2.4194,0.9449 -0.4413,0.174 -0.8818,0.3474 -1.3254,0.5233 -10.7148,4.2385 -18.9529,7.7665 -24.0338,10.0076 -2.6007,1.1472 -7.4417,3.2823 -12.4755,5.6191 -1.9644,0.9118 -3.8998,1.821 -5.7101,2.6774 -0.0984,0.0464 -0.1979,0.0938 -0.2963,0.1402 -2.0116,0.9524 -3.848,1.8297 -5.3702,2.5605 -0.3312,0.1592 -0.6561,0.3109 -0.9882,0.4711 -0.1001,0.0483 -0.1995,0.0996 -0.2996,0.148 -1.3712,0.6605 -2.3513,1.1362 -2.7666,1.3381 -3.6609,1.7795 -6.5842,3.2429 -9.1636,4.534 -0.916,0.4585 -2.1348,1.0747 -3.0464,1.5417 -0.9126,0.4674 -2.125,1.0992 -3.0417,1.5581 -2e-4,1e-4 -5e-4,2e-4 -7e-4,4e-4 -2.0894,1.0798 -8.4473,4.3657 -15.1995,8.103 -1.9822,1.0972 -6.6241,3.6665 -12.182,6.9319 -1.4812,0.8702 -2.7255,1.6093 -3.7047,2.1943 -3.8403,2.2435 -7.665,4.5266 -11.4753,6.8475 -1.7129,1.0275 -3.8818,2.3525 -5.5414,3.3578 -4e-4,1e-4 -6e-4,4e-4 -9e-4,5e-4 -0.0532,0.0314 -6.3787,3.8468 -17.0618,10.9211 -0.0978,0.0647 -2.4292,1.6085 -5.5919,3.7545 -1.8572,1.2598 -3.702,2.5377 -5.5535,3.8057 -0.0287,0.0197 -0.0568,0.04 -0.0855,0.0597 -6.4204,4.4063 -12.7918,8.9226 -19.111,13.5524 -0.0181,0.0129 -0.0394,0.028 -0.0573,0.0407 -0.8261,0.5903 -1.924,1.3825 -2.7468,1.9774 -3.0858,2.2305 -5.6833,4.179 -8.1953,6.0634 -2.2001,1.65 -6.1385,4.6838 -8.0585,6.1929 -2.9924,2.3514 -5.5767,4.3822 -10.5723,8.4479 -0.5826,0.4741 -3.6978,3.014 -7.8234,6.4657 -2.8691,2.4002 -5.1552,4.3495 -5.1775,4.3685 -0.774,0.6603 -1.7996,1.5483 -2.58,2.2012 -1e-4,0 -2e-4,1e-4 -2e-4,2e-4 -0.0789,0.0667 -0.5591,0.478 -1.2795,1.0974 -1.176,1.007 -2.3478,2.0214 -3.5195,3.0364 -0.9682,0.8383 -1.9736,1.7115 -2.9073,2.5276 -1.5675,1.37 -3.0471,2.6717 -4.493,3.9481 -0.2,0.1776 -0.4029,0.3496 -0.6027,0.5274 -0.2049,0.1823 -0.4032,0.3596 -0.6066,0.5408 -4.3929,3.8906 -8.3433,7.4608 -12.3416,11.1516 -0.4925,0.4537 -0.9835,0.9086 -1.4744,1.3634 -0.1439,0.1335 -0.2866,0.2646 -0.4308,0.3987 -0.8531,0.7917 -1.7056,1.5869 -2.5585,2.3872 -0.0487,0.0456 -0.0958,0.0892 -0.1446,0.1349 -3.157,2.958 -6.938,6.5841 -9.8676,9.4631 -1.4385,1.4136 -3.9399,3.8743 -7.119,7.097 -0.0724,0.073 -0.142,0.1425 -0.2145,0.2158 -0.1317,0.1329 -8.2561,8.3608 -18.0904,18.8185 -0.2692,0.2856 -0.5303,0.5638 -0.7938,0.8444 -0.0387,0.0413 -0.0769,0.0819 -0.1157,0.1233 -0.8596,0.9156 -1.6823,1.7963 -2.4592,2.6315 -5.4286,5.8279 -11.1442,12.1046 -16.1877,17.9376 -0.0737,0.0853 -0.1483,0.1719 -0.222,0.2573 -1.3859,1.5917 -2.8339,3.2686 -4.3257,5.0172 -0.8924,1.0456 -1.6515,1.9417 -2.3661,2.7903 -7.4717,8.7983 -15.3681,18.399 -23.9124,29.4418 -0.1671,0.2156 -0.3345,0.4342 -0.5018,0.6506 -1.2119,1.5695 -2.4351,3.1648 -3.6737,4.7944 -0.1979,0.2606 -0.3955,0.522 -0.5934,0.7834 -8.4479,11.1432 -17.5327,23.7288 -27.4542,38.3285 -0.2329,0.3402 -0.4605,0.6735 -0.6616,0.9703 -0.2391,0.3531 -0.5115,0.7579 -0.7881,1.1685 -0.2438,0.3605 -0.4862,0.7181 -0.731,1.081 -0.1518,0.2233 -0.3002,0.4406 -0.4374,0.6392 -0.7606,1.1287 -1.4705,2.192 -2.1445,3.2068 -0.0642,0.0963 -0.1275,0.1913 -0.2047,0.3074 -0.0602,0.0908 -0.1201,0.181 -0.1796,0.2708 -0.2184,0.3294 -0.4665,0.7047 -0.7645,1.1574 -1.86,2.8218 -3.3249,5.096 -4.337,6.6681 -1.5151,2.3529 -4.0214,6.2938 -7.3569,11.7068 -3.041,4.9344 -5.5076,9.0762 -7.1398,11.817 -2.5771,4.3267 -6.5803,11.2207 -8.7023,14.9451 -0.5137,0.9014 -1.1917,2.1074 -1.7123,3.0049 0,0 -1e-4,0 -1e-4,1e-4 -2.6236,4.6301 -4.4174,7.8603 -5.0668,9.0342 -1.2015,2.1733 -1.2015,2.1733 -3.3174,6.0486 -0.4958,0.9083 -1.1449,2.126 -1.64,3.0348 -0.027,0.0494 -3.0904,5.717 -6.4293,12.23 -2.5393,4.9519 -3.6137,7.1379 -6.2095,12.4193 -0.0751,0.1525 -5.2061,10.6483 -11.8198,25.2977 -0.7108,1.5625 -1.1699,2.5835 -1.397,3.0886 -1.1818,2.6291 -2.1285,4.7554 -2.8138,6.3198 -0.4163,0.9509 -0.9619,2.2229 -1.3876,3.1696 0,1e-4 -10e-5,1e-4 -10e-5,2e-4 -0.0237,0.0539 -2.5526,5.8207 -5.4147,12.7626 -0.004,0.0109 -0.01,0.024 -0.0145,0.035 -0.2477,0.5961 -0.5042,1.2208 -0.7646,1.8586 -0.1902,0.464 -0.3773,0.9218 -0.5389,1.3221 -1.7422,4.313 -1.9661,4.8672 -2.5908,6.4673 -0.3817,0.976 -0.8727,2.2845 -1.2722,3.2534 l -1e-4,10e-5 c -0.0479,0.1132 -2.4405,6.334 -3.7188,9.8456 -0.0648,0.178 -0.1363,0.376 -0.207,0.5717 -0.6625,1.7651 -1.3138,3.5109 -1.9456,5.2131 -0.1276,0.3328 -0.251,0.6561 -0.3614,0.9498 -0.3851,1.0248 -0.8992,2.3911 -1.2817,3.4169 -0.7928,2.1278 -1.1863,3.2173 -2.4901,6.8274 -0.5838,1.6172 -1.5566,4.355 -2.8415,8.1141 -4.2035,12.2441 -9.403,28.5873 -14.7845,48.4216 -0.4814,1.7516 -0.9301,3.4048 -1.3203,4.8685 -1.1342,4.2527 -3.79,14.2119 -6.874,27.5978 -1.8056,7.8354 -3.054,13.8085 -3.0624,13.8509 -0.4168,2.0842 -1.0154,4.8544 -1.4374,6.9375 -0.0021,0.0106 -0.0048,0.0233 -0.0069,0.034 -3.8141,18.4698 -6.493,34.7478 -8.4467,48.9887 -1.1404,8.0815 -1.8053,13.8286 -2.1896,17.152 -0.4286,3.7082 -0.7811,7.3559 -1.0922,10.5742 -0.1393,1.4418 -0.2615,2.8851 -0.3819,4.3284 -0.327,3.5191 -0.6148,6.8388 -0.8756,9.9596 -0.1846,2.1415 -0.3803,4.4936 -0.557,6.7913 -4e-4,0.005 -7e-4,0.009 -10e-4,0.0139 -0.7695,9.4932 -1.2581,18.0101 -1.5714,25.2841 -0.0408,0.9211 -0.0811,1.8527 -0.1196,2.8076 -0.2832,7.012 -0.3741,12.5919 -0.3952,14.135 -0.0425,3.1219 -0.06,5.5229 -0.0655,7.3125 -0.0447,6.8646 -0.0551,12.6318 -0.017,17.8452 0.0135,2.2666 0.0416,4.4197 0.0763,6.4055 0.0015,0.0873 0.0029,0.1747 0.0045,0.2618 0.0046,0.2561 0.0093,0.5073 0.014,0.7571 0.0377,2.015 0.0851,3.9829 0.1434,5.9398 0.0596,2.0338 0.1127,3.475 0.1354,4.0573 0.0813,2.0888 0.1947,4.8737 0.2944,6.9618 0.1101,2.3077 0.2461,4.6136 0.368,6.9206 0.1215,2.2975 0.3031,4.5912 0.4357,6.8881 0.335,5.2884 1.0834,16.0011 2.3465,28.7066 0.4957,5.2758 0.8214,8.179 1.3604,12.7864 0.4357,3.7248 0.9173,7.385 1.3952,10.7955 0.4586,3.3387 1.2867,9.0425 2.5494,16.631 0.1684,1.0237 0.5212,3.1358 1.0396,6.0963 0.0031,0.0178 0.0062,0.0356 0.0093,0.0535 0.0608,0.3469 0.1235,0.7032 0.1888,1.0729 0.4996,2.836 1.048,5.8582 1.6476,9.0513 0.035,0.187 0.0715,0.3799 0.1071,0.5693 0.0606,0.3216 0.1208,0.642 0.1825,0.9669 0.4977,2.6332 1.0439,5.4644 1.6416,8.4728 0.586,2.9492 1.3777,6.7979 2.3701,11.3401 1.4991,6.9138 3.1533,13.9481 4.9449,21.0442 0.3474,1.3809 0.7059,2.7864 1.0742,4.2114 0.0768,0.2963 0.1534,0.5923 0.2307,0.8887 0.9738,3.7469 2.0186,7.6321 3.1345,11.6168 0.0943,0.338 0.19,0.6759 0.2849,1.0139 0.2479,0.8795 0.4981,1.762 0.7529,2.6501 0.0165,0.057 0.033,0.1135 0.0494,0.1709 1.5849,5.5613 3.2393,11.1182 4.9594,16.6455 3.9142,12.6538 7.848,24.2261 11.7555,34.5691 0.0191,0.052 0.0377,0.1039 0.0568,0.1553 0.0674,0.1816 0.2052,0.5421 0.3986,1.0425 0.2758,0.7236 0.5516,1.4476 0.827,2.1589 1.379,3.5609 2.6309,6.6489 3.5625,8.9041 1.8124,4.4888 3.9911,9.7986 6.2872,15.219 0.8642,2.0764 1.4446,3.4302 1.6379,3.8788 0.7983,1.8512 2.413,5.5948 4.6817,10.5397 0.0108,0.024 0.0216,0.047 0.0324,0.071 0.1291,0.2813 0.2634,0.5718 0.3966,0.8606 0.11,0.2386 0.2209,0.481 0.3304,0.7168 3.0557,6.5842 5.4417,11.4875 8.7335,17.8997 0.9459,1.8547 1.8383,3.582 2.7498,5.3395 0.7148,1.3781 2.6854,5.1361 4.3278,8.205 0.7954,1.507 1.6442,3.1127 2.5428,4.8115 0.2015,0.3948 0.4,0.7832 0.5764,1.1223 0.4406,0.8469 1.0359,1.9719 1.4819,2.8162 0.4863,0.9203 1.1476,2.1405 1.6434,3.0557 2.6506,5.0067 6.0289,10.8599 9.9174,17.2317 0.8195,1.3531 1.4753,2.4215 1.904,3.1198 3.0541,4.974 6.7401,10.7036 10.981,17.0808 3.0891,4.6642 6.3073,9.412 9.5906,14.1508 7.4471,10.8029 12.1597,17.2183 16.1282,22.5085 1.5524,2.0696 3.0532,4.0275 4.4548,5.8282 2.5568,3.3334 5.9614,7.5785 8.6281,10.7181 4.1569,4.9609 6.7126,7.8212 7.1827,8.3442 0.1929,0.2146 0.4042,0.4475 0.6232,0.6885 1.4427,1.666 2.9698,3.4272 4.4792,5.1648 0.2068,0.2406 0.3411,0.3961 0.3572,0.4148 0.6451,0.7455 1.5045,1.7402 2.1515,2.4841 2.2035,2.5337 3.584,4.1035 5.3192,6.0594 0.4813,0.5446 0.9192,1.038 1.291,1.4532 4.2098,4.7335 7.9579,8.7816 11.0695,12.0659 1.9562,2.0688 3.7512,3.9275 5.4495,5.656 0.2197,0.2241 0.4265,0.4346 0.6302,0.6416 0.0358,0.036 0.0726,0.074 0.1083,0.11 0.9378,0.9521 1.7097,1.7279 2.2756,2.296 1.9497,1.9575 4.7036,4.6345 5.5721,5.4612 0.5316,0.5166 1.1047,1.0581 1.6933,1.6086 1.9713,1.8673 4.7487,4.4747 7.0217,6.4954 0.8965,0.7969 2.1154,1.834 2.9884,2.6567 0.055,0.052 0.1136,0.1348 0.1623,0.1925 0.5602,0.6647 1.0893,1.2924 4.7499,4.7062 0.2833,0.2654 0.5864,0.5475 0.8966,0.8354 1.2097,1.1262 2.6846,2.4905 4.4359,4.0775 0.1796,0.1642 0.3591,0.3281 0.5289,0.4833 3.4244,3.1292 8.1107,7.1692 11.6693,10.1448 1.0326,0.8635 2.0959,1.7437 3.1818,2.6353 3.4604,2.8539 7.355,5.9878 11.7199,9.3989 6.5334,5.1393 13.062,10.1377 18.4091,14.1816 0.5471,0.4282 0.9584,0.7449 1.1541,0.8945 1.6776,1.2825 4.2128,3.2207 6.8486,5.1479 1.0292,0.7527 2.0449,1.4907 3.068,2.2283 0.076,0.056 0.1617,0.1184 0.2306,0.1687 4.6366,3.3851 9.8417,6.9312 15.2872,10.4885 0.461,0.3033 0.9274,0.6099 1.4083,0.9246 4.9781,3.2589 10.9775,7.0088 17.8852,11.1815 5.7682,3.4974 11.3999,6.8221 16.5493,9.8116 10.9083,6.3695 16.8284,9.6163 21.0295,11.9192 l 12.6613,6.8877 c 0.6399,0.3459 1.2628,0.6815 1.8747,1.0105 0.2338,0.1272 0.4618,0.252 0.6987,0.3806 0.2102,0.1107 0.4352,0.2291 0.6486,0.3416 4.2015,2.2476 7.8192,4.1277 11.4835,5.9618 3.374,1.7083 6.7864,3.3844 10.0233,4.8644 4.3512,2.0574 9.9026,4.5093 13.8795,6.1897 5.0244,2.1963 9.9453,4.3092 14.2314,6.1328 4.7188,2.041 9.1399,3.9016 13.3811,5.6301 0.2405,0.1 0.3855,0.1597 0.3999,0.1655 9.9202,4.0298 17.6636,6.9172 26.7672,9.9812 0.1049,0.035 0.2108,0.071 0.3163,0.106 6.9817,2.345 14.7888,4.8046 24.9883,7.9629 1.2153,0.3855 2.772,0.8656 3.9604,1.2249 4.0366,1.2466 8.7778,2.5867 13.7991,3.9147 0.5017,0.1332 0.9852,0.2609 1.4381,0.3793 0.0529,0.014 0.1056,0.028 0.1586,0.041 1.5568,0.4067 2.8149,0.7262 3.7084,0.9529 0.3119,0.079 0.6227,0.1563 0.9342,0.2345 0.0605,0.015 0.121,0.031 0.1816,0.046 0.6902,0.1731 1.3777,0.3435 2.0629,0.5116 0.1808,0.045 0.3612,0.089 0.5421,0.1333 0.1993,0.049 0.3972,0.097 0.5959,0.1448 4.6405,1.1312 9.3013,2.2015 13.6906,3.1334 0.1073,0.023 0.2113,0.044 0.3185,0.067 2.8323,0.6121 5.1195,1.0879 6.5426,1.3838 13.6561,2.839 23.9266,4.6104 27.3016,5.1926 1.2561,0.2166 4.0813,0.6941 7.9766,1.3005 10.5281,1.6641 20.7307,2.989 31.3925,4.0786 4.3605,0.4531 7.6115,0.7451 9.1957,0.8873 6.6497,0.5966 18.5085,1.4735 26.8441,1.9084 1.0358,0.054 2.0336,0.1041 3.0079,0.1512 0.1233,0.01 0.2432,0.014 0.3667,0.021 4.5636,0.2478 12.2299,0.5624 21.7504,0.5798 3.2159,0.014 6.7377,-0.02 10.5199,-0.1031 0.0444,-10e-4 0.0895,0 0.134,0 0.8501,-0.019 1.6941,-0.037 2.5693,-0.06 1.0024,-0.027 2.2146,-0.07 3.3669,-0.1139 0.0977,0 0.1926,-0.01 0.2905,-0.01 17.9836,-0.665 29.6829,-1.2671 40.5273,-2.1691 8.312,-0.6841 14.2334,-1.379 16.6609,-1.6642 5.6877,-0.6682 11.5662,-1.5095 14.1298,-1.9121 0.3026,-0.048 0.6361,-0.1016 0.9796,-0.1575 l 5.9111,-0.8098 c 0.9574,-0.1223 1.9067,-0.2466 2.7274,-0.3572 4.4817,-0.603 11.8196,-1.7026 21.5299,-3.5249 0.821,-0.1514 1.6179,-0.3008 2.3822,-0.4467 3.0731,-0.5868 6.2838,-1.2395 9.5277,-1.9253 3.4891,-0.7324 7.1815,-1.5408 11.0691,-2.4313 7.8254,-1.7766 15.1498,-3.5476 20.4714,-4.8628 0.6167,-0.1479 1.2408,-0.2986 1.7695,-0.4283 1.9099,-0.4688 3.8359,-0.9601 5.7626,-1.4615 0.5623,-0.1438 0.8871,-0.2278 0.9113,-0.2344 0.2399,-0.065 0.4763,-0.1313 0.7156,-0.1963 0.8652,-0.2289 1.7327,-0.4531 2.594,-0.6866 11.6986,-3.1713 21.0591,-6.1998 26.0878,-7.8268 2.0227,-0.6545 4.2865,-1.4058 6.6884,-2.2175 29.6326,-9.8938 52.1833,-19.6189 59.9871,-23.1021 0.0332,-0.015 0.0654,-0.029 0.0986,-0.044 0.9839,-0.4313 1.9958,-0.8777 3.0269,-1.3359 0.8788,-0.3905 3.9258,-1.7472 6.2383,-2.8097 0.9333,-0.4286 2.1799,-0.9956 3.1111,-1.4287 0.9323,-0.4337 2.1772,-1.0072 3.1074,-1.4454 0.9304,-0.4382 2.1687,-1.0271 3.1012,-1.4609 10e-5,0 4e-4,-10e-5 6e-4,-2e-4 0.7294,-0.3358 2.4333,-1.1493 4.5483,-2.1692 12.2704,-5.8521 23.4353,-11.5576 34.6057,-17.71 0.5344,-0.2941 1.033,-0.5695 1.4812,-0.8181 9.7154,-5.3853 19.4793,-11.1323 30.0191,-17.6304 0.6765,-0.4111 1.3381,-0.814 1.9254,-1.1736 1.9567,-1.1982 4.8563,-3 8.5109,-5.3419 0.027,-0.017 0.053,-0.033 0.08,-0.05 17.4784,-11.0435 41.3925,-28.5465 41.6165,-28.7123 7.246,-5.2283 14.0709,-10.5317 18.3654,-13.9185 5.917,-4.644 12.6785,-10.1311 20.4309,-16.7402 1.2052,-1.0225 2.4045,-2.0515 3.6082,-3.0757 0.03,-0.025 1.7646,-1.5056 4.4155,-3.8008 8.2781,-7.1356 17.4905,-15.2526 28.1985,-25.4417 2.3596,-2.2366 5.0273,-4.7939 7.6094,-7.3317 2.6016,-2.5573 4.7963,-4.7408 6.5437,-6.5106 7.2646,-7.2974 15.1661,-15.5259 23.8157,-24.9072 0.8623,-0.9305 1.7952,-1.9419 3.1088,-3.376 0.6971,-0.7617 1.6265,-1.7776 2.3185,-2.5441 0.4421,-0.4896 0.9736,-1.0822 1.4836,-1.6473 0.27,-0.2983 0.5337,-0.5872 0.8052,-0.8877 0.01,-0.01 0.014,-0.016 0.021,-0.023 v -10e-5 c 0.085,-0.092 8.5486,-9.3949 18.4353,-21.4176 2.3844,-2.8718 4.811,-5.8286 7.2572,-8.8418 0.4694,-0.5671 0.9459,-1.1445 1.4634,-1.7756 0.6686,-0.8149 1.5558,-1.9048 2.2191,-2.724 2.3335,-2.8811 4.3585,-5.4457 4.3762,-5.4681 0.6476,-0.8232 1.4995,-1.9302 2.1587,-2.7443 v -10e-5 c 1.4482,-1.8429 2.9878,-3.8341 4.605,-5.9534 7.928,-10.2365 19.3843,-26.3373 28.0764,-38.9705 0.01,-0.01 0.016,-0.023 0.023,-0.033 0.4258,-0.6152 1.0626,-1.5443 1.7207,-2.5089 0.084,-0.1232 0.1737,-0.2531 0.2573,-0.3754 0.094,-0.1375 0.1881,-0.2783 0.282,-0.416 0.5004,-0.7351 0.9783,-1.4399 1.3635,-2.011 1.603,-2.376 3.2095,-4.7994 4.8145,-7.2579 2.8932,-4.4186 5.2202,-8.077 6.8362,-10.6561 3.7136,-5.9263 6.839,-11.0496 10.7878,-17.6838 0.6611,-1.1106 4.188,-7.0508 8.7029,-14.9458 1.1952,-2.0894 1.1952,-2.0894 3.4133,-6.0126 0.5098,-0.9016 1.1826,-2.1078 1.6892,-3.0114 1.0123,-1.8054 2.3296,-4.2311 3.342,-6.0366 v -2e-4 c 0.011,-0.019 1.6355,-2.9828 3.4805,-6.4143 3.1498,-5.8477 5.8086,-10.9519 7.8159,-14.9629 0.1448,-0.2891 0.2932,-0.5903 0.4387,-0.8821 0.3722,-0.7393 0.7433,-1.4791 1.1211,-2.2156 0.4757,-0.9272 1.0859,-2.1757 1.5454,-3.1111 1.2158,-2.4741 2.4731,-5.0325 4.5488,-9.4229 0.6656,-1.4075 1.3152,-2.8225 1.9678,-4.236 1.0212,-2.1693 2.0403,-4.3534 3.0542,-6.5438 0.3005,-0.6459 0.6084,-1.3085 0.8666,-1.8649 4.22,-9.0953 7.4528,-16.4994 8.515,-18.9324 0.02,-0.046 2.1604,-4.9647 4.0833,-9.5573 0.4019,-0.9606 1.0037,-2.217 1.333,-3.2049 0.01,-0.016 0.012,-0.034 0.018,-0.05 0.7231,-1.7595 1.4741,-3.6143 2.2498,-5.5572 0.123,-0.2877 0.2427,-0.5685 0.3545,-0.8356 1.0371,-1.8188 1.8036,-4.5405 2.5607,-6.4926 0.3796,-0.9789 0.8853,-2.2844 1.2565,-3.2665 0.3721,-0.9845 0.8599,-2.3005 1.2404,-3.2817 0,-10e-5 10e-5,-3e-4 10e-5,-4e-4 0.3052,-0.7939 0.676,-1.7988 0.9985,-2.6807 0.9348,-2.4803 1.8735,-4.9992 2.8087,-7.5342 0.3798,-1.0005 0.8534,-2.2641 1.2118,-3.2336 1.1079,-2.9963 3.3052,-8.9424 6.1033,-17.21 1.9805,-5.736 9.2839,-27.453 17.0144,-57.4307 0.041,-0.1568 0.08,-0.3071 0.124,-0.476 0.012,-0.0443 1.2407,-4.779 2.6006,-10.3459 1.4081,-5.7598 2.4502,-10.3214 2.4602,-10.3658 0.5511,-2.4178 1.5769,-6.9182 2.3198,-10.3853 0.087,-0.407 0.1846,-0.8715 0.2837,-1.3436 0.1196,-0.5557 0.2391,-1.1106 0.358,-1.6691 0.034,-0.1523 0.068,-0.312 0.1002,-0.453 10e-5,-1e-4 10e-5,-2e-4 10e-5,-2e-4 0.234,-1.0369 0.5126,-2.4266 0.7264,-3.4678 0.1001,-0.4877 0.1951,-0.9508 0.2866,-1.3989 0.1072,-0.5215 0.2135,-1.045 0.3198,-1.5686 0.8601,-4.2291 1.2764,-6.3819 1.4257,-7.1669 2.691,-13.8197 5.0935,-27.5721 7.1656,-42.5402 0.3003,-2.1274 0.5952,-4.2965 0.8729,-6.4583 0.4823,-3.7543 1.0289,-8.0096 1.6676,-14.0321 0.1208,-1.1359 0.229,-2.1847 0.3248,-3.1345 1.0563,-10.0943 1.9811,-20.8852 2.7638,-32.6696 0.352,-5.085 0.6226,-9.7008 0.8318,-13.9306 z m -49.3406,-296.7861 c 0.01,-0.1326 0.012,-0.2666 0.014,-0.4012 0,0.1346 -0.01,0.2685 -0.014,0.4012 z m -2.751,5.6545 c -0.09,0.0822 -0.1744,0.1669 -0.2693,0.2473 0.095,-0.0804 0.179,-0.165 0.2693,-0.2473 z m -0.7746,0.6409 c -0.085,0.064 -0.1633,0.1309 -0.2515,0.1935 0.088,-0.0625 0.1663,-0.1295 0.2515,-0.1935 z m 3.5359,-7.1662 c 0,-0.1369 -0.012,-0.2747 -0.022,-0.4135 0.01,0.1388 0.017,0.2766 0.022,0.4135 z m -0.069,-0.8959 c -0.017,-0.1409 -0.035,-0.2826 -0.058,-0.4252 0.022,0.1427 0.041,0.2842 0.058,0.4252 z m -0.147,-0.9217 c -0.029,-0.1439 -0.058,-0.2881 -0.092,-0.4337 0.034,0.1456 0.064,0.2898 0.092,0.4337 z m -0.2246,-0.9454 c -0.04,-0.1465 -0.081,-0.2931 -0.1265,-0.4412 0.046,0.1482 0.086,0.2947 0.1265,0.4412 z m -0.3015,-0.9677 c -0.052,-0.1489 -0.1028,-0.2978 -0.1597,-0.4482 0.057,0.1505 0.1079,0.2992 0.1597,0.4482 z m 0.6916,5.0561 c -0.014,0.1309 -0.03,0.2612 -0.05,0.39 0.02,-0.1289 0.036,-0.2592 0.05,-0.39 z m -0.1343,0.83 c -0.027,0.1259 -0.054,0.2517 -0.087,0.3755 0.033,-0.1238 0.06,-0.2497 0.087,-0.3755 z m -0.2155,0.8019 c -0.039,0.1207 -0.078,0.2418 -0.1229,0.3604 0.045,-0.1186 0.083,-0.2396 0.1229,-0.3604 z m -0.2984,0.773 c -0.051,0.115 -0.1013,0.2307 -0.1586,0.3435 0.057,-0.1128 0.1071,-0.2285 0.1586,-0.3435 z m -0.383,0.7443 c -0.063,0.1083 -0.1234,0.2175 -0.1921,0.3237 0.069,-0.1061 0.1291,-0.2155 0.1921,-0.3237 z m -0.4688,0.7133 c -0.074,0.1011 -0.1447,0.2037 -0.2244,0.3027 0.08,-0.0989 0.1502,-0.2016 0.2244,-0.3027 z m -0.5576,0.6826 c -0.084,0.0929 -0.1631,0.1879 -0.2522,0.2787 0.089,-0.0908 0.1682,-0.1857 0.2522,-0.2787 z m -30.1035,597.2209 c -9.7095,20.6345 -20.2579,40.838 -31.6257,60.5754 -11.3677,19.7373 -23.5547,39.0087 -36.541,57.7788 -12.9866,18.77 -26.7725,37.0388 -41.3381,54.7715 -14.5657,17.7357 -29.7275,34.7118 -45.4563,50.9028 -15.7286,16.1912 -32.0242,31.5972 -48.8572,46.1929 -16.8329,14.5957 -34.2031,28.3809 -52.0814,41.3303 -17.8783,12.9494 -36.2644,25.063 -55.1292,36.3153 -19.5329,11.6532 -39.3671,22.2501 -59.4669,31.7782 -20.0998,9.5281 -40.4651,17.9873 -61.0599,25.3655 -20.595,7.3781 -41.4194,13.6749 -62.4375,18.8781 -21.0183,5.2031 -42.2301,9.3126 -63.5996,12.3159 -21.3696,3.0033 -42.5765,4.8553 -63.5853,5.5587 -21.0087,0.7034 -41.8192,0.2581 -62.3961,-1.3337 -20.5769,-1.5918 -40.9199,-4.33 -60.9937,-8.212 -20.0739,-3.882 -39.8784,-8.9081 -59.3782,-15.0756 -18.8328,-5.9543 -37.1841,-12.9048 -55.0247,-20.8342 -17.8406,-7.9294 -35.1702,-16.8379 -51.959,-26.7084 -16.7888,-9.8705 -33.0371,-20.7028 -48.715,-32.48 -15.6778,-11.7772 -30.7852,-24.4991 -45.2926,-38.1488 -14.5073,-13.6467 -28.2326,-28.0493 -41.1559,-43.178 -12.9233,-15.1287 -25.0447,-30.9836 -36.3444,-47.5354 -11.2996,-16.5516 -21.7774,-33.8 -31.4137,-51.7158 -9.6362,-17.9158 -18.4308,-36.4985 -26.3641,-55.7192 -8.2163,-19.9043 -15.4146,-40.2791 -21.5876,-61.0867 -6.173,-20.8076 -11.3207,-42.0481 -15.436,-63.6836 -4.1153,-21.6356 -7.1982,-43.6661 -9.2416,-66.0541 -2.0434,-22.3879 -3.0472,-45.1331 -3.0044,-68.1979 0.0428,-23.0618 1.1317,-46.0989 3.2593,-69.0712 2.1277,-22.9724 5.2941,-45.8801 9.4919,-68.6832 4.1978,-22.8031 9.4272,-45.5016 15.6807,-68.0554 6.2535,-22.5538 13.5313,-44.9631 21.8258,-67.1878 8.0088,-21.4642 16.8771,-42.5311 26.585,-63.166 9.7078,-20.6349 20.2552,-40.8379 31.6222,-60.5745 11.367,-19.7365 23.5536,-39.0066 36.5399,-57.7757 12.9863,-18.7691 26.7722,-37.0373 41.3378,-54.7699 14.5656,-17.7327 29.7282,-34.7073 45.458,-50.8981 15.7298,-16.1908 32.0267,-31.5979 48.8611,-46.1953 16.8342,-14.5974 34.2061,-28.3851 52.0852,-41.3373 17.8794,-12.9522 36.2664,-25.0689 55.131,-36.3243 19.5328,-11.6502 39.3663,-22.2454 59.4651,-31.7728 20.0988,-9.5273 40.4625,-17.9869 61.056,-25.3655 20.5935,-7.3787 41.4166,-13.6765 62.4337,-18.8804 21.0171,-5.204 42.2281,-9.3141 63.5978,-12.3174 21.3697,-3.0033 42.5773,-4.8547 63.587,-5.5573 21.0099,-0.7026 41.8218,-0.2562 62.4,1.3361 20.5782,1.5923 40.9227,4.3307 60.9976,8.212 20.075,3.8813 39.8801,8.9057 59.3799,15.0702 18.8328,5.9573 37.1835,12.9109 55.0229,20.8432 17.8394,7.9323 35.1676,16.8433 51.9551,26.7154 16.7875,9.8721 33.0343,20.7054 48.7111,32.4824 15.6768,11.777 30.7836,24.4976 45.2909,38.1442 14.5073,13.6467 28.2325,28.0484 41.156,43.1761 12.9236,15.1277 25.0453,30.9815 36.3456,47.5323 11.3004,16.5508 21.7792,33.7988 31.4171,51.7148 9.6377,17.916 18.4346,36.5002 26.3706,55.7235 8.2134,19.9047 15.4097,40.2797 21.5811,61.0874 6.1714,20.8076 11.318,42.0479 15.4326,63.6827 4.1146,21.6348 7.1973,43.6644 9.2405,66.0505 2.0432,22.3862 3.0471,45.1292 3.0042,68.191 -0.043,23.0648 -1.1316,46.1041 -3.2592,69.0782 -2.1274,22.9741 -5.2936,45.8829 -9.4906,68.6866 -4.1973,22.8038 -9.4255,45.5024 -15.6775,68.0563 -6.252,22.5539 -13.5276,44.9628 -21.8193,67.1871 -8.0112,21.4618 -16.8817,42.5275 -26.591,63.1621 z"
   id="path134"
   inkscape:connector-curvature="0"
   style="fill:url(#SVGID_2_)" />
</g>
</svg>