<?xml version="1.0" encoding="UTF-8" standalone="no"?>
<!-- Created with Inkscape (http://www.inkscape.org/) -->

<svg
   xmlns:dc="http://purl.org/dc/elements/1.1/"
   xmlns:cc="http://creativecommons.org/ns#"
   xmlns:rdf="http://www.w3.org/1999/02/22-rdf-syntax-ns#"
   xmlns:svg="http://www.w3.org/2000/svg"
   xmlns="http://www.w3.org/2000/svg"
   xmlns:xlink="http://www.w3.org/1999/xlink"
   xmlns:sodipodi="http://sodipodi.sourceforge.net/DTD/sodipodi-0.dtd"
   xmlns:inkscape="http://www.inkscape.org/namespaces/inkscape"
   id="svg2"
   sodipodi:docname="birthstone_emerald_01.svg"
   viewBox="0 0 89.060462 97.31989"
   sodipodi:version="0.32"
   inkscape:export-xdpi="90"
   version="1.0"
   inkscape:output_extension="org.inkscape.output.svg.inkscape"
   inkscape:export-ydpi="90"
   inkscape:version="0.92.4 (5da689c313, 2019-01-14)"
   width="89.060463"
   height="97.319893">
  <sodipodi:namedview
     id="base"
     bordercolor="#666666"
     inkscape:pageshadow="2"
     guidetolerance="10"
     pagecolor="#ffffff"
     gridtolerance="10000"
     inkscape:window-height="1025"
     inkscape:zoom="0.98994949"
     objecttolerance="10"
     showgrid="false"
     borderopacity="1.0"
     inkscape:current-layer="svg2"
     inkscape:cx="-280.02687"
     inkscape:cy="101.14494"
     inkscape:window-y="-8"
     inkscape:window-x="-8"
     inkscape:window-width="1920"
     inkscape:pageopacity="0.0"
     inkscape:document-units="px"
     inkscape:window-maximized="1"
     fit-margin-top="0"
     fit-margin-left="0"
     fit-margin-right="0"
     fit-margin-bottom="0" />
  <defs
     id="defs4">
    <linearGradient
       id="linearGradient3299">
      <stop
         id="stop3301"
         style="stop-color:#006619"
         offset="0" />
      <stop
         id="stop3303"
         style="stop-color:#ffffff"
         offset="1" />
    </linearGradient>
    <linearGradient
       id="linearGradient7402"
       inkscape:collect="always">
      <stop
         id="stop7404"
         style="stop-color:#000000"
         offset="0" />
      <stop
         id="stop7406"
         style="stop-color:#000000;stop-opacity:0"
         offset="1" />
    </linearGradient>
    <clipPath
       id="clipPath7142"
       clipPathUnits="userSpaceOnUse">
      <path
         id="path7144"
         sodipodi:nodetypes="ccccc"
         style="fill:none;stroke:#000000;stroke-width:0.86219001px"
         d="m 205.04,145.07 c -40.11,108.04 -97.85,86.68 -154.1,107.87 l 176.57,-10.56 21.62,-96.04 z"
         inkscape:connector-curvature="0" />
    </clipPath>
    <filter
       id="filter7290"
       height="1.3716"
       width="1.239"
       y="-0.1858"
       x="-0.11949"
       inkscape:collect="always">
      <feGaussianBlur
         id="feGaussianBlur7292"
         stdDeviation="7.6392517"
         inkscape:collect="always" />
    </filter>
    <filter
       id="filter7322"
       height="1.406"
       width="1.2571"
       y="-0.20298"
       x="-0.12853999"
       inkscape:collect="always">
      <feGaussianBlur
         id="feGaussianBlur7324"
         stdDeviation="8.2819817"
         inkscape:collect="always" />
    </filter>
    <clipPath
       id="clipPath7330"
       clipPathUnits="userSpaceOnUse">
      <path
         id="path7332"
         sodipodi:nodetypes="cccc"
         style="fill:none;stroke:#000000;stroke-width:0.69059002px"
         d="m 382.86,312.46 c -26.97,30.36 -29.03,87.19 -35.72,136.85 l 1.77,-121.4 z"
         inkscape:connector-curvature="0" />
    </clipPath>
    <filter
       id="filter7600"
       inkscape:collect="always">
      <feGaussianBlur
         id="feGaussianBlur7602"
         stdDeviation="0.48841611"
         inkscape:collect="always" />
    </filter>
    <filter
       id="filter7644"
       inkscape:collect="always">
      <feGaussianBlur
         id="feGaussianBlur7646"
         stdDeviation="6.3494095"
         inkscape:collect="always" />
    </filter>
    <filter
       id="filter7947"
       height="1.2053"
       width="1.2709"
       y="-0.10265"
       x="-0.13547"
       inkscape:collect="always">
      <feGaussianBlur
         id="feGaussianBlur7949"
         stdDeviation="9.8085768"
         inkscape:collect="always" />
    </filter>
    <filter
       id="filter8087"
       inkscape:collect="always">
      <feGaussianBlur
         id="feGaussianBlur8089"
         stdDeviation="1.0816379"
         inkscape:collect="always" />
    </filter>
    <radialGradient
       id="radialGradient2483"
       xlink:href="#linearGradient7402"
       gradientUnits="userSpaceOnUse"
       cy="404.35999"
       cx="384.35999"
       gradientTransform="matrix(1,0,0,1.1676,0,-67.773)"
       r="96.468002"
       inkscape:collect="always" />
    <radialGradient
       id="radialGradient3466"
       xlink:href="#linearGradient3299"
       gradientUnits="userSpaceOnUse"
       cy="413.42001"
       cx="367.13"
       gradientTransform="matrix(0.99729,8.8174,-2.5231,2.2,1044.3,-3768.6)"
       r="25.239"
       inkscape:collect="always" />
    <linearGradient
       id="linearGradient3468"
       y2="347.03"
       xlink:href="#linearGradient3299"
       gradientUnits="userSpaceOnUse"
       x2="357.51001"
       y1="457.70999"
       x1="398.89999"
       inkscape:collect="always" />
    <radialGradient
       inkscape:collect="always"
       xlink:href="#linearGradient7402"
       id="radialGradient1010"
       gradientUnits="userSpaceOnUse"
       gradientTransform="matrix(1,0,0,1.1676,0,-67.773)"
       cx="384.35999"
       cy="404.35999"
       r="96.468002" />
  </defs>
  <g
     id="g6280"
     transform="translate(-216.89441,-77.095504)"
     inkscape:label="emerald">
    <path
       id="path3355"
       style="fill:#808000;filter:url(#filter7644)"
       sodipodi:type="star"
       sodipodi:sides="10"
       sodipodi:r1="95.666298"
       sodipodi:r2="90.984055"
       sodipodi:arg1="1.1922507"
       sodipodi:arg2="1.50641"
       transform="matrix(0.32281,0,0,0.38111,226.48,70.079)"
       inkscape:randomized="0"
       sodipodi:cy="150.29596"
       sodipodi:cx="110.10663"
       inkscape:rounded="0"
       inkscape:flatsided="true"
       d="M 145.46197,239.18938 86.459458,242.9936 36.489362,211.39047 14.638559,156.45131 29.253314,99.161019 74.751287,61.402538 133.7538,57.598323 183.72389,89.201454 205.5747,144.14061 190.95994,201.4309 Z" />
    <path
       id="path3357"
       style="opacity:0.79474003;fill:#008000;filter:url(#filter7600)"
       sodipodi:type="star"
       d="M 145.46197,239.18938 86.459458,242.9936 36.489362,211.39047 14.638559,156.45131 29.253314,99.161019 74.751287,61.402538 133.7538,57.598323 183.72389,89.201454 205.5747,144.14061 190.95994,201.4309 Z"
       sodipodi:r1="95.666298"
       inkscape:flatsided="true"
       transform="matrix(0.32281,0,0,0.38111,226.48,68.476)"
       sodipodi:arg2="1.50641"
       sodipodi:arg1="1.1922507"
       inkscape:randomized="0"
       sodipodi:cy="150.29596"
       sodipodi:cx="110.10663"
       inkscape:rounded="0"
       sodipodi:r2="90.984055"
       sodipodi:sides="10" />
    <path
       id="path3359"
       style="fill:#002b00;stroke:url(#radialGradient1010);stroke-width:0.98253;stroke-linecap:round;stroke-linejoin:round;filter:url(#filter7947)"
       transform="matrix(0.25871,0.12255,-0.094381,0.24776,200.15,-21.531)"
       d="m 356.32,291.72 -38.58,19.81 17.09,27.34 18.86,-21.04 7.93,-0.68 z m 5.3,25.43 1.98,9.57 c 1.35,-0.49 2.81,-0.89 4.39,-1.18 10.91,-1.95 19.65,-6.47 26.26,-11.23 z m 32.63,-2.84 1.51,-0.13 7.32,6.23 c 0.78,0.01 1.56,0.05 2.32,0.13 l 4.08,-21.39 c 0,0 -5.08,7.86 -15.23,15.16 z m 11.15,6.23 -0.29,1.58 23.11,19.68 c -1.75,-2.63 -3.6,-5.49 -5.63,-8.83 -4.99,-8.19 -10.82,-11.73 -17.19,-12.43 z m 22.82,21.26 c 0.78,1.18 1.48,2.22 2.2,3.3 l 0.64,-0.87 z m 2.84,2.43 0.33,0.28 1.11,3.7 c 6.58,9.86 10.47,16.54 11.6,31.37 l 18.53,-9.47 -21.84,-39.61 z m 13.04,35.35 -2.03,1.02 2.36,7.94 c -0.02,-3.29 -0.13,-6.27 -0.33,-8.96 z m 0.33,8.96 c 0.01,0.46 0,0.91 0,1.38 0,4.49 0.18,9.21 0.39,14.02 h 0.88 l 1.28,-6.74 z m 1.27,15.4 -0.73,3.8 c 0.47,10.35 0.91,21 0,30.96 l 26.4,13.92 9.46,-48.68 z m -0.73,34.76 -5.33,-2.8 -3.09,16.26 -4.57,5.1 5.88,6.51 c 4.27,-7.15 6.27,-15.8 7.11,-25.07 z m -7.11,25.07 c -3.07,5.14 -7.3,9.51 -13.09,12.79 -5.33,3.02 -9.82,5.32 -13.78,6.99 l 8.69,21.06 36.4,-20.62 z m -26.87,19.78 -0.81,-1.94 -3.07,3.42 c 1.24,-0.42 2.53,-0.9 3.88,-1.48 z m -3.88,1.48 c -9.16,3.15 -15.63,2.39 -24.3,-1.27 l 0.09,6.46 21.22,-1.84 z m -24.21,5.19 -20.86,1.81 -20.49,-17.44 -7.8,13.51 49.51,28.89 z m -41.35,-15.63 4.1,-7.07 c -5.18,-1.92 -8.29,-4.8 -15.95,-17.97 l -5.68,4.14 2.39,8.04 z m -17.53,-20.9 -12.45,-42.17 -6.94,0.66 7.3,50.34 z m -12.45,-42.17 2.52,-0.26 c -0.47,-6.85 1.28,-12.82 5.61,-18.45 l -5.54,-1.36 -3.34,17.57 z m 2.59,-20.07 4.98,-26.29 -21.78,-13.2 -9.46,33.01 z m 4.98,-26.29 15.58,9.45 c 0.72,-2.65 1.6,-5.02 2.68,-6.97 2.89,-5.24 4.53,-9.72 6.76,-13.86 l -9.33,-14.91 -13.58,15.19 z m 25.02,-11.38 0.36,0.56 c 0.25,-0.84 0.51,-1.67 0.77,-2.5 -0.4,0.64 -0.78,1.28 -1.13,1.94 z m 1.13,-1.94 c 3.36,-5.52 8.37,-10.6 19.77,-16.39 0.11,-0.05 0.21,-0.1 0.32,-0.16 l -1.78,-8.57 c -10.84,3.9 -14.86,14.03 -18.31,25.12 z m 20.09,-16.55 3.15,15.14 c 11.25,-3.9 23.59,-8.76 32.79,-8.47 l 3.79,-19.84 -2.03,-1.71 c -11.6,-0.07 -24.78,8.29 -37.7,14.88 z m 35.94,6.67 -7.23,37.88 c 0.04,0.06 0.06,0.11 0.09,0.18 1.56,3.23 3.13,6.47 4.58,9.67 l 17.43,-24.55 c -0.43,-2.53 -0.75,-5.02 -0.88,-7.41 -0.6,-11.55 -6.16,-15.53 -13.99,-15.77 z m 14.87,23.18 c 1.38,8.09 4.1,16.76 6.87,25.17 l 19.01,-9.71 -9.57,-32.39 c -0.65,-0.96 -1.38,-2.08 -2.08,-3.11 z m 6.87,25.17 -19.91,10.15 c 0.42,1.19 0.79,2.35 1.12,3.48 h 23.2 c -1.32,-4.36 -2.87,-8.95 -4.41,-13.63 z m 4.41,13.63 c 3.44,11.29 5.38,20.99 1.76,26.47 l 10.41,5.49 5.33,-28.16 c -0.05,-1.27 -0.1,-2.55 -0.15,-3.8 z m 1.76,26.47 -24.19,-12.74 c -0.78,1.94 -2.16,3.45 -4.3,4.42 -0.1,0.04 -0.24,0.1 -0.34,0.15 l 15.27,16.95 c -5.93,3.59 -12.21,7.58 -18.58,10.75 l 13.09,31.67 21.8,-24.35 -16.29,-18.07 c 3.4,-2.06 6.67,-4 9.8,-5.54 1.62,-0.8 2.85,-1.89 3.74,-3.24 z m -32.14,19.53 -9.3,-22.47 c -1.88,0.66 -3.8,1.27 -5.75,1.76 l 0.36,25.91 c 4.89,-0.86 9.82,-2.79 14.69,-5.2 z m -14.69,5.2 c -4.63,0.82 -9.22,0.69 -13.69,-0.86 -4.33,-1.51 -8.23,-3.73 -11.73,-6.31 l -11.33,19.55 c 4.27,1.59 9.97,2.55 20.88,8.2 6.52,3.38 11.71,6.11 16.28,8.04 z m -25.42,-7.17 10.54,-18.25 c -2.17,-0.68 -4.09,-1.85 -5.61,-3.65 l -15.77,11.49 c 3.03,3.67 6.64,7.31 10.84,10.41 z m -10.84,-10.41 c -5.5,-6.67 -9.11,-13.41 -10.92,-17.11 -1.01,-2.06 -1.83,-6.1 -2.37,-11.05 l -18.76,1.86 c 0.63,9.2 5.27,20.02 13.11,33.93 0.89,1.58 1.71,3.01 2.5,4.36 z m -13.29,-28.16 23.38,-2.3 c -0.43,-1.84 -0.89,-3.71 -1.35,-5.61 l -22.66,-5.59 c -0.05,4.82 0.2,9.46 0.63,13.5 z m -0.63,-13.5 c 0.06,-5.66 0.5,-11.51 1.47,-16.72 -1.46,1.81 -3.12,3.48 -5.03,4.95 -3.72,2.86 -6.69,5.73 -8.96,8.68 z m 22.66,5.59 16.74,4.11 -15.39,1.5 c 0.91,3.84 1.73,7.53 2.28,10.88 0.58,3.54 1.77,6.16 3.4,8.09 l 13.35,-9.75 -7.74,13.4 c 4.21,1.32 9.38,0.81 14.52,-0.49 l -0.22,-16.21 5.97,14.45 c 4.92,-1.72 9.41,-3.78 12.61,-5.23 l -12.03,-13.35 16.67,8.78 c 1.38,-3.44 0.85,-8.23 -0.77,-13.73 h -7.9 l 6.78,-3.48 c -1.2,-3.42 -2.72,-7.06 -4.39,-10.77 l -8.95,12.59 4.28,-22.44 c -8.68,-17.66 -14.46,24.1 -14.46,24.1 l -11.1,-53.51 c -2.43,0.85 -4.81,1.66 -7.09,2.35 -6.11,1.85 -9.31,6.01 -10.68,11.54 l 20.14,32.19 -19.71,-11.95 c 0.96,5.56 2.33,11.34 3.69,16.93 z m -3.69,-16.93 c -1.3,-7.49 -1.83,-14.58 -0.43,-20.24 l -6.24,-9.98 c -2.22,7.31 -4.4,14.86 -8.27,21.19 z m -14.94,-9.03 -1.53,-0.92 c -0.39,1.43 -0.72,2.94 -1.01,4.51 0.92,-1.15 1.77,-2.33 2.54,-3.59 z"
       inkscape:connector-curvature="0" />
    <path
       id="path3361"
       d="m 356.32,291.72 -38.58,19.81 17.09,27.34 18.86,-21.04 7.93,-0.68 z m 5.3,25.43 1.98,9.57 c 1.35,-0.49 2.81,-0.89 4.39,-1.18 10.91,-1.95 19.65,-6.47 26.26,-11.23 z m 32.63,-2.84 1.51,-0.13 7.32,6.23 c 0.78,0.01 1.56,0.05 2.32,0.13 l 4.08,-21.39 c 0,0 -5.08,7.86 -15.23,15.16 z m 11.15,6.23 -0.29,1.58 23.11,19.68 c -1.75,-2.63 -3.6,-5.49 -5.63,-8.83 -4.99,-8.19 -10.82,-11.73 -17.19,-12.43 z m 22.82,21.26 c 0.78,1.18 1.48,2.22 2.2,3.3 l 0.64,-0.87 z m 2.84,2.43 0.33,0.28 1.11,3.7 c 6.58,9.86 10.47,16.54 11.6,31.37 l 18.53,-9.47 -21.84,-39.61 z m 13.04,35.35 -2.03,1.02 2.36,7.94 c -0.02,-3.29 -0.13,-6.27 -0.33,-8.96 z m 0.33,8.96 c 0.01,0.46 0,0.91 0,1.38 0,4.49 0.18,9.21 0.39,14.02 h 0.88 l 1.28,-6.74 z m 1.27,15.4 -0.73,3.8 c 0.47,10.35 0.91,21 0,30.96 l 26.4,13.92 9.46,-48.68 z m -0.73,34.76 -5.33,-2.8 -3.09,16.26 -4.57,5.1 5.88,6.51 c 4.27,-7.15 6.27,-15.8 7.11,-25.07 z m -7.11,25.07 c -3.07,5.14 -7.3,9.51 -13.09,12.79 -5.33,3.02 -9.82,5.32 -13.78,6.99 l 8.69,21.06 36.4,-20.62 z m -26.87,19.78 -0.81,-1.94 -3.07,3.42 c 1.24,-0.42 2.53,-0.9 3.88,-1.48 z m -3.88,1.48 c -9.16,3.15 -15.63,2.39 -24.3,-1.27 l 0.09,6.46 21.22,-1.84 z m -24.21,5.19 -20.86,1.81 -20.49,-17.44 -7.8,13.51 49.51,28.89 z m -41.35,-15.63 4.1,-7.07 c -5.18,-1.92 -8.29,-4.8 -15.95,-17.97 l -5.68,4.14 2.39,8.04 z m -17.53,-20.9 -12.45,-42.17 -6.94,0.66 7.3,50.34 z m -12.45,-42.17 2.52,-0.26 c -0.47,-6.85 1.28,-12.82 5.61,-18.45 l -5.54,-1.36 -3.34,17.57 z m 2.59,-20.07 4.98,-26.29 -21.78,-13.2 -9.46,33.01 z m 4.98,-26.29 15.58,9.45 c 0.72,-2.65 1.6,-5.02 2.68,-6.97 2.89,-5.24 4.53,-9.72 6.76,-13.86 l -9.33,-14.91 -13.58,15.19 z m 25.02,-11.38 0.36,0.56 c 0.25,-0.84 0.51,-1.67 0.77,-2.5 -0.4,0.64 -0.78,1.28 -1.13,1.94 z m 1.13,-1.94 c 3.36,-5.52 8.37,-10.6 19.77,-16.39 0.11,-0.05 0.21,-0.1 0.32,-0.16 l -1.78,-8.57 c -10.84,3.9 -14.86,14.03 -18.31,25.12 z m 20.09,-16.55 3.15,15.14 c 11.25,-3.9 23.59,-8.76 32.79,-8.47 l 3.79,-19.84 -2.03,-1.71 c -11.6,-0.07 -24.78,8.29 -37.7,14.88 z m 35.94,6.67 -7.23,37.88 c 0.04,0.06 0.06,0.11 0.09,0.18 1.56,3.23 3.13,6.47 4.58,9.67 l 17.43,-24.55 c -0.43,-2.53 -0.75,-5.02 -0.88,-7.41 -0.6,-11.55 -6.16,-15.53 -13.99,-15.77 z m 14.87,23.18 c 1.38,8.09 4.1,16.76 6.87,25.17 l 19.01,-9.71 -9.57,-32.39 c -0.65,-0.96 -1.38,-2.08 -2.08,-3.11 z m 6.87,25.17 -19.91,10.15 c 0.42,1.19 0.79,2.35 1.12,3.48 h 23.2 c -1.32,-4.36 -2.87,-8.95 -4.41,-13.63 z m 4.41,13.63 c 3.44,11.29 5.38,20.99 1.76,26.47 l 10.41,5.49 5.33,-28.16 c -0.05,-1.27 -0.1,-2.55 -0.15,-3.8 z m 1.76,26.47 -24.19,-12.74 c -0.78,1.94 -2.16,3.45 -4.3,4.42 -0.1,0.04 -0.24,0.1 -0.34,0.15 l 15.27,16.95 c -5.93,3.59 -12.21,7.58 -18.58,10.75 l 13.09,31.67 21.8,-24.35 -16.29,-18.07 c 3.4,-2.06 6.67,-4 9.8,-5.54 1.62,-0.8 2.85,-1.89 3.74,-3.24 z m -32.14,19.53 -9.3,-22.47 c -1.88,0.66 -3.8,1.27 -5.75,1.76 l 0.36,25.91 c 4.89,-0.86 9.82,-2.79 14.69,-5.2 z m -14.69,5.2 c -4.63,0.82 -9.22,0.69 -13.69,-0.86 -4.33,-1.51 -8.23,-3.73 -11.73,-6.31 l -11.33,19.55 c 4.27,1.59 9.97,2.55 20.88,8.2 6.52,3.38 11.71,6.11 16.28,8.04 z m -25.42,-7.17 10.54,-18.25 c -2.17,-0.68 -4.09,-1.85 -5.61,-3.65 l -15.77,11.49 c 3.03,3.67 6.64,7.31 10.84,10.41 z m -10.84,-10.41 c -5.5,-6.67 -9.11,-13.41 -10.92,-17.11 -1.01,-2.06 -1.83,-6.1 -2.37,-11.05 l -18.76,1.86 c 0.63,9.2 5.27,20.02 13.11,33.93 0.89,1.58 1.71,3.01 2.5,4.36 z m -13.29,-28.16 23.38,-2.3 c -0.43,-1.84 -0.89,-3.71 -1.35,-5.61 l -22.66,-5.59 c -0.05,4.82 0.2,9.46 0.63,13.5 z m -0.63,-13.5 c 0.06,-5.66 0.5,-11.51 1.47,-16.72 -1.46,1.81 -3.12,3.48 -5.03,4.95 -3.72,2.86 -6.69,5.73 -8.96,8.68 z m 22.66,5.59 16.74,4.11 -15.39,1.5 c 0.91,3.84 1.73,7.53 2.28,10.88 0.58,3.54 1.77,6.16 3.4,8.09 l 13.35,-9.75 -7.74,13.4 c 4.21,1.32 9.38,0.81 14.52,-0.49 l -0.22,-16.21 5.97,14.45 c 4.92,-1.72 9.41,-3.78 12.61,-5.23 l -12.03,-13.35 16.67,8.78 c 1.38,-3.44 0.85,-8.23 -0.77,-13.73 h -7.9 l 6.78,-3.48 c -1.2,-3.42 -2.72,-7.06 -4.39,-10.77 l -8.95,12.59 4.28,-22.44 c -8.68,-17.66 -14.46,24.1 -14.46,24.1 l -11.1,-53.51 c -2.43,0.85 -4.81,1.66 -7.09,2.35 -6.11,1.85 -9.31,6.01 -10.68,11.54 l 20.14,32.19 -19.71,-11.95 c 0.96,5.56 2.33,11.34 3.69,16.93 z m -3.69,-16.93 c -1.3,-7.49 -1.83,-14.58 -0.43,-20.24 l -6.24,-9.98 c -2.22,7.31 -4.4,14.86 -8.27,21.19 z m -14.94,-9.03 -1.53,-0.92 c -0.39,1.43 -0.72,2.94 -1.01,4.51 0.92,-1.15 1.77,-2.33 2.54,-3.59 z"
       style="opacity:0.26316002;fill:#008000;stroke:url(#radialGradient2483);stroke-width:0.98253;stroke-linecap:round;stroke-linejoin:round;filter:url(#filter8087)"
       transform="matrix(0.2536,0,0,0.24872,165.02,29.79)"
       inkscape:connector-curvature="0" />
    <path
       id="path3363"
       style="fill:#00ff00;filter:url(#filter7322)"
       sodipodi:type="star"
       sodipodi:sides="10"
       clip-path="url(#clipPath7142)"
       sodipodi:r1="95.666298"
       sodipodi:r2="90.984055"
       sodipodi:arg1="1.1922507"
       sodipodi:arg2="1.50641"
       transform="matrix(0.27041,0,0,0.34875,236.07,73.17)"
       inkscape:randomized="0"
       sodipodi:cy="150.29596"
       sodipodi:cx="110.10663"
       inkscape:rounded="0"
       inkscape:flatsided="true"
       d="M 145.46197,239.18938 86.459458,242.9936 36.489362,211.39047 14.638559,156.45131 29.253314,99.161019 74.751287,61.402538 133.7538,57.598323 183.72389,89.201454 205.5747,144.14061 190.95994,201.4309 Z" />
    <ellipse
       id="path3365"
       style="opacity:0.28421003;fill:url(#radialGradient3466);stroke:url(#linearGradient3468);stroke-width:3;stroke-linecap:round;stroke-linejoin:round"
       transform="matrix(0.67197,0,0,0.24202,10.532,25.161)"
       cx="374.26151"
       cy="413.4407"
       rx="23.738585"
       ry="91.418808" />
    <path
       id="path3367"
       style="fill:#ffffff;filter:url(#filter7290)"
       sodipodi:type="star"
       d="M 145.46197,239.18938 86.459458,242.9936 36.489362,211.39047 14.638559,156.45131 29.253314,99.161019 74.751287,61.402538 133.7538,57.598323 183.72389,89.201454 205.5747,144.14061 190.95994,201.4309 Z"
       clip-path="url(#clipPath7142)"
       sodipodi:r1="95.666298"
       inkscape:flatsided="true"
       transform="matrix(-0.27362,0.0023528,-0.0029884,-0.36952,290.45,183.19)"
       sodipodi:arg2="1.50641"
       sodipodi:arg1="1.1922507"
       inkscape:randomized="0"
       sodipodi:cy="150.29596"
       sodipodi:cx="110.10663"
       inkscape:rounded="0"
       sodipodi:r2="90.984055"
       sodipodi:sides="10" />
    <ellipse
       id="path3369"
       style="opacity:0.99474003;fill:#ffffff"
       clip-path="url(#clipPath7330)"
       transform="matrix(0.67197,0,0,0.24202,10.532,25.161)"
       cx="374.26151"
       cy="413.4407"
       rx="23.738585"
       ry="91.418808" />
  </g>
  <metadata
     id="metadata194">
    <rdf:RDF>
      <cc:Work>
        <dc:format>image/svg+xml</dc:format>
        <dc:type
           rdf:resource="http://purl.org/dc/dcmitype/StillImage" />
        <cc:license
           rdf:resource="http://creativecommons.org/publicdomain/zero/1.0/" />
        <dc:publisher>
          <cc:Agent
             rdf:about="http://openclipart.org/">
            <dc:title>OpenClipart library</dc:title>
          </cc:Agent>
        </dc:publisher>
        <dc:title>birthstones</dc:title>
        <dc:date>2008-10-30T14:01:28</dc:date>
        <dc:description>after my pearl necklace, I decided to upload my birthstone collection</dc:description>
        <dc:source>https://openclipart.org/detail/19865/birthstones-by-wsnaccad-19865</dc:source>
        <dc:creator>
          <cc:Agent>
            <dc:title>wsnaccad</dc:title>
          </cc:Agent>
        </dc:creator>
        <dc:subject>
          <rdf:Bag>
            <rdf:li>agate</rdf:li>
            <rdf:li>amethyst</rdf:li>
            <rdf:li>beryl</rdf:li>
            <rdf:li>birtstone</rdf:li>
            <rdf:li>bloodstone</rdf:li>
            <rdf:li>carnelian</rdf:li>
            <rdf:li>emerald</rdf:li>
            <rdf:li>garnet</rdf:li>
            <rdf:li>gem</rdf:li>
            <rdf:li>jewelry</rdf:li>
            <rdf:li>onyx</rdf:li>
            <rdf:li>peridot</rdf:li>
            <rdf:li>ruby</rdf:li>
            <rdf:li>sapphire</rdf:li>
            <rdf:li>stones</rdf:li>
            <rdf:li>topaz</rdf:li>
          </rdf:Bag>
        </dc:subject>
      </cc:Work>
      <cc:License
         rdf:about="http://creativecommons.org/publicdomain/zero/1.0/">
        <cc:permits
           rdf:resource="http://creativecommons.org/ns#Reproduction" />
        <cc:permits
           rdf:resource="http://creativecommons.org/ns#Distribution" />
        <cc:permits
           rdf:resource="http://creativecommons.org/ns#DerivativeWorks" />
      </cc:License>
    </rdf:RDF>
  </metadata>
</svg>
