<?xml version="1.0" encoding="UTF-8" standalone="no"?>
<svg
   xmlns:dc="http://purl.org/dc/elements/1.1/"
   xmlns:cc="http://creativecommons.org/ns#"
   xmlns:rdf="http://www.w3.org/1999/02/22-rdf-syntax-ns#"
   xmlns:svg="http://www.w3.org/2000/svg"
   xmlns="http://www.w3.org/2000/svg"
   xmlns:sodipodi="http://sodipodi.sourceforge.net/DTD/sodipodi-0.dtd"
   xmlns:inkscape="http://www.inkscape.org/namespaces/inkscape"
   version="1.1"
   xml:space="preserve"
   enable-background="new 0 0 267.679 250.745"
   y="0px"
   x="0px"
   viewBox="0 0 256.00001 256"
   id="svg345"
   sodipodi:docname="diamond.svg"
   inkscape:version="0.92.4 (5da689c313, 2019-01-14)"
   width="256"
   height="256"><title
   id="title1156">Diamond</title><defs
   id="defs349" /><sodipodi:namedview
   pagecolor="#ffffff"
   bordercolor="#666666"
   borderopacity="1"
   objecttolerance="10"
   gridtolerance="10"
   guidetolerance="10"
   inkscape:pageopacity="0"
   inkscape:pageshadow="2"
   inkscape:window-width="1920"
   inkscape:window-height="1025"
   id="namedview347"
   showgrid="false"
   inkscape:zoom="1.8823905"
   inkscape:cx="79.39985"
   inkscape:cy="169.46531"
   inkscape:window-x="-8"
   inkscape:window-y="-8"
   inkscape:window-maximized="1"
   inkscape:current-layer="svg345"
   fit-margin-top="0"
   fit-margin-left="0"
   fit-margin-right="0"
   fit-margin-bottom="0" />

<g
   id="圖層_2"
   display="none"
   stroke-miterlimit="10"
   style="display:none;fill:none;stroke:#000000;stroke-miterlimit:10"
   transform="translate(-1.0860616,10.18653)">
	<polygon
   points="75.719,20.74 60.772,42.11 93.892,68.589 156.95,86.237 212.17,84.081 228.64,62.352 195.38,35.414 133.63,17.918 "
   display="inline"
   id="polygon10"
   style="display:inline" />
	<polyline
   points="75.719 20.74 51.272 39.053 37.507 51.986 21.595 86.861 19.17 77.726 37.507 51.986 51.272 39.053 60.772 42.11 59.543 74.1 59.543 74.1 67.083 114.67 53.996 112.22 45.421 100.78 33.076 96.131 21.595 86.861 106.02 232.35 236.52 138.37 208.92 144.54 184.79 108.04 188.28 140.2 184.61 149.24 106.02 232.35 42.454 111.22 45.421 100.78 59.446 74.109 33.076 96.131 26.754 90.882 21.595 86.861 59.495 73.896 93.892 68.589 150.16 138.37 127.9 139.22 108.62 127.16 85.921 126.91 86.546 127.16 67.083 114.67 156.95 86.237 223.5 138.37 236.52 138.37 242.47 126.91 248.53 124.79 242.47 126.91 229.71 91.496 245.52 105.02 229.71 91.496 212.17 84.081 150.16 138.37 150.16 138.32 169.12 144.46 188.28 140.2 208.92 144.54 223.5 138.37 229.71 91.496 228.64 62.352 237.96 77.52 246.73 109.45 248.53 124.79 236.52 138.37 220.53 146.46 140.81 195.5 148.42 147.79 106.02 191.14 67.083 125.02 53.996 112.22 42.454 111.22 33.076 96.131 27.77 97.502 27.77 97.502 77.439 178.12 67.083 125.02 67.083 124.79 85.898 126.99 106.02 138.32 127.9 139.22 148.42 147.79 169.12 144.47 184.61 149.24 208.9 144.39 220.53 146.46 168.83 187.12 106.02 232.35 106.02 138.32 108.62 127.16 118.05 98.547"
   display="inline"
   id="polyline12"
   style="display:inline" />
</g>
<g
   id="圖層_2_拷貝"
   transform="rotate(-11.509693,183.84535,135.61554)">
	<polygon
   points="236.52,138.37 248.53,124.79 246.73,109.45 237.96,77.52 228.64,62.352 195.38,35.414 133.63,17.918 75.719,20.74 51.272,39.053 37.507,51.986 19.17,77.726 21.595,86.861 106.02,232.35 "
   id="polygon15"
   style="fill:#ffffff" />
</g>
<g
   id="圖層_3"
   transform="matrix(1.0713816,-0.21816381,0.21816381,1.0713816,-37.495258,20.075213)">
	<linearGradient
   id="SVGID_2_"
   y2="90.959999"
   gradientUnits="userSpaceOnUse"
   y1="13.213"
   x2="212.12"
   x1="77.455002">
		<stop
   stop-color="#CDCDCD"
   offset="0"
   id="stop18" />
		<stop
   stop-color="#fff"
   offset=".2474"
   id="stop20" />
		<stop
   stop-color="#fff"
   offset=".5684"
   id="stop22" />
		<stop
   stop-color="#686868"
   offset=".8842"
   id="stop24" />
		<stop
   offset=".9947"
   id="stop26" />
	</linearGradient>
	<polygon
   points="195.38,35.414 133.63,17.918 75.719,20.74 60.772,42.11 93.892,68.589 156.95,86.237 212.17,84.081 228.64,62.352 "
   id="polygon29"
   style="fill:url(#SVGID_2_)" />
	<linearGradient
   id="SVGID_3_"
   y2="78.149002"
   gradientUnits="userSpaceOnUse"
   y1="95.516998"
   x2="203.73"
   x1="173.67999">
		<stop
   stop-color="#A7A7A7"
   offset="0"
   id="stop31" />
		<stop
   stop-color="#fff"
   offset=".5"
   id="stop33" />
	</linearGradient>
	<polygon
   points="156.95,86.237 212.17,84.081 184.79,108.04 "
   id="polygon36"
   style="fill:url(#SVGID_3_)" />
	<radialGradient
   id="SVGID_4_"
   gradientUnits="userSpaceOnUse"
   cy="108.44"
   cx="185.67"
   r="36.786999">
		<stop
   stop-color="#767676"
   offset="0"
   id="stop38" />
		<stop
   offset="1"
   id="stop40" />
	</radialGradient>
	<polygon
   points="208.9,144.39 184.79,108.04 188.28,140.2 "
   id="polygon43"
   style="fill:url(#SVGID_4_)" />
	<linearGradient
   id="SVGID_5_"
   y2="126.25"
   gradientUnits="userSpaceOnUse"
   y1="126.25"
   x2="188.28"
   x1="150.16">
		<stop
   offset=".2947"
   id="stop45" />
		<stop
   stop-color="#4B4B4B"
   offset=".3211"
   id="stop47" />
		<stop
   stop-color="#fff"
   offset="1"
   id="stop49" />
	</linearGradient>
	<polygon
   points="184.79,108.04 150.16,138.32 169.12,144.46 188.28,140.2 "
   id="polygon52"
   style="fill:url(#SVGID_5_)" />
	<linearGradient
   id="SVGID_6_"
   y2="118.88"
   gradientUnits="userSpaceOnUse"
   y1="118.88"
   x2="108.62"
   x1="150.16">
		<stop
   stop-color="#fff"
   offset=".1737"
   id="stop54" />
		<stop
   stop-color="#767676"
   offset=".6947"
   id="stop56" />
		<stop
   offset="1"
   id="stop58" />
	</linearGradient>
	<polygon
   points="150.16,138.32 127.9,139.22 108.62,127.16 118.05,98.547 "
   id="polygon61"
   style="fill:url(#SVGID_6_)" />
	<linearGradient
   id="SVGID_7_"
   y2="143.06"
   gradientUnits="userSpaceOnUse"
   y1="143.06"
   x2="169.12"
   x1="127.91">
		<stop
   stop-color="#A7A7A7"
   offset="0"
   id="stop63" />
		<stop
   stop-color="#fff"
   offset=".5"
   id="stop65" />
	</linearGradient>
	<polygon
   points="127.9,139.22 148.42,147.79 169.12,144.46 150.16,138.32 "
   id="polygon68"
   style="fill:url(#SVGID_7_)" />
	<polygon
   points="127.9,139.22 106.02,138.32 85.921,126.91 108.62,127.16 "
   id="polygon70"
   style="fill:#efefef" />
	<linearGradient
   id="SVGID_8_"
   y2="152.13"
   gradientUnits="userSpaceOnUse"
   y1="142.67999"
   x2="202.35001"
   x1="185.97">
		<stop
   stop-color="#fff"
   offset="0"
   id="stop72" />
		<stop
   stop-color="#585858"
   offset="1"
   id="stop74" />
	</linearGradient>
	<polygon
   points="169.12,144.47 184.61,149.24 208.9,144.39 188.28,140.2 "
   id="polygon77"
   style="fill:url(#SVGID_8_)" />
	<linearGradient
   id="SVGID_9_"
   y2="107.87"
   gradientUnits="userSpaceOnUse"
   y1="78.003998"
   x2="93.374001"
   x1="74.174004">
		<stop
   stop-color="#fff"
   offset="0"
   id="stop79" />
		<stop
   stop-color="#C5C5C5"
   offset=".3316"
   id="stop81" />
		<stop
   stop-color="#B6B6B6"
   offset=".3368"
   id="stop83" />
		<stop
   stop-color="#959595"
   offset="1"
   id="stop85" />
	</linearGradient>
	<polygon
   points="118.05,98.547 93.892,68.589 59.495,73.896 67.083,114.67 "
   id="polygon88"
   style="fill:url(#SVGID_9_)" />
	<linearGradient
   id="SVGID_10_"
   y2="74.661003"
   gradientUnits="userSpaceOnUse"
   y1="56.224998"
   x2="54.662998"
   x1="30.24">
		<stop
   stop-color="#595959"
   offset="0"
   id="stop90" />
		<stop
   stop-color="#fff"
   offset="1"
   id="stop92" />
	</linearGradient>
	<polygon
   points="37.507,51.986 21.595,86.861 59.495,73.896 60.731,43.14 60.772,42.11 51.272,39.053 "
   id="polygon95"
   style="fill:url(#SVGID_10_)" />
	<linearGradient
   id="SVGID_11_"
   y2="69.432999"
   gradientUnits="userSpaceOnUse"
   y1="67.967003"
   x2="29.611"
   x1="20.358">
		<stop
   stop-color="#A7A7A7"
   offset="0"
   id="stop97" />
		<stop
   stop-color="#fff"
   offset="1"
   id="stop99" />
	</linearGradient>
	<polygon
   points="21.595,86.861 37.507,51.986 19.17,77.726 "
   id="polygon102"
   style="fill:url(#SVGID_11_)" />
	<linearGradient
   id="SVGID_12_"
   y2="82.012001"
   gradientUnits="userSpaceOnUse"
   y1="92.405998"
   x2="44.449001"
   x1="25.691">
		<stop
   stop-color="#898989"
   offset="0"
   id="stop104" />
		<stop
   stop-color="#fff"
   offset="1"
   id="stop106" />
	</linearGradient>
	<polygon
   points="59.495,73.896 21.595,86.861 33.076,96.131 "
   id="polygon109"
   style="fill:url(#SVGID_12_)" />
	<linearGradient
   id="SVGID_13_"
   y2="78.460999"
   gradientUnits="userSpaceOnUse"
   y1="99.678001"
   x2="54.081001"
   x1="38.34">
		<stop
   stop-color="#A7A7A7"
   offset="0"
   id="stop111" />
		<stop
   stop-color="#fff"
   offset=".5"
   id="stop113" />
	</linearGradient>
	<polygon
   points="59.495,73.896 33.076,96.131 45.421,100.78 "
   id="polygon116"
   style="fill:url(#SVGID_13_)" />
	<linearGradient
   id="SVGID_14_"
   y2="92.181"
   gradientUnits="userSpaceOnUse"
   y1="92.181"
   x2="33.076"
   x1="21.594999">
		<stop
   stop-color="#595959"
   offset="0"
   id="stop118" />
		<stop
   stop-color="#fff"
   offset="1"
   id="stop120" />
	</linearGradient>
	<polygon
   points="21.595,86.861 27.77,97.502 33.076,96.131 "
   id="polygon123"
   style="fill:url(#SVGID_14_)" />
	<linearGradient
   id="SVGID_15_"
   y2="77.574997"
   gradientUnits="userSpaceOnUse"
   y1="112.45"
   x2="59.223999"
   x1="55.785999">
		<stop
   stop-color="#A7A7A7"
   offset="0"
   id="stop125" />
		<stop
   stop-color="#fff"
   offset=".5"
   id="stop127" />
	</linearGradient>
	<polygon
   points="67.083,114.67 59.495,73.896 45.421,100.78 53.996,112.22 "
   id="polygon130"
   style="fill:url(#SVGID_15_)" />
	<linearGradient
   id="SVGID_16_"
   y2="119.61"
   gradientUnits="userSpaceOnUse"
   y1="119.61"
   x2="85.898003"
   x1="53.995998">
		<stop
   stop-color="#5A5A5A"
   offset="0"
   id="stop132" />
		<stop
   stop-color="#fff"
   offset="1"
   id="stop134" />
	</linearGradient>
	<polygon
   points="85.898,126.99 67.083,125.02 53.996,112.22 67.083,114.67 "
   id="polygon137"
   style="fill:url(#SVGID_16_)" />
	<linearGradient
   id="SVGID_17_"
   y2="168.42999"
   gradientUnits="userSpaceOnUse"
   y1="97.224998"
   x2="71.686996"
   x1="31.038">
		<stop
   stop-color="#fff"
   offset="0"
   id="stop139" />
		<stop
   stop-color="#494949"
   offset=".0632"
   id="stop141" />
		<stop
   stop-color="#2D2D2D"
   offset=".1316"
   id="stop143" />
		<stop
   stop-color="#595959"
   offset=".1421"
   id="stop145" />
		<stop
   stop-color="#fff"
   offset="1"
   id="stop147" />
	</linearGradient>
	<polygon
   points="27.77,97.502 77.439,178.12 42.454,111.22 33.076,96.131 "
   id="polygon150"
   style="fill:url(#SVGID_17_)" />
	<radialGradient
   id="SVGID_18_"
   gradientUnits="userSpaceOnUse"
   cy="164.92999"
   cx="66.893997"
   r="55.122002">
		<stop
   stop-color="#fff"
   offset="0"
   id="stop152" />
		<stop
   offset=".9947"
   id="stop154" />
	</radialGradient>
	<polygon
   points="77.439,178.12 106.02,232.35 27.77,97.502 "
   id="polygon157"
   style="fill:url(#SVGID_18_)" />
	<linearGradient
   id="SVGID_19_"
   y2="232.19"
   gradientUnits="userSpaceOnUse"
   y1="125.28"
   x2="93.185997"
   x1="83.612">
		<stop
   stop-color="#fff"
   offset="0"
   id="stop159" />
		<stop
   stop-color="#878787"
   offset=".3737"
   id="stop161" />
		<stop
   stop-color="#595959"
   offset=".3842"
   id="stop163" />
		<stop
   stop-color="#fff"
   offset="1"
   id="stop165" />
	</linearGradient>
	<polygon
   points="106.02,191.14 67.083,125.02 77.439,178.12 106.02,232.35 "
   id="polygon168"
   style="fill:url(#SVGID_19_)" />
	<linearGradient
   id="SVGID_20_"
   y2="151.17999"
   gradientUnits="userSpaceOnUse"
   y1="224.63"
   x2="147.46001"
   x1="105.55">
		<stop
   stop-color="#515151"
   offset="0"
   id="stop170" />
		<stop
   stop-color="#fff"
   offset=".6947"
   id="stop172" />
	</linearGradient>
	<polygon
   points="148.42,147.79 140.81,195.5 106.02,232.35 106.02,191.14 "
   id="polygon175"
   style="fill:url(#SVGID_20_)" />
	<linearGradient
   id="SVGID_21_"
   y2="180.99001"
   gradientUnits="userSpaceOnUse"
   y1="139.53"
   x2="134.13"
   x1="109.28">
		<stop
   stop-color="#fff"
   offset="0"
   id="stop177" />
		<stop
   stop-color="#B0B0B0"
   offset=".2895"
   id="stop179" />
		<stop
   stop-color="#8C8C8C"
   offset=".3"
   id="stop181" />
		<stop
   offset="1"
   id="stop183" />
	</linearGradient>
	<polygon
   points="106.02,138.32 106.02,191.14 148.42,147.79 127.9,139.22 "
   id="polygon186"
   style="fill:url(#SVGID_21_)" />
	<linearGradient
   id="SVGID_22_"
   y2="174.78999"
   gradientUnits="userSpaceOnUse"
   y1="127.38"
   x2="114.8"
   x1="73.391998">
		<stop
   offset=".1756"
   id="stop188" />
		<stop
   stop-color="#595959"
   offset=".1895"
   id="stop190" />
		<stop
   stop-color="#fff"
   offset="1"
   id="stop192" />
	</linearGradient>
	<polygon
   points="67.083,125.02 85.898,126.99 106.02,138.32 106.02,191.14 "
   id="polygon195"
   style="fill:url(#SVGID_22_)" />
	<linearGradient
   id="SVGID_23_"
   y2="144.46001"
   gradientUnits="userSpaceOnUse"
   y1="195.5"
   x2="162.71001"
   x1="162.71001">
		<stop
   stop-color="#515151"
   offset="0"
   id="stop197" />
		<stop
   stop-color="#fff"
   offset=".6947"
   id="stop199" />
	</linearGradient>
	<polygon
   points="148.42,147.79 169.12,144.46 184.61,149.24 140.81,195.5 "
   id="polygon202"
   style="fill:url(#SVGID_23_)" />
	<polygon
   points="208.92,144.54 223.44,138.32 236.52,138.37 220.53,146.46 "
   id="polygon204"
   style="fill:#efefef" />
	<linearGradient
   id="SVGID_24_"
   y2="138.37"
   gradientUnits="userSpaceOnUse"
   y1="124.79"
   x2="242.52"
   x1="242.52">
		<stop
   stop-color="#A7A7A7"
   offset="0"
   id="stop206" />
		<stop
   stop-color="#fff"
   offset=".5"
   id="stop208" />
	</linearGradient>
	<polygon
   points="248.53,124.79 242.47,126.91 236.52,138.37 "
   id="polygon211"
   style="fill:url(#SVGID_24_)" />
	<linearGradient
   id="SVGID_25_"
   y2="142.92"
   gradientUnits="userSpaceOnUse"
   y1="92.738998"
   x2="217.88"
   x1="205.52">
		<stop
   stop-color="#545454"
   offset="0"
   id="stop213" />
		<stop
   stop-color="#fff"
   offset="1"
   id="stop215" />
	</linearGradient>
	<polygon
   points="223.44,138.32 184.79,108.04 212.17,84.081 229.71,91.496 "
   id="polygon218"
   style="fill:url(#SVGID_25_)" />
	<linearGradient
   id="SVGID_26_"
   y2="138.3"
   gradientUnits="userSpaceOnUse"
   y1="95.594002"
   x2="235.98"
   x1="218.81">
		<stop
   stop-color="#767676"
   offset="0"
   id="stop220" />
		<stop
   offset="1"
   id="stop222" />
	</linearGradient>
	<polygon
   points="242.47,126.91 229.71,91.496 223.44,138.32 236.52,138.37 "
   id="polygon225"
   style="fill:url(#SVGID_26_)" />
	<linearGradient
   id="SVGID_27_"
   y2="76.922997"
   gradientUnits="userSpaceOnUse"
   y1="76.922997"
   x2="229.71001"
   x1="212.17">
		<stop
   stop-color="#2B2B2B"
   offset="0"
   id="stop227" />
		<stop
   stop-color="#fff"
   offset="1"
   id="stop229" />
	</linearGradient>
	<polygon
   points="212.17,84.081 228.64,62.352 229.71,91.496 "
   id="polygon232"
   style="fill:url(#SVGID_27_)" />
	<linearGradient
   id="SVGID_28_"
   y2="87.755997"
   gradientUnits="userSpaceOnUse"
   y1="81.838997"
   x2="228.82001"
   x1="240.82001">
		<stop
   stop-color="#fff"
   offset="0"
   id="stop234" />
		<stop
   offset="1"
   id="stop236" />
	</linearGradient>
	<polygon
   points="245.52,105.02 229.71,91.496 228.64,62.352 237.96,77.52 "
   id="polygon239"
   style="fill:url(#SVGID_28_)" />
	<linearGradient
   id="SVGID_29_"
   y2="124.31"
   gradientUnits="userSpaceOnUse"
   y1="99.665001"
   x2="247.3"
   x1="237.53">
		<stop
   stop-color="#fff"
   offset="0"
   id="stop241" />
		<stop
   stop-color="#585858"
   offset="1"
   id="stop243" />
	</linearGradient>
	<polygon
   points="246.73,109.45 248.53,124.79 242.47,126.91 229.71,91.496 245.52,105.02 "
   id="polygon246"
   style="fill:url(#SVGID_29_)" />
	<linearGradient
   id="SVGID_30_"
   y2="144.94"
   gradientUnits="userSpaceOnUse"
   y1="191.03999"
   x2="192.95"
   x1="171.21001">
		<stop
   stop-color="#515151"
   offset="0"
   id="stop248" />
		<stop
   stop-color="#fff"
   offset=".6947"
   id="stop250" />
	</linearGradient>
	<polygon
   points="220.53,146.46 140.81,195.5 184.61,149.24 208.92,144.54 "
   id="polygon253"
   style="fill:url(#SVGID_30_)" />
	<linearGradient
   id="SVGID_31_"
   y2="162.74001"
   gradientUnits="userSpaceOnUse"
   y1="162.74001"
   x2="236.50999"
   x1="168.83">
		<stop
   stop-color="#515151"
   offset="0"
   id="stop255" />
		<stop
   stop-color="#fff"
   offset=".6947"
   id="stop257" />
	</linearGradient>
	<polygon
   points="168.83,187.12 236.52,138.37 220.53,146.46 "
   id="polygon260"
   style="fill:url(#SVGID_31_)" />
	<linearGradient
   id="SVGID_32_"
   y2="189.41"
   gradientUnits="userSpaceOnUse"
   y1="189.41"
   x2="106.02"
   x1="220.53">
		<stop
   stop-color="#fff"
   offset=".4842"
   id="stop262" />
		<stop
   offset="1"
   id="stop264" />
	</linearGradient>
	<polygon
   points="106.02,232.35 168.83,187.12 220.53,146.46 140.81,195.5 "
   id="polygon267"
   style="fill:url(#SVGID_32_)" />
	<linearGradient
   id="SVGID_33_"
   y2="36.979"
   gradientUnits="userSpaceOnUse"
   y1="29.424999"
   x2="69.473999"
   x1="63.098">
		<stop
   stop-color="#fff"
   offset="0"
   id="stop269" />
		<stop
   offset=".9947"
   id="stop271" />
	</linearGradient>
	<polygon
   points="75.719,20.74 51.272,39.053 60.772,42.11 "
   id="polygon274"
   style="fill:url(#SVGID_33_)" />
	<linearGradient
   id="SVGID_34_"
   y2="104.18"
   gradientUnits="userSpaceOnUse"
   y1="104.18"
   x2="53.995998"
   x1="33.076">
		<stop
   stop-color="#2E2E2E"
   offset="0"
   id="stop276" />
		<stop
   stop-color="#fff"
   offset="1"
   id="stop278" />
	</linearGradient>
	<polygon
   points="33.076,96.131 45.421,100.78 53.996,112.22 42.454,111.22 "
   id="polygon281"
   style="fill:url(#SVGID_34_)" />
	<radialGradient
   id="SVGID_35_"
   gradientUnits="userSpaceOnUse"
   cy="74.005997"
   cx="59.917999"
   r="32.648998">
		<stop
   stop-color="#fff"
   offset="0"
   id="stop283" />
		<stop
   offset=".9947"
   id="stop285" />
	</radialGradient>
	<polygon
   points="60.772,42.11 59.495,73.896 93.892,68.589 "
   id="polygon288"
   style="fill:url(#SVGID_35_)" />
	<linearGradient
   id="SVGID_36_"
   y2="94.958"
   gradientUnits="userSpaceOnUse"
   y1="79.870003"
   x2="152.3"
   x1="90.925003">
		<stop
   stop-color="#fff"
   offset=".1737"
   id="stop290" />
		<stop
   stop-color="#767676"
   offset=".6947"
   id="stop292" />
		<stop
   offset="1"
   id="stop294" />
	</linearGradient>
	<polygon
   points="93.892,68.589 156.95,86.237 118.05,98.547 "
   id="polygon297"
   style="fill:url(#SVGID_36_)" />
	<linearGradient
   id="SVGID_37_"
   y2="134.52"
   gradientUnits="userSpaceOnUse"
   y1="87.842003"
   x2="151.60001"
   x1="151.34">
		<stop
   stop-color="#fff"
   offset=".2579"
   id="stop299" />
		<stop
   stop-color="#767676"
   offset=".7579"
   id="stop301" />
		<stop
   offset="1"
   id="stop303" />
	</linearGradient>
	<polygon
   points="118.05,98.547 156.95,86.237 184.79,108.04 150.16,138.32 "
   id="polygon306"
   style="fill:url(#SVGID_37_)" />
	<linearGradient
   id="SVGID_38_"
   y2="143"
   gradientUnits="userSpaceOnUse"
   y1="103.24"
   x2="212.08"
   x1="196.10001">
		<stop
   stop-color="#767676"
   offset="0"
   id="stop308" />
		<stop
   offset="1"
   id="stop310" />
	</linearGradient>
	<polygon
   points="208.92,144.54 184.79,108.04 223.44,138.32 "
   id="polygon313"
   style="fill:url(#SVGID_38_)" />
	<linearGradient
   id="SVGID_39_"
   y2="95.866997"
   gradientUnits="userSpaceOnUse"
   y1="114.41"
   x2="111.15"
   x1="79.066002">
		<stop
   stop-color="#A7A7A7"
   offset="0"
   id="stop315" />
		<stop
   stop-color="#fff"
   offset=".5"
   id="stop317" />
	</linearGradient>
	<line
   y1="98.546997"
   x2="67.083"
   x1="118.05"
   y2="114.67"
   id="line320"
   style="fill:url(#SVGID_39_)" />
	<linearGradient
   id="SVGID_40_"
   y2="100.28"
   gradientUnits="userSpaceOnUse"
   y1="119.94"
   x2="94.211998"
   x1="89.098999">
		<stop
   stop-color="#898989"
   offset="0"
   id="stop322" />
		<stop
   stop-color="#fff"
   offset="1"
   id="stop324" />
	</linearGradient>
	<polygon
   points="108.62,127.16 85.921,126.91 67.083,114.67 118.05,98.547 "
   id="polygon327"
   style="fill:url(#SVGID_40_)" />
	<linearGradient
   id="SVGID_41_"
   y2="167.86"
   gradientUnits="userSpaceOnUse"
   y1="116.89"
   x2="87.470001"
   x1="39.875999">
		<stop
   stop-color="#fff"
   offset="0"
   id="stop329" />
		<stop
   offset=".0684"
   id="stop331" />
		<stop
   offset=".1756"
   id="stop333" />
		<stop
   stop-color="#595959"
   offset=".1895"
   id="stop335" />
		<stop
   stop-color="#fff"
   offset="1"
   id="stop337" />
	</linearGradient>
	<polygon
   points="53.996,112.22 42.454,111.22 77.439,178.12 67.083,125.02 "
   id="polygon340"
   style="fill:url(#SVGID_41_)" />
</g>
<metadata
   id="metadata343"><rdf:RDF><cc:Work><dc:format>image/svg+xml</dc:format><dc:type
         rdf:resource="http://purl.org/dc/dcmitype/StillImage" /><cc:license
         rdf:resource="http://creativecommons.org/publicdomain/zero/1.0/" /><dc:publisher><cc:Agent
           rdf:about="http://openclipart.org/"><dc:title>Openclipart</dc:title></cc:Agent></dc:publisher><dc:title>Diamond</dc:title><dc:date>2013-09-10T02:04:21</dc:date><dc:description>A diamond</dc:description><dc:source>https://openclipart.org/detail/183273</dc:source><dc:creator><cc:Agent><dc:title>belier</dc:title></cc:Agent></dc:creator><dc:subject><rdf:Bag><rdf:li>Bijoux</rdf:li><rdf:li>Gem</rdf:li><rdf:li>Get married</rdf:li><rdf:li>Jewelry</rdf:li><rdf:li>diamant</rdf:li><rdf:li>diamond</rdf:li><rdf:li>gemstones</rdf:li><rdf:li>marier</rdf:li><rdf:li>richesse</rdf:li></rdf:Bag></dc:subject></cc:Work><cc:License
       rdf:about="http://creativecommons.org/publicdomain/zero/1.0/"><cc:permits
         rdf:resource="http://creativecommons.org/ns#Reproduction" /><cc:permits
         rdf:resource="http://creativecommons.org/ns#Distribution" /><cc:permits
         rdf:resource="http://creativecommons.org/ns#DerivativeWorks" /></cc:License></rdf:RDF></metadata></svg>