<?xml version="1.0" encoding="UTF-8" standalone="no"?>
<svg
   height="24"
   version="1.1"
   width="24"
   id="svg171"
   sodipodi:docname="bag-pixel.svg"
   inkscape:version="1.3.2 (091e20e, 2023-11-25, custom)"
   viewBox="0 0 24 24"
   xmlns:inkscape="http://www.inkscape.org/namespaces/inkscape"
   xmlns:sodipodi="http://sodipodi.sourceforge.net/DTD/sodipodi-0.dtd"
   xmlns="http://www.w3.org/2000/svg"
   xmlns:svg="http://www.w3.org/2000/svg"
   xmlns:rdf="http://www.w3.org/1999/02/22-rdf-syntax-ns#"
   xmlns:cc="http://creativecommons.org/ns#"
   xmlns:dc="http://purl.org/dc/elements/1.1/">
  <title
     id="title174">Pixel Bag Icon</title>
  <sodipodi:namedview
     id="namedview171"
     pagecolor="#ffffff"
     bordercolor="#666666"
     borderopacity="1.0"
     inkscape:showpageshadow="2"
     inkscape:pageopacity="0.0"
     inkscape:pagecheckerboard="true"
     inkscape:deskcolor="#d1d1d1"
     inkscape:zoom="17.456699"
     inkscape:cx="11.7147"
     inkscape:cy="6.788225"
     inkscape:window-width="1920"
     inkscape:window-height="1025"
     inkscape:window-x="-8"
     inkscape:window-y="-8"
     inkscape:window-maximized="1"
     inkscape:current-layer="svg171"
     showgrid="true">
    <inkscape:grid
       id="grid1"
       units="px"
       originx="0"
       originy="0"
       spacingx="1"
       spacingy="1"
       empcolor="#3f3fff"
       empopacity="0.25098039"
       color="#3f3fff"
       opacity="0.1254902"
       empspacing="24"
       dotted="false"
       gridanglex="30"
       gridanglez="30"
       visible="true" />
  </sodipodi:namedview>
  <defs
     id="defs1" />
  <g
     id="g174"
     inkscape:label="bag"
     transform="matrix(0.025,0,0,0.025,4,5)">
    <g
       id="g173"
       inkscape:label="fill">
      <rect
         fill="#ffffff"
         height="40"
         width="40"
         x="240"
         y="120"
         id="rect22" />
      <rect
         fill="#ffffff"
         height="40"
         width="40"
         x="280"
         y="120"
         id="rect23" />
      <rect
         fill="#ffffff"
         height="40"
         width="40"
         x="320"
         y="120"
         id="rect24" />
      <rect
         fill="#ffffff"
         height="40"
         width="40"
         x="160"
         y="200"
         id="rect39" />
      <rect
         fill="#ffffff"
         height="40"
         width="40"
         x="440"
         y="200"
         id="rect46" />
      <rect
         fill="#ffffff"
         height="40"
         width="40"
         x="120"
         y="240"
         id="rect51" />
      <rect
         fill="#ffffff"
         height="40"
         width="40"
         x="160"
         y="240"
         id="rect52" />
      <rect
         fill="#ffffff"
         height="40"
         width="40"
         x="200"
         y="240"
         id="rect53" />
      <rect
         fill="#ffffff"
         height="40"
         width="40"
         x="240"
         y="240"
         id="rect54" />
      <rect
         fill="#ffffff"
         height="40"
         width="40"
         x="280"
         y="240"
         id="rect55" />
      <rect
         fill="#ffffff"
         height="40"
         width="40"
         x="320"
         y="240"
         id="rect56" />
      <rect
         fill="#ffffff"
         height="40"
         width="40"
         x="80"
         y="280"
         id="rect64" />
      <rect
         fill="#ffffff"
         height="40"
         width="40"
         x="120"
         y="280"
         id="rect65" />
      <rect
         fill="#ffffff"
         height="40"
         width="40"
         x="160"
         y="280"
         id="rect66" />
      <rect
         fill="#ffffff"
         height="40"
         width="40"
         x="200"
         y="280"
         id="rect67" />
      <rect
         fill="#ffffff"
         height="40"
         width="40"
         x="240"
         y="280"
         id="rect68" />
      <rect
         fill="#ffffff"
         height="40"
         width="40"
         x="280"
         y="280"
         id="rect69" />
      <rect
         fill="#ffffff"
         height="40"
         width="40"
         x="320"
         y="280"
         id="rect70" />
      <rect
         fill="#ffffff"
         height="40"
         width="40"
         x="360"
         y="280"
         id="rect71" />
      <rect
         fill="#ffffff"
         height="40"
         width="40"
         x="40"
         y="320"
         id="rect79" />
      <rect
         fill="#ffffff"
         height="40"
         width="40"
         x="80"
         y="320"
         id="rect80" />
      <rect
         fill="#ffffff"
         height="40"
         width="40"
         x="120"
         y="320"
         id="rect81" />
      <rect
         fill="#ffffff"
         height="40"
         width="40"
         x="160"
         y="320"
         id="rect82" />
      <rect
         fill="#ffffff"
         height="40"
         width="40"
         x="200"
         y="320"
         id="rect83" />
      <rect
         fill="#ffffff"
         height="40"
         width="40"
         x="240"
         y="320"
         id="rect84" />
      <rect
         fill="#ffffff"
         height="40"
         width="40"
         x="280"
         y="320"
         id="rect85" />
      <rect
         fill="#ffffff"
         height="40"
         width="40"
         x="320"
         y="320"
         id="rect86" />
      <rect
         fill="#ffffff"
         height="40"
         width="40"
         x="360"
         y="320"
         id="rect87" />
      <rect
         fill="#ffffff"
         height="40"
         width="40"
         x="40"
         y="360"
         id="rect95" />
      <rect
         fill="#ffffff"
         height="40"
         width="40"
         x="80"
         y="360"
         id="rect96" />
      <rect
         fill="#ffffff"
         height="40"
         width="40"
         x="120"
         y="360"
         id="rect97" />
      <rect
         fill="#ffffff"
         height="40"
         width="40"
         x="160"
         y="360"
         id="rect98" />
      <rect
         fill="#ffffff"
         height="40"
         width="40"
         x="200"
         y="360"
         id="rect99" />
      <rect
         fill="#ffffff"
         height="40"
         width="40"
         x="240"
         y="360"
         id="rect100" />
      <rect
         fill="#ffffff"
         height="40"
         width="40"
         x="280"
         y="360"
         id="rect101" />
      <rect
         fill="#ffffff"
         height="40"
         width="40"
         x="40"
         y="400"
         id="rect111" />
      <rect
         fill="#ffffff"
         height="40"
         width="40"
         x="80"
         y="400"
         id="rect112" />
      <rect
         fill="#ffffff"
         height="40"
         width="40"
         x="120"
         y="400"
         id="rect113" />
      <rect
         fill="#ffffff"
         height="40"
         width="40"
         x="160"
         y="400"
         id="rect114" />
      <rect
         fill="#ffffff"
         height="40"
         width="40"
         x="200"
         y="400"
         id="rect115" />
      <rect
         fill="#ffffff"
         height="40"
         width="40"
         x="240"
         y="400"
         id="rect116" />
      <rect
         fill="#ffffff"
         height="40"
         width="40"
         x="80"
         y="440"
         id="rect128" />
      <rect
         fill="#ffffff"
         height="40"
         width="40"
         x="120"
         y="440"
         id="rect129" />
      <rect
         fill="#ffffff"
         height="40"
         width="40"
         x="160"
         y="440"
         id="rect130" />
      <rect
         fill="#ffffff"
         height="40"
         width="40"
         x="200"
         y="440"
         id="rect131" />
    </g>
    <g
       id="g172"
       inkscape:label="shading">
      <rect
         fill="#bbbeba"
         height="40"
         width="40"
         x="200"
         y="40"
         id="rect7" />
      <rect
         fill="#bbbeba"
         height="40"
         width="40"
         x="240"
         y="40"
         id="rect8" />
      <rect
         fill="#bbbeba"
         height="40"
         width="40"
         x="280"
         y="40"
         id="rect9" />
      <rect
         fill="#bbbeba"
         height="40"
         width="40"
         x="200"
         y="80"
         id="rect14" />
      <rect
         fill="#bbbeba"
         height="40"
         width="40"
         x="360"
         y="80"
         id="rect18" />
      <rect
         fill="#bbbeba"
         height="40"
         width="40"
         x="200"
         y="120"
         id="rect21" />
      <rect
         fill="#bbbeba"
         height="40"
         width="40"
         x="240"
         y="160"
         id="rect30" />
      <rect
         fill="#bbbeba"
         height="40"
         width="40"
         x="280"
         y="160"
         id="rect31" />
      <rect
         fill="#bbbeba"
         height="40"
         width="40"
         x="120"
         y="200"
         id="rect38" />
      <rect
         fill="#bbbeba"
         height="40"
         width="40"
         x="200"
         y="200"
         id="rect40" />
      <rect
         fill="#bbbeba"
         height="40"
         width="40"
         x="240"
         y="200"
         id="rect41" />
      <rect
         fill="#bbbeba"
         height="40"
         width="40"
         x="400"
         y="200"
         id="rect45" />
      <rect
         fill="#bbbeba"
         height="40"
         width="40"
         x="480"
         y="200"
         id="rect47" />
      <rect
         fill="#bbbeba"
         height="40"
         width="40"
         x="80"
         y="240"
         id="rect50" />
      <rect
         fill="#bbbeba"
         height="40"
         width="40"
         x="360"
         y="240"
         id="rect57" />
      <rect
         fill="#bbbeba"
         height="40"
         width="40"
         x="400"
         y="240"
         id="rect58" />
      <rect
         fill="#bbbeba"
         height="40"
         width="40"
         x="440"
         y="240"
         id="rect59" />
      <rect
         fill="#bbbeba"
         height="40"
         width="40"
         x="480"
         y="240"
         id="rect60" />
      <rect
         fill="#bbbeba"
         height="40"
         width="40"
         x="520"
         y="240"
         id="rect61" />
      <rect
         fill="#bbbeba"
         height="40"
         width="40"
         x="400"
         y="280"
         id="rect72" />
      <rect
         fill="#bbbeba"
         height="40"
         width="40"
         x="440"
         y="280"
         id="rect73" />
      <rect
         fill="#bbbeba"
         height="40"
         width="40"
         x="480"
         y="280"
         id="rect74" />
      <rect
         fill="#bbbeba"
         height="40"
         width="40"
         x="520"
         y="280"
         id="rect75" />
      <rect
         fill="#bbbeba"
         height="40"
         width="40"
         x="560"
         y="280"
         id="rect76" />
      <rect
         fill="#bbbeba"
         height="40"
         width="40"
         x="400"
         y="320"
         id="rect88" />
      <rect
         fill="#bbbeba"
         height="40"
         width="40"
         x="440"
         y="320"
         id="rect89" />
      <rect
         fill="#bbbeba"
         height="40"
         width="40"
         x="480"
         y="320"
         id="rect90" />
      <rect
         fill="#bbbeba"
         height="40"
         width="40"
         x="520"
         y="320"
         id="rect91" />
      <rect
         fill="#bbbeba"
         height="40"
         width="40"
         x="560"
         y="320"
         id="rect92" />
      <rect
         fill="#bbbeba"
         height="40"
         width="40"
         x="320"
         y="360"
         id="rect102" />
      <rect
         fill="#bbbeba"
         height="40"
         width="40"
         x="360"
         y="360"
         id="rect103" />
      <rect
         fill="#bbbeba"
         height="40"
         width="40"
         x="400"
         y="360"
         id="rect104" />
      <rect
         fill="#bbbeba"
         height="40"
         width="40"
         x="440"
         y="360"
         id="rect105" />
      <rect
         fill="#bbbeba"
         height="40"
         width="40"
         x="480"
         y="360"
         id="rect106" />
      <rect
         fill="#bbbeba"
         height="40"
         width="40"
         x="520"
         y="360"
         id="rect107" />
      <rect
         fill="#bbbeba"
         height="40"
         width="40"
         x="560"
         y="360"
         id="rect108" />
      <rect
         fill="#bbbeba"
         height="40"
         width="40"
         x="280"
         y="400"
         id="rect117" />
      <rect
         fill="#bbbeba"
         height="40"
         width="40"
         x="320"
         y="400"
         id="rect118" />
      <rect
         fill="#bbbeba"
         height="40"
         width="40"
         x="360"
         y="400"
         id="rect119" />
      <rect
         fill="#bbbeba"
         height="40"
         width="40"
         x="400"
         y="400"
         id="rect120" />
      <rect
         fill="#bbbeba"
         height="40"
         width="40"
         x="440"
         y="400"
         id="rect121" />
      <rect
         fill="#bbbeba"
         height="40"
         width="40"
         x="480"
         y="400"
         id="rect122" />
      <rect
         fill="#bbbeba"
         height="40"
         width="40"
         x="520"
         y="400"
         id="rect123" />
      <rect
         fill="#bbbeba"
         height="40"
         width="40"
         x="560"
         y="400"
         id="rect124" />
      <rect
         fill="#bbbeba"
         height="40"
         width="40"
         x="40"
         y="440"
         id="rect127" />
      <rect
         fill="#bbbeba"
         height="40"
         width="40"
         x="240"
         y="440"
         id="rect132" />
      <rect
         fill="#bbbeba"
         height="40"
         width="40"
         x="280"
         y="440"
         id="rect133" />
      <rect
         fill="#bbbeba"
         height="40"
         width="40"
         x="320"
         y="440"
         id="rect134" />
      <rect
         fill="#bbbeba"
         height="40"
         width="40"
         x="360"
         y="440"
         id="rect135" />
      <rect
         fill="#bbbeba"
         height="40"
         width="40"
         x="400"
         y="440"
         id="rect136" />
      <rect
         fill="#bbbeba"
         height="40"
         width="40"
         x="440"
         y="440"
         id="rect137" />
      <rect
         fill="#bbbeba"
         height="40"
         width="40"
         x="480"
         y="440"
         id="rect138" />
      <rect
         fill="#bbbeba"
         height="40"
         width="40"
         x="520"
         y="440"
         id="rect139" />
      <rect
         fill="#bbbeba"
         height="40"
         width="40"
         x="80"
         y="480"
         id="rect142" />
      <rect
         fill="#bbbeba"
         height="40"
         width="40"
         x="120"
         y="480"
         id="rect143" />
      <rect
         fill="#bbbeba"
         height="40"
         width="40"
         x="160"
         y="480"
         id="rect144" />
      <rect
         fill="#bbbeba"
         height="40"
         width="40"
         x="200"
         y="480"
         id="rect145" />
      <rect
         fill="#bbbeba"
         height="40"
         width="40"
         x="240"
         y="480"
         id="rect146" />
      <rect
         fill="#bbbeba"
         height="40"
         width="40"
         x="280"
         y="480"
         id="rect147" />
      <rect
         fill="#bbbeba"
         height="40"
         width="40"
         x="320"
         y="480"
         id="rect148" />
      <rect
         fill="#bbbeba"
         height="40"
         width="40"
         x="360"
         y="480"
         id="rect149" />
      <rect
         fill="#bbbeba"
         height="40"
         width="40"
         x="400"
         y="480"
         id="rect150" />
      <rect
         fill="#bbbeba"
         height="40"
         width="40"
         x="440"
         y="480"
         id="rect151" />
      <rect
         fill="#bbbeba"
         height="40"
         width="40"
         x="480"
         y="480"
         id="rect152" />
      <rect
         fill="#bbbeba"
         height="40"
         width="40"
         x="160"
         y="520"
         id="rect156" />
      <rect
         fill="#bbbeba"
         height="40"
         width="40"
         x="200"
         y="520"
         id="rect157" />
      <rect
         fill="#bbbeba"
         height="40"
         width="40"
         x="240"
         y="520"
         id="rect158" />
      <rect
         fill="#bbbeba"
         height="40"
         width="40"
         x="280"
         y="520"
         id="rect159" />
      <rect
         fill="#bbbeba"
         height="40"
         width="40"
         x="320"
         y="520"
         id="rect160" />
      <rect
         fill="#bbbeba"
         height="40"
         width="40"
         x="360"
         y="520"
         id="rect161" />
      <rect
         fill="#bbbeba"
         height="40"
         width="40"
         x="400"
         y="520"
         id="rect162" />
    </g>
    <g
       id="g171"
       inkscape:label="outline">
      <rect
         fill="#000000"
         height="40"
         width="40"
         x="200"
         y="0"
         id="rect1" />
      <rect
         fill="#000000"
         height="40"
         width="40"
         x="240"
         y="0"
         id="rect2" />
      <rect
         fill="#000000"
         height="40"
         width="40"
         x="280"
         y="0"
         id="rect3" />
      <rect
         fill="#000000"
         height="40"
         width="40"
         x="320"
         y="0"
         id="rect4" />
      <rect
         fill="#000000"
         height="40"
         width="40"
         x="360"
         y="0"
         id="rect5" />
      <rect
         fill="#000000"
         height="40"
         width="40"
         x="160"
         y="40"
         id="rect6" />
      <rect
         fill="#000000"
         height="40"
         width="40"
         x="320"
         y="40"
         id="rect10" />
      <rect
         fill="#000000"
         height="40"
         width="40"
         x="360"
         y="40"
         id="rect11" />
      <rect
         fill="#000000"
         height="40"
         width="40"
         x="400"
         y="40"
         id="rect12" />
      <rect
         fill="#000000"
         height="40"
         width="40"
         x="160"
         y="80"
         id="rect13" />
      <rect
         fill="#000000"
         height="40"
         width="40"
         x="240"
         y="80"
         id="rect15" />
      <rect
         fill="#000000"
         height="40"
         width="40"
         x="280"
         y="80"
         id="rect16" />
      <rect
         fill="#000000"
         height="40"
         width="40"
         x="320"
         y="80"
         id="rect17" />
      <rect
         fill="#000000"
         height="40"
         width="40"
         x="400"
         y="80"
         id="rect19" />
      <rect
         fill="#000000"
         height="40"
         width="40"
         x="160"
         y="120"
         id="rect20" />
      <rect
         fill="#000000"
         height="40"
         width="40"
         x="360"
         y="120"
         id="rect25" />
      <rect
         fill="#000000"
         height="40"
         width="40"
         x="400"
         y="120"
         id="rect26" />
      <rect
         fill="#000000"
         height="40"
         width="40"
         x="120"
         y="160"
         id="rect27" />
      <rect
         fill="#000000"
         height="40"
         width="40"
         x="160"
         y="160"
         id="rect28" />
      <rect
         fill="#000000"
         height="40"
         width="40"
         x="200"
         y="160"
         id="rect29" />
      <rect
         fill="#000000"
         height="40"
         width="40"
         x="320"
         y="160"
         id="rect32" />
      <rect
         fill="#000000"
         height="40"
         width="40"
         x="360"
         y="160"
         id="rect33" />
      <rect
         fill="#000000"
         height="40"
         width="40"
         x="400"
         y="160"
         id="rect34" />
      <rect
         fill="#000000"
         height="40"
         width="40"
         x="440"
         y="160"
         id="rect35" />
      <rect
         fill="#000000"
         height="40"
         width="40"
         x="480"
         y="160"
         id="rect36" />
      <rect
         fill="#000000"
         height="40"
         width="40"
         x="80"
         y="200"
         id="rect37" />
      <rect
         fill="#000000"
         height="40"
         width="40"
         x="280"
         y="200"
         id="rect42" />
      <rect
         fill="#000000"
         height="40"
         width="40"
         x="320"
         y="200"
         id="rect43" />
      <rect
         fill="#000000"
         height="40"
         width="40"
         x="360"
         y="200"
         id="rect44" />
      <rect
         fill="#000000"
         height="40"
         width="40"
         x="520"
         y="200"
         id="rect48" />
      <rect
         fill="#000000"
         height="40"
         width="40"
         x="40"
         y="240"
         id="rect49" />
      <rect
         fill="#000000"
         height="40"
         width="40"
         x="560"
         y="240"
         id="rect62" />
      <rect
         fill="#000000"
         height="40"
         width="40"
         x="40"
         y="280"
         id="rect63" />
      <rect
         fill="#000000"
         height="40"
         width="40"
         x="600"
         y="280"
         id="rect77" />
      <rect
         fill="#000000"
         height="40"
         width="40"
         x="0"
         y="320"
         id="rect78" />
      <rect
         fill="#000000"
         height="40"
         width="40"
         x="600"
         y="320"
         id="rect93" />
      <rect
         fill="#000000"
         height="40"
         width="40"
         x="0"
         y="360"
         id="rect94" />
      <rect
         fill="#000000"
         height="40"
         width="40"
         x="600"
         y="360"
         id="rect109" />
      <rect
         fill="#000000"
         height="40"
         width="40"
         x="0"
         y="400"
         id="rect110" />
      <rect
         fill="#000000"
         height="40"
         width="40"
         x="600"
         y="400"
         id="rect125" />
      <rect
         fill="#000000"
         height="40"
         width="40"
         x="0"
         y="440"
         id="rect126" />
      <rect
         fill="#000000"
         height="40"
         width="40"
         x="560"
         y="440"
         id="rect140" />
      <rect
         fill="#000000"
         height="40"
         width="40"
         x="40"
         y="480"
         id="rect141" />
      <rect
         fill="#000000"
         height="40"
         width="40"
         x="520"
         y="480"
         id="rect153" />
      <rect
         fill="#000000"
         height="40"
         width="40"
         x="80"
         y="520"
         id="rect154" />
      <rect
         fill="#000000"
         height="40"
         width="40"
         x="120"
         y="520"
         id="rect155" />
      <rect
         fill="#000000"
         height="40"
         width="40"
         x="440"
         y="520"
         id="rect163" />
      <rect
         fill="#000000"
         height="40"
         width="40"
         x="480"
         y="520"
         id="rect164" />
      <rect
         fill="#000000"
         height="40"
         width="40"
         x="160"
         y="560"
         id="rect165" />
      <rect
         fill="#000000"
         height="40"
         width="40"
         x="200"
         y="560"
         id="rect166" />
      <rect
         fill="#000000"
         height="40"
         width="40"
         x="240"
         y="560"
         id="rect167" />
      <rect
         fill="#000000"
         height="40"
         width="40"
         x="280"
         y="560"
         id="rect168" />
      <rect
         fill="#000000"
         height="40"
         width="40"
         x="320"
         y="560"
         id="rect169" />
      <rect
         fill="#000000"
         height="40"
         width="40"
         x="360"
         y="560"
         id="rect170" />
      <rect
         fill="#000000"
         height="40"
         width="40"
         x="400"
         y="560"
         id="rect171" />
    </g>
  </g>
  <metadata
     id="metadata174">
    <rdf:RDF>
      <cc:Work
         rdf:about="">
        <dc:title>Pixel Bag Icon</dc:title>
        <dc:date>2021-12-23</dc:date>
        <dc:creator>
          <cc:Agent>
            <dc:title>Jordan Irwin (AntumDeluge)</dc:title>
          </cc:Agent>
        </dc:creator>
        <dc:publisher>
          <cc:Agent>
            <dc:title>Stendhal Game</dc:title>
          </cc:Agent>
        </dc:publisher>
        <dc:source>https://openclipart.org/detail/31207</dc:source>
        <dc:subject>
          <rdf:Bag>
            <rdf:li>icon</rdf:li>
            <rdf:li>menu</rdf:li>
            <rdf:li>button</rdf:li>
            <rdf:li>cursor</rdf:li>
            <rdf:li>Stendhal</rdf:li>
            <rdf:li>bag</rdf:li>
            <rdf:li>inventory</rdf:li>
            <rdf:li>contents</rdf:li>
            <rdf:li>container</rdf:li>
            <rdf:li>pixel</rdf:li>
            <rdf:li>pixelized</rdf:li>
          </rdf:Bag>
        </dc:subject>
        <dc:description>A simple pixelized bag icon.</dc:description>
        <dc:contributor>
          <cc:Agent>
            <dc:title>rg1024</dc:title>
          </cc:Agent>
        </dc:contributor>
        <cc:license
           rdf:resource="http://creativecommons.org/publicdomain/zero/1.0/" />
      </cc:Work>
      <cc:License
         rdf:about="http://creativecommons.org/publicdomain/zero/1.0/">
        <cc:permits
           rdf:resource="http://creativecommons.org/ns#Reproduction" />
        <cc:permits
           rdf:resource="http://creativecommons.org/ns#Distribution" />
        <cc:permits
           rdf:resource="http://creativecommons.org/ns#DerivativeWorks" />
      </cc:License>
    </rdf:RDF>
  </metadata>
</svg>
