<?xml version="1.0" encoding="UTF-8" standalone="no"?>
<!-- Created with Inkscape (http://www.inkscape.org/) -->

<svg
   width="24"
   height="24"
   viewBox="0 0 6.3499999 6.35"
   version="1.1"
   id="svg1"
   inkscape:version="1.3.2 (091e20e, 2023-11-25, custom)"
   sodipodi:docname="bag.svg"
   xmlns:inkscape="http://www.inkscape.org/namespaces/inkscape"
   xmlns:sodipodi="http://sodipodi.sourceforge.net/DTD/sodipodi-0.dtd"
   xmlns="http://www.w3.org/2000/svg"
   xmlns:svg="http://www.w3.org/2000/svg"
   xmlns:rdf="http://www.w3.org/1999/02/22-rdf-syntax-ns#"
   xmlns:cc="http://creativecommons.org/ns#"
   xmlns:dc="http://purl.org/dc/elements/1.1/">
  <title
     id="title1">Bag Icon</title>
  <sodipodi:namedview
     id="namedview1"
     pagecolor="#ffffff"
     bordercolor="#666666"
     borderopacity="1.0"
     inkscape:showpageshadow="2"
     inkscape:pageopacity="0.0"
     inkscape:pagecheckerboard="true"
     inkscape:deskcolor="#d1d1d1"
     inkscape:document-units="px"
     inkscape:zoom="12.07284"
     inkscape:cx="1.946518"
     inkscape:cy="16.690356"
     inkscape:window-width="1920"
     inkscape:window-height="1025"
     inkscape:window-x="-8"
     inkscape:window-y="-8"
     inkscape:window-maximized="1"
     inkscape:current-layer="g2" />
  <defs
     id="defs1" />
  <g
     id="g2"
     transform="translate(-117.73958,-60.654516)"
     inkscape:label="bag">
    <path
       id="path25586"
       style="display:inline;fill:#ffffff;fill-opacity:1;stroke-width:0.142074"
       d="m 121.14591,61.915307 c -0.24127,0.0059 -0.48676,0.01985 -0.71123,0.116545 -0.19606,0.06112 -0.42949,0.06657 -0.5653,0.243235 -0.10458,0.175572 -0.0618,0.392338 -0.002,0.575699 -0.0112,0.185312 -0.18153,0.307531 -0.29916,0.43392 -0.20555,0.22272 -0.45207,0.420391 -0.5705,0.707852 -0.10356,0.201575 -0.23054,0.413654 -0.1912,0.65036 -0.008,0.20004 0.0977,0.369414 0.25233,0.487251 0.17697,0.171506 0.41502,0.255176 0.60614,0.407125 0.25732,0.08747 0.53586,0.08049 0.79214,0.173516 0.34007,0.04523 0.68656,0.03412 1.02861,0.02029 0.20408,-0.05443 0.40338,-0.128651 0.61576,-0.150623 0.19407,-0.01762 0.37726,-0.0839 0.53746,-0.195628 0.15776,-0.105443 0.29681,-0.26944 0.33324,-0.460715 0.0809,-0.301928 0.0669,-0.621027 -0.02,-0.91961 -0.0753,-0.207878 -0.20622,-0.39606 -0.39568,-0.515346 -0.15606,-0.107223 -0.31857,-0.204924 -0.45057,-0.342609 -0.15793,-0.127431 -0.34963,-0.206188 -0.5476,-0.245316 0.0125,-0.165902 0.13917,-0.33668 0.154,-0.516647 0.002,-0.237829 -0.19732,-0.431554 -0.42715,-0.458633 -0.0459,-0.0076 -0.0924,-0.01124 -0.13892,-0.01066 z"
       inkscape:label="fill" />
    <g
       id="g26468"
       inkscape:label="shading-dark"
       style="display:inline"
       transform="matrix(0.50449821,0,0,0.50449821,127.69503,39.299018)">
      <path
         id="path24781"
         style="fill:#686a5c;fill-opacity:1;stroke-width:0.282222"
         d="m -11.746905,47.897333 c -0.191087,0.09702 -0.43345,0.202239 -0.624537,0.299256 -0.09623,0.09002 -0.138728,0.174529 -0.228173,0.271317 0.02631,0.07126 0.06769,0.136082 0.09749,0.206022 0.05628,0.116844 0.113892,0.233568 0.171542,0.34933 0.03718,0.04367 0.104932,0.01257 0.154769,0.03698 0.101869,0.02425 0.201839,0.05579 0.301204,0.08866 l 0.493728,-0.425477 c -0.03518,-0.09221 -0.06536,-0.186503 -0.103978,-0.277292 -0.07765,-0.168248 -0.164454,-0.332315 -0.246798,-0.498056 -0.0052,-0.01687 -0.01042,-0.03377 -0.01525,-0.05075 z"
         sodipodi:nodetypes="cccccccccccc" />
      <path
         style="fill:#686a5c;fill-opacity:1;stroke-width:0.282222"
         d="m -12.408455,47.517857 c 0.0715,-0.0068 0.14624,-0.01552 0.216071,0.006 0.04336,0.0191 0.04774,0.07512 0.0669,0.113534 0.03894,0.116781 0.06729,0.239918 0.06156,0.363715 0.0041,0.04442 -0.03427,0.07242 -0.06768,0.09334 -0.05956,0.03747 -0.123818,0.06681 -0.188621,0.09391 -0.12943,-0.05434 -0.258859,-0.10868 -0.388289,-0.16302 -0.04573,-0.122939 -0.09147,-0.245879 -0.137201,-0.368818 0.03748,-0.03932 0.0918,-0.056 0.140405,-0.07748 0.04615,-0.01821 0.093,-0.03465 0.140259,-0.04973"
         id="path24771"
         sodipodi:nodetypes="ccccccc" />
      <path
         style="fill:#686a5c;fill-opacity:1;stroke-width:0.282222"
         d="m -14.462846,47.064938 c -0.01652,0.06714 0.05832,0.106843 0.097,0.149054 0.05211,0.05076 0.09704,0.113358 0.168473,0.138419 0.07755,0.03299 0.161732,0.05641 0.225553,0.11435 0.04494,0.0345 0.102474,0.02763 0.154934,0.02309 0.16875,-0.0089 0.33759,-0.01597 0.506363,-0.02443 0.08033,-0.02721 0.177513,-0.05307 0.215468,-0.137744 0.02813,-0.04822 0.06107,-0.118617 0.01389,-0.165865 -0.07266,-0.07614 -0.184675,-0.07614 -0.28126,-0.09363 -0.156326,-0.01727 -0.313835,-0.0035 -0.470631,-0.01089 -0.187777,3.25e-4 -0.375518,0.0057 -0.563307,0.0069 -0.02214,2.46e-4 -0.04449,6.2e-4 -0.06649,7.87e-4 z"
         id="path32091"
         sodipodi:nodetypes="ccccccccccccc" />
    </g>
    <g
       id="g26411"
       inkscape:label="shading-light"
       style="display:inline"
       transform="matrix(0.50449821,0,0,0.50449821,127.69503,39.299018)">
      <path
         style="fill:#bbbeba;fill-opacity:1;stroke-width:0.282223"
         d="m -11.175372,47.633966 c 0.07404,0.383285 -0.21049,0.681274 -0.309497,0.999854 -0.03732,0.347317 -0.392857,0.445306 -0.685249,0.375028 -0.299435,-0.0021 -0.335603,0.371619 -0.597484,0.470429 -0.39566,0.308496 -0.919996,0.46122 -1.203601,0.899105 -0.288059,0.417971 -0.794827,0.588241 -1.25683,0.73719 -0.491367,0.161445 -1.027204,0.101642 -1.50942,-0.06247 -0.167991,0.309145 0.344546,0.334171 0.484171,0.534927 0.507665,0.297069 1.110259,0.34491 1.674367,0.46766 0.925718,0.165098 1.890421,0.195449 2.804388,-0.05229 0.346597,-0.07921 0.693193,-0.158423 1.03979,-0.237635 0.479946,-0.01273 0.8175687,-0.435936 1.0536412,-0.809286 0.2137107,-0.317982 0.2086307,-0.712886 0.2155658,-1.080917 0.0021,-0.474078 -0.133969,-0.940918 -0.3824316,-1.343903 -0.3004494,-0.421288 -0.7207954,-0.742802 -1.1615854,-1.006109 -0.05527,0.03614 -0.11055,0.07228 -0.165825,0.108423 z"
         id="path27045"
         sodipodi:nodetypes="ccccccccsccccccscc" />
      <path
         style="fill:#bbbeba;fill-opacity:1;stroke-width:0.282222"
         d="m -12.358757,47.238275 c 0.141918,0.144815 0.283837,0.289629 0.425755,0.434444 0.03987,0.02397 0.08758,-0.0046 0.125555,-0.02023 0.03829,-0.01535 0.06854,-0.04243 0.09595,-0.07251 0.07954,-0.0792 0.158775,-0.158708 0.237983,-0.238241 -0.15585,-0.06608 -0.295111,-0.165472 -0.451886,-0.2296 -0.12712,0.02154 -0.255593,0.04275 -0.376924,0.0877 -0.02033,0.0094 -0.04487,0.0178 -0.05644,0.03844 z"
         id="path24769"
         sodipodi:nodetypes="cccccc" />
      <path
         style="fill:#bbbeba;fill-opacity:1;stroke-width:0.282222"
         d="m -14.900567,46.839491 c 0.122093,0.08193 0.239051,0.17269 0.370353,0.239898 0.04733,0.01167 0.08631,0.05104 0.135415,0.05325 0.06921,-0.0048 0.134422,-0.03117 0.201033,-0.04856 0.05824,-0.01922 0.11992,-0.01846 0.180255,-0.02453 -0.08751,-0.05942 -0.170645,-0.127121 -0.266624,-0.172686 -0.117874,-0.04971 -0.247294,-0.05753 -0.372824,-0.07225 -0.08323,-5.65e-4 -0.247608,0.02487 -0.247608,0.02487 z"
         id="path30069"
         sodipodi:nodetypes="ccccccccc" />
      <path
         style="fill:#bbbeba;fill-opacity:1;stroke-width:0.282222"
         d="m -15.213467,45.645487 c -0.0793,0.08701 -0.111044,0.207307 -0.197265,0.288954 -0.0066,0.06726 0.03067,0.128073 0.04416,0.192318 0.0311,0.09693 0.05225,0.201242 0.11256,0.285123 0.0425,0.04763 0.102594,0.09356 0.170045,0.0834 0.165692,-0.0033 0.331913,2.23e-4 0.49694,-0.01763 0.0082,-0.126937 0.06051,-0.245392 0.108199,-0.36155 0.0624,-0.141505 0.183051,-0.242858 0.299953,-0.338511 0.02842,-0.02719 0.0856,-0.06498 0.0942,-0.08794 -0.375916,-0.02182 -0.752476,-0.03176 -1.128792,-0.04416 z"
         id="path24751"
         sodipodi:nodetypes="cccccccccc" />
      <path
         style="fill:#bbbeba;fill-opacity:1;stroke-width:0.282223"
         d="m -13.928949,45.141871 c -0.02836,0.07681 -0.05672,0.153627 -0.08508,0.23044 -0.0065,0.138539 0.04521,0.269959 0.0861,0.399776 0.06953,0.04603 0.157656,0.04454 0.233447,0.07612 0.402966,0.11793 0.796822,0.274684 1.212755,0.342578 0.07647,0.01939 0.176268,0.01773 0.198601,-0.0725 0.09861,-0.0911 0.154474,-0.217949 0.173989,-0.349257 0.03104,-0.07685 0.06733,-0.153785 -1.33e-4,-0.224251 -0.04818,-0.064 -0.100657,-0.125287 -0.154199,-0.184565 -0.103679,-0.08998 -0.239333,-0.128178 -0.365824,-0.174226 -0.230893,-0.06684 -0.47287,-0.07827 -0.711192,-0.09659 -0.197817,-0.01433 -0.393481,0.02545 -0.588464,0.05248 z"
         id="path27665"
         sodipodi:nodetypes="ccccsccsccccc" />
    </g>
    <g
       id="g26358"
       inkscape:label="outline"
       style="display:inline"
       transform="matrix(0.50449821,0,0,0.50449821,127.69503,39.299018)">
      <path
         style="fill:#000000;fill-opacity:1;stroke-width:0.282222"
         d="m -12.058826,48.267829 c 0.06919,-0.178586 0.371756,0.159773 0.530549,0.175614 0.171111,0.182382 -0.167276,0.558063 -0.419859,0.461285 -0.324124,-0.123539 -0.158745,-0.39749 -0.110683,-0.636896 z"
         id="path24783"
         sodipodi:nodetypes="ccccc" />
      <path
         style="fill:#000000;fill-opacity:1;stroke-width:0.282222"
         d="m -12.888848,45.493104 c 0.305937,-0.119233 0.554696,0.07854 0.349013,0.3791 -0.04936,0.434387 -0.576424,0.380937 -0.890785,0.510156 -0.430332,0.07194 -0.880167,0.08991 -1.31135,0.06795 -0.01194,-0.396852 0.404738,-0.759716 0.800732,-0.770956 0.353706,-0.04443 0.707671,-0.09303 1.052415,-0.186262"
         id="path24747" />
      <path
         style="fill:#000000;fill-opacity:1;stroke-width:0.282222"
         d="m -14.059085,44.936417 c 0.438557,-0.105884 0.903111,-0.135546 1.352218,-0.09578 0.456073,0.05452 0.852112,0.438675 0.848273,0.911185 -0.02973,0.357396 -0.280701,0.696669 -0.30595,1.02605 0.5326,0.09497 1.020978,0.370219 1.38965,0.764703 0.488928,0.340915 1.0853891,0.644979 1.29556,1.245015 0.186187,0.37101 0.2130395,0.802297 0.234932,1.21039 -0.035792,0.413028 -0.061399,0.859944 -0.2821252,1.22198 -0.2080102,0.310483 -0.5020058,0.537826 -0.8417008,0.689998 -0.41528,0.208255 -0.379788,0.180024 -0.820693,0.310676 0,0 -1.28867,0.228777 -1.69418,0.200323 -0.624871,-0.0063 -1.319246,-0.006 -1.827819,-0.09667 -0.417874,-0.100748 -0.916039,-0.156035 -1.300964,-0.361794 -0.435791,-0.241889 -0.92277,-0.494135 -1.266507,-0.900283 -0.377586,-0.288304 -0.371768,-0.812109 -0.347944,-1.242165 0.131326,-0.479678 0.393942,-0.914395 0.637076,-1.345003 0.398514,-0.49926 0.898001,-0.909306 1.302253,-1.402493 0.37051,-0.3467 -0.0754,-0.803977 0.05762,-1.216618 0.02772,-0.419027 0.459645,-0.648578 0.832698,-0.70064 0.250011,-0.05857 0.498028,-0.125798 0.737621,-0.218885 m 1.607722,7.136331 c 0.449561,-0.07923 0.90105,-0.15914 1.353182,-0.229626 0.499972,-0.10758 1.043126,-0.319747 1.2769467,-0.811476 0.2456388,-0.339796 0.3253704,-0.749314 0.2983387,-1.162713 0.00319,-0.574011 -0.1946614,-1.16885 -0.6380344,-1.551709 -0.53796,-0.369906 -1.042641,-0.795991 -1.622542,-1.101669 -0.176506,-0.104028 -0.589172,-0.04549 -0.269149,0.177652 0.09522,0.0383 0.213175,0.390005 0.267288,0.456462 l 0.02211,0.06341 c -0.136837,0.09597 -0.216095,0.321498 -0.410666,0.27528 -0.194763,-0.05324 -0.275682,0.166563 -0.408841,0.262681 -0.140782,-0.156961 -0.348048,-0.477714 -0.672288,-0.444966 -0.534207,-0.131104 -1.080599,-0.239796 -1.588279,-0.455936 -0.290673,-0.396624 -0.718144,-0.208463 -0.98634,0.09047 -0.48387,0.408582 -0.934113,0.881107 -1.174823,1.476569 -0.191169,0.352141 -0.341286,0.730595 -0.322182,1.139955 -0.06018,0.389464 0.29116,0.663611 0.560612,0.884114 0.344353,0.202644 0.685014,0.40635 1.068333,0.586477 0.795592,0.245519 2.049805,0.432445 2.646603,0.388243 0.200739,-0.0024 0.399417,-0.03314 0.599677,-0.04323 m 0.03462,-3.951461 c 0.181622,0.178529 0.214854,-0.315646 0.255233,-0.423802 -0.210649,-0.412233 -0.907024,0.128404 -0.402783,0.320502 0.04898,0.03472 0.09825,0.06903 0.147541,0.103295 z m -0.212115,0.269939 c 0.07423,0.222711 0.013,0.03917 -0.0265,-0.07938 0.0088,0.02646 0.01764,0.05291 0.02646,0.07937 m -0.843389,-0.941672 c 0.2331,0.02161 0.669806,-0.288043 0.212679,-0.27688 -0.469204,-0.158379 0.29081,-0.289458 0.421667,-0.41436 0.300949,-0.22141 0.486084,-0.592575 0.638498,-0.921714 0.250066,-0.477551 -0.35602,-0.686722 -0.728819,-0.67989 -0.403824,-0.03777 -0.815642,-0.02353 -1.196006,0.129302 -0.382845,0.08712 -0.804759,0.136817 -1.092921,0.430726 -0.283861,0.395938 0.03574,0.957105 0.450871,1.129517 0.361095,0.156819 0.608605,0.481813 0.971138,0.632416 0.107686,-0.01901 0.211543,-0.04504 0.322861,-0.02917"
         id="path24739"
         sodipodi:nodetypes="cccccccccccccccccccccccccccccccccccccccccccscccccccccccccc" />
    </g>
  </g>
  <metadata
     id="metadata1">
    <rdf:RDF>
      <cc:Work
         rdf:about="">
        <cc:license
           rdf:resource="http://creativecommons.org/publicdomain/zero/1.0/" />
        <dc:title>Bag Icon</dc:title>
        <dc:date>2021-12-23</dc:date>
        <dc:creator>
          <cc:Agent>
            <dc:title>Jordan Irwin (AntumDeluge)</dc:title>
          </cc:Agent>
        </dc:creator>
        <dc:contributor>
          <cc:Agent>
            <dc:title>rg1024</dc:title>
          </cc:Agent>
        </dc:contributor>
        <dc:subject>
          <rdf:Bag>
            <rdf:li>icon</rdf:li>
            <rdf:li>menu</rdf:li>
            <rdf:li>button</rdf:li>
            <rdf:li>cursor</rdf:li>
            <rdf:li>Stendhal</rdf:li>
            <rdf:li>bag</rdf:li>
            <rdf:li>inventory</rdf:li>
            <rdf:li>contents</rdf:li>
            <rdf:li>container</rdf:li>
          </rdf:Bag>
        </dc:subject>
        <dc:publisher>
          <cc:Agent>
            <dc:title>Stendhal Game</dc:title>
          </cc:Agent>
        </dc:publisher>
        <dc:source>https://openclipart.org/detail/31207</dc:source>
        <dc:description>A simple bag icon.</dc:description>
      </cc:Work>
      <cc:License
         rdf:about="http://creativecommons.org/publicdomain/zero/1.0/">
        <cc:permits
           rdf:resource="http://creativecommons.org/ns#Reproduction" />
        <cc:permits
           rdf:resource="http://creativecommons.org/ns#Distribution" />
        <cc:permits
           rdf:resource="http://creativecommons.org/ns#DerivativeWorks" />
      </cc:License>
    </rdf:RDF>
  </metadata>
</svg>
