<?xml version="1.0" encoding="UTF-8" standalone="no"?>
<svg
   height="24"
   version="1.1"
   width="24"
   id="svg45"
   sodipodi:docname="border.svg"
   inkscape:version="1.3.2 (091e20e, 2023-11-25, custom)"
   xmlns:inkscape="http://www.inkscape.org/namespaces/inkscape"
   xmlns:sodipodi="http://sodipodi.sourceforge.net/DTD/sodipodi-0.dtd"
   xmlns="http://www.w3.org/2000/svg"
   xmlns:svg="http://www.w3.org/2000/svg"
   xmlns:rdf="http://www.w3.org/1999/02/22-rdf-syntax-ns#"
   xmlns:cc="http://creativecommons.org/ns#"
   xmlns:dc="http://purl.org/dc/elements/1.1/">
  <title
     id="title45">Border Icon</title>
  <sodipodi:namedview
     id="namedview45"
     pagecolor="#ffffff"
     bordercolor="#666666"
     borderopacity="1.0"
     inkscape:showpageshadow="2"
     inkscape:pageopacity="0.0"
     inkscape:pagecheckerboard="true"
     inkscape:deskcolor="#d1d1d1"
     inkscape:zoom="25.217661"
     inkscape:cx="8.5059436"
     inkscape:cy="11.638669"
     inkscape:window-width="1920"
     inkscape:window-height="1025"
     inkscape:window-x="-8"
     inkscape:window-y="-8"
     inkscape:window-maximized="1"
     inkscape:current-layer="svg45"
     showgrid="true" />
  <defs
     id="defs1" />
  <g
     id="g47"
     inkscape:label="border"
     transform="matrix(0.025,0,0,0.025,10.5,2.5)">
    <path
       id="rect44"
       style="display:inline;fill:#ffffff"
       d="M 0,0 V 120 H 120 V 0 Z M 0,160 V 280 H 120 V 160 Z M 0,320 V 440 H 120 V 320 Z M 0,480 V 600 H 120 V 480 Z M 0,640 V 760 H 120 V 640 Z"
       inkscape:label="fill"
       sodipodi:nodetypes="ccccccccccccccccccccccccc" />
    <path
       id="rect45"
       d="m 0,0 c 0,40 0,80 0,120 13.333333,0 26.666667,0 40,0 C 40,80 40,40 40,0 26.666667,0 13.333333,0 0,0 Z m 80,0 c 0,40 0,80 0,120 13.333333,0 26.66667,0 40,0 0,-40 0,-80 0,-120 C 106.66667,0 93.333333,0 80,0 Z M 0,160 c 0,40 0,80 0,120 13.333333,0 26.666667,0 40,0 0,-40 0,-80 0,-120 -13.333333,0 -26.666667,0 -40,0 z m 80,0 c 0,40 0,80 0,120 13.333333,0 26.66667,0 40,0 0,-40 0,-80 0,-120 -13.33333,0 -26.666667,0 -40,0 z M 0,320 c 0,40 0,80 0,120 13.333333,0 26.666667,0 40,0 0,-40 0,-80 0,-120 -13.333333,0 -26.666667,0 -40,0 z m 80,0 c 0,40 0,80 0,120 13.333333,0 26.66667,0 40,0 0,-40 0,-80 0,-120 -13.33333,0 -26.666667,0 -40,0 z M 0,480 c 0,40 0,80 0,120 13.333333,0 26.666667,0 40,0 0,-40 0,-80 0,-120 -13.333333,0 -26.666667,0 -40,0 z m 80,0 c 0,40 0,80 0,120 13.333333,0 26.66667,0 40,0 0,-40 0,-80 0,-120 -13.33333,0 -26.666667,0 -40,0 z M 0,640 c 0,40 0,80 0,120 13.333333,0 26.666667,0 40,0 0,-40 0,-80 0,-120 -13.333333,0 -26.666667,0 -40,0 z m 80,0 c 0,40 0,80 0,120 13.333333,0 26.66667,0 40,0 0,-40 0,-80 0,-120 -13.33333,0 -26.666667,0 -40,0 z"
       inkscape:label="outline"
       style="display:inline" />
  </g>
  <metadata
     id="metadata45">
    <rdf:RDF>
      <cc:Work
         rdf:about="">
        <dc:title>Border Icon</dc:title>
        <dc:date>2021-12-31</dc:date>
        <dc:creator>
          <cc:Agent>
            <dc:title>Jordan Irwin (AntumDeluge)</dc:title>
          </cc:Agent>
        </dc:creator>
        <dc:publisher>
          <cc:Agent>
            <dc:title>Stendhal Game</dc:title>
          </cc:Agent>
        </dc:publisher>
        <dc:subject>
          <rdf:Bag>
            <rdf:li>icon</rdf:li>
            <rdf:li>menu</rdf:li>
            <rdf:li>button</rdf:li>
            <rdf:li>cursor</rdf:li>
            <rdf:li>Stendhal</rdf:li>
            <rdf:li>border</rdf:li>
            <rdf:li>dash</rdf:li>
            <rdf:li>dashed</rdf:li>
          </rdf:Bag>
        </dc:subject>
        <dc:description>A simple border icon.</dc:description>
        <cc:license
           rdf:resource="http://creativecommons.org/publicdomain/zero/1.0/" />
      </cc:Work>
      <cc:License
         rdf:about="http://creativecommons.org/publicdomain/zero/1.0/">
        <cc:permits
           rdf:resource="http://creativecommons.org/ns#Reproduction" />
        <cc:permits
           rdf:resource="http://creativecommons.org/ns#Distribution" />
        <cc:permits
           rdf:resource="http://creativecommons.org/ns#DerivativeWorks" />
      </cc:License>
    </rdf:RDF>
  </metadata>
</svg>
