<?xml version="1.0" encoding="UTF-8" standalone="no"?>
<svg
   height="24"
   version="1.1"
   width="24"
   id="svg105"
   sodipodi:docname="harvest.svg"
   inkscape:version="1.3.2 (091e20e, 2023-11-25, custom)"
   xmlns:inkscape="http://www.inkscape.org/namespaces/inkscape"
   xmlns:sodipodi="http://sodipodi.sourceforge.net/DTD/sodipodi-0.dtd"
   xmlns="http://www.w3.org/2000/svg"
   xmlns:svg="http://www.w3.org/2000/svg"
   xmlns:rdf="http://www.w3.org/1999/02/22-rdf-syntax-ns#"
   xmlns:cc="http://creativecommons.org/ns#"
   xmlns:dc="http://purl.org/dc/elements/1.1/">
  <title
     id="title105">Harvest Icon</title>
  <sodipodi:namedview
     id="namedview105"
     pagecolor="#ffffff"
     bordercolor="#666666"
     borderopacity="1.0"
     inkscape:showpageshadow="2"
     inkscape:pageopacity="0.0"
     inkscape:pagecheckerboard="true"
     inkscape:deskcolor="#d1d1d1"
     inkscape:zoom="22.627417"
     inkscape:cx="10.363534"
     inkscape:cy="7.2699416"
     inkscape:window-width="1920"
     inkscape:window-height="1025"
     inkscape:window-x="-8"
     inkscape:window-y="-8"
     inkscape:window-maximized="1"
     inkscape:current-layer="svg105" />
  <defs
     id="defs1" />
  <g
     id="g108"
     inkscape:label="scythe"
     transform="matrix(0.025,0,0,0.025,0.75,2.5)">
    <path
       id="path1"
       style="display:inline;fill:#ffffff"
       d="M 660 0 L -20 680 L -20 700 L 40 760 L 60 760 L 645 175 L 730 260 L 770 320 L 800 400 L 800 520 L 890 610 L 920 610 L 920 400 L 880 270 L 830 180 L 800 140 L 660 0 z "
       inkscape:label="fill" />
    <path
       id="rect103"
       style="display:inline;fill:#bbbeba"
       inkscape:label="shading"
       d="m 660,60 -40,40 20,20 35,-35 75,75 40,50 40,70 40,120 v 140 l 10,10 V 400 L 840,280 800,210 760,160 Z m -100,100 -40,40 -20,40 -380,380 -40,20 -50,50 20,20 530,-530 z"
       sodipodi:nodetypes="cccccccccccccccccccccccc" />
    <path
       id="rect105"
       d="M 660,0 -20,680 v 20 l 60,60 h 20 l 585,-585 85,85 40,60 30,80 v 120 l 90,90 h 30 V 400 L 880,270 830,180 800,140 Z m 0,60 100,100 40,50 40,70 40,120 V 550 L 840,510 V 400 L 800,300 760,240 620,100 Z M 560,160 580,180 50,710 30,690 Z"
       inkscape:label="outline"
       style="display:inline"
       sodipodi:nodetypes="cccccccccccccccccccccccccccccccccc" />
  </g>
  <metadata
     id="metadata105">
    <rdf:RDF>
      <cc:Work
         rdf:about="">
        <dc:title>Harvest Icon</dc:title>
        <dc:creator>
          <cc:Agent>
            <dc:title>Jordan Irwin (AntumDeluge)</dc:title>
          </cc:Agent>
        </dc:creator>
        <dc:publisher>
          <cc:Agent>
            <dc:title>Stendhal Game</dc:title>
          </cc:Agent>
        </dc:publisher>
        <dc:description>A simple harvest icon.</dc:description>
        <dc:subject>
          <rdf:Bag>
            <rdf:li>icon</rdf:li>
            <rdf:li>menu</rdf:li>
            <rdf:li>button</rdf:li>
            <rdf:li>cursor</rdf:li>
            <rdf:li>Stendhal</rdf:li>
            <rdf:li>harvest</rdf:li>
            <rdf:li>reap</rdf:li>
            <rdf:li>sow</rdf:li>
            <rdf:li>scythe</rdf:li>
          </rdf:Bag>
        </dc:subject>
        <dc:date>2021-12-31</dc:date>
        <cc:license
           rdf:resource="http://creativecommons.org/publicdomain/zero/1.0/" />
      </cc:Work>
      <cc:License
         rdf:about="http://creativecommons.org/publicdomain/zero/1.0/">
        <cc:permits
           rdf:resource="http://creativecommons.org/ns#Reproduction" />
        <cc:permits
           rdf:resource="http://creativecommons.org/ns#Distribution" />
        <cc:permits
           rdf:resource="http://creativecommons.org/ns#DerivativeWorks" />
      </cc:License>
    </rdf:RDF>
  </metadata>
</svg>
