<?xml version="1.0" encoding="UTF-8" standalone="no"?>
<svg
   height="24"
   version="1.1"
   width="24"
   id="svg65"
   sodipodi:docname="unknown.svg"
   inkscape:version="1.3.2 (091e20e, 2023-11-25, custom)"
   xmlns:inkscape="http://www.inkscape.org/namespaces/inkscape"
   xmlns:sodipodi="http://sodipodi.sourceforge.net/DTD/sodipodi-0.dtd"
   xmlns="http://www.w3.org/2000/svg"
   xmlns:svg="http://www.w3.org/2000/svg"
   xmlns:rdf="http://www.w3.org/1999/02/22-rdf-syntax-ns#"
   xmlns:cc="http://creativecommons.org/ns#"
   xmlns:dc="http://purl.org/dc/elements/1.1/">
  <title
     id="title65">Unknown Icon</title>
  <sodipodi:namedview
     id="namedview65"
     pagecolor="#ffffff"
     bordercolor="#666666"
     borderopacity="1.0"
     inkscape:showpageshadow="2"
     inkscape:pageopacity="0.0"
     inkscape:pagecheckerboard="true"
     inkscape:deskcolor="#d1d1d1"
     inkscape:zoom="22.627417"
     inkscape:cx="6.3860581"
     inkscape:cy="6.6512232"
     inkscape:window-width="1920"
     inkscape:window-height="1025"
     inkscape:window-x="-8"
     inkscape:window-y="-8"
     inkscape:window-maximized="1"
     inkscape:current-layer="svg65"
     showgrid="true" />
  <defs
     id="defs1" />
  <g
     id="g19"
     inkscape:label="unknown"
     transform="translate(5.5,7)">
    <g
       id="g17"
       transform="translate(6)"
       inkscape:label="g2">
      <path
         id="path6"
         style="display:inline;stroke-width:0.025"
         inkscape:label="dot2"
         d="M 3,7 2,8 v 1 l 1,1 H 4.0683594 L 5,9 V 8 L 4,7 Z m 0.25,0.75 h 0.5 l 0.5,0.5 v 0.5 L 3.7832031,9.25 H 3.25 l -0.5,-0.5 v -0.5 z" />
      <path
         id="path5"
         style="display:inline;stroke-width:0.025"
         d="M 2.125,0 0,2 V 3.5 L 0.5,3.875 H 1.75 L 3,2.875 H 4 V 3 L 2,4.75 V 6.5 L 2.5,7 H 3 V 4.875 L 5.125,3.125 V 2.7 L 4.25,2 H 2.75 L 1.625,3 H 1 V 2.375 L 2.5,1 h 2 L 6,2.375 V 3.25 L 4,4.875 V 7 H 4.5 L 5,6.5 V 5.125 L 7,3.5 V 2 L 4.865,0 Z"
         sodipodi:nodetypes="ccccccccccccccccccccccccccccccccc"
         inkscape:label="path2" />
    </g>
    <g
       id="g18"
       inkscape:label="g1">
      <path
         id="path17"
         style="display:inline;stroke-width:0.025"
         inkscape:label="dot1"
         d="M 3,7 2,8 v 1 l 1,1 H 4.0683594 L 5,9 V 8 L 4,7 Z m 0.25,0.75 h 0.5 l 0.5,0.5 v 0.5 L 3.7832031,9.25 H 3.25 l -0.5,-0.5 v -0.5 z" />
      <path
         id="path18"
         style="display:inline;stroke-width:0.025"
         d="M 2.125,0 0,2 V 3.5 L 0.5,3.875 H 1.75 L 3,2.875 H 4 V 3 L 2,4.75 V 6.5 L 2.5,7 H 3 V 4.875 L 5.125,3.125 V 2.7 L 4.25,2 H 2.75 L 1.625,3 H 1 V 2.375 L 2.5,1 h 2 L 6,2.375 V 3.25 L 4,4.875 V 7 H 4.5 L 5,6.5 V 5.125 L 7,3.5 V 2 L 4.865,0 Z"
         sodipodi:nodetypes="ccccccccccccccccccccccccccccccccc"
         inkscape:label="path1" />
    </g>
  </g>
  <metadata
     id="metadata65">
    <rdf:RDF>
      <cc:Work
         rdf:about="">
        <dc:title>Unknown Icon</dc:title>
        <dc:date>2021-12-23</dc:date>
        <dc:creator>
          <cc:Agent>
            <dc:title>Jordan Irwin (AntumDeluge)</dc:title>
          </cc:Agent>
        </dc:creator>
        <dc:publisher>
          <cc:Agent>
            <dc:title>Stendhal Game</dc:title>
          </cc:Agent>
        </dc:publisher>
        <dc:subject>
          <rdf:Bag>
            <rdf:li>icon</rdf:li>
            <rdf:li>menu</rdf:li>
            <rdf:li>button</rdf:li>
            <rdf:li>cursor</rdf:li>
            <rdf:li>Stendhal</rdf:li>
            <rdf:li>unknown</rdf:li>
            <rdf:li>question</rdf:li>
            <rdf:li>punctuation</rdf:li>
          </rdf:Bag>
        </dc:subject>
        <dc:description>A simple icon representing &quot;unknown&quot;.</dc:description>
        <cc:license
           rdf:resource="http://creativecommons.org/publicdomain/zero/1.0/" />
      </cc:Work>
      <cc:License
         rdf:about="http://creativecommons.org/publicdomain/zero/1.0/">
        <cc:permits
           rdf:resource="http://creativecommons.org/ns#Reproduction" />
        <cc:permits
           rdf:resource="http://creativecommons.org/ns#Distribution" />
        <cc:permits
           rdf:resource="http://creativecommons.org/ns#DerivativeWorks" />
      </cc:License>
    </rdf:RDF>
  </metadata>
</svg>
