<svg xmlns="http://www.w3.org/2000/svg" xml:space="preserve" width="8.85692in" height="12.0732in" shape-rendering="geometricPrecision" text-rendering="geometricPrecision" image-rendering="optimizeQuality" fill-rule="evenodd" clip-rule="evenodd"
viewBox="0 0 0.32198 0.438904"
 xmlns:xlink="http://www.w3.org/1999/xlink">
 <g id="Layer_x0020_1">
  <metadata id="CorelCorpID_0Corel-Layer"/>
  <path fill="#D1D2BE" d="M0.288917 0.00616779c-0.00874316,0 -0.014632,0.012699 -0.0184756,0.0273426l0.0184756 0 0 1.18793e-005c0.00163949,-2.86248e-007 0.00297526,0.00132218 0.002988,0.00296439 1.30243e-005,0.00165022 -0.00131431,0.00299874 -0.00296453,0.00301162 -7.87182e-006,0 -1.56005e-005,7.1562e-007 -2.34723e-005,8.58744e-007l0 1.07343e-005 -0.000209534 0c-0.00403123,0.000324748 -0.00678523,0.00784978 -0.00819099,0.0179971 -0.000718912,0.00518982 -0.00101776,0.0109899 -0.000904258,0.0169065 0.000113354,0.00591961 0.000641196,0.0119752 0.00157508,0.0176721 0.00236269,0.0144142 0.00707906,0.0262495 0.0138112,0.0262495 0.00710225,0 0.0118085,-0.0118696 0.0140568,-0.0277409 0.0010209,-0.00720744 0.00148391,-0.0151703 0.00139675,-0.0232522 -8.68763e-005,-0.00805617 -0.000727786,-0.0162869 -0.00191471,-0.0240584 -0.00311781,-0.0204118 -0.00976979,-0.0371041 -0.0196203,-0.0371041l0 -1.17362e-005z"/>
  <path fill="#D1D2BE" d="M0.26417 0.0742034c-0.000803498,0.0143658 8.97388e-005,0.0291886 0.00215946,0.0443136l0.0182711 0c-0.00449825,-0.0056919 -0.00760461,-0.0150116 -0.00931909,-0.0254706 -0.000974389,-0.00594423 -0.00152585,-0.0122976 -0.00164535,-0.0185393 -0.000119652,-0.0062445 0.000194506,-0.0123585 0.000951202,-0.0178204 0.000969236,-0.00699648 0.00272837,-0.0130246 0.00531377,-0.0171769l-0.0109043 0c-0.0011085,0.00501879 -0.0020003,0.0100931 -0.00270376,0.0148185 -0.000637761,0.00428284 -0.00110907,0.00819385 -0.00144641,0.0115239 -0.000341351,0.003371 -0.00055847,0.00624393 -0.000676118,0.00834356l-4.29372e-007 7.58558e-006z"/>
  <path fill="#D1D2BE" d="M0.288895 0.320749l-0.000355377 0 -5.72496e-007 0 -0.000300417 0c-0.00353516,0.00026206 -0.00700578,0.0051184 -0.00978768,0.0128395 -0.00319267,0.00886153 -0.00516764,0.0211603 -0.00516792,0.0347957l1.17362e-005 0 0 3.00561e-006 0 1.43124e-006 -1.17362e-005 0c1.43124e-007,0.0111588 0.000988129,0.0216561 0.00273267,0.0308515l0.0190239 -3.89297e-005c0.00396854,-9.44619e-006 0.00669062,-0.00743902 0.00807935,-0.0175743 0.00068814,-0.00502308 0.000981115,-0.0106383 0.000885222,-0.0163856 -9.61794e-005,-0.00577176 -0.000582229,-0.0116762 -0.00145156,-0.0172517 -0.00227667,-0.0146032 -0.00693307,-0.0268239 -0.0136576,-0.0272407z"/>
  <path fill="#F1F2E5" d="M0.0666149 0.314749l0.221924 0 5.72496e-007 0 0.000377704 0 0 1.98942e-005c0.0103207,0.000347076 0.0168272,0.0148986 0.0195412,0.0323062 0.000911557,0.00584676 0.00142122,0.0120317 0.00152184,0.0180721 0.000101189,0.0060646 -0.000207387,0.0119849 -0.000932167,0.0172759 -0.00179735,0.0131175 -0.00638748,0.0227355 -0.0140086,0.0227537l-0.0177408 3.62104e-005c0.000861464,0.00356794 0.00184473,0.00688627 0.00293361,0.00990834 0.0039611,0.0109938 0.00907006,0.017794 0.014388,0.0177945l0 -1.17362e-005 7.1562e-007 0 4.29372e-007 0 0 1.17362e-005c0.00531792,-2.86248e-007 0.0104272,-0.00680068 0.0143884,-0.017795 0.00429329,-0.0119161 0.00694896,-0.0284347 0.0069491,-0.0467313l-1.17362e-005 0 0 -2.86248e-006c0,-0.00010491 5.58184e-006,-0.000208532 1.60299e-005,-0.000310579 0.00090483,-0.0430378 -0.0136897,-0.0911835 -0.0284389,-0.139836 -0.0159366,-0.0525693 -0.0320508,-0.105724 -0.0293301,-0.154366l4.29372e-007 -7.58558e-006c0.000119222,-0.00213183 0.000343355,-0.00508362 0.00069959,-0.00860147 0.000360386,-0.00355835 0.000843716,-0.00760046 0.00146974,-0.011805 0.00249866,-0.0167816 0.00745118,-0.0375444 0.0166565,-0.0474618l-0.23141 0c-0.00567845,0 -0.0102845,0.00153214 -0.0139796,0.00484661 -0.00386507,0.00346704 -0.00689142,0.00893223 -0.00925197,0.0166626 -0.00252457,0.00826713 -0.00436099,0.0183705 -0.00530833,0.0295461 -0.000195221,0.00230315 -0.000347791,0.00452215 -0.000455993,0.00664754 -0.00011822,0.0023209 -0.00019837,0.00460301 -0.000238588,0.00683775l-4.29372e-007 2.37586e-005c-0.000799205,0.0446506 0.0131212,0.0948658 0.0268701,0.144463 0.00946236,0.0341342 0.0188437,0.0679776 0.0233697,0.0997224z"/>
  <path fill="#F1F2E5" d="M0.0341556 0.432916l0 -1.17362e-005 0.249098 0c-0.00332821,-0.00375271 -0.00625638,-0.00913518 -0.00864584,-0.0157674 -0.00451084,-0.0125193 -0.0073009,-0.0297582 -0.00730104,-0.0487486l-1.1593e-005 0 0 -1.43124e-006 0 -3.00561e-006 1.1593e-005 0c2.86248e-007,-0.0143284 0.00210965,-0.0273467 0.00551958,-0.0368112 0.00157465,-0.00437072 0.00346689,-0.00803985 0.00560989,-0.010824l-0.248314 0c-0.0116593,0 -0.0189044,0.0122702 -0.0221537,0.028575 -0.00143553,0.007203 -0.00208203,0.0151278 -0.00198084,0.0231447 0.000101475,0.00805975 0.000951489,0.0162316 0.00250796,0.0238818 0.00410494,0.0201772 0.01297,0.0365659 0.0256601,0.0365659z"/>
  <path fill="#1F1A17" fill-rule="nonzero" d="M0.291976 0.438904l-0.257821 0 0 -1.17362e-005c-0.0160932,0 -0.0268773,-0.0185314 -0.0315191,-0.0413467 -0.00162904,-0.00800736 -0.00251884,-0.0165642 -0.00262518,-0.0250066 -0.000106914,-0.00848525 0.000570063,-0.016837 0.00207458,-0.0243869 0.00379837,-0.0190594 0.0128913,-0.0334027 0.0280361,-0.0334027l0.0304489 0c-0.00451857,-0.0311309 -0.0137651,-0.0644877 -0.0230908,-0.0981287 -0.0138616,-0.0500035 -0.0278959,-0.10063 -0.0270812,-0.146151l4.29372e-007 -2.37586e-005c4.42253e-005,-0.00245358 0.000124232,-0.00480439 0.000238588,-0.00704872 0.000124232,-0.00243998 0.000276802,-0.00471923 0.000455993,-0.00683503 0.000978253,-0.011541 0.00290427,-0.0220714 0.00556609,-0.0307881 0.00268887,-0.00880542 0.00628186,-0.0151614 0.0109863,-0.0193811 0.00487438,-0.0043723 0.010789,-0.00639335 0.0179636,-0.00639335l0.24281 0 0 0.000205526c0.000165165,-5.72496e-006 0.000329615,-1.3883e-005 0.000496497,-1.3883e-005l0 -1.1593e-005c0.0134856,0 0.0220025,0.0189907 0.0255495,0.042213 0.00121412,0.00794882 0.00187077,0.0164707 0.00196166,0.0249022 9.05975e-005,0.00840539 -0.000387866,0.0166658 -0.00144369,0.0241193 -0.00263706,0.0186159 -0.00908823,0.0325904 -0.0196136,0.0329125l0 0.000189496 -0.0281631 0c0.00517651,0.0331833 0.0156432,0.0677123 0.0260346,0.10199 0.0148881,0.0491102 0.02962,0.0977091 0.0286971,0.141674 4.57997e-006,6.82702e-005 7.1562e-006,0.000137256 7.1562e-006,0.000206814l0 2.86248e-006 -1.07343e-005 0 -5.72496e-007 3.67829e-005 -4.29372e-007 1.88924e-005 -1.43124e-007 0c-5.72496e-006,0.0189677 -0.0027945,0.0361843 -0.00730062,0.0486911 -0.00484275,0.0134412 -0.0118966,0.0217551 -0.0200129,0.0217556l0 1.17362e-005 -4.29372e-007 0 -7.1562e-007 0 0 -1.17362e-005c-0.000894668,0 -0.00177631,-0.000101475 -0.00264364,-0.000299416l0 0.000311152zm-0.257821 -0.00598774l0 -1.17362e-005 0.249098 0c-0.00332821,-0.00375271 -0.00625638,-0.00913518 -0.00864584,-0.0157674 -0.00451084,-0.0125193 -0.0073009,-0.0297582 -0.00730104,-0.0487486l-1.1593e-005 0 0 -1.43124e-006 0 -3.00561e-006 1.1593e-005 0c2.86248e-007,-0.0143284 0.00210965,-0.0273467 0.00551958,-0.0368112 0.00157465,-0.00437072 0.00346689,-0.00803985 0.00560989,-0.010824l-0.248314 0c-0.0116593,0 -0.0189044,0.0122702 -0.0221537,0.028575 -0.00143553,0.007203 -0.00208203,0.0151278 -0.00198084,0.0231447 0.000101475,0.00805975 0.000951489,0.0162316 0.00250796,0.0238818 0.00410494,0.0201772 0.01297,0.0365659 0.0256601,0.0365659zm0.0324594 -0.118167l0.221924 0 5.72496e-007 0 0.000377704 0 0 1.98942e-005c0.0103207,0.000347076 0.0168272,0.0148986 0.0195412,0.0323062 0.000911557,0.00584676 0.00142122,0.0120317 0.00152184,0.0180721 0.000101189,0.0060646 -0.000207387,0.0119849 -0.000932167,0.0172759 -0.00179735,0.0131175 -0.00638748,0.0227355 -0.0140086,0.0227537l-0.0177408 3.62104e-005c0.000861464,0.00356794 0.00184473,0.00688627 0.00293361,0.00990834 0.0039611,0.0109938 0.00907006,0.017794 0.014388,0.0177945l0 -1.17362e-005 7.1562e-007 0 4.29372e-007 0 0 1.17362e-005c0.00531792,-2.86248e-007 0.0104272,-0.00680068 0.0143884,-0.017795 0.00429329,-0.0119161 0.00694896,-0.0284347 0.0069491,-0.0467313l-1.17362e-005 0 0 -2.86248e-006c0,-0.00010491 5.58184e-006,-0.000208532 1.60299e-005,-0.000310579 0.00090483,-0.0430378 -0.0136897,-0.0911835 -0.0284389,-0.139836 -0.0159366,-0.0525693 -0.0320508,-0.105724 -0.0293301,-0.154366l4.29372e-007 -7.58558e-006c0.000119222,-0.00213183 0.000343355,-0.00508362 0.00069959,-0.00860147 0.000360386,-0.00355835 0.000843716,-0.00760046 0.00146974,-0.011805 0.00249866,-0.0167816 0.00745118,-0.0375444 0.0166565,-0.0474618l-0.23141 0c-0.00567845,0 -0.0102845,0.00153214 -0.0139796,0.00484661 -0.00386507,0.00346704 -0.00689142,0.00893223 -0.00925197,0.0166626 -0.00252457,0.00826713 -0.00436099,0.0183705 -0.00530833,0.0295461 -0.000195221,0.00230315 -0.000347791,0.00452215 -0.000455993,0.00664754 -0.00011822,0.0023209 -0.00019837,0.00460301 -0.000238588,0.00683775l-4.29372e-007 2.37586e-005c-0.000799205,0.0446506 0.0131212,0.0948658 0.0268701,0.144463 0.00946236,0.0341342 0.0188437,0.0679776 0.0233697,0.0997224zm0.22228 0.00599947l-0.000355377 0 -5.72496e-007 0 -0.000300417 0c-0.00353516,0.00026206 -0.00700578,0.0051184 -0.00978768,0.0128395 -0.00319267,0.00886153 -0.00516764,0.0211603 -0.00516792,0.0347957l1.17362e-005 0 0 3.00561e-006 0 1.43124e-006 -1.17362e-005 0c1.43124e-007,0.0111588 0.000988129,0.0216561 0.00273267,0.0308515l0.0190239 -3.89297e-005c0.00396854,-9.44619e-006 0.00669062,-0.00743902 0.00807935,-0.0175743 0.00068814,-0.00502308 0.000981115,-0.0106383 0.000885222,-0.0163856 -9.61794e-005,-0.00577176 -0.000582229,-0.0116762 -0.00145156,-0.0172517 -0.00227667,-0.0146032 -0.00693307,-0.0268239 -0.0136576,-0.0272407zm-0.0247247 -0.246546c-0.000803498,0.0143658 8.97388e-005,0.0291886 0.00215946,0.0443136l0.0182711 0c-0.00449825,-0.0056919 -0.00760461,-0.0150116 -0.00931909,-0.0254706 -0.000974389,-0.00594423 -0.00152585,-0.0122976 -0.00164535,-0.0185393 -0.000119652,-0.0062445 0.000194506,-0.0123585 0.000951202,-0.0178204 0.000969236,-0.00699648 0.00272837,-0.0130246 0.00531377,-0.0171769l-0.0109043 0c-0.0011085,0.00501879 -0.0020003,0.0100931 -0.00270376,0.0148185 -0.000637761,0.00428284 -0.00110907,0.00819385 -0.00144641,0.0115239 -0.000341351,0.003371 -0.00055847,0.00624393 -0.000676118,0.00834356l-4.29372e-007 7.58558e-006zm0.024747 -0.0680356c-0.00874316,0 -0.014632,0.012699 -0.0184756,0.0273426l0.0184756 0 0 1.18793e-005c0.00163949,-2.86248e-007 0.00297526,0.00132218 0.002988,0.00296439 1.30243e-005,0.00165022 -0.00131431,0.00299874 -0.00296453,0.00301162 -7.87182e-006,0 -1.56005e-005,7.1562e-007 -2.34723e-005,8.58744e-007l0 1.07343e-005 -0.000209534 0c-0.00403123,0.000324748 -0.00678523,0.00784978 -0.00819099,0.0179971 -0.000718912,0.00518982 -0.00101776,0.0109899 -0.000904258,0.0169065 0.000113354,0.00591961 0.000641196,0.0119752 0.00157508,0.0176721 0.00236269,0.0144142 0.00707906,0.0262495 0.0138112,0.0262495 0.00710225,0 0.0118085,-0.0118696 0.0140568,-0.0277409 0.0010209,-0.00720744 0.00148391,-0.0151703 0.00139675,-0.0232522 -8.68763e-005,-0.00805617 -0.000727786,-0.0162869 -0.00191471,-0.0240584 -0.00311781,-0.0204118 -0.00976979,-0.0371041 -0.0196203,-0.0371041l0 -1.17362e-005z"/>
 </g>
</svg>
