<?xml version="1.0" encoding="UTF-8" standalone="no"?>
<!-- Created with Inkscape (http://www.inkscape.org/) -->
<svg xmlns:inkscape="http://www.inkscape.org/namespaces/inkscape" xmlns:rdf="http://www.w3.org/1999/02/22-rdf-syntax-ns#" xmlns="http://www.w3.org/2000/svg" xmlns:cc="http://web.resource.org/cc/" xmlns:dc="http://purl.org/dc/elements/1.1/" xmlns:svg="http://www.w3.org/2000/svg" xmlns:sodipodi="http://sodipodi.sourceforge.net/DTD/sodipodi-0.dtd" xmlns:ns1="http://sozi.baierouge.fr" xmlns:xlink="http://www.w3.org/1999/xlink" id="Layer_1" xml:space="preserve" version="1.0" viewBox="0 0 342.289 284.248" inkscape:version="0.91 r13725"><defs id="defs61">
<metadata>
<rdf:RDF xmlns:rdf="http://www.w3.org/1999/02/22-rdf-syntax-ns#" xmlns="http://web.resource.org/cc/" xmlns:dc="http://purl.org/dc/elements/1.1/">
      <Work rdf:about="">
         <dc:title>Parchment Background</dc:title>
         <dc:description>Parchment Background</dc:description>
         <dc:subject>
          <rdf:Bag>
            <rdf:li>border</rdf:li>
            <rdf:li>background</rdf:li>
		<rdf:li>parchment</rdf:li>
          </rdf:Bag>
         </dc:subject>
         <dc:publisher><Agent rdf:about="http://www.openclipart.org/"><dc:title>Open Clip Art Project</dc:title></Agent></dc:publisher>
         <dc:creator><Agent rdf:about=""><dc:title>Gerald G.</dc:title></Agent></dc:creator>
         <dc:rights><Agent rdf:about="http://web.resource.org/cc/PublicDomain"><dc:title>Public Domain</dc:title></Agent></dc:rights>
         <dc:date>2006/09/25</dc:date>
         <dc:format>image/svg+xml</dc:format>
         <dc:type>http://purl.org/dc/dcmitype/StillImage</dc:type>
         <license rdf:resource="http://web.resource.org/cc/PublicDomain"/>
      </Work>
      <License rdf:about="http://web.resource.org/cc/PublicDomain">
         <permits rdf:resource="http://web.resource.org/cc/Reproduction"/>
         <permits rdf:resource="http://web.resource.org/cc/Distribution"/>
         <permits rdf:resource="http://web.resource.org/cc/DerivativeWorks"/>
      </License>
   </rdf:RDF>
</metadata>
	<linearGradient id="XMLID_4_" y2="142.44" gradientUnits="userSpaceOnUse" x2="-.0407" gradientTransform="translate(.044491 -.0015259)" y1="141.78" x1="25.021">
		<stop id="stop18" style="stop-color:#8d5c34" offset=".1286"/>
		<stop id="stop20" style="stop-color:#e8d0a9" offset=".29050"/>
		<stop id="stop22" style="stop-color:#e3cba4" offset=".5952"/>
		<stop id="stop24" style="stop-color:#8d5c34" offset="1"/>
	</linearGradient>
	<linearGradient id="XMLID_5_" y2="135.02" gradientUnits="userSpaceOnUse" x2="320.67" gradientTransform="translate(.044491 -.0015259)" y1="145.44" x1="22.266">
		<stop id="stop31" style="stop-color:#8d5c34" offset="0"/>
		<stop id="stop33" style="stop-color:#d1b38b" offset=".0333"/>
		<stop id="stop35" style="stop-color:#e3cba4" offset=".91430"/>
		<stop id="stop37" style="stop-color:#8d5c34" offset="1"/>
	</linearGradient>
	<linearGradient id="XMLID_6_" y2="143.92" gradientUnits="userSpaceOnUse" x2="316.15" gradientTransform="translate(.044491 -.0015259)" y1="143.68" x1="343.01">
		<stop id="stop42" style="stop-color:#8d5c34" offset=".0048"/>
		<stop id="stop44" style="stop-color:#93633b" offset=".1429"/>
		<stop id="stop46" style="stop-color:#e8d0a9" offset=".29520"/>
		<stop id="stop48" style="stop-color:#e3cba4" offset=".63810"/>
		<stop id="stop50" style="stop-color:#93633a" offset=".93330"/>
		<stop id="stop52" style="stop-color:#8d5c34" offset="1"/>
	</linearGradient>
		<filter id="filter3194"><feGaussianBlur id="feGaussianBlur3196" stdDeviation="1.5658873" inkscape:collect="always"/></filter></defs>
<path id="path2220" style="filter:url(#filter3194);fill-rule:evenodd;fill:#1a1a1a" d="m12.59 284.91c2.268 0.39 4.68 0.39 7.632 0 2.88-0.4 6.012-1.05 9.54-2.24l0.324-3.81c3.42-0.25 6.516-0.36 9.864-0.33 3.204 0.18 6.012 0.72 9.54 0.65 3.42-0.18 8.208-0.83 11.448-1.26 3.276-0.25 5.832-0.36 7.956-0.32 0.252-0.54 0.252-1.77 0-3.82-0.324-2.05-1.728-5.83-1.584-8.28 0.18-2.3 0.936-4.21 2.556-5.72-0.72 2.16-1.044 3.96-0.972 5.4 0.036 1.51 0.792 1.47 1.296 3.49 0.468 2.12 0.756 5 1.26 8.93 3.096 0.07 6.552 0.29 10.512 0.65 3.888 0.5 7.308 1.72 13.032 1.58 5.616-0.18 15.336-2.05 20.986-2.56 5.69-0.36 9.76-0.25 12.75 0.33 3.42 0.97 7.52 1.4 12.7 1.58 5.22 0.25 12.46-0.29 17.82-0.65 5.08-0.39 7.2-0.72 13.04-1.26 5.79-0.36 15.8-0.86 21.96-0.93 6.12 0.1 9.9 1.4 14.65 1.26 4.71-0.07 9.03-0.76 13.35-1.91 0.29-0.9 0.61-1.84 1.26-3.2 0.58-1.12 1.84-2.13 2.23-4.43 0.29-2.31-0.61-7.85-0.32-9.54 0.25-1.59 0.65-1.69 1.59-0.33-0.58 2.88-0.47 5.33 0.32 7.64 0.76 2.3 3.06 4.32 4.14 6.04 0.9 1.88-0.32 3.32 1.58 4.47 1.88 1.15 3.86 1.65 9.54 1.91 5.55 0.28 17.39-0.4 23.87-0.65 6.34-0.15 8.53-0.18 14.22-0.65 5.58-0.4 13.21-1.73 19.44-1.91 6.12-0.07 11.95 0.36 17.5 1.3l-0.33 5.72c2.99 2.52 6.23 3.64 9.87 3.49 3.56-0.18 7.48-1.62 11.77-4.46l4.43-274.53v-0.0044c-0.22-0.182-1.34-0.506-3.5-0.973-2.23-0.469-5.36-0.865-9.54-1.584l-1.9-2.557c-3.17-0.072-5.58 0.145-7.64 0.648-2.05 0.611-3.49 1.332-4.46 2.557l0.32 8.2444c-16.05-0.289-28.33-0.613-37.22-1.262-8.93-0.574-10.15-2.1584-15.91-2.2304-5.94 0.107-13.54 1.8714-18.76 2.2304-5.18 0.396-7.77-0.07-12.09 0-4.47 0.217-9.15 0.434-14.33 0.938-0.07 2.412-0.15 4.428-0.61 6.047-0.51 1.729-1.01 2.916-1.91 3.852 0.61-2.088 0.72-4.104 0.32-6.047-0.5-1.908-1.33-3.672-2.88-5.436-5.97-0.721-11.7-1.0454-17.17-1.2604-5.65-0.145-10.73-0.037-15.91 0.3224 0.61 1.836 0.83 3.529 0.65 5.076-0.33 1.621-1.52 2.412-1.91 4.465-0.4 2.195-0.51 4.824-0.33 8.279-0.03-0.719-0.14-1.584-0.32-2.879-0.29-1.26-0.79-2.844-0.97-4.465-0.22-1.439 0.29-3.203-0.29-4.752-0.65-1.584-0.9-3.168-3.53-4.463-2.81-1.225-8.06-1.8364-12.71-2.2324-4.82-0.252-12.13-0.072-15.26 0.9714-3.13 1.225-1.51 6.014-3.2 6.049-1.77 0.072-3.93-4.752-7.31-5.725-3.6-0.8984-8.86 0.361-13.68 0.324-4.83 0.072-9.76 0.072-14.94 0-0.97 1.332-1.73 2.809-2.56 4.428-0.83 1.729-1.29 5.473-2.23 5.4-1.19-0.035-3.527-4.393-3.815-5.725-0.18-1.15 2.985-0.863 2.555-1.906-0.575-1.01-1.367-3.7814-5.723-4.4304-4.5-0.539-11.268-0.07-20.7 1.262-0.864 4.4634-1.98 6.6954-3.492 6.6954-1.62-0.037-3.204-5.363-5.724-6.6954-2.556-1.225-2.124-0.289-9.54-0.648-7.667-0.29-19.295-0.504-35.568-0.936-0.648-1.945-2.268-3.061-5.4-3.492-3.06-0.361-7.4524 0.107-13.032 1.26h-0.0004l3.169 271.69c1.62 1.04 3.24 1.65 4.464 2.23 1.188 0.61 2.3764 0.79 3.1684 0.93 0.215 1.37 0.432 2.74 0.648 4.15zm-7.0204-7.96c3.24-0.61 6.3004-0.87 9.5764-0.61 3.168 0.32 7.272 1.33 9.54 2.19 2.232 0.97 3.456 1.95 3.816 3.21-0.216-8.14-0.648-22.94-1.584-45.51-1.08-22.64-2.268-50.33-3.852-88.74-1.512-38.34-3.204-84.093-5.076-139.35v-0.0024c-2.088-1.152-4.284-1.836-6.984-1.908-2.7364-0.037-5.5804 0.539-8.9284 1.584 1.152 89.711 2.304 179.43 3.492 269.14zm14.003-267.55c14.688 0.6844 25.38 1.1154 32.616 1.2954 7.056 0.18 7.308-1.1154 10.188 0 2.844 1.225 5.076 6.301 6.984 7.309 1.8 1.225 2.952 0.684 4.14-0.648 1.152-1.225 1.908-3.6 2.556-6.984 4.5-0.3954 8.424-0.6114 11.772-0.6464 3.456-0.037 6.588 0.18 8.28 0.6464 1.368 0.686 1.08 2.088 0.936 2.844-0.216 0.828-1.764 0.865-1.584 1.908 0.18 1.297 1.728 3.492 2.844 4.789 1.08 1.295 2.625 3.023 3.815 2.555 1.01-0.395 1.73-3.348 2.56-5.111 0.82-1.729 1.47-3.527 2.23-5.4 6.05 0.252 11.19 0.361 15.59 0.324 4.35-0.035 7.81-0.791 10.51-0.324 2.52 0.648 3.85 2.664 5.4 3.816 1.51 1.225 3.02 3.061 4.14 3.168 1.04 0.145 1.83-1.295 2.52-2.52 0.57-1.152-1.12-3.385 1.29-4.465 2.38-1.008 8.9-1.295 13.04-1.26 4.1 0.217 8.78 1.225 11.52 2.197 2.66 1.008 3.45 1.584 4.46 3.814 0.83 2.377 0.18 7.668 0.97 10.189 0.76 2.592 1.88 4.248 3.5 5.111-0.58-3.348-0.69-6.084-0.33-8.604 0.29-2.377 1.59-4.068 2.23-6.049 0.61-1.943 0.94-3.852 1.26-5.725 0.58-0.035 3.28-0.035 7.96 0 4.72 0.072 11.3 0.182 20.05 0.324 1.41 1.656 2.41 3.564 3.17 5.725 0.68 2.232 1.01 4.572 0.97 7.309 1.26-1.189 2.41-2.629 3.17-4.465 0.83-1.836 1.26-3.816 1.58-6.336 11.99 0.072 21.6-0.145 29.27-0.648 7.6-0.467 10.55-2.23 16.24-2.23 5.47 0.215 8.6 1.943 17.17 2.555 8.64 0.576 19.76 0.793 34.06 0.648l1.26 259.92c-4.72-1.05-10.19-1.48-16.85-1.3-6.84 0.4-16.74 1.95-22.9 2.56-6.08 0.57-7.09 0.61-13.28 0.65-6.37 0.25-19.12 0.39-24.19 0-5.11-0.47-4.86-1.52-6.05-2.56-1.26-0.83-0.43-1.04-1.26-2.88-1.01-1.84-3.31-5.18-4.14-7.96-0.83-2.62 0.07-6.3-0.65-7.95-0.86-1.48-3.49-2.27-4.14-1.26-0.79 1.11 0.18 5 0 7.63-0.22 2.74-0.54 6.19-1.26 8.28-0.86 2.16-1.98 3.6-3.49 4.46-4.75 1.05-8.89 1.44-12.42 1.59-3.64 0.07-3.46-0.72-8.89-0.97-5.51-0.15-15.77-0.04-23.55 0.32-7.92 0.54-17.46 2.27-23.22 2.56-5.72 0.39-6.66-0.15-11.16-0.65-4.71-0.58-11.05-1.84-16.52-2.23-5.69-0.18-11.16 0.47-16.56 0.97-5.44 0.72-11.45 2.41-15.266 2.56-3.816 0.07-4.176-1.26-7.308-1.91-3.132-0.51-6.948-0.94-11.448-1.3-1.728-3.49-2.592-6.55-2.88-9.86-0.288-3.21 0.144-6.23 1.296-9.22-2.952 3.21-4.968 5.65-6.048 7.63-1.224 1.95-0.936 2.31-0.648 4.14 0.288 2.02 0.936 4.47 2.232 7.64-0.936 0.61-3.528 0.9-7.632 1.26-4.284 0.36-12.276 0.72-17.172 0.64-4.932 0.04-8.676-0.18-11.772-0.64l-11.161-267.23v-0.0024zm-5.723 273.92l-1.26-4.14-4.4644-1.26c3.3844-0.14 6.5164-0.07 9.5404 0.61 3.024 0.72 5.652 1.66 8.28 3.21-2.736 1.08-4.932 1.62-6.984 1.9-2.052 0.29-3.708 0.18-5.112-0.32zm328-276.16c-1.8 0.936-3.93 1.477-6.66 1.619-2.88 0.18-6.63-0.035-9.58-0.646-2.95-0.576-5.36-1.297-7.63-2.557 1.19-1.045 2.7-1.584 4.14-1.908 1.4-0.252 3.13-0.145 4.79 0.324l3.16 2.232c3.93 0.288 7.85 0.612 11.78 0.936zm-23.87 0.973c0.39 26.135 0.72 61.164 0.97 106.88 0.18 45.97 0.29 100.15 0.32 165.74 0.8 2.06 2.56 3.07 5.73 2.89 3.02-0.19 7.31-1.41 12.71-3.82l4.14-270.11v0.0026c-4.18 0.9714-7.89 1.5474-11.13 1.5844-3.49 0.035-6.41-0.613-8.6-1.262-2.16-0.5754-3.49-1.0814-4.14-1.9074z"/><g id="g13" transform="translate(.044491 -.0015259)">
				<path id="path15" style="stroke:#000000;stroke-width:.036;stroke-miterlimit:10;fill-rule:evenodd" d="m11.466 283.57c2.268 0.36 4.68 0.36 7.632 0 2.88-0.43 6.012-1.11 9.54-2.19l0.324-3.82c3.42-0.28 6.516-0.39 9.864-0.32 3.204 0.04 6.012 0.61 9.54 0.61 3.42-0.22 8.208-1.01 11.448-1.26 3.276-0.29 5.832-0.4 7.956-0.32 0.252-0.58 0.252-1.8 0-3.82-0.324-2.12-1.728-5.9-1.584-8.28 0.18-2.37 0.936-4.28 2.556-5.72-0.72 2.05-1.044 3.99-0.972 5.43 0.036 1.41 0.792 1.41 1.296 3.5 0.468 2.08 0.756 5 1.26 8.89 3.096 0.03 6.552 0.25 10.512 0.65 3.888 0.39 7.308 1.62 13.032 1.58 5.616-0.29 15.34-2.16 20.99-2.56 5.69-0.39 9.75-0.28 12.74 0.33 3.42 0.83 7.53 1.4 12.71 1.58 5.22 0.11 12.46-0.32 17.82-0.61 5.08-0.47 7.2-0.9 13.03-1.3 5.8-0.43 15.81-0.97 21.96-0.93 6.12 0.03 9.9 1.29 14.65 1.26 4.72-0.11 9.04-0.79 13.36-1.91 0.29-0.79 0.61-1.98 1.26-3.17 0.57-1.29 1.84-2.23 2.23-4.46 0.29-2.38-0.61-7.96-0.32-9.54 0.25-1.66 0.64-1.77 1.58-0.33-0.57 2.85-0.47 5.3 0.32 7.64 0.76 2.26 3.07 4.28 4.14 6.04 0.9 1.8-0.32 3.24 1.59 4.47 1.87 1.11 3.85 1.62 9.54 1.91 5.54 0.18 17.39-0.51 23.87-0.65 6.3-0.29 8.6-0.22 14.25-0.61 5.65-0.47 13.14-1.91 19.41-1.95 6.12-0.14 11.95 0.29 17.49 1.3l-0.32 5.72c2.99 2.49 6.23 3.6 9.86 3.49 3.57-0.21 7.49-1.65 11.77-4.46l4.47-274.54v0.004c-0.18-0.18-1.41-0.504-3.53-0.972-2.23-0.468-5.36-0.864-9.54-1.584l-1.91-2.556c-3.17-0.072-5.58 0.144-7.63 0.647-2.05 0.612-3.49 1.332-4.46 2.557l0.32 8.279c-16.06-0.252-28.33-0.684-37.22-1.296-8.93-0.576-10.16-2.16-15.92-2.231-5.94 0.107-13.53 1.872-18.75 2.231-5.19 0.396-7.78-0.071-12.1 0-4.46 0.181-9.18 0.504-14.29 0.973-0.04 2.411-0.25 4.428-0.65 6.048-0.5 1.655-1.01 2.88-1.91 3.815 0.62-2.088 0.72-4.104 0.33-6.048-0.51-1.872-1.33-3.672-2.88-5.399-5.98-0.685-11.7-1.116-17.17-1.297-5.66-0.144-10.73-0.035-15.92 0.324 0.62 1.836 0.83 3.528 0.65 5.076-0.32 1.62-1.51 2.412-1.91 4.464-0.39 2.196-0.5 4.824-0.32 8.28-0.04-0.72-0.14-1.584-0.32-2.88-0.33-1.188-0.69-2.809-0.94-4.428-0.18-1.477 0.18-3.169-0.32-4.788-0.69-1.513-0.83-3.276-3.5-4.465-2.8-1.079-8.02-1.943-12.74-2.195-4.82-0.252-12.13-0.072-15.26 0.936-3.06 1.225-1.48 6.013-3.17 6.048-1.77 0.072-3.89-4.752-7.35-5.724-3.6-0.9-8.85 0.36-13.68 0.324-4.82 0.071-9.75 0.071-14.94 0-0.97 1.332-1.72 2.808-2.55 4.428-0.83 1.656-1.3 5.544-2.23 5.437-1.192-0.036-3.532-4.393-3.82-5.725-0.18-1.224 2.988-0.756 2.556-1.908-0.576-1.08-1.368-3.815-5.724-4.464-4.534-0.541-11.194-0.073-20.662 1.259-0.864 4.465-1.944 6.696-3.528 6.696-1.62-0.036-3.204-5.364-5.724-6.696-2.556-1.151-2.124-0.288-9.54-0.611-7.668-0.253-19.296-0.577-35.568-0.973-0.648-1.943-2.268-3.06-5.4-3.491-3.06-0.36-7.452 0.107-13.032 1.26l3.168 271.7v-0.01c1.62 1.01 3.24 1.62 4.464 2.23 1.188 0.5 2.376 0.83 3.168 0.97 0.216 1.37 0.432 2.74 0.648 4.1z"/>
			</g><path id="path26" style="fill-rule:evenodd;fill:url(#XMLID_4_)" d="m3.4975 275.85c-0.108-35.21-0.324-74.49-0.792-119.92-0.468-45.47-1.116-94.827-1.944-150.59l-0.00001 0.0005c3.348-1.367 6.408-2.016 9.3235-1.943 2.88 0.18 5.364 1.08 7.74 2.699l10.872 274.39c-1.8-0.87-3.816-1.77-6.588-2.7-2.808-0.79-6.588-2.45-9.684-2.74-3.0955-0.36-6.1195 0-8.9275 0.8z"/><path id="path28" style="fill-rule:evenodd;fill:#412318" d="m12.101 282.58l-1.188-3.89-5.0755-2.09c3.78-1.15 7.2715-1.3 10.764-0.58 3.419 0.87 6.695 2.38 9.827 5.08-2.772 1.37-5.4 2.16-7.74 2.38-2.484 0.32-4.536-0.11-6.588-0.9z"/><path id="path39" style="fill-rule:evenodd;fill:url(#XMLID_5_)" d="m28.841 276.02l-11.376-269.31v-0.0005c6.66 0.322 12.348 0.719 17.64 0.898 5.22 0.324 9.144 0.434 13.428 0.613 4.176 0.287 8.748-0.396 11.628 0.287 2.7 0.793 3.564 2.3045 5.076 3.5635 1.404 1.26 2.376 3.707 3.6 3.889 1.152 0.322 2.521-1.117 3.564-2.377 0.936-1.225 1.584-2.916 2.088-5.0755 4.176-0.432 7.632-0.684 10.764-0.9 2.988-0.18 5.472-0.18 7.452 0 1.8 0.289 3.276 0.938 3.888 1.801 0.54 1.1145-0.252 2.7355-0.288 3.8885-0.072 1.043-0.72 1.979 0 2.951 0.612 1.26 2.88 3.527 3.885 3.889 0.87 0.359 0.9-1.117 1.48-2.088 0.43-1.008 0.76-2.018 1.51-3.564 0.65-1.404 1.59-2.953 2.67-4.7885 3.13-0.18 6.84-0.18 11.12-0.287 4.32-0.072 10.94-0.576 14.33 0 3.24 0.7555 3.31 3.1675 5.07 4.1755 1.66 1.152 3.86 2.268 5.08 2.088 1.19-0.252 1.01-2.123 1.8-3.275 0.58-0.936 0.25-1.98 2.09-2.7005 1.76-0.684 4.64-1.402 8.64-1.475 3.89 0.107 11.27 0.971 14.65 1.764 3.24 0.8625 3.78 1.3665 5.08 3.3125 1.11 2.088 1.44 6.264 2.08 8.639 0.62 2.449 1.44 4.248 2.09 5.689-0.18-2.846-0.03-5.293 0.29-7.488 0.32-2.053 1.12-3.564 1.8-5.365 0.65-1.836 1.12-3.492 1.8-5.3625 5.83-0.359 11.16-0.469 16.13-0.324 4.93 0.217 9.36 0.576 13.43 1.2245 1.15 2.051 2.08 4.031 2.66 5.939 0.61 2.016 0.86 3.816 0.9 5.688 1.62-1.619 2.77-3.311 3.31-5.076 0.51-1.764 0.51-3.455 0-5.363 6.3 0.396 12.42 0.539 18.51 0.287 6.12-0.215 12.96-0.898 17.6-1.475 4.43-0.4685 5.62-1.4765 8.96-1.5115 3.21 0.143 7.06 1.2595 10.44 1.7985 3.21 0.541 4.07 0.936 9.54 1.188 5.66 0.289 17.5 0.686 23.3 0.613 5.54 0.035 8.78-0.217 9.86-0.613l0.9 262.15c-2.77-0.97-6.41-1.48-11.05-1.51-4.79 0.03-10.55 1.04-16.74 1.51-6.3 0.61-13.57 1.48-20.27 1.76-6.77 0.29-14.37 0.4-19.73 0.33-5.4 0.18-9.72 0.5-12.53 0-2.91-0.43-3.63-1.77-4.79-3.31-1.26-1.59-1.54-3.71-2.37-5.98-0.94-2.09-2.16-4.64-2.7-6.84-0.58-2.09-0.51-5.15-0.9-5.98-0.61-0.61-1.73-0.07-2.09 1.48-0.29 1.66 0.18 5.54 0 7.78-0.29 2.3-0.94 3.92-1.8 5.68-0.94 1.88-1.15 4.07-3.56 5.08-2.45 1.12-6.23 1.19-11.34 1.19-5.29 0-11.74-1.37-20.02-1.19-8.53 0.36-20.7 2.27-29.7 2.66-8.96 0.47-15.95-0.32-23.58-0.57-7.81-0.22-15.41-1.55-22.1-1.23-6.66 0.47-13 3.1-17.608 3.32-4.68 0.14-6.588-1.48-10.44-2.09-3.996-0.4-8.1-0.65-12.852-0.61-0.72-3.64-1.368-6.48-1.8-8.68-0.54-2.12-0.936-2.92-0.9-4.46 0.072-1.55 0.432-3.24 1.224-5.08-2.592 1.4-4.14 2.95-4.788 4.79-0.684 1.91 0.54 3.99 0.9 6.26 0.324 2.31 0.72 4.79 1.188 7.45-4.608 0.65-9.108 1.05-14.04 1.19-5.004 0.25-11.196 0.25-15.228 0-4.068-0.11-7.019-0.4-8.855-0.87z"/><path id="path54" style="fill-rule:evenodd;fill:url(#XMLID_6_)" d="m317.38 279.59c-0.11-75.93-0.11-135.32-0.29-181.8-0.21-46.153-0.32-76.755-0.61-93.458v0.0005c2.67 1.908 5.26 3.203 8.07 3.889 2.7 0.756 5.43 0.576 8.35 0.287 2.84-0.215 5.83-0.863 8.96-1.799l-4.5 271.98c-3.27 1.87-6.01 3.17-8.35 3.89-2.34 0.93-3.85 1-5.65 0.61-1.91-0.43-4-1.73-5.98-3.6z"/><path id="path56" style="fill-rule:evenodd;fill:#412318" d="m315.87 4.6195c2.74 1.801 5.87 2.953 9.25 3.602 3.39 0.646 8.17 0.791 11.05 0.287 2.74-0.396 4.68-1.295 5.69-2.699-1.44-0.541-3.27-1.08-5.36-1.477-2.2-0.396-4.65-0.648-7.49-0.9l-3.56-2.375c-2.2-0.43203-4.14-0.28903-5.69 0.287-1.69 0.613-2.85 1.656-3.89 3.275z"/><path id="path58" style="fill-rule:evenodd" d="m11.561 283.48c2.268 0.39 4.68 0.39 7.632 0 2.88-0.4 6.012-1.05 9.54-2.23l0.324-3.82c3.42-0.25 6.516-0.36 9.864-0.32 3.204 0.18 6.012 0.72 9.54 0.64 3.42-0.18 8.208-0.82 11.448-1.26 3.276-0.25 5.832-0.36 7.956-0.32 0.252-0.54 0.252-1.76 0-3.82-0.324-2.05-1.728-5.83-1.584-8.28 0.18-2.3 0.936-4.21 2.556-5.72-0.72 2.16-1.044 3.96-0.972 5.4 0.036 1.51 0.792 1.48 1.296 3.49 0.468 2.13 0.756 5.01 1.26 8.93 3.096 0.07 6.552 0.29 10.512 0.65 3.888 0.5 7.308 1.73 13.032 1.58 5.616-0.18 15.335-2.05 20.985-2.55 5.69-0.36 9.76-0.26 12.75 0.32 3.42 0.97 7.52 1.4 12.71 1.58 5.22 0.25 12.45-0.28 17.82-0.64 5.07-0.4 7.2-0.72 13.03-1.26 5.79-0.36 15.8-0.87 21.96-0.94 6.12 0.11 9.9 1.4 14.65 1.26 4.72-0.07 9.04-0.76 13.36-1.91 0.28-0.9 0.61-1.83 1.26-3.2 0.57-1.12 1.83-2.13 2.23-4.43 0.28-2.31-0.61-7.85-0.33-9.54 0.26-1.59 0.65-1.69 1.59-0.32-0.58 2.88-0.47 5.32 0.32 7.63 0.76 2.3 3.06 4.32 4.14 6.05 0.9 1.87-0.32 3.31 1.59 4.46 1.87 1.15 3.85 1.66 9.54 1.91 5.54 0.29 17.38-0.4 23.86-0.65 6.34-0.14 8.53-0.18 14.22-0.65 5.58-0.39 13.22-1.73 19.44-1.91 6.12-0.07 11.95 0.36 17.5 1.3l-0.32 5.73c2.98 2.52 6.22 3.63 9.86 3.49 3.56-0.18 7.49-1.62 11.77-4.47l4.43-274.53v-0.0025c-0.22-0.182-1.33-0.506-3.49-0.973-2.23-0.469-5.37-0.865-9.54-1.584l-1.91-2.557v-0.000026c-3.17-0.072-5.58 0.145-7.63 0.648-2.06 0.61103-3.49 1.332-4.47 2.557l0.33 8.2435c-16.06-0.289-28.34-0.613-37.23-1.262-8.93-0.5735-10.15-2.1575-15.91-2.2295-5.94 0.107-13.54 1.871-18.76 2.2295-5.18 0.396-7.77-0.07-12.09 0-4.47 0.217-9.15 0.434-14.33 0.938-0.07 2.412-0.14 4.428-0.61 6.047-0.51 1.729-1.01 2.916-1.91 3.852 0.61-2.088 0.72-4.104 0.32-6.047-0.5-1.908-1.33-3.672-2.88-5.4355-5.97-0.721-11.7-1.045-17.17-1.26-5.65-0.145-10.73-0.037-15.91 0.322 0.61 1.8355 0.83 3.5285 0.65 5.0755-0.33 1.621-1.51 2.412-1.91 4.465-0.4 2.195-0.5 4.824-0.32 8.279-0.04-0.719-0.15-1.584-0.33-2.879-0.29-1.26-0.79-2.844-0.97-4.465-0.22-1.439 0.29-3.203-0.29-4.752-0.65-1.584-0.9-3.168-3.53-4.4625-2.8-1.225-8.06-1.836-12.7-2.232-4.83-0.252-12.14-0.072-15.27 0.971-3.13 1.225-1.51 6.0135-3.2 6.0485-1.77 0.072-3.93-4.7515-7.31-5.7245-3.6-0.898-8.86 0.361-13.68 0.324-4.82 0.072-9.76 0.072-14.94 0-0.97 1.3315-1.73 2.8085-2.56 4.4275-0.82 1.729-1.29 5.473-2.23 5.4-1.186-0.035-3.526-4.393-3.814-5.725-0.18-1.15 2.988-0.863 2.556-1.906-0.576-1.01-1.368-3.7805-5.724-4.4295-4.5-0.539-11.268-0.07-20.7 1.262-0.864 4.4625-1.98 6.6945-3.492 6.6945-1.62-0.037-3.204-5.3625-5.724-6.6945-2.556-1.225-2.124-0.289-9.54-0.648-7.667-0.29-19.295-0.504-35.568-0.936-0.648-1.945-2.268-3.061-5.4-3.492-3.06-0.361-7.4515 0.107-13.032 1.26h0.00049l3.169 271.69c1.62 1.04 3.24 1.65 4.464 2.23 1.188 0.61 2.3755 0.79 3.1675 0.94 0.215 1.36 0.432 2.73 0.648 4.14zm-7.0195-7.96c3.24-0.61 6.2995-0.86 9.5755-0.61 3.168 0.32 7.272 1.33 9.54 2.19 2.232 0.98 3.456 1.95 3.816 3.21-0.216-8.14-0.648-22.93-1.584-45.51-1.08-22.64-2.268-50.32-3.852-88.74-1.512-38.34-3.204-84.092-5.076-139.35v-0.0005c-2.088-1.152-4.284-1.836-6.9835-1.908-2.736-0.037-5.58 0.539-8.928 1.584 1.152 89.71 2.304 179.42 3.492 269.13zm14.002-267.55c14.688 0.684 25.38 1.115 32.616 1.295 7.056 0.18 7.308-1.115 10.188 0 2.844 1.2245 5.076 6.3005 6.984 7.3085 1.8 1.225 2.952 0.684 4.14-0.648 1.152-1.225 1.908-3.6 2.556-6.9835 4.5-0.395 8.424-0.611 11.772-0.646 3.456-0.037 6.588 0.18 8.28 0.646 1.368 0.686 1.08 2.0875 0.936 2.8435-0.216 0.828-1.764 0.865-1.584 1.908 0.18 1.297 1.728 3.492 2.844 4.789 1.08 1.295 2.628 3.023 3.814 2.555 1.01-0.395 1.73-3.348 2.56-5.111 0.83-1.729 1.47-3.527 2.23-5.4 6.05 0.252 11.2 0.361 15.59 0.324 4.35-0.035 7.81-0.791 10.51-0.324 2.52 0.648 3.85 2.664 5.4 3.816 1.51 1.225 3.02 3.061 4.14 3.168 1.04 0.145 1.84-1.295 2.52-2.52 0.58-1.152-1.12-3.385 1.3-4.465 2.37-1.0075 8.89-1.2945 13.03-1.2595 4.1 0.217 8.78 1.2245 11.52 2.1965 2.66 1.008 3.46 1.584 4.46 3.814 0.83 2.377 0.18 7.668 0.98 10.189 0.75 2.592 1.87 4.248 3.49 5.111-0.58-3.348-0.69-6.084-0.33-8.604 0.29-2.377 1.59-4.068 2.24-6.049 0.61-1.943 0.93-3.852 1.26-5.725 0.57-0.035 3.27-0.035 7.95 0 4.72 0.072 11.31 0.182 20.05 0.324 1.41 1.656 2.42 3.564 3.17 5.725 0.69 2.232 1.01 4.572 0.97 7.309 1.26-1.189 2.42-2.629 3.17-4.465 0.83-1.836 1.26-3.816 1.59-6.336 11.98 0.072 21.6-0.145 29.26-0.648 7.6-0.467 10.55-2.2295 16.24-2.2295 5.47 0.2145 8.6 1.9425 17.17 2.5545 8.64 0.576 19.77 0.793 34.06 0.648l1.26 259.92c-4.72-1.04-10.19-1.48-16.85-1.3-6.84 0.4-16.74 1.95-22.9 2.56-6.08 0.58-7.09 0.61-13.28 0.65-6.37 0.25-19.11 0.39-24.19 0-5.11-0.47-4.86-1.51-6.05-2.56-1.26-0.83-0.43-1.04-1.26-2.88-1.01-1.83-3.31-5.18-4.14-7.95-0.83-2.63 0.07-6.3-0.65-7.96-0.86-1.48-3.49-2.27-4.14-1.26-0.79 1.12 0.18 5 0 7.63-0.21 2.74-0.54 6.19-1.26 8.28-0.86 2.16-1.98 3.6-3.49 4.47-4.75 1.04-8.89 1.44-12.42 1.58-3.64 0.07-3.46-0.72-8.89-0.97-5.51-0.15-15.77-0.04-23.55 0.32-7.92 0.54-17.46 2.27-23.22 2.56-5.72 0.39-6.66-0.15-11.16-0.65-4.71-0.58-11.05-1.84-16.52-2.23-5.69-0.18-11.16 0.47-16.56 0.97-5.44 0.72-11.449 2.41-15.265 2.56-3.816 0.07-4.176-1.26-7.308-1.91-3.132-0.5-6.948-0.94-11.448-1.3-1.728-3.49-2.592-6.55-2.88-9.86-0.288-3.2 0.144-6.23 1.296-9.22-2.952 3.21-4.968 5.66-6.048 7.64-1.224 1.94-0.936 2.3-0.648 4.14 0.288 2.01 0.936 4.46 2.232 7.63-0.936 0.61-3.528 0.9-7.632 1.26-4.284 0.36-12.276 0.72-17.172 0.65-4.932 0.03-8.676-0.18-11.772-0.65l-11.161-267.23v-0.0005zm-5.723 273.92l-1.26-4.14-4.4635-1.26c3.3835-0.14 6.5155-0.07 9.5395 0.61 3.024 0.72 5.652 1.66 8.28 3.21-2.736 1.08-4.932 1.62-6.984 1.91-2.052 0.28-3.708 0.18-5.112-0.33zm328-276.15c-1.8 0.936-3.93 1.477-6.66 1.619-2.88 0.18-6.63-0.035-9.58-0.646-2.95-0.576-5.36-1.297-7.63-2.557 1.19-1.045 2.7-1.584 4.14-1.908 1.4-0.252 3.13-0.145 4.79 0.324l3.17 2.232c3.92 0.288 7.84 0.612 11.77 0.936zm-23.87 0.973c0.4 26.134 0.72 61.164 0.97 106.88 0.18 45.98 0.29 100.15 0.33 165.75 0.79 2.05 2.55 3.06 5.72 2.88 3.02-0.18 7.31-1.41 12.71-3.82l4.14-270.11v0.0045c-4.18 0.971-7.89 1.547-11.13 1.584-3.49 0.035-6.4-0.613-8.6-1.262-2.16-0.575-3.49-1.081-4.14-1.907z"/>
<metadata><rdf:RDF><cc:Work><dc:format>image/svg+xml</dc:format><dc:type rdf:resource="http://purl.org/dc/dcmitype/StillImage"/><cc:license rdf:resource="http://creativecommons.org/licenses/publicdomain/"/><dc:publisher><cc:Agent rdf:about="http://openclipart.org/"><dc:title>Openclipart</dc:title></cc:Agent></dc:publisher><dc:title>Parchment Background or Border</dc:title><dc:date>2010-04-27T15:11:53</dc:date><dc:description/><dc:source>https://openclipart.org/detail/57367/parchment-background-or-border-by-gerald_g-57367</dc:source><dc:creator><cc:Agent><dc:title>Gerald_G</dc:title></cc:Agent></dc:creator><dc:subject><rdf:Bag><rdf:li>background</rdf:li><rdf:li>border</rdf:li><rdf:li>paper</rdf:li><rdf:li>parchment</rdf:li><rdf:li>scroll</rdf:li></rdf:Bag></dc:subject></cc:Work><cc:License rdf:about="http://creativecommons.org/licenses/publicdomain/"><cc:permits rdf:resource="http://creativecommons.org/ns#Reproduction"/><cc:permits rdf:resource="http://creativecommons.org/ns#Distribution"/><cc:permits rdf:resource="http://creativecommons.org/ns#DerivativeWorks"/></cc:License></rdf:RDF></metadata></svg>
