<?xml version="1.0" encoding="UTF-8" standalone="no"?>
<!-- Created with Inkscape (http://www.inkscape.org/) -->

<svg
   xmlns:dc="http://purl.org/dc/elements/1.1/"
   xmlns:cc="http://creativecommons.org/ns#"
   xmlns:rdf="http://www.w3.org/1999/02/22-rdf-syntax-ns#"
   xmlns:svg="http://www.w3.org/2000/svg"
   xmlns="http://www.w3.org/2000/svg"
   xmlns:sodipodi="http://sodipodi.sourceforge.net/DTD/sodipodi-0.dtd"
   xmlns:inkscape="http://www.inkscape.org/namespaces/inkscape"
   id="Layer_1"
   xml:space="preserve"
   version="1.0"
   viewBox="0 0 219.554 256"
   inkscape:version="0.92.4 (5da689c313, 2019-01-14)"
   sodipodi:docname="reiwa_era_scroll_01.svg"
   width="219.554"
   height="256"><title
     id="title844">Reiwa Era Scroll</title><sodipodi:namedview
     pagecolor="#ffffff"
     bordercolor="#666666"
     borderopacity="1"
     objecttolerance="10"
     gridtolerance="10"
     guidetolerance="10"
     inkscape:pageopacity="0"
     inkscape:pageshadow="2"
     inkscape:window-width="1920"
     inkscape:window-height="1025"
     id="namedview6641"
     showgrid="false"
     fit-margin-top="0"
     fit-margin-left="0"
     fit-margin-right="0"
     fit-margin-bottom="0"
     inkscape:zoom="0.38755304"
     inkscape:cx="-351.544"
     inkscape:cy="303.40316"
     inkscape:window-x="-8"
     inkscape:window-y="-8"
     inkscape:window-maximized="1"
     inkscape:current-layer="Layer_1" /><defs
     id="defs61"><linearGradient
       id="XMLID_4_"
       y2="138.34"
       gradientUnits="userSpaceOnUse"
       x2="683.31"
       y1="138.34"
       x1="655.95001"
       gradientTransform="matrix(0,-1.1739086,2.6080815,0,211.99339,458.28402)"><stop
         id="stop18"
         style="stop-color:#8d5c34"
         offset=".0048" /><stop
         id="stop20"
         style="stop-color:#93633b"
         offset=".1429" /><stop
         id="stop22"
         style="stop-color:#e8d0a9"
         offset=".29520" /><stop
         id="stop24"
         style="stop-color:#e3cba4"
         offset=".63810" /><stop
         id="stop26"
         style="stop-color:#93633a"
         offset=".93330" /><stop
         id="stop28"
         style="stop-color:#8d5c34"
         offset="1" /></linearGradient><linearGradient
       id="XMLID_5_"
       y2="138.32001"
       gradientUnits="userSpaceOnUse"
       x2="666.09998"
       y1="138.32001"
       x1="32.785999"
       gradientTransform="matrix(0,-1.1739086,2.6080815,0,211.99339,458.28402)"><stop
         id="stop35"
         style="stop-color:#8d5c34"
         offset="0" /><stop
         id="stop37"
         style="stop-color:#d1b38b"
         offset=".0333" /><stop
         id="stop39"
         style="stop-color:#e3cba4"
         offset=".91430" /><stop
         id="stop41"
         style="stop-color:#8d5c34"
         offset="1" /></linearGradient><linearGradient
       id="XMLID_6_"
       y2="136.83"
       gradientUnits="userSpaceOnUse"
       x2="34.118"
       y1="136.83"
       x1="8.7383003"
       gradientTransform="matrix(0,-1.1739086,2.6080815,0,211.99339,458.28402)"><stop
         id="stop46"
         style="stop-color:#8d5c34"
         offset=".1286" /><stop
         id="stop48"
         style="stop-color:#e8d0a9"
         offset=".29050" /><stop
         id="stop50"
         style="stop-color:#e3cba4"
         offset=".5952" /><stop
         id="stop52"
         style="stop-color:#8d5c34"
         offset="1" /></linearGradient></defs><metadata
     id="metadata6639"><rdf:RDF><cc:Work><dc:format>image/svg+xml</dc:format><dc:type
           rdf:resource="http://purl.org/dc/dcmitype/StillImage" /><cc:license
           rdf:resource="http://creativecommons.org/licenses/publicdomain/" /><dc:publisher><cc:Agent
             rdf:about="http://openclipart.org/"><dc:title>Openclipart</dc:title></cc:Agent></dc:publisher><dc:title>Parchment Background or Border</dc:title><dc:date>2007-02-09T14:14:32</dc:date><dc:description /><dc:source>https://openclipart.org/detail/3161/parchment-background-or-border-by-gerald_g-3161</dc:source><dc:creator><cc:Agent><dc:title>Gerald_G</dc:title></cc:Agent></dc:creator><dc:subject><rdf:Bag><rdf:li>background</rdf:li><rdf:li>border</rdf:li><rdf:li>paper</rdf:li><rdf:li>parchment</rdf:li><rdf:li>scroll</rdf:li></rdf:Bag></dc:subject></cc:Work><cc:License
         rdf:about="http://creativecommons.org/licenses/publicdomain/"><cc:permits
           rdf:resource="http://creativecommons.org/ns#Reproduction" /><cc:permits
           rdf:resource="http://creativecommons.org/ns#Distribution" /><cc:permits
           rdf:resource="http://creativecommons.org/ns#DerivativeWorks" /></cc:License></rdf:RDF></metadata><g
     id="g7285"
     transform="matrix(0.32256938,0,0,0.32256938,-75.110462,111.19758)"><g
       transform="matrix(0,-1.1739086,2.6080815,0,211.99339,458.28402)"
       id="g11"><path
         id="path13"
         style="fill-rule:evenodd"
         d="m 672.58,8.643 c -2.27,-0.359 -4.75,-0.359 -7.64,0 -2.91,0.324 -6.94,1.188 -10.47,2.195 v 3.744 l -19.48,-0.144 -11.01,-0.647 -11.02,0.324 -10.12,0.215 c 0,0 1.12,9.504 1.01,12.564 -0.32,11.7 -3.53,-1.764 -7.7,10.188 -2.16,6.192 -1.48,8.785 -1.48,8.785 0,0 -5.33,-2.341 -7.09,-6.769 -9.07,-22.824 -10.44,10.8 -19.01,1.764 -2.23,-2.34 -1.65,-3.888 -1.83,-8.1 -0.18,-4.212 1.22,-4.104 1.08,-8.748 -0.11,-4.644 -1.59,-9.792 -1.59,-9.792 0,0 -15.62,0.72 -33.87,0.576 -18.26,-0.18 -21.46,-0.324 -39.5,-0.684 -18.03,-0.361 -32.22,-0.217 -32.22,-0.217 -36.07,-0.072 -18.64,-0.107 -22.1,0 -3.53,0.072 -8.28,0.54 -11.56,0.792 -3.24,0.216 -5.76,0.72 -7.84,0.647 -0.29,0.504 -0.29,1.656 0,3.529 0.25,1.871 1.72,5.399 1.58,7.596 -0.18,2.16 -1.01,3.852 -2.56,5.256 0.69,-1.98 1.01,-3.6 0.98,-4.969 -0.08,-1.403 -0.83,-1.332 -1.3,-3.203 -0.43,-1.944 -0.83,-4.608 -1.26,-8.209 -3.1,-0.035 -6.56,-0.252 -10.51,-0.575 -3.93,-0.36 -7.31,-1.62 -13.03,-1.476 -5.73,0.18 -15.31,1.979 -20.99,2.34 -5.65,0.359 -9.83,0.252 -12.75,-0.289 -3.42,-0.828 -7.59,-1.295 -12.71,-1.439 -5.14,-0.145 -12.6,0.288 -17.81,0.576 -5.19,0.288 -7.17,0.828 -13.04,1.152 -5.9,0.359 -15.8,0.936 -21.96,0.899 -6.12,-0.071 -9.93,-1.296 -14.65,-1.188 -4.68,0.109 -9.07,0.685 -13.35,1.765 -0.26,0.792 -0.69,1.728 -1.26,2.916 -0.58,1.188 -1.91,1.944 -2.24,4.104 -0.28,2.16 0.54,7.199 0.33,8.748 -0.22,1.512 -0.72,1.619 -1.59,0.287 0.51,-2.592 0.44,-4.896 -0.32,-6.984 -0.76,-2.123 -3.17,-3.959 -4.14,-5.58 -0.94,-1.619 0.29,-3.096 -1.58,-4.067 -1.88,-1.008 -3.96,-1.548 -9.54,-1.764 -5.66,-0.181 -17.46,0.396 -23.87,0.575 -6.37,0.217 -8.61,0.181 -14.22,0.576 -5.62,0.396 9.54,1.656 -19.44,1.765 -7.81,0.108 -15.63,0.252 -23.44,0.396 -8.57,-0.216 -17.13,-0.468 -25.7,-0.72 -5.33,0.108 -10.66,0.216 -16.02,0.36 -1.87,1.332 -3.75,2.699 -5.62,4.068 0,0 0.07,-0.613 -0.11,0.647 -0.21,1.296 -0.72,4.5 -0.72,4.5 -1.33,1.584 -2.66,3.168 -3.99,4.788 0,0 0.61,-1.584 0,-3.672 -0.61,-2.125 -1.91,-2.053 -2.41,-4.789 -0.51,-2.771 0.39,-6.264 0.39,-6.264 -8.42,-0.107 -16.847,-0.252 -25.271,-0.396 -6.264,-0.108 -12.564,-0.216 -18.864,-0.36 -29.34,0.108 41.945,1.152 -32.4,0.288 0.108,-1.728 0.216,-3.491 0.324,-5.256 -2.988,-2.304 -6.228,-3.384 -9.864,-3.239 -3.636,0.18 -7.488,1.512 -11.772,4.104 -1.473,84.026 -2.949,168.05 -4.425,252.11 0.144,0.22 1.296,0.51 3.492,0.9 2.196,0.4 5.328,0.86 9.54,1.44 0.612,0.76 1.26,1.55 1.908,2.34 3.096,0.11 5.58,-0.07 7.632,-0.58 2.052,-0.5 3.492,-1.26 4.464,-2.34 -0.18,-2.3 -0.36,-4.64 -0.576,-6.98 8.136,0.11 16.308,0.22 24.48,0.36 12.564,0.36 25.128,0.72 37.692,1.12 10.44,-0.22 20.88,-0.47 31.32,-0.72 v -4.43 c 0.94,-3.57 1.87,-7.13 2.81,-10.69 0.79,2.08 1.58,4.17 2.37,6.26 -0.1,2.7 -0.25,5.4 -0.39,8.1 34.16,-0.18 58.32,-0.07 73.83,0.36 15.34,0.43 11.78,2.2 17.93,2.23 6.16,0.04 13.57,-1.69 18.76,-2.01 5.18,-0.36 7.67,0.1 12.09,0 4.43,-0.18 9.15,-0.44 14.33,-0.9 0,-2.2 0.22,-4.04 0.61,-5.55 0.44,-1.51 1.08,-2.66 1.91,-3.49 -0.61,1.94 -0.72,3.78 -0.32,5.54 0.47,1.77 1.4,3.39 2.88,4.97 5.97,0.61 11.63,1.01 17.17,1.15 5.58,0.15 10.76,0.08 15.91,-0.28 -0.65,-1.66 -0.86,-3.21 -0.65,-4.68 0.26,-1.48 1.55,-2.13 1.91,-4.07 0.4,-1.98 0.51,-4.47 0.33,-7.6 0,0.61 0.1,1.48 0.32,2.63 0.22,1.12 0.76,2.66 0.97,4.07 0.18,1.44 -0.32,2.95 0.29,4.39 0.65,1.44 0.79,3.06 3.53,4.1 2.73,1.01 7.99,1.84 12.71,2.02 4.71,0.22 12.16,0.22 15.26,-0.86 3.1,-1.08 1.44,-5.47 3.2,-5.55 1.77,-0.03 3.78,4.4 7.31,5.26 3.53,0.83 8.86,-0.25 13.68,-0.29 4.83,-0.03 9.72,-0.03 14.94,0 0.94,-1.22 1.77,-2.59 2.56,-4.1 0.79,-1.52 1.22,-5.01 2.23,-4.97 1.01,0.07 3.6,4.07 3.81,5.26 0.22,1.18 -3.05,0.79 -2.55,1.76 0.54,0.97 1.33,3.6 5.72,4.1 4.47,0.47 11.23,0.11 20.7,-1.18 0.79,-4.11 1.95,-6.12 3.5,-6.12 1.54,0 3.16,4.96 5.72,6.12 2.48,1.11 -1.08,1.15 39.28,1.36 l 36.1,-0.72 40.9,-0.36 c 0,0 -0.69,-3.78 -0.4,-6.26 0.33,-2.48 -1.47,-5.36 -0.39,-5.9 1.11,-0.54 3.92,4.89 6.4,3.67 2.52,-1.19 4.83,-6.63 4.83,-6.63 0,0 2.73,-2.37 4.03,-1.11 1.3,1.29 1.58,3.31 1.98,6.66 0.43,3.31 -1.4,4.03 -0.4,6.62 1.01,2.56 4.43,3.67 4.43,3.67 l 40.5,1.48 16.45,-0.36 c 41.04,0.25 48.53,-0.65 48.53,-0.65 0,0 2.31,2.85 5.4,3.21 3.13,0.32 7.38,-0.04 13.03,-1.15 -1.04,-83.16 -2.08,-166.32 -3.16,-249.52 -1.73,-0.864 -3.17,-1.548 -4.47,-2.052 -1.26,-0.469 -2.3,-0.756 -3.17,-0.865 -0.21,-1.261 -0.42,-2.521 -0.64,-3.78 z"
         inkscape:connector-curvature="0" /><path
         id="path15"
         style="fill:none;stroke:#000000;stroke-width:0.036;stroke-miterlimit:10"
         d="m 672.58,8.643 c -2.27,-0.359 -4.75,-0.359 -7.64,0 -2.91,0.324 -6.94,1.188 -10.47,2.195 v 3.744 l -19.48,-0.144 -11.01,-0.647 -11.02,0.324 -10.12,0.215 c 0,0 1.12,9.504 1.01,12.564 -0.32,11.7 -3.53,-1.764 -7.7,10.188 -2.16,6.192 -1.48,8.785 -1.48,8.785 0,0 -5.33,-2.341 -7.09,-6.769 -9.07,-22.824 -10.44,10.8 -19.01,1.764 -2.23,-2.34 -1.65,-3.888 -1.83,-8.1 -0.18,-4.212 1.22,-4.104 1.08,-8.748 -0.11,-4.644 -1.59,-9.792 -1.59,-9.792 0,0 -15.62,0.72 -33.87,0.576 -18.26,-0.18 -21.46,-0.324 -39.5,-0.684 -18.03,-0.361 -32.22,-0.217 -32.22,-0.217 -36.07,-0.072 -18.64,-0.107 -22.1,0 -3.53,0.072 -8.28,0.54 -11.56,0.792 -3.24,0.216 -5.76,0.72 -7.84,0.647 -0.29,0.504 -0.29,1.656 0,3.529 0.25,1.871 1.72,5.399 1.58,7.596 -0.18,2.16 -1.01,3.852 -2.56,5.256 0.69,-1.98 1.01,-3.6 0.98,-4.969 -0.08,-1.403 -0.83,-1.332 -1.3,-3.203 -0.43,-1.944 -0.83,-4.608 -1.26,-8.209 -3.1,-0.035 -6.56,-0.252 -10.51,-0.575 -3.93,-0.36 -7.31,-1.62 -13.03,-1.476 -5.73,0.18 -15.31,1.979 -20.99,2.34 -5.65,0.359 -9.83,0.252 -12.75,-0.289 -3.42,-0.828 -7.59,-1.295 -12.71,-1.439 -5.14,-0.145 -12.6,0.288 -17.81,0.576 -5.19,0.288 -7.17,0.828 -13.04,1.152 -5.9,0.359 -15.8,0.936 -21.96,0.899 -6.12,-0.071 -9.93,-1.296 -14.65,-1.188 -4.68,0.109 -9.07,0.685 -13.35,1.765 -0.26,0.792 -0.69,1.728 -1.26,2.916 -0.58,1.188 -1.91,1.944 -2.24,4.104 -0.28,2.16 0.54,7.199 0.33,8.748 -0.22,1.512 -0.72,1.619 -1.59,0.287 0.51,-2.592 0.44,-4.896 -0.32,-6.984 -0.76,-2.123 -3.17,-3.959 -4.14,-5.58 -0.94,-1.619 0.29,-3.096 -1.58,-4.067 -1.88,-1.008 -3.96,-1.548 -9.54,-1.764 -5.66,-0.181 -17.46,0.396 -23.87,0.575 -6.37,0.217 -8.61,0.181 -14.22,0.576 -5.62,0.396 9.54,1.656 -19.44,1.765 -7.81,0.108 -15.63,0.252 -23.44,0.396 -8.57,-0.216 -17.13,-0.468 -25.7,-0.72 -5.33,0.108 -10.66,0.216 -16.02,0.36 -1.87,1.332 -3.75,2.699 -5.62,4.068 0,0 0.07,-0.613 -0.11,0.647 -0.21,1.296 -0.72,4.5 -0.72,4.5 -1.33,1.584 -2.66,3.168 -3.99,4.788 0,0 0.61,-1.584 0,-3.672 -0.61,-2.125 -1.91,-2.053 -2.41,-4.789 -0.51,-2.771 0.39,-6.264 0.39,-6.264 -8.42,-0.107 -16.847,-0.252 -25.271,-0.396 -6.264,-0.108 -12.564,-0.216 -18.864,-0.36 -29.34,0.108 41.945,1.152 -32.4,0.288 0.108,-1.728 0.216,-3.491 0.324,-5.256 -2.988,-2.304 -6.228,-3.384 -9.864,-3.239 -3.636,0.18 -7.488,1.512 -11.772,4.104 -1.473,84.026 -2.949,168.05 -4.425,252.11 0.144,0.22 1.296,0.51 3.492,0.9 2.196,0.4 5.328,0.86 9.54,1.44 0.612,0.76 1.26,1.55 1.908,2.34 3.096,0.11 5.58,-0.07 7.632,-0.58 2.052,-0.5 3.492,-1.26 4.464,-2.34 -0.18,-2.3 -0.36,-4.64 -0.576,-6.98 8.136,0.11 16.308,0.22 24.48,0.36 12.564,0.36 25.128,0.72 37.692,1.12 10.44,-0.22 20.88,-0.47 31.32,-0.72 v -4.43 c 0.94,-3.57 1.87,-7.13 2.81,-10.69 0.79,2.08 1.58,4.17 2.37,6.26 -0.1,2.7 -0.25,5.4 -0.39,8.1 34.16,-0.18 58.32,-0.07 73.83,0.36 15.34,0.43 11.78,2.2 17.93,2.23 6.16,0.04 13.57,-1.69 18.76,-2.01 5.18,-0.36 7.67,0.1 12.09,0 4.43,-0.18 9.15,-0.44 14.33,-0.9 0,-2.2 0.22,-4.04 0.61,-5.55 0.44,-1.51 1.08,-2.66 1.91,-3.49 -0.61,1.94 -0.72,3.78 -0.32,5.54 0.47,1.77 1.4,3.39 2.88,4.97 5.97,0.61 11.63,1.01 17.17,1.15 5.58,0.15 10.76,0.08 15.91,-0.28 -0.65,-1.66 -0.86,-3.21 -0.65,-4.68 0.26,-1.48 1.55,-2.13 1.91,-4.07 0.4,-1.98 0.51,-4.47 0.33,-7.6 0,0.61 0.1,1.48 0.32,2.63 0.22,1.12 0.76,2.66 0.97,4.07 0.18,1.44 -0.32,2.95 0.29,4.39 0.65,1.44 0.79,3.06 3.53,4.1 2.73,1.01 7.99,1.84 12.71,2.02 4.71,0.22 12.16,0.22 15.26,-0.86 3.1,-1.08 1.44,-5.47 3.2,-5.55 1.77,-0.03 3.78,4.4 7.31,5.26 3.53,0.83 8.86,-0.25 13.68,-0.29 4.83,-0.03 9.72,-0.03 14.94,0 0.94,-1.22 1.77,-2.59 2.56,-4.1 0.79,-1.52 1.22,-5.01 2.23,-4.97 1.01,0.07 3.6,4.07 3.81,5.26 0.22,1.18 -3.05,0.79 -2.55,1.76 0.54,0.97 1.33,3.6 5.72,4.1 4.47,0.47 11.23,0.11 20.7,-1.18 0.79,-4.11 1.95,-6.12 3.5,-6.12 1.54,0 3.16,4.96 5.72,6.12 2.48,1.11 -1.08,1.15 39.28,1.36 l 36.1,-0.72 40.9,-0.36 c 0,0 -0.69,-3.78 -0.4,-6.26 0.33,-2.48 -1.47,-5.36 -0.39,-5.9 1.11,-0.54 3.92,4.89 6.4,3.67 2.52,-1.19 4.83,-6.63 4.83,-6.63 0,0 2.73,-2.37 4.03,-1.11 1.3,1.29 1.58,3.31 1.98,6.66 0.43,3.31 -1.4,4.03 -0.4,6.62 1.01,2.56 4.43,3.67 4.43,3.67 l 40.5,1.48 16.45,-0.36 c 41.04,0.25 48.53,-0.65 48.53,-0.65 0,0 2.31,2.85 5.4,3.21 3.13,0.32 7.38,-0.04 13.03,-1.15 -1.04,-83.16 -2.08,-166.32 -3.16,-249.52 -1.73,-0.864 -3.17,-1.548 -4.47,-2.052 -1.26,-0.469 -2.3,-0.756 -3.17,-0.865 -0.21,-1.261 -0.42,-2.521 -0.64,-3.78 z"
         inkscape:connector-curvature="0" /></g><path
       id="path30"
       style="fill:url(#XMLID_4_);fill-rule:evenodd;stroke:#000000;stroke-width:0.06299125;stroke-miterlimit:10"
       d="m 252.84116,-340.64296 c 84.40795,-0.0822 178.205,-0.34043 287.22802,-0.92738 108.99172,-0.46957 227.00741,-1.23261 360.61943,-2.28913 3.20794,3.97955 4.98143,7.57172 4.6163,10.95257 -0.39121,3.38086 -2.55592,6.42128 -6.49412,9.12127 l -658.54058,12.05604 h -0.005 c 2.81673,-1.57303 5.44568,-3.97955 7.88945,-7.06693 2.25077,-2.99346 5.63085,-7.60692 6.47587,-11.36343 0.65984,-3.59216 0.18778,-7.14911 -1.78393,-10.48301 z"
       inkscape:connector-curvature="0" /><path
       id="path32"
       style="fill:#412318;fill-rule:evenodd;stroke:#000000;stroke-width:0.06299125;stroke-miterlimit:10"
       d="m 236.69453,-330.54734 9.2952,-1.39695 4.97361,-5.95172 c 2.63156,4.47259 3.0984,8.58127 1.40837,12.63126 -1.87782,4.06172 -5.91513,7.9004 -12.11454,11.53952 -3.37747,-3.21651 -5.16139,-6.29215 -5.72474,-9.08605 -0.75113,-2.87608 0.0965,-5.23564 2.1621,-7.73606 z"
       inkscape:connector-curvature="0" /><path
       id="path43"
       style="fill:url(#XMLID_5_);fill-rule:evenodd;stroke:#000000;stroke-width:0.06299125;stroke-miterlimit:10"
       d="m 251.43541,-156.17496 -0.28168,-49.65633 14.64699,-1.13869 16.99426,-0.30522 19.34153,1.73738 18.21484,-2.45346 6.1942,-5.36477 -5.34918,-3.67433 -20.47083,-4.43737 -5.72735,-2.9113 2.91062,-2.50042 5.35178,-1.69043 9.4856,-2.11304 9.48298,-2.40651 11.07913,-5.44694 3.94342,-1.91347 -19.7171,-1.04478 -18.87207,-3.80346 -1.97171,-4.27303 -3.38008,-1.18564 -19.15636,-0.37566 -11.35819,0.55174 -11.64248,0.29348 -0.84501,-11.28126 -0.65724,-17.5382 1.78653,-17.83167 0.93631,-13.40603 645.03071,-13.31213 -1.2258,32.5877 v 26.83555 l 1.98215,21.6821 -1.98215,33.42117 -5.71169,13.19474 -17.29158,0.45782 -19.24765,0.97435 -5.71169,1.39695 3.75563,6.1278 17.36983,5.20041 -12.49271,6.58563 5.73777,2.32434 27.8804,-0.45782 c 2.52983,48.2946 4.12076,81.304906 4.77278,101.120484 0.46946,19.486882 -1.30404,10.987784 -1.40836,15.765592 -0.26081,5.036068 0.57378,10.40083 -0.73026,13.652557 -1.79958,3.298683 -5.63346,4.308245 -8.65883,5.963456 -3.18186,1.725646 -8.81532,2.911293 -9.28477,4.226071 -0.57378,1.479125 2.52984,3.07564 5.7117,4.179114 3.02537,1.138692 6.96357,1.901732 12.2319,2.453469 0.91283,4.942156 1.77349,9.003879 2.13862,12.631257 0.18257,3.6391166 0.65203,6.5504099 0,8.745619 -0.65202,2.2421654 -2.34727,3.97955017 -4.30333,4.56650447 -2.63416,0.71608425 -6.57237,-0.21130354 -9.31085,-0.34043349 -2.99929,0.0469563 -4.40766,-0.71608428 -7.12006,0 -2.9993,0.84521419 -8.63275,3.50998672 -9.28477,4.56650442 -0.6781,1.1034741 2.42551,1.1856477 4.95535,1.7373848 2.16471,0.6339106 5.164,1.0095614 8.65883,1.7726019 3.28618,0.7982579 6.9375,1.901732 11.34516,3.1225969 0.46945,3.768247 0.46945,8.123448 0.75634,13.065603 -0.10432,5.200415 1.59093,12.936473 0,16.82211 -2.16471,3.932594 -7.32871,4.014767 -10.04111,5.951717 -2.81673,2.077818 -5.45089,4.648678 -4.98144,5.963455 0.28689,1.479125 5.45089,1.303039 7.87641,2.113036 2.06038,0.76304 4.79887,0.375651 6.3898,2.453469 1.69525,2.195209 3.3905,5.576066 3.65131,10.14257 -0.18256,4.683895 -2.34727,13.312124 -4.30333,17.197761 -2.26903,3.932594 -3.20794,4.566504 -7.90249,5.951717 -4.95536,1.396951 -15.02255,1.784341 -20.73425,2.453469 -6.02467,0.76304 -10.04111,1.737384 -13.53594,2.453469 6.78101,-0.164348 12.59703,0 17.83928,0.340433 4.98143,0.457824 8.5545,1.432169 12.88392,2.113036 4.40766,0.798257 8.34586,1.349994 12.85784,2.113035 0.75634,6.890842 1.12148,13.136042 0.75634,18.935142 -0.46945,5.82259 -1.33012,11.02301 -2.92105,15.75386 -5.05968,1.39695 -9.57166,2.50042 -14.2662,3.13433 -4.69455,0.76304 -9.10221,1.05652 -13.61419,1.05652 4.04253,1.98391 7.98073,3.20477 12.20582,3.83868 4.22509,0.68087 8.26762,0.68087 12.85784,0 -0.9389,7.48954 -1.22579,14.6269 -0.75634,21.76427 0.46946,7.10214 2.34727,15.38994 3.57307,20.67253 1.2258,5.20041 3.65132,6.67954 3.57307,10.51822 -0.10432,3.80346 -3.10361,8.28779 -4.22509,12.2556 -1.2258,3.9326 -2.63416,4.51955 -2.92105,11.19909 -0.18256,6.67954 1.40837,-4.64868 1.40837,28.70207 l -0.93891,23.53687 -1.95607,28.26771 -20.18655,1.86652 -19.1694,4.26129 19.1694,2.32434 22.14262,1.90173 2.81672,24.51121 v 3.76825 c 0,33.72052 -2.34727,-0.72783 -3.28618,80.50313 l -627.73914,1.05651 2.71763,-27.4272 -1.0328,-45.68382 v -16.47816 l 13.52029,0.45783 14.36792,-2.78217 12.4875,0.45783 -8.64058,-6.12781 -13.4264,-2.35955 -7.69645,-1.39695 -9.57688,-6.59737 c 0.93631,-29.74684 1.22059,-51.34676 0.84502,-65.75062 -0.56595,-14.20429 -2.25338,-12.38474 -3.57046,-19.65123 -1.49965,-7.27823 -3.65914,-15.84777 -4.31638,-23.79513 -0.84241,-7.81823 -0.84241,-16.73993 -0.75112,-23.16121 -0.18779,-6.20998 -1.50226,-11.28127 0,-14.70908 1.31447,-3.29868 3.94342,-4.17911 7.88423,-5.62302 3.47396,-1.35 9.20392,-1.69043 14.27403,-2.78216 4.97622,-0.97435 11.17302,-2.40652 16.43091,-3.16956 5.2605,-0.59869 12.20843,-0.50478 14.36792,-1.05652 1.68743,-0.59869 0,-1.94868 -3.57046,-2.45346 -4.0347,-0.21131 -13.14213,0.34043 -18.5878,0 -5.44567,-0.29348 -9.3917,-1.05652 -13.61679,-2.11304 -4.69455,-0.97434 -9.57688,-1.22087 -12.11454,-4.17911 -2.44117,-2.74695 -3.28618,-7.18433 -2.90801,-13.31213 -0.0939,-6.09258 3.28618,-13.69951 2.90801,-23.50165 -0.65724,-9.884309 -5.81863,-24.170776 -6.47587,-34.865084 -0.84241,-10.40083 0.47207,-18.641668 1.40837,-27.680765 0.65723,-9.086052 3.56785,-17.960801 2.91062,-25.94338 -1.03281,-7.689101 -7.42,-15.1316815 -7.88684,-20.6725301 -0.74852,-5.3999796 3.94342,-7.6421449 4.97622,-12.2556059 0.9363,-4.601722 1.40836,-9.461703 1.40836,-15.084725 8.73447,-0.798258 15.30422,-1.561299 20.7499,-2.113036 5.0675,-0.504781 6.85403,-1.009561 10.80006,-1.056518 3.94342,0.12913 7.60517,0.551737 12.11193,1.443908 -3.47396,-3.005206 -6.94793,-4.824764 -11.45469,-5.623022 -4.60327,-0.716084 -9.48559,0.716084 -15.02516,1.056518 -5.53956,0.422607 -11.3608,0.880431 -17.83928,1.385212 -1.59614,-5.317806 -2.44377,-10.635612 -2.91062,-16.469938 -0.65723,-5.752152 -0.18778,-0.305216 0,-17.878628 0.18257,-17.761237 0.46164,-46.158086 1.21537,-87.021846 z"
       inkscape:connector-curvature="0" /><path
       id="path54"
       style="fill:url(#XMLID_6_);fill-rule:evenodd;stroke:#000000;stroke-width:0.06299125;stroke-miterlimit:10"
       d="m 243.83024,419.28912 c 181.67896,-0.0845 324.28885,-0.2113 435.44529,-0.38034 110.60873,-0.25357 183.6611,-0.42261 223.85163,-0.67617 -4.6163,3.12729 -7.69384,6.17006 -9.31085,9.4664 -1.87782,3.16955 -1.40836,6.38136 -0.73026,9.80448 0.36513,3.3386 2.13863,6.84623 4.30333,10.52292 l -651.39443,-5.28259 h -0.013 c -4.41548,-3.84573 -7.51388,-7.05754 -9.2952,-9.80449 -1.97171,-2.74694 -2.72545,-4.47963 -1.50226,-6.67719 1.31187,-2.28208 3.84953,-4.60642 8.63797,-6.97302 z"
       inkscape:connector-curvature="0" /><path
       id="path56"
       style="fill:#412318;fill-rule:evenodd;stroke:#000000;stroke-width:0.06299125;stroke-miterlimit:10"
       d="m 902.37864,417.51417 c -4.32941,3.21182 -7.04182,6.8885 -8.5545,10.86101 -1.59093,3.9725 -1.95606,9.59318 -0.73027,12.97403 0.83459,3.21182 3.10362,5.4939 6.36372,6.6772 1.40837,-1.77495 2.63416,-3.88799 3.6774,-6.33911 0.75634,-2.5779 1.77349,-5.49389 2.06038,-8.74797 l 5.73778,-4.18381 c 0.83459,-2.5779 0.73026,-4.85998 -0.6781,-6.67719 -1.40836,-1.98625 -4.01645,-3.3386 -7.87641,-4.56416 z"
       inkscape:connector-curvature="0" /><path
       id="path58"
       style="fill-rule:evenodd;stroke:#000000;stroke-width:0.06299125;stroke-miterlimit:10"
       d="m 234.53504,-331.26343 c -0.9363,2.66478 -0.9363,5.57607 0,8.96867 0.84502,3.41607 3.0984,8.14692 5.72474,12.29082 h 9.76465 l -0.37556,22.86774 -1.68743,12.92473 0.84502,12.93647 0.56074,11.87996 c 0,0 24.7872,-1.31478 32.76793,-1.18565 30.51456,0.37565 -4.60065,4.1439 26.57114,9.0391 16.14924,2.53564 22.91199,1.73738 22.91199,1.73738 0,0 -6.10551,6.25694 -17.6541,8.32301 -59.52685,10.64736 28.16728,12.25561 4.60066,22.31601 -6.10291,2.61781 -10.14022,1.93695 -21.12546,2.14825 -10.98524,0.2113 -10.70357,-1.43217 -22.8155,-1.26782 -12.11193,0.12913 -25.53833,1.86651 -25.53833,1.86651 0,0 1.87781,18.33646 1.50225,39.76029 -0.46945,21.43557 -0.84502,25.19208 -1.78393,46.36939 -0.94152,21.165569 -0.56595,37.823332 -0.56595,37.823332 -0.18778,42.342884 -0.27907,21.881657 0,25.943381 0.18778,4.143897 1.40836,9.719963 2.0656,13.570383 0.56334,3.803464 1.87782,6.761714 1.68743,9.203443 1.31447,0.340434 4.31898,0.340434 9.20392,0 4.87972,-0.293477 14.08103,-2.019122 19.81098,-1.854775 5.63346,0.211303 10.04633,1.185647 13.70808,3.005206 -5.164,-0.809997 -9.38909,-1.185648 -12.95956,-1.150431 -3.65913,0.09391 -3.47396,0.974345 -8.35368,1.526082 -5.07011,0.50478 -12.01804,0.974344 -21.40974,1.479124 -0.0913,3.639117 -0.65724,7.700841 -1.49965,12.33778 -0.93891,4.613461 -4.22509,8.5812717 -3.84953,15.2960289 0.46946,6.7264962 5.1614,17.9725411 6.10291,24.6403411 0.9363,6.632584 0.65724,11.539522 -0.75373,14.967335 -2.15949,4.014767 -3.37747,8.909966 -3.75303,14.920378 -0.37817,6.033891 0.75113,14.791249 1.50225,20.907312 0.75113,6.092586 2.1595,8.416925 3.00451,15.307769 0.9363,6.92606 2.44117,18.547751 2.34467,25.779031 -0.18518,7.18432 -3.38007,11.65691 -3.0984,17.19776 0.28428,5.49389 1.78653,10.64735 4.60326,15.67168 2.0656,0.30522 4.50677,0.81 7.60517,1.47913 3.0984,0.68086 5.07011,2.24216 10.70356,2.62955 5.63346,0.3287 18.77558,-0.63391 22.8155,-0.38739 3.94342,0.25826 4.22248,0.84522 0.74852,1.86652 -6.76015,-0.5987 -12.76917,-0.51652 -18.21484,0.37565 -5.53696,0.89217 -10.3254,3.72129 -14.5531,4.85998 -4.22248,1.10347 -8.07462,-0.34043 -10.60706,1.85478 -2.62895,2.20694 -4.03731,4.64867 -4.60066,11.19908 -0.47206,6.64433 1.0328,20.49645 1.49965,28.0212 0.56595,7.4778 0.47206,10.10735 1.50225,16.69298 1.0328,6.59737 4.31899,-11.19909 4.60327,22.82078 0.28167,9.16823 0.65723,18.3482 1.0328,27.51642 -0.56335,10.0604 -1.22059,20.10906 -1.87782,30.16945 0.28167,6.25694 0.56334,12.51387 0.93891,18.80602 3.47396,2.19521 7.03921,4.40216 10.60967,6.59737 0,0 -1.59875,-0.0822 1.68743,0.12913 3.38008,0.24652 11.73637,0.84521 11.73637,0.84521 4.1312,1.5613 8.2624,3.1226 12.48749,4.6839 0,0 -4.1312,-0.71609 -9.57687,0 -5.54218,0.71608 -5.35439,2.24216 -12.4901,2.82911 -7.227,0.5987 -16.33703,-0.45782 -16.33703,-0.45782 -0.27906,9.88431 -0.65723,19.77684 -1.0328,29.66584 -0.28167,7.35337 -0.56334,14.74899 -0.93891,22.14462 0.28168,34.44247 3.00451,-49.2396 0.75113,38.03464 -4.50676,-0.12679 -9.10481,-0.25357 -13.70808,-0.38035 -6.00902,3.50764 -8.82574,7.3111 -8.44757,11.57943 0.46945,4.26833 3.94342,8.79023 10.70356,13.81926 219.14666,1.72916 438.2881,3.46185 657.52343,5.19454 0.57378,-0.16904 1.33012,-1.52138 2.34728,-4.09929 1.04323,-2.5779 2.24295,-6.25458 3.75563,-11.19909 1.98214,-0.71843 4.04253,-1.47912 6.10291,-2.23981 0.28689,-3.63442 -0.18256,-6.55041 -1.51268,-8.95927 -1.30404,-2.40886 -3.28619,-4.09929 -6.10291,-5.24033 -5.99859,0.2113 -12.1015,0.42261 -18.20441,0.67617 0.28689,-9.55092 0.57377,-19.1441 0.93891,-28.73728 0.9389,-14.74899 1.87781,-29.49798 2.92105,-44.24697 -0.57378,-12.2556 -1.2258,-24.51121 -1.87782,-36.76681 h -11.5538 c -9.31085,-1.10348 -18.59562,-2.19521 -27.88039,-3.29869 5.42481,-0.92738 10.8757,-1.85477 16.32659,-2.78216 7.04182,0.11739 14.08364,0.29348 21.12546,0.45782 -0.46946,-40.10071 -0.18257,-68.46235 0.93891,-86.66967 1.12147,-18.00776 5.73777,-13.82864 5.81602,-21.04818 0.10432,-7.23128 -4.40766,-15.92994 -5.24225,-22.02252 -0.93891,-6.08085 0.26081,-9.00388 0,-14.19256 -0.46945,-5.20041 -1.14755,-10.74126 -2.34727,-16.82211 -5.73778,0 -10.53665,-0.25826 -14.47485,-0.71608 -3.93821,-0.51652 -6.9375,-1.26782 -9.10221,-2.24217 5.05968,0.71609 9.85855,0.84522 14.44877,0.37565 4.61631,-0.55174 8.8414,-1.64347 12.96217,-3.38086 1.59093,-7.00823 2.63416,-13.65255 2.99929,-20.15601 0.39122,-6.55041 0.20865,-12.63125 -0.73026,-18.676882 -4.32941,0.763041 -8.37194,1.009562 -12.20582,0.763041 -3.85996,-0.305216 -5.55521,-1.819558 -10.61489,-2.242165 -5.164,-0.469564 -11.65813,-0.598694 -19.82142,-0.38739 1.59093,0 3.85996,-0.117391 6.85925,-0.375651 2.92105,-0.25826 6.9375,-0.892171 10.61489,-1.138691 3.75564,-0.211304 7.69384,0.37565 11.44948,-0.340434 3.75564,-0.76304 7.98073,-0.927388 10.69314,-4.143897 2.63416,-3.204771 4.79887,-9.37953 5.26832,-14.920379 0.57378,-5.529109 0.57378,-14.274728 -2.24295,-17.913845 -2.81673,-3.639116 -14.2662,-1.690428 -14.47485,-3.756507 -0.0782,-2.077819 11.47556,-4.437375 13.71851,-8.581272 2.1647,-4.143898 -0.65202,-10.40083 -0.75635,-16.05907 -0.0782,-5.669978 -0.0782,-11.410391 0,-17.538194 -3.18186,-1.1034744 -6.75493,-2.0778185 -10.69313,-3.0052063 -3.96428,-0.9273878 -13.06649,-1.4321685 -12.96217,-2.6178162 0.18257,-1.1856477 10.6149,-4.22607093 13.71851,-4.47259174 3.07754,-0.25825989 2.06039,3.58042124 4.59023,2.99346694 2.52984,-0.6339107 9.38909,-1.5612984 10.69313,-6.7147572 1.2258,-5.2473714 0.28689,-13.1829935 -3.07754,-24.2999085 -10.71921,-0.927387 -15.96145,-2.289121 -15.96145,-4.10868 0,-1.807819 12.93608,-3.709551 15.96145,-6.714757 2.89498,-2.911293 2.9993,1.267821 3.547,-46.11113 l -1.87782,-42.378104 -0.93891,-48.01286 c 0,0 -9.85855,0.81 -16.32659,0.46957 -6.46804,-0.38739 -13.97932,1.72564 -15.38768,0.45782 -1.40837,-1.30304 12.75351,-4.60172 9.57166,-7.51302 -3.10362,-2.95824 -17.29158,-5.66997 -17.29158,-5.66997 0,0 -6.18116,-3.20477 -2.89498,-4.73086 3.36443,-1.52608 8.63275,-1.85477 17.36983,-2.32433 8.63275,-0.50478 10.51057,1.64347 17.2655,0.46956 6.67669,-1.18565 9.57166,-5.20042 9.57166,-5.20042 l 3.85996,-47.54329 -0.93891,-19.3108 c 0.65202,-48.17721 -1.69526,-56.96979 -1.69526,-56.96979 0,0 7.43304,-2.71172 8.37195,-6.3391 0.83458,-3.67434 -0.10433,-8.66345 -2.9993,-15.29603 -216.88806,1.22086 -433.77611,2.44173 -650.76849,3.70955 -2.25339,2.03086 -4.03731,3.72129 -5.35179,5.24737 -1.22319,1.47913 -1.97171,2.69999 -2.25599,3.72129 -3.28879,0.24652 -6.57497,0.49304 -9.85855,0.7513 z m 18.96336,-8.24083 c 1.69004,3.80346 2.15949,7.44258 1.59614,11.19908 -0.65723,3.80347 -3.19229,8.58128 -5.35178,11.24605 -2.15949,2.61781 -4.69715,4.04998 -7.60516,4.47259 19.34153,-0.2113 55.02008,-0.79826 108.91348,-1.90173 54.17246,-1.05652 120.93152,-2.69999 212.56386,-4.47259 92.01311,-1.73739 201.31781,-3.72129 333.78227,-5.96346 2.92105,-2.40651 4.40766,-5.07128 4.51198,-8.19388 0.18256,-3.16955 -1.04323,-6.59737 -3.75564,-10.48301 -214.82767,1.35 -429.73359,2.71173 -644.66558,4.09695 h 0.0104 z m 639.78847,16.86906 c -1.51269,133.70819 1.95606,86.20011 0,106.45003 0,0 0.5477,10.94083 -2.81673,15.55429 -3.3905,4.56651 -1.69525,1.7726 -10.61489,2.82912 -8.91964,1.05652 -15.85713,0.0822 -24.95934,1.39695 -9.12828,1.30304 -11.5538,3.75651 -11.5538,3.75651 0,0 3.83388,5.78737 9.67598,8.4991 5.7117,2.69999 13.40554,2.35956 13.40554,2.35956 0,0 -14.16188,5.49389 -12.49271,7.99431 1.69525,2.45347 10.328,1.30304 19.24764,1.90174 8.8414,0.55173 16.35267,0.45782 16.35267,0.45782 -1.98214,20.24992 0,55.06805 0,55.06805 0.57378,14.92038 1.2258,29.840759 1.87782,44.749398 -0.46945,46.956344 2.81673,26.882507 -0.10432,30.216407 -2.99929,3.392596 -14.8139,6.010412 -17.55239,8.205621 -2.63416,2.19521 -1.48661,3.545204 1.51269,4.859982 3.10362,1.303039 8.63275,2.277383 16.79604,2.993467 1.04324,5.329545 1.51269,9.849093 1.51269,13.828643 0,3.9325941 -0.10432,7.8534488 -1.51269,9.6730071 -1.40836,1.81955837 -4.98143,1.26782133 -6.85925,1.13869139 -1.87782,-0.11739086 -1.95606,-2.11303549 -4.59022,-1.85477559 -2.63417,0.2582599 -8.45019,2.03086188 -11.37124,3.33390042 -2.99929,1.34999488 -7.12006,3.21650958 -6.10291,4.48433088 1.04323,1.2678213 7.90249,2.0660791 12.12758,3.005206 4.22509,0.962605 8.52843,1.8078188 12.96216,2.6178158 -0.46945,7.137365 -0.75634,13.136038 -0.75634,18.301235 0,5.153459 2.16471,9.168227 0.75634,12.33778 -1.40836,3.07564 -6.31155,4.437374 -9.12828,6.339106 -2.81673,1.854776 -7.30263,3.498248 -7.58952,4.859982 -0.28689,1.303038 3.28618,2.230426 6.10291,2.95825 2.81673,0.751301 8.34586,-1.314778 10.61489,1.514342 2.34728,2.840858 3.46875,10.447786 3.07754,15.307768 -0.46945,4.859981 -2.89497,10.353874 -5.34657,13.523427 -2.42551,3.169553 -3.57307,4.179114 -9.1022,5.235632 -5.63346,1.056518 -18.20441,0.25826 -24.41164,1.138692 -6.10292,0.845214 -10.14544,2.195209 -12.20583,4.096941 7.98073,-0.633911 14.73566,-0.751302 20.55169,-0.375651 5.92034,0.375651 9.7803,1.901732 14.47485,2.617816 4.77279,0.680867 9.28477,1.185648 13.79675,1.479126 0.10432,0.76304 0.10432,3.85042 0,9.34431 -0.18257,5.52911 -0.36513,13.22995 -0.83459,23.53687 -3.96428,1.69043 -8.45018,2.91129 -13.71851,3.72129 -5.26832,0.79826 -10.98002,1.18565 -17.47414,1.13869 2.81673,1.5613 6.31156,2.7939 10.61489,3.72129 4.40766,0.92739 9.38909,1.5613 15.30944,1.85478 -0.18257,14.12212 0.28689,25.35642 1.51269,34.3603 1.12147,8.95692 5.164,10.77648 5.05967,17.37385 -0.18256,6.55041 -4.04252,-7.10215 -5.34656,29.66467 -0.75635,8.40518 -1.51269,16.82211 -2.34728,25.22729 v 33.43292 c -0.28688,5.02433 -0.65202,10.04866 -1.04323,15.08473 -6.65061,0.58695 -13.43162,1.22086 -20.18655,1.85477 -5.99859,1.73739 -12.1015,3.46303 -18.20441,5.20042 0,0 11.73637,2.45347 21.12546,3.7565 9.3891,1.31478 18.30873,1.39696 18.30873,1.39696 1.2258,8.79257 2.52984,17.58515 3.85996,26.37772 -1.33012,37.31151 -3.75563,-17.2095 -3.49482,80.24839 -207.49897,0.46487 -414.99793,0.972 -622.57514,1.47913 1.12408,-18.25663 2.25077,-36.55551 3.37747,-54.8544 -0.56596,-10.98779 -1.22319,-21.97557 -1.88043,-33.00092 0,0 8.82836,1.30304 15.39811,0.9626 6.47848,-0.37565 3.28619,-1.7726 10.51579,-2.35955 7.2296,-0.5987 10.328,1.05652 18.31134,0 7.88423,-1.05652 13.42379,-4.22607 13.42379,-4.22607 0,0 -12.01804,1.85477 -19.24764,0.45782 -7.22699,-1.43217 -2.91062,-4.22607 -9.57687,-6.1278 -6.76015,-1.90173 -10.80007,0.93913 -17.27854,-1.38521 -6.47587,-2.3713 -8.63536,-8.02954 -8.63536,-8.02954 v -38.16377 c 0.27906,-12.33778 -0.0965,-23.32556 -1.31708,-33.46813 -1.31448,-10.18953 -4.78844,-19.74514 -6.10291,-26.88251 -1.31448,-7.13736 -1.31448,-8.24084 -1.50226,-15.5895 -0.28167,-7.44258 -1.0328,-22.39818 0,-28.40859 1.0328,-5.95172 3.84953,-5.65824 6.10552,-7.09041 2.15688,-1.44391 2.44116,-0.42261 6.85143,-1.47912 4.31898,-1.10348 12.58139,-3.9326 19.06247,-4.85999 6.38197,-0.93912 15.21033,0.16435 18.96336,-0.76304 3.75564,-0.97434 5.63345,-4.01476 3.0984,-4.85998 -2.63155,-0.81 -11.92415,0.24652 -18.31134,0 -6.38198,-0.25826 -14.64438,-0.55174 -19.81099,-1.47912 -5.0675,-0.92739 -8.54146,-2.28913 -10.70356,-4.09694 -2.25339,-5.58781 -3.47397,-10.35388 -3.75564,-14.57995 -0.28167,-4.19085 1.97171,-4.10868 2.25338,-10.44779 0.27907,-6.45649 0.37556,-18.418622 -0.75113,-27.633804 -1.1293,-9.2504 -5.35178,-20.449488 -6.10552,-27.258158 -0.74851,-6.761714 0.37818,-7.653884 1.50226,-13.10082 1.22319,-5.458675 4.78844,-12.889517 5.35439,-19.39297 0.56335,-6.55041 -0.84502,-13.147776 -2.25338,-19.439927 -1.40837,-6.2569324 -5.81863,-13.4412531 -6.10291,-17.9255839 -0.28168,-4.4373741 3.28618,-4.8951991 4.60065,-8.5812721 1.22059,-3.72129 2.25339,-8.111708 3.00451,-13.429514 8.16851,-1.948688 15.96146,-3.052163 23.65791,-3.392596 7.60517,-0.293477 14.93127,0.176086 22.06698,1.526081 -7.51388,-3.46303 -13.5229,-5.787369 -18.31134,-7.102147 -4.69455,-1.303038 -5.1614,-1.056518 -9.85855,-0.76304 -4.78844,0.305216 -10.79746,1.197386 -18.30873,2.629555 -1.31448,-1.138692 -2.25338,-4.10868 -3.00451,-8.956923 -0.84502,-4.87172 -2.34728,4.132158 -2.34728,-40.112457 l -0.27906,-31.777704 2.0656,-46.95635 -0.84241,-21.92861 -0.65724,-19.82731 c 0,0 13.23602,-1.22087 26.47464,-1.17391 13.14473,0.0822 14.73827,1.9839 26.38335,1.43217 11.54859,-0.50479 14.64438,-0.29348 19.90488,-3.59216 23.65791,-15.00256 -64.2214,-9.71997 -5.53957,-23.19644 13.80197,-3.16955 23.7518,-10.18953 23.7518,-10.18953 0,0 -11.54858,0.84522 -29.00969,-1.43216 -29.57564,-3.9326 -2.62894,-9.21519 -31.83163,-8.66345 -7.79034,0.16435 -29.19748,1.35 -29.19748,1.35 0,0 -0.75112,-6.67954 -2.0656,-21.84644 -1.22058,-15.17864 3.1923,-37.52986 3.1923,-37.52986 212.94203,-4.17912 425.87362,-8.41693 638.9278,-12.63126 z m -654.99359,-7.1491 c 3.28619,-0.45783 6.57498,-0.97435 9.95244,-1.47913 0.9363,-1.73738 1.97171,-3.46303 3.00451,-5.23563 0.46946,4.01477 0,7.6891 -1.50225,11.19909 -1.59354,3.50999 -4.03992,6.67954 -7.60517,9.71996 -2.44116,-3.13433 -3.94342,-5.83432 -4.60065,-8.20562 -0.65463,-2.40651 -0.37557,-4.34346 0.75112,-5.99867 z m 661.38339,776.88097 c -2.16471,-2.07077 -3.3905,-4.64868 -3.75564,-7.81823 -0.46945,-3.21181 0.18257,-7.81823 1.48661,-11.24135 1.2258,-3.38086 3.28618,-6.29684 6.10291,-8.95927 2.34727,1.52139 3.96429,3.12729 4.51198,4.85998 0.65202,1.77495 0.39121,3.59216 -0.75634,5.62068 -1.7735,1.22556 -3.54699,2.45112 -5.34657,3.71894 -0.75634,4.60642 -1.51269,9.21283 -2.24295,13.81925 z m -2.26903,-28.01885 c -62.62004,0.50713 -146.46986,0.88748 -256.03536,1.14104 -109.93064,0.25356 -239.98262,0.38035 -396.97609,0.38035 -4.96839,0.88747 -7.22177,3.08503 -6.84621,6.71945 0.37556,3.63442 3.37747,8.53666 9.10742,14.91803 215.57098,1.60591 431.2202,3.21181 646.90854,4.85998 -2.4516,-4.90224 -3.6774,-9.17057 -3.75564,-13.05856 -0.18257,-3.88798 1.66917,-7.56467 2.99929,-10.10031 1.30404,-2.49338 2.81673,-4.09929 4.59023,-4.85998 z"
       inkscape:connector-curvature="0" /><g
       style="opacity:0.79000005"
       transform="matrix(0.67010673,0,0,0.70711615,264.01694,-108.85358)"
       id="layer1"><path
         inkscape:connector-curvature="0"
         id="path7163"
         d="m 393.83189,644.65234 c -1.9175,-3.39032 -4.44661,-6.16423 -5.62023,-6.16423 -1.17361,0 -2.13385,-7.10704 -2.13385,-15.79342 0,-9.16342 -1.10463,-15.79342 -2.6313,-15.79342 -4.05595,0 -7.11777,-10.05485 -5.73413,-18.83063 0.89904,-5.70218 2.59124,-7.89671 6.08911,-7.89671 4.30256,0 4.84276,-1.96922 4.83239,-17.61574 -0.018,-28.56139 -3.18715,-72.2853 -5.23778,-72.2853 -1.04338,0 -2.63765,2.79211 -3.54278,6.20471 -1.7065,6.4338 -27.72524,41.34221 -34.72735,46.59243 -13.52992,10.14482 -24.11748,15.95806 -32.70249,17.95578 -5.3887,1.25395 -11.53087,2.78054 -13.64927,3.39241 -13.84958,4.0003 -31.83053,8.31356 -32.40221,7.7726 -0.37346,-0.35341 8.33127,-9.36235 19.34388,-20.01987 20.01132,-19.36609 49.15919,-56.92465 58.40795,-75.26173 5.0309,-9.97452 5.23563,-23.08269 0.36051,-23.08269 -7.06501,0 -55.39438,30.86924 -57.32064,36.61222 -2.07425,6.18413 -14.75595,14.41269 -22.21256,14.41269 -3.33787,0 -10.67016,-3.00682 -16.29399,-6.68183 -5.62383,-3.67501 -14.26935,-7.77523 -19.21228,-9.1116 -7.18971,-1.9438 -10.27101,-4.85951 -15.40651,-14.57854 -3.53067,-6.68184 -10.17472,-15.94599 -14.76459,-20.587 -4.58986,-4.64101 -8.34519,-9.23838 -8.34519,-10.21638 0,-3.40402 18.61187,-5.04763 39.40884,-3.48019 19.2012,1.44717 21.93288,1.07111 33.01255,-4.54462 6.64358,-3.36728 13.86539,-6.12233 16.04847,-6.12233 2.18309,0 3.96925,-1.09339 3.96925,-2.42976 0,-1.33636 1.20893,-2.42976 2.68649,-2.42976 1.47756,0 11.01035,-3.63644 21.18397,-8.08101 10.1736,-4.44456 30.33434,-12.37164 44.80163,-17.61574 25.69139,-9.3126 26.30455,-9.71397 26.31947,-17.22897 0.008,-4.23181 -1.2915,-8.10643 -2.88873,-8.61021 -1.63134,-0.51455 -2.80321,-5.66975 -2.67395,-11.76304 0.32634,-15.3846 -2.08188,-18.21974 -12.54456,-14.76843 -6.8529,2.26052 -9.19103,2.09705 -12.67476,-0.88623 -2.4893,-2.13173 -9.15678,-3.65813 -15.97912,-3.65813 -13.30476,0 -53.02511,10.23341 -62.48429,16.09822 -3.45848,2.14431 -6.28819,2.77072 -6.28819,1.39201 0,-1.3787 1.05333,-2.87118 2.34072,-3.31665 1.2874,-0.44545 9.81292,-7.37025 18.94561,-15.38845 9.13267,-8.0182 19.02535,-16.21864 21.98373,-18.22319 2.9584,-2.00455 15.80943,-10.68031 28.55786,-19.27949 22.5572,-15.21546 26.47654,-20.36387 20.09766,-26.39995 -2.39657,-2.26777 -0.11401,-2.91571 10.271,-2.91571 7.34377,0 13.35232,-1.09339 13.35232,-2.42976 0,-4.71868 16.38598,-2.34292 31.84825,4.61766 15.14522,6.81783 27.55109,16.88072 30.40994,24.66668 1.74251,4.74561 -4.55724,19.31082 -8.35231,19.31082 -3.41045,0 -20.60312,7.85215 -34.40516,15.71338 -5.51564,3.14153 -11.58195,5.14779 -13.48071,4.45832 -1.89874,-0.68945 -3.45225,-0.0433 -3.45225,1.43615 0,1.47936 1.85581,2.68972 4.12401,2.68972 2.2682,0 6.39627,2.73348 9.1735,6.0744 2.77724,3.34091 6.57666,6.07439 8.44318,6.07439 1.86655,0 6.81665,3.00683 11.0002,6.68183 6.30602,5.53944 10.14786,6.75118 22.47064,7.08749 12.47389,0.34043 15.87819,1.44048 21.17017,6.84093 3.46832,3.5394 5.62138,7.08313 4.7846,7.87494 -0.83678,0.79181 -0.12839,3.02792 1.57414,4.96912 4.04289,4.60962 5.49191,15.14084 2.08325,15.14084 -1.4606,0 -2.65561,1.09339 -2.65561,2.42976 0,1.33637 2.46579,2.42976 5.47954,2.42976 8.08058,0 26.01332,5.21727 30.67119,8.92333 2.22961,1.77402 5.1814,3.22546 6.55954,3.22546 4.64984,0 21.48324,16.4108 21.52092,20.98064 0.0205,2.49249 1.68881,9.01588 3.70725,14.49644 2.01843,5.48054 3.94622,15.69541 4.28398,22.6997 l 0.61409,12.73506 14.29487,-1.62291 c 7.86219,-0.89262 19.24609,-3.18038 25.29756,-5.08395 6.05148,-1.90357 13.27327,-3.46104 16.04845,-3.46104 2.77518,0 5.04577,-1.54897 5.04577,-3.44217 0,-1.89317 1.44436,-3.90333 3.20969,-4.46703 2.40442,-0.76773 3.06522,-9.74357 2.63385,-35.77639 -0.31671,-19.11332 -0.94224,-35.09819 -1.39003,-35.52191 -1.01498,-0.96044 -36.66464,7.44951 -46.02338,10.85715 -3.79786,1.38285 -8.12875,4.67767 -9.62423,7.32181 -2.29054,4.04987 -3.98955,4.46271 -10.78096,2.61964 -4.43404,-1.20331 -10.01578,-3.86105 -12.40384,-5.90608 -2.38806,-2.04503 -5.65467,-3.71824 -7.25911,-3.71824 -1.60443,0 -4.28293,-2.41486 -5.95225,-5.36636 -1.6693,-2.95147 -5.46529,-7.32431 -8.43554,-9.7174 -5.26936,-4.24544 -4.93296,-4.34336 13.85771,-4.03384 12.34303,0.20337 27.09525,-1.57387 41.08404,-4.94941 12.00425,-2.89666 26.71575,-6.45684 32.69222,-7.91154 5.97647,-1.45469 10.2907,-3.52618 9.5872,-4.60334 -0.70354,-1.07714 -0.10477,-2.64523 1.3305,-3.48462 1.4353,-0.83938 2.60963,-0.36825 2.60963,1.04699 0,5.97312 7.93552,2.08174 9.34398,-4.58206 1.23583,-5.84717 3.62859,-7.83758 13.08867,-10.88772 10.65678,-3.43597 12.11323,-3.39836 18.33459,0.47339 3.71703,2.31325 8.6022,5.29927 10.85592,6.63564 30.79945,18.26271 40.81595,28.2894 40.81595,40.85754 0,7.2349 -8.8673,18.28679 -17.02759,21.2226 -4.57297,1.64519 -6.08219,4.03723 -6.08219,9.64001 0,4.09852 -1.80456,15.71883 -4.01016,25.82293 -3.63507,16.65266 -3.63507,18.76332 0,22.56417 6.81715,7.12804 5.08736,20.64045 -3.70768,28.96284 -6.17494,5.8431 -10.66653,7.59622 -22.46784,8.76948 -8.11248,0.80653 -25.36316,3.22951 -38.33481,5.38441 -26.96605,4.47972 -52.39479,3.34306 -58.70062,-2.62389 -5.00831,-4.73915 -8.86979,-5.00443 -8.86979,-0.60939 0,6.82043 -8.26886,18.53092 -16.47239,23.32852 -11.4161,6.67637 -12.77359,6.38803 -16.55878,-3.51715 -1.78739,-4.67728 -4.33049,-8.50415 -5.65134,-8.50415 -1.32085,0 -2.40875,-3.55352 -2.41756,-7.89671 -0.008,-4.34319 -3.35593,-19.20874 -7.43801,-33.03452 -5.51076,-18.66466 -9.40265,-27.11134 -15.11369,-32.80174 -9.60299,-9.56829 -16.89292,-23.37667 -20.94455,-39.67265 l -3.12541,-12.57064 -15.83939,5.6201 c -15.50232,5.50049 -15.85594,5.82766 -16.61686,15.37335 -0.74755,9.37784 -0.33216,9.96368 10.79168,15.22066 24.94466,11.78845 35.48413,29.99103 24.2457,41.87446 -7.42474,7.85085 -22.79212,11.01182 -28.28162,5.81734 -3.35343,-3.17325 -3.67299,4.28424 -2.72489,63.59057 l 1.07406,67.18537 -6.45179,6.58749 c -3.54848,3.62311 -6.84643,8.52643 -7.32873,10.89627 -1.35818,6.67353 -8.45039,6.44039 -12.32202,-0.40506 z M 428.1357,224.67501 c -7.03774,-6.87563 -26.65137,-35.84407 -26.65137,-39.3629 0,-3.21022 13.86866,-13.33747 18.26489,-13.33747 2.29743,0 2.653,-7.27409 1.41799,-29.00849 -1.62467,-28.59132 -7.71151,-53.599017 -13.4669,-55.328567 -1.52414,-0.45803 -7.89553,3.43548 -14.15866,8.65222 -10.7953,8.991727 -12.00712,9.396017 -23.30149,7.774077 -8.62634,-1.23878 -14.39233,-4.00608 -20.89509,-10.028287 -4.93958,-4.57452 -11.44252,-10.45864 -14.45098,-13.07581 -3.83386,-3.335207 -5.20372,-6.96405 -4.57999,-12.13263 0.62532,-5.181653 -0.89455,-9.185043 -5.11184,-13.464721 l -6.00175,-6.090552 5.7525,-0.845774 c 3.16389,-0.465153 14.01249,0.994888 24.10802,3.244577 20.20981,4.50358 18.27647,4.901258 58.84268,-12.10413 11.63033,-4.87543 26.09509,-10.247089 49.42925,-18.356114 5.36613,-1.864815 8.34519,-4.529603 8.34519,-7.464823 0,-2.94489 1.82238,-4.5647371 5.1355,-4.5647371 2.85305,0 5.13552,-1.619839 5.13552,-3.644629 0,-2.00455 2.24277,-3.644637 4.98395,-3.644637 2.74118,0 5.60884,-0.95671704 6.37258,-2.12603804 4.4366,-6.79284896 26.77965,0.228641 47.70178,14.99067514 l 14.12263,9.964509 -7.0191,-8.377367 c -3.86051,-4.607574 -20.55597,-27.511726 -37.10097,-50.898143 -16.54503,-23.386418 -30.75812,-43.067455 -31.58467,-43.735638 -0.82653,-0.668183 -6.83955,-8.32192 -13.36223,-17.008304 -6.52271,-8.686387 -16.0513,-19.593707 -21.17467,-24.238487 -11.46391,-10.39302 -14.53687,-9.12197 -26.89115,11.1228 -4.80983,7.88182 -13.18713,20.967133 -18.61621,29.078515 -5.42907,8.111357 -9.87106,16.038441 -9.87106,17.615743 0,2.011985 7.63399,2.867794 25.58122,2.867794 33.00962,0 51.4618,5.786346 57.62148,18.069257 11.60935,23.150148 -3.98908,37.5694229 -37.52863,34.6915939 -21.85058,-1.8748495 -32.40384,-9.2539019 -42.96072,-30.0389969 -7.46243,-14.692525 -8.79667,-16.113982 -11.3618,-12.104469 -1.59855,2.498617 -10.12823,15.442155 -18.95489,28.763398 -8.82665,13.3212439 -16.04845,25.2176289 -16.04845,26.4364189 0,1.218808 -0.86661,2.218119 -1.92582,2.220694 -1.0592,0.0024 -5.90455,5.5285501 -10.76744,12.2798981 -9.2046,12.779165 -29.50037,31.451051 -34.18634,31.451051 -1.48657,0 -6.97481,4.100216 -12.19607,9.111591 -13.02137,12.497871 -24.89005,22.475255 -26.73569,22.475255 -0.84521,0 -6.32204,3.28018 -12.17076,7.28928 -5.84873,4.0091 -12.19391,7.28927 -14.10041,7.28927 -1.90651,0 -3.46637,1.210357 -3.46637,2.689717 0,1.47933 -1.77696,2.04447 -3.94881,1.25584 -2.21482,-0.80422 -4.56966,0.0969 -5.36258,2.05227 -1.43817,3.54643 -18.26185,10.02654 -20.50939,7.8998 -0.67726,-0.64087 1.51303,-1.81702 4.86734,-2.61367 3.3543,-0.79662 7.48507,-4.32754 9.17945,-7.84646 2.23903,-4.650067 4.46484,-6.055517 8.14702,-5.144357 2.78647,0.68952 4.50343,0.39187 3.81548,-0.66145 -0.68795,-1.05332 1.43563,-5.66109 4.71907,-10.23948 5.65735,-7.888529 9.24434,-12.09682 22.39026,-26.268333 3.09912,-3.340917 12.04988,-14.274827 19.89055,-24.297577 7.84068,-10.02275 15.00833,-18.769878 15.92812,-19.438061 2.81892,-2.0478 36.98236,-51.345704 46.30509,-66.818328 4.8312,-8.0182 10.82033,-17.858719 13.30913,-21.867819 14.24386,-22.94476 43.76886,-82.451835 43.7164,-88.109625 -0.0795,-8.59381 -5.40746,-27.85003 -8.5292,-30.82702 -1.33128,-1.26954 -2.42049,-4.95058 -2.42049,-8.18009 0,-4.48264 1.06312,-5.55494 4.49356,-4.53242 14.44454,4.30555 16.04846,4.49947 16.04846,1.9405 0,-1.52793 4.31904,-2.71314 9.88695,-2.71314 7.96178,0 11.03654,1.41937 15.79057,7.28927 3.24699,4.0091 7.17516,7.32565 8.72927,7.37011 5.19664,0.14871 14.49871,9.23386 17.33387,16.92973 2.30032,6.24406 1.96076,9.09696 -1.88744,15.85861 -2.58076,4.53469 -4.16525,8.64494 -3.52104,9.1339 0.64419,0.48899 10.05552,7.13892 20.91409,14.77767 21.35268,15.0211 45.99004,37.393968 84.10731,76.376782 37.4188,38.268488 55.87086,50.1359829 99.00232,63.6735719 30.05445,9.4331391 70.91695,31.8924331 85.2065,46.8321381 8.51133,8.898575 8.73377,13.042696 0.47562,8.860573 -3.7169,-1.882309 -4.79789,-1.589328 -4.79789,1.300382 0,2.051566 1.15548,3.730116 2.56775,3.730116 1.41227,0 2.56775,1.167061 2.56775,2.593499 0,1.538717 -2.21941,1.926943 -5.45706,0.954554 -3.1363,-0.94192 -4.83026,-0.679214 -3.98318,0.617742 0.81064,1.241144 -1.06674,4.326208 -4.17201,6.855683 -5.09219,4.147985 -10.17882,4.594692 -51.86544,4.554652 -49.62556,-0.0476 -45.98495,0.69549 -69.58403,-14.204654 C 593.566,66.279917 581.20936,55.405755 570.20351,44.7017 l -20.01066,-19.461897 1.71527,10.150167 c 1.54504,9.142838 0.95823,10.819347 -5.91274,16.892866 -6.43227,5.68573 -8.74715,11.31057 -14.76717,35.882487 -6.85975,27.999337 -11.52814,42.214857 -25.12929,76.520047 -4.65,11.72836 -7.51923,15.8167 -11.14749,15.88383 -2.68717,0.0498 -6.32877,0.93432 -8.09241,1.96572 -1.79259,1.04837 -3.2066,0.74064 -3.2066,-0.69785 0,-4.41892 -5.12434,-2.80727 -5.33823,1.67892 -0.15303,3.21114 -0.55897,3.39721 -1.65805,0.76007 -0.80045,-1.9206 -4.78917,-6.14646 -8.86381,-9.39079 -5.04429,-4.01639 -6.93122,-7.32169 -5.91289,-10.35767 1.50363,-4.4829 -4.99246,-19.2803 -8.46406,-19.2803 -1.02294,0 -1.85987,10.66057 -1.85987,23.69014 0,33.52269 -2.30562,49.86823 -7.90737,56.05898 -5.90355,6.52431 -8.56169,6.46923 -15.51244,-0.32141 z m 43.80602,-104.33272 c 8.70248,-28.914507 12.18257,-69.875333 5.93325,-69.834611 -6.29589,0.04106 -45.57659,19.373138 -45.52204,22.403799 0.0306,1.698255 3.76307,4.727823 8.29446,6.732373 4.71385,2.085267 10.3759,7.541892 13.23356,12.753432 l 4.99467,9.108797 -5.71883,5.7603 c -9.1427,9.20892 -2.4678,25.83214 10.37264,25.83214 3.31727,0 5.62726,-3.50282 8.41229,-12.75623 z"
         style="fill:#000000" /></g></g></svg>