<?xml version="1.0" encoding="UTF-8" standalone="no"?>
<!-- Generator: Adobe Illustrator 16.0.0, SVG Export Plug-In . SVG Version: 6.00 Build 0)  -->

<svg
   xmlns:ns="&amp;ns_sfw;"
   xmlns:dc="http://purl.org/dc/elements/1.1/"
   xmlns:cc="http://creativecommons.org/ns#"
   xmlns:rdf="http://www.w3.org/1999/02/22-rdf-syntax-ns#"
   xmlns:svg="http://www.w3.org/2000/svg"
   xmlns="http://www.w3.org/2000/svg"
   xmlns:sodipodi="http://sodipodi.sourceforge.net/DTD/sodipodi-0.dtd"
   xmlns:inkscape="http://www.inkscape.org/namespaces/inkscape"
   version="1.1"
   id="Layer_1"
   x="0px"
   y="0px"
   width="256"
   height="256"
   viewBox="0 0 256 256"
   enable-background="new 0 0 612 792"
   xml:space="preserve"
   sodipodi:docname="breastplate.svg"
   inkscape:version="0.92.4 (5da689c313, 2019-01-14)"><defs
   id="defs213" /><sodipodi:namedview
   pagecolor="#ffffff"
   bordercolor="#666666"
   borderopacity="1"
   objecttolerance="10"
   gridtolerance="10"
   guidetolerance="10"
   inkscape:pageopacity="0"
   inkscape:pageshadow="2"
   inkscape:window-width="1920"
   inkscape:window-height="1025"
   id="namedview211"
   showgrid="false"
   inkscape:zoom="0.84281414"
   inkscape:cx="152.04517"
   inkscape:cy="32.769819"
   inkscape:window-x="-8"
   inkscape:window-y="-8"
   inkscape:window-maximized="1"
   inkscape:current-layer="Layer_1"
   fit-margin-top="0"
   fit-margin-left="0"
   fit-margin-right="0"
   fit-margin-bottom="0" />
<metadata
   id="metadata2">
	<ns:sfw>
		<ns:slices />
		<ns:sliceSourceBounds
   width="375.612"
   height="473.877"
   bottomLeftOrigin="true"
   y="-633.561"
   x="118.971" />
	</ns:sfw>
<rdf:RDF><cc:Work
     rdf:about=""><dc:format>image/svg+xml</dc:format><dc:type
       rdf:resource="http://purl.org/dc/dcmitype/StillImage" /><dc:title></dc:title></cc:Work></rdf:RDF></metadata>
<linearGradient
   id="SVGID_1_"
   gradientUnits="userSpaceOnUse"
   x1="306.77591"
   y1="187.5645"
   x2="306.77579"
   y2="562.73352">
	<stop
   offset="0.0038"
   style="stop-color:#CCC7C0"
   id="stop4" />
	<stop
   offset="1"
   style="stop-color:#221C1D"
   id="stop6" />
</linearGradient>




<linearGradient
   id="SVGID_4_"
   gradientUnits="userSpaceOnUse"
   x1="255.47459"
   y1="195.14259"
   x2="358.0762"
   y2="195.14259"
   gradientTransform="matrix(1,0,0,-1,0,794)">
	<stop
   offset="0.0038"
   style="stop-color:#CCC7C0"
   id="stop35" />
	<stop
   offset="1"
   style="stop-color:#554C4B"
   id="stop37" />
</linearGradient>








<linearGradient
   id="SVGID_11_"
   gradientUnits="userSpaceOnUse"
   x1="392.46091"
   y1="611.1709"
   x2="392.46091"
   y2="440.09052"
   gradientTransform="matrix(1,0,0,-1,0,794)">
	<stop
   offset="0"
   style="stop-color:#151011"
   id="stop114" />
	<stop
   offset="1"
   style="stop-color:#151011;stop-opacity:0"
   id="stop116" />
</linearGradient>

<linearGradient
   id="SVGID_12_"
   gradientUnits="userSpaceOnUse"
   x1="392.5195"
   y1="420.33301"
   x2="392.5195"
   y2="257.7807"
   gradientTransform="matrix(1,0,0,-1,0,794)">
	<stop
   offset="0"
   style="stop-color:#151011"
   id="stop121" />
	<stop
   offset="1"
   style="stop-color:#151011;stop-opacity:0"
   id="stop123" />
</linearGradient>

<linearGradient
   id="SVGID_13_"
   gradientUnits="userSpaceOnUse"
   x1="222.14211"
   y1="611.1709"
   x2="222.14211"
   y2="440.08981"
   gradientTransform="matrix(1,0,0,-1,0,794)">
	<stop
   offset="0"
   style="stop-color:#151011"
   id="stop128" />
	<stop
   offset="1"
   style="stop-color:#151011;stop-opacity:0"
   id="stop130" />
</linearGradient>

<linearGradient
   id="SVGID_14_"
   gradientUnits="userSpaceOnUse"
   x1="219.9077"
   y1="420.33401"
   x2="219.9077"
   y2="257.7825"
   gradientTransform="matrix(1,0,0,-1,0,794)">
	<stop
   offset="0"
   style="stop-color:#151011"
   id="stop135" />
	<stop
   offset="1"
   style="stop-color:#151011;stop-opacity:0"
   id="stop137" />
</linearGradient>


<linearGradient
   id="SVGID_15_"
   gradientUnits="userSpaceOnUse"
   x1="316.68549"
   y1="275.54199"
   x2="453.61331"
   y2="275.54199"
   gradientTransform="matrix(1,0,0,-1,0,794)">
	<stop
   offset="0.0038"
   style="stop-color:#CCC7C0"
   id="stop148" />
	<stop
   offset="1"
   style="stop-color:#221C1D"
   id="stop150" />
</linearGradient>





<linearGradient
   id="SVGID_20_"
   gradientUnits="userSpaceOnUse"
   x1="153.16409"
   y1="265.61279"
   x2="256.91409"
   y2="189.98779"
   gradientTransform="matrix(1,0,0,-1,0,794)">
	<stop
   offset="0"
   style="stop-color:#151011"
   id="stop203" />
	<stop
   offset="1"
   style="stop-color:#151011;stop-opacity:0"
   id="stop205" />
</linearGradient>
<g
   id="g1109"
   transform="matrix(0.54022343,0,0,0.54022343,-37.728591,-86.264497)"><path
     id="path9"
     d="m 342.826,629.264 c -4.578,-15.508 -19.857,-27.211 -35.535,-27.244 -15.662,0.035 -30.934,11.736 -35.504,27.223 l -1.273,4.242 -4.408,-0.219 c -61.301,-3.027 -103.779,-18.131 -126.24,-44.893 -15.42,-18.377 -16.074,-36.66 -15.85,-42.291 -0.023,-0.371 -0.023,-0.59 -0.023,-0.635 v -1.691 l 0.469,-0.715 1.107,-3.352 1.309,0.086 40.859,-53.172 C 149.53,427.292 138.946,385.525 133.245,360.726 c -2.848,-7.34 -5.283,-13.648 -7.031,-18.182 l -2.924,-7.574 c -1.436,-2.195 -2.52,-4.824 -3.238,-7.855 -8.227,-34.652 32.971,-121.266 41.217,-130.889 4.65,-5.436 9.865,-8.186 15.49,-8.186 3.092,0 5.672,0.859 7.572,1.809 2.338,-1.406 6.105,-3.623 10.873,-6.254 l -4.791,-4.566 25.244,-12.639 4.361,3.422 c 0.082,0.061 0.48,0.365 1.172,0.859 1.748,-0.768 3.496,-1.51 5.229,-2.229 1.389,-4.553 5.205,-8.594 10.826,-8.594 3.52,0 7.299,1.525 11.553,4.666 13.314,9.826 32.465,14.732 58.535,14.998 l 2.104,0.012 c 26.926,0 39.439,-5.096 58.98,-17.283 l 0.246,-0.154 0.258,-0.125 c 3.238,-1.531 6.078,-2.279 8.672,-2.279 3.082,0 5.77,1.088 7.766,3.143 1.742,1.789 2.572,3.945 2.957,5.693 1.264,0.518 2.518,1.049 3.768,1.588 0.43,-0.287 0.682,-0.469 0.748,-0.512 l 4.287,-3.105 26.117,13.057 -4.564,3.672 c 4.799,2.635 8.633,4.877 11.105,6.361 1.836,-0.834 4.221,-1.539 7.02,-1.539 5.625,0 10.834,2.754 15.492,8.188 8.242,9.625 49.441,96.234 41.215,130.887 -0.664,2.793 -1.635,5.238 -2.906,7.328 l 0.629,0.273 -3.027,7.832 c -1.674,4.355 -3.992,10.352 -6.703,17.33 -5.703,24.896 -16.324,66.922 -34.73,126.865 l 40.803,53.096 2.414,-0.111 0.496,4.691 c 0.088,0.855 1.992,21.096 -15.711,42.207 -15.461,18.428 -49.896,41.475 -126.174,46.625 l -4.473,0.309 z"
     inkscape:connector-curvature="0"
     style="fill:url(#SVGID_1_)" /><path
     id="path11"
     d="m 320.059,534.775 h -0.318 c -15.414,0 -112.914,-3.334 -129.584,-52.5 -1.199,-3.842 -2.373,-7.611 -3.516,-11.314 -31.311,-101.562 -40.234,-151.604 -40.234,-151.604 -3.33,-22.5 -1.666,-25.832 18.75,-82.916 7.1,-19.844 13.139,-32.779 17.998,-41.225 -3.172,1.316 -14.102,9.227 -31.123,56.818 -20.416,57.084 -22.08,60.414 -18.75,82.914 0,0 8.92,50.035 40.234,151.602 1.143,3.701 2.316,7.477 3.516,11.318 16.67,49.166 114.17,52.5 129.584,52.5 h 0.318 c 14.643,0 103.287,-3.041 126.436,-45.471 -33.325,27.638 -100.714,29.878 -113.311,29.878 z"
     enable-background="new    "
     inkscape:connector-curvature="0"
     style="opacity:0.43000004;fill:#1a1a1a" /><g
     id="g22">
	
		<linearGradient
   gradientTransform="matrix(1,0,0,-1,0,794)"
   y2="241.1338"
   x2="484.27731"
   y1="241.1338"
   x1="129.1152"
   gradientUnits="userSpaceOnUse"
   id="SVGID_2_">
		<stop
   id="stop13"
   style="stop-color:#CCC7C0"
   offset="0.0038" />
		<stop
   id="stop15"
   style="stop-color:#221C1D"
   offset="1" />
	</linearGradient>
	<path
   style="fill:url(#SVGID_2_)"
   inkscape:connector-curvature="0"
   id="path18"
   d="m 306.615,588.107 c 17.762,0 38.078,12.914 43.492,31.25 133.75,-9.166 134.17,-75.416 134.17,-75.416 l -44.244,-57.566 c -1.141,3.705 -2.312,7.475 -3.516,11.316 -16.668,49.166 -114.168,52.5 -129.584,52.5 h -0.318 0.162 -0.318 c -15.418,0 -112.918,-3.334 -129.584,-52.5 -1.201,-3.842 -2.373,-7.611 -3.516,-11.316 l -44.244,57.566 c 0,0 0.416,66.25 134.166,75.416 5.42,-18.336 25.736,-31.25 43.496,-31.25 z" />
	<path
   style="fill:#151011"
   inkscape:connector-curvature="0"
   id="path20"
   d="m 349.65,620.014 -0.145,-0.479 c -5.002,-16.943 -24.207,-30.762 -42.812,-30.803 -18.596,0.041 -37.805,13.859 -42.814,30.803 l -0.141,0.479 -0.502,-0.035 C 224.992,617.36 173.535,608.061 145.588,578.643 128.791,560.961 128.49,544.112 128.49,543.948 l -0.002,-0.215 0.133,-0.172 44.98,-58.525 0.355,1.158 c 1.143,3.699 2.312,7.469 3.514,11.312 17.445,51.469 124.443,52.061 128.988,52.061 h 0.475 c 4.545,0 111.537,-0.592 128.994,-52.076 1.195,-3.828 2.365,-7.598 3.508,-11.297 l 0.357,-1.158 45.111,58.697 -0.002,0.215 c 0,0.164 -0.301,17.014 -17.1,34.695 -27.949,29.418 -79.406,38.717 -117.654,41.336 z M 129.748,544.145 c 0.094,1.959 1.318,17.443 16.826,33.721 27.572,28.938 78.33,38.186 116.252,40.834 5.367,-17.191 24.877,-31.137 43.789,-31.217 h 0.162 c 18.916,0.08 38.424,14.025 43.783,31.217 37.973,-2.654 88.783,-11.918 116.334,-40.918 15.459,-16.271 16.66,-31.682 16.75,-33.637 l -43.369,-56.432 c -1.029,3.332 -2.084,6.719 -3.16,10.164 -17.746,52.34 -125.6,52.939 -130.182,52.939 h -0.475 c -4.582,0 -112.441,-0.6 -130.176,-52.924 -1.08,-3.457 -2.135,-6.848 -3.166,-10.18 z" />
</g><g
     id="g33">
	
		<linearGradient
   gradientTransform="matrix(1,0,0,-1,0,794)"
   y2="209.1729"
   x2="484.45609"
   y1="209.1729"
   x1="129.09911"
   gradientUnits="userSpaceOnUse"
   id="SVGID_3_">
		<stop
   id="stop24"
   style="stop-color:#CCC7C0"
   offset="0.0038" />
		<stop
   id="stop26"
   style="stop-color:#554C4B"
   offset="1" />
	</linearGradient>
	<path
   style="fill:url(#SVGID_3_)"
   inkscape:connector-curvature="0"
   id="path29"
   d="m 484.381,543.512 c 0,0 7.855,72.865 -136.666,82.631 -5.42,-18.328 -23.236,-31.25 -40.99,-31.25 h 0.156 c -17.762,0 -35.578,12.922 -40.992,31.25 -146.152,-7.211 -136.664,-82.631 -136.664,-82.631 0,0 0.414,66.25 134.164,75.42 5.414,-18.336 25.732,-31.25 43.492,-31.25 h -0.156 c 17.756,0 38.072,12.914 43.49,31.25 133.75,-9.17 134.166,-75.42 134.166,-75.42 z" />
	<path
   style="fill:#151011"
   inkscape:connector-curvature="0"
   id="path31"
   d="m 347.258,626.801 -0.143,-0.479 c -5.182,-17.523 -22.514,-30.766 -40.316,-30.805 -17.803,0.039 -35.133,13.279 -40.309,30.805 l -0.143,0.471 -0.49,-0.025 C 205.996,623.815 164.726,609.311 143.201,583.659 126.301,563.52 128.58,543.632 128.603,543.434 l 1.246,0.072 c 0.002,0.164 0.318,16.598 16.832,33.932 15.25,16.004 47.785,36.057 116.254,40.838 5.359,-17.195 24.869,-31.141 43.789,-31.219 v 0 c 0.025,0 0.051,0 0.074,0 h 0.082 c 18.914,0.08 38.424,14.023 43.789,31.219 37.922,-2.652 88.68,-11.902 116.252,-40.838 16.514,-17.334 16.83,-33.768 16.834,-33.932 l 1.246,-0.061 c 0.02,0.186 1.826,18.924 -14.566,38.467 -26.875,32.037 -81.547,42.076 -122.68,44.854 z M 130.137,552.018 c 0.982,7.527 4.197,19.143 14.051,30.871 20.947,24.928 62.861,39.656 121.244,42.605 5.488,-17.771 23.141,-31.15 41.293,-31.227 l 0.074,0.617 -0.074,-0.617 c 0.025,0 0.051,0 0.074,0 l 0.006,0.02 v -0.02 c 18.168,0.039 35.859,13.426 41.365,31.219 40.832,-2.809 94.824,-12.805 121.305,-44.377 8.68,-10.344 12.154,-20.418 13.514,-27.518 -2.098,6.51 -6.373,15.453 -15.08,24.621 -15.428,16.238 -48.359,36.594 -117.648,41.342 l -0.502,0.033 -0.143,-0.479 c -5.006,-16.945 -24.213,-30.764 -42.816,-30.803 -18.602,0.039 -37.807,13.857 -42.809,30.803 l -0.145,0.479 -0.5,-0.033 c -38.246,-2.623 -89.703,-11.922 -117.65,-41.342 -9.434,-9.929 -13.665,-19.597 -15.559,-26.194 z" />
</g><path
     id="path40"
     d="m 358.076,618.721 c -2.627,0.234 -5.309,0.449 -8.047,0.637 -5.42,-18.336 -25.738,-31.25 -43.492,-31.25 h 0.156 c -17.76,0 -38.074,12.914 -43.49,31.25 -2.627,-0.182 -5.205,-0.379 -7.729,-0.605 0,0 8.783,-40.395 51.303,-40.395 42.518,-10e-4 51.299,40.363 51.299,40.363 z"
     inkscape:connector-curvature="0"
     style="fill:url(#SVGID_4_)" /><g
     id="g51">
	
		<linearGradient
   gradientTransform="matrix(1,0,0,-1,0,794)"
   y2="438.81741"
   x2="483.5332"
   y1="438.81741"
   x1="129.8887"
   gradientUnits="userSpaceOnUse"
   id="SVGID_5_">
		<stop
   id="stop42"
   style="stop-color:#CCC7C0"
   offset="0.0038" />
		<stop
   id="stop44"
   style="stop-color:#221C1D"
   offset="1" />
	</linearGradient>
	<path
   style="fill:url(#SVGID_5_)"
   inkscape:connector-curvature="0"
   id="path47"
   d="m 304.557,538.721 -0.221,-2.873 c -2.051,-6.6 -64.42,-42.311 -91.055,-57.559 -23.51,-13.461 -31.885,-18.332 -33.549,-20.154 -4.621,-5.039 -38.492,-92.441 -48.766,-119.109 l -1.078,-2.799 2.748,-1.191 c 20.951,-9.074 57.998,-44.934 74.76,-96.232 12.852,-39.332 -4.42,-56.59 -4.596,-56.762 l -3.217,-3.066 14.908,-7.463 1.553,1.221 c 0.361,0.283 36.68,28.395 88.174,29.326 51.494,-0.932 91.006,-29.113 91.4,-29.4 l 1.535,-1.111 15.223,7.609 -3.801,3.055 c -0.834,0.678 -20.414,17.225 -7.553,56.592 16.016,49.014 57.061,86.398 79.756,96.232 l 2.754,1.191 -1.08,2.799 c -10.273,26.668 -44.145,114.07 -48.764,119.113 -1.641,1.791 -9.756,6.605 -32.525,19.912 -26.215,15.316 -87.607,51.186 -89.627,58.037 l -0.195,2.766 z M 137.852,339.508 c 16.963,43.982 43.209,110.369 46.533,114.453 1.445,1.406 16.977,10.295 31.996,18.896 52.637,30.137 83.047,48.42 91.555,57.822 8.367,-9.426 38.287,-27.773 90.074,-58.027 14.617,-8.543 29.617,-17.311 31.109,-18.781 3.252,-4.012 29.482,-70.385 46.445,-114.361 -22.428,-10.992 -63.629,-47.164 -80.488,-98.766 -11.09,-33.93 0.273,-52.963 6.309,-60.092 l -3.68,-1.838 c -7.719,5.215 -44.633,28.361 -92.59,29.48 v 0.021 l -1.824,0.01 v -0.031 c -47.758,-1.117 -82.27,-24.199 -89.508,-29.445 l -3.914,1.957 c 5.102,7.117 14.518,26.123 3.469,59.939 -15.766,48.245 -49.793,86.067 -75.486,98.763 z" />
	<path
   style="fill:#5c5455"
   inkscape:connector-curvature="0"
   id="path49"
   d="m 214.414,172.248 1.244,0.977 c 0.365,0.287 36.928,28.523 88.551,29.461 51.699,-0.938 91.377,-29.23 91.777,-29.52 l 1.227,-0.891 14.01,7.008 -3.041,2.443 c -0.85,0.689 -20.752,17.506 -7.76,57.271 16.074,49.199 57.301,86.73 80.104,96.611 l 2.201,0.957 -0.865,2.238 c -7.305,18.965 -43.977,113.822 -48.645,118.908 -1.576,1.725 -10.131,6.801 -32.375,19.795 -28.506,16.656 -87.824,51.314 -89.91,58.404 l -0.172,2.309 -5.625,-0.111 -0.182,-2.311 C 302.805,528.83 242.547,494.322 213.586,477.74 190.613,464.59 181.785,459.455 180.188,457.709 175.52,452.621 138.85,357.762 131.545,338.801 l -0.863,-2.238 2.201,-0.957 c 21.061,-9.119 58.281,-45.129 75.104,-96.613 13.027,-39.857 -4.576,-57.232 -4.756,-57.402 l -2.572,-2.455 13.755,-6.888 m 90.078,35.443 c -0.092,0 -0.186,0 -0.283,0 -0.097,0 -0.191,0 -0.289,0 v -0.01 C 255.529,206.743 220.908,183.29 213.85,178.12 l -4.918,2.455 c 4.914,6.535 15.102,25.422 3.812,59.973 -15.836,48.465 -50.273,86.375 -75.684,98.646 17.289,44.838 43.434,110.977 46.836,115.158 1.553,1.512 16.426,10.029 32.172,19.043 54.273,31.074 84.176,49.111 91.871,58.232 7.568,-9.141 36.982,-27.238 90.387,-58.441 15.26,-8.922 29.674,-17.346 31.227,-18.873 3.371,-4.145 29.51,-70.277 46.801,-115.117 -24.582,-11.777 -64.439,-48.936 -80.684,-98.652 -11.324,-34.652 0.918,-53.562 6.721,-60.092 l -4.729,-2.363 c -7.316,4.984 -44.529,28.646 -93.17,29.59 v 0.012 m -89.928,-36.914 -0.705,0.352 -13.754,6.889 -1.596,0.797 1.293,1.229 2.57,2.451 c 0.166,0.166 17.117,17.289 4.43,56.113 -16.699,51.117 -53.57,86.824 -74.41,95.85 l -2.205,0.957 -1.1,0.479 0.434,1.117 0.863,2.238 c 10.279,26.693 44.193,114.188 48.891,119.309 1.721,1.887 10.127,6.777 33.695,20.268 24.15,13.83 88.076,50.432 90.758,57.232 l 0.166,2.145 0.088,1.133 1.133,0.02 5.625,0.113 1.182,0.021 0.092,-1.18 0.16,-2.158 c 2.578,-6.895 65.527,-43.676 89.309,-57.566 22.826,-13.336 30.967,-18.17 32.664,-20.027 4.695,-5.121 38.607,-92.615 48.889,-119.311 l 0.863,-2.236 0.436,-1.117 -1.102,-0.479 -2.203,-0.955 c -22.592,-9.787 -63.459,-47.02 -79.41,-95.852 -12.734,-38.965 6.527,-55.244 7.357,-55.918 l 3.033,-2.434 1.523,-1.223 -1.748,-0.871 -14.012,-7.008 -0.676,-0.338 -0.615,0.447 -1.227,0.887 c -0.395,0.281 -39.789,28.354 -91.068,29.281 -51.129,-0.928 -87.393,-28.908 -87.75,-29.195 l -1.25,-0.977 z m 91.178,38.125 c 47.232,-1.289 83.682,-23.783 92.018,-29.365 l 2.645,1.324 c -6.207,7.656 -16.801,26.779 -5.92,60.074 16.793,51.393 57.664,87.543 80.291,98.883 -20.23,52.438 -43.088,109.617 -46.143,113.654 -1.713,1.561 -17.17,10.594 -30.822,18.574 l -0.115,0.064 c -50.916,29.742 -80.732,48.012 -89.758,57.645 -9.18,-9.609 -39.482,-27.807 -91.24,-57.441 -14.137,-8.09 -30.137,-17.25 -31.871,-18.803 -3.109,-4.102 -25.459,-59.975 -46.186,-113.699 25.752,-12.994 59.58,-50.779 75.295,-98.873 10.842,-33.176 2.102,-52.262 -3.135,-59.898 l 2.93,-1.465 c 7.863,5.645 41.959,28.047 88.939,29.326 v 0.047 l 1.27,-0.008 h 0.27 0.27 l 1.264,0.018 v -0.057 z" />
</g><g
     id="g57">
	<path
   style="fill:#a19c98"
   inkscape:connector-curvature="0"
   id="path53"
   d="m 303.881,205.191 c 53.336,-0.834 93.57,-30 93.57,-30 l 9.164,4.58 c 0,0 -22.318,17.92 -8.568,60 16.408,50.219 57.916,87.92 81.484,98.129 0,0 -43.564,113.121 -48.15,118.121 -4.584,5 -122.084,68.75 -122.918,79.586 h -1.012 c -0.836,-10.836 -120.836,-74.586 -125.42,-79.586 -4.58,-5 -48.15,-118.121 -48.15,-118.121 23.57,-10.209 60.078,-47.91 76.484,-98.129 13.75,-42.08 -5.414,-60 -5.414,-60 l 9.164,-4.58 c 0,0 37.086,29.166 90.416,30" />
	<path
   style="fill:#151011"
   inkscape:connector-curvature="0"
   id="path55"
   d="m 309.041,536.232 h -2.168 l -0.045,-0.578 c -0.539,-6.996 -57.99,-39.891 -92.316,-59.545 C 194.463,464.63 183.049,458.054 181.571,456.443 176.964,451.414 135.079,342.75 133.3,338.127 l -0.215,-0.561 0.549,-0.238 c 35.518,-15.387 65.906,-66.424 76.141,-97.752 13.469,-41.223 -5.061,-59.172 -5.25,-59.348 l -0.656,-0.613 10.324,-5.16 0.311,0.246 c 0.369,0.287 37.391,28.92 89.705,29.859 52.365,-0.939 92.479,-29.586 92.877,-29.875 l 0.309,-0.223 10.373,5.184 -0.76,0.611 c -0.219,0.178 -21.809,18.182 -8.365,59.318 16.254,49.748 58.027,87.738 81.139,97.752 l 0.551,0.238 -0.215,0.561 c -1.781,4.623 -43.66,113.287 -48.271,118.316 -1.539,1.678 -14.291,9.127 -31.939,19.439 -33.764,19.727 -90.277,52.746 -90.82,59.771 z m -1.092,-1.25 h 0.012 c 2.617,-7.826 44.658,-32.922 91.314,-60.18 16.225,-9.48 30.236,-17.666 31.645,-19.203 3.547,-3.867 32.699,-78.129 47.812,-117.367 -24.086,-10.727 -64.852,-47.982 -81.279,-98.266 -7.16,-21.916 -4.418,-37.225 -0.859,-46.207 3.105,-7.832 7.264,-12.281 8.916,-13.842 l -8.004,-4.002 c -3.863,2.688 -42.818,28.893 -92.984,29.889 v 0.012 c -0.215,-0.006 -0.414,-0.006 -0.629,0 v -0.012 c -50.018,-0.996 -86.107,-27.076 -89.844,-29.881 l -8.07,4.033 c 3.172,3.584 17.289,22.344 4.98,60.01 -9.512,29.119 -24.645,51.023 -35.668,64.273 -13.363,16.062 -28.129,28.414 -40.611,33.992 15.117,39.236 44.271,113.5 47.812,117.367 1.42,1.547 15.887,9.832 32.643,19.424 47.424,27.156 90.16,52.156 92.814,59.96 z" />
</g><g
     id="g68">
	
		<linearGradient
   gradientTransform="matrix(1,0,0,-1,0,794)"
   y2="530.46289"
   x2="488.4678"
   y1="530.46289"
   x1="428.89651"
   gradientUnits="userSpaceOnUse"
   id="SVGID_6_">
		<stop
   id="stop59"
   style="stop-color:#CCC7C0"
   offset="0.0038" />
		<stop
   id="stop61"
   style="stop-color:#221C1D"
   offset="1" />
	</linearGradient>
	<path
   style="fill:url(#SVGID_6_)"
   inkscape:connector-curvature="0"
   id="path64"
   d="m 479.732,334.912 c 3.328,-22.5 1.664,-25.828 -18.75,-82.914 -20.422,-57.086 -32.086,-57.086 -32.086,-57.086 0,0 8.707,-8.09 18.613,3.477 9.913,11.562 61.118,124.439 32.223,136.523" />
	<path
   style="fill:#453d40"
   inkscape:connector-curvature="0"
   id="path66"
   d="m 478.951,335.916 0.162,-1.094 c 3.174,-21.447 1.699,-25.57 -16.367,-76.035 l -2.354,-6.578 c -20.039,-56.023 -31.383,-56.672 -31.496,-56.672 h -1.592 l 1.166,-1.082 c 0.129,-0.117 3.195,-2.918 7.818,-2.918 4.096,0 8.033,2.168 11.693,6.445 7.777,9.07 47.867,93.973 40.152,126.477 -1.33,5.609 -4.078,9.32 -8.162,11.031 z M 430.244,194.674 c 3.676,1.662 14.645,10.479 31.326,57.113 l 2.354,6.58 c 17.834,49.82 19.586,54.713 16.596,75.475 3.133,-1.723 5.283,-4.969 6.4,-9.674 7.436,-31.332 -32.369,-116.605 -39.883,-125.371 -3.416,-3.988 -7.031,-6.01 -10.748,-6.01 -2.74,0 -4.893,1.121 -6.045,1.887 z" />
</g><g
     id="g79">
	
		<linearGradient
   gradientTransform="matrix(1,0,0,-1,0,794)"
   y2="530.46289"
   x2="183.6582"
   y1="530.46289"
   x1="124.083"
   gradientUnits="userSpaceOnUse"
   id="SVGID_7_">
		<stop
   id="stop70"
   style="stop-color:#CCC7C0"
   offset="0.0038" />
		<stop
   id="stop72"
   style="stop-color:#221C1D"
   offset="1" />
	</linearGradient>
	<path
   style="fill:url(#SVGID_7_)"
   inkscape:connector-curvature="0"
   id="path75"
   d="m 132.822,334.912 c -3.336,-22.5 -1.664,-25.828 18.75,-82.914 20.414,-57.086 32.086,-57.086 32.086,-57.086 0,0 -8.707,-8.09 -18.619,3.477 -9.908,11.562 -61.119,124.439 -32.217,136.523" />
	<path
   style="fill:#453d40"
   inkscape:connector-curvature="0"
   id="path77"
   d="m 133.604,335.916 -1.023,-0.426 c -4.084,-1.707 -6.83,-5.418 -8.164,-11.029 -7.715,-32.49 32.373,-117.404 40.148,-126.479 3.666,-4.277 7.602,-6.445 11.697,-6.445 4.627,0 7.693,2.801 7.82,2.918 l 1.166,1.082 h -1.59 c -0.098,0.006 -11.68,1.258 -31.498,56.672 l -2.375,6.641 c -18.049,50.414 -19.521,54.533 -16.346,75.971 z m 42.658,-143.129 c -3.715,0 -7.33,2.021 -10.748,6.01 -7.516,8.77 -47.318,94.057 -39.881,125.373 1.117,4.703 3.268,7.949 6.4,9.672 -2.992,-20.75 -1.242,-25.645 16.574,-75.416 l 2.377,-6.639 c 16.672,-46.621 27.641,-55.445 31.32,-57.113 -1.154,-0.764 -3.312,-1.887 -6.042,-1.887 z" />
</g><g
     id="g90">
	
		<linearGradient
   gradientTransform="matrix(1,0,0,-1,0,794)"
   y2="617.57031"
   x2="382.5293"
   y1="617.57031"
   x1="231.01759"
   gradientUnits="userSpaceOnUse"
   id="SVGID_8_">
		<stop
   id="stop81"
   style="stop-color:#554C4B"
   offset="0" />
		<stop
   id="stop83"
   style="stop-color:#070606"
   offset="1" />
	</linearGradient>
	<path
   style="fill:url(#SVGID_8_)"
   inkscape:connector-curvature="0"
   id="path86"
   d="m 382.529,170.006 c -2.172,-0.859 -4.365,-1.684 -6.562,-2.463 -32.914,25.414 -69.164,21.25 -69.164,21.25 h -0.318 c 0,0 -36.25,4.164 -69.166,-21.25 -2.109,0.746 -4.211,1.537 -6.301,2.355 0,0 1.436,-11.582 13.936,-2.355 12.5,9.223 31.139,15.783 61.824,16.096 30.676,0.312 44.738,-6.039 64.113,-18.125 11.902,-5.625 11.638,4.492 11.638,4.492 z" />
	<path
   style="fill:#453d40"
   inkscape:connector-curvature="0"
   id="path88"
   d="m 312.832,189.672 c -3.814,0 -6.01,-0.248 -6.102,-0.26 l -0.246,0.006 c -0.02,0.006 -2.217,0.254 -6.029,0.254 -10.639,0 -38.033,-2.092 -63.248,-21.426 -1.885,0.67 -3.84,1.404 -5.963,2.232 l -0.977,0.385 0.131,-1.041 c 0.277,-2.238 1.959,-6.473 6.346,-6.473 2.377,0 5.262,1.242 8.58,3.689 14.193,10.471 34.297,15.699 61.461,15.975 29.414,0.289 43.275,-5.244 63.775,-18.029 5.006,-2.377 8.578,-2.361 10.711,-0.172 1.943,1.994 1.885,5.078 1.883,5.211 l -0.023,0.893 -0.832,-0.328 c -2.102,-0.832 -4.193,-1.619 -6.219,-2.342 -25.215,19.334 -52.611,21.426 -63.248,21.426 z m -6.029,-1.504 c 0.092,0.006 2.293,0.254 6.029,0.254 10.547,0 37.771,-2.084 62.754,-21.375 l 0.268,-0.207 0.324,0.115 c 1.844,0.652 3.744,1.361 5.66,2.109 -0.125,-0.932 -0.473,-2.369 -1.467,-3.385 -1.732,-1.779 -4.91,-1.631 -9.213,0.398 -20.148,12.572 -33.941,18.197 -62.242,18.197 -0.002,0 -0.002,0 -0.004,0 -0.703,-0.002 -1.42,-0.004 -2.143,-0.012 -27.434,-0.277 -47.775,-5.584 -62.188,-16.219 -3.098,-2.285 -5.734,-3.445 -7.838,-3.445 -3.189,0 -4.428,2.727 -4.875,4.297 1.844,-0.711 3.568,-1.35 5.242,-1.941 l 0.32,-0.115 0.27,0.207 c 24.984,19.291 52.207,21.375 62.754,21.375 3.732,0 5.938,-0.248 5.959,-0.25 z" />
</g><g
     id="g101">
	
		<linearGradient
   gradientTransform="matrix(1,0,0,-1,0,794)"
   y2="438.59961"
   x2="479.53119"
   y1="438.59961"
   x1="305.39059"
   gradientUnits="userSpaceOnUse"
   id="SVGID_9_">
		<stop
   id="stop92"
   style="stop-color:#CCC7C0"
   offset="0.0038" />
		<stop
   id="stop94"
   style="stop-color:#221C1D"
   offset="1" />
	</linearGradient>
	<path
   style="fill:url(#SVGID_9_)"
   inkscape:connector-curvature="0"
   id="path97"
   d="m 398.047,239.771 c -13.75,-42.08 8.568,-60 8.568,-60 l -9.164,-4.58 c 0,0 -39.488,28.596 -92.061,29.949 l 0.549,327.822 c 0.938,1.074 1.461,1.967 1.512,2.646 h 1.012 c 0.834,-10.836 118.334,-74.586 122.918,-79.586 4.586,-5 48.15,-118.119 48.15,-118.119 -23.568,-10.212 -65.072,-47.913 -81.484,-98.132 z" />
	<path
   style="fill:#151011"
   inkscape:connector-curvature="0"
   id="path99"
   d="m 309.041,536.234 h -2.168 l -0.045,-0.58 c -0.021,-0.295 -0.229,-0.984 -1.359,-2.281 l -0.154,-0.176 v -0.234 l -0.549,-328.43 0.607,-0.018 c 51.783,-1.334 91.318,-29.547 91.711,-29.83 l 0.309,-0.223 10.373,5.184 -0.76,0.611 c -0.219,0.178 -21.809,18.182 -8.365,59.318 16.256,49.746 58.027,87.738 81.139,97.754 l 0.551,0.238 -0.215,0.561 c -1.781,4.623 -43.66,113.287 -48.271,118.318 -1.539,1.676 -14.291,9.125 -31.939,19.438 -33.764,19.727 -90.277,52.746 -90.82,59.773 z m -1.082,-1.25 h 0.002 c 2.617,-7.826 44.658,-32.92 91.314,-60.178 16.225,-9.48 30.236,-17.668 31.645,-19.205 3.547,-3.867 32.699,-78.127 47.812,-117.365 -24.084,-10.73 -64.848,-47.988 -81.279,-98.27 -7.16,-21.916 -4.418,-37.225 -0.859,-46.207 3.105,-7.832 7.264,-12.281 8.916,-13.842 l -8.004,-4.002 c -3.826,2.662 -42.064,28.357 -91.49,29.832 l 0.549,326.982 c 0.73,0.863 1.189,1.609 1.394,2.255 z" />
</g><g
     id="g112">
	
		<linearGradient
   gradientTransform="matrix(1,0,0,-1,0,794)"
   y2="439.92581"
   x2="136.76711"
   y1="439.92581"
   x1="303.72021"
   gradientUnits="userSpaceOnUse"
   id="SVGID_10_">
		<stop
   id="stop103"
   style="stop-color:#CCC7C0"
   offset="0.0038" />
		<stop
   id="stop105"
   style="stop-color:#221C1D"
   offset="1" />
	</linearGradient>
	<path
   style="fill:url(#SVGID_10_)"
   inkscape:connector-curvature="0"
   id="path108"
   d="m 304.209,205.182 c 0.107,0 0.215,0.01 0.322,0.01 h -0.65 c 0.113,-0.001 0.215,-0.01 0.328,-0.01 -53.16,-0.947 -90.094,-29.99 -90.094,-29.99 l -9.164,4.58 c 0,0 19.164,17.92 5.414,60 -16.402,50.219 -52.914,87.92 -76.484,98.129 0,0 43.57,113.121 48.15,118.121 4.297,4.688 109.949,60.967 123.906,76.938 l -0.549,-327.82 c -0.394,0.006 -0.784,0.032 -1.179,0.042 z" />
	<path
   style="fill:#151011"
   inkscape:connector-curvature="0"
   id="path110"
   d="m 306.564,534.627 -1.098,-1.258 c -9.062,-10.371 -58.33,-38.578 -90.93,-57.246 -20.064,-11.488 -31.488,-18.066 -32.967,-19.68 -4.607,-5.029 -46.49,-113.693 -48.271,-118.316 l -0.215,-0.561 0.549,-0.238 c 35.52,-15.387 65.906,-66.424 76.141,-97.75 13.449,-41.162 -5.061,-59.174 -5.25,-59.35 l -0.654,-0.615 10.322,-5.158 0.311,0.246 c 0.369,0.287 37.387,28.916 89.703,29.855 l 1.809,-0.059 v 0.641 z M 134.68,338.232 c 15.117,39.236 44.271,113.5 47.812,117.367 1.42,1.547 15.898,9.838 32.664,19.441 33.42,19.133 78.762,45.094 90.154,56.35 l -0.547,-325.604 -0.883,0.029 v -0.014 c -50.012,-1.002 -86.096,-27.074 -89.832,-29.879 l -8.07,4.033 c 3.172,3.586 17.289,22.346 4.98,60.01 -9.508,29.117 -24.645,51.023 -35.668,64.273 -13.362,16.065 -28.124,28.416 -40.61,33.994 z" />
</g><path
     id="path119"
     d="m 479.531,337.9 c -23.568,-10.209 -65.072,-47.91 -81.484,-98.129 -13.75,-42.08 8.568,-60 8.568,-60 l -9.164,-4.58 c 0,0 -39.488,28.596 -92.061,29.949 l 0.279,167.109 173.705,-33.932 c 0.099,-0.264 0.157,-0.417 0.157,-0.417 z"
     enable-background="new    "
     inkscape:connector-curvature="0"
     style="opacity:0.31000001;fill:url(#SVGID_11_)" /><path
     id="path126"
     d="m 305.67,372.248 0.268,160.711 c 0.938,1.074 1.459,1.969 1.512,2.648 h 1.01 c 0.836,-10.836 118.336,-74.586 122.92,-79.586 4.424,-4.824 45.17,-110.391 47.99,-117.705 z"
     enable-background="new    "
     inkscape:connector-curvature="0"
     style="opacity:0.12000002;fill:url(#SVGID_12_)" /><path
     id="path133"
     d="m 305.67,372.248 -0.279,-167.109 c -0.396,0.008 -0.783,0.033 -1.182,0.043 0.107,0 0.215,0.01 0.322,0.01 h -0.65 c 0.113,0 0.215,-0.01 0.328,-0.01 -53.16,-0.947 -90.094,-29.99 -90.094,-29.99 l -9.164,4.58 c 0,0 19.164,17.92 5.414,60 -15.346,46.973 -48.27,82.984 -71.752,95.805 l 164.514,37.168 z"
     enable-background="new    "
     inkscape:connector-curvature="0"
     style="opacity:0.31000001;fill:url(#SVGID_13_)" /><path
     id="path140"
     d="m 303.125,372.744 0.383,0.09 -0.383,-0.09 -0.451,0.09 0.451,-0.09 -164.514,-37.168 c -1.625,0.885 -3.201,1.666 -4.732,2.324 0,0 43.57,113.121 48.15,118.121 4.297,4.688 109.949,60.967 123.906,76.938 l -0.27,-160.711 z"
     enable-background="new    "
     inkscape:connector-curvature="0"
     style="opacity:0.12000002;fill:url(#SVGID_14_)" /><g
     id="g146">
	<path
   style="fill:#a19c98"
   inkscape:connector-curvature="0"
   id="path142"
   d="m 304.531,205.191 c -0.107,0 -0.215,-0.01 -0.322,-0.01 -0.113,0 -0.215,0.01 -0.328,0.01 z" />
	<polygon
   style="fill:#151011"
   id="polygon144"
   points="304.209,204.557 304.531,204.566 304.531,205.816 303.881,205.816 303.881,204.566 " />
</g><path
     id="path153"
     d="m 326.143,550.367 h 0.154 0.16 0.154 c 14.766,0 104.775,-3.092 127.002,-46.543 l -13.275,-17.275 c -1.145,3.701 -2.316,7.477 -3.516,11.318 -14.566,42.955 -90.82,50.924 -120.137,52.252 4.243,0.195 7.508,0.248 9.458,0.248 z"
     inkscape:connector-curvature="0"
     style="fill:url(#SVGID_15_)" /><g
     id="g166">
	
		<linearGradient
   gradientTransform="matrix(1,0,0,-1,0,794)"
   y2="468.24799"
   x2="304.99371"
   y1="468.24799"
   x1="189.4272"
   gradientUnits="userSpaceOnUse"
   id="SVGID_16_">
		<stop
   id="stop155"
   style="stop-color:#CCC7C0"
   offset="0.0038" />
		<stop
   id="stop157"
   style="stop-color:#221C1D"
   offset="0.5189" />
		<stop
   id="stop159"
   style="stop-color:#A19C98"
   offset="1" />
	</linearGradient>
	<path
   style="fill:url(#SVGID_16_)"
   inkscape:connector-curvature="0"
   id="path162"
   d="m 304.107,368.014 c -9.299,-7.812 -10.363,-16.006 -3.285,-25.695 -3.209,1.727 -6.191,2.605 -8.887,2.605 -3.828,0 -6.965,-1.766 -9.328,-5.246 l -0.363,-0.543 0.654,0.055 c 0.494,0.043 0.984,0.062 1.465,0.062 4.217,0 8.502,-1.594 11.764,-4.375 3.086,-2.623 4.926,-6.045 4.926,-9.146 0,-7.873 -2.719,-17.514 -15.686,-18.711 l -0.42,-0.041 0.158,-0.387 c 1.211,-2.982 4.324,-4.625 8.75,-4.625 2.701,0 5.242,0.609 6.982,1.342 -3.811,-5.229 -5.215,-10.354 -3.836,-14.205 1.014,-2.857 3.52,-4.793 7.24,-5.613 l 0.225,0.574 c -2.324,1.33 -3.807,3.371 -4.404,6.059 -1.012,4.531 0.635,10.576 4.291,15.773 l -0.4,0.457 c -2.793,-1.467 -5.775,-2.27 -8.41,-2.27 -2.494,0 -4.494,0.707 -5.58,1.961 9.799,1.379 14.77,8.314 14.77,20.631 0,2.799 -3.156,14.107 -17.734,14.107 -0.115,0 -0.223,0 -0.334,0 1.404,1.094 3.254,1.648 5.502,1.648 3.135,0 6.998,-1.018 11.809,-3.109 l 1.02,-0.445 -0.641,0.91 c -5.766,8.188 -5.676,19.105 0.215,27.809 z m -29.219,-14.723 c -7.861,0 -15.688,-2.18 -21.465,-5.98 -4.594,-3.023 -10.074,-8.475 -10.074,-17.27 0,-2.578 0.545,-5.062 1.617,-7.389 -2.686,-2.559 -5.256,-5.205 -7.744,-7.764 -9.309,-9.58 -17.35,-17.852 -27.092,-17.852 -9.307,0 -16.396,9.809 -16.396,14.717 l -0.625,0.037 c -0.352,-3.326 1.113,-7.174 3.92,-10.293 3.387,-3.766 8.164,-5.924 13.098,-5.924 11.512,0 20.453,9.336 29.92,19.219 1.914,2.002 3.857,4.029 5.859,6.021 0.416,-0.691 0.906,-1.377 1.531,-2.109 -1.516,-1.549 -3.01,-3.121 -4.498,-4.686 -9.936,-10.461 -19.32,-20.344 -32.812,-20.344 -10.592,0 -19.127,9.834 -19.127,17.971 0,6.086 5.988,14.512 17.238,14.512 4.631,0 7.494,-2.125 9.082,-3.904 2.201,-2.471 3.357,-5.873 3.008,-8.887 l 0.6,-0.158 c 1.191,2.766 0.631,6.58 -1.434,9.717 -2.447,3.721 -6.549,5.859 -11.256,5.859 -14.072,0 -18.811,-11.768 -18.811,-17.137 0,-10.088 8.504,-21.328 20.699,-21.328 15.215,0 25.852,11.258 36.129,22.139 1.207,1.275 2.412,2.549 3.623,3.809 0.631,-0.529 1.367,-1.043 2.318,-1.631 l -0.863,-0.883 C 240.067,302.271 227.3,289.259 213.599,289.259 l -0.021,-0.623 c 0.488,-0.033 0.982,-0.047 1.471,-0.047 14.676,0 27.965,13.92 38.658,25.195 3.354,-1.738 7.07,-2.656 10.762,-2.656 3.184,0 6.381,0.42 9.258,1.221 2.623,-2.783 6.055,-4.375 9.447,-4.375 9.41,0 15.031,8.227 15.031,16.182 0,8.348 -5.742,13.135 -15.762,13.135 -14.389,0 -24.758,-8.271 -33.809,-17.281 -0.504,0.699 -0.924,1.395 -1.334,2.193 8.744,8.428 19.707,16.99 34.721,16.99 l 0.014,0.625 c -0.498,0.014 -0.996,0.023 -1.486,0.023 -14.836,0 -25.523,-7.865 -34.021,-15.666 -0.662,1.836 -0.979,3.762 -0.979,5.867 0,13.34 16.25,20.322 32.305,20.322 7.266,0 13.469,-1.523 17.018,-4.176 l 0.391,0.48 c -4.812,4.273 -12.051,6.623 -20.375,6.623 z m -23.847,-35.748 c 8.125,8.482 17.926,17.443 31.406,17.443 8.277,0 12.301,-3.543 12.301,-10.83 0,-7.186 -4.055,-14.818 -11.568,-14.818 -2.877,0 -5.615,1.252 -7.756,3.539 6.906,2.469 10.697,6.871 10.697,12.438 0,3.432 -2.611,7.143 -6.83,7.143 -5.066,0 -9.348,-4.812 -9.348,-10.508 0,-2.709 0.867,-5.471 2.447,-7.832 -2.27,-0.791 -4.926,-1.211 -7.709,-1.211 -3.512,0 -6.881,0.723 -9.781,2.096 7.711,8.109 14.99,15.703 21.301,16.941 l -0.111,0.617 c -6.809,-1.133 -14.012,-7.936 -22.701,-16.734 -0.796,0.485 -1.616,1.03 -2.348,1.716 z m 23.017,-2.879 c -1.439,2.238 -2.232,4.814 -2.232,7.285 0,4.486 3.629,8.725 7.465,8.725 1.916,0 3.473,-2.404 3.473,-5.363 -0.001,-4.487 -3.169,-8.356 -8.706,-10.647 z" />
	<path
   style="fill:#a19c98"
   inkscape:connector-curvature="0"
   id="path164"
   d="m 304.306,283.799 c -7.352,4.205 -5.465,14.816 -0.209,22.281 -3.021,-1.59 -6.021,-2.309 -8.562,-2.309 -2.842,0 -5.098,0.904 -6.152,2.52 7.148,0.84 15.033,5.043 15.033,20.383 0,2.461 -2.896,13.797 -17.426,13.797 -0.383,0 -0.777,-0.008 -1.182,-0.025 1.627,1.623 3.818,2.299 6.354,2.299 3.529,0 7.715,-1.303 11.934,-3.133 -5.258,7.457 -6.412,18.385 0.209,28.164 -10.508,-8.828 -9.457,-17.449 -2.316,-26.49 -2.07,1.244 -5.971,3.322 -10.057,3.322 -3.172,0 -6.449,-1.25 -9.066,-5.105 0.5,0.043 0.998,0.062 1.494,0.062 9.238,0 17.002,-7.244 17.002,-13.834 0,-8.826 -3.467,-17.869 -15.973,-19.021 1.344,-3.301 4.889,-4.428 8.463,-4.428 3.15,0 6.318,0.873 8.037,1.906 -7.147,-9.042 -7.147,-18.288 2.417,-20.389 m -89.252,5.103 c 14.344,-0.002 27.305,13.371 38.594,25.266 3.359,-1.787 7.143,-2.729 10.826,-2.729 3.152,0 6.41,0.42 9.355,1.26 2.416,-2.627 5.775,-4.414 9.35,-4.414 9.043,0 14.717,7.988 14.717,15.869 0,9.355 -7.041,12.822 -15.449,12.822 -14.402,0 -24.594,-8.197 -33.844,-17.447 -0.629,0.84 -1.156,1.68 -1.684,2.734 9.455,9.141 20.285,17.238 35.107,17.238 -0.498,0.016 -0.99,0.025 -1.475,0.025 -14.285,0 -24.91,-7.357 -34.156,-15.898 -0.736,1.895 -1.156,3.996 -1.156,6.412 0,14.086 17.652,20.633 32.617,20.633 7.029,0 13.473,-1.447 17.203,-4.238 -4.996,4.432 -12.467,6.543 -20.172,6.543 -15.152,0 -31.227,-8.166 -31.227,-22.938 0,-2.73 0.631,-5.252 1.68,-7.461 -12.611,-11.979 -22.594,-25.855 -35.209,-25.855 -9.773,0 -16.709,10.195 -16.709,15.029 -0.738,-6.936 6.621,-15.869 16.709,-15.869 13.771,0 23.758,13.453 35.842,25.434 0.527,-0.945 1.158,-1.785 1.895,-2.631 -11.664,-11.869 -21.967,-25.326 -37.736,-25.326 -10.926,0 -19.441,9.982 -19.441,18.283 0,6.621 6.518,14.824 17.553,14.824 8.828,0 13.031,-7.674 12.402,-13.141 2.311,5.359 -2.207,15.139 -12.402,15.139 -14.082,0 -18.5,-11.771 -18.5,-16.822 0,-9.668 8.195,-21.016 20.389,-21.016 16.926,0 27.961,13.873 39.734,26.066 0.84,-0.74 1.787,-1.369 2.836,-2 -11.771,-11.982 -24.805,-25.752 -39.096,-25.752 0.48,-0.026 0.965,-0.04 1.447,-0.04 m 64.238,43.243 c -4.936,0 -9.035,-4.732 -9.035,-10.195 0,-2.943 1.049,-5.779 2.627,-7.988 -2.52,-0.943 -5.363,-1.367 -8.199,-1.367 -3.574,0 -7.145,0.736 -10.297,2.314 8.09,8.512 15.344,16.082 21.752,17.346 -6.932,-1.156 -14.502,-8.516 -22.699,-16.822 -1.055,0.637 -1.998,1.266 -2.838,2.105 9.039,9.457 18.707,17.762 31.846,17.762 7.459,0 12.613,-2.836 12.613,-11.143 0,-7.355 -4.207,-15.131 -11.881,-15.131 -3.258,0 -6.199,1.576 -8.301,3.992 6.199,2.102 10.934,6.098 10.934,12.297 -0.004,3.363 -2.527,6.83 -6.522,6.83 m 0,-1.159 c 2.209,0 3.787,-2.729 3.787,-5.676 0,-5.15 -3.895,-8.934 -9.141,-11.035 -1.475,2.211 -2.422,4.939 -2.422,7.672 -0.003,4.729 3.782,9.039 7.776,9.039 m 24.877,-47.797 c -3.828,0.84 -6.408,2.852 -7.463,5.811 -1.338,3.742 -0.139,8.633 3.283,13.658 -1.84,-0.623 -4.066,-1.002 -6.137,-1.002 -4.566,0 -7.777,1.713 -9.043,4.818 l -0.316,0.779 0.84,0.078 c 12.736,1.178 15.404,10.658 15.404,18.4 0,5.984 -7.305,13.209 -16.377,13.209 -0.473,0 -0.957,-0.021 -1.441,-0.061 l -1.301,-0.109 0.07,0.105 c -14.635,-0.129 -25.393,-8.471 -33.998,-16.738 0.307,-0.586 0.631,-1.119 0.99,-1.645 9.031,8.957 19.406,17.111 33.766,17.111 10.215,0 16.074,-4.902 16.074,-13.447 0,-10.326 -7.797,-16.494 -15.342,-16.494 -3.424,0 -6.885,1.576 -9.545,4.336 -2.857,-0.775 -6.012,-1.184 -9.16,-1.184 -3.668,0 -7.355,0.891 -10.699,2.584 -10.705,-11.285 -23.984,-25.123 -38.719,-25.123 v 0 c -0.498,0 -0.99,0.014 -1.492,0.047 l 0.043,1.248 c 13.568,0 26.289,12.965 37.51,24.4 l 0.596,0.604 c -0.709,0.447 -1.293,0.857 -1.805,1.268 -1.143,-1.193 -2.281,-2.396 -3.418,-3.6 -10.328,-10.932 -21.004,-22.236 -36.357,-22.236 -12.383,0 -21.014,11.404 -21.014,21.639 0,5.469 4.82,17.449 19.125,17.449 4.812,0 9.012,-2.188 11.518,-6 2.119,-3.223 2.689,-7.148 1.455,-10.012 l -1.193,0.32 c 0.338,2.926 -0.783,6.238 -2.93,8.643 -1.549,1.732 -4.334,3.803 -8.854,3.803 -11.045,0 -16.926,-8.248 -16.926,-14.201 0,-9.779 10.297,-17.658 18.816,-17.658 13.361,0 22.699,9.834 32.588,20.246 1.42,1.5 2.854,3.004 4.301,4.484 -0.453,0.547 -0.84,1.07 -1.172,1.598 -1.904,-1.904 -3.764,-3.848 -5.572,-5.738 -9.516,-9.934 -18.502,-19.316 -30.145,-19.316 -5.025,0 -9.889,2.199 -13.336,6.029 -2.861,3.182 -4.352,7.121 -3.994,10.533 l 1.246,-0.066 c 0,-4.805 6.953,-14.406 16.084,-14.406 9.611,0 17.607,8.229 26.865,17.76 2.443,2.512 4.961,5.105 7.592,7.619 -1.029,2.311 -1.553,4.764 -1.553,7.314 0,7.076 3.531,13.141 10.211,17.533 5.83,3.832 13.721,6.031 21.641,6.031 8.402,0 15.713,-2.377 20.586,-6.699 l -0.791,-0.967 c -3.488,2.613 -9.629,4.111 -16.824,4.111 -21.006,0 -31.994,-10.066 -31.994,-20.01 0,-1.895 0.264,-3.643 0.805,-5.312 8.49,7.734 19.146,15.426 33.883,15.426 0.492,0 0.99,-0.01 1.496,-0.025 l -0.01,-0.742 0.312,0.467 c 2.422,3.572 5.648,5.381 9.586,5.381 2.426,0 5.07,-0.691 7.896,-2.062 -6.377,9.398 -5.049,17.422 4.076,25.082 l 0.914,-0.828 c -5.816,-8.598 -5.906,-19.377 -0.215,-27.455 l 1.281,-1.822 -2.039,0.885 c -4.707,2.045 -8.639,3.086 -11.686,3.086 -1.758,0 -3.256,-0.346 -4.479,-1.033 14.244,-0.354 17.352,-11.594 17.352,-14.41 0,-12.057 -4.977,-19.238 -14.424,-20.84 1.09,-0.926 2.818,-1.441 4.922,-1.441 2.588,0 5.523,0.793 8.27,2.236 l 0.803,-0.912 c -3.609,-5.129 -5.238,-11.074 -4.246,-15.525 0.58,-2.6 2.012,-4.566 4.252,-5.854 z m -28.183,29.561 c 2.027,-2.006 4.549,-3.1 7.193,-3.1 7.311,0 11.256,7.473 11.256,14.506 0,7.078 -3.922,10.518 -11.988,10.518 -13.238,0 -22.92,-8.75 -30.957,-17.113 0.557,-0.488 1.162,-0.91 1.848,-1.34 8.658,8.756 15.846,15.506 22.695,16.646 l 0.133,-0.703 c 0.988,0.391 2.035,0.605 3.125,0.605 4.416,0 7.143,-3.873 7.143,-7.455 10e-4,-5.584 -3.698,-10.019 -10.448,-12.564 z m -20.551,2.354 c 2.764,-1.232 5.941,-1.885 9.248,-1.885 2.592,0 5.072,0.365 7.227,1.064 -1.475,2.336 -2.277,5.027 -2.277,7.666 0,3.699 1.756,7.031 4.369,8.992 -5.598,-2.298 -11.922,-8.845 -18.567,-15.837 z m 23.857,15.257 c -3.678,0 -7.15,-4.086 -7.15,-8.412 0,-2.332 0.723,-4.76 2.039,-6.895 5.262,2.252 8.273,5.967 8.273,10.26 -0.003,2.737 -1.449,5.047 -3.162,5.047 z" />
</g><g
     id="g177">
	
		<linearGradient
   gradientTransform="matrix(1,0,0,-1,0,794)"
   y2="235.91209"
   x2="474.6113"
   y1="235.91209"
   x1="378.56931"
   gradientUnits="userSpaceOnUse"
   id="SVGID_17_">
		<stop
   id="stop168"
   style="stop-color:#CCC7C0"
   offset="0.0038" />
		<stop
   id="stop170"
   style="stop-color:#221C1D"
   offset="1" />
	</linearGradient>
	<path
   style="fill:url(#SVGID_17_)"
   inkscape:connector-curvature="0"
   id="path173"
   d="m 404.76,586.08 c -0.658,0 -1.453,-0.023 -2.396,-0.068 -5.352,-0.342 -9.682,-1.574 -12.896,-3.66 -4.93,-3.166 -8.25,-6.92 -9.865,-11.154 -0.225,-0.586 -0.391,-1.148 -0.498,-1.684 -0.518,-3.078 -0.527,-3.258 -0.531,-3.352 -0.01,-0.184 -0.016,-0.354 0.395,-2.787 0.445,-2.896 1.336,-5.166 2.66,-6.729 0.99,-1.074 2.918,-2.312 5.938,-3.826 0.865,-0.334 1.645,-0.479 2.438,-0.479 1.014,0 2.068,0.24 3.131,0.713 1.898,0.85 3.189,2.148 3.852,3.867 0.795,2.088 0.527,4.217 -0.785,6.334 -0.713,1.049 -1.629,1.787 -2.762,2.217 -0.826,0.316 -1.631,0.475 -2.393,0.475 -1.609,0 -3.012,-0.684 -4.17,-2.035 -0.586,-0.711 -0.75,-1.678 -0.518,-2.977 0.205,-1.172 0.682,-2.133 1.418,-2.863 0.336,-0.367 0.713,-0.643 1.119,-0.799 0.586,-0.225 1.137,-0.336 1.654,-0.336 0.801,0 2.197,0.285 3.115,2.07 -0.062,-0.576 -0.229,-1.068 -0.498,-1.482 -0.912,-0.928 -1.957,-1.465 -3.057,-1.465 -0.455,0 -0.938,0.094 -1.436,0.283 -1,0.381 -1.996,1.082 -2.965,2.078 l 0.344,0.922 -1.266,0.387 c -1.506,0.461 -1.977,2.465 -1.41,5.975 0.014,0.256 0.023,0.471 0.023,0.664 l 1.045,2.73 c 0.488,1.855 2.201,3.514 5.111,5.062 1.945,1.037 3.666,1.562 5.102,1.562 0.676,0 1.307,-0.121 1.875,-0.357 l 0.23,-0.098 h 0.248 c 0.365,-0.006 1.049,-0.084 2.246,-0.443 0.736,-0.391 1.525,-0.592 2.361,-0.592 1.711,0 3.51,0.814 5.498,2.488 2.256,1.9 3.549,2.303 4.238,2.303 0.174,0 0.326,-0.025 0.463,-0.078 0.367,-0.137 0.693,-0.352 1.006,-0.656 0.186,-0.203 0.275,-0.346 0.322,-0.43 l -0.01,-0.092 c -0.02,-0.225 -0.195,-0.475 -0.527,-0.736 -0.18,-0.15 -0.35,-0.227 -0.455,-0.227 -0.779,0.324 -1.518,0.488 -2.25,0.488 -0.867,0 -1.721,-0.23 -2.547,-0.68 -1.439,-0.797 -2.441,-1.904 -2.969,-3.293 -0.418,-1.094 -0.461,-2.146 -0.105,-3.125 0.363,-1.15 1.283,-1.244 1.557,-1.244 0.443,0 0.879,0.189 1.283,0.562 1.197,1.1 2.428,1.68 3.664,1.719 0.008,0 0.014,0 0.023,0 1.369,0 2.342,-0.312 3.18,-0.953 4.975,-4.533 5.658,-4.691 6.113,-4.795 0.215,-0.068 0.527,-0.111 0.859,-0.111 1.328,0 2.996,0.736 5.092,2.25 0.514,0.371 1.146,0.553 1.953,0.553 0.729,0 1.576,-0.152 2.529,-0.445 1.82,-0.561 3.734,-2.92 5.537,-6.83 1.068,-2.672 3.008,-6.861 5.732,-12.393 0.211,-0.875 0.707,-2.203 1.436,-3.828 l 0.061,-0.152 0.074,-0.088 c -3.35,2.471 -6.666,4.221 -9.855,5.211 -0.684,0.195 -1.406,0.293 -2.188,0.293 -1.617,0 -3.541,-0.416 -5.723,-1.232 -3.354,-1.258 -5.367,-2.877 -6.166,-4.949 -0.26,-0.695 -0.361,-1.416 -0.285,-2.145 l 0.02,-0.203 0.084,-0.182 c 0.254,-0.561 0.775,-0.906 1.361,-0.906 0.709,0 1.25,0.479 1.639,0.898 0.488,0.518 1.02,1.049 1.609,1.609 0.404,0.389 0.873,0.596 1.484,0.658 0.293,0.039 0.527,0.055 0.756,0.055 1.205,0 2.209,-0.484 3.059,-1.488 2.105,-2.475 3.826,-3.646 5.42,-3.68 0,0 0,0 0.006,0 2.016,0 3.369,0.859 3.965,2.416 0.266,0.697 0.449,1.572 0.283,2.529 1.498,-0.9 3.33,-2.17 5.48,-3.789 3.922,-2.945 6.898,-4.785 9.104,-5.627 l 4.102,-1.568 0.123,-0.021 c 0.316,-0.053 0.586,-0.125 0.82,-0.209 l 2.217,-0.848 c 4.799,-1.021 5.982,-1.133 6.477,-1.133 0.285,-0.023 0.604,-0.035 0.91,-0.035 2.402,0 4.346,0.723 5.781,2.145 l 0.752,0.744 -0.615,0.865 c -0.707,1.008 -1.553,1.217 -2.133,1.217 h -0.232 l -0.234,-0.08 c -0.771,-0.293 -1.924,-0.586 -3.428,-0.877 -3.984,0.322 -7.16,0.932 -9.445,1.805 -2.584,0.986 -4.627,2.428 -6.068,4.285 -2.584,3.314 -4.184,7.014 -4.738,10.988 -0.293,2.258 -0.004,4.549 0.85,6.795 1.025,2.684 2.645,4.699 4.805,5.996 1.621,1.023 3.301,1.514 5.156,1.514 0.928,0 1.91,-0.131 2.916,-0.385 l 1.74,-0.676 c 1.236,-0.268 2.229,-1.211 3.137,-2.863 0.973,-1.74 1.387,-3.316 1.225,-4.67 -0.41,-2.967 -1.809,-4.826 -4.273,-5.67 -0.262,-0.086 -0.566,-0.133 -0.896,-0.133 -0.625,0 -1.361,0.158 -2.188,0.475 -1.205,0.463 -2.213,1.217 -3.076,2.318 -0.775,0.984 -1.068,1.91 -0.906,2.82 l 0.492,1.223 c 0.205,0.541 0.605,1.068 1.199,1.566 0.434,0.355 0.848,0.543 1.219,0.543 0.062,0 0.123,-0.006 0.189,-0.016 -0.82,-0.535 -1.404,-1.266 -1.752,-2.172 -0.348,-0.914 -0.391,-1.742 -0.123,-2.457 0.195,-0.527 0.67,-1.25 1.795,-1.68 l 1.969,-0.754 0.33,0.049 c 2.381,0.361 3.391,1.77 3.816,2.891 0.553,1.447 0.717,3.711 -1.65,6.283 l -0.254,0.281 -0.371,0.088 c -1.08,0.26 -2.09,0.396 -2.996,0.396 -1.398,0 -2.617,-0.311 -3.623,-0.918 -1.615,-0.975 -2.744,-2.277 -3.354,-3.873 -0.285,-0.75 -0.416,-1.518 -0.383,-2.291 0.195,-2.396 1.68,-4.777 4.42,-7.131 l 0.162,-0.141 2.318,-0.887 c 0.781,-0.232 1.479,-0.33 2.168,-0.33 1.494,0 2.998,0.473 4.463,1.395 2.066,1.299 3.525,3.027 4.324,5.135 0.287,0.748 0.479,1.508 0.574,2.264 0.164,1.734 -0.289,3.684 -1.348,5.822 -1.07,2.158 -2.281,3.664 -3.703,4.602 -1.227,1.166 -1.744,1.467 -2.104,1.602 l -1.885,0.721 c -0.635,0.242 -1.402,0.359 -2.344,0.359 -0.965,0 -2.127,-0.129 -3.453,-0.379 -1.402,-0.293 -2.475,-0.52 -3.223,-0.676 l -0.021,0.223 c -0.158,1.613 -0.818,3.326 -1.951,5.104 -1.188,1.873 -2.475,3.057 -3.934,3.613 -0.514,0.195 -1.008,0.295 -1.465,0.295 l -0.299,-0.014 -0.557,-0.055 -0.334,-0.447 c -1.182,-1.602 0.922,-3.52 1.826,-4.338 1.898,-1.693 1.713,-2.949 1.402,-3.748 -0.152,-0.416 -0.561,-1.166 -1.596,-2.383 l -2.162,-2.641 c -0.777,-1.162 -0.719,-2.342 0.092,-3.336 0.287,-0.346 0.576,-0.678 0.867,-1.01 -0.131,-0.307 -0.27,-0.676 -0.438,-1.102 -0.477,-0.768 -0.768,-2.035 -0.762,-3.572 0.006,-0.551 0.059,-1.34 0.156,-2.375 -0.908,2.1 -1.584,3.535 -2.031,4.348 -0.039,0.473 -0.143,1.066 -0.307,1.805 -0.539,1.395 -1.223,3.064 -2.115,5.195 -0.088,0.199 -0.205,0.453 -3.568,5.234 -0.113,0.146 -0.41,0.592 -1.078,2.25 -0.625,1.402 -1.557,1.875 -2.23,2.031 -0.051,0.014 -0.631,0.209 -2.461,1.934 -1.979,1.869 -2.566,2.324 -2.861,2.504 -0.719,0.398 -2.164,1.285 -5.273,3.4 l -1.807,0.85 -1.523,0.584 c -0.154,0.143 -0.328,0.271 -0.498,0.396 l -0.137,0.104 -1.592,0.607 c -0.857,0.561 -0.992,0.639 -1.17,0.699 -0.951,0.457 -2.596,0.908 -4.932,1.348 -1.148,0.164 -2.652,0.27 -4.664,0.328 -0.241,0.019 -0.55,0.027 -0.897,0.027 z" />
	<path
   style="fill:#2e2628"
   inkscape:connector-curvature="0"
   id="path175"
   d="m 468.076,531.344 c 2.066,0 3.701,0.594 4.898,1.783 -0.324,0.461 -0.699,0.688 -1.113,0.688 -0.006,0 -0.016,0 -0.02,0 -0.893,-0.336 -2.164,-0.66 -3.803,-0.967 -4.201,0.332 -7.52,0.963 -9.965,1.895 -2.812,1.074 -5.016,2.637 -6.607,4.688 -2.736,3.502 -4.402,7.369 -4.99,11.582 -0.322,2.5 -0.01,4.967 0.924,7.412 1.129,2.961 2.91,5.172 5.326,6.621 1.793,1.133 3.725,1.695 5.799,1.695 1.035,0 2.111,-0.143 3.219,-0.422 l 1.883,-0.723 c 1.422,-0.287 2.682,-1.426 3.787,-3.422 1.111,-1.992 1.562,-3.799 1.373,-5.426 -0.479,-3.465 -2.178,-5.703 -5.107,-6.703 -0.4,-0.133 -0.836,-0.199 -1.305,-0.199 -0.779,0 -1.66,0.188 -2.637,0.561 -1.404,0.537 -2.607,1.439 -3.607,2.709 -1,1.277 -1.387,2.547 -1.158,3.82 l 0.555,1.445 c 0.281,0.742 0.803,1.434 1.557,2.074 0.688,0.557 1.363,0.836 2.029,0.836 0.299,0 0.602,-0.057 0.898,-0.172 l 1.891,-0.723 c 0.961,-0.363 1.293,-0.83 0.988,-1.396 -0.463,0.326 -0.938,0.49 -1.408,0.49 -0.35,0 -0.693,-0.086 -1.041,-0.258 -0.834,-0.4 -1.41,-1.006 -1.721,-1.824 -0.48,-1.254 -0.164,-2.102 0.941,-2.527 l 1.672,-0.635 c 1.439,0.215 2.383,0.914 2.838,2.1 0.625,1.631 0.154,3.297 -1.404,4.99 -0.988,0.242 -1.889,0.365 -2.703,0.365 -1.172,0 -2.164,-0.252 -2.977,-0.738 -1.379,-0.83 -2.322,-1.916 -2.836,-3.25 -0.223,-0.594 -0.326,-1.186 -0.299,-1.797 0.162,-2.012 1.494,-4.092 3.984,-6.23 l 2.113,-0.803 c 0.576,-0.166 1.148,-0.252 1.725,-0.252 1.26,0 2.529,0.4 3.793,1.201 1.846,1.158 3.121,2.67 3.828,4.521 0.254,0.668 0.42,1.324 0.498,1.973 0.143,1.475 -0.273,3.18 -1.23,5.113 -0.957,1.938 -2.045,3.305 -3.268,4.113 -0.938,0.875 -1.557,1.363 -1.854,1.475 l -1.896,0.723 c -0.482,0.186 -1.111,0.275 -1.895,0.275 -0.885,0 -1.959,-0.119 -3.223,-0.355 -2.863,-0.605 -4.381,-0.918 -4.559,-0.938 l -0.156,1.592 c -0.143,1.406 -0.729,2.93 -1.764,4.555 -1.029,1.627 -2.135,2.662 -3.33,3.115 -0.363,0.141 -0.707,0.213 -1.012,0.213 -0.064,0 -0.125,-0.002 -0.182,-0.008 -0.344,-0.471 0.209,-1.352 1.66,-2.67 1.834,-1.633 2.412,-3.346 1.73,-5.117 -0.279,-0.748 -0.883,-1.66 -1.811,-2.75 -1.27,-1.553 -1.988,-2.424 -2.145,-2.617 -0.402,-0.609 -0.367,-1.193 0.088,-1.758 0.467,-0.557 0.934,-1.094 1.406,-1.613 0.006,0 0.01,-0.004 0.01,-0.01 0,0.002 -0.004,0.006 -0.01,0.01 v 0 c -0.072,0 -0.334,-0.578 -0.779,-1.74 -0.453,-0.764 -0.68,-1.799 -0.676,-3.115 0.01,-1.318 0.328,-4.264 0.957,-8.834 -0.766,0.887 -1.67,2.51 -2.729,4.863 -1.256,2.939 -2.123,4.795 -2.584,5.572 -0.01,0.424 -0.107,1.059 -0.297,1.895 -0.477,1.201 -1.158,2.863 -2.047,4.984 -0.09,0.201 -1.238,1.871 -3.438,5 -0.285,0.367 -0.691,1.201 -1.213,2.5 -0.318,0.719 -0.773,1.148 -1.354,1.285 -0.586,0.139 -1.598,0.887 -3.035,2.238 -1.432,1.357 -2.322,2.141 -2.662,2.359 -0.982,0.541 -2.754,1.684 -5.318,3.424 l -1.625,0.75 -1.777,0.676 c 0.02,-0.004 0.037,-0.01 0.047,-0.01 0.055,0 -0.113,0.148 -0.514,0.445 l -1.564,0.598 c -0.609,0.406 -0.953,0.621 -1.025,0.648 -0.938,0.441 -2.51,0.877 -4.732,1.297 -1.047,0.146 -2.535,0.244 -4.467,0.303 -0.256,0.014 -0.545,0.02 -0.867,0.02 -0.639,0 -1.418,-0.023 -2.338,-0.068 -5.133,-0.326 -9.229,-1.479 -12.275,-3.457 -4.727,-3.037 -7.852,-6.553 -9.381,-10.551 -0.195,-0.518 -0.346,-1.012 -0.439,-1.488 -0.338,-1.996 -0.502,-3.055 -0.512,-3.176 -0.006,-0.127 0.121,-0.961 0.383,-2.504 0.41,-2.705 1.205,-4.746 2.377,-6.129 0.846,-0.912 2.695,-2.09 5.551,-3.52 0.602,-0.23 1.227,-0.348 1.875,-0.348 0.844,0 1.719,0.203 2.621,0.605 1.588,0.707 2.654,1.768 3.191,3.174 0.652,1.707 0.426,3.447 -0.682,5.221 -0.541,0.805 -1.26,1.379 -2.143,1.715 -0.688,0.262 -1.338,0.396 -1.945,0.396 -1.23,0 -2.309,-0.535 -3.223,-1.604 -0.318,-0.387 -0.396,-1.035 -0.238,-1.949 0.162,-0.906 0.518,-1.637 1.072,-2.191 0.24,-0.26 0.471,-0.436 0.691,-0.523 0.434,-0.164 0.834,-0.248 1.201,-0.248 0.998,0 1.74,0.627 2.221,1.875 0.367,0.961 0.039,1.895 -0.977,2.787 l -0.205,0.459 c 0.24,0.057 0.473,0.084 0.691,0.084 0.289,0 0.559,-0.051 0.811,-0.143 1.035,-0.4 1.635,-1.328 1.803,-2.793 0.16,-1.459 -0.062,-2.666 -0.682,-3.617 -1.297,-1.354 -2.656,-2.029 -4.104,-2.029 -0.609,0 -1.238,0.121 -1.881,0.367 -1.408,0.535 -2.76,1.557 -4.045,3.072 l 0.043,0.107 c 0.104,0.049 0.172,0.107 0.195,0.18 -2.201,0.676 -2.965,3.125 -2.279,7.367 0.02,0.434 0.02,0.654 0,0.654 -0.006,0 -0.006,-0.006 -0.01,-0.014 l 1.143,2.996 c 0.547,2.086 2.441,3.996 5.689,5.723 2.141,1.141 4.039,1.711 5.689,1.711 0.85,0 1.641,-0.152 2.357,-0.455 0.678,-0.006 1.588,-0.186 2.73,-0.537 0.586,-0.332 1.211,-0.498 1.875,-0.498 1.391,0 2.953,0.732 4.691,2.193 2.051,1.732 3.736,2.598 5.045,2.598 0.326,0 0.631,-0.055 0.908,-0.162 0.523,-0.193 0.996,-0.5 1.43,-0.928 0.602,-0.648 0.832,-1.162 0.688,-1.531 -0.051,-0.576 -0.379,-1.104 -0.988,-1.598 -0.416,-0.332 -0.832,-0.496 -1.236,-0.496 -0.189,0 -0.381,0.033 -0.572,0.107 -0.568,0.254 -1.127,0.381 -1.686,0.381 -0.65,0 -1.295,-0.176 -1.932,-0.531 -1.184,-0.648 -1.988,-1.529 -2.406,-2.641 -0.312,-0.816 -0.35,-1.566 -0.098,-2.262 0.086,-0.27 0.215,-0.412 0.377,-0.412 0.125,0 0.27,0.076 0.438,0.232 1.434,1.318 2.936,2 4.473,2.047 0.08,0 0.164,0.002 0.248,0.002 1.445,0 2.695,-0.406 3.75,-1.207 3.215,-2.928 5.094,-4.447 5.637,-4.574 0.18,-0.055 0.371,-0.078 0.58,-0.078 1.049,0 2.506,0.668 4.357,2.012 0.723,0.527 1.617,0.791 2.686,0.791 0.855,0 1.824,-0.166 2.9,-0.504 2.203,-0.676 4.307,-3.168 6.301,-7.5 1.09,-2.705 2.992,-6.826 5.721,-12.363 0.279,-1.045 0.77,-2.334 1.451,-3.871 1.098,-1.348 2.535,-3.258 4.309,-5.713 -1.645,0.791 -3.223,1.781 -4.729,2.951 -3.713,2.945 -7.314,4.953 -10.809,6.035 -0.549,0.154 -1.152,0.234 -1.818,0.234 -1.471,0 -3.232,-0.387 -5.281,-1.152 -2.971,-1.113 -4.781,-2.527 -5.438,-4.223 -0.195,-0.523 -0.262,-1.047 -0.209,-1.578 0.051,-0.113 0.123,-0.166 0.219,-0.166 0.172,0 0.416,0.166 0.736,0.502 0.494,0.533 1.049,1.088 1.646,1.66 0.605,0.582 1.348,0.91 2.229,0.996 0.299,0.039 0.59,0.059 0.879,0.059 1.582,0 2.922,-0.645 4.012,-1.926 1.816,-2.139 3.312,-3.217 4.492,-3.242 0.045,-0.002 0.088,-0.002 0.127,-0.002 1.363,0 2.24,0.537 2.652,1.613 0.596,1.559 0.17,2.994 -1.279,4.314 0.127,0.117 0.297,0.225 0.502,0.316 1.852,-0.707 4.674,-2.484 8.463,-5.334 3.791,-2.852 6.721,-4.666 8.797,-5.459 l 2.994,-1.143 c 0.293,-0.111 0.631,-0.238 0.996,-0.385 0.406,-0.066 0.748,-0.154 1.045,-0.266 l 2.223,-0.852 c 3.352,-0.703 5.365,-1.051 6.029,-1.051 0.02,0 0.041,0 0.055,0.002 0.305,-0.024 0.59,-0.034 0.867,-0.034 m 0,-2.5 c -0.303,0 -0.609,0.01 -0.934,0.033 -0.629,0.004 -1.918,0.141 -6.52,1.105 l -0.195,0.043 -0.186,0.068 -2.217,0.848 c -0.135,0.053 -0.34,0.1 -0.586,0.146 l -0.25,0.043 -0.236,0.094 -0.971,0.375 -3,1.139 c -2.312,0.883 -5.387,2.777 -9.408,5.795 -1.406,1.059 -2.598,1.906 -3.604,2.582 -0.066,-0.289 -0.154,-0.547 -0.244,-0.773 -0.779,-2.045 -2.598,-3.219 -4.986,-3.219 l -0.184,0.002 c -1.967,0.045 -3.984,1.354 -6.336,4.119 -0.615,0.725 -1.268,1.047 -2.107,1.047 -0.174,0 -0.352,-0.012 -0.537,-0.039 -0.504,-0.051 -0.695,-0.193 -0.836,-0.324 -0.572,-0.547 -1.094,-1.064 -1.562,-1.566 -0.521,-0.553 -1.352,-1.293 -2.551,-1.293 -1.09,0 -2.045,0.633 -2.5,1.645 l -0.166,0.367 -0.043,0.402 c -0.094,0.922 0.029,1.836 0.363,2.719 0.928,2.428 3.184,4.281 6.895,5.672 2.35,0.887 4.365,1.314 6.16,1.314 0.891,0 1.736,-0.111 2.504,-0.332 2.264,-0.697 4.559,-1.748 6.875,-3.135 -0.045,0.146 -0.088,0.291 -0.135,0.439 -2.678,5.455 -4.598,9.602 -5.689,12.326 -2.229,4.822 -4.039,5.836 -4.715,6.043 -0.84,0.262 -1.568,0.391 -2.166,0.391 -0.527,0 -0.922,-0.098 -1.205,-0.305 -2.363,-1.709 -4.215,-2.498 -5.84,-2.498 -0.426,0 -0.83,0.051 -1.217,0.158 -0.834,0.211 -1.898,0.793 -6.592,5.059 -0.6,0.434 -1.307,0.643 -2.158,0.643 l -0.164,-0.002 c -0.941,-0.029 -1.879,-0.48 -2.863,-1.387 -0.797,-0.738 -1.602,-0.891 -2.129,-0.891 -1,0 -2.256,0.566 -2.764,2.15 -0.352,0.986 -0.377,2.123 -0.061,3.273 -0.471,-0.096 -0.938,-0.145 -1.398,-0.145 -0.994,0 -1.945,0.23 -2.838,0.678 -1.074,0.314 -1.602,0.355 -1.781,0.357 l -0.498,0.002 -0.459,0.193 c -0.416,0.174 -0.873,0.26 -1.389,0.26 -1.229,0 -2.75,-0.475 -4.512,-1.414 -2.557,-1.359 -4.098,-2.793 -4.449,-4.145 l -0.035,-0.133 -0.047,-0.129 -0.965,-2.516 c 0,-0.121 -0.01,-0.238 -0.016,-0.355 l -0.004,-0.145 -0.025,-0.137 c -0.316,-1.977 -0.352,-4.184 0.477,-4.551 -0.229,1.547 0.041,2.803 0.807,3.73 1.42,1.66 3.188,2.516 5.152,2.516 0.91,0 1.871,-0.188 2.842,-0.561 1.373,-0.527 2.496,-1.418 3.326,-2.648 1.562,-2.51 1.869,-5.078 0.941,-7.514 -0.777,-2.043 -2.295,-3.578 -4.502,-4.564 -1.23,-0.547 -2.455,-0.822 -3.646,-0.822 -0.947,0 -1.875,0.172 -2.764,0.512 l -0.123,0.045 -0.11,0.059 c -3.199,1.604 -5.186,2.891 -6.26,4.057 -1.562,1.842 -2.525,4.254 -3.014,7.447 -0.43,2.523 -0.424,2.697 -0.41,2.98 0.01,0.217 0.02,0.389 0.543,3.488 0.139,0.684 0.316,1.305 0.572,1.965 1.715,4.488 5.201,8.445 10.363,11.764 3.387,2.197 7.924,3.49 13.465,3.85 1.008,0.049 1.828,0.074 2.5,0.074 0.367,0 0.695,-0.008 0.984,-0.023 2.018,-0.061 3.564,-0.168 4.697,-0.326 2.51,-0.471 4.234,-0.949 5.381,-1.477 0.254,-0.105 0.508,-0.26 1.178,-0.701 l 1.301,-0.498 0.33,-0.127 0.275,-0.207 c 0.107,-0.078 0.242,-0.18 0.385,-0.303 l 1.256,-0.475 0.078,-0.031 0.072,-0.037 1.625,-0.746 0.189,-0.088 0.172,-0.117 c 3.072,-2.094 4.482,-2.957 5.127,-3.312 0.484,-0.299 1.123,-0.785 3.168,-2.727 1.301,-1.219 1.861,-1.566 2.016,-1.648 0.924,-0.248 2.154,-0.916 2.938,-2.664 0.641,-1.59 0.887,-1.965 0.918,-2.008 3.49,-4.955 3.598,-5.203 3.729,-5.484 0.924,-2.203 1.609,-3.883 2.092,-5.092 l 0.072,-0.18 0.045,-0.195 c 0.066,-0.314 0.133,-0.605 0.18,-0.875 0.125,0.361 0.273,0.701 0.445,1.018 0.031,0.078 0.062,0.156 0.094,0.24 -0.129,0.146 -0.252,0.295 -0.375,0.441 -1.184,1.445 -1.27,3.209 -0.258,4.742 l 0.068,0.1 0.074,0.094 0.869,1.057 1.283,1.572 c 0.996,1.168 1.309,1.785 1.412,2.047 0.131,0.348 0.4,1.059 -1.064,2.361 -0.971,0.885 -3.857,3.514 -2.01,6.023 l 0.666,0.893 1.107,0.111 c 0.139,0.012 0.277,0.02 0.422,0.02 0.607,0 1.254,-0.133 1.914,-0.379 1.693,-0.65 3.223,-2.029 4.545,-4.111 0.977,-1.535 1.629,-3.049 1.951,-4.504 0.518,0.107 1.148,0.242 1.895,0.4 1.482,0.277 2.686,0.41 3.74,0.41 1.1,0 2.014,-0.145 2.787,-0.443 l 1.895,-0.723 c 0.533,-0.201 1.152,-0.588 2.527,-1.848 1.527,-1.064 2.818,-2.689 3.943,-4.961 1.184,-2.385 1.666,-4.5 1.482,-6.457 -0.113,-0.928 -0.336,-1.789 -0.656,-2.635 -0.896,-2.361 -2.525,-4.297 -4.83,-5.746 -1.666,-1.051 -3.393,-1.582 -5.127,-1.582 -0.805,0 -1.621,0.117 -2.418,0.346 l -0.098,0.031 -0.098,0.037 -2.115,0.809 -0.41,0.154 -0.328,0.283 c -2.994,2.572 -4.629,5.236 -4.846,7.92 -0.047,1.049 0.113,1.986 0.459,2.895 0.713,1.861 2.018,3.375 3.877,4.496 1.072,0.645 2.322,1.008 3.73,1.08 -0.342,0.037 -0.674,0.055 -0.998,0.055 -1.615,0 -3.074,-0.428 -4.463,-1.309 -1.992,-1.191 -3.395,-2.949 -4.332,-5.4 -0.789,-2.074 -1.045,-4.107 -0.775,-6.199 0.521,-3.729 2.029,-7.227 4.482,-10.363 1.301,-1.68 3.164,-2.984 5.527,-3.891 2.141,-0.816 5.15,-1.393 8.936,-1.711 1.348,0.262 2.369,0.527 3.051,0.785 l 0.41,0.156 0.439,0.004 v 0 c 0.779,0 2.145,-0.227 3.213,-1.748 l 1.227,-1.729 -1.506,-1.488 c -1.673,-1.641 -3.91,-2.486 -6.654,-2.486 z" />
</g><g
     id="g190">
	
		<linearGradient
   gradientTransform="matrix(1,0,0,-1,0,794)"
   y2="468.77341"
   x2="422.68259"
   y1="468.77341"
   x1="307.12009"
   gradientUnits="userSpaceOnUse"
   id="SVGID_18_">
		<stop
   id="stop179"
   style="stop-color:#CCC7C0"
   offset="0.0038" />
		<stop
   id="stop181"
   style="stop-color:#221C1D"
   offset="0.5189" />
		<stop
   id="stop183"
   style="stop-color:#A19C98"
   offset="1" />
	</linearGradient>
	<path
   style="fill:url(#SVGID_18_)"
   inkscape:connector-curvature="0"
   id="path186"
   d="m 307.544,367.072 c 5.898,-8.705 5.984,-19.623 0.215,-27.811 l -0.639,-0.908 1.02,0.443 c 4.746,2.064 8.715,3.111 11.809,3.111 2.254,0 4.102,-0.559 5.5,-1.65 -0.105,0 -0.219,0 -0.332,0 -7.832,0 -12.152,-3.311 -14.398,-6.092 -2.734,-3.381 -3.336,-6.932 -3.336,-8.018 0,-12.314 4.973,-19.25 14.771,-20.627 -1.092,-1.256 -3.086,-1.965 -5.58,-1.965 -2.633,0 -5.621,0.805 -8.414,2.271 l -0.398,-0.455 c 3.658,-5.195 5.301,-11.242 4.297,-15.777 -0.6,-2.686 -2.08,-4.727 -4.404,-6.057 l 0.221,-0.574 c 3.719,0.82 6.223,2.76 7.238,5.613 1.377,3.852 -0.023,8.977 -3.838,14.205 1.748,-0.73 4.283,-1.342 6.982,-1.342 4.434,0 7.541,1.641 8.754,4.627 l 0.156,0.385 -0.418,0.041 c -12.973,1.197 -15.689,10.838 -15.689,18.711 0,6.125 7.449,13.52 16.691,13.521 v 0 c 0.486,0 0.977,-0.021 1.465,-0.064 l 0.654,-0.053 -0.365,0.545 c -2.357,3.479 -5.496,5.242 -9.322,5.242 -2.695,0 -5.684,-0.877 -8.887,-2.604 7.068,9.689 6.008,17.883 -3.285,25.695 z m 29.674,-14.308 c -8.32,0 -15.559,-2.35 -20.369,-6.621 l 0.393,-0.48 c 3.547,2.652 9.746,4.176 17.02,4.176 16.049,0 32.299,-6.982 32.299,-20.322 0,-2.107 -0.316,-4.029 -0.971,-5.867 -8.506,7.799 -19.191,15.666 -34.023,15.666 -0.494,0 -0.988,-0.01 -1.49,-0.023 l 0.01,-0.625 c 15.02,0 25.982,-8.562 34.723,-16.992 -0.406,-0.797 -0.83,-1.492 -1.334,-2.191 -9.047,9.012 -19.424,17.281 -33.807,17.281 -10.014,0 -15.764,-4.787 -15.764,-13.135 0,-7.955 5.621,-16.182 15.033,-16.182 3.391,0 6.822,1.592 9.453,4.375 2.867,-0.801 6.068,-1.221 9.25,-1.221 3.699,0 7.414,0.918 10.764,2.656 10.695,-11.275 23.979,-25.195 38.662,-25.195 0.488,0 0.977,0.014 1.465,0.047 l -0.02,0.623 c -13.701,0 -26.469,13.012 -37.736,24.494 l -0.865,0.883 c 0.957,0.586 1.689,1.102 2.32,1.629 1.211,-1.26 2.418,-2.533 3.623,-3.807 10.283,-10.887 20.912,-22.139 36.127,-22.139 12.203,0 20.703,11.24 20.703,21.328 0,5.367 -4.738,17.137 -18.812,17.137 -4.707,0 -8.807,-2.137 -11.256,-5.859 -2.064,-3.137 -2.627,-6.947 -1.43,-9.717 l 0.596,0.158 c -0.348,3.014 0.805,6.414 3.008,8.887 1.586,1.783 4.453,3.904 9.082,3.904 11.25,0 17.238,-8.426 17.238,-14.512 0,-8.141 -8.533,-17.971 -19.129,-17.971 -13.49,0 -22.875,9.881 -32.812,20.344 -1.484,1.564 -2.979,3.137 -4.496,4.686 0.625,0.732 1.121,1.414 1.535,2.109 2,-1.992 3.941,-4.02 5.857,-6.021 9.465,-9.883 18.404,-19.219 29.916,-19.219 4.938,0 9.713,2.158 13.102,5.924 2.805,3.119 4.271,6.967 3.918,10.289 l -0.625,-0.033 c 0,-4.908 -7.09,-14.717 -16.396,-14.717 -9.74,0 -17.783,8.271 -27.09,17.852 -2.486,2.559 -5.059,5.205 -7.746,7.764 1.076,2.326 1.615,4.811 1.615,7.389 0,15.102 -16.25,23.25 -31.537,23.25 0,-0.002 0,-0.002 -0.004,-0.002 z m -8.287,-43.953 c -7.514,0 -11.568,7.633 -11.568,14.818 0,7.287 4.021,10.83 12.301,10.83 13.48,0 23.279,-8.961 31.404,-17.443 -0.732,-0.686 -1.553,-1.23 -2.346,-1.719 -8.695,8.801 -15.895,15.6 -22.701,16.732 l -0.107,-0.615 c 6.301,-1.24 13.584,-8.832 21.293,-16.943 -2.895,-1.371 -6.27,-2.094 -9.779,-2.094 -2.783,0 -5.439,0.42 -7.709,1.211 1.586,2.355 2.449,5.121 2.449,7.832 0,5.695 -4.281,10.508 -9.35,10.508 -4.221,0 -6.83,-3.711 -6.83,-7.145 0,-5.566 3.795,-9.965 10.697,-12.436 -2.139,-2.285 -4.877,-3.536 -7.754,-3.536 z m 9.127,5.326 c -5.543,2.291 -8.709,6.16 -8.709,10.65 0,2.957 1.557,5.363 3.471,5.363 3.838,0 7.467,-4.238 7.467,-8.727 -0.003,-2.472 -0.796,-5.05 -2.229,-7.286 z" />
	<path
   style="fill:#a19c98"
   inkscape:connector-curvature="0"
   id="path188"
   d="m 307.804,283.271 c 9.564,2.102 9.564,11.348 2.416,20.385 1.725,-1.031 4.893,-1.904 8.037,-1.904 3.582,0 7.121,1.127 8.461,4.428 -12.504,1.152 -15.971,10.195 -15.971,19.021 0,6.586 7.764,13.832 17.002,13.832 0.492,0 0.992,-0.021 1.496,-0.062 -2.617,3.857 -5.893,5.107 -9.062,5.107 -4.086,0 -7.992,-2.078 -10.062,-3.322 7.143,9.039 8.193,17.658 -2.314,26.488 6.619,-9.775 5.463,-20.703 0.209,-28.164 4.223,1.832 8.408,3.135 11.932,3.135 2.537,0 4.734,-0.676 6.354,-2.299 -0.398,0.016 -0.795,0.023 -1.184,0.023 -14.525,0 -17.422,-11.332 -17.422,-13.797 0,-15.34 7.883,-19.543 15.031,-20.383 -1.051,-1.613 -3.312,-2.521 -6.152,-2.521 -2.535,0 -5.539,0.723 -8.561,2.312 5.253,-7.462 7.141,-18.073 -0.21,-22.279 m 89.258,5.104 c 0.475,0 0.961,0.014 1.445,0.045 -14.295,0 -27.328,13.77 -39.1,25.75 1.049,0.631 1.998,1.264 2.838,2 11.773,-12.191 22.809,-26.066 39.732,-26.066 12.193,0 20.391,11.348 20.391,21.016 0,5.051 -4.422,16.824 -18.502,16.824 -10.195,0 -14.711,-9.781 -12.402,-15.141 -0.629,5.467 3.574,13.141 12.402,13.141 11.035,0 17.555,-8.201 17.555,-14.824 0,-8.301 -8.516,-18.283 -19.443,-18.283 -15.768,0 -26.068,13.457 -37.734,25.326 0.736,0.846 1.367,1.686 1.895,2.633 12.084,-11.982 22.07,-25.436 35.84,-25.436 10.088,0 17.447,8.932 16.709,15.869 0,-4.834 -6.932,-15.029 -16.709,-15.029 -12.611,0 -22.598,13.877 -35.209,25.855 1.049,2.211 1.68,4.732 1.68,7.461 0,14.77 -16.074,22.939 -31.227,22.939 -7.705,0 -15.168,-2.113 -20.168,-6.543 3.73,2.789 10.168,4.238 17.207,4.238 14.961,0 32.611,-6.547 32.611,-20.635 0,-2.418 -0.42,-4.52 -1.156,-6.412 -9.244,8.541 -19.873,15.898 -34.15,15.898 -0.488,0 -0.982,-0.01 -1.48,-0.023 14.82,0 25.65,-8.096 35.107,-17.238 -0.527,-1.055 -1.055,-1.895 -1.684,-2.734 -9.248,9.246 -19.443,17.445 -33.844,17.445 -8.408,0 -15.449,-3.467 -15.449,-12.822 0,-7.879 5.674,-15.869 14.717,-15.869 3.574,0 6.932,1.787 9.352,4.414 2.943,-0.84 6.199,-1.26 9.352,-1.26 3.686,0 7.467,0.943 10.826,2.729 11.287,-11.897 24.25,-25.268 38.598,-25.268 m -67.399,46.396 c 13.141,0 22.809,-8.305 31.844,-17.762 -0.84,-0.84 -1.783,-1.469 -2.838,-2.105 -8.195,8.305 -15.766,15.666 -22.699,16.822 6.41,-1.264 13.662,-8.832 21.752,-17.346 -3.148,-1.578 -6.721,-2.314 -10.297,-2.314 -2.838,0 -5.676,0.424 -8.195,1.367 1.576,2.209 2.625,5.047 2.625,7.988 0,5.463 -4.104,10.195 -9.037,10.195 -3.994,0 -6.518,-3.467 -6.518,-6.83 0,-6.199 4.732,-10.195 10.932,-12.297 -2.104,-2.416 -5.045,-3.992 -8.299,-3.992 -7.676,0 -11.879,7.773 -11.879,15.131 -0.004,8.308 5.148,11.143 12.609,11.143 m 3.154,-4.312 c 3.994,0 7.779,-4.312 7.779,-9.037 0,-2.734 -0.949,-5.463 -2.422,-7.67 -5.252,2.102 -9.141,5.885 -9.141,11.035 10e-4,2.943 1.577,5.672 3.784,5.672 m -24.877,-47.797 -0.445,1.152 c 2.238,1.285 3.676,3.252 4.254,5.852 0.988,4.451 -0.637,10.398 -4.244,15.525 l 0.801,0.912 c 2.748,-1.439 5.682,-2.234 8.268,-2.234 2.104,0 3.832,0.512 4.922,1.438 -9.441,1.604 -14.426,8.785 -14.426,20.84 0,2.816 3.111,14.057 17.357,14.414 -1.225,0.684 -2.725,1.031 -4.482,1.031 -3.047,0 -6.979,-1.039 -11.686,-3.086 l -2.038,-0.883 1.284,1.82 c 5.689,8.08 5.605,18.859 -0.221,27.457 l 0.924,0.828 c 9.113,-7.662 10.443,-15.684 4.068,-25.084 2.826,1.373 5.475,2.064 7.904,2.064 3.934,0 7.156,-1.812 9.58,-5.383 l 0.316,-0.469 -0.014,0.746 c 0.5,0.014 0.998,0.023 1.498,0.023 14.732,0 25.391,-7.689 33.883,-15.424 0.537,1.67 0.801,3.416 0.801,5.312 0,9.943 -10.988,20.01 -31.988,20.01 -7.201,0 -13.334,-1.502 -16.83,-4.113 l -0.789,0.969 c 4.871,4.32 12.184,6.699 20.584,6.699 7.926,0 15.811,-2.199 21.641,-6.035 6.68,-4.393 10.211,-10.455 10.211,-17.529 0,-2.553 -0.523,-5.006 -1.555,-7.318 2.633,-2.514 5.154,-5.105 7.594,-7.619 9.258,-9.529 17.256,-17.756 26.865,-17.756 9.131,0 16.084,9.6 16.084,14.404 l 1.25,0.068 c 0.363,-3.414 -1.133,-7.352 -4,-10.535 -3.445,-3.83 -8.305,-6.027 -13.334,-6.027 -11.641,0 -20.631,9.383 -30.143,19.316 -1.809,1.887 -3.674,3.832 -5.572,5.734 -0.338,-0.523 -0.723,-1.047 -1.172,-1.594 1.445,-1.482 2.873,-2.988 4.301,-4.484 9.889,-10.414 19.225,-20.246 32.584,-20.246 8.525,0 18.818,7.877 18.818,17.658 0,5.951 -5.887,14.199 -16.93,14.199 -4.516,0 -7.305,-2.066 -8.848,-3.803 -2.146,-2.404 -3.266,-5.717 -2.93,-8.641 l -1.197,-0.32 c -1.234,2.861 -0.664,6.789 1.453,10.012 2.514,3.811 6.707,5.998 11.52,5.998 14.312,0 19.125,-11.979 19.125,-17.447 0,-10.234 -8.633,-21.641 -21.016,-21.641 -15.352,0 -26.029,11.303 -36.355,22.238 -1.139,1.201 -2.277,2.406 -3.418,3.596 -0.514,-0.41 -1.094,-0.82 -1.797,-1.264 l 0.588,-0.605 c 11.221,-11.434 23.939,-24.4 37.512,-24.4 l 0.039,-1.248 c -0.494,-0.031 -0.99,-0.047 -1.484,-0.047 -14.74,0 -28.018,13.836 -38.725,25.123 -3.346,-1.691 -7.031,-2.584 -10.699,-2.584 -3.145,0 -6.301,0.408 -9.156,1.184 -2.662,-2.76 -6.125,-4.334 -9.547,-4.334 -7.547,0 -15.344,6.166 -15.344,16.494 0,8.545 5.861,13.447 16.076,13.447 14.359,0 24.73,-8.154 33.764,-17.111 0.361,0.523 0.682,1.059 0.994,1.645 -8.605,8.27 -19.365,16.611 -33.998,16.736 l 0.066,-0.107 -1.303,0.109 c -0.482,0.047 -0.963,0.062 -1.439,0.062 -9.074,0 -16.379,-7.227 -16.379,-13.207 0,-7.746 2.672,-17.227 15.406,-18.4 l 0.84,-0.078 -0.316,-0.781 c -1.266,-3.104 -4.479,-4.818 -9.043,-4.818 -2.066,0 -4.297,0.379 -6.139,1.002 3.428,-5.027 4.627,-9.916 3.291,-13.658 -1.053,-2.952 -3.635,-4.964 -7.464,-5.804 z m 21.723,51.484 c -8.068,0 -11.988,-3.439 -11.988,-10.518 0,-7.031 3.945,-14.506 11.256,-14.506 2.643,0 5.164,1.094 7.197,3.1 -6.754,2.545 -10.453,6.98 -10.453,12.561 0,3.586 2.734,7.457 7.141,7.457 1.09,0 2.143,-0.215 3.129,-0.605 l 0.127,0.703 c 6.852,-1.141 14.043,-7.891 22.695,-16.646 0.689,0.43 1.303,0.85 1.852,1.338 -8.036,8.366 -17.718,17.116 -30.956,17.116 z m 10.537,-20.39 c 2.154,-0.695 4.635,-1.064 7.227,-1.064 3.307,0 6.492,0.65 9.252,1.885 -6.648,6.992 -12.969,13.539 -18.568,15.838 2.611,-1.959 4.369,-5.295 4.369,-8.992 -0.001,-2.644 -0.805,-5.333 -2.28,-7.667 z m -7.383,16.078 c -1.713,0 -3.158,-2.311 -3.158,-5.051 0,-4.291 3.008,-8.008 8.27,-10.258 1.32,2.133 2.043,4.562 2.043,6.895 0,4.328 -3.477,8.414 -7.155,8.414 z" />
</g><g
     id="g201">
	
		<linearGradient
   gradientTransform="matrix(1,0,0,-1,0,794)"
   y2="240.1035"
   x2="238.5679"
   y1="240.1035"
   x1="142.5273"
   gradientUnits="userSpaceOnUse"
   id="SVGID_19_">
		<stop
   id="stop192"
   style="stop-color:#CCC7C0"
   offset="0.0038" />
		<stop
   id="stop194"
   style="stop-color:#554C4B"
   offset="1" />
	</linearGradient>
	<path
   style="fill:url(#SVGID_19_)"
   inkscape:connector-curvature="0"
   id="path197"
   d="m 211.455,581.877 c -1.994,-0.057 -3.496,-0.162 -4.586,-0.318 -2.391,-0.449 -4.037,-0.9 -5.086,-1.398 -0.084,-0.025 -0.215,-0.1 -1.066,-0.66 l -1.598,-0.607 -0.137,-0.105 c -0.166,-0.125 -0.342,-0.256 -0.498,-0.395 l -1.445,-0.553 -1.705,-0.781 c -3.291,-2.221 -4.738,-3.105 -5.4,-3.475 -0.346,-0.211 -0.938,-0.666 -2.914,-2.543 -1.83,-1.719 -2.408,-1.914 -2.471,-1.93 -0.664,-0.156 -1.598,-0.627 -2.203,-1.984 -0.68,-1.707 -0.98,-2.148 -1.055,-2.246 -3.402,-4.832 -3.516,-5.086 -3.594,-5.254 -0.902,-2.16 -1.594,-3.83 -2.07,-5.039 -0.215,-0.889 -0.322,-1.514 -0.365,-1.988 -0.449,-0.812 -1.115,-2.244 -2.029,-4.35 0.102,1.033 0.152,1.824 0.154,2.371 0.01,1.537 -0.275,2.807 -0.859,3.77 -0.127,0.344 -0.234,0.646 -0.342,0.904 0.285,0.328 0.574,0.666 0.859,1.004 0.82,1.002 0.883,2.184 0.176,3.248 l -2.225,2.723 c -1.045,1.232 -1.451,1.982 -1.611,2.4 -0.303,0.797 -0.492,2.053 1.402,3.736 0.906,0.828 3.012,2.748 1.83,4.35 l -0.332,0.445 -0.615,0.062 -0.242,0.006 c -0.459,0 -0.951,-0.1 -1.465,-0.295 -1.459,-0.562 -2.748,-1.74 -3.934,-3.613 -1.133,-1.777 -1.789,-3.492 -1.947,-5.102 l -0.025,-0.227 c -0.742,0.152 -1.809,0.377 -3.191,0.67 -1.359,0.262 -2.52,0.385 -3.482,0.385 -0.943,0 -1.711,-0.117 -2.342,-0.357 l -1.895,-0.723 c -0.346,-0.135 -0.869,-0.432 -2.26,-1.727 -1.26,-0.811 -2.463,-2.314 -3.535,-4.473 -1.061,-2.139 -1.518,-4.088 -1.357,-5.783 0.098,-0.791 0.287,-1.553 0.576,-2.305 0.805,-2.107 2.258,-3.834 4.328,-5.135 1.459,-0.924 2.967,-1.393 4.459,-1.393 0.688,0 1.387,0.098 2.07,0.299 l 2.416,0.918 0.166,0.143 c 2.734,2.35 4.219,4.73 4.414,7.074 0.035,0.824 -0.094,1.598 -0.379,2.344 -0.609,1.6 -1.738,2.9 -3.355,3.875 -1.004,0.605 -2.223,0.914 -3.617,0.914 -0.912,0 -1.926,-0.133 -3.002,-0.393 l -0.367,-0.088 -0.258,-0.281 c -2.369,-2.572 -2.203,-4.836 -1.65,-6.285 0.43,-1.119 1.436,-2.531 3.818,-2.889 l 0.326,-0.049 1.973,0.754 c 1.121,0.43 1.598,1.152 1.797,1.68 0.262,0.715 0.221,1.543 -0.131,2.459 -0.346,0.906 -0.928,1.633 -1.744,2.168 0.064,0.01 0.127,0.014 0.191,0.014 0.363,0 0.777,-0.182 1.234,-0.553 0.572,-0.486 0.973,-1.014 1.182,-1.553 l 0.553,-1.445 c 0.102,-0.688 -0.195,-1.613 -0.973,-2.602 -0.863,-1.096 -1.869,-1.852 -3.074,-2.312 -0.826,-0.318 -1.566,-0.477 -2.191,-0.477 -0.328,0 -0.635,0.049 -0.906,0.137 -2.455,0.84 -3.852,2.699 -4.262,5.686 -0.156,1.334 0.254,2.904 1.225,4.648 0.912,1.65 1.9,2.592 2.939,2.803 l 2.086,0.781 c 0.859,0.207 1.838,0.336 2.766,0.336 1.855,0 3.535,-0.49 5.135,-1.5 2.188,-1.312 3.801,-3.33 4.828,-6.014 0.859,-2.24 1.143,-4.531 0.85,-6.807 -0.557,-3.963 -2.145,-7.656 -4.736,-10.975 -1.445,-1.857 -3.488,-3.301 -6.066,-4.283 -2.291,-0.877 -5.469,-1.482 -9.451,-1.809 -1.506,0.289 -2.656,0.584 -3.428,0.879 l -0.199,0.078 c 0,0 -0.221,0.004 -0.225,0.004 -0.621,0 -1.461,-0.211 -2.174,-1.219 l -0.609,-0.863 0.752,-0.746 c 1.43,-1.42 3.381,-2.143 5.777,-2.143 0.309,0 0.625,0.012 0.949,0.037 0.008,0 0.02,0 0.027,0 0.475,0 1.695,0.125 6.227,1.078 l 2.406,0.898 c 0.23,0.086 0.5,0.156 0.816,0.207 l 0.127,0.025 4.096,1.566 c 2.207,0.842 5.182,2.682 9.105,5.627 2.15,1.617 3.988,2.885 5.48,3.789 -0.158,-0.957 0.016,-1.83 0.283,-2.527 0.596,-1.562 1.953,-2.42 3.818,-2.42 1.74,0.037 3.467,1.205 5.57,3.684 0.852,1.002 1.852,1.486 3.062,1.486 0.232,0 0.467,-0.016 0.703,-0.051 0.662,-0.066 1.129,-0.273 1.533,-0.662 0.586,-0.561 1.119,-1.094 1.607,-1.611 0.391,-0.42 0.932,-0.898 1.641,-0.898 0.59,0 1.113,0.35 1.361,0.906 l 0.084,0.184 0.02,0.203 c 0.072,0.727 -0.025,1.447 -0.289,2.143 -0.793,2.072 -2.809,3.693 -6.162,4.949 -2.182,0.818 -4.107,1.232 -5.723,1.232 -0.775,0 -1.504,-0.098 -2.16,-0.283 -3.213,-0.994 -6.529,-2.744 -9.883,-5.221 l 0.07,0.09 0.068,0.15 c 0.723,1.627 1.221,2.955 1.52,4.053 2.637,5.309 4.574,9.496 5.668,12.227 1.777,3.852 3.691,6.213 5.508,6.77 0.957,0.299 1.812,0.449 2.535,0.449 0.805,0 1.439,-0.178 1.941,-0.549 2.109,-1.516 3.775,-2.254 5.104,-2.254 0.332,0 0.645,0.045 0.938,0.133 0.373,0.082 1.061,0.238 6.123,4.844 0.758,0.572 1.736,0.885 2.902,0.885 1.445,-0.041 2.676,-0.617 3.879,-1.721 0.406,-0.369 0.836,-0.559 1.281,-0.559 0.273,0 1.191,0.092 1.57,1.281 0.338,0.938 0.299,1.994 -0.121,3.086 -0.527,1.389 -1.527,2.498 -2.971,3.295 -0.818,0.451 -1.676,0.68 -2.539,0.68 -0.732,0 -1.475,-0.166 -2.203,-0.496 -0.16,0.006 -0.326,0.084 -0.512,0.234 -0.322,0.26 -0.504,0.512 -0.523,0.736 l -0.01,0.09 c 0.049,0.084 0.152,0.242 0.369,0.479 0.264,0.256 0.592,0.471 0.959,0.605 0.137,0.055 0.285,0.078 0.465,0.078 0.688,0 1.982,-0.4 4.238,-2.303 1.992,-1.672 3.789,-2.486 5.502,-2.486 0.828,0 1.619,0.199 2.357,0.588 1.197,0.363 1.879,0.441 2.25,0.447 h 0.25 l 0.223,0.098 c 0.57,0.236 1.199,0.355 1.881,0.355 1.436,0 3.152,-0.525 5.098,-1.562 2.916,-1.547 4.621,-3.207 5.068,-4.934 l 1.078,-2.848 c 0,-0.158 0.012,-0.342 0.023,-0.541 0.574,-3.643 0.102,-5.65 -1.404,-6.109 l -1.264,-0.385 0.34,-0.924 c -0.965,-0.998 -1.957,-1.697 -2.963,-2.076 -0.494,-0.191 -0.977,-0.287 -1.436,-0.287 -1.094,0 -2.137,0.537 -3.193,1.643 -0.188,0.311 -0.322,0.762 -0.369,1.324 0.918,-1.805 2.324,-2.09 3.125,-2.09 0.518,0 1.074,0.113 1.65,0.332 0.41,0.158 0.789,0.438 1.168,0.844 0.693,0.689 1.172,1.652 1.377,2.824 0.234,1.301 0.068,2.266 -0.498,2.957 -1.178,1.373 -2.58,2.057 -4.189,2.057 -0.762,0 -1.568,-0.158 -2.393,-0.477 -1.133,-0.43 -2.049,-1.17 -2.734,-2.18 -1.344,-2.154 -1.615,-4.283 -0.816,-6.367 0.662,-1.721 1.953,-3.02 3.848,-3.873 1.064,-0.471 2.123,-0.709 3.141,-0.709 0.791,0 1.566,0.146 2.316,0.43 3.135,1.564 5.061,2.803 6.018,3.838 1.357,1.602 2.252,3.871 2.695,6.787 0.41,2.416 0.406,2.582 0.4,2.744 -0.01,0.119 -0.02,0.297 -0.527,3.334 -0.117,0.576 -0.283,1.139 -0.508,1.725 -1.613,4.23 -4.936,7.984 -9.867,11.156 -3.211,2.082 -7.545,3.316 -12.869,3.658 -0.961,0.043 -1.762,0.068 -2.422,0.068 -0.335,0.011 -0.643,0 -0.917,-0.008 z" />
	<path
   style="fill:#736b6b"
   inkscape:connector-curvature="0"
   id="path199"
   d="m 149.062,527.158 c 0.275,0 0.566,0.012 0.859,0.035 0.014,-0.002 0.033,-0.002 0.057,-0.002 0.66,0 2.676,0.352 6.025,1.055 l 2.225,0.85 c 0.295,0.111 0.639,0.199 1.043,0.266 0.365,0.148 0.701,0.273 0.994,0.387 l 2.998,1.141 c 2.076,0.793 5.006,2.609 8.795,5.461 3.791,2.848 6.613,4.625 8.463,5.332 0.207,-0.092 0.375,-0.199 0.502,-0.318 -1.451,-1.316 -1.875,-2.754 -1.279,-4.311 0.41,-1.078 1.297,-1.615 2.652,-1.615 0.039,0 0.082,0 0.129,0.002 1.176,0.025 2.672,1.102 4.492,3.242 1.088,1.283 2.426,1.928 4.01,1.928 0.283,0 0.576,-0.021 0.877,-0.059 0.879,-0.088 1.619,-0.416 2.227,-0.996 0.602,-0.574 1.152,-1.129 1.65,-1.66 0.318,-0.338 0.561,-0.504 0.732,-0.504 0.098,0 0.172,0.055 0.219,0.166 0.055,0.533 -0.014,1.055 -0.209,1.578 -0.654,1.699 -2.467,3.109 -5.436,4.223 -2.051,0.768 -3.809,1.152 -5.281,1.152 -0.664,0 -1.27,-0.078 -1.816,-0.236 -3.496,-1.08 -7.096,-3.088 -10.812,-6.035 -1.504,-1.166 -3.08,-2.156 -4.727,-2.949 1.773,2.455 3.209,4.365 4.309,5.713 0.684,1.539 1.172,2.828 1.449,3.871 2.73,5.539 4.633,9.66 5.723,12.363 1.992,4.33 4.098,6.824 6.299,7.5 1.082,0.338 2.045,0.504 2.9,0.504 1.07,0 1.969,-0.262 2.686,-0.791 1.861,-1.34 3.311,-2.012 4.361,-2.012 0.209,0 0.404,0.027 0.578,0.078 0.543,0.127 2.424,1.648 5.637,4.572 1.059,0.805 2.309,1.209 3.75,1.209 0.08,0 0.164,-0.002 0.25,-0.002 1.537,-0.049 3.035,-0.729 4.473,-2.047 0.162,-0.152 0.312,-0.23 0.434,-0.23 0.166,0 0.293,0.141 0.381,0.412 0.248,0.693 0.215,1.445 -0.098,2.26 -0.42,1.105 -1.225,1.992 -2.408,2.643 -0.633,0.354 -1.285,0.529 -1.934,0.529 -0.555,0 -1.117,-0.129 -1.684,-0.381 -0.191,-0.072 -0.375,-0.107 -0.568,-0.107 -0.408,0 -0.818,0.164 -1.238,0.496 -0.611,0.492 -0.938,1.02 -0.99,1.598 -0.143,0.369 0.086,0.885 0.688,1.531 0.434,0.428 0.906,0.732 1.428,0.928 0.279,0.107 0.582,0.162 0.908,0.162 1.314,0 2.994,-0.865 5.047,-2.598 1.736,-1.461 3.303,-2.193 4.697,-2.193 0.664,0 1.289,0.164 1.869,0.498 1.145,0.352 2.049,0.533 2.73,0.537 0.723,0.303 1.508,0.455 2.363,0.455 1.648,0 3.545,-0.57 5.682,-1.709 3.252,-1.729 5.148,-3.639 5.693,-5.723 l 1.143,-2.998 c 0,0.01 -0.006,0.014 -0.014,0.014 -0.02,0 -0.02,-0.219 0,-0.654 0.684,-4.242 -0.074,-6.693 -2.277,-7.367 0.025,-0.07 0.09,-0.133 0.193,-0.182 l 0.047,-0.107 c -1.289,-1.512 -2.637,-2.533 -4.049,-3.07 -0.639,-0.246 -1.264,-0.369 -1.879,-0.369 -1.441,0 -2.809,0.678 -4.102,2.031 -0.621,0.951 -0.848,2.158 -0.684,3.619 0.166,1.465 0.766,2.391 1.801,2.789 0.258,0.094 0.523,0.145 0.816,0.145 0.219,0 0.451,-0.027 0.688,-0.082 l -0.205,-0.461 c -1.016,-0.893 -1.342,-1.824 -0.979,-2.787 0.479,-1.248 1.221,-1.875 2.225,-1.875 0.363,0 0.766,0.084 1.197,0.248 0.221,0.09 0.457,0.266 0.695,0.523 0.551,0.555 0.906,1.287 1.068,2.191 0.162,0.914 0.084,1.562 -0.234,1.949 -0.912,1.07 -1.992,1.602 -3.223,1.602 -0.611,0 -1.26,-0.133 -1.947,-0.393 -0.885,-0.34 -1.602,-0.908 -2.143,-1.717 -1.107,-1.773 -1.332,-3.516 -0.684,-5.219 0.537,-1.404 1.609,-2.467 3.193,-3.176 0.902,-0.402 1.777,-0.605 2.627,-0.605 0.641,0 1.266,0.117 1.871,0.348 2.852,1.43 4.701,2.607 5.547,3.52 1.174,1.383 1.967,3.424 2.377,6.129 0.264,1.543 0.391,2.379 0.387,2.504 -0.01,0.123 -0.176,1.184 -0.514,3.178 -0.092,0.473 -0.246,0.969 -0.439,1.486 -1.527,4 -4.652,7.516 -9.383,10.551 -3.047,1.979 -7.141,3.131 -12.271,3.457 -0.918,0.045 -1.697,0.07 -2.342,0.07 -0.322,0 -0.609,-0.008 -0.863,-0.02 -1.934,-0.059 -3.424,-0.156 -4.469,-0.305 -2.223,-0.418 -3.793,-0.855 -4.73,-1.295 -0.074,-0.029 -0.416,-0.244 -1.027,-0.65 l -1.557,-0.596 c -0.4,-0.295 -0.574,-0.443 -0.514,-0.443 0.012,0 0.025,0.004 0.045,0.01 l -1.777,-0.678 -1.623,-0.748 c -2.564,-1.74 -4.336,-2.885 -5.318,-3.428 -0.344,-0.215 -1.23,-1 -2.66,-2.355 -1.441,-1.354 -2.449,-2.102 -3.037,-2.24 -0.582,-0.137 -1.035,-0.566 -1.354,-1.283 -0.521,-1.301 -0.928,-2.137 -1.215,-2.5 -2.197,-3.131 -3.346,-4.801 -3.438,-5 -0.887,-2.125 -1.568,-3.785 -2.045,-4.986 -0.189,-0.834 -0.287,-1.469 -0.297,-1.895 -0.467,-0.779 -1.328,-2.631 -2.582,-5.572 -1.061,-2.352 -1.965,-3.977 -2.73,-4.861 0.629,4.57 0.947,7.514 0.957,8.832 0.004,1.316 -0.225,2.352 -0.68,3.113 -0.443,1.164 -0.699,1.744 -0.77,1.744 -0.006,0 -0.006,0 -0.006,0 -0.006,-0.006 -0.006,-0.008 -0.01,-0.012 0,0.006 0.004,0.012 0.01,0.012 0.471,0.52 0.943,1.057 1.404,1.613 0.461,0.566 0.492,1.146 0.088,1.754 -0.154,0.195 -0.875,1.068 -2.143,2.621 -0.926,1.088 -1.527,2.002 -1.812,2.748 -0.676,1.773 -0.104,3.482 1.732,5.117 1.451,1.318 2.002,2.203 1.66,2.672 -0.059,0.004 -0.117,0.006 -0.18,0.006 -0.309,0 -0.65,-0.072 -1.016,-0.211 -1.191,-0.457 -2.301,-1.492 -3.33,-3.115 -1.035,-1.627 -1.619,-3.15 -1.764,-4.557 l -0.154,-1.592 c -0.18,0.02 -1.699,0.332 -4.559,0.938 -1.266,0.236 -2.34,0.357 -3.223,0.357 -0.779,0 -1.41,-0.094 -1.895,-0.277 l -1.895,-0.723 c -0.299,-0.111 -0.918,-0.6 -1.855,-1.473 -1.223,-0.807 -2.311,-2.174 -3.268,-4.115 -0.957,-1.932 -1.373,-3.637 -1.23,-5.111 0.078,-0.65 0.244,-1.309 0.498,-1.973 0.705,-1.852 1.982,-3.365 3.826,-4.521 1.271,-0.801 2.537,-1.201 3.795,-1.201 0.574,0 1.148,0.082 1.723,0.25 l 2.117,0.805 c 2.488,2.139 3.814,4.221 3.984,6.23 0.023,0.609 -0.078,1.201 -0.305,1.797 -0.512,1.332 -1.453,2.418 -2.832,3.25 -0.809,0.484 -1.805,0.736 -2.973,0.736 -0.816,0 -1.719,-0.125 -2.711,-0.363 -1.557,-1.695 -2.025,-3.359 -1.4,-4.99 0.455,-1.188 1.396,-1.885 2.838,-2.1 l 1.668,0.635 c 1.109,0.424 1.426,1.27 0.943,2.523 -0.307,0.82 -0.885,1.426 -1.719,1.826 -0.35,0.172 -0.693,0.256 -1.035,0.256 -0.479,0 -0.947,-0.16 -1.416,-0.488 -0.303,0.566 0.031,1.031 0.992,1.398 l 1.889,0.723 c 0.303,0.113 0.6,0.17 0.904,0.17 0.664,0 1.34,-0.279 2.025,-0.834 0.752,-0.641 1.275,-1.334 1.557,-2.076 l 0.553,-1.445 c 0.229,-1.275 -0.154,-2.547 -1.158,-3.818 -1,-1.27 -2.201,-2.172 -3.607,-2.711 -0.977,-0.371 -1.848,-0.561 -2.637,-0.561 -0.463,0 -0.896,0.066 -1.301,0.201 -2.93,0.998 -4.631,3.236 -5.107,6.703 -0.191,1.625 0.258,3.434 1.371,5.426 1.102,1.996 2.361,3.133 3.785,3.422 l 1.885,0.723 c 1.107,0.277 2.182,0.42 3.217,0.42 2.08,0 4.012,-0.561 5.801,-1.693 2.418,-1.451 4.195,-3.664 5.328,-6.621 0.932,-2.447 1.244,-4.914 0.922,-7.414 -0.59,-4.213 -2.256,-8.08 -4.99,-11.582 -1.592,-2.051 -3.795,-3.613 -6.607,-4.688 -2.447,-0.932 -5.768,-1.562 -9.965,-1.895 -1.641,0.309 -2.91,0.631 -3.803,0.969 -0.006,0 -0.01,0 -0.02,0 -0.416,0 -0.789,-0.23 -1.113,-0.689 1.197,-1.193 2.834,-1.787 4.898,-1.787 m 0,-2.5 c -2.742,0 -4.98,0.846 -6.66,2.506 l -1.502,1.49 1.221,1.727 c 1.074,1.523 2.438,1.75 3.154,1.75 h 0.467 l 0.449,-0.162 c 0.674,-0.26 1.699,-0.521 3.047,-0.783 3.787,0.316 6.791,0.891 8.936,1.711 2.367,0.902 4.223,2.209 5.527,3.887 2.451,3.143 3.961,6.637 4.488,10.393 0.262,2.066 0.008,4.1 -0.779,6.174 -0.938,2.449 -2.342,4.211 -4.277,5.369 -1.445,0.912 -2.906,1.338 -4.52,1.338 -0.322,0 -0.658,-0.02 -0.994,-0.053 1.404,-0.072 2.66,-0.438 3.729,-1.084 1.855,-1.119 3.162,-2.633 3.875,-4.496 0.346,-0.904 0.5,-1.842 0.463,-2.785 -0.225,-2.789 -1.855,-5.453 -4.852,-8.027 l -0.328,-0.283 -0.402,-0.154 -2.117,-0.807 -0.098,-0.037 -0.104,-0.031 c -0.793,-0.23 -1.611,-0.348 -2.416,-0.348 -1.734,0 -3.463,0.533 -5.127,1.588 -2.301,1.445 -3.926,3.381 -4.832,5.744 -0.322,0.844 -0.541,1.703 -0.645,2.557 -0.195,2.033 0.287,4.145 1.471,6.527 1.127,2.275 2.424,3.902 3.949,4.963 1.367,1.262 1.988,1.648 2.537,1.852 l 1.879,0.721 c 0.779,0.297 1.689,0.441 2.787,0.441 1.057,0 2.26,-0.131 3.688,-0.4 0.771,-0.164 1.414,-0.295 1.953,-0.41 0.318,1.455 0.973,2.971 1.951,4.51 1.318,2.074 2.854,3.457 4.545,4.105 0.656,0.252 1.301,0.379 1.91,0.379 0.148,0 0.283,-0.008 0.42,-0.021 l 1.107,-0.105 0.664,-0.896 c 1.852,-2.51 -1.035,-5.141 -1.986,-6.006 -1.484,-1.32 -1.213,-2.031 -1.084,-2.373 0.102,-0.268 0.414,-0.885 1.383,-2.021 l 1.312,-1.605 0.869,-1.059 0.072,-0.092 0.066,-0.1 c 1.016,-1.533 0.928,-3.297 -0.238,-4.725 -0.133,-0.154 -0.26,-0.311 -0.391,-0.461 0.035,-0.08 0.062,-0.158 0.092,-0.24 0.176,-0.316 0.322,-0.658 0.445,-1.018 0.051,0.266 0.115,0.559 0.18,0.873 l 0.047,0.195 0.07,0.182 c 0.484,1.209 1.174,2.889 2.066,5.027 0.156,0.35 0.268,0.592 3.701,5.471 0.08,0.119 0.336,0.496 0.938,1.996 0.812,1.828 2.039,2.504 2.971,2.754 0.154,0.082 0.713,0.428 2.023,1.658 2.033,1.932 2.67,2.42 3.057,2.656 0.748,0.418 2.158,1.283 5.23,3.375 l 0.17,0.117 0.191,0.088 1.623,0.746 0.078,0.037 0.074,0.031 1.254,0.475 c 0.146,0.125 0.275,0.225 0.391,0.303 l 0.275,0.207 0.322,0.127 1.305,0.498 c 0.674,0.441 0.928,0.596 1.176,0.701 1.148,0.527 2.871,1.004 5.264,1.457 1.25,0.176 2.795,0.283 4.852,0.348 0.252,0.014 0.576,0.021 0.943,0.021 0.676,0 1.496,-0.027 2.461,-0.068 5.586,-0.363 10.117,-1.658 13.516,-3.863 5.152,-3.311 8.641,-7.268 10.352,-11.758 0.254,-0.66 0.434,-1.279 0.555,-1.879 0.541,-3.184 0.551,-3.357 0.561,-3.523 0.014,-0.334 0.02,-0.508 -0.416,-3.07 -0.479,-3.152 -1.439,-5.564 -2.934,-7.328 -1.148,-1.244 -3.137,-2.533 -6.334,-4.135 l -0.111,-0.057 -0.117,-0.043 c -0.895,-0.344 -1.824,-0.514 -2.764,-0.514 -1.197,0 -2.422,0.275 -3.643,0.82 -2.217,0.988 -3.73,2.525 -4.512,4.562 -0.928,2.439 -0.621,5.008 0.891,7.439 0.887,1.307 2.004,2.199 3.377,2.727 0.971,0.369 1.926,0.559 2.842,0.559 1.963,0 3.73,-0.854 5.121,-2.473 0.797,-0.967 1.066,-2.223 0.836,-3.771 0.834,0.365 0.795,2.572 0.479,4.551 l -0.025,0.137 -0.008,0.145 c -0.004,0.117 -0.008,0.234 -0.014,0.355 l -0.957,2.516 -0.049,0.129 -0.037,0.131 c -0.355,1.354 -1.895,2.787 -4.445,4.146 -1.768,0.939 -3.287,1.414 -4.514,1.414 -0.523,0 -0.977,-0.084 -1.393,-0.26 l -0.459,-0.191 -0.492,-0.004 c -0.186,-0.002 -0.713,-0.043 -1.787,-0.359 -0.889,-0.449 -1.842,-0.676 -2.834,-0.676 -0.465,0 -0.926,0.049 -1.398,0.145 0.312,-1.15 0.285,-2.297 -0.092,-3.352 -0.482,-1.51 -1.732,-2.074 -2.74,-2.074 -0.527,0 -1.328,0.156 -2.131,0.893 -0.98,0.9 -1.914,1.357 -2.855,1.387 l -0.172,0.002 c -0.85,0 -1.557,-0.211 -2.154,-0.643 -4.693,-4.268 -5.76,-4.848 -6.596,-5.059 -0.383,-0.107 -0.787,-0.158 -1.213,-0.158 -1.621,0 -3.479,0.789 -5.824,2.484 -0.299,0.221 -0.689,0.318 -1.223,0.318 -0.6,0 -1.322,-0.135 -2.156,-0.391 -0.682,-0.207 -2.496,-1.221 -4.771,-6.158 -1.045,-2.611 -2.959,-6.758 -5.645,-12.211 -0.039,-0.146 -0.084,-0.289 -0.131,-0.441 2.305,1.387 4.59,2.432 6.824,3.119 0.814,0.236 1.66,0.35 2.553,0.35 1.791,0 3.809,-0.43 6.162,-1.312 3.705,-1.393 5.965,-3.246 6.889,-5.67 0.34,-0.887 0.463,-1.803 0.367,-2.723 l -0.047,-0.4 -0.158,-0.367 c -0.457,-1.016 -1.416,-1.646 -2.506,-1.646 -1.197,0 -2.031,0.736 -2.553,1.295 -0.469,0.5 -0.986,1.018 -1.553,1.559 -0.146,0.137 -0.342,0.277 -0.752,0.318 -0.271,0.039 -0.455,0.051 -0.625,0.051 -0.846,0 -1.494,-0.322 -2.109,-1.047 -2.354,-2.768 -4.371,-4.078 -6.338,-4.119 l -0.186,-0.002 c -2.389,0 -4.205,1.174 -4.984,3.221 -0.086,0.227 -0.17,0.48 -0.246,0.77 -1.004,-0.678 -2.191,-1.523 -3.602,-2.58 -4.012,-3.018 -7.09,-4.914 -9.406,-5.793 l -3.002,-1.141 -0.973,-0.375 -0.234,-0.094 -0.252,-0.043 c -0.248,-0.047 -0.449,-0.094 -0.588,-0.15 l -2.211,-0.844 -0.186,-0.068 -0.191,-0.045 c -4.609,-0.965 -5.893,-1.102 -6.527,-1.102 -0.3,-0.044 -0.613,-0.056 -0.916,-0.056 z" />
</g><path
     id="path208"
     d="m 148.49,543.941 30.969,-40.293 c -0.982,-1.914 -1.881,-3.877 -2.582,-5.957 -1.201,-3.842 -2.373,-7.611 -3.516,-11.316 l -44.242,57.566 c 0,0 0.414,66.25 134.164,75.416 0.176,-0.598 0.41,-1.168 0.621,-1.754 C 148.877,603.838 148.49,543.941 148.49,543.941 Z"
     enable-background="new    "
     inkscape:connector-curvature="0"
     style="opacity:0.58999999;fill:url(#SVGID_20_)" /></g>
</svg>