<?xml version="1.0" encoding="UTF-8" standalone="no"?>
<svg
   xmlns:dc="http://purl.org/dc/elements/1.1/"
   xmlns:cc="http://creativecommons.org/ns#"
   xmlns:rdf="http://www.w3.org/1999/02/22-rdf-syntax-ns#"
   xmlns:svg="http://www.w3.org/2000/svg"
   xmlns="http://www.w3.org/2000/svg"
   xmlns:sodipodi="http://sodipodi.sourceforge.net/DTD/sodipodi-0.dtd"
   xmlns:inkscape="http://www.inkscape.org/namespaces/inkscape"
   id="svg2"
   viewBox="0 0 256.00001 256.00001"
   version="1.0"
   sodipodi:docname="t-shirt.svg"
   inkscape:version="0.92.4 (5da689c313, 2019-01-14)"
   width="256"
   height="256">
  <defs
     id="defs10" />
  <sodipodi:namedview
     pagecolor="#ffffff"
     bordercolor="#666666"
     borderopacity="1"
     objecttolerance="10"
     gridtolerance="10"
     guidetolerance="10"
     inkscape:pageopacity="0"
     inkscape:pageshadow="2"
     inkscape:window-width="1920"
     inkscape:window-height="1025"
     id="namedview8"
     showgrid="false"
     inkscape:zoom="1.1866154"
     inkscape:cx="236.36804"
     inkscape:cy="65.491358"
     inkscape:window-x="-8"
     inkscape:window-y="-8"
     inkscape:window-maximized="1"
     inkscape:current-layer="svg2"
     fit-margin-top="0"
     fit-margin-left="0"
     fit-margin-right="0"
     fit-margin-bottom="0" />
  <g
     id="layer1"
     transform="matrix(0.32183744,0,0,0.32183744,10.728497,-42.862939)">
    <path
       id="path1951"
       d="m 279.07,142.62 c -3.24,-0.01 -16.75,7.11 -23.12,12.19 -3.61,2.88 -41.35,17.27 -67.29,25.66 -29.33,9.48 -37.74,11.8 -53.46,14.78 -24.62,4.67 -38.651,15.47 -50.004,38.47 -3.215,6.51 -7.033,16.94 -8.469,23.19 -1.435,6.24 -3.295,12.06 -4.125,12.9 -0.829,0.85 -1.5,4.55 -1.5,8.25 0,6.47 -0.687,7.85 -10.531,21.19 -1.386,1.88 -3.1,8.24 -3.812,14.16 -0.941,7.81 -2.303,11.87 -5.032,14.78 -3.156,3.36 -4.005,6.68 -5.25,20.69 -1.606,18.07 -2.365,21.18 -13.437,56.4 -8.523,27.11 -15.503,53.84 -20.156,77 -3.5552,17.7 -6.5013,43.81 -5.4065,48.1 0.3792,1.48 3.7305,3.8 7.4375,5.15 3.707,1.35 10.827,3.94 15.812,5.75 27.925,10.16 36.867,11.88 65.157,12.53 l 27.216,0.63 5.69,5.68 c 4.96,4.97 6.68,5.69 13.72,5.69 4.43,0 8.06,0.52 8.06,1.19 0,3.28 -8.67,35.69 -10.5,39.28 -3.3,6.48 -4.48,27.05 -2.31,39.78 2.91,17.07 2.54,22.89 -2.53,39.69 -5.38,17.8 -4.85,23.68 3.87,43.56 5.82,13.25 6.17,19.78 1.72,31.07 -3.7,9.39 -4.15,18.07 -1.22,23.21 1.38,2.42 2.33,16.17 3,43.25 1,40.15 3.91,62.93 8.63,67.78 1.57,1.62 4.26,1.77 11.62,0.6 10.82,-1.73 47.07,0.14 59.85,3.09 4.46,1.03 16.89,4.32 27.59,7.28 19.5,5.41 47.81,11.38 59.97,12.66 3.57,0.37 22.2,0.49 41.37,0.25 28.25,-0.35 38.09,-1.12 51.88,-3.97 28.83,-5.96 43.27,-10.54 74.69,-23.78 34.56,-14.56 59.88,-22.28 79.81,-24.31 8.15,-0.83 11.41,-1.88 12.56,-4.03 2.07,-3.86 1.99,-38.56 -0.12,-54.5 -0.93,-6.98 -3.22,-17.16 -5.1,-22.63 l -3.4,-9.9 5.96,-13.94 c 11.53,-26.85 13.22,-48.04 4.79,-60.47 -3.15,-4.63 -3.86,-7.17 -3.04,-11 9.56,-44.51 11.08,-81.86 4.69,-115.88 l -1.03,-5.47 11.16,1.26 c 20.15,2.27 28.74,-0.01 38.5,-10.29 3.5,-3.68 6.68,-5.18 12.97,-6.03 19.82,-2.68 45.88,-9.45 66.71,-17.34 19.36,-7.34 19.02,-6.73 13.82,-23.88 -1.77,-5.82 -5.47,-18.62 -8.22,-28.43 -6.64,-23.66 -16.21,-54.52 -26.13,-84.19 -7.26,-21.72 -7.98,-25.17 -7.03,-33.41 1.36,-11.69 -1.12,-20.95 -7.03,-26.22 -4.26,-3.8 -4.72,-5.28 -5.72,-19.31 -1.02,-14.37 -7.3,-43.66 -10.78,-50.16 -0.87,-1.63 -1.59,-4.79 -1.59,-7.03 0,-2.23 -1.97,-9.32 -4.35,-15.75 -6.56,-17.7 -18.94,-30.15 -40.15,-40.4 -8.98,-4.34 -26.18,-11.25 -38.22,-15.38 -65.39,-22.42 -78.47,-27.77 -94.88,-38.65 -7.66,-5.09 -10,-5.93 -12.78,-4.6 -14.61,7.02 -56.57,13.25 -89.22,13.25 -32.69,0 -55.62,-4.51 -79.56,-15.65 -4.46,-2.08 -9.76,-3.78 -11.75,-3.79 z m -2.19,6.47 c 0.94,0 3.17,2.84 4.94,6.32 5.85,11.45 23.11,32.78 33.41,41.28 20.17,16.64 43.73,24.53 61.84,20.69 19.57,-4.16 36.58,-12.83 53.72,-27.38 8.48,-7.19 24.49,-24.94 29.62,-32.81 l 2.63,-3.97 6.72,4.44 c 3.69,2.44 6.72,5.19 6.72,6.09 0,3.86 -10.18,21.28 -18.57,31.81 -17.18,21.57 -39.61,34.68 -69,40.35 -35.63,6.86 -68.74,-3.62 -97.06,-30.79 -15.18,-14.56 -31.03,-37.68 -31.03,-45.28 0,-2.28 12.66,-10.75 16.06,-10.75 z m 210.03,19.44 c 0.25,0 5.49,2.1 11.63,4.63 6.14,2.53 15.56,6.1 20.91,7.96 5.35,1.87 23.5,8.16 40.34,14 36.04,12.51 54.2,20.95 64.37,29.91 7.87,6.93 16.21,20.93 19.22,32.25 2.06,7.73 1.44,9.43 -10.22,27.91 l -6.56,10.4 -2.25,-5.56 c -3.5,-8.67 -6.61,-11.22 -13.56,-11.22 -4.98,0 -7.51,1.22 -12.69,6.1 -7.46,7.02 -8.98,11.79 -14.59,45.78 -1.99,12.04 -3.9,22.19 -4.25,22.56 -0.35,0.37 -0.63,-9.32 -0.63,-21.56 0,-38.31 -6.62,-73.97 -13.72,-73.97 -4.05,0 -6,32.76 -3.71,62.44 0.95,12.41 1.99,25.22 3.62,44.59 3.87,46.09 2.39,92.87 -4.16,131.31 -5.05,29.69 -6.33,34.2 -33.96,117.41 -12.47,37.54 -23.4,70.51 -24.29,73.25 -1.94,6.01 -2.13,13.65 -0.31,13.66 3.34,0 12.3,-12.35 34.13,-47.04 l 3.56,-5.65 -1.09,4.84 c -1.79,7.81 -9.3,28.82 -20.57,57.56 -12.08,30.84 -18.99,45.95 -26.56,58 -5.92,9.43 -6.63,12.97 -2.87,14.41 4.4,1.69 8.99,-4.61 20.28,-27.81 12.79,-26.3 21.3,-47.78 39.56,-99.72 2.98,-8.47 5.93,-16.66 6.56,-18.22 1.38,-3.4 4.07,-2.19 4.06,1.84 0,1.59 2.32,7.5 5.13,13.13 5.56,11.12 5.56,11.42 -0.19,39.75 -2.85,14.09 -36.22,76.41 -62.78,117.31 -9.02,13.9 -10.23,18.88 -4.56,18.88 2.24,0 6.01,-4.18 12.37,-13.78 13.15,-19.83 35.62,-58.75 48.85,-84.6 6.27,-12.26 11.98,-21.95 12.65,-21.53 2.53,1.56 3.33,13.88 1.5,22.97 -3.82,19.01 -13.77,42.82 -22.53,53.97 -11.94,15.21 -25.19,29.32 -33.69,35.87 -6.4,4.94 -8.66,7.74 -8.31,10.19 0.27,1.86 1.6,3.59 2.94,3.84 3.71,0.71 21.96,-15.36 36.44,-32.06 l 12.93,-14.94 1.88,4.63 c 2.99,7.48 5.81,35.83 5.22,52.47 l -0.53,15.4 -4.88,0.44 c -21.37,1.91 -52.38,11.22 -87.56,26.31 -23.46,10.07 -49.08,18.02 -73.03,22.66 -19.98,3.87 -68.81,5.67 -89.94,3.34 -17.02,-1.87 -43.42,-7.44 -61.59,-13 -20.31,-6.21 -39.84,-9.75 -54.1,-9.78 -6.36,-0.01 -13.06,-0.42 -14.84,-0.9 -4.11,-1.11 -26.31,-44.49 -24.38,-47.63 1.91,-3.08 12.33,-1.38 43.04,7.06 21.93,6.04 57.23,14.89 70.53,17.69 10.95,2.3 19.18,3.92 38.12,7.47 21.77,4.08 84.87,9.88 107,9.84 15.82,-0.02 50.81,-4.15 55.25,-6.53 2.62,-1.4 3.02,-2.33 1.6,-3.75 -2.19,-2.18 -21.08,-1.8 -29.44,0.6 -7.44,2.13 -24.03,1.99 -33.47,-0.29 -25.47,-6.14 -74.15,-24.33 -109.63,-40.93 -8.77,-4.11 -16.25,-7.47 -16.62,-7.47 -1.49,0 -32.52,-18.44 -43.38,-25.78 -17.79,-12.04 -37.3,-33.53 -49.5,-54.5 -5.69,-9.8 -14.23,-24.41 -18.96,-32.47 -20.6,-35.09 -26.55,-60.72 -14.1,-60.72 3.52,0 7.48,3.07 18.28,14.22 11.44,11.8 16.1,18.37 27.38,38.5 17.29,30.86 31.69,52.55 45.44,68.47 11.53,13.35 18,16.84 18,9.68 0,-2.15 -1.58,-5.3 -3.47,-7 -4.2,-3.76 -17.63,-21.03 -17.63,-22.65 0,-0.64 3.82,2.45 8.5,6.87 38.68,36.53 102.75,66.99 162.56,77.28 39.93,6.88 42.97,7.11 42.97,3.5 0,-1.33 -0.38,-2.43 -0.84,-2.43 -3,0 -26.92,-7.21 -33.06,-9.97 -18.84,-8.46 -33.66,-16.58 -36.63,-20.06 -1.78,-2.1 -8.35,-7.23 -14.59,-11.41 -59.17,-39.66 -129.33,-120.33 -166.28,-191.22 -5.58,-10.7 -11.74,-21.03 -13.72,-22.97 -7.39,-7.22 -22.39,-62.21 -29.78,-109.18 -10.3,-65.45 -12.17,-146.86 -5.35,-231.82 1.01,-12.52 1.46,-13.91 5.16,-15.68 2.23,-1.08 22.63,-7.99 45.37,-15.35 22.75,-7.36 44.39,-14.71 48.1,-16.34 3.7,-1.63 7.74,-2.57 8.94,-2.07 1.2,0.51 5.31,4.87 9.15,9.66 8.51,10.61 25.37,24.48 38.16,31.41 21.02,11.38 47.42,16.35 70.31,13.22 42.15,-5.77 73.41,-27.15 95.59,-65.32 4.02,-6.91 7.51,-12.56 7.75,-12.56 z M 125.1,245.81 c 2.27,-0.4 2.38,2.46 0.06,8.35 -2.86,7.28 -6.62,8.78 -10.43,4.18 -1.88,-2.26 -1.32,-3.34 4.03,-8.25 2.85,-2.61 4.98,-4.04 6.34,-4.28 z m -16.56,20 c 0.71,0 3.22,1.67 5.56,3.69 l 4.25,3.66 -2.47,10.53 c -1.35,5.79 -2.87,13.25 -3.4,16.59 -0.53,3.35 -1.54,6.1 -2.22,6.1 -1.53,0 -11.595,-10.29 -11.595,-11.85 0,-0.63 1.008,-1.12 2.245,-1.12 3.09,0 4.32,-3.76 5.41,-16.63 0.51,-6.02 1.51,-10.97 2.22,-10.97 z m 539.78,14.6 c 2.13,0 6.54,20.73 8.72,40.93 1.87,17.37 2.4,19.22 6.34,22.32 5.59,4.39 7.6,11.98 5.94,22.46 -1.16,7.38 -0.63,10.37 4.41,24.97 14.73,42.68 34.87,110.25 33.31,111.72 -1.66,1.57 -15.48,5.6 -43.97,12.85 -13.75,3.49 -25.97,6.37 -27.16,6.37 -2.64,0 -2.77,-8.13 -0.62,-41.62 0.85,-13.23 1.92,-60.38 2.37,-104.75 l 0.85,-80.69 4.25,-7.28 c 2.35,-4.01 4.85,-7.28 5.56,-7.28 z m -37.75,8.43 c 4.16,0.03 5.32,2.59 5.13,9.41 -0.14,4.8 -1.78,7.17 -10.6,15.34 l -10.4,9.66 1.03,-7.22 c 0.56,-3.98 1.61,-9.42 2.34,-12.09 0.73,-2.68 1.78,-6.84 2.31,-9.25 0.77,-3.48 2.19,-4.63 6.82,-5.5 1.29,-0.25 2.41,-0.35 3.37,-0.35 z M 93.41,306.53 c 1.133,-0.01 3.489,1.78 8.125,5.94 l 8.56,7.69 -1.87,6.46 c -1.93,6.73 -1.37,40.69 1.68,103.79 0.83,16.94 2.27,49.26 3.19,71.81 0.92,22.55 2.09,41.65 2.6,42.47 0.5,0.81 -0.54,2.25 -2.29,3.19 -7.76,4.15 -54.307,-0.53 -58.776,-5.91 -1.051,-1.27 -1.874,-5.72 -1.844,-9.91 0.033,-4.57 -0.954,-8.76 -2.438,-10.47 -2.104,-2.42 -2.166,-3.85 -0.437,-9.71 4.238,-14.38 16.247,-28.64 33.031,-39.26 5.179,-3.27 9.822,-7 10.313,-8.28 2.144,-5.58 -1.886,-11.88 -17.282,-26.87 l -16.062,-15.63 1.687,-6.25 c 0.932,-3.44 3.816,-13.86 6.407,-23.15 2.591,-9.3 4.718,-18.81 4.718,-21.13 0,-6.17 4.282,-11.29 12.344,-14.75 7.925,-3.39 8.854,-6.42 4.563,-14.72 -2.292,-4.43 -2.277,-6.17 -0.032,-18.15 1.367,-7.29 2.687,-14.52 2.938,-16.07 0.113,-0.69 0.36,-1.08 0.875,-1.09 z m 534.46,4.94 c 0.11,0 0.23,0.04 0.32,0.12 1.38,1.38 -2.76,211.44 -4.29,217.19 -1.73,6.55 -8.49,13.13 -17.31,16.81 -3.12,1.31 -7.08,2.38 -8.81,2.38 -3.08,0 -3.13,-1.23 -2.06,-51.5 0.93,-43.82 1.57,-53.28 4.31,-63.63 4.93,-18.64 7.11,-27.51 9.34,-38.12 1.13,-5.35 2.61,-11.92 3.32,-14.6 0.7,-2.67 2.49,-11.77 3.96,-20.24 1.48,-8.48 3.39,-18.48 4.22,-22.22 0.84,-3.74 1.53,-9.05 1.53,-11.82 0,-4.54 3.84,-14.32 5.47,-14.37 z m -13.22,5.44 -0.9,4.87 c -0.5,2.68 -1.38,8.14 -1.94,12.16 -1.84,13.15 -13.21,68.09 -14.31,69.18 -0.35,0.35 -1.07,-1.6 -1.63,-4.37 -0.55,-2.77 -1.73,-4.58 -2.62,-4.03 -0.89,0.55 -2.3,3.33 -3.13,6.19 -1.98,6.86 -2.2,-27.23 -0.28,-43.79 1.18,-10.18 2.28,-13 8.66,-21.9 4.02,-5.62 9.32,-12.02 11.75,-14.25 z m 94.54,195.93 c 1.43,-0.11 2.41,0.98 3,3.32 0.54,2.17 1.41,5.04 1.93,6.4 0.63,1.64 -0.64,3.3 -3.75,4.91 -7.76,4.01 -34.2,12.36 -52.31,16.53 -19.53,4.49 -25.94,4.93 -25.94,1.75 0,-1.21 0.46,-5.47 1,-9.47 0.9,-6.54 1.36,-7.19 4.78,-6.53 3.55,0.68 22.85,-2.86 33.94,-6.22 2.68,-0.81 11.45,-3.33 19.47,-5.62 8.03,-2.3 15.79,-4.55 17.25,-4.97 0.22,-0.07 0.42,-0.08 0.63,-0.1 z m -579.13,1.28 c 0.03,-0.01 0.06,0 0.09,0.04 0.63,0.57 3.7,10.04 6.85,21.06 3.14,11.02 6.12,21.31 6.59,22.87 0.61,2.02 -0.06,2.85 -2.28,2.85 -5.76,0 -8.89,-3.84 -9.31,-11.44 -0.22,-3.96 -0.98,-13.79 -1.69,-21.81 -0.67,-7.53 -0.75,-13.34 -0.25,-13.57 z m 491.59,35.16 c 0.49,-0.07 0.75,-0.01 0.75,0.19 0,2.6 -8.35,11.52 -13.09,13.97 -5.49,2.83 -13.83,3.1 -15.44,0.5 -1.27,-2.07 3.51,-6.25 7.16,-6.25 1.28,0 6.61,-2.18 11.84,-4.85 3.93,-1.99 7.33,-3.35 8.78,-3.56 z m -469.59,38.53 c 0.39,0.04 0.79,0.9 1.38,2.31 2.61,6.31 8.13,21.49 9.28,25.54 0.56,2 0.78,3.63 0.5,3.59 -0.29,-0.04 -4.04,-3.31 -8.35,-7.28 l -7.84,-7.22 2.37,-9.34 c 1.39,-5.46 2.01,-7.65 2.66,-7.6 z M 179,628.5 c 0.61,0.21 3.49,4.54 7.28,11.06 22.21,38.26 43.93,63.81 74.53,87.69 17.49,13.65 30.81,26.66 30.81,30.13 0,6.3 -14.67,1.3 -35.22,-12 -16.35,-10.59 -24.28,-19.52 -38.78,-43.57 -7.2,-11.94 -16.16,-26.67 -19.9,-32.75 -6.58,-10.68 -16.42,-31.71 -18.75,-40.03 -0.12,-0.42 -0.11,-0.58 0.03,-0.53 z m -41.56,71.06 3.06,7.32 c 17.97,42.91 40.36,78.99 57.53,92.68 7.07,5.64 52.04,28.89 55.91,28.91 1.61,0.01 22.99,8.78 29.03,11.91 2.65,1.37 5.78,3.63 6.93,5.03 3.05,3.66 0.7,3.14 -24.21,-5.16 -19.21,-6.4 -63.92,-25.26 -93.66,-39.53 -10.92,-5.24 -20.83,-9.53 -22.03,-9.53 -1.2,0 -3.54,-4.05 -5.22,-9 -3.05,-8.98 -3.07,-9.03 0.53,-19.07 5,-13.94 4.67,-22.8 -1.31,-35.59 -2.7,-5.78 -5.26,-14.42 -5.72,-19.22 z m 10.43,99.72 c 0.4,0 10.11,4.59 21.57,10.19 11.46,5.6 26.31,12.86 33,16.12 14.05,6.87 13.82,6.95 -5.69,2.13 -21.97,-5.43 -35.42,-7.7 -42.38,-7.1 l -6.25,0.57 -0.5,-10.97 c -0.26,-6.02 -0.14,-10.94 0.25,-10.94 z"
       inkscape:connector-curvature="0"
       style="fill-opacity:0.07106598" />
    <path
       id="path1949"
       d="m 281,133.19 c -0.34,-0.02 -0.69,0 -1.06,0.03 h -0.06 c -0.29,0 -0.62,0.06 -0.97,0.12 -0.04,0.01 -0.09,-0.01 -0.13,0 -4.45,0.71 -11.09,3.91 -22.31,10.5 -21.09,12.4 -87.25,35.8 -119.44,42.25 -18.6,3.73 -30.52,8.61 -40.342,16.5 -7.494,6.03 -18.814,22.48 -23.812,34.63 -5.128,12.46 -11.781,35.58 -11.781,40.9 0,2.95 -2.123,7.49 -5.532,11.91 -5.768,7.48 -9.047,16.61 -9.062,25.22 -0.005,2.79 -1.026,5.93 -2.281,6.97 -4.952,4.11 -7.64,13.31 -8.313,28.47 -0.54,12.18 -2.019,19.35 -7.156,35.22 -14.437,44.57 -24.446,83.18 -26.844,103.43 -0.341,2.89 -0.8775,10.44 -1.3435,18.82 -0.0205,0.36 -0.04224,0.69 -0.0625,1.06 -0.24278,3.67 -0.47318,7.31 -0.59376,10.65 -0.13922,3.86 -0.20691,6.88 -0.24999,9.44 -0.09806,5.83 0.08604,8.81 0.75,10.53 0.01088,0.04 0.0201,0.09 0.03125,0.13 1.0654,3.61 3.3532,4.48 7.6562,5.37 2.8363,0.59 9.1573,2.76 14.062,4.82 9.11,3.8 25.875,9.02 38.938,12.15 4.013,0.96 18.583,2.18 32.406,2.69 23.499,0.87 25.419,1.18 29.249,4.75 2.26,2.1 6.53,4.68 9.5,5.72 1.6,0.55 2.71,0.94 3.47,1.44 0.01,0 0.02,0.02 0.03,0.03 0.46,0.35 0.81,0.79 1.09,1.28 0.43,1.08 0.21,2.69 -0.25,5.56 -0.56,3.54 -2.55,10.56 -4.4,15.59 -1.86,5.04 -4.05,13.53 -4.91,18.88 -1.71,10.67 -0.59,32.3 2.16,41.53 1.44,4.85 1.19,7.4 -1.47,14.59 -8.5,23.04 -8.12,38.71 1.37,58.79 5.58,11.77 5.81,16.03 1.47,26.15 -3.65,8.53 -4.25,21.95 -1.22,27.28 1.38,2.42 2.33,16.41 3,44.07 0.84,34.21 1.54,42.91 4.63,55.71 2.92,12.13 4.01,17.33 9.47,19.38 0.03,0.01 0.06,0.02 0.09,0.03 1.55,0.77 3.4,1.07 5.69,1.03 4.27,0.29 10.07,0.03 18.34,-0.28 29.4,-1.11 44.99,0.81 74.69,9.19 22.45,6.33 32.89,8.54 52.31,11.15 1.84,0.25 5.21,0.5 9.41,0.72 1.02,0.23 1.75,0.44 1.87,0.57 0.53,0.52 11.4,0.55 25.44,0.31 h 0.38 c 2.5,0.04 5.01,0.04 7.5,0.06 57.92,0.4 82.91,-4.46 137.81,-26.87 42.74,-17.45 57.49,-21.87 82.16,-24.63 7.16,-0.8 13.75,-2.16 14.62,-3.03 7.16,-7.16 5.31,-71.36 -2.59,-90.28 -2.26,-5.41 -2.14,-6.36 2.22,-16.91 8.13,-19.72 10.42,-29.39 10.4,-43.97 -0.01,-11.17 -0.7,-15.14 -3.72,-20.97 -4.09,-7.91 -4.05,-9.75 0.88,-34.96 2.16,-11.05 2.89,-23.17 2.97,-49.79 l 0.09,-35.06 1.56,-0.09 h 8.38 c 11.83,0 20.43,-3.25 28.15,-10.66 5.04,-4.83 7.71,-5.84 23.79,-8.87 32.03,-6.05 70.67,-19.16 77.25,-26.22 0.8,-0.86 1.38,-1.57 1.78,-2.41 l 0.03,-0.06 c 0.63,-0.96 0.94,-1.92 0.94,-2.88 0,-0.77 -0.35,-2.65 -0.91,-5.15 -0.43,-2.73 -1.13,-6.26 -2.13,-11.25 -2.96,-14.84 -25.2,-88.23 -36.84,-121.6 -4.94,-14.17 -5.52,-17.46 -4.62,-26.03 1.24,-11.84 -0.93,-20.73 -7.13,-29.28 -3.57,-4.93 -4.83,-8.88 -5.66,-17.69 -1.96,-20.92 -14.43,-69.82 -21.18,-83.12 -12.35,-24.31 -30.8,-35.5 -94.72,-57.41 -45.82,-15.7 -64.27,-23.3 -76.88,-31.75 -6.49,-4.34 -13.11,-8.4 -14.72,-9 -1.67,-0.61 -6.87,0.58 -12.15,2.78 -18.21,7.6 -48.84,12.21 -81.41,12.29 -34.8,0.07 -53.82,-4.26 -87.06,-19.82 -0.81,-0.38 -1.7,-0.6 -2.72,-0.65 z m -3.12,14.06 c 0.01,0 0.01,-0.01 0.03,0 0.01,0 0.02,0.03 0.03,0.03 l 7.75,13.31 c 9.79,16.86 32.95,40.35 47.03,47.75 5.37,2.82 15.21,6.39 21.87,7.91 10.49,2.38 13.53,2.47 22.66,0.69 12.86,-2.51 27.29,-8.8 39.97,-17.47 9.39,-6.42 33.21,-29.98 41.28,-40.81 l 4.19,-5.6 7.53,4.78 c 4.67,2.96 7.56,5.97 7.56,7.88 0.01,4.41 -9.78,21.19 -18.97,32.53 -17.24,21.28 -39.65,34.78 -67.37,40.56 -49.62,10.35 -102.3,-16.56 -127.19,-64.97 -7.14,-13.9 -6.93,-14.79 5.38,-21.87 z m 12.87,6.81 c 1.4,0.09 6.32,1.55 11.91,3.56 20.16,7.28 29.34,9.27 53.34,9.69 9.32,0.97 15.29,0.97 26.72,0 26.34,-0.47 43.49,-2.57 59.37,-7.12 3.02,-0.87 5.78,-1.29 6.13,-0.94 0.35,0.35 -3.98,5.5 -9.63,11.44 -10.39,10.93 -11.05,11.25 -29.71,15.5 -9.87,2.24 -50.36,3.2 -63.91,1.5 -6.61,-0.83 -17.95,-3.35 -25.22,-5.57 -13.18,-4.02 -13.26,-4.04 -21.66,-15.65 -4.63,-6.41 -8.09,-11.97 -7.71,-12.35 0.04,-0.04 0.17,-0.07 0.37,-0.06 z m -40.09,9.47 c 0.01,0 0.02,0.03 0.03,0.03 l 6.9,13.25 c 5.53,10.61 10.52,16.94 24.79,31.28 14.56,14.65 20.27,19.2 30.84,24.57 32.12,16.3 62.15,18.75 95.16,7.75 29.99,-10 55.99,-33.03 71.9,-63.72 3.21,-6.2 5.2,-8.43 7.06,-7.85 1.44,0.45 9.56,3.53 18.04,6.82 8.47,3.28 30.99,11.33 50.06,17.9 63.46,21.89 78.45,32.34 87.78,61.22 l 3.16,9.72 c 0.02,0.34 0.03,0.69 0.03,1 0,0.23 -0.06,0.51 -0.13,0.84 l -7.15,12.82 c -4.18,7.44 -9.33,15.64 -11.44,18.21 -3.73,4.57 -3.85,4.6 -3.91,0.97 -0.06,-4.18 -4.4,-13.49 -7.15,-15.31 -2.85,-1.88 -11.52,-1.42 -13.66,0.72 -4.08,4.07 -2.22,6.25 4.41,5.19 5.31,-0.85 6.6,-0.48 8.09,2.31 2.67,4.98 2.29,16.5 -0.53,16.5 -1.27,0 -6.66,4.8 -11.97,10.69 -5.31,5.88 -10.05,10.08 -10.53,9.31 -0.85,-1.38 0.4,-8.74 4.5,-26.5 1.13,-4.91 1.7,-9.49 1.28,-10.22 -1.83,-3.15 -6.39,4.43 -8.31,13.81 -4.9,23.96 -5.64,28.64 -7.69,48.07 -0.91,8.59 -3.62,74.19 -5.5,133.18 -0.9,28.09 -2.18,55.83 -2.88,61.63 -0.72,6.03 -7.24,28.21 -15.25,51.87 -7.69,22.74 -16.34,48.65 -19.21,57.57 -12.61,39.15 -34.63,93.13 -45.44,111.37 -3.53,5.95 -6.41,11.27 -6.41,11.84 0,0.58 1.56,0.82 3.47,0.54 7.7,-1.15 30.02,-51.15 54.84,-122.94 2.01,-5.8 6.09,-16.73 9.07,-24.31 2.98,-7.58 7.73,-20.52 10.56,-28.75 2.83,-8.24 5.78,-14.58 6.56,-14.1 2,1.24 1.78,45.51 -0.31,62.22 -4.66,37.24 -7.73,48.01 -21.19,74.31 -13.08,25.56 -28.2,52.02 -46.4,81.16 -7.16,11.45 -9.95,17.3 -8.82,18.44 0.92,0.91 2.42,1.19 3.35,0.62 4.23,-2.61 43.1,-68.99 59.84,-102.15 9.57,-18.97 10.79,-20.66 12.78,-17.94 3.66,5 3.44,20.67 -0.47,34.81 -4.11,14.89 -13.66,35.98 -20.56,45.41 -3.59,4.9 -14.47,16.76 -24.19,26.34 -16.92,16.68 -21.41,24.17 -10.75,17.88 5.22,-3.09 29.32,-27.42 38.97,-39.35 l 5.91,-7.31 1.81,4.62 c 3.25,8.4 5.77,30.7 6.41,48.35 v 0.44 c -0.02,1.34 -0.06,2.68 -0.1,4.03 l -0.4,15.53 v 0.03 c -0.31,1.89 -0.72,3.19 -1.25,3.72 -1.07,1.07 -4.4,1.94 -7.38,1.94 -15.19,0 -45.3,9.09 -84.72,25.56 -36.18,15.12 -64.9,22.84 -97.56,26.28 -14.14,1.49 -46.86,1.82 -59.72,0.59 -20.69,-1.96 -47.52,-7.52 -73.22,-15.15 -20.7,-6.15 -48.93,-9.93 -71.62,-9.6 -9.66,0.15 -18.17,-0.38 -18.91,-1.15 -3.12,-3.29 -6.46,-34.09 -7.09,-65.53 -0.54,-26.88 -1.24,-34.92 -3.63,-41.63 -1.39,-3.93 -2.13,-6.05 -2.12,-8.28 0.01,-0.32 0.04,-0.65 0.06,-0.97 0.01,-0.07 0.03,-0.15 0.03,-0.22 0.25,-2.14 1.13,-4.69 2.69,-9.12 5.03,-14.33 4.65,-22.84 -1.63,-36.35 -7.07,-15.23 -7.24,-28.24 -0.62,-48.03 l 4.72,-14.15 -2.69,-11.22 c -3.98,-16.48 -3.52,-32.86 1.34,-48.19 2.23,-7.02 4.49,-15.15 5.04,-18.06 1.15,-6.15 3.13,-6.9 4.37,-1.66 2.41,10.17 21.09,61.03 28.19,76.75 14.07,31.17 39.55,75.1 56.84,97.97 7.21,9.53 21.35,24.31 23.25,24.31 3.5,0 0.95,-5.3 -6.78,-14.09 -4.55,-5.18 -11.4,-13.78 -15.19,-19.13 -16.9,-23.86 -50.42,-87.92 -63.65,-121.62 -5.43,-13.83 -15.84,-45.61 -25.5,-77.81 -2.41,-8.03 -5.02,-16.43 -5.78,-18.66 -5.65,-16.44 -13.98,-66.71 -12.35,-74.5 0.48,-2.29 -0.14,-10.36 -1.37,-17.94 -5.93,-36.52 -7.02,-75.94 -3.1,-110.25 4.36,-38.04 4.49,-45.26 1.13,-54.28 -2.31,-6.18 -4.72,-9.19 -10.28,-12.87 -4,-2.65 -7.82,-5.78 -8.53,-6.94 -1.91,-3.12 -8.9,-2.56 -10.72,0.84 -0.869,1.62 -1.824,7.64 -2.128,13.38 -0.304,5.74 -1.257,10.38 -2.125,10.34 -2.448,-0.1 -14.156,-20.38 -14.156,-24.53 0,-5.68 6.795,-21.38 13.687,-31.66 9.832,-14.66 18.912,-20.37 39.442,-24.81 29.53,-6.39 82.79,-23.32 106.53,-33.87 z m 72.56,27.88 c 0.66,-0.04 1.93,0.17 3.94,0.53 3.04,0.53 8.06,1.79 11.18,2.78 8.27,2.61 59.25,2.39 67,-0.28 3.41,-1.18 6.58,-1.77 7.04,-1.32 1.19,1.19 -12.57,8.98 -22.57,12.79 -9.82,3.73 -28.36,5.13 -37.5,2.84 -7.82,-1.97 -24.18,-10.57 -27.9,-14.69 -1.69,-1.86 -2.29,-2.6 -1.19,-2.65 z m -214.91,74.53 c 4.05,0.15 12.42,9.59 14.38,16.59 1.88,6.73 1.22,25.04 -1.13,31.16 -0.45,1.18 -1.3,2.14 -1.87,2.12 -2.97,-0.09 -16.61,-10.19 -21.064,-15.59 -6.284,-7.63 -6.64,-10.78 -1.063,-9.38 4.847,1.22 5.407,0.11 6.967,-13.9 0.63,-5.65 2,-10.57 3.03,-10.91 0.23,-0.08 0.48,-0.1 0.75,-0.09 z m 540.25,12 c 0.59,0.03 0.96,0.91 1.5,2.34 3.03,8.01 7.57,31.9 8.66,45.63 1.02,12.77 1.54,14.5 5.72,18.21 5.74,5.12 6.98,9.87 5.84,22.44 -0.81,8.94 -0.04,12.33 7.97,35.91 7.68,22.61 31.02,98.38 31.38,101.81 -0.02,0.1 -0.01,0.19 -0.04,0.28 -1.32,1.46 -22.76,8.4 -35.59,11.47 -5.8,1.39 -13.1,3.2 -16.22,4.03 -3.12,0.83 -9.14,2.38 -13.37,3.44 -7.92,1.99 -10.76,6.37 -4.13,6.37 4.68,0 33.52,-7.1 53.78,-13.25 8.81,-2.66 16.53,-4.24 17.19,-3.5 0.66,0.74 2.08,3.91 3.13,7.04 1.7,5.06 1.53,5.95 -1.44,8.37 -4.53,3.69 -34.2,13.41 -55.97,18.34 -9.81,2.23 -19.88,4.06 -22.38,4.07 l -4.56,0.03 0.88,-13.38 c 2.05,-31.72 3.07,-70.73 4,-153.65 l 1,-87.94 c 0.16,-0.39 0.35,-0.8 0.56,-1.25 l 5.75,-8.81 c 3.82,-5.81 5.37,-8.06 6.34,-8 z m -573.28,2.25 c 0.671,0 3.022,3.45 5.25,7.68 4.051,7.7 21.478,25.57 33.528,34.44 l 6.38,4.72 -1.41,13.47 c -1.57,14.87 -0.25,68.16 2.16,87.22 0.84,6.69 2.18,21.65 3,33.25 0.82,11.59 2.25,25.46 3.15,30.81 1.93,11.38 10.18,43.64 14.97,58.47 1.84,5.68 2.88,11.08 2.32,12 -2.18,3.52 -8.05,1.44 -13.97,-4.97 -6.58,-7.12 -7.44,-7.34 -23.38,-5.47 -0.84,0.1 -1.72,0.18 -2.59,0.25 L 97.468,552 c -3.694,-0.04 -6.803,-0.1 -9.657,-0.16 -19.177,-1.67 -42.688,-7.8 -66.468,-17.62 -7.991,-3.3 -9.797,-4.78 -10.219,-8.25 -0.302,-2.49 0.408,-4.56 1.719,-5.06 1.226,-0.47 9.756,1.76 18.968,4.96 11.931,4.16 17.261,5.34 18.5,4.1 3.157,-3.16 -4.133,-8 -20.656,-13.75 -8.145,-2.84 -15.036,-5.37 -16.187,-5.94 -0.121,-0.19 -0.226,-0.39 -0.313,-0.59 -0.043,-4.1 5.581,-34.7 9.156,-49.47 4.465,-18.44 17.326,-62.26 21.032,-71.66 3.58,-9.08 7.992,-33.26 8,-43.81 0.004,-5.69 1.022,-8.77 4.031,-12.34 5.345,-6.36 7.344,-12.04 7.344,-20.88 0,-6.04 0.983,-8.51 5.656,-13.97 4.015,-4.69 5.687,-8.19 5.687,-12 0,-2.96 0.549,-5.37 1.219,-5.37 z m 553.75,29.22 c 0.11,0.01 0.2,0.04 0.28,0.12 1.2,1.2 -1.96,207.66 -3.31,216.28 -1.49,9.59 -4.96,14.39 -14.62,20.25 -6.69,4.06 -11.16,5.46 -19.5,6.13 l -10.82,0.87 1.1,-6.31 c 2.22,-12.81 4.22,-72.64 4.12,-123.88 -0.09,-50.15 1.36,-72.51 5.19,-79.75 2.96,-5.58 21.03,-27.28 22.72,-27.28 1.17,0 1.39,2.86 0.69,8.53 -3.1,24.99 -15.07,82.21 -19.41,92.82 -1.09,2.67 -3.34,10.15 -5,16.62 -2.43,9.47 -2.65,12.16 -1,13.78 1.63,1.61 2.46,1.47 4.12,-0.78 1.72,-2.32 8.36,-27.46 17.22,-65.28 2.54,-10.83 6,-30.04 8.03,-44.59 1.07,-7.58 2.24,-15.25 2.6,-17.03 0.77,-3.77 5.91,-10.7 7.59,-10.5 z m -6.84,238.31 c 5.92,0 -5.55,15.27 -14.19,18.87 -5.11,2.14 -10.95,2.54 -17.5,1.16 -1.78,-0.38 -4.9,-1.04 -6.91,-1.47 -6.3,-1.34 -4.42,-5.59 2.47,-5.59 6.77,0 20.21,-4.48 28.94,-9.63 3.12,-1.84 6.35,-3.34 7.19,-3.34 z m -430.94,39.12 c -3.49,-0.18 -2.28,4.32 4.59,18.07 37.48,74.97 107.4,156.07 174.13,201.96 11.29,7.77 20.53,9.32 15.78,2.66 -0.65,-0.92 -8.69,-6.98 -17.84,-13.47 C 345.95,780.5 334.67,771.05 313.44,750.47 272.39,710.66 231,655.83 205.13,606.94 c -6.28,-11.87 -11.37,-19.67 -13.1,-20 -0.27,-0.06 -0.55,-0.08 -0.78,-0.1 z M 150.28,795.5 c -1.21,0.1 -1.62,0.8 -1.62,2 0,1.83 25.54,14.78 52.4,26.56 10.86,4.76 24.85,11.09 31.1,14.03 6.24,2.95 19.01,8.06 28.37,11.41 17.31,6.18 26.75,7.34 26.75,3.25 0,-0.43 -0.79,-1.05 -2.12,-1.81 -0.02,-0.02 -0.04,-0.05 -0.07,-0.07 -0.58,-0.48 -1.37,-0.89 -2.18,-1.12 -0.04,-0.01 -0.06,-0.02 -0.1,-0.03 -3.46,-1.62 -8.8,-3.65 -15.81,-6 -23.11,-7.76 -61.2,-23.65 -93.44,-39 -14.11,-6.72 -20.6,-9.44 -23.28,-9.22 z"
       inkscape:connector-curvature="0" />
  </g>
  <metadata
     id="metadata5">
    <rdf:RDF>
      <cc:Work>
        <dc:format>image/svg+xml</dc:format>
        <dc:type
           rdf:resource="http://purl.org/dc/dcmitype/StillImage" />
        <cc:license
           rdf:resource="http://creativecommons.org/publicdomain/zero/1.0/" />
        <dc:publisher>
          <cc:Agent
             rdf:about="http://openclipart.org/">
            <dc:title>Openclipart</dc:title>
          </cc:Agent>
        </dc:publisher>
        <dc:title></dc:title>
        <dc:date>2013-07-30T10:41:42</dc:date>
        <dc:description>Blank T-Shirt</dc:description>
        <dc:source>https://openclipart.org/detail/181309/blank-t-shirt-by-arnelsx-181309</dc:source>
        <dc:creator>
          <cc:Agent>
            <dc:title>arnelsx</dc:title>
          </cc:Agent>
        </dc:creator>
        <dc:subject>
          <rdf:Bag>
            <rdf:li>Blank T-Shirt</rdf:li>
          </rdf:Bag>
        </dc:subject>
      </cc:Work>
      <cc:License
         rdf:about="http://creativecommons.org/publicdomain/zero/1.0/">
        <cc:permits
           rdf:resource="http://creativecommons.org/ns#Reproduction" />
        <cc:permits
           rdf:resource="http://creativecommons.org/ns#Distribution" />
        <cc:permits
           rdf:resource="http://creativecommons.org/ns#DerivativeWorks" />
      </cc:License>
    </rdf:RDF>
  </metadata>
</svg>
