<?xml version="1.0" encoding="UTF-8" standalone="no"?>
<!-- Created with Inkscape (http://www.inkscape.org/) -->

<svg
   xmlns:dc="http://purl.org/dc/elements/1.1/"
   xmlns:cc="http://creativecommons.org/ns#"
   xmlns:rdf="http://www.w3.org/1999/02/22-rdf-syntax-ns#"
   xmlns:svg="http://www.w3.org/2000/svg"
   xmlns="http://www.w3.org/2000/svg"
   xmlns:sodipodi="http://sodipodi.sourceforge.net/DTD/sodipodi-0.dtd"
   xmlns:inkscape="http://www.inkscape.org/namespaces/inkscape"
   width="240.35451"
   height="256"
   id="svg2"
   version="1.1"
   inkscape:version="0.92.4 (5da689c313, 2019-01-14)"
   sodipodi:docname="glove_02.svg">
  <defs
     id="defs4" />
  <sodipodi:namedview
     id="base"
     pagecolor="#ffffff"
     bordercolor="#666666"
     borderopacity="1.0"
     inkscape:pageopacity="0.0"
     inkscape:pageshadow="2"
     inkscape:zoom="1.880904"
     inkscape:cx="122.04251"
     inkscape:cy="223.82332"
     inkscape:document-units="px"
     inkscape:current-layer="svg2"
     showgrid="false"
     inkscape:window-width="1920"
     inkscape:window-height="1025"
     inkscape:window-x="-8"
     inkscape:window-y="-8"
     inkscape:window-maximized="1"
     fit-margin-top="0"
     fit-margin-left="0"
     fit-margin-right="0"
     fit-margin-bottom="0" />
  <metadata
     id="metadata7">
    <rdf:RDF>
      <cc:Work
         rdf:about="">
        <dc:format>image/svg+xml</dc:format>
        <dc:type
           rdf:resource="http://purl.org/dc/dcmitype/StillImage" />
        <dc:title></dc:title>
        <cc:license
           rdf:resource="http://creativecommons.org/publicdomain/zero/1.0/" />
        <dc:creator>
          <cc:Agent>
            <dc:title>yd</dc:title>
          </cc:Agent>
        </dc:creator>
        <dc:publisher>
          <cc:Agent>
            <dc:title>OpenGameArt.org</dc:title>
          </cc:Agent>
        </dc:publisher>
        <dc:source>https://opengameart.org/node/12516</dc:source>
      </cc:Work>
      <cc:License
         rdf:about="http://creativecommons.org/publicdomain/zero/1.0/">
        <cc:permits
           rdf:resource="http://creativecommons.org/ns#Reproduction" />
        <cc:permits
           rdf:resource="http://creativecommons.org/ns#Distribution" />
        <cc:permits
           rdf:resource="http://creativecommons.org/ns#DerivativeWorks" />
      </cc:License>
    </rdf:RDF>
  </metadata>
  <g
     id="g3954"
     transform="matrix(0.67981916,0,0,0.67981916,603.88106,-225.20628)"
     inkscape:export-filename="/home/seldon/Pictures/ConceptArt/gloves.png"
     inkscape:export-xdpi="90"
     inkscape:export-ydpi="90"
     style="display:inline">
    <path
       style="fill:#a8a8a8"
       d="m -665.2706,706.6504 c -37.2966,-6.12902 -40.9562,-8.05937 -51.98524,-27.42091 -15.31172,-26.87981 -21.69868,-38.85868 -26.4569,-49.62041 -3.15815,-7.14282 -8.57724,-17.71194 -12.04242,-23.48694 -3.46518,-5.775 -7.36123,-12.50758 -8.65789,-14.9613 -3.00313,-5.68295 -8.28198,-9.39769 -12.23591,-8.61045 -2.49268,0.4963 -3.56461,-0.13385 -8,-4.70295 -2.8169,-2.90182 -9.62164,-9.13551 -15.12164,-13.85264 -10.66094,-9.14347 -37.4669,-36.65604 -42.35209,-43.46851 -1.61542,-2.25271 -3.61919,-5.41483 -4.45284,-7.02693 -2.05058,-3.96539 -4.34976,-33.06041 -2.93357,-37.1229 0.60503,-1.7356 0.8044,-8.2156 0.49071,-15.94979 -0.52329,-12.90234 -0.50101,-13.07675 2.33725,-18.29156 3.94868,-7.25503 6.04138,-8.44099 13.51609,-7.65973 3.31832,0.34684 6.96003,1.27971 8.09269,2.07306 3.52532,2.46923 8.46242,10.29408 12.86095,20.38343 2.3235,5.32965 5.03834,10.85334 6.03299,12.27486 0.99464,1.42152 1.81982,3.44652 1.83373,4.5 0.12918,9.78476 1.81277,15.41541 4.60927,15.41541 1.96752,0 1.87949,-3.27825 -0.44508,-16.57511 -1.05045,-6.00869 -2.21981,-13.60829 -2.59859,-16.888 -0.75014,-6.4953 -2.31126,-9.21708 -11.91483,-20.77323 l -5.59813,-6.73634 -7.37504,0.62342 c -8.92451,0.7544 -11.48535,0.19469 -14.94689,-3.26685 -2.15198,-2.15197 -2.65662,-3.5866 -2.65662,-7.55237 0,-10.09019 5.27623,-16.9215 14.54528,-18.83225 7.6581,-1.57867 10.40621,-3.03952 18.59363,-9.88407 16.20653,-13.5484 27.38993,-20.0388 34.61897,-20.09146 2.04462,-0.0149 6.58602,-1.91603 12.19474,-5.10498 12.15515,-6.91106 16.05999,-7.98105 25.02023,-6.85596 7.08079,0.8891 7.24304,0.85795 10.91861,-2.09581 2.05205,-1.64908 5.16595,-3.40986 6.91977,-3.91285 5.50432,-1.57862 7.26036,-0.72213 24.04807,11.72921 3.49762,2.59416 8.96238,6.54037 12.14392,8.76935 3.18154,2.22899 8.34362,6.39149 11.47128,9.25 3.12767,2.85852 6.29989,5.1973 7.04938,5.1973 0.74949,0 1.95073,0.83544 2.66942,1.85654 0.71868,1.0211 2.24318,2.1523 3.38777,2.51377 2.4182,0.7637 8.7147,16.04055 9.85799,23.91788 0.38221,2.6335 1.58778,7.3585 2.67904,10.5 1.09125,3.14149 4.19153,16.73681 6.88951,30.21181 5.63012,28.11955 8.10305,35.73141 14.73553,45.35713 6.9581,10.0983 19.20667,23.55172 23.4043,25.70652 2.0061,1.02979 4.7061,3.28747 6,5.01706 5.29581,7.07899 20.48791,22.77682 31.85875,32.91929 11.50146,10.25898 21.85966,20.83991 23.49269,23.99784 0.82447,1.59434 2.962,5.05956 4.75008,7.70048 2.94369,4.34774 3.24173,5.46737 3.1526,11.84319 -0.22475,16.07575 -8.73037,32.70032 -24.53917,47.96276 -14.33042,13.83516 -22.65761,19.85847 -42.36239,30.64202 -40.02872,21.90593 -44.83622,23.44902 -63.5,20.38197 z"
       id="path3942"
       inkscape:connector-curvature="0" />
    <path
       style="fill:#878787"
       d="m -667.7706,705.19191 c -16.77207,-3.36358 -29.4327,-6.50736 -32.44174,-8.05568 -5.34228,-2.7489 -10.77887,-9.27044 -16.55826,-19.86268 -4.78583,-8.77128 -10.14825,-18.2168 -14.56284,-25.65141 -5.24746,-8.83723 -13.93716,-27.80943 -13.93716,-30.42896 0,-0.91907 0.40164,-2.09854 0.89253,-2.62104 0.49089,-0.5225 2.75864,-5.6158 5.03945,-11.31844 4.84737,-12.11979 6.49851,-14.51783 18.54384,-26.93227 9.25539,-9.539 17.72209,-16.10555 18.34737,-14.22972 0.19338,0.58014 -2.89712,4.53351 -6.86779,8.78526 -9.05832,9.69956 -9.84843,11.29685 -7.34725,14.85324 4.89731,6.96343 5.2701,7.89518 4.75788,11.89193 -0.4773,3.72426 -0.15733,4.37914 4.64157,9.5 4.68217,4.99629 5.10279,5.82559 4.59265,9.05511 -0.73684,4.6648 1.15068,7.25408 6.44417,8.84005 2.62192,0.78555 4.36937,1.97117 4.68518,3.17883 0.27701,1.0593 1.12618,1.92601 1.88703,1.92601 0.92994,0 1.38698,1.22915 1.39438,3.75 0.006,2.0625 0.2595,5.325 0.56323,7.25 0.50635,3.20924 0.004,4.11808 -6.04195,10.94014 -10.09402,11.38898 -14.68216,22.117 -13.08958,30.60616 0.91033,4.85246 1.77642,3.70841 2.62206,-3.46358 1.11569,-9.46224 4.34352,-14.70427 15.59239,-25.3222 7.69688,-7.26517 27.35714,-23.12136 34.3393,-27.69498 4.67305,-3.06105 17.27305,-9.94629 28,-15.30054 18.47356,-9.2209 23.06138,-11.81182 14.37566,-8.11851 -5.81347,2.47199 -19.71453,7.35662 -20.8639,7.33127 -0.55452,-0.0122 0.11678,-0.94776 1.49178,-2.07895 l 2.5,-2.05673 -2.86666,0.62729 c -7.91528,1.73205 -8.85947,1.78277 -9.64117,0.51796 -0.44297,-0.71673 -0.31962,-2.3693 0.27409,-3.67237 0.7925,-1.73934 0.76767,-2.68103 -0.0934,-3.54209 -0.64507,-0.64508 -1.17286,-2.43287 -1.17286,-3.97287 0,-1.54 -0.39375,-2.8 -0.875,-2.8 -0.48125,0 -1.12366,-1.2375 -1.42758,-2.75 -0.87172,-4.33827 -4.97884,-9.70894 -7.72485,-10.1014 -1.35229,-0.19328 -4.82685,0.2167 -7.72125,0.91106 -2.89439,0.69435 -5.5825,0.94249 -5.97357,0.55142 -0.39107,-0.39106 -0.62511,-4.53169 -0.5201,-9.20138 l 0.19094,-8.49034 -4.7243,-5.02194 c -2.59836,-2.76207 -6.29929,-5.97207 -8.22429,-7.13334 -1.925,-1.16126 -3.67663,-2.24737 -3.8925,-2.41357 -2.14444,-1.65096 17.53323,-13.09312 30.8925,-17.96336 5.775,-2.10532 9.70497,-3.98815 8.73326,-4.18405 -2.10791,-0.42498 -16.39069,4.16342 -22.73326,7.30315 -2.475,1.22519 -7.40911,3.2511 -10.9647,4.50203 -3.55558,1.25093 -8.63408,3.60925 -11.28556,5.24072 l -4.82086,2.96631 -2.61185,-2.81824 c -2.51856,-2.71757 -2.55373,-2.91952 -0.98462,-5.65354 1.25812,-2.19215 1.37229,-3.24352 0.5033,-4.63499 -0.90224,-1.44471 -0.6637,-2.42218 1.20932,-4.95557 2.24471,-3.03614 2.26327,-3.20705 0.48909,-4.50436 -1.40411,-1.02671 -1.69382,-2.10012 -1.21413,-4.49854 0.53655,-2.68277 0.33703,-3.15007 -1.34499,-3.15007 -1.14735,0 -1.975,-0.67345 -1.975,-1.60703 0,-0.88387 -1.36872,-4.47494 -3.04161,-7.98015 -1.67288,-3.50521 -3.05495,-6.71954 -3.07125,-7.14296 -0.0163,-0.42342 -0.76274,-1.5799 -1.65873,-2.56996 -1.31506,-1.45313 -1.42101,-2.35129 -0.54968,-4.65971 1.30224,-3.45004 -0.30809,-9.71031 -2.65547,-10.32329 -1.42004,-0.37081 -1.57157,-1.66963 -1.09559,-9.39017 0.0398,-0.64531 1.19733,-2.51027 2.57233,-4.14436 1.76837,-2.10159 2.5,-4.15935 2.5,-7.03141 0,-3.84865 -0.18247,-4.09457 -3.5,-4.71694 -2.44472,-0.45863 -3.5,-1.1938 -3.5,-2.43832 0,-0.97995 -0.69649,-2.04899 -1.54776,-2.37565 -1.17933,-0.45255 -1.39088,-1.43021 -0.88871,-4.10699 0.36248,-1.93218 0.37436,-5.03059 0.0264,-6.88536 -0.53961,-2.87641 -1.30648,-3.62964 -5.21505,-5.12233 -4.45424,-1.70109 -4.71237,-1.69212 -9.22865,0.32072 -2.55542,1.13892 -5.77123,2.36728 -7.14623,2.7297 -1.375,0.36242 -4.3,2.38933 -6.5,4.50424 -2.2,2.11491 -5.70708,4.55582 -7.79351,5.42423 -4.06649,1.69256 -5.78943,4.22841 -3.73542,5.49786 0.9536,0.58935 0.62224,1.72249 -1.35429,4.63121 -2.66009,3.91468 -3.2977,7.76296 -1.70339,10.28078 0.6506,1.02745 2.00583,1.21452 5.15288,0.71128 3.85838,-0.61698 4.52462,-0.40417 6.90962,2.20707 2.09041,2.28871 2.64396,3.90895 2.66095,7.78871 0.016,3.64771 0.70357,5.89219 2.69231,8.78838 1.46897,2.13925 2.67085,4.95175 2.67085,6.25 0,1.34422 0.59618,2.36045 1.38478,2.36045 0.92855,0 1.61117,1.812 2.07195,5.5 0.37795,3.025 1.1048,5.5 1.61523,5.5 0.51042,0 0.92804,1.09844 0.92804,2.44098 0,1.34254 0.45,2.7191 1,3.05902 0.55,0.33992 1.00001,1.37898 1.00003,2.30902 5e-5,3.02419 6.08237,6.91825 10.80595,6.91825 5.00233,0 5.69615,0.46592 4.37374,2.93708 -0.54028,1.00961 -1.29748,3.93743 -1.68266,6.50627 l -0.70034,4.67061 4.79766,-0.17061 4.79766,-0.17062 -0.26608,4.6611 c -0.19441,3.40564 0.15841,4.89866 1.30991,5.54307 0.86679,0.48509 1.68582,2.43759 1.82006,4.3389 0.22735,3.22004 -0.47544,4.11311 -10.25593,13.03269 -17.94453,16.365 -29.51089,31.83622 -31.81194,42.5518 l -0.83156,3.87244 -4.79201,-7.35096 c -2.6356,-4.04303 -6.75113,-11.03372 -9.14561,-15.53487 -3.7999,-7.14308 -4.94279,-8.47017 -8.98631,-10.43467 -2.67035,-1.29735 -5.45586,-1.9895 -6.57595,-1.63399 -1.48859,0.47246 -3.79171,-1.20204 -9.8441,-7.15718 -4.34548,-4.27567 -8.94085,-8.31884 -10.21194,-8.98483 -2.67483,-1.40149 -8.79409,-8.68282 -10.40029,-12.37535 -1.8243,-4.19395 -6.34152,-8.91141 -11.25569,-11.75464 -12.46211,-7.21031 -25.72355,-22.89055 -17.6446,-20.86287 1.52483,0.38271 2.5,0.20101 2.5,-0.46583 0,-2.4022 11.05218,-12.64387 14.88311,-13.79164 5.43452,-1.62822 6.91465,-3.61418 4.59991,-6.17193 -2.41445,-2.66794 -4.36907,-2.50624 -12.10505,1.00142 -7.4407,3.37378 -14.37797,9.95543 -14.37797,13.64094 0,3.62513 -1.72007,2.84486 -4.13023,-1.8736 -2.07565,-4.06357 -2.17718,-5.57796 -2.31475,-34.5236 -0.0791,-16.65049 0.19988,-30.82549 0.62004,-31.5 0.60073,-0.96443 1.20257,-0.9545 2.81746,0.0465 1.4652,0.90818 2.60112,0.9798 3.96477,0.25 1.05118,-0.56261 3.23571,-1.0229 4.85452,-1.0229 5.11158,0 6.72353,-5.06054 2.08129,-6.53393 -2.94529,-0.9348 -1.208,-2.46607 2.79784,-2.46607 5.14038,0 8.73305,4.38937 15.2413,18.62115 2.98773,6.53337 6.07107,12.63994 6.85186,13.57015 0.85596,1.01976 1.51291,4.39477 1.65454,8.5 0.28053,8.13142 2.70422,13.71102 6.66925,15.35339 4.45471,1.8452 5.32513,0.96058 5.02962,-5.11167 -0.57595,-11.83488 -4.68043,-33.03102 -7.44229,-38.43302 -1.27278,-2.48948 -10.96196,-14.89133 -15.02127,-19.22677 l -3.02125,-3.22677 -8.57635,0.59626 c -8.22554,0.57187 -8.68884,0.49107 -11.32635,-1.97548 -2.11054,-1.97373 -2.75,-3.49925 -2.75,-6.56047 0,-4.87472 1.44216,-5.97284 4.32403,-3.29252 1.19678,1.11309 3.97597,2.34293 6.17597,2.733 2.2,0.39006 4.67041,1.06728 5.48981,1.50493 1.00943,0.53916 2.85324,-0.3215 5.71829,-2.66919 6.92028,-5.67065 13.2919,-6.91156 13.2919,-2.58869 0,1.02139 -1.125,2.91395 -2.5,4.2057 -3.15896,2.96769 -3.13973,4.19588 0.0892,5.69431 2.95231,1.37008 6.80538,0.32586 7.73482,-2.09622 0.32821,-0.85532 2.75209,-2.60468 5.38638,-3.88747 2.6343,-1.2828 5.68963,-2.79447 6.78963,-3.35929 1.1,-0.56481 3.34682,-1.67789 4.99292,-2.47351 6.00885,-2.90425 3.22914,-8.50626 -3.7559,-7.56937 -4.07767,0.54693 -5.55108,-0.31469 -8.73702,-5.10922 -1.15676,-1.7408 -2.75856,-2.37979 -7,-2.79244 -10.98236,-1.06846 -10.84763,-0.95442 -6.44932,-5.45869 4.71073,-4.82423 6.45192,-5.43238 11.13154,-3.88796 3.13333,1.03409 3.82003,0.97348 4.84455,-0.42763 1.68169,-2.29985 2.29319,-2.04264 2.65681,1.11749 0.29967,2.60439 0.55468,2.73228 4.81642,2.41528 2.475,-0.18409 5.85,-0.92481 7.5,-1.64603 1.65,-0.72123 5.66823,-1.80925 8.92939,-2.41782 3.26117,-0.60857 7.02685,-1.82558 8.36819,-2.70446 2.10935,-1.38209 2.36553,-2.1442 1.89644,-5.64158 -0.5798,-4.32268 -1.88658,-5.71563 -5.385,-5.74008 -3.25605,-0.0227 -3.94884,-2.0788 -1.39677,-4.14534 2.94505,-2.38475 8.95767,-3.48305 11.00099,-2.0095 0.87272,0.62937 2.59926,1.58209 3.83676,2.11717 1.2375,0.53507 2.25,1.71651 2.25,2.62542 0,1.3637 0.68862,1.54244 3.93964,1.02258 2.26753,-0.36259 4.20253,-0.20462 4.55902,0.37219 1.03299,1.67141 13.74926,1.21725 16.31924,-0.58284 4.03153,-2.82381 -0.0617,-9.41499 -5.84693,-9.41499 -3.51605,0 -5.971,-0.91085 -5.971,-2.2154 0,-0.55078 1.03075,-0.74272 2.29055,-0.42653 1.39322,0.34968 3.55355,-0.19318 5.51454,-1.38573 3.18184,-1.93499 3.27068,-1.93562 6.79315,-0.0477 2.92748,1.56903 4.1384,1.72168 6.73546,0.84905 1.74146,-0.58514 3.73724,-1.51071 4.43506,-2.05681 1.43926,-1.12636 5.29961,1.72672 4.94155,3.65217 -0.1201,0.64586 1.17493,1.14556 3.01934,1.16504 2.28486,0.0241 4.24809,1.02122 6.71109,3.40845 3.63291,3.52116 3.78487,5.05744 0.50024,5.05744 -2.25771,0 -2.39573,0.81715 -0.54893,3.25 1.68707,2.22244 6.80878,2.43693 5.96958,0.25 -0.74106,-1.93116 -0.46366,-1.90131 5.30347,0.57077 5.94472,2.54821 11.66269,7.95219 14.80501,13.99204 1.30563,2.50955 3.08398,5.15215 3.95188,5.87245 2.09493,1.73863 1.99062,2.79901 -0.34836,3.54137 -1.05951,0.33628 -3.76384,2.44887 -6.00962,4.69466 l -4.08325,4.08324 -4.4522,-1.24653 c -4.07281,-1.14032 -8.65546,-0.98244 -16.60967,0.57224 -1.94158,0.37948 -3.1185,1.73522 -4.75,5.47166 -2.64396,6.05517 -2.64754,6.15052 -0.21646,5.76096 1.07502,-0.17226 2.60495,0.57674 3.40443,1.66669 1.43212,1.95243 1.53577,1.93951 7.56768,-0.94348 6.05838,-2.89565 8.88066,-5.10474 8.98907,-7.03607 0.0309,-0.55 2.19718,-1.14162 4.81402,-1.31471 2.61684,-0.17308 5.52029,-1.00467 6.45211,-1.84796 0.93183,-0.84329 2.08633,-1.29092 2.56557,-0.99474 0.47923,0.29618 3.99508,0.78786 7.81301,1.09262 7.82281,0.62445 9.44168,1.88335 9.44168,7.34224 0,1.86735 0.89083,6.61884 1.97962,10.55887 5.185,18.76299 9.70279,39.64983 11.03632,51.02355 0.50685,4.32293 1.32979,8.37293 1.82876,9 0.49896,0.62707 2.47707,4.7912 4.39579,9.25362 1.91873,4.46242 5.36353,10.59683 7.65512,13.63202 4.69458,6.21792 16.01377,16.63078 20.71567,19.05696 1.7112,0.88298 4.4112,3.23477 6,5.2262 6.54452,8.20302 16.89354,18.65795 34.38872,34.74062 20.24136,18.60714 21.00285,19.39321 20.99384,21.67184 -0.005,1.18162 -1.16792,1.58118 -4.80677,1.65104 -2.64033,0.0507 -5.67506,0.62356 -6.74383,1.27304 -1.69153,1.02791 -1.4251,1.16533 2.05676,1.06094 11.51679,-0.34531 12.27393,-0.15274 14.96395,3.80598 2.07955,3.06034 2.53335,4.90538 2.52104,10.25 -0.0188,8.1467 -3.56202,19.91378 -8.38912,27.86006 -9.94892,16.37768 -31.88237,35.19178 -56.09587,48.11798 -5.5,2.93613 -12.09718,6.81653 -14.6604,8.62309 -6.12792,4.31898 -11.15258,6.83399 -21.12374,10.57313 -6.61688,2.4813 -10.06476,3.14267 -17.71586,3.39824 -5.225,0.17453 -11.3,-0.0437 -13.5,-0.48486 z m 12.24827,-21.81457 c 0.65821,-1.97465 -3.32446,-3.36683 -6.34563,-2.21818 -3.02797,1.15123 -2.34246,2.53949 1.59736,3.23489 3.25201,0.574 4.29228,0.35125 4.74827,-1.01671 z m 22.92069,0.28446 c 1.55707,-0.80319 3.95604,-1.68365 5.33104,-1.95657 1.375,-0.27293 3.4,-1.19077 4.5,-2.03966 1.89107,-1.45937 1.90468,-1.61752 0.25,-2.90367 -0.9625,-0.74814 -1.75224,-1.76064 -1.75497,-2.25 -0.0109,-1.96075 -4.69926,-6.69059 -5.89769,-5.94992 -0.67853,0.41935 -0.97655,1.43255 -0.66227,2.25155 0.98674,2.57141 -0.44046,3.35119 -3.02913,1.65502 -2.91707,-1.91133 -8.32521,-2.6779 -10.26142,-1.45448 -1.11803,0.70645 -1.05914,1.30874 0.3362,3.4383 0.93042,1.42 1.42217,3.01789 1.09277,3.55086 -0.88043,1.42457 1.4473,5.957 3.31584,6.45642 2.94964,0.78836 3.92772,0.67326 6.77963,-0.79785 z m -28.93402,-5.35468 c 0.67922,-0.43142 1.52004,-2.20988 1.86849,-3.95214 0.54564,-2.7282 0.27907,-3.32925 -1.92117,-4.33175 -3.9056,-1.77951 -5.89912,-0.60168 -4.63026,2.73568 0.5663,1.48947 0.81727,3.26153 0.55772,3.93791 -0.8582,2.23642 1.6178,3.20293 4.12522,1.6103 z m -98.5631,-113.83459 c 1.27653,-5.99416 1.57052,-11.27893 1.24334,-22.35039 -0.48823,-16.52166 -0.63533,-17.5853 -3.94165,-28.5 -1.33286,-4.4 -3.17576,-10.60179 -4.09533,-13.78176 -1.984,-6.86082 -3.3782,-8.21336 -3.3782,-3.27726 0,2.05099 -0.74151,4.30635 -1.75,5.32273 -2.69513,2.71626 -4.3243,7.09208 -3.64626,9.79359 0.45978,1.83191 0.2109,2.4427 -0.99533,2.4427 -1.76525,0 -2.20241,2.51485 -0.60841,3.5 0.55,0.33992 1,2.13992 1,4 0,1.86008 0.4346,3.65056 0.96578,3.97885 0.57335,0.35435 0.72061,3.77619 0.36241,8.4212 l -0.60337,7.82433 3.05238,1.80308 c 1.67881,0.99169 3.44854,2.74121 3.93275,3.88781 1.321,3.12815 0.65059,13.78607 -1.13618,18.06241 -2.99714,7.17317 -1.02074,10.44097 4.84149,8.00495 2.81902,-1.17143 3.22875,-1.95809 4.75658,-9.13224 z m -12.13666,-40.28465 c -1.47403,-2.75425 -1.33119,-3.06574 1.4058,-3.06574 3.15819,0 3.99064,1.42552 1.99678,3.41938 -2.00081,2.00082 -2.15086,1.98522 -3.40258,-0.35364 z m -1.5873,-5.35887 c -0.83712,-2.15994 -0.16842,-3.00087 2.02397,-2.54527 1.45227,0.3018 1.46846,0.5547 0.14968,2.3384 -1.39092,1.88129 -1.51994,1.89357 -2.17365,0.20687 z m 135.80212,11.63085 c -0.6875,-0.27741 -1.8125,-0.27741 -2.5,0 -0.6875,0.27741 -0.125,0.50439 1.25,0.50439 1.375,0 1.9375,-0.22698 1.25,-0.50439 z m 4.47917,-0.94189 c -0.33229,-0.33229 -1.1948,-0.36781 -1.91667,-0.0789 -0.79773,0.31922 -0.56078,0.55618 0.60417,0.60416 1.05416,0.0434 1.64479,-0.19293 1.3125,-0.52522 z m 7.77083,-1.39583 c 2.69472,-0.68569 2.7456,-0.76527 0.5,-0.78201 -1.375,-0.0102 -3.625,0.34166 -5,0.78201 -1.95899,0.62738 -2.0672,0.79661 -0.5,0.78201 1.1,-0.0103 3.35,-0.36216 5,-0.78201 z m 11.26166,-1.68708 c -0.95609,-0.25029 -2.75609,-0.25937 -4,-0.0202 -1.24391,0.23919 -0.46166,0.44398 1.73834,0.45508 2.2,0.0111 3.21775,-0.18461 2.26166,-0.4349 z M -756.2706,451.9676 c 3.39819,-5.16528 5.63656,-6.8841 10,-7.67885 6.36922,-1.16008 13,-5.54163 13,-8.59026 0,-1.47652 1.24935,-3.45342 3.25,-5.14263 3.60653,-3.04509 12.35136,-7.40879 14.87756,-7.42395 2.23811,-0.0134 3.93308,-2.29501 4.17218,-5.61611 0.17537,-2.43582 -0.35907,-2.99927 -4.29974,-4.53322 -2.475,-0.96342 -7.2757,-1.77615 -10.66821,-1.80606 -7.7647,-0.0685 -9.33179,-0.67944 -9.33179,-3.63832 0,-1.42447 -0.99737,-3.02345 -2.5,-4.00802 -2.31956,-1.51983 -2.68432,-1.51729 -5.05374,0.0352 -4.10529,2.68988 -4.19943,4.5646 -0.38896,7.74572 2.98581,2.49266 3.25305,3.08443 2.17354,4.81299 -0.67696,1.08399 -1.23084,2.6743 -1.23084,3.53403 0,0.85972 -1.575,3.18486 -3.5,5.16697 -4.07261,4.19343 -4.28474,5.48803 -1.34761,8.22438 l 2.1524,2.00526 -2.4024,2.00043 c -3.54302,2.9502 -7.11597,2.62192 -9.71433,-0.89255 -1.20343,-1.62771 -2.18806,-3.17441 -2.18806,-3.43711 0,-0.26269 1.63539,-0.21223 3.63421,0.11213 4.69596,0.76205 4.28375,-1.4568 -0.73382,-3.94998 -3.93963,-1.95756 -7.71614,-2.19391 -16.40039,-1.02641 -7.37391,0.99133 -8.6681,1.74296 -7.94715,4.61547 0.35598,1.41832 -0.19153,3.18767 -1.50189,4.85352 -1.22335,1.55523 -1.62314,2.76785 -0.98291,2.98126 0.59355,0.19785 -0.10373,1.63612 -1.54951,3.19615 -1.90968,2.06058 -2.54526,3.69503 -2.32362,5.97546 0.46797,4.81505 3.77833,4.72322 7.68809,-0.21325 1.7243,-2.1771 4.48102,-4.42756 6.12604,-5.00102 3.32067,-1.15759 3.47894,-0.84498 1.88584,3.72498 -1.81165,5.19691 1.28867,7.32812 9.60511,6.60271 2.81177,-0.24526 4.44559,-1.02621 5.5,-2.62892 z m 15,-16.8669 c 0,-1.30533 4.78903,-3.52287 5.68123,-2.63067 0.79085,0.79086 -2.61584,3.57412 -4.43123,3.62031 -0.6875,0.0175 -1.25,-0.42785 -1.25,-0.98964 z m 27.5,-8.97856 c 0.33992,-0.55 -0.28197,-1 -1.38197,-1 -1.1,0 -2.27811,0.45 -2.61803,1 -0.33992,0.55 0.28197,1 1.38197,1 1.1,0 2.27811,-0.45 2.61803,-1 z m -32.9427,-24.41824 c 1.06675,-0.78003 1.63251,-1.72528 1.25724,-2.10055 -0.37527,-0.37527 -1.69691,0.26294 -2.93699,1.41824 -2.53608,2.36273 -1.30322,2.86351 1.67975,0.68231 z m -9.0573,-3.82565 c 1.65,-0.57162 3.71043,-1.6506 4.57874,-2.39771 0.86831,-0.74712 2.33081,-1.3584 3.25,-1.3584 2.48481,0 2.05917,-4.09966 -0.6968,-6.71134 -1.8701,-1.7722 -3.10785,-2.1028 -6.23272,-1.66475 -6.27637,0.87983 -7.21408,1.33383 -5.14922,2.49303 2.48489,1.395 2.16778,2.7401 -0.82293,3.49072 -3.51211,0.88148 -5.23526,5.32821 -2.76476,7.13468 0.97917,0.71599 2.46821,1.02083 3.309,0.67744 0.84078,-0.34339 2.87869,-1.09204 4.52869,-1.66367 z m 48.5,-0.75611 c 0,-0.55 -0.47656,-1 -1.05902,-1 -0.58246,0 -0.7809,0.45 -0.44098,1 0.33992,0.55 0.81648,1 1.05902,1 0.24254,0 0.44098,-0.45 0.44098,-1 z m -4.80382,-9.51208 c 0.66834,-5.74851 0.57775,-6.09787 -2.26578,-8.73792 -3.64791,-3.38687 -5.931,-3.42846 -12.79516,-0.23307 -4.64141,2.16066 -5.28371,2.79981 -4.76365,4.74023 0.3306,1.23356 0.60725,2.80534 0.61476,3.49284 0.008,0.69095 1.24356,1.25492 2.76365,1.26101 6.44911,0.0258 10.0271,1.20435 11.15205,3.67336 0.69268,1.52026 1.78341,2.33089 2.85895,2.12475 1.32155,-0.25328 1.90612,-1.77069 2.43518,-6.3212 z m -128.69618,49.51208 c 0.33992,-0.55 1.26648,-1 2.05902,-1 0.79254,0 1.44098,0.45 1.44098,1 0,0.55 -0.92656,1 -2.05902,1 -1.13246,0 -1.7809,-0.45 -1.44098,-1 z m 65,-65 c 0.33992,-0.55 1.29303,-1 2.11803,-1 0.825,0 1.22189,0.45 0.88197,1 -0.33992,0.55 -1.29303,1 -2.11803,1 -0.825,0 -1.22189,-0.45 -0.88197,-1 z"
       id="path3938"
       inkscape:connector-curvature="0" />
    <path
       style="fill:#7a7a7a"
       d="m -666.2706,705.14898 c -17.75649,-3.08194 -33.93301,-7.60092 -37.55918,-10.49233 -2.67924,-2.13635 -2.71867,-2.29974 -1.10939,-4.5973 0.95627,-1.36528 1.67274,-4.31496 1.67834,-6.90972 0.0126,-5.84728 3.61927,-13.56737 8.69002,-18.60113 24.06787,-23.89224 47.829,-40.55732 73.80021,-51.76043 4.4,-1.89801 11.97057,-5.29391 16.82349,-7.54644 15.20026,-7.05535 30.74443,-10.65526 49.57604,-11.48145 l 13.11494,-0.57538 2.49276,3.9488 c 5.90685,9.35705 0.8753,28.87445 -11.78621,45.71876 -4.51361,6.00471 -22.96857,23.0571 -27.30588,25.23064 -1.60332,0.80347 -5.94575,3.61597 -9.64983,6.25 -3.70407,2.63403 -7.09202,4.78914 -7.52877,4.78914 -1.27008,0 -19.09135,10.79115 -23.09147,13.98237 -9.96172,7.94726 -35.27123,14.27895 -48.14507,12.04447 z m 24.14608,-7.4166 c 1.88196,-1.31818 1.87213,-1.37262 -0.35531,-1.96929 -1.25992,-0.3375 -3.86577,-0.63386 -5.79077,-0.65857 l -3.5,-0.0449 5,-2.48873 c 2.75,-1.36879 6.93167,-2.76851 9.29259,-3.11048 2.43491,-0.35269 4.83786,-1.40026 5.55256,-2.42064 0.92175,-1.31598 2.78823,-1.86069 6.95313,-2.02919 6.81429,-0.27568 8.01964,0.56245 4.68678,3.25893 l -2.48506,2.01057 3,-0.64422 c 1.65,-0.35432 4.45922,-1.62736 6.24271,-2.82896 l 3.24271,-2.18474 -2.91824,-0.3078 c -6.06766,-0.64 -6.20343,-6.31495 -0.1799,-7.51966 1.62707,-0.32541 3.4274,-1.17236 4.00074,-1.8821 5.83542,-7.2238 7.55683,-8.79044 9.65887,-8.79044 1.28684,0 2.99713,-0.93861 3.80065,-2.0858 1.29173,-1.8442 1.26934,-2.42262 -0.19329,-4.99368 -2.22913,-3.91842 -7.4855,-4.00784 -13.42412,-0.22838 -12.57705,8.0043 -17.47724,9.14965 -20.35496,4.75769 -2.33504,-3.56371 -5.87517,-3.00498 -5.87517,0.92727 0,2.05563 -0.63333,3.11376 -2.21817,3.706 -1.34193,0.50146 -2.46664,0.42689 -2.84714,-0.18878 -0.34593,-0.55973 -1.71026,-1.42879 -3.03183,-1.93125 -1.32157,-0.50248 -2.40286,-1.59973 -2.40286,-2.43834 0,-0.83861 -0.675,-1.52475 -1.5,-1.52475 -1.76019,0 -1.9425,1.1575 -0.42182,2.67818 0.593,0.593 0.9305,2.3705 0.75,3.95 -0.29002,2.53789 -0.77311,2.90844 -4.15462,3.18674 -4.83977,0.39832 -8.67356,-1.96111 -8.67356,-5.33797 0,-1.91133 -0.51379,-2.46977 -2.25,-2.44553 -3.58664,0.0501 -5.43326,3.67599 -5.49066,10.78107 -0.0575,7.12069 -0.50108,8.0617 -2.87232,6.09374 -1.44335,-1.19787 -1.84845,-1.09691 -3.08769,0.76948 -1.17778,1.77383 -1.93124,2.00345 -4.32311,1.31747 -1.59321,-0.45693 -4.53037,-2.07681 -6.52704,-3.59974 -4.52673,-3.4527 -6.89736,-2.45656 -7.05525,2.96464 -0.0583,2.00305 0.0249,3.64192 0.1849,3.64192 0.16003,0 1.44961,-0.44051 2.86572,-0.97892 2.02457,-0.76974 3.4647,-0.51505 6.7395,1.19187 2.29061,1.19393 3.63626,2.34695 2.99035,2.56225 -2.01973,0.67324 -1.28218,2.2231 1.0756,2.26024 1.2375,0.0195 3.375,0.67854 4.75,1.46456 1.375,0.78602 3.76406,1.44508 5.30902,1.46456 4.94067,0.0623 1.84466,1.91874 -4.37317,2.62221 -3.30177,0.37355 -5.74415,0.93826 -5.42751,1.2549 2.35498,2.35499 32.22202,2.16103 35.63774,-0.23143 z m -17.89608,-0.95765 c -5.7544,-1.88777 -3.23647,-5.36949 2.66013,-3.67836 4.6376,1.33004 5.36716,1.98673 4.01598,3.6148 -1.31144,1.5802 -2.0321,1.58706 -6.67611,0.0636 z m 5.25,-19.65259 c -0.33992,-0.55 0.11008,-1 1,-1 0.88992,0 1.33992,0.45 1,1 -0.33992,0.55 -0.78992,1 -1,1 -0.21008,0 -0.66008,-0.45 -1,-1 z m 25.5,16.36983 c 3.025,-1.43585 4.94642,-2.81598 4.26983,-3.06695 -1.85374,-0.68763 -11.82992,2.46214 -13.26145,4.18702 -2.05416,2.47512 2.65262,1.8888 8.99162,-1.12007 z m 15.60417,-39.099 c -1.01652,-1.01651 -1.85525,0.51389 -1.02122,1.86338 0.63003,1.01942 0.86558,1.02021 1.2043,0.004 0.2316,-0.69479 0.14921,-1.53513 -0.18308,-1.86742 z m 27.61074,-1.25109 c -0.15679,-0.67664 0.21747,-1.8358 0.8317,-2.5759 0.90697,-1.09284 1.66967,-0.78005 4.05964,1.66485 3.37373,3.45128 5.96889,3.23247 8.55977,-0.72172 1.51016,-2.3048 1.48476,-2.60209 -0.39936,-4.67416 -1.10666,-1.21704 -2.44158,-3.56281 -2.9665,-5.21281 -0.72829,-2.28928 -1.64608,-3.0806 -3.87403,-3.34023 -1.6058,-0.18713 -3.29648,-0.86213 -3.75707,-1.5 -0.48261,-0.66836 -0.61127,0.16349 -0.30365,1.96326 0.66303,3.87909 -2.97825,7.95201 -6.19618,6.93068 -2.39615,-0.76051 -2.86281,-0.13717 -3.32022,4.43494 -0.31783,3.17698 -0.081,3.54552 2.65099,4.12536 3.7461,0.79506 5.08094,0.48526 4.71491,-1.09427 z m 23.14672,-12.51974 c 0.31658,-0.825 0.13972,-1.5 -0.39301,-1.5 -0.53274,0 -0.96862,0.675 -0.96862,1.5 0,0.825 0.17686,1.5 0.39301,1.5 0.21616,0 0.65203,-0.675 0.96862,-1.5 z m -2.10517,-3.5 c 1.56586,0 1.33888,-0.62333 -1.45,-3.98197 -1.81855,-2.19009 -4.09396,-3.99009 -5.05646,-4 -2.31215,-0.0238 -2.21544,1.51653 0.25,3.98197 1.1,1.1 2,2.99 2,4.2 0,1.71111 0.26667,1.93333 1.2,1 0.66,-0.66 2.03541,-1.2 3.05646,-1.2 z m -145.83852,49.14663 c -3.21772,-4.79217 -7.96752,-12.95331 -12.01639,-20.64663 -1.44729,-2.75 -4.88529,-8.75452 -7.64001,-13.34337 -4.18926,-6.97853 -14.76154,-28.92532 -14.76154,-30.64319 0,-0.28239 0.86045,-0.51344 1.9121,-0.51344 1.45852,0 2.07603,-0.97028 2.60316,-4.0903 0.80585,-4.7698 7.30004,-18.06972 10.94238,-22.4097 l 2.51776,-3 2.9854,3.5 c 2.61965,3.07121 2.98869,4.27375 3.0123,9.81574 0.0326,7.64677 0.88612,9.41513 5.90635,12.23666 2.79689,1.57194 4.17776,3.19121 4.9574,5.81323 0.59435,1.9989 1.57701,5.30037 2.18368,7.33659 0.60667,2.03622 1.89844,3.95468 2.8706,4.26323 0.97217,0.30855 2.77593,2.58005 4.00837,5.04778 1.23245,2.46772 2.79384,4.48677 3.46977,4.48677 1.19681,0 3.63073,5.32926 3.63073,7.9498 0,0.71929 -1.56369,3.03862 -3.47487,5.15407 -3.8533,4.26514 -9.88945,15.61425 -10.97904,20.64267 -0.39522,1.82394 -0.19557,4.78553 0.45564,6.75871 1.84046,5.57664 0.59136,6.37014 -2.58379,1.64138 z m -3.41794,-12.08761 c 0,-1.17986 -1.95035,-2.442 -2.66667,-1.72569 -0.71631,0.71632 0.54583,2.66667 1.72569,2.66667 0.51754,0 0.94098,-0.42344 0.94098,-0.94098 z m -38.17753,-66.26956 c -2.02264,-3.04722 -5.78877,-9.44511 -8.36918,-14.21754 -4.13751,-7.65228 -4.50678,-8.81857 -3.12645,-9.87453 0.86085,-0.65857 2.79084,-5.92239 4.28887,-11.69739 4.46403,-17.20919 3.97947,-42.97709 -1.12913,-60.04483 -1.3652,-4.5611 -2.37067,-8.39051 -2.23438,-8.5098 0.13629,-0.11929 2.1603,-0.53285 4.4978,-0.91903 4.80313,-0.79352 5.03976,-0.35227 2.75,5.1279 -2.09622,5.01697 -1.90684,9.6676 0.48171,11.8292 1.56782,1.41887 2.94731,1.66107 6.60518,1.15971 4.12939,-0.566 4.54869,-0.44722 3.92374,1.11156 -2.58475,6.44696 -3.32087,10.56767 -2.29141,12.82709 0.59636,1.30886 1.83589,2.6183 2.75451,2.90986 0.91862,0.29156 2.65479,2.28192 3.85816,4.42301 1.67782,2.98529 2.65192,3.77157 4.17802,3.37249 1.40114,-0.36641 1.99009,-0.0253 1.99009,1.15258 0,1.54651 5.63436,7.56026 7.08331,7.56026 0.35068,0 2.36124,-1.1697 4.46793,-2.59933 3.6268,-2.46122 3.89989,-2.5042 5.13954,-0.80887 0.72007,0.98475 1.30922,2.79815 1.30922,4.02978 0,1.56091 0.68165,2.33613 2.25,2.55887 1.67924,0.23849 2.32401,1.08056 2.54176,3.31955 0.2534,2.60561 -0.61815,3.79992 -6.62971,9.08481 -11.64058,10.23349 -21.6083,22.0501 -25.81936,30.60856 -2.11263,4.29365 -4.07476,7.80663 -4.3603,7.80663 -0.28553,0 -1.28641,-1.2375 -2.22416,-2.75 -0.93776,-1.5125 -1.71699,-2.24819 -1.73162,-1.63486 -0.0146,0.61333 0.90632,2.30117 2.04657,3.75076 1.14025,1.44959 1.92775,3.38449 1.75,4.29978 -0.21637,1.11416 -1.53861,-0.16693 -4.00071,-3.87622 z m -7.14491,-18.83274 c -0.63179,-1.6738 -1.29688,-2.59875 -1.47799,-2.05544 -0.32197,0.96592 1.50076,5.09872 2.24875,5.09872 0.20787,0 -0.13897,-1.36948 -0.77076,-3.04328 z m 138.67691,18.56193 c 0.46214,-1.20432 -0.25648,-1.51865 -3.47199,-1.51865 -5.36581,0 -10.65654,-4.73483 -11.55265,-10.3388 -0.33832,-2.11574 -1.59103,-5.04254 -2.78381,-6.504 -1.19277,-1.46146 -3.39493,-4.79023 -4.89368,-7.39727 -1.67487,-2.91339 -3.64654,-4.97136 -5.11632,-5.34024 -1.31522,-0.3301 -2.63474,-1.23457 -2.93228,-2.00994 -0.32726,-0.85284 -1.9674,-1.40975 -4.15181,-1.40975 -3.46846,0 -3.58559,-0.11495 -2.97056,-2.91519 0.58401,-2.65896 -0.11218,-3.64336 -7.92054,-11.19957 -4.70846,-4.5564 -8.55012,-8.75707 -8.53703,-9.33481 0.0131,-0.57773 2.82559,-2.90964 6.25,-5.18201 10.33099,-6.85544 34.96646,-14.77988 49.9762,-16.07574 5.0712,-0.43782 6.75,-0.95546 6.75,-2.08132 0,-4.3783 -42.96628,5.14404 -58.21016,12.90076 -5.09486,2.59247 -9.78984,2.5387 -9.78984,-0.11212 0,-1.1 -0.40122,-2 -0.89159,-2 -0.49038,0 -1.17682,-1.13645 -1.52544,-2.52544 -0.34861,-1.38899 -1.49846,-3.39005 -2.55522,-4.44681 -2.23909,-2.23909 -5.02674,-7.35331 -5.03003,-9.22809 -10e-4,-0.71481 -2.25993,-5.32462 -5.01927,-10.24403 -5.30907,-9.46512 -7.03314,-15.57988 -5.06233,-17.95456 1.08719,-1.30998 0.80473,-4.87503 -0.68147,-8.60107 -1.04985,-2.63209 -0.98551,-12.45099 0.0906,-13.82103 0.57067,-0.72657 1.14094,-3.62156 1.26727,-6.4333 0.18667,-4.15474 -0.25912,-5.7803 -2.38007,-8.67897 -1.43537,-1.96168 -3.39922,-4.2417 -4.3641,-5.0667 -0.96489,-0.825 -2.33798,-3.72714 -3.05133,-6.44921 -0.71334,-2.72207 -2.32692,-5.98156 -3.58574,-7.24331 -1.89767,-1.90209 -2.09781,-2.6509 -1.17127,-4.38217 0.61463,-1.14844 2.4565,-2.65108 4.09305,-3.33919 2.6082,-1.09667 2.78366,-1.41038 1.42126,-2.54107 -3.63172,-3.01406 -0.92574,-4.01454 3.94572,-1.45885 6.30787,3.30928 16.99313,-1.63283 21.99916,-10.17498 l 2.48423,-4.23902 7.25831,-0.59711 c 3.99206,-0.3284 9.71192,-0.47132 12.71079,-0.31759 l 5.45249,0.2795 1.1816,5.9815 c 0.64988,3.28983 2.53572,11.6065 4.19074,18.4815 6.61921,27.49631 8.20459,34.94599 9.05694,42.55853 0.57093,5.09909 1.65889,9.19418 3.03971,11.44147 1.18279,1.925 2.59254,5.11391 3.13279,7.08647 2.35105,8.58424 19.16256,28.55224 26.17645,31.09129 1.47576,0.53423 8.14628,6.90028 14.82337,14.14678 10.83374,11.75762 38.17825,37.90942 45.14457,43.17546 1.45516,1.1 2.96087,3.05692 3.34602,4.34872 0.61295,2.05586 0.43619,2.2649 -1.41763,1.67653 -2.29897,-0.72967 -19.63627,1.67979 -30.07954,4.18031 -9.82502,2.35249 -26.70092,7.70731 -34,10.7884 -11.04415,4.66195 -11.30191,4.73518 -10.64553,3.02469 z M -769.37337,582.5908 c -0.84224,-0.84224 -3.75117,-1.88629 -6.46429,-2.32012 -4.40246,-0.70395 -5.67647,-1.56089 -11.847,-7.96866 -3.80274,-3.94893 -7.47353,-7.17988 -8.15733,-7.17988 -1.7829,0 -10.29399,-9.74205 -11.92829,-13.65348 -0.75954,-1.81783 -3.43896,-5.30527 -5.95428,-7.74988 -3.50909,-3.41045 -4.17952,-4.52059 -2.88108,-4.77069 1.53452,-0.29557 1.51249,-0.50647 -0.23637,-2.26301 -1.90741,-1.91579 -1.9321,-1.91307 -2.24789,0.24809 -0.27873,1.9075 -0.5964,2.04 -2.5,1.04275 -1.19939,-0.62833 -3.8695,-2.65247 -5.93358,-4.4981 -2.06409,-1.84562 -4.15918,-3.35568 -4.65576,-3.35568 -1.11336,0 -7.27303,-9.15167 -6.60757,-9.81712 0.26399,-0.26399 2.19982,0.71186 4.30185,2.16857 4.33987,3.00753 5.39423,3.28086 4.59205,1.19042 -0.59888,-1.56067 1.41547,-2.29321 7.62231,-2.77193 2.83946,-0.21899 3.81281,-0.89633 5.1575,-3.58899 0.91162,-1.82547 2.45479,-4.20004 3.42926,-5.27682 1.08767,-1.20186 1.89342,-3.95192 2.08685,-7.12251 0.40524,-6.64231 -2.12306,-9.82798 -7.62874,-9.61225 -6.03797,0.23659 -15.99546,-8.24245 -16.05283,-13.66937 -0.0329,-3.1162 -2.94638,-10.78582 -4.93827,-13 -0.98956,-1.1 -2.04596,-2.675 -2.34754,-3.5 -0.54464,-1.4899 -0.68566,-0.55997 -1.44066,9.5 -0.70672,9.41667 -0.0724,33.99904 0.90818,35.19496 0.53888,0.65722 0.81986,2.23222 0.6244,3.5 -0.34152,2.21521 -0.41872,2.18754 -1.98092,-0.70996 -2.20668,-4.09287 -4.27508,-24.91606 -3.31291,-33.35203 0.41609,-3.64813 0.69635,-12.568 0.62281,-19.82192 -0.0761,-7.51023 0.27993,-13.44459 0.82699,-13.78269 1.27784,-0.78975 4.04588,4.68718 4.04588,8.00531 0,1.66787 0.45819,2.4762 1.25,2.20524 0.69913,-0.23925 1.25,-2.06608 1.25,-4.14532 0,-3.68303 2.35489,-6.41934 4.424,-5.14056 0.49949,0.3087 2.07093,0.1192 3.49208,-0.42113 3.0929,-1.17591 3.57162,-5.56164 0.83392,-7.63985 -1.57287,-1.19398 -1.42842,-1.33166 1.4272,-1.36025 2.47274,-0.0247 3.866,0.79965 6.28383,3.7182 1.70866,2.0625 3.39172,4.875 3.74014,6.25 0.83487,3.29471 9.8795,20.87916 11.87134,23.08013 0.92984,1.02745 1.16285,1.96539 0.57804,2.32682 -0.53885,0.33303 -1.24384,0.0402 -1.56665,-0.65072 -1.03665,-2.21884 0.42475,5.90989 2.0409,11.35205 1.75778,5.91912 6.28764,10.89172 9.92194,10.89172 1.28437,0 2.53351,-0.3375 2.77586,-0.75 0.72647,-1.2365 -1.98755,-22.28624 -3.81078,-29.5562 -1.3418,-5.35027 -1.44263,-7.07225 -0.48188,-8.22987 0.97299,-1.17238 0.92204,-1.46393 -0.25581,-1.46393 -0.80891,0 -2.14497,-1.6875 -2.96901,-3.75 -1.94803,-4.87572 -17.23049,-23.93284 -19.86229,-24.76815 -1.11654,-0.35437 -4.18891,-0.091 -6.82748,0.58522 -7.70818,1.97555 -14.36535,-0.99921 -14.36535,-6.41916 0,-3.3399 0.79274,-4.26643 2.47583,-2.89369 0.7008,0.57158 3.29917,1.61449 5.77417,2.31759 2.475,0.70309 5.05841,1.70128 5.74092,2.21818 0.6825,0.5169 3.27335,0.63504 5.75744,0.26253 3.60069,-0.53996 4.6381,-0.36049 5.11607,0.88509 0.32975,0.85931 1.60666,1.56239 2.83757,1.56239 1.23091,0 3.05251,0.9 4.048,2 0.99549,1.1 2.53994,2 3.43213,2 2.03978,0 8.06787,5.42188 8.06787,7.25654 0,0.7531 1.30834,2.62274 2.90741,4.15476 l 2.90742,2.78548 3.04397,-2.25051 c 1.67418,-1.23777 3.26542,-2.82761 3.5361,-3.53297 0.27067,-0.70536 1.41755,-1.77774 2.54861,-2.38307 3.57114,-1.91121 2.40331,1.06391 -2.44748,6.23515 -2.45855,2.62097 -5.21959,5.90927 -6.13564,7.30735 -1.64983,2.51795 -1.64142,2.53591 0.88915,1.90077 2.21503,-0.55593 2.63866,-0.25902 3.186,2.23304 0.34721,1.58082 1.50964,4.31855 2.58318,6.08384 1.50229,2.47033 2.64562,3.20962 4.9637,3.20962 2.03749,0 4.26508,1.13225 6.88586,3.49997 3.14966,2.84553 3.99371,4.40199 4.51399,8.32405 0.35196,2.65325 1.29563,5.69076 2.09703,6.75003 0.8014,1.05927 1.4714,4.06345 1.4889,6.67595 0.0325,4.86116 -1.32457,6.35326 -2.47674,2.72309 -0.69253,-2.18196 -7.77441,-10.75858 -10.39448,-12.58839 -0.87834,-0.61342 -2.70488,-1.46152 -4.05897,-1.88467 -1.93778,-0.60556 -1.13931,0.6741 3.75,6.00992 3.41659,3.72862 6.21199,7.68396 6.21199,8.78966 0,1.88427 -0.11471,1.90656 -1.82874,0.35538 -2.86398,-2.59187 -3.28219,-2.05476 -3.18849,4.09501 0.0482,3.1625 -0.46567,7.775 -1.14189,10.25 -0.68322,2.5006 -1.13082,8.94312 -1.0074,14.5 0.23048,10.37773 -1.88975,20.20027 -4.58348,21.23419 -1.69641,0.65113 -1.58373,3.20052 0.17122,3.87395 1.76903,0.67884 0.22727,5.92904 -1.9911,6.7803 -0.78656,0.30183 -1.43012,1.59791 -1.43012,2.88018 0,1.28226 -0.39246,2.75888 -0.87214,3.28138 -0.47968,0.5225 -1.14632,2.777 -1.48144,5.01001 -0.56953,3.79506 -0.33316,4.32582 3.62214,8.13321 5.40993,5.20762 8.03633,6.51935 11.37535,5.68131 2.21757,-0.55658 2.57577,-0.38938 2.05775,0.96054 -0.4065,1.05934 0.0966,2.02179 1.42993,2.73535 1.68602,0.90233 2.49036,0.69392 4.45882,-1.15535 2.97688,-2.79664 3.84641,-2.05706 2.98432,2.5383 -0.71474,3.80989 -2.23004,4.46275 -4.6775,2.01529 z m -40.03683,-39.32059 c -1.45866,-2.33569 -4.8604,-4.54492 -4.8604,-3.15654 0,1.30784 3.70063,5.00847 5.00847,5.00847 0.62466,0 0.56831,-0.70482 -0.14807,-1.85193 z m 57.6396,-46.14807 c 0.33992,-0.55 1.06803,-1 1.61803,-1 0.55,0 0.72189,0.45 0.38197,1 -0.33992,0.55 -1.06803,1 -1.61803,1 -0.55,0 -0.72189,-0.45 -0.38197,-1 z m -3.83333,-60.66667 c -1.11682,-1.11681 -0.74619,-2.33333 0.71089,-2.33333 0.75765,0 1.93775,0.675 2.62244,1.5 1.0344,1.24637 0.9142,1.5 -0.71089,1.5 -1.07568,0 -2.25578,-0.3 -2.62244,-0.66667 z m -4.66667,-10.37483 c -3.025,-1.00997 -7.3,-1.8647 -9.5,-1.89939 -3.70466,-0.0584 -4.01529,-0.28199 -4.20714,-3.02787 -0.24905,-3.5647 -2.52592,-8.20664 -6.51537,-13.28309 -2.24491,-2.85659 -3.91489,-3.90639 -6.99842,-4.39947 -2.36127,-0.37758 -5.45393,-1.88033 -7.41714,-3.60405 -3.44199,-3.02211 -8.3722,-4.6783 -14.05291,-4.72077 -4.53057,-0.0339 -4.83416,-1.4304 -1.07657,-4.95214 3.65791,-3.42832 6.24296,-3.82789 9.59142,-1.48253 1.24789,0.87406 2.9802,1.31624 3.84957,0.98263 0.91067,-0.34946 2.11233,0.12052 2.83497,1.1088 0.98941,1.3531 2.91605,1.73478 9.12295,1.80734 7.44873,0.0871 7.8644,0.20991 7.78924,2.30201 -0.0913,2.54153 0.0118,2.58417 2.73079,1.12901 2.97961,-1.59464 3.41109,-0.37863 1.27384,3.58999 -2.89869,5.38255 -0.0134,8.06092 9.57477,8.88823 6.66413,0.57501 9.18314,1.79687 10.57575,5.12984 1.37194,3.28352 4.45058,5.19276 6.4153,3.97849 2.41445,-1.49221 0.71107,3.5683 -2.31205,6.86878 -3.74071,4.0839 -4.06168,4.12744 -11.679,1.58419 z m 50.56847,-11.84772 c -0.30227,-0.48907 -1.65898,-1.16766 -3.01492,-1.50798 -1.35594,-0.34032 -3.72269,-1.13422 -5.25945,-1.76422 -1.53675,-0.63 -4.20148,-1.22705 -5.92162,-1.32679 -2.43644,-0.14126 -4.8118,-1.84931 -10.75,-7.72998 -4.19236,-4.15176 -7.62248,-8.18479 -7.62248,-8.96229 0,-2.23543 -7.17477,-8.58649 -10.72601,-9.49459 -2.46685,-0.6308 -3.9973,-2.11923 -6.50351,-6.32493 -2.53106,-4.24741 -3.90299,-5.57206 -6.02398,-5.81642 -5.46037,-0.62909 -2.67517,-4.18358 3.27813,-4.18358 3.01087,0 9.97537,3.55981 9.97537,5.09878 0,0.49567 1.05526,0.90122 2.34501,0.90122 1.28976,0 3.18257,0.92549 4.20625,2.05664 1.1846,1.30897 2.61519,1.86742 3.93514,1.53613 1.14064,-0.28628 3.11466,-0.24835 4.3867,0.0843 1.98227,0.51837 2.2534,1.11369 1.89711,4.16555 -0.64835,5.55353 1.61624,9.03563 6.37077,9.79591 2.6323,0.42093 4.52226,1.44407 5.54182,3.00012 0.85097,1.29874 2.15463,2.36135 2.89703,2.36135 0.74239,0 1.88038,1.0125 2.52887,2.25 1.80185,3.43843 6.80145,7.57136 10.01214,8.27654 3.07692,0.67581 3.45144,1.83805 1.90391,5.90836 -0.98642,2.59447 -2.44998,3.30412 -3.45628,1.67588 z m 26.93153,-10.11078 c -1.1,-0.47269 -5.0375,-0.89106 -8.75,-0.92971 -4.88716,-0.0509 -6.75,-0.43441 -6.75,-1.38968 0,-0.72567 -1.8,-3.73194 -4,-6.68061 -2.2,-2.94867 -4,-6.11242 -4,-7.03057 0,-2.65731 -5.63221,-9.71217 -9.90911,-12.41205 -2.44655,-1.54444 -4.98512,-4.45367 -6.75518,-7.74152 -2.34658,-4.35872 -3.49543,-5.45103 -6.66038,-6.33262 l -3.82468,-1.06535 2.59071,-1.38651 c 2.25595,-1.20734 3.0453,-1.16973 6.10861,0.29106 1.93483,0.92266 4.90076,1.67756 6.59095,1.67756 2.32076,0 2.93215,0.3672 2.49745,1.5 -0.63454,1.6536 0.88455,2.08095 1.84915,0.5202 1.07382,-1.73748 12.75986,0.012 15.26248,2.28495 2.51321,2.28252 2.97377,3.90982 0.87908,3.10601 -1.4444,-0.55427 -8.62139,3.83159 -9.84771,6.01794 -0.42632,0.76006 0.26618,2.2064 1.70245,3.5557 2.36125,2.21828 2.62136,2.24334 10.52533,1.01378 6.11415,-0.95114 7.97524,-1.59687 7.57893,-2.62965 -0.30393,-0.79203 0.12131,-1.36893 1.00905,-1.36893 3.68449,0 10.31831,5.81619 8.15721,7.15183 -1.15368,0.71301 1.38847,4.53351 7.07871,10.63837 l 3.33305,3.5759 -2.33305,1.79472 c -1.28318,0.98709 -2.9052,1.80471 -3.60449,1.81694 -0.69929,0.0122 -1.78402,1.14724 -2.41051,2.52224 -1.17669,2.58254 -2.86569,2.98353 -6.31805,1.5 z"
       id="path3936"
       inkscape:connector-curvature="0" />
    <path
       style="fill:#676767"
       d="m -666.2706,704.61932 c -14.75699,-2.85179 -33.36557,-7.60006 -36.08853,-9.20855 -3.04623,-1.79945 -3.78932,-3.82935 -1.66147,-4.53862 0.79826,-0.26609 1.29419,-2.6165 1.37228,-6.50377 0.14795,-7.36537 2.72451,-13.11166 8.40557,-18.74624 2.21814,-2.2 6.3818,-6.41395 9.25257,-9.36434 17.16127,-17.63723 41.58871,-33.20891 72.71958,-46.35631 25.8226,-10.90558 40.02901,-14.60055 59.5,-15.47544 l 12,-0.5392 2,3.78987 c 2.43771,4.61931 2.55015,14.24667 0.22711,19.44542 -1.45073,3.24659 -1.57577,3.31899 -1.72711,1 -0.15199,-2.32895 -0.26547,-2.2652 -1.65864,0.93183 -0.82252,1.88751 -2.74916,5.26251 -4.28143,7.5 -1.53226,2.23749 -3.06916,4.96817 -3.41532,6.06817 -0.34615,1.1 -2.96903,4.01174 -5.82861,6.47053 -3.28274,2.82265 -4.89216,3.74418 -4.36619,2.5 2.19987,-5.2037 1.84892,-7.39747 -1.83591,-11.47614 -3.65976,-4.05091 -4.65165,-6.99439 -2.35698,-6.99439 0.69131,0 2.77932,1.65879 4.64001,3.68621 l 3.38308,3.68621 1.90736,-2.35549 c 2.57689,-3.18232 2.05741,-6.62049 -0.93737,-6.20407 -1.85031,0.25728 -2.25,-0.16209 -2.25,-2.36079 v -2.67364 l -1.88538,2.32835 c -1.60762,1.98532 -2.12083,2.13296 -3.48343,1.0021 -1.37849,-1.14405 -1.73431,-0.96786 -2.58987,1.28243 -1.20744,3.17581 -4.97243,3.58813 -5.74618,0.62929 -0.40605,-1.55273 -1.19421,-1.90073 -3.65639,-1.61443 -3.38347,0.39344 -3.581,1.16936 -1.57006,6.16747 2.40388,5.97476 -1.46771,11.26528 -5.06869,6.92636 -1.55942,-1.87899 -5.38512,-1.94581 -6.89998,-0.12051 -0.62968,0.75871 -2.39858,1.63022 -3.93088,1.93668 -1.82691,0.36538 -3.41327,1.72195 -4.60809,3.94061 -2.3335,4.33305 -7.31623,7.74322 -11.31391,7.74322 -1.72101,0 -3.40722,0.45 -3.74714,1 -0.33992,0.55 -1.40366,1 -2.36387,1 -0.96021,0 -3.48728,2.04298 -5.6157,4.53995 -2.12842,2.49697 -4.45182,4.31662 -5.16312,4.04367 -0.71129,-0.27295 -1.55923,-0.0659 -1.8843,0.46005 -0.93657,1.51541 -4.28662,1.11181 -5.2637,-0.63414 -0.53395,-0.9541 -1.85418,-1.45424 -3.29969,-1.25 -1.84125,0.26016 -2.48674,1.04809 -2.73657,3.34047 -0.52954,4.859 -1.77366,5.09355 -6.13199,1.15606 -4.40852,-3.98283 -7.04106,-4.67678 -7.04106,-1.85606 0,0.99 -0.54,2.34 -1.2,3 -0.93333,0.93333 -0.93333,1.46667 0,2.4 0.66,0.66 1.2,2.03851 1.2,3.06336 0,1.49986 -0.634,1.80223 -3.25,1.55 -2.70279,-0.2606 -3.25,-0.72833 -3.25,-2.77797 0,-2.97999 -3.78589,-5.23511 -6.87209,-4.09345 -3.15602,1.16749 -5.57119,5.98835 -4.93371,9.84806 l 0.54339,3.29 -3.62866,-1.79 c -2.01867,-0.9958 -3.89422,-2.78829 -4.2272,-4.04 -0.3292,-1.2375 -1.25465,-2.25 -2.05656,-2.25 -2.17726,0 -1.24719,5.06599 1.17483,6.39914 4.00692,2.20553 4.10214,4.53888 0.19098,4.67981 -1.20504,0.0434 -1.62848,0.30592 -0.94098,0.58333 1.44733,0.58401 1.69243,2.33772 0.32673,2.33772 -2.08399,0 -7.07673,-5.29638 -7.07673,-7.50711 0,-3.3668 -1.00836,-5.49289 -2.60515,-5.49289 -1.79108,0 -7.06891,8.35124 -8.47148,13.40464 -0.59606,2.14755 -2.03749,4.67693 -3.20318,5.62085 -2.06213,1.66982 -2.0712,1.78985 -0.33548,4.43891 0.98119,1.49747 3.85541,3.63897 6.38716,4.75889 5.2799,2.33555 25.62573,5.7109 35.22813,5.8443 3.575,0.0497 5.825,0.34725 5,0.6613 -0.825,0.31405 -1.725,0.89287 -2,1.28627 -1.06642,1.52556 -4.76204,1.6875 -11,0.48202 z m 110.81184,-94.75866 c 0.22855,-1.18678 -0.30446,-1.73852 -1.6795,-1.73852 -2.29335,0 -3.56338,1.49355 -2.59812,3.05537 0.97327,1.57479 3.89389,0.67569 4.27762,-1.31685 z m -80.80263,89.51148 c 0.0118,-0.96424 16.00802,-8.27849 17.99079,-8.22629 2.73514,0.072 -3.63779,4.69707 -9.48837,6.88606 -5.83816,2.18433 -8.51797,2.60675 -8.50242,1.34023 z m -51.55033,-8.31653 c -1.17263,-1.89735 0.53762,-2.36554 2.27922,-0.62395 1.55894,1.55895 1.56168,1.69048 0.0352,1.69048 -0.9104,0 -1.95188,-0.47994 -2.31442,-1.06653 z m -24.27706,-7.47786 c -3.44607,-4.88898 -3.80733,-6.08044 -2.02388,-6.67492 0.73532,-0.24511 0.90778,-1.38269 0.47253,-3.11688 -0.55244,-2.20108 -1.18358,-2.67589 -3.25316,-2.44735 -2.18207,0.24095 -2.95119,-0.46747 -5.12054,-4.71646 -1.40403,-2.75 -5.12466,-9.5 -8.26807,-15 -6.067,-10.61538 -13.46427,-26.35777 -12.73028,-27.09176 0.24164,-0.24163 2.58246,4.18016 5.20183,9.82621 4.37425,9.42871 10.81278,21.0462 16.69033,30.11553 1.29218,1.99389 3.12655,3.63083 4.07637,3.63764 0.94982,0.007 2.42407,1.07633 3.27611,2.3767 1.57631,2.40576 5.86916,16.5968 5.21767,17.24828 -0.1964,0.1964 -1.78891,-1.67424 -3.53891,-4.15699 z m 122.81818,-17.30062 c 0,-1.30156 3.06951,-3.70555 7.71016,-6.03848 5.67818,-2.8545 6.19155,-2.67137 2.72693,0.97277 -4.1995,4.41709 -10.43709,7.44455 -10.43709,5.06571 z m 12.96223,-2.19563 c 1.90422,-1.62765 4.15422,-2.94107 5,-2.91872 0.97428,0.0257 0.2691,1.12504 -1.92446,3 -1.90422,1.62765 -4.15422,2.94107 -5,2.91872 -0.97428,-0.0257 -0.2691,-1.12504 1.92446,-3 z m -24.96223,-13.95936 c 0,-0.55 0.45,-1 1,-1 0.55,0 1,0.45 1,1 0,0.55 -0.45,1 -1,1 -0.55,0 -1,-0.45 -1,-1 z m 49.19273,-8.98978 c 2.369,-3.28403 5.96306,-9.2423 7.9868,-13.24059 2.26411,-4.47321 3.70663,-6.45827 3.75,-5.1604 0.0887,2.65488 -5.06944,12.42311 -9.81448,18.58614 -5.3339,6.92789 -6.94173,6.77303 -1.92232,-0.18515 z m -71.69273,-41.17448 c -4.11947,-2.27278 -7.5,-6.23943 -7.5,-8.80032 0,-3.20009 -1.53825,-5.5165 -9.98448,-15.03542 -3.66015,-4.125 -6.93782,-8.26397 -7.28372,-9.19771 -0.3459,-0.93375 -1.88955,-2.35206 -3.43035,-3.1518 -3.42886,-1.77974 -12.13507,-10.10875 -14.65577,-14.02082 -1.8067,-2.80396 -1.80439,-2.91541 0.10023,-4.82003 4.79014,-4.79013 38.93001,-15.67292 49.44507,-15.76163 3.13004,-0.0264 5.9691,-0.49801 6.30902,-1.04801 1.50674,-2.43795 4.54793,-0.15762 16.86874,12.64839 7.22219,7.50661 21.00626,20.83606 30.63126,29.62099 16.15771,14.74746 21.5632,20.70795 16.15478,17.81346 -1.36118,-0.72849 -2.86017,-0.76515 -4.57815,-0.11198 -1.40487,0.53414 -5.59684,1.25097 -9.31547,1.59297 -13.49822,1.24142 -40.9479,6.44899 -47.03854,8.92384 -6.5547,2.66341 -12.42609,3.16683 -15.72262,1.34807 z m -144.7436,-17.41267 c -1.01269,-1.01269 0.34205,-3.42307 1.92391,-3.42307 0.83137,0 1.32633,0.72192 1.14301,1.66713 -0.34705,1.78952 -2.0553,2.76756 -3.06692,1.75594 z m -13.26195,-4.4292 c -2.55581,-2.82414 -1.36915,-3.37863 2.88701,-1.349 2.49737,1.1909 3.23763,1.97911 2.37381,2.52754 -1.99594,1.26721 -3.31483,0.97175 -5.26082,-1.17854 z m -18.12036,-16.24387 c -3.55999,-4.05664 -7.68468,-10.77275 -7.02264,-11.43478 0.3567,-0.3567 0.77441,-0.46105 0.92823,-0.23189 0.15382,0.22917 2.89188,3.45417 6.08456,7.16667 4.54508,5.28508 5.39031,6.75 3.89464,6.75 -1.05064,0 -2.79879,-1.0125 -3.88479,-2.25 z m 129.40733,-26.81251 c -1.21531,-0.70837 -1.56,-1.7976 -1.17707,-3.7196 0.30821,-1.54694 -0.1335,-4.01038 -1.02526,-5.71789 -0.86172,-1.65 -1.56954,-3.75718 -1.57293,-4.68261 -0.003,-0.92544 -0.9111,-1.96983 -2.01713,-2.32087 -1.10603,-0.35104 -2.65136,-1.87664 -3.43406,-3.39022 -0.7827,-1.51358 -2.12777,-3.33679 -2.98903,-4.05158 -0.86127,-0.71478 -1.56594,-2.29728 -1.56594,-3.51665 0,-1.39442 -0.92761,-2.63969 -2.5,-3.35612 -1.375,-0.62649 -2.5,-1.57095 -2.5,-2.09879 0,-0.52785 -1.36127,-2.45 -3.02504,-4.27144 -1.66377,-1.82145 -2.89596,-3.98672 -2.73819,-4.81172 0.27231,-1.42407 3.77683,-3.48225 10.13671,-5.95322 2.6978,-1.04817 2.77327,-1.22714 1.23448,-2.92749 -0.90145,-0.99608 -1.51951,-2.89291 -1.37348,-4.21518 0.21489,-1.94564 -0.21123,-2.42479 -2.23448,-2.51254 -4.37627,-0.18981 -4.55161,-0.3964 -2,-2.35637 2.28211,-1.75295 2.5118,-2.63344 2.63537,-10.10227 0.11754,-7.10411 -0.17886,-8.64499 -2.25,-11.69698 -3.14172,-4.62959 -3.03635,-5.50963 1.22441,-10.22579 3.80932,-4.21645 3.97734,-7.01016 0.4216,-7.01016 -2.37398,0 -2.3489,0.14661 -0.93543,-5.46679 0.85114,-3.38017 2.59113,-5.77374 7.78926,-10.7151 l 6.6933,-6.36266 7.1232,-0.29082 7.12321,-0.29081 1.29792,3.58935 c 0.81633,2.25752 1.78772,3.40139 2.61796,3.0828 1.46211,-0.56106 2.54764,1.64813 4.15407,8.45403 0.58418,2.475 3.09682,13.13327 5.58364,23.68506 2.48682,10.55178 4.52193,21.57678 4.52246,24.5 7.4e-4,4.06094 0.82255,6.96651 3.48318,12.31494 1.91521,3.85 3.48978,7.60717 3.49903,8.34927 0.0348,2.79053 7.75575,13.88201 14.1198,20.28366 l 6.60299,6.642 -6.10299,0.69036 c -8.68517,0.98246 -31.67929,6.00615 -41.10298,8.98007 -4.4,1.38854 -8,2.5177 -8,2.50923 0,-0.008 -0.77336,-0.46617 -1.71858,-1.0171 z m -160.00833,-4.55483 c -3.85336,-2.46339 -7.49182,-6.99726 -6.45078,-8.0383 0.7015,-0.7015 6.17948,3.75255 8.95524,7.28135 2.65146,3.3708 1.92683,3.58981 -2.50446,0.75695 z m 34.98064,-8.19304 c -2.88955,-2.71187 -6.67708,-5.65524 -8.41672,-6.54083 -2.60371,-1.32545 -3.35521,-2.5064 -4.25,-6.6787 -0.59786,-2.78769 -1.08701,-6.36372 -1.08701,-7.94673 0,-3.46453 -4.00912,-7.02336 -7.912,-7.02336 -1.50063,0 -3.97377,-1.21613 -5.72395,-2.81467 -3.14291,-2.87061 -7.36405,-12.38162 -7.36405,-16.59257 0,-1.28272 -0.9,-5.14946 -2,-8.59276 -1.1,-3.4433 -2,-8.44037 -2,-11.10459 0,-4.3305 0.30655,-5.00257 2.89158,-6.33935 3.78972,-1.95973 5.55181,-6.6841 3.32398,-8.91193 -0.87808,-0.87808 -1.29984,-1.89318 -0.93724,-2.25578 1.3326,-1.33261 5.36983,2.51781 7.08076,6.75313 0.96838,2.39718 3.76375,8.40852 6.21192,13.35852 2.44816,4.95 4.44621,9.78212 4.44011,10.73804 -0.006,0.95593 1.37873,6.07683 3.07742,11.3798 3.22276,10.0608 5.77256,13.62851 10.60737,14.84197 4.06074,1.01918 5.19752,-0.9719 4.25909,-7.45981 -0.43755,-3.025 -1.28777,-8.93707 -1.88937,-13.13793 -0.60161,-4.20087 -1.72681,-9.74118 -2.50046,-12.31181 -1.21298,-4.03044 -1.21104,-4.74892 0.0141,-5.21905 0.7814,-0.29985 1.42073,-1.17204 1.42073,-1.9382 0,-0.76615 0.6382,-1.39301 1.41821,-1.39301 0.78002,0 2.13002,-0.27314 3,-0.60699 1.24782,-0.47883 1.58385,0.10179 1.59156,2.75 0.005,1.84635 1.13037,5.76417 2.5,8.70629 2.99621,6.4362 3.21172,8.6617 0.74023,7.64424 -6.05054,-2.4909 -7.21344,-0.97798 -2,2.60197 5.5458,3.80818 7.86325,6.21647 6.68357,6.94555 -0.77876,0.4813 -0.75004,1.92054 0.10109,5.06563 0.91216,3.37062 0.92062,7.53587 0.0363,17.89331 -0.63393,7.425 -1.02174,15.525 -0.86179,18 l 0.29081,4.5 -3.74627,0.31014 c -3.3027,0.27342 -4.36832,-0.27366 -9,-4.62052 z m -50.55878,-22.68962 c 0.0204,-1.65 0.2445,-2.20394 0.49804,-1.23097 0.25354,0.97297 0.23687,2.32297 -0.0371,3 -0.27393,0.67703 -0.48137,-0.11903 -0.46099,-1.76903 z m -1.19495,-11.66667 c 0,-8.73682 0.50479,-8.58562 1.39112,0.41667 0.43186,4.38631 0.30465,6.75 -0.36327,6.75 -0.60819,0 -1.02785,-2.9261 -1.02785,-7.16667 z m 1,-18.51579 c 0,-4.40868 -0.29103,-11.45868 -0.64674,-15.66666 -0.44978,-5.32095 -0.30925,-7.65088 0.46146,-7.65088 1.70856,0 3.41984,7.82765 2.82637,12.92818 -0.29258,2.5145 -0.76388,7.44169 -1.04734,10.9493 -0.73755,9.1266 -1.59375,8.82579 -1.59375,-0.55994 z m 45.50631,-19.2888 c -0.35893,-1.63419 -4.25827,-7.35914 -8.66522,-12.72212 -7.66847,-9.33206 -7.91814,-9.79302 -5.81292,-10.73239 1.83661,-0.81952 2.52478,-0.53526 4.16917,1.72212 1.08321,1.48701 2.81093,2.70365 3.83938,2.70365 1.97792,0 3.01262,1.20989 8.52322,9.96628 3.88343,6.17079 4.33695,9.48335 1.5058,10.99854 -2.71275,1.45182 -2.82924,1.38846 -3.55943,-1.93608 z m -37.00631,-25.22369 c -2.12715,-1.20622 -3.45959,-2.78252 -3.48469,-4.12244 -0.0206,-1.1002 4.09636,0.21408 6.06343,1.93567 0.86831,0.75995 2.58237,1.38172 3.80902,1.38172 1.2322,0 1.9537,0.44751 1.61224,1 -0.82416,1.33352 -5.50579,1.21943 -8,-0.19495 z m 74.40504,-3.8994 c -7.56477,-4.83569 -16.90504,-13.65741 -16.90504,-15.9665 0,-0.89605 0.85547,-2.40337 1.90105,-3.3496 1.83311,-1.65894 1.92561,-1.57502 2.58843,2.34816 0.56441,3.34074 1.16351,4.17424 3.34895,4.65925 2.81947,0.62573 8.04153,2.65002 12.11936,4.698 1.53312,0.76996 3.08838,2.99688 4.13389,5.91914 2.56194,7.1608 1.69021,7.36598 -7.18664,1.69155 z m 107.84496,-6.48261 c -0.4125,-0.416 -0.75,-1.67137 -0.75,-2.78971 0,-1.47178 0.30207,-1.73126 1.09378,-0.93955 0.60158,0.60158 0.93908,1.85695 0.75,2.78971 -0.18908,0.93276 -0.68128,1.35556 -1.09378,0.93955 z m -57.84396,-2.96267 c -7.73161,-2.81065 -21.59468,-13.03539 -28.26866,-20.84961 -2.67444,-3.13136 -7.25831,-7.22589 -10.18639,-9.09896 -4.99904,-3.19785 -7.45099,-5.97725 -7.45099,-8.44606 0,-1.64443 4.98813,-1.26025 5.63837,0.43426 0.31659,0.825 1.63663,1.5 2.93344,1.5 1.33437,0 2.82243,0.86813 3.42819,2 0.68496,1.27986 2.09382,2 3.91274,2 3.45331,0 5.48157,2.18228 4.60249,4.95201 -0.39083,1.23141 -0.20367,2.04799 0.4694,2.04799 0.61568,0 1.5855,1.33702 2.15516,2.97115 0.81384,2.3346 1.82036,3.11796 4.69798,3.65639 3.77402,0.70616 11.11225,5.98641 11.1442,8.01887 0.0178,1.13056 4.39641,5.14487 9.43534,8.65027 1.42048,0.98818 2.58269,2.22568 2.58269,2.75 0,1.14875 -0.46987,1.09467 -5.09396,-0.58631 z m 30.59396,-8.46037 c -1.1,-0.47269 -3.6875,-0.89106 -5.75,-0.92971 -3.59928,-0.0675 -7.75,-2.76512 -7.75,-5.03691 0,-0.53164 -2.025,-3.24666 -4.5,-6.03338 -2.475,-2.78672 -4.5,-5.71817 -4.5,-6.51433 0,-1.91496 4.29904,-2.93118 6.78095,-1.6029 1.10456,0.59114 4.14857,0.79448 6.94156,0.46369 4.4948,-0.53234 5.28719,-0.3096 8.21966,2.31056 3.28874,2.93849 4.91708,7.8398 5.01428,15.09298 0.0453,3.37652 -0.81921,3.81298 -4.45645,2.25 z m -108.05032,-2.82155 c -2.77767,-1.53192 -6.1403,-3.54877 -7.4725,-4.48188 -1.33221,-0.93311 -3.78456,-1.7282 -5.44969,-1.76686 -1.66512,-0.0387 -3.83682,-0.3897 -4.82601,-0.7801 -1.64868,-0.65068 -1.59231,-0.90354 0.67652,-3.035 l 2.47504,-2.32518 4.32348,2.23101 c 2.37791,1.22705 5.10487,2.62442 6.05991,3.10528 0.95504,0.48085 2.80039,0.87428 4.10078,0.87428 2.54492,0 8.66362,1.82864 9.94995,2.97364 1.32595,1.18028 -1.10445,6.02772 -3.01241,6.00824 -0.97611,-0.01 -4.04739,-1.2715 -6.82507,-2.80343 z m 107.55032,-22.17845 c -0.79314,-0.49019 -1.21708,-1.11625 -0.94208,-1.39125 0.275,-0.275 1.14894,-0.0989 1.94208,0.39125 0.79314,0.49019 1.21708,1.11625 0.94208,1.39125 -0.275,0.275 -1.14894,0.0989 -1.94208,-0.39125 z m -32.15284,-3.28755 c -3.07643,-2.70554 -7.84716,-10.14692 -7.84716,-12.24 0,-1.08219 4.45923,0.77333 5.59662,2.3288 0.61555,0.84182 1.95808,1.28695 3.03337,1.00576 1.06099,-0.27745 2.49602,0.10247 3.18896,0.84426 0.69295,0.7418 2.36716,1.34873 3.72048,1.34873 3.06191,0 3.05879,0.34913 -0.0394,4.41111 -1.375,1.80272 -2.5,3.7977 -2.5,4.43328 0,1.82704 -1.22963,1.31829 -5.15284,-2.13194 z m -49.34716,-5.71245 c 0.33992,-0.55 1.23992,-1 2,-1 0.76008,0 1.66008,0.45 2,1 0.35191,0.5694 -0.50929,1 -2,1 -1.49071,0 -2.35191,-0.4306 -2,-1 z"
       id="path3934"
       inkscape:connector-curvature="0" />
    <path
       style="fill:#575757"
       d="m -667.61835,704.07344 c -6.44211,-1.08101 -7.49536,-2.4091 -1.26268,-1.59218 2.68927,0.35249 6.40177,0.64088 8.25,0.64088 1.84824,0 3.36043,0.45 3.36043,1 0,1.14166 -3.34782,1.1259 -10.34775,-0.0487 z m 40.34775,-8.22119 c 4.07365,-2.84891 8.62655,-4.55291 7.56182,-2.83013 -0.80752,1.30659 -5.00857,3.54517 -8.56182,4.56225 -2.07361,0.59356 -1.90305,0.29813 1,-1.73212 z m -75.55887,-1.16279 c -1.37617,-1.0157 -1.63168,-1.74717 -0.87789,-2.51324 0.75857,-0.77092 1.73983,-0.36037 3.42432,1.43268 2.66118,2.8327 0.86198,3.59619 -2.54643,1.08056 z m -9.71671,-12.31933 c -1.8902,-2.08866 -2.27633,-4.24799 -0.7596,-4.24799 1.21066,0 3.28113,3.76214 2.82446,5.13217 -0.18724,0.5617 -1.11642,0.16382 -2.06486,-0.88418 z m 11.27558,-1.65766 c 0,-3.39553 2.20636,-8.68907 4.36926,-10.48283 2.78167,-2.30692 3.2424,-0.22419 0.86442,3.90763 -1.22852,2.13461 -2.23368,4.52435 -2.23368,5.31054 0,0.78619 -0.675,1.98964 -1.5,2.67433 -1.26926,1.0534 -1.5,0.83656 -1.5,-1.40967 z m -19.53451,-12.84033 -1.58588,-3.25 2.03796,2.5 c 1.96216,2.40702 2.60258,4 1.60811,4 -0.26088,0 -1.18796,-1.4625 -2.06019,-3.25 z m 45.15325,-3.39075 c -2.25384,-1.22082 -3.40954,-1.31997 -5.3073,-0.45529 -2.99468,1.36447 -7.31144,0.40489 -7.31144,-1.62527 0,-2.34077 13.42243,-15.10483 24.73439,-23.52115 31.43688,-23.3897 81.58429,-42.88767 113.57277,-44.15858 l 8.646,-0.34351 2.02342,3.42943 c 2.08076,3.52662 2.92613,14.63918 1.19505,15.70905 -0.4556,0.28158 -0.62494,-1.94118 -0.3763,-4.93947 0.42524,-5.12776 -0.68248,-8.45446 -2.81516,-8.45446 -0.42622,0 -0.93361,3.7125 -1.12755,8.25 -0.29441,6.88817 -0.82315,9.05051 -3.2031,13.09952 -2.02861,3.45128 -3.15968,4.54032 -3.92287,3.77713 -0.7632,-0.7632 -0.7336,-1.81598 0.10264,-3.65133 0.76137,-1.67102 0.95065,-4.99329 0.53766,-9.43689 -0.80091,-8.6175 -1.46169,-9.8246 -4.55191,-8.31534 -1.27327,0.62187 -3.66504,1.52356 -5.31504,2.00376 -2.15537,0.62727 -3.62224,2.12596 -5.21013,5.32312 -3.1487,6.33982 -4.01809,7.16585 -6.27233,5.95942 -1.03733,-0.55516 -3.46032,-1.00939 -5.38441,-1.00939 -3.94323,0 -4.86377,1.50557 -4.47253,7.31494 0.29771,4.42054 -1.63704,7.03563 -4.19315,5.66764 -1.40001,-0.74926 -2.51036,-0.39663 -4.78935,1.52101 -1.63175,1.37303 -3.62893,2.49641 -4.43819,2.49641 -0.80926,0 -4.04726,2.475 -7.19555,5.5 -3.14828,3.025 -6.56843,5.5 -7.60033,5.5 -2.15069,0 -8.95594,2.97776 -10.44403,4.56997 -2.84568,3.04479 -7.23398,4.71645 -12.76586,4.86298 -5.27676,0.13978 -6.09155,0.44838 -7.55596,2.86186 -0.90278,1.48785 -2.10428,2.70519 -2.67002,2.70519 -1.27646,0 -6.50816,-4.76973 -6.50816,-5.93348 0,-1.27033 -3.02859,-2.19222 -5.07163,-1.54379 -1.38823,0.44061 -1.74931,1.51156 -1.60912,4.77268 0.15464,3.59729 -0.10794,4.20459 -1.81793,4.20459 -1.32608,0 -1.99913,-0.66754 -2,-1.98364 -7.3e-4,-1.09101 -0.73605,-2.12634 -1.63405,-2.30074 -1.82643,-0.35472 -6.99743,4.08414 -8.77708,7.53438 -1.35551,2.62796 -2.5389,2.73937 -6.47145,0.60925 z m 122.01963,-31.85925 c 0.31659,-0.825 0.96334,-1.5 1.43723,-1.5 0.4739,0 0.60261,0.675 0.28603,1.5 -0.31659,0.825 -0.96334,1.5 -1.43723,1.5 -0.4739,0 -0.60261,-0.675 -0.28603,-1.5 z m -25.63837,-45.37803 c 0,-0.48291 1.0125,-1.57809 2.25,-2.43372 2.18239,-1.50894 2.1379,-1.53882 -1.48063,-0.99427 -2.47996,0.37321 -4.51231,0.0493 -6.06228,-0.96633 -2.51006,-1.64466 -8.23734,-1.1375 -12.39135,1.09726 -3.32671,1.78971 -4.20804,1.47194 -6.44824,-2.32491 -2.06505,-3.5 -4.35342,-4.54223 -5.09414,-2.32009 -0.21773,0.65321 -1.14019,0.8933 -2.06647,0.53785 -0.96983,-0.37215 -1.43283,-1.26838 -1.10142,-2.13202 0.31447,-0.81948 0.24318,-2.02161 -0.15841,-2.6714 -0.70205,-1.13594 -1.17426,-4.44443 -1.7005,-11.91434 -0.25855,-3.67015 -1.33708,-4.09709 -6.34351,-2.51108 -1.70355,0.53967 -2.35033,0.0526 -3.44759,-2.59645 -1.02832,-2.48258 -1.06484,-3.35601 -0.15305,-3.65994 2.40227,-0.80076 1.10097,-2.13412 -2.85338,-2.92368 -9.0622,-1.80943 -2.97297,-5.23829 8.81417,-4.96326 6.68056,0.15587 8.69114,0.55527 9.6931,1.92554 0.6953,0.95088 1.83218,1.72887 2.52639,1.72887 1.00377,0 1.00948,-0.30451 0.0279,-1.48727 -2.04634,-2.46565 -0.44787,-4.51273 3.52377,-4.51273 1.97842,0 4.46754,0.46583 5.53138,1.03518 2.94317,1.57514 2.44524,-0.60221 -1.18629,-5.18739 -1.71631,-2.16701 -2.90226,-4.15831 -2.63546,-4.42511 0.2668,-0.2668 1.16349,0.54145 1.99263,1.79611 0.82915,1.25467 5.38765,6.18832 10.12999,10.96367 5.22095,5.25729 8.41178,9.23147 8.08842,10.07414 -0.29372,0.76542 0.6701,2.59581 2.14183,4.06753 3.69208,3.69208 5.46209,3.39062 1.90314,-0.32413 -5.22312,-5.45176 -1.28311,-3.11574 5.48154,3.25 3.65292,3.4375 8.97645,8.18747 11.83007,10.55548 4.98985,4.14072 6.8197,7.03449 3.68839,5.83289 -1.011,-0.38796 -1.5,0.0477 -1.5,1.33631 0,3.65066 -3.75376,5.02532 -13.72251,5.02532 -5.10262,0 -9.27749,-0.39511 -9.27749,-0.87803 z m -9.5,-37.12197 c -0.33992,-0.55 -1.04148,-1 -1.55902,-1 -0.51754,0 -0.94098,0.45 -0.94098,1 0,0.55 0.70156,1 1.55902,1 0.85746,0 1.2809,-0.45 0.94098,-1 z m 40.5,36 c 0,-0.55 0.45,-1 1,-1 0.55,0 1,0.45 1,1 0,0.55 -0.45,1 -1,1 -0.55,0 -1,-0.45 -1,-1 z m -232.5,-8 c -0.33992,-0.55 -0.16803,-1 0.38197,-1 0.55,0 1.27811,0.45 1.61803,1 0.33992,0.55 0.16803,1 -0.38197,1 -0.55,0 -1.27811,-0.45 -1.61803,-1 z m -18.5,-16.5 c -1.28767,-1.37066 -2.11622,-2.71711 -1.84122,-2.99211 0.275,-0.275 1.55355,0.62145 2.84122,1.99211 1.28767,1.37066 2.11622,2.71711 1.84122,2.99211 -0.275,0.275 -1.55355,-0.62145 -2.84122,-1.99211 z m 187.24953,-17.75 c 0.63003,-1.89219 3.75047,-2.1612 3.75047,-0.32332 0,0.92763 -0.855,1.57332 -2.08333,1.57332 -1.22198,0 -1.91126,-0.51682 -1.66714,-1.25 z m -21.66054,-7.60601 c -0.85335,-1.38075 1.46429,-2.88154 5.66101,-3.66579 3.66231,-0.68439 4.47032,-0.10843 2.98469,2.12756 -0.97618,1.46922 -7.92433,2.70542 -8.6457,1.53823 z m 12.16101,-4.80627 c 0.6875,-0.27741 1.8125,-0.27741 2.5,0 0.6875,0.27741 0.125,0.50439 -1.25,0.50439 -1.375,0 -1.9375,-0.22698 -1.25,-0.50439 z m 13.25,-1.83772 c -1.01957,-1.22851 -0.95124,-1.5 0.37756,-1.5 0.89234,0 1.62244,0.675 1.62244,1.5 0,0.825 -0.1699,1.5 -0.37756,1.5 -0.20765,0 -0.93775,-0.675 -1.62244,-1.5 z m -226.40804,-3 c -0.90094,-1.375 -1.25613,-2.5 -0.78933,-2.5 0.46681,0 1.90562,1.125 3.19737,2.5 1.81033,1.92701 1.99124,2.5 0.78932,2.5 -0.85761,0 -2.29643,-1.125 -3.19736,-2.5 z m 190.22446,-2.25 c -0.2256,-1.96067 -0.95652,-2.84097 -2.54649,-3.06694 -1.22655,-0.17432 -3.12943,-1.52432 -4.22863,-3 -1.0992,-1.47568 -2.86215,-3.58306 -3.91766,-4.68306 -2.38207,-2.48246 -5.72455,-9.83674 -6.60239,-14.52687 -0.51119,-2.7312 -0.19457,-4.11872 1.40343,-6.15025 1.13495,-1.44286 2.1787,-3.68076 2.31944,-4.97313 0.22514,-2.0675 -0.16453,-2.34975 -3.24412,-2.34975 -3.25503,0 -3.51149,-0.22951 -3.66414,-3.27899 -0.0903,-1.80344 -1.10278,-5.0798 -2.25,-7.28079 -1.14722,-2.20099 -2.08586,-4.83981 -2.08586,-5.86402 0,-1.02422 -0.675,-2.12124 -1.5,-2.43783 -0.825,-0.31658 -1.5,-1.64498 -1.5,-2.952 0,-1.30702 -0.9,-3.19088 -2,-4.18637 -2.45057,-2.21773 -2.6198,-7.15765 -0.33182,-9.68584 1.11683,-1.23408 1.69523,-3.71479 1.75,-7.5056 l 0.0818,-5.66228 4.5,-2.20872 c 6.7985,-3.33688 9,-3.8438 9,-2.07234 0,0.825 0.9,1.78565 2,2.13478 2.86426,0.90908 2.48753,2.03557 -1.50623,4.50385 -4.03649,2.49469 -3.76905,4.20121 0.52384,3.34263 2.50894,-0.50179 3.08617,-0.20371 3.93647,2.03275 0.54803,1.44142 1.52006,2.62077 2.16006,2.62077 0.81601,0 1.0011,1.79246 0.61958,6 -0.3006,3.31499 -0.139,6 0.36111,6 1.43635,0 1.05102,2.63407 -0.58382,3.99086 -1.93927,1.60946 -1.06026,2.96553 1.48999,2.29863 1.52036,-0.39759 1.999,-0.0301 1.999,1.53486 0,1.13169 -0.45,2.33573 -1,2.67565 -1.60253,0.99042 -1.16002,2.22489 1,2.78975 2.40643,0.6293 2.68402,4.42363 0.5318,7.26912 -2.14509,2.83606 -1.85647,3.73943 0.9682,3.03049 2.15921,-0.54193 2.5,-0.29212 2.5,1.83257 0,2.64741 1.57514,4.35264 2.22361,2.40725 0.21693,-0.65081 0.88376,-0.88086 1.48184,-0.51122 1.43689,0.88804 4.78743,7.4238 5.70118,11.12105 0.39949,1.61645 1.63836,4.21981 2.75305,5.78524 1.59417,2.2388 1.77502,3.1495 0.84742,4.26719 -1.48083,1.7843 -0.48505,3.50856 2.02624,3.50856 1.07652,0 2.54077,1.20433 3.34351,2.75 0.78552,1.5125 2.82207,3.77597 4.52568,5.02994 4.04942,2.98063 3.90733,4.00513 -0.65253,4.70499 -2.0625,0.31656 -7.02529,1.23695 -11.02842,2.04532 -10.22311,2.06438 -11.03075,1.97372 -11.40516,-1.28025 z m 6.18358,-30.69098 c 0,-0.79254 -0.45,-1.7191 -1,-2.05902 -0.55,-0.33992 -1,0.30852 -1,1.44098 0,1.13246 0.45,2.05902 1,2.05902 0.55,0 1,-0.64844 1,-1.44098 z m -157,21.79034 c -5.3729,-4.11467 -10.99937,-9.63722 -11.00558,-10.80231 -0.003,-0.57588 -0.46571,-2.70373 -1.02809,-4.72856 -0.79379,-2.85799 -2.19061,-4.4218 -6.24442,-6.99095 -2.87205,-1.82019 -5.94376,-3.61222 -6.82602,-3.98229 -2.56896,-1.07758 -5.84486,-8.42745 -6.81757,-15.29601 -0.49419,-3.48963 -1.33672,-7.17828 -1.87229,-8.19701 -0.53558,-1.01873 -1.28254,-3.71714 -1.65993,-5.99647 -0.57431,-3.46872 -0.36273,-4.37079 1.29804,-5.53404 1.09131,-0.76438 2.29884,-3.06694 2.68339,-5.1168 1.28799,-6.86553 3.04904,-5.55706 8.47247,6.29508 1.88756,4.125 3.94798,8.175 4.5787,9 0.63073,0.825 1.4375,3.075 1.79282,5 1.51022,8.18165 6.18614,20.40381 8.80977,23.02745 2.91273,2.91272 7.69606,4.18032 10.29218,2.72746 1.24806,-0.69845 1.45841,-1.96858 1.00509,-6.06911 -0.31531,-2.85219 -1.04485,-6.78497 -1.6212,-8.7395 -0.57635,-1.95454 -0.89254,-4.62167 -0.70263,-5.92697 0.34061,-2.34121 0.39593,-2.32538 4.09527,1.17178 2.0625,1.94977 3.75,4.14441 3.75,4.87697 0,1.03594 -0.26667,1.06525 -1.2,0.13192 -0.66,-0.66 -1.56,-1.2 -2,-1.2 -1.5518,0 -0.77526,5.226 1.18576,7.98 2.59834,3.64904 4.5738,12.64085 3.15319,14.35258 -0.57368,0.69123 -1.17712,4.61168 -1.341,8.7121 -0.2847,7.12366 -0.40916,7.4671 -2.79795,7.72018 -1.49459,0.15835 -3.90758,-0.81309 -6,-2.4155 z m 151.85779,-39.84936 c -0.32742,-0.55 -0.90514,-3.84289 -1.28384,-7.31752 -0.3787,-3.47464 -0.9359,-6.96214 -1.23823,-7.75 -0.30234,-0.78787 -0.0924,-1.43248 0.46647,-1.43248 1.16934,0 3.62946,12.54531 3.04271,15.51614 -0.2155,1.09113 -0.6597,1.53386 -0.98711,0.98386 z m -151.84248,-9.25 c 0.0119,-2.14294 0.22931,-2.41887 0.98469,-1.25 1.26441,1.95653 1.26441,4 0,4 -0.55,0 -0.99311,-1.2375 -0.98469,-2.75 z m -1.74643,-5.25 c -1.16858,-2.82058 -0.77103,-3.90215 0.84157,-2.28955 0.59241,0.59241 0.87845,1.91241 0.63565,2.93333 -0.38234,1.60765 -0.58016,1.52144 -1.47722,-0.64378 z m -49.78137,-8.3247 c -0.4351,-2.25455 -0.3282,-4.23461 0.2604,-4.82321 1.42723,-1.42723 2.4695,3.40122 1.36323,6.31533 -0.82062,2.16166 -0.93959,2.05233 -1.62363,-1.49212 z m 79.74914,-36.20187 c -2.88016,-1.93961 -5.23665,-3.96461 -5.23665,-4.5 0,-1.31098 0.22611,-1.26513 4.6555,0.94393 2.11447,1.05455 4.632,2.16543 5.5945,2.46862 1.68127,0.5296 2.55467,4.61402 0.98665,4.61402 -0.41984,0 -3.11984,-1.58696 -6,-3.52657 z m 41.31527,-13.81181 c -1.02161,-0.74701 -1.53716,-1.87648 -1.14568,-2.50992 1.48301,-2.39956 5.29163,-0.22115 3.91479,2.23914 -0.78224,1.39777 -1.17529,1.43621 -2.76911,0.27078 z m 39.94808,-2.34747 c -5.14794,-2.75547 -16.07392,-12.07356 -15.19155,-12.95593 0.24184,-0.24185 3.42138,-0.13424 7.06563,0.23912 5.9277,0.60731 6.62592,0.90792 6.62592,2.8527 0,1.25583 1.2669,3.1105 3,4.39184 1.925,1.42322 3,3.1031 3,4.68806 0,2.87114 -0.45344,2.95016 -4.5,0.78421 z m -99.5,-0.31415 c 0,-0.55 0.45,-1 1,-1 0.55,0 1,0.45 1,1 0,0.55 -0.45,1 -1,1 -0.55,0 -1,-0.45 -1,-1 z m 42.66667,-15.66667 c -0.36667,-0.36666 -0.66667,-1.13166 -0.66667,-1.7 0,-0.6266 0.46577,-0.56756 1.18333,0.15 0.65084,0.65084 0.95084,1.41584 0.66667,1.7 -0.28417,0.28417 -0.81667,0.21667 -1.18333,-0.15 z m -13.20779,-7.39986 c -1.07627,-1.74144 0.14952,-2.11024 1.52106,-0.45764 0.78875,0.95039 0.86462,1.52417 0.20152,1.52417 -0.58488,0 -1.36004,-0.47994 -1.72258,-1.06653 z"
       id="path3932"
       inkscape:connector-curvature="0" />
  </g>
</svg>
