<?xml version="1.0" encoding="UTF-8" standalone="no"?>
<!-- Generator: Adobe Illustrator 15.1.0, SVG Export Plug-In . SVG Version: 6.00 Build 0)  -->

<svg
   xmlns:dc="http://purl.org/dc/elements/1.1/"
   xmlns:cc="http://creativecommons.org/ns#"
   xmlns:rdf="http://www.w3.org/1999/02/22-rdf-syntax-ns#"
   xmlns:svg="http://www.w3.org/2000/svg"
   xmlns="http://www.w3.org/2000/svg"
   xmlns:sodipodi="http://sodipodi.sourceforge.net/DTD/sodipodi-0.dtd"
   xmlns:inkscape="http://www.inkscape.org/namespaces/inkscape"
   version="1.1"
   id="FlashAICB"
   x="0px"
   y="0px"
   width="256"
   height="256"
   viewBox="0 0 255.99999 256"
   xml:space="preserve"
   sodipodi:docname="broccoli.svg"
   inkscape:version="0.92.4 (5da689c313, 2019-01-14)"
   inkscape:export-filename="C:\Users\antum\Development\game-resources\icon\CC0\food\individual\Glitch\32x32\broccoli.png"
   inkscape:export-xdpi="10.5"
   inkscape:export-ydpi="10.5"><title
   id="title1348">Broccoli</title><metadata
   id="metadata541"><rdf:RDF><cc:Work
       rdf:about=""><dc:format>image/svg+xml</dc:format><dc:type
         rdf:resource="http://purl.org/dc/dcmitype/StillImage" /><dc:title>Broccoli</dc:title><cc:license
         rdf:resource="http://creativecommons.org/publicdomain/zero/1.0/" /><dc:creator><cc:Agent><dc:title>Glitch</dc:title></cc:Agent></dc:creator><dc:source>https://opengameart.org/node/20149</dc:source></cc:Work><cc:License
       rdf:about="http://creativecommons.org/publicdomain/zero/1.0/"><cc:permits
         rdf:resource="http://creativecommons.org/ns#Reproduction" /><cc:permits
         rdf:resource="http://creativecommons.org/ns#Distribution" /><cc:permits
         rdf:resource="http://creativecommons.org/ns#DerivativeWorks" /></cc:License></rdf:RDF></metadata><defs
   id="defs539" /><sodipodi:namedview
   pagecolor="#ffffff"
   bordercolor="#666666"
   borderopacity="1"
   objecttolerance="10"
   gridtolerance="10"
   guidetolerance="10"
   inkscape:pageopacity="0"
   inkscape:pageshadow="2"
   inkscape:window-width="1920"
   inkscape:window-height="1025"
   id="namedview537"
   showgrid="false"
   inkscape:zoom="0.73566206"
   inkscape:cx="-129.34473"
   inkscape:cy="8.9397417"
   inkscape:window-x="-8"
   inkscape:window-y="-8"
   inkscape:window-maximized="1"
   inkscape:current-layer="FlashAICB"
   fit-margin-top="0"
   fit-margin-left="0"
   fit-margin-right="0"
   fit-margin-bottom="0" />

<g
   id="g534"
   transform="matrix(7.9280699,0,0,7.9280699,-31.474871,-30.78653)">
	<path
   style="clip-rule:evenodd;fill:#4f6e34;fill-rule:evenodd"
   d="m 25.176,23.739 c -0.343,0.25 -0.577,0.468 -0.702,0.655 -0.343,0.53 -0.874,0.655 -1.591,0.374 l -0.281,1.638 c -0.063,0.624 -1.076,1.342 -3.042,2.152 -0.218,-0.748 -0.421,-1.513 -0.608,-2.292 -0.374,-1.591 -0.499,-2.496 -0.374,-2.714 0.125,-0.25 0.936,-0.796 2.433,-1.638 1.279,-0.718 2.074,-1.139 2.386,-1.264 0.156,-0.062 0.546,0.218 1.169,0.842 0.655,0.655 0.967,1.169 0.936,1.544 -0.03,0.313 -0.139,0.547 -0.326,0.703 z"
   id="path6"
   inkscape:connector-curvature="0" />
	<path
   style="clip-rule:evenodd;fill:#658c42;fill-rule:evenodd"
   d="m 24.521,21.82 -1.451,-3.275 1.404,0.14 2.339,5.662 c 0.063,0.219 0.64,1.389 1.731,3.509 0.655,1.279 0.795,1.997 0.421,2.153 -0.25,0.093 -0.421,0.374 -0.515,0.842 -0.031,0.28 -0.312,0.313 -0.842,0.094 -2.838,-1.029 -4.632,-1.716 -5.381,-2.059 -0.468,-0.219 -0.873,-0.577 -1.216,-1.076 l -0.421,-0.655 0.842,-0.421 0.795,0.562 c 0.593,0.374 0.999,0.576 1.216,0.608 0.312,0.093 0.64,0.047 0.983,-0.141 l -1.591,-5.147 0.374,-0.328 0.562,1.685 c 0.468,1.279 0.889,2.323 1.264,3.135 0.374,0.812 0.951,1.311 1.731,1.498 0.405,0.093 0.764,0.093 1.076,0 -0.967,-0.25 -1.528,-0.718 -1.684,-1.404 -0.094,-0.624 -0.188,-1.186 -0.281,-1.685 -0.218,-0.936 -0.67,-2.168 -1.356,-3.697 z"
   id="path8"
   inkscape:connector-curvature="0" />
	<path
   style="clip-rule:evenodd;fill:#81b354;fill-rule:evenodd"
   d="m 25.877,19.387 0.047,0.936 c 0.156,0.905 0.53,2.137 1.123,3.697 0.686,1.777 1.263,2.979 1.731,3.603 0.343,0.468 1.154,1.248 2.433,2.339 1.061,0.874 1.996,1.467 2.807,1.778 0.437,0.156 0.749,0.219 0.936,0.188 l 0.187,1.123 c 0.032,0.842 -0.249,1.575 -0.842,2.199 -0.624,0.687 -1.216,0.982 -1.778,0.889 L 31.866,35.765 C 31.648,35.391 30.494,34.345 28.404,32.63 26.782,31.319 25.207,30.4 23.678,29.869 22.68,29.557 20.949,29.229 18.485,28.887 17.269,28.699 16.442,28.481 16.006,28.232 l -0.281,-0.327 0.188,-2.668 8.235,3.557 C 23.15,26.985 22.136,25.237 21.106,23.554 20.451,22.493 19.89,21.869 19.422,21.682 l -0.562,0.047 2.105,-1.404 1.263,2.995 c 0.593,1.279 1.482,2.293 2.667,3.042 0.094,-0.812 -0.109,-1.685 -0.608,-2.621 l -1.591,-2.948 0.702,-0.14 1.123,2.574 c 0.343,0.842 0.936,1.498 1.778,1.965 0.031,-0.78 -0.188,-1.731 -0.655,-2.854 -0.312,-0.749 -0.639,-1.466 -0.982,-2.152 l -0.468,-0.795 h 1.683 z"
   id="path10"
   inkscape:connector-curvature="0" />
	<path
   style="clip-rule:evenodd;fill:#66943b;fill-rule:evenodd"
   d="m 34.253,33.471 c 0.375,0.125 0.468,0.032 0.281,-0.28 -1.092,-0.905 -1.84,-1.497 -2.246,-1.778 l -1.825,-1.544 1.451,0.982 c 1.029,0.655 1.731,1.076 2.105,1.264 l 0.936,0.468 0.187,0.749 C 35.08,34.08 34.799,34.72 34.3,35.25 c -0.687,0.748 -1.31,1.029 -1.872,0.843 l 0.094,-0.282 c 1.185,-0.592 1.559,-1.263 1.123,-2.011 -0.219,-0.313 -0.624,-0.671 -1.217,-1.077 -0.905,-0.592 -1.591,-1.075 -2.059,-1.45 -0.687,-0.561 -1.638,-1.216 -2.854,-1.965 l -1.59,-0.936 4.866,2.713 c 0.686,0.406 1.435,0.921 2.246,1.545 0.624,0.498 1.029,0.778 1.216,0.841 z"
   id="path12"
   inkscape:connector-curvature="0" />
	<path
   style="clip-rule:evenodd;fill:#66943b;fill-rule:evenodd"
   d="M 23.678,29.868 C 22.68,29.556 20.949,29.228 18.485,28.886 17.269,28.698 16.442,28.48 16.006,28.231 l -0.281,-0.327 0.047,-0.328 c 3.026,0.936 5.053,1.419 6.083,1.45 2.308,0.156 4.039,0.608 5.193,1.357 1.248,0.78 2.698,2.027 4.351,3.743 0.78,0.873 1.576,1.403 2.387,1.591 -0.78,0.593 -1.419,0.608 -1.918,0.047 -0.218,-0.374 -1.372,-1.42 -3.462,-3.135 -1.624,-1.311 -3.199,-2.231 -4.728,-2.761 z"
   id="path14"
   inkscape:connector-curvature="0" />
	<path
   style="clip-rule:evenodd;fill:#a5db72;fill-rule:evenodd"
   d="m 26.86,25.189 c -0.125,-0.219 -0.281,-0.655 -0.468,-1.311 -0.156,-0.717 -0.172,-1.107 -0.047,-1.169 0.125,-0.031 0.296,0.452 0.515,1.451 0.187,0.998 0.187,1.341 0,1.029 z"
   id="path16"
   inkscape:connector-curvature="0" />
	<path
   style="clip-rule:evenodd;fill:#a5db72;fill-rule:evenodd"
   d="m 26.111,26.219 c 0.156,0.312 0.016,0.608 -0.42,0.889 -0.406,0.249 -0.733,0.249 -0.983,0 -0.343,-0.343 -0.141,-0.452 0.608,-0.327 0.219,0.031 0.266,-0.203 0.141,-0.702 -0.156,-0.718 -0.234,-1.123 -0.234,-1.217 0.031,-0.218 0.156,-0.125 0.375,0.281 0.124,0.249 0.295,0.608 0.513,1.076 z"
   id="path18"
   inkscape:connector-curvature="0" />
	<path
   style="clip-rule:evenodd;fill:#a5db72;fill-rule:evenodd"
   d="m 23.492,26.172 c 0.156,0.405 0.328,0.796 0.514,1.169 0.063,0.188 0,0.234 -0.187,0.142 -0.219,-0.126 -0.468,-0.469 -0.749,-1.03 -0.281,-0.53 -0.453,-0.967 -0.515,-1.31 -0.031,-0.313 0.078,-0.313 0.328,0 0.218,0.28 0.421,0.624 0.609,1.029 z"
   id="path20"
   inkscape:connector-curvature="0" />
	<path
   style="clip-rule:evenodd;fill:#a5db72;fill-rule:evenodd"
   d="m 30.463,29.868 c 0.936,0.936 1.263,1.342 0.983,1.216 -0.218,-0.124 -0.64,-0.437 -1.264,-0.936 -2.433,-1.622 -3.774,-2.604 -4.023,-2.947 -0.188,-0.249 -0.094,-0.281 0.28,-0.094 0.343,0.156 0.655,0.359 0.936,0.608 0.063,0.063 0.53,0.374 1.404,0.936 0.78,0.469 1.341,0.874 1.684,1.217 z"
   id="path22"
   inkscape:connector-curvature="0" />
	<path
   style="clip-rule:evenodd;fill:#a5db72;fill-rule:evenodd"
   d="m 29.948,31.599 c 1.466,1.373 2.012,2.044 1.638,2.013 l -2.667,-2.246 c -0.562,-0.468 -1.061,-0.921 -1.498,-1.356 -0.405,-0.437 -0.468,-0.577 -0.187,-0.421 1.061,0.716 1.966,1.387 2.714,2.01 z"
   id="path24"
   inkscape:connector-curvature="0" />
	<path
   style="clip-rule:evenodd;fill:#4a732f;fill-rule:evenodd"
   d="m 29.387,8.111 c 0.717,0 1.201,0.343 1.451,1.03 l 0.047,0.655 c 0.717,0.063 1.185,0.452 1.404,1.169 0.156,0.5 0.109,0.952 -0.141,1.357 0.156,0.218 0.25,0.39 0.281,0.514 0.125,0.437 0.063,0.843 -0.187,1.217 l 0.14,0.328 c 0.125,0.468 0.078,0.904 -0.14,1.31 -0.218,0.405 -0.546,0.687 -0.983,0.842 h -0.094 c 0.063,0.343 0,0.67 -0.187,0.982 -0.219,0.312 -0.483,0.515 -0.796,0.608 l -0.468,0.047 c 0.063,0.343 0,0.639 -0.188,0.889 -0.156,0.28 -0.39,0.468 -0.702,0.561 -0.187,0.063 -0.359,0.063 -0.515,0 -0.063,0.437 -0.265,0.702 -0.608,0.795 -0.406,0.094 -0.717,-0.031 -0.936,-0.374 l -0.374,0.093 h -0.047 c -0.031,0.25 -0.156,0.468 -0.375,0.655 -0.218,0.188 -0.468,0.281 -0.749,0.281 l -0.375,-0.094 c -0.187,0.281 -0.468,0.421 -0.842,0.421 -0.312,0 -0.562,-0.125 -0.749,-0.375 l -0.047,-0.047 c -0.156,0.499 -0.468,0.811 -0.936,0.936 L 21.76,21.96 c 0.063,0.281 0.031,0.562 -0.094,0.843 -0.156,0.25 -0.374,0.421 -0.655,0.514 -0.218,0.031 -0.437,0.031 -0.655,0 -0.125,0.219 -0.312,0.375 -0.562,0.468 -0.062,0.437 -0.281,0.702 -0.655,0.795 -0.281,0.094 -0.546,0.063 -0.795,-0.094 -0.125,0.28 -0.328,0.468 -0.608,0.562 -0.468,0.094 -0.858,-0.031 -1.169,-0.374 l -0.234,0.093 c -0.313,0.094 -0.609,0.063 -0.89,-0.093 -0.312,-0.125 -0.53,-0.344 -0.655,-0.655 -0.593,0.063 -0.967,-0.203 -1.123,-0.795 -0.093,-0.25 -0.078,-0.515 0.047,-0.796 -0.717,-0.062 -1.17,-0.436 -1.357,-1.123 l -0.047,-0.374 c -0.655,-0.094 -1.107,-0.468 -1.356,-1.123 -0.156,-0.562 -0.047,-1.076 0.327,-1.544 -0.281,-0.093 -0.468,-0.296 -0.561,-0.608 -0.156,-0.343 -0.109,-0.655 0.14,-0.936 l -0.094,-0.421 c 0,-0.188 0.063,-0.343 0.188,-0.468 -0.406,-0.28 -0.577,-0.639 -0.515,-1.076 0,-0.437 0.172,-0.749 0.515,-0.936 -0.188,-0.218 -0.281,-0.468 -0.281,-0.749 0,-0.499 0.25,-0.827 0.749,-0.982 -0.094,-0.125 -0.141,-0.28 -0.141,-0.468 0,-0.188 0.063,-0.343 0.187,-0.468 -0.093,-0.717 0.188,-1.186 0.842,-1.404 0.218,-0.094 0.421,-0.109 0.608,-0.046 V 9.655 c 0.031,-0.374 0.187,-0.686 0.468,-0.936 0.281,-0.281 0.608,-0.405 0.983,-0.375 0.156,0 0.358,0.063 0.608,0.188 0.063,-0.375 0.234,-0.687 0.515,-0.936 0.281,-0.25 0.608,-0.359 0.983,-0.328 0.062,-0.343 0.218,-0.64 0.468,-0.889 0.281,-0.25 0.608,-0.375 0.982,-0.375 l 0.562,0.14 C 18.548,5.77 18.719,5.474 19,5.255 19.312,5.005 19.655,4.88 20.029,4.88 c 0.499,0.032 0.905,0.266 1.217,0.702 0.312,-0.125 0.561,-0.187 0.749,-0.187 l 0.188,0.046 c 0.218,-0.312 0.545,-0.468 0.982,-0.468 0.499,0 0.842,0.203 1.029,0.608 0.25,-0.125 0.452,-0.187 0.608,-0.187 0.374,0.062 0.686,0.234 0.936,0.514 0.188,-0.187 0.437,-0.28 0.749,-0.28 0.281,0 0.53,0.109 0.749,0.328 0.187,0.218 0.28,0.483 0.28,0.795 v 0.094 h 0.14 c 0.281,0 0.531,0.094 0.749,0.281 0.25,0.187 0.39,0.421 0.421,0.702 z"
   id="path26"
   inkscape:connector-curvature="0" />
	<path
   style="clip-rule:evenodd;fill:#4c7a31;fill-rule:evenodd"
   d="m 25.597,19.762 c -0.312,0.062 -0.499,-0.063 -0.562,-0.375 -0.063,-0.312 0.063,-0.499 0.374,-0.561 0.312,-0.063 0.499,0.062 0.562,0.374 0.063,0.312 -0.062,0.499 -0.374,0.562 z"
   id="path28"
   inkscape:connector-curvature="0" />
	<path
   style="clip-rule:evenodd;fill:#508033;fill-rule:evenodd"
   d="m 28.17,11.48 c -0.156,0.062 -0.265,0 -0.328,-0.188 -0.063,-0.218 0,-0.328 0.188,-0.328 0.187,-0.062 0.312,0 0.374,0.188 0,0.219 -0.078,0.328 -0.234,0.328 z"
   id="path30"
   inkscape:connector-curvature="0" />
	<path
   style="clip-rule:evenodd;fill:#5a8f39;fill-rule:evenodd"
   d="M 28.217,9.702 C 27.842,9.764 27.624,9.624 27.562,9.281 27.499,8.938 27.64,8.735 27.982,8.673 c 0.343,-0.125 0.546,0 0.608,0.375 0.095,0.373 -0.03,0.591 -0.373,0.654 z"
   id="path32"
   inkscape:connector-curvature="0" />
	<path
   style="clip-rule:evenodd;fill:#5a8f39;fill-rule:evenodd"
   d="M 27.937,8.438 C 27.78,8.5 27.671,8.423 27.609,8.205 27.546,8.049 27.625,7.94 27.843,7.877 27.999,7.814 28.108,7.893 28.171,8.111 28.17,8.267 28.092,8.376 27.937,8.438 Z"
   id="path34"
   inkscape:connector-curvature="0" />
	<path
   style="clip-rule:evenodd;fill:#5a8f39;fill-rule:evenodd"
   d="m 29.387,10.263 c -0.28,0.063 -0.452,-0.062 -0.515,-0.375 -0.125,-0.28 -0.015,-0.452 0.328,-0.514 0.281,-0.063 0.452,0.046 0.515,0.328 0.062,0.312 -0.047,0.499 -0.328,0.561 z"
   id="path36"
   inkscape:connector-curvature="0" />
	<path
   style="clip-rule:evenodd;fill:#5a8f39;fill-rule:evenodd"
   d="m 30.323,12.182 c -0.499,0.125 -0.811,-0.063 -0.936,-0.562 -0.031,-0.218 0,-0.421 0.094,-0.608 0.125,-0.156 0.296,-0.265 0.515,-0.328 0.187,-0.031 0.375,0 0.562,0.093 0.187,0.125 0.296,0.296 0.328,0.515 0.092,0.468 -0.095,0.765 -0.563,0.89 z"
   id="path38"
   inkscape:connector-curvature="0" />
	<path
   style="clip-rule:evenodd;fill:#5a8f39;fill-rule:evenodd"
   d="m 30.931,13.913 c -0.405,0.062 -0.639,-0.094 -0.702,-0.468 -0.125,-0.437 0.016,-0.687 0.421,-0.749 0.437,-0.094 0.686,0.063 0.748,0.468 0.125,0.375 -0.03,0.624 -0.467,0.749 z"
   id="path40"
   inkscape:connector-curvature="0" />
	<path
   style="clip-rule:evenodd;fill:#508033;fill-rule:evenodd"
   d="m 28.966,13.304 c -0.375,0.063 -0.592,-0.078 -0.655,-0.42 -0.063,-0.343 0.078,-0.562 0.421,-0.655 0.343,-0.063 0.546,0.078 0.608,0.421 0.062,0.156 0.046,0.296 -0.047,0.421 -0.062,0.124 -0.171,0.202 -0.327,0.233 z"
   id="path42"
   inkscape:connector-curvature="0" />
	<path
   style="clip-rule:evenodd;fill:#508033;fill-rule:evenodd"
   d="m 29.527,14.896 c -0.156,0.063 -0.312,0.031 -0.468,-0.094 -0.156,-0.094 -0.25,-0.218 -0.28,-0.374 -0.094,-0.405 0.063,-0.671 0.468,-0.796 0.156,-0.031 0.312,0 0.468,0.094 0.156,0.094 0.25,0.234 0.281,0.421 0.063,0.156 0.031,0.312 -0.093,0.468 -0.095,0.156 -0.22,0.249 -0.376,0.281 z"
   id="path44"
   inkscape:connector-curvature="0" />
	<path
   style="clip-rule:evenodd;fill:#508033;fill-rule:evenodd"
   d="m 30.884,16.112 c -0.25,0.063 -0.468,0.032 -0.655,-0.093 -0.187,-0.156 -0.312,-0.343 -0.375,-0.562 -0.125,-0.562 0.094,-0.92 0.655,-1.076 0.219,-0.031 0.437,0.016 0.655,0.14 0.219,0.125 0.343,0.312 0.375,0.562 0.062,0.249 0.031,0.468 -0.094,0.655 -0.155,0.218 -0.342,0.343 -0.561,0.374 z"
   id="path46"
   inkscape:connector-curvature="0" />
	<path
   style="clip-rule:evenodd;fill:#508033;fill-rule:evenodd"
   d="m 29.059,16.486 c -0.25,0.093 -0.436,-0.016 -0.561,-0.328 -0.032,-0.281 0.093,-0.483 0.374,-0.608 0.312,-0.063 0.499,0.062 0.562,0.374 0.062,0.312 -0.063,0.5 -0.375,0.562 z"
   id="path48"
   inkscape:connector-curvature="0" />
	<path
   style="clip-rule:evenodd;fill:#508033;fill-rule:evenodd"
   d="m 27.843,15.503 c -0.156,0.063 -0.312,0.031 -0.468,-0.093 -0.125,-0.093 -0.203,-0.218 -0.234,-0.375 -0.125,-0.343 0.016,-0.577 0.421,-0.702 0.405,-0.062 0.639,0.094 0.702,0.468 0.031,0.156 0.016,0.312 -0.047,0.468 -0.093,0.126 -0.218,0.204 -0.374,0.234 z"
   id="path50"
   inkscape:connector-curvature="0" />
	<path
   style="clip-rule:evenodd;fill:#4c7a31;fill-rule:evenodd"
   d="m 27.141,17.047 c -0.312,0.063 -0.531,-0.078 -0.655,-0.42 -0.062,-0.343 0.078,-0.546 0.421,-0.608 0.312,-0.094 0.53,0.031 0.655,0.374 0.063,0.374 -0.078,0.592 -0.421,0.654 z"
   id="path52"
   inkscape:connector-curvature="0" />
	<path
   style="clip-rule:evenodd;fill:#4c7a31;fill-rule:evenodd"
   d="m 27.937,18.03 c -0.406,0.063 -0.64,-0.094 -0.702,-0.468 -0.031,-0.156 0,-0.312 0.093,-0.468 0.093,-0.156 0.218,-0.25 0.375,-0.281 0.156,-0.031 0.312,0 0.468,0.094 0.125,0.094 0.203,0.218 0.234,0.375 0.124,0.406 -0.031,0.655 -0.468,0.748 z"
   id="path54"
   inkscape:connector-curvature="0" />
	<path
   style="clip-rule:evenodd;fill:#4c7a31;fill-rule:evenodd"
   d="m 26.673,18.405 c -0.249,0.063 -0.405,-0.031 -0.468,-0.281 -0.063,-0.25 0.031,-0.406 0.281,-0.468 0.25,-0.063 0.406,0.031 0.468,0.28 0.062,0.25 -0.032,0.406 -0.281,0.469 z"
   id="path56"
   inkscape:connector-curvature="0" />
	<path
   style="clip-rule:evenodd;fill:#4c7a31;fill-rule:evenodd"
   d="m 27.281,19.855 c -0.374,0.063 -0.608,-0.093 -0.702,-0.468 -0.063,-0.405 0.093,-0.639 0.468,-0.702 0.374,-0.062 0.608,0.094 0.702,0.468 0.063,0.375 -0.094,0.609 -0.468,0.702 z"
   id="path58"
   inkscape:connector-curvature="0" />
	<path
   style="clip-rule:evenodd;fill:#4c7a31;fill-rule:evenodd"
   d="m 28.966,18.779 c -0.312,0.063 -0.5,-0.062 -0.562,-0.374 -0.031,-0.125 -0.016,-0.234 0.047,-0.328 0.063,-0.125 0.156,-0.203 0.281,-0.234 0.312,-0.063 0.515,0.063 0.608,0.374 0.062,0.312 -0.062,0.5 -0.374,0.562 z"
   id="path60"
   inkscape:connector-curvature="0" />
	<path
   style="clip-rule:evenodd;fill:#508033;fill-rule:evenodd"
   d="m 30.042,17.516 c -0.343,0.063 -0.577,-0.078 -0.702,-0.421 -0.063,-0.343 0.078,-0.577 0.421,-0.702 0.375,-0.063 0.608,0.094 0.702,0.468 0.062,0.374 -0.078,0.592 -0.421,0.655 z"
   id="path62"
   inkscape:connector-curvature="0" />
	<path
   style="clip-rule:evenodd;fill:#5a8f39;fill-rule:evenodd"
   d="m 31.726,12.275 c -0.25,0.062 -0.405,-0.032 -0.468,-0.281 -0.062,-0.219 0.031,-0.359 0.281,-0.421 0.218,-0.063 0.358,0.031 0.421,0.28 0.063,0.22 -0.015,0.36 -0.234,0.422 z"
   id="path64"
   inkscape:connector-curvature="0" />
	<path
   style="clip-rule:evenodd;fill:#5a8f39;fill-rule:evenodd"
   d="m 31.352,11.246 c -0.218,0.062 -0.359,-0.031 -0.421,-0.281 -0.062,-0.218 0.032,-0.358 0.281,-0.421 0.218,-0.063 0.358,0.031 0.421,0.281 0.062,0.218 -0.031,0.359 -0.281,0.421 z"
   id="path66"
   inkscape:connector-curvature="0" />
	<path
   style="clip-rule:evenodd;fill:#5a8f39;fill-rule:evenodd"
   d="m 30.37,10.263 c -0.25,0.063 -0.406,-0.031 -0.468,-0.281 -0.063,-0.25 0.031,-0.405 0.28,-0.468 0.249,-0.063 0.405,0.031 0.468,0.281 0.063,0.25 -0.031,0.406 -0.28,0.468 z"
   id="path68"
   inkscape:connector-curvature="0" />
	<path
   style="clip-rule:evenodd;fill:#5a8f39;fill-rule:evenodd"
   d="m 29.434,9.047 c -0.156,0 -0.266,-0.078 -0.328,-0.234 0,-0.219 0.078,-0.328 0.234,-0.328 0.156,-0.063 0.265,0 0.328,0.187 0.062,0.187 -0.016,0.312 -0.234,0.375 z"
   id="path70"
   inkscape:connector-curvature="0" />
	<path
   style="clip-rule:evenodd;fill:#5a8f39;fill-rule:evenodd"
   d="m 27.141,7.549 c -0.188,0.063 -0.312,-0.016 -0.375,-0.234 0,-0.187 0.078,-0.312 0.234,-0.374 0.187,0 0.312,0.078 0.375,0.234 0.063,0.25 -0.016,0.374 -0.234,0.374 z"
   id="path72"
   inkscape:connector-curvature="0" />
	<path
   style="clip-rule:evenodd;fill:#466b2c;fill-rule:evenodd"
   d="m 24.989,6.567 0.187,0.608 c 0.717,-0.063 1.248,0.234 1.591,0.889 0.25,0.499 0.281,0.967 0.094,1.404 0.187,0.093 0.327,0.234 0.421,0.42 0.188,0.437 0.188,0.858 0,1.264 l 0.188,0.28 c 0.218,0.406 0.265,0.843 0.14,1.311 -0.125,0.437 -0.39,0.764 -0.795,0.982 l -0.094,0.047 c 0.125,0.343 0.125,0.67 0,0.983 -0.156,0.343 -0.39,0.592 -0.702,0.748 -0.125,0.094 -0.265,0.141 -0.421,0.141 0.125,0.312 0.125,0.608 0,0.889 -0.094,0.312 -0.281,0.53 -0.562,0.655 -0.188,0.093 -0.375,0.14 -0.562,0.14 0.063,0.405 -0.078,0.702 -0.421,0.889 -0.343,0.218 -0.687,0.156 -1.03,-0.187 -0.031,0.063 -0.14,0.125 -0.328,0.187 l -0.046,-0.046 c 0,0.686 -0.296,1.076 -0.889,1.169 l -0.421,-0.046 c -0.125,0.312 -0.374,0.515 -0.749,0.608 -0.218,0.031 -0.483,-0.047 -0.795,-0.234 l -0.046,-0.047 c -0.094,0.5 -0.343,0.858 -0.749,1.077 -0.125,0.093 -0.296,0.14 -0.515,0.14 0.125,0.28 0.14,0.562 0.047,0.842 -0.093,0.313 -0.265,0.531 -0.515,0.655 -0.25,0.093 -0.453,0.125 -0.608,0.093 -0.125,0.312 -0.281,0.5 -0.468,0.562 l -0.047,0.047 c 0.063,0.405 -0.109,0.702 -0.515,0.889 -0.218,0.125 -0.468,0.141 -0.749,0.047 -0.094,0.28 -0.266,0.499 -0.515,0.655 -0.437,0.249 -0.842,0.202 -1.217,-0.141 l -0.187,0.141 C 13.024,24.94 12.463,24.8 12.026,24.207 11.434,24.331 11.012,24.144 10.763,23.645 10.638,23.427 10.607,23.146 10.669,22.803 9.985,22.865 9.47,22.6 9.127,22.007 l -0.14,-0.374 c -0.655,0 -1.154,-0.296 -1.498,-0.889 -0.28,-0.499 -0.28,-1.014 0,-1.544 C 7.209,19.137 6.99,18.966 6.834,18.685 6.647,18.373 6.632,18.061 6.788,17.749 6.694,17.656 6.648,17.531 6.648,17.374 6.617,17.218 6.632,17.046 6.694,16.86 6.32,16.641 6.086,16.329 5.992,15.924 5.961,15.518 6.07,15.175 6.32,14.895 6.101,14.677 5.977,14.442 5.945,14.193 5.851,13.725 6.023,13.351 6.46,13.07 6.335,12.945 6.273,12.805 6.273,12.649 6.242,12.556 6.257,12.384 6.32,12.134 6.101,11.479 6.304,10.964 6.928,10.59 7.116,10.496 7.318,10.449 7.536,10.449 7.474,10.076 7.552,9.733 7.77,9.421 7.988,9.109 8.285,8.922 8.659,8.859 c 0.28,0 0.483,0.032 0.608,0.094 0,-0.374 0.125,-0.702 0.375,-0.982 C 9.86,7.659 10.157,7.472 10.531,7.409 10.5,7.066 10.609,6.754 10.859,6.473 11.077,6.161 11.374,5.974 11.748,5.911 l 0.562,0.047 c 0,-0.375 0.125,-0.702 0.374,-0.983 0.219,-0.312 0.515,-0.499 0.89,-0.562 0.53,-0.063 0.982,0.094 1.357,0.468 0.156,-0.156 0.39,-0.265 0.702,-0.327 h 0.14 c 0.219,-0.406 0.53,-0.624 0.936,-0.655 0.437,-0.063 0.811,0.063 1.123,0.374 0.25,-0.156 0.437,-0.234 0.562,-0.234 0.375,-0.031 0.702,0.063 0.983,0.281 0.187,-0.25 0.405,-0.39 0.655,-0.421 0.312,-0.031 0.593,0.046 0.842,0.234 0.25,0.156 0.39,0.39 0.421,0.702 v 0.093 l 0.14,-0.047 c 0.655,-0.093 1.092,0.172 1.31,0.795 0.031,0 0.234,0.047 0.608,0.14 0.747,-0.154 1.293,0.096 1.636,0.751 z"
   id="path74"
   inkscape:connector-curvature="0" />
	<path
   style="clip-rule:evenodd;fill:#5e943b;fill-rule:evenodd"
   d="M 20.263,6.005 C 19.889,6.13 19.624,5.974 19.468,5.537 19.25,5.1 19.328,4.804 19.702,4.648 c 0.312,-0.156 0.577,0 0.795,0.468 0.156,0.437 0.078,0.734 -0.234,0.889 z"
   id="path76"
   inkscape:connector-curvature="0" />
	<path
   style="clip-rule:evenodd;fill:#5e943b;fill-rule:evenodd"
   d="M 18.672,6.239 C 18.266,6.395 17.985,6.255 17.829,5.818 17.736,5.662 17.72,5.491 17.783,5.304 c 0.063,-0.188 0.171,-0.312 0.328,-0.375 0.405,-0.125 0.686,0.016 0.842,0.421 0.155,0.437 0.063,0.733 -0.281,0.889 z"
   id="path78"
   inkscape:connector-curvature="0" />
	<path
   style="clip-rule:evenodd;fill:#5e943b;fill-rule:evenodd"
   d="M 16.988,5.771 C 16.645,5.959 16.38,5.849 16.192,5.443 16.005,5.1 16.114,4.835 16.52,4.648 c 0.156,-0.062 0.312,-0.062 0.468,0 0.156,0.063 0.265,0.172 0.328,0.328 0.063,0.156 0.063,0.312 0,0.468 -0.064,0.187 -0.172,0.296 -0.328,0.327 z"
   id="path80"
   inkscape:connector-curvature="0" />
	<path
   style="clip-rule:evenodd;fill:#5e943b;fill-rule:evenodd"
   d="m 16.988,7.549 c -0.312,0.156 -0.562,0.063 -0.749,-0.28 -0.156,-0.343 -0.063,-0.608 0.28,-0.796 0.375,-0.156 0.64,-0.046 0.796,0.328 0.063,0.156 0.063,0.312 0,0.468 -0.063,0.156 -0.171,0.25 -0.327,0.28 z"
   id="path82"
   inkscape:connector-curvature="0" />
	<path
   style="clip-rule:evenodd;fill:#5e943b;fill-rule:evenodd"
   d="m 15.584,6.333 c -0.25,0.094 -0.437,0.031 -0.562,-0.188 -0.093,-0.25 -0.031,-0.437 0.187,-0.562 0.25,-0.093 0.437,-0.031 0.562,0.188 0.094,0.25 0.031,0.437 -0.187,0.562 z"
   id="path84"
   inkscape:connector-curvature="0" />
	<path
   style="clip-rule:evenodd;fill:#5e943b;fill-rule:evenodd"
   d="M 14.32,6.707 C 13.884,6.863 13.572,6.738 13.384,6.333 13.197,5.865 13.322,5.553 13.759,5.397 14.164,5.209 14.476,5.334 14.695,5.771 14.851,6.208 14.726,6.52 14.32,6.707 Z"
   id="path86"
   inkscape:connector-curvature="0" />
	<path
   style="clip-rule:evenodd;fill:#5e943b;fill-rule:evenodd"
   d="M 14.929,8.111 C 14.586,8.236 14.352,8.127 14.227,7.783 14.071,7.471 14.164,7.221 14.508,7.034 c 0.343,-0.125 0.593,-0.015 0.749,0.328 0.124,0.344 0.015,0.593 -0.328,0.749 z"
   id="path88"
   inkscape:connector-curvature="0" />
	<path
   style="clip-rule:evenodd;fill:#5e943b;fill-rule:evenodd"
   d="M 15.818,8.766 C 15.568,8.891 15.381,8.813 15.256,8.532 15.131,8.251 15.209,8.048 15.49,7.924 c 0.281,-0.093 0.468,-0.016 0.562,0.234 0.156,0.28 0.078,0.484 -0.234,0.608 z"
   id="path90"
   inkscape:connector-curvature="0" />
	<path
   style="clip-rule:evenodd;fill:#5e943b;fill-rule:evenodd"
   d="m 12.917,8.766 c -0.25,0.125 -0.499,0.14 -0.749,0.047 -0.25,-0.125 -0.437,-0.313 -0.562,-0.562 -0.125,-0.25 -0.125,-0.499 0,-0.749 0.093,-0.25 0.265,-0.421 0.515,-0.515 0.25,-0.125 0.499,-0.125 0.749,0 0.25,0.094 0.421,0.266 0.515,0.515 0.125,0.218 0.141,0.468 0.047,0.749 -0.094,0.249 -0.265,0.421 -0.515,0.515 z"
   id="path92"
   inkscape:connector-curvature="0" />
	<path
   style="clip-rule:evenodd;fill:#5e943b;fill-rule:evenodd"
   d="m 13.572,9.842 c -0.343,0.156 -0.593,0.046 -0.749,-0.328 -0.063,-0.125 -0.063,-0.265 0,-0.421 0.062,-0.156 0.156,-0.265 0.28,-0.327 0.375,-0.156 0.639,-0.063 0.795,0.281 0.158,0.374 0.048,0.639 -0.326,0.795 z"
   id="path94"
   inkscape:connector-curvature="0" />
	<path
   style="clip-rule:evenodd;fill:#5e943b;fill-rule:evenodd"
   d="m 11.513,11.34 c -0.218,0.093 -0.437,0.093 -0.655,0 -0.25,-0.094 -0.421,-0.25 -0.515,-0.468 -0.218,-0.53 -0.062,-0.936 0.468,-1.217 0.219,-0.094 0.453,-0.094 0.702,0 0.218,0.094 0.375,0.265 0.468,0.515 0.094,0.218 0.094,0.437 0,0.655 -0.093,0.249 -0.25,0.421 -0.468,0.515 z"
   id="path96"
   inkscape:connector-curvature="0" />
	<path
   style="clip-rule:evenodd;fill:#5e943b;fill-rule:evenodd"
   d="M 10.765,9.281 C 10.391,9.437 10.11,9.327 9.923,8.953 9.798,8.548 9.907,8.267 10.25,8.111 c 0.375,-0.156 0.655,-0.046 0.842,0.328 0.156,0.374 0.047,0.654 -0.327,0.842 z"
   id="path98"
   inkscape:connector-curvature="0" />
	<path
   style="clip-rule:evenodd;fill:#5e943b;fill-rule:evenodd"
   d="m 12.73,11.995 c -0.281,0.125 -0.483,0.031 -0.608,-0.281 -0.125,-0.281 -0.047,-0.483 0.234,-0.608 0.281,-0.125 0.499,-0.047 0.655,0.234 0.124,0.28 0.031,0.498 -0.281,0.655 z"
   id="path100"
   inkscape:connector-curvature="0" />
	<path
   style="clip-rule:evenodd;fill:#5e943b;fill-rule:evenodd"
   d="m 12.122,9.702 c -0.031,0.031 -0.094,0.031 -0.187,0 C 11.872,9.67 11.826,9.624 11.794,9.561 11.731,9.436 11.779,9.327 11.935,9.234 12.091,9.171 12.2,9.218 12.263,9.375 12.324,9.53 12.277,9.639 12.122,9.702 Z"
   id="path102"
   inkscape:connector-curvature="0" />
	<path
   style="clip-rule:evenodd;fill:#518033;fill-rule:evenodd"
   d="m 11.513,13.352 c -0.405,0.218 -0.702,0.109 -0.889,-0.328 -0.094,-0.156 -0.109,-0.328 -0.047,-0.515 0.094,-0.187 0.219,-0.312 0.375,-0.375 0.156,-0.062 0.327,-0.062 0.514,0 0.188,0.063 0.313,0.188 0.375,0.375 0.156,0.406 0.047,0.686 -0.328,0.843 z"
   id="path104"
   inkscape:connector-curvature="0" />
	<path
   style="clip-rule:evenodd;fill:#518033;fill-rule:evenodd"
   d="M 9.314,11.059 C 8.971,11.215 8.705,11.106 8.519,10.731 8.363,10.326 8.472,10.045 8.847,9.889 9.19,9.733 9.455,9.843 9.642,10.217 c 0.156,0.405 0.046,0.686 -0.328,0.842 z"
   id="path106"
   inkscape:connector-curvature="0" />
	<path
   style="clip-rule:evenodd;fill:#518033;fill-rule:evenodd"
   d="M 7.677,12.556 C 7.24,12.712 6.912,12.587 6.694,12.181 6.538,11.744 6.663,11.417 7.068,11.198 7.505,11.042 7.833,11.183 8.051,11.619 8.238,12.088 8.113,12.4 7.677,12.556 Z"
   id="path108"
   inkscape:connector-curvature="0" />
	<path
   style="clip-rule:evenodd;fill:#518033;fill-rule:evenodd"
   d="m 9.267,13.024 c -0.468,0.218 -0.811,0.094 -1.029,-0.375 -0.062,-0.187 -0.062,-0.374 0,-0.562 0.094,-0.218 0.234,-0.358 0.421,-0.421 0.437,-0.218 0.764,-0.093 0.982,0.375 0.063,0.187 0.063,0.374 0,0.561 -0.061,0.219 -0.186,0.359 -0.374,0.422 z"
   id="path110"
   inkscape:connector-curvature="0" />
	<path
   style="clip-rule:evenodd;fill:#5e943b;fill-rule:evenodd"
   d="m 10.297,11.995 c -0.281,0.125 -0.453,0.047 -0.515,-0.234 -0.125,-0.218 -0.063,-0.39 0.187,-0.514 0.25,-0.063 0.421,0.016 0.515,0.234 0.125,0.217 0.062,0.389 -0.187,0.514 z"
   id="path112"
   inkscape:connector-curvature="0" />
	<path
   style="clip-rule:evenodd;fill:#518033;fill-rule:evenodd"
   d="m 9.875,14.755 c -0.499,0.156 -0.842,0.015 -1.029,-0.421 -0.063,-0.187 -0.063,-0.375 0,-0.562 0.093,-0.218 0.234,-0.359 0.42,-0.421 0.437,-0.218 0.765,-0.078 0.983,0.421 0.219,0.437 0.094,0.765 -0.374,0.983 z"
   id="path114"
   inkscape:connector-curvature="0" />
	<path
   style="clip-rule:evenodd;fill:#518033;fill-rule:evenodd"
   d="m 13.993,13.772 c -0.406,0.156 -0.686,0.047 -0.842,-0.327 -0.093,-0.375 0.016,-0.64 0.328,-0.796 0.406,-0.156 0.686,-0.047 0.842,0.328 0.187,0.375 0.077,0.64 -0.328,0.795 z"
   id="path116"
   inkscape:connector-curvature="0" />
	<path
   style="clip-rule:evenodd;fill:#518033;fill-rule:evenodd"
   d="m 15.865,13.352 c -0.343,0.125 -0.592,0.016 -0.749,-0.328 -0.125,-0.375 -0.016,-0.608 0.327,-0.702 0.125,-0.063 0.265,-0.063 0.421,0 0.156,0.031 0.25,0.125 0.281,0.28 0.156,0.313 0.063,0.562 -0.28,0.75 z"
   id="path118"
   inkscape:connector-curvature="0" />
	<path
   style="clip-rule:evenodd;fill:#518033;fill-rule:evenodd"
   d="m 20.59,12.93 c -0.312,0.094 -0.546,0 -0.702,-0.281 -0.125,-0.312 -0.031,-0.53 0.28,-0.655 0.343,-0.125 0.562,-0.031 0.655,0.281 0.157,0.25 0.079,0.468 -0.233,0.655 z"
   id="path120"
   inkscape:connector-curvature="0" />
	<path
   style="clip-rule:evenodd;fill:#5e943b;fill-rule:evenodd"
   d="m 21.526,10.216 c -0.25,0.125 -0.437,0.047 -0.562,-0.234 -0.094,-0.28 -0.016,-0.468 0.234,-0.562 0.281,-0.094 0.468,-0.016 0.562,0.234 0.156,0.25 0.078,0.438 -0.234,0.562 z"
   id="path122"
   inkscape:connector-curvature="0" />
	<path
   style="clip-rule:evenodd;fill:#5e943b;fill-rule:evenodd"
   d="M 22.836,9.375 C 22.649,9.437 22.524,9.391 22.461,9.234 22.398,9.047 22.445,8.922 22.602,8.859 22.79,8.797 22.915,8.844 22.977,9 c 0.062,0.187 0.016,0.312 -0.141,0.375 z"
   id="path124"
   inkscape:connector-curvature="0" />
	<path
   style="clip-rule:evenodd;fill:#5e943b;fill-rule:evenodd"
   d="m 22.743,12.042 c -0.25,0.093 -0.437,0.031 -0.561,-0.188 -0.094,-0.28 -0.016,-0.468 0.234,-0.562 0.25,-0.125 0.421,-0.046 0.514,0.234 0.125,0.219 0.063,0.391 -0.187,0.516 z"
   id="path126"
   inkscape:connector-curvature="0" />
	<path
   style="clip-rule:evenodd;fill:#5e943b;fill-rule:evenodd"
   d="m 22.509,7.597 c -0.312,0.156 -0.546,0.062 -0.702,-0.281 -0.093,-0.312 0,-0.545 0.281,-0.702 0.374,-0.125 0.608,-0.031 0.702,0.281 0.187,0.343 0.093,0.577 -0.281,0.702 z"
   id="path128"
   inkscape:connector-curvature="0" />
	<path
   style="clip-rule:evenodd;fill:#5e943b;fill-rule:evenodd"
   d="m 22.041,6.427 c -0.187,0.062 -0.312,0 -0.374,-0.188 -0.094,-0.125 -0.046,-0.25 0.14,-0.374 0.125,-0.031 0.25,0.031 0.375,0.187 0.062,0.156 0.015,0.281 -0.141,0.375 z"
   id="path130"
   inkscape:connector-curvature="0" />
	<path
   style="clip-rule:evenodd;fill:#5e943b;fill-rule:evenodd"
   d="M 20.965,7.362 C 20.622,7.487 20.372,7.378 20.216,7.034 20.091,6.66 20.2,6.426 20.544,6.332 c 0.125,-0.063 0.265,-0.063 0.421,0 0.156,0.031 0.25,0.125 0.281,0.281 0.155,0.313 0.062,0.562 -0.281,0.749 z"
   id="path132"
   inkscape:connector-curvature="0" />
	<path
   style="clip-rule:evenodd;fill:#5e943b;fill-rule:evenodd"
   d="M 19.608,6.988 C 19.421,7.113 19.296,7.066 19.233,6.848 19.14,6.692 19.186,6.552 19.374,6.427 c 0.187,-0.063 0.327,0 0.421,0.187 0.062,0.187 0,0.312 -0.187,0.374 z"
   id="path134"
   inkscape:connector-curvature="0" />
	<path
   style="clip-rule:evenodd;fill:#518033;fill-rule:evenodd"
   d="M 23.772,7.924 C 23.492,8.017 23.304,7.94 23.21,7.69 23.054,7.41 23.132,7.207 23.444,7.082 c 0.25,-0.125 0.437,-0.047 0.562,0.234 0.125,0.311 0.047,0.515 -0.234,0.608 z"
   id="path136"
   inkscape:connector-curvature="0" />
	<path
   style="clip-rule:evenodd;fill:#518033;fill-rule:evenodd"
   d="M 25.036,9.655 C 24.568,9.811 24.24,9.671 24.054,9.234 23.835,8.797 23.96,8.47 24.428,8.252 c 0.468,-0.219 0.811,-0.078 1.029,0.421 0.156,0.468 0.015,0.795 -0.421,0.982 z"
   id="path138"
   inkscape:connector-curvature="0" />
	<path
   style="clip-rule:evenodd;fill:#518033;fill-rule:evenodd"
   d="m 26.018,11.199 c -0.405,0.156 -0.686,0.047 -0.842,-0.327 -0.187,-0.343 -0.078,-0.608 0.328,-0.795 0.374,-0.156 0.639,-0.047 0.795,0.328 0.156,0.373 0.062,0.638 -0.281,0.794 z"
   id="path140"
   inkscape:connector-curvature="0" />
	<path
   style="clip-rule:evenodd;fill:#5e943b;fill-rule:evenodd"
   d="m 23.912,11.012 c -0.28,0.093 -0.514,0 -0.702,-0.281 -0.125,-0.374 -0.031,-0.608 0.281,-0.702 0.125,-0.063 0.265,-0.063 0.42,0 0.156,0.031 0.25,0.125 0.281,0.281 0.188,0.281 0.095,0.515 -0.28,0.702 z"
   id="path142"
   inkscape:connector-curvature="0" />
	<path
   style="clip-rule:evenodd;fill:#5e943b;fill-rule:evenodd"
   d="m 22.696,10.778 c -0.25,0.094 -0.437,0.031 -0.562,-0.187 -0.094,-0.25 -0.031,-0.437 0.188,-0.562 0.25,-0.093 0.437,-0.031 0.562,0.187 0.093,0.25 0.031,0.437 -0.188,0.562 z"
   id="path144"
   inkscape:connector-curvature="0" />
	<path
   style="clip-rule:evenodd;fill:#518033;fill-rule:evenodd"
   d="m 24.802,12.462 c -0.406,0.156 -0.687,0.047 -0.842,-0.328 -0.063,-0.156 -0.063,-0.327 0,-0.515 0.062,-0.156 0.171,-0.265 0.328,-0.328 0.405,-0.156 0.686,-0.046 0.842,0.328 0.155,0.406 0.046,0.688 -0.328,0.843 z"
   id="path146"
   inkscape:connector-curvature="0" />
	<path
   style="clip-rule:evenodd;fill:#518033;fill-rule:evenodd"
   d="m 26.346,13.398 c -0.219,0.094 -0.437,0.094 -0.655,0 -0.219,-0.094 -0.375,-0.25 -0.468,-0.468 -0.218,-0.499 -0.078,-0.889 0.421,-1.17 0.218,-0.093 0.453,-0.093 0.702,0 0.218,0.094 0.374,0.25 0.468,0.468 0.094,0.25 0.094,0.483 0,0.702 -0.094,0.219 -0.25,0.374 -0.468,0.468 z"
   id="path148"
   inkscape:connector-curvature="0" />
	<path
   style="clip-rule:evenodd;fill:#518033;fill-rule:evenodd"
   d="m 24.661,14.1 c -0.281,0.156 -0.483,0.078 -0.608,-0.234 -0.156,-0.281 -0.078,-0.484 0.234,-0.608 0.28,-0.156 0.483,-0.078 0.608,0.234 0.156,0.28 0.078,0.483 -0.234,0.608 z"
   id="path150"
   inkscape:connector-curvature="0" />
	<path
   style="clip-rule:evenodd;fill:#518033;fill-rule:evenodd"
   d="m 23.257,13.398 c -0.374,0.094 -0.64,-0.016 -0.795,-0.328 -0.156,-0.374 -0.046,-0.639 0.328,-0.795 0.343,-0.125 0.593,-0.016 0.749,0.327 0.187,0.344 0.093,0.609 -0.282,0.796 z"
   id="path152"
   inkscape:connector-curvature="0" />
	<path
   style="clip-rule:evenodd;fill:#518033;fill-rule:evenodd"
   d="m 21.667,12.836 c -0.187,0.063 -0.328,0 -0.421,-0.187 -0.063,-0.187 0,-0.312 0.187,-0.374 0.188,-0.125 0.312,-0.078 0.374,0.14 0.093,0.156 0.047,0.297 -0.14,0.421 z"
   id="path154"
   inkscape:connector-curvature="0" />
	<path
   style="clip-rule:evenodd;fill:#5e943b;fill-rule:evenodd"
   d="m 21.012,11.433 c -0.125,0.063 -0.218,0.032 -0.281,-0.093 -0.063,-0.156 -0.016,-0.266 0.14,-0.328 0.125,-0.063 0.218,-0.016 0.281,0.14 0.062,0.125 0.015,0.219 -0.14,0.281 z"
   id="path156"
   inkscape:connector-curvature="0" />
	<path
   style="clip-rule:evenodd;fill:#5e943b;fill-rule:evenodd"
   d="m 18.391,8.438 c -0.25,0.094 -0.437,0.031 -0.562,-0.187 -0.093,-0.25 -0.031,-0.437 0.188,-0.562 0.28,-0.093 0.468,-0.015 0.562,0.234 0.062,0.093 0.062,0.203 0,0.328 -0.032,0.094 -0.094,0.157 -0.188,0.187 z"
   id="path158"
   inkscape:connector-curvature="0" />
	<path
   style="clip-rule:evenodd;fill:#5e943b;fill-rule:evenodd"
   d="m 19.842,8.438 c -0.218,0.125 -0.39,0.062 -0.515,-0.187 -0.062,-0.187 0,-0.343 0.187,-0.468 0.219,-0.125 0.39,-0.062 0.515,0.188 0.125,0.249 0.062,0.405 -0.187,0.467 z"
   id="path160"
   inkscape:connector-curvature="0" />
	<path
   style="clip-rule:evenodd;fill:#5e943b;fill-rule:evenodd"
   d="m 15.163,10.029 c -0.25,0.125 -0.437,0.047 -0.562,-0.234 -0.094,-0.281 -0.016,-0.468 0.234,-0.562 0.281,-0.093 0.468,-0.016 0.562,0.234 0.093,0.282 0.016,0.469 -0.234,0.562 z"
   id="path162"
   inkscape:connector-curvature="0" />
	<path
   style="clip-rule:evenodd;fill:#5e943b;fill-rule:evenodd"
   d="m 14.602,9 c -0.156,0.093 -0.296,0.047 -0.421,-0.141 -0.062,-0.187 0,-0.312 0.188,-0.374 0.125,-0.094 0.25,-0.047 0.374,0.14 0.061,0.188 0.014,0.313 -0.141,0.375 z"
   id="path164"
   inkscape:connector-curvature="0" />
	<path
   style="clip-rule:evenodd;fill:#5e943b;fill-rule:evenodd"
   d="m 14.18,10.918 c -0.312,0.156 -0.53,0.078 -0.655,-0.234 -0.156,-0.281 -0.078,-0.515 0.234,-0.702 0.312,-0.094 0.546,0 0.702,0.281 0.093,0.312 0,0.53 -0.281,0.655 z"
   id="path166"
   inkscape:connector-curvature="0" />
	<path
   style="clip-rule:evenodd;fill:#5e943b;fill-rule:evenodd"
   d="m 12.824,10.778 c -0.25,0.125 -0.406,0.063 -0.468,-0.187 -0.093,-0.187 -0.031,-0.343 0.187,-0.468 0.188,-0.125 0.343,-0.063 0.468,0.187 0.062,0.219 -10e-4,0.375 -0.187,0.468 z"
   id="path168"
   inkscape:connector-curvature="0" />
	<path
   style="clip-rule:evenodd;fill:#5e943b;fill-rule:evenodd"
   d="M 17.128,9.187 C 16.785,9.312 16.535,9.203 16.379,8.859 16.191,8.516 16.285,8.282 16.66,8.157 c 0.156,-0.063 0.312,-0.063 0.468,0 0.156,0.063 0.25,0.156 0.281,0.281 C 17.564,8.75 17.471,9 17.128,9.187 Z"
   id="path170"
   inkscape:connector-curvature="0" />
	<path
   style="clip-rule:evenodd;fill:#5e943b;fill-rule:evenodd"
   d="m 16.146,9.655 c -0.125,0.063 -0.218,0.031 -0.281,-0.094 -0.063,-0.125 -0.016,-0.218 0.141,-0.28 0.093,-0.063 0.171,-0.016 0.234,0.14 0.061,0.094 0.03,0.172 -0.094,0.234 z"
   id="path172"
   inkscape:connector-curvature="0" />
	<path
   style="clip-rule:evenodd;fill:#5e943b;fill-rule:evenodd"
   d="m 15.912,11.62 c -0.468,0.156 -0.78,0.016 -0.936,-0.421 -0.094,-0.187 -0.094,-0.374 0,-0.561 0.063,-0.188 0.188,-0.312 0.375,-0.375 0.187,-0.093 0.374,-0.093 0.562,0 0.187,0.063 0.312,0.187 0.374,0.375 0.217,0.436 0.092,0.764 -0.375,0.982 z"
   id="path174"
   inkscape:connector-curvature="0" />
	<path
   style="clip-rule:evenodd;fill:#5e943b;fill-rule:evenodd"
   d="m 14.461,12.369 c -0.375,0.094 -0.64,-0.016 -0.796,-0.327 -0.063,-0.125 -0.063,-0.266 0,-0.421 0.063,-0.155 0.156,-0.265 0.281,-0.328 0.374,-0.156 0.64,-0.062 0.795,0.281 0.156,0.374 0.063,0.639 -0.28,0.795 z"
   id="path176"
   inkscape:connector-curvature="0" />
	<path
   style="clip-rule:evenodd;fill:#518033;fill-rule:evenodd"
   d="m 12.776,12.884 c -0.156,0.062 -0.265,0.015 -0.328,-0.141 -0.125,-0.187 -0.078,-0.312 0.141,-0.375 0.125,-0.093 0.249,-0.046 0.374,0.141 0.063,0.156 0.001,0.281 -0.187,0.375 z"
   id="path178"
   inkscape:connector-curvature="0" />
	<path
   style="clip-rule:evenodd;fill:#5e943b;fill-rule:evenodd"
   d="m 17.689,11.012 c -0.437,0.218 -0.764,0.093 -0.982,-0.375 -0.218,-0.468 -0.094,-0.811 0.374,-1.029 0.468,-0.156 0.811,-0.016 1.03,0.421 0.062,0.187 0.062,0.375 0,0.562 -0.063,0.218 -0.203,0.358 -0.422,0.421 z"
   id="path180"
   inkscape:connector-curvature="0" />
	<path
   style="clip-rule:evenodd;fill:#5e943b;fill-rule:evenodd"
   d="m 18.251,7.222 c -0.188,0.063 -0.312,0 -0.374,-0.187 -0.125,-0.187 -0.078,-0.312 0.14,-0.374 0.156,-0.094 0.296,-0.047 0.421,0.14 0.062,0.249 0,0.39 -0.187,0.421 z"
   id="path182"
   inkscape:connector-curvature="0" />
	<path
   style="clip-rule:evenodd;fill:#5e943b;fill-rule:evenodd"
   d="M 19.14,10.029 C 18.797,10.185 18.532,10.092 18.345,9.748 18.189,9.405 18.282,9.14 18.625,8.953 19,8.797 19.265,8.906 19.421,9.281 c 0.063,0.156 0.063,0.312 0,0.468 -0.031,0.155 -0.125,0.249 -0.281,0.28 z"
   id="path184"
   inkscape:connector-curvature="0" />
	<path
   style="clip-rule:evenodd;fill:#5e943b;fill-rule:evenodd"
   d="m 20.076,10.404 c -0.25,0.062 -0.421,-0.016 -0.515,-0.234 -0.062,-0.218 0,-0.375 0.188,-0.468 0.218,-0.125 0.39,-0.063 0.514,0.187 0.062,0.249 0,0.421 -0.187,0.515 z"
   id="path186"
   inkscape:connector-curvature="0" />
	<path
   style="clip-rule:evenodd;fill:#5e943b;fill-rule:evenodd"
   d="M 20.824,9.234 C 20.544,9.39 20.341,9.312 20.216,9 20.122,8.719 20.2,8.532 20.45,8.438 c 0.312,-0.125 0.515,-0.047 0.608,0.234 0.094,0.281 0.016,0.469 -0.234,0.562 z"
   id="path188"
   inkscape:connector-curvature="0" />
	<path
   style="clip-rule:evenodd;fill:#5e943b;fill-rule:evenodd"
   d="m 21.479,8.251 c -0.187,0.063 -0.343,0 -0.468,-0.187 -0.063,-0.188 0,-0.343 0.187,-0.468 0.218,-0.063 0.374,0 0.468,0.187 0.063,0.219 0.001,0.375 -0.187,0.468 z"
   id="path190"
   inkscape:connector-curvature="0" />
	<path
   style="clip-rule:evenodd;fill:#5e943b;fill-rule:evenodd"
   d="M 22.228,8.813 C 22.01,8.938 21.838,8.876 21.713,8.625 21.588,8.407 21.65,8.235 21.9,8.11 22.15,8.016 22.321,8.079 22.415,8.298 22.54,8.579 22.478,8.75 22.228,8.813 Z"
   id="path192"
   inkscape:connector-curvature="0" />
	<path
   style="clip-rule:evenodd;fill:#5e943b;fill-rule:evenodd"
   d="m 19.421,12.182 c -0.437,0.219 -0.765,0.094 -0.982,-0.374 -0.156,-0.437 -0.032,-0.765 0.374,-0.983 0.437,-0.156 0.764,-0.016 0.982,0.421 0.187,0.468 0.062,0.779 -0.374,0.936 z"
   id="path194"
   inkscape:connector-curvature="0" />
	<path
   style="clip-rule:evenodd;fill:#518033;fill-rule:evenodd"
   d="m 17.923,12.322 c -0.25,0.156 -0.468,0.078 -0.655,-0.234 -0.125,-0.312 -0.032,-0.514 0.281,-0.608 0.28,-0.156 0.483,-0.078 0.608,0.234 0.125,0.311 0.048,0.515 -0.234,0.608 z"
   id="path196"
   inkscape:connector-curvature="0" />
	<path
   style="clip-rule:evenodd;fill:#518033;fill-rule:evenodd"
   d="m 16.707,12.229 c -0.25,0.094 -0.437,0.031 -0.562,-0.187 -0.094,-0.281 -0.016,-0.468 0.234,-0.562 0.25,-0.125 0.437,-0.063 0.562,0.187 0.094,0.281 0.016,0.468 -0.234,0.562 z"
   id="path198"
   inkscape:connector-curvature="0" />
	<path
   style="clip-rule:evenodd;fill:#518033;fill-rule:evenodd"
   d="m 18.391,12.93 c -0.094,0.063 -0.171,0.031 -0.234,-0.094 -0.062,-0.125 -0.031,-0.218 0.094,-0.28 0.125,-0.063 0.218,-0.031 0.281,0.093 0,0.157 -0.047,0.25 -0.141,0.281 z"
   id="path200"
   inkscape:connector-curvature="0" />
	<path
   style="clip-rule:evenodd;fill:#518033;fill-rule:evenodd"
   d="m 21.76,14.381 c -0.312,0.125 -0.515,0.031 -0.608,-0.281 -0.125,-0.281 -0.047,-0.483 0.234,-0.608 0.281,-0.125 0.499,-0.046 0.655,0.234 0.125,0.343 0.031,0.561 -0.281,0.655 z"
   id="path202"
   inkscape:connector-curvature="0" />
	<path
   style="clip-rule:evenodd;fill:#518033;fill-rule:evenodd"
   d="m 22.836,15.036 c -0.281,0.125 -0.515,0.031 -0.702,-0.28 -0.125,-0.375 -0.031,-0.608 0.281,-0.702 0.125,-0.063 0.265,-0.063 0.421,0 0.156,0.031 0.25,0.125 0.281,0.281 0.187,0.28 0.093,0.514 -0.281,0.701 z"
   id="path204"
   inkscape:connector-curvature="0" />
	<path
   style="clip-rule:evenodd;fill:#518033;fill-rule:evenodd"
   d="m 23.819,15.831 c -0.343,0.188 -0.609,0.078 -0.796,-0.328 -0.156,-0.405 -0.047,-0.686 0.328,-0.842 0.375,-0.094 0.639,0.016 0.795,0.328 0.157,0.406 0.047,0.686 -0.327,0.842 z"
   id="path206"
   inkscape:connector-curvature="0" />
	<path
   style="clip-rule:evenodd;fill:#518033;fill-rule:evenodd"
   d="m 24.989,16.393 c -0.343,0.125 -0.562,0.031 -0.655,-0.281 -0.125,-0.281 -0.046,-0.483 0.234,-0.608 0.343,-0.093 0.562,-0.015 0.655,0.234 0.125,0.343 0.047,0.561 -0.234,0.655 z"
   id="path208"
   inkscape:connector-curvature="0" />
	<path
   style="clip-rule:evenodd;fill:#518033;fill-rule:evenodd"
   d="m 25.784,14.942 c -0.343,0.125 -0.592,0.016 -0.748,-0.327 -0.063,-0.125 -0.063,-0.265 0,-0.421 0.031,-0.125 0.125,-0.218 0.28,-0.28 0.312,-0.156 0.562,-0.063 0.749,0.28 0.156,0.312 0.062,0.561 -0.281,0.748 z"
   id="path210"
   inkscape:connector-curvature="0" />
	<path
   style="clip-rule:evenodd;fill:#518033;fill-rule:evenodd"
   d="M 26.439,9.468 C 26.252,9.561 26.096,9.499 25.971,9.28 25.877,9.092 25.94,8.937 26.159,8.812 26.346,8.719 26.502,8.782 26.626,9 c 0.125,0.25 0.062,0.405 -0.187,0.468 z"
   id="path212"
   inkscape:connector-curvature="0" />
	<path
   style="clip-rule:evenodd;fill:#518033;fill-rule:evenodd"
   d="m 25.925,8.532 c -0.25,0.125 -0.406,0.062 -0.468,-0.188 -0.093,-0.187 -0.031,-0.343 0.187,-0.468 0.188,-0.125 0.343,-0.063 0.468,0.188 0.124,0.25 0.062,0.406 -0.187,0.468 z"
   id="path214"
   inkscape:connector-curvature="0" />
	<path
   style="clip-rule:evenodd;fill:#518033;fill-rule:evenodd"
   d="m 24.755,7.737 c -0.218,0.125 -0.39,0.062 -0.515,-0.188 -0.125,-0.218 -0.062,-0.39 0.188,-0.515 0.218,-0.125 0.39,-0.063 0.515,0.187 0.123,0.282 0.061,0.453 -0.188,0.516 z"
   id="path216"
   inkscape:connector-curvature="0" />
	<path
   style="clip-rule:evenodd;fill:#518033;fill-rule:evenodd"
   d="M 23.632,6.707 C 23.444,6.77 23.32,6.723 23.257,6.567 23.194,6.38 23.242,6.255 23.398,6.193 c 0.187,-0.063 0.312,-0.016 0.374,0.14 0.062,0.187 0.016,0.312 -0.14,0.374 z"
   id="path218"
   inkscape:connector-curvature="0" />
	<path
   style="clip-rule:evenodd;fill:#518033;fill-rule:evenodd"
   d="m 21.105,5.725 c -0.218,0.062 -0.359,0 -0.421,-0.188 -0.094,-0.156 -0.047,-0.296 0.14,-0.421 0.25,-0.062 0.39,0 0.421,0.188 0.063,0.187 0.016,0.327 -0.14,0.421 z"
   id="path220"
   inkscape:connector-curvature="0" />
	<path
   style="clip-rule:evenodd;fill:#5e943b;fill-rule:evenodd"
   d="M 12.824,6.614 C 12.668,6.677 12.558,6.629 12.496,6.473 12.402,6.348 12.433,6.239 12.59,6.145 12.746,6.083 12.855,6.13 12.917,6.286 13.042,6.411 13.01,6.52 12.824,6.614 Z"
   id="path222"
   inkscape:connector-curvature="0" />
	<path
   style="clip-rule:evenodd;fill:#476e2d;fill-rule:evenodd"
   d="m 14.882,13.632 c 0.125,-0.28 0.297,-0.468 0.515,-0.562 0.218,-0.125 0.468,-0.14 0.749,-0.046 0.25,0.094 0.437,0.265 0.562,0.515 v 0.093 l 0.14,-0.093 c 0.531,-0.218 0.982,-0.093 1.357,0.375 0.187,-0.032 0.374,-0.032 0.561,0 0.281,-0.156 0.562,-0.203 0.842,-0.141 0.312,0.031 0.577,0.156 0.795,0.375 0.156,0.156 0.25,0.312 0.281,0.468 0.624,-0.218 1.17,-0.094 1.638,0.375 0.312,0.312 0.468,0.717 0.468,1.216 l 0.421,0.281 c 0.312,0.312 0.421,0.67 0.328,1.076 l 0.234,0.187 c 0.312,0.343 0.468,0.718 0.468,1.123 0,0.437 -0.156,0.811 -0.468,1.123 l -0.094,0.047 c 0.437,0.592 0.39,1.154 -0.14,1.684 l -0.374,0.234 c 0.187,0.25 0.265,0.515 0.234,0.795 0,0.281 -0.109,0.515 -0.328,0.702 -0.156,0.156 -0.312,0.25 -0.468,0.281 0.156,0.343 0.109,0.639 -0.141,0.889 -0.312,0.249 -0.624,0.265 -0.936,0.047 -0.031,0.125 -0.109,0.218 -0.234,0.28 h -0.094 c 0.218,0.53 0.047,0.936 -0.515,1.217 l -0.328,0.094 c -0.063,0.312 -0.234,0.546 -0.515,0.702 -0.281,0.093 -0.53,0.093 -0.749,0 H 19 c 0.063,0.436 -0.062,0.811 -0.375,1.122 -0.218,0.125 -0.358,0.203 -0.42,0.233 0.187,0.219 0.28,0.469 0.28,0.75 -0.031,0.28 -0.14,0.515 -0.328,0.701 -0.125,0.125 -0.296,0.219 -0.515,0.281 0,0.218 -0.093,0.421 -0.281,0.607 0.125,0.406 0.047,0.718 -0.234,0.936 -0.187,0.219 -0.405,0.297 -0.655,0.234 0,0.281 -0.094,0.516 -0.281,0.702 -0.343,0.281 -0.717,0.343 -1.123,0.187 l -0.14,0.188 c -0.219,0.219 -0.484,0.327 -0.795,0.327 -0.281,0 -0.546,-0.093 -0.796,-0.28 -0.437,0.249 -0.842,0.188 -1.216,-0.188 -0.187,-0.187 -0.281,-0.42 -0.281,-0.702 -0.593,0.25 -1.123,0.142 -1.591,-0.327 L 10.062,31.46 C 9.469,31.648 8.955,31.523 8.518,31.085 8.112,30.68 7.987,30.229 8.143,29.729 7.831,29.729 7.581,29.635 7.394,29.449 7.176,29.23 7.098,28.95 7.16,28.607 7.035,28.544 6.957,28.451 6.926,28.325 6.832,28.201 6.817,28.045 6.88,27.857 6.474,27.795 6.178,27.577 5.991,27.203 5.866,26.89 5.882,26.563 6.038,26.221 5.788,26.127 5.617,25.955 5.523,25.706 5.336,25.301 5.398,24.941 5.711,24.63 5.586,24.536 5.493,24.411 5.43,24.255 5.367,24.162 5.337,24.022 5.337,23.834 4.962,23.273 5.009,22.758 5.477,22.29 5.508,22.259 5.68,22.165 5.992,22.009 5.836,21.697 5.821,21.385 5.945,21.073 6.039,20.73 6.257,20.48 6.6,20.324 L 7.162,20.231 C 7.068,19.888 7.084,19.576 7.209,19.295 7.334,18.952 7.552,18.718 7.864,18.593 h 0.047 c -0.125,-0.312 -0.125,-0.624 0,-0.936 0.125,-0.312 0.343,-0.546 0.655,-0.702 0.031,0 0.203,-0.047 0.515,-0.141 -0.094,-0.343 -0.078,-0.655 0.046,-0.936 0.156,-0.343 0.39,-0.577 0.702,-0.702 0.405,-0.218 0.826,-0.202 1.263,0.047 0.187,-0.218 0.374,-0.375 0.562,-0.468 l 0.14,-0.047 c 0.125,-0.405 0.343,-0.67 0.655,-0.795 0.343,-0.188 0.702,-0.172 1.077,0.046 0.125,-0.156 0.265,-0.28 0.421,-0.374 0.343,-0.156 0.655,-0.14 0.935,0.047 z"
   id="path224"
   inkscape:connector-curvature="0" />
	<path
   style="clip-rule:evenodd;fill:#5f963c;fill-rule:evenodd"
   d="m 16.099,14.849 c -0.312,0.187 -0.592,0.125 -0.842,-0.187 -0.281,-0.375 -0.281,-0.671 0,-0.889 0.25,-0.187 0.515,-0.109 0.795,0.234 0.281,0.311 0.296,0.592 0.047,0.842 z"
   id="path226"
   inkscape:connector-curvature="0" />
	<path
   style="clip-rule:evenodd;fill:#5f963c;fill-rule:evenodd"
   d="m 14.742,15.457 c -0.28,0.218 -0.562,0.171 -0.842,-0.14 -0.281,-0.343 -0.265,-0.625 0.047,-0.843 0.281,-0.218 0.562,-0.171 0.842,0.141 0.28,0.312 0.265,0.593 -0.047,0.842 z"
   id="path228"
   inkscape:connector-curvature="0" />
	<path
   style="clip-rule:evenodd;fill:#5f963c;fill-rule:evenodd"
   d="m 13.151,15.503 c -0.25,0.219 -0.515,0.188 -0.795,-0.093 -0.218,-0.281 -0.187,-0.546 0.093,-0.795 0.312,-0.25 0.577,-0.218 0.796,0.093 0.218,0.281 0.187,0.546 -0.094,0.795 z"
   id="path230"
   inkscape:connector-curvature="0" />
	<path
   style="clip-rule:evenodd;fill:#5f963c;fill-rule:evenodd"
   d="m 13.619,17.047 c -0.281,0.219 -0.53,0.188 -0.749,-0.093 -0.094,-0.094 -0.14,-0.219 -0.14,-0.375 0,-0.156 0.062,-0.28 0.187,-0.374 0.281,-0.219 0.546,-0.187 0.795,0.094 0.219,0.281 0.187,0.531 -0.093,0.748 z"
   id="path232"
   inkscape:connector-curvature="0" />
	<path
   style="clip-rule:evenodd;fill:#5f963c;fill-rule:evenodd"
   d="m 12.028,16.346 c -0.156,0.156 -0.328,0.141 -0.515,-0.046 -0.156,-0.219 -0.14,-0.405 0.047,-0.562 0.062,-0.063 0.156,-0.094 0.281,-0.094 0.094,0.031 0.172,0.078 0.234,0.141 0.156,0.217 0.14,0.405 -0.047,0.561 z"
   id="path234"
   inkscape:connector-curvature="0" />
	<path
   style="clip-rule:evenodd;fill:#5f963c;fill-rule:evenodd"
   d="m 11.045,16.955 c -0.312,0.28 -0.624,0.265 -0.936,-0.047 -0.28,-0.343 -0.25,-0.655 0.094,-0.936 0.344,-0.281 0.655,-0.25 0.936,0.094 0.249,0.342 0.218,0.639 -0.094,0.889 z"
   id="path236"
   inkscape:connector-curvature="0" />
	<path
   style="clip-rule:evenodd;fill:#5f963c;fill-rule:evenodd"
   d="m 11.935,18.03 c -0.25,0.219 -0.499,0.203 -0.749,-0.047 -0.188,-0.312 -0.156,-0.561 0.093,-0.749 0.281,-0.218 0.515,-0.188 0.702,0.094 0.25,0.25 0.234,0.484 -0.046,0.702 z"
   id="path238"
   inkscape:connector-curvature="0" />
	<path
   style="clip-rule:evenodd;fill:#5f963c;fill-rule:evenodd"
   d="m 12.87,18.405 c -0.218,0.156 -0.405,0.125 -0.562,-0.094 -0.187,-0.187 -0.171,-0.375 0.047,-0.562 0.218,-0.156 0.405,-0.14 0.562,0.047 0.218,0.219 0.203,0.421 -0.047,0.609 z"
   id="path240"
   inkscape:connector-curvature="0" />
	<path
   style="clip-rule:evenodd;fill:#5f963c;fill-rule:evenodd"
   d="M 10.297,19.153 C 10.109,19.309 9.892,19.387 9.642,19.387 9.392,19.356 9.19,19.246 9.034,19.06 8.878,18.841 8.816,18.607 8.847,18.358 c 0,-0.25 0.109,-0.437 0.327,-0.562 0.187,-0.156 0.406,-0.234 0.655,-0.234 0.249,0.031 0.452,0.14 0.608,0.328 0.156,0.218 0.218,0.452 0.188,0.702 -0.032,0.249 -0.141,0.436 -0.328,0.561 z"
   id="path242"
   inkscape:connector-curvature="0" />
	<path
   style="clip-rule:evenodd;fill:#5f963c;fill-rule:evenodd"
   d="m 11.186,19.902 c -0.312,0.25 -0.577,0.234 -0.795,-0.047 -0.219,-0.281 -0.188,-0.545 0.093,-0.795 0.281,-0.219 0.53,-0.188 0.749,0.093 0.218,0.281 0.203,0.531 -0.047,0.749 z"
   id="path244"
   inkscape:connector-curvature="0" />
	<path
   style="clip-rule:evenodd;fill:#5f963c;fill-rule:evenodd"
   d="M 9.735,21.773 C 9.267,22.116 8.877,22.069 8.565,21.633 8.44,21.477 8.378,21.29 8.378,21.071 c 0.031,-0.218 0.125,-0.406 0.281,-0.562 0.405,-0.375 0.795,-0.343 1.17,0.094 0.343,0.438 0.312,0.828 -0.094,1.17 z"
   id="path246"
   inkscape:connector-curvature="0" />
	<path
   style="clip-rule:evenodd;fill:#548535;fill-rule:evenodd"
   d="M 8.519,20.136 C 8.238,20.355 7.973,20.339 7.723,20.089 7.536,19.777 7.567,19.496 7.817,19.247 c 0.281,-0.218 0.546,-0.187 0.795,0.094 0.25,0.28 0.219,0.546 -0.093,0.795 z"
   id="path248"
   inkscape:connector-curvature="0" />
	<path
   style="clip-rule:evenodd;fill:#5f963c;fill-rule:evenodd"
   d="m 10.952,22.007 c -0.25,0.187 -0.453,0.171 -0.609,-0.047 -0.187,-0.25 -0.171,-0.452 0.047,-0.608 0.218,-0.187 0.437,-0.171 0.655,0.047 0.187,0.218 0.157,0.421 -0.093,0.608 z"
   id="path250"
   inkscape:connector-curvature="0" />
	<path
   style="clip-rule:evenodd;fill:#5f963c;fill-rule:evenodd"
   d="m 9.875,20.183 c -0.125,0.125 -0.234,0.109 -0.327,-0.047 -0.094,-0.093 -0.094,-0.203 0,-0.327 0.187,-0.063 0.296,-0.047 0.327,0.046 0.125,0.124 0.125,0.234 0,0.328 z"
   id="path252"
   inkscape:connector-curvature="0" />
	<path
   style="clip-rule:evenodd;fill:#5f963c;fill-rule:evenodd"
   d="M 10.203,23.552 C 9.891,23.801 9.595,23.786 9.314,23.505 9.095,23.193 9.126,22.897 9.407,22.616 c 0.312,-0.25 0.608,-0.218 0.889,0.094 0.094,0.125 0.14,0.265 0.14,0.421 -0.03,0.186 -0.108,0.327 -0.233,0.421 z"
   id="path254"
   inkscape:connector-curvature="0" />
	<path
   style="clip-rule:evenodd;fill:#548535;fill-rule:evenodd"
   d="M 7.723,22.054 C 7.443,22.335 7.177,22.319 6.928,22.007 6.679,21.695 6.71,21.43 7.022,21.212 c 0.25,-0.25 0.515,-0.234 0.795,0.047 0.219,0.312 0.187,0.577 -0.094,0.795 z"
   id="path256"
   inkscape:connector-curvature="0" />
	<path
   style="clip-rule:evenodd;fill:#548535;fill-rule:evenodd"
   d="m 6.647,23.832 c -0.375,0.281 -0.702,0.25 -0.983,-0.093 -0.281,-0.343 -0.25,-0.655 0.094,-0.936 0.374,-0.281 0.702,-0.25 0.982,0.093 0.281,0.343 0.25,0.656 -0.093,0.936 z"
   id="path258"
   inkscape:connector-curvature="0" />
	<path
   style="clip-rule:evenodd;fill:#548535;fill-rule:evenodd"
   d="M 8.145,23.832 C 8.02,23.988 7.848,24.051 7.63,24.02 7.443,23.989 7.287,23.895 7.162,23.739 c -0.28,-0.343 -0.25,-0.655 0.094,-0.936 0.156,-0.125 0.328,-0.188 0.515,-0.188 0.187,0.031 0.343,0.125 0.468,0.281 0.28,0.343 0.249,0.656 -0.094,0.936 z"
   id="path260"
   inkscape:connector-curvature="0" />
	<path
   style="clip-rule:evenodd;fill:#5f963c;fill-rule:evenodd"
   d="M 8.799,22.662 C 8.643,22.818 8.471,22.803 8.284,22.616 8.128,22.46 8.144,22.288 8.331,22.101 c 0.156,-0.156 0.328,-0.141 0.515,0.047 0.156,0.156 0.141,0.328 -0.047,0.514 z"
   id="path262"
   inkscape:connector-curvature="0" />
	<path
   style="clip-rule:evenodd;fill:#548535;fill-rule:evenodd"
   d="M 9.127,25.189 C 8.753,25.469 8.425,25.438 8.145,25.095 8.02,24.971 7.957,24.8 7.957,24.581 c 0.031,-0.188 0.125,-0.343 0.281,-0.468 0.312,-0.281 0.64,-0.25 0.983,0.094 0.28,0.374 0.249,0.701 -0.094,0.982 z"
   id="path264"
   inkscape:connector-curvature="0" />
	<path
   style="clip-rule:evenodd;fill:#548535;fill-rule:evenodd"
   d="M 7.162,25.797 C 6.788,26.078 6.46,26.047 6.18,25.704 6.055,25.548 6.008,25.377 6.04,25.189 c 0,-0.188 0.078,-0.344 0.234,-0.468 0.312,-0.281 0.639,-0.25 0.982,0.093 0.28,0.375 0.249,0.703 -0.094,0.983 z"
   id="path266"
   inkscape:connector-curvature="0" />
	<path
   style="clip-rule:evenodd;fill:#4d7830;fill-rule:evenodd"
   d="M 8.378,27.575 C 8.191,27.731 7.972,27.809 7.723,27.809 7.473,27.778 7.271,27.654 7.115,27.435 6.959,27.247 6.897,27.029 6.927,26.78 6.958,26.53 7.067,26.328 7.255,26.172 7.443,26.016 7.66,25.953 7.91,25.984 c 0.25,0.031 0.452,0.141 0.608,0.328 0.156,0.188 0.218,0.405 0.187,0.655 -0.03,0.25 -0.14,0.453 -0.327,0.608 z"
   id="path268"
   inkscape:connector-curvature="0" />
	<path
   style="clip-rule:evenodd;fill:#4d7830;fill-rule:evenodd"
   d="m 9.688,26.64 c -0.312,0.249 -0.577,0.233 -0.795,-0.047 -0.281,-0.28 -0.265,-0.546 0.046,-0.796 0.125,-0.124 0.266,-0.171 0.421,-0.14 0.156,0 0.281,0.063 0.375,0.188 0.25,0.311 0.234,0.576 -0.047,0.795 z"
   id="path270"
   inkscape:connector-curvature="0" />
	<path
   style="clip-rule:evenodd;fill:#548535;fill-rule:evenodd"
   d="m 10.765,25.423 c -0.343,0.281 -0.655,0.25 -0.936,-0.094 -0.281,-0.343 -0.25,-0.654 0.093,-0.936 0.343,-0.28 0.655,-0.249 0.936,0.094 0.312,0.374 0.281,0.687 -0.093,0.936 z"
   id="path272"
   inkscape:connector-curvature="0" />
	<path
   style="clip-rule:evenodd;fill:#548535;fill-rule:evenodd"
   d="m 11.513,24.16 c -0.25,0.187 -0.483,0.156 -0.702,-0.094 -0.218,-0.281 -0.187,-0.515 0.094,-0.702 0.25,-0.25 0.483,-0.234 0.702,0.047 0.218,0.281 0.187,0.53 -0.094,0.749 z"
   id="path274"
   inkscape:connector-curvature="0" />
	<path
   style="clip-rule:evenodd;fill:#5f963c;fill-rule:evenodd"
   d="m 12.496,23.271 c -0.281,0.281 -0.546,0.265 -0.796,-0.047 -0.218,-0.312 -0.187,-0.577 0.094,-0.796 0.25,-0.25 0.515,-0.234 0.796,0.047 0.218,0.312 0.186,0.578 -0.094,0.796 z"
   id="path276"
   inkscape:connector-curvature="0" />
	<path
   style="clip-rule:evenodd;fill:#548535;fill-rule:evenodd"
   d="m 13.198,24.908 c -0.25,0.219 -0.515,0.188 -0.795,-0.094 -0.218,-0.28 -0.188,-0.546 0.094,-0.795 0.28,-0.219 0.545,-0.188 0.795,0.094 0.217,0.281 0.187,0.545 -0.094,0.795 z"
   id="path278"
   inkscape:connector-curvature="0" />
	<path
   style="clip-rule:evenodd;fill:#548535;fill-rule:evenodd"
   d="m 12.075,25.235 c -0.25,0.188 -0.453,0.172 -0.608,-0.046 -0.218,-0.219 -0.203,-0.422 0.047,-0.608 0.218,-0.219 0.421,-0.203 0.608,0.047 0.187,0.249 0.171,0.452 -0.047,0.607 z"
   id="path280"
   inkscape:connector-curvature="0" />
	<path
   style="clip-rule:evenodd;fill:#548535;fill-rule:evenodd"
   d="m 11.326,26.593 c -0.218,0.188 -0.437,0.172 -0.655,-0.047 -0.156,-0.218 -0.125,-0.437 0.094,-0.655 0.218,-0.155 0.421,-0.124 0.608,0.094 0.187,0.249 0.171,0.452 -0.047,0.608 z"
   id="path282"
   inkscape:connector-curvature="0" />
	<path
   style="clip-rule:evenodd;fill:#548535;fill-rule:evenodd"
   d="m 12.496,26.733 c -0.25,0.187 -0.453,0.171 -0.608,-0.047 -0.188,-0.25 -0.172,-0.452 0.047,-0.608 0.218,-0.218 0.421,-0.203 0.608,0.047 0.218,0.219 0.203,0.421 -0.047,0.608 z"
   id="path284"
   inkscape:connector-curvature="0" />
	<path
   style="clip-rule:evenodd;fill:#548535;fill-rule:evenodd"
   d="m 13.338,26.452 c -0.156,0.156 -0.328,0.141 -0.514,-0.047 -0.094,-0.218 -0.063,-0.39 0.093,-0.515 0.187,-0.187 0.343,-0.171 0.468,0.047 0.187,0.188 0.172,0.359 -0.047,0.515 z"
   id="path286"
   inkscape:connector-curvature="0" />
	<path
   style="clip-rule:evenodd;fill:#4d7830;fill-rule:evenodd"
   d="m 11.186,27.81 c -0.25,0.187 -0.453,0.172 -0.609,-0.047 -0.187,-0.25 -0.171,-0.452 0.047,-0.608 0.218,-0.219 0.421,-0.202 0.608,0.047 0.219,0.218 0.204,0.42 -0.046,0.608 z"
   id="path288"
   inkscape:connector-curvature="0" />
	<path
   style="clip-rule:evenodd;fill:#4d7830;fill-rule:evenodd"
   d="M 10.203,28.277 C 9.922,28.526 9.658,28.495 9.408,28.183 9.158,27.934 9.174,27.654 9.455,27.34 c 0.343,-0.218 0.624,-0.187 0.842,0.095 0.28,0.281 0.249,0.561 -0.094,0.842 z"
   id="path290"
   inkscape:connector-curvature="0" />
	<path
   style="clip-rule:evenodd;fill:#4d7830;fill-rule:evenodd"
   d="M 9.033,29.307 C 8.753,29.526 8.488,29.509 8.238,29.26 8.02,28.979 8.051,28.714 8.332,28.465 c 0.281,-0.219 0.53,-0.188 0.749,0.093 0.217,0.281 0.202,0.531 -0.048,0.749 z"
   id="path292"
   inkscape:connector-curvature="0" />
	<path
   style="clip-rule:evenodd;fill:#4d7830;fill-rule:evenodd"
   d="M 9.782,30.243 C 9.564,30.398 9.376,30.367 9.22,30.148 9.032,29.96 9.048,29.774 9.266,29.587 c 0.219,-0.156 0.406,-0.141 0.562,0.046 0.157,0.22 0.141,0.423 -0.046,0.61 z"
   id="path294"
   inkscape:connector-curvature="0" />
	<path
   style="clip-rule:evenodd;fill:#4d7830;fill-rule:evenodd"
   d="m 10.625,29.728 c -0.156,0.188 -0.343,0.172 -0.562,-0.047 -0.156,-0.219 -0.141,-0.421 0.046,-0.607 0.218,-0.156 0.421,-0.141 0.609,0.047 0.187,0.217 0.156,0.42 -0.093,0.607 z"
   id="path296"
   inkscape:connector-curvature="0" />
	<path
   style="clip-rule:evenodd;fill:#4d7830;fill-rule:evenodd"
   d="m 11.747,29.213 c -0.093,0.125 -0.203,0.125 -0.327,0 -0.156,-0.155 -0.141,-0.265 0.046,-0.327 0.125,-0.125 0.219,-0.125 0.281,0 0.156,0.155 0.156,0.264 0,0.327 z"
   id="path298"
   inkscape:connector-curvature="0" />
	<path
   style="clip-rule:evenodd;fill:#4d7830;fill-rule:evenodd"
   d="m 11.045,31.599 c -0.281,0.25 -0.546,0.219 -0.795,-0.093 -0.25,-0.312 -0.218,-0.577 0.093,-0.795 0.25,-0.219 0.515,-0.188 0.795,0.093 0.25,0.28 0.219,0.546 -0.093,0.795 z"
   id="path300"
   inkscape:connector-curvature="0" />
	<path
   style="clip-rule:evenodd;fill:#4d7830;fill-rule:evenodd"
   d="m 12.075,30.944 c -0.281,0.219 -0.53,0.187 -0.749,-0.094 -0.219,-0.281 -0.203,-0.53 0.047,-0.749 0.281,-0.218 0.546,-0.187 0.795,0.094 0.219,0.282 0.187,0.532 -0.093,0.749 z"
   id="path302"
   inkscape:connector-curvature="0" />
	<path
   style="clip-rule:evenodd;fill:#4d7830;fill-rule:evenodd"
   d="m 11.186,30.148 c -0.125,0.063 -0.219,0.047 -0.281,-0.047 -0.062,-0.062 -0.062,-0.156 0,-0.28 0.125,-0.062 0.234,-0.047 0.328,0.047 0.062,0.093 0.046,0.188 -0.047,0.28 z"
   id="path304"
   inkscape:connector-curvature="0" />
	<path
   style="clip-rule:evenodd;fill:#4d7830;fill-rule:evenodd"
   d="M 10.016,30.851 C 9.985,30.882 9.907,30.867 9.782,30.804 9.75,30.773 9.766,30.696 9.829,30.571 c 0.031,-0.031 0.109,-0.016 0.234,0.046 0.062,0.062 0.046,0.14 -0.047,0.234 z"
   id="path306"
   inkscape:connector-curvature="0" />
	<path
   style="clip-rule:evenodd;fill:#4d7830;fill-rule:evenodd"
   d="m 11.139,28.745 c -0.156,0.156 -0.312,0.141 -0.468,-0.047 -0.125,-0.156 -0.109,-0.312 0.047,-0.468 0.187,-0.125 0.343,-0.108 0.468,0.047 0.156,0.218 0.14,0.374 -0.047,0.468 z"
   id="path308"
   inkscape:connector-curvature="0" />
	<path
   style="clip-rule:evenodd;fill:#4d7830;fill-rule:evenodd"
   d="m 12.309,28.558 c -0.25,0.219 -0.499,0.203 -0.749,-0.047 -0.218,-0.28 -0.187,-0.529 0.094,-0.748 0.25,-0.219 0.483,-0.188 0.702,0.093 0.218,0.218 0.202,0.453 -0.047,0.702 z"
   id="path310"
   inkscape:connector-curvature="0" />
	<path
   style="clip-rule:evenodd;fill:#548535;fill-rule:evenodd"
   d="m 13.198,27.763 c -0.188,0.188 -0.374,0.156 -0.562,-0.094 -0.156,-0.156 -0.14,-0.343 0.046,-0.562 0.219,-0.155 0.421,-0.14 0.609,0.047 0.188,0.218 0.156,0.421 -0.093,0.609 z"
   id="path312"
   inkscape:connector-curvature="0" />
	<path
   style="clip-rule:evenodd;fill:#4d7830;fill-rule:evenodd"
   d="m 13.292,29.774 c -0.281,0.219 -0.531,0.187 -0.749,-0.094 -0.218,-0.219 -0.187,-0.452 0.094,-0.702 0.218,-0.218 0.452,-0.202 0.702,0.047 0.218,0.25 0.202,0.5 -0.047,0.749 z"
   id="path314"
   inkscape:connector-curvature="0" />
	<path
   style="clip-rule:evenodd;fill:#5f963c;fill-rule:evenodd"
   d="m 14.04,22.428 c -0.25,0.219 -0.483,0.188 -0.702,-0.093 -0.218,-0.218 -0.203,-0.452 0.047,-0.702 0.25,-0.218 0.5,-0.203 0.749,0.046 0.218,0.281 0.186,0.531 -0.094,0.749 z"
   id="path316"
   inkscape:connector-curvature="0" />
	<path
   style="clip-rule:evenodd;fill:#548535;fill-rule:evenodd"
   d="m 14.695,24.02 c -0.281,0.249 -0.546,0.219 -0.796,-0.094 -0.249,-0.312 -0.218,-0.577 0.094,-0.795 0.25,-0.218 0.515,-0.187 0.795,0.094 0.25,0.28 0.219,0.545 -0.093,0.795 z"
   id="path318"
   inkscape:connector-curvature="0" />
	<path
   style="clip-rule:evenodd;fill:#548535;fill-rule:evenodd"
   d="m 16.333,22.85 c -0.125,0.094 -0.281,0.078 -0.468,-0.046 -0.125,-0.156 -0.109,-0.312 0.047,-0.468 0.187,-0.125 0.328,-0.109 0.421,0.047 0.125,0.123 0.125,0.279 0,0.467 z"
   id="path320"
   inkscape:connector-curvature="0" />
	<path
   style="clip-rule:evenodd;fill:#548535;fill-rule:evenodd"
   d="m 17.362,23.552 c -0.218,0.156 -0.405,0.14 -0.561,-0.047 -0.156,-0.156 -0.141,-0.328 0.046,-0.515 0.219,-0.156 0.405,-0.14 0.562,0.047 0.063,0.062 0.094,0.156 0.094,0.28 -0.032,0.094 -0.079,0.172 -0.141,0.235 z"
   id="path322"
   inkscape:connector-curvature="0" />
	<path
   style="clip-rule:evenodd;fill:#548535;fill-rule:evenodd"
   d="m 17.596,24.722 c -0.156,0.124 -0.312,0.108 -0.468,-0.047 -0.093,-0.156 -0.078,-0.297 0.047,-0.422 0.125,-0.124 0.281,-0.124 0.468,0 0.125,0.156 0.109,0.312 -0.047,0.469 z"
   id="path324"
   inkscape:connector-curvature="0" />
	<path
   style="clip-rule:evenodd;fill:#548535;fill-rule:evenodd"
   d="m 18.205,25.002 c -0.188,0.125 -0.328,0.109 -0.421,-0.047 -0.125,-0.188 -0.109,-0.327 0.046,-0.421 0.156,-0.156 0.297,-0.141 0.421,0.047 0.156,0.155 0.14,0.296 -0.046,0.421 z"
   id="path326"
   inkscape:connector-curvature="0" />
	<path
   style="clip-rule:evenodd;fill:#548535;fill-rule:evenodd"
   d="m 18.485,24.066 c -0.188,0.156 -0.374,0.141 -0.562,-0.047 -0.156,-0.188 -0.14,-0.375 0.047,-0.562 0.187,-0.156 0.375,-0.141 0.562,0.047 0.156,0.188 0.14,0.375 -0.047,0.562 z"
   id="path328"
   inkscape:connector-curvature="0" />
	<path
   style="clip-rule:evenodd;fill:#4d7830;fill-rule:evenodd"
   d="m 19.374,25.002 c -0.281,0.156 -0.515,0.125 -0.702,-0.094 -0.188,-0.25 -0.156,-0.483 0.093,-0.701 0.281,-0.219 0.5,-0.188 0.655,0.093 0.219,0.219 0.204,0.452 -0.046,0.702 z"
   id="path330"
   inkscape:connector-curvature="0" />
	<path
   style="clip-rule:evenodd;fill:#4d7830;fill-rule:evenodd"
   d="m 20.45,24.955 c -0.188,0.156 -0.39,0.125 -0.608,-0.094 -0.156,-0.155 -0.125,-0.358 0.093,-0.608 0.188,-0.155 0.39,-0.124 0.609,0.094 0.187,0.218 0.156,0.421 -0.094,0.608 z"
   id="path332"
   inkscape:connector-curvature="0" />
	<path
   style="clip-rule:evenodd;fill:#548535;fill-rule:evenodd"
   d="m 18.438,22.709 c -0.281,0.28 -0.546,0.265 -0.796,-0.047 -0.281,-0.312 -0.265,-0.592 0.047,-0.842 0.343,-0.281 0.624,-0.25 0.842,0.094 0.125,0.125 0.171,0.265 0.141,0.421 0,0.156 -0.078,0.281 -0.234,0.374 z"
   id="path334"
   inkscape:connector-curvature="0" />
	<path
   style="clip-rule:evenodd;fill:#548535;fill-rule:evenodd"
   d="m 19.655,23.411 c -0.219,0.156 -0.421,0.125 -0.608,-0.094 -0.156,-0.187 -0.125,-0.39 0.094,-0.608 0.187,-0.156 0.39,-0.125 0.608,0.094 0.186,0.218 0.155,0.421 -0.094,0.608 z"
   id="path336"
   inkscape:connector-curvature="0" />
	<path
   style="clip-rule:evenodd;fill:#5f963c;fill-rule:evenodd"
   d="m 18.063,20.838 c -0.187,0.218 -0.405,0.203 -0.655,-0.047 -0.187,-0.249 -0.156,-0.468 0.094,-0.655 0.218,-0.187 0.437,-0.171 0.655,0.047 0.188,0.28 0.156,0.499 -0.094,0.655 z"
   id="path338"
   inkscape:connector-curvature="0" />
	<path
   style="clip-rule:evenodd;fill:#5f963c;fill-rule:evenodd"
   d="m 16.941,21.96 c -0.125,0.156 -0.281,0.141 -0.468,-0.046 -0.125,-0.188 -0.109,-0.343 0.046,-0.468 0.188,-0.156 0.343,-0.14 0.468,0.047 0.188,0.187 0.172,0.343 -0.046,0.467 z"
   id="path340"
   inkscape:connector-curvature="0" />
	<path
   style="clip-rule:evenodd;fill:#5f963c;fill-rule:evenodd"
   d="m 18.251,18.217 c -0.188,0.188 -0.374,0.172 -0.562,-0.046 -0.156,-0.188 -0.14,-0.375 0.047,-0.562 0.25,-0.187 0.452,-0.171 0.608,0.047 0.156,0.218 0.125,0.406 -0.093,0.561 z"
   id="path342"
   inkscape:connector-curvature="0" />
	<path
   style="clip-rule:evenodd;fill:#5f963c;fill-rule:evenodd"
   d="m 19.187,17.141 c -0.125,0.125 -0.249,0.109 -0.374,-0.046 -0.094,-0.094 -0.078,-0.203 0.047,-0.328 0.125,-0.125 0.249,-0.109 0.374,0.046 0.093,0.094 0.078,0.204 -0.047,0.328 z"
   id="path344"
   inkscape:connector-curvature="0" />
	<path
   style="clip-rule:evenodd;fill:#5f963c;fill-rule:evenodd"
   d="m 19.749,19.528 c -0.188,0.187 -0.359,0.171 -0.515,-0.047 -0.156,-0.219 -0.14,-0.406 0.047,-0.562 0.25,-0.125 0.437,-0.093 0.562,0.094 0.124,0.187 0.092,0.359 -0.094,0.515 z"
   id="path346"
   inkscape:connector-curvature="0" />
	<path
   style="clip-rule:evenodd;fill:#5f963c;fill-rule:evenodd"
   d="m 18.485,15.691 c -0.28,0.156 -0.515,0.125 -0.702,-0.094 -0.219,-0.218 -0.188,-0.452 0.094,-0.702 0.28,-0.218 0.499,-0.188 0.655,0.094 0.218,0.219 0.202,0.452 -0.047,0.702 z"
   id="path348"
   inkscape:connector-curvature="0" />
	<path
   style="clip-rule:evenodd;fill:#5f963c;fill-rule:evenodd"
   d="m 17.736,14.755 c -0.094,0.125 -0.218,0.109 -0.375,-0.047 -0.093,-0.093 -0.078,-0.218 0.047,-0.374 0.125,-0.094 0.25,-0.078 0.375,0.047 0.125,0.125 0.109,0.249 -0.047,0.374 z"
   id="path350"
   inkscape:connector-curvature="0" />
	<path
   style="clip-rule:evenodd;fill:#5f963c;fill-rule:evenodd"
   d="m 17.035,15.831 c -0.218,0.219 -0.453,0.203 -0.702,-0.046 -0.219,-0.25 -0.203,-0.5 0.046,-0.749 0.281,-0.218 0.53,-0.187 0.749,0.094 0.218,0.218 0.187,0.452 -0.093,0.701 z"
   id="path352"
   inkscape:connector-curvature="0" />
	<path
   style="clip-rule:evenodd;fill:#5f963c;fill-rule:evenodd"
   d="m 15.771,15.878 c -0.125,0.125 -0.249,0.109 -0.374,-0.047 -0.125,-0.125 -0.109,-0.25 0.046,-0.374 0.125,-0.125 0.25,-0.109 0.375,0.046 0.124,0.125 0.109,0.25 -0.047,0.375 z"
   id="path354"
   inkscape:connector-curvature="0" />
	<path
   style="clip-rule:evenodd;fill:#5f963c;fill-rule:evenodd"
   d="m 19.655,15.644 c -0.219,0.156 -0.405,0.125 -0.562,-0.093 -0.187,-0.188 -0.171,-0.375 0.047,-0.562 0.187,-0.125 0.39,-0.109 0.608,0.046 0.187,0.219 0.156,0.422 -0.093,0.609 z"
   id="path356"
   inkscape:connector-curvature="0" />
	<path
   style="clip-rule:evenodd;fill:#5f963c;fill-rule:evenodd"
   d="m 21.199,16.813 c -0.343,0.281 -0.671,0.25 -0.982,-0.093 -0.125,-0.125 -0.172,-0.296 -0.14,-0.515 0.031,-0.187 0.109,-0.343 0.234,-0.468 0.374,-0.281 0.702,-0.25 0.982,0.093 0.311,0.376 0.28,0.703 -0.094,0.983 z"
   id="path358"
   inkscape:connector-curvature="0" />
	<path
   style="clip-rule:evenodd;fill:#548535;fill-rule:evenodd"
   d="m 22.416,17.937 c -0.25,0.25 -0.515,0.234 -0.795,-0.046 -0.219,-0.281 -0.188,-0.546 0.093,-0.795 0.125,-0.125 0.265,-0.172 0.421,-0.14 0.156,0 0.281,0.062 0.375,0.187 0.217,0.341 0.186,0.607 -0.094,0.794 z"
   id="path360"
   inkscape:connector-curvature="0" />
	<path
   style="clip-rule:evenodd;fill:#5f963c;fill-rule:evenodd"
   d="m 20.544,18.311 c -0.25,0.188 -0.484,0.156 -0.702,-0.094 -0.218,-0.281 -0.187,-0.499 0.093,-0.655 0.219,-0.218 0.453,-0.203 0.702,0.047 0.187,0.249 0.156,0.484 -0.093,0.702 z"
   id="path362"
   inkscape:connector-curvature="0" />
	<path
   style="clip-rule:evenodd;fill:#5f963c;fill-rule:evenodd"
   d="m 19.421,18.451 c -0.188,0.156 -0.375,0.141 -0.562,-0.046 -0.156,-0.188 -0.141,-0.375 0.047,-0.562 0.187,-0.156 0.374,-0.141 0.561,0.047 0.157,0.187 0.141,0.374 -0.046,0.561 z"
   id="path364"
   inkscape:connector-curvature="0" />
	<path
   style="clip-rule:evenodd;fill:#548535;fill-rule:evenodd"
   d="m 21.667,19.34 c -0.281,0.281 -0.545,0.265 -0.795,-0.046 -0.281,-0.312 -0.265,-0.593 0.047,-0.843 0.343,-0.28 0.624,-0.25 0.842,0.094 0.125,0.125 0.171,0.265 0.14,0.421 -0.001,0.156 -0.078,0.281 -0.234,0.374 z"
   id="path366"
   inkscape:connector-curvature="0" />
	<path
   style="clip-rule:evenodd;fill:#548535;fill-rule:evenodd"
   d="m 23.304,19.762 c -0.437,0.312 -0.811,0.281 -1.123,-0.094 -0.125,-0.156 -0.188,-0.343 -0.188,-0.562 0.031,-0.218 0.125,-0.405 0.281,-0.562 0.156,-0.125 0.343,-0.187 0.562,-0.187 0.25,0.031 0.437,0.125 0.562,0.281 0.312,0.437 0.28,0.812 -0.094,1.124 z"
   id="path368"
   inkscape:connector-curvature="0" />
	<path
   style="clip-rule:evenodd;fill:#548535;fill-rule:evenodd"
   d="m 21.994,20.838 c -0.188,0.218 -0.405,0.203 -0.655,-0.047 -0.156,-0.218 -0.125,-0.42 0.094,-0.608 0.25,-0.187 0.452,-0.171 0.608,0.047 0.187,0.249 0.171,0.452 -0.047,0.608 z"
   id="path370"
   inkscape:connector-curvature="0" />
	<path
   style="clip-rule:evenodd;fill:#5f963c;fill-rule:evenodd"
   d="m 20.544,20.557 c -0.25,0.219 -0.5,0.203 -0.749,-0.046 -0.25,-0.312 -0.234,-0.577 0.047,-0.795 0.281,-0.219 0.546,-0.187 0.795,0.094 0.218,0.279 0.187,0.529 -0.093,0.747 z"
   id="path372"
   inkscape:connector-curvature="0" />
	<path
   style="clip-rule:evenodd;fill:#5f963c;fill-rule:evenodd"
   d="m 19,20.463 c -0.093,0.156 -0.218,0.156 -0.375,0 -0.125,-0.187 -0.109,-0.328 0.047,-0.421 0.125,-0.125 0.25,-0.109 0.374,0.046 0.094,0.157 0.078,0.282 -0.046,0.375 z"
   id="path374"
   inkscape:connector-curvature="0" />
	<path
   style="clip-rule:evenodd;fill:#5f963c;fill-rule:evenodd"
   d="m 18.111,19.434 c -0.125,0.062 -0.219,0.047 -0.281,-0.047 -0.062,-0.063 -0.046,-0.156 0.047,-0.281 0.062,-0.094 0.156,-0.078 0.28,0.047 0.094,0.094 0.078,0.187 -0.046,0.281 z"
   id="path376"
   inkscape:connector-curvature="0" />
	<path
   style="clip-rule:evenodd;fill:#5f963c;fill-rule:evenodd"
   d="m 15.022,17.469 c -0.187,0.188 -0.359,0.171 -0.515,-0.046 -0.188,-0.188 -0.171,-0.359 0.046,-0.515 0.063,-0.062 0.156,-0.094 0.281,-0.094 0.125,0 0.203,0.047 0.234,0.141 0.062,0.062 0.094,0.156 0.094,0.28 10e-4,0.125 -0.046,0.203 -0.14,0.234 z"
   id="path378"
   inkscape:connector-curvature="0" />
	<path
   style="clip-rule:evenodd;fill:#5f963c;fill-rule:evenodd"
   d="m 16.333,17.095 c -0.188,0.187 -0.343,0.171 -0.468,-0.047 -0.125,-0.125 -0.109,-0.28 0.047,-0.468 0.156,-0.125 0.312,-0.109 0.468,0.047 0.124,0.186 0.109,0.343 -0.047,0.468 z"
   id="path380"
   inkscape:connector-curvature="0" />
	<path
   style="clip-rule:evenodd;fill:#548535;fill-rule:evenodd"
   d="m 15.069,27.436 c -0.25,0.187 -0.468,0.155 -0.655,-0.095 -0.187,-0.249 -0.156,-0.468 0.094,-0.654 0.218,-0.156 0.437,-0.125 0.655,0.094 0.156,0.218 0.125,0.436 -0.094,0.655 z"
   id="path382"
   inkscape:connector-curvature="0" />
	<path
   style="clip-rule:evenodd;fill:#4d7830;fill-rule:evenodd"
   d="m 15.958,27.388 c -0.156,0.063 -0.28,0.048 -0.374,-0.047 -0.094,-0.124 -0.078,-0.249 0.047,-0.373 0.156,-0.095 0.281,-0.079 0.375,0.046 0.124,0.125 0.108,0.25 -0.048,0.374 z"
   id="path384"
   inkscape:connector-curvature="0" />
	<path
   style="clip-rule:evenodd;fill:#4d7830;fill-rule:evenodd"
   d="m 14.695,28.511 c -0.032,0.063 -0.125,0.063 -0.281,0 -0.062,-0.124 -0.046,-0.233 0.047,-0.327 0.125,-0.062 0.218,-0.046 0.28,0.047 0.126,0.124 0.11,0.218 -0.046,0.28 z"
   id="path386"
   inkscape:connector-curvature="0" />
	<path
   style="clip-rule:evenodd;fill:#4d7830;fill-rule:evenodd"
   d="m 17.128,28.184 c -0.25,0.25 -0.468,0.234 -0.655,-0.046 -0.188,-0.25 -0.172,-0.483 0.046,-0.702 0.25,-0.219 0.483,-0.188 0.702,0.093 0.219,0.281 0.188,0.498 -0.093,0.655 z"
   id="path388"
   inkscape:connector-curvature="0" />
	<path
   style="clip-rule:evenodd;fill:#4d7830;fill-rule:evenodd"
   d="m 17.596,29.493 c -0.156,0.095 -0.28,0.079 -0.374,-0.046 -0.125,-0.125 -0.125,-0.266 0,-0.422 0.156,-0.093 0.296,-0.077 0.421,0.048 0.125,0.187 0.109,0.327 -0.047,0.42 z"
   id="path390"
   inkscape:connector-curvature="0" />
	<path
   style="clip-rule:evenodd;fill:#4d7830;fill-rule:evenodd"
   d="m 16.333,28.792 c -0.094,0.094 -0.172,0.078 -0.234,-0.047 -0.063,-0.124 -0.047,-0.203 0.047,-0.234 0.063,-0.093 0.14,-0.093 0.234,0 0.062,0.094 0.046,0.187 -0.047,0.281 z"
   id="path392"
   inkscape:connector-curvature="0" />
	<path
   style="clip-rule:evenodd;fill:#5f963c;fill-rule:evenodd"
   d="m 12.636,19.715 c -0.218,0.156 -0.405,0.125 -0.562,-0.094 -0.187,-0.187 -0.171,-0.375 0.047,-0.561 0.187,-0.156 0.375,-0.141 0.561,0.046 0.126,0.188 0.11,0.39 -0.046,0.609 z"
   id="path394"
   inkscape:connector-curvature="0" />
	<path
   style="clip-rule:evenodd;fill:#5f963c;fill-rule:evenodd"
   d="m 11.841,18.919 c -0.156,0.094 -0.281,0.094 -0.375,0 -0.093,-0.156 -0.078,-0.28 0.047,-0.374 0.094,-0.156 0.218,-0.156 0.375,0 0.093,0.125 0.077,0.249 -0.047,0.374 z"
   id="path396"
   inkscape:connector-curvature="0" />
	<path
   style="clip-rule:evenodd;fill:#5f963c;fill-rule:evenodd"
   d="m 11.935,20.744 c -0.25,0.188 -0.453,0.156 -0.608,-0.094 -0.218,-0.218 -0.203,-0.421 0.047,-0.608 0.218,-0.188 0.437,-0.171 0.655,0.046 0.186,0.251 0.155,0.469 -0.094,0.656 z"
   id="path398"
   inkscape:connector-curvature="0" />
	<path
   style="clip-rule:evenodd;fill:#5f963c;fill-rule:evenodd"
   d="m 10.718,20.978 c -0.125,0.094 -0.281,0.078 -0.468,-0.046 -0.125,-0.188 -0.109,-0.343 0.047,-0.468 0.156,-0.125 0.312,-0.109 0.468,0.047 0.124,0.155 0.109,0.311 -0.047,0.467 z"
   id="path400"
   inkscape:connector-curvature="0" />
	<path
   style="clip-rule:evenodd;fill:#5f963c;fill-rule:evenodd"
   d="m 14.134,18.451 c -0.281,0.219 -0.531,0.188 -0.749,-0.093 -0.218,-0.25 -0.187,-0.484 0.094,-0.702 0.218,-0.218 0.452,-0.203 0.702,0.046 0.217,0.25 0.202,0.5 -0.047,0.749 z"
   id="path402"
   inkscape:connector-curvature="0" />
	<path
   style="clip-rule:evenodd;fill:#5f963c;fill-rule:evenodd"
   d="m 13.385,19.106 c -0.093,0.063 -0.187,0.063 -0.281,0 -0.063,-0.094 -0.046,-0.188 0.047,-0.28 0.125,-0.063 0.203,-0.047 0.234,0.046 0.094,0.063 0.094,0.141 0,0.234 z"
   id="path404"
   inkscape:connector-curvature="0" />
	<path
   style="clip-rule:evenodd;fill:#5f963c;fill-rule:evenodd"
   d="m 13.666,20.884 c -0.343,0.281 -0.655,0.25 -0.936,-0.094 -0.281,-0.343 -0.25,-0.655 0.094,-0.936 0.343,-0.281 0.655,-0.25 0.936,0.094 0.281,0.344 0.249,0.656 -0.094,0.936 z"
   id="path406"
   inkscape:connector-curvature="0" />
	<path
   style="clip-rule:evenodd;fill:#5f963c;fill-rule:evenodd"
   d="m 12.542,21.914 c -0.28,0.218 -0.53,0.187 -0.749,-0.094 -0.094,-0.094 -0.14,-0.219 -0.14,-0.375 0,-0.156 0.062,-0.28 0.187,-0.374 0.281,-0.218 0.546,-0.188 0.795,0.094 0.219,0.281 0.189,0.53 -0.093,0.749 z"
   id="path408"
   inkscape:connector-curvature="0" />
	<path
   style="clip-rule:evenodd;fill:#5f963c;fill-rule:evenodd"
   d="m 11.232,22.803 c -0.094,0.125 -0.218,0.109 -0.374,-0.047 -0.094,-0.094 -0.078,-0.218 0.046,-0.374 0.125,-0.094 0.25,-0.078 0.375,0.046 0.125,0.125 0.109,0.25 -0.047,0.375 z"
   id="path410"
   inkscape:connector-curvature="0" />
	<path
   style="clip-rule:evenodd;fill:#5f963c;fill-rule:evenodd"
   d="m 15.069,19.902 c -0.312,0.281 -0.64,0.25 -0.983,-0.093 -0.125,-0.156 -0.171,-0.328 -0.14,-0.515 0.031,-0.188 0.125,-0.343 0.281,-0.468 0.343,-0.281 0.655,-0.25 0.936,0.093 0.312,0.375 0.28,0.702 -0.094,0.983 z"
   id="path412"
   inkscape:connector-curvature="0" />
	<path
   style="clip-rule:evenodd;fill:#5f963c;fill-rule:evenodd"
   d="m 14.648,16.439 c -0.156,0.094 -0.296,0.078 -0.421,-0.047 -0.125,-0.187 -0.109,-0.327 0.047,-0.421 0.125,-0.094 0.25,-0.078 0.374,0.047 0.156,0.156 0.156,0.296 0,0.421 z"
   id="path414"
   inkscape:connector-curvature="0" />
	<path
   style="clip-rule:evenodd;fill:#5f963c;fill-rule:evenodd"
   d="m 16.099,18.685 c -0.25,0.219 -0.515,0.188 -0.795,-0.093 -0.094,-0.093 -0.125,-0.218 -0.094,-0.375 0,-0.156 0.063,-0.281 0.188,-0.374 0.281,-0.219 0.53,-0.187 0.749,0.093 0.217,0.281 0.201,0.531 -0.048,0.749 z"
   id="path416"
   inkscape:connector-curvature="0" />
	<path
   style="clip-rule:evenodd;fill:#5f963c;fill-rule:evenodd"
   d="m 16.988,18.732 c -0.125,0.156 -0.281,0.14 -0.468,-0.047 -0.125,-0.156 -0.109,-0.312 0.047,-0.468 0.187,-0.125 0.343,-0.109 0.468,0.047 0.187,0.187 0.171,0.343 -0.047,0.468 z"
   id="path418"
   inkscape:connector-curvature="0" />
	<path
   style="clip-rule:evenodd;fill:#5f963c;fill-rule:evenodd"
   d="m 17.409,17.563 c -0.218,0.156 -0.421,0.14 -0.608,-0.047 -0.156,-0.218 -0.141,-0.421 0.046,-0.608 0.219,-0.156 0.421,-0.125 0.608,0.094 0.188,0.186 0.172,0.373 -0.046,0.561 z"
   id="path420"
   inkscape:connector-curvature="0" />
	<path
   style="clip-rule:evenodd;fill:#5f963c;fill-rule:evenodd"
   d="m 17.736,16.486 c -0.156,0.125 -0.312,0.109 -0.468,-0.047 -0.125,-0.187 -0.109,-0.328 0.047,-0.421 0.187,-0.125 0.327,-0.109 0.421,0.047 0.156,0.156 0.156,0.297 0,0.421 z"
   id="path422"
   inkscape:connector-curvature="0" />
	<path
   style="clip-rule:evenodd;fill:#5f963c;fill-rule:evenodd"
   d="m 18.532,16.813 c -0.218,0.156 -0.39,0.141 -0.515,-0.046 -0.156,-0.156 -0.14,-0.328 0.046,-0.515 0.188,-0.125 0.359,-0.094 0.515,0.093 0.188,0.188 0.172,0.344 -0.046,0.468 z"
   id="path424"
   inkscape:connector-curvature="0" />
	<path
   style="clip-rule:evenodd;fill:#5f963c;fill-rule:evenodd"
   d="m 16.894,20.51 c -0.375,0.28 -0.702,0.25 -0.982,-0.094 -0.281,-0.343 -0.25,-0.655 0.094,-0.936 0.374,-0.281 0.702,-0.25 0.982,0.093 0.281,0.344 0.249,0.656 -0.094,0.937 z"
   id="path426"
   inkscape:connector-curvature="0" />
	<path
   style="clip-rule:evenodd;fill:#5f963c;fill-rule:evenodd"
   d="m 15.584,21.025 c -0.25,0.187 -0.453,0.171 -0.608,-0.047 -0.187,-0.218 -0.171,-0.437 0.047,-0.655 0.218,-0.156 0.437,-0.125 0.655,0.094 0.187,0.218 0.155,0.421 -0.094,0.608 z"
   id="path428"
   inkscape:connector-curvature="0" />
	<path
   style="clip-rule:evenodd;fill:#5f963c;fill-rule:evenodd"
   d="m 14.508,21.259 c -0.063,0.063 -0.156,0.078 -0.281,0.047 -0.125,0 -0.203,-0.047 -0.234,-0.14 -0.187,-0.188 -0.172,-0.359 0.047,-0.515 0.187,-0.187 0.358,-0.171 0.514,0.047 0.188,0.186 0.172,0.374 -0.046,0.561 z"
   id="path430"
   inkscape:connector-curvature="0" />
	<path
   style="clip-rule:evenodd;fill:#5f963c;fill-rule:evenodd"
   d="m 15.443,22.476 c -0.249,0.218 -0.499,0.203 -0.748,-0.047 -0.219,-0.28 -0.188,-0.53 0.093,-0.749 0.25,-0.218 0.484,-0.187 0.702,0.094 0.218,0.218 0.203,0.452 -0.047,0.702 z"
   id="path432"
   inkscape:connector-curvature="0" />
	<path
   style="clip-rule:evenodd;fill:#5f963c;fill-rule:evenodd"
   d="m 16.192,21.399 c -0.062,0.062 -0.156,0.062 -0.28,0 -0.063,-0.094 -0.047,-0.188 0.046,-0.281 0.094,-0.093 0.172,-0.078 0.234,0.047 0.094,0.063 0.094,0.141 0,0.234 z"
   id="path434"
   inkscape:connector-curvature="0" />
	<path
   style="clip-rule:evenodd;fill:#548535;fill-rule:evenodd"
   d="m 15.865,23.973 c -0.218,0.156 -0.421,0.141 -0.608,-0.047 -0.156,-0.218 -0.125,-0.421 0.094,-0.608 0.187,-0.187 0.39,-0.171 0.608,0.047 0.187,0.218 0.155,0.421 -0.094,0.608 z"
   id="path436"
   inkscape:connector-curvature="0" />
	<path
   style="clip-rule:evenodd;fill:#548535;fill-rule:evenodd"
   d="m 16.847,24.908 c -0.312,0.25 -0.577,0.234 -0.795,-0.047 -0.281,-0.28 -0.265,-0.545 0.047,-0.795 0.312,-0.25 0.577,-0.234 0.795,0.047 0.25,0.312 0.234,0.577 -0.047,0.795 z"
   id="path438"
   inkscape:connector-curvature="0" />
	<path
   style="clip-rule:evenodd;fill:#548535;fill-rule:evenodd"
   d="m 15.584,25.423 c -0.281,0.219 -0.53,0.188 -0.749,-0.094 -0.188,-0.249 -0.156,-0.483 0.094,-0.701 0.28,-0.219 0.514,-0.188 0.702,0.094 0.249,0.249 0.234,0.483 -0.047,0.701 z"
   id="path440"
   inkscape:connector-curvature="0" />
	<path
   style="clip-rule:evenodd;fill:#548535;fill-rule:evenodd"
   d="m 14.461,25.47 c -0.25,0.188 -0.453,0.172 -0.609,-0.047 -0.218,-0.218 -0.202,-0.421 0.047,-0.608 0.219,-0.218 0.421,-0.202 0.608,0.047 0.188,0.249 0.172,0.451 -0.046,0.608 z"
   id="path442"
   inkscape:connector-curvature="0" />
	<path
   style="clip-rule:evenodd;fill:#548535;fill-rule:evenodd"
   d="m 12.59,25.563 c -0.094,0.063 -0.188,0.047 -0.281,-0.047 -0.062,-0.125 -0.046,-0.203 0.047,-0.233 0.093,-0.063 0.171,-0.063 0.234,0 0.062,0.062 0.062,0.155 0,0.28 z"
   id="path444"
   inkscape:connector-curvature="0" />
	<path
   style="clip-rule:evenodd;fill:#548535;fill-rule:evenodd"
   d="m 14.227,26.313 c -0.093,0.124 -0.203,0.124 -0.328,0 -0.125,-0.125 -0.109,-0.234 0.047,-0.328 0.125,-0.094 0.234,-0.094 0.328,0 0.062,0.187 0.046,0.295 -0.047,0.328 z"
   id="path446"
   inkscape:connector-curvature="0" />
	<path
   style="clip-rule:evenodd;fill:#548535;fill-rule:evenodd"
   d="m 13.946,27.154 c -0.156,0.094 -0.281,0.078 -0.374,-0.047 -0.125,-0.124 -0.109,-0.234 0.046,-0.327 0.125,-0.125 0.25,-0.125 0.375,0 0.063,0.156 0.047,0.281 -0.047,0.374 z"
   id="path448"
   inkscape:connector-curvature="0" />
	<path
   style="clip-rule:evenodd;fill:#548535;fill-rule:evenodd"
   d="m 15.35,26.313 c -0.094,0.124 -0.203,0.124 -0.328,0 -0.093,-0.094 -0.078,-0.203 0.047,-0.328 0.125,-0.124 0.234,-0.109 0.328,0.047 0.125,0.124 0.109,0.218 -0.047,0.281 z"
   id="path450"
   inkscape:connector-curvature="0" />
	<path
   style="clip-rule:evenodd;fill:#548535;fill-rule:evenodd"
   d="m 16.192,26.172 c -0.156,0.156 -0.327,0.141 -0.514,-0.047 -0.125,-0.188 -0.109,-0.358 0.046,-0.515 0.218,-0.094 0.39,-0.078 0.515,0.047 0.156,0.218 0.14,0.39 -0.047,0.515 z"
   id="path452"
   inkscape:connector-curvature="0" />
	<path
   style="clip-rule:evenodd;fill:#4d7830;fill-rule:evenodd"
   d="m 17.596,26.219 c -0.218,0.218 -0.452,0.202 -0.702,-0.047 -0.156,-0.281 -0.125,-0.515 0.094,-0.702 0.218,-0.218 0.452,-0.187 0.702,0.094 0.218,0.281 0.187,0.499 -0.094,0.655 z"
   id="path454"
   inkscape:connector-curvature="0" />
	<path
   style="clip-rule:evenodd;fill:#4d7830;fill-rule:evenodd"
   d="m 18.766,26.266 c -0.156,0.187 -0.343,0.171 -0.561,-0.047 -0.188,-0.25 -0.172,-0.452 0.046,-0.608 0.218,-0.156 0.421,-0.141 0.608,0.047 0.187,0.217 0.157,0.42 -0.093,0.608 z"
   id="path456"
   inkscape:connector-curvature="0" />
	<path
   style="clip-rule:evenodd;fill:#4d7830;fill-rule:evenodd"
   d="m 19.842,26.313 c -0.218,0.155 -0.406,0.14 -0.562,-0.047 -0.187,-0.188 -0.172,-0.375 0.047,-0.562 0.218,-0.156 0.406,-0.141 0.562,0.047 0.155,0.218 0.14,0.405 -0.047,0.562 z"
   id="path458"
   inkscape:connector-curvature="0" />
	<path
   style="clip-rule:evenodd;fill:#4d7830;fill-rule:evenodd"
   d="m 18.438,27.575 c -0.281,0.219 -0.531,0.203 -0.749,-0.047 -0.218,-0.28 -0.187,-0.529 0.094,-0.748 0.28,-0.219 0.53,-0.203 0.749,0.047 0.218,0.28 0.187,0.529 -0.094,0.748 z"
   id="path460"
   inkscape:connector-curvature="0" />
	<path
   style="clip-rule:evenodd;fill:#4d7830;fill-rule:evenodd"
   d="m 16.847,26.92 c -0.187,0.125 -0.358,0.109 -0.514,-0.047 -0.125,-0.249 -0.109,-0.421 0.046,-0.514 0.218,-0.156 0.39,-0.141 0.515,0.046 0.156,0.157 0.141,0.328 -0.047,0.515 z"
   id="path462"
   inkscape:connector-curvature="0" />
	<path
   style="clip-rule:evenodd;fill:#4d7830;fill-rule:evenodd"
   d="m 15.771,28.558 c -0.187,0.188 -0.39,0.172 -0.608,-0.047 -0.156,-0.218 -0.125,-0.421 0.093,-0.607 0.218,-0.156 0.421,-0.141 0.608,0.047 0.188,0.217 0.157,0.42 -0.093,0.607 z"
   id="path464"
   inkscape:connector-curvature="0" />
	<path
   style="clip-rule:evenodd;fill:#4d7830;fill-rule:evenodd"
   d="m 16.005,29.915 c -0.094,0.094 -0.203,0.125 -0.328,0.094 -0.156,0 -0.265,-0.063 -0.328,-0.188 -0.094,-0.094 -0.125,-0.203 -0.094,-0.328 0,-0.155 0.047,-0.265 0.141,-0.327 0.25,-0.188 0.483,-0.172 0.702,0.047 0.157,0.28 0.126,0.515 -0.093,0.702 z"
   id="path466"
   inkscape:connector-curvature="0" />
	<path
   style="clip-rule:evenodd;fill:#4d7830;fill-rule:evenodd"
   d="m 16.941,29.166 c -0.094,0.094 -0.203,0.078 -0.328,-0.046 -0.094,-0.095 -0.078,-0.203 0.047,-0.328 0.125,-0.063 0.234,-0.047 0.328,0.047 0.062,0.125 0.047,0.234 -0.047,0.327 z"
   id="path468"
   inkscape:connector-curvature="0" />
	<path
   style="clip-rule:evenodd;fill:#548535;fill-rule:evenodd"
   d="m 16.988,30.195 c -0.187,0.125 -0.343,0.109 -0.468,-0.047 -0.187,-0.188 -0.171,-0.343 0.047,-0.468 0.156,-0.124 0.312,-0.108 0.468,0.047 0.124,0.157 0.109,0.313 -0.047,0.468 z"
   id="path470"
   inkscape:connector-curvature="0" />
	<path
   style="clip-rule:evenodd;fill:#548535;fill-rule:evenodd"
   d="m 16.894,31.599 c -0.25,0.188 -0.468,0.156 -0.655,-0.093 -0.188,-0.25 -0.172,-0.452 0.046,-0.608 0.25,-0.219 0.468,-0.202 0.655,0.047 0.219,0.218 0.204,0.436 -0.046,0.654 z"
   id="path472"
   inkscape:connector-curvature="0" />
	<path
   style="clip-rule:evenodd;fill:#548535;fill-rule:evenodd"
   d="m 16.146,30.663 c -0.094,0.094 -0.203,0.079 -0.328,-0.047 -0.062,-0.124 -0.047,-0.233 0.047,-0.327 0.125,-0.062 0.234,-0.046 0.327,0.047 0.125,0.125 0.109,0.234 -0.046,0.327 z"
   id="path474"
   inkscape:connector-curvature="0" />
	<path
   style="clip-rule:evenodd;fill:#548535;fill-rule:evenodd"
   d="m 15.818,31.881 c -0.25,0.186 -0.453,0.171 -0.608,-0.048 -0.156,-0.187 -0.125,-0.39 0.094,-0.607 0.187,-0.188 0.375,-0.156 0.562,0.093 0.186,0.187 0.17,0.374 -0.048,0.562 z"
   id="path476"
   inkscape:connector-curvature="0" />
	<path
   style="clip-rule:evenodd;fill:#548535;fill-rule:evenodd"
   d="m 16.192,32.254 c -0.125,0.063 -0.202,0.047 -0.234,-0.046 -0.062,-0.063 -0.062,-0.126 0,-0.188 0.094,-0.063 0.172,-0.063 0.234,0 0.063,0.094 0.063,0.172 0,0.234 z"
   id="path478"
   inkscape:connector-curvature="0" />
	<path
   style="clip-rule:evenodd;fill:#548535;fill-rule:evenodd"
   d="m 14.976,32.301 c -0.218,0.156 -0.39,0.141 -0.514,-0.047 -0.156,-0.155 -0.141,-0.327 0.046,-0.515 0.188,-0.125 0.359,-0.108 0.515,0.047 0.124,0.25 0.108,0.422 -0.047,0.515 z"
   id="path480"
   inkscape:connector-curvature="0" />
	<path
   style="clip-rule:evenodd;fill:#548535;fill-rule:evenodd"
   d="m 14.04,32.441 c -0.063,0.063 -0.156,0.094 -0.281,0.094 -0.125,0 -0.203,-0.047 -0.234,-0.141 -0.063,-0.062 -0.094,-0.156 -0.094,-0.28 0,-0.125 0.047,-0.203 0.141,-0.233 0.187,-0.188 0.358,-0.172 0.514,0.046 0.188,0.187 0.172,0.358 -0.046,0.514 z"
   id="path482"
   inkscape:connector-curvature="0" />
	<path
   style="clip-rule:evenodd;fill:#548535;fill-rule:evenodd"
   d="m 14.414,32.816 c -0.062,0.093 -0.14,0.093 -0.234,0 -0.094,-0.095 -0.094,-0.188 0,-0.281 0.125,-0.063 0.203,-0.047 0.234,0.047 0.063,0.031 0.094,0.078 0.094,0.14 0,0.031 -0.031,0.062 -0.094,0.094 z"
   id="path484"
   inkscape:connector-curvature="0" />
	<path
   style="clip-rule:evenodd;fill:#4d7830;fill-rule:evenodd"
   d="m 13.058,32.488 c -0.219,0.156 -0.421,0.141 -0.609,-0.047 -0.156,-0.219 -0.14,-0.421 0.047,-0.608 0.218,-0.155 0.421,-0.124 0.608,0.094 0.188,0.187 0.171,0.374 -0.046,0.561 z"
   id="path486"
   inkscape:connector-curvature="0" />
	<path
   style="clip-rule:evenodd;fill:#4d7830;fill-rule:evenodd"
   d="m 12.449,31.739 c -0.125,0.126 -0.25,0.109 -0.374,-0.046 -0.125,-0.125 -0.109,-0.25 0.047,-0.375 0.125,-0.124 0.25,-0.108 0.375,0.047 0.124,0.125 0.108,0.249 -0.048,0.374 z"
   id="path488"
   inkscape:connector-curvature="0" />
	<path
   style="clip-rule:evenodd;fill:#4d7830;fill-rule:evenodd"
   d="m 11.654,31.599 c -0.032,0.063 -0.078,0.063 -0.141,0 -0.031,-0.03 -0.031,-0.077 0,-0.14 0.094,-0.094 0.141,-0.094 0.141,0 0.093,0.094 0.093,0.14 0,0.14 z"
   id="path490"
   inkscape:connector-curvature="0" />
	<path
   style="clip-rule:evenodd;fill:#4d7830;fill-rule:evenodd"
   d="M 7.864,28.418 C 7.739,28.48 7.661,28.465 7.63,28.371 c -0.063,-0.063 -0.063,-0.141 0,-0.233 0.063,-0.063 0.156,-0.063 0.281,0 0.062,0.092 0.046,0.185 -0.047,0.28 z"
   id="path492"
   inkscape:connector-curvature="0" />
	<path
   style="clip-rule:evenodd;fill:#4d7830;fill-rule:evenodd"
   d="m 13.058,30.851 c -0.125,0.156 -0.281,0.141 -0.468,-0.047 -0.125,-0.156 -0.109,-0.312 0.046,-0.468 0.188,-0.125 0.343,-0.108 0.468,0.047 0.188,0.187 0.171,0.344 -0.046,0.468 z"
   id="path494"
   inkscape:connector-curvature="0" />
	<path
   style="clip-rule:evenodd;fill:#4d7830;fill-rule:evenodd"
   d="m 13.899,31.318 c -0.249,0.188 -0.452,0.172 -0.608,-0.047 -0.156,-0.218 -0.125,-0.405 0.093,-0.561 0.063,-0.095 0.156,-0.125 0.281,-0.095 0.125,0 0.219,0.047 0.281,0.141 0.157,0.188 0.14,0.375 -0.047,0.562 z"
   id="path496"
   inkscape:connector-curvature="0" />
	<path
   style="clip-rule:evenodd;fill:#4d7830;fill-rule:evenodd"
   d="m 14.789,31.131 c -0.218,0.188 -0.421,0.156 -0.608,-0.093 -0.156,-0.219 -0.14,-0.422 0.047,-0.608 0.218,-0.187 0.437,-0.171 0.655,0.047 0.155,0.218 0.124,0.436 -0.094,0.654 z"
   id="path498"
   inkscape:connector-curvature="0" />
	<path
   style="clip-rule:evenodd;fill:#4d7830;fill-rule:evenodd"
   d="m 15.49,30.757 c -0.125,0.063 -0.218,0.047 -0.281,-0.046 -0.093,-0.095 -0.093,-0.188 0,-0.281 0.125,-0.063 0.219,-0.047 0.281,0.047 0.094,0.093 0.094,0.186 0,0.28 z"
   id="path500"
   inkscape:connector-curvature="0" />
	<path
   style="clip-rule:evenodd;fill:#4d7830;fill-rule:evenodd"
   d="m 14.742,29.868 c -0.218,0.219 -0.421,0.203 -0.608,-0.047 -0.094,-0.094 -0.125,-0.203 -0.094,-0.328 0,-0.155 0.046,-0.265 0.14,-0.327 0.218,-0.188 0.437,-0.172 0.655,0.047 0.187,0.28 0.156,0.499 -0.093,0.655 z"
   id="path502"
   inkscape:connector-curvature="0" />
	<path
   style="clip-rule:evenodd;fill:#4d7830;fill-rule:evenodd"
   d="m 13.806,30.195 c -0.094,0.063 -0.188,0.048 -0.281,-0.047 -0.063,-0.093 -0.047,-0.188 0.047,-0.28 0.093,-0.063 0.187,-0.047 0.28,0.047 0.094,0.094 0.079,0.187 -0.046,0.28 z"
   id="path504"
   inkscape:connector-curvature="0" />
	<path
   style="clip-rule:evenodd;fill:#4d7830;fill-rule:evenodd"
   d="m 13.993,28.792 c -0.25,0.187 -0.468,0.156 -0.655,-0.094 -0.187,-0.249 -0.156,-0.468 0.094,-0.655 0.219,-0.155 0.421,-0.124 0.608,0.095 0.218,0.217 0.203,0.435 -0.047,0.654 z"
   id="path506"
   inkscape:connector-curvature="0" />
	<path
   style="clip-rule:evenodd;fill:#548535;fill-rule:evenodd"
   d="m 19.514,21.82 c -0.218,0.156 -0.421,0.14 -0.608,-0.047 -0.188,-0.187 -0.172,-0.406 0.046,-0.655 0.219,-0.156 0.421,-0.125 0.608,0.094 0.189,0.249 0.173,0.453 -0.046,0.608 z"
   id="path508"
   inkscape:connector-curvature="0" />
	<path
   style="clip-rule:evenodd;fill:#548535;fill-rule:evenodd"
   d="m 20.59,22.101 c -0.25,0.25 -0.468,0.234 -0.655,-0.047 -0.187,-0.25 -0.171,-0.483 0.047,-0.702 0.25,-0.187 0.483,-0.171 0.702,0.047 0.218,0.25 0.187,0.484 -0.094,0.702 z"
   id="path510"
   inkscape:connector-curvature="0" />
	<path
   style="clip-rule:evenodd;fill:#548535;fill-rule:evenodd"
   d="m 21.667,22.569 c -0.281,0.249 -0.545,0.218 -0.795,-0.094 -0.218,-0.281 -0.187,-0.546 0.094,-0.796 0.281,-0.218 0.546,-0.187 0.795,0.094 0.249,0.281 0.218,0.546 -0.094,0.796 z"
   id="path512"
   inkscape:connector-curvature="0" />
	<path
   style="clip-rule:evenodd;fill:#548535;fill-rule:evenodd"
   d="m 20.778,23.411 c -0.156,0.156 -0.328,0.141 -0.515,-0.047 -0.125,-0.187 -0.109,-0.359 0.047,-0.515 0.25,-0.125 0.421,-0.109 0.514,0.047 0.156,0.219 0.141,0.391 -0.046,0.515 z"
   id="path514"
   inkscape:connector-curvature="0" />
	<path
   style="clip-rule:evenodd;fill:#548535;fill-rule:evenodd"
   d="m 21.9,24.3 c -0.312,0.25 -0.577,0.234 -0.795,-0.047 -0.218,-0.28 -0.187,-0.53 0.094,-0.748 0.281,-0.218 0.53,-0.203 0.749,0.047 0.218,0.28 0.202,0.53 -0.048,0.748 z"
   id="path516"
   inkscape:connector-curvature="0" />
	<path
   style="clip-rule:evenodd;fill:#548535;fill-rule:evenodd"
   d="m 22.79,22.756 c -0.218,0.156 -0.421,0.141 -0.608,-0.046 -0.156,-0.218 -0.125,-0.421 0.093,-0.608 0.218,-0.218 0.421,-0.203 0.608,0.047 0.187,0.217 0.156,0.42 -0.093,0.607 z"
   id="path518"
   inkscape:connector-curvature="0" />
	<path
   style="clip-rule:evenodd;fill:#548535;fill-rule:evenodd"
   d="m 23.164,21.306 c -0.313,0.187 -0.562,0.156 -0.749,-0.094 -0.188,-0.312 -0.156,-0.562 0.093,-0.749 0.312,-0.187 0.546,-0.156 0.702,0.093 0.219,0.282 0.204,0.531 -0.046,0.75 z"
   id="path520"
   inkscape:connector-curvature="0" />
	<path
   style="clip-rule:evenodd;fill:#548535;fill-rule:evenodd"
   d="m 22.416,16.346 c -0.188,0.125 -0.359,0.109 -0.515,-0.046 -0.094,-0.219 -0.078,-0.39 0.047,-0.515 0.218,-0.094 0.39,-0.078 0.514,0.046 0.094,0.219 0.078,0.39 -0.046,0.515 z"
   id="path522"
   inkscape:connector-curvature="0" />
	<path
   style="clip-rule:evenodd;fill:#548535;fill-rule:evenodd"
   d="m 21.713,15.644 c -0.187,0.125 -0.343,0.109 -0.468,-0.047 -0.187,-0.187 -0.172,-0.343 0.047,-0.468 0.156,-0.125 0.312,-0.109 0.468,0.046 0.125,0.157 0.11,0.313 -0.047,0.469 z"
   id="path524"
   inkscape:connector-curvature="0" />
	<path
   style="clip-rule:evenodd;fill:#5f963c;fill-rule:evenodd"
   d="m 20.45,15.223 c -0.188,0.187 -0.343,0.171 -0.468,-0.047 -0.188,-0.187 -0.172,-0.358 0.046,-0.514 0.188,-0.125 0.359,-0.109 0.515,0.046 0.125,0.25 0.094,0.421 -0.093,0.515 z"
   id="path526"
   inkscape:connector-curvature="0" />
	<path
   style="clip-rule:evenodd;fill:#548535;fill-rule:evenodd"
   d="m 19.233,14.615 c -0.125,0.093 -0.25,0.078 -0.374,-0.047 -0.094,-0.156 -0.078,-0.281 0.047,-0.375 0.125,-0.125 0.234,-0.109 0.327,0.047 0.125,0.125 0.125,0.25 0,0.375 z"
   id="path528"
   inkscape:connector-curvature="0" />
	<path
   style="clip-rule:evenodd;fill:#548535;fill-rule:evenodd"
   d="m 16.753,14.381 c -0.156,0.093 -0.296,0.078 -0.42,-0.047 -0.125,-0.187 -0.109,-0.328 0.046,-0.421 0.125,-0.063 0.265,-0.047 0.421,0.046 0.094,0.156 0.078,0.297 -0.047,0.422 z"
   id="path530"
   inkscape:connector-curvature="0" />
	<path
   style="clip-rule:evenodd;fill:#548535;fill-rule:evenodd"
   d="M 9.688,17.282 C 9.594,17.375 9.485,17.36 9.36,17.235 9.235,17.11 9.251,17.001 9.407,16.907 c 0.125,-0.062 0.234,-0.046 0.328,0.047 0.063,0.125 0.047,0.234 -0.047,0.328 z"
   id="path532"
   inkscape:connector-curvature="0" />
</g>
</svg>