<?xml version="1.0" encoding="UTF-8" standalone="no"?>
<!-- Generator: Adobe Illustrator 15.1.0, SVG Export Plug-In . SVG Version: 6.00 Build 0)  -->

<svg
   xmlns:dc="http://purl.org/dc/elements/1.1/"
   xmlns:cc="http://creativecommons.org/ns#"
   xmlns:rdf="http://www.w3.org/1999/02/22-rdf-syntax-ns#"
   xmlns:svg="http://www.w3.org/2000/svg"
   xmlns="http://www.w3.org/2000/svg"
   xmlns:sodipodi="http://sodipodi.sourceforge.net/DTD/sodipodi-0.dtd"
   xmlns:inkscape="http://www.inkscape.org/namespaces/inkscape"
   version="1.1"
   id="flash0.ai"
   x="0px"
   y="0px"
   width="256"
   height="256"
   viewBox="0 0 256 256"
   xml:space="preserve"
   sodipodi:docname="pickles.svg"
   inkscape:version="0.92.4 (5da689c313, 2019-01-14)"><title
   id="title1115">Pickles</title><metadata
   id="metadata308"><rdf:RDF><cc:Work
       rdf:about=""><dc:format>image/svg+xml</dc:format><dc:type
         rdf:resource="http://purl.org/dc/dcmitype/StillImage" /><dc:title>Pickles</dc:title><cc:license
         rdf:resource="http://creativecommons.org/publicdomain/zero/1.0/" /><dc:creator><cc:Agent><dc:title>Glitch</dc:title></cc:Agent></dc:creator><dc:source>https://opengameart.org/node/20149</dc:source></cc:Work><cc:License
       rdf:about="http://creativecommons.org/publicdomain/zero/1.0/"><cc:permits
         rdf:resource="http://creativecommons.org/ns#Reproduction" /><cc:permits
         rdf:resource="http://creativecommons.org/ns#Distribution" /><cc:permits
         rdf:resource="http://creativecommons.org/ns#DerivativeWorks" /></cc:License></rdf:RDF></metadata><defs
   id="defs306" /><sodipodi:namedview
   pagecolor="#ffffff"
   bordercolor="#666666"
   borderopacity="1"
   objecttolerance="10"
   gridtolerance="10"
   guidetolerance="10"
   inkscape:pageopacity="0"
   inkscape:pageshadow="2"
   inkscape:window-width="1920"
   inkscape:window-height="1025"
   id="namedview304"
   showgrid="false"
   inkscape:zoom="0.35826742"
   inkscape:cx="-23.080817"
   inkscape:cy="-46.018224"
   inkscape:window-x="-8"
   inkscape:window-y="-8"
   inkscape:window-maximized="1"
   inkscape:current-layer="flash0.ai"
   fit-margin-top="0"
   fit-margin-left="0"
   fit-margin-right="0"
   fit-margin-bottom="0" />
<g
   id="g1145"
   transform="matrix(2.7899702,0,0,2.7899702,-274.44351,-94.560612)"><path
     style="clip-rule:evenodd;fill:#7d7b16;fill-rule:evenodd;stroke-width:5.91907501"
     d="m 129.03584,70.578623 c 2.95954,-2.764208 4.04865,-5.031214 3.25549,-6.806937 -0.59191,-1.580393 -0.29595,-1.580393 0.88786,0 0.59191,0.787237 1.28444,1.775723 2.07168,2.959538 l 0.88786,2.071676 c 0.19533,0.591908 0.59191,0.295954 1.18381,-0.887861 0.78724,-1.183815 1.37915,-1.479769 1.77573,-0.887861 0.5919,1.183815 1.47976,3.948023 2.66358,8.286705 0.39066,1.379144 0.49128,0.591907 0.29595,-2.36763 0.39658,-0.19533 1.18382,2.1723 2.36763,7.10289 1.18382,4.930589 1.6751,8.582659 1.47977,10.950289 -0.98848,7.694797 -2.56296,14.697068 -4.73526,21.012718 -0.78723,1.97105 -2.267,4.23806 -4.4393,6.80693 -2.1723,2.36763 -3.94803,3.65207 -5.32717,3.8474 -3.74678,2.1723 -6.51098,3.15487 -8.28671,2.95954 -1.18381,-0.19533 -2.267,-0.98848 -3.25549,-2.36763 l -2.36763,-3.8474 c -1.97105,-0.59191 -3.15487,-1.58039 -3.55144,-2.95954 -0.59191,-2.7642 -1.28444,-4.4393 -2.07168,-5.03121 -0.98849,-0.39658 -1.58039,-1.6751 -1.77572,-3.8474 l -2.07168,-6.51098 c -0.19533,-2.367631 -0.49128,-4.338683 -0.88786,-5.919076 -0.98849,-0.787237 -1.6751,-2.071676 -2.07168,-3.847399 l -1.18381,-6.215028 v -9.766474 l 3.25549,-3.551445 6.80694,0.591907 c 4.73526,0.396578 7.69479,0.887861 8.87861,1.479769 1.18381,0.591907 3.25549,-0.491283 6.21503,-3.255491 z"
     id="path171"
     inkscape:connector-curvature="0" /><path
     style="clip-rule:evenodd;fill:#a8a51d;fill-rule:evenodd;stroke-width:5.91907501"
     d="m 134.06705,66.43527 c 0.19533,0.591908 0.69253,0.491283 1.47977,-0.295954 1.58039,-1.580393 2.76421,-1.284439 3.55145,0.887862 0.19533,0.591907 0.29595,1.775722 0.29595,3.551445 0.39658,1.379144 0.78724,1.971052 1.18381,1.775722 1.18382,-0.396578 1.97106,0.396578 2.36763,2.36763 0.19533,1.183815 0.39658,3.060162 0.59191,5.623122 0.78724,1.183815 1.08319,2.663583 0.88786,4.439306 -0.19533,2.562959 -0.98848,6.510982 -2.36763,11.83815 -1.77572,6.907557 -3.45082,11.145617 -5.03121,12.726007 -1.97105,2.36763 -5.13184,4.63464 -9.47052,6.80694 -4.73526,2.36763 -7.59417,2.56888 -8.58266,0.59191 -2.36763,-4.73526 -3.8474,-7.29822 -4.43931,-7.6948 -0.5919,-0.20125 -1.18381,-1.47977 -1.77572,-3.8474 -0.39066,-2.1723 -0.69253,-3.25549 -0.88786,-3.25549 -0.39066,-1.971051 -0.78724,-3.746774 -1.18381,-5.327167 -0.39658,-1.580393 -0.88787,-2.764208 -1.47977,-3.551445 -1.18382,-2.172301 -2.1723,-5.226543 -2.95954,-9.174566 0,-0.201249 -0.69253,-1.876347 -2.07168,-5.031214 -1.37914,-3.154867 -0.69253,-6.806937 2.07168,-10.950289 3.74677,-5.522497 7.89013,-8.091376 12.43006,-7.694798 2.56888,0 4.83588,0.491283 6.80693,1.479769 1.37915,-0.396578 2.1723,-0.396578 2.36763,0 0.19533,0.195329 0.59191,0.491283 1.18382,0.887861 0.78724,0.591908 1.37914,0.591908 1.77572,0 0.59191,-0.591907 1.08319,-0.692532 1.47977,-0.295954 0.19533,0.201249 0.59191,0.787237 1.18381,1.775723 0.39658,0.591908 0.59191,1.379145 0.59191,2.36763 z"
     id="path173"
     inkscape:connector-curvature="0" /><path
     style="clip-rule:evenodd;fill:#bdb921;fill-rule:evenodd;stroke-width:5.91907501"
     d="m 119.86127,67.915039 c 4.33868,0.787237 7.49947,2.959537 9.47052,6.510982 0.39066,0.591908 1.37915,1.675099 2.95954,3.255492 1.18381,1.183815 1.97105,2.36763 2.36763,3.551445 0.98849,2.562959 0.98849,5.623121 0,9.174566 -0.98849,3.746775 -3.06016,6.706312 -6.21503,8.878613 -0.78724,0.787233 -2.1723,0.787233 -4.14335,0 -1.58039,-0.787237 -2.95954,-1.775723 -4.14335,-2.959538 -0.78724,-0.787237 -1.47977,-2.071676 -2.07168,-3.847399 -1.18382,-3.350196 -1.87635,-5.226543 -2.07168,-5.623121 -0.78723,-1.775722 -1.28444,-3.746774 -1.47977,-5.919075 -0.19533,-3.551445 -0.39657,-5.623121 -0.5919,-6.215029 -0.19533,-2.36763 0.39657,-4.143352 1.77572,-5.327167 1.18381,-1.183815 2.56296,-1.675099 4.14335,-1.479769 z"
     id="path175"
     inkscape:connector-curvature="0" /><path
     style="clip-rule:evenodd;fill:#c4c022;fill-rule:evenodd;stroke-width:5.91907501"
     d="m 126.66821,62.587871 c -0.59191,-0.195329 -1.6751,-0.396578 -3.25549,-0.591907 -2.1723,-0.19533 -4.43931,-0.100625 -6.80694,0.295953 -2.1723,0.201249 -3.45082,0.396579 -3.8474,0.591908 -1.37914,0.396578 -3.06016,1.479769 -5.03121,3.255491 3.94802,-4.143352 7.59417,-6.120323 10.95029,-5.919075 2.56888,0 4.83588,0.491283 6.80693,1.479769 1.37915,-0.396578 2.1723,-0.396578 2.36763,0 0.19533,0.195329 0.59191,0.491283 1.18382,0.887861 0.78724,0.591908 1.37914,0.591908 1.77572,0 0.59191,-0.591907 1.08319,-0.692532 1.47977,-0.295954 0.19533,0.201249 0.59191,0.787237 1.18381,1.775723 0.39658,0.591908 0.59191,1.379145 0.59191,2.36763 0.19533,0.591908 0.69253,0.491283 1.47977,-0.295954 1.58039,-1.580393 2.76421,-1.284439 3.55145,0.887862 0.19533,0.591907 0.29595,1.775722 0.29595,3.551445 0.39658,1.379144 0.78724,1.971052 1.18381,1.775722 1.18382,-0.396578 1.97106,0.396578 2.36763,2.36763 0.19533,1.183815 0.39658,3.060162 0.59191,5.623122 0.78724,1.183815 1.08319,2.663583 0.88786,4.439306 -0.19533,2.36763 -0.98848,6.309734 -2.36763,11.83815 -1.77572,6.706317 -3.35611,10.950287 -4.73526,12.726007 -0.39657,-0.39657 -0.20125,-1.18381 0.59191,-2.36763 2.1723,-3.94802 3.55145,-8.487949 4.14335,-13.613868 0.19533,-3.948023 0,-6.611607 -0.5919,-7.990752 -0.39066,-0.787237 -0.39066,-1.971052 0,-3.551445 l 0.88786,-2.071676 -0.59191,-1.183815 c -0.20125,-0.591908 -3.45082,3.948023 -9.76647,13.613873 -4.14336,6.510982 -8.28671,11.938773 -12.43006,16.277453 -2.76421,2.95954 -0.49129,-0.39657 6.80693,-10.062424 2.76421,-3.154867 6.80694,-10.062428 12.13411,-20.716763 0.59191,-1.580393 0.69253,-3.255492 0.29595,-5.031214 0,-0.787237 -0.20125,-1.675098 -0.59191,-2.663584 -0.39657,-0.988485 -0.78723,-1.08911 -1.18381,-0.295954 -5.32717,9.470521 -9.26927,16.082127 -11.83815,19.828902 -2.56296,3.746774 -6.0197,7.203514 -10.35838,10.358381 0.78723,-0.787237 4.93059,-6.019699 12.43006,-15.685549 3.74677,-4.338682 6.41035,-9.27519 7.99075,-14.797687 0.19533,-1.183815 0.19533,-1.775723 0,-1.775723 -0.19533,0 -0.59191,0.19533 -1.18382,0.591908 -0.39066,0.201248 -0.59191,-0.295954 -0.59191,-1.479769 -0.39065,-1.183815 -0.69253,-1.870428 -0.88786,-2.071676 -0.39066,-0.201249 -1.37914,1.379144 -2.95953,4.73526 -0.19533,0.591907 -3.74678,5.427791 -10.65434,14.501734 l -7.99075,8.286705 17.46127,-24.268208 c 0.98849,-1.379145 0.88786,-2.858913 -0.29595,-4.439307 -0.39066,-0.591907 -4.24398,2.764209 -11.5422,10.062428 l -9.17457,7.694798 c 2.76421,-3.551445 6.41036,-7.29822 10.95029,-11.246243 1.37915,-0.988485 3.45082,-2.468254 6.21503,-4.439306 1.97105,-1.775723 2.66359,-2.764208 2.07168,-2.959538 z"
     id="path177"
     inkscape:connector-curvature="0" /><path
     style="clip-rule:evenodd;fill:#7d7b16;fill-rule:evenodd;stroke-width:5.91907501"
     d="m 180.23584,46.902322 c 0.59191,0.988486 0.78723,0.19533 0.59191,-2.36763 0.39657,-0.195329 1.18381,1.379145 2.36763,4.73526 1.37914,3.350197 1.97105,6.0197 1.77572,7.990752 -0.39658,4.930589 -1.77572,11.346867 -4.14335,19.236994 -0.78724,2.1723 -2.26701,4.829965 -4.43931,7.990751 -2.36763,3.160786 -4.23806,5.226543 -5.62312,6.215029 -3.74678,3.746774 -6.61161,6.114405 -8.58266,7.10289 -1.18382,0.396578 -2.26701,0.295954 -3.25549,-0.295954 -1.37915,-0.988485 -2.26701,-1.479768 -2.66359,-1.479768 -0.78723,-0.19533 -1.58039,-0.19533 -2.36763,0 -0.5919,0.195329 -1.08319,0.100624 -1.47977,-0.295954 -0.5919,-1.971052 -1.28443,-2.959538 -2.07167,-2.959538 -1.18382,0.19533 -1.87043,-0.491283 -2.07168,-2.071676 -0.19533,-1.580393 -0.88786,-2.959538 -2.07167,-4.143353 -0.39658,-1.775722 -0.78724,-3.154867 -1.18382,-4.143352 -0.19533,-0.396578 -0.49128,-0.692532 -0.88786,-0.887861 -0.59191,-0.19533 -0.98849,-0.591908 -1.18382,-1.183815 l -1.47976,-4.143353 -0.29596,-7.990751 3.25549,-4.735261 16.27746,-7.10289 c 1.37914,-0.195329 3.55144,-2.1723 6.51098,-5.919075 2.95954,-3.948023 4.04273,-6.510982 3.25549,-7.694797 -0.78723,-0.787237 -0.49128,-0.887862 0.88787,-0.295954 0.5919,0.390659 1.27852,0.787237 2.07167,1.183815 l 0.88786,1.183815 c 0.39066,0.390659 0.88786,-0.100624 1.47977,-1.479769 0.59191,-1.379144 1.08319,-1.971052 1.47977,-1.775722 0.78724,0.396578 1.77572,2.1723 2.95954,5.327167 z"
     id="path179"
     inkscape:connector-curvature="0" /><path
     style="clip-rule:evenodd;fill:#a8a51d;fill-rule:evenodd;stroke-width:5.91907501"
     d="m 181.1237,63.771686 c -1.58039,6.510983 -3.15487,10.849665 -4.73526,13.021965 -1.97105,3.154868 -5.13184,6.706313 -9.47052,10.654336 -4.93059,4.53993 -7.89013,6.315653 -8.87861,5.327167 -2.56888,-2.36763 -4.24398,-3.551445 -5.03122,-3.551445 -0.59191,0.19533 -1.18381,-0.491283 -1.77572,-2.071676 -0.59191,-1.379145 -0.98849,-2.071676 -1.18382,-2.071676 -0.39657,-1.183815 -0.88786,-2.36763 -1.47976,-3.551445 -0.39658,-0.988486 -0.88787,-1.675099 -1.47977,-2.071677 -0.59191,-0.591907 -1.6751,-2.468254 -3.25549,-5.623121 -0.39066,-0.787237 -1.18382,-1.775723 -2.36763,-2.959538 -1.18382,-1.775722 -0.49129,-5.131838 2.07167,-10.062427 3.94803,-6.510983 8.09138,-10.849665 12.43006,-13.021966 2.76421,-1.379144 5.22654,-2.36763 7.39884,-2.959537 l 2.36763,-1.183815 c 0.98849,0.988485 1.97106,0.692532 2.95954,-0.887861 0.78724,-0.988486 1.77572,-0.988486 2.95954,0 0.39658,0.195329 0.59191,0.591907 0.59191,1.183815 0.19533,0.390659 0.69253,0.100624 1.47977,-0.887862 1.58039,-2.1723 2.7642,-2.663583 3.55144,-1.479768 0.19533,0.396578 0.39066,1.284439 0.59191,2.663583 0.39658,0.988486 0.88786,1.28444 1.47977,0.887862 1.18381,-1.580393 1.97105,-1.379145 2.36763,0.591907 0.19533,0.988486 0.39066,2.36763 0.5919,4.143353 0.98849,0.390659 1.37915,1.379144 1.18382,2.959537 -0.39658,2.36763 -1.18382,6.0197 -2.36763,10.950289 z"
     id="path181"
     inkscape:connector-curvature="0" /><path
     style="clip-rule:evenodd;fill:#bdb921;fill-rule:evenodd;stroke-width:5.91907501"
     d="m 157.4474,53.413305 c 4.53993,-1.971052 7.89013,-2.071676 10.06243,-0.295954 0.39657,0.396578 1.37914,0.692532 2.95953,0.887861 1.5804,0.396578 2.56888,0.887862 2.95954,1.479769 0.78724,1.971052 0.78724,4.439306 0,7.398844 -0.98848,3.356116 -3.06016,6.907561 -6.21503,10.654335 -0.78723,1.183815 -2.1723,1.971052 -4.14335,2.36763 -1.77572,0.390659 -3.3502,0.390659 -4.73526,0 -0.78724,-0.195329 -1.47977,-0.887861 -2.07168,-2.071676 -0.98848,-1.580393 -1.67509,-2.663584 -2.07167,-3.255491 -0.78724,-0.988486 -1.27852,-2.267006 -1.47977,-3.847399 -0.19533,-1.971052 -0.49128,-3.551445 -0.88786,-4.73526 -0.59191,-1.580393 -0.19533,-3.255492 1.18381,-5.031214 1.18382,-1.775723 2.66359,-2.959538 4.43931,-3.551445 z"
     id="path183"
     inkscape:connector-curvature="0" /><path
     style="clip-rule:evenodd;fill:#c4c022;fill-rule:evenodd;stroke-width:5.91907501"
     d="m 182.30751,49.86186 c 0.98849,0.390659 1.37915,1.379144 1.18382,2.959537 -0.19533,2.36763 -0.98849,6.0197 -2.36763,10.950289 -1.58039,6.315653 -3.06016,10.55963 -4.43931,12.726012 -0.5919,0.591907 -0.39658,-0.100625 0.59191,-2.071677 2.1723,-4.53993 3.45082,-8.979236 3.8474,-13.317919 0.19533,-3.356115 -0.10063,-5.427791 -0.88786,-6.215028 -0.39658,-0.390659 -0.39658,-1.379145 0,-2.959538 l 0.88786,-2.071676 -0.59191,-0.591908 c -0.39658,-0.195329 -3.65207,5.327168 -9.76647,16.573411 -3.74678,6.706312 -7.99075,13.418543 -12.72601,20.124855 -8.87862,12.826636 -6.61161,8.878613 6.80693,-11.83815 3.94803,-6.114405 8.09138,-14.010451 12.43006,-23.676301 0.59191,-1.183815 0.59191,-2.562959 0,-4.143352 0,-0.591908 -0.20125,-1.183815 -0.59191,-1.775723 -0.39658,-0.591907 -0.88786,-0.390659 -1.47977,0.591908 -2.36763,5.723745 -6.21502,13.217294 -11.54219,22.492485 -2.56296,4.539931 -6.11441,9.269272 -10.65434,14.20578 l 12.43006,-19.532948 c 3.15487,-4.53993 5.81845,-9.961803 7.99075,-16.277456 0.20125,-1.183815 0.20125,-1.675098 0,-1.479769 -0.19533,0 -0.59191,0.295954 -1.18381,0.887861 -0.39658,0.396578 -0.59191,0.100625 -0.59191,-0.887861 -0.39658,-0.787237 -0.69253,-1.183815 -0.88786,-1.183815 -0.39658,0.19533 -1.47977,2.071676 -3.25549,5.623122 -0.98849,2.764208 -4.53993,8.582658 -10.65434,17.461271 l -7.99075,11.246243 17.75723,-29.299422 c 0.98848,-1.775723 0.78723,-2.858913 -0.59191,-3.255491 -0.39066,-0.19533 -4.23806,4.634635 -11.5422,14.501734 l -9.47052,11.246242 c 0.59191,-0.787237 4.24398,-5.81845 10.95029,-15.093641 6.30973,-7.29822 9.17457,-10.849665 8.58266,-10.654335 -3.15487,1.183815 -6.61161,2.959537 -10.35838,5.327167 -3.55145,2.172301 -6.61161,4.93059 -9.17457,8.286705 3.74678,-5.528416 7.39884,-9.174566 10.95029,-10.950289 2.76421,-1.379144 5.22654,-2.36763 7.39884,-2.959537 l 2.36763,-1.183815 c 0.98849,0.988485 1.97106,0.692532 2.95954,-0.887861 0.78724,-0.988486 1.77572,-0.988486 2.95954,0 0.39658,0.195329 0.59191,0.591907 0.59191,1.183815 0.19533,0.390659 0.69253,0.100624 1.47977,-0.887862 1.58039,-2.1723 2.7642,-2.663583 3.55144,-1.479768 0.19533,0.396578 0.39066,1.284439 0.59191,2.663583 0.39658,0.988486 0.88786,1.28444 1.47977,0.887862 1.18381,-1.580393 1.97105,-1.379145 2.36763,0.591907 0.19533,0.988486 0.39657,2.36763 0.5919,4.143353 z"
     id="path185"
     inkscape:connector-curvature="0" /><path
     style="clip-rule:evenodd;fill:#7d7b16;fill-rule:evenodd;stroke-width:5.91907501"
     d="m 147.68092,51.341629 c 0.39066,1.183815 0.59191,0.591907 0.59191,-1.775723 2.36763,7.499468 3.25549,12.530682 2.66359,15.093642 -0.59191,3.948023 -2.46826,9.073942 -5.62313,15.389595 -0.78723,1.379144 -2.36763,2.663584 -4.73526,3.847399 -2.36763,1.379144 -4.24397,2.071676 -5.62312,2.071676 -3.74677,0.787237 -6.51098,0.887861 -8.2867,0.295954 -1.18382,-0.19533 -2.1723,-0.988486 -2.95954,-2.36763 -1.58039,-2.172301 -2.36763,-3.356116 -2.36763,-3.551445 -0.59191,-0.787237 -1.28444,-1.379145 -2.07168,-1.775723 -0.78723,-0.390659 -1.28444,-0.787237 -1.47976,-1.183815 -0.98849,-2.764208 -1.5804,-4.243977 -1.77573,-4.439306 -0.5919,-0.591908 -1.08911,-1.775723 -1.47977,-3.551445 0,-1.775723 -0.49128,-3.65207 -1.47976,-5.623122 -0.19533,-1.971052 -0.39658,-3.551445 -0.59191,-4.73526 -0.98849,-0.988485 -1.5804,-2.1723 -1.77572,-3.551445 -0.59191,-2.1723 -0.88787,-3.847399 -0.88787,-5.031214 l 0.29596,-7.990751 3.55144,-1.775723 15.3896,5.031214 c 1.18381,0.787237 3.35611,0.491283 6.51098,-0.887861 2.95954,-1.580393 4.14335,-3.060162 3.55145,-4.439306 -0.39658,-1.379145 -0.10063,-1.379145 0.88786,0 0.5919,0.787237 1.18381,1.675098 1.77572,2.663583 l 0.59191,1.775723 c 0.39658,0.591907 0.88786,0.491283 1.47977,-0.295954 0.78723,-0.591907 1.37914,-0.692532 1.77572,-0.295954 0.78724,1.183815 1.47977,3.551445 2.07167,7.102891 z"
     id="path187"
     inkscape:connector-curvature="0" /><path
     style="clip-rule:evenodd;fill:#a8a51d;fill-rule:evenodd;stroke-width:5.91907501"
     d="m 140.28208,40.687293 c 0,0.19533 0.19533,0.887862 0.59191,2.071677 0,0.396578 0.39658,0.396578 1.18381,0 1.5804,-0.988486 2.76421,-0.491284 3.55145,1.479768 0.19533,0.396578 0.29595,1.28444 0.29595,2.663584 0.19533,1.379145 0.49129,1.971052 0.88786,1.775723 1.18382,0 1.97106,0.787237 2.36763,2.36763 0,2.959537 0.10063,4.53993 0.29596,4.73526 0.5919,0.787237 0.78723,1.971052 0.5919,3.551445 -2.7642,9.867098 -5.62312,15.786173 -8.58265,17.757225 -2.36763,1.379145 -5.62313,2.36763 -9.76648,2.959538 -4.73526,0.787237 -7.59417,0.295954 -8.58266,-1.479769 -2.1723,-4.338682 -3.55144,-6.706312 -4.14335,-7.10289 -0.39658,-0.396578 -0.78724,-1.479769 -1.18381,-3.255491 -0.39066,-1.971052 -0.69254,-2.959538 -0.88787,-2.959538 -0.39657,0 -0.5919,-0.491283 -0.5919,-1.479769 -0.19533,-1.379144 -0.39066,-2.267006 -0.59191,-2.663584 -0.19533,-1.379144 -0.59191,-2.568878 -1.18382,-3.551445 -0.39657,-0.787237 -1.18381,-3.356115 -2.36763,-7.694797 l -1.77572,-4.439307 c -1.18381,-2.36763 -0.29595,-4.930589 2.66359,-7.694797 3.94802,-3.551445 8.18608,-4.634636 12.72601,-3.255491 2.56296,0.591907 4.83588,1.479768 6.80693,2.663583 1.37915,0 2.1723,0.201249 2.36763,0.591908 1.18382,1.183815 2.07168,1.675098 2.66359,1.479769 0.5919,-0.390659 1.08319,-0.390659 1.47977,0 0.19533,0.195329 0.5919,0.692531 1.18381,1.479768 z"
     id="path189"
     inkscape:connector-curvature="0" /><path
     style="clip-rule:evenodd;fill:#bdb921;fill-rule:evenodd;stroke-width:5.91907501"
     d="m 135.54682,47.790183 c 0.39658,0.591908 1.28444,1.675099 2.66358,3.255492 1.18382,1.379144 1.97106,2.468254 2.36763,3.255491 0.78724,2.36763 0.59191,4.73526 -0.5919,7.10289 -0.98849,1.971052 -3.15487,3.847399 -6.51099,5.623122 -1.97105,0.787237 -4.73526,-0.591908 -8.2867,-4.143353 -0.78724,-0.787237 -1.37915,-1.971052 -1.77572,-3.551445 -0.78724,-2.36763 -1.37915,-4.042728 -1.77573,-5.031214 -0.5919,-1.379144 -0.88786,-2.959537 -0.88786,-4.73526 0,-2.56296 -0.10062,-4.243977 -0.29595,-5.031214 -0.19533,-1.971052 0.39066,-3.255491 1.77572,-3.847399 1.18382,-0.591907 2.56888,-0.591907 4.14335,0 4.53993,1.379145 7.59418,3.746775 9.17457,7.10289 z"
     id="path191"
     inkscape:connector-curvature="0" /><path
     style="clip-rule:evenodd;fill:#c4c022;fill-rule:evenodd;stroke-width:5.91907501"
     d="m 139.98613,42.75897 c -0.19533,-1.183815 -0.39066,-1.876347 -0.59191,-2.071677 -0.19533,-0.195329 -1.28444,0.887862 -3.25549,3.255492 -0.78724,0.988485 -4.63464,3.948023 -11.5422,8.878612 l -8.2867,4.439307 18.64508,-14.797688 c 0.98849,-0.787237 0.98849,-1.876347 0,-3.255491 -0.5919,-0.591908 -4.53993,1.089109 -11.83815,5.031213 -7.10289,2.959538 -10.35838,4.243977 -9.76647,3.847399 0.78724,-0.390659 4.63463,-2.468254 11.5422,-6.215029 1.37914,-0.396578 3.55144,-1.089109 6.51098,-2.071676 1.97105,-0.787237 2.66358,-1.379144 2.07167,-1.775722 -2.1723,-1.183815 -5.42779,-1.971052 -9.76647,-2.36763 -2.1723,-0.390659 -3.55144,-0.591908 -4.14335,-0.591908 -1.18382,0 -2.85892,0.491283 -5.03122,1.479769 3.74678,-2.36763 7.49947,-3.060162 11.24625,-2.071676 2.56296,0.591907 4.83588,1.479768 6.80693,2.663583 1.37915,0 2.1723,0.201249 2.36763,0.591908 1.18382,1.183815 2.07168,1.675098 2.66359,1.479769 0.5919,-0.390659 1.08319,-0.390659 1.47977,0 0.19533,0.195329 0.5919,0.692531 1.18381,1.479768 0,0.19533 0.19533,0.887862 0.59191,2.071677 0,0.396578 0.39658,0.396578 1.18381,0 1.5804,-0.988486 2.76421,-0.491284 3.55145,1.479768 0.19533,0.396578 0.29595,1.28444 0.29595,2.663584 0.19533,1.379145 0.49129,1.971052 0.88786,1.775723 1.18382,0 1.97106,0.787237 2.36763,2.36763 0,2.959537 0.10063,4.53993 0.29596,4.73526 0.5919,0.787237 0.78723,1.971052 0.5919,3.551445 -2.7642,9.66585 -5.62312,15.490219 -8.58265,17.461271 -0.39066,0 -0.10063,-0.491283 0.88786,-1.479768 2.36763,-2.56296 3.94802,-5.818451 4.73526,-9.766474 0.5919,-2.764208 0.5919,-4.93059 0,-6.510983 -0.39658,-0.591907 -0.29596,-1.479769 0.29595,-2.663584 l 0.88786,-1.479768 -0.59191,-1.183815 c -0.20124,-0.396578 -3.65206,2.468254 -10.35838,8.582658 -4.73526,3.948024 -9.17456,7.29822 -13.31792,10.062428 -1.97105,1.183815 -1.97105,0.787237 0,-1.183815 2.1723,-1.775722 4.53993,-3.551445 7.10289,-5.327167 1.97106,-1.183815 4.63464,-3.551446 7.99076,-7.102891 1.77572,-1.971052 3.65207,-4.048647 5.62312,-6.215028 0.78723,-0.988486 0.88786,-2.267006 0.29595,-3.847399 0,-2.764208 -0.59191,-3.746775 -1.77572,-2.959538 -5.52842,6.315653 -9.76648,10.654335 -12.72601,13.021965 -1.77573,1.580393 -4.23806,3.060162 -7.39885,4.439307 -3.74677,1.775722 -4.82996,2.1723 -3.25549,1.183815 l 13.02197,-9.47052 c 3.94802,-2.36763 6.80693,-5.623122 8.58266,-9.766474 0.39657,-0.787237 0.49128,-1.183815 0.29595,-1.183815 -0.39658,0 -0.78724,0 -1.18382,0 -0.39657,0.195329 -0.5919,-0.19533 -0.5919,-1.183815 z"
     id="path193"
     inkscape:connector-curvature="0" /></g>
</svg>