<?xml version="1.0" encoding="UTF-8" standalone="no"?>
<!-- Generator: Adobe Illustrator 15.1.0, SVG Export Plug-In . SVG Version: 6.00 Build 0)  -->

<svg
   xmlns:dc="http://purl.org/dc/elements/1.1/"
   xmlns:cc="http://creativecommons.org/ns#"
   xmlns:rdf="http://www.w3.org/1999/02/22-rdf-syntax-ns#"
   xmlns:svg="http://www.w3.org/2000/svg"
   xmlns="http://www.w3.org/2000/svg"
   xmlns:xlink="http://www.w3.org/1999/xlink"
   xmlns:sodipodi="http://sodipodi.sourceforge.net/DTD/sodipodi-0.dtd"
   xmlns:inkscape="http://www.inkscape.org/namespaces/inkscape"
   version="1.1"
   id="flash0.ai"
   x="0px"
   y="0px"
   width="256"
   height="256"
   viewBox="0 0 256 255.99999"
   xml:space="preserve"
   sodipodi:docname="potato.svg"
   inkscape:version="0.92.4 (5da689c313, 2019-01-14)"
   inkscape:export-xdpi="10.5"
   inkscape:export-ydpi="10.5"><title
   id="title990">Potato</title><metadata
   id="metadata183"><rdf:RDF><cc:Work
       rdf:about=""><dc:format>image/svg+xml</dc:format><dc:type
         rdf:resource="http://purl.org/dc/dcmitype/StillImage" /><dc:title>Potato</dc:title><cc:license
         rdf:resource="http://creativecommons.org/publicdomain/zero/1.0/" /><dc:creator><cc:Agent><dc:title>Glitch</dc:title></cc:Agent></dc:creator><dc:source>https://opengameart.org/node/20149</dc:source></cc:Work><cc:License
       rdf:about="http://creativecommons.org/publicdomain/zero/1.0/"><cc:permits
         rdf:resource="http://creativecommons.org/ns#Reproduction" /><cc:permits
         rdf:resource="http://creativecommons.org/ns#Distribution" /><cc:permits
         rdf:resource="http://creativecommons.org/ns#DerivativeWorks" /></cc:License></rdf:RDF></metadata><defs
   id="defs181" /><sodipodi:namedview
   pagecolor="#ffffff"
   bordercolor="#666666"
   borderopacity="1"
   objecttolerance="10"
   gridtolerance="10"
   guidetolerance="10"
   inkscape:pageopacity="0"
   inkscape:pageshadow="2"
   inkscape:window-width="1920"
   inkscape:window-height="1025"
   id="namedview179"
   showgrid="false"
   inkscape:zoom="1.0641607"
   inkscape:cx="-268.97001"
   inkscape:cy="19.599686"
   inkscape:window-x="-8"
   inkscape:window-y="-8"
   inkscape:window-maximized="1"
   inkscape:current-layer="flash0.ai"
   fit-margin-top="0"
   fit-margin-left="0"
   fit-margin-right="0"
   fit-margin-bottom="0" />
<symbol
   id="flash0.ai_x5F_1_x2F_Layer_4_copy_x2F__x3C_Path_x3E_"
   viewBox="-0.033 -4.475 4.572 4.485"
   transform="translate(102.74198,153.3316)">
	<g
   id="Layer_1_9_">
		<path
   style="clip-rule:evenodd;fill:#ffd670;fill-rule:evenodd"
   d="M 4.25,-1.05 C 4.717,-1.984 4.617,-2.734 3.95,-3.3 3.183,-3.967 2.416,-4.35 1.65,-4.45 c -0.767,-0.1 -1.283,0.1 -1.55,0.6 -0.267,0.467 -0.133,1.167 0.4,2.1 0.5,0.933 1.033,1.483 1.6,1.65 0.967,0.3 1.683,-0.017 2.15,-0.95 z"
   id="path2"
   inkscape:connector-curvature="0" />
	</g>
</symbol>
<symbol
   id="flash0.ai_x5F_1_x2F_Layer_4_copy_x2F__x3C_Path_x3E__x5F_1"
   viewBox="-0.01 -10.103 10.316 10.103"
   transform="translate(102.74198,153.3316)">
	<g
   id="Layer_1_8_">
		<path
   style="clip-rule:evenodd;fill:#ffe39e;fill-rule:evenodd"
   d="m 3.65,-0.8 c 1.833,0.667 3.35,0.917 4.55,0.75 1.333,-0.2 2.033,-1.1 2.1,-2.7 C 10.334,-3.617 10.217,-4.733 9.95,-6.1 9.917,-6.767 9.067,-7.583 7.4,-8.55 5.8,-9.55 4.45,-10.067 3.35,-10.1 2.283,-10.133 1.433,-9.833 0.8,-9.2 0.2,-8.567 -0.067,-7.7 0,-6.6 c 0.1,1.6 0.567,2.95 1.4,4.05 0.667,0.9 1.417,1.483 2.25,1.75 z"
   id="path6"
   inkscape:connector-curvature="0" />
	</g>
</symbol>
<symbol
   id="flash0.ai_x5F_1_x2F_Layer_4_copy_x2F__x3C_Path_x3E__x5F_19"
   viewBox="0 -19.348 33.831 19.348"
   transform="translate(102.74198,153.3316)">
	<g
   id="Layer_1_6_">
		<path
   style="clip-rule:evenodd;fill-rule:evenodd"
   d="M 33.45,-2.35 33.3,0 c 0.633,-1.567 0.7,-3.383 0.2,-5.45 -0.467,-1.9 -1.3,-3.65 -2.5,-5.25 -1.9,-2.466 -4.367,-4.367 -7.4,-5.7 -3.3,-1.434 -7.733,-2.383 -13.3,-2.85 -4.333,-0.367 -7.767,0.3 -10.3,2 1.367,-0.733 3.033,-1.183 5,-1.35 1.867,-0.167 4.25,-0.05 7.15,0.35 2.3,0.3 4.367,0.683 6.2,1.15 1.3,0.3 2.617,0.817 3.95,1.55 0.7,0.4 1.583,0.933 2.65,1.6 0.966,0.534 1.55,0.883 1.75,1.05 0.066,0.2 0.15,0.433 0.25,0.7 0.2,0.534 0.417,0.934 0.65,1.2 0.167,0.2 0.683,0.667 1.55,1.4 0.867,0.767 1.383,1.25 1.55,1.45 0.167,0.2 0.683,0.816 1.55,1.85 0.833,1.2 1.233,2.517 1.2,3.95 z"
   id="path10"
   inkscape:connector-curvature="0" />
	</g>
</symbol>
<symbol
   id="flash0.ai_x5F_1_x2F_Layer_4_copy_x2F__x3C_Path_x3E__x5F_2"
   viewBox="-0.003 -15.826 16.66 15.836"
   transform="translate(102.74198,153.3316)">
	<g
   id="Layer_1_7_">
		<path
   style="clip-rule:evenodd;fill:#ffebba;fill-rule:evenodd"
   d="m 9.85,0 c 3.367,-0.3 5.483,-1.717 6.35,-4.25 0.733,-2.067 0.583,-3.967 -0.45,-5.7 -1.3,-2.2 -2.95,-3.816 -4.95,-4.85 -2.566,-1.333 -5.267,-1.367 -8.1,-0.1 -1.333,0.6 -2.184,1.867 -2.55,3.8 -0.467,2.4 0.133,5 1.8,7.8 0.6,1 1.917,1.85 3.95,2.55 1.733,0.567 3.05,0.817 3.95,0.75 z"
   id="path14"
   inkscape:connector-curvature="0" />
	</g>
</symbol>
<symbol
   id="flash0.ai_x5F_1_x2F_Layer_4_copy_x2F__x3C_Path_x3E__x5F_20"
   viewBox="0 -1.464 4.75 1.464"
   transform="translate(102.74198,153.3316)">
	<g
   id="Layer_1_5_">
		<path
   style="clip-rule:evenodd;fill:#ffd670;fill-rule:evenodd"
   d="m 2.55,-0.75 -1.8,0.2 C 0.483,-0.517 0.267,-0.4 0.1,-0.2 L 0,0 c 0.133,-0.133 0.267,-0.183 0.4,-0.15 0.434,0.1 0.85,0.1 1.25,0 0.8,-0.2 1.283,-0.367 1.45,-0.5 0.333,-0.267 0.883,-0.483 1.65,-0.65 -0.267,-0.2 -0.6,-0.217 -1,-0.05 -0.333,0.333 -0.733,0.533 -1.2,0.6 z"
   id="path18"
   inkscape:connector-curvature="0" />
	</g>
</symbol>
<symbol
   id="flash0.ai_x5F_1_x2F_Layer_4_copy_x2F__x3C_Path_x3E__x5F_21"
   viewBox="0 -2.4 7.1 2.4"
   transform="translate(102.74198,153.3316)">
	<g
   id="Layer_1_4_">
		<path
   style="clip-rule:evenodd;fill:#ffe39e;fill-rule:evenodd"
   d="m 3.8,-1.9 c -0.267,0.033 -0.55,0.133 -0.85,0.3 -0.533,0.367 -1.117,0.55 -1.75,0.55 -0.6,0 -0.983,0.1 -1.15,0.3 C -0.05,-0.583 0,-0.333 0.2,0 0.533,-0.133 0.766,-0.15 0.9,-0.05 h 0.7 c 0.066,0 0.1,-0.1 0.1,-0.3 0,-0.167 0.167,-0.267 0.5,-0.3 0.4,-0.033 0.65,-0.067 0.75,-0.1 C 3.017,-0.783 3.217,-0.9 3.55,-1.1 3.817,-1.233 4,-1.35 4.1,-1.45 4.167,-1.517 4.4,-1.567 4.8,-1.6 5.433,-1.7 6.2,-1.967 7.1,-2.4 6.033,-2 5.233,-1.817 4.7,-1.85 4.167,-1.883 3.867,-1.9 3.8,-1.9 Z"
   id="path22"
   inkscape:connector-curvature="0" />
	</g>
</symbol>
<symbol
   id="flash0.ai_x5F_1_x2F_Layer_4_copy_x2F__x3C_Path_x3E__x5F_22"
   viewBox="0 -3.5 7.25 3.5"
   transform="translate(102.74198,153.3316)">
	<g
   id="Layer_1_3_">
		<path
   style="clip-rule:evenodd;fill:#ffe5a3;fill-rule:evenodd"
   d="m 6.55,-2.2 c 0.333,-0.133 0.55,-0.383 0.65,-0.75 0.066,-0.3 0.066,-0.483 0,-0.55 0,0.1 -0.15,0.2 -0.45,0.3 C 6.35,-3.067 5.8,-3 5.1,-3 c -0.667,0 -1.283,0.083 -1.85,0.25 -0.633,0.233 -1.133,0.417 -1.5,0.55 -0.7,0.1 -1.183,0.183 -1.45,0.25 -0.4,0.133 -0.4,0.417 0,0.85 H 0.2 L 1.3,-0.8 3.25,0 c 0.2,0 0.417,-0.067 0.65,-0.2 0.233,-0.1 0.333,-0.216 0.3,-0.35 0,-0.3 -0.017,-0.534 -0.05,-0.7 0,-0.033 0.15,-0.033 0.45,0 0.467,0.033 0.933,-0.117 1.4,-0.45 l 0.15,-0.2 c 0.133,-0.167 0.267,-0.267 0.4,-0.3 z"
   id="path26"
   inkscape:connector-curvature="0" />
	</g>
</symbol>
<symbol
   id="flash0.ai_x5F_1_x2F_Layer_4_copy_x2F__x3C_Path_x3E__x5F_23"
   viewBox="0 -22.658 35.206 22.658"
   transform="translate(102.74198,153.3316)">
	<g
   id="Layer_1_2_">
		<path
   style="clip-rule:evenodd;fill-rule:evenodd"
   d="m 30.55,-8.15 c 0.967,0.733 1.633,1.45 2,2.15 0.3,0.5 0.45,0.5 0.45,0 0,-0.767 0.067,-1.2 0.2,-1.3 0.233,-0.167 0.466,-0.034 0.7,0.4 0.267,0.467 0.4,1.083 0.4,1.85 0,0.533 -0.25,1.316 -0.75,2.35 -0.533,1 -1.133,1.9 -1.8,2.7 2.4,-1.333 3.55,-3.5 3.45,-6.5 -0.1,-2.633 -1.034,-5.133 -2.8,-7.5 -1.9,-2.467 -4.367,-4.367 -7.4,-5.7 -3.3,-1.433 -7.733,-2.383 -13.3,-2.85 -5.267,-0.467 -9.167,0.583 -11.7,3.15 2.6,-1.233 5.8,-1.7 9.6,-1.4 2.566,0.2 4.683,0.7 6.35,1.5 0.9,0.433 1.867,0.983 2.9,1.65 0.867,0.333 1.933,0.867 3.2,1.6 0.267,0.167 0.867,0.3 1.8,0.4 0.867,0.1 1.383,0.233 1.55,0.4 l 0.95,1.1 c -0.3,0.1 -0.567,0.217 -0.8,0.35 -0.533,0.233 -0.7,0.383 -0.5,0.45 0.1,0.033 0.3,0.15 0.6,0.35 0.233,0.2 0.567,0.35 1,0.45 0.567,0.167 0.917,0.333 1.05,0.5 0.167,0.133 0.25,0.4 0.25,0.8 0,0.333 -0.35,0.583 -1.05,0.75 l -1.05,0.2 2.25,0.8 c 0.733,0.233 1.55,0.683 2.45,1.35 z"
   id="path30"
   inkscape:connector-curvature="0" />
	</g>
</symbol>
<g
   id="g176"
   transform="matrix(8.4449691,0,0,8.4449691,-85.301286,-54.207788)">
	
		<linearGradient
   id="SVGID_1_"
   gradientUnits="userSpaceOnUse"
   x1="10.7471"
   y1="-14.7495"
   x2="28.1992"
   y2="-14.7495"
   gradientTransform="matrix(0.2361,0.7644,-0.7644,0.2361,10.1502,11.9501)">
		<stop
   offset="0"
   style="stop-color:#B39345"
   id="stop34" />
		<stop
   offset="1"
   style="stop-color:#6E5720"
   id="stop36" />
	</linearGradient>
	<path
   style="clip-rule:evenodd;fill:url(#SVGID_1_);fill-rule:evenodd"
   d="m 35.43,12.23 c 3.013,0.64 4.64,2.333 4.88,5.08 0.213,2.373 -0.521,4.68 -2.2,6.92 -1.521,1.973 -3.493,3.493 -5.92,4.56 -2.64,1.146 -6.187,1.907 -10.64,2.28 -4.4,0.399 -7.6,-0.521 -9.6,-2.76 -1.867,-2.054 -2.32,-4.693 -1.36,-7.921 0.667,-2.266 2.467,-3.853 5.4,-4.759 1.173,-0.374 3.707,-0.787 7.6,-1.24 0.88,-0.08 2.72,-0.653 5.52,-1.72 2.027,-0.746 4.132,-0.893 6.32,-0.44 z"
   id="path39"
   inkscape:connector-curvature="0" />
	
		<linearGradient
   id="SVGID_2_"
   gradientUnits="userSpaceOnUse"
   x1="7.8070998"
   y1="-17.502001"
   x2="12.3857"
   y2="-17.502001"
   gradientTransform="matrix(0.2359,0.7644,-0.7644,0.2359,10.1499,11.95)">
		<stop
   offset="0"
   style="stop-color:#997E38"
   id="stop41" />
		<stop
   offset="1"
   style="stop-color:#9C7F3A"
   id="stop43" />
	</linearGradient>
	<path
   style="clip-rule:evenodd;fill:url(#SVGID_2_);fill-rule:evenodd"
   d="m 26.63,14.91 c 0.293,0.107 0.693,0.253 1.2,0.44 0.453,0.133 0.946,0.2 1.479,0.2 0.56,0 1,0.053 1.319,0.16 0.241,0.08 0.36,0.16 0.36,0.24 -0.532,-0.187 -1.373,-0.173 -2.52,0.04 -0.587,0.107 -1.054,0.081 -1.4,-0.08 l -0.319,-0.24 c -0.667,0.267 -1.134,0.227 -1.4,-0.12 -0.133,-0.187 -0.4,-0.307 -0.8,-0.36 -0.907,-0.08 -1.72,-0.2 -2.44,-0.36 -0.405,-0.088 -0.872,-0.115 -1.4,-0.08 0.78,-0.095 1.74,-0.215 2.879,-0.36 0.641,-0.08 1.267,-0.2 1.88,-0.36 -0.32,0.347 -0.32,0.573 0,0.68 0.215,0.054 0.601,0.12 1.162,0.2 z"
   id="path46"
   inkscape:connector-curvature="0" />
	
		<use
   xlink:href="#flash0.ai_x5F_1_x2F_Layer_4_copy_x2F__x3C_Path_x3E__x5F_23"
   width="35.206001"
   height="22.658001"
   y="-22.658001"
   transform="matrix(0.8,0,0,-0.8,-69.993383,135.71508)"
   style="overflow:visible;opacity:0.12110003;enable-background:new"
   id="use48"
   x="0" />
	
		<use
   xlink:href="#flash0.ai_x5F_1_x2F_Layer_4_copy_x2F__x3C_Path_x3E__x5F_22"
   width="7.25"
   height="3.5"
   x="0"
   y="-3.5"
   transform="matrix(0.8,0,0,-0.8,-56.943583,135.81518)"
   style="overflow:visible;opacity:0.07029999;enable-background:new"
   id="use50" />
	
		<use
   xlink:href="#flash0.ai_x5F_1_x2F_Layer_4_copy_x2F__x3C_Path_x3E__x5F_21"
   width="7.0999999"
   height="2.4000001"
   x="0"
   y="-2.4000001"
   transform="matrix(0.8,0,0,-0.8,-56.843983,136.71508)"
   style="overflow:visible;opacity:0.10160002;enable-background:new"
   id="use52" />
	
		<use
   xlink:href="#flash0.ai_x5F_1_x2F_Layer_4_copy_x2F__x3C_Path_x3E__x5F_20"
   width="4.75"
   height="1.464"
   y="-1.464"
   transform="matrix(0.8,0,0,-0.8,-56.893783,137.16528)"
   style="overflow:visible;opacity:0.30080004;enable-background:new"
   id="use54"
   x="0" />
	
		<use
   xlink:href="#flash0.ai_x5F_1_x2F_Layer_4_copy_x2F__x3C_Path_x3E__x5F_19"
   width="33.831001"
   height="19.348"
   y="-19.348"
   transform="matrix(0.8,0,0,-0.8,-68.843483,138.36548)"
   style="overflow:visible;opacity:0.19140003;enable-background:new"
   id="use56"
   x="0" />
	
		<linearGradient
   id="SVGID_3_"
   gradientUnits="userSpaceOnUse"
   x1="16.8281"
   y1="-10.0537"
   x2="18.370199"
   y2="-10.0537"
   gradientTransform="matrix(0.2334,0.7652,-0.7652,0.2334,10.1496,11.9501)">
		<stop
   offset="0"
   style="stop-color:#856629"
   id="stop58" />
		<stop
   offset="0.9882"
   style="stop-color:#96782D"
   id="stop60" />
	</linearGradient>
	<path
   style="clip-rule:evenodd;fill:url(#SVGID_3_);fill-rule:evenodd"
   d="m 21.87,22.23 c 1.067,0.187 1.347,0.546 0.84,1.08 -0.534,0.56 -1.014,0.706 -1.44,0.439 -0.32,-0.187 -0.413,-0.493 -0.28,-0.92 0.16,-0.452 0.453,-0.652 0.88,-0.599 z"
   id="path63"
   inkscape:connector-curvature="0" />
	
		<linearGradient
   id="SVGID_4_"
   gradientUnits="userSpaceOnUse"
   x1="9.5825005"
   y1="-7.3936"
   x2="10.1285"
   y2="-7.3936"
   gradientTransform="matrix(0.2198,0.7692,-0.7692,0.2198,10.1505,11.9498)">
		<stop
   offset="0"
   style="stop-color:#7A5E26"
   id="stop65" />
		<stop
   offset="0.9882"
   style="stop-color:#96782D"
   id="stop67" />
	</linearGradient>
	<path
   style="clip-rule:evenodd;fill:url(#SVGID_4_);fill-rule:evenodd"
   d="m 18.03,17.59 c 0.427,-0.026 0.533,0.08 0.32,0.32 -0.213,0.267 -0.426,0.36 -0.64,0.28 -0.187,-0.054 -0.227,-0.16 -0.12,-0.32 0.08,-0.16 0.226,-0.253 0.44,-0.28 z"
   id="path70"
   inkscape:connector-curvature="0" />
	
		<linearGradient
   id="SVGID_5_"
   gradientUnits="userSpaceOnUse"
   x1="14.9229"
   y1="-15.0439"
   x2="16.101"
   y2="-15.0439"
   gradientTransform="matrix(0.2376,0.7639,-0.7639,0.2376,10.15,11.95)">
		<stop
   offset="0"
   style="stop-color:#8F6E2C"
   id="stop72" />
		<stop
   offset="0.9882"
   style="stop-color:#9E7F2F"
   id="stop74" />
	</linearGradient>
	<path
   style="clip-rule:evenodd;fill:url(#SVGID_5_);fill-rule:evenodd"
   d="m 25.35,19.51 c 0.693,-0.106 0.92,0.094 0.68,0.601 -0.267,0.533 -0.64,0.746 -1.12,0.64 -0.427,-0.106 -0.573,-0.333 -0.44,-0.68 0.133,-0.321 0.426,-0.508 0.88,-0.561 z"
   id="path77"
   inkscape:connector-curvature="0" />
	
		<linearGradient
   id="SVGID_6_"
   gradientUnits="userSpaceOnUse"
   x1="20.6714"
   y1="-0.73049998"
   x2="21.4305"
   y2="-0.73049998"
   gradientTransform="matrix(0.2371,0.764,-0.764,0.2371,10.1503,11.9504)">
		<stop
   offset="0"
   style="stop-color:#7A5E26"
   id="stop79" />
		<stop
   offset="0.9882"
   style="stop-color:#96782D"
   id="stop81" />
	</linearGradient>
	<path
   style="clip-rule:evenodd;fill:url(#SVGID_6_);fill-rule:evenodd"
   d="m 15.83,27.51 c 0.586,0.133 0.707,0.307 0.359,0.52 -0.373,0.214 -0.707,0.214 -1,0 -0.266,-0.187 -0.293,-0.332 -0.08,-0.439 0.187,-0.108 0.428,-0.134 0.721,-0.081 z"
   id="path84"
   inkscape:connector-curvature="0" />
	
		<linearGradient
   id="SVGID_7_"
   gradientUnits="userSpaceOnUse"
   x1="22.357401"
   y1="-14.2397"
   x2="23.329901"
   y2="-14.2397"
   gradientTransform="matrix(0.2468,0.761,-0.761,0.2468,10.1501,11.9506)">
		<stop
   offset="0"
   style="stop-color:#7A5E26"
   id="stop86" />
		<stop
   offset="0.9882"
   style="stop-color:#96782D"
   id="stop88" />
	</linearGradient>
	<path
   style="clip-rule:evenodd;fill:url(#SVGID_7_);fill-rule:evenodd"
   d="m 26.63,25.229 c 0.72,-0.079 0.92,0.107 0.6,0.561 -0.319,0.427 -0.693,0.6 -1.12,0.521 -0.32,-0.081 -0.373,-0.281 -0.16,-0.601 0.187,-0.294 0.413,-0.453 0.68,-0.481 z"
   id="path91"
   inkscape:connector-curvature="0" />
	
		<linearGradient
   id="SVGID_8_"
   gradientUnits="userSpaceOnUse"
   x1="12.6777"
   y1="-21.6689"
   x2="13.3027"
   y2="-21.6689"
   gradientTransform="matrix(0.224,0.768,-0.768,0.224,10.1494,11.9505)">
		<stop
   offset="0"
   style="stop-color:#A17C31"
   id="stop93" />
		<stop
   offset="0.9882"
   style="stop-color:#A18130"
   id="stop95" />
	</linearGradient>
	<path
   style="clip-rule:evenodd;fill:url(#SVGID_8_);fill-rule:evenodd"
   d="m 29.75,16.71 c 0.399,-0.026 0.533,0.094 0.399,0.36 -0.16,0.267 -0.387,0.36 -0.68,0.28 -0.267,-0.054 -0.36,-0.174 -0.28,-0.36 0.081,-0.16 0.267,-0.253 0.561,-0.28 z"
   id="path98"
   inkscape:connector-curvature="0" />
	
		<linearGradient
   id="SVGID_9_"
   gradientUnits="userSpaceOnUse"
   x1="17.0923"
   y1="-24.666"
   x2="17.985701"
   y2="-24.666"
   gradientTransform="matrix(0.2463,0.7611,-0.7611,0.2463,10.1494,11.9505)">
		<stop
   offset="0"
   style="stop-color:#91702D"
   id="stop100" />
		<stop
   offset="0.9882"
   style="stop-color:#A38332"
   id="stop102" />
	</linearGradient>
	<path
   style="clip-rule:evenodd;fill:url(#SVGID_9_);fill-rule:evenodd"
   d="m 32.949,18.75 c 0.693,-0.293 0.987,-0.213 0.88,0.24 -0.133,0.479 -0.413,0.706 -0.84,0.68 -0.347,-0.026 -0.493,-0.174 -0.439,-0.439 0.053,-0.214 0.186,-0.375 0.399,-0.481 z"
   id="path105"
   inkscape:connector-curvature="0" />
	
		<linearGradient
   id="SVGID_10_"
   gradientUnits="userSpaceOnUse"
   x1="19.288601"
   y1="-19.6504"
   x2="20.2848"
   y2="-19.6504"
   gradientTransform="matrix(0.2409,0.7629,-0.7629,0.2409,10.1491,11.9503)">
		<stop
   offset="0"
   style="stop-color:#856629"
   id="stop107" />
		<stop
   offset="0.9882"
   style="stop-color:#96782D"
   id="stop109" />
	</linearGradient>
	<path
   style="clip-rule:evenodd;fill:url(#SVGID_10_);fill-rule:evenodd"
   d="m 29.949,21.71 c 0.721,-0.08 0.961,0.094 0.721,0.521 -0.268,0.426 -0.667,0.613 -1.2,0.56 -0.48,-0.08 -0.601,-0.28 -0.36,-0.601 0.213,-0.294 0.494,-0.454 0.839,-0.48 z"
   id="path112"
   inkscape:connector-curvature="0" />
	
		<linearGradient
   id="SVGID_11_"
   gradientUnits="userSpaceOnUse"
   x1="20.585899"
   y1="-23.5371"
   x2="21.108"
   y2="-23.5371"
   gradientTransform="matrix(0.2299,0.7662,-0.7662,0.2299,10.1498,11.95)">
		<stop
   offset="0"
   style="stop-color:#7A5E26"
   id="stop114" />
		<stop
   offset="0.9882"
   style="stop-color:#96782D"
   id="stop116" />
	</linearGradient>
	<path
   style="clip-rule:evenodd;fill:url(#SVGID_11_);fill-rule:evenodd"
   d="m 32.989,22.189 c 0.4,0 0.534,0.107 0.4,0.32 -0.133,0.214 -0.347,0.294 -0.64,0.24 -0.24,-0.054 -0.32,-0.16 -0.24,-0.32 0.107,-0.159 0.267,-0.24 0.48,-0.24 z"
   id="path119"
   inkscape:connector-curvature="0" />
	
		<linearGradient
   id="SVGID_12_"
   gradientUnits="userSpaceOnUse"
   x1="11.3418"
   y1="-28.8755"
   x2="12.1248"
   y2="-28.8755"
   gradientTransform="matrix(0.2299,0.7662,-0.7662,0.2299,10.1495,11.9501)">
		<stop
   offset="0"
   style="stop-color:#AB8435"
   id="stop121" />
		<stop
   offset="0.9882"
   style="stop-color:#997B2E"
   id="stop123" />
	</linearGradient>
	<path
   style="clip-rule:evenodd;fill:url(#SVGID_12_);fill-rule:evenodd"
   d="m 34.829,13.87 c 0.454,-0.08 0.628,0.054 0.521,0.4 -0.107,0.347 -0.293,0.48 -0.561,0.4 -0.213,-0.08 -0.306,-0.227 -0.279,-0.439 0.026,-0.214 0.133,-0.335 0.319,-0.361 z"
   id="path126"
   inkscape:connector-curvature="0" />
	
		<linearGradient
   id="SVGID_13_"
   gradientUnits="userSpaceOnUse"
   x1="14.2197"
   y1="-30.061501"
   x2="15.3428"
   y2="-30.061501"
   gradientTransform="matrix(0.2315,0.7658,-0.7658,0.2315,10.1503,11.9502)">
		<stop
   offset="0"
   style="stop-color:#96742E"
   id="stop128" />
		<stop
   offset="0.9882"
   style="stop-color:#A38332"
   id="stop130" />
	</linearGradient>
	<path
   style="clip-rule:evenodd;fill:url(#SVGID_13_);fill-rule:evenodd"
   d="m 36.87,15.59 c 0.399,0.107 0.426,0.387 0.079,0.841 -0.347,0.479 -0.64,0.6 -0.88,0.359 -0.213,-0.213 -0.187,-0.493 0.08,-0.84 0.267,-0.32 0.507,-0.44 0.721,-0.36 z"
   id="path133"
   inkscape:connector-curvature="0" />
	
		<linearGradient
   id="SVGID_14_"
   gradientUnits="userSpaceOnUse"
   x1="16.174299"
   y1="-29.1299"
   x2="16.9573"
   y2="-29.1299"
   gradientTransform="matrix(0.2299,0.7662,-0.7662,0.2299,10.1495,11.9501)">
		<stop
   offset="0"
   style="stop-color:#96742E"
   id="stop135" />
		<stop
   offset="0.9882"
   style="stop-color:#A38332"
   id="stop137" />
	</linearGradient>
	<path
   style="clip-rule:evenodd;fill:url(#SVGID_14_);fill-rule:evenodd"
   d="m 36.229,17.511 c 0.347,-0.027 0.493,0.093 0.44,0.359 -0.081,0.24 -0.254,0.387 -0.521,0.44 -0.24,0.053 -0.32,-0.067 -0.24,-0.36 0.055,-0.293 0.161,-0.439 0.321,-0.439 z"
   id="path140"
   inkscape:connector-curvature="0" />
	
		<linearGradient
   id="SVGID_15_"
   gradientUnits="userSpaceOnUse"
   x1="10.7813"
   y1="-31.5049"
   x2="11.5883"
   y2="-31.5049"
   gradientTransform="matrix(0.223,0.7683,-0.7683,0.223,10.1497,11.95)">
		<stop
   offset="0"
   style="stop-color:#AB8435"
   id="stop142" />
		<stop
   offset="0.9882"
   style="stop-color:#997B2E"
   id="stop144" />
	</linearGradient>
	<path
   style="clip-rule:evenodd;fill:url(#SVGID_15_);fill-rule:evenodd"
   d="m 36.47,13.11 c 0.267,-0.027 0.467,0.026 0.6,0.16 0.133,0.134 0.173,0.293 0.12,0.48 -0.054,0.133 -0.227,0.067 -0.52,-0.2 -0.268,-0.239 -0.334,-0.386 -0.2,-0.44 z"
   id="path147"
   inkscape:connector-curvature="0" />
	
		<linearGradient
   id="SVGID_16_"
   gradientUnits="userSpaceOnUse"
   x1="9.7841997"
   y1="-24.2061"
   x2="10.3613"
   y2="-24.2061"
   gradientTransform="matrix(0.2426,0.7623,-0.7623,0.2426,10.1496,11.95)">
		<stop
   offset="0"
   style="stop-color:#AB8435"
   id="stop149" />
		<stop
   offset="0.9882"
   style="stop-color:#997B2E"
   id="stop151" />
	</linearGradient>
	<path
   style="clip-rule:evenodd;fill:url(#SVGID_16_);fill-rule:evenodd"
   d="m 30.629,13.59 c 0.16,-0.133 0.334,-0.2 0.521,-0.2 0.16,0.027 0.267,0.08 0.32,0.16 0.053,0.08 0.04,0.173 -0.04,0.28 -0.106,0.107 -0.254,0.16 -0.44,0.16 -0.16,0 -0.293,-0.053 -0.399,-0.16 -0.081,-0.106 -0.068,-0.186 0.038,-0.24 z"
   id="path154"
   inkscape:connector-curvature="0" />
	
		<linearGradient
   id="SVGID_17_"
   gradientUnits="userSpaceOnUse"
   x1="17.8804"
   y1="2.7177999"
   x2="18.6395"
   y2="2.7177999"
   gradientTransform="matrix(0.2371,0.764,-0.764,0.2371,10.1503,11.9504)">
		<stop
   offset="0"
   style="stop-color:#7A5E26"
   id="stop156" />
		<stop
   offset="0.9882"
   style="stop-color:#96782D"
   id="stop158" />
	</linearGradient>
	<path
   style="clip-rule:evenodd;fill:url(#SVGID_17_);fill-rule:evenodd"
   d="m 12.47,26.189 c 0.454,0.188 0.547,0.374 0.28,0.561 -0.24,0.187 -0.467,0.213 -0.68,0.08 -0.16,-0.133 -0.2,-0.293 -0.12,-0.48 0.107,-0.213 0.28,-0.266 0.52,-0.161 z"
   id="path161"
   inkscape:connector-curvature="0" />
	
		<linearGradient
   id="SVGID_18_"
   gradientUnits="userSpaceOnUse"
   x1="23.1187"
   y1="-6.25"
   x2="23.925699"
   y2="-6.25"
   gradientTransform="matrix(0.223,0.7683,-0.7683,0.223,10.1497,11.95)">
		<stop
   offset="0"
   style="stop-color:#7A5E26"
   id="stop163" />
		<stop
   offset="0.9882"
   style="stop-color:#96782D"
   id="stop165" />
	</linearGradient>
	<path
   style="clip-rule:evenodd;fill:url(#SVGID_18_);fill-rule:evenodd"
   d="m 19.87,28.229 c 0.587,-0.079 0.854,0.014 0.8,0.28 -0.026,0.24 -0.2,0.4 -0.52,0.48 -0.24,0.026 -0.4,-0.08 -0.48,-0.32 -0.08,-0.266 -0.014,-0.412 0.2,-0.44 z"
   id="path168"
   inkscape:connector-curvature="0" />
	
		<use
   xlink:href="#flash0.ai_x5F_1_x2F_Layer_4_copy_x2F__x3C_Path_x3E__x5F_2"
   width="16.66"
   height="15.836"
   x="-0.003"
   y="-15.826"
   transform="matrix(0.8,0,0,-0.8,-71.643783,138.36548)"
   style="overflow:visible;opacity:0.07029999;enable-background:new"
   id="use170" />
	
		<use
   xlink:href="#flash0.ai_x5F_1_x2F_Layer_4_copy_x2F__x3C_Path_x3E__x5F_1"
   width="10.316"
   height="10.103"
   x="-0.0099999998"
   y="-10.103"
   transform="matrix(0.8,0,0,-0.8,-70.843483,139.41528)"
   style="overflow:visible;opacity:0.10160002;enable-background:new"
   id="use172" />
	
		<use
   xlink:href="#flash0.ai_x5F_1_x2F_Layer_4_copy_x2F__x3C_Path_x3E_"
   width="4.572"
   height="4.4850001"
   x="-0.033"
   y="-4.4749999"
   transform="matrix(0.8,0,0,-0.8,-69.493383,140.76488)"
   style="overflow:visible;opacity:0.30080004;enable-background:new"
   id="use174" />
</g>
</svg>