<?xml version="1.0" encoding="UTF-8" standalone="no"?>
<!-- Generator: Adobe Illustrator 15.1.0, SVG Export Plug-In . SVG Version: 6.00 Build 0)  -->

<svg
   xmlns:dc="http://purl.org/dc/elements/1.1/"
   xmlns:cc="http://creativecommons.org/ns#"
   xmlns:rdf="http://www.w3.org/1999/02/22-rdf-syntax-ns#"
   xmlns:svg="http://www.w3.org/2000/svg"
   xmlns="http://www.w3.org/2000/svg"
   xmlns:xlink="http://www.w3.org/1999/xlink"
   xmlns:sodipodi="http://sodipodi.sourceforge.net/DTD/sodipodi-0.dtd"
   xmlns:inkscape="http://www.inkscape.org/namespaces/inkscape"
   version="1.1"
   id="flash0.ai"
   x="0px"
   y="0px"
   width="256"
   height="256"
   viewBox="0 0 256.00001 256"
   xml:space="preserve"
   sodipodi:docname="turnip.svg"
   inkscape:version="0.92.4 (5da689c313, 2019-01-14)"
   inkscape:export-xdpi="10.5"
   inkscape:export-ydpi="10.5"><title
   id="title986">Turnip</title><metadata
   id="metadata179"><rdf:RDF><cc:Work
       rdf:about=""><dc:format>image/svg+xml</dc:format><dc:type
         rdf:resource="http://purl.org/dc/dcmitype/StillImage" /><dc:title>Turnip</dc:title><cc:license
         rdf:resource="http://creativecommons.org/publicdomain/zero/1.0/" /><dc:creator><cc:Agent><dc:title>Glitch</dc:title></cc:Agent></dc:creator><dc:source>https://opengameart.org/node/20149</dc:source></cc:Work><cc:License
       rdf:about="http://creativecommons.org/publicdomain/zero/1.0/"><cc:permits
         rdf:resource="http://creativecommons.org/ns#Reproduction" /><cc:permits
         rdf:resource="http://creativecommons.org/ns#Distribution" /><cc:permits
         rdf:resource="http://creativecommons.org/ns#DerivativeWorks" /></cc:License></rdf:RDF></metadata><defs
   id="defs177"><radialGradient
     inkscape:collect="always"
     xlink:href="#SVGID_1_"
     id="radialGradient984"
     gradientUnits="userSpaceOnUse"
     gradientTransform="matrix(0.4733,-0.8809,-0.8809,-0.4733,-8714.1934,-7981.0234)"
     cx="-2915.5029"
     cy="-11464.279"
     r="26.492001" /><radialGradient
     inkscape:collect="always"
     xlink:href="#SVGID_2_"
     id="radialGradient986"
     gradientUnits="userSpaceOnUse"
     gradientTransform="matrix(0.4731,-0.881,-0.881,-0.4731,-8731.2891,-7986.9766)"
     cx="-2920.7041"
     cy="-11474.001"
     r="26.4751" /><radialGradient
     inkscape:collect="always"
     xlink:href="#SVGID_3_"
     id="radialGradient988"
     gradientUnits="userSpaceOnUse"
     gradientTransform="matrix(0.793,-0.6092,-0.6092,-0.793,-1450.9424,-7290.4756)"
     cx="-3301.7686"
     cy="-6658.0254"
     r="24.479099" /><radialGradient
     inkscape:collect="always"
     xlink:href="#SVGID_4_"
     id="radialGradient990"
     gradientUnits="userSpaceOnUse"
     gradientTransform="matrix(0.793,-0.6093,-0.6093,-0.793,-1445.002,-7281.9507)"
     cx="-3308.6982"
     cy="-6653.2178"
     r="24.4967" /><radialGradient
     inkscape:collect="always"
     xlink:href="#SVGID_5_"
     id="radialGradient992"
     gradientUnits="userSpaceOnUse"
     gradientTransform="matrix(0.793,-0.6092,-0.6092,-0.793,-1443.2646,-7280.4814)"
     cx="-3311.2119"
     cy="-6651.7241"
     r="24.479099" /><radialGradient
     inkscape:collect="always"
     xlink:href="#SVGID_6_"
     id="radialGradient994"
     gradientUnits="userSpaceOnUse"
     gradientTransform="matrix(0.4731,-0.881,-0.881,-0.4731,-8717.1074,-7979.3618)"
     cx="-2912.8633"
     cy="-11465.953"
     r="26.4751" /><radialGradient
     inkscape:collect="always"
     xlink:href="#SVGID_7_"
     id="radialGradient996"
     gradientUnits="userSpaceOnUse"
     gradientTransform="matrix(0.4731,-0.881,-0.881,-0.4731,-8736.0059,-7989.5103)"
     cx="-2920.1553"
     cy="-11476.679"
     r="26.4751" /><radialGradient
     inkscape:collect="always"
     xlink:href="#SVGID_8_"
     id="radialGradient998"
     gradientUnits="userSpaceOnUse"
     gradientTransform="matrix(0.793,-0.6092,-0.6092,-0.793,-1439.8994,-7276.1006)"
     cx="-3301.543"
     cy="-6648.9619"
     r="24.479099" /><radialGradient
     inkscape:collect="always"
     xlink:href="#SVGID_9_"
     id="radialGradient1000"
     gradientUnits="userSpaceOnUse"
     gradientTransform="matrix(0.793,-0.6092,-0.6092,-0.793,-1443.5742,-7280.8833)"
     cx="-3296.7676"
     cy="-6651.9775"
     r="24.479099" /><radialGradient
     inkscape:collect="always"
     xlink:href="#SVGID_10_"
     id="radialGradient1002"
     gradientUnits="userSpaceOnUse"
     gradientTransform="matrix(0.793,-0.6092,-0.6092,-0.793,-1452.6387,-7292.6836)"
     cx="-3308.0127"
     cy="-6659.4175"
     r="24.479099" /></defs><sodipodi:namedview
   pagecolor="#ffffff"
   bordercolor="#666666"
   borderopacity="1"
   objecttolerance="10"
   gridtolerance="10"
   guidetolerance="10"
   inkscape:pageopacity="0"
   inkscape:pageshadow="2"
   inkscape:window-width="1920"
   inkscape:window-height="1025"
   id="namedview175"
   showgrid="false"
   inkscape:zoom="1.0646878"
   inkscape:cx="-190.25056"
   inkscape:cy="26.322828"
   inkscape:window-x="-8"
   inkscape:window-y="-8"
   inkscape:window-maximized="1"
   inkscape:current-layer="flash0.ai"
   fit-margin-top="0"
   fit-margin-left="0"
   fit-margin-right="0"
   fit-margin-bottom="0" />
<symbol
   id="flash0.ai_x5F_5_x2F_Layer_17_x2F__x3C_Path_x3E_"
   viewBox="0 -4.75 6.9 4.764"
   transform="translate(105.9462,112.8848)">
	<g
   id="Layer_1_11_">
		
			<radialGradient
   id="SVGID_1_"
   cx="-2915.5029"
   cy="-11464.279"
   r="26.492001"
   gradientTransform="matrix(0.4733,-0.8809,-0.8809,-0.4733,-8714.1934,-7981.0234)"
   gradientUnits="userSpaceOnUse">
			<stop
   offset="0"
   style="stop-color:#D6C28A"
   id="stop2" />
			<stop
   offset="1"
   style="stop-color:#8A7C41"
   id="stop4" />
		</radialGradient>
		<path
   style="clip-rule:evenodd;fill:url(#radialGradient984);fill-rule:evenodd"
   d="M 0.8,-4.75 0,-3.3 0.45,-2.6 c 1.033,1.367 2.417,2.2 4.15,2.5 0.867,0.133 1.633,0.15 2.3,0.05 L 3.35,-1.3 C 1.717,-1.9 0.867,-3.05 0.8,-4.75 Z"
   id="path7"
   inkscape:connector-curvature="0" />
	</g>
</symbol>
<symbol
   id="flash0.ai_x5F_5_x2F_Layer_17_x2F__x3C_Path_x3E__x5F_0"
   viewBox="-0.037 -5.54 4.45 5.568"
   transform="translate(105.9462,112.8848)">
	<g
   id="Layer_1_13_">
		<path
   style="clip-rule:evenodd;fill:#ffffff;fill-rule:evenodd"
   d="M 4.25,-0.55 C 4.483,-1.084 4.467,-1.783 4.2,-2.65 3.5,-4.917 2.3,-5.85 0.6,-5.45 -0.133,-5.283 -0.233,-4.467 0.3,-3 c 0.534,1.467 1.367,2.433 2.5,2.9 0.733,0.267 1.217,0.117 1.45,-0.45 z"
   id="path11"
   inkscape:connector-curvature="0" />
	</g>
</symbol>
<symbol
   id="flash0.ai_x5F_5_x2F_Layer_17_x2F__x3C_Path_x3E__x5F_1"
   viewBox="0 -10.17 7.193 10.17"
   transform="translate(105.9462,112.8848)">
	<g
   id="Layer_1_10_">
		
			<radialGradient
   id="SVGID_2_"
   cx="-2920.7041"
   cy="-11474.001"
   r="26.4751"
   gradientTransform="matrix(0.4731,-0.881,-0.881,-0.4731,-8731.2891,-7986.9766)"
   gradientUnits="userSpaceOnUse">
			<stop
   offset="0"
   style="stop-color:#D6C28A"
   id="stop15" />
			<stop
   offset="1"
   style="stop-color:#8A7C41"
   id="stop17" />
		</radialGradient>
		<path
   style="clip-rule:evenodd;fill:url(#radialGradient986);fill-rule:evenodd"
   d="M 5.9,-4 C 7.267,-5.967 7.55,-7.917 6.75,-9.85 5.383,-10.117 4,-10.217 2.6,-10.15 c 1.566,0.467 2.483,1.566 2.75,3.3 0.2,1.3 -0.633,2.833 -2.5,4.6 C 1.917,-1.383 0.967,-0.633 0,0 0.533,0 1.167,-0.167 1.9,-0.5 3.4,-1.167 4.733,-2.333 5.9,-4 Z"
   id="path20"
   inkscape:connector-curvature="0" />
	</g>
</symbol>
<symbol
   id="flash0.ai_x5F_5_x2F_Layer_17_x2F__x3C_Path_x3E__x5F_10"
   viewBox="0.005 -4.038 4.835 4.038"
   transform="translate(105.9462,112.8848)">
	<g
   id="Layer_1_4_">
		
			<radialGradient
   id="SVGID_3_"
   cx="-3301.7686"
   cy="-6658.0254"
   r="24.479099"
   gradientTransform="matrix(0.793,-0.6092,-0.6092,-0.793,-1450.9424,-7290.4756)"
   gradientUnits="userSpaceOnUse">
			<stop
   offset="0"
   style="stop-color:#E0C884"
   id="stop24" />
			<stop
   offset="1"
   style="stop-color:#A89958"
   id="stop26" />
		</radialGradient>
		<path
   style="clip-rule:evenodd;fill:url(#radialGradient988);fill-rule:evenodd"
   d="m 1.5,0 c 1.3,0 2.267,-0.567 2.9,-1.7 0.633,-1.1 0.583,-1.816 -0.15,-2.15 -1.1,-0.5 -2.367,0 -3.8,1.5 C 0.017,-1.85 -0.1,-1.333 0.1,-0.8 0.267,-0.267 0.733,0 1.5,0 Z"
   id="path29"
   inkscape:connector-curvature="0" />
	</g>
</symbol>
<symbol
   id="flash0.ai_x5F_5_x2F_Layer_17_x2F__x3C_Path_x3E__x5F_11"
   viewBox="-0.002 -2.086 2.146 2.098"
   transform="translate(105.9462,112.8848)">
	<g
   id="Layer_1_3_">
		
			<radialGradient
   id="SVGID_4_"
   cx="-3308.6982"
   cy="-6653.2178"
   r="24.4967"
   gradientTransform="matrix(0.793,-0.6093,-0.6093,-0.793,-1445.002,-7281.9507)"
   gradientUnits="userSpaceOnUse">
			<stop
   offset="0"
   style="stop-color:#E0C884"
   id="stop33" />
			<stop
   offset="1"
   style="stop-color:#A89958"
   id="stop35" />
		</radialGradient>
		<path
   style="clip-rule:evenodd;fill:url(#radialGradient990);fill-rule:evenodd"
   d="M 2.05,-0.7 C 2.317,-1.433 2.017,-1.883 1.15,-2.05 0.35,-2.183 -0.033,-1.95 0,-1.35 0,-0.783 0.2,-0.4 0.6,-0.2 1.3,0.2 1.783,0.033 2.05,-0.7 Z"
   id="path38"
   inkscape:connector-curvature="0" />
	</g>
</symbol>
<symbol
   id="flash0.ai_x5F_5_x2F_Layer_17_x2F__x3C_Path_x3E__x5F_12"
   viewBox="-0.023 -3.728 3.329 3.745"
   transform="translate(105.9462,112.8848)">
	<g
   id="Layer_1_2_">
		
			<radialGradient
   id="SVGID_5_"
   cx="-3311.2119"
   cy="-6651.7241"
   r="24.479099"
   gradientTransform="matrix(0.793,-0.6092,-0.6092,-0.793,-1443.2646,-7280.4814)"
   gradientUnits="userSpaceOnUse">
			<stop
   offset="0"
   style="stop-color:#E0C884"
   id="stop42" />
			<stop
   offset="1"
   style="stop-color:#A89958"
   id="stop44" />
		</radialGradient>
		<path
   style="clip-rule:evenodd;fill:url(#radialGradient992);fill-rule:evenodd"
   d="m 3,-1.95 c -0.6,-1.433 -1.317,-2 -2.15,-1.7 -0.8,0.267 -1.05,0.9 -0.75,1.9 C 0.4,-0.717 1.083,-0.133 2.15,0 3.317,0.133 3.6,-0.517 3,-1.95 Z"
   id="path47"
   inkscape:connector-curvature="0" />
	</g>
</symbol>
<symbol
   id="flash0.ai_x5F_5_x2F_Layer_17_x2F__x3C_Path_x3E__x5F_2"
   viewBox="0 -3.15 4.05 3.162"
   transform="translate(105.9462,112.8848)">
	<g
   id="Layer_1_9_">
		
			<radialGradient
   id="SVGID_6_"
   cx="-2912.8633"
   cy="-11465.953"
   r="26.4751"
   gradientTransform="matrix(0.4731,-0.881,-0.881,-0.4731,-8717.1074,-7979.3618)"
   gradientUnits="userSpaceOnUse">
			<stop
   offset="0"
   style="stop-color:#D6C28A"
   id="stop51" />
			<stop
   offset="1"
   style="stop-color:#8A7C41"
   id="stop53" />
		</radialGradient>
		<path
   style="clip-rule:evenodd;fill:url(#radialGradient994);fill-rule:evenodd"
   d="M 2.25,-0.9 C 1.683,-1.2 1.117,-1.95 0.55,-3.15 L 0,-1.45 C 1.033,-0.75 2.017,-0.3 2.95,-0.1 3.417,0 3.783,0.033 4.05,0 Z"
   id="path56"
   inkscape:connector-curvature="0" />
	</g>
</symbol>
<symbol
   id="flash0.ai_x5F_5_x2F_Layer_17_x2F__x3C_Path_x3E__x5F_3"
   viewBox="0 -11.4 8.518 11.4"
   transform="translate(105.9462,112.8848)">
	<g
   id="Layer_1_8_">
		
			<radialGradient
   id="SVGID_7_"
   cx="-2920.1553"
   cy="-11476.679"
   r="26.4751"
   gradientTransform="matrix(0.4731,-0.881,-0.881,-0.4731,-8736.0059,-7989.5103)"
   gradientUnits="userSpaceOnUse">
			<stop
   offset="0"
   style="stop-color:#D6C28A"
   id="stop60" />
			<stop
   offset="1"
   style="stop-color:#8A7C41"
   id="stop62" />
		</radialGradient>
		<path
   style="clip-rule:evenodd;fill:url(#radialGradient996);fill-rule:evenodd"
   d="m 7.05,-4.65 c 1.433,-2.267 1.817,-4.25 1.15,-5.95 -1,-0.367 -1.8,-0.633 -2.4,-0.8 0.7,0.6 1.05,1.333 1.05,2.2 0,0.8 -0.3,1.967 -0.9,3.5 -0.5,1.3 -1.633,2.633 -3.4,4 C 1.65,-1 0.8,-0.433 0,0 c 0.967,-0.433 1.983,-0.933 3.05,-1.5 2.133,-1.2 3.467,-2.25 4,-3.15 z"
   id="path65"
   inkscape:connector-curvature="0" />
	</g>
</symbol>
<symbol
   id="flash0.ai_x5F_5_x2F_Layer_17_x2F__x3C_Path_x3E__x5F_5"
   viewBox="-0.108 -13.67 11.102 13.644"
   transform="translate(105.9462,112.8848)">
	<g
   id="Layer_1_12_">
		<path
   style="clip-rule:evenodd;fill:#ffffff;fill-rule:evenodd"
   d="m 7,-0.15 c 2.033,0.4 3.3,-0.167 3.8,-1.7 0.4,-1.333 0.184,-3.083 -0.65,-5.25 -0.833,-2.1 -1.933,-3.8 -3.3,-5.1 -1.533,-1.4 -2.934,-1.8 -4.2,-1.2 -2.833,1.4 -3.483,3.867 -1.95,7.4 1.5,3.367 3.6,5.317 6.3,5.85 z"
   id="path69"
   inkscape:connector-curvature="0" />
	</g>
</symbol>
<symbol
   id="flash0.ai_x5F_5_x2F_Layer_17_x2F__x3C_Path_x3E__x5F_7"
   viewBox="-0.01 -2.402 2.568 2.418"
   transform="translate(105.9462,112.8848)">
	<g
   id="Layer_1_7_">
		
			<radialGradient
   id="SVGID_8_"
   cx="-3301.543"
   cy="-6648.9619"
   r="24.479099"
   gradientTransform="matrix(0.793,-0.6092,-0.6092,-0.793,-1439.8994,-7276.1006)"
   gradientUnits="userSpaceOnUse">
			<stop
   offset="0"
   style="stop-color:#E0C884"
   id="stop73" />
			<stop
   offset="1"
   style="stop-color:#A89958"
   id="stop75" />
		</radialGradient>
		<path
   style="clip-rule:evenodd;fill:url(#radialGradient998);fill-rule:evenodd"
   d="m 2.5,-1.1 c 0.2,-0.833 -0.117,-1.267 -0.95,-1.3 -0.7,-0.033 -1.167,0.35 -1.4,1.15 -0.267,0.8 -0.2,1.217 0.2,1.25 1.2,0.1 1.917,-0.267 2.15,-1.1 z"
   id="path78"
   inkscape:connector-curvature="0" />
	</g>
</symbol>
<symbol
   id="flash0.ai_x5F_5_x2F_Layer_17_x2F__x3C_Path_x3E__x5F_8"
   viewBox="-0.05 -2.312 2.844 2.343"
   transform="translate(105.9462,112.8848)">
	<g
   id="Layer_1_6_">
		
			<radialGradient
   id="SVGID_9_"
   cx="-3296.7676"
   cy="-6651.9775"
   r="24.479099"
   gradientTransform="matrix(0.793,-0.6092,-0.6092,-0.793,-1443.5742,-7280.8833)"
   gradientUnits="userSpaceOnUse">
			<stop
   offset="0"
   style="stop-color:#E0C884"
   id="stop82" />
			<stop
   offset="1"
   style="stop-color:#A89958"
   id="stop84" />
		</radialGradient>
		<path
   style="clip-rule:evenodd;fill:url(#radialGradient1000);fill-rule:evenodd"
   d="m 1.65,0 c 1.033,-0.2 1.367,-0.667 1,-1.4 -0.367,-0.767 -0.967,-1.05 -1.8,-0.85 -0.8,0.133 -1.067,0.583 -0.8,1.35 0.3,0.733 0.833,1.033 1.6,0.9 z"
   id="path87"
   inkscape:connector-curvature="0" />
	</g>
</symbol>
<symbol
   id="flash0.ai_x5F_5_x2F_Layer_17_x2F__x3C_Path_x3E__x5F_9"
   viewBox="-0.013 -3.677 2.42 3.695"
   transform="translate(105.9462,112.8848)">
	<g
   id="Layer_1_5_">
		
			<radialGradient
   id="SVGID_10_"
   cx="-3308.0127"
   cy="-6659.4175"
   r="24.479099"
   gradientTransform="matrix(0.793,-0.6092,-0.6092,-0.793,-1452.6387,-7292.6836)"
   gradientUnits="userSpaceOnUse">
			<stop
   offset="0"
   style="stop-color:#E0C884"
   id="stop91" />
			<stop
   offset="1"
   style="stop-color:#A89958"
   id="stop93" />
		</radialGradient>
		<path
   style="clip-rule:evenodd;fill:url(#radialGradient1002);fill-rule:evenodd"
   d="M 2.4,-1.85 C 2.467,-3.217 2.067,-3.817 1.2,-3.65 0.467,-3.517 0.067,-2.883 0,-1.75 -0.067,-0.683 0.133,-0.1 0.6,0 1.7,0.133 2.3,-0.483 2.4,-1.85 Z"
   id="path96"
   inkscape:connector-curvature="0" />
	</g>
</symbol>
<linearGradient
   id="SVGID_11_"
   gradientUnits="userSpaceOnUse"
   x1="-13.9839"
   y1="-24.5898"
   x2="7.2484002"
   y2="-24.5898"
   gradientTransform="matrix(-0.3956,0.9184,-0.9184,-0.3956,-3.886819e-4,3.64542e-4)">
	<stop
   offset="0"
   style="stop-color:#779E39"
   id="stop100" />
	<stop
   offset="0.8039"
   style="stop-color:#608A25"
   id="stop102" />
	<stop
   offset="1"
   style="stop-color:#59851F"
   id="stop104" />
</linearGradient>


<linearGradient
   id="SVGID_12_"
   gradientUnits="userSpaceOnUse"
   x1="-37.678699"
   y1="-26.558599"
   x2="-9.9289999"
   y2="-26.558599"
   gradientTransform="matrix(-0.8676,0.4973,-0.4973,-0.8676,-8.269548e-4,4.15504e-4)">
	<stop
   offset="0"
   style="stop-color:#779E39"
   id="stop111" />
	<stop
   offset="0.8039"
   style="stop-color:#608A25"
   id="stop113" />
	<stop
   offset="1"
   style="stop-color:#59851F"
   id="stop115" />
</linearGradient>




<radialGradient
   id="SVGID_13_"
   cx="17.3701"
   cy="10.7646"
   r="27.280899"
   gradientTransform="matrix(0.7514,0.6598,0.6598,-0.7514,-14.205,16.1778)"
   gradientUnits="userSpaceOnUse">
	<stop
   offset="0"
   style="stop-color:#F07DC2"
   id="stop126" />
	<stop
   offset="1"
   style="stop-color:#662B3D"
   id="stop128" />
</radialGradient>







<radialGradient
   id="SVGID_14_"
   cx="20.4736"
   cy="-1.5933"
   r="24.5931"
   gradientTransform="matrix(0.4026,0.9154,0.9154,-0.4026,2.9169,-1.2829)"
   gradientUnits="userSpaceOnUse">
	<stop
   offset="0"
   style="stop-color:#F0DA9E"
   id="stop145" />
	<stop
   offset="1"
   style="stop-color:#9C8E51"
   id="stop147" />
</radialGradient>







<g
   id="g942"
   transform="matrix(5.7985816,0,0,5.7985816,0.11957643,6.0256611)"><path
     id="path107"
     d="M 26.35,5.95 26.1,6.5 26.75,5.85 c 0.433,-0.333 0.717,-0.2 0.85,0.4 0.133,0.567 -0.2,1.1 -1,1.6 -0.9,0.567 -1.383,0.95 -1.45,1.15 -0.2,0.567 -0.4,1.017 -0.6,1.35 l 0.4,-0.55 c 0.333,-0.367 0.6,-0.466 0.8,-0.3 0.233,0.133 0.233,0.367 0,0.7 -0.4,0.466 -0.717,0.85 -0.95,1.15 -1.3,1.5 -2.05,2.45 -2.25,2.85 l -0.2,0.6 0.55,-0.35 c 0.367,-0.167 0.55,-0.067 0.55,0.3 0,0.267 -0.5,0.733 -1.5,1.4 -1.133,0.733 -1.817,1.4 -2.05,2 -0.3,0.7 -0.633,1.033 -1,1 L 18.45,18.9 c 0.633,-0.533 1.25,-1.367 1.85,-2.5 0.6,-1.167 0.784,-1.917 0.55,-2.25 -0.2,-0.367 -0.2,-0.75 0,-1.15 0.233,-0.4 0.533,-0.583 0.9,-0.55 l 0.7,0.1 c -0.267,-1.3 -0.667,-2.133 -1.2,-2.5 C 20.883,9.817 20.85,9.433 21.15,8.9 21.45,8.4 21.733,8.217 22,8.35 l 0.5,0.2 C 22.5,8.183 22.45,7.834 22.35,7.5 22.117,6.767 21.7,6.4 21.1,6.4 20.433,6.433 20.283,6.167 20.65,5.6 21.017,5.033 21.433,4.85 21.9,5.05 l 0.85,0.5 c -0.233,-0.6 -0.417,-1.2 -0.55,-1.8 -0.233,-1.167 -0.034,-1.767 0.6,-1.8 1,0 1.534,0.216 1.6,0.65 l 0.75,-1.7 c 0.567,-1 1.117,-1.183 1.65,-0.55 0.534,0.633 0.784,1.183 0.75,1.65 0,0.2 -0.066,0.35 -0.2,0.45 1.467,-0.534 2.05,-0.367 1.75,0.5 -0.167,0.467 -0.65,1.05 -1.45,1.75 -0.8,0.7 -1.233,1.117 -1.3,1.25 z"
     style="clip-rule:evenodd;fill:url(#SVGID_11_);fill-rule:evenodd"
     inkscape:connector-curvature="0" /><path
     id="path109"
     d="m 27.85,3.3 c -1.533,1.034 -2.5,1.817 -2.9,2.35 -0.6,0.8 -0.733,1.517 -0.4,2.15 0.133,0.2 0.267,0.267 0.4,0.2 0.133,-0.033 0.367,-0.217 0.7,-0.55 0.4,-0.434 0.783,-0.75 1.15,-0.95 -0.233,0.233 -0.5,0.483 -0.8,0.75 -0.567,0.567 -0.933,1 -1.1,1.3 -0.633,1.067 -0.967,1.8 -1,2.2 0,0.233 0.05,0.333 0.15,0.3 0.067,-0.033 0.217,-0.183 0.45,-0.45 0.2,-0.233 0.4,-0.4 0.6,-0.5 -0.633,0.667 -1.083,1.217 -1.35,1.65 L 23.1,13.4 c -0.2,0.3 -0.417,0.65 -0.65,1.05 -0.434,0.767 -0.667,1.35 -0.7,1.75 -0.033,0.433 -0.167,0.583 -0.4,0.45 -0.233,-0.1 -0.367,-0.267 -0.4,-0.5 l -0.5,-1.3 c 0.2,-0.167 0.316,-0.417 0.35,-0.75 0,-0.333 0,-0.55 0,-0.65 l 0.2,-0.25 0.15,0.25 c 0.133,0.133 0.3,0.15 0.5,0.05 0.434,-0.233 0.684,-0.367 0.75,-0.4 0.3,-0.233 0.434,-0.55 0.4,-0.95 -0.066,-1 -0.35,-1.85 -0.85,-2.55 L 21.6,9.2 21.9,9.4 c 0.267,0.167 0.467,0.367 0.6,0.6 l 0.65,1 C 23.383,10.133 23.533,9.45 23.6,8.95 23.7,8.283 23.416,7.583 22.75,6.85 L 22.1,6.2 23.15,6.85 c 0.3,0.233 0.533,0.55 0.7,0.95 L 24.2,6.25 C 24.067,5.45 23.883,4.817 23.65,4.35 L 23,3.15 l 0.65,0.8 0.75,1.45 0.55,-2 c 0.233,-0.867 0.633,-1.617 1.2,-2.25 -0.6,1.033 -0.917,1.8 -0.95,2.3 l -0.45,1.9 0.7,-0.65 C 26.016,4.233 26.5,3.916 26.9,3.75 Z"
     style="clip-rule:evenodd;fill:#547a20;fill-rule:evenodd"
     inkscape:connector-curvature="0" /><path
     id="path118"
     d="m 40.7,3.95 c 1.333,-0.8 2.3,-0.9 2.9,-0.3 0.433,0.434 0.6,1.05 0.5,1.85 -0.067,0.8 -1.617,1.6 -4.65,2.4 l 1.15,0.35 c 0.566,0.2 0.767,0.633 0.6,1.3 -0.2,0.667 -0.567,0.967 -1.1,0.9 -0.434,-0.034 -0.95,0.033 -1.55,0.2 l -0.75,0.25 0.5,0.85 c 0.233,0.4 0.034,0.683 -0.6,0.85 -0.633,0.167 -1.034,0.066 -1.2,-0.3 -0.167,-0.267 -0.617,-0.466 -1.35,-0.6 l -1.1,-0.15 c 0.333,0.3 0.133,0.65 -0.6,1.05 -0.467,0.233 -1.15,0.417 -2.05,0.55 l -1.15,0.15 c -0.133,0.333 -0.367,0.717 -0.7,1.15 -0.233,0.267 -0.683,0.3 -1.35,0.1 l -0.95,-0.4 -0.95,0.9 c -0.267,0.267 -0.65,0.317 -1.15,0.15 -0.6,-0.2 -1.3,-0.017 -2.1,0.55 -1.033,0.733 -2,1.8 -2.9,3.2 -0.833,1.3 -1.45,2.617 -1.85,3.95 0.067,3.933 -0.033,4.284 -0.3,1.05 -0.167,-2.133 0.9,-4.767 3.2,-7.9 1.966,-2.733 3.316,-4.167 4.05,-4.3 0.6,-0.1 0.9,-0.033 0.9,0.2 0.167,-0.467 0.35,-0.95 0.55,-1.45 0.466,-1.033 0.883,-1.667 1.25,-1.9 0.6,-0.333 1.017,0.3 1.25,1.9 l 0.6,-1.3 c 0.534,-0.967 1.167,-1.75 1.9,-2.35 0.733,-0.567 1.283,-0.65 1.65,-0.25 0.167,0.233 0.267,0.5 0.3,0.8 l 1.4,-1.45 c 1.067,-0.967 1.883,-1.467 2.45,-1.5 0.933,-0.034 0.833,0.7 -0.3,2.2 l 0.65,-0.7 c 0.667,-0.633 1.617,-1.3 2.85,-2 z"
     style="clip-rule:evenodd;fill:url(#SVGID_12_);fill-rule:evenodd"
     inkscape:connector-curvature="0" /><path
     id="path120"
     d="m 34.95,8.45 c -0.067,0.2 -0.1,0.383 -0.1,0.55 l 0.8,-0.3 c 0.2,-0.067 1.167,-0.684 2.9,-1.85 0.567,-0.4 1.7,-0.95 3.4,-1.65 L 39.8,6.25 c -0.867,0.433 -1.617,0.933 -2.25,1.5 l -0.7,0.7 2.05,0.3 C 39.4,8.817 39.767,8.983 40,9.25 39.133,8.983 38.183,8.817 37.15,8.75 36.517,8.683 35.8,8.867 35,9.3 l -1,0.65 1.75,0.65 c 0.367,0.2 0.783,0.6 1.25,1.2 -1.067,-0.9 -1.983,-1.417 -2.75,-1.55 -0.467,-0.067 -1.3,0.15 -2.5,0.65 l -1.65,0.8 2.05,0.1 1.3,0.3 -2.25,-0.15 c -0.667,-0.034 -1.4,0.1 -2.2,0.4 l -1,0.5 0.35,0.25 0.75,0.8 c -0.367,-0.233 -0.833,-0.467 -1.4,-0.7 -0.367,-0.133 -0.833,-0.083 -1.4,0.15 l -0.75,0.45 0.3,0.35 c 0.1,0.1 0.167,0.283 0.2,0.55 l -0.4,-0.4 C 25.25,14 24.7,14.084 24,14.55 c -0.333,0.267 -0.467,0.467 -0.4,0.6 0.033,0.067 0.1,0.1 0.2,0.1 l -0.85,0.55 -0.6,0.75 -0.65,-0.75 c 0.233,-0.066 0.733,-0.6 1.5,-1.6 0.733,-1 1.5,-1.6 2.3,-1.8 l -0.8,0.6 -1.15,1.1 1.25,-0.65 c 0.267,-0.167 0.983,-0.467 2.15,-0.9 0.1,-0.1 0.2,-0.35 0.3,-0.75 l 0.65,-1.45 -0.45,1.95 2.65,-1.1 c 0.033,0.167 0.217,-0.184 0.55,-1.05 0.333,-0.867 0.783,-1.683 1.35,-2.45 -0.033,0.133 -0.233,0.5 -0.6,1.1 -0.233,0.367 -0.383,0.8 -0.45,1.3 -0.034,0.267 -0.05,0.5 -0.05,0.7 l 1.35,-0.55 c 0.4,-0.233 1,-0.517 1.8,-0.85 l 0.5,-1.1 C 34.75,7.933 35.133,7.433 35.7,6.8 36,6.5 36.283,6.217 36.55,5.95 l -1.05,1.3 c -0.233,0.333 -0.417,0.733 -0.55,1.2 z"
     style="clip-rule:evenodd;fill:#547a20;fill-rule:evenodd"
     inkscape:connector-curvature="0" /><path
     id="path122"
     d="M 33.65,9.4 37.9,7.5 34.35,9.4 c -1.167,0.6 -2.483,1.233 -3.95,1.9 -2.033,0.867 -3.45,1.483 -4.25,1.85 -1.4,0.633 -2.367,1.184 -2.9,1.65 -0.433,0.434 -0.817,0.767 -1.15,1 -0.434,0.7 -0.567,0.7 -0.4,0 0.233,-1.066 1.566,-2.033 4,-2.9 1.567,-0.5 4.217,-1.667 7.95,-3.5 z"
     style="clip-rule:evenodd;fill:#a3b33f;fill-rule:evenodd"
     inkscape:connector-curvature="0" /><path
     id="path124"
     d="m 19.65,16.05 c 0.4,-0.433 1.05,-1.1 1.95,-2 0.733,-0.966 1.267,-2.283 1.6,-3.95 0.5,-2.567 1.05,-4.633 1.65,-6.2 -0.533,1.967 -0.867,3.55 -1,4.75 -0.5,3.633 -1.467,6 -2.9,7.1 -0.8,0.667 -1.267,0.917 -1.4,0.75 z"
     style="clip-rule:evenodd;fill:#a3b33f;fill-rule:evenodd"
     inkscape:connector-curvature="0" /><path
     id="path131"
     d="m 12.1,12.2 c 4.733,-1.034 9.233,0.4 13.5,4.3 4.367,4 5.983,8.45 4.85,13.35 -1.133,4.867 -3.65,8.317 -7.55,10.351 -2.667,1.434 -5.633,2.05 -8.9,1.85 -2.6,-0.166 -4.633,-0.684 -6.1,-1.55 -1.833,-1.1 -3.617,-3.1 -5.35,-6 -2.767,-4.667 -3.3,-9.184 -1.6,-13.55 C 2.683,16.383 6.4,13.467 12.1,12.2 Z"
     style="clip-rule:evenodd;fill:url(#SVGID_13_);fill-rule:evenodd"
     inkscape:connector-curvature="0" /><use
     id="use133"
     style="overflow:visible;opacity:0.12890003;enable-background:new"
     transform="matrix(1,0,0,-1,-81.346101,143.0352)"
     y="-3.7279999"
     x="-0.023"
     height="3.7449999"
     width="3.329"
     xlink:href="#flash0.ai_x5F_5_x2F_Layer_17_x2F__x3C_Path_x3E__x5F_12" /><use
     id="use135"
     style="overflow:visible;opacity:0.33980001;enable-background:new"
     transform="matrix(1,0,0,-1,-83.196201,141.1348)"
     y="-2.086"
     x="-0.0020000001"
     height="2.098"
     width="2.1459999"
     xlink:href="#flash0.ai_x5F_5_x2F_Layer_17_x2F__x3C_Path_x3E__x5F_11" /><use
     id="use137"
     style="overflow:visible;opacity:0.28130002;enable-background:new"
     transform="matrix(1,0,0,-1,-84.996001,132.335)"
     y="-4.0380001"
     x="0.0049999999"
     height="4.0380001"
     width="4.835"
     xlink:href="#flash0.ai_x5F_5_x2F_Layer_17_x2F__x3C_Path_x3E__x5F_10" /><use
     id="use139"
     style="overflow:visible;opacity:0.26950001;enable-background:new"
     transform="matrix(1,0,0,-1,-79.196201,134.9849)"
     y="-3.677"
     x="-0.013"
     height="3.6949999"
     width="2.4200001"
     xlink:href="#flash0.ai_x5F_5_x2F_Layer_17_x2F__x3C_Path_x3E__x5F_9" /><use
     id="use141"
     style="overflow:visible;opacity:0.55860003;enable-background:new"
     transform="matrix(1,0,0,-1,-92.646401,134.085)"
     y="-2.312"
     x="-0.050000001"
     height="2.3429999"
     width="2.8440001"
     xlink:href="#flash0.ai_x5F_5_x2F_Layer_17_x2F__x3C_Path_x3E__x5F_8" /><use
     id="use143"
     style="overflow:visible;opacity:0.55860003;enable-background:new"
     transform="matrix(1,0,0,-1,-90.696201,139.335)"
     y="-2.402"
     x="-0.0099999998"
     height="2.418"
     width="2.5680001"
     xlink:href="#flash0.ai_x5F_5_x2F_Layer_17_x2F__x3C_Path_x3E__x5F_7" /><path
     id="path150"
     d="m 10.9,25.35 c 1.367,0.2 2.3,0.733 2.8,1.601 0.966,1.633 1.5,2.5 1.6,2.6 0.5,0.5 1.284,0.601 2.35,0.3 1.2,-0.333 2.417,-0.05 3.65,0.851 1.233,0.899 1.7,1.866 1.4,2.899 -0.567,1.9 -0.85,2.884 -0.85,2.95 0.033,0.5 0.65,0.733 1.85,0.7 0.733,-0.033 1.133,0.184 1.2,0.65 0.067,0.433 -0.183,0.966 -0.75,1.6 -2.9,1.934 -6.283,2.783 -10.15,2.55 -2.6,-0.166 -4.633,-0.684 -6.1,-1.55 -1.833,-1.1 -3.617,-3.1 -5.35,-6 -1.6,-2.767 -2.433,-5.583 -2.5,-8.45 0.5,-0.833 1.067,-1.25 1.7,-1.25 0.6,0.033 1.033,0.467 1.3,1.3 0.367,1.233 0.983,1.834 1.85,1.801 0.833,-0.034 1.7,-0.551 2.6,-1.551 0.867,-0.901 2,-1.235 3.4,-1.001 z"
     style="clip-rule:evenodd;fill:url(#SVGID_14_);fill-rule:evenodd"
     inkscape:connector-curvature="0" /><g
     id="g160">
	
		<use
   x="0"
   id="use152"
   style="overflow:visible;opacity:0.58980001;enable-background:new"
   transform="matrix(1,0,0,-1,-92.296301,143.0352)"
   y="-11.4"
   height="11.4"
   width="8.5179996"
   xlink:href="#flash0.ai_x5F_5_x2F_Layer_17_x2F__x3C_Path_x3E__x5F_3" />
	
		<use
   x="0"
   id="use154"
   style="overflow:visible;opacity:0.53130002;enable-background:new"
   transform="matrix(1,0,0,-1,-105.1962,141.6846)"
   y="-3.1500001"
   height="3.1619999"
   width="4.0500002"
   xlink:href="#flash0.ai_x5F_5_x2F_Layer_17_x2F__x3C_Path_x3E__x5F_2" />
	
		<use
   x="0"
   id="use156"
   style="overflow:visible;opacity:0.71089998;enable-background:new"
   transform="matrix(1,0,0,-1,-94.396401,144.7852)"
   y="-10.17"
   height="10.17"
   width="7.1929998"
   xlink:href="#flash0.ai_x5F_5_x2F_Layer_17_x2F__x3C_Path_x3E__x5F_1" />
	
		<use
   x="0"
   id="use158"
   style="overflow:visible;opacity:0.48830004;enable-background:new"
   transform="matrix(1,0,0,-1,-103.8461,143.2344)"
   y="-4.75"
   height="4.7639999"
   width="6.9000001"
   xlink:href="#flash0.ai_x5F_5_x2F_Layer_17_x2F__x3C_Path_x3E_" />
</g><use
     id="use162"
     style="overflow:visible;opacity:0.14839998;enable-background:new"
     transform="matrix(1,0,0,-1,-104.2963,127.335)"
     y="-13.67"
     x="-0.108"
     height="13.644"
     width="11.102"
     xlink:href="#flash0.ai_x5F_5_x2F_Layer_17_x2F__x3C_Path_x3E__x5F_5" /><path
     id="path164"
     d="m 7.95,35.6 1.5,0.5 -0.6,-0.149 C 8.483,35.85 7.983,35.866 7.35,36 6.65,36.167 6.2,36.417 6,36.75 c -0.4,0.634 0.117,1.5 1.55,2.6 0.833,0.667 1.883,1.25 3.15,1.75 L 10.2,41.05 C 9.766,41.017 9.067,40.717 8.1,40.151 c -1.233,-0.7 -2.05,-1.434 -2.45,-2.2 -0.433,-0.834 -0.333,-1.5 0.3,-2 0.567,-0.468 1.233,-0.585 2,-0.351 z"
     style="clip-rule:evenodd;fill:#8f824d;fill-rule:evenodd"
     inkscape:connector-curvature="0" /><path
     id="path166"
     d="m 10.4,36.6 0.9,0.25 c 0.7,0.2 1.25,0.45 1.65,0.75 0.966,0.767 1.283,1.517 0.95,2.25 -0.267,0.567 -0.95,0.834 -2.05,0.801 1.233,-0.034 1.717,-0.5 1.45,-1.4 -0.233,-0.8 -0.783,-1.483 -1.65,-2.05 z"
     style="clip-rule:evenodd;fill:#8f824d;fill-rule:evenodd"
     inkscape:connector-curvature="0" /><path
     id="path168"
     d="m 9.05,37.35 c 1.2,0.167 1.967,0.534 2.3,1.101 0.566,1 0.25,1.566 -0.95,1.7 C 9.667,40.217 8.95,39.984 8.25,39.451 7.617,38.984 7.267,38.567 7.2,38.201 7.133,37.867 7.233,37.617 7.5,37.451 7.833,37.283 8.35,37.25 9.05,37.35 Z"
     style="clip-rule:evenodd;fill:#8f824d;fill-rule:evenodd"
     inkscape:connector-curvature="0" /><path
     id="path170"
     d="m 8.9,37.75 c 0.8,0.1 1.367,0.35 1.7,0.75 0.267,0.333 0.3,0.583 0.1,0.75 -0.3,0.3 -0.733,0.4 -1.3,0.3 C 8.867,39.45 8.467,39.217 8.2,38.85 7.933,38.483 7.9,38.2 8.1,38 8.267,37.8 8.533,37.717 8.9,37.75 Z"
     style="clip-rule:evenodd;fill:#c9b570;fill-rule:evenodd"
     inkscape:connector-curvature="0" /><use
     id="use172"
     style="overflow:visible;opacity:0.25;enable-background:new"
     transform="matrix(1,0,0,-1,-102.5463,130.2349)"
     y="-5.54"
     x="-0.037"
     height="5.5679998"
     width="4.4499998"
     xlink:href="#flash0.ai_x5F_5_x2F_Layer_17_x2F__x3C_Path_x3E__x5F_0" /></g>
</svg>