<?xml version="1.0" encoding="UTF-8" standalone="no"?>
<!-- Generator: Adobe Illustrator 15.1.0, SVG Export Plug-In . SVG Version: 6.00 Build 0)  -->

<svg
   xmlns:dc="http://purl.org/dc/elements/1.1/"
   xmlns:cc="http://creativecommons.org/ns#"
   xmlns:rdf="http://www.w3.org/1999/02/22-rdf-syntax-ns#"
   xmlns:svg="http://www.w3.org/2000/svg"
   xmlns="http://www.w3.org/2000/svg"
   xmlns:xlink="http://www.w3.org/1999/xlink"
   xmlns:sodipodi="http://sodipodi.sourceforge.net/DTD/sodipodi-0.dtd"
   xmlns:inkscape="http://www.inkscape.org/namespaces/inkscape"
   version="1.1"
   id="flash0.ai"
   x="0px"
   y="0px"
   width="256"
   height="256"
   viewBox="0 0 256.00002 256.00001"
   xml:space="preserve"
   sodipodi:docname="vegetables_and_dip.svg"
   inkscape:version="0.92.4 (5da689c313, 2019-01-14)"
   inkscape:export-filename="C:\Users\antum\Development\game-resources\icon\CC0\food\individual\Glitch\32x32\vegetable\vegetables_and_dip.png"
   inkscape:export-xdpi="10.5"
   inkscape:export-ydpi="10.5"><title
   id="title1065">Vegetables and Dip</title><metadata
   id="metadata258"><rdf:RDF><cc:Work
       rdf:about=""><dc:format>image/svg+xml</dc:format><dc:type
         rdf:resource="http://purl.org/dc/dcmitype/StillImage" /><dc:title>Vegetables and Dip</dc:title><cc:license
         rdf:resource="http://creativecommons.org/publicdomain/zero/1.0/" /><dc:creator><cc:Agent><dc:title>Glitch</dc:title></cc:Agent></dc:creator><dc:source>https://opengameart.org/node/20149</dc:source></cc:Work><cc:License
       rdf:about="http://creativecommons.org/publicdomain/zero/1.0/"><cc:permits
         rdf:resource="http://creativecommons.org/ns#Reproduction" /><cc:permits
         rdf:resource="http://creativecommons.org/ns#Distribution" /><cc:permits
         rdf:resource="http://creativecommons.org/ns#DerivativeWorks" /></cc:License></rdf:RDF></metadata><defs
   id="defs256" /><sodipodi:namedview
   pagecolor="#ffffff"
   bordercolor="#666666"
   borderopacity="1"
   objecttolerance="10"
   gridtolerance="10"
   guidetolerance="10"
   inkscape:pageopacity="0"
   inkscape:pageshadow="2"
   inkscape:window-width="1920"
   inkscape:window-height="1025"
   id="namedview254"
   showgrid="false"
   inkscape:zoom="0.88257295"
   inkscape:cx="-212.072"
   inkscape:cy="93.727573"
   inkscape:window-x="-8"
   inkscape:window-y="-8"
   inkscape:window-maximized="1"
   inkscape:current-layer="flash0.ai"
   fit-margin-top="0"
   fit-margin-left="0"
   fit-margin-right="0"
   fit-margin-bottom="0" />
<symbol
   id="flash0.ai_x5F_1_x2F_Layer_8_copy_x2F__x3C_Path_x3E__x5F_1"
   viewBox="0 -26.585 24.9 26.585"
   transform="translate(57.793487,84.430202)">
	<g
   id="Layer_1_3_">
		<path
   style="clip-rule:evenodd;fill:#ffffff;fill-rule:evenodd"
   d="M 1.1,0 C 1,-0.3 1.117,-0.617 1.45,-0.95 c 0.667,-0.667 2.117,-1.066 4.35,-1.2 1.8,-0.1 4.267,-0.267 7.4,-0.5 2.466,-0.1 4.35,0.033 5.65,0.4 2.066,0.567 4.083,1.283 6.05,2.15 l -4.15,-24.75 c -0.767,-0.333 -1.717,-0.65 -2.85,-0.95 -2.267,-0.633 -4.333,-0.883 -6.2,-0.75 -2.967,0.2 -5.25,0.75 -6.85,1.65 L 0,-0.15 Z"
   id="path2"
   inkscape:connector-curvature="0" />
	</g>
</symbol>
<symbol
   id="flash0.ai_x5F_1_x2F_Layer_8_copy_x2F__x3C_Path_x3E__x5F_80"
   viewBox="0 -32.8 26.3 32.8"
   transform="translate(57.793487,84.430202)">
	<g
   id="Layer_1_2_">
		<path
   style="clip-rule:evenodd;fill:#ccf6ff;fill-rule:evenodd"
   d="m 26.25,-3.7 h 0.05 l -4.75,-26.45 v -0.1 c 0,-0.7 -0.816,-1.3 -2.45,-1.8 -1.634,-0.5 -3.617,-0.75 -5.95,-0.75 -2.333,0 -4.316,0.25 -5.95,0.75 -1.634,0.5 -2.45,1.1 -2.45,1.8 v 0.1 L 0.05,-4 0,-3.8 v 0.1 c 0.1,1.034 1.417,1.9 3.95,2.6 2.567,0.733 5.633,1.1 9.2,1.1 3.567,0 6.633,-0.367 9.2,-1.1 2.533,-0.7 3.833,-1.567 3.9,-2.6 z"
   id="path6"
   inkscape:connector-curvature="0" />
	</g>
</symbol>
<g
   id="g251"
   transform="matrix(5.500692,0,0,5.500692,-48.510708,-111.66404)">
	
		<use
   xlink:href="#flash0.ai_x5F_1_x2F_Layer_8_copy_x2F__x3C_Path_x3E__x5F_80"
   width="26.299999"
   height="32.799999"
   y="-32.799999"
   transform="matrix(0.8,0,0,-0.8,-22.48479,108.14376)"
   style="overflow:visible;opacity:0.44920002;enable-background:new"
   id="use10"
   x="0" />
	<path
   style="clip-rule:evenodd;fill:#ccf6ff;fill-rule:evenodd"
   d="m 26.27,41.659 h 0.041 l 0.64,-0.199 0.08,-0.041 5.16,-0.76 c 0.134,-0.026 0.347,-0.04 0.641,-0.04 h 2.92 c 0.293,0 0.506,0.014 0.64,0.04 l 4.399,0.601 h 0.121 l 0.68,0.2 h 0.08 l 0.64,0.199 c 1.493,0.507 2.319,1.107 2.479,1.801 h -1.64 c 0,-0.614 -0.853,-1.134 -2.56,-1.561 -1.707,-0.427 -3.76,-0.64 -6.16,-0.64 -2.399,0 -4.453,0.213 -6.16,0.64 -1.707,0.427 -2.56,0.946 -2.56,1.561 h -1.88 c 0.132,-0.693 0.945,-1.294 2.439,-1.801 z"
   id="path12"
   inkscape:connector-curvature="0" />
	
		<linearGradient
   id="SVGID_1_"
   gradientUnits="userSpaceOnUse"
   x1="12.9502"
   y1="48.474602"
   x2="33.149399"
   y2="48.474602"
   gradientTransform="matrix(0.8,0,0,0.8,15.75,20.2999)">
		<stop
   offset="0"
   style="stop-color:#E8E2AC"
   id="stop14" />
		<stop
   offset="0.149"
   style="stop-color:#E8E4B9"
   id="stop16" />
		<stop
   offset="0.298"
   style="stop-color:#E8E5C1"
   id="stop18" />
		<stop
   offset="1"
   style="stop-color:#CFC784"
   id="stop20" />
	</linearGradient>
	<path
   style="clip-rule:evenodd;fill:url(#SVGID_1_);fill-rule:evenodd"
   d="m 26.11,53.779 16.16,0.08 -1.92,8.561 v 0.079 c 0,0.534 -0.6,0.974 -1.8,1.32 -1.2,0.373 -2.653,0.56 -4.36,0.56 -1.706,0 -3.16,-0.187 -4.359,-0.56 -1.2,-0.347 -1.8,-0.786 -1.8,-1.32 V 62.42 Z"
   id="path23"
   inkscape:connector-curvature="0" />
	<path
   style="clip-rule:evenodd;fill:#bab573;fill-rule:evenodd"
   d="m 40.789,57.179 c 0.027,0.16 -0.013,0.547 -0.119,1.16 -0.054,0.374 -0.214,0.44 -0.48,0.2 -0.267,-0.213 -0.32,-0.533 -0.16,-0.96 0.16,-0.4 0.307,-0.627 0.44,-0.68 0.16,-0.053 0.266,0.04 0.319,0.28 z"
   id="path25"
   inkscape:connector-curvature="0" />
	<path
   style="clip-rule:evenodd;fill:#bab573;fill-rule:evenodd"
   d="m 39.789,59.739 c 0.24,-0.16 0.428,-0.147 0.561,0.04 l 0.04,1.04 c -0.054,0.214 -0.227,0.267 -0.521,0.159 -0.293,-0.133 -0.439,-0.332 -0.439,-0.6 0,-0.266 0.12,-0.479 0.359,-0.639 z"
   id="path27"
   inkscape:connector-curvature="0" />
	<path
   style="clip-rule:evenodd;fill:#bab573;fill-rule:evenodd"
   d="m 38.91,58.819 c 0.106,0.347 0.053,0.68 -0.16,1 -0.188,0.293 -0.334,0.253 -0.44,-0.12 -0.08,-0.347 -0.026,-0.64 0.16,-0.88 0.213,-0.24 0.36,-0.24 0.44,0 z"
   id="path29"
   inkscape:connector-curvature="0" />
	<path
   style="clip-rule:evenodd;fill:#bab573;fill-rule:evenodd"
   d="m 39.59,60.499 c 0.267,0.427 0.307,0.787 0.12,1.08 -0.187,0.294 -0.4,0.307 -0.641,0.04 -0.213,-0.187 -0.2,-0.453 0.04,-0.8 0.241,-0.373 0.401,-0.48 0.481,-0.32 z"
   id="path31"
   inkscape:connector-curvature="0" />
	<path
   style="clip-rule:evenodd;fill:#bab573;fill-rule:evenodd"
   d="m 38.109,59.26 c 0.027,0.293 0,0.479 -0.08,0.56 -0.08,0.106 -0.199,0.054 -0.359,-0.16 -0.16,-0.213 -0.12,-0.387 0.119,-0.521 0.214,-0.133 0.32,-0.093 0.32,0.121 z"
   id="path33"
   inkscape:connector-curvature="0" />
	<path
   style="clip-rule:evenodd;fill:#bab573;fill-rule:evenodd"
   d="m 36.949,61.659 c 0.374,0.24 0.467,0.467 0.28,0.68 -0.16,0.214 -0.427,0.294 -0.8,0.24 -0.32,-0.054 -0.373,-0.253 -0.16,-0.601 0.241,-0.345 0.467,-0.453 0.68,-0.319 z"
   id="path35"
   inkscape:connector-curvature="0" />
	<path
   style="clip-rule:evenodd;fill:#bab573;fill-rule:evenodd"
   d="m 38.39,62.659 c 0.214,0 0.32,0.12 0.32,0.36 -0.027,0.213 -0.16,0.319 -0.4,0.319 -0.24,0 -0.333,-0.106 -0.28,-0.319 0.027,-0.24 0.146,-0.36 0.36,-0.36 z"
   id="path37"
   inkscape:connector-curvature="0" />
	<path
   style="clip-rule:evenodd;fill:#bab573;fill-rule:evenodd"
   d="m 39.989,58.459 c 0.08,0.533 0.04,0.827 -0.12,0.88 -0.187,0.081 -0.279,-0.013 -0.279,-0.279 0,-0.187 0.066,-0.36 0.199,-0.521 0.134,-0.16 0.2,-0.186 0.2,-0.08 z"
   id="path39"
   inkscape:connector-curvature="0" />
	<path
   style="clip-rule:evenodd;fill:#bab573;fill-rule:evenodd"
   d="m 39.189,58.339 c 0.293,0.268 0.347,0.453 0.16,0.561 -0.187,0.106 -0.373,0.093 -0.561,-0.04 -0.159,-0.107 -0.159,-0.24 0,-0.4 0.161,-0.188 0.295,-0.228 0.401,-0.121 z"
   id="path41"
   inkscape:connector-curvature="0" />
	<path
   style="clip-rule:evenodd;fill:#bab573;fill-rule:evenodd"
   d="m 35.869,60.379 c 0.4,0.08 0.48,0.268 0.24,0.561 -0.267,0.293 -0.506,0.373 -0.72,0.239 -0.187,-0.106 -0.2,-0.279 -0.04,-0.52 0.133,-0.239 0.307,-0.333 0.52,-0.28 z"
   id="path43"
   inkscape:connector-curvature="0" />
	<path
   style="clip-rule:evenodd;fill:#bab573;fill-rule:evenodd"
   d="m 30.71,58.499 c 0.187,0.187 0.2,0.413 0.04,0.68 -0.16,0.241 -0.347,0.294 -0.561,0.16 -0.213,-0.16 -0.227,-0.373 -0.04,-0.64 0.214,-0.293 0.401,-0.36 0.561,-0.2 z"
   id="path45"
   inkscape:connector-curvature="0" />
	<path
   style="clip-rule:evenodd;fill:#bab573;fill-rule:evenodd"
   d="m 31.03,62.42 c 0.56,0.079 0.773,0.332 0.64,0.759 -0.053,0.16 -0.16,0.228 -0.32,0.2 -0.187,-0.026 -0.387,-0.146 -0.6,-0.359 -0.213,-0.213 -0.267,-0.373 -0.16,-0.48 0.08,-0.134 0.226,-0.175 0.44,-0.12 z"
   id="path47"
   inkscape:connector-curvature="0" />
	<path
   style="clip-rule:evenodd;fill:#ffffff;fill-rule:evenodd"
   d="m 42.229,53.979 c 0,0.508 -0.787,0.934 -2.36,1.281 -1.573,0.347 -3.466,0.52 -5.68,0.52 -2.24,0 -4.146,-0.173 -5.72,-0.52 -1.573,-0.348 -2.36,-0.773 -2.36,-1.281 0,-0.506 0.787,-0.933 2.36,-1.279 1.573,-0.346 3.48,-0.521 5.72,-0.521 2.214,0 4.106,0.174 5.68,0.521 1.574,0.347 2.36,0.773 2.36,1.279 z"
   id="path49"
   inkscape:connector-curvature="0" />
	
		<linearGradient
   id="SVGID_2_"
   gradientUnits="userSpaceOnUse"
   x1="-16.571301"
   y1="-47.126499"
   x2="-6.2536998"
   y2="-47.126499"
   gradientTransform="matrix(-0.756,0.2617,-0.2617,-0.756,15.7516,20.2991)">
		<stop
   offset="0"
   style="stop-color:#E8E5C1"
   id="stop51" />
		<stop
   offset="1"
   style="stop-color:#CFC784"
   id="stop53" />
	</linearGradient>
	<path
   style="clip-rule:evenodd;fill:url(#SVGID_2_);fill-rule:evenodd"
   d="m 42.229,53.819 c 0,0.453 -0.787,0.84 -2.36,1.159 -1.546,0.32 -3.439,0.48 -5.68,0.48 -2.24,0 -4.146,-0.16 -5.72,-0.48 -1.573,-0.319 -2.36,-0.706 -2.36,-1.159 0,-0.454 0.787,-0.841 2.36,-1.16 1.6,-0.32 3.506,-0.48 5.72,-0.48 2.214,0 4.106,0.16 5.68,0.48 1.573,0.32 2.36,0.706 2.36,1.16 z"
   id="path56"
   inkscape:connector-curvature="0" />
	<path
   style="clip-rule:evenodd;fill:#e7f77e;fill-rule:evenodd"
   d="m 38.51,20.34 2.2,-0.04 1.079,2.64 -5.76,28.6 -0.96,0.92 -0.88,-0.399 c 0.96,-9.467 1.733,-15.667 2.32,-18.6 0.587,-2.908 1.254,-7.281 2.001,-13.121 z"
   id="path58"
   inkscape:connector-curvature="0" />
	<path
   style="clip-rule:evenodd;fill:#94c908;fill-rule:evenodd"
   d="m 36.83,38.22 c 0.56,-3.094 1.72,-9.066 3.479,-17.92 h 0.4 l 0.52,1.28 -5.24,29.999 -0.92,0.88 -0.279,-0.12 c 0.986,-7.36 1.666,-12.067 2.04,-14.119 z"
   id="path60"
   inkscape:connector-curvature="0" />
	
		<linearGradient
   id="SVGID_3_"
   gradientUnits="userSpaceOnUse"
   x1="30.253401"
   y1="-1.6538"
   x2="28.400801"
   y2="41.8909"
   gradientTransform="matrix(0.8,0,0,0.8,15.75,20.2999)">
		<stop
   offset="0"
   style="stop-color:#5C962F"
   id="stop62" />
		<stop
   offset="0.5333"
   style="stop-color:#5F942C"
   id="stop64" />
		<stop
   offset="0.8667"
   style="stop-color:#678E24"
   id="stop66" />
		<stop
   offset="1"
   style="stop-color:#6D8A1E"
   id="stop68" />
	</linearGradient>
	<path
   style="clip-rule:evenodd;fill:url(#SVGID_3_);fill-rule:evenodd"
   d="m 41.949,20.7 1.36,0.64 c -1.253,3.893 -2.333,7.827 -3.24,11.8 -1.626,7.12 -2.76,13.52 -3.399,19.199 -0.027,0.054 -0.28,0.081 -0.76,0.081 l -0.841,0.039 C 36.057,45.18 36.83,40.06 37.39,37.1 l 3.32,-16.8 0.239,0.04 c 0.24,0.053 0.574,0.173 1,0.36 z"
   id="path71"
   inkscape:connector-curvature="0" />
	<path
   style="clip-rule:evenodd;fill:#f7aa36;fill-rule:evenodd"
   d="m 30.51,23.3 c 0,5.546 0.08,9.72 0.24,12.52 0.16,2.773 0.12,8.653 -0.12,17.64 l -0.76,0.32 -0.64,-0.92 -1.56,-27.4 1.12,-2.4 z"
   id="path73"
   inkscape:connector-curvature="0" />
	<path
   style="clip-rule:evenodd;fill:#f09308;fill-rule:evenodd"
   d="m 29.99,40.22 c 0.187,4.213 0.227,8.706 0.12,13.479 l -0.24,0.08 -0.64,-0.92 -0.96,-28.64 0.52,-1.16 0.28,0.04 z"
   id="path75"
   inkscape:connector-curvature="0" />
	<path
   style="clip-rule:evenodd;fill:#d4850f;fill-rule:evenodd"
   d="M 28.63,53.539 C 28.736,48.152 28.51,42.032 27.95,35.18 27.657,31.367 27.217,27.58 26.63,23.82 l 1.16,-0.48 c 0.56,-0.213 0.894,-0.307 1,-0.28 l 0.88,16.08 c 0.133,2.826 0.2,7.706 0.2,14.64 z"
   id="path77"
   inkscape:connector-curvature="0" />
	<g
   id="g87">
		<path
   style="clip-rule:evenodd;fill:#bf7506;fill-rule:evenodd"
   d="m 28.55,45.26 c 0.454,0.159 0.88,0.253 1.28,0.279 l 0.04,3.721 -1.24,-0.36 z"
   id="path79"
   inkscape:connector-curvature="0" />
		<path
   style="clip-rule:evenodd;fill:#bf7506;fill-rule:evenodd"
   d="m 29.75,41.38 c -0.454,-0.08 -0.92,-0.214 -1.4,-0.4 l -0.2,-3 c 0.56,0.214 1.053,0.333 1.48,0.36 z"
   id="path81"
   inkscape:connector-curvature="0" />
		<path
   style="clip-rule:evenodd;fill:#bf7506;fill-rule:evenodd"
   d="m 28.91,24.98 0.16,3.16 -1.76,0.6 -0.4,-3.08 c 0.666,-0.293 1.333,-0.52 2,-0.68 z"
   id="path83"
   inkscape:connector-curvature="0" />
		<path
   style="clip-rule:evenodd;fill:#bf7506;fill-rule:evenodd"
   d="M 29.43,34.739 C 28.79,34.686 28.284,34.66 27.91,34.66 l -0.2,-2.28 1.6,-0.2 z"
   id="path85"
   inkscape:connector-curvature="0" />
	</g>
	<path
   style="clip-rule:evenodd;fill:#4f6e34;fill-rule:evenodd"
   d="m 29.51,38.46 c -0.88,1.227 -1.533,1.826 -1.96,1.8 l -1.12,-0.04 c 0.053,0.533 -0.12,0.88 -0.52,1.04 -0.134,0.053 -0.32,0.187 -0.561,0.399 -0.133,0.107 -0.306,0.146 -0.52,0.12 -0.24,-0.026 -0.507,-0.293 -0.8,-0.8 -0.293,-0.48 -0.413,-0.76 -0.36,-0.84 0.133,-0.187 0.56,-0.667 1.28,-1.44 0.8,-0.88 1.28,-1.359 1.44,-1.439 0.16,-0.054 0.733,0.133 1.72,0.56 0.481,0.213 0.948,0.426 1.401,0.64 z"
   id="path89"
   inkscape:connector-curvature="0" />
	<path
   style="clip-rule:evenodd;fill:#658c42;fill-rule:evenodd"
   d="m 27.99,39.5 0.4,-0.521 0.4,0.36 c 0.267,0.293 0.427,0.6 0.48,0.92 0.08,0.533 0.2,1.8 0.36,3.8 0.053,0.373 -0.026,0.56 -0.24,0.56 -0.293,0 -0.493,0.08 -0.6,0.24 -0.186,0.214 -0.64,0.04 -1.36,-0.521 -1.227,-0.986 -1.88,-1.506 -1.96,-1.56 l -3.28,-2.16 0.16,-0.92 1.88,1.28 c 0.88,0.64 1.6,1.08 2.16,1.32 0.32,0.133 0.667,0.253 1.04,0.359 0.427,0.187 0.64,0.613 0.64,1.28 0.106,-0.187 0.173,-0.427 0.2,-0.72 0.027,-0.533 -0.2,-0.974 -0.68,-1.32 l -2.84,-1.72 0.28,-0.2 3.08,1.64 c 0.187,-0.239 0.28,-0.466 0.28,-0.68 z"
   id="path91"
   inkscape:connector-curvature="0" />
	<path
   style="clip-rule:evenodd;fill:#81b354;fill-rule:evenodd"
   d="m 25.59,39.659 -1.72,-1.159 1.32,-1.24 -0.12,0.359 c 0.026,0.348 0.32,0.787 0.88,1.32 l 2.88,2.56 -0.84,-5.8 1.8,0.16 0.16,0.24 c 0.08,0.293 0.067,0.854 -0.04,1.68 -0.214,1.707 -0.307,2.894 -0.28,3.56 0.053,1.067 0.374,2.214 0.96,3.44 0.747,1.573 1.227,2.44 1.44,2.601 l 0.119,0.479 c -0.026,0.4 -0.32,0.761 -0.88,1.08 -0.533,0.32 -1.066,0.427 -1.6,0.32 l -0.68,-0.24 c 0.187,-0.533 -0.027,-1.427 -0.64,-2.681 -0.48,-0.959 -0.854,-1.586 -1.12,-1.879 -0.32,-0.348 -1,-0.854 -2.04,-1.521 -0.907,-0.56 -1.64,-0.946 -2.2,-1.16 l -0.6,-0.16 0.32,-1.12 1.64,1.28 c 0.667,0.453 1.253,0.72 1.76,0.8 -0.16,-0.64 -0.48,-1.106 -0.96,-1.399 l -1.48,-1.04 0.2,-0.44 1.68,1.36 c 0.507,0.427 1.026,0.653 1.56,0.68 -0.266,-0.853 -0.773,-1.547 -1.519,-2.08 z"
   id="path93"
   inkscape:connector-curvature="0" />
	<path
   style="clip-rule:evenodd;fill:#66943b;fill-rule:evenodd"
   d="m 28.59,43.819 c 0.267,0.88 0.52,1.573 0.76,2.08 0.16,0.32 0.36,0.826 0.6,1.52 0.133,0.454 0.293,0.76 0.48,0.92 0.4,0.374 0.894,0.2 1.48,-0.52 h 0.24 c -0.053,0.427 -0.346,0.801 -0.88,1.12 -0.506,0.294 -0.986,0.413 -1.439,0.36 l -0.44,-0.2 -0.12,-0.68 -0.84,-2.601 0.68,1.36 c 0.107,0.319 0.36,0.894 0.76,1.72 0.16,0.134 0.24,0.066 0.24,-0.2 0,-0.106 -0.12,-0.399 -0.36,-0.88 -0.267,-0.587 -0.467,-1.133 -0.6,-1.64 l -0.88,-3.521 z"
   id="path95"
   inkscape:connector-curvature="0" />
	<path
   style="clip-rule:evenodd;fill:#66943b;fill-rule:evenodd"
   d="m 29.91,37.779 c -0.214,1.707 -0.307,2.894 -0.28,3.56 0.053,1.067 0.374,2.214 0.96,3.44 0.747,1.573 1.227,2.44 1.44,2.601 l 0.119,0.399 c 0,0.294 -0.16,0.587 -0.479,0.88 -0.027,-0.213 -0.066,-0.426 -0.12,-0.64 -0.106,-0.399 -0.28,-0.773 -0.52,-1.12 -0.827,-1.254 -1.387,-2.347 -1.68,-3.28 -0.267,-0.88 -0.24,-2.066 0.08,-3.56 0.133,-0.693 0.174,-2.093 0.12,-4.2 h 0.24 l 0.16,0.24 c 0.08,0.294 0.067,0.854 -0.04,1.68 z"
   id="path97"
   inkscape:connector-curvature="0" />
	<path
   style="clip-rule:evenodd;fill:#629642;fill-rule:evenodd"
   d="m 31.95,34.34 h 0.44 c 0.293,0.08 0.507,0.279 0.641,0.6 0.239,0.641 0.159,1.24 -0.24,1.8 -0.187,0.267 -0.414,0.467 -0.68,0.601 0.159,0.32 0.079,0.693 -0.241,1.12 -0.586,0.8 -1.253,1.173 -2,1.12 -0.053,0.133 -0.266,0.266 -0.64,0.399 -0.374,0.16 -0.68,0.066 -0.92,-0.28 l -0.32,0.2 c -0.213,0.106 -0.573,-0.094 -1.08,-0.6 l -0.16,0.68 c -0.133,0.213 -0.467,0.4 -1,0.56 l 0.04,0.32 c 0,0.24 -0.08,0.427 -0.24,0.56 -0.293,0.214 -0.626,0.147 -1,-0.199 0,0.373 -0.213,0.64 -0.64,0.8 -0.267,0.106 -0.454,0.134 -0.56,0.08 l -0.12,-0.12 -0.08,0.16 c -0.08,0.106 -0.213,0.227 -0.4,0.359 -0.32,0.188 -0.68,0.227 -1.08,0.12 l -0.24,0.32 c -0.134,0.134 -0.334,0.2 -0.6,0.2 -0.213,-0.027 -0.414,-0.094 -0.6,-0.2 -0.32,0.267 -0.626,0.28 -0.92,0.04 -0.187,-0.16 -0.307,-0.307 -0.36,-0.44 l -0.04,-0.159 c -0.56,0.159 -1.027,0 -1.4,-0.48 -0.214,-0.293 -0.293,-0.6 -0.24,-0.92 l 0.12,-0.4 c -0.506,-0.08 -0.866,-0.347 -1.08,-0.8 -0.16,-0.293 -0.12,-0.653 0.12,-1.08 l 0.36,-0.56 c -0.72,0.054 -1.066,-0.24 -1.04,-0.88 0.026,-0.373 0.16,-0.721 0.4,-1.04 l 0.4,-0.36 c -0.133,-0.08 -0.24,-0.213 -0.32,-0.399 -0.16,-0.374 -0.106,-0.787 0.16,-1.24 0.24,-0.453 0.574,-0.707 1,-0.76 0.214,0 0.4,0.026 0.561,0.08 -0.054,-0.267 0.04,-0.653 0.28,-1.16 0.16,-0.293 0.44,-0.561 0.84,-0.8 l 0.6,-0.28 c -0.187,-0.507 -0.027,-0.947 0.48,-1.32 0.507,-0.347 0.894,-0.347 1.16,0 -0.054,-0.293 0.187,-0.64 0.72,-1.04 0.56,-0.373 0.947,-0.36 1.16,0.041 0,-0.08 0.04,-0.174 0.12,-0.28 0.16,-0.213 0.413,-0.4 0.76,-0.56 0.534,-0.267 1.013,-0.093 1.44,0.52 l 0.2,-0.16 c 0.213,-0.106 0.533,-0.173 0.96,-0.2 0.667,-0.054 1.133,0.12 1.4,0.52 l 0.52,-0.16 c 0.427,-0.08 0.827,-0.014 1.2,0.2 0.773,0.427 1.08,0.986 0.92,1.68 l 0.28,0.08 c 0.213,0.08 0.4,0.267 0.56,0.56 0.374,0.747 0.32,1.36 -0.16,1.84 l 0.48,0.28 c 0.186,0.183 0.212,0.53 0.079,1.037 z"
   id="path99"
   inkscape:connector-curvature="0" />
	<path
   style="clip-rule:evenodd;fill:#a5db72;fill-rule:evenodd"
   d="m 26.03,42.939 c 0.187,0.16 -0.04,0.12 -0.68,-0.12 -0.613,-0.24 -0.893,-0.413 -0.839,-0.52 0.053,-0.08 0.293,-0.027 0.72,0.16 0.399,0.187 0.665,0.347 0.799,0.48 z"
   id="path101"
   inkscape:connector-curvature="0" />
	<path
   style="clip-rule:evenodd;fill:#a5db72;fill-rule:evenodd"
   d="m 26.83,42.539 c -0.267,-0.213 -0.467,-0.373 -0.6,-0.479 -0.24,-0.187 -0.28,-0.28 -0.12,-0.28 0.053,0 0.293,0.106 0.72,0.32 0.32,0.133 0.48,0.12 0.48,-0.04 0.053,-0.507 0.173,-0.627 0.36,-0.36 0.133,0.187 0.066,0.413 -0.2,0.681 -0.267,0.238 -0.48,0.292 -0.64,0.158 z"
   id="path103"
   inkscape:connector-curvature="0" />
	<path
   style="clip-rule:evenodd;fill:#a5db72;fill-rule:evenodd"
   d="m 27.27,40.779 c -0.213,-0.16 -0.4,-0.333 -0.56,-0.52 -0.16,-0.187 -0.147,-0.254 0.04,-0.2 0.213,0.053 0.467,0.213 0.76,0.479 0.32,0.267 0.494,0.48 0.52,0.641 0.027,0.133 0,0.159 -0.08,0.08 -0.4,-0.293 -0.627,-0.453 -0.68,-0.48 z"
   id="path105"
   inkscape:connector-curvature="0" />
	<path
   style="clip-rule:evenodd;fill:#a5db72;fill-rule:evenodd"
   d="m 28.43,45.819 c -0.16,-0.24 -0.333,-0.653 -0.52,-1.24 -0.214,-0.613 -0.334,-0.96 -0.36,-1.04 -0.106,-0.213 -0.187,-0.453 -0.24,-0.72 -0.027,-0.267 0.013,-0.32 0.12,-0.16 0.187,0.214 0.6,1.214 1.24,3 0.613,1.414 0.533,1.467 -0.24,0.16 z"
   id="path107"
   inkscape:connector-curvature="0" />
	<path
   style="clip-rule:evenodd;fill:#a5db72;fill-rule:evenodd"
   d="m 29.67,45.659 c -0.347,-0.533 -0.627,-1.199 -0.84,-2 -0.054,-0.213 0.026,-0.16 0.24,0.16 0.214,0.32 0.413,0.693 0.6,1.12 l 1,2.04 c -0.053,0.241 -0.387,-0.2 -1,-1.32 z"
   id="path109"
   inkscape:connector-curvature="0" />
	<g
   id="g115">
		<path
   style="clip-rule:evenodd;fill:#507a36;fill-rule:evenodd"
   d="m 21.75,29.86 -0.16,0.4 V 30.22 C 21.43,30.14 21.27,30.1 21.11,30.1 l -0.28,-0.4 0.24,-0.2 c 0.534,-0.426 0.92,-0.453 1.16,-0.08 -0.213,0.133 -0.374,0.28 -0.48,0.44 z"
   id="path111"
   inkscape:connector-curvature="0" />
		<path
   style="clip-rule:evenodd;fill:#507a36;fill-rule:evenodd"
   d="m 32.03,38.539 c -0.294,0.48 -0.734,0.854 -1.32,1.12 l -0.28,-0.239 0.4,-0.4 0.08,-0.16 c 0.293,-0.08 0.52,-0.253 0.68,-0.52 0.267,-0.373 0.28,-0.76 0.04,-1.16 0.213,-0.08 0.4,-0.227 0.56,-0.44 0.134,-0.239 0.174,-0.493 0.12,-0.76 -0.053,-0.24 -0.187,-0.427 -0.4,-0.56 -0.32,-0.16 -0.64,-0.16 -0.96,0 0.16,-0.267 0.2,-0.547 0.12,-0.84 -0.053,-0.294 -0.213,-0.507 -0.48,-0.641 -0.107,-0.08 -0.267,-0.12 -0.48,-0.12 0.187,-0.266 0.24,-0.56 0.16,-0.88 -0.053,-0.32 -0.227,-0.546 -0.52,-0.68 -0.027,-0.027 -0.12,-0.067 -0.28,-0.12 0.106,-0.373 0.026,-0.72 -0.24,-1.04 0.133,-0.293 0.16,-0.573 0.08,-0.84 -0.08,-0.267 -0.24,-0.467 -0.48,-0.6 -0.587,-0.32 -1.107,-0.2 -1.561,0.36 l -0.24,-0.24 c -0.187,-0.106 -0.426,-0.093 -0.72,0.04 -0.08,-0.133 -0.187,-0.24 -0.32,-0.32 -0.24,-0.133 -0.494,-0.16 -0.76,-0.08 -0.293,0.08 -0.52,0.24 -0.68,0.48 l -0.08,0.2 -0.24,0.04 c -0.08,-0.213 -0.213,-0.36 -0.4,-0.44 -0.374,-0.213 -0.76,-0.213 -1.16,0 0.106,-0.32 0.374,-0.6 0.8,-0.84 0.534,-0.293 1.041,-0.16 1.52,0.4 l 0.2,-0.16 c 0.187,-0.133 0.493,-0.227 0.92,-0.28 0.667,-0.08 1.146,0.066 1.44,0.44 l 0.52,-0.2 c 0.4,-0.107 0.8,-0.067 1.2,0.12 0.8,0.347 1.16,0.866 1.08,1.56 l 0.28,0.08 c 0.213,0.08 0.4,0.254 0.56,0.52 0.427,0.693 0.427,1.293 0,1.8 l 0.521,0.28 c 0.186,0.16 0.24,0.507 0.16,1.041 l 0.4,-0.04 c 0.294,0.026 0.521,0.199 0.681,0.52 0.319,0.641 0.293,1.24 -0.08,1.8 -0.188,0.267 -0.414,0.48 -0.681,0.641 0.186,0.318 0.133,0.705 -0.16,1.158 z"
   id="path113"
   inkscape:connector-curvature="0" />
	</g>
	<path
   style="clip-rule:evenodd;fill:#507a36;fill-rule:evenodd"
   d="m 22.79,31.819 c 0.134,-0.16 0.293,-0.307 0.48,-0.439 0.426,-0.267 0.854,-0.28 1.28,-0.041 0.72,0.374 0.987,0.72 0.8,1.041 l 0.44,-0.2 c 0.374,-0.106 0.747,-0.067 1.121,0.12 0.613,0.346 0.826,0.68 0.64,1 l 0.52,0.04 c 0.4,0.107 0.68,0.333 0.84,0.68 0.266,0.587 0.373,0.934 0.32,1.04 l 0.24,-0.24 c 0.24,-0.106 0.52,-0.053 0.84,0.16 0.56,0.32 0.693,0.76 0.4,1.32 l 0.24,0.2 c 0.133,0.239 0.146,0.546 0.04,0.92 -0.16,0.586 -0.373,0.934 -0.64,1.04 0.32,-0.773 0.293,-1.214 -0.08,-1.32 -0.24,-0.054 -0.426,-0.08 -0.56,-0.08 h -0.16 c 0.374,-0.613 0.413,-1.014 0.12,-1.2 -0.187,-0.106 -0.4,-0.173 -0.64,-0.199 l -0.28,0.039 c 0.08,-0.826 -0.2,-1.333 -0.84,-1.52 -0.427,-0.134 -0.707,-0.094 -0.84,0.12 -0.023,0.034 -0.043,0.075 -0.06,0.12 0.069,-0.707 -0.178,-1.134 -0.74,-1.28 l -0.92,-0.24 c -0.213,-0.453 -0.613,-0.787 -1.2,-1 -0.374,-0.106 -0.707,-0.16 -1,-0.16 z"
   id="path117"
   inkscape:connector-curvature="0" />
	<path
   style="clip-rule:evenodd;fill:#507a36;fill-rule:evenodd"
   d="m 21.83,35.46 0.28,-0.2 c 0.213,-0.134 0.467,-0.146 0.76,-0.04 0.454,0.16 0.693,0.399 0.72,0.72 0.106,-0.16 0.24,-0.307 0.4,-0.439 0.347,-0.24 0.733,-0.268 1.16,-0.08 0.667,0.293 0.946,0.547 0.84,0.76 l 0.44,-0.2 c 0.347,-0.106 0.64,-0.066 0.88,0.12 0.373,0.267 0.52,0.613 0.44,1.04 0.08,-0.106 0.173,-0.2 0.28,-0.28 0.24,-0.133 0.466,-0.093 0.68,0.12 0.347,0.347 0.44,0.681 0.28,1 l 0.56,-0.16 c 0.4,-0.08 0.626,0.014 0.68,0.28 0.106,0.293 0.013,0.613 -0.28,0.96 -0.267,0.32 -0.546,0.493 -0.84,0.521 l -0.48,0.079 c -0.32,0.4 -0.707,0.521 -1.16,0.36 -0.293,-0.106 -0.52,-0.28 -0.68,-0.52 l -0.2,-0.32 c 1.093,0.427 1.6,0.493 1.52,0.2 l -0.12,-0.44 c 0.614,0.373 0.96,0.4 1.04,0.08 0.027,-0.213 -0.053,-0.4 -0.24,-0.56 l -0.28,-0.2 c 0.053,-0.507 -0.027,-0.787 -0.24,-0.84 -0.133,-0.027 -0.32,-0.014 -0.56,0.04 l -0.32,0.12 c 0.134,-0.294 0.014,-0.547 -0.36,-0.761 -0.24,-0.133 -0.52,-0.187 -0.84,-0.159 l -0.4,0.079 c 0.187,-0.319 0.027,-0.546 -0.479,-0.68 -0.32,-0.08 -0.707,-0.026 -1.16,0.16 l -0.56,0.28 c -0.08,-0.347 -0.333,-0.587 -0.76,-0.721 z"
   id="path119"
   inkscape:connector-curvature="0" />
	<path
   style="clip-rule:evenodd;fill:#507a36;fill-rule:evenodd"
   d="m 19.35,39.5 0.439,-0.2 c 0.32,-0.106 0.587,-0.054 0.8,0.16 0.347,0.346 0.44,0.652 0.28,0.92 l 0.44,0.159 c 0.267,0.16 0.373,0.387 0.32,0.681 -0.08,0.453 -0.253,0.706 -0.52,0.76 l 0.28,0.2 c 0.16,0.159 0.214,0.319 0.16,0.479 -0.106,0.24 -0.307,0.387 -0.6,0.44 0.533,0.347 0.6,0.52 0.2,0.52 -0.24,0 -0.493,-0.04 -0.76,-0.12 l -0.28,-0.119 c 0.32,-0.08 0.414,-0.174 0.28,-0.28 l -0.32,-0.12 c 0.613,0.026 0.907,-0.08 0.88,-0.32 -0.026,-0.16 -0.093,-0.307 -0.2,-0.439 l -0.2,-0.2 c 0.427,-0.24 0.6,-0.507 0.52,-0.8 -0.053,-0.188 -0.173,-0.36 -0.36,-0.521 l -0.28,-0.16 c 0.16,-0.293 0.066,-0.533 -0.28,-0.72 z"
   id="path121"
   inkscape:connector-curvature="0" />
	<path
   style="clip-rule:evenodd;fill:#507a36;fill-rule:evenodd"
   d="m 22.55,35.58 c 0.374,0.08 0.72,0.199 1.04,0.359 0.534,0.267 0.76,0.667 0.68,1.2 l 0.32,-0.04 c 0.24,0.026 0.506,0.133 0.8,0.32 0.48,0.293 0.56,0.64 0.24,1.04 l 0.16,0.159 c 0.08,0.16 0.121,0.387 0.121,0.681 0.026,0.453 -0.174,0.786 -0.6,1 l 0.24,0.279 c 0.187,0.214 0.12,0.574 -0.2,1.08 -0.16,0.16 -0.453,0.094 -0.88,-0.199 0.187,0.079 0.387,0.053 0.6,-0.08 0.213,-0.16 0.067,-0.48 -0.44,-0.961 0.187,-0.239 0.307,-0.52 0.36,-0.839 0.027,-0.188 -0.08,-0.334 -0.32,-0.44 l -0.36,-0.08 c 0.32,-0.32 0.453,-0.68 0.4,-1.08 -0.027,-0.24 -0.253,-0.333 -0.68,-0.28 l -0.68,0.16 c 0.106,-0.479 -0.027,-0.88 -0.4,-1.199 -0.213,-0.188 -0.493,-0.268 -0.84,-0.24 l -0.44,0.119 -0.24,-0.52 c -0.107,-0.24 -0.347,-0.4 -0.72,-0.48 l -0.56,-0.079 0.8,-0.24 c 0.561,-0.16 0.934,-0.066 1.12,0.28 z"
   id="path123"
   inkscape:connector-curvature="0" />
	<path
   style="clip-rule:evenodd;fill:#76b34f;fill-rule:evenodd"
   d="m 17.23,40.819 c -0.213,-0.026 -0.36,-0.16 -0.44,-0.4 -0.107,-0.239 -0.094,-0.439 0.04,-0.6 0.213,-0.373 0.493,-0.319 0.84,0.16 0.134,0.24 0.16,0.439 0.08,0.6 -0.106,0.188 -0.28,0.267 -0.52,0.24 z"
   id="path125"
   inkscape:connector-curvature="0" />
	<path
   style="clip-rule:evenodd;fill:#76b34f;fill-rule:evenodd"
   d="m 17.67,37.14 c 0.4,-0.16 0.693,-0.134 0.88,0.08 l 0.48,0.479 0.32,0.24 c 0.213,0.16 0.307,0.28 0.28,0.36 -0.08,0.16 -0.187,0.293 -0.32,0.399 -0.106,-0.319 -0.28,-0.453 -0.52,-0.399 l -0.32,0.04 c -0.187,-0.187 -0.413,-0.267 -0.68,-0.24 l -0.4,0.08 -0.48,-0.079 -0.36,0.36 c -0.24,-0.027 -0.413,-0.16 -0.52,-0.4 -0.134,-0.267 -0.094,-0.507 0.12,-0.72 0.187,-0.214 0.414,-0.254 0.68,-0.12 0.133,0.054 0.24,0.134 0.32,0.24 0.16,-0.134 0.333,-0.24 0.52,-0.32 z"
   id="path127"
   inkscape:connector-curvature="0" />
	<path
   style="clip-rule:evenodd;fill:#76b34f;fill-rule:evenodd"
   d="m 19.83,42.659 c -0.16,0 -0.333,-0.053 -0.52,-0.16 l -0.24,-0.16 c -0.08,0.214 -0.266,0.254 -0.56,0.121 -0.214,-0.08 -0.4,-0.188 -0.56,-0.32 -0.16,-0.187 -0.174,-0.347 -0.04,-0.48 0.133,-0.106 0.28,-0.146 0.44,-0.12 0.08,0.027 0.146,0.054 0.2,0.08 -0.453,-0.666 -0.52,-1.066 -0.2,-1.2 0.213,-0.08 0.4,-0.066 0.56,0.041 0.08,0.053 0.146,0.119 0.2,0.199 0,-0.133 0.014,-0.24 0.04,-0.32 0.08,-0.213 0.213,-0.239 0.4,-0.079 0.32,0.239 0.387,0.546 0.2,0.92 l 0.2,-0.08 c 0.133,-0.026 0.213,0.054 0.24,0.239 0.053,0.348 -0.027,0.547 -0.24,0.601 0.16,0.452 0.12,0.692 -0.12,0.718 z"
   id="path129"
   inkscape:connector-curvature="0" />
	<path
   style="clip-rule:evenodd;fill:#76b34f;fill-rule:evenodd"
   d="m 21.51,36.979 c 0.24,-0.054 0.479,0.026 0.72,0.24 0.347,0.373 0.48,0.72 0.4,1.04 l 0.56,0.08 c 0.347,0.08 0.493,0.24 0.44,0.479 -0.08,0.24 -0.293,0.387 -0.64,0.44 -0.373,0.053 -0.586,0 -0.64,-0.16 l -0.16,-0.6 c 0.027,-0.347 -0.12,-0.601 -0.44,-0.761 L 20.91,37.3 c -0.027,-0.16 -0.2,-0.24 -0.521,-0.24 l -0.56,-0.04 c 0,-0.16 0.013,-0.32 0.04,-0.48 0.08,-0.293 0.254,-0.399 0.52,-0.319 0.4,0.134 0.68,0.427 0.84,0.88 z"
   id="path131"
   inkscape:connector-curvature="0" />
	<path
   style="clip-rule:evenodd;fill:#76b34f;fill-rule:evenodd"
   d="m 21.67,40.339 c -0.187,-0.053 -0.32,-0.159 -0.4,-0.319 -0.107,-0.187 -0.107,-0.333 0,-0.439 0.133,-0.134 0.32,-0.16 0.56,-0.08 0.266,0.08 0.426,0.239 0.48,0.479 0.053,0.293 0.026,0.467 -0.08,0.52 -0.08,0.053 -0.267,-10e-4 -0.56,-0.161 z"
   id="path133"
   inkscape:connector-curvature="0" />
	<path
   style="clip-rule:evenodd;fill:#76b34f;fill-rule:evenodd"
   d="m 21.07,38.979 c -0.187,0 -0.307,-0.16 -0.36,-0.479 -0.053,-0.294 0.053,-0.414 0.32,-0.36 0.293,0.054 0.44,0.214 0.44,0.479 0.027,0.268 -0.107,0.387 -0.4,0.36 z"
   id="path135"
   inkscape:connector-curvature="0" />
	<path
   style="clip-rule:evenodd;fill:#76b34f;fill-rule:evenodd"
   d="m 24.23,40.38 c -0.267,0.159 -0.48,0.133 -0.64,-0.08 -0.16,-0.188 -0.187,-0.36 -0.08,-0.521 0.133,-0.134 0.373,-0.106 0.72,0.08 0.32,0.161 0.32,0.333 0,0.521 z"
   id="path137"
   inkscape:connector-curvature="0" />
	<path
   style="clip-rule:evenodd;fill:#76b34f;fill-rule:evenodd"
   d="m 22.35,42.02 c -0.24,-0.026 -0.32,-0.187 -0.24,-0.48 0.107,-0.267 0.253,-0.386 0.44,-0.359 0.64,0 1.054,-0.067 1.24,-0.2 l 0.16,-0.12 c 0.293,0.479 0.293,0.773 0,0.88 -0.187,0.08 -0.4,0.08 -0.64,0 l -0.28,-0.12 c -0.027,0.318 -0.254,0.452 -0.68,0.399 z"
   id="path139"
   inkscape:connector-curvature="0" />
	<path
   style="clip-rule:evenodd;fill:#76b34f;fill-rule:evenodd"
   d="m 18.91,34.859 c 0.293,0.08 0.426,0.294 0.4,0.641 l 0.24,0.119 c 0.16,0.08 0.187,0.188 0.08,0.32 -0.133,0.24 -0.32,0.214 -0.56,-0.08 -0.106,0.08 -0.266,0.107 -0.48,0.08 l -0.56,-0.24 c -0.107,0.374 -0.334,0.547 -0.68,0.521 -0.187,-0.026 -0.387,-0.134 -0.6,-0.32 -0.24,-0.239 -0.267,-0.453 -0.08,-0.64 0.16,-0.187 0.413,-0.24 0.76,-0.16 0.187,0.054 0.346,0.12 0.48,0.2 0.08,-0.08 0.187,-0.174 0.32,-0.28 0.267,-0.161 0.494,-0.213 0.68,-0.161 z"
   id="path141"
   inkscape:connector-curvature="0" />
	<path
   style="clip-rule:evenodd;fill:#76b34f;fill-rule:evenodd"
   d="m 21.63,33.939 0.36,-0.04 c 0.24,0 0.347,0.067 0.32,0.2 0,0.16 -0.106,0.32 -0.32,0.48 -0.213,0.159 -0.373,0.199 -0.479,0.119 l -0.521,-0.6 c -0.427,0.106 -0.707,0.146 -0.84,0.12 l -0.36,-0.32 c -0.426,0.374 -0.946,0.413 -1.56,0.12 -0.213,-0.08 -0.267,-0.293 -0.16,-0.64 0.107,-0.374 0.36,-0.574 0.76,-0.6 0.64,-0.027 0.973,0.227 1,0.76 l 0.6,-0.24 c 0.4,-0.133 0.68,-0.12 0.84,0.04 0.213,0.242 0.334,0.442 0.36,0.601 z"
   id="path143"
   inkscape:connector-curvature="0" />
	<path
   style="clip-rule:evenodd;fill:#76b34f;fill-rule:evenodd"
   d="m 22.99,32.22 c 0.374,-0.16 0.88,0.133 1.521,0.88 l 0.52,0.12 c 0.4,0.133 0.707,0.347 0.92,0.64 0.24,0.373 0.213,0.613 -0.08,0.72 -0.266,0.133 -0.573,0.026 -0.92,-0.32 l -0.8,-0.92 c -0.106,-0.08 -0.28,-0.146 -0.52,-0.2 -0.347,-0.053 -0.6,-0.187 -0.76,-0.4 -0.188,-0.24 -0.148,-0.414 0.119,-0.52 z"
   id="path145"
   inkscape:connector-curvature="0" />
	<path
   style="clip-rule:evenodd;fill:#76b34f;fill-rule:evenodd"
   d="m 23.55,34.619 c -0.213,-0.08 -0.374,-0.253 -0.48,-0.52 -0.106,-0.24 -0.066,-0.374 0.12,-0.4 0.187,0 0.373,0.093 0.56,0.28 0.16,0.16 0.267,0.307 0.32,0.44 l 0.08,0.279 c -0.054,0.055 -0.254,0.029 -0.6,-0.079 z"
   id="path147"
   inkscape:connector-curvature="0" />
	<path
   style="clip-rule:evenodd;fill:#76b34f;fill-rule:evenodd"
   d="m 26.39,38.1 c -0.24,-0.133 -0.44,-0.28 -0.6,-0.439 -0.186,-0.188 -0.133,-0.294 0.16,-0.32 0.48,-0.027 0.84,0.173 1.08,0.6 l 0.44,-0.04 c 0.267,0 0.36,0.094 0.28,0.28 -0.133,0.507 -0.333,0.68 -0.6,0.52 L 26.79,38.5 c -0.24,0.239 -0.44,0.279 -0.6,0.119 -0.106,-0.106 -0.106,-0.227 0,-0.359 z"
   id="path149"
   inkscape:connector-curvature="0" />
	<path
   style="clip-rule:evenodd;fill:#76b34f;fill-rule:evenodd"
   d="m 27.55,35.739 c -0.187,-0.053 -0.347,-0.2 -0.48,-0.439 -0.133,-0.24 -0.066,-0.374 0.2,-0.4 0.32,-0.054 0.613,0.134 0.88,0.561 0.24,0.372 0.039,0.465 -0.6,0.278 z"
   id="path151"
   inkscape:connector-curvature="0" />
	<path
   style="clip-rule:evenodd;fill:#76b34f;fill-rule:evenodd"
   d="m 20.07,32.18 c -0.267,-0.08 -0.453,-0.24 -0.56,-0.48 -0.107,-0.293 0.013,-0.467 0.359,-0.52 0.48,-0.054 0.813,0.08 1,0.4 l 0.6,-0.08 c 0.4,0 0.587,0.146 0.56,0.44 -0.053,0.427 -0.52,0.467 -1.4,0.12 -0.079,0.133 -0.266,0.173 -0.559,0.12 z"
   id="path153"
   inkscape:connector-curvature="0" />
	<path
   style="clip-rule:evenodd;fill:#76b34f;fill-rule:evenodd"
   d="m 23.03,30.819 c -0.373,0 -0.626,-0.12 -0.76,-0.359 -0.133,-0.24 -0.053,-0.414 0.24,-0.521 0.346,-0.08 0.68,0.054 1,0.4 0.32,0.348 0.16,0.507 -0.48,0.48 z"
   id="path155"
   inkscape:connector-curvature="0" />
	<path
   style="clip-rule:evenodd;fill:#76b34f;fill-rule:evenodd"
   d="m 25.19,29.86 c 0.373,0.16 0.586,0.413 0.64,0.76 l 0.4,-0.24 c 0.293,-0.134 0.493,-0.12 0.6,0.04 l 0.24,0.44 0.6,-0.08 c 0.4,0.026 0.613,0.2 0.64,0.52 0.026,0.373 -0.041,0.653 -0.2,0.84 -0.16,0.16 -0.36,0.173 -0.6,0.04 -0.187,-0.106 -0.36,-0.267 -0.52,-0.48 l -0.16,-0.28 c 0,0.24 -0.2,0.293 -0.6,0.16 -0.24,-0.106 -0.414,-0.24 -0.52,-0.4 l -0.08,-0.2 c -0.134,0.053 -0.387,-0.053 -0.76,-0.32 -0.187,-0.133 -0.24,-0.333 -0.16,-0.6 0.053,-0.267 0.213,-0.334 0.48,-0.2 z"
   id="path157"
   inkscape:connector-curvature="0" />
	<path
   style="clip-rule:evenodd;fill:#76b34f;fill-rule:evenodd"
   d="m 28.99,33.339 c -0.24,-0.026 -0.414,-0.213 -0.52,-0.56 -0.106,-0.32 -0.04,-0.467 0.2,-0.44 0.32,0.054 0.586,0.253 0.8,0.6 0.214,0.347 0.053,0.48 -0.48,0.4 z"
   id="path159"
   inkscape:connector-curvature="0" />
	<polygon
   style="clip-rule:evenodd;fill:#eddd82;fill-rule:evenodd"
   points="41.91,26.78 44.109,26.339 45.43,27.82 44.109,29.1 43.51,30.339 41.91,29.54 "
   id="polygon161" />
	<path
   style="clip-rule:evenodd;fill:#bfb05a;fill-rule:evenodd"
   d="m 45.43,27.82 c -2.214,3.84 -3.667,6.933 -4.36,9.28 -0.453,1.52 -0.906,3.84 -1.359,6.96 -0.32,2.24 -0.547,4.133 -0.681,5.68 l -0.24,3.2 -0.8,0.76 -0.359,-0.721 c 0.187,-2.559 0.399,-5.146 0.64,-7.759 0.427,-5.2 0.707,-7.866 0.84,-8 0.214,-0.214 0.947,-1.88 2.2,-5 l 1.08,-3.12 z"
   id="path163"
   inkscape:connector-curvature="0" />
	<path
   style="clip-rule:evenodd;fill:#e3d276;fill-rule:evenodd"
   d="m 40.789,29.62 c 0.454,-1.28 0.827,-2.227 1.121,-2.84 l 1.68,1.84 c -1.493,2.667 -2.561,5.333 -3.2,8 -0.827,3.44 -1.467,7.32 -1.92,11.641 -0.24,2.16 -0.4,3.973 -0.48,5.439 l -1.079,-0.16 c 0,-1.146 0.053,-2.626 0.159,-4.439 0.267,-3.653 0.72,-7.134 1.36,-10.439 0.693,-3.442 1.48,-6.456 2.359,-9.042 z"
   id="path165"
   inkscape:connector-curvature="0" />
	<path
   style="clip-rule:evenodd;fill:#e7f77e;fill-rule:evenodd"
   d="m 37.51,23.14 c 0.053,5.547 0.187,9.72 0.4,12.521 0.213,2.8 0.227,8.692 0.039,17.679 l -0.76,0.32 -0.72,-0.96 -2.079,-27.44 1.24,-2.4 z"
   id="path167"
   inkscape:connector-curvature="0" />
	<path
   style="clip-rule:evenodd;fill:#94c908;fill-rule:evenodd"
   d="m 37.149,40.1 c 0.187,3.387 0.28,7.866 0.28,13.439 l -0.24,0.12 -0.72,-0.96 -1.44,-28.68 0.601,-1.16 0.319,0.08 z"
   id="path169"
   inkscape:connector-curvature="0" />
	
		<linearGradient
   id="SVGID_4_"
   gradientUnits="userSpaceOnUse"
   x1="-43.002899"
   y1="23.044901"
   x2="-5.1012001"
   y2="23.044901"
   gradientTransform="matrix(-0.0586,-0.7978,0.7978,-0.0586,15.7501,20.2986)">
		<stop
   offset="0"
   style="stop-color:#5C962F"
   id="stop171" />
		<stop
   offset="0.5333"
   style="stop-color:#5F942C"
   id="stop173" />
		<stop
   offset="0.8667"
   style="stop-color:#678E24"
   id="stop175" />
		<stop
   offset="1"
   style="stop-color:#6D8A1E"
   id="stop177" />
	</linearGradient>
	<path
   style="clip-rule:evenodd;fill:url(#SVGID_4_);fill-rule:evenodd"
   d="m 34.51,23.14 c 0.613,-0.213 0.986,-0.307 1.12,-0.28 0.56,7.6 0.933,12.973 1.12,16.12 0.187,2.826 0.333,7.72 0.439,14.68 -0.08,-0.053 -0.32,-0.106 -0.72,-0.16 -0.24,-0.026 -0.427,-0.053 -0.56,-0.079 l -0.08,-0.081 c 0.026,-5.387 -0.294,-11.506 -0.961,-18.359 -0.399,-3.84 -0.933,-7.64 -1.6,-11.4 z"
   id="path180"
   inkscape:connector-curvature="0" />
	<path
   style="clip-rule:evenodd;fill:#e7f77e;fill-rule:evenodd"
   d="m 38.55,29.46 1.56,-0.121 0.84,2.08 -3.199,22.8 -0.641,0.759 -0.64,-0.279 c 0.399,-7.52 0.76,-12.453 1.08,-14.8 0.319,-2.319 0.653,-5.799 1,-10.439 z"
   id="path182"
   inkscape:connector-curvature="0" />
	<path
   style="clip-rule:evenodd;fill:#94c908;fill-rule:evenodd"
   d="m 37.91,43.659 c 1.119,-8.267 1.76,-13.026 1.92,-14.279 l 0.279,-0.041 0.4,1 -2.76,23.88 -0.641,0.759 -0.199,-0.079 c 0.214,-3.653 0.547,-7.4 1.001,-11.24 z"
   id="path184"
   inkscape:connector-curvature="0" />
	
		<linearGradient
   id="SVGID_5_"
   gradientUnits="userSpaceOnUse"
   x1="29.6621"
   y1="11.9868"
   x2="29.783701"
   y2="42.5117"
   gradientTransform="matrix(0.8,0,0,0.8,15.75,20.2999)">
		<stop
   offset="0"
   style="stop-color:#5C962F"
   id="stop186" />
		<stop
   offset="0.5333"
   style="stop-color:#5F942C"
   id="stop188" />
		<stop
   offset="0.8667"
   style="stop-color:#678E24"
   id="stop190" />
		<stop
   offset="1"
   style="stop-color:#6D8A1E"
   id="stop192" />
	</linearGradient>
	<path
   style="clip-rule:evenodd;fill:url(#SVGID_5_);fill-rule:evenodd"
   d="m 40.109,29.339 0.88,0.28 0.96,0.44 c -0.746,3.12 -1.387,6.267 -1.92,9.44 -0.934,5.706 -1.533,10.813 -1.8,15.319 -0.026,0.054 -0.213,0.08 -0.56,0.08 l -0.561,0.079 c 0.453,-5.786 0.84,-9.866 1.16,-12.239 z"
   id="path195"
   inkscape:connector-curvature="0" />
	<path
   style="clip-rule:evenodd;fill:#f7aa36;fill-rule:evenodd"
   d="m 29.189,29.3 1.6,-0.36 1.321,1.88 0.92,23.4 -0.521,0.84 -0.72,-0.16 C 30.776,47.3 30.216,42.313 30.109,39.94 30.03,37.566 29.723,34.02 29.189,29.3 Z"
   id="path197"
   inkscape:connector-curvature="0" />
	<path
   style="clip-rule:evenodd;fill:#f09308;fill-rule:evenodd"
   d="M 31.189,43.619 30.55,28.98 l 0.24,-0.041 0.64,0.92 1.601,24.36 -0.521,0.84 -0.24,-0.04 c -0.56,-4.933 -0.92,-8.733 -1.081,-11.4 z"
   id="path199"
   inkscape:connector-curvature="0" />
	<path
   style="clip-rule:evenodd;fill:#d4850f;fill-rule:evenodd"
   d="m 30.79,28.939 2.121,0.36 c -0.214,3.253 -0.294,6.52 -0.24,9.8 0.08,5.84 0.399,11.04 0.96,15.6 0,0.053 -0.174,0.12 -0.52,0.2 l -0.601,0.16 C 31.896,49.192 31.537,45.045 31.43,42.619 Z"
   id="path201"
   inkscape:connector-curvature="0" />
	<g
   id="g211">
		<path
   style="clip-rule:evenodd;fill:#bf7506;fill-rule:evenodd"
   d="m 33.03,47.699 0.239,3.08 -1.159,0.44 -0.28,-3.119 c 0.613,-0.187 1.013,-0.321 1.2,-0.401 z"
   id="path203"
   inkscape:connector-curvature="0" />
		<path
   style="clip-rule:evenodd;fill:#bf7506;fill-rule:evenodd"
   d="m 31.55,44.539 -0.16,-2.56 c 0.48,-0.134 0.92,-0.307 1.32,-0.52 l 0.12,2.6 c -0.693,0.267 -1.12,0.427 -1.28,0.48 z"
   id="path205"
   inkscape:connector-curvature="0" />
		<path
   style="clip-rule:evenodd;fill:#bf7506;fill-rule:evenodd"
   d="m 30.87,30.54 c 0.827,0.106 1.48,0.227 1.96,0.36 l -0.12,2.64 -1.72,-0.28 z"
   id="path207"
   inkscape:connector-curvature="0" />
		<polygon
   style="clip-rule:evenodd;fill:#bf7506;fill-rule:evenodd"
   points="31.15,36.699 32.67,36.699 32.67,38.619 31.23,38.859 "
   id="polygon209" />
	</g>
	<path
   style="clip-rule:evenodd;fill:#f7aa36;fill-rule:evenodd"
   d="m 33.79,26.339 1.999,-0.279 1.36,2.2 -2.04,25.96 -0.76,0.919 -0.88,-0.279 c -0.213,-8.479 -0.213,-14.04 0,-16.68 0.187,-2.641 0.294,-6.587 0.321,-11.841 z"
   id="path213"
   inkscape:connector-curvature="0" />
	<path
   style="clip-rule:evenodd;fill:#f09308;fill-rule:evenodd"
   d="m 34.31,42.339 c 0.107,-1.68 0.494,-7.093 1.16,-16.239 l 0.319,-0.04 0.681,1.04 -1.36,27.16 -0.76,0.879 -0.28,-0.079 c -10e-4,-5.734 0.079,-9.974 0.24,-12.721 z"
   id="path215"
   inkscape:connector-curvature="0" />
	<path
   style="clip-rule:evenodd;fill:#d4850f;fill-rule:evenodd"
   d="m 36.029,26.06 c 0.24,0.026 0.574,0.093 1,0.2 l 1.32,0.4 c -0.693,3.573 -1.24,7.173 -1.64,10.8 -0.693,6.506 -1,12.293 -0.921,17.359 -0.026,0.08 -0.253,0.146 -0.68,0.2 l -0.76,0.119 c 0.054,-6.56 0.174,-11.186 0.36,-13.879 l 1.079,-15.2 h 0.242 z"
   id="path217"
   inkscape:connector-curvature="0" />
	<g
   id="g227">
		<path
   style="clip-rule:evenodd;fill:#bf7506;fill-rule:evenodd"
   d="m 35.989,47.02 -0.12,3.44 -1.479,0.399 0.08,-3.521 c 0.747,-0.132 1.253,-0.238 1.519,-0.318 z"
   id="path219"
   inkscape:connector-curvature="0" />
		<path
   style="clip-rule:evenodd;fill:#bf7506;fill-rule:evenodd"
   d="m 34.75,40.539 c 0.666,-0.106 1.239,-0.253 1.72,-0.439 l -0.24,2.88 c -0.587,0.187 -1.134,0.32 -1.64,0.4 0.054,-1.307 0.093,-2.014 0.12,-2.12 z"
   id="path221"
   inkscape:connector-curvature="0" />
		<path
   style="clip-rule:evenodd;fill:#bf7506;fill-rule:evenodd"
   d="m 35.67,27.86 c 0.934,0.16 1.72,0.347 2.359,0.56 l -0.479,2.92 -2.12,-0.479 z"
   id="path223"
   inkscape:connector-curvature="0" />
		<polygon
   style="clip-rule:evenodd;fill:#bf7506;fill-rule:evenodd"
   points="35.149,34.66 37.029,34.819 36.789,36.939 34.989,37.1 "
   id="polygon225" />
	</g>
	<polygon
   style="clip-rule:evenodd;fill:#eddd82;fill-rule:evenodd"
   points="47.029,35.14 46.39,36.1 44.829,35.38 44.989,33.18 47.189,32.939 48.429,34.14 "
   id="polygon229" />
	<path
   style="clip-rule:evenodd;fill:#bfb05a;fill-rule:evenodd"
   d="m 45.31,35.06 3.119,-0.92 c -2.399,3.014 -4.013,5.453 -4.839,7.32 -0.533,1.199 -1.094,3.039 -1.68,5.52 -0.48,1.92 -0.814,3.44 -1,4.56 l -0.44,2.521 -0.8,0.6 -0.32,-0.6 c 0.32,-2.053 0.667,-4.12 1.04,-6.2 0.693,-4.16 1.106,-6.293 1.239,-6.399 0.214,-0.16 1.041,-1.48 2.48,-3.96 z"
   id="path231"
   inkscape:connector-curvature="0" />
	<path
   style="clip-rule:evenodd;fill:#e3d276;fill-rule:evenodd"
   d="m 44.989,33.18 1.561,1.56 c -1.627,2.08 -2.827,4.174 -3.601,6.28 -0.986,2.747 -1.826,5.84 -2.52,9.28 -0.347,1.733 -0.6,3.187 -0.76,4.359 l -1.08,-0.16 c 0.053,-0.934 0.187,-2.12 0.399,-3.56 0.454,-2.933 1.094,-5.72 1.921,-8.36 0.853,-2.72 1.786,-5.106 2.8,-7.159 0.507,-1.014 0.934,-1.76 1.28,-2.24 z"
   id="path233"
   inkscape:connector-curvature="0" />
	<path
   style="clip-rule:evenodd;fill:#ffffff;fill-rule:evenodd"
   d="m 38.869,54.659 0.721,0.12 c 0.24,-0.054 0.413,-0.12 0.52,-0.2 -0.08,0.213 -0.267,0.32 -0.56,0.32 -0.187,0 -0.36,-0.04 -0.521,-0.12 z"
   id="path235"
   inkscape:connector-curvature="0" />
	<path
   style="clip-rule:evenodd;fill:#ffffff;fill-rule:evenodd"
   d="m 36.59,54.899 0.64,0.2 h 0.64 c -0.373,0.16 -0.64,0.199 -0.8,0.12 z"
   id="path237"
   inkscape:connector-curvature="0" />
	<path
   style="clip-rule:evenodd;fill:#ffffff;fill-rule:evenodd"
   d="m 34.43,55.26 c -0.317,0.035 -0.57,0.022 -0.76,-0.04 l -0.36,-0.12 -0.76,0.199 c -0.106,0.027 -0.307,-0.026 -0.6,-0.16 l -0.36,-0.16 0.56,0.2 c 0.294,0 0.521,-0.026 0.681,-0.079 l 0.52,-0.121 0.8,0.241 c 0.094,0.027 0.188,0.04 0.279,0.04 z"
   id="path239"
   inkscape:connector-curvature="0" />
	<path
   style="clip-rule:evenodd;fill:#ffffff;fill-rule:evenodd"
   d="m 29.83,53.979 0.72,-0.239 c 0,0.16 -0.267,0.253 -0.8,0.28 l -1.24,-0.16 0.2,-0.12 z"
   id="path241"
   inkscape:connector-curvature="0" />
	<path
   style="clip-rule:evenodd;fill:#ffffff;fill-rule:evenodd"
   d="m 26.35,45.06 1.561,0.32 0.92,6.72 c 0.613,4.8 0.88,7.92 0.8,9.359 -0.135,2.507 -1.228,-2.96 -3.281,-16.399 z"
   id="path243"
   inkscape:connector-curvature="0" />
	
		<use
   xlink:href="#flash0.ai_x5F_1_x2F_Layer_8_copy_x2F__x3C_Path_x3E__x5F_1"
   width="24.9"
   height="26.584999"
   y="-26.584999"
   transform="matrix(0.8,0,0,-0.8,-22.23479,111.49436)"
   style="overflow:visible;opacity:0.35940001;enable-background:new"
   id="use245"
   x="0" />
	<path
   style="clip-rule:evenodd;fill:#ccf6ff;fill-rule:evenodd"
   d="m 28.51,46.14 c -1.707,-0.32 -2.973,-0.747 -3.8,-1.28 l 3.32,17.561 V 62.5 c 0,0.534 0.6,0.974 1.8,1.32 1.2,0.373 2.653,0.56 4.359,0.56 1.707,0 3.16,-0.187 4.36,-0.56 1.2,-0.347 1.8,-0.786 1.8,-1.32 v -0.08 l 3.279,-17.4 c -1.945,1.093 -5.053,1.64 -9.319,1.64 -2.106,-10e-4 -4.039,-0.174 -5.799,-0.52 z m -4.72,-2.521 v -0.08 h 0.041 V 43.46 h 1.88 c 0,0.586 0.853,1.093 2.56,1.52 1.707,0.427 3.761,0.64 6.16,0.64 2.4,0 4.453,-0.213 6.16,-0.64 1.707,-0.427 2.56,-0.934 2.56,-1.52 h 1.64 v 0.079 h 0.04 l -3.8,21.16 v 0.08 c 0,0.56 -0.653,1.04 -1.96,1.44 -1.307,0.399 -2.894,0.6 -4.76,0.6 -1.866,0 -3.453,-0.2 -4.76,-0.6 -1.307,-0.4 -1.96,-0.881 -1.96,-1.44 v -0.08 l -3.76,-20.92 z"
   id="path247"
   inkscape:connector-curvature="0" />
	<path
   style="clip-rule:evenodd;fill:#ffffff;fill-rule:evenodd"
   d="m 40.069,63.179 c 0.427,0.347 0.521,0.827 0.28,1.44 -0.267,0.613 -0.773,1.04 -1.52,1.28 -1.44,0.426 -3.4,0.613 -5.88,0.56 -1.974,-0.053 -3.333,-0.48 -4.081,-1.28 -0.4,-0.453 -0.573,-0.853 -0.52,-1.2 0.107,-0.426 0.68,-0.453 1.72,-0.079 1.093,0.32 2.466,0.479 4.12,0.479 1.307,0 2.48,-0.106 3.521,-0.319 1.013,-0.214 1.746,-0.507 2.2,-0.881 z"
   id="path249"
   inkscape:connector-curvature="0" />
</g>
</svg>