<?xml version="1.0" encoding="UTF-8" standalone="no"?>
<!-- Generator: Adobe Illustrator 15.1.0, SVG Export Plug-In . SVG Version: 6.00 Build 0)  -->

<svg
   xmlns:dc="http://purl.org/dc/elements/1.1/"
   xmlns:cc="http://creativecommons.org/ns#"
   xmlns:rdf="http://www.w3.org/1999/02/22-rdf-syntax-ns#"
   xmlns:svg="http://www.w3.org/2000/svg"
   xmlns="http://www.w3.org/2000/svg"
   xmlns:xlink="http://www.w3.org/1999/xlink"
   xmlns:sodipodi="http://sodipodi.sourceforge.net/DTD/sodipodi-0.dtd"
   xmlns:inkscape="http://www.inkscape.org/namespaces/inkscape"
   version="1.1"
   id="flash0.ai"
   x="0px"
   y="0px"
   width="256"
   height="256"
   viewBox="0 0 256.00001 256.00001"
   xml:space="preserve"
   sodipodi:docname="zucchini.svg"
   inkscape:version="0.92.4 (5da689c313, 2019-01-14)"
   inkscape:export-xdpi="10.5"
   inkscape:export-ydpi="10.5"><title
   id="title931">Zucchini</title><metadata
   id="metadata124"><rdf:RDF><cc:Work
       rdf:about=""><dc:format>image/svg+xml</dc:format><dc:type
         rdf:resource="http://purl.org/dc/dcmitype/StillImage" /><dc:title>Zucchini</dc:title><cc:license
         rdf:resource="http://creativecommons.org/publicdomain/zero/1.0/" /><dc:creator><cc:Agent><dc:title>Glitch</dc:title></cc:Agent></dc:creator><dc:source>https://opengameart.org/node/20149</dc:source></cc:Work><cc:License
       rdf:about="http://creativecommons.org/publicdomain/zero/1.0/"><cc:permits
         rdf:resource="http://creativecommons.org/ns#Reproduction" /><cc:permits
         rdf:resource="http://creativecommons.org/ns#Distribution" /><cc:permits
         rdf:resource="http://creativecommons.org/ns#DerivativeWorks" /></cc:License></rdf:RDF></metadata><defs
   id="defs122" /><sodipodi:namedview
   pagecolor="#ffffff"
   bordercolor="#666666"
   borderopacity="1"
   objecttolerance="10"
   gridtolerance="10"
   guidetolerance="10"
   inkscape:pageopacity="0"
   inkscape:pageshadow="2"
   inkscape:window-width="1920"
   inkscape:window-height="1025"
   id="namedview120"
   showgrid="false"
   inkscape:zoom="0.75034715"
   inkscape:cx="-182.76402"
   inkscape:cy="103.51138"
   inkscape:window-x="-8"
   inkscape:window-y="-8"
   inkscape:window-maximized="1"
   inkscape:current-layer="flash0.ai"
   fit-margin-top="0"
   fit-margin-left="0"
   fit-margin-right="0"
   fit-margin-bottom="0" />
<symbol
   id="flash0.ai_x5F_1_x2F_Layer_18_x2F__x3C_Path_x3E__x5F_39"
   viewBox="0 -30.417 30.81 30.425"
   transform="translate(100.13759,100.35377)">
	<g
   id="Layer_1_5_">
		<path
   style="clip-rule:evenodd;fill:#e4ff9e;fill-rule:evenodd"
   d="m 23.95,-19.3 c -0.8,1.3 -1.5,2.316 -2.1,3.05 l -0.55,0.7 c -1.966,2.433 -4.167,4.45 -6.6,6.05 C 12.067,-8 10.15,-6.9 8.95,-6.2 8.45,-5.9 6.533,-5.067 3.2,-3.7 1.1,-2.833 0.033,-2 0,-1.2 l 0.1,0.3 c 0.033,0.3 0.167,0.533 0.4,0.7 0.267,0.167 0.683,0.233 1.25,0.2 l 0.1,-0.05 1.3,-0.2 3.45,-0.95 c 1.8,-0.466 4.017,-1.617 6.65,-3.45 2.633,-1.833 5.133,-3.983 7.5,-6.45 2.433,-2.6 4.75,-5.983 6.95,-10.15 0.908,-1.733 1.649,-3.284 2.225,-4.65 l -0.325,0.85 c 0.733,-1.6 1.133,-3.034 1.2,-4.3 0.067,-0.8 -0.183,-1.15 -0.75,-1.05 -0.6,0.066 -1.117,0.65 -1.55,1.75 -0.533,1.367 -1,2.5 -1.4,3.4 -0.7,1.567 -1.75,3.55 -3.15,5.95 z"
   id="path2"
   inkscape:connector-curvature="0" />
	</g>
</symbol>
<symbol
   id="flash0.ai_x5F_1_x2F_Layer_18_x2F__x3C_Path_x3E__x5F_40"
   viewBox="0 -26.764 34.35 26.764"
   transform="translate(100.13759,100.35377)">
	<g
   id="Layer_1_4_">
		<path
   style="clip-rule:evenodd;fill-rule:evenodd"
   d="m 25.1,-21.25 c -1.3,2.5 -2.367,4.333 -3.2,5.5 -1.566,2.133 -2.833,3.7 -3.8,4.7 -1.033,1.1 -2.533,2.433 -4.5,4 C 12.433,-6.117 10.217,-5 6.95,-3.7 3.717,-2.433 1.4,-1.2 0,0 0.233,-0.1 0.45,-0.133 0.65,-0.1 1.15,-0.2 2.267,-0.683 4,-1.55 c 0.333,-0.167 2.067,-0.767 5.2,-1.8 2.2,-0.7 4.583,-2.05 7.15,-4.05 3.633,-2.8 6.55,-6.517 8.75,-11.15 l 0.6,-1.25 c 0.466,-0.967 0.8,-1.767 1,-2.4 l 0.05,-0.3 c 0.967,-2.067 1.683,-3.033 2.15,-2.9 0.3,0.1 0.883,0.5 1.75,1.2 0.467,0.167 1.217,0.117 2.25,-0.15 0.6,-0.167 1.083,0.25 1.45,1.25 -0.3,-1.6 -1.267,-2.717 -2.9,-3.35 -1.6,-0.566 -2.817,-0.367 -3.65,0.6 -0.633,0.767 -1.533,2.3 -2.7,4.6 z"
   id="path6"
   inkscape:connector-curvature="0" />
	</g>
</symbol>
<symbol
   id="flash0.ai_x5F_1_x2F_Layer_18_x2F__x3C_Path_x3E__x5F_41"
   viewBox="-0.003 -31.632 31.928 31.632"
   transform="translate(100.13759,100.35377)">
	<g
   id="Layer_1_3_">
		<path
   style="clip-rule:evenodd;fill:#e4ff9e;fill-rule:evenodd"
   d="m 9.15,-2.35 c 2.1,-1.1 3.95,-2.233 5.55,-3.4 4.4,-3.367 8.283,-7.517 11.65,-12.45 2.333,-3.466 4.083,-7.083 5.25,-10.85 0.1,-0.5 0.2,-0.967 0.3,-1.4 0.033,-0.2 0.033,-0.4 0,-0.6 -0.133,-0.534 -0.45,-0.7 -0.95,-0.5 -0.534,0.233 -0.983,0.833 -1.35,1.8 l -0.65,1.8 0.55,-1.35 c -1.5,4.4 -3.367,8.2 -5.6,11.4 -3.633,5.367 -8.367,9.733 -14.2,13.1 -1.933,1.133 -4.067,1.883 -6.4,2.25 -1.733,0.3 -2.8,0.767 -3.2,1.4 -0.267,0.4 -0.017,0.717 0.75,0.95 0.567,0.133 1.233,0.2 2,0.2 1.667,-0.267 3.767,-1.05 6.3,-2.35 z"
   id="path10"
   inkscape:connector-curvature="0" />
	</g>
</symbol>
<symbol
   id="flash0.ai_x5F_1_x2F_Layer_18_x2F__x3C_Path_x3E__x5F_42"
   viewBox="-0.001 -31.95 33.851 31.956"
   transform="translate(100.13759,100.35377)">
	<g
   id="Layer_1_2_">
		<path
   style="clip-rule:evenodd;fill:#e9ff57;fill-rule:evenodd"
   d="m 31.3,-23.95 c -2.2,4.167 -4.517,7.55 -6.95,10.15 -2.367,2.466 -4.867,4.617 -7.5,6.45 C 14.217,-5.517 12,-4.367 10.2,-3.9 7.5,-3.167 5.983,-2.783 5.65,-2.75 4.317,-2.583 3.633,-2.95 3.6,-3.85 3.567,-4.683 4.617,-5.533 6.75,-6.4 c 3.467,-1.434 5.4,-2.267 5.8,-2.5 1.2,-0.7 3.117,-1.8 5.75,-3.3 2.434,-1.6 4.633,-3.617 6.6,-6.05 1.934,-2.4 3.717,-5.333 5.35,-8.8 0.833,-1.733 1.467,-3.233 1.9,-4.5 -0.633,1.733 -1.566,3.7 -2.8,5.9 -2.4,4.433 -4.983,7.867 -7.75,10.3 -2.067,1.8 -4.65,3.55 -7.75,5.25 -2.6,1.434 -4.633,2.367 -6.1,2.8 -2,0.566 -3.15,0.883 -3.45,0.95 -1.133,0.2 -1.933,0 -2.4,-0.6 -0.433,-0.567 -0.233,-1.183 0.6,-1.85 0.8,-0.6 2.3,-1.4 4.5,-2.4 1.433,-0.667 3.267,-1.3 5.5,-1.9 2.133,-0.8 4.483,-2.3 7.05,-4.5 1.567,-1.333 3.15,-3.117 4.75,-5.35 1.167,-1.6 2.15,-3.15 2.95,-4.65 1,-1.833 1.533,-3.283 1.6,-4.35 -0.467,1.5 -1.267,3.233 -2.4,5.2 -2.2,3.967 -4.85,7.167 -7.95,9.6 -2.567,2 -4.95,3.35 -7.15,4.05 -3.033,0.967 -4.767,1.567 -5.2,1.8 -0.933,0.5 -2.017,1 -3.25,1.5 -0.067,0.033 -0.2,0.05 -0.4,0.05 -0.2,0 -0.35,0.033 -0.45,0.1 -1.4,1.3 -2.083,2.683 -2.05,4.15 0.033,1.3 0.583,2.483 1.65,3.55 1.067,1 2.3,1.633 3.7,1.9 0.467,0.1 1.1,0.066 1.9,-0.1 -0.8,0 -1.467,-0.067 -2,-0.2 -0.8,-0.2 -1.067,-0.517 -0.8,-0.95 0.4,-0.633 1.466,-1.1 3.2,-1.4 2.333,-0.367 4.467,-1.117 6.4,-2.25 5.833,-3.367 10.567,-7.733 14.2,-13.1 2.233,-3.2 4.1,-7 5.6,-11.4 -0.6,1.567 -1.45,3.4 -2.55,5.5 z"
   id="path14"
   inkscape:connector-curvature="0" />
	</g>
</symbol>
<linearGradient
   id="SVGID_1_"
   gradientUnits="userSpaceOnUse"
   x1="-49.920898"
   y1="1.5434999"
   x2="-3.5546999"
   y2="1.5434999"
   gradientTransform="matrix(-1.1134,-1.0324,1.0324,-1.1134,0.0991,0.0507)">
	<stop
   offset="0"
   style="stop-color:#3A7524"
   id="stop18" />
	<stop
   offset="0.3725"
   style="stop-color:#3D7624"
   id="stop20" />
	<stop
   offset="0.6039"
   style="stop-color:#457A23"
   id="stop22" />
	<stop
   offset="0.7961"
   style="stop-color:#548021"
   id="stop24" />
	<stop
   offset="0.9686"
   style="stop-color:#68881F"
   id="stop26" />
	<stop
   offset="1"
   style="stop-color:#6D8A1E"
   id="stop28" />
</linearGradient>











































<g
   id="g919"
   transform="matrix(4.6007204,0,0,4.6007204,-0.18611962,-0.00919847)"><path
     id="path31"
     d="m 18.625,2.859 c 3.897,1.873 7.364,3.922 10.401,6.149 6.681,5.112 12.578,11.414 17.69,18.905 3.847,5.669 6.705,11.818 8.578,18.448 1.013,3.543 0.052,6.2 -2.884,7.972 -2.886,1.772 -5.163,1.695 -6.833,-0.229 -0.962,-1.164 -2.329,-3.491 -4.101,-6.983 -1.974,-3.797 -3.593,-6.58 -4.858,-8.352 -2.379,-3.239 -4.302,-5.618 -5.77,-7.137 -1.569,-1.67 -3.847,-3.695 -6.833,-6.074 C 22.142,24.039 18.599,22.268 13.386,20.244 8.527,18.372 5.136,16.524 3.212,14.702 0.024,11.716 -0.761,8.603 0.859,5.364 2.327,2.479 4.782,0.733 8.223,0.125 c 2.228,-0.353 5.695,0.557 10.402,2.734 z"
     style="clip-rule:evenodd;fill:url(#SVGID_1_);fill-rule:evenodd"
     inkscape:connector-curvature="0" /><use
     id="use33"
     style="overflow:visible;opacity:0.28130002;enable-background:new"
     transform="matrix(1.5184,0,0,-1.5184,-151.94882,152.42697)"
     y="-31.950001"
     x="-0.001"
     height="31.955999"
     width="33.851002"
     xlink:href="#flash0.ai_x5F_1_x2F_Layer_18_x2F__x3C_Path_x3E__x5F_42" /><use
     id="use35"
     style="overflow:visible;opacity:0.21880002;enable-background:new"
     transform="matrix(1.5184,0,0,-1.5184,-145.34872,152.62717)"
     y="-31.632"
     x="-0.003"
     height="31.632"
     width="31.927999"
     xlink:href="#flash0.ai_x5F_1_x2F_Layer_18_x2F__x3C_Path_x3E__x5F_41" /><use
     id="use37"
     style="overflow:visible;opacity:0.19920002;enable-background:new"
     transform="matrix(1.5184,0,0,-1.5184,-148.69882,167.22727)"
     y="-26.764"
     height="26.764"
     width="34.349998"
     xlink:href="#flash0.ai_x5F_1_x2F_Layer_18_x2F__x3C_Path_x3E__x5F_40"
     x="0" /><use
     id="use39"
     style="overflow:visible;opacity:0.14059999;enable-background:new"
     transform="matrix(1.5184,0,0,-1.5184,-146.49912,156.52707)"
     y="-30.417"
     height="30.424999"
     width="30.809999"
     xlink:href="#flash0.ai_x5F_1_x2F_Layer_18_x2F__x3C_Path_x3E__x5F_39"
     x="0" /><path
     id="path41"
     d="m 4.807,5.744 c 0,0.81 -0.278,1.721 -0.835,2.733 C 3.415,9.438 2.935,9.97 2.53,10.071 2.125,10.172 1.745,10.096 1.391,9.843 0.935,9.438 0.708,8.73 0.708,7.717 0.708,6.655 0.987,5.693 1.543,4.832 2.048,4.124 2.58,3.694 3.137,3.542 3.593,3.441 3.998,3.618 4.352,4.073 4.655,4.529 4.807,5.086 4.807,5.744 Z"
     style="clip-rule:evenodd;fill:#a6cf4f;fill-rule:evenodd"
     inkscape:connector-curvature="0" /><path
     id="path43"
     d="m 16.575,9.919 0.303,0.304 c 0.304,0.253 0.608,0.354 0.911,0.303 l 0.835,-0.076 c -0.102,0.658 -0.456,0.911 -1.063,0.759 -0.354,-0.102 -0.632,-0.354 -0.835,-0.759 z"
     style="clip-rule:evenodd;fill:#336315;fill-rule:evenodd"
     inkscape:connector-curvature="0" /><path
     id="path45"
     d="m 28.343,15.386 0.152,0.532 c 0.151,0.405 0.405,0.632 0.759,0.683 0.607,0.102 1.012,-0.025 1.214,-0.38 -0.05,0.659 -0.329,1.038 -0.834,1.139 -0.304,0.051 -0.608,-0.025 -0.911,-0.228 -0.254,-0.152 -0.405,-0.379 -0.456,-0.684 z"
     style="clip-rule:evenodd;fill:#336315;fill-rule:evenodd"
     inkscape:connector-curvature="0" /><path
     id="path47"
     d="m 36.314,23.661 c 0.058,0.222 0.208,0.374 0.455,0.456 0.507,0.253 0.861,0.278 1.063,0.076 -0.254,0.557 -0.633,0.734 -1.139,0.532 -0.305,-0.102 -0.431,-0.405 -0.38,-0.911 v -0.153 z"
     style="clip-rule:evenodd;fill:#336315;fill-rule:evenodd"
     inkscape:connector-curvature="0" /><path
     id="path49"
     d="m 28.039,22.446 c 0.202,0.81 -0.025,1.164 -0.683,1.063 -0.354,-0.051 -0.633,-0.177 -0.835,-0.38 l -0.152,-0.228 0.759,0.076 c 0.506,0.001 0.81,-0.176 0.911,-0.531 z"
     style="clip-rule:evenodd;fill:#336315;fill-rule:evenodd"
     inkscape:connector-curvature="0" /><path
     id="path51"
     d="m 14.525,15.614 0.152,0.228 c 0.101,0.102 0.278,0.177 0.531,0.228 l 0.835,-0.076 c 0.152,0.506 -0.05,0.709 -0.607,0.607 -0.354,-0.051 -0.607,-0.228 -0.759,-0.532 z"
     style="clip-rule:evenodd;fill:#336315;fill-rule:evenodd"
     inkscape:connector-curvature="0" /><path
     id="path53"
     d="m 34.948,29.204 0.075,0.455 c 0.102,0.253 0.253,0.404 0.455,0.455 0.354,0.102 0.634,0.102 0.836,0 0,0.506 -0.304,0.658 -0.911,0.456 -0.354,-0.102 -0.531,-0.354 -0.531,-0.76 z"
     style="clip-rule:evenodd;fill:#336315;fill-rule:evenodd"
     inkscape:connector-curvature="0" /><path
     id="path55"
     d="m 39.124,31.253 -0.077,0.304 c -0.05,0.203 0.051,0.38 0.305,0.532 0.294,0.21 0.496,0.286 0.607,0.228 -0.37,0.336 -0.699,0.336 -0.987,0 -0.202,-0.203 -0.254,-0.431 -0.152,-0.684 z"
     style="clip-rule:evenodd;fill:#336315;fill-rule:evenodd"
     inkscape:connector-curvature="0" /><path
     id="path57"
     d="M 30.468,10.603 31,11.058 31.607,11.21 c 0.05,0.253 -0.127,0.303 -0.532,0.152 -0.202,-0.051 -0.379,-0.203 -0.531,-0.456 z"
     style="clip-rule:evenodd;fill:#336315;fill-rule:evenodd"
     inkscape:connector-curvature="0" /><path
     id="path59"
     d="m 44.894,34.669 0.075,0.38 c 0.102,0.202 0.254,0.329 0.456,0.38 0.354,0.051 0.582,0.051 0.683,0 0.052,0.456 -0.177,0.607 -0.683,0.456 -0.354,-0.102 -0.557,-0.329 -0.607,-0.684 z"
     style="clip-rule:evenodd;fill:#336315;fill-rule:evenodd"
     inkscape:connector-curvature="0" /><path
     id="path61"
     d="m 43.527,41.807 v 0.228 c 0,0.151 0.126,0.329 0.379,0.531 0.405,0.304 0.684,0.354 0.835,0.151 -0.253,0.404 -0.607,0.432 -1.063,0.077 -0.304,-0.203 -0.405,-0.431 -0.304,-0.684 z"
     style="clip-rule:evenodd;fill:#336315;fill-rule:evenodd"
     inkscape:connector-curvature="0" /><path
     id="path63"
     d="m 46.64,49.93 v 0.228 c 0.05,0.151 0.127,0.254 0.228,0.305 0.254,0.05 0.455,-0.051 0.607,-0.305 0.102,0.456 -0.075,0.659 -0.531,0.608 -0.304,-0.052 -0.43,-0.203 -0.38,-0.457 z"
     style="clip-rule:evenodd;fill:#336315;fill-rule:evenodd"
     inkscape:connector-curvature="0" /><path
     id="path65"
     d="m 52.485,44.235 c 0,0.152 0.076,0.304 0.229,0.456 0.252,0.202 0.506,0.202 0.759,0 -0.052,0.354 -0.304,0.431 -0.759,0.228 C 52.41,44.818 52.309,44.64 52.41,44.388 Z"
     style="clip-rule:evenodd;fill:#336315;fill-rule:evenodd"
     inkscape:connector-curvature="0" /><path
     id="path67"
     d="m 44.514,27.609 v 0.304 c 0.051,0.202 0.152,0.354 0.304,0.455 0.253,0.152 0.531,0.254 0.835,0.304 -0.557,0.102 -0.937,0.076 -1.139,-0.076 -0.152,-0.101 -0.202,-0.303 -0.152,-0.607 z"
     style="clip-rule:evenodd;fill:#336315;fill-rule:evenodd"
     inkscape:connector-curvature="0" /><path
     id="path69"
     d="m 48.081,41.807 c -0.05,0.151 0,0.329 0.153,0.531 0.304,0.354 0.581,0.481 0.835,0.379 -0.254,0.354 -0.557,0.404 -0.911,0.152 C 47.955,42.666 47.88,42.413 47.93,42.11 Z"
     style="clip-rule:evenodd;fill:#336315;fill-rule:evenodd"
     inkscape:connector-curvature="0" /><path
     id="path71"
     d="M 40.338,38.922 C 40.236,38.77 40.187,38.592 40.187,38.39 l 0.076,-0.304 0.303,0.456 c 0.352,0.25 0.58,0.327 0.684,0.228 -0.306,0.302 -0.608,0.353 -0.912,0.152 z"
     style="clip-rule:evenodd;fill:#336315;fill-rule:evenodd"
     inkscape:connector-curvature="0" /><path
     id="path73"
     d="m 17.79,20.776 0.607,0.38 c 0.354,0.102 0.633,0.102 0.835,0 -0.102,0.253 -0.354,0.354 -0.759,0.304 -0.253,-0.05 -0.43,-0.177 -0.532,-0.379 z"
     style="clip-rule:evenodd;fill:#336315;fill-rule:evenodd"
     inkscape:connector-curvature="0" /><path
     id="path75"
     d="m 21.282,9.464 v 0.228 c 0,0.152 0.151,0.278 0.455,0.379 0.456,0.203 0.759,0.228 0.912,0.076 -0.405,0.607 -0.836,0.709 -1.291,0.304 C 21.054,10.198 20.953,9.97 21.054,9.767 Z"
     style="clip-rule:evenodd;fill:#336315;fill-rule:evenodd"
     inkscape:connector-curvature="0" /><path
     id="path77"
     d="m 11.488,1.644 0.076,0.228 c 0.102,0.151 0.279,0.253 0.531,0.303 L 12.931,2.1 C 12.981,2.454 12.728,2.58 12.172,2.48 11.818,2.43 11.59,2.277 11.488,2.024 Z"
     style="clip-rule:evenodd;fill:#336315;fill-rule:evenodd"
     inkscape:connector-curvature="0" /><path
     id="path79"
     d="m 10.274,15.538 c 0.151,0.151 0.328,0.228 0.531,0.228 0.354,0 0.532,-0.152 0.532,-0.456 0.102,0.608 -0.076,0.835 -0.532,0.684 -0.253,-0.051 -0.43,-0.203 -0.531,-0.456 z"
     style="clip-rule:evenodd;fill:#336315;fill-rule:evenodd"
     inkscape:connector-curvature="0" /><path
     id="path81"
     d="m 30.089,15.234 c 0.455,0.81 0.379,1.114 -0.228,0.911 -0.659,-0.253 -0.987,-0.557 -0.987,-0.911 -0.051,-0.253 0.126,-0.354 0.531,-0.304 0.304,0.051 0.532,0.152 0.684,0.304 z"
     style="clip-rule:evenodd;fill:#70a837;fill-rule:evenodd"
     inkscape:connector-curvature="0" /><path
     id="path83"
     d="M 12.931,1.568 C 13.184,1.922 13.032,1.973 12.475,1.72 11.969,1.467 11.766,1.315 11.868,1.264 12.222,1.113 12.577,1.214 12.931,1.568 Z"
     style="clip-rule:evenodd;fill:#91ba4e;fill-rule:evenodd"
     inkscape:connector-curvature="0" /><path
     id="path85"
     d="m 18.397,9.692 c 0.102,0.405 -0.126,0.506 -0.683,0.303 C 17.461,9.945 17.233,9.844 17.03,9.692 16.828,9.489 16.777,9.313 16.878,9.16 17.03,9.008 17.283,8.983 17.637,9.084 c 0.406,0.102 0.659,0.304 0.76,0.608 z"
     style="clip-rule:evenodd;fill:#91ba4e;fill-rule:evenodd"
     inkscape:connector-curvature="0" /><path
     id="path87"
     d="M 22.497,9.54 C 22.801,9.945 22.7,10.046 22.193,9.844 21.687,9.591 21.46,9.388 21.51,9.236 c 0.051,-0.151 0.177,-0.202 0.38,-0.151 0.202,0.101 0.404,0.252 0.607,0.455 z"
     style="clip-rule:evenodd;fill:#91ba4e;fill-rule:evenodd"
     inkscape:connector-curvature="0" /><path
     id="path89"
     d="m 15.968,15.31 c 0.303,0.304 0.177,0.456 -0.379,0.456 -0.506,0 -0.811,-0.102 -0.911,-0.304 -0.102,-0.202 0.05,-0.329 0.455,-0.379 0.405,-0.05 0.683,0.024 0.835,0.227 z"
     style="clip-rule:evenodd;fill:#70a837;fill-rule:evenodd"
     inkscape:connector-curvature="0" /><path
     id="path91"
     d="m 11.033,14.475 c 0.607,0.405 0.43,0.709 -0.532,0.911 l -0.304,-0.304 c -0.152,-0.101 -0.101,-0.253 0.152,-0.455 0.253,-0.203 0.482,-0.254 0.684,-0.152 z"
     style="clip-rule:evenodd;fill:#70a837;fill-rule:evenodd"
     inkscape:connector-curvature="0" /><path
     id="path93"
     d="m 18.853,20.7 c 0.658,0.405 0.405,0.456 -0.759,0.152 -0.152,-0.102 -0.102,-0.177 0.152,-0.229 0.253,-0.049 0.455,-0.024 0.607,0.077 z"
     style="clip-rule:evenodd;fill:#70a837;fill-rule:evenodd"
     inkscape:connector-curvature="0" /><path
     id="path95"
     d="m 27.887,22.219 c -0.354,0.456 -0.683,0.632 -0.987,0.532 -0.354,-0.152 -0.405,-0.329 -0.152,-0.532 0.202,-0.152 0.481,-0.228 0.835,-0.228 0.304,0 0.405,0.076 0.304,0.228 z"
     style="clip-rule:evenodd;fill:#70a837;fill-rule:evenodd"
     inkscape:connector-curvature="0" /><path
     id="path97"
     d="m 30.696,10.451 c 0.152,-0.05 0.329,-0.025 0.531,0.076 0.202,0.152 0.329,0.329 0.38,0.531 0.102,0.203 -0.202,0 -0.911,-0.607 z"
     style="clip-rule:evenodd;fill:#70a837;fill-rule:evenodd"
     inkscape:connector-curvature="0" /><path
     id="path99"
     d="m 37.833,23.661 c -0.304,0.202 -0.607,0.202 -0.911,0 -0.304,-0.203 -0.405,-0.405 -0.304,-0.607 0.102,-0.203 0.405,-0.203 0.911,0 0.506,0.202 0.607,0.404 0.304,0.607 z"
     style="clip-rule:evenodd;fill:#699e33;fill-rule:evenodd"
     inkscape:connector-curvature="0" /><path
     id="path101"
     d="m 36.314,29.204 c 0.253,0.354 0.178,0.53 -0.228,0.53 -0.354,0 -0.658,-0.126 -0.911,-0.38 -0.202,-0.252 -0.102,-0.404 0.303,-0.455 0.407,-0.049 0.684,0.051 0.836,0.305 z"
     style="clip-rule:evenodd;fill:#699e33;fill-rule:evenodd"
     inkscape:connector-curvature="0" /><path
     id="path103"
     d="m 39.959,31.633 c 0.202,0.405 0.126,0.48 -0.229,0.229 -0.354,-0.203 -0.531,-0.431 -0.531,-0.684 0,-0.203 0.102,-0.228 0.304,-0.076 0.203,0.1 0.354,0.278 0.456,0.531 z"
     style="clip-rule:evenodd;fill:#699e33;fill-rule:evenodd"
     inkscape:connector-curvature="0" /><path
     id="path105"
     d="m 45.577,27.836 c 0.253,0.355 0.228,0.481 -0.076,0.379 -0.354,-0.05 -0.582,-0.227 -0.684,-0.531 -0.151,-0.253 -0.076,-0.329 0.228,-0.228 0.253,0.103 0.431,0.229 0.532,0.38 z"
     style="clip-rule:evenodd;fill:#699e33;fill-rule:evenodd"
     inkscape:connector-curvature="0" /><path
     id="path107"
     d="m 45.957,34.594 c 0.354,0.354 0.354,0.531 0,0.531 -0.354,0 -0.608,-0.126 -0.76,-0.379 -0.152,-0.254 -0.102,-0.38 0.151,-0.38 0.304,0 0.507,0.075 0.609,0.228 z"
     style="clip-rule:evenodd;fill:#699e33;fill-rule:evenodd"
     inkscape:connector-curvature="0" /><path
     id="path109"
     d="m 41.325,38.01 c 0.202,0.305 0.127,0.431 -0.228,0.38 -0.354,-0.102 -0.607,-0.253 -0.76,-0.455 -0.05,-0.202 0.076,-0.304 0.38,-0.304 0.304,0.05 0.508,0.177 0.608,0.379 z"
     style="clip-rule:evenodd;fill:#699e33;fill-rule:evenodd"
     inkscape:connector-curvature="0" /><path
     id="path111"
     d="m 44.666,41.882 c 0.202,0.456 0.126,0.633 -0.228,0.531 -0.305,-0.151 -0.557,-0.379 -0.76,-0.683 -0.151,-0.253 -0.051,-0.354 0.304,-0.304 0.304,0.052 0.532,0.203 0.684,0.456 z"
     style="clip-rule:evenodd;fill:#699e33;fill-rule:evenodd"
     inkscape:connector-curvature="0" /><path
     id="path113"
     d="m 49.069,41.807 c 0.203,0.354 0.229,0.557 0.075,0.606 -0.201,0.102 -0.404,0 -0.606,-0.303 -0.203,-0.254 -0.203,-0.405 0,-0.456 0.252,-0.1 0.43,-0.05 0.531,0.153 z"
     style="clip-rule:evenodd;fill:#699e33;fill-rule:evenodd"
     inkscape:connector-curvature="0" /><path
     id="path115"
     d="m 53.245,43.933 c 0.253,0.405 0.228,0.556 -0.076,0.455 -0.304,-0.05 -0.532,-0.203 -0.684,-0.455 -0.05,-0.203 0,-0.304 0.151,-0.304 0.204,0 0.406,0.1 0.609,0.304 z"
     style="clip-rule:evenodd;fill:#699e33;fill-rule:evenodd"
     inkscape:connector-curvature="0" /><path
     id="path117"
     d="m 47.322,49.474 c 0.304,0.354 0.329,0.583 0.077,0.684 -0.254,0.051 -0.507,-0.024 -0.76,-0.228 -0.152,-0.151 -0.101,-0.303 0.151,-0.456 0.254,-0.152 0.432,-0.152 0.532,0 z"
     style="clip-rule:evenodd;fill:#699e33;fill-rule:evenodd"
     inkscape:connector-curvature="0" /></g>
</svg>