<?xml version="1.0" encoding="UTF-8" standalone="no"?>
<!-- Created with Inkscape (http://www.inkscape.org/) -->

<svg
   xmlns:dc="http://purl.org/dc/elements/1.1/"
   xmlns:cc="http://creativecommons.org/ns#"
   xmlns:rdf="http://www.w3.org/1999/02/22-rdf-syntax-ns#"
   xmlns:svg="http://www.w3.org/2000/svg"
   xmlns="http://www.w3.org/2000/svg"
   xmlns:xlink="http://www.w3.org/1999/xlink"
   xmlns:sodipodi="http://sodipodi.sourceforge.net/DTD/sodipodi-0.dtd"
   xmlns:inkscape="http://www.inkscape.org/namespaces/inkscape"
   id="svg5992"
   sodipodi:modified="TRUE"
   viewBox="0 0 251.94629 256.00001"
   version="1.0"
   inkscape:output_extension="org.inkscape.output.svg.inkscape"
   sodipodi:docname="chest_01_open.svg"
   inkscape:version="0.92.4 (5da689c313, 2019-01-14)"
   sodipodi:version="0.32"
   width="251.9463"
   height="256">
  <title
     id="title878">Chest</title>
  <defs
     id="defs5994">
    <radialGradient
       id="radialGradient5984"
       xlink:href="#linearGradient10523"
       gradientUnits="userSpaceOnUse"
       cy="423.85001"
       cx="2442.7"
       gradientTransform="matrix(0.19966,0.033446,0,0.18828,1658.4,173.48)"
       r="82.646004"
       inkscape:collect="always" />
    <linearGradient
       id="linearGradient5982"
       y2="272.81"
       xlink:href="#linearGradient10506"
       gradientUnits="userSpaceOnUse"
       x2="2191"
       gradientTransform="matrix(-0.99259,0.14866,0.025075,1.0037,4410.1,-275.65)"
       y1="203.92999"
       x1="2152.8999"
       inkscape:collect="always" />
    <linearGradient
       id="linearGradient5980"
       y2="251.96001"
       xlink:href="#linearGradient10480"
       gradientUnits="userSpaceOnUse"
       x2="2246.7"
       gradientTransform="matrix(-0.99259,0.14866,0.025075,1.0037,4407.9,-275.33)"
       y1="178.98"
       x1="2192.5"
       inkscape:collect="always" />
    <linearGradient
       id="linearGradient10506">
      <stop
         id="stop10508"
         style="stop-color:#412407"
         offset="0" />
      <stop
         id="stop10510"
         style="stop-color:black"
         offset="1" />
    </linearGradient>
    <linearGradient
       id="linearGradient10480">
      <stop
         id="stop10482"
         style="stop-color:#61360a"
         offset="0" />
      <stop
         id="stop10484"
         style="stop-color:#050200"
         offset="1" />
    </linearGradient>
    <linearGradient
       id="linearGradient10523">
      <stop
         id="stop10525"
         style="stop-color:#dadada"
         offset="0" />
      <stop
         id="stop10527"
         style="stop-color:#888"
         offset="1" />
    </linearGradient>
  </defs>
  <sodipodi:namedview
     id="base"
     bordercolor="#666666"
     inkscape:pageshadow="2"
     inkscape:window-y="-8"
     pagecolor="#ffffff"
     inkscape:window-height="1025"
     inkscape:zoom="1.8154313"
     inkscape:window-x="-8"
     borderopacity="1.0"
     inkscape:current-layer="svg5992"
     inkscape:cx="51.093456"
     inkscape:cy="123.18656"
     inkscape:window-width="1920"
     inkscape:pageopacity="0.0"
     inkscape:document-units="px"
     showgrid="false"
     inkscape:window-maximized="1"
     inkscape:pagecheckerboard="true"
     fit-margin-top="0"
     fit-margin-left="0"
     fit-margin-right="0"
     fit-margin-bottom="0" />
  <g
     id="g932"
     inkscape:label="open_chest"
     transform="matrix(1.2746855,0,0,1.2746855,-78.397525,-180.79247)">
    <path
       inkscape:connector-curvature="0"
       d="m 229.73,145.02 -101.61,0.82 -15.85,64.68 1.36,0.17 -48.257,35 -0.569,-0.08 v 0.48 l -0.114,0.08 0.114,0.03 0.256,27.52 -0.285,-0.06 0.313,20.52 0.171,0.03 c -0.145,2.02 -0.048,6.34 0.114,10.5 l 0.085,8.99 16.22,3.3 v -0.11 l 76.512,15.99 0.06,0.94 15.85,5.66 -0.03,-0.82 9.19,-8.4 23.91,-20.26 0.03,0.28 12.12,-10.3 -6.32,-76.57 0.6,-0.51 1.19,0.14 0.12,-0.65 c 47.09,-8.35 55.97,-62.21 14.74,-76.92 z m -152.06,95.46 -3.33,2.31 h -0.057 z"
       style="fill:#492f17;fill-rule:evenodd;stroke:#000000;stroke-width:6.37400007;stroke-linecap:round;stroke-linejoin:round"
       sodipodi:nodetypes="ccccccccccccccccccccccccccccccccccc"
       id="path5651" />
    <g
       transform="matrix(1.099,0,0,1.099,-2248.8,-94.351)"
       id="g10565">
      <g
         transform="matrix(-0.99259,0.14866,0.025075,1.0037,4410.1,-275.65)"
         id="g10567">
        <path
           inkscape:connector-curvature="0"
           d="m 2193.8,238.64 87.6,-23.14 v 44.19 l -49.3,20.66 z"
           style="fill:#492f17;fill-rule:evenodd"
           sodipodi:nodetypes="ccccc"
           id="path10569" />
        <rect
           x="2643.5"
           y="-1198.4"
           width="47.903"
           height="26.709"
           transform="matrix(0.82845,0.56006,0,1,0,0)"
           inkscape:transform-center-y="15.964748"
           inkscape:transform-center-x="-3.2311253"
           style="color:#000000;fill:#85552b;fill-rule:evenodd"
           id="rect10571" />
        <rect
           x="2576.2"
           y="-1093.8"
           width="46.201"
           height="24.232"
           transform="matrix(0.8506,0.5258,0,1,0,0)"
           inkscape:transform-center-y="14.61411"
           inkscape:transform-center-x="-3.2360271"
           style="color:#000000;fill:#684322;fill-rule:evenodd"
           id="rect10573" />
        <rect
           x="2578.1001"
           y="-1117.3"
           width="45.676998"
           height="23.926001"
           transform="matrix(0.8506,0.5258,0,1,0,0)"
           inkscape:transform-center-y="14.614086"
           inkscape:transform-center-x="-3.235976"
           style="color:#000000;fill:#784d27;fill-rule:evenodd"
           id="rect10575" />
        <path
           inkscape:connector-curvature="0"
           d="m 2230.2,334.68 98.7,-35.2 c 0,0 0.5,-18.56 -0.2,-18.56 -0.8,0 -99.3,33.49 -99.3,33.49 z"
           style="fill:#5e3c1e;fill-rule:evenodd"
           sodipodi:nodetypes="ccscc"
           id="path10577" />
        <path
           inkscape:connector-curvature="0"
           d="m 2230.3,314.6 98.8,-32.72 -0.2,-18.56 -98.7,30.23 z"
           style="fill:#674221;fill-rule:evenodd"
           sodipodi:nodetypes="ccccc"
           id="path10579" />
        <path
           inkscape:connector-curvature="0"
           d="m 2280.7,216.26 v 51.46 l 44.5,-27.93 z"
           style="fill:#1f130a;fill-rule:evenodd"
           sodipodi:nodetypes="cccc"
           id="path10581" />
        <path
           inkscape:connector-curvature="0"
           d="m 2230.2,294.89 0.9,-16.26 96,-27.93 -1.3,22 z"
           style="fill:#794e27;fill-rule:evenodd"
           sodipodi:nodetypes="ccccc"
           id="path10583" />
        <path
           inkscape:connector-curvature="0"
           d="m 2231.5,279.59 0.2,-16.27 96,-25.06 -0.6,14.73 z"
           style="fill:#6b4523;fill-rule:evenodd"
           sodipodi:nodetypes="ccccc"
           id="path10585" />
      </g>
      <path
         inkscape:connector-curvature="0"
         d="m 2239.9,288.74 -9.5,8.74 4.2,70.68 11,-9.36 z"
         style="fill:#412407;fill-rule:evenodd"
         sodipodi:nodetypes="ccccc"
         id="path10587" />
      <path
         inkscape:connector-curvature="0"
         d="m 2210,315.09 -9.5,8.75 4,70.13 10.6,-9.68 z"
         style="fill:#412407;fill-rule:evenodd"
         sodipodi:nodetypes="ccccc"
         id="path10589" />
      <path
         inkscape:connector-curvature="0"
         d="m 2200.8,323.4 -14.3,-2.47 3.6,68.65 14.4,5.16 z"
         style="fill:#512d09;fill-rule:evenodd"
         id="path10591" />
      <path
         inkscape:connector-curvature="0"
         d="m 2117.1,310.98 -12,-1.67 0.6,61.98 14.7,2.99 z"
         style="fill:#512d09;fill-rule:evenodd"
         sodipodi:nodetypes="ccccc"
         id="path10593" />
      <path
         inkscape:connector-curvature="0"
         d="m 2240.9,285.88 -90.2,-7.47 14,-55.79 88.9,-1.87 z"
         style="color:#000000;fill:url(#linearGradient5980);fill-rule:evenodd"
         id="path10595" />
      <path
         inkscape:connector-curvature="0"
         d="m 2154.2,279.66 12,-56.32 c 23.2,-0.28 41.1,45.53 -12,56.32 z"
         style="color:#000000;fill:#1f130a;fill-rule:evenodd"
         sodipodi:nodetypes="ccc"
         id="path10597" />
      <path
         inkscape:connector-curvature="0"
         d="m 2149.6,277.49 91,11.05 -39.6,35.01 -96,-13.73 z m 2.7,3.05 -38.6,26.22 86.6,12.68 31.5,-29.02 z"
         style="fill:#523e2c;fill-rule:evenodd"
         id="path10599" />
      <path
         inkscape:connector-curvature="0"
         d="m 2241.2,285.57 12.8,-63.79 c 24.8,-0.09 44,52.08 -12.8,63.79 z"
         style="color:#000000;fill:url(#linearGradient5982);fill-rule:evenodd"
         sodipodi:nodetypes="ccc"
         id="path10601" />
      <path
         inkscape:connector-curvature="0"
         d="m 2162.7,218.54 92.4,-0.75 -13.6,70.99 -93.2,-11.38 z m 3.9,5.14 -11.1,51.82 84.1,9.23 12.6,-63.23 z"
         style="color:#000000;fill:#523e2c;fill-rule:evenodd"
         id="path10603" />
      <path
         inkscape:connector-curvature="0"
         d="m 2253.9,217.81 c 39.2,12.91 30.9,63.58 -13.4,70.58 z m 1.2,6.45 -10.9,57.09 c 35.8,-5.66 42.6,-46.65 10.9,-57.09 z"
         style="color:#000000;fill:#523e2c;fill-rule:evenodd"
         id="path10605" />
      <path
         inkscape:connector-curvature="0"
         d="m 2223.2,283.76 c -1.8,1.2 -2.5,2.98 -2.9,4.89 l -8.9,-1.4 c -2.1,-0.63 0.4,-4.79 2.4,-4.48 z"
         style="fill:#917f6e;fill-rule:evenodd"
         sodipodi:nodetypes="ccccc"
         id="path10607" />
      <path
         sodipodi:start="3.6184187"
         sodipodi:end="3.6167042"
         sodipodi:cx="2211.8247"
         sodipodi:cy="232.68178"
         transform="matrix(-0.21836,-0.40339,-0.43637,0.58697,2806,1041.9)"
         sodipodi:open="true"
         d="m 2209.0603,230.97435 a 3.1114354,3.7201946 0 0 1 4.1913,-1.59853 3.1114354,3.7201946 0 0 1 1.3387,5.01055 3.1114354,3.7201946 0 0 1 -4.1901,1.60283 3.1114354,3.7201946 0 0 1 -1.3423,-5.00918"
         sodipodi:type="arc"
         style="color:#000000;fill:#b3a69a;fill-rule:evenodd"
         sodipodi:ry="3.7201946"
         sodipodi:rx="3.1114354"
         id="path10609" />
      <path
         inkscape:connector-curvature="0"
         d="m 2176.8,278.11 c -1.8,1.2 -2.5,2.98 -3,4.88 l -8.9,-1.4 c -2,-0.62 0.4,-4.79 2.5,-4.47 z"
         style="fill:#917f6e;fill-rule:evenodd"
         sodipodi:nodetypes="ccccc"
         id="path10611" />
      <path
         sodipodi:start="3.6184187"
         sodipodi:end="3.6167042"
         sodipodi:cx="2211.8247"
         sodipodi:cy="232.68178"
         transform="matrix(-0.21836,-0.40339,-0.43637,0.58697,2759.6,1036.2)"
         sodipodi:open="true"
         d="m 2209.0603,230.97435 a 3.1114354,3.7201946 0 0 1 4.1913,-1.59853 3.1114354,3.7201946 0 0 1 1.3387,5.01055 3.1114354,3.7201946 0 0 1 -4.1901,1.60283 3.1114354,3.7201946 0 0 1 -1.3423,-5.00918"
         sodipodi:type="arc"
         style="color:#000000;fill:#b3a69a;fill-rule:evenodd"
         sodipodi:ry="3.7201946"
         sodipodi:rx="3.1114354"
         id="path10613" />
      <path
         inkscape:connector-curvature="0"
         d="m 2136.9,326.57 c 8.5,-2.64 20.3,-1.62 28.4,4.87 4.5,3.53 3.3,27.87 -13.6,25.16 -15,-2.42 -20.5,-28.28 -14.8,-30.03 z"
         style="fill:url(#radialGradient5984);fill-rule:evenodd"
         sodipodi:nodetypes="csss"
         id="path10615" />
      <path
         inkscape:connector-curvature="0"
         d="m 2150.1,332.32 c -1.2,-0.18 -2.4,0.31 -3,1.39 h -0.1 c -0.8,1.55 -0.2,3.74 1.5,4.93 l -3.3,7.52 10,1.68 -3,-8.81 c 0.5,-0.24 0.8,-0.59 1.1,-1.06 0.9,-1.57 0.2,-3.8 -1.5,-4.98 -0.6,-0.37 -1.1,-0.59 -1.7,-0.67 z"
         style="color:#000000;fill:#000000;fill-rule:evenodd"
         id="path10617" />
    </g>
  </g>
  <metadata
     id="metadata70">
    <rdf:RDF>
      <cc:Work>
        <dc:format>image/svg+xml</dc:format>
        <dc:type
           rdf:resource="http://purl.org/dc/dcmitype/StillImage" />
        <cc:license
           rdf:resource="http://creativecommons.org/publicdomain/zero/1.0/" />
        <dc:publisher>
          <cc:Agent
             rdf:about="http://openclipart.org/">
            <dc:title>OpenClipart Library</dc:title>
          </cc:Agent>
        </dc:publisher>
        <dc:title>Chest</dc:title>
        <dc:date>2006-12-26T00:00:00</dc:date>
        <dc:description />
        <dc:source>https://openclipart.org/detail/3907</dc:source>
        <dc:creator>
          <cc:Agent>
            <dc:title>yeKcim</dc:title>
          </cc:Agent>
        </dc:creator>
      </cc:Work>
      <cc:License
         rdf:about="http://creativecommons.org/publicdomain/zero/1.0/">
        <cc:permits
           rdf:resource="http://creativecommons.org/ns#Reproduction" />
        <cc:permits
           rdf:resource="http://creativecommons.org/ns#Distribution" />
        <cc:permits
           rdf:resource="http://creativecommons.org/ns#DerivativeWorks" />
      </cc:License>
    </rdf:RDF>
  </metadata>
</svg>
