<?xml version="1.0" encoding="UTF-8" standalone="no"?>
<!-- Created with Inkscape (http://www.inkscape.org/) -->

<svg
   xmlns:dc="http://purl.org/dc/elements/1.1/"
   xmlns:cc="http://creativecommons.org/ns#"
   xmlns:rdf="http://www.w3.org/1999/02/22-rdf-syntax-ns#"
   xmlns:svg="http://www.w3.org/2000/svg"
   xmlns="http://www.w3.org/2000/svg"
   xmlns:xlink="http://www.w3.org/1999/xlink"
   xmlns:sodipodi="http://sodipodi.sourceforge.net/DTD/sodipodi-0.dtd"
   xmlns:inkscape="http://www.inkscape.org/namespaces/inkscape"
   id="svg40140"
   sodipodi:docname="gift_01.svg"
   viewBox="0 0 249.94295 256"
   version="1.1"
   inkscape:version="0.92.4 (5da689c313, 2019-01-14)"
   width="249.94296"
   height="256">
  <title
     id="title4597">Gift Box</title>
  <defs
     id="defs40142">
    <linearGradient
       id="linearGradient10804"
       y2="46.68"
       gradientUnits="userSpaceOnUse"
       x2="-21741"
       gradientTransform="matrix(8.6826,1.207,-1.207,8.6826,189330,26162)"
       y1="52.348999"
       x1="-21740"
       inkscape:collect="always">
      <stop
         id="stop11525"
         style="stop-color:#a30b0a"
         offset="0" />
      <stop
         id="stop11527"
         style="stop-color:#ffffff"
         offset="1" />
    </linearGradient>
    <linearGradient
       id="linearGradient10802"
       y2="46.326"
       gradientUnits="userSpaceOnUse"
       x2="-21633"
       gradientTransform="matrix(6.7181,0.93394,-1.1332,8.1512,145930,20157)"
       y1="50.391998"
       x1="-21630"
       inkscape:collect="always">
      <stop
         id="stop11533"
         style="stop-color:#000000"
         offset="0" />
      <stop
         id="stop11535"
         style="stop-color:#000000;stop-opacity:0"
         offset="1" />
    </linearGradient>
    <radialGradient
       id="radialGradient10800"
       xlink:href="#linearGradient11439"
       gradientUnits="userSpaceOnUse"
       cy="43.044998"
       cx="-21778"
       gradientTransform="matrix(-25.253,-1.7847,0.088646,-1.2542,-549630,-38412)"
       r="7.7895999"
       inkscape:collect="always" />
    <linearGradient
       id="linearGradient11439"
       inkscape:collect="always">
      <stop
         id="stop11441"
         style="stop-color:#ffffff"
         offset="0" />
      <stop
         id="stop11443"
         style="stop-color:#ffffff;stop-opacity:0"
         offset="1" />
    </linearGradient>
    <radialGradient
       id="radialGradient10798"
       xlink:href="#linearGradient11439"
       gradientUnits="userSpaceOnUse"
       cy="60.949001"
       cx="-21778"
       gradientTransform="matrix(-25.253,-1.7847,0.088646,-1.2542,-549630,-38412)"
       r="7.7895999"
       inkscape:collect="always" />
    <linearGradient
       id="linearGradient10796"
       y2="48.624001"
       gradientUnits="userSpaceOnUse"
       x2="-21772"
       gradientTransform="matrix(7.9613,0,0,7.9613,173730,-47.182)"
       y1="52.16"
       x1="-21773"
       inkscape:collect="always">
      <stop
         id="stop11475"
         style="stop-color:#000000"
         offset="0" />
      <stop
         id="stop11477"
         style="stop-color:#000000;stop-opacity:0"
         offset="1" />
    </linearGradient>
    <radialGradient
       id="radialGradient10794"
       gradientUnits="userSpaceOnUse"
       cy="43.605"
       cx="-21774"
       gradientTransform="matrix(-43.971,-4.7534,0.2285,-2.1137,-957070,-103110)"
       r="6.6815"
       inkscape:collect="always">
      <stop
         id="stop11457"
         style="stop-color:#ffffff"
         offset="0" />
      <stop
         id="stop11459"
         style="stop-color:#ffffff;stop-opacity:0"
         offset="1" />
    </radialGradient>
    <linearGradient
       id="linearGradient10792"
       y2="42.646999"
       gradientUnits="userSpaceOnUse"
       x2="-21777"
       gradientTransform="matrix(7.9613,0,0,7.9613,173730,-47.182)"
       y1="45.707001"
       x1="-21770"
       inkscape:collect="always">
      <stop
         id="stop11417"
         style="stop-color:#7d0202"
         offset="0" />
      <stop
         id="stop11419"
         style="stop-color:#000000"
         offset="1" />
    </linearGradient>
    <radialGradient
       id="radialGradient10790"
       gradientUnits="userSpaceOnUse"
       cy="40.737"
       cx="-21771"
       gradientTransform="matrix(-32.286,-4.6364,0.43473,-3.0273,-702490,-100540)"
       r="5.9530001"
       inkscape:collect="always">
      <stop
         id="stop11487"
         style="stop-color:#ffffff"
         offset="0" />
      <stop
         id="stop11489"
         style="stop-color:#ffffff;stop-opacity:0"
         offset="1" />
    </radialGradient>
    <linearGradient
       id="linearGradient10788"
       y2="30.858"
       gradientUnits="userSpaceOnUse"
       x2="-21771"
       gradientTransform="matrix(7.9613,0,0,7.9613,173730,-47.182)"
       y1="44.337002"
       x1="-21767"
       inkscape:collect="always">
      <stop
         id="stop11429"
         style="stop-color:#9a0000"
         offset="0" />
      <stop
         id="stop11431"
         style="stop-color:#000000"
         offset="1" />
    </linearGradient>
    <linearGradient
       id="linearGradient10786"
       y2="44.470001"
       gradientUnits="userSpaceOnUse"
       x2="-21767"
       gradientTransform="matrix(7.9613,0,0,7.9613,173730,-47.182)"
       y1="50.171001"
       x1="-21769"
       inkscape:collect="always">
      <stop
         id="stop11499"
         style="stop-color:#000000"
         offset="0" />
      <stop
         id="stop11501"
         style="stop-color:#000000;stop-opacity:0"
         offset="1" />
    </linearGradient>
    <linearGradient
       id="linearGradient10784"
       y2="46.148998"
       gradientUnits="userSpaceOnUse"
       x2="-21775"
       gradientTransform="matrix(7.9613,0,0,7.9613,173730,-47.182)"
       y1="53.043999"
       x1="-21770"
       inkscape:collect="always">
      <stop
         id="stop11407"
         style="stop-color:#950101"
         offset="0" />
      <stop
         id="stop11409"
         style="stop-color:#000000"
         offset="1" />
    </linearGradient>
    <linearGradient
       id="linearGradient10782"
       y2="46.362"
       gradientUnits="userSpaceOnUse"
       x2="-21785"
       gradientTransform="matrix(9.1941,0,0,9.1941,200590,-114.94)"
       y1="49.424999"
       x1="-21770"
       inkscape:collect="always">
      <stop
         id="stop11577"
         style="stop-color:#000000"
         offset="0" />
      <stop
         id="stop11579"
         style="stop-color:#000000;stop-opacity:0"
         offset="1" />
    </linearGradient>
    <radialGradient
       id="radialGradient10780"
       gradientUnits="userSpaceOnUse"
       cy="45.910999"
       cx="-21793"
       gradientTransform="matrix(-5.239,5.9048,-1.2679,-1.1249,-113870,129050)"
       r="5.8671999"
       inkscape:collect="always">
      <stop
         id="stop11557"
         style="stop-color:#ffffff"
         offset="0" />
      <stop
         id="stop11559"
         style="stop-color:#ffffff;stop-opacity:0"
         offset="1" />
    </radialGradient>
    <linearGradient
       id="linearGradient10777"
       y2="51.487"
       gradientUnits="userSpaceOnUse"
       x2="-21790"
       gradientTransform="matrix(9.1941,0,0,9.1941,200590,-114.94)"
       y1="45.237"
       x1="-21788"
       inkscape:collect="always">
      <stop
         id="stop11547"
         style="stop-color:#000000"
         offset="0" />
      <stop
         id="stop11549"
         style="stop-color:#000000;stop-opacity:0"
         offset="1" />
    </linearGradient>
    <linearGradient
       id="linearGradient10773"
       y2="57.362"
       gradientUnits="userSpaceOnUse"
       x2="-21640"
       gradientTransform="matrix(6.7827,0,0,6.7827,147250,8.1639)"
       y1="67.976997"
       x1="-21639"
       inkscape:collect="always">
      <stop
         id="stop11381"
         style="stop-color:#9c0001"
         offset="0" />
      <stop
         id="stop11383"
         style="stop-color:#ffffff"
         offset="1" />
    </linearGradient>
  </defs>
  <sodipodi:namedview
     id="base"
     bordercolor="#666666"
     inkscape:pageshadow="2"
     inkscape:window-y="-8"
     pagecolor="#ffffff"
     inkscape:window-height="1025"
     inkscape:window-maximized="1"
     inkscape:zoom="0.98994949"
     inkscape:window-x="-8"
     showgrid="false"
     borderopacity="1.0"
     inkscape:current-layer="svg40140"
     inkscape:cx="-42.853671"
     inkscape:cy="274.84272"
     inkscape:window-width="1920"
     inkscape:pageopacity="0.0"
     inkscape:document-units="px"
     inkscape:pagecheckerboard="true"
     fit-margin-top="0"
     fit-margin-left="0"
     fit-margin-right="0"
     fit-margin-bottom="0" />
  <g
     id="g4632"
     transform="matrix(0.48416433,0,0,0.48416433,-66.487867,-118.27839)">
    <path
       inkscape:connector-curvature="0"
       d="m 621.42,676.99 23.992,-270.98 -363.31,73.14 10.793,293.46 328.53,-95.622 z"
       style="fill:#c1bdbc"
       id="path10604" />
    <path
       inkscape:connector-curvature="0"
       d="M 293.43,773.04 163.92,601.77 145.27,365.44 282.41,477.36 Z"
       style="display:inline;fill:#94908f"
       id="path10606" />
    <g
       id="g4672"
       inkscape:label="lid_line">
      <path
         id="path10608"
         style="display:inline;fill:#000000;stroke:#000000;stroke-width:1.5;stroke-miterlimit:4;stroke-dasharray:none;stroke-opacity:1"
         d="m 642.9628,434.79789 1.5668,-44.66137 -364.27168,69.57015 1.06488,48.53836 361.64,-73.44986 z"
         sodipodi:nodetypes="ccccc"
         inkscape:connector-curvature="0" />
      <path
         id="path10610"
         style="display:inline;fill:#000000;stroke:#000000;stroke-width:1.48050189;stroke-miterlimit:4;stroke-dasharray:none;stroke-opacity:1"
         d="m 280.64049,507.74982 -1.4661,-48.53537 -132.0229,-115.56773 v 37.50411 l 133.5024,126.59363 z"
         sodipodi:nodetypes="cccccc"
         inkscape:connector-curvature="0" />
    </g>
    <path
       inkscape:connector-curvature="0"
       d="m 649.73,432.21 3.8308,-44.511 -373.27,71.218 1.0556,48.539 368.38,-75.246 z"
       style="display:inline;fill:#c2bebd"
       id="path10612" />
    <path
       inkscape:connector-curvature="0"
       d="m 281.56,507.66 -1.475,-49.174 -142.76,-125.48 3.2925,40.696 140.94,133.96 z"
       style="display:inline;fill:#9a9695"
       id="path10614" />
    <path
       inkscape:connector-curvature="0"
       d="M 653.34,387.7 280.3,459.37 137.59,333.01 453.83,287.02 Z"
       style="fill:#dddcda"
       id="path10616" />
    <path
       inkscape:connector-curvature="0"
       d="M 652.75,387.99 279.92,458.54"
       style="fill:none;stroke:#ffffff;stroke-width:2.71309996"
       id="path10618" />
    <path
       inkscape:connector-curvature="0"
       sodipodi:nodetypes="ccccccc"
       d="m 499.13,713.19 -65.424,18.96 8.5424,-304.55 -98.797,-67.664 60.839,-17.169 110.43,71.006 -15.589,299.42 z"
       style="fill:url(#linearGradient10773)"
       id="path10620" />
    <path
       inkscape:connector-curvature="0"
       sodipodi:nodetypes="ccccc"
       d="M 442.24,427.59 276,313.47 l 66.54,-9.38 172.17,109.68 z"
       style="fill:#b90006"
       id="path10622" />
    <path
       inkscape:connector-curvature="0"
       d="m 234.61,695.25 -25.858,-33.808 -23.209,-285.08 339.61,-54.235 38.308,19.33 -350.32,58.751 21.468,295.05 z"
       style="fill:#630005"
       id="path10624" />
    <path
       inkscape:connector-curvature="0"
       sodipodi:nodetypes="ccccc"
       d="m 195.72,379.75 339.6,-54.235 38.308,19.33 -350.3,58.751 -27.606,-23.845 z"
       style="fill:#a90007"
       id="path10636" />
    <path
       inkscape:connector-curvature="0"
       sodipodi:nodetypes="cccccccc"
       d="m 288.92,329.71 c -15.253,1.4995 -29.109,0.0699 -36.77,-14.366 l -27.592,2.2985 c -6.3754,2.3314 -21.153,30.602 3.7469,39.075 l 93.946,10.631 -0.82488,-28.731 -32.478,-8.9066 z"
       style="fill:#a00c0d"
       id="path10638" />
    <path
       inkscape:connector-curvature="0"
       sodipodi:nodetypes="cccccccc"
       d="m 288.92,329.71 c -15.253,1.4995 -29.109,0.0699 -36.77,-14.366 l -27.592,2.2985 c -6.3754,2.3314 -21.153,30.602 3.7469,39.075 l 93.946,10.631 -0.82488,-28.731 -32.478,-8.9066 z"
       style="fill:url(#linearGradient10777)"
       id="path10640" />
    <path
       inkscape:connector-curvature="0"
       sodipodi:nodetypes="cccccccc"
       d="m 288.92,329.71 c -15.253,1.4995 -29.109,0.0699 -36.77,-14.366 l -27.592,2.2985 c -6.3754,2.3314 -21.153,30.602 3.7469,39.075 l 93.946,10.631 -0.82488,-28.731 -32.478,-8.9066 z"
       style="opacity:0.27390998;fill:url(#radialGradient10780)"
       id="path10642" />
    <path
       inkscape:connector-curvature="0"
       sodipodi:nodetypes="ccccc"
       d="m 325.86,357.11 c -30.556,-21.563 -67.899,-45.511 -102.8,-38.804 l 39.399,-28.442 c 33.177,-6.0454 69.262,17.604 105.04,38.195 l -41.643,29.051 z"
       style="fill:#a70007"
       id="path10644" />
    <path
       inkscape:connector-curvature="0"
       sodipodi:nodetypes="ccccc"
       d="m 325.86,357.11 c -30.556,-21.563 -67.899,-45.511 -102.8,-38.804 l 39.399,-28.442 c 33.177,-6.0454 69.262,17.604 105.04,38.195 l -41.643,29.051 z"
       style="opacity:0.66087;fill:url(#linearGradient10782)"
       id="path10646" />
    <path
       inkscape:connector-curvature="0"
       sodipodi:nodetypes="cccc"
       d="m 465.35,326.4 -84.348,87.823 c -16.043,4.7263 -7.9832,-97.601 44.544,-52.135 47.438,-128.24 50.423,-67.443 39.804,-35.687 z"
       style="fill:url(#linearGradient10784)"
       id="path10648" />
    <path
       inkscape:connector-curvature="0"
       sodipodi:nodetypes="cccc"
       d="m 431.11,349.92 c -1.0905,0.33555 24.893,-67.026 35.54,-65.978 l -31.604,-2.4886 -3.9357,68.467 z"
       style="opacity:0.98261001;fill:#a40000"
       id="path10650" />
    <path
       inkscape:connector-curvature="0"
       sodipodi:nodetypes="cccc"
       d="m 431.15,349.93 c 6.0608,-17.26 24.858,-67.037 35.505,-65.989 l -33.184,-3.1919 -2.3209,69.181 z"
       style="opacity:0.98261001;fill:url(#linearGradient10786)"
       id="path10653" />
    <path
       inkscape:connector-curvature="0"
       sodipodi:nodetypes="ccc"
       d="m 427.28,364.56 c -4.0056,-74.242 18.399,-178.04 16.043,-61.793 -0.8109,10.242 -8.9199,37.153 -16.043,61.793 z"
       style="fill:url(#linearGradient10788)"
       id="path10655" />
    <path
       inkscape:connector-curvature="0"
       sodipodi:nodetypes="ccccc"
       d="m 426.78,331.37 c 6.1657,-75.924 9.7868,-75.206 13.687,-80.11 l -87.074,-6.9661 c -6.3544,9.3114 -6.3614,19.419 -7.7106,29.357 l 81.097,57.72 z"
       style="fill:#b40101"
       id="path10657" />
    <path
       inkscape:connector-curvature="0"
       sodipodi:nodetypes="ccccc"
       d="m 426.78,331.37 c 6.1657,-75.924 9.7868,-75.206 13.687,-80.11 l -87.074,-6.9661 c -6.3544,9.3114 -6.3614,19.419 -7.7106,29.357 l 81.097,57.72 z"
       style="opacity:0.76087;fill:url(#radialGradient10790)"
       id="path10668" />
    <path
       inkscape:connector-curvature="0"
       sodipodi:nodetypes="ccsc"
       d="m 427.4,365.44 c 0.48934,-46.356 0,-88.658 -9.6749,-94.822 -10.647,14.229 -9.7798,47.276 -7.8084,69.369 1.1674,13.16 5.9979,13.626 17.483,25.453 z"
       style="fill:url(#linearGradient10792)"
       id="path10670" />
    <path
       inkscape:connector-curvature="0"
       sodipodi:nodetypes="ccccc"
       d="M 426.17,364.62 338.92,352.95 C 307.84,330.43 322.52,269.4 328.7,262.52 l 89.066,8.1139 c -6.1377,12.833 -18.588,60.332 8.4026,93.982 z"
       style="fill:#a40e0f"
       id="path10674" />
    <path
       inkscape:connector-curvature="0"
       sodipodi:nodetypes="ccccc"
       d="M 426.17,364.62 338.92,352.95 C 307.84,330.43 322.52,269.4 328.7,262.52 l 89.066,8.1139 c -6.1377,12.833 -18.588,60.332 8.4026,93.982 z"
       style="opacity:0.60434995;fill:url(#radialGradient10794)"
       id="path10676" />
    <path
       inkscape:connector-curvature="0"
       sodipodi:nodetypes="ccccc"
       d="M 426.17,364.62 338.92,352.95 C 307.84,330.43 322.52,269.4 328.7,262.52 l 89.066,8.1139 c -6.1377,12.833 -18.588,60.332 8.4026,93.982 z"
       style="opacity:0.60434995;fill:url(#linearGradient10796)"
       id="path10678" />
    <path
       inkscape:connector-curvature="0"
       sodipodi:nodetypes="ccccc"
       d="m 380.13,413.46 -92.876,-9.4988 c -7.9133,-14.25 -9.8427,-54.861 30.255,-59.814 l 89.192,10.556 c -34.456,-7.505 -37.924,54.31 -26.571,58.757 z"
       style="fill:#b60000"
       id="path10680" />
    <path
       inkscape:connector-curvature="0"
       sodipodi:nodetypes="ccccc"
       d="m 380.13,413.46 -92.876,-9.4988 c -7.9133,-14.25 -9.8427,-54.861 30.255,-59.814 l 89.192,10.556 c -34.456,-7.505 -37.924,54.31 -26.571,58.757 z"
       style="opacity:0.60434995;fill:url(#radialGradient10798)"
       id="path10683" />
    <path
       inkscape:connector-curvature="0"
       sodipodi:nodetypes="ccccc"
       d="m 380.13,413.46 -92.876,-9.4988 c -7.9133,-14.25 -9.8427,-54.861 30.255,-59.814 l 89.192,10.556 c -34.456,-7.505 -37.924,54.31 -26.571,58.757 z"
       style="opacity:0.60434995;fill:url(#radialGradient10800)"
       id="path10685" />
    <path
       inkscape:connector-curvature="0"
       sodipodi:nodetypes="ccccc"
       d="m 419,372.84 30.43,-30.412 c 25.138,-13.179 129,-57.197 115.43,19.368 L 536.27,395.776 419,372.836 Z"
       style="fill:#a80007"
       id="path10687" />
    <path
       inkscape:connector-curvature="0"
       sodipodi:nodetypes="ccccc"
       d="m 419,372.84 30.43,-30.412 c 25.138,-13.179 129,-57.197 115.43,19.368 L 536.27,395.776 419,372.836 Z"
       style="opacity:0.33478005;fill:url(#linearGradient10802)"
       id="path10689" />
    <path
       inkscape:connector-curvature="0"
       sodipodi:nodetypes="ccc"
       d="m 414.63,376.13 c 77.294,-38.283 170.17,-22.535 121.31,19.212 z"
       style="fill:url(#linearGradient10804)"
       id="path10691" />
  </g>
  <metadata
     id="metadata86">
    <rdf:RDF>
      <cc:Work>
        <dc:format>image/svg+xml</dc:format>
        <dc:type
           rdf:resource="http://purl.org/dc/dcmitype/StillImage" />
        <cc:license
           rdf:resource="http://creativecommons.org/publicdomain/zero/1.0/" />
        <dc:publisher>
          <cc:Agent
             rdf:about="http://openclipart.org/">
            <dc:title>OpenClipart Library</dc:title>
          </cc:Agent>
        </dc:publisher>
        <dc:title>Gift Box</dc:title>
        <dc:date>2010-08-01T08:41:24</dc:date>
        <dc:description />
        <dc:source>https://openclipart.org/detail/75775</dc:source>
        <dc:creator>
          <cc:Agent>
            <dc:title>wakro</dc:title>
          </cc:Agent>
        </dc:creator>
        <dc:subject>
          <rdf:Bag>
            <rdf:li>box</rdf:li>
            <rdf:li>dole</rdf:li>
            <rdf:li>favor</rdf:li>
            <rdf:li>gift</rdf:li>
            <rdf:li>present</rdf:li>
            <rdf:li>valentine</rdf:li>
            <rdf:li>wedding</rdf:li>
          </rdf:Bag>
        </dc:subject>
      </cc:Work>
      <cc:License
         rdf:about="http://creativecommons.org/publicdomain/zero/1.0/">
        <cc:permits
           rdf:resource="http://creativecommons.org/ns#Reproduction" />
        <cc:permits
           rdf:resource="http://creativecommons.org/ns#Distribution" />
        <cc:permits
           rdf:resource="http://creativecommons.org/ns#DerivativeWorks" />
      </cc:License>
    </rdf:RDF>
  </metadata>
</svg>
