<?xml version="1.0" encoding="UTF-8" standalone="no"?>
<!-- Created with Inkscape (http://www.inkscape.org/) -->

<svg
   xmlns:dc="http://purl.org/dc/elements/1.1/"
   xmlns:cc="http://creativecommons.org/ns#"
   xmlns:rdf="http://www.w3.org/1999/02/22-rdf-syntax-ns#"
   xmlns:svg="http://www.w3.org/2000/svg"
   xmlns="http://www.w3.org/2000/svg"
   xmlns:xlink="http://www.w3.org/1999/xlink"
   xmlns:sodipodi="http://sodipodi.sourceforge.net/DTD/sodipodi-0.dtd"
   xmlns:inkscape="http://www.inkscape.org/namespaces/inkscape"
   id="svg1"
   sodipodi:docname="plastic_bin_01_red.svg"
   viewBox="0 0 256 184.53125"
   version="1.0"
   y="0"
   x="0"
   inkscape:version="0.92.4 (5da689c313, 2019-01-14)"
   width="256"
   height="184.53125">
  <title
     id="title862">Red Plastic Bin</title>
  <sodipodi:namedview
     id="namedview78"
     bordercolor="#666666"
     inkscape:pageshadow="2"
     guidetolerance="10"
     pagecolor="#ffffff"
     gridtolerance="10"
     inkscape:window-maximized="1"
     inkscape:zoom="2.0000001"
     objecttolerance="10"
     borderopacity="1"
     inkscape:current-layer="svg1"
     inkscape:cx="68.270138"
     inkscape:cy="84.208861"
     inkscape:window-y="-8"
     inkscape:window-x="-8"
     inkscape:window-width="1920"
     showgrid="false"
     inkscape:pageopacity="0"
     inkscape:window-height="1025"
     inkscape:pagecheckerboard="true"
     fit-margin-top="0"
     fit-margin-left="0"
     fit-margin-right="0"
     fit-margin-bottom="0" />
  <defs
     id="defs3">
    <linearGradient
       id="linearGradient3864">
      <stop
         id="stop3865"
         style="stop-color:#868686"
         offset="0" />
      <stop
         id="stop3866"
         style="stop-color:#e8e8e8"
         offset="1" />
    </linearGradient>
    <linearGradient
       id="linearGradient3793">
      <stop
         id="stop3794"
         style="stop-color:#000409"
         offset="0" />
      <stop
         id="stop3795"
         style="stop-color:#000409;stop-opacity:0"
         offset="1" />
    </linearGradient>
    <linearGradient
       id="linearGradient3768">
      <stop
         id="stop3769"
         style="stop-color:#dddddd"
         offset="0" />
      <stop
         id="stop3770"
         style="stop-color:#ffffff"
         offset="1" />
    </linearGradient>
    <linearGradient
       id="linearGradient3764">
      <stop
         id="stop3765"
         style="stop-color:#ffffff"
         offset="0" />
      <stop
         id="stop3766"
         style="stop-color:#ffffff;stop-opacity:0"
         offset="1" />
    </linearGradient>
    <linearGradient
       id="linearGradient3756"
       y2="103.56"
       xlink:href="#linearGradient3793"
       gradientUnits="userSpaceOnUse"
       y1="39.395"
       gradientTransform="matrix(1.0019,0,0,0.99814,-0.68361,7.4173)"
       x2="34.798"
       x1="51.894001" />
    <linearGradient
       id="linearGradient3763"
       y2="156.74001"
       gradientUnits="userSpaceOnUse"
       y1="54.737999"
       gradientTransform="matrix(1.1767,0,0,0.84983,-0.68361,7.4173)"
       x2="91.427002"
       x1="79.200996">
      <stop
         id="stop3759"
         style="stop-color:#c53b3b"
         offset="0" />
      <stop
         id="stop3760"
         style="stop-color:#a13939"
         offset="1" />
    </linearGradient>
    <linearGradient
       id="linearGradient3767"
       y2="74.252998"
       xlink:href="#linearGradient3764"
       spreadMethod="reflect"
       gradientUnits="userSpaceOnUse"
       y1="47.679001"
       gradientTransform="matrix(2.1562,0,0,0.46378,2.8791,1.8187)"
       x2="37.945"
       x1="43.776001" />
    <linearGradient
       id="linearGradient3784"
       y2="101.41"
       xlink:href="#linearGradient3764"
       spreadMethod="reflect"
       gradientUnits="userSpaceOnUse"
       y1="66.834"
       gradientTransform="matrix(0.8528,0,0,1.1726,2.8791,1.8187)"
       x2="174.67999"
       x1="163.94" />
    <linearGradient
       id="linearGradient3790"
       y2="79.867996"
       xlink:href="#linearGradient3793"
       gradientUnits="userSpaceOnUse"
       y1="60.110001"
       gradientTransform="matrix(1.3024,0,0,0.76783,2.8791,1.8187)"
       x2="127.99"
       x1="115.6" />
    <linearGradient
       id="linearGradient3796"
       y2="-14.248"
       xlink:href="#linearGradient3793"
       gradientUnits="userSpaceOnUse"
       y1="110.86"
       gradientTransform="matrix(2.1901,0,0,0.45661,2.8791,1.8187)"
       x2="60.604"
       x1="19.055" />
    <linearGradient
       id="linearGradient3801"
       y2="21.063"
       xlink:href="#linearGradient3764"
       spreadMethod="reflect"
       gradientUnits="userSpaceOnUse"
       y1="21.063"
       gradientTransform="matrix(0.38725,0,0,5.2537,-96.405,-3.3896)"
       x2="549.92999"
       x1="542.22998" />
    <linearGradient
       id="linearGradient3886"
       y2="56.07"
       xlink:href="#linearGradient3768"
       spreadMethod="reflect"
       gradientUnits="userSpaceOnUse"
       y1="51.008999"
       gradientTransform="matrix(1.3579,0,0,0.73641,0,-2.5)"
       x2="86.999001"
       x1="98.578003" />
    <linearGradient
       id="linearGradient2402"
       y2="3.6301"
       xlink:href="#linearGradient3768"
       gradientUnits="userSpaceOnUse"
       y1="48.82"
       gradientTransform="matrix(1.0892,0.22575,-0.10413,0.89296,-2.2903,-25.211)"
       x2="99.514999"
       x1="95.439003" />
    <radialGradient
       id="radialGradient3029"
       xlink:href="#linearGradient3793"
       gradientUnits="userSpaceOnUse"
       cy="58.526001"
       cx="106.92"
       gradientTransform="matrix(2.08,0,0,1.1504,-120.25,-35.285)"
       r="12.337" />
    <linearGradient
       id="linearGradient3033"
       y2="42.978001"
       xlink:href="#linearGradient3864"
       gradientUnits="userSpaceOnUse"
       y1="75.273003"
       gradientTransform="matrix(1.1802,0,0,0.84735,0,-25)"
       x2="87.463997"
       x1="90.015999" />
    <linearGradient
       id="linearGradient3035"
       y2="3.6301"
       xlink:href="#linearGradient3768"
       gradientUnits="userSpaceOnUse"
       y1="48.82"
       gradientTransform="matrix(1.1099,0.070135,0.020428,0.86502,-0.78689,-7.879)"
       x2="99.514999"
       x1="95.439003" />
    <linearGradient
       id="linearGradient3036"
       y2="42.978001"
       xlink:href="#linearGradient3864"
       gradientUnits="userSpaceOnUse"
       y1="75.273003"
       gradientTransform="matrix(1.1688,-0.15716,0.11724,0.80767,1.5106,-7.9831)"
       x2="87.463997"
       x1="90.015999" />
    <radialGradient
       id="radialGradient3038"
       xlink:href="#linearGradient3793"
       gradientUnits="userSpaceOnUse"
       cy="58.526001"
       cx="106.92"
       gradientTransform="matrix(0.60567,0,0,1.3524,60.112,-49.537)"
       r="12.337" />
    <linearGradient
       id="linearGradient3067"
       y2="56.07"
       xlink:href="#linearGradient3768"
       spreadMethod="reflect"
       gradientUnits="userSpaceOnUse"
       x2="86.999001"
       gradientTransform="matrix(-1.6684,0.084517,0.045834,0.90478,227.07,-26.311)"
       y1="51.008999"
       x1="98.578003"
       inkscape:collect="always" />
    <linearGradient
       id="linearGradient3069"
       y2="80.095001"
       xlink:href="#linearGradient3864"
       spreadMethod="reflect"
       gradientUnits="userSpaceOnUse"
       x2="83.232002"
       gradientTransform="matrix(-1.8616,0.094304,0.041078,0.81089,225.67,-53.955)"
       y1="106.35"
       x1="84.460999"
       inkscape:collect="always" />
    <linearGradient
       id="linearGradient3075"
       y2="80.095001"
       xlink:href="#linearGradient3864"
       spreadMethod="reflect"
       gradientUnits="userSpaceOnUse"
       x2="83.232002"
       gradientTransform="matrix(1.5152,0,0,0.65999,0,-25)"
       y1="106.35"
       x1="84.460999"
       inkscape:collect="always" />
  </defs>
  <g
     id="g917"
     transform="matrix(1.4068428,0,0,1.4068428,-12.267899,-19.901949)">
    <g
       style="display:inline"
       inkscape:label="bin"
       id="g896">
      <path
         id="path3748"
         style="fill:url(#linearGradient3763);fill-rule:evenodd;stroke:#7b0000;stroke-width:0.3125"
         inkscape:connector-curvature="0"
         d="m 13.612,44.008 6.5717,64.803 c 0.08483,1.4421 0.67862,4.1565 2.5448,4.8352 l 83.8,30.658 c 2.8841,1.4421 7.7593,0.84828 10.134,-0.25448 l 56.719,-31.93 c 2.5448,-1.1028 4.3262,-2.969 4.5807,-5.5986 l 7.3352,-61.076 c 0.42414,-3.8023 3.9021,-2.2605 4.3262,-5.5538 l 0.89069,-8.0162 c 0.16965,-1.0603 -0.9331,-2.2479 -2.4176,-2.6721 l -107.96,-14.469 c -2.1631,-0.59379 -5.0448,-0.55138 -7.0807,-10e-7 l -61.617,13.577 c -1.6117,0.50896 -2.7145,2.0359 -2.5448,3.0538 l 2e-7,7.6345 c 0.38413,2.6995 3.5675998,1.0281 4.7150998,5 z" />
      <path
         id="path3750"
         style="opacity:0.59716001;fill:url(#linearGradient3796);fill-rule:evenodd;stroke:url(#linearGradient3767);stroke-width:1.25;stroke-linejoin:round;stroke-opacity:0.59444"
         inkscape:connector-curvature="0"
         d="M 20.153,28.893 113.74,48.898 181.06,30.735 77.05,16.34 Z" />
      <path
         id="path3752"
         style="opacity:0.35071004;fill:url(#linearGradient3756);fill-rule:evenodd"
         inkscape:connector-curvature="0"
         d="M 13.563,41.954 108.85,65.372 110.1,141.46 19.11,89.398 Z" />
      <path
         id="path3780"
         style="opacity:0.26066003;fill:url(#linearGradient3784);fill-rule:evenodd"
         inkscape:connector-curvature="0"
         d="m 117.81,68.324 66.097,-21.953 -4.3804,35.105 c -5.7333,37.183 -56.51,6.673 -64.279,58.87 l 2.5629,-72.022 z" />
      <rect
         id="rect3797"
         style="opacity:0.34597;fill:url(#linearGradient3801)"
         rx="2.5192001"
         ry="1.4394"
         transform="matrix(1,0.0020882,-0.007633,0.99997,0,0)"
         width="5.5047002"
         y="67.189003"
         x="111.05"
         height="74.679001" />
      <path
         id="path3786"
         style="opacity:0.40758003;fill:url(#linearGradient3790);fill-rule:evenodd"
         inkscape:connector-curvature="0"
         d="m 185.7,43.491 -66.918,22.037 c -3.3083,1.0179 -7.249,1.1015 -10.001,-0.14907 l 0.25938,22.328 c 1.6541,-0.25448 3.6208,-0.0836 6.4999,-0.80336 2.8791,-0.71979 66.58,-23.033 66.58,-23.033 l 3.5797,-20.379 z" />
      <path
         id="path3791"
         style="opacity:0.20378998;fill:#ffffff;fill-rule:evenodd"
         inkscape:connector-curvature="0"
         d="m 12.953,29.711 7.1255,-1.3778 94.009,21.184 67.947,-19.192 5.8531,0.40356 -73.8,22.351 -101.13,-23.369 z" />
      <rect
         id="rect3809"
         style="display:inline;opacity:0.3;fill:#000409;fill-opacity:0.46667002"
         rx="2.3868001"
         ry="2.0711"
         transform="matrix(0.97133,0.23774,0,1,0,0)"
         width="105.97"
         y="27.349001"
         x="10.374"
         height="10.437" />
    </g>
    <g
       inkscape:label="contents"
       style="display:none"
       id="g869">
      <g
         id="g878">
        <path
           id="path3034"
           style="fill:url(#linearGradient3035);stroke:url(#linearGradient3036);stroke-width:0.61315;stroke-linecap:round;stroke-linejoin:round"
           inkscape:connector-curvature="0"
           d="M 91.241,10.522 137.8,12.634 132.45,42.188 87.587,39.354 Z" />
        <path
           id="path3037"
           style="opacity:0.55924;fill:url(#radialGradient3038)"
           inkscape:connector-curvature="0"
           d="m 132.15,29.615 a 7.2817,16.264 0 0 1 -14.563,0 7.2817,16.264 0 1 1 14.563,0 z" />
        <path
           id="rect1777"
           style="fill:url(#linearGradient2402);stroke:url(#linearGradient3033);stroke-width:0.625;stroke-linecap:round;stroke-linejoin:round"
           inkscape:connector-curvature="0"
           d="m 86.207,6.4581 45.807,8.6159 -9.5461,29.672 -44.025,-9.1249 7.7647,-29.163 z" />
      </g>
      <path
         id="path2404"
         style="display:inline;opacity:0.55924;fill:url(#radialGradient3029)"
         inkscape:connector-curvature="0"
         d="m 127.15,32.044 a 25.0065,13.834277 0 0 1 -50.013,0 25.0065,13.834277 0 1 1 50.013,0 z" />
      <path
         id="path3813"
         style="display:inline;fill:url(#linearGradient3886);fill-rule:evenodd"
         inkscape:connector-curvature="0"
         d="m 107.59,16.5 c -4.3126,-1.0782 -11.169,10.644 -10.781,12.969 -0.25339,1.267 -1.7509,2.3403 -1.4375,3.5938 1.0436,4.1746 3.6843,3.9633 -2.5312,8.625 -1.1294,0.84709 -1.8124,1.4751 -2.6875,2.1875 l 23.596,5.03 49.91,-13.468 c 3.2111,-2.5148 -7.7169,-4.4357 -9.625,-6.3438 -4.7915,-4.7915 -3.9207,0.17912 -3.0938,3.0625 0.2192,0.51439 0.44198,1.0224 0.5625,1.625 0.11416,0.57079 -0.20105,-0.36476 -0.5625,-1.625 -2.3811,-5.5878 -10.193,-5.9629 -16.344,0.1875 -6.5756,6.5756 -2.5219,1e-6 -6.8438,0 -5.9613,0 -3.6007,-4.3125 -6.8125,-4.3125 -0.49462,0 0.66564,-1.8443 0.34375,-1.4688 -6.9252,8.0793 -5.6063,-8.0422 -13.688,-10.062 z" />
      <path
         id="path3818"
         style="display:inline;fill:url(#linearGradient3075);fill-rule:evenodd"
         inkscape:connector-curvature="0"
         d="m 111.22,20.469 c -1.2064,0.30161 -5.2313,3.8938 -5.7812,6.0938 -0.43208,1.7283 5.7702,-0.16636 6.125,-0.34375 2.7166,-1.3583 -1.1723,-3.326 1.0625,-2.9062 -1.0418,-1.0435 -1.0637,-1.1311 -1.4062,-2.8438 z m 1.4062,2.8438 c 0.015,0.01501 0.0158,0.01583 0.0312,0.03125 0.51249,0.51249 1.0228,1.0803 1.5,1.6875 -0.22889,-0.85209 -0.55279,-1.5366 -1.1562,-1.6875 -0.25304,-0.06326 -0.2033,9.98e-4 -0.375,-0.03125 z m 1.5312,1.7188 c 0.51037,1.8999 0.39451,4.828 0.65625,5.875 0.58749,2.35 4.5666,2.7588 -0.71875,1.4375 -2.3981,-0.59953 -6.2561,1.0625 0.71875,1.0625 3.7972,-2e-6 4.9084,0.59591 6.8438,2.5312 3.2299,3.2299 3.1604,0.60206 1.7812,-2.1562 -0.26475,-0.52948 -4.1368,-1.7433 -4.6875,-2.1562 -1.3655,-1.0241 -2.8674,-2.5632 -3.2188,-3.9688 -0.26388,-1.0555 -0.7858,-1.8754 -1.375,-2.625 z m -15.722,3.03 c -0.43499,-0.02823 -0.92586,4.6054 0.1875,5.7188 1.1244,1.1244 2.4305,-2.3923 0.34375,1.7812 -0.88707,1.7742 -2.0801,2.875 1.0938,2.875 2.5983,1e-6 0.81667,1.8234 3.2188,3.625 2.0265,1.5199 2.4406,2.2828 4.3125,3.2188 1.9236,0.96182 7.1478,3.8999 2.9062,0.71875 -2.4835,-1.8626 -3.9924,-5.0549 -6.5,-7.5625 -3.1839,-3.1839 4.7046,-1.911 6.125,-1.4375 6.2703,2.0901 -7.7744,-5.4397 -10.062,-6.8125 -1.9668,-1.1801 -1.7086,-1.6264 -1.125,-1.8438 -0.18524,0.0048 -0.07063,0.03125 -0.3125,0.03125 -0.05455,-0.21822 -0.12536,-0.30847 -0.1875,-0.3125 z m 39.406,3.5625 c -0.52859,-0.31715 -3.3557,3.8052 -3.9688,5.0312 -0.43854,0.87706 6.1415,-2.204 2.875,1.0625 -0.91755,0.91755 3.25,0.88989 3.25,2.1875 0,0.68561 -0.33528,1.4112 -0.71875,2.125 l 9.5,-2.5625 c 0.97853,-0.77694 2.0084,-1.375 3.4375,-1.375 2.3076,-10e-7 -4.5498,-1.5463 -6.8125,-1.0938 -1.4721,0.29442 -2.0292,1.8125 -3.9688,1.8125 -1.1255,2e-6 1.137,-3.6899 2.5312,-3.9688 2.5368,-0.50736 0.44809,-2.5 -1.4375,-2.5 -2.4536,10e-7 -1.541,1.7985 -4.6875,-0.71875 z m 19.07,1.376 c -0.28935,-0.11833 -0.54125,0.07124 -0.71875,0.78125 -0.31945,1.2778 -0.91667,2.9097 -1.875,4.1875 l 4.8125,-1.3125 c -0.0179,-0.02012 -0.0451,0.02324 -0.0625,0 -0.14,-0.177 -1.3,-3.301 -2.16,-3.656 z m 5.75,0.78125 c -0.34682,-0.34682 -1.4292,1.0756 -2.4688,2.5938 l 0.125,-0.03125 c 0.73483,-0.73832 1.5197,-2.068 2.3438,-2.5625 z m -45.54,3.219 c -0.0494,0.02039 -0.097,0.13818 -0.15625,0.375 -0.48241,1.9296 -1.0938,3.4602 -1.0938,5.4062 0,1.5698 -0.77206,3.8894 -1.1875,5.875 l 3.25,-0.875 c 0.19818,-1.6128 0.46875,-3.2613 0.46875,-4.6562 0,-0.11996 -0.3459,0.11638 -0.375,0 -0.4,-1.658 -0.55,-6.268 -0.9,-6.125 z m 12.438,1.0938 c -2.204,2.204 -7.6127,6.0108 -8.75,8.9062 l 7.6562,-2.0625 c -8.1771,2.7257 3.0487,-8.7987 1.0938,-6.8438 z" />
      <path
         id="path3061"
         style="display:inline;fill:url(#linearGradient3067);fill-rule:evenodd"
         d="m 96.061,3.73 c 5.2315,-1.5931 14.385,12.382 14.053,15.263 0.39018,1.5409 2.2968,2.7664 1.9898,4.3259 -1.0224,5.194 -4.28,5.0988 3.6468,10.439 1.4404,0.97046 2.3185,1.6995 3.4381,2.5204 l -28.676,7.65 -62.155,-13.442 c -4.1017,-2.8899 9.2052,-5.9301 11.431,-8.3932 5.5888,-6.1852 4.8283,-0.02395 3.9917,3.5701 -0.2373,0.64564 -0.4794,1.2836 -0.58996,2.0315 -0.10473,0.7084 0.22431,-0.46067 0.58996,-2.0315 2.5777,-7.0135 12.153,-7.9606 20.092,-0.78686 8.4883,7.6698 3.0984,-0.15696 8.4084,-0.42595 7.3243,-0.37103 4.1556,-5.5226 8.1016,-5.7225 0.6077,-0.03078 -0.93261,-2.2245 -0.51376,-1.7832 9.0113,9.4955 6.3875,-10.23 16.191,-13.215 z"
         inkscape:transform-center-x="15.956341"
         inkscape:transform-center-y="-19.914355"
         inkscape:connector-curvature="0" />
      <path
         id="path3063"
         style="display:inline;fill:url(#linearGradient3069);fill-rule:evenodd"
         d="m 91.854,8.8317 c 1.501,0.29548 6.6696,4.4584 7.4823,7.1271 0.63843,2.0966 -7.0998,0.15475 -7.5467,-0.04112 -3.4222,-1.4998 1.2333,-4.1594 -1.4863,-3.5046 1.2151,-1.3469 1.2365,-1.4559 1.5508,-3.5814 z m -1.5508,3.5814 c -0.01748,0.01938 -0.01846,0.02043 -0.03645,0.04034 -0.59776,0.66156 -1.1893,1.391 -1.7379,2.1667 0.22819,-1.0611 0.58353,-1.9224 1.3156,-2.1453 0.30696,-0.09347 0.24984,-0.01147 0.45879,-0.06173 z m -1.7744,2.207 c -0.5088,2.3661 -0.18421,5.9564 -0.44063,7.259 -0.57554,2.9238 -5.439,3.6738 0.97255,1.7214 2.9091,-0.88586 7.7525,0.91604 -0.81695,1.3502 -4.6654,0.23634 -5.9935,1.0376 -8.2509,3.5359 -3.7673,4.1694 -3.8455,0.93642 -2.3227,-2.5384 0.29232,-0.66702 4.9741,-2.3993 5.625,-2.941 1.614,-1.3433 3.3634,-3.3277 3.7076,-5.0765 0.25852,-1.3132 0.84873,-2.3531 1.526,-3.3107 z m 19.501,2.746 c 0.53269,-0.06176 1.4242,5.6007 0.12554,7.0379 -1.3115,1.4515 -3.1351,-2.788 -0.31147,2.2099 1.2003,2.1246 2.7346,3.4028 -1.1649,3.6004 -3.1924,0.16172 -0.8899,2.2912 -3.729,4.6541 -2.3952,1.9935 -2.8565,2.9566 -5.0981,4.2231 -2.3036,1.3015 -8.5392,5.2364 -3.526,1.064 2.9353,-2.443 4.5905,-6.4591 7.5154,-9.6961 3.7137,-4.11 -5.8991,-2.0551 -7.6148,-1.3849 -7.5738,2.9582 9.2133,-7.1672 11.939,-8.9963 2.343,-1.5723 1.998,-2.1046 1.2674,-2.3353 0.22789,-0.0056 0.0887,0.03399 0.3859,0.01895 0.0535,-0.27151 0.13481,-0.3868 0.21091,-0.39562 z m -48.194,6.8296 c 0.6297,-0.42256 4.3598,4.4663 5.1893,5.9345 0.59339,1.0503 -7.6829,-2.3257 -3.4662,1.4844 1.1844,1.0702 -3.9377,1.2956 -3.8569,2.8899 0.04268,0.84236 0.49977,1.713 1.0153,2.5661 l -11.832,-2.557 c -1.2506,-0.89367 -2.5532,-1.5644 -4.309,-1.4754 -2.8351,0.14362 5.4937,-2.183 8.302,-1.7678 1.827,0.27011 2.6059,2.1006 4.9889,1.9799 1.3828,-0.07004 -1.6266,-4.4627 -3.357,-4.7186 -3.1484,-0.46547 -0.70614,-3.0437 1.6106,-3.161 3.0145,-0.15271 2.0052,2.1137 5.7145,-1.1748 z m -23.335,2.8758 c 0.34814,-0.16339 0.66943,0.05384 0.9317,0.91513 0.47202,1.5501 1.3073,3.5179 2.5643,5.0282 l -5.9945,-1.313 c 0.02074,-0.02583 0.05685,0.02574 0.07679,-0.0039 0.15231,-0.22606 1.3772,-4.1362 2.4217,-4.6264 z m -7.016,1.3177 c 0.40453,-0.4477 1.8229,1.2326 3.1946,3.0331 l -0.15552,-0.03061 c -0.949,-0.862 -1.996,-2.446 -3.039,-3.003 z m 56.141,1.1208 c 0.06196,0.02197 0.12784,0.16373 0.21531,0.45101 0.7128,2.3408 1.5592,4.1832 1.6803,6.5742 0.0977,1.9286 1.1906,4.7306 1.8247,7.1443 l -4.0475,-0.87277 c -0.34387,-1.9691 -0.7789,-3.9777 -0.86572,-5.6916 -0.0074,-0.14739 0.43223,0.12146 0.46074,-0.02334 0.406,-2.0625 0.29845,-7.7356 0.73223,-7.5818 z m -15.213,2.1179 c 2.8451,2.5707 9.7273,6.9112 11.305,10.398 l -9.5351,-2.0575 c 10.216,2.838 -4.293,-10.622 -1.77,-8.342 z"
         inkscape:transform-center-x="20.00976"
         inkscape:transform-center-y="-17.424843"
         inkscape:connector-curvature="0" />
    </g>
  </g>
  <metadata
     id="metadata51">
    <rdf:RDF>
      <cc:Work>
        <dc:format>image/svg+xml</dc:format>
        <dc:type
           rdf:resource="http://purl.org/dc/dcmitype/StillImage" />
        <cc:license
           rdf:resource="http://creativecommons.org/publicdomain/zero/1.0/" />
        <dc:publisher>
          <cc:Agent
             rdf:about="http://openclipart.org/">
            <dc:title>OpenClipart Library</dc:title>
          </cc:Agent>
        </dc:publisher>
        <dc:title>Red Plastic Bin</dc:title>
        <dc:date>2012-10-15T08:45:54</dc:date>
        <dc:description></dc:description>
        <dc:source>https://openclipart.org/detail/172769</dc:source>
        <dc:creator>
          <cc:Agent>
            <dc:title>qubodup</dc:title>
          </cc:Agent>
        </dc:creator>
        <dc:subject>
          <rdf:Bag>
            <rdf:li>bin</rdf:li>
            <rdf:li>box</rdf:li>
            <rdf:li>cabinet</rdf:li>
            <rdf:li>chest</rdf:li>
            <rdf:li>clean</rdf:li>
            <rdf:li>coffer</rdf:li>
            <rdf:li>container</rdf:li>
            <rdf:li>crate</rdf:li>
            <rdf:li>hutch</rdf:li>
            <rdf:li>kasten</rdf:li>
            <rdf:li>kiste</rdf:li>
            <rdf:li>paper</rdf:li>
            <rdf:li>plastic</rdf:li>
            <rdf:li>red</rdf:li>
            <rdf:li>simple</rdf:li>
            <rdf:li>synthetic</rdf:li>
            <rdf:li>trash</rdf:li>
          </rdf:Bag>
        </dc:subject>
      </cc:Work>
      <cc:License
         rdf:about="http://creativecommons.org/publicdomain/zero/1.0/">
        <cc:permits
           rdf:resource="http://creativecommons.org/ns#Reproduction" />
        <cc:permits
           rdf:resource="http://creativecommons.org/ns#Distribution" />
        <cc:permits
           rdf:resource="http://creativecommons.org/ns#DerivativeWorks" />
      </cc:License>
    </rdf:RDF>
  </metadata>
</svg>
