<?xml version="1.0" encoding="UTF-8" standalone="no"?>
<!-- Created with Inkscape (http://www.inkscape.org/) -->

<svg
   xmlns:dc="http://purl.org/dc/elements/1.1/"
   xmlns:cc="http://creativecommons.org/ns#"
   xmlns:rdf="http://www.w3.org/1999/02/22-rdf-syntax-ns#"
   xmlns:svg="http://www.w3.org/2000/svg"
   xmlns="http://www.w3.org/2000/svg"
   xmlns:sodipodi="http://sodipodi.sourceforge.net/DTD/sodipodi-0.dtd"
   xmlns:inkscape="http://www.inkscape.org/namespaces/inkscape"
   width="256"
   height="256"
   viewBox="0 0 67.733332 67.733335"
   version="1.1"
   id="svg2803"
   inkscape:version="0.92.4 (5da689c313, 2019-01-14)"
   sodipodi:docname="bow_01.svg">
  <defs
     id="defs2797">
    <clipPath
       id="_clip7">
      <path
         inkscape:connector-curvature="0"
         d="m 126.576,237.613 c 0.5,43.932 -42.456,60.835 -42.456,148.668 0,87.833 43.736,104.456 42.497,148.809 0.661,3.684 -1.509,7.695 -5.004,7.695 -2.831,0 -5.127,-2.83 -5.127,-6.319 0,-3.489 2.785,-6.318 5.127,-6.318 2.342,0 1.497,-2.874 1.202,-5.368 -3.236,-30.696 -49.468,-52.295 -49.468,-139.028 0,-86.733 43.692,-103.282 49.668,-139.733 0.231,-1.287 0.935,-3.677 -1.402,-3.677 -2.337,0 -5.127,-2.83 -5.127,-6.319 0,-3.489 2.296,-6.318 5.127,-6.318 3.579,0 4.36,3.044 4.963,7.908"
         id="path131" />
    </clipPath>
    <linearGradient
       id="_Linear8-2"
       x1="0"
       y1="0"
       x2="1"
       y2="0"
       gradientUnits="userSpaceOnUse"
       gradientTransform="matrix(0,15.5222,-15.5222,0,88.3822,333.929)">
      <stop
         offset="0"
         style="stop-color:rgb(116,48,0);stop-opacity:1"
         id="stop669-3" />
      <stop
         offset="1"
         style="stop-color:rgb(116,48,0);stop-opacity:0"
         id="stop671-3" />
    </linearGradient>
    <linearGradient
       id="_Linear9-3"
       x1="0"
       y1="0"
       x2="1"
       y2="0"
       gradientUnits="userSpaceOnUse"
       gradientTransform="matrix(0,-13.97,13.97,0,83.7255,428.435)">
      <stop
         offset="0"
         style="stop-color:rgb(116,48,0);stop-opacity:1"
         id="stop674-5" />
      <stop
         offset="1"
         style="stop-color:rgb(116,48,0);stop-opacity:0"
         id="stop676-9" />
    </linearGradient>
    <clipPath
       id="_clip10">
      <path
         inkscape:connector-curvature="0"
         d="m 80.218,345.874 c 4.938,0 10.915,5.647 8.978,12.052 -1.973,6.521 -5.867,12.958 -6.104,19.307 -0.304,8.096 3.592,16.059 6.105,23.88 2.049,6.375 -4.04,12.052 -8.978,12.052 -4.938,0 -10.781,-5.617 -8.977,-12.052 2.118,-7.554 0.631,-15.189 0.592,-22.953 -0.033,-6.636 1.735,-13.373 -0.593,-20.234 -2.154,-6.35 4.04,-12.052 8.977,-12.052"
         id="path152" />
    </clipPath>
    <linearGradient
       id="_Linear11"
       x1="0"
       y1="0"
       x2="1"
       y2="0"
       gradientUnits="userSpaceOnUse"
       gradientTransform="matrix(6.20887,42.686,42.686,-6.20887,75.1467,375.629)">
      <stop
         offset="0"
         style="stop-color:rgb(238,202,118);stop-opacity:1"
         id="stop679" />
      <stop
         offset="1"
         style="stop-color:rgb(238,202,118);stop-opacity:0"
         id="stop681" />
    </linearGradient>
    <linearGradient
       id="_Linear12"
       x1="0"
       y1="0"
       x2="1"
       y2="0"
       gradientUnits="userSpaceOnUse"
       gradientTransform="matrix(-10.0894,86.1481,-86.1481,-10.0894,86.0539,391.572)">
      <stop
         offset="0"
         style="stop-color:rgb(238,202,118);stop-opacity:1"
         id="stop684" />
      <stop
         offset="1"
         style="stop-color:rgb(238,202,118);stop-opacity:0"
         id="stop686" />
    </linearGradient>
  </defs>
  <sodipodi:namedview
     id="base"
     pagecolor="#ffffff"
     bordercolor="#666666"
     borderopacity="1.0"
     inkscape:pageopacity="0.0"
     inkscape:pageshadow="2"
     inkscape:zoom="1.4"
     inkscape:cx="227.59722"
     inkscape:cy="62.738479"
     inkscape:document-units="mm"
     inkscape:current-layer="layer1"
     showgrid="false"
     inkscape:window-width="1920"
     inkscape:window-height="1025"
     inkscape:window-x="-8"
     inkscape:window-y="-8"
     inkscape:window-maximized="1"
     units="px"
     fit-margin-top="0"
     fit-margin-left="0"
     fit-margin-right="0"
     fit-margin-bottom="0" />
  <metadata
     id="metadata2800">
    <rdf:RDF>
      <cc:Work
         rdf:about="">
        <dc:format>image/svg+xml</dc:format>
        <dc:type
           rdf:resource="http://purl.org/dc/dcmitype/StillImage" />
        <dc:title></dc:title>
        <cc:license
           rdf:resource="http://creativecommons.org/publicdomain/zero/1.0/" />
        <dc:source>https://opengameart.org/node/110315</dc:source>
        <dc:creator>
          <cc:Agent>
            <dc:title>SpriteAttack</dc:title>
          </cc:Agent>
        </dc:creator>
      </cc:Work>
      <cc:License
         rdf:about="http://creativecommons.org/publicdomain/zero/1.0/">
        <cc:permits
           rdf:resource="http://creativecommons.org/ns#Reproduction" />
        <cc:permits
           rdf:resource="http://creativecommons.org/ns#Distribution" />
        <cc:permits
           rdf:resource="http://creativecommons.org/ns#DerivativeWorks" />
      </cc:License>
    </rdf:RDF>
  </metadata>
  <g
     inkscape:label="Layer 1"
     inkscape:groupmode="layer"
     id="layer1"
     transform="translate(331.1984,130.837)">
    <g
       transform="matrix(-0.21385125,-0.21385125,-0.21385125,0.21385125,-226.62164,-115.66927)"
       style="clip-rule:evenodd;display:inline;fill-rule:evenodd;stroke-miterlimit:22.92560005"
       id="g179">
      <g
         id="g148"
         transform="translate(0,-177.214)">
        <path
           id="path129"
           style="fill:#bb780c"
           d="m 126.576,237.613 c 0.5,43.932 -42.456,60.835 -42.456,148.668 0,87.833 43.736,104.456 42.497,148.809 0.661,3.684 -1.509,7.695 -5.004,7.695 -2.831,0 -5.127,-2.83 -5.127,-6.319 0,-3.489 2.785,-6.318 5.127,-6.318 2.342,0 1.497,-2.874 1.202,-5.368 -3.236,-30.696 -49.468,-52.295 -49.468,-139.028 0,-86.733 43.692,-103.282 49.668,-139.733 0.231,-1.287 0.935,-3.677 -1.402,-3.677 -2.337,0 -5.127,-2.83 -5.127,-6.319 0,-3.489 2.296,-6.318 5.127,-6.318 3.579,0 4.36,3.044 4.963,7.908"
           inkscape:connector-curvature="0" />
        <clipPath
           id="clipPath5952">
          <path
             id="path5950"
             d="m 126.576,237.613 c 0.5,43.932 -42.456,60.835 -42.456,148.668 0,87.833 43.736,104.456 42.497,148.809 0.661,3.684 -1.509,7.695 -5.004,7.695 -2.831,0 -5.127,-2.83 -5.127,-6.319 0,-3.489 2.785,-6.318 5.127,-6.318 2.342,0 1.497,-2.874 1.202,-5.368 -3.236,-30.696 -49.468,-52.295 -49.468,-139.028 0,-86.733 43.692,-103.282 49.668,-139.733 0.231,-1.287 0.935,-3.677 -1.402,-3.677 -2.337,0 -5.127,-2.83 -5.127,-6.319 0,-3.489 2.296,-6.318 5.127,-6.318 3.579,0 4.36,3.044 4.963,7.908"
             inkscape:connector-curvature="0" />
        </clipPath>
        <g
           id="g146"
           clip-path="url(#_clip7)">
          <g
             id="g136"
             transform="translate(0,-1.0716)">
            <path
               id="path134"
               style="fill:#dd9a22"
               d="m 122.825,238.149 c 0.5,43.932 -42.456,60.834 -42.456,148.668 0,87.833 43.736,104.456 42.498,148.808 0.661,3.685 -1.51,7.696 -5.005,7.696 -2.831,0 -5.127,-2.83 -5.127,-6.319 0,-3.489 2.786,-6.318 5.127,-6.318 2.341,0 1.498,-2.874 1.202,-5.368 -3.236,-30.696 -49.468,-52.296 -49.468,-139.028 0,-86.733 43.692,-103.283 49.668,-139.733 0.231,-1.287 0.935,-3.678 -1.402,-3.678 -2.337,0 -5.127,-2.829 -5.127,-6.318 0,-3.489 2.296,-6.318 5.127,-6.318 3.579,0 4.361,3.044 4.963,7.908"
               inkscape:connector-curvature="0" />
          </g>
          <g
             id="g140"
             transform="translate(0,87.7597)">
            <rect
               id="rect138"
               style="fill:url(#_Linear8-2)"
               height="20.362"
               width="22.237"
               y="332.18399"
               x="73.640999" />
          </g>
          <g
             id="g144"
             transform="translate(0,-64.9548)">
            <rect
               id="rect142"
               style="fill:url(#_Linear9-3)"
               height="20.362"
               width="22.237"
               y="408.54099"
               x="73.640999" />
          </g>
        </g>
      </g>
      <g
         id="g165"
         transform="translate(0,-163.763)">
        <path
           id="path150"
           style="fill:#ae6a04"
           d="m 80.218,345.874 c 4.938,0 10.915,5.647 8.978,12.052 -1.973,6.521 -5.867,12.958 -6.104,19.307 -0.304,8.096 3.592,16.059 6.105,23.88 2.049,6.375 -4.04,12.052 -8.978,12.052 -4.938,0 -10.781,-5.617 -8.977,-12.052 2.118,-7.554 0.631,-15.189 0.592,-22.953 -0.033,-6.636 1.735,-13.373 -0.593,-20.234 -2.154,-6.35 4.04,-12.052 8.977,-12.052"
           inkscape:connector-curvature="0" />
        <clipPath
           id="clipPath5965">
          <path
             id="path5963"
             d="m 80.218,345.874 c 4.938,0 10.915,5.647 8.978,12.052 -1.973,6.521 -5.867,12.958 -6.104,19.307 -0.304,8.096 3.592,16.059 6.105,23.88 2.049,6.375 -4.04,12.052 -8.978,12.052 -4.938,0 -10.781,-5.617 -8.977,-12.052 2.118,-7.554 0.631,-15.189 0.592,-22.953 -0.033,-6.636 1.735,-13.373 -0.593,-20.234 -2.154,-6.35 4.04,-12.052 8.977,-12.052"
             inkscape:connector-curvature="0" />
        </clipPath>
        <g
           id="g163"
           clip-path="url(#_clip10)">
          <g
             id="g157"
             transform="translate(0,-4.286)">
            <path
               id="path155"
               style="fill:#c27f12"
               d="m 75.932,348.017 c 4.938,0 10.915,5.647 8.978,12.052 -1.973,6.52 -5.868,12.958 -6.105,19.307 -0.303,8.096 3.592,16.059 6.106,23.88 2.049,6.375 -4.04,12.052 -8.978,12.052 -4.938,0 -10.781,-5.617 -8.977,-12.052 2.118,-7.554 0.631,-15.189 0.592,-22.953 -0.033,-6.636 1.735,-13.373 -0.593,-20.234 -2.154,-6.35 4.04,-12.052 8.977,-12.052"
               inkscape:connector-curvature="0" />
          </g>
          <g
             id="g161"
             transform="matrix(-1,0,0,1,157.32,-51.2113)">
            <path
               id="path159"
               style="fill:url(#_Linear11)"
               d="m 78.66,399.029 c -3,0 -5.431,2.73 -5.431,6.096 0,3.366 2.431,6.096 5.431,6.096 3,0 5.431,-2.73 5.431,-6.096 0,-3.366 -2.431,-6.096 -5.431,-6.096"
               inkscape:connector-curvature="0" />
          </g>
        </g>
      </g>
      <g
         id="g169"
         transform="matrix(-1,0,0,1,239.963,-479.68)">
        <path
           id="path167"
           style="fill:#eeca76"
           d="m 119.981,534.665 c -0.924,0 -1.674,1.259 -1.674,2.813 0,1.553 0.75,2.813 1.674,2.813 0.925,0 1.675,-1.26 1.675,-2.813 0,-1.554 -0.75,-2.813 -1.675,-2.813"
           inkscape:connector-curvature="0" />
      </g>
      <g
         id="g173"
         transform="translate(0,-297.663)">
        <path
           id="path171"
           style="fill:url(#_Linear12)"
           d="m 109.599,404.824 c -12.338,16.076 -21.088,39.725 -24.972,60.485 -1.238,6.613 -5.873,22.805 -4.968,4.554 1.045,-21.094 18.164,-54.858 29.94,-65.039"
           inkscape:connector-curvature="0" />
      </g>
      <g
         id="g177"
         transform="translate(0,-176.642)">
        <path
           id="path175"
           style="fill:none;fill-rule:nonzero;stroke:#000000;stroke-width:1.41999996px;stroke-linecap:round;stroke-miterlimit:2.61313009"
           d="m 122.948,243.369 3.22,2.3 1.027,280.23 -3.39,2.65"
           inkscape:connector-curvature="0" />
      </g>
    </g>
  </g>
</svg>
