<?xml version="1.0" encoding="UTF-8" standalone="no"?>
<svg
   xmlns:dc="http://purl.org/dc/elements/1.1/"
   xmlns:cc="http://creativecommons.org/ns#"
   xmlns:rdf="http://www.w3.org/1999/02/22-rdf-syntax-ns#"
   xmlns:svg="http://www.w3.org/2000/svg"
   xmlns="http://www.w3.org/2000/svg"
   xmlns:sodipodi="http://sodipodi.sourceforge.net/DTD/sodipodi-0.dtd"
   xmlns:inkscape="http://www.inkscape.org/namespaces/inkscape"
   version="1.1"
   x="0"
   y="0"
   width="256"
   height="256"
   viewBox="0 0 255.99999 256"
   id="svg906"
   sodipodi:docname="bok_choy.svg"
   inkscape:version="0.92.4 (5da689c313, 2019-01-14)">
  <title
     id="title1528">Bok Choy</title>
  <metadata
     id="metadata910">
    <rdf:RDF>
      <cc:Work
         rdf:about="">
        <dc:format>image/svg+xml</dc:format>
        <dc:type
           rdf:resource="http://purl.org/dc/dcmitype/StillImage" />
        <dc:title>Bok Choy</dc:title>
        <dc:creator>
          <cc:Agent>
            <dc:title>oksmith</dc:title>
          </cc:Agent>
        </dc:creator>
        <dc:source>https://openclipart.org/detail/312486</dc:source>
        <cc:license
           rdf:resource="http://creativecommons.org/publicdomain/zero/1.0/" />
      </cc:Work>
      <cc:License
         rdf:about="http://creativecommons.org/publicdomain/zero/1.0/">
        <cc:permits
           rdf:resource="http://creativecommons.org/ns#Reproduction" />
        <cc:permits
           rdf:resource="http://creativecommons.org/ns#Distribution" />
        <cc:permits
           rdf:resource="http://creativecommons.org/ns#DerivativeWorks" />
      </cc:License>
    </rdf:RDF>
  </metadata>
  <sodipodi:namedview
     pagecolor="#ffffff"
     bordercolor="#666666"
     borderopacity="1"
     objecttolerance="10"
     gridtolerance="10"
     guidetolerance="10"
     inkscape:pageopacity="0"
     inkscape:pageshadow="2"
     inkscape:window-width="1920"
     inkscape:window-height="1025"
     id="namedview908"
     showgrid="false"
     inkscape:zoom="1.1731262"
     inkscape:cx="30.495086"
     inkscape:cy="24.673454"
     inkscape:window-x="-8"
     inkscape:window-y="-8"
     inkscape:window-maximized="1"
     inkscape:current-layer="svg906"
     fit-margin-top="0"
     fit-margin-left="0"
     fit-margin-right="0"
     fit-margin-bottom="0" />
  <defs
     id="defs433">
    <linearGradient
       id="Gradient_20"
       gradientUnits="userSpaceOnUse"
       x1="108.589"
       y1="207.882"
       x2="89.32"
       y2="274.25299">
      <stop
         offset="0"
         stop-color="#E1EED5"
         id="stop411" />
      <stop
         offset="0.125"
         stop-color="#DEEDD3"
         id="stop413" />
      <stop
         offset="0.25"
         stop-color="#DAEBCE"
         id="stop415" />
      <stop
         offset="0.375"
         stop-color="#D3E7C7"
         id="stop417" />
      <stop
         offset="0.5"
         stop-color="#CBE3BF"
         id="stop419" />
      <stop
         offset="0.625"
         stop-color="#C1DDB5"
         id="stop421" />
      <stop
         offset="0.75"
         stop-color="#B4D8AA"
         id="stop423" />
      <stop
         offset="0.875"
         stop-color="#A5D19F"
         id="stop425" />
      <stop
         offset="1"
         stop-color="#97CB93"
         id="stop427" />
    </linearGradient>
    <clipPath
       id="Clip_17">
      <path
         d="m 176.289,164.215 c 8.785,0.021 17.598,0.327 26.326,1.389 0,0 -12,33 -18,48 -6,15 -1.5,29.25 -5.25,51.75 -3.75,22.5 -12,19.5 -27,23.25 -15,3.75 -36.75,-9 -45,-12 -8.25,-3 -6,-7.5 -6.75,-19.5 -0.75,-12 9.75,-21 17.25,-34.5 7.5,-13.5 4.5,-38.25 4.5,-38.25 7.239,-18.963 37.056,-19.727 53.924,-20.139 z"
         id="path430"
         inkscape:connector-curvature="0" />
    </clipPath>
  </defs>
  <g
     id="g1526"
     transform="matrix(0.97834858,0.54229912,-0.54229912,0.97834858,56.395123,-115.76477)">
    <path
       d="m 189.115,200.104 c 0,0 3,3 9,0.75 6,-2.25 6.75,-4.5 11.25,-5.25 4.5,-0.75 2.25,-0.75 7.5,0 5.25,0.75 5.25,3 9,-3 3.75,-6 2.25,-9.75 6,-10.5 3.75,-0.75 12.75,-1.5 12,-6 -0.75,-4.5 -3.75,-11.25 0,-15 3.75,-3.75 8.25,-6 6,-10.5 -2.25,-4.5 -2.25,-8.25 0,-12.75 2.25,-4.5 7.5,-12.75 3,-15 -4.664,-2.333 -9,-9.973 -9,-5.25 0,5.25 7.5,-14.25 5.25,-16.5 -2.25,-2.25 -6.75,1.5 -6,-5.25 0.75,-6.75 3.75,-13.5 -2.25,-15.75 -6,-2.25 -13.5,-0.75 -16.5,-3.75 -3,-3 2.25,-8.25 -3.75,-8.25 -6,0 -5.25,-4.5 -9.75,-0.75 -4.5,3.75 -12,2.25 -12,2.25 0,0 -45.75,-26.25 -52.5,-22.5 -6.75,3.75 -4.5,10.5 -12.75,10.5 -8.25,0 -8.25,-3 -12,0.75 -3.75,3.75 -0.75,4.5 -7.5,4.5 -6.75,0 -11.25,0.75 -14.25,8.25 -3,7.5 0,15.75 -6,17.25 -6,1.5 -11.25,0 -10.5,9 0.75,9 7.5,18 2.25,23.25 -5.25,5.25 -12,8.25 -9.75,14.25 2.25,6 7.5,7.5 5.25,12.75 -2.25,5.25 -10.5,8.25 -3.75,11.25 6.75,3 11.25,-1.5 9.75,3.75 -1.5,5.25 -11.25,10.5 -6.75,14.25 4.5,3.75 3,3.75 16.5,4.5 13.5,0.75 18,3 16.5,5.25 -5.33,7.992 -14.25,6.75 -11.25,10.5 3,3.75 9,0 15,5.25 6,5.25 57,16.5 72,-2.25"
       id="path833"
       inkscape:connector-curvature="0"
       style="fill:#15a748" />
    <g
       clip-path="url(#Clip_17)"
       id="g841">
      <path
         d="m -2041.554,7613.696 85.148,24.721 L 174.469,298.975 89.32,274.254"
         id="path835"
         inkscape:connector-curvature="0"
         style="fill:#97cb93" />
      <path
         d="m 176.289,164.215 c 8.784,0.021 17.598,0.327 26.326,1.389 0,0 -12,33 -18,48 -6,15 -1.5,29.25 -5.25,51.75 -3.75,22.5 -12,19.5 -27,23.25 -15,3.75 -36.75,-9 -45,-12 -8.25,-3 -6,-7.5 -6.75,-19.5 -0.75,-12 9.75,-21 17.25,-34.5 7.5,-13.5 4.5,-38.25 4.5,-38.25 7.239,-18.963 37.056,-19.727 53.924,-20.139 z"
         id="path837"
         inkscape:connector-curvature="0"
         style="fill:url(#Gradient_20)" />
      <path
         d="m 108.59,207.882 85.149,24.721 2130.874,-7339.442 -85.149,-24.722"
         id="path839"
         inkscape:connector-curvature="0"
         style="fill:#e1efd5" />
    </g>
    <g
       id="g847">
      <path
         d="m 171.115,208.354 c 10.34,-0.666 14.24,-3.811 16.086,-12.94 2.961,-14.648 -12.25,-6.254 5.285,-21.211 6.051,-5.16 12.52,-3.057 14.434,-10.223 1.275,-4.761 -7.055,-4.742 -7.184,-8.972 -0.617,-20.199 23.164,-24.537 19.153,-45.279 -0.311,-1.604 -9.157,-7.067 -9.832,-9.264 -1.09,-3.543 -0.024,-4.66 0.55,-8.403 1.354,-8.796 5.067,-15.287 -8.562,-12.789 -2.063,-5.656 1.351,-12.031 -0.813,-17.789 -12.451,-0.789 -12.691,3.2 -15.123,-12.048 -1.275,-8.004 -2.299,-12.694 -9.732,-5.452 -3.629,3.539 1.246,8.539 -9.281,6.578 -5.465,-1.015 -12.883,-13.414 -15.672,-13.339 -8.672,0.226 -4.793,22.586 -4.526,26.125 0.323,4.265 3.268,3.537 -1.193,9.718 -3.781,5.245 -12.856,4.348 -15.153,7.295 -6.534,8.385 9.176,14.098 7.909,21.541 -1.725,10.137 -16.514,4.684 -18.744,16.61 -3.008,16.072 18.679,13.904 3.117,24.199 -5.145,3.402 -11.01,6.078 -10.906,13.312 0.172,11.997 9.957,6.663 15.945,11.129 5.602,4.182 1.848,2.401 -0.043,8.659 -1.121,3.703 -4.719,13.302 -2.227,16.771 3.27,4.559 11.686,-0.023 14.313,6.731 2.297,5.91 -1.406,7.859 3.699,12.791"
         id="path843"
         inkscape:connector-curvature="0"
         style="fill:#15a748" />
      <path
         d="m 171.115,208.354 c 10.34,-0.666 14.24,-3.811 16.086,-12.94 2.961,-14.648 -12.25,-6.254 5.285,-21.211 6.051,-5.16 12.52,-3.057 14.434,-10.223 1.275,-4.761 -7.055,-4.742 -7.184,-8.972 -0.617,-20.199 23.164,-24.537 19.153,-45.279 -0.311,-1.604 -9.157,-7.067 -9.832,-9.264 -1.09,-3.543 -0.024,-4.66 0.55,-8.403 1.354,-8.796 5.067,-15.287 -8.562,-12.789 -2.063,-5.656 1.351,-12.031 -0.813,-17.789 -12.451,-0.789 -12.691,3.2 -15.123,-12.048 -1.275,-8.004 -2.299,-12.694 -9.732,-5.452 -3.629,3.539 1.246,8.539 -9.281,6.578 -5.465,-1.015 -12.883,-13.414 -15.672,-13.339 -8.672,0.226 -4.793,22.586 -4.526,26.125 0.323,4.265 3.268,3.537 -1.193,9.718 -3.781,5.245 -12.856,4.348 -15.153,7.295 -6.534,8.385 9.176,14.098 7.909,21.541 -1.725,10.137 -16.514,4.684 -18.744,16.61 -3.008,16.072 18.679,13.904 3.117,24.199 -5.145,3.402 -11.01,6.078 -10.906,13.312 0.172,11.997 9.957,6.663 15.945,11.129 5.602,4.182 1.848,2.401 -0.043,8.659 -1.121,3.703 -4.719,13.302 -2.227,16.771 3.27,4.559 11.686,-0.023 14.313,6.731 2.297,5.91 -1.406,7.859 3.699,12.791"
         id="path845"
         inkscape:connector-curvature="0"
         style="fill-opacity:0;stroke:#1a1919;stroke-width:3;stroke-linecap:round;stroke-linejoin:round" />
    </g>
    <path
       d="m 162.115,122.854 c 0,0 3,-14.25 9,-9 6,5.25 6,6.75 5.25,19.5 -0.75,12.75 -7.5,73.5 -8.25,81.75 -0.75,8.25 -3.75,31.5 -4.5,41.25 -0.75,9.75 2.25,25.5 -20.25,33 -0.75,2.25 4.5,10.5 -8.25,6 -12.75,-4.5 -24,-9 -27.75,-11.25 -3.75,-2.25 -1.5,-10.5 -1.5,-10.5 0,0 0,-1.5 2.25,-8.25 2.25,-6.75 11.25,-21 20.25,-27.75 9,-6.75 25.5,-79.5 28.5,-90 3,-10.5 5.25,-24.75 5.25,-24.75"
       id="path849"
       inkscape:connector-curvature="0"
       style="fill:#cce3c2" />
    <path
       d="m 162.115,124.354 c 0,0 -18,90 -27,105 -6.871,11.451 -17.254,16.302 -24.75,29.25 -8.25,14.25 4.5,21.75 4.5,21.75 m 62.25,-153 c 0,0 -10.5,103.5 -12,121.5 -1.5,18 1.5,25.5 -7.5,33 -14.4,12 -29.351,4.5 -27.75,4.5 m -24.75,-11.25 c -8.23,-17.696 -4.766,-27.155 5.194,-41.131 10.763,-15.108 13.658,-32.594 12.806,-51.119 m 21,106.5 c 36.09,1.259 34.619,-17.377 37.617,-45.891 3.782,-35.998 -1.617,-20.859 19.383,-72.609 m -55.5,-124.5 c -5.588,2.361 -5.988,10.056 -11.383,12.49 -5.422,2.404 -8.923,-2.129 -14.269,-0.514 -3.074,0.932 -3.291,4.604 -4.686,5.076 -1.183,0.407 -5.343,-0.552 -5.847,-0.297 -2.412,1.219 -3.715,0.483 -5.795,2.504 -3.09,2.996 -6.895,18.895 -7.647,23.403 -19.463,1.328 -11.385,8.982 -9.287,21.964 0.473,2.918 0.941,6.391 -0.16,9.293 -1.902,5 -9.082,5.885 -10.785,9.715 -2.631,5.926 3.34,8.147 5.207,13.59 3.377,9.852 -4.86,4.424 -4.344,12.645 0.408,6.498 8.858,2.519 10.289,6.226 1.629,4.219 -8.685,7.11 -7.976,12.703 1.484,11.733 24.714,4.485 31.002,8.852 8.494,5.902 1.125,4.023 -4.135,8.051 -12.881,9.871 5.67,9.316 13.453,9.664 0.828,3.101 1.094,6.324 0.863,9.635 m -15.75,65.25 c -5.551,7.962 11.816,11.654 17.375,13.978 7.401,3.09 17.315,9.707 22.375,0.272 m 55.5,-224.25 c 2.836,1.146 6.324,4.017 9.406,3.808 2.325,-0.154 3.159,-4.4 6.239,-4.568 7.695,-0.422 7.836,6.152 8.453,12.679 6.859,0.549 14.342,-3.918 19.097,1.543 4.637,5.323 -0.502,10.801 0.512,16.028 0.375,1.953 4.453,2.504 4.928,4.902 0.467,2.36 -1.877,4.981 -2.248,7.233 -0.459,2.798 -3.078,6.189 -1.551,9.103 1.781,3.398 6.717,1.748 8.609,4.199 6.071,7.883 -5.664,15.114 -6.105,22.992 -0.203,3.653 3.394,5.998 2.184,10.508 -1.075,3.985 -5.325,5.264 -5.973,9.531 -1.514,9.981 7.299,12.946 -5.309,17.247 -10.209,3.484 -3.986,-0.737 -9.523,8.363 -6.117,10.051 -9.945,2.947 -19.551,4.986 -2.969,0.631 -9.918,8.696 -18.168,4.946"
       id="path851"
       inkscape:connector-curvature="0"
       style="fill-opacity:0;stroke:#1a1919;stroke-width:3;stroke-linecap:round;stroke-linejoin:round" />
  </g>
</svg>
