<?xml version="1.0" encoding="UTF-8" standalone="no"?>
<svg
   xmlns:dc="http://purl.org/dc/elements/1.1/"
   xmlns:cc="http://creativecommons.org/ns#"
   xmlns:rdf="http://www.w3.org/1999/02/22-rdf-syntax-ns#"
   xmlns:svg="http://www.w3.org/2000/svg"
   xmlns="http://www.w3.org/2000/svg"
   xmlns:sodipodi="http://sodipodi.sourceforge.net/DTD/sodipodi-0.dtd"
   xmlns:inkscape="http://www.inkscape.org/namespaces/inkscape"
   version="1.1"
   id="Layer_1"
   x="0px"
   y="0px"
   viewBox="0 0 256 256.00001"
   enable-background="new 0 0 3000 1500"
   xml:space="preserve"
   sodipodi:docname="bread_loaf.svg"
   inkscape:version="0.92.4 (5da689c313, 2019-01-14)"
   width="256"
   height="256"><title
   id="title2732">Bread Loaf</title><metadata
   id="metadata1923"><rdf:RDF><cc:Work
       rdf:about=""><dc:format>image/svg+xml</dc:format><dc:type
         rdf:resource="http://purl.org/dc/dcmitype/StillImage" /><dc:title>Bread Loaf</dc:title><cc:license
         rdf:resource="http://creativecommons.org/publicdomain/zero/1.0/" /><dc:creator><cc:Agent><dc:title>GDJ</dc:title></cc:Agent></dc:creator><dc:source>https://openclipart.org/detail/306096</dc:source></cc:Work><cc:License
       rdf:about="http://creativecommons.org/publicdomain/zero/1.0/"><cc:permits
         rdf:resource="http://creativecommons.org/ns#Reproduction" /><cc:permits
         rdf:resource="http://creativecommons.org/ns#Distribution" /><cc:permits
         rdf:resource="http://creativecommons.org/ns#DerivativeWorks" /></cc:License></rdf:RDF></metadata><defs
   id="defs1921" /><sodipodi:namedview
   pagecolor="#ffffff"
   bordercolor="#666666"
   borderopacity="1"
   objecttolerance="10"
   gridtolerance="10"
   guidetolerance="10"
   inkscape:pageopacity="0"
   inkscape:pageshadow="2"
   inkscape:window-width="1920"
   inkscape:window-height="1025"
   id="namedview1919"
   showgrid="false"
   inkscape:zoom="1.1464558"
   inkscape:cx="189.07086"
   inkscape:cy="92.59998"
   inkscape:window-x="-8"
   inkscape:window-y="-8"
   inkscape:window-maximized="1"
   inkscape:current-layer="Layer_1"
   fit-margin-top="0"
   fit-margin-left="0"
   fit-margin-right="0"
   fit-margin-bottom="0" />









<g
   id="g1070"
   transform="matrix(0.44717888,0,0,0.44717888,-445.73296,-386.48221)">
	<path
   d="m 1429.964,994.11 c 12.6,-1.65 25.52,-1.51 37.99,1.06 22.62,4.47 45.73,5.49 68.47,9.16 8.19,1.14 16.77,2.74 23.62,7.67 5.61,5.39 9.24,13.1 8.91,20.99 0.46,7.91 -3.08,15.3 -7.24,21.8 -6.53,9.64 -15.77,16.93 -24.86,24.02 -28.16,21.54 -57.56,41.38 -87.16,60.88 -19.02,12.43 -38.28,24.5 -57.78,36.16 -14.86,8.67 -29.76,17.33 -45.36,24.62 -9.57,4.41 -19.84,7.02 -29.3,11.68 -35.24,15.94 -68.93,35.08 -104.2,50.97 -18.15,8.12 -36.6,16.38 -56.37,19.57 -9.17,0.83 -18.26,2.3 -27.11,4.84 -25.15,6.28 -49.83,14.56 -75.45,18.85 -9.24,1.69 -18.7,1.87 -28.06,1.35 -7.98,-0.81 -16.31,-3.9 -21.37,-10.39 -3.88,-5.16 -5.1,-11.67 -6.32,-17.85 -3.95,-23.63 0.94,-48.22 11.83,-69.4 7.32,-13.59 16.51,-26.6 29.11,-35.78 10.7,-7.9 23.17,-13.53 36.26,-15.97 3.46,-0.96 7.34,-0.72 10.58,-2.25 8.32,-16.89 20.08,-32.38 35.45,-43.46 8.03,-5.68 17.04,-10.07 26.58,-12.51 7.88,-1.54 16.01,-3.28 24.06,-2.18 1.08,0.47 1.98,0.29 2.72,-0.55 2.76,-2.82 4.52,-6.4 6.92,-9.49 11.27,-15.33 27.55,-27.5 46.31,-31.67 7.83,-1.74 15.97,-2.84 24,-2.24 1.06,0.33 1.93,0.06 2.62,-0.81 5.95,-6.45 14.49,-9.53 20.74,-15.59 24.76,-20.55 57.91,-33.07 90.24,-27.36 4.86,0.47 10.16,3.23 14.76,0.31 15.201,-8.61 32.18,-13.81 49.41,-16.43 m -25.059,10.25 c 2.73,0.64 5.78,0.79 8.09,2.62 5.48,4.03 8,10.68 10.23,16.85 2.85,10.22 4.54,20.98 3.13,31.58 -0.79,4.14 -1.75,8.77 -5.39,11.39 -3.17,-1.41 -2.21,-5.26 -3.7,-7.8 -0.6,-2.89 -1.58,-5.72 -3.19,-8.19 -3.93,-10.6 -11.97,-19.35 -21.04,-25.89 -14,-9.44 -31.39,-12.8 -48.06,-12.02 -22.51,1.31 -43.93,10.57 -61.93,23.86 10.46,-2.71 22.25,-1.48 31.02,5.21 7.91,6.48 12.55,16.11 15.17,25.83 3.09,10.8 4.91,22.06 4.58,33.31 -1.72,0.54 -3.76,0.32 -4.19,-1.72 -3.33,-9.09 -9.24,-17.12 -16.66,-23.3 -16.11,-13.2 -37.5,-18.18 -57.97,-18.27 -10.75,0.2 -21.79,0.23 -32,4.05 -16.41,5.35 -30.14,17.08 -39.87,31.13 5.59,-1.85 11.04,-4.28 16.92,-5.06 11.26,-2.13 23.63,-1.74 33.7,4.25 15.74,7.37 25.72,23.66 28.5,40.43 0.78,5.4 1.99,10.97 0.77,16.41 -4.19,0.11 -5.28,-4.76 -7.77,-7.26 -17.14,-20.53 -42.14,-33.89 -68.29,-38.69 -19.47,-3.7 -40.5,-1.11 -57.58,9.29 -16.83,10.31 -29.95,26.11 -38.52,43.77 3.26,-0.08 6.65,0.49 9.84,-0.36 4.24,-3.17 8.14,-6.93 13.13,-8.96 8.28,-4.15 18.3,-5.15 26.98,-1.61 7.76,2.77 14,8.69 18.46,15.5 5.92,9.13 9.48,19.67 11.37,30.34 0.91,2.53 -3,3.71 -3.95,1.37 -9.52,-13.1 -23.73,-22.28 -39.01,-27.27 -18.8,-6.25 -39.58,-6.88 -58.58,-1.08 -18.84,5.2 -35.57,17.35 -46.52,33.52 -3.03,4.91 -6.99,9.46 -8.58,15.09 -2.91,3.64 -4.36,8.13 -5.94,12.45 -5.99,15.53 -7.93,32.55 -6.24,49.08 1.23,7.73 1.74,16.5 7.62,22.37 6.08,6.21 15.31,7.13 23.54,7.48 14.13,-0.1 28.16,-2.58 41.8,-6.14 23.25,-5.32 45.83,-13.26 69.28,-17.76 7.19,-1.48 14.66,-1.28 21.76,-3.3 20.09,-5.53 39.08,-14.29 57.91,-23.1 18.13,-8.72 36.07,-17.85 54,-27 17.09,-8.46 34.05,-17.31 51.9,-24.12 15.37,-4.75 29.37,-12.88 43.43,-20.53 34.46,-19.66 67.85,-41.12 100.73,-63.3 6.43,-4.61 13.43,-8.5 19.34,-13.79 2.73,-0.97 4.83,-3.1 7.27,-4.6 9.65,-6.64 19.09,-13.57 28.47,-20.58 9.33,-7.23 19.01,-14.24 26.59,-23.39 3.63,-4.7 7.04,-9.81 8.42,-15.68 2.56,-8.91 0.5,-19.68 -6.79,-25.82 -4.18,-3.45 -9.7,-4.29 -14.8,-5.47 -12.54,-2.59 -25.31,-3.87 -38.04,-5 -12.46,-1.43 -24.87,-3.19 -37.21,-5.41 -20.691,-3.62 -42.38,-1.91 -62.13,5.29 m -10.35,5.31 c -4.18,1.09 -8.32,2.38 -12.1,4.5 3.81,2.82 8.49,4.19 12.28,7.11 5.66,3.41 9.97,8.49 14.73,12.99 2.02,3.66 4.65,6.97 6.59,10.69 2.43,4.17 3.56,8.93 5.75,13.22 1.96,-8.91 1.15,-18.22 -0.89,-27.04 -1.78,-7.1 -3.81,-14.61 -9.09,-19.98 -4.9,-3.86 -11.65,-2.9 -17.27,-1.49 m -117.03,33.5 c -6.29,2.33 -12.08,6.06 -17.03,10.57 8.01,0.69 16.01,1.71 23.77,3.84 10.21,2.22 19.47,7.3 28.34,12.64 2.41,2.64 5.4,4.7 7.9,7.29 3.13,3.31 5.79,7.03 8.45,10.72 -0.68,-10.53 -3.39,-20.87 -7.72,-30.48 -3.5,-7.08 -8.9,-13.72 -16.54,-16.43 -8.83,-2.85 -18.81,-2.13 -27.17,1.85 m -75.951,48.75 c -4.01,0.39 -7.84,1.76 -11.67,2.89 -2.49,0.97 -5.34,1.5 -7.19,3.58 15.74,1.99 30.93,7.41 44.73,15.19 5.7,3.03 10.63,7.3 16.23,10.47 1.07,1.94 3.08,3.13 4.65,4.65 3.97,3.33 7.14,7.44 10.82,11.06 -1.02,-11.42 -4.79,-22.83 -11.99,-31.87 -10.639,-13.13 -28.969,-20.33 -45.58,-15.97 m -85,57.96 c -3.52,1.89 -7.27,3.62 -10.01,6.62 8.5,1.29 17.12,2.54 25.16,5.77 2.82,1.03 5.5,2.63 8.56,2.94 2.32,2.25 5.6,3.32 8.23,5.22 6.08,3.41 11.04,8.33 16.28,12.83 -3.43,-11.69 -8.8,-23.74 -19.04,-30.98 -8.31,-6.11 -19.939,-6.56 -29.18,-2.4 z"
   id="path1042"
   inkscape:connector-curvature="0"
   style="stroke:#000000;stroke-width:0.5" />
	<path
   d="m 1404.905,1004.36 c 19.75,-7.2 41.44,-8.91 62.13,-5.29 12.34,2.22 24.75,3.98 37.21,5.41 12.73,1.13 25.5,2.41 38.04,5 5.1,1.18 10.62,2.02 14.8,5.47 7.29,6.14 9.35,16.91 6.79,25.82 -1.38,5.87 -4.79,10.98 -8.42,15.68 -7.58,9.15 -17.26,16.16 -26.59,23.39 -9.38,7.01 -18.82,13.94 -28.47,20.58 -2.44,1.5 -4.54,3.63 -7.27,4.6 -8.67,1.94 -15.74,7.57 -23.5,11.56 -15.45,8.92 -30.61,18.34 -46.44,26.6 -19.92,10.78 -40.72,19.77 -60.86,30.13 -33.17,17.14 -68.52,29.49 -103.95,41.03 -20.12,7 -40,14.63 -60,21.96 -16.82,6.22 -34.07,11.17 -51,17.07 -29.21,9.97 -58.69,20.47 -89.64,23.26 -9.86,0.73 -20.36,0.6 -29.34,-4.05 -6.86,-3.7 -10.5,-11.29 -12.41,-18.52 -1.82,-9.6 -2.2,-19.47 -1.26,-29.18 0.4,-4.09 -0.08,-8.18 -0.73,-12.2 1.59,-5.63 5.55,-10.18 8.58,-15.09 10.95,-16.17 27.68,-28.32 46.52,-33.52 19,-5.8 39.78,-5.17 58.58,1.08 15.28,4.99 29.49,14.17 39.01,27.27 0.95,2.34 4.86,1.16 3.95,-1.37 -1.89,-10.67 -5.45,-21.21 -11.37,-30.34 -4.46,-6.81 -10.7,-12.73 -18.46,-15.5 -8.68,-3.54 -18.7,-2.54 -26.98,1.61 -4.99,2.03 -8.89,5.79 -13.13,8.96 -3.19,0.85 -6.58,0.28 -9.84,0.36 8.57,-17.66 21.69,-33.46 38.52,-43.77 17.08,-10.4 38.11,-12.99 57.58,-9.29 26.15,4.8 51.15,18.16 68.29,38.69 2.49,2.5 3.58,7.37 7.77,7.26 1.22,-5.44 0.01,-11.01 -0.77,-16.41 -2.78,-16.77 -12.76,-33.06 -28.5,-40.43 -10.07,-5.99 -22.44,-6.38 -33.7,-4.25 -5.88,0.78 -11.33,3.21 -16.92,5.06 9.73,-14.05 23.46,-25.78 39.87,-31.13 10.21,-3.82 21.25,-3.85 32,-4.05 20.47,0.09 41.86,5.07 57.97,18.27 7.42,6.18 13.33,14.21 16.66,23.3 0.43,2.04 2.47,2.26 4.19,1.72 0.33,-11.25 -1.49,-22.51 -4.58,-33.31 -2.62,-9.72 -7.26,-19.35 -15.17,-25.83 -8.77,-6.69 -20.56,-7.92 -31.02,-5.21 18,-13.29 39.42,-22.55 61.93,-23.86 16.67,-0.78 34.06,2.58 48.06,12.02 9.07,6.54 17.11,15.29 21.04,25.89 0.65,2.87 1.67,5.65 3.19,8.19 1.49,2.54 0.53,6.39 3.7,7.8 3.64,-2.62 4.6,-7.25 5.39,-11.39 1.41,-10.6 -0.28,-21.36 -3.13,-31.58 -2.23,-6.17 -4.75,-12.82 -10.23,-16.85 -2.31,-1.83 -5.36,-1.98 -8.09,-2.62 z"
   id="path1044"
   inkscape:connector-curvature="0"
   style="fill:#f9a003;stroke:#f9a003;stroke-width:0.5" />
	<path
   d="m 1394.555,1009.67 c 5.62,-1.41 12.37,-2.37 17.27,1.49 5.28,5.37 7.31,12.88 9.09,19.98 2.04,8.82 2.85,18.13 0.89,27.04 -2.19,-4.29 -3.32,-9.05 -5.75,-13.22 -1.94,-3.72 -4.57,-7.03 -6.59,-10.69 0.56,-6.72 -2.72,-12.94 -6.35,-18.34 -2.041,-3.04 -5.43,-4.63 -8.56,-6.26 z"
   id="path1046"
   inkscape:connector-curvature="0"
   style="fill:#f9cf8c;stroke:#f9cf8c;stroke-width:0.5" />
	<path
   d="m 1382.454,1014.17 c 3.78,-2.12 7.92,-3.41 12.1,-4.5 3.13,1.63 6.52,3.22 8.56,6.26 3.63,5.4 6.91,11.62 6.35,18.34 -4.76,-4.5 -9.07,-9.58 -14.73,-12.99 -3.79,-2.92 -8.469,-4.29 -12.28,-7.11 z"
   id="path1048"
   inkscape:connector-curvature="0"
   style="fill:#e0ba7e;stroke:#e0ba7e;stroke-width:0.5" />
	<path
   d="m 1277.525,1043.17 c 8.36,-3.98 18.34,-4.7 27.17,-1.85 7.64,2.71 13.04,9.35 16.54,16.43 4.33,9.61 7.04,19.95 7.72,30.48 -2.66,-3.69 -5.32,-7.41 -8.45,-10.72 -2.5,-2.59 -5.49,-4.65 -7.9,-7.29 -1.14,-6.89 -6.33,-12.04 -11.16,-16.66 -6.58,-6.07 -15.3,-8.8 -23.92,-10.39 z"
   id="path1050"
   inkscape:connector-curvature="0"
   style="fill:#f9cf8c;stroke:#f9cf8c;stroke-width:0.5" />
	<path
   d="m 1260.495,1053.74 c 4.95,-4.51 10.74,-8.24 17.03,-10.57 8.62,1.59 17.34,4.32 23.92,10.39 4.83,4.62 10.02,9.77 11.16,16.66 -8.87,-5.34 -18.13,-10.42 -28.34,-12.64 -7.76,-2.13 -15.76,-3.15 -23.77,-3.84 z"
   id="path1052"
   inkscape:connector-curvature="0"
   style="fill:#e0ba7e;stroke:#e0ba7e;stroke-width:0.5" />
	<path
   d="m 1414.074,1050.81 c 1.61,2.47 2.59,5.3 3.19,8.19 -1.519,-2.54 -2.54,-5.32 -3.19,-8.19 z"
   id="path1054"
   inkscape:connector-curvature="0"
   style="fill:#f7e3ba;stroke:#f7e3ba;stroke-width:0.5" />
	<path
   enable-background="new    "
   d="m 1252.194,1053.99 c 0.4,-1.6 1.27,-1.87 2.62,-0.81 -0.689,0.87 -1.559,1.14 -2.62,0.81 z"
   id="path1056"
   inkscape:connector-curvature="0"
   style="opacity:0.7;fill:#4e3300;stroke:#4e3300;stroke-width:0.5" />
	<path
   d="m 1201.574,1091.92 c 16.61,-4.36 34.94,2.84 45.58,15.97 7.2,9.04 10.97,20.45 11.99,31.87 -3.68,-3.62 -6.85,-7.73 -10.82,-11.06 -1.57,-1.52 -3.58,-2.71 -4.65,-4.65 -1.96,-5.99 -6.66,-10.39 -10.84,-14.87 -5.46,-5.62 -11.15,-11.45 -18.55,-14.43 -4.099,-1.48 -8.46,-2.01 -12.71,-2.83 z"
   id="path1058"
   inkscape:connector-curvature="0"
   style="fill:#f9cf8c;stroke:#f9cf8c;stroke-width:0.5" />
	<path
   d="m 1189.905,1094.81 c 3.83,-1.13 7.66,-2.5 11.67,-2.89 4.25,0.82 8.61,1.35 12.71,2.83 7.4,2.98 13.09,8.81 18.55,14.43 4.18,4.48 8.88,8.88 10.84,14.87 -5.6,-3.17 -10.53,-7.44 -16.23,-10.47 -13.8,-7.78 -28.99,-13.2 -44.73,-15.19 1.85,-2.08 4.7,-2.61 7.19,-3.58 z"
   id="path1060"
   inkscape:connector-curvature="0"
   style="fill:#e0ba7e;stroke:#e0ba7e;stroke-width:0.5" />
	<path
   enable-background="new    "
   d="m 1172.245,1097.94 c 0.55,-1.5 1.46,-1.69 2.72,-0.55 -0.741,0.84 -1.641,1.02 -2.72,0.55 z"
   id="path1062"
   inkscape:connector-curvature="0"
   style="opacity:0.70999995;fill:#5e3c01;stroke:#5e3c01;stroke-width:0.5" />
	<path
   d="m 1469.625,1116.58 c 7.76,-3.99 14.83,-9.62 23.5,-11.56 -5.91,5.29 -12.91,9.18 -19.34,13.79 -32.88,22.18 -66.27,43.64 -100.73,63.3 -14.06,7.65 -28.06,15.78 -43.43,20.53 -17.85,6.81 -34.81,15.66 -51.9,24.12 -17.93,9.15 -35.87,18.28 -54,27 -18.83,8.81 -37.82,17.57 -57.91,23.1 -7.1,2.02 -14.57,1.82 -21.76,3.3 -23.45,4.5 -46.03,12.44 -69.28,17.76 -13.64,3.56 -27.67,6.04 -41.8,6.14 -8.23,-0.35 -17.46,-1.27 -23.54,-7.48 -5.88,-5.87 -6.39,-14.64 -7.62,-22.37 -1.69,-16.53 0.25,-33.55 6.24,-49.08 1.58,-4.32 3.03,-8.81 5.94,-12.45 0.65,4.02 1.13,8.11 0.73,12.2 -0.94,9.71 -0.56,19.58 1.26,29.18 1.91,7.23 5.55,14.82 12.41,18.52 8.98,4.65 19.48,4.78 29.34,4.05 30.95,-2.79 60.43,-13.29 89.64,-23.26 16.93,-5.9 34.18,-10.85 51,-17.07 20,-7.33 39.88,-14.96 60,-21.96 35.43,-11.54 70.78,-23.89 103.95,-41.03 20.14,-10.36 40.94,-19.35 60.86,-30.13 15.83,-8.26 30.99,-17.68 46.44,-26.6 z"
   id="path1064"
   inkscape:connector-curvature="0"
   style="fill:#e09003;stroke:#e09003;stroke-width:0.5" />
	<path
   d="m 1116.574,1149.88 c 9.24,-4.16 20.87,-3.71 29.18,2.4 10.24,7.24 15.61,19.29 19.04,30.98 -5.24,-4.5 -10.2,-9.42 -16.28,-12.83 -2.63,-1.9 -5.91,-2.97 -8.23,-5.22 -4.71,-8.72 -14.68,-12.7 -23.71,-15.33 z"
   id="path1066"
   inkscape:connector-curvature="0"
   style="fill:#f9cf8c;stroke:#f9cf8c;stroke-width:0.5" />
	<path
   d="m 1106.565,1156.5 c 2.74,-3 6.49,-4.73 10.01,-6.62 9.03,2.63 19,6.61 23.71,15.33 -3.06,-0.31 -5.74,-1.91 -8.56,-2.94 -8.04,-3.23 -16.66,-4.48 -25.16,-5.77 z"
   id="path1068"
   inkscape:connector-curvature="0"
   style="fill:#e1bb7f;stroke:#e1bb7f;stroke-width:0.5" />
</g>




</svg>