<?xml version="1.0" encoding="UTF-8" standalone="no"?>
<svg
   xmlns:dc="http://purl.org/dc/elements/1.1/"
   xmlns:cc="http://creativecommons.org/ns#"
   xmlns:rdf="http://www.w3.org/1999/02/22-rdf-syntax-ns#"
   xmlns:svg="http://www.w3.org/2000/svg"
   xmlns="http://www.w3.org/2000/svg"
   xmlns:sodipodi="http://sodipodi.sourceforge.net/DTD/sodipodi-0.dtd"
   xmlns:inkscape="http://www.inkscape.org/namespaces/inkscape"
   version="1.1"
   x="0"
   y="0"
   width="256"
   height="256"
   viewBox="0 0 256 256"
   id="svg906"
   sodipodi:docname="cabbage.svg"
   inkscape:version="0.92.4 (5da689c313, 2019-01-14)">
  <title
     id="title1533">Cabbage</title>
  <metadata
     id="metadata910">
    <rdf:RDF>
      <cc:Work
         rdf:about="">
        <dc:format>image/svg+xml</dc:format>
        <dc:type
           rdf:resource="http://purl.org/dc/dcmitype/StillImage" />
        <dc:title>Cabbage</dc:title>
        <dc:creator>
          <cc:Agent>
            <dc:title>oksmith</dc:title>
          </cc:Agent>
        </dc:creator>
        <dc:source>https://openclipart.org/detail/312486</dc:source>
        <cc:license
           rdf:resource="http://creativecommons.org/publicdomain/zero/1.0/" />
      </cc:Work>
      <cc:License
         rdf:about="http://creativecommons.org/publicdomain/zero/1.0/">
        <cc:permits
           rdf:resource="http://creativecommons.org/ns#Reproduction" />
        <cc:permits
           rdf:resource="http://creativecommons.org/ns#Distribution" />
        <cc:permits
           rdf:resource="http://creativecommons.org/ns#DerivativeWorks" />
      </cc:License>
    </rdf:RDF>
  </metadata>
  <sodipodi:namedview
     pagecolor="#ffffff"
     bordercolor="#666666"
     borderopacity="1"
     objecttolerance="10"
     gridtolerance="10"
     guidetolerance="10"
     inkscape:pageopacity="0"
     inkscape:pageshadow="2"
     inkscape:window-width="1920"
     inkscape:window-height="1025"
     id="namedview908"
     showgrid="false"
     inkscape:zoom="1.659051"
     inkscape:cx="4.7628881"
     inkscape:cy="77.505363"
     inkscape:window-x="-8"
     inkscape:window-y="-8"
     inkscape:window-maximized="1"
     inkscape:current-layer="svg906"
     fit-margin-top="0"
     fit-margin-left="0"
     fit-margin-right="0"
     fit-margin-bottom="0" />
  <defs
     id="defs433">
    <linearGradient
       id="Gradient_11"
       gradientUnits="userSpaceOnUse"
       x1="407.26099"
       y1="901.11102"
       x2="370.57999"
       y2="1047.8361">
      <stop
         offset="0"
         stop-color="#CCE3C2"
         id="stop219" />
      <stop
         offset="0.125"
         stop-color="#C6E0BC"
         id="stop221" />
      <stop
         offset="0.25"
         stop-color="#BFDDB5"
         id="stop223" />
      <stop
         offset="0.375"
         stop-color="#B8DAAF"
         id="stop225" />
      <stop
         offset="0.5"
         stop-color="#B1D7A9"
         id="stop227" />
      <stop
         offset="0.625"
         stop-color="#AAD3A3"
         id="stop229" />
      <stop
         offset="0.75"
         stop-color="#A3D09E"
         id="stop231" />
      <stop
         offset="0.875"
         stop-color="#9DCE98"
         id="stop233" />
      <stop
         offset="1"
         stop-color="#97CB93"
         id="stop235" />
    </linearGradient>
    <clipPath
       id="Clip_10">
      <path
         d="m 308.629,851.655 c 0.457,0.152 0.969,0.191 1.371,0.457 2.484,1.646 3.786,6.692 4.409,9.485 0,0 0,16.301 -1.637,19.562 8.155,18.748 29.348,27.715 45.653,43.203 17.121,17.121 14.674,62.768 14.674,62.768 -1.631,48.912 -61.139,82.334 -123.094,75.809 -61.955,-6.522 -75.809,-68.471 -80.698,-90.481 -4.894,-22.01 4.075,-39.943 14.672,-58.693 14.672,-26.899 75.811,-34.239 75.811,-34.239 0,0 11.412,-3.257 17.935,-7.334 6.522,-4.076 3.258,-4.076 4.073,-11.414 0.814,-7.335 4.078,-4.072 8.965,-1.629 4.896,2.448 4.896,1.629 11.416,0 6.523,-1.628 1.628,-5.706 5.705,-7.335 z"
         id="path238"
         inkscape:connector-curvature="0" />
    </clipPath>
    <linearGradient
       id="Gradient_12"
       gradientUnits="userSpaceOnUse"
       x1="277.66299"
       y1="899.51001"
       x2="233.416"
       y2="1065.027">
      <stop
         offset="0"
         stop-color="#97CB93"
         id="stop241" />
      <stop
         offset="0.125"
         stop-color="#97CB93"
         id="stop243" />
      <stop
         offset="0.25"
         stop-color="#97CB93"
         id="stop245" />
      <stop
         offset="0.375"
         stop-color="#98CC94"
         id="stop247" />
      <stop
         offset="0.5"
         stop-color="#9BCD97"
         id="stop249" />
      <stop
         offset="0.625"
         stop-color="#A2D09C"
         id="stop251" />
      <stop
         offset="0.75"
         stop-color="#AFD6A6"
         id="stop253" />
      <stop
         offset="0.875"
         stop-color="#C5DFB8"
         id="stop255" />
      <stop
         offset="1"
         stop-color="#E1EED5"
         id="stop257" />
    </linearGradient>
    <clipPath
       id="Clip_11">
      <path
         d="m 383.574,909.827 c 1.212,0.331 1.876,1.345 2.565,2.305 3.262,4.894 -3.261,4.894 3.262,4.894 6.524,0 17.12,2.446 17.93,7.336 0.818,4.891 -0.812,14.676 4.078,15.492 4.891,0.811 12.226,1.629 11.412,8.961 -0.814,7.34 -3.26,9.789 0.814,13.047 4.079,3.258 10.6,9.778 7.341,13.856 -3.262,4.076 -6.524,1.629 -6.524,7.334 0,5.709 -0.002,12.228 -3.262,14.674 -3.258,2.447 -4.076,2.447 -4.89,7.336 -0.815,4.89 0,8.154 -4.891,6.523 -4.89,-1.633 -5.709,-5.707 -7.338,-1.633 -1.627,4.078 -9.775,8.969 -13.853,4.895 -4.079,-4.078 -7.34,-5.711 -13.043,0 -3.004,9.926 -8.422,19.2 -15.174,27.037 -30.069,34.899 -79.054,35.321 -120.745,26.173 5.527,-0.257 11.062,-0.986 16.409,-2.446 3.107,-0.848 6.95,-2.119 8.642,-5.116 0,0 1.637,-10.597 7.34,-8.965 5.707,1.629 9.782,6.522 9.782,-1.632 0,-8.153 -2.446,-5.704 2.447,-9.778 4.887,-4.078 12.228,-7.34 14.672,-24.455 4.078,-13.863 1.629,-14.674 13.041,-13.863 11.414,0.818 2.449,-1.629 17.933,-4.076 15.491,-2.446 13.041,-5.707 21.198,-5.707 8.15,0 18.748,-2.446 20.379,-4.889 1.628,-21.193 1.628,-50.541 -22.829,-70.922 3.268,-0.81 4.893,0.818 11.415,0.818 6.521,0 8.966,-2.445 14.671,-4.076 2.348,-0.435 4.096,-2.279 6.293,-3.042 0.292,-0.101 0.617,-0.054 0.925,-0.081 z m -143.349,158.004 1.031,0.226 c -0.538,0.026 -0.826,0.049 -1.426,0.018 -0.12,-0.01 -0.328,0.055 -0.356,-0.062 -0.027,-0.108 0.206,-0.084 0.314,-0.111 0.144,-0.034 0.291,-0.047 0.437,-0.071 z"
         id="path260"
         inkscape:connector-curvature="0" />
    </clipPath>
    <linearGradient
       id="Gradient_13"
       gradientUnits="userSpaceOnUse"
       x1="131.61"
       y1="860.23499"
       x2="87.234001"
       y2="1026.233">
      <stop
         offset="0"
         stop-color="#97CB93"
         id="stop263" />
      <stop
         offset="0.125"
         stop-color="#97CB93"
         id="stop265" />
      <stop
         offset="0.25"
         stop-color="#97CB93"
         id="stop267" />
      <stop
         offset="0.375"
         stop-color="#98CC94"
         id="stop269" />
      <stop
         offset="0.5"
         stop-color="#9BCD97"
         id="stop271" />
      <stop
         offset="0.625"
         stop-color="#A2D09C"
         id="stop273" />
      <stop
         offset="0.75"
         stop-color="#AFD6A6"
         id="stop275" />
      <stop
         offset="0.875"
         stop-color="#C5DFB8"
         id="stop277" />
      <stop
         offset="1"
         stop-color="#E1EED5"
         id="stop279" />
    </linearGradient>
    <clipPath
       id="Clip_12">
      <path
         d="m 220.661,878.714 c 10.594,0 12.225,5.707 12.225,5.707 0,0 -8.965,2.445 -18.746,7.332 -9.78,4.895 -22.825,10.601 -32.606,24.455 -14.674,25.275 -15.488,41.578 -11.41,51.357 4.074,9.782 9.779,8.153 14.672,11.418 4.89,3.258 2.443,5.704 2.443,11.407 0,5.707 3.26,3.261 5.705,7.336 2.446,4.076 0.817,4.076 0,9.781 -0.812,5.709 1.633,4.078 5.707,11.416 4.075,7.334 11.414,17.119 24.457,26.9 21.192,12.229 36.682,16.305 36.682,16.305 -52.99,17.932 -89.666,-20.383 -97.818,-34.238 -11.415,-17.934 -12.231,-54.621 -12.231,-54.621 0,0 -10.596,-3.258 -14.674,-7.332 -4.076,-4.079 -0.814,-9.782 0.819,-13.047 1.631,-3.258 -5.707,-3.258 -11.414,-5.703 -5.705,-2.444 -8.153,-10.598 -8.153,-16.305 0,-5.703 4.077,-6.52 4.077,-10.594 0,-4.074 4.892,-8.156 8.966,-10.601 4.078,-2.444 3.262,-7.333 7.336,-15.487 4.076,-8.15 9.783,-4.076 14.676,-3.258 4.887,0.819 7.332,0 13.857,-4.076 6.522,-4.078 12.225,-8.152 17.119,-8.152 z"
         id="path282"
         inkscape:connector-curvature="0" />
    </clipPath>
  </defs>
  <g
     id="g1531"
     transform="matrix(0.80307568,0,0,0.80307568,-92.026845,-647.94538)">
    <g
       clip-path="url(#Clip_10)"
       id="g711">
      <path
         d="M 2305.87,-6693.347 2086.975,-6748.07 188.366,846.387 407.261,901.111"
         id="path705"
         inkscape:connector-curvature="0"
         style="fill:#cce3c2" />
      <path
         d="m 308.629,851.655 c 0.457,0.152 0.969,0.191 1.371,0.457 2.484,1.646 3.786,6.692 4.409,9.485 0,0 0,16.301 -1.637,19.562 8.155,18.748 29.348,27.715 45.653,43.203 17.121,17.121 14.674,62.768 14.674,62.768 -1.631,48.912 -61.139,82.334 -123.094,75.809 -61.955,-6.522 -75.809,-68.471 -80.698,-90.481 -4.894,-22.01 4.075,-39.943 14.672,-58.693 14.672,-26.899 75.811,-34.239 75.811,-34.239 0,0 11.412,-3.257 17.935,-7.334 6.522,-4.076 3.258,-4.076 4.073,-11.414 0.814,-7.335 4.078,-4.072 8.965,-1.629 4.896,2.448 4.896,1.629 11.416,0 6.523,-1.628 1.628,-5.706 5.705,-7.335 z"
         id="path707"
         inkscape:connector-curvature="0"
         style="fill:url(#Gradient_11)" />
      <path
         d="m 370.58,1047.836 -218.895,-54.724 -1898.609,7594.458 218.895,54.724"
         id="path709"
         inkscape:connector-curvature="0"
         style="fill:#97cb93" />
    </g>
    <path
       d="m 213.323,1063.757 c 0,0 7.338,11.41 26.902,14.672 19.565,3.26 19.567,1.629 27.719,2.441 8.149,0.819 17.113,0.819 23.637,-6.516 -31.791,-6.523 -78.258,-10.597 -78.258,-10.597"
       id="path713"
       inkscape:connector-curvature="0"
       style="fill:#fffffe" />
    <g
       clip-path="url(#Clip_11)"
       id="g721">
      <path
         d="m -1788.089,8626.915 166.058,44.391 2021.504,-7561.887 -166.057,-44.391"
         id="path715"
         inkscape:connector-curvature="0"
         style="fill:#e1efd5" />
      <path
         d="m 383.574,909.827 c 1.212,0.331 1.876,1.345 2.565,2.305 3.262,4.894 -3.261,4.894 3.262,4.894 6.524,0 17.12,2.446 17.93,7.336 0.818,4.891 -0.812,14.676 4.078,15.492 4.891,0.811 12.226,1.629 11.412,8.961 -0.814,7.34 -3.26,9.789 0.814,13.047 4.079,3.258 10.6,9.778 7.341,13.856 -3.262,4.076 -6.524,1.629 -6.524,7.334 0,5.709 -0.002,12.228 -3.262,14.674 -3.258,2.447 -4.076,2.447 -4.89,7.336 -0.815,4.89 0,8.154 -4.891,6.523 -4.89,-1.633 -5.709,-5.707 -7.338,-1.633 -1.627,4.078 -9.775,8.969 -13.853,4.895 -4.079,-4.078 -7.34,-5.711 -13.043,0 -3.004,9.926 -8.422,19.2 -15.174,27.037 -30.07,34.899 -79.054,35.321 -120.745,26.173 5.527,-0.257 11.062,-0.986 16.409,-2.446 3.108,-0.848 6.95,-2.12 8.642,-5.116 0,0 1.637,-10.597 7.34,-8.965 5.707,1.629 9.782,6.522 9.782,-1.632 0,-8.153 -2.446,-5.704 2.447,-9.778 4.887,-4.078 12.228,-7.34 14.672,-24.455 4.078,-13.863 1.629,-14.674 13.041,-13.863 11.414,0.818 2.449,-1.629 17.933,-4.076 15.491,-2.446 13.041,-5.707 21.198,-5.707 8.15,0 18.748,-2.446 20.379,-4.889 1.628,-21.193 1.628,-50.541 -22.829,-70.922 3.268,-0.81 4.893,0.818 11.415,0.818 6.521,0 8.966,-2.445 14.671,-4.076 2.348,-0.435 4.096,-2.279 6.293,-3.042 0.292,-0.101 0.617,-0.054 0.925,-0.081 z m -143.349,158.004 1.031,0.226 c -0.539,0.026 -0.826,0.049 -1.425,0.018 -0.121,-0.01 -0.329,0.055 -0.357,-0.062 -0.027,-0.108 0.206,-0.084 0.314,-0.111 0.144,-0.034 0.292,-0.047 0.437,-0.071 z"
         id="path717"
         inkscape:connector-curvature="0"
         style="fill:url(#Gradient_12)" />
      <path
         d="m 277.663,899.51 166.058,44.392 2021.505,-7561.887 -166.058,-44.392"
         id="path719"
         inkscape:connector-curvature="0"
         style="fill:#97cb93" />
    </g>
    <g
       clip-path="url(#Clip_12)"
       id="g729">
      <path
         d="m -1901.758,8466.497 171.934,45.962 L 259.168,1072.195 87.234,1026.233"
         id="path723"
         inkscape:connector-curvature="0"
         style="fill:#e1efd5" />
      <path
         d="m 220.661,878.714 c 10.594,0 12.225,5.707 12.225,5.707 0,0 -8.965,2.445 -18.746,7.332 -9.78,4.895 -22.825,10.601 -32.606,24.455 -14.674,25.275 -15.488,41.578 -11.41,51.357 4.074,9.782 9.779,8.153 14.672,11.418 4.89,3.258 2.443,5.704 2.443,11.407 0,5.707 3.26,3.261 5.705,7.336 2.446,4.076 0.817,4.076 0,9.781 -0.812,5.709 1.633,4.078 5.707,11.416 4.075,7.334 11.414,17.119 24.457,26.9 21.192,12.229 36.682,16.305 36.682,16.305 -52.99,17.932 -89.666,-20.383 -97.818,-34.238 -11.415,-17.934 -12.231,-54.621 -12.231,-54.621 0,0 -10.596,-3.258 -14.674,-7.332 -4.076,-4.079 -0.814,-9.782 0.819,-13.047 1.631,-3.258 -5.707,-3.258 -11.414,-5.703 -5.705,-2.444 -8.153,-10.598 -8.153,-16.305 0,-5.703 4.077,-6.52 4.077,-10.594 0,-4.074 4.892,-8.156 8.966,-10.601 4.078,-2.444 3.262,-7.333 7.336,-15.487 4.076,-8.15 9.783,-4.076 14.676,-3.258 4.887,0.819 7.332,0 13.857,-4.076 6.522,-4.078 12.225,-8.152 17.119,-8.152 z"
         id="path725"
         inkscape:connector-curvature="0"
         style="fill:url(#Gradient_13)" />
      <path
         d="m 131.61,860.235 171.934,45.963 1988.991,-7440.264 -171.933,-45.963"
         id="path727"
         inkscape:connector-curvature="0"
         style="fill:#97cb93" />
    </g>
    <path
       d="m 377.175,1010.769 c 0.203,23.668 -27.118,42.97 -46.469,52.17 -21.486,10.22 -47.277,13.863 -65.211,12.228 M 422.821,956.155 c -5.47,9.387 14.756,8.868 7.373,21.133 -9.939,-0.781 -3.75,12.164 -6.586,17.613 -1.398,2.707 -5.578,3.813 -7.371,7.758 -0.857,1.891 0.039,6.643 -0.062,8.785 -4.278,1.965 -9.106,1.057 -12.102,-2.402 -3.394,5.805 -2.742,8.422 -10.168,7.012 -2.431,-0.465 -3.879,-4.809 -7.777,-5.231 -3.711,-0.402 -4.381,0.905 -7.156,1.7 -6.012,1.712 -2.985,8.546 -9.149,-1.36 -1.66,-2.67 -2.701,-15.273 -7.465,-6.242 -7.871,1.019 -20.654,-9.914 -19.531,4.91 -6.426,0.457 -17.965,2.143 -17.98,-7.109 -0.346,-0.159 -0.698,-0.215 -1.063,-0.16 -8.078,2.949 -18.578,-4.559 -22.801,5.804 -3.093,7.615 10.336,16.383 2.131,19.662 -0.123,6.141 7.631,8.33 1.127,13.702 -4.566,3.773 -15.887,-0.418 -21.523,0.14 0.117,4.098 0.92,8.528 -2.403,10.524 -2.502,1.5 -7.859,-1.926 -9.744,-0.951 -2.707,1.396 -1.986,4.052 -4.08,6.072 -1.146,1.099 -0.098,3.625 -1.855,5.234 -1.411,1.293 -4.352,0.195 -5.661,0.986 -3.109,1.877 -14.742,2.485 -17.933,4.096 4.674,3.238 18.43,6.697 24.453,6.523 m 34.238,-61.138 c 4.543,9.209 -8.75,25.752 -17.121,28.529 m 39.129,-39.125 c 5.668,-3.59 12.688,-5.18 18.805,-7.943 9.467,-4.272 16.662,-3.153 26.211,-5.52 18.617,-4.615 31.882,-21.701 21.824,-40.342 m 34.24,7.34 c 0.586,-4.097 1.432,-8.564 -0.795,-12.304 -3.132,-5.278 -6.773,-2.114 -9.824,-4.641 -4.777,-3.945 -2.363,-8.775 -5.129,-14.646 -3.195,-6.791 -5.228,-4.995 -10.429,-7.088 -1.239,-0.497 -3.454,1.5 -5.346,0.836 -2.496,-0.872 -2.424,-5.795 -4.779,-6.907 -5.088,-2.398 -9.247,1.918 -12.073,2.907 -4.361,1.531 -6.937,1.691 -11.449,2.461 -3.963,0.683 -7.018,-3.823 -10.277,-0.565 m 21.193,71.736 c 0,0 6.522,-38.312 -17.117,-65.211 -17.986,-20.464 -16.305,-9.785 -27.715,-20.379 -11.414,-10.601 -17.121,-21.195 -17.121,-21.195 m 6.519,22.012 c 0,0 -9.777,-11.418 -4.07,-35.871 0.811,-10.594 0,-17.934 -6.525,-16.305 -6.522,1.633 1.629,10.602 -8.967,10.602 -10.598,0 -17.119,-9.783 -17.934,-2.448 -0.812,7.338 4.893,8.151 -4.89,13.854 -9.786,5.711 -19.563,6.527 -18.75,15.492 0.816,8.963 8.154,12.231 1.632,15.488 -6.523,3.26 -13.043,0.004 -13.043,8.967 0,8.965 4.891,16.303 -2.443,20.379 -7.342,4.076 -14.678,11.414 -13.045,22.008 1.629,10.6 7.338,13.043 -1.629,22.828 -8.968,9.779 -14.675,8.15 -9.783,15.486 4.889,7.34 8.15,4.075 5.707,10.598 -2.447,6.52 -8.154,0 -2.443,11.43 2.437,4.867 6.781,10.047 7.254,15.42 0.591,6.701 -5.145,11.588 1.711,17.168 m 9.781,20.379 c -9.957,-2.452 -11.383,-0.838 -21.154,-2.815 -13.077,-2.637 -31.934,-10.812 -42.916,-18.643 -17.594,-12.56 -27.426,-51.494 -27.227,-73.101 m 110.045,88.041 c -8.754,-4.92 -19.195,-6.063 -27.877,-11.082 -3.426,-1.984 -6.295,-5.738 -9.74,-7.317 -4.852,-2.222 -10.58,-0.56 -15.284,-2.863 -4.707,-2.303 -2.728,-3.816 -5.88,-6.953 -2.885,-2.867 -5.801,-4.074 -8.24,-7.715 -2.403,-3.593 -1.977,-8.008 -4.555,-11.623 -3.94,-5.525 -8.114,-6.025 -11,-13.709 -1.5,-3.986 -2.244,-9.945 -5.514,-12.926 -4.947,-4.502 -16.068,-2.65 -16.373,-12.101 -8.676,0.287 -32.965,-14.01 -18.668,-22.949 -11.895,-6.262 -22.562,-8.5 -20.195,-25.938 5.281,-2.211 2.765,-5.906 5.445,-9.734 2.11,-3.012 6.268,-4.485 8.395,-7.438 3.48,-4.822 3.64,-16.164 9.113,-19.371 4.273,-2.502 13.316,1.992 18.385,0.656 8.509,-2.242 11.72,-8.783 18.955,-12.462 4.957,-2.518 14.828,0.023 20.103,0.416 4.756,0.355 4.231,-0.815 9.162,0.902 2.879,1.002 6.518,-4.707 8.932,-2.84 -4.799,2.137 10.596,-3.26 17.119,6.525 m 27.717,-4.08 c 0,0 -20.377,4.078 -28.529,5.707 -8.153,1.633 -35.871,13.043 -45.651,26.088 -8.332,11.108 -20.379,31.791 -18.75,48.912 m -4.888,-38.318 c -4.903,10.053 -2.2,25.01 2.238,34.606 1.867,4.044 3.684,9.527 5.875,13.089 3.668,5.963 10.158,5.901 14.656,11.147 3.102,3.629 0.949,7.187 2.566,10.861 1.629,3.703 4.18,5.752 5.922,10.147 1.071,2.685 -0.344,5.742 0.453,8.258 0.684,2.16 3.143,2.96 3.817,4.851 1.436,4.027 2.385,7.189 4.355,10.922 3.946,7.461 11.286,16.523 20.438,15.949 m 70.105,34.238 c -12.226,9.782 -25.406,4.141 -36.683,3.262 -13.364,-1.043 -39.946,-5.707 -40.76,-13.859"
       id="path731"
       inkscape:connector-curvature="0"
       style="fill-opacity:0;stroke:#1a1919;stroke-width:3.10899997;stroke-linecap:round;stroke-linejoin:round" />
    <path
       d="m 287.505,888.495 c -0.459,7.742 -0.176,18.891 5.705,24.455 m -17.934,-12.224 c 1.567,12.341 10.106,21.328 20.383,26.898 m -43.207,5.705 c 3.248,2.59 7.766,5.145 11.414,6.525 m -17.119,3.258 c 6.762,1.59 13.582,2.944 20.379,4.075 m -27.715,39.943 c 4.803,3.143 11.268,6.457 17.119,6.521 m -18.75,3.264 c 4.785,0.715 8.195,3.861 13.043,4.076 m -3.262,-99.453 c -10.183,0.863 -22.839,7.441 -32.607,10.594 m 18.75,6.531 c -6.107,0.297 -11.721,2.957 -17.936,2.443"
       id="path733"
       inkscape:connector-curvature="0"
       style="fill-opacity:0;stroke:#1a1919;stroke-width:1.5;stroke-linecap:round;stroke-linejoin:round" />
  </g>
</svg>
