<?xml version="1.0" encoding="UTF-8" standalone="no"?>
<svg
   xmlns:dc="http://purl.org/dc/elements/1.1/"
   xmlns:cc="http://creativecommons.org/ns#"
   xmlns:rdf="http://www.w3.org/1999/02/22-rdf-syntax-ns#"
   xmlns:svg="http://www.w3.org/2000/svg"
   xmlns="http://www.w3.org/2000/svg"
   xmlns:sodipodi="http://sodipodi.sourceforge.net/DTD/sodipodi-0.dtd"
   xmlns:inkscape="http://www.inkscape.org/namespaces/inkscape"
   version="1.1"
   id="Layer_1"
   x="0px"
   y="0px"
   viewBox="0 0 256 255.99999"
   enable-background="new 0 0 1920 1407"
   xml:space="preserve"
   sodipodi:docname="green_bean.svg"
   inkscape:version="0.92.4 (5da689c313, 2019-01-14)"
   width="256"
   height="256"><title
   id="title1195">Green Bean</title><metadata
   id="metadata772"><rdf:RDF><cc:Work
       rdf:about=""><dc:format>image/svg+xml</dc:format><dc:type
         rdf:resource="http://purl.org/dc/dcmitype/StillImage" /><dc:title>Green Bean</dc:title><cc:license
         rdf:resource="http://creativecommons.org/publicdomain/zero/1.0/" /><dc:creator><cc:Agent><dc:title>GDJ</dc:title></cc:Agent></dc:creator><dc:source>https://openclipart.org/detail/228333</dc:source></cc:Work><cc:License
       rdf:about="http://creativecommons.org/publicdomain/zero/1.0/"><cc:permits
         rdf:resource="http://creativecommons.org/ns#Reproduction" /><cc:permits
         rdf:resource="http://creativecommons.org/ns#Distribution" /><cc:permits
         rdf:resource="http://creativecommons.org/ns#DerivativeWorks" /></cc:License></rdf:RDF></metadata><defs
   id="defs770" /><sodipodi:namedview
   pagecolor="#ffffff"
   bordercolor="#666666"
   borderopacity="1"
   objecttolerance="10"
   gridtolerance="10"
   guidetolerance="10"
   inkscape:pageopacity="0"
   inkscape:pageshadow="2"
   inkscape:window-width="1920"
   inkscape:window-height="1025"
   id="namedview768"
   showgrid="false"
   inkscape:zoom="1.2666667"
   inkscape:cx="144.21776"
   inkscape:cy="52.362244"
   inkscape:window-x="-8"
   inkscape:window-y="-8"
   inkscape:window-maximized="1"
   inkscape:current-layer="Layer_1"
   fit-margin-top="0"
   fit-margin-left="0"
   fit-margin-right="0"
   fit-margin-bottom="0" />



























<g
   id="g515"
   transform="matrix(0.43760884,0,0,0.43760884,-159.3476,-371.47265)">
	<path
   d="m 928.7,1001.9 c -1.1,-6.8 5,-11.5 9.7,-15.1 5.7,7.5 11,16.3 10.5,26.2 -0.4,7.4 -0.8,15.5 -5.2,21.8 -5.6,9 -13.5,16.8 -16.5,27.2 -1.7,5.6 1,11.2 4.3,15.7 4.2,5.8 9.3,11.8 9.3,19.3 0,8.5 0,17.4 -3.4,25.4 -1.4,3.5 -5.3,5.7 -9,4.2 -7.1,-3.1 -11.5,-9.9 -16.4,-15.6 -2.7,17.3 -10.5,33.9 -22.4,46.8 -13.4,14.9 -30.8,25.5 -48.6,34.4 -18.9,9.6 -38.8,17.2 -57.2,27.7 -4.1,2.2 -7.7,5.3 -12.1,6.8 -62,24.7 -124.5,49.3 -190.1,62.8 -47,10.1 -96.6,8.6 -142.7,-5.5 -17.4,-5.4 -34.6,-12.4 -49.6,-23 -5.9,-4.3 -11.6,-9 -16.1,-14.8 -3.7,-5.4 -7,-11.2 -8.5,-17.5 -0.9,-3.3 -0.3,-7.5 3.4,-8.6 18,-8.1 38.5,-6.3 56.9,-13 50,-15.1 102.2,-20.6 152.9,-33.2 21.9,-5.2 43.2,-13 64.5,-20.2 59.8,-20.7 119.5,-41.8 178.4,-64.8 16.2,-6.5 32.5,-12.8 47.9,-21.1 -6.2,-1.8 -12.5,-4.6 -16.8,-9.6 -1.5,-1.6 -2.4,-4.2 -1.2,-6.2 2.4,-2.9 6.4,-3.4 9.9,-4 -0.7,2.4 -2.2,5.1 -0.9,7.5 2,3.6 5.8,5.4 9.3,7.3 3.3,1.8 6.9,3 10.5,4.2 -6.5,4.1 -13.7,7 -20.5,10.4 -16.2,7.9 -32.6,15.2 -49,22.8 -2.4,1 -4.8,2 -7.2,2.9 -8.9,3.4 -17.6,7.2 -26.4,10.8 -6.5,2.8 -13.2,5 -19.4,8.3 -6.6,3.4 -13.7,5.7 -20.6,8.5 -9.6,3.7 -19.2,7.5 -29,10.6 -11,3.3 -21.7,7.4 -32.5,10.9 -8.3,3 -16.8,5.6 -25,8.8 -11.1,4 -22.4,7.2 -33.6,10.6 -9,2.5 -17.8,5.7 -27,7.4 -16.8,3.8 -33.3,9.2 -50,13.4 -36.5,8.5 -73.9,12.8 -110.2,22.2 -10.6,2.9 -21.6,2 -32.4,3.4 -4.6,0.3 -9.5,0.7 -13.7,2.8 -2.3,1.3 -5.4,2.5 -5.8,5.5 -0.9,5.4 2.8,10 5.5,14.3 4.4,6.6 10.1,12.3 16.2,17.3 11.2,9.6 25.1,15.1 39,19.5 43.2,12.9 89.2,17.4 133.9,10.3 23.8,-3.5 47,-10 69.8,-17.7 12.8,-4.6 25.8,-8.8 38.3,-14.4 20.5,-7.7 40.6,-16.3 61.1,-24.2 34.8,-13.4 70.8,-24.8 103.1,-43.9 16,-9.2 30.6,-21.2 41.3,-36.3 9.3,-11.7 15.6,-25.3 21.8,-38.8 3.3,-7.5 6.5,-15 9.3,-22.6 0.2,9.1 0.9,19.4 7.4,26.5 2.9,3.3 7.3,4.2 11.5,5 3.5,-8 3,-17.1 1.8,-25.6 -1.7,-9.9 -10,-16.4 -15,-24.6 -3.1,-5 -0.4,-10.8 2.6,-15.1 5.4,-7.5 11.2,-14.8 14.7,-23.4 3.8,-8.9 3.6,-18.8 2.7,-28.3 -0.6,-4.2 -0.4,-8.8 -2.6,-12.6 -1.7,-2.2 -4.7,-0.5 -5.4,1.7 -2.5,6 -1.3,12.8 1,18.6 1.1,3.2 2.9,6.7 1.8,10.1 -1.2,3.9 -4.4,6.6 -6.8,9.7 -5.6,-0.5 -11.8,-0.6 -16.7,2.6 -7.2,4.5 -9.6,14 -17.5,17.5 -5.9,2.9 -12.4,0.3 -18.2,-1.4 0.3,-0.1 0.8,-0.3 1,-0.4 5.8,0 12.1,1.1 17.4,-1.9 5.8,-3.7 6.9,-11.6 12.6,-15.3 6.4,-4.1 14.5,-3.4 21.1,-7.1 2.4,-1.3 3.2,-4 3.7,-6.5 -1.2,-6.1 -3.6,-11.6 -4.9,-17.4 z"
   id="path487"
   inkscape:connector-curvature="0"
   style="fill:#000100;stroke:#000100;stroke-width:0.39399999" />
	<path
   d="m 913.4,1034.3 c 4.9,-3.2 11,-3.1 16.7,-2.6 -1.8,3.8 -3,8 -5.2,11.7 -2.7,0.8 -5.2,2.3 -7.5,3.9 -3.6,2.7 -8.7,2.1 -12.3,4.8 -2.1,2.2 -2.4,5.4 -4.1,7.8 -4.7,1.6 -9.8,-0.2 -14.6,-0.6 -7.2,-0.8 -14.5,-4.5 -21.7,-1.8 1.4,1.7 2.8,3.4 4.4,5 -3.5,-1.8 -7.3,-3.7 -9.3,-7.3 -1.3,-2.5 0.1,-5.1 0.9,-7.5 6.2,-0.5 12.3,1.4 18.5,2 l -0.5,0.2 c -0.3,0.1 -0.8,0.3 -1,0.4 5.8,1.7 12.3,4.3 18.2,1.4 7.9,-3.4 10.3,-13 17.5,-17.4 z"
   id="path489"
   inkscape:connector-curvature="0"
   style="fill:#54a61d;stroke:#54a61d;stroke-width:0.39399999" />
	<path
   d="m 839.8,1099.9 c 2.8,-0.9 5.8,-0.3 8.6,0.2 -0.6,1.9 -1.1,4.2 -2.9,5.3 -6.5,5.2 -13.1,10.2 -19.4,15.6 -4.4,3.8 -9.7,6.2 -14.5,9.3 -8.2,5.7 -16.8,10.6 -25.5,15.6 -10.8,7.5 -23.3,12.1 -34.9,18.1 -4.9,2.9 -10.5,3.9 -15.5,6.4 -10.2,5.3 -21.4,7.9 -32.1,12 -10.1,3.2 -20.2,6.5 -30.5,9.4 -6.5,1.2 -12.6,3.7 -19.1,4.7 -6.3,0.9 -12.4,3.3 -18.8,3.7 -0.4,0.4 -1.1,1.3 -1.5,1.7 -6.3,-0.2 -12.5,0.6 -18.7,1.9 -7.6,1.7 -15.6,2 -22.7,5.3 -9.8,4.5 -20.7,5.8 -31.3,6.9 -6.7,0.6 -12.6,4 -18.9,6 -6.9,2.6 -14.5,3.6 -20.5,8.2 -6.7,-1.1 -13.7,0.3 -20.2,-1.8 -6.4,-2 -13,-3.3 -19.5,-4.4 -6.1,-1.1 -11.1,3.2 -16.7,4.8 -2.5,-0.3 -2.5,-4.2 -0.8,-5.4 5.1,-5.2 12.7,-6.4 19.7,-6.2 5.6,0.1 10.5,3.1 16,4 3.7,0.6 7.2,2.3 10.9,2.7 7.2,-1.1 13.3,-5.7 19,-9.9 9.6,-6.1 21,-8.4 32.1,-10.1 2.1,-0.1 3.2,-2.1 4.6,-3.3 3.5,-0.4 7.1,-0.6 10.1,-2.7 4.8,-1.9 9.7,-3.2 14.6,-4.8 9.6,-3.7 19.8,-5.6 29.9,-7.8 5.8,-1.3 11.8,-1.2 17.5,-2.8 4.5,-1.3 9.1,-1.4 13.7,-2 8.8,-1.7 17.6,-3.1 26.5,-3.8 2.9,-0.7 5.2,-2.7 7.8,-4.1 16.8,-8.7 34.4,-16.6 53.4,-18.8 12.6,-3.2 26,-2.5 38.1,-7.6 1.8,-0.6 3.7,-0.9 5.5,-1.3 -0.6,-1.2 -1.2,-2.6 -2.5,-3.1 4.4,-2.1 7,-6.5 9.1,-10.6 2.1,-3.9 3.8,-8 5.5,-12.1 0.7,-0.1 2.2,-0.2 2.9,-0.2 10.2,-6.4 19.9,-14.4 32.1,-16.2 0.1,-0.5 0.2,-1.6 0.3,-2.2 h 0.2 c 2.7,0.7 5.6,0.3 8.4,-0.6 z"
   id="path491"
   inkscape:connector-curvature="0"
   style="fill:#54a61d;stroke:#54a61d;stroke-width:0.39399999" />
	<path
   d="m 872.4,1082.5 c 3.4,-0.7 8.7,-1.2 9.9,3.1 1.5,6.8 -0.8,13.6 -1.8,20.3 -5.7,0.4 -11.5,-0.1 -17.2,0.7 -8.7,1.6 -16.9,5.6 -24.2,10.7 -14.5,10 -25.7,23.9 -36.1,37.9 -3.5,5.1 -9,8.7 -15.2,9.4 -10.1,1 -20.7,0 -30.3,4 -5.7,2.4 -9.3,7.7 -12.3,12.8 -2.4,4.1 -5.3,8.5 -10.2,9.8 -11.6,3.3 -23.7,-3 -35.2,0.6 -7.7,2.5 -13,9.1 -17.9,15.1 -2.2,2.7 -5,5.9 -8.9,5.1 -7.2,-1.3 -13.5,-5.4 -20.3,-7.8 -6,-2.4 -12.6,-2 -19,-2.3 0.4,-0.4 1.1,-1.3 1.5,-1.7 6.4,-0.3 12.5,-2.7 18.8,-3.7 6.5,-0.9 12.6,-3.5 19.1,-4.7 10.3,-2.9 20.3,-6.2 30.5,-9.4 10.7,-4.1 21.9,-6.7 32.1,-12 5,-2.5 10.7,-3.6 15.5,-6.4 11.6,-6 24.1,-10.6 34.9,-18.1 8.6,-4.9 17.3,-9.9 25.5,-15.6 4.8,-3.1 10.1,-5.6 14.5,-9.3 6.3,-5.4 12.9,-10.4 19.4,-15.6 1.9,-1.2 2.3,-3.4 2.9,-5.3 -2.8,-0.5 -5.8,-1.1 -8.6,-0.2 -2.8,0.9 -5.7,1.3 -8.5,0.6 6.7,-3 13.6,-5.8 20,-9.4 6.6,-3.7 13.8,-6.4 21.1,-8.6 z"
   id="path493"
   inkscape:connector-curvature="0"
   style="fill:#539a34;stroke:#539a34;stroke-width:0.39399999" />
	<path
   d="m 757,1121.9 c 4.3,4.1 8.8,7.9 12.8,12.3 3.1,3.4 6.3,7.4 11.4,7.7 1.4,0.5 1.9,1.9 2.5,3.1 -1.9,0.3 -3.7,0.6 -5.5,1.3 -12.1,5.1 -25.5,4.4 -38.1,7.6 -19,2.2 -36.6,10.1 -53.4,18.8 -2.6,1.4 -4.9,3.4 -7.8,4.1 -8.9,0.6 -17.8,2 -26.5,3.8 -4.6,0.6 -9.3,0.7 -13.7,2 -5.7,1.7 -11.7,1.5 -17.5,2.8 -10.1,2.1 -20.3,4.1 -29.9,7.8 -4.9,1.5 -9.8,2.9 -14.6,4.8 -2.9,2.1 -6.6,2.3 -10.1,2.7 -1.4,1.3 -2.5,3.2 -4.6,3.3 -11.1,1.6 -22.5,4 -32.1,10.1 -5.7,4.2 -11.7,8.8 -19,9.9 -3.7,-0.3 -7.2,-2.1 -10.9,-2.7 -5.5,-0.9 -10.4,-3.9 -16,-4 -7,-0.1 -14.6,1 -19.7,6.2 -1.8,1.3 -1.8,5.1 0.8,5.4 5.6,-1.6 10.6,-5.9 16.7,-4.8 6.6,1.1 13.2,2.4 19.5,4.4 6.5,2.1 13.5,0.7 20.2,1.8 -2.7,1.8 -5.5,3.6 -8.7,4.5 -7.7,2.1 -15.8,-2.4 -23.3,0.9 -8,4.8 -11.7,14.5 -20,18.8 -4,1.5 -6.8,-2.6 -9.4,-4.9 -3.4,-3.8 -8.7,-4.5 -13.4,-5.6 -11.5,-2.2 -23.1,-4.1 -34.9,-3.9 -8,0.1 -16.3,-0.1 -23.8,2.8 1.2,6.3 7.7,9.3 10.8,14.5 -6.1,-5.1 -11.8,-10.7 -16.2,-17.3 -2.7,-4.3 -6.4,-8.8 -5.5,-14.3 0.3,-3 3.5,-4.2 5.8,-5.5 -2.1,2.4 -5.9,4.7 -4.8,8.4 0.8,3.3 2.9,6.1 4.7,8.9 10.7,-5.1 20,-12.7 29.3,-20 -5.2,0 -10.3,0.3 -15.5,0 10.8,-1.4 21.8,-0.5 32.4,-3.4 36.3,-9.4 73.7,-13.7 110.2,-22.2 9.3,5.6 21.6,5.3 31.1,0.4 6.8,-3.7 13.7,-7.9 18.9,-13.8 9.2,-1.7 18,-4.8 27,-7.4 11.2,-3.4 22.6,-6.6 33.6,-10.6 15,0.5 30.1,1.8 45,-0.8 -0.6,-1 -1.2,-2 -1.8,-2.9 4.3,-5.8 10.5,-9.9 14.4,-16 9.8,-3.2 19.4,-7 29,-10.6 6.9,-2.7 14,-5 20.6,-8.4 z"
   id="path495"
   inkscape:connector-curvature="0"
   style="fill:#539a34;stroke:#539a34;stroke-width:0.39399999" />
	<path
   d="m 872.8,1162.9 c 4.8,-3.4 7.9,-8.6 12.7,-12 -10.7,15.1 -25.4,27.1 -41.3,36.3 -32.3,19.1 -68.3,30.5 -103.1,43.9 -20.4,7.9 -40.6,16.5 -61.1,24.2 5.3,-4.1 12.2,-4.9 17.7,-8.6 7,-4.9 13.6,-10.5 18.4,-17.6 3.7,-4.4 6,-10.1 10.9,-13.2 5.6,-2.1 11.4,0.9 17,1 12.3,0.3 24.5,-2.6 35.9,-6.8 15.3,-6.9 28.1,-18.1 42.4,-26.7 8,-4.9 16.2,-10.2 25.7,-11.3 3.4,-0.7 6.4,1.3 9.2,2.8 5,-4.4 10.3,-8.1 15.6,-12 z"
   id="path497"
   inkscape:connector-curvature="0"
   style="fill:#539a34;stroke:#539a34;stroke-width:0.39399999" />
	<path
   d="m 776.4,1113.6 c 8.8,-3.6 17.6,-7.3 26.4,-10.8 -2.5,5.4 -5,10.7 -7.1,16.3 -1.7,4.1 -3.5,8.2 -5.5,12.1 -2.1,4.2 -4.7,8.5 -9.1,10.6 -5,-0.2 -8.2,-4.3 -11.4,-7.7 -4,-4.4 -8.5,-8.2 -12.8,-12.3 6.4,-3.1 13.1,-5.4 19.5,-8.2 z"
   id="path499"
   inkscape:connector-curvature="0"
   style="fill:#2f8a0f;stroke:#2f8a0f;stroke-width:0.39399999" />
	<path
   d="m 383,1220.5 c 4.3,-2 9.1,-2.5 13.7,-2.8 5.2,0.3 10.3,0 15.5,0 -9.3,7.3 -18.6,14.9 -29.3,20 -1.8,-2.8 -4,-5.6 -4.7,-8.9 -1,-3.6 2.7,-5.9 4.8,-8.3 z"
   id="path501"
   inkscape:connector-curvature="0"
   style="fill:#2f8a0f;stroke:#2f8a0f;stroke-width:0.39399999" />
	<path
   d="m 934.1,993.2 c 0.7,-2.2 3.7,-3.9 5.4,-1.7 2.3,3.7 2,8.4 2.6,12.6 0.9,9.5 1.1,19.4 -2.7,28.3 -3.5,8.6 -9.3,15.9 -14.7,23.4 -3,4.3 -5.7,10.1 -2.6,15.1 5,8.2 13.3,14.7 15,24.6 1.1,8.5 1.6,17.6 -1.8,25.6 -4.1,-0.8 -8.6,-1.7 -11.5,-5 -6.5,-7.1 -7.2,-17.4 -7.4,-26.5 0.1,-1.2 0.1,-2.4 0.2,-3.6 -4.3,7.8 -7.5,16.5 -14.1,22.8 -1.8,1.6 -4.7,3.4 -6.9,1.6 -2.1,-2.5 -2.2,-6.1 -2.2,-9.2 0.4,-10 3.6,-19.7 7.2,-29 -7.1,-1.7 -14.3,-3.1 -21.2,-5.3 -3.6,-1.2 -7.2,-2.5 -10.5,-4.2 -1.5,-1.6 -2.9,-3.3 -4.4,-5 7.2,-2.7 14.5,1 21.7,1.8 4.8,0.5 9.9,2.2 14.6,0.6 1.8,-2.4 2,-5.6 4.1,-7.8 3.6,-2.8 8.6,-2.2 12.3,-4.8 2.3,-1.7 4.7,-3.1 7.5,-3.9 2.2,-3.7 3.4,-7.8 5.2,-11.7 2.5,-3.1 5.7,-5.8 6.8,-9.7 1.1,-3.5 -0.7,-6.9 -1.8,-10.1 -2.1,-6.1 -3.2,-12.9 -0.8,-18.9 m -25.3,69.7 c 0.4,3.6 3,7.5 1.1,11 -2.1,4.3 -4.3,8.4 -6.2,12.8 -1.6,3.9 -6.4,6.3 -5.5,11.1 1.2,-0.3 2.7,0 3.6,-1 3.6,-3.5 7,-7.3 9.1,-11.9 1.9,-3.5 3.2,-7.4 6.1,-10.2 7.6,7.7 5.1,19.6 9.7,28.7 1.1,0.2 2.1,0.3 3.2,0.5 -0.4,-8.9 -3,-17.5 -6.4,-25.7 -1.9,-5 -7.3,-7.3 -9.9,-11.8 -1.8,-3.4 -0.8,-7.3 -0.5,-10.8 -2.2,1.9 -4.9,4.2 -4.3,7.3 z"
   id="path503"
   inkscape:connector-curvature="0"
   style="fill:#3ac20d;stroke:#3ac20d;stroke-width:0.39399999" />
	<path
   d="m 908.8,1062.9 c -0.6,-3.1 2.1,-5.5 4.2,-7.2 -0.3,3.6 -1.3,7.5 0.5,10.8 2.6,4.5 8,6.8 9.9,11.8 3.4,8.2 6.1,16.8 6.4,25.7 -1.1,-0.2 -2.1,-0.3 -3.2,-0.5 -4.6,-9.1 -2.1,-21.1 -9.7,-28.7 -2.9,2.8 -4.2,6.7 -6.1,10.2 -2.1,4.6 -5.5,8.4 -9.1,11.9 -0.9,1 -2.5,0.7 -3.6,1 -0.9,-4.8 4,-7.2 5.5,-11.1 1.8,-4.4 4.1,-8.6 6.2,-12.8 2,-3.6 -0.5,-7.4 -1,-11.1 z"
   id="path505"
   inkscape:connector-curvature="0"
   style="fill:#53a71a;stroke:#53a71a;stroke-width:0.39399999" />
	<path
   d="m 879.5,1066.8 c 7,2.2 14.1,3.7 21.2,5.3 -3.7,9.3 -6.8,18.9 -7.2,29 0,3.1 0.1,6.7 2.2,9.2 2.2,1.9 5.1,0.1 6.9,-1.6 6.5,-6.3 9.8,-15 14.1,-22.8 -0.1,1.2 -0.2,2.4 -0.2,3.6 -2.9,7.6 -6,15.1 -9.3,22.6 -6.1,13.5 -12.5,27.1 -21.8,38.8 -4.8,3.4 -7.9,8.6 -12.7,12 -5.3,3.9 -10.6,7.6 -15.6,11.9 -2.9,-1.5 -5.8,-3.5 -9.2,-2.8 -9.5,1.1 -17.7,6.4 -25.7,11.3 -14.3,8.6 -27.1,19.8 -42.4,26.7 -11.5,4.2 -23.6,7.2 -35.9,6.8 -5.7,-0.1 -11.5,-3 -17,-1 -5,3.1 -7.3,8.9 -10.9,13.2 -4.8,7.1 -11.5,12.7 -18.4,17.6 -5.5,3.7 -12.4,4.5 -17.7,8.6 -12.5,5.5 -25.4,9.8 -38.3,14.4 -22.8,7.7 -46,14.2 -69.8,17.7 -44.7,7.1 -90.7,2.6 -133.9,-10.3 -13.9,-4.4 -27.9,-10 -39,-19.5 -3.1,-5.2 -9.6,-8.2 -10.8,-14.5 7.6,-2.9 15.9,-2.7 23.8,-2.8 11.8,-0.2 23.4,1.6 34.9,3.9 4.7,1.1 10,1.8 13.4,5.6 2.6,2.3 5.3,6.4 9.4,4.9 8.3,-4.3 12,-14 20,-18.8 7.5,-3.3 15.6,1.1 23.3,-0.9 3.2,-0.8 6,-2.7 8.7,-4.5 6,-4.6 13.6,-5.6 20.5,-8.2 6.3,-1.9 12.2,-5.3 18.9,-6 10.7,-1 21.5,-2.4 31.3,-6.9 7.2,-3.3 15.1,-3.7 22.7,-5.3 6.1,-1.3 12.4,-2.1 18.7,-1.9 6.4,0.3 13,-0.1 19,2.3 6.8,2.4 13.1,6.5 20.3,7.8 3.9,0.8 6.7,-2.4 8.9,-5.1 4.9,-6.1 10.2,-12.6 17.9,-15.1 11.6,-3.5 23.6,2.7 35.2,-0.6 4.8,-1.4 7.8,-5.8 10.2,-9.8 3,-5.2 6.7,-10.4 12.3,-12.8 9.6,-4 20.2,-2.9 30.3,-4 6.2,-0.7 11.7,-4.3 15.2,-9.4 10.4,-14 21.6,-27.9 36.1,-37.9 7.3,-5.1 15.4,-9.1 24.2,-10.7 5.7,-0.8 11.4,-0.3 17.2,-0.7 1,-6.7 3.3,-13.5 1.8,-20.3 -1.2,-4.3 -6.5,-3.8 -9.9,-3.1 -7.3,2.1 -14.5,4.8 -21.1,8.6 -6.4,3.6 -13.3,6.4 -20,9.4 h -0.2 c -7,0.2 -14.1,1.3 -21,-0.5 16.4,-7.6 32.8,-14.9 49,-22.8 6.8,-3.7 13.9,-6.5 20.4,-10.6 z"
   id="path507"
   inkscape:connector-curvature="0"
   style="fill:#2f8b0f;stroke:#2f8b0f;stroke-width:0.39399999" />
	<path
   d="m 802.9,1102.9 c 2.4,-1 4.8,-1.9 7.2,-2.9 6.9,1.8 14,0.7 21,0.5 -0.1,0.6 -0.2,1.6 -0.3,2.2 -12.2,1.9 -22,9.9 -32.1,16.2 -0.7,0 -2.2,0.2 -2.9,0.2 2.1,-5.5 4.6,-10.8 7.1,-16.2 z"
   id="path509"
   inkscape:connector-curvature="0"
   style="fill:#529a34;stroke:#529a34;stroke-width:0.39399999" />
	<path
   d="m 674.9,1152 c 10.9,-3.5 21.6,-7.7 32.5,-10.9 -3.9,6.1 -10.1,10.2 -14.4,16 0.6,1 1.2,1.9 1.8,2.9 -14.8,2.6 -30,1.3 -45,0.8 8.4,-3.2 16.8,-5.9 25.1,-8.8 z"
   id="path511"
   inkscape:connector-curvature="0"
   style="fill:#2f8a10;stroke:#2f8a10;stroke-width:0.39399999" />
	<path
   d="m 539.3,1192.1 c 16.8,-4.2 33.2,-9.6 50,-13.4 -5.2,5.9 -12,10 -18.9,13.8 -9.5,4.9 -21.7,5.2 -31.1,-0.4 z"
   id="path513"
   inkscape:connector-curvature="0"
   style="fill:#2f890f;stroke:#2f890f;stroke-width:0.39399999" />
</g>




</svg>