<?xml version="1.0" encoding="UTF-8" standalone="no"?>
<!-- Creator: CorelDRAW 2019 (64-Bit) -->

<svg
   xmlns:dc="http://purl.org/dc/elements/1.1/"
   xmlns:cc="http://creativecommons.org/ns#"
   xmlns:rdf="http://www.w3.org/1999/02/22-rdf-syntax-ns#"
   xmlns:svg="http://www.w3.org/2000/svg"
   xmlns="http://www.w3.org/2000/svg"
   xmlns:sodipodi="http://sodipodi.sourceforge.net/DTD/sodipodi-0.dtd"
   xmlns:inkscape="http://www.inkscape.org/namespaces/inkscape"
   xml:space="preserve"
   width="256"
   height="256"
   version="1.1"
   style="clip-rule:evenodd;fill-rule:evenodd;image-rendering:optimizeQuality;shape-rendering:geometricPrecision;text-rendering:geometricPrecision"
   viewBox="0 0 2666.6667 2666.6667"
   id="svg824"
   sodipodi:docname="ice_cream_sandwich_01.svg"
   inkscape:version="0.92.4 (5da689c313, 2019-01-14)"><title
   id="title1635">Ice Cream Sandwich</title><metadata
   id="metadata828"><rdf:RDF><cc:Work
       rdf:about=""><dc:format>image/svg+xml</dc:format><dc:type
         rdf:resource="http://purl.org/dc/dcmitype/StillImage" /><dc:title>Ice Cream Sandwich</dc:title><cc:license
         rdf:resource="http://creativecommons.org/publicdomain/zero/1.0/" /><dc:source>https://openclipart.org/detail/318127</dc:source><dc:creator><cc:Agent><dc:title>LeAnncifer</dc:title></cc:Agent></dc:creator></cc:Work><cc:License
       rdf:about="http://creativecommons.org/publicdomain/zero/1.0/"><cc:permits
         rdf:resource="http://creativecommons.org/ns#Reproduction" /><cc:permits
         rdf:resource="http://creativecommons.org/ns#Distribution" /><cc:permits
         rdf:resource="http://creativecommons.org/ns#DerivativeWorks" /></cc:License></rdf:RDF></metadata><sodipodi:namedview
   pagecolor="#ffffff"
   bordercolor="#666666"
   borderopacity="1"
   objecttolerance="10"
   gridtolerance="10"
   guidetolerance="10"
   inkscape:pageopacity="0"
   inkscape:pageshadow="2"
   inkscape:window-width="1920"
   inkscape:window-height="1025"
   id="namedview826"
   showgrid="false"
   inkscape:zoom="1.2642212"
   inkscape:cx="47.201167"
   inkscape:cy="89.874859"
   inkscape:window-x="-8"
   inkscape:window-y="-8"
   inkscape:window-maximized="1"
   inkscape:current-layer="svg824"
   units="px"
   fit-margin-top="0"
   fit-margin-left="0"
   fit-margin-right="0"
   fit-margin-bottom="0"
   inkscape:pagecheckerboard="true" />
 <defs
   id="defs20"><style
     type="text/css"
     id="style2">
   <![CDATA[
    .str0 {stroke:#373435;stroke-width:6.94;stroke-miterlimit:2.61313}
    .fil99 {fill:none}
    .fil27 {fill:#0098DA}
    .fil0 {fill:#4A332C}
    .fil5 {fill:#4B342C}
    .fil6 {fill:#4C352D}
    .fil7 {fill:#4D352D}
    .fil8 {fill:#4E352D}
    .fil54 {fill:#4E362E}
    .fil9 {fill:#4F362E}
    .fil55 {fill:#4F372F}
    .fil10 {fill:#50372F}
    .fil56 {fill:#503830}
    .fil11 {fill:#51372F}
    .fil57 {fill:#513931}
    .fil12 {fill:#52372F}
    .fil13 {fill:#533830}
    .fil58 {fill:#533A32}
    .fil14 {fill:#543930}
    .fil59 {fill:#543B33}
    .fil15 {fill:#563931}
    .fil16 {fill:#563A31}
    .fil60 {fill:#563C33}
    .fil17 {fill:#573A32}
    .fil61 {fill:#573D34}
    .fil18 {fill:#583B32}
    .fil62 {fill:#583E35}
    .fil19 {fill:#593B32}
    .fil63 {fill:#594037}
    .fil20 {fill:#5A3C33}
    .fil21 {fill:#5B3C33}
    .fil64 {fill:#5B4137}
    .fil22 {fill:#5C3D33}
    .fil65 {fill:#5C4238}
    .fil66 {fill:#5E433A}
    .fil67 {fill:#5F443B}
    .fil68 {fill:#61453C}
    .fil69 {fill:#62473D}
    .fil70 {fill:#63483E}
    .fil71 {fill:#65493F}
    .fil72 {fill:#664A40}
    .fil73 {fill:#84716B}
    .fil24 {fill:#91D8F7}
    .fil32 {fill:#A8518A}
    .fil33 {fill:#AB5085}
    .fil34 {fill:#AF4F82}
    .fil35 {fill:#B14F7E}
    .fil2 {fill:#B3A488}
    .fil36 {fill:#B54D7A}
    .fil37 {fill:#B74D76}
    .fil38 {fill:#BB4B72}
    .fil39 {fill:#BD4A6E}
    .fil40 {fill:#C0496A}
    .fil41 {fill:#C34866}
    .fil42 {fill:#C64762}
    .fil43 {fill:#CA455E}
    .fil44 {fill:#CD445B}
    .fil45 {fill:#D14257}
    .fil74 {fill:#D2D3D5}
    .fil46 {fill:#D34153}
    .fil47 {fill:#D6404E}
    .fil48 {fill:#DA3D4A}
    .fil49 {fill:#DC3B46}
    .fil50 {fill:#E03941}
    .fil51 {fill:#E3373D}
    .fil75 {fill:#E6E7E8}
    .fil52 {fill:#E9343A}
    .fil25 {fill:#ED3237}
    .fil4 {fill:#F2F0C9}
    .fil76 {fill:#F58634}
    .fil77 {fill:#F58937}
    .fil80 {fill:#F58F42}
    .fil81 {fill:#F59246}
    .fil82 {fill:#F5954B}
    .fil78 {fill:#F68B3A}
    .fil79 {fill:#F68D3E}
    .fil83 {fill:#F6974F}
    .fil84 {fill:#F69A54}
    .fil85 {fill:#F69C59}
    .fil86 {fill:#F69F5E}
    .fil87 {fill:#F6A163}
    .fil88 {fill:#F6A368}
    .fil89 {fill:#F6A66C}
    .fil90 {fill:#F6A971}
    .fil91 {fill:#F6AC75}
    .fil94 {fill:#F6B484}
    .fil95 {fill:#F6B788}
    .fil31 {fill:#F7ADAF}
    .fil92 {fill:#F7AF7A}
    .fil93 {fill:#F7B27F}
    .fil96 {fill:#F7B98D}
    .fil97 {fill:#F7BC93}
    .fil1 {fill:#FEFEFE}
    .fil23 {fill:#4A332C;fill-rule:nonzero}
    .fil53 {fill:#ED3237;fill-rule:nonzero}
    .fil3 {fill:#F2F0C9;fill-rule:nonzero}
    .fil28 {fill:#727376;fill-opacity:0.368627}
    .fil29 {fill:#848688;fill-opacity:0.368627}
    .fil30 {fill:#FEFEFE;fill-opacity:0.368627}
    .fil26 {fill:#606062;fill-opacity:0.501961}
    .fil98 {fill:url(#id3)}
   ]]>
  </style><mask
     id="id1">
  <linearGradient
   id="id2"
   gradientUnits="userSpaceOnUse"
   x1="2126.99"
   y1="3014.96"
   x2="1872.02"
   y2="2274.05">
   <stop
   offset="0"
   style="stop-opacity:1; stop-color:white"
   id="stop7" />
   <stop
   offset="1"
   style="stop-opacity:0; stop-color:white"
   id="stop9" />
  </linearGradient>
         <rect
   style="fill:url(#id2)"
   x="1225.3101"
   y="1848.5"
   width="1631.38"
   height="1585.4301"
   id="rect12" />
        </mask></defs>
 <g
   id="g489"
   transform="matrix(0.91175602,0,0,0.91175602,-590.96876,-4048.1741)">
    <g
   id="g335">
     <path
   class="fil0 str0"
   d="m 868.57,5302.16 817.16,-544.09 c 24.57,-16.36 60.64,-8.59 80.54,17.36 l 1500.69,1956.52 c 19.91,25.95 16.12,60.26 -8.45,76.62 l -817.16,544.1 c -24.57,16.36 -60.64,8.58 -80.54,-17.37 L 860.11,5378.78 c -19.9,-25.94 -16.11,-60.26 8.46,-76.62 z"
   id="path189"
   inkscape:connector-curvature="0"
   style="fill:#4a332c;stroke:#373435;stroke-width:6.94000006;stroke-miterlimit:2.61313009" />
     <g
   id="g231">
      <path
   class="fil5"
   d="m 870.76,5301.88 c 271.82,-180.99 543.63,-361.97 815.45,-542.96 24.42,-16.26 59.11,-10.38 77.09,13.06 501.83,654.25 1003.65,1308.5 1505.48,1962.75 17.98,23.44 12.71,55.93 -11.71,72.19 -271.81,180.99 -543.63,361.98 -815.45,542.96 -24.42,16.26 -59.11,10.38 -77.1,-13.06 -501.83,-654.25 -1003.65,-1308.5 -1505.48,-1962.75 -17.98,-23.44 -12.71,-55.93 11.71,-72.19 z"
   id="path191"
   inkscape:connector-curvature="0"
   style="fill:#4b342c" />
      <path
   class="fil6"
   d="m 872.96,5301.6 c 271.25,-180.61 542.5,-361.22 813.74,-541.82 24.37,-16.23 59.06,-10.27 77.09,13.24 501.13,653.34 1002.26,1306.68 1503.39,1960.02 18.03,23.5 12.84,56.02 -11.53,72.24 -271.25,180.61 -542.49,361.21 -813.74,541.82 -24.37,16.22 -59.06,10.27 -77.09,-13.24 C 1863.69,6680.52 1362.56,6027.18 861.43,5373.84 c -18.03,-23.51 -12.85,-56.02 11.53,-72.24 z"
   id="path193"
   inkscape:connector-curvature="0"
   style="fill:#4c352d" />
      <path
   class="fil54"
   d="m 875.15,5301.31 c 270.68,-180.23 541.36,-360.45 812.04,-540.68 24.32,-16.19 59.01,-10.16 77.09,13.41 500.43,652.44 1000.86,1304.87 1501.3,1957.3 18.08,23.57 12.97,56.1 -11.35,72.3 -270.68,180.23 -541.35,360.46 -812.04,540.69 -24.32,16.19 -59.01,10.15 -77.09,-13.42 C 1864.67,6678.48 1364.24,6026.05 863.8,5373.62 c -18.08,-23.57 -12.97,-56.11 11.35,-72.3 v 0 z"
   id="path195"
   inkscape:connector-curvature="0"
   style="fill:#4e362e" />
      <path
   class="fil55"
   d="m 877.34,5301.04 c 270.11,-179.85 540.22,-359.7 810.32,-539.54 24.27,-16.16 58.96,-10.04 77.08,13.59 499.74,651.52 999.47,1303.04 1499.2,1954.57 18.13,23.63 13.11,56.19 -11.17,72.35 -270.11,179.85 -540.21,359.7 -810.32,539.54 -24.27,16.16 -58.95,10.04 -77.08,-13.59 -499.73,-651.53 -999.47,-1303.05 -1499.2,-1954.57 -18.13,-23.63 -13.1,-56.19 11.17,-72.35 z"
   id="path197"
   inkscape:connector-curvature="0"
   style="fill:#4f372f" />
      <path
   class="fil56"
   d="m 879.53,5300.76 c 269.54,-179.47 539.07,-358.94 808.61,-538.41 24.22,-16.13 58.9,-9.93 77.08,13.77 499.04,650.61 998.07,1301.22 1497.11,1951.84 18.18,23.69 13.24,56.28 -10.98,72.4 -269.54,179.47 -539.07,358.94 -808.61,538.41 -24.22,16.13 -58.9,9.93 -77.08,-13.77 -499.04,-650.61 -998.07,-1301.23 -1497.11,-1951.84 -18.18,-23.7 -13.23,-56.28 10.98,-72.41 z"
   id="path199"
   inkscape:connector-curvature="0"
   style="fill:#503830" />
      <path
   class="fil57"
   d="m 881.72,5300.48 c 268.97,-179.09 537.94,-358.18 806.9,-537.27 24.17,-16.09 58.85,-9.81 77.07,13.95 498.34,649.7 996.68,1299.41 1495.02,1949.11 18.22,23.76 13.36,56.37 -10.8,72.46 -268.96,179.09 -537.93,358.18 -806.9,537.27 -24.17,16.09 -58.85,9.81 -77.07,-13.95 -498.34,-649.7 -996.68,-1299.41 -1495.02,-1949.11 -18.22,-23.76 -13.37,-56.37 10.8,-72.46 z"
   id="path201"
   inkscape:connector-curvature="0"
   style="fill:#513931" />
      <path
   class="fil58"
   d="m 883.91,5300.19 c 268.4,-178.71 536.8,-357.42 805.2,-536.13 24.11,-16.06 58.8,-9.7 77.07,14.13 497.64,648.8 995.28,1297.59 1492.93,1946.38 18.27,23.82 13.49,56.45 -10.62,72.51 -268.4,178.71 -536.8,357.42 -805.19,536.13 -24.11,16.06 -58.8,9.7 -77.07,-14.12 C 1868.59,6670.29 1370.95,6021.5 873.3,5372.71 c -18.27,-23.83 -13.49,-56.46 10.62,-72.52 z"
   id="path203"
   inkscape:connector-curvature="0"
   style="fill:#533a32" />
      <path
   class="fil59"
   d="m 886.11,5299.91 c 267.83,-178.33 535.66,-356.66 803.48,-534.99 24.06,-16.02 58.74,-9.59 77.07,14.3 496.94,647.89 993.89,1295.77 1490.83,1943.66 18.32,23.89 13.62,56.54 -10.44,72.56 -267.83,178.33 -535.65,356.66 -803.48,534.99 -24.06,16.02 -58.74,9.59 -77.07,-14.3 -496.94,-647.89 -993.89,-1295.77 -1490.83,-1943.65 -18.32,-23.89 -13.62,-56.54 10.44,-72.57 z"
   id="path205"
   inkscape:connector-curvature="0"
   style="fill:#543b33" />
      <path
   class="fil60"
   d="m 888.3,5299.63 c 267.26,-177.95 534.52,-355.9 801.78,-533.85 24.01,-15.99 58.69,-9.47 77.06,14.48 496.25,646.98 992.49,1293.95 1488.74,1940.93 18.37,23.95 13.75,56.63 -10.26,72.62 -267.26,177.95 -534.52,355.9 -801.78,533.85 -24.01,15.99 -58.69,9.47 -77.06,-14.48 C 1870.53,6666.2 1374.29,6019.23 878.04,5372.25 c -18.37,-23.95 -13.76,-56.63 10.26,-72.62 z"
   id="path207"
   inkscape:connector-curvature="0"
   style="fill:#563c33" />
      <path
   class="fil61"
   d="m 890.49,5299.35 c 266.69,-177.57 533.38,-355.15 800.06,-532.72 23.96,-15.95 58.64,-9.36 77.06,14.65 495.55,646.07 991.1,1292.13 1486.65,1938.2 18.42,24.01 13.88,56.71 -10.08,72.67 -266.69,177.57 -533.38,355.15 -800.07,532.72 -23.96,15.95 -58.63,9.36 -77.06,-14.65 C 1871.5,6664.15 1375.95,6018.09 880.4,5372.02 861.98,5348 866.51,5315.3 890.48,5299.35 Z"
   id="path209"
   inkscape:connector-curvature="0"
   style="fill:#573d34" />
      <path
   class="fil62"
   d="m 892.68,5299.07 c 266.12,-177.19 532.24,-354.38 798.36,-531.57 23.91,-15.92 58.58,-9.25 77.05,14.83 494.85,645.16 989.7,1290.31 1484.55,1935.47 18.47,24.08 14.02,56.8 -9.9,72.72 -266.11,177.19 -532.23,354.38 -798.35,531.57 -23.91,15.92 -58.58,9.25 -77.05,-14.83 -494.85,-645.16 -989.7,-1290.31 -1484.56,-1935.47 -18.46,-24.08 -14.01,-56.8 9.9,-72.73 z"
   id="path211"
   inkscape:connector-curvature="0"
   style="fill:#583e35" />
      <path
   class="fil63"
   d="m 894.87,5298.79 c 265.55,-176.81 531.1,-353.63 796.65,-530.44 23.86,-15.89 58.53,-9.13 77.05,15.01 494.15,644.25 988.31,1288.49 1482.46,1932.74 18.52,24.14 14.15,56.89 -9.72,72.78 -265.55,176.81 -531.09,353.63 -796.65,530.44 -23.86,15.89 -58.53,9.13 -77.05,-15 -494.15,-644.25 -988.31,-1288.5 -1482.46,-1932.74 -18.52,-24.14 -14.14,-56.89 9.72,-72.78 z"
   id="path213"
   inkscape:connector-curvature="0"
   style="fill:#594037" />
      <path
   class="fil64"
   d="m 897.07,5298.51 c 264.98,-176.43 529.96,-352.87 794.94,-529.3 23.81,-15.85 58.48,-9.02 77.04,15.19 493.46,643.34 986.92,1286.67 1480.37,1930.02 18.56,24.2 14.28,56.98 -9.54,72.83 -264.98,176.43 -529.96,352.87 -794.94,529.3 -23.81,15.85 -58.47,9.02 -77.04,-15.19 -493.46,-643.34 -986.91,-1286.68 -1480.37,-1930.02 -18.56,-24.2 -14.28,-56.98 9.54,-72.83 z"
   id="path215"
   inkscape:connector-curvature="0"
   style="fill:#5b4137" />
      <path
   class="fil65"
   d="m 899.26,5298.23 c 264.41,-176.06 528.82,-352.11 793.22,-528.16 23.76,-15.82 58.43,-8.91 77.04,15.36 492.76,642.43 985.52,1284.86 1478.28,1927.29 18.61,24.27 14.41,57.06 -9.35,72.88 -264.41,176.06 -528.81,352.11 -793.23,528.16 -23.76,15.82 -58.42,8.91 -77.04,-15.36 C 1875.42,6655.97 1382.66,6013.54 889.9,5371.11 c -18.61,-24.27 -14.41,-57.06 9.35,-72.88 z"
   id="path217"
   inkscape:connector-curvature="0"
   style="fill:#5c4238" />
      <path
   class="fil66"
   d="m 901.45,5297.95 c 263.84,-175.67 527.68,-351.35 791.52,-527.02 23.7,-15.78 58.37,-8.8 77.03,15.54 492.06,641.52 984.13,1283.04 1476.19,1924.56 18.66,24.33 14.54,57.15 -9.17,72.93 -263.84,175.68 -527.68,351.35 -791.52,527.02 -23.7,15.78 -58.37,8.79 -77.03,-15.54 C 1876.41,6653.92 1384.35,6012.4 892.28,5370.88 c -18.66,-24.33 -14.53,-57.15 9.17,-72.94 z"
   id="path219"
   inkscape:connector-curvature="0"
   style="fill:#5e433a" />
      <path
   class="fil67"
   d="m 903.64,5297.67 c 263.27,-175.3 526.54,-350.59 789.81,-525.89 23.65,-15.75 58.32,-8.68 77.03,15.72 491.37,640.61 982.73,1281.22 1474.09,1921.83 18.71,24.4 14.66,57.24 -8.99,72.99 -263.27,175.3 -526.54,350.59 -789.81,525.89 -23.65,15.75 -58.31,8.68 -77.03,-15.72 -491.36,-640.61 -982.73,-1281.22 -1474.09,-1921.83 -18.71,-24.4 -14.67,-57.24 8.99,-72.99 z"
   id="path221"
   inkscape:connector-curvature="0"
   style="fill:#5f443b" />
      <path
   class="fil68"
   d="m 905.83,5297.39 c 262.7,-174.92 525.4,-349.83 788.1,-524.75 23.6,-15.71 58.26,-8.56 77.02,15.89 490.67,639.7 981.33,1279.4 1472,1919.1 18.76,24.46 14.79,57.33 -8.81,73.04 -262.7,174.92 -525.4,349.83 -788.1,524.75 -23.6,15.72 -58.26,8.56 -77.02,-15.89 -490.67,-639.7 -981.33,-1279.4 -1472,-1919.1 -18.76,-24.46 -14.8,-57.33 8.81,-73.04 z"
   id="path223"
   inkscape:connector-curvature="0"
   style="fill:#61453c" />
      <path
   class="fil69"
   d="m 908.03,5297.11 c 262.13,-174.54 524.26,-349.07 786.39,-523.61 23.55,-15.68 58.21,-8.45 77.02,16.07 489.97,638.79 979.94,1277.58 1469.91,1916.37 18.81,24.52 14.93,57.41 -8.63,73.1 -262.13,174.54 -524.26,349.07 -786.39,523.61 -23.55,15.68 -58.21,8.45 -77.02,-16.07 C 1879.35,6647.78 1389.37,6008.99 899.4,5370.2 c -18.81,-24.52 -14.93,-57.41 8.63,-73.09 z"
   id="path225"
   inkscape:connector-curvature="0"
   style="fill:#62473d" />
      <path
   class="fil70"
   d="m 910.22,5296.83 c 261.56,-174.15 523.12,-348.31 784.68,-522.47 23.5,-15.65 58.16,-8.34 77.01,16.24 489.28,637.89 978.55,1275.76 1467.81,1913.65 18.86,24.59 15.06,57.5 -8.45,73.15 -261.56,174.16 -523.12,348.31 -784.68,522.47 -23.5,15.65 -58.15,8.34 -77.02,-16.24 C 1880.3,6645.74 1391.03,6007.86 901.76,5369.98 c -18.85,-24.59 -15.05,-57.5 8.45,-73.15 z"
   id="path227"
   inkscape:connector-curvature="0"
   style="fill:#63483e" />
      <path
   class="fil71"
   d="m 912.41,5296.55 c 260.99,-173.78 521.98,-347.56 782.97,-521.33 23.45,-15.61 58.11,-8.22 77.01,16.42 488.57,636.98 977.15,1273.94 1465.72,1910.92 18.91,24.65 15.19,57.59 -8.27,73.2 -260.99,173.78 -521.98,347.55 -782.97,521.33 -23.45,15.61 -58.1,8.22 -77.01,-16.42 -488.57,-636.98 -977.15,-1273.95 -1465.72,-1910.92 -18.9,-24.65 -15.19,-57.59 8.27,-73.2 z"
   id="path229"
   inkscape:connector-curvature="0"
   style="fill:#65493f" />
     </g>
     <path
   class="fil72"
   d="m 914.6,5296.27 781.26,-520.19 c 23.4,-15.58 58.05,-8.11 77,16.6 l 1463.63,1908.19 c 18.95,24.71 15.31,57.67 -8.09,73.26 l -781.26,520.19 c -23.4,15.58 -58.05,8.11 -77,-16.6 L 906.51,5369.53 c -18.95,-24.71 -15.31,-57.67 8.09,-73.26 z"
   id="path233"
   inkscape:connector-curvature="0"
   style="fill:#664a40" />
     <g
   id="g283">
      <path
   class="fil0"
   d="m 2337.52,6964.59 c 7.33,-4.88 8.46,-15.11 2.52,-22.85 -5.27,-6.87 -14.34,-9.47 -21.44,-6.55 5.54,0.09 11.25,2.82 15.02,7.73 5.94,7.74 4.81,17.98 -2.52,22.85 -0.82,0.55 -1.68,1 -2.58,1.37 3.19,0.05 6.33,-0.77 9.01,-2.55 z"
   id="path235"
   inkscape:connector-curvature="0"
   style="fill:#4a332c" />
      <path
   class="fil0"
   d="m 2095.96,6649.67 c 7.33,-4.88 8.46,-15.11 2.52,-22.85 -5.27,-6.88 -14.35,-9.47 -21.44,-6.55 5.54,0.09 11.25,2.82 15.02,7.73 5.94,7.74 4.81,17.97 -2.52,22.85 -0.82,0.54 -1.69,1 -2.58,1.37 3.19,0.05 6.33,-0.77 9,-2.55 z"
   id="path237"
   inkscape:connector-curvature="0"
   style="fill:#4a332c" />
      <path
   class="fil0"
   d="m 1854.4,6334.73 c 7.33,-4.88 8.46,-15.11 2.52,-22.85 -5.28,-6.87 -14.35,-9.47 -21.44,-6.55 5.54,0.09 11.25,2.82 15.02,7.73 5.94,7.74 4.81,17.97 -2.52,22.85 -0.82,0.55 -1.69,1 -2.58,1.37 3.19,0.05 6.33,-0.77 9,-2.55 z"
   id="path239"
   inkscape:connector-curvature="0"
   style="fill:#4a332c" />
      <path
   class="fil0"
   d="m 1612.84,6019.8 c 7.33,-4.88 8.46,-15.11 2.52,-22.85 -5.27,-6.87 -14.34,-9.47 -21.44,-6.55 5.54,0.09 11.25,2.82 15.02,7.73 5.94,7.74 4.81,17.98 -2.52,22.85 -0.82,0.55 -1.69,1 -2.58,1.37 3.19,0.06 6.33,-0.77 9.01,-2.55 z"
   id="path241"
   inkscape:connector-curvature="0"
   style="fill:#4a332c" />
      <path
   class="fil0"
   d="m 1371.28,5704.87 c 7.33,-4.88 8.46,-15.11 2.52,-22.85 -5.27,-6.87 -14.34,-9.47 -21.44,-6.55 5.54,0.09 11.25,2.82 15.02,7.73 5.94,7.74 4.81,17.97 -2.52,22.85 -0.82,0.55 -1.69,1 -2.58,1.37 3.19,0.05 6.33,-0.77 9.01,-2.55 z"
   id="path243"
   inkscape:connector-curvature="0"
   style="fill:#4a332c" />
      <path
   class="fil0"
   d="m 1129.72,5389.94 c 7.33,-4.88 8.46,-15.11 2.52,-22.85 -5.27,-6.87 -14.35,-9.47 -21.44,-6.55 5.54,0.09 11.25,2.81 15.02,7.73 5.94,7.74 4.81,17.97 -2.52,22.85 -0.82,0.55 -1.69,1 -2.58,1.37 3.19,0.06 6.33,-0.77 9,-2.55 z"
   id="path245"
   inkscape:connector-curvature="0"
   style="fill:#4a332c" />
      <path
   class="fil0"
   d="m 2645.16,6997.65 c 7.33,-4.88 8.46,-15.11 2.52,-22.85 -5.27,-6.87 -14.34,-9.47 -21.44,-6.55 5.54,0.09 11.25,2.81 15.02,7.73 5.94,7.74 4.81,17.97 -2.52,22.85 -0.82,0.55 -1.68,1 -2.58,1.37 3.19,0.05 6.33,-0.77 9.01,-2.55 z"
   id="path247"
   inkscape:connector-curvature="0"
   style="fill:#4a332c" />
      <path
   class="fil0"
   d="m 2403.6,6682.71 c 7.33,-4.88 8.46,-15.11 2.52,-22.85 -5.27,-6.87 -14.35,-9.47 -21.44,-6.55 5.54,0.09 11.25,2.82 15.02,7.73 5.94,7.74 4.81,17.97 -2.52,22.85 -0.82,0.55 -1.69,1 -2.58,1.37 3.19,0.05 6.33,-0.77 9.01,-2.56 z"
   id="path249"
   inkscape:connector-curvature="0"
   style="fill:#4a332c" />
      <path
   class="fil0"
   d="m 2162.04,6367.78 c 7.33,-4.88 8.46,-15.11 2.52,-22.85 -5.27,-6.87 -14.35,-9.47 -21.44,-6.55 5.54,0.09 11.25,2.82 15.02,7.73 5.94,7.74 4.81,17.97 -2.52,22.85 -0.82,0.55 -1.69,1 -2.58,1.37 3.19,0.05 6.33,-0.77 9.01,-2.55 z"
   id="path251"
   inkscape:connector-curvature="0"
   style="fill:#4a332c" />
      <path
   class="fil0"
   d="m 1920.48,6052.85 c 7.33,-4.88 8.46,-15.11 2.52,-22.85 -5.28,-6.87 -14.35,-9.47 -21.44,-6.55 5.54,0.09 11.25,2.82 15.02,7.73 5.94,7.74 4.81,17.97 -2.52,22.85 -0.82,0.55 -1.69,1 -2.58,1.37 3.19,0.06 6.33,-0.77 9.01,-2.55 z"
   id="path253"
   inkscape:connector-curvature="0"
   style="fill:#4a332c" />
      <path
   class="fil0"
   d="m 1678.92,5737.92 c 7.33,-4.88 8.46,-15.11 2.52,-22.85 -5.27,-6.87 -14.34,-9.47 -21.44,-6.55 5.54,0.09 11.25,2.82 15.02,7.73 5.94,7.74 4.81,17.97 -2.52,22.85 -0.82,0.55 -1.69,1 -2.58,1.37 3.19,0.05 6.33,-0.77 9.01,-2.56 z"
   id="path255"
   inkscape:connector-curvature="0"
   style="fill:#4a332c" />
      <path
   class="fil0"
   d="m 1437.35,5422.99 c 7.33,-4.88 8.46,-15.11 2.52,-22.85 -5.27,-6.87 -14.35,-9.47 -21.44,-6.55 5.54,0.09 11.25,2.82 15.02,7.73 5.94,7.74 4.81,17.97 -2.52,22.85 -0.82,0.55 -1.69,1 -2.58,1.37 3.19,0.05 6.33,-0.77 9,-2.55 z"
   id="path257"
   inkscape:connector-curvature="0"
   style="fill:#4a332c" />
      <path
   class="fil0"
   d="m 2711.23,6715.76 c 7.33,-4.88 8.46,-15.11 2.52,-22.85 -5.28,-6.87 -14.35,-9.47 -21.45,-6.55 5.54,0.09 11.25,2.82 15.02,7.73 5.94,7.74 4.81,17.97 -2.52,22.85 -0.82,0.55 -1.68,1 -2.57,1.37 3.19,0.06 6.32,-0.77 9,-2.55 z"
   id="path259"
   inkscape:connector-curvature="0"
   style="fill:#4a332c" />
      <path
   class="fil0"
   d="m 2469.67,6400.83 c 7.33,-4.88 8.46,-15.11 2.52,-22.85 -5.27,-6.87 -14.35,-9.47 -21.44,-6.55 5.54,0.09 11.25,2.82 15.02,7.73 5.94,7.74 4.81,17.97 -2.52,22.85 -0.82,0.55 -1.69,1 -2.58,1.37 3.19,0.05 6.33,-0.77 9.01,-2.55 z"
   id="path261"
   inkscape:connector-curvature="0"
   style="fill:#4a332c" />
      <path
   class="fil0"
   d="m 2228.11,6085.9 c 7.33,-4.88 8.46,-15.11 2.52,-22.85 -5.27,-6.87 -14.35,-9.47 -21.44,-6.55 5.54,0.09 11.25,2.82 15.02,7.73 5.94,7.74 4.81,17.97 -2.52,22.85 -0.82,0.55 -1.69,1 -2.58,1.37 3.19,0.05 6.33,-0.77 9,-2.55 z"
   id="path263"
   inkscape:connector-curvature="0"
   style="fill:#4a332c" />
      <path
   class="fil0"
   d="m 1986.55,5770.97 c 7.33,-4.88 8.46,-15.11 2.52,-22.85 -5.28,-6.87 -14.35,-9.47 -21.44,-6.55 5.54,0.09 11.25,2.82 15.02,7.73 5.94,7.74 4.81,17.97 -2.52,22.85 -0.82,0.55 -1.68,1 -2.58,1.37 3.19,0.05 6.33,-0.77 9.01,-2.56 z"
   id="path265"
   inkscape:connector-curvature="0"
   style="fill:#4a332c" />
      <path
   class="fil0"
   d="m 1744.99,5456.04 c 7.33,-4.88 8.46,-15.11 2.52,-22.85 -5.27,-6.87 -14.34,-9.47 -21.44,-6.55 5.54,0.09 11.25,2.82 15.02,7.73 5.94,7.74 4.81,17.97 -2.52,22.85 -0.82,0.55 -1.68,1 -2.58,1.37 3.19,0.05 6.33,-0.77 9.01,-2.55 z"
   id="path267"
   inkscape:connector-curvature="0"
   style="fill:#4a332c" />
      <path
   class="fil0"
   d="m 1503.43,5141.11 c 7.33,-4.88 8.46,-15.11 2.52,-22.85 -5.27,-6.87 -14.35,-9.47 -21.44,-6.55 5.54,0.09 11.25,2.82 15.02,7.73 5.94,7.74 4.81,17.97 -2.52,22.85 -0.82,0.55 -1.69,1 -2.58,1.37 3.19,0.05 6.33,-0.77 9,-2.55 z"
   id="path269"
   inkscape:connector-curvature="0"
   style="fill:#4a332c" />
      <path
   class="fil0"
   d="m 3018.87,6748.81 c 7.33,-4.88 8.46,-15.11 2.52,-22.85 -5.28,-6.87 -14.35,-9.47 -21.44,-6.55 5.54,0.09 11.25,2.82 15.02,7.73 5.94,7.74 4.81,17.98 -2.52,22.85 -0.82,0.55 -1.68,1 -2.57,1.37 3.19,0.06 6.33,-0.77 9,-2.55 z"
   id="path271"
   inkscape:connector-curvature="0"
   style="fill:#4a332c" />
      <path
   class="fil0"
   d="m 2777.31,6433.88 c 7.33,-4.88 8.46,-15.11 2.52,-22.85 -5.27,-6.88 -14.35,-9.47 -21.44,-6.55 5.54,0.09 11.25,2.82 15.02,7.73 5.94,7.74 4.81,17.97 -2.52,22.85 -0.82,0.54 -1.69,1 -2.58,1.37 3.19,0.05 6.33,-0.77 9.01,-2.56 z"
   id="path273"
   inkscape:connector-curvature="0"
   style="fill:#4a332c" />
      <path
   class="fil0"
   d="m 2535.74,6118.95 c 7.33,-4.88 8.46,-15.11 2.52,-22.85 -5.27,-6.87 -14.35,-9.47 -21.44,-6.55 5.54,0.09 11.25,2.82 15.02,7.73 5.94,7.74 4.81,17.97 -2.52,22.85 -0.82,0.55 -1.69,1 -2.58,1.37 3.19,0.05 6.33,-0.77 9,-2.55 z"
   id="path275"
   inkscape:connector-curvature="0"
   style="fill:#4a332c" />
      <path
   class="fil0"
   d="m 2294.19,5804.02 c 7.33,-4.88 8.46,-15.11 2.52,-22.85 -5.27,-6.87 -14.35,-9.47 -21.44,-6.55 5.54,0.09 11.25,2.82 15.02,7.73 5.94,7.74 4.81,17.98 -2.52,22.85 -0.82,0.55 -1.69,1 -2.58,1.37 3.19,0.06 6.33,-0.77 9,-2.55 z"
   id="path277"
   inkscape:connector-curvature="0"
   style="fill:#4a332c" />
      <path
   class="fil0"
   d="m 2052.63,5489.09 c 7.33,-4.88 8.46,-15.11 2.52,-22.85 -5.27,-6.88 -14.34,-9.47 -21.44,-6.55 5.54,0.09 11.25,2.82 15.02,7.73 5.94,7.74 4.81,17.97 -2.52,22.85 -0.82,0.54 -1.68,1 -2.58,1.37 3.19,0.05 6.33,-0.77 9.01,-2.55 z"
   id="path279"
   inkscape:connector-curvature="0"
   style="fill:#4a332c" />
      <path
   class="fil0"
   d="m 1811.07,5174.16 c 7.33,-4.88 8.46,-15.11 2.52,-22.85 -5.27,-6.87 -14.35,-9.47 -21.44,-6.55 5.54,0.09 11.25,2.81 15.02,7.73 5.94,7.74 4.81,17.97 -2.52,22.85 -0.82,0.55 -1.69,1 -2.58,1.37 3.19,0.05 6.33,-0.77 9.01,-2.55 z"
   id="path281"
   inkscape:connector-curvature="0"
   style="fill:#4a332c" />
     </g>
     <g
   id="g333">
      <path
   class="fil73"
   d="m 2331.19,6935.19 c -5.1,-1.89 -10.75,-1.56 -15.17,1.37 -7.33,4.88 -8.46,15.11 -2.52,22.85 3.91,5.09 9.9,7.84 15.63,7.73 -3.37,-1.25 -6.5,-3.47 -8.86,-6.55 -5.94,-7.74 -4.81,-17.97 2.52,-22.85 2.51,-1.67 5.41,-2.5 8.39,-2.55 z"
   id="path285"
   inkscape:connector-curvature="0"
   style="fill:#84716b" />
      <path
   class="fil73"
   d="m 2089.63,6620.26 c -5.1,-1.89 -10.75,-1.56 -15.17,1.37 -7.33,4.88 -8.46,15.11 -2.52,22.85 3.91,5.09 9.9,7.84 15.63,7.73 -3.37,-1.25 -6.5,-3.47 -8.86,-6.56 -5.94,-7.74 -4.81,-17.97 2.52,-22.85 2.5,-1.67 5.41,-2.5 8.39,-2.55 z"
   id="path287"
   inkscape:connector-curvature="0"
   style="fill:#84716b" />
      <path
   class="fil73"
   d="m 1848.06,6305.32 c -5.1,-1.89 -10.75,-1.56 -15.16,1.37 -7.33,4.88 -8.46,15.11 -2.52,22.85 3.91,5.09 9.9,7.84 15.63,7.73 -3.37,-1.25 -6.5,-3.47 -8.86,-6.55 -5.94,-7.74 -4.81,-17.98 2.52,-22.85 2.51,-1.67 5.42,-2.5 8.39,-2.56 z"
   id="path289"
   inkscape:connector-curvature="0"
   style="fill:#84716b" />
      <path
   class="fil73"
   d="m 1606.5,5990.39 c -5.1,-1.89 -10.75,-1.56 -15.16,1.37 -7.33,4.88 -8.46,15.11 -2.52,22.85 3.91,5.09 9.9,7.84 15.63,7.73 -3.37,-1.25 -6.5,-3.47 -8.86,-6.55 -5.94,-7.74 -4.81,-17.97 2.52,-22.85 2.51,-1.67 5.41,-2.5 8.39,-2.55 z"
   id="path291"
   inkscape:connector-curvature="0"
   style="fill:#84716b" />
      <path
   class="fil73"
   d="m 1364.94,5675.46 c -5.1,-1.89 -10.75,-1.56 -15.17,1.37 -7.33,4.88 -8.46,15.11 -2.52,22.85 3.91,5.09 9.9,7.84 15.63,7.73 -3.37,-1.25 -6.5,-3.47 -8.86,-6.56 -5.94,-7.74 -4.81,-17.97 2.52,-22.85 2.51,-1.67 5.41,-2.5 8.39,-2.55 z"
   id="path293"
   inkscape:connector-curvature="0"
   style="fill:#84716b" />
      <path
   class="fil73"
   d="m 1123.38,5360.53 c -5.09,-1.89 -10.75,-1.57 -15.16,1.37 -7.33,4.88 -8.46,15.11 -2.52,22.85 3.91,5.09 9.9,7.84 15.63,7.73 -3.37,-1.25 -6.5,-3.47 -8.86,-6.55 -5.94,-7.74 -4.81,-17.98 2.52,-22.85 2.5,-1.67 5.41,-2.5 8.39,-2.55 z"
   id="path295"
   inkscape:connector-curvature="0"
   style="fill:#84716b" />
      <path
   class="fil73"
   d="m 2638.82,6968.24 c -5.1,-1.89 -10.75,-1.57 -15.16,1.37 -7.33,4.88 -8.46,15.11 -2.52,22.85 3.91,5.09 9.9,7.84 15.63,7.73 -3.37,-1.25 -6.5,-3.47 -8.86,-6.55 -5.94,-7.74 -4.81,-17.97 2.52,-22.85 2.51,-1.67 5.41,-2.5 8.39,-2.55 z"
   id="path297"
   inkscape:connector-curvature="0"
   style="fill:#84716b" />
      <path
   class="fil73"
   d="m 2397.26,6653.31 c -5.1,-1.89 -10.75,-1.56 -15.17,1.37 -7.33,4.88 -8.46,15.11 -2.52,22.85 3.91,5.09 9.9,7.84 15.63,7.73 -3.37,-1.25 -6.5,-3.47 -8.86,-6.56 -5.94,-7.74 -4.81,-17.97 2.52,-22.85 2.51,-1.67 5.41,-2.5 8.39,-2.55 z"
   id="path299"
   inkscape:connector-curvature="0"
   style="fill:#84716b" />
      <path
   class="fil73"
   d="m 2155.7,6338.37 c -5.09,-1.89 -10.75,-1.56 -15.16,1.37 -7.33,4.88 -8.46,15.11 -2.52,22.85 3.91,5.09 9.9,7.84 15.63,7.73 -3.37,-1.25 -6.5,-3.47 -8.86,-6.56 -5.94,-7.74 -4.81,-17.97 2.52,-22.85 2.5,-1.67 5.41,-2.49 8.39,-2.55 z"
   id="path301"
   inkscape:connector-curvature="0"
   style="fill:#84716b" />
      <path
   class="fil73"
   d="m 1914.14,6023.44 c -5.1,-1.89 -10.75,-1.57 -15.16,1.37 -7.33,4.88 -8.46,15.11 -2.52,22.85 3.91,5.09 9.9,7.84 15.63,7.73 -3.37,-1.25 -6.5,-3.47 -8.86,-6.55 -5.94,-7.74 -4.81,-17.97 2.52,-22.85 2.51,-1.67 5.41,-2.5 8.39,-2.55 z"
   id="path303"
   inkscape:connector-curvature="0"
   style="fill:#84716b" />
      <path
   class="fil73"
   d="m 1672.58,5708.51 c -5.1,-1.89 -10.75,-1.56 -15.17,1.37 -7.33,4.88 -8.46,15.11 -2.52,22.85 3.91,5.09 9.9,7.84 15.63,7.73 -3.37,-1.25 -6.5,-3.47 -8.86,-6.56 -5.94,-7.74 -4.81,-17.97 2.52,-22.85 2.51,-1.67 5.41,-2.5 8.39,-2.55 z"
   id="path305"
   inkscape:connector-curvature="0"
   style="fill:#84716b" />
      <path
   class="fil73"
   d="m 1431.02,5393.58 c -5.09,-1.89 -10.75,-1.56 -15.16,1.37 -7.33,4.88 -8.46,15.11 -2.52,22.85 3.91,5.09 9.9,7.84 15.63,7.73 -3.37,-1.25 -6.5,-3.47 -8.86,-6.55 -5.94,-7.74 -4.81,-17.98 2.52,-22.85 2.5,-1.67 5.41,-2.5 8.39,-2.56 z"
   id="path307"
   inkscape:connector-curvature="0"
   style="fill:#84716b" />
      <path
   class="fil73"
   d="m 2704.89,6686.36 c -5.1,-1.89 -10.75,-1.56 -15.17,1.37 -7.33,4.88 -8.46,15.11 -2.52,22.85 3.91,5.09 9.9,7.84 15.63,7.73 -3.37,-1.25 -6.5,-3.47 -8.86,-6.55 -5.94,-7.74 -4.81,-17.97 2.52,-22.85 2.51,-1.67 5.41,-2.5 8.39,-2.55 z"
   id="path309"
   inkscape:connector-curvature="0"
   style="fill:#84716b" />
      <path
   class="fil73"
   d="m 2463.33,6371.43 c -5.1,-1.89 -10.75,-1.56 -15.17,1.37 -7.33,4.88 -8.46,15.11 -2.52,22.85 3.91,5.09 9.9,7.84 15.63,7.73 -3.37,-1.25 -6.5,-3.47 -8.86,-6.56 -5.94,-7.74 -4.81,-17.97 2.52,-22.85 2.51,-1.67 5.41,-2.5 8.39,-2.56 z"
   id="path311"
   inkscape:connector-curvature="0"
   style="fill:#84716b" />
      <path
   class="fil73"
   d="m 2221.77,6056.5 c -5.09,-1.89 -10.75,-1.57 -15.16,1.37 -7.33,4.88 -8.46,15.11 -2.52,22.85 3.91,5.09 9.9,7.84 15.63,7.73 -3.37,-1.25 -6.5,-3.47 -8.86,-6.55 -5.94,-7.74 -4.81,-17.98 2.52,-22.85 2.51,-1.67 5.42,-2.5 8.39,-2.55 z"
   id="path313"
   inkscape:connector-curvature="0"
   style="fill:#84716b" />
      <path
   class="fil73"
   d="m 1980.21,5741.56 c -5.1,-1.89 -10.75,-1.56 -15.16,1.37 -7.33,4.88 -8.46,15.11 -2.52,22.85 3.91,5.09 9.9,7.84 15.63,7.73 -3.37,-1.25 -6.5,-3.47 -8.86,-6.56 -5.94,-7.74 -4.81,-17.97 2.52,-22.85 2.51,-1.67 5.41,-2.5 8.39,-2.55 z"
   id="path315"
   inkscape:connector-curvature="0"
   style="fill:#84716b" />
      <path
   class="fil73"
   d="m 1738.65,5426.63 c -5.1,-1.89 -10.75,-1.56 -15.17,1.37 -7.33,4.88 -8.46,15.11 -2.52,22.85 3.91,5.09 9.9,7.84 15.63,7.73 -3.37,-1.25 -6.5,-3.47 -8.86,-6.55 -5.94,-7.74 -4.81,-17.98 2.52,-22.85 2.51,-1.67 5.41,-2.5 8.39,-2.56 z"
   id="path317"
   inkscape:connector-curvature="0"
   style="fill:#84716b" />
      <path
   class="fil73"
   d="m 1497.09,5111.7 c -5.09,-1.89 -10.75,-1.57 -15.16,1.37 -7.33,4.88 -8.46,15.11 -2.52,22.85 3.91,5.09 9.9,7.84 15.63,7.73 -3.37,-1.25 -6.5,-3.47 -8.86,-6.55 -5.94,-7.74 -4.81,-17.97 2.52,-22.85 2.5,-1.67 5.41,-2.5 8.39,-2.55 z"
   id="path319"
   inkscape:connector-curvature="0"
   style="fill:#84716b" />
      <path
   class="fil73"
   d="m 3012.53,6719.41 c -5.1,-1.89 -10.75,-1.56 -15.16,1.37 -7.33,4.88 -8.46,15.11 -2.52,22.85 3.91,5.09 9.9,7.84 15.63,7.73 -3.37,-1.25 -6.5,-3.47 -8.86,-6.55 -5.94,-7.74 -4.81,-17.97 2.52,-22.85 2.51,-1.67 5.42,-2.5 8.39,-2.55 z"
   id="path321"
   inkscape:connector-curvature="0"
   style="fill:#84716b" />
      <path
   class="fil73"
   d="m 2770.97,6404.48 c -5.1,-1.89 -10.75,-1.56 -15.17,1.37 -7.33,4.88 -8.46,15.11 -2.52,22.85 3.91,5.09 9.9,7.84 15.63,7.73 -3.37,-1.25 -6.5,-3.47 -8.86,-6.56 -5.94,-7.74 -4.81,-17.97 2.52,-22.85 2.51,-1.67 5.41,-2.5 8.39,-2.55 z"
   id="path323"
   inkscape:connector-curvature="0"
   style="fill:#84716b" />
      <path
   class="fil73"
   d="m 2529.41,6089.54 c -5.09,-1.89 -10.75,-1.56 -15.16,1.38 -7.33,4.88 -8.46,15.11 -2.52,22.85 3.91,5.09 9.9,7.84 15.63,7.73 -3.37,-1.25 -6.5,-3.47 -8.86,-6.55 -5.94,-7.74 -4.81,-17.98 2.52,-22.85 2.5,-1.67 5.41,-2.5 8.39,-2.56 z"
   id="path325"
   inkscape:connector-curvature="0"
   style="fill:#84716b" />
      <path
   class="fil73"
   d="m 2287.85,5774.61 c -5.1,-1.89 -10.75,-1.56 -15.16,1.37 -7.33,4.88 -8.46,15.11 -2.52,22.85 3.91,5.09 9.9,7.84 15.63,7.73 -3.37,-1.25 -6.5,-3.47 -8.86,-6.55 -5.94,-7.74 -4.81,-17.97 2.52,-22.85 2.51,-1.67 5.41,-2.5 8.39,-2.55 z"
   id="path327"
   inkscape:connector-curvature="0"
   style="fill:#84716b" />
      <path
   class="fil73"
   d="m 2046.29,5459.68 c -5.1,-1.89 -10.75,-1.56 -15.17,1.37 -7.33,4.88 -8.46,15.11 -2.52,22.85 3.91,5.09 9.9,7.84 15.63,7.73 -3.37,-1.25 -6.5,-3.47 -8.86,-6.56 -5.94,-7.74 -4.81,-17.97 2.52,-22.85 2.51,-1.67 5.41,-2.5 8.39,-2.55 z"
   id="path329"
   inkscape:connector-curvature="0"
   style="fill:#84716b" />
      <path
   class="fil73"
   d="m 1804.72,5144.75 c -5.09,-1.89 -10.75,-1.57 -15.16,1.37 -7.33,4.88 -8.46,15.11 -2.52,22.85 3.91,5.09 9.9,7.84 15.63,7.73 -3.37,-1.25 -6.5,-3.47 -8.86,-6.55 -5.94,-7.74 -4.81,-17.98 2.52,-22.85 2.5,-1.67 5.41,-2.5 8.39,-2.55 z"
   id="path331"
   inkscape:connector-curvature="0"
   style="fill:#84716b" />
     </g>
    </g>
    <path
   class="fil1"
   d="m 978.43,5067.9 732.11,-324.82 c 25.7,-11.4 56.2,-6.57 77,16.6 L 3343.92,6492.7 c 20.81,23.17 -77.43,232.85 -100.83,248.43 l -781.26,520.19 c -23.4,15.58 -58.05,8.11 -77,-16.6 L 921.2,5336.53 c -18.95,-24.71 31.54,-257.23 57.23,-268.63 z"
   id="path337"
   inkscape:connector-curvature="0"
   style="fill:#fefefe" />
    <path
   class="fil74"
   d="m 2496.34,7223.97 736.35,-486.46 c 17.83,-11.78 98.51,-178.09 102.84,-223.67 l 4.88,-51.24 c 2.83,-29.75 -41.28,13.09 -59.09,24.89 l -723.02,478.48 c -17.82,11.79 -34.99,45.86 -42.84,74.69 l -41.22,151.33 c -7.85,28.83 4.26,43.77 22.1,31.98 z"
   id="path339"
   inkscape:connector-curvature="0"
   style="fill:#d2d3d5" />
    <g
   id="g487">
     <path
   class="fil0 str0"
   d="m 962.58,4996.13 817.16,-544.09 c 24.57,-16.36 60.64,-8.58 80.54,17.36 l 1500.7,1956.52 c 19.9,25.94 16.11,60.26 -8.46,76.61 l -817.16,544.1 c -24.57,16.36 -60.64,8.59 -80.54,-17.36 L 954.12,5072.75 c -19.9,-25.95 -16.11,-60.26 8.46,-76.62 z"
   id="path341"
   inkscape:connector-curvature="0"
   style="fill:#4a332c;stroke:#373435;stroke-width:6.94000006;stroke-miterlimit:2.61313009" />
     <g
   id="g383">
      <path
   class="fil5"
   d="m 964.77,4995.85 c 271.82,-180.99 543.64,-361.97 815.46,-542.96 24.42,-16.26 59.11,-10.38 77.09,13.06 501.83,654.25 1003.65,1308.5 1505.48,1962.75 17.98,23.44 12.72,55.93 -11.7,72.19 -271.81,180.99 -543.64,361.98 -815.46,542.96 -24.42,16.26 -59.11,10.39 -77.1,-13.06 -501.82,-654.25 -1003.65,-1308.5 -1505.47,-1962.75 -17.99,-23.44 -12.72,-55.93 11.7,-72.19 z"
   id="path343"
   inkscape:connector-curvature="0"
   style="fill:#4b342c" />
      <path
   class="fil6"
   d="m 966.96,4995.57 c 271.25,-180.61 542.5,-361.22 813.74,-541.82 24.37,-16.23 59.06,-10.27 77.09,13.24 501.13,653.34 1002.26,1306.68 1503.38,1960.02 18.03,23.51 12.85,56.02 -11.52,72.24 -271.25,180.61 -542.5,361.21 -813.75,541.82 -24.37,16.22 -59.06,10.27 -77.09,-13.24 C 1957.68,6374.49 1456.55,5721.14 955.43,5067.8 c -18.04,-23.51 -12.85,-56.02 11.52,-72.24 z"
   id="path345"
   inkscape:connector-curvature="0"
   style="fill:#4c352d" />
      <path
   class="fil54"
   d="m 969.15,4995.29 c 270.68,-180.23 541.36,-360.45 812.04,-540.68 24.32,-16.19 59.01,-10.16 77.09,13.41 500.43,652.44 1000.86,1304.86 1501.29,1957.3 18.08,23.57 12.98,56.1 -11.34,72.3 -270.68,180.23 -541.36,360.46 -812.04,540.69 -24.32,16.19 -59,10.16 -77.09,-13.41 C 1958.67,6372.47 1458.24,5720.03 957.81,5067.6 c -18.08,-23.57 -12.98,-56.11 11.34,-72.3 z"
   id="path347"
   inkscape:connector-curvature="0"
   style="fill:#4e362e" />
      <path
   class="fil55"
   d="m 971.35,4995.01 c 270.11,-179.85 540.22,-359.7 810.33,-539.54 24.27,-16.16 58.96,-10.04 77.08,13.59 499.74,651.52 999.47,1303.04 1499.2,1954.57 18.13,23.63 13.11,56.19 -11.17,72.35 -270.11,179.85 -540.21,359.7 -810.32,539.54 -24.27,16.16 -58.96,10.05 -77.09,-13.59 -499.73,-651.52 -999.46,-1303.05 -1499.2,-1954.57 -18.13,-23.63 -13.11,-56.19 11.16,-72.35 z"
   id="path349"
   inkscape:connector-curvature="0"
   style="fill:#4f372f" />
      <path
   class="fil56"
   d="m 973.54,4994.73 c 269.54,-179.47 539.08,-358.94 808.62,-538.41 24.22,-16.13 58.9,-9.93 77.07,13.77 499.04,650.61 998.07,1301.22 1497.11,1951.84 18.18,23.7 13.24,56.28 -10.98,72.4 -269.54,179.47 -539.07,358.94 -808.61,538.41 -24.22,16.13 -58.9,9.93 -77.08,-13.76 C 1960.63,6368.36 1461.6,5717.75 962.56,5067.14 c -18.18,-23.7 -13.24,-56.28 10.98,-72.4 z"
   id="path351"
   inkscape:connector-curvature="0"
   style="fill:#503830" />
      <path
   class="fil57"
   d="m 975.73,4994.45 c 268.97,-179.09 537.94,-358.18 806.91,-537.27 24.17,-16.09 58.85,-9.81 77.07,13.95 498.34,649.7 996.68,1299.4 1495.01,1949.11 18.23,23.76 13.37,56.37 -10.8,72.46 -268.96,179.09 -537.94,358.18 -806.91,537.27 -24.17,16.09 -58.85,9.82 -77.07,-13.94 -498.33,-649.7 -996.67,-1299.41 -1495.01,-1949.11 -18.23,-23.76 -13.37,-56.36 10.8,-72.45 z"
   id="path353"
   inkscape:connector-curvature="0"
   style="fill:#513931" />
      <path
   class="fil58"
   d="m 977.92,4994.17 c 268.4,-178.71 536.8,-357.42 805.2,-536.13 24.11,-16.06 58.8,-9.7 77.07,14.13 497.64,648.8 995.28,1297.58 1492.92,1946.38 18.28,23.82 13.5,56.45 -10.62,72.51 -268.4,178.71 -536.8,357.42 -805.2,536.13 -24.11,16.06 -58.8,9.7 -77.07,-14.12 -497.64,-648.8 -995.28,-1297.59 -1492.92,-1946.38 -18.28,-23.83 -13.5,-56.45 10.62,-72.51 z"
   id="path355"
   inkscape:connector-curvature="0"
   style="fill:#533a32" />
      <path
   class="fil59"
   d="m 980.11,4993.89 c 267.83,-178.33 535.66,-356.66 803.49,-534.99 24.06,-16.02 58.74,-9.59 77.06,14.3 496.94,647.89 993.89,1295.77 1490.83,1943.66 18.33,23.89 13.63,56.54 -10.44,72.56 -267.83,178.33 -535.66,356.66 -803.49,534.99 -24.06,16.02 -58.74,9.59 -77.06,-14.3 -496.94,-647.89 -993.89,-1295.78 -1490.83,-1943.66 -18.32,-23.89 -13.63,-56.54 10.44,-72.56 z"
   id="path357"
   inkscape:connector-curvature="0"
   style="fill:#543b33" />
      <path
   class="fil60"
   d="m 982.31,4993.61 c 267.26,-177.95 534.52,-355.9 801.78,-533.85 24.01,-15.99 58.69,-9.48 77.06,14.48 496.24,646.98 992.49,1293.95 1488.74,1940.93 18.37,23.95 13.76,56.63 -10.26,72.61 -267.26,177.95 -534.52,355.9 -801.78,533.85 -24.01,15.99 -58.69,9.48 -77.06,-14.48 C 1964.55,6360.17 1468.3,5713.2 972.05,5066.22 c -18.37,-23.95 -13.76,-56.63 10.26,-72.61 z"
   id="path359"
   inkscape:connector-curvature="0"
   style="fill:#563c33" />
      <path
   class="fil61"
   d="m 984.5,4993.33 c 266.69,-177.57 533.38,-355.15 800.07,-532.72 23.96,-15.96 58.64,-9.36 77.06,14.65 495.55,646.07 991.1,1292.13 1486.65,1938.2 18.42,24.01 13.89,56.71 -10.07,72.67 -266.69,177.57 -533.38,355.15 -800.07,532.72 -23.96,15.96 -58.63,9.36 -77.06,-14.65 C 1965.54,6358.13 1469.99,5712.07 974.44,5066 c -18.42,-24.01 -13.89,-56.71 10.07,-72.67 z"
   id="path361"
   inkscape:connector-curvature="0"
   style="fill:#573d34" />
      <path
   class="fil62"
   d="m 986.69,4993.04 c 266.12,-177.19 532.24,-354.38 798.36,-531.57 23.91,-15.92 58.58,-9.25 77.05,14.83 494.85,645.16 989.7,1290.31 1484.56,1935.47 18.47,24.08 14.02,56.8 -9.9,72.72 -266.11,177.19 -532.24,354.38 -798.35,531.57 -23.91,15.92 -58.58,9.25 -77.05,-14.83 -494.85,-645.16 -989.7,-1290.32 -1484.56,-1935.47 -18.47,-24.08 -14.02,-56.8 9.89,-72.72 z"
   id="path363"
   inkscape:connector-curvature="0"
   style="fill:#583e35" />
      <path
   class="fil63"
   d="m 988.88,4992.76 c 265.55,-176.81 531.1,-353.63 796.65,-530.44 23.86,-15.89 58.53,-9.13 77.04,15.01 494.16,644.25 988.31,1288.49 1482.46,1932.74 18.52,24.14 14.15,56.89 -9.72,72.78 -265.55,176.81 -531.09,353.63 -796.65,530.44 -23.86,15.89 -58.53,9.14 -77.05,-15 -494.15,-644.25 -988.31,-1288.5 -1482.46,-1932.74 -18.52,-24.14 -14.15,-56.89 9.71,-72.78 z"
   id="path365"
   inkscape:connector-curvature="0"
   style="fill:#594037" />
      <path
   class="fil64"
   d="m 991.08,4992.48 c 264.98,-176.43 529.96,-352.87 794.94,-529.3 23.81,-15.85 58.47,-9.02 77.04,15.19 493.46,643.34 986.91,1286.67 1480.37,1930.01 18.56,24.2 14.28,56.98 -9.54,72.83 -264.98,176.43 -529.96,352.87 -794.94,529.3 -23.81,15.85 -58.48,9.02 -77.04,-15.19 C 1968.46,6351.98 1475,5708.64 981.54,5065.3 c -18.57,-24.2 -14.28,-56.98 9.53,-72.83 z"
   id="path367"
   inkscape:connector-curvature="0"
   style="fill:#5b4137" />
      <path
   class="fil65"
   d="m 993.27,4992.2 c 264.41,-176.06 528.82,-352.11 793.23,-528.16 23.76,-15.82 58.42,-8.91 77.04,15.36 492.76,642.43 985.52,1284.86 1478.28,1927.29 18.61,24.27 14.41,57.06 -9.35,72.88 -264.41,176.06 -528.82,352.11 -793.23,528.16 -23.76,15.82 -58.42,8.91 -77.04,-15.36 -492.76,-642.43 -985.52,-1284.86 -1478.28,-1927.29 -18.61,-24.26 -14.41,-57.06 9.35,-72.88 z"
   id="path369"
   inkscape:connector-curvature="0"
   style="fill:#5c4238" />
      <path
   class="fil66"
   d="m 995.46,4991.92 c 263.84,-175.67 527.69,-351.35 791.52,-527.02 23.7,-15.79 58.37,-8.8 77.03,15.54 492.06,641.52 984.13,1283.04 1476.19,1924.56 18.66,24.33 14.54,57.15 -9.17,72.93 -263.84,175.68 -527.68,351.35 -791.52,527.02 -23.7,15.79 -58.37,8.8 -77.03,-15.54 -492.06,-641.52 -984.12,-1283.04 -1476.19,-1924.56 -18.66,-24.33 -14.54,-57.15 9.17,-72.94 z"
   id="path371"
   inkscape:connector-curvature="0"
   style="fill:#5e433a" />
      <path
   class="fil67"
   d="m 997.65,4991.64 c 263.27,-175.3 526.54,-350.59 789.81,-525.89 23.65,-15.75 58.31,-8.68 77.03,15.72 491.36,640.61 982.73,1281.22 1474.09,1921.83 18.71,24.39 14.67,57.24 -8.99,72.99 -263.27,175.3 -526.54,350.59 -789.81,525.89 -23.65,15.75 -58.31,8.68 -77.03,-15.72 -491.36,-640.61 -982.72,-1281.22 -1474.09,-1921.83 -18.71,-24.39 -14.67,-57.24 8.99,-72.99 z"
   id="path373"
   inkscape:connector-curvature="0"
   style="fill:#5f443b" />
      <path
   class="fil68"
   d="m 999.84,4991.36 c 262.7,-174.92 525.4,-349.83 788.1,-524.75 23.6,-15.72 58.26,-8.57 77.02,15.89 490.67,639.7 981.33,1279.4 1472,1919.1 18.76,24.46 14.8,57.33 -8.81,73.04 -262.7,174.92 -525.4,349.83 -788.1,524.75 -23.6,15.72 -58.26,8.57 -77.02,-15.89 -490.67,-639.7 -981.33,-1279.41 -1472,-1919.11 -18.76,-24.46 -14.8,-57.32 8.81,-73.04 z"
   id="path375"
   inkscape:connector-curvature="0"
   style="fill:#61453c" />
      <path
   class="fil69"
   d="m 1002.04,4991.08 c 262.13,-174.54 524.26,-349.07 786.39,-523.61 23.55,-15.69 58.21,-8.45 77.02,16.07 489.97,638.79 979.94,1277.58 1469.91,1916.37 18.81,24.52 14.93,57.41 -8.63,73.09 -262.13,174.54 -524.26,349.07 -786.39,523.61 -23.55,15.69 -58.21,8.46 -77.02,-16.07 -489.96,-638.8 -979.94,-1277.59 -1469.91,-1916.38 -18.81,-24.52 -14.93,-57.41 8.63,-73.09 z"
   id="path377"
   inkscape:connector-curvature="0"
   style="fill:#62473d" />
      <path
   class="fil70"
   d="m 1004.22,4990.8 c 261.56,-174.15 523.13,-348.31 784.69,-522.47 23.5,-15.65 58.15,-8.34 77.01,16.24 489.28,637.89 978.55,1275.76 1467.82,1913.65 18.86,24.58 15.06,57.5 -8.45,73.15 -261.56,174.16 -523.12,348.31 -784.68,522.47 -23.5,15.65 -58.16,8.34 -77.02,-16.24 -489.27,-637.89 -978.54,-1275.77 -1467.81,-1913.65 -18.85,-24.58 -15.06,-57.5 8.44,-73.15 z"
   id="path379"
   inkscape:connector-curvature="0"
   style="fill:#63483e" />
      <path
   class="fil71"
   d="m 1006.42,4990.52 c 260.99,-173.78 521.98,-347.56 782.97,-521.33 23.45,-15.62 58.1,-8.23 77.01,16.42 488.57,636.98 977.15,1273.94 1465.72,1910.92 18.91,24.65 15.19,57.59 -8.27,73.2 -260.99,173.78 -521.98,347.55 -782.97,521.33 -23.45,15.61 -58.11,8.23 -77.01,-16.42 C 1975.3,6337.66 1486.72,5700.69 998.15,5063.72 c -18.9,-24.65 -15.19,-57.59 8.26,-73.2 z"
   id="path381"
   inkscape:connector-curvature="0"
   style="fill:#65493f" />
     </g>
     <path
   class="fil72"
   d="m 1008.61,4990.24 781.26,-520.19 c 23.4,-15.58 58.05,-8.11 77,16.6 L 3330.5,6394.84 c 18.95,24.71 15.31,57.67 -8.09,73.25 l -781.26,520.19 c -23.4,15.58 -58.05,8.11 -77,-16.6 L 1000.52,5063.49 c -18.95,-24.71 -15.31,-57.67 8.08,-73.25 z"
   id="path385"
   inkscape:connector-curvature="0"
   style="fill:#664a40" />
     <g
   id="g435">
      <path
   class="fil0"
   d="m 2466.06,6645.3 c 7.33,-4.88 8.46,-15.11 2.52,-22.85 -5.27,-6.88 -14.34,-9.48 -21.44,-6.55 5.54,0.09 11.25,2.82 15.02,7.73 5.94,7.74 4.81,17.97 -2.52,22.85 -0.82,0.54 -1.69,1 -2.58,1.37 3.19,0.05 6.33,-0.77 9,-2.56 z"
   id="path387"
   inkscape:connector-curvature="0"
   style="fill:#4a332c" />
      <path
   class="fil0"
   d="m 2224.5,6330.37 c 7.33,-4.88 8.46,-15.11 2.52,-22.85 -5.27,-6.87 -14.35,-9.47 -21.44,-6.55 5.54,0.09 11.25,2.82 15.02,7.73 5.94,7.74 4.81,17.97 -2.52,22.85 -0.82,0.55 -1.69,1 -2.58,1.37 3.19,0.05 6.33,-0.77 9,-2.55 z"
   id="path389"
   inkscape:connector-curvature="0"
   style="fill:#4a332c" />
      <path
   class="fil0"
   d="m 1982.94,6015.44 c 7.33,-4.88 8.46,-15.11 2.52,-22.85 -5.28,-6.87 -14.35,-9.47 -21.44,-6.55 5.54,0.09 11.25,2.82 15.02,7.73 5.94,7.74 4.81,17.98 -2.52,22.85 -0.82,0.55 -1.69,1 -2.58,1.37 3.19,0.06 6.33,-0.77 9.01,-2.55 z"
   id="path391"
   inkscape:connector-curvature="0"
   style="fill:#4a332c" />
      <path
   class="fil0"
   d="m 1741.38,5700.51 c 7.33,-4.88 8.46,-15.11 2.52,-22.86 -5.27,-6.87 -14.34,-9.47 -21.44,-6.55 5.54,0.09 11.25,2.82 15.02,7.73 5.94,7.74 4.81,17.97 -2.52,22.85 -0.82,0.54 -1.69,1 -2.58,1.37 3.19,0.05 6.33,-0.77 9.01,-2.55 z"
   id="path393"
   inkscape:connector-curvature="0"
   style="fill:#4a332c" />
      <path
   class="fil0"
   d="m 1499.82,5385.58 c 7.33,-4.88 8.46,-15.11 2.52,-22.85 -5.27,-6.87 -14.35,-9.47 -21.44,-6.55 5.54,0.09 11.25,2.81 15.02,7.73 5.94,7.74 4.81,17.97 -2.52,22.85 -0.82,0.55 -1.69,1 -2.58,1.37 3.19,0.06 6.33,-0.77 9.01,-2.55 z"
   id="path395"
   inkscape:connector-curvature="0"
   style="fill:#4a332c" />
      <path
   class="fil0"
   d="m 1258.26,5070.65 c 7.33,-4.88 8.46,-15.11 2.52,-22.85 -5.27,-6.87 -14.35,-9.47 -21.44,-6.55 5.54,0.09 11.25,2.82 15.02,7.73 5.94,7.74 4.81,17.98 -2.52,22.85 -0.82,0.55 -1.69,1 -2.58,1.37 3.19,0.06 6.33,-0.77 9.01,-2.55 z"
   id="path397"
   inkscape:connector-curvature="0"
   style="fill:#4a332c" />
      <path
   class="fil0"
   d="m 2773.69,6678.35 c 7.33,-4.88 8.46,-15.11 2.52,-22.85 -5.27,-6.87 -14.34,-9.47 -21.44,-6.55 5.54,0.09 11.25,2.82 15.02,7.73 5.94,7.74 4.81,17.97 -2.52,22.85 -0.82,0.55 -1.69,1 -2.58,1.37 3.19,0.05 6.33,-0.77 9.01,-2.56 z"
   id="path399"
   inkscape:connector-curvature="0"
   style="fill:#4a332c" />
      <path
   class="fil0"
   d="m 2532.13,6363.43 c 7.33,-4.88 8.46,-15.11 2.52,-22.85 -5.27,-6.87 -14.35,-9.47 -21.44,-6.55 5.54,0.09 11.25,2.82 15.02,7.73 5.94,7.74 4.81,17.97 -2.52,22.85 -0.82,0.55 -1.69,1 -2.58,1.37 3.19,0.05 6.33,-0.77 9,-2.55 z"
   id="path401"
   inkscape:connector-curvature="0"
   style="fill:#4a332c" />
      <path
   class="fil0"
   d="m 2290.57,6048.49 c 7.33,-4.88 8.46,-15.11 2.52,-22.85 -5.28,-6.87 -14.35,-9.47 -21.44,-6.55 5.54,0.09 11.25,2.82 15.02,7.73 5.94,7.74 4.81,17.97 -2.52,22.85 -0.82,0.55 -1.69,1 -2.58,1.37 3.19,0.06 6.33,-0.77 9.01,-2.55 z"
   id="path403"
   inkscape:connector-curvature="0"
   style="fill:#4a332c" />
      <path
   class="fil0"
   d="m 2049.01,5733.56 c 7.33,-4.88 8.46,-15.11 2.52,-22.85 -5.27,-6.87 -14.34,-9.47 -21.44,-6.55 5.54,0.09 11.25,2.82 15.02,7.73 5.94,7.74 4.81,17.97 -2.52,22.85 -0.82,0.55 -1.68,1 -2.58,1.37 3.19,0.05 6.33,-0.77 9.01,-2.56 z"
   id="path405"
   inkscape:connector-curvature="0"
   style="fill:#4a332c" />
      <path
   class="fil0"
   d="m 1807.45,5418.63 c 7.33,-4.88 8.46,-15.11 2.52,-22.85 -5.27,-6.87 -14.35,-9.47 -21.44,-6.55 5.54,0.09 11.25,2.82 15.02,7.73 5.94,7.74 4.81,17.97 -2.52,22.85 -0.82,0.55 -1.69,1 -2.58,1.37 3.19,0.05 6.33,-0.77 9.01,-2.55 z"
   id="path407"
   inkscape:connector-curvature="0"
   style="fill:#4a332c" />
      <path
   class="fil0"
   d="m 1565.89,5103.7 c 7.33,-4.88 8.46,-15.11 2.52,-22.85 -5.27,-6.87 -14.35,-9.47 -21.44,-6.55 5.54,0.09 11.25,2.82 15.02,7.73 5.94,7.74 4.81,17.98 -2.52,22.85 -0.82,0.55 -1.69,1 -2.58,1.37 3.19,0.06 6.33,-0.77 9,-2.55 z"
   id="path409"
   inkscape:connector-curvature="0"
   style="fill:#4a332c" />
      <path
   class="fil0"
   d="m 2839.77,6396.48 c 7.33,-4.88 8.46,-15.11 2.52,-22.85 -5.27,-6.88 -14.35,-9.47 -21.44,-6.55 5.54,0.09 11.25,2.82 15.02,7.73 5.94,7.74 4.81,17.97 -2.52,22.85 -0.82,0.55 -1.68,1 -2.58,1.37 3.19,0.05 6.33,-0.77 9.01,-2.55 z"
   id="path411"
   inkscape:connector-curvature="0"
   style="fill:#4a332c" />
      <path
   class="fil0"
   d="m 2598.2,6081.54 c 7.33,-4.88 8.46,-15.11 2.52,-22.85 -5.27,-6.87 -14.35,-9.47 -21.44,-6.55 5.54,0.09 11.25,2.81 15.02,7.73 5.94,7.74 4.81,17.97 -2.52,22.85 -0.82,0.55 -1.69,1 -2.58,1.37 3.19,0.06 6.33,-0.77 9,-2.55 z"
   id="path413"
   inkscape:connector-curvature="0"
   style="fill:#4a332c" />
      <path
   class="fil0"
   d="m 2356.65,5766.61 c 7.33,-4.88 8.46,-15.11 2.52,-22.85 -5.28,-6.87 -14.35,-9.47 -21.44,-6.55 5.54,0.09 11.25,2.82 15.02,7.73 5.94,7.74 4.81,17.98 -2.52,22.85 -0.82,0.55 -1.69,1 -2.58,1.37 3.19,0.06 6.33,-0.77 9,-2.55 z"
   id="path415"
   inkscape:connector-curvature="0"
   style="fill:#4a332c" />
      <path
   class="fil0"
   d="m 2115.09,5451.68 c 7.33,-4.88 8.46,-15.11 2.52,-22.85 -5.27,-6.88 -14.34,-9.47 -21.44,-6.55 5.54,0.09 11.25,2.82 15.02,7.73 5.94,7.74 4.81,17.97 -2.52,22.85 -0.82,0.55 -1.68,1 -2.58,1.37 3.19,0.05 6.33,-0.77 9.01,-2.55 z"
   id="path417"
   inkscape:connector-curvature="0"
   style="fill:#4a332c" />
      <path
   class="fil0"
   d="m 1873.53,5136.75 c 7.33,-4.88 8.46,-15.11 2.52,-22.85 -5.27,-6.87 -14.34,-9.47 -21.44,-6.55 5.54,0.09 11.25,2.82 15.02,7.73 5.94,7.74 4.81,17.98 -2.52,22.85 -0.82,0.55 -1.69,1 -2.58,1.37 3.19,0.06 6.33,-0.77 9.01,-2.55 z"
   id="path419"
   inkscape:connector-curvature="0"
   style="fill:#4a332c" />
      <path
   class="fil0"
   d="m 1631.96,4821.81 c 7.33,-4.88 8.46,-15.11 2.52,-22.85 -5.27,-6.87 -14.35,-9.47 -21.44,-6.55 5.54,0.09 11.25,2.82 15.02,7.73 5.94,7.74 4.81,17.97 -2.52,22.85 -0.82,0.55 -1.69,1 -2.58,1.37 3.19,0.05 6.33,-0.77 9,-2.56 z"
   id="path421"
   inkscape:connector-curvature="0"
   style="fill:#4a332c" />
      <path
   class="fil0"
   d="m 3147.4,6429.52 c 7.33,-4.88 8.46,-15.11 2.52,-22.85 -5.27,-6.87 -14.34,-9.47 -21.44,-6.55 5.54,0.09 11.25,2.82 15.02,7.73 5.94,7.74 4.81,17.97 -2.52,22.85 -0.82,0.54 -1.68,1 -2.58,1.37 3.19,0.05 6.33,-0.77 9.01,-2.56 z"
   id="path423"
   inkscape:connector-curvature="0"
   style="fill:#4a332c" />
      <path
   class="fil0"
   d="m 2905.84,6114.59 c 7.33,-4.88 8.46,-15.11 2.52,-22.85 -5.27,-6.87 -14.35,-9.47 -21.44,-6.55 5.54,0.09 11.25,2.81 15.02,7.73 5.94,7.74 4.81,17.97 -2.52,22.85 -0.82,0.55 -1.69,1 -2.58,1.37 3.19,0.05 6.33,-0.77 9,-2.55 z"
   id="path425"
   inkscape:connector-curvature="0"
   style="fill:#4a332c" />
      <path
   class="fil0"
   d="m 2664.28,5799.66 c 7.33,-4.88 8.46,-15.11 2.52,-22.85 -5.27,-6.87 -14.35,-9.47 -21.44,-6.55 5.54,0.09 11.25,2.82 15.02,7.73 5.94,7.74 4.81,17.98 -2.52,22.85 -0.82,0.55 -1.69,1 -2.58,1.37 3.19,0.06 6.33,-0.77 9,-2.55 z"
   id="path427"
   inkscape:connector-curvature="0"
   style="fill:#4a332c" />
      <path
   class="fil0"
   d="m 2422.72,5484.73 c 7.33,-4.88 8.46,-15.11 2.52,-22.85 -5.28,-6.87 -14.35,-9.47 -21.44,-6.55 5.54,0.09 11.25,2.82 15.02,7.73 5.94,7.74 4.81,17.97 -2.52,22.85 -0.82,0.54 -1.68,1 -2.57,1.37 3.19,0.05 6.33,-0.77 9,-2.55 z"
   id="path429"
   inkscape:connector-curvature="0"
   style="fill:#4a332c" />
      <path
   class="fil0"
   d="m 2181.16,5169.8 c 7.33,-4.88 8.46,-15.11 2.52,-22.85 -5.27,-6.87 -14.34,-9.47 -21.44,-6.55 5.54,0.09 11.25,2.82 15.02,7.73 5.94,7.74 4.81,17.97 -2.52,22.85 -0.82,0.55 -1.69,1 -2.58,1.37 3.19,0.05 6.33,-0.77 9.01,-2.55 z"
   id="path431"
   inkscape:connector-curvature="0"
   style="fill:#4a332c" />
      <path
   class="fil0"
   d="m 1939.6,4854.87 c 7.33,-4.88 8.46,-15.11 2.52,-22.85 -5.27,-6.87 -14.35,-9.47 -21.44,-6.55 5.54,0.09 11.25,2.82 15.02,7.73 5.94,7.74 4.81,17.98 -2.52,22.85 -0.82,0.55 -1.69,1 -2.58,1.37 3.19,0.06 6.33,-0.77 9,-2.55 z"
   id="path433"
   inkscape:connector-curvature="0"
   style="fill:#4a332c" />
     </g>
     <g
   id="g485">
      <path
   class="fil73"
   d="m 2459.72,6615.9 c -5.09,-1.89 -10.75,-1.56 -15.16,1.37 -7.33,4.88 -8.46,15.11 -2.52,22.85 3.91,5.09 9.9,7.84 15.63,7.73 -3.37,-1.25 -6.5,-3.47 -8.86,-6.56 -5.94,-7.74 -4.81,-17.97 2.52,-22.85 2.51,-1.67 5.41,-2.5 8.39,-2.55 z"
   id="path437"
   inkscape:connector-curvature="0"
   style="fill:#84716b" />
      <path
   class="fil73"
   d="m 2218.16,6300.96 c -5.09,-1.89 -10.75,-1.56 -15.16,1.37 -7.33,4.88 -8.46,15.11 -2.52,22.85 3.91,5.09 9.9,7.84 15.63,7.73 -3.37,-1.25 -6.5,-3.47 -8.86,-6.55 -5.94,-7.74 -4.81,-17.98 2.52,-22.85 2.5,-1.67 5.41,-2.5 8.39,-2.56 z"
   id="path439"
   inkscape:connector-curvature="0"
   style="fill:#84716b" />
      <path
   class="fil73"
   d="m 1976.6,5986.04 c -5.1,-1.89 -10.75,-1.57 -15.16,1.37 -7.33,4.88 -8.46,15.11 -2.52,22.85 3.91,5.09 9.9,7.84 15.63,7.73 -3.37,-1.25 -6.5,-3.47 -8.86,-6.55 -5.94,-7.74 -4.81,-17.97 2.52,-22.85 2.51,-1.67 5.41,-2.5 8.39,-2.55 z"
   id="path441"
   inkscape:connector-curvature="0"
   style="fill:#84716b" />
      <path
   class="fil73"
   d="m 1735.04,5671.1 c -5.1,-1.89 -10.75,-1.56 -15.17,1.37 -7.33,4.88 -8.46,15.11 -2.52,22.85 3.91,5.09 9.9,7.84 15.63,7.73 -3.37,-1.25 -6.5,-3.47 -8.86,-6.56 -5.94,-7.74 -4.81,-17.97 2.52,-22.85 2.51,-1.67 5.41,-2.5 8.39,-2.55 z"
   id="path443"
   inkscape:connector-curvature="0"
   style="fill:#84716b" />
      <path
   class="fil73"
   d="m 1493.48,5356.17 c -5.09,-1.89 -10.75,-1.57 -15.16,1.37 -7.33,4.88 -8.46,15.11 -2.52,22.85 3.91,5.09 9.9,7.84 15.63,7.73 -3.37,-1.25 -6.5,-3.47 -8.86,-6.55 -5.94,-7.74 -4.81,-17.98 2.52,-22.85 2.5,-1.67 5.41,-2.5 8.39,-2.55 z"
   id="path445"
   inkscape:connector-curvature="0"
   style="fill:#84716b" />
      <path
   class="fil73"
   d="m 1251.92,5041.24 c -5.1,-1.89 -10.75,-1.56 -15.16,1.37 -7.33,4.88 -8.46,15.11 -2.52,22.85 3.91,5.09 9.9,7.84 15.63,7.73 -3.37,-1.25 -6.5,-3.47 -8.86,-6.55 -5.94,-7.74 -4.81,-17.97 2.52,-22.85 2.51,-1.67 5.42,-2.5 8.39,-2.55 z"
   id="path447"
   inkscape:connector-curvature="0"
   style="fill:#84716b" />
      <path
   class="fil73"
   d="m 2767.35,6648.95 c -5.1,-1.89 -10.75,-1.56 -15.17,1.37 -7.33,4.88 -8.46,15.11 -2.52,22.85 3.91,5.09 9.9,7.84 15.63,7.73 -3.37,-1.25 -6.5,-3.47 -8.86,-6.55 -5.94,-7.74 -4.81,-17.97 2.52,-22.85 2.51,-1.67 5.41,-2.5 8.39,-2.55 z"
   id="path449"
   inkscape:connector-curvature="0"
   style="fill:#84716b" />
      <path
   class="fil73"
   d="m 2525.79,6334.02 c -5.09,-1.89 -10.75,-1.56 -15.16,1.37 -7.33,4.88 -8.46,15.11 -2.52,22.85 3.91,5.09 9.9,7.84 15.63,7.73 -3.37,-1.25 -6.5,-3.47 -8.86,-6.56 -5.94,-7.74 -4.81,-17.97 2.52,-22.85 2.5,-1.67 5.41,-2.49 8.39,-2.55 z"
   id="path451"
   inkscape:connector-curvature="0"
   style="fill:#84716b" />
      <path
   class="fil73"
   d="m 2284.23,6019.09 c -5.1,-1.89 -10.75,-1.57 -15.16,1.37 -7.33,4.88 -8.46,15.11 -2.52,22.85 3.91,5.09 9.9,7.84 15.63,7.73 -3.37,-1.25 -6.5,-3.47 -8.86,-6.55 -5.94,-7.74 -4.81,-17.97 2.52,-22.85 2.51,-1.67 5.42,-2.5 8.39,-2.55 z"
   id="path453"
   inkscape:connector-curvature="0"
   style="fill:#84716b" />
      <path
   class="fil73"
   d="m 2042.67,5704.15 c -5.1,-1.89 -10.75,-1.56 -15.17,1.37 -7.33,4.88 -8.46,15.11 -2.52,22.85 3.91,5.09 9.9,7.84 15.63,7.73 -3.37,-1.25 -6.5,-3.47 -8.86,-6.56 -5.94,-7.74 -4.81,-17.97 2.52,-22.85 2.51,-1.67 5.41,-2.5 8.39,-2.55 z"
   id="path455"
   inkscape:connector-curvature="0"
   style="fill:#84716b" />
      <path
   class="fil73"
   d="m 1801.11,5389.22 c -5.1,-1.89 -10.75,-1.56 -15.17,1.37 -7.33,4.88 -8.46,15.11 -2.52,22.85 3.91,5.09 9.9,7.84 15.63,7.73 -3.37,-1.25 -6.5,-3.47 -8.86,-6.56 -5.94,-7.74 -4.81,-17.97 2.52,-22.85 2.51,-1.67 5.41,-2.5 8.39,-2.56 z"
   id="path457"
   inkscape:connector-curvature="0"
   style="fill:#84716b" />
      <path
   class="fil73"
   d="m 1559.55,5074.29 c -5.09,-1.89 -10.75,-1.57 -15.16,1.37 -7.33,4.88 -8.46,15.11 -2.52,22.85 3.91,5.09 9.9,7.84 15.63,7.73 -3.37,-1.25 -6.5,-3.47 -8.86,-6.55 -5.94,-7.74 -4.81,-17.97 2.52,-22.85 2.5,-1.67 5.41,-2.5 8.39,-2.55 z"
   id="path459"
   inkscape:connector-curvature="0"
   style="fill:#84716b" />
      <path
   class="fil73"
   d="m 2833.43,6367.07 c -5.1,-1.89 -10.75,-1.56 -15.17,1.37 -7.33,4.88 -8.46,15.11 -2.52,22.85 3.91,5.09 9.9,7.84 15.63,7.73 -3.37,-1.25 -6.5,-3.47 -8.86,-6.56 -5.94,-7.74 -4.81,-17.97 2.52,-22.85 2.51,-1.67 5.41,-2.49 8.39,-2.55 z"
   id="path461"
   inkscape:connector-curvature="0"
   style="fill:#84716b" />
      <path
   class="fil73"
   d="m 2591.87,6052.14 c -5.09,-1.89 -10.75,-1.57 -15.16,1.37 -7.33,4.88 -8.46,15.11 -2.52,22.85 3.91,5.09 9.9,7.84 15.63,7.73 -3.37,-1.25 -6.5,-3.47 -8.86,-6.55 -5.94,-7.74 -4.81,-17.97 2.52,-22.85 2.5,-1.67 5.41,-2.5 8.39,-2.55 z"
   id="path463"
   inkscape:connector-curvature="0"
   style="fill:#84716b" />
      <path
   class="fil73"
   d="m 2350.31,5737.2 c -5.1,-1.89 -10.75,-1.56 -15.16,1.37 -7.33,4.88 -8.46,15.11 -2.52,22.85 3.91,5.09 9.9,7.84 15.63,7.73 -3.37,-1.25 -6.5,-3.47 -8.86,-6.55 -5.94,-7.74 -4.81,-17.97 2.52,-22.85 2.51,-1.67 5.41,-2.5 8.39,-2.55 z"
   id="path465"
   inkscape:connector-curvature="0"
   style="fill:#84716b" />
      <path
   class="fil73"
   d="m 2108.75,5422.27 c -5.1,-1.89 -10.75,-1.56 -15.17,1.37 -7.33,4.88 -8.46,15.11 -2.52,22.85 3.91,5.09 9.9,7.84 15.63,7.73 -3.37,-1.25 -6.5,-3.47 -8.86,-6.56 -5.94,-7.74 -4.81,-17.97 2.52,-22.85 2.51,-1.67 5.41,-2.49 8.39,-2.55 z"
   id="path467"
   inkscape:connector-curvature="0"
   style="fill:#84716b" />
      <path
   class="fil73"
   d="m 1867.19,5107.34 c -5.1,-1.89 -10.75,-1.57 -15.17,1.37 -7.33,4.88 -8.46,15.11 -2.52,22.85 3.91,5.09 9.9,7.84 15.63,7.73 -3.37,-1.25 -6.5,-3.47 -8.86,-6.55 -5.94,-7.74 -4.81,-17.97 2.52,-22.85 2.5,-1.67 5.41,-2.5 8.39,-2.55 z"
   id="path469"
   inkscape:connector-curvature="0"
   style="fill:#84716b" />
      <path
   class="fil73"
   d="m 1625.63,4792.41 c -5.09,-1.89 -10.75,-1.56 -15.16,1.37 -7.33,4.88 -8.46,15.11 -2.52,22.85 3.91,5.09 9.9,7.84 15.63,7.73 -3.37,-1.25 -6.5,-3.47 -8.86,-6.56 -5.94,-7.74 -4.81,-17.97 2.52,-22.85 2.51,-1.67 5.42,-2.5 8.39,-2.55 z"
   id="path471"
   inkscape:connector-curvature="0"
   style="fill:#84716b" />
      <path
   class="fil73"
   d="m 3141.06,6400.12 c -5.1,-1.89 -10.75,-1.56 -15.17,1.37 -7.33,4.88 -8.46,15.11 -2.52,22.85 3.91,5.09 9.9,7.84 15.63,7.73 -3.37,-1.25 -6.5,-3.47 -8.86,-6.56 -5.94,-7.74 -4.81,-17.97 2.52,-22.85 2.51,-1.67 5.41,-2.5 8.39,-2.55 z"
   id="path473"
   inkscape:connector-curvature="0"
   style="fill:#84716b" />
      <path
   class="fil73"
   d="m 2899.5,6085.19 c -5.09,-1.89 -10.75,-1.56 -15.16,1.38 -7.33,4.88 -8.46,15.11 -2.52,22.85 3.91,5.09 9.9,7.84 15.63,7.73 -3.37,-1.25 -6.5,-3.47 -8.86,-6.55 -5.94,-7.74 -4.81,-17.98 2.52,-22.85 2.5,-1.67 5.41,-2.5 8.39,-2.56 z"
   id="path475"
   inkscape:connector-curvature="0"
   style="fill:#84716b" />
      <path
   class="fil73"
   d="m 2657.94,5770.26 c -5.09,-1.89 -10.75,-1.56 -15.16,1.37 -7.33,4.88 -8.46,15.11 -2.52,22.85 3.91,5.09 9.9,7.84 15.63,7.73 -3.37,-1.25 -6.5,-3.47 -8.86,-6.55 -5.94,-7.74 -4.81,-17.97 2.52,-22.85 2.51,-1.67 5.42,-2.5 8.39,-2.55 z"
   id="path477"
   inkscape:connector-curvature="0"
   style="fill:#84716b" />
      <path
   class="fil73"
   d="m 2416.38,5455.32 c -5.1,-1.89 -10.75,-1.56 -15.17,1.37 -7.33,4.88 -8.46,15.11 -2.52,22.85 3.91,5.09 9.9,7.84 15.63,7.73 -3.37,-1.25 -6.5,-3.47 -8.86,-6.56 -5.94,-7.74 -4.81,-17.97 2.52,-22.85 2.51,-1.67 5.41,-2.5 8.39,-2.55 z"
   id="path479"
   inkscape:connector-curvature="0"
   style="fill:#84716b" />
      <path
   class="fil73"
   d="m 2174.82,5140.39 c -5.1,-1.89 -10.75,-1.56 -15.17,1.38 -7.33,4.88 -8.46,15.11 -2.52,22.85 3.91,5.09 9.9,7.84 15.63,7.73 -3.37,-1.25 -6.5,-3.47 -8.86,-6.55 -5.94,-7.74 -4.81,-17.98 2.52,-22.85 2.51,-1.67 5.41,-2.5 8.39,-2.56 z"
   id="path481"
   inkscape:connector-curvature="0"
   style="fill:#84716b" />
      <path
   class="fil73"
   d="m 1933.26,4825.46 c -5.09,-1.89 -10.75,-1.56 -15.16,1.37 -7.33,4.88 -8.46,15.11 -2.52,22.85 3.91,5.09 9.9,7.84 15.63,7.73 -3.37,-1.25 -6.5,-3.47 -8.86,-6.55 -5.94,-7.74 -4.81,-17.97 2.52,-22.85 2.5,-1.67 5.41,-2.5 8.39,-2.55 z"
   id="path483"
   inkscape:connector-curvature="0"
   style="fill:#84716b" />
     </g>
    </g>
   </g>
</svg>