<?xml version="1.0" encoding="UTF-8" standalone="no"?>
<!-- Creator: CorelDRAW 2019 (64-Bit) -->

<svg
   xmlns:dc="http://purl.org/dc/elements/1.1/"
   xmlns:cc="http://creativecommons.org/ns#"
   xmlns:rdf="http://www.w3.org/1999/02/22-rdf-syntax-ns#"
   xmlns:svg="http://www.w3.org/2000/svg"
   xmlns="http://www.w3.org/2000/svg"
   xmlns:sodipodi="http://sodipodi.sourceforge.net/DTD/sodipodi-0.dtd"
   xmlns:inkscape="http://www.inkscape.org/namespaces/inkscape"
   xml:space="preserve"
   width="256"
   height="256"
   version="1.1"
   style="clip-rule:evenodd;fill-rule:evenodd;image-rendering:optimizeQuality;shape-rendering:geometricPrecision;text-rendering:geometricPrecision"
   viewBox="0 0 2666.6667 2666.6667"
   id="svg824"
   sodipodi:docname="ice_cream_bar_02.svg"
   inkscape:version="0.92.4 (5da689c313, 2019-01-14)"><title
   id="title1635">Ice Cream Bar</title><metadata
   id="metadata828"><rdf:RDF><cc:Work
       rdf:about=""><dc:format>image/svg+xml</dc:format><dc:type
         rdf:resource="http://purl.org/dc/dcmitype/StillImage" /><dc:title>Ice Cream Bar</dc:title><cc:license
         rdf:resource="http://creativecommons.org/publicdomain/zero/1.0/" /><dc:source>https://openclipart.org/detail/318127</dc:source><dc:creator><cc:Agent><dc:title>LeAnncifer</dc:title></cc:Agent></dc:creator></cc:Work><cc:License
       rdf:about="http://creativecommons.org/publicdomain/zero/1.0/"><cc:permits
         rdf:resource="http://creativecommons.org/ns#Reproduction" /><cc:permits
         rdf:resource="http://creativecommons.org/ns#Distribution" /><cc:permits
         rdf:resource="http://creativecommons.org/ns#DerivativeWorks" /></cc:License></rdf:RDF></metadata><sodipodi:namedview
   pagecolor="#ffffff"
   bordercolor="#666666"
   borderopacity="1"
   objecttolerance="10"
   gridtolerance="10"
   guidetolerance="10"
   inkscape:pageopacity="0"
   inkscape:pageshadow="2"
   inkscape:window-width="1920"
   inkscape:window-height="1025"
   id="namedview826"
   showgrid="false"
   inkscape:zoom="0.63211061"
   inkscape:cx="-158.95136"
   inkscape:cy="263.37581"
   inkscape:window-x="-8"
   inkscape:window-y="-8"
   inkscape:window-maximized="1"
   inkscape:current-layer="svg824"
   units="px"
   fit-margin-top="0"
   fit-margin-left="0"
   fit-margin-right="0"
   fit-margin-bottom="0"
   inkscape:pagecheckerboard="true" />
 <defs
   id="defs20"><style
     type="text/css"
     id="style2">
   <![CDATA[
    .str0 {stroke:#373435;stroke-width:6.94;stroke-miterlimit:2.61313}
    .fil99 {fill:none}
    .fil27 {fill:#0098DA}
    .fil0 {fill:#4A332C}
    .fil5 {fill:#4B342C}
    .fil6 {fill:#4C352D}
    .fil7 {fill:#4D352D}
    .fil8 {fill:#4E352D}
    .fil54 {fill:#4E362E}
    .fil9 {fill:#4F362E}
    .fil55 {fill:#4F372F}
    .fil10 {fill:#50372F}
    .fil56 {fill:#503830}
    .fil11 {fill:#51372F}
    .fil57 {fill:#513931}
    .fil12 {fill:#52372F}
    .fil13 {fill:#533830}
    .fil58 {fill:#533A32}
    .fil14 {fill:#543930}
    .fil59 {fill:#543B33}
    .fil15 {fill:#563931}
    .fil16 {fill:#563A31}
    .fil60 {fill:#563C33}
    .fil17 {fill:#573A32}
    .fil61 {fill:#573D34}
    .fil18 {fill:#583B32}
    .fil62 {fill:#583E35}
    .fil19 {fill:#593B32}
    .fil63 {fill:#594037}
    .fil20 {fill:#5A3C33}
    .fil21 {fill:#5B3C33}
    .fil64 {fill:#5B4137}
    .fil22 {fill:#5C3D33}
    .fil65 {fill:#5C4238}
    .fil66 {fill:#5E433A}
    .fil67 {fill:#5F443B}
    .fil68 {fill:#61453C}
    .fil69 {fill:#62473D}
    .fil70 {fill:#63483E}
    .fil71 {fill:#65493F}
    .fil72 {fill:#664A40}
    .fil73 {fill:#84716B}
    .fil24 {fill:#91D8F7}
    .fil32 {fill:#A8518A}
    .fil33 {fill:#AB5085}
    .fil34 {fill:#AF4F82}
    .fil35 {fill:#B14F7E}
    .fil2 {fill:#B3A488}
    .fil36 {fill:#B54D7A}
    .fil37 {fill:#B74D76}
    .fil38 {fill:#BB4B72}
    .fil39 {fill:#BD4A6E}
    .fil40 {fill:#C0496A}
    .fil41 {fill:#C34866}
    .fil42 {fill:#C64762}
    .fil43 {fill:#CA455E}
    .fil44 {fill:#CD445B}
    .fil45 {fill:#D14257}
    .fil74 {fill:#D2D3D5}
    .fil46 {fill:#D34153}
    .fil47 {fill:#D6404E}
    .fil48 {fill:#DA3D4A}
    .fil49 {fill:#DC3B46}
    .fil50 {fill:#E03941}
    .fil51 {fill:#E3373D}
    .fil75 {fill:#E6E7E8}
    .fil52 {fill:#E9343A}
    .fil25 {fill:#ED3237}
    .fil4 {fill:#F2F0C9}
    .fil76 {fill:#F58634}
    .fil77 {fill:#F58937}
    .fil80 {fill:#F58F42}
    .fil81 {fill:#F59246}
    .fil82 {fill:#F5954B}
    .fil78 {fill:#F68B3A}
    .fil79 {fill:#F68D3E}
    .fil83 {fill:#F6974F}
    .fil84 {fill:#F69A54}
    .fil85 {fill:#F69C59}
    .fil86 {fill:#F69F5E}
    .fil87 {fill:#F6A163}
    .fil88 {fill:#F6A368}
    .fil89 {fill:#F6A66C}
    .fil90 {fill:#F6A971}
    .fil91 {fill:#F6AC75}
    .fil94 {fill:#F6B484}
    .fil95 {fill:#F6B788}
    .fil31 {fill:#F7ADAF}
    .fil92 {fill:#F7AF7A}
    .fil93 {fill:#F7B27F}
    .fil96 {fill:#F7B98D}
    .fil97 {fill:#F7BC93}
    .fil1 {fill:#FEFEFE}
    .fil23 {fill:#4A332C;fill-rule:nonzero}
    .fil53 {fill:#ED3237;fill-rule:nonzero}
    .fil3 {fill:#F2F0C9;fill-rule:nonzero}
    .fil28 {fill:#727376;fill-opacity:0.368627}
    .fil29 {fill:#848688;fill-opacity:0.368627}
    .fil30 {fill:#FEFEFE;fill-opacity:0.368627}
    .fil26 {fill:#606062;fill-opacity:0.501961}
    .fil98 {fill:url(#id3)}
   ]]>
  </style><mask
     id="id1">
  <linearGradient
   id="id2"
   gradientUnits="userSpaceOnUse"
   x1="2126.99"
   y1="3014.96"
   x2="1872.02"
   y2="2274.05">
   <stop
   offset="0"
   style="stop-opacity:1; stop-color:white"
   id="stop7" />
   <stop
   offset="1"
   style="stop-opacity:0; stop-color:white"
   id="stop9" />
  </linearGradient>
         <rect
   style="fill:url(#id2)"
   x="1225.3101"
   y="1848.5"
   width="1631.38"
   height="1585.4301"
   id="rect12" />
        </mask></defs>
 <g
   id="g85"
   transform="matrix(0.83305456,0,0,0.83305456,-3262.7011,-3955.4056)">
    <g
   id="g79">
     <path
   class="fil0"
   d="m 6410.33,5452.63 16.66,29.76 c 3.04,0.56 6.18,0.91 9.38,1.05 3.97,0.18 7.97,0 11.93,-0.52 l 13.3,-1.74 40.11,71.64 c 5.35,3.4 10.87,5.94 16.42,7.66 5.94,1.83 12.06,2.81 18.18,2.98 6.13,0.17 12.33,-0.54 18.43,-2.06 6.11,-1.53 11.9,-3.81 17.18,-6.82 5.66,-3.34 11.51,-6.54 17.23,-9.79 l 16.37,29.23 c 0.53,0.76 0.96,1.38 1.31,1.83 0.46,0.62 1.15,1.47 2.05,2.56 l 0.15,0.18 2.04,2.93 96.11,171.68 -3.3,8.58 c -4.42,11.55 -9.14,22.89 -14.16,34 -4.98,11.02 -10.36,22.02 -16.13,33.02 -5.69,10.82 -11.72,21.53 -18.1,32.09 -6.17,10.22 -12.83,20.54 -19.99,30.96 L 5550.04,7471.5 c -10.72,15.61 -24.07,28.35 -39.03,38.04 -15.56,10.07 -32.9,16.89 -50.89,20.22 -17.88,3.31 -36.47,3.16 -54.64,-0.67 -17.46,-3.68 -34.46,-10.77 -49.99,-21.44 L 4554.2,6957.04 c -9.06,-6.22 -17.09,-13.25 -24.07,-20.9 -7.2,-7.89 -13.41,-16.57 -18.61,-25.85 -30.71,-54.85 -60.96,-111.89 -92.83,-165.84 -3.41,-6.33 -6.34,-13.01 -8.79,-19.96 -2.46,-6.99 -4.36,-14.08 -5.68,-21.19 -3.31,-17.88 -3.16,-36.47 0.67,-54.64 3.69,-17.46 10.77,-34.46 21.44,-49.99 L 5511.79,5019.02 c 47.85,-69.63 107.5,-126.54 174.46,-169.9 69.61,-45.07 147.15,-75.53 227.58,-90.44 80.32,-14.89 163.59,-14.25 244.76,2.87 78.08,16.47 154.14,48.19 223.7,95.98 4.28,2.94 8.95,6.26 14.01,9.95 5.86,4.28 10.46,7.7 13.81,10.28 4.13,3.19 8.63,6.78 13.48,10.74 4.32,3.53 8.75,7.26 13.28,11.17 l 0.41,0.36 4.25,5.21 100.7,179.88 -16.15,9.91 c -2.42,1.49 -4.52,2.92 -6.27,4.29 -1.61,1.25 -3.49,2.94 -5.65,5.06 -1.99,1.96 -3.71,3.81 -5.13,5.56 -1.39,1.72 -2.88,3.8 -4.46,6.24 -2.49,3.88 -4.54,7.91 -6.16,12.03 -1.68,4.27 -2.89,8.61 -3.66,12.96 -0.79,4.48 -1.13,8.97 -1.02,13.41 0.11,4.65 0.65,9.14 1.62,13.41 l 4.74,20.99 -21.38,2.71 c -4.93,0.63 -9.79,1.8 -14.47,3.48 -4.53,1.63 -8.99,3.8 -13.28,6.52 -4.27,2.69 -8.16,5.74 -11.57,9.13 -3.28,3.25 -6.39,7.11 -9.26,11.59 -2.94,4.58 -5.24,9.2 -6.89,13.8 -1.76,4.87 -2.93,9.88 -3.53,14.94 -0.6,5.04 -0.62,10.18 -0.06,15.31 0.55,5.13 1.69,10.19 3.38,15.08 l 4.94,14.27 -12.53,8.43 -0.03,-0.04 c -1.87,1.27 -3.69,2.64 -5.45,4.11 -1.8,1.5 -3.48,3.05 -5.04,4.64 -1.5,1.53 -3.01,3.26 -4.53,5.17 -1.22,1.53 -2.55,3.41 -3.98,5.65 -4.4,6.84 -7.42,14.05 -9.12,21.31 -1.49,6.35 -2.01,12.91 -1.61,19.47 l 36.52,65.24 -5.87,9.82 c -1.92,3.21 -3.5,6.4 -4.75,9.55 -0.46,1.15 -0.89,2.32 -1.28,3.5 z"
   id="path23"
   inkscape:connector-curvature="0"
   style="fill:#4a332c" />
     <path
   class="fil0"
   d="m 6407.07,5892.37 -408.26,594.14 -556.66,810.1 c -37.48,54.54 -112.77,68.5 -167.31,31.02 l -801.29,-550.6 c -54.54,-37.48 -68.5,-112.77 -31.03,-167.31 l 556.66,-810.1 408.26,-594.13 120.54,-175.42 c 188.9,-274.9 568.36,-345.26 843.26,-156.37 v 0 c 18.57,12.76 36.17,26.41 52.85,40.82 -10.84,6.67 -20.39,15.81 -27.74,27.23 -13.23,20.57 -16.77,44.58 -11.79,66.69 -24.8,3.17 -48.08,16.87 -62.66,39.54 -15.14,23.54 -17.59,51.59 -9.1,76.14 -9.55,6.45 -17.98,14.9 -24.61,25.21 -24.7,38.39 -15.63,88.81 19.62,116.4 -24.07,40.4 -11.95,92.92 27.91,118.56 6.03,3.88 12.35,6.92 18.83,9.16 -9.24,35.65 4.8,74.71 37.46,95.72 18.14,11.67 38.97,15.8 58.81,13.19 2.11,26.33 16.04,51.41 39.96,66.8 28.41,18.27 63.4,18.06 90.85,2.44 3.16,6.89 7.24,13.41 12.18,19.36 -16.69,43.62 -38.68,85.94 -66.22,126.02 l -120.54,175.42 z"
   id="path25"
   inkscape:connector-curvature="0"
   style="fill:#4a332c" />
     <path
   class="fil1"
   d="m 6397.98,5469.86 -8.24,-14.73 c 1.97,-8.74 5.33,-17.31 10.14,-25.39 l 0.18,-0.3 -23.93,-42.74 -2.99,11.52 c -3.66,14.12 -2.65,28.94 2.57,42.26 4.43,11.31 11.94,21.56 22.27,29.38 h -0.01 z m -26.13,-90.8 -4.93,-8.81 c -2.17,-19.25 2.03,-39.33 13.33,-56.89 3.26,-5.07 6.95,-9.68 10.99,-13.82 4.16,-4.26 8.69,-8.02 13.51,-11.28 l 0.25,-0.17 -0.1,-0.29 c -4.31,-12.45 -5.79,-25.8 -4.21,-39.01 1.52,-12.71 5.87,-25.29 13.27,-36.78 7.12,-11.07 16.32,-19.99 26.76,-26.57 10.85,-6.84 23.04,-11.17 35.61,-12.78 l 0.44,-0.06 -0.1,-0.43 c -2.52,-11.21 -2.85,-22.92 -0.81,-34.41 1.96,-11.06 6.09,-21.93 12.55,-31.97 3.6,-5.6 7.74,-10.66 12.3,-15.13 4.69,-4.61 9.84,-8.61 15.31,-11.98 l 0.47,-0.28 -82.52,-147.4 c -4.15,2.57 -8.1,5.67 -11.77,9.27 -3.56,3.49 -6.8,7.46 -9.64,11.87 -5.09,7.91 -8.34,16.45 -9.88,25.13 -1.61,9.08 -1.37,18.26 0.6,26.98 l 4.63,20.54 -20.93,2.67 c -9.82,1.26 -19.37,4.66 -27.92,10.05 -8.15,5.14 -15.35,12.13 -20.95,20.85 -5.85,9.1 -9.29,18.98 -10.48,28.91 -1.23,10.29 -0.06,20.76 3.34,30.57 l 4.81,13.91 -12.22,8.26 c -3.81,2.57 -7.37,5.52 -10.59,8.83 -3.02,3.09 -5.89,6.71 -8.56,10.87 -9.63,14.98 -12.72,32.22 -10,48.38 2.76,16.38 11.43,31.7 25.24,42.51 l 13.34,10.44 -8.66,14.53 c -9.43,15.82 -11.75,34.01 -7.81,50.74 3.91,16.59 14.05,31.78 29.61,41.79 2.6,1.67 5,3.04 7.18,4.1 2.23,1.08 4.74,2.11 7.51,3.06 l 11.04,3.81 -0.01,-0.02 z"
   id="path27"
   inkscape:connector-curvature="0"
   style="fill:#fefefe" />
     <path
   class="fil2"
   d="m 4375.39,7699.96 306.63,-444.32 115.85,-168.59 c 3.96,-5.77 9.93,-9.39 16.33,-10.58 6.41,-1.19 13.28,0.06 19.04,4.02 L 5000,7195.08 c 5.05,3.47 8.45,8.47 10.02,13.96 0.01,0.04 0.02,0.09 0.04,0.13 0.02,0.09 0.05,0.18 0.07,0.26 l 3.56,13.27 c 0.17,0.65 0.32,1.31 0.44,1.98 1.19,6.41 -0.05,13.27 -4.02,19.04 l -115.85,168.59 -306.63,444.33 -25.08,36.5 c -19.72,28.7 -49.39,46.72 -81.3,52.63 -31.91,5.92 -66.06,-0.27 -94.76,-19.99 -25.72,-17.67 -42.86,-43.34 -50.41,-71.44 l -3.56,-13.27 c -0.87,-3.26 -1.62,-6.54 -2.23,-9.85 -5.91,-31.91 0.27,-66.06 19.99,-94.76 l 25.09,-36.51 z"
   id="path29"
   inkscape:connector-curvature="0"
   style="fill:#b3a488" />
     <path
   class="fil3"
   d="m 4374.41,7699.28 306.63,-444.32 115.85,-168.59 c 2.04,-2.96 4.58,-5.39 7.43,-7.24 2.96,-1.92 6.26,-3.21 9.69,-3.85 3.41,-0.63 6.96,-0.6 10.41,0.13 3.32,0.7 6.56,2.05 9.52,4.08 l 166.76,114.59 c 2.6,1.79 4.78,3.96 6.52,6.38 1.81,2.52 3.14,5.31 3.98,8.25 0.75,1.27 3.07,11.44 3.68,13.69 0.09,0.35 0.18,0.69 0.25,1.03 0.1,0.42 0.17,0.77 0.22,1.04 0.63,3.42 0.6,6.96 -0.13,10.42 -0.7,3.32 -2.05,6.56 -4.08,9.52 -140.54,204.52 -281.54,408.69 -422.48,612.93 l -25.09,36.5 c -9.76,14.21 -21.94,25.82 -35.61,34.68 -14.21,9.2 -30.04,15.42 -46.46,18.46 -16.41,3.04 -33.42,2.91 -49.98,-0.58 -15.94,-3.36 -31.46,-9.84 -45.67,-19.6 -12.74,-8.76 -23.4,-19.45 -31.84,-31.42 -8.77,-12.43 -15.16,-26.25 -19.04,-40.71 l -3.56,-13.27 c -0.44,-1.65 -0.85,-3.3 -1.22,-4.94 -0.39,-1.7 -0.73,-3.37 -1.03,-5 -3.04,-16.41 -2.91,-33.42 0.58,-49.98 3.36,-15.94 9.84,-31.47 19.6,-45.67 l 25.09,-36.52 -0.02,-0.02 z m 308.6,-442.96 -306.62,444.32 -25.09,36.5 c -9.57,13.94 -15.93,29.18 -19.23,44.81 -3.43,16.25 -3.56,32.94 -0.57,49.05 0.31,1.69 0.65,3.32 1,4.91 0.37,1.63 0.77,3.25 1.2,4.85 l 3.56,13.28 c 3.8,14.17 10.08,27.73 18.69,39.93 8.29,11.75 18.74,22.24 31.24,30.83 13.94,9.57 29.18,15.93 44.81,19.23 16.25,3.43 32.94,3.56 49.05,0.57 16.11,-2.98 31.64,-9.09 45.58,-18.11 13.42,-8.69 25.36,-20.08 34.94,-34.02 110.28,-160.48 221.12,-320.57 331.71,-480.83 l 115.85,-168.59 c 1.85,-2.7 3.08,-5.64 3.72,-8.66 0.66,-3.14 0.69,-6.37 0.11,-9.48 -0.08,-0.4 -0.14,-0.72 -0.2,-0.95 -0.07,-0.32 -0.15,-0.63 -0.23,-0.94 l -3.56,-13.26 -0.11,-0.39 c -0.76,-2.66 -1.97,-5.2 -3.62,-7.5 -1.58,-2.21 -3.56,-4.18 -5.92,-5.8 l -166.76,-114.59 c -2.69,-1.85 -5.64,-3.08 -8.66,-3.72 -3.14,-0.66 -6.37,-0.69 -9.48,-0.11 -3.11,0.57 -6.11,1.76 -8.81,3.5 -2.59,1.68 -4.9,3.88 -6.75,6.57 z"
   id="path31"
   inkscape:connector-curvature="0"
   style="fill:#f2f0c9;fill-rule:nonzero" />
     <path
   class="fil4"
   d="m 4375.72,7700.19 306.63,-444.32 115.85,-168.59 c 7.8,-11.35 23.47,-14.26 34.82,-6.46 l 166.76,114.59 c 11.35,7.8 14.26,23.47 6.46,34.82 l -115.85,168.6 -306.63,444.32 -25.09,36.51 c -39.31,57.21 -118.28,71.85 -175.5,32.54 v 0 c -57.21,-39.31 -71.85,-118.29 -32.54,-175.5 z"
   id="path33"
   inkscape:connector-curvature="0"
   style="fill:#f2f0c9" />
     <g
   id="g75">
      <path
   class="fil5"
   d="m 6404.92,5892.25 c -135.78,197.59 -271.56,395.19 -407.33,592.79 -185.13,269.42 -370.26,538.83 -555.39,808.26 -37.39,54.42 -112.51,68.35 -166.93,30.95 -266.49,-183.12 -532.98,-366.24 -799.47,-549.35 -54.42,-37.39 -68.35,-112.51 -30.96,-166.93 185.13,-269.42 370.26,-538.84 555.4,-808.26 135.78,-197.6 271.56,-395.19 407.33,-592.78 40.09,-58.34 80.17,-116.68 120.26,-175.02 188.47,-274.27 567.07,-344.47 841.34,-156.01 0,0 0,0 0,0 18.52,12.73 36.09,26.35 52.74,40.73 -10.82,6.65 -20.35,15.78 -27.68,27.17 -13.2,20.52 -16.73,44.48 -11.76,66.54 -24.74,3.17 -47.97,16.83 -62.52,39.44 -15.11,23.48 -17.56,51.48 -9.08,75.97 -9.53,6.44 -17.94,14.87 -24.56,25.15 -24.64,38.31 -15.59,88.61 19.58,116.13 -24.02,40.31 -11.92,92.7 27.85,118.28 6.01,3.87 12.32,6.91 18.79,9.14 -9.22,35.57 4.78,74.54 37.37,95.5 18.1,11.64 38.88,15.76 58.67,13.15 2.11,26.27 16,51.29 39.87,66.65 28.35,18.23 63.25,18.02 90.65,2.43 3.15,6.87 7.22,13.38 12.15,19.31 -16.65,43.52 -38.59,85.74 -66.07,125.73 -40.09,58.34 -80.18,116.68 -120.26,175.02 l 0.01,0.02 z"
   id="path35"
   inkscape:connector-curvature="0"
   style="fill:#4b342c" />
      <path
   class="fil5"
   d="m 6402.76,5892.12 c -135.47,197.14 -270.94,394.29 -406.41,591.43 -184.71,268.8 -369.42,537.61 -554.13,806.41 -37.31,54.3 -112.26,68.19 -166.55,30.89 -265.88,-182.7 -531.76,-365.4 -797.64,-548.1 -54.3,-37.31 -68.19,-112.26 -30.89,-166.55 184.7,-268.81 369.42,-537.61 554.13,-806.42 135.46,-197.15 270.93,-394.28 406.4,-591.43 40,-58.21 79.99,-116.41 119.99,-174.62 188.04,-273.65 565.78,-343.69 839.42,-155.65 0,0 0,0 0,0 18.48,12.7 36,26.29 52.61,40.63 -10.79,6.64 -20.3,15.74 -27.61,27.11 -13.17,20.47 -16.69,44.38 -11.73,66.38 -24.69,3.16 -47.86,16.79 -62.38,39.36 -15.07,23.43 -17.51,51.36 -9.06,75.8 -9.51,6.42 -17.9,14.83 -24.5,25.09 -24.58,38.22 -15.56,88.41 19.54,115.87 -23.96,40.22 -11.9,92.5 27.78,118.02 6,3.86 12.3,6.89 18.75,9.12 -9.2,35.49 4.77,74.37 37.29,95.29 18.06,11.61 38.79,15.72 58.54,13.13 2.1,26.2 15.97,51.17 39.78,66.49 28.28,18.19 63.11,17.98 90.44,2.43 3.15,6.86 7.21,13.35 12.13,19.27 -16.61,43.42 -38.5,85.55 -65.92,125.45 -40,58.2 -80,116.41 -119.99,174.62 z"
   id="path37"
   inkscape:connector-curvature="0"
   style="fill:#4b342c" />
      <path
   class="fil6"
   d="m 6400.61,5892 c -135.16,196.69 -270.32,393.39 -405.48,590.08 -184.29,268.19 -368.57,536.38 -552.86,804.57 -37.22,54.17 -112,68.04 -166.17,30.81 -265.28,-182.28 -530.55,-364.57 -795.82,-546.85 -54.17,-37.22 -68.04,-112 -30.81,-166.17 184.29,-268.19 368.57,-536.38 552.86,-804.57 135.16,-196.7 270.32,-393.39 405.48,-590.08 39.9,-58.07 79.81,-116.15 119.71,-174.22 187.61,-273.02 564.48,-342.9 837.5,-155.3 0,0 0,0 0,0 18.44,12.67 35.93,26.24 52.5,40.54 -10.77,6.62 -20.26,15.7 -27.55,27.04 -13.14,20.43 -16.65,44.28 -11.71,66.23 -24.63,3.15 -47.75,16.75 -62.23,39.26 -15.04,23.38 -17.47,51.24 -9.04,75.62 -9.49,6.41 -17.86,14.8 -24.44,25.04 -24.53,38.13 -15.52,88.2 19.49,115.6 -23.91,40.13 -11.87,92.28 27.72,117.74 5.99,3.85 12.27,6.87 18.7,9.1 -9.18,35.41 4.76,74.2 37.2,95.07 18.02,11.59 38.7,15.69 58.41,13.09 2.09,26.15 15.93,51.06 39.69,66.34 28.22,18.15 62.96,17.94 90.24,2.42 3.14,6.84 7.19,13.32 12.1,19.22 -16.57,43.32 -38.42,85.35 -65.78,125.16 -39.91,58.07 -79.81,116.15 -119.71,174.22 z"
   id="path39"
   inkscape:connector-curvature="0"
   style="fill:#4c352d" />
      <path
   class="fil7"
   d="m 6398.45,5891.87 c -134.85,196.24 -269.7,392.48 -404.55,588.73 -183.87,267.57 -367.73,535.15 -551.59,802.73 -37.14,54.05 -111.74,67.88 -165.79,30.74 -264.67,-181.87 -529.33,-363.73 -794,-545.59 -54.05,-37.14 -67.88,-111.74 -30.74,-165.79 183.86,-267.58 367.73,-535.16 551.59,-802.73 134.85,-196.24 269.7,-392.48 404.55,-588.73 39.81,-57.94 79.62,-115.88 119.44,-173.82 187.18,-272.39 563.19,-342.12 835.59,-154.94 0,0 0,0 0,0 18.4,12.64 35.84,26.17 52.37,40.44 -10.74,6.61 -20.2,15.67 -27.49,26.99 -13.11,20.38 -16.61,44.17 -11.68,66.07 -24.57,3.15 -47.64,16.71 -62.09,39.18 -15,23.33 -17.44,51.13 -9.02,75.45 -9.46,6.39 -17.82,14.77 -24.39,24.98 -24.47,38.04 -15.48,88 19.44,115.34 -23.85,40.03 -11.84,92.07 27.66,117.48 5.97,3.84 12.24,6.86 18.66,9.08 -9.15,35.32 4.75,74.03 37.12,94.85 17.98,11.57 38.61,15.65 58.27,13.07 2.09,26.09 15.89,50.94 39.6,66.19 28.15,18.11 62.82,17.89 90.03,2.41 3.13,6.83 7.18,13.29 12.07,19.18 -16.54,43.22 -38.33,85.16 -65.62,124.87 -39.81,57.94 -79.63,115.88 -119.44,173.82 v 0 z"
   id="path41"
   inkscape:connector-curvature="0"
   style="fill:#4d352d" />
      <path
   class="fil8"
   d="m 6396.3,5891.74 c -134.54,195.79 -269.08,391.58 -403.62,587.38 -183.44,266.96 -366.89,533.92 -550.33,800.89 -37.06,53.93 -111.49,67.72 -165.41,30.67 -264.06,-181.45 -528.12,-362.9 -792.18,-544.34 -53.92,-37.05 -67.72,-111.48 -30.67,-165.41 183.44,-266.96 366.89,-533.93 550.33,-800.89 134.54,-195.8 269.08,-391.58 403.62,-587.38 39.72,-57.81 79.44,-115.61 119.17,-173.43 186.75,-271.77 561.9,-341.33 833.67,-154.59 0,0 0,0 0,0 18.35,12.61 35.76,26.11 52.25,40.35 -10.72,6.59 -20.16,15.63 -27.43,26.93 -13.08,20.33 -16.57,44.07 -11.65,65.93 -24.52,3.14 -47.53,16.67 -61.95,39.09 -14.97,23.27 -17.39,51.01 -9,75.28 -9.44,6.38 -17.78,14.73 -24.33,24.93 -24.41,37.96 -15.45,87.8 19.4,115.07 -23.8,39.94 -11.81,91.86 27.59,117.2 5.96,3.83 12.21,6.84 18.62,9.06 -9.13,35.24 4.74,73.86 37.04,94.63 17.93,11.54 38.52,15.62 58.14,13.04 2.09,26.03 15.86,50.82 39.51,66.04 28.09,18.07 62.68,17.85 89.82,2.41 3.13,6.81 7.16,13.26 12.04,19.14 -16.5,43.12 -38.24,84.96 -65.47,124.59 -39.72,57.81 -79.44,115.61 -119.17,173.43 v -0.02 z"
   id="path43"
   inkscape:connector-curvature="0"
   style="fill:#4e352d" />
      <path
   class="fil9"
   d="m 6394.14,5891.61 c -134.23,195.34 -268.46,390.69 -402.69,586.03 -183.02,266.35 -366.04,532.69 -549.06,799.04 -36.97,53.8 -111.23,67.57 -165.03,30.6 -263.45,-181.03 -526.9,-362.06 -790.35,-543.09 -53.8,-36.97 -67.57,-111.23 -30.6,-165.03 183.02,-266.35 366.04,-532.7 549.06,-799.05 134.23,-195.34 268.46,-390.68 402.69,-586.02 39.63,-57.68 79.26,-115.35 118.89,-173.02 186.32,-271.15 560.61,-340.55 831.75,-154.23 0,0 0,0 0,0 18.31,12.58 35.67,26.05 52.13,40.26 -10.7,6.58 -20.12,15.6 -27.36,26.86 -13.05,20.28 -16.54,43.97 -11.63,65.78 -24.46,3.13 -47.43,16.63 -61.81,39 -14.93,23.22 -17.35,50.89 -8.98,75.1 -9.42,6.36 -17.73,14.7 -24.27,24.87 -24.36,37.87 -15.42,87.6 19.35,114.81 -23.74,39.85 -11.79,91.65 27.53,116.94 5.94,3.82 12.18,6.83 18.58,9.04 -9.11,35.16 4.73,73.69 36.95,94.41 17.89,11.51 38.44,15.58 58,13.01 2.08,25.96 15.82,50.7 39.42,65.88 28.02,18.02 62.53,17.81 89.61,2.4 3.12,6.8 7.14,13.23 12.02,19.1 -16.46,43.02 -38.15,84.76 -65.32,124.3 -39.63,57.67 -79.26,115.35 -118.89,173.02 z"
   id="path45"
   inkscape:connector-curvature="0"
   style="fill:#4f362e" />
      <path
   class="fil9"
   d="m 6391.98,5891.49 c -133.92,194.89 -267.84,389.79 -401.76,584.68 -182.6,265.73 -365.2,531.46 -547.8,797.2 -36.88,53.67 -110.97,67.41 -164.65,30.53 -262.85,-180.61 -525.69,-361.22 -788.53,-541.83 -53.67,-36.88 -67.41,-110.97 -30.53,-164.65 182.6,-265.74 365.2,-531.47 547.8,-797.2 133.92,-194.89 267.84,-389.78 401.76,-584.68 39.54,-57.54 79.07,-115.08 118.61,-172.62 185.89,-270.52 559.31,-339.76 829.83,-153.88 0,0 0,0 0,0 18.27,12.56 35.59,25.99 52.01,40.17 -10.67,6.56 -20.07,15.56 -27.3,26.8 -13.02,20.24 -16.5,43.87 -11.6,65.62 -24.41,3.12 -47.31,16.6 -61.66,38.91 -14.9,23.17 -17.31,50.78 -8.96,74.93 -9.4,6.35 -17.69,14.67 -24.22,24.81 -24.3,37.78 -15.38,87.4 19.31,114.55 -23.69,39.76 -11.76,91.44 27.47,116.67 5.93,3.82 12.15,6.81 18.54,9.02 -9.09,35.08 4.72,73.52 36.86,94.2 17.85,11.48 38.35,15.54 57.87,12.98 2.08,25.91 15.78,50.59 39.33,65.73 27.96,17.98 62.39,17.77 89.41,2.4 3.11,6.78 7.13,13.2 11.99,19.05 -16.43,42.92 -38.07,84.57 -65.17,124.01 -39.54,57.54 -79.08,115.08 -118.62,172.62 z"
   id="path47"
   inkscape:connector-curvature="0"
   style="fill:#4f362e" />
      <path
   class="fil10"
   d="m 6389.83,5891.37 c -133.61,194.44 -267.22,388.89 -400.83,583.33 -182.18,265.12 -364.35,530.24 -546.53,795.36 -36.8,53.55 -110.72,67.26 -164.26,30.46 -262.24,-180.2 -524.47,-360.39 -786.71,-540.59 -53.55,-36.8 -67.26,-110.71 -30.46,-164.26 182.18,-265.12 364.35,-530.24 546.53,-795.36 133.61,-194.44 267.22,-388.88 400.83,-583.32 39.44,-57.41 78.89,-114.81 118.34,-172.22 185.46,-269.89 558.02,-338.98 827.91,-153.52 0,0 0,0 0,0 18.23,12.53 35.51,25.94 51.89,40.08 -10.65,6.55 -20.02,15.52 -27.24,26.74 -12.99,20.19 -16.46,43.77 -11.57,65.47 -24.35,3.11 -47.2,16.56 -61.52,38.81 -14.87,23.11 -17.27,50.66 -8.94,74.76 -9.38,6.33 -17.65,14.63 -24.16,24.76 -24.25,37.69 -15.35,87.19 19.26,114.28 -23.63,39.67 -11.73,91.22 27.41,116.4 5.92,3.81 12.13,6.8 18.49,9 -9.07,35 4.71,73.35 36.78,93.98 17.81,11.46 38.26,15.51 57.74,12.94 2.07,25.85 15.74,50.47 39.24,65.58 27.89,17.94 62.24,17.73 89.2,2.39 3.1,6.76 7.11,13.17 11.96,19.01 -16.39,42.82 -37.98,84.37 -65.02,123.72 -39.45,57.41 -78.89,114.81 -118.34,172.22 z"
   id="path49"
   inkscape:connector-curvature="0"
   style="fill:#50372f" />
      <path
   class="fil11"
   d="m 6387.67,5891.24 c -133.3,193.99 -266.61,387.98 -399.91,581.98 -181.76,264.5 -363.51,529.01 -545.26,793.52 -36.71,53.43 -110.46,67.1 -163.89,30.39 -261.63,-179.78 -523.26,-359.56 -784.89,-539.33 -53.43,-36.71 -67.1,-110.46 -30.39,-163.89 181.75,-264.51 363.51,-529.01 545.26,-793.52 133.3,-193.99 266.6,-387.98 399.91,-581.97 39.35,-57.28 78.71,-114.55 118.07,-171.83 185.03,-269.27 556.73,-338.19 826,-153.17 0,0 0,0 0,0 18.19,12.5 35.43,25.87 51.78,39.98 -10.62,6.53 -19.98,15.49 -27.17,26.67 -12.96,20.15 -16.43,43.67 -11.55,65.32 -24.29,3.11 -47.09,16.52 -61.38,38.72 -14.83,23.06 -17.23,50.54 -8.92,74.58 -9.35,6.32 -17.61,14.6 -24.11,24.7 -24.19,37.61 -15.31,86.99 19.22,114.02 -23.58,39.57 -11.7,91.02 27.34,116.13 5.91,3.8 12.1,6.78 18.45,8.98 -9.05,34.92 4.7,73.18 36.69,93.76 17.77,11.43 38.17,15.47 57.61,12.92 2.07,25.78 15.71,50.35 39.15,65.43 27.83,17.9 62.1,17.69 88.99,2.39 3.1,6.75 7.09,13.14 11.93,18.96 -16.35,42.72 -37.89,84.18 -64.87,123.44 -39.36,57.27 -78.71,114.55 -118.07,171.82 h 0.02 z"
   id="path51"
   inkscape:connector-curvature="0"
   style="fill:#51372f" />
      <path
   class="fil12"
   d="m 6385.52,5891.11 c -132.99,193.54 -265.98,387.08 -398.98,580.63 -181.33,263.89 -362.67,527.78 -544,791.67 -36.63,53.3 -110.2,66.94 -163.5,30.32 -261.02,-179.36 -522.04,-358.72 -783.06,-538.08 -53.3,-36.63 -66.95,-110.2 -30.32,-163.5 181.33,-263.89 362.67,-527.79 544,-791.68 132.99,-193.54 265.98,-387.08 398.98,-580.62 39.26,-57.14 78.53,-114.29 117.79,-171.43 184.6,-268.64 555.44,-337.41 824.08,-152.81 0,0 0,0 0,0 18.15,12.47 35.35,25.81 51.65,39.89 -10.59,6.52 -19.93,15.45 -27.11,26.61 -12.93,20.1 -16.39,43.57 -11.52,65.17 -24.23,3.1 -46.98,16.48 -61.23,38.64 -14.8,23 -17.19,50.42 -8.9,74.41 -9.33,6.3 -17.57,14.56 -24.05,24.64 -24.13,37.52 -15.28,86.79 19.18,113.75 -23.52,39.48 -11.68,90.8 27.28,115.86 5.89,3.79 12.07,6.76 18.41,8.95 -9.03,34.84 4.69,73.01 36.61,93.54 17.73,11.4 38.09,15.44 57.47,12.89 2.06,25.72 15.67,50.24 39.06,65.28 27.76,17.85 61.96,17.65 88.79,2.38 3.09,6.74 7.07,13.11 11.91,18.92 -16.31,42.63 -37.8,83.98 -64.72,123.15 -39.27,57.14 -78.53,114.28 -117.8,171.43 z"
   id="path53"
   inkscape:connector-curvature="0"
   style="fill:#52372f" />
      <path
   class="fil13"
   d="m 6383.36,5890.98 c -132.69,193.09 -265.37,386.18 -398.05,579.27 -180.91,263.28 -361.82,526.55 -542.73,789.83 -36.54,53.18 -109.94,66.79 -163.13,30.25 -260.41,-178.94 -520.83,-357.89 -781.24,-536.83 -53.18,-36.54 -66.79,-109.95 -30.25,-163.13 180.91,-263.28 361.82,-526.56 542.73,-789.83 132.68,-193.09 265.36,-386.18 398.04,-579.27 39.17,-57.01 78.35,-114.02 117.52,-171.03 184.17,-268.02 554.14,-336.62 822.16,-152.45 0,0 0,0 0,0 18.1,12.44 35.26,25.75 51.53,39.8 -10.57,6.5 -19.89,15.42 -27.05,26.56 -12.9,20.05 -16.35,43.46 -11.49,65.02 -24.18,3.09 -46.87,16.44 -61.09,38.54 -14.76,22.95 -17.15,50.3 -8.87,74.24 -9.31,6.29 -17.53,14.53 -24,24.58 -24.08,37.44 -15.24,86.59 19.13,113.48 -23.47,39.39 -11.65,90.59 27.21,115.59 5.88,3.78 12.04,6.75 18.37,8.93 -9.01,34.76 4.67,72.84 36.52,93.32 17.69,11.38 37.99,15.4 57.33,12.86 2.06,25.67 15.64,50.12 38.96,65.12 27.7,17.82 61.81,17.61 88.58,2.38 3.09,6.72 7.06,13.07 11.88,18.87 -16.27,42.52 -37.71,83.79 -64.57,122.87 -39.17,57.01 -78.35,114.02 -117.52,171.03 z"
   id="path55"
   inkscape:connector-curvature="0"
   style="fill:#533830" />
      <path
   class="fil13"
   d="m 6381.2,5890.85 c -132.37,192.64 -264.74,385.28 -397.12,577.92 -180.49,262.66 -360.98,525.32 -541.46,787.99 -36.46,53.06 -109.69,66.63 -162.74,30.18 -259.81,-178.53 -519.61,-357.05 -779.42,-535.57 -53.06,-36.46 -66.63,-109.69 -30.18,-162.74 180.49,-262.67 360.98,-525.33 541.47,-787.99 132.37,-192.64 264.74,-385.28 397.11,-577.92 39.08,-56.87 78.17,-113.75 117.25,-170.63 183.74,-267.39 552.85,-335.83 820.24,-152.1 0,0 0,0 0,0 18.06,12.41 35.18,25.69 51.41,39.7 -10.55,6.49 -19.83,15.38 -26.98,26.49 -12.87,20 -16.31,43.36 -11.46,64.86 -24.12,3.09 -46.76,16.41 -60.95,38.46 -14.73,22.9 -17.11,50.19 -8.85,74.06 -9.29,6.28 -17.49,14.5 -23.94,24.52 -24.02,37.35 -15.2,86.39 19.09,113.22 -23.41,39.3 -11.62,90.38 27.15,115.32 5.86,3.77 12.01,6.73 18.32,8.91 -8.99,34.68 4.66,72.67 36.44,93.11 17.65,11.35 37.91,15.37 57.2,12.83 2.05,25.61 15.6,50 38.87,64.97 27.63,17.78 61.67,17.57 88.37,2.37 3.08,6.7 7.04,13.04 11.85,18.83 -16.24,42.43 -37.63,83.59 -64.42,122.58 -39.08,56.88 -78.17,113.75 -117.25,170.63 z"
   id="path57"
   inkscape:connector-curvature="0"
   style="fill:#533830" />
      <path
   class="fil14"
   d="m 6379.05,5890.73 c -132.07,192.19 -264.13,384.38 -396.19,576.57 -180.07,262.05 -360.13,524.09 -540.2,786.15 -36.37,52.93 -109.43,66.48 -162.37,30.11 -259.2,-178.11 -518.4,-356.22 -777.59,-534.32 -52.93,-36.37 -66.48,-109.44 -30.11,-162.37 180.06,-262.05 360.13,-524.1 540.2,-786.15 132.06,-192.19 264.12,-384.38 396.19,-576.57 38.99,-56.74 77.98,-113.49 116.97,-170.23 183.31,-266.77 551.56,-335.05 818.33,-151.74 0,0 0,0 0,0 18.02,12.38 35.1,25.63 51.29,39.61 -10.52,6.47 -19.79,15.35 -26.92,26.43 -12.83,19.96 -16.27,43.26 -11.44,64.71 -24.07,3.08 -46.66,16.37 -60.81,38.37 -14.69,22.84 -17.07,50.07 -8.83,73.89 -9.27,6.26 -17.45,14.46 -23.89,24.46 -23.96,37.26 -15.17,86.19 19.05,112.96 -23.36,39.21 -11.6,90.17 27.09,115.05 5.85,3.76 11.98,6.72 18.28,8.89 -8.97,34.59 4.65,72.5 36.35,92.89 17.61,11.33 37.82,15.33 57.07,12.8 2.05,25.55 15.57,49.88 38.78,64.82 27.57,17.73 61.52,17.52 88.17,2.36 3.07,6.69 7.03,13.02 11.82,18.79 -16.2,42.33 -37.54,83.4 -64.26,122.3 -38.99,56.74 -77.98,113.48 -116.97,170.23 z"
   id="path59"
   inkscape:connector-curvature="0"
   style="fill:#543930" />
      <path
   class="fil15"
   d="m 6376.89,5890.61 c -131.76,191.74 -263.51,383.48 -395.26,575.22 -179.65,261.43 -359.29,522.87 -538.93,784.3 -36.29,52.81 -109.18,66.32 -161.98,30.04 -258.59,-177.69 -517.18,-355.39 -775.77,-533.07 -52.81,-36.28 -66.32,-109.18 -30.04,-161.98 179.64,-261.44 359.29,-522.87 538.93,-784.31 131.76,-191.74 263.51,-383.47 395.26,-575.21 38.9,-56.61 77.8,-113.22 116.7,-169.83 182.88,-266.14 550.26,-334.26 816.41,-151.39 0,0 0,0 0,0 17.98,12.35 35.02,25.57 51.17,39.52 -10.5,6.46 -19.75,15.31 -26.86,26.37 -12.81,19.91 -16.23,43.16 -11.41,64.56 -24.01,3.07 -46.55,16.33 -60.67,38.28 -14.66,22.79 -17.03,49.95 -8.81,73.72 -9.25,6.24 -17.41,14.43 -23.83,24.41 -23.91,37.17 -15.13,85.98 19,112.69 -23.3,39.12 -11.57,89.96 27.02,114.78 5.84,3.75 11.96,6.7 18.24,8.87 -8.94,34.51 4.64,72.33 36.27,92.67 17.56,11.3 37.73,15.3 56.94,12.77 2.04,25.49 15.53,49.77 38.69,64.67 27.5,17.69 61.38,17.48 87.96,2.36 3.06,6.67 7.01,12.98 11.8,18.74 -16.16,42.23 -37.45,83.2 -64.12,122.01 -38.9,56.61 -77.8,113.22 -116.7,169.83 z"
   id="path61"
   inkscape:connector-curvature="0"
   style="fill:#563931" />
      <path
   class="fil16"
   d="m 6374.74,5890.48 c -131.44,191.29 -262.89,382.57 -394.33,573.87 -179.22,260.82 -358.44,521.64 -537.67,782.46 -36.2,52.68 -108.92,66.17 -161.6,29.96 -257.98,-177.28 -515.97,-354.55 -773.95,-531.82 -52.68,-36.2 -66.17,-108.92 -29.97,-161.6 179.22,-260.82 358.44,-521.64 537.67,-782.46 131.44,-191.29 262.89,-382.57 394.33,-573.87 38.81,-56.47 77.62,-112.95 116.43,-169.43 182.45,-265.52 548.97,-333.48 814.49,-151.03 0,0 0,0 0,0 17.93,12.33 34.94,25.52 51.05,39.43 -10.47,6.44 -19.7,15.27 -26.8,26.3 -12.78,19.87 -16.19,43.06 -11.39,64.41 -23.95,3.06 -46.43,16.29 -60.52,38.19 -14.63,22.74 -16.99,49.83 -8.79,73.54 -9.23,6.23 -17.37,14.4 -23.78,24.35 -23.85,37.09 -15.09,85.78 18.96,112.43 -23.25,39.02 -11.54,89.75 26.96,114.51 5.82,3.75 11.93,6.69 18.19,8.85 -8.93,34.43 4.63,72.16 36.18,92.45 17.52,11.27 37.64,15.26 56.8,12.74 2.04,25.43 15.49,49.65 38.6,64.52 27.44,17.65 61.24,17.44 87.76,2.35 3.06,6.65 6.99,12.95 11.77,18.7 -16.12,42.13 -37.36,83 -63.97,121.72 -38.81,56.48 -77.61,112.95 -116.43,169.43 v 0 z"
   id="path63"
   inkscape:connector-curvature="0"
   style="fill:#563a31" />
      <path
   class="fil17"
   d="m 6372.58,5890.35 c -131.13,190.84 -262.27,381.68 -393.41,572.52 -178.8,260.2 -357.6,520.41 -536.4,780.62 -36.11,52.56 -108.66,66.01 -161.22,29.89 -257.38,-176.86 -514.75,-353.71 -772.13,-530.57 -52.56,-36.11 -66.01,-108.67 -29.9,-161.22 178.8,-260.21 357.6,-520.42 536.4,-780.62 131.13,-190.84 262.27,-381.67 393.4,-572.51 38.72,-56.34 77.43,-112.69 116.15,-169.03 182.02,-264.89 547.68,-332.7 812.57,-150.68 0,0 0,0 0,0 17.89,12.3 34.85,25.45 50.93,39.33 -10.45,6.43 -19.65,15.24 -26.73,26.24 -12.74,19.82 -16.16,42.96 -11.36,64.26 -23.9,3.06 -46.33,16.25 -60.38,38.09 -14.59,22.68 -16.95,49.72 -8.78,73.37 -9.2,6.22 -17.32,14.36 -23.71,24.3 -23.8,37 -15.06,85.58 18.91,112.16 -23.2,38.93 -11.52,89.54 26.9,114.24 5.81,3.74 11.9,6.67 18.15,8.83 -8.91,34.35 4.62,71.99 36.09,92.24 17.48,11.24 37.56,15.22 56.67,12.71 2.03,25.37 15.45,49.53 38.51,64.36 27.37,17.61 61.09,17.4 87.54,2.35 3.05,6.64 6.98,12.92 11.74,18.66 -16.08,42.03 -37.28,82.81 -63.81,121.43 -38.72,56.34 -77.43,112.69 -116.15,169.03 z"
   id="path65"
   inkscape:connector-curvature="0"
   style="fill:#573a32" />
      <path
   class="fil18"
   d="m 6370.43,5890.22 c -130.82,190.39 -261.65,380.78 -392.47,571.17 -178.38,259.59 -356.76,519.18 -535.14,778.78 -36.03,52.43 -108.41,65.86 -160.84,29.83 -256.77,-176.44 -513.54,-352.88 -770.31,-529.31 -52.43,-36.03 -65.85,-108.41 -29.83,-160.84 178.38,-259.59 356.76,-519.19 535.14,-778.78 130.82,-190.39 261.65,-380.77 392.47,-571.16 38.63,-56.21 77.25,-112.42 115.88,-168.63 181.59,-264.27 546.38,-331.91 810.65,-150.32 0,0 0,0 0,0 17.85,12.27 34.77,25.39 50.81,39.24 -10.43,6.41 -19.61,15.2 -26.67,26.18 -12.72,19.77 -16.12,42.85 -11.33,64.11 -23.84,3.05 -46.22,16.21 -60.24,38 -14.56,22.63 -16.91,49.6 -8.75,73.2 -9.18,6.2 -17.28,14.33 -23.66,24.24 -23.74,36.91 -15.03,85.38 18.87,111.9 -23.14,38.84 -11.49,89.33 26.83,113.97 5.8,3.73 11.87,6.65 18.11,8.81 -8.89,34.27 4.61,71.82 36.01,92.02 17.44,11.22 37.46,15.19 56.54,12.68 2.03,25.31 15.42,49.42 38.42,64.21 27.31,17.57 60.94,17.36 87.34,2.34 3.04,6.63 6.96,12.89 11.71,18.61 -16.05,41.93 -37.19,82.61 -63.67,121.15 -38.63,56.21 -77.25,112.42 -115.88,168.63 z"
   id="path67"
   inkscape:connector-curvature="0"
   style="fill:#583b32" />
      <path
   class="fil19"
   d="m 6368.27,5890.09 c -130.52,189.94 -261.03,379.88 -391.55,569.81 -177.96,258.98 -355.91,517.95 -533.87,776.93 -35.94,52.31 -108.15,65.7 -160.46,29.76 -256.16,-176.02 -512.32,-352.04 -768.48,-528.06 -52.31,-35.94 -65.7,-108.15 -29.76,-160.46 177.95,-258.98 355.91,-517.96 533.87,-776.94 130.51,-189.94 261.03,-379.87 391.54,-569.81 38.54,-56.08 77.07,-112.16 115.6,-168.24 181.16,-263.64 545.09,-331.13 808.74,-149.96 0,0 0,0 0,0 17.81,12.24 34.69,25.33 50.69,39.15 -10.4,6.4 -19.56,15.17 -26.61,26.12 -12.69,19.72 -16.08,42.75 -11.3,63.95 -23.78,3.04 -46.11,16.17 -60.09,37.92 -14.52,22.57 -16.87,49.48 -8.73,73.02 -9.16,6.19 -17.24,14.29 -23.6,24.18 -23.69,36.83 -14.99,85.18 18.82,111.63 -23.09,38.75 -11.46,89.11 26.77,113.7 5.78,3.72 11.84,6.64 18.07,8.78 -8.86,34.19 4.59,71.65 35.93,91.8 17.4,11.2 37.37,15.15 56.4,12.65 2.02,25.25 15.38,49.3 38.33,64.06 27.24,17.53 60.8,17.32 87.13,2.33 3.04,6.61 6.94,12.86 11.69,18.57 -16.01,41.83 -37.1,82.42 -63.51,120.86 -38.54,56.08 -77.07,112.15 -115.6,168.23 l -0.02,0.03 z"
   id="path69"
   inkscape:connector-curvature="0"
   style="fill:#593b32" />
      <path
   class="fil20"
   d="m 6366.11,5889.97 c -130.2,189.49 -260.41,378.98 -390.62,568.46 -177.54,258.36 -355.07,516.72 -532.6,775.09 -35.86,52.19 -107.89,65.54 -160.08,29.68 -255.56,-175.61 -511.11,-351.21 -766.66,-526.81 -52.19,-35.85 -65.54,-107.89 -29.69,-160.08 177.54,-258.37 355.07,-516.73 532.6,-775.09 130.21,-189.49 260.41,-378.97 390.62,-568.46 38.44,-55.94 76.89,-111.89 115.33,-167.83 180.74,-263.02 543.8,-330.34 806.82,-149.61 0,0 0,0 0,0 17.76,12.21 34.61,25.28 50.57,39.06 -10.38,6.38 -19.52,15.13 -26.54,26.06 -12.66,19.68 -16.04,42.65 -11.28,63.8 -23.73,3.03 -46,16.13 -59.95,37.82 -14.49,22.52 -16.83,49.37 -8.71,72.85 -9.14,6.17 -17.2,14.26 -23.55,24.13 -23.63,36.74 -14.95,84.97 18.78,111.37 -23.03,38.66 -11.43,88.9 26.71,113.43 5.77,3.71 11.81,6.62 18.02,8.77 -8.84,34.11 4.59,71.48 35.84,91.58 17.36,11.17 37.29,15.11 56.27,12.62 2.02,25.19 15.34,49.19 38.24,63.91 27.18,17.48 60.66,17.28 86.93,2.33 3.03,6.59 6.93,12.83 11.66,18.52 -15.97,41.73 -37.01,82.22 -63.37,120.57 -38.44,55.94 -76.88,111.89 -115.33,167.83 z"
   id="path71"
   inkscape:connector-curvature="0"
   style="fill:#5a3c33" />
      <path
   class="fil21"
   d="m 6363.96,5889.85 c -129.9,189.04 -259.8,378.07 -389.69,567.11 -177.12,257.75 -354.23,515.5 -531.34,773.25 -35.78,52.06 -107.64,65.39 -159.7,29.61 -254.94,-175.19 -509.89,-350.37 -764.83,-525.56 -52.06,-35.77 -65.39,-107.64 -29.61,-159.7 177.11,-257.75 354.22,-515.5 531.33,-773.25 129.9,-189.04 259.79,-378.07 389.69,-567.11 38.35,-55.81 76.7,-111.62 115.06,-167.44 180.3,-262.39 542.5,-329.56 804.9,-149.25 0,0 0,0 0,0 17.72,12.18 34.52,25.21 50.45,38.96 -10.35,6.37 -19.46,15.09 -26.48,26 -12.62,19.63 -16,42.55 -11.25,63.65 -23.67,3.03 -45.89,16.1 -59.81,37.74 -14.45,22.47 -16.79,49.25 -8.69,72.68 -9.11,6.16 -17.16,14.23 -23.49,24.07 -23.57,36.65 -14.92,84.77 18.73,111.1 -22.98,38.56 -11.41,88.69 26.64,113.17 5.76,3.7 11.79,6.61 17.98,8.74 -8.82,34.02 4.57,71.31 35.76,91.36 17.31,11.14 37.2,15.08 56.13,12.59 2.01,25.13 15.31,49.06 38.15,63.75 27.11,17.44 60.52,17.24 86.72,2.33 3.02,6.58 6.91,12.8 11.63,18.48 -15.93,41.63 -36.92,82.03 -63.21,120.29 -38.35,55.81 -76.7,111.62 -115.05,167.43 z"
   id="path73"
   inkscape:connector-curvature="0"
   style="fill:#5b3c33" />
     </g>
     <path
   class="fil22"
   d="m 6361.8,5889.72 -388.76,565.76 -530.07,771.41 c -35.69,51.94 -107.38,65.23 -159.32,29.54 l -763.02,-524.31 c -51.94,-35.69 -65.23,-107.38 -29.54,-159.32 l 530.07,-771.41 388.76,-565.76 114.78,-167.04 c 179.87,-261.76 541.21,-328.77 802.98,-148.9 v 0 c 17.68,12.15 34.44,25.15 50.33,38.87 -10.33,6.35 -19.42,15.06 -26.42,25.93 -12.59,19.58 -15.96,42.45 -11.22,63.5 -23.61,3.02 -45.78,16.06 -59.67,37.65 -14.42,22.41 -16.75,49.13 -8.67,72.5 -9.09,6.14 -17.12,14.19 -23.44,24.01 -23.52,36.56 -14.88,84.57 18.69,110.84 -22.92,38.47 -11.38,88.48 26.58,112.89 5.74,3.69 11.76,6.59 17.94,8.72 -8.8,33.94 4.56,71.14 35.67,91.15 17.28,11.11 37.11,15.04 56,12.56 2.01,25.07 15.27,48.95 38.06,63.6 27.05,17.4 60.37,17.2 86.51,2.32 3.02,6.56 6.89,12.77 11.6,18.44 -15.89,41.53 -36.83,81.83 -63.06,120 l -114.78,167.04 v 0.02 z"
   id="path77"
   inkscape:connector-curvature="0"
   style="fill:#5c3d33" />
    </g>
    <path
   class="fil23"
   d="m 6407.42,4962.61 c -0.01,0.07 -4.43,23.36 -0.5,40.8 l 5.52,24.53 -25,3.2 c -9.3,1.19 -18.35,4.42 -26.44,9.52 -7.7,4.85 -14.5,11.46 -19.8,19.7 -5.47,8.51 -8.7,17.83 -9.83,27.26 -1.19,9.94 -0.11,19.88 3.06,29.05 l 5.76,16.65 -14.56,9.83 c -3.66,2.47 -7.02,5.24 -9.98,8.28 -2.98,3.05 -5.73,6.49 -8.17,10.29 -9.08,14.12 -11.98,30.46 -9.4,45.81 2.61,15.49 10.79,29.97 23.82,40.17 l 15.9,12.44 -10.34,17.35 c -8.87,14.89 -11.04,32.09 -7.3,47.97 3.7,15.73 13.28,30.11 27.94,39.54 2.27,1.46 4.52,2.73 6.74,3.81 2.61,1.27 5,2.27 7.16,3.02 l 20.02,6.92 -5.3,20.45 c -3.45,13.3 -2.48,27.3 2.46,39.92 4.78,12.22 13.33,23.11 25.21,30.76 6.64,4.27 13.69,7.17 20.85,8.78 7.48,1.68 15.14,1.98 22.61,1 l 23.91,-3.15 1.93,24.06 c 0.86,10.73 3.65,21.16 8.69,30.17 4.31,7.73 10.39,14.56 18.44,19.73 l -24.77,38.59 c -14.7,-9.46 -25.8,-21.93 -33.7,-36.06 -4.81,-8.63 -8.39,-17.82 -10.83,-27.26 -5.46,-0.39 -10.93,-1.18 -16.33,-2.39 -12.36,-2.77 -24.4,-7.69 -35.57,-14.88 -20.34,-13.08 -34.97,-31.72 -43.16,-52.65 -6.03,-15.41 -8.56,-32.08 -7.3,-48.72 -1.99,-1.11 -3.94,-2.28 -5.84,-3.5 -25.12,-16.15 -41.52,-40.77 -47.87,-67.71 -4.98,-21.16 -3.72,-43.8 4.44,-64.94 -14.4,-15.89 -23.61,-35.37 -27.06,-55.85 -4.41,-26.18 0.54,-54.03 16.04,-78.12 4.09,-6.37 8.77,-12.2 13.92,-17.47 1.35,-1.38 2.71,-2.71 4.1,-4 -2.05,-10.95 -2.45,-22.16 -1.13,-33.24 1.93,-16.12 7.45,-32.07 16.83,-46.65 9.01,-14 20.69,-25.31 33.98,-33.69 7.26,-4.57 15,-8.26 23.05,-11.02 -0.51,-19.57 2.72,-36.63 2.74,-36.69 l 45.04,8.43 0.02,-0.05 z"
   id="path81"
   inkscape:connector-curvature="0"
   style="fill:#4a332c;fill-rule:nonzero" />
    <path
   class="fil22"
   d="M 6333.14,5849.11 6177.4,6075.76 C 6097.05,5634.7 6003.13,5429.02 5574.64,5294.1 l 99.43,-144.69 c 188.89,-274.89 276.12,-329.42 596.81,-237.73 l 35.27,10.09 c 21.66,6.19 64.64,30.67 107.84,0.01 -10.84,6.67 -7.35,3.98 -17.64,19.98 -10.29,15.99 -16.77,44.58 -11.79,66.69 -24.8,3.17 -48.08,16.86 -62.66,39.53 -15.14,23.54 -17.59,51.59 -9.1,76.14 -9.55,6.45 -17.98,14.9 -24.61,25.21 -24.7,38.39 -15.63,88.81 19.62,116.4 -24.07,40.4 -11.95,92.92 27.91,118.56 6.03,3.88 12.35,6.92 18.83,9.16 -9.24,35.65 4.8,74.71 37.46,95.72 18.14,11.67 38.97,15.8 58.81,13.19 2.11,26.33 16.04,51.41 39.96,66.8 28.41,18.27 63.4,18.06 90.85,2.44 -40.72,20.53 -94.26,53.05 -127.97,102.11 l -120.54,175.41 0.02,-0.02 z"
   id="path83"
   inkscape:connector-curvature="0"
   style="fill:#5c3d33" />
   </g>
</svg>