<?xml version="1.0" encoding="UTF-8" standalone="no"?>
<!-- Created with Inkscape (http://www.inkscape.org/) -->

<svg
   xmlns:dc="http://purl.org/dc/elements/1.1/"
   xmlns:cc="http://creativecommons.org/ns#"
   xmlns:rdf="http://www.w3.org/1999/02/22-rdf-syntax-ns#"
   xmlns:svg="http://www.w3.org/2000/svg"
   xmlns="http://www.w3.org/2000/svg"
   xmlns:xlink="http://www.w3.org/1999/xlink"
   xmlns:sodipodi="http://sodipodi.sourceforge.net/DTD/sodipodi-0.dtd"
   xmlns:inkscape="http://www.inkscape.org/namespaces/inkscape"
   id="svg2"
   sodipodi:docname="lemon2.svg"
   viewBox="0 0 256 256"
   version="1.1"
   inkscape:version="0.92.4 (5da689c313, 2019-01-14)"
   width="256"
   height="256">
  <title
     id="title882">Lemon</title>
  <defs
     id="defs4">
    <linearGradient
       id="linearGradient3927">
      <stop
         id="stop3929"
         style="stop-color:#ffffff"
         offset="0" />
      <stop
         id="stop4498"
         style="stop-color:#ffffff"
         offset="0.4" />
      <stop
         id="stop3931"
         style="stop-color:#ffffff;stop-opacity:0"
         offset="1" />
    </linearGradient>
    <linearGradient
       id="linearGradient3834">
      <stop
         id="stop3836"
         style="stop-color:#f2c26d"
         offset="0" />
      <stop
         id="stop3838"
         style="stop-color:#7f6c43"
         offset="1" />
    </linearGradient>
    <linearGradient
       id="linearGradient3802">
      <stop
         id="stop3804"
         style="stop-color:#f4ca43"
         offset="0" />
      <stop
         id="stop4061"
         style="stop-color:#ffca2b"
         offset=".5" />
      <stop
         id="stop3806"
         style="stop-color:#d4a100"
         offset="1" />
    </linearGradient>
    <filter
       id="filter4685"
       inkscape:collect="always"
       style="color-interpolation-filters:sRGB">
      <feGaussianBlur
         id="feGaussianBlur4687"
         stdDeviation="0.15978026"
         inkscape:collect="always" />
    </filter>
    <linearGradient
       id="linearGradient3959"
       y2="265.07001"
       xlink:href="#linearGradient3802"
       gradientUnits="userSpaceOnUse"
       x2="-476.47"
       gradientTransform="matrix(1.108,0,0,1.108,537.49,-132.78)"
       y1="232.47"
       x1="-460.07999"
       inkscape:collect="always" />
    <radialGradient
       id="radialGradient3963"
       xlink:href="#linearGradient3927"
       spreadMethod="reflect"
       gradientUnits="userSpaceOnUse"
       cy="317.48001"
       cx="-343.29999"
       gradientTransform="matrix(1.6342,0.51539,-0.93804,2.8726,1032.7,-480.43)"
       r="73.611"
       inkscape:collect="always" />
    <radialGradient
       id="radialGradient3931"
       xlink:href="#linearGradient3927"
       spreadMethod="reflect"
       gradientUnits="userSpaceOnUse"
       cy="258.76001"
       cx="-292.75"
       gradientTransform="matrix(0.70282,0,0,0.77565,-9.451,71.176)"
       r="210.16"
       inkscape:collect="always" />
    <radialGradient
       id="radialGradient3933"
       xlink:href="#linearGradient3834"
       spreadMethod="reflect"
       gradientUnits="userSpaceOnUse"
       cy="416.23999"
       cx="-78.735001"
       gradientTransform="matrix(0.29434,0.08017,-0.144,0.5885,534.52,86.422)"
       r="13.558"
       inkscape:collect="always" />
    <filter
       id="filter4100"
       inkscape:collect="always">
      <feGaussianBlur
         id="feGaussianBlur4102"
         stdDeviation="0.19714127"
         inkscape:collect="always" />
    </filter>
    <filter
       id="filter4109"
       inkscape:collect="always">
      <feGaussianBlur
         id="feGaussianBlur4111"
         stdDeviation="0.18914207"
         inkscape:collect="always" />
    </filter>
    <filter
       id="filter4432"
       inkscape:collect="always">
      <feGaussianBlur
         id="feGaussianBlur4434"
         stdDeviation="1.2549579"
         inkscape:collect="always" />
    </filter>
    <filter
       id="filter3854"
       height="1.4445"
       width="1.5216"
       y="-0.22227"
       x="-0.2608"
       inkscape:collect="always">
      <feGaussianBlur
         id="feGaussianBlur3856"
         stdDeviation="7.5132795"
         inkscape:collect="always" />
    </filter>
    <filter
       id="filter3831"
       height="1.3389"
       width="1.4463"
       y="-0.16943"
       x="-0.22316"
       inkscape:collect="always">
      <feGaussianBlur
         id="feGaussianBlur3833"
         stdDeviation="5.6404458"
         inkscape:collect="always" />
    </filter>
    <filter
       id="filter3843"
       inkscape:collect="always">
      <feGaussianBlur
         id="feGaussianBlur3845"
         stdDeviation="0.63612511"
         inkscape:collect="always" />
    </filter>
    <radialGradient
       id="radialGradient3855"
       xlink:href="#linearGradient3927"
       spreadMethod="reflect"
       gradientUnits="userSpaceOnUse"
       cy="408.32999"
       cx="-282.37"
       gradientTransform="matrix(1.6637,4.5233,-4.4452,1.1911,2462.3,247.93)"
       r="57.598999"
       inkscape:collect="always" />
    <filter
       id="filter3912"
       height="1.4759001"
       width="1.2895"
       y="-0.23796999"
       x="-0.14474"
       inkscape:collect="always">
      <feGaussianBlur
         id="feGaussianBlur3914"
         stdDeviation="16.140942"
         inkscape:collect="always" />
    </filter>
    <filter
       id="filter3886"
       height="1.5718"
       width="1.4136"
       y="-0.28589001"
       x="-0.2068"
       inkscape:collect="always">
      <feGaussianBlur
         id="feGaussianBlur3888"
         stdDeviation="13.43474"
         inkscape:collect="always" />
    </filter>
    <linearGradient
       id="linearGradient3890"
       y2="150.92999"
       xlink:href="#linearGradient3927"
       spreadMethod="reflect"
       gradientUnits="userSpaceOnUse"
       x2="214.71001"
       gradientTransform="matrix(-0.7532,0.1813,0.99686,0.57612,270.2,98.659)"
       y1="366.76999"
       x1="66.778999"
       inkscape:collect="always" />
    <radialGradient
       id="radialGradient4012"
       xlink:href="#linearGradient3802"
       spreadMethod="reflect"
       gradientUnits="userSpaceOnUse"
       cy="277.48001"
       cx="-282.72"
       gradientTransform="matrix(1.108,0,0,0.94024,537.49,-76.105)"
       r="210.16"
       inkscape:collect="always" />
    <radialGradient
       id="radialGradient4022"
       xlink:href="#linearGradient3802"
       spreadMethod="reflect"
       gradientUnits="userSpaceOnUse"
       cy="462.10999"
       cx="-381.75"
       gradientTransform="matrix(1,0,0,0.86732,3.465e-6,41.864)"
       r="224.02"
       inkscape:collect="always" />
    <filter
       id="filter3952"
       inkscape:collect="always">
      <feGaussianBlur
         id="feGaussianBlur3954"
         stdDeviation="0.120625"
         inkscape:collect="always" />
    </filter>
    <radialGradient
       id="radialGradient3957"
       xlink:href="#linearGradient3834"
       spreadMethod="reflect"
       gradientUnits="userSpaceOnUse"
       cy="258.76001"
       cx="-292.75"
       gradientTransform="matrix(0.78419,0,0,0.76902,380.95,-33.363)"
       r="210.16"
       inkscape:collect="always" />
    <filter
       id="filter3988"
       height="1.2862999"
       width="1.6452"
       y="-0.14315"
       x="-0.32260001"
       inkscape:collect="always">
      <feGaussianBlur
         id="feGaussianBlur3990"
         stdDeviation="5.0363811"
         inkscape:collect="always" />
    </filter>
    <radialGradient
       id="radialGradient3996"
       xlink:href="#linearGradient3927"
       gradientUnits="userSpaceOnUse"
       cy="241.48"
       cx="237.84"
       gradientTransform="matrix(1,0,0,0.86794,-485.1,106.11)"
       r="228.42999"
       inkscape:collect="always" />
    <filter
       id="filter4008"
       inkscape:collect="always">
      <feGaussianBlur
         id="feGaussianBlur4010"
         stdDeviation="2.0055697"
         inkscape:collect="always" />
    </filter>
    <linearGradient
       id="linearGradient4015"
       y2="432.73001"
       xlink:href="#linearGradient3834"
       gradientUnits="userSpaceOnUse"
       x2="-30.523001"
       gradientTransform="matrix(0.98124,0,0,1.0178,483.77,-81.721)"
       y1="358.42999"
       x1="-36.849998"
       inkscape:collect="always" />
  </defs>
  <sodipodi:namedview
     id="base"
     bordercolor="#666666"
     inkscape:pageshadow="2"
     inkscape:window-y="-8"
     fit-margin-left="0"
     pagecolor="#ffffff"
     inkscape:window-height="1025"
     inkscape:window-maximized="1"
     inkscape:zoom="2.4960937"
     inkscape:window-x="-8"
     showgrid="false"
     borderopacity="1.0"
     inkscape:current-layer="g3922"
     inkscape:cx="185.0658"
     inkscape:cy="116.9684"
     fit-margin-top="0"
     fit-margin-right="0"
     fit-margin-bottom="0"
     inkscape:window-width="1920"
     inkscape:pageopacity="0.0"
     inkscape:document-units="px" />
  <g
     id="layer1"
     inkscape:label="Layer 1"
     inkscape:groupmode="layer"
     transform="translate(485.1,-286.251)">
    <g
       id="g3922"
       transform="translate(-1.093e-5,-43.974)">
      <g
         id="g899"
         transform="matrix(0.54807913,0,0,0.54807913,-219.10438,285.58911)">
        <path
           transform="translate(-485.1,74.225)"
           inkscape:connector-curvature="0"
           sodipodi:nodetypes="scccscscs"
           d="m 200,43.969 c -63.449,0.22153 -123.58,23.183 -159.03,78.375 -35.109,9.3374 -52.921,33.54 -29.5,67.344 4.9812,15.87 -34.322,137.36 105.59,209.34 77.841,50.34 250.04,64.751 300.12,-24.344 15.458,-27.499 34.9,-5.9462 49.25,-63.688 -4.5771,-49.359 -3.6195,-50.913 -6.7642,-60.644 -2.3256,-7.1958 -8.5942,-24.91 -9.7046,-45.169 -13.21,-89.82 -136.87,-161.62 -249.97,-161.22 z"
           style="fill:url(#radialGradient4012)"
           id="path2996" />
        <path
           inkscape:connector-curvature="0"
           transform="translate(-485.1,74.225)"
           d="m 341.41,225.94 c -4.18,0.02 -8.24,0.23 -11.97,0.65 -40.85,4 -66.17,18.44 -79.13,33.16 -18.19,18.9 -31.6,40.51 -12.12,61.34 7.56,7.35 21.28,16.59 43.43,17.63 11,-7.31 11.59,-18.03 33.63,-21.94 32.8,-7.29 39.64,-23.12 49.06,-36.44 10.27,-14.03 19.85,-28.4 20.22,-43.4 -4.78,-7.4 -25.01,-11.09 -43.12,-11 z"
           style="opacity:0.53363001;fill:url(#linearGradient3890);filter:url(#filter3886)"
           id="path3956" />
        <path
           transform="translate(-485.1,74.225)"
           inkscape:connector-curvature="0"
           sodipodi:nodetypes="ccccsccc"
           d="m 203.62,147.38 c -0.82178,-0.004 -1.615,0.0181 -2.4375,0.0312 -13.418,0.21488 -26.927,2.8281 -40.469,8.625 -68.186,45.541 88.432,88.907 144.08,100.45 34.333,12.457 2.476,53.395 42.447,53.672 23.983,0.16603 46.142,-7.0268 63.25,-27.812 8.1091,-35.458 -36.529,-49.059 -65.842,-64.639 -45,-21.02 -89.25,-70.05 -141.03,-70.33 z"
           style="fill:url(#radialGradient3855);filter:url(#filter3912)"
           id="path3985" />
        <path
           transform="matrix(1.0143,0,0,1.0597,3.6305,-20.042)"
           d="m -73.515,403.43 c -15.365,10.574 -30.006,24.968 -37.781,45.625 -6.11,11.086 -14.834,20.298 -17.781,33.844 6.4606,2.613 12.638,-7.4626 18.375,-11.312 8.6845,-8.2199 14.824,-19.884 22.594,-29.25 6.9842,-8.1362 24.56,-16.055 18.406,-31.344 -1.209,-2.575 -2.7141,-4.8983 -3.8125,-7.5625 z"
           inkscape:connector-curvature="0"
           style="opacity:0.15;fill:url(#radialGradient3931);filter:url(#filter3831)"
           id="path4442" />
        <path
           inkscape:connector-curvature="0"
           transform="translate(-485.1,74.225)"
           d="m 42.969,119.28 c -0.675,1 -1.342,2.04 -2,3.06 -35.11,9.34 -52.921,33.54 -29.5,67.35 1.073,3.42 0.082,11.76 -0.719,23.43 2.7,-35.51 14.158,-58.2 23.594,-76.31 2.335,-5.08 4.847,-10.06 7.468,-14.87 0.406,-0.9 0.785,-1.78 1.157,-2.66 z"
           style="fill:url(#linearGradient3959)"
           id="path3901" />
        <path
           inkscape:connector-curvature="0"
           transform="translate(-485.1,74.225)"
           d="M 176.06,45.375 C 123.36,50.814 75.04,72.832 43.62,116.97 34.672,132.22 27.163,148.9 21.438,166.81 9.276,204.87 6.969,243.02 12.969,277.22 c 0.015,0.07 0.015,0.12 0.031,0.19 3.373,14.66 8.997,30.1 18.062,45.5 3.271,-63.57 29.876,-138.15 77.348,-204.1 20.92,-29.067 43.94,-53.72 67.65,-73.435 z"
           style="fill:url(#radialGradient3963)"
           id="path3909" />
        <path
           inkscape:connector-curvature="0"
           transform="translate(-485.1,74.225)"
           d="m 377.69,223.97 c 2.18,2.14 4.51,4.29 6.87,6.47 -1.79,-2.27 -4.03,-4.44 -6.87,-6.47 z m 6.87,6.47 c 15.77,19.93 -4.98,47.47 13.38,59.53 6.1,5.06 14.33,9.57 18.44,15.12 7.87,0.02 11.52,-7.58 19.96,-3.65 5.81,-0.84 1.24,-6.06 2,-8.5 -2.24,-7.54 -12.12,-13.76 -19.31,-20.35 -4.82,-15.97 -20.67,-29.46 -34.47,-42.15 z"
           style="fill:#dcaa0d;filter:url(#filter3854)"
           id="path4193" />
        <path
           inkscape:connector-curvature="0"
           transform="translate(-485.1,74.225)"
           d="M 6.7188,143.97 C 6.0489,148.7 4.9795,151.94 4,151.78 c -0.3727,-0.06 -0.6802,-0.61 -0.9375,-1.53 -0.8478,2.18 -1.4392,4.45 -1.7187,6.87 3.1955,-0.51 5.7187,-4.78 5.7187,-10 0,-1.09 -0.1368,-2.16 -0.3437,-3.15 z"
           style="color:#000000;fill:url(#radialGradient3957);filter:url(#filter3952)"
           id="path4484" />
        <path
           transform="matrix(1,0,0,0.98208,0,2.1182)"
           d="m -284.52,121.22 c -16.552,13.668 15.145,6.2548 0,0 z m 5.2309,0.0308 c 0.35047,15.84 21.237,-5.0205 0,0 z m -24.062,0.73848 c -15.969,-4.6757 -6.4688,11.733 0,0 z m 40.309,0 c 5.8128,17.63 20.058,-4.0448 0,0 z m -59.14,2.277 c -20.759,-1.6546 3.9442,15.541 0,0 z m 83.941,0.70771 c -1.5949,15.448 17.857,-3.5019 0,0 z m -95.787,1.5385 c -14.615,-2.9831 -1.9774,11.617 0.10094,0.3057 z m 84.279,0.18462 c -14.121,8.7498 16.54,12.217 0,0 z m -17.662,0.0615 c -13.721,10.233 15.946,10.956 0,0 z m -79.541,3.0155 c -12.134,2.3554 -21.821,25.728 -2.6395,14.198 15.639,5.9374 -6.4658,-12.066 9.019,-7.2121 4.9922,-3.9448 -2.6874,-8.0946 -6.3795,-6.9859 z m 133.45,0.27693 c -9.296,18.833 19.311,-0.19996 0,0 z m -91.356,1.7847 c -1.5103,7.1991 -22.817,22.641 -4.488,18.934 3.2362,-4.2841 14.41,-15.413 4.488,-18.934 z m 77.879,1.1385 c -18.149,10.802 16.659,9.8849 0,0 z m -91.418,0.12308 c -16.335,9.4808 15.554,12.591 0,0 z m -15.385,0.89233 c -13.187,11.53 14.18,5.4735 0,0 z m 45.755,0.18462 c -15.437,12.027 17.256,9.5584 0,0 z m 14.8,2.1539 c -20.373,7.8834 13.561,9.679 0,0 z m 23.662,0.12308 c -11.422,14.394 19.523,10.259 0,0 z m 59.663,1.6616 c -18.016,9.7154 14.45,14.95 0,0 z m -25.508,0.40001 c -16.598,12.754 16.564,8.6022 0,0 z m 13.908,3.5693 c -15.714,12.238 16.872,8.7646 0,0 z m -178.62,1.3539 c -22.206,8.3945 7.5079,13.202 0,0 z m 117.02,1.9077 c -12.833,9.3941 15.047,12.901 0,0 z m -39.355,1.6 c -21.704,10.448 15.694,10.418 0,0 z m 73.602,0.24617 c -11.146,13.512 20.466,9.46 0,0 z m -6.8925,0.86156 c -13.717,8.736 13.414,8.4952 0,0 z m -12.462,0.83079 c -16.051,11.93 16.73,8.205 0,0 z m -117.73,0.58463 c -13.298,8.8295 15.844,12.018 0,0 z m 95.233,1.5385 c -17.614,14.029 19.318,6.1939 0,0 z m -77.633,0.64617 c -18.577,12.573 18.637,7.5058 0,0 z m 11.908,0.0615 c -14.244,9.3861 14.659,10.327 0,0 z m 11.631,1.7847 c -16.246,9.155 13.61,13.122 0,0 z m 35.939,1.7231 c -23.628,11.131 15.566,10.896 0,0 z m -102.68,0.15385 c -13.583,9.7297 15.56,9.8198 0,0 z m 233.42,1.0462 c -12.678,9.0097 13.867,12.934 0,0 z m -39.878,2.1231 c -13.813,10.295 14.796,15.198 0,0 z m -60.217,0.95387 c -24.774,11.135 20.273,8.7456 0,0 z m -20.339,0.0923 c -14.609,9.6788 14.749,12.161 0,0 z m 64.309,0.12308 c -9.0508,0.64482 -20.785,13.105 -5.4366,11.537 -0.24017,-4.9491 21.379,-4.4397 5.4366,-11.537 z m 39.509,0.55386 c -13.132,14.824 19.882,5.4714 0,0 z m -135.63,0.67694 c -13.532,8.3168 13.712,9.3998 0,0 z m 164,0.33847 c -14.519,8.7294 14.031,11.419 0,0 z m -93.449,2.0001 c -11.24,11.383 16.397,6.8623 0,0 z m 110.28,0.98464 c -12.343,11.983 16.724,7.6921 0,0 z m -258.25,0.76925 c -11.7,13.307 18.33,8.979 0,0 z m 116.99,0.3077 c -15.312,8.7447 16.468,8.4618 0,0 z m -133.2,0.70771 c -11.708,5.1555 -15.001,22.762 0.0632,9.4608 6.2238,-2.0553 8.0319,-7.7852 -0.0632,-9.4608 z m 244.04,0 c -17.84,11.326 17.562,9.2836 0,0 z m -186.93,0.33848 c -12.721,13.767 18.785,10.127 0,0 z m 141.54,0.95387 c -14.952,-0.20182 -11.327,28.954 -4.1287,16.944 1.5256,-7.9335 27.282,14.097 19.997,-3.5499 -10.583,0.55954 -13.523,-7.5775 -13.499,-13.086 l -1.1944,-0.15512 -1.1749,-0.15258 -3e-5,-3e-5 z m -42.032,0.95387 c -15.465,9.6177 15.279,11.717 0,0 z m -39.54,0.40001 c -12.454,9.1487 15.396,8.8114 0,0 z m 93.049,1.0154 c -17.803,11.232 17.281,8.2925 0,0 z m 16.985,0.40002 c -23.937,4.5267 1.3147,18.69 9.3809,4.5454 -0.84008,-4.0825 -6.3334,-3.284 -9.3809,-4.5454 z m -193.21,1.6924 c -12.548,5.5053 10.433,25.169 3.265,6.2314 2.372,-3.0504 0.94131,-6.7457 -3.265,-6.2314 z m 252.78,0.15385 c -5.9686,3.4824 -14.81,14.947 -1.2154,9.9836 7.0996,-1.4053 10.191,-7.0072 1.2154,-9.9836 z m -240.78,1.477 c -16.544,12.667 18.921,6.2437 0,0 z m 124.83,0.33847 c -12.266,11.359 16.319,10.387 0,0 z m -61.509,1.4462 c -16.317,11.626 14.175,8.5238 0,0 z m 155.7,0 c -15.751,9.0316 14.881,10.048 0,0 z m -146.68,3.077 c -16.47,13.12 17.412,7.8837 0,0 z m -36.216,0.43078 c -18.029,15.683 17.211,7.3653 0,0 z m 47.294,0.43078 c -19.36,12.633 14.944,10.064 0,0 z m 124.4,0.46155 c -19.223,10.862 16.418,9.2968 0,0 z m -256.78,0.36924 c -12.734,10.409 14.296,12.332 0,0 z m 144.16,1.3231 c -18.036,11.695 13.402,10.11 0,0 z m 85.541,0.0923 c -16.527,11.959 17.141,8.9507 0,0 z m -73.94,0.30771 c -14.446,12.632 16.451,6.9905 0,0 z m 123.11,0.83079 c -15.822,3.4364 6.2647,26.455 1.4808,8.5967 2.6467,-3.0969 4.593,-7.7935 -1.4808,-8.5967 z m -212.9,1.0462 c -18.122,11.263 16.395,10.882 0,0 z m 201.94,0.73848 c -16.444,9.1269 12.86,15.354 0,0 z m -222.31,0.73848 c -11.909,11.934 22.084,6.1235 1.7332,0.26237 l -1.1909,-0.18027 -0.54231,-0.0821 z m 65.51,0.5231 c -14.853,13.879 14.798,9.9004 0,0 z m 184.62,1.9385 c -16.541,10.109 15.85,9.8432 0,0 z m -282.41,0.6154 c -16.791,9.3189 15.778,10.788 0,0 z m 226.87,0.18462 c -11.629,11.052 19.627,4.4438 -3e-5,0 z m -57.694,0.15385 c -13.893,10.829 19.709,7.2467 0.26233,0.0487 l -0.26233,-0.0487 v -3e-5 z m -87.479,0.46155 c -11.225,11.985 18.94,5.4583 0,0 z m 106.06,0.0923 c -13.931,9.766 14.936,11.314 0,0 z m -67.233,0.58464 c -15.119,12.114 14.961,8.6704 0,0 z m -151.7,0.12308 c -15.65,11.334 14.533,10.59 0,0 z m 241.98,0.46155 c -13.985,5.8639 12.902,10.339 0,0 z m -234.01,0.0923 c -13.826,9.2549 16.758,12.853 0,0 z m 265.48,0.33847 c -12.524,9.1196 12.873,7.2027 0,0 z m -83.418,0.0308 c -18.861,12.283 15.357,9.4734 0,0 z m -86.433,2.2154 c -15.918,9.853 15.742,10.908 0,0 z m 128.4,1.0154 c -16.293,9.9288 13.83,14.108 0,0 z m -187.36,0.98464 c -13.636,14.864 20.154,4.8833 0,0 z m 284.68,0.3077 c -12.727,14.173 19.505,5.6614 0,0 z m -147.7,0.67694 c -14.578,12.756 14.567,9.9866 0,0 z m 29.139,1.6924 c -14.714,9.3472 14.527,14.681 0,0 z m -40.74,1.2616 c -16.062,9.6509 15.378,10.383 0,0 z m 126.5,0.9231 c -30.27,7.6972 21.005,24.539 14.823,3.4585 -8.3502,-1.32 -11.19,8.5829 -14.823,-3.4585 z m -78.771,1.1077 c -9.0221,13.326 21.67,5.2753 1.1651,0.12424 z m -99.357,0.43078 c -14.199,12.707 14.452,10.489 0,0 z m -45.694,0.0923 c -14.63,14.414 14.547,9.3404 0,0 z m 196.84,0.58463 c -15.088,9.743 16.243,11.242 0,0 z m 71.356,0.12308 c -20.107,19.622 16.99,13.127 0,0 z m -328.81,0.3077 c -11.237,14.261 14.915,9.8842 0,0 z m 83.787,0 c -10.835,12.369 21.276,3.2319 13.76,17.626 18.828,5.579 -3.8532,-24.643 -13.76,-17.626 z m 158.99,0.0923 c -20.255,13.252 19.774,7.6231 0,0 z m -106.5,0.0308 c -17.577,9.8437 16.434,10.751 0,0 z m 55.109,1.7847 c -19.951,10.625 18.337,7.1769 0,0 z m -171.57,0.73849 c -14.148,13.326 15.227,9.1736 0,0 z m 147.02,2.6462 c -13.414,6.7839 12.771,9.3796 0,0 z m 146.34,0.21539 c -10.719,11.204 20.156,9.1066 1.9955,0.24415 l -1.1955,-0.1463 -0.79991,-0.0979 v 4e-5 z m -266.65,0.64618 c -13.61,9.0878 15.282,9.7256 0,0 z m 106.99,0.24616 c -12.03,13.361 15.963,11.164 0,0 z m 131.63,0.18462 c 1.2389,-0.11711 -1.3544,1.5626 0,0 z m -107.73,0.3077 c -13.667,11.788 14.223,5.8666 0,0 z m 125.7,0.76925 c -14.736,10.771 12.902,6.9815 0,0 z m -73.602,0.64617 c -21.576,11.885 18.945,8.6096 0,0 z m -109.66,0.0923 c -15.895,7.8524 14.84,12.473 0,0 z m 82.341,1.1385 c -17.201,10.436 17.005,8.2252 0,0 z m -120.43,0.33847 c -12.919,9.1909 13.982,9.0326 0,0 z m 252.84,0.12309 c -12.654,12.664 15.369,8.689 0,0 z m -362.41,0.70771 c -13.931,16.904 19.031,3.6822 0,0 z m 322.93,1.5077 c -23.832,10.79 15.442,10.732 0,0 z m -311.36,0.0308 c -16.967,13.17 15.029,10.195 0,0 z m 360.38,0.67694 c -10.795,8.6874 15.496,10.605 0,-4e-5 z m -127.63,0.0308 c -16.388,7.9374 14.383,11.092 0,0 z m -214.41,1.0154 c -16.002,12.327 17.74,7.7545 0,0 z m 275.88,0.21539 c -14.858,12.111 17.331,9.8115 0,0 z m -141.39,0.89233 c -17.698,11.383 18.146,7.1828 0,0 z m -106.06,0.0308 c -23.141,9.9524 19.057,8.334 0,0 z m 225.42,0.27693 c -22.482,10.524 20.368,7.8454 0,0 z m 68.186,0.40001 c -23.013,9.8901 19.37,8.6092 0,0 z m -16.554,0.0308 c -12.761,12.798 14.261,9.612 0,0 z m -245.21,0.67694 c -25.837,12.243 19.574,7.3152 0,0 z m 104.06,0.36924 c -16.801,4.0896 -6.3736,20.979 3.2623,6.3804 2.3054,-2.6615 0.31756,-6.6084 -3.2623,-6.3804 z m -123.08,0.21539 c -18.719,12.207 17.108,7.3658 0,0 z m 103.08,1.077 c -12.474,9.9004 13.848,13.486 0,0 z m -19.57,1.2308 c -13.31,6.3789 12.294,9.4443 0,0 z m -114.4,0.83079 c -10.461,13.705 19.052,7.8365 0,0 z m 329.15,0.27693 c -22.495,1.6827 4.9729,19.175 2.6335,0.95778 z m -162.1,0.0308 c -8.8462,1.46 -17.169,15.819 -2.4095,10.85 3.3307,-1.8124 9.3581,-9.1137 2.4095,-10.85 z m 51.171,0.21539 c -12.999,13.225 18.4,10.936 0,0 z m -133.85,2.0001 c -12.874,11.792 19.817,6.3373 0,3e-5 z m -47.047,0.83079 c -13.512,7.1301 12.929,10.011 0,0 z m 302.62,0.36924 c -2.4547,10.008 9.9047,7.7504 0,0 z m -49.109,1.2308 c -16.281,10.23 15.271,10.166 0,0 z m -102.06,0.2154 c -18.084,8.4208 14.641,9.183 0,0 z m -63.725,1.2308 c -15.176,2.4102 -5.3284,23.399 1.4825,8.6924 5.9151,-2.8603 5.2252,-8.2127 -1.4825,-8.6924 z m 15.416,0 c -14.812,12.617 15.811,7.6646 0,0 z m -174.87,0.15385 c -18.3,10.277 16.405,10.325 0,0 z m 51.201,3.3539 c -12.136,12.699 15.183,4.7816 0,0 z m 155.39,0 c -14.051,13.148 20.033,6.6459 0,0 z m -121.97,0.0615 c -18.068,12.821 14.673,9.4186 0,0 z m 55.294,0.24616 c -14.516,10.908 20.462,9.3014 0,0 z m 230.53,0.36924 c -15.814,9.9828 14.966,10.664 0,0 z m -79.971,0.27693 c -12.154,9.9891 -0.92738,36.226 6.2501,15.314 7.2498,-8.6894 -14.693,0.68075 -3.1659,-9.8272 1.5997,-2.1472 0.15346,-6.151 -3.0842,-5.4871 z m -52.001,0.0615 c -12.722,10.646 16.454,12.145 0,0 z m -175.6,0.21539 c -16.496,9.9728 15.898,10.818 0,0 z m -38.893,1.0462 c -13.963,12.749 18.693,2.2669 0,0 z m -42.032,0.21539 c -7.8236,9.7791 -5.8119,26.167 1.2632,6.9919 1.3279,-2.3218 0.63721,-5.2877 -1.2632,-6.9919 z m 375.21,0 c -20.202,11.249 16.302,13.335 0,0 z m -256.35,0.33847 c -14.018,9.2497 15.812,5.7899 0,0 z m 82.648,0.73849 c -19.485,10.985 17.325,11.564 0,0 z m 82.741,0.21539 c -17.008,12.496 18.582,8.6794 0,0 z m -256.31,0.40001 c -15.627,13.306 17.695,6.9153 0,0 z m 162.65,1.2308 c -14.77,6.7599 14.217,11.672 0,0 z m -182.28,0.36924 c -15.873,10.893 23.909,8.6287 4.4543,1.9112 l -1.417,-0.4711 z m 53.017,0.15385 c -5.3585,2.9496 -23.142,8.6305 -6.8615,9.5575 5.1816,-0.20471 17.16,-4.1492 6.8615,-9.5575 z m 299.05,0.95388 c -14.348,8.8784 15.856,5.9063 0,0 z m -220.04,0.3077 c -13.079,9.1185 13.091,13.082 0,0 z m 94.587,0 c -14.773,13.104 17.348,8.1265 0,0 z m 101.36,0.58463 c -12.188,8.3854 13.702,8.2652 0,0 z m -70.34,0.36924 c -14.05,9.0942 14.695,12.372 0,0 z m 135.42,0.40001 c -10.119,8.9297 12.833,12.418 0,0 z m -14.185,1.2923 c -19.434,16.107 20.414,4.8633 0,0 z m -134.96,0.73848 c -14.28,12.627 14.854,9.9557 0,0 z m 97.264,0.15386 c -18.511,12.773 18.328,8.1112 0,0 z m -129.3,0.89233 c -16.652,8.8621 16.686,6.4101 0,0 z m 74.279,0.21539 c -11.976,12.872 15.761,9.2983 0,0 z m -220.01,0.76925 c -18.772,10.09 14.782,9.0175 0,0 z m -37.878,0.58463 c -13.253,5.0218 7.4838,24.057 4.746,5.3606 0.62669,-2.7655 -1.897,-5.6672 -4.746,-5.3606 z m -15.785,0.3077 c -14.642,11.322 25.967,12.062 4.9848,3.1077 l -2.1094,-2.2142 -2.8754,-0.89354 z m 304.29,0.0923 c -11.962,12.628 15.649,9.3426 0,0 z m -95.233,0.27693 c -15.283,13.092 15.023,9.72 0,0 z m -21.385,0.70772 c -12.27,2.0476 -14.211,14.106 -0.39446,7.1536 6.8673,-0.2791 7.3273,-5.0956 0.39446,-7.1536 z m -27.324,0.36924 c -14.551,12.361 14.851,10.79 0,0 z m -20.954,0.36924 c -21.529,12.644 20.143,9.7707 0,0 z m 201.91,0.6154 c -14.791,13.396 17.912,7.1765 0,0 z m -122.96,0.36924 c -18.567,11.976 13.542,11.216 0,0 z m -118.5,0.21539 c -23.101,9.5624 16.368,10.474 0,0 z m 166.47,0.18462 c -21.462,11.324 19.372,6.9178 0,0 z m -187.05,1.5385 c -16.621,7.9691 19.962,8.9305 0,0 z m 296.25,0.0308 c -13.743,9.3238 12.911,9.4259 0,0 z m -17.324,1.1385 c -10.467,14.96 23.113,6.251 0,0 z m -293.27,0.70771 c -14.875,11.725 16.2,8.521 0,0 z m -29.139,0.9231 c -12.515,11.642 16.099,10.334 0,0 z m 82.987,0.58463 c -13.544,7.0439 11.806,14.214 0,0 z m 192.59,0.64618 c -12.533,9.1599 15.665,4.9327 4e-5,3e-5 z m -323.52,0.46155 c -18.339,11.119 16.683,8.658 0,0 z m 207.24,0.64617 c -15.945,0.31072 -9.4104,15.175 2.9794,6.4479 5.9839,-2.6739 1.682,-6.6022 -2.9794,-6.4479 z m 125.76,0.58463 c -12.756,9.3216 15.537,11.831 0,0 z m -170.44,0.43 c -11.515,10.598 18.584,10.972 1.9587,0.35987 l -1.1846,-0.21767 -0.77408,-0.14224 v 4e-5 z m 85.849,0.0615 c -12.699,12.084 14.987,5.3944 0,0 z m 12.77,0.46155 c -13.59,11.989 19.938,5.7125 0,0 z m -253.08,0.0615 c -11.121,15.408 32.086,2.3963 8.9129,1.5586 -2.8401,2.1031 -6.4455,-0.37425 -8.9129,-1.5586 z m 208.96,1.0462 c -14.288,14.461 19.736,4.1315 0,0 z m 127.67,0.0923 c -19.137,9.2614 14.666,10.784 0,0 z m -32.616,2.0308 c -12.581,9.0923 12.941,7.1257 0,0 z m -276.44,0.36924 c -15.693,12.312 17.664,7.7937 0,0 z m 140.96,0.36924 c -19.51,12.05 18.731,10.593 0,0 z m 182.37,0.98465 c -20.824,12.023 19.081,10.349 0,0 z m -223.21,0.15385 c -11.999,13.823 15.598,10.257 0,0 z m -153.36,0.33847 c -12.054,11.721 19.019,8.7751 0.62493,0.20035 l -0.62493,-0.20032 z m 249.21,0.27693 c -13.705,12.882 18.436,8.8258 0,0 z m 144.65,0.58463 c -6.4057,5.7959 -6.2108,24.98 2.1074,10.931 0.78682,-3.1844 2.5965,-9.7345 -2.1074,-10.931 z m -95.08,0.95387 c -20.193,8.4484 10.844,12.649 0,0 z m -167.67,0.3077 c -17.223,13.669 15.951,8.6152 0,0 z m 282.65,0.55386 c -9.5857,12.812 19.892,6.736 0.92539,0.1256 z m -244.5,0.18462 c -12.221,13.738 15.094,9.5225 0,0 z m 174.68,0.43078 c -13.178,1.5169 -3.6701,25.2 0.34764,8.6158 4.3787,-1.2373 5.241,-8.8142 -0.34764,-8.6158 z m -120.86,0.33848 c -13.032,10.007 16.463,9.7154 0,0 z m -114.93,0.9231 c -14.002,10.694 12.885,6.4735 0,0 z m 159.33,0.70771 c -2.7789,11.247 -35.175,21.242 -10.236,22.134 2.2269,3.7446 -4.3596,23.666 10.188,19.252 -5.847,-6.7794 -3.739,-17.437 5.4952,-19.271 -16.473,6.4645 8.0728,24.725 2.0938,6.5352 14.078,0.39652 17.628,-33.12 5.8851,-21.242 0.44159,8.3042 -6.612,-11.353 -13.427,-7.4088 z m -199.24,1.477 c -15.973,13.571 18.762,7.1328 0,0 z m 239.82,0.0615 c -15.367,14.613 18.587,5.7207 0,0 z m -210.96,0.8308 c -20.062,10.681 16.197,8.8093 0,0 z m 82.956,0.0615 c -13.899,13.031 19.654,7.3834 0,0 z m -142.28,0.76925 c -11.802,10.944 16.56,8.4576 0,3e-5 z m 367.27,0.43078 c -12.85,10.456 18.505,7.973 0.10787,0.0251 l -0.10787,-0.0251 v -3e-5 z m -318.53,0.0615 c -22.21,13.948 18.369,8.2804 0,0 z m -71.448,0.27693 c -13.005,10.269 19.142,8.2432 0,3e-5 z m 341.49,0.24616 c -17.664,6.21 13.049,12.832 0,0 z m -103.51,0.36924 c -17.674,8.7938 15.501,11.483 0,0 z m -49.078,0.55386 c -19.061,12.802 14.888,9.087 0,0 z m 36.77,0.0615 c -15.869,8.8727 14.989,8.0119 0,0 z m -215.33,0.21539 c -15.555,10.034 9.297,18.671 3.6318,1.8979 l -1.5983,-1.4002 -2.0336,-0.49764 z m 348.63,0.21539 c -16.628,9.625 14.483,14.641 0,0 z m -235.14,0.12308 c -15.54,12.161 15.814,8.5324 0,0 z m 15.631,2.5847 c -17.264,9.8498 17.729,10.289 0,0 z m 111.57,0.0308 c 19.79,0.50129 -14.001,19.594 0.59627,1.6191 z m -74.094,0.0923 c -14.254,13.543 14.341,13.008 0,0 z m 113.82,1.3847 c -11.255,10.708 17.028,7.7039 -3e-5,3e-5 z m 20.401,0.58463 c -24.726,10.926 19.023,8.7475 0,0 z m -29.57,2.5539 c -18.502,8.1317 17.762,9.5271 0,0 z m -192.59,0.49233 c -12.756,7.1521 12.331,9.3151 0,0 z m -49.109,0.6154 c -22.21,9.4728 15.513,9.2992 0,0 z m 114.56,0.64617 c -13.164,8.1076 13.327,9.3346 0,0 z m -47.755,0.33847 c -17.204,8.3867 14.648,10.808 0,0 z m -52.709,0.36924 c -10.847,12.757 16.75,8.1651 0,0 z m 312.53,0.0308 c -13.695,8.7732 15.815,12.959 0,0 z m 34.093,0.0615 c -23.123,8.3774 18.192,8.6142 0,0 z m -75.448,0.6154 c -20.734,9.0093 13.525,15.374 0,0 z m 17.293,0.80002 c -18.555,14.943 18.901,5.8303 0,0 z m -262.62,0.0923 c -16.269,9.5636 15.581,13.08 0,0 z m 298.93,1.077 c -19.933,2.41 5.6445,30.625 1.0908,10.692 14.397,-2.9106 12.228,-5.5858 -1.0908,-10.692 z m -178.16,0.40001 c -19.554,11.802 17.411,9.7763 0,0 z m -217.3,0.83079 c -26.998,19.015 16.454,9.2661 0,0 z m 316.65,0.98464 c -14.437,10.07 20.027,7.3598 0,0 z m -173.73,1.3847 c -11.566,9.9224 15.528,7.8115 0,0 z m -53.325,0.98464 c -16.951,8.7798 15.268,11.143 0,0 z m -69.017,0.15385 c -12.956,6.9113 12.528,9.2554 0,0 z m 13.908,0 c -21.133,11.601 18.44,8.8122 0,0 z m 13.539,0.15385 c -16.638,13.324 14.732,11.741 0,0 z m 62.279,0.12308 c -19.626,11.447 15.999,9.5851 0,0 z m 181.42,0.43078 c -14.293,7.7269 13.857,10.368 0,0 z m -58.309,0.46155 c -18.559,14.563 16.712,9.0715 0,0 z m 73.356,1.3539 c -17.06,10.022 16.134,10.584 0,0 z m -105.14,0.40001 c -15.819,12.764 16.069,8.821 0,0 z m -196.04,0.76925 c -12.827,8.6283 12.505,7.2645 0,0 z m 371.12,0.0308 c -11.375,10.993 24.178,18.047 5.1988,5.2411 -2.0466,-1.2702 -4.733,-2.5543 -5.1988,-5.2411 z m -48.094,0.0615 c -16.233,12.138 15.874,9.107 0,0 z m 96.372,0.98464 c -15.534,11.124 12.437,12.09 0,0 z m -63.786,0.24616 c -12.906,11.593 16.326,10.235 0,0 z m -114.37,1.7231 c -12.84,9.6774 14.263,13.041 0,0 z m -149.51,1.2 c -11.903,13.254 16.35,10.749 0,0 z m 89.633,0.18462 c -13.421,9.0623 11.552,8.4967 0,0 z m 160.37,0.18462 c -17.802,10.449 16.489,9.1352 0,0 z m 57.971,0.49232 c -14.076,8.9641 14.425,12.965 0,0 z m -330.99,0.15385 c -12.845,12.949 14.444,9.3534 0,0 z m 210.34,0.40001 c -13.583,13.756 13.911,10.343 0,0 z m 52.771,0.33847 c -15.537,6.6043 16.13,12.642 0,0 z m -164.56,0.95388 c -12.521,10.35 15.16,12.291 0,0 z m -59.232,0.73848 c -25.482,11.816 20.199,9.2681 0,0 z m 23.078,0.70771 c -17.064,9.7533 15.989,10.497 0,0 z m -96.341,0.40001 c -19.246,13.392 18.724,7.4237 0,0 z m 257.18,1.2 c -14.586,14.06 14.588,9.4817 0,0 z m -135.33,0.0923 c -18.019,11.185 16.198,8.6541 0,0 z m -155.42,0.0308 c -14.935,11.647 17.76,4.4119 0,0 z m 308.93,0.12308 c -14.27,10.837 17.02,5.2976 0,0 z m -298.87,0.0923 c -13.044,14.514 27.679,8.083 7.864,4.7491 -3.0721,0.36523 -3.9939,-6.4758 -7.864,-4.7491 z m 312.72,0.43078 c -18.706,14.898 18.291,6.2034 0,0 z m -268.65,0.52309 c -15.151,13.574 20.11,7.2504 0,0 z m 160.04,1.3539 c -13.872,10.69 13.713,6.3612 0,0 z m 152.07,0.52309 c -16.961,10.314 16.673,9.0967 0,0 z m 44.709,0.98465 c -14.729,12.91 13.572,12.145 0,0 z m -205.39,0.6154 c -19.984,10.252 16.526,10.577 0,0 z m -131.36,0.43078 c -20.859,11.884 17.917,8.8601 0,0 z m 171.42,0.46155 c -15.314,9.0714 15.182,7.7313 0,0 z m -12.954,0.43078 c -20.164,10.836 18.628,9.0525 0,0 z m 153.79,0.0308 c -17.889,10.926 15.537,9.7645 0,0 z m -68.802,1.6924 c -17.678,13.143 20.492,7.2633 0,0 z m 104.99,0.55386 c -10.879,8.5364 11.986,8.3615 0,0 z m -341.55,0.36924 c -12.805,12.56 15.21,8.6724 0,0 z m 90.126,0.33847 c -13.251,8.1746 14.232,9.4693 0,0 z m 161.94,0.73848 c -12.908,11.909 15.781,5.6777 0,0 z m -229.14,0.18462 c -17.561,11.395 17.699,8.8331 0,0 z m 172.07,0.27693 c -17.934,9.8965 16.319,9.9843 0,0 z m -83.418,0.15385 c -13.437,8.8475 16.819,4.9187 0,3e-5 z m 110.9,0.36924 c -9.9937,13.571 20.189,5.2924 0.66066,0.0993 z m 52.863,0.0308 c -14.784,7.6882 13.652,10.756 0,0 z m -320.96,0.3077 c -16.73,8.2919 14.528,8.3418 0,0 z m 106.19,2.9847 c -24.197,12.726 19.763,8.4565 0,0 z m -82.556,0.9231 c -17.504,8.8812 15.147,11.512 0,0 z m 309.98,0.67695 c -18.974,13.593 19.403,7.7942 0,0 z m -351.92,0.0923 c 1.9055,21.967 -19.264,14.143 -28.698,3.1186 -2.8914,5.6701 -0.025,15.175 2.4074,19.925 11.841,-3.968 41.194,2.098 30.625,-20.718 l -1.9244,-1.6378 -2.4098,-0.68801 z m 197.54,0.86156 c -17.488,13.119 14.019,10.618 0,0 z m -98.526,0.0615 c -16.236,7.8006 15.876,9.4085 0,0 z m -109.05,0.67694 c -19.526,10.776 17.915,10.532 0,0 z m 154.9,0 c -16.744,10.36 16.097,10.246 0,0 z m 264.62,0.27693 c -7.1463,10.998 9.9279,16.494 1.1057,2.3247 l -0.1378,-1.693 -0.96791,-0.63171 z m -242.47,0.0615 c -13.701,7.2816 13.197,9.4625 0,0 z m 209.94,0.36924 c -13.404,8.9786 17.165,12.083 0,0 z m -103.08,0.86156 c -11.911,2.5528 -22.804,17.017 -6.1854,21.366 -14.794,5.808 5.655,8.633 12.22,7.0212 7.9843,10.989 19.237,-13.843 5.4941,-4.3797 -12.891,-0.84774 -3.033,-11.242 -0.66311,-13.944 -2.8737,-4.5912 -30.715,10.321 -15.399,0.12484 7.2584,-0.71154 12.085,-4.8823 4.5336,-10.188 z m -42.647,0.18462 c -14.547,14.019 14.855,9.0831 0,0 z m 103.48,0.46156 c -16.577,7.785 13.906,11.291 0,0 z m -268.68,0.64617 c -14.499,11.81 19.574,6.0471 0,0 z m 114.62,0.64617 c -15.72,12.25 14.508,9.4997 0,0 z m 109.7,0.9231 c -14.866,5.7487 21.797,20.751 7.8156,4.3951 -2.0158,-2.0982 -4.5323,-4.8505 -7.8156,-4.3951 z m -262.59,0.73848 c -24.22,11.854 19.821,8.0906 0,0 z m 218.5,0.33847 c -12.598,13.163 14.148,9.7332 0,0 z m 74.587,0.0615 c -18.213,10.927 9.2162,18.649 1.9698,0.52502 z m -168.99,0.98465 c -16.658,0.71073 -9.9455,32.46 -2.4582,11.246 2.8166,-2.7366 9.6421,-8.5436 2.4582,-11.246 z m 245.15,0.33847 c -16.179,9.8486 15.466,11.099 0,0 z m -45.909,0.24616 c -11.894,13.856 18.169,6.2414 0,0 z m -314.81,2.9539 c -9.2827,10.469 17.665,12.541 22.992,15.014 2.164,-17.554 -15.9,-11.208 -22.992,-15.014 z m 190.44,1.2 c -17.72,13.965 17.398,13.446 0,0 z m -15.877,0.24616 c -12.08,12.347 19.823,5.4823 0.82818,0.11349 z m -145.11,0.24616 c -15.904,13.652 14.092,11.386 0,0 z m 43.417,0.21539 c -10.504,13.037 21.012,7.2057 1.4178,0.2213 l -1.19,-0.18575 -0.22772,-0.0356 z m 21.847,0.83079 c -11.09,11.23 17.149,7.5909 0.69837,0.0807 z m 42.74,0.3077 c -13.949,10.559 15.705,11.048 0,0 z m 117.17,0.43079 c -16.806,8.515 14.866,12.298 0,0 z m -101.45,0.43078 c -14.154,8.7545 16.194,12.626 0,0 z m 149.36,0.36924 c -13.522,7.7255 13.371,9.142 0,0 z m -244.93,0.15385 c -18.598,11.576 16.049,9.3464 0,0 z m -82.495,0.73848 c -16.112,11.472 18.391,7.3858 0,0 z m 230.84,0.67694 c -13.702,2.0477 -9.9178,10.22 -1.8486,11.182 7.3492,17.689 8.5036,-10.338 1.8486,-11.182 z m -83.91,2.3078 c -12.9,13.311 14.633,9.9547 0,0 z m 251.82,0.43078 c -12.063,11.621 17.351,8.0356 0,0 z m -54.925,0.15385 c -14.674,10.635 15.316,11.327 0,0 z m -83.572,0.36924 c 2.4002,1.6422 -3.015,2.0115 0,0 z m -241.98,0.43078 c -18.031,11.933 18.525,5.7558 0,0 z m -46.524,0.67694 c -11.195,12.82 19.104,6.0261 0.78358,0.1402 z m 87.356,0.58463 c -17.19,9.7089 12.818,8.2124 0,0 z m 313.3,0.0308 c -21.751,10.455 20.371,8.2418 0,0 z m -68.648,1.477 c -18.879,10.704 16.321,9.9618 0,0 z m -184.56,0.64617 c -18.27,11.625 14.639,10.371 0,0 z m 200.68,0.3077 c -13.672,11.052 13.891,6.4772 0,0 z m -113.05,1.1693 c -17.675,10.308 16.574,9.4944 0,0 z m -98.003,0.95388 c -14.192,9.5576 14.666,11.729 0,0 z m -73.294,0.49232 c -13.67,9.0248 15.664,13.05 0,0 z m 38.278,0.12308 c -12.029,14.576 18.58,10.211 0,0 z m 287.05,0.40001 c -15.602,8.4123 15.966,6.7594 0,0 z m -260.35,1.077 c -23.821,10.455 14.267,11.498 0,0 z m 29.601,0.98464 c -20.669,11.1 16.044,8.7735 0,0 z m -138.4,0.0308 c -14.578,7.9484 17.389,13.174 0,0 z m 386.16,0.15386 c -13.748,10.561 15.816,6.9354 0,0 z m -157.7,0.0308 c -18.058,11.868 18.35,7.7871 0,0 z m -255.61,1.3231 c -14.403,5.4352 14.287,11.959 0,0 z m 53.725,0.24616 c -13.556,13.304 13.557,11.1 0,0 z m 34.247,0.12308 c -15.684,12.683 13.586,11.972 0,0 z m 37.047,0.15385 c -21.069,11.371 8.3173,16.811 2.7575,0.66387 z m 254.07,0.40001 c -15.455,11.53 13.013,9.678 0,0 z m -184.31,0.0923 c -14.358,12.127 16.131,7.4863 0,0 z m 144.65,1.3231 c -16.106,8.9636 16.448,5.8742 0,0 z m -15.047,1.8462 c -13.739,6.5582 12.731,9.7073 0,0 z m -262.13,0.70771 c -13.608,11.394 25.299,9.3503 5.5112,0.51022 -2.0422,4.8085 -2.9168,-1.1113 -5.5112,-0.51022 z m 141.51,0.21539 c -18.583,12.579 16.922,8.5533 0,0 z m 76.31,0 c -13.114,10.421 16.477,10.121 0,0 z m -100.65,0.0308 c -14.286,8.7558 14.358,11.67 0,0 z m 47.94,0.49232 c -14.951,8.2884 16.316,6.5216 0,3e-5 z m 22.739,0.52309 c -19.837,11.821 16.103,9.2874 0,0 z m 100.86,0.0615 c -12.722,10.805 17.098,11.039 0,0 z m 10.277,0.49233 c -14.254,8.8434 16.893,12.601 0,0 z m 65.263,0.27693 c -17.685,11.898 17.339,8.3075 0,0 z m -126.37,1.2308 c -20.604,11.863 17.842,9.9644 0,0 z m 14.923,0.0308 c -14.766,7.2454 15.684,6.9807 0,2e-5 z m -166.77,0.52309 c -13.21,8.9732 13.361,11.865 0,0 z m -133.27,0.24616 c -18.324,11.114 17.327,10.963 0,0 z m 424.23,0.95387 c -11.412,3.3346 7.3648,13.046 0,0 z m -396.56,0.49233 c -12.899,11.938 16.965,11.226 0,0 z m 55.848,0.0615 c -16.349,9.9672 15.824,9.6966 0,0 z m 159.05,0.83079 c -23.015,12.728 20.692,7.564 0,0 z m 13.385,0.21539 c -19.049,8.5423 14.333,9.63 0,0 z m -57.386,0.55386 c -14.106,11.337 18.921,7.6558 0,0 z m -76.894,0.64617 c -13.554,8.9277 15.608,6.122 0,0 z m -76.864,1.2616 c -16.88,8.2858 14.507,12.297 0,0 z m 99.787,0.21539 c -13.86,11.353 19.123,8.9086 0,0 z m 271.24,1.1693 c -12.151,12.878 15.005,10.891 0,0 z m -89.11,0.64617 c -8.8898,10.914 17.466,12.999 22.926,18.922 1.5545,-5.3753 22.639,-9.5105 10.942,-14.125 -10.3,2.4865 -25.857,5.1271 -33.867,-4.7974 z m 44.832,1.1693 c -11.038,13.007 17.873,7.1047 0,0 z m 13.851,0.27 c -12.747,13.65 18.447,9.7446 0,0 z m -106.74,0.0615 c -6.1209,11.893 -15.662,-7.1274 -18.601,9.5675 -6.2849,13.125 10.179,-7.4954 9.2283,5.036 6.3002,3.4432 16.347,-10.849 9.373,-14.604 z m 32.032,0 c -15.058,8.1231 14.834,11.199 0,0 z m -205.24,0.86157 c -12.579,14.637 23.943,4.8049 0,0 z m -42.186,0.86156 c -13.719,8.6044 15.628,6.0258 0,-4e-5 z m 96.064,0.15385 c -15.187,10.646 14.488,6.0647 0,0 z m 134.31,0.49232 c -15.462,11.223 16.375,9.9578 0,0 z m -101.17,1.7539 c -14.895,12.334 15.169,8.6483 0,0 z m -172.87,0.0308 c -10.493,14.791 22.774,6.3207 0,0 z m 154.16,0.0923 c -13.891,12.889 26.918,6.2563 5.0027,2.1383 l -1.4565,0.01 -3.5462,-2.1478 z m 225.98,1.3847 c -13.713,8.4582 18.709,12.947 0,0 z m -153.42,0.70771 c -13.695,6.4438 12.639,9.87 0,0 z m -201.54,0.49232 c -19.013,14.812 18.008,6.7543 0,0 z m 373.43,2.0616 c -12.707,1.927 -11.073,19.152 0.80643,8.1313 3.8982,-2.2315 4.8198,-7.7815 -0.80643,-8.1313 z m -421.4,0.18462 c -17.568,11.073 17.165,9.1802 0,0 z m 229.54,0.33847 c -12.658,13.463 22.377,4.7752 0,0 z m -105.23,1.2308 c -17.393,10.393 16.838,9.0292 0,0 z m 43.817,0.0308 c -12.556,11.071 15.72,12.17 0,0 z m -12.893,0.76925 c -19.627,8.5221 21.288,10.3 0,0 z m -63.356,0.40001 c -12.312,12.144 16.096,10.882 0,0 z m 217.82,2.7385 c -13.93,9.055 14.855,10.267 0,0 z m -272.96,0.21539 c -15.118,11.903 17.475,9.3012 0,0 z m 300.47,0.24616 c -13.61,12.99 14.274,9.5063 0,0 z m -57.294,1.2308 c -13.782,8.9152 14.288,10.778 0,0 z m 18.4,0.0308 c -16.08,9.8154 15.467,9.8989 0,0 z m 25.939,0.43078 c -6.2083,4.0144 -3.5104,12.482 -9.587,16.203 6.6453,4.5179 32.731,-2.1867 12.686,-11.173 l -2.113,-2.251 -0.98612,-2.7794 z m -268.59,0.0308 c -12.904,9.5556 16.564,10.844 0,0 z m 291.05,0.46155 c -15.66,10.287 15.339,13.101 0,0 z m -276.19,0.49232 c -14.709,12.18 14.997,8.7332 0,0 z m 72.771,1.2923 c -10.575,15.808 17.953,8.8946 0,0 z m 215.54,0.12308 c -13.675,9.0658 14.723,12.48 0,0 z m -339.06,0.0308 c -18.885,15.463 18.493,7.1883 0,0 z m 408.13,0.8308 c -4.6805,2.3014 -21.233,7.1602 -8.0765,9.4444 5.1619,-0.73493 6.9356,-4.9715 8.0765,-9.4444 z m -425.73,0.3077 c -9.639,6.9664 12.733,11.447 0,0 z m 77.418,0.73848 c -16.462,8.6217 20.04,8.0306 0,3e-5 z m 297.49,0.58463 c -10.88,9.5184 -9.6605,28.33 9.7456,22.524 9.4334,1.7493 9.4646,-12.204 16.235,-1.0532 10.228,-5.5924 -12.496,-23.141 -10.978,-7.9148 -3.0958,-15.503 -8.8282,-2.9915 -13.103,1.3688 -7.7775,-5.766 8.5876,-11.08 -1.8993,-14.925 z m 31.109,0 c -14.959,8.031 16.129,11.048 0,0 z m -357.95,0.70771 c -14.937,12.182 15.22,8.9943 0,0 z m 143.97,0.76925 c -17.103,7.2375 17.076,12.23 0,0 z m -87.51,0.43079 c -12.17,8.3703 13.48,8.4515 0,0 z m 76.033,0.21539 c -12.757,13.693 14.023,9.8167 0,0 z m 85.141,0.33847 c -15.257,6.357 15.054,12.782 0,0 z m -57.602,0.27693 c -18.255,8.8376 14.255,9.2569 0,0 z m -41.94,0.95387 c -14.036,4.9643 8.0518,6.066 -0.0379,13.617 12.892,4.3773 13.487,-14.338 0.0379,-13.617 z m -73.14,0.64617 c -14.515,8.7206 14.759,13.096 0,0 z m 196.04,0.64617 c -12.214,10.647 16.159,7.9478 0,0 z m -10.831,0.33847 c -15.047,12.036 16.868,7.466 0,0 z m -207.61,0.80003 c -13.377,12.399 18.848,7.3832 0,0 z m 162.68,0.43078 c -15.386,12.909 13.785,12.132 0,0 z m -76.618,0.67694 c -14.649,8.9315 16.343,10.727 0,0 z m -94.833,0.33847 c -22.63,12.061 20.267,7.9626 0,0 z m -22.062,0.52309 c -13.064,13.838 21.709,5.4408 0,0 z m 300.47,0.55386 c -13.588,8.8793 15.313,9.7384 0,0 z m -256.59,0.0308 c -10.718,12.644 17.034,9.833 0,0 z m 273.27,0.3077 c -14.026,10.847 17.437,4.6661 0,0 z m -55.509,0.58464 c -15.526,12.133 16.032,7.9897 0,0 z m -103.51,1.1077 c -17.782,8.7543 13.923,8.9842 0,0 z m -66.094,1.0154 c -17.764,9.3061 15.926,11.126 0,0 z m -24.155,0.15385 c -14.336,8.6125 15.998,5.5433 0,-10e-6 z m 311.98,0.0615 c -11.824,6.7366 2.9121,14.993 0,0 z m -231.51,1.2308 c -14.373,13.553 13.515,10.548 0,0 z m 71.294,0.30771 c -15.921,11.817 16.403,8.8784 0,0 z m -245.88,0.0923 c -14.772,11.847 16.386,8.6482 0,0 z m 14.831,0 c -13.542,13.156 14.792,9.9464 0,0 z m 39.909,1.9077 c -12.232,14.015 14.514,10.334 0,0 z m 9.2926,0.0615 c -12.297,12.847 15.198,10.844 0,0 z m -27.878,0.98464 c -13.841,11.813 16.226,9.7602 0,0 z m 263.3,0.3077 c -19.457,11.539 18.959,8.2082 0,0 z m -150.4,0.5231 c -15.258,7.4724 13.748,10.508 0,0 z m 165.24,0.9231 c -17.783,8.2674 18.629,9.5049 0,0 z m -43.017,0.12308 c -13.455,-1.3372 -13.667,11.846 -0.30132,9.0717 18.496,0.35572 11.591,-5.0453 0.30132,-9.0717 z m -108.99,0.3077 c -17.855,6.2829 18.054,20.628 3.579,5.5568 -0.37266,-2.2175 -0.12657,-6.1028 -3.579,-5.5568 z m 162.22,1.3539 c -15.506,10.255 16.045,12.183 0,0 z m -243.02,0.0615 c -14.965,13.781 14.869,9.5322 0,0 z m 320.44,2.0001 c -10.813,0.77298 -0.64075,12.756 0,0 z m -10.185,0.70771 c -12.869,-2.961 -17.449,13.748 -0.96594,7.8849 6.6962,-0.0694 7.6083,-6.8811 0.96594,-7.8849 z m -41.909,0.6154 c -17.766,7.8228 14.92,10.763 0,0 z m -247.05,0.95387 c -16.669,12.482 20.329,5.1983 0,0 z m -56.155,0.36924 c -13.266,14.83 14.819,11.479 0,0 z m 147.14,0.46156 c -15.949,9.5919 15.228,14.623 0,0 z m 18.985,0.33847 c -13.044,9.5398 16.535,10.26 0.49038,0.19843 l -0.49038,-0.1984 z m -33.509,0.21539 c -12.474,8.2714 13.174,9.4759 0,0 z m 108.77,0.0923 c -19.306,12.542 15.921,9.0218 0,0 z m -57.54,0.0308 c -11.041,10.79 14.287,6.8046 0,0 z m -221.91,0.43078 c -19.806,9.675 19.048,7.043 0,0 z m 234.78,0.0923 c -16.489,12.94 16.613,8.5778 0,0 z m 89.695,0.12308 c -17.287,10.084 15.908,10.729 0,0 z m -268.72,0.0615 c -14.024,8.699 16.212,5.9737 0,-4e-5 z m 75.141,0.3077 c -23.918,12.48 17.004,10.353 0,0 z m 16.4,2.3385 c -14.336,12.258 14.865,10.899 0,0 z m 158.87,0.36924 c -15.424,13.141 17.157,7.762 0,0 z m -189.14,0.36924 c -14.226,6.732 12.484,9.248 0,0 z m 146.03,0.0923 c -14.158,12.501 16.865,7.5971 0,0 z m 30.401,0.43078 c -15.005,7.4352 13.627,10.273 0,0 z m -192.62,2.0924 c -11.592,9.2541 17.978,23.113 6.328,4.666 -0.82322,-2.6874 -3.4776,-4.7495 -6.328,-4.666 z m -90.618,0.80003 c -16.02,11.944 17.521,8.462 0,0 z m 351.15,1.077 c -14.124,8.341 16.128,5.9371 0,3e-5 z m -196.53,0.12308 c -14.668,9.2153 16.937,11.061 0,0 z m -114.46,0.73848 c -15.915,9.1033 17.425,7.5223 0,0 z m 281.39,0.16 c -13.514,7.1358 12.611,8.9264 0,0 z m 14.862,0.40001 c -13.306,12.637 18.839,6.3522 0,0 z m -109.79,0.36924 c -10.289,5.0949 -0.93926,26.086 2.0025,8.2962 1.7763,-2.8652 3.5076,-8.3939 -2.0025,-8.2962 z m -171.85,1.1077 c -21.183,10.619 19.416,8.5478 0,0 z m 87.787,0.27693 c -13.784,6.7238 12.717,9.9591 0,0 z m 22.678,0.86156 c -15.019,12.75 13.373,12.224 0,0 z m 44.34,0.12308 c -18.644,12.184 13.971,10.745 0,0 z m 39.909,0.21539 c -14.744,8.659 14.656,9.3736 0,0 z m 28.647,0.24616 c -14.406,10.915 14.854,7.8131 0,0 z m -85.695,0.33847 c -9.7052,12.265 20.255,4.4948 1.0006,0.12348 z m -111.33,0.15385 c -23.285,8.7425 15.323,10.712 0,0 z m 99.726,0.3077 c -14.621,12.322 20.78,5.7003 0,0 z m 82.525,0.61541 c -9.42,12.306 19.755,4.7581 0.91423,0.13489 z m -245.11,1.3846 c -13.485,10.438 14.608,5.3044 0,0 z m 289.18,0.27693 c -13.052,13.121 17.28,10.743 0,0 z m -17.385,1.9385 c -12.199,11.366 20.234,5.9944 1.22,0.17266 l -1.1926,-0.16878 -0.0274,-0.004 z m -256.65,0.36925 c -13.804,0.52043 -8.6114,22.261 -0.16277,7.4753 6.6597,-1.2841 7.851,-6.5782 0.16277,-7.4753 z m 113.6,0.52309 c -16.702,11.108 16.954,9.0167 0,0 z m -84.956,0.76925 c -11.705,6.5868 -17.591,25.059 -1.7974,11.737 3.3882,4.311 9.3996,-13.001 1.7974,-11.737 z m 180.71,0.98464 c -19.706,11.113 15.946,9.4228 0,0 z m -198.65,0.80002 c -17.119,9.9226 16.293,10.006 0,0 z m 65.848,0 c -20.99,13.075 19.632,7.6258 0,0 z m 220.68,0.33847 c -14.092,11.084 15.795,9.9159 0,0 z m -130.5,1.4154 c -8.749,-0.28057 -27.612,11.036 -9.1632,9.3507 14.54,-4.7934 -4.946,17.81 11.661,7.3995 4.815,-4.7606 5.5249,-14.958 -2.4974,-16.75 z m -129.82,0.6154 c -15.052,8.7631 16.995,11.001 0,0 z m 274.35,0.21539 c -17.211,12.436 15.318,5.1245 0,0 z m -336.5,1.7539 c 6.964,11.448 14.266,0.9858 0,0 z m 213.21,0.64618 c -14.295,10.502 16.002,10.533 0,0 z m 76.279,0.86156 c -14.342,11.371 17.42,10.23 0,0 z m -165.39,0.0308 c -9.4542,12.226 19.568,5.0025 0.80681,0.13318 z m -10.8,0.27693 c -11.404,13.173 17.231,7.9861 0,0 z m -84.341,0.12308 c -17.599,14.107 15.92,9.0967 0,0 z m 199.48,0.9231 c -17.417,10.966 16.551,7.952 0,0 z m -25.17,0.12308 c -15.36,12.32 14.398,11.033 0,0 z m 48.247,2.2154 c -16.937,9.7041 15.384,10.873 0,0 z m 15.847,0.40001 c -12.976,11.099 18.437,7.0482 0,3e-5 z m 42.278,1.2 c -14.651,12.437 17.233,8.0685 0,0 z m -209.7,0.80002 c -19.861,9.669 14.355,9.6673 0,0 z m 54.371,0.15386 c -12.622,11.172 19.411,5.7678 0,3e-5 z m -95.233,0.89233 c -13.934,8.6777 13.445,8.7814 0,0 z m 270.65,0.18462 c -13.276,8.4623 9.8884,9.6143 0,0 z m -90.372,0.21539 c -14.041,9.5744 17.212,6.9223 0,0 z m -118.25,0.24616 c -15.005,10.653 14.461,8.4685 0,0 z m 58.432,0.21539 c -14.976,12.752 14.652,9.9386 0,0 z m -41.632,1.1077 c -12.406,11.392 19.883,8.0963 0,0 z m -28.462,0.43078 c -9.9445,13.958 18.732,6.9323 0,0 z m 177.51,0.36924 c -19.364,11.869 16.47,9.6802 0,0 z m -206.22,1.877 c -14.044,9.0284 17.553,12.247 0,0 z m 141.27,0.27693 c -10.074,14.624 23.343,6.1737 0,0 z m 31.293,0.12308 c -11.666,8.0882 4.3977,43.288 4.8277,19.006 -0.5739,-6.7368 14.615,-9.5687 0.38163,-12.493 -4.8361,-0.26043 -1.0813,-6.7775 -5.2094,-6.5126 z m -86.987,0.58463 c -13.474,8.812 16.292,11.91 0,0 z m -128.56,0.33847 c -19.423,11.566 16.143,8.3722 0,0 z m 14.862,0.64617 c -15.816,12.637 17.993,8.7815 0,0 z m 154.62,0.33848 c -12.76,7.3756 12.653,9.3166 0,0 z m 89.972,0.9231 c -12.862,8.0351 13.101,9.5718 0,0 z m 23.047,1.9077 c -16.477,9.2667 14.431,10.306 0,0 z m -46.494,0.18462 c -14.981,12.229 14.629,10.601 0,0 z m -206.37,0.18462 c -19.011,8.1888 14.534,11.034 0,0 z m 113.82,0.0615 c -16.137,8.7368 14.863,10.818 0,0 z m 56.525,0.86157 c -19.834,11.244 20.344,6.048 0,0 z m -103.17,0.6154 c -12.571,7.3853 12.465,9.2683 0,0 z m 175.51,1.4154 c -18.232,9.0994 3.0297,19.459 3.8995,1.7287 l -1.3698,-1.073 -2.5297,-0.65568 z m -197.05,1.7231 c -11.361,11.429 16.484,7.0466 0,0 z m 14,0.33847 c -17.467,9.6065 15.623,9.9905 0,0 z m -75.356,0.21539 c -18.023,10.59 18.196,9.4109 0,0 z m 92.126,0.15385 c -19.032,11.321 16.147,8.621 0,0 z m 59.879,0.76925 c -21.456,8.236 14.383,11.914 0,0 z m 79.602,0.67694 c -20.105,16.013 20.6,4.0686 0,0 z m -185.02,0.36924 c -15.825,13.9 14.84,9.023 0,0 z m 147.05,1.2924 c -14.126,11.466 13.961,11.903 0,0 z m -21.324,0.80002 c -24.493,12.251 20.458,8.4039 0,0 z m -66.279,0.0923 c -16.499,12.4 17.932,7.0253 0,0 z m 18.216,0.27693 c -12.828,8.5196 14.605,9.2808 0,0 z m 16.708,0.58463 c -18.193,3.4198 -9.3702,31.095 1.3613,15.024 -11.695,-8.0248 6.5037,-3.8473 1.3715,-14.084 l -2.7328,-0.94029 z m 100.8,0.33847 c -22.6,13.938 18.795,8.2261 0,0 z m -25.57,0.89233 c -23.711,10.215 23.422,8.3985 0,0 z m -193.27,0.40001 c -14.133,8.5148 16.016,12.327 0,0 z m 205.36,3.1386 c -15.45,10.584 15.842,8.4116 0,0 z m 28.308,2.4001 c -9.071,-0.45208 -17.726,13.116 -5.3859,3.8311 -0.47723,-0.38106 9.0199,-3.4443 5.3859,-3.8311 z m -102,1.0154 c -16.483,8.7989 15.064,10.425 0,0 z m 9.6618,0.0615 c -17.115,9.1101 13.347,9.0305 0,0 z m 20.185,0.40001 c -18.91,12.948 19.017,7.013 0,0 z m 35.478,0.0615 c -15.307,11.657 13.499,6.8674 0,0 z m -185.57,0.67694 c -15.546,8.7104 16.458,6.3837 0,0 z m 49.817,0.33848 c -18.632,14.305 16.657,8.0951 0,0 z m -21.908,0.24616 c -13.969,8.3794 16.354,12.869 0,0 z m 57.355,3.4155 c -17.679,12.186 15.003,11.123 0,0 z m 114.8,0.89233 c -10.245,4.3865 -13.577,15.446 0.78389,6.2431 5.6783,-1.1962 4.1372,-6.3539 -0.78389,-6.2431 z m -36.093,2.1231 c -13.15,12.313 20.177,5.2618 0,0 z m -150.56,0.36924 c -16.159,8.0897 14.786,11.118 0,0 z m 101.76,0.0923 c -19.865,13.113 16.301,10.103 0,0 z m -50.032,1.5385 c -16.65,8.4606 15.187,10.96 0,0 z m 68.156,0.0308 c -16.46,10.255 15.981,9.8698 0,0 z m -33.939,1.4154 c -21.783,11.804 18.048,7.9131 0,0 z m 83.387,0.27693 c -14.776,12.117 16.721,5.9966 0,0 z m -41.386,2.9539 c -2.8969,7.7965 -32.148,5.5976 -13.933,13.493 5.0061,1.2068 25.647,-8.6815 13.933,-13.493 z m 18.985,3.1386 c -23.632,11.413 18.915,7.7134 0,0 z m -53.417,0.0615 c -13.435,12.964 16.943,9.5021 0,0 z m 41.355,1.2 c -14.596,10.66 15.855,10.276 0,0 z m -63.417,7.1387 c -13.512,4.5933 13.519,2.711 0,0 z"
           inkscape:connector-curvature="0"
           style="opacity:0.3;fill:url(#radialGradient4022);filter:url(#filter4432)"
           id="path4393" />
        <path
           d="m -275.79,118.76 c -9.1984,5.9654 13.664,1.6363 0,0 z m -30.812,0.40625 c -8.279,-3.4814 -2.8506,5.7951 0,0 z m 45.281,0 c 2.646,10.92 14.183,-1.6735 0,0 z m -23.062,0.125 c -10.3,7.7338 6.5906,6.4706 0,0 z m -42.844,2.625 c -10.144,4.0585 10.53,4.15 0,0 z m 91.469,0.5 c -4.0616,9.3644 10.455,-1.8103 0,0 z m -101.75,1.5938 c -10.923,-1.4705 0.67539,6.3116 0,0 z m 70.25,1.7812 c -8.3446,6.335 8.6798,7.1274 0,0 z m 17,0 c -5.0201,7.1863 8.8257,2.9346 0,0 z m -100.28,1.7188 c -11.958,1.7339 1.9988,11.094 0,0 z m 140.19,0.28125 c -9.0212,7.3875 7.5025,4.7424 0,0 z m -135.22,1.3438 c -9.2573,5.2892 9.9954,3.1501 0,0 z m 39.844,1.8438 c -5.6126,8.7331 8.2473,5.9874 0,0 z m 78.906,1.1562 c -8.1761,4.68 7.8303,4.4044 0,0 z m -92.406,0.0937 c -9.8539,7.3673 8.2132,5.6917 0,0 z m -15.375,0.90625 c -8.8319,4.6749 8.0066,4.7989 0,0 z m 46.156,0.25 c -8.0003,6.2206 9.4621,4.9856 0,0 z m -66,0.625 c -9.1512,6.0289 8.3402,5.7937 0,0 z m 80.312,1.5312 c -12.659,5.3113 9.5268,4.539 0,0 z m 24.875,0.0937 c -4.9632,9.5587 11.816,6.9522 0,0 z m 60.75,1.6875 c -11.664,5.8484 6.9841,9.4887 0,0 z m -159.28,0.25 c -9.6016,6.3801 8.53,5.3376 0,0 z m 133.16,0.15625 c -9.4096,6.0779 8.5759,5.3588 0,0 z m -94.938,1.75 c -10.43,5.2581 9.7654,3.2672 0,0 z m -50.719,0.15625 c -9.2248,5.2916 9.5247,3.3313 0,0 z m 159.84,1.7188 c -8.2525,6.2714 7.489,5.5806 0,0 z m -182.12,2.3125 c -8.627,3.3638 0.27712,5.3438 0,0 z m 67.188,0.875 c -9.1526,5.3179 8.8498,4.7373 0,0 z m 51.75,0.125 c -5.8326,8.6737 8.8492,5.7138 0,0 z m -40.156,1.6562 c -10.425,6.0435 8.8399,5.0274 0,0 z m 75.156,0.28125 c -3.3366,10.414 12.938,4.6863 0,0 z m -6.9688,0.84375 c -8.7692,5.2529 8.8436,5.2149 0,0 z m -12.344,0.8125 c -7.9446,4.6943 7.3963,4.3423 0,0 z m -120.16,0.625 c -6.5024,7.7053 10.174,5.0637 0,0 z m 97.531,1.5312 c -10.657,5.4158 10.048,4.523 0,0 z m -79.781,0.6875 c -6.1867,5.8376 9.2654,2.0873 0,0 z m 12.531,0.0625 c -8.4665,6.2014 8.7974,6.5732 0,0 z m 12.156,1.7812 c -9.8322,7.0166 6.3769,6.1722 0,0 z m 36.156,1.7812 c -11.12,3.5561 5.1614,7.2852 0,0 z m -104.12,0.1875 c -7.3687,5.9781 8.4744,5.6111 0,0 z m 236.81,1 c -5.385,6.5416 6.4748,6.7986 0,0 z m -39.969,2.0938 c -6.8907,6.4935 6.4108,9.4196 0,0 z m -62.062,1.0625 c -9.7402,4.5014 8.4967,3.2869 0,0 z m -19.844,0.0625 c -8.9063,7.4578 7.886,5.7953 0,0 z m 64.812,0.15625 c -12.4,5.9794 11.671,3.4962 0,0 z m 40.781,0.53125 c -6.3787,7.2182 11.304,2.6704 0,0 z m -138.25,0.71875 c -8.7706,6.276 8.5447,6.2466 0,0 z m 166.91,0.3125 c -9.0854,6.8941 7.2408,5.3914 0,0 z m -80.406,1.5625 c -3.1597,9.6091 12.683,2.2492 0,0 z m -14.75,0.53125 c -4.9689,7.0943 9.8874,2.9071 0,0 z m 112.97,0.84375 c -7.9665,5.1407 7.616,4.9832 0,0 z m -263,0.875 c -5.8508,9.2747 11.196,4.9585 0,0 z m 118.66,0.375 c -10.215,5.0247 9.0741,3.8904 0,0 z m -135.38,0.6875 c -8.1573,7.4857 10.791,3.2558 0,0 z m 247.59,0 c -8.4011,5.8876 9.0995,4.1551 0,0 z m -189.34,0.3125 c -5.0993,7.9489 9.4587,4.1259 0,0 z m 143.5,1 c -11.309,5.0352 11.979,2.6594 0,0 z m -42.5,0.9375 c -9.4532,7.1906 9.0182,5.8788 0,0 z m -40.938,0.46875 c -4.4724,7.0165 9.4309,2.3972 0,0 z m 94.812,1 c -9.0296,5.6464 10.108,3.5497 0,0 z m 17.5,0.40625 c -10.765,5.0034 4.6894,8.3942 0,0 z m -234.69,0.21875 c -8.4045,3.5719 5.4544,6.1931 0,0 z m 240.75,1.1562 c -8.1139,4.6743 8.1036,3.4695 0,0 z m 56.156,0.0625 c -7.7742,6.4044 8.1775,7.9198 0,0 z m -259.09,0.3125 c -7.1192,5.7367 9.4811,1.3234 0,0 z m 188.28,0.78125 c -8.6998,6.1198 8.3353,6.3102 0,0 z m -24.938,0.46875 c -4.9151,8.9315 20.521,4.0824 0,0 z m -150.81,0.375 c -6.8846,6.5611 11.261,1.4634 0,0 z m 127.62,0.3125 c -6.4294,6.6167 7.3814,7.055 0,0 z m 18.844,0.875 c -9.6099,8.4428 7.4866,6.8775 0,0 z m -81.562,0.59375 c -9.0901,7.1262 6.1252,5.5488 0,0 z m 157.59,0.0312 c -7.4868,5.2974 7.556,5.2543 0,0 z m -277.31,0.0625 c -6.7837,1.9913 1.9656,3.5186 0,0 z m 294.16,0.59375 c -9.3061,5.5073 9.5336,5.1922 0,0 z m -77.438,1.7188 c -6.7283,8.134 12.469,1.2307 0,0 z m -87.688,0.71875 c -9.2474,5.3815 7.4739,5.2107 0,0 z m -85.281,0.21875 c -6.4299,8.7661 9.8549,5.6699 0,0 z m 48.5,0.21875 c -9.7867,5.7276 6.8177,5.8504 0,0 z m 48.219,0.4063 c -11.651,4.7748 5.4563,8.6059 0,0 z m 125.25,0.53125 c -9.9456,5.9053 9.5293,3.8864 0,0 z m -260.28,0.3125 c -6.5197,6.4244 7.3123,8.6678 0,0 z m 219.62,0.59375 c -8.8666,5.4632 7.0266,5.0262 0,0 z m -21.344,0.1875 c -7.4184,5.6052 7.3042,5.7285 0,0 z m -51.469,0.59375 c -11.776,6.5199 5.3654,8.125 0,0 z m 86.656,0.0937 c -9.0727,6.5883 7.9842,5.2199 0,0 z m -74.906,0.3125 c -7.443,4.6563 7.367,4.4036 0,0 z m 124.25,0.9375 c -9.9877,5.3676 8.4683,4.8012 0,0 z m -216,1 c -9.5928,6.0223 8.09,5.6127 0,0 z m 205.5,0.6875 c -9.762,5.8318 5.7228,9.2323 0,0 z m -225.59,0.7813 c -6.0497,9.8959 15.98,0.37296 0,0 z m 66.375,0.53125 c -8.31,7.8728 6.7397,6.7355 0,0 z m 187.06,2.0312 c -8.6443,5.8246 8.6756,5.2376 0,0 z m -286.78,0.59375 c -8.2613,5.5224 7.5713,4.9836 0,0 z m 231.25,0.15625 c -7.3917,6.2142 12.095,1.7428 0,0 z m -59.562,0.1875 c -7.3279,9.5866 13.262,1.1993 0,0 z m -88.125,0.4375 c -5.6909,6.906 11.428,2.9708 0,0 z m 107.53,0.0937 c -8.1644,6.5501 7.7511,6.874 0,0 z m -68.281,0.59375 c -8.1165,6.0757 6.5427,5.2512 0,0 z m 90.938,0.625 c -8.2132,4.6682 7.8605,4.8564 0,0 z m -237.62,0.0937 c -6.8545,8.5651 11.321,5.3932 0,0 z m 290.72,0.15625 c -4.0618,9.2423 11.761,-0.76947 0,0 z m -298.16,0.15635 c -8.3464,4.2566 6.2718,5.0788 0,0 z m 277.72,0 c -8.0947,4.9415 7.6316,4.6248 0,0 z m -85.188,0.0625 c -10.195,5.7608 8.5154,5.3043 0,0 z m -87.625,2.25 c -7.3079,5.8017 7.3668,5.4699 0,0 z m 130.78,1 c -9.938,7.9419 6.6272,7.1 0,0 z m -190.12,1 c -6.9095,7.4069 11.651,1.9137 0,0 z m 288.91,0.3125 c -5.1372,7.8921 10.767,1.4509 0,0 z m -149.94,0.6875 c -8.423,7.1705 6.9318,6.4362 0,0 z m 29.406,1.6562 c -6.6704,6.3824 6.4215,8.4271 0,0 z m -41.562,1.375 c -7.5286,5.3067 6.8255,5.3035 0,0 z m 128.28,0.9375 c -8.2857,7.0057 7.9372,7.0377 0,0 z m -79.219,1.0938 c -2.3555,9.8204 14.978,2.393 0,0 z m 72.938,0.21875 c -11.162,4.3384 9.9282,3.0193 0,0 z m -174.06,0.21875 c -7.6217,6.1348 6.4413,7.6304 0,0 z m -46.344,0.0937 c -7.6549,7.7682 5.9202,6.8447 0,0 z m 199.66,0.625 c -7.4853,5.783 7.5807,5.5289 0,0 z m 72.438,0.125 c -8.0913,5.5617 8.944,3.8663 0,0 z m -333.44,0.25 c -4.8152,6.5238 5.8735,7.3955 0,0 z m 84.531,0.0625 c -8.8568,5.5768 7.8816,5.0148 0,0 z m 161.59,0.0938 c -9.969,5.4089 9.1765,4.1642 0,0 z m -108.53,0.0625 c -9.278,5.3664 9.1519,5.5318 0,0 z m 162.97,0 c -13.728,5.081 11.537,3.4684 0,0 z m -208.06,1.1562 c -8.2685,6.048 10.988,1.4864 0,0 z m 101.12,0.625 c -9.1149,4.3804 8.4061,3.2382 0,0 z m -173.78,0.71875 c -7.4819,6.3645 7.0414,6.8623 0,0 z m 80.719,1.75 c -6.6483,7.1417 7.1648,8.8683 0,0 z m 192.41,0.0312 c -9.1147,5.74 8.835,5.4685 0,0 z m -7.8125,0.5938 c -7.7817,4.2263 7.6601,4.4467 0,0 z m -116.56,0.375 c -8.375,5.0881 8.24,5.2745 0,0 z m 149.09,0.15625 c -3.1999,9.7998 15.133,3.4535 0,0 z m 13.156,0.0312 c -7.1753,4.9905 7.6672,4.0293 0,0 z m -284.56,0.6875 c -5.163,6.3732 8.0338,2.9896 0,0 z m 109.25,0.21875 c -5.576,9.0089 8.6495,6.0208 0,0 z m 24.531,0.46875 c -8.4469,4.8969 7.7512,4.6484 0,0 z m 127.44,0.78125 c -8.6932,4.6912 6.4547,4.7613 0,0 z m -75.344,0.6875 c -9.8811,5.6226 9.333,3.6083 0,0 z m -111.31,0.0937 c -9.6964,6.2868 8.9555,5.7846 0,0 z m 83.406,1.1562 c -6.3165,5.8385 8.7732,1.5533 0,0 z m -122.31,0.375 c -5.2681,6.9487 8.4887,3.0439 0,0 z m 257.75,0.0625 c -6.8758,5.525 7.475,6.439 0,0 z m -367.75,0.9688 c -8.2348,7.2677 10.075,2.3613 0,0 z m 11.219,1.3125 c -10.581,7.7342 7.3071,6.544 0,0 z m 315.94,0 c -11.821,3.4188 5.2489,7.0359 0,0 z m -197.38,0.0625 c -6.926,7.6272 10.097,5.0824 0,0 z m 117.22,0.6875 c -9.134,5.4787 8.257,4.9429 0,0 z m 129.91,0 c -6.8092,8.487 13.194,1.5362 0,0 z m -347.53,1.0312 c -5.6012,5.7881 8.5909,2.2724 0,0 z m 280.16,0.21875 c -5.789,7.389 9.7613,3.3903 0,0 z m -251.62,0.9375 c -11.972,4.7896 11.016,3.6698 0,0 z m 108.5,0 c -10.606,4.5049 9.0861,4.3296 0,0 z m 120.81,0.28125 c -12.542,5.6624 10.983,3.1756 0,0 z m 53,0.40625 c -6.601,6.6842 6.4922,6.3036 0,0 z m 16.688,0.0312 c -13.191,2.4978 7.4802,5.2623 0,0 z m -266,0.6875 c -14.083,4.8618 8.2831,5.0374 0,0 z m 105.84,0.3438 c -9.117,6.6737 8.4422,5.7696 0,0 z m -125.22,0.25 c -8.5637,4.056 7.0511,3.6406 0,0 z m 104.81,1 c -4.7403,6.7635 5.7161,7.4701 0,0 z m -20.344,1.3438 c -8.2277,5.1052 7.8615,4.9362 0,0 z m -115.38,0.8125 c -4.1983,7.9385 10.209,3.7358 0,0 z m 333.56,0.3125 c -10.701,5.8683 7.2839,6.0703 0,0 z m -164.69,0.0312 c -8.8672,5.7568 8.5751,5.2974 0,0 z m 52.281,0.21875 c -5.5892,9.244 10.816,4.5498 0,0 z m -72.25,0.75 c -7.0755,7.5977 13.349,0.91036 0,0 z m 177.5,0.71875 c -8.7297,6.4782 8.3531,6.6243 0,0 z m -241.38,0.56255 c -5.4928,9.3226 13.05,1.3803 0,0 z m -47.969,0.84375 c -8.1034,5.6556 8.5135,6.0593 0,0 z m 309.28,0.8125 c -2.236,4.521 7.8851,4.7514 0,0 z m -185.88,0.0312 c -5.0178,8.5979 11.927,2.6256 0,0 z m 134.28,0.78125 c -8.3324,5.7618 7.7416,5.0558 0,0 z m -103.94,0.21875 c -9.3714,5.1498 8.7732,3.2551 0,0 z m -48.344,1.2188 c -8.1469,5.5777 7.9719,4.7907 0,0 z m -16.25,0.0312 c -11.139,5.4476 12.39,3.0561 0,0 z m -161.97,0.15625 c -8.0364,4.7766 7.8149,4.3739 0,0 z m 52.625,3.375 c -6.3347,6.2517 8.6397,2.678 0,0 z m 34.344,0.0314 c -10.651,4.6857 5.2597,8.246 0,0 z m 123.22,0 c -5.1348,7.036 11.032,1.8312 0,0 z m -67.188,0.3125 c -8.3775,6.324 10.736,4.3415 0,0 z m 233.47,0.375 c -7.2011,5.8064 6.6231,5.4527 0,0 z m -81.031,0.28125 c -9.9609,9.0611 6.4095,7.5024 0,0 z m -52.656,0.0312 c -6.2036,6.8216 8.2124,7.271 0,0 z m -178.75,0.28125 c -8.6285,5.5533 8.5751,5.0023 0,0 z m -37.875,1.0312 c -11.929,4.5536 10.677,3.511 0,0 z m 337.56,0.15625 c -11.271,4.9242 5.0271,8.4098 0,0 z m -206.25,0.21875 c -11.296,5.3052 12.204,3.2782 0,0 z m -54.562,0.21875 c -9.4054,4.9923 9.0947,3.1606 0,0 z m 83.938,0.71875 c -10.234,5.6753 7.2073,5.5809 0,0 z m 83.344,0.21875 c -5.5091,6.7069 9.5049,2.2743 0,0 z m -259.41,0.40625 c -7.9043,4.5514 8.0895,4.2482 0,0 z m 164.34,1.25 c -8.7128,5.4374 9.184,5.7417 0,0 z m -185,0.375 c -9.4206,5.943 9.8845,5.8878 0,0 z m -8.4688,0.15625 c -5.5432,4.7185 1.6846,3.1137 0,0 z m 62.344,0 c -9.931,5.4118 7.2612,5.7336 0,0 z m 304.22,1 c -9.6808,4.1617 8.8592,3.3408 0,0 z m -351.47,0.25 c -7.7552,5.056 7.9786,3.6526 0,0 z m 127.56,0 c -6.1161,6.0346 6.4117,8.3074 0,0 z m 96.719,0 c -8.8994,5.6049 9.3272,5.9837 0,0 z m 102.12,0.65625 c -6.5018,6.9157 9.5113,3.9515 0,0 z m -71.125,0.34375 c -8.1766,6.473 8.2098,6.971 0,0 z m 138.47,0.3125 c -6.4032,4.6953 7.5445,7.0328 0,0 z m -357.16,0.5625 c -8.4213,7.0166 11.802,1.149 0,0 z m 343.12,0.8125 c -11.524,3.0932 6.54,6.059 0,0 z m -138.03,0.75 c -8.0166,6.3172 7.0376,7.1363 0,0 z m 61.406,0.0937 c -8.455,5.9053 7.9765,5.6459 0,0 z m 37.156,0.0937 c -8.9063,5.2229 8.4856,4.2198 0,0 z m -43.781,0.5313 c -6.3636,7.1689 6.7385,10.056 0,0 z m -88.188,0.375 c -9.2237,5.9671 12.469,1.5793 0,0 z m 76.5,0.1875 c -7.6389,6.7471 9.0616,8.5251 0,0 z m -223.94,0.8125 c -9.9942,4.8551 6.6565,4.8418 0,0 z m -78.969,0.0312 c -6.6508,5.7668 2.8721,3.8507 0,0 z m 40.375,0.59375 c -10.368,5.814 9.9122,3.8816 0,0 z m -15.656,0.31255 c -7.9824,6.0392 9.1675,4.4992 0,0 z m 309.28,0.0312 c -6.7153,6.7669 7.8397,7.2423 0,0 z m -96.906,0.2813 c -9.1081,7.5085 7.3441,6.1541 0,0 z m -21.219,0.78125 c -7.9612,4.8778 7.3127,4.5809 0,0 z m -28.188,0.3125 c -6.6748,6.2857 5.2605,7.4764 0,0 z m -21.188,0.375 c -10.024,5.2441 8.0719,5.2055 0,0 z m 205.06,0.625 c -7.0818,5.2286 7.7801,4.0352 0,0 z m -125.12,0.40625 c -11.02,4.7046 4.8732,8.6672 0,0 z m -121.12,0.21875 c -11.895,5.8405 9.706,4.7937 0,0 z m -95.281,0.0937 c -6.3885,7.079 12.274,1.7538 0,0 z m 264.84,0.125 c -12.48,4.8162 9.6791,3.4917 0,0 z m -87.25,0.21875 c -8.9994,4.1232 6.683,4.0976 0,0 z m 106.72,1.25 c -7.1388,7.5103 11.738,1.4807 0,0 z m -209.91,0.0625 c -9.247,6.5214 13.176,1.0951 0,0 z m 301.38,0.0312 c -7.6641,5.8082 7.3178,5.3093 0,0 z m -17.25,1.125 c -3.0005,9.8428 14.193,2.6684 0,0 z m -297.84,0.7188 c -8.254,5.6381 7.8759,5.1122 0,0 z m -49.75,0.15625 c -9.2298,5.8672 9.0874,5.6874 0,0 z m 20.344,0.78125 c -7.7055,6.3504 8.5329,8.054 0,0 z m 83.812,0.5625 c -6.0464,5.6699 5.4431,7.4893 0,0 z m 195.47,0.71875 c -7.0179,6.6731 10.339,1.2923 0,0 z m -328.78,0.5 c -8.7611,5.3542 9.4385,3.4533 0,0 z m 211.69,0.625 c -13.007,4.9939 10.362,3.6322 0,0 z m 126.56,0.59375 c -5.9498,8.0242 9.3325,5.0842 0,0 z m -173,0.46875 c -3.0529,10.008 11.85,2.6559 0,0 z m 87.844,0 c -7.9493,5.4764 8.2915,4.1161 0,0 z m -49.844,0.34375 c -9.0253,5.6897 8.9273,5.7713 0,0 z m -194.25,0.1875 c -6.604,7.0655 10.521,1.415 0,0 z m 256.19,0 c -5.3711,8.8578 12.922,-0.73847 0,0 z m -243.84,0.125 c -12.336,1.927 6.841,5.9652 0,0 z m 199.88,0.9375 c -8.0996,7.4958 11.176,1.3475 0,0 z m 128.72,0.125 c -8.6552,4.1981 6.6426,3.9473 0,0 z m -32.406,2.0312 c -8.1026,5.004 7.5146,4.3941 0,0 z m -281.22,0.40625 c -5.8772,6.0369 9.5667,2.8669 0,0 z m 143.84,0.34375 c -9.4122,5.5609 7.5897,5.4534 0,0 z m 185.22,1 c -9.8695,5.3132 7.3364,5.266 0,0 z m -226.62,0.15625 c -5.565,6.5064 6.7704,7.1912 0,0 z m -156.59,0.375 c -3.9277,9.0389 12.563,3.0501 0,5e-5 z m 253.22,0.3125 c -4.7772,7.4552 10.224,2.8641 0,0 z m 147.19,0.5625 c -5.6898,6.1163 6.9443,6.4256 0,0 z m -96.906,0.96875 c -12.458,5.1373 4.8502,7.8518 0,0 z m -169.78,0.28125 c -10.283,6.8321 7.597,5.9485 0,0 z m 287.12,0.5625 c -2.6418,9.3817 12.191,2.3189 0,0 z m -248.09,0.1875 c -6.5538,5.7799 7.1627,8.1467 0,0 z m 176.81,0.46875 c -12.784,3.7046 7.5765,6.8512 0,0 z m -122.19,0.3125 c -8.107,5.6603 8.6238,6.632 0,0 z m -116.97,0.9375 c -7.7469,4.2119 6.0945,3.8998 0,0 z m 161.66,0.78125 c -8.9483,6.027 8.7272,5.9729 0,0 z m -202.66,1.4688 c -5.6057,6.8575 10.091,2.5998 0,0 z m 244.44,0 c -9.3306,5.3136 9.3515,4.8281 0,0 z m -36.094,0.3125 c -10.289,5.401 7.805,4.931 0,0 z m -179.31,0.59375 c -9.6045,5.1152 9.0798,3.3627 0,0 z m 84.375,0.0625 c -3.7328,7.9521 10.886,1.4112 0,0 z m 106.22,0.3125 c -8.128,5.2324 8.1063,3.8157 0,0 z m -250.59,0.46875 c -4.5914,7.9663 10.204,3.5525 0,0 z m 372.97,0.4375 c -5.1578,7.738 12.012,2.3229 0,0 z m -323.31,0.0625 c -9.8908,4.8929 8.0266,5.1618 0,0 z m -73.094,0.28125 c -3.8772,8.7192 12.306,2.0945 0,0 z m 346.88,0.25 c -8.4017,4.9777 7.5791,4.366 0,0 z m 36.25,0 c -8.9321,4.295 7.5658,3.57 0,0 z m -141.28,0.375 c -8.8305,5.481 8.8955,5.2016 0,0 z m -48.656,0.53125 c -13.439,6.7922 6.8036,8.0823 0,0 z m 36.562,0.0937 c -8.4989,4.6827 8.3254,3.4379 0,0 z m -218.72,0.2188 c -4.8174,6.4048 7.8534,2.869 0,0 z m 319.09,0 c -5.8108,5.4941 5.6855,8.0017 0,0 z m 35.188,0.21875 c -9.8597,8.1932 7.817,6.8634 0,0 z m -238.62,0.0937 c -8.7334,6.0048 7.2886,5.156 0,0 z m 125.41,1.25 c -8.1761,4.7549 7.3787,4.3246 0,0 z m 14.281,1.25 c -5.2713,6.0875 8.8631,2.4471 0,0 z m -124.78,0.15625 c -6.5276,6.614 10.226,2.5056 0,0 z m 39.031,0.0937 c -7.284,7.5983 6.2345,9.7428 0,0 z m 94.594,0.40625 c -9.1445,6.2117 8.5579,6.0766 0,0 z m 20.156,1.0312 c -2.7649,8.2143 10.349,1.7384 0,0 z m 20.719,0.59375 c -13.085,4.9951 10.525,4.1019 0,0 z m -306.47,1.125 c -8.8744,5.1805 8.2953,3.2116 0,0 z m 256.41,1.2188 c -9.5054,5.2632 9.1327,5.1025 0,0 z m -20.25,0.0937 c -7.5772,6.6147 11.323,1.7696 0,0 z m 40.875,0.15625 c -12.608,5.2808 10.598,3.5963 0,0 z m -195.84,0.5 c -7.4249,5.1599 7.2678,5.7294 0,0 z m -50.25,0.625 c -11.942,5.2193 9.5368,4.1163 0,0 z m 231.75,0.0312 c -9.6722,5.0127 8.438,4.8769 0,0 z m -33.125,0.46885 c -9.3644,5.745 8.974,5.4036 0,0 z m -81.781,0.15625 c -8.1817,6.2857 8.3857,5.6885 0,0 z m -48.938,0.34375 c -7.5196,4.5286 7.0369,4.2693 0,0 z m -52.656,0.34375 c -4.1369,7.021 8.3491,3.4502 0,0 z m 316.62,0.0625 c -6.8872,8.1241 10.482,5.3274 0,0 z m 34.438,0.0625 c -12.019,4.229 10.548,3.5707 0,0 z m -148.5,0.3125 c -9.3356,4.1655 8.4505,3.2011 0,0 z m 72.562,0.3125 c -13.453,6.9668 5.3985,8.7239 0,0 z m 17.938,0.78125 c -10.143,5.1223 8.7491,4.4116 0,0 z m -266.94,0.0937 c -9.5244,7.2968 8.4352,6.0858 0,0 z m 303.34,1.1562 c -8.0859,7.6908 6.8743,5.8999 0,0 z m -181.09,0.37505 c -9.1071,4.823 8.1815,4.8662 0,0 z m 46.531,0.46875 c -3.0799,7.6808 11.082,1.3702 0,0 z m -267.31,0.375 c -8.8297,5.2414 8.382,4.1272 0,0 z m 408.94,0.5625 c -9.4451,5.3082 8.2301,4.6355 0,0 z m -125.69,0.21875 c -9.1432,5.6205 9.1607,5.374 0,0 z m 38.5,0.21875 c -6.2661,6.9125 11.592,0.97178 0,0 z m 74.844,1.0625 c -5.7343,8.1246 10.26,6.973 0,0 z m -251.25,0.34375 c -4.9729,6.4717 9.1084,2.9277 0,0 z m -54.469,1 c -8.5166,5.3186 8.219,5.2042 0,0 z m -69.969,0.15625 c -7.7142,5.2008 7.8516,5.2723 0,0 z m 14.156,0 c -9.8499,4.5167 8.8113,4.4017 0,0 z m 14.094,0.15625 c -10.172,8.7558 7.5653,7.2868 0,0 z m 62.969,0.0937 c -10.023,6.1292 8.0862,5.5019 0,0 z m 184.31,0.46875 c -8.286,5.2857 7.6065,5.0214 0,0 z m -18.906,0.3125 c -7.6722,7.8689 7.4486,6.886 0,0 z m -39.531,0.125 c -12.675,6.32 7.1467,7.9531 0,0 z m -244.03,0.3438 c -7.175,5.8652 7.2483,4.1372 0,0 z m 317.62,1.0625 c -8.9789,5.7952 8.6798,5.3012 0,0 z m -106.25,0.375 c -8.9467,6.629 7.5026,5.4533 0,0 z m -199.16,0.78125 c -8.3391,4.6222 6.8982,4.3425 0,0 z m 260.88,0.0937 c -8.6133,6.2812 7.6653,5.3973 0,0 z m 67.188,0 c -9.1245,6.2193 7.3898,5.467 0,0 z m 48.625,0 c -9.5855,5.7735 9.1496,5.8402 0,0 z m 49.688,0.9375 c -10.365,5.1136 5.3536,8.3073 0,0 z m -35.219,0.0625 c -6.5553,5.7769 7.3593,5.8314 0,0 z m 4.9688,0.0937 c -9.063,7.3928 6.6323,6.014 0,0 z m -34.719,0.1563 c -6.5296,5.9782 7.9,5.7593 0,0 z m -116.97,1.75 c -5.6717,8.3329 7.7921,6.4084 0,0 z m -151.31,1.25 c -5.482,8.773 9.0613,5.7179 0,0 z m 91.062,0.15625 c -8.2094,4.9779 5.724,5.1932 0,0 z m 88.281,0.0937 c -8.8117,4.9404 8.186,4.915 0,0 z m 74.25,0.125 c -8.3781,4.5004 7.3207,4.2887 0,0 z m 59.281,0.46875 c -8.2289,6.3298 7.3819,6.8854 0,0 z m -336.09,0.1563 c -6.827,7.0208 6.7429,5.88 0,0 z m 213.62,0.40625 c -7.3676,8.3762 5.9288,6.6007 0,0 z m 99.125,0.125 c -4.4938,7.0104 9.3163,3.2186 0,0 z m -46.188,0.25 c -7.7239,5.3752 8.0449,4.3656 0,0 z m -166.38,0.9375 c -6.9088,6.2557 7.8747,7.8682 0,0 z m 90.281,0.6875 c -3.8906,9.3176 16.032,1.3765 0,0 z m -151.53,0.0937 c -10.814,5.6319 9.5595,3.8094 0,0 z m 23.875,0.75 c -8.8518,5.0994 8.668,5.4368 0,0 z m -97.562,0.375 c -9.036,5.1631 8.4529,3.9971 0,0 z m 261.47,1.1875 c -8.1798,7.7949 6.3642,6.6072 0,0 z m -138.06,0.125 c -8.6206,5.1447 8.5628,3.4685 0,0 z m -157.28,0.0313 c -9.1921,5.573 11.356,2.5954 0,0 z m 313.19,0.125 c -7.1592,7.26 11.839,1.1659 0,0 z m -303.59,0.0937 c -3.2019,9.4528 12.321,1.7723 0,0 z m 318.16,0.4063 c -8.4299,5.1323 7.6007,4.841 0,0 z m -273.34,0.5625 c -5.1504,7.3318 11.538,2.2172 0,0 z m 163.03,1.3438 c -8.6459,4.9766 7.7647,4.7136 0,0 z m -196.84,0.46875 c -8.7404,6.9656 7.1914,5.687 0,0 z m 351,0.0937 c -8.0667,4.2948 7.8399,4.2921 0,0 z m 45.656,1 c -8.1618,8.306 6.0061,7.5311 0,0 z m -209.38,0.625 c -7.9109,5.0432 7.7733,3.6061 0,0 z m -133.03,0.4375 c -9.236,4.3151 8.0836,4.3276 0,0 z m 173.78,0.4688 c -6.1683,5.8093 8.9665,1.4391 0,0 z m -12.812,0.46875 c -10.527,4.7437 8.8389,4.3891 0,0 z m 156.06,0 c -7.7096,4.9172 6.8074,4.2456 0,0 z m -69.312,1.7188 c -10.095,6.3674 12.05,4.0356 0,0 z m 106.88,0.53125 c -7.7388,4.581 7.4369,4.4009 0,0 z m -346.94,0.375 c -6.975,5.464 7.248,6.3599 0,0 z m 90.469,0.40625 c -5.5762,6.4248 8.8511,2.7648 0,0 z m 165.78,0.6875 c -8.4309,4.8266 8.1933,3.9862 0,0 z m -233.41,0.21875 c -8.7005,4.8686 8.6849,4.4113 0,0 z m 174.5,0.3125 c -8.7422,4.8298 7.7647,4.4797 0,0 z m -84.625,0.125 c -8.8407,6.2792 11.955,1.0972 0,0 z m 113.06,0.34375 c -3.1978,10.235 13.613,1.9452 0,0 z m 53.094,0.0625 c -7.6941,4.9965 7.6772,5.4804 0,0 z m -325.88,0.3125 c -9.0853,4.2977 8.1991,3.4082 0,0 z m 107.75,3.0938 c -11.233,5.0618 8.2861,4.1502 0,0 z m -84,0.875 c -8.9853,5.5154 8.2753,5.3294 0,0 z m 315.34,0.6875 c -9.1806,5.8148 9.4244,4.0373 0,0 z m -357.19,0.0625 c -5.6629,8.8453 11.421,4.6598 0,0 z m 200.62,0.875 c -10.475,5.7264 5.3556,8.3964 0,0 z m -100.59,0.15625 c -9.5409,4.8811 9.055,3.228 0,0 z m -110.81,0.625 c -9.0361,5.6147 8.8776,4.177 0,0 z m 157.47,0 c -8.9422,5.7793 8.4368,5.3222 0,0 z m 269.34,0.21875 c -4.8522,8.6236 5.1134,6.6234 0,0 z m -246.97,0.15625 c -8.7065,5.7999 8.9608,5.2502 0,0 z m -197.53,0.25 c -10.811,5.5169 8.5597,4.7729 0,0 z m 410.62,0.0937 c -5.1839,7.9366 10.359,4.2693 0,0 z m -104.47,0.875 c -7.3094,7.7983 6.4673,6.4069 0,0 z m -42.781,0.1563 c -7.7542,6.6014 6.2718,7.2252 0,0 z m 104.22,0.5 c -7.7156,5.5601 7.4335,4.9625 0,0 z m -272.31,0.625 c -7.5328,6.895 12.458,1.696 0,0 z m 116.84,0.65625 c -9.4956,5.4426 5.9487,7.1046 0,0 z m 112.41,1.0312 c -12.55,1.7015 6.2347,6.471 0,0 z m -25.281,0.4375 c -12.732,5.2323 11.206,3.4913 0,0 z m -243.16,0.25 c -11.825,4.8668 9.486,4.0184 0,0 z m 222.53,0.3125 c -6.2256,6.0999 6.1107,7.4257 0,0 z m 74.875,0.0937 c -9.9436,5.5746 6.6217,5.5103 0,0 z m -321.34,0.3125 c -13.519,5.9424 5.1118,9.3735 0,0 z m 150.22,0.6875 c -9.0458,5.5877 8.6203,5.2402 0,0 z m -179.44,0.31255 c -2.6877,8.5994 11.509,2.2162 0,0 z m 428.28,0.0625 c -9.4038,6.1208 9.2714,5.5678 0,0 z m -46.25,0.1875 c -5.1197,7.1453 10.575,2.5996 0,0 z m 62,0.40625 0.14992,0.95988 z m -116.59,0.625 c -5.7818,6.4956 6.1734,7.6223 0,0 z m -17.094,0.125 c -6.1883,6.535 10.069,2.9554 0,0 z m -303.25,1.375 c -7.883,6.5461 7.9216,6.6879 0,0 z m 54.906,0.53125 c -6.5344,6.7676 10.792,2.2347 0,0 z m 110.66,0.78125 c -11.038,5.2411 9.9669,3.3873 0,0 z m 117,0.28125 c -8.1595,5.0919 7.8147,4.6412 0,0 z m -34.25,0.15625 c -11.292,4.7668 9.1712,4.1346 0,0 z m -178.72,0.0312 c -11.056,5.8937 13.011,3.0293 0,0 z m 163.12,0.15625 c -6.0461,8.6928 13.081,1.1803 0,0 z m -147.62,0.28125 c -9.0282,8.2437 6.1328,7.6988 0,0 z m 44.125,0.1875 c -3.0782,10.262 14.657,2.5157 0,0 z m 211.66,0.125 c -8.8372,4.9261 8.4209,4.3914 0,0 z m -334.81,0.0312 c -5.7514,7.4941 10.684,2.0149 0,0 z m 7.8125,0.375 c -6.6094,5.7524 7.8701,5.3023 0,0 z m 137.53,0.3126 c -4.8159,8.0007 10.602,2.8045 0,0 z m 145.97,0 c -8.7079,5.708 7.9337,4.8937 0,0 z m -102.5,0.3125 c -8.7587,7.7463 8.3419,6.5288 0,0 z m -203,0.15625 c -9.2347,5.8034 9.372,6.1976 0,0 z m 71.531,0.0625 c -12.13,5.2701 10.177,3.3626 0,0 z m 249.72,0.25 c -9.3211,5.8578 9.554,5.9 0,0 z m -103.06,0.4375 c -7.319,8.1483 11.163,4.9024 0,0 z m 152.12,0.375 c -8.9985,5.7757 8.3005,5.597 0,0 z m -248.91,0.15625 c -8.3434,4.7508 7.0235,4.4067 0,0 z m 176.56,0.15625 c -9.5619,5.1523 7.8036,4.2582 0,0 z m -259.94,0.625 c -8.8994,5.4659 9.1339,3.3404 0,0 z m 233.81,0.6875 c -6.9884,7.4773 9.3041,4.4744 0,0 z m -15.656,0.25 c -9.2514,5.765 8.8185,5.3368 0,0 z m 9.1875,1.1562 c -9.7888,7.4119 8.5692,6.3496 0,0 z m -184.91,0.53125 c -5.274,10.492 14.025,0.16819 0,0 z m 106.94,0.34375 c -6.5805,6.3081 6.6988,7.6236 0,0 z m -14.531,0.0625 c -7.3943,6.8507 6.4018,5.7509 0,0 z m 270.38,0.375 c -6.928,6.8383 12.021,2.3897 0,0 z m -56.188,0.15625 c -7.035,5.839 7.1044,6.7721 0,0 z m -330.53,0.84375 c -9.7309,5.2586 9.7809,2.8537 0,0 z m 248.25,0.1875 c -12.754,5.3435 11.011,4.383 0,0 z m -295.19,0.46875 c -4.8882,8.5899 12.085,2.562 0,0 z m 88.719,0.59375 c -10.716,3.1708 5.0321,6.4544 0,0 z m 317.5,0.0937 c -10.741,5.151 10.725,3.2536 0,0 z m -96.438,1 c -5.8275,7.784 9.9999,5.6448 0,0 z m 26.656,0.4688 c -8.3525,4.5883 7.6528,4.4219 0,0 z m -50.906,0.375 c -4.707,7.9608 10.794,2.4643 0,0 z m -135.78,0.25 c -10.751,4.5534 6.0362,8.244 0,0 z m 203.59,0.3125 c -9.5802,5.819 9.0601,5.3008 0,0 z m -89.812,0.65625 c -7.1667,7.6269 9.9839,4.5405 0,0 z m -26,0.5625 c -6.0232,5.8743 8.9025,2.0606 0,0 z m 64.062,0.53125 c -6.0586,6.7707 11.114,1.0229 0,0 z m -162.59,0.40625 c -8.9354,7.3857 8.2198,6.0044 0,0 z m -75.094,0.53125 c -6.7823,8.5683 10.139,5.4682 0,0 z m 39.656,0.0937 c -6.6898,9.2521 12.022,6.3905 0,0 z m 291.06,0.46875 c -10.625,5.132 9.7017,3.0288 0,0 z m -264.5,1.0626 c -12.708,4.7719 5.3176,7.3673 0,0 z m 30.188,1 c -10.828,5.4662 8.1402,4.8059 0,0 z m -141.03,0.0312 c -5.311,7.2288 9.6061,3.1595 0,0 z m 392.28,0.1563 c -6.2844,6.7761 10.941,2.9672 0,0 z m -160.44,0.0312 c -5.5406,7.1222 10.045,1.209 0,0 z m -259.03,1.3438 c -8.8736,2.933 4.8388,5.0455 0,0 z m 55.094,0.21875 c -6.714,6.3792 5.09,8.6839 0,0 z m 34.531,0.15625 c -9.3258,8.4438 6.4036,7.3393 0,0 z m 37.031,0.15625 c -6.3547,6.0425 9.7001,1.4374 0,0 z m 259.03,0.375 c -9.2539,5.5844 4.5187,7.706 0,0 z m -187.28,0.0937 c -8.2716,5.0089 7.9251,4.9153 0,0 z m 146,1.375 c -8.6445,5.5587 11.523,1.4694 0,0 z m -15.125,1.875 c -8.6779,5.3597 8.3905,5.2092 0,0 z m -266.16,0.71875 c -8.0833,5.3237 8.7062,5.617 0,0 z m 221.97,0.1875 c -8.1309,5.908 8.5654,7.3263 0,0 z m -102.41,0.0313 c -8.8533,6.4904 7.676,5.8576 0,0 z m 24.312,0 c -8.5058,4.7123 8.3611,4.6456 0,0 z m -137.16,0.125 c -4.5506,8.1342 10.081,5.3797 0,0 z m 160.56,0.40625 c -7.7901,6.1244 11.677,1.5314 0,0 z m -107.81,0.0625 c -11.065,5.482 10.396,3.2376 0,0 z m 131.28,0.46875 c -10.324,5.2528 8.8417,4.8186 0,0 z m 103.09,0.0312 c -6.5336,6.7095 8.6617,6.6003 0,0 z m 9.5625,0.53125 c -5.0373,7.4822 9.0691,3.1435 0,0 z m 66.688,0.3125 c -9.3761,5.8813 9.7479,3.7566 0,0 z m -128.59,1.2188 c -9.221,5.2048 8.8222,4.575 0,0 z m 14.812,0.125 c -9.0351,6.1371 12.517,1.0462 0,0 z m -168.78,0.4063 c -6.8684,5.8354 6.7492,6.997 0,0 z m -135,0.25 c -10.359,6.7719 8.5056,5.7786 0,0 z m 430.47,1 c -8.091,1.8159 6.1118,6.8437 0,0 z m -402.06,0.46875 c -6.0652,6.5031 7.5695,6.3547 0,0 z m 56.031,0.0937 c -8.4771,5.2683 8.1403,4.836 0,0 z m 161.5,0.84375 c -11.594,5.4239 10.814,3.5787 0,0 z m 13.375,0.21875 c -10.854,4.9895 8.941,4.2206 0,0 z m -58.156,0.5625 c -5.9105,8.0779 11.285,1.3687 0,0 z m -78.125,0.6875 c -6.7529,5.7532 9.4916,1.5634 0,0 z m -78.219,1.25 c -9.263,5.6736 9.3426,5.6366 0,0 z m 101.72,0.21875 c -4.7841,6.9493 9.974,2.8726 0,0 z m 276.06,1.1562 c -5.6301,6.3475 6.3065,7.1915 0,0 z m -91.031,0.71875 c -9.2138,4.6434 8.2251,4.9372 0,0 z m 45.625,1.1562 c -4.81,8.966 11.325,4.169 0,0 z m 14.344,0.125 c -6.0664,8.256 10.58,5.2962 0,0 z m -108.88,0.0312 c -9.3876,4.283 6.0482,7.1355 0,0 z m 32.625,0.0625 c -8.4356,4.7824 7.6226,4.8201 0,0 z m -45.656,0.2188 c -5.0468,7.9191 11.364,2.9553 0,0 z m -162.47,0.625 c -5.2821,10.371 14.485,0.30474 0,0 z m -43.469,0.9375 c -7.317,5.962 10.374,1.3107 0,0 z m 98.406,0.0937 c -9.5399,4.8584 7.8052,4.1971 0,0 z m 136.19,0.5 c -9.1125,6.2535 8.7893,5.6388 0,0 z m 39.875,0.25 c -4.9135,7.7184 11.179,2.8863 0,0 z m 28.5,0 c -10.226,5.1125 8.3566,4.6051 0,0 z m -9.8438,0.9375 c -10.735,5.9413 12.008,3.2308 0,0 z m -161.22,0.59375 c -8.6796,6.3784 7.5049,5.2904 0,0 z m -175.56,0.0312 c -3.1729,9.2694 13.425,2.0719 0,0 z m 156.03,0.125 c -7.7183,4.9386 8.0984,5.3934 0,0 z m 173.22,0.8125 c -9.5193,4.4726 7.8756,4.3115 0,0 z m -165.97,0.375 c -6.7848,6.5195 10.001,2.4902 0,0 z m 222.16,0.21885 c -4.3825,7.2745 9.7141,3.1666 0,0 z m -155.91,0.71875 c -8.4513,5.3278 8.5767,5.2992 0,0 z m -203.81,0.46875 c -10.536,4.954 7.5046,5.1159 0,0 z m 219.62,0.21875 c -8.2325,4.7978 8.3126,4.5384 0,0 z m 10.906,0.4375 c -11.053,5.5574 11.311,3.2527 0,0 z m 148.28,1.4688 c -9.004,5.352 8.6552,5.549 0,0 z m -428.03,0.1875 c -8.4926,4.7403 8.2265,4.5821 0,0 z m 355.5,0.0625 c -4.774,8.2493 11.189,3.621 0,0 z m -121.59,0.25 c -7.0789,6.881 12.676,1.7276 0,0 z m -107.69,1.2812 c -8.2717,4.3163 7.9141,4.2941 0,0 z m 45.125,0 c -7.182,6.5719 8.3942,8.4125 0,0 z m -13.688,0.8125 c -11.077,4.958 13.055,3.717 0,0 z m -64,0.375 c -6.2112,7.006 8.2273,7.6019 0,0 z m 328.06,1.6875 c -10.395,5.0799 9.4371,3.3388 0,0 z m -107.59,1.1562 c -7.3565,7.6634 10.19,4.3652 0,0 z m -276.31,0.15625 c -9.4652,5.8865 9.3097,6.1445 0,0 z m 305.06,0.25 c -7.2017,6.1682 6.1323,6.9044 0,0 z m -58.469,1.25 c -7.6441,5.9635 7.3276,6.8766 0,0 z m 18.531,0.0625 c -8.1376,5.6228 7.6858,5.6085 0,0 z m 25.844,0.4375 c -9.8576,6.7041 8.2163,5.5856 0,0 z m -271.94,0.0312 c -6.3352,5.7905 8.1106,5.0605 0,0 z m 295.62,0.4375 c -8.9947,7.7289 7.9179,6.5088 0,0 z m -280.5,0.5 c -8.5376,6.2546 7.3457,5.363 0,0 z m 73.969,1.3125 c -5.913,9.652 11.614,7.6774 0,0 z m -125.41,0.12505 c -10.668,6.0169 8.3774,5.2737 0,0 z m 343.91,0 c -7.6782,6.3944 8.2643,7.2596 0,0 z m -362.38,1.25 c -8.2462,8.3706 7.7321,5.8466 0,0 z m 431.69,0.59375 c -3.7388,1.0795 1.2309,8.1752 0,0 z m -352.78,0.125 c -10.34,5.9646 13.846,3.0067 0,0 z m 301.59,0.59375 c -8.1302,4.8533 8.2833,5.0313 0,0 z m 32,0 c -8.5192,5.0463 8.8203,4.864 0,0 z m 11.281,0.21875 c -10.489,5.9075 8.3492,5.4197 0,0 z m -374.47,0.46875 c -8.154,6.1515 7.0161,5.586 0,0 z m 279.97,0.5625 c -11.388,6.0746 8.261,5.4227 0,0 z m -135.34,0.28125 c -6.0769,7.5478 11.329,2.1333 0,0 z m -87.906,0.40625 c -6.541,6.8455 9.1429,4.3662 0,0 z m 78,0.15625 c -6.7016,7.8448 5.8448,6.4965 0,0 z m 85.562,0.40625 c -7.754,5.4389 8.0396,4.2688 0,0 z m -58.312,0.28125 c -10.152,4.7868 8.2663,4.1639 0,0 z m 124.5,0.9375 c -9.9351,3.8146 4.2237,7.4419 0,0 z m -166.88,0.0625 c -13.077,4.5865 10.361,3.5225 0,0 z m -74.406,0.625 c -8.4448,6.3083 8.7284,7.3555 0,0 z m 297.62,0.46875 c -12.548,4.5309 6.1397,8.3432 0,0 z m -98.531,0.21875 c -5.5293,7.4657 9.8318,2.7668 0,0 z m 27.969,0.0937 c -10.803,8.1377 7.5496,6.532 0,0 z m 79.625,0.15625 c -7.6504,6.4285 7.03,7.3239 0,0 z m -118.66,0.0625 c -5.6079,6.1542 8.9576,2.3837 0,0 z m -211.19,0.8125 c -3.3843,7.8275 11.784,1.7796 0,0 z m 165.91,0.4375 c -8.9062,8.8491 6.5664,7.3338 0,0 z m -77.75,0.71875 c -9.3927,5.5043 9.388,5.8146 0,0 z m 16.781,0.15625 c -9.0438,5.8802 9.1397,5.3287 0,0 z m 201.72,0.0625 c -10.052,5.1727 9.4253,5.0112 0,0 z m -315.12,0.0937 c -10.721,4.7671 9.0999,4.5728 0,0 z m -22.469,0.53125 c -5.3102,10.501 14.99,-0.24292 0,0 z m 45.219,0.53135 c -5.5643,8.3914 9.5175,6.5421 0,0 z m 259.72,0.0625 c -5.0136,6.3899 8.0723,2.7542 0,0 z m 17.219,0.3125 c -7.9344,7.018 11.709,0.98427 0,0 z m -56,0.5625 c -7.4335,4.5179 7.0833,4.3103 0,0 z m -105.5,1.1562 c -10.225,4.4888 6.9132,4.0232 0,0 z m 189.72,0.6875 c -10.151,6.9998 7.0662,7.3272 0,0 z m -219.59,0.15625 c -8.2496,5.3836 8.3726,5.789 0,0 z m -37.438,0.21875 c -9.133,5.1004 8.6426,4.8611 0,0 z m -24.594,0.15625 c -7.9123,5.5378 10.851,1.3437 0,0 z m 317.06,0.0312 c -5.7784,3.9594 0.71933,8.8902 0,0 z m -21.25,0.84375 c -4.3625,8.2842 11.199,2.6882 0,0 z m -213.34,0.375 c -8.0229,8.0136 5.3863,6.9986 0,0 z m 205.94,0.0625 c -12.975,5.0435 4.8467,8.6262 0,0 z m -133.66,0.25 c -9.0486,5.8546 8.1693,5.2592 0,0 z m -249.66,0.0937 c -8.2549,5.8145 7.8714,5.3748 0,0 z m 15.125,0 c -7.2005,6.4021 6.7446,7.3343 0,0 z m 347.38,0.375 c -9.4062,5.9851 9.6041,4.0177 0,0 z m 7.8125,1.0625 c -9.8101,6.9006 8.6845,5.9452 0,0 z m -314.56,0.46875 c -5.968,6.5459 6.2681,8.5875 0,0 z m 9.5,0.0937 c -5.8787,6.3928 6.524,7.0108 0,0 z m -28.406,1 c -8.3343,5.8374 8.8796,6.674 0,0 z m 266.91,0.375 c -10.188,5.2789 9.3266,3.557 0,0 z m -153.03,0.5 c -8.1122,5.0828 7.9249,4.9495 0,0 z m 168.25,0.96875 c -12.508,5.5327 10.668,3.7431 0,0 z m -43.938,0.0937 c -9.5583,5.6041 9.1907,3.8793 0,0 z m -110.5,0.3125 c -10.502,4.584 6.2038,7.9028 0,0 z m 102.91,0.46875 c -10.592,4.4731 9.3336,4.5227 0,0 z m 61.25,0.90625 c -7.7004,8.3064 11.212,4.86 0,0 z m -245.94,0.0312 c -8.0453,6.9148 6.3686,7.1497 0,0 z m 200.03,0.84375 c -10.616,4.906 9.1721,3.8393 0,0 z m 124.22,1.2188 c -5.3871,-0.21875 0.33157,6.9966 0,0 z m -10.094,0.71875 c -10.347,5.2948 10.325,3.318 0,0 z m -42.375,0.625 c -8.4025,4.622 7.3519,4.4607 0,0 z m 33.188,0.375 c -7.5758,6.8823 11.922,1.5665 0,0 z m -283.75,0.594 c -9.4153,7.2546 13.533,1.1049 0,0 z m -56.562,0.34375 c -6.2668,7.1868 6.3132,9.3836 0,0 z m 120.97,0.15625 c -8.0844,5.2244 8.3188,3.6894 0,0 z m 28.344,0.3125 c -9.6727,8.372 8.0902,6.2641 0,0 z m 18.531,0.375 c -4.726,8.3375 10.169,3.4352 0,0 z m -33.719,0.21875 c -6.1237,5.9685 7.2607,5.7424 0,0 z m 52.625,0.0937 c -6.1326,5.7514 7.7603,5.4172 0,0 z m 58.75,0 c -11.903,4.297 6.4988,7.6938 0,0 z m -284.62,0.46875 c -10.095,4.4092 8.6376,3.2899 0,0 z m 238.78,0.0625 c -9.2174,6.7629 8.0908,5.0754 0,0 z m 90.625,0.15625 c -9.333,6.0092 8.4913,5.3572 0,0 z m -272.72,0.0937 c -9.0069,5.0885 10.937,2.9701 0,0 z m 76.531,0.28125 c -13.827,4.9361 7.0614,7.8469 0,0 z m 16.844,2.3438 c -6.4949,6.1478 5.3148,7.6136 0,0 z m 161.44,0.375 c -9.5615,5.868 8.9889,5.3461 0,0 z m -192.97,0.40625 c -7.9793,4.495 7.7388,4.4696 0,0 z m 149.25,0.0625 c -7.7387,5.2831 7.7965,4.5432 0,0 z m 30.031,0.46875 c -7.904,4.9931 7.6708,4.7471 0,0 z m -195.06,2.0938 c -4.8333,8.7009 11.311,3.1808 0,0 z m -92.062,0.84375 c -7.6046,4.9934 7.7179,4.0678 0,0 z m 355.91,1.0938 c -7.2741,5.5464 11.233,1.4767 0,0 z m -198.91,0.15625 c -9.0641,5.5993 9.423,5.5785 0,0 z m -116.19,0.75 c -11.391,4.9492 9.8144,3.5289 0,0 z m 285.25,0.0937 c -7.4454,4.3785 7.5871,4.7388 0,0 z m 15.625,0.375 c -6.2274,6.8823 10.321,1.8074 0,0 z m -111.44,0.37505 c -7.7467,6.2413 6.6257,6.6521 0,0 z m -175.12,1.1562 c -10.181,5.719 10.468,3.4235 0,0 z m 89.125,0.3125 c -8.6033,5.4159 8.5574,5.4921 0,0 z m 23.469,0.84375 c -8.4594,8.4781 6.1243,7.3015 0,0 z m 45.156,0.0937 c -9.7097,3.9768 4.1743,7.647 0,0 z m 40.25,0.25 c -8.2277,5.1687 7.7997,4.737 0,0 z m 29.438,0.21875 c -8.043,5.7562 7.7088,4.7579 0,0 z m -86.781,0.34375 c -4.5216,9.3893 13.592,-0.0416 0,0 z m -114.38,0.1875 c -13.031,5.5714 10.076,4.6369 0,0 z m 102.19,0.3125 c -9.3243,7.879 14.128,0.97026 0,0 z m -86.312,0.46875 c -7.1654,5.4947 8.0013,4.2582 0,0 z m 170.5,0.125 c -3.926,9.7963 12.424,-0.38911 0,0 z m -248.97,1.4063 c -8.786,4.4191 7.9194,4.3973 0,0 z m 293.31,0.3125 c -6.8079,8.8346 10.772,5.7434 0,0 z m -17.562,1.9375 c -6.4434,9.8051 14.388,0.1295 0,0 z m -66.531,0.25 c -9.5987,6.2138 8.1938,5.68 0,0 z m -194.81,0.15625 c -11.325,5.1205 11.21,2.8555 0,0 z m 115.88,0.53125 c -8.0528,4.7652 7.9859,4.5406 0,0 z m -86.344,0.8125 c -13.021,2.8672 8.0472,5.1855 0,0 z m 183.34,0.96875 c -8.573,4.0856 6.3289,3.9576 0,0 z m -201.72,0.84375 c -8.1296,4.9489 7.8035,4.4867 0,0 z m 66.938,0 c -10.103,5.22 9.9574,3.6316 0,0 z m 224.41,0.34375 c -7.1214,5.9066 8.3568,5.3118 0,0 z m -132.97,1.4375 c -5.695,5.7913 8.7365,2.1892 0,0 z m -175.12,0.25 c -9.7235,5.3212 8.4852,5.0441 0,0 z m 43.75,0.375 c -9.0127,5.093 8.9217,5.4891 0,0 z m 278.88,0.15625 c -7.5853,4.5342 7.576,4.6466 0,0 z m -152.88,0.71875 c -10.466,3.744 5.0562,7.2291 0,0 z m -137.56,0.90625 c -9.6719,5.3732 10.871,3.196 0,0 z m 128.5,0.0625 c -8.3132,6.4685 7.14,5.821 0,0 z m -177.59,0.3125 c 4.7919,8.7633 4.5856,-0.91261 0,0 z m 213.34,0.5 c -4.9999,7.2887 9.1099,3.0818 0,0 z m -89.656,0.84375 c -3.0898,9.4972 12.286,0.10311 0,0 z m 167.16,0 c -4.8952,7.962 10.175,2.9714 0,0 z m -178.12,0.28125 c -5.4009,7.8066 10.275,4.5364 0,0 z m -85.406,0.0937 c -9.695,4.571 5.5569,7.411 0,0 z m 201.78,1 c -8.699,5.2424 9.4221,3.2748 0,0 z m -24.938,0.0937 c -7.9464,7.6617 5.1271,6.6181 0,0 z m -8.4688,0.53125 c -15.354,6.2339 9.9572,6.642 0,0 z m -153.91,0.40635 c -8.429,5.9132 7.7796,4.9052 0,0 z m 210.78,1.375 c -9.2563,5.5634 8.8136,5.4813 0,0 z m 16.125,0.375 c -5.8205,7.8758 11.855,2.7029 0,0 z m 43.594,1.1875 c -7.3706,5.0307 7.5301,4.3673 0,0 z m -213.22,0.84375 c -11.065,3.1945 5.3858,6.4334 0,0 z m 55.125,0.15625 c -6.4815,7.5804 12.756,1.8076 0,0 z m -97,0.9375 c -9.028,5.6419 8.9243,5.108 0,0 z m 275.28,0.125 c -10.449,7.8511 7.5588,5.1451 0,0 z m -91.781,0.25 c -8.797,5.1583 9.7862,3.1703 0,0 z m -120.03,0.21875 c -8.5288,5.649 7.17,5.3397 0,0 z m 59.344,0.21875 c -8.9257,7.3838 7.0059,6.2643 0,0 z m 9.6875,0.96875 c -8.1793,4.8757 7.1846,4.4064 0,0 z m -51.75,0.15625 c -5.3351,6.4313 9.6919,2.7425 0,0 z m -28.938,0.4375 c -4.3322,7.4424 10.291,3.4672 0,0 z m 179.69,0.40625 c -9.1655,4.917 7.128,4.8486 0,0 z m -209.75,1.9062 c -4.9036,7.4971 9.1731,3.1937 0,0 z m 144.19,0.25 c -3.1656,9.9587 13.282,1.5732 0,0 z m 31.875,0.15625 c -5.7367,6.1294 6.7332,8.5648 0,0 z m -89.125,0.59375 c -5.7485,7.9253 9.57,3.6102 0,0 z m -130.44,0.34375 c -9.9086,4.6478 8.783,4.2713 0,0 z m 15.125,0.6875 c -5.9273,6.5369 9.1789,2.7461 0,0 z m 157.06,0.3125 c -7.382,5.2722 7.6944,5.9408 0,0 z m 91.375,0.9375 c -7.372,5.7236 8.0944,6.7055 0,0 z m 23.188,1.9375 c -8.0905,4.8857 7.7822,4.6525 0,0 z m -46.438,0.15625 c -7.6178,7.2285 5.4401,6.332 0,0 z m -210.34,0.21875 c -11.357,4.9187 8.0915,4.2776 0,0 z m 115.66,0.0625 c -7.6504,5.2181 7.7362,5.8461 0,0 z m 57.844,0.875 c -11.502,4.9222 11.853,2.7512 0,0 z m -105.09,0.625 c -7.1281,5.2816 7.4285,5.8392 0,0 z m 129.31,0.1875 c -7.7872,4.7124 7.7017,4.4917 0,0 z m -6.2812,0.0312 c -11.67,4.8767 4.192,9.4811 0,0 z m 55.469,1.2188 c -7.4048,5.2885 8.1398,3.9241 0,0 z m -200.19,1.7812 c -5.0249,7.0313 10.161,3.0023 0,0 z m 14,0.3125 c -8.3742,4.6478 7.1421,4.5079 0,0 z m -76.156,0.21875 c -8.5745,5.4026 8.846,3.6395 0,0 z m 93.219,0.15625 c -9.0107,4.6103 7.3215,4.4012 0,0 z m 61.062,0.78125 c -15.494,4.6419 7.138,7.6677 0,0 z m 82.156,0.71875 c -11.632,1.9229 6.4437,5.9649 0,0 z m -188.97,0.3125 c -9.0885,7.8363 6.541,5.9782 0,0 z m 210.59,1 c -9.944,4.2341 7.8177,3.7239 0,0 z m -61.5,0.3125 c -6.7417,6.4091 6.5658,7.623 0,0 z m -22.094,0.84375 c -10.324,4.7002 9.2159,4.44 0,0 z m -66.844,0.0937 c -7.7192,5.2904 9.2925,3.4782 0,0 z m 17.906,0.28125 c -5.2864,6.4386 8.9557,3.07 0,0 z m 17.938,0.5625 c -10.93,4.427 6.3306,7.6714 0,0 z m 62.75,0.0625 c -9.0852,5.6009 8.3927,4.9983 0,0 z m 39.062,0.3125 c -10.517,5.3634 8.4477,4.9627 0,0 z m -25.781,0.90625 c -13.337,5.1357 11.502,3.6758 0,0 z m -196.84,0.40625 c -6.4808,7.9542 9.7328,3.7374 0,0 z m 209.09,3.1876 c -7.1943,4.6597 7.1992,4.0605 0,0 z m -97.094,0.75 c -7.0757,8.7914 10.819,5.6359 0,0 z m 72.219,1.4062 c -10.653,4.4872 8.4966,3.5272 0,0 z m 51.281,0.46875 c -1.8058,1.2356 -1.0723,0.73369 0,0 z m -101.69,0.84375 c -8.6323,5.1077 8.8784,5.6541 0,0 z m 10.031,0.0625 c -8.7743,4.2839 6.3287,4.1416 0,0 z m 20.688,0.40625 c -8.5256,5.2048 8.9846,3.2738 0,0 z m 36.469,0 c -9.5037,5.0813 6.3749,5.2156 0,0 z m -188.91,0.78125 c -11.209,4.9527 11.161,3.3988 0,0 z m 51.25,0.28125 c -12.632,6.0635 7.0144,6.8661 0,0 z m -23.406,0.28125 c -5.9312,7.5879 10.088,4.6033 0,0 z m 189.56,0.0312 c -10.671,3.3168 3.9323,2.5001 0,0 z m -117.75,1.5625 c -8.8823,5.812 8.0406,4.9172 0,0 z m 6.4062,0.5625 c -10.733,5.172 9.5539,3.9176 0,0 z m -19.531,1.3126 c -10.134,7.7116 7.5031,6.0601 0,0 z m 116.69,0.90625 c -9.1711,4.789 8.3182,3.62 0,0 z m -37.062,2.1562 c -5.1308,8.9651 13.356,-0.65339 0,0 z m -152.94,0.40625 c -8.0923,6.5372 7.466,7.4718 0,0 z m 103.56,0.0625 c -9.8292,5.6918 7.1039,5.7626 0,0 z m -51,1.5625 c -8.1711,5.3135 8.13,5.5717 0,0 z m 69.469,0.0625 c -8.7434,5.5714 8.2096,4.9829 0,0 z m 61.781,1.1562 c -13.906,4.68 8.6441,1.4111 0,0 z m -96.406,0.25 c -9.8742,4.4152 7.7473,3.6503 0,0 z m 85.406,0.25 c -9.0802,6.0028 9.2204,6.482 0,0 z m -42.969,3.0625 c -9.1976,4.996 8.0984,4.3491 0,0 z m -33.938,3.1875 c -6.0885,6.1608 7.1015,6.0219 0,0 z m 53.344,0 c -10.248,4.2587 8.8959,4.3726 0,0 z m -12.219,1.2188 c -5.4901,8.1976 8.5697,6.7234 0,0 z m -22.25,0.625 c -13.453,4.1531 7.2634,6.5919 0,0 z m 7.6875,0.46875 c -9.8558,5.3348 8.7405,4.9078 0,0 z m -49.625,6.2188 c -5.4858,1.1743 6.4845,1.315 0,0 z"
           inkscape:connector-curvature="0"
           style="opacity:0.35;fill:url(#radialGradient3996);filter:url(#filter3843)"
           id="path26285" />
        <path
           inkscape:connector-curvature="0"
           transform="translate(-485.1,74.225)"
           d="m 457.16,299.66 c -1.4,0.03 -2.8,0.36 -4.1,1.06 -11.89,4.96 -19.13,18.88 -18.18,31.84 -0.01,6.58 4.8,13.77 11.65,13.66 6.74,-0.53 11.92,-7.46 15.06,-12.78 5.19,-7.55 4.96,-17.15 3.97,-26.16 -0.17,-4.92 -4.22,-7.71 -8.4,-7.62 z"
           style="fill:#805a0f;filter:url(#filter4100)"
           id="path3015" />
        <path
           inkscape:connector-curvature="0"
           transform="translate(-485.1,74.225)"
           d="m 457.81,300.94 c -0.86,0 -1.76,0.14 -2.59,0.44 -12.97,4.32 -21.06,18.67 -19.75,32 0.11,6.12 4.94,12.46 11.41,12.37 6.89,-0.73 11.58,-6.81 15,-12.31 5.39,-7.57 4.85,-17.33 3.96,-26.06 -0.54,-3.92 -4.27,-6.46 -8.03,-6.44 z"
           style="fill:url(#linearGradient4015);filter:url(#filter4109)"
           id="path3856" />
        <path
           inkscape:connector-curvature="0"
           transform="translate(-485.1,74.225)"
           d="m 457.97,304.09 c -0.24,0 -0.46,0.02 -0.69,0.03 -6.46,0.47 -11.46,7.09 -14.34,13.07 -3.39,6.36 -6.01,14.94 -2.22,21.75 4.06,4.56 10.38,0.82 13.53,-3.16 4.44,-5.26 7.01,-12.21 8.34,-19.12 0.12,-7.3 -9.49,-10.93 -13.62,-5.28 -4.6,5.71 -9.09,14.13 -6,21.84 2.83,6.17 10.18,2.14 12.56,-2.41 3.07,-4.6 5.95,-13.92 0.06,-17.19 -8.25,-2.85 -14.76,11.25 -8,16.97 6.22,4.2 12.93,-8.39 6.25,-11.9 -6.46,-4.49 -9.8,11.75 -2.28,7.84 -1.7,-0.98 -5.48,-2.22 -2.47,-5.84 5.57,-6.48 9.88,5.81 3.66,8.65 -6.12,4.48 -9.51,-6.21 -5.63,-10.62 3.15,-7.37 13.62,-4.17 10.82,4.22 -1.09,6.47 -6.83,16 -13.56,10.72 -3.77,-4.14 -1.15,-10.67 0.74,-15.19 2.28,-4.09 5.69,-9.28 10.6,-8.72 7.16,1.4 6.88,10.37 3.72,15.72 -2.55,6.56 -7.13,13.6 -14.06,14.56 -7.22,-0.85 -6.84,-11.4 -4.16,-16.81 2.68,-7.41 6.95,-15.25 14.12,-18.1 7.83,-1.68 11.12,8.56 8.1,15.13 -2.25,9.59 -7.65,18.81 -15.91,23.19 -0.13,2.58 6.07,-3.31 7.5,-4.88 6.73,-7.47 10.76,-18.45 9.53,-28.97 -0.55,-2.41 -2.12,-4.65 -4.4,-5.28 -0.74,-0.15 -1.48,-0.22 -2.19,-0.22 z"
           style="color:#000000;text-indent:0;text-transform:none;fill:url(#radialGradient3933);filter:url(#filter4685)"
           id="path3810" />
        <path
           inkscape:connector-curvature="0"
           transform="translate(-485.1,74.225)"
           d="m 445.69,209.38 c -31.59,1.44 -35.41,64.02 -27.97,71.68 10.2,9.23 31.99,-5.21 34.97,-19.25 1.33,-6.27 -5.4,-34.44 -7,-52.43 z"
           style="color:#000000;opacity:0.55362998;fill:#d6a302;filter:url(#filter4008)"
           id="path3917" />
        <path
           inkscape:connector-curvature="0"
           transform="translate(-485.1,74.225)"
           d="m 424.31,230.78 c -5.72,7.23 -9.15,16.39 -9.15,26.34 0,16.55 9.44,30.88 23.22,37.85 -1.66,-16.92 -1.51,-18.61 -3.26,-23.35 -1.55,-4.21 -5.75,-14.58 -6.5,-26.46 -0.81,-4.88 -2.29,-9.7 -4.31,-14.38 z"
           style="opacity:0.14224004;fill:#e3b00f;filter:url(#filter3988)"
           id="path3960" />
      </g>
    </g>
  </g>
  <metadata
     id="metadata74">
    <rdf:RDF>
      <cc:Work>
        <dc:format>image/svg+xml</dc:format>
        <dc:type
           rdf:resource="http://purl.org/dc/dcmitype/StillImage" />
        <cc:license
           rdf:resource="http://creativecommons.org/publicdomain/zero/1.0/" />
        <dc:publisher>
          <cc:Agent
             rdf:about="http://openclipart.org/">
            <dc:title>OpenClipart</dc:title>
          </cc:Agent>
        </dc:publisher>
        <dc:title>Lemon</dc:title>
        <dc:source>https://openclipart.org/detail/189589</dc:source>
        <dc:creator>
          <cc:Agent>
            <dc:title>Keistutis</dc:title>
          </cc:Agent>
        </dc:creator>
      </cc:Work>
      <cc:License
         rdf:about="http://creativecommons.org/publicdomain/zero/1.0/">
        <cc:permits
           rdf:resource="http://creativecommons.org/ns#Reproduction" />
        <cc:permits
           rdf:resource="http://creativecommons.org/ns#Distribution" />
        <cc:permits
           rdf:resource="http://creativecommons.org/ns#DerivativeWorks" />
      </cc:License>
    </rdf:RDF>
  </metadata>
</svg>
