<?xml version="1.0" encoding="UTF-8" standalone="no"?>
<svg
   xmlns:dc="http://purl.org/dc/elements/1.1/"
   xmlns:cc="http://creativecommons.org/ns#"
   xmlns:rdf="http://www.w3.org/1999/02/22-rdf-syntax-ns#"
   xmlns:svg="http://www.w3.org/2000/svg"
   xmlns="http://www.w3.org/2000/svg"
   xmlns:sodipodi="http://sodipodi.sourceforge.net/DTD/sodipodi-0.dtd"
   xmlns:inkscape="http://www.inkscape.org/namespaces/inkscape"
   version="1.1"
   id="Layer_1"
   x="0px"
   y="0px"
   viewBox="0 0 256 256"
   enable-background="new 0 0 1920 1407"
   xml:space="preserve"
   sodipodi:docname="onion_02.svg"
   inkscape:version="0.92.4 (5da689c313, 2019-01-14)"
   width="256"
   height="256"><title
   id="title1579">Onion</title><metadata
   id="metadata772"><rdf:RDF><cc:Work
       rdf:about=""><dc:format>image/svg+xml</dc:format><dc:type
         rdf:resource="http://purl.org/dc/dcmitype/StillImage" /><dc:title>Onion</dc:title><cc:license
         rdf:resource="http://creativecommons.org/publicdomain/zero/1.0/" /><dc:source>https://openclipart.org/detail/228333</dc:source><dc:publisher><cc:Agent><dc:title>OpenClipart</dc:title></cc:Agent></dc:publisher><dc:creator><cc:Agent><dc:title>GDJ</dc:title></cc:Agent></dc:creator></cc:Work><cc:License
       rdf:about="http://creativecommons.org/publicdomain/zero/1.0/"><cc:permits
         rdf:resource="http://creativecommons.org/ns#Reproduction" /><cc:permits
         rdf:resource="http://creativecommons.org/ns#Distribution" /><cc:permits
         rdf:resource="http://creativecommons.org/ns#DerivativeWorks" /></cc:License></rdf:RDF></metadata><defs
   id="defs770" /><sodipodi:namedview
   pagecolor="#ffffff"
   bordercolor="#666666"
   borderopacity="1"
   objecttolerance="10"
   gridtolerance="10"
   guidetolerance="10"
   inkscape:pageopacity="0"
   inkscape:pageshadow="2"
   inkscape:window-width="1920"
   inkscape:window-height="1025"
   id="namedview768"
   showgrid="false"
   inkscape:zoom="1.7913372"
   inkscape:cx="59.189221"
   inkscape:cy="164.15174"
   inkscape:window-x="-8"
   inkscape:window-y="-8"
   inkscape:window-maximized="1"
   inkscape:current-layer="Layer_1"
   fit-margin-top="0"
   fit-margin-left="0"
   fit-margin-right="0"
   fit-margin-bottom="0" />




























<g
   id="g583"
   transform="matrix(0.41199033,0,0,0.41199033,54.177855,-311.08883)">
	<path
   d="m 202.9,757 c 8,-2 17.3,-3 24.8,1.3 7.1,4.4 10.4,12.5 12.8,20.1 6.9,21.8 5.6,45 4.8,67.6 -0.6,14.6 -1.5,29.3 0.1,43.9 4.8,41.9 3.2,84.1 5.2,126.1 1.8,49.1 13.5,97.2 27.7,144 5.8,18.8 11.4,37.7 18.4,56.1 7.2,19.1 15.1,38.1 19.5,58 0.7,3.5 2.5,6.6 3.7,9.9 3.3,8.6 4.9,17.8 5.3,27 0.1,5.4 -2.3,11.1 -0.5,16.4 6.8,6 17.3,5.7 24,11.9 0.9,1.1 2.2,2.2 2,3.8 -0.8,1.1 -1.8,2 -2.8,2.9 -6.6,-2.9 -13.3,-5.7 -19.6,-9.2 -3.9,-2.4 -7.7,-5.9 -8.7,-10.5 3.6,-6.3 2.7,-13.9 1.8,-20.8 -3.4,-22.1 -13.8,-42.2 -20.5,-63.3 -12.6,-39.4 -23.5,-79.2 -36.2,-118.6 -2.6,-8 -5.6,-15.9 -8.5,-23.8 -1.3,-3.2 -0.9,-6.7 -1.4,-10.1 -2.2,-13.2 -2.8,-26.6 -5.1,-39.8 -4,-20.4 -4,-41.2 -4.3,-61.9 -0.3,-8.3 0.5,-16.6 -0.1,-24.9 -1.3,-18 -1,-36.1 -2.1,-54.1 -1.6,-18.7 -0.2,-37.4 -0.2,-56.1 0.1,-20.4 0.3,-41 -3.6,-61.2 -1.8,-8.3 -4,-17.2 -10.2,-23.3 -0.9,-1 -1.9,-1.9 -3,-2.7 -2,-0.7 -4,-1.2 -6.1,-1.5 -1.6,0 -3.3,0 -4.9,0 -1.7,0 -3.4,0.1 -5.1,0.2 -1.7,0.1 -3.4,0.1 -5,0.3 -2,0.3 -4.1,0.3 -5.9,1.4 -2.4,3.6 -2.4,8.1 -3,12.2 -5.7,0.5 -11.4,1.5 -17,0.6 -5.4,-0.4 -11.2,-1.4 -16.4,0.6 -2.4,0.9 -2.7,3.7 -3.1,5.9 -0.8,7.6 0.3,15.3 0.3,22.9 -2.2,-6.6 -4.2,-13.2 -6.7,-19.7 -1.6,-4.6 -5.4,-8.3 -10.2,-9.3 -12.8,-2.9 -26.3,2.2 -36,10.6 -3.4,3 -4,7.7 -2.7,11.9 4.3,16.8 14.8,31 21,47 4.5,11.1 9.4,22 14.1,33 3,7.2 6.5,14.3 8.6,21.8 -22.2,-30.8 -44.4,-62.5 -56.2,-99 -6.3,6.1 -12.8,12 -19.1,18.2 -3.5,3.4 -6.4,7.5 -9.1,11.6 -3.5,-4 -7,-8.5 -12.1,-10.6 -2.3,-1 -4.7,0.4 -6.7,1.4 -1.3,1 -2.6,2.2 -3.8,3.4 -2.3,2.3 -4.4,4.6 -6.4,7.1 -1.1,1.3 -2.1,2.6 -3.2,4 -1.3,1.8 -2.6,3.5 -4,5.3 -1.1,1.5 -2.2,3.1 -3.3,4.7 -0.8,1.1 -1.6,2.3 -2.4,3.5 -0.9,1.4 -1.9,2.9 -2.8,4.3 -0.4,0.6 -1.2,1.9 -1.6,2.6 -0.8,1.2 -1.6,2.4 -2.3,3.7 -0.9,1.8 -2.8,4.2 -0.7,6 18.3,24.2 41.7,44.1 63.6,65.2 15.1,14.4 29.4,29.8 41.6,46.8 9.4,12.3 18.9,24.6 27.8,37.3 14.8,20.8 29.3,41.9 42.9,63.5 3.6,5.6 7.1,11.3 10.9,16.8 6.8,20.4 12.5,41.2 18.8,61.7 5.6,19.4 12,38.7 17.8,58.1 10,35.3 15,72.2 30.2,105.9 2.7,6.7 8.6,11.8 15.5,13.9 0.9,0.3 1.8,0.5 2.7,0.8 l 0.1,0.9 c 0.5,5.5 0.7,11.3 -1,16.6 -2.7,4 -7.5,5.7 -10.9,9.1 3.4,0.4 7.1,1 10.4,-0.4 2.8,-1.2 4.6,-3.7 6.5,-5.8 0.6,4.6 1.2,9.2 2,13.8 -0.4,0.5 -1,1.5 -1.4,2.1 -1.9,-3 -2.1,-6.9 -4.7,-9.3 -3.7,0 -5.8,4.5 -9.7,4.7 -2,0.1 -5.2,1.3 -6,-1.3 1.8,-4.1 5.3,-7.2 7.2,-11.3 2.5,-4.7 3.6,-10.6 0.9,-15.4 -2.2,-5.2 -7.6,-7.8 -11.1,-12 -10.5,-12 -16.2,-27.3 -20.5,-42.4 -4.1,-14.4 -6.4,-29.3 -9,-44 -3.7,-17.9 -9.2,-35.4 -14.3,-52.9 -7.4,-24.9 -15.4,-49.6 -22.4,-74.7 -1.3,-3.7 -1.2,-7.9 -3.7,-11.1 C 164.9,1060 138.8,1008.2 101.7,964.2 80.9,939.3 54.2,920.5 31.7,897.4 24.3,889.8 15,883.6 10,873.9 c -4.1,-7.7 -2.5,-17.3 2.2,-24.4 6.7,-10 14.8,-19.1 24.1,-26.8 4.8,-3.7 10.2,-7.7 16.5,-7.8 5.3,2.1 8,7.8 11.5,12.1 8.7,-9.3 16.9,-19 26.4,-27.5 6.1,3 8.5,9.7 10.7,15.6 2.6,7.8 6.4,15 10,22.4 4.2,8.5 8.8,17.1 15.8,23.6 -8.9,-16.2 -18,-32.3 -24.9,-49.4 -2.4,-6.4 -5.2,-13.2 -4,-20.2 1,-5.6 5.3,-10.2 10.5,-12.3 8.8,-3.9 18.6,-2.6 27.9,-2.7 7.4,0 14.6,2.9 20.3,7.6 1.6,-3.5 4.2,-6.6 7.9,-8 8.5,-3.5 17.8,-2.1 26.7,-1.1 1.8,-6.9 3.9,-15.4 11.3,-18 z"
   id="path517"
   inkscape:connector-curvature="0"
   style="fill:#000100;stroke:#000100;stroke-width:0.39399999" />
	<path
   d="m 199,766.1 c 1.8,-1.1 3.9,-1.1 5.9,-1.4 0.2,15.9 2.7,31.7 3.6,47.6 2.5,28.2 4.5,56.4 3.7,84.7 -0.3,11.7 -2.8,23.3 -1.8,35 0.9,-8 2,-16 3.5,-24 2.3,-13.2 2.7,-26.7 2.5,-40.1 0.2,-24.5 -1.9,-48.9 -3.8,-73.3 -1,-10.1 -1.3,-20.2 -2.6,-30.3 1.7,-0.1 3.4,-0.1 5.1,-0.2 0.7,11 3.6,21.7 4.8,32.7 2.6,18.3 4.2,36.7 5.7,55.1 0.4,11.7 0.3,23.4 -1.1,35.1 -1,14.9 -3.8,29.8 -3.1,44.9 1.7,-15.8 5.1,-31.3 6.8,-47 3.8,-24.9 1.6,-50.2 -1.4,-75 -1.4,-15.3 -4.3,-30.5 -6.9,-45.7 2.1,0.4 4.1,0.9 6.1,1.5 0,7 2.9,13.4 4.1,20.2 4.9,25 6.2,50.5 5.6,76 0.2,31.7 -1.3,63.6 2.9,95.1 0.2,-19.3 -0.4,-38.7 0.7,-58.1 1.3,-24.3 1.7,-48.6 1.2,-73 -1,-13.7 -2.4,-27.4 -5,-40.9 -1.1,-5.9 -3.9,-11.3 -6.5,-16.6 6.2,6.2 8.4,15 10.2,23.3 3.8,20.1 3.7,40.7 3.6,61.2 0,18.7 -1.4,37.4 0.2,56.1 1.2,18 0.9,36.1 2.1,54.1 -1.8,3.5 -3.1,7.3 -3.4,11.2 -1.3,11.5 -0.1,23.1 -0.1,34.7 0.1,14.1 0,28.3 1.1,42.4 -3.2,-2.9 -4.1,-7.2 -5.9,-10.9 -0.8,-2.3 -1.7,-4.7 -2.5,-7 -3.1,-15.1 -5.6,-30.4 -5.8,-45.8 -4,14.3 -1,29.4 2.2,43.5 0.8,4.4 1.7,8.8 2.4,13.2 -0.5,5.3 -0.4,10.7 0.6,16 -0.9,-0.5 -1.8,-0.9 -2.7,-1.3 v 1 c -1.1,-3 -2.3,-6 -3.7,-8.9 -1.9,-6.3 -3.4,-12.7 -4.5,-19.2 -1.6,-9.5 -2.4,-19.2 -5.4,-28.4 0.4,12.3 2,24.4 3.2,36.6 0.4,3.7 0.8,7.4 1,11.2 -0.5,4.4 -0.6,8.8 -0.2,13.2 -1,-0.5 -1.9,-1 -2.9,-1.5 -1,-4 -2,-8 -3.1,-12 -1.2,-6.5 -1.9,-13 -3,-19.4 -1.6,9.8 -0.9,19.7 0.1,29.6 0.2,8.5 0.8,17.1 -0.2,25.6 -0.7,6.4 -2.8,12.6 -5.3,18.5 -0.3,0.7 -0.6,1.3 -0.9,2 -1.1,-2.1 -2.3,-4.1 -3,-6.3 1.2,-1.9 2.7,-3.8 2.6,-6.1 0.2,-16.7 1.8,-33.3 1.6,-50 -0.1,-3.9 0,-7.9 0.3,-11.8 0.5,-6.5 -0.8,-12.8 -1.7,-19.2 -2.9,-19.6 -8.4,-39 -7.6,-59 0.5,-19.7 2.5,-39.3 3.4,-59 1,-20.6 1.4,-41.3 0.2,-62 -2,-18.2 -5.8,-36.2 -5.9,-54.6 -8.4,0.1 -16.8,0.3 -25.2,-0.8 3.7,20.2 10,40 12.4,60.4 3.3,25.5 3.9,51.3 5.1,77 0.1,20.8 1.6,41.7 -0.3,62.4 -0.3,-0.3 -0.8,-1.1 -1.1,-1.4 -1.7,-18 0,-36.3 -4,-54 -6.4,-29.8 -11.1,-59.9 -14.5,-90.1 -0.3,10.8 -0.2,21.6 1.2,32.4 1.4,20.4 4.7,40.7 8.6,60.7 2.7,14.2 2,28.7 2.4,43.1 -2.8,-3.8 -7,-7.1 -7.6,-12.1 -3.6,-20.7 -6.3,-41.5 -8.6,-62.3 -1.9,-17.9 -4.6,-35.7 -4.6,-53.7 -0.1,-10.9 0.2,-21.9 0,-32.8 0,-7.6 -1,-15.3 -0.3,-22.9 0.3,-2.2 0.6,-5 3.1,-5.9 5.2,-2 11,-1 16.4,-0.6 5.7,0.9 11.4,-0.1 17,-0.6 0.6,-4 0.7,-8.5 3,-12.1 z"
   id="path519"
   inkscape:connector-curvature="0"
   style="fill:#539a34;stroke:#539a34;stroke-width:0.39399999" />
	<path
   d="m 106.9,789.9 c 9.7,-8.4 23.2,-13.5 36,-10.6 4.8,1 8.6,4.7 10.2,9.3 -0.2,0.6 -0.5,1.9 -0.7,2.6 -1.5,-8 -10.4,-13.2 -18.1,-10.7 1.3,6.5 2.8,12.9 5,19.2 3.7,10.3 6.6,20.9 9.6,31.5 1.2,4.8 2.3,9.6 4.1,14.3 l 0.1,0.5 c -0.1,0.6 -0.3,1.9 -0.4,2.5 -4.3,-6.7 -7.5,-14.1 -10.7,-21.4 -4.9,-12 -8.5,-25 -17,-35.1 0.8,4.3 2.1,8.5 3.3,12.7 3.7,12.7 6.9,25.6 10.3,38.5 1.7,6.4 3.6,12.8 4.3,19.4 -4.2,-6.9 -5.7,-15 -9.4,-22.1 -4.6,-11.1 -10.2,-21.7 -15.4,-32.5 -3.3,-6.3 -6.6,-12.7 -11.2,-18.1 z"
   id="path521"
   inkscape:connector-curvature="0"
   style="fill:#539a34;stroke:#539a34;stroke-width:0.39399999" />
	<path
   d="m 72.6,822.7 c 6.3,-6.2 12.8,-12.1 19.1,-18.2 11.9,36.4 34,68.2 56.2,99 5,9.6 8,20.1 11.6,30.4 1.9,5.7 4.2,11.3 5.5,17.2 -10.3,-11.6 -19.1,-24.3 -28.4,-36.7 -11.9,-16.4 -24,-32.6 -35.5,-49.2 -10,-13.9 -18.9,-28.4 -28.5,-42.5 z"
   id="path523"
   inkscape:connector-curvature="0"
   style="fill:#539a34;stroke:#539a34;stroke-width:0.39399999" />
	<path
   d="m 134.3,780.4 c 7.7,-2.5 16.6,2.7 18.1,10.7 -3.9,17.9 -0.2,36.2 0.6,54.2 -1.7,-4.7 -2.9,-9.5 -4.1,-14.3 -2.9,-10.6 -5.9,-21.1 -9.6,-31.5 -2.2,-6.2 -3.6,-12.6 -5,-19.1 z"
   id="path525"
   inkscape:connector-curvature="0"
   style="fill:#2f8a0f;stroke:#2f8a0f;stroke-width:0.39399999" />
	<path
   d="m 104.2,801.8 c -1.3,-4.2 -0.7,-8.9 2.7,-11.9 4.6,5.4 7.8,11.8 11.2,18 5.2,10.8 10.8,21.4 15.4,32.5 3.8,7.1 5.3,15.2 9.4,22.1 -0.8,-6.6 -2.6,-13 -4.3,-19.4 -3.4,-12.8 -6.6,-25.7 -10.3,-38.5 -1.3,-4.2 -2.6,-8.4 -3.3,-12.7 8.5,10.1 12.1,23.1 17,35.1 3.3,7.3 6.4,14.7 10.7,21.4 0.1,-0.6 0.3,-1.9 0.4,-2.5 3.3,21 5.8,42.2 9.8,63.1 1,5.3 3,10.6 2.1,16 -1.1,3.4 -4.5,5.4 -5.5,8.9 -3.5,-10.2 -6.6,-20.7 -11.6,-30.4 -2.2,-7.6 -5.6,-14.6 -8.6,-21.8 -4.7,-11 -9.5,-21.9 -14.1,-33 -6.2,-16 -16.7,-30.2 -21,-46.9 z"
   id="path527"
   inkscape:connector-curvature="0"
   style="fill:#2f8a0f;stroke:#2f8a0f;stroke-width:0.39399999" />
	<path
   d="m 204.9,764.7 c 1.7,-0.1 3.4,-0.2 5,-0.3 1.3,10 1.6,20.2 2.6,30.3 1.9,24.4 4,48.8 3.8,73.3 0.2,13.4 -0.2,26.9 -2.5,40.1 -1.4,8 -2.6,15.9 -3.5,24 -0.9,-11.7 1.6,-23.3 1.8,-35 0.8,-28.3 -1.2,-56.6 -3.7,-84.7 -0.8,-16 -3.3,-31.8 -3.5,-47.7 z"
   id="path529"
   inkscape:connector-curvature="0"
   style="fill:#318911;stroke:#318911;stroke-width:0.39399999" />
	<path
   d="m 215,764.3 c 1.6,-0.1 3.3,-0.1 4.9,0 2.5,15.2 5.4,30.3 6.9,45.7 2.9,24.8 5.2,50.1 1.4,75 -1.7,15.8 -5.2,31.3 -6.8,47 -0.7,-15 2,-29.9 3.1,-44.9 1.5,-11.6 1.5,-23.4 1.1,-35.1 -1.5,-18.4 -3.2,-36.8 -5.7,-55.1 -1.2,-10.9 -4.1,-21.6 -4.9,-32.6 z"
   id="path531"
   inkscape:connector-curvature="0"
   style="fill:#308910;stroke:#308910;stroke-width:0.39399999" />
	<path
   d="m 169.6,865.4 c -1.3,-10.7 -1.5,-21.6 -1.2,-32.4 3.4,30.2 8.1,60.3 14.5,90.1 4,17.7 2.3,36 4,54 -2.1,-2.6 -4.2,-5.2 -6.3,-7.8 -0.5,-14.4 0.3,-28.9 -2.4,-43.1 -3.9,-20.2 -7.2,-40.4 -8.6,-60.8 z"
   id="path533"
   inkscape:connector-curvature="0"
   style="fill:#308910;stroke:#308910;stroke-width:0.39399999" />
	<path
   d="m 226,765.8 c 1.1,0.8 2.1,1.7 3,2.7 2.7,5.3 5.5,10.7 6.5,16.6 2.6,13.5 4.1,27.2 5,40.9 0.5,24.3 0.1,48.7 -1.2,73 -1.1,19.3 -0.5,38.7 -0.7,58.1 -4.2,-31.5 -2.8,-63.4 -2.9,-95.1 0.6,-25.4 -0.8,-51 -5.6,-76 -1.2,-6.8 -4.1,-13.2 -4.1,-20.2 z"
   id="path535"
   inkscape:connector-curvature="0"
   style="fill:#308911;stroke:#308911;stroke-width:0.39399999" />
	<path
   d="m 170.8,778.6 c 8.4,1.1 16.8,0.9 25.2,0.8 0.1,18.4 3.9,36.4 5.9,54.6 1.2,20.6 0.7,41.3 -0.2,62 -0.9,19.7 -2.9,39.3 -3.4,59 -0.8,20 4.8,39.4 7.6,59 0.9,6.4 2.1,12.7 1.7,19.2 -0.3,-0.1 -0.9,-0.4 -1.1,-0.6 -9.6,-11.2 -16.9,-24 -24.4,-36.6 -8,-13.8 -16.1,-27.5 -25.5,-40.4 -22.2,-31.1 -48.8,-58.8 -70.9,-90 -7,-10.6 -13.8,-21.4 -21.9,-31.3 2.7,-4.1 5.5,-8.2 9.1,-11.6 9.5,14.1 18.5,28.6 28.5,42.3 11.5,16.6 23.6,32.9 35.5,49.2 9.3,12.4 18.1,25.2 28.4,36.7 -1.3,-5.9 -3.6,-11.5 -5.5,-17.2 1,-3.5 4.5,-5.5 5.5,-8.9 0.9,-5.4 -1.1,-10.7 -2.1,-16 -4.1,-20.9 -6.6,-42.1 -9.8,-63.1 l -0.1,-0.5 c -0.8,-18 -4.6,-36.3 -0.6,-54.2 0.2,-0.6 0.5,-1.9 0.7,-2.6 2.5,6.5 4.5,13.1 6.7,19.7 0.2,10.9 0,21.9 0,32.8 0,18 2.7,35.8 4.6,53.7 2.4,20.9 5,41.7 8.6,62.3 0.6,5 4.8,8.3 7.6,12.1 2.1,2.6 4.1,5.3 6.3,7.8 0.3,0.4 0.8,1.1 1.1,1.4 1.9,-20.8 0.4,-41.6 0.3,-62.4 -1.2,-25.7 -1.8,-51.5 -5.1,-77 -2.7,-20.2 -9,-40 -12.7,-60.2 z"
   id="path537"
   inkscape:connector-curvature="0"
   style="fill:#136812;stroke:#136812;stroke-width:0.39399999" />
	<path
   d="m 44.8,825.1 c 2,-1 4.4,-2.4 6.7,-1.4 5,2.1 8.6,6.6 12.1,10.6 8.1,9.8 14.9,20.7 21.9,31.3 22.2,31.2 48.7,58.9 70.9,90 9.4,12.9 17.5,26.6 25.5,40.4 7.5,12.6 14.8,25.4 24.4,36.6 -1.3,2.6 -2.3,5.3 -3.1,8 -16.7,-19.5 -27.7,-43.1 -43.1,-63.6 5.3,16.8 14.8,31.9 24,46.8 3.9,6.5 8.4,12.6 11.7,19.4 -8.5,-6.4 -14.3,-15.5 -22.1,-22.7 8.1,13.5 17.6,26.6 21.8,42 -8.8,-8.8 -15.3,-19.6 -22.5,-29.7 3.1,10.8 11.1,19.2 15.3,29.5 -5.9,-4.7 -10.4,-10.8 -15.2,-16.6 -8.2,-9.3 -15.6,-19.3 -23.2,-29 -5.4,-6.9 -10.7,-13.8 -16.4,-20.4 -4.4,-5.1 -8.6,-10.5 -13.9,-14.7 -12.2,-17 -26.4,-32.4 -41.6,-46.8 -21.9,-21.1 -45.3,-41 -63.7,-65.4 -2.1,-1.8 -0.1,-4.2 0.7,-6 5.6,8.3 13.4,14.9 20.2,22.1 5.1,5.6 11.1,10.3 16.2,16 4.1,4.5 9.1,8.1 13.4,12.5 12.1,12.3 25.2,23.4 36.6,36.3 17,17.6 32.6,36.7 45.7,57.4 4.8,6.6 9.1,13.6 14.1,20.1 -1.1,-5.5 -5.3,-9.6 -7.9,-14.4 -6,-10.5 -12.9,-20.4 -19.3,-30.6 -12.4,-17.7 -27.1,-33.5 -41.8,-49.2 -8.7,-9.3 -18.7,-17.2 -27,-26.9 7,4.2 12.9,9.8 19.4,14.5 11.9,10 24.2,19.8 35,31 11.3,11.1 19.9,24.6 31.5,35.5 -6.5,-9.7 -13.7,-18.9 -21.1,-27.9 -4,-5.8 -9.4,-10.4 -13.1,-16.4 5.5,3.8 10.1,8.8 14.8,13.5 4.4,4.4 7.7,9.8 12.4,13.9 -2.2,-4.3 -5.2,-8.2 -8.2,-11.9 C 122.7,942.1 106.1,928.5 90.1,914.6 77.6,904.1 65.9,892.8 54.9,880.7 44.8,869.4 36,857 27.5,844.5 c 1.3,-1.8 2.6,-3.5 4,-5.3 6.8,10.9 14.4,21.4 22.9,31.1 18.5,21.5 40.5,39.5 61.1,58.9 6.2,5.1 11.5,11.1 17,16.9 5.8,6.3 11.6,12.6 16.8,19.4 3.3,4.1 5.9,8.8 9.8,12.5 -2.5,-6.8 -7.2,-12.3 -11.2,-18.3 -9.9,-13 -20.6,-25.4 -32.6,-36.4 -23.1,-23.2 -48.9,-44.1 -68.2,-70.8 -4.4,-5.6 -7.5,-12.2 -12.4,-17.3 2,-2.5 4.2,-4.9 6.4,-7.1 6.3,12.2 13,24.2 20.9,35.5 4.8,8 11.1,15 17.7,21.4 11.6,12.1 25.3,22 37.5,33.5 2.9,2.8 5.8,5.6 9,8.1 -5.6,-8.2 -13,-15.1 -20.3,-21.8 C 93.9,892.5 80.5,881.3 70.6,867.1 61,854 53,839.5 44.8,825.1 Z"
   id="path539"
   inkscape:connector-curvature="0"
   style="fill:#539a33;stroke:#539a33;stroke-width:0.39399999" />
	<path
   d="m 41,828.5 c 1.2,-1.2 2.5,-2.3 3.8,-3.4 8.2,14.4 16.2,28.9 25.8,42.3 9.9,14.2 23.3,25.4 35.3,37.7 7.3,6.7 14.7,13.6 20.3,21.8 -3.2,-2.5 -6.1,-5.3 -9,-8.1 C 105,907.3 91.4,897.4 79.7,885.3 73,878.8 66.8,871.8 62,863.9 54,852.7 47.4,840.7 41,828.5 Z"
   id="path541"
   inkscape:connector-curvature="0"
   style="fill:#318811;stroke:#318811;stroke-width:0.39399999" />
	<path
   d="m 31.4,839.5 c 1,-1.3 2.1,-2.7 3.2,-4 4.9,5.2 8,11.7 12.4,17.3 19.4,26.7 45.1,47.6 68.2,70.8 12,11.1 22.7,23.5 32.6,36.4 4,5.9 8.7,11.5 11.2,18.3 -3.9,-3.7 -6.4,-8.4 -9.8,-12.5 -5.1,-6.9 -10.9,-13.2 -16.8,-19.4 -5.5,-5.8 -10.9,-11.8 -17,-16.9 C 94.8,910.1 72.8,892.1 54.3,870.6 45.8,861 38.2,850.5 31.4,839.5 Z"
   id="path543"
   inkscape:connector-curvature="0"
   style="fill:#308811;stroke:#308811;stroke-width:0.39399999" />
	<path
   d="m 24.2,849.5 c 1.1,-1.6 2.2,-3.1 3.3,-4.7 8.5,12.5 17.3,24.9 27.4,36.2 11,12.1 22.7,23.4 35.2,33.9 16,13.9 32.7,27.5 45.8,44.3 3.1,3.7 6,7.5 8.2,11.9 -4.7,-4.1 -8,-9.5 -12.4,-13.9 -4.8,-4.7 -9.3,-9.7 -14.8,-13.5 3.7,6 9.1,10.6 13.1,16.4 7.4,9 14.6,18.2 21.1,27.9 -11.6,-10.8 -20.2,-24.4 -31.5,-35.5 -10.8,-11.3 -23,-21 -35,-31 C 78,916.8 72.1,911.1 65.2,907 c 8.3,9.7 18.3,17.6 27,26.9 14.8,15.7 29.5,31.5 41.8,49.2 6.5,10.2 13.3,20.2 19.3,30.6 2.6,4.8 6.8,8.8 7.9,14.4 -5,-6.5 -9.3,-13.5 -14.1,-20.1 C 134,987.3 118.4,968.2 101.4,950.6 90,937.7 76.8,926.5 64.8,914.3 c -4.2,-4.4 -9.3,-8 -13.4,-12.5 -5,-5.7 -11,-10.4 -16.2,-16 C 28.4,878.5 20.6,872 15,863.7 c 0.7,-1.3 1.5,-2.5 2.3,-3.7 3.9,3.8 7.5,8 12,11.2 -3.1,-4.9 -7.4,-8.8 -10.4,-13.8 0.9,-1.5 1.9,-2.9 2.8,-4.3 11.7,14.3 22.2,30 37.1,41.2 -3.3,-5 -7.6,-9.1 -11.4,-13.7 -8.1,-10.1 -16.3,-20.1 -23.2,-31.1 z"
   id="path545"
   inkscape:connector-curvature="0"
   style="fill:#30890f;stroke:#30890f;stroke-width:0.39399999" />
	<path
   d="m 24.2,849.5 c 6.9,10.9 15.1,21 23.3,31 3.8,4.6 8.1,8.7 11.4,13.7 C 44,883 33.5,867.3 21.8,853 c 0.8,-1.2 1.6,-2.3 2.4,-3.5 z"
   id="path547"
   inkscape:connector-curvature="0"
   style="fill:#519f35;stroke:#519f35;stroke-width:0.39399999" />
	<path
   d="m 17.3,859.9 c 0.4,-0.6 1.2,-1.9 1.6,-2.6 3,5 7.3,8.9 10.4,13.8 -4.4,-3.2 -8,-7.4 -12,-11.2 z"
   id="path549"
   inkscape:connector-curvature="0"
   style="fill:#429325;stroke:#429325;stroke-width:0.39399999" />
	<path
   d="m 241.7,974.4 c 0.4,-3.9 1.6,-7.7 3.4,-11.2 0.5,8.3 -0.2,16.6 0.1,24.9 0.3,20.7 0.3,41.5 4.3,61.9 2.3,13.2 2.9,26.6 5.1,39.8 0,2.9 -0.4,5.9 -1,8.7 -4.5,2.5 -9.2,4.8 -14.3,5.7 -10.7,2.1 -21.6,1.9 -32.5,1.4 2.4,-5.9 4.6,-12.1 5.3,-18.5 1,-8.5 0.4,-17.1 0.2,-25.6 0.3,-4.5 0.7,-8.9 0.9,-13.4 0.7,1.1 1.4,2.2 2.1,3.3 1,4 2,8 3.1,12 1.8,6.9 3.8,13.8 6.1,20.6 -0.8,-10.8 -1.6,-21.6 -3,-32.3 -0.2,-3.7 -0.6,-7.5 -1,-11.2 0.7,-1.1 1.4,-2.1 2.1,-3.2 -0.1,5.1 1.4,10.1 4.7,14.1 1.4,2.9 2.6,5.8 3.7,8.9 1,3.2 2.6,6.3 4.4,9.1 0.6,-8.3 -0.4,-16.7 -2.3,-24.8 -0.7,-4.4 -1.7,-8.8 -2.4,-13.2 0.2,-2.1 0.5,-4.1 0.7,-6.2 0.4,3 1.3,5.9 2.9,8.5 0.9,2.3 1.7,4.7 2.5,7 2.4,9.9 4.9,19.8 8,29.5 -0.3,-6.3 -1.5,-12.4 -2.1,-18.6 -1.1,-14.1 -1,-28.3 -1.1,-42.4 -0.1,-11.7 -1.2,-23.3 0.1,-34.8 z"
   id="path551"
   inkscape:connector-curvature="0"
   style="fill:#b6fc22;stroke:#b6fc22;stroke-width:0.39399999" />
	<path
   d="m 160.2,977 c 15.3,20.5 26.3,44.1 43.1,63.6 -2.4,10.3 -2.6,20.9 -1.7,31.4 0.4,5.7 1.8,11.4 1.2,17.2 -0.1,3.4 -0.1,7 -1.6,10.2 -3.8,-5.5 -7.3,-11.2 -10.9,-16.8 -13.7,-21.6 -28.1,-42.7 -42.9,-63.5 0.8,-0.8 1.7,-1.5 2.5,-2.3 7.6,9.7 15,19.7 23.2,29 4.8,5.8 9.3,11.9 15.2,16.6 -4.2,-10.3 -12.2,-18.7 -15.3,-29.5 7.1,10.1 13.6,20.9 22.5,29.7 -4.2,-15.4 -13.7,-28.5 -21.8,-42 7.8,7.1 13.6,16.3 22.1,22.7 -3.2,-6.8 -7.8,-12.9 -11.7,-19.4 -9.2,-15 -18.6,-30.1 -23.9,-46.9 z"
   id="path553"
   inkscape:connector-curvature="0"
   style="fill:#b5fc24;stroke:#b5fc24;stroke-width:0.39399999" />
	<path
   d="m 119.6,981.8 c 5.3,4.2 9.5,9.6 13.9,14.7 5.7,6.6 11.1,13.5 16.4,20.4 -0.8,0.7 -1.7,1.5 -2.5,2.3 -8.9,-12.7 -18.4,-25 -27.8,-37.4 z"
   id="path555"
   inkscape:connector-curvature="0"
   style="fill:#baf930;stroke:#baf930;stroke-width:0.39399999" />
	<path
   d="m 228.4,987.8 c 0.2,15.5 2.8,30.7 5.8,45.8 -1.5,-2.6 -2.5,-5.5 -2.9,-8.5 -0.2,2.1 -0.5,4.1 -0.7,6.2 -3.2,-14.1 -6.2,-29.1 -2.2,-43.5 z"
   id="path557"
   inkscape:connector-curvature="0"
   style="fill:#b3fc31;stroke:#b3fc31;stroke-width:0.39399999" />
	<path
   d="m 217.3,1003.8 c 3,9.2 3.8,18.9 5.4,28.4 1.1,6.5 2.7,12.9 4.5,19.2 -3.3,-4 -4.8,-9 -4.7,-14.1 -0.7,1 -1.4,2.1 -2.1,3.2 -1.1,-12.3 -2.7,-24.4 -3.1,-36.7 z"
   id="path559"
   inkscape:connector-curvature="0"
   style="fill:#b3fb30;stroke:#b3fb30;stroke-width:0.39399999" />
	<path
   d="m 212.4,1031.8 c 1.1,6.5 1.8,13 3,19.4 -0.7,-1.1 -1.4,-2.2 -2.1,-3.3 -0.2,4.5 -0.6,8.9 -0.9,13.4 -0.9,-9.7 -1.6,-19.7 0,-29.5 z"
   id="path561"
   inkscape:connector-curvature="0"
   style="fill:#affa3e;stroke:#affa3e;stroke-width:0.39399999" />
	<path
   d="m 206.4,1032.6 c 0.3,0.2 0.8,0.4 1.1,0.6 -0.3,3.9 -0.4,7.9 -0.3,11.8 0.1,16.7 -1.4,33.3 -1.6,50 0.1,2.3 -1.4,4.3 -2.6,6.1 -0.6,-4 -0.2,-8 -0.3,-11.9 0.6,-5.8 -0.8,-11.5 -1.2,-17.2 -0.9,-10.5 -0.7,-21.1 1.7,-31.4 0.8,-2.8 1.9,-5.4 3.2,-8 z"
   id="path563"
   inkscape:connector-curvature="0"
   style="fill:#2f8a0c;stroke:#2f8a0c;stroke-width:0.39399999" />
	<path
   d="m 236.8,1040.6 c 1.8,3.7 2.7,8 5.9,10.9 0.6,6.2 1.8,12.4 2.1,18.6 -3.2,-9.7 -5.6,-19.6 -8,-29.5 z"
   id="path565"
   inkscape:connector-curvature="0"
   style="fill:#6ab017;stroke:#6ab017;stroke-width:0.39399999" />
	<path
   d="m 233.1,1044.6 c 1.9,8.1 2.9,16.5 2.3,24.8 -1.8,-2.9 -3.4,-5.9 -4.4,-9.1 v -1 c 0.9,0.4 1.8,0.8 2.7,1.3 -1.1,-5.3 -1.1,-10.7 -0.6,-16 z"
   id="path567"
   inkscape:connector-curvature="0"
   style="fill:#589b21;stroke:#589b21;stroke-width:0.39399999" />
	<path
   d="m 221.5,1051.6 c 1.4,10.7 2.3,21.5 3,32.3 -2.3,-6.8 -4.3,-13.7 -6.1,-20.6 1,0.5 1.9,1 2.9,1.5 -0.4,-4.4 -0.3,-8.8 0.2,-13.2 z"
   id="path569"
   inkscape:connector-curvature="0"
   style="fill:#579d1f;stroke:#579d1f;stroke-width:0.39399999" />
	<path
   d="m 201.2,1099.4 c 1.5,-3.2 1.4,-6.8 1.6,-10.2 0.1,4 -0.3,8 0.3,11.9 0.7,2.2 1.9,4.3 3,6.3 0.3,-0.7 0.6,-1.3 0.9,-2 10.8,0.5 21.8,0.7 32.5,-1.4 6,8.3 10.4,17.5 15,26.5 5.6,10.7 9.6,22.1 13.8,33.3 7.9,20.2 13.6,41.2 19.9,62 2.7,7.6 4.6,15.4 6.9,23.2 3.3,12.8 8.7,24.9 10.9,38 2.1,9.7 2.5,19.7 1.5,29.6 -0.5,3.5 -1.1,7.3 -3.6,9.9 -1.2,-1.2 -2,-2.7 -2.3,-4.4 -2.3,-10.6 -1.8,-21.7 -4.4,-32.2 -1.9,-10 -4.8,-19.7 -7.9,-29.3 -3.6,-9.3 -6.3,-19 -10,-28.2 -4.2,-12.1 -9.2,-23.9 -12.6,-36.3 -4.3,-13.4 -4.3,-28 -9.9,-41.1 -1.2,-4.6 -4.1,-8.4 -7.9,-11.2 -0.8,11.4 1.6,22.7 4.2,33.7 2,9.9 5.2,19.5 8,29.2 4.6,12.2 7.5,25 12.7,37 4.7,14.5 10.8,29.3 9.6,44.8 -7.5,-7.9 -9,-19.3 -12.2,-29.2 -5.2,-15.1 -9.3,-30.5 -14.4,-45.5 -3.6,-12.2 -7.6,-24.3 -10.3,-36.8 -2.9,-9.8 -4,-20.1 -7.2,-29.8 -1.5,-5.9 -3.6,-11.7 -7.1,-16.7 -1,2.7 -1.9,5.4 -1.6,8.3 0.5,12.4 6.2,23.6 8.5,35.7 2.2,11.4 3.9,23 6.5,34.4 2.2,8.6 3.1,17.5 6.1,25.9 3.8,12.3 8.8,24.2 13.6,36.2 3.2,10.1 7.8,19.6 10.4,29.9 2.2,8.2 5.2,16.4 5.8,25 0.3,4.4 0.9,8.7 1.7,13 -6.9,-2.1 -12.8,-7.2 -15.5,-13.9 -15.2,-33.7 -20.2,-70.6 -30.2,-105.9 -5.8,-19.4 -12.1,-38.6 -17.8,-58.1 -6,-20.4 -11.7,-41.2 -18.5,-61.6 m 7.7,7.7 c 0.3,3 0.6,5.9 1.3,8.8 5.4,25.9 13.9,51 21.9,76.2 5.4,17 13.1,33.3 15.9,51 4.3,22.2 7.3,45.3 18.5,65.3 2.1,3.8 3.9,8 7.6,10.4 1.6,-2.7 1.9,-5.8 1,-8.8 -3.2,-11.8 -7.5,-23.2 -11.4,-34.7 -6.1,-18.2 -12.2,-36.4 -18.2,-54.6 -6.7,-21.6 -13.8,-43.3 -17.1,-65.8 -1.9,-13.7 -3.2,-27.5 -5.6,-41.1 -0.4,-2.2 -0.8,-4.6 -2,-6.5 -3.9,-1 -8,-0.3 -11.9,-0.2 z"
   id="path571"
   inkscape:connector-curvature="0"
   style="fill:#d9d9b7;stroke:#d9d9b7;stroke-width:0.39399999" />
	<path
   d="m 254.7,1089.7 c 0.5,3.4 0.2,6.9 1.4,10.1 3,7.9 5.9,15.8 8.5,23.8 12.6,39.3 23.5,79.2 36.2,118.6 6.8,21.1 17.1,41.2 20.5,63.3 0.9,6.9 1.8,14.5 -1.8,20.8 -0.4,0.8 -0.9,1.6 -1.3,2.4 -7.3,9.7 -20.4,13.3 -32,11.1 -0.9,-0.3 -1.8,-0.5 -2.7,-0.8 -0.7,-4.3 -1.4,-8.7 -1.7,-13 -0.6,-8.6 -3.5,-16.8 -5.8,-25 -2.7,-10.2 -7.3,-19.8 -10.4,-29.9 -4.7,-12 -9.8,-23.8 -13.6,-36.2 -3,-8.4 -3.9,-17.3 -6.1,-25.9 -2.5,-11.4 -4.2,-23 -6.5,-34.4 -2.3,-12 -8,-23.3 -8.5,-35.7 -0.3,-2.9 0.7,-5.6 1.6,-8.3 3.5,5 5.6,10.8 7.1,16.7 3.2,9.7 4.3,20 7.2,29.8 2.6,12.5 6.6,24.6 10.3,36.8 5.1,15.1 9.2,30.5 14.4,45.5 3.2,10 4.8,21.3 12.2,29.2 1.2,-15.6 -4.9,-30.3 -9.6,-44.8 -5.2,-12 -8.1,-24.8 -12.7,-37 -2.8,-9.7 -6,-19.3 -8,-29.2 -2.6,-11 -5,-22.3 -4.2,-33.7 3.8,2.8 6.7,6.6 7.9,11.2 5.6,13.1 5.5,27.6 9.9,41.1 3.4,12.3 8.4,24.2 12.6,36.3 3.7,9.3 6.4,18.9 10,28.2 3.1,9.6 6,19.3 7.9,29.3 2.6,10.6 2.1,21.6 4.4,32.2 0.3,1.6 1,3.2 2.3,4.4 2.5,-2.7 3,-6.5 3.6,-9.9 1,-9.9 0.5,-19.9 -1.5,-29.6 -2.2,-13.1 -7.6,-25.2 -10.9,-38 -2.4,-7.7 -4.2,-15.6 -6.9,-23.2 -6.4,-20.7 -12.1,-41.7 -19.9,-62 -4.2,-11.3 -8.2,-22.7 -13.8,-33.3 -4.7,-9 -9.1,-18.2 -15,-26.5 5.1,-0.8 9.8,-3.2 14.3,-5.7 0.2,-2.8 0.6,-5.8 0.6,-8.7 z"
   id="path573"
   inkscape:connector-curvature="0"
   style="fill:#d0cea7;stroke:#d0cea7;stroke-width:0.39399999" />
	<path
   d="m 208.9,1107.1 c 3.9,0 8,-0.8 11.8,0.3 1.2,1.9 1.6,4.3 2,6.5 2.4,13.6 3.7,27.4 5.6,41.1 3.3,22.5 10.4,44.1 17.1,65.8 6,18.2 12.1,36.4 18.2,54.6 3.9,11.5 8.3,22.9 11.4,34.7 0.9,2.9 0.6,6.1 -1,8.8 -3.8,-2.5 -5.5,-6.7 -7.6,-10.4 -11.2,-20 -14.2,-43.1 -18.5,-65.3 -2.9,-17.7 -10.5,-34 -15.9,-51 -8,-25.2 -16.5,-50.3 -21.9,-76.2 -0.6,-3 -0.9,-6 -1.2,-8.9 z"
   id="path575"
   inkscape:connector-curvature="0"
   style="fill:#f3f1cb;stroke:#f3f1cb;stroke-width:0.39399999" />
	<path
   d="m 318.1,1328.7 c 0.5,-0.8 0.9,-1.6 1.3,-2.4 1,4.6 4.8,8.1 8.7,10.5 6.3,3.6 13,6.3 19.6,9.2 -0.5,0 -1,0.2 -1.5,0.2 -7.2,-0.3 -14.7,0.5 -21.5,-2.7 0.6,2 1.3,4 1.9,6.1 -3,1.1 -6.3,1.3 -9.4,1.6 1.9,1.3 3.9,2.5 5.8,3.9 -3.8,1 -7.5,0.2 -11.1,-1 1.3,2.6 2.4,5.4 4.6,7.4 1.9,1.6 4.3,2.6 6.5,3.7 -5.7,2.9 -12.2,1.3 -17.2,-2.2 1.8,3 4.4,5.9 4.8,9.6 -0.4,0.3 -1.1,0.8 -1.5,1.1 -5.6,-2.5 -9,-7.9 -12.5,-12.7 -0.2,2.7 -0.5,5.5 -1.2,8.2 -0.6,1.6 -1.3,3.2 -2.1,4.8 -0.8,-4.6 -1.4,-9.2 -2,-13.8 -2,2.2 -3.8,4.7 -6.5,5.8 -3.3,1.4 -7,0.9 -10.4,0.4 3.3,-3.4 8.2,-5.1 10.9,-9.1 1.7,-5.3 1.4,-11.1 1,-16.6 0.7,3.1 2,6 3.3,8.9 0.6,-2 1.1,-4 1.7,-6 1.7,2.6 3.5,5.2 5.3,7.7 0.3,-0.9 0.8,-2.6 1.1,-3.4 3.2,2.8 6.6,5.4 10.4,7.2 -2,-3.4 -4.1,-6.8 -6.1,-10.3 4.9,2.2 10,4.4 15.6,4.2 -2.9,-2.8 -6,-5.4 -9.1,-8 4.3,0.5 8.6,0.9 12.8,-0.2 -2.5,-1.2 -5,-2.4 -7.5,-3.6 3.6,-1.5 7.5,-0.6 11,0.5 -2.5,-2.7 -4.7,-5.8 -6.7,-9 z"
   id="path577"
   inkscape:connector-curvature="0"
   style="fill:#dec167;stroke:#dec167;stroke-width:0.39399999" />
	<path
   d="m 286.1,1339.8 c 11.6,2.3 24.8,-1.3 32,-11.1 2,3.2 4.2,6.2 6.6,9.1 -3.6,-1.1 -7.4,-2 -11,-0.5 2.5,1.2 5,2.4 7.5,3.6 -4.2,1.1 -8.6,0.7 -12.8,0.2 3.1,2.6 6.2,5.2 9.1,8 -5.5,0.2 -10.6,-2 -15.6,-4.2 2,3.5 4.1,6.8 6.1,10.3 -3.9,-1.8 -7.3,-4.4 -10.4,-7.2 -0.3,0.8 -0.8,2.5 -1.1,3.4 -1.8,-2.6 -3.5,-5.1 -5.3,-7.7 -0.5,2 -1.1,4 -1.7,6 -1.3,-2.9 -2.6,-5.8 -3.3,-8.9 z"
   id="path579"
   inkscape:connector-curvature="0"
   style="fill:#b19848;stroke:#b19848;stroke-width:0.39399999" />
	<path
   d="m 324.8,1343.6 c 6.8,3.1 14.3,2.4 21.5,2.7 -7.2,4 -16,5.2 -22.2,10.9 -2.6,2.9 1.4,5.5 3.6,6.9 -4.2,3.8 -10.3,5.8 -12.7,11.2 -7.2,2.2 -14.6,-0.7 -19.5,-6 0.7,-2.7 1,-5.4 1.2,-8.2 3.5,4.7 6.9,10.1 12.5,12.7 0.4,-0.3 1.1,-0.8 1.5,-1.1 -0.5,-3.6 -3,-6.5 -4.8,-9.6 5,3.5 11.5,5.1 17.2,2.2 -2.2,-1.2 -4.6,-2.1 -6.5,-3.7 -2.1,-2.1 -3.3,-4.9 -4.6,-7.4 3.6,1.2 7.4,2 11.1,1 -1.9,-1.3 -3.8,-2.6 -5.8,-3.9 3.2,-0.3 6.4,-0.4 9.4,-1.6 -0.6,-2.1 -1.2,-4.1 -1.9,-6.1 z"
   id="path581"
   inkscape:connector-curvature="0"
   style="fill:#020100;stroke:#020100;stroke-width:0.39399999" />
</g>



</svg>