<?xml version="1.0" encoding="UTF-8" standalone="no"?>
<svg
   xmlns:dc="http://purl.org/dc/elements/1.1/"
   xmlns:cc="http://creativecommons.org/ns#"
   xmlns:rdf="http://www.w3.org/1999/02/22-rdf-syntax-ns#"
   xmlns:svg="http://www.w3.org/2000/svg"
   xmlns="http://www.w3.org/2000/svg"
   xmlns:sodipodi="http://sodipodi.sourceforge.net/DTD/sodipodi-0.dtd"
   xmlns:inkscape="http://www.inkscape.org/namespaces/inkscape"
   version="1.1"
   x="0"
   y="0"
   width="256"
   height="256"
   viewBox="0 0 255.99999 256"
   id="svg445"
   sodipodi:docname="pear.svg"
   inkscape:version="0.92.4 (5da689c313, 2019-01-14)">
  <title
     id="title1045">Pear</title>
  <metadata
     id="metadata449">
    <rdf:RDF>
      <cc:Work
         rdf:about="">
        <dc:format>image/svg+xml</dc:format>
        <dc:type
           rdf:resource="http://purl.org/dc/dcmitype/StillImage" />
        <dc:title>Pear</dc:title>
        <cc:license
           rdf:resource="http://creativecommons.org/publicdomain/zero/1.0/" />
        <dc:source>https://openclipart.org/detail/298177</dc:source>
        <dc:creator>
          <cc:Agent>
            <dc:title>oksmith</dc:title>
          </cc:Agent>
        </dc:creator>
        <dc:publisher>
          <cc:Agent>
            <dc:title>OpenClipart</dc:title>
          </cc:Agent>
        </dc:publisher>
      </cc:Work>
      <cc:License
         rdf:about="http://creativecommons.org/publicdomain/zero/1.0/">
        <cc:permits
           rdf:resource="http://creativecommons.org/ns#Reproduction" />
        <cc:permits
           rdf:resource="http://creativecommons.org/ns#Distribution" />
        <cc:permits
           rdf:resource="http://creativecommons.org/ns#DerivativeWorks" />
      </cc:License>
    </rdf:RDF>
  </metadata>
  <sodipodi:namedview
     pagecolor="#ffffff"
     bordercolor="#666666"
     borderopacity="1"
     objecttolerance="10"
     gridtolerance="10"
     guidetolerance="10"
     inkscape:pageopacity="0"
     inkscape:pageshadow="2"
     inkscape:window-width="1920"
     inkscape:window-height="1025"
     id="namedview447"
     showgrid="false"
     inkscape:zoom="1.804495"
     inkscape:cx="118.84823"
     inkscape:cy="147.67774"
     inkscape:window-x="-8"
     inkscape:window-y="-8"
     inkscape:window-maximized="1"
     inkscape:current-layer="svg445"
     fit-margin-top="0"
     fit-margin-left="0"
     fit-margin-right="0"
     fit-margin-bottom="0" />
  <defs
     id="defs172">
    <linearGradient
       id="Gradient_1"
       gradientUnits="userSpaceOnUse"
       x1="367.19101"
       y1="127.59"
       x2="378.52499"
       y2="200.257">
      <stop
         offset="0"
         stop-color="#DB3C33"
         id="stop2" />
      <stop
         offset="0.495"
         stop-color="#DB3C33"
         id="stop4" />
      <stop
         offset="1"
         stop-color="#F1C486"
         id="stop6" />
    </linearGradient>
    <linearGradient
       id="Gradient_2"
       gradientUnits="userSpaceOnUse"
       x1="248.985"
       y1="168.901"
       x2="276.319"
       y2="100.234">
      <stop
         offset="0"
         stop-color="#F1C486"
         id="stop9" />
      <stop
         offset="0.505"
         stop-color="#DB3C33"
         id="stop11" />
      <stop
         offset="1"
         stop-color="#DB3C33"
         id="stop13" />
    </linearGradient>
    <linearGradient
       id="Gradient_3"
       gradientUnits="userSpaceOnUse"
       x1="889.21399"
       y1="616.09003"
       x2="900.547"
       y2="688.75702">
      <stop
         offset="0"
         stop-color="#ECC343"
         id="stop16" />
      <stop
         offset="0.495"
         stop-color="#ECC343"
         id="stop18" />
      <stop
         offset="1"
         stop-color="#EEDA58"
         id="stop20" />
    </linearGradient>
    <linearGradient
       id="Gradient_4"
       gradientUnits="userSpaceOnUse"
       x1="771.008"
       y1="657.401"
       x2="798.34198"
       y2="588.73401">
      <stop
         offset="0"
         stop-color="#EEDA58"
         id="stop23" />
      <stop
         offset="0.505"
         stop-color="#ECC343"
         id="stop25" />
      <stop
         offset="1"
         stop-color="#ECC343"
         id="stop27" />
    </linearGradient>
    <linearGradient
       id="Gradient_5"
       gradientUnits="userSpaceOnUse"
       x1="100.378"
       y1="63.720001"
       x2="18.589001"
       y2="200.701">
      <stop
         offset="0"
         stop-color="#E87F3E"
         id="stop30" />
      <stop
         offset="0.567"
         stop-color="#DA2F2E"
         id="stop32" />
      <stop
         offset="1"
         stop-color="#DA2F2E"
         id="stop34" />
    </linearGradient>
    <clipPath
       id="Clip_1">
      <path
         d="m 46.284,56.964 c 8.631,5.082 18.093,8.821 28.274,8.3 5.557,-0.284 10.816,-1.741 16.061,-3.474 -3.29,8.94 -12.781,22.06 -23.221,22.5 13.52,-0.08 29.381,-2.04 32.28,-16.77 -0.84,12.19 13.901,23.17 22.941,27.27 l 1.219,-0.58 c -4.65,-9.78 -4.049,-20.5 -14.349,-26.45 4.191,2.203 8.017,3.618 11.747,4.481 0.452,0.104 1.202,1.009 1.202,1.009 11.681,16.35 19.16,38.33 14.681,59.04 -5.3,24.51 -27.71,40.53 -48.12,52.01 -19.68,11.08 -52.88,21.24 -72.21,12.59 -19.991,-8.93 -17.8,-61.03 -14.97,-82.16 2.609,-19.53 6.72,-41.1 23.05,-54.19 4.7,-3.77 9.96,-6.67 15.509,-8.77 9.701,-3.67 20.321,-4.93 30.541,-4.26 2.049,2.4 4.479,4.27 7.19,5.24 -6.811,-0.33 -12.681,1.47 -18.691,3.04 -5.089,1.33 -10.969,0.85 -16.139,-0.64 z"
         id="path37"
         inkscape:connector-curvature="0" />
    </clipPath>
    <linearGradient
       id="Gradient_6"
       gradientUnits="userSpaceOnUse"
       x1="20.663"
       y1="383.17401"
       x2="74.663002"
       y2="283.173">
      <stop
         offset="0"
         stop-color="#F3C68A"
         id="stop40" />
      <stop
         offset="0.062"
         stop-color="#F3C68A"
         id="stop42" />
      <stop
         offset="0.69"
         stop-color="#DA4569"
         id="stop44" />
      <stop
         offset="1"
         stop-color="#DA4569"
         id="stop46" />
    </linearGradient>
    <clipPath
       id="Clip_2">
      <path
         d="m 51.784,271.229 c 11.991,0.169 21.405,4.182 26.416,15.606 11.84,-1.299 23.35,4.861 31.12,14.56 l 0.41,0.02 c -0.73,13.041 -0.64,24.881 -0.64,25.461 -15.26,-4.84 -30.91,4.5 -38.53,19.119 -6.96,13.34 -7.01,29.041 -1.76,43.359 l -1.45,0.071 c -7.58,1.51 -15.33,1.5 -22.77,-0.369 C 24.96,384.116 6.34,368.765 1.52,347.876 0.323,343.251 0.248,338.504 0,333.765 v -0.01 c 0.849,-20.906 7.59,-43.643 26.33,-55.309 5.525,-3.135 11.562,-5.381 17.833,-6.472 2.515,-0.438 5.081,-0.497 7.621,-0.745 z"
         id="path49"
         inkscape:connector-curvature="0" />
    </clipPath>
    <linearGradient
       id="Gradient_7"
       gradientUnits="userSpaceOnUse"
       x1="150.57201"
       y1="434.28201"
       x2="109.239"
       y2="323.616">
      <stop
         offset="0"
         stop-color="#F3C68A"
         id="stop52" />
      <stop
         offset="0.562"
         stop-color="#DD5673"
         id="stop54" />
      <stop
         offset="1"
         stop-color="#DD5673"
         id="stop56" />
    </linearGradient>
    <linearGradient
       id="Gradient_8"
       gradientUnits="userSpaceOnUse"
       x1="441.211"
       y1="413.01401"
       x2="376.54501"
       y2="304.34799">
      <stop
         offset="0"
         stop-color="#916099"
         id="stop59" />
      <stop
         offset="0.562"
         stop-color="#444388"
         id="stop61" />
      <stop
         offset="1"
         stop-color="#444388"
         id="stop63" />
    </linearGradient>
    <linearGradient
       id="Gradient_9"
       gradientUnits="userSpaceOnUse"
       x1="295.72501"
       y1="433.61801"
       x2="347.05899"
       y2="316.284">
      <stop
         offset="0"
         stop-color="#9B6EA2"
         id="stop66" />
      <stop
         offset="0.562"
         stop-color="#545191"
         id="stop68" />
      <stop
         offset="1"
         stop-color="#545191"
         id="stop70" />
    </linearGradient>
    <linearGradient
       id="Gradient_10"
       gradientUnits="userSpaceOnUse"
       x1="648.89398"
       y1="277.10001"
       x2="591.56"
       y2="448.43399"
       gradientTransform="matrix(1.2287214,0,0,1.2287214,-625.12158,-301.01086)">
      <stop
         offset="0"
         stop-color="#9AC64C"
         id="stop73" />
      <stop
         offset="0.438"
         stop-color="#9AC64C"
         id="stop75" />
      <stop
         offset="1"
         stop-color="#D9D74E"
         id="stop77" />
    </linearGradient>
    <linearGradient
       id="Gradient_11"
       gradientUnits="userSpaceOnUse"
       x1="601.99701"
       y1="188.28999"
       x2="601.99701"
       y2="24.26">
      <stop
         offset="0"
         stop-color="#8C5995"
         id="stop80" />
      <stop
         offset="0.657"
         stop-color="#723C84"
         id="stop82" />
      <stop
         offset="1"
         stop-color="#723C84"
         id="stop84" />
    </linearGradient>
    <linearGradient
       id="Gradient_12"
       gradientUnits="userSpaceOnUse"
       x1="567.97803"
       y1="209.5"
       x2="567.97803"
       y2="73.019997">
      <stop
         offset="0"
         stop-color="#B488B1"
         id="stop87" />
      <stop
         offset="0.676"
         stop-color="#885190"
         id="stop89" />
      <stop
         offset="1"
         stop-color="#885190"
         id="stop91" />
    </linearGradient>
    <linearGradient
       id="Gradient_13"
       gradientUnits="userSpaceOnUse"
       x1="573.76099"
       y1="205.66"
       x2="573.76099"
       y2="31.93">
      <stop
         offset="0"
         stop-color="#A574A5"
         id="stop94" />
      <stop
         offset="0.69"
         stop-color="#89508F"
         id="stop96" />
      <stop
         offset="1"
         stop-color="#89508F"
         id="stop98" />
    </linearGradient>
    <linearGradient
       id="Gradient_14"
       gradientUnits="userSpaceOnUse"
       x1="579.03198"
       y1="178.94"
       x2="579.03198"
       y2="39.439999">
      <stop
         offset="0"
         stop-color="#BF93B7"
         id="stop101" />
      <stop
         offset="0.919"
         stop-color="#93629A"
         id="stop103" />
      <stop
         offset="1"
         stop-color="#93629A"
         id="stop105" />
    </linearGradient>
    <linearGradient
       id="Gradient_15"
       gradientUnits="userSpaceOnUse"
       x1="595.19897"
       y1="676.78998"
       x2="595.19897"
       y2="512.76099">
      <stop
         offset="0"
         stop-color="#9CC750"
         id="stop108" />
      <stop
         offset="0.657"
         stop-color="#71B848"
         id="stop110" />
      <stop
         offset="1"
         stop-color="#71B848"
         id="stop112" />
    </linearGradient>
    <linearGradient
       id="Gradient_16"
       gradientUnits="userSpaceOnUse"
       x1="561.17999"
       y1="698"
       x2="561.17999"
       y2="561.521">
      <stop
         offset="0"
         stop-color="#B8D467"
         id="stop115" />
      <stop
         offset="0.676"
         stop-color="#94C55B"
         id="stop117" />
      <stop
         offset="1"
         stop-color="#94C55B"
         id="stop119" />
    </linearGradient>
    <linearGradient
       id="Gradient_17"
       gradientUnits="userSpaceOnUse"
       x1="566.96503"
       y1="694.15997"
       x2="566.96503"
       y2="520.43103">
      <stop
         offset="0"
         stop-color="#9BC74E"
         id="stop122" />
      <stop
         offset="0.69"
         stop-color="#AECE51"
         id="stop124" />
      <stop
         offset="1"
         stop-color="#AECE51"
         id="stop126" />
    </linearGradient>
    <linearGradient
       id="Gradient_18"
       gradientUnits="userSpaceOnUse"
       x1="572.23401"
       y1="667.44"
       x2="572.23401"
       y2="527.94">
      <stop
         offset="0"
         stop-color="#CFDE7B"
         id="stop129" />
      <stop
         offset="0.919"
         stop-color="#A8CE70"
         id="stop131" />
      <stop
         offset="1"
         stop-color="#A8CE70"
         id="stop133" />
    </linearGradient>
    <linearGradient
       id="Gradient_19"
       gradientUnits="userSpaceOnUse"
       x1="814.56897"
       y1="214.007"
       x2="890.56897"
       y2="19.341">
      <stop
         offset="0"
         stop-color="#F1D581"
         id="stop136" />
      <stop
         offset="1"
         stop-color="#E579A5"
         id="stop138" />
    </linearGradient>
    <clipPath
       id="Clip_3">
      <path
         d="m 858.726,14.445 c 40.039,2.426 75.402,26.878 88.837,64.845 15.19,45.14 -3.34,97.92 -38.34,117 -30.48,16.61 -75.34,10.35 -95.99,-8.87 l 0.01,-0.31 c -9.91,-0.25 -20.43,-3.89 -31.21,-11.93 -42.34,-31.6 -35.32,-109.3 14.06,-142.64 15.178,-10.258 32.865,-16.635 51.179,-17.941 3.809,-0.271 7.636,-0.103 11.454,-0.154 z"
         id="path141"
         inkscape:connector-curvature="0" />
    </clipPath>
    <linearGradient
       id="Gradient_20"
       gradientUnits="userSpaceOnUse"
       x1="864.88"
       y1="451.77899"
       x2="851.547"
       y2="283.11301">
      <stop
         offset="0"
         stop-color="#F0D17A"
         id="stop144" />
      <stop
         offset="0.002"
         stop-color="#F0D17A"
         id="stop146" />
      <stop
         offset="0.667"
         stop-color="#DA3635"
         id="stop148" />
      <stop
         offset="1"
         stop-color="#DA3635"
         id="stop150" />
    </linearGradient>
    <clipPath
       id="Clip_4">
      <path
         d="m 885.313,276.943 c 48.818,0.051 70.889,53.726 66.968,96 -4.14,35.65 -39.64,81.97 -74.84,67.43 -2.53,-1.04 -9.3,-1.21 -12.51,-2.17 -30.309,12.22 -45.05,20.95 -79,-12.91 -26.69,-26.62 -39.69,-111.68 8.54,-133.88 24.87,-11.44 37.62,1.46 46.67,2.17 l 0.33,-0.12 c 2.12,5.63 3.74,9.59 3.861,9.86 1.919,0.09 3.819,-0.02 5.649,-0.35 v -0.01 c -0.05,-0.28 -0.75,-4.77 -1.68,-10.84 l 0.87,-0.13 c 5.03,-1.98 8.76,-5.41 13.03,-8.45 2.87,0.22 5.921,-0.06 8.77,-1.3 2.28,-0.99 4.24,-2.72 5.93,-4.88 l 0.19,0.15 c 4.03,-0.466 1.626,-0.233 7.222,-0.57 z"
         id="path153"
         inkscape:connector-curvature="0" />
    </clipPath>
    <linearGradient
       id="Gradient_21"
       gradientUnits="userSpaceOnUse"
       x1="112.71"
       y1="507.21399"
       x2="55.375999"
       y2="678.54797">
      <stop
         offset="0"
         stop-color="#C7A63D"
         id="stop156" />
      <stop
         offset="0.438"
         stop-color="#C7A63D"
         id="stop158" />
      <stop
         offset="1"
         stop-color="#ECBC48"
         id="stop160" />
    </linearGradient>
    <linearGradient
       id="Gradient_22"
       gradientUnits="userSpaceOnUse"
       x1="336.526"
       y1="684.14502"
       x2="323.19299"
       y2="515.479">
      <stop
         offset="0"
         stop-color="#D0DE6B"
         id="stop163" />
      <stop
         offset="0.002"
         stop-color="#D0DE6B"
         id="stop165" />
      <stop
         offset="0.667"
         stop-color="#96C54C"
         id="stop167" />
      <stop
         offset="1"
         stop-color="#96C54C"
         id="stop169" />
    </linearGradient>
  </defs>
  <g
     id="g1285"
     transform="matrix(1.045871,0,0,1.045871,-5.8714924,-11.742978)">
    <path
       sodipodi:nodetypes="cccccccc"
       d="m 177.37603,40.1977 c 41.43002,16.353054 41.87482,56.593679 41.0995,89.64629 10.07551,47.51465 2.28542,110.21753 -48.01843,122.9348 C 132.60019,262.3493 72.516942,251.25518 46.308314,210.5845 20.147607,169.98631 36.415878,115.40651 79.176612,91.496819 92.826478,74.737059 108.33294,56.060494 125.14185,45.074496 c 8.54428,-4.708595 16.14844,-7.210628 31.49213,-7.125356 8.33132,-0.06037 14.06668,1.362672 20.74205,2.24856 z"
       id="path270"
       inkscape:connector-curvature="0"
       style="fill:url(#Gradient_10);stroke-width:1.22872138" />
    <path
       d="m 165.7302,61.151086 c 0,0 -3.69476,-5.954383 -8.24226,-3.482196 -4.70969,2.560655 2.61349,8.800103 7.016,9.721644 4.40251,0.921541 11.97266,0.525893 10.95405,-3.424447 -0.74952,-2.908383 -2.353,-4.028977 -9.72779,-2.815001"
       id="path276"
       inkscape:connector-curvature="0"
       style="fill:#68aa44;stroke-width:1.22872138" />
    <path
       d="m 177.37603,40.1977 c -5.86223,11.941944 -10.15047,27.079791 -10.15047,27.079791 v 0.01229 c -2.07654,-0.158505 -4.10393,-0.846589 -5.65212,-2.013875 0,0 0.93383,-9.006528 3.10989,-19.733265 0,0 0,0 0,-0.01229 0.0233,-0.110585 0.18308,-0.750748 0.3551,-1.72021 0,-0.01229 0,-0.02457 0,-0.02457 1.8308,-8.63914 4.43569,-18.086779 7.96212,-24.723103 0,0 0.29489,-14.5959819 17.27705,-3.942967 11.25509,7.065148 -0.77532,8.711634 -5.72584,13.858748 -2.52011,2.618406 -4.96526,6.696532 -7.17573,11.219455"
       id="path278"
       inkscape:connector-curvature="0"
       style="fill:#795e36;stroke-width:1.22872138" />
    <path
       d="m 194.87425,191.91162 c 0,1.58382 -1.10094,2.86783 -2.45745,2.86783 -1.35773,0 -2.45744,-1.28401 -2.45744,-2.86783 0,-1.58137 1.09971,-2.86538 2.45744,-2.86538 1.35651,0 2.45745,1.28401 2.45745,2.86538"
       id="path280"
       inkscape:connector-curvature="0"
       style="fill:#d0e08b;stroke-width:1.22872138" />
    <path
       d="m 156.41281,178.49398 c 0,1.58382 -1.09971,2.86784 -2.45744,2.86784 -1.35651,0 -2.45745,-1.28402 -2.45745,-2.86784 0,-1.58382 1.10094,-2.86784 2.45745,-2.86784 1.35773,0 2.45744,1.28402 2.45744,2.86784"
       id="path282"
       inkscape:connector-curvature="0"
       style="fill:#d0e08b;stroke-width:1.22872138" />
    <path
       d="m 173.61491,203.27238 c 0,1.58382 -1.09971,2.86783 -2.45744,2.86783 -1.35651,0 -2.45745,-1.28401 -2.45745,-2.86783 0,-1.58137 1.10094,-2.86538 2.45745,-2.86538 1.35773,0 2.45744,1.28401 2.45744,2.86538"
       id="path284"
       inkscape:connector-curvature="0"
       style="fill:#d0e08b;stroke-width:1.22872138" />
    <path
       d="m 207.40475,164.87483 c 0,1.58382 -1.09971,2.86784 -2.45744,2.86784 -1.35651,0 -2.45745,-1.28402 -2.45745,-2.86784 0,-1.58382 1.10094,-2.86783 2.45745,-2.86783 1.35773,0 2.45744,1.28401 2.45744,2.86783"
       id="path286"
       inkscape:connector-curvature="0"
       style="fill:#d0e08b;stroke-width:1.22872138" />
    <path
       d="m 176.68671,91.355516 c 0,1.583822 -1.0997,2.867836 -2.45744,2.867836 -1.35651,0 -2.45744,-1.284014 -2.45744,-2.867836 0,-1.581365 1.10093,-2.865378 2.45744,-2.865378 1.35774,0 2.45744,1.284013 2.45744,2.865378"
       id="path288"
       inkscape:connector-curvature="0"
       style="fill:#7cbc45;stroke-width:1.22872138" />
    <path
       d="m 198.39453,119.20817 c 0,1.58382 -1.0997,2.86784 -2.45744,2.86784 -1.35651,0 -2.45744,-1.28402 -2.45744,-2.86784 0,-1.58136 1.10093,-2.86538 2.45744,-2.86538 1.35774,0 2.45744,1.28402 2.45744,2.86538"
       id="path290"
       inkscape:connector-curvature="0"
       style="fill:#7cbc45;stroke-width:1.22872138" />
    <path
       d="m 205.35647,136.41027 c 0,1.58382 -1.09971,2.86784 -2.45744,2.86784 -1.35651,0 -2.45745,-1.28402 -2.45745,-2.86784 0,-1.58382 1.10094,-2.86783 2.45745,-2.86783 1.35773,0 2.45744,1.28401 2.45744,2.86783"
       id="path292"
       inkscape:connector-curvature="0"
       style="fill:#7cbc45;stroke-width:1.22872138" />
    <path
       d="m 161.94206,155.25149 c 0,1.58382 -1.09971,2.86783 -2.45745,2.86783 -1.3565,0 -2.45744,-1.28401 -2.45744,-2.86783 0,-1.58383 1.10094,-2.86784 2.45744,-2.86784 1.35774,0 2.45745,1.28401 2.45745,2.86784"
       id="path294"
       inkscape:connector-curvature="0"
       style="fill:#7cbc45;stroke-width:1.22872138" />
    <path
       d="m 179.14416,135.59194 c 0,1.58383 -1.09971,2.86784 -2.45745,2.86784 -1.35651,0 -2.45744,-1.28401 -2.45744,-2.86784 0,-1.58382 1.10093,-2.86783 2.45744,-2.86783 1.35774,0 2.45745,1.28401 2.45745,2.86783"
       id="path296"
       inkscape:connector-curvature="0"
       style="fill:#7cbc45;stroke-width:1.22872138" />
    <path
       d="m 165.21906,116.34279 c 0,1.58383 -1.09971,2.86784 -2.45745,2.86784 -1.3565,0 -2.45744,-1.28401 -2.45744,-2.86784 0,-1.58382 1.10094,-2.86783 2.45744,-2.86783 1.35774,0 2.45745,1.28401 2.45745,2.86783"
       id="path298"
       inkscape:connector-curvature="0"
       style="fill:#7cbc45;stroke-width:1.22872138" />
    <path
       d="m 197.59955,77.038454 c 0,1.583822 -1.10093,2.867836 -2.45744,2.867836 -1.35774,0 -2.45744,-1.284014 -2.45744,-2.867836 0,-1.581364 1.0997,-2.865378 2.45744,-2.865378 1.35651,0 2.45744,1.284014 2.45744,2.865378"
       id="path300"
       inkscape:connector-curvature="0"
       style="fill:#7cbc45;stroke-width:1.22872138" />
    <path
       d="m 139.82507,193.34185 c 0,1.58382 -1.0997,2.86784 -2.45744,2.86784 -1.35651,0 -2.45744,-1.28402 -2.45744,-2.86784 0,-1.58382 1.10093,-2.86784 2.45744,-2.86784 1.35774,0 2.45744,1.28402 2.45744,2.86784"
       id="path302"
       inkscape:connector-curvature="0"
       style="fill:#d0e08b;stroke-width:1.22872138" />
    <path
       d="m 111.56448,196.20723 c 0,1.58382 -1.09971,2.86783 -2.45744,2.86783 -1.35651,0 -2.45745,-1.28401 -2.45745,-2.86783 0,-1.58137 1.10094,-2.86538 2.45745,-2.86538 1.35773,0 2.45744,1.28401 2.45744,2.86538"
       id="path304"
       inkscape:connector-curvature="0"
       style="fill:#d0e08b;stroke-width:1.22872138" />
    <path
       d="m 162.96558,223.85346 c 0,1.58382 -1.0997,2.86784 -2.45744,2.86784 -1.35651,0 -2.45744,-1.28402 -2.45744,-2.86784 0,-1.58137 1.10093,-2.86538 2.45744,-2.86538 1.35774,0 2.45744,1.28401 2.45744,2.86538"
       id="path306"
       inkscape:connector-curvature="0"
       style="fill:#d0e08b;stroke-width:1.22872138" />
    <path
       d="m 193.58286,223.577 c 0,1.58505 -1.0997,2.86783 -2.45744,2.86783 -1.35651,0 -2.45744,-1.28278 -2.45744,-2.86783 0,-1.58382 1.10093,-2.86784 2.45744,-2.86784 1.35774,0 2.45744,1.28402 2.45744,2.86784"
       id="path308"
       inkscape:connector-curvature="0"
       style="fill:#d0e08b;stroke-width:1.22872138" />
    <path
       d="m 140.98744,231.27862 c 0,1.58382 -1.0997,2.86784 -2.45744,2.86784 -1.35651,0 -2.45744,-1.28402 -2.45744,-2.86784 0,-1.58136 1.10093,-2.86538 2.45744,-2.86538 1.35774,0 2.45744,1.28402 2.45744,2.86538"
       id="path310"
       inkscape:connector-curvature="0"
       style="fill:#d0e08b;stroke-width:1.22872138" />
    <path
       d="m 183.1375,177.46923 c 0,1.58382 -1.09971,2.86783 -2.45744,2.86783 -1.35651,0 -2.45745,-1.28401 -2.45745,-2.86783 0,-1.58137 1.10094,-2.86538 2.45745,-2.86538 1.35773,0 2.45744,1.28401 2.45744,2.86538"
       id="path312"
       inkscape:connector-curvature="0"
       style="fill:#d0e08b;stroke-width:1.22872138" />
    <path
       d="m 103.37382,220.78166 c 0,1.58382 -1.0997,2.86783 -2.45744,2.86783 -1.356509,0 -2.457443,-1.28401 -2.457443,-2.86783 0,-1.58383 1.100934,-2.86784 2.457443,-2.86784 1.35774,0 2.45744,1.28401 2.45744,2.86784"
       id="path314"
       inkscape:connector-curvature="0"
       style="fill:#d0e08b;stroke-width:1.22872138" />
    <path
       d="m 75.11323,194.56811 c 0,1.58383 -1.099706,2.86784 -2.457443,2.86784 -1.356508,0 -2.457443,-1.28401 -2.457443,-2.86784 0,-1.58136 1.100935,-2.86537 2.457443,-2.86537 1.357737,0 2.457443,1.28401 2.457443,2.86537"
       id="path316"
       inkscape:connector-curvature="0"
       style="fill:#d0e08b;stroke-width:1.22872138" />
    <path
       d="m 84.50189,106.97625 c 13.239473,-9.167489 14.614412,-11.186279 23.42189,-19.765211 6.87469,-6.695303 12.70743,-3.990887 9.54593,16.436601 -2.97965,19.24178 -4.9284,43.4009 -29.04697,34.9903 -22.704314,-7.91788 -13.277563,-25.18264 -3.92085,-31.66169"
       id="path318"
       inkscape:connector-curvature="0"
       style="fill:#b3d37c;stroke-width:1.22872138" />
  </g>
</svg>
