<?xml version="1.0" encoding="UTF-8" standalone="no"?>
<svg
   xmlns:dc="http://purl.org/dc/elements/1.1/"
   xmlns:cc="http://creativecommons.org/ns#"
   xmlns:rdf="http://www.w3.org/1999/02/22-rdf-syntax-ns#"
   xmlns:svg="http://www.w3.org/2000/svg"
   xmlns="http://www.w3.org/2000/svg"
   xmlns:sodipodi="http://sodipodi.sourceforge.net/DTD/sodipodi-0.dtd"
   xmlns:inkscape="http://www.inkscape.org/namespaces/inkscape"
   version="1.1"
   id="Layer_1"
   x="0px"
   y="0px"
   viewBox="0 0 256 256"
   enable-background="new 0 0 1920 1407"
   xml:space="preserve"
   sodipodi:docname="pepper_chili.svg"
   inkscape:version="0.92.4 (5da689c313, 2019-01-14)"
   width="256"
   height="256"><title
   id="title1195">Chili Pepper</title><metadata
   id="metadata772"><rdf:RDF><cc:Work
       rdf:about=""><dc:format>image/svg+xml</dc:format><dc:type
         rdf:resource="http://purl.org/dc/dcmitype/StillImage" /><dc:title>Chili Pepper</dc:title><cc:license
         rdf:resource="http://creativecommons.org/publicdomain/zero/1.0/" /><dc:creator><cc:Agent><dc:title>GDJ</dc:title></cc:Agent></dc:creator><dc:source>https://openclipart.org/detail/228333</dc:source></cc:Work><cc:License
       rdf:about="http://creativecommons.org/publicdomain/zero/1.0/"><cc:permits
         rdf:resource="http://creativecommons.org/ns#Reproduction" /><cc:permits
         rdf:resource="http://creativecommons.org/ns#Distribution" /><cc:permits
         rdf:resource="http://creativecommons.org/ns#DerivativeWorks" /></cc:License></rdf:RDF></metadata><defs
   id="defs770" /><sodipodi:namedview
   pagecolor="#ffffff"
   bordercolor="#666666"
   borderopacity="1"
   objecttolerance="10"
   gridtolerance="10"
   guidetolerance="10"
   inkscape:pageopacity="0"
   inkscape:pageshadow="2"
   inkscape:window-width="1920"
   inkscape:window-height="1025"
   id="namedview768"
   showgrid="false"
   inkscape:zoom="0.63333333"
   inkscape:cx="295.78569"
   inkscape:cy="-173.46194"
   inkscape:window-x="-8"
   inkscape:window-y="-8"
   inkscape:window-maximized="1"
   inkscape:current-layer="Layer_1"
   fit-margin-top="0"
   fit-margin-left="0"
   fit-margin-right="0"
   fit-margin-bottom="0" />

<g
   id="g32"
   transform="matrix(0.70623284,0,0,0.70623284,-363.39028,28.746614)">
	<path
   d="m 755.5,39.7 c 10.2,-1.8 20.6,1.1 30.1,4.8 8.8,3.7 17.1,8.3 25.1,13.5 4.7,3 7.6,8 12.1,11.2 3.1,2.1 7.4,3 11,1.9 3.1,-3.4 6.1,-7.1 8.1,-11.2 2.6,-5.3 0.7,-12.3 5.2,-16.8 3.4,-3.3 8.6,-2.3 12.7,-1 4.9,1.8 10.3,4.3 12.6,9.2 1.7,7.3 -3.5,13.7 -8.4,18.5 -4.6,4.9 -10.9,9.1 -12.3,16.1 -0.5,6 4.9,9.8 8.7,13.5 8.9,8.9 15.3,20.7 16.2,33.4 1.2,14.2 -2.1,29.3 -11.2,40.6 -3.4,4.2 -9,7.7 -14.6,5.8 -4.3,-1.1 -7,-4.8 -10.3,-7.6 -3.7,-2.9 -8.2,0 -11.6,1.9 -26.6,15.1 -50.7,35.6 -80.4,44.7 -40.7,10.5 -82.6,14.4 -124,21 -20.5,3.2 -42,4.7 -62,-1.9 -12,-4.1 -23.5,-9.8 -33.9,-17.1 -5.3,-4 -10.8,-8.4 -13.2,-14.8 -1.6,-3.9 -0.1,-8.4 2.7,-11.4 5.5,-6 13.4,-8.9 21.1,-10.8 14.5,-3.7 30,-3.3 44,-9.3 16.3,-6.7 33.4,-11.4 49.5,-18.8 13.3,-6.1 25.8,-14.2 36.1,-24.6 16.5,-16 28.8,-35.8 44.5,-52.5 10.1,-8.6 24.2,-10.3 34.8,-18.3 4,-3.1 -1.4,-6.4 -1.8,-9.8 -1.1,-5.4 4.5,-9 9.2,-10.2 m 0.7,5.7 c -2.5,0.8 -4.9,3.8 -3,6.4 3.3,4.7 8.4,7.5 12.9,10.9 -17.2,1.4 -33.8,7.9 -47.8,17.9 -5.9,4.6 -11.9,9.7 -15.5,16.4 -4.3,7.8 -9.7,14.8 -15,21.9 -8.7,9.5 -17.8,18.5 -28.4,25.8 -31.7,21.9 -69.5,31.9 -106.4,40.9 -8.1,1.8 -16.2,4.1 -23.4,8.3 -3.1,2 -6.6,5 -6.2,9.1 0.2,4.2 3.9,7 6.9,9.4 6.6,4.4 13.9,7.6 21.5,9.6 16.9,5.4 34.4,8.6 52,10.4 21.3,1 42.9,0.6 63.9,-3.6 18.7,-3.4 37.6,-5.8 56.3,-9.5 17.4,-3.8 34.8,-8.9 49.9,-18.5 16.4,-10 31.3,-22.5 48.9,-30.6 7.3,-3.3 15.2,-6.4 20.6,-12.7 1.4,5 2.3,10.3 5.1,14.7 1.3,2.4 5,2.1 6.5,0 7.5,-8.9 11.6,-20.5 11.5,-32.1 0.4,-17.4 -7.8,-33.5 -17.1,-47.6 -1.1,-1.9 -3.5,-4.2 -1.6,-6.3 5.6,-7.7 11.8,-15.1 15.8,-23.8 1.4,-3.4 3.4,-7.3 1.8,-10.9 -2,-4.5 -8.3,-4.7 -12.2,-3 -5.3,3.1 -7.1,9.3 -9.5,14.6 -2,4.5 -4.1,9.8 -8.9,12 -3.9,1.4 -8.7,0.7 -11.6,-2.4 -11.8,-12 -25.9,-22.5 -42.3,-26.9 -7.9,-2.6 -16.7,-3.3 -24.7,-0.4 z"
   id="path16"
   inkscape:connector-curvature="0"
   style="fill:#010000;stroke:#010000;stroke-width:0.39399999" />
	<path
   d="m 756.2,45.4 c 8,-2.9 16.8,-2.1 24.8,0.3 16.5,4.4 30.5,14.9 42.3,26.9 2.9,3 7.7,3.8 11.6,2.4 4.8,-2.2 6.8,-7.5 8.9,-12 2.4,-5.2 4.2,-11.5 9.5,-14.6 3.9,-1.7 10.2,-1.5 12.2,3 1.6,3.7 -0.4,7.5 -1.8,10.9 0,-2.3 0,-5.6 -3.1,-5.9 -3.4,0.1 -6.6,1.5 -9.8,2.4 -5.9,8.3 -10.2,17.6 -16.6,25.6 -1.8,1.8 -4.1,4.7 -7,3.2 -6.6,-3 -11.9,-8 -17.6,-12.4 -7.4,-4.9 -15.2,-9.5 -23.7,-12.2 -2.4,-0.6 -5.3,-1.7 -7.6,-0.3 -2.2,1.2 -4.3,2.7 -6.5,4.1 -2,-1.4 -3.9,-2.8 -5.9,-4.1 -4.5,-3.4 -9.7,-6.2 -12.9,-10.9 -1.6,-2.6 0.7,-5.6 3.2,-6.4 z"
   id="path18"
   inkscape:connector-curvature="0"
   style="fill:#179800;stroke:#179800;stroke-width:0.39399999" />
	<path
   d="m 850.9,58.8 c 3.2,-0.9 6.4,-2.3 9.8,-2.4 3,0.3 3,3.6 3.1,5.9 -3.9,8.7 -10.2,16.1 -15.8,23.8 -1.9,2.1 0.5,4.5 1.6,6.3 9.3,14.1 17.5,30.3 17.1,47.6 0.1,11.6 -4,23.2 -11.5,32.1 -1.4,2.1 -5.2,2.4 -6.5,0 -2.8,-4.4 -3.7,-9.7 -5.1,-14.7 -0.3,-1.1 -0.7,-2.2 -1.1,-3.2 -0.3,-5.2 -1.3,-10.8 -4.9,-14.7 -1.7,-0.4 -3.7,-0.3 -5,1 -6.9,5.8 -12.1,13.6 -19.7,18.7 -0.6,0 -1.7,0.1 -2.3,0.2 0.1,-6 2.9,-11.5 3.8,-17.4 1.1,-6.1 2.1,-12.7 -0.4,-18.6 -2.8,-5 -8.5,-8.2 -14.2,-7.9 -5.6,0.1 -11.5,-0.7 -16.7,1.9 -6.3,0.3 -12.6,0.5 -18.9,0.3 1.8,-5.5 6.3,-9.3 9.8,-13.6 3,-3.3 6.1,-6.6 9,-10 2.5,-2.9 5.6,-5.5 7.3,-9.1 1.3,-3.3 -1.9,-5.6 -3.9,-7.6 -4.6,-3.8 -9.6,-7.2 -14.4,-10.7 2.2,-1.3 4.2,-2.8 6.5,-4.1 2.3,-1.4 5.2,-0.3 7.6,0.3 8.5,2.7 16.3,7.3 23.7,12.2 5.6,4.4 11,9.4 17.6,12.4 2.8,1.5 5.2,-1.4 7,-3.2 6.3,-7.9 10.6,-17.2 16.5,-25.5 M 833,107.3 c -6.3,0.4 -12.7,0.3 -18.9,-0.6 -6.8,-0.8 -13.6,-0.3 -20.3,0.9 8.8,3.8 19.8,1.7 27.4,8.4 5.4,5.4 3.7,13.5 5.2,20.3 4.6,-2.3 5.7,-8.2 10.1,-10.8 2.2,-1.1 4.3,0.9 5.5,2.6 4.8,7.1 7.8,15 11.3,22.8 0.6,2 2.5,2.9 4.5,3.3 4.6,-10.5 1.7,-22.5 -2.2,-32.8 -2.7,-6.1 -4.7,-12.8 -9.4,-17.6 -4.6,0.6 -8.6,3.2 -13.2,3.5 z"
   id="path20"
   inkscape:connector-curvature="0"
   style="fill:#0fab00;stroke:#0fab00;stroke-width:0.39399999" />
	<path
   d="M 718.5,80.6 C 732.4,70.5 749,64 766.2,62.7 c 2,1.3 3.9,2.7 5.9,4.1 4.8,3.5 9.8,6.9 14.4,10.7 2.1,2 5.2,4.3 3.9,7.6 -1.7,3.6 -4.8,6.1 -7.3,9.1 -2.9,3.4 -6,6.7 -9,10 -3.6,4.3 -8.1,8.1 -9.8,13.6 6.3,0.2 12.6,0 18.9,-0.3 8.4,-0.2 17.4,-1.8 25.2,2.1 4.3,2.5 5.5,7.7 5.3,12.3 -23,-5.7 -47.4,-6.7 -70.7,-1.8 -17,3 -33.1,9.1 -49.3,14.7 -16.1,5.8 -32.1,11.7 -48.6,16.3 -6.5,1.7 -12.7,4.1 -19.1,6.1 -12.9,3.6 -25.1,9.1 -37.4,14.3 -11.8,4.9 -23,11.2 -32.7,19.5 -3.8,3.4 -7.4,7.8 -7.8,13.1 -0.4,3.2 2,5.7 3.9,7.9 -7.6,-2 -14.9,-5.2 -21.5,-9.6 -3,-2.4 -6.7,-5.2 -6.9,-9.4 -0.4,-4.1 3,-7.1 6.2,-9.1 7.2,-4.2 15.3,-6.5 23.4,-8.3 36.9,-9.1 74.7,-19 106.4,-40.9 10.6,-7.3 19.8,-16.3 28.4,-25.8 5.3,-7.1 10.7,-14.1 15,-21.9 3.5,-6.7 9.5,-11.8 15.5,-16.4 z"
   id="path22"
   inkscape:connector-curvature="0"
   style="fill:#ce0300;stroke:#ce0300;stroke-width:0.39399999" />
	<path
   d="m 833,107.3 c 4.6,-0.3 8.6,-2.8 13.1,-3.6 4.8,4.8 6.7,11.6 9.4,17.6 3.9,10.3 6.8,22.3 2.2,32.8 -1.9,-0.4 -3.8,-1.2 -4.5,-3.3 -3.4,-7.7 -6.5,-15.7 -11.3,-22.8 -1.2,-1.7 -3.3,-3.7 -5.5,-2.6 -4.5,2.6 -5.5,8.4 -10.1,10.8 -1.4,-6.8 0.3,-15 -5.2,-20.3 -7.6,-6.7 -18.6,-4.6 -27.4,-8.4 6.7,-1.2 13.5,-1.7 20.3,-0.9 6.3,0.9 12.7,1 19,0.7 z"
   id="path24"
   inkscape:connector-curvature="0"
   style="fill:#37bd0a;stroke:#37bd0a;stroke-width:0.39399999" />
	<path
   d="m 783.2,117.4 c 5.2,-2.6 11.1,-1.8 16.7,-1.9 5.7,-0.2 11.4,3 14.2,7.9 2.5,5.9 1.4,12.5 0.4,18.6 -0.9,5.9 -3.8,11.4 -3.8,17.4 0.6,-0.1 1.7,-0.2 2.3,-0.2 7.5,-5.1 12.7,-12.9 19.7,-18.7 1.3,-1.3 3.3,-1.4 5,-1 3.6,3.9 4.6,9.6 4.9,14.7 l -0.5,-1.2 c -2.1,-4.2 -3.1,-9 -6,-12.8 -5,2.7 -8.2,7.6 -12.4,11.4 -4.3,3.9 -7.8,9.6 -14.1,10.1 -1.2,-10.3 4.3,-19.7 4.1,-29.9 0.2,-4.6 -1,-9.8 -5.3,-12.3 -7.8,-3.8 -16.8,-2.3 -25.2,-2.1 z"
   id="path26"
   inkscape:connector-curvature="0"
   style="fill:#7d4c01;stroke:#7d4c01;stroke-width:0.39399999" />
	<path
   d="m 743,130.1 c 23.3,-5 47.7,-3.9 70.7,1.8 0.1,10.2 -5.3,19.6 -4.1,29.9 6.3,-0.5 9.8,-6.2 14.1,-10.1 4.1,-3.8 7.3,-8.7 12.4,-11.4 2.9,3.8 3.9,8.6 6,12.8 l 0.5,1.2 c 0.4,1.1 0.8,2.1 1.1,3.2 -5.5,6.2 -13.3,9.3 -20.6,12.7 -17.5,8.1 -32.4,20.6 -48.9,30.6 -15.2,9.5 -32.6,14.7 -49.9,18.5 -18.7,3.8 -37.6,6.1 -56.3,9.5 -21,4.2 -42.6,4.5 -63.9,3.6 -17.6,-1.8 -35.1,-5 -52,-10.4 -1.9,-2.2 -4.3,-4.7 -3.9,-7.9 0.5,-5.3 4.1,-9.6 7.8,-13.1 9.7,-8.3 21,-14.6 32.7,-19.5 12.3,-5.2 24.5,-10.7 37.4,-14.3 6.4,-2 12.6,-4.4 19.1,-6.1 16.5,-4.6 32.5,-10.5 48.6,-16.3 16.2,-5.6 32.3,-11.7 49.2,-14.7 m -22.2,46.7 c -10.5,5.6 -21.6,9.9 -32.6,14.4 -18.9,7.2 -38.3,14 -58.6,16.3 -12.7,1.3 -25.3,2.7 -37.9,4.1 -4.3,0.7 -8.8,0.8 -12.9,2.4 2.2,2 5.3,2.5 8.1,3.3 10.8,2.6 22,1.9 33,2 35.1,-0.2 70.4,-4 104.3,-13.1 17.4,-5.2 35.2,-11.7 48.7,-24.3 9.3,-8.6 15.3,-21.5 13,-34.3 -23.5,5 -43.9,18.5 -65.1,29.2 z"
   id="path28"
   inkscape:connector-curvature="0"
   style="fill:#e90d0d;stroke:#e90d0d;stroke-width:0.39399999" />
	<path
   d="m 720.8,176.8 c 21.2,-10.7 41.6,-24.3 65.2,-29.1 2.2,12.8 -3.7,25.7 -13,34.3 -13.5,12.6 -31.3,19.1 -48.7,24.3 -34,9.1 -69.2,12.9 -104.3,13.1 -11,-0.1 -22.2,0.6 -33,-2 -2.8,-0.7 -5.9,-1.2 -8.1,-3.3 4.1,-1.6 8.6,-1.8 12.9,-2.4 12.6,-1.4 25.3,-2.8 37.9,-4.1 20.2,-2.3 39.6,-9.1 58.6,-16.3 10.9,-4.6 22.1,-8.8 32.5,-14.5 z"
   id="path30"
   inkscape:connector-curvature="0"
   style="fill:#f93737;stroke:#f93737;stroke-width:0.39399999" />
</g>






























</svg>