<?xml version="1.0" encoding="UTF-8" standalone="no"?>
<svg
   xmlns:dc="http://purl.org/dc/elements/1.1/"
   xmlns:cc="http://creativecommons.org/ns#"
   xmlns:rdf="http://www.w3.org/1999/02/22-rdf-syntax-ns#"
   xmlns:svg="http://www.w3.org/2000/svg"
   xmlns="http://www.w3.org/2000/svg"
   xmlns:sodipodi="http://sodipodi.sourceforge.net/DTD/sodipodi-0.dtd"
   xmlns:inkscape="http://www.inkscape.org/namespaces/inkscape"
   version="1.1"
   x="0"
   y="0"
   width="256"
   height="256"
   viewBox="0 0 256 256.00001"
   id="svg195"
   sodipodi:docname="pizza_01.svg"
   inkscape:version="0.92.4 (5da689c313, 2019-01-14)">
  <title
     id="title1006">Pizza</title>
  <metadata
     id="metadata199">
    <rdf:RDF>
      <cc:Work
         rdf:about="">
        <dc:format>image/svg+xml</dc:format>
        <dc:type
           rdf:resource="http://purl.org/dc/dcmitype/StillImage" />
        <dc:title>Pizza</dc:title>
        <cc:license
           rdf:resource="http://creativecommons.org/publicdomain/zero/1.0/" />
        <dc:creator>
          <cc:Agent>
            <dc:title>oksmith</dc:title>
          </cc:Agent>
        </dc:creator>
        <dc:source>https://openclipart.org/detail/284543</dc:source>
      </cc:Work>
      <cc:License
         rdf:about="http://creativecommons.org/publicdomain/zero/1.0/">
        <cc:permits
           rdf:resource="http://creativecommons.org/ns#Reproduction" />
        <cc:permits
           rdf:resource="http://creativecommons.org/ns#Distribution" />
        <cc:permits
           rdf:resource="http://creativecommons.org/ns#DerivativeWorks" />
      </cc:License>
    </rdf:RDF>
  </metadata>
  <sodipodi:namedview
     pagecolor="#ffffff"
     bordercolor="#666666"
     borderopacity="1"
     objecttolerance="10"
     gridtolerance="10"
     guidetolerance="10"
     inkscape:pageopacity="0"
     inkscape:pageshadow="2"
     inkscape:window-width="1920"
     inkscape:window-height="1025"
     id="namedview197"
     showgrid="false"
     inkscape:zoom="0.75247525"
     inkscape:cx="-137.72337"
     inkscape:cy="33.633698"
     inkscape:window-x="-8"
     inkscape:window-y="-8"
     inkscape:window-maximized="1"
     inkscape:current-layer="svg195"
     fit-margin-top="0"
     fit-margin-left="0"
     fit-margin-right="0"
     fit-margin-bottom="0" />
  <defs
     id="defs12">
    <radialGradient
       id="Gradient_1"
       gradientUnits="userSpaceOnUse"
       cx="1095.198"
       cy="333"
       r="175">
      <stop
         offset="0"
         stop-color="#FFFFFF"
         id="stop2" />
      <stop
         offset="1"
         stop-color="#DA9346"
         id="stop4" />
    </radialGradient>
    <radialGradient
       id="Gradient_2"
       gradientUnits="userSpaceOnUse"
       cx="800.07397"
       cy="688.21301"
       r="518.75">
      <stop
         offset="0"
         stop-color="#FFFFFF"
         id="stop7" />
      <stop
         offset="1"
         stop-color="#DA9346"
         id="stop9" />
    </radialGradient>
  </defs>
  <g
     id="レイヤー_1"
     transform="matrix(0.24303362,0,0,0.24303362,-68.37119,-19.764441)">
    <g
       id="g18">
      <path
         d="m 618.583,801.833 h -4.167 c -9.906,0 -19.515,3.983 -26.516,10.983 -7.001,7.001 -10.984,16.611 -10.984,26.517 0,9.906 3.983,19.516 10.984,26.516 7.001,7.001 16.61,10.984 26.516,10.984 h 4.167 c 9.906,0 19.516,-3.983 26.517,-10.984 7,-7 10.983,-16.61 10.983,-26.516 0,-9.906 -3.983,-19.516 -10.983,-26.517 -7.001,-7 -16.611,-10.983 -26.517,-10.983"
         id="path14"
         inkscape:connector-curvature="0"
         style="fill:#ea210c" />
      <path
         d="m 879.407,522.583 c 0,-19.481 -1.411,-55.997 -2.775,-91.31 -1.371,-35.502 -2.79,-72.212 -2.79,-92.081 0,-19.396 -1.052,-38.2 -2.069,-56.385 -1.031,-18.458 -2.098,-37.546 -2.098,-57.5 0,-20.167 1.406,-25.052 3.551,-30.203 0.898,-2.154 2.015,-4.836 2.015,-22.512 v -0.102 c 0,-5.456 4.414,-9.883 9.87,-9.9 l 2.213,-0.007 c 46.019,0 91.691,4.242 135.75,12.609 l 8.501,1.609 c 41.15,7.777 83.702,15.818 120.284,30.689 38.62,15.7 74.443,34.892 106.477,57.044 16.347,11.305 31.829,23.481 46.014,36.193 9.786,8.769 19.137,17.957 27.792,27.309 l 0.097,0.105 c 4.641,5.014 2.928,13.11 -7.512,15.815 L 889.06,531.826 c -2.368,2.818 -9.653,-1.974 -9.653,-9.091 z"
         id="path16"
         inkscape:connector-curvature="0"
         style="fill:#ffdd8a" />
    </g>
    <path
       d="m 875.074,158.01 c 0,39.35 -5.566,13.363 -5.566,52.713 v 0 c 0,39.352 4.167,74.536 4.167,113.886 v 0 c 0,39.351 5.566,144.04 5.566,183.391 v 0 c 40.791,-17.59 81.583,-35.181 122.375,-52.772 v 0 c 40.792,-17.59 81.583,-35.181 122.375,-52.771 v 0 c 40.793,-17.591 81.584,-35.181 122.376,-52.772 v 0 c 17.335,-7.475 40.92,-17.034 58.256,-24.509 v 0 c 5.421,-2.338 10.842,-4.676 16.264,-7.014 v 0 c -8.495,-9.178 -17.549,-18.071 -27.127,-26.654 v 0 c -13.936,-12.487 -35.231,-22.234 -51.279,-33.332 v 0 c -31.299,-21.643 -66.412,-40.5 -104.554,-56.005 v 0 c -38.142,-15.505 -83.478,-23.494 -126.885,-31.737 v 0 C 968.331,162.323 923.452,158 877.157,158 v 0 c -0.695,0 -1.389,0.008 -2.083,0.01 z"
       id="path20"
       inkscape:connector-curvature="0"
       style="fill:url(#Gradient_1)" />
    <g
       id="g60">
      <path
         d="m 896.322,278.499 41.166,6.279 c 7.187,1.097 14.375,2.193 21.563,3.29 5.972,0.911 12.127,1.466 17.833,3.552 -2.986,-1.26 -5.972,-2.52 -8.958,-3.78 1.337,0.589 2.538,1.227 3.765,2.02 -2.529,-1.954 -5.059,-3.909 -7.589,-5.863 1.116,0.882 2.049,1.768 2.964,2.857 -1.955,-2.53 -3.909,-5.06 -5.864,-7.59 0.996,1.417 1.78,2.859 2.492,4.436 -1.26,-2.986 -2.52,-5.972 -3.781,-8.958 4.623,11.406 7.809,22.29 16.851,31.264 9.452,9.38 20.633,11.641 33.323,11.839 5.178,0.081 10.354,0.247 15.529,0.451 20.052,0.792 40.058,2.599 59.95,5.233 -3.323,-0.447 -6.646,-0.894 -9.969,-1.34 16.684,2.259 33.266,5.134 49.735,8.626 15.498,3.285 31.229,6.721 45.897,12.835 -2.986,-1.26 -5.972,-2.521 -8.958,-3.781 6.658,2.899 12.905,6.389 18.659,10.833 -2.529,-1.955 -5.059,-3.91 -7.589,-5.864 0.222,0.224 0.444,0.447 0.666,0.671 -1.955,-2.53 -3.909,-5.059 -5.864,-7.589 0.413,0.531 0.733,1.114 0.959,1.748 -1.26,-2.986 -2.52,-5.972 -3.78,-8.958 0.225,0.607 0.358,1.234 0.399,1.88 l -1.34,-9.969 c -0.011,0.28 -0.023,0.559 -0.034,0.838 0.446,-3.323 0.893,-6.646 1.339,-9.969 -0.067,0.229 -0.135,0.458 -0.203,0.687 3.215,-5.515 6.43,-11.031 9.644,-16.547 -0.127,0.159 -0.254,0.318 -0.381,0.476 5.516,-3.214 11.032,-6.429 16.548,-9.644 -0.19,0.068 -0.379,0.137 -0.569,0.205 h 19.938 c -0.255,-0.043 -0.51,-0.087 -0.765,-0.13 -10.341,-1.744 -19.532,-1.705 -28.896,3.781 -8.383,4.91 -14.656,13.037 -17.234,22.411 -2.662,9.679 -1.293,20.235 3.781,28.896 4.497,7.678 13.287,15.694 22.411,17.233 7.416,1.252 13.889,2.577 21.272,-0.075 9.679,-3.476 17.529,-8.725 22.792,-17.71 7.867,-13.429 5.876,-27.834 -0.161,-41.259 -3.803,-8.455 -11.808,-13.738 -19.112,-18.834 -3.636,-2.538 -7.582,-4.612 -11.579,-6.514 -20.223,-9.626 -41.783,-14.673 -63.604,-19.163 -44.424,-9.142 -89.953,-14.094 -135.306,-14.531 8.839,3.661 17.677,7.322 26.516,10.983 -1.005,-0.801 -1.815,-1.602 -2.633,-2.593 1.955,2.53 3.909,5.06 5.864,7.59 -0.958,-1.395 -1.708,-2.815 -2.39,-4.363 1.26,2.986 2.52,5.972 3.78,8.958 -4.607,-11.601 -7.959,-24.24 -18.264,-32.383 -7.717,-6.099 -14.775,-10.457 -24.503,-12.957 -4.441,-1.141 -9.119,-1.57 -13.643,-2.26 -20.91,-3.19 -41.819,-6.379 -62.729,-9.569 -10.432,-1.591 -19.425,-1.768 -28.896,3.78 -8.383,4.911 -14.655,13.038 -17.233,22.412 -2.663,9.679 -1.293,20.235 3.78,28.896 4.434,7.569 13.335,15.849 22.411,17.233"
         id="path22"
         inkscape:connector-curvature="0"
         style="fill:#ea210c" />
      <path
         d="m 1191.741,362.167 c -14.619,-12.995 -20.987,-35.417 -46.875,-35.417 -7.564,0 -14.703,1.362 -21.029,3.766 -8.114,-38.674 -55.301,-68.349 -112.304,-68.349 -25.956,0 -49.872,6.157 -68.996,16.51 l -77.429,-44.473 12.72,151.04 -8.561,138.351 155.934,-77.608 -1.944,-1.289 116.904,-45.812 c 1.557,-0.302 3.127,-0.729 4.705,-1.302 34.375,-12.5 65.625,-18.75 46.875,-35.417"
         id="path24"
         inkscape:connector-curvature="0"
         style="fill:#f4ed76" />
      <path
         d="m 933.407,484.042 c 0,51.201 -14.457,92.708 -32.292,92.708 -17.834,0 -32.291,-41.507 -32.291,-92.708 0,-51.201 14.457,-92.708 32.291,-92.708 17.835,0 32.292,41.507 32.292,92.708"
         id="path26"
         inkscape:connector-curvature="0"
         style="fill:#f4ed76" />
      <path
         d="m 979.241,491.333 c 0,20.711 -12.126,37.5 -27.083,37.5 -14.958,0 -27.084,-16.789 -27.084,-37.5 0,-20.711 12.126,-37.5 27.084,-37.5 14.957,0 27.083,16.789 27.083,37.5"
         id="path28"
         inkscape:connector-curvature="0"
         style="fill:#f4ed76" />
      <path
         d="m 978.192,464.323 c -19.217,0 -37.373,-4.733 -51.124,-13.327 -14.665,-9.165 -22.74,-21.659 -22.74,-35.178 0,-13.521 8.075,-26.013 22.74,-35.179 13.751,-8.595 31.907,-13.328 51.124,-13.328 19.217,0 37.374,4.733 51.124,13.328 14.665,9.166 22.741,21.658 22.741,35.179 0,13.519 -8.076,26.013 -22.741,35.178 -13.75,8.594 -31.907,13.327 -51.124,13.327"
         id="path30"
         inkscape:connector-curvature="0"
         style="fill:#c6093f" />
      <path
         d="m 1045.815,408.951 c 0,23.342 -30.276,42.264 -67.622,42.264 -37.347,0 -67.623,-18.922 -67.623,-42.264 0,-23.342 30.276,-42.264 67.623,-42.264 37.346,0 67.622,18.922 67.622,42.264"
         id="path32"
         inkscape:connector-curvature="0"
         style="fill:#ea1145" />
      <path
         d="m 987.744,400.863 c 0,5.092 -6.605,9.221 -14.753,9.221 -8.148,0 -14.753,-4.129 -14.753,-9.221 0,-5.092 6.605,-9.221 14.753,-9.221 8.148,0 14.753,4.129 14.753,9.221"
         id="path34"
         inkscape:connector-curvature="0"
         style="fill:#f9f7f8" />
      <path
         d="m 991.488,432.073 c 0,6.385 -8.281,11.561 -18.497,11.561 -10.216,0 -18.497,-5.176 -18.497,-11.561 0,-6.385 8.281,-11.561 18.497,-11.561 10.216,0 18.497,5.176 18.497,11.561"
         id="path36"
         inkscape:connector-curvature="0"
         style="fill:#f9f7f8" />
      <path
         d="m 1020.612,430.773 c 0,3.869 -5.019,7.006 -11.209,7.006 -6.191,0 -11.21,-3.137 -11.21,-7.006 0,-3.869 5.019,-7.006 11.21,-7.006 6.19,0 11.209,3.137 11.209,7.006"
         id="path38"
         inkscape:connector-curvature="0"
         style="fill:#f9f7f8" />
      <path
         d="m 966.189,378.755 c 0,3.039 -3.941,5.502 -8.803,5.502 -4.862,0 -8.804,-2.463 -8.804,-5.502 0,-3.039 3.942,-5.502 8.804,-5.502 4.862,0 8.803,2.463 8.803,5.502"
         id="path40"
         inkscape:connector-curvature="0"
         style="fill:#f9f7f8" />
      <path
         d="m 1037.832,407.365 c 0,3.978 -5.159,7.203 -11.524,7.203 -6.364,0 -11.524,-3.225 -11.524,-7.203 0,-3.978 5.16,-7.203 11.524,-7.203 6.365,0 11.524,3.225 11.524,7.203"
         id="path42"
         inkscape:connector-curvature="0"
         style="fill:#f9f7f8" />
      <path
         d="m 949.296,420.56 c 0,4.477 -5.807,8.106 -12.97,8.106 -7.163,0 -12.97,-3.629 -12.97,-8.106 0,-4.477 5.807,-8.106 12.97,-8.106 7.163,0 12.97,3.629 12.97,8.106"
         id="path44"
         inkscape:connector-curvature="0"
         style="fill:#f9f7f8" />
      <path
         d="m 1024.514,383.957 c 0,5.665 -7.348,10.257 -16.412,10.257 -9.064,0 -16.412,-4.592 -16.412,-10.257 0,-5.665 7.348,-10.257 16.412,-10.257 9.064,0 16.412,4.592 16.412,10.257"
         id="path46"
         inkscape:connector-curvature="0"
         style="fill:#f9f7f8" />
      <path
         d="m 928.212,275.437 c -9.989,0 -18.427,5.969 -18.427,13.034 0,1.841 0.56,3.635 1.665,5.332 l 3.536,5.432 -5.984,2.49 c -7.568,3.15 -12.269,8.969 -12.269,15.188 0,9.645 10.853,17.493 24.192,17.493 7.322,0 14.193,-2.41 18.85,-6.612 l 3.462,-3.123 3.591,2.972 c 4.652,3.852 11.311,6.061 18.27,6.061 13.409,0 24.319,-7.891 24.319,-17.592 0,-5.238 -3.272,-10.191 -8.977,-13.588 l -6.062,-3.609 5.074,-4.903 c 1.63,-1.576 3.574,-4.177 3.574,-7.627 0,-7.065 -8.439,-13.033 -18.427,-13.033 -6.16,0 -11.909,2.222 -15.381,5.945 l -3.398,3.642 -3.901,-3.098 c -3.524,-2.799 -8.52,-4.404 -13.707,-4.404 m -12.824,78.736 c -11.067,0 -21.526,-3.376 -29.45,-9.507 -8.335,-6.447 -12.925,-15.146 -12.925,-24.495 0,-11.134 6.648,-21.356 17.682,-27.672 -0.902,-2.553 -1.368,-5.211 -1.368,-7.88 0,-15.675 15.777,-28.427 35.169,-28.427 7.602,0 14.841,1.927 20.839,5.492 6.521,-5.19 15.256,-8.099 24.644,-8.099 19.393,0 35.169,12.752 35.169,28.427 0,4.668 -1.415,9.238 -4.063,13.305 7.727,6.317 12.053,14.76 12.053,23.854 0,9.381 -4.607,18.111 -12.972,24.582 -7.955,6.154 -18.454,9.543 -29.563,9.543 -10.004,0 -19.429,-2.717 -27.005,-7.721 -7.711,5.504 -17.75,8.598 -28.21,8.598"
         id="path48"
         inkscape:connector-curvature="0"
         style="fill:#339900" />
      <path
         d="m 963.974,332.356 c -8.569,0 -16.286,-2.81 -21.709,-7.3 -5.426,4.896 -13.474,8.002 -22.464,8.002 -16.339,0 -29.585,-10.247 -29.585,-22.887 0,-8.723 6.31,-16.305 15.59,-20.167 -1.62,-2.489 -2.538,-5.298 -2.538,-8.275 0,-10.177 10.665,-18.427 23.82,-18.427 6.692,0 12.735,2.137 17.062,5.574 4.326,-4.638 11.367,-7.659 19.325,-7.659 13.155,0 23.82,8.25 23.82,18.427 0,4.353 -1.956,8.351 -5.219,11.505 7.058,4.202 11.611,10.799 11.611,18.222 0,12.694 -13.303,22.985 -29.713,22.985 m 28.133,-42.705 c 4.079,-3.941 6.524,-8.939 6.524,-14.381 0,-12.721 -13.331,-23.034 -29.775,-23.034 -9.947,0 -18.749,3.778 -24.157,9.575 -5.408,-4.296 -12.962,-6.968 -21.327,-6.968 -16.444,0 -29.775,10.313 -29.775,23.034 0,3.721 1.147,7.233 3.173,10.344 -11.601,4.828 -19.488,14.304 -19.488,25.208 0,15.801 16.557,28.609 36.982,28.609 11.237,0 21.296,-3.882 28.079,-10.002 6.779,5.612 16.425,9.125 27.137,9.125 20.512,0 37.141,-12.864 37.141,-28.732 0,-9.279 -5.691,-17.525 -14.514,-22.778"
         id="path50"
         inkscape:connector-curvature="0"
         style="fill:#72ef43" />
      <path
         d="m 1077.29,396.333 5.675,-22.071 c -19.521,-6.231 -30.969,-16.622 -30.969,-28.428 0,-9.904 8.037,-18.886 22.632,-25.292 13.103,-5.75 30.368,-8.917 48.615,-8.917 18.248,0 35.513,3.167 48.615,8.917 14.595,6.406 22.633,15.388 22.633,25.292 0,12.075 -11.823,22.573 -31.996,28.755 l 7.286,21.744 z"
         id="path52"
         inkscape:connector-curvature="0"
         style="fill:#d8a235" />
      <path
         d="m 1187.483,339.82 c 0,-15.571 -28.761,-28.194 -64.24,-28.194 -35.478,0 -64.24,12.623 -64.24,28.194 0,10.444 12.94,19.561 32.166,24.433 l -5.156,20.051 h 74.46 l -6.599,-19.695 c 20.02,-4.775 33.609,-14.086 33.609,-24.789"
         id="path54"
         inkscape:connector-curvature="0"
         style="fill:#f4bd42" />
      <path
         d="m 1085.34,356.562 c 4.747,-3.604 10.164,-5.497 16.117,-5.729 4.172,-0.163 4.188,-6.656 0,-6.492 -7.02,0.273 -13.765,2.341 -19.394,6.615 -3.288,2.497 -0.06,8.139 3.277,5.606"
         id="path56"
         inkscape:connector-curvature="0"
         style="fill:#d19a2c" />
      <path
         d="m 1136.525,349.925 c 8.271,-0.535 16.052,1.228 23.062,5.708 3.539,2.262 6.792,-3.36 3.276,-5.606 -7.885,-5.04 -17.024,-7.197 -26.338,-6.594 -4.156,0.269 -4.182,6.763 0,6.492"
         id="path58"
         inkscape:connector-curvature="0"
         style="fill:#d19a2c" />
    </g>
    <path
       d="M 779.731,318.702 C 626.328,322.919 490.009,374.62 398.88,453.77 v 0 c -48.324,41.973 -83.939,91.662 -102.656,146.084 v 0 c -9.737,28.311 -14.9,57.903 -14.9,88.354 v 0 c 0,29.664 4.899,58.511 14.153,86.156 v 0 c 18.508,55.283 54.43,105.751 103.407,148.288 v 0 c 63.424,55.088 148.74,96.88 246.469,118.62 v 0 c 48.865,10.87 100.833,16.728 154.721,16.728 v 0 c 52.218,0 102.635,-5.5 150.171,-15.731 v 0 c 99.632,-21.446 186.612,-63.675 251.019,-119.617 v 0 c 44.781,-38.895 78.65,-84.419 98.271,-134.192 v 0 c 12.568,-31.882 19.289,-65.507 19.289,-100.252 v 0 c 0,-20.786 -2.406,-41.173 -7.031,-61.024 v 0 c -12.091,-51.901 -39.345,-100.15 -78.406,-142.355 v 0 C 1103.824,540.699 974.262,596.57 844.699,652.442 v 0 c -15.569,6.714 -31.139,13.428 -46.709,20.141 v 0 -354.157 c -6.112,0.017 -12.198,0.109 -18.259,0.276 z"
       id="path62"
       inkscape:connector-curvature="0"
       style="fill:url(#Gradient_2)" />
    <g
       id="g192">
      <path
         d="m 627.223,956.909 c 64.372,15.039 131.367,17.199 197.202,18.74 31.686,0.741 63.526,-0.562 94.611,-7.246 16.548,-3.558 32.432,-9.651 47.669,-16.96 13.034,-6.253 24.85,-14.727 36.713,-22.906 11.482,-7.917 23.159,-15.481 36.009,-21.007 -2.986,1.26 -5.972,2.52 -8.958,3.78 19.536,-8.107 40.413,-12.056 60.346,-18.99 19.974,-6.948 39.047,-16.462 55.905,-29.265 19.254,-14.621 35.034,-30.734 49.156,-50.43 7.079,-9.873 14.025,-21.153 16.989,-32.982 1.211,-4.834 1.933,-10.016 1.527,-15.011 -0.814,-10.025 -2.55,-14.065 -6.514,-23.322 -1.855,-4.331 -5.253,-7.888 -7.315,-12.139 1.26,2.986 2.52,5.972 3.78,8.958 -0.991,-2.414 -1.646,-4.791 -2.045,-7.37 l 1.34,9.969 c -0.257,-2.585 -0.24,-5.083 0.01,-7.668 -0.447,3.323 -0.893,6.646 -1.34,9.969 0.596,-4.268 1.769,-8.285 3.38,-12.277 l -3.781,8.958 c 3.089,-7.07 7.367,-13.253 12.058,-19.341 -1.955,2.53 -3.909,5.06 -5.864,7.59 5.015,-6.449 10.131,-12.826 14.937,-19.434 5.208,-7.161 8.678,-14.804 11.972,-23.036 6.08,-15.194 5.471,-32.147 4.605,-48.183 -1.568,-29.024 -3.135,-58.048 -4.703,-87.071 -1.102,-20.405 -16.224,-37.5 -37.5,-37.5 -19.607,0 -38.603,17.071 -37.5,37.5 1.033,19.129 2.066,38.258 3.1,57.388 0.498,9.235 0.997,18.469 1.496,27.704 0.51,9.446 1.253,18.904 0.071,28.328 0.446,-3.323 0.893,-6.646 1.339,-9.969 -0.652,4.109 -1.683,8.002 -3.229,11.865 1.26,-2.986 2.52,-5.972 3.78,-8.958 -3.095,7.062 -7.48,13.284 -12.158,19.374 1.954,-2.529 3.909,-5.059 5.863,-7.589 -12.239,15.772 -24.194,30.284 -29.347,50.07 -3.118,11.974 -3.175,24.787 0.108,36.723 1.535,5.58 4.098,11.064 7.162,15.986 1.956,3.142 4.16,5.994 5.627,9.421 -1.26,-2.986 -2.52,-5.972 -3.78,-8.958 0.371,0.965 0.633,1.959 0.789,2.981 -0.447,-3.323 -0.893,-6.646 -1.34,-9.969 0.161,1.122 0.183,2.247 0.067,3.374 l 1.339,-9.969 c -0.353,2.316 -0.985,4.383 -1.871,6.55 1.26,-2.986 2.52,-5.972 3.78,-8.958 -4.042,8.608 -9.565,16.618 -15.305,24.172 1.955,-2.53 3.909,-5.06 5.864,-7.59 -9.283,11.987 -19.999,22.671 -31.989,31.948 2.529,-1.955 5.059,-3.909 7.589,-5.864 -11.654,8.851 -24.266,16.213 -37.737,21.938 l 8.958,-3.78 c -13.108,5.426 -26.808,9.033 -40.444,12.848 -16.392,4.584 -32.486,10.197 -47.666,17.985 -24.712,12.679 -45.208,31.966 -70.935,42.931 2.986,-1.26 5.972,-2.52 8.958,-3.781 -15.866,6.561 -32.51,10.555 -49.49,12.904 3.323,-0.447 6.646,-0.893 9.969,-1.34 -32.648,4.295 -65.654,2.786 -98.455,1.614 -35.936,-1.285 -71.901,-2.955 -107.57,-7.735 3.323,0.446 6.646,0.893 9.969,1.339 -15.879,-2.18 -31.652,-4.983 -47.262,-8.63 -19.888,-4.646 -40.554,5.921 -46.129,26.192 -5.258,19.113 6.288,41.479 26.191,46.129"
         id="path64"
         inkscape:connector-curvature="0"
         style="fill:#ea210c" />
      <path
         d="m 746.448,326.833 c -18.432,3.761 -36.716,11.829 -51.857,23.008 -8.79,6.49 -17.131,13.248 -24.341,21.469 -7.221,8.235 -12.74,17.384 -19.112,26.172 1.955,-2.53 3.909,-5.06 5.864,-7.59 -1.275,1.591 -2.59,2.958 -4.184,4.23 2.53,-1.954 5.06,-3.909 7.59,-5.863 -1.319,0.86 -2.594,1.532 -4.043,2.147 2.986,-1.26 5.972,-2.52 8.958,-3.78 -1.979,0.672 -3.935,1.129 -5.996,1.473 3.323,-0.447 6.646,-0.893 9.969,-1.34 -14.912,1.951 -30.018,2.549 -44.96,4.402 -18.036,2.236 -36.007,4.884 -53.782,8.696 -31.077,6.667 -61.442,17.386 -89.651,32.067 -25.519,13.28 -49.543,31.149 -69.136,52.231 -23.307,25.081 -38.97,54.336 -50.462,86.405 -9.18,25.618 -15.565,52.42 -18.246,79.504 -2.327,23.499 1.218,48.433 8.559,70.795 8.381,25.533 21.694,48.157 39.298,68.38 14.9,17.117 34.597,29.268 48.649,47.21 -1.955,-2.53 -3.909,-5.06 -5.864,-7.59 7.978,10.456 14.442,21.954 22.308,32.489 12.023,16.103 25.56,29.301 43.692,38.512 14.152,7.189 29.167,12.903 43.737,19.183 15.817,6.816 31.633,13.633 47.45,20.45 9.711,4.185 18.25,6.708 28.896,3.78 9.374,-2.579 17.501,-8.851 22.411,-17.234 5.074,-8.66 6.443,-19.217 3.781,-28.896 -2.314,-8.411 -8.834,-18.79 -17.234,-22.411 l -54.75,-23.596 c -17.331,-7.469 -36.268,-13.79 -51.472,-25.236 2.53,1.954 5.06,3.909 7.59,5.863 -5.384,-4.28 -10.011,-9.217 -14.255,-14.618 1.955,2.53 3.909,5.06 5.864,7.59 -13.346,-17.439 -23.503,-36.855 -39.12,-52.599 -14.697,-14.816 -31.751,-26.653 -44.681,-43.252 1.954,2.529 3.909,5.059 5.863,7.589 -8.017,-10.524 -14.594,-21.95 -19.738,-34.137 1.26,2.986 2.52,5.972 3.78,8.958 -5.02,-12.242 -8.492,-24.965 -10.349,-38.066 0.447,3.323 0.893,6.646 1.34,9.969 -1.772,-13.519 -1.705,-27.028 0.11,-40.538 -0.446,3.323 -0.893,6.646 -1.339,9.969 3.822,-26.304 11.618,-52.793 21.923,-77.273 -1.26,2.986 -2.52,5.972 -3.78,8.958 6.548,-15.233 14.643,-29.59 24.775,-42.732 -1.954,2.53 -3.909,5.06 -5.863,7.589 10.396,-13.246 22.439,-24.982 35.704,-35.337 -2.529,1.954 -5.059,3.909 -7.589,5.863 17.208,-13.238 36.112,-23.973 56.066,-32.491 -2.986,1.261 -5.972,2.521 -8.958,3.781 31.57,-13.264 65.084,-20.825 98.926,-25.447 -3.323,0.447 -6.646,0.893 -9.969,1.34 16.273,-2.17 32.607,-3.219 48.921,-4.916 15.606,-1.624 28.709,-5.692 40.357,-16.765 7.039,-6.693 11.379,-15.998 17.19,-23.702 -1.955,2.529 -3.91,5.059 -5.864,7.589 5.66,-7.277 12.135,-13.738 19.393,-19.421 -2.53,1.954 -5.06,3.909 -7.59,5.863 7.339,-5.58 15.232,-10.209 23.694,-13.872 -2.986,1.261 -5.972,2.521 -8.958,3.781 6.615,-2.75 13.403,-4.85 20.423,-6.282 20.037,-4.088 31.332,-27.441 26.191,-46.13 -2.578,-9.373 -8.85,-17.5 -17.233,-22.411 -9.131,-5.348 -18.765,-5.847 -28.896,-3.78"
         id="path66"
         inkscape:connector-curvature="0"
         style="fill:#ea210c" />
      <path
         d="m 1212.503,634.834 -11.084,-91.495 c 13.357,-33.813 -20.148,-54.808 -62.187,-18.225 L 803.889,667.212 c -2.264,0.959 -4.262,2.326 -5.981,4.011 v -247.17 c 16.666,-38.97 -14.584,-55.636 -39.584,-36.886 l -85.416,18.75 c -12.882,0 -37.867,24.593 -49.714,41.233 -5.215,-0.385 -10.501,-0.588 -15.849,-0.588 -89.746,0 -162.5,55.498 -162.5,123.959 0,3.12 0.155,6.212 0.452,9.274 -34.614,22.733 -56.535,56.4 -56.535,93.976 0,53.202 43.942,98.57 105.648,116.153 5.971,64.314 76.251,115.076 162.081,115.076 27.88,0 54.117,-5.359 77.046,-14.796 29.538,23.254 70.905,37.713 116.704,37.713 64.545,0 120.3,-28.707 146.524,-70.296 4.912,0.341 9.884,0.525 14.914,0.525 89.746,0 162.5,-55.498 162.5,-123.959 0,-6.862 -0.743,-13.59 -2.149,-20.149 15.502,-13.942 46.747,-64.398 40.473,-79.204"
         id="path68"
         inkscape:connector-curvature="0"
         style="fill:#f4ed76" />
      <path
         d="m 846.882,916.483 c -2.262,10.812 -12.86,17.743 -23.672,15.481 L 666.601,899.202 C 655.789,896.94 648.858,886.342 651.12,875.53 l 6.312,-30.18 c 2.263,-10.811 12.861,-17.743 23.672,-15.481 l 156.611,32.762 c 10.811,2.262 17.742,12.86 15.48,23.672 z"
         id="path70"
         inkscape:connector-curvature="0"
         style="fill:#f4ed76" />
      <path
         d="m 416.535,681.069 9.898,-20.527 c -17.917,-9.943 -27.103,-22.379 -24.785,-33.955 1.945,-9.711 11.59,-16.941 27.158,-20.356 13.977,-3.066 31.528,-2.781 49.42,0.802 17.892,3.583 34.2,10.078 45.918,18.289 13.053,9.146 19.171,19.532 17.226,29.243 -2.371,11.84 -16.025,19.813 -37.019,21.913 l 2.874,22.751 z"
         id="path72"
         inkscape:connector-curvature="0"
         style="fill:#d8a235" />
      <path
         d="m 535.679,647.292 c 3.057,-15.268 -22.665,-33.293 -57.454,-40.259 -34.788,-6.966 -65.467,-0.236 -68.525,15.032 -2.05,10.241 8.847,21.721 26.742,30.274 l -8.992,18.648 73.01,14.62 -2.603,-20.608 c 20.567,-0.751 35.72,-7.212 37.822,-17.707"
         id="path74"
         inkscape:connector-curvature="0"
         style="fill:#f4bd42" />
      <path
         d="m 432.82,643.386 c 5.023,-2.428 10.624,-3.11 16.12,-2.239 4.094,0.65 5.852,-5.606 1.726,-6.26 -7.348,-1.166 -14.396,-0.358 -21.123,2.893 -3.769,1.822 -0.475,7.419 3.277,5.606"
         id="path76"
         inkscape:connector-curvature="0"
         style="fill:#d19a2c" />
      <path
         d="m 484.367,647.258 c 7.821,1.027 15.05,4.448 20.716,9.93 3.009,2.911 7.604,-1.675 4.591,-4.591 -7.003,-6.776 -15.705,-10.57 -25.307,-11.831 -4.142,-0.544 -4.089,5.955 0,6.492"
         id="path78"
         inkscape:connector-curvature="0"
         style="fill:#d19a2c" />
      <path
         d="m 792.864,830.552 c -9.989,0 -18.427,5.969 -18.427,13.034 0,1.841 0.56,3.635 1.665,5.332 l 3.536,5.432 -5.984,2.49 c -7.568,3.15 -12.269,8.969 -12.269,15.188 0,9.645 10.853,17.493 24.192,17.493 7.322,0 14.193,-2.41 18.85,-6.612 l 3.462,-3.123 3.591,2.972 c 4.652,3.852 11.311,6.061 18.27,6.061 13.409,0 24.319,-7.891 24.319,-17.592 0,-5.238 -3.272,-10.191 -8.977,-13.588 l -6.062,-3.609 5.074,-4.903 c 1.63,-1.576 3.574,-4.177 3.574,-7.627 0,-7.065 -8.439,-13.033 -18.427,-13.033 -6.16,0 -11.909,2.222 -15.381,5.945 l -3.398,3.642 -3.901,-3.098 c -3.524,-2.799 -8.52,-4.404 -13.707,-4.404 m -12.824,78.736 c -11.067,0 -21.526,-3.376 -29.45,-9.507 -8.335,-6.447 -12.925,-15.146 -12.925,-24.495 0,-11.134 6.648,-21.356 17.682,-27.672 -0.902,-2.553 -1.368,-5.211 -1.368,-7.88 0,-15.675 15.777,-28.427 35.169,-28.427 7.602,0 14.842,1.927 20.839,5.492 6.521,-5.19 15.256,-8.099 24.645,-8.099 19.392,0 35.168,12.752 35.168,28.427 0,4.668 -1.415,9.238 -4.063,13.305 7.728,6.317 12.053,14.76 12.053,23.854 0,9.381 -4.607,18.111 -12.972,24.582 -7.955,6.154 -18.454,9.543 -29.563,9.543 -10.004,0 -19.429,-2.717 -27.005,-7.721 -7.711,5.504 -17.75,8.598 -28.21,8.598"
         id="path80"
         inkscape:connector-curvature="0"
         style="fill:#339900" />
      <path
         d="m 828.626,887.471 c -8.569,0 -16.286,-2.81 -21.709,-7.3 -5.426,4.896 -13.474,8.002 -22.464,8.002 -16.339,0 -29.585,-10.247 -29.585,-22.887 0,-8.723 6.31,-16.305 15.59,-20.167 -1.62,-2.489 -2.538,-5.298 -2.538,-8.275 0,-10.177 10.664,-18.427 23.82,-18.427 6.692,0 12.735,2.137 17.062,5.574 4.326,-4.638 11.367,-7.659 19.325,-7.659 13.155,0 23.82,8.25 23.82,18.427 0,4.353 -1.956,8.351 -5.219,11.505 7.058,4.202 11.611,10.799 11.611,18.222 0,12.694 -13.303,22.985 -29.713,22.985 m 28.133,-42.704 c 4.079,-3.942 6.524,-8.94 6.524,-14.382 0,-12.721 -13.331,-23.034 -29.775,-23.034 -9.948,0 -18.749,3.778 -24.157,9.575 -5.408,-4.296 -12.962,-6.968 -21.327,-6.968 -16.444,0 -29.775,10.313 -29.775,23.034 0,3.721 1.147,7.233 3.173,10.344 -11.601,4.828 -19.488,14.305 -19.488,25.208 0,15.801 16.557,28.609 36.982,28.609 11.237,0 21.296,-3.882 28.079,-10.002 6.778,5.612 16.425,9.125 27.137,9.125 20.512,0 37.141,-12.864 37.141,-28.732 0,-9.279 -5.691,-17.525 -14.514,-22.777"
         id="path82"
         inkscape:connector-curvature="0"
         style="fill:#72ef43" />
      <path
         d="m 602.246,663.773 c -9.661,-2.536 -19.339,1.094 -21.133,7.928 -0.467,1.781 -0.381,3.658 0.257,5.58 l 2.041,6.152 -6.42,0.889 c -8.12,1.125 -14.145,5.56 -15.724,11.574 -2.449,9.33 6.055,19.676 18.958,23.063 7.082,1.859 14.339,1.273 19.911,-1.609 l 4.141,-2.142 2.718,3.787 c 3.522,4.907 9.402,8.735 16.133,10.502 12.97,3.404 25.526,-1.458 27.989,-10.841 1.33,-5.067 -0.577,-10.688 -5.232,-15.422 l -4.948,-5.031 6.153,-3.453 c 1.977,-1.11 4.517,-3.133 5.393,-6.47 1.794,-6.833 -4.852,-14.749 -14.513,-17.285 -5.958,-1.564 -12.083,-0.874 -16.387,1.845 l -4.211,2.66 -2.986,-3.987 c -2.698,-3.602 -7.123,-6.423 -12.14,-7.74 m -32.396,72.899 c -10.704,-2.81 -19.963,-8.731 -26.071,-16.673 -6.425,-8.352 -8.656,-17.932 -6.282,-26.974 2.827,-10.769 11.854,-18.968 24.13,-22.276 -0.225,-2.697 0,-5.387 0.677,-7.969 3.98,-15.161 22.478,-23.489 41.234,-18.565 7.354,1.93 13.866,5.632 18.762,10.603 7.625,-3.364 16.813,-3.959 25.893,-1.576 18.757,4.924 30.778,21.265 26.798,36.426 -1.185,4.515 -3.714,8.576 -7.308,11.837 5.87,8.072 7.91,17.336 5.601,26.132 -2.382,9.074 -9.055,16.348 -18.789,20.483 -9.256,3.933 -20.272,4.545 -31.017,1.724 -9.676,-2.54 -18.102,-7.561 -24.159,-14.324 -8.856,3.364 -19.352,3.808 -29.469,1.152"
         id="path84"
         inkscape:connector-curvature="0"
         style="fill:#339900" />
      <path
         d="m 622.384,727.907 c -8.289,-2.176 -15.039,-6.853 -19.144,-12.573 -6.492,3.358 -15.064,4.318 -23.759,2.036 -15.804,-4.149 -26.014,-17.423 -22.805,-29.649 2.215,-8.437 10.244,-14.168 20.2,-15.548 -0.935,-2.818 -1.11,-5.769 -0.354,-8.648 2.584,-9.843 14.994,-15.115 27.719,-11.775 6.472,1.699 11.775,5.301 15.087,9.724 5.362,-3.387 12.94,-4.522 20.637,-2.502 12.724,3.341 20.945,14.028 18.36,23.872 -1.105,4.211 -4.012,7.581 -7.969,9.802 5.76,5.857 8.488,13.394 6.603,20.573 -3.223,12.279 -18.703,18.855 -34.575,14.688 m 38.054,-34.162 c 4.946,-2.776 8.581,-6.989 9.962,-12.253 3.23,-12.304 -7.045,-25.664 -22.951,-29.839 -9.621,-2.526 -19.093,-1.108 -25.795,3.127 -4.141,-5.529 -10.769,-10.031 -18.859,-12.155 -15.906,-4.175 -31.418,2.414 -34.649,14.719 -0.944,3.599 -0.726,7.287 0.443,10.81 -12.446,1.724 -22.481,8.888 -25.25,19.434 -4.012,15.283 8.751,31.875 28.506,37.062 10.869,2.853 21.584,1.652 29.698,-2.545 5.132,7.149 13.57,12.996 23.931,15.716 19.84,5.208 39.19,-3.011 43.219,-18.359 2.356,-8.975 -1.055,-18.396 -8.255,-25.717"
         id="path86"
         inkscape:connector-curvature="0"
         style="fill:#72ef43" />
      <path
         d="m 516.795,495.27 c -9.989,0 -18.427,5.969 -18.427,13.034 0,1.841 0.56,3.635 1.665,5.332 l 3.536,5.432 -5.984,2.49 c -7.568,3.15 -12.269,8.969 -12.269,15.188 0,9.646 10.853,17.493 24.192,17.493 7.322,0 14.193,-2.41 18.85,-6.612 l 3.462,-3.123 3.591,2.972 c 4.652,3.852 11.311,6.061 18.27,6.061 13.409,0 24.319,-7.891 24.319,-17.592 0,-5.238 -3.272,-10.191 -8.977,-13.588 l -6.062,-3.609 5.074,-4.903 c 1.63,-1.576 3.574,-4.177 3.574,-7.627 0,-7.065 -8.439,-13.033 -18.427,-13.033 -6.16,0 -11.909,2.222 -15.381,5.945 l -3.398,3.642 -3.901,-3.098 c -3.524,-2.799 -8.52,-4.404 -13.707,-4.404 m -12.824,78.736 c -11.067,0 -21.526,-3.376 -29.45,-9.507 -8.335,-6.447 -12.925,-15.146 -12.925,-24.495 0,-11.134 6.648,-21.356 17.682,-27.672 -0.902,-2.553 -1.368,-5.211 -1.368,-7.88 0,-15.675 15.777,-28.427 35.169,-28.427 7.602,0 14.841,1.927 20.839,5.492 6.521,-5.19 15.256,-8.099 24.644,-8.099 19.393,0 35.169,12.752 35.169,28.427 0,4.668 -1.415,9.238 -4.063,13.305 7.728,6.317 12.053,14.76 12.053,23.854 0,9.381 -4.607,18.111 -12.972,24.582 -7.955,6.154 -18.454,9.543 -29.563,9.543 -10.004,0 -19.429,-2.717 -27.005,-7.721 -7.711,5.504 -17.75,8.598 -28.21,8.598"
         id="path88"
         inkscape:connector-curvature="0"
         style="fill:#339900" />
      <path
         d="m 552.557,552.189 c -8.569,0 -16.286,-2.81 -21.709,-7.3 -5.426,4.896 -13.474,8.002 -22.464,8.002 -16.339,0 -29.585,-10.247 -29.585,-22.887 0,-8.723 6.31,-16.305 15.59,-20.167 -1.62,-2.489 -2.538,-5.298 -2.538,-8.275 0,-10.177 10.665,-18.427 23.82,-18.427 6.692,0 12.735,2.137 17.062,5.574 4.326,-4.638 11.367,-7.659 19.325,-7.659 13.156,0 23.82,8.25 23.82,18.427 0,4.353 -1.956,8.351 -5.219,11.505 7.058,4.202 11.611,10.799 11.611,18.222 0,12.694 -13.303,22.985 -29.713,22.985 m 28.133,-42.705 c 4.079,-3.941 6.524,-8.939 6.524,-14.381 0,-12.721 -13.331,-23.034 -29.775,-23.034 -9.947,0 -18.749,3.778 -24.156,9.575 -5.409,-4.296 -12.963,-6.968 -21.328,-6.968 -16.444,0 -29.775,10.313 -29.775,23.034 0,3.721 1.147,7.233 3.173,10.344 -11.6,4.828 -19.488,14.304 -19.488,25.208 0,15.801 16.557,28.609 36.982,28.609 11.237,0 21.296,-3.882 28.079,-10.002 6.779,5.612 16.425,9.125 27.137,9.125 20.512,0 37.141,-12.864 37.141,-28.732 0,-9.279 -5.691,-17.525 -14.514,-22.778"
         id="path90"
         inkscape:connector-curvature="0"
         style="fill:#72ef43" />
      <path
         d="m 942.864,651.385 c -9.989,0 -18.427,5.969 -18.427,13.034 0,1.841 0.56,3.635 1.665,5.332 l 3.536,5.432 -5.984,2.49 c -7.568,3.15 -12.269,8.969 -12.269,15.188 0,9.645 10.853,17.493 24.192,17.493 7.322,0 14.193,-2.41 18.85,-6.612 l 3.462,-3.123 3.591,2.972 c 4.652,3.852 11.311,6.061 18.27,6.061 13.409,0 24.319,-7.891 24.319,-17.592 0,-5.238 -3.272,-10.191 -8.977,-13.588 l -6.062,-3.609 5.074,-4.903 c 1.63,-1.576 3.574,-4.177 3.574,-7.627 0,-7.065 -8.439,-13.033 -18.427,-13.033 -6.16,0 -11.909,2.222 -15.381,5.945 l -3.398,3.642 -3.901,-3.098 c -3.524,-2.799 -8.52,-4.404 -13.707,-4.404 m -12.824,78.736 c -11.067,0 -21.526,-3.376 -29.45,-9.507 -8.335,-6.447 -12.925,-15.146 -12.925,-24.495 0,-11.134 6.648,-21.356 17.682,-27.672 -0.902,-2.553 -1.368,-5.211 -1.368,-7.88 0,-15.675 15.777,-28.427 35.169,-28.427 7.602,0 14.842,1.927 20.839,5.492 6.521,-5.19 15.256,-8.099 24.645,-8.099 19.392,0 35.168,12.752 35.168,28.427 0,4.668 -1.415,9.238 -4.063,13.305 7.728,6.317 12.053,14.76 12.053,23.854 0,9.381 -4.607,18.111 -12.972,24.582 -7.955,6.154 -18.454,9.543 -29.563,9.543 -10.004,0 -19.429,-2.717 -27.005,-7.721 -7.711,5.504 -17.75,8.598 -28.21,8.598"
         id="path92"
         inkscape:connector-curvature="0"
         style="fill:#339900" />
      <path
         d="m 978.626,708.304 c -8.569,0 -16.286,-2.81 -21.709,-7.3 -5.426,4.896 -13.474,8.002 -22.464,8.002 -16.339,0 -29.585,-10.247 -29.585,-22.887 0,-8.723 6.31,-16.305 15.59,-20.167 -1.62,-2.489 -2.538,-5.298 -2.538,-8.275 0,-10.177 10.664,-18.427 23.82,-18.427 6.692,0 12.735,2.137 17.062,5.574 4.326,-4.638 11.367,-7.659 19.325,-7.659 13.155,0 23.82,8.25 23.82,18.427 0,4.353 -1.956,8.351 -5.219,11.505 7.058,4.202 11.611,10.799 11.611,18.222 0,12.694 -13.303,22.985 -29.713,22.985 m 28.133,-42.704 c 4.079,-3.942 6.524,-8.94 6.524,-14.382 0,-12.721 -13.331,-23.034 -29.775,-23.034 -9.948,0 -18.749,3.778 -24.157,9.575 -5.408,-4.296 -12.962,-6.968 -21.327,-6.968 -16.444,0 -29.775,10.313 -29.775,23.034 0,3.721 1.147,7.233 3.173,10.344 -11.601,4.828 -19.488,14.305 -19.488,25.208 0,15.801 16.557,28.609 36.982,28.609 11.237,0 21.296,-3.882 28.079,-10.002 6.778,5.612 16.425,9.125 27.137,9.125 20.512,0 37.141,-12.864 37.141,-28.732 0,-9.279 -5.691,-17.525 -14.514,-22.777"
         id="path94"
         inkscape:connector-curvature="0"
         style="fill:#72ef43" />
      <path
         d="m 1068.956,777.583 5.675,-22.07 c -19.52,-6.232 -30.969,-16.623 -30.969,-28.429 0,-9.904 8.037,-18.886 22.632,-25.291 13.103,-5.751 30.368,-8.918 48.615,-8.918 18.248,0 35.513,3.167 48.615,8.918 14.595,6.405 22.633,15.387 22.633,25.291 0,12.075 -11.823,22.573 -31.996,28.755 l 7.286,21.744 z"
         id="path96"
         inkscape:connector-curvature="0"
         style="fill:#d8a235" />
      <path
         d="m 1179.149,721.07 c 0,-15.571 -28.761,-28.194 -64.24,-28.194 -35.479,0 -64.24,12.623 -64.24,28.194 0,10.444 12.94,19.561 32.166,24.433 l -5.156,20.051 h 74.46 l -6.599,-19.695 c 20.02,-4.775 33.609,-14.086 33.609,-24.789"
         id="path98"
         inkscape:connector-curvature="0"
         style="fill:#f4bd42" />
      <path
         d="m 1077.007,737.812 c 4.747,-3.604 10.164,-5.497 16.116,-5.729 4.173,-0.163 4.189,-6.656 0,-6.492 -7.019,0.273 -13.764,2.341 -19.393,6.615 -3.288,2.497 -0.06,8.139 3.277,5.606"
         id="path100"
         inkscape:connector-curvature="0"
         style="fill:#d19a2c" />
      <path
         d="m 1128.192,731.175 c 8.27,-0.535 16.052,1.228 23.062,5.708 3.539,2.262 6.792,-3.36 3.276,-5.606 -7.885,-5.04 -17.024,-7.197 -26.338,-6.594 -4.156,0.269 -4.182,6.763 0,6.492"
         id="path102"
         inkscape:connector-curvature="0"
         style="fill:#d19a2c" />
      <path
         d="m 672.088,513.905 5.675,-22.071 c -19.521,-6.231 -30.969,-16.622 -30.969,-28.428 0,-9.904 8.037,-18.886 22.632,-25.292 13.103,-5.75 30.368,-8.917 48.615,-8.917 18.248,0 35.513,3.167 48.615,8.917 14.595,6.406 22.633,15.388 22.633,25.292 0,12.075 -11.823,22.573 -31.996,28.755 l 7.286,21.744 z"
         id="path104"
         inkscape:connector-curvature="0"
         style="fill:#d8a235" />
      <path
         d="m 782.281,457.391 c 0,-15.571 -28.761,-28.194 -64.24,-28.194 -35.479,0 -64.24,12.623 -64.24,28.194 0,10.444 12.94,19.561 32.166,24.433 l -5.156,20.051 h 74.46 l -6.599,-19.695 c 20.02,-4.775 33.609,-14.086 33.609,-24.789"
         id="path106"
         inkscape:connector-curvature="0"
         style="fill:#f4bd42" />
      <path
         d="m 680.139,474.133 c 4.747,-3.604 10.164,-5.497 16.117,-5.729 4.172,-0.163 4.188,-6.656 0,-6.492 -7.02,0.273 -13.765,2.341 -19.394,6.615 -3.288,2.497 -0.06,8.139 3.277,5.606"
         id="path108"
         inkscape:connector-curvature="0"
         style="fill:#d19a2c" />
      <path
         d="m 731.324,467.496 c 8.271,-0.535 16.052,1.228 23.062,5.708 3.539,2.262 6.792,-3.36 3.276,-5.606 -7.885,-5.04 -17.024,-7.197 -26.338,-6.594 -4.156,0.269 -4.182,6.763 0,6.492"
         id="path110"
         inkscape:connector-curvature="0"
         style="fill:#d19a2c" />
      <path
         d="m 733.009,764.549 3.842,-22.462 c -19.966,-4.607 -32.23,-14.021 -33.201,-25.788 -0.813,-9.87 6.459,-19.483 20.478,-27.066 12.586,-6.808 29.532,-11.383 47.718,-12.882 18.186,-1.499 35.653,0.238 49.183,4.893 15.072,5.184 23.821,13.475 24.635,23.346 0.992,12.034 -9.928,23.468 -29.525,31.287 l 9.048,21.072 z"
         id="path112"
         inkscape:connector-curvature="0"
         style="fill:#d8a235" />
      <path
         d="m 838.185,699.171 c -1.279,-15.519 -30.981,-25.735 -66.339,-22.82 -35.359,2.915 -62.986,17.859 -61.705,33.378 0.857,10.408 14.502,18.432 34.065,21.707 l -3.492,20.407 74.208,-6.119 -8.195,-19.086 c 19.559,-6.404 32.338,-16.8 31.458,-27.467"
         id="path114"
         inkscape:connector-curvature="0"
         style="fill:#f4bd42" />
      <path
         d="m 738.196,723.887 c 4.144,-3.731 9.362,-5.992 14.892,-6.659 4.103,-0.495 4.151,-6.994 0,-6.493 -7.344,0.886 -13.954,3.583 -19.483,8.561 -3.117,2.807 1.489,7.384 4.591,4.591"
         id="path116"
         inkscape:connector-curvature="0"
         style="fill:#d19a2c" />
      <path
         d="m 788.827,713.325 c 7.805,-1.155 15.642,0.083 22.62,3.773 3.699,1.956 6.979,-3.648 3.277,-5.606 -8.646,-4.572 -17.997,-5.852 -27.623,-4.427 -4.13,0.611 -2.368,6.866 1.726,6.26"
         id="path118"
         inkscape:connector-curvature="0"
         style="fill:#d19a2c" />
      <path
         d="m 975.906,866.551 c -19.217,0 -37.373,-4.733 -51.124,-13.327 -14.664,-9.165 -22.74,-21.659 -22.74,-35.179 0,-13.52 8.076,-26.013 22.74,-35.178 13.751,-8.595 31.907,-13.328 51.124,-13.328 19.217,0 37.374,4.733 51.124,13.328 14.665,9.165 22.741,21.658 22.741,35.178 0,13.52 -8.076,26.014 -22.741,35.179 -13.75,8.594 -31.907,13.327 -51.124,13.327"
         id="path120"
         inkscape:connector-curvature="0"
         style="fill:#c6093f" />
      <path
         d="m 1043.529,811.179 c 0,23.342 -30.276,42.264 -67.622,42.264 -37.347,0 -67.623,-18.922 -67.623,-42.264 0,-23.342 30.276,-42.264 67.623,-42.264 37.346,0 67.622,18.922 67.622,42.264"
         id="path122"
         inkscape:connector-curvature="0"
         style="fill:#ea1145" />
      <path
         d="m 985.458,803.09 c 0,5.092 -6.605,9.221 -14.753,9.221 -8.148,0 -14.753,-4.129 -14.753,-9.221 0,-5.092 6.605,-9.221 14.753,-9.221 8.148,0 14.753,4.129 14.753,9.221"
         id="path124"
         inkscape:connector-curvature="0"
         style="fill:#f9f7f8" />
      <path
         d="m 989.202,834.301 c 0,6.385 -8.281,11.561 -18.497,11.561 -10.216,0 -18.497,-5.176 -18.497,-11.561 0,-6.385 8.281,-11.561 18.497,-11.561 10.216,0 18.497,5.176 18.497,11.561"
         id="path126"
         inkscape:connector-curvature="0"
         style="fill:#f9f7f8" />
      <path
         d="m 1018.326,833 c 0,3.869 -5.019,7.006 -11.209,7.006 -6.191,0 -11.21,-3.137 -11.21,-7.006 0,-3.869 5.019,-7.006 11.21,-7.006 6.19,0 11.209,3.137 11.209,7.006"
         id="path128"
         inkscape:connector-curvature="0"
         style="fill:#f9f7f8" />
      <path
         d="m 963.903,780.983 c 0,3.039 -3.941,5.502 -8.803,5.502 -4.862,0 -8.804,-2.463 -8.804,-5.502 0,-3.039 3.942,-5.502 8.804,-5.502 4.862,0 8.803,2.463 8.803,5.502"
         id="path130"
         inkscape:connector-curvature="0"
         style="fill:#f9f7f8" />
      <path
         d="m 1035.546,809.592 c 0,3.978 -5.16,7.202 -11.524,7.202 -6.365,0 -11.524,-3.224 -11.524,-7.202 0,-3.978 5.159,-7.203 11.524,-7.203 6.364,0 11.524,3.225 11.524,7.203"
         id="path132"
         inkscape:connector-curvature="0"
         style="fill:#f9f7f8" />
      <path
         d="m 947.01,822.787 c 0,4.477 -5.807,8.106 -12.97,8.106 -7.162,0 -12.97,-3.629 -12.97,-8.106 0,-4.477 5.808,-8.106 12.97,-8.106 7.163,0 12.97,3.629 12.97,8.106"
         id="path134"
         inkscape:connector-curvature="0"
         style="fill:#f9f7f8" />
      <path
         d="m 1022.228,786.185 c 0,5.665 -7.348,10.257 -16.412,10.257 -9.064,0 -16.412,-4.592 -16.412,-10.257 0,-5.665 7.348,-10.257 16.412,-10.257 9.064,0 16.412,4.592 16.412,10.257"
         id="path136"
         inkscape:connector-curvature="0"
         style="fill:#f9f7f8" />
      <path
         d="m 624.106,875.338 c -19.217,0 -37.373,-4.733 -51.124,-13.327 -14.664,-9.165 -22.74,-21.659 -22.74,-35.179 0,-13.52 8.076,-26.013 22.74,-35.178 13.751,-8.595 31.907,-13.328 51.124,-13.328 19.217,0 37.374,4.733 51.125,13.328 14.664,9.165 22.74,21.658 22.74,35.178 0,13.52 -8.076,26.014 -22.74,35.179 -13.751,8.594 -31.908,13.327 -51.125,13.327"
         id="path138"
         inkscape:connector-curvature="0"
         style="fill:#c6093f" />
      <path
         d="m 691.728,819.966 c 0,23.341 -30.276,42.263 -67.621,42.263 -37.348,0 -67.624,-18.922 -67.624,-42.263 0,-23.343 30.276,-42.265 67.624,-42.265 37.345,0 67.621,18.922 67.621,42.265"
         id="path140"
         inkscape:connector-curvature="0"
         style="fill:#ea1145" />
      <path
         d="m 633.658,811.877 c 0,5.092 -6.606,9.221 -14.753,9.221 -8.148,0 -14.753,-4.129 -14.753,-9.221 0,-5.092 6.605,-9.221 14.753,-9.221 8.147,0 14.753,4.129 14.753,9.221"
         id="path142"
         inkscape:connector-curvature="0"
         style="fill:#f9f7f8" />
      <path
         d="m 637.402,843.087 c 0,6.385 -8.281,11.561 -18.497,11.561 -10.216,0 -18.497,-5.176 -18.497,-11.561 0,-6.385 8.281,-11.561 18.497,-11.561 10.216,0 18.497,5.176 18.497,11.561"
         id="path144"
         inkscape:connector-curvature="0"
         style="fill:#f9f7f8" />
      <path
         d="m 666.526,841.787 c 0,3.869 -5.019,7.006 -11.209,7.006 -6.191,0 -11.21,-3.137 -11.21,-7.006 0,-3.869 5.019,-7.006 11.21,-7.006 6.19,0 11.209,3.137 11.209,7.006"
         id="path146"
         inkscape:connector-curvature="0"
         style="fill:#f9f7f8" />
      <path
         d="m 612.103,789.77 c 0,3.039 -3.941,5.502 -8.803,5.502 -4.862,0 -8.804,-2.463 -8.804,-5.502 0,-3.039 3.942,-5.502 8.804,-5.502 4.862,0 8.803,2.463 8.803,5.502"
         id="path148"
         inkscape:connector-curvature="0"
         style="fill:#f9f7f8" />
      <path
         d="m 683.746,818.379 c 0,3.978 -5.159,7.203 -11.524,7.203 -6.364,0 -11.524,-3.225 -11.524,-7.203 0,-3.978 5.16,-7.202 11.524,-7.202 6.365,0 11.524,3.224 11.524,7.202"
         id="path150"
         inkscape:connector-curvature="0"
         style="fill:#f9f7f8" />
      <path
         d="m 595.21,831.574 c 0,4.477 -5.807,8.106 -12.97,8.106 -7.163,0 -12.97,-3.629 -12.97,-8.106 0,-4.477 5.807,-8.106 12.97,-8.106 7.163,0 12.97,3.629 12.97,8.106"
         id="path152"
         inkscape:connector-curvature="0"
         style="fill:#f9f7f8" />
      <path
         d="m 670.428,794.971 c 0,5.665 -7.348,10.257 -16.412,10.257 -9.064,0 -16.412,-4.592 -16.412,-10.257 0,-5.665 7.348,-10.257 16.412,-10.257 9.064,0 16.412,4.592 16.412,10.257"
         id="path154"
         inkscape:connector-curvature="0"
         style="fill:#f9f7f8" />
      <path
         d="m 707.612,644.417 c -19.217,0 -37.373,-4.733 -51.124,-13.327 -14.664,-9.165 -22.74,-21.659 -22.74,-35.179 0,-13.52 8.076,-26.013 22.74,-35.178 13.751,-8.595 31.907,-13.328 51.124,-13.328 19.217,0 37.374,4.733 51.125,13.328 14.664,9.165 22.74,21.658 22.74,35.178 0,13.52 -8.076,26.014 -22.74,35.179 -13.751,8.594 -31.908,13.327 -51.125,13.327"
         id="path156"
         inkscape:connector-curvature="0"
         style="fill:#c6093f" />
      <path
         d="m 775.234,589.045 c 0,23.342 -30.276,42.264 -67.622,42.264 -37.347,0 -67.623,-18.922 -67.623,-42.264 0,-23.342 30.276,-42.264 67.623,-42.264 37.346,0 67.622,18.922 67.622,42.264"
         id="path158"
         inkscape:connector-curvature="0"
         style="fill:#ea1145" />
      <path
         d="m 717.163,580.956 c 0,5.092 -6.605,9.221 -14.753,9.221 -8.148,0 -14.753,-4.129 -14.753,-9.221 0,-5.092 6.605,-9.221 14.753,-9.221 8.148,0 14.753,4.129 14.753,9.221"
         id="path160"
         inkscape:connector-curvature="0"
         style="fill:#f9f7f8" />
      <path
         d="m 720.907,612.167 c 0,6.385 -8.281,11.561 -18.497,11.561 -10.216,0 -18.497,-5.176 -18.497,-11.561 0,-6.385 8.281,-11.561 18.497,-11.561 10.216,0 18.497,5.176 18.497,11.561"
         id="path162"
         inkscape:connector-curvature="0"
         style="fill:#f9f7f8" />
      <path
         d="m 750.031,610.866 c 0,3.869 -5.019,7.006 -11.209,7.006 -6.191,0 -11.21,-3.137 -11.21,-7.006 0,-3.869 5.019,-7.006 11.21,-7.006 6.19,0 11.209,3.137 11.209,7.006"
         id="path164"
         inkscape:connector-curvature="0"
         style="fill:#f9f7f8" />
      <path
         d="m 695.608,558.849 c 0,3.039 -3.941,5.502 -8.803,5.502 -4.862,0 -8.804,-2.463 -8.804,-5.502 0,-3.039 3.942,-5.502 8.804,-5.502 4.862,0 8.803,2.463 8.803,5.502"
         id="path166"
         inkscape:connector-curvature="0"
         style="fill:#f9f7f8" />
      <path
         d="m 767.252,587.459 c 0,3.978 -5.159,7.203 -11.524,7.203 -6.364,0 -11.524,-3.225 -11.524,-7.203 0,-3.978 5.16,-7.203 11.524,-7.203 6.365,0 11.524,3.225 11.524,7.203"
         id="path168"
         inkscape:connector-curvature="0"
         style="fill:#f9f7f8" />
      <path
         d="m 678.716,600.653 c 0,4.477 -5.807,8.106 -12.97,8.106 -7.163,0 -12.97,-3.629 -12.97,-8.106 0,-4.477 5.807,-8.106 12.97,-8.106 7.163,0 12.97,3.629 12.97,8.106"
         id="path170"
         inkscape:connector-curvature="0"
         style="fill:#f9f7f8" />
      <path
         d="m 753.934,564.051 c 0,5.665 -7.348,10.257 -16.412,10.257 -9.064,0 -16.413,-4.592 -16.413,-10.257 0,-5.665 7.349,-10.257 16.413,-10.257 9.064,0 16.412,4.592 16.412,10.257"
         id="path172"
         inkscape:connector-curvature="0"
         style="fill:#f9f7f8" />
      <path
         d="m 1116.54,645.801 c -19.217,0 -37.373,-4.733 -51.124,-13.327 -14.664,-9.165 -22.74,-21.659 -22.74,-35.179 0,-13.52 8.076,-26.013 22.74,-35.178 13.751,-8.595 31.907,-13.328 51.124,-13.328 19.217,0 37.374,4.733 51.125,13.328 14.664,9.165 22.74,21.658 22.74,35.178 0,13.52 -8.076,26.014 -22.74,35.179 -13.751,8.594 -31.908,13.327 -51.125,13.327"
         id="path174"
         inkscape:connector-curvature="0"
         style="fill:#c6093f" />
      <path
         d="m 1184.162,590.429 c 0,23.342 -30.276,42.264 -67.622,42.264 -37.347,0 -67.623,-18.922 -67.623,-42.264 0,-23.342 30.276,-42.264 67.623,-42.264 37.346,0 67.622,18.922 67.622,42.264"
         id="path176"
         inkscape:connector-curvature="0"
         style="fill:#ea1145" />
      <path
         d="m 1126.091,582.34 c 0,5.092 -6.605,9.221 -14.753,9.221 -8.148,0 -14.753,-4.129 -14.753,-9.221 0,-5.092 6.605,-9.221 14.753,-9.221 8.148,0 14.753,4.129 14.753,9.221"
         id="path178"
         inkscape:connector-curvature="0"
         style="fill:#f9f7f8" />
      <path
         d="m 1129.835,613.55 c 0,6.385 -8.281,11.561 -18.497,11.561 -10.216,0 -18.497,-5.176 -18.497,-11.561 0,-6.385 8.281,-11.561 18.497,-11.561 10.216,0 18.497,5.176 18.497,11.561"
         id="path180"
         inkscape:connector-curvature="0"
         style="fill:#f9f7f8" />
      <path
         d="m 1158.959,612.25 c 0,3.869 -5.019,7.006 -11.209,7.006 -6.191,0 -11.21,-3.137 -11.21,-7.006 0,-3.869 5.019,-7.006 11.21,-7.006 6.19,0 11.209,3.137 11.209,7.006"
         id="path182"
         inkscape:connector-curvature="0"
         style="fill:#f9f7f8" />
      <path
         d="m 1104.536,560.233 c 0,3.039 -3.941,5.502 -8.803,5.502 -4.862,0 -8.804,-2.463 -8.804,-5.502 0,-3.039 3.942,-5.502 8.804,-5.502 4.862,0 8.803,2.463 8.803,5.502"
         id="path184"
         inkscape:connector-curvature="0"
         style="fill:#f9f7f8" />
      <path
         d="m 1176.18,588.842 c 0,3.978 -5.159,7.203 -11.524,7.203 -6.365,0 -11.524,-3.225 -11.524,-7.203 0,-3.978 5.159,-7.202 11.524,-7.202 6.365,0 11.524,3.224 11.524,7.202"
         id="path186"
         inkscape:connector-curvature="0"
         style="fill:#f9f7f8" />
      <path
         d="m 1087.644,602.037 c 0,4.477 -5.807,8.106 -12.97,8.106 -7.163,0 -12.97,-3.629 -12.97,-8.106 0,-4.477 5.807,-8.106 12.97,-8.106 7.163,0 12.97,3.629 12.97,8.106"
         id="path188"
         inkscape:connector-curvature="0"
         style="fill:#f9f7f8" />
      <path
         d="m 1162.862,565.435 c 0,5.665 -7.348,10.257 -16.412,10.257 -9.065,0 -16.412,-4.592 -16.412,-10.257 0,-5.665 7.347,-10.257 16.412,-10.257 9.064,0 16.412,4.592 16.412,10.257"
         id="path190"
         inkscape:connector-curvature="0"
         style="fill:#f9f7f8" />
    </g>
  </g>
</svg>
