<?xml version="1.0" encoding="UTF-8" standalone="no"?>
<!-- Creator: CorelDRAW 2019 (64-Bit) -->

<svg
   xmlns:dc="http://purl.org/dc/elements/1.1/"
   xmlns:cc="http://creativecommons.org/ns#"
   xmlns:rdf="http://www.w3.org/1999/02/22-rdf-syntax-ns#"
   xmlns:svg="http://www.w3.org/2000/svg"
   xmlns="http://www.w3.org/2000/svg"
   xmlns:sodipodi="http://sodipodi.sourceforge.net/DTD/sodipodi-0.dtd"
   xmlns:inkscape="http://www.inkscape.org/namespaces/inkscape"
   xml:space="preserve"
   width="256"
   height="256"
   version="1.1"
   style="clip-rule:evenodd;fill-rule:evenodd;image-rendering:optimizeQuality;shape-rendering:geometricPrecision;text-rendering:geometricPrecision"
   viewBox="0 0 2666.6667 2666.6667"
   id="svg824"
   sodipodi:docname="popsicle.svg"
   inkscape:version="0.92.4 (5da689c313, 2019-01-14)"><title
   id="title1635">Popsicle</title><metadata
   id="metadata828"><rdf:RDF><cc:Work
       rdf:about=""><dc:format>image/svg+xml</dc:format><dc:type
         rdf:resource="http://purl.org/dc/dcmitype/StillImage" /><dc:title>Popsicle</dc:title><cc:license
         rdf:resource="http://creativecommons.org/publicdomain/zero/1.0/" /><dc:source>https://openclipart.org/detail/318127</dc:source><dc:creator><cc:Agent><dc:title>LeAnncifer</dc:title></cc:Agent></dc:creator></cc:Work><cc:License
       rdf:about="http://creativecommons.org/publicdomain/zero/1.0/"><cc:permits
         rdf:resource="http://creativecommons.org/ns#Reproduction" /><cc:permits
         rdf:resource="http://creativecommons.org/ns#Distribution" /><cc:permits
         rdf:resource="http://creativecommons.org/ns#DerivativeWorks" /></cc:License></rdf:RDF></metadata><sodipodi:namedview
   pagecolor="#ffffff"
   bordercolor="#666666"
   borderopacity="1"
   objecttolerance="10"
   gridtolerance="10"
   guidetolerance="10"
   inkscape:pageopacity="0"
   inkscape:pageshadow="2"
   inkscape:window-width="1920"
   inkscape:window-height="1025"
   id="namedview826"
   showgrid="false"
   inkscape:zoom="1.2642212"
   inkscape:cx="13.505637"
   inkscape:cy="74.579921"
   inkscape:window-x="-8"
   inkscape:window-y="-8"
   inkscape:window-maximized="1"
   inkscape:current-layer="svg824"
   units="px"
   fit-margin-top="0"
   fit-margin-left="0"
   fit-margin-right="0"
   fit-margin-bottom="0" />
 <defs
   id="defs20"><style
     type="text/css"
     id="style2">
   <![CDATA[
    .str0 {stroke:#373435;stroke-width:6.94;stroke-miterlimit:2.61313}
    .fil99 {fill:none}
    .fil27 {fill:#0098DA}
    .fil0 {fill:#4A332C}
    .fil5 {fill:#4B342C}
    .fil6 {fill:#4C352D}
    .fil7 {fill:#4D352D}
    .fil8 {fill:#4E352D}
    .fil54 {fill:#4E362E}
    .fil9 {fill:#4F362E}
    .fil55 {fill:#4F372F}
    .fil10 {fill:#50372F}
    .fil56 {fill:#503830}
    .fil11 {fill:#51372F}
    .fil57 {fill:#513931}
    .fil12 {fill:#52372F}
    .fil13 {fill:#533830}
    .fil58 {fill:#533A32}
    .fil14 {fill:#543930}
    .fil59 {fill:#543B33}
    .fil15 {fill:#563931}
    .fil16 {fill:#563A31}
    .fil60 {fill:#563C33}
    .fil17 {fill:#573A32}
    .fil61 {fill:#573D34}
    .fil18 {fill:#583B32}
    .fil62 {fill:#583E35}
    .fil19 {fill:#593B32}
    .fil63 {fill:#594037}
    .fil20 {fill:#5A3C33}
    .fil21 {fill:#5B3C33}
    .fil64 {fill:#5B4137}
    .fil22 {fill:#5C3D33}
    .fil65 {fill:#5C4238}
    .fil66 {fill:#5E433A}
    .fil67 {fill:#5F443B}
    .fil68 {fill:#61453C}
    .fil69 {fill:#62473D}
    .fil70 {fill:#63483E}
    .fil71 {fill:#65493F}
    .fil72 {fill:#664A40}
    .fil73 {fill:#84716B}
    .fil24 {fill:#91D8F7}
    .fil32 {fill:#A8518A}
    .fil33 {fill:#AB5085}
    .fil34 {fill:#AF4F82}
    .fil35 {fill:#B14F7E}
    .fil2 {fill:#B3A488}
    .fil36 {fill:#B54D7A}
    .fil37 {fill:#B74D76}
    .fil38 {fill:#BB4B72}
    .fil39 {fill:#BD4A6E}
    .fil40 {fill:#C0496A}
    .fil41 {fill:#C34866}
    .fil42 {fill:#C64762}
    .fil43 {fill:#CA455E}
    .fil44 {fill:#CD445B}
    .fil45 {fill:#D14257}
    .fil74 {fill:#D2D3D5}
    .fil46 {fill:#D34153}
    .fil47 {fill:#D6404E}
    .fil48 {fill:#DA3D4A}
    .fil49 {fill:#DC3B46}
    .fil50 {fill:#E03941}
    .fil51 {fill:#E3373D}
    .fil75 {fill:#E6E7E8}
    .fil52 {fill:#E9343A}
    .fil25 {fill:#ED3237}
    .fil4 {fill:#F2F0C9}
    .fil76 {fill:#F58634}
    .fil77 {fill:#F58937}
    .fil80 {fill:#F58F42}
    .fil81 {fill:#F59246}
    .fil82 {fill:#F5954B}
    .fil78 {fill:#F68B3A}
    .fil79 {fill:#F68D3E}
    .fil83 {fill:#F6974F}
    .fil84 {fill:#F69A54}
    .fil85 {fill:#F69C59}
    .fil86 {fill:#F69F5E}
    .fil87 {fill:#F6A163}
    .fil88 {fill:#F6A368}
    .fil89 {fill:#F6A66C}
    .fil90 {fill:#F6A971}
    .fil91 {fill:#F6AC75}
    .fil94 {fill:#F6B484}
    .fil95 {fill:#F6B788}
    .fil31 {fill:#F7ADAF}
    .fil92 {fill:#F7AF7A}
    .fil93 {fill:#F7B27F}
    .fil96 {fill:#F7B98D}
    .fil97 {fill:#F7BC93}
    .fil1 {fill:#FEFEFE}
    .fil23 {fill:#4A332C;fill-rule:nonzero}
    .fil53 {fill:#ED3237;fill-rule:nonzero}
    .fil3 {fill:#F2F0C9;fill-rule:nonzero}
    .fil28 {fill:#727376;fill-opacity:0.368627}
    .fil29 {fill:#848688;fill-opacity:0.368627}
    .fil30 {fill:#FEFEFE;fill-opacity:0.368627}
    .fil26 {fill:#606062;fill-opacity:0.501961}
    .fil98 {fill:url(#id3)}
   ]]>
  </style><mask
     id="id1">
  <linearGradient
   id="id2"
   gradientUnits="userSpaceOnUse"
   x1="2126.99"
   y1="3014.96"
   x2="1872.02"
   y2="2274.05">
   <stop
   offset="0"
   style="stop-opacity:1; stop-color:white"
   id="stop7" />
   <stop
   offset="1"
   style="stop-opacity:0; stop-color:white"
   id="stop9" />
  </linearGradient>
         <rect
   style="fill:url(#id2)"
   x="1225.3101"
   y="1848.5"
   width="1631.38"
   height="1585.4301"
   id="rect12" />
        </mask></defs>
 <g
   id="g187"
   transform="matrix(0.61037335,0.61037335,-0.61037335,0.61037335,5018.1859,-6071.1658)">
    <g
   id="g185">
     <path
   class="fil32"
   d="m 1224.58,9151.11 0.11,0.47 c 1.13,4.97 2.31,9.93 3.55,14.85 l 0.04,0.13 c 2.49,9.87 5.22,19.65 8.18,29.33 0.07,0.22 0.13,0.43 0.2,0.65 1.43,4.65 2.91,9.27 4.43,13.87 0.14,0.41 0.28,0.83 0.41,1.24 1.54,4.6 3.13,9.18 4.77,13.73 0.06,0.15 0.11,0.3 0.17,0.45 1.69,4.67 3.43,9.31 5.22,13.93 0.02,0.06 0.04,0.12 0.07,0.19 1.72,4.42 3.5,8.81 5.32,13.18 0.24,0.57 0.47,1.14 0.71,1.71 1.76,4.2 3.57,8.39 5.42,12.55 0.27,0.61 0.55,1.22 0.82,1.84 1.9,4.23 3.83,8.43 5.82,12.61 0.1,0.21 0.2,0.43 0.31,0.64 1.1,2.31 2.21,4.61 3.34,6.9 l 53.18,107.99 c 30.2,61.34 70.13,117.14 117.75,165.35 113.22,114.62 269.92,186.29 442.77,187.34 l 2123.31,12.98 c 49.48,0.3 94.59,-19.67 127.4,-52.08 32.81,-32.41 53.33,-77.27 53.63,-126.76 l 5.48,-897.17 c 0.17,-28.67 -6.46,-55.87 -18.37,-80.07 l -53.18,-107.99 c -0.93,-1.88 -1.89,-3.74 -2.87,-5.59 l -0.02,-0.03 c -8.25,-15.36 -18.66,-29.41 -30.82,-41.72 -32.41,-32.81 -77.28,-53.33 -126.76,-53.63 l -2123.31,-12.98 c -172.84,-1.06 -330.41,68.69 -445.02,181.91 -114.61,113.22 -186.28,269.92 -187.34,442.77 -0.3,48.54 5.01,95.88 15.28,141.4 l -0.01,0.01 z"
   id="path119"
   inkscape:connector-curvature="0"
   style="fill:#a8518a" />
     <path
   class="fil32"
   d="m 2150.99,9643.51 1070.63,6.54 735.69,4.5 c 98.69,0.6 179.93,-79.65 180.53,-178.34 l 5.48,-897.18 c 0.6,-98.69 -79.65,-179.93 -178.34,-180.53 l -735.68,-4.5 -1070.63,-6.54 -317,-1.94 c -345.41,-2.11 -629.75,278.77 -631.86,624.18 v 0 c -2.11,345.41 278.77,629.75 624.18,631.86 l 317,1.94 z"
   id="path121"
   inkscape:connector-curvature="0"
   style="fill:#a8518a" />
     <g
   id="g163">
      <path
   class="fil33"
   d="m 2152.54,9641.67 c 355.83,2.17 711.65,4.35 1067.47,6.52 244.51,1.5 489.01,2.99 733.52,4.48 98.4,0.6 179.4,-79.41 180,-177.81 1.83,-298.18 3.65,-596.36 5.47,-894.54 0.6,-98.4 -79.42,-179.4 -177.81,-180 -244.5,-1.5 -489.01,-2.99 -733.51,-4.49 -355.83,-2.17 -711.65,-4.35 -1067.48,-6.52 -105.35,-0.64 -210.71,-1.29 -316.07,-1.93 -344.39,-2.11 -627.89,277.95 -630,622.34 0,0 0,0 0,0 -2.1,344.39 277.95,627.9 622.34,630 105.36,0.65 210.72,1.29 316.07,1.93 l 0.01,0.02 z"
   id="path123"
   inkscape:connector-curvature="0"
   style="fill:#ab5085" />
      <path
   class="fil34"
   d="m 2154.08,9639.83 c 354.78,2.17 709.55,4.34 1064.32,6.51 243.78,1.49 487.57,2.98 731.35,4.47 98.11,0.6 178.87,-79.18 179.47,-177.29 1.82,-297.3 3.63,-594.6 5.45,-891.89 0.6,-98.11 -79.18,-178.87 -177.29,-179.46 -243.78,-1.49 -487.56,-2.98 -731.35,-4.48 -354.77,-2.17 -709.55,-4.33 -1064.32,-6.5 -105.04,-0.64 -210.09,-1.28 -315.13,-1.93 -343.38,-2.1 -626.04,277.13 -628.14,620.5 0,0 0,0 0,0 -2.1,343.38 277.13,626.04 620.5,628.14 105.05,0.64 210.09,1.28 315.14,1.93 z"
   id="path125"
   inkscape:connector-curvature="0"
   style="fill:#af4f82" />
      <path
   class="fil35"
   d="m 2155.62,9637.99 c 353.72,2.16 707.45,4.32 1061.17,6.48 243.06,1.49 486.12,2.97 729.19,4.46 97.82,0.6 178.34,-78.94 178.94,-176.76 1.81,-296.42 3.63,-592.83 5.44,-889.25 0.59,-97.82 -78.95,-178.34 -176.76,-178.93 -243.06,-1.49 -486.12,-2.98 -729.18,-4.46 -353.72,-2.16 -707.45,-4.33 -1061.17,-6.49 -104.73,-0.64 -209.46,-1.28 -314.2,-1.92 -342.36,-2.09 -624.19,276.31 -626.28,618.67 0,0 0,0 0,0 -2.09,342.36 276.31,624.19 618.67,626.28 104.74,0.64 209.47,1.28 314.2,1.92 z"
   id="path127"
   inkscape:connector-curvature="0"
   style="fill:#b14f7e" />
      <path
   class="fil36"
   d="m 2157.17,9636.15 c 352.68,2.16 705.35,4.31 1058.02,6.47 242.34,1.48 484.68,2.96 727.02,4.44 97.53,0.6 177.81,-78.71 178.41,-176.24 1.81,-295.54 3.61,-591.07 5.42,-886.61 0.6,-97.52 -78.71,-177.8 -176.24,-178.4 -242.33,-1.48 -484.68,-2.96 -727.02,-4.44 -352.67,-2.16 -705.34,-4.31 -1058.02,-6.46 -104.42,-0.64 -208.84,-1.28 -313.26,-1.92 -341.35,-2.08 -622.33,275.49 -624.42,616.83 0,0 0,0 0,0 -2.08,341.34 275.49,622.33 616.83,624.42 104.43,0.64 208.85,1.28 313.27,1.91 z"
   id="path129"
   inkscape:connector-curvature="0"
   style="fill:#b54d7a" />
      <path
   class="fil37"
   d="m 2158.71,9634.31 c 351.63,2.15 703.24,4.3 1054.86,6.45 241.62,1.48 483.24,2.95 724.85,4.43 97.24,0.59 177.28,-78.48 177.87,-175.71 1.8,-294.66 3.6,-589.31 5.4,-883.97 0.59,-97.24 -78.48,-177.28 -175.71,-177.87 -241.61,-1.48 -483.23,-2.96 -724.85,-4.43 -351.62,-2.15 -703.24,-4.3 -1054.87,-6.44 -104.11,-0.64 -208.22,-1.28 -312.33,-1.91 -340.33,-2.08 -620.48,274.67 -622.56,614.99 0,0 0,0 0,0 -2.08,340.33 274.67,620.48 614.99,622.56 104.11,0.64 208.23,1.27 312.33,1.91 z"
   id="path131"
   inkscape:connector-curvature="0"
   style="fill:#b74d76" />
      <path
   class="fil38"
   d="m 2160.26,9632.47 c 350.57,2.14 701.14,4.28 1051.71,6.43 240.89,1.47 481.79,2.94 722.69,4.42 96.94,0.59 176.75,-78.24 177.34,-175.19 1.8,-293.78 3.59,-587.55 5.39,-881.33 0.59,-96.94 -78.24,-176.74 -175.19,-177.34 -240.89,-1.47 -481.78,-2.94 -722.68,-4.42 -350.57,-2.14 -701.14,-4.28 -1051.71,-6.43 -103.8,-0.63 -207.59,-1.27 -311.4,-1.91 -339.31,-2.07 -618.63,273.85 -620.7,613.15 0,0 0,0 0,0 -2.07,339.31 273.84,618.63 613.15,620.7 103.8,0.63 207.61,1.27 311.41,1.91 v 0.01 z"
   id="path133"
   inkscape:connector-curvature="0"
   style="fill:#bb4b72" />
      <path
   class="fil39"
   d="m 2161.8,9630.63 c 349.52,2.14 699.04,4.28 1048.56,6.41 240.17,1.47 480.35,2.94 720.52,4.41 96.65,0.59 176.22,-78 176.81,-174.66 1.79,-292.89 3.58,-585.79 5.37,-878.68 0.59,-96.65 -78.01,-176.22 -174.66,-176.81 -240.17,-1.47 -480.34,-2.94 -720.52,-4.41 -349.52,-2.14 -699.04,-4.28 -1048.56,-6.41 -103.48,-0.63 -206.97,-1.26 -310.46,-1.9 -338.29,-2.07 -616.77,273.02 -618.83,611.31 0,0 0,0 0,0 -2.07,338.29 273.02,616.77 611.31,618.83 103.49,0.63 206.98,1.27 310.47,1.9 z"
   id="path135"
   inkscape:connector-curvature="0"
   style="fill:#bd4a6e" />
      <path
   class="fil40"
   d="m 2163.34,9628.79 c 348.47,2.13 696.94,4.26 1045.4,6.39 239.45,1.46 478.9,2.93 718.35,4.39 96.37,0.59 175.69,-77.77 176.28,-174.14 1.79,-292.02 3.57,-584.03 5.35,-876.04 0.59,-96.37 -77.78,-175.69 -174.14,-176.28 -239.45,-1.46 -478.9,-2.93 -718.35,-4.39 -348.47,-2.13 -696.94,-4.26 -1045.41,-6.39 -103.18,-0.63 -206.35,-1.26 -309.53,-1.89 -337.28,-2.06 -614.92,272.2 -616.98,609.48 0,0 0,0 0,0 -2.06,337.28 272.2,614.91 609.48,616.97 103.18,0.63 206.36,1.26 309.54,1.89 z"
   id="path137"
   inkscape:connector-curvature="0"
   style="fill:#c0496a" />
      <path
   class="fil41"
   d="m 2164.89,9626.95 c 347.42,2.12 694.83,4.24 1042.25,6.37 238.73,1.46 477.46,2.92 716.19,4.38 96.07,0.59 175.16,-77.54 175.75,-173.61 1.78,-291.13 3.56,-582.27 5.34,-873.4 0.59,-96.07 -77.54,-175.16 -173.61,-175.74 -238.72,-1.46 -477.45,-2.92 -716.18,-4.38 -347.42,-2.12 -694.84,-4.25 -1042.26,-6.37 -102.87,-0.63 -205.73,-1.26 -308.6,-1.89 -336.26,-2.06 -613.06,271.38 -615.11,607.64 0,0 0,0 0,0 -2.06,336.26 271.38,613.06 607.64,615.11 102.87,0.63 205.74,1.26 308.6,1.89 z"
   id="path139"
   inkscape:connector-curvature="0"
   style="fill:#c34866" />
      <path
   class="fil42"
   d="m 2166.43,9625.11 c 346.37,2.12 692.73,4.24 1039.1,6.35 238.01,1.45 476.01,2.91 714.02,4.36 95.78,0.59 174.63,-77.3 175.22,-173.08 1.78,-290.26 3.55,-580.51 5.32,-870.76 0.58,-95.78 -77.31,-174.63 -173.09,-175.21 -238,-1.46 -476.01,-2.91 -714.02,-4.37 -346.37,-2.11 -692.73,-4.23 -1039.1,-6.35 -102.55,-0.63 -205.11,-1.25 -307.66,-1.88 -335.24,-2.05 -611.21,270.56 -613.26,605.8 0,0 0,0 0,0 -2.05,335.24 270.56,611.2 605.8,613.25 102.56,0.63 205.11,1.26 307.67,1.88 z"
   id="path141"
   inkscape:connector-curvature="0"
   style="fill:#c64762" />
      <path
   class="fil43"
   d="m 2167.97,9623.27 c 345.32,2.11 690.63,4.22 1035.94,6.33 237.28,1.45 474.57,2.9 711.85,4.35 95.49,0.58 174.1,-77.07 174.68,-172.56 1.77,-289.37 3.54,-578.74 5.31,-868.11 0.59,-95.49 -77.07,-174.09 -172.56,-174.68 -237.28,-1.45 -474.57,-2.9 -711.85,-4.35 -345.31,-2.11 -690.63,-4.22 -1035.95,-6.33 -102.24,-0.63 -204.48,-1.25 -306.73,-1.88 -334.22,-2.04 -609.35,269.74 -611.39,603.96 0,0 0,0 0,0 -2.04,334.22 269.74,609.35 603.96,611.39 102.24,0.62 204.49,1.25 306.73,1.87 v 0.01 z"
   id="path143"
   inkscape:connector-curvature="0"
   style="fill:#ca455e" />
      <path
   class="fil44"
   d="m 2169.52,9621.43 c 344.27,2.11 688.53,4.21 1032.79,6.31 236.56,1.44 473.13,2.89 709.69,4.34 95.2,0.58 173.57,-76.83 174.15,-172.04 1.77,-288.49 3.53,-576.98 5.29,-865.47 0.58,-95.2 -76.83,-173.57 -172.04,-174.15 -236.56,-1.45 -473.12,-2.89 -709.69,-4.34 -344.26,-2.11 -688.53,-4.21 -1032.8,-6.31 -101.93,-0.63 -203.86,-1.25 -305.8,-1.87 -333.21,-2.04 -607.5,268.92 -609.54,602.13 0,0 0,0 0,0 -2.04,333.2 268.92,607.49 602.13,609.53 101.93,0.62 203.87,1.24 305.8,1.87 z"
   id="path145"
   inkscape:connector-curvature="0"
   style="fill:#cd445b" />
      <path
   class="fil45"
   d="m 2171.06,9619.59 c 343.22,2.1 686.43,4.2 1029.64,6.3 235.84,1.44 471.68,2.88 707.52,4.32 94.91,0.58 173.04,-76.6 173.62,-171.51 1.76,-287.61 3.52,-575.22 5.28,-862.83 0.58,-94.91 -76.6,-173.04 -171.51,-173.62 -235.83,-1.44 -471.68,-2.89 -707.52,-4.33 -343.21,-2.1 -686.43,-4.2 -1029.65,-6.29 -101.62,-0.62 -203.24,-1.24 -304.86,-1.87 -332.19,-2.03 -605.64,268.1 -607.67,600.29 0,0 0,0 0,0 -2.03,332.19 268.1,605.64 600.29,607.67 101.62,0.62 203.25,1.24 304.87,1.86 l -0.01,0.02 z"
   id="path147"
   inkscape:connector-curvature="0"
   style="fill:#d14257" />
      <path
   class="fil46"
   d="m 2172.6,9617.75 c 342.17,2.09 684.33,4.18 1026.49,6.28 235.12,1.44 470.24,2.87 705.35,4.31 94.62,0.58 172.51,-76.37 173.09,-170.98 1.76,-286.73 3.51,-573.46 5.26,-860.19 0.58,-94.62 -76.37,-172.51 -170.99,-173.09 -235.11,-1.44 -470.23,-2.88 -705.35,-4.31 -342.16,-2.09 -684.33,-4.18 -1026.49,-6.27 -101.31,-0.62 -202.62,-1.24 -303.93,-1.86 -331.17,-2.02 -603.79,267.28 -605.81,598.45 0,0 0,0 0,0 -2.02,331.17 267.28,603.79 598.45,605.81 101.31,0.62 202.63,1.24 303.93,1.86 z"
   id="path149"
   inkscape:connector-curvature="0"
   style="fill:#d34153" />
      <path
   class="fil47"
   d="m 2174.15,9615.91 c 341.11,2.09 682.23,4.17 1023.33,6.26 234.4,1.43 468.79,2.87 703.19,4.3 94.33,0.58 171.98,-76.13 172.56,-170.46 1.75,-285.85 3.5,-571.7 5.24,-857.54 0.57,-94.33 -76.13,-171.98 -170.46,-172.56 -234.39,-1.44 -468.79,-2.87 -703.19,-4.3 -341.11,-2.09 -682.22,-4.17 -1023.34,-6.26 -101,-0.62 -202,-1.24 -303,-1.85 -330.15,-2.02 -601.93,266.46 -603.95,596.61 0,0 0,0 0,0 -2.02,330.15 266.46,601.93 596.61,603.95 101,0.62 202,1.23 303,1.85 z"
   id="path151"
   inkscape:connector-curvature="0"
   style="fill:#d6404e" />
      <path
   class="fil48"
   d="m 2175.69,9614.07 c 340.06,2.08 680.12,4.16 1020.18,6.24 233.67,1.43 467.35,2.86 701.02,4.28 94.04,0.57 171.45,-75.89 172.02,-169.93 1.74,-284.97 3.49,-569.94 5.23,-854.9 0.57,-94.04 -75.9,-171.45 -169.94,-172.02 -233.67,-1.43 -467.34,-2.86 -701.02,-4.29 -340.06,-2.08 -680.12,-4.16 -1020.19,-6.24 -100.69,-0.61 -201.37,-1.23 -302.06,-1.85 -329.14,-2.01 -600.08,265.64 -602.09,594.77 0,0 0,0 0,0 -2.01,329.14 265.63,600.08 594.77,602.09 100.69,0.61 201.38,1.23 302.07,1.85 z"
   id="path153"
   inkscape:connector-curvature="0"
   style="fill:#da3d4a" />
      <path
   class="fil49"
   d="m 2177.24,9612.23 c 339.01,2.07 678.02,4.14 1017.03,6.22 232.95,1.43 465.9,2.85 698.85,4.27 93.75,0.57 170.92,-75.66 171.49,-169.41 1.74,-284.09 3.48,-568.18 5.21,-852.26 0.57,-93.75 -75.67,-170.92 -169.41,-171.49 -232.95,-1.43 -465.9,-2.85 -698.85,-4.28 -339.01,-2.07 -678.02,-4.15 -1017.03,-6.22 -100.38,-0.61 -200.75,-1.22 -301.13,-1.84 -328.12,-2.01 -598.22,264.81 -600.23,592.93 0,0 0,0 0,0 -2.01,328.12 264.81,598.22 592.93,600.23 100.38,0.61 200.76,1.23 301.13,1.84 z"
   id="path155"
   inkscape:connector-curvature="0"
   style="fill:#dc3b46" />
      <path
   class="fil50"
   d="m 2178.78,9610.39 c 337.96,2.07 675.92,4.13 1013.87,6.2 232.23,1.42 464.46,2.84 696.69,4.26 93.46,0.57 170.39,-75.43 170.96,-168.88 1.73,-283.21 3.46,-566.41 5.19,-849.62 0.57,-93.46 -75.43,-170.39 -168.89,-170.96 -232.22,-1.42 -464.45,-2.84 -696.69,-4.26 -337.96,-2.07 -675.92,-4.13 -1013.88,-6.19 -100.06,-0.61 -200.13,-1.22 -300.19,-1.84 -327.11,-2 -596.37,264 -598.37,591.1 0,0 0,0 0,0 -2,327.1 263.99,596.37 591.09,598.37 100.07,0.61 200.14,1.22 300.2,1.83 z"
   id="path157"
   inkscape:connector-curvature="0"
   style="fill:#e03941" />
      <path
   class="fil51"
   d="m 2180.32,9608.55 c 336.91,2.06 673.82,4.12 1010.72,6.18 231.51,1.42 463.02,2.83 694.52,4.24 93.17,0.57 169.86,-75.19 170.43,-168.36 1.73,-282.33 3.46,-564.65 5.18,-846.98 0.57,-93.17 -75.19,-169.86 -168.36,-170.43 -231.5,-1.42 -463.01,-2.83 -694.52,-4.24 -336.91,-2.06 -673.82,-4.12 -1010.73,-6.18 -99.75,-0.61 -199.5,-1.22 -299.26,-1.83 -326.09,-1.99 -594.52,263.17 -596.51,589.26 0,0 0,0 0,0 -1.99,326.08 263.17,594.51 589.26,596.5 99.76,0.61 199.51,1.22 299.26,1.83 z"
   id="path159"
   inkscape:connector-curvature="0"
   style="fill:#e3373d" />
      <path
   class="fil52"
   d="m 2181.87,9606.71 c 335.86,2.06 671.72,4.11 1007.57,6.16 230.78,1.41 461.57,2.82 692.35,4.23 92.88,0.57 169.33,-74.96 169.9,-167.83 1.72,-281.44 3.44,-562.89 5.16,-844.33 0.57,-92.88 -74.96,-169.33 -167.83,-169.9 -230.78,-1.41 -461.57,-2.82 -692.35,-4.23 -335.85,-2.06 -671.71,-4.11 -1007.57,-6.16 -99.44,-0.61 -198.88,-1.22 -298.33,-1.83 -325.07,-1.98 -592.67,262.35 -594.65,587.42 0,0 0,0 0,0 -1.99,325.07 262.35,592.66 587.42,594.65 99.44,0.61 198.89,1.22 298.33,1.82 z"
   id="path161"
   inkscape:connector-curvature="0"
   style="fill:#e9343a" />
     </g>
     <path
   class="fil25"
   d="m 2183.41,9604.87 1004.42,6.14 690.19,4.22 c 92.59,0.57 168.8,-74.72 169.37,-167.31 l 5.15,-841.69 c 0.57,-92.59 -74.72,-168.8 -167.31,-169.37 l -690.19,-4.22 -1004.42,-6.14 -297.39,-1.82 c -324.05,-1.98 -590.81,261.53 -592.79,585.58 v 0 c -1.98,324.05 261.53,590.8 585.58,592.78 l 297.4,1.82 z"
   id="path165"
   inkscape:connector-curvature="0"
   style="fill:#ed3237" />
     <path
   class="fil53"
   d="m 1212.93,9153.7 0.11,0.47 v 0.05 c 0.41,1.83 1.01,4.36 1.78,7.58 0.47,1.95 1.08,4.45 1.87,7.55 l 0.04,0.13 c 1.46,5.77 2.77,10.75 3.94,14.96 1.32,4.75 2.78,9.73 4.37,14.94 h 0.01 l 0.18,0.6 v 0.05 c 0.7,2.29 1.45,4.66 2.22,7.09 0.75,2.35 1.52,4.7 2.3,7.06 l 0.41,1.24 c 0.81,2.44 1.61,4.78 2.39,7.02 0.88,2.54 1.7,4.87 2.47,6.99 l 0.05,0.05 0.15,0.39 -0.03,0.01 c 0.96,2.66 1.84,5.04 2.62,7.13 1.02,2.73 1.93,5.09 2.69,7.07 l 0.03,-0.01 0.09,0.2 c 1.05,2.7 1.93,4.94 2.67,6.75 0.7,1.75 1.64,4.02 2.74,6.67 l 0.71,1.71 v 0.05 c 1.2,2.87 2.11,5.02 2.72,6.43 0.8,1.85 1.73,3.97 2.79,6.35 l 0.05,0.05 0.82,1.84 c 0.88,1.96 1.85,4.1 2.92,6.42 1.42,3.07 2.43,5.26 2.99,6.43 l 0.05,0.05 0.28,0.58 -0.02,0.01 c 0.52,1.09 -0.06,-0.15 1.7,3.5 l 1.73,3.54 53.17,107.99 c 15.35,31.16 33.14,60.9 53.11,88.95 20.24,28.42 42.61,55.03 66.82,79.54 115.37,116.79 275.06,189.82 451.2,190.9 l 2123.31,12.98 c 25.85,0.16 50.61,-4.89 73.28,-14.16 23.56,-9.63 44.8,-23.79 62.59,-41.37 17.8,-17.58 32.22,-38.65 42.13,-62.08 9.55,-22.56 14.9,-47.26 15.06,-73.11 l 5.48,-897.18 c 0.09,-15.02 -1.58,-29.69 -4.82,-43.83 -3.32,-14.46 -8.33,-28.39 -14.82,-41.57 l -53.17,-107.99 c -0.53,-1.07 -1.03,-2.06 -1.51,-3 -0.6,-1.17 -1.11,-2.13 -1.52,-2.91 l 0.02,-0.01 -0.02,-0.03 -0.05,-0.05 c -4.37,-8.15 -9.33,-15.97 -14.82,-23.4 -5.62,-7.61 -11.64,-14.66 -17.99,-21.09 -17.58,-17.8 -38.65,-32.22 -62.08,-42.13 -22.56,-9.54 -47.26,-14.89 -73.11,-15.05 l -2123.31,-12.98 c -86.33,-0.53 -168.96,16.3 -244.56,47.2 -78.56,32.11 -149.45,79.4 -208.94,138.17 -59.49,58.77 -107.64,129.07 -140.71,207.24 -31.82,75.21 -49.66,157.63 -50.19,243.96 -0.15,24.42 1.11,48.64 3.69,72.57 2.61,24.2 6.61,48.07 11.89,71.5 h 0.03 z m 23.4,-4.76 -0.09,-0.43 c -5.07,-22.49 -8.91,-45.47 -11.44,-68.87 -2.47,-22.85 -3.67,-46.16 -3.52,-69.86 0.51,-83.17 17.66,-162.49 48.26,-234.81 31.81,-75.19 78.18,-142.87 135.52,-199.51 57.34,-56.64 125.59,-102.19 201.15,-133.07 72.69,-29.71 152.22,-45.89 235.39,-45.39 l 2123.31,12.98 c 22.68,0.14 44.28,4.81 63.96,13.13 20.46,8.66 38.91,21.3 54.36,36.94 5.84,5.92 11.15,12.09 15.85,18.46 4.77,6.46 9.1,13.29 12.94,20.43 l -0.02,0.01 0.02,0.03 0.05,0.05 c 0.57,1.06 1.03,1.92 1.37,2.59 0.48,0.93 0.92,1.81 1.32,2.62 l 53.18,107.99 c 5.6,11.37 9.96,23.54 12.89,36.33 2.82,12.31 4.28,25.17 4.2,38.4 l -5.48,897.18 c -0.14,22.68 -4.81,44.28 -13.13,63.96 -8.66,20.46 -21.3,38.91 -36.94,54.36 -15.65,15.45 -34.24,27.87 -54.81,36.28 -19.78,8.08 -41.43,12.48 -64.11,12.35 l -2123.31,-12.98 c -169.54,-1.04 -323.26,-71.35 -434.33,-183.79 -23.57,-23.86 -45.13,-49.46 -64.41,-76.54 -19.28,-27.07 -36.42,-55.71 -51.17,-85.67 l -53.18,-107.99 -1.63,-3.35 c -0.65,-1.35 0.01,0 -1.61,-3.41 l -0.05,-0.04 -0.28,-0.58 0.02,-0.01 c -1.43,-3.01 -2.37,-5.01 -2.9,-6.15 -0.87,-1.88 -1.81,-3.96 -2.83,-6.23 l -0.8,-1.78 0.02,-0.01 c -0.79,-1.77 -1.69,-3.83 -2.7,-6.16 -1.2,-2.77 -2.07,-4.81 -2.63,-6.15 h -0.02 l -0.7,-1.67 c -0.72,-1.72 -1.58,-3.83 -2.65,-6.48 -1.02,-2.53 -1.88,-4.67 -2.54,-6.37 h 0.01 l -0.07,-0.19 v -0.09 c -1.02,-2.63 -1.89,-4.89 -2.6,-6.79 -0.96,-2.56 -1.8,-4.84 -2.53,-6.85 l -0.05,-0.05 -0.15,-0.4 0.03,-0.01 c -0.88,-2.44 -1.67,-4.67 -2.38,-6.71 -0.81,-2.34 -1.57,-4.58 -2.3,-6.74 l -0.41,-1.24 c -0.74,-2.24 -1.48,-4.5 -2.21,-6.78 -0.7,-2.19 -1.41,-4.46 -2.13,-6.81 h -0.01 l -0.19,-0.6 v -0.05 c -1.38,-4.52 -2.77,-9.31 -4.19,-14.38 -1.54,-5.53 -2.83,-10.33 -3.85,-14.4 l -0.04,-0.13 c -0.46,-1.82 -1.06,-4.27 -1.77,-7.27 -0.41,-1.72 -0.97,-4.15 -1.69,-7.3 h -0.01 0.02 z"
   id="path167"
   inkscape:connector-curvature="0"
   style="fill:#ed3237;fill-rule:nonzero" />
     <path
   class="fil31"
   d="m 3877.19,9151.83 c 33.33,27.69 54.54,69.49 54.25,115.93 l -0.37,59.81 c -0.5,82.24 -68.2,149.12 -150.44,148.61 l -1848.18,-11.3 c -46.39,-0.28 -87.9,-21.96 -115.17,-55.56 25.69,21.34 58.57,34.29 94.36,34.51 l 1848.18,11.3 c 82.24,0.5 149.94,-66.37 150.44,-148.61 l 0.37,-59.81 c 0.22,-35.85 -12.37,-68.93 -33.44,-94.89 z"
   id="path169"
   inkscape:connector-curvature="0"
   style="fill:#f7adaf" />
     <path
   class="fil31"
   d="m 3880.7,8577.63 c 33.33,27.69 54.54,69.49 54.25,115.93 l -0.37,59.81 c -0.5,82.24 -68.2,149.12 -150.44,148.62 l -1848.18,-11.3 c -46.4,-0.28 -87.9,-21.96 -115.18,-55.56 25.69,21.33 58.57,34.29 94.37,34.51 l 1848.18,11.3 c 82.24,0.5 149.94,-66.37 150.44,-148.62 l 0.37,-59.81 c 0.22,-35.84 -12.37,-68.93 -33.44,-94.89 z"
   id="path171"
   inkscape:connector-curvature="0"
   style="fill:#f7adaf" />
     <path
   class="fil32"
   d="m 1788.13,9317.34 0.36,-59.81 c 0.5,-82.24 68.2,-149.12 150.44,-148.61 l 1848.18,11.3 c 66,0.41 122.09,44.08 141.42,103.82 -25.49,-45.46 -74.04,-76.49 -129.62,-76.83 l -1848.18,-11.3 c -82.24,-0.5 -149.94,66.37 -150.44,148.61 l -0.37,59.81 c -0.1,16.25 2.44,31.92 7.2,46.63 -12.23,-21.81 -19.16,-46.95 -19,-73.61 z"
   id="path173"
   inkscape:connector-curvature="0"
   style="fill:#a8518a" />
     <path
   class="fil32"
   d="m 1791.63,8743.15 0.37,-59.81 c 0.5,-82.24 68.2,-149.12 150.44,-148.61 l 1848.18,11.3 c 66,0.4 122.09,44.08 141.42,103.81 -25.49,-45.46 -74.04,-76.49 -129.62,-76.83 l -1848.18,-11.3 c -82.24,-0.5 -149.94,66.37 -150.44,148.61 l -0.37,59.81 c -0.1,16.25 2.44,31.92 7.2,46.63 -12.23,-21.81 -19.16,-46.95 -19,-73.62 z"
   id="path175"
   inkscape:connector-curvature="0"
   style="fill:#a8518a" />
     <g
   id="g183">
      <path
   class="fil3"
   d="m 4309.24,8986.21 690.76,4.22 c 17.12,0.11 33.46,3.65 48.38,9.96 15.5,6.56 29.44,16.11 41.09,27.9 5.73,5.8 10.92,12.17 15.48,18.99 4.49,6.74 8.37,13.94 11.53,21.52 l 0.06,0.15 v 0.02 l 0.53,1.3 v 0.02 l 0.52,1.3 0.02,0.02 0.15,0.38 h 0.01 l 0.22,0.58 v 0.03 l 5.37,14.11 c 2.74,7.19 4.84,14.69 6.23,22.42 1.37,7.57 2.06,15.33 2.01,23.21 -0.11,17.11 -3.64,33.46 -9.96,48.38 -6.56,15.5 -16.1,29.44 -27.9,41.09 -11.79,11.65 -25.85,21.02 -41.43,27.39 -15,6.13 -31.38,9.47 -48.5,9.37 l -834.29,-5.1 c -16.08,-0.09 -19.24,-8.67 -24.11,-21.83 l -0.03,-0.08 c -2.73,-2.87 -4.69,-6.43 -6.05,-10.5 -1.37,-4.08 -2.13,-8.68 -2.48,-13.6 -0.24,-1.21 -0.42,-2.45 -0.54,-3.71 -0.13,-1.4 -0.2,-2.75 -0.19,-4.05 l 1.07,-175.02 c 0.01,-1.3 0.09,-2.65 0.24,-4.05 0.14,-1.26 0.33,-2.49 0.58,-3.7 0.6,-7.27 2.12,-13.83 5.14,-19.07 3.19,-5.53 7.93,-9.49 14.83,-11.15 0.91,-0.44 1.94,-0.78 3.16,-1 h 0.02 c 1.3,-0.24 2.78,-0.36 4.56,-0.35 l 143.52,0.88 v -0.04 z m 690.72,12.2 -834.29,-5.1 c -1.32,-0.01 -2.32,0.06 -3.07,0.2 -0.58,0.11 -0.99,0.24 -1.28,0.41 l -1.09,0.41 c -4.75,1.05 -8,3.72 -10.17,7.48 -2.39,4.15 -3.61,9.68 -4.11,15.94 l -0.08,0.53 c -0.23,1.05 -0.4,2.11 -0.52,3.19 -0.11,1 -0.17,2.07 -0.17,3.24 l -1.07,175.03 c -0.01,1.16 0.04,2.24 0.13,3.24 0.11,1.07 0.27,2.14 0.48,3.19 l 0.07,0.53 c 0.3,4.36 0.94,8.38 2.11,11.84 1.08,3.21 2.59,5.93 4.69,7.95 l 0.97,1.49 0.33,0.89 c 3.7,10.02 6.11,16.55 16.69,16.62 l 834.29,5.1 c 16.06,0.1 31.41,-3.02 45.44,-8.76 14.59,-5.96 27.76,-14.75 38.83,-25.69 11.07,-10.94 20.03,-24.01 26.17,-38.52 5.9,-13.96 9.21,-29.27 9.31,-45.33 0.05,-7.47 -0.59,-14.75 -1.86,-21.78 -1.3,-7.24 -3.27,-14.25 -5.83,-20.99 l -5.36,-14.08 h -0.01 l -0.38,-1 h 0.01 l -0.48,-1.2 -0.5,-1.21 v 0 l -0.06,-0.15 c -2.96,-7.08 -6.59,-13.83 -10.83,-20.18 -4.25,-6.38 -9.12,-12.35 -14.51,-17.81 -10.94,-11.07 -24.01,-20.03 -38.52,-26.17 -13.96,-5.91 -29.27,-9.22 -45.33,-9.31 z"
   id="path177"
   inkscape:connector-curvature="0"
   style="fill:#f2f0c9;fill-rule:nonzero" />
      <path
   class="fil2"
   d="m 4309.22,8990.2 690.76,4.22 c 33.83,0.21 64.5,14.24 86.66,36.67 11.07,11.21 20.02,24.52 26.17,39.25 l 0.06,0.15 c 0.35,0.84 0.69,1.69 1.02,2.53 0.05,0.13 0.1,0.26 0.15,0.39 0.07,0.19 0.15,0.39 0.23,0.58 l 5.37,14.11 c 5.24,13.75 8.06,28.66 7.97,44.2 -0.2,33.83 -14.23,64.5 -36.67,86.66 -22.43,22.16 -53.27,35.81 -87.1,35.61 l -834.29,-5.1 c -14.69,-0.09 -16.57,-9.25 -21.77,-22.9 l -5.37,-14.11 c -1.51,-3.97 -2.33,-8.27 -2.3,-12.76 l 1.07,-175.03 c 0.06,-9.76 4.11,-18.62 10.58,-25.01 6.47,-6.39 4.16,-10.4 13.92,-10.34 l 143.52,0.88 z m 808.73,99.08 -0.04,-0.15 c -0.2,-0.86 -0.42,-1.72 -0.65,-2.57 -0.07,-0.26 -0.14,-0.51 -0.2,-0.77 -0.16,-0.59 -0.33,-1.19 -0.5,-1.78 -0.13,-0.44 -0.25,-0.87 -0.38,-1.31 -0.12,-0.41 -0.24,-0.81 -0.37,-1.22 -6.03,-13.29 -14.37,-25.33 -24.5,-35.59 -21.98,-22.25 -52.41,-36.17 -85.96,-36.37 l -834.29,-5.1 c -9.49,-0.06 -6.93,3.84 -13.22,10.06 -6.3,6.22 -10.23,14.82 -10.29,24.31 l -1.07,175.03 c -0.01,1.71 0.11,3.4 0.34,5.06 6.35,9.59 5.81,15.41 17.37,15.48 l 834.29,5.1 c 33.56,0.2 64.14,-13.33 86.39,-35.31 22.25,-21.98 36.17,-52.4 36.37,-85.96 0.06,-9.94 -1.09,-19.62 -3.3,-28.9 h 0.02 z"
   id="path179"
   inkscape:connector-curvature="0"
   style="fill:#b3a488" />
      <path
   class="fil4"
   d="m 4937.96,8990.05 -629.62,-3.85 -143.68,-0.88 c -19.28,-0.11 -23.91,15.9 -24.04,35.5 l -1.09,178.23 c -0.12,19.6 4.33,35.67 23.6,35.79 l 143.68,0.88 629.63,3.85 61.91,0.38 c 67.46,0.41 123,-55.39 123.42,-124.01 v 0 c 0.42,-68.62 -54.43,-125.1 -121.89,-125.51 l -61.91,-0.38 z"
   id="path181"
   inkscape:connector-curvature="0"
   style="fill:#f2f0c9" />
     </g>
    </g>
   </g>
</svg>