<?xml version="1.0" encoding="UTF-8" standalone="no"?>
<svg
   xmlns:dc="http://purl.org/dc/elements/1.1/"
   xmlns:cc="http://creativecommons.org/ns#"
   xmlns:rdf="http://www.w3.org/1999/02/22-rdf-syntax-ns#"
   xmlns:svg="http://www.w3.org/2000/svg"
   xmlns="http://www.w3.org/2000/svg"
   xmlns:sodipodi="http://sodipodi.sourceforge.net/DTD/sodipodi-0.dtd"
   xmlns:inkscape="http://www.inkscape.org/namespaces/inkscape"
   version="1.1"
   id="Layer_1"
   x="0px"
   y="0px"
   viewBox="0 0 256.00001 256"
   enable-background="new 0 0 3000 1500"
   xml:space="preserve"
   sodipodi:docname="sandwich.svg"
   inkscape:version="0.92.4 (5da689c313, 2019-01-14)"
   width="256"
   height="256"><title
   id="title2730">Sandwich</title><metadata
   id="metadata1923"><rdf:RDF><cc:Work
       rdf:about=""><dc:format>image/svg+xml</dc:format><dc:type
         rdf:resource="http://purl.org/dc/dcmitype/StillImage" /><dc:title>Sandwich</dc:title><cc:license
         rdf:resource="http://creativecommons.org/publicdomain/zero/1.0/" /><dc:creator><cc:Agent><dc:title>GDJ</dc:title></cc:Agent></dc:creator><dc:source>https://openclipart.org/detail/306096</dc:source></cc:Work><cc:License
       rdf:about="http://creativecommons.org/publicdomain/zero/1.0/"><cc:permits
         rdf:resource="http://creativecommons.org/ns#Reproduction" /><cc:permits
         rdf:resource="http://creativecommons.org/ns#Distribution" /><cc:permits
         rdf:resource="http://creativecommons.org/ns#DerivativeWorks" /></cc:License></rdf:RDF></metadata><defs
   id="defs1921" /><sodipodi:namedview
   pagecolor="#ffffff"
   bordercolor="#666666"
   borderopacity="1"
   objecttolerance="10"
   gridtolerance="10"
   guidetolerance="10"
   inkscape:pageopacity="0"
   inkscape:pageshadow="2"
   inkscape:window-width="1920"
   inkscape:window-height="1025"
   id="namedview1919"
   showgrid="false"
   inkscape:zoom="0.81066666"
   inkscape:cx="470.85727"
   inkscape:cy="2.186375"
   inkscape:window-x="-8"
   inkscape:window-y="-8"
   inkscape:window-maximized="1"
   inkscape:current-layer="Layer_1"
   fit-margin-top="0"
   fit-margin-left="0"
   fit-margin-right="0"
   fit-margin-bottom="0" />




<g
   id="g712"
   transform="matrix(0.36270472,0,0,0.36270472,13.021341,-11.031588)">
	<path
   d="m 344.094,32.98 c -0.52,-1.75 1.86,-1.72 2.87,-2.23 2.53,4.94 1.32,10.59 2.22,15.86 10.4,0.25 22.26,-0.61 30.8,6.45 8.71,7.14 10.53,18.87 15.6,28.35 1.86,4.28 5.31,7.51 8.44,10.85 -0.42,0.86 -0.83,1.72 -1.25,2.59 -4.38,-1.34 -8.52,-3.35 -12.89,-4.7 -9.94,-3.25 -20.87,-3.63 -30.07,-8.98 -6.22,-3.17 -10.68,-9.44 -11.96,-16.27 -0.17,-1.05 -0.49,-2.08 -1.17,-2.92 -1.6,12.46 -5.18,24.74 -4.92,37.38 4.72,0.39 9.64,-0.79 14.22,0.76 45.05,16.81 89.97,33.98 134.32,52.59 15.37,6.46 30.66,13.13 45.74,20.25 11.22,5.54 22.67,10.84 32.85,18.19 5.63,4.73 10.59,10.41 14.06,16.91 2.02,3.64 1.51,7.93 1.79,11.92 0.56,12.4 0.97,24.88 -0.52,37.24 -0.55,3.4 -1.08,7.04 -3.14,9.91 -1.62,0.99 -3.48,1.5 -5.24,2.19 5.41,7.5 9.82,16.14 9.87,25.59 -0.68,2.99 -1.63,5.98 -3.16,8.66 -2.13,3.01 -5.45,4.99 -8.87,6.21 -2.49,0.89 -5.07,-0.27 -7.54,-0.67 -9.04,13.09 -23.87,20.13 -38.11,26.06 2.1,21.41 -1.85,44.11 -14.74,61.74 12.55,11.25 22.19,25.26 31.97,38.88 6.24,8.78 12.03,17.88 18.17,26.73 8.46,14.29 17.51,28.26 24.92,43.14 1.74,3.56 4.25,7.17 3.51,11.35 -0.74,4.68 -0.57,9.78 -2.95,14.01 -9.37,-2.51 -18.25,-6.55 -27.53,-9.35 -2.2,-0.95 -4.19,0.96 -6.16,1.65 0.1,11.47 1.29,23.16 -1.43,34.45 -1.98,8.5 -5.39,17.06 -11.88,23.15 -4.8,4.41 -10.59,7.53 -16.11,10.93 15.61,4.05 31.66,7.6 45.92,15.42 4.04,2.3 8.67,5.26 9.67,10.16 0.93,14.77 1.65,29.64 0.67,44.43 -3.31,4.97 -9.59,6.49 -14.91,8.36 -10.02,3.54 -20.45,5.62 -30.75,8.15 -9.15,2.17 -18.41,3.92 -27.66,5.51 -1.08,-0.13 -2.04,0.16 -2.87,0.86 l -0.97,0.1 c -1.35,-0.06 -2.67,0.21 -3.89,0.76 -0.53,0.08 -1.6,0.24 -2.14,0.32 -1.3,-0.1 -2.57,0.14 -3.75,0.65 -15.56,2.62 -31.04,6.01 -46.76,7.67 -19.03,1.28 -38.04,2.91 -56.99,5.04 -15.36,1.17 -30.58,3.62 -45.79,6.01 -11.52,1.45 -22.88,4.08 -34.07,7.1 -3.04,3.66 -5.54,7.83 -9.26,10.87 -10.8,9.1 -25.34,12.77 -39.24,12.7 -11.35,0.07 -22.92,-0.04 -33.94,-3 -14.3,-5.48 -27.23,-13.87 -40.25,-21.79 -27.67,-17.5 -54.46,-36.47 -79.87,-57.1 -4.83,-5.14 -10.79,-9.35 -14.4,-15.52 -3.49,-5.86 -4.54,-12.72 -5.63,-19.33 -1.79,-14.59 -0.62,-29.31 0.85,-43.87 -2.61,-1.65 -5.51,-3.26 -6.96,-6.12 -2.28,-4.39 -2.06,-9.99 0.52,-14.21 0.74,-0.87 1.34,-1.84 1.75,-2.9 1.73,-2.53 4.26,-4.34 6.57,-6.29 -1.05,-2.84 -2.46,-5.72 -2.24,-8.82 0.24,-3 1.31,-5.83 2.18,-8.67 -9.24,-5.26 -18.3,-12.02 -23.27,-21.66 -2.34,-5.35 -3.6,-11.19 -4.22,-16.97 0.01,-1.45 -0.03,-2.89 -0.16,-4.32 -0.43,-5.22 0.88,-10.33 2.35,-15.28 -9.14,-9.11 -18.92,-20.35 -18.09,-34.13 0.58,-15.07 6.89,-29.18 13.29,-42.58 4.48,-8.36 8.79,-16.92 14.56,-24.49 2.58,0.74 5.15,1.51 7.75,2.19 2.53,-12.89 13.23,-22.2 24.53,-27.75 1.13,-0.91 3.56,-1.02 3.35,-2.88 -9.9,-4.03 -19.56,-8.74 -28.55,-14.54 -2.33,-1.63 -5.15,-3.27 -5.65,-6.33 -1.93,-8.09 -3.12,-16.38 -3.99,-24.64 -0.21,-8.29 7.5,-13.47 13.95,-17.05 -8.04,-7.33 -17.36,-13.05 -26.51,-18.85 -9.76,-6.4 -16.35,-17.01 -18.25,-28.47 -2.32,-14.65 1.67,-29.36 7,-42.91 1.33,-3.3 3.31,-6.31 4.43,-9.7 0.54,-4.78 -1.34,-9.46 -1.05,-14.25 0.14,-1.91 -0.1,-3.81 -0.66,-5.64 -0.41,-1.6 -0.71,-3.24 -0.71,-4.9 0.03,-7.44 0.07,-14.88 1.01,-22.27 1.03,-9.38 3.68,-18.96 9.99,-26.21 3.96,-4.35 9.62,-6.37 15.18,-7.73 12.06,-3.57 25.26,-4.34 37.28,-0.21 7.9,2.35 14.88,7.05 20.79,12.72 5.57,-1.24 11.21,-2.08 16.89,-2.62 20.36,-1.97 40.8,-2.9 61.23,-3.5 24.91,-1.32 49.84,-1.75 74.76,-2.64 6.8,-12.57 15.19,-24.41 25.88,-33.99 6.79,-6.34 14.26,-11.92 22.13,-16.84 2.64,-1.67 5.64,-2.89 7.83,-5.17 0.52,-3.92 -0.16,-7.85 -0.57,-11.75 m -50.33,67.41 c 14.64,0.23 29.27,-0.75 43.92,-0.75 -0.09,-9.37 1.88,-18.55 3.36,-27.75 0.79,-7.16 2.56,-14.19 2.97,-21.4 -20.85,11.59 -39.16,28.6 -50.25,49.9 m 58.88,-49.54 c 4.08,7.54 12.72,10.44 19.25,15.31 1.48,0.77 1.04,2.47 1.14,3.83 -1.59,-0.32 -3.21,-0.61 -4.62,-1.41 -6.47,-3.61 -12.62,-7.78 -18.08,-12.79 0.63,8.04 2.99,17.06 10.51,21.35 10.13,5.65 21.97,6.53 32.95,9.75 -4.96,-8.64 -7.11,-18.68 -12.77,-26.91 -6.35,-8.86 -18.41,-9.78 -28.38,-9.13 m -280.53,52.29 c -7.72,2.6 -12.65,11.86 -9.91,19.67 2.01,5.74 5.9,10.6 9.74,15.23 11.7,13.3 25.03,25.05 38.29,36.75 2.19,1.92 4.45,3.77 6.94,5.29 3.05,3.76 7.49,6.38 11.17,9.6 16.15,12.79 32.93,24.83 50.74,35.22 14.78,8.31 30.36,16.15 47.34,18.53 15.23,1.89 32.14,2.33 45.43,-6.59 4.17,-2.45 6.24,-8.09 11.48,-8.62 7.78,-1.48 15.67,-2.48 23.59,-2.88 49.94,-3.79 100.03,-4.62 150.09,-5.59 28.74,-0.51 57.49,-0.31 86.24,-0.69 8.27,0.09 16.55,-0.16 24.83,-0.29 3.75,-0.25 7.83,-0.45 11.06,-2.61 2.3,-2.29 0.77,-6.23 -1.38,-8.1 1.34,-1.21 -0.71,-3.79 -2.16,-2.67 -0.22,-0.31 -0.66,-0.91 -0.88,-1.21 1.42,-1.13 -0.46,-3.86 -1.98,-2.79 -2.46,-4.47 -6.73,-7.5 -10.91,-10.22 -8.18,-5.07 -16.82,-9.32 -25.45,-13.57 -7.86,-3.56 -15.5,-7.66 -23.66,-10.5 -1.17,-1.3 -3.03,-1.65 -4.54,-2.38 -48.01,-20.74 -96.8,-39.58 -145.77,-57.89 -3.98,-1.53 -7.96,-3.66 -12.37,-3.34 -2.59,0.52 -6.26,-1.11 -8.14,1.07 9.62,0.34 19.79,1.05 28.13,6.37 6.74,4.78 10.24,12.73 12.27,20.49 2.93,11.71 1.29,24.97 -6.36,34.59 -1.97,2.59 -4.78,4.41 -6.76,6.96 -3.32,1.36 -6.35,3.36 -9.82,4.36 -10.47,3.59 -22.01,2.91 -32.47,-0.37 -3.91,-1.14 -6.92,-4.01 -10.43,-5.93 -3.79,7.91 -10.27,14.75 -18.57,17.87 -10.22,3.47 -21.45,3.72 -31.89,1.08 -9.91,-2.08 -18.89,-7.94 -24.88,-16.08 -5.8,-9.82 -6.77,-21.96 -4.27,-32.94 1.84,-9.71 7.62,-18.8 16.16,-23.93 9.4,-5.23 20.54,-5.86 31.04,-4.79 1.1,-2.4 2.1,-4.84 2.9,-7.36 -43.69,0.91 -87.4,2.66 -131.01,5.67 -7.08,0.74 -14.27,1.25 -21.05,3.55 -6.62,-6.68 -14.63,-12.25 -23.91,-14.38 -12.81,-3.76 -26.65,-1.33 -38.87,3.42 m 219.59,1.52 c -1.4,2.93 -2.76,5.9 -3.74,9 7.29,2.32 13.89,6.39 19.34,11.74 3.93,-9.97 12.76,-16.74 22.07,-21.4 -12.55,-0.29 -25.12,0.39 -37.67,0.66 m 24.09,14.32 c -2.65,3.51 -6.57,8.46 -3.54,12.85 6.85,10.11 9.17,23.08 5.97,34.91 2.31,2.18 4.92,4.02 7.76,5.44 12.86,5.38 28.63,5.1 40.41,-2.82 6.4,-4.61 11.29,-11.62 12.36,-19.54 1.86,-11.52 -0.33,-24.35 -8.27,-33.26 -7.35,-7.13 -18.3,-7.37 -27.9,-7.72 0.49,3.92 1.87,7.63 3.75,11.09 4.6,0.01 7.91,-4.11 12.44,-3.94 0.01,0.7 0.01,2.09 0.01,2.79 -7.14,5.96 -18.24,7.33 -26.52,3 -1.9,-0.9 -4.59,-3.98 -1.92,-5.55 1.98,-0.15 3.36,1.58 4.99,2.42 1.87,1.33 4.24,1.35 6.43,1.67 -1.48,-4.06 -2.57,-8.24 -3.77,-12.38 -8.98,-1.27 -16.52,4.86 -22.2,11.04 m -64.56,4.25 c -7.45,6.37 -10.83,16.27 -11.61,25.8 -0.76,10.42 2.11,21.99 10.55,28.81 4.11,3.28 8.93,6.52 14.25,6.99 3.23,1.87 6.98,2.44 10.65,2.75 8.32,0.64 17.08,0 24.58,-3.97 13.77,-7.35 19.68,-25.73 13.86,-40.02 -1.41,-3.41 -2.37,-7.28 -5.23,-9.81 -4.31,-8.16 -12.92,-13.28 -21.42,-16.31 -2.4,6.27 -4.18,12.84 -4.91,19.52 3.76,0.19 7.01,-2.35 10.75,-2.02 0.01,0.71 0.02,2.12 0.03,2.82 -4.22,3.52 -10.4,3.79 -15.36,1.85 -4.89,-2.49 -9.15,-6.71 -10.91,-11.98 -0.67,-1.43 0.96,-2.69 2.3,-2.46 3.1,3.21 4.66,8.01 9.05,9.86 1.54,-6.3 3.03,-12.61 4.55,-18.91 -4.48,-0.13 -8.98,-0.23 -13.45,0.08 -6.43,0.41 -12.66,2.98 -17.68,7 m -194.21,42.82 c 0.82,4.49 0.13,9.82 3.62,13.32 18.61,19.7 37.28,39.43 57.46,57.56 3.75,3.91 7.96,7.34 11.94,11.02 17.12,15.1 34.74,29.8 54.15,41.89 8.34,5.08 17.06,9.7 26.45,12.49 9.2,2.6 18.88,2.37 28.34,2.01 14.87,-1.32 29.66,-8.52 38.4,-20.88 0.65,-1.16 1.79,-2.27 1.67,-3.7 2.59,-1.2 5.46,-1.32 8.26,-1.4 37.2,-0.65 74.39,-1.94 111.57,-3.05 22.36,-1.16 44.76,-1.15 67.12,-2.42 27.38,-1.14 54.75,-2.56 82.07,-4.68 10.18,-0.53 20.43,-1.41 30.34,-3.89 2.46,-6.12 1.9,-12.84 2.34,-19.28 0.56,-8.26 0.03,-16.53 -0.1,-24.79 -3.75,1.27 -7.6,2.33 -11.57,2.43 -8.89,0.3 -17.78,0.25 -26.67,0.29 -48.81,0.49 -97.63,0.86 -146.42,2.31 -16.77,0.02 -33.52,0.88 -50.28,1.55 -21.5,1.27 -43.14,2.07 -64.39,5.84 0.06,0.3 0.17,0.91 0.23,1.21 -2.52,2.04 -4.88,4.27 -7.47,6.23 l -0.06,0.81 c -3.37,1.24 -6.52,2.99 -9.9,4.2 -8.02,2.98 -16.67,3.84 -25.18,3.58 -18.18,-0.54 -35.86,-6.21 -51.77,-14.84 -24.11,-12.43 -45.88,-28.79 -67.15,-45.5 -15.74,-13.31 -31.43,-26.76 -45.67,-41.71 -6.32,-6.74 -12.75,-13.82 -16.02,-22.61 -3.8,13.63 -2.57,28.09 -1.31,42.01 m 3.01,18.76 c -1.71,3.13 -3.14,6.41 -4.25,9.81 -2.77,9.42 -3.78,19.91 -0.48,29.33 l -0.53,0.75 0.38,1.02 0.88,0.22 c 0.68,5.71 4.55,10.34 8.29,14.43 0.08,0.09 0.23,0.26 0.3,0.35 4.16,5.63 10.73,8.49 16.32,12.39 16.69,10.76 33.52,22.44 44.97,39 17.15,26.16 28.97,56.15 32.19,87.37 11.68,-1.12 22.92,-4.62 33.99,-8.35 45.39,-16.38 89.4,-36.31 132.97,-56.98 16.56,-8.05 33.35,-15.69 49.56,-24.41 6.46,-2.73 13.03,-5.73 18.81,-9.78 -8.14,-0.53 -16.29,0.46 -24.44,0.27 -28.76,0.77 -57.51,1.57 -86.27,2.39 -7.05,11.82 -19.12,20.26 -32.39,23.63 -16,4.28 -33.41,3.1 -48.85,-2.82 -18.05,-7.76 -33.98,-19.53 -49.39,-31.55 -33.07,-26.39 -62.86,-56.55 -92.06,-87.07 m -13.41,29.64 c -1.25,10.97 0.08,22.96 6.91,32.01 5.83,8.46 15.66,12.41 23.67,18.33 12.21,8.56 23.56,18.42 33.2,29.81 6.93,8.15 12.93,17.23 16.79,27.25 3.39,8.77 2.65,18.32 4.33,27.44 2.44,15.7 5.95,31.97 15.26,45.17 2.49,-4.72 6.33,-9.12 7.15,-14.46 -2.7,-29.39 -13.71,-57.63 -29.36,-82.5 -12.78,-20.54 -34,-33.35 -53.83,-46.17 -13.54,-8.05 -21.73,-23.71 -21.62,-39.35 -0.19,-5.07 0.92,-10.04 1.59,-15.03 -2.43,5.53 -3.2,11.58 -4.09,17.5 m 508.67,57.58 c -9.11,0.29 -18.17,1.43 -27.29,1.65 0.95,1.15 2.48,1.36 3.89,1.45 16.68,4.49 33,10.11 49.23,15.98 -0.64,-8.07 -5.12,-15.07 -10.27,-21.05 -5.19,0.61 -10.38,1.3 -15.56,1.97 m -68.26,3.83 c -5.35,0.54 -10.89,-0.05 -16.06,1.64 4.42,1.3 8.96,2.05 13.47,2.96 28.59,6.68 56.29,16.5 84.39,24.87 3,1.38 6,-0.36 8.51,-1.95 2.73,-1.65 3,-5.13 3.55,-7.96 -20.96,-7.69 -42.11,-15.25 -64.11,-19.37 -9.83,-1.97 -19.85,-0.39 -29.75,-0.19 m -68.43,6.8 c -4.59,4.31 -10,7.6 -14.75,11.72 -9.32,5.43 -18.19,11.72 -27.81,16.68 -15.66,8.69 -31.84,16.37 -48.11,23.81 -3.59,1.51 -7.33,2.8 -10.5,5.14 4.84,0.57 9.72,0.34 14.58,0.4 23.37,0.09 46.74,-0.42 70.07,-1.82 37.91,-2.71 76.19,-6.29 112.56,-17.93 11.55,-4.35 24.03,-8.4 32.82,-17.49 -10.33,-3.9 -21.06,-6.66 -31.56,-10.06 -9.29,-2.3 -18.27,-5.98 -27.78,-7.25 -12.85,-4.11 -26.37,-5.7 -39.72,-7.35 -7.45,-1 -14.97,-0.22 -22.44,-0.11 -3.18,-0.35 -5.17,2.47 -7.36,4.26 m -16.9,-1.96 c -18.88,9.99 -38.14,19.25 -57.29,28.69 -50.85,24.28 -102,48.22 -155.19,67 -10.34,3.1 -20.74,6.39 -31.56,7.32 -2.14,3.67 -4.41,7.28 -5.97,11.24 32.8,-9.95 65.37,-20.73 97.44,-32.83 41.68,-15.17 82.88,-32.05 122.05,-52.95 15.72,-8.9 31.67,-17.9 45.14,-30.06 -4.86,0.36 -10.12,-0.68 -14.62,1.59 m -321.57,7.46 c -2.91,3.17 -3.59,8.75 0.1,11.63 7.94,7.25 17.78,11.97 27.33,16.7 5.14,2.24 10.02,5.14 15.45,6.65 -1.04,-3.43 -2.45,-6.75 -4.3,-9.83 -7.2,-12.34 -16.77,-23.3 -27.72,-32.45 -4,1.78 -7.85,4.09 -10.86,7.3 m 472.12,16.28 c -11.85,12.17 -28.58,17.51 -44.35,22.54 -13.82,3.74 -27.8,7.03 -42.01,8.91 -25.63,4.48 -51.64,5.89 -77.57,7.43 -24.42,0.97 -48.87,1.3 -73.3,0.91 -3.89,-0.04 -7.99,-0.61 -11.62,1.16 -5.86,2.53 -11.97,4.51 -17.58,7.59 11.37,0.67 22.78,0.21 34.17,0.2 45.08,-0.2 90.08,-3.35 135,-6.95 14.04,-1.42 27.98,-3.67 41.83,-6.37 17.89,-4.24 36.01,-9.33 51.59,-19.43 5.1,-3.58 10.5,-7.36 13.5,-12.99 -3.19,-1.12 -6.41,-2.13 -9.66,-3 m -473.32,0.2 c 0.43,4.72 1.03,9.47 2.47,14 0.71,2.12 2.92,3.14 4.63,4.35 9.58,5.87 19.57,11.32 30.35,14.62 3.16,1.18 6.4,-0.1 9.46,-0.92 0.13,-3.28 0.37,-7.76 -3.48,-9.03 -15.01,-6.6 -30,-13.5 -43.43,-23.02 m 416,39.77 c 5.35,0.5 11.04,1 15.65,4.03 3.42,2.17 3.13,7.81 -0.46,9.67 -7.48,4.26 -16.57,4.84 -24.94,3.6 -4.26,-0.98 -9.63,-1.84 -11.83,-6.12 -1.57,-3.07 1.36,-5.65 2.91,-7.98 -22.75,3.12 -45.67,4.93 -68.6,6.05 -28.77,2.01 -57.59,3.09 -86.42,3.66 2.06,13.29 1.96,27.12 -1.96,40.07 -0.31,1.34 -1.15,2.96 0.18,4.07 12.95,14.8 31.23,23.94 49.92,29.2 21.14,5.33 43.35,5.9 64.84,2.46 15.23,-2.01 30.4,-5.82 44.24,-12.61 13.38,-6.37 25.25,-16.15 33.41,-28.59 10.39,-16.24 14.38,-36.21 12.12,-55.28 -9.54,3.13 -19.31,5.41 -29.06,7.77 m -377.47,-0.94 c -11.14,4.83 -23.03,11.39 -27.98,23.13 -4.6,10.32 -0.87,22.07 4.63,31.25 9.33,16.23 25.09,27.86 42.15,34.98 12.07,5.3 24.99,8.37 37.93,10.7 20.28,2.8 40.9,3.43 61.27,1.14 13.35,-0.89 26.42,-4.11 39.21,-7.9 12.99,-4.13 25.27,-11.66 32.89,-23.21 10.86,-16.35 12.7,-37.29 9.3,-56.23 -13.3,0.14 -26.6,0.15 -39.91,-0.06 -3.5,-0.15 -6.72,1.41 -9.95,2.52 8,-0.92 16.69,-1.87 24.08,2.09 3,1.54 6.07,4.96 4.41,8.52 -2.52,4.4 -7.7,6.35 -12.48,6.99 -8.65,0.94 -18.37,1.02 -25.36,-4.97 -0.29,-1.72 -1.09,-3.48 -0.65,-5.22 0.81,-1.62 1.97,-3.01 2.99,-4.49 -33.96,12.28 -68.01,24.33 -102.59,34.76 -2.48,0.79 -5.12,1.25 -7.34,2.67 3.55,0.99 7.61,1.62 10,4.77 2.22,2.09 2.03,5.31 2.2,8.11 1.68,-0.07 3.37,-0.13 5.06,-0.19 3.35,0.86 7.59,0.96 9.57,4.3 2,2.84 0.04,6.66 -2.84,7.97 -4.94,2.32 -10.78,2.33 -15.98,0.92 -2.94,-0.67 -4.71,-3.25 -6.27,-5.59 -7.37,1 -16.76,1.09 -21.47,-5.76 -2.34,-2.88 -0.86,-6.56 0.39,-9.54 4.04,-3.39 9.13,-4.95 14.3,-5.5 -11.92,-17.15 -16.69,-38.19 -18.51,-58.71 -3.15,0.3 -6.13,1.4 -9.05,2.55 m 359.1,9.72 c 1.8,3.06 5.54,3.86 8.76,4.54 6.81,1.08 14.11,0.88 20.52,-1.88 1.27,-0.85 3.73,-1.57 2.89,-3.53 -3.23,-2.77 -7.65,-3.4 -11.74,-3.8 -7.01,-0.4 -14.69,0.17 -20.43,4.67 m -214.16,13.28 c -1.9,1.11 -1.13,3.07 -0.56,4.73 l 0.73,-0.31 c 7.88,4.18 17.7,3.87 25.85,0.64 1.62,-0.72 4.32,-2.03 3.3,-4.2 -2.78,-2.76 -6.93,-3.51 -10.65,-4.04 -6.33,-0.46 -13.08,-0.09 -18.67,3.18 m -189.67,17.25 c -6.1,13.98 -11.78,28.84 -11.47,44.32 1.31,12.81 10.04,23.18 18.41,32.31 12.51,12.89 26.63,24.04 40.13,35.85 1.8,3.34 4.79,6.02 7.47,8.7 l -0.49,0.78 0.42,0.99 0.89,0.17 c 0.69,1.96 2.12,3.54 3.35,5.19 10.55,17.47 19.14,36.06 26.24,55.18 3.86,11.49 8.25,23.14 8.24,35.44 7.92,-1 15.17,-4.62 22.75,-6.9 17.32,-6.46 34.47,-13.35 51.49,-20.56 36.72,-15.3 73.06,-31.5 109.12,-48.3 18.74,-8.88 37.53,-17.78 55.72,-27.73 12.48,-5.12 22.75,-15.08 36.24,-17.88 18.98,-3.77 38.56,-2.1 57.52,0.83 29.73,5.4 58.98,13.93 86.51,26.47 -9.23,-18.48 -20.41,-35.91 -31.59,-53.26 -10.88,-16.16 -21.78,-32.42 -34.72,-47.03 -2.44,-2.87 -5.12,-5.53 -7.99,-7.95 -1.96,1.93 -3.75,4.02 -5.59,6.05 -11.04,11.22 -25.22,18.88 -40.03,23.88 -19.51,6.18 -39.98,9.07 -60.42,8.99 3.33,18.11 3.36,38.93 -8.67,54.02 -4.62,5.54 -9.69,11.94 -17.26,13.19 -6.38,0.77 -12.18,-2.73 -18.31,-3.81 0.51,3.57 1.5,7.82 -1.37,10.72 -3.99,3.7 -10,4.52 -15.19,3.51 -4.75,-1.51 -7.08,-6.54 -11.33,-8.84 -3.55,-1.33 -7.18,0.69 -9.91,2.85 -7.41,5.9 -13.13,14.1 -21.95,18.08 -4.34,2.03 -9.39,1.76 -13.73,-0.1 -3.16,-1.61 -4.8,-4.95 -6.44,-7.91 -6.18,4.74 -13.53,7.75 -21.02,9.72 -7.23,2.04 -15.17,2.66 -22.33,-0.01 -9.42,-3.02 -15.83,-11.81 -18.66,-20.96 -6.07,2.61 -11.58,6.58 -18.16,7.95 -11.19,3.34 -24.39,3.86 -34.05,-3.74 -2.82,-3.01 -5.34,-6.28 -7.57,-9.75 -0.74,-2.19 -1.46,-4.39 -2.15,-6.59 -5.85,2.03 -11.06,5.8 -17.28,6.75 -7.85,1.58 -15.66,-3.11 -19.97,-9.46 -1.57,-5.31 -0.71,-10.84 1.48,-15.83 -4.94,-3.47 -9.97,-7.9 -11.06,-14.16 -0.97,-5.38 1.8,-10.39 4.71,-14.68 -5.84,-4.31 -10.43,-10.83 -11.12,-18.18 -0.5,-4.34 1.41,-8.42 3.47,-12.1 -8.99,-8.33 -16.7,-18.26 -21.2,-29.75 -1.75,-4.81 -2.25,-9.94 -2.71,-15 -1.77,-0.51 -3.52,-1.07 -5.27,-1.65 -1.9,3.3 -3.7,6.66 -5.15,10.19 m 61.37,24.65 -0.63,-0.35 c 0.09,1.83 -0.75,4.21 0.99,5.53 6.44,4.92 16.36,4.72 22.61,-0.44 1.61,-1.28 0.99,-3.38 0.68,-5.07 -6.36,-5.74 -17.71,-6.15 -23.65,0.33 m 173.33,12.09 c -3.58,4.43 -8.13,7.87 -12.47,11.49 -2.25,1.03 -4.62,1.93 -6.48,3.61 -0.93,2.38 -1.18,4.95 -1.56,7.46 -2.01,16.61 -4.63,33.21 -4.78,49.98 -0.09,9.5 -0.11,19.38 3.52,28.34 1.95,5.32 9.11,6.23 13.66,3.9 9.39,-4.38 15.11,-13.63 23.55,-19.32 3.3,-2.31 7.45,-2.2 11.29,-2.17 3.58,2.37 6.12,5.93 9.57,8.43 4.22,2.22 9.97,0.86 13.33,-2.34 0.57,-3.53 -1.07,-7.13 -0.05,-10.68 6.11,-1.59 11.69,1.79 17.42,3.26 3.37,0.95 6.87,-0.31 9.55,-2.38 10.65,-8.07 17.55,-20.78 18.55,-34.12 0.45,-8.9 0.33,-17.92 -1.77,-26.63 -7.51,-0.89 -15.12,-0.88 -22.53,-2.47 -10.63,-2.21 -21.16,-5.29 -30.94,-10.06 -11.37,-5.15 -21.33,-12.82 -30.32,-21.38 -3.03,5.11 -5.58,10.59 -9.54,15.08 m -253.94,6.13 c -1.18,5.92 -1.84,12.16 -0.18,18.06 1.42,5.55 5,10.17 8.42,14.64 14.08,16.83 33.67,27.57 49.5,42.5 6.85,6.14 11.12,14.42 15.54,22.33 13.6,26.64 24.57,54.82 30.59,84.17 2.75,-2.6 5.36,-6.04 4.46,-10.07 -1.75,-13.39 -6.67,-26.08 -11.37,-38.65 -7.87,-18.91 -16.54,-37.73 -28.71,-54.3 -4.81,-6.81 -11.46,-11.91 -17.71,-17.29 -9.15,-7.81 -18.36,-15.61 -26.69,-24.31 -8.36,-8.75 -16.54,-18.6 -19.33,-30.67 -2.04,-8.67 0.3,-17.46 1.83,-26 -2.89,6.24 -5.14,12.81 -6.35,19.59 m 102.76,-6.57 c 2.72,2.93 6.99,3.27 10.73,2.91 2.65,-0.31 5.72,-1.05 6.98,-3.68 -5.29,-3.22 -12.96,-3.67 -17.71,0.77 m -46.18,2.6 c -6.9,11.19 3.14,26.1 15.26,27.27 6.39,3.59 14.44,3.22 20.81,7.03 2.52,1.56 4.41,5.07 7.85,4.14 8.51,-1.75 15.9,-7.04 22.01,-13.05 -10.76,-2.36 -21.77,-3.92 -32.11,-7.93 -9.98,-3.23 -19.34,-8.05 -28.22,-13.6 -1.68,-1.54 -3.59,-2.8 -5.6,-3.86 m 151.69,22.21 c -10.95,14.44 -22.99,28.22 -31.78,44.17 -3.52,6.1 -6.79,12.76 -6.91,19.94 2.24,9.79 10.76,18.18 20.91,19.31 8.18,1.07 16.24,-1.48 23.74,-4.5 4.37,-1.6 9.03,-3.62 11.36,-7.93 0.37,-3.91 -0.9,-7.81 -0.82,-11.74 -0.67,-22.19 2.07,-44.31 5.39,-66.21 -7.24,2.52 -14.55,4.81 -21.89,6.96 m -15.76,3.05 c -8.7,0.52 -17.33,1.91 -26.05,2.09 -2.77,0.1 -5.53,0.23 -8.28,0.46 -0.91,1.76 -1.89,3.52 -3.32,4.91 -15,14.51 -30.75,28.39 -48.26,39.83 0.54,1.44 1.09,2.87 1.67,4.3 2.93,8.31 10.31,15.34 19.26,16.36 10.25,1.01 20.52,-1.94 29.58,-6.58 3.26,-2.08 8,-3.26 9.16,-7.42 1.82,-5.53 4.41,-10.76 7.23,-15.83 8.33,-14.22 18.43,-27.3 28.89,-39.99 -3.28,0.5 -6.88,0.36 -9.88,1.87 m -67.18,0.42 c -1.1,3.7 -4,6.38 -5.73,9.75 -4.97,9.71 -14.07,16.68 -23.71,21.37 -6.12,2.96 -12.95,3.28 -19.62,3.5 l -0.09,-0.92 c -1.77,-0.33 -3.53,-0.64 -5.31,-0.91 -1.24,3.9 -2.79,8.39 -0.67,12.29 3.57,6.3 12.18,8.62 18.71,5.83 5.36,-1.3 10.05,-4.33 14.79,-7.03 14.17,-9.16 27.14,-20.04 39.6,-31.38 3.54,-3.39 7.39,-6.5 10.43,-10.37 -9.49,-0.38 -18.97,-0.95 -28.4,-2.13 m -60.65,3.96 c -3.49,4.44 -5.73,10.9 -2.55,16.12 3.5,5.11 9.2,9.16 15.5,9.61 l 0.38,0.62 c 4.78,0.38 9.64,-0.14 14.08,-2.05 7.71,-3.12 15.14,-7.92 19.92,-14.85 -4.79,1.18 -9.39,3.89 -14.47,3.25 -3.6,-0.32 -5.4,-3.99 -8.46,-5.43 -2.96,-1.38 -6.2,-2.18 -9.45,-2.44 -5,-1.55 -10.05,-2.95 -14.95,-4.83 m -49.63,28.19 c 2.9,4.33 6.74,7.94 10.31,11.7 11.46,11.34 24.61,21.71 40.11,26.79 -5.04,-10.99 -14.93,-18.42 -24.16,-25.71 -8.5,-6.39 -16.85,-12.96 -25.04,-19.74 -1.01,2.08 -2.19,4.69 -1.22,6.96 m 366.04,7.11 c -6.39,2.58 -11.83,6.94 -17.89,10.16 -34.73,18.99 -70.84,35.24 -106.8,51.71 -36.41,16.1 -72.9,32.07 -110.04,46.42 -11.7,4.28 -23.31,9.06 -35.59,11.41 -1.94,0.62 -2.59,2.96 -3.7,4.5 8.5,-1.79 16.87,-4.24 25.06,-7.15 19.53,-6.26 38.57,-13.91 57.72,-21.24 24.93,-10.03 49.88,-20 74.55,-30.65 34.01,-13.97 67.65,-28.83 101.38,-43.44 10.16,-4.88 20.79,-8.89 31.82,-11.27 12.16,-3.32 25.3,-4.21 37.48,-0.51 19.65,4.88 39.18,10.26 58.85,15.09 13.14,4.04 25.86,9.35 39.02,13.34 0.56,-3.55 1.1,-7.1 1.49,-10.67 -5.05,-3.8 -11.12,-5.78 -16.78,-8.45 -27.41,-10.7 -55.99,-18.75 -85.23,-22.41 -17.07,-1.96 -34.9,-2.63 -51.34,3.16 m -366.59,-0.73 c 0.45,7.84 2.08,16.02 6.67,22.54 12.57,15.38 32.65,23.59 52.25,23.9 -1.79,-3.13 -2.8,-7.2 -5.84,-9.3 -21.25,-6.19 -38.26,-21.33 -53.08,-37.14 m 376.11,17.23 c -7.12,1.68 -13.78,4.69 -20.44,7.61 -26.88,11.93 -53.91,23.5 -80.94,35.08 -3.44,1.33 -6.97,2.56 -9.98,4.76 33.11,3.3 66.5,0.06 99.17,-5.57 29.71,-5.62 58.92,-13.9 87.04,-25.05 5.34,-2.52 11.17,-4.06 16.14,-7.33 -17.18,-4.33 -34.34,-8.73 -51.47,-13.24 -13.21,-3.08 -26.83,-0.19 -39.52,3.74 m 79.27,19.32 c -15.96,6.69 -32.47,11.92 -49.04,16.88 -24.77,6.64 -49.96,12.01 -75.52,14.37 -23.5,2.48 -47.29,3.14 -70.79,0.31 -5.65,-1.12 -10.37,2.88 -15.47,4.54 -3.24,1.56 -7.28,2.04 -9.68,4.93 27.95,2.14 56.09,2.16 84.05,0.11 51.94,-4.52 104.01,-14.91 151.53,-36.98 5.32,-2.73 10.95,-4.94 15.86,-8.41 -3.95,-1.61 -8.06,-2.92 -12.3,-3.38 -6.53,1.67 -12.26,5.48 -18.64,7.63 m -5.91,17.67 c 4.37,1.94 9,3.65 12.59,6.93 3.11,2.85 4.51,7.71 2.46,11.57 -2.3,5.34 -7.83,8.21 -13.13,9.77 -9.07,2.45 -18.7,1.93 -27.87,0.35 -4.45,-0.97 -9.58,-1.81 -12.53,-5.65 -2.35,-2.98 -1.74,-6.94 -1.48,-10.43 -45.18,11.57 -91.89,16.83 -138.51,16.57 6.75,10.15 17.3,16.9 27.21,23.63 19.82,13.36 44.15,18.55 67.8,18.09 12.61,0.01 25.08,-2.14 37.43,-4.5 21.92,-5.3 43.59,-12.97 62.58,-25.35 8.5,-5.37 13.72,-14.74 15.58,-24.44 2.34,-10.33 2.58,-21.06 1.39,-31.55 -11,5.39 -22.26,10.19 -33.52,15.01 m -422.33,-9.4 c -3.4,4.65 -1.5,11.07 2.94,14.25 7.28,5.06 16.21,7.08 24.88,8.2 1.63,0.07 3.01,0.94 4.16,2.04 -1.45,3.71 -5.72,1.69 -8.7,2.14 -4.04,-1.99 -8.58,-2.44 -12.79,-3.95 -3.88,-1.22 -7.39,-3.32 -10.77,-5.54 -5.28,3.37 -10.71,9.09 -9.51,15.88 0.9,5.36 6.59,7.57 11.24,8.73 8.66,2 17.81,2.67 26.57,0.92 6.46,-0.5 13.1,-1.95 18.76,-5.23 -3.81,-10.77 -8.05,-21.45 -13.24,-31.63 -7.14,-0.31 -14.31,-1.05 -21.24,-2.89 -2.97,-0.78 -5.81,-2.09 -8.89,-2.43 1.24,-2.33 -4.65,-3.05 -3.41,-0.49 m 412.26,12.73 c -8.13,3.27 -16.83,4.9 -24.96,8.13 -1.12,2.87 -1.78,6.37 -0.15,9.19 1.96,2.49 5.34,3.03 8.24,3.74 8.95,1.47 18.2,2.05 27.13,0.21 4.34,-0.95 8.5,-3.34 10.96,-7.11 1.1,-1.8 1.42,-4.35 -0.07,-6.02 -3.93,-5.28 -10.81,-6.6 -16.66,-8.68 -1.52,-0.76 -3.06,0.04 -4.49,0.54 m -314.13,62.08 c -0.31,0.28 -0.95,0.84 -1.27,1.12 28.17,7.24 58.03,5.63 86.04,-1.52 7.52,-2.55 15.74,-3.85 22.21,-8.77 7.99,-5.52 16.77,-10.49 22.52,-18.58 1.73,-2.72 3.66,-5.76 3.23,-9.14 -9.72,-0.08 -19.41,-0.92 -29.06,-1.96 -1.58,-0.13 -3.24,-0.35 -4.74,0.33 -32.75,13.4 -65.56,26.72 -98.93,38.52 m 137.08,-36.44 c -1.37,15.34 -2.56,30.74 -5.44,45.9 -1.6,7.68 -2.39,15.74 -6.23,22.74 -0.67,1.59 -2.05,3.18 -1.47,5.02 3.31,3.37 8.32,3.89 12.77,4.47 5.77,0.46 12.08,0.93 17.25,-2.19 3.99,-1.06 7.16,-3.89 10.1,-6.64 9.48,-9.59 15,-22.35 18.67,-35.15 -12.36,-6.38 -23.5,-14.79 -34.25,-23.53 -1.68,-3.19 -4.85,-5.57 -6.39,-8.96 -0.68,-2.24 -3.25,-1.54 -5.01,-1.66 m -209.35,8.92 c 0.37,3.64 -0.22,7.81 2.06,10.94 0.73,2.43 2.01,4.73 4.08,6.27 1.3,2.53 3.76,4.18 6.17,5.57 5.96,3.23 12.69,4.95 19.46,5.25 -1.67,-11.59 -5.83,-22.61 -9.16,-33.79 -7.2,3.13 -14.81,4.94 -22.61,5.76 m -27.28,7.12 c 2.38,4.48 6.22,7.92 9.74,11.49 6.66,6.73 14.07,12.65 21.44,18.57 2.29,1.85 4.34,4.17 7.25,5.07 l 0.05,0.83 c 20.56,16.86 42.71,31.81 65.8,45 14.77,7.97 30.12,15.82 46.98,18.01 9.2,1.16 19.14,1.88 27.68,-2.42 7.22,-3.42 11.37,-10.84 18.25,-14.74 5.08,-3.31 11.2,-4.31 17.12,-4.87 16.72,-2.25 33.38,-5.01 50.16,-6.79 24.09,-3.55 48.29,-6.24 72.37,-9.84 22.38,-3.32 44.85,-6 67.38,-8.12 16.24,-2.09 32.54,-4.05 48.6,-7.23 6.77,-1.07 13.39,-2.91 19.99,-4.76 3.7,-1.22 7.54,-2.65 10.41,-5.4 1.74,-1.69 0.35,-4.3 -1.08,-5.68 -5.82,-5.5 -13.62,-8.06 -20.9,-11 -11.39,-3.81 -23.02,-6.88 -34.76,-9.4 -6.6,2.48 -12.85,5.86 -19.54,8.16 -30.91,11.19 -64.65,16.43 -97.25,10.39 -8.07,-1.75 -15.93,-4.32 -23.59,-7.37 -4.92,15.68 -12.15,32.1 -26.3,41.54 -9.17,6.29 -21.03,5.61 -31.41,3.35 -3.1,-0.55 -5.64,-2.49 -7.93,-4.53 -6.4,8.13 -18.52,9.69 -27.38,4.92 -3.96,-1.9 -6.1,-5.89 -7.99,-9.63 -3.95,2.44 -7.65,5.29 -11.87,7.26 -10.56,4.82 -22.94,4.85 -33.78,0.91 -4.76,-2.11 -8.68,-6.58 -8.15,-12.08 -3.84,1.65 -7.51,3.71 -11.54,4.88 -11.57,3.5 -25.02,1.19 -34.26,-6.77 -6.24,-5.5 -8.9,-14.05 -8.01,-22.21 -5.41,1.02 -10.76,2.53 -16.29,2.78 -0.65,-1.68 -1.11,-3.41 -1.47,-5.16 -6.28,-0.74 -12.63,-1.68 -18.49,-4.13 -4.08,-1.75 -7.45,-4.66 -10.99,-7.24 -1.46,-2.77 -3.47,-5.22 -4.69,-8.12 -1.85,-3.84 -2.28,-8.13 -2.79,-12.3 -7.6,-0.24 -15.25,-0.59 -22.64,-2.51 -1.3,2.9 -0.54,6.12 -0.12,9.14 m 225.96,2.72 c -8.59,5.77 -16.36,13.14 -26.28,16.65 -15.46,5.55 -31.65,8.99 -48.04,10.21 -2.89,4.01 -5.51,8.24 -8.94,11.83 -2.91,3.15 -6.26,6.36 -7.21,10.72 -0.57,3.37 2.1,6.4 5.06,7.58 6.39,2.63 13.49,3.54 20.33,2.61 9.95,-1.44 18.61,-7.04 25.6,-14.02 0.96,0.26 1.92,0.53 2.88,0.81 -0.82,4.54 0.87,9.39 4.76,12.02 7.49,4.71 19.02,3.46 23.84,-4.53 2.06,-3.66 5.64,-7.45 5.04,-11.88 1.03,-1.8 1.87,-3.72 2.32,-5.75 3.19,-13.83 4.71,-27.96 5.94,-42.07 -1.82,1.84 -4.31,3.36 -5.3,5.82 m -227.37,3.07 c -0.77,13.9 -0.77,28.37 4.25,41.56 1.48,4.41 4.87,7.74 8.04,10.99 5.52,5.15 11.16,10.23 17.3,14.65 14.05,11.48 28.99,21.85 43.89,32.19 16.87,11.36 33.93,22.51 51.86,32.13 5.64,2.59 11.05,6.22 17.39,6.77 16.37,2.34 33.43,3.4 49.44,-1.5 8.62,-3.1 17.3,-8.18 21.73,-16.51 3.54,-5.72 11.19,-4.99 16.89,-6.84 5.35,-0.82 10.59,-2.24 15.94,-3.08 10.76,-2.13 21.69,-3.15 32.53,-4.76 24.06,-3.31 48.29,-5.02 72.5,-6.86 6.88,-0.16 13.59,-1.79 20.36,-2.81 11.48,-1.46 22.8,-3.93 34.18,-5.96 10.69,-1.58 21.2,-4.16 31.79,-6.31 10.09,-1.73 19.87,-4.84 29.83,-7.14 6.15,-2.1 12.49,-3.94 18.04,-7.43 0.41,-11.73 0.52,-23.49 -0.31,-35.2 -3.56,1.5 -7,3.27 -10.66,4.5 -6,2.15 -12.34,2.93 -18.46,4.6 -19.11,3.73 -38.48,5.75 -57.77,8.19 -10.64,1.41 -21.36,2.02 -32,3.39 -11.42,1.22 -22.66,3.69 -34.1,4.76 -16.31,2.17 -32.57,4.74 -48.93,6.53 -24.35,3.59 -48.82,6.24 -73.12,10.15 -3.14,0.58 -6.3,1.3 -9.13,2.83 -7.6,4.63 -12.4,12.95 -20.87,16.31 -12.73,4.93 -26.74,2.59 -39.69,-0.13 -17.87,-5.25 -34.28,-14.37 -50.15,-23.92 -18.06,-11.04 -35.28,-23.39 -52.05,-36.29 -13.5,-10.92 -27.04,-21.91 -38.72,-34.81 m 85.4,20.05 c -0.45,-0.05 -1.36,-0.14 -1.81,-0.19 -0.31,3.11 -0.72,6.36 0.34,9.39 -1.37,1.53 -0.6,5.81 1.69,5.76 0.92,3.91 4.39,6.53 7.51,8.72 8.56,5.1 19.39,5.35 28.77,2.59 10.88,-3.99 19.85,-12.38 25.79,-22.22 -0.43,0.06 -1.28,0.16 -1.71,0.22 -6.79,0.07 -13.59,0.18 -20.36,-0.39 -10.14,-0.86 -20.5,-1.66 -29.96,-5.73 -3.46,-1.75 -7.13,0.37 -10.26,1.85 z"
   id="path444"
   inkscape:connector-curvature="0"
   style="stroke:#000000;stroke-width:0.5" />
	<path
   d="m 352.644,50.85 c 9.97,-0.65 22.03,0.27 28.38,9.13 5.66,8.23 7.81,18.27 12.77,26.91 -10.98,-3.22 -22.82,-4.1 -32.95,-9.75 -7.52,-4.29 -9.88,-13.31 -10.51,-21.35 5.46,5.01 11.61,9.18 18.08,12.79 1.41,0.8 3.03,1.09 4.62,1.41 -0.1,-1.36 0.34,-3.06 -1.14,-3.83 -6.53,-4.87 -15.17,-7.77 -19.25,-15.31 z"
   id="path446"
   inkscape:connector-curvature="0"
   style="fill:#277219;stroke:#277219;stroke-width:0.5" />
	<path
   d="m 72.114,103.14 c 12.22,-4.75 26.06,-7.18 38.87,-3.42 -0.51,0.1 -1.51,0.28 -2.02,0.37 4.66,2.59 9.81,4.48 13.73,8.21 2.77,2.66 6.08,4.63 9.4,6.5 -2.7,0.76 -5.67,1.47 -7.45,3.84 -9.57,10.99 -12.31,26.22 -11.9,40.39 0.01,7.28 3.21,13.97 4.43,21.05 -2.49,-1.52 -4.75,-3.37 -6.94,-5.29 -13.26,-11.7 -26.59,-23.45 -38.29,-36.75 -3.84,-4.63 -7.73,-9.49 -9.74,-15.23 -2.74,-7.81 2.19,-17.07 9.91,-19.67 z"
   id="path448"
   inkscape:connector-curvature="0"
   style="fill:#d5b76f;stroke:#d5b76f;stroke-width:0.5" />
	<path
   d="m 108.964,100.09 c 0.51,-0.09 1.51,-0.27 2.02,-0.37 9.28,2.13 17.29,7.7 23.91,14.38 6.78,-2.3 13.97,-2.81 21.05,-3.55 43.61,-3.01 87.32,-4.76 131.01,-5.67 -0.8,2.52 -1.8,4.96 -2.9,7.36 -10.5,-1.07 -21.64,-0.44 -31.04,4.79 -8.54,5.13 -14.32,14.22 -16.16,23.93 -2.5,10.98 -1.53,23.12 4.27,32.94 -2.64,2.59 -5.8,5.29 -6.17,9.23 -0.68,5.02 2.73,9.59 6.8,12.12 9.79,6.29 21.9,7.29 33.23,6.58 11.76,-0.93 23.85,-3.4 33.8,-10.07 4.38,-2.89 9.29,-6.04 14.8,-5.28 8.71,1.1 17.55,6.01 26.33,2.47 7.7,-3.25 16.03,-7.77 19.27,-15.98 1.98,-2.55 4.79,-4.37 6.76,-6.96 7.65,-9.62 9.29,-22.88 6.36,-34.59 -2.03,-7.76 -5.53,-15.71 -12.27,-20.49 -8.34,-5.32 -18.51,-6.03 -28.13,-6.37 1.88,-2.18 5.55,-0.55 8.14,-1.07 4.41,-0.32 8.39,1.81 12.37,3.34 48.97,18.31 97.76,37.15 145.77,57.89 1.51,0.73 3.37,1.08 4.54,2.38 6.24,8.42 13.99,15.65 19.74,24.48 5.58,8.18 10.15,17.44 10.79,27.48 -28.75,0.38 -57.5,0.18 -86.24,0.69 -50.06,0.97 -100.15,1.8 -150.09,5.59 -7.92,0.4 -15.81,1.4 -23.59,2.88 -5.24,0.53 -7.31,6.17 -11.48,8.62 -13.29,8.92 -30.2,8.48 -45.43,6.59 -16.98,-2.38 -32.56,-10.22 -47.34,-18.53 -17.81,-10.39 -34.59,-22.43 -50.74,-35.22 -3.68,-3.22 -8.12,-5.84 -11.17,-9.6 -1.22,-7.08 -4.42,-13.77 -4.43,-21.05 -0.41,-14.17 2.33,-29.4 11.9,-40.39 1.78,-2.37 4.75,-3.08 7.45,-3.84 -3.32,-1.87 -6.63,-3.84 -9.4,-6.5 -3.92,-3.73 -9.07,-5.62 -13.73,-8.21 z"
   id="path450"
   inkscape:connector-curvature="0"
   style="fill:#edcc7c;stroke:#edcc7c;stroke-width:0.5" />
	<path
   d="m 291.704,104.66 c 12.55,-0.27 25.12,-0.95 37.67,-0.66 -9.31,4.66 -18.14,11.43 -22.07,21.4 -5.45,-5.35 -12.05,-9.42 -19.34,-11.74 0.98,-3.1 2.34,-6.07 3.74,-9 z"
   id="path452"
   inkscape:connector-curvature="0"
   style="fill:#edcc7c;stroke:#edcc7c;stroke-width:0.5" />
	<path
   d="m 315.794,118.98 c 5.68,-6.18 13.22,-12.31 22.2,-11.04 1.2,4.14 2.29,8.32 3.77,12.38 -2.19,-0.32 -4.56,-0.34 -6.43,-1.67 -1.63,-0.84 -3.01,-2.57 -4.99,-2.42 -2.67,1.57 0.02,4.65 1.92,5.55 8.28,4.33 19.38,2.96 26.52,-3 0,-0.7 0,-2.09 -0.01,-2.79 -4.53,-0.17 -7.84,3.95 -12.44,3.94 -1.88,-3.46 -3.26,-7.17 -3.75,-11.09 9.6,0.35 20.55,0.59 27.9,7.72 7.94,8.91 10.13,21.74 8.27,33.26 -1.07,7.92 -5.96,14.93 -12.36,19.54 -11.78,7.92 -27.55,8.2 -40.41,2.82 2.61,-2.97 5.5,-6.13 5.9,-10.26 1.02,-8.73 -0.04,-17.7 -2.74,-26.05 -2.3,-7.02 -7.75,-12.35 -13.35,-16.89 z"
   id="path454"
   inkscape:connector-curvature="0"
   style="fill:#db2828;stroke:#db2828;stroke-width:0.5" />
	<path
   d="m 251.234,123.23 c 5.02,-4.02 11.25,-6.59 17.68,-7 4.47,-0.31 8.97,-0.21 13.45,-0.08 -1.52,6.3 -3.01,12.61 -4.55,18.91 -4.39,-1.85 -5.95,-6.65 -9.05,-9.86 -1.34,-0.23 -2.97,1.03 -2.3,2.46 1.76,5.27 6.02,9.49 10.91,11.98 4.96,1.94 11.14,1.67 15.36,-1.85 -0.01,-0.7 -0.02,-2.11 -0.03,-2.82 -3.74,-0.33 -6.99,2.21 -10.75,2.02 0.73,-6.68 2.51,-13.25 4.91,-19.52 8.5,3.03 17.11,8.15 21.42,16.31 -0.08,9.51 -0.07,19.74 -5.54,27.97 -5.67,7.98 -13.41,14.64 -22.44,18.52 -5.16,1.96 -10.64,2.86 -15.88,4.56 -5.32,-0.47 -10.14,-3.71 -14.25,-6.99 -8.44,-6.82 -11.31,-18.39 -10.55,-28.81 0.78,-9.53 4.16,-19.43 11.61,-25.8 z"
   id="path456"
   inkscape:connector-curvature="0"
   style="fill:#db2828;stroke:#db2828;stroke-width:0.5" />
	<path
   d="m 312.254,131.83 c -3.03,-4.39 0.89,-9.34 3.54,-12.85 5.6,4.54 11.05,9.87 13.35,16.89 2.7,8.35 3.76,17.32 2.74,26.05 -0.4,4.13 -3.29,7.29 -5.9,10.26 -2.84,-1.42 -5.45,-3.26 -7.76,-5.44 3.2,-11.83 0.88,-24.8 -5.97,-34.91 z"
   id="path458"
   inkscape:connector-curvature="0"
   style="fill:#c52424;stroke:#c52424;stroke-width:0.5" />
	<path
   d="m 57.024,166.05 c -1.26,-13.92 -2.49,-28.38 1.31,-42.01 3.27,8.79 9.7,15.87 16.02,22.61 14.24,14.95 29.93,28.4 45.67,41.71 -2.24,16.12 -0.07,32.44 -1.92,48.57 -20.18,-18.13 -38.85,-37.86 -57.46,-57.56 -3.49,-3.5 -2.8,-8.83 -3.62,-13.32 z"
   id="path460"
   inkscape:connector-curvature="0"
   style="fill:#bd891f;stroke:#bd891f;stroke-width:0.5" />
	<path
   d="m 51.294,143.01 c 0.08,-4.06 -0.68,-8.37 1.41,-12.09 -0.94,7.39 -0.98,14.83 -1.01,22.27 -0.61,-3.36 -0.38,-6.78 -0.4,-10.18 z"
   id="path462"
   inkscape:connector-curvature="0"
   style="fill:#d39822;stroke:#d39822;stroke-width:0.5" />
	<path
   d="m 308.284,133.78 c 2.86,2.53 3.82,6.4 5.23,9.81 5.82,14.29 -0.09,32.67 -13.86,40.02 -7.5,3.97 -16.26,4.61 -24.58,3.97 -3.67,-0.31 -7.42,-0.88 -10.65,-2.75 5.24,-1.7 10.72,-2.6 15.88,-4.56 9.03,-3.88 16.77,-10.54 22.44,-18.52 5.47,-8.23 5.46,-18.46 5.54,-27.97 z"
   id="path464"
   inkscape:connector-curvature="0"
   style="fill:#c52424;stroke:#c52424;stroke-width:0.5" />
	<path
   enable-background="new    "
   d="m 52.404,158.09 c 0.56,1.83 0.8,3.73 0.66,5.64 -2.03,-0.39 -1.83,-4.27 -0.66,-5.64 z"
   id="path466"
   inkscape:connector-curvature="0"
   style="opacity:0.56999966;fill:#3d2c09;stroke:#3d2c09;stroke-width:0.5" />
	<path
   d="m 512.724,167.1 c 8.16,2.84 15.8,6.94 23.66,10.5 8.63,4.25 17.27,8.5 25.45,13.57 4.18,2.72 8.45,5.75 10.91,10.22 0.44,1.06 1.11,2.01 1.98,2.79 0.22,0.3 0.66,0.9 0.88,1.21 0.49,1.05 1.23,1.95 2.16,2.67 2.15,1.87 3.68,5.81 1.38,8.1 -3.23,2.16 -7.31,2.36 -11.06,2.61 -8.28,0.13 -16.56,0.38 -24.83,0.29 -0.64,-10.04 -5.21,-19.3 -10.79,-27.48 -5.75,-8.83 -13.5,-16.06 -19.74,-24.48 z"
   id="path468"
   inkscape:connector-curvature="0"
   style="fill:#d5b76f;stroke:#d5b76f;stroke-width:0.5" />
	<path
   d="m 316.464,171.03 c 3.51,1.92 6.52,4.79 10.43,5.93 10.46,3.28 22,3.96 32.47,0.37 3.47,-1 6.5,-3 9.82,-4.36 -3.24,8.21 -11.57,12.73 -19.27,15.98 -8.78,3.54 -17.62,-1.37 -26.33,-2.47 -5.51,-0.76 -10.42,2.39 -14.8,5.28 -9.95,6.67 -22.04,9.14 -33.8,10.07 -11.33,0.71 -23.44,-0.29 -33.23,-6.58 -4.07,-2.53 -7.48,-7.1 -6.8,-12.12 0.37,-3.94 3.53,-6.64 6.17,-9.23 5.99,8.14 14.97,14 24.88,16.08 10.44,2.64 21.67,2.39 31.89,-1.08 8.3,-3.12 14.78,-9.96 18.57,-17.87 z"
   id="path470"
   inkscape:connector-curvature="0"
   style="fill:#d5b76f;stroke:#d5b76f;stroke-width:0.5" />
	<path
   d="m 60.034,184.81 c 29.2,30.52 58.99,60.68 92.06,87.07 15.41,12.02 31.34,23.79 49.39,31.55 15.44,5.92 32.85,7.1 48.85,2.82 13.27,-3.37 25.34,-11.81 32.39,-23.63 28.76,-0.82 57.51,-1.62 86.27,-2.39 8.15,0.19 16.3,-0.8 24.44,-0.27 -5.78,4.05 -12.35,7.05 -18.81,9.78 -11.82,-1.51 -23.74,-2.21 -35.63,-2.82 -13.77,-0.33 -28.12,-0.54 -40.99,5.09 -7.57,3.23 -13.36,9.24 -19.61,14.4 -5.76,4.83 -12.67,8.23 -19.97,10 -19.08,4.5 -39.24,3.46 -58.06,-1.76 -34.94,-10.26 -64.94,-33.26 -88.08,-60.91 -9.01,-11.23 -18.58,-22.09 -29.48,-31.53 -9.12,-9.08 -18.66,-17.79 -27.02,-27.59 1.11,-3.4 2.54,-6.68 4.25,-9.81 z"
   id="path472"
   inkscape:connector-curvature="0"
   style="fill:#d7cf6e;stroke:#d7cf6e;stroke-width:0.5" />
	<path
   d="m 118.104,236.93 c 1.85,-16.13 -0.32,-32.45 1.92,-48.57 21.27,16.71 43.04,33.07 67.15,45.5 15.91,8.63 33.59,14.3 51.77,14.84 8.51,0.26 17.16,-0.6 25.18,-3.58 3.38,-1.21 6.53,-2.96 9.9,-4.2 -0.99,9.83 -1.29,19.82 0.6,29.56 0.62,3.44 2.73,6.3 4.43,9.28 0.12,1.43 -1.02,2.54 -1.67,3.7 -8.74,12.36 -23.53,19.56 -38.4,20.88 -9.46,0.36 -19.14,0.59 -28.34,-2.01 -9.39,-2.79 -18.11,-7.41 -26.45,-12.49 -19.41,-12.09 -37.03,-26.79 -54.15,-41.89 -3.98,-3.68 -8.19,-7.11 -11.94,-11.02 z"
   id="path474"
   inkscape:connector-curvature="0"
   style="fill:#d39822;stroke:#d39822;stroke-width:0.5" />
	<path
   d="m 55.304,223.95 c -3.3,-9.42 -2.29,-19.91 0.48,-29.33 8.36,9.8 17.9,18.51 27.02,27.59 10.9,9.44 20.47,20.3 29.48,31.53 23.14,27.65 53.14,50.65 88.08,60.91 18.82,5.22 38.98,6.26 58.06,1.76 7.3,-1.77 14.21,-5.17 19.97,-10 6.25,-5.16 12.04,-11.17 19.61,-14.4 12.87,-5.63 27.22,-5.42 40.99,-5.09 11.89,0.61 23.81,1.31 35.63,2.82 -16.21,8.72 -33,16.36 -49.56,24.41 -43.57,20.67 -87.58,40.6 -132.97,56.98 -11.07,3.73 -22.31,7.23 -33.99,8.35 -3.22,-31.22 -15.04,-61.21 -32.19,-87.37 -11.45,-16.56 -28.28,-28.24 -44.97,-39 -5.59,-3.9 -12.16,-6.76 -16.32,-12.39 -0.07,-0.09 -0.22,-0.26 -0.3,-0.35 -3.74,-4.09 -7.61,-8.72 -8.29,-14.43 -0.18,-0.49 -0.55,-1.49 -0.73,-1.99 z"
   id="path476"
   inkscape:connector-curvature="0"
   style="fill:#efe77b;stroke:#efe77b;stroke-width:0.5" />
	<path
   d="m 46.624,214.45 c 0.89,-5.92 1.66,-11.97 4.09,-17.5 -0.67,4.99 -1.78,9.96 -1.59,15.03 -0.11,15.64 8.08,31.3 21.62,39.35 19.83,12.82 41.05,25.63 53.83,46.17 15.65,24.87 26.66,53.11 29.36,82.5 -0.82,5.34 -4.66,9.74 -7.15,14.46 -9.31,-13.2 -12.82,-29.47 -15.26,-45.17 -1.68,-9.12 -0.94,-18.67 -4.33,-27.44 -3.86,-10.02 -9.86,-19.1 -16.79,-27.25 -9.64,-11.39 -20.99,-21.25 -33.2,-29.81 -8.01,-5.92 -17.84,-9.87 -23.67,-18.33 -6.83,-9.05 -8.16,-21.04 -6.91,-32.01 z"
   id="path478"
   inkscape:connector-curvature="0"
   style="fill:#fc9e49;stroke:#fc9e49;stroke-width:0.5" />
	<path
   enable-background="new    "
   d="m 572.744,201.39 c 1.52,-1.07 3.4,1.66 1.98,2.79 -0.87,-0.78 -1.54,-1.73 -1.98,-2.79 z"
   id="path480"
   inkscape:connector-curvature="0"
   style="opacity:0.63999999;fill:#39311e;stroke:#39311e;stroke-width:0.5" />
	<path
   enable-background="new    "
   d="m 575.604,205.39 c 1.45,-1.12 3.5,1.46 2.16,2.67 -0.93,-0.72 -1.67,-1.62 -2.16,-2.67 z"
   id="path482"
   inkscape:connector-curvature="0"
   style="opacity:0.56000001;fill:#2d2617;stroke:#2d2617;stroke-width:0.5" />
	<path
   d="m 569.084,222.68 c 3.97,-0.1 7.82,-1.16 11.57,-2.43 0.13,8.26 0.66,16.53 0.1,24.79 -0.44,6.44 0.12,13.16 -2.34,19.28 -9.91,2.48 -20.16,3.36 -30.34,3.89 -2.26,-2.53 -4.73,-5.01 -6.05,-8.19 -2.05,-4.92 -2.14,-10.39 -1.59,-15.61 0.66,-7.15 3.2,-14.2 1.98,-21.44 8.89,-0.04 17.78,0.01 26.67,-0.29 z"
   id="path484"
   inkscape:connector-curvature="0"
   style="fill:#bd891f;stroke:#bd891f;stroke-width:0.5" />
	<path
   d="m 395.994,225.28 c 48.79,-1.45 97.61,-1.82 146.42,-2.31 1.22,7.24 -1.32,14.29 -1.98,21.44 -0.55,5.22 -0.46,10.69 1.59,15.61 1.32,3.18 3.79,5.66 6.05,8.19 -27.32,2.12 -54.69,3.54 -82.07,4.68 -22.36,1.27 -44.76,1.26 -67.12,2.42 -37.18,1.11 -74.37,2.4 -111.57,3.05 0.37,-3.81 0.44,-7.65 -0.07,-11.45 -1.34,-11.09 -2.74,-22.23 -5.69,-33.03 -0.06,-0.3 -0.17,-0.91 -0.23,-1.21 21.25,-3.77 42.89,-4.57 64.39,-5.84 16.76,-0.67 33.51,-1.53 50.28,-1.55 z"
   id="path486"
   inkscape:connector-curvature="0"
   style="fill:#d39822;stroke:#d39822;stroke-width:0.5" />
	<path
   enable-background="new    "
   d="m 55.304,223.95 c 0.18,0.5 0.55,1.5 0.73,1.99 l -0.88,-0.22 -0.38,-1.02 z"
   id="path488"
   inkscape:connector-curvature="0"
   style="opacity:0.65;fill:#6f6b39;stroke:#6f6b39;stroke-width:0.5" />
	<path
   d="m 274.084,240.11 c 2.59,-1.96 4.95,-4.19 7.47,-6.23 2.95,10.8 4.35,21.94 5.69,33.03 0.51,3.8 0.44,7.64 0.07,11.45 -2.8,0.08 -5.67,0.2 -8.26,1.4 -1.7,-2.98 -3.81,-5.84 -4.43,-9.28 -1.89,-9.74 -1.59,-19.73 -0.6,-29.56 z"
   id="path490"
   inkscape:connector-curvature="0"
   style="fill:#bd891f;stroke:#bd891f;stroke-width:0.5" />
	<path
   enable-background="new    "
   d="m 64.324,240.37 c 0.08,0.09 0.23,0.26 0.3,0.35 -0.07,-0.09 -0.22,-0.26 -0.3,-0.35 z"
   id="path492"
   inkscape:connector-curvature="0"
   style="opacity:0.68000034;fill:#77733d;stroke:#77733d;stroke-width:0.5" />
	<path
   d="m 555.294,272.03 c 5.18,-0.67 10.37,-1.36 15.56,-1.97 5.15,5.98 9.63,12.98 10.27,21.05 -16.23,-5.87 -32.55,-11.49 -49.23,-15.98 7.83,-0.76 15.63,-1.86 23.4,-3.1 z"
   id="path494"
   inkscape:connector-curvature="0"
   style="fill:#efe77b;stroke:#efe77b;stroke-width:0.5" />
	<path
   d="m 487.034,275.86 c 9.9,-0.2 19.92,-1.78 29.75,0.19 22,4.12 43.15,11.68 64.11,19.37 -0.55,2.83 -0.82,6.31 -3.55,7.96 -2.51,1.59 -5.51,3.33 -8.51,1.95 -28.1,-8.37 -55.8,-18.19 -84.39,-24.87 -4.51,-0.91 -9.05,-1.66 -13.47,-2.96 5.17,-1.69 10.71,-1.1 16.06,-1.64 z"
   id="path496"
   inkscape:connector-curvature="0"
   style="fill:#fc9e49;stroke:#fc9e49;stroke-width:0.5" />
	<path
   d="m 418.604,282.66 c 2.19,-1.79 4.18,-4.61 7.36,-4.26 7.47,-0.11 14.99,-0.89 22.44,0.11 13.35,1.65 26.87,3.24 39.72,7.35 -0.47,-0.02 -1.41,-0.07 -1.87,-0.09 1.32,1.16 2.66,2.3 4,3.44 -12.81,5.18 -26.91,5.47 -40.52,6.43 -5.38,0.54 -10.79,0.4 -16.15,-0.15 -9.89,-1.01 -19.86,0.24 -29.73,-1.11 4.75,-4.12 10.16,-7.41 14.75,-11.72 z"
   id="path498"
   inkscape:connector-curvature="0"
   style="fill:#a31d02;stroke:#a31d02;stroke-width:0.5" />
	<path
   d="m 401.704,280.7 c 4.5,-2.27 9.76,-1.23 14.62,-1.59 -13.47,12.16 -29.42,21.16 -45.14,30.06 -39.17,20.9 -80.37,37.78 -122.05,52.95 -32.07,12.1 -64.64,22.88 -97.44,32.83 1.56,-3.96 3.83,-7.57 5.97,-11.24 10.82,-0.93 21.22,-4.22 31.56,-7.32 53.19,-18.78 104.34,-42.72 155.19,-67 19.15,-9.44 38.41,-18.7 57.29,-28.69 z"
   id="path500"
   inkscape:connector-curvature="0"
   style="fill:#fc9e49;stroke:#fc9e49;stroke-width:0.5" />
	<path
   d="m 80.134,288.16 c 3.01,-3.21 6.86,-5.52 10.86,-7.3 10.95,9.15 20.52,20.11 27.72,32.45 1.85,3.08 3.26,6.4 4.3,9.83 -5.43,-1.51 -10.31,-4.41 -15.45,-6.65 -9.55,-4.73 -19.39,-9.45 -27.33,-16.7 -3.69,-2.88 -3.01,-8.46 -0.1,-11.63 z"
   id="path502"
   inkscape:connector-curvature="0"
   style="fill:#b52002;stroke:#b52002;stroke-width:0.5" />
	<path
   d="m 486.254,285.77 c 0.46,0.02 1.4,0.07 1.87,0.09 9.51,1.27 18.49,4.95 27.78,7.25 10.5,3.4 21.23,6.16 31.56,10.06 -8.79,9.09 -21.27,13.14 -32.82,17.49 -36.37,11.64 -74.65,15.22 -112.56,17.93 -23.33,1.4 -46.7,1.91 -70.07,1.82 -4.86,-0.06 -9.74,0.17 -14.58,-0.4 3.17,-2.34 6.91,-3.63 10.5,-5.14 16.27,-7.44 32.45,-15.12 48.11,-23.81 9.62,-4.96 18.49,-11.25 27.81,-16.68 9.87,1.35 19.84,0.1 29.73,1.11 5.36,0.55 10.77,0.69 16.15,0.15 13.61,-0.96 27.71,-1.25 40.52,-6.43 -1.34,-1.14 -2.68,-2.28 -4,-3.44 z"
   id="path504"
   inkscape:connector-curvature="0"
   style="fill:#b52002;stroke:#b52002;stroke-width:0.5" />
	<path
   d="m 552.254,304.44 c 3.25,0.87 6.47,1.88 9.66,3 -3,5.63 -8.4,9.41 -13.5,12.99 -15.58,10.1 -33.7,15.19 -51.59,19.43 -13.85,2.7 -27.79,4.95 -41.83,6.37 -44.92,3.6 -89.92,6.75 -135,6.95 -11.39,0.01 -22.8,0.47 -34.17,-0.2 5.61,-3.08 11.72,-5.06 17.58,-7.59 3.63,-1.77 7.73,-1.2 11.62,-1.16 24.43,0.39 48.88,0.06 73.3,-0.91 25.93,-1.54 51.94,-2.95 77.57,-7.43 14.21,-1.88 28.19,-5.17 42.01,-8.91 15.77,-5.03 32.5,-10.37 44.35,-22.54 z"
   id="path506"
   inkscape:connector-curvature="0"
   style="fill:#b62002;stroke:#b62002;stroke-width:0.5" />
	<path
   d="m 78.934,304.64 c 13.43,9.52 28.42,16.42 43.43,23.02 3.85,1.27 3.61,5.75 3.48,9.03 -3.06,0.82 -6.3,2.1 -9.46,0.92 -10.78,-3.3 -20.77,-8.75 -30.35,-14.62 -1.71,-1.21 -3.92,-2.23 -4.63,-4.35 -1.44,-4.53 -2.04,-9.28 -2.47,-14 z"
   id="path508"
   inkscape:connector-curvature="0"
   style="fill:#b52002;stroke:#b52002;stroke-width:0.5" />
	<path
   d="m 494.934,344.41 c 9.75,-2.36 19.52,-4.64 29.06,-7.77 2.26,19.07 -1.73,39.04 -12.12,55.28 -8.16,12.44 -20.03,22.22 -33.41,28.59 -13.84,6.79 -29.01,10.6 -44.24,12.61 -21.49,3.44 -43.7,2.87 -64.84,-2.46 -18.69,-5.26 -36.97,-14.4 -49.92,-29.2 -1.33,-1.11 -0.49,-2.73 -0.18,-4.07 3.92,-12.95 4.02,-26.78 1.96,-40.07 28.83,-0.57 57.65,-1.65 86.42,-3.66 22.93,-1.12 45.85,-2.93 68.6,-6.05 -1.55,2.33 -4.48,4.91 -2.91,7.98 2.2,4.28 7.57,5.14 11.83,6.12 8.37,1.24 17.46,0.66 24.94,-3.6 3.59,-1.86 3.88,-7.5 0.46,-9.67 -4.61,-3.03 -10.3,-3.53 -15.65,-4.03 m -44.6,12.01 c -2.96,0.48 -5.93,1.7 -7.96,3.96 -1.78,1.93 -1.61,5.19 0.25,7.01 3.38,3.59 8.73,4.27 13.4,3.75 3.46,-0.49 7.28,-1.74 9.18,-4.9 1.53,-2.25 0.78,-5.51 -1.37,-7.09 -3.78,-2.94 -8.9,-3.4 -13.5,-2.73 m -82.95,2.1 c -2.94,0.82 -6.28,2.48 -7.03,5.73 -0.56,3.1 2.2,5.51 4.79,6.58 5.65,2.09 12,1.96 17.74,0.26 2.7,-0.96 5.81,-2.93 5.98,-6.1 0.16,-2.92 -2.41,-5.04 -4.9,-5.95 -5.27,-1.98 -11.18,-2.05 -16.58,-0.52 m 46.94,3.72 c -5.14,0.98 -11.06,2.35 -14.13,7 -1.94,2.86 -1.04,6.87 1.66,8.91 4.89,4.35 11.84,5.28 18.15,5.17 6.16,-0.17 12.63,-1.73 17.27,-6 3.16,-2.77 2.58,-8.41 -0.84,-10.75 -6.3,-4.54 -14.6,-5.33 -22.11,-4.33 m 56.08,11.3 c -7.01,1.13 -14.82,3.69 -18.59,10.2 -1.43,3.7 -0.98,8.53 2.15,11.28 4.33,3.98 10.07,6.43 15.95,6.75 6.8,0.4 13.98,0.49 20.24,-2.6 4.3,-2.04 8.87,-5.22 9.82,-10.21 0.91,-4.55 -2.33,-8.63 -5.91,-10.99 -7,-4.36 -15.59,-5.43 -23.66,-4.43 m -115.96,6.18 c -6.11,1.58 -12.51,4.12 -16.25,9.49 -2.93,3.7 -3.25,9.26 -0.54,13.16 2.87,4.67 7.92,7.35 12.97,9.01 10.75,3.41 23.09,2.07 32.57,-4.17 3.53,-2.67 6.78,-6.57 6.8,-11.21 0.31,-4.99 -3.29,-9.12 -7.07,-11.87 -8.4,-5.22 -18.91,-6.52 -28.48,-4.41 m 61.9,14.7 c -6.96,1.31 -14.14,4.79 -17.59,11.27 -2.51,4.58 -1.03,10.44 2.64,13.94 5.52,5.82 13.82,7.74 21.56,8.02 8.28,0.12 17.15,-1.56 23.55,-7.19 3.09,-2.52 5.34,-6.35 5.02,-10.44 0.19,-5.94 -4.85,-10.23 -9.59,-12.86 -7.91,-3.71 -17.07,-4.51 -25.59,-2.74 z"
   id="path510"
   inkscape:connector-curvature="0"
   style="fill:#f43a31;stroke:#f43a31;stroke-width:0.5" />
	<path
   d="m 117.464,343.47 c 2.92,-1.15 5.9,-2.25 9.05,-2.55 1.82,20.52 6.59,41.56 18.51,58.71 -5.17,0.55 -10.26,2.11 -14.3,5.5 -3.75,-6.7 -4.54,-14.47 -7.54,-21.46 1.7,-2.12 3.68,-4.65 3.03,-7.55 -0.66,-3.16 -3.55,-5.06 -6.03,-6.76 0.1,-1.82 0.18,-3.64 0.39,-5.45 0.65,-1.94 1.89,-3.76 1.93,-5.84 -0.4,-2.26 -2.55,-3.5 -4.06,-5 0.46,-3.24 1.25,-6.81 -0.98,-9.6 z"
   id="path512"
   inkscape:connector-curvature="0"
   style="fill:#db342c;stroke:#db342c;stroke-width:0.5" />
	<path
   d="m 89.484,366.6 c 4.95,-11.74 16.84,-18.3 27.98,-23.13 2.23,2.79 1.44,6.36 0.98,9.6 -5.76,-0.76 -13.13,-1.97 -17.4,2.99 -2.62,2.8 -0.32,6.89 2.68,8.24 5.35,2.38 11.43,1.12 16.85,-0.39 -0.21,1.81 -0.29,3.63 -0.39,5.45 -8.08,-3.04 -17.79,-3.18 -25.24,1.6 -2.45,1.45 -4.46,4.04 -4.2,7.03 -0.09,3.85 3.49,6.24 6.57,7.71 8.27,3.62 18.2,2.61 25.87,-2.03 3,6.99 3.79,14.76 7.54,21.46 -1.25,2.98 -2.73,6.66 -0.39,9.54 4.71,6.85 14.1,6.76 21.47,5.76 1.56,2.34 3.33,4.92 6.27,5.59 5.2,1.41 11.04,1.4 15.98,-0.92 2.88,-1.31 4.84,-5.13 2.84,-7.97 -1.98,-3.34 -6.22,-3.44 -9.57,-4.3 -1.44,-0.35 -2.87,-0.72 -4.29,-1.08 -0.04,-1.19 -0.07,-2.37 -0.1,-3.54 5.99,-2.5 12.39,-3.98 18.08,-7.17 3.62,1.57 7.27,3.08 10.97,4.44 -4.07,1.72 -8.79,3.37 -10.85,7.64 -2.68,4.44 0,10.18 4.18,12.58 9.33,5.54 21.78,5.3 31,-0.38 4.04,-2.53 6.72,-8.22 4.01,-12.62 -2.22,-4.46 -7.31,-5.94 -11.57,-7.72 4.3,-1.67 10.24,-2.41 12.02,-7.35 1.04,-2.81 -1.34,-5.12 -2.78,-7.23 2.35,-1.09 4.71,-2.15 7.06,-3.22 7.08,2.19 15.01,2.64 21.99,-0.13 2.39,-1 5.12,-3.02 4.9,-5.91 -0.42,-1.71 -1.75,-2.96 -2.72,-4.36 2.88,-1.31 5.7,-2.76 8.43,-4.36 6.99,5.99 16.71,5.91 25.36,4.97 4.78,-0.64 9.96,-2.59 12.48,-6.99 1.66,-3.56 -1.41,-6.98 -4.41,-8.52 -7.39,-3.96 -16.08,-3.01 -24.08,-2.09 3.23,-1.11 6.45,-2.67 9.95,-2.52 13.31,0.21 26.61,0.2 39.91,0.06 3.4,18.94 1.56,39.88 -9.3,56.23 -7.62,11.55 -19.9,19.08 -32.89,23.21 -12.79,3.79 -25.86,7.01 -39.21,7.9 -20.37,2.29 -40.99,1.66 -61.27,-1.14 -12.94,-2.33 -25.86,-5.4 -37.93,-10.7 -17.06,-7.12 -32.82,-18.75 -42.15,-34.98 -5.5,-9.18 -9.23,-20.93 -4.63,-31.25 m 202.9,11.83 c -2.1,0.7 -4.69,2.02 -4.69,4.58 0.51,2.71 3.5,3.83 5.88,4.4 4.33,0.73 8.95,0.78 13.13,-0.69 1.93,-0.75 4.43,-2.14 4.1,-4.58 -0.33,-2.39 -2.98,-3.37 -4.98,-3.98 -4.39,-1.04 -9.11,-1.01 -13.44,0.27 m -26.97,6.11 c -6.01,0.67 -11.92,2.56 -17.04,5.82 -2.48,1.6 -4.6,3.92 -5.46,6.8 -1.38,4.26 0.62,9.2 4.38,11.57 6.97,5.44 16.2,6.39 24.75,6.24 8.48,-0.2 17.44,-2.16 23.83,-8.11 3.1,-2.74 3.99,-7.47 2.52,-11.27 -1.48,-3.34 -4.56,-5.63 -7.74,-7.2 -7.75,-3.92 -16.7,-4.73 -25.24,-3.85 m -155.02,8.06 c -3.81,0.78 -8.06,2.63 -9.47,6.56 -1.18,3.2 0.84,6.67 3.57,8.34 5.24,2.89 11.92,3.03 17.27,0.35 2.55,-1.34 4.96,-3.78 4.98,-6.83 0.07,-2.56 -1.59,-4.81 -3.73,-6.05 -3.65,-2.53 -8.32,-3.12 -12.62,-2.37 m 119.98,19.83 c -2.32,0.78 -5.37,1.77 -5.69,4.62 -0.62,3.68 3.42,5.5 6.37,6.09 4.81,0.85 10.53,0.71 14.33,-2.77 2.04,-1.57 1.63,-4.96 -0.49,-6.25 -4.2,-2.84 -9.76,-2.96 -14.52,-1.69 z"
   id="path514"
   inkscape:connector-curvature="0"
   style="fill:#f43a31;stroke:#f43a31;stroke-width:0.5" />
	<path
   d="m 476.564,353.19 c 5.74,-4.5 13.42,-5.07 20.43,-4.67 4.09,0.4 8.51,1.03 11.74,3.8 0.84,1.96 -1.62,2.68 -2.89,3.53 -6.41,2.76 -13.71,2.96 -20.52,1.88 -3.22,-0.68 -6.96,-1.48 -8.76,-4.54 z"
   id="path516"
   inkscape:connector-curvature="0"
   style="fill:#fa9e99;stroke:#fa9e99;stroke-width:0.5" />
	<path
   d="m 101.044,356.06 c 4.27,-4.96 11.64,-3.75 17.4,-2.99 1.51,1.5 3.66,2.74 4.06,5 -0.04,2.08 -1.28,3.9 -1.93,5.84 -5.42,1.51 -11.5,2.77 -16.85,0.39 -3,-1.35 -5.3,-5.44 -2.68,-8.24 m 3.21,2.21 c -0.33,1.2 0.11,1.95 1.32,2.25 4.3,1.92 9.73,1.58 13.4,-1.54 -3.9,-3.78 -10.32,-3.36 -14.72,-0.71 z"
   id="path518"
   inkscape:connector-curvature="0"
   style="fill:#010000;stroke:#010000;stroke-width:0.5" />
	<path
   d="m 104.254,358.27 c 4.4,-2.65 10.82,-3.07 14.72,0.71 -3.67,3.12 -9.1,3.46 -13.4,1.54 -1.21,-0.3 -1.65,-1.05 -1.32,-2.25 z"
   id="path520"
   inkscape:connector-curvature="0"
   style="fill:#fb7871;stroke:#fb7871;stroke-width:0.5" />
	<path
   d="m 450.334,356.42 c 4.6,-0.67 9.72,-0.21 13.5,2.73 2.15,1.58 2.9,4.84 1.37,7.09 -1.9,3.16 -5.72,4.41 -9.18,4.9 -4.67,0.52 -10.02,-0.16 -13.4,-3.75 -1.86,-1.82 -2.03,-5.08 -0.25,-7.01 2.03,-2.26 5,-3.48 7.96,-3.96 m -3.58,5.36 c -1.24,0.49 -1.34,1.87 -1.69,2.97 5.16,3.02 13.64,3.9 17.35,-1.62 -4.22,-3.79 -10.81,-3.9 -15.66,-1.35 z"
   id="path522"
   inkscape:connector-curvature="0"
   style="fill:#010000;stroke:#010000;stroke-width:0.5" />
	<path
   d="m 367.384,358.52 c 5.4,-1.53 11.31,-1.46 16.58,0.52 2.49,0.91 5.06,3.03 4.9,5.95 -0.17,3.17 -3.28,5.14 -5.98,6.1 -5.74,1.7 -12.09,1.83 -17.74,-0.26 -2.59,-1.07 -5.35,-3.48 -4.79,-6.58 0.75,-3.25 4.09,-4.91 7.03,-5.73 m -3.24,6.5 c 3.3,3.42 8.44,3.68 12.89,3.27 2.93,-0.48 6.61,-1 7.96,-4.08 -6.14,-3.88 -15.23,-4.11 -20.85,0.81 z"
   id="path524"
   inkscape:connector-curvature="0"
   style="fill:#010000;stroke:#010000;stroke-width:0.5" />
	<path
   d="m 446.754,361.78 c 4.85,-2.55 11.44,-2.44 15.66,1.35 -3.71,5.52 -12.19,4.64 -17.35,1.62 0.35,-1.1 0.45,-2.48 1.69,-2.97 z"
   id="path526"
   inkscape:connector-curvature="0"
   style="fill:#f5746c;stroke:#f5746c;stroke-width:0.5" />
	<path
   d="m 364.144,365.02 c 5.62,-4.92 14.71,-4.69 20.85,-0.81 -1.35,3.08 -5.03,3.6 -7.96,4.08 -4.45,0.41 -9.59,0.15 -12.89,-3.27 z"
   id="path528"
   inkscape:connector-curvature="0"
   style="fill:#f5746c;stroke:#f5746c;stroke-width:0.5" />
	<path
   d="m 414.324,362.24 c 7.51,-1 15.81,-0.21 22.11,4.33 3.42,2.34 4,7.98 0.84,10.75 -4.64,4.27 -11.11,5.83 -17.27,6 -6.31,0.11 -13.26,-0.82 -18.15,-5.17 -2.7,-2.04 -3.6,-6.05 -1.66,-8.91 3.07,-4.65 8.99,-6.02 14.13,-7 m -10.86,9.23 c -1.29,2.23 1.15,4.29 2.98,5.17 6.95,3.18 15.07,3.19 22.32,1.02 3.1,-0.62 5.79,-2.64 6.94,-5.65 -3.66,-5.35 -10.74,-6.19 -16.7,-6.23 -5.51,0.24 -11.75,1.3 -15.54,5.69 z"
   id="path530"
   inkscape:connector-curvature="0"
   style="fill:#010000;stroke:#010000;stroke-width:0.5" />
	<path
   d="m 157.404,397.47 c 34.58,-10.43 68.63,-22.48 102.59,-34.76 -1.02,1.48 -2.18,2.87 -2.99,4.49 -0.44,1.74 0.36,3.5 0.65,5.22 -2.73,1.6 -5.55,3.05 -8.43,4.36 -7.77,-2.54 -16.6,-3.31 -24.19,0.26 -2.2,0.96 -4.34,3.11 -3.79,5.72 0.74,1.84 2.37,3.12 3.81,4.42 -2.35,1.07 -4.71,2.13 -7.06,3.22 -10.42,-4.17 -22.46,-4.7 -32.88,-0.29 -2.49,1.07 -4.95,3.07 -5.36,5.9 0.18,1.72 0.77,3.37 1.26,5.03 -5.69,3.19 -12.09,4.67 -18.08,7.17 0.03,1.17 0.06,2.35 0.1,3.54 1.42,0.36 2.85,0.73 4.29,1.08 -1.69,0.06 -3.38,0.12 -5.06,0.19 -0.17,-2.8 0.02,-6.02 -2.2,-8.11 -2.39,-3.15 -6.45,-3.78 -10,-4.77 2.22,-1.42 4.86,-1.88 7.34,-2.67 z"
   id="path532"
   inkscape:connector-curvature="0"
   style="fill:#dc342c;stroke:#dc342c;stroke-width:0.5" />
	<path
   d="m 262.404,366.47 c 5.59,-3.27 12.34,-3.64 18.67,-3.18 -6.42,1.89 -12.31,5.12 -18.5,7.6 l -0.73,0.31 c -0.57,-1.66 -1.34,-3.62 0.56,-4.73 z"
   id="path534"
   inkscape:connector-curvature="0"
   style="fill:#e08b87;stroke:#e08b87;stroke-width:0.5" />
	<path
   d="m 262.574,370.89 c 6.19,-2.48 12.08,-5.71 18.5,-7.6 3.72,0.53 7.87,1.28 10.65,4.04 1.02,2.17 -1.68,3.48 -3.3,4.2 -8.15,3.23 -17.97,3.54 -25.85,-0.64 z"
   id="path536"
   inkscape:connector-curvature="0"
   style="fill:#f79a95;stroke:#f79a95;stroke-width:0.5" />
	<path
   d="m 403.464,371.47 c 3.79,-4.39 10.03,-5.45 15.54,-5.69 5.96,0.04 13.04,0.88 16.7,6.23 -1.15,3.01 -3.84,5.03 -6.94,5.65 -7.25,2.17 -15.37,2.16 -22.32,-1.02 -1.83,-0.88 -4.27,-2.94 -2.98,-5.17 z"
   id="path538"
   inkscape:connector-curvature="0"
   style="fill:#f3736b;stroke:#f3736b;stroke-width:0.5" />
	<path
   d="m 94.944,370.96 c 7.45,-4.78 17.16,-4.64 25.24,-1.6 2.48,1.7 5.37,3.6 6.03,6.76 0.65,2.9 -1.33,5.43 -3.03,7.55 -7.67,4.64 -17.6,5.65 -25.87,2.03 -3.08,-1.47 -6.66,-3.86 -6.57,-7.71 -0.26,-2.99 1.75,-5.58 4.2,-7.03 m 8.5,0.73 c -3.51,0.81 -7.91,2.31 -8.75,6.3 1.55,3.71 5.82,5.13 9.52,5.49 5.48,0.41 11.61,0.47 16.19,-3.06 2.03,-1.37 2.17,-4.52 0.14,-5.95 -4.85,-3.66 -11.37,-3.5 -17.1,-2.78 z"
   id="path540"
   inkscape:connector-curvature="0"
   style="fill:#010000;stroke:#010000;stroke-width:0.5" />
	<path
   d="m 103.444,371.69 c 5.73,-0.72 12.25,-0.88 17.1,2.78 2.03,1.43 1.89,4.58 -0.14,5.95 -4.58,3.53 -10.71,3.47 -16.19,3.06 -3.7,-0.36 -7.97,-1.78 -9.52,-5.49 0.84,-3.99 5.24,-5.49 8.75,-6.3 z"
   id="path542"
   inkscape:connector-curvature="0"
   style="fill:#f79a95;stroke:#f79a95;stroke-width:0.5" />
	<path
   d="m 470.404,373.54 c 8.07,-1 16.66,0.07 23.66,4.43 3.58,2.36 6.82,6.44 5.91,10.99 -0.95,4.99 -5.52,8.17 -9.82,10.21 -6.26,3.09 -13.44,3 -20.24,2.6 -5.88,-0.32 -11.62,-2.77 -15.95,-6.75 -3.13,-2.75 -3.58,-7.58 -2.15,-11.28 3.77,-6.51 11.58,-9.07 18.59,-10.2 m 0,4.02 c -4.54,0.65 -9.1,2.23 -12.62,5.24 -1.96,1.61 -3.46,4.31 -2.46,6.86 1.11,2.38 3.12,4.34 5.51,5.44 9.08,4.08 19.91,3.95 28.94,-0.2 2.82,-1.35 5.58,-3.73 6.08,-6.96 0.35,-3.48 -2.68,-5.97 -5.43,-7.43 -6.04,-3.51 -13.28,-3.53 -20.02,-2.95 z"
   id="path544"
   inkscape:connector-curvature="0"
   style="fill:#010000;stroke:#010000;stroke-width:0.5" />
	<path
   d="m 72.734,383.72 c 1.45,-3.53 3.25,-6.89 5.15,-10.19 1.75,0.58 3.5,1.14 5.27,1.65 0.46,5.06 0.96,10.19 2.71,15 4.5,11.49 12.21,21.42 21.2,29.75 -2.06,3.68 -3.97,7.76 -3.47,12.1 0.69,7.35 5.28,13.87 11.12,18.18 -2.91,4.29 -5.68,9.3 -4.71,14.68 1.09,6.26 6.12,10.69 11.06,14.16 -2.19,4.99 -3.05,10.52 -1.48,15.83 0.06,0.33 0.17,0.99 0.22,1.32 -13.5,-11.81 -27.62,-22.96 -40.13,-35.85 -8.37,-9.13 -17.1,-19.5 -18.41,-32.31 -0.31,-15.48 5.37,-30.34 11.47,-44.32 z"
   id="path546"
   inkscape:connector-curvature="0"
   style="fill:#efe56a;stroke:#efe56a;stroke-width:0.5" />
	<path
   d="m 225.034,377.04 c 7.59,-3.57 16.42,-2.8 24.19,-0.26 0.97,1.4 2.3,2.65 2.72,4.36 0.22,2.89 -2.51,4.91 -4.9,5.91 -6.98,2.77 -14.91,2.32 -21.99,0.13 -1.44,-1.3 -3.07,-2.58 -3.81,-4.42 -0.55,-2.61 1.59,-4.76 3.79,-5.72 m 1.58,3.68 c -2.38,0.83 -0.66,2.53 0.97,2.77 6.76,2.09 14.53,1.94 20.79,-1.59 -2.39,-2.57 -6.05,-3.01 -9.35,-3.27 -4.2,-0.19 -8.62,0.13 -12.41,2.09 z"
   id="path548"
   inkscape:connector-curvature="0"
   style="fill:#010000;stroke:#010000;stroke-width:0.5" />
	<path
   d="m 470.404,377.56 c 6.74,-0.58 13.98,-0.56 20.02,2.95 2.75,1.46 5.78,3.95 5.43,7.43 -0.5,3.23 -3.26,5.61 -6.08,6.96 -9.03,4.15 -19.86,4.28 -28.94,0.2 -2.39,-1.1 -4.4,-3.06 -5.51,-5.44 -1,-2.55 0.5,-5.25 2.46,-6.86 3.52,-3.01 8.08,-4.59 12.62,-5.24 z"
   id="path550"
   inkscape:connector-curvature="0"
   style="fill:#fa9d98;stroke:#fa9d98;stroke-width:0.5" />
	<path
   d="m 292.384,378.43 c 4.33,-1.28 9.05,-1.31 13.44,-0.27 2,0.61 4.65,1.59 4.98,3.98 0.33,2.44 -2.17,3.83 -4.1,4.58 -4.18,1.47 -8.8,1.42 -13.13,0.69 -2.38,-0.57 -5.37,-1.69 -5.88,-4.4 0,-2.56 2.59,-3.88 4.69,-4.58 m 2.47,3.61 c -0.88,0.11 -1.52,0.56 -1.93,1.36 3.84,0.22 7.72,0.49 11.54,-0.08 0.17,-0.31 0.52,-0.94 0.69,-1.25 -3.41,-0.47 -6.91,-0.72 -10.3,-0.03 z"
   id="path552"
   inkscape:connector-curvature="0"
   style="fill:#010000;stroke:#010000;stroke-width:0.5" />
	<path
   d="m 226.614,380.72 c 3.79,-1.96 8.21,-2.28 12.41,-2.09 3.3,0.26 6.96,0.7 9.35,3.27 -6.26,3.53 -14.03,3.68 -20.79,1.59 -1.63,-0.24 -3.35,-1.94 -0.97,-2.77 z"
   id="path554"
   inkscape:connector-curvature="0"
   style="fill:#e16b65;stroke:#e16b65;stroke-width:0.5" />
	<path
   d="m 354.444,379.72 c 9.57,-2.11 20.08,-0.81 28.48,4.41 3.78,2.75 7.38,6.88 7.07,11.87 -0.02,4.64 -3.27,8.54 -6.8,11.21 -9.48,6.24 -21.82,7.58 -32.57,4.17 -5.05,-1.66 -10.1,-4.34 -12.97,-9.01 -2.71,-3.9 -2.39,-9.46 0.54,-13.16 3.74,-5.37 10.14,-7.91 16.25,-9.49 m 0.97,3.89 c -4.86,0.96 -9.51,3.24 -13.04,6.75 -2.92,3.07 -3.13,8.3 -0.2,11.45 3.18,3.28 7.42,5.52 11.92,6.29 7.13,1.39 14.72,1.14 21.58,-1.35 4.11,-1.85 8.64,-4.5 9.91,-9.15 1.06,-3.84 -1.36,-7.7 -4.52,-9.72 -7.29,-5.53 -17.01,-5.34 -25.65,-4.27 z"
   id="path556"
   inkscape:connector-curvature="0"
   style="fill:#010000;stroke:#010000;stroke-width:0.5" />
	<path
   d="m 294.854,382.04 c 3.39,-0.69 6.89,-0.44 10.3,0.03 -0.17,0.31 -0.52,0.94 -0.69,1.25 -3.82,0.57 -7.7,0.3 -11.54,0.08 0.41,-0.8 1.05,-1.25 1.93,-1.36 z"
   id="path558"
   inkscape:connector-curvature="0"
   style="fill:#ff817a;stroke:#ff817a;stroke-width:0.5" />
	<path
   d="m 355.414,383.61 c 8.64,-1.07 18.36,-1.26 25.65,4.27 3.16,2.02 5.58,5.88 4.52,9.72 -1.27,4.65 -5.8,7.3 -9.91,9.15 -6.86,2.49 -14.45,2.74 -21.58,1.35 -4.5,-0.77 -8.74,-3.01 -11.92,-6.29 -2.93,-3.15 -2.72,-8.38 0.2,-11.45 3.53,-3.51 8.18,-5.79 13.04,-6.75 z"
   id="path560"
   inkscape:connector-curvature="0"
   style="fill:#fa9d98;stroke:#fa9d98;stroke-width:0.5" />
	<path
   d="m 265.414,384.54 c 8.54,-0.88 17.49,-0.07 25.24,3.85 3.18,1.57 6.26,3.86 7.74,7.2 1.47,3.8 0.58,8.53 -2.52,11.27 -6.39,5.95 -15.35,7.91 -23.83,8.11 -8.55,0.15 -17.78,-0.8 -24.75,-6.24 -3.76,-2.37 -5.76,-7.31 -4.38,-11.57 0.86,-2.88 2.98,-5.2 5.46,-6.8 5.12,-3.26 11.03,-5.15 17.04,-5.82 m 1.01,4.1 c -5.95,0.64 -12.16,1.96 -16.84,5.93 -1.85,1.55 -3.65,3.83 -3.11,6.4 1.04,3.16 3.8,5.51 6.8,6.77 10.83,4.62 23.53,4.45 34.34,-0.11 3.15,-1.28 6.06,-3.59 7.32,-6.83 1.1,-3.47 -2.06,-6.34 -4.66,-8.05 -7.09,-4.24 -15.81,-4.69 -23.85,-4.11 z"
   id="path562"
   inkscape:connector-curvature="0"
   style="fill:#010000;stroke:#010000;stroke-width:0.5" />
	<path
   d="m 185.114,390.11 c 10.42,-4.41 22.46,-3.88 32.88,0.29 1.44,2.11 3.82,4.42 2.78,7.23 -1.78,4.94 -7.72,5.68 -12.02,7.35 4.26,1.78 9.35,3.26 11.57,7.72 2.71,4.4 0.03,10.09 -4.01,12.62 -9.22,5.68 -21.67,5.92 -31,0.38 -4.18,-2.4 -6.86,-8.14 -4.18,-12.58 2.06,-4.27 6.78,-5.92 10.85,-7.64 -3.7,-1.36 -7.35,-2.87 -10.97,-4.44 -0.49,-1.66 -1.08,-3.31 -1.26,-5.03 0.41,-2.83 2.87,-4.83 5.36,-5.9 m 1.05,4.01 c -0.92,0.75 -2.7,1.34 -2.45,2.81 1.21,1.53 2.96,2.71 4.91,3.01 4.85,1.97 10.17,1.79 15.3,1.56 4.12,-0.4 8.44,-1.21 11.86,-3.71 1.01,-0.56 1.36,-1.39 1.07,-2.51 -2.77,-2.55 -6.58,-3.26 -10.16,-3.92 -6.89,-0.61 -14.29,-0.61 -20.53,2.76 m 10.23,14.51 c -4.17,0.69 -8.36,2.33 -11.24,5.52 -1.64,1.76 -1.51,4.82 0.36,6.38 4.48,4.53 11.33,5.53 17.42,5.1 5.01,-0.44 10.3,-2.13 13.62,-6.13 1.64,-1.85 1.02,-4.8 -0.83,-6.26 -5.04,-4.86 -12.71,-5.53 -19.33,-4.61 z"
   id="path564"
   inkscape:connector-curvature="0"
   style="fill:#010000;stroke:#010000;stroke-width:0.5" />
	<path
   d="m 266.424,388.64 c 8.04,-0.58 16.76,-0.13 23.85,4.11 2.6,1.71 5.76,4.58 4.66,8.05 -1.26,3.24 -4.17,5.55 -7.32,6.83 -10.81,4.56 -23.51,4.73 -34.34,0.11 -3,-1.26 -5.76,-3.61 -6.8,-6.77 -0.54,-2.57 1.26,-4.85 3.11,-6.4 4.68,-3.97 10.89,-5.29 16.84,-5.93 z"
   id="path566"
   inkscape:connector-curvature="0"
   style="fill:#f69994;stroke:#f69994;stroke-width:0.5" />
	<path
   d="m 186.164,394.12 c 6.24,-3.37 13.64,-3.37 20.53,-2.76 -0.12,0.62 -0.37,1.86 -0.5,2.48 -5.88,1.96 -11.95,3.4 -17.57,6.1 -1.95,-0.3 -3.7,-1.48 -4.91,-3.01 -0.25,-1.47 1.53,-2.06 2.45,-2.81 z"
   id="path568"
   inkscape:connector-curvature="0"
   style="fill:#de8a86;stroke:#de8a86;stroke-width:0.5" />
	<path
   d="m 110.394,392.6 c 4.3,-0.75 8.97,-0.16 12.62,2.37 2.14,1.24 3.8,3.49 3.73,6.05 -0.02,3.05 -2.43,5.49 -4.98,6.83 -5.35,2.68 -12.03,2.54 -17.27,-0.35 -2.73,-1.67 -4.75,-5.14 -3.57,-8.34 1.41,-3.93 5.66,-5.78 9.47,-6.56 m -6.25,8.39 c 2.1,4.25 7.35,5.35 11.66,4.63 2.73,-0.44 5.97,-1.66 6.79,-4.61 -0.37,-1.9 -1.95,-3.29 -3.73,-3.86 -5.03,-1.85 -11.68,-1.04 -14.72,3.84 z"
   id="path570"
   inkscape:connector-curvature="0"
   style="fill:#010000;stroke:#010000;stroke-width:0.5" />
	<path
   d="m 206.694,391.36 c 3.58,0.66 7.39,1.37 10.16,3.92 0.29,1.12 -0.06,1.95 -1.07,2.51 -3.42,2.5 -7.74,3.31 -11.86,3.71 -5.13,0.23 -10.45,0.41 -15.3,-1.56 5.62,-2.7 11.69,-4.14 17.57,-6.1 0.13,-0.62 0.38,-1.86 0.5,-2.48 z"
   id="path572"
   inkscape:connector-curvature="0"
   style="fill:#f79a95;stroke:#f79a95;stroke-width:0.5" />
	<path
   d="m 416.344,394.42 c 8.52,-1.77 17.68,-0.97 25.59,2.74 4.74,2.63 9.78,6.92 9.59,12.86 0.32,4.09 -1.93,7.92 -5.02,10.44 -6.4,5.63 -15.27,7.31 -23.55,7.19 -7.74,-0.28 -16.04,-2.2 -21.56,-8.02 -3.67,-3.5 -5.15,-9.36 -2.64,-13.94 3.45,-6.48 10.63,-9.96 17.59,-11.27 m -0.88,4.29 c -3.75,1.13 -7.53,2.64 -10.47,5.3 -2.61,2.33 -4.24,6.28 -2.74,9.67 1.2,3.29 4.25,5.43 7.31,6.86 9.74,4.59 21.65,4.19 31.15,-0.85 3.08,-1.61 5.65,-4.37 6.68,-7.72 0.79,-3.55 -1.43,-7.12 -4.14,-9.23 -8.05,-5.43 -18.52,-6.53 -27.79,-4.03 z"
   id="path574"
   inkscape:connector-curvature="0"
   style="fill:#010000;stroke:#010000;stroke-width:0.5" />
	<path
   d="m 104.144,400.99 c 3.04,-4.88 9.69,-5.69 14.72,-3.84 1.78,0.57 3.36,1.96 3.73,3.86 -0.82,2.95 -4.06,4.17 -6.79,4.61 -4.31,0.72 -9.56,-0.38 -11.66,-4.63 z"
   id="path576"
   inkscape:connector-curvature="0"
   style="fill:#f87670;stroke:#f87670;stroke-width:0.5" />
	<path
   d="m 415.464,398.71 c 9.27,-2.5 19.74,-1.4 27.79,4.03 2.71,2.11 4.93,5.68 4.14,9.23 -1.03,3.35 -3.6,6.11 -6.68,7.72 -9.5,5.04 -21.41,5.44 -31.15,0.85 -3.06,-1.43 -6.11,-3.57 -7.31,-6.86 -1.5,-3.39 0.13,-7.34 2.74,-9.67 2.94,-2.66 6.72,-4.17 10.47,-5.3 z"
   id="path578"
   inkscape:connector-curvature="0"
   style="fill:#fa9d98;stroke:#fa9d98;stroke-width:0.5" />
	<path
   d="m 505.384,406.39 c 1.84,-2.03 3.63,-4.12 5.59,-6.05 2.87,2.42 5.55,5.08 7.99,7.95 -4.74,3.81 -8.76,8.44 -13.7,12 -12.97,9.51 -27.51,16.67 -42.41,22.59 -7.42,2.63 -14.95,5.39 -22.84,6.14 -5.87,0.61 -11.82,-0.65 -17.64,0.49 -4.37,1.06 -6.36,5.71 -7.02,9.74 -1.49,9.15 -2.95,18.36 -5.94,27.17 -1.52,4.49 -4.03,8.54 -6.18,12.74 0.44,0 1.33,0 1.77,0 -18.19,9.95 -36.98,18.85 -55.72,27.73 -5.31,-1.69 -10.23,-4.28 -14.99,-7.12 -4.64,-2.82 -10.68,-3.74 -15.58,-1.03 -9.13,4.62 -13.19,14.8 -21.01,20.99 -3.61,2.84 -8.22,6.43 -13.08,4.75 -4.45,-1.68 -4.35,-7.2 -5.42,-11.07 -2.59,-0.69 -5.38,-1.29 -7.98,-0.26 -8,2.69 -13.16,10.34 -21.32,12.78 -6.79,2.01 -15.52,2.63 -20.78,-3.03 -5.31,-4.89 -7.56,-12.28 -13.22,-16.79 -5.58,-3.98 -12.82,-1.97 -18.78,-0.05 -6.59,2.21 -13.67,3.91 -20.61,2.45 -4.11,-0.78 -8.18,-3.2 -9.88,-7.16 -0.81,-2.4 -0.25,-4.97 -0.08,-7.42 9.66,7.6 22.86,7.08 34.05,3.74 6.58,-1.37 12.09,-5.34 18.16,-7.95 2.83,9.15 9.24,17.94 18.66,20.96 7.16,2.67 15.1,2.05 22.33,0.01 7.49,-1.97 14.84,-4.98 21.02,-9.72 1.64,2.96 3.28,6.3 6.44,7.91 4.34,1.86 9.39,2.13 13.73,0.1 8.82,-3.98 14.54,-12.18 21.95,-18.08 2.73,-2.16 6.36,-4.18 9.91,-2.85 4.25,2.3 6.58,7.33 11.33,8.84 5.19,1.01 11.2,0.19 15.19,-3.51 2.87,-2.9 1.88,-7.15 1.37,-10.72 6.13,1.08 11.93,4.58 18.31,3.81 7.57,-1.25 12.64,-7.65 17.26,-13.19 12.03,-15.09 12,-35.91 8.67,-54.02 20.44,0.08 40.91,-2.81 60.42,-8.99 14.81,-5 28.99,-12.66 40.03,-23.88 z"
   id="path580"
   inkscape:connector-curvature="0"
   style="fill:#d7ce5f;stroke:#d7ce5f;stroke-width:0.5" />
	<path
   d="m 134.104,408.37 c 5.94,-6.48 17.29,-6.07 23.65,-0.33 -5.27,2.98 -11.51,3.02 -17.39,2.74 -2.3,-0.09 -4.3,-1.35 -6.26,-2.41 z"
   id="path582"
   inkscape:connector-curvature="0"
   style="fill:#de8985;stroke:#de8985;stroke-width:0.5" />
	<path
   d="m 307.434,420.46 c 3.96,-4.49 6.51,-9.97 9.54,-15.08 8.99,8.56 18.95,16.23 30.32,21.38 9.78,4.77 20.31,7.85 30.94,10.06 7.41,1.59 15.02,1.58 22.53,2.47 2.1,8.71 2.22,17.73 1.77,26.63 -1,13.34 -7.9,26.05 -18.55,34.12 -2.68,2.07 -6.18,3.33 -9.55,2.38 -5.73,-1.47 -11.31,-4.85 -17.42,-3.26 -1.02,3.55 0.62,7.15 0.05,10.68 -3.36,3.2 -9.11,4.56 -13.33,2.34 -3.45,-2.5 -5.99,-6.06 -9.57,-8.43 -4.32,-3.48 -9.81,-6.75 -15.57,-5.22 -6.47,1.48 -9.18,8.69 -15.18,10.97 -4.93,1.73 -9.48,-2.79 -10.58,-7.29 -1.56,-6.62 -0.63,-13.48 -0.84,-20.2 -0.34,-16.76 3.83,-33.29 2.97,-50.06 4.34,-3.62 8.89,-7.06 12.47,-11.49 m 84.19,32.14 c -7.84,4.55 -11.54,13.29 -16.77,20.27 -6.36,5.89 -15.39,8.05 -23.88,8.03 -4.88,-0.36 -4.62,5.54 -5.4,8.84 -6.79,1.9 -14.16,1.58 -20.65,4.53 -1.07,1.93 0.65,4.09 2.74,3.16 5.91,-1.82 12.1,-2.34 18.12,-3.59 3.98,-0.82 4.18,-5.34 4.67,-8.57 9.01,-0.45 18.42,-2.49 25.69,-8.09 6.27,-6.17 9.13,-15.3 16.45,-20.53 2.4,-0.71 4.95,-0.55 7.43,-0.84 -0.14,-4.19 -5.39,-5.16 -8.4,-3.21 z"
   id="path584"
   inkscape:connector-curvature="0"
   style="fill:#25b725;stroke:#25b725;stroke-width:0.5" />
	<path
   d="m 53.494,426.59 c 1.21,-6.78 3.46,-13.35 6.35,-19.59 -1.53,8.54 -3.87,17.33 -1.83,26 2.79,12.07 10.97,21.92 19.33,30.67 8.33,8.7 17.54,16.5 26.69,24.31 6.25,5.38 12.9,10.48 17.71,17.29 12.17,16.57 20.84,35.39 28.71,54.3 4.7,12.57 9.62,25.26 11.37,38.65 0.9,4.03 -1.71,7.47 -4.46,10.07 -6.02,-29.35 -16.99,-57.53 -30.59,-84.17 -4.42,-7.91 -8.69,-16.19 -15.54,-22.33 -15.83,-14.93 -35.42,-25.67 -49.5,-42.5 -3.42,-4.47 -7,-9.09 -8.42,-14.64 -1.66,-5.9 -1,-12.14 0.18,-18.06 z"
   id="path586"
   inkscape:connector-curvature="0"
   style="fill:#fa8a19;stroke:#fa8a19;stroke-width:0.5" />
	<path
   d="m 133.474,408.02 0.63,0.35 c 1.96,1.06 3.96,2.32 6.26,2.41 5.88,0.28 12.12,0.24 17.39,-2.74 0.31,1.69 0.93,3.79 -0.68,5.07 -6.25,5.16 -16.17,5.36 -22.61,0.44 -1.74,-1.32 -0.9,-3.7 -0.99,-5.53 z"
   id="path588"
   inkscape:connector-curvature="0"
   style="fill:#f69994;stroke:#f69994;stroke-width:0.5" />
	<path
   d="m 196.394,408.63 c 6.62,-0.92 14.29,-0.25 19.33,4.61 1.85,1.46 2.47,4.41 0.83,6.26 -3.32,4 -8.61,5.69 -13.62,6.13 -6.09,0.43 -12.94,-0.57 -17.42,-5.1 -1.87,-1.56 -2,-4.62 -0.36,-6.38 2.88,-3.19 7.07,-4.83 11.24,-5.52 z"
   id="path590"
   inkscape:connector-curvature="0"
   style="fill:#f69994;stroke:#f69994;stroke-width:0.5" />
	<path
   d="m 505.264,420.29 c 4.94,-3.56 8.96,-8.19 13.7,-12 12.94,14.61 23.84,30.87 34.72,47.03 11.18,17.35 22.36,34.78 31.59,53.26 -27.53,-12.54 -56.78,-21.07 -86.51,-26.47 -18.96,-2.93 -38.54,-4.6 -57.52,-0.83 -13.49,2.8 -23.76,12.76 -36.24,17.88 -0.44,0 -1.33,0 -1.77,0 2.15,-4.2 4.66,-8.25 6.18,-12.74 2.99,-8.81 4.45,-18.02 5.94,-27.17 0.66,-4.03 2.65,-8.68 7.02,-9.74 5.82,-1.14 11.77,0.12 17.64,-0.49 7.89,-0.75 15.42,-3.51 22.84,-6.14 14.9,-5.92 29.44,-13.08 42.41,-22.59 z"
   id="path592"
   inkscape:connector-curvature="0"
   style="fill:#efe56a;stroke:#efe56a;stroke-width:0.5" />
	<path
   d="m 230.374,412.43 c 4.76,-1.27 10.32,-1.15 14.52,1.69 2.12,1.29 2.53,4.68 0.49,6.25 -3.8,3.48 -9.52,3.62 -14.33,2.77 -2.95,-0.59 -6.99,-2.41 -6.37,-6.09 0.32,-2.85 3.37,-3.84 5.69,-4.62 m -1.83,5.5 c 4.3,2.47 9.67,2.14 14.04,0.02 -3.46,-3.6 -10.24,-2.96 -14.04,-0.02 z"
   id="path594"
   inkscape:connector-curvature="0"
   style="fill:#010000;stroke:#010000;stroke-width:0.5" />
	<path
   d="m 228.544,417.93 c 3.8,-2.94 10.58,-3.58 14.04,0.02 -4.37,2.12 -9.74,2.45 -14.04,-0.02 z"
   id="path596"
   inkscape:connector-curvature="0"
   style="fill:#fb7872;stroke:#fb7872;stroke-width:0.5" />
	<path
   d="m 156.254,420.02 c 4.75,-4.44 12.42,-3.99 17.71,-0.77 -1.26,2.63 -4.33,3.37 -6.98,3.68 -3.74,0.36 -8.01,0.02 -10.73,-2.91 z"
   id="path598"
   inkscape:connector-curvature="0"
   style="fill:#f97670;stroke:#f97670;stroke-width:0.5" />
	<path
   d="m 110.074,422.62 c 2.01,1.06 3.92,2.32 5.6,3.86 -0.39,3.13 -0.82,6.44 0.43,9.45 2,5.28 5.94,9.47 9.23,13.96 -12.12,-1.17 -22.16,-16.08 -15.26,-27.27 z"
   id="path600"
   inkscape:connector-curvature="0"
   style="fill:#21a521;stroke:#21a521;stroke-width:0.5" />
	<path
   d="m 116.104,435.93 c -1.25,-3.01 -0.82,-6.32 -0.43,-9.45 8.88,5.55 18.24,10.37 28.22,13.6 10.34,4.01 21.35,5.57 32.11,7.93 -6.11,6.01 -13.5,11.3 -22.01,13.05 -3.44,0.93 -5.33,-2.58 -7.85,-4.14 -6.37,-3.81 -14.42,-3.44 -20.81,-7.03 -3.29,-4.49 -7.23,-8.68 -9.23,-13.96 z"
   id="path602"
   inkscape:connector-curvature="0"
   style="fill:#25b725;stroke:#25b725;stroke-width:0.5" />
	<path
   d="m 288.484,435.56 c 1.86,-1.68 4.23,-2.58 6.48,-3.61 0.86,16.77 -3.31,33.3 -2.97,50.06 0.21,6.72 -0.72,13.58 0.84,20.2 1.1,4.5 5.65,9.02 10.58,7.29 6,-2.28 8.71,-9.49 15.18,-10.97 5.76,-1.53 11.25,1.74 15.57,5.22 -3.84,-0.03 -7.99,-0.14 -11.29,2.17 -8.44,5.69 -14.16,14.94 -23.55,19.32 -4.55,2.33 -11.71,1.42 -13.66,-3.9 -3.63,-8.96 -3.61,-18.84 -3.52,-28.34 0.15,-16.77 2.77,-33.37 4.78,-49.98 0.38,-2.51 0.63,-5.08 1.56,-7.46 z"
   id="path604"
   inkscape:connector-curvature="0"
   style="fill:#21a421;stroke:#21a421;stroke-width:0.5" />
	<path
   d="m 261.764,444.83 c 7.34,-2.15 14.65,-4.44 21.89,-6.96 -3.32,21.9 -6.06,44.02 -5.39,66.21 -0.08,3.93 1.19,7.83 0.82,11.74 -2.33,4.31 -6.99,6.33 -11.36,7.93 -7.5,3.02 -15.56,5.57 -23.74,4.5 -10.15,-1.13 -18.67,-9.52 -20.91,-19.31 0.12,-7.18 3.39,-13.84 6.91,-19.94 8.79,-15.95 20.83,-29.73 31.78,-44.17 m -22.56,31.45 c -4.38,8.01 -7.04,17.79 -4.21,26.76 1.91,6.35 7.05,11.32 13,13.99 1.53,0.48 3.78,1.62 4.79,-0.28 0.64,-2.53 -2.84,-2.95 -4.35,-4.17 -7.43,-3.24 -11.69,-11.7 -10.56,-19.62 0.39,-6.5 3.74,-12.16 6.38,-17.93 -1.82,-1.6 -4.12,-0.89 -5.05,1.25 z"
   id="path606"
   inkscape:connector-curvature="0"
   style="fill:#25b725;stroke:#25b725;stroke-width:0.5" />
	<path
   d="m 246.004,447.88 c 3,-1.51 6.6,-1.37 9.88,-1.87 -10.46,12.69 -20.56,25.77 -28.89,39.99 -2.82,5.07 -5.41,10.3 -7.23,15.83 -1.16,4.16 -5.9,5.34 -9.16,7.42 -1.31,-10.49 3.7,-20.63 9.85,-28.8 8.38,-10.97 18.49,-20.6 25.55,-32.57 z"
   id="path608"
   inkscape:connector-curvature="0"
   style="fill:#21a421;stroke:#21a421;stroke-width:0.5" />
	<path
   d="m 178.824,448.3 c 9.43,1.18 18.91,1.75 28.4,2.13 -3.04,3.87 -6.89,6.98 -10.43,10.37 -12.46,11.34 -25.43,22.22 -39.6,31.38 -4.74,2.7 -9.43,5.73 -14.79,7.03 -3.38,-2.09 -7.21,-3.68 -9.88,-6.72 -2.28,-2.63 -2.35,-6.3 -2.76,-9.57 6.67,-0.22 13.5,-0.54 19.62,-3.5 9.64,-4.69 18.74,-11.66 23.71,-21.37 1.73,-3.37 4.63,-6.05 5.73,-9.75 z"
   id="path610"
   inkscape:connector-curvature="0"
   style="fill:#25b725;stroke:#25b725;stroke-width:0.5" />
	<path
   d="m 219.954,449.97 c 8.72,-0.18 17.35,-1.57 26.05,-2.09 -7.06,11.97 -17.17,21.6 -25.55,32.57 -6.15,8.17 -11.16,18.31 -9.85,28.8 -9.06,4.64 -19.33,7.59 -29.58,6.58 -8.95,-1.02 -16.33,-8.05 -19.26,-16.36 9.22,-1.56 17.67,-6.01 25,-11.69 5.21,-4.07 10.35,-8.34 14.4,-13.61 6.24,-8.07 11.21,-17.23 18.79,-24.2 z"
   id="path612"
   inkscape:connector-curvature="0"
   style="fill:#25b725;stroke:#25b725;stroke-width:0.5" />
	<path
   d="m 211.674,450.43 c 2.75,-0.23 5.51,-0.36 8.28,-0.46 -7.58,6.97 -12.55,16.13 -18.79,24.2 -4.05,5.27 -9.19,9.54 -14.4,13.61 -7.33,5.68 -15.78,10.13 -25,11.69 -0.58,-1.43 -1.13,-2.86 -1.67,-4.3 17.51,-11.44 33.26,-25.32 48.26,-39.83 1.43,-1.39 2.41,-3.15 3.32,-4.91 z"
   id="path614"
   inkscape:connector-curvature="0"
   style="fill:#21a421;stroke:#21a421;stroke-width:0.5" />
	<path
   d="m 118.174,452.26 c 4.9,1.88 9.95,3.28 14.95,4.83 -3.63,0.15 -7.21,0.81 -10.78,1.48 -0.34,7.58 5.38,13.21 8.78,19.42 -6.3,-0.45 -12,-4.5 -15.5,-9.61 -3.18,-5.22 -0.94,-11.68 2.55,-16.12 z"
   id="path616"
   inkscape:connector-curvature="0"
   style="fill:#21a421;stroke:#21a421;stroke-width:0.5" />
	<path
   d="m 391.624,452.6 c 3.01,-1.95 8.26,-0.98 8.4,3.21 -2.48,0.29 -5.03,0.13 -7.43,0.84 -7.32,5.23 -10.18,14.36 -16.45,20.53 -7.27,5.6 -16.68,7.64 -25.69,8.09 -0.49,3.23 -0.69,7.75 -4.67,8.57 -6.02,1.25 -12.21,1.77 -18.12,3.59 -2.09,0.93 -3.81,-1.23 -2.74,-3.16 6.49,-2.95 13.86,-2.63 20.65,-4.53 0.78,-3.3 0.52,-9.2 5.4,-8.84 8.49,0.02 17.52,-2.14 23.88,-8.03 5.23,-6.98 8.93,-15.72 16.77,-20.27 z"
   id="path618"
   inkscape:connector-curvature="0"
   style="fill:#000100;stroke:#000100;stroke-width:0.5" />
	<path
   d="m 122.344,458.57 c 3.57,-0.67 7.15,-1.33 10.78,-1.48 3.25,0.26 6.49,1.06 9.45,2.44 3.06,1.44 4.86,5.11 8.46,5.43 5.08,0.64 9.68,-2.07 14.47,-3.25 -4.78,6.93 -12.21,11.73 -19.92,14.85 -4.44,1.91 -9.3,2.43 -14.08,2.05 l -0.38,-0.62 c -3.4,-6.21 -9.12,-11.84 -8.78,-19.42 z"
   id="path620"
   inkscape:connector-curvature="0"
   style="fill:#25b725;stroke:#25b725;stroke-width:0.5" />
	<path
   d="m 68.544,480.45 c -0.97,-2.27 0.21,-4.88 1.22,-6.96 8.19,6.78 16.54,13.35 25.04,19.74 9.23,7.29 19.12,14.72 24.16,25.71 -15.5,-5.08 -28.65,-15.45 -40.11,-26.79 -3.57,-3.76 -7.41,-7.37 -10.31,-11.7 z"
   id="path622"
   inkscape:connector-curvature="0"
   style="fill:#b52002;stroke:#b52002;stroke-width:0.5" />
	<path
   d="m 239.204,476.28 c 0.93,-2.14 3.23,-2.85 5.05,-1.25 -2.64,5.77 -5.99,11.43 -6.38,17.93 -1.13,7.92 3.13,16.38 10.56,19.62 1.51,1.22 4.99,1.64 4.35,4.17 -1.01,1.9 -3.26,0.76 -4.79,0.28 -5.95,-2.67 -11.09,-7.64 -13,-13.99 -2.83,-8.97 -0.17,-18.75 4.21,-26.76 z"
   id="path624"
   inkscape:connector-curvature="0"
   style="fill:#000100;stroke:#000100;stroke-width:0.5" />
	<path
   d="m 124.364,481.09 c 1.78,0.27 3.54,0.58 5.31,0.91 l 0.09,0.92 c 0.41,3.27 0.48,6.94 2.76,9.57 2.67,3.04 6.5,4.63 9.88,6.72 -6.53,2.79 -15.14,0.47 -18.71,-5.83 -2.12,-3.9 -0.57,-8.39 0.67,-12.29 z"
   id="path626"
   inkscape:connector-curvature="0"
   style="fill:#21a521;stroke:#21a521;stroke-width:0.5" />
	<path
   d="m 434.584,487.56 c 16.44,-5.79 34.27,-5.12 51.34,-3.16 29.24,3.66 57.82,11.71 85.23,22.41 5.66,2.67 11.73,4.65 16.78,8.45 -0.39,3.57 -0.93,7.12 -1.49,10.67 -13.16,-3.99 -25.88,-9.3 -39.02,-13.34 -19.67,-4.83 -39.2,-10.21 -58.85,-15.09 -12.18,-3.7 -25.32,-2.81 -37.48,0.51 -11.03,2.38 -21.66,6.39 -31.82,11.27 -33.73,14.61 -67.37,29.47 -101.38,43.44 -2.32,-1.83 -5.07,-2.96 -8,-3.29 35.96,-16.47 72.07,-32.72 106.8,-51.71 6.06,-3.22 11.5,-7.58 17.89,-10.16 z"
   id="path628"
   inkscape:connector-curvature="0"
   style="fill:#e59145;stroke:#e59145;stroke-width:0.5" />
	<path
   enable-background="new    "
   d="m 64.104,489.71 c -1.91,0.11 -2.04,-4.36 -0.16,-4.32 0.13,1.43 0.17,2.87 0.16,4.32 z"
   id="path630"
   inkscape:connector-curvature="0"
   style="opacity:0.67000002;fill:#6f1301;stroke:#6f1301;stroke-width:0.5" />
	<path
   d="m 67.994,486.83 c 14.82,15.81 31.83,30.95 53.08,37.14 3.04,2.1 4.05,6.17 5.84,9.3 -19.6,-0.31 -39.68,-8.52 -52.25,-23.9 -4.59,-6.52 -6.22,-14.7 -6.67,-22.54 z"
   id="path632"
   inkscape:connector-curvature="0"
   style="fill:#b52002;stroke:#b52002;stroke-width:0.5" />
	<path
   d="m 119.584,494.88 c 4.31,6.35 12.12,11.04 19.97,9.46 6.22,-0.95 11.43,-4.72 17.28,-6.75 0.69,2.2 1.41,4.4 2.15,6.59 -9.52,1.42 -18.09,6.13 -27.54,7.85 -1.23,-1.65 -2.66,-3.23 -3.35,-5.19 -0.2,-0.49 -0.61,-1.45 -0.82,-1.94 -2.68,-2.68 -5.67,-5.36 -7.47,-8.7 -0.05,-0.33 -0.16,-0.99 -0.22,-1.32 z"
   id="path634"
   inkscape:connector-curvature="0"
   style="fill:#d8cf5f;stroke:#d8cf5f;stroke-width:0.5" />
	<path
   d="m 444.104,504.06 c 12.69,-3.93 26.31,-6.82 39.52,-3.74 17.13,4.51 34.29,8.91 51.47,13.24 -4.97,3.27 -10.8,4.81 -16.14,7.33 -28.12,11.15 -57.33,19.43 -87.04,25.05 -32.67,5.63 -66.06,8.87 -99.17,5.57 3.01,-2.2 6.54,-3.43 9.98,-4.76 27.03,-11.58 54.06,-23.15 80.94,-35.08 6.66,-2.92 13.32,-5.93 20.44,-7.61 z"
   id="path636"
   inkscape:connector-curvature="0"
   style="fill:#b52002;stroke:#b52002;stroke-width:0.5" />
	<path
   d="m 131.444,512.03 c 9.45,-1.72 18.02,-6.43 27.54,-7.85 2.23,3.47 4.75,6.74 7.57,9.75 -0.17,2.45 -0.73,5.02 0.08,7.42 1.7,3.96 5.77,6.38 9.88,7.16 6.94,1.46 14.02,-0.24 20.61,-2.45 5.96,-1.92 13.2,-3.93 18.78,0.05 5.66,4.51 7.91,11.9 13.22,16.79 5.26,5.66 13.99,5.04 20.78,3.03 8.16,-2.44 13.32,-10.09 21.32,-12.78 2.6,-1.03 5.39,-0.43 7.98,0.26 1.07,3.87 0.97,9.39 5.42,11.07 4.86,1.68 9.47,-1.91 13.08,-4.75 7.82,-6.19 11.88,-16.37 21.01,-20.99 4.9,-2.71 10.94,-1.79 15.58,1.03 4.76,2.84 9.68,5.43 14.99,7.12 -36.06,16.8 -72.4,33 -109.12,48.3 -17.02,7.21 -34.17,14.1 -51.49,20.56 -7.58,2.28 -14.83,5.9 -22.75,6.9 0.01,-12.3 -4.38,-23.95 -8.24,-35.44 -7.1,-19.12 -15.69,-37.71 -26.24,-55.18 z"
   id="path638"
   inkscape:connector-curvature="0"
   style="fill:#efe56a;stroke:#efe56a;stroke-width:0.5" />
	<path
   enable-background="new    "
   d="m 127.274,504.9 c 0.21,0.49 0.62,1.45 0.82,1.94 l -0.89,-0.17 -0.42,-0.99 z"
   id="path640"
   inkscape:connector-curvature="0"
   style="opacity:0.93000034;fill:#66622d;stroke:#66622d;stroke-width:0.5" />
	<path
   d="m 523.374,523.38 c 6.38,-2.15 12.11,-5.96 18.64,-7.63 4.24,0.46 8.35,1.77 12.3,3.38 -4.91,3.47 -10.54,5.68 -15.86,8.41 -47.52,22.07 -99.59,32.46 -151.53,36.98 -27.96,2.05 -56.1,2.03 -84.05,-0.11 2.4,-2.89 6.44,-3.37 9.68,-4.93 5.1,-1.66 9.82,-5.66 15.47,-4.54 23.5,2.83 47.29,2.17 70.79,-0.31 25.56,-2.36 50.75,-7.73 75.52,-14.37 16.57,-4.96 33.08,-10.19 49.04,-16.88 z"
   id="path642"
   inkscape:connector-curvature="0"
   style="fill:#b52002;stroke:#b52002;stroke-width:0.5" />
	<path
   d="m 517.464,541.05 c 11.26,-4.82 22.52,-9.62 33.52,-15.01 1.19,10.49 0.95,21.22 -1.39,31.55 -1.86,9.7 -7.08,19.07 -15.58,24.44 -18.99,12.38 -40.66,20.05 -62.58,25.35 -12.35,2.36 -24.82,4.51 -37.43,4.5 -23.65,0.46 -47.98,-4.73 -67.8,-18.09 -9.91,-6.73 -20.46,-13.48 -27.21,-23.63 46.62,0.26 93.33,-5 138.51,-16.57 -0.26,3.49 -0.87,7.45 1.48,10.43 2.95,3.84 8.08,4.68 12.53,5.65 9.17,1.58 18.8,2.1 27.87,-0.35 5.3,-1.56 10.83,-4.43 13.13,-9.77 2.05,-3.86 0.65,-8.72 -2.46,-11.57 -3.59,-3.28 -8.22,-4.99 -12.59,-6.93 m -60.08,32.44 c -2.25,0.74 -4.52,1.96 -5.78,4.04 -0.74,2.15 -0.45,5.03 1.7,6.28 5.15,3.37 12.34,3.38 17.51,0.05 2.34,-1.43 3.39,-4.92 1.51,-7.12 -3.5,-4.33 -9.96,-4.67 -14.94,-3.25 m -58.96,2.22 c -4.93,1.2 -10.75,3.19 -12.63,8.43 -1.37,5.09 3.87,8.52 7.91,10.13 8.08,2.79 17.29,2.69 25.3,-0.31 3.63,-1.68 8.47,-4.25 7.98,-8.96 0.14,-3.45 -2.89,-5.86 -5.7,-7.21 -7.09,-3.26 -15.29,-3.7 -22.86,-2.08 z"
   id="path644"
   inkscape:connector-curvature="0"
   style="fill:#f43a31;stroke:#f43a31;stroke-width:0.5" />
	<path
   enable-background="new    "
   d="m 95.134,531.65 c -1.24,-2.56 4.65,-1.84 3.41,0.49 -1.15,-0.08 -2.29,-0.24 -3.41,-0.49 z"
   id="path646"
   inkscape:connector-curvature="0"
   style="opacity:0.51000001;fill:#092d09;stroke:#092d09;stroke-width:0.5" />
	<path
   d="m 95.134,531.65 c 1.12,0.25 2.26,0.41 3.41,0.49 3.08,0.34 5.92,1.65 8.89,2.43 6.93,1.84 14.1,2.58 21.24,2.89 5.19,10.18 9.43,20.86 13.24,31.63 -5.66,3.28 -12.3,4.73 -18.76,5.23 -8.4,-2.66 -17.72,-4.79 -23.87,-11.59 -2.31,-2.33 -2.99,-5.62 -3.35,-8.75 7.79,0.07 14.55,5.63 22.48,4.3 2.98,-0.45 7.25,1.57 8.7,-2.14 -1.15,-1.1 -2.53,-1.97 -4.16,-2.04 -8.67,-1.12 -17.6,-3.14 -24.88,-8.2 -4.44,-3.18 -6.34,-9.6 -2.94,-14.25 z"
   id="path648"
   inkscape:connector-curvature="0"
   style="fill:#25b725;stroke:#25b725;stroke-width:0.5" />
	<path
   d="m 507.394,544.38 c 1.43,-0.5 2.97,-1.3 4.49,-0.54 5.85,2.08 12.73,3.4 16.66,8.68 1.49,1.67 1.17,4.22 0.07,6.02 -2.46,3.77 -6.62,6.16 -10.96,7.11 -8.93,1.84 -18.18,1.26 -27.13,-0.21 -2.9,-0.71 -6.28,-1.25 -8.24,-3.74 -1.63,-2.82 -0.97,-6.32 0.15,-9.19 8.13,-3.23 16.83,-4.86 24.96,-8.13 z"
   id="path650"
   inkscape:connector-curvature="0"
   style="fill:#fa9d98;stroke:#fa9d98;stroke-width:0.5" />
	<path
   d="m 85.344,564.67 c -1.2,-6.79 4.23,-12.51 9.51,-15.88 3.38,2.22 6.89,4.32 10.77,5.54 4.21,1.51 8.75,1.96 12.79,3.95 -7.93,1.33 -14.69,-4.23 -22.48,-4.3 0.36,3.13 1.04,6.42 3.35,8.75 6.15,6.8 15.47,8.93 23.87,11.59 -8.76,1.75 -17.91,1.08 -26.57,-0.92 -4.65,-1.16 -10.34,-3.37 -11.24,-8.73 z"
   id="path652"
   inkscape:connector-curvature="0"
   style="fill:#21a521;stroke:#21a521;stroke-width:0.5" />
	<path
   d="m 199.854,595.85 c 37.14,-14.35 73.63,-30.32 110.04,-46.42 2.93,0.33 5.68,1.46 8,3.29 -24.67,10.65 -49.62,20.62 -74.55,30.65 -19.15,7.33 -38.19,14.98 -57.72,21.24 -8.19,2.91 -16.56,5.36 -25.06,7.15 1.11,-1.54 1.76,-3.88 3.7,-4.5 12.28,-2.35 23.89,-7.13 35.59,-11.41 z"
   id="path654"
   inkscape:connector-curvature="0"
   style="fill:#fa8b19;stroke:#fa8b19;stroke-width:0.5" />
	<path
   enable-background="new    "
   d="m 83.334,555.02 c -1.55,-1.01 0.12,-3.95 1.75,-2.9 -0.41,1.06 -1.01,2.03 -1.75,2.9 z"
   id="path656"
   inkscape:connector-curvature="0"
   style="opacity:0.62999998;fill:#135d13;stroke:#135d13;stroke-width:0.5" />
	<path
   d="m 193.264,606.46 c 33.37,-11.8 66.18,-25.12 98.93,-38.52 1.5,-0.68 3.16,-0.46 4.74,-0.33 9.65,1.04 19.34,1.88 29.06,1.96 0.43,3.38 -1.5,6.42 -3.23,9.14 -5.75,8.09 -14.53,13.06 -22.52,18.58 -6.47,4.92 -14.69,6.22 -22.21,8.77 -28.01,7.15 -57.87,8.76 -86.04,1.52 0.32,-0.28 0.96,-0.84 1.27,-1.12 z"
   id="path658"
   inkscape:connector-curvature="0"
   style="fill:#f43a31;stroke:#f43a31;stroke-width:0.5" />
	<path
   d="m 330.344,570.02 c 1.76,0.12 4.33,-0.58 5.01,1.66 1.54,3.39 4.71,5.77 6.39,8.96 -1.03,6.98 -2.42,13.93 -4.42,20.71 -2.48,8.44 -3.56,17.18 -5.26,25.79 -0.63,3.95 -1.71,8.48 0.76,12.06 3.13,4.77 9.36,5.33 14.4,6.76 -5.17,3.12 -11.48,2.65 -17.25,2.19 -4.45,-0.58 -9.46,-1.1 -12.77,-4.47 -0.58,-1.84 0.8,-3.43 1.47,-5.02 3.84,-7 4.63,-15.06 6.23,-22.74 2.88,-15.16 4.07,-30.56 5.44,-45.9 z"
   id="path660"
   inkscape:connector-curvature="0"
   style="fill:#21a421;stroke:#21a421;stroke-width:0.5" />
	<path
   d="m 120.994,578.94 c 7.8,-0.82 15.41,-2.63 22.61,-5.76 3.33,11.18 7.49,22.2 9.16,33.79 -6.77,-0.3 -13.5,-2.02 -19.46,-5.25 -2.41,-1.39 -4.87,-3.04 -6.17,-5.57 -1.15,-2.22 -2.52,-4.32 -4.08,-6.27 -2.28,-3.13 -1.69,-7.3 -2.06,-10.94 z"
   id="path662"
   inkscape:connector-curvature="0"
   style="fill:#25b725;stroke:#25b725;stroke-width:0.5" />
	<path
   d="m 457.384,573.49 c 4.98,-1.42 11.44,-1.08 14.94,3.25 1.88,2.2 0.83,5.69 -1.51,7.12 -5.17,3.33 -12.36,3.32 -17.51,-0.05 -2.15,-1.25 -2.44,-4.13 -1.7,-6.28 1.26,-2.08 3.53,-3.3 5.78,-4.04 m -2.5,5.69 c 3.08,4.57 9.6,3.51 13.95,1.53 0,-0.62 0,-1.85 0,-2.47 -4.54,-1.64 -9.79,-1.81 -13.95,0.94 z"
   id="path664"
   inkscape:connector-curvature="0"
   style="fill:#010000;stroke:#010000;stroke-width:0.5" />
	<path
   d="m 398.424,575.71 c 7.57,-1.62 15.77,-1.18 22.86,2.08 2.81,1.35 5.84,3.76 5.7,7.21 0.49,4.71 -4.35,7.28 -7.98,8.96 -8.01,3 -17.22,3.1 -25.3,0.31 -4.04,-1.61 -9.28,-5.04 -7.91,-10.13 1.88,-5.24 7.7,-7.23 12.63,-8.43 m 2.89,3.48 c -3.79,0.7 -7.83,1.76 -10.68,4.51 -2.02,1.98 -0.07,4.79 2.03,5.68 6.33,2.91 13.65,3.42 20.44,1.99 3.63,-0.89 8.05,-1.76 9.83,-5.49 0.4,-2.16 -1.85,-3.5 -3.4,-4.47 -5.6,-2.74 -12.12,-3.14 -18.22,-2.22 z"
   id="path666"
   inkscape:connector-curvature="0"
   style="fill:#010000;stroke:#010000;stroke-width:0.5" />
	<path
   enable-background="new    "
   d="m 93.714,586.06 c -0.42,-3.02 -1.18,-6.24 0.12,-9.14 0.09,3.04 -0.09,6.09 -0.12,9.14 z"
   id="path668"
   inkscape:connector-curvature="0"
   style="opacity:0.76000001;fill:#4c4127;stroke:#4c4127;stroke-width:0.5" />
	<path
   d="m 93.834,576.92 c 7.39,1.92 15.04,2.27 22.64,2.51 0.51,4.17 0.94,8.46 2.79,12.3 1.22,2.9 3.23,5.35 4.69,8.12 2.26,7.35 8.76,13.19 8.19,21.34 -2.91,-0.9 -4.96,-3.22 -7.25,-5.07 -7.37,-5.92 -14.78,-11.84 -21.44,-18.57 -3.52,-3.57 -7.36,-7.01 -9.74,-11.49 0.03,-3.05 0.21,-6.1 0.12,-9.14 z"
   id="path670"
   inkscape:connector-curvature="0"
   style="fill:#d5b76f;stroke:#d5b76f;stroke-width:0.5" />
	<path
   d="m 454.884,579.18 c 4.16,-2.75 9.41,-2.58 13.95,-0.94 0,0.62 0,1.85 0,2.47 -4.35,1.98 -10.87,3.04 -13.95,-1.53 z"
   id="path672"
   inkscape:connector-curvature="0"
   style="fill:#f97670;stroke:#f97670;stroke-width:0.5" />
	<path
   d="m 401.314,579.19 c 6.1,-0.92 12.62,-0.52 18.22,2.22 1.55,0.97 3.8,2.31 3.4,4.47 -1.78,3.73 -6.2,4.6 -9.83,5.49 -6.79,1.43 -14.11,0.92 -20.44,-1.99 -2.1,-0.89 -4.05,-3.7 -2.03,-5.68 2.85,-2.75 6.89,-3.81 10.68,-4.51 z"
   id="path674"
   inkscape:connector-curvature="0"
   style="fill:#fa9d98;stroke:#fa9d98;stroke-width:0.5" />
	<path
   d="m 337.324,601.35 c 2,-6.78 3.39,-13.73 4.42,-20.71 10.75,8.74 21.89,17.15 34.25,23.53 -3.67,12.8 -9.19,25.56 -18.67,35.15 -2.94,2.75 -6.11,5.58 -10.1,6.64 -5.04,-1.43 -11.27,-1.99 -14.4,-6.76 -2.47,-3.58 -1.39,-8.11 -0.76,-12.06 1.7,-8.61 2.78,-17.35 5.26,-25.79 z"
   id="path676"
   inkscape:connector-curvature="0"
   style="fill:#25b725;stroke:#25b725;stroke-width:0.5" />
	<path
   d="m 319.674,588.78 c 0.99,-2.46 3.48,-3.98 5.3,-5.82 -1.23,14.11 -2.75,28.24 -5.94,42.07 -0.45,2.03 -1.29,3.95 -2.32,5.75 -3.27,-6.17 -1.33,-13.19 -0.79,-19.74 0.67,-7.52 2.85,-14.78 3.75,-22.26 z"
   id="path678"
   inkscape:connector-curvature="0"
   style="fill:#21a521;stroke:#21a521;stroke-width:0.5" />
	<path
   d="m 293.394,605.43 c 9.92,-3.51 17.69,-10.88 26.28,-16.65 -0.9,7.48 -3.08,14.74 -3.75,22.26 -0.54,6.55 -2.48,13.57 0.79,19.74 0.6,4.43 -2.98,8.22 -5.04,11.88 -4.82,7.99 -16.35,9.24 -23.84,4.53 -3.89,-2.63 -5.58,-7.48 -4.76,-12.02 0.17,-3.33 -2.42,-5.74 -4.31,-8.15 -5.01,2.77 -8.35,8.21 -14.12,9.61 -5.62,1.45 -12.64,-0.27 -15.61,-5.6 -2.21,-4.9 -0.33,-10.86 -3.68,-15.39 16.39,-1.22 32.58,-4.66 48.04,-10.21 z"
   id="path680"
   inkscape:connector-curvature="0"
   style="fill:#25b725;stroke:#25b725;stroke-width:0.5" />
	<path
   d="m 123.054,589.88 c 1.56,1.95 2.93,4.05 4.08,6.27 -2.07,-1.54 -3.35,-3.84 -4.08,-6.27 z"
   id="path682"
   inkscape:connector-curvature="0"
   style="fill:#f7d17c;stroke:#f7d17c;stroke-width:0.5" />
	<path
   d="m 92.304,591.85 c 11.68,12.9 25.22,23.89 38.72,34.81 -2.11,5.28 -4.57,10.42 -6.54,15.76 -1.98,5.31 -2.2,11.03 -2.59,16.63 -6.14,-4.42 -11.78,-9.5 -17.3,-14.65 -3.17,-3.25 -6.56,-6.58 -8.04,-10.99 -5.02,-13.19 -5.02,-27.66 -4.25,-41.56 z"
   id="path684"
   inkscape:connector-curvature="0"
   style="fill:#e29e05;stroke:#e29e05;stroke-width:0.5" />
	<path
   d="m 520.194,594.78 c 11.74,2.52 23.37,5.59 34.76,9.4 7.28,2.94 15.08,5.5 20.9,11 1.43,1.38 2.82,3.99 1.08,5.68 -2.87,2.75 -6.71,4.18 -10.41,5.4 -6.6,1.85 -13.22,3.69 -19.99,4.76 -3.21,-6.68 -9.27,-11.26 -15.35,-15.17 -5.52,-3.41 -11.26,-6.71 -17.63,-8.22 -4.46,-1.07 -8.84,-2.54 -12.9,-4.69 6.69,-2.3 12.94,-5.68 19.54,-8.16 z"
   id="path686"
   inkscape:connector-curvature="0"
   style="fill:#d5b76f;stroke:#d5b76f;stroke-width:0.5" />
	<path
   d="m 123.954,599.85 c 3.54,2.58 6.91,5.49 10.99,7.24 5.86,2.45 12.21,3.39 18.49,4.13 0.36,1.75 0.82,3.48 1.47,5.16 5.53,-0.25 10.88,-1.76 16.29,-2.78 -0.89,8.16 1.77,16.71 8.01,22.21 9.24,7.96 22.69,10.27 34.26,6.77 4.03,-1.17 7.7,-3.23 11.54,-4.88 -0.53,5.5 3.39,9.97 8.15,12.08 10.84,3.94 23.22,3.91 33.78,-0.91 4.22,-1.97 7.92,-4.82 11.87,-7.26 1.89,3.74 4.03,7.73 7.99,9.63 8.86,4.77 20.98,3.21 27.38,-4.92 2.29,2.04 4.83,3.98 7.93,4.53 10.38,2.26 22.24,2.94 31.41,-3.35 14.15,-9.44 21.38,-25.86 26.3,-41.54 7.66,3.05 15.52,5.62 23.59,7.37 32.6,6.04 66.34,0.8 97.25,-10.39 4.06,2.15 8.44,3.62 12.9,4.69 6.37,1.51 12.11,4.81 17.63,8.22 6.08,3.91 12.14,8.49 15.35,15.17 -16.06,3.18 -32.36,5.14 -48.6,7.23 -22.53,2.12 -45,4.8 -67.38,8.12 -24.08,3.6 -48.28,6.29 -72.37,9.84 -16.78,1.78 -33.44,4.54 -50.16,6.79 -5.92,0.56 -12.04,1.56 -17.12,4.87 -6.88,3.9 -11.03,11.32 -18.25,14.74 -8.54,4.3 -18.48,3.58 -27.68,2.42 -16.86,-2.19 -32.21,-10.04 -46.98,-18.01 -23.09,-13.19 -45.24,-28.14 -65.8,-45 l -0.05,-0.83 c 0.57,-8.15 -5.93,-13.99 -8.19,-21.34 z"
   id="path688"
   inkscape:connector-curvature="0"
   style="fill:#edcc7c;stroke:#edcc7c;stroke-width:0.5" />
	<path
   d="m 177.704,611.9 c 3.13,-1.48 6.8,-3.6 10.26,-1.85 9.46,4.07 19.82,4.87 29.96,5.73 6.77,0.57 13.57,0.46 20.36,0.39 -5.12,0.11 -8.93,3.74 -13.37,5.7 -10.49,3.81 -21.91,1.56 -32.29,-1.48 -5.61,-1.57 -10.26,-5.16 -14.92,-8.49 z"
   id="path690"
   inkscape:connector-curvature="0"
   style="fill:#21a421;stroke:#21a421;stroke-width:0.5" />
	<path
   d="m 175.894,611.71 c 0.45,0.05 1.36,0.14 1.81,0.19 4.66,3.33 9.31,6.92 14.92,8.49 10.38,3.04 21.8,5.29 32.29,1.48 4.44,-1.96 8.25,-5.59 13.37,-5.7 0.43,-0.06 1.28,-0.16 1.71,-0.22 -5.94,9.84 -14.91,18.23 -25.79,22.22 -9.38,2.76 -20.21,2.51 -28.77,-2.59 -3.12,-2.19 -6.59,-4.81 -7.51,-8.72 -0.4,-1.97 -0.98,-3.89 -1.69,-5.76 -1.06,-3.03 -0.65,-6.28 -0.34,-9.39 z"
   id="path692"
   inkscape:connector-curvature="0"
   style="fill:#25b725;stroke:#25b725;stroke-width:0.5" />
	<path
   d="m 236.414,627.47 c 3.43,-3.59 6.05,-7.82 8.94,-11.83 3.35,4.53 1.47,10.49 3.68,15.39 2.97,5.33 9.99,7.05 15.61,5.6 5.77,-1.4 9.11,-6.84 14.12,-9.61 1.89,2.41 4.48,4.82 4.31,8.15 -0.96,-0.28 -1.92,-0.55 -2.88,-0.81 -6.99,6.98 -15.65,12.58 -25.6,14.02 -6.84,0.93 -13.94,0.02 -20.33,-2.61 -2.96,-1.18 -5.63,-4.21 -5.06,-7.58 0.95,-4.36 4.3,-7.57 7.21,-10.72 z"
   id="path694"
   inkscape:connector-curvature="0"
   style="fill:#21a421;stroke:#21a421;stroke-width:0.5" />
	<path
   enable-background="new    "
   d="m 176.234,621.1 c 0.71,1.87 1.29,3.79 1.69,5.76 -2.29,0.05 -3.06,-4.23 -1.69,-5.76 z"
   id="path696"
   inkscape:connector-curvature="0"
   style="opacity:0.97000002;fill:#6a9b3f;stroke:#6a9b3f;stroke-width:0.5" />
	<path
   d="m 567.294,630.24 c 3.66,-1.23 7.1,-3 10.66,-4.5 0.83,11.71 0.72,23.47 0.31,35.2 -5.55,3.49 -11.89,5.33 -18.04,7.43 -2.09,-1.42 -4.44,-2.85 -5.16,-5.44 -3.27,-9.06 -3.89,-18.79 -6.23,-28.09 6.12,-1.67 12.46,-2.45 18.46,-4.6 z"
   id="path698"
   inkscape:connector-curvature="0"
   style="fill:#e29e05;stroke:#e29e05;stroke-width:0.5" />
	<path
   d="m 124.484,642.42 c 1.97,-5.34 4.43,-10.48 6.54,-15.76 16.77,12.9 33.99,25.25 52.05,36.29 15.87,9.55 32.28,18.67 50.15,23.92 12.95,2.72 26.96,5.06 39.69,0.13 8.47,-3.36 13.27,-11.68 20.87,-16.31 1.81,7.01 4.25,13.98 4.36,21.3 0.22,4.53 -0.21,9.21 1.21,13.61 1.02,3.2 4.3,4.71 6.85,6.53 -4.43,8.33 -13.11,13.41 -21.73,16.51 -16.01,4.9 -33.07,3.84 -49.44,1.5 -6.34,-0.55 -11.75,-4.18 -17.39,-6.77 -17.93,-9.62 -34.99,-20.77 -51.86,-32.13 -14.9,-10.34 -29.84,-20.71 -43.89,-32.19 0.39,-5.6 0.61,-11.32 2.59,-16.63 z"
   id="path700"
   inkscape:connector-curvature="0"
   style="fill:#fcb006;stroke:#fcb006;stroke-width:0.5" />
	<path
   d="m 491.064,643.03 c 19.29,-2.44 38.66,-4.46 57.77,-8.19 2.34,9.3 2.96,19.03 6.23,28.09 0.72,2.59 3.07,4.02 5.16,5.44 -9.96,2.3 -19.74,5.41 -29.83,7.14 -10.59,2.15 -21.1,4.73 -31.79,6.31 -11.38,2.03 -22.7,4.5 -34.18,5.96 -6.77,1.02 -13.48,2.65 -20.36,2.81 -24.21,1.84 -48.44,3.55 -72.5,6.86 -10.84,1.61 -21.77,2.63 -32.53,4.76 -5.35,0.84 -10.59,2.26 -15.94,3.08 -1.3,-0.08 -2.59,-0.17 -3.87,-0.28 -1.7,-4.61 -3.28,-9.29 -5.53,-13.67 -4.18,-7.59 -4.65,-16.94 -10.78,-23.48 24.3,-3.91 48.77,-6.56 73.12,-10.15 16.36,-1.79 32.62,-4.36 48.93,-6.53 11.44,-1.07 22.68,-3.54 34.1,-4.76 10.64,-1.37 21.36,-1.98 32,-3.39 z"
   id="path702"
   inkscape:connector-curvature="0"
   style="fill:#fcb006;stroke:#fcb006;stroke-width:0.5" />
	<path
   d="m 293.784,670.69 c 2.83,-1.53 5.99,-2.25 9.13,-2.83 6.13,6.54 6.6,15.89 10.78,23.48 2.25,4.38 3.83,9.06 5.53,13.67 1.28,0.11 2.57,0.2 3.87,0.28 -5.7,1.85 -13.35,1.12 -16.89,6.84 -2.55,-1.82 -5.83,-3.33 -6.85,-6.53 -1.42,-4.4 -0.99,-9.08 -1.21,-13.61 -0.11,-7.32 -2.55,-14.29 -4.36,-21.3 z"
   id="path704"
   inkscape:connector-curvature="0"
   style="fill:#e29e05;stroke:#e29e05;stroke-width:0.5" />
	<path
   enable-background="new    "
   d="m 505.874,684.74 c 0.83,-0.7 1.79,-0.99 2.87,-0.86 -0.5,1.65 -1.46,1.94 -2.87,0.86 z"
   id="path706"
   inkscape:connector-curvature="0"
   style="opacity:0.5;fill:#4c3501;stroke:#4c3501;stroke-width:0.5" />
	<path
   enable-background="new    "
   d="m 501.014,685.6 c 1.22,-0.55 2.54,-0.82 3.89,-0.76 -0.02,1.75 -3.05,2.09 -3.89,0.76 z"
   id="path708"
   inkscape:connector-curvature="0"
   style="opacity:0.52999998;fill:#5f4202;stroke:#5f4202;stroke-width:0.5" />
	<path
   enable-background="new    "
   d="m 495.124,686.57 c 1.18,-0.51 2.45,-0.75 3.75,-0.65 0.06,1.76 -3.04,2.09 -3.75,0.65 z"
   id="path710"
   inkscape:connector-curvature="0"
   style="opacity:0.47999998;fill:#352501;stroke:#352501;stroke-width:0.5" />
</g>









</svg>