<?xml version="1.0" encoding="UTF-8" standalone="no"?>
<!-- Generator: Adobe Illustrator 10.0, SVG Export Plug-In . SVG Version: 3.0.0 Build 77)  -->

<svg
   xmlns:i="http://ns.adobe.com/AdobeIllustrator/10.0/"
   xmlns:dc="http://purl.org/dc/elements/1.1/"
   xmlns:cc="http://creativecommons.org/ns#"
   xmlns:rdf="http://www.w3.org/1999/02/22-rdf-syntax-ns#"
   xmlns:svg="http://www.w3.org/2000/svg"
   xmlns="http://www.w3.org/2000/svg"
   xmlns:sodipodi="http://sodipodi.sourceforge.net/DTD/sodipodi-0.dtd"
   xmlns:inkscape="http://www.inkscape.org/namespaces/inkscape"
   i:rulerOrigin="0 0"
   i:viewOrigin="205.9995 482"
   space="preserve"
   i:pageBounds="0 792 612 0"
   viewBox="0 0 256 256"
   enable-background="new 0 0 199.862 173.088"
   overflow="visible"
   version="1.1"
   id="svg215"
   sodipodi:docname="sandwich_burger.svg"
   inkscape:version="0.92.4 (5da689c313, 2019-01-14)"
   width="256"
   height="256"
   style="overflow:visible">
  <title
     id="title1026">Burger</title>
  <defs
     id="defs219" />
  <sodipodi:namedview
     pagecolor="#ffffff"
     bordercolor="#666666"
     borderopacity="1"
     objecttolerance="10"
     gridtolerance="10"
     guidetolerance="10"
     inkscape:pageopacity="0"
     inkscape:pageshadow="2"
     inkscape:window-width="1920"
     inkscape:window-height="1025"
     id="namedview217"
     showgrid="false"
     inkscape:zoom="1.3634683"
     inkscape:cx="90.209186"
     inkscape:cy="66.772721"
     inkscape:window-x="-8"
     inkscape:window-y="-8"
     inkscape:window-maximized="1"
     inkscape:current-layer="svg215"
     fit-margin-top="0"
     fit-margin-left="0"
     fit-margin-right="0"
     fit-margin-bottom="0" />
  <g
     style="clip-rule:evenodd;fill-rule:evenodd;stroke:#000000;stroke-width:0.036;stroke-miterlimit:10"
     id="g210"
     stroke-miterlimit="10"
     transform="matrix(1.2805527,0,0,1.2805527,0.07514017,17.250088)">
    <path
       inkscape:connector-curvature="0"
       id="path2"
       i:knockout="Off"
       d="m 179.76,58.05 c 1.332,-6.192 0.756,-12.168 -1.332,-18.36 C 176.305,33.426 173.533,26.874 166.764,21.15 159.744,15.318 147.614,9.09 137.03,5.526 126.374,1.998 115.61,0.306 103.333,0.018 90.83,-0.522 75.746,-0.018 63.47,3.33 51.05,6.75 38.378,13.662 30.17,20.322 c -8.172,6.48 -13.104,14.364 -15.228,22.14 -2.124,7.74 -1.512,15.48 2.232,23.796 -0.324,3.024 -1.764,4.68 -4.464,5.112 -2.844,0.252 -9.756,-3.492 -11.7,-2.88 -1.872,0.72 -0.936,5.328 0.432,6.876 1.224,1.476 3.6,2.052 7.128,1.872 -2.556,1.368 -3.888,2.7 -3.996,3.996 -0.144,1.296 0.936,2.448 3.24,3.6 l -6.948,9.217 0.504,4.967 c 2.232,-0.252 4.392,-0.359 6.876,-0.035 2.376,0.18 4.896,0.791 7.56,1.547 -2.16,2.881 -3.492,5.689 -3.852,8.424 -0.432,2.736 0.072,5.186 1.512,7.74 -0.576,6.373 0.252,11.916 2.196,17.029 1.908,4.932 2.628,7.811 9.648,13.066 7.056,5.221 19.656,13.5 32.256,18.037 12.456,4.463 26.244,8.928 42.336,8.244 16.091,-1.008 40.716,-5.725 53.316,-13.32 12.385,-7.705 19.188,-17.965 20.699,-31.752 l 3.637,-1.98 c 2.34,-3.527 3.527,-7.092 3.961,-10.691 0.359,-3.709 -0.289,-7.309 -1.801,-11.088 0.217,-2.016 0.432,-4.428 0.359,-7.236 -0.072,-2.951 -0.287,-6.119 -0.646,-9.936 1.943,0.144 4.211,0.539 6.406,1.475 2.232,0.865 4.682,4.537 7.057,3.781 2.412,-0.973 6.768,-4.428 6.947,-8.82 0,-4.392 -3.455,-12.888 -6.768,-17.136 -3.39,-4.25 -7.78,-7.022 -13.32,-8.318 z" />
    <path
       style="fill:#c6902c"
       inkscape:connector-curvature="0"
       id="path4"
       i:knockout="Off"
       d="m 176.95,60.966 c -1.98,8.028 -7.164,14.364 -16.236,19.404 -9.252,4.86 -23.508,8.496 -37.908,9.937 C 108.261,91.53 89.938,90.522 75.178,88.651 60.49,86.707 45.046,84.439 35.218,79.362 25.215,74.178 18.231,66.33 16.071,58.158 13.911,49.842 16.431,39.006 22.803,30.654 29.247,22.266 42.711,13.338 54.051,8.586 65.355,3.798 78.459,3.114 89.475,2.358 100.239,1.53 108.411,2.07 118.418,3.834 c 9.9,1.656 20.988,3.924 30.061,8.748 9.035,4.716 18.469,11.808 23.436,19.908 4.75,8.172 6.8,20.304 5.04,28.476 z" />
    <path
       style="fill:#00c200"
       inkscape:connector-curvature="0"
       id="path6"
       i:knockout="Off"
       d="m 180.04,59.994 c 3.492,0.9 6.48,2.7 9.252,5.796 2.627,2.952 6.119,8.172 7.02,12.204 0.863,3.924 -0.539,9.649 -1.729,11.34 -1.332,1.477 -3.059,-0.756 -6.012,-1.836 -3.168,-1.188 -8.172,-3.312 -12.383,-4.428 -4.32,-1.116 -8.424,-1.836 -12.854,-2.16 3.277,-0.756 6.266,-2.988 9.109,-6.408 2.77,-3.6 5.26,-8.244 7.59,-14.508 z" />
    <path
       style="fill:#f2c802"
       inkscape:connector-curvature="0"
       id="path8"
       i:knockout="Off"
       d="m 152.29,103.23 c -3.096,0.971 -5.545,3.383 -7.633,7.631 -2.123,4.248 -3.635,9.793 -4.68,17.316 -0.469,-1.404 -2.916,-3.313 -7.344,-5.725 -4.537,-2.482 -10.908,-5.436 -19.404,-9 0.9,-1.439 1.908,-2.268 3.564,-2.482 1.547,-0.252 4.031,1.439 5.652,1.043 1.584,-0.611 2.664,-1.764 3.635,-3.996 1.477,1.621 2.881,2.377 4.5,2.125 1.512,-0.252 3.24,-3.529 4.752,-3.564 1.369,-0.107 2.592,0.791 3.672,2.844 0.793,-3.672 2.305,-6.012 4.537,-7.02 2.2,-1.08 5.11,-0.75 8.75,0.83 z" />
    <path
       style="fill:#f2c802"
       inkscape:connector-curvature="0"
       id="path10"
       i:knockout="Off"
       d="m 112.44,114.17 c 3.238,1.332 6.227,2.629 8.963,3.889 2.664,1.08 4.355,1.727 7.453,3.455 3.131,1.729 6.73,4.033 11.088,7.057 l -0.576,3.779 c -4.248,-3.348 -8.676,-6.156 -13.285,-8.711 -4.68,-2.592 -9.539,-4.645 -14.58,-6.445 0.29,-1.01 0.61,-2.02 0.94,-3.03 z" />
    <path
       style="fill:#f2c802"
       inkscape:connector-curvature="0"
       id="path12"
       i:knockout="Off"
       d="m 2.421,93.727 6.444,-6.913 c 2.592,2.016 4.824,3.096 6.696,3.383 1.692,0.145 2.952,-2.16 4.32,-2.051 1.404,0 2.304,2.771 4.068,2.482 1.62,-0.432 4.752,-4.499 5.94,-4.283 1.116,0.18 1.404,2.195 0.864,5.76 0.684,1.439 1.08,2.484 1.332,3.529 0.144,0.936 0.108,1.691 -0.108,2.268 C 28.269,96.533 23.985,95.597 19.125,94.949 14.193,94.338 8.793,94.013 2.781,94.121 Z" />
    <path
       style="fill:#f2c802"
       inkscape:connector-curvature="0"
       id="path14"
       i:knockout="Off"
       d="M 33.021,99.486 C 30.393,98.334 26.505,97.326 21.357,96.605 16.137,95.777 9.729,95.238 1.989,94.841 l 0.648,2.34 c 2.736,0.289 5.76,0.648 9.072,1.225 3.276,0.432 6.804,1.115 10.584,2.051 3.708,0.828 7.344,1.908 11.304,3.24 -0.18,-1.41 -0.36,-2.81 -0.576,-4.214 z" />
    <path
       style="fill:#00c200"
       inkscape:connector-curvature="0"
       id="path16"
       i:knockout="Off"
       d="m 33.165,81.918 c -0.54,2.808 -0.432,5.867 -0.072,9.18 0.396,3.24 1.188,7.271 2.52,10.439 1.296,3.133 1.44,6.266 5.292,8.281 3.78,1.836 11.664,6.408 17.388,3.168 5.616,-3.385 10.836,-10.873 16.056,-22.861 -5.868,-0.322 -12.06,-1.15 -18.972,-2.482 -6.948,-1.409 -14.22,-3.317 -22.212,-5.729 z" />
    <path
       style="fill:#ff0000"
       inkscape:connector-curvature="0"
       id="path18"
       i:knockout="Off"
       d="m 18.441,101.43 c 3.024,0.289 5.868,0.863 8.676,1.584 2.808,0.648 5.292,1.584 7.884,2.664 0.468,2.268 1.728,4.248 3.924,5.939 2.088,1.549 5.94,3.168 8.928,3.889 2.916,0.721 5.616,1.512 8.784,0.432 3.06,-1.223 6.408,-3.672 9.9,-7.488 2.34,0.18 4.716,0.217 7.272,-0.035 2.484,-0.252 5.004,-0.756 7.704,-1.512 -1.008,2.592 -0.684,4.32 1.26,5.039 1.908,0.721 5.184,0.504 9.972,-0.648 l -1.188,8.316 c -5.436,2.916 -11.628,4.717 -18.972,5.545 -7.452,0.828 -15.66,2.951 -24.768,-0.865 -9.108,-4.02 -18.756,-11.51 -29.376,-22.85 z" />
    <path
       style="fill:#ff0000"
       inkscape:connector-curvature="0"
       id="path20"
       i:knockout="Off"
       d="m 100.84,116.66 c 2.196,2.736 5.724,5.076 10.728,7.02 4.969,1.943 11.16,3.275 18.865,4.393 -4.572,-2.16 -8.678,-4.104 -12.313,-5.977 -3.709,-1.908 -6.877,-3.492 -9.648,-5.039 l -4.283,-6.336 c -1.12,1.99 -2.24,3.97 -3.36,5.95 z" />
    <path
       style="fill:#80ff00"
       inkscape:connector-curvature="0"
       id="path22"
       i:knockout="Off"
       d="m 111.64,107.26 c -1.367,-5.148 -2.771,-10.295 -4.176,-15.443 -7.632,0.252 -13.86,0.252 -19.116,0.143 -5.256,-0.18 -9.252,-0.504 -12.132,-0.971 -3.492,5.76 -5.616,9.971 -6.372,12.635 -0.756,2.664 0.144,2.701 1.728,3.168 1.476,0.361 4.248,-0.287 6.912,-0.826 2.556,-0.613 5.148,-1.441 8.172,-2.629 -2.376,2.232 -3.564,3.996 -3.708,5.148 -0.108,1.043 0.972,1.475 2.952,1.691 1.872,0.18 4.68,0.072 8.424,-0.324 -0.54,3.275 -0.576,5.508 0.036,6.84 0.612,1.332 1.872,2.664 3.384,0.936 1.332,-1.906 2.988,-5.76 4.824,-11.951 3.313,4.537 5.725,6.947 7.236,7.236 1.52,0.21 2.13,-1.63 1.84,-5.66 z" />
    <path
       style="fill:#ff0000"
       inkscape:connector-curvature="0"
       id="path24"
       i:knockout="Off"
       d="m 143.58,124.54 c 2.449,-0.646 5.041,-1.654 8.172,-3.023 3.061,-1.439 6.408,-3.131 10.189,-5.219 -1.404,-5.473 -2.377,-8.568 -3.313,-9.686 -0.936,-1.08 -1.26,3.637 -2.088,3.313 -0.9,-0.396 -1.908,-2.232 -3.168,-5.508 -3.025,1.98 -5.184,4.717 -6.877,8.064 -1.65,3.43 -2.62,7.32 -2.91,12.07 z" />
    <path
       style="fill:#ff0000"
       inkscape:connector-curvature="0"
       id="path26"
       i:knockout="Off"
       d="m 177.78,90.018 -5.617,5.436 c 0.072,3.098 0.576,5.617 1.117,7.705 0.646,2.088 1.332,3.564 2.447,4.715 l 2.844,-3.311 c -0.25,-4.832 -0.51,-9.693 -0.79,-14.552 z" />
    <path
       style="fill:#ff0000"
       inkscape:connector-curvature="0"
       id="path28"
       i:knockout="Off"
       d="m 173.35,109.24 c -0.506,-1.621 -1.477,-2.377 -2.916,-2.412 -1.549,-0.107 -5.113,1.188 -5.832,2.375 -0.721,1.152 -0.434,2.701 1.26,4.645 1.943,-0.936 3.383,-1.656 4.715,-2.447 1.29,-0.78 2.08,-1.5 2.77,-2.15 z" />
    <path
       style="fill:#804000"
       inkscape:connector-curvature="0"
       id="path30"
       i:knockout="Off"
       d="m 16.353,103.01 c -2.124,3.023 -2.736,6.191 -1.98,9.504 0.756,3.313 3.6,6.697 6.588,10.152 2.808,3.348 3.528,5.363 10.764,9.936 7.308,4.5 18.324,12.924 32.364,16.92 14.004,3.889 36.072,7.129 50.796,6.373 14.688,-0.973 26.064,-6.084 36.469,-11.592 10.223,-5.652 18.287,-12.529 24.623,-21.457 2.771,-4.607 4.176,-8.1 4.355,-10.332 0.217,-2.447 -0.359,-4.68 -3.527,-3.348 -3.42,1.367 -10.584,8.352 -16.236,11.664 -5.58,3.24 -11.303,5.652 -17.172,7.523 l -2.627,6.732 -8.174,-4.607 c -3.238,0.756 -7.486,0.143 -12.887,-1.441 -5.473,-1.764 -11.809,-4.5 -19.44,-8.604 -6.696,3.096 -13.752,5.148 -21.312,6.553 -7.74,1.26 -16.524,2.844 -24.12,1.439 -7.74,-1.656 -14.724,-5.904 -21.24,-10.225 -6.461,-4.29 -12.077,-9.26 -17.225,-15.17 z" />
    <path
       inkscape:connector-curvature="0"
       id="path32"
       i:knockout="Off"
       d="m 63.729,133.86 c 0.576,0.648 20.952,5.58 32.112,6.193 11.052,0.395 29.124,-2.412 33.372,-3.277 3.889,-0.898 -2.916,-1.979 -9.037,-1.979 -6.154,-0.109 -17.711,1.799 -27.179,1.691 -9.57,-0.17 -29.694,-3.26 -29.262,-2.62 z" />
    <path
       style="fill:#c6902c"
       inkscape:connector-curvature="0"
       id="path34"
       i:knockout="Off"
       d="m 16.749,119.65 c 3.708,5.652 8.784,10.943 15.228,16.02 6.336,5.039 13.968,10.512 23.328,14.184 9.432,3.564 20.7,6.012 32.436,7.344 11.592,1.26 25.56,2.197 36.613,0.324 10.836,-2.088 20.52,-7.309 28.475,-11.916 7.957,-4.572 13.969,-9.719 18.721,-15.443 0.469,4.535 -1.297,9.107 -4.896,13.859 -3.816,4.789 -9.863,10.332 -17.172,14.4 -7.344,3.816 -15.443,7.127 -26.389,8.965 -11.158,1.727 -26.099,3.635 -39.383,1.836 -13.284,-1.98 -29.124,-7.561 -39.456,-12.709 -10.404,-5.221 -17.82,-11.34 -22.392,-17.531 -4.632,-6.26 -6.288,-12.53 -5.1,-19.33 z" />
    <path
       style="fill:#80ff00"
       inkscape:connector-curvature="0"
       id="path36"
       i:knockout="Off"
       d="m 110.06,93.078 c 1.188,5.148 2.52,8.893 3.996,11.664 1.512,2.592 3.133,3.744 4.717,4.428 1.547,0.504 3.096,0.145 4.248,-0.541 1.043,-0.646 1.475,-1.764 1.691,-3.348 1.764,1.26 3.131,1.836 4.5,1.729 1.26,-0.217 1.619,-2.16 3.168,-2.484 1.477,-0.396 3.6,-0.252 6.084,0.289 0.611,-3.348 1.98,-5.438 4.535,-6.264 2.484,-0.828 8.029,0.07 10.225,1.295 2.016,1.115 1.477,4.752 2.412,5.473 0.9,0.467 1.801,-3.313 3.133,-1.764 1.332,1.584 3.49,10.115 4.391,11.303 0.684,1.045 -0.287,-2.807 -0.143,-4.607 0.107,-1.943 -0.217,-5.076 0.684,-6.049 0.9,-0.898 2.664,0.361 4.176,0.576 1.295,0.109 2.557,0.18 3.779,0.217 -1.295,-2.629 -1.98,-4.824 -1.908,-6.984 0,-2.123 0.721,-3.672 2.16,-5.615 1.369,-2.088 3.348,-4.176 6.084,-6.553 l -16.271,-3.132 c -3.527,1.98 -8.279,3.636 -14.4,5.399 -6.229,1.656 -16.127,3.637 -22.355,4.572 -6.22,0.858 -11.19,0.895 -14.9,0.391 z" />
    <path
       style="fill:#80ff00"
       inkscape:connector-curvature="0"
       id="path38"
       i:knockout="Off"
       d="m 19.377,67.878 c 0.216,2.124 -0.324,3.672 -1.764,4.5 -1.512,0.756 -4.32,0.612 -6.876,0.396 -2.736,-0.36 -7.704,-2.304 -8.676,-1.944 -0.9,0.216 1.512,3.06 3.204,3.96 1.656,0.864 3.672,1.404 6.444,1.476 -2.052,2.268 -3.096,4.248 -2.988,5.94 0.072,1.584 1.656,3.384 3.24,3.996 1.44,0.504 3.6,-0.684 5.364,-0.504 1.476,0.18 2.232,2.087 4.5,1.404 2.376,-0.864 5.4,-2.952 9.504,-6.408 -1.512,-0.576 -3.132,-1.98 -5.148,-4.068 -2.016,-2.232 -4.284,-5.004 -6.804,-8.748 z" />
    <path
       inkscape:connector-curvature="0"
       id="path40"
       i:knockout="Off"
       d="m 44.829,87.138 c -0.144,-0.288 -1.728,-0.54 -1.836,-0.468 -0.144,0.108 0.288,0.828 0.72,1.045 0.252,0 1.224,-0.469 1.116,-0.577 z" />
    <path
       inkscape:connector-curvature="0"
       id="path42"
       i:knockout="Off"
       d="m 45.405,90.773 c -0.144,-0.287 -1.728,-0.539 -1.836,-0.467 -0.108,0.107 0.216,0.828 0.684,1.043 0.216,10e-4 1.296,-0.466 1.152,-0.576 z" />
    <path
       inkscape:connector-curvature="0"
       id="path44"
       i:knockout="Off"
       d="m 45.405,97.902 c -0.144,-0.289 -1.728,-0.541 -1.836,-0.469 -0.108,0.107 0.216,0.828 0.684,1.045 0.216,0.001 1.296,-0.468 1.152,-0.576 z" />
    <path
       inkscape:connector-curvature="0"
       id="path46"
       i:knockout="Off"
       d="m 45.009,94.338 c -0.18,-0.287 -1.656,-0.576 -1.8,-0.432 -0.108,0.107 0.216,0.828 0.684,1.043 0.252,0 1.224,-0.431 1.116,-0.611 z" />
    <path
       inkscape:connector-curvature="0"
       id="path48"
       i:knockout="Off"
       d="m 46.413,102.01 c -0.144,-0.287 -1.728,-0.539 -1.836,-0.469 -0.108,0.072 0.216,0.9 0.684,1.08 0.216,0 1.296,-0.43 1.152,-0.61 z" />
    <path
       inkscape:connector-curvature="0"
       id="path50"
       i:knockout="Off"
       d="m 47.025,106.04 c -0.144,-0.287 -1.728,-0.539 -1.836,-0.467 -0.108,0.107 0.216,0.828 0.684,1.043 0.216,0 1.296,-0.46 1.152,-0.57 z" />
    <path
       inkscape:connector-curvature="0"
       id="path52"
       i:knockout="Off"
       d="m 51.453,107.08 c 0.108,-0.289 1.656,-0.432 1.872,-0.289 0.144,0.109 -0.54,0.865 -0.792,1.01 -0.396,0 -1.224,-0.61 -1.08,-0.72 z" />
    <path
       inkscape:connector-curvature="0"
       id="path54"
       i:knockout="Off"
       d="m 52.893,102.8 c 0.108,-0.217 1.656,-0.396 1.872,-0.254 0.144,0.145 -0.54,0.793 -0.792,0.973 -0.396,0 -1.224,-0.61 -1.08,-0.72 z" />
    <path
       inkscape:connector-curvature="0"
       id="path56"
       i:knockout="Off"
       d="m 54.117,98.873 c 0.108,-0.215 1.656,-0.395 1.872,-0.252 0.144,0.145 -0.54,0.793 -0.792,0.973 -0.396,0 -1.224,-0.612 -1.08,-0.721 z" />
    <path
       inkscape:connector-curvature="0"
       id="path58"
       i:knockout="Off"
       d="m 55.773,95.453 c 0.036,-0.287 1.62,-0.432 1.836,-0.287 0.108,0.145 -0.468,0.791 -0.756,0.973 -0.396,-0.037 -1.224,-0.541 -1.08,-0.686 z" />
    <path
       inkscape:connector-curvature="0"
       id="path60"
       i:knockout="Off"
       d="m 56.781,91.709 c 0.108,-0.287 1.656,-0.432 1.872,-0.287 0.144,0.145 -0.54,0.793 -0.792,0.973 -0.396,-0.038 -1.224,-0.541 -1.08,-0.686 z" />
    <path
       inkscape:connector-curvature="0"
       id="path62"
       i:knockout="Off"
       d="m 176.55,77.706 c 0.18,-0.108 0.576,-1.62 0.648,-1.764 -0.109,-0.252 -1.08,0.216 -1.117,0.576 -0.18,0.216 0.26,1.26 0.47,1.188 z" />
    <path
       inkscape:connector-curvature="0"
       id="path64"
       i:knockout="Off"
       d="m 181.09,79.722 c 0.182,-0.108 0.576,-1.62 0.648,-1.764 -0.107,-0.252 -1.08,0.216 -1.115,0.576 -0.18,0.216 0.25,1.26 0.47,1.188 z" />
    <path
       inkscape:connector-curvature="0"
       id="path66"
       i:knockout="Off"
       d="m 185.52,81.99 c 0.18,-0.072 0.574,-1.692 0.646,-1.8 -0.107,-0.252 -1.08,0.216 -1.115,0.576 -0.19,0.288 0.24,1.296 0.46,1.224 z" />
    <path
       inkscape:connector-curvature="0"
       id="path68"
       i:knockout="Off"
       d="m 190.95,83.502 c 0.18,-0.108 0.576,-1.62 0.648,-1.764 -0.109,-0.252 -1.08,0.216 -1.117,0.576 -0.18,0.216 0.26,1.26 0.47,1.188 z" />
    <path
       inkscape:connector-curvature="0"
       id="path70"
       i:knockout="Off"
       d="m 189.04,76.878 c 0.18,-0.072 0.576,-1.692 0.648,-1.8 -0.109,-0.252 -1.08,0.216 -1.117,0.576 -0.17,0.288 0.26,1.296 0.47,1.224 z" />
    <path
       inkscape:connector-curvature="0"
       id="path72"
       i:knockout="Off"
       d="m 185.66,72.558 c 0.252,-0.108 0.613,-1.62 0.684,-1.764 -0.143,-0.252 -1.043,0.216 -1.15,0.576 -0.18,0.216 0.26,1.26 0.47,1.188 z" />
    <path
       inkscape:connector-curvature="0"
       id="path74"
       i:knockout="Off"
       d="m 180.55,69.138 c 0.252,-0.108 0.611,-1.62 0.684,-1.764 -0.145,-0.252 -1.043,0.216 -1.152,0.576 -0.18,0.216 0.25,1.26 0.47,1.188 z" />
    <path
       inkscape:connector-curvature="0"
       id="path76"
       i:knockout="Off"
       d="m 156.5,87.785 c 0.072,-0.18 3.42,0.938 5.186,2.953 1.619,2.088 4.5,8.135 4.895,9.396 0.252,1.115 -1.619,-0.938 -2.555,-2.412 -1.008,-1.584 -1.908,-5.004 -3.098,-6.66 -1.32,-1.796 -4.6,-3.163 -4.42,-3.273 z" />
    <path
       inkscape:connector-curvature="0"
       id="path78"
       i:knockout="Off"
       d="m 125.29,94.23 c -0.396,-0.217 -0.072,2.736 -0.973,4.139 -0.9,1.369 -4.5,3.672 -4.428,3.996 -0.035,0.18 3.168,-2.123 4.32,-2.447 1.008,-0.469 0.863,0.145 1.908,0.469 0.9,0.395 4.068,1.764 4.104,1.727 -0.072,-0.18 -3.275,-1.656 -4.068,-2.879 -0.86,-1.366 -0.65,-4.928 -0.86,-5.001 z" />
    <path
       inkscape:connector-curvature="0"
       id="path80"
       i:knockout="Off"
       d="m 94.725,94.59 c -0.324,1.477 -0.648,2.809 -0.972,4.141 -0.324,1.332 0.756,2.627 -0.432,4.031 -1.26,1.439 -6.984,4.248 -6.876,4.393 0.144,0.107 5.616,-3.348 7.164,-2.988 1.512,0.396 1.548,5.436 1.872,5.363 0.324,-0.143 -0.936,-3.059 1.152,-4.859 2.088,-1.801 4.68,-2.016 4.68,-2.016 -2.16,0.072 -3.708,-0.504 -4.788,-1.873 -1.113,-1.356 -1.761,-3.372 -1.797,-6.18 z" />
    <path
       inkscape:connector-curvature="0"
       id="path82"
       i:knockout="Off"
       d="m 49.977,47.862 c -0.576,0.108 -1.476,0.216 -2.124,0.864 -0.828,0.468 -2.196,1.62 -2.304,2.484 -0.072,0.828 0.792,2.232 1.62,2.412 0.648,0.036 1.656,-0.828 2.448,-1.764 0.612,-1.044 1.656,-3.168 1.764,-3.852 0.036,-0.648 -0.9,-0.324 -1.404,-0.144 z" />
    <path
       style="fill:#ffe42e"
       inkscape:connector-curvature="0"
       id="path84"
       i:knockout="Off"
       d="m 49.581,48.51 c -0.432,-0.036 -1.008,0.18 -1.584,0.648 -0.612,0.468 -1.872,1.368 -1.98,2.16 -0.216,0.648 0.648,1.728 1.224,1.836 0.504,-0.072 1.476,-0.9 2.088,-1.656 0.54,-0.9 1.26,-2.304 1.332,-2.844 0,-0.504 -0.684,-0.324 -1.08,-0.144 z" />
    <path
       inkscape:connector-curvature="0"
       id="path86"
       i:knockout="Off"
       d="m 80.469,58.59 c 0.144,0.504 0.288,1.332 1.008,2.052 0.648,0.684 1.728,1.98 2.7,2.088 0.828,0 2.088,-1.26 2.268,-1.836 0.036,-0.792 -1.08,-1.692 -1.98,-2.268 -1.188,-0.756 -3.204,-1.368 -3.96,-1.44 -0.684,-0.036 -0.324,0.756 -0.036,1.404 z" />
    <path
       style="fill:#ffe42e"
       inkscape:connector-curvature="0"
       id="path88"
       i:knockout="Off"
       d="m 81.153,58.914 c 0,0.432 0.252,0.9 0.756,1.548 0.54,0.54 1.548,1.656 2.34,1.8 0.648,0.036 1.584,-0.9 1.692,-1.404 -0.072,-0.612 -1.044,-1.44 -1.8,-1.908 -0.9,-0.612 -2.484,-1.116 -2.952,-1.08 -0.468,-0.108 -0.252,0.612 -0.036,1.044 z" />
    <path
       inkscape:connector-curvature="0"
       id="path90"
       i:knockout="Off"
       d="m 107.04,36.45 c -0.576,0.036 -1.477,0.216 -2.125,0.828 -0.828,0.612 -2.195,1.548 -2.303,2.52 -0.072,0.828 0.791,2.232 1.619,2.412 0.648,-0.036 1.656,-0.828 2.447,-1.8 0.613,-1.08 1.656,-3.096 1.766,-3.816 0.02,-0.648 -0.92,-0.324 -1.42,-0.144 z" />
    <path
       style="fill:#ffd028"
       inkscape:connector-curvature="0"
       id="path92"
       i:knockout="Off"
       d="m 106.64,37.098 c -0.432,-0.036 -1.008,0.18 -1.584,0.648 -0.611,0.468 -1.871,1.368 -1.98,2.16 -0.215,0.684 0.648,1.656 1.225,1.8 0.432,-0.036 1.439,-0.9 2.053,-1.62 0.539,-0.864 1.26,-2.376 1.332,-2.88 -0.03,-0.54 -0.61,-0.252 -1.04,-0.108 z" />
    <path
       inkscape:connector-curvature="0"
       id="path94"
       i:knockout="Off"
       d="m 96.633,23.166 c -0.396,0.54 -0.756,1.116 -0.792,2.124 -0.144,0.936 -0.324,2.664 0.288,3.384 0.576,0.576 2.232,0.828 2.88,0.468 0.504,-0.432 0.468,-1.944 0.324,-3.024 -0.252,-1.26 -1.26,-3.384 -1.62,-3.888 -0.504,-0.504 -0.864,0.324 -1.08,0.936 z" />
    <path
       style="fill:#ffe42e"
       inkscape:connector-curvature="0"
       id="path96"
       i:knockout="Off"
       d="m 96.885,23.886 c -0.216,0.288 -0.648,0.828 -0.612,1.62 -0.144,0.792 -0.108,2.232 0.252,2.916 0.432,0.504 1.62,0.612 2.16,0.324 0.36,-0.396 0.324,-1.728 0.18,-2.628 -0.216,-1.044 -0.936,-2.52 -1.188,-2.916 -0.396,-0.504 -0.612,0.324 -0.792,0.684 z" />
    <path
       inkscape:connector-curvature="0"
       id="path98"
       i:knockout="Off"
       d="m 110.17,15.498 c 0.324,0.252 0.686,0.576 1.369,0.828 0.611,0.108 1.764,0.504 2.34,0.216 0.504,-0.324 0.719,-1.512 0.648,-1.908 -0.324,-0.36 -1.189,-0.684 -2.018,-0.576 -0.898,0.036 -2.447,0.288 -2.844,0.612 -0.51,0.216 0.21,0.54 0.5,0.828 z" />
    <path
       style="fill:#ffe42e"
       inkscape:connector-curvature="0"
       id="path100"
       i:knockout="Off"
       d="m 110.71,15.426 c 0.107,0.18 0.539,0.432 1.008,0.612 0.504,0.144 1.549,0.252 2.016,0.18 0.432,-0.18 0.648,-1.26 0.504,-1.44 -0.287,-0.324 -1.152,-0.468 -1.764,-0.432 -0.721,-0.036 -1.801,0.252 -2.123,0.468 -0.33,0.144 0.06,0.396 0.35,0.612 z" />
    <path
       inkscape:connector-curvature="0"
       id="path102"
       i:knockout="Off"
       d="m 104.37,9.702 c -0.18,-0.468 -0.504,-0.828 -0.973,-1.224 -0.611,-0.432 -1.547,-1.152 -2.123,-1.044 -0.721,0.072 -1.333,1.008 -1.297,1.548 0.072,0.468 0.828,0.936 1.691,1.26 0.756,0.288 2.305,0.432 2.846,0.432 0.36,-0.252 0.03,-0.576 -0.15,-0.972 z" />
    <path
       style="fill:#ffe42e"
       inkscape:connector-curvature="0"
       id="path104"
       i:knockout="Off"
       d="m 103.83,9.594 c -0.215,-0.396 -0.324,-0.576 -0.719,-0.936 -0.504,-0.36 -1.332,-0.936 -1.801,-0.9 -0.504,0.108 -1.152,0.648 -0.972,1.188 0.108,0.288 0.792,0.828 1.476,1.044 0.648,0.18 1.691,0.288 2.16,0.324 0.25,-0.144 -0.08,-0.432 -0.15,-0.72 z" />
    <path
       inkscape:connector-curvature="0"
       id="path106"
       i:knockout="Off"
       d="m 89.289,11.178 c 0.072,-0.432 0.36,-0.9 0.324,-1.548 -0.108,-0.792 -0.108,-1.872 -0.54,-2.268 -0.432,-0.396 -1.8,-0.396 -2.016,0 -0.324,0.288 -0.288,1.26 0.108,2.088 0.252,0.684 1.08,2.16 1.512,2.484 0.288,0.252 0.396,-0.468 0.612,-0.756 z" />
    <path
       style="fill:#ffe42e"
       inkscape:connector-curvature="0"
       id="path108"
       i:knockout="Off"
       d="M 89.073,10.71 C 89.145,10.386 89.325,9.99 89.325,9.522 89.289,8.946 89.073,7.83 88.821,7.578 c -0.36,-0.36 -1.368,-0.36 -1.512,0 -0.36,0.324 -0.036,1.08 0.144,1.836 0.216,0.576 0.792,1.512 1.152,1.836 0.18,0.18 0.288,-0.324 0.468,-0.54 z" />
    <path
       inkscape:connector-curvature="0"
       id="path110"
       i:knockout="Off"
       d="m 73.269,8.766 c -0.072,0.468 -0.108,0.864 0.18,1.584 0.18,0.576 0.648,1.692 1.26,1.98 0.504,0.144 1.692,-0.252 1.908,-0.648 0.036,-0.504 -0.216,-1.332 -0.756,-1.944 -0.54,-0.684 -1.836,-1.764 -2.232,-1.872 -0.468,-0.144 -0.36,0.432 -0.36,0.9 z" />
    <path
       style="fill:#ffe42e"
       inkscape:connector-curvature="0"
       id="path112"
       i:knockout="Off"
       d="m 73.629,9.162 c -0.072,0.252 -0.072,0.648 0.144,1.188 0.108,0.396 0.648,1.476 1.08,1.692 0.36,0.072 1.26,-0.144 1.44,-0.504 0,-0.468 -0.288,-1.116 -0.72,-1.656 C 75.177,9.342 74.169,8.55 73.917,8.478 73.629,8.298 73.485,8.802 73.629,9.162 Z" />
    <path
       inkscape:connector-curvature="0"
       id="path114"
       i:knockout="Off"
       d="m 67.257,15.714 c -0.216,-0.36 -0.612,-0.936 -1.044,-1.188 -0.648,-0.432 -1.656,-1.044 -2.196,-0.864 -0.684,0.144 -1.26,1.008 -1.152,1.62 0,0.432 0.9,0.864 1.728,1.152 0.72,0.216 2.376,0.252 2.88,0.252 0.396,-0.252 0,-0.576 -0.216,-0.972 z" />
    <path
       style="fill:#ffd028"
       inkscape:connector-curvature="0"
       id="path116"
       i:knockout="Off"
       d="m 66.717,15.642 c -0.18,-0.36 -0.396,-0.612 -0.792,-0.9 -0.54,-0.432 -1.44,-0.828 -1.872,-0.792 -0.54,0.036 -0.972,0.828 -0.864,1.26 0.072,0.36 0.864,0.72 1.548,0.936 0.648,0.144 1.692,0.252 2.16,0.18 0.252,-0.144 -0.036,-0.468 -0.18,-0.684 z" />
    <path
       inkscape:connector-curvature="0"
       id="path118"
       i:knockout="Off"
       d="m 125.76,7.866 c -0.395,-0.252 -0.828,-0.612 -1.439,-0.648 -0.756,-0.216 -1.908,-0.288 -2.34,0.072 -0.539,0.216 -0.721,1.62 -0.396,1.98 0.289,0.288 1.117,0.396 2.053,0.324 0.791,-0.18 2.305,-0.684 2.736,-0.936 0.36,-0.324 -0.36,-0.54 -0.61,-0.792 z" />
    <path
       style="fill:#ffe42e"
       inkscape:connector-curvature="0"
       id="path120"
       i:knockout="Off"
       d="m 125.25,8.01 c -0.287,-0.252 -0.646,-0.468 -1.08,-0.504 -0.576,-0.216 -1.619,-0.144 -2.016,0.072 -0.396,0.144 -0.684,1.188 -0.324,1.476 0.252,0.18 1.08,0.36 1.801,0.252 0.611,-0.216 1.764,-0.504 2.088,-0.72 0.22,-0.252 -0.22,-0.396 -0.47,-0.576 z" />
    <path
       inkscape:connector-curvature="0"
       id="path122"
       i:knockout="Off"
       d="m 132.88,13.734 c 0.145,-0.36 0.539,-0.9 0.611,-1.476 0.109,-0.756 0.109,-1.908 -0.143,-2.34 -0.396,-0.504 -1.656,-0.612 -1.98,-0.324 -0.396,0.216 -0.541,1.224 -0.289,2.052 0.072,0.828 0.756,2.196 1.08,2.7 0.22,0.36 0.51,-0.36 0.72,-0.612 z" />
    <path
       style="fill:#ffe42e"
       inkscape:connector-curvature="0"
       id="path124"
       i:knockout="Off"
       d="m 132.74,13.23 c 0.145,-0.216 0.396,-0.72 0.469,-1.116 0.035,-0.54 0.035,-1.728 -0.145,-2.016 -0.359,-0.468 -1.225,-0.504 -1.477,-0.252 -0.359,0.252 -0.287,1.08 -0.18,1.8 0.072,0.648 0.469,1.656 0.793,2.052 0.15,0.216 0.34,-0.216 0.55,-0.468 z" />
    <path
       inkscape:connector-curvature="0"
       id="path126"
       i:knockout="Off"
       d="m 141.67,13.806 c -0.107,0.468 -0.035,0.864 0.217,1.584 0.217,0.612 0.756,1.584 1.332,1.944 0.539,0.216 1.619,-0.396 1.871,-0.72 0.109,-0.504 -0.287,-1.332 -0.791,-1.908 -0.576,-0.612 -1.943,-1.764 -2.305,-1.8 -0.47,-0.144 -0.4,0.432 -0.33,0.9 z" />
    <path
       style="fill:#ffe42e"
       inkscape:connector-curvature="0"
       id="path128"
       i:knockout="Off"
       d="m 142.06,14.166 c -0.072,0.252 -0.072,0.648 0.145,1.188 0.215,0.504 0.648,1.44 1.152,1.692 0.324,0.108 1.295,-0.216 1.404,-0.54 0.035,-0.396 -0.361,-1.224 -0.758,-1.656 -0.467,-0.576 -1.402,-1.26 -1.691,-1.368 -0.31,-0.18 -0.34,0.324 -0.24,0.684 z" />
    <path
       inkscape:connector-curvature="0"
       id="path130"
       i:knockout="Off"
       d="m 152.29,23.49 c -0.324,-0.288 -0.828,-0.684 -1.369,-0.756 -0.756,-0.252 -1.871,-0.324 -2.375,-0.072 -0.541,0.288 -0.865,1.476 -0.541,1.908 0.289,0.432 1.117,0.468 2.053,0.504 0.863,-0.072 2.268,-0.612 2.809,-0.792 0.33,-0.216 -0.28,-0.612 -0.57,-0.792 z" />
    <path
       style="fill:#ffe42e"
       inkscape:connector-curvature="0"
       id="path132"
       i:knockout="Off"
       d="m 151.79,23.562 c -0.324,-0.252 -0.541,-0.432 -1.045,-0.54 -0.576,-0.216 -1.619,-0.288 -2.016,-0.072 -0.469,0.18 -0.648,1.116 -0.396,1.44 0.18,0.216 1.045,0.432 1.764,0.36 0.613,-0.108 1.766,-0.396 2.088,-0.576 0.19,-0.216 -0.17,-0.468 -0.38,-0.612 z" />
    <path
       inkscape:connector-curvature="0"
       id="path134"
       i:knockout="Off"
       d="m 130.4,44.19 c -0.432,-0.504 -1.115,-0.972 -1.908,-1.26 -0.971,-0.36 -2.592,-0.9 -3.348,-0.504 -0.756,0.36 -1.439,2.016 -1.08,2.736 0.217,0.576 1.621,0.9 2.844,0.972 1.225,-0.036 3.457,-0.36 4.176,-0.684 0.51,-0.396 -0.32,-0.864 -0.68,-1.26 z" />
    <path
       style="fill:#ffe42e"
       inkscape:connector-curvature="0"
       id="path136"
       i:knockout="Off"
       d="m 129.64,44.262 c -0.324,-0.36 -0.756,-0.828 -1.439,-0.972 -0.721,-0.396 -2.377,-0.684 -2.881,-0.432 -0.719,0.288 -1.08,1.44 -0.791,2.052 0.215,0.396 1.512,0.792 2.484,0.792 0.898,-0.036 2.592,-0.252 3.131,-0.504 0.37,-0.288 -0.17,-0.648 -0.5,-0.936 z" />
    <path
       inkscape:connector-curvature="0"
       id="path138"
       i:knockout="Off"
       d="m 152.4,37.026 c -0.684,0.108 -1.439,0.216 -2.123,0.864 -0.9,0.468 -2.125,1.62 -2.27,2.484 -0.143,0.828 0.9,2.232 1.621,2.412 0.611,-0.036 1.691,-0.828 2.412,-1.8 0.684,-1.08 1.656,-3.096 1.799,-3.816 0.11,-0.648 -0.97,-0.324 -1.44,-0.144 z" />
    <path
       style="fill:#ffe42e"
       inkscape:connector-curvature="0"
       id="path140"
       i:knockout="Off"
       d="m 152.04,37.674 c -0.504,-0.036 -1.045,0.18 -1.621,0.648 -0.576,0.468 -1.979,1.368 -1.979,2.16 -0.145,0.648 0.646,1.728 1.26,1.836 0.539,-0.072 1.404,-0.9 2.051,-1.656 0.541,-0.9 1.26,-2.304 1.332,-2.844 -0.04,-0.504 -0.61,-0.324 -1.04,-0.144 z" />
    <path
       inkscape:connector-curvature="0"
       id="path142"
       i:knockout="Off"
       d="m 145.84,53.298 c 0.145,0.468 0.576,1.296 1.297,1.908 0.611,0.54 2.088,1.764 2.916,1.728 0.721,-0.18 2.088,-1.44 2.016,-2.124 -0.145,-0.828 -1.223,-1.44 -2.268,-1.98 -1.115,-0.54 -3.455,-1.08 -4.104,-0.936 -0.69,0 -0.19,0.792 0.13,1.404 z" />
    <path
       style="fill:#ffe42e"
       inkscape:connector-curvature="0"
       id="path144"
       i:knockout="Off"
       d="m 146.56,53.55 c 0.145,0.36 0.289,0.936 0.973,1.44 0.576,0.54 1.799,1.404 2.555,1.476 0.576,-0.072 1.584,-1.116 1.514,-1.62 -0.109,-0.612 -1.297,-1.296 -2.053,-1.656 -0.9,-0.468 -2.629,-0.792 -3.096,-0.684 -0.52,0 -0.16,0.576 0.12,1.044 z" />
    <path
       inkscape:connector-curvature="0"
       id="path146"
       i:knockout="Off"
       d="m 144.48,71.298 c 0.18,-0.612 0.324,-1.368 0.289,-2.268 -0.217,-0.972 -0.434,-2.736 -1.08,-3.204 -0.721,-0.54 -2.521,-0.324 -2.916,0.252 -0.469,0.504 -0.145,1.872 0.395,2.988 0.541,1.008 1.836,3.024 2.521,3.42 0.51,0.324 0.58,-0.72 0.8,-1.188 z" />
    <path
       style="fill:#ffe42e"
       inkscape:connector-curvature="0"
       id="path148"
       i:knockout="Off"
       d="m 144.08,70.65 c 0.145,-0.432 0.217,-1.044 0.217,-1.692 -0.107,-0.9 -0.469,-2.34 -0.936,-2.808 -0.576,-0.504 -1.908,-0.252 -2.197,0.216 -0.324,0.468 0,1.656 0.432,2.592 0.324,0.828 1.404,2.232 1.873,2.556 0.37,0.288 0.44,-0.504 0.62,-0.864 z" />
    <path
       inkscape:connector-curvature="0"
       id="path150"
       i:knockout="Off"
       d="m 119.21,62.37 c -0.504,-0.468 -1.008,-1.044 -1.908,-1.296 -0.973,-0.324 -2.592,-0.972 -3.348,-0.54 -0.828,0.396 -1.477,1.944 -1.117,2.7 0.217,0.54 1.621,0.972 2.844,1.008 1.225,-0.108 3.457,-0.216 4.178,-0.612 0.58,-0.396 -0.29,-0.864 -0.64,-1.26 z" />
    <path
       style="fill:#ffe42e"
       inkscape:connector-curvature="0"
       id="path152"
       i:knockout="Off"
       d="m 118.41,62.406 c -0.395,-0.36 -0.684,-0.828 -1.404,-0.972 -0.719,-0.396 -2.375,-0.648 -2.879,-0.468 -0.684,0.288 -1.152,1.44 -0.828,2.052 0.217,0.432 1.512,0.756 2.484,0.828 0.9,0 2.592,-0.288 3.131,-0.468 0.37,-0.252 -0.17,-0.72 -0.5,-0.972 z" />
    <path
       inkscape:connector-curvature="0"
       id="path154"
       i:knockout="Off"
       d="m 73.881,69.318 c -0.576,0.036 -1.476,0.216 -2.124,0.828 -0.828,0.612 -2.196,1.548 -2.304,2.52 -0.072,0.828 0.792,2.232 1.62,2.412 0.648,-0.036 1.656,-0.828 2.448,-1.8 0.612,-1.08 1.656,-3.096 1.764,-3.816 0.036,-0.648 -0.9,-0.324 -1.404,-0.144 z" />
    <path
       style="fill:#ffe42e"
       inkscape:connector-curvature="0"
       id="path156"
       i:knockout="Off"
       d="m 73.485,69.966 c -0.432,-0.036 -1.008,0.18 -1.584,0.648 -0.612,0.468 -1.872,1.368 -1.98,2.16 -0.216,0.684 0.648,1.656 1.224,1.8 0.504,-0.036 1.476,-0.9 2.088,-1.62 0.54,-0.864 1.26,-2.376 1.332,-2.88 0,-0.54 -0.684,-0.252 -1.08,-0.108 z" />
    <path
       inkscape:connector-curvature="0"
       id="path158"
       i:knockout="Off"
       d="m 54.981,76.05 c -0.396,-0.612 -0.9,-1.152 -1.656,-1.62 -0.936,-0.612 -2.376,-1.296 -3.204,-1.08 -0.792,0.144 -1.764,1.8 -1.548,2.484 0.072,0.648 1.44,1.188 2.592,1.476 1.08,0.216 3.564,0.288 4.248,0.072 0.54,-0.288 -0.108,-0.864 -0.432,-1.332 z" />
    <path
       style="fill:#ffe42e"
       inkscape:connector-curvature="0"
       id="path160"
       i:knockout="Off"
       d="m 54.225,75.978 c -0.324,-0.432 -0.648,-0.936 -1.26,-1.224 -0.792,-0.432 -2.088,-1.116 -2.772,-0.936 -0.72,0.108 -1.332,1.332 -1.152,1.872 0.108,0.432 1.44,0.972 2.34,1.224 0.9,0.18 2.592,0.252 3.132,0.072 0.432,-0.288 -0.036,-0.576 -0.288,-1.008 z" />
    <path
       inkscape:connector-curvature="0"
       id="path162"
       i:knockout="Off"
       d="m 30.105,66.726 c 0.54,0.288 1.224,0.504 2.196,0.648 0.936,0 2.7,-0.108 3.348,-0.612 0.54,-0.684 0.648,-2.448 0.18,-2.916 -0.504,-0.396 -1.98,-0.54 -3.024,-0.036 -1.152,0.36 -3.312,1.332 -3.708,1.944 -0.504,0.468 0.432,0.612 1.008,0.972 z" />
    <path
       style="fill:#ffe42e"
       inkscape:connector-curvature="0"
       id="path164"
       i:knockout="Off"
       d="m 30.825,66.438 c 0.36,0.144 0.864,0.396 1.656,0.468 0.792,-0.036 2.268,-0.072 2.88,-0.504 0.432,-0.54 0.468,-1.872 0.108,-2.196 -0.468,-0.396 -1.764,-0.252 -2.628,0.036 -1.008,0.216 -2.448,1.08 -2.808,1.476 -0.36,0.324 0.36,0.468 0.792,0.72 z" />
    <path
       inkscape:connector-curvature="0"
       id="path166"
       i:knockout="Off"
       d="m 25.497,51.39 c -0.288,-0.648 -0.468,-1.368 -1.08,-2.016 -0.684,-0.72 -1.98,-1.98 -2.772,-1.98 -0.864,-0.036 -2.196,1.152 -2.196,1.908 -0.036,0.648 0.972,1.512 2.052,2.196 1.044,0.648 3.168,1.188 3.996,1.332 0.504,-0.108 0.18,-0.864 0,-1.44 z" />
    <path
       style="fill:#ffe42e"
       inkscape:connector-curvature="0"
       id="path168"
       i:knockout="Off"
       d="m 24.813,51.102 c -0.18,-0.468 -0.36,-0.972 -0.828,-1.512 -0.612,-0.54 -1.728,-1.764 -2.376,-1.728 -0.72,-0.072 -1.728,0.828 -1.656,1.44 0,0.54 0.936,1.296 1.836,1.872 0.756,0.504 2.412,0.828 3.024,0.972 0.36,0 0.18,-0.72 0,-1.044 z" />
    <path
       inkscape:connector-curvature="0"
       id="path170"
       i:knockout="Off"
       d="m 24.597,33.498 c -0.324,0.504 -0.504,1.26 -0.396,2.268 0.144,0.864 0.18,2.7 0.936,3.276 0.612,0.432 2.412,0.396 2.916,-0.108 0.288,-0.612 0.252,-1.944 -0.252,-3.024 -0.468,-1.152 -1.836,-3.168 -2.304,-3.528 -0.54,-0.468 -0.792,0.504 -0.9,1.116 z" />
    <path
       style="fill:#ffe42e"
       inkscape:connector-curvature="0"
       id="path172"
       i:knockout="Off"
       d="m 24.957,34.182 c -0.18,0.324 -0.468,0.936 -0.288,1.692 0.036,0.792 0.252,2.232 0.792,2.808 0.54,0.324 1.728,0.432 2.196,-0.072 0.216,-0.396 0.072,-1.872 -0.288,-2.628 -0.432,-0.9 -1.332,-2.376 -1.728,-2.628 -0.504,-0.396 -0.54,0.432 -0.684,0.828 z" />
    <path
       inkscape:connector-curvature="0"
       id="path174"
       i:knockout="Off"
       d="m 38.313,28.458 c -0.18,0.576 -0.216,1.332 0.036,2.268 0.288,0.864 0.756,2.52 1.548,3.024 0.72,0.36 2.412,-0.144 2.844,-0.684 0.36,-0.72 -0.288,-1.872 -0.828,-2.88 -0.648,-1.008 -2.484,-2.7 -2.988,-2.988 -0.648,-0.252 -0.576,0.54 -0.612,1.26 z" />
    <path
       style="fill:#ffd028"
       inkscape:connector-curvature="0"
       id="path176"
       i:knockout="Off"
       d="m 38.781,29.034 c -0.18,0.396 -0.216,0.972 0.036,1.728 0.216,0.792 0.72,2.124 1.368,2.628 0.576,0.288 1.836,-0.072 2.124,-0.54 0.144,-0.54 -0.36,-1.8 -0.828,-2.52 -0.576,-0.864 -1.764,-1.98 -2.196,-2.232 -0.468,-0.252 -0.504,0.432 -0.504,0.936 z" />
    <path
       inkscape:connector-curvature="0"
       id="path178"
       i:knockout="Off"
       d="m 62.937,25.542 c -0.504,-0.036 -0.936,0.216 -1.44,0.612 -0.612,0.432 -1.512,1.008 -1.584,1.728 -0.072,0.54 0.576,1.512 1.116,1.656 0.54,0 1.044,-0.648 1.656,-1.26 0.432,-0.792 1.116,-2.088 1.224,-2.628 -0.072,-0.432 -0.576,-0.324 -0.972,-0.108 z" />
    <path
       style="fill:#ffe42e"
       inkscape:connector-curvature="0"
       id="path180"
       i:knockout="Off"
       d="m 62.685,26.01 c -0.396,-0.036 -0.72,0.108 -1.116,0.432 -0.468,0.324 -1.296,0.972 -1.368,1.512 -0.18,0.432 0.432,1.116 0.864,1.224 0.468,0 0.9,-0.648 1.44,-1.116 0.396,-0.576 0.792,-1.656 0.9,-1.98 -0.108,-0.432 -0.396,-0.18 -0.72,-0.072 z" />
    <path
       inkscape:connector-curvature="0"
       id="path182"
       i:knockout="Off"
       d="m 53.865,31.374 c -0.504,-0.036 -0.936,0.216 -1.44,0.612 -0.612,0.432 -1.512,1.008 -1.584,1.728 -0.072,0.54 0.576,1.512 1.116,1.656 0.54,0.072 1.044,-0.612 1.656,-1.224 0.432,-0.756 1.116,-2.16 1.224,-2.664 -0.072,-0.432 -0.576,-0.324 -0.972,-0.108 z" />
    <path
       style="fill:#ffe42e"
       inkscape:connector-curvature="0"
       id="path184"
       i:knockout="Off"
       d="m 53.613,31.842 c -0.396,-0.036 -0.72,0.108 -1.116,0.432 -0.468,0.324 -1.296,0.972 -1.368,1.512 -0.18,0.396 0.432,1.188 0.864,1.26 0.468,0.036 0.9,-0.72 1.44,-1.152 0.396,-0.576 0.792,-1.656 0.9,-1.98 -0.108,-0.432 -0.396,-0.18 -0.72,-0.072 z" />
    <path
       inkscape:connector-curvature="0"
       id="path186"
       i:knockout="Off"
       d="m 68.445,36.414 c -0.144,0.36 -0.252,0.936 -0.036,1.584 0.144,0.684 0.432,1.656 1.008,2.088 0.432,0.18 1.692,0 1.98,-0.396 0.144,-0.468 -0.072,-1.368 -0.504,-2.016 -0.576,-0.72 -1.512,-1.98 -1.98,-2.124 -0.396,-0.216 -0.504,0.396 -0.468,0.864 z" />
    <path
       style="fill:#ffe42e"
       inkscape:connector-curvature="0"
       id="path188"
       i:knockout="Off"
       d="m 68.769,36.81 c -0.036,0.252 -0.324,0.648 -0.036,1.188 0.072,0.54 0.468,1.476 0.9,1.836 0.36,0.144 1.224,0.036 1.476,-0.324 -0.036,-0.432 -0.072,-1.188 -0.504,-1.728 -0.432,-0.612 -1.26,-1.476 -1.512,-1.62 -0.288,-0.252 -0.396,0.288 -0.324,0.648 z" />
    <path
       inkscape:connector-curvature="0"
       id="path190"
       i:knockout="Off"
       d="m 87.885,45.882 c -0.468,-0.036 -1.008,0.216 -1.476,0.612 -0.612,0.432 -1.512,1.008 -1.584,1.728 -0.072,0.54 0.576,1.512 1.116,1.656 0.54,0.072 1.044,-0.612 1.656,-1.224 0.504,-0.756 1.152,-2.16 1.26,-2.664 0.036,-0.432 -0.612,-0.324 -0.972,-0.108 z" />
    <path
       style="fill:#ffe42e"
       inkscape:connector-curvature="0"
       id="path192"
       i:knockout="Off"
       d="m 87.597,46.35 c -0.324,-0.036 -0.684,0.108 -1.08,0.432 -0.432,0.324 -1.404,0.972 -1.404,1.512 -0.18,0.432 0.432,1.116 0.864,1.224 0.468,0 0.9,-0.648 1.44,-1.116 0.396,-0.576 0.792,-1.656 0.9,-1.98 -0.108,-0.432 -0.396,-0.18 -0.72,-0.072 z" />
    <path
       inkscape:connector-curvature="0"
       id="path194"
       i:knockout="Off"
       d="m 87.201,30.042 c 0,-0.468 -0.072,-0.936 -0.216,-1.548 -0.288,-0.72 -0.864,-1.692 -1.332,-1.944 -0.648,-0.324 -1.692,0.288 -1.872,0.72 -0.216,0.396 0.252,1.26 0.828,1.908 0.504,0.54 1.764,1.656 2.268,1.8 0.36,0.036 0.288,-0.468 0.324,-0.936 z" />
    <path
       style="fill:#ffd028"
       inkscape:connector-curvature="0"
       id="path196"
       i:knockout="Off"
       d="m 86.841,29.682 c -0.036,-0.288 0.036,-0.72 -0.18,-1.152 -0.288,-0.576 -0.72,-1.512 -1.152,-1.692 -0.432,-0.216 -1.404,0.108 -1.404,0.576 -0.144,0.36 0.252,1.044 0.756,1.62 0.324,0.468 1.404,1.188 1.728,1.332 0.216,0.072 0.252,-0.432 0.252,-0.684 z" />
    <path
       inkscape:connector-curvature="0"
       id="path198"
       i:knockout="Off"
       d="m 76.905,23.598 c 0.108,-0.432 0.432,-0.9 0.432,-1.548 -0.072,-0.792 -0.036,-1.836 -0.432,-2.304 -0.468,-0.432 -1.728,-0.468 -1.98,-0.108 -0.36,0.288 -0.324,1.26 -0.036,2.088 0.18,0.792 1.008,2.16 1.368,2.556 0.252,0.288 0.468,-0.36 0.648,-0.684 z" />
    <path
       style="fill:#ffd028"
       inkscape:connector-curvature="0"
       id="path200"
       i:knockout="Off"
       d="m 76.725,23.094 c 0.072,-0.36 0.216,-0.612 0.288,-1.152 -0.036,-0.576 -0.108,-1.656 -0.36,-1.98 -0.432,-0.432 -1.26,-0.324 -1.512,-0.072 -0.288,0.216 -0.144,1.188 0.036,1.8 0.18,0.576 0.72,1.692 1.044,1.944 0.144,0.108 0.36,-0.216 0.504,-0.54 z" />
    <path
       inkscape:connector-curvature="0"
       id="path202"
       i:knockout="Off"
       d="m 51.597,19.242 c -0.18,-0.468 -0.252,-1.008 -0.612,-1.476 -0.504,-0.648 -1.188,-1.44 -1.764,-1.548 -0.684,-0.108 -1.548,0.648 -1.62,1.152 -0.072,0.54 0.54,1.044 1.26,1.656 0.648,0.468 2.088,1.044 2.664,1.188 0.396,0.036 0.144,-0.612 0.072,-0.972 z" />
    <path
       style="fill:#ffd028"
       inkscape:connector-curvature="0"
       id="path204"
       i:knockout="Off"
       d="m 51.129,18.954 c -0.18,-0.324 -0.144,-0.684 -0.432,-1.08 -0.432,-0.504 -1.08,-1.224 -1.512,-1.332 -0.504,-0.18 -1.296,0.432 -1.26,0.864 -0.108,0.324 0.648,0.972 1.152,1.404 0.54,0.396 1.584,0.792 2.016,0.9 0.252,-0.072 0.072,-0.468 0.036,-0.756 z" />
    <path
       inkscape:connector-curvature="0"
       id="path206"
       i:knockout="Off"
       d="m 124.46,21.798 c -0.037,0.36 0.072,0.864 0.467,1.512 0.289,0.54 1.01,1.476 1.621,1.692 0.611,-0.036 1.512,-0.504 1.729,-0.972 0.035,-0.54 -0.469,-1.26 -1.08,-1.764 -0.721,-0.648 -2.088,-1.296 -2.557,-1.404 -0.5,-0.072 -0.29,0.432 -0.18,0.936 z" />
    <path
       style="fill:#ffe42e"
       inkscape:connector-curvature="0"
       id="path208"
       i:knockout="Off"
       d="m 124.89,22.122 c 0.035,0.288 -0.035,0.612 0.359,1.116 0.324,0.432 0.793,1.296 1.404,1.476 0.396,0.108 1.152,-0.468 1.297,-0.756 0.035,-0.54 -0.576,-1.044 -1.008,-1.512 -0.504,-0.468 -1.656,-1.044 -1.908,-1.044 -0.39,-0.108 -0.21,0.36 -0.14,0.72 z" />
  </g>
  <metadata
     id="metadata213">
    <rdf:RDF>
      <cc:Work>
        <dc:format>image/svg+xml</dc:format>
        <dc:type
           rdf:resource="http://purl.org/dc/dcmitype/StillImage" />
        <cc:license
           rdf:resource="http://creativecommons.org/publicdomain/zero/1.0/" />
        <dc:publisher>
          <cc:Agent
             rdf:about="http://openclipart.org/">
            <dc:title>OpenClipart</dc:title>
          </cc:Agent>
        </dc:publisher>
        <dc:title>Burger</dc:title>
        <dc:date>2007-11-26T20:08:10</dc:date>
        <dc:description>This Clip Art is part of a fast food menu set. Search for &quot;fastfood&quot; to find all.</dc:description>
        <dc:source>https://openclipart.org/detail/9079</dc:source>
        <dc:creator>
          <cc:Agent>
            <dc:title>Gerald_G</dc:title>
          </cc:Agent>
        </dc:creator>
        <dc:subject>
          <rdf:Bag>
            <rdf:li>beef</rdf:li>
            <rdf:li>bun</rdf:li>
            <rdf:li>burger</rdf:li>
            <rdf:li>cheese</rdf:li>
            <rdf:li>colouring book</rdf:li>
            <rdf:li>fastfood</rdf:li>
            <rdf:li>food</rdf:li>
            <rdf:li>hamburger</rdf:li>
            <rdf:li>lunch</rdf:li>
            <rdf:li>menu</rdf:li>
          </rdf:Bag>
        </dc:subject>
      </cc:Work>
      <cc:License
         rdf:about="http://creativecommons.org/publicdomain/zero/1.0/">
        <cc:permits
           rdf:resource="http://creativecommons.org/ns#Reproduction" />
        <cc:permits
           rdf:resource="http://creativecommons.org/ns#Distribution" />
        <cc:permits
           rdf:resource="http://creativecommons.org/ns#DerivativeWorks" />
      </cc:License>
    </rdf:RDF>
  </metadata>
</svg>
