<?xml version="1.0" encoding="UTF-8" standalone="no"?>
<svg
   xmlns:dc="http://purl.org/dc/elements/1.1/"
   xmlns:cc="http://creativecommons.org/ns#"
   xmlns:rdf="http://www.w3.org/1999/02/22-rdf-syntax-ns#"
   xmlns:svg="http://www.w3.org/2000/svg"
   xmlns="http://www.w3.org/2000/svg"
   xmlns:sodipodi="http://sodipodi.sourceforge.net/DTD/sodipodi-0.dtd"
   xmlns:inkscape="http://www.inkscape.org/namespaces/inkscape"
   version="1.1"
   x="0"
   y="0"
   width="256"
   height="256"
   viewBox="0 0 256 256"
   id="svg2474"
   sodipodi:docname="sushi_01.svg"
   inkscape:version="0.92.4 (5da689c313, 2019-01-14)">
  <title
     id="title3285">Sushi</title>
  <metadata
     id="metadata2478">
    <rdf:RDF>
      <cc:Work
         rdf:about="">
        <dc:format>image/svg+xml</dc:format>
        <dc:type
           rdf:resource="http://purl.org/dc/dcmitype/StillImage" />
        <dc:title>Sushi</dc:title>
        <cc:license
           rdf:resource="http://creativecommons.org/publicdomain/zero/1.0/" />
        <dc:creator>
          <cc:Agent>
            <dc:title>oksmith</dc:title>
          </cc:Agent>
        </dc:creator>
        <dc:source>https://openclipart.org/detail/316537</dc:source>
      </cc:Work>
      <cc:License
         rdf:about="http://creativecommons.org/publicdomain/zero/1.0/">
        <cc:permits
           rdf:resource="http://creativecommons.org/ns#Reproduction" />
        <cc:permits
           rdf:resource="http://creativecommons.org/ns#Distribution" />
        <cc:permits
           rdf:resource="http://creativecommons.org/ns#DerivativeWorks" />
      </cc:License>
    </rdf:RDF>
  </metadata>
  <sodipodi:namedview
     pagecolor="#ffffff"
     bordercolor="#666666"
     borderopacity="1"
     objecttolerance="10"
     gridtolerance="10"
     guidetolerance="10"
     inkscape:pageopacity="0"
     inkscape:pageshadow="2"
     inkscape:window-width="1920"
     inkscape:window-height="1025"
     id="namedview2476"
     showgrid="false"
     inkscape:zoom="0.79614984"
     inkscape:cx="137.63183"
     inkscape:cy="33.257186"
     inkscape:window-x="-8"
     inkscape:window-y="-8"
     inkscape:window-maximized="1"
     inkscape:current-layer="svg2474"
     fit-margin-top="0"
     fit-margin-left="0"
     fit-margin-right="0"
     fit-margin-bottom="0" />
  <defs
     id="defs759">
    <linearGradient
       id="Gradient_57"
       gradientUnits="userSpaceOnUse"
       x1="19.556999"
       y1="185.061"
       x2="57.648998"
       y2="185.061">
      <stop
         offset="0"
         stop-color="#2D2E2D"
         id="stop399" />
      <stop
         offset="0.521"
         stop-color="#676B65"
         id="stop401" />
      <stop
         offset="0.824"
         stop-color="#676B65"
         id="stop403" />
      <stop
         offset="1"
         stop-color="#2D2E2D"
         id="stop405" />
    </linearGradient>
    <linearGradient
       id="Gradient_58"
       gradientUnits="userSpaceOnUse"
       x1="38.618999"
       y1="180.231"
       x2="38.618999"
       y2="124.653">
      <stop
         offset="0"
         stop-color="#676B65"
         id="stop408" />
      <stop
         offset="1"
         stop-color="#2D2E2D"
         id="stop410" />
    </linearGradient>
    <linearGradient
       id="Gradient_59"
       gradientUnits="userSpaceOnUse"
       x1="39.216"
       y1="181.44299"
       x2="37.568001"
       y2="127.516">
      <stop
         offset="0"
         stop-color="#FFFFFE"
         id="stop413" />
      <stop
         offset="0.618"
         stop-color="#DDE1E3"
         id="stop415" />
      <stop
         offset="1"
         stop-color="#DDE1E3"
         id="stop417" />
    </linearGradient>
    <linearGradient
       id="Gradient_60"
       gradientUnits="userSpaceOnUse"
       x1="30.084999"
       y1="167.692"
       x2="45.006001"
       y2="145.877">
      <stop
         offset="0"
         stop-color="#F2B6A9"
         id="stop420" />
      <stop
         offset="0.012"
         stop-color="#F2B6A9"
         id="stop422" />
      <stop
         offset="0.6"
         stop-color="#C75054"
         id="stop424" />
      <stop
         offset="1"
         stop-color="#C75054"
         id="stop426" />
    </linearGradient>
    <linearGradient
       id="Gradient_61"
       gradientUnits="userSpaceOnUse"
       x1="30.084999"
       y1="167.692"
       x2="45.006001"
       y2="145.877">
      <stop
         offset="0"
         stop-color="#F8D5C8"
         id="stop429" />
      <stop
         offset="0.012"
         stop-color="#F8D5C8"
         id="stop431" />
      <stop
         offset="0.6"
         stop-color="#DA817D"
         id="stop433" />
      <stop
         offset="1"
         stop-color="#DA817D"
         id="stop435" />
    </linearGradient>
    <linearGradient
       id="Gradient_62"
       gradientUnits="userSpaceOnUse"
       x1="58.351002"
       y1="185.061"
       x2="96.443001"
       y2="185.061">
      <stop
         offset="0"
         stop-color="#2D2E2D"
         id="stop438" />
      <stop
         offset="0.521"
         stop-color="#676B65"
         id="stop440" />
      <stop
         offset="0.824"
         stop-color="#676B65"
         id="stop442" />
      <stop
         offset="1"
         stop-color="#2D2E2D"
         id="stop444" />
    </linearGradient>
    <linearGradient
       id="Gradient_63"
       gradientUnits="userSpaceOnUse"
       x1="77.414001"
       y1="180.231"
       x2="77.414001"
       y2="124.653">
      <stop
         offset="0"
         stop-color="#676B65"
         id="stop447" />
      <stop
         offset="1"
         stop-color="#2D2E2D"
         id="stop449" />
    </linearGradient>
    <linearGradient
       id="Gradient_64"
       gradientUnits="userSpaceOnUse"
       x1="78.010002"
       y1="181.444"
       x2="76.361"
       y2="127.517">
      <stop
         offset="0"
         stop-color="#FFFFFE"
         id="stop452" />
      <stop
         offset="0.618"
         stop-color="#DDE1E3"
         id="stop454" />
      <stop
         offset="1"
         stop-color="#DDE1E3"
         id="stop456" />
    </linearGradient>
    <linearGradient
       id="Gradient_65"
       gradientUnits="userSpaceOnUse"
       x1="68.875999"
       y1="167.69"
       x2="83.796997"
       y2="145.875">
      <stop
         offset="0"
         stop-color="#F2B6A9"
         id="stop459" />
      <stop
         offset="0.012"
         stop-color="#F2B6A9"
         id="stop461" />
      <stop
         offset="0.6"
         stop-color="#C75054"
         id="stop463" />
      <stop
         offset="1"
         stop-color="#C75054"
         id="stop465" />
    </linearGradient>
    <linearGradient
       id="Gradient_66"
       gradientUnits="userSpaceOnUse"
       x1="68.875999"
       y1="167.69"
       x2="83.796997"
       y2="145.875">
      <stop
         offset="0"
         stop-color="#F8D5C8"
         id="stop468" />
      <stop
         offset="0.012"
         stop-color="#F8D5C8"
         id="stop470" />
      <stop
         offset="0.6"
         stop-color="#DA817D"
         id="stop472" />
      <stop
         offset="1"
         stop-color="#DA817D"
         id="stop474" />
    </linearGradient>
    <linearGradient
       id="Gradient_67"
       gradientUnits="userSpaceOnUse"
       x1="97.931999"
       y1="185.061"
       x2="136.02499"
       y2="185.061">
      <stop
         offset="0"
         stop-color="#2D2E2D"
         id="stop477" />
      <stop
         offset="0.521"
         stop-color="#676B65"
         id="stop479" />
      <stop
         offset="0.824"
         stop-color="#676B65"
         id="stop481" />
      <stop
         offset="1"
         stop-color="#2D2E2D"
         id="stop483" />
    </linearGradient>
    <linearGradient
       id="Gradient_68"
       gradientUnits="userSpaceOnUse"
       x1="116.995"
       y1="180.231"
       x2="116.995"
       y2="124.653">
      <stop
         offset="0"
         stop-color="#676B65"
         id="stop486" />
      <stop
         offset="1"
         stop-color="#2D2E2D"
         id="stop488" />
    </linearGradient>
    <linearGradient
       id="Gradient_69"
       gradientUnits="userSpaceOnUse"
       x1="117.591"
       y1="181.44299"
       x2="115.942"
       y2="127.516">
      <stop
         offset="0"
         stop-color="#FFFFFE"
         id="stop491" />
      <stop
         offset="0.618"
         stop-color="#DDE1E3"
         id="stop493" />
      <stop
         offset="1"
         stop-color="#DDE1E3"
         id="stop495" />
    </linearGradient>
    <linearGradient
       id="Gradient_70"
       gradientUnits="userSpaceOnUse"
       x1="108.459"
       y1="167.692"
       x2="123.38"
       y2="145.877">
      <stop
         offset="0"
         stop-color="#F2B6A9"
         id="stop498" />
      <stop
         offset="0.012"
         stop-color="#F2B6A9"
         id="stop500" />
      <stop
         offset="0.6"
         stop-color="#C75054"
         id="stop502" />
      <stop
         offset="1"
         stop-color="#C75054"
         id="stop504" />
    </linearGradient>
    <linearGradient
       id="Gradient_71"
       gradientUnits="userSpaceOnUse"
       x1="108.459"
       y1="167.692"
       x2="123.38"
       y2="145.877">
      <stop
         offset="0"
         stop-color="#F8D5C8"
         id="stop507" />
      <stop
         offset="0.012"
         stop-color="#F8D5C8"
         id="stop509" />
      <stop
         offset="0.6"
         stop-color="#DA817D"
         id="stop511" />
      <stop
         offset="1"
         stop-color="#DA817D"
         id="stop513" />
    </linearGradient>
    <linearGradient
       id="Gradient_72"
       gradientUnits="userSpaceOnUse"
       x1="17.969"
       y1="216.733"
       x2="56.061001"
       y2="216.733">
      <stop
         offset="0"
         stop-color="#2D2E2D"
         id="stop516" />
      <stop
         offset="0.521"
         stop-color="#676B65"
         id="stop518" />
      <stop
         offset="0.824"
         stop-color="#676B65"
         id="stop520" />
      <stop
         offset="1"
         stop-color="#2D2E2D"
         id="stop522" />
    </linearGradient>
    <linearGradient
       id="Gradient_73"
       gradientUnits="userSpaceOnUse"
       x1="37.036999"
       y1="211.909"
       x2="37.036999"
       y2="156.327">
      <stop
         offset="0"
         stop-color="#676B65"
         id="stop525" />
      <stop
         offset="1"
         stop-color="#2D2E2D"
         id="stop527" />
    </linearGradient>
    <linearGradient
       id="Gradient_74"
       gradientUnits="userSpaceOnUse"
       x1="37.631001"
       y1="213.112"
       x2="35.983002"
       y2="159.187">
      <stop
         offset="0"
         stop-color="#FFFFFE"
         id="stop530" />
      <stop
         offset="0.618"
         stop-color="#DDE1E3"
         id="stop532" />
      <stop
         offset="1"
         stop-color="#DDE1E3"
         id="stop534" />
    </linearGradient>
    <linearGradient
       id="Gradient_75"
       gradientUnits="userSpaceOnUse"
       x1="28.496"
       y1="199.36099"
       x2="43.417"
       y2="177.547">
      <stop
         offset="0"
         stop-color="#F2B6A9"
         id="stop537" />
      <stop
         offset="0.012"
         stop-color="#F2B6A9"
         id="stop539" />
      <stop
         offset="0.6"
         stop-color="#C75054"
         id="stop541" />
      <stop
         offset="1"
         stop-color="#C75054"
         id="stop543" />
    </linearGradient>
    <linearGradient
       id="Gradient_76"
       gradientUnits="userSpaceOnUse"
       x1="28.496"
       y1="199.36099"
       x2="43.417"
       y2="177.547">
      <stop
         offset="0"
         stop-color="#F8D5C8"
         id="stop546" />
      <stop
         offset="0.012"
         stop-color="#F8D5C8"
         id="stop548" />
      <stop
         offset="0.6"
         stop-color="#DA817D"
         id="stop550" />
      <stop
         offset="1"
         stop-color="#DA817D"
         id="stop552" />
    </linearGradient>
    <linearGradient
       id="Gradient_77"
       gradientUnits="userSpaceOnUse"
       x1="57.563999"
       y1="214.519"
       x2="95.652"
       y2="214.519">
      <stop
         offset="0"
         stop-color="#2D2E2D"
         id="stop555" />
      <stop
         offset="0.521"
         stop-color="#676B65"
         id="stop557" />
      <stop
         offset="0.824"
         stop-color="#676B65"
         id="stop559" />
      <stop
         offset="1"
         stop-color="#2D2E2D"
         id="stop561" />
    </linearGradient>
    <linearGradient
       id="Gradient_78"
       gradientUnits="userSpaceOnUse"
       x1="76.625999"
       y1="209.688"
       x2="76.625999"
       y2="154.11">
      <stop
         offset="0"
         stop-color="#676B65"
         id="stop564" />
      <stop
         offset="1"
         stop-color="#2D2E2D"
         id="stop566" />
    </linearGradient>
    <linearGradient
       id="Gradient_79"
       gradientUnits="userSpaceOnUse"
       x1="77.219002"
       y1="210.892"
       x2="75.570999"
       y2="156.979">
      <stop
         offset="0"
         stop-color="#FFFFFE"
         id="stop569" />
      <stop
         offset="0.618"
         stop-color="#DDE1E3"
         id="stop571" />
      <stop
         offset="1"
         stop-color="#DDE1E3"
         id="stop573" />
    </linearGradient>
    <linearGradient
       id="Gradient_80"
       gradientUnits="userSpaceOnUse"
       x1="68.088997"
       y1="197.145"
       x2="83.009003"
       y2="175.332">
      <stop
         offset="0"
         stop-color="#F2B6A9"
         id="stop576" />
      <stop
         offset="0.012"
         stop-color="#F2B6A9"
         id="stop578" />
      <stop
         offset="0.6"
         stop-color="#C75054"
         id="stop580" />
      <stop
         offset="1"
         stop-color="#C75054"
         id="stop582" />
    </linearGradient>
    <linearGradient
       id="Gradient_81"
       gradientUnits="userSpaceOnUse"
       x1="68.088997"
       y1="197.145"
       x2="83.009003"
       y2="175.332">
      <stop
         offset="0"
         stop-color="#F8D5C8"
         id="stop585" />
      <stop
         offset="0.012"
         stop-color="#F8D5C8"
         id="stop587" />
      <stop
         offset="0.6"
         stop-color="#DA817D"
         id="stop589" />
      <stop
         offset="1"
         stop-color="#DA817D"
         id="stop591" />
    </linearGradient>
    <linearGradient
       id="Gradient_82"
       gradientUnits="userSpaceOnUse"
       x1="96.358002"
       y1="216.095"
       x2="134.44299"
       y2="216.095">
      <stop
         offset="0"
         stop-color="#2D2E2D"
         id="stop594" />
      <stop
         offset="0.521"
         stop-color="#676B65"
         id="stop596" />
      <stop
         offset="0.824"
         stop-color="#676B65"
         id="stop598" />
      <stop
         offset="1"
         stop-color="#2D2E2D"
         id="stop600" />
    </linearGradient>
    <linearGradient
       id="Gradient_83"
       gradientUnits="userSpaceOnUse"
       x1="115.419"
       y1="211.272"
       x2="115.419"
       y2="155.67999">
      <stop
         offset="0"
         stop-color="#676B65"
         id="stop603" />
      <stop
         offset="1"
         stop-color="#2D2E2D"
         id="stop605" />
    </linearGradient>
    <linearGradient
       id="Gradient_84"
       gradientUnits="userSpaceOnUse"
       x1="116.014"
       y1="212.474"
       x2="114.365"
       y2="158.549">
      <stop
         offset="0"
         stop-color="#FFFFFE"
         id="stop608" />
      <stop
         offset="0.618"
         stop-color="#DDE1E3"
         id="stop610" />
      <stop
         offset="1"
         stop-color="#DDE1E3"
         id="stop612" />
    </linearGradient>
    <linearGradient
       id="Gradient_85"
       gradientUnits="userSpaceOnUse"
       x1="106.877"
       y1="198.724"
       x2="121.801"
       y2="176.905">
      <stop
         offset="0"
         stop-color="#F2B6A9"
         id="stop615" />
      <stop
         offset="0.012"
         stop-color="#F2B6A9"
         id="stop617" />
      <stop
         offset="0.6"
         stop-color="#C75054"
         id="stop619" />
      <stop
         offset="1"
         stop-color="#C75054"
         id="stop621" />
    </linearGradient>
    <linearGradient
       id="Gradient_86"
       gradientUnits="userSpaceOnUse"
       x1="106.877"
       y1="198.724"
       x2="121.801"
       y2="176.905">
      <stop
         offset="0"
         stop-color="#F8D5C8"
         id="stop624" />
      <stop
         offset="0.012"
         stop-color="#F8D5C8"
         id="stop626" />
      <stop
         offset="0.6"
         stop-color="#DA817D"
         id="stop628" />
      <stop
         offset="1"
         stop-color="#DA817D"
         id="stop630" />
    </linearGradient>
  </defs>
  <g
     id="g2292"
     transform="matrix(2.1684774,0,0,2.1684774,-38.965369,-283.64603)">
    <path
       d="m 51.152,141.661 c 0.452,0.884 -0.312,2.175 -1.715,2.895 -1.395,0.735 -2.894,0.616 -3.347,-0.26 -0.453,-0.883 0.312,-2.167 1.707,-2.895 1.395,-0.734 2.902,-0.623 3.355,0.26"
       id="path1137"
       inkscape:connector-curvature="0"
       style="fill:#fffffe" />
    <path
       d="m 122.498,141.661 c 0.453,0.884 -0.311,2.175 -1.714,2.895 -1.395,0.735 -2.895,0.616 -3.347,-0.26 -0.453,-0.883 0.311,-2.167 1.707,-2.895 1.395,-0.734 2.901,-0.623 3.354,0.26"
       id="path1185"
       inkscape:connector-curvature="0"
       style="fill:#fffffe" />
    <path
       d="m 27.803,207.078 c 0,0 -5.418,-0.95 -6.836,-2.591 -1.411,-1.647 -1.358,-3.525 -1.358,-3.525 l -0.021,-3.019 c 0.021,0.029 0.043,0.058 0.065,0.087 2.323,3.043 8.209,3.519 8.209,3.519 h 17.419 c 0,0 6.123,-0.237 9.151,-3.519 1.774,-1.929 1.254,-4.853 1.254,-4.853 l -1.113,-13.768 c 0,0 0.089,-3.48 -1.996,-4.869 -1.559,-1.048 -4.281,-1.18 -5.558,-1.18 -0.432,0 -0.699,0.015 -0.699,0.015 H 26.607 c 0,0 -3.473,0.008 -5.098,1.388 -0.939,0.805 -1.446,2.008 -1.706,2.876 l 0.218,-13.917 c 0.15,0.675 0.484,1.667 1.221,2.632 2.315,3.043 8.208,3.518 8.208,3.518 h 17.419 c 0,0 6.123,-0.23 9.151,-3.518 0.938,-1.019 1.233,-2.315 1.302,-3.31 h 0.146 v 34.972 l 0.096,1.536 c 0,0 0.245,1.299 -0.096,2.724 v 0.564 h -0.163 c -0.208,0.579 -0.52,1.143 -1.018,1.647 -1.699,1.7 -7.058,2.361 -7.058,2.361 z"
       id="path2221"
       inkscape:connector-curvature="0"
       style="fill:url(#Gradient_57)" />
    <path
       d="M 46.869,169.872 H 29.45 c 0,0 -5.893,-0.475 -8.208,-3.518 -0.737,-0.965 -1.071,-1.957 -1.221,-2.632 -0.113,-0.507 -0.123,-0.834 -0.123,-0.834 l 1.247,-15.846 c 0,0 0.327,-2.561 1.952,-3.948 0.075,-0.064 0.153,-0.125 0.235,-0.183 1.702,-1.206 4.864,-1.213 4.864,-1.213 h 19.705 c 0,0 0.146,-0.008 0.397,-0.012 0.08,-0.001 0.171,-0.002 0.27,-0.002 1.264,0 4.02,0.13 5.597,1.187 2.085,1.388 1.989,4.869 1.989,4.869 l 1.113,13.768 c 0,0 0.118,0.648 0.055,1.536 -0.069,0.995 -0.364,2.291 -1.302,3.31 -3.028,3.288 -9.151,3.518 -9.151,3.518 z M 29.064,142.879 c 0,0 -3.184,0 -4.675,1.276 -1.485,1.27 -1.782,3.622 -1.782,3.622 l -1.135,14.517 c 0,0 0.037,1.626 1.224,3.185 2.123,2.783 7.519,3.22 7.519,3.22 h 15.971 c 0,0 5.604,-0.215 8.372,-3.22 1.633,-1.767 1.151,-4.454 1.151,-4.454 l -1.017,-12.61 c 0,0 0.081,-3.191 -1.826,-4.475 -1.431,-0.954 -3.928,-1.075 -5.098,-1.075 -0.395,0 -0.639,0.014 -0.639,0.014 z"
       id="path2223"
       inkscape:connector-curvature="0"
       style="fill:url(#Gradient_58)" />
    <path
       d="M 46.186,168.699 H 30.215 c 0,0 -5.396,-0.437 -7.519,-3.22 -1.187,-1.559 -1.224,-3.185 -1.224,-3.185 l 1.135,-14.517 c 0,0 0.297,-2.352 1.782,-3.622 1.491,-1.276 4.675,-1.276 4.675,-1.276 h 18.065 c 0,0 0.244,-0.014 0.639,-0.014 1.17,0 3.667,0.121 5.098,1.075 1.907,1.284 1.826,4.475 1.826,4.475 l 1.017,12.61 c 0,0 0.482,2.687 -1.151,4.454 -2.768,3.005 -8.372,3.22 -8.372,3.22 z m -0.489,-8.193 v 0 L 44.843,148.638 H 32.419 l -0.854,11.868 z"
       id="path2225"
       inkscape:connector-curvature="0"
       style="fill:url(#Gradient_59)" />
    <path
       d="m 28.263,154.598 c 0.764,1.35 0.653,2.865 -0.26,3.37 -0.905,0.511 -2.257,-0.171 -3.021,-1.53 -0.764,-1.365 -0.653,-2.872 0.252,-3.384 0.913,-0.512 2.264,0.178 3.029,1.544"
       id="path2227"
       inkscape:connector-curvature="0"
       style="fill:#fffffe" />
    <path
       d="m 28.255,162.347 c -0.2,1.543 -1.195,2.693 -2.226,2.567 -1.032,-0.141 -1.707,-1.499 -1.507,-3.043 0.193,-1.551 1.187,-2.701 2.226,-2.567 1.032,0.132 1.7,1.499 1.507,3.043"
       id="path2229"
       inkscape:connector-curvature="0"
       style="fill:#fffffe" />
    <path
       d="m 33.903,159.519 c -0.2,1.55 -1.195,2.701 -2.226,2.56 -1.032,-0.126 -1.707,-1.492 -1.507,-3.043 0.2,-1.536 1.195,-2.686 2.226,-2.56 1.032,0.133 1.707,1.492 1.507,3.043"
       id="path2231"
       inkscape:connector-curvature="0"
       style="fill:#fffffe" />
    <path
       d="m 31.32,150.812 c -0.2,1.544 -1.202,2.687 -2.234,2.554 -1.031,-0.127 -1.707,-1.492 -1.506,-3.043 0.2,-1.544 1.195,-2.687 2.226,-2.554 1.032,0.126 1.708,1.493 1.514,3.043"
       id="path2233"
       inkscape:connector-curvature="0"
       style="fill:#fffffe" />
    <path
       d="m 36.026,154.346 c -0.2,1.536 -1.195,2.686 -2.227,2.56 -1.039,-0.141 -1.707,-1.492 -1.506,-3.043 0.193,-1.552 1.187,-2.702 2.226,-2.56 1.032,0.126 1.707,1.491 1.507,3.043"
       id="path2235"
       inkscape:connector-curvature="0"
       style="fill:#fffffe" />
    <path
       d="M 45.697,160.506 H 31.565 l 0.854,-11.868 h 12.424 z m -0.735,-3.088 v 0 l -0.898,-7.956 -10.784,0.252 c 0,0 7.05,0.972 8.513,1.455 1.462,0.49 3.169,6.249 3.169,6.249 z"
       id="path2237"
       inkscape:connector-curvature="0"
       style="fill:url(#Gradient_60)" />
    <path
       d="m 44.962,157.418 c 0,0 -1.707,-5.759 -3.169,-6.249 -1.463,-0.483 -8.513,-1.455 -8.513,-1.455 l 10.784,-0.252 z"
       id="path2239"
       inkscape:connector-curvature="0"
       style="fill:url(#Gradient_61)" />
    <path
       d="m 66.596,207.078 c 0,0 -5.418,-0.95 -6.835,-2.591 -1.41,-1.647 -1.358,-3.525 -1.358,-3.525 l -0.046,-6.72 c 0.198,0.491 0.482,1.034 0.892,1.57 2.315,3.042 8.201,3.517 8.201,3.517 h 17.427 c 0,0 6.123,-0.23 9.143,-3.517 1.782,-1.93 1.255,-4.847 1.255,-4.847 L 94.162,177.19 c 0,0 0.096,-3.473 -1.997,-4.869 -1.568,-1.049 -4.314,-1.179 -5.581,-1.179 -0.419,0 -0.676,0.014 -0.676,0.014 H 66.203 c 0,0 -3.48,0.007 -5.099,1.388 -1.625,1.395 -1.952,3.956 -1.952,3.956 l -0.67,8.513 0.333,-21.279 c 0.151,0.674 0.484,1.661 1.22,2.62 2.316,3.043 8.202,3.518 8.202,3.518 h 17.427 c 0,0 6.123,-0.23 9.143,-3.518 0.941,-1.019 1.238,-2.315 1.309,-3.31 h 0.146 v 34.972 l 0.096,1.536 c 0,0 0.245,1.299 -0.096,2.724 v 0.564 h -0.163 c -0.208,0.579 -0.52,1.143 -1.017,1.647 -1.7,1.7 -7.059,2.361 -7.059,2.361 z"
       id="path2241"
       inkscape:connector-curvature="0"
       style="fill:url(#Gradient_62)" />
    <path
       d="M 85.664,169.872 H 68.237 c 0,0 -5.886,-0.475 -8.202,-3.518 -0.736,-0.959 -1.069,-1.946 -1.22,-2.62 -0.115,-0.514 -0.123,-0.846 -0.123,-0.846 l 1.247,-15.846 c 0,0 0.004,-0.027 0.012,-0.076 0.068,-0.435 0.481,-2.626 1.94,-3.872 1.625,-1.388 5.099,-1.396 5.099,-1.396 h 19.705 c 0,0 0.254,-0.014 0.668,-0.014 1.263,0 4.017,0.13 5.589,1.187 2.093,1.388 1.996,4.869 1.996,4.869 l 1.113,13.768 c 0,0 0.118,0.648 0.055,1.536 -0.071,0.995 -0.368,2.291 -1.309,3.31 -3.02,3.288 -9.143,3.518 -9.143,3.518 z M 67.858,142.879 c 0,0 -3.184,0 -4.676,1.276 -1.484,1.27 -1.781,3.622 -1.781,3.622 l -1.136,14.517 c 0,0 0.03,1.626 1.218,3.185 2.13,2.783 7.526,3.22 7.526,3.22 H 84.98 c 0,0 5.604,-0.215 8.372,-3.22 1.633,-1.767 1.151,-4.454 1.151,-4.454 l -1.017,-12.61 c 0,0 0.082,-3.191 -1.826,-4.475 -1.431,-0.954 -3.932,-1.075 -5.104,-1.075 -0.396,0 -0.64,0.014 -0.64,0.014 z"
       id="path2243"
       inkscape:connector-curvature="0"
       style="fill:url(#Gradient_63)" />
    <path
       d="M 84.98,168.699 H 69.009 c 0,0 -5.396,-0.437 -7.526,-3.22 -1.188,-1.559 -1.218,-3.185 -1.218,-3.185 l 1.136,-14.517 c 0,0 0.297,-2.352 1.781,-3.622 1.492,-1.276 4.676,-1.276 4.676,-1.276 h 18.058 c 0,0 0.244,-0.014 0.64,-0.014 1.172,0 3.673,0.121 5.104,1.075 1.908,1.284 1.826,4.475 1.826,4.475 l 1.017,12.61 c 0,0 0.482,2.687 -1.151,4.454 -2.768,3.005 -8.372,3.22 -8.372,3.22 z m -0.489,-8.193 v 0 L 83.637,148.638 H 71.206 l -0.847,11.868 z"
       id="path2245"
       inkscape:connector-curvature="0"
       style="fill:url(#Gradient_64)" />
    <path
       d="m 67.056,154.598 c 0.765,1.35 0.654,2.865 -0.259,3.37 -0.906,0.511 -2.256,-0.171 -3.021,-1.53 -0.764,-1.365 -0.653,-2.872 0.253,-3.384 0.912,-0.512 2.263,0.178 3.027,1.544"
       id="path2247"
       inkscape:connector-curvature="0"
       style="fill:#fffffe" />
    <path
       d="m 67.049,162.347 c -0.2,1.543 -1.195,2.693 -2.226,2.567 -1.039,-0.141 -1.707,-1.499 -1.507,-3.043 0.193,-1.551 1.188,-2.701 2.227,-2.567 1.031,0.132 1.699,1.499 1.506,3.043"
       id="path2249"
       inkscape:connector-curvature="0"
       style="fill:#fffffe" />
    <path
       d="m 72.697,159.519 c -0.2,1.55 -1.195,2.701 -2.226,2.56 -1.032,-0.126 -1.707,-1.492 -1.507,-3.043 0.2,-1.536 1.195,-2.686 2.227,-2.56 1.032,0.133 1.707,1.492 1.506,3.043"
       id="path2251"
       inkscape:connector-curvature="0"
       style="fill:#fffffe" />
    <path
       d="m 70.107,150.812 c -0.193,1.544 -1.195,2.687 -2.226,2.554 -1.032,-0.127 -1.707,-1.492 -1.507,-3.043 0.2,-1.544 1.195,-2.687 2.226,-2.554 1.032,0.126 1.708,1.493 1.507,3.043"
       id="path2253"
       inkscape:connector-curvature="0"
       style="fill:#fffffe" />
    <path
       d="m 74.82,154.346 c -0.2,1.536 -1.195,2.686 -2.226,2.56 -1.039,-0.141 -1.707,-1.492 -1.507,-3.043 0.193,-1.552 1.187,-2.702 2.226,-2.56 1.025,0.126 1.708,1.491 1.507,3.043"
       id="path2255"
       inkscape:connector-curvature="0"
       style="fill:#fffffe" />
    <path
       d="M 84.491,160.506 H 70.359 l 0.847,-11.868 h 12.431 z m -0.742,-3.088 v 0 l -0.891,-7.956 -10.784,0.252 c 0,0 7.051,0.972 8.513,1.455 1.454,0.49 3.162,6.249 3.162,6.249 z"
       id="path2257"
       inkscape:connector-curvature="0"
       style="fill:url(#Gradient_65)" />
    <path
       d="m 83.749,157.418 c 0,0 -1.708,-5.759 -3.162,-6.249 -1.462,-0.483 -8.513,-1.455 -8.513,-1.455 l 10.784,-0.252 z"
       id="path2259"
       inkscape:connector-curvature="0"
       style="fill:url(#Gradient_66)" />
    <path
       d="m 106.178,207.078 c 0,0 -5.418,-0.95 -6.836,-2.591 -1.41,-1.647 -1.358,-3.525 -1.358,-3.525 l -0.026,-3.683 c 0.028,0.038 0.056,0.076 0.085,0.114 2.316,3.042 8.201,3.517 8.201,3.517 h 17.427 c 0,0 6.123,-0.237 9.143,-3.517 1.774,-1.93 1.255,-4.855 1.255,-4.855 l -1.113,-13.768 c 0,0 0.089,-3.48 -1.997,-4.868 -1.57,-1.056 -4.321,-1.187 -5.586,-1.187 -0.415,0 -0.67,0.014 -0.67,0.014 H 104.99 c 0,0 -3.473,0.008 -5.092,1.396 -0.94,0.803 -1.448,1.999 -1.709,2.864 l 0.207,-13.267 c 0.15,0.675 0.484,1.667 1.221,2.632 2.315,3.043 8.208,3.518 8.208,3.518 h 17.419 c 0,0 6.123,-0.23 9.152,-3.518 0.937,-1.019 1.232,-2.315 1.302,-3.31 h 0.145 v 34.972 l 0.096,1.536 c 0,0 0.245,1.299 -0.096,2.724 v 0.564 h -0.163 c -0.208,0.579 -0.52,1.143 -1.017,1.647 -1.7,1.7 -7.059,2.361 -7.059,2.361 z"
       id="path2261"
       inkscape:connector-curvature="0"
       style="fill:url(#Gradient_67)" />
    <path
       d="m 125.244,169.872 h -17.419 c 0,0 -5.893,-0.475 -8.208,-3.518 -0.737,-0.965 -1.071,-1.957 -1.221,-2.632 -0.113,-0.507 -0.123,-0.834 -0.123,-0.834 l 1.247,-15.846 c 0,0 0.136,-1.063 0.667,-2.19 0.293,-0.622 0.707,-1.265 1.285,-1.758 1.626,-1.388 5.099,-1.396 5.099,-1.396 h 19.705 c 0,0 0.254,-0.014 0.667,-0.014 1.264,0 4.02,0.13 5.597,1.187 0.76,0.506 1.23,1.29 1.521,2.082 0.507,1.381 0.468,2.787 0.468,2.787 l 1.114,13.768 c 0,0 0.117,0.648 0.055,1.536 -0.07,0.995 -0.365,2.291 -1.302,3.31 -3.029,3.288 -9.152,3.518 -9.152,3.518 z m -17.805,-26.993 c 0,0 -3.184,0 -4.675,1.276 -1.485,1.27 -1.782,3.622 -1.782,3.622 l -1.135,14.517 c 0,0 0.037,1.626 1.224,3.185 2.123,2.783 7.519,3.22 7.519,3.22 h 15.972 c 0,0 5.603,-0.215 8.372,-3.22 1.632,-1.767 1.15,-4.454 1.15,-4.454 l -1.017,-12.61 c 0,0 0.081,-3.191 -1.826,-4.475 -1.431,-0.954 -3.928,-1.075 -5.098,-1.075 -0.395,0 -0.639,0.014 -0.639,0.014 z"
       id="path2263"
       inkscape:connector-curvature="0"
       style="fill:url(#Gradient_68)" />
    <path
       d="M 124.562,168.699 H 108.59 c 0,0 -5.396,-0.437 -7.519,-3.22 -1.187,-1.559 -1.224,-3.185 -1.224,-3.185 l 1.135,-14.517 c 0,0 0.297,-2.352 1.782,-3.622 1.491,-1.276 4.675,-1.276 4.675,-1.276 h 18.065 c 0,0 0.244,-0.014 0.639,-0.014 1.17,0 3.667,0.121 5.098,1.075 1.907,1.284 1.826,4.475 1.826,4.475 l 1.017,12.61 c 0,0 0.482,2.687 -1.15,4.454 -2.769,3.005 -8.372,3.22 -8.372,3.22 z m -0.49,-8.193 v 0 l -0.854,-11.868 h -12.424 l -0.854,11.868 z"
       id="path2265"
       inkscape:connector-curvature="0"
       style="fill:url(#Gradient_69)" />
    <path
       d="m 106.638,154.598 c 0.764,1.35 0.653,2.865 -0.26,3.37 -0.905,0.511 -2.256,-0.171 -3.021,-1.53 -0.764,-1.365 -0.653,-2.872 0.252,-3.384 0.913,-0.512 2.264,0.178 3.029,1.544"
       id="path2267"
       inkscape:connector-curvature="0"
       style="fill:#fffffe" />
    <path
       d="m 106.63,162.347 c -0.2,1.543 -1.194,2.693 -2.226,2.567 -1.032,-0.141 -1.707,-1.499 -1.507,-3.043 0.193,-1.551 1.187,-2.701 2.227,-2.567 1.031,0.132 1.699,1.499 1.506,3.043"
       id="path2269"
       inkscape:connector-curvature="0"
       style="fill:#fffffe" />
    <path
       d="m 112.278,159.519 c -0.2,1.55 -1.195,2.701 -2.226,2.56 -1.032,-0.126 -1.707,-1.492 -1.507,-3.043 0.201,-1.536 1.195,-2.686 2.226,-2.56 1.032,0.133 1.708,1.492 1.507,3.043"
       id="path2271"
       inkscape:connector-curvature="0"
       style="fill:#fffffe" />
    <path
       d="m 109.695,150.812 c -0.2,1.544 -1.202,2.687 -2.234,2.554 -1.031,-0.127 -1.707,-1.492 -1.506,-3.043 0.2,-1.544 1.195,-2.687 2.227,-2.554 1.031,0.126 1.707,1.493 1.513,3.043"
       id="path2273"
       inkscape:connector-curvature="0"
       style="fill:#fffffe" />
    <path
       d="m 114.401,154.346 c -0.2,1.536 -1.195,2.686 -2.227,2.56 -1.039,-0.141 -1.707,-1.492 -1.506,-3.043 0.193,-1.552 1.187,-2.702 2.227,-2.56 1.031,0.126 1.707,1.491 1.506,3.043"
       id="path2275"
       inkscape:connector-curvature="0"
       style="fill:#fffffe" />
    <path
       d="M 124.072,160.506 H 109.94 l 0.854,-11.868 h 12.424 z m -0.735,-3.088 v 0 l -0.898,-7.956 -10.784,0.252 c 0,0 7.051,0.972 8.513,1.455 1.462,0.49 3.169,6.249 3.169,6.249 z"
       id="path2277"
       inkscape:connector-curvature="0"
       style="fill:url(#Gradient_70)" />
    <path
       d="m 123.337,157.418 c 0,0 -1.707,-5.759 -3.169,-6.249 -1.462,-0.483 -8.513,-1.455 -8.513,-1.455 l 10.784,-0.252 z"
       id="path2279"
       inkscape:connector-curvature="0"
       style="fill:url(#Gradient_71)" />
    <path
       d="m 55.879,233.952 c 0.342,-1.425 0.097,-2.73 0.097,-2.73 l -0.097,-1.537 V 194.721 H 18.443 l -0.474,30.37 0.051,7.541 c 0,0 -0.051,1.877 1.359,3.532 1.417,1.641 6.835,2.583 6.835,2.583 l 21.427,-0.23 c 0,0 5.359,-0.661 7.058,-2.353 0.498,-0.505 0.816,-1.068 1.024,-1.655 h 0.156 z"
       id="path2281"
       inkscape:connector-curvature="0"
       style="fill:url(#Gradient_72)" />
    <path
       d="M 45.281,201.549 H 27.862 c 0,0 -5.886,-0.476 -8.209,-3.519 -0.022,-0.029 -0.044,-0.058 -0.065,-0.087 -1.228,-1.672 -1.271,-3.385 -1.271,-3.385 l 1.239,-15.839 c 0,0 0.059,-0.453 0.247,-1.08 0.26,-0.868 0.767,-2.071 1.706,-2.876 1.625,-1.38 5.098,-1.388 5.098,-1.388 H 46.32 c 0,0 0.267,-0.015 0.699,-0.015 1.277,0 3.999,0.132 5.558,1.18 2.085,1.389 1.996,4.869 1.996,4.869 l 1.113,13.768 c 0,0 0.52,2.924 -1.254,4.853 -3.028,3.282 -9.151,3.519 -9.151,3.519 z M 27.483,174.548 c 0,0 -3.191,0 -4.676,1.284 -1.484,1.269 -1.788,3.614 -1.788,3.614 l -1.136,14.518 c 0,0 0.037,1.625 1.225,3.183 2.122,2.784 7.518,3.221 7.518,3.221 h 15.972 c 0,0 5.603,-0.215 8.379,-3.221 1.633,-1.758 1.151,-4.453 1.151,-4.453 l -1.025,-12.609 c 0,0 0.082,-3.192 -1.825,-4.469 -1.444,-0.963 -3.973,-1.081 -5.129,-1.081 -0.377,0 -0.608,0.013 -0.608,0.013 z"
       id="path2283"
       inkscape:connector-curvature="0"
       style="fill:url(#Gradient_73)" />
    <path
       d="M 44.598,200.368 H 28.626 c 0,0 -5.396,-0.437 -7.518,-3.221 -1.188,-1.558 -1.225,-3.183 -1.225,-3.183 l 1.136,-14.518 c 0,0 0.304,-2.345 1.788,-3.614 1.485,-1.284 4.676,-1.284 4.676,-1.284 h 18.058 c 0,0 0.231,-0.013 0.608,-0.013 1.156,0 3.685,0.118 5.129,1.081 1.907,1.277 1.825,4.469 1.825,4.469 l 1.025,12.609 c 0,0 0.482,2.695 -1.151,4.453 -2.776,3.006 -8.379,3.221 -8.379,3.221 z m -0.49,-8.193 v 0 L 43.255,180.308 H 30.83 l -0.853,11.867 z"
       id="path2285"
       inkscape:connector-curvature="0"
       style="fill:url(#Gradient_74)" />
    <path
       d="m 26.674,186.267 c 0.772,1.358 0.653,2.865 -0.252,3.377 -0.906,0.512 -2.264,-0.178 -3.028,-1.529 -0.765,-1.366 -0.653,-2.88 0.252,-3.385 0.913,-0.511 2.264,0.171 3.028,1.537"
       id="path2287"
       inkscape:connector-curvature="0"
       style="fill:#fffffe" />
    <path
       d="m 26.667,194.022 c -0.2,1.544 -1.195,2.688 -2.227,2.561 -1.031,-0.141 -1.707,-1.491 -1.507,-3.043 0.194,-1.551 1.196,-2.701 2.227,-2.561 1.032,0.134 1.707,1.493 1.507,3.043"
       id="path2289"
       inkscape:connector-curvature="0"
       style="fill:#fffffe" />
    <path
       d="m 32.315,191.195 c -0.193,1.551 -1.195,2.695 -2.227,2.561 -1.032,-0.134 -1.707,-1.499 -1.506,-3.043 0.2,-1.544 1.195,-2.694 2.226,-2.561 1.032,0.126 1.707,1.492 1.507,3.043"
       id="path2291"
       inkscape:connector-curvature="0"
       style="fill:#fffffe" />
    <path
       d="m 29.732,182.481 c -0.2,1.552 -1.202,2.695 -2.234,2.561 -1.031,-0.133 -1.707,-1.491 -1.506,-3.043 0.2,-1.551 1.194,-2.687 2.226,-2.561 1.032,0.127 1.707,1.493 1.514,3.043"
       id="path2293"
       inkscape:connector-curvature="0"
       style="fill:#fffffe" />
    <path
       d="m 34.437,186.015 c -0.2,1.544 -1.194,2.694 -2.226,2.56 -1.031,-0.134 -1.707,-1.492 -1.507,-3.043 0.193,-1.544 1.195,-2.701 2.227,-2.56 1.032,0.133 1.707,1.492 1.506,3.043"
       id="path2295"
       inkscape:connector-curvature="0"
       style="fill:#fffffe" />
    <path
       d="M 44.108,192.175 H 29.977 l 0.853,-11.867 h 12.425 z m -0.735,-3.088 v 0 l -0.898,-7.948 -10.784,0.252 c 0,0 7.059,0.972 8.521,1.455 1.454,0.489 3.161,6.241 3.161,6.241 z"
       id="path2297"
       inkscape:connector-curvature="0"
       style="fill:url(#Gradient_75)" />
    <path
       d="m 43.373,189.087 c 0,0 -1.707,-5.752 -3.161,-6.241 -1.462,-0.483 -8.521,-1.455 -8.521,-1.455 l 10.784,-0.252 z"
       id="path2299"
       inkscape:connector-curvature="0"
       style="fill:url(#Gradient_76)" />
    <path
       d="m 95.468,231.733 c 0.348,-1.424 0.096,-2.723 0.096,-2.723 l -0.096,-1.544 V 192.501 H 58.039 l -0.475,30.378 0.052,7.541 c 0,0 -0.052,1.87 1.358,3.525 1.411,1.64 6.829,2.59 6.829,2.59 l 21.426,-0.237 c 0,0 5.367,-0.654 7.059,-2.353 0.497,-0.505 0.816,-1.069 1.024,-1.655 h 0.156 z"
       id="path2301"
       inkscape:connector-curvature="0"
       style="fill:url(#Gradient_77)" />
    <path
       d="M 84.877,199.329 H 67.45 c 0,0 -5.886,-0.475 -8.201,-3.517 -0.41,-0.536 -0.694,-1.079 -0.892,-1.57 -0.431,-1.068 -0.451,-1.896 -0.451,-1.896 L 59.152,176.5 c 0,0 0.327,-2.561 1.952,-3.956 1.619,-1.381 5.099,-1.388 5.099,-1.388 h 19.705 c 0,0 0.257,-0.014 0.676,-0.014 1.267,0 4.013,0.13 5.581,1.179 2.093,1.396 1.997,4.869 1.997,4.869 l 1.113,13.775 c 0,0 0.527,2.917 -1.255,4.847 -3.02,3.287 -9.143,3.517 -9.143,3.517 z M 67.072,172.336 c 0,0 -3.185,0 -4.676,1.276 -1.484,1.27 -1.789,3.622 -1.789,3.622 l -1.135,14.518 c 0,0 0.037,1.618 1.224,3.177 2.123,2.79 7.519,3.22 7.519,3.22 h 15.972 c 0,0 5.61,-0.208 8.379,-3.22 1.633,-1.76 1.15,-4.453 1.15,-4.453 l -1.017,-12.603 c 0,0 0.082,-3.191 -1.833,-4.476 -1.427,-0.955 -3.929,-1.075 -5.1,-1.075 -0.394,0 -0.637,0.014 -0.637,0.014 z"
       id="path2303"
       inkscape:connector-curvature="0"
       style="fill:url(#Gradient_78)" />
    <path
       d="M 84.187,198.149 H 68.215 c 0,0 -5.396,-0.43 -7.519,-3.22 -1.187,-1.559 -1.224,-3.177 -1.224,-3.177 l 1.135,-14.518 c 0,0 0.305,-2.352 1.789,-3.622 1.491,-1.276 4.676,-1.276 4.676,-1.276 h 18.057 c 0,0 0.243,-0.014 0.637,-0.014 1.171,0 3.673,0.12 5.1,1.075 1.915,1.285 1.833,4.476 1.833,4.476 l 1.017,12.603 c 0,0 0.483,2.693 -1.15,4.453 -2.769,3.012 -8.379,3.22 -8.379,3.22 z m -0.483,-8.193 v 0 l -0.853,-11.86 H 70.419 l -0.854,11.86 z"
       id="path2305"
       inkscape:connector-curvature="0"
       style="fill:url(#Gradient_79)" />
    <path
       d="m 66.27,184.048 c 0.765,1.358 0.646,2.865 -0.26,3.377 -0.905,0.511 -2.256,-0.171 -3.028,-1.53 -0.764,-1.365 -0.646,-2.872 0.26,-3.383 0.905,-0.513 2.264,0.171 3.028,1.536"
       id="path2307"
       inkscape:connector-curvature="0"
       style="fill:#fffffe" />
    <path
       d="m 66.263,191.804 c -0.201,1.544 -1.203,2.694 -2.227,2.56 -1.039,-0.134 -1.707,-1.492 -1.514,-3.043 0.201,-1.544 1.195,-2.701 2.226,-2.56 1.032,0.133 1.707,1.492 1.515,3.043"
       id="path2309"
       inkscape:connector-curvature="0"
       style="fill:#fffffe" />
    <path
       d="m 71.911,188.976 c -0.201,1.551 -1.195,2.702 -2.227,2.56 -1.032,-0.126 -1.707,-1.491 -1.506,-3.043 0.2,-1.536 1.187,-2.693 2.226,-2.56 1.024,0.133 1.707,1.492 1.507,3.043"
       id="path2311"
       inkscape:connector-curvature="0"
       style="fill:#fffffe" />
    <path
       d="m 69.32,180.263 c -0.2,1.55 -1.195,2.694 -2.226,2.56 -1.032,-0.126 -1.707,-1.492 -1.514,-3.043 0.2,-1.551 1.202,-2.686 2.226,-2.56 1.04,0.133 1.708,1.499 1.514,3.043"
       id="path2313"
       inkscape:connector-curvature="0"
       style="fill:#fffffe" />
    <path
       d="m 74.026,183.796 c -0.193,1.543 -1.195,2.693 -2.227,2.567 -1.031,-0.14 -1.707,-1.499 -1.506,-3.043 0.2,-1.551 1.195,-2.701 2.227,-2.567 1.031,0.133 1.707,1.499 1.506,3.043"
       id="path2315"
       inkscape:connector-curvature="0"
       style="fill:#fffffe" />
    <path
       d="M 83.704,189.956 H 69.565 l 0.854,-11.86 h 12.432 z m -0.742,-3.088 v 0 l -0.891,-7.949 -10.791,0.253 c 0,0 7.058,0.971 8.52,1.454 1.455,0.49 3.162,6.242 3.162,6.242 z"
       id="path2317"
       inkscape:connector-curvature="0"
       style="fill:url(#Gradient_80)" />
    <path
       d="m 82.962,186.868 c 0,0 -1.707,-5.752 -3.162,-6.242 -1.462,-0.483 -8.52,-1.454 -8.52,-1.454 l 10.791,-0.253 z"
       id="path2319"
       inkscape:connector-curvature="0"
       style="fill:url(#Gradient_81)" />
    <path
       d="m 134.262,233.314 c 0.342,-1.432 0.096,-2.731 0.096,-2.731 l -0.096,-1.536 V 194.082 H 96.826 l -0.468,30.37 0.052,7.541 c 0,0 -0.052,1.878 1.359,3.526 1.41,1.64 6.828,2.589 6.828,2.589 l 21.426,-0.229 c 0,0 5.367,-0.661 7.059,-2.36 0.497,-0.498 0.816,-1.062 1.024,-1.648 h 0.156 z"
       id="path2321"
       inkscape:connector-curvature="0"
       style="fill:url(#Gradient_82)" />
    <path
       d="m 123.671,200.91 h -17.427 c 0,0 -5.885,-0.475 -8.201,-3.517 -0.029,-0.038 -0.057,-0.076 -0.085,-0.114 -1.216,-1.664 -1.258,-3.36 -1.258,-3.36 l 1.239,-15.846 c 0,0 0.06,-0.454 0.25,-1.084 0.261,-0.865 0.769,-2.061 1.709,-2.864 1.619,-1.388 5.092,-1.396 5.092,-1.396 h 19.713 c 0,0 0.255,-0.014 0.67,-0.014 1.265,0 4.016,0.131 5.586,1.187 2.086,1.388 1.997,4.868 1.997,4.868 l 1.113,13.768 c 0,0 0.519,2.925 -1.255,4.855 -3.02,3.28 -9.143,3.517 -9.143,3.517 z m -17.805,-27.001 c 0,0 -3.192,0 -4.676,1.278 -1.484,1.276 -1.789,3.621 -1.789,3.621 l -1.135,14.517 c 0,0 0.037,1.625 1.224,3.184 2.123,2.783 7.519,3.221 7.519,3.221 h 15.971 c 0,0 5.612,-0.215 8.38,-3.221 1.633,-1.759 1.15,-4.453 1.15,-4.453 l -1.024,-12.61 c 0,0 0.089,-3.191 -1.826,-4.468 -1.429,-0.962 -3.937,-1.082 -5.105,-1.082 -0.391,0 -0.632,0.013 -0.632,0.013 z"
       id="path2323"
       inkscape:connector-curvature="0"
       style="fill:url(#Gradient_83)" />
    <path
       d="m 122.98,199.73 h -15.971 c 0,0 -5.396,-0.438 -7.519,-3.221 -1.187,-1.559 -1.224,-3.184 -1.224,-3.184 l 1.135,-14.517 c 0,0 0.305,-2.345 1.789,-3.621 1.484,-1.278 4.676,-1.278 4.676,-1.278 h 18.057 c 0,0 0.241,-0.013 0.632,-0.013 1.168,0 3.676,0.12 5.105,1.082 1.915,1.277 1.826,4.468 1.826,4.468 l 1.024,12.61 c 0,0 0.483,2.694 -1.15,4.453 -2.768,3.006 -8.38,3.221 -8.38,3.221 z m -0.489,-8.194 v 0 l -0.846,-11.867 h -12.432 l -0.854,11.867 z"
       id="path2325"
       inkscape:connector-curvature="0"
       style="fill:url(#Gradient_84)" />
    <path
       d="m 105.064,185.629 c 0.765,1.35 0.646,2.864 -0.259,3.377 -0.906,0.505 -2.264,-0.179 -3.029,-1.529 -0.764,-1.366 -0.645,-2.88 0.26,-3.392 0.905,-0.512 2.264,0.178 3.028,1.544"
       id="path2327"
       inkscape:connector-curvature="0"
       style="fill:#fffffe" />
    <path
       d="m 105.049,193.385 c -0.193,1.536 -1.195,2.686 -2.226,2.56 -1.032,-0.141 -1.707,-1.492 -1.507,-3.043 0.201,-1.551 1.195,-2.702 2.227,-2.56 1.031,0.126 1.707,1.491 1.506,3.043"
       id="path2329"
       inkscape:connector-curvature="0"
       style="fill:#fffffe" />
    <path
       d="m 110.705,190.55 c -0.201,1.551 -1.203,2.701 -2.226,2.567 -1.04,-0.134 -1.708,-1.499 -1.507,-3.043 0.2,-1.544 1.187,-2.694 2.226,-2.567 1.025,0.133 1.707,1.499 1.507,3.043"
       id="path2331"
       inkscape:connector-curvature="0"
       style="fill:#fffffe" />
    <path
       d="m 108.115,181.844 c -0.201,1.55 -1.195,2.686 -2.234,2.56 -1.025,-0.134 -1.707,-1.499 -1.507,-3.043 0.2,-1.551 1.195,-2.694 2.227,-2.56 1.039,0.126 1.707,1.491 1.514,3.043"
       id="path2333"
       inkscape:connector-curvature="0"
       style="fill:#fffffe" />
    <path
       d="m 112.82,185.376 c -0.2,1.537 -1.195,2.694 -2.226,2.56 -1.032,-0.14 -1.707,-1.491 -1.507,-3.042 0.193,-1.551 1.195,-2.702 2.226,-2.561 1.032,0.127 1.708,1.492 1.507,3.043"
       id="path2335"
       inkscape:connector-curvature="0"
       style="fill:#fffffe" />
    <path
       d="m 122.491,191.536 h -14.132 l 0.854,-11.867 h 12.432 z m -0.735,-3.087 v 0 l -0.898,-7.949 -10.784,0.245 c 0,0 7.058,0.973 8.52,1.462 1.455,0.49 3.162,6.242 3.162,6.242 z"
       id="path2337"
       inkscape:connector-curvature="0"
       style="fill:url(#Gradient_85)" />
    <path
       d="m 121.756,188.449 c 0,0 -1.707,-5.752 -3.162,-6.242 -1.462,-0.489 -8.52,-1.462 -8.52,-1.462 l 10.784,-0.245 z"
       id="path2339"
       inkscape:connector-curvature="0"
       style="fill:url(#Gradient_86)" />
  </g>
</svg>
