<?xml version="1.0" encoding="UTF-8" standalone="no"?>
<svg
   xmlns:dc="http://purl.org/dc/elements/1.1/"
   xmlns:cc="http://creativecommons.org/ns#"
   xmlns:rdf="http://www.w3.org/1999/02/22-rdf-syntax-ns#"
   xmlns:svg="http://www.w3.org/2000/svg"
   xmlns="http://www.w3.org/2000/svg"
   xmlns:sodipodi="http://sodipodi.sourceforge.net/DTD/sodipodi-0.dtd"
   xmlns:inkscape="http://www.inkscape.org/namespaces/inkscape"
   version="1.1"
   x="0"
   y="0"
   width="256"
   height="256"
   viewBox="0 0 256 256"
   id="svg2474"
   sodipodi:docname="sushi_03.svg"
   inkscape:version="0.92.4 (5da689c313, 2019-01-14)">
  <title
     id="title3285">Sushi</title>
  <metadata
     id="metadata2478">
    <rdf:RDF>
      <cc:Work
         rdf:about="">
        <dc:format>image/svg+xml</dc:format>
        <dc:type
           rdf:resource="http://purl.org/dc/dcmitype/StillImage" />
        <dc:title>Sushi</dc:title>
        <cc:license
           rdf:resource="http://creativecommons.org/publicdomain/zero/1.0/" />
        <dc:creator>
          <cc:Agent>
            <dc:title>oksmith</dc:title>
          </cc:Agent>
        </dc:creator>
        <dc:source>https://openclipart.org/detail/316537</dc:source>
      </cc:Work>
      <cc:License
         rdf:about="http://creativecommons.org/publicdomain/zero/1.0/">
        <cc:permits
           rdf:resource="http://creativecommons.org/ns#Reproduction" />
        <cc:permits
           rdf:resource="http://creativecommons.org/ns#Distribution" />
        <cc:permits
           rdf:resource="http://creativecommons.org/ns#DerivativeWorks" />
      </cc:License>
    </rdf:RDF>
  </metadata>
  <sodipodi:namedview
     pagecolor="#ffffff"
     bordercolor="#666666"
     borderopacity="1"
     objecttolerance="10"
     gridtolerance="10"
     guidetolerance="10"
     inkscape:pageopacity="0"
     inkscape:pageshadow="2"
     inkscape:window-width="1920"
     inkscape:window-height="1025"
     id="namedview2476"
     showgrid="false"
     inkscape:zoom="0.56296295"
     inkscape:cx="102.23201"
     inkscape:cy="-188.21189"
     inkscape:window-x="-8"
     inkscape:window-y="-8"
     inkscape:window-maximized="1"
     inkscape:current-layer="svg2474"
     fit-margin-top="0"
     fit-margin-left="0"
     fit-margin-right="0"
     fit-margin-bottom="0" />
  <defs
     id="defs759">
    <linearGradient
       id="Gradient_53"
       gradientUnits="userSpaceOnUse"
       x1="403.08099"
       y1="200.517"
       x2="489.64401"
       y2="200.517">
      <stop
         offset="0"
         stop-color="#676B65"
         id="stop373" />
      <stop
         offset="1"
         stop-color="#2D2E2D"
         id="stop375" />
    </linearGradient>
    <linearGradient
       id="Gradient_54"
       gradientUnits="userSpaceOnUse"
       x1="403.08099"
       y1="200.517"
       x2="489.64401"
       y2="200.517">
      <stop
         offset="0"
         stop-color="#94948E"
         id="stop378" />
      <stop
         offset="1"
         stop-color="#5F5C5A"
         id="stop380" />
    </linearGradient>
    <linearGradient
       id="Gradient_55"
       gradientUnits="userSpaceOnUse"
       x1="403.79599"
       y1="211.72501"
       x2="474.54001"
       y2="155.08299">
      <stop
         offset="0"
         stop-color="#676B65"
         id="stop383" />
      <stop
         offset="0.188"
         stop-color="#676B65"
         id="stop385" />
      <stop
         offset="0.509"
         stop-color="#676B65"
         id="stop387" />
      <stop
         offset="1"
         stop-color="#2D2E2D"
         id="stop389" />
    </linearGradient>
    <linearGradient
       id="Gradient_56"
       gradientUnits="userSpaceOnUse"
       x1="408.73001"
       y1="180.77901"
       x2="484.099"
       y2="180.77901">
      <stop
         offset="0"
         stop-color="#FFFFFE"
         id="stop392" />
      <stop
         offset="0.618"
         stop-color="#DDE1E3"
         id="stop394" />
      <stop
         offset="1"
         stop-color="#DDE1E3"
         id="stop396" />
    </linearGradient>
  </defs>
  <g
     id="g2118"
     transform="matrix(2.76586,0,0,2.76586,-1106.5372,-412.79325)">
    <path
       d="m 422.041,241.803 c -4.882,0 -9.52,-0.953 -13.541,-3.286 -4.439,-2.568 -5.841,-5.693 -5.314,-9.025 v -37.206 l 86.457,-33.057 v 38.609 l -0.245,0.089 c 0.067,10.687 -18.161,23.171 -20.098,25.108 -2.049,2.055 -26.813,18.769 -47.259,18.768 z m -15.619,-41.19 0.23,34.215 c 2.078,3.459 10.866,5.077 10.866,5.077 l 1.618,-35.826 c -0.373,0.088 -0.79,0.127 -1.239,0.127 -4.278,0 -11.475,-3.593 -11.475,-3.593 z"
       id="path2177"
       inkscape:connector-curvature="0"
       style="fill:url(#Gradient_53)" />
    <path
       d="m 417.518,239.905 c 0,0 -8.788,-1.618 -10.866,-5.077 l -0.23,-34.215 c 0,0 7.197,3.593 11.475,3.593 0.449,0 0.866,-0.039 1.239,-0.127 z"
       id="path2179"
       inkscape:connector-curvature="0"
       style="fill:url(#Gradient_54)" />
    <path
       d="m 433,164.78 c -8.32,4.617 -43.226,25.191 -24.5,36.064 20.863,12.097 58.262,-12.945 60.8,-15.497 2.546,-2.538 33.169,-23.239 13.641,-34.215 -13.181,-7.393 -41.614,9.017 -49.941,13.648 z"
       id="path2181"
       inkscape:connector-curvature="0"
       style="fill:url(#Gradient_55)" />
    <path
       d="m 408.73,201.073 v -4.386 l 2.079,-1.172 0.237,-2.532 c 0,0 5.084,-2.307 4.853,-3.012 -0.229,-0.691 2.086,-3.459 2.086,-3.459 0,0 2.308,-3.703 3.006,-4.157 0.691,-0.467 4.156,0.683 4.616,-0.697 0.468,-1.395 3.474,-5.314 4.394,-5.314 0.921,0 4.861,0 5.092,-2.79 0.222,-2.769 1.61,-2.992 2.308,-2.992 0.69,0 5.322,-1.626 5.322,-1.626 0,0 2.768,-1.625 4.156,-2.538 1.388,-0.92 4.163,-2.315 4.163,-2.315 l 7.63,-2.309 c 0,0 5.077,-2.307 6.465,-2.307 1.387,0 6.939,-0.928 7.867,-1.158 0.92,-0.238 4.156,-1.856 5.321,-0.468 1.151,1.388 3.229,4.854 3.229,4.854 1.157,-0.468 2.308,-0.468 2.078,1.388 -0.223,1.848 0.468,2.078 0.468,3.006 0,0.92 -0.468,2.775 -0.468,2.775 0,0 -1.151,4.156 -2.538,5.315 -1.388,1.165 -20.804,20.581 -42.773,26.592 -21.954,6.012 -29.591,-0.698 -29.591,-0.698 z"
       id="path2183"
       inkscape:connector-curvature="0"
       style="fill:url(#Gradient_56)" />
    <path
       d="m 413.881,183.343 c -1.462,-2.932 -6.443,10.547 -6.443,10.547 0,0 -1.758,0.875 -0.882,2.938 0.882,2.049 0.882,3.808 0.882,3.808 l 3.808,1.462 c 0,0 6.739,3.807 18.748,1.462 12.016,-2.345 16.996,-5.574 16.996,-5.574 l -14.354,-7.021 c 0,0 2.635,-4.105 0.876,-4.105 -1.759,0 -4.097,0.29 -5.27,-0.586 -1.179,-0.876 0.579,-5.277 -1.47,-6.145 -2.047,-0.883 -1.172,-0.297 -3.807,-0.297 -2.634,0 -9.084,3.511 -9.084,3.511"
       id="path2185"
       inkscape:connector-curvature="0"
       style="fill:#e9885b" />
    <path
       d="m 420.991,182.355 c 0,0 -3.295,0.988 -4.178,1.285 -1.759,0.579 -2.932,-1.462 -3.815,0.876 -0.876,2.344 -1.752,3.51 -1.752,3.51 2.635,0.883 4.981,4.988 4.981,4.988 0,0 1.461,1.462 3.22,1.751 1.759,0.296 2.643,-0.289 3.518,1.18 0.884,1.462 3.807,0.289 3.807,0.289 l 2.643,0.297 c 0,0 -1.173,-6.152 -3.228,-6.152 -2.049,0 -2.635,-0.29 -3.222,-2.056 -0.586,-1.752 -1.974,-5.968 -1.974,-5.968"
       id="path2187"
       inkscape:connector-curvature="0"
       style="fill:#f1bb9b" />
    <path
       d="m 412.419,202.974 c 0,0 12.55,3.74 25.902,-1.203 13.36,-4.943 8.669,-3.785 8.669,-3.785 0,0 -16.699,1.173 -19.631,0.891 -2.931,-0.297 -18.161,-5.566 -18.161,-7.63 0,-2.049 -2.939,-0.282 -2.939,-0.282 v 3.214 c -0.29,1.179 0,6.449 6.16,8.795"
       id="path2189"
       inkscape:connector-curvature="0"
       style="fill:#cc5e30" />
    <path
       d="m 440.251,164.885 c -1.173,0 -9.374,2.048 -10.257,2.338 -0.876,0.296 -2.049,0.593 -3.511,1.179 -1.469,0.579 -3.807,3.214 -4.393,4.394 -0.594,1.173 -3.229,6.45 -3.229,6.45 0,0 0.609,1.893 2.353,3.28 1.751,1.403 4.683,4.334 4.683,5.203 0,0.883 0.29,0.883 1.462,2.353 1.173,1.462 5.277,2.048 6.153,3.229 0.883,1.165 -4.683,-0.884 -3.221,-0.884 1.462,0 4.097,0.884 6.442,-0.594 2.345,-1.454 4.691,-2.635 5.566,-4.104 0.884,-1.455 2.346,-2.048 3.222,-3.8 0.882,-1.766 3.228,-4.394 2.345,-7.318 -0.876,-2.931 -5.856,-7.044 -6.442,-7.926 -0.587,-0.869 -1.173,-3.8 -1.173,-3.8"
       id="path2191"
       inkscape:connector-curvature="0"
       style="fill:#e9885b" />
    <path
       d="m 420.917,172.499 -2.643,5.566 c 0,0 -0.578,2.346 0.297,2.635 0.876,0.297 2.346,1.166 2.346,3.229 0,2.048 -0.297,3.221 1.173,4.683 1.462,1.47 2.048,3.815 4.393,3.815 2.338,0 4.097,0.297 6.153,-0.594 2.049,-0.868 7.036,-2.048 7.325,-2.924 0.29,-0.883 1.76,-1.759 2.049,-2.932 0.289,-1.172 0,-2.048 -2.338,-2.048 -2.353,0 -3.518,-1.469 -4.987,-2.063 -1.462,-0.579 -1.173,-1.737 -3.222,-2.62 -2.048,-0.884 -4.386,-0.253 -5.856,-2.026 -1.469,-1.789 -1.758,-2.969 -2.055,-3.837 -0.297,-0.884 -2.635,-0.884 -2.635,-0.884"
       id="path2193"
       inkscape:connector-curvature="0"
       style="fill:#cc5e30" />
    <path
       d="m 429.994,167.223 4.987,-1.165 3.808,2.627 c 2.338,2.931 3.807,1.766 4.104,4.111 0.29,2.338 1.166,3.801 -0.297,4.098 -1.469,0.289 -3.221,-1.167 -4.683,-2.346 -1.47,-1.165 -1.18,-2.932 -2.642,-2.932 -1.462,0 -1.462,-0.883 -3.808,-0.883 -2.345,0 -2.931,-1.158 -2.931,-1.158 l 1.462,-2.352"
       id="path2195"
       inkscape:connector-curvature="0"
       style="fill:#f1bb9b" />
    <path
       d="m 454.315,170.748 c -1.172,0 -9.374,2.048 -10.256,2.345 -0.876,0.29 -2.049,0.587 -3.511,1.158 -1.47,0.594 -3.815,3.228 -4.394,4.401 -0.593,1.18 -3.228,6.45 -3.228,6.45 0,0 0.6,1.9 2.352,3.288 1.752,1.402 4.683,4.327 4.683,5.203 0,0.883 0.29,0.883 1.463,2.352 1.172,1.462 5.276,2.041 6.152,3.214 0.883,1.18 -4.683,-0.876 -3.221,-0.876 1.462,0 4.104,0.876 6.442,-0.587 2.346,-1.462 4.691,-2.635 5.574,-4.103 0.876,-1.463 2.338,-2.049 3.214,-3.801 0.883,-1.766 3.228,-4.394 2.353,-7.332 -0.883,-2.917 -5.864,-7.029 -6.45,-7.912 -0.587,-0.868 -1.173,-3.8 -1.173,-3.8"
       id="path2197"
       inkscape:connector-curvature="0"
       style="fill:#e9885b" />
    <path
       d="m 434.981,178.362 -2.642,5.567 c 0,0 -0.586,2.345 0.297,2.634 0.876,0.297 2.345,1.166 2.345,3.229 0,2.041 -0.296,3.222 1.173,4.684 1.462,1.469 2.048,3.807 4.394,3.807 2.338,0 4.097,0.297 6.152,-0.587 2.049,-0.868 7.029,-2.048 7.319,-2.931 0.296,-0.875 1.758,-1.751 2.055,-2.932 0.297,-1.157 0,-2.041 -2.345,-2.041 -2.345,0 -3.51,-1.477 -4.98,-2.063 -1.47,-0.579 -1.173,-1.752 -3.228,-2.627 -2.042,-0.883 -4.379,-0.246 -5.849,-2.027 -1.47,-1.781 -1.759,-2.946 -2.056,-3.829 -0.297,-0.884 -2.635,-0.884 -2.635,-0.884"
       id="path2199"
       inkscape:connector-curvature="0"
       style="fill:#cc5e30" />
    <path
       d="m 444.059,173.093 4.979,-1.18 3.816,2.635 c 2.337,2.931 3.807,1.766 4.104,4.104 0.289,2.345 1.165,3.808 -0.297,4.105 -1.47,0.289 -3.222,-1.173 -4.683,-2.346 -1.47,-1.165 -1.181,-2.932 -2.643,-2.932 -1.469,0 -1.469,-0.868 -3.814,-0.868 -2.338,0 -2.925,-1.18 -2.925,-1.18 l 1.463,-2.338"
       id="path2201"
       inkscape:connector-curvature="0"
       style="fill:#f1bb9b" />
    <path
       d="m 466.198,161.797 c -1.21,0 -9.649,2.175 -10.554,2.494 -0.906,0.304 -2.108,0.608 -3.622,1.239 -1.506,0.616 -3.918,3.414 -4.527,4.661 -0.601,1.24 -3.31,6.835 -3.31,6.835 0,0 0.616,2.02 2.419,3.496 1.796,1.477 4.817,4.594 4.817,5.522 0,0.935 0.304,0.935 1.507,2.486 1.209,1.559 5.432,2.183 6.338,3.422 0.898,1.247 -4.825,-0.935 -3.318,-0.935 1.507,0 4.216,0.935 6.628,-0.616 2.412,-1.566 4.831,-2.799 5.737,-4.357 0.906,-1.559 2.412,-2.174 3.318,-4.045 0.905,-1.862 3.317,-4.668 2.412,-7.777 -0.906,-3.103 -6.034,-7.453 -6.643,-8.387 -0.593,-0.936 -1.202,-4.038 -1.202,-4.038"
       id="path2203"
       inkscape:connector-curvature="0"
       style="fill:#e9885b" />
    <path
       d="m 446.292,169.872 -2.716,5.923 c 0,0 -0.601,2.478 0.312,2.79 0.898,0.312 2.404,1.247 2.404,3.414 0,2.183 -0.304,3.422 1.203,4.98 1.514,1.551 2.122,4.038 4.527,4.038 2.419,0 4.223,0.319 6.338,-0.616 2.116,-0.935 7.237,-2.174 7.541,-3.117 0.297,-0.921 1.803,-1.863 2.108,-3.102 0.304,-1.247 0,-2.183 -2.412,-2.183 -2.412,0 -3.615,-1.551 -5.121,-2.167 -1.515,-0.623 -1.21,-1.87 -3.326,-2.806 -2.107,-0.927 -4.512,-0.252 -6.026,-2.144 -1.514,-1.893 -1.818,-3.132 -2.115,-4.074 -0.305,-0.936 -2.717,-0.936 -2.717,-0.936"
       id="path2205"
       inkscape:connector-curvature="0"
       style="fill:#cc5e30" />
    <path
       d="m 455.644,164.291 5.128,-1.247 3.919,2.791 c 2.413,3.109 3.926,1.87 4.223,4.356 0.305,2.487 1.21,4.031 -0.297,4.349 -1.513,0.319 -3.325,-1.239 -4.831,-2.486 -1.507,-1.246 -1.21,-3.11 -2.717,-3.11 -1.506,0 -1.506,-0.935 -3.919,-0.935 -2.412,0 -3.013,-1.24 -3.013,-1.24 l 1.507,-2.478"
       id="path2207"
       inkscape:connector-curvature="0"
       style="fill:#f1bb9b" />
    <path
       d="m 478.37,154.472 c -1.188,0 -9.471,2.033 -10.361,2.323 -0.884,0.297 -2.071,0.579 -3.548,1.165 -1.477,0.579 -3.845,3.184 -4.445,4.342 -0.587,1.158 -3.251,6.383 -3.251,6.383 0,0 0.608,1.877 2.375,3.257 1.766,1.381 4.727,4.284 4.727,5.159 0,0.861 0.297,0.861 1.485,2.308 1.18,1.462 5.321,2.033 6.205,3.192 0.89,1.165 -4.728,-0.862 -3.251,-0.862 1.476,0 4.141,0.869 6.508,-0.586 2.368,-1.447 4.736,-2.605 5.626,-4.052 0.883,-1.455 2.361,-2.034 3.251,-3.778 0.891,-1.744 3.258,-4.349 2.368,-7.251 -0.891,-2.894 -5.915,-6.962 -6.509,-7.823 -0.594,-0.875 -1.18,-3.777 -1.18,-3.777"
       id="path2209"
       inkscape:connector-curvature="0"
       style="fill:#e9885b" />
    <path
       d="m 458.843,162.019 -2.672,5.507 c 0,0 -0.587,2.309 0.297,2.606 0.89,0.289 2.375,1.165 2.375,3.191 0,2.033 -0.297,3.192 1.173,4.639 1.484,1.447 2.078,3.777 4.445,3.777 2.368,0 4.142,0.29 6.212,-0.586 2.071,-0.868 7.096,-2.033 7.392,-2.894 0.305,-0.868 1.782,-1.744 2.079,-2.903 0.296,-1.157 0,-2.033 -2.375,-2.033 -2.368,0 -3.54,-1.455 -5.025,-2.026 -1.484,-0.586 -1.187,-1.751 -3.251,-2.612 -2.078,-0.869 -4.43,-0.238 -5.915,-2.004 -1.484,-1.767 -1.781,-2.932 -2.078,-3.793 -0.297,-0.869 -2.657,-0.869 -2.657,-0.869"
       id="path2211"
       inkscape:connector-curvature="0"
       style="fill:#cc5e30" />
    <path
       d="m 468.009,156.795 5.032,-1.158 3.844,2.612 c 2.368,2.895 3.852,1.737 4.141,4.053 0.297,2.323 1.188,3.77 -0.289,4.052 -1.484,0.297 -3.258,-1.143 -4.742,-2.316 -1.477,-1.15 -1.181,-2.894 -2.657,-2.894 -1.484,0 -1.484,-0.861 -3.845,-0.861 -2.368,0 -2.961,-1.173 -2.961,-1.173 l 1.477,-2.315"
       id="path2213"
       inkscape:connector-curvature="0"
       style="fill:#f1bb9b" />
    <path
       d="m 462.487,153.276 c -1.188,-0.207 -9.879,0.535 -10.821,0.699 -0.943,0.148 -2.189,0.259 -3.77,0.623 -1.596,0.356 -4.439,2.716 -5.248,3.837 -0.801,1.121 -4.409,6.197 -4.409,6.197 0,0 0.275,2.086 1.804,3.845 1.529,1.758 3.985,5.329 3.83,6.242 -0.148,0.927 0.148,0.971 1.076,2.709 0.928,1.736 4.988,3.049 5.67,4.43 0.691,1.373 -4.601,-1.721 -3.117,-1.476 1.492,0.252 4.008,1.625 6.65,0.497 2.642,-1.136 5.225,-1.952 6.375,-3.34 1.151,-1.373 2.746,-1.744 3.949,-3.437 1.202,-1.677 4.045,-4.044 3.673,-7.25 -0.371,-3.222 -4.705,-8.373 -5.143,-9.389 -0.445,-1.025 -0.519,-4.187 -0.519,-4.187"
       id="path2215"
       inkscape:connector-curvature="0"
       style="fill:#e9885b" />
    <path
       d="m 441.513,157.923 -3.659,5.381 c 0,0 -1.01,2.352 -0.171,2.805 0.838,0.46 2.174,1.633 1.811,3.778 -0.364,2.137 -0.869,3.325 0.356,5.106 1.232,1.781 1.41,4.334 3.785,4.742 2.383,0.402 4.112,1.002 6.353,0.439 2.235,-0.565 7.504,-0.95 7.956,-1.812 0.453,-0.86 2.094,-1.543 2.598,-2.716 0.505,-1.172 0.364,-2.145 -2.019,-2.545 -2.375,-0.409 -3.31,-2.13 -4.69,-3.006 -1.381,-0.862 -0.876,-2.034 -2.806,-3.311 -1.922,-1.268 -4.408,-1.002 -5.581,-3.117 -1.18,-2.115 -1.269,-3.398 -1.41,-4.371 -0.141,-0.965 -2.523,-1.373 -2.523,-1.373"
       id="path2217"
       inkscape:connector-curvature="0"
       style="fill:#cc5e30" />
    <path
       d="m 451.666,153.975 5.262,-0.372 3.399,3.4 c 1.863,3.48 3.563,2.501 3.437,5.002 -0.112,2.509 0.519,4.185 -1.017,4.245 -1.544,0.052 -3.065,-1.781 -4.35,-3.258 -1.276,-1.477 -0.668,-3.265 -2.152,-3.518 -1.484,-0.252 -1.336,-1.165 -3.711,-1.58 -2.375,-0.394 -2.768,-1.723 -2.768,-1.723 l 1.9,-2.196"
       id="path2219"
       inkscape:connector-curvature="0"
       style="fill:#f1bb9b" />
  </g>
</svg>
