<?xml version="1.0" encoding="UTF-8" standalone="no"?>
<svg
   xmlns:dc="http://purl.org/dc/elements/1.1/"
   xmlns:cc="http://creativecommons.org/ns#"
   xmlns:rdf="http://www.w3.org/1999/02/22-rdf-syntax-ns#"
   xmlns:svg="http://www.w3.org/2000/svg"
   xmlns="http://www.w3.org/2000/svg"
   xmlns:sodipodi="http://sodipodi.sourceforge.net/DTD/sodipodi-0.dtd"
   xmlns:inkscape="http://www.inkscape.org/namespaces/inkscape"
   version="1.1"
   x="0"
   y="0"
   width="256"
   height="256"
   viewBox="0 0 256 256"
   id="svg2474"
   sodipodi:docname="sushi_07.svg"
   inkscape:version="0.92.4 (5da689c313, 2019-01-14)">
  <title
     id="title3285">Sushi</title>
  <metadata
     id="metadata2478">
    <rdf:RDF>
      <cc:Work
         rdf:about="">
        <dc:format>image/svg+xml</dc:format>
        <dc:type
           rdf:resource="http://purl.org/dc/dcmitype/StillImage" />
        <dc:title>Sushi</dc:title>
        <cc:license
           rdf:resource="http://creativecommons.org/publicdomain/zero/1.0/" />
        <dc:creator>
          <cc:Agent>
            <dc:title>oksmith</dc:title>
          </cc:Agent>
        </dc:creator>
        <dc:source>https://openclipart.org/detail/316537</dc:source>
      </cc:Work>
      <cc:License
         rdf:about="http://creativecommons.org/publicdomain/zero/1.0/">
        <cc:permits
           rdf:resource="http://creativecommons.org/ns#Reproduction" />
        <cc:permits
           rdf:resource="http://creativecommons.org/ns#Distribution" />
        <cc:permits
           rdf:resource="http://creativecommons.org/ns#DerivativeWorks" />
      </cc:License>
    </rdf:RDF>
  </metadata>
  <sodipodi:namedview
     pagecolor="#ffffff"
     bordercolor="#666666"
     borderopacity="1"
     objecttolerance="10"
     gridtolerance="10"
     guidetolerance="10"
     inkscape:pageopacity="0"
     inkscape:pageshadow="2"
     inkscape:window-width="1920"
     inkscape:window-height="1025"
     id="namedview2476"
     showgrid="false"
     inkscape:zoom="0.56296295"
     inkscape:cx="60.316436"
     inkscape:cy="-207.30559"
     inkscape:window-x="-8"
     inkscape:window-y="-8"
     inkscape:window-maximized="1"
     inkscape:current-layer="svg2474"
     fit-margin-top="0"
     fit-margin-left="0"
     fit-margin-right="0"
     fit-margin-bottom="0" />
  <defs
     id="defs759">
    <linearGradient
       id="Gradient_29"
       gradientUnits="userSpaceOnUse"
       x1="277.40302"
       y1="76.653"
       x2="187.157"
       y2="138.25">
      <stop
         offset="0"
         stop-color="#FFFFFE"
         id="stop206" />
      <stop
         offset="0.618"
         stop-color="#DDE1E3"
         id="stop208" />
      <stop
         offset="1"
         stop-color="#DDE1E3"
         id="stop210" />
    </linearGradient>
    <linearGradient
       id="Gradient_30"
       gradientUnits="userSpaceOnUse"
       x1="256.24701"
       y1="58.102001"
       x2="198.289"
       y2="136.30499">
      <stop
         offset="0"
         stop-color="#F2B6A9"
         id="stop213" />
      <stop
         offset="0.012"
         stop-color="#F2B6A9"
         id="stop215" />
      <stop
         offset="0.6"
         stop-color="#C75054"
         id="stop217" />
      <stop
         offset="1"
         stop-color="#C75054"
         id="stop219" />
    </linearGradient>
    <linearGradient
       id="Gradient_31"
       gradientUnits="userSpaceOnUse"
       x1="256.24701"
       y1="58.102001"
       x2="198.289"
       y2="136.30499">
      <stop
         offset="0"
         stop-color="#F8D2C6"
         id="stop222" />
      <stop
         offset="0.012"
         stop-color="#F8D2C6"
         id="stop224" />
      <stop
         offset="0.6"
         stop-color="#DA7E7B"
         id="stop226" />
      <stop
         offset="1"
         stop-color="#DA7E7B"
         id="stop228" />
    </linearGradient>
    <clipPath
       id="Clip_3">
      <path
         d="m 169.445,118.341 c 1.588,0.318 4.675,1.026 8.457,2.336 -2.031,1.285 -3.407,2.16 -3.844,2.429 -2.339,1.435 -9.374,4.491 -11.744,4.491 -0.255,0 -0.456,-0.035 -0.591,-0.112 -1.395,-0.808 3.978,-6.181 6.962,-8.564 0.188,-0.151 0.444,-0.346 0.76,-0.58 z m 17.382,-12.008 c 3.309,0.546 6.493,1.562 9.606,2.787 -6.428,3.929 -12.661,7.846 -16.934,10.547 -2.814,-1.069 -5.729,-1.91 -8.19,-2.675 5.122,-3.626 10.314,-7.151 15.517,-10.659 z"
         id="path231"
         inkscape:connector-curvature="0" />
    </clipPath>
    <linearGradient
       id="Gradient_32"
       gradientUnits="userSpaceOnUse"
       x1="256.24701"
       y1="58.102001"
       x2="198.289"
       y2="136.30499">
      <stop
         offset="0"
         stop-color="#F8D2C6"
         id="stop234" />
      <stop
         offset="0.012"
         stop-color="#F8D2C6"
         id="stop236" />
      <stop
         offset="0.6"
         stop-color="#DA7E7B"
         id="stop238" />
      <stop
         offset="1"
         stop-color="#DA7E7B"
         id="stop240" />
    </linearGradient>
  </defs>
  <g
     id="g2122"
     transform="matrix(2.141874,0,0,2.141874,-337.00949,-118.61109)">
    <path
       d="m 197.746,150.744 c -1.858,0 -3.87,-0.226 -4.718,-1.074 -1.507,-1.507 -2.36,-0.653 -3.644,-1.722 -0.554,-0.455 -2.641,-1.07 -4.845,-1.624 0.305,0.022 0.598,0.033 0.881,0.033 0.465,0 0.897,-0.03 1.292,-0.094 7.363,-1.188 29.294,-16.498 37.733,-21.182 7.742,-4.297 31.329,-15.71 41.319,-19.255 0.266,0.628 0.575,1.253 0.934,1.865 1.499,2.569 -0.43,6.843 -1.284,7.704 -0.853,0.854 -6.428,5.567 -6.428,5.567 0,0 0,0 -1.499,1.291 -1.492,1.277 -9.418,5.137 -11.133,5.997 -1.714,0.861 -7.073,3.422 -11.57,5.351 -4.491,1.93 -7.066,3.86 -10.487,6.004 -3.429,2.138 -5.352,1.277 -8.358,2.777 -2.998,1.499 -6.642,4.074 -7.496,4.927 -0.853,0.854 -5.781,2.999 -7.28,3.214 -0.652,0.087 -1.989,0.221 -3.417,0.221 z"
       id="path1221"
       inkscape:connector-curvature="0"
       style="fill:url(#Gradient_29)" />
    <path
       d="m 197.704,126.328 c 0.46,0.868 -0.311,2.159 -1.707,2.895 -1.395,0.719 -2.902,0.608 -3.354,-0.275 -0.454,-0.869 0.318,-2.168 1.707,-2.894 1.402,-0.728 2.901,-0.602 3.354,0.274"
       id="path1223"
       inkscape:connector-curvature="0"
       style="fill:#fffffe" />
    <path
       d="m 188.427,120.257 c 0.46,0.876 -0.312,2.175 -1.707,2.894 -1.396,0.728 -2.895,0.617 -3.355,-0.267 -0.453,-0.861 0.312,-2.159 1.707,-2.887 1.403,-0.728 2.909,-0.608 3.355,0.26"
       id="path1225"
       inkscape:connector-curvature="0"
       style="fill:#fffffe" />
    <path
       d="m 186.831,128.644 c 0.453,0.875 -0.311,2.174 -1.707,2.894 -1.403,0.728 -2.909,0.616 -3.362,-0.268 -0.453,-0.868 0.312,-2.173 1.707,-2.894 1.403,-0.72 2.902,-0.615 3.362,0.268"
       id="path1227"
       inkscape:connector-curvature="0"
       style="fill:#fffffe" />
    <path
       d="m 196.813,120.442 c 0.46,0.862 -0.311,2.175 -1.707,2.895 -1.395,0.727 -2.901,0.608 -3.354,-0.275 -0.46,-0.868 0.311,-2.16 1.707,-2.887 1.395,-0.727 2.902,-0.609 3.354,0.267"
       id="path1229"
       inkscape:connector-curvature="0"
       style="fill:#fffffe" />
    <path
       d="m 194.498,133.995 c 0.453,0.868 -0.319,2.174 -1.715,2.895 -1.395,0.726 -2.902,0.608 -3.347,-0.268 -0.453,-0.868 0.312,-2.167 1.707,-2.895 1.396,-0.719 2.895,-0.608 3.355,0.268"
       id="path1231"
       inkscape:connector-curvature="0"
       style="fill:#fffffe" />
    <path
       d="m 208.229,131.493 c 0.459,0.884 -0.312,2.183 -1.708,2.902 -1.402,0.728 -2.902,0.609 -3.354,-0.267 -0.453,-0.875 0.312,-2.167 1.707,-2.895 1.402,-0.734 2.901,-0.608 3.355,0.26"
       id="path1233"
       inkscape:connector-curvature="0"
       style="fill:#fffffe" />
    <path
       d="m 200.027,141.661 c 0.453,0.884 -0.312,2.175 -1.714,2.895 -1.396,0.735 -2.895,0.616 -3.348,-0.26 -0.452,-0.883 0.312,-2.167 1.707,-2.895 1.396,-0.734 2.902,-0.623 3.355,0.26"
       id="path1235"
       inkscape:connector-curvature="0"
       style="fill:#fffffe" />
    <path
       d="m 237.292,113.132 c 0.884,0.437 1.024,1.937 0.319,3.34 -0.697,1.418 -1.981,2.212 -2.857,1.766 -0.883,-0.438 -1.031,-1.937 -0.334,-3.34 0.705,-1.41 1.989,-2.212 2.872,-1.766"
       id="path1237"
       inkscape:connector-curvature="0"
       style="fill:#fffffe" />
    <path
       d="m 249.063,111.893 c 0.876,0.422 1.025,1.929 0.32,3.339 -0.698,1.417 -1.982,2.197 -2.865,1.759 -0.883,-0.437 -1.025,-1.937 -0.327,-3.34 0.705,-1.418 1.989,-2.204 2.872,-1.758"
       id="path1239"
       inkscape:connector-curvature="0"
       style="fill:#fffffe" />
    <path
       d="m 236.929,124.019 c 0.883,0.431 1.031,1.938 0.326,3.348 -0.697,1.41 -1.982,2.196 -2.864,1.759 -0.876,-0.445 -1.025,-1.944 -0.328,-3.348 0.699,-1.41 1.982,-2.204 2.866,-1.759"
       id="path1241"
       inkscape:connector-curvature="0"
       style="fill:#fffffe" />
    <path
       d="m 224.445,125.081 c 0.883,0.438 1.032,1.938 0.326,3.348 -0.697,1.41 -1.981,2.204 -2.864,1.765 -0.884,-0.437 -1.024,-1.936 -0.327,-3.346 0.705,-1.411 1.989,-2.204 2.865,-1.767"
       id="path1243"
       inkscape:connector-curvature="0"
       style="fill:#fffffe" />
    <path
       d="m 220.526,117.948 c 0.876,0.439 1.025,1.946 0.32,3.348 -0.698,1.41 -1.982,2.204 -2.866,1.766 -0.882,-0.445 -1.023,-1.937 -0.326,-3.339 0.705,-1.418 1.989,-2.212 2.872,-1.775"
       id="path1245"
       inkscape:connector-curvature="0"
       style="fill:#fffffe" />
    <path
       d="m 157.344,128.272 c 0,0 -0.082,5.456 1.507,8.639 0,0 20.499,10.547 27.861,9.352 7.363,-1.188 29.294,-16.498 37.733,-21.182 8.439,-4.684 35.7,-17.82 43.663,-20.01 7.956,-2.189 10.146,-10.947 7.956,-12.735 -2.189,-1.789 -118.72,35.936 -118.72,35.936"
       id="path1247"
       inkscape:connector-curvature="0"
       style="fill:#9e494e" />
    <path
       d="m 181.256,140.019 c -3.144,0 -5.803,-1.2 -5.803,-1.2 0,0 -15.125,-5.366 -16.521,-6.962 -1.042,-1.191 -1.67,-2.437 -1.349,-3.662 0.108,-0.415 0.326,-0.828 0.674,-1.236 1.9,-2.22 4.52,-4.23 6.368,-5.968 0,0 1.428,-1.111 3.718,-2.855 0.14,0.023 0.52,0.088 1.102,0.205 -0.316,0.234 -0.572,0.429 -0.76,0.58 -2.984,2.383 -8.357,7.756 -6.962,8.564 0.135,0.077 0.336,0.112 0.591,0.112 2.37,0 9.405,-3.056 11.744,-4.491 0.437,-0.269 1.813,-1.144 3.844,-2.429 2.129,0.737 4.478,1.666 6.903,2.823 5.419,2.586 10.525,6.587 12.604,9.371 -1.606,0.915 -3.099,1.779 -4.448,2.578 -3.703,2.175 -5.573,3.57 -9.551,4.364 -0.726,0.147 -1.453,0.206 -2.154,0.206 z m 17.485,-7.903 c -1.368,-1.028 -9.827,-7.376 -13.343,-9.61 -1.756,-1.116 -3.799,-2.041 -5.899,-2.839 4.273,-2.701 10.506,-6.618 16.934,-10.547 0.943,0.433 1.799,0.913 2.496,1.443 4.178,3.192 16.321,12.143 16.321,12.143 l 0.045,0.329 c -5.865,3.152 -11.658,6.314 -16.554,9.081 z m 18.718,-10.242 -0.02,-0.17 c 0,0 -11.148,-6.954 -15.326,-10.547 -1.126,-0.967 -2.789,-1.875 -4.617,-2.686 9.672,-5.893 19.568,-11.663 23.721,-13.234 1.167,-0.44 2.774,-0.907 4.686,-1.387 5.53,3.95 12.011,8.78 13.23,10.546 2.182,3.177 2.583,4.171 2.583,4.171 v 0.508 c -5.882,3.069 -15.034,7.86 -24.257,12.799 z M 168.72,117.85 c 0.315,-0.24 0.643,-0.489 0.986,-0.749 0.601,-0.455 1.242,-0.94 1.917,-1.447 2.756,-2.074 6.071,-4.535 9.465,-6.98 0.54,-0.389 1.082,-0.778 1.624,-1.165 0.414,-0.295 0.829,-0.59 1.243,-0.882 0.297,-0.211 0.595,-0.421 0.892,-0.629 0.178,0.026 0.914,0.135 1.979,0.335 -5.651,3.8 -11.915,8.095 -15.517,10.659 -0.282,-0.088 -0.559,-0.174 -0.829,-0.261 z m 74.656,-9.642 c -0.922,-1.176 -6.334,-7.999 -9.416,-10.18 -1.288,-0.909 -3.641,-2.739 -6.064,-4.658 4.845,-1.124 11.078,-2.289 17.047,-3.317 6.069,3.756 12.701,7.956 15.676,10.165 l -0.008,0.152 c -5.419,2.216 -10.551,4.358 -14.123,6.216 -0.794,0.414 -1.846,0.962 -3.112,1.622 z m -55.027,-2.898 c -0.906,-0.25 -1.56,-0.416 -1.826,-0.481 1.726,-1.195 3.405,-2.327 4.969,-3.342 2.14,-1.387 4.668,-2.869 7.435,-4.379 5.661,-3.088 12.325,-6.29 18.723,-9.026 0.069,0.047 0.481,0.328 1.145,0.786 -8.964,3.899 -18.052,8.44 -21.455,10.556 -1.868,1.157 -5.216,3.358 -8.991,5.886 z m 73.279,-5.355 c -1.795,-1.217 -9.469,-6.416 -15.127,-10.168 9.811,-1.664 18.497,-2.906 18.497,-2.906 l -11.941,-6.16 c 0,0 -11.748,0.48 -17.68,1.974 -0.716,-0.455 -1.106,-0.706 -1.106,-0.706 l -1.707,0.513 c 0,0 0.4,0.24 1.107,0.666 -3.483,1.038 -7.96,2.758 -12.604,4.724 -0.452,-0.366 -0.8,-0.649 -1.012,-0.821 5.287,-2.187 10.274,-3.994 14.216,-5.082 4.789,-1.321 8.933,-1.989 12.282,-2.276 1.503,-0.129 2.847,-0.181 4.016,-0.181 2.506,0 4.214,0.239 4.996,0.476 1.997,0.579 16.121,7.949 16.121,7.949 0,0 4.797,3.289 4.998,5.372 0.014,0.142 0.007,0.279 -0.026,0.409 -0.393,1.581 -2.16,0.906 -8.869,3.697 -2.038,0.841 -4.114,1.685 -6.161,2.52 z"
       id="path1249"
       inkscape:connector-curvature="0"
       style="fill:url(#Gradient_30)" />
    <path
       d="m 168.284,118.127 c 0,0 7.763,1.194 16.521,5.373 5.537,2.643 10.747,6.762 12.736,9.552 l 2.39,6.761 1.788,-0.794 -2.79,-6.761 c 0,0 -9.7,-7.318 -13.531,-9.752 -4.378,-2.783 -10.546,-4.379 -14.918,-5.775 l -2.196,1.396"
       id="path1251"
       inkscape:connector-curvature="0"
       style="fill:#eab0ae" />
    <path
       d="m 184.805,105.992 c 0,0 9.945,1.388 14.124,4.571 4.178,3.192 16.321,12.143 16.321,12.143 l 0.994,7.162 1.989,-1.388 -0.794,-6.776 c 0,0 -11.148,-6.954 -15.326,-10.547 -4.172,-3.584 -15.72,-6.36 -15.72,-6.36 l -1.588,1.195"
       id="path1253"
       inkscape:connector-curvature="0"
       style="fill:#eab0ae" />
    <path
       d="m 217.639,88.075 c 0,0 19.297,13.137 21.494,16.321 2.182,3.177 2.583,4.171 2.583,4.171 v 7.37 l 1.796,-0.995 v -6.56 c 0,0 -6.175,-7.964 -9.552,-10.354 -3.385,-2.389 -14.139,-11.147 -14.139,-11.147 l -2.182,1.194"
       id="path1255"
       inkscape:connector-curvature="0"
       style="fill:#eab0ae" />
    <path
       d="m 232.564,82.502 c 0,0 21.888,13.137 28.055,17.716 l -0.394,7.562 1.196,-0.4 0.594,-7.162 c 0,0 -16.714,-11.348 -20.893,-13.931 -4.186,-2.583 -6.851,-4.298 -6.851,-4.298 l -1.707,0.513"
       id="path1257"
       inkscape:connector-curvature="0"
       style="fill:#eab0ae" />
    <g
       clip-path="url(#Clip_3)"
       id="g1261">
      <path
         d="m 169.445,118.341 c 1.588,0.318 4.675,1.026 8.457,2.336 -2.031,1.285 -3.407,2.16 -3.844,2.429 -2.339,1.435 -9.374,4.491 -11.744,4.491 -0.255,0 -0.456,-0.035 -0.591,-0.112 -1.395,-0.808 3.978,-6.181 6.962,-8.564 0.188,-0.151 0.444,-0.346 0.76,-0.58 z m 17.381,-12.008 c 2.404,0.449 6.484,1.355 9.607,2.787 -6.428,3.929 -12.661,7.846 -16.934,10.547 -2.814,-1.069 -5.729,-1.91 -8.19,-2.675 3.602,-2.564 9.866,-6.859 15.517,-10.659 z"
         id="path1259"
         inkscape:connector-curvature="0"
         style="fill:url(#Gradient_31)" />
    </g>
    <path
       d="m 177.902,120.677 c -3.782,-1.31 -6.869,-2.018 -8.457,-2.336 0.488,-0.363 1.12,-0.819 1.864,-1.349 2.461,0.765 5.376,1.606 8.19,2.675 -0.569,0.359 -1.102,0.697 -1.597,1.01"
       id="path1263"
       inkscape:connector-curvature="0"
       style="fill:#f3cfca" />
    <path
       d="m 197.496,108.471 c -3.21,-1.424 -6.931,-2.548 -9.147,-3.161 3.775,-2.528 7.123,-4.729 8.991,-5.886 3.403,-2.116 12.491,-6.657 21.455,-10.556 1.462,1.006 4.148,2.868 7.108,4.982 -1.912,0.48 -3.519,0.947 -4.686,1.387 -4.153,1.571 -14.049,7.341 -23.721,13.234 z m 30.4,-15.101 c -2.613,-2.071 -5.307,-4.245 -6.829,-5.478 4.644,-1.966 9.121,-3.686 12.604,-4.724 2,1.207 6.459,3.906 11.272,6.885 -5.969,1.028 -12.202,2.193 -17.047,3.317 z m 18.605,-3.583 c -2.306,-1.53 -4.278,-2.819 -5.379,-3.5 -2.585,-1.595 -4.589,-2.859 -5.745,-3.592 5.932,-1.494 17.68,-1.974 17.68,-1.974 l 11.941,6.16 c 0,0 -8.686,1.242 -18.497,2.906 z"
       id="path1265"
       inkscape:connector-curvature="0"
       style="fill:url(#Gradient_32)" />
    <path
       d="m 196.433,109.12 c -3.123,-1.432 -7.203,-2.338 -9.607,-2.787 0.514,-0.346 1.022,-0.687 1.523,-1.023 2.216,0.613 5.937,1.737 9.147,3.161 -0.355,0.216 -0.709,0.433 -1.063,0.649"
       id="path1267"
       inkscape:connector-curvature="0"
       style="fill:#f3cfca" />
    <path
       d="m 225.903,93.85 c -2.96,-2.114 -5.646,-3.976 -7.108,-4.982 0.759,-0.331 1.518,-0.657 2.272,-0.976 1.522,1.233 4.216,3.407 6.829,5.478 -0.695,0.161 -1.36,0.321 -1.993,0.48"
       id="path1269"
       inkscape:connector-curvature="0"
       style="fill:#f3cfca" />
    <path
       d="m 244.943,90.053 c -4.813,-2.979 -9.272,-5.678 -11.272,-6.885 0.589,-0.176 1.148,-0.331 1.677,-0.466 0.009,-0.002 0.019,-0.005 0.029,-0.007 1.156,0.733 3.16,1.997 5.745,3.592 1.101,0.681 3.073,1.97 5.379,3.5 -0.516,0.087 -1.036,0.176 -1.558,0.266"
       id="path1271"
       inkscape:connector-curvature="0"
       style="fill:#f3cfca" />
  </g>
</svg>
