<?xml version="1.0" encoding="UTF-8" standalone="no"?>
<svg
   xmlns:dc="http://purl.org/dc/elements/1.1/"
   xmlns:cc="http://creativecommons.org/ns#"
   xmlns:rdf="http://www.w3.org/1999/02/22-rdf-syntax-ns#"
   xmlns:svg="http://www.w3.org/2000/svg"
   xmlns="http://www.w3.org/2000/svg"
   xmlns:sodipodi="http://sodipodi.sourceforge.net/DTD/sodipodi-0.dtd"
   xmlns:inkscape="http://www.inkscape.org/namespaces/inkscape"
   version="1.1"
   x="0"
   y="0"
   width="256"
   height="256"
   viewBox="0 0 256 256"
   id="svg2474"
   sodipodi:docname="sushi_05.svg"
   inkscape:version="0.92.4 (5da689c313, 2019-01-14)">
  <title
     id="title3285">Sushi</title>
  <metadata
     id="metadata2478">
    <rdf:RDF>
      <cc:Work
         rdf:about="">
        <dc:format>image/svg+xml</dc:format>
        <dc:type
           rdf:resource="http://purl.org/dc/dcmitype/StillImage" />
        <dc:title>Sushi</dc:title>
        <cc:license
           rdf:resource="http://creativecommons.org/publicdomain/zero/1.0/" />
        <dc:creator>
          <cc:Agent>
            <dc:title>oksmith</dc:title>
          </cc:Agent>
        </dc:creator>
        <dc:source>https://openclipart.org/detail/316537</dc:source>
      </cc:Work>
      <cc:License
         rdf:about="http://creativecommons.org/publicdomain/zero/1.0/">
        <cc:permits
           rdf:resource="http://creativecommons.org/ns#Reproduction" />
        <cc:permits
           rdf:resource="http://creativecommons.org/ns#Distribution" />
        <cc:permits
           rdf:resource="http://creativecommons.org/ns#DerivativeWorks" />
      </cc:License>
    </rdf:RDF>
  </metadata>
  <sodipodi:namedview
     pagecolor="#ffffff"
     bordercolor="#666666"
     borderopacity="1"
     objecttolerance="10"
     gridtolerance="10"
     guidetolerance="10"
     inkscape:pageopacity="0"
     inkscape:pageshadow="2"
     inkscape:window-width="1920"
     inkscape:window-height="1025"
     id="namedview2476"
     showgrid="false"
     inkscape:zoom="1.5922997"
     inkscape:cx="6.4989527"
     inkscape:cy="98.485526"
     inkscape:window-x="-8"
     inkscape:window-y="-8"
     inkscape:window-maximized="1"
     inkscape:current-layer="svg2474"
     fit-margin-top="0"
     fit-margin-left="0"
     fit-margin-right="0"
     fit-margin-bottom="0" />
  <defs
     id="defs759">
    <linearGradient
       id="Gradient_14"
       gradientUnits="userSpaceOnUse"
       x1="283.78699"
       y1="17.065001"
       x2="190.75101"
       y2="80.566002">
      <stop
         offset="0"
         stop-color="#FFFFFE"
         id="stop92" />
      <stop
         offset="0.618"
         stop-color="#DDE1E3"
         id="stop94" />
      <stop
         offset="1"
         stop-color="#DDE1E3"
         id="stop96" />
    </linearGradient>
    <linearGradient
       id="Gradient_15"
       gradientUnits="userSpaceOnUse"
       x1="257.50299"
       y1="-7.2119999"
       x2="201.694"
       y2="67.308998">
      <stop
         offset="0"
         stop-color="#FDF4DB"
         id="stop99" />
      <stop
         offset="0.503"
         stop-color="#EFD975"
         id="stop101" />
      <stop
         offset="1"
         stop-color="#EFD975"
         id="stop103" />
    </linearGradient>
    <linearGradient
       id="Gradient_16"
       gradientUnits="userSpaceOnUse"
       x1="257.50299"
       y1="-7.2119999"
       x2="201.694"
       y2="67.308998">
      <stop
         offset="0"
         stop-color="#DBBB85"
         id="stop106" />
      <stop
         offset="0.503"
         stop-color="#D2AD54"
         id="stop108" />
      <stop
         offset="1"
         stop-color="#D2AD54"
         id="stop110" />
    </linearGradient>
    <linearGradient
       id="Gradient_17"
       gradientUnits="userSpaceOnUse"
       x1="257.50299"
       y1="-7.2119999"
       x2="201.694"
       y2="67.308998">
      <stop
         offset="0"
         stop-color="#DBBB85"
         id="stop113" />
      <stop
         offset="0.503"
         stop-color="#D2AD54"
         id="stop115" />
      <stop
         offset="1"
         stop-color="#D2AD54"
         id="stop117" />
    </linearGradient>
    <linearGradient
       id="Gradient_18"
       gradientUnits="userSpaceOnUse"
       x1="257.50299"
       y1="-7.2119999"
       x2="201.694"
       y2="67.308998">
      <stop
         offset="0"
         stop-color="#DBBB85"
         id="stop120" />
      <stop
         offset="0.503"
         stop-color="#D2AD54"
         id="stop122" />
      <stop
         offset="1"
         stop-color="#D2AD54"
         id="stop124" />
    </linearGradient>
    <linearGradient
       id="Gradient_19"
       gradientUnits="userSpaceOnUse"
       x1="191.24699"
       y1="53.960999"
       x2="250.34"
       y2="53.960999">
      <stop
         offset="0"
         stop-color="#676B65"
         id="stop127" />
      <stop
         offset="1"
         stop-color="#2D2E2D"
         id="stop129" />
    </linearGradient>
  </defs>
  <g
     id="g2120"
     transform="matrix(2.073662,0,0,2.073662,-331.05074,18.294189)">
    <path
       d="m 169.441,49.935 c 0.899,0.459 1.055,1.996 0.327,3.443 -0.72,1.47 -2.041,2.271 -2.954,1.818 -0.905,-0.445 -1.054,-1.996 -0.334,-3.451 0.72,-1.447 2.049,-2.264 2.961,-1.81"
       id="path827"
       inkscape:connector-curvature="0"
       style="fill:#fffffe" />
    <path
       d="m 181.569,48.643 c 0.906,0.46 1.061,2.004 0.334,3.458 -0.72,1.456 -2.041,2.272 -2.954,1.812 -0.906,-0.453 -1.054,-2.004 -0.334,-3.444 0.72,-1.462 2.049,-2.279 2.954,-1.826"
       id="path829"
       inkscape:connector-curvature="0"
       style="fill:#fffffe" />
    <path
       d="m 169.07,61.164 c 0.899,0.445 1.055,1.996 0.327,3.437 -0.72,1.461 -2.041,2.278 -2.954,1.825 -0.905,-0.46 -1.054,-1.996 -0.334,-3.458 0.72,-1.455 2.049,-2.272 2.961,-1.804"
       id="path831"
       inkscape:connector-curvature="0"
       style="fill:#fffffe" />
    <path
       sodipodi:nodetypes="sccscccsccccccccs"
       d="m 201.673,93.458 c -0.846,0 -1.724,-0.046 -2.515,-0.173 -5.25989,0.246415 -10.33095,-1.442309 -10.33095,-1.442309 0,0 -12.87851,-3.515464 -17.74224,-5.405693 -0.31411,-0.122074 -0.99918,-0.610609 -1.05845,-1.510208 -1.94317,-6.683304 -1.11405,-5.020557 -1.04768,-12.419618 L 191.804,80.632 c 0,0 3.933,0.883 6.999,0.883 3.057,0 5.588,-1.262 10.502,-3.934 6.656,-3.625 16.357,-9.046 26.73,-14.858 0.06,0.521 39.60231,-22.175426 39.60231,-22.175426 0.469,3.773 -0.14114,12.587476 -3.56425,17.039515 -2.311,1.298 -40.75606,22.951911 -43.03406,24.372911 -3.533,2.212 -5.521,1.328 -8.617,2.88 -3.087,1.536 -6.85,4.193 -7.726,5.069 -0.883,0.891 -5.96,3.102 -7.51,3.318 -0.67,0.093 -2.044,0.231 -3.513,0.231 z"
       id="path851"
       inkscape:connector-curvature="0"
       style="fill:url(#Gradient_14)" />
    <path
       d="m 201.623,68.281 c 0.467,0.891 -0.319,2.235 -1.759,2.984 -1.448,0.75 -2.991,0.624 -3.459,-0.282 -0.468,-0.898 0.32,-2.234 1.759,-2.984 1.44,-0.742 2.991,-0.623 3.459,0.282"
       id="path853"
       inkscape:connector-curvature="0"
       style="fill:#fffffe" />
    <path
       d="m 192.064,62.024 c 0.467,0.899 -0.327,2.235 -1.767,2.992 -1.44,0.742 -2.991,0.616 -3.459,-0.283 -0.467,-0.897 0.327,-2.233 1.76,-2.983 1.447,-0.757 2.99,-0.638 3.466,0.274"
       id="path855"
       inkscape:connector-curvature="0"
       style="fill:#fffffe" />
    <path
       d="m 190.408,70.671 c 0.468,0.898 -0.326,2.234 -1.759,2.976 -1.447,0.75 -2.998,0.631 -3.465,-0.267 -0.468,-0.898 0.326,-2.248 1.766,-2.99 1.44,-0.743 2.991,-0.617 3.458,0.281"
       id="path857"
       inkscape:connector-curvature="0"
       style="fill:#fffffe" />
    <path
       d="m 200.703,62.21 c 0.467,0.898 -0.32,2.234 -1.76,2.984 -1.439,0.742 -2.99,0.623 -3.458,-0.275 -0.467,-0.898 0.327,-2.233 1.766,-2.99 1.44,-0.75 2.991,-0.624 3.452,0.281"
       id="path859"
       inkscape:connector-curvature="0"
       style="fill:#fffffe" />
    <path
       d="m 198.313,76.179 c 0.467,0.905 -0.319,2.248 -1.759,2.99 -1.448,0.75 -2.991,0.631 -3.466,-0.267 -0.461,-0.898 0.326,-2.249 1.766,-2.991 1.44,-0.757 2.991,-0.631 3.459,0.268"
       id="path861"
       inkscape:connector-curvature="0"
       style="fill:#fffffe" />
    <path
       d="m 212.474,73.61 c 0.467,0.906 -0.327,2.242 -1.759,2.992 -1.447,0.742 -2.991,0.616 -3.466,-0.283 -0.468,-0.898 0.326,-2.234 1.766,-2.983 1.44,-0.742 2.991,-0.631 3.459,0.274"
       id="path863"
       inkscape:connector-curvature="0"
       style="fill:#fffffe" />
    <path
       d="m 204.013,84.09 c 0.467,0.898 -0.32,2.241 -1.759,2.991 -1.44,0.75 -2.991,0.623 -3.466,-0.274 -0.46,-0.913 0.326,-2.242 1.774,-2.992 1.439,-0.75 2.991,-0.63 3.451,0.275"
       id="path865"
       inkscape:connector-curvature="0"
       style="fill:#fffffe" />
    <path
       d="m 242.443,54.677 c 0.906,0.453 1.054,1.997 0.326,3.444 -0.719,1.462 -2.041,2.271 -2.946,1.818 -0.913,-0.445 -1.061,-1.997 -0.342,-3.451 0.721,-1.447 2.049,-2.263 2.962,-1.811"
       id="path867"
       inkscape:connector-curvature="0"
       style="fill:#fffffe" />
    <path
       d="m 254.57,53.386 c 0.913,0.453 1.062,2.004 0.334,3.451 -0.719,1.455 -2.041,2.271 -2.946,1.818 -0.913,-0.453 -1.062,-2.004 -0.342,-3.451 0.728,-1.455 2.049,-2.271 2.954,-1.818"
       id="path869"
       inkscape:connector-curvature="0"
       style="fill:#fffffe" />
    <path
       d="m 242.072,65.906 c 0.906,0.446 1.054,1.989 0.334,3.437 -0.727,1.462 -2.049,2.278 -2.954,1.818 -0.913,-0.453 -1.061,-1.989 -0.342,-3.451 0.721,-1.455 2.049,-2.272 2.962,-1.804"
       id="path871"
       inkscape:connector-curvature="0"
       style="fill:#fffffe" />
    <path
       d="m 229.195,66.997 c 0.913,0.445 1.054,2.004 0.334,3.451 -0.72,1.455 -2.049,2.272 -2.954,1.819 -0.905,-0.453 -1.061,-2.004 -0.334,-3.452 0.72,-1.454 2.041,-2.27 2.954,-1.818"
       id="path873"
       inkscape:connector-curvature="0"
       style="fill:#fffffe" />
    <path
       d="m 225.15,59.643 c 0.906,0.445 1.054,2.003 0.334,3.451 -0.72,1.454 -2.048,2.27 -2.954,1.818 -0.905,-0.46 -1.061,-2.004 -0.334,-3.451 0.72,-1.462 2.041,-2.278 2.954,-1.818"
       id="path875"
       inkscape:connector-curvature="0"
       style="fill:#fffffe" />
    <path
       d="m 160.209,56.792 c -0.134,2.531 5.15,4.32 5.15,4.32 l 26.445,9.329 c 0,0 3.933,0.869 6.999,0.869 3.057,0 5.588,-1.262 10.502,-3.934 16.506,-8.988 51.745,-29.027 69.483,-38.668 2.887,-1.566 3.437,-1.262 3.897,-2.835 0.46,-1.589 0.415,-1.856 -4.023,-3.214 -7.941,-2.427 -20.484,-6.768 -32.285,-9.522 -2.123,-0.497 -4.134,-1.232 -6.94,-0.431 -2.805,0.81 -1.937,0.461 -5.321,2.108 -5.567,2.679 -14.859,7.229 -25.071,12.447 -15.608,7.993 -33.718,16.885 -43.582,23.853 -3.28,2.323 -5.128,3.162 -5.254,5.678"
       id="path877"
       inkscape:connector-curvature="0"
       style="fill:#f2e78b" />
    <path
       d="m 282.788,25.131 -18.94,3.043 0.014,0.014 c -5.573,-1.714 -11.622,-3.473 -17.485,-4.853 -2.123,-0.49 -4.134,-1.21 -6.94,-0.424 -2.805,0.81 -1.937,0.476 -5.321,2.109 -5.567,2.678 -14.859,7.221 -25.071,12.446 -11.586,5.93 -24.529,12.349 -34.475,18.109 l -14.361,1.217 c 0,0 -0.713,4.966 -0.535,6.836 0.216,2.115 0.424,3.793 0.424,3.793 l 0.2,0.029 c 0.468,2.286 5.061,3.86 5.061,3.86 l 26.445,9.322 c 0,0 3.933,0.883 6.999,0.883 3.057,0 5.588,-1.262 10.502,-3.934 16.506,-8.988 51.745,-29.027 69.483,-38.668 2.887,-1.566 3.437,-1.27 3.897,-2.843 0.081,-0.289 0.133,-0.519 0.163,-0.742 l 0.148,-0.103 c 0.319,-1.262 -0.208,-10.094 -0.208,-10.094"
       id="path879"
       inkscape:connector-curvature="0"
       style="fill:#c0b672" />
    <path
       d="m 198.803,71.31 c -3.066,0 -6.999,-0.869 -6.999,-0.869 l -26.445,-9.329 c 0,0 -5.284,-1.789 -5.15,-4.32 0.126,-2.516 1.974,-3.355 5.254,-5.678 6.278,-4.435 15.895,-9.649 26.082,-14.914 l 4.125,1.693 c -0.7,0.379 -1.208,0.657 -1.469,0.805 -2.293,1.321 -22.978,16.751 -22.978,16.751 0,0 15.43,-7.889 18.057,-9.856 1.459,-1.093 5.755,-4.009 9.454,-6.443 l 8.563,3.514 c -6.111,4.548 -11.782,8.844 -11.782,8.844 0,0 6.51,-4.184 12.996,-8.346 l 18.536,7.606 c -2.931,1.773 -5.29,3.129 -6.58,3.694 -5.255,2.301 -20.358,9.842 -23.639,10.836 -0.363,0.108 -0.815,0.157 -1.331,0.156 -4.146,0 -12.451,-3.11 -12.451,-3.11 0,0 12.142,4.921 13.782,5.581 0.074,0.029 0.174,0.043 0.299,0.043 2.646,0 16.23,-6.373 18.746,-8.251 0.805,-0.605 6.266,-3.799 13.5,-7.995 l 4.666,1.914 c -9.614,5.385 -18.507,10.349 -24.734,13.74 -4.914,2.672 -7.445,3.934 -10.502,3.934 z m 50.744,-26.365 -5.038,-1.992 c 13.57,-7.872 27.006,-15.738 27.822,-16.724 1.64,-1.974 -9.849,-3.941 -9.849,-3.941 0,0 5.255,2.293 5.581,3.274 0.334,0.994 -4.92,4.601 -12.142,7.888 -2.936,1.337 -8.477,4.68 -14.373,8.332 l -19.166,-7.58 c 4.657,-3.451 17.783,-14.215 17.783,-14.215 0,0 -14.443,9.849 -18.711,12.477 -0.334,0.205 -0.775,0.495 -1.303,0.856 l -6.853,-2.71 c 3.644,-2.121 7.195,-4.24 7.822,-4.708 1.321,-0.987 16.751,-10.508 16.751,-10.508 0,0 -17.078,9.187 -18.391,9.848 -0.512,0.257 -4.118,2.161 -8.464,4.465 l -3.81,-1.506 c 0.617,-0.315 1.229,-0.628 1.839,-0.94 10.212,-5.218 19.504,-9.768 25.071,-12.447 3.384,-1.647 2.516,-1.298 5.321,-2.108 0.898,-0.256 1.714,-0.355 2.479,-0.355 1.625,0 3.017,0.448 4.461,0.786 11.801,2.754 24.344,7.095 32.285,9.522 3.381,1.035 4.212,1.436 4.213,2.271 0,0.149 -0.026,0.313 -0.07,0.496 -0.032,0.137 -0.074,0.285 -0.12,0.447 -0.46,1.573 -1.01,1.269 -3.897,2.835 -7.521,4.088 -18.19,10.045 -29.241,16.237 z"
       id="path881"
       inkscape:connector-curvature="0"
       style="fill:url(#Gradient_15)" />
    <path
       d="m 171.223,55.449 c 0,0 20.685,-15.43 22.978,-16.751 0.261,-0.148 0.769,-0.426 1.469,-0.805 l 3.064,1.257 c -3.699,2.434 -7.995,5.35 -9.454,6.443 -2.627,1.967 -18.057,9.856 -18.057,9.856 z m 42.075,-24.839 -2.282,-0.903 c 4.346,-2.304 7.952,-4.208 8.464,-4.465 1.313,-0.661 18.391,-9.848 18.391,-9.848 0,0 -15.43,9.521 -16.751,10.508 -0.627,0.468 -4.178,2.587 -7.822,4.708 z"
       id="path883"
       inkscape:connector-curvature="0"
       style="fill:url(#Gradient_16)" />
    <path
       d="m 197.127,67.968 c -0.125,0 -0.225,-0.014 -0.299,-0.043 -1.64,-0.66 -13.782,-5.581 -13.782,-5.581 0,0 8.305,3.11 12.451,3.11 0.516,0.001 0.968,-0.048 1.331,-0.156 3.281,-0.994 18.384,-8.535 23.639,-10.836 1.29,-0.565 3.649,-1.921 6.58,-3.694 l 2.326,0.954 c -7.234,4.196 -12.695,7.39 -13.5,7.995 -2.516,1.878 -16.1,8.251 -18.746,8.251 z m 47.382,-25.015 -2.961,-1.171 c 5.896,-3.652 11.437,-6.995 14.373,-8.332 7.222,-3.287 12.476,-6.894 12.142,-7.888 -0.326,-0.981 -5.581,-3.274 -5.581,-3.274 0,0 11.489,1.967 9.849,3.941 -0.816,0.986 -14.252,8.852 -27.822,16.724 z"
       id="path885"
       inkscape:connector-curvature="0"
       style="fill:url(#Gradient_17)" />
    <path
       d="m 195.515,51.508 c 0,0 5.671,-4.296 11.782,-8.844 l 1.214,0.498 c -6.486,4.162 -12.996,8.346 -12.996,8.346 z m 26.867,-17.306 -2.231,-0.882 c 0.528,-0.361 0.969,-0.651 1.303,-0.856 4.268,-2.628 18.711,-12.477 18.711,-12.477 0,0 -13.126,10.764 -17.783,14.215 z"
       id="path887"
       inkscape:connector-curvature="0"
       style="fill:url(#Gradient_18)" />
    <path
       sodipodi:nodetypes="cccccccccccccccccccccccc"
       d="m 235.67777,78.07553 c 0.44,-3.353 1.01523,-9.99853 0.54623,-13.77153 -0.067,-0.532 -0.129,-1.06 -0.189,-1.581 -0.529,-4.615 -0.799,-8.595 -0.799,-8.595 l -1.197,-0.492 -6.992,-2.868 -18.536,-7.606 -1.214,-0.498 -8.563,-3.514 -3.064,-1.257 -4.125,-1.693 -0.298,-0.122 15.104,-8.216 0.855,0.339 3.81,1.506 2.282,0.903 6.853,2.71 2.231,0.882 22.127,8.751 5.038,1.992 0.793,0.314 v 24.698766 l -5.42225,3.323686 z"
       id="path889"
       inkscape:connector-curvature="0"
       style="fill:url(#Gradient_19)" />
    <path
       d="m 264.65459,58.774974 c 0.542,1.047 -0.378,2.605 -2.048,3.467 -1.677,0.875 -3.473,0.734 -4.015,-0.313 -0.542,-1.046 0.371,-2.598 2.041,-3.473 1.677,-0.869 3.473,-0.727 4.022,0.319"
       id="path895"
       inkscape:connector-curvature="0"
       style="fill:#fffffe" />
  </g>
</svg>
