<?xml version="1.0" encoding="UTF-8" standalone="no"?>
<!-- Created with Inkscape (http://www.inkscape.org/) -->

<svg
   xmlns:dc="http://purl.org/dc/elements/1.1/"
   xmlns:cc="http://creativecommons.org/ns#"
   xmlns:rdf="http://www.w3.org/1999/02/22-rdf-syntax-ns#"
   xmlns:svg="http://www.w3.org/2000/svg"
   xmlns="http://www.w3.org/2000/svg"
   xmlns:xlink="http://www.w3.org/1999/xlink"
   xmlns:sodipodi="http://sodipodi.sourceforge.net/DTD/sodipodi-0.dtd"
   xmlns:inkscape="http://www.inkscape.org/namespaces/inkscape"
   id="svg2"
   sodipodi:docname="taco.svg"
   viewBox="0 0 256 256"
   version="1.1"
   inkscape:version="0.92.4 (5da689c313, 2019-01-14)"
   width="256"
   height="256">
  <defs
     id="defs6">
    <linearGradient
       id="linearGradient4019"
       inkscape:collect="always">
      <stop
         id="stop4021"
         style="stop-color:#d7f4e3"
         offset="0" />
      <stop
         id="stop4023"
         style="stop-color:#d7f4e3;stop-opacity:0"
         offset="1" />
    </linearGradient>
    <linearGradient
       id="linearGradient4279"
       y2="545.53998"
       gradientUnits="userSpaceOnUse"
       x2="9.3491001"
       y1="43.296001"
       x1="106.51"
       inkscape:collect="always">
      <stop
         id="stop3029"
         style="stop-color:#e3b200"
         offset="0" />
      <stop
         id="stop3031"
         style="stop-color:#aa8800"
         offset="1" />
    </linearGradient>
    <linearGradient
       id="linearGradient4281"
       y2="163.92"
       xlink:href="#linearGradient4019"
       gradientUnits="userSpaceOnUse"
       x2="107.92"
       y1="175.41"
       x1="44.946999"
       inkscape:collect="always"
       gradientTransform="matrix(1.2075,0,0,1.2075,24.066,22.516)" />
    <linearGradient
       id="linearGradient4285"
       y2="479.07999"
       gradientUnits="userSpaceOnUse"
       x2="-168.67"
       y1="-40.048"
       x1="435.34"
       inkscape:collect="always"
       gradientTransform="matrix(1.2075,0,0,1.2075,24.066,22.516)">
      <stop
         id="stop3908"
         style="stop-color:#aa8800"
         offset="0" />
      <stop
         id="stop3910"
         style="stop-color:#eeb534;stop-opacity:0"
         offset="1" />
    </linearGradient>
    <linearGradient
       id="linearGradient4287"
       y2="285.07999"
       gradientUnits="userSpaceOnUse"
       x2="103.97"
       y1="30.417999"
       x1="272.67001"
       inkscape:collect="always"
       gradientTransform="matrix(1.2075,0,0,1.2075,24.066,22.516)">
      <stop
         id="stop3021"
         style="stop-color:#eeb534"
         offset="0" />
      <stop
         id="stop3023"
         style="stop-color:#eeb534;stop-opacity:0"
         offset="1" />
    </linearGradient>
    <linearGradient
       inkscape:collect="always"
       xlink:href="#linearGradient4019"
       id="linearGradient881"
       gradientUnits="userSpaceOnUse"
       x1="44.946999"
       y1="175.41"
       x2="107.92"
       y2="163.92" />
    <linearGradient
       inkscape:collect="always"
       xlink:href="#linearGradient4019"
       id="linearGradient883"
       gradientUnits="userSpaceOnUse"
       x1="44.946999"
       y1="175.41"
       x2="107.92"
       y2="163.92" />
  </defs>
  <sodipodi:namedview
     id="namedview4"
     bordercolor="#666666"
     inkscape:pageshadow="2"
     guidetolerance="10"
     pagecolor="#ffffff"
     gridtolerance="10"
     inkscape:window-maximized="1"
     inkscape:zoom="0.79967901"
     objecttolerance="10"
     borderopacity="1"
     inkscape:current-layer="svg2"
     inkscape:cx="115.69241"
     inkscape:cy="101.29666"
     inkscape:window-y="-8"
     inkscape:window-x="-8"
     inkscape:window-width="1920"
     showgrid="false"
     inkscape:pageopacity="0"
     inkscape:window-height="1025"
     fit-margin-top="0"
     fit-margin-left="0"
     fit-margin-right="0"
     fit-margin-bottom="0" />
  <g
     id="g991"
     transform="matrix(0.57270953,0,0,0.57270953,-16.711091,-0.98333139)">
    <path
       sodipodi:nodetypes="ccccccccccccccccccccccccccccccccccc"
       id="path4086"
       d="m 306.88023,27.859526 c -13.16969,-0.0594 -26.16603,1.578687 -38.5247,5.300123 -1.69983,0.511838 -3.39262,1.061562 -5.07529,1.636815 -6.86196,1.229793 -13.53858,3.081432 -19.99291,5.884754 -2.14572,0.630327 -4.41355,1.330032 -6.69024,2.02652 l -5.7286,-5.027237 -6.34397,8.8855 c -17.24566,5.685103 -36.95066,13.090679 -56.94148,22.603512 -7.37831,-2.476984 -17.33175,-2.885282 -21.72298,1.32503 -3.32336,3.186686 -3.95653,7.647816 -2.72494,11.543219 -22.53125,12.640518 -42.45383,26.934578 -60.215161,45.861618 -4.529643,5.19631 -8.789102,10.59532 -12.802984,16.17347 l -1.999313,-0.27283 0.576722,2.29978 c -3.878537,5.51809 -7.482204,11.18761 -10.842388,17.03025 -1.520966,0.78279 -2.522463,1.60011 -2.768286,2.49411 -0.164607,0.59825 -0.02917,1.22688 0.307579,1.90959 -10.437506,19.13266 -18.137746,39.80458 -22.683866,61.38045 -3.786889,17.96808 -4.700631,53.46655 -1.883892,72.87721 2.440271,16.81588 8.599483,41.62936 14.879781,59.93773 11.813295,34.44074 27.963293,55.48548 45.792198,59.74314 4.744597,1.13317 5.9871,1.43699 9.41989,0.70144 -0.10005,0.0576 -0.20658,0.0926 -0.30769,0.15615 2.23822,-0.38184 4.94882,-1.14802 7.88183,-2.14353 1.35046,-0.404 2.65545,-0.85931 4.03708,-1.4422 0.21517,-0.0798 0.43702,-0.18864 0.65337,-0.27283 0.21699,-0.0934 0.43028,-0.16862 0.6539,-0.27283 9.49245,-3.74421 19.80241,-8.91971 24.1454,-11.80807 111.67066,-80.86488 205.48545,-118.50387 330.03746,-203.06963 10.21999,-6.51093 8.12401,-25.65823 7.68964,-37.88612 -0.65386,-18.4107 -5.5319,-37.55577 -15.37927,-53.0398 C 445.92096,89.741439 425.6412,69.620865 402.38519,55.963993 395.33049,51.373225 387.95338,47.368555 380.35476,44.077752 357.72863,34.275613 332.02669,27.980313 306.87872,27.866823 Z"
       style="opacity:1;fill:#000000;stroke-width:1.23869014"
       inkscape:connector-curvature="0" />
    <path
       id="path2998"
       d="M 94.515173,414.1324 C 77.018497,410.01012 61.193003,389.62619 49.598587,356.27866 43.435266,338.55135 37.388347,314.5221 34.993875,298.24017 c -2.76433,-18.79473 -1.860154,-53.1626 1.85641,-70.56026 7.761448,-36.33247 24.74409,-70.03742 49.281698,-97.8075 C 130.65492,83.062465 200.89278,57.79915 243.50546,45.44884 c 19.88994,-8.522294 41.80365,-8.012487 65.4139,-8.030841 19.9974,-0.01552 35.39907,2.343999 52.77258,8.085178 14.11688,4.664573 35.83014,14.636108 41.82055,19.205288 2.14669,1.63737 4.24352,2.97697 4.65974,2.97697 1.70379,0 12.7029,9.156352 22.15763,18.444563 16.26744,15.981262 27.75801,35.345942 34.86052,58.748502 2.55133,8.40637 3.1622,12.95768 3.25289,24.23573 0.10276,12.78259 -0.1548,14.45498 -3.24178,21.04672 -4.50095,9.61098 -10.0406,16.11651 -19.85854,23.32166 -9.03983,6.63376 -70.28737,42.78655 -151.87935,89.64601 -71.53351,41.08518 -104.49102,60.96788 -138.25875,83.40564 -34.97041,23.23834 -37.48926,24.70425 -46.44045,27.03472 -7.96842,2.07497 -7.8461,2.07014 -14.254541,0.56022 z"
       sodipodi:nodetypes="ssssccsssssssssssss"
       style="fill:#f1ca00;stroke-width:1.20749998"
       inkscape:connector-curvature="0" />
    <path
       transform="matrix(1.2075,0,0,1.2075,24.066,22.516)"
       id="path3002"
       style="fill:url(#linearGradient4279)"
       sodipodi:type="inkscape:offset"
       d="m 235.91016,17.333984 c -19.62548,0.01522 -37.04129,-0.252758 -52.22657,6.253907 a 4.991609,4.991609 0 0 1 -0.57617,0.205078 C 148.17495,33.916947 90.77434,54.806627 55.085938,92.283203 35.368508,114.62278 21.716757,141.72903 15.474609,170.94922 12.643037,184.20412 11.860787,213.07322 14,227.61719 c 1.910286,12.98749 6.893768,32.83411 11.871094,47.15039 9.346451,26.88322 22.046979,41.96159 33.617187,44.6875 5.338043,1.25763 2.813773,1.30753 9.410157,-0.41016 3.565475,-0.92844 5.069039,-1.38307 9.880859,-4.1914 4.811819,-2.80834 12.576915,-7.92184 27.052733,-17.54102 28.08056,-18.65953 55.50565,-35.19254 114.77539,-69.23438 33.7709,-19.39646 63.3335,-36.57841 85.3711,-49.58789 22.03759,-13.00947 37.0476,-22.2324 39.94336,-24.35742 7.70106,-5.65133 11.47848,-10.09517 14.90234,-17.40625 1.23202,-2.63078 1.6492,-3.67121 1.92187,-5.43945 0.27267,-1.76824 0.33719,-4.58247 0.29493,-9.83984 -0.0737,-9.16214 -0.46861,-11.94814 -2.50391,-18.6543 -5.66968,-18.681248 -14.72528,-33.898723 -27.59766,-46.544923 -3.8105,-3.743551 -7.97339,-7.500529 -11.27539,-10.251953 -1.651,-1.375712 -3.10026,-2.505867 -4.0957,-3.210938 -0.39211,-0.277733 -0.62419,-0.41736 -0.81445,-0.533203 0.20786,0.06917 0.47898,0.144531 1.33984,0.144531 -1.38585,0 -1.68348,-0.263447 -2.0293,-0.40039 -0.34582,-0.136943 -0.57442,-0.253594 -0.79687,-0.371094 -0.44491,-0.234999 -0.83486,-0.474587 -1.25977,-0.748047 -0.84981,-0.54692 -1.80214,-1.220922 -2.78515,-1.970703 -1.55792,-1.188279 -7.41952,-4.400297 -13.85938,-7.355469 -6.43985,-2.955172 -13.77206,-5.942722 -19.33594,-7.78125 -13.94041,-4.606473 -25.94894,-6.448092 -42.11718,-6.435547 z"
       inkscape:original="M 235.90625 12.34375 C 216.3541 12.358917 198.19037 11.942155 181.71875 19 C 146.42729 29.228018 88.27844 50.140329 51.40625 88.90625 C 31.0849 111.90472 17.02147 139.81738 10.59375 169.90625 C 7.51587 184.31414 6.77318 212.77924 9.0625 228.34375 C 11.04588 241.82819 16.05201 261.72493 21.15625 276.40625 C 30.75786 304.02339 43.85343 320.89862 58.34375 324.3125 C 63.65137 325.56296 63.55717 325.59339 70.15625 323.875 C 77.56952 321.9446 79.632835 320.71328 108.59375 301.46875 C 136.55865 282.88607 163.8525 266.43172 223.09375 232.40625 C 290.66166 193.59833 341.38861 163.65005 348.875 158.15625 C 357.00563 152.18969 361.61627 146.80316 365.34375 138.84375 C 367.90021 133.38484 368.11635 131.99245 368.03125 121.40625 C 367.95614 112.06583 367.42539 108.30557 365.3125 101.34375 C 359.43039 81.962565 349.90933 65.922623 336.4375 52.6875 C 328.60763 44.995203 319.50475 37.40625 318.09375 37.40625 C 317.74906 37.40625 316.02776 36.293461 314.25 34.9375 C 309.28882 31.153422 291.28426 22.894265 279.59375 19.03125 C 265.20529 14.276725 252.46743 12.3309 235.90625 12.34375 z "
       inkscape:radius="-4.9911098" />
    <path
       id="path3997"
       style="fill:#73cb2b;stroke-width:1.20749998"
       inkscape:connector-curvature="0"
       d="m 71.595615,145.27045 17.22861,2.30186 10.589533,-3.48195 2.606152,11.20041 8.91944,1.58871 c 0,0 -1.52834,25.80186 1.89311,19.50957 3.42146,-6.2924 15.49706,-9.50954 15.49706,-9.50954 l 1.6492,7.96249 -18.38901,12.82848 c 0,0 -21.363094,12.2996 -20.649462,3.99055 0.713065,-8.30857 4.053215,-18.44939 4.053215,-18.44939 l -5.070654,-1.6701 -3.828017,-12.95164 -10.935724,1.11962 z" />
    <path
       id="path3977"
       d="m 54.265575,324.94645 c 11.58717,8.65886 37.55808,-3.87221 40.77003,-13.59041 3.211226,-9.7176 -11.179276,-8.13952 -10.569851,-15.09979 0.609437,-6.96027 13.763085,-9.73776 16.610366,-16.61037 2.84644,-6.872 -4.184708,-15.20122 0,-21.1397 4.18472,-5.93813 13.588,-4.78569 21.13971,-7.5499 7.5517,-2.76421 11.5309,4.1951 24.15966,-9.05987 12.62876,-13.25497 7.16421,-51.745 25.67024,-80.02948 18.50494,-28.28327 89.08935,-78.518891 89.08935,-78.518891 0,0 -64.22934,18.771791 -78.5189,10.569851 -14.28955,-8.202306 -1.17547,-13.609732 -7.54989,-18.119745 -6.37442,-4.510012 -21.50678,-6.876109 -27.17962,-1.509979 -5.67259,5.36613 2.24305,10.897205 0,19.630328 -2.24305,8.732516 -7.465,19.799376 -16.61037,30.199576 -9.14476,10.39971 -26.96347,21.81711 -39.259445,28.6902 -12.295972,6.87285 -32.002372,9.22349 -33.219532,13.59041 -1.21716,4.36632 13.699087,10.82777 12.07983,22.65029 -1.618896,11.82203 -36.45684,28.73125 -31.710158,33.21953 4.747166,4.48852 30.774345,-4.77289 37.750073,9.05987 6.97464,13.83312 -17.611388,33.8909 -21.139703,49.8299 -3.528073,15.9378 -13.096545,35.13101 -1.509979,43.78999 z"
       sodipodi:nodetypes="zzzzzzzzczzzzzzzzzzzz"
       style="fill:#549c1c;stroke-width:1.20749998"
       inkscape:connector-curvature="0" />
    <path
       id="path3989"
       style="fill:#73cb2b;stroke-width:1.20749998"
       inkscape:connector-curvature="0"
       d="m 105.75821,297.89845 -4.86985,-16.68524 1.84759,-10.99308 -11.465209,-0.88991 -2.913698,-8.57856 c 0,0 -25.276597,5.39607 -19.57116,1.06615 5.705438,-4.32993 7.067498,-16.75286 7.067498,-16.75286 l -8.120075,-0.43139 -9.913455,20.11212 c 0,0 -8.942141,22.97148 -0.835674,21.01533 8.10643,-1.95603 17.6295,-6.78518 17.6295,-6.78518 l 2.414517,4.76141 13.380307,1.83407 0.539849,10.97956 z" />
    <path
       id="path3991"
       style="fill:#456f00;stroke-width:1.20749998"
       inkscape:connector-curvature="0"
       d="m 107.82424,289.63915 8.21124,-15.31955 9.0187,-6.55178 -7.55956,-8.66574 3.92921,-8.16355 c 0,0 -21.820735,-13.85364 -14.71581,-12.94802 7.10493,0.906 16.77822,-7.0064 16.77822,-7.0064 l -5.49328,-5.99548 -21.162648,7.41019 c 0,0 -22.471575,10.13129 -15.31593,14.41393 7.155766,4.28203 17.33487,7.50546 17.33487,7.50546 l -1.611771,5.08949 8.265219,10.68118 -7.305256,8.21438 z" />
    <path
       id="path3993"
       d="m 97.59309,284.3986 -15.50913,7.84718 -11.145466,0.19984 1.227906,11.43394 -7.89862,4.43756 c 0,0 9.940261,23.85899 4.637404,19.04469 -5.302857,-4.81466 -17.76474,-3.87523 -17.76474,-3.87523 l 1.065112,8.06151 21.588892,6.05694 c 0,0 24.221243,4.57764 20.811263,-3.03251 C 91.196093,326.96225 84.70252,318.4862 84.70252,318.4862 l 4.237722,-3.24684 -0.651024,-13.49019 10.694344,-2.54433 z"
       style="fill:#456f00;stroke-width:1.20749998"
       inkscape:connector-curvature="0" />
    <path
       id="path3914"
       d="m 75.091327,383.1238 c -0.894117,9.02969 6.385019,20.12178 15.099788,22.65029 4.760931,1.38077 9.398818,-3.39236 13.590415,-6.03992 3.92316,-2.47839 6.21766,-7.44991 10.56985,-9.05987 3.30444,-1.22235 7.69202,2.03258 10.56985,0 13.524,-9.55109 8.20267,-32.54696 16.61037,-46.80995 17.74421,-30.10418 51.86333,-48.32777 69.45902,-78.51889 8.57579,-14.7146 25.40822,-33.73635 16.61037,-48.31932 -15.26159,-25.29471 -63.71011,-30.99774 -87.57877,-13.59042 -7.8223,5.70496 -2.97914,19.13284 -4.52993,28.6902 -0.49042,3.02214 0.8261,7.08091 -1.50998,9.05988 -6.14473,5.20541 -17.05956,-3.80001 -24.15966,0 -3.20012,1.71259 -4.98818,5.58613 -6.03991,9.05987 -1.31268,4.33553 1.73348,9.40473 0,13.59041 -2.724,6.57629 -12.789845,8.36701 -15.099792,15.09979 -1.3169,3.83828 2.826999,8.24155 1.509978,12.07983 -1.386089,4.03969 -8.375703,4.84413 -9.059872,9.05987 -0.721131,4.44372 6.392022,7.5918 6.039915,12.07983 -0.33868,4.31657 -4.206689,7.81856 -7.549894,10.56985 -4.695967,3.86461 -15.394417,1.59076 -16.61037,7.5499 -1.636766,8.02842 13.63992,10.48351 16.61037,18.11974 1.277294,3.28368 -1.708009,7.48819 0,10.56985 2.301857,4.15308 11.542493,2.83207 12.07983,7.5499 0.886015,7.77968 -15.838777,8.81801 -16.61037,16.61037 z"
       sodipodi:nodetypes="aaaaaaaaaaaaaaaaaaaaaaaa"
       style="fill:#5a3c08;stroke-width:1.20749998"
       inkscape:connector-curvature="0" />
    <path
       id="path3943"
       d="m 96.67056,350.3764 c -0.926635,2.33977 -0.928495,5.9415 1.06772,7.47406 3.55416,2.72859 10.01271,1.39225 13.3465,-1.60163 1.76645,-1.58629 0.39014,-4.89834 1.60163,-6.94022 1.09337,-1.84289 4.27938,-2.19343 4.80476,-4.27093 0.51065,-2.0193 -0.27651,-4.93288 -2.13547,-5.87243 -2.81432,-1.42244 -5.95321,3.11039 -9.07557,2.6693 -2.29738,-0.32456 -3.55355,-3.65885 -5.87243,-3.73698 -2.228441,-0.0751 -5.792257,0.97487 -5.872435,3.20314 -0.106586,2.95982 7.320955,1.84699 7.474065,4.80476 0.11777,2.2759 -4.499509,2.15201 -5.338601,4.27093 z"
       sodipodi:nodetypes="aaaaaaaaaaa"
       style="fill:#2b1100;stroke-width:1.20749998"
       inkscape:connector-curvature="0" />
    <path
       id="path3945"
       d="m 84.313005,399.24393 c -0.557189,6.10306 11.273341,5.36757 17.365055,6.03991 6.54695,0.72262 14.15432,1.39563 19.63033,-2.26503 2.15406,-1.44006 2.05758,-4.85475 3.77501,-6.79484 2.26877,-2.56316 7.8828,-2.6431 8.30494,-6.03992 0.48476,-3.90107 -3.72139,-8.16777 -7.54989,-9.05987 -4.82783,-1.12489 -8.80497,4.74427 -13.59042,6.03992 -4.3994,1.19127 -10.72308,-2.03344 -13.590408,1.50997 -1.59076,1.9663 2.175548,5.45742 0.754989,7.5499 -1.029079,1.51577 -3.495108,1.11825 -5.284986,1.50998 -3.233564,0.70774 -9.513892,-1.78638 -9.814922,1.50997 z"
       sodipodi:nodetypes="aaaaaaaaaaa"
       style="fill:#2b1100;stroke-width:1.20749998"
       inkscape:connector-curvature="0" />
    <path
       id="path3947"
       d="m 109.48334,308.7418 c -5.17727,0.78713 -11.278168,0.45363 -15.481355,-2.6693 -1.277656,-0.94918 -2.63875,-2.76083 -2.135464,-4.27093 0.503322,-1.50998 2.907298,-1.31448 4.270928,-2.13546 1.311466,-0.7896 2.228562,-2.40884 3.736971,-2.6693 2.55326,-0.44085 5.40549,3.6958 7.47406,2.13546 1.70487,-1.28598 1.00763,-4.52353 0,-6.40627 -0.90825,-1.69714 -4.42718,-1.31569 -4.80476,-3.20313 -0.25167,-1.25834 1.06299,-2.49844 2.13546,-3.20314 1.66273,-1.09253 4.65721,0.50758 5.87244,-1.06772 1.41724,-1.83709 -1.99008,-5.1338 -0.53386,-6.94022 3.26955,-4.05576 10.98414,-4.76395 15.48136,-2.13547 6.2767,3.66827 10.57685,13.48536 8.00789,20.28721 -3.17789,8.41301 -15.13239,10.92703 -24.02321,12.27907 z"
       sodipodi:nodetypes="aaaaaaaaaaaaaa"
       style="fill:#2b1100;stroke-width:1.20749998"
       inkscape:connector-curvature="0" />
    <path
       id="path3934"
       d="m 121.5197,246.80912 c -6.32633,3.7313 -3.54208,14.94282 -8.56576,20.3005 -2.17386,2.31852 -7.00797,1.4729 -8.52797,4.26392 -1.53727,2.82277 -1.45117,7.57392 1.05656,9.58453 2.5174,2.01846 6.41376,-1.39853 9.62233,-1.05656 4.46932,0.47639 8.53666,5.71111 12.79225,4.26392 2.42756,-0.82554 2.87506,-4.24653 4.30172,-6.37705 2.85719,-4.26682 4.74342,-9.35885 8.52797,-12.82968 3.28549,-3.0132 9.46149,-2.58031 11.73545,-6.41485 1.27029,-2.1421 1.58086,-5.54701 0,-7.4714 -2.30342,-2.80382 -7.09128,-1.56891 -10.67889,-2.11313 -6.71551,-1.01876 -14.41272,-5.60159 -20.26305,-2.1508 z m 7.47141,43.77188 c -4.4634,1.29673 -7.90792,4.89001 -11.77313,7.47141 -3.60414,2.40703 -6.35374,6.83674 -10.64109,7.4714 -2.22699,0.32969 -4.38419,-3.08516 -6.41484,-2.11312 -2.739459,1.31122 -1.562026,5.97531 -3.207365,8.52797 -2.457504,3.81256 -9.951853,5.0983 -9.622326,9.62232 0.25861,3.55017 5.010642,6.19629 8.565763,6.37705 4.140638,0.21059 6.851718,-7.97167 10.678888,-6.37705 1.35168,0.56318 1.11532,2.80092 1.05656,4.26393 -0.22567,5.6197 -8.828271,11.57316 -5.35828,15.99937 2.64745,3.3769 9.02969,0.93671 12.82969,-1.05656 4.4797,-2.3498 7.10614,-7.34691 9.62233,-11.73545 1.51432,-2.64117 1.59426,-5.96058 3.16968,-8.56577 2.47948,-4.10006 6.1684,-7.3579 9.62233,-10.67888 4.01083,-3.85652 11.6985,-5.23089 12.82969,-10.67889 0.64728,-3.11728 -1.5904,-6.85896 -4.30172,-8.52797 -4.84147,-2.98035 -11.59635,-1.58617 -17.05594,0 z m 14.94281,43.77188 c -10.0115,-2.6262 -6.06418,20.9948 -13.88625,27.7725 -3.40575,2.95125 -8.51215,2.9725 -12.82969,4.26392 -5.28776,1.5817 -10.73962,5.93667 -15.99937,4.26392 -7.940642,-2.52524 -14.205031,-11.06975 -15.999376,-19.20649 -1.188543,-5.3898 8.002827,-11.9394 4.263924,-15.99938 -2.692484,-2.92384 -9.873969,-1.39876 -11.735451,2.11313 -3.280536,6.18928 8.191438,12.21024 8.527968,19.20649 0.162409,3.37702 -3.984146,6.33177 -3.207361,9.62233 0.923641,3.91254 5.980144,5.41829 8.527969,8.52797 4.070361,4.96777 5.397042,12.38291 10.678887,16.03681 3.90699,2.70262 9.48093,4.98564 13.88625,3.20736 7.87435,-3.17851 9.02039,-14.39823 13.88625,-21.35826 4.08232,-5.83863 10.40925,-10.3932 12.82969,-17.09337 2.42164,-6.70392 7.95127,-19.54943 1.05656,-21.35826 z m -14.94281,1.09429 c -5.49787,-1.83419 -8.5264,7.8531 -12.82969,11.73545 -3.17524,2.86456 -9.87795,4.26163 -9.58453,8.52797 0.26373,3.83526 6.03339,7.88763 9.58453,6.41485 1.68157,-0.69742 -0.17645,-4.01893 1.05656,-5.35829 3.51649,-3.81968 12.25009,0.15185 14.98025,-4.26392 3.04242,-4.92032 2.28024,-15.22537 -3.20736,-17.05594 z"
       sodipodi:nodetypes="aaaaaaaaaaaaaaaaaaaaaaaaaaaaaaaaaaaaaaaaaaaaaaaaaaa"
       style="fill:#a05e00;stroke-width:1.20749998"
       inkscape:connector-curvature="0" />
    <path
       id="path3975"
       sodipodi:nodetypes="aaaaaaa"
       style="fill:#deaa87;stroke-width:1.20749998"
       inkscape:connector-curvature="0"
       d="m 119.62634,265.50122 c -2.30125,-0.29582 -5.61922,1.43065 -5.87243,3.73698 -0.24715,2.2515 5.06099,2.55434 4.80476,4.80476 -0.18996,1.66804 -4.4692,1.00224 -4.27093,2.6693 0.33243,2.79391 5.34645,3.58241 8.0079,2.6693 2.42756,-0.83291 4.47645,-3.84806 4.27093,-6.40627 -0.27233,-3.38885 -3.56816,-7.04057 -6.94011,-7.47407 z" />
    <path
       id="path3971"
       d="m 119.6517,372.26837 c 0.0494,-3.06125 2.3673,-6.73603 5.3386,-7.47406 2.70323,-0.67143 6.3692,1.18007 7.47406,3.73697 0.7369,1.70548 -0.72952,3.69809 -1.60163,5.3386 -1.18716,2.23327 -2.9987,4.10176 -4.80476,5.87244 -2.26237,2.21817 -5.01885,7.87507 -7.47406,5.87243 -2.4668,-2.01218 4.46871,-5.36456 4.27093,-8.54173 -0.11961,-1.92114 -3.23417,-2.88013 -3.20314,-4.80477 z"
       sodipodi:nodetypes="aaaaaaaa"
       style="fill:#deaa87;stroke-width:1.20749998"
       inkscape:connector-curvature="0" />
    <g
       id="g4031"
       transform="matrix(0.59441603,1.0510563,-1.0510563,0.59441603,283.07475,-46.22939)">
      <path
         id="path4027"
         d="m 90.71,180.68 -30.948,2.9962 c 0,0 -8.1403,-8.2673 -7.9581,-13.483 0.12699,-3.6356 6.1897,-8.9886 6.1897,-8.9886 l 16.801,-3.7452 h 21.222 l -7.9581,27.715 z"
         sodipodi:nodetypes="ccaccccc"
         style="fill:#f8010a"
         inkscape:connector-curvature="0" />
      <path
         id="path4029"
         d="m 82.062,160.41 c -8.437,0.74291 -18.227,0.30389 -25.125,5.8125 -2.9935,3.1656 -2.0035,7.7802 0.84375,10.594 1.4528,3.1864 4.9623,4.9632 8.1515,3.2463 7.013,-0.69 14.025,-1.37 21.037,-2.06 1.677,-5.85 3.354,-11.71 5.031,-17.56 -3.3123,-0.0624 -6.6249,-0.0897 -9.9375,-0.0312 z"
         style="opacity:0.32480002;fill:url(#linearGradient881)"
         inkscape:connector-curvature="0" />
    </g>
    <g
       id="g4039"
       transform="matrix(1.079191,-0.54166035,0.54166035,1.079191,-37.422315,33.11785)">
      <path
         id="path4041"
         sodipodi:nodetypes="ccaccccc"
         style="fill:#f8010a"
         inkscape:connector-curvature="0"
         d="m 90.71,180.68 -30.948,2.9962 c 0,0 -8.1403,-8.2673 -7.9581,-13.483 0.12699,-3.6356 6.1897,-8.9886 6.1897,-8.9886 l 16.801,-3.7452 h 21.222 l -7.9581,27.715 z" />
      <path
         id="path4043"
         style="opacity:0.32480002;fill:url(#linearGradient883)"
         inkscape:connector-curvature="0"
         d="m 82.062,160.41 c -8.437,0.74291 -18.227,0.30389 -25.125,5.8125 -2.9935,3.1656 -2.0035,7.7802 0.84375,10.594 1.4528,3.1864 4.9623,4.9632 8.1515,3.2463 7.013,-0.69 14.025,-1.37 21.037,-2.06 1.677,-5.85 3.354,-11.71 5.031,-17.56 -3.3123,-0.0624 -6.6249,-0.0897 -9.9375,-0.0312 z" />
    </g>
    <g
       id="g4078"
       transform="matrix(0.22481235,0.90034822,-0.90034822,0.22481235,227.80747,224.92922)">
      <path
         id="path4080"
         sodipodi:nodetypes="ccaaaaaaccccaaacc"
         style="fill:#ffe680"
         inkscape:connector-curvature="0"
         d="m -83.37,152.71 8.2065,-4.5003 c 0,0 -6.7213,-5.2433 -6.0887,-8.7359 0.55401,-3.0588 7.35,-2.2032 7.677,-5.2945 0.67631,-6.3939 -14.479,-7.7222 -13.236,-14.03 1.1986,-6.0832 13.967,-2.2372 16.942,-7.677 2.3532,-4.3029 0.0811,-10.176 -2.1178,-14.56 -1.5666,-3.1233 -7.3837,-3.9182 -7.4123,-7.4123 -0.0312,-3.8066 7.9418,-8.2065 7.9418,-8.2065 l -14.825,-1.3236 c 0,0 -5.615,5.0942 -5.5592,8.4712 0.0175,5.7369 15.704,13.567 15.089,16.413 -1.7424,6.2509 -18.14,1.6923 -20.384,8.7359 -2.1037,6.6044 12.967,11.135 10.854,17.737 -1.1696,3.6525 -10.576,0.66514 -10.589,4.5003 -0.0102,2.8851 6.0522,1.2611 7.9418,3.4414 2.7404,6.4658 1.1111,7.2526 5.5592,12.442 z" />
      <path
         id="path4082"
         d="m -85.465,151.71 8.2065,-4.5003 c 0,0 -6.7213,-5.2433 -6.0887,-8.7359 0.55401,-3.0588 7.35,-2.2032 7.677,-5.2945 0.67631,-6.3939 -14.479,-7.7222 -13.236,-14.03 1.1986,-6.0832 13.967,-2.2372 16.942,-7.677 2.3532,-4.3029 0.0811,-10.176 -2.1178,-14.56 -1.5666,-3.1233 -7.3837,-3.9182 -7.4123,-7.4123 -0.0312,-3.8066 7.9418,-8.2065 7.9418,-8.2065 l -14.825,-1.3236 c 0,0 -5.615,5.0942 -5.5592,8.4712 0.0175,5.7369 15.704,13.567 15.089,16.413 -1.7424,6.2509 -18.14,1.6923 -20.384,8.7359 -2.1037,6.6044 12.967,11.135 10.854,17.737 -1.1696,3.6525 -10.576,0.66514 -10.589,4.5003 -0.0102,2.8851 6.0522,1.2611 7.9418,3.4414 2.7404,6.4658 1.1111,7.2526 5.5592,12.442 z"
         sodipodi:nodetypes="ccaaaaaaccccaaacc"
         style="fill:#febe14"
         inkscape:connector-curvature="0" />
      <path
         id="path4084"
         d="m -87.219,82.281 c -3.6542,1.1692 -6.6435,7.3583 -2.4062,9.9062 3.8541,4.6188 11.564,6.5731 12.719,13 -3.1444,8.2381 -14.166,3.5359 -19.75,7.9688 -2.773,4.797 4.8587,6.6146 6.75,9.9375 3.5487,2.7659 5.5948,9.5274 0.40625,11.625 -1.7645,1.2574 -5.595,0.37614 -6.3438,1 4.3031,-0.18819 8.0116,2.6017 8.1875,7 0.27034,3.2117 2.26,8.82 6.1562,4.875 1.9967,-2.2551 -3.3506,-3.6452 -3.375,-6.0938 -1.8074,-3.7922 1.6275,-7.8223 5.5625,-7.5312 3.3131,-1.0426 0.28142,-4.0991 -1.8682,-4.5586 -4.2845,-2.2831 -12.374,-6.6437 -8.7568,-12.566 3.4929,-6.385 14.392,-0.79702 16.75,-8.0312 1.0301,-6.6678 -2.9044,-12.927 -8.8438,-15.656 -3.0645,-3.3501 -0.39463,-8.2324 2.6875,-10.5 -2.6134,-0.25987 -5.2465,-0.4863 -7.875,-0.375 z"
         style="fill:#ffd42a"
         inkscape:connector-curvature="0" />
    </g>
    <path
       id="path3987"
       d="m 126.16737,190.33435 -8.21124,-15.31955 -9.0187,-6.55178 7.55956,-8.66574 -3.92921,-8.16355 c 0,0 21.82073,-13.85364 14.7158,-12.94802 -7.10493,0.906 -16.77821,-7.0064 -16.77821,-7.0064 l 5.49328,-5.99548 21.16265,7.41019 c 0,0 22.47157,10.13129 15.31593,14.41393 -7.15577,4.28203 -17.33487,7.50546 -17.33487,7.50546 l 1.61177,5.08949 -8.26522,10.68118 7.30525,8.21438 z"
       style="fill:#456f00;stroke-width:1.20749998"
       inkscape:connector-curvature="0" />
    <path
       id="path3985"
       style="fill:#73cb2b;stroke-width:1.20749998"
       inkscape:connector-curvature="0"
       d="m 96.67056,139.48532 15.31955,-8.21124 6.55178,-9.0187 8.66574,7.55955 8.16355,-3.9292 c 0,0 13.85364,21.82073 12.94802,14.7158 -0.906,-7.10493 7.0064,-16.77821 7.0064,-16.77821 l 5.99548,5.49328 -7.41019,21.16264 c 0,0 -10.13129,22.47158 -14.41393,15.31593 -4.28203,-7.15576 -7.50546,-17.33487 -7.50546,-17.33487 l -5.08949,1.61177 -10.68118,-8.26521 -8.21438,7.30525 z" />
    <path
       id="path3995"
       style="fill:#456f00;stroke-width:1.20749998"
       inkscape:connector-curvature="0"
       d="m 162.55418,146.6953 -8.21125,-15.31955 -9.01869,-6.55178 7.55955,-8.66574 -3.9292,-8.16355 c 0,0 21.82073,-13.853644 14.7158,-12.948019 -7.10493,0.905999 -16.77821,-7.006398 -16.77821,-7.006398 l 5.49328,-5.995479 21.16264,7.410186 c 0,0 22.47158,10.131287 15.31593,14.41393 -7.15577,4.28203 -17.33487,7.50546 -17.33487,7.50546 l 1.61177,5.08949 -8.26522,10.68118 7.30526,8.21438 z" />
    <path
       id="path4009"
       d="m 133.59832,240.6871 -37.369705,3.61791 c 0,0 -9.829412,-9.98276 -9.609406,-16.28072 0.153341,-4.38999 7.474063,-10.85374 7.474063,-10.85374 l 20.287208,-4.52232 h 25.62556 l -9.6094,33.46586 z"
       sodipodi:nodetypes="ccaccccc"
       style="fill:#f8010a;stroke-width:1.20749998"
       inkscape:connector-curvature="0" />
    <path
       id="path4037"
       d="m 209.46555,59.754092 15.31955,-8.211241 6.55178,-9.018697 8.66574,7.559554 8.16355,-3.929205 c 0,0 13.85364,21.820732 12.94802,14.715802 -0.906,-7.10493 7.0064,-16.778212 7.0064,-16.778212 l 5.99548,5.49328 -7.41019,21.162645 c 0,0 -10.13129,22.471575 -14.41393,15.31593 -4.28203,-7.155766 -7.50546,-17.33487 -7.50546,-17.33487 l -5.08949,1.611771 -10.68118,-8.265217 -8.21438,7.305254 z"
       style="fill:#4e8a11;stroke-width:1.20749998"
       inkscape:connector-curvature="0" />
    <g
       id="g4057"
       transform="matrix(0.66065947,0.65168775,-0.65168775,0.66065947,276.36105,124.33361)">
      <path
         id="path4049"
         d="m -83.37,152.71 8.2065,-4.5003 c 0,0 -6.7213,-5.2433 -6.0887,-8.7359 0.55401,-3.0588 7.35,-2.2032 7.677,-5.2945 0.67631,-6.3939 -14.479,-7.7222 -13.236,-14.03 1.1986,-6.0832 13.967,-2.2372 16.942,-7.677 2.3532,-4.3029 0.0811,-10.176 -2.1178,-14.56 -1.5666,-3.1233 -7.3837,-3.9182 -7.4123,-7.4123 -0.0312,-3.8066 7.9418,-8.2065 7.9418,-8.2065 l -14.825,-1.3236 c 0,0 -5.615,5.0942 -5.5592,8.4712 0.0175,5.7369 15.704,13.567 15.089,16.413 -1.7424,6.2509 -18.14,1.6923 -20.384,8.7359 -2.1037,6.6044 12.967,11.135 10.854,17.737 -1.1696,3.6525 -10.576,0.66514 -10.589,4.5003 -0.0102,2.8851 6.0522,1.2611 7.9418,3.4414 2.7404,6.4658 1.1111,7.2526 5.5592,12.442 z"
         sodipodi:nodetypes="ccaaaaaaccccaaacc"
         style="fill:#ffe680"
         inkscape:connector-curvature="0" />
      <path
         id="path4047"
         sodipodi:nodetypes="ccaaaaaaccccaaacc"
         style="fill:#febe14"
         inkscape:connector-curvature="0"
         d="m -85.465,151.71 8.2065,-4.5003 c 0,0 -6.7213,-5.2433 -6.0887,-8.7359 0.55401,-3.0588 7.35,-2.2032 7.677,-5.2945 0.67631,-6.3939 -14.479,-7.7222 -13.236,-14.03 1.1986,-6.0832 13.967,-2.2372 16.942,-7.677 2.3532,-4.3029 0.0811,-10.176 -2.1178,-14.56 -1.5666,-3.1233 -7.3837,-3.9182 -7.4123,-7.4123 -0.0312,-3.8066 7.9418,-8.2065 7.9418,-8.2065 l -14.825,-1.3236 c 0,0 -5.615,5.0942 -5.5592,8.4712 0.0175,5.7369 15.704,13.567 15.089,16.413 -1.7424,6.2509 -18.14,1.6923 -20.384,8.7359 -2.1037,6.6044 12.967,11.135 10.854,17.737 -1.1696,3.6525 -10.576,0.66514 -10.589,4.5003 -0.0102,2.8851 6.0522,1.2611 7.9418,3.4414 2.7404,6.4658 1.1111,7.2526 5.5592,12.442 z" />
      <path
         id="path4051"
         style="fill:#ffd42a"
         inkscape:connector-curvature="0"
         d="m -87.219,82.281 c -3.6542,1.1692 -6.6435,7.3583 -2.4062,9.9062 3.8541,4.6188 11.564,6.5731 12.719,13 -3.1444,8.2381 -14.166,3.5359 -19.75,7.9688 -2.773,4.797 4.8587,6.6146 6.75,9.9375 3.5487,2.7659 5.5948,9.5274 0.40625,11.625 -1.7645,1.2574 -5.595,0.37614 -6.3438,1 4.3031,-0.18819 8.0116,2.6017 8.1875,7 0.27034,3.2117 2.26,8.82 6.1562,4.875 1.9967,-2.2551 -3.3506,-3.6452 -3.375,-6.0938 -1.8074,-3.7922 1.6275,-7.8223 5.5625,-7.5312 3.3131,-1.0426 0.28142,-4.0991 -1.8682,-4.5586 -4.2845,-2.2831 -12.374,-6.6437 -8.7568,-12.566 3.4929,-6.385 14.392,-0.79702 16.75,-8.0312 1.0301,-6.6678 -2.9044,-12.927 -8.8438,-15.656 -3.0645,-3.3501 -0.39463,-8.2324 2.6875,-10.5 -2.6134,-0.25987 -5.2465,-0.4863 -7.875,-0.375 z" />
    </g>
    <g
       id="g4070"
       transform="matrix(0.3309999,0.86694877,-0.86694877,0.3309999,296.01915,135.76139)">
      <path
         id="path4072"
         sodipodi:nodetypes="ccaaaaaaccccaaacc"
         style="fill:#ffe680"
         inkscape:connector-curvature="0"
         d="m -83.37,152.71 8.2065,-4.5003 c 0,0 -6.7213,-5.2433 -6.0887,-8.7359 0.55401,-3.0588 7.35,-2.2032 7.677,-5.2945 0.67631,-6.3939 -14.479,-7.7222 -13.236,-14.03 1.1986,-6.0832 13.967,-2.2372 16.942,-7.677 2.3532,-4.3029 0.0811,-10.176 -2.1178,-14.56 -1.5666,-3.1233 -7.3837,-3.9182 -7.4123,-7.4123 -0.0312,-3.8066 7.9418,-8.2065 7.9418,-8.2065 l -14.825,-1.3236 c 0,0 -5.615,5.0942 -5.5592,8.4712 0.0175,5.7369 15.704,13.567 15.089,16.413 -1.7424,6.2509 -18.14,1.6923 -20.384,8.7359 -2.1037,6.6044 12.967,11.135 10.854,17.737 -1.1696,3.6525 -10.576,0.66514 -10.589,4.5003 -0.0102,2.8851 6.0522,1.2611 7.9418,3.4414 2.7404,6.4658 1.1111,7.2526 5.5592,12.442 z" />
      <path
         id="path4074"
         d="m -85.465,151.71 8.2065,-4.5003 c 0,0 -6.7213,-5.2433 -6.0887,-8.7359 0.55401,-3.0588 7.35,-2.2032 7.677,-5.2945 0.67631,-6.3939 -14.479,-7.7222 -13.236,-14.03 1.1986,-6.0832 13.967,-2.2372 16.942,-7.677 2.3532,-4.3029 0.0811,-10.176 -2.1178,-14.56 -1.5666,-3.1233 -7.3837,-3.9182 -7.4123,-7.4123 -0.0312,-3.8066 7.9418,-8.2065 7.9418,-8.2065 l -14.825,-1.3236 c 0,0 -5.615,5.0942 -5.5592,8.4712 0.0175,5.7369 15.704,13.567 15.089,16.413 -1.7424,6.2509 -18.14,1.6923 -20.384,8.7359 -2.1037,6.6044 12.967,11.135 10.854,17.737 -1.1696,3.6525 -10.576,0.66514 -10.589,4.5003 -0.0102,2.8851 6.0522,1.2611 7.9418,3.4414 2.7404,6.4658 1.1111,7.2526 5.5592,12.442 z"
         sodipodi:nodetypes="ccaaaaaaccccaaacc"
         style="fill:#febe14"
         inkscape:connector-curvature="0" />
      <path
         id="path4076"
         d="m -87.219,82.281 c -3.6542,1.1692 -6.6435,7.3583 -2.4062,9.9062 3.8541,4.6188 11.564,6.5731 12.719,13 -3.1444,8.2381 -14.166,3.5359 -19.75,7.9688 -2.773,4.797 4.8587,6.6146 6.75,9.9375 3.5487,2.7659 5.5948,9.5274 0.40625,11.625 -1.7645,1.2574 -5.595,0.37614 -6.3438,1 4.3031,-0.18819 8.0116,2.6017 8.1875,7 0.27034,3.2117 2.26,8.82 6.1562,4.875 1.9967,-2.2551 -3.3506,-3.6452 -3.375,-6.0938 -1.8074,-3.7922 1.6275,-7.8223 5.5625,-7.5312 3.3131,-1.0426 0.28142,-4.0991 -1.8682,-4.5586 -4.2845,-2.2831 -12.374,-6.6437 -8.7568,-12.566 3.4929,-6.385 14.392,-0.79702 16.75,-8.0312 1.0301,-6.6678 -2.9044,-12.927 -8.8438,-15.656 -3.0645,-3.3501 -0.39463,-8.2324 2.6875,-10.5 -2.6134,-0.25987 -5.2465,-0.4863 -7.875,-0.375 z"
         style="fill:#ffd42a"
         inkscape:connector-curvature="0" />
    </g>
    <path
       id="path3004"
       d="m 63.949725,382.29063 c 0,0 17.688668,21.02015 30.199575,23.40497 7.98001,1.52133 18.39023,-0.4036 23.40497,-6.79497 29.38693,-37.45423 -1.52362,-95.69075 6.03992,-142.69027 7.31552,-45.46117 12.24163,-94.54363 37.75007,-132.8733 25.21743,-37.898597 63.11965,-72.201257 106.75628,-85.16377 35.28677,-10.482187 76.07492,-3.893342 109.92597,10.569851 29.33863,12.535058 55.19362,35.697323 72.47898,62.514689 9.66447,14.99353 14.4574,33.51296 15.09979,51.33928 0.42634,11.83929 2.48033,28.42576 -7.54989,34.73011 -112.43033,70.66532 -218.03828,129.11798 -323.88773,198.5613 -12.25733,8.04111 -32.88747,20.08556 -47.941371,12.83452 -9.899568,-4.76793 -22.272338,-26.42493 -22.272338,-26.42493 z"
       sodipodi:nodetypes="caaaaaaaasssc"
       style="fill:#f1ca00;stroke-width:1.20749998"
       inkscape:connector-curvature="0" />
    <path
       id="path3039"
       d="m 396.3141,80.831005 c -0.27783,-0.01524 -0.56249,0.0122 -0.86789,0.07547 -5.65653,0.09008 -7.01352,6.468698 -5.54701,10.754236 -0.80384,2.833882 -6.64053,4.796432 -2.45268,7.622344 0.96927,-0.31034 -0.0638,-5.883061 3.47156,-4.943264 2.51209,0.416636 6.20812,6.030129 6.45264,0.716954 -0.25552,-3.515516 -7.26323,-0.280817 -6.90545,-4.980938 -0.68559,-3.88984 4.66204,-8.690136 7.43361,-4.339513 1.45323,4.009383 3.53834,1.435717 2.1886,-1.169766 -0.55444,-1.731314 -1.82864,-3.629021 -3.77344,-3.735764 z m -117.88219,3.509236 c -0.24443,0.01699 -0.48352,0.0434 -0.71695,0.07547 -5.26591,0.434664 -6.55878,6.432836 -4.98094,10.527951 -1.18091,2.590812 -6.86512,5.924118 -1.99986,7.924218 -1.45516,-3.582893 2.56256,-6.94095 5.28281,-3.924374 1.72468,3.376894 5.04965,1.767414 3.96205,-1.396112 -2.09332,-1.452864 -7.31081,-0.272315 -6.79219,-4.565799 -0.31913,-4.519793 6.05912,-8.058371 8.1883,-2.867812 3.0452,3.941642 1.78891,-5.052904 -0.83015,-5.358281 -0.62066,-0.411057 -1.37981,-0.466059 -2.11313,-0.415078 z M 197.3024,97.169929 c -0.24443,0.01699 -0.52125,0.0434 -0.75469,0.07547 -5.2659,0.434664 -6.55877,6.432831 -4.98093,10.527951 -1.18091,2.59081 -6.86512,5.92411 -1.99986,7.92422 -1.45516,-3.5829 2.56255,-6.94095 5.28281,-3.92438 1.72467,3.3769 5.04964,1.76742 3.96205,-1.39611 -2.09332,-1.45286 -7.31081,-0.27231 -6.79219,-4.5658 -0.31913,-4.51979 6.05911,-8.058369 8.1883,-2.86781 3.04519,3.94164 1.78891,-5.052904 -0.83016,-5.358281 -0.62065,-0.411057 -1.34201,-0.466059 -2.07545,-0.415078 z m 228.48315,25.621941 c -0.24443,0.017 -0.48352,0.0434 -0.71695,0.0755 -5.26591,0.43466 -6.55878,6.43284 -4.98094,10.52795 -1.18091,2.59081 -6.86512,5.92412 -1.99986,7.92422 -1.45516,-3.58289 2.56256,-6.94095 5.28281,-3.92438 1.72468,3.3769 5.04965,1.76742 3.96205,-1.39611 -2.09332,-1.45286 -7.31081,-0.27231 -6.79219,-4.5658 -0.31913,-4.51979 6.05912,-8.05837 8.1883,-2.86781 3.0452,3.94164 1.78891,-5.0529 -0.83015,-5.35828 -0.62066,-0.41106 -1.37981,-0.46606 -2.11313,-0.41508 z m -109.996,5.32049 c -0.24444,0.017 -0.48352,0.0811 -0.71696,0.1132 -5.2659,0.43466 -6.55877,6.43284 -4.98093,10.52795 -1.18091,2.59081 -6.86512,5.92412 -1.99986,7.92422 -1.45516,-3.58289 2.56255,-6.94095 5.28281,-3.92437 1.72467,3.37677 5.04964,1.76741 3.96205,-1.39612 -2.09333,-1.45286 -7.31081,-0.27231 -6.79219,-4.56579 -0.31913,-4.5198 6.05911,-8.05838 8.1883,-2.86782 3.04519,3.94165 1.78891,-5.0529 -0.83016,-5.35828 -0.62065,-0.41106 -1.37981,-0.50379 -2.11312,-0.45281 z m 31.54593,11.92406 c -1.75715,0.0283 -3.64314,0.73777 -4.98093,1.69799 -1.84844,1.3268 -2.67474,3.92908 -2.94328,6.18843 -0.15075,1.26812 1.06459,2.48794 0.79242,3.73577 -0.48979,2.24546 -4.23627,3.25445 -4.07531,5.54701 0.12477,1.7766 2.00698,4.27721 3.73576,3.84891 1.67915,-0.41606 -0.0898,-4.2364 1.4717,-4.98094 2.27626,-1.08526 4.73111,4.00697 6.9808,2.86781 1.6224,-0.82142 2.16336,-3.6714 1.32076,-5.28281 -1.04523,-1.99865 -5.51223,-0.31664 -6.33937,-2.415 -0.77176,-1.95784 0.7611,-5.14745 2.79234,-5.69795 2.27095,-0.61538 3.8966,5.23765 5.84889,3.92437 2.44012,-1.64147 0.64577,-6.91595 -1.73578,-8.64111 -0.80018,-0.57967 -1.81355,-0.80937 -2.86781,-0.79242 z m -81.09087,18.79112 c -7.03441,-0.006 -8.15473,10.17825 -3.77343,13.54694 0.59915,3.85796 8.34322,3.23731 4.67906,-0.67922 -4.44879,0.082 -8.61129,-4.25318 -4.71674,-8.07516 2.65204,-3.36288 6.98925,0.1719 8.26389,1.99986 1.3,-2.8183 -1.28393,-7.03694 -4.45265,-6.79218 z m -51.88506,1.32076 c -0.24444,0.017 -0.48352,0.0434 -0.71696,0.0755 -5.2659,0.43466 -6.55877,6.43283 -4.98093,10.52795 -1.18091,2.59081 -6.86512,5.92411 -1.99986,7.92422 -1.45516,-3.5829 2.56255,-6.94095 5.28281,-3.92438 1.72467,3.3769 5.04964,1.76742 3.96205,-1.39611 -2.09333,-1.45286 -7.31081,-0.27231 -6.79219,-4.5658 -0.31913,-4.51979 6.05911,-8.05837 8.1883,-2.86781 3.04519,3.94164 1.78891,-5.05291 -0.83016,-5.35828 -0.62065,-0.41106 -1.37981,-0.46606 -2.11312,-0.41508 z m 194.0694,3.13201 c -1.75716,0.0283 -3.64315,0.77551 -4.98094,1.73578 -1.84844,1.3268 -2.67473,3.89129 -2.94328,6.15077 -0.15075,1.26811 1.06459,2.52572 0.79242,3.77343 -0.48979,2.24547 -4.23627,3.25446 -4.07531,5.54702 0.12477,1.77671 2.00698,4.23953 3.73576,3.81111 1.67915,-0.41606 -0.0898,-4.23639 1.4717,-4.98094 2.27626,-1.08526 4.73111,4.04464 6.9808,2.90549 1.6224,-0.82143 2.16336,-3.7092 1.32077,-5.32049 -1.04524,-1.99865 -5.51224,-0.31664 -6.33938,-2.415 -0.77176,-1.95784 0.76111,-5.10978 2.79234,-5.66015 2.27095,-0.61538 3.89661,5.23765 5.84889,3.92437 2.44012,-1.64147 0.64577,-6.91596 -1.73578,-8.64111 -0.80017,-0.57967 -1.81354,-0.84712 -2.86781,-0.83016 z m -149.80245,8.1883 c -2.57198,0.74382 -2.35946,7.28811 0.15093,5.28281 0.2518,-1.6178 -0.07,-4.17094 -0.15093,-5.28281 z m 82.41187,12.60389 c -1.75715,0.0283 -3.64315,0.73777 -4.98094,1.69798 -1.84844,1.3268 -2.63693,3.92909 -2.90548,6.18844 -0.15075,1.26812 1.02686,2.48793 0.75469,3.73576 -0.48979,2.24547 -4.23628,3.25446 -4.07532,5.54702 0.12477,1.77671 2.00699,4.2772 3.73577,3.8489 1.67915,-0.41605 -0.0898,-4.23639 1.4717,-4.98093 2.27626,-1.08527 4.7311,4.00696 6.9808,2.86781 1.62239,-0.82143 2.16335,-3.67141 1.32076,-5.28281 -1.04524,-1.99866 -5.51224,-0.31665 -6.33937,-2.415 -0.77177,-1.95784 0.76109,-5.14746 2.79234,-5.69795 2.27094,-0.61537 3.93428,5.23765 5.88656,3.92437 2.44012,-1.64148 0.60804,-6.91596 -1.77357,-8.64111 -0.80018,-0.57967 -1.81355,-0.80939 -2.86782,-0.79242 z m -177.91305,7.05638 c -0.24443,0.017 -0.48352,0.0434 -0.71695,0.0755 -5.26591,0.43467 -6.55878,6.43284 -4.98094,10.52795 -1.18091,2.59082 -6.86512,5.92412 -1.99986,7.92422 -1.45516,-3.58289 2.56256,-6.94095 5.28281,-3.92437 1.72468,3.37689 5.04965,1.76742 3.96205,-1.39611 -2.09332,-1.45287 -7.31081,-0.27232 -6.79219,-4.5658 -0.31913,-4.5198 6.05912,-8.05837 8.1883,-2.86781 3.0452,3.94164 1.78891,-5.05291 -0.83015,-5.35829 -0.62066,-0.41105 -1.37981,-0.46605 -2.11313,-0.41507 z m 273.35385,0 c -0.24443,0.017 -0.48352,0.0434 -0.71695,0.0755 -5.26591,0.43467 -6.55878,6.43284 -4.98094,10.52795 -1.18091,2.59082 -6.86512,5.92412 -1.99986,7.92422 -1.45516,-3.58289 2.56256,-6.94095 5.28281,-3.92437 1.72468,3.37689 5.04965,1.76742 3.96205,-1.39611 -2.09332,-1.45287 -7.31081,-0.27232 -6.79219,-4.5658 -0.31913,-4.5198 6.05912,-8.05837 8.1883,-2.86781 3.0452,3.94164 1.78891,-5.05291 -0.83015,-5.35829 -0.62066,-0.41105 -1.37981,-0.46605 -2.11313,-0.41507 z M 268.74535,203.6567 c -0.25297,-0.007 -0.50605,0.0109 -0.75469,0.0377 -5.44112,0.10626 -7.24367,6.26379 -5.47142,10.56563 -0.62301,2.97057 -6.65876,4.72398 -2.67921,7.73548 1.65126,0.49973 -0.34767,-5.10048 2.83014,-4.86767 2.99859,-0.48062 7.09479,6.54066 7.20733,0.45281 -0.89965,-2.93145 -8.31762,-0.45525 -6.82986,-5.81109 0.01,-4.39675 6.12915,-7.19646 8.11295,-2.33953 2.89293,3.99139 1.89867,-4.48466 -0.33961,-5.01862 -0.56606,-0.52946 -1.31642,-0.7339 -2.07545,-0.75468 z m 108.97687,6.67892 c -0.24443,0.017 -0.48352,0.0434 -0.71695,0.0755 -5.26591,0.43466 -6.55878,6.43284 -4.98094,10.52795 -1.18091,2.59081 -6.86512,5.92412 -1.99986,7.92422 -1.45516,-3.58289 2.56256,-6.94095 5.28281,-3.92438 1.72468,3.3769 5.04965,1.76742 3.96205,-1.39611 -2.09332,-1.45286 -7.31081,-0.27231 -6.79219,-4.5658 -0.31913,-4.51979 6.05912,-8.05837 8.1883,-2.86781 3.0452,3.94164 1.78891,-5.0529 -0.83015,-5.35828 -0.62066,-0.41106 -1.37981,-0.46606 -2.11313,-0.41508 z m -227.2032,28.60326 c -5.16967,2.56606 1.41085,5.23476 2.03766,8.26389 -1.89131,4.27358 0.19217,10.26906 5.54701,10.33922 1.17992,0.14279 2.38808,-0.16286 3.13202,-1.13203 1.91268,-0.95158 2.70262,-8.44296 -0.0377,-4.64139 -1.69376,4.26972 -7.29149,2.74634 -7.92422,-1.35844 -1.78372,-4.37501 3.16196,-5.75398 6.33938,-5.73562 1.58206,-3.1424 -1.91304,-5.40441 -3.77344,-1.73578 -2.82688,3.00667 -6.71418,-0.39546 -5.32049,-3.99985 z m 127.4637,2.90549 c -1.75715,0.0283 -3.68082,0.73777 -5.01861,1.69798 -1.84844,1.32681 -2.63694,3.92909 -2.90549,6.18844 -0.15074,1.26812 1.0646,2.48793 0.79243,3.73577 -0.48979,2.24546 -4.27407,3.25445 -4.11299,5.54701 0.12477,1.77659 2.00699,4.23953 3.73576,3.81111 1.67915,-0.41606 -0.0898,-4.23639 1.4717,-4.98094 2.27626,-1.08526 4.76878,4.04465 7.0186,2.90549 1.6224,-0.82143 2.12568,-3.6714 1.28297,-5.28281 -1.04523,-1.99866 -5.47457,-0.31665 -6.3017,-2.415 -0.77177,-1.95784 0.72337,-5.14745 2.75454,-5.69795 2.27095,-0.61538 3.93428,5.23765 5.88657,3.92437 2.44011,-1.64147 0.60803,-6.91596 -1.77358,-8.64111 -0.80017,-0.57967 -1.77587,-0.80939 -2.83014,-0.79242 z m -77.58187,2.33953 c -1.05426,-0.0169 -2.0676,0.25048 -2.86781,0.83016 -2.38156,1.72527 -4.1759,6.99975 -1.73579,8.64111 1.95229,1.31327 3.57783,-4.53972 5.84889,-3.92438 2.03126,0.5504 3.56406,3.70232 2.79235,5.66016 -0.82714,2.09839 -5.29417,0.41632 -6.33938,2.415 -0.84269,1.61141 -0.30163,4.49914 1.32076,5.32048 2.24982,1.13911 4.70467,-3.99078 6.9808,-2.90548 1.56154,0.74448 -0.20744,4.56483 1.4717,4.98094 1.72878,0.42836 3.61091,-2.03452 3.73577,-3.81112 0.16101,-2.29256 -3.58555,-3.30154 -4.07531,-5.54701 -0.27217,-1.24771 0.94316,-2.50532 0.79242,-3.77344 -0.26857,-2.25935 -1.09485,-4.82396 -2.94328,-6.15076 -1.33779,-0.96028 -3.22379,-1.70753 -4.98094,-1.73578 z m 150.47865,4.03764 c -1.75716,0.0282 -3.64315,0.73777 -4.98094,1.69798 -1.84844,1.32681 -2.67473,3.92909 -2.94328,6.18844 -0.15075,1.26812 1.06459,2.48793 0.79242,3.73577 -0.48979,2.24546 -4.23627,3.25445 -4.07531,5.54701 0.12477,1.77659 2.00698,4.23953 3.73576,3.81111 1.67915,-0.41606 -0.0898,-4.23639 1.4717,-4.98094 2.27626,-1.08526 4.73111,4.04464 6.9808,2.90549 1.6224,-0.82143 2.16336,-3.6714 1.32077,-5.28281 -1.04524,-1.99866 -5.51224,-0.31665 -6.33938,-2.415 -0.77176,-1.95784 0.7611,-5.14746 2.79234,-5.69795 2.27095,-0.61537 3.89661,5.23765 5.84889,3.92437 2.44012,-1.64147 0.64577,-6.91596 -1.73578,-8.64111 -0.80017,-0.57967 -1.81354,-0.80939 -2.86781,-0.79242 z m -72.45,34.71562 c -0.24444,0.017 -0.48352,0.0433 -0.71696,0.0755 -5.2659,0.43467 -6.55877,6.43284 -4.98093,10.52795 -1.18091,2.59081 -6.86512,5.92412 -1.99986,7.92422 -1.45516,-3.58289 2.56255,-6.94095 5.28281,-3.92437 1.72467,3.37689 5.04964,1.76741 3.96205,-1.39612 -2.09333,-1.45286 -7.31081,-0.27231 -6.79219,-4.56579 -0.31913,-4.5198 6.05911,-8.05838 8.1883,-2.86782 3.04519,3.94165 1.78891,-5.0529 -0.83016,-5.35828 -0.62065,-0.41106 -1.37981,-0.46606 -2.11312,-0.41508 z m -132.41445,3.20736 c -0.24444,0.017 -0.48352,0.0433 -0.71696,0.0755 -5.2659,0.43467 -6.55877,6.43284 -4.98093,10.52795 -1.18091,2.59082 -6.86512,5.92412 -1.99986,7.92422 -1.45516,-3.58289 2.56255,-6.94095 5.28281,-3.92437 1.72467,3.37689 5.04964,1.76742 3.96217,-1.39611 -2.09332,-1.45287 -7.31081,-0.27232 -6.79219,-4.5658 -0.31913,-4.5198 6.05911,-8.05837 8.18842,-2.86782 3.04519,3.94165 1.78891,-5.0529 -0.83016,-5.35828 -0.62065,-0.41105 -1.37981,-0.46606 -2.11312,-0.41507 z m 68.18632,24.30094 c -1.75716,0.0283 -3.64315,0.73777 -4.98094,1.69799 -1.84844,1.3268 -2.67474,3.92908 -2.94328,6.18844 -0.15075,1.26811 1.06459,2.48793 0.79242,3.73576 -0.48979,2.24535 -4.23627,3.25445 -4.07531,5.54701 0.12477,1.7766 2.00698,4.27721 3.73576,3.84891 1.67915,-0.41606 -0.0898,-4.23639 1.4717,-4.98094 2.27626,-1.08526 4.73111,4.00697 6.9808,2.86781 1.62228,-0.82142 2.16336,-3.6714 1.32076,-5.28281 -1.04522,-1.99865 -5.51223,-0.31665 -6.33937,-2.415 -0.77175,-1.95784 0.76111,-5.10978 2.79234,-5.66015 2.27095,-0.61538 3.8966,5.19997 5.84889,3.8867 2.44012,-1.64148 0.64577,-6.91596 -1.73578,-8.64112 -0.80018,-0.57967 -1.81355,-0.80938 -2.86781,-0.79242 z m -59.62032,28.03694 c -0.24443,0.017 -0.48352,0.0434 -0.71695,0.0755 -5.26591,0.43467 -6.55878,6.43284 -4.98094,10.52795 -1.18091,2.59082 -6.86512,5.92412 -1.99986,7.92422 -1.45516,-3.58289 2.56256,-6.94095 5.28281,-3.92437 1.72468,3.37689 5.04965,1.76742 3.96205,-1.39611 -2.09332,-1.45287 -7.31081,-0.27232 -6.79219,-4.5658 -0.31913,-4.5198 6.05912,-8.05837 8.1883,-2.86782 3.0452,3.94165 1.78891,-5.0529 -0.83015,-5.35828 -0.62066,-0.41105 -1.37981,-0.46606 -2.11313,-0.41507 z"
       style="fill:url(#linearGradient4285);stroke-width:1.20749998"
       inkscape:connector-curvature="0" />
    <path
       id="path3949"
       d="m 74.65059,322.38655 c -1.723827,1.47448 -0.932709,4.94302 0.377489,6.79496 0.944796,1.33538 2.894136,1.88745 4.529936,1.88745 1.6358,0 3.574562,-0.55961 4.529936,-1.88745 1.031435,-1.43366 0.925476,-3.60595 0.377501,-5.28498 -0.66485,-2.03705 -2.111435,-5.56018 -4.152472,-4.9074 -1.443204,0.46159 0.839406,3.62709 -0.377489,4.52993 -1.446947,1.07345 -3.915801,-2.30354 -5.284986,-1.13247 z"
       sodipodi:nodetypes="aaaaaaaa"
       style="fill:#a05e00;stroke-width:1.20749998"
       inkscape:connector-curvature="0" />
    <path
       id="path3951"
       sodipodi:nodetypes="aaaaaasa"
       style="fill:#a05e00;stroke-width:1.20749998"
       inkscape:connector-curvature="0"
       d="m 88.617743,280.11198 c -1.723827,1.47447 -0.93271,4.94302 0.377488,6.79496 0.944796,1.33537 2.934104,2.24704 4.529936,1.88744 1.651498,-0.37208 1.998654,-2.82132 3.397422,-3.77488 1.776595,-1.21125 5.623691,-0.15543 6.039911,-2.26503 0.46536,-2.35849 -2.88097,-4.88869 -5.284982,-4.9074 -1.692794,-0.0132 -2.894377,0.69586 -3.775007,3.39742 -0.55836,1.71296 -3.915802,-2.30355 -5.284986,-1.13248 z" />
    <path
       id="path3953"
       d="m 91.6377,353.34685 c -1.723827,1.47448 -0.932709,4.94302 0.377489,6.79496 0.944796,1.33538 2.934104,2.24704 4.529936,1.88745 1.651498,-0.37208 1.998654,-2.82133 3.397422,-3.77489 1.776593,-1.21124 5.623693,-0.15543 6.039913,-2.26503 0.46536,-2.35849 -2.88097,-4.88868 -5.28498,-4.9074 -1.692798,-0.0132 -2.894382,0.69586 -3.775011,3.39742 -0.55836,1.71296 -3.915802,-2.30354 -5.284986,-1.13247 z"
       sodipodi:nodetypes="aaaaaasa"
       style="fill:#a05e00;stroke-width:1.20749998"
       inkscape:connector-curvature="0" />
    <path
       id="path3955"
       sodipodi:nodetypes="aaaaaasa"
       style="fill:#a05e00;stroke-width:1.20749998"
       inkscape:connector-curvature="0"
       d="m 84.46515,391.0933 c -1.723827,1.47448 -0.932709,4.94302 0.377489,6.79496 0.944796,1.33538 2.934104,2.24704 4.529936,1.88745 1.651498,-0.37208 1.998654,-2.82133 3.397422,-3.77489 1.776595,-1.21124 5.62369,-0.15543 6.039915,-2.26503 0.465358,-2.35849 -2.880974,-4.88868 -5.284986,-4.9074 -1.692794,-0.0132 -2.894378,0.69586 -3.775007,3.39742 -0.55836,1.71296 -3.915802,-2.30354 -5.284986,-1.13247 z" />
    <path
       id="path3957"
       d="m 104.47222,241.97912 c -1.72383,1.47448 -0.93271,4.94303 0.37749,6.79497 0.94479,1.33537 2.9341,2.24704 4.52993,1.88744 1.6515,-0.37208 1.99866,-2.82132 3.39742,-3.77488 1.7766,-1.21125 5.62369,-0.15543 6.03992,-2.26503 0.46536,-2.35849 -2.88097,-4.88869 -5.28499,-4.9074 -1.69279,-0.0132 -2.89437,0.69586 -3.775,3.39742 -0.55836,1.71296 -3.91581,-2.30355 -5.28499,-1.13248 z"
       sodipodi:nodetypes="aaaaaasa"
       style="fill:#a05e00;stroke-width:1.20749998"
       inkscape:connector-curvature="0" />
    <path
       id="path3006"
       d="m 308.39602,36.666692 c -11.72204,0.222156 -23.27335,1.856169 -34.30024,5.131875 -43.63905,12.962513 -81.5304,47.267588 -106.743,85.166183 -25.51206,38.33812 -30.4616,87.39885 -37.77664,132.86123 -7.56354,47.00193 23.34943,105.25656 -6.0375,142.71442 -5.94911,5.87739 -12.61233,8.06453 -20.06623,12.43967 10.17439,-1.71465 30.18508,-11.2056 36.66936,-15.456 105.85548,-69.44333 211.48155,-127.93463 323.92395,-198.59753 10.03022,-6.30424 7.97324,-22.87609 7.54687,-34.71562 -0.64194,-17.82633 -5.42928,-36.36387 -15.09375,-51.35619 C 439.23348,88.038573 413.37004,64.901665 384.03141,52.366608 360.75926,42.423207 334.2003,36.18007 308.41172,36.669108 Z"
       sodipodi:nodetypes="ssssccssssss"
       style="fill:url(#linearGradient4287);stroke-width:1.20749998"
       inkscape:connector-curvature="0" />
    <path
       id="path3959"
       d="m 100.47781,353.5159 c -1.303861,2.50725 -4.55433,5.72307 -7.131739,2.45267 -1.312311,1.50841 2.550482,5.78357 3.735763,2.11313 1.022198,-2.5698 4.316206,-3.36482 6.263906,-3.05642 -0.73965,-0.76059 -1.76935,-1.61105 -2.86781,-1.50938 z"
       style="fill:#d38d5f;stroke-width:1.20749998"
       inkscape:connector-curvature="0" />
    <path
       id="path3965"
       d="m 82.100865,324.62042 c -1.298787,2.34074 -5.198046,0.89382 -5.999826,1.24518 0.461084,4.21635 8.216071,3.8809 5.999826,-1.24518 z m -2.377326,4.15079 c -0.05184,0.0697 0.125145,0.0392 0,0 z"
       style="fill:#d38d5f;stroke-width:1.20749998"
       inkscape:connector-curvature="0" />
    <path
       id="path3973"
       d="m 115.35542,315.14155 c -2.30126,-0.29583 -5.61923,1.43065 -5.87244,3.73697 -0.24715,2.25151 5.061,2.55435 4.80476,4.80476 -0.18996,1.66804 -4.4692,1.00224 -4.27092,2.6693 0.33242,2.79392 5.34644,3.58241 8.00789,2.6693 2.42756,-0.83291 4.47645,-3.84806 4.27093,-6.40627 -0.27233,-3.38885 -3.56816,-7.04057 -6.9401,-7.47406 z"
       sodipodi:nodetypes="aaaaaaa"
       style="fill:#deaa87;stroke-width:1.20749998"
       inkscape:connector-curvature="0" />
    <path
       id="path3979"
       d="m 39.920475,222.73157 h 18.874433 l 14.3451,3.92498 5.284986,6.64488 c 0,0 3.642786,-0.18851 4.529936,-1.50998 2.108778,-3.14107 1.76452,-8.50249 -0.75499,-11.3249 -3.747476,-4.198 -16.61037,-3.01996 -16.61037,-3.01996 z"
       sodipodi:nodetypes="ccccaacc"
       style="fill:#4c6e00;stroke-width:1.20749998"
       inkscape:connector-curvature="0" />
    <path
       id="path3983"
       d="m 66.775275,206.23712 11.744869,-12.81278 3.203136,-10.6772 10.677198,4.27093 6.40627,-6.40627 c 0,0 20.287212,16.01628 17.083712,9.60941 -3.20314,-6.40627 1.06772,-18.15114 1.06772,-18.15114 l 7.47406,3.20313 v 22.42207 c 0,0 -2.13546,24.55693 -8.54173,19.21857 -6.40627,-5.3386 -12.81279,-13.88021 -12.81279,-13.88021 l -4.270923,3.20313 -12.812783,-4.27092 -5.338599,9.60952 z"
       style="fill:#73cb2b;stroke-width:1.20749998"
       inkscape:connector-curvature="0" />
    <path
       id="path3999"
       d="m 98.968433,187.0741 c -2.708906,2.03584 -5.900449,6.97766 -9.697675,3.47156 -2.173258,-1.96231 -6.711043,-2.12182 -5.622361,1.84893 -0.493481,5.359 -5.466232,8.60911 -8.942987,12.11243 1.827552,1.61926 4.098618,2.2567 4.150782,-0.79242 2.217815,-5.52009 9.96912,-8.12926 14.30163,-3.66018 5.799502,0.17077 13.910398,-2.89462 17.096988,4.00299 2.1205,1.80098 4.50603,7.03405 6.67627,6.4495 1.93261,-4.9167 3.10304,-12.2996 2.64141,-16.22639 -5.38726,5.19249 -12.75241,-1.29879 -16.86757,-5.32049 -1.13837,-0.66917 -2.24498,-2.16323 -3.735763,-1.88671 z"
       style="opacity:0.36400003;fill:#d5ffd5;stroke-width:1.20749998"
       inkscape:connector-curvature="0" />
    <path
       id="path4011"
       d="m 123.15587,216.21107 c -10.18768,0.89707 -22.00911,0.36695 -30.338443,7.0186 -3.614651,3.82246 -2.419226,9.39459 1.018829,12.79225 1.754256,3.84758 5.991977,5.99307 9.842934,3.91991 8.4682,-0.83317 16.93519,-1.65427 25.40218,-2.48745 2.02498,-7.06387 4.04995,-14.13982 6.07493,-21.2037 -3.9996,-0.0753 -7.99956,-0.10831 -11.99953,-0.0377 z"
       style="opacity:0.32480002;fill:url(#linearGradient4281);stroke-width:1.20749998"
       inkscape:connector-curvature="0" />
  </g>
  <metadata
     id="metadata73">
    <rdf:RDF>
      <cc:Work>
        <dc:format>image/svg+xml</dc:format>
        <dc:type
           rdf:resource="http://purl.org/dc/dcmitype/StillImage" />
        <cc:license
           rdf:resource="http://creativecommons.org/publicdomain/zero/1.0/" />
        <dc:publisher>
          <cc:Agent
             rdf:about="http://openclipart.org/">
            <dc:title>OpenClipart</dc:title>
          </cc:Agent>
        </dc:publisher>
        <dc:title>Taco</dc:title>
        <dc:date>2011-07-22T20:29:10</dc:date>
        <dc:description />
        <dc:source>https://openclipart.org/detail/151201</dc:source>
        <dc:creator>
          <cc:Agent>
            <dc:title>gnokii</dc:title>
          </cc:Agent>
        </dc:creator>
        <dc:subject>
          <rdf:Bag>
            <rdf:li>fast food</rdf:li>
            <rdf:li>food</rdf:li>
            <rdf:li>mexican food</rdf:li>
            <rdf:li>taco</rdf:li>
          </rdf:Bag>
        </dc:subject>
      </cc:Work>
      <cc:License
         rdf:about="http://creativecommons.org/publicdomain/zero/1.0/">
        <cc:permits
           rdf:resource="http://creativecommons.org/ns#Reproduction" />
        <cc:permits
           rdf:resource="http://creativecommons.org/ns#Distribution" />
        <cc:permits
           rdf:resource="http://creativecommons.org/ns#DerivativeWorks" />
      </cc:License>
    </rdf:RDF>
  </metadata>
</svg>
