<?xml version="1.0" encoding="UTF-8" standalone="no"?>
<svg
   xmlns:dc="http://purl.org/dc/elements/1.1/"
   xmlns:cc="http://creativecommons.org/ns#"
   xmlns:rdf="http://www.w3.org/1999/02/22-rdf-syntax-ns#"
   xmlns:svg="http://www.w3.org/2000/svg"
   xmlns="http://www.w3.org/2000/svg"
   xmlns:sodipodi="http://sodipodi.sourceforge.net/DTD/sodipodi-0.dtd"
   xmlns:inkscape="http://www.inkscape.org/namespaces/inkscape"
   version="1.1"
   x="0"
   y="0"
   width="256"
   height="256"
   viewBox="0 0 256 256"
   id="svg906"
   sodipodi:docname="tomatoes_cherry.svg"
   inkscape:version="0.92.4 (5da689c313, 2019-01-14)">
  <title
     id="title1532">Cherry Tomatoes</title>
  <metadata
     id="metadata910">
    <rdf:RDF>
      <cc:Work
         rdf:about="">
        <dc:format>image/svg+xml</dc:format>
        <dc:type
           rdf:resource="http://purl.org/dc/dcmitype/StillImage" />
        <dc:title>Cherry Tomatoes</dc:title>
        <dc:creator>
          <cc:Agent>
            <dc:title>oksmith</dc:title>
          </cc:Agent>
        </dc:creator>
        <dc:source>https://openclipart.org/detail/312486</dc:source>
        <cc:license
           rdf:resource="http://creativecommons.org/publicdomain/zero/1.0/" />
      </cc:Work>
      <cc:License
         rdf:about="http://creativecommons.org/publicdomain/zero/1.0/">
        <cc:permits
           rdf:resource="http://creativecommons.org/ns#Reproduction" />
        <cc:permits
           rdf:resource="http://creativecommons.org/ns#Distribution" />
        <cc:permits
           rdf:resource="http://creativecommons.org/ns#DerivativeWorks" />
      </cc:License>
    </rdf:RDF>
  </metadata>
  <sodipodi:namedview
     pagecolor="#ffffff"
     bordercolor="#666666"
     borderopacity="1"
     objecttolerance="10"
     gridtolerance="10"
     guidetolerance="10"
     inkscape:pageopacity="0"
     inkscape:pageshadow="2"
     inkscape:window-width="1920"
     inkscape:window-height="1025"
     id="namedview908"
     showgrid="false"
     inkscape:zoom="0.41476274"
     inkscape:cx="-463.57323"
     inkscape:cy="156.65604"
     inkscape:window-x="-8"
     inkscape:window-y="-8"
     inkscape:window-maximized="1"
     inkscape:current-layer="svg906"
     fit-margin-top="0"
     fit-margin-left="0"
     fit-margin-right="0"
     fit-margin-bottom="0" />
  <defs
     id="defs433" />
  <g
     id="g1530"
     transform="matrix(2.5000182,0,0,2.5000182,-2875.6475,-2327.112)">
    <g
       id="g881">
      <path
         d="m 1198.006,978.684 c 0,-13.801 11.625,-24.996 25.963,-24.996 14.337,0 25.962,11.195 25.962,24.996 0,13.808 -11.625,25.002 -25.962,25.002 -14.338,0 -25.963,-11.194 -25.963,-25.002 z"
         id="path877"
         inkscape:connector-curvature="0"
         style="fill:#d8232a" />
      <path
         d="m 1198.006,978.684 c 0,-13.801 11.625,-24.996 25.963,-24.996 14.337,0 25.962,11.195 25.962,24.996 0,13.808 -11.625,25.002 -25.962,25.002 -14.338,0 -25.963,-11.194 -25.963,-25.002 z"
         id="path879"
         inkscape:connector-curvature="0"
         style="fill-opacity:0;stroke:#1a1919;stroke-width:3;stroke-linecap:round;stroke-linejoin:round" />
    </g>
    <g
       id="g887">
      <path
         d="m 1225.65,955.934 c 0,0 -2.625,-5.625 -6.375,-5.625 -3.75,0 -10.125,-2.625 -10.125,-2.625 0,0 0.375,3 2.625,6.375 2.889,4.336 1.875,-0.375 4.125,1.875 2.25,2.25 6,3.375 6,3.375 0,0 -4.5,-1.875 -7.875,3 -3.375,4.875 -3.375,4.875 -3.375,4.875 0,0 -2.25,-1.125 4.125,-1.125 6.375,0 7.875,0.375 9.75,-1.875 1.875,-2.25 5.625,-3.375 5.625,-3.375 0,0 -0.75,1.875 3.75,3.375 4.5,1.5 4.875,0.375 9.75,-0.75 4.875,-1.125 7.5,-1.875 7.5,-1.875 0,0 -3,-3.375 -8.625,-4.875 -5.625,-1.5 -10.875,-0.375 -10.875,-0.375 0,0 -1.125,-6 0.375,-9 1.5,-3 -3,-6.375 -4.875,-3.375 -1.875,3 -1.5,12 -1.5,12 z"
         id="path883"
         inkscape:connector-curvature="0"
         style="fill:#009949" />
      <path
         d="m 1225.65,955.934 c 0,0 -2.625,-5.625 -6.375,-5.625 -3.75,0 -10.125,-2.625 -10.125,-2.625 0,0 0.375,3 2.625,6.375 2.889,4.336 1.875,-0.375 4.125,1.875 2.25,2.25 6,3.375 6,3.375 0,0 -4.5,-1.875 -7.875,3 -3.375,4.875 -3.375,4.875 -3.375,4.875 0,0 -2.25,-1.125 4.125,-1.125 6.375,0 7.875,0.375 9.75,-1.875 1.875,-2.25 5.625,-3.375 5.625,-3.375 0,0 -0.75,1.875 3.75,3.375 4.5,1.5 4.875,0.375 9.75,-0.75 4.875,-1.125 7.5,-1.875 7.5,-1.875 0,0 -3,-3.375 -8.625,-4.875 -5.625,-1.5 -10.875,-0.375 -10.875,-0.375 0,0 -1.125,-6 0.375,-9 1.5,-3 -3,-6.375 -4.875,-3.375 -1.875,3 -1.5,12 -1.5,12 z"
         id="path885"
         inkscape:connector-curvature="0"
         style="fill-opacity:0;stroke:#1a1919;stroke-width:3;stroke-linecap:round;stroke-linejoin:round" />
    </g>
    <path
       d="m 1209.15,971.496 c 0,1.555 -1.259,2.813 -2.812,2.813 -1.553,0 -2.813,-1.258 -2.813,-2.813 0,-1.551 1.26,-2.812 2.813,-2.812 1.553,0 2.812,1.261 2.812,2.812"
       id="path889"
       inkscape:connector-curvature="0"
       style="fill:#fffffe" />
    <g
       id="g895">
      <path
         d="m 1207.275,995.223 c 0,-14.403 -12.132,-26.086 -27.094,-26.086 -14.96,0 -27.089,11.683 -27.089,26.086 0,14.406 12.129,26.088 27.089,26.088 14.962,0 27.094,-11.682 27.094,-26.088 z"
         id="path891"
         inkscape:connector-curvature="0"
         style="fill:#d8232a" />
      <path
         d="m 1207.275,995.223 c 0,-14.403 -12.132,-26.086 -27.094,-26.086 -14.96,0 -27.089,11.683 -27.089,26.086 0,14.406 12.129,26.088 27.089,26.088 14.962,0 27.094,-11.682 27.094,-26.088 z"
         id="path893"
         inkscape:connector-curvature="0"
         style="fill-opacity:0;stroke:#1a1919;stroke-width:3;stroke-linecap:round;stroke-linejoin:round" />
    </g>
    <g
       id="g901">
      <path
         d="m 1178.427,971.482 c 0,0 2.739,-5.871 6.653,-5.871 3.914,0 10.564,-2.74 10.564,-2.74 0,0 -0.388,3.133 -2.736,6.654 -3.018,4.524 -1.957,-0.392 -4.306,1.957 -2.346,2.346 -6.26,3.522 -6.26,3.522 0,0 4.695,-1.957 8.216,3.129 3.522,5.09 3.522,5.09 3.522,5.09 0,0 2.349,-1.176 -4.305,-1.176 -6.652,0 -8.217,0.393 -10.173,-1.957 -1.958,-2.348 -5.872,-3.522 -5.872,-3.522 0,0 0.785,1.957 -3.912,3.522 -4.695,1.564 -5.088,0.392 -10.174,-0.781 -5.085,-1.176 -7.828,-1.957 -7.828,-1.957 0,0 3.131,-3.524 9.002,-5.086 5.869,-1.569 11.348,-0.395 11.348,-0.395 0,0 1.176,-6.26 -0.391,-9.39 -1.566,-3.129 3.129,-6.653 5.086,-3.524 1.957,3.133 1.566,12.525 1.566,12.525 z"
         id="path897"
         inkscape:connector-curvature="0"
         style="fill:#009949" />
      <path
         d="m 1178.427,971.482 c 0,0 2.739,-5.871 6.653,-5.871 3.914,0 10.564,-2.74 10.564,-2.74 0,0 -0.388,3.133 -2.736,6.654 -3.018,4.524 -1.957,-0.392 -4.306,1.957 -2.346,2.346 -6.26,3.522 -6.26,3.522 0,0 4.695,-1.957 8.216,3.129 3.522,5.09 3.522,5.09 3.522,5.09 0,0 2.349,-1.176 -4.305,-1.176 -6.652,0 -8.217,0.393 -10.173,-1.957 -1.958,-2.348 -5.872,-3.522 -5.872,-3.522 0,0 0.785,1.957 -3.912,3.522 -4.695,1.564 -5.088,0.392 -10.174,-0.781 -5.085,-1.176 -7.828,-1.957 -7.828,-1.957 0,0 3.131,-3.524 9.002,-5.086 5.869,-1.569 11.348,-0.395 11.348,-0.395 0,0 1.176,-6.26 -0.391,-9.39 -1.566,-3.129 3.129,-6.653 5.086,-3.524 1.957,3.133 1.566,12.525 1.566,12.525 z"
         id="path899"
         inkscape:connector-curvature="0"
         style="fill-opacity:0;stroke:#1a1919;stroke-width:3.13100004;stroke-linecap:round;stroke-linejoin:round" />
    </g>
    <path
       d="m 1158.144,990.723 c 0,1.619 1.315,2.933 2.936,2.933 1.621,0 2.935,-1.314 2.935,-2.933 0,-1.621 -1.314,-2.938 -2.935,-2.938 -1.621,0 -2.936,1.317 -2.936,2.938"
       id="path903"
       inkscape:connector-curvature="0"
       style="fill:#fffffe" />
  </g>
</svg>
