<?xml version="1.0" encoding="UTF-8" standalone="no"?>
<!-- Generator: Adobe Illustrator 12.0.1, SVG Export Plug-In . SVG Version: 6.00 Build 51448)  -->

<svg
   xmlns:dc="http://purl.org/dc/elements/1.1/"
   xmlns:cc="http://creativecommons.org/ns#"
   xmlns:rdf="http://www.w3.org/1999/02/22-rdf-syntax-ns#"
   xmlns:svg="http://www.w3.org/2000/svg"
   xmlns="http://www.w3.org/2000/svg"
   xmlns:sodipodi="http://sodipodi.sourceforge.net/DTD/sodipodi-0.dtd"
   xmlns:inkscape="http://www.inkscape.org/namespaces/inkscape"
   version="1.1"
   id="Layer_1"
   width="256"
   height="256"
   viewBox="0 0 256.00001 256"
   overflow="visible"
   enable-background="new 0 0 595.576 420.318"
   xml:space="preserve"
   sodipodi:docname="yam.svg"
   inkscape:version="0.92.4 (5da689c313, 2019-01-14)"
   style="overflow:visible"><title
     id="title824">Yam</title><metadata
     id="metadata33"><rdf:RDF><cc:Work
         rdf:about=""><dc:format>image/svg+xml</dc:format><dc:type
           rdf:resource="http://purl.org/dc/dcmitype/StillImage" /><dc:title>Yam</dc:title><cc:license
           rdf:resource="http://creativecommons.org/publicdomain/zero/1.0/" /><dc:date></dc:date><dc:source>https://openclipart.org/detail/1028</dc:source><dc:creator><cc:Agent><dc:title>johnny_automatic</dc:title></cc:Agent></dc:creator></cc:Work><cc:License
         rdf:about="http://creativecommons.org/publicdomain/zero/1.0/"><cc:permits
           rdf:resource="http://creativecommons.org/ns#Reproduction" /><cc:permits
           rdf:resource="http://creativecommons.org/ns#Distribution" /><cc:permits
           rdf:resource="http://creativecommons.org/ns#DerivativeWorks" /></cc:License></rdf:RDF></metadata><defs
     id="defs31" /><sodipodi:namedview
     pagecolor="#ffffff"
     bordercolor="#666666"
     borderopacity="1"
     objecttolerance="10"
     gridtolerance="10"
     guidetolerance="10"
     inkscape:pageopacity="0"
     inkscape:pageshadow="2"
     inkscape:window-width="1920"
     inkscape:window-height="1025"
     id="namedview29"
     showgrid="false"
     inkscape:zoom="1.037651"
     inkscape:cx="-27.931147"
     inkscape:cy="-41.335376"
     inkscape:window-x="-8"
     inkscape:window-y="-8"
     inkscape:window-maximized="1"
     inkscape:current-layer="Layer_1"
     fit-margin-top="0"
     fit-margin-left="0"
     fit-margin-right="0"
     fit-margin-bottom="0" /><g
     id="g26"
     transform="matrix(0.42983596,0,0,0.42983596,1.8693085e-5,37.666078)"><path
       d="m 264.576,74.318 c -1.117,1.23 -0.871,2.054 1,2 0.826,2.826 -1.409,2.591 -1,5 -3.223,-2.11 -5.89,-4.777 -8,-8 -2.876,0.157 -5.318,2.231 -9,4 -1.877,-1.907 0.593,-1.81 0,-5 7.642,-2.006 8.32,-0.763 17,2 z"
       id="path2"
       inkscape:connector-curvature="0"
       style="clip-rule:evenodd;fill:#d4891c;fill-rule:evenodd" /><path
       d="m 271.576,244.318 c 5.675,2.325 9.859,6.141 10,14 -2.092,1.859 -3.758,2.591 -5,3 -2.739,-3.226 8.604,-12.671 -6,-12 -0.319,-2.319 0.161,-3.839 1,-5 z"
       id="path4"
       inkscape:connector-curvature="0"
       style="clip-rule:evenodd;fill:#d4891c;fill-rule:evenodd" /><path
       d="m 275.576,254.318 c -5.875,4.149 -8.161,11.295 -12,15 0.935,-5.482 4.575,-18.562 12,-15 z"
       id="path6"
       inkscape:connector-curvature="0"
       style="clip-rule:evenodd;fill:#d4891c;fill-rule:evenodd" /><path
       d="m 324.576,88.318 c 17.442,-7.006 44.868,15.895 51,29 16.229,13.598 47.997,13.023 48,38 9.275,2 21.623,7.042 30,13 1.162,7.557 6.651,12.412 13,21 4.637,6.271 7.463,15.251 12,22 2.458,3.655 6.348,5.622 9,9 10.945,13.939 20.084,42.26 18,61 8.987,9.631 5.011,14.296 8,24 10.379,0.767 11.968,-4.41 15,-9 2.078,0.56 2.119,1.56 1,3 4.836,-0.729 8.154,-1.768 10,4 -10.423,-5.115 -12.624,4.865 -16,14 22.689,3.832 6.193,20.489 26,29 15.643,1.542 24.981,11.415 28,22 -5.1,0.767 -2.282,-6.384 -7,-6 -1.97,2.072 4.313,7.957 0,10 -4.548,-7.451 -0.578,-19.563 -18,-19 -3.057,2.632 4.057,3.368 1,6 17.219,12.769 9.161,33.986 22,48 8.281,4.646 14.531,-1.411 20,-3 -2.668,7.571 -15.404,9.101 -20,6 3.637,6.252 10.723,3.183 13,10 -4.535,-0.798 -8.048,-2.619 -10,-6 -1.135,0.19 -0.555,1.003 0,1 -20.299,-7.977 -24.022,-30.221 -41,-43 -7.516,10.834 8.785,19.008 10,31 -6.937,-4.506 -9.519,-17.23 -20,-23 -3.166,-13.521 -7.192,-25.165 -21,-30 -13.839,7.972 -14.494,23.086 -1,27 -2.815,4.512 -9.279,-2.062 -7,5 -12.58,-10.281 -2.56,-19.44 -7,-35 -10.372,1.681 -20.438,3.668 -31,-3 -4.649,6.899 -16.716,1.545 -18,2 -2.301,0.815 -3.377,4.328 -4,5 -14.914,16.081 -29.103,10.344 -51,5 -7.035,3.094 -14.009,5.727 -23,4 -5.928,-1.138 -15.784,-4.312 -19,-6 -1.344,-0.706 -1.643,-3.308 -3,-4 -2.973,-1.516 -11.673,-2.054 -10,-6 -8.009,-1.324 -11.544,-7.123 -16,-12 -18.118,3.454 -29.394,-16.214 -46,-14 -2.432,5.415 1.168,21.056 15,21 -6.762,8.058 -17.202,-6.742 -22,-13 -3.845,4.586 -0.197,6.651 -3,10 -4.318,-8.241 0.655,-16.702 3,-21 -0.125,-2.209 -4.242,-0.425 -6,-1 -6.715,-4.455 -13.856,-10.437 -21,-16 -7.916,-6.165 -14.582,-15.061 -22,-20 -4.943,-3.291 -12.131,-4.269 -17,-8 -7.91,-6.062 -12.306,-14.021 -18,-24 -8.693,-2.289 -17.344,-7.507 -22,-12 -0.647,-0.624 -0.289,-3.563 -1,-4 -7.705,-4.729 -12.993,-18.281 -18,-25 -8.096,-10.863 -19.263,-13.432 -27,-23 -0.325,-0.402 1.464,-1.358 1,-2 -1.516,-2.095 -5.205,-3.314 -7,-6 -1.23,-1.841 -3.151,-9.821 -7,-13 -5.902,-4.875 -17.491,-11.404 -16,-22 -23.14,-9.182 -31.926,-36.136 -38,-54 -2.509,-7.38 -9.301,-5.866 -18,-16 -3.861,-4.499 -6.385,-10.921 -10,-13 -3.062,-1.761 -7.601,-0.303 -10,-2 -7.975,-5.641 -10.227,-21.525 2,-27 -2.599,-2.63 1.616,-0.787 1,-4 23.349,-11.935 50.79,-28.058 85,-22 6.793,1.203 17.992,9.13 25,8 26.22,-4.228 55.086,-3.467 74,16 4.015,0.652 6.823,2.51 10,4 0.614,-1.386 3.85,-0.15 4,-2 1.135,0.19 0.555,1.003 0,1 9.783,1.454 23.112,1.74 32,9 7.4,1.396 16.839,5.651 18,10 17.115,14.799 36.967,15.027 57,26 0.648,4.276 6.946,6.846 10,15 z m -199,-74 c -15.352,3.039 -37.004,-4.28 -49,-6 -16.69,-2.393 -36.4,5.034 -51,11 -5.442,2.652 -15.058,10.174 -19,15 5.033,17.864 19.954,17.365 31,30 5.21,-3.682 -2.153,-13.939 3,-17 5.477,25.151 10.665,48.445 25,66 5.79,7.09 11.103,9.474 17,14 6.783,5.206 7.353,15.617 15,21 6.007,-6.194 5.785,-9.721 10,-18 0.521,10.101 -9.969,24.636 3,35 1.566,8.134 15.533,16.677 22,20 7.108,-19.838 11.953,-33.408 25,-48 -9.147,18.993 -16.924,28.085 -18,52 3.288,12.08 12.475,22.928 19,33 1.675,2.586 8.465,4.541 12,7 0.42,0.293 -1.21,1.904 -1,2 7.447,3.398 11.478,2.101 16,8 1.079,1.407 -0.636,2.548 0,4 3.38,7.718 11.65,13.258 21,18 0.003,1.003 -0.81,1.19 -1,2 18.988,3.482 18.817,21.762 37,30 -0.792,0.998 12.629,10.321 12,10 3.418,1.743 10.37,3.88 13,2 -5.538,-22.623 -13.67,-34.622 1,-54 -2.141,-5.886 -0.759,-10.299 5,-12 7.495,2.868 18.193,28.065 0,23 -5.006,4.57 -4.35,13.233 -8,21 3.904,9.028 11.595,14.132 9,25 5.209,-1.208 10.441,3.719 15,6 6.235,3.119 20.814,8.213 23,4 2.825,-5.446 -9.357,-14.374 1,-21 -3.823,27.001 28.013,57.864 65,51 -7.681,-10.503 -10.556,-20.834 -15,-39 1.427,-0.239 1.687,-1.646 3,-2 0.212,15.059 10.599,29.167 17,38 14.451,5.049 28.21,11.773 40,7 6.01,-2.434 8.337,-7.396 14,-10 7.525,-3.459 16.549,0.449 25,-5 16.911,10.733 35.343,-2.79 56,10 5.211,7.258 11.827,10.831 15,18 5.932,-0.265 5.312,6.021 11,6 7.905,11.611 15.157,22.71 22,32 0.737,-5.865 -4.973,-8.578 -7,-14 -3.642,-9.738 -2.512,-26.363 -16,-34 2.578,-0.241 -1.373,-1.721 0,-4 4.568,0.011 10.335,0.115 11,-1 -5.417,-3.2 -9.207,-0.671 -17,0 -8.143,-6.8 -3.148,-26.789 -18,-28 -3.193,-3.482 -8.129,-13.092 -10,-18 -2.838,5.287 -3.457,11.471 -9,11 3.688,-5.193 6.992,-14.325 5,-22 -0.887,-3.415 -5.738,-5.966 -7,-9 -2.338,-5.621 1.701,-14.62 -2,-14 -3.151,-19.252 -5.07,-42.608 -24,-53 -7.041,-3.865 -18.04,-1.469 -29,-6 4.636,0.857 1.048,-1.574 3,-2 5.243,0.901 17.858,4.564 24,1 -5.485,-6.73 -9.973,-16.768 -15,-21 -19.718,-32.935 -59.057,-40.397 -84,-19 -0.212,-1.208 -1.109,-0.615 -2,0 -0.721,-4.447 5.724,-5.756 9,-9 0.102,1.122 -1.453,1.557 0,2 11.242,-11.024 19.945,-8.75 35,-8 -1.506,-3.145 -3.285,-10.471 -9,-15 -7.042,-5.581 -16.385,-6.066 -23,-10 -2.569,-1.528 -3.218,-5.66 -4,-2 -13.322,-10.207 -19.412,-21.761 -33,-32 -15.863,-5.579 -37.863,1.414 -52,2 6.494,-5.883 18.712,-4.664 23,-7 -14.607,-20.754 -31.506,-25.538 -56,-27 -9.266,-11.117 -11.873,-17.266 -26,-22 1.701,-4.506 -9.47,-3.855 -15,-5 -34.158,-7.072 -75.412,7.975 -96,32 0.075,-1.742 -0.223,-3.11 -1,-4 9.938,-4.875 14.449,-16.595 29,-28 12.038,-0.895 21.25,0.722 33,-3 -12.274,-18.663 -38.181,-23.923 -58,-20 z m 22,31 c 5.118,-0.882 8.813,-3.187 13,-5 -6.34,-0.34 -8.808,3.192 -13,5 z m 123,204 c 14.604,-0.671 3.261,8.774 6,12 1.242,-0.409 2.908,-1.141 5,-3 -0.141,-7.859 -4.325,-11.675 -10,-14 -0.839,1.161 -1.319,2.681 -1,5 z m -7,20 c 3.839,-3.705 6.125,-10.851 12,-15 -7.425,-3.562 -11.065,9.518 -12,15 z m -1,54 c 3.108,-1.195 2.763,-2.35 5,1 -0.03,-10.427 3.805,-12.479 6,-20 -2.644,-2.952 -2.35,-9.567 -6,-9 5.867,16.118 -3.429,21.167 -5,28 z m 253,-14 c 3.101,0.282 3.815,8.118 7,5 -0.559,-1.69 3.649,-6.219 2,-9 -3.379,3.187 -5.621,1.476 -9,4 z m -20,46 c 2.939,-0.727 4.216,-3.117 4,-7 -2.933,-0.267 -3.714,-1.38 -5,0 2.952,1.912 1.361,4.246 1,7 z m 36,23 c -2.109,-3.579 0.865,-17.502 -6,-13 1.577,2.982 2.168,13.246 6,13 z"
       id="path8"
       inkscape:connector-curvature="0"
       style="clip-rule:evenodd;fill-rule:evenodd" /><path
       d="m 183.576,34.318 c -11.75,3.722 -20.962,2.105 -33,3 -14.551,11.405 -19.062,23.125 -29,28 0.777,0.89 1.075,2.258 1,4 20.588,-24.025 61.842,-39.072 96,-32 5.53,1.145 16.701,0.494 15,5 14.127,4.734 16.734,10.883 26,22 24.494,1.462 41.393,6.246 56,27 -4.288,2.336 -16.506,1.117 -23,7 14.137,-0.586 36.137,-7.579 52,-2 13.588,10.239 19.678,21.793 33,32 0.782,-3.66 1.431,0.472 4,2 6.615,3.934 15.958,4.419 23,10 5.715,4.529 7.494,11.855 9,15 -15.055,-0.75 -23.758,-3.024 -35,8 -1.453,-0.443 0.102,-0.878 0,-2 -3.276,3.244 -9.721,4.553 -9,9 0.891,-0.615 1.788,-1.208 2,0 24.943,-21.397 64.282,-13.935 84,19 5.027,4.232 9.515,14.27 15,21 -6.142,3.564 -18.757,-0.099 -24,-1 -1.952,0.426 1.636,2.857 -3,2 10.96,4.531 21.959,2.135 29,6 18.93,10.392 20.849,33.748 24,53 3.701,-0.62 -0.338,8.379 2,14 1.262,3.034 6.113,5.585 7,9 1.992,7.675 -1.312,16.807 -5,22 5.543,0.471 6.162,-5.713 9,-11 1.871,4.908 6.807,14.518 10,18 14.852,1.211 9.857,21.2 18,28 7.793,-0.671 11.583,-3.2 17,0 -0.665,1.115 -6.432,1.011 -11,1 -1.373,2.279 2.578,3.759 0,4 13.488,7.637 12.358,24.262 16,34 2.027,5.422 7.737,8.135 7,14 -6.843,-9.29 -14.095,-20.389 -22,-32 -5.688,0.021 -5.068,-6.265 -11,-6 -3.173,-7.169 -9.789,-10.742 -15,-18 -20.657,-12.79 -39.089,0.733 -56,-10 -8.451,5.449 -17.475,1.541 -25,5 -5.663,2.604 -7.99,7.566 -14,10 -11.79,4.773 -25.549,-1.951 -40,-7 -6.401,-8.833 -16.788,-22.941 -17,-38 -1.313,0.354 -1.573,1.761 -3,2 4.444,18.166 7.319,28.497 15,39 -36.987,6.864 -68.823,-23.999 -65,-51 -10.357,6.626 1.825,15.554 -1,21 -2.186,4.213 -16.765,-0.881 -23,-4 -4.559,-2.281 -9.791,-7.208 -15,-6 2.595,-10.868 -5.096,-15.972 -9,-25 3.65,-7.767 2.994,-16.43 8,-21 18.193,5.065 7.495,-20.132 0,-23 -5.759,1.701 -7.141,6.114 -5,12 -14.67,19.378 -6.538,31.377 -1,54 -2.63,1.88 -9.582,-0.257 -13,-2 0.629,0.321 -12.792,-9.002 -12,-10 -18.183,-8.238 -18.012,-26.518 -37,-30 0.19,-0.81 1.003,-0.997 1,-2 -9.35,-4.742 -17.62,-10.282 -21,-18 -0.636,-1.452 1.079,-2.593 0,-4 -4.522,-5.899 -8.553,-4.602 -16,-8 -0.21,-0.096 1.42,-1.707 1,-2 -3.535,-2.459 -10.325,-4.414 -12,-7 -6.525,-10.072 -15.712,-20.92 -19,-33 1.076,-23.915 8.853,-33.007 18,-52 -13.047,14.592 -17.892,28.162 -25,48 -6.467,-3.323 -20.434,-11.866 -22,-20 -12.969,-10.364 -2.479,-24.899 -3,-35 -4.215,8.279 -3.993,11.806 -10,18 -7.647,-5.383 -8.217,-15.794 -15,-21 -5.897,-4.526 -11.21,-6.91 -17,-14 -14.335,-17.555 -19.523,-40.849 -25,-66 -5.153,3.061 2.21,13.318 -3,17 -11.046,-12.635 -25.967,-12.136 -31,-30 3.942,-4.826 13.558,-12.348 19,-15 14.6,-5.966 34.31,-13.393 51,-11 11.996,1.72 33.648,9.039 49,6 19.819,-3.923 45.726,1.337 58,20 z m 80,76 c -5.981,-6.809 -6.273,-22.782 5,-31 1.635,-3.466 -5.192,-7.938 -7,-10 -4.803,0.449 -7.424,-1.247 -14,0 -1.544,2.123 -2.877,4.456 -4,7 1.422,1.912 3.088,3.578 5,5 -2.141,8.071 0.73,27.834 14,37 5.814,-0.799 12.245,6.41 16,11 -0.604,2.159 -0.892,6.646 -1,10 4.631,-0.858 2.222,-11.276 3,-13 6.695,4.043 4.917,8.831 8,14 4.31,-16.094 -16.182,-19.963 -25,-30 z"
       id="path10"
       inkscape:connector-curvature="0"
       style="clip-rule:evenodd;fill:#d4891c;fill-rule:evenodd" /><path
       d="m 160.576,40.318 c -4.187,1.813 -7.882,4.118 -13,5 4.192,-1.808 6.66,-5.34 13,-5 z"
       id="path12"
       inkscape:connector-curvature="0"
       style="clip-rule:evenodd;fill:#d4891c;fill-rule:evenodd" /><path
       d="m 288.576,140.318 c -3.083,-5.169 -1.305,-9.957 -8,-14 -0.778,1.724 1.631,12.142 -3,13 0.108,-3.354 0.396,-7.841 1,-10 -3.755,-4.59 -10.186,-11.799 -16,-11 -13.27,-9.166 -16.141,-28.929 -14,-37 -1.912,-1.422 -3.578,-3.088 -5,-5 1.123,-2.544 2.456,-4.877 4,-7 6.576,-1.247 9.197,0.449 14,0 1.808,2.062 8.635,6.534 7,10 -11.273,8.218 -10.981,24.191 -5,31 8.818,10.037 29.31,13.906 25,30 z m -41,-68 c 0.593,3.19 -1.877,3.093 0,5 3.682,-1.769 6.124,-3.843 9,-4 2.11,3.223 4.777,5.89 8,8 -0.409,-2.409 1.826,-2.174 1,-5 -1.871,0.054 -2.117,-0.77 -1,-2 -8.68,-2.763 -9.358,-4.006 -17,-2 z m 2,15 c -0.064,8.249 9.073,25.903 12,25 -7.126,-9.759 -7.281,-17.466 -3,-30 -3.16,-8.44 -8.925,-4.72 -9,5 z"
       id="path14"
       inkscape:connector-curvature="0"
       style="clip-rule:evenodd;fill-rule:evenodd" /><path
       d="m 258.576,82.318 c -4.281,12.534 -4.126,20.241 3,30 -2.927,0.903 -12.064,-16.751 -12,-25 0.075,-9.72 5.84,-13.44 9,-5 z"
       id="path16"
       inkscape:connector-curvature="0"
       style="clip-rule:evenodd;fill:#d4891c;fill-rule:evenodd" /><path
       d="m 267.576,295.318 c 3.65,-0.567 3.356,6.048 6,9 -2.195,7.521 -6.03,9.573 -6,20 -2.237,-3.35 -1.892,-2.195 -5,-1 1.571,-6.833 10.867,-11.882 5,-28 z"
       id="path18"
       inkscape:connector-curvature="0"
       style="clip-rule:evenodd;fill:#d4891c;fill-rule:evenodd" /><path
       d="m 524.576,305.318 c 1.649,2.781 -2.559,7.31 -2,9 -3.185,3.118 -3.899,-4.718 -7,-5 3.379,-2.524 5.621,-0.813 9,-4 z"
       id="path20"
       inkscape:connector-curvature="0"
       style="clip-rule:evenodd;fill:#d4891c;fill-rule:evenodd" /><path
       d="m 494.576,348.318 c 1.286,-1.38 2.067,-0.267 5,0 0.216,3.883 -1.061,6.273 -4,7 0.361,-2.754 1.952,-5.088 -1,-7 z"
       id="path22"
       inkscape:connector-curvature="0"
       style="clip-rule:evenodd;fill:#d4891c;fill-rule:evenodd" /><path
       d="m 525.576,365.318 c 6.865,-4.502 3.891,9.421 6,13 -3.832,0.246 -4.423,-10.018 -6,-13 z"
       id="path24"
       inkscape:connector-curvature="0"
       style="clip-rule:evenodd;fill:#d4891c;fill-rule:evenodd" /></g></svg>