<?xml version="1.0" encoding="UTF-8" standalone="no"?>
<!-- Created with Inkscape (http://www.inkscape.org/) -->

<svg
   xmlns:dc="http://purl.org/dc/elements/1.1/"
   xmlns:cc="http://creativecommons.org/ns#"
   xmlns:rdf="http://www.w3.org/1999/02/22-rdf-syntax-ns#"
   xmlns:svg="http://www.w3.org/2000/svg"
   xmlns="http://www.w3.org/2000/svg"
   xmlns:xlink="http://www.w3.org/1999/xlink"
   xmlns:sodipodi="http://sodipodi.sourceforge.net/DTD/sodipodi-0.dtd"
   xmlns:inkscape="http://www.inkscape.org/namespaces/inkscape"
   id="svg2"
   sodipodi:docname="mas-36.svg"
   viewBox="0 0 256 256"
   inkscape:export-xdpi="90"
   version="1.1"
   inkscape:export-ydpi="90"
   inkscape:version="0.92.4 (5da689c313, 2019-01-14)"
   width="256"
   height="256">
  <title
     id="title5387">MAS-36</title>
  <defs
     id="defs4">
    <linearGradient
       id="linearGradient5297">
      <stop
         id="stop5299"
         style="stop-color:#333333"
         offset="0" />
      <stop
         id="stop5301"
         style="stop-color:#ffffff"
         offset="1" />
    </linearGradient>
    <linearGradient
       id="linearGradient5277">
      <stop
         id="stop5279"
         style="stop-color:#803300"
         offset="0" />
      <stop
         id="stop5281"
         style="stop-color:#801909"
         offset="1" />
    </linearGradient>
    <filter
       id="filter3053"
       inkscape:menu="Shadows and Glows"
       width="1.5"
       y="-0.25"
       x="-0.25"
       inkscape:menu-tooltip="Adds a colorizable drop shadow inside"
       height="1.5"
       inkscape:label="Drop shadow"
       style="color-interpolation-filters:sRGB">
      <feGaussianBlur
         id="feGaussianBlur3055"
         stdDeviation="4"
         result="result8" />
      <feOffset
         id="feOffset3057"
         result="result11"
         dx="4"
         dy="4" />
      <feComposite
         id="feComposite3059"
         operator="in"
         in="SourceGraphic"
         in2="result11"
         result="result6" />
      <feFlood
         id="feFlood3061"
         flood-color="rgb(0,0,0)"
         in="result6"
         result="result10" />
      <feBlend
         id="feBlend3063"
         result="result12"
         in="result6"
         in2="result10"
         mode="normal" />
      <feComposite
         id="feComposite3065"
         operator="in"
         in2="SourceGraphic"
         result="fbSourceGraphic" />
      <feColorMatrix
         id="feColorMatrix3067"
         values="0 0 0 -1 0 0 0 0 -1 0 0 0 0 -1 0 0 0 0 1 0"
         result="fbSourceGraphicAlpha"
         in="fbSourceGraphic" />
      <feGaussianBlur
         id="feGaussianBlur3069"
         result="blur"
         stdDeviation="2"
         in="fbSourceGraphicAlpha" />
      <feColorMatrix
         id="feColorMatrix3071"
         values="1 0 0 0 0 0 1 0 0 0 0 0 1 0 0 0 0 0 0.5 0 "
         type="matrix"
         result="bluralpha" />
      <feOffset
         id="feOffset3073"
         result="offsetBlur"
         dy="4"
         dx="4"
         in="bluralpha" />
      <feMerge
         id="feMerge3075">
        <feMergeNode
           id="feMergeNode3077"
           in="offsetBlur" />
        <feMergeNode
           id="feMergeNode3079"
           in="fbSourceGraphic" />
      </feMerge>
    </filter>
    <filter
       id="filter3902"
       inkscape:collect="always"
       style="color-interpolation-filters:sRGB">
      <feGaussianBlur
         id="feGaussianBlur3904"
         stdDeviation="0.69554675"
         inkscape:collect="always" />
    </filter>
    <filter
       id="filter3920"
       height="2.2320001"
       width="1.0456001"
       y="-0.616"
       x="-0.022815"
       inkscape:collect="always"
       style="color-interpolation-filters:sRGB">
      <feGaussianBlur
         id="feGaussianBlur3922"
         stdDeviation="0.64166667"
         inkscape:collect="always" />
    </filter>
    <filter
       id="filter3926"
       height="1.9504"
       width="1.0453"
       y="-0.4752"
       x="-0.022629"
       inkscape:collect="always"
       style="color-interpolation-filters:sRGB">
      <feGaussianBlur
         id="feGaussianBlur3928"
         stdDeviation="0.42428574"
         inkscape:collect="always" />
    </filter>
    <filter
       id="filter3932"
       height="1.675"
       width="1.0462"
       y="-0.33750001"
       x="-0.023077"
       inkscape:collect="always"
       style="color-interpolation-filters:sRGB">
      <feGaussianBlur
         id="feGaussianBlur3934"
         stdDeviation="0.40178574"
         inkscape:collect="always" />
    </filter>
    <filter
       id="filter3942"
       height="1.918"
       width="1.0453"
       y="-0.45899999"
       x="-0.022667"
       inkscape:collect="always"
       style="color-interpolation-filters:sRGB">
      <feGaussianBlur
         id="feGaussianBlur3944"
         stdDeviation="0.27321435"
         inkscape:collect="always" />
    </filter>
    <filter
       id="filter3956"
       height="1.8964"
       width="1.1948"
       y="-0.44819999"
       x="-0.097382002"
       inkscape:collect="always"
       style="color-interpolation-filters:sRGB">
      <feGaussianBlur
         id="feGaussianBlur3958"
         stdDeviation="0.36926105"
         inkscape:collect="always" />
    </filter>
    <filter
       id="filter3978"
       inkscape:collect="always"
       style="color-interpolation-filters:sRGB">
      <feGaussianBlur
         id="feGaussianBlur3980"
         stdDeviation="0.31250001"
         inkscape:collect="always" />
    </filter>
    <linearGradient
       id="linearGradient4012"
       y2="483.14001"
       xlink:href="#linearGradient5277"
       gradientUnits="userSpaceOnUse"
       x2="752.06"
       gradientTransform="translate(1.5e-6,6e-6)"
       y1="636.78998"
       x1="127.28"
       inkscape:collect="always" />
    <linearGradient
       id="linearGradient4014"
       y2="512.79999"
       xlink:href="#linearGradient5297"
       gradientUnits="userSpaceOnUse"
       x2="960.15002"
       y1="512.44"
       x1="634.38"
       inkscape:collect="always" />
    <linearGradient
       id="linearGradient4016"
       y2="634.65997"
       xlink:href="#linearGradient5297"
       gradientUnits="userSpaceOnUse"
       x2="703.07001"
       y1="503.34"
       x1="636.40002"
       inkscape:collect="always" />
    <linearGradient
       id="linearGradient4018"
       y2="699.31"
       xlink:href="#linearGradient5277"
       gradientUnits="userSpaceOnUse"
       x2="1131.1"
       gradientTransform="translate(1.5e-6,6e-6)"
       y1="483.14001"
       x1="752.06"
       inkscape:collect="always" />
    <linearGradient
       id="linearGradient4020"
       y2="827.95001"
       xlink:href="#linearGradient5297"
       gradientUnits="userSpaceOnUse"
       x2="1335"
       gradientTransform="translate(1.5e-6,6e-6)"
       y1="426.92001"
       x1="-54.23"
       inkscape:collect="always" />
    <linearGradient
       id="linearGradient4022"
       y2="316.09"
       xlink:href="#linearGradient5277"
       gradientUnits="userSpaceOnUse"
       x2="-517.20001"
       gradientTransform="translate(1.5e-6,6e-6)"
       y1="382.63"
       x1="-274.39999"
       inkscape:collect="always" />
    <linearGradient
       id="linearGradient4024"
       y2="297.22"
       xlink:href="#linearGradient5297"
       gradientUnits="userSpaceOnUse"
       x2="1366.7"
       gradientTransform="rotate(5.5333443,-6.1329495e-5,1.8520046e-5)"
       y1="315.45001"
       x1="1158.4"
       inkscape:collect="always" />
    <linearGradient
       id="linearGradient4026"
       y2="524.84998"
       xlink:href="#linearGradient5297"
       gradientUnits="userSpaceOnUse"
       x2="935.5"
       gradientTransform="translate(1.5e-6,6e-6)"
       y1="471.38"
       x1="726.03003"
       inkscape:collect="always" />
    <radialGradient
       id="radialGradient4028"
       gradientUnits="userSpaceOnUse"
       cy="548.26001"
       cx="310.89001"
       gradientTransform="matrix(1,0,0,0.53425,0,255.35)"
       r="13.036"
       inkscape:collect="always">
      <stop
         id="stop3896"
         style="stop-color:#f8f8f8"
         offset="0" />
      <stop
         id="stop3898"
         style="stop-color:#f8f8f8;stop-opacity:0"
         offset="1" />
    </radialGradient>
  </defs>
  <sodipodi:namedview
     id="base"
     fit-margin-left="1"
     inkscape:showpageshadow="false"
     inkscape:zoom="2.8"
     borderopacity="1.0"
     inkscape:current-layer="svg2"
     inkscape:cx="231.0918"
     inkscape:cy="140.81338"
     inkscape:window-maximized="1"
     showgrid="false"
     fit-margin-right="1"
     units="cm"
     inkscape:document-units="px"
     bordercolor="#666666"
     inkscape:window-x="-8"
     inkscape:window-y="-8"
     fit-margin-bottom="1"
     inkscape:window-width="1920"
     inkscape:pageopacity="0.0"
     inkscape:pageshadow="2"
     pagecolor="#ffffff"
     inkscape:window-height="1025"
     fit-margin-top="1" />
  <g
     id="g3982"
     transform="matrix(0.39166147,-0.30487096,0.30487096,0.39166147,-184.01633,16.5886)">
    <path
       id="path2891"
       inkscape:connector-curvature="0"
       sodipodi:nodetypes="ccccccc"
       style="fill:url(#linearGradient4012);stroke:#000000;stroke-width:0.33000001px;filter:url(#filter3053)"
       d="m 356.38,524.56 c 0,0 -1.8144,-1.3176 -3.8215,1.91 l 0.68442,30.43 c 0,0 134.31,-11.351 135.07,-12.856 1.8084,-10.041 2.6145,-24.328 -1.1026,-34.408 l -127.65,3.6964 -0.49032,11.28" />
    <path
       id="path2895"
       inkscape:connector-curvature="0"
       sodipodi:nodetypes="ccccc"
       style="fill:url(#linearGradient4014);stroke:#000000;stroke-width:0.33000001px;filter:url(#filter3053)"
       d="m 634.09,509.87 69.898,-1.4808 c 1.2981,1.9864 1.1392,4.4611 0.41339,6.3251 l -32.947,1.4518 -37.095,1.0498" />
    <path
       id="path2979"
       inkscape:connector-curvature="0"
       sodipodi:nodetypes="cccccsccsccccccsccccccccccc"
       style="fill:url(#linearGradient4016);stroke:#000000;stroke-width:0.33000001px;filter:url(#filter3053)"
       d="m 616.17,503.45 c 1.2098,-1.5388 1.6107,-2.4179 1.6478,-2.0995 0.0371,0.3184 9.2246,-0.51693 9.5878,0.33303 l 1.8179,6.9316 4.615,0.8557 c 0,0 1.1862,1.7188 1.9623,4.3188 0.77602,2.5999 -0.34103,4.7284 -0.34103,4.7284 l 29.549,-1.0946 c 0,0 0.67205,-1.579 1.9195,-0.87212 1.2474,0.70686 0.54454,4.384 0.54454,4.384 0,0 -0.99904,0.85918 -1.9847,-0.54558 l -27.752,2.2465 -0.77656,0.5844 21.776,-0.10999 25.191,-0.30138 c 1.3272,2.5936 0.64452,7.8292 0.055,7.8361 l -5.0072,0.0585 -4.153,1.9448 -0.52319,-1.7885 -14.709,0.37283 0.0697,0.66305 -9.335,0.47836 -0.11345,0.51471 -12.702,0.32952 c -3.3541,0.41192 0.92146,2.2637 -4.1237,2.4232 -2.233,0.34813 -12.574,3.0892 -13.876,0.69826 -5.2474,-10.272 -6.746,-20.692 -3.3383,-32.89 z" />
    <path
       id="path2887"
       style="fill:url(#linearGradient4018);stroke:#000000;stroke-width:0.33000001px;filter:url(#filter3053)"
       inkscape:connector-curvature="0"
       d="m 618.73,536.37 c 0,0 -2.478,1.9364 -6.1247,2.3197 -3.6468,0.38329 -115.14,4.7278 -115.14,4.7278 0,0 1.6238,-6.8744 1.7293,-12.248 0.10553,-5.3741 -0.19014,-11.376 -0.90496,-14.988 -0.71481,-3.6119 -1.7612,-7.189 -1.7612,-7.189 l 119.03,-2.7905 c 0,0 0.62822,-0.40122 1.7621,0.82035 1.134,1.2216 2.8951,8.4106 2.8424,11.098 -0.0528,2.687 0.27776,9.0208 -0.10653,11.743 -0.38432,2.7219 -1.2226,7.5026 -1.3271,6.508 z" />
    <path
       id="path2899"
       inkscape:connector-curvature="0"
       sodipodi:nodetypes="ccccccccccccccssscccccc"
       style="fill:url(#linearGradient4020);stroke:#000000;stroke-width:0.33000001px;filter:url(#filter3053)"
       d="m 354.58,514.62 c -0.59838,-0.0556 -20.8,0.87662 -20.8,0.87662 -0.81156,0.62225 -0.0432,4.7622 -0.98987,4.9095 l -29.059,0.14851 -18.092,0.89954 -2.9823,-6.7406 -3.9542,-0.41394 -0.88806,-1.6843 -30.95,0.75596 c -1.3926,-3.1922 -1.0954,-2.7772 -3.8429,-6.5066 l -7.9671,-0.55842 1.5923,13.855 -8.1613,8.2182 0.83319,9.284 c 0,0 24.043,-2.1836 36.77,-1.1968 5.3712,0.41647 9.5538,8.4187 10.714,14.118 1.1445,5.6226 -4.2249,16.975 6.6745,15.548 l 58.062,-7.599 c 2.221,-1.4185 1.7895,-3.2692 1.7895,-3.2692 l 9.2164,-0.25765 -0.008,-29.389 3.0109,-2.9236 -0.96725,-8.0753 z" />
    <path
       id="path2897"
       style="fill:#1a1a1a;stroke:#000000;stroke-width:0.33000001px;filter:url(#filter3053)"
       inkscape:connector-curvature="0"
       d="m 359,513.8 -4.2319,0.32629 0.72016,10.234 3.541,-0.13516 -0.0292,-10.425 z" />
    <path
       id="path2901"
       inkscape:connector-curvature="0"
       sodipodi:nodetypes="cccccc"
       style="fill:#333333;stroke:#000000;stroke-width:0.33000001px;filter:url(#filter3053)"
       d="m 284.91,520.4 -1.202,6.0804 6.3698,4.753 39.235,-1.0426 5.4417,-4.6012 -1.2775,-6.7103" />
    <path
       id="path2905"
       style="fill:#333333;stroke:#000000;stroke-width:0.33000001px;filter:url(#filter3053)"
       inkscape:connector-curvature="0"
       d="m 225.76,534.91 7.5755,-0.0852 -0.82434,-14.608 -4.6885,0.49278 0.41815,8.4885 -3.3066,0.11052 0.82575,5.6015 z" />
    <path
       id="path2907"
       inkscape:connector-curvature="0"
       sodipodi:nodetypes="cccccc"
       style="fill:#4d4d4d;stroke:#000000;stroke-width:0.33000001px;filter:url(#filter3053)"
       d="m 261.82,563.36 c -2.9305,1.738 -3.7991,5.9038 -3.308,9.1172 0.051,2.3746 5.1275,9.7002 0.61597,5.8606 -2.8361,-2.2653 -3.4665,-6.5328 -3.6628,-10.044 -0.0366,-2.6033 1.3826,-4.8856 1.3826,-4.8856 l 4.9722,-0.0486 z" />
    <path
       id="path2911"
       inkscape:connector-curvature="0"
       sodipodi:nodetypes="ccscscccccc"
       style="fill:#4d4d4d;stroke:#000000;stroke-width:0.33000001px;filter:url(#filter3053)"
       d="m 282.81,536.5 0.0211,22.751 c 0,0 1.0482,3.208 2.4301,2.8258 1.3819,-0.38225 47.514,-5.705 47.514,-5.705 0,0 -0.72193,1.0239 0,0 2.1217,-3.0092 1.4565,-4.1823 3.258,-5.0827 2.5659,-1.5661 6.1508,-2.2492 8.328,0.30975 0.8511,1.3326 0.48081,2.3196 2.171,2.616 2.3276,0.7424 4.8954,-0.88243 4.837,-3.5896 l -0.71311,-15.805 -67.846,1.6796 z" />
    <path
       id="path2913"
       style="opacity:0.66786996;fill:#1a1a1a;stroke:#000000;stroke-width:0.66000003;stroke-linecap:round;stroke-linejoin:round;filter:url(#filter3053)"
       inkscape:connector-curvature="0"
       d="m 341.93,555.53 c 0.15648,1.4889 -0.87116,2.8172 -2.2953,2.9669 -1.4242,0.14969 -2.7055,-0.93595 -2.862,-2.4248 -0.15649,-1.4889 0.87115,-2.8172 2.2953,-2.9669 1.4242,-0.14969 2.7055,0.93594 2.862,2.4248 z" />
    <path
       id="path2915"
       style="fill:#1a1a1a;stroke:#000000;stroke-width:0.33000001px;filter:url(#filter3053)"
       inkscape:connector-curvature="0"
       d="m 240.71,512.49 c -0.0134,6.6378 0.0359,7.1066 0.0359,7.1066 l 11.511,-0.97288 -0.35691,-5.6508 -11.19,-0.48294 z" />
    <path
       id="path3632"
       style="fill:#333333;stroke:#000000;stroke-width:0.33000001px;filter:url(#filter3053)"
       inkscape:connector-curvature="0"
       d="m 273.08,561.89 -18.676,1.6706 -4.6612,2.0831 c -2.5898,3.8707 -4.6897,9.1258 -1.9181,13.417 10.735,10.389 25.299,6.9856 33.505,-5.0841 0.71132,-4.9286 -2.2923,-9.4913 -6.5897,-11.756 l -1.6603,-0.33 z m -0.97969,1.0828 1.5056,0.29906 c 3.8676,2.0385 6.5596,6.1346 5.9194,10.57 -7.3859,10.863 -20.492,13.929 -30.154,4.5788 -2.4944,-3.8617 -0.59832,-8.5923 1.7325,-12.076 l 4.1972,-1.8769 16.799,-1.4953 z" />
    <path
       id="path2951"
       inkscape:connector-curvature="0"
       sodipodi:nodetypes="ccccsccccccccccccc"
       style="display:inline;fill:url(#linearGradient4022);stroke:#000000;stroke-width:0.33000001px;filter:url(#filter3053)"
       d="m 277.74,563.82 c -1.9027,-13.163 1.9995,-17.656 -7.9288,-28.082 l -41.505,1.9922 -6.4899,1.3932 c 0,0 -18.081,7.6917 -28.762,12.74 -4.8046,2.2711 -8.5322,1.9837 -8.5322,1.9837 0.70333,0.2827 -0.97498,-1.4432 -10.235,-6.2429 -44.346,8.4741 -89.067,18.504 -134,25.53 l 8.2062,69.056 c 0.75663,3.4359 1.2295,7.0531 4.2675,9.032 l 7.1312,0.19852 117.39,-55.712 22.06,-2.0816 c 4.5352,-0.57747 3.2808,-2.4316 4.3435,-3.7747 2.0369,-4.6119 3.8593,-9.3613 9.1812,-11.868 7.1988,-3.7939 15.968,-5.8958 25.294,-7.3987 l 19.717,-6.3386 19.864,-0.4287 z" />
    <path
       id="path2903"
       inkscape:connector-curvature="0"
       sodipodi:nodetypes="ccccccscccc"
       style="fill:#1a1a1a;stroke:#000000;stroke-width:0.33000001px;filter:url(#filter3053)"
       d="m 239.08,519.53 1.3066,7.9211 -0.51883,4.0838 12.485,6.0352 c -2.1384,2.0672 4.8727,-5.9313 10.487,-1.6948 7.4391,8.4434 -2.6765,19.784 -9.7363,11.096 -1.7022,-2.6652 -3.3861,-4.0288 -3.4847,-4.9665 -0.0985,-0.9377 -10.998,-6.547 -10.998,-6.547 l -5.5642,-1.0743 -0.17035,-15.151 6.1936,0.29709 z" />
    <path
       id="rect2984"
       inkscape:connector-curvature="0"
       sodipodi:nodetypes="csscc"
       style="fill:url(#linearGradient4024);stroke:#000000;stroke-width:0.66000003;stroke-linecap:round;stroke-linejoin:round;filter:url(#filter3053)"
       d="m 615.81,494.15 c 2.6801,-0.69337 9.6087,-1.2685 12.669,-0.10319 2.4599,0.93659 2.2252,6.3933 0.0643,7.8962 -2.813,1.9564 -12.861,1.4629 -12.669,0.10319 z" />
    <path
       id="path2986"
       inkscape:connector-curvature="0"
       sodipodi:nodetypes="csssc"
       style="fill:#1a1a1a;stroke:#000000;stroke-width:0.38936001;stroke-linecap:round;stroke-linejoin:round;filter:url(#filter3053)"
       d="m 619.27,498.15 c 0.26806,2.5504 -0.58509,4.7304 -1.9056,4.8692 -1.3205,0.13878 -2.6082,-1.8162 -2.8762,-4.3666 -0.26806,-2.5504 0.36257,-4.4556 1.683,-4.5944 1.2986,-0.1365 2.7928,1.4795 3.0868,3.9839" />
    <path
       id="path2990"
       style="fill:#000000;stroke:#000000;stroke-width:0.99124002;stroke-linecap:round;stroke-linejoin:round;filter:url(#filter3053)"
       inkscape:connector-curvature="0"
       d="m 359.75,524.71 259.73,-9.87" />
    <path
       id="path2889"
       inkscape:connector-curvature="0"
       sodipodi:nodetypes="ccccccc"
       style="fill:url(#linearGradient4026);stroke:#000000;stroke-width:0.33000001px;filter:url(#filter3053)"
       d="m 487.31,509.43 c 0,0 0.98438,4.1151 1.1934,6.1043 2.9217,8.4453 1.0963,22.605 0.3866,28.45 l 8.909,-0.60118 c 0.62898,1.2946 1.586,-11.674 1.7908,-14.853 0.31461,-3.3849 -2.5713,-19.214 -2.5713,-19.214 -2.6204,-0.27218 -6.3018,-0.11693 -9.7085,0.11302 z" />
    <path
       id="path3764"
       sodipodi:rx="9.2857141"
       sodipodi:ry="9.2857141"
       style="fill:#000000;stroke:#000000;stroke-width:3;stroke-linecap:round;stroke-linejoin:round;filter:url(#filter3053)"
       sodipodi:type="arc"
       d="m 39.999999,444.50504 a 9.2857141,9.2857141 0 0 1 -9.231412,9.28555 9.2857141,9.2857141 0 0 1 -9.339381,-9.17695 9.2857141,9.2857141 0 0 1 9.122181,-9.39289 9.2857141,9.2857141 0 0 1 9.446072,9.0671"
       sodipodi:open="true"
       transform="matrix(0.32819,-0.034494,0.034494,0.32819,234.35,397.89)"
       sodipodi:cy="444.50504"
       sodipodi:cx="30.714285"
       sodipodi:end="6.2597936"
       sodipodi:start="0" />
    <path
       id="path5385"
       inkscape:connector-curvature="0"
       sodipodi:nodetypes="css"
       style="fill:none;stroke:#000000;stroke-width:0.33000001px;filter:url(#filter3053)"
       d="m 636.85,523.22 c 0,0 1.7971,2.5505 1.5,5.667 -0.16546,1.7358 -2.0001,4.8336 -2.0001,4.8336" />
    <path
       id="path3892"
       sodipodi:rx="13.035714"
       sodipodi:ry="6.9642859"
       style="opacity:0.22296998;fill:url(#radialGradient4028);filter:url(#filter3902)"
       sodipodi:type="arc"
       sodipodi:start="0"
       sodipodi:open="true"
       inkscape:transform-center-x="-5"
       inkscape:transform-center-y="4.2857143"
       transform="matrix(0.78056,-0.62508,0.62508,0.78056,-282.34,312.5)"
       sodipodi:cy="548.25507"
       sodipodi:cx="310.89285"
       sodipodi:end="6.2597936"
       d="m 323.92857,548.25507 a 13.035714,6.9642859 0 0 1 -12.95949,6.96416 13.035714,6.9642859 0 0 1 -13.11105,-6.88271 13.035714,6.9642859 0 0 1 12.80614,-7.04467 13.035714,6.9642859 0 0 1 13.26083,6.80032" />
    <path
       id="path3906"
       d="M 635.71,513.08 705,510.58"
       sodipodi:nodetypes="cc"
       style="opacity:0.14527001;fill:#ececec;stroke:#ffffff;stroke-width:1px;filter:url(#filter3920)"
       inkscape:connector-curvature="0" />
    <path
       id="path3924"
       d="m 638.57,528.43 46.25,-1.9643"
       sodipodi:nodetypes="cc"
       style="opacity:0.14500002;fill:none;stroke:#ffffff;stroke-width:1px;filter:url(#filter3926)"
       inkscape:connector-curvature="0" />
    <path
       id="path3930"
       d="m 620.54,522.01 14.821,-1.25"
       sodipodi:nodetypes="cc"
       style="opacity:0.39188998;fill:none;stroke:#000000;stroke-width:1px;filter:url(#filter3932)"
       inkscape:connector-curvature="0" />
    <path
       id="path3936"
       d="m 635.71,520.4 28.929,-1.4286"
       style="opacity:0.14500002;fill:none;stroke:#ffffff;stroke-width:1px;filter:url(#filter3942)"
       inkscape:connector-curvature="0" />
    <rect
       id="rect3946"
       ry="0.4788"
       style="opacity:0.05405399;fill:#ececec;stroke:#ffffff;stroke-linejoin:round;filter:url(#filter3956)"
       transform="matrix(0.99995,-0.010241,0.010241,0.99995,-4.8094,6.4219)"
       height="1.8940001"
       width="9.0914001"
       y="496.53"
       x="619.97998" />
    <rect
       id="rect3960"
       ry="0.4788"
       style="opacity:0.05405399;fill:#ececec;stroke:#ffffff;stroke-linejoin:round;filter:url(#filter3978)"
       transform="matrix(0.99647,-0.083966,0.083966,0.99647,-42.028,43.284)"
       height="9.6429005"
       width="8.2143002"
       y="516.46997"
       x="489.45999" />
  </g>
  <metadata
     id="metadata80">
    <rdf:RDF>
      <cc:Work>
        <dc:format>image/svg+xml</dc:format>
        <dc:type
           rdf:resource="http://purl.org/dc/dcmitype/StillImage" />
        <cc:license
           rdf:resource="http://creativecommons.org/publicdomain/zero/1.0/" />
        <dc:publisher>
          <cc:Agent
             rdf:about="http://openclipart.org/">
            <dc:title>OpenClipart Library</dc:title>
          </cc:Agent>
        </dc:publisher>
        <dc:title>MAS-36</dc:title>
        <dc:source>https://openclipart.org/detail/202041</dc:source>
      </cc:Work>
      <cc:License
         rdf:about="http://creativecommons.org/publicdomain/zero/1.0/">
        <cc:permits
           rdf:resource="http://creativecommons.org/ns#Reproduction" />
        <cc:permits
           rdf:resource="http://creativecommons.org/ns#Distribution" />
        <cc:permits
           rdf:resource="http://creativecommons.org/ns#DerivativeWorks" />
      </cc:License>
    </rdf:RDF>
  </metadata>
</svg>
