<?xml version="1.0" encoding="UTF-8" standalone="no"?>
<!-- Created with Inkscape (http://www.inkscape.org/) -->

<svg
   xmlns:dc="http://purl.org/dc/elements/1.1/"
   xmlns:cc="http://creativecommons.org/ns#"
   xmlns:rdf="http://www.w3.org/1999/02/22-rdf-syntax-ns#"
   xmlns:svg="http://www.w3.org/2000/svg"
   xmlns="http://www.w3.org/2000/svg"
   xmlns:xlink="http://www.w3.org/1999/xlink"
   xmlns:sodipodi="http://sodipodi.sourceforge.net/DTD/sodipodi-0.dtd"
   xmlns:inkscape="http://www.inkscape.org/namespaces/inkscape"
   id="svg2"
   sodipodi:docname="winchester_30-30.svg"
   viewBox="0 0 256 255.15388"
   version="1.1"
   inkscape:version="0.92.4 (5da689c313, 2019-01-14)"
   width="256"
   height="255.15388">
  <title
     id="title888">Winchester 30-30</title>
  <defs
     id="defs6">
    <linearGradient
       id="linearGradient2997"
       inkscape:collect="always">
      <stop
         id="stop2999"
         style="stop-color:#a7470f"
         offset="0" />
      <stop
         id="stop3001"
         style="stop-color:#61311a"
         offset="1" />
    </linearGradient>
    <linearGradient
       id="linearGradient3805">
      <stop
         id="stop3807"
         style="stop-color:#2b2200;stop-opacity:0"
         offset="0" />
      <stop
         id="stop3813"
         style="stop-color:#2b2200"
         offset=".5" />
      <stop
         id="stop3809"
         style="stop-color:#2b2200;stop-opacity:0"
         offset="1" />
    </linearGradient>
    <linearGradient
       id="linearGradient4695">
      <stop
         id="stop4697"
         style="stop-color:#f1e6d2"
         offset="0" />
      <stop
         id="stop4699"
         style="stop-color:#c8ab37"
         offset=".43134" />
      <stop
         id="stop4701"
         style="stop-color:#d1ad83"
         offset="1" />
    </linearGradient>
    <linearGradient
       id="linearGradient5460"
       y2="1317.3"
       xlink:href="#linearGradient2997"
       gradientUnits="userSpaceOnUse"
       x2="120.77"
       y1="1034.5"
       x1="495.29001"
       inkscape:collect="always" />
    <linearGradient
       id="linearGradient5499"
       y2="1146"
       xlink:href="#linearGradient3805"
       gradientUnits="userSpaceOnUse"
       x2="523.47998"
       y1="1264.2"
       x1="51.597"
       inkscape:collect="always" />
    <linearGradient
       id="linearGradient5744"
       y2="1146"
       xlink:href="#linearGradient3805"
       gradientUnits="userSpaceOnUse"
       x2="523.47998"
       gradientTransform="rotate(11.472639,1026.8738,4443.2029)"
       y1="1264.2"
       x1="51.597"
       inkscape:collect="always" />
    <linearGradient
       id="linearGradient5750"
       y2="1105.9"
       xlink:href="#linearGradient2997"
       gradientUnits="userSpaceOnUse"
       x2="786.15997"
       gradientTransform="translate(7.2467,-3.82)"
       y1="1216.1"
       x1="782.10999"
       inkscape:collect="always" />
    <linearGradient
       id="linearGradient5776"
       y2="1137"
       spreadMethod="reflect"
       gradientUnits="userSpaceOnUse"
       x2="1204.6"
       y1="1110.8"
       x1="1204.5"
       inkscape:collect="always">
      <stop
         id="stop4100"
         style="stop-color:#221e1f"
         offset="0" />
      <stop
         id="stop4104"
         style="stop-color:#45403d"
         offset=".48894" />
      <stop
         id="stop4098"
         style="stop-color:#666666"
         offset=".61394" />
      <stop
         id="stop4096"
         style="stop-color:#28272a"
         offset=".80329" />
      <stop
         id="stop4092"
         style="stop-color:#45403d"
         offset="1" />
    </linearGradient>
    <linearGradient
       id="linearGradient5786"
       y2="1118.2"
       xlink:href="#linearGradient4695"
       gradientUnits="userSpaceOnUse"
       x2="990.59998"
       y1="1118.2"
       x1="970.15002"
       inkscape:collect="always" />
    <linearGradient
       id="linearGradient5790"
       y2="1118.2"
       xlink:href="#linearGradient4695"
       gradientUnits="userSpaceOnUse"
       x2="990.59998"
       gradientTransform="translate(404.88,1.205)"
       y1="1118.2"
       x1="970.15002"
       inkscape:collect="always" />
    <linearGradient
       id="linearGradient5800"
       y2="1098.1"
       gradientUnits="userSpaceOnUse"
       x2="980.46002"
       y1="1262.8"
       x1="973.87"
       inkscape:collect="always">
      <stop
         id="stop5796"
         style="stop-color:#000000"
         offset="0" />
      <stop
         id="stop5798"
         style="stop-color:#000000;stop-opacity:0"
         offset="1" />
    </linearGradient>
    <linearGradient
       id="linearGradient5874"
       y2="1234.9"
       gradientUnits="userSpaceOnUse"
       x2="502.57001"
       y1="1162.6"
       x1="586.03998"
       inkscape:collect="always">
      <stop
         id="stop5870"
         style="stop-color:#1a1a1a"
         offset="0" />
      <stop
         id="stop5872"
         style="stop-color:#4d4d4d"
         offset="1" />
    </linearGradient>
    <linearGradient
       id="linearGradient5882"
       y2="1129.3"
       gradientUnits="userSpaceOnUse"
       x2="726.78003"
       y1="1129.3"
       x1="472.94"
       inkscape:collect="always">
      <stop
         id="stop5878"
         style="stop-color:#453748"
         offset="0" />
      <stop
         id="stop5886"
         style="stop-color:#333333"
         offset=".29822" />
      <stop
         id="stop5884"
         style="stop-color:#221c24"
         offset=".81747" />
      <stop
         id="stop5880"
         style="stop-color:#453748"
         offset="1" />
    </linearGradient>
    <linearGradient
       id="linearGradient5900"
       y2="1122.7"
       gradientUnits="userSpaceOnUse"
       x2="705.79999"
       y1="1123"
       x1="716.87"
       inkscape:collect="always">
      <stop
         id="stop5896"
         style="stop-color:#000000"
         offset="0" />
      <stop
         id="stop5898"
         style="stop-color:#000000;stop-opacity:0"
         offset="1" />
    </linearGradient>
    <linearGradient
       id="linearGradient6071"
       y2="1136.5"
       gradientUnits="userSpaceOnUse"
       x2="608.96997"
       y1="1044.9"
       x1="577.22998"
       inkscape:collect="always">
      <stop
         id="stop6067"
         style="stop-color:#ffffff"
         offset="0" />
      <stop
         id="stop6069"
         style="stop-color:#ffffff;stop-opacity:0"
         offset="1" />
    </linearGradient>
    <linearGradient
       id="linearGradient6079"
       y2="1127.1"
       gradientUnits="userSpaceOnUse"
       x2="645.73999"
       y1="1210.7"
       x1="659.71002"
       inkscape:collect="always">
      <stop
         id="stop6075"
         style="stop-color:#ffffff"
         offset="0" />
      <stop
         id="stop6077"
         style="stop-color:#ffffff;stop-opacity:0"
         offset="1" />
    </linearGradient>
    <radialGradient
       id="radialGradient6089"
       gradientUnits="userSpaceOnUse"
       cy="1113.1"
       cx="675.17999"
       gradientTransform="matrix(2.6481,0,0,2.2558,-1104.5,-1396)"
       r="26.698"
       inkscape:collect="always">
      <stop
         id="stop6087"
         style="stop-color:#1a1a1a"
         offset="0" />
      <stop
         id="stop6085"
         style="stop-color:#808080"
         offset="1" />
    </radialGradient>
  </defs>
  <sodipodi:namedview
     id="namedview4"
     bordercolor="#666666"
     inkscape:pageshadow="2"
     guidetolerance="10"
     pagecolor="#ffffff"
     gridtolerance="10"
     inkscape:window-maximized="1"
     inkscape:zoom="0.44010642"
     objecttolerance="10"
     borderopacity="1"
     inkscape:current-layer="svg2"
     inkscape:cx="447.98417"
     inkscape:cy="234.13884"
     inkscape:window-y="-8"
     inkscape:window-x="-8"
     inkscape:window-width="1920"
     showgrid="false"
     inkscape:pageopacity="0"
     inkscape:window-height="1025"
     fit-margin-top="0"
     fit-margin-left="0"
     fit-margin-right="0"
     fit-margin-bottom="0" />
  <g
     id="g6243"
     transform="matrix(0.17927321,-0.14413517,0.14413517,0.17927321,-172.92312,20.041596)">
    <path
       id="path5807"
       d="m 642.19,1155 c -10.744,0.333 -24.573,0.9296 -32.344,1.4062 -2.4784,0.1521 -5.3217,0.2545 -8.25,0.3438 l -1.5,3.625 c 1.7218,-0.1438 3.3396,-0.2659 4.5938,-0.3125 0.7371,-0.027 1.3741,-0.062 1.9374,-0.062 3.9444,-0.012 3.9903,1.2148 4.8438,11.969 1.1413,14.38 -4.293,24.659 -16.094,30.469 -5.7872,2.849 -7.5927,3.2303 -17.25,3.5937 -11.691,0.4401 -15.24,-0.3715 -22.281,-5.0312 -2.1436,-1.4186 -5.0324,-4.4939 -6.4062,-6.8438 -4.4879,-9.0974 -6.8122,-18.462 -10.906,-27.5 -1.3829,0.4885 -2.7866,0.9561 -4.1875,1.4063 -3.7126,1.3823 -7.6384,2.7913 -11.25,4.2187 2.1922,5.0012 0.43185,0.5322 3.0625,7.3438 0.4133,0.01 0.5601,0.1788 0.1875,0.5625 -0.55,0.5664 -5.05,2.5969 -10,4.5 -4.95,1.9031 -15.075,5.8045 -22.5,8.6875 -7.425,2.883 -16.606,6.344 -20.406,7.6875 -10.921,3.8614 -19.85,8.1943 -22.938,11.125 -9.3442,8.8706 -10.01,23.984 -1.4688,33.688 5.6544,6.4238 8.93,7.9075 17.312,7.8437 6.2755,-0.048 9.1734,-0.8985 28,-8.0937 43.672,-16.69 45.051,-17.28 50.062,-21.938 3.4027,-3.1621 7.3232,-3.8398 20.438,-3.4375 18.486,0.4982 34.986,2.2408 48.906,-11.219 5.7446,-5.779 6.3113,-6.484 9.3438,-12.219 1.8397,-7.0298 5.3657,-20.983 4.9062,-26.938 -0.1567,-1.8328 0.056,-2.5223 0.5626,-1.7813 0.5876,0.8593 1.7136,0.1794 3.8124,-2.3437 2.8606,-3.4386 7.3555,-6.455 10.469,-7.0313 0.1937,-0.036 0.9022,-0.1094 1.9062,-0.1875 z m -115.47,33.375 c 4.448,-0.4473 25.647,9.4003 16.875,28.031 -1.2375,2.4496 -3.648,5.3747 -5.3438,6.5 -1.6958,1.1254 -16.996,7.2561 -34,13.625 -31.68,11.866 -35.955,13.111 -40.562,11.812 -8.7499,-2.4655 -14.097,-9.1342 -14.688,-18.406 -0.4439,-6.9723 0.8505,-10.392 5.5,-14.688 4.4088,-4.0734 65.679,-26.875 72.219,-26.875 z"
       sodipodi:nodetypes="ccccccsccscccccsssccscssccccscccccccssscc"
       style="fill:url(#linearGradient5874)"
       inkscape:connector-curvature="0" />
    <path
       id="path5816"
       d="m 578.94,1148.2 -7.3438,0.3437 c -1.6159,0.2768 -3.0782,0.7172 -4.9375,1.375 -3.2486,1.1494 -6.038,2.0938 -6.1875,2.0938 -0.37073,0 -1.4126,-1.0276 -2.25,-2.0625 l -1.2812,0.5 c 0.0637,0.2448 0.0877,0.5094 0.0937,0.8125 0.0182,0.9029 -7.2066,4.1791 -15.281,7.0312 l 3.3125,7.3125 c 0.03,-0.034 0.0639,-0.038 0.125,0 -0.53125,0.6812 18.985,-7.5012 18.219,-6.5312 -2.448,3.0184 -4.6004,13.08 -3.9062,18.312 0.7577,5.7121 5.1634,14.625 7.2188,14.625 1.7324,0 1.6674,-0.93 -0.28125,-5.5938 -2.1188,-5.0711 -2.0298,-14.206 0.15625,-18.812 0.9519,-2.0062 1.9278,-3.4471 2.1875,-3.1875 0.2596,0.2597 3.4693,-1.6857 7.125,-4.3125 3.6559,-2.6267 7.1194,-5.0649 7.7188,-5.4062 1.0971,-0.6245 11.978,-2.0439 19.688,-2.6875 l 1.5,-3.625 c -7.1352,0.2175 -14.87,0.2581 -19.75,0.031 -2.4559,-0.1142 -4.4189,-0.1826 -6.125,-0.2188 z"
       style="fill:#1a1a1a"
       inkscape:connector-curvature="0" />
    <g
       id="g5501">
      <path
         id="path3043"
         style="fill:url(#linearGradient5460)"
         inkscape:connector-curvature="0"
         d="m 501.81,1121.6 c -44.782,16.366 -88.855,35.448 -135.12,47.281 -22.318,4.2173 -39.582,-12.805 -57.455,-22.665 -21.74,-4.5211 -44.284,1.3012 -66.233,2.4151 -74.071,8.0383 -148.32,14.944 -222.12,25.125 -6.9132,17.03 4.361,38.546 5.1351,57.06 6.9855,37.716 10.23,75.997 16.021,113.88 6.3688,8.9613 17.999,2.1192 27.136,-1.17 32.036,-9.8392 62.975,-20.862 94.333,-32.299 55.107,-19.018 110.17,-39.381 165,-58.438 26.801,-10.089 54.357,-19.968 81.341,-30.136 19.135,-6.762 39.133,-15.31 57.253,-22.302 10.655,-3.2571 23.869,-9.2418 34.882,-12.903 13.486,1.2834 12.541,-11.194 14.743,-11.909 7.8489,-2.3017 34.455,-13.696 11.281,-6.1874 -8.367,5.4624 -20.346,4.1571 -5.75,-2 13.215,-2.276 3.9747,-13.976 2.4359,-21.699 -3.1001,-4.6261 -2.3116,-16.765 -7.8585,-16.664 -7.9965,1.234 -17.065,8.6644 -24.071,2.9858 -7.6423,-0.6455 -42.037,13.81 -20.477,4.3542 9.9066,-3.6163 27.361,-10.354 29.533,-14.727 z" />
      <path
         id="path5464"
         style="opacity:0.75585004;fill:url(#linearGradient5499)"
         inkscape:connector-curvature="0"
         d="m 501.75,1121.7 c -0.22907,0.052 -0.45843,0.1037 -0.6875,0.1562 -2.2561,0.8262 -4.497,1.6616 -6.75,2.5 2.1468,-0.4849 4.2907,-0.9839 6.4375,-1.4688 0.41698,-0.409 0.79011,-0.8089 1,-1.1874 z m 17.469,8.25 -45.219,10.5 c -19.281,4.3969 -38.562,8.7919 -57.844,13.187 -1.4749,0.5163 -2.96,1.0232 -4.4375,1.5313 20.579,-4.706 41.169,-9.3954 61.75,-14.094 15.373,-3.5631 30.752,-7.124 46.125,-10.688 -0.11876,-0.1501 -0.24511,-0.3088 -0.375,-0.4374 z m -27.25,1.9687 c -0.5771,0.016 -1.2543,0.1036 -2,0.2187 -1.8971,0.4345 -3.7904,0.8781 -5.6875,1.3126 -6.3172,1.7155 -13.863,4.3939 -17.219,5.5312 9.0233,-2.0397 18.039,-4.0865 27.062,-6.125 -0.46174,-0.2602 -0.92916,-0.5449 -1.375,-0.9062 -0.23882,-0.02 -0.4927,-0.039 -0.78125,-0.031 z m -18.85,4 c -7.867,1.801 -15.727,3.6062 -23.594,5.4062 -3.4925,1.3266 -7.0009,2.6301 -10.5,3.9376 8.8236,-1.9959 17.645,-3.9741 26.469,-5.9688 0.007,0 0.0238,-0.027 0.0312,-0.031 0.67686,-0.3576 2.7512,-1.2776 6.75,-3.0313 0.25969,-0.095 0.5741,-0.2135 0.84375,-0.3125 z m 48.875,0.9688 c -61.8,14.49 -123.6,29.025 -185.38,43.625 -87.811,20.689 -175.68,41.121 -263.91,59.969 -14.486,3.1051 -28.973,6.2173 -43.469,9.2813 0.07442,0.4772 0.14517,0.9601 0.21875,1.4374 13.951,-3.0263 27.898,-6.0442 41.844,-9.0937 88.203,-19.161 176.11,-39.54 264,-60.094 62.326,-14.61 124.69,-29.03 187.12,-43.188 -0.14259,-0.6521 -0.29312,-1.2888 -0.4375,-1.9374 z m -235.34,7.625 c -2.5687,0.093 -5.1435,0.2909 -7.7188,0.5 -78.447,17.869 -156.9,35.697 -235.38,53.437 -7.5214,1.7 -15.041,3.3944 -22.562,5.0938 0.1074,0.4892 0.20194,0.979 0.3125,1.4688 6.8856,-1.577 13.771,-3.1735 20.656,-4.75 80.047,-18.322 160.11,-36.528 240.19,-54.719 1.5004,-0.3406 2.9996,-0.6906 4.5,-1.0312 z m 13.312,0.2812 c -54.422,12.439 -108.83,24.952 -163.22,37.531 -38.183,8.8618 -76.343,17.844 -114.53,26.688 0.12244,0.523 0.22146,1.0398 0.34375,1.5624 37.657,-8.9553 75.3,-17.997 112.97,-26.906 55.443,-13.042 110.93,-25.909 166.44,-38.688 -0.66647,-0.073 -1.3324,-0.1297 -2,-0.1875 z m 225.31,2.9375 c -76.398,17.505 -152.79,35.011 -229.22,52.375 -88.407,20.111 -176.82,40.172 -265.25,60.156 0.04197,0.2914 0.08328,0.5835 0.125,0.875 88.155,-20.184 176.32,-40.285 264.5,-60.344 76.698,-17.471 153.43,-34.795 230.16,-52.125 -0.11293,-0.3194 -0.212,-0.6252 -0.3125,-0.9375 z m -303.4,3.1 c -1.6257,0.1725 -3.2492,0.3594 -4.875,0.5312 -65.818,14.958 -131.63,29.902 -197.47,44.781 0.04514,0.2813 0.10845,0.5618 0.15625,0.8437 67.389,-15.427 134.78,-30.811 202.19,-46.156 z m 98.281,2.0312 c -84.598,19.912 -169.25,39.593 -254.25,57.75 -13.788,2.9557 -27.578,5.8929 -41.375,8.8126 0.09393,0.478 0.16232,0.9613 0.25,1.4374 13.242,-2.8746 26.481,-5.7616 39.719,-8.6562 85.862,-18.653 171.44,-38.47 257,-58.469 -0.44916,-0.2925 -0.89537,-0.5837 -1.3438,-0.875 z m 207.75,2.0313 c -6.8224,1.5664 -13.648,3.1147 -20.469,4.6875 -69.804,15.99 -139.62,31.961 -209.44,47.875 -79.99,18.221 -159.98,36.411 -240,54.5 -8.7095,1.9685 -17.415,3.9385 -26.125,5.9062 0.06847,0.4989 0.1196,1.0011 0.1875,1.5 8.1145,-1.8584 16.229,-3.7358 24.344,-5.5937 80.047,-18.322 160.11,-36.527 240.19,-54.719 69.646,-15.813 139.31,-31.576 208.97,-47.313 7.6474,-1.7157 15.292,-3.4636 22.938,-5.1874 -0.16839,-0.5533 -0.39176,-1.0926 -0.59375,-1.6563 z m -381.41,3.9 c -3.0532,0.3249 -6.1034,0.6409 -9.1562,0.9687 -26.331,5.8863 -52.675,11.676 -79.062,17.313 -13.205,2.8305 -26.413,5.6701 -39.625,8.4687 -0.0079,0.4889 -0.0079,0.9761 0,1.4687 12.742,-2.7674 25.481,-5.527 38.219,-8.3124 29.906,-6.497 59.774,-13.17 89.625,-19.906 z m 382.59,0.375 -48.281,11.219 c -109.9,25.062 -219.8,50.038 -329.62,75.438 -39.527,9.1737 -79.027,18.513 -118.56,27.656 0.07221,0.5421 0.14708,1.0828 0.21875,1.625 39.046,-9.2774 78.069,-18.669 117.12,-27.906 109.99,-25.873 220.15,-51.071 330.31,-76.219 16.291,-3.7759 32.584,-7.5675 48.875,-11.344 -0.0184,-0.1542 -0.038,-0.3121 -0.0625,-0.4687 z m -196.94,1.3125 c -14.298,3.2583 -28.606,6.5011 -42.906,9.75 -87.753,19.962 -175.5,39.912 -263.28,59.75 0.01555,0.2696 0.02003,0.5441 0.03125,0.8125 0.0019,0.01 -0.0019,0.021 0,0.031 87.529,-20.039 175.1,-39.959 262.66,-59.875 14.743,-3.3583 29.473,-6.714 44.219,-10.063 -0.23734,-0.1375 -0.48202,-0.267 -0.71875,-0.4062 z m 10.469,5.3125 c -17.142,3.9123 -34.294,7.8426 -51.438,11.75 -79.99,18.221 -159.98,36.442 -240,54.531 -7.9904,1.8059 -15.978,3.6009 -23.969,5.4062 0.08503,0.4894 0.16608,0.9792 0.25,1.4688 7.374,-1.6888 14.751,-3.3742 22.125,-5.0626 80.047,-18.322 160.11,-36.559 240.19,-54.75 18.338,-4.1637 36.692,-8.3107 55.031,-12.469 -0.74046,-0.2734 -1.4556,-0.5705 -2.1875,-0.875 z m 8.3438,2.7187 c -68.883,15.72 -137.76,31.485 -206.59,47.406 -38.746,8.9925 -77.466,18.124 -116.22,27.094 0.08763,0.5303 0.16356,1.0634 0.25,1.5938 38.259,-9.095 76.48,-18.261 114.75,-27.312 69.654,-16.384 139.38,-32.498 209.12,-48.5 -0.43739,-0.085 -0.87855,-0.1832 -1.3125,-0.2813 z m 178.16,2.375 c -61.621,14.448 -123.22,28.88 -184.81,43.438 -87.811,20.689 -175.68,41.121 -263.91,59.969 -15.452,3.3122 -30.912,6.6432 -46.375,9.9063 0.06258,0.4899 0.12516,0.9788 0.1875,1.4687 14.923,-3.2337 29.834,-6.4883 44.75,-9.75 88.203,-19.162 176.14,-39.54 264.03,-60.094 57.738,-13.534 115.52,-26.881 173.34,-40.031 0.01,-0.011 0.0214,-0.021 0.0312,-0.031 0.10881,-0.1134 0.21758,-0.209 0.34375,-0.25 2.7943,-0.8194 7.9497,-2.7639 12.406,-4.625 z m -36.375,19.875 c -62.997,14.433 -125.98,28.838 -189,43.156 -89.441,20.346 -178.91,40.659 -268.38,60.875 0.03646,0.291 0.05731,0.584 0.09375,0.875 89.203,-20.426 178.42,-40.765 267.66,-61.062 61.37,-13.979 122.76,-27.849 184.16,-41.719 1.8316,-0.7193 3.6634,-1.4328 5.4688,-2.125 z m -49.562,19.063 c -45.83,10.482 -91.661,20.959 -137.5,31.406 -79.99,18.221 -159.98,36.411 -240,54.5 -9.7885,2.2123 -19.586,4.4137 -29.375,6.625 0.06393,0.5102 0.12348,1.021 0.1875,1.5312 9.198,-2.1068 18.396,-4.2377 27.594,-6.3437 80.047,-18.322 160.11,-36.528 240.19,-54.719 43.374,-9.8483 86.743,-19.683 130.12,-29.5 2.9479,-1.1679 5.8568,-2.3268 8.7812,-3.5 z m -29.156,11.281 c -85.085,19.399 -170.16,38.835 -255.19,58.5 -40.61,9.4252 -81.191,18.992 -121.81,28.375 0.06976,0.5524 0.14875,1.1038 0.21875,1.6562 40.141,-9.5306 80.256,-19.191 120.41,-28.687 84.137,-19.791 168.37,-39.188 252.62,-58.469 1.2446,-0.4413 2.499,-0.9198 3.75,-1.375 z m -83.344,30.844 c -80.802,18.991 -161.67,37.69 -242.84,55.031 -16.521,3.5415 -33.059,7.0802 -49.594,10.562 0.06485,0.4996 0.12227,1.0004 0.1875,1.5 15.996,-3.4621 31.981,-6.9414 47.969,-10.438 78.38,-17.027 156.55,-35.032 234.66,-53.25 2.4792,-0.8665 4.9592,-1.7324 7.4375,-2.5938 0.72467,-0.2727 1.4618,-0.54 2.1875,-0.8124 z m -80.062,28.406 c -70.31,15.98 -140.64,31.954 -210.97,47.844 0.03985,0.2918 0.08496,0.5832 0.125,0.875 68.747,-15.744 137.51,-31.406 206.28,-47.063 0.0125,0 0.0187,-0.027 0.0312,-0.031 1.5117,-0.5413 3.0197,-1.0837 4.5312,-1.625 z m -60.531,21.562 c -38.99,8.8591 -77.97,17.684 -116.97,26.5 -10.799,2.4407 -21.607,4.8731 -32.406,7.3125 0.07295,0.5097 0.14504,1.0216 0.21875,1.5312 10.198,-2.336 20.396,-4.6963 30.594,-7.0312 36.128,-8.2693 72.239,-16.517 108.38,-24.75 3.3957,-1.187 6.7923,-2.3679 10.188,-3.5625 z m -40.062,14.156 c -36.165,8.4281 -72.316,16.932 -108.5,25.281 0.08243,0.5532 0.16655,1.1032 0.25,1.6562 32.995,-7.8284 65.978,-15.713 98.969,-23.562 3.0905,-1.107 6.1883,-2.2571 9.2812,-3.375 z" />
      <path
         id="path3037"
         style="fill:#803300"
         inkscape:connector-curvature="0"
         d="m 294.91,1145.7 c 5.8171,-0.023 9.8062,0.4038 11.906,1.2812 1.7835,0.7452 6.3824,4.0613 10.219,7.3438 16.828,14.398 27.349,18.359 44.875,16.906 10.92,-0.9054 16.688,-2.3463 40.031,-10 10.968,-3.5962 20.095,-6.4052 20.281,-6.2188 0.28924,0.2894 -12.323,4.8869 -38.219,13.875 -3.3,1.1456 -7.35,3.0884 -9,4.3438 -1.65,1.2554 -4.5707,3.5301 -6.4688,5.0625 -1.8981,1.5323 -3.1728,2.3514 -2.8438,1.8125 0.36988,-0.6058 -2.8784,-1.0464 -8.5,-1.1875 -9.2946,-0.2332 -9.9919,-0.4572 -23.688,-7.0937 -7.2695,-3.5229 -10.171,-5.3814 -16.688,-10.813 -9.0125,-7.5107 -12.548,-8.6008 -26.375,-8.0312 -19.915,0.8203 -28.894,1.5548 -30.719,2.5312 -1.0943,0.5857 -2.4133,0.6045 -3.4375,0.031 -1.0571,-0.5915 -1.8758,-0.5622 -2.2812,0.094 -0.34967,0.5656 -1.0038,0.7993 -1.4375,0.5313 -0.43369,-0.2681 -2.3217,-0.027 -4.1875,0.5313 -1.8658,0.5577 -6.525,1.1874 -10.375,1.4062 -9.6264,0.5471 -19.694,1.5227 -21.5,2.0625 -1.6208,0.4845 -16.058,2.2191 -25,3 -11.817,1.0321 -13.761,1.2187 -21.5,2.3125 -4.4,0.6218 -10.925,1.3661 -14.5,1.625 -17.748,1.2852 -23.548,1.786 -24.125,2.125 -0.34722,0.2038 -4.3972,0.5914 -9,0.875 -4.6028,0.2835 -10.4,0.7897 -12.875,1.125 -8.6367,1.1701 -11.545,1.5106 -18,1.9688 -3.575,0.2533 -7.175,0.7129 -8,1.0312 -0.825,0.3183 -6.9,0.8027 -13.5,1.0938 -6.6,0.2907 -13.238,0.6134 -14.75,0.6874 -1.5125,0.074 -2.75,0.4125 -2.75,0.75 0,0.3377 -1.8,0.5938 -4,0.5938 -2.2,0 -4,-0.3578 -4,-0.7812 0,-0.4237 -0.9,-0.5064 -2,-0.2188 -1.1,0.2877 -2,0.073 -2,-0.4688 0,-0.542 1.4625,-1.2566 3.25,-1.5937 1.7875,-0.3371 6.4154,-1.2783 10.281,-2.0625 3.8658,-0.7841 10.616,-1.7363 15,-2.125 4.3842,-0.3886 8.2311,-0.8681 8.5625,-1.0625 0.52474,-0.3078 10.181,-1.5136 51.406,-6.4375 4.95,-0.5912 12.375,-1.5239 16.5,-2.0625 11.85,-1.5473 92.754,-10.143 126.5,-13.438 9.4387,-0.9216 17.089,-1.3842 22.906,-1.4062 z" />
      <path
         id="path3031"
         style="fill:#803300"
         inkscape:connector-curvature="0"
         d="m 510.81,1172.3 c 0.94061,0.01 1.6875,0.6494 1.6875,1.875 0,1.1127 -9.796,6.5 -11.812,6.5 -0.41001,0 -4.2463,1.35 -8.5312,3 -4.285,1.6503 -8.5413,2.9513 -9.4688,2.9063 -1.9372,-0.094 0.22228,-1.0584 14,-6.3437 6.446,-2.473 10.208,-4.5355 11.25,-6.125 0.79897,-1.2194 1.9344,-1.8201 2.875,-1.8126 z" />
      <path
         id="path3019"
         style="fill:#000000"
         inkscape:connector-curvature="0"
         d="m 527.66,1192.8 c -0.0312,0.023 -0.004,0.1074 0.0312,0.1876 0.35873,0.1047 0.72973,0.2152 0.9375,0.25 -0.55941,-0.319 -0.88983,-0.4941 -0.96875,-0.4376 z" />
      <path
         id="path3001"
         style="fill:#803300"
         inkscape:connector-curvature="0"
         d="m 444.78,1199.7 c 0.66884,0.02 -1.9436,1.402 -5.7812,3.0625 -3.8376,1.6604 -8.3376,4.0117 -10,5.25 -3.4687,2.5838 -13.951,7.6562 -15.844,7.6562 -0.69996,3e-4 -1.7139,0.4328 -2.25,0.9688 -0.53607,0.5361 -7.4761,3.2802 -15.438,6.0938 -7.9614,2.8134 -16.493,5.8238 -18.938,6.6874 -2.4447,0.8638 -5.5947,2.1729 -7,2.9063 -1.4053,0.7334 -3.1175,1.3437 -3.8125,1.3437 -0.69496,0 -2.045,0.4204 -3,0.9376 -0.95504,0.5168 -6.2188,2.3518 -11.719,4.0937 -5.5,1.7419 -11.8,3.9677 -14,4.9375 -2.2,0.9698 -6.925,2.9001 -10.5,4.2812 -3.575,1.3814 -9.5187,3.685 -13.188,5.125 -3.6688,1.4404 -7.2989,2.625 -8.0625,2.625 -0.76357,3e-4 -2.2449,0.6613 -3.3125,1.4688 -1.0676,0.8075 -2.7425,1.482 -3.7188,1.5 -0.97624,0.017 -4.1262,0.8797 -7,1.9375 -17.738,6.5293 -22.019,8.0965 -29.219,10.531 -9.0562,3.0626 -34.964,12.303 -38,13.562 -1.1,0.4564 -5.375,2.037 -9.5,3.5 -4.125,1.4635 -8.4,3.0338 -9.5,3.5 -2.2673,0.9619 -19.489,7.0297 -30,10.563 -3.85,1.2937 -12.175,4.2207 -18.5,6.5 -6.325,2.2789 -18.475,6.5742 -27,9.5624 -8.525,2.9887 -18.425,6.5037 -22,7.8126 -3.575,1.3083 -17.3,5.8694 -30.5,10.125 -13.2,4.2554 -24.562,7.9365 -25.25,8.1874 -0.78752,0.2878 -1.25,-0.4622 -1.25,-2.0312 0,-2.8687 0.55967,-3.1163 12.406,-5.6562 2.7081,-0.5808 5.6331,-1.6834 6.5,-2.4376 0.86694,-0.7539 3.2275,-1.6691 5.25,-2.0312 2.0225,-0.3621 3.8225,-0.9799 4,-1.375 0.54027,-1.2024 6.863,-4.2188 8.8438,-4.2188 1.023,0 2.1682,-0.4749 2.5312,-1.0624 0.3631,-0.5874 1.1888,-0.8765 1.8438,-0.625 0.65491,0.251 2.0492,-0.1735 3.0938,-0.9376 1.0446,-0.7636 2.9059,-1.375 4.125,-1.375 1.2191,0 4.3992,-1.0879 7.0625,-2.4062 5.686,-2.8145 11.212,-4.9548 20.844,-8.0938 3.85,-1.2545 7.9,-2.6123 9,-3 1.6078,-0.5665 1.7058,-0.4922 0.5,0.375 -2.5037,1.8013 -0.28852,1.2529 3.5,-0.875 1.9585,-1.0997 4.448,-2 5.5312,-2 1.0833,0 1.9688,-0.4603 1.9688,-1 0,-0.5392 1.2375,-1.2612 2.75,-1.625 1.5125,-0.3632 4.4195,-1.5049 6.4688,-2.5312 2.0492,-1.0264 4.0742,-1.7805 4.5,-1.6875 0.89028,0.195 5.9403,-1.6827 8.5,-3.1563 0.95504,-0.5495 2.6425,-1 3.75,-1 1.1075,0 2.0312,-0.4499 2.0312,-1 0,-0.5498 0.86996,-1 1.9375,-1 1.06754,0 2.2226,-0.4499 2.5625,-1 0.33992,-0.5498 1.6241,-1 2.875,-1 1.2509,0 2.5628,-0.2813 2.9062,-0.625 0.88933,-0.889 13.531,-5.3324 17.875,-6.2812 2.0084,-0.4387 5.6084,-1.8118 8,-3.0625 2.3916,-1.2507 6.5938,-2.919 9.3438,-3.6875 9.4044,-2.628 15.5,-4.7557 15.5,-5.4375 0,-0.3749 1.6875,-0.9975 3.75,-1.375 2.0625,-0.3776 5.55,-1.5123 7.75,-2.5313 9.2421,-4.2796 18.1,-7.8437 19.5,-7.8437 1.8303,0 8.6333,-2.4866 15.562,-5.6563 4.7367,-2.1664 12.534,-4.7463 14.938,-4.9374 1.0508,-0.084 6.2665,-2.0024 10.5,-3.875 1.375,-0.6085 3.2875,-1.7661 4.25,-2.5626 1.0546,-0.8725 1.75,-1.0042 1.75,-0.3437 0,0.6028 -0.47228,1.3735 -1.0312,1.7187 -0.55899,0.3457 -0.78271,1.0113 -0.5,1.4688 0.28271,0.4574 5.1425,-0.893 10.781,-3 15.482,-5.785 52.499,-19.222 89.75,-32.594 12.925,-4.6394 24.975,-9.1007 26.781,-9.9062 1.8062,-0.8055 3.8312,-1.4575 4.5,-1.4375 z" />
    </g>
    <path
       id="path5654"
       d="m 516.49,1075.6 c -0.16306,0.01 -0.30989,0.045 -0.4375,0.094 -1.3752,0.5276 -0.98979,1.2928 2.25,4.375 3.5652,3.3913 10.375,12.298 10.375,13.594 0,0.2929 -2.6672,2.3315 -5.9062,4.5313 -7.0355,4.7776 -14.085,12.602 -17.844,19.781 -0.1378,0.2632 -0.24563,0.4791 -0.375,0.7188 -0.57894,0.2773 -1.1692,0.5388 -1.75,0.8124 14.748,4.8373 19.781,7.2188 19.781,7.2188 l 20.875,-28.938 1.7188,-11.438 c -0.40866,0.4014 -0.75551,0.7783 -1.0625,1.125 -0.25986,0.2382 -0.51316,0.4534 -0.78125,0.7188 -0.77273,0.7644 -1.5716,1.6358 -2.4062,2.5312 -2.2053,-1.7551 -5.6149,-4.0887 -9.9062,-6.75 -2.8418,-1.7624 -7.0179,-4.4859 -9.25,-6.0625 -2.1783,-1.5386 -4.1399,-2.386 -5.2812,-2.3125 z"
       style="fill:#1a1a1a"
       inkscape:connector-curvature="0" />
    <path
       id="path5727"
       d="m 1426.8,1064 -0.062,0.062 h -0.5938 l -0.3124,1.0312 -1.25,1.375 c -1.2221,1.3641 -2.4594,3.7266 -2.75,5.25 -0.952,4.9842 -1.2087,7.0404 -2.3126,8.0938 l -7.5937,2.0625 c -1.0318,0.2389 -2.0059,0.5041 -2.75,0.75 -0.059,0.019 -0.1,0.043 -0.1563,0.062 -5.9877,1.0898 -6.6345,1.8157 -12.219,3.3437 h -0.062 c -0.013,0.01 -0.019,0.026 -0.031,0.031 l -1.8126,0.5 c -0.087,-0.065 -0.1559,-0.1095 -0.25,-0.1875 -2.5962,-2.1554 -16.138,-1.8689 -17.781,0.375 -1.1805,1.6118 -3.5695,1.7019 -31.656,1.25 -26.543,-0.4269 -262.49,-1.496 -331.16,-1.5 -20.99,0 -24.75,-0.235 -24.75,-1.4687 0,-3.2453 -14.284,-3.2437 -16.656,0 -0.16036,0.2193 -0.40053,0.4011 -0.78125,0.5625 v 0.5312 h -3.1562 c -3.8803,0.2903 -13.312,0.2414 -29.875,0 h -199.12 v -0.625 h -5.8125 c -20.956,0 -24.594,-0.2198 -24.594,-1.4687 0,-0.7361 -3.4135,-1.194 -13.781,-1.5 l 0.3125,2.0625 c 11.509,-0.3408 12.469,0.5104 12.469,4.9375 v 3.9687 h -6.8125 c -1.6276,0 -3.1123,-0.065 -4.4062,-0.2187 l 1.8125,12.219 320.37005,-1.125 2.4688,24.25 c 0.084,-0.019 0.2641,-0.045 0.375,-0.062 l 0.094,1.1563 c -0.1276,-0.055 -0.2758,-0.094 -0.375,-0.1563 l 0.8437,8.1875 c 0.479,-0.4329 0.9896,-0.8089 1.5625,-1.0625 2.1122,-0.935 42.923,-1.2207 178.41,-1.2187 159.23,0 175.92,0.1776 178.12,1.625 3.195,2.0931 10.208,2.1349 14.156,0.094 2.7005,-1.3966 7.5131,-1.6435 34.25,-1.6563 17.109,-0.01 31.35,-0.036 31.625,-0.094 6.7402,0.1803 13.588,0.055 18.781,0.125 0.3238,-4.1075 0.2157,-8.03 0.2187,-11.625 10e-5,-6.9772 0.3507,-9.2814 1.6563,-10.594 0.9162,-0.9216 1.8282,-1.5156 2.0312,-1.3125 0.7198,0.7198 1.2555,-5.9764 1,-12.781 -0.3315,-3.6438 0.063,-7.2708 0.3125,-10.906 -6.0259,5e-4 -11.28,0.1562 -17.375,0.1562 l -0.5937,-4.75 c -0.3267,-2.6124 -0.9176,-6.5499 -1.3126,-8.75 l -0.7187,-4 -0.3125,-0.031 -1,-6.125 -26.719,-0.5625 z"
       sodipodi:nodetypes="ccccccccccccccccscccccccccssccscsccccccccsccccccccccccccccccc"
       style="fill:url(#linearGradient5776)"
       inkscape:connector-curvature="0" />
    <path
       id="path5599"
       d="m 587.91,1081.6 c -12.919,0.5465 -26.218,-1.137 -38.867,1.9519 -11.709,8.0891 -18.473,22.225 -31.625,28.734 -17.275,9.8352 -35.75,17.385 -54.477,23.97 1.1341,7.2554 11.343,1.1132 16.432,2.2713 13.1,-0.6134 25.786,-4.1304 37.692,-9.5213 3.6458,10.896 7.2917,21.792 10.938,32.687 -6.5312,4.0625 -13.062,8.1251 -19.594,12.188 2.76,1.3905 4.8533,4.8901 7.8931,2.4149 10.698,-3.9182 21.196,-8.5233 32.019,-12.013 8.4057,-1.2643 16.644,-4.5462 25.234,-3.5921 20.087,0.678 40.174,1.3561 60.261,2.0341 18.782,-1.8656 37.751,-2.3019 56.562,-4.1875 6.8243,-0.7637 14.582,-0.49 20.969,-1.5625 0.87617,-2.4485 0.12414,-6.5251 0.375,-9.5989 0.0273,-21.619 -0.0515,-43.264 0.0312,-64.839 -41.246,-1.4572 -82.571,-0.7383 -123.84,-0.9373 z m 123.5,64.625 c 0.36669,4.4829 -0.2558,5.1692 0,0 z"
       style="fill:url(#linearGradient5882)"
       inkscape:connector-curvature="0" />
    <path
       id="path6023"
       d="m 525.01,1171 c 9.5809,-3.0784 19.506,-7.3725 19.485,-8.43 -0.0487,-2.4247 -1.7901,-2.9434 -7.5578,-2.2512 -6.743,0.8093 -10.427,2.3664 -10.427,4.4073 0,0.7416 -3.2625,2.6659 -7.25,4.2763 -5.6579,2.2849 -7.3221,3.4231 -7.5782,5.1826 -0.31461,2.1612 -0.211,2.1952 2.5,0.8201 1.5555,-0.789 6.4282,-2.5913 10.828,-4.0051 z"
       style="opacity:0.3;fill:#ffffff"
       inkscape:connector-curvature="0" />
    <path
       id="path5941"
       d="m 709.18,1143.7 0.57593,3.5141 c 0.31811,1.9398 0.33748,3.9258 0.0241,4.4079 -0.31341,0.4821 -2.953,1.1621 -5.8482,1.4915 -2.8952,0.3295 -7.3038,1.1759 -9.7961,1.9011 -5.974,1.7386 -33.65,3.4167 -58.596,3.5341 -11.004,0.052 -26.967,0.3602 -35.494,0.6874 -8.5269,0.3273 -21.128,0.2112 -28.001,-0.2663 -11.052,-0.7677 -13.203,-0.6504 -18.467,1.0774 -3.2741,1.0747 -6.053,1.9557 -6.2026,1.9523 -0.65176,-0.015 -3.3624,-3.3179 -3.345,-4.0777 0.0405,-1.7681 14.338,-2.9415 22.517,-1.8599 14.228,1.8815 34.033,1.4846 97.725,-1.8876 18.292,-0.9684 22.175,-1.9458 31.062,-7.7907 1.3964,-0.9185 5.0995,-1.9068 8.2085,-2.1876 l 5.6378,-0.496 z"
       style="opacity:0.37792999;fill:url(#linearGradient6079)"
       inkscape:connector-curvature="0" />
    <path
       id="path5911"
       d="m 701.62,1084.3 c 7.8974,-0.014 8.5696,1.1351 8.5696,5.0313 v 3.9687 h -6.6892 c -3.8346,0 -7.1959,-0.4824 -7.8606,-1.1562 -1.3943,-1.4135 -141.68,-1.2317 -144.3,0.1875 -0.40652,0.2205 -1.4693,1.4739 -2.836,3.25 l -2.5585,-2.125 c 1.855,0.4978 2.153,-0.6811 -0.0617,-1.9375 -1.3261,-0.7524 -1.1027,-1.3072 1.5413,-3.5625 l 3.1134,-2.6563 h 63.316 c 34.816,-0.01 69.559,-0.3091 77.218,-0.6562 4.4838,-0.2033 7.9099,-0.3393 10.542,-0.3438 z"
       style="opacity:0.37792999;fill:url(#linearGradient6071)"
       inkscape:connector-curvature="0" />
    <path
       id="path5576"
       style="fill:#000000"
       inkscape:connector-curvature="0"
       d="m 796.91,1317.8 c -0.0312,0.023 -0.004,0.1074 0.0312,0.1876 0.35873,0.1047 0.72973,0.2152 0.9375,0.25 -0.55941,-0.319 -0.88983,-0.4941 -0.96875,-0.4376 z" />
    <path
       id="path5532"
       d="m 958.22,1099.4 c 5.479,-0.062 23.733,0.522 8.9986,0.9999 -83.48,0.8273 -166.98,0.5661 -250.46,-0.2738 -9.8051,-0.1374 6.2574,-0.6596 -2.7644,-0.5074 -5.3737,-1.3597 -2.1243,5.8242 -2.9452,8.9753 0.14939,16.133 0.29877,32.266 0.44815,48.4 16.837,-0.5279 33.806,-0.4024 50.561,-1.053 7.9495,0.8953 15.431,-0.5726 24.283,-0.3844 67.47,-0.6302 134.93,-2.8708 202.39,-3.3839 10.311,-4.7186 23.89905,-0.2656 32.82905,-7.6083 2.8008,-4.5823 2.2693,-10.16 3.3125,-15.257 -0.2619,-1.9076 1.4264,-7.0703 1.3755,-10.563 -1.8007,1.5449 0.412,-2.602 -1.984,-5.5967 -2.1376,-3.0875 -1.3503,-10.31 -5.6722,-10.309 -6.8295,-0.6836 -20.83705,0.2789 -23.27505,-1.8221 7.54105,-1.1972 20.46505,1.5622 24.81905,0.4245 -1.0769,-3.908 -7.088,-0.8828 -10.255,-1.8538 -6.034,-0.02 -12.06805,-0.041 -18.10205,-0.061 -2.8918,2.6466 -9.443,-1.7579 -14.153,0.3098 -3.0298,-0.42 -7.3295,-0.4553 -11.214,-0.4056 -2.7317,-0.01 -5.4658,-0.018 -8.196,-0.03 z"
       style="fill:url(#linearGradient5750)"
       inkscape:connector-curvature="0" />
    <path
       id="path5530"
       style="fill:#803300"
       inkscape:connector-curvature="0"
       d="m 1020.1,1134.3 v 3.4063 c 0,2.0587 -0.5863,3.6303 -1.4688,3.9687 -0.8022,0.308 -6.8769,0.6314 -13.5,0.7188 l -11.969,0.1562 0.21875,-5.1874 c 0.765,-2.2488 3.3992,-2.5627 10.56195,-1.875 3.6676,0.3519 8.7937,0.2545 11.406,-0.25 l 4.75,-0.9376 z" />
    <path
       id="path5528"
       style="fill:#803300"
       inkscape:connector-curvature="0"
       d="m 944,1138.3 c 12.575,-0.052 23.853,0.1119 24.531,0.5312 0.586,0.3622 2.2996,0.5339 3.8125,0.375 2.5417,-0.2663 2.75,-0.023 2.75,3.2813 v 3.5937 h -31.25 c -17.188,0 -37.1,0.2779 -44.25,0.5938 l -13,0.5625 8,-3.75 c 6.6236,-3.0958 9.5484,-3.8469 17,-4.4063 5.9554,-0.4466 19.831,-0.7292 32.406,-0.7812 z" />
    <path
       id="path5570"
       d="m 1015.8,1099.5 c -0.625,0.015 -1.25,0.016 -1.875,0.031 -1.2733,0.1478 -2.5236,0.2753 -3.5625,0.094 -6.5842,0.1591 -13.166,0.3398 -19.75,0.5 -0.93284,0.3021 -2.0485,0.2461 -3.2812,0.062 -0.0208,6e-4 -0.0417,-5e-4 -0.0625,0 -61.122,1.4883 -122.26,3.0338 -183.38,4.6876 -30.919,0.8602 -61.829,1.8003 -92.75,2.6874 -0.0164,0.3499 -0.018,0.6778 -0.0937,0.9688 v 0.4688 c 30.461,-1.0296 60.906,-2.0553 91.375,-3.0313 71.522,-2.2029 143.06,-4.127 214.59,-5.9375 -0.4117,-0.1703 -0.8129,-0.3487 -1.2187,-0.5312 z m -237.66,1.0937 c -22.447,0.5137 -44.896,1.0348 -67.344,1.5313 -0.002,0.4358 0.0512,0.9265 0.0937,1.4062 37.65,-0.932 75.287,-1.8504 112.94,-2.75 -15.227,-0.046 -30.461,-0.092 -45.688,-0.1875 z m 244.31,7.1563 c -7.7069,0.2435 -15.418,0.4731 -23.125,0.7187 -90.171,2.81 -180.35,5.3589 -270.56,6.2813 -5.886,0.064 -11.77,0.1245 -17.656,0.1874 v 1.3438 c 5.3231,-0.073 10.645,-0.1387 15.969,-0.2188 90.252,-1.2351 180.47,-3.7437 270.69,-6.4062 8.337,-0.2504 16.663,-0.4751 25,-0.7188 -0.094,-0.4021 -0.2155,-0.7889 -0.3124,-1.1874 z m 3,10.187 c -23.249,0.5607 -46.5,1.1176 -69.75,1.6563 -81.495,1.9109 -163.01,3.7539 -244.5,5.5625 v 0.875 c 81.249,-2.0044 162.5,-3.9714 243.75,-5.875 23.515,-0.5581 47.016,-1.0895 70.531,-1.625 -0.01,-0.1646 -0.038,-0.3568 -0.031,-0.5938 z m -0.1563,7.5313 c -23.055,0.561 -46.101,1.1374 -69.156,1.6875 -81.62,1.9376 -163.25,3.8206 -244.88,5.625 v 1.4375 c 81.06,-2.0062 162.12,-3.9043 243.19,-5.7813 23.533,-0.5419 47.061,-1.062 70.594,-1.5937 0.071,-0.4282 0.1585,-0.8982 0.25,-1.375 z m -0.5625,4.5313 c -73.371,1.7619 -146.73,3.5461 -220.09,5.5312 -31.098,0.8653 -62.212,1.8217 -93.312,2.7188 v 1.4687 c 30.609,-1.0421 61.233,-2.1133 91.844,-3.0937 73.814,-2.2736 147.64,-4.2335 221.47,-6.0938 0.028,-0.1775 0.063,-0.3546 0.094,-0.5312 z m -2.125,12.375 c -7.4797,0.2351 -14.957,0.4491 -22.438,0.6874 -90.171,2.8101 -180.35,5.3589 -270.56,6.2813 -6.0584,0.066 -12.127,0.1211 -18.188,0.1875 v 1.375 c 5.4806,-0.08 10.956,-0.1675 16.438,-0.25 90.252,-1.2352 180.5,-3.7125 270.72,-6.375 7.8311,-0.2352 15.669,-0.4591 23.5,-0.6875 0.2052,-0.4047 0.3673,-0.8017 0.5312,-1.2187 z"
       style="opacity:0.75585004;fill:url(#linearGradient5744)"
       inkscape:connector-curvature="0" />
    <path
       id="path5778"
       d="m 971.36,1085.2 -0.70414,68.414 c 0,0 5.667,0.9427 8.5207,0.8639 3.0658,-0.085 9.0887,-1.4319 9.0887,-1.4319 l 1.8402,-67.278 c 0,0 -2.1911,-4.1602 -9.2248,-3.9527 -7.9121,0.2334 -9.5207,3.3846 -9.5207,3.3846 z"
       sodipodi:nodetypes="ccaccsc"
       style="fill:url(#linearGradient5786)"
       inkscape:connector-curvature="0" />
    <path
       id="path5788"
       sodipodi:nodetypes="ccaccsc"
       style="fill:url(#linearGradient5790)"
       inkscape:connector-curvature="0"
       d="m 1376.2,1086.4 1.2958,52.414 c 0,0 5.667,0.9427 8.5207,0.8639 3.0658,-0.085 9.0887,-1.4319 9.0887,-1.4319 l -0.1598,-51.278 c 0,0 -2.1911,-4.1602 -9.2248,-3.9527 -7.9121,0.2334 -9.5206,3.3846 -9.5206,3.3846 z" />
    <path
       id="path5792"
       sodipodi:nodetypes="ccaccsc"
       style="fill:url(#linearGradient5800)"
       inkscape:connector-curvature="0"
       d="m 971.36,1085.2 -0.70414,68.414 c 0,0 5.667,0.9427 8.5207,0.8639 3.0658,-0.085 9.0887,-1.4319 9.0887,-1.4319 l 1.8402,-67.278 c 0,0 -2.1911,-4.1602 -9.2248,-3.9527 -7.9121,0.2334 -9.5207,3.3846 -9.5207,3.3846 z" />
    <path
       id="path5888"
       style="fill:url(#linearGradient5900)"
       inkscape:connector-curvature="0"
       d="m 703.91,1082.3 1.7812,75.281 c 1.959,-0.1416 3.8626,-0.3238 5.6562,-0.625 0.87617,-2.4485 0.12414,-6.52 0.375,-9.5937 0.0273,-21.619 -0.0515,-43.269 0.0312,-64.844 -2.6143,-0.092 -5.2288,-0.1431 -7.8438,-0.2188 z m 7.5,63.906 c 0.36669,4.4829 -0.2558,5.1692 0,0 z" />
    <path
       id="path5999"
       style="opacity:0.4;fill:#ffffff"
       inkscape:connector-curvature="0"
       d="m 984.54,1151.6 c 1.2256,-0.9304 1.75,-2.7227 1.75,-5.9816 v -4.6532 l -3.6221,1.5134 c -1.9923,0.8324 -4.6657,1.5134 -5.9411,1.5134 -2.9776,0 -3.9751,1.6374 -2.273,3.7311 1.1572,1.4234 1.1018,1.5556 -0.4139,0.9876 -1.2818,-0.4804 -1.75,-0.1488 -1.75,1.2394 0,2.9743 8.9222,4.176 12.25,1.6499 z" />
    <path
       id="path5965"
       style="opacity:0.4;fill:#ffffff"
       inkscape:connector-curvature="0"
       d="m 988.09,1093.3 -0.2921,-7.7484 -4.2553,-0.8948 c -2.5539,-0.537 -5.5525,-0.524 -7.5,0.033 -3.232,0.9237 -3.2459,0.9556 -3.5377,8.1011 l -0.293,7.1738 4.9108,-0.5816 c 2.8478,-0.3373 5.7015,-0.1223 6.793,0.5116 4.0014,2.3242 4.4818,1.5652 4.1743,-6.5943 z" />
    <path
       id="path5993"
       style="opacity:0.4;fill:#ffffff"
       inkscape:connector-curvature="0"
       d="m 1390.6,1136.3 c 3.1301,-0.9378 3.866,-1.6278 3.866,-3.625 0,-2.2294 -0.3007,-2.4066 -3.125,-1.8417 -1.7187,0.3437 -5.575,0.625 -8.5696,0.625 -5.046,0 -5.4211,0.1617 -5.125,2.209 0.497,3.4357 6.322,4.6195 12.954,2.6327 z" />
    <path
       id="path5961"
       style="opacity:0.4;fill:#ffffff"
       inkscape:connector-curvature="0"
       d="m 1388.8,1092 c 3.9058,0.5142 4.8607,0.3249 5.3957,-1.0694 1.1726,-3.0557 -7.2853,-6.1558 -12.872,-4.7182 -2.7116,0.6977 -3.3215,1.3763 -3.5782,3.9807 -0.3071,3.1154 -0.2838,3.1321 3,2.1609 1.8202,-0.5384 5.4449,-0.6977 8.055,-0.354 z" />
    <rect
       id="rect6081"
       style="fill:url(#radialGradient6089)"
       ry="3.6875999"
       height="20.450001"
       width="53.396"
       y="1096.6"
       x="631.66998" />
  </g>
  <metadata
     id="metadata80">
    <rdf:RDF>
      <cc:Work>
        <dc:format>image/svg+xml</dc:format>
        <dc:type
           rdf:resource="http://purl.org/dc/dcmitype/StillImage" />
        <cc:license
           rdf:resource="http://creativecommons.org/publicdomain/zero/1.0/" />
        <dc:publisher>
          <cc:Agent
             rdf:about="http://openclipart.org/">
            <dc:title>OpenClipart Library</dc:title>
          </cc:Agent>
        </dc:publisher>
        <dc:title>Winchester 30-30</dc:title>
        <dc:date>2011-04-22T14:32:59</dc:date>
        <dc:description />
        <dc:source>https://openclipart.org/detail/133585/winchester-by-gnokii</dc:source>
        <dc:creator>
          <cc:Agent>
            <dc:title>gnokii</dc:title>
          </cc:Agent>
        </dc:creator>
        <dc:subject>
          <rdf:Bag>
            <rdf:li>country</rdf:li>
            <rdf:li>cowboy</rdf:li>
            <rdf:li>gun</rdf:li>
            <rdf:li>rifle</rdf:li>
            <rdf:li>weapon</rdf:li>
            <rdf:li>western</rdf:li>
            <rdf:li>winchester</rdf:li>
          </rdf:Bag>
        </dc:subject>
      </cc:Work>
      <cc:License
         rdf:about="http://creativecommons.org/publicdomain/zero/1.0/">
        <cc:permits
           rdf:resource="http://creativecommons.org/ns#Reproduction" />
        <cc:permits
           rdf:resource="http://creativecommons.org/ns#Distribution" />
        <cc:permits
           rdf:resource="http://creativecommons.org/ns#DerivativeWorks" />
      </cc:License>
    </rdf:RDF>
  </metadata>
</svg>
