<?xml version="1.0" encoding="UTF-8" standalone="no"?>
<svg
   xmlns:dc="http://purl.org/dc/elements/1.1/"
   xmlns:cc="http://creativecommons.org/ns#"
   xmlns:rdf="http://www.w3.org/1999/02/22-rdf-syntax-ns#"
   xmlns:svg="http://www.w3.org/2000/svg"
   xmlns="http://www.w3.org/2000/svg"
   xmlns:sodipodi="http://sodipodi.sourceforge.net/DTD/sodipodi-0.dtd"
   xmlns:inkscape="http://www.inkscape.org/namespaces/inkscape"
   version="1.1"
   x="0"
   y="0"
   width="1198.786"
   height="703.434"
   viewBox="0, 0, 1198.786, 703.434"
   id="svg515"
   sodipodi:docname="sushi_03_nigiri_ebi.svg"
   inkscape:version="0.92.4 (5da689c313, 2019-01-14)">
  <title
     id="title1326">Shrimp Nigiri Sushi</title>
  <metadata
     id="metadata519">
    <rdf:RDF>
      <cc:Work
         rdf:about="">
        <dc:format>image/svg+xml</dc:format>
        <dc:type
           rdf:resource="http://purl.org/dc/dcmitype/StillImage" />
        <dc:title>Shrimp Nigiri Sushi</dc:title>
        <cc:license
           rdf:resource="http://creativecommons.org/publicdomain/zero/1.0/" />
        <dc:creator>
          <cc:Agent>
            <dc:title>oksmith</dc:title>
          </cc:Agent>
        </dc:creator>
        <dc:source>https://openclipart.org/detail/320158</dc:source>
      </cc:Work>
      <cc:License
         rdf:about="http://creativecommons.org/publicdomain/zero/1.0/">
        <cc:permits
           rdf:resource="http://creativecommons.org/ns#Reproduction" />
        <cc:permits
           rdf:resource="http://creativecommons.org/ns#Distribution" />
        <cc:permits
           rdf:resource="http://creativecommons.org/ns#DerivativeWorks" />
      </cc:License>
    </rdf:RDF>
  </metadata>
  <sodipodi:namedview
     pagecolor="#ffffff"
     bordercolor="#666666"
     borderopacity="1"
     objecttolerance="10"
     gridtolerance="10"
     guidetolerance="10"
     inkscape:pageopacity="0"
     inkscape:pageshadow="2"
     inkscape:window-width="1920"
     inkscape:window-height="1025"
     id="namedview517"
     showgrid="false"
     inkscape:zoom="1.0143595"
     inkscape:cx="290.85449"
     inkscape:cy="285.97893"
     inkscape:window-x="-8"
     inkscape:window-y="-8"
     inkscape:window-maximized="1"
     inkscape:current-layer="Shrimp" />
  <defs
     id="defs326">
    <linearGradient
       id="Gradient_1"
       gradientUnits="userSpaceOnUse"
       x1="12316.9"
       y1="9886.52"
       x2="16264.7"
       y2="9886.52"
       gradientTransform="matrix(0.072,0,0,0.072,-592.087,-490.172)">
      <stop
         offset="0"
         stop-color="#7093A4"
         id="stop2" />
      <stop
         offset="0.039"
         stop-color="#7093A4"
         id="stop4" />
      <stop
         offset="0.341"
         stop-color="#7498A9"
         id="stop6" />
      <stop
         offset="1"
         stop-color="#799DAF"
         id="stop8" />
      <stop
         offset="1"
         stop-color="#799DAF"
         id="stop10" />
    </linearGradient>
    <linearGradient
       id="Gradient_2"
       gradientUnits="userSpaceOnUse"
       x1="10937.5"
       y1="8475.239"
       x2="10878.7"
       y2="9788.41"
       gradientTransform="matrix(0.072,0,0,0.072,-592.087,-490.172)">
      <stop
         offset="0"
         stop-color="#FBBB78"
         id="stop13" />
      <stop
         offset="0.102"
         stop-color="#FBB66A"
         id="stop15" />
      <stop
         offset="0.569"
         stop-color="#FBB159"
         id="stop17" />
      <stop
         offset="1"
         stop-color="#C9842E"
         id="stop19" />
    </linearGradient>
    <linearGradient
       id="Gradient_3"
       gradientUnits="userSpaceOnUse"
       x1="11790.7"
       y1="8210.891"
       x2="11617.5"
       y2="9764.99"
       gradientTransform="matrix(0.072,0,0,0.072,-592.087,-490.172)">
      <stop
         offset="0"
         stop-color="#FBBB78"
         id="stop22" />
      <stop
         offset="0.102"
         stop-color="#FBB66A"
         id="stop24" />
      <stop
         offset="0.569"
         stop-color="#FBB159"
         id="stop26" />
      <stop
         offset="1"
         stop-color="#C9842E"
         id="stop28" />
    </linearGradient>
    <linearGradient
       id="Gradient_4"
       gradientUnits="userSpaceOnUse"
       x1="9357.391"
       y1="10142.8"
       x2="12957.7"
       y2="10521.2"
       gradientTransform="matrix(0.072,0,0,0.072,-592.087,-490.172)">
      <stop
         offset="0"
         stop-color="#000000"
         id="stop31" />
      <stop
         offset="0.361"
         stop-color="#000000"
         id="stop33" />
      <stop
         offset="0.62"
         stop-color="#515151"
         id="stop35" />
      <stop
         offset="0.678"
         stop-color="#909090"
         id="stop37" />
      <stop
         offset="0.761"
         stop-color="#515151"
         id="stop39" />
      <stop
         offset="1"
         stop-color="#000000"
         id="stop41" />
    </linearGradient>
    <linearGradient
       id="Gradient_5"
       gradientUnits="userSpaceOnUse"
       x1="19242.5"
       y1="12262.8"
       x2="18446.201"
       y2="13096.101"
       gradientTransform="matrix(0.072,0,0,0.072,-592.087,-490.172)">
      <stop
         offset="0"
         stop-color="#D5443A"
         id="stop44" />
      <stop
         offset="0.651"
         stop-color="#E79B80"
         id="stop46" />
      <stop
         offset="0.871"
         stop-color="#FFFFFF"
         id="stop48" />
      <stop
         offset="1"
         stop-color="#FFFFFF"
         id="stop50" />
    </linearGradient>
    <linearGradient
       id="Gradient_6"
       gradientUnits="userSpaceOnUse"
       x1="19065.9"
       y1="12522"
       x2="18359.301"
       y2="13301.102"
       gradientTransform="matrix(0.072,0,0,0.072,-592.087,-490.172)">
      <stop
         offset="0"
         stop-color="#D5443A"
         id="stop53" />
      <stop
         offset="0.651"
         stop-color="#E79B80"
         id="stop55" />
      <stop
         offset="0.871"
         stop-color="#FFFFFF"
         id="stop57" />
      <stop
         offset="1"
         stop-color="#FFFFFF"
         id="stop59" />
    </linearGradient>
    <linearGradient
       id="Gradient_7"
       gradientUnits="userSpaceOnUse"
       x1="19036.301"
       y1="12359.5"
       x2="18329.701"
       y2="13138.7"
       gradientTransform="matrix(0.072,0,0,0.072,-592.087,-490.172)">
      <stop
         offset="0"
         stop-color="#D5443A"
         id="stop62" />
      <stop
         offset="0.651"
         stop-color="#E79B80"
         id="stop64" />
      <stop
         offset="0.871"
         stop-color="#FFFFFF"
         id="stop66" />
      <stop
         offset="1"
         stop-color="#FFFFFF"
         id="stop68" />
    </linearGradient>
    <linearGradient
       id="Gradient_8"
       gradientUnits="userSpaceOnUse"
       x1="18111.799"
       y1="11442"
       x2="13042.8"
       y2="11442"
       gradientTransform="matrix(0.072,0,0,0.072,-592.087,-490.172)">
      <stop
         offset="0"
         stop-color="#F16244"
         id="stop71" />
      <stop
         offset="0.29"
         stop-color="#F8AB8E"
         id="stop73" />
      <stop
         offset="0.388"
         stop-color="#FFFFFF"
         id="stop75" />
      <stop
         offset="1"
         stop-color="#FFFFFF"
         id="stop77" />
    </linearGradient>
    <linearGradient
       id="Gradient_9"
       gradientUnits="userSpaceOnUse"
       x1="15904.9"
       y1="11481"
       x2="14595.701"
       y2="11154.601"
       gradientTransform="matrix(0.072,0,0,0.072,-592.087,-490.172)">
      <stop
         offset="0"
         stop-color="#F16244"
         id="stop80" />
      <stop
         offset="0.122"
         stop-color="#F16244"
         id="stop82" />
      <stop
         offset="0.231"
         stop-color="#F26D4A"
         id="stop84" />
      <stop
         offset="0.322"
         stop-color="#F37952"
         id="stop86" />
      <stop
         offset="0.722"
         stop-color="#FAB799"
         id="stop88" />
      <stop
         offset="1"
         stop-color="#FFFFFF"
         id="stop90" />
    </linearGradient>
    <linearGradient
       id="Gradient_10"
       gradientUnits="userSpaceOnUse"
       x1="15149.699"
       y1="11268.399"
       x2="13869.6"
       y2="10949.3"
       gradientTransform="matrix(0.072,0,0,0.072,-592.087,-490.172)">
      <stop
         offset="0"
         stop-color="#F16244"
         id="stop93" />
      <stop
         offset="0.122"
         stop-color="#F16244"
         id="stop95" />
      <stop
         offset="0.231"
         stop-color="#F26D4A"
         id="stop97" />
      <stop
         offset="0.322"
         stop-color="#F37952"
         id="stop99" />
      <stop
         offset="0.722"
         stop-color="#FAB799"
         id="stop101" />
      <stop
         offset="1"
         stop-color="#FFFFFF"
         id="stop103" />
    </linearGradient>
    <linearGradient
       id="Gradient_11"
       gradientUnits="userSpaceOnUse"
       x1="14480.4"
       y1="11049"
       x2="13114.2"
       y2="10708.4"
       gradientTransform="matrix(0.072,0,0,0.072,-592.087,-490.172)">
      <stop
         offset="0"
         stop-color="#F16244"
         id="stop106" />
      <stop
         offset="0.122"
         stop-color="#F16244"
         id="stop108" />
      <stop
         offset="0.231"
         stop-color="#F26D4A"
         id="stop110" />
      <stop
         offset="0.322"
         stop-color="#F37952"
         id="stop112" />
      <stop
         offset="0.722"
         stop-color="#FAB799"
         id="stop114" />
      <stop
         offset="1"
         stop-color="#FFFFFF"
         id="stop116" />
    </linearGradient>
    <linearGradient
       id="Gradient_12"
       gradientUnits="userSpaceOnUse"
       x1="16569"
       y1="11681.5"
       x2="15266.199"
       y2="11356.7"
       gradientTransform="matrix(0.072,0,0,0.072,-592.087,-490.172)">
      <stop
         offset="0"
         stop-color="#F16244"
         id="stop119" />
      <stop
         offset="0.122"
         stop-color="#F16244"
         id="stop121" />
      <stop
         offset="0.231"
         stop-color="#F26D4A"
         id="stop123" />
      <stop
         offset="0.322"
         stop-color="#F37952"
         id="stop125" />
      <stop
         offset="0.722"
         stop-color="#FAB799"
         id="stop127" />
      <stop
         offset="1"
         stop-color="#FFFFFF"
         id="stop129" />
    </linearGradient>
    <linearGradient
       id="Gradient_13"
       gradientUnits="userSpaceOnUse"
       x1="17384.102"
       y1="11934.801"
       x2="15977.101"
       y2="11583.9"
       gradientTransform="matrix(0.072,0,0,0.072,-592.087,-490.172)">
      <stop
         offset="0"
         stop-color="#F16244"
         id="stop132" />
      <stop
         offset="0.122"
         stop-color="#F16244"
         id="stop134" />
      <stop
         offset="0.231"
         stop-color="#F26D4A"
         id="stop136" />
      <stop
         offset="0.322"
         stop-color="#F37952"
         id="stop138" />
      <stop
         offset="0.722"
         stop-color="#FAB799"
         id="stop140" />
      <stop
         offset="1"
         stop-color="#FFFFFF"
         id="stop142" />
    </linearGradient>
    <linearGradient
       id="Gradient_14"
       gradientUnits="userSpaceOnUse"
       x1="18037.301"
       y1="11719.399"
       x2="17271.4"
       y2="12433.699"
       gradientTransform="matrix(0.072,0,0,0.072,-592.087,-490.172)">
      <stop
         offset="0"
         stop-color="#D5443A"
         id="stop145" />
      <stop
         offset="0.651"
         stop-color="#E79B80"
         id="stop147" />
      <stop
         offset="0.871"
         stop-color="#FFFFFF"
         id="stop149" />
      <stop
         offset="1"
         stop-color="#FFFFFF"
         id="stop151" />
    </linearGradient>
    <linearGradient
       id="Gradient_15"
       gradientUnits="userSpaceOnUse"
       x1="17783.6"
       y1="11893.3"
       x2="17325.6"
       y2="12454.5"
       gradientTransform="matrix(0.072,0,0,0.072,-592.087,-490.172)">
      <stop
         offset="0"
         stop-color="#D5443A"
         id="stop154" />
      <stop
         offset="0.651"
         stop-color="#E79B80"
         id="stop156" />
      <stop
         offset="0.871"
         stop-color="#FFFFFF"
         id="stop158" />
      <stop
         offset="1"
         stop-color="#FFFFFF"
         id="stop160" />
    </linearGradient>
    <linearGradient
       id="Gradient_16"
       gradientUnits="userSpaceOnUse"
       x1="17598.199"
       y1="12587.2"
       x2="17658.199"
       y2="12397.8"
       gradientTransform="matrix(0.072,0,0,0.072,-592.087,-490.172)">
      <stop
         offset="0"
         stop-color="#D5443A"
         id="stop163" />
      <stop
         offset="0.651"
         stop-color="#E79B80"
         id="stop165" />
      <stop
         offset="0.871"
         stop-color="#FFFFFF"
         id="stop167" />
      <stop
         offset="1"
         stop-color="#FFFFFF"
         id="stop169" />
    </linearGradient>
    <linearGradient
       id="Gradient_17"
       gradientUnits="userSpaceOnUse"
       x1="12385.898"
       y1="12509.4"
       x2="12385.898"
       y2="10046.7"
       gradientTransform="matrix(0.072,0,0,0.072,-592.087,-490.172)">
      <stop
         offset="0"
         stop-color="#008C54"
         id="stop172" />
      <stop
         offset="0.271"
         stop-color="#355E4B"
         id="stop174" />
      <stop
         offset="0.31"
         stop-color="#355E4B"
         id="stop176" />
      <stop
         offset="0.671"
         stop-color="#00A859"
         id="stop178" />
      <stop
         offset="0.71"
         stop-color="#00A859"
         id="stop180" />
      <stop
         offset="0.969"
         stop-color="#49B753"
         id="stop182" />
      <stop
         offset="1"
         stop-color="#49B753"
         id="stop184" />
    </linearGradient>
    <radialGradient
       id="Gradient_18"
       gradientUnits="userSpaceOnUse"
       cx="12195.3"
       cy="11085.6"
       r="163.803"
       gradientTransform="matrix(0.072,0,0,0.072,-592.087,-490.172)">
      <stop
         offset="0"
         stop-color="#FEFEFE"
         id="stop187" />
      <stop
         offset="0.188"
         stop-color="#F7AB9A"
         id="stop189" />
      <stop
         offset="1"
         stop-color="#F05936"
         id="stop191" />
    </radialGradient>
    <radialGradient
       id="Gradient_19"
       gradientUnits="userSpaceOnUse"
       cx="11801"
       cy="11206.9"
       r="163.803"
       gradientTransform="matrix(0.072,0,0,0.072,-592.087,-490.172)">
      <stop
         offset="0"
         stop-color="#FEFEFE"
         id="stop194" />
      <stop
         offset="0.188"
         stop-color="#F7AB9A"
         id="stop196" />
      <stop
         offset="1"
         stop-color="#F05936"
         id="stop198" />
    </radialGradient>
    <radialGradient
       id="Gradient_20"
       gradientUnits="userSpaceOnUse"
       cx="12660.5"
       cy="10984.5"
       r="163.803"
       gradientTransform="matrix(0.072,0,0,0.072,-592.087,-490.172)">
      <stop
         offset="0"
         stop-color="#FEFEFE"
         id="stop201" />
      <stop
         offset="0.188"
         stop-color="#F7AB9A"
         id="stop203" />
      <stop
         offset="1"
         stop-color="#F05936"
         id="stop205" />
    </radialGradient>
    <radialGradient
       id="Gradient_21"
       gradientUnits="userSpaceOnUse"
       cx="13085.1"
       cy="11085.6"
       r="163.803"
       gradientTransform="matrix(0.072,0,0,0.072,-592.087,-490.172)">
      <stop
         offset="0"
         stop-color="#FEFEFE"
         id="stop208" />
      <stop
         offset="0.188"
         stop-color="#F7AB9A"
         id="stop210" />
      <stop
         offset="1"
         stop-color="#F05936"
         id="stop212" />
    </radialGradient>
    <radialGradient
       id="Gradient_22"
       gradientUnits="userSpaceOnUse"
       cx="13529.9"
       cy="11308"
       r="163.823"
       gradientTransform="matrix(0.072,0,0,0.072,-592.087,-490.172)">
      <stop
         offset="0"
         stop-color="#FEFEFE"
         id="stop215" />
      <stop
         offset="0.188"
         stop-color="#F7AB9A"
         id="stop217" />
      <stop
         offset="1"
         stop-color="#F05936"
         id="stop219" />
    </radialGradient>
    <radialGradient
       id="Gradient_23"
       gradientUnits="userSpaceOnUse"
       cx="13893.9"
       cy="11409.1"
       r="163.783"
       gradientTransform="matrix(0.072,0,0,0.072,-592.087,-490.172)">
      <stop
         offset="0"
         stop-color="#FEFEFE"
         id="stop222" />
      <stop
         offset="0.188"
         stop-color="#F7AB9A"
         id="stop224" />
      <stop
         offset="1"
         stop-color="#F05936"
         id="stop226" />
    </radialGradient>
    <radialGradient
       id="Gradient_24"
       gradientUnits="userSpaceOnUse"
       cx="14257.9"
       cy="11631.6"
       r="163.791"
       gradientTransform="matrix(0.072,0,0,0.072,-592.087,-490.172)">
      <stop
         offset="0"
         stop-color="#FEFEFE"
         id="stop229" />
      <stop
         offset="0.188"
         stop-color="#F7AB9A"
         id="stop231" />
      <stop
         offset="1"
         stop-color="#F05936"
         id="stop233" />
    </radialGradient>
    <radialGradient
       id="Gradient_25"
       gradientUnits="userSpaceOnUse"
       cx="14480.401"
       cy="11854"
       r="163.791"
       gradientTransform="matrix(0.072,0,0,0.072,-592.087,-490.172)">
      <stop
         offset="0"
         stop-color="#FEFEFE"
         id="stop236" />
      <stop
         offset="0.188"
         stop-color="#F7AB9A"
         id="stop238" />
      <stop
         offset="1"
         stop-color="#F05936"
         id="stop240" />
    </radialGradient>
    <radialGradient
       id="Gradient_26"
       gradientUnits="userSpaceOnUse"
       cx="14035.5"
       cy="11975.3"
       r="163.819"
       gradientTransform="matrix(0.072,0,0,0.072,-592.087,-490.172)">
      <stop
         offset="0"
         stop-color="#FEFEFE"
         id="stop243" />
      <stop
         offset="0.188"
         stop-color="#F7AB9A"
         id="stop245" />
      <stop
         offset="1"
         stop-color="#F05936"
         id="stop247" />
    </radialGradient>
    <radialGradient
       id="Gradient_27"
       gradientUnits="userSpaceOnUse"
       cx="13636.2"
       cy="11721.4"
       r="166.213"
       gradientTransform="matrix(0.072,0,0,0.072,-592.087,-490.172)">
      <stop
         offset="0"
         stop-color="#FEFEFE"
         id="stop250" />
      <stop
         offset="0.188"
         stop-color="#F7AB9A"
         id="stop252" />
      <stop
         offset="1"
         stop-color="#F05936"
         id="stop254" />
    </radialGradient>
    <radialGradient
       id="Gradient_28"
       gradientUnits="userSpaceOnUse"
       cx="13236.7"
       cy="11520.3"
       r="163.803"
       gradientTransform="matrix(0.072,0,0,0.072,-592.087,-490.172)">
      <stop
         offset="0"
         stop-color="#FEFEFE"
         id="stop257" />
      <stop
         offset="0.188"
         stop-color="#F7AB9A"
         id="stop259" />
      <stop
         offset="1"
         stop-color="#F05936"
         id="stop261" />
    </radialGradient>
    <radialGradient
       id="Gradient_29"
       gradientUnits="userSpaceOnUse"
       cx="12791.8"
       cy="11399"
       r="163.819"
       gradientTransform="matrix(0.072,0,0,0.072,-592.087,-490.172)">
      <stop
         offset="0"
         stop-color="#FEFEFE"
         id="stop264" />
      <stop
         offset="0.188"
         stop-color="#F7AB9A"
         id="stop266" />
      <stop
         offset="1"
         stop-color="#F05936"
         id="stop268" />
    </radialGradient>
    <radialGradient
       id="Gradient_30"
       gradientUnits="userSpaceOnUse"
       cx="12262.1"
       cy="11355.5"
       r="168.28"
       gradientTransform="matrix(0.072,0,0,0.072,-592.087,-490.172)">
      <stop
         offset="0"
         stop-color="#FEFEFE"
         id="stop271" />
      <stop
         offset="0.188"
         stop-color="#F7AB9A"
         id="stop273" />
      <stop
         offset="1"
         stop-color="#F05936"
         id="stop275" />
    </radialGradient>
    <radialGradient
       id="Gradient_31"
       gradientUnits="userSpaceOnUse"
       cx="11918.3"
       cy="11476.9"
       r="168.28"
       gradientTransform="matrix(0.072,0,0,0.072,-592.087,-490.172)">
      <stop
         offset="0"
         stop-color="#FEFEFE"
         id="stop278" />
      <stop
         offset="0.188"
         stop-color="#F7AB9A"
         id="stop280" />
      <stop
         offset="1"
         stop-color="#F05936"
         id="stop282" />
    </radialGradient>
    <radialGradient
       id="Gradient_32"
       gradientUnits="userSpaceOnUse"
       cx="12343"
       cy="11719.6"
       r="168.28"
       gradientTransform="matrix(0.072,0,0,0.072,-592.087,-490.172)">
      <stop
         offset="0"
         stop-color="#FEFEFE"
         id="stop285" />
      <stop
         offset="0.188"
         stop-color="#F7AB9A"
         id="stop287" />
      <stop
         offset="1"
         stop-color="#F05936"
         id="stop289" />
    </radialGradient>
    <radialGradient
       id="Gradient_33"
       gradientUnits="userSpaceOnUse"
       cx="12767.6"
       cy="11780.2"
       r="168.291"
       gradientTransform="matrix(0.072,0,0,0.072,-592.087,-490.172)">
      <stop
         offset="0"
         stop-color="#FEFEFE"
         id="stop292" />
      <stop
         offset="0.188"
         stop-color="#F7AB9A"
         id="stop294" />
      <stop
         offset="1"
         stop-color="#F05936"
         id="stop296" />
    </radialGradient>
    <radialGradient
       id="Gradient_34"
       gradientUnits="userSpaceOnUse"
       cx="13192.3"
       cy="11921.8"
       r="168.283"
       gradientTransform="matrix(0.072,0,0,0.072,-592.087,-490.172)">
      <stop
         offset="0"
         stop-color="#FEFEFE"
         id="stop299" />
      <stop
         offset="0.188"
         stop-color="#F7AB9A"
         id="stop301" />
      <stop
         offset="1"
         stop-color="#F05936"
         id="stop303" />
    </radialGradient>
    <radialGradient
       id="Gradient_35"
       gradientUnits="userSpaceOnUse"
       cx="13616.9"
       cy="12002.7"
       r="168.295"
       gradientTransform="matrix(0.072,0,0,0.072,-592.087,-490.172)">
      <stop
         offset="0"
         stop-color="#FEFEFE"
         id="stop306" />
      <stop
         offset="0.188"
         stop-color="#F7AB9A"
         id="stop308" />
      <stop
         offset="1"
         stop-color="#F05936"
         id="stop310" />
    </radialGradient>
    <linearGradient
       id="Gradient_36"
       gradientUnits="userSpaceOnUse"
       x1="11145.5"
       y1="12594.389"
       x2="14745.9"
       y2="12972.789"
       gradientTransform="matrix(0.072,0,0,0.072,-592.087,-490.172)">
      <stop
         offset="0"
         stop-color="#000000"
         id="stop313" />
      <stop
         offset="0.361"
         stop-color="#000000"
         id="stop315" />
      <stop
         offset="0.62"
         stop-color="#515151"
         id="stop317" />
      <stop
         offset="0.678"
         stop-color="#909090"
         id="stop319" />
      <stop
         offset="0.761"
         stop-color="#515151"
         id="stop321" />
      <stop
         offset="1"
         stop-color="#000000"
         id="stop323" />
    </linearGradient>
  </defs>
  <g
     id="Shrimp"
     inkscape:label="sushi">
    <g
       id="g63644"
       style="display:inline"
       inkscape:label="rice">
      <path
         style="fill:#fefefe"
         inkscape:connector-curvature="0"
         id="path63640"
         d="m 376.682,293.901 c -0.648,3.312 -0.072,6.048 -0.432,9.144 -0.36,3.312 -1.44,6.408 -1.512,9.504 -0.072,3.384 -3.672,6.84 -3.384,9.936 0.288,3.312 5.544,5.832 6.264,8.928 0.72,3.24 1.368,6.12 2.52,9.072 1.152,3.024 0.36,6.84 1.944,9.648 1.584,2.808 3.816,5.256 5.76,7.848 1.944,2.52 3.456,5.544 5.688,7.92 2.16,2.304 4.68,4.464 7.2,6.624 2.376,2.088 7.056,1.368 9.72,3.312 2.52,1.872 4.248,4.896 6.984,6.696 2.592,1.728 4.176,5.328 6.984,7.127 2.664,1.656 5.832,2.664 8.784,4.32 2.592,1.44 5.544,2.736 8.568,4.248 2.736,1.368 6.624,0.504 9.648,1.944 2.808,1.296 3.817,6.768 6.841,8.064 2.88,1.224 5.904,2.304 8.928,3.528 2.88,1.224 5.832,2.376 8.856,3.6 2.952,1.152 6.336,1.152 9.36,2.304 2.952,1.152 6.408,1.008 9.432,2.088 2.952,1.08 5.04,4.896 8.064,5.904 3.024,1.08 5.832,2.664 8.856,3.672 3.024,1.008 6.624,0.288 9.648,1.224 3.024,1.008 6.264,1.44 9.288,2.376 3.096,0.936 6.768,-0.504 9.864,0.36 3.096,0.864 6.12,1.728 9.144,2.592 3.096,0.864 6.336,1.08 9.36,1.872 3.168,0.792 6.12,1.872 9.145,2.592 3.168,0.72 5.76,3.672 8.784,4.32 3.168,0.648 6.048,2.736 9.144,3.312 3.24,0.576 6.84,-1.512 9.864,-1.08 3.312,0.504 6.12,3.672 9.144,3.96 3.528,0.36 7.056,-3.168 10.44,-3.312 3.528,-0.144 7.2,2.304 10.512,1.656 3.384,-0.72 6.12,-3.672 9.288,-4.896 3.24,-1.224 6.84,-1.44 9.864,-3.168 2.952,-1.656 6.264,-3.024 9.072,-5.184 2.736,-2.016 5.544,-4.176 8.064,-6.624 2.448,-2.304 3.168,-6.408 5.472,-9.072 2.233,-2.52 4.681,-4.896 6.841,-7.704 1.944,-2.448 3.744,-4.896 5.04,-7.92 1.224,-2.88 5.256,-5.184 5.904,-8.352 0.648,-3.096 0.288,-6.696 0.504,-9.935 0.216,-3.168 -4.248,-6.408 -4.392,-9.576 -0.144,-3.24 4.824,-6.984 4.392,-10.008 -0.504,-3.312 -2.88,-6.408 -3.744,-9.216 -1.08,-3.312 -3.888,-5.76 -5.256,-8.64 -1.512,-3.096 -3.24,-5.76 -5.113,-8.352 -1.943,-2.808 -1.584,-7.56 -3.816,-9.864 -2.304,-2.376 -5.04,-4.968 -7.632,-6.912 -2.664,-1.944 -6.84,-2.016 -9.72,-3.6 -2.88,-1.584 -6.192,-2.448 -9.288,-3.672 -3.024,-1.224 -6.696,-0.576 -9.864,-1.512 -3.096,-0.936 -5.976,-2.808 -9.216,-3.528 -3.168,-0.72 -6.336,-1.728 -9.648,-2.304 -3.24,-0.576 -6.552,-0.504 -9.864,-1.008 -3.24,-0.504 -6.048,-4.176 -9.36,-4.608 -3.24,-0.432 -6.624,-0.072 -9.936,-0.576 -3.312,-0.432 -6.912,1.44 -10.152,1.008 -3.312,-0.504 -6.768,-0.144 -10.009,-0.72 -3.167,-0.576 -5.688,-4.32 -8.856,-5.04 -3.096,-0.72 -5.904,-2.592 -9.072,-3.456 -3.096,-0.864 -6.984,1.08 -10.08,0.144 -3.096,-0.936 -6.552,-0.72 -9.648,-1.728 -3.096,-1.008 -5.184,-5.04 -8.28,-6.048 -3.096,-1.008 -6.912,0.36 -10.008,-0.648 -3.096,-1.008 -5.328,-4.608 -8.424,-5.616 -3.096,-1.008 -6.696,-0.432 -9.72,-1.368 -3.096,-0.936 -6.264,-1.656 -9.36,-2.52 -3.168,-0.864 -6.912,1.08 -10.08,0.36 -3.168,-0.792 -5.472,-5.328 -8.64,-5.904 -3.168,-0.648 -6.624,0.073 -9.792,-0.359 -3.241,-0.432 -6.337,-2.305 -9.577,-2.521 -3.24,-0.215 -6.552,2.089 -9.792,2.161 -3.24,0.071 -6.408,-0.072 -9.648,0.36 -3.168,0.359 -6.84,-1.297 -10.008,-0.576 -3.096,0.719 -5.688,3.743 -8.784,4.895 -3.024,1.08 -7.344,-0.576 -10.296,0.936 -2.808,1.44 -5.904,3.816 -8.64,5.616 -5.328,4.536 -3.456,6.696 -8.064,12.024 z" />
      <path
         style="fill-opacity:0;stroke:#343232;stroke-width:6.80900002"
         inkscape:connector-curvature="0"
         id="path63642"
         d="m 376.682,293.901 c -0.648,3.312 -0.072,6.048 -0.432,9.144 -0.36,3.312 -1.44,6.408 -1.512,9.504 -0.072,3.384 -3.672,6.84 -3.384,9.936 0.288,3.312 5.544,5.832 6.264,8.928 0.72,3.24 1.368,6.12 2.52,9.072 1.152,3.024 0.36,6.84 1.944,9.648 1.584,2.808 3.816,5.256 5.76,7.848 1.944,2.52 3.456,5.544 5.688,7.92 2.16,2.304 4.68,4.464 7.2,6.624 2.376,2.088 7.056,1.368 9.72,3.312 2.52,1.872 4.248,4.896 6.984,6.696 2.592,1.728 4.176,5.328 6.984,7.127 2.664,1.656 5.832,2.664 8.784,4.32 2.592,1.44 5.544,2.736 8.568,4.248 2.736,1.368 6.624,0.504 9.648,1.944 2.808,1.296 3.817,6.768 6.841,8.064 2.88,1.224 5.904,2.304 8.928,3.528 2.88,1.224 5.832,2.376 8.856,3.6 2.952,1.152 6.336,1.152 9.36,2.304 2.952,1.152 6.408,1.008 9.432,2.088 2.952,1.08 5.04,4.896 8.064,5.904 3.024,1.08 5.832,2.664 8.856,3.672 3.024,1.008 6.624,0.288 9.648,1.224 3.024,1.008 6.264,1.44 9.288,2.376 3.096,0.936 6.768,-0.504 9.864,0.36 3.096,0.864 6.12,1.728 9.144,2.592 3.096,0.864 6.336,1.08 9.36,1.872 3.168,0.792 6.12,1.872 9.145,2.592 3.168,0.72 5.76,3.672 8.784,4.32 3.168,0.648 6.048,2.736 9.144,3.312 3.24,0.576 6.84,-1.512 9.864,-1.08 3.312,0.504 6.12,3.672 9.144,3.96 3.528,0.36 7.056,-3.168 10.44,-3.312 3.528,-0.144 7.2,2.304 10.512,1.656 3.384,-0.72 6.12,-3.672 9.288,-4.896 3.24,-1.224 6.84,-1.44 9.864,-3.168 2.952,-1.656 6.264,-3.024 9.072,-5.184 2.736,-2.016 5.544,-4.176 8.064,-6.624 2.448,-2.304 3.168,-6.408 5.472,-9.072 2.233,-2.52 4.681,-4.896 6.841,-7.704 1.944,-2.448 3.744,-4.896 5.04,-7.92 1.224,-2.88 5.256,-5.184 5.904,-8.352 0.648,-3.096 0.288,-6.696 0.504,-9.935 0.216,-3.168 -4.248,-6.408 -4.392,-9.576 -0.144,-3.24 4.824,-6.984 4.392,-10.008 -0.504,-3.312 -2.88,-6.408 -3.744,-9.216 -1.08,-3.312 -3.888,-5.76 -5.256,-8.64 -1.512,-3.096 -3.24,-5.76 -5.113,-8.352 -1.943,-2.808 -1.584,-7.56 -3.816,-9.864 -2.304,-2.376 -5.04,-4.968 -7.632,-6.912 -2.664,-1.944 -6.84,-2.016 -9.72,-3.6 -2.88,-1.584 -6.192,-2.448 -9.288,-3.672 -3.024,-1.224 -6.696,-0.576 -9.864,-1.512 -3.096,-0.936 -5.976,-2.808 -9.216,-3.528 -3.168,-0.72 -6.336,-1.728 -9.648,-2.304 -3.24,-0.576 -6.552,-0.504 -9.864,-1.008 -3.24,-0.504 -6.048,-4.176 -9.36,-4.608 -3.24,-0.432 -6.624,-0.072 -9.936,-0.576 -3.312,-0.432 -6.912,1.44 -10.152,1.008 -3.312,-0.504 -6.768,-0.144 -10.009,-0.72 -3.167,-0.576 -5.688,-4.32 -8.856,-5.04 -3.096,-0.72 -5.904,-2.592 -9.072,-3.456 -3.096,-0.864 -6.984,1.08 -10.08,0.144 -3.096,-0.936 -6.552,-0.72 -9.648,-1.728 -3.096,-1.008 -5.184,-5.04 -8.28,-6.048 -3.096,-1.008 -6.912,0.36 -10.008,-0.648 -3.096,-1.008 -5.328,-4.608 -8.424,-5.616 -3.096,-1.008 -6.696,-0.432 -9.72,-1.368 -3.096,-0.936 -6.264,-1.656 -9.36,-2.52 -3.168,-0.864 -6.912,1.08 -10.08,0.36 -3.168,-0.792 -5.472,-5.328 -8.64,-5.904 -3.168,-0.648 -6.624,0.073 -9.792,-0.359 -3.241,-0.432 -6.337,-2.305 -9.577,-2.521 -3.24,-0.215 -6.552,2.089 -9.792,2.161 -3.24,0.071 -6.408,-0.072 -9.648,0.36 -3.168,0.359 -6.84,-1.297 -10.008,-0.576 -3.096,0.719 -5.688,3.743 -8.784,4.895 -3.024,1.08 -7.344,-0.576 -10.296,0.936 -2.808,1.44 -5.904,3.816 -8.64,5.616 -5.328,4.536 -3.456,6.696 -8.064,12.024" />
    </g>
    <g
       id="g1127"
       inkscape:label="ebi"
       style="display:inline">
      <g
         style="display:inline"
         id="g63638">
        <g
           id="g63624">
          <path
             d="m 698.885,392.612 c 0,0 19.008,-2.159 60.552,16.704 0,0 51.193,20.448 75.025,45.72 0,0 -71.497,-3.312 -139.465,-56.88 l 3.96,-5.544 z"
             id="path63620"
             inkscape:connector-curvature="0"
             style="fill:url(#Gradient_5)" />
          <path
             d="m 698.885,392.612 c 0,0 19.008,-2.159 60.552,16.704 0,0 51.193,20.448 75.025,45.72 0,0 -71.497,-3.312 -139.465,-56.88 l 3.96,-5.544 z"
             id="path63622"
             inkscape:connector-curvature="0"
             style="fill-opacity:0;stroke:#343232;stroke-width:6.375" />
        </g>
        <g
           id="g63630">
          <path
             d="m 688.517,411.332 c 0,0 19.008,-2.664 60.984,15.12 0,0 51.697,19.152 76.177,43.704 0,0 -71.569,-1.44 -140.905,-53.208 l 3.816,-5.688 z"
             id="path63626"
             inkscape:connector-curvature="0"
             style="fill:url(#Gradient_6)" />
          <path
             d="m 688.517,411.332 c 0,0 19.008,-2.664 60.984,15.12 0,0 51.697,19.152 76.177,43.704 0,0 -71.569,-1.44 -140.905,-53.208 l 3.816,-5.688 z"
             id="path63628"
             inkscape:connector-curvature="0"
             style="fill-opacity:0;stroke:#343232;stroke-width:6.375" />
        </g>
        <g
           id="g63636">
          <path
             d="m 686.429,399.668 c 0,0 18.936,-2.664 60.984,15.12 0,0 51.697,19.152 76.177,43.704 0,0 -71.569,-1.44 -140.977,-53.208 z"
             id="path63632"
             inkscape:connector-curvature="0"
             style="fill:url(#Gradient_7)" />
          <path
             d="m 686.429,399.668 c 0,0 18.936,-2.664 60.984,15.12 0,0 51.697,19.152 76.177,43.704 0,0 -71.569,-1.44 -140.977,-53.208 z"
             id="path63634"
             inkscape:connector-curvature="0"
             style="fill-opacity:0;stroke:#343232;stroke-width:6.375" />
        </g>
      </g>
      <g
         style="display:inline"
         id="g63656">
        <path
           d="m 365.81,319.893 c 0,0 224.93,94.895 308.162,92.879 l 37.945,3.744 c 0,0 -9.576,-74.879 -86.041,-109.943 0,0 -101.017,-30.528 -153.001,-43.055 -39.817,-9.576 -46.225,-12.744 -62.137,-9.576 -10.008,2.016 -63.721,22.319 -47.808,52.559 l 2.88,13.32 z"
           id="path63646"
           inkscape:connector-curvature="0"
           style="fill:url(#Gradient_8)" />
        <path
           d="m 365.81,319.893 c 0,0 224.93,94.895 308.162,92.879"
           id="path63648"
           inkscape:connector-curvature="0"
           style="fill-opacity:0;stroke:#343232;stroke-width:6.80900002" />
        <path
           d="m 674.044,412.772 37.945,3.744"
           id="path63650"
           inkscape:connector-curvature="0"
           style="fill-opacity:0;stroke:#343232;stroke-width:6.80900002" />
        <path
           d="m 711.989,416.516 c 0,0 -9.576,-74.879 -86.041,-109.943 0,0 -101.017,-30.528 -153.001,-43.055 -39.817,-9.576 -46.225,-12.744 -62.137,-9.576 -10.008,2.016 -63.721,22.319 -47.808,52.559"
           id="path63652"
           inkscape:connector-curvature="0"
           style="fill-opacity:0;stroke:#343232;stroke-width:6.80900002" />
        <path
           d="m 362.93,306.573 2.88,13.32"
           id="path63654"
           inkscape:connector-curvature="0"
           style="fill-opacity:0;stroke:#343232;stroke-width:6.80900002" />
      </g>
      <g
         id="g1100">
        <path
           style="fill:url(#Gradient_9)"
           inkscape:connector-curvature="0"
           id="path63660"
           d="m 511.827,364.389 c 0,0 -0.648,-21.96 5.76,-33.984 6.408,-12.024 0,-28.08 0,-28.08 0,0 22.32,-10.656 28.656,-12.024 6.336,-1.368 -21.816,-11.952 -41.4,-11.952 0,0 -45.504,40.968 -28.008,78.336 0,0 23.832,14.4 34.992,7.704 z" />
        <path
           style="fill:url(#Gradient_10)"
           inkscape:connector-curvature="0"
           id="path63662"
           d="m 459.339,347.613 c 0,0 -2.377,-17.928 4.032,-29.952 6.408,-12.024 0,-28.08 0,-28.08 0,0 22.32,-10.656 28.656,-12.024 6.408,-1.296 -13.104,-9.719 -36.864,-12.527 0,0 -48.313,36.071 -30.817,73.439 0,0 23.832,15.768 34.993,9.072 z" />
        <path
           style="fill:url(#Gradient_11)"
           inkscape:connector-curvature="0"
           id="path63664"
           d="m 408.938,328.029 c 0,0 -1.368,-11.088 4.968,-23.112 6.408,-12.024 0,-28.08 0,-28.08 0,0 22.32,-10.655 28.656,-12.023 6.408,-1.368 -13.536,-13.32 -40.68,-3.96 0,0 -48.312,18.575 -30.816,55.943 0,0 26.64,17.856 37.8,11.16 z" />
        <path
           style="fill:url(#Gradient_12)"
           inkscape:connector-curvature="0"
           id="path63666"
           d="m 560.067,382.605 c 0,0 -1.152,-24.264 5.256,-36.288 6.336,-12.024 0,-28.008 0,-28.008 0,0 22.321,-10.656 28.657,-12.024 6.408,-1.296 -16.488,-11.808 -36.073,-13.248 0,0 -50.4,44.424 -32.904,81.864 0,0 24.48,10.512 34.992,7.704 z" />
        <path
           style="fill:url(#Gradient_13)"
           inkscape:connector-curvature="0"
           id="path63668"
           d="m 612.484,394.628 c 0,0 0,-17.783 7.128,-29.231 7.128,-11.448 0,-26.712 0,-26.712 0,0 24.984,-10.152 32.184,-11.448 7.128,-1.296 -19.728,-14.616 -37.008,-15.264 0,0 -55.944,40.752 -36.288,76.32 0,0 21.456,12.743 33.984,6.335 z" />
        <path
           style="fill:url(#Gradient_14)"
           inkscape:connector-curvature="0"
           id="path63670"
           d="m 651.94,349.557 c 0,0 29.737,2.16 54.217,59.543 0,0 -25.488,-43.559 -54.217,-59.543 z" />
        <path
           style="fill:url(#Gradient_15)"
           inkscape:connector-curvature="0"
           id="path63672"
           d="m 639.196,369.789 c 0,0 30.096,-4.824 65.377,38.015 0,0 -33.696,-30.959 -65.377,-38.015 z" />
        <path
           style="fill:url(#Gradient_16)"
           inkscape:connector-curvature="0"
           id="path63674"
           d="m 705.581,406.868 c 0,0 -19.944,12.168 -56.809,-7.344 0,0 32.473,11.736 56.809,7.344 z" />
      </g>
    </g>
  </g>
</svg>
