<?xml version="1.0" encoding="UTF-8" standalone="no"?>
<svg
   xmlns:dc="http://purl.org/dc/elements/1.1/"
   xmlns:cc="http://creativecommons.org/ns#"
   xmlns:rdf="http://www.w3.org/1999/02/22-rdf-syntax-ns#"
   xmlns:svg="http://www.w3.org/2000/svg"
   xmlns="http://www.w3.org/2000/svg"
   xmlns:sodipodi="http://sodipodi.sourceforge.net/DTD/sodipodi-0.dtd"
   xmlns:inkscape="http://www.inkscape.org/namespaces/inkscape"
   version="1.1"
   x="0"
   y="0"
   width="256"
   height="163.12663"
   viewBox="0 0 256 163.12663"
   id="svg1309"
   sodipodi:docname="sushi_02_ika.svg"
   inkscape:version="0.92.4 (5da689c313, 2019-01-14)">
  <title
     id="title2120">Squid Sushi</title>
  <metadata
     id="metadata1313">
    <rdf:RDF>
      <cc:Work
         rdf:about="">
        <dc:format>image/svg+xml</dc:format>
        <dc:type
           rdf:resource="http://purl.org/dc/dcmitype/StillImage" />
        <dc:title>Squid Sushi</dc:title>
        <cc:license
           rdf:resource="http://creativecommons.org/publicdomain/zero/1.0/" />
        <dc:source>https://openclipart.org/detail/284028</dc:source>
        <dc:creator>
          <cc:Agent>
            <dc:title>oksmith</dc:title>
          </cc:Agent>
        </dc:creator>
      </cc:Work>
      <cc:License
         rdf:about="http://creativecommons.org/publicdomain/zero/1.0/">
        <cc:permits
           rdf:resource="http://creativecommons.org/ns#Reproduction" />
        <cc:permits
           rdf:resource="http://creativecommons.org/ns#Distribution" />
        <cc:permits
           rdf:resource="http://creativecommons.org/ns#DerivativeWorks" />
      </cc:License>
    </rdf:RDF>
  </metadata>
  <sodipodi:namedview
     pagecolor="#ffffff"
     bordercolor="#666666"
     borderopacity="1"
     objecttolerance="10"
     gridtolerance="10"
     guidetolerance="10"
     inkscape:pageopacity="0"
     inkscape:pageshadow="2"
     inkscape:window-width="1920"
     inkscape:window-height="1025"
     id="namedview1311"
     showgrid="false"
     inkscape:zoom="0.7212337"
     inkscape:cx="-304.7627"
     inkscape:cy="84.885875"
     inkscape:window-x="-8"
     inkscape:window-y="-8"
     inkscape:window-maximized="1"
     inkscape:current-layer="svg1309"
     fit-margin-top="0"
     fit-margin-left="0"
     fit-margin-right="0"
     fit-margin-bottom="0" />
  <defs
     id="defs256" />
  <g
     id="g1571"
     transform="matrix(2.0796993,0,0,2.0796993,-1378.9949,-95.573401)">
    <g
       id="g1546"
       inkscape:label="text"
       style="display:none">
      <path
         style="fill:#000000"
         inkscape:connector-curvature="0"
         id="path1258"
         d="m 724.985,154.304 c -0.439,3.402 -0.835,6.805 -1.186,10.206 -0.791,6.714 -1.449,10.474 -1.976,11.279 -0.176,0.18 -0.395,0.18 -0.659,0 -0.967,-1.164 -1.449,-2.283 -1.449,-3.357 1.054,-6.534 2.195,-13.562 3.426,-21.082 0.614,-0.447 0.965,-0.536 1.053,-0.269 l 0.396,0.537 c 0.264,0.627 0.395,1.523 0.395,2.686" />
      <path
         style="fill:#000000"
         inkscape:connector-curvature="0"
         id="path1260"
         d="m 734.393,153.23 c -0.088,1.344 -0.483,4.343 -1.186,8.997 1.318,-1.163 2.371,-1.879 3.162,-2.149 0.703,-0.357 1.494,-0.537 2.373,-0.537 1.053,0 1.887,0.269 2.502,0.806 0.615,0.537 0.924,1.656 0.924,3.357 0,0.896 -0.309,1.746 -0.924,2.551 -0.527,0.627 -1.316,1.209 -2.371,1.746 -1.143,0.537 -1.932,0.941 -2.371,1.208 l 0.922,2.149 c 0.351,1.164 0.791,1.746 1.318,1.746 0.262,0 1.008,-0.269 2.238,-0.806 0.528,-0.268 0.879,-0.313 1.055,-0.135 -0.967,2.06 -2.328,3.134 -4.084,3.223 -1.055,0.09 -1.801,-0.716 -2.24,-2.417 -0.527,-1.611 -0.879,-2.596 -1.055,-2.954 -0.176,-0.358 -0.658,-0.806 -1.449,-1.343 l -0.394,-0.402 c -0.176,-0.179 -0.176,-0.447 0,-0.806 0.613,-0.09 1.097,-0.135 1.449,-0.135 1.58,0 2.941,-0.402 4.084,-1.208 1.142,-0.805 1.713,-1.746 1.713,-2.82 0,-0.537 -0.131,-0.939 -0.395,-1.208 -0.351,-0.357 -0.748,-0.537 -1.185,-0.537 -1.67,-0.09 -3.428,1.074 -5.272,3.491 -0.615,0.896 -1.01,2.462 -1.186,4.699 -0.175,2.149 -0.439,3.895 -0.791,5.238 -0.527,1.254 -1.142,1.209 -1.843,-0.135 -0.176,-0.268 -0.264,-0.76 -0.264,-1.477 0.176,-0.894 0.44,-2.103 0.791,-3.626 1.141,-5.997 1.887,-11.009 2.238,-15.039 l -0.131,-0.134 -1.054,0.268 -0.131,-0.134 c 0.352,-0.716 0.877,-1.7 1.58,-2.954 0.264,-0.537 0.572,-0.716 0.924,-0.537 0.701,0.447 1.053,1.119 1.053,2.014" />
      <path
         style="fill:#000000"
         inkscape:connector-curvature="0"
         id="path1262"
         d="m 745.777,169.613 c 0,0.447 0.044,0.939 0.132,1.476 0.088,0.448 0.22,0.762 0.396,0.941 0.263,0.358 0.702,0.537 1.317,0.537 1.757,0 2.899,-1.388 3.426,-4.163 0.439,-2.865 0.659,-4.7 0.659,-5.505 -0.088,-0.269 -0.395,-0.537 -0.923,-0.806 -0.263,-0.09 -0.702,-0.09 -1.317,0 -2.636,1.433 -3.865,3.939 -3.69,7.52 z m 8.96,-9.266 c -0.615,2.418 -1.097,4.566 -1.449,6.445 -0.351,1.881 -0.527,3.492 -0.527,4.834 0,0.359 0.044,0.672 0.132,0.941 0.175,0.358 0.527,0.358 1.054,0 0.615,-0.358 1.098,-0.94 1.449,-1.746 h 0.132 c 0.176,0.179 0.176,0.403 0,0.671 -0.351,1.254 -0.835,2.239 -1.449,2.955 -0.527,0.537 -1.055,0.805 -1.581,0.805 -0.527,0 -0.879,-0.178 -1.055,-0.537 -0.439,-0.627 -0.659,-1.119 -0.659,-1.477 -0.263,0.358 -0.614,0.716 -1.054,1.074 -0.263,0.269 -0.571,0.493 -0.921,0.672 -1.143,0.716 -2.241,0.672 -3.295,-0.135 -0.967,-1.074 -1.537,-2.104 -1.713,-3.088 -0.176,-0.984 -0.263,-1.88 -0.263,-2.686 0,-2.417 0.702,-4.565 2.108,-6.445 1.405,-1.969 2.942,-2.954 4.612,-2.954 0.614,0 1.097,0.135 1.449,0.402 0.264,0.09 0.483,0.18 0.659,0.269 l 1.449,-0.806 c 0.439,-0.178 0.747,-0.044 0.922,0.404 v 0.402" />
    </g>
    <g
       id="g1541">
      <path
         style="fill:#b0b0b0"
         inkscape:connector-curvature="0"
         id="path270"
         d="m 698.385,68.008 c 0,0 -21.594,10.797 -22.394,12.796 -0.8,2 -2.8,2.8 0.4,5.199 3.199,2.4 7.198,5.999 7.198,5.999 l 29.992,19.994 13.597,7.199 c 0,0 11.197,5.198 13.996,5.198 2.799,0 7.997,-0.799 10.797,-0.4 2.8,0.4 8.399,0 14.797,-3.599 6.397,-3.599 14.795,-7.197 6.797,-13.596 -7.998,-6.398 -75.18,-38.79 -75.18,-38.79" />
      <path
         style="fill:#ffffff"
         inkscape:connector-curvature="0"
         id="path330"
         d="m 684.474,75.944 c 0,0 -1.83,0.459 -1.467,3.73 0.363,3.27 1.998,4.178 1.998,4.178 0,0 -1.998,3.452 -0.363,5.633 1.635,2.18 4.361,1.816 4.361,1.816 0,0 0.363,3.089 2.543,4.906 2.181,1.817 3.816,1.091 3.816,1.091 0,0 0.364,3.088 2.907,4.36 2.544,1.272 4.906,0.727 4.906,0.727 0,0 -0.182,2.18 2.361,3.634 2.544,1.453 4.906,0.545 4.906,0.545 0,0 0,2.362 2.725,3.634 2.727,1.272 5.814,0.726 5.814,0.726 0,0 0,3.089 2.363,3.998 2.362,0.908 7.631,0.181 7.631,0.181 0,0 1.454,5.087 4.723,5.814 3.272,0.727 5.27,-1.635 5.27,-1.635 0,0 2.543,1.636 4.542,0.727 0.653,-0.297 1.625,-1.075 2.636,-1.987 2.556,-2.307 2.394,1.361 5.161,-1.649 0,0 -23.422,-28.706 -37.049,-37.245 -22.218,-13.922 -28.485,-7.881 -30.196,-7.31 l 0.412,4.126" />
      <path
         style="fill:#b0b0b0"
         inkscape:connector-curvature="0"
         id="path356"
         d="m 686.682,66.446 c 0,0 -4.308,5.067 -2.787,7.6 1.52,2.533 2.281,0.76 3.8,0.254 1.52,-0.507 2.28,-0.76 3.293,1.52 1.014,2.279 0.507,3.546 3.04,3.546 2.534,0 4.307,-0.76 4.307,-0.76 0,0 2.027,0.001 3.04,1.52 1.013,1.52 1.267,2.533 1.267,2.533 0,0 0.759,1.014 2.026,0.254 1.267,-0.76 4.306,0.253 4.56,1.773 0.253,1.52 1.013,1.773 1.013,1.773 0,0 2.028,-1.773 3.547,0 1.52,1.774 2.027,3.294 3.04,3.294 1.013,0 3.293,-1.014 4.56,1.013 1.266,2.027 1.773,3.293 1.773,3.293 0,0 1.773,-0.507 3.293,1.013 1.521,1.52 2.281,4.307 3.801,4.307 1.519,0 2.533,0.507 3.8,2.027 1.266,1.52 1.773,4.56 3.04,4.813 1.266,0.253 4.812,1.014 4.559,3.547 -0.253,2.533 -0.759,3.8 -0.759,3.8 0,0 2.28,1.52 2.533,1.52 0.253,0 1.519,1.52 0,3.547 -1.52,2.026 0.082,1.376 0.082,1.376 l 2.451,-2.39 c 0,0 2.027,2.534 4.054,0.76 2.026,-1.773 3.546,-4.813 3.546,-4.813 0,0 -12.415,-19.76 -27.107,-28.627 -14.692,-8.866 -35.213,-17.48 -35.213,-17.48 l -4.559,-1.013" />
      <path
         style="fill:#ffffff"
         inkscape:connector-curvature="0"
         id="path696"
         d="m 664.044,63.111 c 2.178,3.148 3.948,5.077 7.019,3.384 2.633,-1.269 5.265,-1.269 7.021,-0.846 0,0 28.075,9.308 42.115,19.462 14.039,10.154 25.447,22.001 28.956,25.385 3.508,3.385 5.264,10.154 7.02,10.154 1.754,0 13.159,-1.693 20.179,-7.616 7.02,-5.922 7.897,-7.615 7.897,-7.615 l 0.878,-3.385 c 0,0 -7.897,-22 -24.568,-33 -16.671,-11.001 -47.38,-21.154 -57.91,-22 -10.529,-0.847 -15.795,1.692 -15.795,1.692 0,0 -7.019,4.231 -12.283,6.769 -5.264,2.538 -12.284,5.078 -10.529,7.616" />
      <path
         style="fill:#c0c0c0"
         inkscape:connector-curvature="0"
         id="path698"
         d="m 694.028,62.139 c 0,0 18.493,4.56 32.173,12.413 13.68,7.854 20.521,13.681 22.547,16.214 2.026,2.533 5.826,7.6 5.826,7.6 0,0 -13.932,-15.96 -34.199,-25.586 -6.96,-3.307 -17.987,-7.347 -17.987,-7.347 l -8.36,-3.294" />
      <path
         style="fill:#c0c0c0"
         inkscape:connector-curvature="0"
         id="path700"
         d="m 705.429,56.566 c 0,0 17.641,4.113 30.691,11.198 13.051,7.084 19.576,12.341 21.51,14.626 1.933,2.285 5.558,6.856 5.558,6.856 0,0 -13.292,-14.398 -32.625,-23.082 -6.64,-2.982 -17.16,-6.627 -17.16,-6.627 l -7.974,-2.971" />
      <path
         style="fill:#000000"
         inkscape:connector-curvature="0"
         id="path890"
         d="m 684.146,75.103 c -0.559,0.574 -1.228,0.965 -1.671,1.629 -0.557,0.835 -0.725,2.052 -0.694,3.023 0.073,2.241 1.034,4.078 3.238,4.655 0.853,0.224 1.705,-0.966 0.922,-1.587 -0.268,-0.213 -0.95,-0.548 -1.123,-0.831 -0.496,-0.81 -0.691,-1.74 -0.733,-2.678 -0.028,-0.664 -0.218,-1.561 0.334,-2.032 0.417,-0.355 0.56,-0.855 0.88,-1.289 0.504,-0.683 -0.583,-1.474 -1.153,-0.89" />
      <path
         style="fill:#000000"
         inkscape:connector-curvature="0"
         id="path892"
         d="m 684.644,83.473 c -2.112,1.962 -2.12,4.955 -0.615,7.318 1.332,2.091 4.279,2.949 5.58,0.383 0.411,-0.811 -0.605,-1.669 -1.282,-0.99 -1.092,1.095 -2.065,0.182 -2.721,-0.896 -0.848,-1.396 -0.881,-3.338 0.291,-4.561 0.794,-0.827 -0.417,-2.031 -1.253,-1.254" />
      <path
         style="fill:#000000"
         inkscape:connector-curvature="0"
         id="path894"
         d="m 688.692,90.536 c -0.444,2.389 0.293,4.546 1.938,6.346 1.518,1.661 3.777,2.124 5.328,0.328 0.429,-0.498 -0.1,-1.12 -0.673,-0.871 -2.908,1.263 -5.187,-3.242 -4.928,-5.578 0.106,-0.949 -1.491,-1.159 -1.665,-0.225" />
      <path
         style="fill:#000000"
         inkscape:connector-curvature="0"
         id="path896"
         d="m 694.827,96.818 c -0.367,4.06 4.28,7.681 8.209,6.188 0.83,-0.315 0.663,-1.408 -0.203,-1.504 -1.613,-0.178 -3.013,-0.082 -4.479,-0.928 -1.335,-0.771 -2.051,-2.244 -2.05,-3.756 10e-4,-0.967 -1.393,-0.933 -1.477,0" />
      <path
         style="fill:#000000"
         inkscape:connector-curvature="0"
         id="path898"
         d="m 702.745,100.865 c -0.874,4.631 3.104,8.167 7.607,6.557 1.137,-0.406 0.684,-2.178 -0.504,-1.83 -3.225,0.942 -5.979,-1.095 -5.691,-4.536 0.068,-0.806 -1.261,-0.985 -1.412,-0.191" />
      <path
         style="fill:#000000"
         inkscape:connector-curvature="0"
         id="path900"
         d="m 710.012,105.105 c -0.402,2.738 0.277,4.75 2.703,6.141 1.719,0.986 4.865,1.682 6.373,0.011 0.416,-0.461 0.141,-1.228 -0.511,-1.234 -1.56,-0.013 -2.778,0.335 -4.332,-0.196 -0.755,-0.258 -1.433,-0.75 -2.012,-1.284 -0.778,-0.719 -0.686,-2.471 -0.835,-3.438 -0.105,-0.688 -1.285,-0.692 -1.386,0" />
      <path
         style="fill:#000000"
         inkscape:connector-curvature="0"
         id="path902"
         d="m 718.434,109.328 c -0.328,1.454 -0.316,2.751 0.155,4.174 0.419,1.265 1.39,1.75 2.579,2.281 2.565,1.145 5.677,1.387 8.114,-0.096 0.81,-0.492 0.265,-1.673 -0.626,-1.486 -1.838,0.387 -3.745,0.417 -5.566,-0.033 -0.83,-0.205 -1.582,-0.59 -2.322,-1.004 -0.954,-0.534 -0.866,-2.741 -0.807,-3.629 0.058,-0.878 -1.336,-1.057 -1.527,-0.207" />
      <path
         style="fill:#000000"
         inkscape:connector-curvature="0"
         id="path904"
         d="m 728.584,114.38 c -0.146,3.032 1.652,5.751 4.246,7.217 2.502,1.414 5.236,0.597 6.551,-1.894 0.57,-1.08 -1.021,-2.02 -1.639,-0.958 -1.092,1.874 -2.899,1.755 -4.575,0.743 -1.741,-1.052 -2.778,-3.118 -2.794,-5.108 -0.009,-1.16 -1.733,-1.147 -1.789,0" />
      <path
         style="fill:#000000"
         inkscape:connector-curvature="0"
         id="path906"
         d="m 737.323,116.976 c 0.22,1.04 0.145,1.799 0.876,2.642 0.722,0.831 1.842,1.345 2.895,1.57 2.132,0.455 4.613,-0.739 5.487,-2.736 0.39,-0.888 -0.595,-1.748 -1.368,-1.055 -1.076,0.965 -1.942,1.829 -3.473,1.845 -1.588,0.017 -2.599,-1.3 -3.151,-2.614 -0.32,-0.763 -1.445,-0.501 -1.266,0.348" />
      <path
         style="fill:#000000"
         inkscape:connector-curvature="0"
         id="path908"
         d="m 685.036,75.073 c -0.499,-1.116 -0.971,-2.486 -0.321,-3.632 0.381,-0.67 0.905,-1.133 0.936,-1.955 0.05,-1.309 -1.854,-1.246 -1.992,0 0.02,-0.174 -0.323,0.411 -0.423,0.55 -0.283,0.392 -0.486,0.814 -0.653,1.267 -0.582,1.582 0.138,3.31 0.828,4.72 0.539,1.102 2.113,0.139 1.625,-0.95" />
      <path
         style="fill:#000000"
         inkscape:connector-curvature="0"
         id="path910"
         d="m 745.289,118.247 c 1.666,2.087 4.999,1.45 6.699,-0.174 0.939,-0.896 -0.462,-2.274 -1.414,-1.415 -0.985,0.89 -2.965,1.499 -4.019,0.325 -0.785,-0.875 -1.968,0.384 -1.266,1.264" />
      <path
         style="fill:#000000"
         inkscape:connector-curvature="0"
         id="path912"
         d="m 663.25,63.575 c 2.165,3.006 4.22,5.387 8.059,3.808 4.009,-1.648 6.587,-0.855 10.227,0.441 9.708,3.458 19.28,7.399 28.425,12.163 11.626,6.055 21.599,14.913 31.064,23.875 3.013,2.852 6.419,5.717 8.944,9.03 1.797,2.36 2.834,7.695 5.959,8.656 2.318,0.712 6.458,-0.981 8.609,-1.587 5.21,-1.465 9.786,-3.971 13.888,-7.472 2.076,-1.772 9.04,-6.785 7.532,-10.844 -6.099,-16.412 -17.477,-29.746 -32.859,-38.004 -9.4,-5.046 -19.458,-8.963 -29.561,-12.341 -7.895,-2.641 -16.016,-5.061 -24.384,-5.325 -6.256,-0.196 -11.122,1.071 -16.374,4.096 -5.004,2.883 -10.2,5.297 -15.348,7.898 -1.939,0.979 -5.243,2.707 -4.135,5.348 0.379,0.905 1.875,0.519 1.496,-0.412 -1.122,-2.759 13.235,-8.157 15.334,-9.29 2.729,-1.475 5.376,-3.547 8.335,-4.533 9.239,-3.078 19.299,-0.642 28.317,1.952 11.766,3.385 23.297,7.914 34.202,13.472 11.009,5.611 19.488,13.163 26.143,23.598 2.126,3.334 3.939,6.861 5.581,10.454 1.295,2.835 1.563,3.157 0.889,5.74 -0.614,2.352 -3.535,4.255 -5.249,5.792 -5.179,4.645 -10.889,7.367 -17.63,8.932 -1.329,0.308 -4.065,1.363 -5.08,0.048 -1.372,-1.777 -2.21,-4.094 -3.346,-6.029 -1.982,-3.375 -5.355,-6.056 -8.134,-8.751 -8.775,-8.511 -18.124,-16.988 -28.63,-23.32 -8.918,-5.374 -18.733,-9.362 -28.44,-13.061 -2.688,-1.024 -5.396,-2.003 -8.119,-2.934 -5.194,-1.777 -10.232,3.076 -14.127,-2.328 -0.687,-0.953 -2.283,-0.036 -1.588,0.928" />
    </g>
  </g>
</svg>
