<?xml version="1.0" encoding="UTF-8" standalone="no"?>
<svg
   xmlns:dc="http://purl.org/dc/elements/1.1/"
   xmlns:cc="http://creativecommons.org/ns#"
   xmlns:rdf="http://www.w3.org/1999/02/22-rdf-syntax-ns#"
   xmlns:svg="http://www.w3.org/2000/svg"
   xmlns="http://www.w3.org/2000/svg"
   xmlns:sodipodi="http://sodipodi.sourceforge.net/DTD/sodipodi-0.dtd"
   xmlns:inkscape="http://www.inkscape.org/namespaces/inkscape"
   version="1.1"
   x="0"
   y="0"
   width="256"
   height="226.32024"
   viewBox="0 0 256 226.32024"
   id="svg1309"
   sodipodi:docname="sushi_02_gunkanmaki_uni.svg"
   inkscape:version="0.92.4 (5da689c313, 2019-01-14)">
  <title
     id="title2120">Sea Urchin Gunkanmaki Sushi</title>
  <metadata
     id="metadata1313">
    <rdf:RDF>
      <cc:Work
         rdf:about="">
        <dc:format>image/svg+xml</dc:format>
        <dc:type
           rdf:resource="http://purl.org/dc/dcmitype/StillImage" />
        <dc:title>Sea Urchin Gunkanmaki Sushi</dc:title>
        <cc:license
           rdf:resource="http://creativecommons.org/publicdomain/zero/1.0/" />
        <dc:source>https://openclipart.org/detail/284028</dc:source>
        <dc:creator>
          <cc:Agent>
            <dc:title>oksmith</dc:title>
          </cc:Agent>
        </dc:creator>
      </cc:Work>
      <cc:License
         rdf:about="http://creativecommons.org/publicdomain/zero/1.0/">
        <cc:permits
           rdf:resource="http://creativecommons.org/ns#Reproduction" />
        <cc:permits
           rdf:resource="http://creativecommons.org/ns#Distribution" />
        <cc:permits
           rdf:resource="http://creativecommons.org/ns#DerivativeWorks" />
      </cc:License>
    </rdf:RDF>
  </metadata>
  <sodipodi:namedview
     pagecolor="#ffffff"
     bordercolor="#666666"
     borderopacity="1"
     objecttolerance="10"
     gridtolerance="10"
     guidetolerance="10"
     inkscape:pageopacity="0"
     inkscape:pageshadow="2"
     inkscape:window-width="1920"
     inkscape:window-height="1025"
     id="namedview1311"
     showgrid="false"
     inkscape:zoom="2.8849349"
     inkscape:cx="-25.003798"
     inkscape:cy="86.543932"
     inkscape:window-x="-8"
     inkscape:window-y="-8"
     inkscape:window-maximized="1"
     inkscape:current-layer="svg1309"
     fit-margin-top="0"
     fit-margin-left="0"
     fit-margin-right="0"
     fit-margin-bottom="0"
     inkscape:pagecheckerboard="true" />
  <defs
     id="defs256">
    <linearGradient
       id="Gradient_39"
       gradientUnits="userSpaceOnUse"
       x1="700.75897"
       y1="456.853"
       x2="786.85602"
       y2="456.853">
      <stop
         offset="0"
         stop-color="#FFAE68"
         id="stop246" />
      <stop
         offset="1"
         stop-color="#FF8100"
         id="stop248" />
    </linearGradient>
    <linearGradient
       id="Gradient_40"
       gradientUnits="userSpaceOnUse"
       x1="736.35101"
       y1="441.21399"
       x2="728.96399"
       y2="462.75699">
      <stop
         offset="0"
         stop-color="#FFAE68"
         id="stop251" />
      <stop
         offset="1"
         stop-color="#FF8100"
         id="stop253" />
    </linearGradient>
  </defs>
  <g
     id="g2433"
     transform="matrix(2.2108265,0,0,2.2108265,-1485.8745,-936.81562)">
    <g
       id="g2401"
       inkscape:label="text"
       style="display:none">
      <path
         style="fill:#000000"
         inkscape:connector-curvature="0"
         id="path1302"
         d="m 721.412,543.069 c -0.351,2.328 -1.098,6.938 -2.24,13.831 -0.176,0.806 -0.527,1.432 -1.055,1.88 -0.263,0.448 -0.527,0.895 -0.789,1.342 -0.439,1.433 -1.012,2.417 -1.713,2.954 -0.879,0.717 -1.845,1.075 -2.9,1.075 -1.143,0 -2.152,-0.448 -3.029,-1.343 -1.231,-1.253 -1.846,-3.133 -1.846,-5.64 0,-1.79 0.176,-3.446 0.527,-4.968 1.055,-5.998 1.494,-9.534 1.319,-10.608 0,-0.537 0.263,-0.626 0.791,-0.268 0.701,0.716 1.097,1.164 1.185,1.342 0.352,0.627 0.483,1.522 0.395,2.686 -0.703,3.402 -1.186,5.953 -1.45,7.654 -0.263,1.97 -0.394,3.313 -0.394,4.028 0,1.88 0.35,3.178 1.053,3.894 0.351,0.358 0.922,0.537 1.713,0.537 1.142,0 1.976,-0.268 2.503,-0.806 0.967,-0.984 1.67,-2.729 2.11,-5.236 0.437,-2.685 0.922,-6.31 1.449,-10.877 0,-0.537 -0.176,-0.85 -0.527,-0.94 0.439,-1.253 0.965,-2.238 1.58,-2.954 0.351,-0.358 0.572,-0.403 0.66,-0.134 0.35,0.268 0.57,1.119 0.658,2.551" />
      <path
         style="fill:#000000"
         inkscape:connector-curvature="0"
         id="path1304"
         d="m 727.368,548.843 c 0.351,0.717 0.483,1.836 0.395,3.357 1.053,-1.79 2.02,-2.999 2.899,-3.626 0.526,-0.447 1.098,-0.625 1.713,-0.537 1.229,0.359 1.757,1.209 1.581,2.552 -0.703,4.118 -1.23,7.386 -1.581,9.802 -0.088,1.074 0.307,1.477 1.186,1.209 0.703,-0.358 1.317,-0.851 1.844,-1.478 0.352,-0.447 0.702,-0.984 1.054,-1.611 0.088,0.18 0.132,0.403 0.132,0.672 -0.967,3.312 -2.372,4.968 -4.216,4.968 -1.406,0 -2.152,-1.075 -2.24,-3.223 0.79,-4.297 1.317,-7.026 1.581,-8.19 0.176,-1.253 0.263,-2.014 0.263,-2.284 0,-0.357 -0.175,-0.537 -0.527,-0.537 -1.055,0.537 -1.976,1.478 -2.766,2.821 -1.143,1.879 -2.021,4.834 -2.636,8.862 -0.264,1.791 -0.658,2.685 -1.186,2.685 -0.351,0 -0.571,-0.133 -0.659,-0.403 -0.264,-0.447 -0.482,-1.208 -0.658,-2.282 0,-0.447 0.175,-0.896 0.526,-1.343 1.318,-5.191 1.933,-8.325 1.845,-9.399 0,-0.627 -0.22,-0.985 -0.658,-1.075 -0.615,-0.178 -1.231,0 -1.845,0.538 -0.264,0 -0.439,-0.045 -0.527,-0.135 0.263,-0.716 0.658,-1.253 1.185,-1.612 0.528,-0.447 1.055,-0.67 1.582,-0.67 0.79,-0.09 1.362,0.223 1.713,0.939" />
      <path
         style="fill:#000000"
         inkscape:connector-curvature="0"
         id="path1306"
         d="m 746.236,541.726 c 0.176,0.358 0.264,0.672 0.264,0.94 0,0.985 -0.309,1.88 -0.922,2.686 -0.176,0.09 -0.439,0.09 -0.791,0 -0.791,-0.716 -1.142,-1.253 -1.055,-1.612 0.44,-1.252 0.834,-2.416 1.186,-3.491 0,-0.357 0.133,-0.402 0.396,-0.134 0.44,0.626 0.747,1.164 0.922,1.611 z m -0.791,8.863 c 0.088,0.359 0.133,1.029 0.133,2.014 l -0.264,2.148 c -0.175,1.791 -0.396,3.536 -0.66,5.238 -0.175,0.716 0,1.074 0.528,1.074 0.527,0 1.097,-0.134 1.713,-0.404 0.527,-0.357 1.054,-0.805 1.582,-1.342 0.351,-0.268 0.482,-0.134 0.394,0.403 -0.439,1.343 -1.098,2.462 -1.976,3.356 -0.791,0.807 -1.625,1.209 -2.502,1.209 -0.44,0 -0.836,-0.178 -1.188,-0.537 -0.615,-0.627 -0.922,-1.701 -0.922,-3.222 0,-0.716 0.176,-2.327 0.528,-4.834 0.263,-2.686 0.527,-4.879 0.791,-6.58 0.439,-1.253 0.877,-1.387 1.316,-0.403 0.264,0.806 0.439,1.433 0.527,1.88" />
    </g>
    <g
       id="g2396"
       inkscape:label="sushi">
      <path
         style="display:none;fill:#b0b0b0"
         inkscape:connector-curvature="0"
         id="path290"
         d="m 694.141,489.292 c 0,0 -27.906,-5.655 -25.643,-1.508 2.263,4.148 16.215,12.633 18.289,13.387 2.074,0.754 19.42,6.221 27.151,9.615 7.73,3.395 26.017,12.068 34.691,14.519 8.674,2.451 18.478,3.394 25.266,-0.377 6.787,-3.771 10.369,-6.978 9.426,-8.862 -0.942,-1.885 -3.959,-4.336 -3.959,-4.336 l -85.221,-22.438"
         inkscape:label="shadow" />
      <path
         style="display:inline;fill:#000000"
         inkscape:connector-curvature="0"
         id="path286"
         d="m 782.372,474.027 c 0,0 2.015,-7.438 1.395,-8.676 -0.621,-1.239 -2.015,-2.789 -2.015,-2.789 l -0.93,14.41 1.55,-2.945"
         inkscape:label="nori_rear" />
      <g
         id="g851"
         inkscape:label="garnish_rear"
         style="display:inline">
        <path
           d="m 672.584,426.378 c 0,0 12.194,20.236 23.884,30.171 11.688,9.938 11.646,12.514 11.646,12.514 l 28.358,-9.017 c 0,0 -25.693,-22.008 -39.727,-27.669 -14.034,-5.662 -21.864,-6.883 -21.864,-6.883 l -2.297,0.884"
           id="path424"
           inkscape:connector-curvature="0"
           style="display:inline;fill:#daec5f" />
        <path
           d="m 676.395,426.034 c 0,0 6.571,11.649 10.478,16.973 3.905,5.325 19.566,20.217 19.566,20.217 l -5.263,-0.567 c 0,0 -15.724,-14.521 -21.689,-23.462 -5.963,-8.943 -6.903,-12.817 -6.903,-12.817 l 3.811,-0.344"
           id="path426"
           inkscape:connector-curvature="0"
           style="display:inline;fill:#56c51d" />
        <path
           style="display:inline;fill:#56c51d"
           inkscape:connector-curvature="0"
           id="path428"
           d="m 675.659,430.585 c 0,0 -3.104,-3.523 -3.075,-4.207 0.028,-0.682 2.092,-1.373 2.092,-1.373 0,0 17.596,4.481 24.32,8.096 6.724,3.612 13.48,8.295 13.48,8.295 0,0 -10.556,-6.46 -14.354,-8.239 -3.801,-1.777 -8.525,-3.198 -9.933,-3.806 -1.409,-0.609 -11.335,-3.198 -11.335,-3.198 l -1.195,4.432" />
        <path
           style="display:inline;fill:#daec5f"
           inkscape:connector-curvature="0"
           id="path430"
           d="m 688.837,425.401 c 0,0 5.31,17.868 14.365,27.487 9.054,9.619 11.421,12.818 11.421,12.818 l 26.565,-6.026 c 0,0 -19.876,-21.294 -31.619,-27.287 -11.741,-5.991 -18.56,-7.616 -18.56,-7.616 l -2.172,0.624" />
        <path
           style="display:inline;fill:#56c51d"
           inkscape:connector-curvature="0"
           id="path432"
           d="m 692.287,425.36 c 0,0 4.248,10.783 6.993,15.773 2.749,4.993 14.658,19.28 14.658,19.28 l -4.619,-0.868 c 0,0 -12.018,-13.964 -16.099,-22.305 -4.082,-8.341 -4.383,-11.839 -4.383,-11.839 l 3.45,-0.041" />
        <path
           style="display:inline;fill:#56c51d"
           inkscape:connector-curvature="0"
           id="path434"
           d="m 690.997,429.343 c 0,0 -2.281,-3.338 -2.16,-3.942 0.12,-0.606 2.058,-1.073 2.058,-1.073 0,0 15.084,5.195 20.584,8.863 5.5,3.673 10.88,8.29 10.88,8.29 0,0 -8.524,-6.459 -11.669,-8.299 -3.143,-1.84 -7.165,-3.428 -8.336,-4.065 -1.172,-0.635 -9.674,-3.622 -9.674,-3.622 l -1.683,3.848" />
      </g>
      <path
         style="display:inline;fill:#000000"
         inkscape:connector-curvature="0"
         id="path1122"
         d="m 685.865,448.714 c -1.766,4.231 -2.324,8.83 -2.71,13.363 -0.602,7.069 -0.758,14.374 -0.861,21.471 -0.073,5.064 -1.719,13.046 3.619,16.022 8.259,4.604 18.517,5.95 27.285,9.447 8.699,3.47 16.84,8.233 25.632,11.59 8.383,3.201 18.005,6.574 27.111,5.178 5.617,-0.86 14.247,-4.856 16.571,-10.6 1.157,-2.861 0.371,-7.785 0.49,-10.811 0.313,-7.97 0.627,-15.941 0.94,-23.913 0.232,-5.895 1.978,-12.691 -1.056,-17.91 -0.366,0.214 -0.734,0.429 -1.1,0.643 5.945,7.956 -7.818,10.504 -12.853,12.128 -3.663,1.182 -7.162,2.443 -11.058,2.514 -5.769,0.107 -11.527,-2.388 -16.851,-4.286 -10.714,-3.819 -21.743,-7.242 -31.999,-12.212 -3.592,-1.741 -6.99,-2.966 -10.897,-3.896 -4.455,-1.061 -11.812,-1.793 -10.612,-7.952 0.15,-0.773 -1.034,-1.102 -1.184,-0.327 -1.864,9.668 13.358,9.267 19.399,11.829 13.315,5.647 26.664,10.834 40.342,15.637 4.625,1.624 9.846,3.077 14.794,2.27 5.487,-0.895 10.858,-3.106 16.205,-4.61 5.345,-1.503 9.73,-6.499 5.814,-11.738 -0.479,-0.641 -1.524,-0.086 -1.1,0.643 2.188,3.762 1.271,7.584 1.093,12.026 -0.318,7.935 -0.643,15.869 -0.965,23.804 -0.212,5.198 -0.423,10.395 -0.641,15.593 -0.048,1.162 -2.279,3.156 -3.346,4.082 -4.594,3.984 -11.069,6.173 -17.089,6.041 -20.496,-0.455 -38.272,-14.504 -57.209,-20.597 -4.686,-1.508 -9.43,-2.839 -14.054,-4.532 -1.73,-0.633 -3.833,-1.32 -4.885,-2.936 -1.535,-2.358 -1.235,-6.191 -1.217,-8.893 0.025,-4.043 0.337,-8.133 0.576,-12.166 0.434,-7.286 0.139,-14.53 1.632,-21.722 0.342,-1.654 0.862,-3.258 1.51,-4.815 0.341,-0.818 -0.989,-1.171 -1.326,-0.365"
         inkscape:label="nori_outline" />
      <g
         id="g879"
         style="display:inline"
         inkscape:label="garnish_front">
        <path
           d="m 683.342,443.532 c 0,0 2.695,4.448 3.243,5.056 0.548,0.609 2.816,1.644 2.816,1.644 l -1.374,-3.353 -4.685,-3.347"
           id="path1124"
           inkscape:connector-curvature="0"
           style="display:inline;fill:#56c51d" />
        <path
           d="m 687.489,448.047 c -4.611,-4.618 -8.507,-9.932 -11.487,-15.752 -0.856,-1.672 -1.662,-3.37 -2.453,-5.073 -0.173,-0.373 -0.344,-0.748 -0.514,-1.122 -0.495,-1.094 3.056,-0.159 3.164,-0.133 4.503,1.123 8.91,2.541 13.35,3.887 0.619,0.187 0.881,-0.779 0.265,-0.965 -4.871,-1.477 -9.709,-2.998 -14.655,-4.209 -1.27,-0.311 -2.379,0.234 -3.004,1.384 -0.358,0.658 0.869,2.39 1.118,2.921 3.445,7.317 7.789,14.041 13.509,19.769 0.456,0.457 1.163,-0.25 0.707,-0.707"
           id="path1126"
           inkscape:connector-curvature="0"
           style="display:inline;fill:#000000" />
        <path
           d="m 690.83,423.776 c -0.844,0.154 -1.862,0.517 -2.195,1.071 -0.051,0.133 -0.51,1.745 0.239,3.247 0.696,1.395 3.035,7.651 3.06,7.716 l 3.244,5.453 1.086,0.078 -3.389,-5.737 c -0.074,-0.213 -2.351,-6.304 -3.061,-7.726 -0.475,-0.953 -0.384,-1.993 -0.297,-2.496 0.032,-0.189 0.064,-0.303 0.065,-0.307 0.142,-0.218 0.777,-0.442 1.357,-0.57 1.002,0.399 7.19,2.866 11.411,4.67 4.438,1.898 10.801,5.416 12.313,6.657 1.506,1.238 4.16,3.097 4.274,3.175 l 1.156,-0.125 c -0.028,-0.019 -3.203,-2.285 -4.682,-3.501 -1.592,-1.307 -7.971,-4.843 -12.565,-6.807 -4.591,-1.962 -11.574,-4.735 -11.644,-4.762 l -0.179,-0.072 -0.193,0.036"
           id="path1128"
           inkscape:connector-curvature="0"
           style="display:inline;fill:#000000" />
      </g>
      <g
         id="g856"
         inkscape:label="nori_front"
         style="display:inline">
        <path
           d="m 686.928,452.591 c 0,0 -0.846,-2.221 -1.374,-0.635 -0.53,1.585 -1.904,8.243 -1.904,10.674 0,2.431 -0.211,12.683 -0.211,12.683 l -0.634,10.356 c 0,0 -0.408,10.299 1.698,12.019 2.107,1.72 10.667,4.258 10.667,4.258 0,0 14.164,4.439 17.651,6.129 3.489,1.691 16.804,8.032 16.804,8.032 l 15.009,6.025 c 0,0 13.951,4.439 19.87,3.065 5.918,-1.374 11.414,-3.172 13.528,-5.603 2.114,-2.431 4.015,-6.023 4.015,-6.023 v -7.292 l 0.74,-13.847 0.529,-13.105 0.318,-6.447 0.21,-5.813 -1.374,2.854 c 0,0 -1.903,1.585 -3.699,2.536 -1.796,0.952 -6.235,2.643 -6.235,2.643 l -4.121,0.951 -5.603,1.584 -4.65,0.636 c 0,0 -3.805,0.211 -6.129,-0.107 -2.325,-0.317 -9.934,-3.381 -9.934,-3.381 l -13.529,-4.968 -11.731,-4.333 -10.253,-4.652 -5.283,-1.902 c 0,0 -6.448,-1.374 -8.984,-2.325 -2.536,-0.95 -5.391,-4.012 -5.391,-4.012"
           id="path1158"
           inkscape:connector-curvature="0"
           style="display:inline;fill:#000000" />
        <path
           d="m 685.781,455.167 c 0,0 -0.448,5.812 0,7.154 0.448,1.34 0.447,3.129 0,5.365 -0.447,2.235 -0.893,4.471 -0.893,6.707 0,2.234 -0.448,6.258 -0.448,7.152 0,0.895 -0.895,1.788 0,3.129 0.894,1.342 1.789,3.132 0.894,3.578 -0.894,0.447 -0.446,3.577 -0.446,3.577 l 0.893,4.023 3.13,1.342 c 0,0 -2.235,-3.13 -1.789,-4.918 0.447,-1.788 2.236,-2.236 2.236,-2.236 0,0 -3.129,-4.919 -2.682,-6.707 0.446,-1.788 2.682,-1.34 2.682,-1.34 0,0 -3.577,-3.129 -2.682,-5.813 0.893,-2.683 4.918,-2.683 4.918,-2.683 0,0 -4.024,-2.682 -3.576,-4.918 0.446,-2.235 4.918,-1.788 4.918,-1.788 0,0 -5.366,-2.235 -4.472,-4.47 0.894,-2.236 4.472,-1.789 4.472,-1.789 l -2.237,-3.129 -2.681,-1.341 -1.789,-3.131 v 2.236"
           id="path1160"
           inkscape:connector-curvature="0"
           style="display:inline;fill:#ffffff" />
        <path
           d="m 750.938,479.198 c 0,0 5.784,1.928 9.159,1.446 3.376,-0.483 9.161,-1.446 9.161,-1.446 0,0 -3.857,1.927 -3.857,2.892 0,0.965 -2.411,2.411 -0.482,2.411 1.929,0 6.749,0.483 4.339,1.447 -2.41,0.963 -7.714,3.375 -5.303,3.375 2.41,0 5.303,1.927 3.857,2.41 -1.447,0.482 -4.822,2.41 -4.822,2.41 0,0 2.411,1.93 0.965,3.376 -1.446,1.446 -1.447,6.266 -2.412,6.266 -0.964,0 -1.446,-4.338 -1.446,-4.338 0,0 -0.964,-1.446 -2.892,-2.893 -1.929,-1.446 -5.785,-3.375 -3.857,-3.375 1.928,0 7.231,1.446 4.821,0 -2.41,-1.446 -6.268,-2.41 -5.303,-3.856 0.964,-1.447 6.267,2.41 4.821,0.963 -1.447,-1.446 -5.786,-2.892 -4.821,-3.856 0.964,-0.964 5.785,0.964 4.821,0 -0.964,-0.964 -2.411,-1.929 -3.374,-1.929 -0.965,0 3.856,-0.964 1.927,-1.446 -1.927,-0.481 -4.82,-1.929 -4.82,-1.929 0,0 -2.893,-2.892 -0.482,-1.928"
           id="path1162"
           inkscape:connector-curvature="0"
           style="display:inline;fill:#ffffff" />
      </g>
      <g
         id="g868"
         inkscape:label="uni"
         style="display:inline">
        <path
           d="m 700.759,440.262 c 0,0 5.05,-5.051 14.026,-4.489 8.977,0.561 25.248,3.927 29.736,6.172 4.489,2.244 17.392,7.294 22.442,9.538 5.05,2.244 13.467,5.049 16.271,8.416 2.805,3.366 5.611,14.027 1.683,16.832 -3.928,2.804 -8.977,0 -8.977,0 l -10.66,-5.612 -33.102,-20.197 z"
           id="path1164"
           inkscape:connector-curvature="0"
           style="display:inline;fill:url(#Gradient_39)" />
        <path
           d="m 701.466,440.969 c 7.691,-7.389 21.169,-3.524 30.292,-1.633 9.425,1.954 17.796,5.993 26.648,9.635 4.423,1.819 8.809,3.726 13.235,5.537 6.464,2.647 11.458,4.925 13.505,12.002 0.775,2.678 1.191,5.909 -0.023,8.511 -1.474,3.157 -6.511,1.987 -8.764,0.802 -2.916,-1.536 -5.832,-3.071 -8.748,-4.606 -10.379,-5.463 -20.213,-12.18 -30.221,-18.286 -9.021,-5.504 -19.607,-7.947 -29.578,-11.331 -2.263,-0.768 -4.525,-1.534 -6.788,-2.302 -1.224,-0.416 -1.746,1.517 -0.531,1.928 5.236,1.777 10.473,3.554 15.709,5.33 4.585,1.556 11.905,3.054 15.499,5.247 10.472,6.389 20.943,12.777 31.414,19.167 6.101,3.722 23.727,14.968 24.735,0.898 0.269,-3.766 -1.102,-7.816 -2.827,-11.102 -2.121,-4.043 -7.355,-5.862 -11.265,-7.527 -9.32,-3.969 -18.855,-7.535 -28.035,-11.819 -7.612,-3.552 -16.567,-4.919 -24.829,-6.006 -7.141,-0.938 -15.23,-1.251 -20.842,4.141 -0.932,0.894 0.484,2.308 1.414,1.414"
           id="path1166"
           inkscape:connector-curvature="0"
           style="display:inline;fill:#000000" />
        <path
           d="m 691.781,443.067 c -1.402,0.28 -2.244,0.561 -3.366,1.122 -0.28,0.842 -0.561,1.122 -0.561,2.244 -1.403,0.561 -1.963,1.403 -2.805,2.244 -1.403,6.452 7.574,9.538 11.782,10.66 0,0 5.05,-10e-4 7.294,2.244 2.244,2.245 8.416,6.733 12.904,7.294 4.489,0.562 7.294,1.122 7.294,1.122 0,0 6.734,2.805 9.538,4.489 2.805,1.683 10.1,6.171 14.027,6.171 3.926,0 12.342,-1.122 12.342,-1.122 0,0 9.54,2.805 11.222,0 1.683,-2.804 3.927,-6.731 -0.561,-12.342 -4.489,-5.612 -17.393,-14.028 -24.687,-17.394 -7.294,-3.366 -15.149,-5.05 -19.076,-5.61 -3.927,-0.561 -11.782,-2.805 -15.149,-3.927 -3.366,-1.122 -10.659,-3.366 -12.342,-2.806 -1.684,0.561 -5.612,2.244 -5.612,2.244 z"
           id="path1168"
           inkscape:connector-curvature="0"
           style="display:inline;fill:url(#Gradient_40)" />
        <path
           d="m 691.574,442.317 c -4.004,0.931 -4.372,2.962 -7.08,5.805 -1.973,2.074 1.082,6.138 2.486,7.469 2.541,2.408 6.342,3.611 9.634,4.533 1.392,0.39 2.967,0.296 4.404,0.672 2.516,0.66 4.985,3.545 7.128,5.039 4.628,3.23 9.042,3.818 14.49,4.731 3.742,0.628 7.519,2.827 10.781,4.679 3.971,2.257 7.787,4.7 12.204,6.006 4.069,1.203 9.31,-0.135 13.424,-0.636 5.888,-0.718 11.246,3.972 14.572,-3.162 3.992,-8.562 -6.536,-15.632 -12.368,-19.814 -9.65,-6.919 -20.093,-11.783 -31.794,-14.026 -4.833,-0.926 -9.549,-1.948 -14.281,-3.337 -4.397,-1.291 -8.793,-3.172 -13.372,-3.708 -4.991,-0.584 -8.317,2.296 -10.702,6.1 -0.549,0.875 0.785,1.614 1.363,0.797 1.759,-2.485 1.875,-2.946 4.501,-4.012 4.468,-1.813 8.342,-0.303 12.8,1.078 8.157,2.527 16.364,4.058 24.617,6.126 10.388,2.604 19.611,7.979 28.168,14.279 4.597,3.385 11.253,8.346 9.704,14.817 -1.349,5.639 -7.127,4.098 -11.308,3.016 -1.843,-0.477 -4.165,0.265 -6.02,0.468 -5.607,0.609 -9.446,0.363 -14.634,-2.113 -6.051,-2.887 -11.525,-7.29 -18.277,-8.403 -5.357,-0.884 -9.58,-1.957 -14.12,-5.1 -3.101,-2.146 -4.811,-4.422 -8.76,-4.908 -4.004,-0.492 -7.788,-1.711 -11.038,-4.238 -2.914,-2.268 -3.175,-5.522 0.153,-7.367 0.156,-0.087 0.333,-0.283 0.359,-0.467 0.278,-1.956 1.579,-2.403 3.38,-2.824 0.976,-0.229 0.562,-1.727 -0.414,-1.5"
           id="path1170"
           inkscape:connector-curvature="0"
           style="display:inline;fill:#000000" />
        <path
           d="m 696.369,442.929 c 0,0 4.309,-1.848 6.771,1.23 2.462,3.079 4.308,3.694 4.308,3.694 0,0 4.309,-4.31 8.002,-1.232 3.694,3.078 6.771,3.694 6.771,3.694 0,0 4.307,-2.463 7.385,0.615 3.079,3.078 6.771,5.541 8.002,4.31 1.232,-1.232 4.925,-1.848 7.387,1.23 2.462,3.078 3.693,6.771 6.155,5.54 2.462,-1.231 7.386,1.231 9.233,4.309 1.846,3.077 3.694,4.307 1.231,5.539 -2.463,1.231 -10.464,2.463 -7.386,3.078 3.077,0.615 6.156,0.615 9.848,0.615 3.693,0 6.155,0.001 4.924,-3.077 -1.231,-3.078 -3.077,-6.156 -4.924,-7.387 -1.847,-1.23 -8.003,-5.539 -9.233,-5.539 -1.231,0 -4.309,-2.463 -4.309,-2.463 0,0 -4.307,-4.923 -7.386,-5.539 -3.078,-0.616 -6.155,1.23 -8.002,-0.616 -1.846,-1.846 -7.386,-3.692 -9.848,-3.077 -2.462,0.615 -5.539,-0.615 -5.539,-0.615 0,0 -3.077,-3.079 -6.155,-3.079 -3.079,0 -6.771,0 -6.771,0 0,0 -0.616,-4.308 -3.693,-4.308 -3.077,0 -6.771,3.078 -6.771,3.078"
           id="path1172"
           inkscape:connector-curvature="0"
           style="display:inline;fill:#ff6100" />
        <path
           d="m 766.538,454.623 c 0,0 8.002,3.077 11.079,4.309 3.077,1.231 5.539,2.463 4.924,5.54 -0.615,3.077 3.693,4.925 1.231,6.155 -2.461,1.231 -6.77,-0.616 -6.77,-0.616 0,0 4.308,1.848 3.077,-1.846 -1.23,-3.693 -1.23,-6.155 -1.23,-6.155 l -6.772,-3.078 -6.154,-2.462 -6.772,-4.924 7.387,3.077"
           id="path1174"
           inkscape:connector-curvature="0"
           style="display:inline;fill:#ff6100" />
        <path
           d="m 716.065,439.236 c 0,0 6.157,-3.078 9.849,0 3.692,3.077 6.155,2.462 6.155,2.462 0,0 -3.077,1.846 -6.155,0 -3.078,-1.847 -4.925,-1.847 -4.925,-1.847 l -4.924,-0.615"
           id="path1176"
           inkscape:connector-curvature="0"
           style="display:inline;fill:#ff6100" />
        <path
           d="m 750.241,469.131 c 0.695,1.603 1.072,1.837 2.808,2.3 1.505,0.4 3.313,0.495 4.841,0.215 2.844,-0.522 6.61,-1.552 7.746,-4.536 0.201,-0.53 -0.512,-1.073 -0.97,-0.746 -2.073,1.477 -3.67,2.842 -6.34,3.065 -1.759,0.147 -5.888,0.736 -6.884,-0.999 -0.458,-0.798 -1.547,-0.099 -1.201,0.701"
           id="path1178"
           inkscape:connector-curvature="0"
           style="display:inline;fill:#ffffff" />
        <path
           d="m 773.709,464.994 c 1.63,1.315 3.516,2.007 5.575,1.27 0.695,-0.249 1.872,-0.727 2.102,-1.517 0.328,-1.129 0.766,-2.173 0.873,-3.353 0.061,-0.689 -0.866,-0.799 -1.194,-0.323 -0.682,0.991 -1.07,2.457 -2.132,3.057 -1.468,0.829 -2.994,0.674 -4.329,-0.294 -0.677,-0.49 -1.545,0.635 -0.895,1.16"
           id="path1180"
           inkscape:connector-curvature="0"
           style="display:inline;fill:#ffffff" />
        <path
           d="m 735.562,466.934 c -0.07,0.7 -0.431,2.333 0.066,2.903 0.719,0.825 1.537,1.528 2.429,2.159 2.031,1.439 4.841,1.925 7.021,0.53 0.729,-0.467 0.27,-1.654 -0.597,-1.414 -2.142,0.593 -3.649,0.644 -5.668,-0.409 -0.727,-0.379 -1.378,-0.961 -1.994,-1.49 -0.4,-0.344 -0.193,-1.788 -0.242,-2.279 -0.064,-0.653 -0.951,-0.653 -1.015,0"
           id="path1182"
           inkscape:connector-curvature="0"
           style="display:inline;fill:#ffffff" />
      </g>
    </g>
  </g>
</svg>
