<?xml version="1.0" encoding="UTF-8" standalone="no"?>
<svg
   xmlns:dc="http://purl.org/dc/elements/1.1/"
   xmlns:cc="http://creativecommons.org/ns#"
   xmlns:rdf="http://www.w3.org/1999/02/22-rdf-syntax-ns#"
   xmlns:svg="http://www.w3.org/2000/svg"
   xmlns="http://www.w3.org/2000/svg"
   xmlns:sodipodi="http://sodipodi.sourceforge.net/DTD/sodipodi-0.dtd"
   xmlns:inkscape="http://www.inkscape.org/namespaces/inkscape"
   version="1.1"
   x="0"
   y="0"
   width="256"
   height="183.4557"
   viewBox="0 0 256 183.4557"
   id="svg1309"
   sodipodi:docname="sushi_02_nigiri_maguro.svg"
   inkscape:version="0.92.4 (5da689c313, 2019-01-14)">
  <title
     id="title2120">Blue Fin Tuna Nigiri Sushi</title>
  <metadata
     id="metadata1313">
    <rdf:RDF>
      <cc:Work
         rdf:about="">
        <dc:format>image/svg+xml</dc:format>
        <dc:type
           rdf:resource="http://purl.org/dc/dcmitype/StillImage" />
        <dc:title>Blue Fin Tuna Nigiri Sushi</dc:title>
        <cc:license
           rdf:resource="http://creativecommons.org/publicdomain/zero/1.0/" />
        <dc:source>https://openclipart.org/detail/284028</dc:source>
        <dc:creator>
          <cc:Agent>
            <dc:title>oksmith</dc:title>
          </cc:Agent>
        </dc:creator>
      </cc:Work>
      <cc:License
         rdf:about="http://creativecommons.org/publicdomain/zero/1.0/">
        <cc:permits
           rdf:resource="http://creativecommons.org/ns#Reproduction" />
        <cc:permits
           rdf:resource="http://creativecommons.org/ns#Distribution" />
        <cc:permits
           rdf:resource="http://creativecommons.org/ns#DerivativeWorks" />
      </cc:License>
    </rdf:RDF>
  </metadata>
  <sodipodi:namedview
     pagecolor="#ffffff"
     bordercolor="#666666"
     borderopacity="1"
     objecttolerance="10"
     gridtolerance="10"
     guidetolerance="10"
     inkscape:pageopacity="0"
     inkscape:pageshadow="2"
     inkscape:window-width="1920"
     inkscape:window-height="1025"
     id="namedview1311"
     showgrid="false"
     inkscape:zoom="1.0199785"
     inkscape:cx="91.590931"
     inkscape:cy="-40.360942"
     inkscape:window-x="-8"
     inkscape:window-y="-8"
     inkscape:window-maximized="1"
     inkscape:current-layer="svg1309"
     fit-margin-top="0"
     fit-margin-left="0"
     fit-margin-right="0"
     fit-margin-bottom="0"
     inkscape:pagecheckerboard="true" />
  <defs
     id="defs256">
    <linearGradient
       id="Gradient_21"
       gradientUnits="userSpaceOnUse"
       x1="554.71002"
       y1="46.855"
       x2="528.99597"
       y2="86.311996">
      <stop
         offset="0"
         stop-color="#FFFFFF"
         id="stop124" />
      <stop
         offset="0.995"
         stop-color="#FF2662"
         id="stop126" />
      <stop
         offset="1"
         stop-color="#FF2662"
         id="stop128" />
    </linearGradient>
  </defs>
  <g
     id="g1521"
     transform="matrix(1.939762,0,0,1.939762,-890.75814,-78.438515)">
    <g
       id="g1494"
       inkscape:label="text"
       style="display:none">
      <path
         style="fill:#000000"
         inkscape:connector-curvature="0"
         id="path1216"
         d="m 500.236,153.633 c 0,0.627 -0.043,1.433 -0.131,2.417 -0.439,3.581 -0.878,9.266 -1.318,17.054 -0.176,1.432 -0.482,2.148 -0.922,2.148 -0.176,0 -0.439,-0.268 -0.791,-0.805 -0.088,-0.179 -0.176,-0.448 -0.263,-0.806 -0.088,-0.447 -0.131,-0.941 -0.131,-1.478 0.615,-6.892 1.009,-11.636 1.185,-14.233 -2.109,5.551 -3.689,9.713 -4.744,12.488 -0.351,0.896 -0.658,1.343 -0.922,1.343 -0.263,0 -0.482,-0.179 -0.658,-0.537 -0.176,-0.358 -0.352,-0.851 -0.527,-1.478 -0.176,-0.357 -0.133,-0.849 0.131,-1.476 -0.528,-2.417 -1.098,-4.879 -1.713,-7.386 -0.879,7.341 -1.405,11.951 -1.58,13.831 -0.088,0.806 -0.397,0.984 -0.922,0.537 -0.528,-0.447 -0.836,-1.566 -0.924,-3.357 0.527,-3.223 0.967,-6.177 1.318,-8.863 0.44,-3.58 0.658,-6.847 0.658,-9.802 -0.263,-0.448 -0.263,-0.716 0,-0.806 0.528,0 1.055,0.269 1.582,0.806 0.44,0.448 0.834,1.612 1.186,3.491 0.703,3.045 1.449,5.954 2.24,8.728 1.932,-3.848 3.821,-8.682 5.666,-14.501 0.176,-0.179 0.352,-0.134 0.528,0.133 0.439,0.717 0.789,1.568 1.052,2.552" />
      <path
         style="fill:#000000"
         inkscape:connector-curvature="0"
         id="path1218"
         d="m 503.057,169.613 c 0,0.447 0.044,0.939 0.131,1.476 0.088,0.448 0.22,0.762 0.396,0.941 0.264,0.358 0.702,0.537 1.317,0.537 1.757,0 2.899,-1.388 3.426,-4.163 0.44,-2.865 0.659,-4.7 0.659,-5.505 -0.088,-0.269 -0.395,-0.537 -0.923,-0.806 -0.263,-0.09 -0.702,-0.09 -1.317,0 -2.636,1.433 -3.865,3.939 -3.689,7.52 z m 8.96,-9.266 c -0.616,2.418 -1.098,4.566 -1.45,6.445 -0.351,1.881 -0.527,3.492 -0.527,4.834 0,0.359 0.044,0.672 0.132,0.941 0.176,0.358 0.527,0.358 1.055,0 0.614,-0.358 1.097,-0.94 1.449,-1.746 h 0.132 c 0.175,0.179 0.175,0.403 0,0.671 -0.352,1.254 -0.835,2.239 -1.45,2.955 -0.527,0.537 -1.054,0.805 -1.581,0.805 -0.527,0 -0.879,-0.178 -1.054,-0.537 -0.44,-0.627 -0.66,-1.119 -0.66,-1.477 -0.263,0.358 -0.614,0.716 -1.053,1.074 -0.264,0.269 -0.572,0.493 -0.922,0.672 -1.143,0.716 -2.24,0.672 -3.295,-0.135 -0.967,-1.074 -1.537,-2.104 -1.713,-3.088 -0.176,-0.984 -0.263,-1.88 -0.263,-2.686 0,-2.417 0.703,-4.565 2.108,-6.445 1.405,-1.969 2.942,-2.954 4.612,-2.954 0.614,0 1.098,0.135 1.449,0.402 0.264,0.09 0.484,0.18 0.66,0.269 l 1.449,-0.806 c 0.438,-0.178 0.746,-0.044 0.922,0.404 v 0.402" />
      <path
         style="fill:#000000"
         inkscape:connector-curvature="0"
         id="path1220"
         d="m 518.395,162.764 c -0.528,0.358 -0.791,0.985 -0.791,1.88 0,1.074 0.615,1.656 1.845,1.746 1.844,-0.269 2.723,-1.253 2.635,-2.954 -0.264,-0.985 -0.791,-1.478 -1.582,-1.478 -0.879,0 -1.58,0.269 -2.107,0.806 z m -2.635,12.488 c -0.088,1.522 1.14,2.283 3.689,2.283 1.141,0 1.932,-0.268 2.371,-0.805 0.352,-0.448 0.483,-0.941 0.395,-1.478 0,-0.627 -0.791,-1.253 -2.371,-1.88 -0.791,-0.268 -1.582,-0.537 -2.371,-0.805 -0.791,0.537 -1.364,1.432 -1.713,2.685 z m 11.33,-15.307 c 0.264,0.627 0.351,0.984 0.264,1.074 l -0.526,0.537 c -0.351,0.18 -0.748,0.045 -1.187,-0.403 -0.528,0.089 -1.274,0.269 -2.241,0.537 0.176,0.806 0.264,1.567 0.264,2.283 -0.088,1.433 -0.57,2.597 -1.449,3.491 -0.879,0.896 -2.108,1.343 -3.69,1.343 -0.527,0.09 -0.921,0.313 -1.185,0.671 0,0.448 0.394,0.762 1.185,0.94 1.055,0.359 1.934,0.672 2.637,0.94 1.053,0.627 1.668,1.164 1.844,1.611 0.439,0.627 0.703,1.433 0.791,2.417 0,1.521 -0.527,2.73 -1.582,3.626 -1.143,0.895 -2.24,1.343 -3.293,1.343 -1.582,0 -2.768,-0.404 -3.559,-1.208 -0.879,-0.896 -1.316,-2.015 -1.316,-3.358 0,-0.805 0.262,-1.521 0.789,-2.148 0.439,-0.627 0.879,-1.164 1.318,-1.611 -0.439,-0.358 -0.791,-0.851 -1.054,-1.478 -0.176,-0.357 -0.176,-0.806 0,-1.343 0.351,-0.626 0.966,-1.163 1.845,-1.611 -0.879,-0.805 -1.273,-1.879 -1.185,-3.223 0.088,-1.7 0.701,-3.043 1.844,-4.028 0.791,-0.805 1.755,-1.163 2.898,-1.074 0.703,0 1.494,0.403 2.373,1.209 0.965,-0.716 1.756,-1.208 2.371,-1.478 0.879,-0.179 1.492,0.135 1.844,0.941" />
      <path
         style="fill:#000000"
         inkscape:connector-curvature="0"
         id="path1222"
         d="m 539.397,161.153 c -0.263,0.806 -0.527,1.791 -0.79,2.954 -0.439,2.685 -0.703,4.61 -0.791,5.774 0,1.074 0.132,1.835 0.396,2.282 0.176,0.449 0.526,0.583 1.054,0.404 0.527,-0.179 1.053,-0.761 1.581,-1.746 0.088,0.269 0.088,0.716 0,1.342 -0.791,2.149 -1.625,3.223 -2.503,3.223 -0.528,0 -0.967,-0.179 -1.319,-0.537 -0.879,-0.805 -1.273,-2.282 -1.185,-4.431 -0.879,1.97 -1.757,3.358 -2.635,4.162 -0.703,0.627 -1.406,0.941 -2.108,0.941 -0.967,0 -1.669,-0.314 -2.109,-0.941 -0.527,-0.715 -0.791,-1.745 -0.791,-3.088 0,-0.805 0.44,-4.028 1.319,-9.668 -0.088,-0.357 -0.308,-0.357 -0.66,0 -0.439,0.18 -0.615,0.09 -0.527,-0.268 0.176,-0.537 0.571,-1.163 1.187,-1.88 0.526,-0.447 1.009,-0.447 1.449,0 0.526,0.627 0.79,1.208 0.79,1.745 0,0.807 -0.132,1.791 -0.395,2.954 -0.791,3.671 -1.186,5.82 -1.186,6.446 0,0.895 0.088,1.432 0.264,1.611 0.263,0.269 0.527,0.403 0.791,0.403 0.79,0 1.58,-0.447 2.371,-1.343 1.493,-1.701 2.547,-4.431 3.163,-8.191 0.087,-0.805 0.175,-1.521 0.262,-2.148 0.088,-1.253 0.352,-2.014 0.791,-2.283 0.44,-0.089 0.79,0 1.054,0.269 0.615,0.447 0.791,1.119 0.527,2.014" />
      <path
         style="fill:#000000"
         inkscape:connector-curvature="0"
         id="path1224"
         d="m 553.154,159.81 c 1.053,0.895 0.965,1.567 -0.263,2.014 -2.11,0.359 -3.823,1.433 -5.139,3.223 -1.143,1.522 -1.846,3.805 -2.109,6.848 -0.176,1.344 -0.352,2.194 -0.528,2.552 -0.176,0.358 -0.394,0.582 -0.658,0.67 -0.264,0 -0.527,-0.268 -0.791,-0.805 -0.352,-0.537 -0.482,-1.074 -0.395,-1.612 0.44,-2.685 0.747,-4.609 0.922,-5.773 0.088,-1.164 0.133,-2.372 0.133,-3.626 0,-0.357 -0.439,-0.984 -1.318,-1.88 -0.176,-0.179 -0.131,-0.447 0.133,-0.806 0.525,-0.447 1.183,-0.447 1.974,0 0.791,0.538 1.231,1.433 1.319,2.686 v 1.074 c 2.019,-2.864 3.953,-4.43 5.796,-4.699 l 0.924,0.134" />
      <path
         style="fill:#000000"
         inkscape:connector-curvature="0"
         id="path1226"
         d="m 558.608,163.973 c -0.791,1.433 -1.185,2.909 -1.185,4.431 0,1.074 0.132,1.969 0.395,2.685 0.264,0.627 0.922,1.03 1.977,1.209 1.054,0 2.107,-0.671 3.162,-2.015 1.054,-1.521 1.581,-3.043 1.581,-4.565 0,-1.074 -0.22,-1.924 -0.659,-2.551 -0.615,-0.894 -1.405,-1.343 -2.371,-1.343 -1.055,-0.089 -2.021,0.627 -2.9,2.149 z m 6.326,-3.358 c 0.702,0.717 1.053,1.747 1.053,3.089 -0.351,2.507 -0.614,4.566 -0.79,6.177 -0.263,1.343 -0.703,2.417 -1.318,3.223 -0.879,1.343 -2.152,2.103 -3.82,2.282 -1.143,0 -2.197,-0.447 -3.163,-1.343 -1.143,-0.984 -1.713,-2.729 -1.713,-5.236 -0.088,-2.506 0.57,-4.699 1.976,-6.58 1.318,-1.879 2.899,-2.82 4.744,-2.82 1.317,0 2.327,0.404 3.031,1.208" />
    </g>
    <g
       id="g1003"
       inkscape:label="sushi">
      <path
         style="display:none;fill:#b0b0b0"
         inkscape:connector-curvature="0"
         id="path262"
         d="m 466.443,75.606 c -3.33,2.59 -0.578,9.005 2.088,10.671 2.667,1.667 6,6.667 9.667,9 3.667,2.334 46,27.667 48,28.667 2,1 10.359,3.78 17.026,6.447 6.667,2.667 15.974,7.219 23.974,2.553 8,-4.667 -11.667,-49 -31,-61 -19.333,-12 -18.113,-14.738 -29.447,-13.071 -11.334,1.667 -37.375,14.062 -37.375,14.062 0,0 0.397,0.08 -2.933,2.671"
         inkscape:label="shadow" />
      <path
         style="display:inline;fill:#ffffff"
         inkscape:connector-curvature="0"
         id="path318"
         d="m 475.484,75.944 c 0,0 -1.83,0.459 -1.466,3.73 0.363,3.27 1.998,4.178 1.998,4.178 0,0 -1.998,3.452 -0.364,5.633 1.636,2.18 4.362,1.816 4.362,1.816 0,0 0.363,3.089 2.543,4.906 2.18,1.817 3.816,1.091 3.816,1.091 0,0 0.363,3.088 2.906,4.36 2.544,1.272 4.907,0.727 4.907,0.727 0,0 -0.182,2.18 2.361,3.634 2.544,1.453 4.906,0.545 4.906,0.545 0,0 0,2.362 2.725,3.634 2.726,1.272 5.814,0.726 5.814,0.726 0,0 0,3.089 2.362,3.998 2.363,0.908 7.631,0.181 7.631,0.181 0,0 1.454,5.087 4.724,5.814 3.271,0.727 5.27,-1.635 5.27,-1.635 0,0 2.542,1.636 4.542,0.727 0.653,-0.297 1.625,-1.075 2.636,-1.987 2.556,-2.307 2.394,1.361 5.16,-1.649 0,0 -23.421,-28.706 -37.048,-37.245 -22.218,-13.922 -28.485,-7.881 -30.197,-7.31 l 0.412,4.126"
         inkscape:label="rice" />
      <path
         style="display:inline;fill:#b0b0b0"
         inkscape:connector-curvature="0"
         id="path320"
         d="m 475.484,72.231 c 0,0 -0.195,1.991 -1.103,4.717 -0.908,2.726 3.815,-0.727 5.088,0.909 1.271,1.635 0.908,3.088 1.998,2.906 1.09,-0.181 5.814,-2.725 7.267,-0.181 1.454,2.544 1.817,3.634 1.817,3.634 0,0 0.546,0.363 1.272,0 0.727,-0.364 5.632,-1.454 5.995,0.363 0.365,1.817 0.546,3.089 0.546,3.089 0,0 4.179,-0.909 5.45,0.727 1.273,1.635 1.454,5.087 2.726,5.45 1.273,0.364 5.633,-0.363 5.996,1.636 0.363,1.998 1.636,4.724 3.452,5.087 1.817,0.363 4.543,0.182 5.088,1.999 0.545,1.817 0.363,2.906 0.182,3.997 -0.182,1.09 1.271,1.453 1.998,1.272 0.726,-0.182 3.089,0.726 1.998,2.362 -1.09,1.635 -1.816,1.998 -1.816,1.998 0,0 5.265,0.941 5.265,2.94 0,1.998 0.413,4.95 0.413,4.95 l 3.713,0.206 3.919,-2.062 c 0,0 2.077,0.496 3.713,-0.413 1.636,-0.909 0,-2.475 0,-2.475 0,0 -27.562,-32.216 -34.648,-35.85 -7.085,-3.634 -30.329,-7.261 -30.329,-7.261"
         inkscape:label="tuna_shadow" />
      <g
         id="g856"
         inkscape:label="rice_outline"
         style="display:inline">
        <path
           d="m 475.156,75.103 c -0.558,0.574 -1.227,0.965 -1.671,1.629 -0.557,0.835 -0.724,2.052 -0.693,3.023 0.073,2.241 1.034,4.078 3.237,4.655 0.854,0.224 1.705,-0.966 0.923,-1.587 -0.268,-0.213 -0.95,-0.548 -1.123,-0.831 -0.496,-0.81 -0.691,-1.74 -0.733,-2.678 -0.029,-0.664 -0.218,-1.561 0.334,-2.032 0.417,-0.355 0.559,-0.855 0.88,-1.289 0.503,-0.683 -0.583,-1.474 -1.154,-0.89"
           id="path780"
           inkscape:connector-curvature="0"
           style="fill:#000000" />
        <path
           d="m 475.654,83.473 c -2.111,1.962 -2.119,4.955 -0.614,7.318 1.332,2.091 4.278,2.949 5.58,0.383 0.411,-0.811 -0.605,-1.669 -1.282,-0.99 -1.092,1.095 -2.066,0.182 -2.721,-0.896 -0.848,-1.396 -0.881,-3.338 0.291,-4.561 0.794,-0.827 -0.417,-2.031 -1.254,-1.254"
           id="path782"
           inkscape:connector-curvature="0"
           style="fill:#000000" />
        <path
           d="m 479.703,90.536 c -0.444,2.389 0.293,4.546 1.938,6.346 1.517,1.661 3.777,2.124 5.328,0.328 0.428,-0.498 -0.1,-1.12 -0.673,-0.871 -2.908,1.263 -5.188,-3.242 -4.928,-5.578 0.106,-0.949 -1.491,-1.159 -1.665,-0.225"
           id="path784"
           inkscape:connector-curvature="0"
           style="fill:#000000" />
        <path
           d="m 485.838,96.818 c -0.367,4.06 4.28,7.681 8.209,6.188 0.83,-0.315 0.663,-1.408 -0.203,-1.504 -1.614,-0.178 -3.013,-0.082 -4.479,-0.928 -1.336,-0.771 -2.052,-2.244 -2.051,-3.756 10e-4,-0.967 -1.392,-0.933 -1.476,0"
           id="path786"
           inkscape:connector-curvature="0"
           style="fill:#000000" />
        <path
           d="m 493.756,100.865 c -0.874,4.631 3.103,8.167 7.606,6.557 1.138,-0.406 0.685,-2.178 -0.504,-1.83 -3.224,0.942 -5.978,-1.095 -5.69,-4.536 0.067,-0.806 -1.262,-0.985 -1.412,-0.191"
           id="path788"
           inkscape:connector-curvature="0"
           style="fill:#000000" />
        <path
           d="m 501.022,105.105 c -0.401,2.738 0.279,4.75 2.705,6.141 1.717,0.986 4.864,1.682 6.372,0.011 0.416,-0.461 0.141,-1.228 -0.511,-1.234 -1.561,-0.013 -2.778,0.335 -4.332,-0.196 -0.755,-0.258 -1.434,-0.75 -2.012,-1.284 -0.778,-0.719 -0.686,-2.471 -0.835,-3.438 -0.105,-0.688 -1.285,-0.692 -1.387,0"
           id="path790"
           inkscape:connector-curvature="0"
           style="fill:#000000" />
        <path
           d="m 509.444,109.328 c -0.327,1.454 -0.315,2.751 0.156,4.174 0.419,1.265 1.389,1.75 2.579,2.281 2.565,1.145 5.676,1.387 8.114,-0.096 0.81,-0.492 0.265,-1.673 -0.626,-1.486 -1.838,0.387 -3.745,0.417 -5.566,-0.033 -0.83,-0.205 -1.581,-0.59 -2.322,-1.004 -0.954,-0.534 -0.866,-2.741 -0.807,-3.629 0.057,-0.878 -1.335,-1.057 -1.528,-0.207"
           id="path792"
           inkscape:connector-curvature="0"
           style="fill:#000000" />
        <path
           d="m 519.595,114.38 c -0.147,3.032 1.652,5.751 4.246,7.217 2.502,1.414 5.236,0.597 6.551,-1.894 0.57,-1.08 -1.021,-2.02 -1.639,-0.958 -1.092,1.874 -2.899,1.755 -4.575,0.743 -1.741,-1.052 -2.779,-3.118 -2.794,-5.108 -0.009,-1.16 -1.734,-1.147 -1.789,0"
           id="path794"
           inkscape:connector-curvature="0"
           style="fill:#000000" />
        <path
           d="m 528.334,116.976 c 0.22,1.04 0.145,1.799 0.876,2.642 0.722,0.831 1.842,1.345 2.894,1.57 2.132,0.455 4.614,-0.739 5.488,-2.736 0.389,-0.888 -0.595,-1.748 -1.368,-1.055 -1.077,0.965 -1.942,1.829 -3.473,1.845 -1.588,0.017 -2.6,-1.3 -3.151,-2.614 -0.321,-0.763 -1.446,-0.501 -1.266,0.348"
           id="path796"
           inkscape:connector-curvature="0"
           style="fill:#000000" />
        <path
           d="m 536.16,118.067 c 1.084,1.45 2.795,1.627 4.489,1.375 1.112,-0.165 0.852,-2.086 -0.265,-1.964 -0.918,0.1 -2.128,0.269 -2.819,-0.495 -0.673,-0.746 -2.016,0.264 -1.405,1.084"
           id="path866"
           inkscape:connector-curvature="0"
           style="fill:#000000" />
        <path
           style="display:inline;fill:#000000"
           inkscape:connector-curvature="0"
           id="path864"
           d="m 476.176,75.548 c 0.037,-1.005 0.105,-2.012 0.054,-3.02 -0.064,-1.284 -1.927,-1.284 -1.992,0 -0.05,1.008 0.018,2.015 0.055,3.02 0.045,1.214 1.838,1.214 1.883,0" />
      </g>
      <g
         id="g861"
         inkscape:label="tuna"
         style="display:inline">
        <path
           d="m 484.19,43.033 c 0,0 -8.66,3.701 -12.904,8.416 -4.244,4.715 -11.008,6.544 -11.008,11.26 0,4.715 1.887,8.015 6.13,8.487 4.243,0.472 8.016,0.943 10.845,1.886 2.829,0.943 11.316,4.008 19.332,8.723 8.016,4.716 16.976,10.846 24.519,17.447 7.544,6.601 16.974,15.089 18.861,17.446 1.887,2.357 8.015,9.43 8.015,9.43 0,0 3.774,4.244 11.318,6.602 7.544,2.357 15.56,1.885 20.275,-0.472 4.715,-2.357 8.488,-6.13 8.488,-6.13 l 2.357,-4.243 -1.415,-5.659 -6.13,-9.902 -7.072,-16.503 c 0,0 -3.769,-9.352 -8.013,-13.124 -4.244,-3.773 -17.393,-11.783 -17.393,-11.783 l -21.881,-11.782 -15.71,-8.976 c 0,0 -6.977,-2.806 -11.221,-2.806 -4.244,0 -17.393,1.683 -17.393,1.683 z"
           id="path500"
           inkscape:connector-curvature="0"
           style="display:inline;fill:url(#Gradient_21)" />
        <path
           d="m 502.423,40.825 -11.317,1.415 c 0,0 -6.129,-0.001 -9.43,1.885 -3.301,1.886 -4.716,2.829 -4.716,2.829 0,0 5.187,-3.3 18.861,2.358 13.674,5.658 20.275,10.844 21.69,10.373 1.415,-0.471 -3.772,-5.187 -7.544,-7.072 -3.773,-1.886 -13.674,-7.073 -13.674,-7.073 0,0 6.601,-1.415 13.202,1.414 6.602,2.829 45.087,25.194 51.217,31.796 6.13,6.601 10.846,13.428 12.731,18.144 1.886,4.715 -2.357,12.26 2.358,16.503 4.715,4.244 12.259,1.886 13.202,5.658 0.943,3.772 -0.472,-3.3 -2.829,-7.544 -2.358,-4.244 -7.072,-12.259 -7.072,-12.259 0,0 -6.712,-15.889 -9.07,-19.189 -2.357,-3.301 -9.32,-7.443 -9.32,-7.443 L 548.924,65.076 526.47,52.141 c 0,0 -11.787,-7.072 -15.56,-8.487 -3.772,-1.414 -8.487,-2.829 -8.487,-2.829"
           id="path552"
           inkscape:connector-curvature="0"
           style="display:inline;fill:#ffffff" />
        <path
           d="m 459.407,64.962 c 1.3,8.003 10.923,7.042 16.984,8.33 6.13,1.302 12.701,5.185 18.162,8.042 21.661,11.335 38.838,29.631 54.872,47.735 5.216,5.889 17.092,6.555 24.192,5.57 5.821,-0.807 17.154,-5.683 17.556,-12.709 0.318,-5.56 -5.786,-13.492 -8.183,-18.212 -4.373,-8.614 -6.734,-18.549 -13.311,-25.829 -8.145,-9.012 -20.621,-14.292 -31.121,-20.018 -6.094,-3.322 -12.076,-6.828 -18.07,-10.326 -5.055,-2.95 -10.313,-5.913 -16.164,-6.851 -4.378,-0.701 -9.596,0.214 -13.999,0.598 -5.041,0.44 -9.842,1.739 -14.16,4.413 -4.919,3.046 -8.494,8.389 -12.833,12.22 -2.181,1.924 -4.285,3.718 -4.112,6.837 0.064,1.169 1.866,1.184 1.828,0 -0.117,-3.656 4.883,-6.488 7.242,-8.711 5.619,-5.294 9.36,-10.184 17.252,-12.075 4.889,-1.171 10.003,-0.921 14.977,-1.403 6.845,-0.665 13.292,3.39 18.982,6.662 10.783,6.202 21.707,12.147 32.491,18.344 5.837,3.355 11.577,6.836 16.3,11.697 4.066,4.185 5.838,9.338 7.98,14.613 2.828,6.963 6.236,14.093 10.199,20.496 3.061,4.945 3.994,9.218 -1.01,12.816 -5.615,4.037 -11.859,6.178 -18.76,5.869 -5.068,-0.226 -11.428,-1.604 -15.471,-4.868 -2.594,-2.095 -4.704,-5.272 -6.942,-7.732 -9.16,-10.064 -18.967,-19.713 -29.555,-28.273 -9.604,-7.766 -20.639,-13.816 -32.121,-18.308 -2.492,-0.975 -4.867,-2.1 -7.52,-2.538 -5.131,-0.845 -13.106,-0.156 -14.232,-6.789 -0.162,-0.96 -1.607,-0.549 -1.453,0.4"
           id="path862"
           inkscape:connector-curvature="0"
           style="display:inline;fill:#000000" />
      </g>
    </g>
  </g>
</svg>
