<?xml version="1.0" encoding="UTF-8" standalone="no"?>
<svg
   xmlns:dc="http://purl.org/dc/elements/1.1/"
   xmlns:cc="http://creativecommons.org/ns#"
   xmlns:rdf="http://www.w3.org/1999/02/22-rdf-syntax-ns#"
   xmlns:svg="http://www.w3.org/2000/svg"
   xmlns="http://www.w3.org/2000/svg"
   xmlns:sodipodi="http://sodipodi.sourceforge.net/DTD/sodipodi-0.dtd"
   xmlns:inkscape="http://www.inkscape.org/namespaces/inkscape"
   version="1.1"
   x="0"
   y="0"
   width="256"
   height="205.04791"
   viewBox="0 0 256 205.04791"
   id="svg1309"
   sodipodi:docname="sushi_02_amaebi.svg"
   inkscape:version="0.92.4 (5da689c313, 2019-01-14)">
  <title
     id="title2120">Sweet Shrimp Sushi</title>
  <metadata
     id="metadata1313">
    <rdf:RDF>
      <cc:Work
         rdf:about="">
        <dc:format>image/svg+xml</dc:format>
        <dc:type
           rdf:resource="http://purl.org/dc/dcmitype/StillImage" />
        <dc:title>Sweet Shrimp Sushi</dc:title>
        <cc:license
           rdf:resource="http://creativecommons.org/publicdomain/zero/1.0/" />
        <dc:source>https://openclipart.org/detail/284028</dc:source>
        <dc:creator>
          <cc:Agent>
            <dc:title>oksmith</dc:title>
          </cc:Agent>
        </dc:creator>
      </cc:Work>
      <cc:License
         rdf:about="http://creativecommons.org/publicdomain/zero/1.0/">
        <cc:permits
           rdf:resource="http://creativecommons.org/ns#Reproduction" />
        <cc:permits
           rdf:resource="http://creativecommons.org/ns#Distribution" />
        <cc:permits
           rdf:resource="http://creativecommons.org/ns#DerivativeWorks" />
      </cc:License>
    </rdf:RDF>
  </metadata>
  <sodipodi:namedview
     pagecolor="#ffffff"
     bordercolor="#666666"
     borderopacity="1"
     objecttolerance="10"
     gridtolerance="10"
     guidetolerance="10"
     inkscape:pageopacity="0"
     inkscape:pageshadow="2"
     inkscape:window-width="1920"
     inkscape:window-height="1025"
     id="namedview1311"
     showgrid="false"
     inkscape:zoom="1.0199785"
     inkscape:cx="-250.15295"
     inkscape:cy="-19.573554"
     inkscape:window-x="-8"
     inkscape:window-y="-8"
     inkscape:window-maximized="1"
     inkscape:current-layer="svg1309"
     fit-margin-top="0"
     fit-margin-left="0"
     fit-margin-right="0"
     fit-margin-bottom="0" />
  <defs
     id="defs256">
    <linearGradient
       id="Gradient_22"
       gradientUnits="userSpaceOnUse"
       x1="522.32001"
       y1="248.01801"
       x2="511.974"
       y2="263.89301">
      <stop
         offset="0"
         stop-color="#FFFFFF"
         id="stop131" />
      <stop
         offset="0.995"
         stop-color="#FFB8A4"
         id="stop133" />
      <stop
         offset="1"
         stop-color="#FFB8A4"
         id="stop135" />
    </linearGradient>
    <linearGradient
       id="Gradient_23"
       gradientUnits="userSpaceOnUse"
       x1="532.71198"
       y1="243.86501"
       x2="525.85498"
       y2="254.38699">
      <stop
         offset="0"
         stop-color="#FFFFFF"
         id="stop138" />
      <stop
         offset="0.995"
         stop-color="#FFB8A4"
         id="stop140" />
      <stop
         offset="1"
         stop-color="#FFB8A4"
         id="stop142" />
    </linearGradient>
    <linearGradient
       id="Gradient_24"
       gradientUnits="userSpaceOnUse"
       x1="559.94299"
       y1="279.95499"
       x2="551.92999"
       y2="292.25">
      <stop
         offset="0"
         stop-color="#FFFFFF"
         id="stop145" />
      <stop
         offset="0.995"
         stop-color="#FF535D"
         id="stop147" />
      <stop
         offset="1"
         stop-color="#FF535D"
         id="stop149" />
    </linearGradient>
    <linearGradient
       id="Gradient_25"
       gradientUnits="userSpaceOnUse"
       x1="569.883"
       y1="275.70599"
       x2="564.26801"
       y2="284.32199">
      <stop
         offset="0"
         stop-color="#FFFFFF"
         id="stop152" />
      <stop
         offset="0.995"
         stop-color="#FF535D"
         id="stop154" />
      <stop
         offset="1"
         stop-color="#FF535D"
         id="stop156" />
    </linearGradient>
    <linearGradient
       id="Gradient_26"
       gradientUnits="userSpaceOnUse"
       x1="582.995"
       y1="302.84"
       x2="572.263"
       y2="319.30801">
      <stop
         offset="0"
         stop-color="#FFFFFF"
         id="stop159" />
      <stop
         offset="0.995"
         stop-color="#FF535D"
         id="stop161" />
      <stop
         offset="1"
         stop-color="#FF535D"
         id="stop163" />
    </linearGradient>
    <linearGradient
       id="Gradient_27"
       gradientUnits="userSpaceOnUse"
       x1="595.58502"
       y1="293.763"
       x2="585.39801"
       y2="309.39499">
      <stop
         offset="0"
         stop-color="#FFFFFF"
         id="stop166" />
      <stop
         offset="0.995"
         stop-color="#FF535D"
         id="stop168" />
      <stop
         offset="1"
         stop-color="#FF535D"
         id="stop170" />
    </linearGradient>
    <linearGradient
       id="Gradient_28"
       gradientUnits="userSpaceOnUse"
       x1="520.117"
       y1="248.89799"
       x2="510.61499"
       y2="263.479">
      <stop
         offset="0"
         stop-color="#FFFFFF"
         id="stop173" />
      <stop
         offset="0.995"
         stop-color="#FF535D"
         id="stop175" />
      <stop
         offset="1"
         stop-color="#FF535D"
         id="stop177" />
    </linearGradient>
    <linearGradient
       id="Gradient_29"
       gradientUnits="userSpaceOnUse"
       x1="507.771"
       y1="232.55"
       x2="503.375"
       y2="239.295">
      <stop
         offset="0"
         stop-color="#FFFFFF"
         id="stop180" />
      <stop
         offset="0.995"
         stop-color="#FF535D"
         id="stop182" />
      <stop
         offset="1"
         stop-color="#FF535D"
         id="stop184" />
    </linearGradient>
    <linearGradient
       id="Gradient_30"
       gradientUnits="userSpaceOnUse"
       x1="518.974"
       y1="237.08299"
       x2="513.745"
       y2="245.106">
      <stop
         offset="0"
         stop-color="#FFFFFF"
         id="stop187" />
      <stop
         offset="0.995"
         stop-color="#FF535D"
         id="stop189" />
      <stop
         offset="1"
         stop-color="#FF535D"
         id="stop191" />
    </linearGradient>
    <linearGradient
       id="Gradient_31"
       gradientUnits="userSpaceOnUse"
       x1="532.07898"
       y1="244.838"
       x2="526.44202"
       y2="253.48801">
      <stop
         offset="0"
         stop-color="#FFFFFF"
         id="stop194" />
      <stop
         offset="0.995"
         stop-color="#FF535D"
         id="stop196" />
      <stop
         offset="1"
         stop-color="#FF535D"
         id="stop198" />
    </linearGradient>
    <linearGradient
       id="Gradient_32"
       gradientUnits="userSpaceOnUse"
       x1="547.39203"
       y1="256.34601"
       x2="542.00098"
       y2="264.61801">
      <stop
         offset="0"
         stop-color="#FFFFFF"
         id="stop201" />
      <stop
         offset="0.995"
         stop-color="#FF535D"
         id="stop203" />
      <stop
         offset="1"
         stop-color="#FF535D"
         id="stop205" />
    </linearGradient>
  </defs>
  <g
     id="g1829"
     transform="matrix(1.9371249,0,0,1.9371249,-917.26984,-444.35719)">
    <g
       id="g1711"
       style="display:none"
       inkscape:label="text">
      <path
         style="fill:#000000"
         inkscape:connector-curvature="0"
         id="path1280"
         d="m 489.514,362.97 c 0.789,0 1.537,0 2.24,0 1.228,0 2.371,-0.224 3.426,-0.672 -0.264,-2.596 -0.748,-5.952 -1.45,-10.071 -0.966,1.612 -2.373,5.193 -4.216,10.743 z m 7.906,-1.746 c 0.789,4.924 1.228,7.789 1.316,8.594 0,0.806 -0.306,1.209 -0.922,1.209 -0.615,0.089 -1.23,-0.537 -1.845,-1.88 0,-1.253 -0.131,-2.909 -0.395,-4.969 -2.197,1.164 -3.91,1.746 -5.138,1.746 -0.967,0 -1.538,-0.313 -1.713,-0.94 -0.967,2.775 -1.625,4.611 -1.977,5.506 -0.527,0.805 -0.922,1.029 -1.185,0.67 -0.264,-0.267 -0.397,-0.626 -0.397,-1.074 -0.088,-0.447 -0.131,-1.118 -0.131,-2.013 1.492,-3.939 4.084,-10.519 7.774,-19.74 0,-0.805 0.045,-1.343 0.132,-1.611 0.44,-0.269 0.747,-0.314 0.922,-0.135 l 1.186,1.209 c 0.791,4.029 1.582,8.505 2.373,13.428" />
      <path
         style="fill:#000000"
         inkscape:connector-curvature="0"
         id="path1282"
         d="m 512.729,356.39 c -0.351,3.223 -0.746,6.625 -1.185,10.205 0,0.448 0.044,0.852 0.132,1.209 0.263,0.18 0.527,0.18 0.791,0 1.404,-1.701 2.195,-3.089 2.371,-4.163 0.351,-0.179 0.439,-0.089 0.264,0.268 -0.264,2.149 -0.748,3.895 -1.45,5.238 -0.527,1.074 -1.23,1.611 -2.108,1.611 -1.318,-0.357 -2.021,-1.253 -2.108,-2.685 0.703,-5.55 1.185,-9.4 1.449,-11.548 -0.615,0 -1.274,1.074 -1.976,3.222 -0.791,1.88 -1.362,4.476 -1.713,7.788 -0.175,1.075 -0.263,1.791 -0.263,2.149 0,0.537 -0.176,0.895 -0.528,1.074 -0.703,-0.09 -1.185,-0.806 -1.449,-2.148 0.176,-0.716 0.351,-1.477 0.526,-2.284 0.616,-3.759 1.011,-6.176 1.187,-7.251 0.088,-1.163 0.132,-1.968 0.132,-2.417 -0.264,-0.178 -0.484,-0.043 -0.659,0.404 -0.704,1.254 -1.362,2.865 -1.977,4.834 -0.527,1.791 -1.142,4.61 -1.845,8.459 -0.263,0.448 -0.571,0.538 -0.922,0.268 -0.263,-0.178 -0.439,-0.402 -0.527,-0.671 -0.176,-0.268 -0.264,-0.671 -0.264,-1.209 0,-0.537 0.22,-1.835 0.66,-3.893 0.263,-1.522 0.482,-2.82 0.658,-3.895 0.176,-1.074 0.263,-1.88 0.263,-2.417 0,-0.626 -0.043,-1.028 -0.131,-1.208 -0.088,-0.268 -0.264,-0.358 -0.527,-0.268 -0.527,0 -0.879,0.09 -1.054,0.268 -0.176,-0.09 -0.264,-0.178 -0.264,-0.268 0.527,-1.343 1.273,-2.015 2.24,-2.015 0.527,0 0.923,0.269 1.187,0.806 0.174,0.358 0.262,0.94 0.262,1.746 0,0.717 -0.131,1.746 -0.394,3.088 1.141,-3.043 2.063,-4.878 2.766,-5.505 0.352,-0.179 0.703,-0.224 1.054,-0.135 0.615,0.18 0.923,0.537 0.923,1.074 0.176,0.627 0.176,1.523 0,2.686 1.142,-2.416 2.063,-3.804 2.767,-4.162 0.263,-0.179 0.527,-0.179 0.791,0 0.614,0.358 0.921,0.94 0.921,1.745" />
      <path
         style="fill:#000000"
         inkscape:connector-curvature="0"
         id="path1284"
         d="m 519.213,365.118 c 0,0.448 0.043,0.94 0.131,1.477 0.088,0.448 0.22,0.762 0.396,0.94 0.264,0.359 0.701,0.538 1.317,0.538 1.757,0 2.898,-1.388 3.425,-4.164 0.44,-2.864 0.661,-4.699 0.661,-5.504 -0.088,-0.269 -0.397,-0.538 -0.924,-0.806 -0.264,-0.09 -0.701,-0.09 -1.317,0 -2.636,1.433 -3.865,3.939 -3.689,7.519 z m 8.959,-9.265 c -0.615,2.418 -1.098,4.566 -1.449,6.445 -0.352,1.881 -0.528,3.492 -0.528,4.834 0,0.358 0.045,0.672 0.133,0.941 0.176,0.358 0.527,0.358 1.055,0 0.613,-0.358 1.097,-0.94 1.449,-1.747 h 0.131 c 0.176,0.18 0.176,0.404 0,0.672 -0.352,1.254 -0.834,2.239 -1.449,2.954 -0.528,0.538 -1.055,0.806 -1.58,0.806 -0.528,0 -0.879,-0.179 -1.055,-0.537 -0.44,-0.627 -0.66,-1.119 -0.66,-1.478 -0.264,0.359 -0.614,0.717 -1.053,1.075 -0.264,0.269 -0.572,0.493 -0.922,0.672 -1.142,0.716 -2.24,0.671 -3.295,-0.135 -0.967,-1.074 -1.537,-2.104 -1.713,-3.088 -0.175,-0.985 -0.263,-1.88 -0.263,-2.686 0,-2.417 0.703,-4.565 2.107,-6.445 1.406,-1.969 2.943,-2.954 4.613,-2.954 0.614,0 1.098,0.135 1.45,0.402 0.263,0.09 0.482,0.18 0.658,0.269 l 1.449,-0.806 c 0.439,-0.179 0.746,-0.044 0.922,0.403 v 0.403" />
      <path
         style="fill:#000000"
         inkscape:connector-curvature="0"
         id="path1286"
         d="m 536.896,357.867 c -0.791,0.627 -1.494,1.835 -2.109,3.625 3.338,-0.088 5.359,-0.491 6.063,-1.208 0.261,-0.268 0.394,-0.671 0.394,-1.209 0,-0.626 -0.133,-1.073 -0.394,-1.342 -0.528,-0.537 -1.143,-0.806 -1.846,-0.806 -0.615,0 -1.318,0.313 -2.108,0.94 z m 5.403,-2.148 c 0.701,0.717 1.053,1.611 1.053,2.686 0,1.342 -0.352,2.372 -1.053,3.087 -1.494,1.523 -4.086,2.15 -7.776,1.88 0,1.881 0.352,3.179 1.055,3.895 0.44,0.447 1.141,0.671 2.108,0.671 0.791,0 1.669,-0.224 2.636,-0.671 1.317,-0.627 2.502,-1.611 3.557,-2.954 0.351,-0.269 0.484,-0.045 0.396,0.671 -1.494,3.939 -3.734,5.908 -6.72,5.908 -1.231,0 -2.284,-0.447 -3.162,-1.343 -1.407,-1.432 -2.11,-3.356 -2.11,-5.773 0,-2.865 0.791,-5.103 2.373,-6.714 1.58,-1.612 3.205,-2.417 4.875,-2.417 1.141,0 2.065,0.358 2.768,1.074" />
      <path
         style="fill:#000000"
         inkscape:connector-curvature="0"
         id="path1288"
         d="m 552.075,358.405 c -1.67,1.611 -2.592,4.52 -2.767,8.727 0.175,0.27 0.439,0.493 0.791,0.672 0.878,0.18 1.625,0.269 2.24,0.269 1.405,0 2.503,-0.583 3.294,-1.747 0.79,-1.163 1.185,-2.684 1.185,-4.565 0,-1.969 -0.263,-3.223 -0.79,-3.76 -0.439,-0.447 -0.923,-0.671 -1.45,-0.671 -0.967,0 -1.801,0.359 -2.503,1.075 z m -0.659,-10.475 c -0.352,2.775 -0.746,6.088 -1.186,9.937 0.44,-0.537 0.966,-1.074 1.582,-1.611 0.965,-0.716 1.887,-1.074 2.766,-1.074 1.055,0 1.977,0.403 2.768,1.208 1.141,1.164 1.713,3 1.713,5.506 0,2.954 -0.66,5.147 -1.977,6.579 -1.406,1.522 -2.855,2.283 -4.348,2.283 -1.23,0 -2.372,-0.806 -3.426,-2.417 l -0.131,2.149 -0.396,0.402 c -0.263,0.269 -0.659,0.224 -1.186,-0.134 -0.352,-0.179 -0.527,-0.716 -0.527,-1.611 0.351,-3.491 0.79,-7.43 1.318,-11.817 0.439,-3.849 0.659,-6.311 0.659,-7.385 l -0.396,-0.135 c 0.176,-1.432 0.571,-2.641 1.186,-3.625 0.264,-0.179 0.483,-0.179 0.659,0 0.527,0.447 0.834,1.029 0.922,1.745" />
      <path
         style="fill:#000000"
         inkscape:connector-curvature="0"
         id="path1290"
         d="m 569.757,348.467 c 0.176,0.358 0.264,0.672 0.264,0.94 0,0.985 -0.308,1.88 -0.922,2.686 -0.176,0.09 -0.44,0.09 -0.791,0 -0.791,-0.716 -1.142,-1.253 -1.054,-1.611 0.439,-1.253 0.834,-2.417 1.185,-3.492 0,-0.357 0.132,-0.402 0.396,-0.134 0.439,0.627 0.746,1.164 0.922,1.611 z m -0.79,8.863 c 0.088,0.359 0.132,1.03 0.132,2.014 l -0.264,2.148 c -0.176,1.791 -0.396,3.537 -0.659,5.238 -0.176,0.717 0,1.074 0.527,1.074 0.527,0 1.098,-0.134 1.713,-0.403 0.527,-0.358 1.054,-0.806 1.581,-1.343 0.352,-0.268 0.483,-0.134 0.396,0.403 -0.44,1.343 -1.099,2.462 -1.977,3.357 -0.791,0.806 -1.625,1.209 -2.503,1.209 -0.439,0 -0.835,-0.179 -1.186,-0.537 -0.616,-0.627 -0.922,-1.702 -0.922,-3.223 0,-0.716 0.174,-2.327 0.526,-4.834 0.264,-2.686 0.527,-4.879 0.791,-6.58 0.44,-1.253 0.878,-1.387 1.317,-0.403 0.264,0.806 0.44,1.433 0.528,1.88" />
    </g>
    <g
       id="g1766">
      <path
         style="fill:#b0b0b0"
         inkscape:connector-curvature="0"
         id="path276"
         d="m 482.061,269.101 c 0,0 -4.908,-1.785 -7.139,-0.446 -2.232,1.339 -1.339,5.801 -0.446,7.14 0.892,1.338 4.462,5.8 5.354,7.585 0.893,1.785 8.924,7.14 8.924,7.14 l 7.586,5.354 11.601,6.694 8.033,4.462 11.601,5.8 7.586,2.678 c 0,0 4.908,-0.446 6.247,-0.446 1.339,0 4.463,-3.123 8.925,-0.892 4.462,2.231 6.692,4.461 8.924,7.139 2.231,2.678 16.957,11.156 21.865,10.709 4.908,-0.445 8.478,-2.677 8.478,-2.677 l -12.495,-9.37 c 0,0 16.957,7.586 19.634,6.246 2.678,-1.338 -0.446,-5.801 -0.446,-5.801 l 5.801,-3.569 -17.403,-9.817 c 0,0 -10.262,-1.785 -12.494,-2.231 -2.231,-0.446 -9.37,-9.817 -9.37,-9.817 l -80.766,-25.881" />
      <path
         style="fill:#ffffff"
         inkscape:connector-curvature="0"
         id="path310"
         d="m 479.45,267.503 c 0,0 -1.339,-0.625 -0.975,2.646 0.363,3.27 1.998,4.178 1.998,4.178 0,0 -1.998,3.452 -0.364,5.633 1.635,2.18 4.361,1.817 4.361,1.817 0,0 0.364,3.088 2.544,4.905 2.179,1.817 3.815,1.091 3.815,1.091 0,0 0.364,3.088 2.907,4.36 2.543,1.272 4.906,0.727 4.906,0.727 0,0 -0.181,2.18 2.362,3.634 2.543,1.454 4.905,0.545 4.905,0.545 0,0 0,2.362 2.726,3.633 2.725,1.273 5.814,0.727 5.814,0.727 0,0 0,3.09 2.362,3.998 2.362,0.908 7.63,0.181 7.63,0.181 0,0 1.455,5.087 4.725,5.815 3.271,0.726 5.27,-1.636 5.27,-1.636 0,0 2.141,3.814 4.139,2.904 1.999,-0.909 3.259,-3.723 3.259,-3.723 0.008,0.036 3.081,0.864 4.655,0.465 1.938,-0.492 2.626,-2.245 3.285,-2.245 0,0 2.622,-1.648 3.835,-2.187 1.213,-0.539 2.008,-3.156 2.008,-3.156 l 8.695,-8.07 -2.824,-14.827 -33.779,-23.181 -28.978,-15.769 -17.963,16.783 -0.539,2.157 0.134,1.887 c 0,0 -2.021,0.539 -2.156,2.426 -0.135,1.887 0.404,2.696 0.404,2.696 l 0.839,1.586" />
      <path
         style="fill:#b0b0b0"
         inkscape:connector-curvature="0"
         id="path312"
         d="m 483.846,253.484 c 0,0 -2.677,1.785 -3.123,4.016 -0.447,2.231 0.446,3.123 0.446,3.123 0,0 2.23,-0.892 3.569,0.447 1.339,1.338 4.908,4.015 5.801,4.015 0.893,0 4.462,-0.892 5.801,1.785 1.339,2.678 3.123,2.677 5.801,4.016 2.677,1.339 8.032,1.785 8.924,4.462 0.893,2.678 5.355,3.124 6.694,4.017 1.339,0.892 4.909,2.23 7.139,2.677 2.231,0.446 4.463,0.892 5.801,2.231 1.338,1.339 3.123,3.123 4.462,3.123 1.339,0 3.569,-0.446 4.016,0.447 0.446,0.892 5.801,9.816 6.247,12.047 0.446,2.231 1.785,9.371 1.785,9.371 l 2.678,-3.124 3.149,-1.166 5.775,-3.295 4.016,-6.694 c 0,0 2.677,-2.678 1.784,-4.908 -0.892,-2.231 -6.693,-12.495 -6.693,-12.495 l -13.832,-11.155 -60.24,-12.94" />
      <path
         style="fill:url(#Gradient_22)"
         inkscape:connector-curvature="0"
         id="path502"
         d="m 486.571,235.653 c 0,0 -5.317,1.934 -7.734,5.317 -2.417,3.384 -2.417,5.318 -1.934,8.218 0.484,2.901 4.834,6.284 4.834,6.284 l 13.535,8.218 16.919,10.152 14.502,5.8 9.185,3.384 10.15,2.417 1.451,-6.284 -10.152,-10.635 c 0,0 -11.117,-9.184 -14.984,-12.085 -3.867,-2.9 -16.919,-10.151 -16.919,-10.151 l -9.668,-6.284 z" />
      <path
         style="fill:url(#Gradient_23)"
         inkscape:connector-curvature="0"
         id="path504"
         d="m 492.372,232.753 c 0,0 8.701,-4.35 11.118,-1.45 2.417,2.9 6.768,5.317 6.768,5.317 0,0 17.402,10.151 19.819,11.601 2.417,1.451 14.018,7.735 17.885,12.085 3.867,4.351 7.251,9.185 7.251,9.185 l 4.35,7.251 -5.317,0.483 -7.734,-5.317 -3.867,-0.967 -4.351,-0.967 c 0,0 -8.217,-7.734 -14.018,-12.085 -5.8,-4.35 -19.336,-12.568 -19.336,-12.568 l -10.151,-5.317 -5.317,-3.868 c 0,0 2.9,-4.35 2.9,-3.383 z" />
      <path
         style="fill:url(#Gradient_24)"
         inkscape:connector-curvature="0"
         id="path506"
         d="m 544.578,279.401 -2.417,5.317 15.952,20.303 c 0,0 2.417,-5.318 3.384,-5.318 0.967,0 1.934,-0.966 1.934,-0.966 l -14.986,-19.82 z" />
      <path
         style="fill:url(#Gradient_25)"
         inkscape:connector-curvature="0"
         id="path508"
         d="m 558.597,272.875 -2.417,2.417 -1.934,1.933 16.436,17.403 4.35,-4.351 z" />
      <path
         style="fill:url(#Gradient_26)"
         inkscape:connector-curvature="0"
         id="path510"
         d="m 563.431,298.737 c 0,0 -3.923,0.802 -4.62,2.939 -0.698,2.137 -0.214,5.52 -0.214,5.52 0,0 1.933,10.151 6.767,16.435 4.834,6.284 9.668,9.185 9.668,9.185 l 8.218,2.417 v -2.417 l -2.417,-4.834 4.834,2.417 c 0,0 4.351,0.966 4.351,0 0,-0.967 -0.484,-2.901 -0.484,-2.901 l -9.184,-8.701 -11.119,-12.568 z" />
      <path
         style="fill:url(#Gradient_27)"
         inkscape:connector-curvature="0"
         id="path512"
         d="m 574.065,289.794 c 0,0 -3.383,0.967 -2.9,6.284 0.483,5.317 7.251,16.918 9.185,19.335 1.933,2.417 8.701,7.251 12.085,9.668 3.383,2.417 5.317,1.451 6.767,0.967 1.45,-0.483 0.967,-2.417 0.967,-2.417 l -6.768,-7.734 7.251,1.933 c 0,0 5.318,0.967 3.868,-0.966 -1.451,-1.934 -5.801,-5.801 -5.801,-5.801 l -12.085,-12.085 -6.768,-7.251 z" />
      <path
         style="fill:url(#Gradient_28)"
         inkscape:connector-curvature="0"
         id="path514"
         d="m 476.903,246.771 c 0,0 2.901,2.901 4.834,5.318 1.934,2.417 7.251,2.417 7.251,2.417 0,0 0,-9.668 4.351,-11.119 4.35,-1.45 4.35,-1.45 4.35,-1.45 0,0 -2.9,1.45 -4.35,3.384 -1.45,1.934 -2.417,3.867 -2.417,3.867 l -0.967,6.284 c 0,0 1.45,2.417 4.351,4.834 2.9,2.417 6.767,1.451 6.767,1.451 0,0 0.484,-5.801 2.901,-8.702 2.417,-2.9 4.35,-2.9 4.35,-2.9 l 2.417,0.483 c 0,0 -2.9,1.451 -4.35,2.901 -1.451,1.45 -1.934,0.967 -2.901,3.384 -0.967,2.417 -0.967,3.867 -0.967,3.867 0,0 0,2.417 0,3.384 0,0.966 3.868,4.834 6.768,5.317 2.9,0.483 7.251,1.45 7.251,1.45 0,0 0,-5.801 1.934,-8.701 1.933,-2.9 3.383,-3.384 3.383,-3.384 l 1.934,0.484 c 0,0 -2.417,0.966 -3.867,2.9 -1.45,1.934 -1.934,1.45 -1.934,4.351 0,2.9 0,5.317 0,5.317 0,0 1.45,2.417 4.351,3.384 2.9,0.967 7.251,1.45 7.251,1.45 0,0 0.483,-4.834 2.417,-6.768 1.933,-1.933 3.867,-1.933 3.867,-1.933 0,0 -2.9,1.933 -3.867,3.867 -0.967,1.934 -1.45,4.834 -1.45,4.834 0,0 -0.484,0.483 1.933,2.417 2.417,1.934 9.667,4.351 9.667,4.351 l -7.733,-1.451 -11.118,-4.35 -11.119,-3.867 -11.118,-7.251 -13.052,-7.735 c 0,0 -8.701,-4.834 -9.667,-6.767 -0.967,-1.934 -1.451,-5.318 -1.451,-5.318 z" />
      <path
         style="fill:url(#Gradient_29)"
         inkscape:connector-curvature="0"
         id="path516"
         d="m 499.623,241.454 c 0,0 1.45,-2.901 3.867,-4.351 2.417,-1.45 4.351,-0.967 4.351,-0.967 0,0 -2.901,0.967 -4.351,2.901 -1.45,1.933 -1.933,3.867 -1.933,3.867 z" />
      <path
         style="fill:url(#Gradient_30)"
         inkscape:connector-curvature="0"
         id="path518"
         d="m 509.774,248.221 c 0,0 2.901,-5.317 4.834,-5.8 1.934,-0.484 3.868,-1.451 3.868,-1.451 0,0 -2.417,2.417 -3.868,3.868 -1.45,1.45 -1.933,4.834 -1.933,4.834 z" />
      <path
         style="fill:url(#Gradient_31)"
         inkscape:connector-curvature="0"
         id="path520"
         d="m 523.31,257.406 c 0,0 0.483,-3.867 2.417,-6.284 1.933,-2.417 5.317,-2.417 5.317,-2.417 0,0 -2.417,0.967 -3.867,3.384 -1.45,2.417 -1.934,3.867 -1.934,3.867 v 2.9 z" />
      <path
         style="fill:url(#Gradient_32)"
         inkscape:connector-curvature="0"
         id="path522"
         d="m 539.744,269.008 c 0,0 -0.967,-3.868 1.45,-7.251 2.417,-3.384 3.384,-2.901 3.384,-2.901 0,0 -2.9,2.901 -3.384,4.834 -0.483,1.934 0,6.284 0,6.284 z" />
      <path
         style="fill:#ffffff"
         inkscape:connector-curvature="0"
         id="path524"
         d="m 484.997,240.559 c 0.814,0.558 1.642,1.034 2.547,1.428 0.527,0.23 1.06,0.404 1.62,0.537 0.551,0.13 1.017,0.014 1.552,-0.064 1.041,-0.154 0.955,-1.791 0,-2.012 -1.558,-0.359 -3.085,-1.24 -4.504,-1.967 -1.392,-0.712 -2.489,1.203 -1.215,2.078" />
      <path
         style="fill:#ffffff"
         inkscape:connector-curvature="0"
         id="path526"
         d="m 496.229,245.816 c 1.276,1.076 2.357,2.12 3.808,2.997 1.461,0.884 3.026,1.747 4.67,2.19 0.991,0.266 1.494,-1.066 0.677,-1.607 -1.238,-0.819 -2.591,-1.433 -3.9,-2.147 -0.784,-0.427 -1.556,-0.883 -2.35,-1.291 -0.657,-0.338 -1.397,-0.582 -1.917,-1.132 -0.627,-0.662 -1.672,0.413 -0.988,0.99" />
      <path
         style="fill:#ffffff"
         inkscape:connector-curvature="0"
         id="path528"
         d="m 509.384,253.723 c 1.393,0.844 2.909,1.724 4.429,2.316 1.333,0.518 2.443,2.035 3.472,3.041 0.922,0.902 2.342,-0.516 1.414,-1.414 -0.632,-0.613 -1.287,-1.201 -1.924,-1.809 -0.41,-0.392 -0.844,-1.169 -1.427,-1.314 -1.92,-0.479 -3.504,-1.645 -5.368,-2.233 -0.854,-0.27 -1.334,0.967 -0.596,1.413" />
      <path
         style="fill:#ffffff"
         inkscape:connector-curvature="0"
         id="path530"
         d="m 522.126,263.027 c 2.956,1.118 5.39,3.172 7.767,5.199 0.917,0.782 2.247,-0.509 1.336,-1.337 -2.424,-2.204 -5.41,-4.676 -8.669,-5.436 -1.041,-0.243 -1.406,1.207 -0.434,1.574" />
      <path
         style="fill:#ffffff"
         inkscape:connector-curvature="0"
         id="path532"
         d="m 534.977,272.139 c 2.373,1.724 4.64,3.476 6.491,5.78 0.793,0.988 2.164,-0.41 1.386,-1.387 -1.82,-2.288 -4.332,-4.636 -7.041,-5.822 -0.978,-0.428 -1.709,0.796 -0.836,1.429" />
      <path
         style="fill:#ffffff"
         inkscape:connector-curvature="0"
         id="path534"
         d="m 496.723,234.084 c 1.216,0.008 2.355,0.327 3.424,0.9 0.765,0.41 1.363,1.08 2.178,1.388 0.572,0.217 1.023,-0.413 0.918,-0.917 -0.233,-1.129 -1.483,-1.831 -2.425,-2.316 -1.272,-0.655 -2.677,-0.94 -4.095,-0.75 -1.047,0.141 -1.128,1.688 0,1.695" />
      <path
         style="fill:#ffffff"
         inkscape:connector-curvature="0"
         id="path536"
         d="m 505.225,238.793 c 2.778,0.781 5.073,1.934 7.32,3.758 0.851,0.69 2.069,-0.465 1.226,-1.227 -2.281,-2.062 -5.224,-3.768 -8.347,-4.004 -0.863,-0.065 -0.994,1.25 -0.199,1.473" />
      <path
         style="fill:#ffffff"
         inkscape:connector-curvature="0"
         id="path538"
         d="m 516.149,245.509 c 1.408,0.969 2.827,1.828 4.425,2.441 1.33,0.51 2.514,1.351 3.935,1.666 1.093,0.243 1.576,-1.103 0.728,-1.728 -0.475,-0.35 -0.968,-0.52 -1.52,-0.731 -0.639,-0.245 -1.168,-0.87 -1.858,-0.924 -1.804,-0.145 -3.34,-1.298 -4.924,-2.067 -0.905,-0.438 -1.613,0.773 -0.786,1.343" />
      <path
         style="fill:#ffffff"
         inkscape:connector-curvature="0"
         id="path540"
         d="m 529.336,252.539 c 2.448,0.334 4.435,1.598 6.334,3.113 1.544,1.23 2.862,3.002 4.648,3.876 0.669,0.327 1.491,-0.356 1.064,-1.064 -1.152,-1.911 -3.233,-3.512 -4.984,-4.849 -2.026,-1.548 -4.215,-2.801 -6.804,-2.979 -1.081,-0.074 -1.341,1.756 -0.258,1.903" />
      <path
         style="fill:#ffffff"
         inkscape:connector-curvature="0"
         id="path542"
         d="m 544.146,262.492 c 0.802,1.221 2.383,1.99 3.502,2.917 2.137,1.77 3.898,3.852 5.687,5.96 0.447,0.528 1.319,-0.16 0.95,-0.733 -1.448,-2.253 -2.657,-4.446 -4.819,-6.105 -0.895,-0.687 -1.846,-1.27 -2.857,-1.772 -0.418,-0.207 -1.382,-0.545 -1.677,-0.873 -0.38,-0.421 -1.098,0.131 -0.786,0.606" />
      <path
         style="fill:#ffffff"
         inkscape:connector-curvature="0"
         id="path544"
         d="m 546.921,282.617 c 2.017,2.22 3.871,4.61 5.781,6.92 1.393,1.685 2.789,3.368 4.166,5.066 0.695,0.855 2.169,2.153 2.505,3.111 0.294,0.842 1.618,0.497 1.348,-0.372 -0.283,-0.911 -1.176,-1.769 -1.74,-2.506 -1.286,-1.685 -2.632,-3.327 -3.977,-4.966 -2.296,-2.797 -4.534,-5.687 -6.968,-8.369 -0.684,-0.755 -1.798,0.365 -1.115,1.116" />
      <path
         style="fill:#ffffff"
         inkscape:connector-curvature="0"
         id="path546"
         d="m 558.522,276.333 c 1.954,1.99 3.861,4.027 5.777,6.053 1.355,1.434 2.716,2.865 4.054,4.316 0.54,0.586 1.932,1.719 2.138,2.311 0.293,0.842 1.613,0.498 1.348,-0.372 -0.239,-0.787 -1.101,-1.525 -1.617,-2.125 -1.32,-1.532 -2.709,-3.007 -4.094,-4.481 -2.149,-2.285 -4.294,-4.578 -6.49,-6.818 -0.713,-0.727 -1.829,0.39 -1.116,1.116" />
      <path
         style="fill:#ff4a3e"
         inkscape:connector-curvature="0"
         id="path548"
         d="m 559.08,304.537 c 0,0 2.417,9.668 5.801,14.502 3.384,4.834 13.535,12.084 13.535,12.084 l -13.052,-19.336 c 0,0 11.602,14.987 14.019,17.887 2.417,2.9 2.417,4.834 2.417,4.834 0,0 -6.768,-1.451 -10.635,-4.834 -3.867,-3.385 -9.185,-9.669 -10.635,-14.019 -1.45,-4.35 -1.45,-11.118 -1.45,-11.118" />
      <path
         style="fill:#ff4a3e"
         inkscape:connector-curvature="0"
         id="path550"
         d="m 571.648,294.386 c 0,0 4.351,10.151 10.635,17.886 6.284,7.734 8.701,7.734 8.701,7.734 L 581.8,304.054 c 0,0 11.118,15.468 12.085,16.435 0.967,0.966 3.384,0.484 3.384,0.484 0,0 4.834,3.383 3.383,4.834 -1.45,1.449 -7.734,-1.451 -7.734,-1.451 l -8.218,-5.317 c 0,0 -10.542,-12.213 -11.871,-15.646 -3.442,-8.893 -1.181,-9.007 -1.181,-9.007" />
      <path
         style="fill:#000000"
         inkscape:connector-curvature="0"
         id="path838"
         d="m 480.111,273.949 c -2.111,1.961 -2.12,4.954 -0.615,7.317 1.332,2.091 4.279,2.95 5.58,0.383 0.41,-0.811 -0.605,-1.669 -1.282,-0.99 -1.092,1.095 -2.065,0.182 -2.721,-0.896 -0.848,-1.396 -0.881,-3.338 0.292,-4.561 0.794,-0.827 -0.417,-2.031 -1.254,-1.253" />
      <path
         style="fill:#000000"
         inkscape:connector-curvature="0"
         id="path840"
         d="m 484.159,281.011 c -0.444,2.39 0.293,4.546 1.938,6.346 1.518,1.661 3.778,2.124 5.329,0.328 0.429,-0.498 -0.1,-1.12 -0.673,-0.871 -2.909,1.263 -5.189,-3.241 -4.929,-5.577 0.106,-0.951 -1.491,-1.16 -1.665,-0.226" />
      <path
         style="fill:#000000"
         inkscape:connector-curvature="0"
         id="path842"
         d="m 490.295,287.293 c -0.367,4.06 4.279,7.681 8.208,6.188 0.83,-0.315 0.663,-1.408 -0.203,-1.504 -1.613,-0.178 -3.013,-0.082 -4.479,-0.928 -1.336,-0.77 -2.05,-2.244 -2.05,-3.756 10e-4,-0.967 -1.392,-0.933 -1.476,0" />
      <path
         style="fill:#000000"
         inkscape:connector-curvature="0"
         id="path844"
         d="m 498.213,291.341 c -0.876,4.63 3.103,8.167 7.605,6.557 1.138,-0.407 0.685,-2.179 -0.504,-1.831 -3.223,0.943 -5.978,-1.096 -5.689,-4.535 0.067,-0.807 -1.262,-0.985 -1.412,-0.191" />
      <path
         style="fill:#000000"
         inkscape:connector-curvature="0"
         id="path846"
         d="m 505.479,295.58 c -0.402,2.738 0.277,4.75 2.704,6.141 1.718,0.986 4.865,1.683 6.373,0.011 0.416,-0.461 0.141,-1.228 -0.511,-1.234 -1.561,-0.013 -2.779,0.335 -4.333,-0.196 -0.755,-0.258 -1.434,-0.749 -2.012,-1.284 -0.778,-0.719 -0.686,-2.471 -0.835,-3.438 -0.105,-0.688 -1.285,-0.692 -1.386,0" />
      <path
         style="fill:#000000"
         inkscape:connector-curvature="0"
         id="path848"
         d="m 513.9,299.803 c -0.327,1.454 -0.315,2.751 0.156,4.174 0.419,1.265 1.389,1.75 2.579,2.281 2.565,1.146 5.677,1.387 8.115,-0.097 0.81,-0.492 0.265,-1.671 -0.626,-1.484 -1.838,0.386 -3.746,0.416 -5.567,-0.034 -0.83,-0.205 -1.581,-0.59 -2.323,-1.004 -0.953,-0.534 -0.865,-2.74 -0.806,-3.629 0.057,-0.878 -1.336,-1.058 -1.528,-0.207" />
      <path
         style="fill:#000000"
         inkscape:connector-curvature="0"
         id="path850"
         d="m 524.051,304.855 c -0.147,3.033 1.652,5.751 4.247,7.218 2.501,1.414 5.235,0.596 6.551,-1.894 0.57,-1.08 -1.021,-2.02 -1.639,-0.959 -1.093,1.874 -2.9,1.755 -4.576,0.743 -1.741,-1.052 -2.779,-3.118 -2.794,-5.108 -0.009,-1.159 -1.734,-1.147 -1.789,0" />
      <path
         style="fill:#000000"
         inkscape:connector-curvature="0"
         id="path852"
         d="m 532.791,308.982 c 0.22,1.039 0.145,1.798 0.876,2.641 0.721,0.831 1.842,1.345 2.894,1.57 2.132,0.456 4.613,-0.739 5.488,-2.736 0.389,-0.888 -0.595,-1.748 -1.368,-1.055 -1.077,0.964 -1.942,1.829 -3.474,1.845 -1.587,0.017 -2.599,-1.3 -3.15,-2.615 -0.321,-0.763 -1.446,-0.501 -1.266,0.35" />
      <path
         style="fill:#000000"
         inkscape:connector-curvature="0"
         id="path854"
         d="m 540.878,308.66 c 0.893,0.799 1.071,1.136 2.264,1.32 1.143,0.176 2.292,0.253 3.444,0.127 2.027,-0.221 3.436,-1.44 3.797,-3.452 0.112,-0.63 -0.852,-0.9 -0.965,-0.266 -0.379,2.12 -1.954,2.745 -3.927,2.788 -1.628,0.035 -2.72,-0.162 -3.906,-1.224 -0.48,-0.428 -1.189,0.277 -0.707,0.707" />
      <path
         style="fill:#000000"
         inkscape:connector-curvature="0"
         id="path856"
         d="m 479.226,266.711 c -1.068,1.093 -1.599,2.209 -1.377,3.737 0.179,1.243 1.437,3.373 2.594,3.884 0.447,0.198 1.154,-0.019 1.094,-0.627 -0.229,-2.34 -3.705,-3.635 -1.516,-6.198 0.465,-0.545 -0.283,-1.321 -0.795,-0.796" />
      <path
         style="fill:#000000"
         inkscape:connector-curvature="0"
         id="path858"
         d="m 480.71,260.449 c -3.789,-0.726 -4.012,4.904 -2.14,6.921 0.751,0.809 1.917,-0.217 1.46,-1.126 -0.433,-0.863 -0.788,-1.677 -0.848,-2.661 -0.076,-1.231 0.355,-1.732 1.528,-1.951 0.589,-0.11 0.586,-1.07 0,-1.183" />
      <path
         style="fill:#000000"
         inkscape:connector-curvature="0"
         id="path860"
         d="m 481.53,260.315 c -0.257,-1.064 -0.656,-2.568 0.289,-3.41 0.843,-0.751 -0.38,-1.934 -1.226,-1.227 -1.343,1.124 -1.422,3.842 -0.427,5.211 0.485,0.668 1.572,0.287 1.364,-0.574" />
      <path
         style="fill:#000000"
         inkscape:connector-curvature="0"
         id="path1026"
         d="m 549.841,307.073 c 2.388,1.622 5.638,-2.014 6.167,-4.131 0.313,-1.253 -1.636,-1.785 -1.928,-0.532 -0.184,0.791 -0.768,1.482 -1.311,2.061 -0.401,0.427 -1.363,1.467 -2.022,1.051 -0.987,-0.626 -1.855,0.907 -0.906,1.551" />
      <path
         style="fill:#000000"
         inkscape:connector-curvature="0"
         id="path1028"
         d="m 562.589,288.243 c 1.178,2.384 1.082,5.039 -0.477,7.213 -0.629,0.877 0.8,1.671 1.43,0.836 1.951,-2.586 1.856,-6.058 0.416,-8.85 -0.471,-0.912 -1.819,-0.11 -1.369,0.801" />
      <path
         style="fill:#000000"
         inkscape:connector-curvature="0"
         id="path1130"
         d="m 482.143,236.573 c -4.049,2.31 -7.1,6.918 -6.152,11.772 1.032,5.281 5.021,7.248 9.135,9.75 8.925,5.429 17.938,10.797 27.26,15.52 5.524,2.799 11.482,4.583 17.157,7.059 2.618,1.143 5.301,2.547 8.099,3.196 2.389,0.554 3.286,0.16 4.247,1.462 4.984,6.761 9.968,13.52 14.953,20.281 0.375,0.507 1.12,0.46 1.333,-0.175 0.96,-2.862 2.409,-5.391 5.701,-5.762 2.185,-0.248 -0.528,-2.946 -0.853,-3.374 -2.928,-3.857 -5.857,-7.715 -8.786,-11.573 -4.388,-5.781 -9.173,-10.387 -14.594,-15.296 -8.411,-7.613 -18.026,-14.211 -27.487,-20.442 -6.336,-4.172 -13.182,-7.771 -19.666,-11.744 -4.807,-2.947 -5.518,-2.879 -10.386,-0.738 -0.823,0.361 -0.216,1.805 0.615,1.456 1.209,-0.508 2.415,-1.023 3.617,-1.547 2.06,-0.899 7.524,3.594 9.146,4.605 5.51,3.434 11.381,6.312 16.803,9.867 8.746,5.734 17.635,11.857 25.463,18.803 4.709,4.178 9.557,8.267 13.261,13.144 4.181,5.505 8.353,11.018 12.529,16.527 0.306,0.402 0.742,0.459 1.14,0.147 0.009,-0.007 0.016,-0.013 0.025,-0.02 0.284,-0.223 0.288,-0.803 0,-1.026 -3.563,-2.755 -7.189,4.371 -7.934,6.586 0.444,-0.059 0.888,-0.116 1.333,-0.175 -4.533,-6.154 -9.064,-12.308 -13.595,-18.462 -1.795,-2.438 -2.002,-3.051 -5.027,-3.705 -6.697,-1.448 -12.82,-5.103 -19.27,-7.403 -9.64,-3.438 -18.512,-9.077 -27.299,-14.257 -2.462,-1.451 -4.917,-2.916 -7.358,-4.403 -3.319,-2.022 -6.657,-3.528 -7.958,-7.653 -1.413,-4.483 1.529,-9.031 5.276,-11.172 0.81,-0.463 0.082,-1.711 -0.728,-1.248" />
      <path
         style="fill:#000000"
         inkscape:connector-curvature="0"
         id="path1132"
         d="m 583.445,335.012 c 3.047,-2.84 -3.708,-9.026 -5.251,-10.964 -5.072,-6.369 -9.252,-12.855 -13.425,-19.824 -0.477,-0.797 -1.548,-0.101 -1.207,0.705 2.066,4.895 5.372,9.398 8.541,13.63 1.196,1.597 12.231,13.562 10.264,15.375 -0.722,0.667 0.36,1.747 1.078,1.078" />
      <path
         style="fill:#000000"
         inkscape:connector-curvature="0"
         id="path1134"
         d="m 557.673,303.014 c -1.274,14.649 10.559,30.415 25.233,32.221 0.975,0.12 0.96,-1.403 0,-1.524 -14.447,-1.827 -23.998,-16.919 -23.85,-30.697 0.009,-0.904 -1.307,-0.874 -1.383,0" />
      <path
         style="fill:#000000"
         inkscape:connector-curvature="0"
         id="path1136"
         d="m 589.439,329.367 c -0.256,1.044 -7.611,-1.938 -8.565,-2.307 -0.905,-0.35 -1.269,1.081 -0.396,1.439 1.757,0.723 3.539,1.386 5.347,1.973 1.568,0.509 4.537,1.679 5.12,-0.689 0.243,-0.978 -1.265,-1.393 -1.506,-0.416" />
      <path
         style="fill:#000000"
         inkscape:connector-curvature="0"
         id="path1138"
         d="m 563.497,299.388 c 2.651,4.767 6.547,8.831 10.065,12.957 2.677,3.141 5.388,6.254 8.175,9.299 1.534,1.677 7.348,5.979 7.702,8.139 0.163,0.993 1.666,0.57 1.506,-0.416 -0.46,-2.831 -3.365,-4.017 -5.255,-5.865 -2.924,-2.86 -5.595,-6.001 -8.281,-9.083 -4.338,-4.977 -9.337,-10.002 -12.576,-15.811 -0.486,-0.872 -1.821,-0.092 -1.336,0.78" />
      <path
         style="fill:#000000"
         inkscape:connector-curvature="0"
         id="path1140"
         d="m 542.977,283.826 c 0.074,-1.1 0.19,-2.037 0.869,-2.947 0.906,-1.217 2.611,-1.523 4.051,-1.219 0.964,0.204 1.374,-1.226 0.409,-1.484 -0.847,-0.226 -1.994,-0.271 -2.842,-0.012 -0.989,0.303 -1.703,1.043 -2.403,1.76 -1.034,1.057 -1.293,2.492 -1.436,3.902 -0.087,0.86 1.293,0.873 1.352,0" />
      <path
         style="fill:#000000"
         inkscape:connector-curvature="0"
         id="path1142"
         d="m 576.732,295.62 c 8.771,6.405 11.409,18.104 19.93,24.874 0.75,0.596 1.647,-0.296 1.047,-1.046 -1.189,-1.488 -2.38,-2.976 -3.569,-4.463 -0.241,0.412 -0.481,0.825 -0.721,1.237 1.145,0.43 13.546,4.564 12.147,1.235 -1.32,-3.143 -4.745,-5.411 -7.145,-7.745 -3.952,-3.842 -7.842,-7.751 -11.696,-11.691 -2.496,-2.55 -4.732,-5.573 -7.879,-7.326 -2.934,-1.633 -3.601,-1.316 -5.955,-3.867 -4.518,-4.894 -9.036,-9.789 -13.553,-14.684 -0.276,-0.298 -0.775,-0.278 -1.055,0 -0.64,0.348 -0.591,0.635 0.149,0.86 -0.557,-0.785 -1.097,-1.581 -1.639,-2.377 -1.285,-1.886 -2.414,-3.875 -3.837,-5.662 -2.728,-3.426 -6.387,-6.224 -9.662,-9.099 -5.431,-4.767 -11.391,-8.144 -17.716,-11.657 -3.167,-1.76 -6.257,-3.658 -9.459,-5.353 -2.978,-1.576 -6.803,-2.907 -9.218,-5.322 -1.921,-1.92 -4.524,-4.098 -7.437,-4.143 -4.22,-0.066 -7.974,3.341 -10.747,6.207 -0.613,0.634 0.339,1.588 0.967,0.967 3.819,-3.778 10.172,-7.954 14.944,-3.185 1.525,1.525 3.293,3.118 5.233,4.035 5.83,2.757 11.337,6.069 16.967,9.199 5.539,3.08 10.667,6.113 15.41,10.308 2.788,2.466 5.61,4.888 8.235,7.53 2.74,2.757 4.562,6.33 6.801,9.488 0.275,0.386 0.809,0.513 1.171,0.151 0.687,-0.687 -0.487,-1.246 0.39,-0.296 0.826,0.895 1.652,1.79 2.478,2.685 2.332,2.525 4.663,5.049 6.993,7.574 1.831,1.983 3.662,3.966 5.492,5.949 1.891,2.049 5.079,2.014 7.245,4.166 5.501,5.466 10.774,11.168 16.328,16.593 1.066,1.04 2.139,2.071 3.222,3.092 0.798,0.751 4.772,3.79 2.393,3.591 -3.196,-0.269 -6.203,-1.538 -9.173,-2.651 -0.773,-0.29 -1.129,0.726 -0.72,1.238 1.189,1.487 2.38,2.975 3.569,4.462 0.349,-0.348 0.698,-0.698 1.047,-1.046 -8.625,-6.851 -11.313,-18.592 -20.23,-25.103 -0.771,-0.563 -1.506,0.719 -0.747,1.275" />
      <path
         style="fill:#000000"
         inkscape:connector-curvature="0"
         id="path1144"
         d="m 538.547,270.214 c 5.507,1.325 10.177,3.769 15.011,6.617 0.661,0.389 1.412,-0.544 0.828,-1.073 -3.984,-3.612 -10.216,-6.027 -15.472,-6.877 -0.86,-0.14 -1.25,1.121 -0.367,1.333" />
      <path
         style="fill:#000000"
         inkscape:connector-curvature="0"
         id="path1146"
         d="m 557.127,273.419 c -1.815,1.117 -2.773,2.389 -3.415,4.431 -0.071,0.226 0.011,0.476 0.17,0.642 5.529,5.777 10.985,11.623 16.484,17.429 0.452,0.478 1.134,0.074 1.189,-0.493 0.246,-2.563 0.958,-5.195 4.473,-4.238 0.869,0.237 1.221,-1.072 0.369,-1.341 -4.718,-1.493 -5.83,1.286 -6.235,5.579 0.397,-0.164 0.792,-0.328 1.189,-0.492 -2.753,-2.898 -5.474,-5.83 -8.271,-8.686 -1.995,-2.038 -3.943,-4.127 -5.91,-6.193 -2.243,-2.358 -3.41,-3.01 0.646,-5.457 0.754,-0.455 0.063,-1.644 -0.689,-1.181" />
      <path
         style="fill:#000000"
         inkscape:connector-curvature="0"
         id="path1148"
         d="m 569.659,295.19 c 1.651,11.657 11.057,21.956 20.123,28.765 2.536,1.905 7.023,4.649 10.311,2.723 3.499,-2.05 -0.883,-5.88 -2.421,-7.193 -0.67,-0.572 -1.647,0.393 -0.973,0.972 0.298,0.256 5.881,4.746 1.268,5.209 -1.367,0.138 -4.727,-1.253 -5.174,-1.528 -3.445,-2.127 -6.459,-4.89 -9.299,-7.752 -5.774,-5.821 -11.155,-13.321 -12.329,-21.611 -0.141,-0.995 -1.645,-0.57 -1.506,0.415" />
      <path
         style="fill:#000000"
         inkscape:connector-curvature="0"
         id="path1150"
         d="m 599.417,322.733 c 0.686,0 0.686,-1.063 0,-1.063 -0.686,0 -0.686,1.063 0,1.063" />
    </g>
  </g>
</svg>
