<?xml version="1.0" encoding="UTF-8" standalone="no"?>
<svg
   xmlns:dc="http://purl.org/dc/elements/1.1/"
   xmlns:cc="http://creativecommons.org/ns#"
   xmlns:rdf="http://www.w3.org/1999/02/22-rdf-syntax-ns#"
   xmlns:svg="http://www.w3.org/2000/svg"
   xmlns="http://www.w3.org/2000/svg"
   xmlns:sodipodi="http://sodipodi.sourceforge.net/DTD/sodipodi-0.dtd"
   xmlns:inkscape="http://www.inkscape.org/namespaces/inkscape"
   version="1.1"
   x="0"
   y="0"
   width="256"
   height="200.90195"
   viewBox="0 0 256 200.90194"
   id="svg1309"
   sodipodi:docname="sushi_02_nigiri_tamago.svg"
   inkscape:version="0.92.4 (5da689c313, 2019-01-14)">
  <title
     id="title2120">Egg Nigiri Sushi</title>
  <metadata
     id="metadata1313">
    <rdf:RDF>
      <cc:Work
         rdf:about="">
        <dc:format>image/svg+xml</dc:format>
        <dc:type
           rdf:resource="http://purl.org/dc/dcmitype/StillImage" />
        <dc:title>Egg Nigiri Sushi</dc:title>
        <cc:license
           rdf:resource="http://creativecommons.org/publicdomain/zero/1.0/" />
        <dc:source>https://openclipart.org/detail/284028</dc:source>
        <dc:creator>
          <cc:Agent>
            <dc:title>oksmith</dc:title>
          </cc:Agent>
        </dc:creator>
      </cc:Work>
      <cc:License
         rdf:about="http://creativecommons.org/publicdomain/zero/1.0/">
        <cc:permits
           rdf:resource="http://creativecommons.org/ns#Reproduction" />
        <cc:permits
           rdf:resource="http://creativecommons.org/ns#Distribution" />
        <cc:permits
           rdf:resource="http://creativecommons.org/ns#DerivativeWorks" />
      </cc:License>
    </rdf:RDF>
  </metadata>
  <sodipodi:namedview
     pagecolor="#ffffff"
     bordercolor="#666666"
     borderopacity="1"
     objecttolerance="10"
     gridtolerance="10"
     guidetolerance="10"
     inkscape:pageopacity="0"
     inkscape:pageshadow="2"
     inkscape:window-width="1920"
     inkscape:window-height="1025"
     id="namedview1311"
     showgrid="false"
     inkscape:zoom="0.70710678"
     inkscape:cx="235.22381"
     inkscape:cy="-220.98345"
     inkscape:window-x="-8"
     inkscape:window-y="-8"
     inkscape:window-maximized="1"
     inkscape:current-layer="svg1309"
     fit-margin-top="0"
     fit-margin-left="0"
     fit-margin-right="0"
     fit-margin-bottom="0"
     inkscape:pagecheckerboard="true" />
  <defs
     id="defs256">
    <linearGradient
       id="Gradient_33"
       gradientUnits="userSpaceOnUse"
       x1="250.308"
       y1="274.08499"
       x2="361.74301"
       y2="268.92001">
      <stop
         offset="0"
         stop-color="#FFFFCD"
         id="stop208" />
      <stop
         offset="0.995"
         stop-color="#F0E126"
         id="stop210" />
      <stop
         offset="1"
         stop-color="#F0E126"
         id="stop212" />
    </linearGradient>
    <linearGradient
       id="Gradient_34"
       gradientUnits="userSpaceOnUse"
       x1="251.244"
       y1="285.26801"
       x2="362.67999"
       y2="280.103">
      <stop
         offset="0"
         stop-color="#FFEB62"
         id="stop215" />
      <stop
         offset="0.995"
         stop-color="#F0C200"
         id="stop217" />
      <stop
         offset="1"
         stop-color="#F0C200"
         id="stop219" />
    </linearGradient>
  </defs>
  <g
     id="g1703"
     transform="matrix(2.2169547,0,0,2.2169547,-550.94941,-508.51979)">
    <g
       id="g1672"
       inkscape:label="text"
       style="display:none">
      <path
         style="fill:#000000"
         inkscape:connector-curvature="0"
         id="path1228"
         d="m 278,347.21 c 0.44,0.806 0.44,1.388 0,1.745 -0.439,0.27 -1.756,0.494 -3.953,0.672 -0.439,0 -0.878,0.045 -1.317,0.134 0.527,0.537 0.791,1.299 0.791,2.283 -0.439,3.581 -0.835,8.147 -1.187,13.696 0,1.254 -0.087,2.329 -0.263,3.223 -0.352,1.434 -0.966,1.523 -1.845,0.269 -0.439,-1.075 -0.614,-2.238 -0.526,-3.492 0.175,-0.537 0.307,-1.074 0.395,-1.611 0.79,-6.892 1.186,-11.637 1.186,-14.233 -1.143,0.179 -2.021,0.313 -2.636,0.402 -0.879,0.09 -1.581,-0.716 -2.107,-2.417 -0.088,-0.357 -0.001,-0.537 0.262,-0.537 h 1.187 c 1.58,0 3.073,-0.134 4.479,-0.402 1.23,-0.269 2.679,-0.582 4.349,-0.941 0.264,0 0.658,0.404 1.185,1.209" />
      <path
         style="fill:#000000"
         inkscape:connector-curvature="0"
         id="path1230"
         d="m 282.27,363.995 c 0,0.448 0.043,0.94 0.131,1.477 0.088,0.448 0.22,0.762 0.396,0.94 0.264,0.359 0.702,0.537 1.317,0.537 1.757,0 2.899,-1.387 3.426,-4.163 0.439,-2.864 0.659,-4.699 0.659,-5.504 -0.088,-0.269 -0.395,-0.538 -0.923,-0.806 -0.263,-0.09 -0.702,-0.09 -1.317,0 -2.636,1.432 -3.865,3.939 -3.689,7.519 z m 8.959,-9.265 c -0.615,2.418 -1.097,4.566 -1.449,6.445 -0.351,1.881 -0.527,3.492 -0.527,4.834 0,0.358 0.044,0.672 0.132,0.94 0.176,0.359 0.527,0.359 1.054,0 0.615,-0.357 1.098,-0.939 1.45,-1.746 h 0.132 c 0.175,0.18 0.175,0.404 0,0.672 -0.352,1.254 -0.835,2.239 -1.45,2.954 -0.527,0.537 -1.054,0.806 -1.581,0.806 -0.527,0 -0.879,-0.179 -1.054,-0.537 -0.44,-0.627 -0.66,-1.119 -0.66,-1.478 -0.263,0.359 -0.614,0.717 -1.053,1.075 -0.264,0.269 -0.572,0.493 -0.922,0.671 -1.143,0.717 -2.24,0.672 -3.295,-0.134 -0.967,-1.075 -1.537,-2.104 -1.713,-3.088 -0.176,-0.985 -0.263,-1.88 -0.263,-2.686 0,-2.417 0.702,-4.565 2.108,-6.445 1.405,-1.969 2.942,-2.954 4.612,-2.954 0.614,0 1.098,0.135 1.449,0.402 0.264,0.09 0.484,0.18 0.659,0.269 l 1.45,-0.806 c 0.438,-0.179 0.746,-0.044 0.921,0.403 v 0.403" />
      <path
         style="fill:#000000"
         inkscape:connector-curvature="0"
         id="path1232"
         d="m 306.145,355.267 c -0.352,3.223 -0.746,6.625 -1.186,10.205 0,0.448 0.044,0.852 0.132,1.209 0.264,0.18 0.528,0.18 0.791,0 1.405,-1.701 2.196,-3.089 2.371,-4.163 0.352,-0.179 0.44,-0.089 0.264,0.268 -0.264,2.149 -0.747,3.895 -1.449,5.238 -0.527,1.074 -1.231,1.611 -2.109,1.611 -1.318,-0.357 -2.02,-1.253 -2.108,-2.686 0.703,-5.549 1.186,-9.399 1.449,-11.547 -0.615,0 -1.273,1.074 -1.975,3.222 -0.791,1.88 -1.363,4.476 -1.713,7.788 -0.176,1.075 -0.264,1.791 -0.264,2.149 0,0.537 -0.176,0.895 -0.527,1.074 -0.703,-0.09 -1.186,-0.806 -1.449,-2.148 0.175,-0.716 0.35,-1.477 0.526,-2.284 0.615,-3.759 1.011,-6.176 1.186,-7.251 0.088,-1.163 0.132,-1.968 0.132,-2.417 -0.263,-0.178 -0.483,-0.044 -0.659,0.404 -0.703,1.254 -1.361,2.865 -1.976,4.834 -0.528,1.791 -1.142,4.61 -1.845,8.459 -0.264,0.448 -0.571,0.538 -0.922,0.268 -0.264,-0.178 -0.439,-0.402 -0.527,-0.671 -0.176,-0.268 -0.264,-0.672 -0.264,-1.209 0,-0.537 0.22,-1.835 0.659,-3.893 0.264,-1.522 0.483,-2.82 0.658,-3.895 0.176,-1.074 0.264,-1.88 0.264,-2.417 0,-0.626 -0.044,-1.028 -0.132,-1.208 -0.088,-0.268 -0.264,-0.358 -0.526,-0.268 -0.528,0 -0.879,0.09 -1.055,0.268 -0.176,-0.09 -0.264,-0.178 -0.264,-0.268 0.528,-1.343 1.274,-2.015 2.241,-2.015 0.527,0 0.923,0.269 1.186,0.806 0.175,0.358 0.263,0.94 0.263,1.746 0,0.717 -0.132,1.746 -0.395,3.088 1.142,-3.043 2.064,-4.878 2.767,-5.505 0.352,-0.179 0.702,-0.224 1.054,-0.135 0.615,0.18 0.923,0.537 0.923,1.074 0.175,0.627 0.175,1.523 0,2.686 1.141,-2.416 2.063,-3.804 2.766,-4.162 0.264,-0.179 0.527,-0.179 0.791,0 0.614,0.358 0.922,0.94 0.922,1.745" />
      <path
         style="fill:#000000"
         inkscape:connector-curvature="0"
         id="path1234"
         d="m 312.628,363.995 c 0,0.448 0.044,0.94 0.132,1.477 0.088,0.448 0.22,0.762 0.396,0.94 0.263,0.359 0.702,0.537 1.317,0.537 1.757,0 2.899,-1.387 3.426,-4.163 0.439,-2.864 0.659,-4.699 0.659,-5.504 -0.088,-0.269 -0.395,-0.538 -0.923,-0.806 -0.263,-0.09 -0.702,-0.09 -1.317,0 -2.636,1.432 -3.865,3.939 -3.69,7.519 z m 8.96,-9.265 c -0.615,2.418 -1.097,4.566 -1.449,6.445 -0.351,1.881 -0.527,3.492 -0.527,4.834 0,0.358 0.044,0.672 0.132,0.94 0.175,0.359 0.527,0.359 1.054,0 0.615,-0.357 1.098,-0.939 1.45,-1.746 h 0.131 c 0.176,0.18 0.176,0.404 0,0.672 -0.351,1.254 -0.835,2.239 -1.449,2.954 -0.527,0.537 -1.055,0.806 -1.581,0.806 -0.527,0 -0.879,-0.179 -1.055,-0.537 -0.439,-0.627 -0.659,-1.119 -0.659,-1.478 -0.263,0.359 -0.614,0.717 -1.053,1.075 -0.264,0.269 -0.572,0.493 -0.922,0.671 -1.143,0.717 -2.241,0.672 -3.295,-0.134 -0.967,-1.075 -1.537,-2.104 -1.713,-3.088 -0.176,-0.985 -0.263,-1.88 -0.263,-2.686 0,-2.417 0.702,-4.565 2.108,-6.445 1.405,-1.969 2.942,-2.954 4.612,-2.954 0.614,0 1.098,0.135 1.449,0.402 0.264,0.09 0.484,0.18 0.659,0.269 l 1.45,-0.806 c 0.438,-0.179 0.746,-0.044 0.921,0.403 v 0.403" />
      <path
         style="fill:#000000"
         inkscape:connector-curvature="0"
         id="path1236"
         d="m 327.965,357.147 c -0.527,0.358 -0.79,0.985 -0.79,1.88 0,1.074 0.615,1.656 1.845,1.746 1.844,-0.269 2.723,-1.253 2.635,-2.954 -0.264,-0.985 -0.791,-1.478 -1.581,-1.478 -0.879,0 -1.581,0.269 -2.109,0.806 z m -2.634,12.488 c -0.088,1.522 1.141,2.283 3.689,2.283 1.142,0 1.932,-0.268 2.371,-0.805 0.352,-0.448 0.484,-0.941 0.396,-1.478 0,-0.627 -0.791,-1.253 -2.372,-1.88 -0.791,-0.268 -1.582,-0.537 -2.372,-0.806 -0.791,0.538 -1.362,1.433 -1.712,2.686 z m 11.331,-15.308 c 0.263,0.627 0.351,0.985 0.263,1.075 l -0.526,0.537 c -0.352,0.179 -0.747,0.045 -1.187,-0.404 -0.527,0.09 -1.273,0.27 -2.24,0.538 0.176,0.806 0.264,1.567 0.264,2.283 -0.088,1.432 -0.571,2.596 -1.449,3.491 -0.879,0.895 -2.109,1.343 -3.69,1.343 -0.527,0.09 -0.922,0.313 -1.185,0.671 0,0.448 0.394,0.761 1.185,0.94 1.054,0.358 1.933,0.672 2.636,0.939 1.054,0.627 1.669,1.165 1.845,1.612 0.438,0.627 0.702,1.432 0.79,2.417 0,1.521 -0.528,2.73 -1.581,3.626 -1.143,0.894 -2.241,1.343 -3.294,1.343 -1.582,0 -2.768,-0.404 -3.558,-1.208 -0.879,-0.896 -1.317,-2.015 -1.317,-3.358 0,-0.806 0.262,-1.521 0.79,-2.148 0.439,-0.627 0.879,-1.164 1.318,-1.612 -0.439,-0.357 -0.791,-0.85 -1.055,-1.477 -0.175,-0.358 -0.175,-0.806 0,-1.343 0.352,-0.626 0.966,-1.163 1.845,-1.611 -0.879,-0.805 -1.273,-1.879 -1.185,-3.223 0.087,-1.7 0.702,-3.043 1.844,-4.028 0.79,-0.805 1.756,-1.163 2.899,-1.074 0.702,0 1.493,0.403 2.372,1.209 0.966,-0.716 1.756,-1.208 2.371,-1.478 0.879,-0.179 1.493,0.135 1.845,0.94" />
      <path
         style="fill:#000000"
         inkscape:connector-curvature="0"
         id="path1238"
         d="m 341.194,358.356 c -0.791,1.432 -1.185,2.909 -1.185,4.43 0,1.075 0.132,1.97 0.395,2.686 0.264,0.627 0.922,1.03 1.977,1.209 1.054,0 2.107,-0.671 3.162,-2.015 1.054,-1.521 1.581,-3.043 1.581,-4.565 0,-1.074 -0.22,-1.924 -0.659,-2.551 -0.615,-0.894 -1.405,-1.343 -2.371,-1.343 -1.055,-0.09 -2.021,0.627 -2.9,2.149 z m 6.326,-3.358 c 0.702,0.717 1.053,1.746 1.053,3.089 -0.351,2.507 -0.614,4.566 -0.79,6.177 -0.263,1.343 -0.703,2.417 -1.318,3.223 -0.879,1.342 -2.152,2.103 -3.82,2.282 -1.143,0 -2.197,-0.447 -3.164,-1.343 -1.142,-0.984 -1.712,-2.729 -1.712,-5.236 -0.088,-2.506 0.57,-4.7 1.976,-6.58 1.318,-1.879 2.899,-2.82 4.744,-2.82 1.317,0 2.327,0.404 3.031,1.208" />
    </g>
    <g
       id="g1664"
       inkscape:label="sushi">
      <path
         style="display:none;fill:#b0b0b0"
         inkscape:connector-curvature="0"
         id="path264"
         d="m 249.136,268.4 c -3.33,2.59 -2.598,8.659 0.295,12.259 1.969,2.452 6,6.667 9.667,9 3.667,2.334 46,27.667 48,28.667 2,1 10.358,3.781 17.025,6.448 6.667,2.667 8.223,2.267 16.223,-2.399 8,-4.666 30.3,-6.183 10.967,-18.183 -19.333,-12.001 -52.329,-52.604 -63.663,-50.937 -11.334,1.667 -37.375,14.063 -37.375,14.063 0,0 2.191,-1.508 -1.139,1.082"
         inkscape:label="shadow" />
      <path
         style="display:inline;fill:#ffffff"
         inkscape:connector-curvature="0"
         id="path322"
         d="m 256.384,270.326 c 0,0 -1.83,0.459 -1.467,3.73 0.363,3.27 1.998,4.179 1.998,4.179 0,0 -1.998,3.451 -0.363,5.632 1.636,2.181 4.361,1.817 4.361,1.817 0,0 0.363,3.089 2.543,4.906 2.181,1.817 3.816,1.09 3.816,1.09 0,0 0.364,3.088 2.907,4.36 2.544,1.272 4.906,0.727 4.906,0.727 0,0 -0.182,2.181 2.361,3.634 2.544,1.454 4.907,0.545 4.907,0.545 0,0 0,2.362 2.724,3.634 2.727,1.272 5.815,0.727 5.815,0.727 0,0 0,3.089 2.362,3.997 2.362,0.908 7.631,0.182 7.631,0.182 0,0 0.4,3.503 3.67,4.23 3.271,0.728 4.618,-1.731 4.618,-1.731 0,0 0.887,5.238 2.886,4.329 0.653,-0.297 6.493,-0.531 7.504,-1.443 2.556,-2.307 0.887,-1.106 3.654,-4.115 0,0 -23.422,-28.706 -37.049,-37.245 -22.218,-13.923 -28.484,-7.881 -30.196,-7.311 l 0.412,4.126"
         inkscape:label="rice" />
      <path
         style="display:inline;fill:#b0b0b0"
         inkscape:connector-curvature="0"
         id="path324"
         d="m 258.372,262.339 c 0,0 -1.112,2.469 -2.02,5.195 -0.909,2.726 2.744,3.07 4.016,4.705 1.272,1.635 0.908,3.088 1.998,2.907 1.09,-0.182 5.815,-2.726 7.268,-0.182 1.453,2.544 1.816,3.634 1.816,3.634 0,0 0.546,0.363 1.273,0 0.726,-0.363 5.631,-1.453 5.995,0.364 0.364,1.817 0.546,3.088 0.546,3.088 0,0 4.178,-0.908 5.45,0.727 1.272,1.635 1.453,5.088 2.725,5.451 1.273,0.363 5.633,-0.363 5.997,1.635 0.363,1.999 1.635,4.724 3.452,5.087 1.816,0.364 4.543,0.182 5.088,1.999 0.545,1.817 0.363,2.907 0.181,3.997 -0.181,1.09 0.895,-0.075 1.621,-0.256 0.727,-0.182 3.791,-0.17 4.946,1.561 1.089,1.636 1.301,2.864 1.301,2.864 0,0 4.826,1.756 5.987,3.383 2.45109,3.43241 1.4038,5.86319 0.2848,7.19707 0,0 -0.25103,0.0112 -0.98243,0.0451 -0.33517,0.024 -1.0278,0.10014 -1.0278,0.10014 l 4.41043,3.64869 3.753,-3.175 c 0,0 2.694,2.063 4.329,1.155 1.636,-0.909 -5.419,-7.744 -5.419,-7.744 0,0 -27.561,-32.217 -34.647,-35.851 -7.086,-3.634 -28.341,-11.535 -28.341,-11.535"
         sodipodi:nodetypes="ccscsccscscccscccccsccccccsc"
         inkscape:label="egg_shadow" />
      <g
         id="g861"
         inkscape:label="rice_outline">
        <path
           d="m 256.056,269.486 c -0.559,0.573 -1.228,0.964 -1.671,1.629 -0.557,0.834 -0.725,2.051 -0.694,3.022 0.073,2.242 1.035,4.078 3.237,4.656 0.854,0.223 1.706,-0.967 0.924,-1.587 -0.269,-0.214 -0.951,-0.549 -1.123,-0.831 -0.496,-0.811 -0.692,-1.741 -0.733,-2.679 -0.03,-0.664 -0.219,-1.56 0.334,-2.031 0.417,-0.356 0.559,-0.855 0.879,-1.29 0.504,-0.682 -0.584,-1.474 -1.153,-0.889"
           id="path868"
           inkscape:connector-curvature="0"
           style="fill:#000000" />
        <path
           d="m 256.554,277.856 c -2.112,1.962 -2.119,4.954 -0.615,7.317 1.332,2.091 4.279,2.95 5.581,0.383 0.41,-0.811 -0.606,-1.668 -1.283,-0.989 -1.091,1.094 -2.065,0.182 -2.72,-0.896 -0.85,-1.396 -0.882,-3.339 0.291,-4.561 0.794,-0.828 -0.417,-2.032 -1.254,-1.254"
           id="path870"
           inkscape:connector-curvature="0"
           style="fill:#000000" />
        <path
           d="m 260.603,284.918 c -0.445,2.389 0.293,4.546 1.938,6.346 1.517,1.661 3.776,2.124 5.327,0.328 0.429,-0.497 -0.1,-1.12 -0.672,-0.871 -2.909,1.263 -5.188,-3.242 -4.928,-5.577 0.105,-0.95 -1.492,-1.16 -1.665,-0.226"
           id="path872"
           inkscape:connector-curvature="0"
           style="fill:#000000" />
        <path
           d="m 266.737,291.2 c -0.367,4.061 4.281,7.682 8.21,6.188 0.83,-0.315 0.663,-1.408 -0.204,-1.503 -1.613,-0.179 -3.013,-0.082 -4.479,-0.929 -1.335,-0.77 -2.052,-2.243 -2.05,-3.756 10e-4,-0.967 -1.392,-0.933 -1.477,0"
           id="path874"
           inkscape:connector-curvature="0"
           style="fill:#000000" />
        <path
           d="m 274.656,295.248 c -0.875,4.631 3.103,8.166 7.606,6.556 1.137,-0.406 0.685,-2.178 -0.505,-1.83 -3.223,0.942 -5.978,-1.095 -5.69,-4.535 0.068,-0.807 -1.261,-0.986 -1.411,-0.191"
           id="path876"
           inkscape:connector-curvature="0"
           style="fill:#000000" />
        <path
           d="m 281.922,299.487 c -0.211,1.438 -0.126,2.708 0.396,4.073 0.352,0.922 1.496,1.603 2.307,2.069 1.719,0.986 4.865,1.682 6.374,0.01 0.415,-0.461 0.141,-1.229 -0.512,-1.233 -1.561,-0.013 -2.779,0.334 -4.332,-0.197 -0.755,-0.258 -1.433,-0.75 -2.012,-1.284 -0.778,-0.719 -0.686,-2.472 -0.835,-3.438 -0.105,-0.687 -1.285,-0.691 -1.386,0"
           id="path878"
           inkscape:connector-curvature="0"
           style="fill:#000000" />
        <path
           d="m 290.239,304.561 c -0.602,2.589 0.439,4.53 2.84,5.603 2.378,1.062 5.899,1.566 8.113,-0.095 0.563,-0.422 0.49,-1.614 -0.41,-1.514 -3.13,0.345 -9.31,0.969 -9.016,-3.787 0.054,-0.88 -1.33,-1.056 -1.527,-0.207"
           id="path880"
           inkscape:connector-curvature="0"
           style="fill:#000000" />
        <path
           inkscape:label="path882"
           d="m 300.494,308.762 c -0.161,2.561 1.047,5.007 3.395,6.158 2.235,1.095 4.639,0.237 5.815,-1.88 0.595,-1.074 -0.994,-1.997 -1.64,-0.959 -0.768,1.235 -2.124,1.576 -3.424,0.997 -1.684,-0.75 -2.35,-2.593 -2.357,-4.316 -0.004,-1.163 -1.717,-1.142 -1.789,0"
           id="path882"
           inkscape:connector-curvature="0"
           style="fill:#000000" />
        <path
           d="m 313.817,317.002 c 0.028,0.147 0.056,0.294 0.083,0.441 0.079,0.42 0.605,0.699 0.999,0.567 0.706,-0.234 -0.93,-0.777 -0.274,0.101 0.264,0.353 0.586,0.674 0.958,0.917 0.841,0.548 1.692,0.825 2.686,0.944 1.919,0.229 4.093,-1.065 4.84,-2.808 0.384,-0.892 -0.588,-1.743 -1.367,-1.055 -1.454,1.282 -2.833,2.437 -4.841,1.478 -1.062,-0.508 -1.475,-1.599 -2.628,-1.061 0.329,0.042 0.657,0.084 0.985,0.127 -0.115,-0.097 -0.229,-0.194 -0.344,-0.289 -0.513,-0.432 -1.22,-0.023 -1.097,0.638"
           id="path884"
           inkscape:connector-curvature="0"
           style="fill:#000000" />
        <path
           d="m 256.609,269.117 c -0.23,-0.157 -0.548,-0.35 -0.568,-0.657 -0.009,-0.13 0.231,-0.392 0.311,-0.524 0.221,-0.365 0.452,-0.725 0.651,-1.102 0.606,-1.145 -1.003,-2.065 -1.719,-1.006 -0.367,0.542 -0.754,1.136 -1.032,1.728 -0.635,1.354 0.286,2.503 1.407,3.187 1.048,0.641 1.94,-0.948 0.95,-1.626"
           id="path886"
           inkscape:connector-curvature="0"
           style="fill:#000000" />
        <path
           d="m 321.818,316.959 c 1.71,2.095 4.774,1.333 6.672,-0.049 0.844,-0.614 0.364,-2.272 -0.77,-1.827 -0.659,0.258 -1.268,0.668 -1.884,1.013 -0.117,0.066 -0.235,0.132 -0.353,0.198 -0.12,0.068 0.461,-0.075 -0.316,-0.012 -0.739,0.06 -1.564,-0.02 -2.084,-0.588 -0.792,-0.865 -1.98,0.389 -1.265,1.265"
           id="path888"
           inkscape:connector-curvature="0"
           style="fill:#000000" />
        <path
           style="fill:#000000"
           inkscape:connector-curvature="0"
           id="path1000"
           d="m 307.834,312.85 c 0.375,3.469 3.47,5.154 6.774,4.622 1.021,-0.164 0.756,-1.787 -0.24,-1.773 -2.32,0.036 -4.639,-0.349 -5.038,-3.051 -0.125,-0.847 -1.588,-0.65 -1.496,0.202" />
      </g>
      <g
         id="g870"
         inkscape:label="egg"
         style="display:inline">
        <path
           d="m 267.771,235.775 c 0,0 -8.173,4.144 -11.416,6.385 -3.242,2.242 -6.367,6.987 -6.367,6.987 l -0.525,6.717 c 0,0 37.918,14.972 54.058,29.281 16.138,14.308 30.152,27.88 30.152,27.88 0,0 16.308,-9.122 22.015,-12.315 5.707,-3.192 6.863,-5.337 6.863,-5.337 l -0.106,-11.288 -5.22,-4.358 c 0,0 -11.395,-11.183 -20.071,-17.891 -8.675,-6.708 -22.514,-16.523 -22.514,-16.523 l -14.199,-8.543 c 0,0 -9.473,-5.834 -10.288,-5.379 -0.815,0.456 -8.065,-2.554 -12.18,-1.108 -4.116,1.446 -10.202,5.492 -10.202,5.492 z"
           id="path554"
           inkscape:connector-curvature="0"
           style="display:inline;fill:url(#Gradient_33)" />
        <path
           d="m 251.783,251.783 c 0,0 30.881,16.554 40.373,22.805 9.492,6.252 40.402,32.424 40.402,32.424 l 1.669,-0.078 c 0,0 12.307,-5.172 19.587,-10.528 7.281,-5.357 9.156,-10.044 9.156,-10.044 0,0 0.464,10.016 -1.507,12.617 -1.971,2.601 -6.009,5.716 -6.009,5.716 l -9.784,5.473 -12.969,8.967 -4.347,-3.563 -17.886,-15.901 -22.137,-17.377 -18.469,-10.436 -12.355,-4.865 -7.444,-7.184 -0.425,-9.181 1.951,-3.019 c 0,0 -0.699,2.961 0.194,4.174 z"
           id="path556"
           inkscape:connector-curvature="0"
           style="fill:url(#Gradient_34)" />
        <path
           d="m 281.457,233.259 c 0,0 10.588,2.855 19.643,8.709 9.055,5.854 31.989,22.357 38.102,27.929 6.113,5.572 17.372,13.833 18.265,15.047 0.891,1.213 2.6,1.971 1.804,2.844 -0.796,0.873 -5.92,-1.399 -8.124,-3.806 -2.203,-2.408 -26.125,-22.211 -36.529,-30.094 -10.403,-7.882 -15.187,-11.843 -22.398,-14.018 -7.211,-2.175 -16.171,-5.942 -14.52,-6.437 1.651,-0.495 3.757,-0.174 3.757,-0.174"
           id="path558"
           inkscape:connector-curvature="0"
           style="fill:#ffffff" />
        <path
           d="m 283.207,280.022 c 0,0 0.845,-8.823 1.622,-10.114 0.776,-1.291 7.146,-8.277 19.017,-13.847 11.871,-5.57 16.383,-7.452 16.383,-7.452 l 9.967,7.485 c 0,0 -10.598,5.929 -16.705,9.558 -6.105,3.629 -14.239,8.607 -15.036,9.481 -0.796,0.873 -1.553,2.581 -1.553,2.581 l -2.534,8.483 -11.161,-6.175"
           id="path560"
           inkscape:connector-curvature="0"
           style="fill:#000000" />
        <path
           d="m 286.974,271.064 8.637,5.873 c 0,0 1.233,-0.475 -0.495,-1.65 -1.727,-1.174 -8.162,-4.64 -8.162,-4.64 0,0 -2.145,-1.155 0.02,0.417"
           id="path562"
           inkscape:connector-curvature="0"
           style="fill:#ffffff" />
        <path
           d="m 258.768,266.659 c -1.893,-1.143 -3.669,-2.289 -5.404,-3.686 -0.679,-0.547 -1.615,-1.979 -2.339,-2.403 -1.022,-0.598 -0.445,-3.075 -0.486,-4.784 -0.074,-3.041 -0.469,-6.166 1.945,-8.313 2.091,-1.859 3.776,-4.582 6.194,-6.027 7.019,-4.196 17.265,-12.547 25.864,-10.517 6.323,1.492 10.766,3.826 16.516,7.064 10.238,5.767 20.114,11.99 29.174,19.495 8.23,6.817 16.118,14.06 23.923,21.356 1.249,1.167 2.482,2.352 3.738,3.512 1.257,1.161 2.515,2.322 3.774,3.482 0.846,0.781 0.183,-0.706 0.168,0.223 -0.018,1.147 -0.051,2.293 -0.085,3.44 -0.07,2.3 -0.191,4.598 -0.409,6.89 -0.352,3.704 -3.361,5.924 -6.331,7.625 -3.968,2.272 -8.031,4.25 -11.929,6.681 -3.339,2.083 -6.653,4.203 -9.964,6.329 -1.469,0.943 0.413,0.853 -1.266,-0.193 -0.995,-0.619 -2.181,-1.146 -3.025,-1.945 -9.213,-8.71 -18.566,-17.482 -28.784,-25.011 -12.502,-9.212 -26.472,-18.725 -41.372,-23.545 -1.197,-0.387 -1.706,1.492 -0.518,1.876 8.008,2.59 15.27,6.728 22.417,11.085 8.595,5.239 17.039,10.829 24.803,17.248 9.005,7.444 16.883,16.678 26.75,22.949 0.307,0.195 0.758,0.193 1.065,0 6.212,-3.919 12.367,-8.01 18.784,-11.587 3.297,-1.838 7.385,-3.171 9.671,-6.421 2.606,-3.706 2.185,-8.708 2.315,-13.05 0.086,-2.891 0.161,-3.288 -1.936,-5.221 -1.586,-1.462 -3.169,-2.926 -4.741,-4.403 -7.304,-6.865 -14.732,-13.604 -22.347,-20.122 -8.513,-7.284 -17.609,-13.467 -27.298,-19.09 -3.969,-2.303 -8.01,-4.476 -12.059,-6.636 -1.499,-0.8 -3.079,-1.894 -4.754,-2.286 -7.537,-1.767 -12.279,-2.18 -19.59,1.692 -4.379,2.32 -8.648,4.861 -12.901,7.404 -1.111,0.664 -1.956,1.475 -2.892,2.396 -1.664,1.639 -4.951,3.976 -6.075,5.895 -1.709,2.917 -0.332,9.925 -0.173,13.201 0.019,0.402 0.335,0.79 0.768,0.769 0.716,-0.037 1.963,1.696 2.504,2.11 1.794,1.376 3.649,2.584 5.591,3.739 0.786,0.468 1.493,-0.75 0.714,-1.221"
           id="path998"
           inkscape:connector-curvature="0"
           style="fill:#000000" />
      </g>
    </g>
  </g>
</svg>
