<?xml version="1.0" encoding="UTF-8" standalone="no"?>
<svg
   xmlns:dc="http://purl.org/dc/elements/1.1/"
   xmlns:cc="http://creativecommons.org/ns#"
   xmlns:rdf="http://www.w3.org/1999/02/22-rdf-syntax-ns#"
   xmlns:svg="http://www.w3.org/2000/svg"
   xmlns="http://www.w3.org/2000/svg"
   xmlns:sodipodi="http://sodipodi.sourceforge.net/DTD/sodipodi-0.dtd"
   xmlns:inkscape="http://www.inkscape.org/namespaces/inkscape"
   version="1.1"
   x="0"
   y="0"
   width="230.58572"
   height="256"
   viewBox="0 0 230.58572 255.99999"
   id="svg515"
   sodipodi:docname="sushi_03_gunkanmaki_ikura.svg"
   inkscape:version="0.92.4 (5da689c313, 2019-01-14)">
  <title
     id="title1326">Salmon Roe Gunkanmaki Sushi</title>
  <metadata
     id="metadata519">
    <rdf:RDF>
      <cc:Work
         rdf:about="">
        <dc:format>image/svg+xml</dc:format>
        <dc:type
           rdf:resource="http://purl.org/dc/dcmitype/StillImage" />
        <dc:title>Salmon Roe Gunkanmaki Sushi</dc:title>
        <cc:license
           rdf:resource="http://creativecommons.org/publicdomain/zero/1.0/" />
        <dc:creator>
          <cc:Agent>
            <dc:title>oksmith</dc:title>
          </cc:Agent>
        </dc:creator>
        <dc:source>https://openclipart.org/detail/320158</dc:source>
      </cc:Work>
      <cc:License
         rdf:about="http://creativecommons.org/publicdomain/zero/1.0/">
        <cc:permits
           rdf:resource="http://creativecommons.org/ns#Reproduction" />
        <cc:permits
           rdf:resource="http://creativecommons.org/ns#Distribution" />
        <cc:permits
           rdf:resource="http://creativecommons.org/ns#DerivativeWorks" />
      </cc:License>
    </rdf:RDF>
  </metadata>
  <sodipodi:namedview
     pagecolor="#ffffff"
     bordercolor="#666666"
     borderopacity="1"
     objecttolerance="10"
     gridtolerance="10"
     guidetolerance="10"
     inkscape:pageopacity="0"
     inkscape:pageshadow="2"
     inkscape:window-width="1920"
     inkscape:window-height="1025"
     id="namedview517"
     showgrid="false"
     inkscape:zoom="0.50717975"
     inkscape:cx="-471.56921"
     inkscape:cy="-21.322397"
     inkscape:window-x="-8"
     inkscape:window-y="-8"
     inkscape:window-maximized="1"
     inkscape:current-layer="svg515"
     inkscape:pagecheckerboard="true"
     fit-margin-top="0"
     fit-margin-left="0"
     fit-margin-right="0"
     fit-margin-bottom="0" />
  <defs
     id="defs326">
    <linearGradient
       id="Gradient_17"
       gradientUnits="userSpaceOnUse"
       x1="12385.898"
       y1="12509.4"
       x2="12385.898"
       y2="10046.7"
       gradientTransform="matrix(0.072,0,0,0.072,-592.087,-490.172)">
      <stop
         offset="0"
         stop-color="#008C54"
         id="stop172" />
      <stop
         offset="0.271"
         stop-color="#355E4B"
         id="stop174" />
      <stop
         offset="0.31"
         stop-color="#355E4B"
         id="stop176" />
      <stop
         offset="0.671"
         stop-color="#00A859"
         id="stop178" />
      <stop
         offset="0.71"
         stop-color="#00A859"
         id="stop180" />
      <stop
         offset="0.969"
         stop-color="#49B753"
         id="stop182" />
      <stop
         offset="1"
         stop-color="#49B753"
         id="stop184" />
    </linearGradient>
    <radialGradient
       id="Gradient_18"
       gradientUnits="userSpaceOnUse"
       cx="12195.3"
       cy="11085.6"
       r="163.80299"
       gradientTransform="matrix(0.072,0,0,0.072,-592.087,-490.172)">
      <stop
         offset="0"
         stop-color="#FEFEFE"
         id="stop187" />
      <stop
         offset="0.188"
         stop-color="#F7AB9A"
         id="stop189" />
      <stop
         offset="1"
         stop-color="#F05936"
         id="stop191" />
    </radialGradient>
    <radialGradient
       id="Gradient_19"
       gradientUnits="userSpaceOnUse"
       cx="11801"
       cy="11206.9"
       r="163.80299"
       gradientTransform="matrix(0.072,0,0,0.072,-592.087,-490.172)">
      <stop
         offset="0"
         stop-color="#FEFEFE"
         id="stop194" />
      <stop
         offset="0.188"
         stop-color="#F7AB9A"
         id="stop196" />
      <stop
         offset="1"
         stop-color="#F05936"
         id="stop198" />
    </radialGradient>
    <radialGradient
       id="Gradient_20"
       gradientUnits="userSpaceOnUse"
       cx="12660.5"
       cy="10984.5"
       r="163.80299"
       gradientTransform="matrix(0.072,0,0,0.072,-592.087,-490.172)">
      <stop
         offset="0"
         stop-color="#FEFEFE"
         id="stop201" />
      <stop
         offset="0.188"
         stop-color="#F7AB9A"
         id="stop203" />
      <stop
         offset="1"
         stop-color="#F05936"
         id="stop205" />
    </radialGradient>
    <radialGradient
       id="Gradient_21"
       gradientUnits="userSpaceOnUse"
       cx="13085.1"
       cy="11085.6"
       r="163.80299"
       gradientTransform="matrix(0.072,0,0,0.072,-592.087,-490.172)">
      <stop
         offset="0"
         stop-color="#FEFEFE"
         id="stop208" />
      <stop
         offset="0.188"
         stop-color="#F7AB9A"
         id="stop210" />
      <stop
         offset="1"
         stop-color="#F05936"
         id="stop212" />
    </radialGradient>
    <radialGradient
       id="Gradient_22"
       gradientUnits="userSpaceOnUse"
       cx="13529.9"
       cy="11308"
       r="163.823"
       gradientTransform="matrix(0.072,0,0,0.072,-592.087,-490.172)">
      <stop
         offset="0"
         stop-color="#FEFEFE"
         id="stop215" />
      <stop
         offset="0.188"
         stop-color="#F7AB9A"
         id="stop217" />
      <stop
         offset="1"
         stop-color="#F05936"
         id="stop219" />
    </radialGradient>
    <radialGradient
       id="Gradient_23"
       gradientUnits="userSpaceOnUse"
       cx="13893.9"
       cy="11409.1"
       r="163.783"
       gradientTransform="matrix(0.072,0,0,0.072,-592.087,-490.172)">
      <stop
         offset="0"
         stop-color="#FEFEFE"
         id="stop222" />
      <stop
         offset="0.188"
         stop-color="#F7AB9A"
         id="stop224" />
      <stop
         offset="1"
         stop-color="#F05936"
         id="stop226" />
    </radialGradient>
    <radialGradient
       id="Gradient_24"
       gradientUnits="userSpaceOnUse"
       cx="14257.9"
       cy="11631.6"
       r="163.791"
       gradientTransform="matrix(0.072,0,0,0.072,-592.087,-490.172)">
      <stop
         offset="0"
         stop-color="#FEFEFE"
         id="stop229" />
      <stop
         offset="0.188"
         stop-color="#F7AB9A"
         id="stop231" />
      <stop
         offset="1"
         stop-color="#F05936"
         id="stop233" />
    </radialGradient>
    <radialGradient
       id="Gradient_25"
       gradientUnits="userSpaceOnUse"
       cx="14480.401"
       cy="11854"
       r="163.791"
       gradientTransform="matrix(0.072,0,0,0.072,-592.087,-490.172)">
      <stop
         offset="0"
         stop-color="#FEFEFE"
         id="stop236" />
      <stop
         offset="0.188"
         stop-color="#F7AB9A"
         id="stop238" />
      <stop
         offset="1"
         stop-color="#F05936"
         id="stop240" />
    </radialGradient>
    <radialGradient
       id="Gradient_26"
       gradientUnits="userSpaceOnUse"
       cx="14035.5"
       cy="11975.3"
       r="163.819"
       gradientTransform="matrix(0.072,0,0,0.072,-592.087,-490.172)">
      <stop
         offset="0"
         stop-color="#FEFEFE"
         id="stop243" />
      <stop
         offset="0.188"
         stop-color="#F7AB9A"
         id="stop245" />
      <stop
         offset="1"
         stop-color="#F05936"
         id="stop247" />
    </radialGradient>
    <radialGradient
       id="Gradient_27"
       gradientUnits="userSpaceOnUse"
       cx="13636.2"
       cy="11721.4"
       r="166.213"
       gradientTransform="matrix(0.072,0,0,0.072,-592.087,-490.172)">
      <stop
         offset="0"
         stop-color="#FEFEFE"
         id="stop250" />
      <stop
         offset="0.188"
         stop-color="#F7AB9A"
         id="stop252" />
      <stop
         offset="1"
         stop-color="#F05936"
         id="stop254" />
    </radialGradient>
    <radialGradient
       id="Gradient_28"
       gradientUnits="userSpaceOnUse"
       cx="13236.7"
       cy="11520.3"
       r="163.80299"
       gradientTransform="matrix(0.072,0,0,0.072,-592.087,-490.172)">
      <stop
         offset="0"
         stop-color="#FEFEFE"
         id="stop257" />
      <stop
         offset="0.188"
         stop-color="#F7AB9A"
         id="stop259" />
      <stop
         offset="1"
         stop-color="#F05936"
         id="stop261" />
    </radialGradient>
    <radialGradient
       id="Gradient_29"
       gradientUnits="userSpaceOnUse"
       cx="12791.8"
       cy="11399"
       r="163.819"
       gradientTransform="matrix(0.072,0,0,0.072,-592.087,-490.172)">
      <stop
         offset="0"
         stop-color="#FEFEFE"
         id="stop264" />
      <stop
         offset="0.188"
         stop-color="#F7AB9A"
         id="stop266" />
      <stop
         offset="1"
         stop-color="#F05936"
         id="stop268" />
    </radialGradient>
    <radialGradient
       id="Gradient_30"
       gradientUnits="userSpaceOnUse"
       cx="12262.1"
       cy="11355.5"
       r="168.28"
       gradientTransform="matrix(0.072,0,0,0.072,-592.087,-490.172)">
      <stop
         offset="0"
         stop-color="#FEFEFE"
         id="stop271" />
      <stop
         offset="0.188"
         stop-color="#F7AB9A"
         id="stop273" />
      <stop
         offset="1"
         stop-color="#F05936"
         id="stop275" />
    </radialGradient>
    <radialGradient
       id="Gradient_31"
       gradientUnits="userSpaceOnUse"
       cx="11918.3"
       cy="11476.9"
       r="168.28"
       gradientTransform="matrix(0.072,0,0,0.072,-592.087,-490.172)">
      <stop
         offset="0"
         stop-color="#FEFEFE"
         id="stop278" />
      <stop
         offset="0.188"
         stop-color="#F7AB9A"
         id="stop280" />
      <stop
         offset="1"
         stop-color="#F05936"
         id="stop282" />
    </radialGradient>
    <radialGradient
       id="Gradient_32"
       gradientUnits="userSpaceOnUse"
       cx="12343"
       cy="11719.6"
       r="168.28"
       gradientTransform="matrix(0.072,0,0,0.072,-592.087,-490.172)">
      <stop
         offset="0"
         stop-color="#FEFEFE"
         id="stop285" />
      <stop
         offset="0.188"
         stop-color="#F7AB9A"
         id="stop287" />
      <stop
         offset="1"
         stop-color="#F05936"
         id="stop289" />
    </radialGradient>
    <radialGradient
       id="Gradient_33"
       gradientUnits="userSpaceOnUse"
       cx="12767.6"
       cy="11780.2"
       r="168.291"
       gradientTransform="matrix(0.072,0,0,0.072,-592.087,-490.172)">
      <stop
         offset="0"
         stop-color="#FEFEFE"
         id="stop292" />
      <stop
         offset="0.188"
         stop-color="#F7AB9A"
         id="stop294" />
      <stop
         offset="1"
         stop-color="#F05936"
         id="stop296" />
    </radialGradient>
    <radialGradient
       id="Gradient_34"
       gradientUnits="userSpaceOnUse"
       cx="13192.3"
       cy="11921.8"
       r="168.283"
       gradientTransform="matrix(0.072,0,0,0.072,-592.087,-490.172)">
      <stop
         offset="0"
         stop-color="#FEFEFE"
         id="stop299" />
      <stop
         offset="0.188"
         stop-color="#F7AB9A"
         id="stop301" />
      <stop
         offset="1"
         stop-color="#F05936"
         id="stop303" />
    </radialGradient>
    <radialGradient
       id="Gradient_35"
       gradientUnits="userSpaceOnUse"
       cx="13616.9"
       cy="12002.7"
       r="168.295"
       gradientTransform="matrix(0.072,0,0,0.072,-592.087,-490.172)">
      <stop
         offset="0"
         stop-color="#FEFEFE"
         id="stop306" />
      <stop
         offset="0.188"
         stop-color="#F7AB9A"
         id="stop308" />
      <stop
         offset="1"
         stop-color="#F05936"
         id="stop310" />
    </radialGradient>
    <linearGradient
       id="Gradient_36"
       gradientUnits="userSpaceOnUse"
       x1="11145.5"
       y1="12594.389"
       x2="14745.9"
       y2="12972.789"
       gradientTransform="matrix(0.072,0,0,0.072,-592.087,-490.172)">
      <stop
         offset="0"
         stop-color="#000000"
         id="stop313" />
      <stop
         offset="0.361"
         stop-color="#000000"
         id="stop315" />
      <stop
         offset="0.62"
         stop-color="#515151"
         id="stop317" />
      <stop
         offset="0.678"
         stop-color="#909090"
         id="stop319" />
      <stop
         offset="0.761"
         stop-color="#515151"
         id="stop321" />
      <stop
         offset="1"
         stop-color="#000000"
         id="stop323" />
    </linearGradient>
  </defs>
  <g
     id="Fish_Eggs"
     inkscape:label="sushi"
     transform="matrix(0.88434859,0,0,0.88434859,-186.58052,-198.95874)">
    <g
       id="g1066"
       inkscape:label="garnish">
      <path
         d="m 352.13,373.749 0.792,-1.944 c 9.648,-18.504 21.816,-59.472 4.68,-96.48 -1.584,3.888 -4.968,10.224 -7.561,11.376 -1.656,-11.88 -4.248,-10.152 -8.568,-20.879 -3.384,3.096 -4.176,8.279 -7.56,11.375 -13.32,-17.999 -12.312,-13.319 -16.128,-26.567 -2.304,5.76 -4.752,5.688 -10.44,13.32 -10.656,-11.016 -10.44,-15.192 -15.048,-30.744 -2.304,5.76 -12.024,28.08 -12.528,34.56 -3.744,-1.512 -7.56,-6.624 -10.44,-18 -2.88,3.816 -9.288,18.504 -7.56,30.383 -7.416,-3.024 -10.152,-5.184 -16.272,-16.631 -2.016,10.367 -1.728,21.383 3.96,30.815 -2.88,4.752 -15.337,2.592 -20.089,-1.584 2.448,9.936 8.209,10.8 12.529,21.528 -3.744,-1.512 -13.393,-0.432 -17.065,-1.872 4.32,10.728 14.256,31.32 22.753,37.008 -6.048,4.248 -8.352,10.008 -18.145,12.816 37.009,26.135 86.329,48.311 122.834,11.592 z"
         id="path63677"
         inkscape:connector-curvature="0"
         style="display:inline;fill:url(#Gradient_17)" />
      <path
         d="m 352.922,371.805 c 9.648,-18.504 21.816,-59.472 4.68,-96.48 -1.584,3.888 -4.968,10.224 -7.561,11.376 -1.656,-11.88 -4.248,-10.152 -8.568,-20.879 -3.384,3.096 -4.176,8.279 -7.56,11.375 -13.32,-17.999 -12.312,-13.319 -16.128,-26.567 -2.304,5.76 -4.752,5.688 -10.44,13.32 -10.656,-11.016 -10.44,-15.192 -15.048,-30.744 -2.304,5.76 -12.024,28.08 -12.528,34.56 -3.744,-1.512 -7.56,-6.624 -10.44,-18 -2.88,3.816 -9.288,18.504 -7.56,30.383 -7.416,-3.024 -10.152,-5.184 -16.272,-16.631 -2.016,10.367 -1.728,21.383 3.96,30.815 -2.88,4.752 -15.337,2.592 -20.089,-1.584 2.448,9.936 8.209,10.8 12.529,21.528 -3.744,-1.512 -13.393,-0.432 -17.065,-1.872 4.32,10.728 14.256,31.32 22.753,37.008 -6.048,4.248 -8.352,10.008 -18.145,12.816 37.009,26.135 86.329,48.311 122.834,11.592"
         id="path63679"
         inkscape:connector-curvature="0"
         style="display:inline;fill-opacity:0;stroke:#373435;stroke-width:5.40500021" />
    </g>
    <g
       id="g1122"
       inkscape:label="ikura">
      <g
         id="g63685">
        <path
           d="m 302.881,313.485 c 0,10.872 -8.784,19.656 -19.656,19.656 -10.872,0 -19.656,-8.784 -19.656,-19.656 0,-10.872 8.784,-19.656 19.656,-19.656 10.872,0 19.656,8.784 19.656,19.656 z"
           id="path63681"
           inkscape:connector-curvature="0"
           style="fill:url(#Gradient_18)" />
        <path
           d="m 302.881,313.485 c 0,10.872 -8.784,19.656 -19.656,19.656 -10.872,0 -19.656,-8.784 -19.656,-19.656 0,-10.872 8.784,-19.656 19.656,-19.656 10.872,0 19.656,8.784 19.656,19.656 z"
           id="path63683"
           inkscape:connector-curvature="0"
           style="fill-opacity:0;stroke:#000000;stroke-width:5.82399988" />
      </g>
      <g
         id="g63691">
        <path
           d="m 274.513,322.197 c 0,10.872 -8.784,19.656 -19.656,19.656 -10.872,0 -19.656,-8.784 -19.656,-19.656 0,-10.872 8.784,-19.656 19.656,-19.656 10.872,0 19.656,8.784 19.656,19.656 z"
           id="path63687"
           inkscape:connector-curvature="0"
           style="fill:url(#Gradient_19)" />
        <path
           d="m 274.513,322.197 c 0,10.872 -8.784,19.656 -19.656,19.656 -10.872,0 -19.656,-8.784 -19.656,-19.656 0,-10.872 8.784,-19.656 19.656,-19.656 10.872,0 19.656,8.784 19.656,19.656 z"
           id="path63689"
           inkscape:connector-curvature="0"
           style="fill-opacity:0;stroke:#000000;stroke-width:5.82399988" />
      </g>
      <g
         id="g63697">
        <path
           d="m 336.361,306.213 c 0,10.872 -8.784,19.656 -19.656,19.656 -10.872,0 -19.656,-8.784 -19.656,-19.656 0,-10.872 8.784,-19.656 19.656,-19.656 10.872,0 19.656,8.784 19.656,19.656 z"
           id="path63693"
           inkscape:connector-curvature="0"
           style="fill:url(#Gradient_20)" />
        <path
           d="m 336.361,306.213 c 0,10.872 -8.784,19.656 -19.656,19.656 -10.872,0 -19.656,-8.784 -19.656,-19.656 0,-10.872 8.784,-19.656 19.656,-19.656 10.872,0 19.656,8.784 19.656,19.656 z"
           id="path63695"
           inkscape:connector-curvature="0"
           style="fill-opacity:0;stroke:#000000;stroke-width:5.82399988" />
      </g>
      <g
         id="g63703">
        <path
           d="m 366.962,313.485 c 0,10.872 -8.784,19.656 -19.656,19.656 -10.873,0 -19.657,-8.784 -19.657,-19.656 0,-10.872 8.784,-19.656 19.657,-19.656 10.872,0 19.656,8.784 19.656,19.656 z"
           id="path63699"
           inkscape:connector-curvature="0"
           style="fill:url(#Gradient_21)" />
        <path
           d="m 366.962,313.485 c 0,10.872 -8.784,19.656 -19.656,19.656 -10.873,0 -19.657,-8.784 -19.657,-19.656 0,-10.872 8.784,-19.656 19.657,-19.656 10.872,0 19.656,8.784 19.656,19.656 z"
           id="path63701"
           inkscape:connector-curvature="0"
           style="fill-opacity:0;stroke:#000000;stroke-width:5.82399988" />
      </g>
      <g
         id="g63709">
        <path
           d="m 399.002,329.469 c 0,10.872 -8.784,19.656 -19.656,19.656 -10.872,0 -19.656,-8.784 -19.656,-19.656 0,-10.872 8.784,-19.656 19.656,-19.656 10.872,0 19.656,8.784 19.656,19.656 z"
           id="path63705"
           inkscape:connector-curvature="0"
           style="fill:url(#Gradient_22)" />
        <path
           d="m 399.002,329.469 c 0,10.872 -8.784,19.656 -19.656,19.656 -10.872,0 -19.656,-8.784 -19.656,-19.656 0,-10.872 8.784,-19.656 19.656,-19.656 10.872,0 19.656,8.784 19.656,19.656 z"
           id="path63707"
           inkscape:connector-curvature="0"
           style="fill-opacity:0;stroke:#000000;stroke-width:5.82399988" />
      </g>
      <g
         id="g63715">
        <path
           d="m 425.21,336.813 c 0,10.872 -8.784,19.656 -19.656,19.656 -10.872,0 -19.656,-8.784 -19.656,-19.656 0,-10.872 8.784,-19.656 19.656,-19.656 10.872,0 19.656,8.784 19.656,19.656 z"
           id="path63711"
           inkscape:connector-curvature="0"
           style="fill:url(#Gradient_23)" />
        <path
           d="m 425.21,336.813 c 0,10.872 -8.784,19.656 -19.656,19.656 -10.872,0 -19.656,-8.784 -19.656,-19.656 0,-10.872 8.784,-19.656 19.656,-19.656 10.872,0 19.656,8.784 19.656,19.656 z"
           id="path63713"
           inkscape:connector-curvature="0"
           style="fill-opacity:0;stroke:#000000;stroke-width:5.82399988" />
      </g>
      <g
         id="g63721">
        <path
           d="m 451.418,352.797 c 0,10.872 -8.784,19.656 -19.656,19.656 -10.872,0 -19.656,-8.784 -19.656,-19.656 0,-10.872 8.784,-19.656 19.656,-19.656 10.872,0 19.656,8.784 19.656,19.656 z"
           id="path63717"
           inkscape:connector-curvature="0"
           style="fill:url(#Gradient_24)" />
        <path
           d="m 451.418,352.797 c 0,10.872 -8.784,19.656 -19.656,19.656 -10.872,0 -19.656,-8.784 -19.656,-19.656 0,-10.872 8.784,-19.656 19.656,-19.656 10.872,0 19.656,8.784 19.656,19.656 z"
           id="path63719"
           inkscape:connector-curvature="0"
           style="fill-opacity:0;stroke:#000000;stroke-width:5.82399988" />
      </g>
      <g
         id="g63727">
        <path
           d="m 467.403,368.781 c 0,10.872 -8.784,19.655 -19.657,19.655 -10.872,0 -19.656,-8.783 -19.656,-19.655 0,-10.872 8.784,-19.656 19.656,-19.656 10.873,0 19.657,8.784 19.657,19.656 z"
           id="path63723"
           inkscape:connector-curvature="0"
           style="fill:url(#Gradient_25)" />
        <path
           d="m 467.403,368.781 c 0,10.872 -8.784,19.655 -19.657,19.655 -10.872,0 -19.656,-8.783 -19.656,-19.655 0,-10.872 8.784,-19.656 19.656,-19.656 10.873,0 19.657,8.784 19.657,19.656 z"
           id="path63725"
           inkscape:connector-curvature="0"
           style="fill-opacity:0;stroke:#000000;stroke-width:5.82399988" />
      </g>
      <g
         id="g63733">
        <path
           d="m 435.362,377.565 c 0,10.872 -8.784,19.655 -19.656,19.655 -10.872,0 -19.656,-8.783 -19.656,-19.655 0,-10.872 8.784,-19.656 19.656,-19.656 10.872,0 19.656,8.784 19.656,19.656 z"
           id="path63729"
           inkscape:connector-curvature="0"
           style="fill:url(#Gradient_26)" />
        <path
           d="m 435.362,377.565 c 0,10.872 -8.784,19.655 -19.656,19.655 -10.872,0 -19.656,-8.783 -19.656,-19.655 0,-10.872 8.784,-19.656 19.656,-19.656 10.872,0 19.656,8.784 19.656,19.656 z"
           id="path63731"
           inkscape:connector-curvature="0"
           style="fill-opacity:0;stroke:#000000;stroke-width:5.82399988" />
      </g>
      <g
         id="g63739">
        <path
           d="m 406.994,358.845 c 0.288,10.872 -8.28,19.872 -19.08,20.16 -10.872,0.288 -19.872,-8.28 -20.16,-19.08 -0.288,-10.872 8.28,-19.872 19.08,-20.16 10.872,-0.288 19.872,8.28 20.16,19.08 z"
           id="path63735"
           inkscape:connector-curvature="0"
           style="fill:url(#Gradient_27)" />
        <path
           d="m 406.994,358.845 c 0.288,10.872 -8.28,19.872 -19.08,20.16 -10.872,0.288 -19.872,-8.28 -20.16,-19.08 -0.288,-10.872 8.28,-19.872 19.08,-20.16 10.872,-0.288 19.872,8.28 20.16,19.08 z"
           id="path63737"
           inkscape:connector-curvature="0"
           style="fill-opacity:0;stroke:#000000;stroke-width:5.82399988" />
      </g>
      <g
         id="g63745">
        <path
           d="m 377.906,344.805 c 0,10.872 -8.784,19.656 -19.656,19.656 -10.872,0 -19.657,-8.784 -19.657,-19.656 0,-10.872 8.785,-19.656 19.657,-19.656 10.872,0 19.656,8.784 19.656,19.656 z"
           id="path63741"
           inkscape:connector-curvature="0"
           style="fill:url(#Gradient_28)" />
        <path
           d="m 377.906,344.805 c 0,10.872 -8.784,19.656 -19.656,19.656 -10.872,0 -19.657,-8.784 -19.657,-19.656 0,-10.872 8.785,-19.656 19.657,-19.656 10.872,0 19.656,8.784 19.656,19.656 z"
           id="path63743"
           inkscape:connector-curvature="0"
           style="fill-opacity:0;stroke:#000000;stroke-width:5.82399988" />
      </g>
      <g
         id="g63751">
        <path
           d="m 345.866,336.021 c 0,10.872 -8.785,19.656 -19.657,19.656 -10.872,0 -19.656,-8.784 -19.656,-19.656 0,-10.872 8.784,-19.656 19.656,-19.656 10.872,0 19.657,8.784 19.657,19.656 z"
           id="path63747"
           inkscape:connector-curvature="0"
           style="fill:url(#Gradient_29)" />
        <path
           d="m 345.866,336.021 c 0,10.872 -8.785,19.656 -19.657,19.656 -10.872,0 -19.656,-8.784 -19.656,-19.656 0,-10.872 8.784,-19.656 19.656,-19.656 10.872,0 19.657,8.784 19.657,19.656 z"
           id="path63749"
           inkscape:connector-curvature="0"
           style="fill-opacity:0;stroke:#000000;stroke-width:5.82399988" />
      </g>
      <g
         id="g63757">
        <path
           d="m 308.065,324.357 c 5.616,9.288 2.736,21.384 -6.552,27 -9.288,5.616 -21.384,2.736 -27,-6.552 -5.616,-9.288 -2.736,-21.384 6.552,-27 9.288,-5.616 21.384,-2.736 27,6.552 z"
           id="path63753"
           inkscape:connector-curvature="0"
           style="fill:url(#Gradient_30)" />
        <path
           d="m 308.065,324.357 c 5.616,9.288 2.736,21.384 -6.552,27 -9.288,5.616 -21.384,2.736 -27,-6.552 -5.616,-9.288 -2.736,-21.384 6.552,-27 9.288,-5.616 21.384,-2.736 27,6.552 z"
           id="path63755"
           inkscape:connector-curvature="0"
           style="fill-opacity:0;stroke:#000000;stroke-width:5.82399988" />
      </g>
      <g
         id="g63763">
        <path
           d="m 283.297,333.141 c 5.616,9.288 2.736,21.384 -6.552,27 -9.288,5.688 -21.384,2.736 -27,-6.552 -5.616,-9.288 -2.736,-21.384 6.552,-27 9.288,-5.616 21.384,-2.736 27,6.552 z"
           id="path63759"
           inkscape:connector-curvature="0"
           style="fill:url(#Gradient_31)" />
        <path
           d="m 283.297,333.141 c 5.616,9.288 2.736,21.384 -6.552,27 -9.288,5.688 -21.384,2.736 -27,-6.552 -5.616,-9.288 -2.736,-21.384 6.552,-27 9.288,-5.616 21.384,-2.736 27,6.552 z"
           id="path63761"
           inkscape:connector-curvature="0"
           style="fill-opacity:0;stroke:#000000;stroke-width:5.82399988" />
      </g>
      <g
         id="g63769">
        <path
           d="m 313.825,350.565 c 5.616,9.288 2.736,21.384 -6.552,27 -9.288,5.616 -21.384,2.736 -27,-6.552 -5.616,-9.288 -2.736,-21.384 6.552,-27 9.288,-5.616 21.384,-2.736 27,6.552 z"
           id="path63765"
           inkscape:connector-curvature="0"
           style="fill:url(#Gradient_32)" />
        <path
           d="m 313.825,350.565 c 5.616,9.288 2.736,21.384 -6.552,27 -9.288,5.616 -21.384,2.736 -27,-6.552 -5.616,-9.288 -2.736,-21.384 6.552,-27 9.288,-5.616 21.384,-2.736 27,6.552 z"
           id="path63767"
           inkscape:connector-curvature="0"
           style="fill-opacity:0;stroke:#000000;stroke-width:5.82399988" />
      </g>
      <g
         id="g63775">
        <path
           d="m 344.426,354.957 c 5.616,9.288 2.736,21.384 -6.553,27 -9.288,5.687 -21.384,2.736 -27,-6.552 -5.616,-9.288 -2.736,-21.384 6.552,-27 9.288,-5.616 21.384,-2.736 27.001,6.552 z"
           id="path63771"
           inkscape:connector-curvature="0"
           style="fill:url(#Gradient_33)" />
        <path
           d="m 344.426,354.957 c 5.616,9.288 2.736,21.384 -6.553,27 -9.288,5.687 -21.384,2.736 -27,-6.552 -5.616,-9.288 -2.736,-21.384 6.552,-27 9.288,-5.616 21.384,-2.736 27.001,6.552 z"
           id="path63773"
           inkscape:connector-curvature="0"
           style="fill-opacity:0;stroke:#000000;stroke-width:5.82399988" />
      </g>
      <g
         id="g63781">
        <path
           d="m 375.026,365.109 c 5.616,9.288 2.736,21.383 -6.552,26.999 -9.288,5.616 -21.384,2.664 -27.001,-6.551 -5.616,-9.288 -2.736,-21.384 6.553,-27 9.288,-5.616 21.384,-2.736 27,6.552 z"
           id="path63777"
           inkscape:connector-curvature="0"
           style="fill:url(#Gradient_34)" />
        <path
           d="m 375.026,365.109 c 5.616,9.288 2.736,21.383 -6.552,26.999 -9.288,5.616 -21.384,2.664 -27.001,-6.551 -5.616,-9.288 -2.736,-21.384 6.553,-27 9.288,-5.616 21.384,-2.736 27,6.552 z"
           id="path63779"
           inkscape:connector-curvature="0"
           style="fill-opacity:0;stroke:#000000;stroke-width:5.82399988" />
      </g>
      <g
         id="g63787">
        <path
           d="m 405.554,370.941 c 5.616,9.288 2.736,21.383 -6.552,26.999 -9.288,5.688 -21.384,2.664 -27,-6.552 -5.616,-9.287 -2.736,-21.383 6.552,-26.999 9.288,-5.616 21.384,-2.736 27,6.552 z"
           id="path63783"
           inkscape:connector-curvature="0"
           style="fill:url(#Gradient_35)" />
        <path
           d="m 405.554,370.941 c 5.616,9.288 2.736,21.383 -6.552,26.999 -9.288,5.688 -21.384,2.664 -27,-6.552 -5.616,-9.287 -2.736,-21.383 6.552,-26.999 9.288,-5.616 21.384,-2.736 27,6.552 z"
           id="path63785"
           inkscape:connector-curvature="0"
           style="fill-opacity:0;stroke:#000000;stroke-width:5.82399988" />
      </g>
    </g>
    <g
       id="g63793"
       style="display:inline"
       inkscape:label="nori">
      <path
         style="fill:url(#Gradient_36)"
         inkscape:connector-curvature="0"
         id="path63789"
         d="m 231.528,329.749 c 0,0 43.705,71.351 170.354,56.736 0,0 58.249,2.879 66.961,-23.256 l -18.937,123.767 c 0,0 -62.64,43.703 -142.705,14.544 0,0 -69.912,-18.936 -93.169,-65.52 0,0 -2.88,-66.959 17.496,-106.271 z" />
      <path
         style="fill-opacity:0;stroke:#000000;stroke-width:5.82399988"
         inkscape:connector-curvature="0"
         id="path63791"
         d="m 231.528,329.749 c 0,0 43.705,71.351 170.354,56.736 0,0 58.249,2.879 66.961,-23.256 l -18.937,123.767 c 0,0 -62.64,43.703 -142.705,14.544 0,0 -69.912,-18.936 -93.169,-65.52 0,0 -2.88,-66.959 17.496,-106.271 z" />
    </g>
  </g>
</svg>
