<?xml version="1.0" encoding="UTF-8" standalone="no"?>
<svg
   xmlns:dc="http://purl.org/dc/elements/1.1/"
   xmlns:cc="http://creativecommons.org/ns#"
   xmlns:rdf="http://www.w3.org/1999/02/22-rdf-syntax-ns#"
   xmlns:svg="http://www.w3.org/2000/svg"
   xmlns="http://www.w3.org/2000/svg"
   xmlns:sodipodi="http://sodipodi.sourceforge.net/DTD/sodipodi-0.dtd"
   xmlns:inkscape="http://www.inkscape.org/namespaces/inkscape"
   version="1.1"
   x="0"
   y="0"
   width="256"
   height="151.35277"
   viewBox="0 0 256 151.35276"
   id="svg515"
   sodipodi:docname="sushi_03_nigiri_sake.svg"
   inkscape:version="0.92.4 (5da689c313, 2019-01-14)">
  <title
     id="title1326">Salmon Nigiri Sushi</title>
  <metadata
     id="metadata519">
    <rdf:RDF>
      <cc:Work
         rdf:about="">
        <dc:format>image/svg+xml</dc:format>
        <dc:type
           rdf:resource="http://purl.org/dc/dcmitype/StillImage" />
        <dc:title>Salmon Nigiri Sushi</dc:title>
        <cc:license
           rdf:resource="http://creativecommons.org/publicdomain/zero/1.0/" />
        <dc:creator>
          <cc:Agent>
            <dc:title>oksmith</dc:title>
          </cc:Agent>
        </dc:creator>
        <dc:source>https://openclipart.org/detail/320158</dc:source>
      </cc:Work>
      <cc:License
         rdf:about="http://creativecommons.org/publicdomain/zero/1.0/">
        <cc:permits
           rdf:resource="http://creativecommons.org/ns#Reproduction" />
        <cc:permits
           rdf:resource="http://creativecommons.org/ns#Distribution" />
        <cc:permits
           rdf:resource="http://creativecommons.org/ns#DerivativeWorks" />
      </cc:License>
    </rdf:RDF>
  </metadata>
  <sodipodi:namedview
     pagecolor="#ffffff"
     bordercolor="#666666"
     borderopacity="1"
     objecttolerance="10"
     gridtolerance="10"
     guidetolerance="10"
     inkscape:pageopacity="0"
     inkscape:pageshadow="2"
     inkscape:window-width="1920"
     inkscape:window-height="1025"
     id="namedview517"
     showgrid="false"
     inkscape:zoom="0.25358988"
     inkscape:cx="-1169.3417"
     inkscape:cy="27.13005"
     inkscape:window-x="-8"
     inkscape:window-y="-8"
     inkscape:window-maximized="1"
     inkscape:current-layer="svg515"
     inkscape:pagecheckerboard="true"
     fit-margin-top="0"
     fit-margin-left="0"
     fit-margin-right="0"
     fit-margin-bottom="0" />
  <defs
     id="defs326" />
  <g
     id="Salmon"
     inkscape:label="sake"
     transform="matrix(0.77589342,0,0,0.77589342,-631.91705,-142.59218)">
    <g
       id="g63560">
      <path
         style="fill:#fefefe"
         inkscape:connector-curvature="0"
         id="path63556"
         d="m 848.142,250.99 c -0.504,2.664 1.368,5.544 1.08,8.064 -0.288,2.664 -0.864,5.04 -0.936,7.56 -0.072,2.664 -2.016,5.256 -1.8,7.775 0.216,2.664 2.952,4.752 3.528,7.2 0.576,2.592 0.432,5.04 1.368,7.416 0.936,2.448 2.016,4.536 3.24,6.84 1.224,2.232 0,6.192 1.584,8.28 1.512,2.016 5.184,2.376 7.056,4.32 1.728,1.8 1.8,5.616 3.816,7.416 1.872,1.656 3.96,3.456 6.12,5.04 2.016,1.512 5.256,1.512 7.488,3.024 2.088,1.44 4.608,2.304 6.912,3.672 2.16,1.296 5.185,1.296 7.488,2.592 2.088,1.152 3.672,3.6 6.049,4.752 2.16,1.08 3.96,3.24 6.408,4.392 2.232,1.008 4.104,3.168 6.552,4.176 2.304,1.008 4.968,1.224 7.416,2.232 2.304,0.936 4.968,1.296 7.344,2.232 2.304,0.936 5.04,1.08 7.416,2.016 2.376,0.864 4.392,2.808 6.768,3.672 2.376,0.864 5.112,0.864 7.488,1.728 2.376,0.864 4.824,1.656 7.272,2.448 2.448,0.792 4.176,3.672 6.624,4.464 2.448,0.792 5.688,-1.152 8.136,-0.36 2.448,0.72 4.536,2.808 6.912,3.528 2.448,0.72 5.256,0.36 7.704,1.008 2.52,0.648 4.752,2.016 7.2,2.664 2.52,0.648 5.4,-0.576 7.848,0 2.52,0.576 4.248,4.608 6.696,5.112 2.593,0.504 5.257,0.36 7.705,0.792 2.592,0.432 5.328,-0.144 7.776,0.144 2.664,0.36 5.184,0.648 7.632,0.864 2.808,0.288 5.544,-0.576 8.208,-0.72 2.808,-0.144 5.184,-1.224 7.848,-1.8 2.736,-0.576 5.04,-1.296 7.632,-2.304 2.592,-1.008 5.544,-0.72 7.992,-2.088 2.376,-1.368 3.744,-3.96 5.976,-5.688 2.16,-1.656 6.984,-0.216 9.072,-2.16 1.944,-1.872 2.808,-5.112 4.608,-7.2 1.8,-2.016 4.608,-3.456 6.264,-5.688 1.512,-1.944 2.448,-4.896 3.456,-7.272 0.936,-2.304 -1.872,-5.76 -1.296,-8.352 0.504,-2.448 2.304,-4.536 2.52,-7.128 0.216,-2.52 -0.072,-4.968 -0.216,-7.56 -0.072,-2.592 0.216,-5.112 -0.144,-7.56 -0.432,-2.664 1.944,-6.048 1.296,-8.28 -0.864,-2.664 -3.168,-4.824 -4.248,-7.128 -1.224,-2.448 -3.888,-4.032 -5.4,-6.12 -1.512,-2.232 -1.512,-5.832 -3.312,-7.704 -1.872,-1.944 -3.816,-4.248 -5.904,-5.832 -2.16,-1.584 -6.624,0.504 -9,-0.792 -2.304,-1.224 -3.672,-4.392 -6.192,-5.328 -2.448,-0.935 -5.616,0.432 -8.208,-0.287 -2.52,-0.721 -4.464,-3.456 -7.128,-4.104 -2.52,-0.576 -5.328,-0.072 -7.992,-0.576 -2.592,-0.432 -5.328,0.144 -7.992,-0.216 -2.592,-0.36 -4.752,-4.248 -7.344,-4.608 -2.592,-0.36 -5.616,1.872 -8.208,1.512 -2.592,-0.36 -5.329,-0.36 -7.921,-0.792 -2.663,-0.36 -4.896,-2.88 -7.488,-3.312 -2.52,-0.504 -5.616,1.368 -8.136,0.792 -2.52,-0.576 -4.176,-4.392 -6.696,-5.112 -2.52,-0.648 -4.752,-2.088 -7.2,-2.808 -2.448,-0.72 -5.112,-0.792 -7.632,-1.584 -2.448,-0.792 -5.328,-0.216 -7.848,-1.08 -2.448,-0.792 -4.608,-2.664 -7.056,-3.456 -2.448,-0.792 -5.184,-0.936 -7.632,-1.728 -2.448,-0.792 -5.256,-0.72 -7.704,-1.44 -2.52,-0.72 -5.112,-1.08 -7.56,-1.8 -2.52,-0.72 -5.4,0.288 -7.92,-0.36 -2.52,-0.576 -4.464,-3.672 -6.984,-4.176 -2.592,-0.504 -5.184,-0.504 -7.704,-0.864 -2.592,-0.36 -5.112,-1.872 -7.632,-2.016 -2.592,-0.144 -5.329,-0.936 -7.921,-0.864 -2.592,0.072 -4.896,3.888 -7.488,4.176 -2.592,0.288 -5.4,-1.224 -7.92,-0.648 -2.52,0.576 -4.464,2.808 -6.912,3.744 -2.376,0.864 -5.4,0.288 -7.776,1.44 -2.232,1.152 -3.096,4.536 -5.328,5.976 -4.68,3.168 -5.976,1.44 -9.648,5.688 z" />
      <path
         style="fill-opacity:0;stroke:#343232;stroke-width:5.45300007"
         inkscape:connector-curvature="0"
         id="path63558"
         d="m 848.142,250.99 c -0.504,2.664 1.368,5.544 1.08,8.064 -0.288,2.664 -0.864,5.04 -0.936,7.56 -0.072,2.664 -2.016,5.256 -1.8,7.775 0.216,2.664 2.952,4.752 3.528,7.2 0.576,2.592 0.432,5.04 1.368,7.416 0.936,2.448 2.016,4.536 3.24,6.84 1.224,2.232 0,6.192 1.584,8.28 1.512,2.016 5.184,2.376 7.056,4.32 1.728,1.8 1.8,5.616 3.816,7.416 1.872,1.656 3.96,3.456 6.12,5.04 2.016,1.512 5.256,1.512 7.488,3.024 2.088,1.44 4.608,2.304 6.912,3.672 2.16,1.296 5.185,1.296 7.488,2.592 2.088,1.152 3.672,3.6 6.049,4.752 2.16,1.08 3.96,3.24 6.408,4.392 2.232,1.008 4.104,3.168 6.552,4.176 2.304,1.008 4.968,1.224 7.416,2.232 2.304,0.936 4.968,1.296 7.344,2.232 2.304,0.936 5.04,1.08 7.416,2.016 2.376,0.864 4.392,2.808 6.768,3.672 2.376,0.864 5.112,0.864 7.488,1.728 2.376,0.864 4.824,1.656 7.272,2.448 2.448,0.792 4.176,3.672 6.624,4.464 2.448,0.792 5.688,-1.152 8.136,-0.36 2.448,0.72 4.536,2.808 6.912,3.528 2.448,0.72 5.256,0.36 7.704,1.008 2.52,0.648 4.752,2.016 7.2,2.664 2.52,0.648 5.4,-0.576 7.848,0 2.52,0.576 4.248,4.608 6.696,5.112 2.593,0.504 5.257,0.36 7.705,0.792 2.592,0.432 5.328,-0.144 7.776,0.144 2.664,0.36 5.184,0.648 7.632,0.864 2.808,0.288 5.544,-0.576 8.208,-0.72 2.808,-0.144 5.184,-1.224 7.848,-1.8 2.736,-0.576 5.04,-1.296 7.632,-2.304 2.592,-1.008 5.544,-0.72 7.992,-2.088 2.376,-1.368 3.744,-3.96 5.976,-5.688 2.16,-1.656 6.984,-0.216 9.072,-2.16 1.944,-1.872 2.808,-5.112 4.608,-7.2 1.8,-2.016 4.608,-3.456 6.264,-5.688 1.512,-1.944 2.448,-4.896 3.456,-7.272 0.936,-2.304 -1.872,-5.76 -1.296,-8.352 0.504,-2.448 2.304,-4.536 2.52,-7.128 0.216,-2.52 -0.072,-4.968 -0.216,-7.56 -0.072,-2.592 0.216,-5.112 -0.144,-7.56 -0.432,-2.664 1.944,-6.048 1.296,-8.28 -0.864,-2.664 -3.168,-4.824 -4.248,-7.128 -1.224,-2.448 -3.888,-4.032 -5.4,-6.12 -1.512,-2.232 -1.512,-5.832 -3.312,-7.704 -1.872,-1.944 -3.816,-4.248 -5.904,-5.832 -2.16,-1.584 -6.624,0.504 -9,-0.792 -2.304,-1.224 -3.672,-4.392 -6.192,-5.328 -2.448,-0.935 -5.616,0.432 -8.208,-0.287 -2.52,-0.721 -4.464,-3.456 -7.128,-4.104 -2.52,-0.576 -5.328,-0.072 -7.992,-0.576 -2.592,-0.432 -5.328,0.144 -7.992,-0.216 -2.592,-0.36 -4.752,-4.248 -7.344,-4.608 -2.592,-0.36 -5.616,1.872 -8.208,1.512 -2.592,-0.36 -5.329,-0.36 -7.921,-0.792 -2.663,-0.36 -4.896,-2.88 -7.488,-3.312 -2.52,-0.504 -5.616,1.368 -8.136,0.792 -2.52,-0.576 -4.176,-4.392 -6.696,-5.112 -2.52,-0.648 -4.752,-2.088 -7.2,-2.808 -2.448,-0.72 -5.112,-0.792 -7.632,-1.584 -2.448,-0.792 -5.328,-0.216 -7.848,-1.08 -2.448,-0.792 -4.608,-2.664 -7.056,-3.456 -2.448,-0.792 -5.184,-0.936 -7.632,-1.728 -2.448,-0.792 -5.256,-0.72 -7.704,-1.44 -2.52,-0.72 -5.112,-1.08 -7.56,-1.8 -2.52,-0.72 -5.4,0.288 -7.92,-0.36 -2.52,-0.576 -4.464,-3.672 -6.984,-4.176 -2.592,-0.504 -5.184,-0.504 -7.704,-0.864 -2.592,-0.36 -5.112,-1.872 -7.632,-2.016 -2.592,-0.144 -5.329,-0.936 -7.921,-0.864 -2.592,0.072 -4.896,3.888 -7.488,4.176 -2.592,0.288 -5.4,-1.224 -7.92,-0.648 -2.52,0.576 -4.464,2.808 -6.912,3.744 -2.376,0.864 -5.4,0.288 -7.776,1.44 -2.232,1.152 -3.096,4.536 -5.328,5.976 -4.68,3.168 -5.976,1.44 -9.648,5.688" />
    </g>
    <g
       id="g63588">
      <g
         id="g63566">
        <path
           style="fill:#f26e56"
           inkscape:connector-curvature="0"
           id="path63562"
           d="m 817.398,249.334 c 0,0 18.72,-53.64 77.4,-63 0,0 177.842,2.592 246.819,108.935 0,0 -16.2,59.544 -40.825,66.384 0,0 -11.088,6.84 -28.944,8.496 0,0 -216.146,-108.071 -251.858,-108.935 0,0 -4.248,-6.84 -2.592,-11.88 z" />
        <path
           style="fill-opacity:0;stroke:#343232;stroke-width:5.10599995"
           inkscape:connector-curvature="0"
           id="path63564"
           d="m 817.398,249.334 c 0,0 18.72,-53.64 77.4,-63 0,0 177.842,2.592 246.819,108.935 0,0 -16.2,59.544 -40.825,66.384 0,0 -11.088,6.84 -28.944,8.496 0,0 -216.146,-108.071 -251.858,-108.935 0,0 -4.248,-6.84 -2.592,-11.88" />
      </g>
      <path
         style="fill:#ef4f3a"
         inkscape:connector-curvature="0"
         id="path63570"
         d="m 825.03,249.334 c 0,0 97.849,-4.248 279.146,104.687 0,0 -14.472,9.36 -31.464,11.952 0,0 -182.954,-97.848 -250.202,-108.935 0,0 -2.52,-8.496 2.52,-7.632 z" />
      <path
         style="fill:#fefefe;fill-opacity:0.431"
         inkscape:connector-curvature="0"
         id="path63572"
         d="m 1123.761,329.325 c -9.217,0.288 -18.505,0.36 -27.649,0.504 -4.608,0.072 -9.216,0.216 -13.824,0.36 -2.304,0.072 -4.608,0.216 -6.84,0.36 -2.304,0.144 -4.536,0.36 -6.696,0.792 h 0.072 c -3.168,0.936 -6.336,1.8 -9.504,2.808 -3.168,1.008 -6.264,2.016 -9.432,3.096 -3.096,1.08 -6.192,2.232 -9.216,3.6 -1.512,0.648 -2.952,1.368 -4.392,2.232 -0.72,0.432 -1.368,0.864 -2.016,1.368 -0.648,0.504 -1.224,1.08 -1.584,1.872 0.288,-0.792 0.792,-1.512 1.368,-2.088 0.576,-0.648 1.224,-1.152 1.872,-1.656 1.368,-1.008 2.808,-1.872 4.248,-2.664 2.952,-1.656 5.976,-3.024 9.072,-4.32 3.096,-1.296 6.192,-2.448 9.36,-3.528 3.168,-1.08 6.264,-2.16 9.504,-3.096 h 0.072 0.072 c 4.68,-0.864 9.36,-1.08 13.968,-1.224 4.608,-0.144 9.288,-0.144 13.896,-0.072 9.216,0.216 18.504,0.648 27.649,1.656 z" />
      <path
         style="fill:#fefefe;fill-opacity:0.431"
         inkscape:connector-curvature="0"
         id="path63574"
         d="m 1135.713,296.997 c -9.936,0.144 -19.873,0.36 -29.809,0.648 -4.968,0.144 -9.936,0.36 -14.904,0.504 -4.968,0.216 -9.936,0.432 -14.832,0.72 -9.864,0.504 -19.8,1.224 -29.592,2.376 -4.896,0.576 -9.792,1.224 -14.616,2.16 -4.824,0.936 -9.648,2.016 -14.184,3.816 l 0.144,-0.072 -7.128,4.536 c -2.377,1.512 -4.753,3.024 -7.129,4.536 -4.752,2.952 -9.504,5.976 -14.328,8.928 4.536,-3.312 9.144,-6.552 13.752,-9.792 2.305,-1.656 4.608,-3.24 6.913,-4.824 l 6.912,-4.824 0.072,-0.072 0.072,-0.072 c 4.68,-2.016 9.576,-3.312 14.472,-4.32 4.896,-1.008 9.864,-1.8 14.76,-2.376 9.864,-1.224 19.872,-1.944 29.808,-2.376 4.968,-0.216 9.936,-0.36 14.904,-0.432 4.968,-0.072 9.936,-0.072 14.904,0 9.936,0.072 19.873,0.36 29.809,1.008 z" />
      <path
         style="fill:#fefefe;fill-opacity:0.431"
         inkscape:connector-curvature="0"
         id="path63576"
         d="m 1100.792,259.558 c -10.944,1.152 -21.816,2.52 -32.688,3.816 -10.872,1.44 -21.744,2.88 -32.544,4.608 -5.4,0.864 -10.8,1.799 -16.2,2.807 -5.4,1.008 -10.728,2.088 -16.057,3.312 -5.328,1.224 -10.584,2.592 -15.768,4.32 -5.184,1.728 -10.296,3.6 -14.832,6.48 l 0.072,-0.072 c -4.032,3.312 -8.064,6.696 -12.096,9.936 -4.104,3.312 -8.136,6.624 -12.24,9.864 3.816,-3.6 7.704,-7.056 11.592,-10.584 3.888,-3.528 7.776,-6.984 11.736,-10.44 v 0 h 0.072 c 2.304,-1.584 4.824,-2.952 7.344,-4.104 2.52,-1.152 5.112,-2.16 7.704,-3.096 5.256,-1.8 10.512,-3.312 15.912,-4.608 5.328,-1.295 10.729,-2.448 16.129,-3.456 5.4,-1.008 10.872,-1.871 16.272,-2.735 10.872,-1.584 21.816,-2.88 32.76,-3.888 10.944,-1.008 21.888,-1.8 32.904,-2.16 z" />
      <path
         style="fill:#fefefe;fill-opacity:0.431"
         inkscape:connector-curvature="0"
         id="path63578"
         d="m 1076.096,240.838 c -11.808,1.872 -23.616,3.888 -35.424,5.832 -11.808,2.088 -23.544,4.176 -35.28,6.48 -11.737,2.304 -23.473,4.752 -34.993,7.704 -5.76,1.44 -11.52,3.096 -17.208,4.968 -2.808,0.936 -5.616,1.944 -8.352,3.096 -2.736,1.152 -5.4,2.448 -7.848,4.032 l 0.072,-0.073 c -3.312,3.24 -6.624,6.408 -10.008,9.576 -3.312,3.168 -6.696,6.336 -10.08,9.504 3.096,-3.384 6.336,-6.768 9.504,-10.08 3.168,-3.384 6.336,-6.695 9.576,-10.007 l 0.072,-0.072 0.072,-0.072 c 2.52,-1.728 5.256,-3.168 7.992,-4.392 2.736,-1.296 5.544,-2.376 8.424,-3.384 5.688,-2.088 11.448,-3.744 17.208,-5.328 11.592,-3.096 23.328,-5.616 35.137,-7.848 11.808,-2.232 23.616,-4.104 35.496,-5.76 11.88,-1.656 23.76,-3.096 35.712,-4.176 z" />
      <path
         style="fill:#fefefe;fill-opacity:0.431"
         inkscape:connector-curvature="0"
         id="path63580"
         d="m 1048.88,227.23 c -6.408,0.36 -12.744,0.792 -19.152,1.368 -6.336,0.576 -12.744,1.152 -19.08,1.872 -6.336,0.72 -12.673,1.584 -18.937,2.52 -6.336,0.936 -12.6,2.016 -18.864,3.24 -6.264,1.224 -12.456,2.664 -18.648,4.248 -6.12,1.584 -12.24,3.456 -18.216,5.544 -3.024,1.08 -5.976,2.232 -8.856,3.456 -2.952,1.224 -5.832,2.592 -8.64,4.032 -5.616,2.952 -10.944,6.408 -15.624,10.656 v 0 c -4.392,4.68 -8.712,9.432 -13.177,14.111 4.033,-4.967 8.209,-9.863 12.313,-14.831 v 0 0 c 4.608,-4.608 9.936,-8.28 15.552,-11.448 5.616,-3.168 11.52,-5.832 17.568,-8.064 6.048,-2.304 12.168,-4.176 18.36,-5.832 6.192,-1.656 12.456,-3.096 18.792,-4.248 6.336,-1.224 12.672,-2.232 19.008,-3.096 6.337,-0.864 12.744,-1.512 19.081,-2.088 12.744,-1.08 25.56,-1.656 38.376,-1.44 z" />
      <path
         style="fill:#fefefe;fill-opacity:0.431"
         inkscape:connector-curvature="0"
         id="path63582"
         d="m 1002.943,211.102 c -6.048,0.576 -12.024,1.224 -18,1.944 -5.976,0.792 -11.952,1.584 -17.928,2.52 -5.976,0.936 -11.88,2.016 -17.784,3.168 -5.904,1.152 -11.808,2.448 -17.64,3.816 -5.832,1.44 -11.664,3.024 -17.424,4.752 -5.76,1.8 -11.448,3.744 -16.993,5.976 -5.544,2.304 -11.016,4.752 -16.2,7.704 -5.256,2.952 -10.152,6.408 -14.616,10.368 l 0.144,-0.144 -3.6,7.56 c -1.224,2.52 -2.448,5.04 -3.672,7.56 1.008,-2.592 2.088,-5.184 3.168,-7.776 l 3.168,-7.776 v -0.072 l 0.072,-0.072 c 4.32,-4.32 9.288,-7.92 14.472,-11.16 5.184,-3.168 10.656,-5.976 16.272,-8.352 5.616,-2.376 11.305,-4.464 17.137,-6.264 5.76,-1.872 11.664,-3.456 17.568,-4.824 5.904,-1.44 11.88,-2.664 17.784,-3.672 5.976,-1.08 11.952,-1.944 18,-2.664 12.024,-1.512 24.12,-2.52 36.216,-2.664 z" />
      <path
         style="fill:#fefefe;fill-opacity:0.431"
         inkscape:connector-curvature="0"
         id="path63584"
         d="m 925.471,197.494 c -8.208,1.656 -16.344,3.744 -24.264,6.264 -7.992,2.52 -15.769,5.472 -23.329,8.928 -7.56,3.528 -14.832,7.56 -21.528,12.384 -6.696,4.824 -12.888,10.512 -17.928,17.064 l 0.072,-0.072 -4.536,7.488 c -1.512,2.52 -3.024,4.968 -4.608,7.488 1.296,-2.664 2.592,-5.256 3.888,-7.848 l 4.032,-7.776 v 0 l 0.072,-0.072 c 4.752,-7.056 10.872,-13.032 17.64,-18.144 6.768,-5.112 14.184,-9.288 21.888,-12.744 7.704,-3.456 15.697,-6.264 23.833,-8.424 8.136,-2.16 16.416,-3.816 24.768,-4.536 z" />
      <path
         style="fill:#fefefe"
         inkscape:connector-curvature="0"
         id="path63586"
         d="m 892.278,192.382 c 0,0 128.522,0 204.266,63 0,0 -78.264,-46.8 -204.266,-63 z" />
    </g>
  </g>
</svg>
