<?xml version="1.0" encoding="UTF-8" standalone="no"?>
<svg
   xmlns:dc="http://purl.org/dc/elements/1.1/"
   xmlns:cc="http://creativecommons.org/ns#"
   xmlns:rdf="http://www.w3.org/1999/02/22-rdf-syntax-ns#"
   xmlns:svg="http://www.w3.org/2000/svg"
   xmlns="http://www.w3.org/2000/svg"
   xmlns:sodipodi="http://sodipodi.sourceforge.net/DTD/sodipodi-0.dtd"
   xmlns:inkscape="http://www.inkscape.org/namespaces/inkscape"
   version="1.1"
   x="0"
   y="0"
   width="256"
   height="246.72063"
   viewBox="0 0 256 246.72063"
   id="svg1309"
   sodipodi:docname="sushi_02_gunkanmaki_ikura.svg"
   inkscape:version="0.92.4 (5da689c313, 2019-01-14)">
  <title
     id="title2120">Salmon Roe Gunkanmaki Sushi</title>
  <metadata
     id="metadata1313">
    <rdf:RDF>
      <cc:Work
         rdf:about="">
        <dc:format>image/svg+xml</dc:format>
        <dc:type
           rdf:resource="http://purl.org/dc/dcmitype/StillImage" />
        <dc:title>Salmon Roe Gunkanmaki Sushi</dc:title>
        <cc:license
           rdf:resource="http://creativecommons.org/publicdomain/zero/1.0/" />
        <dc:source>https://openclipart.org/detail/284028</dc:source>
        <dc:creator>
          <cc:Agent>
            <dc:title>oksmith</dc:title>
          </cc:Agent>
        </dc:creator>
      </cc:Work>
      <cc:License
         rdf:about="http://creativecommons.org/publicdomain/zero/1.0/">
        <cc:permits
           rdf:resource="http://creativecommons.org/ns#Reproduction" />
        <cc:permits
           rdf:resource="http://creativecommons.org/ns#Distribution" />
        <cc:permits
           rdf:resource="http://creativecommons.org/ns#DerivativeWorks" />
      </cc:License>
    </rdf:RDF>
  </metadata>
  <sodipodi:namedview
     pagecolor="#ffffff"
     bordercolor="#666666"
     borderopacity="1"
     objecttolerance="10"
     gridtolerance="10"
     guidetolerance="10"
     inkscape:pageopacity="0"
     inkscape:pageshadow="2"
     inkscape:window-width="1920"
     inkscape:window-height="1025"
     id="namedview1311"
     showgrid="false"
     inkscape:zoom="1.0199785"
     inkscape:cx="170.58506"
     inkscape:cy="134.12251"
     inkscape:window-x="-8"
     inkscape:window-y="-8"
     inkscape:window-maximized="1"
     inkscape:current-layer="svg1309"
     fit-margin-top="0"
     fit-margin-left="0"
     fit-margin-right="0"
     fit-margin-bottom="0"
     inkscape:pagecheckerboard="true" />
  <defs
     id="defs256" />
  <g
     id="g2369"
     transform="matrix(2.2070589,0,0,2.2070589,-1019.85,-914.43306)">
    <g
       id="g2250"
       inkscape:label="text"
       style="display:none">
      <path
         style="fill:#000000"
         inkscape:connector-curvature="0"
         id="path1292"
         d="m 499.637,543.069 c -0.44,3.402 -0.835,6.804 -1.187,10.206 -0.791,6.714 -1.449,10.473 -1.975,11.279 -0.176,0.18 -0.396,0.18 -0.66,0 -0.966,-1.164 -1.449,-2.283 -1.449,-3.357 1.054,-6.535 2.196,-13.562 3.426,-21.082 0.614,-0.448 0.966,-0.537 1.054,-0.269 l 0.395,0.537 c 0.264,0.627 0.396,1.523 0.396,2.686" />
      <path
         style="fill:#000000"
         inkscape:connector-curvature="0"
         id="path1294"
         d="m 510.73,541.994 c -0.087,1.344 -0.482,4.343 -1.185,8.997 1.318,-1.163 2.371,-1.878 3.162,-2.148 0.703,-0.357 1.494,-0.537 2.373,-0.537 1.053,0 1.887,0.268 2.502,0.806 0.615,0.537 0.924,1.656 0.924,3.357 0,0.896 -0.309,1.746 -0.924,2.551 -0.527,0.627 -1.316,1.209 -2.371,1.746 -1.143,0.537 -1.932,0.94 -2.371,1.208 l 0.922,2.148 c 0.351,1.164 0.791,1.746 1.318,1.746 0.262,0 1.008,-0.268 2.238,-0.805 0.528,-0.269 0.879,-0.314 1.055,-0.135 -0.967,2.06 -2.328,3.134 -4.084,3.223 -1.055,0.089 -1.801,-0.716 -2.24,-2.417 -0.528,-1.612 -0.879,-2.596 -1.055,-2.954 -0.176,-0.358 -0.658,-0.806 -1.449,-1.343 l -0.395,-0.403 c -0.175,-0.178 -0.175,-0.447 0,-0.805 0.614,-0.09 1.098,-0.135 1.45,-0.135 1.58,0 2.941,-0.402 4.084,-1.208 1.142,-0.806 1.712,-1.746 1.712,-2.82 0,-0.537 -0.13,-0.94 -0.394,-1.208 -0.352,-0.358 -0.748,-0.537 -1.186,-0.537 -1.67,-0.09 -3.427,1.074 -5.271,3.491 -0.615,0.895 -1.01,2.462 -1.186,4.699 -0.175,2.148 -0.439,3.895 -0.791,5.237 -0.527,1.254 -1.142,1.209 -1.843,-0.134 -0.176,-0.268 -0.264,-0.76 -0.264,-1.477 0.176,-0.895 0.439,-2.104 0.791,-3.626 1.141,-5.997 1.887,-11.01 2.238,-15.039 l -0.131,-0.135 -1.054,0.269 -0.131,-0.134 c 0.351,-0.716 0.877,-1.7 1.58,-2.954 0.264,-0.537 0.572,-0.716 0.924,-0.537 0.701,0.447 1.052,1.119 1.052,2.013" />
      <path
         style="fill:#000000"
         inkscape:connector-curvature="0"
         id="path1296"
         d="m 533.157,549.917 c -0.263,0.807 -0.527,1.791 -0.79,2.954 -0.439,2.686 -0.703,4.611 -0.791,5.775 0,1.074 0.132,1.835 0.396,2.282 0.175,0.448 0.526,0.583 1.053,0.403 0.528,-0.178 1.054,-0.76 1.581,-1.746 0.088,0.27 0.088,0.717 0,1.343 -0.791,2.148 -1.625,3.223 -2.502,3.223 -0.528,0 -0.967,-0.179 -1.319,-0.537 -0.879,-0.805 -1.273,-2.283 -1.185,-4.431 -0.879,1.97 -1.757,3.357 -2.635,4.162 -0.703,0.627 -1.406,0.94 -2.109,0.94 -0.966,0 -1.668,-0.313 -2.108,-0.94 -0.527,-0.716 -0.791,-1.745 -0.791,-3.088 0,-0.806 0.439,-4.028 1.318,-9.668 -0.087,-0.357 -0.307,-0.357 -0.659,0 -0.439,0.18 -0.615,0.09 -0.527,-0.268 0.176,-0.538 0.571,-1.164 1.186,-1.88 0.527,-0.448 1.01,-0.448 1.45,0 0.526,0.627 0.79,1.208 0.79,1.745 0,0.806 -0.132,1.791 -0.395,2.954 -0.791,3.671 -1.186,5.819 -1.186,6.445 0,0.896 0.087,1.433 0.263,1.612 0.264,0.269 0.528,0.403 0.791,0.403 0.79,0 1.58,-0.447 2.371,-1.343 1.494,-1.701 2.548,-4.432 3.163,-8.191 0.087,-0.805 0.175,-1.522 0.263,-2.149 0.088,-1.253 0.352,-2.013 0.791,-2.282 0.44,-0.09 0.79,0 1.054,0.269 0.615,0.447 0.791,1.119 0.527,2.013" />
      <path
         style="fill:#000000"
         inkscape:connector-curvature="0"
         id="path1298"
         d="m 548.601,548.574 c 1.053,0.896 0.965,1.568 -0.264,2.015 -2.108,0.359 -3.821,1.433 -5.139,3.223 -1.142,1.521 -1.844,3.804 -2.108,6.847 -0.176,1.344 -0.352,2.195 -0.527,2.552 -0.176,0.359 -0.395,0.582 -0.659,0.671 -0.263,0 -0.527,-0.268 -0.791,-0.806 -0.351,-0.537 -0.483,-1.074 -0.395,-1.611 0.439,-2.685 0.747,-4.609 0.923,-5.773 0.088,-1.164 0.131,-2.372 0.131,-3.626 0,-0.358 -0.439,-0.985 -1.317,-1.88 -0.176,-0.179 -0.132,-0.447 0.132,-0.806 0.526,-0.447 1.184,-0.447 1.976,0 0.791,0.537 1.23,1.433 1.318,2.686 v 1.074 c 2.019,-2.864 3.952,-4.431 5.797,-4.699 l 0.923,0.133" />
      <path
         style="fill:#000000"
         inkscape:connector-curvature="0"
         id="path1300"
         d="m 554.16,558.377 c 0,0.447 0.045,0.94 0.133,1.477 0.088,0.448 0.219,0.761 0.395,0.94 0.263,0.359 0.703,0.537 1.318,0.537 1.756,0 2.898,-1.387 3.426,-4.163 0.439,-2.864 0.658,-4.699 0.658,-5.505 -0.088,-0.268 -0.395,-0.537 -0.922,-0.805 -0.264,-0.09 -0.703,-0.09 -1.318,0 -2.635,1.432 -3.866,3.939 -3.69,7.519 z m 8.961,-9.265 c -0.615,2.418 -1.098,4.566 -1.449,6.445 -0.352,1.881 -0.527,3.492 -0.527,4.834 0,0.358 0.043,0.672 0.13,0.94 0.176,0.359 0.528,0.359 1.055,0 0.615,-0.357 1.098,-0.939 1.449,-1.746 h 0.133 c 0.176,0.18 0.176,0.404 0,0.672 -0.351,1.254 -0.836,2.238 -1.449,2.954 -0.527,0.537 -1.055,0.806 -1.582,0.806 -0.527,0 -0.879,-0.179 -1.055,-0.537 -0.439,-0.627 -0.658,-1.119 -0.658,-1.478 -0.264,0.359 -0.615,0.717 -1.055,1.074 -0.263,0.27 -0.57,0.494 -0.922,0.672 -1.142,0.717 -2.24,0.672 -3.295,-0.134 -0.966,-1.075 -1.537,-2.104 -1.712,-3.088 -0.176,-0.985 -0.262,-1.88 -0.262,-2.686 0,-2.417 0.701,-4.565 2.107,-6.445 1.405,-1.969 2.942,-2.954 4.612,-2.954 0.615,0 1.097,0.134 1.449,0.402 0.264,0.09 0.484,0.18 0.66,0.269 l 1.449,-0.806 c 0.438,-0.179 0.746,-0.044 0.922,0.403 v 0.403" />
    </g>
    <g
       id="g2243"
       inkscape:label="sushi">
      <path
         style="display:none;fill:#b0b0b0"
         inkscape:connector-curvature="0"
         id="path288"
         d="m 491.265,490.234 c 0,0 -17.725,-0.755 -19.233,0.377 -1.508,1.131 -4.147,1.13 0.755,5.279 4.902,4.148 10.559,6.6 16.403,8.674 5.845,2.073 14.517,4.713 20.551,7.352 6.034,2.64 20.363,9.428 29.79,12.256 9.428,2.828 16.969,5.467 25.076,1.696 8.108,-3.77 13.387,-7.163 10.182,-13.008 -3.205,-5.846 -83.524,-22.626 -83.524,-22.626"
         inkscape:label="shadow" />
      <path
         style="display:inline;fill:#000000"
         inkscape:connector-curvature="0"
         id="path284"
         d="m 575.631,474.027 c 0,0 2.015,-7.438 1.394,-8.676 -0.62,-1.239 -2.014,-2.789 -2.014,-2.789 l -0.93,14.41 1.55,-2.945"
         inkscape:label="nori_rear" />
      <g
         id="g936"
         style="display:inline"
         inkscape:label="garnish">
        <path
           d="m 462.603,420.833 c 0,0 15.539,26.644 28.819,38.862 13.28,12.217 13.678,15.852 13.678,15.852 l 26.56,-16.998 c 0,0 -29.217,-27.093 -44.091,-32.935 -14.874,-5.843 -22.841,-6.374 -22.841,-6.374 l -2.125,1.593"
           id="path412"
           inkscape:connector-curvature="0"
           style="display:inline;fill:#daec5f" />
        <path
           d="m 466.321,419.771 c 0,0 8.5,15.405 13.281,22.31 4.78,6.906 22.841,25.498 22.841,25.498 h -5.312 c 0,0 -18.062,-18.061 -25.498,-29.748 -7.437,-11.686 -9.03,-16.998 -9.03,-16.998 l 3.718,-1.062"
           id="path414"
           inkscape:connector-curvature="0"
           style="display:inline;fill:#56c51d" />
        <path
           d="m 466.369,426.29 c 0,0 -3.679,-4.49 -3.766,-5.457 -0.088,-0.967 1.838,-2.251 1.838,-2.251 0,0 18.203,3.64 25.483,7.708 7.28,4.069 14.774,9.637 14.774,9.637 0,0 -11.563,-7.494 -15.632,-9.422 -4.068,-1.928 -8.993,-3.212 -10.492,-3.854 -1.499,-0.643 -11.777,-2.785 -11.777,-2.785 l -0.428,6.424"
           id="path416"
           inkscape:connector-curvature="0"
           style="display:inline;fill:#56c51d" />
        <path
           d="m 478.541,416.99 c 0,0 8.314,24.354 18.93,36.527 10.614,12.171 13.506,16.316 13.506,16.316 l 25.294,-12.515 c 0,0 -23.332,-26.969 -35.99,-33.625 -12.658,-6.658 -19.693,-7.911 -19.693,-7.911 l -2.047,1.208"
           id="path418"
           inkscape:connector-curvature="0"
           style="display:inline;fill:#daec5f" />
        <path
           d="m 481.954,416.409 c 0,0 6.05,14.539 9.623,21.151 3.576,6.612 17.818,24.924 17.818,24.924 l -4.726,-0.522 c 0,0 -14.294,-17.839 -19.763,-28.965 -5.468,-11.126 -6.365,-16.007 -6.365,-16.007 l 3.413,-0.581"
           id="path420"
           inkscape:connector-curvature="0"
           style="display:inline;fill:#56c51d" />
        <path
           d="m 481.355,422.214 c 0,0 -2.831,-4.354 -2.814,-5.224 0.017,-0.869 1.856,-1.822 1.856,-1.822 0,0 15.835,5.025 21.913,9.358 6.077,4.335 12.197,10.022 12.197,10.022 0,0 -9.551,-7.802 -12.981,-9.916 -3.429,-2.113 -7.685,-3.739 -8.956,-4.458 -1.269,-0.719 -10.203,-3.633 -10.203,-3.633 l -1.012,5.673"
           id="path422"
           inkscape:connector-curvature="0"
           style="display:inline;fill:#56c51d" />
        <path
           style="display:inline;fill:#000000"
           inkscape:connector-curvature="0"
           id="path1114"
           d="m 480.238,414.401 c -0.808,0.345 -1.756,1.01 -1.992,1.84 -0.026,0.195 -0.206,2.535 0.793,4.537 0.928,1.858 4.315,10.315 4.349,10.4 l 4.146,7.187 1.089,-0.055 -4.337,-7.566 c -0.11,-0.287 -3.406,-8.518 -4.352,-10.414 -0.634,-1.268 -0.722,-2.749 -0.722,-3.47 0,-0.271 0.013,-0.435 0.013,-0.441 0.103,-0.33 0.695,-0.741 1.248,-1.008 1.06,0.41 7.612,2.944 12.103,4.845 4.722,1.997 11.629,5.985 13.339,7.505 1.704,1.514 4.651,3.729 4.776,3.822 l 1.124,-0.351 c -0.03,-0.023 -3.563,-2.733 -5.236,-4.219 -1.8,-1.6 -8.725,-5.61 -13.613,-7.679 -4.885,-2.066 -12.278,-4.912 -12.352,-4.94 l -0.189,-0.072 -0.187,0.079" />
        <path
           style="display:inline;fill:#000000"
           inkscape:connector-curvature="0"
           id="path1112"
           d="m 481.137,449.281 c -5.347,-5.787 -9.936,-12.429 -13.601,-19.508 -1.112,-2.15 -2.168,-4.327 -3.209,-6.511 -0.362,-0.759 -2.679,-4.587 0.3,-4.04 5.178,0.951 10.211,2.372 15.296,3.713 0.624,0.164 0.889,-0.801 0.265,-0.965 -5.235,-1.38 -10.417,-2.837 -15.752,-3.796 -1.143,-0.205 -2.75,1.785 -2.26,2.849 0.812,1.764 1.652,3.516 2.502,5.263 4.176,8.587 9.265,16.682 15.752,23.702 0.438,0.474 1.143,-0.235 0.707,-0.707" />
      </g>
      <g
         inkscape:label="ikura_rear"
         id="g1154">
        <path
           d="m 578.077,459.133 c 0,3.813 -3.09,6.901 -6.9,6.901 -3.812,0 -6.901,-3.088 -6.901,-6.901 0,-3.81 3.089,-6.899 6.901,-6.899 3.81,0 6.9,3.089 6.9,6.899"
           id="path564"
           inkscape:connector-curvature="0"
           style="display:inline;fill:#f23900" />
        <path
           d="m 576.617,458.09 c 0,2.9 -2.535,5.252 -5.663,5.252 -3.129,0 -5.665,-2.352 -5.665,-5.252 0,-2.901 2.536,-5.253 5.665,-5.253 3.128,0 5.663,2.352 5.663,5.253"
           id="path566"
           inkscape:connector-curvature="0"
           style="fill:#ff6f00" />
        <path
           d="m 573.591,455.823 c 0,0.967 -0.784,1.751 -1.752,1.751 -0.967,0 -1.751,-0.784 -1.751,-1.751 0,-0.967 0.784,-1.75 1.751,-1.75 0.968,0 1.752,0.783 1.752,1.75"
           id="path568"
           inkscape:connector-curvature="0"
           style="fill:#ffffff" />
        <path
           d="m 566.946,454.02 c 0,3.81 -3.09,6.9 -6.901,6.9 -3.812,0 -6.9,-3.09 -6.9,-6.9 0,-3.812 3.088,-6.902 6.9,-6.902 3.811,0 6.901,3.09 6.901,6.902"
           id="path570"
           inkscape:connector-curvature="0"
           style="fill:#f23900" />
        <path
           d="m 565.485,452.976 c 0,2.9 -2.535,5.252 -5.662,5.252 -3.13,0 -5.665,-2.352 -5.665,-5.252 0,-2.902 2.535,-5.253 5.665,-5.253 3.127,0 5.662,2.351 5.662,5.253"
           id="path572"
           inkscape:connector-curvature="0"
           style="fill:#ff6f00" />
        <path
           d="m 560.954,450.708 c 0,0.968 -0.783,1.752 -1.751,1.752 -0.967,0 -1.751,-0.784 -1.751,-1.752 0,-0.967 0.784,-1.75 1.751,-1.75 0.968,0 1.751,0.783 1.751,1.75"
           id="path574"
           inkscape:connector-curvature="0"
           style="fill:#ffffff" />
        <path
           d="m 557.019,450.109 c 0,3.812 -3.09,6.901 -6.902,6.901 -3.811,0 -6.899,-3.089 -6.899,-6.901 0,-3.81 3.088,-6.9 6.899,-6.9 3.812,0 6.902,3.09 6.902,6.9"
           id="path576"
           inkscape:connector-curvature="0"
           style="fill:#f23900" />
        <path
           d="m 555.559,449.067 c 0,2.899 -2.537,5.251 -5.663,5.251 -3.13,0 -5.666,-2.352 -5.666,-5.251 0,-2.903 2.536,-5.253 5.666,-5.253 3.126,0 5.663,2.35 5.663,5.253"
           id="path578"
           inkscape:connector-curvature="0"
           style="fill:#ff6f00" />
        <path
           d="m 551.027,446.799 c 0,0.968 -0.784,1.751 -1.752,1.751 -0.966,0 -1.751,-0.783 -1.751,-1.751 0,-0.967 0.785,-1.751 1.751,-1.751 0.968,0 1.752,0.784 1.752,1.751"
           id="path580"
           inkscape:connector-curvature="0"
           style="fill:#ffffff" />
        <path
           d="m 547.392,446.199 c 0,3.812 -3.09,6.901 -6.902,6.901 -3.81,0 -6.9,-3.089 -6.9,-6.901 0,-3.812 3.09,-6.9 6.9,-6.9 3.812,0 6.902,3.088 6.902,6.9"
           id="path582"
           inkscape:connector-curvature="0"
           style="fill:#f23900" />
        <path
           d="m 545.932,445.155 c 0,2.901 -2.536,5.252 -5.664,5.252 -3.129,0 -5.664,-2.351 -5.664,-5.252 0,-2.901 2.535,-5.253 5.664,-5.253 3.128,0 5.664,2.352 5.664,5.253"
           id="path584"
           inkscape:connector-curvature="0"
           style="fill:#ff6f00" />
        <path
           d="m 541.399,442.888 c 0,0.968 -0.783,1.752 -1.751,1.752 -0.966,0 -1.751,-0.784 -1.751,-1.752 0,-0.966 0.785,-1.75 1.751,-1.75 0.968,0 1.751,0.784 1.751,1.75"
           id="path586"
           inkscape:connector-curvature="0"
           style="fill:#ffffff" />
        <path
           d="m 537.463,441.688 c 0,3.812 -3.09,6.901 -6.9,6.901 -3.812,0 -6.902,-3.089 -6.902,-6.901 0,-3.811 3.09,-6.9 6.902,-6.9 3.81,0 6.9,3.089 6.9,6.9"
           id="path588"
           inkscape:connector-curvature="0"
           style="fill:#f23900" />
        <path
           d="m 536.003,440.644 c 0,2.901 -2.535,5.252 -5.663,5.252 -3.129,0 -5.664,-2.351 -5.664,-5.252 0,-2.901 2.535,-5.252 5.664,-5.252 3.128,0 5.663,2.351 5.663,5.252"
           id="path590"
           inkscape:connector-curvature="0"
           style="fill:#ff6f00" />
        <path
           d="m 531.472,438.378 c 0,0.967 -0.784,1.751 -1.752,1.751 -0.967,0 -1.75,-0.784 -1.75,-1.751 0,-0.967 0.783,-1.751 1.75,-1.751 0.968,0 1.752,0.784 1.752,1.751"
           id="path592"
           inkscape:connector-curvature="0"
           style="fill:#ffffff" />
        <path
           d="m 528.137,438.078 c 0,3.812 -3.089,6.901 -6.901,6.901 -3.81,0 -6.9,-3.089 -6.9,-6.901 0,-3.811 3.09,-6.9 6.9,-6.9 3.812,0 6.901,3.089 6.901,6.9"
           id="path594"
           inkscape:connector-curvature="0"
           style="fill:#f23900" />
        <path
           d="m 526.678,437.034 c 0,2.902 -2.535,5.252 -5.664,5.252 -3.128,0 -5.664,-2.35 -5.664,-5.252 0,-2.901 2.536,-5.252 5.664,-5.252 3.129,0 5.664,2.351 5.664,5.252"
           id="path596"
           inkscape:connector-curvature="0"
           style="fill:#ff6f00" />
        <path
           d="m 522.146,434.768 c 0,0.968 -0.784,1.751 -1.751,1.751 -0.967,0 -1.75,-0.783 -1.75,-1.751 0,-0.967 0.783,-1.751 1.75,-1.751 0.967,0 1.751,0.784 1.751,1.751"
           id="path598"
           inkscape:connector-curvature="0"
           style="fill:#ffffff" />
        <path
           d="m 518.811,438.079 c 0,3.812 -3.089,6.901 -6.901,6.901 -3.811,0 -6.9,-3.089 -6.9,-6.901 0,-3.811 3.089,-6.9 6.9,-6.9 3.812,0 6.901,3.089 6.901,6.9"
           id="path600"
           inkscape:connector-curvature="0"
           style="fill:#f23900" />
        <path
           d="m 517.352,437.035 c 0,2.901 -2.537,5.252 -5.664,5.252 -3.129,0 -5.665,-2.351 -5.665,-5.252 0,-2.901 2.536,-5.253 5.665,-5.253 3.127,0 5.664,2.352 5.664,5.253"
           id="path602"
           inkscape:connector-curvature="0"
           style="fill:#ff6f00" />
        <path
           d="m 512.819,434.769 c 0,0.968 -0.783,1.751 -1.751,1.751 -0.967,0 -1.75,-0.783 -1.75,-1.751 0,-0.968 0.783,-1.751 1.75,-1.751 0.968,0 1.751,0.783 1.751,1.751"
           id="path604"
           inkscape:connector-curvature="0"
           style="fill:#ffffff" />
        <path
           d="m 507.38,439.28 c 0,3.811 -3.09,6.9 -6.901,6.9 -3.812,0 -6.9,-3.089 -6.9,-6.9 0,-3.812 3.088,-6.901 6.9,-6.901 3.811,0 6.901,3.089 6.901,6.901"
           id="path606"
           inkscape:connector-curvature="0"
           style="fill:#f23900" />
        <path
           d="m 505.921,438.236 c 0,2.9 -2.537,5.252 -5.664,5.252 -3.129,0 -5.665,-2.352 -5.665,-5.252 0,-2.901 2.536,-5.253 5.665,-5.253 3.127,0 5.664,2.352 5.664,5.253"
           id="path608"
           inkscape:connector-curvature="0"
           style="fill:#ff6f00" />
        <path
           d="m 501.389,435.969 c 0,0.968 -0.785,1.751 -1.752,1.751 -0.967,0 -1.75,-0.783 -1.75,-1.751 0,-0.967 0.783,-1.75 1.75,-1.75 0.967,0 1.752,0.783 1.752,1.75"
           id="path610"
           inkscape:connector-curvature="0"
           style="fill:#ffffff" />
        <path
           d="m 520.918,441.385 c 0,3.812 -3.089,6.901 -6.901,6.901 -3.811,0 -6.9,-3.089 -6.9,-6.901 0,-3.811 3.089,-6.9 6.9,-6.9 3.812,0 6.901,3.089 6.901,6.9"
           id="path612"
           inkscape:connector-curvature="0"
           style="fill:#f23900" />
        <path
           d="m 519.459,440.341 c 0,2.9 -2.536,5.253 -5.664,5.253 -3.129,0 -5.664,-2.353 -5.664,-5.253 0,-2.901 2.535,-5.253 5.664,-5.253 3.128,0 5.664,2.352 5.664,5.253"
           id="path614"
           inkscape:connector-curvature="0"
           style="fill:#ff6f00" />
        <path
           d="m 516.431,438.074 c 0,0.968 -0.784,1.752 -1.75,1.752 -0.968,0 -1.751,-0.784 -1.751,-1.752 0,-0.966 0.783,-1.75 1.751,-1.75 0.966,0 1.75,0.784 1.75,1.75"
           id="path616"
           inkscape:connector-curvature="0"
           style="fill:#ffffff" />
        <path
           d="m 530.245,444.393 c 0,3.811 -3.09,6.9 -6.901,6.9 -3.812,0 -6.901,-3.089 -6.901,-6.9 0,-3.811 3.089,-6.901 6.901,-6.901 3.811,0 6.901,3.09 6.901,6.901"
           id="path618"
           inkscape:connector-curvature="0"
           style="fill:#f23900" />
        <path
           d="m 528.784,443.35 c 0,2.899 -2.535,5.252 -5.662,5.252 -3.13,0 -5.665,-2.353 -5.665,-5.252 0,-2.902 2.535,-5.253 5.665,-5.253 3.127,0 5.662,2.351 5.662,5.253"
           id="path620"
           inkscape:connector-curvature="0"
           style="fill:#ff6f00" />
        <path
           d="m 525.758,441.082 c 0,0.969 -0.783,1.751 -1.751,1.751 -0.968,0 -1.751,-0.782 -1.751,-1.751 0,-0.967 0.783,-1.75 1.751,-1.75 0.968,0 1.751,0.783 1.751,1.75"
           id="path622"
           inkscape:connector-curvature="0"
           style="fill:#ffffff" />
        <path
           d="m 539.571,448.003 c 0,3.812 -3.089,6.901 -6.901,6.901 -3.812,0 -6.9,-3.089 -6.9,-6.901 0,-3.811 3.088,-6.9 6.9,-6.9 3.812,0 6.901,3.089 6.901,6.9"
           id="path624"
           inkscape:connector-curvature="0"
           style="fill:#f23900" />
        <path
           d="m 538.111,446.959 c 0,2.901 -2.536,5.252 -5.663,5.252 -3.129,0 -5.665,-2.351 -5.665,-5.252 0,-2.901 2.536,-5.253 5.665,-5.253 3.127,0 5.663,2.352 5.663,5.253"
           id="path626"
           inkscape:connector-curvature="0"
           style="fill:#ff6f00" />
        <path
           d="m 535.385,444.392 c 0,0.968 -0.784,1.751 -1.752,1.751 -0.967,0 -1.75,-0.783 -1.75,-1.751 0,-0.966 0.783,-1.75 1.75,-1.75 0.968,0 1.752,0.784 1.752,1.75"
           id="path628"
           inkscape:connector-curvature="0"
           style="fill:#ffffff" />
        <path
           d="m 549.498,452.215 c 0,3.812 -3.089,6.9 -6.9,6.9 -3.812,0 -6.901,-3.088 -6.901,-6.9 0,-3.811 3.089,-6.9 6.901,-6.9 3.811,0 6.9,3.089 6.9,6.9"
           id="path630"
           inkscape:connector-curvature="0"
           style="fill:#f23900" />
        <path
           d="m 548.039,451.171 c 0,2.902 -2.536,5.252 -5.664,5.252 -3.128,0 -5.664,-2.35 -5.664,-5.252 0,-2.901 2.536,-5.253 5.664,-5.253 3.128,0 5.664,2.352 5.664,5.253"
           id="path632"
           inkscape:connector-curvature="0"
           style="fill:#ff6f00" />
        <path
           d="m 544.71,448.603 c 0,0.968 -0.784,1.751 -1.752,1.751 -0.966,0 -1.749,-0.783 -1.749,-1.751 0,-0.966 0.783,-1.75 1.749,-1.75 0.968,0 1.752,0.784 1.752,1.75"
           id="path634"
           inkscape:connector-curvature="0"
           style="fill:#ffffff" />
        <path
           d="m 560.931,454.922 c 0,3.812 -3.09,6.902 -6.902,6.902 -3.811,0 -6.899,-3.09 -6.899,-6.902 0,-3.811 3.088,-6.899 6.899,-6.899 3.812,0 6.902,3.088 6.902,6.899"
           id="path636"
           inkscape:connector-curvature="0"
           style="fill:#f23900" />
        <path
           d="m 559.472,453.878 c 0,2.902 -2.537,5.253 -5.664,5.253 -3.13,0 -5.665,-2.351 -5.665,-5.253 0,-2.9 2.535,-5.253 5.665,-5.253 3.127,0 5.664,2.353 5.664,5.253"
           id="path638"
           inkscape:connector-curvature="0"
           style="fill:#ff6f00" />
        <path
           d="m 556.443,451.312 c 0,0.967 -0.783,1.751 -1.751,1.751 -0.966,0 -1.751,-0.784 -1.751,-1.751 0,-0.967 0.785,-1.751 1.751,-1.751 0.968,0 1.751,0.784 1.751,1.751"
           id="path640"
           inkscape:connector-curvature="0"
           style="fill:#ffffff" />
        <path
           d="m 571.458,459.736 c 0,3.811 -3.088,6.901 -6.9,6.901 -3.811,0 -6.901,-3.09 -6.901,-6.901 0,-3.812 3.09,-6.901 6.901,-6.901 3.812,0 6.9,3.089 6.9,6.901"
           id="path642"
           inkscape:connector-curvature="0"
           style="fill:#f23900" />
        <path
           d="m 569.999,458.692 c 0,2.9 -2.535,5.252 -5.663,5.252 -3.129,0 -5.664,-2.352 -5.664,-5.252 0,-2.902 2.535,-5.253 5.664,-5.253 3.128,0 5.663,2.351 5.663,5.253"
           id="path644"
           inkscape:connector-curvature="0"
           style="fill:#ff6f00" />
        <path
           d="m 567.272,455.823 c 0,0.967 -0.784,1.751 -1.751,1.751 -0.966,0 -1.75,-0.784 -1.75,-1.751 0,-0.967 0.784,-1.75 1.75,-1.75 0.967,0 1.751,0.783 1.751,1.75"
           id="path646"
           inkscape:connector-curvature="0"
           style="fill:#ffffff" />
        <path
           d="m 560.027,462.444 c 0,3.81 -3.089,6.9 -6.901,6.9 -3.811,0 -6.9,-3.09 -6.9,-6.9 0,-3.812 3.089,-6.902 6.9,-6.902 3.812,0 6.901,3.09 6.901,6.902"
           id="path648"
           inkscape:connector-curvature="0"
           style="fill:#f23900" />
        <path
           d="m 558.567,461.4 c 0,2.9 -2.535,5.252 -5.664,5.252 -3.128,0 -5.664,-2.352 -5.664,-5.252 0,-2.903 2.536,-5.253 5.664,-5.253 3.129,0 5.664,2.35 5.664,5.253"
           id="path650"
           inkscape:connector-curvature="0"
           style="fill:#ff6f00" />
        <path
           d="m 554.035,459.132 c 0,0.969 -0.783,1.752 -1.751,1.752 -0.967,0 -1.75,-0.783 -1.75,-1.752 0,-0.967 0.783,-1.75 1.75,-1.75 0.968,0 1.751,0.783 1.751,1.75"
           id="path652"
           inkscape:connector-curvature="0"
           style="fill:#ffffff" />
        <path
           d="m 508.283,446.199 c 0,3.812 -3.088,6.901 -6.9,6.901 -3.811,0 -6.901,-3.089 -6.901,-6.901 0,-3.812 3.09,-6.9 6.901,-6.9 3.812,0 6.9,3.088 6.9,6.9"
           id="path654"
           inkscape:connector-curvature="0"
           style="fill:#f23900" />
        <path
           d="m 506.824,445.155 c 0,2.901 -2.535,5.252 -5.663,5.252 -3.129,0 -5.665,-2.351 -5.665,-5.252 0,-2.901 2.536,-5.253 5.665,-5.253 3.128,0 5.663,2.352 5.663,5.253"
           id="path656"
           inkscape:connector-curvature="0"
           style="fill:#ff6f00" />
        <path
           d="m 502.292,442.888 c 0,0.968 -0.783,1.752 -1.75,1.752 -0.967,0 -1.751,-0.784 -1.751,-1.752 0,-0.966 0.784,-1.75 1.751,-1.75 0.967,0 1.75,0.784 1.75,1.75"
           id="path658"
           inkscape:connector-curvature="0"
           style="fill:#ffffff" />
        <path
           d="m 519.114,450.11 c 0,3.812 -3.09,6.901 -6.901,6.901 -3.811,0 -6.9,-3.089 -6.9,-6.901 0,-3.811 3.089,-6.9 6.9,-6.9 3.811,0 6.901,3.089 6.901,6.9"
           id="path660"
           inkscape:connector-curvature="0"
           style="fill:#f23900" />
        <path
           d="m 517.654,449.067 c 0,2.9 -2.535,5.252 -5.664,5.252 -3.128,0 -5.663,-2.352 -5.663,-5.252 0,-2.902 2.535,-5.253 5.663,-5.253 3.129,0 5.664,2.351 5.664,5.253"
           id="path662"
           inkscape:connector-curvature="0"
           style="fill:#ff6f00" />
        <path
           d="m 513.122,446.8 c 0,0.968 -0.783,1.751 -1.751,1.751 -0.967,0 -1.75,-0.783 -1.75,-1.751 0,-0.967 0.783,-1.751 1.75,-1.751 0.968,0 1.751,0.784 1.751,1.751"
           id="path664"
           inkscape:connector-curvature="0"
           style="fill:#ffffff" />
        <path
           d="m 529.944,454.322 c 0,3.812 -3.09,6.901 -6.901,6.901 -3.812,0 -6.899,-3.089 -6.899,-6.901 0,-3.81 3.087,-6.9 6.899,-6.9 3.811,0 6.901,3.09 6.901,6.9"
           id="path666"
           inkscape:connector-curvature="0"
           style="fill:#f23900" />
        <path
           d="m 528.484,453.279 c 0,2.9 -2.536,5.252 -5.663,5.252 -3.13,0 -5.665,-2.352 -5.665,-5.252 0,-2.902 2.535,-5.252 5.665,-5.252 3.127,0 5.663,2.35 5.663,5.252"
           id="path668"
           inkscape:connector-curvature="0"
           style="fill:#ff6f00" />
        <path
           d="m 523.953,451.012 c 0,0.968 -0.784,1.751 -1.752,1.751 -0.967,0 -1.75,-0.783 -1.75,-1.751 0,-0.967 0.783,-1.751 1.75,-1.751 0.968,0 1.752,0.784 1.752,1.751"
           id="path670"
           inkscape:connector-curvature="0"
           style="fill:#ffffff" />
        <path
           d="m 541.074,458.532 c 0,3.813 -3.089,6.902 -6.9,6.902 -3.812,0 -6.901,-3.089 -6.901,-6.902 0,-3.809 3.089,-6.899 6.901,-6.899 3.811,0 6.9,3.09 6.9,6.899"
           id="path672"
           inkscape:connector-curvature="0"
           style="fill:#f23900" />
        <path
           d="m 539.615,457.49 c 0,2.9 -2.536,5.251 -5.664,5.251 -3.128,0 -5.664,-2.351 -5.664,-5.251 0,-2.902 2.536,-5.252 5.664,-5.252 3.128,0 5.664,2.35 5.664,5.252"
           id="path674"
           inkscape:connector-curvature="0"
           style="fill:#ff6f00" />
        <path
           d="m 535.083,455.223 c 0,0.968 -0.783,1.751 -1.752,1.751 -0.967,0 -1.749,-0.783 -1.749,-1.751 0,-0.967 0.782,-1.75 1.749,-1.75 0.969,0 1.752,0.783 1.752,1.75"
           id="path676"
           inkscape:connector-curvature="0"
           style="fill:#ffffff" />
        <path
           d="m 551.604,462.744 c 0,3.812 -3.089,6.901 -6.902,6.901 -3.809,0 -6.899,-3.089 -6.899,-6.901 0,-3.81 3.09,-6.9 6.899,-6.9 3.813,0 6.902,3.09 6.902,6.9"
           id="path678"
           inkscape:connector-curvature="0"
           style="fill:#f23900" />
        <path
           d="m 550.145,461.701 c 0,2.9 -2.536,5.252 -5.665,5.252 -3.128,0 -5.664,-2.352 -5.664,-5.252 0,-2.902 2.536,-5.252 5.664,-5.252 3.129,0 5.665,2.35 5.665,5.252"
           id="path680"
           inkscape:connector-curvature="0"
           style="fill:#ff6f00" />
        <path
           d="m 545.612,459.434 c 0,0.968 -0.783,1.751 -1.751,1.751 -0.966,0 -1.751,-0.783 -1.751,-1.751 0,-0.967 0.785,-1.75 1.751,-1.75 0.968,0 1.751,0.783 1.751,1.75"
           id="path682"
           inkscape:connector-curvature="0"
           style="fill:#ffffff" />
        <path
           d="m 564.647,472.294 c 0,3.812 -3.089,6.901 -6.901,6.901 -3.81,0 -6.9,-3.089 -6.9,-6.901 0,-3.811 3.09,-6.9 6.9,-6.9 3.812,0 6.901,3.089 6.901,6.9"
           id="path684"
           inkscape:connector-curvature="0"
           style="fill:#f23900" />
        <path
           d="m 563.188,471.25 c 0,2.901 -2.536,5.252 -5.665,5.252 -3.127,0 -5.664,-2.351 -5.664,-5.252 0,-2.901 2.537,-5.253 5.664,-5.253 3.129,0 5.665,2.352 5.665,5.253"
           id="path686"
           inkscape:connector-curvature="0"
           style="fill:#ff6f00" />
        <path
           d="m 560.46,468.683 c 0,0.968 -0.783,1.751 -1.75,1.751 -0.967,0 -1.751,-0.783 -1.751,-1.751 0,-0.968 0.784,-1.75 1.751,-1.75 0.967,0 1.75,0.782 1.75,1.75"
           id="path688"
           inkscape:connector-curvature="0"
           style="fill:#ffffff" />
        <path
           d="m 575.929,467.782 c 0,3.811 -3.09,6.9 -6.902,6.9 -3.81,0 -6.9,-3.089 -6.9,-6.9 0,-3.812 3.09,-6.901 6.9,-6.901 3.812,0 6.902,3.089 6.902,6.901"
           id="path690"
           inkscape:connector-curvature="0"
           style="fill:#f23900" />
        <path
           d="m 574.469,466.738 c 0,2.9 -2.535,5.252 -5.664,5.252 -3.128,0 -5.664,-2.352 -5.664,-5.252 0,-2.902 2.536,-5.253 5.664,-5.253 3.129,0 5.664,2.351 5.664,5.253"
           id="path692"
           inkscape:connector-curvature="0"
           style="fill:#ff6f00" />
        <path
           d="m 572.043,464.471 c 0,0.968 -0.783,1.751 -1.751,1.751 -0.967,0 -1.75,-0.783 -1.75,-1.751 0,-0.968 0.783,-1.75 1.75,-1.75 0.968,0 1.751,0.782 1.751,1.75"
           id="path694"
           inkscape:connector-curvature="0"
           style="fill:#ffffff" />
        <path
           d="m 494.243,451.352 c 0,3.812 -3.09,6.9 -6.9,6.9 -3.812,0 -6.901,-3.088 -6.901,-6.9 0,-3.811 3.089,-6.901 6.901,-6.901 3.81,0 6.9,3.09 6.9,6.901"
           id="path724"
           inkscape:connector-curvature="0"
           style="fill:#f23900" />
        <path
           d="m 492.784,450.309 c 0,2.899 -2.536,5.252 -5.664,5.252 -3.129,0 -5.665,-2.353 -5.665,-5.252 0,-2.902 2.536,-5.253 5.665,-5.253 3.128,0 5.664,2.351 5.664,5.253"
           id="path726"
           inkscape:connector-curvature="0"
           style="fill:#ff6f00" />
        <path
           d="m 488.252,448.042 c 0,0.968 -0.784,1.75 -1.752,1.75 -0.967,0 -1.749,-0.782 -1.749,-1.75 0,-0.968 0.782,-1.751 1.749,-1.751 0.968,0 1.752,0.783 1.752,1.751"
           id="path728"
           inkscape:connector-curvature="0"
           style="fill:#ffffff" />
        <path
           d="m 506.436,456.048 c 0,3.813 -3.089,6.901 -6.901,6.901 -3.811,0 -6.9,-3.088 -6.9,-6.901 0,-3.809 3.089,-6.899 6.9,-6.899 3.812,0 6.901,3.09 6.901,6.899"
           id="path730"
           inkscape:connector-curvature="0"
           style="fill:#f23900" />
        <path
           d="m 504.977,455.005 c 0,2.901 -2.537,5.252 -5.664,5.252 -3.129,0 -5.665,-2.351 -5.665,-5.252 0,-2.901 2.536,-5.252 5.665,-5.252 3.127,0 5.664,2.351 5.664,5.252"
           id="path732"
           inkscape:connector-curvature="0"
           style="fill:#ff6f00" />
        <path
           d="m 500.444,452.739 c 0,0.966 -0.783,1.751 -1.751,1.751 -0.967,0 -1.751,-0.785 -1.751,-1.751 0,-0.967 0.784,-1.751 1.751,-1.751 0.968,0 1.751,0.784 1.751,1.751"
           id="path734"
           inkscape:connector-curvature="0"
           style="fill:#ffffff" />
        <path
           d="m 518.169,460.561 c 0,3.812 -3.09,6.901 -6.902,6.901 -3.811,0 -6.9,-3.089 -6.9,-6.901 0,-3.811 3.089,-6.9 6.9,-6.9 3.812,0 6.902,3.089 6.902,6.9"
           id="path736"
           inkscape:connector-curvature="0"
           style="fill:#f23900" />
        <path
           d="m 516.709,459.518 c 0,2.9 -2.536,5.252 -5.664,5.252 -3.129,0 -5.664,-2.352 -5.664,-5.252 0,-2.902 2.535,-5.253 5.664,-5.253 3.128,0 5.664,2.351 5.664,5.253"
           id="path738"
           inkscape:connector-curvature="0"
           style="fill:#ff6f00" />
        <path
           d="m 512.177,457.25 c 0,0.968 -0.783,1.752 -1.751,1.752 -0.967,0 -1.751,-0.784 -1.751,-1.752 0,-0.966 0.784,-1.75 1.751,-1.75 0.968,0 1.751,0.784 1.751,1.75"
           id="path740"
           inkscape:connector-curvature="0"
           style="fill:#ffffff" />
        <path
           d="m 529.9,465.074 c 0,3.811 -3.088,6.901 -6.9,6.901 -3.811,0 -6.9,-3.09 -6.9,-6.901 0,-3.811 3.089,-6.9 6.9,-6.9 3.812,0 6.9,3.089 6.9,6.9"
           id="path742"
           inkscape:connector-curvature="0"
           style="fill:#f23900" />
        <path
           d="m 528.441,464.031 c 0,2.9 -2.535,5.251 -5.664,5.251 -3.128,0 -5.664,-2.351 -5.664,-5.251 0,-2.903 2.536,-5.253 5.664,-5.253 3.129,0 5.664,2.35 5.664,5.253"
           id="path744"
           inkscape:connector-curvature="0"
           style="fill:#ff6f00" />
        <path
           d="m 523.909,461.763 c 0,0.968 -0.784,1.752 -1.751,1.752 -0.967,0 -1.75,-0.784 -1.75,-1.752 0,-0.967 0.783,-1.75 1.75,-1.75 0.967,0 1.751,0.783 1.751,1.75"
           id="path746"
           inkscape:connector-curvature="0"
           style="fill:#ffffff" />
        <path
           d="m 541.634,469.586 c 0,3.812 -3.09,6.902 -6.902,6.902 -3.811,0 -6.9,-3.09 -6.9,-6.902 0,-3.81 3.089,-6.9 6.9,-6.9 3.812,0 6.902,3.09 6.902,6.9"
           id="path748"
           inkscape:connector-curvature="0"
           style="fill:#f23900" />
        <path
           d="m 540.174,468.543 c 0,2.901 -2.536,5.252 -5.663,5.252 -3.13,0 -5.665,-2.351 -5.665,-5.252 0,-2.902 2.535,-5.253 5.665,-5.253 3.127,0 5.663,2.351 5.663,5.253"
           id="path750"
           inkscape:connector-curvature="0"
           style="fill:#ff6f00" />
        <path
           d="m 535.642,466.276 c 0,0.967 -0.784,1.752 -1.751,1.752 -0.967,0 -1.75,-0.785 -1.75,-1.752 0,-0.967 0.783,-1.751 1.75,-1.751 0.967,0 1.751,0.784 1.751,1.751"
           id="path752"
           inkscape:connector-curvature="0"
           style="fill:#ffffff" />
        <path
           d="m 553.366,474.098 c 0,3.812 -3.09,6.901 -6.901,6.901 -3.811,0 -6.901,-3.089 -6.901,-6.901 0,-3.81 3.09,-6.899 6.901,-6.899 3.811,0 6.901,3.089 6.901,6.899"
           id="path754"
           inkscape:connector-curvature="0"
           style="fill:#f23900" />
        <path
           d="m 551.906,473.056 c 0,2.899 -2.535,5.252 -5.664,5.252 -3.128,0 -5.664,-2.353 -5.664,-5.252 0,-2.902 2.536,-5.253 5.664,-5.253 3.129,0 5.664,2.351 5.664,5.253"
           id="path756"
           inkscape:connector-curvature="0"
           style="fill:#ff6f00" />
        <path
           d="m 547.374,470.788 c 0,0.968 -0.783,1.751 -1.751,1.751 -0.967,0 -1.751,-0.783 -1.751,-1.751 0,-0.966 0.784,-1.751 1.751,-1.751 0.968,0 1.751,0.785 1.751,1.751"
           id="path758"
           inkscape:connector-curvature="0"
           style="fill:#ffffff" />
      </g>
      <path
         inkscape:label="nori_mid"
         style="display:inline;fill:#000000"
         inkscape:connector-curvature="0"
         id="path1092"
         d="m 479.124,448.714 c -1.767,4.231 -2.324,8.83 -2.71,13.363 -0.602,7.069 -0.758,14.374 -0.861,21.471 -0.074,5.064 -1.719,13.046 3.619,16.022 8.259,4.604 18.516,5.95 27.285,9.447 8.699,3.47 16.84,8.233 25.632,11.59 8.383,3.201 18.005,6.574 27.111,5.178 5.616,-0.86 14.246,-4.856 16.571,-10.6 1.157,-2.861 0.371,-7.785 0.49,-10.811 0.313,-7.97 0.627,-15.941 0.94,-23.913 0.232,-5.895 1.978,-12.691 -1.056,-17.91 -0.367,0.214 -0.734,0.429 -1.1,0.643 5.945,7.956 -7.818,10.504 -12.854,12.128 -3.663,1.182 -7.162,2.443 -11.057,2.514 -5.769,0.107 -11.528,-2.388 -16.851,-4.286 -10.715,-3.819 -21.743,-7.242 -31.999,-12.212 -3.593,-1.741 -6.99,-2.966 -10.897,-3.896 -4.455,-1.061 -11.812,-1.793 -10.613,-7.952 0.151,-0.773 -1.033,-1.102 -1.183,-0.327 -1.864,9.668 13.358,9.267 19.399,11.829 13.315,5.647 26.663,10.834 40.342,15.637 4.625,1.624 9.846,3.077 14.794,2.27 5.487,-0.895 10.858,-3.106 16.204,-4.61 5.346,-1.503 9.731,-6.499 5.815,-11.738 -0.479,-0.641 -1.524,-0.086 -1.1,0.643 2.187,3.762 1.269,7.584 1.092,12.026 -0.318,7.935 -0.642,15.869 -0.964,23.804 -0.212,5.198 -0.423,10.395 -0.641,15.593 -0.049,1.162 -2.279,3.156 -3.346,4.082 -4.594,3.984 -11.069,6.173 -17.089,6.041 -20.496,-0.455 -38.272,-14.504 -57.209,-20.597 -4.686,-1.508 -9.43,-2.839 -14.054,-4.532 -1.73,-0.633 -3.833,-1.32 -4.885,-2.936 -1.535,-2.358 -1.235,-6.191 -1.218,-8.893 0.026,-4.043 0.337,-8.133 0.578,-12.166 0.433,-7.286 0.138,-14.53 1.63,-21.722 0.343,-1.654 0.863,-3.258 1.511,-4.815 0.341,-0.818 -0.989,-1.171 -1.326,-0.365" />
      <g
         inkscape:label="ikura_front"
         id="g1068">
        <path
           d="m 476.601,443.532 c 0,0 2.616,4.625 3.164,5.234 0.548,0.608 0.913,0.974 0.913,0.974 l 0.608,-2.861 -4.685,-3.347"
           id="path1094"
           inkscape:connector-curvature="0"
           style="fill:#56c51d" />
        <path
           d="m 578.057,459.66 c -0.151,1.999 -1.152,3.76 -2.645,4.92 0,0 -0.919,-1.452 -0.834,-1.792 0.085,-0.339 1.185,-1.271 1.185,-1.271 l 2.294,-1.857"
           id="path1096"
           inkscape:connector-curvature="0"
           style="fill:#f23900" />
        <path
           d="m 495.348,444.995 c 0,3.812 -3.088,6.902 -6.901,6.902 -3.81,0 -6.9,-3.09 -6.9,-6.902 0,-3.81 3.09,-6.899 6.9,-6.899 3.813,0 6.901,3.089 6.901,6.899"
           id="path1098"
           inkscape:connector-curvature="0"
           style="fill:#f23900" />
        <path
           d="m 493.889,443.952 c 0,2.901 -2.535,5.252 -5.664,5.252 -3.128,0 -5.663,-2.351 -5.663,-5.252 0,-2.901 2.535,-5.253 5.663,-5.253 3.129,0 5.664,2.352 5.664,5.253"
           id="path1100"
           inkscape:connector-curvature="0"
           style="fill:#ff6f00" />
        <path
           d="m 489.356,441.685 c 0,0.968 -0.782,1.752 -1.75,1.752 -0.967,0 -1.751,-0.784 -1.751,-1.752 0,-0.967 0.784,-1.749 1.751,-1.749 0.968,0 1.75,0.782 1.75,1.749"
           id="path1102"
           inkscape:connector-curvature="0"
           style="fill:#ffffff" />
        <path
           d="m 480.582,449.961 c 0.645,-3.144 3.426,-5.51 6.761,-5.51 3.81,0 6.9,3.09 6.9,6.901 0,1.989 -0.842,3.782 -2.187,5.042"
           id="path1104"
           inkscape:connector-curvature="0"
           style="fill:#f23900" />
        <path
           d="m 491.714,453.381 c -1.028,1.32 -2.703,2.18 -4.594,2.18 -3.129,0 -5.665,-2.353 -5.665,-5.252"
           id="path1106"
           inkscape:connector-curvature="0"
           style="fill:#ff6f00" />
        <path
           d="m 481.455,450.309 c 0,-2.902 2.536,-5.253 5.665,-5.253 3.128,0 5.664,2.351 5.664,5.253 0,1.147 -0.397,2.209 -1.07,3.072"
           id="path1108"
           inkscape:connector-curvature="0"
           style="fill:#ff6f00" />
        <path
           d="m 488.252,448.042 c 0,0.968 -0.784,1.75 -1.752,1.75 -0.967,0 -1.749,-0.782 -1.749,-1.75 0,-0.968 0.782,-1.751 1.749,-1.751 0.968,0 1.752,0.783 1.752,1.751"
           id="path1110"
           inkscape:connector-curvature="0"
           style="display:inline;fill:#ffffff" />
        <path
           d="m 509.094,431.94 c 0,0 0.708,-0.545 1.96,-0.708 1.252,-0.163 1.796,0.163 1.796,0.163 l -2.178,0.327 -1.578,0.218"
           id="path1116"
           inkscape:connector-curvature="0"
           style="fill:#f23900" />
        <path
           d="m 486.445,438.582 c 0,0 0.544,-0.467 1.47,-0.49 1.625,-0.04 1.579,0.381 1.579,0.381 l -1.634,0.055 -1.415,0.054"
           id="path1118"
           inkscape:connector-curvature="0"
           style="fill:#f23900" />
        <path
           d="m 481.001,451.539 c 0,0 -0.354,-0.632 -0.305,-1.456 0.063,-1.062 0.305,-1.429 0.305,-1.429 l 0.436,0.272 -0.218,1.416 -0.218,1.197"
           id="path1120"
           inkscape:connector-curvature="0"
           style="fill:#f23900" />
      </g>
      <g
         id="g946"
         inkscape:label="nori_front">
        <path
           d="m 480.187,452.591 c 0,0 -0.846,-2.221 -1.374,-0.635 -0.53,1.585 -1.904,8.243 -1.904,10.674 0,2.431 -0.211,12.683 -0.211,12.683 l -0.635,10.356 c 0,0 -0.407,10.299 1.699,12.019 2.107,1.72 10.667,4.258 10.667,4.258 0,0 14.164,4.439 17.651,6.129 3.488,1.691 16.804,8.032 16.804,8.032 l 15.009,6.025 c 0,0 13.951,4.439 19.87,3.065 5.918,-1.374 11.414,-3.172 13.528,-5.603 2.113,-2.431 4.015,-6.023 4.015,-6.023 v -7.292 l 0.74,-13.847 0.529,-13.105 0.318,-6.447 0.21,-5.813 -1.374,2.854 c 0,0 -1.903,1.585 -3.699,2.536 -1.797,0.952 -6.235,2.643 -6.235,2.643 l -4.121,0.951 -5.604,1.584 -4.649,0.636 c 0,0 -3.805,0.211 -6.129,-0.107 -2.325,-0.317 -9.935,-3.381 -9.935,-3.381 l -13.528,-4.968 -11.731,-4.333 -10.253,-4.652 -5.283,-1.902 c 0,0 -6.448,-1.374 -8.984,-2.325 -2.536,-0.95 -5.391,-4.012 -5.391,-4.012"
           id="path1152"
           inkscape:connector-curvature="0"
           style="display:inline;fill:#000000" />
        <path
           d="m 479.04,455.167 c 0,0 -0.448,5.812 0,7.154 0.447,1.34 0.446,3.129 0,5.365 -0.447,2.235 -0.894,4.471 -0.894,6.707 0,2.234 -0.447,6.258 -0.447,7.152 0,0.895 -0.895,1.788 0,3.129 0.894,1.342 1.788,3.132 0.894,3.578 -0.894,0.447 -0.447,3.577 -0.447,3.577 l 0.894,4.023 3.13,1.342 c 0,0 -2.235,-3.13 -1.789,-4.918 0.447,-1.788 2.236,-2.236 2.236,-2.236 0,0 -3.13,-4.919 -2.682,-6.707 0.446,-1.788 2.682,-1.34 2.682,-1.34 0,0 -3.577,-3.129 -2.682,-5.813 0.893,-2.683 4.918,-2.683 4.918,-2.683 0,0 -4.024,-2.682 -3.577,-4.918 0.447,-2.235 4.918,-1.788 4.918,-1.788 0,0 -5.365,-2.235 -4.471,-4.47 0.894,-2.236 4.471,-1.789 4.471,-1.789 l -2.236,-3.129 -2.682,-1.341 -1.789,-3.131 v 2.236"
           id="path1154"
           inkscape:connector-curvature="0"
           style="display:inline;fill:#ffffff" />
        <path
           d="m 544.196,479.198 c 0,0 5.784,1.928 9.159,1.446 3.376,-0.483 9.162,-1.446 9.162,-1.446 0,0 -3.857,1.927 -3.857,2.892 0,0.965 -2.411,2.411 -0.482,2.411 1.928,0 6.749,0.483 4.339,1.447 -2.411,0.963 -7.714,3.375 -5.303,3.375 2.41,0 5.303,1.927 3.856,2.41 -1.446,0.482 -4.821,2.41 -4.821,2.41 0,0 2.411,1.93 0.965,3.376 -1.446,1.446 -1.447,6.266 -2.412,6.266 -0.964,0 -1.447,-4.338 -1.447,-4.338 0,0 -0.963,-1.446 -2.891,-2.893 -1.929,-1.446 -5.785,-3.375 -3.858,-3.375 1.929,0 7.232,1.446 4.822,0 -2.41,-1.446 -6.268,-2.41 -5.303,-3.856 0.964,-1.447 6.267,2.41 4.82,0.963 -1.446,-1.446 -5.785,-2.892 -4.82,-3.856 0.964,-0.964 5.785,0.964 4.82,0 -0.964,-0.964 -2.41,-1.929 -3.374,-1.929 -0.965,0 3.857,-0.964 1.928,-1.446 -1.928,-0.481 -4.82,-1.929 -4.82,-1.929 0,0 -2.893,-2.892 -0.483,-1.928"
           id="path1156"
           inkscape:connector-curvature="0"
           style="display:inline;fill:#ffffff" />
      </g>
    </g>
  </g>
</svg>
