<?xml version="1.0" encoding="UTF-8" standalone="no"?>
<svg
   xmlns:dc="http://purl.org/dc/elements/1.1/"
   xmlns:cc="http://creativecommons.org/ns#"
   xmlns:rdf="http://www.w3.org/1999/02/22-rdf-syntax-ns#"
   xmlns:svg="http://www.w3.org/2000/svg"
   xmlns="http://www.w3.org/2000/svg"
   xmlns:sodipodi="http://sodipodi.sourceforge.net/DTD/sodipodi-0.dtd"
   xmlns:inkscape="http://www.inkscape.org/namespaces/inkscape"
   version="1.1"
   x="0"
   y="0"
   width="256"
   height="153.25014"
   viewBox="0 0 256 153.25013"
   id="svg515"
   sodipodi:docname="sushi_03_nigiri_ika.svg"
   inkscape:version="0.92.4 (5da689c313, 2019-01-14)">
  <title
     id="title1326">Squid Nigiri Sushi</title>
  <metadata
     id="metadata519">
    <rdf:RDF>
      <cc:Work
         rdf:about="">
        <dc:format>image/svg+xml</dc:format>
        <dc:type
           rdf:resource="http://purl.org/dc/dcmitype/StillImage" />
        <dc:title>Squid Nigiri Sushi</dc:title>
        <cc:license
           rdf:resource="http://creativecommons.org/publicdomain/zero/1.0/" />
        <dc:creator>
          <cc:Agent>
            <dc:title>oksmith</dc:title>
          </cc:Agent>
        </dc:creator>
        <dc:source>https://openclipart.org/detail/320158</dc:source>
      </cc:Work>
      <cc:License
         rdf:about="http://creativecommons.org/publicdomain/zero/1.0/">
        <cc:permits
           rdf:resource="http://creativecommons.org/ns#Reproduction" />
        <cc:permits
           rdf:resource="http://creativecommons.org/ns#Distribution" />
        <cc:permits
           rdf:resource="http://creativecommons.org/ns#DerivativeWorks" />
      </cc:License>
    </rdf:RDF>
  </metadata>
  <sodipodi:namedview
     pagecolor="#ffffff"
     bordercolor="#666666"
     borderopacity="1"
     objecttolerance="10"
     gridtolerance="10"
     guidetolerance="10"
     inkscape:pageopacity="0"
     inkscape:pageshadow="2"
     inkscape:window-width="1920"
     inkscape:window-height="1025"
     id="namedview517"
     showgrid="false"
     inkscape:zoom="0.25358988"
     inkscape:cx="-670.15115"
     inkscape:cy="-103.67981"
     inkscape:window-x="-8"
     inkscape:window-y="-8"
     inkscape:window-maximized="1"
     inkscape:current-layer="svg515"
     fit-margin-top="0"
     fit-margin-left="0"
     fit-margin-right="0"
     fit-margin-bottom="0"
     inkscape:pagecheckerboard="true" />
  <defs
     id="defs326" />
  <g
     id="Squid"
     inkscape:label="ika"
     transform="matrix(0.78383163,0,0,0.78383163,-370.73859,-41.169274)">
    <g
       id="g63481">
      <path
         style="fill:#fefefe"
         inkscape:connector-curvature="0"
         id="path63477"
         d="m 506.355,119.519 c -0.504,2.664 -0.864,5.472 -1.152,7.992 -0.288,2.664 1.944,5.328 1.872,7.848 -0.072,2.664 -2.448,5.256 -2.232,7.776 0.216,2.664 3.096,4.752 3.672,7.2 0.576,2.592 -1.656,5.832 -0.72,8.279 0.936,2.448 1.152,5.4 2.448,7.704 1.224,2.232 3.384,4.248 4.968,6.336 1.512,2.016 2.88,4.536 4.752,6.408 1.728,1.8 4.464,2.952 6.48,4.68 1.872,1.656 2.952,4.68 5.112,6.264 2.016,1.512 6.696,-0.576 8.928,0.864 2.088,1.44 2.592,5.4 4.896,6.768 2.16,1.296 4.176,3.168 6.48,4.464 2.088,1.152 5.112,1.008 7.488,2.232 2.16,1.08 5.472,0.072 7.92,1.152 2.233,1.008 4.393,2.376 6.769,3.456 2.304,1.008 3.816,3.816 6.264,4.824 2.304,0.936 5.544,-0.288 7.992,0.648 2.304,0.936 4.392,2.664 6.768,3.528 2.376,0.864 4.752,1.728 7.2,2.592 2.376,0.864 3.672,4.824 6.12,5.616 2.376,0.864 5.616,-0.792 8.064,0.072 2.448,0.792 4.032,4.176 6.408,4.968 2.448,0.792 4.896,1.656 7.344,2.376 2.448,0.72 5.472,-0.288 7.92,0.432 2.448,0.72 5.112,0.864 7.56,1.512 2.52,0.648 5.328,-0.216 7.776,0.432 2.52,0.648 4.608,2.664 7.056,3.24 2.52,0.576 4.752,2.304 7.2,2.808 2.592,0.504 4.896,2.16 7.345,2.592 2.591,0.504 5.328,0.072 7.776,0.432 2.664,0.36 5.328,0 7.704,0.216 2.808,0.288 5.616,-0.36 8.28,-0.504 2.808,-0.144 5.688,0.648 8.352,0.072 2.736,-0.576 5.184,-2.16 7.776,-3.168 2.592,-1.008 5.04,-2.16 7.416,-3.528 2.376,-1.368 5.976,-1.08 8.208,-2.808 2.16,-1.656 2.52,-5.616 4.536,-7.56 1.944,-1.872 4.824,-2.88 6.696,-5.04 1.8,-2.016 2.664,-4.896 4.32,-7.2 1.512,-1.944 3.384,-3.744 4.392,-6.192 0.936,-2.304 -0.144,-5.184 0.432,-7.704 0.504,-2.448 4.392,-4.464 4.608,-7.056 0.216,-2.52 -0.504,-5.328 -0.576,-7.848 -0.072,-2.592 -1.44,-5.112 -1.8,-7.56 -0.432,-2.664 -1.008,-5.184 -1.728,-7.416 -0.864,-2.664 -2.736,-4.608 -3.888,-6.912 -1.224,-2.448 -3.168,-4.104 -4.608,-6.264 -1.512,-2.232 -3.096,-3.959 -4.896,-5.831 -1.872,-1.944 -2.736,-4.68 -4.824,-6.192 -2.16,-1.584 -4.968,-1.656 -7.344,-2.952 -2.304,-1.224 -2.952,-6.192 -5.4,-7.2 -2.448,-0.936 -5.616,-0.288 -8.136,-1.08 -2.52,-0.72 -4.824,-2.736 -7.416,-3.312 -2.52,-0.576 -5.328,-0.432 -7.992,-0.936 -2.592,-0.432 -5.76,2.808 -8.424,2.448 -2.592,-0.36 -4.969,-2.232 -7.632,-2.592 -2.592,-0.36 -5.257,-0.36 -7.92,-0.72 -2.593,-0.36 -5.185,-1.296 -7.777,-1.728 -2.664,-0.36 -4.68,-3.888 -7.272,-4.32 -2.52,-0.504 -5.256,0.216 -7.776,-0.36 -2.52,-0.576 -5.4,0.288 -7.92,-0.432 -2.52,-0.648 -4.32,-3.672 -6.768,-4.392 -2.448,-0.72 -4.752,-1.944 -7.272,-2.736 -2.448,-0.792 -6.192,2.376 -8.64,1.584 -2.448,-0.792 -4.248,-3.744 -6.696,-4.608 -2.448,-0.792 -5.688,0.648 -8.136,-0.144 -2.448,-0.792 -4.32,-3.672 -6.768,-4.392 -2.52,-0.72 -5.256,-0.504 -7.776,-1.152 -2.52,-0.72 -5.256,-0.36 -7.776,-0.936 -2.52,-0.576 -4.32,-4.608 -6.84,-5.04 -2.592,-0.504 -5.544,1.656 -8.136,1.296 -2.593,-0.36 -5.113,-0.216 -7.705,-0.432 -2.592,-0.144 -5.112,-2.304 -7.704,-2.232 -2.592,0.072 -4.968,2.736 -7.56,3.024 -2.592,0.288 -5.688,-2.448 -8.208,-1.872 -2.52,0.576 -5.4,0.72 -7.848,1.584 -2.376,0.864 -4.68,2.664 -7.056,3.816 -2.232,1.152 -3.888,3.672 -6.12,5.112 -4.824,3.024 -4.896,3.24 -8.568,7.56 z" />
      <path
         style="fill-opacity:0;stroke:#343232;stroke-width:5.45300007"
         inkscape:connector-curvature="0"
         id="path63479"
         d="m 506.355,119.519 c -0.504,2.664 -0.864,5.472 -1.152,7.992 -0.288,2.664 1.944,5.328 1.872,7.848 -0.072,2.664 -2.448,5.256 -2.232,7.776 0.216,2.664 3.096,4.752 3.672,7.2 0.576,2.592 -1.656,5.832 -0.72,8.279 0.936,2.448 1.152,5.4 2.448,7.704 1.224,2.232 3.384,4.248 4.968,6.336 1.512,2.016 2.88,4.536 4.752,6.408 1.728,1.8 4.464,2.952 6.48,4.68 1.872,1.656 2.952,4.68 5.112,6.264 2.016,1.512 6.696,-0.576 8.928,0.864 2.088,1.44 2.592,5.4 4.896,6.768 2.16,1.296 4.176,3.168 6.48,4.464 2.088,1.152 5.112,1.008 7.488,2.232 2.16,1.08 5.472,0.072 7.92,1.152 2.233,1.008 4.393,2.376 6.769,3.456 2.304,1.008 3.816,3.816 6.264,4.824 2.304,0.936 5.544,-0.288 7.992,0.648 2.304,0.936 4.392,2.664 6.768,3.528 2.376,0.864 4.752,1.728 7.2,2.592 2.376,0.864 3.672,4.824 6.12,5.616 2.376,0.864 5.616,-0.792 8.064,0.072 2.448,0.792 4.032,4.176 6.408,4.968 2.448,0.792 4.896,1.656 7.344,2.376 2.448,0.72 5.472,-0.288 7.92,0.432 2.448,0.72 5.112,0.864 7.56,1.512 2.52,0.648 5.328,-0.216 7.776,0.432 2.52,0.648 4.608,2.664 7.056,3.24 2.52,0.576 4.752,2.304 7.2,2.808 2.592,0.504 4.896,2.16 7.345,2.592 2.591,0.504 5.328,0.072 7.776,0.432 2.664,0.36 5.328,0 7.704,0.216 2.808,0.288 5.616,-0.36 8.28,-0.504 2.808,-0.144 5.688,0.648 8.352,0.072 2.736,-0.576 5.184,-2.16 7.776,-3.168 2.592,-1.008 5.04,-2.16 7.416,-3.528 2.376,-1.368 5.976,-1.08 8.208,-2.808 2.16,-1.656 2.52,-5.616 4.536,-7.56 1.944,-1.872 4.824,-2.88 6.696,-5.04 1.8,-2.016 2.664,-4.896 4.32,-7.2 1.512,-1.944 3.384,-3.744 4.392,-6.192 0.936,-2.304 -0.144,-5.184 0.432,-7.704 0.504,-2.448 4.392,-4.464 4.608,-7.056 0.216,-2.52 -0.504,-5.328 -0.576,-7.848 -0.072,-2.592 -1.44,-5.112 -1.8,-7.56 -0.432,-2.664 -1.008,-5.184 -1.728,-7.416 -0.864,-2.664 -2.736,-4.608 -3.888,-6.912 -1.224,-2.448 -3.168,-4.104 -4.608,-6.264 -1.512,-2.232 -3.096,-3.959 -4.896,-5.831 -1.872,-1.944 -2.736,-4.68 -4.824,-6.192 -2.16,-1.584 -4.968,-1.656 -7.344,-2.952 -2.304,-1.224 -2.952,-6.192 -5.4,-7.2 -2.448,-0.936 -5.616,-0.288 -8.136,-1.08 -2.52,-0.72 -4.824,-2.736 -7.416,-3.312 -2.52,-0.576 -5.328,-0.432 -7.992,-0.936 -2.592,-0.432 -5.76,2.808 -8.424,2.448 -2.592,-0.36 -4.969,-2.232 -7.632,-2.592 -2.592,-0.36 -5.257,-0.36 -7.92,-0.72 -2.593,-0.36 -5.185,-1.296 -7.777,-1.728 -2.664,-0.36 -4.68,-3.888 -7.272,-4.32 -2.52,-0.504 -5.256,0.216 -7.776,-0.36 -2.52,-0.576 -5.4,0.288 -7.92,-0.432 -2.52,-0.648 -4.32,-3.672 -6.768,-4.392 -2.448,-0.72 -4.752,-1.944 -7.272,-2.736 -2.448,-0.792 -6.192,2.376 -8.64,1.584 -2.448,-0.792 -4.248,-3.744 -6.696,-4.608 -2.448,-0.792 -5.688,0.648 -8.136,-0.144 -2.448,-0.792 -4.32,-3.672 -6.768,-4.392 -2.52,-0.72 -5.256,-0.504 -7.776,-1.152 -2.52,-0.72 -5.256,-0.36 -7.776,-0.936 -2.52,-0.576 -4.32,-4.608 -6.84,-5.04 -2.592,-0.504 -5.544,1.656 -8.136,1.296 -2.593,-0.36 -5.113,-0.216 -7.705,-0.432 -2.592,-0.144 -5.112,-2.304 -7.704,-2.232 -2.592,0.072 -4.968,2.736 -7.56,3.024 -2.592,0.288 -5.688,-2.448 -8.208,-1.872 -2.52,0.576 -5.4,0.72 -7.848,1.584 -2.376,0.864 -4.68,2.664 -7.056,3.816 -2.232,1.152 -3.888,3.672 -6.12,5.112 -4.824,3.024 -4.896,3.24 -8.568,7.56" />
    </g>
    <g
       id="g63495">
      <g
         id="g63487">
        <path
           style="fill:#fefefe"
           inkscape:connector-curvature="0"
           id="path63483"
           d="m 475.899,118.079 c 0,0 18.72,-53.64 77.472,-63 0,0 161.138,2.304 236.09,94.32 3.817,4.679 9.361,19.439 6.913,26.495 -6.12,17.712 -19.441,49.68 -37.081,54.576 0,0 -11.088,6.768 -28.944,8.496 0,0 -216.146,-108.071 -251.858,-108.935 0,0 -4.248,-6.768 -2.52,-11.88 z" />
        <path
           style="fill-opacity:0;stroke:#343232;stroke-width:5.10599995"
           inkscape:connector-curvature="0"
           id="path63485"
           d="m 475.899,118.079 c 0,0 18.72,-53.64 77.472,-63 0,0 161.138,2.304 236.09,94.32 3.817,4.679 9.361,19.439 6.913,26.495 -6.12,17.712 -19.441,49.68 -37.081,54.576 0,0 -11.088,6.768 -28.944,8.496 0,0 -216.146,-108.071 -251.858,-108.935 0,0 -4.248,-6.768 -2.52,-11.88" />
      </g>
      <path
         style="fill:#ffed99"
         inkscape:connector-curvature="0"
         id="path63491"
         d="m 483.531,118.079 c 0,0 97.849,-4.248 279.146,104.687 0,0 -14.472,9.36 -31.464,11.88 0,0 -182.954,-97.847 -250.202,-108.935 0,0 -2.52,-8.496 2.52,-7.632 z" />
      <path
         style="fill:#fefefe"
         inkscape:connector-curvature="0"
         id="path63493"
         d="m 550.779,61.055 c 0,0 128.522,0 204.266,63 0,0 -78.264,-46.8 -204.266,-63 z" />
    </g>
  </g>
</svg>
