<?xml version="1.0" encoding="UTF-8" standalone="no"?>
<svg
   xmlns:dc="http://purl.org/dc/elements/1.1/"
   xmlns:cc="http://creativecommons.org/ns#"
   xmlns:rdf="http://www.w3.org/1999/02/22-rdf-syntax-ns#"
   xmlns:svg="http://www.w3.org/2000/svg"
   xmlns="http://www.w3.org/2000/svg"
   xmlns:sodipodi="http://sodipodi.sourceforge.net/DTD/sodipodi-0.dtd"
   xmlns:inkscape="http://www.inkscape.org/namespaces/inkscape"
   version="1.1"
   x="0"
   y="0"
   width="256"
   height="229.80917"
   viewBox="0 0 256 229.80917"
   id="svg1309"
   sodipodi:docname="sushi_02_nigiri_hotate.svg"
   inkscape:version="0.92.4 (5da689c313, 2019-01-14)">
  <title
     id="title2120">Scallop Nigiri Sushi</title>
  <metadata
     id="metadata1313">
    <rdf:RDF>
      <cc:Work
         rdf:about="">
        <dc:format>image/svg+xml</dc:format>
        <dc:type
           rdf:resource="http://purl.org/dc/dcmitype/StillImage" />
        <dc:title>Scallop Nigiri Sushi</dc:title>
        <cc:license
           rdf:resource="http://creativecommons.org/publicdomain/zero/1.0/" />
        <dc:source>https://openclipart.org/detail/284028</dc:source>
        <dc:creator>
          <cc:Agent>
            <dc:title>oksmith</dc:title>
          </cc:Agent>
        </dc:creator>
      </cc:Work>
      <cc:License
         rdf:about="http://creativecommons.org/publicdomain/zero/1.0/">
        <cc:permits
           rdf:resource="http://creativecommons.org/ns#Reproduction" />
        <cc:permits
           rdf:resource="http://creativecommons.org/ns#Distribution" />
        <cc:permits
           rdf:resource="http://creativecommons.org/ns#DerivativeWorks" />
      </cc:License>
    </rdf:RDF>
  </metadata>
  <sodipodi:namedview
     pagecolor="#ffffff"
     bordercolor="#666666"
     borderopacity="1"
     objecttolerance="10"
     gridtolerance="10"
     guidetolerance="10"
     inkscape:pageopacity="0"
     inkscape:pageshadow="2"
     inkscape:window-width="1920"
     inkscape:window-height="1025"
     id="namedview1311"
     showgrid="false"
     inkscape:zoom="1.4424674"
     inkscape:cx="-138.12295"
     inkscape:cy="128.47765"
     inkscape:window-x="-8"
     inkscape:window-y="-8"
     inkscape:window-maximized="1"
     inkscape:current-layer="svg1309"
     fit-margin-top="0"
     fit-margin-left="0"
     fit-margin-right="0"
     fit-margin-bottom="0"
     inkscape:pagecheckerboard="true" />
  <defs
     id="defs256">
    <linearGradient
       id="Gradient_36"
       gradientUnits="userSpaceOnUse"
       x1="111.047"
       y1="235.371"
       x2="104.585"
       y2="284.72101">
      <stop
         offset="0"
         stop-color="#FFFFFF"
         id="stop227" />
      <stop
         offset="1"
         stop-color="#FFDCAE"
         id="stop229" />
    </linearGradient>
    <linearGradient
       id="Gradient_37"
       gradientUnits="userSpaceOnUse"
       x1="121.062"
       y1="246.269"
       x2="115.826"
       y2="286.25601">
      <stop
         offset="0"
         stop-color="#FFFFFF"
         id="stop232" />
      <stop
         offset="0.981"
         stop-color="#FFE1AE"
         id="stop234" />
      <stop
         offset="1"
         stop-color="#FFE1AE"
         id="stop236" />
    </linearGradient>
    <linearGradient
       id="Gradient_38"
       gradientUnits="userSpaceOnUse"
       x1="108.766"
       y1="250.382"
       x2="105.512"
       y2="275.23401">
      <stop
         offset="0"
         stop-color="#FFFFFF"
         id="stop239" />
      <stop
         offset="0.995"
         stop-color="#FFC272"
         id="stop241" />
      <stop
         offset="1"
         stop-color="#FFC272"
         id="stop243" />
    </linearGradient>
  </defs>
  <g
     id="g1641"
     transform="matrix(2.9111505,0,0,2.9111505,-179.19078,-719.77333)">
    <g
       id="g1579"
       inkscape:label="text"
       style="display:none">
      <path
         style="fill:#000000"
         inkscape:connector-curvature="0"
         id="path1196"
         d="m 81.47,352.729 c -0.703,6.982 -1.187,13.428 -1.449,19.336 -0.088,1.074 -0.352,1.567 -0.791,1.477 -0.352,-0.09 -0.616,-0.358 -0.791,-0.805 -0.44,-0.895 -0.659,-2.149 -0.659,-3.76 l 0.396,-0.806 c 0.175,-1.88 0.35,-4.475 0.526,-7.788 -1.845,1.074 -3.513,1.611 -5.007,1.611 -0.615,0 -1.141,-0.223 -1.581,-0.671 -0.439,3.581 -0.879,7.117 -1.317,10.608 -0.088,0.984 -0.396,1.476 -0.923,1.476 -0.439,0 -0.746,-0.537 -0.922,-1.611 -0.176,-0.805 -0.263,-1.61 -0.263,-2.417 l 0.395,-0.805 c 0.351,-3.402 0.702,-6.356 1.054,-8.863 0.351,-2.685 0.527,-5.102 0.527,-7.251 0,-0.894 -0.088,-1.745 -0.264,-2.552 -0.175,-0.178 -0.044,-0.357 0.396,-0.537 0.526,0.27 0.966,0.807 1.317,1.612 0.352,0.537 0.528,1.299 0.528,2.283 -0.088,1.254 -0.22,3.089 -0.396,5.506 0.176,0.268 0.79,0.402 1.845,0.402 2.195,0 3.82,-0.357 4.875,-1.074 0.264,-1.611 0.439,-3.625 0.527,-6.043 l -0.395,-0.269 c 0,-0.626 0.219,-1.297 0.659,-2.013 0.438,-0.716 0.702,-1.075 0.79,-1.075 0.703,0 1.143,0.582 1.318,1.746 0,0.269 -0.132,1.03 -0.395,2.283" />
      <path
         style="fill:#000000"
         inkscape:connector-curvature="0"
         id="path1198"
         d="m 86.661,361.726 c -0.791,1.432 -1.186,2.909 -1.186,4.431 0,1.074 0.132,1.969 0.396,2.685 0.263,0.627 0.922,1.03 1.976,1.209 1.054,0 2.108,-0.671 3.162,-2.015 1.054,-1.521 1.581,-3.043 1.581,-4.565 0,-1.074 -0.219,-1.924 -0.659,-2.551 -0.615,-0.894 -1.405,-1.343 -2.371,-1.343 -1.055,-0.089 -2.02,0.627 -2.899,2.149 z m 6.325,-3.358 c 0.702,0.717 1.054,1.747 1.054,3.089 -0.352,2.507 -0.615,4.566 -0.79,6.177 -0.264,1.343 -0.704,2.417 -1.319,3.223 -0.879,1.342 -2.152,2.103 -3.82,2.282 -1.143,0 -2.196,-0.447 -3.163,-1.343 -1.143,-0.984 -1.713,-2.729 -1.713,-5.236 -0.088,-2.506 0.57,-4.699 1.976,-6.58 1.318,-1.879 2.899,-2.82 4.745,-2.82 1.316,0 2.327,0.404 3.03,1.208" />
      <path
         style="fill:#000000"
         inkscape:connector-curvature="0"
         id="path1200"
         d="m 104.37,350.446 c -0.264,0.985 -0.483,2.014 -0.659,3.088 -0.352,1.791 -0.526,2.911 -0.526,3.358 h 1.185 c 0.527,0 1.318,0 2.372,0 0,0.268 -0.088,0.582 -0.263,0.939 -0.264,0.717 -1.055,1.075 -2.373,1.075 h -1.185 c -0.176,0.716 -0.396,2.059 -0.659,4.028 -0.352,1.881 -0.615,4.029 -0.79,6.445 0,0.717 0.35,1.074 1.053,1.074 0.528,0 0.966,-0.133 1.318,-0.402 0.263,-0.269 0.659,-0.716 1.186,-1.343 0.263,-0.178 0.395,-0.045 0.395,0.403 -0.703,1.88 -1.274,3.044 -1.713,3.491 -0.615,0.717 -1.317,1.03 -2.107,0.94 -1.67,-0.357 -2.46,-1.7 -2.373,-4.028 l 0.528,-4.834 c 0.438,-2.686 0.746,-4.521 0.922,-5.506 -0.791,0.09 -1.669,0.225 -2.635,0.403 -0.703,-0.894 -0.703,-1.611 0,-2.148 0.438,-0.269 1.404,-0.403 2.898,-0.403 0.088,-0.358 0.176,-0.895 0.264,-1.612 0.176,-0.984 0.57,-2.999 1.186,-6.043 0.703,-0.715 1.185,-0.849 1.449,-0.402 0.351,0.537 0.527,1.029 0.527,1.477" />
      <path
         style="fill:#000000"
         inkscape:connector-curvature="0"
         id="path1202"
         d="m 112.065,367.365 c 0,0.448 0.044,0.94 0.132,1.477 0.088,0.448 0.22,0.762 0.395,0.94 0.264,0.359 0.702,0.538 1.318,0.538 1.757,0 2.898,-1.388 3.425,-4.163 0.44,-2.865 0.66,-4.7 0.66,-5.505 -0.088,-0.269 -0.396,-0.537 -0.923,-0.806 -0.264,-0.09 -0.702,-0.09 -1.318,0 -2.635,1.433 -3.865,3.939 -3.689,7.519 z m 8.96,-9.265 c -0.615,2.418 -1.098,4.566 -1.449,6.445 -0.352,1.881 -0.528,3.492 -0.528,4.834 0,0.359 0.044,0.672 0.132,0.941 0.176,0.358 0.528,0.358 1.055,0 0.614,-0.358 1.098,-0.94 1.449,-1.746 h 0.132 c 0.176,0.179 0.176,0.403 0,0.671 -0.352,1.254 -0.835,2.239 -1.449,2.954 -0.528,0.538 -1.055,0.806 -1.581,0.806 -0.528,0 -0.879,-0.179 -1.055,-0.537 -0.439,-0.627 -0.659,-1.119 -0.659,-1.478 -0.264,0.359 -0.614,0.717 -1.054,1.075 -0.264,0.269 -0.571,0.493 -0.922,0.672 -1.142,0.716 -2.24,0.671 -3.295,-0.135 -0.967,-1.074 -1.537,-2.104 -1.713,-3.088 -0.175,-0.984 -0.262,-1.88 -0.262,-2.686 0,-2.417 0.702,-4.565 2.107,-6.445 1.405,-1.969 2.942,-2.954 4.612,-2.954 0.615,0 1.098,0.135 1.45,0.402 0.263,0.09 0.483,0.18 0.659,0.269 l 1.449,-0.806 c 0.439,-0.179 0.746,-0.044 0.922,0.404 v 0.402" />
      <path
         style="fill:#000000"
         inkscape:connector-curvature="0"
         id="path1204"
         d="m 131.355,350.446 c -0.263,0.985 -0.483,2.014 -0.659,3.088 -0.351,1.791 -0.526,2.911 -0.526,3.358 h 1.185 c 0.528,0 1.318,0 2.373,0 0,0.268 -0.088,0.582 -0.264,0.939 -0.264,0.717 -1.055,1.075 -2.372,1.075 h -1.186 c -0.176,0.716 -0.395,2.059 -0.659,4.028 -0.351,1.881 -0.614,4.029 -0.79,6.445 0,0.717 0.351,1.074 1.054,1.074 0.527,0 0.966,-0.133 1.317,-0.402 0.264,-0.269 0.659,-0.716 1.187,-1.343 0.262,-0.178 0.394,-0.045 0.394,0.403 -0.703,1.88 -1.273,3.044 -1.713,3.491 -0.615,0.717 -1.317,1.03 -2.107,0.94 -1.67,-0.357 -2.46,-1.7 -2.372,-4.028 l 0.527,-4.834 c 0.439,-2.686 0.746,-4.521 0.922,-5.506 -0.791,0.09 -1.669,0.225 -2.635,0.403 -0.703,-0.894 -0.703,-1.611 0,-2.148 0.439,-0.269 1.405,-0.403 2.899,-0.403 0.088,-0.358 0.175,-0.895 0.263,-1.612 0.176,-0.984 0.571,-2.999 1.186,-6.043 0.703,-0.715 1.185,-0.849 1.449,-0.402 0.352,0.537 0.527,1.029 0.527,1.477" />
      <path
         style="fill:#000000"
         inkscape:connector-curvature="0"
         id="path1206"
         d="m 141.554,360.115 c -0.791,0.626 -1.493,1.834 -2.108,3.625 3.338,-0.089 5.358,-0.492 6.061,-1.208 0.263,-0.269 0.395,-0.672 0.395,-1.209 0,-0.626 -0.132,-1.074 -0.395,-1.343 -0.527,-0.537 -1.142,-0.806 -1.844,-0.806 -0.616,0 -1.319,0.314 -2.109,0.941 z m 5.403,-2.149 c 0.702,0.717 1.053,1.611 1.053,2.686 0,1.342 -0.351,2.372 -1.053,3.088 -1.495,1.522 -4.085,2.149 -7.775,1.879 0,1.881 0.352,3.179 1.055,3.895 0.438,0.447 1.14,0.671 2.107,0.671 0.791,0 1.669,-0.224 2.636,-0.671 1.317,-0.627 2.503,-1.611 3.558,-2.954 0.351,-0.269 0.483,-0.045 0.395,0.671 -1.494,3.939 -3.733,5.908 -6.72,5.908 -1.23,0 -2.284,-0.447 -3.163,-1.343 -1.406,-1.431 -2.108,-3.356 -2.108,-5.773 0,-2.865 0.79,-5.103 2.372,-6.714 1.581,-1.611 3.206,-2.417 4.875,-2.417 1.142,0 2.064,0.358 2.768,1.074" />
    </g>
    <g
       id="g1606"
       inkscape:label="sushi">
      <path
         style="display:none;fill:#b0b0b0"
         inkscape:connector-curvature="0"
         id="path272"
         d="m 78.16,271.908 c 0,0 -21.594,10.797 -22.393,12.797 -0.8,1.999 -2.8,2.799 0.399,5.199 3.199,2.399 7.198,5.998 7.198,5.998 l 29.992,19.995 13.597,7.198 c 0,0 11.197,5.198 13.996,5.198 2.799,0 7.997,-0.799 10.797,-0.399 2.8,0.399 8.4,0 14.797,-3.599 6.397,-3.599 14.796,-7.198 6.798,-13.596 C 145.343,304.3 78.16,271.908 78.16,271.908"
         inkscape:label="shadow" />
      <g
         id="g862"
         style="display:inline"
         inkscape:label="rice">
        <path
           d="m 64.249,279.844 c 0,0 -1.83,0.459 -1.467,3.73 0.364,3.271 1.998,4.179 1.998,4.179 0,0 -1.998,3.451 -0.363,5.632 1.636,2.181 4.361,1.817 4.361,1.817 0,0 0.364,3.089 2.543,4.906 2.181,1.816 3.817,1.09 3.817,1.09 0,0 0.363,3.088 2.906,4.361 2.544,1.271 4.906,0.726 4.906,0.726 0,0 -0.181,2.18 2.362,3.634 2.544,1.454 4.906,0.545 4.906,0.545 0,0 0,2.362 2.724,3.634 2.727,1.271 5.815,0.726 5.815,0.726 0,0 0,3.09 2.362,3.999 2.362,0.908 7.631,0.181 7.631,0.181 0,0 1.454,5.086 4.724,5.814 3.271,0.727 5.269,-1.636 5.269,-1.636 0,0 2.543,1.637 4.542,0.727 0.653,-0.296 1.625,-1.075 2.637,-1.987 2.556,-2.307 2.393,1.361 5.16,-1.648 0,0 -23.422,-28.706 -37.049,-37.245 -22.218,-13.923 -28.484,-7.881 -30.196,-7.31 l 0.412,4.125"
           id="path358"
           inkscape:connector-curvature="0"
           style="display:inline;fill:#ffffff" />
        <path
           d="m 122.938,317.852 c 0,0 9.367,4.199 12.597,3.553 3.23,-0.647 4.199,-2.262 4.199,-2.262 l 1.292,-2.584 c 0,0 2.907,0.324 4.522,-0.969 1.615,-1.291 1.938,-3.229 1.938,-3.229 l -0.969,-2.908 c 0,0 2.907,-0.323 2.261,-3.23 -0.646,-2.906 -0.45111,-9.53963 -0.45111,-9.53963 l -36.04789,6.63363 10.659,14.535"
           id="path360"
           inkscape:connector-curvature="0"
           style="display:inline;fill:#ffffff"
           sodipodi:nodetypes="ccccccccccc" />
      </g>
      <path
         style="display:inline;fill:#b0b0b0"
         inkscape:connector-curvature="0"
         id="path362"
         d="m 65.126,272.072 c 0,0 -1.956,4.565 -1.521,6.522 0.434,1.957 -0.653,3.261 -0.653,3.261 0,0 2.174,-1.305 3.696,0.217 1.521,1.522 3.043,2.609 3.043,2.609 0,0 3.261,-0.217 4.131,1.304 0.869,1.522 2.608,3.478 2.608,3.478 0,0 3.261,0 4.348,1.739 1.087,1.74 4.783,4.783 4.783,4.783 0,0 2.391,-0.218 3.913,1.522 1.522,1.739 4.347,4.348 4.347,4.348 0,0 2.827,-1.087 5,1.087 2.174,2.173 4.566,3.26 4.566,3.26 0,0 3.478,-1.303 6.956,0.218 3.478,1.522 7.174,3.478 7.174,3.478 0,0 3.696,-1.523 6.304,-2.174 2.609,-0.651 5.435,-0.651 5.435,-0.651 0,0 2.174,-2.61 5.217,-4.131 3.044,-1.522 6.087,-0.218 6.087,-0.218 0,0 0.436,-3.261 2.392,-4.13 1.956,-0.87 4.782,-1.522 4.782,-1.522 l -0.87,-1.522 -1.087,-0.435 -0.434,-5.869 c 0,0 -29.347,3.913 -45.217,-0.435 -15.87,-4.347 -35,-16.739 -35,-16.739"
         inkscape:label="scallop_shadow" />
      <g
         id="g873"
         inkscape:label="rice_outline"
         style="display:inline">
        <path
           d="m 63.921,279.003 c -0.559,0.574 -1.228,0.965 -1.671,1.63 -0.557,0.834 -0.725,2.051 -0.693,3.022 0.072,2.242 1.034,4.078 3.237,4.656 0.853,0.223 1.705,-0.966 0.923,-1.587 -0.269,-0.213 -0.95,-0.549 -1.123,-0.831 -0.496,-0.811 -0.692,-1.74 -0.733,-2.679 -0.029,-0.664 -0.218,-1.56 0.334,-2.031 0.417,-0.356 0.559,-0.855 0.88,-1.29 0.504,-0.683 -0.584,-1.474 -1.154,-0.89"
           id="path930"
           inkscape:connector-curvature="0"
           style="display:inline;fill:#000000" />
        <path
           d="m 64.419,287.374 c -2.111,1.962 -2.119,4.954 -0.614,7.317 1.332,2.091 4.279,2.95 5.58,0.383 0.41,-0.811 -0.606,-1.668 -1.282,-0.989 -1.092,1.094 -2.066,0.182 -2.721,-0.896 -0.849,-1.396 -0.881,-3.339 0.291,-4.561 0.794,-0.828 -0.417,-2.032 -1.254,-1.254"
           id="path932"
           inkscape:connector-curvature="0"
           style="fill:#000000" />
        <path
           d="m 68.468,294.437 c -0.445,2.389 0.293,4.545 1.938,6.345 1.517,1.662 3.777,2.125 5.327,0.329 0.43,-0.498 -0.099,-1.121 -0.672,-0.871 -2.909,1.262 -5.188,-3.243 -4.928,-5.578 0.105,-0.95 -1.491,-1.16 -1.665,-0.225"
           id="path934"
           inkscape:connector-curvature="0"
           style="fill:#000000" />
        <path
           d="m 74.603,300.718 c -0.368,4.061 4.279,7.682 8.209,6.189 0.83,-0.316 0.663,-1.409 -0.204,-1.504 -1.613,-0.179 -3.012,-0.082 -4.479,-0.928 -1.335,-0.771 -2.051,-2.244 -2.05,-3.757 0.001,-0.967 -1.392,-0.933 -1.476,0"
           id="path936"
           inkscape:connector-curvature="0"
           style="fill:#000000" />
        <path
           d="m 82.521,304.766 c -0.875,4.631 3.104,8.167 7.606,6.557 1.138,-0.407 0.685,-2.178 -0.504,-1.831 -3.224,0.943 -5.979,-1.094 -5.69,-4.535 0.068,-0.806 -1.262,-0.985 -1.412,-0.191"
           id="path938"
           inkscape:connector-curvature="0"
           style="fill:#000000" />
        <path
           d="m 89.788,309.004 c -0.402,2.738 0.277,4.751 2.703,6.143 1.718,0.986 4.865,1.682 6.373,0.01 0.416,-0.46 0.141,-1.227 -0.511,-1.233 -1.561,-0.014 -2.779,0.335 -4.332,-0.196 -0.755,-0.258 -1.434,-0.75 -2.013,-1.284 -0.777,-0.72 -0.686,-2.472 -0.835,-3.44 -0.105,-0.686 -1.284,-0.691 -1.385,0"
           id="path940"
           inkscape:connector-curvature="0"
           style="fill:#000000" />
        <path
           d="m 98.21,313.229 c -0.328,1.454 -0.316,2.751 0.154,4.174 0.419,1.265 1.39,1.75 2.579,2.28 2.565,1.145 5.677,1.387 8.115,-0.097 0.809,-0.492 0.264,-1.672 -0.626,-1.484 -1.838,0.386 -3.746,0.416 -5.567,-0.034 -0.83,-0.205 -1.581,-0.589 -2.322,-1.003 -0.954,-0.534 -0.865,-2.741 -0.807,-3.629 0.058,-0.878 -1.335,-1.058 -1.526,-0.207"
           id="path942"
           inkscape:connector-curvature="0"
           style="fill:#000000" />
        <path
           d="m 108.359,318.28 c -0.146,3.033 1.652,5.752 4.246,7.217 2.502,1.414 5.237,0.597 6.552,-1.893 0.57,-1.08 -1.021,-2.02 -1.64,-0.959 -1.092,1.874 -2.899,1.756 -4.575,0.743 -1.741,-1.052 -2.778,-3.118 -2.794,-5.108 -0.008,-1.16 -1.733,-1.147 -1.789,0"
           id="path944"
           inkscape:connector-curvature="0"
           style="fill:#000000" />
        <path
           d="m 117.099,320.877 c 0.22,1.039 0.144,1.798 0.876,2.642 0.721,0.831 1.841,1.345 2.894,1.569 2.132,0.456 4.613,-0.738 5.487,-2.735 0.39,-0.889 -0.594,-1.748 -1.367,-1.056 -1.077,0.965 -1.942,1.829 -3.473,1.846 -1.588,0.016 -2.599,-1.301 -3.152,-2.615 -0.32,-0.763 -1.446,-0.501 -1.265,0.349"
           id="path946"
           inkscape:connector-curvature="0"
           style="fill:#000000" />
        <path
           style="fill:#000000"
           inkscape:connector-curvature="0"
           id="path948"
           d="m 64.812,278.973 c -0.5,-1.116 -0.971,-2.485 -0.321,-3.631 0.38,-0.67 0.905,-1.134 0.936,-1.956 0.05,-1.308 -1.855,-1.246 -1.992,0 0.019,-0.174 -0.324,0.411 -0.424,0.55 -0.282,0.393 -0.485,0.814 -0.652,1.268 -0.583,1.581 0.137,3.31 0.827,4.72 0.54,1.101 2.114,0.138 1.626,-0.951" />
        <path
           style="fill:#000000"
           inkscape:connector-curvature="0"
           id="path950"
           d="m 125.065,322.149 c 1.665,2.086 4.998,1.449 6.699,-0.176 0.938,-0.896 -0.462,-2.274 -1.414,-1.414 -0.986,0.889 -2.965,1.5 -4.02,0.324 -0.786,-0.874 -1.968,0.385 -1.265,1.266" />
        <path
           style="display:inline;fill:#000000"
           inkscape:connector-curvature="0"
           id="path966"
           d="m 130.442,320.768 c 2.791,4.548 12.449,-0.081 11.31,-5.056 -0.169,-0.734 -1.27,-0.708 -1.454,0 -0.556,2.138 -1.373,3.45 -3.42,4.488 -1.917,0.972 -3.778,0.743 -5.533,-0.335 -0.562,-0.346 -1.248,0.34 -0.903,0.903" />
        <path
           style="fill:#000000"
           inkscape:connector-curvature="0"
           id="path968"
           d="m 140.32,316.891 c 1.83,1.258 4.477,0.292 6.115,-0.838 2.053,-1.417 2.137,-4.093 0.873,-6.067 -0.384,-0.6 -1.223,-0.08 -0.938,0.548 0.821,1.81 0.356,3.446 -1.343,4.448 -1.272,0.75 -2.731,1.042 -4.123,0.524 -0.853,-0.317 -1.251,0.927 -0.584,1.385" />
        <path
           style="fill:#000000"
           inkscape:connector-curvature="0"
           id="path970"
           d="m 145.133,293.159 c -0.026,0.652 -0.049,1.304 -0.061,1.956 -0.007,0.405 0.327,0.678 0.705,0.706 3.296,0.235 2.135,4.993 1.008,6.762 -0.213,0.335 -0.093,0.699 0.127,0.983 1.442,1.866 1.317,4.347 -1.239,5.172 -0.769,0.248 -0.671,1.506 0.197,1.458 1.862,-0.106 3.01,-1.075 3.565,-2.839 0.293,-0.932 -0.633,-4.956 -1.176,-4.075 1.716,-2.785 2.007,-8.709 -2.482,-8.872 0.235,0.236 0.47,0.471 0.705,0.705 -0.011,-0.652 -0.035,-1.304 -0.06,-1.956 -0.033,-0.831 -1.256,-0.831 -1.289,0" />
      </g>
      <g
         id="g908"
         style="display:inline"
         inkscape:label="scallop">
        <path
           d="m 67.143514,256.94821 c 0,0 6.448486,-5.03521 12.197486,-6.77721 5.75,-1.741 11.999,-3.234 15.748,-2.239 3.749,0.995 6.749,1.493 6.749,1.493 l 9.249,3.731 c 0,0 1,-1.244 2.75,-1.741 1.75,-0.498 4.249,-0.747 5.499,0.249 1.25,0.995 5.499,8.956 5.499,8.956 -11.953,11.154 -12.27,8.13 -22.496,12.937 -9,4.228 -14.749,6.716 -14.499,8.955 0.251,2.239 9.714,9.875 13.964,12.611 4.249,2.737 24.496,3.483 31.246,-0.746 6.748,-4.229 10.998,-7.712 10.748,-11.941 -0.25,-4.23 -1.75,-9.952 -1.75,-9.952 0,0 6.999,5.722 6.25,12.689 -0.751,6.965 -1.749,8.458 -8.249,12.19 -6.498,3.732 -18.748,7.215 -18.748,7.215 l -19.247,-2.488 -5.189,-2.41 -17.024,-13.685 -8.375,-3.777 -6.499,-3.732 c 0,0 -2.75,-4.975 -2.251,-8.458 0.501,-3.482 0.716742,-6.70433 0.716742,-6.70433 z"
           id="path952"
           inkscape:connector-curvature="0"
           style="display:inline;fill:url(#Gradient_36)"
           sodipodi:nodetypes="ccscccccccccccccccccccccc" />
        <path
           d="m 87.245,284.118 c 0,0 13.621,13.274 18.249,14.878 4.627,1.604 16.776,1.07 24.296,-1.069 7.521,-2.139 11.569,-4.277 14.463,-8.02 2.893,-3.743 2.893,-7.485 2.893,-7.485 l -3.472,-8.02 -5.207,-4.813 -2.883,-0.76 -9.749,-7.712 -2.499,-2.735 c 0,0 -4.522,7.108 -16.422,12.369 -13.306,5.881 -16.876,7.172 -18.512,6.416 -4.627,-2.139 -1.157,6.951 -1.157,6.951 z"
           id="path954"
           inkscape:connector-curvature="0"
           style="fill:url(#Gradient_37)" />
        <path
           d="m 116.336,251.167 c -0.749,0 -5.249,2.239 -9.998,6.219 -4.75,3.98 -13.249,8.956 -17.499,11.443 -4.248,2.489 -7.998,4.976 -5.248,4.478 2.749,-0.497 14.248,-7.711 22.497,-11.692 8.248,-3.98 14.998,-4.976 14.998,-4.976 l 0.499,-1.244 c 0,0 -0.999,-3.731 -2.498,-4.228 -1.501,-0.498 -2.751,0 -2.751,0"
           id="path956"
           inkscape:connector-curvature="0"
           style="fill:#ffffff" />
        <path
           d="m 61.967,270.277 c 0,0 6.249,7.214 8.999,7.961 2.749,0.746 13.625,3.528 17.374,7.757 3.749,4.23 11.964,11.616 21.962,12.362 10,0.747 23.747,-1.99 28.997,-7.463 5.249,-5.473 4.249,-12.688 2.249,-15.922 -1.999,-3.234 -6.464,-6.889 -4.464,-5.645 2,1.244 9.464,4.65 10.463,10.123 1,5.474 1.5,9.952 -4.498,15.425 -5.999,5.473 -13.999,7.961 -20.248,8.955 -6.249,0.996 -17.497,1.244 -26.746,-4.228 -9.25,-5.474 -8.465,-6.143 -8.465,-6.143 l -13.998,-12.19 -5.626,-1.29 c 0,0 -3.25,-1.741 -4.249,-3.483 -1.001,-1.741 -1.75,-6.219 -1.75,-6.219"
           id="path958"
           inkscape:connector-curvature="0"
           style="display:inline;fill:#ffffff" />
        <path
           d="m 82.591,285.747 c 0,0 -10e-4,-7.215 4.499,-10.2 4.5,-2.985 14.748,-8.21 12.249,-6.22 -2.5,1.991 -12.999,12.688 -12.749,16.171 0.25,3.482 -3.999,0.249 -3.999,0.249"
           id="path960"
           inkscape:connector-curvature="0"
           style="fill:#ffffff" />
        <path
           d="m 122.586,260.371 c 0,0 -6.749,6.22 -16.748,11.693 -9.999,5.473 -17.998,11.195 -16.498,9.702 1.5,-1.492 10.498,-8.708 18.997,-14.429 8.5,-5.722 12.749,-7.463 12.749,-7.463 0,0 3,-0.996 1.5,0.497 z"
           id="path962"
           inkscape:connector-curvature="0"
           style="fill:url(#Gradient_38)" />
        <path
           d="m 64.535,276.32 c -2.277,-6.726 -2.27,-12.805 2.408,-18.45 3.177,-3.835 7.122,-5.131 11.702,-6.713 11.181,-3.862 21.6,-3.064 32.005,2.622 0.231,0.126 0.564,0.162 0.791,0 1.651,-1.178 3.477,-2.015 5.521,-2.203 2.909,-0.268 5.288,6.239 6.833,8.178 4.026,5.049 11.173,7.835 16.131,11.866 4.71,3.829 7.896,7.943 7.524,14.395 -0.396,6.889 -8.51,10.85 -13.816,13.463 -14.384,7.085 -30.844,4.5 -43.228,-5.237 -5.342,-4.199 -9.746,-9.331 -15.756,-12.636 -3.183,-1.75 -8.26,-2.09 -9.951,-5.575 -0.519,-1.07 -2.078,-0.135 -1.585,0.927 1.089,2.348 2.289,3.247 4.587,3.921 6.357,1.865 11.248,5.995 16.061,10.364 8.598,7.805 17.565,13.076 29.262,14.276 11.341,1.163 24.299,-3.492 32.472,-11.42 5.213,-5.057 5.222,-14.196 0.454,-19.632 -2.92,-3.329 -6.827,-5.975 -10.507,-8.392 -3.119,-2.049 -6.285,-3.961 -9.199,-6.31 -2.624,-2.115 -3.062,-5.228 -5.14,-7.59 -2.084,-2.372 -4.783,-2.7 -7.644,-1.344 -0.791,0.375 -1.537,0.77 -2.28,1.231 -0.911,0.565 0.503,0.491 -0.088,0.179 -1.528,-0.807 -3.117,-1.487 -4.71,-2.153 -10.977,-4.586 -20.765,-3.152 -31.619,0.991 -6.295,2.403 -12.239,7.375 -13.052,14.565 -0.436,3.86 0.317,7.374 1.566,11.024 0.271,0.791 1.529,0.453 1.258,-0.347"
           id="path964"
           inkscape:connector-curvature="0"
           style="display:inline;fill:#000000" />
      </g>
    </g>
  </g>
</svg>
