<?xml version="1.0" encoding="UTF-8" standalone="no"?>
<svg
   xmlns:dc="http://purl.org/dc/elements/1.1/"
   xmlns:cc="http://creativecommons.org/ns#"
   xmlns:rdf="http://www.w3.org/1999/02/22-rdf-syntax-ns#"
   xmlns:svg="http://www.w3.org/2000/svg"
   xmlns="http://www.w3.org/2000/svg"
   xmlns:sodipodi="http://sodipodi.sourceforge.net/DTD/sodipodi-0.dtd"
   xmlns:inkscape="http://www.inkscape.org/namespaces/inkscape"
   version="1.1"
   x="0"
   y="0"
   width="256"
   height="155.4704"
   viewBox="0 0 256 155.47039"
   id="svg1309"
   sodipodi:docname="sushi_02_nigiri_shimesaba.svg"
   inkscape:version="0.92.4 (5da689c313, 2019-01-14)">
  <title
     id="title2120">Cured Mackerel Nigiri Sushi</title>
  <metadata
     id="metadata1313">
    <rdf:RDF>
      <cc:Work
         rdf:about="">
        <dc:format>image/svg+xml</dc:format>
        <dc:type
           rdf:resource="http://purl.org/dc/dcmitype/StillImage" />
        <dc:title>Cured Mackerel Nigiri Sushi</dc:title>
        <cc:license
           rdf:resource="http://creativecommons.org/publicdomain/zero/1.0/" />
        <dc:source>https://openclipart.org/detail/284028</dc:source>
        <dc:creator>
          <cc:Agent>
            <dc:title>oksmith</dc:title>
          </cc:Agent>
        </dc:creator>
      </cc:Work>
      <cc:License
         rdf:about="http://creativecommons.org/publicdomain/zero/1.0/">
        <cc:permits
           rdf:resource="http://creativecommons.org/ns#Reproduction" />
        <cc:permits
           rdf:resource="http://creativecommons.org/ns#Distribution" />
        <cc:permits
           rdf:resource="http://creativecommons.org/ns#DerivativeWorks" />
      </cc:License>
    </rdf:RDF>
  </metadata>
  <sodipodi:namedview
     pagecolor="#ffffff"
     bordercolor="#666666"
     borderopacity="1"
     objecttolerance="10"
     gridtolerance="10"
     guidetolerance="10"
     inkscape:pageopacity="0"
     inkscape:pageshadow="2"
     inkscape:window-width="1920"
     inkscape:window-height="1025"
     id="namedview1311"
     showgrid="false"
     inkscape:zoom="2.8849349"
     inkscape:cx="158.13074"
     inkscape:cy="52.864101"
     inkscape:window-x="-8"
     inkscape:window-y="-8"
     inkscape:window-maximized="1"
     inkscape:current-layer="svg1309"
     fit-margin-top="0"
     fit-margin-left="0"
     fit-margin-right="0"
     fit-margin-bottom="0"
     inkscape:pagecheckerboard="true" />
  <defs
     id="defs256">
    <linearGradient
       id="Gradient_35"
       gradientUnits="userSpaceOnUse"
       x1="251.114"
       y1="444.46899"
       x2="348.87201"
       y2="498.06201">
      <stop
         offset="0"
         stop-color="#FFFFFF"
         id="stop222" />
      <stop
         offset="1"
         stop-color="#B8B8B8"
         id="stop224" />
    </linearGradient>
  </defs>
  <g
     id="g2131"
     transform="matrix(1.9224426,0,0,1.9224426,-463.56188,-835.55549)">
    <g
       id="g2052"
       inkscape:label="text"
       style="display:none">
      <path
         style="fill:#000000"
         inkscape:connector-curvature="0"
         id="path1240"
         d="m 261.295,541.909 c 0.528,0.18 0.879,0.672 1.055,1.477 l 0.396,1.478 c 0.174,0.716 0.174,1.297 0,1.745 -0.176,0.179 -0.396,0.179 -0.66,0 -0.791,-1.075 -1.405,-1.701 -1.844,-1.88 -0.703,-0.268 -1.362,-0.403 -1.977,-0.403 -1.055,0 -1.757,0.224 -2.108,0.671 -0.44,0.27 -0.658,0.717 -0.658,1.343 -0.088,0.897 0.746,2.194 2.502,3.895 1.406,1.88 2.285,3.312 2.636,4.297 0.351,0.716 0.614,1.879 0.79,3.491 0,1.881 -0.527,3.626 -1.581,5.237 -1.23,1.522 -2.548,2.282 -3.953,2.282 -1.318,0 -2.548,-0.402 -3.689,-1.208 -1.231,-0.894 -2.592,-2.103 -4.084,-3.626 -0.088,-0.267 -0.088,-0.447 0,-0.537 1.755,0.986 3.337,1.568 4.743,1.746 0.439,0.09 0.966,0.134 1.581,0.134 1.669,0 2.854,-0.402 3.557,-1.208 0.704,-0.806 1.055,-1.656 1.055,-2.552 0,-0.894 -0.088,-1.611 -0.264,-2.148 -0.263,-0.626 -1.054,-1.879 -2.372,-3.76 -1.23,-1.611 -2.02,-2.774 -2.372,-3.491 -0.351,-0.716 -0.526,-1.477 -0.526,-2.283 0.263,-3.223 2.02,-5.013 5.27,-5.371 0.527,0 1.361,0.224 2.503,0.671" />
      <path
         style="fill:#000000"
         inkscape:connector-curvature="0"
         id="path1242"
         d="m 270.546,542.043 c -0.791,4.745 -1.538,8.997 -2.24,12.757 1.141,-1.969 2.107,-3.311 2.898,-4.028 0.966,-0.895 1.845,-1.343 2.636,-1.343 0.614,0 1.141,0.225 1.581,0.672 0.702,0.717 0.878,1.97 0.527,3.76 -0.176,0.984 -0.527,3.446 -1.054,7.384 v 0.806 c 0.087,0.448 0.307,0.672 0.659,0.672 0.526,0 0.922,-0.045 1.185,-0.135 0.44,-0.267 0.922,-0.626 1.45,-1.074 0.263,-0.268 0.395,-0.223 0.395,0.135 -0.264,0.895 -0.703,1.746 -1.317,2.55 -0.703,0.986 -1.494,1.478 -2.372,1.478 -0.704,0 -1.274,-0.313 -1.713,-0.94 -0.616,-0.805 -0.791,-2.372 -0.528,-4.7 0.264,-1.701 0.703,-4.297 1.319,-7.788 0,-0.627 -0.176,-0.94 -0.528,-0.94 -0.791,0 -1.581,0.537 -2.372,1.611 -1.932,2.597 -3.382,6.625 -4.347,12.085 -0.352,0.897 -0.791,1.03 -1.318,0.403 -0.263,-0.357 -0.571,-0.984 -0.923,-1.879 1.318,-6.803 2.371,-12.846 3.162,-18.128 l -0.79,0.133 c -0.439,0.09 -0.659,10e-4 -0.659,-0.268 1.142,-1.879 2.152,-3.445 3.031,-4.699 0.175,-0.179 0.395,-0.179 0.659,0 0.439,0.268 0.659,0.76 0.659,1.476" />
      <path
         style="fill:#000000"
         inkscape:connector-curvature="0"
         id="path1244"
         d="m 287.833,542.849 c 0.175,0.358 0.263,0.672 0.263,0.94 0,0.985 -0.307,1.88 -0.922,2.686 -0.175,0.09 -0.439,0.09 -0.791,0 -0.791,-0.716 -1.141,-1.253 -1.053,-1.611 0.439,-1.253 0.834,-2.417 1.185,-3.492 0,-0.357 0.132,-0.402 0.396,-0.134 0.439,0.627 0.746,1.164 0.922,1.611 z m -0.791,8.863 c 0.088,0.359 0.132,1.029 0.132,2.014 l -0.263,2.148 c -0.176,1.791 -0.396,3.536 -0.66,5.238 -0.175,0.716 0,1.074 0.528,1.074 0.527,0 1.097,-0.134 1.713,-0.404 0.527,-0.357 1.053,-0.805 1.581,-1.342 0.351,-0.268 0.483,-0.134 0.395,0.403 -0.439,1.343 -1.098,2.462 -1.976,3.356 -0.791,0.807 -1.625,1.209 -2.503,1.209 -0.44,0 -0.835,-0.178 -1.187,-0.537 -0.615,-0.627 -0.922,-1.701 -0.922,-3.222 0,-0.716 0.175,-2.327 0.527,-4.834 0.263,-2.686 0.527,-4.879 0.791,-6.58 0.439,-1.253 0.878,-1.387 1.317,-0.403 0.264,0.806 0.44,1.433 0.527,1.88" />
      <path
         style="fill:#000000"
         inkscape:connector-curvature="0"
         id="path1246"
         d="m 306.702,550.772 c -0.352,3.222 -0.746,6.625 -1.186,10.205 0,0.448 0.044,0.851 0.132,1.209 0.264,0.179 0.527,0.179 0.791,0 1.404,-1.701 2.195,-3.089 2.371,-4.163 0.352,-0.179 0.44,-0.089 0.264,0.268 -0.264,2.149 -0.747,3.895 -1.449,5.238 -0.528,1.074 -1.231,1.611 -2.109,1.611 -1.318,-0.358 -2.02,-1.253 -2.108,-2.686 0.703,-5.549 1.185,-9.399 1.449,-11.547 -0.615,0 -1.274,1.074 -1.976,3.222 -0.791,1.88 -1.362,4.476 -1.713,7.788 -0.175,1.074 -0.263,1.791 -0.263,2.149 0,0.537 -0.176,0.895 -0.528,1.074 -0.703,-0.09 -1.185,-0.806 -1.449,-2.149 0.176,-0.715 0.351,-1.476 0.527,-2.283 0.615,-3.759 1.01,-6.176 1.186,-7.251 0.088,-1.163 0.132,-1.968 0.132,-2.417 -0.264,-0.178 -0.483,-0.044 -0.659,0.404 -0.703,1.254 -1.362,2.865 -1.977,4.834 -0.527,1.791 -1.141,4.61 -1.845,8.459 -0.263,0.448 -0.571,0.538 -0.921,0.268 -0.264,-0.179 -0.44,-0.402 -0.528,-0.671 -0.176,-0.268 -0.263,-0.672 -0.263,-1.209 0,-0.537 0.219,-1.835 0.659,-3.893 0.263,-1.522 0.482,-2.821 0.658,-3.895 0.176,-1.074 0.264,-1.88 0.264,-2.417 0,-0.626 -0.044,-1.028 -0.132,-1.208 -0.088,-0.268 -0.264,-0.358 -0.527,-0.268 -0.527,0 -0.878,0.089 -1.054,0.268 -0.176,-0.09 -0.264,-0.179 -0.264,-0.268 0.527,-1.343 1.274,-2.015 2.24,-2.015 0.528,0 0.923,0.269 1.187,0.806 0.175,0.358 0.263,0.94 0.263,1.746 0,0.717 -0.132,1.746 -0.395,3.088 1.142,-3.043 2.063,-4.878 2.767,-5.505 0.351,-0.179 0.702,-0.224 1.053,-0.135 0.616,0.18 0.923,0.537 0.923,1.074 0.176,0.627 0.176,1.523 0,2.686 1.142,-2.416 2.064,-3.804 2.767,-4.162 0.263,-0.179 0.527,-0.179 0.791,0 0.614,0.358 0.922,0.94 0.922,1.745" />
      <path
         style="fill:#000000"
         inkscape:connector-curvature="0"
         id="path1248"
         d="m 315.688,552.249 c -0.791,0.627 -1.493,1.835 -2.108,3.625 3.338,-0.089 5.358,-0.491 6.062,-1.208 0.262,-0.268 0.394,-0.672 0.394,-1.209 0,-0.626 -0.132,-1.073 -0.394,-1.342 -0.528,-0.538 -1.143,-0.806 -1.845,-0.806 -0.615,0 -1.318,0.313 -2.109,0.94 z m 5.403,-2.148 c 0.702,0.717 1.054,1.611 1.054,2.685 0,1.343 -0.352,2.372 -1.054,3.088 -1.494,1.523 -4.085,2.15 -7.775,1.88 0,1.881 0.352,3.179 1.055,3.895 0.439,0.447 1.141,0.671 2.108,0.671 0.791,0 1.668,-0.224 2.635,-0.671 1.318,-0.627 2.503,-1.612 3.558,-2.954 0.351,-0.269 0.483,-0.045 0.395,0.67 -1.494,3.94 -3.733,5.909 -6.719,5.909 -1.231,0 -2.285,-0.448 -3.163,-1.343 -1.407,-1.432 -2.109,-3.357 -2.109,-5.774 0,-2.864 0.79,-5.102 2.372,-6.713 1.581,-1.612 3.206,-2.417 4.875,-2.417 1.142,0 2.065,0.358 2.768,1.074" />
      <path
         style="fill:#000000"
         inkscape:connector-curvature="0"
         id="path1250"
         d="m 336.533,550.907 v 2.55 c -0.088,0.27 -0.307,0.225 -0.659,-0.133 -1.055,-1.075 -1.713,-1.701 -1.977,-1.88 -0.351,-0.179 -0.703,-0.269 -1.053,-0.269 -0.615,0 -1.055,0.135 -1.318,0.402 -0.351,0.27 -0.527,0.672 -0.527,1.209 0,0.448 0.088,0.851 0.264,1.208 0.702,0.807 1.536,1.746 2.503,2.821 1.229,1.254 1.888,2.596 1.976,4.028 0,1.343 -0.395,2.462 -1.185,3.356 -0.879,0.807 -1.889,1.209 -3.031,1.209 -1.142,0 -2.197,-0.357 -3.163,-1.074 -1.054,-0.805 -1.976,-1.925 -2.766,-3.357 0.175,-0.626 0.351,-0.671 0.527,-0.134 1.404,1.074 2.897,1.656 4.48,1.745 0.79,0 1.361,-0.044 1.712,-0.134 0.264,-0.178 0.484,-0.313 0.66,-0.403 0.35,-0.447 0.526,-0.85 0.526,-1.208 0,-0.447 -0.396,-1.253 -1.186,-2.417 -1.494,-1.79 -2.372,-2.954 -2.634,-3.491 -0.264,-0.537 -0.396,-1.208 -0.396,-2.015 0,-1.163 0.351,-2.058 1.054,-2.685 0.615,-0.805 1.581,-1.208 2.899,-1.208 2.02,0.268 3.118,0.895 3.294,1.88" />
      <path
         style="fill:#000000"
         inkscape:connector-curvature="0"
         id="path1252"
         d="m 343.542,559.5 c 0,0.448 0.044,0.94 0.132,1.477 0.088,0.448 0.22,0.762 0.396,0.94 0.263,0.359 0.702,0.537 1.317,0.537 1.757,0 2.899,-1.387 3.426,-4.163 0.439,-2.864 0.659,-4.699 0.659,-5.505 -0.088,-0.268 -0.395,-0.537 -0.923,-0.805 -0.263,-0.09 -0.702,-0.09 -1.317,0 -2.636,1.432 -3.865,3.939 -3.69,7.519 z m 8.96,-9.265 c -0.615,2.418 -1.097,4.566 -1.449,6.445 -0.351,1.881 -0.527,3.492 -0.527,4.834 0,0.358 0.044,0.672 0.132,0.94 0.175,0.359 0.527,0.359 1.054,0 0.615,-0.357 1.098,-0.939 1.45,-1.746 h 0.131 c 0.176,0.18 0.176,0.404 0,0.672 -0.351,1.254 -0.835,2.238 -1.449,2.954 -0.527,0.537 -1.054,0.806 -1.581,0.806 -0.527,0 -0.879,-0.179 -1.055,-0.537 -0.439,-0.627 -0.659,-1.119 -0.659,-1.478 -0.263,0.359 -0.614,0.717 -1.053,1.074 -0.264,0.27 -0.572,0.494 -0.922,0.672 -1.143,0.717 -2.241,0.672 -3.295,-0.134 -0.967,-1.075 -1.537,-2.104 -1.713,-3.088 -0.176,-0.985 -0.263,-1.88 -0.263,-2.686 0,-2.417 0.702,-4.565 2.108,-6.445 1.405,-1.969 2.942,-2.954 4.612,-2.954 0.614,0 1.098,0.135 1.449,0.402 0.264,0.09 0.484,0.18 0.659,0.269 l 1.45,-0.806 c 0.438,-0.179 0.746,-0.044 0.921,0.403 v 0.403" />
      <path
         style="fill:#000000"
         inkscape:connector-curvature="0"
         id="path1254"
         d="m 361.226,552.786 c -1.67,1.612 -2.592,4.521 -2.768,8.728 0.176,0.269 0.44,0.493 0.792,0.672 0.877,0.179 1.625,0.268 2.24,0.268 1.405,0 2.503,-0.582 3.294,-1.746 0.79,-1.163 1.185,-2.684 1.185,-4.565 0,-1.969 -0.263,-3.223 -0.79,-3.76 -0.439,-0.447 -0.923,-0.671 -1.45,-0.671 -0.967,0 -1.801,0.359 -2.503,1.074 z m -0.659,-10.474 c -0.352,2.775 -0.746,6.088 -1.186,9.937 0.44,-0.537 0.966,-1.074 1.581,-1.611 0.966,-0.716 1.888,-1.074 2.767,-1.074 1.055,0 1.977,0.403 2.768,1.208 1.141,1.164 1.712,3 1.712,5.506 0,2.954 -0.659,5.147 -1.976,6.579 -1.406,1.522 -2.856,2.283 -4.348,2.283 -1.23,0 -2.372,-0.806 -3.427,-2.417 l -0.13,2.148 -0.396,0.403 c -0.264,0.269 -0.659,0.224 -1.186,-0.134 -0.352,-0.179 -0.527,-0.716 -0.527,-1.611 0.351,-3.492 0.79,-7.43 1.318,-11.817 0.439,-3.849 0.659,-6.311 0.659,-7.386 l -0.396,-0.134 c 0.176,-1.432 0.571,-2.641 1.186,-3.625 0.264,-0.179 0.483,-0.179 0.659,0 0.526,0.447 0.834,1.029 0.922,1.745" />
      <path
         style="fill:#000000"
         inkscape:connector-curvature="0"
         id="path1256"
         d="m 373.901,559.5 c 0,0.448 0.044,0.94 0.132,1.477 0.088,0.448 0.22,0.762 0.396,0.94 0.263,0.359 0.702,0.537 1.317,0.537 1.757,0 2.899,-1.387 3.426,-4.163 0.439,-2.864 0.659,-4.699 0.659,-5.505 -0.088,-0.268 -0.395,-0.537 -0.923,-0.805 -0.263,-0.09 -0.702,-0.09 -1.317,0 -2.636,1.432 -3.865,3.939 -3.69,7.519 z m 8.96,-9.265 c -0.615,2.418 -1.097,4.566 -1.449,6.445 -0.351,1.881 -0.527,3.492 -0.527,4.834 0,0.358 0.044,0.672 0.132,0.94 0.175,0.359 0.527,0.359 1.054,0 0.615,-0.357 1.098,-0.939 1.45,-1.746 h 0.131 c 0.176,0.18 0.176,0.404 0,0.672 -0.351,1.254 -0.835,2.238 -1.449,2.954 -0.527,0.537 -1.055,0.806 -1.581,0.806 -0.527,0 -0.879,-0.179 -1.055,-0.537 -0.439,-0.627 -0.659,-1.119 -0.659,-1.478 -0.263,0.359 -0.614,0.717 -1.054,1.074 -0.263,0.27 -0.571,0.494 -0.921,0.672 -1.143,0.717 -2.241,0.672 -3.295,-0.134 -0.967,-1.075 -1.537,-2.104 -1.713,-3.088 -0.176,-0.985 -0.263,-1.88 -0.263,-2.686 0,-2.417 0.702,-4.565 2.108,-6.445 1.405,-1.969 2.942,-2.954 4.612,-2.954 0.614,0 1.097,0.135 1.449,0.402 0.264,0.09 0.483,0.18 0.659,0.269 l 1.449,-0.806 c 0.439,-0.179 0.747,-0.044 0.922,0.403 v 0.403" />
    </g>
    <g
       id="g2086"
       inkscape:label="sushi">
      <path
         style="display:none;fill:#b0b0b0"
         inkscape:connector-curvature="0"
         id="path266"
         d="m 252.999,464.343 c -16.764,5.693 2.528,8.221 5.421,11.822 1.97,2.451 6,6.666 9.667,9 3.667,2.333 46,27.666 48,28.666 2,1 10.358,3.782 17.025,6.448 6.667,2.668 8.223,2.268 16.223,-2.399 8,-4.666 30.301,-6.183 10.968,-18.183 -19.333,-12 -52.329,-52.604 -63.663,-50.936 -11.334,1.666 -37.375,14.063 -37.375,14.063 0,0 -2.272,0.163 -6.266,1.519"
         inkscape:label="shadow" />
      <path
         style="display:inline;fill:#ffffff"
         inkscape:connector-curvature="0"
         id="path326"
         d="m 265.373,465.831 c 0,0 -1.83,0.459 -1.467,3.731 0.364,3.269 1.998,4.178 1.998,4.178 0,0 -1.998,3.452 -0.363,5.632 1.636,2.181 4.361,1.817 4.361,1.817 0,0 0.364,3.09 2.543,4.906 2.181,1.816 3.817,1.09 3.817,1.09 0,0 0.363,3.089 2.906,4.361 2.544,1.272 4.906,0.727 4.906,0.727 0,0 -0.181,2.179 2.362,3.634 2.543,1.454 4.906,0.544 4.906,0.544 0,0 0,2.363 2.724,3.634 2.727,1.272 5.815,0.727 5.815,0.727 0,0 0,3.09 2.362,3.998 2.362,0.908 7.631,0.181 7.631,0.181 0,0 0.4,3.503 3.67,4.231 3.271,0.727 4.618,-1.732 4.618,-1.732 0,0 0.887,5.238 2.886,4.33 0.653,-0.297 6.22254,1.18091 7.23454,0.26891 2.555,-2.306 1.15646,-2.81791 3.92346,-5.82791 0,0 -23.422,-28.706 -37.049,-37.245 -22.218,-13.923 -28.484,-7.881 -30.196,-7.31 l 0.412,4.125"
         inkscape:label="rice"
         sodipodi:nodetypes="cccccccccccccsccccccccc" />
      <path
         style="display:inline;fill:#b0b0b0"
         inkscape:connector-curvature="0"
         id="path328"
         d="m 267.361,457.844 c 0,0 -1.112,2.47 -2.02,5.195 -0.908,2.726 2.744,3.07 4.016,4.705 1.272,1.636 0.909,3.089 1.998,2.908 1.09,-0.182 5.815,-2.727 7.268,-0.182 1.453,2.543 1.816,3.633 1.816,3.633 0,0 0.546,0.363 1.273,0 0.726,-0.363 5.632,-1.453 5.995,0.364 0.364,1.817 0.546,3.089 0.546,3.089 0,0 4.179,-0.908 5.45,0.726 1.273,1.635 1.453,5.088 2.726,5.452 1.272,0.363 5.633,-0.364 5.996,1.634 0.363,1.998 1.636,4.725 3.452,5.088 1.816,0.364 4.543,0.182 5.088,1.998 0.545,1.817 0.363,2.907 0.181,3.997 -0.181,1.091 0.895,-0.075 1.622,-0.256 0.726,-0.182 3.791,-0.17 4.945,1.562 1.09,1.635 1.302,2.863 1.302,2.863 0,0 4.825,1.757 5.986,3.383 3.904,5.467 -1.066,8.393 -1.066,8.393 l 3.752,2.598 3.752,-3.174 c 0,0 2.694,2.062 4.33,1.154 0.62279,0.22598 8.15296,-1.38462 8.82768,-4.67244 2.47092,-1.0547 4.57452,0.52968 5.82027,-1.92916 2.17739,-0.28281 4.72728,-0.56868 5.86639,-2.14926 2.88549,-0.9475 3.24302,-3.02802 2.65149,-3.85946 -1.30949,-1.84062 -11.70283,2.55532 -11.70283,2.55532 0,0 -44.444,-29.906 -51.53,-33.539 -7.086,-3.635 -28.341,-11.536 -28.341,-11.536"
         inkscape:label="mackerel_shadow"
         sodipodi:nodetypes="cccccccccccsccccccccccccccsccc" />
      <g
         id="g874"
         inkscape:label="rice_outline"
         style="display:inline">
        <path
           d="m 265.045,464.99 c -0.559,0.575 -1.228,0.965 -1.671,1.63 -0.557,0.834 -0.725,2.052 -0.693,3.023 0.072,2.241 1.034,4.078 3.236,4.654 0.854,0.224 1.707,-0.966 0.924,-1.586 -0.269,-0.214 -0.95,-0.549 -1.123,-0.831 -0.496,-0.81 -0.692,-1.74 -0.733,-2.679 -0.029,-0.664 -0.218,-1.56 0.334,-2.031 0.417,-0.355 0.559,-0.855 0.88,-1.289 0.504,-0.683 -0.584,-1.474 -1.154,-0.891"
           id="path1002"
           inkscape:connector-curvature="0"
           style="fill:#000000" />
        <path
           d="m 265.543,473.361 c -2.111,1.962 -2.119,4.955 -0.614,7.317 1.332,2.092 4.278,2.95 5.58,0.384 0.41,-0.811 -0.606,-1.668 -1.282,-0.989 -1.092,1.093 -2.066,0.181 -2.721,-0.897 -0.849,-1.396 -0.881,-3.339 0.291,-4.561 0.794,-0.829 -0.417,-2.032 -1.254,-1.254"
           id="path1004"
           inkscape:connector-curvature="0"
           style="fill:#000000" />
        <path
           d="m 269.592,480.424 c -0.445,2.39 0.293,4.545 1.938,6.346 1.517,1.661 3.777,2.124 5.327,0.328 0.43,-0.498 -0.099,-1.12 -0.672,-0.871 -2.908,1.263 -5.188,-3.242 -4.928,-5.577 0.105,-0.951 -1.491,-1.16 -1.665,-0.226"
           id="path1006"
           inkscape:connector-curvature="0"
           style="fill:#000000" />
        <path
           d="m 275.727,486.705 c -0.368,4.061 4.279,7.682 8.209,6.189 0.83,-0.316 0.663,-1.408 -0.204,-1.504 -1.613,-0.179 -3.012,-0.082 -4.479,-0.928 -1.335,-0.77 -2.051,-2.244 -2.05,-3.757 0.001,-0.966 -1.392,-0.932 -1.476,0"
           id="path1008"
           inkscape:connector-curvature="0"
           style="fill:#000000" />
        <path
           d="m 283.645,490.753 c -0.875,4.631 3.104,8.167 7.606,6.557 1.138,-0.406 0.685,-2.178 -0.504,-1.83 -3.224,0.942 -5.979,-1.095 -5.69,-4.535 0.068,-0.807 -1.262,-0.986 -1.412,-0.192"
           id="path1010"
           inkscape:connector-curvature="0"
           style="fill:#000000" />
        <path
           d="m 290.912,494.991 c -0.402,2.739 0.277,4.751 2.703,6.143 1.718,0.986 4.864,1.683 6.373,0.011 0.416,-0.461 0.141,-1.228 -0.511,-1.234 -1.561,-0.013 -2.779,0.335 -4.332,-0.196 -0.755,-0.258 -1.434,-0.75 -2.013,-1.284 -0.778,-0.72 -0.686,-2.472 -0.835,-3.44 -0.105,-0.686 -1.284,-0.69 -1.385,0"
           id="path1012"
           inkscape:connector-curvature="0"
           style="fill:#000000" />
        <path
           d="m 299.228,500.067 c -0.602,2.588 0.439,4.529 2.84,5.602 2.378,1.062 5.899,1.566 8.114,-0.095 0.562,-0.421 0.489,-1.614 -0.411,-1.514 -3.129,0.345 -9.31,0.969 -9.016,-3.786 0.054,-0.88 -1.33,-1.056 -1.527,-0.207"
           id="path1014"
           inkscape:connector-curvature="0"
           style="fill:#000000" />
        <path
           d="m 309.483,504.267 c -0.16,2.561 1.047,5.008 3.395,6.158 2.235,1.096 4.64,0.238 5.815,-1.879 0.596,-1.074 -0.994,-1.997 -1.64,-0.959 -0.767,1.235 -2.123,1.576 -3.424,0.997 -1.684,-0.75 -2.35,-2.594 -2.357,-4.317 -0.004,-1.163 -1.717,-1.142 -1.789,0"
           id="path1016"
           inkscape:connector-curvature="0"
           style="fill:#000000" />
        <path
           d="m 322.807,512.508 c 0.027,0.147 0.055,0.294 0.082,0.441 0.078,0.418 0.605,0.699 1,0.567 0.704,-0.236 -0.93,-0.778 -0.275,0.1 0.264,0.353 0.587,0.674 0.958,0.916 0.842,0.55 1.692,0.826 2.686,0.945 1.919,0.23 4.094,-1.065 4.841,-2.808 0.382,-0.892 -0.588,-1.743 -1.368,-1.055 -1.454,1.282 -2.833,2.438 -4.841,1.478 -1.059,-0.507 -1.474,-1.602 -2.627,-1.061 0.328,0.043 0.656,0.084 0.984,0.127 -0.115,-0.096 -0.229,-0.193 -0.344,-0.289 -0.513,-0.431 -1.22,-0.023 -1.096,0.639"
           id="path1018"
           inkscape:connector-curvature="0"
           style="fill:#000000" />
        <path
           d="m 265.598,464.623 c -0.193,-0.132 -0.744,-0.563 -0.522,-0.787 0.216,-0.22 0.438,-0.433 0.639,-0.666 0.839,-0.968 -0.447,-2.273 -1.408,-1.408 -0.554,0.498 -1.072,1.048 -1.235,1.801 -0.263,1.215 0.62,2.113 1.576,2.685 1.054,0.632 1.941,-0.948 0.95,-1.625"
           id="path1020"
           inkscape:connector-curvature="0"
           style="fill:#000000" />
        <path
           d="m 330.807,512.465 c 1.711,2.094 4.774,1.332 6.672,-0.05 0.844,-0.614 0.365,-2.272 -0.77,-1.827 -0.659,0.258 -1.268,0.668 -1.883,1.013 -0.118,0.066 -0.236,0.132 -0.353,0.198 -0.121,0.068 0.462,-0.075 -0.317,-0.012 -0.739,0.061 -1.564,-0.02 -2.084,-0.588 -0.792,-0.864 -1.981,0.39 -1.265,1.266"
           id="path1022"
           inkscape:connector-curvature="0"
           style="fill:#000000" />
        <path
           d="m 316.823,508.356 c 0.375,3.468 3.471,5.152 6.774,4.622 1.022,-0.164 0.757,-1.787 -0.24,-1.773 -2.319,0.035 -4.639,-0.349 -5.038,-3.051 -0.125,-0.847 -1.588,-0.65 -1.496,0.202"
           id="path1024"
           inkscape:connector-curvature="0"
           style="fill:#000000" />
        <path
           style="fill:#000000"
           inkscape:connector-curvature="0"
           id="path1084"
           d="m 336.31,511.951 c 3.389,1.929 9.215,1.098 9.163,-3.687 -0.013,-1.133 -1.757,-1.134 -1.758,0 -0.005,3.3 -4.359,3.436 -6.605,2.318 -0.908,-0.452 -1.696,0.86 -0.8,1.369" />
        <path
           style="fill:#000000"
           inkscape:connector-curvature="0"
           id="path1086"
           d="m 344.241,508.492 c 1.109,0.543 2.61,0.905 3.846,0.669 1.411,-0.267 2.371,-1.259 3.184,-2.381 0.594,-0.822 -0.748,-1.565 -1.343,-0.786 -0.657,0.862 -1.39,1.615 -2.528,1.663 -0.954,0.04 -1.867,-0.375 -2.806,-0.467 -0.689,-0.069 -0.962,1.005 -0.353,1.302" />
        <path
           style="fill:#000000"
           inkscape:connector-curvature="0"
           id="path1088"
           d="m 350.411,507.073 c 2.424,0.646 6.113,0.169 6.847,-2.758 0.165,-0.658 -0.638,-1.132 -1.13,-0.658 -0.783,0.757 -1.218,1.587 -2.31,1.978 -0.949,0.34 -2.057,0.225 -3.029,0.066 -0.886,-0.143 -1.282,1.13 -0.378,1.372" />
        <path
           style="fill:#000000"
           inkscape:connector-curvature="0"
           id="path1090"
           d="m 356.056,504.768 c 0.597,0.153 1.215,0.002 1.778,-0.214 0.566,-0.216 1.727,-0.614 2.023,-1.182 0.735,-1.404 0.882,-3.192 -0.413,-4.328 -0.667,-0.584 -1.887,0.204 -1.3,1.004 0.71,0.969 0.725,1.625 0.393,2.768 0.11,-0.144 0.221,-0.287 0.332,-0.432 -0.59,0.389 -1.705,1.245 -2.464,1.118 -0.818,-0.137 -1.183,1.052 -0.349,1.266" />
      </g>
      <g
         id="g904"
         inkscape:label="mackerel"
         style="display:inline">
        <path
           d="m 259.294,446.802 c 0,0 1.603,-0.993 2.562,-2.445 1.221,-1.849 5.708,-3.029 10.134,-4.077 5.126,-1.215 11.996,-3.843 11.996,-3.843 l 13.309,-0.998 10.886,4.88 c 0,0 9.384,6.005 13.138,7.131 3.754,1.127 19.521,5.631 19.521,5.631 0,0 24.024,4.504 28.529,10.511 4.505,6.007 3.755,8.634 3.379,15.016 -0.376,6.382 -1.878,11.261 -3.379,12.763 -1.501,1.502 -9.009,7.133 -9.009,7.133 l -9.76,4.504 -77.705,-48.05 1.126,-10.51 -14.727,2.354"
           id="path702"
           inkscape:connector-curvature="0"
           style="display:inline;fill:#fff7e7" />
        <path
           d="m 273.97,439.698 c 0,0 13.94,10.755 24.451,9.629 10.511,-1.126 16.517,-3.753 16.517,-3.753 l 0.75,0.75 c 0,0 -8.633,4.881 -6.756,10.136 1.877,5.255 14.265,21.772 21.397,27.779 7.132,6.006 20.647,15.766 20.647,15.766 0,0 -10.887,1.877 -40.167,-23.649 -29.281,-25.527 -48.02,-32.699 -48.02,-32.699 l 4.31,-1.63 6.871,-2.329"
           id="path704"
           inkscape:connector-curvature="0"
           style="fill:#edc59b" />
        <path
           d="m 266.05,442.376 c -10.228,3.834 -9.556,6.855 -12.48,8.903 -4.983,3.489 -10.695,1.909 -10.695,1.909 0,0 -1.798,-0.107 -0.303,1.388 1.495,1.496 5.484,4.984 9.47,5.981 3.986,0.997 17.443,2.492 17.443,2.492 0,0 5.98,0.997 8.472,2.99 2.492,1.993 13.956,10.964 16.447,12.459 2.492,1.495 19.438,13.456 18.939,13.456 -0.499,0 13.954,7.975 13.954,7.975 0,0 9.967,3.488 14.951,3.488 4.984,0 8.352,-0.409 8.352,-0.409 l 4.108,-1.086 -12.46,-4.983 c 0,0 -13.955,-7.975 -17.443,-11.463 -3.489,-3.488 -10.465,-16.446 -11.462,-15.948 -0.997,0.498 -8.972,-11.463 -13.955,-14.454 -4.984,-2.99 -11.463,-6.478 -11.463,-6.478 l -9.968,-2.99 c 0,0 -7.208,-2.723 -8.971,-4.486 -0.257,-0.257 0.273,0.292 -0.723,0.79 -0.996,0.498 -2.213,0.466 -2.213,0.466 z"
           id="path706"
           inkscape:connector-curvature="0"
           style="fill:url(#Gradient_35)" />
        <path
           d="m 296.129,454.99 c 0,0 0,10.697 0,15.813 0,5.116 0.466,8.838 0.466,8.838 l 7.441,4.65 c 0,0 -3.721,-9.301 -4.185,-17.209 -0.366,-6.213 1.478,-5.467 -0.931,-12.092 l -3.256,-2.791 0.465,2.791"
           id="path708"
           inkscape:connector-curvature="0"
           style="fill:#666b70" />
        <path
           d="m 310.083,466.152 2.325,3.721 c 0,0 0,5.116 2.791,12.558 2.791,7.442 9.302,15.814 9.302,15.814 l -9.302,-6.976 c 0,0 -3.72,-7.443 -4.651,-13.954 -0.931,-6.512 -2.325,-13.489 -2.325,-13.489 l 1.86,2.326"
           id="path710"
           inkscape:connector-curvature="0"
           style="fill:#666b70" />
        <path
           d="m 329.617,490.338 c 0,0 1.862,4.651 4.187,7.442 2.325,2.791 3.72,5.582 3.72,5.582 l 5.582,-0.465 -7.442,-8.838 -6.047,-3.721"
           id="path712"
           inkscape:connector-curvature="0"
           style="fill:#666b70" />
        <path
           d="m 273.339,462.897 c 0,0 6.511,-2.327 10.697,-5.117 4.187,-2.79 6.977,-6.977 6.977,-6.977 l -2.325,-0.465 c 0,0 -2.792,3.255 -7.443,5.581 -4.65,2.326 -9.302,4.652 -9.302,4.652 l -5.116,2.326 h 6.512"
           id="path714"
           inkscape:connector-curvature="0"
           style="fill:#666b70" />
        <path
           d="m 247.757,457.78 c 0,0 9.767,-4.65 14.419,-6.511 4.651,-1.862 12.093,-6.047 12.093,-6.047 l 3.688,0.384 c 0,0 -11.596,5.662 -13.921,7.057 -2.325,1.396 -11.163,5.582 -11.163,5.582 l -2.325,1.861 c 0,0 -0.466,-1.862 -2.791,-2.326"
           id="path716"
           inkscape:connector-curvature="0"
           style="fill:#666b70" />
        <path
           d="m 322.176,448.013 c 0,0 -0.931,13.953 6.976,24.186 7.908,10.232 37.21,22.326 37.21,22.326 l 1.395,-1.396 c 0,0 -23.486,-8.137 -32.558,-17.21 -14.418,-14.419 -12.201,-23.386 -13.023,-27.906"
           id="path718"
           inkscape:connector-curvature="0"
           style="fill:#edc59b" />
        <path
           d="m 282.176,437.315 c 0,0 10.697,6.976 18.604,6.976 7.908,0 10.233,-1.394 10.233,-1.394 0,0 -10.697,0.466 -14.418,0 -3.722,-0.466 -14.419,-5.582 -14.419,-5.582"
           id="path720"
           inkscape:connector-curvature="0"
           style="fill:#edc59b" />
        <path
           d="m 293.804,457.315 c 0,0 11.162,8.837 17.209,18.139 6.047,9.303 19.069,19.071 23.256,21.396 4.186,2.325 9.302,2.791 9.302,2.791 0,0 -5.117,2.324 -17.675,-6.978 -12.557,-9.301 -18.604,-18.604 -18.604,-18.604 0,0 -5.117,-7.442 -7.907,-10.233 -2.79,-2.791 -7.906,-7.907 -7.906,-7.907 l 2.325,1.396"
           id="path722"
           inkscape:connector-curvature="0"
           style="fill:#ffffff" />
        <path
           d="m 248.604,458.809 c 3.809,1.838 7.553,3.015 11.755,3.526 4.228,0.514 8.844,1.956 13.072,1.959 2.566,0.003 7.016,4.511 8.738,5.924 0.827,0.679 1.521,1.509 2.385,2.137 1.591,1.155 3.179,2.314 4.782,3.451 13.045,9.249 26.413,19.465 41.036,26.093 12.554,5.689 23.961,2.284 34.837,-4.966 6.826,-4.549 7.705,-10.443 8.768,-18.094 1.026,-7.386 -0.24,-14.217 -6.538,-18.794 -4.852,-3.526 -11.778,-4.543 -17.434,-6.02 -7.088,-1.853 -14.263,-3.363 -21.346,-5.225 -5.777,-1.518 -10.814,-3.587 -15.892,-6.761 -4.737,-2.961 -10.014,-7.062 -15.851,-7.36 -11.005,-0.561 -22.916,4.038 -33.17,7.662 -6.678,2.36 -12.976,14.595 -21.174,9.697 -0.772,-0.462 -1.844,0.493 -1.285,1.285 1.781,2.525 4.565,4.207 7.224,5.644 1.068,0.578 2.019,-1.048 0.95,-1.625 -2.362,-1.276 -4.963,-2.717 -6.552,-4.967 -0.429,0.428 -0.857,0.857 -1.285,1.284 7.378,4.405 15.37,-4.162 20.62,-8.1 1.917,-1.438 3.006,-1.829 5.385,-2.603 6.312,-2.049 12.773,-4.049 19.24,-5.543 8.63,-1.994 14.892,-0.161 22.19,4.425 4.904,3.082 9.606,5.881 15.118,7.704 5.935,1.964 12.082,3.341 18.15,4.82 7.559,1.84 16.086,3.222 22.977,6.943 9.542,5.152 6.635,16.52 5.213,25.112 -1.408,8.496 -12.674,12.686 -19.8,15.328 -13.169,4.886 -27.805,-5.715 -38.316,-12.422 -9.063,-5.784 -17.943,-11.871 -26.692,-18.118 -1.752,-1.252 -3.251,-2.855 -4.996,-4.142 -3.049,-2.25 -5.257,-3.717 -8.754,-4.533 -7.704,-1.8 -15.314,-1.535 -22.59,-5.03 -0.876,-0.421 -1.646,0.884 -0.765,1.309"
           id="path1080"
           inkscape:connector-curvature="0"
           style="display:inline;fill:#000000" />
        <path
           d="m 268.873,441.883 c 3.578,4.386 10.377,4.963 15.429,6.885 10.018,3.81 18.475,8.865 24.991,17.484 6.043,7.993 11.228,16.933 19.037,23.395 7.012,5.804 17.133,8.7 25.579,11.887 0.859,0.325 1.227,-1.05 0.378,-1.371 -8.885,-3.352 -19.449,-6.987 -26.593,-13.349 -7.465,-6.648 -12.511,-15.782 -18.593,-23.618 -5.297,-6.825 -12.448,-11.069 -20.33,-14.387 -2.825,-1.19 -5.684,-2.289 -8.598,-3.24 -3.588,-1.172 -7.636,-1.692 -10.19,-4.795 -0.645,-0.784 -1.744,0.333 -1.11,1.109"
           id="path1082"
           inkscape:connector-curvature="0"
           style="display:inline;fill:#000000" />
      </g>
    </g>
  </g>
</svg>
