<?xml version="1.0" encoding="UTF-8" standalone="no"?>
<svg
   xmlns:dc="http://purl.org/dc/elements/1.1/"
   xmlns:cc="http://creativecommons.org/ns#"
   xmlns:rdf="http://www.w3.org/1999/02/22-rdf-syntax-ns#"
   xmlns:svg="http://www.w3.org/2000/svg"
   xmlns="http://www.w3.org/2000/svg"
   xmlns:sodipodi="http://sodipodi.sourceforge.net/DTD/sodipodi-0.dtd"
   xmlns:inkscape="http://www.inkscape.org/namespaces/inkscape"
   id="svg4136"
   height="256"
   viewBox="0 0 256.00232 256"
   width="256.00027"
   version="1.1"
   sodipodi:docname="tomahawk.svg"
   inkscape:version="0.92.4 (5da689c313, 2019-01-14)">
  <metadata
     id="metadata8">
    <rdf:RDF>
      <cc:Work
         rdf:about="">
        <dc:format>image/svg+xml</dc:format>
        <dc:type
           rdf:resource="http://purl.org/dc/dcmitype/StillImage" />
        <dc:title></dc:title>
      </cc:Work>
    </rdf:RDF>
  </metadata>
  <defs
     id="defs6" />
  <sodipodi:namedview
     pagecolor="#ffffff"
     bordercolor="#666666"
     borderopacity="1"
     objecttolerance="10"
     gridtolerance="10"
     guidetolerance="10"
     inkscape:pageopacity="0"
     inkscape:pageshadow="2"
     inkscape:window-width="1920"
     inkscape:window-height="1025"
     id="namedview4"
     showgrid="false"
     inkscape:zoom="2.2250293"
     inkscape:cx="131.31715"
     inkscape:cy="110.03401"
     inkscape:window-x="-8"
     inkscape:window-y="-8"
     inkscape:window-maximized="1"
     inkscape:current-layer="svg4136"
     fit-margin-top="0"
     fit-margin-left="0"
     fit-margin-right="0"
     fit-margin-bottom="0" />
  <path
     id="path4146"
     d="m 6.1628506,254.29113 c 1.7713337,0.84167 2.3344433,0.74558 3.8494394,-0.65689 1.636196,-1.51467 1.966185,-1.52281 4.230593,-0.10452 2.925105,1.83213 3.957426,1.28554 7.676494,-4.06404 1.390536,-2.00023 3.113699,-4.18717 3.829429,-4.85996 0.715545,-0.6727 4.145942,-4.89891 7.623376,-9.39172 3.477404,-4.49285 8.268746,-10.64137 10.647332,-13.66334 2.378862,-3.0222 5.746757,-7.33376 7.484681,-9.58168 1.737634,-2.2477 3.631179,-4.59113 4.208172,-5.20787 0.576756,-0.61653 2.733158,-3.3424 4.791852,-6.05733 2.05884,-2.71507 5.107165,-6.58436 6.773849,-8.59834 1.666851,-2.01408 5.763346,-7.2214 9.103278,-11.57188 3.339956,-4.35044 7.258225,-9.26015 8.707954,-10.91083 1.449596,-1.65061 5.180083,-6.27738 8.289931,-10.28169 6.248852,-8.04611 19.332529,-24.51831 23.320759,-29.36001 2.44898,-2.97331 4.9549,-6.1812 18.59824,-23.80813 3.35323,-4.33226 6.7594,-8.565038 7.56995,-9.406605 0.81031,-0.841441 2.49081,-2.866841 3.7345,-4.500948 1.24367,-1.634108 4.07608,-5.353097 6.29451,-8.264633 2.21836,-2.911474 4.50452,-5.730424 5.08001,-6.263918 0.57571,-0.533662 4.25177,-5.136834 8.16929,-10.229385 5.98914,-7.785791 7.57968,-9.486406 9.99518,-10.687883 l 2.87282,-1.428992 0.4611,5.912472 c 0.54057,6.933336 1.54279,7.981734 5.12775,5.364436 1.24374,-0.908027 2.42497,-1.426859 2.62492,-1.152972 0.4721,0.646635 4.67777,12.495579 7.32998,20.650762 1.1416,3.510486 3.09329,8.996365 4.33709,12.190966 1.24379,3.19457 2.2511,6.21057 2.23861,6.70251 -0.0126,0.49181 1.46896,4.90412 3.29228,9.80531 3.70153,9.94992 3.21439,9.54005 9.00568,7.57738 1.92479,-0.64412 4.09277,-1.25967 4.80917,-1.35738 9.61868,-1.31155 27.39565,-17.37938 33.58558,-30.35651 5.36355,-11.244446 5.5172,-15.159438 0.70833,-18.070682 -1.30141,-0.787877 -2.87834,-1.894661 -3.5042,-2.459459 -0.62591,-0.564827 -4.79207,-3.57024 -9.25827,-6.678929 -4.4662,-3.1087 -8.54076,-6.057364 -9.05484,-6.553013 -0.51398,-0.495478 -6.09115,-4.581027 -12.39367,-9.078889 -6.30253,-4.497851 -11.59614,-8.684073 -11.76329,-9.302154 -0.1673,-0.618299 -1.84055,-2.13547 -3.71833,-3.371545 -4.29035,-2.824029 -4.21861,-2.70463 -2.96873,-4.942727 2.82569,-5.06094 2.0243,-7.081866 -5.17956,-13.057392 -5.99765,-4.975177 -7.37222,-5.20091 -11.11736,-1.826314 -4.32416,3.896883 -6.97773,4.339815 -9.04412,1.509447 -1.25275,-1.715928 -2.07696,-2.183563 -3.70341,-2.1012 l -2.09201,0.105985 0.0872,-4.054043 c 0.13743,-6.394358 -7.26377,-11.59863415 -11.7927,-8.2921743 -0.61158,0.4465032 -2.02236,0.4690394 -3.135,0.050051 -1.11269,-0.418967 -3.03494,-0.6053647 -4.27164,-0.4141843 -1.23672,0.1911819 -2.45814,0.060613 -2.71421,-0.2901414 -1.74418,-2.38902725 -8.29584,1.5006538 -9.85781,5.8525752 -0.83668,2.3310628 -0.7391,3.0753328 0.65622,5.0056848 0.90142,1.247122 1.66916,2.72047 1.70603,3.274091 0.0368,0.553655 1.78577,3.658077 3.88658,6.898874 l 3.81948,5.892021 3.05155,0.210534 c 1.67837,0.115827 3.84654,0.04683 4.81816,-0.153285 1.24387,-0.256198 1.8331,-0.0043 1.99129,0.851599 0.12362,0.668449 1.56943,3.075464 3.21298,5.348847 3.67111,5.0779 -0.99037,14.246348 -14.10635,27.74619 -0.79269,0.815882 -4.20614,5.067945 -7.5858,9.449277 -3.37967,4.38133 -6.56328,8.271536 -7.07465,8.644883 -0.51146,0.373397 -3.86233,4.36849 -7.44636,8.877998 -13.56558,17.068655 -20.35596,25.436385 -22.00777,27.120055 -0.93918,0.95731 -4.46479,5.31754 -7.834412,9.68913 -3.369628,4.37159 -6.557057,8.26268 -7.082938,8.64661 -0.525713,0.3838 -3.872132,4.46122 -7.436236,9.06067 -3.564092,4.59948 -7.090744,8.937 -7.836467,9.63848 -0.745772,0.70152 -4.295267,5.02591 -7.887446,9.60954 -3.592599,4.58392 -7.208315,9.03785 -8.03522,9.89789 -0.827036,0.86013 -3.953731,4.70013 -6.948761,8.53367 -2.994722,3.83334 -6.121526,7.66536 -6.948975,8.51595 -0.827163,0.85038 -2.530103,2.84507 -3.784365,4.43265 -7.981226,10.10238 -11.544449,14.48464 -12.47451,15.34261 -0.582911,0.5377 -3.604233,4.2556 -6.713911,8.26189 -3.109761,4.00635 -6.444226,8.09351 -7.410028,9.08265 -1.6662308,1.70656 -3.2440369,3.64057 -9.0598964,11.10489 L -6.2503786e-6,241.97202 2.3292685,244.53276 c 1.9571628,2.15166 2.2023099,2.73388 1.5345252,3.64431 -0.4371373,0.59599 -0.6160885,1.95137 -0.3976213,3.012 0.469538,2.2799 0.1465913,1.90588 2.6874242,3.11321 z m -0.8147011,-4.69402 c 0.723572,-1.11958 2.4196129,-0.72431 3.5782559,0.8339 0.8565748,1.15203 -1.0084382,2.87486 -2.265394,2.09271 -1.5438282,-0.9607 -1.969762,-1.91021 -1.3129072,-2.92658 z M 2.804185,241.72629 c 0.1620957,-0.60438 1.0100056,-1.899 1.8842001,-2.87692 0.8742272,-0.97795 3.0933077,-3.82839 4.9314131,-6.33432 4.3249168,-5.89636 5.1826648,-6.5088 6.5304748,-4.66268 1.093552,1.49786 0.830921,2.36193 -1.318116,4.33703 -3.839903,3.52903 -9.2905635,11.18222 -8.6192137,12.10179 1.8579958,2.54493 3.8549987,1.65186 7.6295747,-3.41217 1.942662,-2.60628 4.46661,-5.63789 5.608845,-6.73691 l 2.076629,-1.99815 2.769719,2.19213 c 1.52334,1.20569 3.201776,2.52555 3.729892,2.93313 1.010629,0.78 -0.798319,3.94078 -3.895187,6.80607 -0.83568,0.77319 -2.780253,3.06882 -4.321413,5.10148 l -2.801798,3.69549 -3.842304,-2.19147 c -3.144983,-1.79375 -9.0638557,-6.09347 -10.3572181,-7.52392 -0.1649713,-0.18245 -0.1673146,-0.82618 -0.00524,-1.43059 z m 14.14871,-17.88319 c 1.798962,-2.2322 2.860508,-2.69427 4.018654,-1.74924 1.387903,1.13246 -1.433109,5.36285 -3.131541,4.69597 -1.665752,-0.65415 -1.956533,-1.61988 -0.887267,-2.94668 z m 8.359842,3.03651 c 0.540612,-0.41648 1.156841,-0.58797 1.369436,-0.38119 0.212553,0.20682 0.862109,0.90094 1.443335,1.54248 0.581298,0.64155 1.962832,1.71882 3.07019,2.39387 1.107351,0.67508 1.978673,1.44972 1.936292,1.72136 -0.07708,0.49407 -2.846291,4.23463 -2.99347,4.04356 -0.0435,-0.0552 -1.840358,-1.18395 -3.994438,-2.50732 l -3.91648,-2.40609 1.051118,-1.82478 c 0.57812,-1.00362 1.493404,-2.16551 2.034046,-2.58195 z m -3.741486,-9.08662 c 1.448691,-1.74008 2.526522,-1.89322 3.541352,-0.50319 0.78777,1.07902 -0.894513,3.85311 -2.407424,3.96992 -1.617359,0.12491 -2.32441,-2.03681 -1.133928,-3.46673 z m 5.620335,6.45325 c 1.841093,-2.84867 3.097863,-2.92276 6.498749,-0.38315 3.737336,2.79107 4.043085,3.56243 2.002484,5.05223 -1.169696,0.85396 -2.077185,0.67856 -4.989606,-0.96441 -4.313369,-2.4333 -4.325183,-2.44581 -3.511492,-3.70484 z m -1.500635,-11.78037 c 1.47982,-2.27428 2.828918,-2.52905 4.108882,-0.77585 0.955651,1.30896 0.836531,1.61073 -1.231842,3.12078 -2.822872,2.06092 -4.731545,0.50522 -2.876997,-2.34496 z m 6.80399,5.15582 c 1.700028,-1.92287 2.445986,-1.81148 5.830205,0.8707 1.208553,0.95782 2.575625,1.98596 3.037905,2.28475 1.833741,1.18514 -1.504735,4.322 -3.714284,3.49 -5.703089,-2.14748 -7.304781,-4.21273 -5.15373,-6.64526 z m -1.917643,-10.47662 c 0.822667,-1.2643 1.358775,-1.59445 2.10964,-1.29908 2.291192,0.90136 2.127644,2.64912 -0.422098,4.51063 -1.725947,1.26008 -3.00868,-1.18111 -1.687531,-3.21154 z m 6.444842,5.35134 c 1.453667,-1.74607 1.939418,-1.66826 5.854283,0.93785 3.251269,2.16437 3.462153,2.87108 1.540236,5.16084 -1.078496,1.28492 -1.48784,1.2706 -3.646782,-0.12756 -4.116865,-2.66613 -5.1409,-4.29771 -3.747723,-5.97108 z m -1.767188,-11.20397 c 2.292536,-3.0215 2.297916,-3.02371 3.480048,-1.4045 0.824437,1.12925 0.697952,1.81659 -0.645863,3.5101 -3.015105,3.79977 -5.764651,1.75675 -2.834142,-2.10562 z m 5.786689,6.26255 c 2.704287,-4.10794 2.477718,-4.07263 6.587353,-1.02666 l 3.834471,2.84213 -1.974916,2.50727 c -2.286751,2.90317 -2.082384,2.876 -5.294953,0.70435 -3.579673,-2.41979 -4.208471,-3.42264 -3.15177,-5.02698 z M 39.47675,195.41686 c 1.967231,-3.02338 3.24328,-3.49498 4.320256,-1.59667 1.553833,2.73873 -3.153293,6.15503 -5.04866,3.66418 -0.18285,-0.24045 0.144764,-1.17074 0.728234,-2.06739 z m 7.01399,4.61307 c 2.013109,-2.53693 2.134467,-2.52777 6.286653,0.47642 3.54576,2.56538 3.721611,3.25594 1.457241,5.7222 -1.429028,1.55635 -1.634184,1.53328 -4.927624,-0.55442 -4.647406,-2.94591 -4.76709,-3.18571 -2.81627,-5.6442 z m -1.013264,-11.42086 c 1.985133,-2.39745 3.338861,-2.44272 3.963826,-0.13259 0.380204,1.40529 -2.659961,4.5819 -3.913246,4.08903 -1.914245,-0.7525 -1.926169,-1.69112 -0.05039,-3.95654 z m 6.349386,5.69038 c 1.842946,-2.57387 1.407419,-2.58506 5.719735,0.14708 3.778911,2.39421 3.978288,3.01843 1.741826,5.4541 -1.498872,1.63244 -2.820813,1.26379 -7.452366,-2.07844 -1.588067,-1.14597 -1.588526,-1.31729 -0.0093,-3.52289 z m -1.129069,-12.21554 c 2.697821,-3.24558 2.551759,-3.18471 3.738866,-1.55871 0.97885,1.34076 -0.513727,4.34268 -3.110902,6.25659 -2.124065,1.56535 -2.638041,-2.27968 -0.627925,-4.69791 z m 5.59755,6.31805 c 2.05432,-3.1572 2.918086,-3.26054 6.713191,-0.80298 1.977776,1.2808 3.564808,2.43292 3.526755,2.56034 -0.150502,0.50393 -3.032058,4.41044 -3.511399,4.76039 -0.60938,0.4449 -5.893784,-2.49717 -7.00693,-3.90101 -0.451088,-0.56896 -0.3332,-1.67644 0.278645,-2.61673 z m -0.001,-13.44632 c 2.991809,-3.92015 7.065597,-3.38323 4.479874,0.59063 -2.630194,4.04228 -4.411371,5.21321 -5.55253,3.65013 -0.900889,-1.23396 -0.741642,-1.86354 1.07247,-4.24059 z m 5.528164,6.36998 c 1.016741,-1.08651 2.30434,-2.45858 2.86134,-3.04909 0.839241,-0.8897 1.480428,-0.70359 3.742826,1.08654 1.501556,1.18809 3.143676,2.47852 3.649155,2.86763 0.891034,0.68593 -1.229186,4.34554 -3.462079,5.97571 -0.690558,0.50417 -6.396241,-2.63729 -8.317865,-4.57976 -0.17706,-0.179 0.509929,-1.21443 1.526656,-2.30099 z m 5.090093,-19.172 c 3.222529,-4.18046 6.319591,-7.95881 6.882518,-8.39641 0.562809,-0.43751 3.83247,-4.42332 7.265839,-8.85725 3.433378,-4.43395 7.01719,-8.81409 7.963527,-9.73332 0.946547,-0.91937 3.751354,-4.29948 6.233201,-7.51152 2.481662,-3.21197 5.686795,-7.20619 7.122075,-8.8758 1.43557,-1.66981 5.58222,-6.7612 9.21506,-11.31436 3.63287,-4.55316 7.29465,-8.929186 8.13716,-9.724387 0.84257,-0.795253 4.22656,-5.005996 7.52017,-9.357282 3.2936,-4.351281 6.43244,-8.240177 6.9752,-8.641887 0.5431,-0.401587 3.8219,-4.38732 7.2866,-8.856663 3.46474,-4.469302 7.0792,-8.864053 8.03187,-9.765872 0.9528,-0.901912 1.9028,-2.058467 2.11102,-2.570056 0.20828,-0.511623 0.74345,-1.251434 1.1893,-1.644023 0.44588,-0.392571 2.43686,-2.770649 4.42459,-5.284739 4.09463,-5.178901 4.84285,-5.402745 7.91447,-2.368459 0.98339,0.971398 3.19337,2.893687 4.911,4.271792 1.71766,1.378145 3.09072,2.576717 3.0512,2.663453 -0.0395,0.08674 -1.03594,1.271423 -2.21417,2.632579 -1.17822,1.361176 -4.49346,5.624591 -7.36695,9.474068 -2.87356,3.849524 -5.87085,7.671096 -6.66016,8.492123 -0.78963,0.821236 -4.11693,5.039604 -7.39367,9.373946 -3.27676,4.334345 -6.63001,8.583058 -7.45126,9.441258 -0.82137,0.858314 -4.21075,5.140819 -7.53207,9.516789 -3.32132,4.376 -6.67978,8.56359 -7.46356,9.30607 -0.78387,0.74252 -3.27021,3.87959 -5.52532,6.9714 -2.25503,3.09173 -5.1466,6.84101 -6.42545,8.33156 -2.69738,3.14387 -13.77676,17.09262 -24.191396,30.45687 -3.987165,5.11639 -7.866703,9.8877 -8.620964,10.60272 -0.75426,0.71503 -2.787611,3.18134 -4.518524,5.48062 -1.730891,2.29933 -3.507861,4.20837 -3.94873,4.24233 -0.844342,0.0653 -7.002488,-4.0923 -6.86977,-4.63768 0.171829,-0.70817 6.078576,-8.39771 10.05673,-13.09224 2.333529,-2.7537 6.926866,-8.36176 10.207652,-12.4626 3.280697,-4.10077 6.528773,-8.036 7.217668,-8.74484 0.689084,-0.70894 3.697637,-4.43136 6.685624,-8.27192 2.98803,-3.8406 6.23117,-7.78234 7.20709,-8.75936 0.97598,-0.97709 3.99499,-4.77066 6.70832,-8.42964 4.02364,-6.47522 8.56509,-10.04406 12.71778,-15.43321 1.85445,-2.425661 5.05039,-6.438458 7.10201,-8.917172 2.05165,-2.478747 6.92316,-8.498259 10.82555,-13.376591 3.90241,-4.878344 7.57618,-9.312783 8.1633,-9.85387 0.58729,-0.541195 3.41514,-3.989292 6.2843,-7.662553 2.86895,-3.673122 5.437,-6.950563 5.70636,-7.282923 0.27942,-0.344648 -0.26741,-1.422769 -1.27215,-2.508114 -1.35964,-1.468715 -1.92838,-1.681643 -2.48939,-0.931946 -4.52664,6.04904 -12.59051,16.265311 -14.87903,18.850273 -1.58715,1.792775 -4.79695,5.835415 -7.13333,8.983947 -2.33612,3.148347 -5.00204,6.481235 -5.92474,7.406707 -1.65355,1.658663 -9.36556,11.196976 -21.94638,27.143222 -3.53573,4.48168 -7.2889,9.01361 -8.33986,10.07059 -1.05115,1.05713 -4.625484,5.45072 -7.942811,9.76342 -3.317328,4.31271 -6.420047,8.1249 -6.894942,8.47162 -0.474738,0.3466 -3.651828,4.22871 -7.059938,8.62676 -3.408122,4.39805 -6.9863,8.80856 -7.951079,9.80085 -0.964859,0.99233 -3.472714,4.02502 -5.572884,6.73916 -4.803797,6.20806 -5.727781,6.91773 -6.670198,5.12305 -0.614639,-1.17024 0.131239,-2.47179 5.140086,-8.96963 z m 138.34958,-49.74218 c -1.60388,-4.52837 -3.06468,-8.91497 -3.24598,-9.74761 -0.41391,-1.89979 -3.97969,-11.929701 -6.31631,-17.766538 -0.97187,-2.427754 -1.74777,-4.823102 -1.72404,-5.322864 0.0236,-0.499903 -1.11636,-4.174751 -2.53328,-8.166408 -3.08004,-8.676972 -3.21703,-7.317823 1.20102,-11.932066 2.0028,-2.091694 4.40976,-4.617608 5.3487,-5.613107 0.9389,-0.995447 3.08449,-4.182869 4.76786,-7.083045 3.13008,-5.392364 4.04476,-6.146953 5.32531,-4.392955 0.40103,0.549297 5.06076,4.001106 10.35512,7.670949 5.29434,3.669832 9.5921,6.889429 9.5509,7.155207 -0.0415,0.265482 0.53556,0.766287 1.28218,1.112824 2.62986,1.220712 23.77,16.79263 24.90182,18.342911 5.72812,7.845893 -24.68857,42.697782 -37.51126,42.980462 -0.47501,0.0103 -2.41734,0.4603 -4.31622,0.99959 -4.11924,1.16993 -3.50059,1.88898 -7.08676,-8.23636 z M 145.13246,20.06118 c 0.0345,-6.369889 7.62047,-14.954308 14.09965,-15.955985 8.11182,-1.2540617 11.00381,7.643291 4.13818,12.731334 -2.53348,1.877407 -3.73129,3.329242 -4.96672,6.019705 -3.46035,7.534788 -13.31531,5.458884 -13.27115,-2.795031 z m -4.07155,-4.488235 c 0.16084,-0.395126 0.6617,-0.568065 1.11292,-0.384412 0.54192,0.220612 1.17788,-0.494842 1.87322,-2.107316 0.57901,-1.342738 2.18414,-3.5590945 3.567,-4.925273 1.38279,-1.3661218 2.48489,-2.8692347 2.44903,-3.3402922 -0.0358,-0.4710012 0.35046,-0.8884671 0.85845,-0.9276914 1.85806,-0.1434192 1.65662,1.0451109 -0.43617,2.573705 -2.15243,1.5720797 -6.80292,9.1998126 -6.66859,10.9379086 0.0995,1.288283 -1.31263,1.268891 -2.26165,-0.03101 -0.43257,-0.592517 -0.65494,-1.400626 -0.49407,-1.795691 z m -0.62477,-7.7784064 c 1.40298,-1.0679924 2.68785,-2.4844697 2.85533,-3.1475703 0.33748,-1.3360295 2.0314,-1.7888734 2.12563,-0.5682638 0.0329,0.4253293 -0.57937,1.2399036 -1.36045,1.8101431 -0.78105,0.5702391 -2.04028,2.2624678 -2.79828,3.7605239 -1.49369,2.9520875 -2.13069,3.2447225 -2.88572,1.3258455 -0.37533,-0.953934 0.099,-1.6850935 2.0634,-3.1806105 z m 40.67474,51.5953704 c -0.31254,-3.579066 -0.10803,-6.03434 0.56043,-6.745023 0.57854,-0.614586 3.52231,-3.557331 6.54188,-6.539644 3.0194,-2.982102 6.38777,-6.839519 7.48541,-8.572159 l 1.9957,-3.150162 2.5689,1.609032 c 4.04609,2.534203 4.09726,2.951213 1.03779,8.455239 -3.61146,6.496824 -18.30951,22.472882 -19.35632,21.039045 -0.18827,-0.25788 -0.56347,-3.001243 -0.83392,-6.0966 z M 168.07813,34.694101 c 3.04822,-4.83532 3.99868,-5.981232 7.78683,-9.388876 1.86394,-1.676761 2.33086,-1.927383 1.57621,-0.846018 -0.58969,0.845051 -1.81683,2.139224 -2.72691,2.876018 -3.32374,2.690643 -7.32704,9.196329 -6.42189,10.436147 0.45972,0.629682 0.66959,1.72765 0.46633,2.439869 -0.76043,2.664885 0.94379,1.354342 3.10531,-2.387904 2.70607,-4.685053 7.0544,-10.092765 9.03039,-11.230581 0.7951,-0.457822 1.2178,-1.060974 0.93938,-1.340348 -0.27843,-0.279373 -0.39292,-1.07335 -0.2544,-1.764354 0.33543,-1.672999 7.35495,3.044677 11.9006,7.998063 l 2.31097,2.518269 -1.79736,3.031291 c -0.98853,1.667188 -2.53326,3.735064 -3.43259,4.595125 -0.89942,0.860164 -3.2834,3.222373 -5.29785,5.249392 -5.26017,5.29317 -5.02519,5.285255 -11.3409,0.383138 -8.86754,-6.882876 -9.10601,-7.395522 -5.84402,-12.569102 z m -5.42798,-3.59577 c -0.29511,-5.229698 4.69783,-10.602161 10.02773,-10.789433 5.02781,-0.17668 5.06674,0.923353 0.18773,5.302213 -1.3624,1.222715 -3.60942,4.052723 -4.99362,6.289142 -3.48096,5.624407 -4.87122,5.410875 -5.22193,-0.801863 z m -1.95544,-9.280752 c 0.31587,-0.230603 0.60321,-0.04484 0.63844,0.411467 0.035,0.456927 -0.22236,1.039917 -0.57257,1.295597 -0.35018,0.255668 -0.82092,1.092991 -1.0461,1.860691 -0.22517,0.76772 -0.22596,0.373394 -0.002,-0.876298 0.22416,-1.24968 0.66607,-2.460829 0.98194,-2.691431 z m 25.42927,-5.791655 c 0.70006,-1.719657 2.86796,-1.123352 6.80054,1.870759 6.0844,4.632326 8.40106,8.395557 6.20201,10.074711 -0.47609,0.363533 -3.95896,-2.360219 -6.69171,-5.233353 -1.07142,-1.126428 -2.74786,-2.64884 -3.72536,-3.383182 -2.37746,-1.785858 -2.92607,-2.492199 -2.58545,-3.328875 z"
     inkscape:connector-curvature="0"
     style="stroke-width:0.51309258" />
</svg>
