<?xml version="1.0" encoding="UTF-8" standalone="no"?>
<svg
   xmlns:dc="http://purl.org/dc/elements/1.1/"
   xmlns:cc="http://creativecommons.org/ns#"
   xmlns:rdf="http://www.w3.org/1999/02/22-rdf-syntax-ns#"
   xmlns:svg="http://www.w3.org/2000/svg"
   xmlns="http://www.w3.org/2000/svg"
   xmlns:xlink="http://www.w3.org/1999/xlink"
   xmlns:sodipodi="http://sodipodi.sourceforge.net/DTD/sodipodi-0.dtd"
   xmlns:inkscape="http://www.inkscape.org/namespaces/inkscape"
   id="svg4284"
   height="256"
   viewBox="0 0 240.00471 239.99805"
   width="256"
   version="1.1"
   sodipodi:docname="bow_01.svg"
   inkscape:version="0.92.4 (5da689c313, 2019-01-14)">
  <metadata
     id="metadata39">
    <rdf:RDF>
      <cc:Work
         rdf:about="">
        <dc:format>image/svg+xml</dc:format>
        <dc:type
           rdf:resource="http://purl.org/dc/dcmitype/StillImage" />
        <dc:title></dc:title>
        <dc:publisher>
          <cc:Agent>
            <dc:title>OpenClipart</dc:title>
          </cc:Agent>
        </dc:publisher>
        <dc:source>https://openclipart.org/detail/264385</dc:source>
        <cc:license
           rdf:resource="http://creativecommons.org/publicdomain/zero/1.0/" />
      </cc:Work>
      <cc:License
         rdf:about="http://creativecommons.org/publicdomain/zero/1.0/">
        <cc:permits
           rdf:resource="http://creativecommons.org/ns#Reproduction" />
        <cc:permits
           rdf:resource="http://creativecommons.org/ns#Distribution" />
        <cc:permits
           rdf:resource="http://creativecommons.org/ns#DerivativeWorks" />
      </cc:License>
    </rdf:RDF>
  </metadata>
  <sodipodi:namedview
     pagecolor="#ffffff"
     bordercolor="#666666"
     borderopacity="1"
     objecttolerance="10"
     gridtolerance="10"
     guidetolerance="10"
     inkscape:pageopacity="0"
     inkscape:pageshadow="2"
     inkscape:window-width="1920"
     inkscape:window-height="1025"
     id="namedview37"
     showgrid="false"
     inkscape:zoom="1.9555922"
     inkscape:cx="135.47285"
     inkscape:cy="141.70785"
     inkscape:window-x="-8"
     inkscape:window-y="-8"
     inkscape:window-maximized="1"
     inkscape:current-layer="svg4284"
     units="px"
     fit-margin-top="0"
     fit-margin-left="0"
     fit-margin-right="0"
     fit-margin-bottom="0" />
  <defs
     id="defs4286">
    <linearGradient
       id="linearGradient2338">
      <stop
         id="stop2340"
         stop-color="#b1b1b1"
         offset="0" />
      <stop
         id="stop2342"
         stop-color="#e4e4e4"
         offset="1" />
    </linearGradient>
    <linearGradient
       id="linearGradient3414"
       x1="42.471001"
       xlink:href="#linearGradient3332"
       gradientUnits="userSpaceOnUse"
       y1="84.778"
       gradientTransform="matrix(27.784,0,0,27.784,-751.28617,-1818.4031)"
       x2="42.360001"
       y2="86.634003" />
    <linearGradient
       id="linearGradient3332">
      <stop
         id="stop3334"
         stop-color="#bb8f56"
         offset="0" />
      <stop
         id="stop3336"
         stop-color="#d1af63"
         offset="1" />
    </linearGradient>
    <linearGradient
       id="linearGradient3418"
       x1="40.702999"
       xlink:href="#linearGradient2338"
       gradientUnits="userSpaceOnUse"
       y1="78.325996"
       gradientTransform="matrix(27.784,0,0,27.784,-751.28617,-1818.4031)"
       x2="40.880001"
       y2="83.407997" />
    <linearGradient
       id="linearGradient3422"
       x1="40.834999"
       xlink:href="#linearGradient2320"
       gradientUnits="userSpaceOnUse"
       y1="82.900002"
       gradientTransform="matrix(27.784,0,0,27.784,-751.28617,-1818.4031)"
       x2="41.476002"
       y2="83.165001" />
    <linearGradient
       id="linearGradient2320">
      <stop
         id="stop2322"
         stop-color="#6a3c1d"
         offset="0" />
      <stop
         id="stop2324"
         stop-color="#8f5127"
         offset="1" />
    </linearGradient>
    <linearGradient
       id="linearGradient4005"
       x1="45.431999"
       xlink:href="#linearGradient2338"
       gradientUnits="userSpaceOnUse"
       y1="78.944"
       gradientTransform="translate(0.86486,-0.17297)"
       x2="45.166"
       y2="83.628998" />
    <linearGradient
       id="linearGradient4009"
       x1="44.724998"
       xlink:href="#linearGradient2320"
       gradientUnits="userSpaceOnUse"
       y1="83.32"
       gradientTransform="translate(0.86486,-0.17297)"
       x2="45.299"
       y2="83.628998" />
    <linearGradient
       id="linearGradient4013"
       x1="41.476002"
       xlink:href="#linearGradient3332"
       gradientUnits="userSpaceOnUse"
       y1="88.358002"
       gradientTransform="translate(0.86486,-0.17297)"
       x2="42.603001"
       y2="93.440002" />
    <linearGradient
       id="linearGradient4017"
       x1="38.449001"
       xlink:href="#linearGradient3332"
       gradientUnits="userSpaceOnUse"
       y1="98.212997"
       gradientTransform="translate(0.86486,-0.17297)"
       x2="40.659"
       y2="93.705002" />
    <linearGradient
       id="linearGradient4313"
       x1="21.6"
       gradientUnits="userSpaceOnUse"
       y1="94.363998"
       gradientTransform="matrix(27.784,0,0,27.784,-751.28617,-1818.4031)"
       x2="32.916"
       y2="74.990997">
      <stop
         id="stop3496"
         stop-color="#cf8d00"
         offset="0" />
      <stop
         id="stop3498"
         stop-color="#cea33e"
         offset="1" />
    </linearGradient>
  </defs>
  <g
     id="g911"
     transform="matrix(-0.10347835,-0.28831553,-0.28831553,0.10347835,292.18835,158.21118)">
    <path
       id="path4311"
       d="m 76.319728,979.25038 8.595258,-7.36721 -35.607974,-175.58932 c 0,0 -3.683603,-149.80299 -7.367206,-165.7649 -3.683602,-15.96246 9.823034,-103.14254 9.823034,-114.19502 0,-11.05108 28.242436,-110.51086 28.242436,-110.51086 L 140.17153,291.62805 207.7061,208.13158 276.46872,147.96532 378.38321,82.886862 490.12212,25.176715 542.92006,3.0745434 469.248,14.125629 339.09108,65.69829 228.58022,141.82645 151.224,220.41072 73.86779,321.09715 41.943974,392.31588 14.930424,488.09011 2.6515634,591.23265 8.7909938,731.21122 25.98151,818.39186 59.133379,933.81493 76.323896,979.24732 Z"
       inkscape:connector-curvature="0"
       style="fill:url(#linearGradient4313);fill-rule:evenodd;stroke-width:27.7840004" />
    <path
       sodipodi:nodetypes="cccccccccccccccccccccccccccccccccccccccccccccccccc"
       inkscape:connector-curvature="0"
       d="M 503.58208,6.9715712 C 346.33575,38.223014 205.59868,135.45868 101.57538,273.52571 l -12.155496,17.365 c -10.959121,15.34705 -18.423015,30.6263 -28.456373,46.8855 -16.670122,41.29258 -32.829574,80.78198 -41.873266,118.94886 l -1.7365,9.55075 c -37.441719,167.57364 -8.5227422,308.2357 32.123861,448.87831 l 1.7365,5.2095 c 6.476172,22.26443 13.195455,44.46829 19.96975,66.85386 l 26.0475,-8.6825 c -2.850917,-10.132 -5.090307,-21.52399 -7.81425,-32.12386 l 139.786864,-309.097 6.07775,-11.28725 65.12014,-144.1295 11.28725,-25.17925 191.88186,-421.983397 c 2.56168,-4.175101 4.30513,-6.113869 9.55075,-8.6825 13.43773,-5.967447 26.66041,-11.430615 38.203,-17.3649998 l -3.473,-8.6825 c -15.1484,1.0889939 -32.66287,4.7824599 -44.28214,6.946 z m 28.65086,-1.7365 c -9.08981,3.6791573 -17.84427,8.2546268 -26.91575,12.1554998 l -5.22339,1.736139 c -4.41071,1.91793 -8.62332,4.107031 -13.02375,6.07775 l -8.70251,3.473 C 315.61999,102.97188 161.7133,213.5133 91.114152,365.55846 19.914874,518.94003 25.955116,705.44013 65.066652,909.06907 L 77.877855,968.81856 58.988902,911.67521 C 0.18684472,714.18654 -10.482211,516.89235 61.592263,363.80251 131.11894,216.13889 287.82626,80.100087 461.84857,23.448511 l 7.81286,-2.170625 c 10.66266,-3.320188 21.357,-6.411436 32.12386,-9.116486 l 3.473,-0.86825 c 8.9934,-2.199937 17.8715,-4.3281914 26.91575,-6.0777499 z M 492.29344,35.62521 305.6183,447.1896 l -12.1555,26.91575 -65.987,144.99914 -5.2095,12.1555 L 85.082802,931.6606 C 52.650538,799.55046 32.623831,637.92815 61.640052,501.0086 l 2.60336,-10.419 c 9.729679,-41.82881 18.45969,-81.37378 38.775348,-116.3455 9.32765,-18.91424 19.49881,-36.20811 29.5205,-52.96186 l 15.6285,-25.17925 C 253.69417,135.58093 393.331,78.615394 492.30039,35.627989 Z"
       id="path3235-2"
       style="fill-rule:evenodd;stroke-width:27.7840004" />
  </g>
</svg>
