<?xml version="1.0" encoding="UTF-8" standalone="no"?>
<!-- Created with Inkscape (http://www.inkscape.org/) -->

<svg
   xmlns:dc="http://purl.org/dc/elements/1.1/"
   xmlns:cc="http://creativecommons.org/ns#"
   xmlns:rdf="http://www.w3.org/1999/02/22-rdf-syntax-ns#"
   xmlns:svg="http://www.w3.org/2000/svg"
   xmlns="http://www.w3.org/2000/svg"
   xmlns:sodipodi="http://sodipodi.sourceforge.net/DTD/sodipodi-0.dtd"
   xmlns:inkscape="http://www.inkscape.org/namespaces/inkscape"
   id="svg2"
   sodipodi:docname="crossbow_02.svg"
   viewBox="0 0 255.99998 256"
   version="1.1"
   inkscape:version="0.92.4 (5da689c313, 2019-01-14)"
   inkscape:export-xdpi="300"
   inkscape:export-ydpi="300"
   width="256"
   height="256">
  <title
     id="title854">Crossbow</title>
  <defs
     id="defs25" />
  <sodipodi:namedview
     id="base"
     bordercolor="#666666"
     inkscape:pageshadow="2"
     inkscape:window-y="-8"
     pagecolor="#ffffff"
     inkscape:window-height="1025"
     inkscape:window-maximized="1"
     inkscape:zoom="1.6251106"
     inkscape:window-x="-8"
     showgrid="false"
     borderopacity="1.0"
     inkscape:current-layer="g3786"
     inkscape:cx="-87.643904"
     inkscape:cy="133.39872"
     inkscape:window-width="1920"
     inkscape:pageopacity="0.0"
     inkscape:document-units="px"
     fit-margin-top="0"
     fit-margin-left="0"
     fit-margin-right="0"
     fit-margin-bottom="0" />
  <g
     id="layer1"
     inkscape:label="Layer 1"
     inkscape:groupmode="layer"
     transform="translate(-20.712686,-730.41089)">
    <g
       id="g3793">
      <g
         id="g3786">
        <g
           id="g852"
           transform="matrix(-1.1081795,0,0,1.1081795,313.51304,-129.8164)">
          <path
             inkscape:connector-curvature="0"
             id="path4161"
             d="m 251.67516,806.87827 -83.99428,47.38139 -92.609081,67.6877 -12.614526,14.46055 13.229868,5.84576 14.460555,-15.38357 88.609344,-67.07236 83.68662,-50.15043 z"
             style="fill:#803300;fill-rule:evenodd;stroke:#552200;stroke-width:1px;stroke-linecap:butt;stroke-linejoin:miter;stroke-opacity:1" />
          <path
             inkscape:connector-curvature="0"
             id="path4169"
             d="m 163.98882,859.95158 6.15343,2.61521 -8.76864,7.69178 -7.38411,-3.07671 z"
             style="fill:#666666;fill-rule:evenodd;stroke:#333333;stroke-width:1px;stroke-linecap:butt;stroke-linejoin:miter;stroke-opacity:1" />
          <path
             sodipodi:nodetypes="caassaacc"
             inkscape:connector-curvature="0"
             id="path4167"
             d="m 153.9895,867.18186 c 0,0 0.0412,-1.98015 0.30767,-2.92288 0.35562,-1.25805 0.87924,-2.51437 1.69219,-3.53822 0.61252,-0.77143 1.39891,-2.22639 2.30754,-1.84603 l 6.61493,2.76904 c 1.07864,0.45152 -1.49694,1.80157 -2.1537,2.76904 -0.56804,0.83678 -1.22184,1.65464 -1.53835,2.61521 -0.30659,0.93047 -0.30767,2.92288 -0.30767,2.92288 z"
             style="fill:#666666;fill-rule:evenodd;stroke:#333333;stroke-width:1px;stroke-linecap:butt;stroke-linejoin:miter;stroke-opacity:1" />
          <path
             sodipodi:nodetypes="ccc"
             inkscape:connector-curvature="0"
             id="path4173"
             d="m 164.91183,861.79761 0.46151,5.53808 -4.3074,2.76905"
             style="fill:none;fill-rule:evenodd;stroke:#333333;stroke-width:1px;stroke-linecap:butt;stroke-linejoin:miter;stroke-opacity:1" />
          <g
             id="g3781" />
          <path
             inkscape:connector-curvature="0"
             id="path4179"
             d="m 172.14211,885.4883 0.15384,8.76864 3.07671,0.92301 3.07671,-2.61521 1.99987,-3.07671 3.69205,-2.92288 2.76905,-2.76904 3.53822,-2.61521 3.07671,-2.46137 4.61507,-3.38438 4.3074,-2.92288 3.53822,-2.61521 4.61507,-2.46137 3.69206,-2.46137 4.3074,-2.92288 4.15356,-2.6152 -0.30767,-2.30754 -1.99987,0.30767 -2.76904,1.53836 -3.84589,2.1537 -3.99973,2.46137 -4.7689,2.92288 -4.46124,2.76904 -3.69205,2.30754 -3.38439,2.46137 -3.69206,2.76904 -4.46123,3.23055 -4.15356,3.23055 -3.38439,2.92288 -1.69219,1.23068 -1.07685,-3.53822 z"
             style="fill:#1a1a1a;fill-rule:evenodd;stroke:#1a1a1a;stroke-width:1px;stroke-linecap:butt;stroke-linejoin:miter;stroke-opacity:1" />
          <path
             inkscape:connector-curvature="0"
             id="path4163"
             d="m 262.44366,809.33964 1.23068,7.69178 -82.45592,57.84222 -4.3074,2.76904 -0.92302,4.3074 v 5.23042 l -9.53781,5.84575 -3.99973,-0.61534 -5.53808,2.1537 -33.84385,32.92083 -12.9222,6.4611 -2.1537,5.23042 -12.30685,8.92247 -19.998639,-5.53809 13.845212,-15.69124 87.686337,-67.07236 z"
             style="fill:#aa4400;fill-rule:evenodd;stroke:#552200;stroke-width:1px;stroke-linecap:butt;stroke-linejoin:miter;stroke-opacity:1" />
          <path
             sodipodi:nodetypes="aaaaaaacccaaaaaaa"
             inkscape:connector-curvature="0"
             id="path4165"
             d="m 175.1583,865.17426 c 1.08855,-0.0947 2.22621,0.0262 3.25375,0.39779 0.93174,0.33694 1.80936,0.89813 2.49869,1.60981 0.83211,0.85909 1.99216,1.88966 1.84603,3.07671 -0.14177,1.15161 -1.66537,1.61717 -2.46137,2.46137 -0.84721,0.89852 -1.66514,1.82505 -2.46137,2.76904 -0.84679,1.00394 -1.95047,1.86679 -2.46137,3.07672 -0.32164,0.76172 -0.30767,2.46137 -0.30767,2.46137 l -8.30713,7.38411 -0.92301,-2.46137 c 0,0 -2.81972,-0.78195 -3.69206,-1.84603 -0.74134,-0.90429 -0.85663,-2.21694 -0.92301,-3.38438 -0.0766,-1.34675 0.15007,-2.73358 0.61534,-3.99973 0.53996,-1.4694 1.49105,-2.77125 2.46137,-3.99973 1.07879,-1.36579 2.3461,-2.58862 3.69206,-3.69205 1.42981,-1.17217 2.94357,-2.28651 4.61507,-3.07672 0.80468,-0.38042 1.66796,-0.69976 2.55468,-0.77691 z"
             style="fill:#4d4d4d;fill-rule:evenodd;stroke:#4d4d4d;stroke-width:1px;stroke-linecap:butt;stroke-linejoin:miter;stroke-opacity:1" />
          <path
             sodipodi:nodetypes="caaaaaaaaaaaaaaaaaaaaaaaacccaaaaaaaaaaaaaaaaaaaacc"
             inkscape:connector-curvature="0"
             id="path4175"
             d="m 94.854623,933.61417 c 0,0 2.147144,0.94941 3.263348,1.30533 2.061189,0.65725 4.205299,1.01853 6.309129,1.5229 1.52233,0.36496 3.03794,0.75994 4.56869,1.08778 1.5159,0.32466 3.04459,0.58653 4.56869,0.87023 1.59419,0.29675 3.18973,0.58626 4.78624,0.87022 1.66681,0.29646 3.32974,0.61793 5.0038,0.87023 1.69884,0.25603 3.40512,0.46242 5.11257,0.65267 1.52038,0.1694 3.04563,0.29175 4.56869,0.43512 1.559,0.14675 3.11466,0.33691 4.67747,0.43511 1.56313,0.0982 3.1306,0.10756 4.69613,0.15384 1.94539,0.0575 3.89047,0.14686 5.8367,0.15383 1.56566,0.006 3.13054,-0.0751 4.69613,-0.0901 1.99418,-0.0191 3.98892,0.0391 5.98281,10e-6 1.85029,-0.0363 3.69797,-0.15874 5.54768,-0.21756 1.48633,-0.0473 2.97489,-0.0305 4.45991,-0.10878 1.34414,-0.0708 2.68188,-0.23529 4.0248,-0.32634 1.99266,-0.13511 3.99375,-0.14575 5.9828,-0.32634 2.00212,-0.18177 3.98708,-0.51931 5.9828,-0.76144 1.88418,-0.2286 3.77148,-0.43082 5.65647,-0.65267 1.81346,-0.21343 3.63701,-0.35714 5.43892,-0.65267 2.10227,-0.34479 4.18434,-0.81016 6.25635,-1.30534 1.6249,-0.38833 3.22929,-0.85828 4.83903,-1.30533 1.01739,-0.28254 2.03707,-0.55817 3.04579,-0.87023 1.53356,-0.47443 3.02005,-1.10026 4.56869,-1.5229 1.00168,-0.27337 3.04579,-0.65267 3.04579,-0.65267 l 0.32633,1.74045 0.54389,1.5229 c 0,0 -2.29314,1.21882 -3.4809,1.74045 -1.49211,0.65529 -3.023,1.22409 -4.56869,1.74045 -1.86125,0.62178 -3.76376,1.11345 -5.65646,1.63168 -1.95094,0.53418 -3.90566,1.05706 -5.87403,1.52289 -2.02081,0.47824 -4.05259,0.91182 -6.09158,1.30534 -2.31197,0.4462 -4.64089,0.79958 -6.96181,1.19656 -1.70396,0.29145 -3.40839,0.58015 -5.11258,0.87023 -1.70419,0.29008 -3.40645,0.59175 -5.11258,0.87023 -2.31808,0.37837 -4.63888,0.74039 -6.96181,1.08778 -2.28216,0.34129 -4.55762,0.74277 -6.85303,0.979 -2.85515,0.29383 -5.72469,0.4532 -8.59348,0.54389 -1.73958,0.055 -3.48091,0 -5.22136,0 -1.81297,0 -3.62633,0.0377 -5.43891,0 -1.74159,-0.0363 -3.48074,-0.14905 -5.22136,-0.21755 -1.95783,-0.077 -3.91925,-0.0838 -5.87402,-0.21756 -2.18131,-0.14931 -4.35538,-0.39614 -6.5267,-0.65267 -1.59906,-0.18892 -3.19338,-0.41713 -4.78624,-0.65267 -2.50624,-0.3706 -5.01973,-0.70815 -7.5057,-1.19656 -1.71741,-0.33742 -3.40337,-0.8198 -5.11258,-1.19656 -2.09724,-0.4623 -4.2237,-0.79244 -6.30914,-1.30534 -1.537999,-0.37826 -4.568678,-1.30534 -4.568678,-1.30534 z"
             style="fill:#333333;fill-rule:evenodd;stroke:#1a1a1a;stroke-width:1px;stroke-linecap:butt;stroke-linejoin:miter;stroke-opacity:1" />
          <path
             sodipodi:nodetypes="ccaaaaaaaaaaaaaaaaccaaaaaaaaaaaaaac"
             inkscape:connector-curvature="0"
             id="path4177"
             d="m 69.072207,927.94695 5.076578,-5.23041 c 0,0 -2.71333,-1.56926 -3.999728,-2.46137 -0.960879,-0.66637 -1.880801,-1.3932 -2.769044,-2.1537 -0.909344,-0.77856 -1.767336,-1.61627 -2.615205,-2.46137 -0.950551,-0.94745 -1.832949,-1.96115 -2.769042,-2.92288 -0.961041,-0.98737 -1.963455,-1.93394 -2.922878,-2.92288 -0.833568,-0.85921 -1.674484,-1.71305 -2.461371,-2.61521 -1.126522,-1.29154 -2.243181,-2.59892 -3.23055,-3.99972 -0.62321,-0.88416 -1.185408,-1.81338 -1.692192,-2.76905 -0.580561,-1.09479 -1.085407,-2.23093 -1.538357,-3.38438 -0.592713,-1.50936 -1.077049,-3.0605 -1.538357,-4.61507 -0.346749,-1.16851 -0.646189,-2.35119 -0.923014,-3.53822 -0.404273,-1.73352 -0.738141,-3.4829 -1.07685,-5.23042 -0.218181,-1.12567 -0.512369,-2.24239 -0.615342,-3.38438 -0.124338,-1.37893 -0.02386,-2.76925 -10e-7,-4.15356 0.02564,-1.48774 0.03856,-2.97775 0.153836,-4.46124 0.132051,-1.69946 0.287665,-3.40379 0.615343,-5.07658 0.112392,-0.57376 0.461507,-1.69219 0.461507,-1.69219 l 2.153699,3.38439 c 0,0 -0.279195,2.45743 -0.307671,3.69205 -0.03195,1.3851 0.145949,2.76812 0.153836,4.15357 0.01139,2.00049 -0.128194,3.99923 -0.153836,5.99959 -0.01512,1.17931 -0.05113,2.35992 0,3.53822 0.05133,1.18275 0.182951,2.36095 0.307671,3.53822 0.08711,0.82224 0.213429,1.63992 0.307672,2.46137 0.393726,3.43185 0.529644,6.89624 1.07685,10.30699 0.191194,1.19171 0.421184,2.38252 0.769178,3.53822 0.285543,0.9483 0.650528,1.87514 1.07685,2.76904 0.533902,1.11946 1.18764,2.17947 1.846028,3.23055 0.626675,1.00046 1.302414,1.97041 1.999864,2.92288 0.884809,1.20833 1.7877,2.40688 2.769042,3.53822 1.164441,1.34242 2.486179,2.54056 3.692057,3.84589 0.838005,0.90711 1.594835,1.88915 2.461371,2.76905 1.171451,1.18952 3.692056,3.38438 3.692056,3.38438 z"
             style="fill:#333333;fill-rule:evenodd;stroke:#1a1a1a;stroke-width:1px;stroke-linecap:butt;stroke-linejoin:miter;stroke-opacity:1" />
          <path
             sodipodi:nodetypes="ccccccc"
             inkscape:connector-curvature="0"
             id="path4183"
             d="m 200.60171,843.02965 18.30645,-10.46082 13.07603,-7.53795 11.69151,-6.76877 -5.07657,-0.76918 -41.68947,24.1522 z"
             style="fill:#aa4400;fill-rule:evenodd;stroke:#803300;stroke-width:1px;stroke-linecap:butt;stroke-linejoin:miter;stroke-opacity:1" />
          <path
             sodipodi:nodetypes="caaaaccaaacaaccccaaaaaaaaaaaaaaaaaaaacaaaaacc"
             inkscape:connector-curvature="0"
             id="path4185"
             d="m 94.274865,933.59061 c 0,0 -3.460857,5.54355 -5.357855,8.20155 -1.018931,1.42769 -2.187591,2.74334 -3.230549,4.15357 -1.37886,1.86442 -2.773719,3.72362 -3.999728,5.69192 -0.958521,1.53886 -1.778607,3.1605 -2.615207,4.7689 -1.767268,3.39766 -5.076577,10.30699 -5.076577,10.30699 l -0.615343,0.76918 c 0,0 -6.93401,-1.74984 -10.306991,-2.92288 -2.149691,-0.74761 -4.1962,-1.76461 -6.307263,-2.6152 -2.349433,-0.94664 -4.803069,-1.65202 -7.076441,-2.76904 -2.146867,-1.05486 -6.153428,-3.69206 -6.153428,-3.69206 0,0 5.144691,-1.33937 7.537949,-2.46137 1.919398,-0.89984 3.553238,-2.31612 5.384249,-3.38439 2.516828,-1.4684 5.199975,-2.64309 7.691784,-4.15356 3.105596,-1.85491 3.210077,-2.03519 5.823891,-4.47669 l -7.342258,-3.74485 -3.404375,2.52962 c -1.286397,0.89211 -2.688306,1.60647 -3.999728,2.46137 -1.513284,0.98649 -2.949847,2.08731 -4.461234,3.07671 -1.464378,0.95862 -2.969633,1.85336 -4.461235,2.76905 -1.431493,0.87879 -2.822293,1.83041 -4.307399,2.6152 -1.095632,0.57898 -2.145394,1.5613 -3.384385,1.53836 -1.031784,-0.0191 -1.741459,-1.47947 -2.769043,-1.38452 -0.771693,0.0713 -1.509509,0.70886 -1.853758,1.40318 -0.498356,1.00515 -0.200398,2.26329 0.0077,3.36572 0.183724,0.97317 0.448379,2.00365 1.07685,2.76905 1.272844,1.55016 3.359245,2.19426 5.076577,3.23055 1.061906,0.64078 2.142127,1.25139 3.23055,1.84602 1.167422,0.63779 2.345486,1.25694 3.538221,1.84603 1.522094,0.75177 3.070173,1.44999 4.61507,2.1537 1.838401,0.83741 3.675133,1.6801 5.538085,2.46137 1.931898,0.81018 3.870373,1.61006 5.845756,2.30754 1.621087,0.57239 3.292065,0.9939 4.922742,1.53836 2.322989,0.77562 4.547958,1.86227 6.922605,2.46137 0.653973,0.16499 1.408896,0.63272 1.999864,0.30767 0.784677,-0.4316 0.893491,-1.5848 1.07685,-2.46137 0.167986,-0.80308 0.131422,-1.65151 0,-2.46137 -0.07792,-0.48019 -0.461507,-1.38453 -0.461507,-1.38453 0,0 2.128064,-3.40097 3.230549,-5.07657 0.852119,-1.29509 1.697607,-2.59634 2.615207,-3.84589 0.929074,-1.26517 1.927286,-2.47854 2.922878,-3.69206 0.85373,-1.04061 1.694066,-2.09527 2.615207,-3.07671 1.414632,-1.50723 3.160416,-2.70092 4.461234,-4.3074 1.601496,-1.97782 4.044786,-6.47523 4.044786,-6.47523 z"
             style="fill:#333333;fill-rule:evenodd;stroke:#1a1a1a;stroke-width:1px;stroke-linecap:butt;stroke-linejoin:miter;stroke-opacity:1" />
          <path
             sodipodi:nodetypes="caaccaaacc"
             inkscape:connector-curvature="0"
             id="path4187"
             d="m 213.0624,934.25421 c 0,0 -57.42855,-28.87648 -87.071,-41.22796 -2.91977,-1.21662 -5.92707,-2.21427 -8.92246,-3.23055 -22.607895,-7.67043 -68.276649,-21.63031 -68.276649,-21.63031 l -1.08458,-2.267 c 0,0 48.093516,12.85858 71.361089,21.58978 3.26607,1.2256 6.3775,2.83034 9.53781,4.3074 3.09581,1.44691 6.14292,2.99609 9.23014,4.46123 26.21799,12.44254 78.91771,36.76673 78.91771,36.76673 z"
             style="fill:#806600;fill-rule:evenodd;stroke:#554400;stroke-width:1px;stroke-linecap:butt;stroke-linejoin:miter;stroke-opacity:1" />
          <path
             sodipodi:nodetypes="ccaaccac"
             inkscape:connector-curvature="0"
             id="path4189"
             d="m 105.29733,886.07807 0.76145,-2.71946 c 0,0 8.5818,2.25 12.72705,3.80724 5.96949,2.24254 11.67812,5.1351 17.40453,7.94081 2.24294,1.09895 6.63547,3.48091 6.63547,3.48091 l -1.30534,1.84923 c 0,0 -10.68279,-5.28745 -16.20796,-7.5057 -6.54424,-2.62739 -20.0152,-6.85303 -20.0152,-6.85303 z"
             style="fill:#000000;fill-rule:evenodd;stroke:#000000;stroke-width:1px;stroke-linecap:butt;stroke-linejoin:miter;stroke-opacity:1" />
          <path
             sodipodi:nodetypes="ccccc"
             inkscape:connector-curvature="0"
             id="path4191"
             d="m 77.687005,925.17791 77.840845,-57.53455 3.23056,1.6922 -77.533184,56.9192 z"
             style="fill:none;fill-rule:evenodd;stroke:#000000;stroke-width:0.40000001;stroke-linecap:butt;stroke-linejoin:miter;stroke-miterlimit:4;stroke-dasharray:none;stroke-opacity:1" />
          <ellipse
             transform="rotate(-139.60426)"
             ry="1.6921924"
             rx="1.3845211"
             cx="-693.65527"
             cy="-554.04968"
             id="path4193"
             style="opacity:1;fill:none;fill-opacity:1;fill-rule:nonzero;stroke:#000000;stroke-width:0.2;stroke-linecap:butt;stroke-linejoin:miter;stroke-miterlimit:4;stroke-dasharray:none;stroke-opacity:1" />
          <ellipse
             transform="rotate(-139.60426)"
             ry="1.6921924"
             rx="1.3845211"
             cx="-699.93964"
             cy="-546.4801"
             id="path4193-9"
             style="opacity:1;fill:none;fill-opacity:1;fill-rule:nonzero;stroke:#000000;stroke-width:0.2;stroke-linecap:butt;stroke-linejoin:miter;stroke-miterlimit:4;stroke-dasharray:none;stroke-opacity:1" />
          <ellipse
             transform="rotate(-139.60426)"
             ry="1.6921924"
             rx="1.3845211"
             cx="-696.03998"
             cy="-563.73608"
             id="path4193-6"
             style="opacity:1;fill:none;fill-opacity:1;fill-rule:nonzero;stroke:#000000;stroke-width:0.2;stroke-linecap:butt;stroke-linejoin:miter;stroke-miterlimit:4;stroke-dasharray:none;stroke-opacity:1" />
          <path
             sodipodi:nodetypes="caaaac"
             inkscape:connector-curvature="0"
             id="path4218"
             d="m 52.104769,907.07227 c 0,0 -1.90783,-4.24085 -2.719456,-6.41791 -0.452629,-1.21411 -0.854561,-2.44867 -1.196561,-3.69846 -0.392387,-1.43392 -0.684087,-2.89404 -0.979004,-4.35113 -0.365435,-1.8055 -0.792078,-3.60632 -0.979004,-5.43892 -0.218993,-2.14698 -0.163168,-6.4723 -0.163168,-6.4723"
             style="fill:#333333;fill-rule:evenodd;stroke:#1a1a1a;stroke-width:1px;stroke-linecap:butt;stroke-linejoin:miter;stroke-opacity:1" />
        </g>
      </g>
    </g>
  </g>
  <metadata
     id="metadata23">
    <rdf:RDF>
      <cc:Work>
        <dc:format>image/svg+xml</dc:format>
        <dc:type
           rdf:resource="http://purl.org/dc/dcmitype/StillImage" />
        <cc:license
           rdf:resource="http://creativecommons.org/publicdomain/zero/1.0/" />
        <dc:publisher>
          <cc:Agent
             rdf:about="http://openclipart.org/">
            <dc:title>OpenClipart</dc:title>
          </cc:Agent>
        </dc:publisher>
        <dc:title>Crossbow</dc:title>
        <dc:date>2016-02-13 10:07:15</dc:date>
        <dc:description></dc:description>
        <dc:source>https://openclipart.org/detail/240928</dc:source>
        <dc:creator>
          <cc:Agent>
            <dc:title>Flying Dutchman</dc:title>
          </cc:Agent>
        </dc:creator>
        <dc:subject>
          <rdf:Bag />
        </dc:subject>
      </cc:Work>
      <cc:License
         rdf:about="http://creativecommons.org/publicdomain/zero/1.0/">
        <cc:permits
           rdf:resource="http://creativecommons.org/ns#Reproduction" />
        <cc:permits
           rdf:resource="http://creativecommons.org/ns#Distribution" />
        <cc:permits
           rdf:resource="http://creativecommons.org/ns#DerivativeWorks" />
      </cc:License>
    </rdf:RDF>
  </metadata>
</svg>
