<?xml version="1.0" encoding="UTF-8" standalone="no"?>
<!-- Created with Inkscape (http://www.inkscape.org/) -->
<svg xmlns:rdf="http://www.w3.org/1999/02/22-rdf-syntax-ns#" xmlns="http://www.w3.org/2000/svg" xmlns:i="http://ns.adobe.com/AdobeIllustrator/10.0/" xmlns:cc="http://web.resource.org/cc/" xmlns:xlink="http://www.w3.org/1999/xlink" xmlns:dc="http://purl.org/dc/elements/1.1/" xmlns:svg="http://www.w3.org/2000/svg" xmlns:inkscape="http://www.inkscape.org/namespaces/inkscape" xmlns:sodipodi="http://sodipodi.sourceforge.net/DTD/sodipodi-0.dtd" xmlns:ns1="http://sozi.baierouge.fr" id="svg2" version="1.0" viewBox="0 0 418.14 353.304" inkscape:version="0.91 r13725">
  <g id="g4761">
    <path id="path73" style="fill-rule:evenodd;stroke:#000000;stroke-width:.036;stroke-miterlimit:10;fill:#f7e42c" d="m141.21 177.52l-44.713 20.42c-2.124 2.23-3.42 3.96-3.744 5.32-0.432 1.34-0.576 2.99 1.656 2.49 2.196-0.72 4.248-2.95 11.991-6.12 7.84-3.17 18.97-7.38 34.34-12.64-0.58 0.51-0.58 0.51 0 0 0.5-0.57 1.66-1.62 3.31-3.27-2.55 0.68-4.06 0.54-4.53-0.44-0.54-1.08 0.07-2.95 1.69-5.76z"/>
    <path id="path75" style="fill-rule:evenodd;stroke:#000000;stroke-width:.036;stroke-miterlimit:10;fill:#f7e42c" d="m145.24 194.88l-4.1-4.97-45.939 17.49 8.639 6.23 41.4-18.75z"/>
    <path id="path165" style="fill-rule:evenodd;stroke:#000000;stroke-width:.036;stroke-miterlimit:10;fill:#f7e42c" d="m136.02 161.36c4.47-1.48 8.43-2.38 12.28-2.3 3.78 0.03 7.2 0 10.26 2.23 2.88 2.12 5.29 5.47 7.24 10.33l-29.63 2.88c2.05-2.02 3.24-4.1 3.17-6.26-0.11-2.27-1.08-4.43-3.32-6.88z"/>
    <path id="path169" style="stroke:#000000;stroke-width:.036;stroke-miterlimit:10;fill-rule:evenodd" d="m95.417 190.66c-1.476-5.07-0.036-12.16 1.98-17.1 1.872-5.04 0.288-7.34 9.543-12.74 9.32-5.58 33.44-16.09 45.68-19.87 12.06-3.75 19.55-4.25 26.35-2.63 6.63 1.55 10.66 7.96 13.65 11.88 2.81 3.78 3.35 5.15 3.99 11.05 0.69 5.83 2.13 18.61 0.15 24.05-2.13 5.26-5.08 4.72-12.35 8.24-7.38 3.46-22.65 10.3-31.36 12.89-8.67 2.52-12.81 2.67-20.59 2.23-7.95-0.54-20.23-2.01-26.42-5-6.195-3.17-9.219-7.92-10.623-13z"/>
    <path id="path171" style="fill-rule:evenodd;stroke:#000000;stroke-width:.036;stroke-miterlimit:10;fill:#a87410" d="m193.62 158.26c1.26 2.7 2.42 13.94 2.2 18.69-0.29 4.5 0.18 5.47-3.89 8.89-4.17 3.31-13.46 8.39-21.06 11.63-7.77 3.24-16.31 6.52-24.91 7.88-8.78 1.19-19.04 0.4-26.5-0.57-7.45-1.12-13.82-3.57-17.46-5.55-3.596-2.01-3.344-3.42-4.1-6.3-0.9-2.98-1.368-8.71-0.828-11.19 0.54-2.59-0.972-4.65 4.068-3.78 5 0.86 16.85 7.56 25.81 9 8.82 1.29 19.44 0.93 27-0.94 7.42-1.98 11.99-6.33 17.75-10.55 5.83-4.28 12.56-11.73 16.45-14.58 3.6-2.88 4.18-5.33 5.47-2.63z"/>
    <path id="path173" style="fill-rule:evenodd;stroke:#000000;stroke-width:.036;stroke-miterlimit:10;fill:#fdd025" d="m187.18 156.97c2.52-4.61 0.61-9.51-2.23-12.35-2.92-3.02-7.96-5.33-14.73-5.11-6.87 0.25-17.92 3.53-25.95 6.48-8.14 2.84-15.73 6.98-22.11 10.19-6.44 3.02-12.49 5.18-16.05 7.99-3.67 2.63-5.15 6.37-5.4 8.31-0.36 1.84 0.07 1.3 3.63 3.1 3.6 1.8 9.62 6.37 17.46 7.74 7.71 1.15 20.45 1.44 28.52-0.4 7.92-2.05 12.85-6.59 19.08-10.98 6.19-4.42 15.08-10.44 17.78-14.97z"/>
    <path id="path175" style="stroke:#000000;stroke-width:.036;stroke-miterlimit:10;fill-rule:evenodd" d="m152.33 161.07l3.49-0.47-0.14-2.41-1.76 1.73-1.7-1.26 0.11 2.41z"/>
    <path id="path177" style="stroke:#000000;stroke-width:.036;stroke-miterlimit:10;fill-rule:evenodd" d="m124.4 161.22l2.05-2.81-1.84-1.59 0.04 2.49-2.09 0.36 1.84 1.55z"/>
    <path id="path179" style="stroke:#000000;stroke-width:.036;stroke-miterlimit:10;fill-rule:evenodd" d="m160.79 155.31l2.09-0.64-0.58-0.8-1.9-0.43 0.39 1.87z"/>
    <path id="path181" style="stroke:#000000;stroke-width:.036;stroke-miterlimit:10;fill-rule:evenodd" d="m151.36 157.62l2.12-0.65-0.57-0.76-1.91-0.43 0.36 1.84z"/>
    <path id="path183" style="stroke:#000000;stroke-width:.036;stroke-miterlimit:10;fill-rule:evenodd" d="m145.2 163.05l2.13-0.65-0.58-0.75-1.91-0.47 0.36 1.87z"/>
    <path id="path185" style="stroke:#000000;stroke-width:.036;stroke-miterlimit:10;fill-rule:evenodd" d="m141.46 158.16l2.12-0.65-0.57-0.79-1.91-0.44 0.36 1.88z"/>
    <path id="path187" style="stroke:#000000;stroke-width:.036;stroke-miterlimit:10;fill-rule:evenodd" d="m135.27 162.76l2.09-0.64-0.58-0.76-1.87-0.43 0.36 1.83z"/>
    <path id="path189" style="stroke:#000000;stroke-width:.036;stroke-miterlimit:10;fill-rule:evenodd" d="m131.06 159.24l2.08-0.65-0.57-0.79-1.87-0.44 0.36 1.88z"/>
    <path id="path191" style="stroke:#000000;stroke-width:.036;stroke-miterlimit:10;fill-rule:evenodd" d="m118.67 172.3l2.13-0.64-0.58-0.76-1.91-0.43 0.36 1.83z"/>
    <path id="path193" style="stroke:#000000;stroke-width:.036;stroke-miterlimit:10;fill-rule:evenodd" d="m114.93 167.41l2.12-0.65-0.57-0.79-1.91-0.43 0.36 1.87z"/>
    <path id="path195" style="stroke:#000000;stroke-width:.036;stroke-miterlimit:10;fill-rule:evenodd" d="m169.04 169.35l2.05-2.84-1.84-1.55v2.45l-2.05 0.36 1.84 1.58z"/>
    <path id="path197" style="stroke:#000000;stroke-width:.036;stroke-miterlimit:10;fill-rule:evenodd" d="m155.54 167.7l3.49-0.47-0.15-2.41-1.8 1.73-1.65-1.27 0.11 2.42z"/>
    <path id="path199" style="stroke:#000000;stroke-width:.036;stroke-miterlimit:10;fill-rule:evenodd" d="m134.08 170.47l3.49-0.47-0.14-2.41-1.8 1.73-1.66-1.26 0.11 2.41z"/>
    <path id="path201" style="stroke:#000000;stroke-width:.036;stroke-miterlimit:10;fill-rule:evenodd" d="m140.67 152.68l2.12-0.64-0.57-0.76-1.91-0.43 0.36 1.83z"/>
    <path id="path203" style="stroke:#000000;stroke-width:.036;stroke-miterlimit:10;fill-rule:evenodd" d="m153.7 147.86l2.12-0.65-0.57-0.79-1.91-0.43 0.36 1.87z"/>
    <path id="path205" style="stroke:#000000;stroke-width:.036;stroke-miterlimit:10;fill-rule:evenodd" d="m121.59 165.97l2.12-0.65-0.57-0.76-1.91-0.43 0.36 1.84z"/>
    <path id="path207" style="stroke:#000000;stroke-width:.036;stroke-miterlimit:10;fill-rule:evenodd" d="m146.21 170.61l2.09-0.64-0.58-0.8-1.87-0.43 0.36 1.87z"/>
    <path id="path209" style="stroke:#000000;stroke-width:.036;stroke-miterlimit:10;fill-rule:evenodd" d="m168.39 149.66l2.05-2.84-1.84-1.55v2.48l-2.05 0.36 1.84 1.55z"/>
    <path id="path211" style="stroke:#000000;stroke-width:.036;stroke-miterlimit:10;fill-rule:evenodd" d="m171.63 156.57l2.09-0.65-0.58-0.75-1.87-0.43 0.36 1.83z"/>
    <path id="path213" style="stroke:#000000;stroke-width:.036;stroke-miterlimit:10;fill-rule:evenodd" d="m163.1 164.74l2.12-0.64-0.58-0.76-1.9-0.47 0.36 1.87z"/>
    <path id="path215" style="stroke:#000000;stroke-width:.036;stroke-miterlimit:10;fill-rule:evenodd" d="m158.88 161.22l2.13-0.65-0.61-0.79-1.87-0.44 0.35 1.88z"/>
    <path id="path217" style="stroke:#000000;stroke-width:.036;stroke-miterlimit:10;fill-rule:evenodd" d="m148.73 172.41l2.13-0.65-0.58-0.79-1.91-0.43 0.36 1.87z"/>
    <path id="path219" style="stroke:#000000;stroke-width:.036;stroke-miterlimit:10;fill-rule:evenodd" d="m139.8 171.26l2.13-0.65-0.58-0.75-1.9-0.47 0.35 1.87z"/>
    <path id="path221" style="stroke:#000000;stroke-width:.036;stroke-miterlimit:10;fill-rule:evenodd" d="m135.52 179.54l2.2-0.22-0.44-0.86-1.76-0.79v1.87z"/>
    <path id="path223" style="stroke:#000000;stroke-width:.036;stroke-miterlimit:10;fill-rule:evenodd" d="m129.9 171.76l2.13-0.64-0.58-0.76-1.91-0.43 0.36 1.83z"/>
    <path id="path225" style="stroke:#000000;stroke-width:.036;stroke-miterlimit:10;fill-rule:evenodd" d="m125.8 177.34l2.2-0.25-0.4-0.86-1.8-0.79v1.9z"/>
    <path id="path227" style="stroke:#000000;stroke-width:.036;stroke-miterlimit:10;fill-rule:evenodd" d="m158.78 178.17l2.05-2.84-1.84-1.55v2.45l-2.05 0.36 1.84 1.58z"/>
    <path id="path229" style="stroke:#000000;stroke-width:.036;stroke-miterlimit:10;fill-rule:evenodd" d="m144.02 181.3l3.45-0.43-0.14-2.41-1.77 1.69-1.69-1.26 0.15 2.41z"/>
    <path id="path231" style="stroke:#000000;stroke-width:.036;stroke-miterlimit:10;fill-rule:evenodd" d="m129.11 166.33l2.13-0.65-0.58-0.79-1.91-0.43 0.36 1.87z"/>
    <path id="path233" style="stroke:#000000;stroke-width:.036;stroke-miterlimit:10;fill-rule:evenodd" d="m142.18 161.47l2.09-0.65-0.58-0.76-1.9-0.43 0.39 1.84z"/>
    <path id="path235" style="stroke:#000000;stroke-width:.036;stroke-miterlimit:10;fill-rule:evenodd" d="m129.29 183l2.2-0.22-0.4-0.86-1.8-0.8v1.88z"/>
    <path id="path237" style="stroke:#000000;stroke-width:.036;stroke-miterlimit:10;fill-rule:evenodd" d="m137.14 190.09l1.87 1.19 0.22-0.94-0.9-1.73-1.19 1.48z"/>
    <path id="path239" style="stroke:#000000;stroke-width:.036;stroke-miterlimit:10;fill-rule:evenodd" d="m110.54 194.41l-1.8 1.33 0.82 0.54 1.95-0.25-0.97-1.62z"/>
    <path id="path241" style="stroke:#000000;stroke-width:.036;stroke-miterlimit:10;fill-rule:evenodd" d="m125.69 187.53l-1.76 1.33 0.83 0.51 1.94-0.22-1.01-1.62z"/>
    <path id="path243" style="stroke:#000000;stroke-width:.036;stroke-miterlimit:10;fill-rule:evenodd" d="m129.22 195.31l-1.76 1.33 0.79 0.54 1.94-0.25-0.97-1.62z"/>
    <path id="path245" style="stroke:#000000;stroke-width:.036;stroke-miterlimit:10;fill-rule:evenodd" d="m103.7 184.08l1.22 2.88 2.02-0.69-1.88-1.15 0.69-1.73-2.05 0.69z"/>
    <path id="path247" style="stroke:#000000;stroke-width:.036;stroke-miterlimit:10;fill-rule:evenodd" d="m98.981 193.72l1.369 3.24 2.27-0.75-2.13-1.3 0.79-1.94-2.299 0.75z"/>
    <path id="path249" style="stroke:#000000;stroke-width:.036;stroke-miterlimit:10;fill-rule:evenodd" d="m114.96 190.48l3.5-0.25v-2.41l-1.88 1.58-1.58-1.33-0.04 2.41z"/>
    <path id="path251" style="stroke:#000000;stroke-width:.036;stroke-miterlimit:10;fill-rule:evenodd" d="m129.87 194.34l1.94-0.11v-1.33l-1.04 0.86-0.9-0.76v1.34z"/>
    <path id="path253" style="stroke:#000000;stroke-width:.036;stroke-miterlimit:10;fill-rule:evenodd" d="m131.42 200.82l-1.77 1.33 0.79 0.54 1.95-0.25-0.97-1.62z"/>
    <path id="path255" style="stroke:#000000;stroke-width:.036;stroke-miterlimit:10;fill-rule:evenodd" d="m146.43 198.62l-1.77 1.33 0.83 0.54 1.91-0.25-0.97-1.62z"/>
    <path id="path257" style="stroke:#000000;stroke-width:.036;stroke-miterlimit:10;fill-rule:evenodd" d="m148.62 190.95l-1.76 1.3 0.83 0.54 1.91-0.22-0.98-1.62z"/>
    <path id="path259" style="stroke:#000000;stroke-width:.036;stroke-miterlimit:10;fill-rule:evenodd" d="m156.69 195.56l-1.77 0.79 0.83 0.29 1.91-0.14-0.97-0.94z"/>
    <path id="path261" style="stroke:#000000;stroke-width:.036;stroke-miterlimit:10;fill-rule:evenodd" d="m165.51 192.21l-1.8 1.33 0.83 0.54 1.94-0.25-0.97-1.62z"/>
    <path id="path263" style="stroke:#000000;stroke-width:.036;stroke-miterlimit:10;fill-rule:evenodd" d="m180.34 178.64l-1.76 1.33 0.79 0.54 1.94-0.21-0.97-1.66z"/>
    <path id="path265" style="stroke:#000000;stroke-width:.036;stroke-miterlimit:10;fill-rule:evenodd" d="m188.4 167.84l-1.76 1.33 0.79 0.54 1.95-0.25-0.98-1.62z"/>
    <path id="path267" style="stroke:#000000;stroke-width:.036;stroke-miterlimit:10;fill-rule:evenodd" d="m189.88 177.74l-1.8 1.33 0.83 0.54 1.94-0.25-0.97-1.62z"/>
    <path id="path269" style="stroke:#000000;stroke-width:.036;stroke-miterlimit:10;fill-rule:evenodd" d="m173.14 181.74l2.05-2.85-1.83-1.55 0.03 2.45-2.09 0.36 1.84 1.59z"/>
    <path id="path271" style="stroke:#000000;stroke-width:.036;stroke-miterlimit:10;fill-rule:evenodd" d="m157.08 186.74l1.05 3.35 2.34-0.54-1.98-1.48 0.97-1.87-2.38 0.54z"/>
    <path id="path273" style="stroke:#000000;stroke-width:.036;stroke-miterlimit:10;fill-rule:evenodd" d="m178.9 172.63l1.04 3.35 2.34-0.54-1.98-1.48 0.94-1.87-2.34 0.54z"/>
    <path id="path275" style="stroke:#000000;stroke-width:.036;stroke-miterlimit:10;fill-rule:evenodd" d="m174.15 188l1.01 3.35 2.37-0.54-2.01-1.48 0.97-1.83-2.34 0.5z"/>
    <path id="path277" style="stroke:#000000;stroke-width:.036;stroke-miterlimit:10;fill-rule:evenodd" d="m115.5 199.02l1.05 3.34 2.34-0.54-1.98-1.47 0.93-1.87-2.34 0.54z"/>
    <path id="path279" style="stroke:#000000;stroke-width:.036;stroke-miterlimit:10;fill-rule:evenodd" d="m109.89 171.4l2.12-0.64-0.57-0.79-1.91-0.44 0.36 1.87z"/>
    <path id="path281" style="stroke:#000000;stroke-width:.036;stroke-miterlimit:10;fill-rule:evenodd" d="m177.32 149.59l2.12-0.65-0.61-0.76-1.87-0.46 0.36 1.87z"/>
    <path id="path283" style="stroke:#000000;stroke-width:.036;stroke-miterlimit:10;fill-rule:evenodd" d="m166.66 210.5c-1.48-5.11-0.04-12.1 1.98-17.06 1.87-5.08 0.29-7.35 9.54-12.78 9.29-5.58 33.55-16.1 45.72-19.88 11.95-3.81 19.62-4.17 26.32-2.59 6.58 1.55 10.72 7.96 13.68 11.88 2.8 3.78 3.34 5.15 3.99 11.06 0.61 5.83 2.09 18.61 0.11 24.04-2.09 5.3-5.04 4.65-12.31 8.21-7.38 3.53-22.65 10.33-31.36 12.93-8.67 2.55-12.81 2.59-20.59 2.19-7.96-0.43-20.23-2.09-26.42-4.97-6.27-3.13-9.22-7.99-10.66-13.03z"/>
    <path id="path285" style="fill-rule:evenodd;stroke:#000000;stroke-width:.036;stroke-miterlimit:10;fill:#a87410" d="m264.87 178.14c1.26 2.73 2.41 13.86 2.19 18.64-0.28 4.5 0.18 5.48-3.88 8.9-4.18 3.31-13.47 8.38-21.06 11.62-7.78 3.24-16.31 6.52-24.92 7.89-8.67 1.19-19.11 0.36-26.46-0.54-7.41-1.12-13.89-3.56-17.49-5.55-3.64-2.01-3.28-3.42-4.07-6.3-0.9-2.98-1.37-8.71-0.83-11.19 0.54-2.52-0.97-4.72 4.07-3.82 5 0.87 16.85 7.56 25.81 9 8.82 1.37 19.44 0.94 27-0.9 7.42-2.05 11.99-6.37 17.75-10.58 5.83-4.32 12.56-11.66 16.45-14.54 3.46-2.89 4.25-5.33 5.44-2.63z"/>
    <path id="path287" style="fill-rule:evenodd;stroke:#000000;stroke-width:.036;stroke-miterlimit:10;fill:#fdd025" d="m258.42 176.84c2.56-4.61 0.58-9.5-2.19-12.35-2.92-3.02-7.96-5.33-14.73-5.11-6.87 0.25-17.92 3.56-25.95 6.44-8.14 2.81-15.73 7.06-22.11 10.23-6.48 3.06-12.49 5.11-16.09 7.95-3.71 2.78-5.04 6.3-5.36 8.36-0.36 1.83 0.07 1.29 3.63 3.09 3.6 1.8 9.62 6.37 17.46 7.74 7.71 1.15 20.45 1.44 28.52-0.39 7.92-2.06 12.85-6.59 19.08-10.98 6.22-4.43 15.01-10.44 17.74-14.98z"/>
    <path id="path289" style="stroke:#000000;stroke-width:.036;stroke-miterlimit:10;fill-rule:evenodd" d="m223.61 180.94l3.49-0.46-0.14-2.42-1.8 1.73-1.66-1.26 0.11 2.41z"/>
    <path id="path291" style="stroke:#000000;stroke-width:.036;stroke-miterlimit:10;fill-rule:evenodd" d="m195.68 181.09l2.05-2.85-1.84-1.54v2.48l-2.05 0.36 1.84 1.55z"/>
    <path id="path293" style="stroke:#000000;stroke-width:.036;stroke-miterlimit:10;fill-rule:evenodd" d="m232.04 175.18l2.12-0.64-0.58-0.8-1.9-0.43 0.36 1.87z"/>
    <path id="path295" style="stroke:#000000;stroke-width:.036;stroke-miterlimit:10;fill-rule:evenodd" d="m222.64 177.49l2.12-0.65-0.57-0.76-1.91-0.46 0.36 1.87z"/>
    <path id="path297" style="stroke:#000000;stroke-width:.036;stroke-miterlimit:10;fill-rule:evenodd" d="m216.48 182.92l2.09-0.64-0.57-0.8-1.88-0.43 0.36 1.87z"/>
    <path id="path299" style="stroke:#000000;stroke-width:.036;stroke-miterlimit:10;fill-rule:evenodd" d="m212.74 178.03l2.09-0.65-0.58-0.79-1.87-0.43 0.36 1.87z"/>
    <path id="path301" style="stroke:#000000;stroke-width:.036;stroke-miterlimit:10;fill-rule:evenodd" d="m206.51 182.64l2.13-0.65-0.58-0.79-1.91-0.44 0.36 1.88z"/>
    <path id="path303" style="stroke:#000000;stroke-width:.036;stroke-miterlimit:10;fill-rule:evenodd" d="m202.3 179.11l2.12-0.65-0.57-0.79-1.91-0.43 0.36 1.87z"/>
    <path id="path305" style="stroke:#000000;stroke-width:.036;stroke-miterlimit:10;fill-rule:evenodd" d="m189.95 192.18l2.13-0.65-0.58-0.79-1.91-0.44 0.36 1.88z"/>
    <path id="path307" style="stroke:#000000;stroke-width:.036;stroke-miterlimit:10;fill-rule:evenodd" d="m186.21 187.28l2.12-0.65-0.57-0.79-1.91-0.43 0.36 1.87z"/>
    <path id="path309" style="stroke:#000000;stroke-width:.036;stroke-miterlimit:10;fill-rule:evenodd" d="m240.32 189.19l2.05-2.81-1.87-1.58 0.03 2.48-2.05 0.36 1.84 1.55z"/>
    <path id="path311" style="stroke:#000000;stroke-width:.036;stroke-miterlimit:10;fill-rule:evenodd" d="m226.82 187.53l3.45-0.43-0.11-2.41-1.8 1.69-1.65-1.23 0.11 2.38z"/>
    <path id="path313" style="stroke:#000000;stroke-width:.036;stroke-miterlimit:10;fill-rule:evenodd" d="m205.36 190.34l3.46-0.47-0.11-2.41-1.8 1.73-1.66-1.26 0.11 2.41z"/>
    <path id="path315" style="stroke:#000000;stroke-width:.036;stroke-miterlimit:10;fill-rule:evenodd" d="m211.95 172.56l2.12-0.65-0.57-0.76-1.91-0.47 0.36 1.88z"/>
    <path id="path317" style="stroke:#000000;stroke-width:.036;stroke-miterlimit:10;fill-rule:evenodd" d="m224.98 167.7l2.12-0.65-0.57-0.76-1.91-0.43 0.36 1.84z"/>
    <path id="path319" style="stroke:#000000;stroke-width:.036;stroke-miterlimit:10;fill-rule:evenodd" d="m192.87 185.84l2.09-0.65-0.58-0.75-1.91-0.44 0.4 1.84z"/>
    <path id="path321" style="stroke:#000000;stroke-width:.036;stroke-miterlimit:10;fill-rule:evenodd" d="m217.46 190.45l2.12-0.65-0.58-0.76-1.9-0.43 0.36 1.84z"/>
    <path id="path323" style="stroke:#000000;stroke-width:.036;stroke-miterlimit:10;fill-rule:evenodd" d="m239.67 169.53l2.05-2.84-1.84-1.55v2.45l-2.05 0.36 1.84 1.58z"/>
    <path id="path325" style="stroke:#000000;stroke-width:.036;stroke-miterlimit:10;fill-rule:evenodd" d="m242.87 176.44l2.13-0.64-0.58-0.76-1.91-0.43 0.36 1.83z"/>
    <path id="path327" style="stroke:#000000;stroke-width:.036;stroke-miterlimit:10;fill-rule:evenodd" d="m234.38 184.62l2.08-0.65-0.57-0.79-1.91-0.44 0.4 1.88z"/>
    <path id="path329" style="stroke:#000000;stroke-width:.036;stroke-miterlimit:10;fill-rule:evenodd" d="m230.16 181.05l2.09-0.65-0.57-0.75-1.91-0.43 0.39 1.83z"/>
    <path id="path331" style="stroke:#000000;stroke-width:.036;stroke-miterlimit:10;fill-rule:evenodd" d="m220.01 192.25l2.13-0.65-0.58-0.76-1.91-0.43 0.36 1.84z"/>
    <path id="path333" style="stroke:#000000;stroke-width:.036;stroke-miterlimit:10;fill-rule:evenodd" d="m211.08 191.13l2.13-0.65-0.58-0.79-1.91-0.43 0.36 1.87z"/>
    <path id="path335" style="stroke:#000000;stroke-width:.036;stroke-miterlimit:10;fill-rule:evenodd" d="m206.76 199.41l2.24-0.21-0.44-0.9-1.76-0.8-0.04 1.91z"/>
    <path id="path337" style="stroke:#000000;stroke-width:.036;stroke-miterlimit:10;fill-rule:evenodd" d="m201.18 191.64l2.13-0.65-0.58-0.76-1.9-0.43 0.35 1.84z"/>
    <path id="path339" style="stroke:#000000;stroke-width:.036;stroke-miterlimit:10;fill-rule:evenodd" d="m197.08 197.18l2.2-0.22-0.44-0.86-1.76-0.79v1.87z"/>
    <path id="path341" style="stroke:#000000;stroke-width:.036;stroke-miterlimit:10;fill-rule:evenodd" d="m230.06 198.01l2.05-2.81-1.87-1.58 0.03 2.48-2.09 0.36 1.88 1.55z"/>
    <path id="path343" style="stroke:#000000;stroke-width:.036;stroke-miterlimit:10;fill-rule:evenodd" d="m215.26 201.18l3.49-0.44-0.14-2.41-1.77 1.69-1.69-1.26 0.11 2.42z"/>
    <path id="path345" style="stroke:#000000;stroke-width:.036;stroke-miterlimit:10;fill-rule:evenodd" d="m200.39 186.2l2.13-0.65-0.58-0.79-1.91-0.43 0.36 1.87z"/>
    <path id="path347" style="stroke:#000000;stroke-width:.036;stroke-miterlimit:10;fill-rule:evenodd" d="m213.42 181.34l2.13-0.65-0.58-0.75-1.9-0.47 0.35 1.87z"/>
    <path id="path349" style="stroke:#000000;stroke-width:.036;stroke-miterlimit:10;fill-rule:evenodd" d="m200.57 202.87l2.2-0.22-0.43-0.86-1.77-0.79v1.87z"/>
    <path id="path351" style="stroke:#000000;stroke-width:.036;stroke-miterlimit:10;fill-rule:evenodd" d="m208.42 209.92l1.84 1.23 0.25-0.94-0.9-1.76-1.19 1.47z"/>
    <path id="path353" style="stroke:#000000;stroke-width:.036;stroke-miterlimit:10;fill-rule:evenodd" d="m181.78 214.28l-1.76 1.33 0.82 0.54 1.91-0.25-0.97-1.62z"/>
    <path id="path355" style="stroke:#000000;stroke-width:.036;stroke-miterlimit:10;fill-rule:evenodd" d="m196.97 207.37l-1.76 1.33 0.83 0.54 1.9-0.22-0.97-1.65z"/>
    <path id="path357" style="stroke:#000000;stroke-width:.036;stroke-miterlimit:10;fill-rule:evenodd" d="m200.46 215.18l-1.76 1.33 0.83 0.54 1.94-0.25-1.01-1.62z"/>
    <path id="path359" style="stroke:#000000;stroke-width:.036;stroke-miterlimit:10;fill-rule:evenodd" d="m174.98 203.95l1.18 2.84 2.06-0.68-1.88-1.12 0.69-1.73-2.05 0.69z"/>
    <path id="path361" style="stroke:#000000;stroke-width:.036;stroke-miterlimit:10;fill-rule:evenodd" d="m170.26 213.6l1.37 3.2 2.27-0.76-2.13-1.26 0.8-1.94-2.31 0.76z"/>
    <path id="path363" style="stroke:#000000;stroke-width:.036;stroke-miterlimit:10;fill-rule:evenodd" d="m186.24 210.32l3.5-0.22v-2.41l-1.88 1.59-1.62-1.37v2.41z"/>
    <path id="path365" style="stroke:#000000;stroke-width:.036;stroke-miterlimit:10;fill-rule:evenodd" d="m201.15 214.21l1.91-0.15 0.03-1.33-1.04 0.9-0.9-0.75v1.33z"/>
    <path id="path367" style="stroke:#000000;stroke-width:.036;stroke-miterlimit:10;fill-rule:evenodd" d="m202.7 220.69l-1.77 1.33 0.79 0.54 1.95-0.25-0.97-1.62z"/>
    <path id="path369" style="stroke:#000000;stroke-width:.036;stroke-miterlimit:10;fill-rule:evenodd" d="m217.71 218.49l-1.77 1.33 0.8 0.54 1.94-0.25-0.97-1.62z"/>
    <path id="path371" style="stroke:#000000;stroke-width:.036;stroke-miterlimit:10;fill-rule:evenodd" d="m219.9 210.79l-1.76 1.33 0.79 0.54 1.95-0.25-0.98-1.62z"/>
    <path id="path373" style="stroke:#000000;stroke-width:.036;stroke-miterlimit:10;fill-rule:evenodd" d="m227.97 215.43l-1.77 0.76 0.8 0.32 1.94-0.14-0.97-0.94z"/>
    <path id="path375" style="stroke:#000000;stroke-width:.036;stroke-miterlimit:10;fill-rule:evenodd" d="m236.75 212.08l-1.76 1.34 0.83 0.5 1.9-0.22-0.97-1.62z"/>
    <path id="path377" style="stroke:#000000;stroke-width:.036;stroke-miterlimit:10;fill-rule:evenodd" d="m251.62 198.51l-1.8 1.33 0.83 0.54 1.94-0.25-0.97-1.62z"/>
    <path id="path379" style="stroke:#000000;stroke-width:.036;stroke-miterlimit:10;fill-rule:evenodd" d="m259.68 187.71l-1.8 1.33 0.83 0.54 1.95-0.25-0.98-1.62z"/>
    <path id="path381" style="stroke:#000000;stroke-width:.036;stroke-miterlimit:10;fill-rule:evenodd" d="m261.12 197.61l-1.76 1.33 0.83 0.51 1.91-0.22-0.98-1.62z"/>
    <path id="path383" style="stroke:#000000;stroke-width:.036;stroke-miterlimit:10;fill-rule:evenodd" d="m244.42 201.57l2.05-2.81-1.83-1.58v2.48l-2.06 0.36 1.84 1.55z"/>
    <path id="path385" style="stroke:#000000;stroke-width:.036;stroke-miterlimit:10;fill-rule:evenodd" d="m228.36 206.58l1.05 3.34 2.34-0.5-1.98-1.51 0.94-1.84-2.35 0.51z"/>
    <path id="path387" style="stroke:#000000;stroke-width:.036;stroke-miterlimit:10;fill-rule:evenodd" d="m250.18 192.5l1.01 3.31 2.38-0.5-1.98-1.48 0.93-1.87-2.34 0.54z"/>
    <path id="path389" style="stroke:#000000;stroke-width:.036;stroke-miterlimit:10;fill-rule:evenodd" d="m245.39 207.87l1.05 3.35 2.34-0.54-1.98-1.48 0.97-1.87-2.38 0.54z"/>
    <path id="path391" style="stroke:#000000;stroke-width:.036;stroke-miterlimit:10;fill-rule:evenodd" d="m186.78 218.85l1.01 3.35 2.38-0.54-1.98-1.48 0.94-1.83-2.35 0.5z"/>
    <path id="path393" style="stroke:#000000;stroke-width:.036;stroke-miterlimit:10;fill-rule:evenodd" d="m181.17 191.24l2.09-0.65-0.58-0.75-1.91-0.44 0.4 1.84z"/>
    <path id="path395" style="stroke:#000000;stroke-width:.036;stroke-miterlimit:10;fill-rule:evenodd" d="m248.6 169.46l2.08-0.65-0.57-0.79-1.91-0.43 0.4 1.87z"/>
    <path id="path397" style="stroke:#000000;stroke-width:.036;stroke-miterlimit:10;fill-rule:evenodd" d="m218.07 236.2c-1.48-5.11-0.04-12.09 1.98-17.06 1.87-5.08 0.29-7.34 9.54-12.78 9.29-5.58 33.55-16.09 45.72-19.87 11.95-3.82 19.62-4.18 26.31-2.59 6.59 1.54 10.73 7.95 13.68 11.88 2.81 3.78 3.35 5.14 4 11.05 0.61 5.83 2.09 18.61 0.11 24.05-2.09 5.29-5.04 4.64-12.32 8.21-7.38 3.52-22.64 10.33-31.35 12.92-8.68 2.56-12.82 2.59-20.59 2.2-7.96-0.44-20.23-2.09-26.43-4.97-6.26-3.14-9.21-8-10.65-13.04z"/>
    <path id="path399" style="fill-rule:evenodd;stroke:#000000;stroke-width:.036;stroke-miterlimit:10;fill:#a87410" d="m316.28 203.84c1.26 2.74 2.41 13.86 2.19 18.65-0.29 4.5 0.18 5.47-3.89 8.89-4.17 3.42-13.46 8.28-21.06 11.66-7.77 3.24-16.31 6.56-24.91 7.85-8.68 1.19-19.11 0.36-26.46-0.54-7.41-1.11-13.89-3.56-17.49-5.54-3.64-2.02-3.28-3.42-4.07-6.3-0.9-2.99-1.37-8.71-0.83-11.2 0.54-2.52-0.97-4.71 4.07-3.81 5 0.86 16.85 7.56 25.81 9 8.82 1.36 19.44 0.93 27-0.9 7.42-2.05 11.99-6.37 17.75-10.59 5.83-4.32 12.56-11.66 16.45-14.54 3.46-2.88 4.25-5.33 5.44-2.63z"/>
    <path id="path401" style="fill-rule:evenodd;stroke:#000000;stroke-width:.036;stroke-miterlimit:10;fill:#fdd025" d="m309.87 202.54c2.52-4.6 0.61-9.5-2.23-12.34-2.92-3.03-7.96-5.33-14.73-5.12-6.87 0.26-17.93 3.57-25.95 6.45-8.14 2.81-15.74 7.05-22.11 10.22-6.48 3.06-12.49 5.11-16.09 7.96-3.71 2.77-5.04 6.3-5.36 8.35-0.36 1.84 0.07 1.3 3.63 3.1 3.6 1.8 9.61 6.37 17.46 7.74 7.71 1.15 20.45 1.44 28.52-0.4 7.92-2.05 12.85-6.59 19.08-10.98 6.19-4.43 15.08-10.44 17.78-14.98z"/>
    <path id="path403" style="stroke:#000000;stroke-width:.036;stroke-miterlimit:10;fill-rule:evenodd" d="m275.02 206.65l3.49-0.47-0.14-2.41-1.8 1.73-1.66-1.26 0.11 2.41z"/>
    <path id="path405" style="stroke:#000000;stroke-width:.036;stroke-miterlimit:10;fill-rule:evenodd" d="m247.08 206.79l2.06-2.84-1.84-1.55v2.48l-2.05 0.36 1.83 1.55z"/>
    <path id="path407" style="stroke:#000000;stroke-width:.036;stroke-miterlimit:10;fill-rule:evenodd" d="m283.44 200.89l2.13-0.65-0.58-0.79-1.91-0.43 0.36 1.87z"/>
    <path id="path409" style="stroke:#000000;stroke-width:.036;stroke-miterlimit:10;fill-rule:evenodd" d="m274.05 203.19l2.12-0.64-0.57-0.76-1.91-0.43 0.36 1.83z"/>
    <path id="path411" style="stroke:#000000;stroke-width:.036;stroke-miterlimit:10;fill-rule:evenodd" d="m267.89 208.63l2.13-0.65-0.61-0.79-1.88-0.43 0.36 1.87z"/>
    <path id="path413" style="stroke:#000000;stroke-width:.036;stroke-miterlimit:10;fill-rule:evenodd" d="m264.15 203.73l2.09-0.64-0.58-0.8-1.87-0.43 0.36 1.87z"/>
    <path id="path415" style="stroke:#000000;stroke-width:.036;stroke-miterlimit:10;fill-rule:evenodd" d="m257.92 208.34l2.12-0.65-0.57-0.79-1.91-0.43 0.36 1.87z"/>
    <path id="path417" style="stroke:#000000;stroke-width:.036;stroke-miterlimit:10;fill-rule:evenodd" d="m253.71 204.81l2.12-0.64-0.57-0.8-1.91-0.43 0.36 1.87z"/>
    <path id="path419" style="stroke:#000000;stroke-width:.036;stroke-miterlimit:10;fill-rule:evenodd" d="m241.36 217.88l2.12-0.65-0.57-0.79-1.91-0.43 0.36 1.87z"/>
    <path id="path421" style="stroke:#000000;stroke-width:.036;stroke-miterlimit:10;fill-rule:evenodd" d="m237.62 212.98l2.12-0.64-0.58-0.79-1.9-0.44 0.36 1.87z"/>
    <path id="path423" style="stroke:#000000;stroke-width:.036;stroke-miterlimit:10;fill-rule:evenodd" d="m291.72 214.93l2.06-2.85-1.87-1.58 0.03 2.48-2.05 0.36 1.83 1.59z"/>
    <path id="path425" style="stroke:#000000;stroke-width:.036;stroke-miterlimit:10;fill-rule:evenodd" d="m278.22 213.27l3.5-0.47-0.15-2.41-1.8 1.69-1.65-1.22 0.1 2.41z"/>
    <path id="path427" style="stroke:#000000;stroke-width:.036;stroke-miterlimit:10;fill-rule:evenodd" d="m256.77 216.04l3.45-0.46-0.1-2.42-1.8 1.73-1.66-1.26 0.11 2.41z"/>
    <path id="path429" style="stroke:#000000;stroke-width:.036;stroke-miterlimit:10;fill-rule:evenodd" d="m263.36 198.26l2.12-0.65-0.58-0.75-1.9-0.44 0.36 1.84z"/>
    <path id="path431" style="stroke:#000000;stroke-width:.036;stroke-miterlimit:10;fill-rule:evenodd" d="m276.39 193.4l2.12-0.65-0.57-0.75-1.91-0.44 0.36 1.84z"/>
    <path id="path433" style="stroke:#000000;stroke-width:.036;stroke-miterlimit:10;fill-rule:evenodd" d="m244.28 211.54l2.08-0.64-0.57-0.76-1.87-0.43 0.36 1.83z"/>
    <path id="path435" style="stroke:#000000;stroke-width:.036;stroke-miterlimit:10;fill-rule:evenodd" d="m268.86 216.15l2.13-0.64-0.58-0.76-1.91-0.43 0.36 1.83z"/>
    <path id="path437" style="stroke:#000000;stroke-width:.036;stroke-miterlimit:10;fill-rule:evenodd" d="m291.08 195.24l2.05-2.85-1.84-1.55v2.45l-2.05 0.36 1.84 1.59z"/>
    <path id="path439" style="stroke:#000000;stroke-width:.036;stroke-miterlimit:10;fill-rule:evenodd" d="m294.32 202.15l2.08-0.65-0.57-0.76-1.91-0.43 0.4 1.84z"/>
    <path id="path441" style="stroke:#000000;stroke-width:.036;stroke-miterlimit:10;fill-rule:evenodd" d="m285.78 210.32l2.09-0.65-0.57-0.79-1.88-0.43 0.36 1.87z"/>
    <path id="path443" style="stroke:#000000;stroke-width:.036;stroke-miterlimit:10;fill-rule:evenodd" d="m281.57 206.76l2.09-0.65-0.58-0.76-1.87-0.43 0.36 1.84z"/>
    <path id="path445" style="stroke:#000000;stroke-width:.036;stroke-miterlimit:10;fill-rule:evenodd" d="m271.42 217.99l2.12-0.65-0.57-0.79-1.91-0.43 0.36 1.87z"/>
    <path id="path447" style="stroke:#000000;stroke-width:.036;stroke-miterlimit:10;fill-rule:evenodd" d="m262.49 216.84l2.13-0.65-0.58-0.79-1.91-0.44 0.36 1.88z"/>
    <path id="path449" style="stroke:#000000;stroke-width:.036;stroke-miterlimit:10;fill-rule:evenodd" d="m258.21 225.12l2.19-0.22-0.43-0.9-1.76-0.79v1.91z"/>
    <path id="path451" style="stroke:#000000;stroke-width:.036;stroke-miterlimit:10;fill-rule:evenodd" d="m252.59 217.34l2.13-0.65-0.58-0.75-1.91-0.44 0.36 1.84z"/>
    <path id="path453" style="stroke:#000000;stroke-width:.036;stroke-miterlimit:10;fill-rule:evenodd" d="m248.49 222.88l2.19-0.21-0.39-0.87-1.8-0.79v1.87z"/>
    <path id="path455" style="stroke:#000000;stroke-width:.036;stroke-miterlimit:10;fill-rule:evenodd" d="m281.46 223.71l2.06-2.81-1.88-1.58 0.04 2.48-2.05 0.36 1.83 1.55z"/>
    <path id="path457" style="stroke:#000000;stroke-width:.036;stroke-miterlimit:10;fill-rule:evenodd" d="m266.7 226.88l3.46-0.43-0.14-2.41-1.77 1.69-1.69-1.26 0.14 2.41z"/>
    <path id="path459" style="stroke:#000000;stroke-width:.036;stroke-miterlimit:10;fill-rule:evenodd" d="m251.8 211.9l2.12-0.64-0.57-0.79-1.91-0.44 0.36 1.87z"/>
    <path id="path461" style="stroke:#000000;stroke-width:.036;stroke-miterlimit:10;fill-rule:evenodd" d="m264.83 207.04l2.13-0.64-0.58-0.76-1.91-0.47 0.36 1.87z"/>
    <path id="path463" style="stroke:#000000;stroke-width:.036;stroke-miterlimit:10;fill-rule:evenodd" d="m251.98 228.57l2.2-0.21-0.4-0.87-1.8-0.79v1.87z"/>
    <path id="path465" style="stroke:#000000;stroke-width:.036;stroke-miterlimit:10;fill-rule:evenodd" d="m259.83 235.63l1.87 1.22 0.22-0.93-0.9-1.73-1.19 1.44z"/>
    <path id="path467" style="stroke:#000000;stroke-width:.036;stroke-miterlimit:10;fill-rule:evenodd" d="m233.19 239.98l-1.77 1.34 0.83 0.54 1.91-0.26-0.97-1.62z"/>
    <path id="path469" style="stroke:#000000;stroke-width:.036;stroke-miterlimit:10;fill-rule:evenodd" d="m248.38 233.11l-1.76 1.29 0.82 0.54 1.91-0.21-0.97-1.62z"/>
    <path id="path471" style="stroke:#000000;stroke-width:.036;stroke-miterlimit:10;fill-rule:evenodd" d="m251.91 240.88l-1.8 1.34 0.83 0.54 1.94-0.26-0.97-1.62z"/>
    <path id="path473" style="stroke:#000000;stroke-width:.036;stroke-miterlimit:10;fill-rule:evenodd" d="m226.38 229.65l1.19 2.85 2.05-0.65-1.87-1.15 0.69-1.73-2.06 0.68z"/>
    <path id="path475" style="stroke:#000000;stroke-width:.036;stroke-miterlimit:10;fill-rule:evenodd" d="m221.67 239.3l1.37 3.2 2.26-0.75-2.12-1.26 0.79-1.95-2.3 0.76z"/>
    <path id="path477" style="stroke:#000000;stroke-width:.036;stroke-miterlimit:10;fill-rule:evenodd" d="m237.65 236.02l3.49-0.21v-2.41l-1.87 1.58-1.62-1.37v2.41z"/>
    <path id="path479" style="stroke:#000000;stroke-width:.036;stroke-miterlimit:10;fill-rule:evenodd" d="m252.56 239.91l1.94-0.11v-1.36l-1.04 0.9-0.9-0.76v1.33z"/>
    <path id="path481" style="stroke:#000000;stroke-width:.036;stroke-miterlimit:10;fill-rule:evenodd" d="m254.1 246.39l-1.76 1.33 0.79 0.54 1.95-0.25-0.98-1.62z"/>
    <path id="path483" style="stroke:#000000;stroke-width:.036;stroke-miterlimit:10;fill-rule:evenodd" d="m269.12 244.2l-1.77 1.33 0.79 0.54 1.95-0.25-0.97-1.62z"/>
    <path id="path485" style="stroke:#000000;stroke-width:.036;stroke-miterlimit:10;fill-rule:evenodd" d="m271.31 236.49l-1.76 1.33 0.79 0.54 1.94-0.25-0.97-1.62z"/>
    <path id="path487" style="stroke:#000000;stroke-width:.036;stroke-miterlimit:10;fill-rule:evenodd" d="m279.38 241.14l-1.77 0.75 0.79 0.33 1.95-0.15-0.97-0.93z"/>
    <path id="path489" style="stroke:#000000;stroke-width:.036;stroke-miterlimit:10;fill-rule:evenodd" d="m288.16 237.79l-1.76 1.33 0.82 0.54 1.91-0.25-0.97-1.62z"/>
    <path id="path491" style="stroke:#000000;stroke-width:.036;stroke-miterlimit:10;fill-rule:evenodd" d="m303.03 224.22l-1.77 1.33 0.8 0.54 1.94-0.25-0.97-1.62z"/>
    <path id="path493" style="stroke:#000000;stroke-width:.036;stroke-miterlimit:10;fill-rule:evenodd" d="m311.09 213.42l-1.76 1.33 0.79 0.54 1.94-0.25-0.97-1.62z"/>
    <path id="path495" style="stroke:#000000;stroke-width:.036;stroke-miterlimit:10;fill-rule:evenodd" d="m312.53 223.32l-1.76 1.33 0.83 0.5 1.9-0.21-0.97-1.62z"/>
    <path id="path497" style="stroke:#000000;stroke-width:.036;stroke-miterlimit:10;fill-rule:evenodd" d="m295.83 227.28l2.05-2.81-1.84-1.59v2.49l-2.05 0.36 1.84 1.55z"/>
    <path id="path499" style="stroke:#000000;stroke-width:.036;stroke-miterlimit:10;fill-rule:evenodd" d="m279.77 232.32l1.05 3.31 2.34-0.5-1.98-1.48 0.93-1.87-2.34 0.54z"/>
    <path id="path501" style="stroke:#000000;stroke-width:.036;stroke-miterlimit:10;fill-rule:evenodd" d="m301.59 218.2l1.01 3.32 2.37-0.51-1.98-1.47 0.94-1.88-2.34 0.54z"/>
    <path id="path503" style="stroke:#000000;stroke-width:.036;stroke-miterlimit:10;fill-rule:evenodd" d="m296.8 233.58l1.04 3.34 2.34-0.54-1.97-1.47 0.97-1.87-2.38 0.54z"/>
    <path id="path505" style="stroke:#000000;stroke-width:.036;stroke-miterlimit:10;fill-rule:evenodd" d="m238.19 244.56l1.01 3.34 2.38-0.5-1.98-1.48 0.93-1.87-2.34 0.51z"/>
    <path id="path507" style="stroke:#000000;stroke-width:.036;stroke-miterlimit:10;fill-rule:evenodd" d="m232.58 216.98l2.08-0.65-0.57-0.79-1.87-0.43 0.36 1.87z"/>
    <path id="path509" style="stroke:#000000;stroke-width:.036;stroke-miterlimit:10;fill-rule:evenodd" d="m300 195.16l2.09-0.64-0.57-0.8-1.88-0.43 0.36 1.87z"/>
    <path id="path511" style="stroke:#000000;stroke-width:.036;stroke-miterlimit:10;fill-rule:evenodd" d="m148.88 269.54c-3.86-4.86-4.58-11.3-6.45-16.27-2.09-5.04-4.89-8.75-5.11-13.75-0.22-5.15-0.32-11.34 4.25-16.49 4.64-5.26 14.4-11.45 22.86-14.4 8.21-2.95 16.02-4.61 26.64-3.17 10.62 1.4 28.84 6.7 36.47 11.45 7.38 4.72 6.01 11.48 8.1 16.27 1.98 4.57 4.21 7.96 3.92 11.56-0.43 3.52-2.81 5.54-6.3 9.54-3.67 3.96-6.59 9.46-14.97 14-8.5 4.46-26.14 10.12-35.03 12.53-9 2.27-12.28 2.81-18.04 1.08-5.83-1.91-12.53-7.6-16.34-12.35z"/>
    <path id="path513" style="fill-rule:evenodd;stroke:#000000;stroke-width:.036;stroke-miterlimit:10;fill:#a87410" d="m139.48 242.36c-1.26-3.89-0.97-7.6-0.68-10.15 0.28-2.59 1.04-5.69 2.41-5 1.26 0.68 2.73 4.85 5.25 9.03 2.52 4.03 6.27 11.48 9.44 15.41 2.91 3.74 7.3 4.93 8.46 7.74 1.08 2.84-2.24 6.01-1.77 9.11 0.36 2.91 3.28 6.44 4.03 8.49 0.72 1.98 1.52 3.39 0.29 3.24-1.37-0.32-5.65-2.66-8.28-4.79-2.7-2.12-5.51-4.82-7.59-8.1-2.24-3.6-3.28-8.1-5.22-12.38-2.02-4.21-5.15-8.78-6.34-12.6z"/>
    <path id="path515" style="fill-rule:evenodd;stroke:#000000;stroke-width:.036;stroke-miterlimit:10;fill:#a87410" d="m232.76 230.95c-1.8-0.76-2.63 3.49-7.64 7.05-5.14 3.53-14.18 10.48-22.68 14.04-8.6 3.32-22.17 4.94-28.22 6.81-6.08 1.87-6.52 2.77-7.96 4.5-1.62 1.62-1.87 2.59-0.9 5.4 1.08 2.84 3.39 9.47 7.06 10.98 3.46 1.26 8.53-1.44 13.97-2.85 5.4-1.4 12.02-2.81 18.32-5.58 6.3-2.98 13.86-7.52 18.94-11.52 4.86-4.06 8.53-9.32 10.62-12.27 2.02-2.99 1.8-2.59 1.58-5.33-0.36-2.92-1.26-10.55-3.09-11.23z"/>
    <path id="path517" style="fill-rule:evenodd;stroke:#000000;stroke-width:.036;stroke-miterlimit:10;fill:#f2c01a" d="m229.48 223.53c-1.55-2.7-4.64-7.05-10.4-9.32-5.94-2.34-17.1-3.85-24.74-4.68-7.74-1.05-14.29-2.34-20.91-1.12-6.63 1.05-14.01 5.4-18.69 8.07-4.78 2.59-9.39 4.32-9.93 7.95-0.65 3.64 3.6 9.47 6.23 14.01 2.59 4.5 6.37 9.43 9 12.56 2.34 2.99 2.34 4.9 5.83 5.44 3.56 0.46 9.25-1.66 15.12-2.63 5.9-1.08 12.78-1.19 19.37-3.64 6.37-2.59 13.89-8.06 18.68-11.41 4.54-3.38 7.6-6.3 9.32-8.75 1.77-2.55 2.56-3.92 1.12-6.48z"/>
    <path id="path519" style="stroke:#000000;stroke-width:.036;stroke-miterlimit:10;fill-rule:evenodd" d="m226.31 244.88h2.2l-0.33-0.9-1.69-0.97-0.18 1.87z"/>
    <path id="path521" style="stroke:#000000;stroke-width:.036;stroke-miterlimit:10;fill-rule:evenodd" d="m196.4 226.92l3.45 0.61 0.61-2.34-2.23 1.08-1.22-1.69-0.61 2.34z"/>
    <path id="path523" style="stroke:#000000;stroke-width:.036;stroke-miterlimit:10;fill-rule:evenodd" d="m169.72 218.71l2.77-2.09-1.26-2.05-0.75 2.37-2.06-0.28 1.3 2.05z"/>
    <path id="path525" style="stroke:#000000;stroke-width:.036;stroke-miterlimit:10;fill-rule:evenodd" d="m206.19 223.93h2.19l-0.32-0.9-1.69-0.97-0.18 1.87z"/>
    <path id="path527" style="stroke:#000000;stroke-width:.036;stroke-miterlimit:10;fill-rule:evenodd" d="m196.5 223.32l2.2 0.03-0.32-0.9-1.66-1.01-0.22 1.88z"/>
    <path id="path529" style="stroke:#000000;stroke-width:.036;stroke-miterlimit:10;fill-rule:evenodd" d="m188.98 226.66h2.23l-0.32-0.9-1.69-0.97-0.22 1.87z"/>
    <path id="path531" style="stroke:#000000;stroke-width:.036;stroke-miterlimit:10;fill-rule:evenodd" d="m186.89 220.87h2.2l-0.33-0.9-1.65-0.97-0.22 1.87z"/>
    <path id="path533" style="stroke:#000000;stroke-width:.036;stroke-miterlimit:10;fill-rule:evenodd" d="m179.58 223.42h2.24l-0.33-0.9-1.69-0.97-0.22 1.87z"/>
    <path id="path535" style="stroke:#000000;stroke-width:.036;stroke-miterlimit:10;fill-rule:evenodd" d="m176.63 218.78h2.2l-0.33-0.9-1.65-0.97-0.22 1.87z"/>
    <path id="path537" style="stroke:#000000;stroke-width:.036;stroke-miterlimit:10;fill-rule:evenodd" d="m160.9 227.56h2.23l-0.32-0.89-1.69-0.98-0.22 1.87z"/>
    <path id="path539" style="stroke:#000000;stroke-width:.036;stroke-miterlimit:10;fill-rule:evenodd" d="m158.81 221.77h2.2l-0.33-0.9-1.65-0.97-0.22 1.87z"/>
    <path id="path541" style="stroke:#000000;stroke-width:.036;stroke-miterlimit:10;fill-rule:evenodd" d="m151.5 224.32h2.2l-0.29-0.9-1.69-0.97-0.22 1.87z"/>
    <path id="path543" style="stroke:#000000;stroke-width:.036;stroke-miterlimit:10;fill-rule:evenodd" d="m209.86 239.8l2.81-2.08-1.3-2.06-0.72 2.38-2.09-0.29 1.3 2.05z"/>
    <path id="path545" style="stroke:#000000;stroke-width:.036;stroke-miterlimit:10;fill-rule:evenodd" d="m197.48 234.19l3.45 0.61 0.61-2.34-2.23 1.08-1.22-1.69-0.61 2.34z"/>
    <path id="path547" style="stroke:#000000;stroke-width:.036;stroke-miterlimit:10;fill-rule:evenodd" d="m176.16 230.41l3.46 0.61 0.61-2.34-2.23 1.08-1.22-1.69-0.62 2.34z"/>
    <path id="path549" style="stroke:#000000;stroke-width:.036;stroke-miterlimit:10;fill-rule:evenodd" d="m187.76 215.43h2.23l-0.33-0.9-1.69-0.97-0.21 1.87z"/>
    <path id="path551" style="stroke:#000000;stroke-width:.036;stroke-miterlimit:10;fill-rule:evenodd" d="m201.65 214.71h2.23l-0.32-0.9-1.69-1.01-0.22 1.91z"/>
    <path id="path553" style="stroke:#000000;stroke-width:.036;stroke-miterlimit:10;fill-rule:evenodd" d="m165.58 222.38l2.2 0.04-0.33-0.9-1.65-1.01-0.22 1.87z"/>
    <path id="path555" style="stroke:#000000;stroke-width:.036;stroke-miterlimit:10;fill-rule:evenodd" d="m187.68 234.15l2.24 0.04-0.33-0.94-1.69-0.97-0.22 1.87z"/>
    <path id="path557" style="stroke:#000000;stroke-width:.036;stroke-miterlimit:10;fill-rule:evenodd" d="m215.12 220.8l2.8-2.09-1.29-2.02-0.72 2.34-2.05-0.25 1.26 2.02z"/>
    <path id="path559" style="stroke:#000000;stroke-width:.036;stroke-miterlimit:10;fill-rule:evenodd" d="m216.12 228.39h2.24l-0.33-0.9-1.69-0.97-0.22 1.87z"/>
    <path id="path561" style="stroke:#000000;stroke-width:.036;stroke-miterlimit:10;fill-rule:evenodd" d="m205.58 233.61l2.19 0.04-0.32-0.94-1.69-0.97-0.18 1.87z"/>
    <path id="path563" style="stroke:#000000;stroke-width:.036;stroke-miterlimit:10;fill-rule:evenodd" d="m202.59 229h2.23l-0.32-0.9-1.7-1-0.21 1.9z"/>
    <path id="path565" style="stroke:#000000;stroke-width:.036;stroke-miterlimit:10;fill-rule:evenodd" d="m168.6 252.15l3.46 0.58 0.58-2.34-2.2 1.11-1.22-1.69-0.62 2.34z"/>
    <path id="path567" style="stroke:#000000;stroke-width:.036;stroke-miterlimit:10;fill-rule:evenodd" d="m155.32 229.54l2.81-2.08-1.3-2.06-0.72 2.38-2.09-0.25 1.3 2.01z"/>
    <path id="path569" style="stroke:#000000;stroke-width:.036;stroke-miterlimit:10;fill-rule:evenodd" d="m189.56 236.64l2.23 0.03-0.33-0.93-1.69-0.98-0.21 1.88z"/>
    <path id="path571" style="stroke:#000000;stroke-width:.036;stroke-miterlimit:10;fill-rule:evenodd" d="m181.38 232.89h2.24l-0.33-0.9-1.69-1.01-0.22 1.91z"/>
    <path id="path573" style="stroke:#000000;stroke-width:.036;stroke-miterlimit:10;fill-rule:evenodd" d="m173.9 236.2l2.23 0.04-0.33-0.94-1.69-0.97-0.21 1.87z"/>
    <path id="path575" style="stroke:#000000;stroke-width:.036;stroke-miterlimit:10;fill-rule:evenodd" d="m171.81 230.41l2.19 0.03-0.32-0.93-1.69-0.97-0.18 1.87z"/>
    <path id="path577" style="stroke:#000000;stroke-width:.036;stroke-miterlimit:10;fill-rule:evenodd" d="m164.5 232.96l2.2 0.04-0.33-0.94-1.65-0.97-0.22 1.87z"/>
    <path id="path579" style="stroke:#000000;stroke-width:.036;stroke-miterlimit:10;fill-rule:evenodd" d="m158.74 233.18l2.2 0.04-0.33-0.94-1.69-0.97-0.18 1.87z"/>
    <path id="path581" style="stroke:#000000;stroke-width:.036;stroke-miterlimit:10;fill-rule:evenodd" d="m197.44 245.13l2.77-2.09-1.26-2.05-0.75 2.38-2.06-0.29 1.3 2.05z"/>
    <path id="path583" style="stroke:#000000;stroke-width:.036;stroke-miterlimit:10;fill-rule:evenodd" d="m182.39 243.73l3.46 0.61 0.57-2.34-2.19 1.08-1.23-1.69-0.61 2.34z"/>
    <path id="path585" style="stroke:#000000;stroke-width:.036;stroke-miterlimit:10;fill-rule:evenodd" d="m160.36 240.63l3.46 0.61 0.57-2.34-2.19 1.12-1.23-1.73-0.61 2.34z"/>
    <path id="path587" style="stroke:#000000;stroke-width:.036;stroke-miterlimit:10;fill-rule:evenodd" d="m172.67 224.97l2.2 0.04-0.29-0.94-1.69-0.97-0.22 1.87z"/>
    <path id="path589" style="stroke:#000000;stroke-width:.036;stroke-miterlimit:10;fill-rule:evenodd" d="m186.57 224.25h2.19l-0.32-0.9-1.66-0.97-0.21 1.87z"/>
    <path id="path591" style="stroke:#000000;stroke-width:.036;stroke-miterlimit:10;fill-rule:evenodd" d="m172.6 243.69l2.2 0.04-0.33-0.9-1.65-1.01-0.22 1.87z"/>
    <path id="path593" style="stroke:#000000;stroke-width:.036;stroke-miterlimit:10;fill-rule:evenodd" d="m171.41 265.22h2.2l-0.33-0.9-1.65-0.97-0.22 1.87z"/>
    <path id="path595" style="stroke:#000000;stroke-width:.036;stroke-miterlimit:10;fill-rule:evenodd" d="m186.71 267.06h2.2l-0.29-0.9-1.69-1.01-0.22 1.91z"/>
    <path id="path597" style="stroke:#000000;stroke-width:.036;stroke-miterlimit:10;fill-rule:evenodd" d="m206.26 262.95l-0.76 2.09h0.98l1.47-1.26-1.69-0.83z"/>
    <path id="path599" style="stroke:#000000;stroke-width:.036;stroke-miterlimit:10;fill-rule:evenodd" d="m215.3 248.91l-0.76 2.09h0.97l1.48-1.22-1.69-0.87z"/>
    <path id="path601" style="stroke:#000000;stroke-width:.036;stroke-miterlimit:10;fill-rule:evenodd" d="m222.46 253.59l-0.76 2.05 0.98 0.04 1.47-1.26-1.69-0.83z"/>
    <path id="path603" style="stroke:#000000;stroke-width:.036;stroke-miterlimit:10;fill-rule:evenodd" d="m180.34 273.61l-0.76 2.09h0.94l1.51-1.26-1.69-0.83z"/>
    <path id="path605" style="stroke:#000000;stroke-width:.036;stroke-miterlimit:10;fill-rule:evenodd" d="m158.88 271.66l-0.79 2.09h0.97l1.52-1.26-1.7-0.83z"/>
    <path id="path607" style="stroke:#000000;stroke-width:.036;stroke-miterlimit:10;fill-rule:evenodd" d="m158.24 258.13l-0.76 2.05 0.97 0.04 1.48-1.26-1.69-0.83z"/>
    <path id="path609" style="stroke:#000000;stroke-width:.036;stroke-miterlimit:10;fill-rule:evenodd" d="m140.88 237.21l-0.75 2.05 0.97 0.04 1.48-1.26-1.7-0.83z"/>
    <path id="path611" style="stroke:#000000;stroke-width:.036;stroke-miterlimit:10;fill-rule:evenodd" d="m143.66 245.17l-0.76 2.09h0.97l1.48-1.26-1.69-0.83z"/>
    <path id="path613" style="stroke:#000000;stroke-width:.036;stroke-miterlimit:10;fill-rule:evenodd" d="m147.29 251.07l2.81-2.09-1.3-2.05-0.72 2.38-2.08-0.29 1.29 2.05z"/>
    <path id="path615" style="stroke:#000000;stroke-width:.036;stroke-miterlimit:10;fill-rule:evenodd" d="m153.92 265.87l2.88 1.94 1.51-1.87-2.48 0.07-0.4-2.05-1.51 1.91z"/>
    <path id="path617" style="stroke:#000000;stroke-width:.036;stroke-miterlimit:10;fill-rule:evenodd" d="m170.12 271.45l2.88 1.98 1.51-1.87-2.45 0.07-0.43-2.06-1.51 1.88z"/>
    <path id="path619" style="stroke:#000000;stroke-width:.036;stroke-miterlimit:10;fill-rule:evenodd" d="m194.92 257.95l2.59 1.76 1.33-1.69-2.19 0.07-0.36-1.8-1.37 1.66z"/>
    <path id="path621" style="stroke:#000000;stroke-width:.036;stroke-miterlimit:10;fill-rule:evenodd" d="m196.18 268.64l2.92 1.94 1.51-1.87-2.48 0.07-0.44-2.05-1.51 1.91z"/>
    <path id="path623" style="stroke:#000000;stroke-width:.036;stroke-miterlimit:10;fill-rule:evenodd" d="m207.84 257.23l2.81-2.09-1.29-2.05-0.72 2.37-2.06-0.28 1.26 2.05z"/>
    <path id="path625" style="stroke:#000000;stroke-width:.036;stroke-miterlimit:10;fill-rule:evenodd" d="m222.5 252.4l1.54-1.15-0.72-1.11-0.39 1.29-1.15-0.14 0.72 1.11z"/>
    <path id="path627" style="stroke:#000000;stroke-width:.036;stroke-miterlimit:10;fill-rule:evenodd" d="m182.68 261.4l2.59 1.77 1.33-1.66-2.19 0.08-0.36-1.84-1.37 1.65z"/>
    <path id="path629" style="stroke:#000000;stroke-width:.036;stroke-miterlimit:10;fill-rule:evenodd" d="m149.52 256.8l2.6 1.76 1.33-1.66-2.2 0.08-0.36-1.84-1.37 1.66z"/>
    <path id="path631" style="stroke:#000000;stroke-width:.036;stroke-miterlimit:10;fill-rule:evenodd" d="m149.88 234.8l2.6 1.76 1.33-1.69-2.2 0.07-0.36-1.83-1.37 1.69z"/>
    <path id="path633" style="stroke:#000000;stroke-width:.036;stroke-miterlimit:10;fill-rule:evenodd" d="m91.061 262.99c-5.148-3.53-7.812-9.25-11.196-13.43-3.492-4.28-7.416-6.77-9.144-11.48-1.692-4.76-3.924-10.73-1.152-16.96 2.7-6.44 10.152-15.48 17.208-20.84 6.912-5.55 13.823-9.33 24.333-11.34 10.51-1.98 29.56-2.67 38.23-0.51 8.5 2.09 9.33 9.04 12.78 12.93 3.46 3.78 6.41 6.15 7.31 9.75 0.65 3.46-0.86 6.12-2.98 11.05-2.16 4.9-3.35 10.98-9.83 17.97-6.73 6.84-21.57 17.78-29.38 22.82-7.85 4.79-10.73 6.7-16.81 6.7-6.19-0.07-14.221-3.31-19.369-6.66z"/>
    <path id="path635" style="fill-rule:evenodd;stroke:#000000;stroke-width:.036;stroke-miterlimit:10;fill:#a87410" d="m73.637 240.09c-2.304-3.27-3.384-7.02-3.816-9.43-0.468-2.56-0.828-5.72 0.72-5.47 1.512 0.18 4.068 3.78 7.812 6.91 3.564 3.17 9.648 8.82 13.788 11.7 4.068 2.7 8.389 2.38 10.439 4.72 1.76 2.41-0.07 6.4 1.15 9.21 1.33 2.67 5.08 5.11 6.52 6.81 1.26 1.69 2.55 2.73 1.26 2.98-1.41 0.15-6.19-0.79-9.36-1.98-3.313-1.29-6.553-2.73-9.721-5.29-3.096-2.7-5.868-6.73-8.856-10.15-3.24-3.42-7.668-6.8-9.936-10.01z"/>
    <path id="path637" style="fill-rule:evenodd;stroke:#000000;stroke-width:.036;stroke-miterlimit:10;fill:#a87410" d="m158.7 200.13c-1.98-0.07-1.4 4.07-5.07 9.11-3.78 5-10.19 14.26-17.14 20.38-7.05 6.01-19.55 11.48-24.69 15.3-5.22 3.63-5.33 4.64-6.16 6.76-0.97 1.95-0.97 3.1 0.83 5.4 1.83 2.24 6.23 8.03 10.11 8.25 3.64 0.11 7.78-4.11 12.42-7.09 4.65-3.03 10.55-6.41 15.63-10.98 5-4.79 10.87-11.49 14.4-16.89 3.42-5.4 5.18-11.55 6.26-14.97 1.01-3.46 0.9-3.1-0.18-5.58-1.22-2.6-4.46-9.62-6.41-9.69z"/>
    <path id="path639" style="fill-rule:evenodd;stroke:#000000;stroke-width:.036;stroke-miterlimit:10;fill:#f2c01a" d="m153.23 194.12c-2.34-2.16-6.55-5.18-12.78-5.62-6.44-0.32-17.35 1.7-24.95 3.28-7.63 1.37-14.32 2.27-20.227 5.47-6.12 3.17-11.376 9.29-15.192 13.5-3.744 4.03-7.596 6.95-6.984 10.69 0.504 3.71 6.48 7.82 10.296 11.34 3.78 3.42 9.108 6.99 12.492 9.15 3.24 2.05 3.708 3.85 7.235 3.31 3.46-0.68 8.28-4.43 13.5-7.2s11.92-5.26 17.32-9.54c5.29-4.61 10.65-11.88 14.14-16.67 3.32-4.68 5.26-8.28 6.12-11.19 0.8-2.96 1.26-4.58-0.97-6.52z"/>
    <path id="path641" style="stroke:#000000;stroke-width:.036;stroke-miterlimit:10;fill-rule:evenodd" d="m156.9 215.4l2.09-0.69-0.57-0.75-1.91-0.44 0.39 1.88z"/>
    <path id="path643" style="stroke:#000000;stroke-width:.036;stroke-miterlimit:10;fill-rule:evenodd" d="m122.88 207.66l3.46-0.51-0.14-2.41-1.77 1.73-1.69-1.23 0.14 2.42z"/>
    <path id="path645" style="stroke:#000000;stroke-width:.036;stroke-miterlimit:10;fill-rule:evenodd" d="m94.949 208.2l2.016-2.85-1.872-1.55 0.072 2.49-2.052 0.36 1.836 1.55z"/>
    <path id="path647" style="stroke:#000000;stroke-width:.036;stroke-miterlimit:10;fill-rule:evenodd" d="m131.24 201.79l2.08-0.69-0.57-0.79-1.91-0.39 0.4 1.87z"/>
    <path id="path649" style="stroke:#000000;stroke-width:.036;stroke-miterlimit:10;fill-rule:evenodd" d="m121.84 204.24l2.12-0.69-0.57-0.75-1.91-0.44 0.36 1.88z"/>
    <path id="path651" style="stroke:#000000;stroke-width:.036;stroke-miterlimit:10;fill-rule:evenodd" d="m115.76 209.74l2.12-0.68-0.58-0.76-1.9-0.43 0.36 1.87z"/>
    <path id="path653" style="stroke:#000000;stroke-width:.036;stroke-miterlimit:10;fill-rule:evenodd" d="m111.98 204.88l2.08-0.68-0.57-0.76-1.91-0.43 0.4 1.87z"/>
    <path id="path655" style="stroke:#000000;stroke-width:.036;stroke-miterlimit:10;fill-rule:evenodd" d="m105.82 209.6l2.09-0.68-0.58-0.76-1.91-0.43 0.4 1.87z"/>
    <path id="path657" style="stroke:#000000;stroke-width:.036;stroke-miterlimit:10;fill-rule:evenodd" d="m101.57 206.11l2.09-0.69-0.58-0.75-1.9-0.4 0.39 1.84z"/>
    <path id="path659" style="stroke:#000000;stroke-width:.036;stroke-miterlimit:10;fill-rule:evenodd" d="m89.369 219.36l2.124-0.69-0.612-0.75-1.908-0.4 0.396 1.84z"/>
    <path id="path661" style="stroke:#000000;stroke-width:.036;stroke-miterlimit:10;fill-rule:evenodd" d="m85.553 214.5l2.124-0.65-0.612-0.79-1.908-0.4 0.396 1.84z"/>
    <path id="path663" style="stroke:#000000;stroke-width:.036;stroke-miterlimit:10;fill-rule:evenodd" d="m79.433 219.21l2.088-0.68-0.576-0.76-1.908-0.39 0.396 1.83z"/>
    <path id="path665" style="stroke:#000000;stroke-width:.036;stroke-miterlimit:10;fill-rule:evenodd" d="m139.7 215.68l2.01-2.84-1.87-1.55 0.04 2.49-2.06 0.39 1.88 1.51z"/>
    <path id="path667" style="stroke:#000000;stroke-width:.036;stroke-miterlimit:10;fill-rule:evenodd" d="m126.2 214.21l3.45-0.47-0.18-2.41-1.76 1.73-1.69-1.23 0.18 2.38z"/>
    <path id="path669" style="stroke:#000000;stroke-width:.036;stroke-miterlimit:10;fill-rule:evenodd" d="m104.78 217.3l3.45-0.5-0.18-2.41-1.76 1.73-1.69-1.23 0.18 2.41z"/>
    <path id="path671" style="stroke:#000000;stroke-width:.036;stroke-miterlimit:10;fill-rule:evenodd" d="m111.11 199.45l2.09-0.69-0.58-0.75-1.9-0.43 0.39 1.87z"/>
    <path id="path673" style="stroke:#000000;stroke-width:.036;stroke-miterlimit:10;fill-rule:evenodd" d="m124.07 194.41l2.09-0.69-0.58-0.75-1.9-0.4 0.39 1.84z"/>
    <path id="path675" style="stroke:#000000;stroke-width:.036;stroke-miterlimit:10;fill-rule:evenodd" d="m92.213 212.98l2.088-0.68-0.576-0.76-1.908-0.39 0.396 1.83z"/>
    <path id="path677" style="stroke:#000000;stroke-width:.036;stroke-miterlimit:10;fill-rule:evenodd" d="m116.87 217.27l2.09-0.69-0.58-0.75-1.9-0.43 0.39 1.87z"/>
    <path id="path679" style="stroke:#000000;stroke-width:.036;stroke-miterlimit:10;fill-rule:evenodd" d="m138.76 196.03l2.02-2.88-1.88-1.55 0.08 2.48-2.06 0.4 1.84 1.55z"/>
    <path id="path681" style="stroke:#000000;stroke-width:.036;stroke-miterlimit:10;fill-rule:evenodd" d="m142.11 202.9l2.09-0.68-0.58-0.76-1.91-0.43 0.4 1.87z"/>
    <path id="path683" style="stroke:#000000;stroke-width:.036;stroke-miterlimit:10;fill-rule:evenodd" d="m133.68 211.18l2.09-0.68-0.57-0.76-1.91-0.43 0.39 1.87z"/>
    <path id="path685" style="stroke:#000000;stroke-width:.036;stroke-miterlimit:10;fill-rule:evenodd" d="m129.44 207.69l2.08-0.68-0.57-0.76-1.91-0.39 0.4 1.83z"/>
    <path id="path687" style="stroke:#000000;stroke-width:.036;stroke-miterlimit:10;fill-rule:evenodd" d="m104.34 240.31l3.46-0.51-0.14-2.41-1.77 1.73-1.69-1.22 0.14 2.41z"/>
    <path id="path689" style="stroke:#000000;stroke-width:.036;stroke-miterlimit:10;fill-rule:evenodd" d="m84.689 222.99l2.016-2.84-1.872-1.55 0.036 2.48-2.052 0.36 1.872 1.55z"/>
    <path id="path691" style="stroke:#000000;stroke-width:.036;stroke-miterlimit:10;fill-rule:evenodd" d="m119.43 219.03l2.12-0.68-0.61-0.76-1.91-0.39 0.4 1.83z"/>
    <path id="path693" style="stroke:#000000;stroke-width:.036;stroke-miterlimit:10;fill-rule:evenodd" d="m110.5 218.02l2.09-0.68-0.58-0.76-1.91-0.43 0.4 1.87z"/>
    <path id="path695" style="stroke:#000000;stroke-width:.036;stroke-miterlimit:10;fill-rule:evenodd" d="m104.42 223.53l2.08-0.68-0.57-0.76-1.91-0.43 0.4 1.87z"/>
    <path id="path697" style="stroke:#000000;stroke-width:.036;stroke-miterlimit:10;fill-rule:evenodd" d="m100.6 218.67l2.12-0.68-0.61-0.76-1.91-0.39 0.4 1.83z"/>
    <path id="path699" style="stroke:#000000;stroke-width:.036;stroke-miterlimit:10;fill-rule:evenodd" d="m94.481 223.39l2.088-0.69-0.576-0.75-1.908-0.43 0.396 1.87z"/>
    <path id="path701" style="stroke:#000000;stroke-width:.036;stroke-miterlimit:10;fill-rule:evenodd" d="m89.045 225.4l2.124-0.68-0.612-0.79-1.908-0.4 0.396 1.87z"/>
    <path id="path703" style="stroke:#000000;stroke-width:.036;stroke-miterlimit:10;fill-rule:evenodd" d="m129.54 224.65l2.02-2.85-1.87-1.54 0.07 2.48-2.09 0.36 1.87 1.55z"/>
    <path id="path705" style="stroke:#000000;stroke-width:.036;stroke-miterlimit:10;fill-rule:evenodd" d="m114.82 228l3.46-0.47-0.15-2.41-1.76 1.72-1.69-1.22 0.14 2.38z"/>
    <path id="path707" style="stroke:#000000;stroke-width:.036;stroke-miterlimit:10;fill-rule:evenodd" d="m92.933 231.96l3.456-0.51-0.144-2.41-1.764 1.73-1.692-1.23 0.144 2.42z"/>
    <path id="path709" style="stroke:#000000;stroke-width:.036;stroke-miterlimit:10;fill-rule:evenodd" d="m99.737 213.24l2.123-0.69-0.61-0.75-1.909-0.44 0.396 1.88z"/>
    <path id="path711" style="stroke:#000000;stroke-width:.036;stroke-miterlimit:10;fill-rule:evenodd" d="m112.7 208.2l2.12-0.69-0.61-0.75-1.87-0.4 0.36 1.84z"/>
    <path id="path713" style="stroke:#000000;stroke-width:.036;stroke-miterlimit:10;fill-rule:evenodd" d="m105.53 231.06l2.09-0.69-0.58-0.75-1.9-0.44 0.39 1.88z"/>
    <path id="path715" style="stroke:#000000;stroke-width:.036;stroke-miterlimit:10;fill-rule:evenodd" d="m111.11 251.86l2.09-0.68-0.58-0.76-1.9-0.43 0.39 1.87z"/>
    <path id="path717" style="stroke:#000000;stroke-width:.036;stroke-miterlimit:10;fill-rule:evenodd" d="m126.23 248.8l2.09-0.68-0.58-0.76-1.9-0.43 0.39 1.87z"/>
    <path id="path719" style="stroke:#000000;stroke-width:.036;stroke-miterlimit:10;fill-rule:evenodd" d="m143.51 238.8l-0.07 2.23 0.9-0.29 1.04-1.66-1.87-0.28z"/>
    <path id="path721" style="stroke:#000000;stroke-width:.036;stroke-miterlimit:10;fill-rule:evenodd" d="m147.72 222.67l-0.1 2.19 0.93-0.28 1.05-1.66-1.88-0.25z"/>
    <path id="path723" style="stroke:#000000;stroke-width:.036;stroke-miterlimit:10;fill-rule:evenodd" d="m155.97 224.86l-0.07 2.2 0.9-0.29 1.04-1.65-1.87-0.26z"/>
    <path id="path725" style="stroke:#000000;stroke-width:.036;stroke-miterlimit:10;fill-rule:evenodd" d="m122.2 257.05l-0.07 2.19 0.93-0.28 1.01-1.66-1.87-0.25z"/>
    <path id="path727" style="stroke:#000000;stroke-width:.036;stroke-miterlimit:10;fill-rule:evenodd" d="m101.21 261.87l-0.07 2.23 0.9-0.28 1.04-1.66-1.87-0.29z"/>
    <path id="path729" style="stroke:#000000;stroke-width:.036;stroke-miterlimit:10;fill-rule:evenodd" d="m96.389 249.24l-0.072 2.19 0.9-0.29 1.044-1.65-1.872-0.25z"/>
    <path id="path731" style="stroke:#000000;stroke-width:.036;stroke-miterlimit:10;fill-rule:evenodd" d="m73.385 234.76l-0.108 2.2 0.936-0.29 1.044-1.65-1.872-0.26z"/>
    <path id="path733" style="stroke:#000000;stroke-width:.036;stroke-miterlimit:10;fill-rule:evenodd" d="m78.497 241.46l-0.108 2.23 0.936-0.29 1.044-1.65-1.872-0.29z"/>
    <path id="path735" style="stroke:#000000;stroke-width:.036;stroke-miterlimit:10;fill-rule:evenodd" d="m83.753 245.92l2.016-2.84-1.836-1.55 0.036 2.49-2.052 0.39 1.836 1.51z"/>
    <path id="path737" style="stroke:#000000;stroke-width:.036;stroke-miterlimit:10;fill-rule:evenodd" d="m94.697 257.91l3.348 0.97 0.864-2.23-2.34 0.83-1.044-1.8-0.828 2.23z"/>
    <path id="path739" style="stroke:#000000;stroke-width:.036;stroke-miterlimit:10;fill-rule:evenodd" d="m111.83 258.16l3.35 1.01 0.86-2.27-2.34 0.83-1-1.8-0.87 2.23z"/>
    <path id="path741" style="stroke:#000000;stroke-width:.036;stroke-miterlimit:10;fill-rule:evenodd" d="m131.16 237.61l3.03 0.86 0.75-2.01-2.08 0.75-0.94-1.62-0.76 2.02z"/>
    <path id="path743" style="stroke:#000000;stroke-width:.036;stroke-miterlimit:10;fill-rule:evenodd" d="m135.74 247.33l3.34 1.01 0.83-2.27-2.3 0.83-1.05-1.8-0.82 2.23z"/>
    <path id="path745" style="stroke:#000000;stroke-width:.036;stroke-miterlimit:10;fill-rule:evenodd" d="m143.22 232.89l2.02-2.88-1.83-1.55 0.03 2.49-2.05 0.39 1.83 1.55z"/>
    <path id="path747" style="stroke:#000000;stroke-width:.036;stroke-miterlimit:10;fill-rule:evenodd" d="m155.64 223.75l1.12-1.59-1.04-0.86 0.03 1.37-1.15 0.21 1.04 0.87z"/>
    <path id="path749" style="stroke:#000000;stroke-width:.036;stroke-miterlimit:10;fill-rule:evenodd" d="m120.65 244.7l2.99 0.86 0.76-1.98-2.09 0.76-0.9-1.66-0.76 2.02z"/>
    <path id="path751" style="stroke:#000000;stroke-width:.036;stroke-miterlimit:10;fill-rule:evenodd" d="m87.713 250.68l2.988 0.9 0.756-2.02-2.088 0.76-0.9-1.66-0.756 2.02z"/>
    <path id="path753" style="stroke:#000000;stroke-width:.036;stroke-miterlimit:10;fill-rule:evenodd" d="m81.161 229.65l2.988 0.9 0.756-2.01-2.052 0.75-0.936-1.62-0.756 1.98z"/>
    <path id="path755" style="stroke:#000000;stroke-width:.036;stroke-miterlimit:10;fill-rule:evenodd" d="m139.55 215.61c-3.74-5-4.35-11.3-6.12-16.38-1.94-5.14-4.75-8.85-4.82-13.89-0.04-5.15-0.07-11.31 4.61-16.38 4.6-5.22 14.72-11.16 23.14-13.94 8.28-2.77 16.17-4.28 26.72-2.59 10.58 1.62 28.62 7.31 36.18 12.21 7.23 4.86 5.9 11.59 7.81 16.45 1.94 4.71 4.03 7.99 3.64 11.63-0.58 3.49-2.88 5.47-6.48 9.43-3.64 3.92-6.92 9.25-15.27 13.64-8.53 4.18-26.35 9.69-35.28 11.81-9 2.05-12.38 2.66-18.07 0.72-5.8-2.09-12.35-7.85-16.06-12.71z"/>
    <path id="path757" style="fill-rule:evenodd;stroke:#000000;stroke-width:.036;stroke-miterlimit:10;fill:#a87410" d="m130.7 188.25c-1.16-3.96-0.8-7.63-0.44-10.19 0.33-2.62 1.16-5.61 2.49-4.93 1.22 0.65 2.59 4.93 5.07 9.11 2.42 4.1 6.05 11.63 9.11 15.62 2.81 3.82 7.24 5.12 8.28 7.92 1.05 2.85-2.34 6.02-1.94 9.08 0.29 2.98 3.1 6.44 3.85 8.56 0.69 1.98 1.41 3.39 0.22 3.24-1.41-0.36-5.62-2.7-8.17-4.93-2.6-2.23-5.44-4.9-7.42-8.28-2.23-3.64-3.06-8.21-4.97-12.45-1.98-4.32-4.93-8.9-6.08-12.75z"/>
    <path id="path759" style="fill-rule:evenodd;stroke:#000000;stroke-width:.036;stroke-miterlimit:10;fill:#a87410" d="m224.19 178.78c-1.91-0.68-2.59 3.39-7.74 6.92-5.29 3.42-14.29 10.15-22.97 13.53-8.6 3.24-22.32 4.39-28.37 6.23-6.23 1.62-6.51 2.74-8.06 4.32-1.55 1.55-1.98 2.59-1.01 5.36 0.94 2.78 3.2 9.54 6.8 11.13 3.53 1.4 8.5-1.3 14.08-2.56 5.36-1.37 12.1-2.48 18.4-5.15 6.33-2.8 14.07-7.3 19.18-11.16 5.01-3.92 8.68-9.18 10.88-12.02 2.05-2.92 1.87-2.59 1.69-5.29-0.29-2.88-1.12-10.59-2.88-11.31z"/>
    <path id="path761" style="fill-rule:evenodd;stroke:#000000;stroke-width:.036;stroke-miterlimit:10;fill:#f2c01a" d="m221.09 171.3c-1.44-2.7-4.57-7.13-10.22-9.54-5.94-2.52-16.96-4.07-24.59-5.19-7.7-1.19-14.22-2.63-20.92-1.55-6.76 1.01-13.96 5.04-18.82 7.67-4.9 2.63-9.47 3.96-10.12 7.74-0.76 3.67 3.38 9.51 5.9 14.15 2.45 4.5 6.2 9.54 8.75 12.74 2.38 3.03 2.16 4.97 5.73 5.55 3.45 0.47 9.28-1.41 15.15-2.31 5.83-0.9 12.93-1.01 19.48-3.24 6.44-2.44 14.04-7.74 18.9-11.01 4.64-3.35 7.67-6.05 9.5-8.54 1.77-2.51 2.7-3.85 1.26-6.47z"/>
    <path id="path763" style="stroke:#000000;stroke-width:.036;stroke-miterlimit:10;fill-rule:evenodd" d="m217.46 192.57l2.19 0.07-0.29-0.93-1.65-1.01-0.25 1.87z"/>
    <path id="path765" style="stroke:#000000;stroke-width:.036;stroke-miterlimit:10;fill-rule:evenodd" d="m187.94 174l3.45 0.64 0.65-2.3-2.27 1.04-1.19-1.73-0.64 2.35z"/>
    <path id="path767" style="stroke:#000000;stroke-width:.036;stroke-miterlimit:10;fill-rule:evenodd" d="m161.44 165.21l2.84-2.01-1.26-2.09-0.79 2.37-2.05-0.32 1.26 2.05z"/>
    <path id="path769" style="stroke:#000000;stroke-width:.036;stroke-miterlimit:10;fill-rule:evenodd" d="m197.76 171.22l2.24 0.04-0.33-0.9-1.65-1.04-0.26 1.9z"/>
    <path id="path771" style="stroke:#000000;stroke-width:.036;stroke-miterlimit:10;fill-rule:evenodd" d="m188.12 170.4l2.19 0.07-0.29-0.9-1.65-1.05-0.25 1.88z"/>
    <path id="path773" style="stroke:#000000;stroke-width:.036;stroke-miterlimit:10;fill-rule:evenodd" d="m180.56 173.6l2.19 0.04-0.29-0.9-1.65-1.05-0.25 1.91z"/>
    <path id="path775" style="stroke:#000000;stroke-width:.036;stroke-miterlimit:10;fill-rule:evenodd" d="m178.58 167.73l2.19 0.07-0.29-0.93-1.69-1.01-0.21 1.87z"/>
    <path id="path777" style="stroke:#000000;stroke-width:.036;stroke-miterlimit:10;fill-rule:evenodd" d="m171.2 170.14l2.23 0.08-0.33-0.94-1.65-1.01-0.25 1.87z"/>
    <path id="path779" style="stroke:#000000;stroke-width:.036;stroke-miterlimit:10;fill-rule:evenodd" d="m168.35 165.43l2.2 0.07-0.29-0.9-1.66-1.04-0.25 1.87z"/>
    <path id="path781" style="stroke:#000000;stroke-width:.036;stroke-miterlimit:10;fill-rule:evenodd" d="m152.44 173.89l2.23 0.07-0.32-0.94-1.66-1-0.25 1.87z"/>
    <path id="path783" style="stroke:#000000;stroke-width:.036;stroke-miterlimit:10;fill-rule:evenodd" d="m150.46 168.06l2.23 0.07-0.32-0.94-1.66-1.01-0.25 1.88z"/>
    <path id="path785" style="stroke:#000000;stroke-width:.036;stroke-miterlimit:10;fill-rule:evenodd" d="m143.12 170.47l2.19 0.03-0.29-0.9-1.65-1.04-0.25 1.91z"/>
    <path id="path787" style="stroke:#000000;stroke-width:.036;stroke-miterlimit:10;fill-rule:evenodd" d="m201.11 187.14l2.85-2.02-1.23-2.09-0.79 2.38-2.05-0.33 1.22 2.06z"/>
    <path id="path789" style="stroke:#000000;stroke-width:.036;stroke-miterlimit:10;fill-rule:evenodd" d="m188.87 181.27l3.42 0.68 0.65-2.3-2.23 1.04-1.19-1.73-0.65 2.31z"/>
    <path id="path791" style="stroke:#000000;stroke-width:.036;stroke-miterlimit:10;fill-rule:evenodd" d="m167.63 177.06l3.46 0.68 0.65-2.34-2.27 1.08-1.19-1.73-0.65 2.31z"/>
    <path id="path793" style="stroke:#000000;stroke-width:.036;stroke-miterlimit:10;fill-rule:evenodd" d="m179.55 162.33l2.19 0.04-0.28-0.9-1.66-1.01-0.25 1.87z"/>
    <path id="path795" style="stroke:#000000;stroke-width:.036;stroke-miterlimit:10;fill-rule:evenodd" d="m193.44 161.9l2.24 0.04-0.33-0.9-1.65-1.05-0.26 1.91z"/>
    <path id="path797" style="stroke:#000000;stroke-width:.036;stroke-miterlimit:10;fill-rule:evenodd" d="m157.23 168.81l2.19 0.07-0.28-0.9-1.66-1.04-0.25 1.87z"/>
    <path id="path799" style="stroke:#000000;stroke-width:.036;stroke-miterlimit:10;fill-rule:evenodd" d="m179.08 181.05l2.2 0.07-0.29-0.93-1.66-1.01-0.25 1.87z"/>
    <path id="path801" style="stroke:#000000;stroke-width:.036;stroke-miterlimit:10;fill-rule:evenodd" d="m206.8 168.27l2.84-2.01-1.26-2.09-0.75 2.37-2.09-0.32 1.26 2.05z"/>
    <path id="path803" style="stroke:#000000;stroke-width:.036;stroke-miterlimit:10;fill-rule:evenodd" d="m207.63 175.87l2.23 0.07-0.32-0.9-1.66-1.04-0.25 1.87z"/>
    <path id="path805" style="stroke:#000000;stroke-width:.036;stroke-miterlimit:10;fill-rule:evenodd" d="m196.97 180.91l2.2 0.03-0.29-0.9-1.69-1.04-0.22 1.91z"/>
    <path id="path807" style="stroke:#000000;stroke-width:.036;stroke-miterlimit:10;fill-rule:evenodd" d="m194.09 176.19l2.2 0.07-0.29-0.93-1.66-1.01-0.25 1.87z"/>
    <path id="path809" style="stroke:#000000;stroke-width:.036;stroke-miterlimit:10;fill-rule:evenodd" d="m159.6 198.62l3.46 0.68 0.65-2.34-2.23 1.05-1.19-1.73-0.69 2.34z"/>
    <path id="path811" style="stroke:#000000;stroke-width:.036;stroke-miterlimit:10;fill-rule:evenodd" d="m146.82 175.76l2.85-2.02-1.26-2.08-0.76 2.37-2.09-0.32 1.26 2.05z"/>
    <path id="path813" style="stroke:#000000;stroke-width:.036;stroke-miterlimit:10;fill-rule:evenodd" d="m180.92 183.57l2.19 0.07-0.29-0.93-1.65-1.01-0.25 1.87z"/>
    <path id="path815" style="stroke:#000000;stroke-width:.036;stroke-miterlimit:10;fill-rule:evenodd" d="m172.82 179.65l2.23 0.07-0.33-0.94-1.65-1-0.25 1.87z"/>
    <path id="path817" style="stroke:#000000;stroke-width:.036;stroke-miterlimit:10;fill-rule:evenodd" d="m165.26 182.82l2.19 0.07-0.29-0.94-1.65-1.01-0.25 1.88z"/>
    <path id="path819" style="stroke:#000000;stroke-width:.036;stroke-miterlimit:10;fill-rule:evenodd" d="m163.28 176.98l2.19 0.04-0.29-0.9-1.65-1.01-0.25 1.87z"/>
    <path id="path821" style="stroke:#000000;stroke-width:.036;stroke-miterlimit:10;fill-rule:evenodd" d="m155.93 179.36l2.2 0.07-0.29-0.9-1.69-1.04-0.22 1.87z"/>
    <path id="path823" style="stroke:#000000;stroke-width:.036;stroke-miterlimit:10;fill-rule:evenodd" d="m150.14 179.47l2.23 0.07-0.33-0.94-1.65-1-0.25 1.87z"/>
    <path id="path825" style="stroke:#000000;stroke-width:.036;stroke-miterlimit:10;fill-rule:evenodd" d="m188.58 192.21l2.85-2.01-1.26-2.06-0.76 2.34-2.09-0.32 1.26 2.05z"/>
    <path id="path827" style="stroke:#000000;stroke-width:.036;stroke-miterlimit:10;fill-rule:evenodd" d="m173.57 190.52l3.46 0.69 0.65-2.35-2.27 1.05-1.19-1.73-0.65 2.34z"/>
    <path id="path829" style="stroke:#000000;stroke-width:.036;stroke-miterlimit:10;fill-rule:evenodd" d="m151.61 186.96l3.46 0.68 0.65-2.34-2.27 1.04-1.19-1.69-0.65 2.31z"/>
    <path id="path831" style="stroke:#000000;stroke-width:.036;stroke-miterlimit:10;fill-rule:evenodd" d="m164.25 171.55l2.23 0.07-0.32-0.94-1.66-1-0.25 1.87z"/>
    <path id="path833" style="stroke:#000000;stroke-width:.036;stroke-miterlimit:10;fill-rule:evenodd" d="m178.18 171.12l2.2 0.07-0.29-0.94-1.69-1.01-0.22 1.88z"/>
    <path id="path835" style="stroke:#000000;stroke-width:.036;stroke-miterlimit:10;fill-rule:evenodd" d="m163.78 190.27l2.23 0.07-0.32-0.9-1.66-1.04-0.25 1.87z"/>
    <path id="path837" style="stroke:#000000;stroke-width:.036;stroke-miterlimit:10;fill-rule:evenodd" d="m162.16 211.76l2.2 0.07-0.29-0.93-1.66-1.01-0.25 1.87z"/>
    <path id="path839" style="stroke:#000000;stroke-width:.036;stroke-miterlimit:10;fill-rule:evenodd" d="m177.42 213.92l2.2 0.04-0.29-0.9-1.65-1.05-0.26 1.91z"/>
    <path id="path841" style="stroke:#000000;stroke-width:.036;stroke-miterlimit:10;fill-rule:evenodd" d="m197.04 210.21l-0.79 2.05 0.94 0.04 1.55-1.19-1.7-0.9z"/>
    <path id="path843" style="stroke:#000000;stroke-width:.036;stroke-miterlimit:10;fill-rule:evenodd" d="m206.37 196.39l-0.79 2.05 0.97 0.04 1.51-1.23-1.69-0.86z"/>
    <path id="path845" style="stroke:#000000;stroke-width:.036;stroke-miterlimit:10;fill-rule:evenodd" d="m213.42 201.21l-0.79 2.05 0.97 0.04 1.52-1.22-1.7-0.87z"/>
    <path id="path847" style="stroke:#000000;stroke-width:.036;stroke-miterlimit:10;fill-rule:evenodd" d="m170.91 220.33l-0.83 2.05 0.97 0.04 1.55-1.19-1.69-0.9z"/>
    <path id="path849" style="stroke:#000000;stroke-width:.036;stroke-miterlimit:10;fill-rule:evenodd" d="m149.49 217.95l-0.79 2.05 0.93 0.04 1.55-1.22-1.69-0.87z"/>
    <path id="path851" style="stroke:#000000;stroke-width:.036;stroke-miterlimit:10;fill-rule:evenodd" d="m149.13 204.38l-0.79 2.05 0.97 0.04 1.51-1.23-1.69-0.86z"/>
    <path id="path853" style="stroke:#000000;stroke-width:.036;stroke-miterlimit:10;fill-rule:evenodd" d="m132.24 183.1l-0.82 2.06 0.97 0.03 1.51-1.22-1.66-0.87z"/>
    <path id="path855" style="stroke:#000000;stroke-width:.036;stroke-miterlimit:10;fill-rule:evenodd" d="m134.84 191.13l-0.83 2.05 0.97 0.04 1.51-1.22-1.65-0.87z"/>
    <path id="path857" style="stroke:#000000;stroke-width:.036;stroke-miterlimit:10;fill-rule:evenodd" d="m138.33 197.11l2.84-2.05-1.22-2.06-0.79 2.34-2.09-0.32 1.26 2.09z"/>
    <path id="path859" style="stroke:#000000;stroke-width:.036;stroke-miterlimit:10;fill-rule:evenodd" d="m144.66 212.05l2.85 2.01 1.55-1.83h-2.49l-0.36-2.05-1.55 1.87z"/>
    <path id="path861" style="stroke:#000000;stroke-width:.036;stroke-miterlimit:10;fill-rule:evenodd" d="m160.76 217.99l2.84 2.01 1.55-1.83-2.48 0.03-0.36-2.08-1.55 1.87z"/>
    <path id="path863" style="stroke:#000000;stroke-width:.036;stroke-miterlimit:10;fill-rule:evenodd" d="m185.81 204.99l2.56 1.8 1.37-1.62h-2.2l-0.32-1.83-1.41 1.65z"/>
    <path id="path865" style="stroke:#000000;stroke-width:.036;stroke-miterlimit:10;fill-rule:evenodd" d="m186.86 215.68l2.84 2.06 1.55-1.88-2.45 0.04-0.4-2.05-1.54 1.83z"/>
    <path id="path867" style="stroke:#000000;stroke-width:.036;stroke-miterlimit:10;fill-rule:evenodd" d="m198.77 204.52l2.85-2.01-1.26-2.05-0.76 2.34-2.09-0.33 1.26 2.05z"/>
    <path id="path869" style="stroke:#000000;stroke-width:.036;stroke-miterlimit:10;fill-rule:evenodd" d="m213.5 200.02l1.58-1.11-0.68-1.15-0.44 1.29-1.15-0.18 0.69 1.15z"/>
    <path id="path871" style="stroke:#000000;stroke-width:.036;stroke-miterlimit:10;fill-rule:evenodd" d="m173.54 208.2l2.52 1.8 1.36-1.62h-2.19l-0.32-1.84-1.37 1.66z"/>
    <path id="path873" style="stroke:#000000;stroke-width:.036;stroke-miterlimit:10;fill-rule:evenodd" d="m140.45 202.9l2.56 1.81 1.37-1.66-2.2 0.04-0.32-1.84-1.41 1.65z"/>
    <path id="path875" style="stroke:#000000;stroke-width:.036;stroke-miterlimit:10;fill-rule:evenodd" d="m141.28 180.91l2.52 1.8 1.4-1.66-2.19 0.04-0.36-1.84-1.37 1.66z"/>
  </g>
  <metadata>
    <rdf:RDF>
      <cc:Work>
        <dc:format>image/svg+xml</dc:format>
        <dc:type rdf:resource="http://purl.org/dc/dcmitype/StillImage"/>
        <cc:license rdf:resource="http://creativecommons.org/licenses/publicdomain/"/>
        <dc:publisher>
          <cc:Agent rdf:about="http://openclipart.org/">
            <dc:title>Openclipart</dc:title>
          </cc:Agent>
        </dc:publisher>
        <dc:title>Fast Food, Lunch-Dinner, Chicken-Bits</dc:title>
        <dc:date>2007-11-26T20:08:10</dc:date>
        <dc:description>This Clip Art is part of a fast food menu set. Search for "fastfood" to find all.</dc:description>
        <dc:source>https://openclipart.org/detail/9172/fast-food-lunch-dinner-chicken-bits-by-gerald_g</dc:source>
        <dc:creator>
          <cc:Agent>
            <dc:title>Gerald_G</dc:title>
          </cc:Agent>
        </dc:creator>
        <dc:subject>
          <rdf:Bag>
            <rdf:li>chicken</rdf:li>
            <rdf:li>colouring book</rdf:li>
            <rdf:li>dinner</rdf:li>
            <rdf:li>fastfood</rdf:li>
            <rdf:li>food</rdf:li>
            <rdf:li>lunch</rdf:li>
            <rdf:li>menu</rdf:li>
          </rdf:Bag>
        </dc:subject>
      </cc:Work>
      <cc:License rdf:about="http://creativecommons.org/licenses/publicdomain/">
        <cc:permits rdf:resource="http://creativecommons.org/ns#Reproduction"/>
        <cc:permits rdf:resource="http://creativecommons.org/ns#Distribution"/>
        <cc:permits rdf:resource="http://creativecommons.org/ns#DerivativeWorks"/>
      </cc:License>
    </rdf:RDF>
  </metadata>
</svg>
