<?xml version="1.0" encoding="UTF-8" standalone="no"?>
<svg
   xmlns:dc="http://purl.org/dc/elements/1.1/"
   xmlns:cc="http://creativecommons.org/ns#"
   xmlns:rdf="http://www.w3.org/1999/02/22-rdf-syntax-ns#"
   xmlns:svg="http://www.w3.org/2000/svg"
   xmlns="http://www.w3.org/2000/svg"
   xmlns:xlink="http://www.w3.org/1999/xlink"
   height="530.30536"
   width="924.46686"
   version="1.1"
   viewBox="0 0 924.46686 530.30535"
   id="svg2">
  <defs
     id="defs4">
    <linearGradient
       id="linearGradient5510">
      <stop
         offset="0"
         style="stop-color:#ef5d2f"
         id="stop5512" />
      <stop
         offset="1"
         style="stop-color:#ff7e56"
         id="stop5514" />
    </linearGradient>
    <linearGradient
       id="linearGradient5502">
      <stop
         offset="0"
         style="stop-color:#ff6737"
         id="stop5504" />
      <stop
         offset="1"
         style="stop-color:#ff7e56"
         id="stop5506" />
    </linearGradient>
    <linearGradient
       x1="1454.3"
       y1="1180.9"
       x2="1444.3"
       gradientUnits="userSpaceOnUse"
       xlink:href="#linearGradient5502"
       y2="1133.8"
       id="linearGradient5630" />
    <linearGradient
       x1="1484.3"
       y1="1126.6"
       x2="1477.1"
       gradientUnits="userSpaceOnUse"
       xlink:href="#linearGradient5510"
       y2="1088.1"
       id="linearGradient5632" />
    <linearGradient
       x1="1504.3"
       y1="1085.9"
       x2="1496.4"
       gradientUnits="userSpaceOnUse"
       xlink:href="#linearGradient5510"
       y2="1048.1"
       id="linearGradient5634" />
    <linearGradient
       x1="1523.6"
       y1="1037.4"
       x2="1518.6"
       gradientUnits="userSpaceOnUse"
       xlink:href="#linearGradient5502"
       y2="1010.2"
       id="linearGradient5636" />
    <linearGradient
       x1="1551.4"
       y1="1012.4"
       x2="1541.4"
       gradientUnits="userSpaceOnUse"
       xlink:href="#linearGradient5502"
       y2="970.92999"
       id="linearGradient5638" />
    <linearGradient
       x1="1396"
       y1="1187.7"
       x2="1384.9"
       gradientUnits="userSpaceOnUse"
       y2="1139.2"
       id="linearGradient5640">
      <stop
         offset="0"
         style="stop-color:#ca0224"
         id="stop5550" />
      <stop
         offset="1"
         style="stop-color:#f9022c"
         id="stop5552" />
    </linearGradient>
  </defs>
  <g
     transform="translate(241.88085,-140.72018)"
     id="layer1">
    <path
       d="m 209.36,157.35 c 5.1948,-1.473 -2.7176,-0.0384 2.7345,-1.6806 7.0913,-1.7495 14.562,-1.5089 21.342,-4.8428 8.091,-2.9411 16.656,-5.3177 23.539,-10.746 3.9209,1.487 -0.17981,13.741 8.6026,12.268 7.4903,-1.3876 10.229,6.7028 10.584,12.896 2.981,29.759 -2.463,59.484 -3.1882,89.216 0.22037,21.79 2.8146,43.853 -1.0026,65.453 -1.1382,9.462 -10.468,13.422 -18.112,16.064 -6.2826,2.1084 -12.071,6.3246 -18.901,4.0707 -4.7877,4.1833 -12.932,-1.3191 -5.7154,-5.4692 6.1613,-3.0216 13.797,-4.4112 16.627,-11.776 7.4964,-12.357 7.7598,-27.445 9.5378,-41.48 2.6486,-32.506 3.8706,-65.398 -8.7e-4,-97.851 -1.2142,-6.8937 -1.9112,-14.492 -6.2878,-20.145 -4.5539,-1.6149 -14.27,4.1293 -12.59,-5.3475 -5.2974,-4.7002 -13,-0.81397 -19.24,-0.47777 -2.6126,0.31128 -5.3814,0.76502 -7.929,-0.15082 z"
       style="fill:#ffffff;fill-opacity:0.38570999"
       id="path4479" />
    <g
       transform="matrix(1.9942003,0,0,2.6532518,-2675.7916,1605.7145)"
       id="g6554">
      <g
         transform="matrix(0.73664,0.13116,-0.13116,0.73664,549.28,-1462.1)"
         id="g5608">
        <path
           d="m 1644.7,950.03 c -36.888,0.7798 -73.279,9.4649 -109.41,14.844 -16.316,-2.9318 -31.927,5.4324 -47.687,8.4375 -25.086,6.4018 -50.115,13.276 -75.969,15.219 -42.487,6.624 -83.613,19.718 -124.44,32.875 -8.8862,3.73 -19.002,7.9219 -23.844,16.656 -4.3134,11.466 -12.608,21.04 -18.447,31.81 -23.562,36.316 -46.677,72.973 -66.124,111.66 -13.258,25.26 -27.407,50.103 -41.523,74.752 -3.1158,9.7325 3.0225,23.524 14.469,22.75 7.5582,1.0531 14.942,3.3684 22.625,2.5313 16.033,1.3045 32.068,8.6662 48.27,3.7482 42.762,-7.9192 85.046,-18.473 128.25,-23.924 64.49,-9.1919 129.5,-16.519 192.94,-31.294 33.176,-7.3469 66.847,-12.755 100.1,-19.218 7.8465,-1.9103 18.084,-3.2284 21,-12.062 2.5378,-6.1139 6.5048,-11.465 12.063,-15.031 3.8502,-4.5092 4.1963,-10.926 6.6874,-15.937 2.9997,-13.882 6.7121,-27.708 9.4489,-41.766 9.0887,-40.763 19.774,-81.508 23.393,-123.17 -0.6574,-13.11 -0.2725,-27.808 -8.2168,-38.907 -5.1006,-4.5237 -11.762,-6.9617 -17.5,-10.5 -14.628,-5.4302 -30.805,-2.4367 -46.094,-3.4688 z m 24.375,21.438 c 3.1539,3.9213 4.0205,10.19 1.9063,14.562 -2.4109,-1.2342 -6.1693,-2.3641 -4.4688,-5.7812 0.2248,-3.0343 1.6994,-6.1455 2.5625,-8.7812 z m -88.5,2.4062 c -4.8924,2.6261 -8.5871,9.3735 -4.625,14.281 -17.066,2.7732 -34.141,5.8228 -50.938,9.7812 3.9398,-5.3396 6.1374,-13.121 12.031,-16.438 14.13,-3.61 29.483,-5.8708 43.531,-7.625 z m 109.81,-0.15625 c 4.5911,-0.13645 -0.087,7.7552 0.5312,10.938 -7.3947,46.29695 -18.801,91.92095 -27.812,137.84005 -3.0623,13.398 -6.102,27.27 -10.813,40.156 -11.367,4.8923 -24.17,3.6786 -36.139,6.5373 -14.632,2.0561 -29.239,4.2845 -43.83,6.6188 21.331,-5.7961 43.089,-10.364 65.031,-12.5619 6.955,-2.3513 15.209,-5.5008 17.187,-13.406 5.6473,-9.4637 5.3039,-21.699 0.4376,-31.3131 1.0412,-5.0589 4.5867,-9.4672 5,-14.8119 2.0424,-8.4959 0.1908,-17.799 -3.0938,-25.375 8.2742,-8.3368 9.4847,-21.12 8.9688,-32.344 0.023,-2.9139 -1.5916,-6.4277 -1.4063,-8.7812 13.172,-6.3874 18.484,-22.574 15.938,-36.313 0.809,-2.97185 4.5432,-4.36145 5.1875,-7.75005 2.1045,-5.4659 3.3549,-11.379 5.25,-16.812 0.1498,-0.85888 -0.4369,-1.9865 -0.4375,-2.625 z m -174.84,8.6562 c -18.29,26.79605 -37.539,52.87805 -54.125,80.78105 5.4492,-14.58 9.7905,-30.006 10.469,-45.531 -1.379,-4.9326 -1.4706,-10.026 -1.4688,-14.875 -1.7875,-5.39865 -8.4714,-5.35745 -12.5,-2.5625 -1.7556,0.4357 -6.8781,4.8325 -3.875,1.375 2.2412,-5.08965 7.2389,-7.21385 12.5,-7.21885 16.543,-3.511 32.845,-8.5561 49.344,-12.469 l -0.3438,0.5 z m 127.34,14.844 c 3.7041,0.73604 8.048,0.5248 11.344,1.6562 -2.0316,5.58305 -2.0793,15.41405 5.2187,16.65595 1.8362,0.9153 5.6337,-3.4384 3.9375,0 -1.5794,3.4869 -4.8175,8.3351 -8.7188,8.25 -9.3507,-9.2215 -23.526,-4.5951 -35.125,-5.0312 -40.98,2.1116 -81.588,9.118 -121.47,18.5001 4.9741,-6.7325 9.0232,-14.913 14.722,-20.644 35.56,-8.5426 72.302,-14.648 108.43,-18.26305 5.505,7.03985 14.824,1.82565 21.062,-1.0312 0.2081,0.034 0.3882,-0.12928 0.5938,-0.0937 z m -214.3,9.98005 c -4.0308,4.9095 -6.5832,12.918 -14.281,12.25 -13.466,2.6784 -26.752,6.4209 -40.281,8.9688 -1.6334,-4.2504 -6.1545,-6.6827 -10.375,-7.375 21.533,-5.9195 43.477,-9.7757 65.344,-14.3441 l -0.4062,0.5 z m 27.75,13.062 c -4.4673,34.893 -20.645,68.995 -46.469,93.156 -2.8503,3.158 -0.3243,-3.6758 -0.3199,-5.5087 5.8959,-27.345 21.552,-51.3611 36.347,-74.696 3.0163,-4.344 7.0652,-10.0751 10.442,-12.952 z m 182.56,14.469 c 5.0109,-0.7752 -0.4467,2.7394 -0.5312,4.9376 -2.293,6.7785 -2.5005,14.93 0.094,21.531 1.5534,2.5154 4.8976,4.3097 7.8124,3.125 -0.5336,2.9742 -3.0278,3.3163 -4.9687,1.4688 -17.615,-8.4454 -38.089,-3.0847 -56.685,-1.5185 -38.491,4.3018 -77.031,10.125 -114.85,18.581 5.1758,-8.6069 9.2456,-18.009 15.344,-26.125 50.272,-12.138 101.8,-21.576 153.78,-22 z m -232.62,4.0626 c -4.3874,6.0223 -7.2463,13.851 -13.211,18.307 -19.782,5.6221 -39.803,10.373 -59.695,15.599 -0.078,-5.3193 -1.8493,-10.445 -4.25,-15.125 25.8,-7.1237 51.734,-14.212 77.844,-19.844 l -0.5433,0.8396 -0.1443,0.223 z m -110.75,9.8437 c 5.0098,1.7029 -1.186,0.4426 0,0 z m 19.25,12.781 c 1.5257,0.7972 4.469,6.8694 1.2617,3.82 -1.9771,-1.9231 -7.6921,-3.4142 -1.2617,-3.8201 z m -17.562,7.406 c 3.9281,3.2327 10.443,7.1052 13.062,9.9062 -10.873,2.5707 -22.834,6.7162 -33.031,8.3126 1.2846,-5.5477 5.1263,-10.473 7.9375,-15.219 3.2447,-1.6664 7.4495,-4.4344 10.745,-3.9409 l 0.8071,0.5903 0.4795,0.3506 z m 108.25,3.7812 c -6.2503,14.449 -12.036,29.736 -12.688,45.656 -0.1478,7.7455 6.2653,17.085 14.906,14.531 12.22,-3.5047 19.446,-15.203 27.562,-24.031 1.9531,-2.0946 7.9872,-11.639 4.125,-4.125 -11.518,24.421 -20.579,53.316 -11.219,79.875 -24.703,3.9495 -49.222,10.911 -73.969,15.5 -9.3037,-17.002 -5.6526,-38.195 4.8877,-53.785 13.849,-26.615 30.785,-51.452 47.581,-76.278 l -1.1874,2.6562 z m 214.47,5.2813 c 2.4685,0.1125 7.819,0.2015 8.5313,1.375 -6.1826,5.4999 -5.2842,15.5441 -3.2188,22.8441 -16.391,-2.4966 -32.894,2.8687 -49.188,0.7189 -5.8474,-1.2353 -12.997,-1.665 -17.5,2.9688 -36.965,4.6783 -72.991,14.674 -109.81,20.219 3.126,-8.5006 6.6248,-16.958 11.594,-24.562 47.093,-12.114 95.804,-16.978 143.9,-22.768 5.2199,-0.4445 10.452,-0.7274 15.691,-0.7945 z m -240.22,0.8125 c -5.1266,6.8912 -9.2076,15.4791 -15.144,21.187 -40.156,5.5813 -78.164,20.383 -117.48,29.5 -1.8469,-6.6993 1.8975,-13.825 8.4791,-16.239 18.337,-10.43 39.822,-12.404 59.778,-18.62 21.62,-5.4864 43.19,-11.1669 64.836,-16.548 l -0.4687,0.719 z m 259.47,5.5625 c 4.0792,3.7878 5.6251,10.405 4.0625,15.375 -5.7341,-3.1093 -3.251,-10.6199 -4.625,-15.844 l 0.5625,0.4687 z m -385.34,2.0937 c -1.0172,3.1761 -0.9934,7.3484 -0.9376,10.063 -3.2271,1.6222 -6.3609,3.4447 -9.25,5.625 3.3573,-5.2311 6.8362,-10.566 10.188,-15.688 z m 100,33.281 c -4.6829,8.7451 -9.0667,17.705 -14.5,26.094 -27.924,7.765 -55.789,15.821 -84.094,22.094 -7.9151,-5.3426 -16.388,2.4187 -23.997,4.6256 -3.7362,1.4412 -8.195,3.6144 -11.94,3.4369 -1.8363,-11.628 5.1471,-25.378 17.875,-26.5619 28.04,-8.0842 56.701,-14.896 84.466,-23.697 10.897,-3.0056 21.829,-5.6703 32.972,-7.4279 l -0.4775,0.8786 -0.3037,0.5589 z m 263.06,-1.375 c 2.0711,0.3676 6.8756,-0.424 7.2188,1.0625 -2.0163,3.3994 -2.5168,7.4665 -2.5938,11.406 -4.7501,-4.2926 -9.7481,-8.3024 -14.844,-12.125 3.4056,-0.1283 6.8104,-0.3089 10.219,-0.3437 z m -385.5,3 c -0.2237,4.0709 0.391,8.0703 1.2188,12.031 -3.7104,1.068 -7.4523,2.1652 -10.906,3.9062 3.1505,-5.3056 6.4485,-10.902 9.6874,-15.938 z m 330,1.1 c 5.8888,4.0128 9.8635,10.276 16.241,13.782 1.734,1.7502 8.8166,5.2411 7.0399,5.2802 -10.562,-1.2664 -22.873,-0.6664 -31.125,6.5937 -3.1368,4.0868 -1.4767,10.12 2.1876,13.281 -36.701,7.2263 -73.595,13.418 -110.47,19.688 -5.0094,-12.125 -4.8232,-26.016 -1.4375,-38.594 39.34,-5.6437 78.285,-15.15 117.56,-20.031 z m 75.406,3.0625 c 1.6143,2.3814 5.0804,3.2118 4.6563,6.75 0.2158,2.0667 0.4015,4.8448 -2.3437,3.375 -4.0314,1.1243 -2.1246,-4.9629 -2.6117,-7.3437 0.1885,-0.5449 -0.2994,-3.7985 0.2991,-2.7813 z m -303.75,40.25 c -1.8922,12.998 -0.5816,26.568 4.8438,38.562 -30.983,7.829 -61.847,16.147 -92.969,23.406 9.5888,-5.6326 20.163,-10.583 27.813,-18.844 3.7118,-4.2939 2.0373,-12.115 -4.125,-12.812 -9.9962,-1.6857 -18.939,4.7019 -28.031,7.6875 -14.077,6.5199 -27.103,15.63 -37.562,27.031 -3.2667,-2.6692 3.054,-3.9878 4.206,-6.1141 14.765,-12.636 28.431,-26.619 43.7,-38.73 27.618,-6.0886 55.017,-13.509 82.281,-21.156 l -0.1563,0.9687 z m -130.5,6.3125 c -0.978,3.4329 2.8958,8.7342 -1.8437,9.7188 -2.553,1.4093 -4.7743,3.3256 -6.75,5.4062 2.8856,-5.3271 5.728,-10.686 8.625,-16 l -0.031,0.875 z m 447.28,20 c -1.0553,2.9679 -4.7845,-0.059 -7.0625,1.2812 -13.73,2.966 -27.41,6.264 -41.313,8.5855 -63.475,12.385 -126.67,26.478 -190.87,34.788 -16.402,2.3463 -32.834,4.4756 -49.258,6.6583 67.516,-13.097 135.29,-24.813 202.99,-36.855 28.493,-5.3565 56.962,-10.941 85.696,-14.864 l -0.1875,0.4062 z m -224.91,11.188 c -20.609,4.216 -41.203,8.5099 -61.781,12.875 22.766,-5.3035 45.579,-10.169 68.625,-14.25 -2.2812,0.4583 -4.5625,0.9167 -6.8438,1.375 z m -239.41,0.094 c -0.6449,6.6113 -4.4378,12.21 -9.0312,16.531 2.9569,-5.2809 6.371,-12.233 9.0312,-16.531 z m 3.5,36.406 c 2.3293,3.5076 6.0048,5.9198 7.9375,9.6563 -7.6667,1.2164 -16.366,3.7785 -23.5,3.8437 -1.4254,-2.2177 -0.2558,-4.7658 2.0625,-4.5313 4.8469,-2.3511 9.1996,-6.4625 13.5,-8.9687 z m -31.188,12.656 c -0.6532,2.0392 0.4255,4.7372 -2.5313,4.4062 -1.1613,0.5261 2.7819,-4.8712 2.5313,-4.4062 z"
           style="fill:#000000;stroke:#000000;stroke-width:0.59996003px"
           id="path3381-5" />
        <path
           d="m 1648.6,956.01 c -10.522,0.02 -18.934,0.3644 -24.523,1.0499 -28.576,3.5051 -83.324,12.442 -88.569,14.455 -0.5047,0.1936 -1.2642,-0.053 -1.6874,-0.5626 -1.18,-1.4216 -8.2318,-1.1813 -15.936,0.5626 -3.6297,0.8215 -12.404,3.1252 -19.499,5.0996 -12.266,3.4135 -40.772,10.493 -45.897,11.399 -1.3199,0.2334 -3.3447,0.8363 -4.4996,1.3499 -1.155,0.5134 -4.5297,1.2266 -7.4995,1.5749 -44.035,5.1627 -52.738,6.9382 -101.69,20.83 -44.069,12.505 -51.464,15.037 -61.214,20.98 -7.171,4.3706 -8.9806,6.1162 -8.9806,8.6619 0,0.9009 -0.4966,2.2879 -1.1062,3.0748 -0.6096,0.7869 -5.09,8.1744 -9.9743,16.424 -4.8843,8.2494 -14.623,23.638 -21.636,34.198 -18.317,27.581 -29.55,47.129 -61.158,106.49 -12.975,24.368 -22.217,40.718 -27.448,48.503 -1.6253,2.4188 -3.3389,5.3128 -3.806,6.4308 -1.7177,4.1111 -0.6977,11.168 2.0624,14.286 1.4628,1.6528 3.4224,2.2163 7.7807,2.2499 2.4859,0.019 4.4303,0.3766 5.3434,0.9749 1.0441,0.6841 3.9788,1.0795 10.837,1.4436 11.71,0.6218 16.059,1.2227 27.411,3.7873 4.9496,1.1182 10.214,2.0377 11.699,2.0623 4.1294,0.069 11.967,-1.3331 37.797,-6.8245 52.279,-11.114 84.544,-16.853 123.59,-21.936 46.401,-6.0408 68.228,-9.085 89.994,-12.599 24.456,-3.9485 56.998,-10.184 87.294,-16.705 34.266,-7.3761 51.579,-10.612 73.832,-13.837 7.3523,-1.0653 15.983,-3.0149 31.76,-7.1619 3.8291,-1.0065 4.3225,-1.3042 5.4559,-3.431 0.6836,-1.283 1.5296,-3.2054 1.8936,-4.256 1.3591,-3.9229 6.7275,-10.972 9.7681,-12.843 2.4173,-1.4874 3.1288,-2.3568 4.1059,-4.9684 0.6517,-1.7417 1.3707,-4.1359 1.5937,-5.3246 0.2229,-1.1887 0.93,-2.6395 1.5561,-3.2061 0.7547,-0.683 0.9387,-1.2528 0.5625,-1.7061 -0.3695,-0.4452 0.061,-2.6617 1.2186,-6.3558 0.9784,-3.121 3.9122,-15.4 6.5246,-27.279 2.6122,-11.879 6.5276,-29.293 8.6993,-38.697 6.0634,-26.256 13.658,-65.727 15.693,-81.538 0.914,-7.1014 0.9492,-9.0935 0.2812,-17.099 -1.5217,-18.237 -3.0302,-24.196 -7.162,-28.329 -1.0923,-1.0927 -2.7419,-2.0124 -3.9747,-2.2124 -1.1606,-0.1884 -3.2681,-1.2656 -4.6684,-2.3999 -5.9054,-4.7831 -10.109,-5.8553 -24.748,-6.2995 -7.697,-0.2335 -14.76,-0.331 -21.074,-0.3187 z m 22.93,3.206 4.1997,0 c 6.2474,0 15.08,2.6145 15.711,4.6497 0.1713,0.5521 -0.9232,0.7579 -4.1622,0.7687 -2.4198,0.01 -5.3797,0.2458 -6.5807,0.5249 -2.0798,0.4834 -2.3576,0.3497 -5.6809,-2.7185 l -3.4872,-3.2248 z m -32.642,1.1999 c 1.9762,-0.043 3.0611,0.051 2.8123,0.3 -0.1602,0.1603 -5.2799,1.5287 -11.362,3.0372 -30.618,7.5945 -45.028,12.639 -48.765,17.08 -1.8591,2.2095 -1.9127,2.5681 -0.5624,3.9185 1.62,1.6201 7.5403,0.7506 18.467,-2.7186 11.808,-3.7486 18.303,-5.4136 30.298,-7.7431 11.459,-2.2255 15.618,-2.7848 15.58,-2.0999 -0.016,0.2899 -2.2436,2.1837 -4.9496,4.2184 -2.706,2.0347 -6.5824,5.2147 -8.6057,7.0495 l -3.6747,3.3373 -8.0244,0.9187 c -4.4114,0.5055 -13.964,1.8524 -21.224,2.9998 -7.2595,1.1473 -20.316,3.1606 -29.023,4.4809 -9.2762,1.4067 -24.305,4.299 -36.297,6.9745 -11.257,2.5113 -20.643,4.6802 -20.867,4.8184 -0.2247,0.1381 -0.5391,0.047 -0.6937,-0.2062 -0.1545,-0.2529 2.0012,-3.7085 4.7997,-7.6682 2.7984,-3.9597 7.1203,-10.627 9.5993,-14.83 4.9988,-8.475 3.9855,-7.7433 13.087,-9.7306 13.559,-2.9606 62.067,-10.405 83.994,-12.899 6.3175,-0.7186 12.118,-1.1661 15.411,-1.2374 z m 20.455,0.2812 c 2.1698,0.01 3.9,0.4232 6.5433,1.275 5.8699,1.8914 11.233,8.8305 12.187,15.768 0.476,3.4603 -0.8582,9.6662 -2.981,13.855 -1.6688,3.2932 -1.8672,4.5376 -0.8062,5.1934 1.0799,0.6673 5.6328,-4.7309 6.7683,-8.0245 0.5416,-1.5711 1.1336,-4.5271 1.3311,-6.5808 0.2439,-2.5352 0.7244,-4.0585 1.4812,-4.7434 1.4581,-1.3195 1.4123,-1.8206 -0.1688,-1.7624 -1.0183,0.038 -1.5192,-0.5895 -2.3623,-2.9622 -1.9528,-5.4957 -2.3894,-5.2071 7.8182,-4.9872 5.5693,0.12 9.2208,0.4453 9.6368,0.8625 1.1641,1.1669 -5.3536,40.175 -10.612,63.52 -1.4864,6.5995 -4.275,19.829 -6.2058,29.398 -9.7123,48.135 -13.337,64.723 -18.786,86 -2.8334,11.064 -4.9147,18.04 -5.6059,18.805 -2.1702,2.4018 -6.3447,3.9126 -13.705,4.9496 -73.528,10.361 -133.36,20.552 -190.79,32.51 -10.229,2.1302 -24.403,5.0696 -31.498,6.5245 -7.0945,1.4549 -20.054,4.1658 -28.798,6.0183 -24.558,5.2027 -148.25,30.244 -172.79,34.985 -48.869,9.443 -70.037,13.108 -70.832,12.262 -0.2438,-0.2593 -0.5586,-1.0087 -0.7124,-1.6686 -0.2207,-0.9467 -0.3735,-0.7884 -0.7312,0.7499 -0.6447,2.772 -1.5186,2.4223 -1.5186,-0.6187 0,-2.2045 0.6772,-3.6145 4.6871,-9.7493 5.9163,-9.0516 15.282,-25.418 24.711,-43.178 21.106,-39.757 19.966,-37.657 35.304,-64.795 12.687,-22.447 17.87,-30.896 30.767,-50.096 5.4301,-8.0845 13.849,-21.478 18.711,-29.773 8.7066,-14.854 8.8877,-15.105 11.68,-16.293 3.6976,-1.5726 8.3751,-3.131 9.3931,-3.131 0.4433,0 1.9037,1.4174 3.2435,3.1498 1.3399,1.7324 3.5158,4.2265 4.8559,5.5309 1.3401,1.3044 2.4373,2.7063 2.4373,3.1309 0,0.9278 -10.598,6.375 -11.418,5.8684 -0.3156,-0.195 -0.5812,-1.3507 -0.5812,-2.5686 0,-2.5322 -1.0404,-6.7119 -1.6687,-6.7119 -0.2318,-8e-4 -0.333,2.3405 -0.2249,5.1933 l 0.1874,5.1746 -3.8997,3.5248 c -4.2873,3.8695 -4.6816,4.7221 -6.0558,12.712 -0.7063,4.1066 -1.3137,5.8051 -2.6623,7.4995 -2.5598,3.2158 -4.6981,5.0743 -5.0997,4.4246 -0.331,-0.5357 8.1848,-26.584 11.006,-33.673 1.2699,-3.1915 1.281,-4.8558 0.038,-4.8558 -0.8184,-10e-5 -0.7275,-0.2644 -7.4995,20.23 -3.3039,9.9986 -5.7149,18.249 -5.6058,19.199 0.3169,2.7582 2.3908,2.5026 5.5871,-0.6938 1.5062,-1.5061 2.987,-2.7372 3.281,-2.7372 0.2939,0 0.833,1.4013 1.1999,3.1122 0.524,2.4432 0.4903,3.2615 -0.1125,3.806 -0.422,0.3814 -3.4685,1.6842 -6.7682,2.9061 -3.2998,1.2218 -7.8895,3.3441 -10.199,4.7059 -5.5858,3.2932 -12.413,10.166 -13.368,13.443 -1.14,3.9124 -0.9067,10.919 0.5062,14.98 0.6779,1.9485 1.2853,3.912 1.3499,4.3497 0.078,0.5293 -2.2356,1.4763 -6.9183,2.831 -3.8709,1.1199 -8.08,2.5553 -9.3555,3.206 -5.8013,2.9596 -12.552,13.638 -14.212,22.461 -1.2568,6.6826 -1.1413,12.682 0.3187,15.899 1.1892,2.6208 1.1413,3.6935 -0.1875,3.6935 -1.6367,0 -8.6841,3.836 -10.818,5.8871 -3.5171,3.3807 -6.9151,11.156 -8.7556,20.024 -0.5734,2.7629 -1.3159,4.0834 -3.8622,6.9371 -3.9178,4.3907 -10.218,12.498 -13.405,17.249 -5.4215,8.0811 -10.162,18.375 -9.3931,20.38 0.4918,1.2815 2.2163,1.1438 3.506,-0.2812 1.054,-1.1646 1.0486,-1.2 -0.2063,-1.2 -0.7111,0 -1.2936,-0.2683 -1.2936,-0.5999 0,-1.4976 5.4586,-11.516 9.7306,-17.868 4.4095,-6.5564 12.569,-16.478 13.086,-15.918 0.4072,0.4414 1.7811,7.4244 1.7811,9.0369 0,0.3537 -3.301,3.33 -7.3494,6.6183 -12.344,10.026 -11.694,10.547 1.1624,0.9374 3.6867,-2.7555 6.8457,-5.0058 7.0307,-5.0058 0.185,0 1.0263,1.3433 1.8562,2.981 1.8522,3.6552 4.7132,6.9759 7.0307,8.1744 1.3125,0.6787 1.649,1.1979 1.3687,2.0811 -0.5944,1.8728 1.0915,2.0471 8.6431,0.8999 19.88,-3.0199 39.398,-7.3416 99.049,-21.936 16.334,-3.9964 35.368,-8.6132 42.297,-10.256 39.82,-9.4391 85.194,-18.837 88.419,-18.318 1.2182,0.1961 2.5209,0 3.2997,-0.5062 1.4004,-0.9052 14.067,-3.3574 42.072,-8.1369 29.314,-5.0029 47.498,-8.321 55.796,-10.162 4.2897,-0.9516 8.5316,-1.5787 9.4118,-1.4062 1.9535,0.383 9.631,-1.3059 25.086,-5.512 17.782,-4.8397 43.742,-10.011 52.609,-10.481 6.7656,-0.3584 7.6288,-0.5423 11.699,-2.5311 2.417,-1.1809 4.9946,-2.3262 5.7371,-2.5498 0.7424,-0.2235 1.3499,-0.7483 1.3499,-1.1436 0,-0.3953 0.6852,-1.9138 1.5186,-3.3935 4.4584,-7.916 5.3822,-11.972 4.2185,-18.674 -0.4289,-2.4696 -1.5253,-5.924 -2.4186,-7.687 -1.8226,-3.5966 -1.7918,-3.9271 0.8624,-10.237 3.1567,-7.5043 4.4206,-13.376 4.0497,-18.786 -0.2759,-4.0267 -0.7018,-5.4963 -3.0372,-10.18 l -2.7373,-5.4747 3.206,-3.3559 c 4.1947,-4.3978 5.4581,-7.0407 6.6745,-13.855 1.9191,-10.752 1.0708,-21.194 -1.8936,-23.136 -0.7881,-0.5164 -1.4437,-1.3095 -1.4437,-1.7624 0,-0.4529 1.8446,-1.7578 4.0873,-2.8873 5.7336,-2.8874 9.748,-6.2485 11.662,-9.7681 3.2184,-5.9192 4.5234,-17.673 2.6061,-23.417 -1.3395,-4.0128 -5.1864,-8.2632 -9.3931,-10.387 -3.1045,-1.5671 -3.5464,-2.0289 -3.9185,-4.0122 -0.6022,-3.2102 0.7087,-11.908 2.1561,-14.362 1.4579,-2.4708 1.464,-2.606 0.3,-2.606 -1.089,0 -3.0988,3.1418 -3.6372,5.6808 -0.2128,1.0033 -0.7765,2.2676 -1.2562,2.8123 -0.5853,0.6645 -0.6725,1.1224 -0.2437,1.3874 0.3514,0.2173 0.6374,2.1668 0.6374,4.3309 l 0,3.9373 -4.6496,-0.4312 c -2.5574,-0.2332 -4.8509,-0.6078 -5.0997,-0.8437 -0.2488,-0.236 1.3094,-1.7282 3.4498,-3.2998 7.2898,-5.3525 4.8891,-4.7342 -4.181,1.0687 -4.7732,3.0538 -4.8148,3.0526 -10.424,3.2622 -4.3374,0.1621 -5.5252,0.042 -5.1747,-0.5249 1.5531,-2.5129 13.36,-11.669 17.549,-13.612 4.397,-2.0387 3.5259,-2.8135 -2.5873,-2.3435 -12.651,0.9724 -32.477,5.2703 -49.89,10.818 -4.6814,1.4914 -9.9015,2.8863 -11.606,3.1123 -2.8272,0.375 -3.0825,0.3234 -2.8873,-0.7124 0.7728,-4.1013 36.438,-15.247 67.045,-20.942 4.4424,-0.8266 7.0546,-1.2263 9.2243,-1.2187 z m -133.47,12.937 c 1.1705,-0.01 1.2802,0.153 0.75,1.1437 -0.3416,0.6382 -0.6375,1.5893 -0.6375,2.1186 0,1.1235 -4.729,8.279 -14.099,21.317 -3.6757,5.1146 -11.926,17.05 -18.336,26.529 -6.4105,9.4788 -13.642,20.143 -16.068,23.698 -7.2421,10.615 -17.299,28.376 -29.717,52.44 -6.6053,12.8 -11.313,25.02 -14.474,37.666 -1.8168,7.2682 -3.2998,17.35 -3.2998,22.423 0,5.532 2.029,16.682 4.0872,22.498 1.2365,3.4939 1.5568,5.0896 1.0875,5.4558 -0.3649,0.2846 -4.5897,1.2292 -9.3744,2.1186 -12.691,2.359 -43.177,8.8956 -59.133,12.674 -7.6155,1.8033 -14.263,3.2811 -14.774,3.2811 -1.3115,-1e-4 -4.9252,-7.154 -6.6933,-13.255 -4.0192,-13.869 -3.2079,-25.655 2.6436,-38.697 2.3033,-5.1336 18.254,-34.139 23.098,-41.997 4.5186,-7.33 23.088,-35.252 27.917,-41.978 1.907,-2.6566 7.222,-10.634 11.812,-17.736 9.6871,-14.99 21.433,-31.959 29.248,-42.222 3.015,-3.9598 7.2848,-9.9774 9.4868,-13.368 2.202,-3.3904 4.6221,-6.4171 5.3621,-6.7307 0.7401,-0.3137 7.4058,-1.9302 14.83,-3.5998 7.4245,-1.6697 20.924,-5.0531 29.998,-7.5182 16.872,-4.5835 23.86,-6.2435 26.286,-6.2621 z m 177.19,1.3124 c 1.0146,-0.3688 2.606,9.9485 3.2435,21.767 0.4522,8.3822 -0.6731,16.954 -5.6808,43.497 -5.4684,28.985 -6.0995,31.92 -14.136,66.595 -2.1033,9.0743 -5.3263,23.442 -7.1807,31.929 -3.1736,14.523 -6.9809,28.258 -8.0057,28.892 -0.6246,0.386 -7.9307,1.1982 -7.9307,0.8811 0,-0.1393 2.2818,-9.2836 5.0621,-20.324 4.9853,-19.796 8.2239,-34.792 18.936,-87.875 2.9965,-14.849 6.126,-30.103 6.9557,-33.898 1.9568,-8.9491 3.9181,-20.504 6.2621,-36.897 1.0379,-7.2595 2.0123,-13.604 2.1748,-14.099 0.091,-0.2771 0.1951,-0.4306 0.3,-0.4688 z m -69.445,15.674 c 2.6478,-0.011 2.4285,0.9343 -0.8811,2.4748 -3.7695,1.7547 -4.6621,1.8567 -5.1372,0.6188 -0.6811,-1.7752 0.2685,-2.5179 3.731,-2.9248 0.9146,-0.1075 1.6763,-0.1663 2.2873,-0.1688 z m 6.0371,0.8437 6.6183,0.3 c 7.5662,0.3569 13.123,1.6197 17.399,3.9372 2.4618,1.3345 3.3242,2.2835 5.0059,5.5122 1.9436,3.7314 2.0245,4.1066 1.7061,8.6993 -0.4133,5.9595 -1.8077,10.353 -4.1997,13.255 -1.9803,2.4024 -10.178,8.0432 -11.68,8.0432 -0.5033,0 -2.3131,-1.3189 -4.031,-2.9435 -4.683,-4.4289 -5.3418,-4.5278 -25.798,-3.731 -9.5693,0.3727 -22.545,1.2177 -28.854,1.8749 -26.924,2.8044 -69.088,9.8689 -89.637,15.018 -3.7947,0.9508 -9.4643,2.2919 -12.599,2.9811 -3.1348,0.6892 -6.1182,1.3805 -6.637,1.5373 -0.5188,0.1569 -1.1209,0.098 -1.3312,-0.1124 -0.2102,-0.2103 4.7641,-7.9901 11.043,-17.305 l 11.418,-16.949 3.7123,-1.0312 c 3.5882,-0.9987 24.784,-5.4971 39.86,-8.4556 4.0487,-0.7945 17.683,-2.9455 30.298,-4.7809 12.615,-1.8353 25.494,-3.72 28.629,-4.1997 3.1348,-0.4796 7.7149,-0.942 10.162,-1.0312 l 4.4434,-0.1687 0.525,1.9499 c 0.7749,2.9175 3.5465,2.8424 9.7493,-0.2813 l 4.1997,-2.1186 z m -207.21,3.3372 c 0.4734,-0.056 0.4315,0.056 -0.056,0.3563 -0.4951,0.3048 -4.5449,1.2687 -8.9994,2.1373 -16.979,3.311 -26.149,5.3009 -51.596,11.212 -27.332,6.3486 -45.394,13.327 -53.284,20.567 l -4.031,3.6935 -6.8807,1.4062 c -3.7857,0.7747 -7.8445,1.7574 -8.9994,2.1936 -2.6663,1.0069 -13.978,3.8435 -15.336,3.8435 -0.5638,-10e-5 -1.3449,-0.4483 -1.7437,-0.9937 -0.8186,-1.1196 -2.3723,-0.535 -1.8936,0.7124 0.4245,1.1062 -0.5271,1.725 -4.9871,3.2061 -5.2898,1.7566 -5.8021,1.6802 -4.2185,-0.5438 1.8045,-2.5341 4.379,-4.4696 10.818,-8.1556 6.2248,-3.5634 24.646,-9.8533 47.959,-16.368 7.0945,-1.9823 17.489,-4.975 23.098,-6.6558 14.289,-4.2816 33.434,-9.2927 42.297,-11.062 4.1247,-0.8233 13.844,-2.3181 21.598,-3.3185 7.7544,-1.0005 14.774,-1.9486 15.599,-2.1186 0.2709,-0.056 0.4984,-0.094 0.6562,-0.1126 z m 228.94,2.9436 c -0.1009,0.011 -0.2017,0.045 -0.2812,0.094 -0.8727,0.5394 -1.9311,5.3144 -1.9311,8.7368 0,1.6688 0.2506,3.0374 0.5437,3.0374 0.8862,0 3.3103,-10.789 2.5873,-11.512 -0.2579,-0.2578 -0.616,-0.3891 -0.9187,-0.3562 z m -219.6,0.7125 c 0.048,0 0.083,0.026 0.094,0.037 0.5277,0.5277 -0.8311,2.646 -5.3621,8.4181 -2.3312,2.9698 -6.0872,7.9876 -8.3431,11.156 l -4.106,5.7746 -3.4872,0.6749 c -1.9176,0.3806 -6.9971,1.3933 -11.287,2.2311 -4.2897,0.8378 -12.119,2.576 -17.399,3.8623 -5.2796,1.2862 -13.054,3.1526 -17.286,4.1621 -4.2325,1.0096 -7.8098,1.8374 -7.9494,1.8374 -0.6395,0 -0.1522,-1.0169 0.9374,-1.9498 1.721,-1.4736 1.5692,-4.2708 -0.3187,-5.7559 -4.4488,-3.4994 -19.12,-3.3065 -37.629,0.4875 -2.8934,0.5929 -5.3874,0.8624 -5.5496,0.5999 -0.1622,-0.2624 1.1141,-1.2819 2.8498,-2.2686 11.67,-6.6338 33.686,-12.92 79.344,-22.63 15.144,-3.2203 34.005,-6.7433 35.491,-6.637 z m 21.917,5.7746 c -1.1581,0.057 -3.1315,0.8915 -5.3621,2.3811 -14.354,9.5855 -39.261,47.486 -51.69,78.669 -8.8022,22.084 -10.233,38.446 -3.6747,41.716 1.923,0.9587 5.7447,-0.2479 9.4681,-2.9811 7.241,-5.3153 19.056,-19.087 27.842,-32.454 11.477,-17.462 21.413,-43.112 24.823,-64.139 1.1834,-7.2962 1.1182,-9.4504 -0.375,-15.355 -0.9131,-3.6108 -1.0776,-5.1656 -0.5999,-5.6434 0.362,-0.3621 0.6562,-0.9959 0.6562,-1.4249 0,-0.5584 -0.3925,-0.8031 -1.0875,-0.7686 z m -3.4122,3.581 c 0.472,0 1.1508,0.5288 1.4999,1.1811 0.551,1.0297 0.3651,1.3035 -1.4062,2.0437 -2.6679,1.1146 -3.3142,2.1748 -1.3311,2.1748 0.9677,0 1.8765,0.5483 2.5123,1.5186 2.9281,4.4689 -2.3862,28.56 -11.118,50.378 -4.738,11.839 -14.31,27.599 -24.223,39.897 -6.0734,7.535 -14.928,16.232 -18.318,17.961 -3.1386,1.6012 -3.4654,1.5607 -4.7434,-0.3937 -0.8167,-1.2488 -1.0349,-2.7471 -0.9749,-6.4496 0.317,-19.563 19.93,-61.24 43.872,-93.218 5.4369,-7.2616 12.816,-15.093 14.23,-15.093 z m -107.39,20.717 c 8.6222,-0.014 9.8131,0.1107 11.699,1.2187 1.2566,0.7382 2.0998,1.7018 2.0998,2.3998 0,1.7021 -5.5486,4.2776 -12.337,5.7184 -8.7804,1.8637 -34.643,2.0477 -36.429,0.2625 -0.2164,-0.2164 0.1354,-1.3883 0.7875,-2.6061 1.3615,-2.5425 1.5196,-2.5905 15.693,-5.2871 7.4028,-1.4085 10.501,-1.6936 18.486,-1.7062 z m 290.66,0.1125 2.3811,1.5749 c 2.9621,1.9603 6.9009,7.0942 8.1557,10.63 0.5197,1.4645 1.1081,4.2822 1.2937,6.2621 0.4611,4.9214 -1.2577,15.377 -3.1686,19.33 -1.5921,3.2933 -5.7226,7.3683 -7.4807,7.3683 -0.5688,0 -3.3167,-1.096 -6.1121,-2.4374 -11.891,-5.7059 -19.184,-5.5911 -73.045,1.2187 -31.755,4.0149 -78.648,11.976 -93.818,15.918 -3.108,0.8075 -7.421,2.1424 -9.5993,2.9622 -4.5879,1.727 -4.7463,1.4785 -2.0999,-3.2622 1.0131,-1.8149 4.5239,-8.223 7.7994,-14.249 6.185,-11.379 12.069,-21.212 13.312,-22.236 0.3956,-0.3259 4.0872,-1.3381 8.2119,-2.2311 4.1247,-0.8929 10.604,-2.3739 14.399,-3.2997 17.991,-4.3894 49.44,-9.8446 81.294,-14.099 12.87,-1.719 26.617,-2.7245 42.447,-3.0936 l 16.03,-0.3562 z m -225.08,0.8625 c 0.2812,0 0.4611,0.048 0.525,0.1125 0.2044,0.2044 -2.5949,4.8888 -6.2245,10.424 -3.6297,5.5355 -8.289,12.701 -10.349,15.918 l -3.7497,5.8496 -4.8934,1.4811 c -2.6886,0.809 -5.7034,1.6347 -6.6933,1.8561 -3.6925,0.8261 -53.112,13.638 -61.196,15.861 -4.6197,1.2707 -12.989,3.4194 -18.599,4.7809 -5.6096,1.3615 -13.304,3.3734 -17.099,4.4809 -3.7947,1.1075 -8.9881,2.5886 -11.549,3.281 -6.047,1.635 -6.247,1.6115 -6.6558,-0.6936 -1.3611,-7.6743 -1.3366,-7.7639 1.9311,-13.443 1.6772,-2.9146 3.6178,-6.6805 4.3122,-8.3619 1.2588,-3.0481 1.2826,-3.0604 8.8681,-6.7495 4.1844,-2.035 8.0308,-3.6995 8.5494,-3.6935 0.5186,0 2.8134,1.4933 5.0996,3.3185 9.0727,7.2431 19.175,13.84 22.873,14.943 0.9241,0.2755 1.7109,0.014 2.6248,-0.8999 1.1628,-1.1628 1.2745,-1.7768 1.0125,-5.5871 -0.3555,-5.1675 -2.1113,-10.302 -5.0059,-14.662 -1.1838,-1.7829 -1.9258,-3.4563 -1.6499,-3.7122 0.6281,-0.5827 7.5445,-2.5511 27.786,-7.912 37.689,-9.9817 65.866,-16.643 70.082,-16.592 z m 227.95,8.9056 c -2.4592,0 -4.7357,11.046 -3.4873,16.949 0.4013,1.8973 0.9196,3.4498 1.1437,3.4498 0.2241,0 0.4775,-2.4644 0.5625,-5.4746 0.1378,-4.8776 1.1237,-10.909 2.2686,-13.874 0.2749,-0.7121 0.1201,-1.0499 -0.4875,-1.0499 z m -341.43,0.1687 c 2.9832,-0.062 7.4267,0.9282 7.7057,1.8562 0.1124,0.3735 0.3378,2.2273 0.5063,4.1247 0.1685,1.8973 0.1299,3.4155 -0.094,3.3747 -0.2236,-0.041 -2.3024,-1.1017 -4.6122,-2.3624 -2.3098,-1.2606 -5.8871,-2.7559 -7.9494,-3.3184 -2.0624,-0.5626 -3.7498,-1.2149 -3.7498,-1.4437 0,-0.507 3.6054,-1.5993 7.012,-2.1374 0.3497,-0.055 0.755,-0.085 1.1812,-0.094 z m 11.906,2.5311 2.9997,0.094 c 1.6499,0.053 8.3641,0.177 14.905,0.2625 6.5412,0.085 11.536,0.3569 11.099,0.6 -0.4365,0.243 -4.3978,1.3975 -8.7931,2.5873 -4.3953,1.1898 -10.704,2.9697 -14.024,3.956 -3.3196,0.9861 -6.275,1.7999 -6.562,1.7999 -0.7327,-10e-5 -0.6382,-1.0432 0.1312,-1.5187 0.377,-0.233 0.5619,-1.9144 0.45,-4.0872 l -0.2062,-3.6935 z m -22.78,0.45 c 0.4904,0.021 0.8138,0.1446 1.0687,0.3562 0.4764,0.3954 2.7299,1.3444 5.0059,2.1186 7.0468,2.3967 13.394,6.0293 12.355,7.0682 -0.3012,0.3012 -3.4856,1.3376 -7.087,2.2874 -3.6015,0.9497 -7.3205,2.004 -8.2495,2.3623 -0.9289,0.3584 -1.7754,0.6562 -1.8936,0.6562 -1.4499,0 -10.782,-11.01 -10.33,-12.187 0.1661,-0.4328 2.3325,-1.2932 4.8184,-1.9123 2.2171,-0.552 3.495,-0.7844 4.3122,-0.7499 z m 23.042,13.424 c 0.1837,-0.01 0.3061,-0.01 0.375,0.019 1.0022,0.3845 4.0114,5.0172 5.5871,8.6056 1.5968,3.6363 2.7671,9.6006 2.2686,11.587 -0.2562,1.0212 -0.8084,1.6125 -1.4999,1.6125 -2.4007,0 -24.945,-15.713 -24.504,-17.08 0.2342,-0.7265 15.019,-4.6089 17.774,-4.7434 z m 75.67,13.912 c 0.126,-0.01 0.2106,0.014 0.225,0.038 0.1333,0.2156 -5.2163,8.4674 -11.868,18.355 l -12.093,17.98 -8.3995,1.5749 c -4.6196,0.8638 -11.288,2.0238 -14.83,2.5874 -10.854,1.7267 -35.639,8.2498 -49.365,12.993 -2.9698,1.0261 -9.9893,3.0398 -15.599,4.4622 -5.6096,1.4223 -16.3,4.2247 -23.773,6.2433 -7.4738,2.0186 -13.759,3.6747 -13.968,3.6747 -0.5333,0 -0.7539,-0.8136 -1.7998,-6.5995 -1.635,-9.0439 -0.1185,-13.67 6.187,-18.842 9.0861,-7.4533 18.286,-10.592 65.752,-22.48 10.559,-2.6446 25.543,-6.4737 33.298,-8.4931 29.804,-7.7616 44.344,-11.377 46.234,-11.493 z m 222,3.1685 c 1.8004,-0.014 3.5415,0.012 5.4558,0.075 7.844,0.2586 9.0026,0.4548 13.387,2.1749 7.1551,2.8074 10.512,5.3052 12.73,9.4868 2.7123,5.1117 3.9847,9.9392 3.4873,13.312 -0.5257,3.5643 -4.2219,15.066 -5.3246,16.574 -0.807,1.1037 -0.9113,1.106 -2.4561,0.094 -3.4156,-2.238 -12.22,-5.1432 -17.568,-5.7934 -5.5646,-0.6766 -20.98,-0.1541 -37.666,1.2749 -6.7183,0.5753 -8.2988,0.5497 -11.474,-0.2812 -4.4194,-1.1564 -10.101,-1.2775 -11.005,-0.225 -0.3543,0.4124 -0.9863,1.2092 -1.3874,1.7623 -0.5507,0.7593 -2.7426,1.2495 -8.9619,1.9875 -4.5311,0.5375 -11.551,1.6141 -15.599,2.3998 -20.004,3.8824 -30.897,6.0459 -52.665,10.48 -13.034,2.6553 -28.153,5.4958 -33.598,6.3183 -12.57,1.8988 -12.112,1.909 -11.606,-0.15 1.378,-5.5981 6.2965,-17.803 10.48,-26.004 4.1214,-8.0782 5.076,-9.5431 6.2246,-9.5431 0.7464,0 2.5308,-0.4225 3.9747,-0.9375 11.829,-4.2181 59.011,-12.208 109.12,-18.486 27.835,-3.4877 36.651,-4.4565 44.453,-4.5185 z m -339.8,0.1313 c 0.098,-0.024 0.1461,0.019 0.15,0.1499 0.011,0.3495 -0.378,1.1593 -0.8625,1.7999 -0.4844,0.6405 -0.8897,0.8744 -0.8999,0.525 -0.011,-0.3494 0.378,-1.1593 0.8624,-1.7999 0.3028,-0.4003 0.5862,-0.6341 0.75,-0.6749 z m 357.18,11.943 c -0.058,-0.013 -0.1196,0 -0.1875,0.019 -2.2324,0.7294 -2.9583,10.39 -1.1999,15.974 0.6309,2.0035 1.9099,4.243 3.206,5.6059 2.2711,2.388 4.7571,2.957 7.1995,1.6498 1.7606,-0.9422 1.4067,-1.6015 -1.4999,-2.8873 -1.457,-0.6445 -3.0791,-1.8301 -3.5997,-2.6248 -1.4406,-2.1986 -3.356,-10.426 -3.356,-14.418 0,-2.252 -0.1591,-3.2276 -0.5625,-3.3185 z m -267.66,26.398 c 0.4282,0 0.6374,0.1528 0.6374,0.4312 0,0.3763 -2.265,4.784 -5.0434,9.8056 -2.7783,5.0217 -7.5681,13.848 -10.649,19.611 -5.5507,10.382 -5.6321,10.49 -8.0057,11.005 -1.3176,0.2863 -4.4247,1.138 -6.8995,1.9125 -11.918,3.7294 -55.458,15.297 -73.701,19.574 l -7.4245,1.7436 -1.4249,-1.5186 c -1.116,-1.2043 -1.7586,-1.4396 -3.0748,-1.125 -2.866,0.6853 -8.7127,2.9874 -12.712,5.0059 -2.113,1.0667 -7.112,2.8558 -11.099,3.9747 -9.9761,2.7996 -10.1,2.7803 -11.343,-1.1624 -2.7852,-8.8355 1.0343,-22.741 8.2869,-30.167 2.5341,-2.5945 3.7471,-3.299 7.7994,-4.5934 4.232,-1.352 41.728,-11.388 55.496,-14.849 2.8017,-0.7043 7.3913,-2.0755 10.199,-3.056 6.9812,-2.438 28.282,-8.5251 37.46,-10.706 4.1447,-0.9847 12.342,-2.5928 18.205,-3.5622 5.8632,-0.9695 11.397,-1.9485 12.299,-2.1749 0.4005,-0.1005 0.7368,-0.1509 0.9937,-0.15 z m 250.76,1.7999 c 8.4737,-0.1292 12.179,0.6356 18.018,2.8873 5.702,2.1989 7.6975,3.6759 7.9495,5.8309 0.1351,1.1557 0.6126,1.6928 1.6873,1.931 1.0494,0.2326 1.95,1.2248 2.9811,3.2998 2.1383,4.3029 2.1206,10.754 -0.038,15.355 -2.0639,4.4004 -4.8886,7.5109 -8.4182,9.2994 -1.5861,0.8037 -2.9955,1.4624 -3.131,1.4624 -0.1355,0 -2.0631,-2.0924 -4.2935,-4.6496 -9.7488,-11.178 -26.799,-25.284 -39.241,-32.454 -0.7668,-0.4419 -1.1504,-1.0171 -0.8625,-1.2936 0.2864,-0.2752 7.0535,-0.8364 15.036,-1.2562 4.1429,-0.2179 7.4872,-0.3694 10.312,-0.4125 z m -34.16,2.1748 6.4683,3.3748 c 7.1636,3.7277 15.255,9.3027 24.692,17.024 6.9212,5.6626 17.455,15.545 17.455,16.368 0,1.2539 -3.3302,0.2419 -12.899,-3.8997 -16.389,-7.0935 -31.09,-15.922 -41.303,-24.823 -4.8066,-4.189 -6.0978,-5.7572 -5.5309,-6.6745 0.1757,-0.2842 2.7481,-0.705 5.7183,-0.9375 l 5.3997,-0.4312 z m -18.749,1.8937 c 1.6547,0 2.7431,0.7715 6.9183,4.9121 12.578,12.474 30.027,22.635 50.246,29.267 2.8048,0.9199 5.0491,1.9078 4.9871,2.1936 -0.1258,0.5807 -6.9465,2.2888 -20.024,5.0059 -9.6896,2.0131 -15.968,2.2892 -27.298,1.1811 -11.91,-1.1649 -17.324,-2.9301 -16.949,-5.5308 0.2471,-1.7145 4.1622,-3.1478 11.08,-4.0685 6.2378,-0.8301 13.209,-0.4103 21.205,1.2749 3.1348,0.6607 6.5095,1.3211 7.4995,1.4812 1.7799,0.2878 1.7766,0.2877 -0.3,-0.675 -3.7697,-1.7475 -13.244,-3.8294 -19.18,-4.2184 -10.64,-0.6973 -21.671,1.9341 -22.536,5.3808 -0.8752,3.4868 2.6521,5.8626 10.856,7.2933 2.873,0.501 6.666,0.8999 8.4181,0.8999 4.2762,0 4.6193,0.9549 0.7312,2.0436 -9.6197,2.6936 -48.726,9.98 -109.38,20.399 -12.539,2.1538 -23.65,4.1027 -24.692,4.3122 -2.3173,0.466 -3.2205,-0.7122 -5.2684,-6.7683 -3.3756,-9.9824 -4.1546,-21.865 -2.1373,-32.923 1.6603,-9.1018 1.9941,-10.053 3.656,-10.856 0.8036,-0.3879 6.1683,-1.2916 11.943,-2.006 5.7746,-0.7145 19.679,-3.037 30.898,-5.1559 55.772,-10.534 72.914,-13.443 79.326,-13.443 z m 67.814,4.7247 c -0.063,0.014 -0.1268,0.065 -0.2062,0.1312 -1.3248,1.0994 -2.6436,6.8049 -2.6436,11.474 0,5.6391 1.3228,10.078 3.6748,12.43 2.4456,2.4459 4.7216,2.4545 6.787,0 1.5843,-1.8828 2.0166,-3.5622 0.9374,-3.5622 -0.3299,0 -0.5999,0.2292 -0.5999,0.5062 0,0.277 -0.6785,0.8171 -1.5187,1.1999 -1.3212,0.602 -1.7142,0.5169 -2.906,-0.675 -2.2144,-2.2143 -3.5848,-8.9977 -3.2435,-16.086 0.2037,-4.2304 0.1585,-5.5161 -0.2813,-5.4183 z m -289.78,35.585 c 0.2818,-0.023 0.4715,0 0.5249,0.056 0.2137,0.2138 -0.2529,2.625 -1.0311,5.3622 -1.2393,4.3588 -1.4228,6.1973 -1.3874,14.868 0.035,8.6548 0.2483,10.62 1.5936,15.636 0.8462,3.1558 2.6436,7.9458 3.9935,10.63 1.3498,2.6848 2.2326,5.0116 1.9686,5.1747 -0.2641,0.1632 -6.0058,1.6695 -12.749,3.356 -6.7433,1.6865 -22.116,5.6067 -34.16,8.7181 -27.327,7.0595 -57.888,14.452 -75.763,18.317 -7.5249,1.6275 -13.796,2.9624 -13.93,2.9624 -0.4402,0 -2.6998,-2.6197 -2.6998,-3.1311 0,-0.978 9.3858,-9.9133 14.268,-13.593 2.7299,-2.0576 7.0064,-4.9533 9.5056,-6.4308 13.338,-7.8859 35.622,-17.15 35.622,-14.812 0,2.9295 -28.184,19.378 -46.197,26.961 -8.3269,3.5053 -7.198,4.3688 1.7061,1.3124 13.99,-4.8021 42.244,-21.215 46.497,-27.017 0.985,-1.3438 1.069,-1.7812 0.4312,-2.5498 -1.0477,-1.2624 -3.6101,-1.1695 -8.9806,0.3376 -12.426,3.4867 -29.996,12.678 -41.153,21.542 -4.1629,3.3076 -12.378,11.652 -13.424,13.63 -0.9058,1.7136 -1.5892,1.6972 -3.9372,-0.094 -2.0473,-1.5615 -5.7371,-7.8682 -5.7371,-9.8243 0,-0.7982 2.5799,-3.4304 7.6494,-7.7995 7.6119,-6.5601 16.499,-14.518 29.623,-26.529 3.7859,-3.4648 8.6537,-7.8322 10.799,-9.7119 l 3.8997,-3.4122 10.762,-2.3998 c 16.408,-3.6426 56.722,-14.279 77.807,-20.53 1.9116,-0.5667 3.6544,-0.9612 4.4997,-1.0312 z m 329,12.618 c 0.5223,-0.018 0.9044,0.018 1.0874,0.1312 0.6776,0.4188 0.3445,2.7386 -0.675,4.7246 -0.5225,1.0181 -0.7018,0.9892 -2.6623,-0.5062 -1.1534,-0.8797 -2.1739,-1.5031 -2.2686,-1.3874 -1.0248,1.254 -1.3293,2.7683 -0.8812,4.331 0.3489,1.2164 0.2965,1.9552 -0.1499,2.2311 -0.3674,0.2271 -4.2188,0.8693 -8.5494,1.4249 -16.741,2.1479 -55.206,8.581 -77.17,12.918 -22.674,4.4772 -32.187,6.2328 -57.296,10.499 -10.889,1.8503 -35.322,6.1676 -54.296,9.5993 -18.974,3.4317 -40.032,7.2134 -46.797,8.3994 -6.7646,1.186 -30.118,5.6419 -51.896,9.8993 -41.462,8.1053 -72.966,14.149 -107.69,20.661 -11.384,2.1348 -29.743,5.6367 -40.797,7.7807 -21.601,4.1896 -33.049,6.175 -46.797,8.1557 -10.768,1.5515 -22.798,2.2527 -22.798,1.3312 0,-1.1823 3.1455,-3.131 5.0434,-3.131 2.3694,0 18.306,-2.052 25.667,-3.2998 35.865,-6.0808 120.14,-22.61 211.07,-41.397 85.565,-17.679 111.54,-22.778 155.99,-30.598 12.044,-2.1187 37.313,-6.5472 56.134,-9.8619 18.821,-3.3147 35.425,-6.031 36.897,-6.037 5.045,-0.021 15.097,-1.7914 18.486,-3.2435 3.1498,-1.3497 8.0858,-2.5456 10.349,-2.6248 z m -420.01,4.0684 c 1.4269,0 0.3672,1.7701 -1.3874,2.3249 -3.456,1.0926 -6.6603,1.5114 -6.2245,0.8061 0.3892,-0.6297 6.4685,-3.131 7.6119,-3.131 z m -8.1744,8.9056 c 0.3613,-0.026 0.5858,-0.016 0.6187,0.038 0.218,0.3527 -20.711,19.393 -41.172,37.46 -2.8597,2.5251 -5.4523,4.5934 -5.7746,4.5934 -0.3221,0 -0.7559,-0.4155 -0.9561,-0.9375 -0.6118,-1.5942 -0.347,-8.2423 0.4124,-10.256 1.3969,-3.7027 27.239,-26.155 32.023,-27.823 2.738,-0.9544 12.32,-2.8928 14.849,-3.0748 z m 418.34,2.2311 c 0.4426,-0.019 0.7025,-0.01 0.75,0.038 0.1672,0.1672 -0.2023,1.1612 -0.825,2.2122 -3.1903,5.3853 -5.7558,10.261 -5.7558,10.968 0,1.1887 -4.4762,2.2502 -6.0184,1.4249 -0.9845,-0.5269 -3.2517,-0.1657 -10.968,1.7437 -9.8338,2.4332 -21.186,4.7395 -37.01,7.5369 -4.7847,0.8459 -15.989,3.0474 -24.898,4.8747 -92.99,19.072 -125.14,24.652 -188.09,32.641 -54.061,6.861 -92.955,13.579 -145.79,25.217 -5.7746,1.272 -14.742,3.1491 -19.93,4.1622 -10.239,1.9993 -12.839,2.1385 -17.868,0.9749 -8.555,-1.9793 -18.644,-3.9369 -20.474,-3.9747 -1.1135,-0.023 -2.5649,-0.2724 -3.2248,-0.5437 -1.661,-0.683 -0.7816,-0.9467 7.1995,-2.1374 9.3852,-1.4001 56.598,-9.9969 103.79,-18.899 55.957,-10.554 70.317,-13.285 86.394,-16.48 20.533,-4.0804 39.951,-7.6647 63.296,-11.699 9.7343,-1.6825 26.338,-4.6694 36.897,-6.6184 10.559,-1.949 28.918,-5.1797 40.797,-7.1807 27.394,-4.6144 33.02,-5.6387 59.396,-10.799 11.879,-2.3242 26.593,-5.0411 32.698,-6.0371 6.1045,-0.996 15.959,-2.6065 21.898,-3.581 12.47,-2.046 24.631,-3.7109 27.729,-3.8435 z m -442.6,3.3373 c 1.2437,0.075 -0.011,1.3815 -3.6185,4.2184 -2.7905,2.1949 -7.6457,6.3028 -10.78,9.1307 -5.229,4.7169 -6.5996,5.7299 -6.5996,4.8558 0,-0.1756 0.8103,-2.4209 1.7999,-4.9871 2.7235,-7.0622 5.5246,-9.4299 14.23,-12.074 2.5666,-0.7796 4.2222,-1.1886 4.9684,-1.1437 z"
           style="fill:#000000;stroke:#000000;stroke-width:0.59996003px"
           id="path3381" />
        <path
           d="m 1619.1,1111.8 c -0.9755,4e-4 -1.9619,0.029 -2.9376,0.094 -8.8448,0.361 -18.069,-0.2554 -26.625,1.8125 0.4993,3.8218 6.4039,4.9297 9,7.6875 12.75,8.4954 23.583,19.735 34.75,30.312 3.8682,2.4935 7.7299,-2.4328 10.219,-4.875 5.3713,-6.4681 6.4392,-17.242 0.8125,-23.812 -2.8201,-1.0682 -2.7536,-4.9445 -5.7187,-6.0625 -5.8897,-3.5701 -12.672,-5.1586 -19.5,-5.1563 z m -38.25,1.875 c -1.6891,0.186 -3.3735,0.3766 -5.0626,0.5626 -1.9639,0.4711 -7.9222,-0.035 -6.0312,3.4062 13.233,13.919 30.731,22.937 47.969,30.906 3.5878,1.2083 7.0659,3.5658 10.875,3.7188 2.5275,-2.4108 -2.1458,-4.828 -3.4376,-6.6562 -13.333,-12.431 -27.763,-24.205 -44.312,-31.938 z m -19.063,2.625 c -0.2459,0.013 -0.4781,0.044 -0.7187,0.063 -40.77,5.4002 -81.162,13.563 -121.75,20.219 -5.5735,15.203 -5.1804,33.629 0.625,48.969 4.3954,5.9996 13.452,-0.6458 19.344,-0.125 40.15,-7.6279 80.986,-13.332 120.53,-22.812 -4.3151,-4.8014 -16.66,-1.1774 -20.312,-8.9063 2.2768,-6.3654 12.064,-4.6798 17.5,-5.3437 5.3477,-0.1118 13.766,0.4802 17.188,2.0937 -10.81,-0.5329 -22.833,-2.6413 -33.062,1.375 -3.0864,5.5549 6.8301,6.3988 10.156,6.9375 16.618,1.7026 34.337,1.1161 49.906,-5 1.5859,-5.3977 -8.0741,-4.9293 -10.969,-7.3438 -17.482,-6.6447 -31.904,-18.368 -46.25,-29.906 -0.467,-0.1415 -0.9492,-0.2002 -1.4376,-0.2188 -0.2441,-0.01 -0.504,-0.013 -0.75,0 z m 67.781,8.1563 c 0.074,1.3095 0.1444,2.6279 0.2187,3.9375 0.6685,5.1734 0.037,11.858 4.4688,15.438 1.1721,1.0651 3.6237,-0.7729 3.7188,-0.4063 -1.1649,2.1278 -4.1343,4.0074 -5.9688,1.4063 -4.5634,-5.5358 -4.3538,-13.86 -2.4375,-20.375 z m -289.81,32.094 c -0.166,-0.012 -0.3442,-0.01 -0.5312,0.031 -30.292,7.4952 -60.402,16.158 -90.781,23.188 -17.62,14.27 -34.668,29.773 -51.312,45.188 -3.0769,1.8602 -2.7232,4.8704 -0.8125,7.5 1.5923,3.0608 3.7609,6.2743 6.9375,7.75 1.2468,-0.501 4.7055,-4.3907 5.1562,-4.7813 -0.051,0.093 -0.2599,0.4076 -0.75,1.0313 -2.7034,2.7355 0.5588,7.2631 4.0626,5.625 44.397,-9.6175 88.386,-21.098 132.41,-32.375 4.2916,-0.6347 1.2544,-5.2411 0.4375,-7.5625 -6.4557,-13.381 -6.1202,-28.802 -3.375,-43.094 0.3405,-1.1373 -0.2758,-2.4117 -1.4375,-2.5 z m -101.19,25.5 c -0.1889,-0.01 -0.3699,0.018 -0.5625,0.063 -7.8822,0.9204 -15.747,3.5969 -21.438,9.375 -8.1267,6.7398 -16.459,13.611 -23.312,21.562 0.3651,3.6541 -0.7269,7.7562 0.8125,11.188 3.3493,0.8832 5.7541,-3.3971 8.3437,-4.9688 12.638,-11.458 25.835,-22.417 37.719,-34.625 0.8823,-1.3331 -0.2401,-2.5541 -1.5625,-2.5938 z m -24.188,5.875 c -0.1858,0 -0.403,0.01 -0.625,0.031 -6.4424,1.3064 -13.111,4.5569 -15.719,11.031 -0.7755,1.8329 -3.6188,5.8463 -0.375,6.6874 6.144,-3.4154 11.194,-8.8641 16.625,-13.437 1.7087,-1.1727 2.8808,-4.2677 0.094,-4.3126 z m 51.875,14.938 c 1.1982,-0.032 2.6129,0.5499 1.1875,1.7812 -9.1195,8.6219 -20.876,14.327 -31.844,20.312 -4.7378,2.4082 -9.5145,4.734 -14.594,6.4063 15.204,-8.1113 31.627,-14.678 44.844,-25.906 1.3993,-0.8774 -0.6721,-2.5606 -0.094,-2.5313 0.1526,-0.029 0.3288,-0.058 0.5,-0.062 z m -3.8438,0.4374 -0.031,0.031 c -19.125,6.9239 -37.797,16.205 -52.469,30.625 14.257,-14.319 32.263,-25.304 51.844,-30.531 l 0.6562,-0.125 z"
           style="color:#000000;fill:url(#linearGradient5630)"
           id="path5432" />
        <path
           d="m 1617.5,1071.7 c -1.1052,-7e-4 -2.2391,0.015 -3.3438,0.031 -27.964,0.9171 -55.532,6.0154 -83.219,9.6563 -24.166,3.9396 -48.707,6.8902 -72.25,13.656 -5.6198,1.6609 -6.548,8.5753 -9.375,12.906 -3.3175,7.963 -7.8923,15.713 -9.2812,24.281 0.9816,3.5157 5.8459,0.5827 8.3438,0.8125 37.538,-6.5509 74.816,-14.604 112.38,-20.969 3.2174,-1.0618 5.7057,-4.1628 9.5,-3.125 14.034,2.7944 28.333,-0.3154 42.5,-0.1562 10.62,-0.6576 21.231,1.2707 30.625,6.375 3.2642,-0.6776 3.2738,-5.7439 4.6562,-8.4062 2.2944,-6.3741 3.8585,-13.509 0.6875,-19.875 -4.425,-10.845 -16.859,-15.607 -27.906,-15.156 -1.1044,-0.034 -2.2073,-0.031 -3.3124,-0.031 z m 14.312,14.844 c 1.2365,6.5996 1.0301,15.271 7.9063,18.812 2.2099,1.1021 0.4934,2.0625 -1.1875,1.7187 -6.1527,-1.6509 -7.8421,-9.3613 -7.8125,-14.906 0.044,-1.8427 0.3247,-4.1822 1.0937,-5.625 z m -267.53,23.312 c -0.9499,0.014 -2.0379,0.5326 -2.9375,0.5 -36.63,5.5363 -71.498,18.587 -107.34,27.5 -9.6433,2.9458 -19.755,4.7529 -29.031,8.6875 -10.304,7.4518 -14.08,21.716 -11.656,33.844 0.829,4.5986 6.376,3.1045 9.375,1.9687 9.3866,-2.0377 17.832,-7.049 27,-9.5313 2.3281,0.3978 3.504,4.112 6.375,2.0626 29.197,-7.5932 58.707,-14.386 87.375,-23.75 3.6384,-3.0355 5.0244,-8.2351 7.7188,-12.125 4.895,-9.4167 10.902,-18.561 14.594,-28.406 -0.3821,-0.5766 -0.8988,-0.7583 -1.4688,-0.75 z"
           style="color:#000000;fill:url(#linearGradient5632)"
           id="path5438" />
        <path
           d="m 1640.7,1027.8 c -0.4811,0.01 -0.9579,0.039 -1.4376,0.031 -29.97,0.6785 -59.862,3.5387 -89.375,8.7813 -22.232,3.8722 -44.582,7.7609 -66.312,13.844 -6.4986,2.3442 -8.0698,10.187 -11.875,15.219 -4.5274,8.4976 -10.094,16.627 -13.563,25.594 0.6949,3.7149 5.4269,0.019 7.5938,-0.094 23.874,-6.577 48.731,-9.9943 73.25,-14 30.042,-4.1168 60.134,-9.3765 90.594,-8.6562 5.231,1.669 10.232,4.9733 15.594,5.8125 8.9899,-4.6339 10.736,-16.037 10.906,-25.188 -0.1,-8.7544 -5.1678,-18.588 -13.938,-21.25 -0.4756,-0.084 -0.9564,-0.1 -1.4374,-0.094 z m 5.0624,12.75 -0.1562,0.7188 0,0.031 c -0.7091,4.3587 -1.185,8.6982 -1.875,13.031 -0.3305,-4.6264 0.03,-9.5534 2.0312,-13.781 z m -254.94,28.281 c -0.1407,0 -0.3008,0.03 -0.4376,0.062 -26.559,5.8466 -52.782,13.213 -79.187,19.781 -18.7,5.2416 -38.053,8.8843 -55.844,16.844 -7.4614,3.7459 -15.962,9.9071 -15.125,19.375 0.46,3.9529 0.1617,8.6161 2.2812,11.969 6.7455,0.3242 13.271,-3.105 19.875,-4.3126 30.966,-7.7644 61.114,-18.692 92.656,-23.937 4.9291,-1.2565 10.604,-1.2823 15.094,-3.5 7.5501,-11.45 15.589,-22.726 22.438,-34.563 0.229,-1.0161 -0.7657,-1.7287 -1.75,-1.7187 z"
           style="color:#000000;fill:url(#linearGradient5634)"
           id="path5440" />
        <path
           d="m 1249.5,1172.5 c -1.7355,0.2153 -3.3434,0.9861 -4.9637,1.6015 -1.0668,0.5072 -2.2918,0.8406 -3.1362,1.7021 -0.6037,0.7721 -0.013,2.0184 0.9766,2.0256 2.0707,-0.1082 4.1122,-0.6201 6.0798,-1.2556 1.1747,-0.4656 2.4899,-1.3398 2.553,-2.726 0,-0.7975 -0.7211,-1.4302 -1.5095,-1.3476 z"
           style="color:#000000;fill:#ff774c"
           id="path5450" />
        <path
           d="m 1641,990.97 c -4.754,-0.20596 -8.6922,4.6555 -13.312,3.875 -1.3285,-2.1224 -3.205,-4.4455 -6.1563,-3.5625 -37.539,4.3951 -74.995,10.373 -111.78,19.125 -5.4337,3.0849 -7.74,9.6686 -11.531,14.375 -4.193,7.0275 -9.6534,13.521 -13.125,20.875 1.3272,3.0198 5.2335,-0.4576 7.5937,-0.2812 49.892,-11.468 100.79,-20.764 152.22,-20.188 3.6384,2.0224 6.563,5.8976 10.469,6.8125 7.5861,-3.9063 15.126,-10.279 15.375,-19.531 1.74,-7.7601 -2.2808,-16.978 -10.438,-18.906 -6.2045,-2.0078 -12.81,-2.6199 -19.312,-2.5938 z m 20,9.7812 c 0.093,1.0712 -0.6719,6.3253 -0.6875,4.5312 0.055,-1.2507 0.3881,-4.6552 0.6875,-4.5312 z m -242.56,27.938 c -0.8928,-0.028 -1.9569,0.4492 -2.8125,0.4375 -30.352,6.2805 -60.388,14.192 -90.219,22.656 -2.2216,0.6366 -7.156,1.6188 -4.625,4.875 3.4011,6.0914 7.3006,13.633 4.8126,20.656 -2.0153,2.1338 -5.0519,-1.4835 -7.0626,-2 -8.0392,-4.3235 -14.632,-11.128 -22.781,-15.125 -5.9498,1.5878 -11.583,4.8361 -16.969,7.7187 -3.4473,8.1514 -10.901,17.047 -7.0624,26.344 2.028,3.0634 6.1619,-0.47 8.9062,-0.4688 38.766,-10.676 77.923,-19.941 116.59,-30.906 4.7693,-1.626 5.8749,-7.7951 9.0624,-11.344 4.3713,-7.3852 10.052,-14.297 13.5,-22.031 -0.3289,-0.6055 -0.808,-0.7954 -1.3437,-0.8125 z"
           style="color:#000000;fill:url(#linearGradient5636)"
           id="path5454" />
        <path
           d="m 1316,1054.5 c -5.4602,1.1168 -11.068,2.2712 -16.228,4.2634 -1.6327,2.8586 3.0635,4.5367 4.5826,6.3302 6.3552,4.3002 12.33,9.9888 19.77,12.152 3.5032,-1.2801 1.3985,-6.2763 1.0491,-8.9732 -1.5099,-4.9587 -3.3051,-10.902 -7.9688,-13.661 -0.3895,-0.093 -0.8046,-0.1824 -1.2053,-0.1116 z"
           style="color:#000000;fill:#ff774c"
           id="path5456" />
        <path
           d="m 1634.2,960.03 c -0.231,0.01 -0.4593,0.0427 -0.6563,0.0937 -30.092,2.751 -59.958,7.6671 -89.719,12.875 -5.8259,1.2164 -13.451,1.3605 -16.062,7.875 -5.453,8.2409 -11.036,16.451 -16.094,24.938 0,3.5493 4.7182,0.6997 6.6563,0.6875 36.338,-8.7854 73.49,-14 110.38,-19.281 2.3414,-2.1189 4.9025,-4.078 7.375,-6.0938 -1.5893,1.4965 -3.038,3.1263 -4.25,4.9375 2.2418,2.3269 6.4932,0.3223 9.5937,0.40625 2.7765,-0.60862 5.345,-1.8565 7.8126,-3.2812 -0.4189,0.41794 -0.8139,0.86682 -1.125,1.375 -0.4373,1.2114 1.0325,1.8274 2.0312,1.7812 2.7226,0.34908 5.4799,0.7723 8.2188,0.8125 1.4873,-0.37146 1.0315,-2.2802 1.0937,-3.4375 -0.1343,-1.8811 0.076,-3.8721 -0.4687,-5.6875 -0.1406,-0.29104 -0.3465,-0.53006 -0.625,-0.6875 1.529,-2.312 2.3176,-5.1209 3.9374,-7.2812 -1.9382,5.2485 -2.5351,11.283 -2.1562,16.75 4.2004,3.3329 9.1966,6.2782 12.438,10.688 3.0983,-0.79163 2.9419,-6.0755 4.4375,-8.8125 2.8615,-7.1539 2.2262,-15.738 -3.125,-21.594 -3.8344,-4.8892 -10.166,-7.3563 -16.312,-6.875 -20.19,2.5644 -39.845,8.4623 -59.25,14.5 -5.1175,2.047 -11.212,3.1524 -15.188,7.0625 -0.1235,3.6839 4.9605,1.6219 7.0625,1.2812 19.993,-4.9059 39.831,-11.957 60.594,-12.469 -3.877,2.601 -8.0653,5.1146 -11.812,8.0625 1.7417,-1.5486 3.3763,-3.1808 4.8124,-5 0.2093,-3.6429 -4.9971,-1.4678 -7.1562,-1.4062 -17.232,2.7319 -33.773,8.7703 -50.812,12.156 -1.6017,0.35929 -6.2181,-0.0165 -3.9375,-2.5 6.7428,-6.2693 16.496,-7.7605 24.875,-10.844 9.7059,-3.143 19.777,-5.1549 29.438,-8.375 1.7475,-1.7892 -0.3827,-2.7237 -2,-2.6562 z m -193.66,37.938 c -0.1507,-0.008 -0.3125,-0.002 -0.4687,0.0312 -28.801,5.0232 -57.506,11.048 -85.688,18.844 -9.6826,3.2576 -19.978,5.5539 -28.75,10.844 -1.8501,2.7112 2.3416,3.0862 4.0625,2.4063 11.347,-1.4638 23.272,-4.3584 34.562,-1.5938 2.5292,0.6775 4.7537,3.009 2.9062,5.5625 -1.3833,2.9508 2.2318,3.3902 4.125,2.2813 17.651,-4.45 35.607,-8.0544 53.344,-12.125 5.7297,-8.0454 12.328,-15.614 17.406,-24.094 0.4012,-1.1005 -0.4445,-2.1008 -1.5,-2.1563 z m -87.062,29.969 c -11.288,0.3503 -22.875,1.3045 -33.531,5.1563 -2.7041,1.154 -3.8197,6.3475 0.1563,6.3124 12.694,0.1978 25.703,0.8524 38.187,-1.75 3.1301,-1.2753 7.6148,-1.9801 9.0938,-5.3437 -0.8051,-4.6923 -7.1087,-4.0596 -10.719,-4.375 -1.057,0.021 -2.1307,-0.055 -3.1874,0 z m -35.5,12.438 c -2.8251,1.7268 -1.0378,6.4183 -1.9688,9.2812 2.3972,3.1538 7.7181,-1.4066 11.219,-1.4062 4.7753,-1.8901 10.674,-1.9308 14.812,-4.9688 0.1044,-3.6158 -5.1842,-1.8422 -7.4687,-2.4687 -5.5268,-0.1525 -11.067,-0.4315 -16.594,-0.4375 z"
           style="color:#000000;fill:url(#linearGradient5638)"
           id="path5458" />
        <path
           d="m 1632.9,989.81 c -1.8901,0.18243 -4.0921,0.13571 -5.5915,1.4565 -1.2227,1.28 -0.6918,3.9928 1.2891,4.0681 2.3849,-0.0639 4.5449,-1.4152 6.5904,-2.5335 1.2802,-0.556 1.4675,-2.3917 0.095,-2.8683 -0.7742,-0.1999 -1.5916,-0.12433 -2.3828,-0.12277 z"
           style="color:#000000;fill:#ff774c"
           id="path5470" />
        <path
           d="m 1685.6,967.42 c -2.3003,-0.35314 -6.7527,0.32374 -5.3125,3.6607 0.6103,2.0523 1.8674,4.8562 3.8393,5.3348 -3.4664,5.2112 -1.6989,12.695 -6.7411,17.165 -1.1423,1.7395 -2.851,2.6606 -4.6205,3.0134 -0.028,3.0315 2.0631,5.9724 1.4732,9.241 0.181,9.2049 -2.3368,19.776 -11.184,24.355 -2.3005,2.1391 -7.4675,2.9359 -7.8562,6.0021 5.5252,5.1421 4.0675,13.693 3.7493,20.488 -0.3123,7.9604 -4.0531,15.318 -9.8877,20.584 1.0356,5.4389 5.6412,10.233 4.8661,16.228 0.9674,8.3853 -2.6788,15.944 -5.0893,23.705 -0.4767,5.8296 3.829,11.157 3.3929,17.121 -0.1951,6.5316 -3.4619,12.926 -6.7128,18.261 -10.637,6.5094 -23.526,5.3717 -35.319,8.1732 -19.73,3.3201 -39.015,9.4456 -58.638,13.097 -27.023,4.2538 -53.875,9.6751 -80.848,14.295 -14.726,2.5295 -29.156,6.0134 -43.952,8.0261 -69.775,13.323 -138.23,33.031 -207.82,47.02 -5.6142,0.6963 -11.581,2.701 -17.156,1.6411 -2.1495,-4.4976 -7.0845,-6.9479 -9.1964,-11.63 -1.3835,-2.9789 -4.3782,-1.382 -6.095,0.4369 -2.7901,1.9565 -6.2632,4.6049 -8.6371,6.1479 3.9709,-3.8942 9.0962,-7.018 12.612,-11.272 -1.0682,-2.4917 0.3036,-7.393 -2.7902,-8.5268 -4.5178,2.2538 -6.7869,7.6485 -9.9941,11.415 -4.4142,6.9449 -9.9679,13.609 -12.283,21.554 -0.1253,1.4126 2.6219,0.9071 0.7143,1.9196 -1.2248,1.3235 -2.9058,1.0387 -2.0312,-1.0491 4.2042,-15.307 16.202,-26.835 24.799,-39.777 3.7854,-8.5137 4.5365,-19.415 13.058,-25 2.5371,-2.4977 7.5249,-2.3982 8.8616,-5.8929 -4.6508,-13.769 1.1973,-30.191 12.143,-39.241 5.1347,-3.0665 11.876,-3.4741 16.853,-6.7634 -0.2702,-5.1412 -2.3479,-10.286 -1.5848,-15.603 0.056,-8.3493 8.163,-13.443 14.424,-17.408 4.9891,-3.4298 11.672,-4.512 16.179,-8.6185 1.0715,-2.1721 -0.439,-6.9461 -3.3929,-4.7991 -1.9367,0.6268 -3.6542,3.9075 -5.6473,3.4598 -1.6777,-2.9654 0.9855,-6.6533 1.3616,-9.7098 3.514,-10.047 6.0516,-20.749 10.558,-30.268 0.9939,0.3897 -0.7402,3.3354 -0.8036,4.4419 -3.291,10.799 -7.7556,21.431 -10.067,32.433 2.296,1.9669 3.9539,-2.705 5.3572,-3.9733 3.8084,-5.9837 1.965,-14.76 8.3482,-19.219 2.4484,-2.189 5.2175,-5.0315 3.9732,-8.6161 -0.2272,-2.6282 0.5533,-5.3683 0.8036,-1.3393 -0.5479,2.4869 1.3559,5.6251 4.1294,4.1295 2.728,-1.5231 7.4146,-2.358 8.3036,-5.692 -2.7523,-4.4329 -6.6333,-8.5965 -10.516,-11.862 -5.794,1.7538 -12.625,3.795 -15.186,10.007 -21.582,35.307 -44.988,69.547 -64.672,106 -17.385,31.594 -33.792,63.583 -52.372,94.49 -0.9418,2.4576 -3.6542,5.0572 -2.6098,7.836 1.484,0.2048 1.6282,-1.1183 2.7232,0.6027 5.938,1.1235 12.129,-1.4383 18.091,-2.004 99.97,-18.722 199.61,-39.483 299.28,-59.893 57.591,-11.67 115.82,-20.874 174.04,-29.498 5.478,-1.4333 12.297,-0.996 16.627,-5.1 5.7771,-12.071 7.5978,-25.667 10.984,-38.554 10.243,-47.019 20.515,-94.067 29.018,-141.43 0.4696,-6.0444 2.9262,-12.597 0.869,-18.5 -3.4063,-1.9205 -8.5505,-0.69164 -12.411,-1.0491 z"
           style="color:#000000;fill:#ffee8a"
           id="path5480" />
        <path
           d="m 1292.4,1041.5 c -2.2225,0.9442 -6.4357,0.4478 -7.2098,3.1697 2.0206,4.8857 6.0558,9.1384 10.156,12.188 5.5894,-1.9739 11.695,-3.008 16.964,-5.6474 0.4143,-3.0746 -4.3004,-3.6249 -6.2571,-5.0407 -4.4887,-1.5832 -8.7844,-4.7116 -13.654,-4.6691 z"
           style="color:#000000;fill:#ffee8a"
           id="path5482" />
        <path
           d="m 1304,1038.5 c -2.1684,0.5219 -6.3094,0.1207 -6.7634,2.5446 4.819,2.1673 9.9364,4.6033 14.866,6.317 2.6862,-1.5134 1.6537,-6.4212 -0.5357,-7.9911 -2.3613,-1.0259 -5.0413,-0.9574 -7.567,-0.8705 z"
           style="color:#000000;fill:#ffee8a"
           id="path5484" />
        <path
           d="m 1702.9,979.73 c -2.4591,0.49048 -1.2563,3.9844 -2.055,5.7735 -3.15,21.833 -7.3088,43.437 -11.878,65.016 -7.6334,36.699 -14.634,73.546 -23.948,109.87 -0.3214,2.5582 -1.8557,5.1141 -1.5783,7.6708 1.8375,1.7006 4.8538,0.3143 7.0395,0.1105 3.1032,-1.6625 3.0761,-6.0164 4.3014,-8.9626 7.1753,-28.653 13.377,-57.563 19.784,-86.402 4.3606,-21.55 9.0489,-43.049 11.73,-64.884 0.8674,-9.0233 0.4988,-18.27 -1.2971,-27.135 -0.3407,-0.85527 -1.2252,-1.2064 -2.0992,-1.0575 z"
           style="color:#000000;fill:#ffe968"
           id="path5486" />
        <path
           d="m 1668.5,1169.1 c -9.5208,2.5224 -18.973,5.1772 -28.831,6.0435 -121.26,18.695 -241.06,45.351 -361.41,68.986 -39.062,7.4974 -77.931,16.002 -117.39,21.265 -3.3529,0.8694 -8.7678,-0.263 -10.647,3.3259 0.2463,3.3162 5.248,1.1784 7.34,1.4442 33.275,-3.1541 65.88,-10.914 98.74,-16.756 93.418,-17.899 186.82,-35.901 280.55,-52.108 41.418,-7.617 82.836,-15.37 124.54,-21.61 2.7598,0.2409 3.9442,-2.3986 3.0912,-4.7197 -0.2062,-1.9098 1.1749,-2.248 2.5,-0.9821 4.1633,2.9082 6.4419,-5.8645 1.5179,-4.8884 z"
           style="color:#000000;fill:#ffe968"
           id="path5488" />
        <path
           d="m 1656.8,1184.5 c -41.692,5.143 -82.799,14.146 -124.18,21.258 -87.917,15.174 -175.56,31.841 -263.22,48.465 -29.721,5.7473 -59.626,10.685 -89.32,16.46 -1.7772,2.3906 2.6436,1.9279 3.9412,2.2826 8.5888,1.1681 17.008,3.9894 25.657,4.5477 33.224,-5.6166 66.088,-13.909 99.386,-19.433 63.127,-10.98 127.05,-16.929 189.94,-29.388 48.597,-9.4637 97.303,-19.168 145.84,-28.847 2.9869,-0.8098 6.8886,1.1889 8.881,-2.1536 2.7192,-3.9014 5.1354,-8.3058 6.7411,-12.701 -0.8791,-1.0439 -2.4651,-0.3574 -3.6607,-0.491 z"
           style="color:#000000;fill:#f2da4e"
           id="path5490" />
        <path
           d="m 1523.3,974.03 c -23.344,4.973 -46.464,11.434 -69.509,17.5 -35.325,49.54 -70.457,99.486 -100.09,152.68 -11.282,17.207 -14.769,40.421 -4.5983,58.929 3.3635,7.3704 12.419,0.165 18.094,0.5515 22.64,-4.8475 45.386,-9.5458 67.933,-14.614 -1.7309,-11.083 -5.9908,-22.467 -4.1964,-34.107 3.8692,-34.367 22.75,-64.669 39.492,-94.205 17.102,-28.854 38.377,-55.41 55.419,-84.322 0.8045,-1.8076 -0.9766,-2.7804 -2.5446,-2.4107 z m -60.134,31.071 c 6.2645,25.186 -5.2846,50.937 -16.027,73.214 -10.54,18.613 -22.635,38.413 -41.652,49.062 -8.3143,-1.6739 -5.817,-13.038 -5.0447,-19.152 7.1905,-33.084 25.523,-63 45.798,-89.386 4.7986,-5.0319 9.6745,-12.084 16.925,-13.738 z"
           style="color:#000000;fill:url(#linearGradient5640)"
           id="path5492" />
        <path
           d="m 1460.3,1007.7 c -5.7053,3.3238 -9.5325,9.242 -13.764,14.18 -16.436,22.188 -30.489,46.417 -39.794,72.455 -2.5282,8.9384 -6.2627,18.559 -4.0085,27.896 1.234,3.7219 5.46,1.3711 7.366,-0.4017 13.575,-10.582 23.375,-25.401 32.296,-39.884 10.129,-17.85 16.579,-37.776 19.864,-57.991 0.4676,-3.8056 1.3133,-9.8184 -3.4775,-11.188 1.3142,-1.2944 5.512,-2.4753 2.8571,-4.7099 -0.3659,-0.3018 -0.8668,-0.4663 -1.3393,-0.3571 z"
           style="color:#000000;fill:#ffffff"
           id="path5494" />
        <path
           d="m 1441.7,992.64 c -18.909,1.672 -58.587,9.6548 -76.798,14.869 -24.777,7.1288 -49.869,13.577 -74.075,22.342 -7.3428,3.0178 -15.146,6.234 -20.569,12.224 -1.3082,1.1095 -0.2982,3.2741 1.389,2.4938 2.7568,-1.2046 6.7458,-1.3772 8.3022,-4.2458 0.1901,-2.3015 2.3352,0.487 3.5513,0.1105 9.4405,-1.6939 18.681,-4.6347 28.092,-6.6108 5.2179,-0.9404 8.2667,-6.0291 12.898,-8.2574 19.782,-11.341 42.569,-15.154 64.474,-20.503 10.864,-2.6726 43.237,-7.9523 54.013,-10.78 1.045,-1.032 -0.2078,-1.9484 -1.2785,-1.6415 z"
           style="color:#000000;fill:#ffffff"
           id="path5580" />
        <path
           d="m 1636.9,958.1 c 2.0864,1.2949 37.997,-1.078 39.064,5.7768 3.0402,3.201 7.6851,0.82042 11.459,1.1364 1.2922,0.067 5.0475,0.23644 3.7249,-2.0519 -4.1961,-3.0255 -9.7124,-3.4628 -14.71,-4.1669 -1.5394,-0.0176 -31.289,-2.9353 -39.538,-0.69448 z"
           style="color:#000000;fill:#ffffff"
           id="path5582" />
      </g>
    </g>
  </g>
  <metadata
     id="metadata332">
    <rdf:RDF>
      <cc:Work>
        <dc:format>image/svg+xml</dc:format>
        <dc:type
           rdf:resource="http://purl.org/dc/dcmitype/StillImage" />
        <cc:license
           rdf:resource="http://creativecommons.org/publicdomain/zero/1.0/" />
        <dc:publisher>
          <cc:Agent
             rdf:about="http://openclipart.org/">
            <dc:title>Openclipart</dc:title>
          </cc:Agent>
        </dc:publisher>
        <dc:title></dc:title>
      </cc:Work>
      <cc:License
         rdf:about="http://creativecommons.org/publicdomain/zero/1.0/">
        <cc:permits
           rdf:resource="http://creativecommons.org/ns#Reproduction" />
        <cc:permits
           rdf:resource="http://creativecommons.org/ns#Distribution" />
        <cc:permits
           rdf:resource="http://creativecommons.org/ns#DerivativeWorks" />
      </cc:License>
    </rdf:RDF>
  </metadata>
</svg>
