<?xml version="1.0" encoding="UTF-8" standalone="no"?>
<svg
   xmlns:dc="http://purl.org/dc/elements/1.1/"
   xmlns:cc="http://creativecommons.org/ns#"
   xmlns:rdf="http://www.w3.org/1999/02/22-rdf-syntax-ns#"
   xmlns:svg="http://www.w3.org/2000/svg"
   xmlns="http://www.w3.org/2000/svg"
   height="540.79584"
   width="458.86682"
   version="1.1"
   viewBox="0 0 458.86682 540.79583"
   id="svg2">
  <defs
     id="defs4" />
  <g
     transform="translate(-62.085798,-192.57936)"
     id="layer1">
    <path
       d="m 209.36,157.35 c 5.1948,-1.473 -2.7176,-0.0384 2.7345,-1.6806 7.0913,-1.7495 14.562,-1.5089 21.342,-4.8428 8.091,-2.9411 16.656,-5.3177 23.539,-10.746 3.9209,1.487 -0.17981,13.741 8.6026,12.268 7.4903,-1.3876 10.229,6.7028 10.584,12.896 2.981,29.759 -2.463,59.484 -3.1882,89.216 0.22037,21.79 2.8146,43.853 -1.0026,65.453 -1.1382,9.462 -10.468,13.422 -18.112,16.064 -6.2826,2.1084 -12.071,6.3246 -18.901,4.0707 -4.7877,4.1833 -12.932,-1.3191 -5.7154,-5.4692 6.1613,-3.0216 13.797,-4.4112 16.627,-11.776 7.4964,-12.357 7.7598,-27.445 9.5378,-41.48 2.6486,-32.506 3.8706,-65.398 -8.7e-4,-97.851 -1.2142,-6.8937 -1.9112,-14.492 -6.2878,-20.145 -4.5539,-1.6149 -14.27,4.1293 -12.59,-5.3475 -5.2974,-4.7002 -13,-0.81397 -19.24,-0.47777 -2.6126,0.31128 -5.3814,0.76502 -7.929,-0.15082 z"
       style="fill:#ffffff;fill-opacity:0.38570999"
       id="path4479" />
    <g
       id="g4401"
       transform="matrix(1.2578373,0,0,1.063689,-191.37933,-141.93138)">
      <path
         id="path3389-3"
         d="m 399.28,314.91 c -52.385,1.9802 -106.75,8.943 -152.81,35.453 -8.7552,5.1039 -16.819,14.163 -14.996,25.109 0.71329,8.2216 0.15746,16.919 2.5521,24.813 1.1844,3.4646 8.1684,6.1454 4.1562,10 -5.3332,4.1337 -12.433,5.7608 -16.719,11.344 -16.657,17.476 -17.742,43.64 -18.727,66.619 -2.6058,66.035 0.48276,132.15 6.7057,197.9 2.4043,25.104 3.805,50.463 6.3965,75.447 1.872,7.835 8.8055,12.732 12.906,19.094 2.2059,7.1327 4.2906,15.996 12.281,18.625 16.77,7.9324 35.833,8.2904 53.594,12.844 44.784,8.7181 90.839,14.003 136.33,7.6229 37.238,-4.228 75.517,-11.827 107.67,-31.81 8.2588,-5.8697 14.02,-14.9 16.005,-24.769 6.4641,-10.038 12.956,-21.1 11.053,-33.574 -4.3957,-69.414 -0.0688,-138.99 -1.1206,-208.47 -0.24316,-27.928 1.5745,-56.077 -1.8438,-83.844 -3.2044,-17.063 -10.856,-35.857 -27.49,-43.44 -5.8488,-1.853 -14.478,-2.7641 -16.791,-9.4042 3.9608,-0.77325 6.7316,-4.2912 5.5864,-8.3749 -0.89713,-11.504 2.6237,-23.865 -1.9301,-34.813 -5.1325,-11.119 -18.408,-13.843 -28.875,-17.656 -30.374,-8.9653 -62.415,-9.1461 -93.938,-8.7188 z m 11.25,16.531 c 32.634,0.49661 67.63,0.1421 96.562,16.562 -1.1788,3.056 -6.3964,2.2487 -8.75,4.1562 -22.609,7.8413 -46.93,9.7629 -70.289,14.932 -40.303,6.074 -81.261,7.9345 -122.02,8.4614 -18.64,-0.56954 -37.995,-1.6369 -55.5,-7.5181 3.027,-4.5662 9.4225,-6.1071 13.938,-9.0625 41.21,-20.668 87.977,-24.929 133.41,-27.246 4.2182,-0.1301 8.437,-0.21802 12.657,-0.28524 z m 97.5,35.969 c -7.0528,8.5184 -18.127,12.619 -28.029,16.827 -25.505,9.1357 -52.629,13.422 -79.409,17.86 -50.339,6.7931 -103.18,6.4661 -151.5,-10.188 -0.97136,-1.9277 -1.6329,-7.3963 1.7887,-5.3143 49.081,11.018 99.925,4.8768 149.61,1.4001 31.866,-3.6077 63.656,-9.3405 94.813,-16.915 4.0812,-0.92902 9.588,-3.1001 12.724,-3.6704 z m -3.8438,25.562 c 4.1272,11.444 17.65,13.994 27.469,18.344 7.574,5.8335 11.771,16.482 12.844,24.844 -2.6623,0.0838 -5.8348,5.0171 -7.375,0.78125 -7.6822,-10.338 -20.094,-20.269 -33.781,-16.875 -4.9651,-1.8718 -7.8706,-8.7424 -14.156,-7.3125 -5.1014,0.30182 -9.4446,3.7286 -12.219,7.8438 -9.4965,-6.3421 -24.641,-4.5624 -29.906,6.3438 -4.4251,6.0749 -6.8504,14.062 -10.531,20.062 -3.2908,-2.1274 -8.7757,0.49887 -10.438,-4.0938 -5.358,-5.4566 -13.513,-6.7607 -20.625,-7.6562 -10.862,-8.3617 -28.124,-13.46 -39.438,-3.25 -3.3824,2.8967 -5.7358,7.0475 -8.2188,10.5 -4.6931,-1.5111 -10.273,-0.0357 -14.219,1.4688 -4.544,-8.5312 -11.519,-15.27 -19.562,-20.5 34.182,1.2517 68.35,-1.3305 101.94,-7.6562 25.206,-4.673 50.857,-9.9715 74.062,-21 1.0669,-0.0407 3.7029,-3.2488 4.1562,-1.8438 z m -245.5,20 c 15.46,3.9758 31.688,7.0694 47.188,9.1562 -9.3956,4.2276 -15.566,12.79 -20.688,21.344 -3.8054,3.4582 -8.5392,-2.772 -13.031,-1.7812 -2.8273,1.1936 -5.1707,1.3732 -7.75,-0.875 -13.813,-9.7091 -34.771,-1.1854 -40.844,13.281 -1.223,-2.931 1.8194,-5.6657 1.9375,-8.75 3.7041,-10.824 13.41,-17.691 23.312,-22.125 3.3531,-2.8403 5.5437,-6.879 6.3438,-11.156 1.1771,0.30208 2.3542,0.60417 3.5312,0.90625 z m 231.03,17.312 c 0.88686,1.7673 -3.3974,3.5 -1.1875,0.8125 0.3227,-0.075 0.92245,-1.7119 1.1875,-0.8125 z m -25.375,3.4688 c 14.089,3.3894 19.589,23.142 11.562,34.312 -6.4931,4.8568 -14.162,-1.7199 -21.031,-1.0625 -2.1957,-0.11425 -5.904,5.8228 -4.8438,1.4375 1.2174,-12.491 4.964,-25.48 13.875,-34.781 l 0.4375,0.0937 z m -150.56,2.8438 c 15.113,6.4233 21.296,24.502 23.188,39.875 -0.0834,2.0505 2.3534,8.1024 -1.7812,6.4062 -4.2977,-2.4325 -12.93,-2.5303 -12.844,-8.9688 0.0692,-12.23 -6.6583,-26.081 -19.062,-29.844 2.802,-3.1204 5.858,-7.263 10.5,-7.4688 z m 195,0 c 9.9166,2.2924 15.817,12.208 20.469,20.281 -1.5178,3.2494 -4.145,6.2299 -6.7188,8.6875 -8.0774,3.5468 -16.611,-1.944 -22.156,-7.5938 -2.1233,-1.1801 -4.6054,-2.7321 -2.7188,-5.4062 2.9113,-5.7062 3.9914,-13.867 11.125,-15.969 z m -125.9,6.1 c 2.2028,0.23705 5.1539,1.1585 6.6875,2.5312 -7.9706,7.0833 -12.804,16.814 -17.281,26.344 -0.79872,-9.5488 -2.3223,-22.653 7.2812,-28.312 1.0866,-0.34043 2.168,-0.77034 3.3125,-0.5625 z m 28.75,10.5 c 8.5355,4.1106 10.027,16.206 8.9062,24.188 -6.7862,-3.5884 -16.294,-8.978 -23.344,-3.0625 -3.0997,3.4712 -6.9364,7.5549 -12.062,7.4375 5.2155,-9.9907 9.4174,-23.095 20.938,-27.344 1.9691,0.15914 3.6902,-0.92678 5.5625,-1.2188 z m -160.97,0.6875 c 8.1921,0.42738 13.738,9.0037 15.5,15.812 -1.7199,2.3029 -2.1114,7.282 -5.2188,7.75 -5.8702,-3.3249 -11.919,1.2785 -16.344,4.7812 -2.8417,1.1278 -6.3007,1.8775 -9.125,1.3438 0.67226,-10.041 0.69086,-23.234 10.469,-28.938 1.5528,-0.545 3.0891,-0.59653 4.7188,-0.75 z m 102.38,3.6875 c 4.2859,0.99946 0.69425,6.893 1.6562,9.9062 0.0484,3.7234 2.3406,9.3596 -0.75,12.062 -1.2107,-4.986 -1.0691,-10.616 -3.0625,-15.594 -0.66067,-2.4297 -0.56194,-5.4493 2.1562,-6.375 z m -56.094,2.7812 c 7.2308,1.5376 9.4326,11.311 7.8125,17.281 -7.6908,4.6972 -15.908,12.113 -25.625,9.5938 -4.7494,-0.76459 0.88876,-4.8682 1.4688,-7.4375 4.0969,-7.337 8.067,-16.148 16.344,-19.438 z m 197.41,11.438 c 8.8468,7.8869 22.01,11.499 33.25,6.75 2.6096,-0.98621 5.0473,-2.4553 7.1875,-4.25 2.1892,11.706 4.18,24.252 3.5,35.781 -15.362,7.3379 -31.716,12.512 -48.656,14.406 1.2003,-17.477 -0.51204,-35.991 4.7188,-52.688 z m -34.61,10.8 c 5.0383,1.927 10.624,1.0989 15.906,0.90625 -0.60207,14.365 -1.7945,28.739 -1.2188,43.125 -6.661,0.87083 -13.388,0.87942 -20.094,0.90625 -1.8398,-12.678 -4.0378,-25.242 -4.7188,-38.031 3.7968,-1.5875 6.7851,-5.4864 10.125,-6.9062 z m -54.094,3.5312 c 4.9617,2.2662 9.9519,4.5835 15.312,5.75 -0.37502,6.0891 0.45681,12.564 -1.5312,18.281 -5.0695,0.98742 -8.4656,5.6556 -13.375,6.8438 -6.6149,-8.8282 -17.153,-14.563 -27.469,-16.812 0.13416,-2.6557 1.571,-6.177 4.7812,-4.4688 8.3477,0.39808 17.177,-2.8272 22.281,-9.5938 z m -149.75,6 c -5.3733,12.105 -8.7024,25.454 -12.219,37.812 -2.8834,0.0524 -4.3273,-2.56 -3.657,-5.1384 -1.3435,-8.78 -4.0218,-19.157 -3.3118,-27.049 6.769,-0.20271 13.333,-2.3343 19.188,-5.625 z m 66.25,0.8125 c 5.3624,2.5994 11.463,3.1681 16.875,5.4688 0.85802,3.4571 1.8839,9.0288 -2.9062,9.7812 -5.34,3.3633 -9.1358,8.8794 -11.562,14.438 -2.5268,-1.1071 -8.0158,-0.99325 -5.8438,-5.25 1.5362,-8.1111 2.2913,-16.363 3.4375,-24.438 z m 36.406,1.125 c 1.9183,1.4775 3.7752,6.9656 -0.0312,7.0625 -4.2162,1.3238 -4.7707,-6.492 -0.75,-6.625 0.216,-0.20171 0.51305,-0.3304 0.78125,-0.4375 z m -54.094,2.2188 c -1.0667,10.885 -2.1896,22.274 -7.5625,31.969 -0.67563,2.3356 3.0271,6.427 -1.8125,4.9375 -11.917,0.0398 -24.103,1.0682 -35.844,-0.8125 4.0388,-10.991 7.1408,-22.249 12.031,-32.938 11.078,4.2619 24.01,1.8695 33.438,-5.0625 l -0.13003,0.99151 -0.11997,0.91474 z m -85.031,7.1875 c 0.84776,7.3164 2.8009,15.188 3.0312,22.188 -2.698,-0.11463 -4.9084,-2.2581 -3.3125,-4.9062 0.47368,-5.9116 -0.65161,-11.858 0.21875,-17.75 l 0.0625,0.46875 z m 150.47,12.469 c 11.79,-0.0465 21.813,7.9611 28.125,17.281 3.5487,0.42804 10e-4,3.3724 -0.78125,4.7188 -1.4427,1.8174 -1.3488,6.2752 -2.0938,6.5625 -5.2448,-7.2905 -12.143,-15.416 -22.156,-14.375 -11.017,0.96993 -23.286,2.7787 -30.562,12.094 -1.9894,1.3087 -5.2088,7.4915 -6.1562,6.3125 0.14006,-3.2345 -1.7876,-6.5873 -2.7188,-9.125 6.9204,-5.1931 5.9998,-17.888 15.805,-19.586 6.5012,-2.5695 13.496,-3.7902 20.539,-3.8823 z m 177.56,8.75 c 0.78692,4.4491 -0.1325,10.355 -5.5312,10.969 -25.655,12.316 -54.584,14.627 -82.653,15.206 -6.9748,-0.98313 -17.805,-0.3173 -18.784,8.5748 -1.4894,10.397 -0.12021,20.945 -1.5005,31.342 -0.79698,14.055 -2.4321,28.377 0.53178,42.283 5.9061,5.0901 13.638,-0.007 20.404,1.2559 29.765,-1.3902 59.039,-9.5046 86.814,-19.162 -0.0605,5.1762 -7.2484,6.4916 -10.611,8.9358 -24.265,12.555 -51.313,19.532 -78.514,21.658 -8.504,0.27297 -17.178,0.65465 -25.531,1.5312 0.44908,-10.912 -15.412,-19.07 -22.781,-9.8125 -3.4471,4.0372 -3.4381,9.9082 -1.9375,14.75 -12.202,7.3562 -22.667,21.109 -38.25,19.531 -12.755,-0.30583 -25.484,-5.86 -35.625,-12.969 1.36,-1.9616 3.965,-3.7155 4.9688,-0.40625 8.9013,11.677 26.458,13.609 38.688,6.2812 20.751,-10.316 28.942,-34.498 31.531,-56.125 2.4382,-17.264 0.78221,-35.464 -6.375,-51.438 10.628,5.7325 24.21,-4.3339 23.656,-15.844 19.703,6.1492 40.96,2.2205 60.938,0.59375 20.885,-2.6062 41.92,-8.606 60.562,-17.156 z m -127.25,4 c 1.0357,2.1716 -0.23044,5.0334 -2.2188,2.5625 -1.8897,-1.4715 2.7674,-3.4883 2.2188,-2.5625 z m -200.75,12.031 c 28.379,7.7817 58.567,11.01 87.719,8.1875 -0.61386,11.08 13.705,18.022 22.531,12.156 -9.795,23.11 -10.306,49.781 -2.9375,73.719 -6.3204,-0.78827 -12.47,3.3186 -15.375,8.2188 -11.422,-3.433 -23.673,0.29353 -35.128,-3.0079 -13.723,-1.8442 -27.808,-3.637 -40.372,-9.5233 -4.7319,-0.56968 -14.822,2.8801 -14.031,-5.25 0.0739,-3.9938 5.0667,0.61603 7.125,0.53125 18.617,3.9935 38.067,10.161 57.125,5.1875 6.5169,-6.8703 2.4178,-16.932 3.6875,-25.281 -0.30459,-16.02 2.3285,-33.14 -3.2812,-48.344 -7.2469,-7.3335 -18.313,-2.0061 -27.219,-4.5312 -13.651,-1.2488 -27.397,-3.6795 -40.438,-8 0.0283,-1.2485 -0.20106,-3.1196 0.59375,-4.0625 z m 152.84,5.625 c 8.6097,3.1659 10.862,13.337 15.156,20.469 9.2106,23.87 5.6384,51.782 -7.2812,73.531 -5.5649,7.0402 -15.408,14.152 -24.562,10.219 -11.459,-8.14 -12.991,-23.543 -15.997,-36.176 -3.3641,-22.848 1.3246,-48.968 18.497,-65.387 4.1864,-2.4638 9.4305,-2.9064 14.188,-2.6562 z m 174.19,4.625 c 1.5078,3.156 -0.40406,7.4933 0.60263,11.031 0.0211,11.586 0.83717,23.757 -0.60263,35 -28.061,13.805 -59.669,18.77 -90.469,21.875 -3.3385,-2.8956 -0.27137,-8.2057 -1.2441,-12.094 0.0885,-13.303 0.0578,-26.611 0.58788,-39.906 30.968,0.0933 62.529,-3.548 91.125,-15.906 z m -327.22,11.25 c 17.642,4.9045 35.811,8.0565 54.188,7.9062 0.25215,15.215 0.67387,30.448 -0.0625,45.656 -17.95,-0.27 -35.37,-4.77 -52.42,-9.89 -1.0554,-14.517 -1.6222,-29.154 -1.7188,-43.656 z m 315.96,81.45 c 1.1938,3.0264 -1.0157,7.115 -0.29873,10.528 -1.8163,31.041 -2.8545,63.926 -19.576,91.034 -4.8616,4.1001 -14.117,5.1993 -17.938,-0.53125 -3.4286,-12.784 -4.7293,-26.027 -8.0312,-38.875 -3.1387,-14.968 -5.7758,-30.264 -3.9688,-45.594 15.973,-7.3258 34.634,-7.4904 49.812,-16.562 z m -311.28,2.9062 c 2.4184,-0.39117 -0.72352,5.2456 -0.1875,1 0.14639,-0.14709 -0.40152,-1.2067 0.1875,-1 z m 16.156,4.3438 c 13.578,2.7081 27.215,5.1234 40.906,7.1875 -9.1268,30.657 -13.009,63.706 -29.531,91.594 -2.521,3.2356 -5.6283,7.8419 -9.5625,8.5938 -7.6368,-5.997 -7.4926,-17.126 -8.5938,-25.969 -0.86056,-25.637 2.5461,-51.244 5.9144,-76.549 0.30911,-1.6014 0.47082,-3.3204 0.86685,-4.8574 z m 213.66,11.781 c 4.6278,-1.2362 3.2125,4.9646 4.7747,7.7428 6.8714,22.654 17.645,44.387 19.913,68.288 2.068,7.8775 -4.5705,15.269 -11.688,17.438 -6.2847,1.1115 -7.1782,-7.4845 -8.5312,-11.781 -4.4477,-26.773 -4.9836,-54.552 -5.6562,-81.531 0.37243,-0.12711 0.79443,-0.15313 1.1875,-0.15625 z m -44,10.281 c -11.37,28.939 -21.551,60.939 -45.5,82.125 -4.3728,2.8008 -8.6757,9.0665 -14.375,7.6875 -5.7754,-2.717 -5.912,-10.79 -7.2188,-16.219 -1.8166,-20.672 2.1266,-41.267 4.625,-61.656 19.054,6.8106 42.444,5.1707 57.312,-9.625 1.1163,-0.54653 7.2234,-6.1784 5.1562,-2.3125 z m 26.812,9 c 0.60591,19.233 1.4695,38.458 2.7812,57.656 -3.8362,7.9252 -10.972,18.523 -21.125,16.062 -8.2688,-2.9386 -13.894,-10.449 -17.906,-17.938 10.461,-18.856 18.069,-39.72 26.406,-59.219 3.6855,-0.17235 7.1242,-2.1822 9.625,-4.7812 0.0729,2.7396 0.14583,5.4792 0.21875,8.2188 z m -112.91,-8.03 c 3.53,0.7522 10.677,2.7459 8.3104,7.7006 -4.5497,23.32 -8.103,47.139 -5.8104,70.956 -6.2481,-0.29688 -9.3383,-7.5022 -7.6872,-12.937 -0.45532,-20.452 -3.8662,-41.314 -5.6878,-61.219 3.8609,-0.84606 6.9403,-3.8658 10.875,-4.5 z m -28.844,4.1562 c 3.7256,29.438 11.52,60.326 2.5938,89.438 -3.5152,6.1151 -12.842,4.8818 -16.219,-0.6875 -7.0925,-7.8389 -10.301,-20.001 -4.5361,-29.51 8.3281,-19.625 11.517,-41.197 17.849,-61.522 l 0.3125,2.2812 z m 252.34,29.4 c -0.63297,12.824 3.8982,26.568 -1.875,38.719 -10.373,15.346 -28.832,21.335 -44.656,29.188 -13.838,5.9406 -29.255,8.8039 -42.969,14.594 -1.6658,2.4041 -1.1212,5.7801 0.8125,7.875 -18.044,3.3224 -36.23,5.5835 -54.594,6.125 2.6399,-5.4517 -2.3655,-12.108 -8.4604,-10.974 -22.787,-1.5755 -45.742,-3.4416 -68.508,-3.4952 -3.6524,1.5934 -4.5165,6.2812 -3.1562,9.7188 -6.0713,-1.2457 -14.027,-1.5371 -19,-3.875 3.0218,-3.0061 1.4474,-8.538 -1.5938,-10.25 7.491,-3.0826 9.7428,-12.462 12.906,-18.625 4.7649,2.6738 10.833,1.9086 15.688,2.375 6.5124,11.984 24.224,15.068 34.641,6.177 9.3274,-5.4736 16.748,-13.958 23.453,-21.802 8.4764,12.804 24.283,24.152 40.25,19 6.1786,-1.6492 11.133,-6.8558 15.594,-10.344 4.6152,9.8996 17.456,15.293 27.406,10.188 6.3007,-1.8139 11.999,-5.5585 16.25,-10.562 15.486,9.4656 38.76,2.9024 45.487,-14.484 6.5818,-12.198 8.5257,-26.862 12.325,-39.547 z m -285.47,58.625 c 1.6794,3.9562 3.9777,7.5527 6.625,10.938 -4.7638,-1.4192 -9.4522,-2.7609 -13.938,-4.9062 2.5442,-2.1201 4.7325,-4.5492 6.875,-7.0938 l 0.38075,0.92468 0.0568,0.13782 z"
         style="fill:#000000;stroke:#000000;stroke-width:0.59996003px" />
      <path
         id="path3389"
         style="fill:#000000;stroke:#000000;stroke-width:0.59996003px"
         d="m 407.26,320.78 c -35.635,0.27268 -67.284,4.1362 -101.45,12.262 -17.535,4.1704 -23.266,6.1535 -38.247,13.218 -14.095,6.6462 -20.252,10.162 -24.711,14.136 -4.7947,4.2736 -5.3924,5.9594 -5.2496,14.587 0.16679,10.077 1.1017,21.597 1.8749,23.042 0.35782,0.66853 1.8795,2.0706 3.3935,3.1123 l 2.756,1.8936 -0.22499,4.3871 c -0.29391,5.8201 -1.2435,7.0718 -8.1369,10.518 -10.962,5.4803 -16.718,11.725 -21.092,22.948 -3.0285,7.7701 -3.9604,11.512 -5.4184,21.448 -2.3017,15.688 -2.7312,27.483 -2.7372,75.238 -0.003,40.898 0.12618,47.76 1.3499,66.595 1.3857,21.329 2.0504,30.155 3.131,41.997 0.33123,3.6297 0.85602,10.919 1.1811,16.199 1.1328,18.394 3.6356,48.714 5.4184,65.695 1.7531,16.698 2.044,20.981 1.7999,27.504 -0.17411,4.6502 3.0614,11.028 7.5557,14.868 4.008,3.4241 5.8937,6.4853 7.162,11.643 1.3118,5.3344 2.0799,7.2397 3.5435,8.8869 3.4188,3.8479 16.974,8.3001 33.335,10.93 6.1046,0.9816 17.039,2.9859 24.298,4.4623 23.311,4.7407 54.999,9.06 74.395,10.124 11.824,0.6488 43.156,-0.8462 62.096,-2.9624 26.909,-3.0064 43.198,-6.4485 64.177,-13.574 25.886,-8.7923 33.136,-12.375 41.547,-20.417 6.3948,-6.1147 8.2466,-9.1704 8.2682,-13.724 0.0116,-2.4099 0.56834,-3.5952 4.5185,-9.5618 2.4803,-3.7465 4.7885,-7.9032 5.1371,-9.2432 0.34857,-1.3398 1.1949,-3.5881 1.8749,-4.987 1.2112,-2.4921 1.2262,-2.8881 0.56252,-19.499 -0.37264,-9.3252 -1.0004,-22.232 -1.3875,-28.686 -0.54585,-9.1013 -0.52059,-25.39 0.0938,-72.595 0.43545,-33.473 0.65257,-76.652 0.48746,-95.956 -0.16516,-19.304 -0.0772,-39.417 0.18749,-44.697 0.63344,-12.638 -0.26314,-32.775 -1.8749,-41.978 -2.0239,-11.557 -4.7758,-18.465 -11.08,-27.936 -5.3883,-8.0938 -6.8624,-9.1243 -18.861,-13.124 -4.097,-1.3657 -8.3351,-3.0281 -9.4118,-3.6935 -2.6366,-1.6295 -5.0434,-6.5334 -5.0434,-10.274 0,-2.8332 0.0368,-2.8746 2.8498,-4.2184 l 2.8498,-1.3686 0.0188,-16.199 c 0.013,-18.278 0.083,-17.92 -4.7622,-22.386 -3.2697,-3.0138 -6.0611,-4.4431 -14.418,-7.4245 -14.546,-5.1898 -32.722,-8.9127 -49.234,-10.087 -4.9496,-0.35193 -17.099,-0.81432 -26.998,-1.0125 -5.2722,-0.10554 -10.433,-0.13265 -15.524,-0.0937 z m 6.1496,4.6497 c 10.505,-0.009 20.968,0.31492 31.273,0.95622 20.234,1.2591 32.722,3.489 48.672,8.7368 10.904,3.5878 15.224,5.729 18.111,8.9244 4.7679,5.2775 1.6009,9.6782 -9.8618,13.724 -8.4932,2.9978 -36.593,9.1196 -55.721,12.13 -4.4547,0.70117 -13.127,2.1942 -19.292,3.3185 -16.085,2.9333 -22.705,3.6873 -41.603,4.7622 -9.2394,0.52556 -24.493,1.5059 -33.898,2.1936 -15.063,1.1014 -51.32,2.0344 -54.896,1.4062 -0.65995,-0.11591 -5.7896,-0.65695 -11.399,-1.1999 -11.688,-1.1314 -30.427,-4.0884 -34.685,-5.4746 -3.6113,-1.1757 -7.612,-4.8432 -7.612,-6.9745 0,-1.9143 4.5005,-6.0936 10.18,-9.4681 5.1845,-3.08 26.683,-13.202 32.341,-15.224 5.6622,-2.023 25.739,-7.0572 37.141,-9.3181 27.982,-5.5482 59.736,-8.4669 91.25,-8.4931 z m 100.23,32.829 c 0.0929,-0.0124 0.15599,-6e-4 0.18749,0.0187 0.25216,0.15581 0.44996,2.9019 0.44996,6.1121 l 0,5.8496 -2.8498,2.7373 c -2.981,2.8797 -13.518,10.154 -18.13,12.505 -4.7426,2.4182 -14.666,5.8943 -23.811,8.3431 -4.8952,1.3107 -10.102,2.813 -11.568,3.3373 -1.4664,0.52424 -11.186,2.693 -21.598,4.8184 -19.152,3.9091 -43.025,7.5151 -60.033,9.0744 -9.0246,0.8274 -41.02,1.5217 -48.297,1.0499 -5.3382,-0.34606 -28.629,-2.5463 -34.498,-3.2623 -12.508,-1.526 -41.499,-8.3868 -46.778,-11.062 -1.5743,-0.79776 -3.0492,-1.9196 -3.281,-2.5124 -0.60679,-1.5517 -1.7968,-16.333 -1.3499,-16.78 0.20645,-0.20638 2.2057,0.21359 4.4434,0.91872 7.9931,2.5189 23.62,4.8035 48.165,7.0495 12.519,1.1454 28.876,0.85332 52.196,-0.9375 8.4144,-0.64609 21.238,-1.4604 28.498,-1.8186 25.444,-1.2553 35.027,-2.2638 51.896,-5.3996 5.1146,-0.95075 15.374,-2.7138 22.798,-3.9184 14.616,-2.3714 36.398,-6.9631 47.134,-9.9368 3.6945,-1.0232 8.8433,-2.8972 11.437,-4.1622 2.2692,-1.1069 4.3372,-1.9383 4.9872,-2.0248 z m -5.3809,24.542 c 0.0347,-1.2e-4 0.056,0.007 0.075,0.0187 0.30472,0.18833 0.55653,1.602 0.56252,3.1498 0.007,3.351 2.0958,8.1183 4.5747,10.443 2.1553,2.0213 7.9361,4.6698 14.699,6.7307 6.5545,1.9974 9.3035,3.9976 12.993,9.4681 5.826,8.6388 8.5818,15.39 10.274,25.217 1.8647,10.827 2.0892,13.649 1.0686,13.649 -1.1019,0 -1.919,-0.98741 -4.5934,-5.5872 -2.3431,-4.0298 -3.5036,-4.5674 -4.6684,-2.1373 -0.97235,2.0288 -3.7908,3.2622 -5.4372,2.3811 -0.65594,-0.35104 -3.0002,-2.7889 -5.1934,-5.4184 -4.8051,-5.761 -11.308,-11.489 -15.524,-13.668 -2.543,-1.3143 -3.9152,-1.6124 -7.612,-1.6124 -3.0882,-0.002 -5.0943,0.33088 -6.412,1.0312 -2.7295,1.4506 -3.3545,1.296 -4.6684,-1.1436 -1.5421,-2.8635 -5.4345,-6.1301 -7.837,-6.5808 -3.4318,-0.64376 -7.1289,2.3834 -10.593,8.6807 l -1.0312,1.8749 -3.7497,-2.4373 c -7.0766,-4.5739 -13.937,-5.374 -18.205,-2.1186 -1.1889,0.9069 -3.065,2.894 -4.1622,4.406 -2.728,3.759 -8.3167,14.584 -9.9743,19.33 -2.2309,6.3879 -3.7936,7.253 -8.4181,4.6497 l -2.3998,-1.3499 -1.4812,1.7061 c -0.81492,0.93288 -1.7405,1.6078 -2.0624,1.4999 -0.32194,-0.10799 -2.0084,-2.0656 -3.7497,-4.3497 -2.4209,-3.1753 -4.0772,-4.6671 -7.0495,-6.2996 -3.5316,-1.9397 -4.3386,-2.1266 -8.6994,-2.1373 -4.5629,-0.0113 -4.9321,-0.12234 -7.4995,-2.1186 -1.4854,-1.1549 -5.0956,-3.3153 -8.0244,-4.7997 -4.7085,-2.3864 -5.8524,-2.718 -9.9931,-2.9061 -6.2982,-0.286 -9.811,0.91986 -14.118,4.8559 -3.2636,2.9829 -5.3703,6.3074 -6.8245,10.799 -0.40065,1.2374 -0.95039,2.2498 -1.2186,2.2498 -0.26836,0 -1.6551,-0.5285 -3.0936,-1.1812 -2.892,-1.3123 -7.6837,-1.5806 -9.7118,-0.54369 -0.72079,0.3685 -2.448,1.769 -3.8434,3.1122 -1.3955,1.3433 -2.6351,2.3193 -2.7561,2.1748 -0.12089,-0.14441 -1.5132,-2.73 -3.0935,-5.7558 -3.9156,-7.4968 -7.2664,-11.588 -13.03,-15.861 -5.9956,-4.4454 -7.5586,-5.2608 -10.818,-5.6996 -7.3234,-0.98579 -18.143,7.5628 -23.342,18.449 -1.4621,3.0614 -2.391,4.2478 -3.7685,4.8184 -2.9493,1.2216 -7.561,0.84708 -11.418,-0.91866 -1.8983,-0.8691 -3.6938,-1.4226 -3.9934,-1.2374 -0.29962,0.18521 -1.1004,1.3836 -1.7624,2.681 -1.3556,2.6574 -0.61057,3.177 1.5937,1.1062 l 1.3499,-1.2749 3.6372,1.2749 c 2.006,0.69421 4.8994,1.2562 6.4308,1.2562 l 2.7935,0 -2.9811,3.1498 c -1.6318,1.7324 -4.097,4.7022 -5.4933,6.5995 -1.3963,1.8974 -2.6467,3.4498 -2.7748,3.4498 -0.12803,0 -0.67975,-1.4174 -1.2374,-3.1498 -2.3226,-7.2156 -7.6299,-13.971 -13.799,-17.586 -3.2764,-1.92 -10.181,-2.9589 -14.099,-2.1186 -7.172,1.5381 -13.108,6.0776 -15.88,12.149 -1.8266,4.0004 -2.5079,4.6613 -5.3246,5.1184 -1.6205,0.26302 -2.5112,0.0289 -3.7873,-0.97493 -1.5724,-1.2369 -1.692,-1.2561 -2.4186,-0.26242 -0.42351,0.57926 -0.78745,2.3586 -0.78745,3.9559 0,1.5974 -0.38427,3.8428 -0.86243,4.9872 -1.1144,2.6682 -2.1374,2.6677 -2.1374,0 0,-4.2347 1.9789,-15.189 3.731,-20.717 2.4403,-7.7 5.3206,-13.014 9.5619,-17.643 2.8856,-3.1491 4.7323,-4.4768 9.9743,-7.162 9.3306,-4.7796 10.93,-6.826 10.93,-13.93 0,-4.6622 -0.2578,-4.5903 8.8682,-2.0811 6.3057,1.7339 24.19,5.9006 30.729,7.162 1.8149,0.35008 10.454,1.3824 19.199,2.2873 14.276,1.4774 18.164,1.6311 38.097,1.6311 13.371,6e-4 25.3,-0.29344 29.998,-0.74994 25.6,-2.4872 71.263,-10.309 84.407,-14.455 3.0771,-0.97073 8.7871,-2.6094 12.693,-3.6372 7.4004,-1.9475 17.731,-5.6524 22.517,-8.0807 1.5328,-0.7776 4.8981,-2.9268 7.4807,-4.7809 2.4213,-1.7381 4.6547,-3.0359 5.1746,-3.0373 z m -19.067,39.991 c 1.9237,-0.22594 5.5076,3.2186 6.5058,6.2433 0.60902,1.8452 0.46407,2.3403 -1.7249,6.0746 -1.3125,2.2391 -2.9825,5.4859 -3.7123,7.2183 -0.72967,1.7324 -1.5447,3.1498 -1.8186,3.1498 -0.27394,0 -1.0538,-1.2389 -1.7249,-2.7561 -0.67112,-1.5172 -2.1594,-4.3163 -3.3185,-6.2246 -1.1592,-1.9082 -2.1064,-3.9766 -2.0998,-4.5934 0.0197,-1.8773 6.1016,-8.9013 7.8932,-9.1119 z m -25.479,4.8372 c 3.8426,-0.0164 9.0068,2.1072 12.355,5.4558 2.9864,2.9864 7.4664,10.878 9.0931,16.011 l 1.4249,4.5184 -1.7436,7.162 c -0.96173,3.9425 -1.7624,7.7616 -1.7624,8.4744 0,3.4528 -6.5589,6.3177 -14.699,6.4308 -4.2245,0.0587 -5.1692,-0.13985 -7.9119,-1.6499 -1.7139,-0.94355 -3.5129,-1.5602 -4.0122,-1.3687 -0.49934,0.19156 -1.5727,1.4006 -2.381,2.6811 -1.7461,2.766 -4.7538,5.4054 -7.4245,6.5245 -3.4274,1.4362 -3.3701,1.5353 -2.9624,-7.4432 0.42873,-9.4406 1.6644,-17.804 3.4498,-23.155 2.7974,-8.3835 10.145,-21.014 13.293,-22.873 0.87606,-0.51752 2.0002,-0.7632 3.281,-0.76866 z m -149.67,2.43 c 0.72277,-0.0145 1.3377,0.1696 2.2686,0.56252 3.4859,1.4713 11.819,8.037 14.061,11.08 3.3382,4.5297 7.934,13.89 9.5431,19.442 1.787,6.1667 3.872,18.479 4.1059,24.223 l 0.16877,4.1997 -2.3998,0.13121 c -4.8004,0.2689 -16.33,-3.4385 -22.198,-7.1433 l -2.4186,-1.5186 -0.73117,-6.9745 c -0.87798,-8.2683 -2.4674,-13.441 -5.2871,-17.324 -3.2998,-4.544 -9.2968,-7.6682 -14.755,-7.6682 -2.9236,0 -2.9999,-1.0568 -0.41241,-5.1372 4.2553,-6.7103 9.7631,-11.513 15.111,-13.199 1.3941,-0.43941 2.2208,-0.66044 2.9436,-0.67495 z m 194.4,0.43124 c 2.1689,-0.0454 4.4986,0.39346 6.2808,1.2562 3.3745,1.6336 12.095,9.8745 15.524,14.68 2.6688,3.74 7.4245,13.203 7.4245,14.755 0,0.59798 -0.63553,0.7593 -2.306,0.59996 -2.2108,-0.21083 -2.375,-0.0975 -3.9747,2.6811 -2.2627,3.93 -3.205,4.9203 -5.9809,6.337 -1.6419,0.83796 -3.8556,1.2876 -7.1995,1.4249 -8.3015,0.34083 -11.282,-0.73771 -17.399,-6.2808 -2.1183,-1.9197 -4.718,-3.8558 -5.7746,-4.2935 -1.8856,-0.78103 -1.9583,-0.75241 -4.2747,1.8561 l -2.3623,2.6624 0.33747,-2.4936 c 0.62948,-4.5747 4.5645,-17.244 6.712,-21.598 2.3658,-4.7968 6.8591,-10.011 9.4306,-10.968 1.025,-0.38121 2.2609,-0.59144 3.5623,-0.61868 z m -125.54,6.0559 c 1.3326,0.03 2.6573,0.36255 4.5371,1.0124 4.0532,1.4013 12.243,6.1324 12.243,7.0683 0,0.40917 -1.0124,1.3598 -2.2498,2.1186 -3.8176,2.3412 -7.9928,6.6207 -11.08,11.324 -3.2862,5.0057 -9.6813,17.49 -11.905,23.248 -0.79465,2.0573 -1.7571,3.8475 -2.1374,3.9934 -0.38026,0.14591 -1.5916,-0.17777 -2.6998,-0.73123 -1.8065,-0.90192 -2.1028,-1.416 -2.8123,-4.9121 -1.1228,-5.5329 -1.2305,-23.987 -0.16871,-28.198 1.8845,-7.473 5.9804,-12.419 11.699,-14.118 1.9013,-0.56462 3.242,-0.83622 4.5747,-0.80616 z m 162.08,9.7118 c 0.37563,-0.008 0.60535,0.28258 1.0686,0.88121 0.51062,0.65972 1.386,2.0456 1.9499,3.0748 0.56402,1.0292 1.9814,2.4416 3.1498,3.131 1.1685,0.68942 2.1186,1.564 2.1186,1.9499 0,0.38583 -1.5597,2.387 -3.4685,4.4434 -3.5101,3.7815 -5.2979,4.5962 -5.8683,2.6811 -0.17201,-0.57752 -1.3776,-3.7497 -2.6811,-7.0495 -1.3035,-3.2998 -2.381,-6.2021 -2.381,-6.4495 10e-4,-0.24748 0.47247,-0.44997 1.0499,-0.44997 0.57746,-10e-4 1.9917,-0.56162 3.131,-1.2562 1.034,-0.63032 1.5555,-0.94823 1.9312,-0.95621 z m -134.45,0.0938 c 0.90377,-0.0185 2.1713,0.49263 4.556,1.6124 3.2993,1.5493 6.5154,5.1783 8.6807,9.8056 2.0906,4.4673 2.7399,8.1255 3.281,18.374 0.36087,6.8357 0.29812,7.7432 -0.58118,8.0806 -1.7533,0.67273 -8.9518,-1.3751 -14.755,-4.1997 -7.7225,-3.7587 -8.6945,-3.6996 -12.712,0.93744 -2.1666,2.501 -4.1753,4.1422 -6.2058,5.0434 -5.5184,2.4493 -15.318,2.2925 -15.318,-0.2437 0,-2.6379 6.6568,-16.617 11.53,-24.223 4.9237,-7.6843 12.954,-13.986 16.874,-13.237 1.216,0.23249 2.003,-0.0257 2.8874,-0.97493 0.58202,-0.62473 1.0595,-0.96053 1.7623,-0.97493 z m -160.02,1.5374 c 2.2968,-0.0399 4.5237,0.2575 6.2058,0.89994 4.2552,1.625 10.29,7.931 13.274,13.874 1.351,2.6908 2.8001,5.0097 3.2248,5.1559 0.54482,0.18754 0.009,1.6603 -1.8186,5.0059 -1.4248,2.6077 -3.526,6.7008 -4.6684,9.0931 -1.1424,2.3923 -2.4098,4.3393 -2.8124,4.3309 -0.40239,-0.008 -2.1938,-0.95339 -3.9934,-2.0998 -1.7996,-1.1465 -3.7092,-2.0811 -4.2372,-2.0811 -0.52802,0 -1.8454,0.92933 -2.9436,2.0623 -2.4509,2.5288 -6.3992,4.2733 -11.493,5.0996 -5.9731,0.96911 -11.32,0.83514 -11.755,-0.29998 -0.82962,-2.162 0.29926,-15.625 1.7812,-21.261 3.1364,-11.928 5.1202,-15.184 11.006,-18.055 2.2093,-1.0778 5.2775,-1.6736 8.2306,-1.7249 z m 101.28,3.6372 c 0.68413,-0.0496 1.4469,0.10986 2.7185,0.44997 1.5696,0.41985 3.6894,1.3995 4.706,2.1748 l 1.8374,1.4061 -0.24377,5.3809 c -0.14141,2.9579 0.0508,8.572 0.43125,12.468 l 0.69367,7.0871 -2.8685,2.906 c -1.5795,1.6051 -4.2876,3.5764 -5.9996,4.3872 -1.7119,0.81085 -3.2463,1.4812 -3.4123,1.4812 -0.62629,0 -0.86556,-1.0574 -1.5187,-6.5995 -0.78534,-6.6656 -2.1276,-14.363 -3.431,-19.667 l -0.91871,-3.7497 1.8562,-2.906 c 1.021,-1.5912 2.7921,-3.3955 3.9372,-4.0123 0.92777,-0.49959 1.5282,-0.75655 2.2123,-0.80617 z m -55.365,2.681 c 3.5726,0.0524 8.825,2.8013 10.705,5.6059 2.0367,3.0377 3.7304,9.2172 4.1435,15.036 l 0.37498,5.1371 -7.1245,4.8372 c -8.4259,5.702 -12.456,7.6969 -17.286,8.5869 -1.958,0.36076 -3.8478,0.64514 -4.1997,0.61868 -2.579,-0.19223 -8.4923,-1.904 -11.062,-3.206 l -3.0936,-1.5749 0.93743,-2.2311 c 2.1076,-5.0845 9.2212,-17.401 12.862,-22.236 2.1448,-2.8488 5.4884,-6.399 7.4245,-7.8932 3.0581,-2.36 3.8883,-2.7164 6.3183,-2.6811 z m 136.23,1.2187 c 0.5198,-0.0525 1.0981,0.15479 2.1186,0.58118 1.192,0.49808 2.8938,0.82398 3.7872,0.73122 1.9895,-0.20662 2.0209,-2.6842 -0.39369,23.23 l -0.39375,4.1997 -2.8498,0.18743 c -1.9538,0.12533 -2.9241,-0.0641 -3.0936,-0.59996 -0.13613,-0.43071 -0.40335,-4.8371 -0.58118,-9.7868 -0.2812,-7.8265 -0.73003,-11.473 -1.8936,-15.336 -0.16727,-0.5555 0.43371,-1.4566 1.4812,-2.2311 0.82944,-0.61328 1.2988,-0.92244 1.8186,-0.97493 z m 120.39,4.7059 c 0.0616,-0.009 0.10332,0.01 0.13122,0.0376 0.22342,0.22294 0.39975,3.8254 0.39375,8.0056 -0.007,9.3952 -0.91878,40.436 -1.1999,40.891 -1.7399,2.8151 -28.239,14.175 -40.553,17.38 -3.7544,0.97709 -11.373,2.4637 -16.911,3.2998 -5.5384,0.8361 -10.298,1.5187 -10.574,1.5187 -0.75757,0 -1.3144,-4.5142 -0.95616,-7.687 0.17411,-1.5418 0.5822,-9.7873 0.91872,-18.317 0.71179,-18.047 2.0508,-32.551 3.131,-33.991 3.2601,-4.3472 6.271,-7.7994 6.8057,-7.7994 0.35188,-0.001 2.6297,1.8026 5.0622,3.9934 2.4324,2.1908 5.611,4.5113 7.0682,5.1559 5.0908,2.2519 15.703,2.3107 20.042,0.11243 2.8116,-1.4244 3.9456,-2.5489 6.2433,-6.1308 l 2.0436,-3.1498 1.7811,0.91871 c 0.97913,0.50637 2.0252,1.3924 2.3436,1.9873 0.31834,0.59504 1.5689,6.0655 2.7748,12.149 1.7984,9.0724 2.2606,12.868 2.531,21.13 0.28996,8.8581 0.46274,10.144 1.4061,10.649 2.8113,1.5046 4.1435,-1.6039 4.1435,-9.618 -0.002,-6.9313 -0.87515,-13.995 -3.056,-24.805 l -1.8374,-9.0931 1.3687,-0.89993 c 0.74617,-0.49581 2.5446,-2.0727 3.9935,-3.506 1.2678,-1.2542 2.4746,-2.1712 2.906,-2.2311 z m -325.65,2.2124 -0.5624,1.9123 c -1.2942,4.4924 -2.3248,12.524 -2.3248,17.98 -0.002,7.006 -0.3199,7.297 -5.1559,4.9309 -1.8316,-0.89616 -3.4749,-1.4748 -3.656,-1.2937 -0.61886,0.61885 2.9862,3.3922 5.3059,4.0872 1.2737,0.38163 2.5833,1.0322 2.9248,1.4436 0.34149,0.41151 0.89381,4.0834 1.2186,8.1557 0.325,4.0723 1.5178,12.816 2.6624,19.424 1.1445,6.6076 2.0811,12.345 2.0811,12.749 0,0.44001 -0.78312,0.70495 -1.9499,0.67495 -3.0202,-0.0784 -11.846,-2.2095 -13.424,-3.2435 l -1.4249,-0.91872 0.0375,-14.849 c 0.019,-8.1593 0.26092,-20.338 0.52496,-27.073 l 0.46869,-12.243 1.8374,-1.5561 c 2.182,-1.8532 3.4553,-4.2583 4.0122,-7.612 l 0.41253,-2.4748 3.506,-0.0563 3.506,-0.0374 z m 230.01,12.637 3.0936,1.4437 c 4.0095,1.8669 10.284,1.9524 16.518,0.22498 2.4278,-0.67279 4.5584,-1.085 4.7247,-0.91871 0.16631,0.16631 0.009,5.9093 -0.35626,12.768 -1.1374,21.387 -1.4776,40.112 -0.74994,41.472 0.81696,1.5265 0.55076,1.6835 -4.1997,2.5123 -4.9526,0.86412 -26.673,1.5085 -27.073,0.80623 -0.59893,-1.0514 -1.0426,-3.7475 -2.8498,-17.924 -1.0096,-7.9194 -2.0906,-16.019 -2.4186,-17.999 -0.32794,-1.9799 -0.59996,-5.4075 -0.59996,-7.6307 l -0.0188,-4.0497 4.1622,-2.0998 c 2.8602,-1.4404 5.0162,-3.0969 6.9558,-5.3433 l 2.8122,-3.2623 z m -53.659,3.956 2.3248,0.74995 c 1.2738,0.41625 3.656,1.5053 5.3058,2.4186 3.436,1.902 10.445,4.1623 12.899,4.1623 3.1005,0 3.1674,0.49773 2.3436,15.524 l -0.74995,13.761 -3.3373,0.41253 c -3.9274,0.48933 -4.5247,0.77299 -9.6555,4.4997 -2.1448,1.5578 -4.803,3.128 -5.9246,3.506 -1.1217,0.37797 -2.0846,0.69373 -2.1374,0.69373 -0.55892,0 -2.552,-2.175 -4.7809,-5.2309 -5.1662,-7.0833 -13.79,-11.734 -24.954,-13.443 -4.4813,-0.68605 -5.9044,-1.5642 -4.2185,-2.6061 0.3148,-0.19457 1.5649,-3.4201 2.7748,-7.162 l 2.1936,-6.8057 7.2745,0.075 c 9.2947,0.0923 11.98,-0.94103 17.155,-6.6745 l 3.4873,-3.881 z m -92.768,4.331 c 0.98255,0 0.33375,8.2824 -1.8374,23.398 -2.2766,15.85 -2.7666,17.939 -4.7059,19.967 l -1.5937,1.6686 1.0312,4.031 c 1.29,5.0332 1.2754,5.8858 -0.0375,6.4496 -1.1012,0.47306 -32.083,0.91763 -36.747,0.52496 -6.8958,-0.58046 -14.278,-1.5934 -15.036,-2.0624 -0.70975,-0.43857 -0.70867,-0.81709 -0.0187,-2.4936 0.44733,-1.0873 2.6804,-7.5251 4.9684,-14.286 4.357,-12.876 9.8881,-27.504 10.762,-28.461 0.31114,-0.34047 2.0385,0.0667 4.3872,1.0312 11.528,4.734 18.837,3.4211 32.285,-5.7746 3.2144,-2.198 6.1607,-3.9934 6.5433,-3.9934 z m -54.84,0.95616 c 0.32038,0.0272 0.66866,0.22504 1.1624,0.54374 0.77233,0.49838 2.1298,1.358 3.0373,1.9123 3.2071,1.9594 3.225,2.1201 0.39375,9.2993 -5.0762,12.872 -8.7517,25.03 -11.474,37.985 -0.29116,1.3849 -0.87966,2.4354 -1.3875,2.4935 -1.2724,0.14561 -11.528,-2.1165 -12.074,-2.6623 -0.83359,-0.83358 -5.3608,-29.085 -5.7183,-35.679 l -0.35625,-6.4495 5.0434,0 c 8.3556,-0.0148 15.23,-2.1732 19.274,-6.0371 1.088,-1.0397 1.5658,-1.4515 2.0998,-1.4061 z m 61.289,0.075 c 0.54884,0.0251 2.5165,0.83754 4.7434,1.9686 5.2571,2.6702 13.052,5.0531 18.542,5.6808 2.7145,0.31036 3.8106,0.70123 4.0123,1.4249 0.15221,0.5465 0.45177,4.4396 0.67495,8.6432 l 0.41242,7.6307 -1.9499,1.0687 c -4.8349,2.6357 -8.9255,5.7283 -10.387,7.8369 -0.87498,1.2626 -2.2873,4.3336 -3.1311,6.8433 -0.84384,2.5096 -1.8918,4.7085 -2.3248,4.8746 -0.43305,0.16619 -2.1917,-0.36237 -3.9184,-1.1624 -1.7268,-0.80004 -5.0678,-2.0171 -7.4245,-2.7185 -2.3568,-0.70147 -4.4646,-1.4452 -4.6872,-1.6499 -0.22258,-0.2047 -0.1636,-1.5899 0.13127,-3.0748 0.60638,-3.0537 3.8781,-27.051 4.4997,-32.998 0.2242,-2.1448 0.51644,-4.0951 0.65623,-4.331 0.0175,-0.0295 0.0716,-0.0411 0.14999,-0.0375 z m 45.016,0.13121 c 0.166,-0.0147 0.27886,0.0439 0.31869,0.16877 0.13469,0.42177 1.0806,3.8734 2.0999,7.6682 1.0193,3.7947 2.1649,7.5168 2.5498,8.2681 0.47823,0.93371 0.52227,1.8833 0.13128,2.9998 -0.62018,1.7707 -0.45579,1.715 -10.199,3.3935 -7.8777,1.3571 -7.2205,1.7507 -7.6682,-4.5559 -0.63649,-8.9661 -0.53708,-10.703 0.65618,-11.08 3.3081,-1.0461 6.2175,-2.6201 9.0181,-4.8934 1.5444,-1.2537 2.5955,-1.9244 3.0935,-1.9686 z m 73.514,2.1186 c 0.77568,-0.0476 1.523,0.0706 1.9124,0.39375 0.52232,0.43359 0.82494,1.9904 0.82494,4.3497 0.002,2.0219 0.50984,7.1844 1.1436,11.474 0.6338,4.2897 1.2381,8.9421 1.3312,10.33 0.42915,6.4018 -0.9783,2.5151 -5.4559,-15.018 -1.3323,-5.2166 -2.4373,-9.8401 -2.4373,-10.274 0,-0.66139 1.3883,-1.1768 2.681,-1.2561 z m -66.22,0.46875 c 0.81696,0.01 1.7437,0.85896 1.7437,1.8936 0,0.72655 -0.33844,1.8114 -0.76873,2.3998 -0.71023,0.97133 -0.84306,0.8604 -1.4811,-1.2186 -0.38656,-1.2595 -0.49161,-2.5082 -0.22499,-2.7748 0.20963,-0.20963 0.45891,-0.30328 0.73117,-0.29998 z m 62.152,15.074 c 0.45135,0.0355 0.99641,1.9117 2.8873,8.7744 1.2274,4.4546 3.4216,11.109 4.8746,14.793 1.453,3.6833 2.6248,6.9905 2.6248,7.3495 0,0.69853 -2.7673,0.74514 -7.1995,0.11249 -4.7063,-0.67177 -4.9709,-1.2843 -2.9436,-6.6183 1.3287,-3.496 1.1966,-6.4101 -0.3937,-8.6806 -0.96035,-1.3711 -1.2211,-13.837 -0.31869,-15.261 0.17812,-0.28108 0.31821,-0.48057 0.46868,-0.46869 z m -63.277,7.8744 c 1.8504,-0.0239 3.5628,0.0664 5.0622,0.29998 5.0756,0.79074 9.0943,2.0632 13.48,4.2559 4.5427,2.2709 6.5735,4.0856 10.799,9.6368 3.4802,4.5718 3.6656,4.7119 6.1121,4.706 4.0579,-0.005 6.7628,-1.0573 10.912,-4.2373 4.5699,-3.5027 6.0905,-4.1621 9.5805,-4.1621 3.9472,0 4.4806,1.0582 2.8498,5.6058 -2.1868,6.0982 -1.6016,8.2964 2.7748,10.555 3.1374,1.6195 26.082,2.3458 38.791,1.2187 18.993,-1.6845 46.013,-6.6593 54.596,-10.049 18.821,-7.4335 26.893,-10.971 27.598,-12.112 0.2068,-0.33471 0.76194,-0.61867 1.2374,-0.61867 0.71875,0 0.86244,1.7205 0.86244,10.18 0,9.7767 -0.053,10.217 -1.3499,11.437 -4.9661,4.6703 -23.915,12.012 -38.135,14.755 -8.4389,1.628 -27.91,4.3678 -36.072,5.0809 -4.4412,0.38799 -12.877,0.56708 -18.767,0.41247 -8.0189,-0.2104 -10.963,-0.0779 -11.737,0.48747 -0.8961,0.65509 -1.0784,2.4022 -1.4061,13.255 -0.20759,6.8738 -0.55082,14.377 -0.76873,16.686 -0.37941,4.0218 -0.99953,23.357 -1.1624,35.998 -0.0757,5.8775 -0.0591,6.009 1.3311,6.2057 0.78054,0.1104 1.7232,-0.092 2.0811,-0.4499 0.40989,-0.4099 3.9885,-0.6562 9.6743,-0.6562 10.014,0 17.984,-1.0125 35.716,-4.4997 25.297,-4.975 42.587,-10.125 55.065,-16.424 2.0367,-1.0282 3.9915,-1.8749 4.3309,-1.8749 0.38692,0 0.59996,2.5678 0.59996,6.8807 0,6.7297 -0.029,6.9214 -1.7249,8.8494 -2.0891,2.3752 -8.6041,6.3062 -19.03,11.493 -10.136,5.0426 -17.961,7.913 -27.523,10.068 -10.159,2.2893 -13.995,3.2606 -19.705,5.0434 -7.5614,2.3608 -14.702,3.2323 -31.61,3.8622 -16.605,0.6185 -19.107,0.9311 -22.255,2.7748 -3.0259,1.7725 -3.3543,2.732 -2.1186,6.1683 0.93089,2.5888 0.97601,3.2143 0.2812,4.6684 -1.7507,3.6639 -7.6353,1.9458 -13.986,-4.0871 -2.3893,-2.2697 -4.6749,-4.1247 -5.0809,-4.1247 -0.40605,0 -2.548,1.6662 -4.7434,3.6934 -4.2914,3.9628 -16.865,12.597 -20.792,14.286 -1.3199,0.5678 -3.7497,1.3291 -5.3996,1.6874 -13.582,2.9496 -29.434,-1.0899 -47.903,-12.224 -5.8501,-3.5268 -7.5647,-3.8654 -10.293,-2.0062 -6.9185,4.7147 -15.209,6.6214 -16.311,3.7497 -0.18125,-0.4722 1.2392,-2.8666 3.2435,-5.4558 1.9675,-2.5417 3.9083,-5.2408 4.3122,-5.9996 1.1989,-2.2521 0.59402,-4.4422 -1.6687,-5.962 -1.9179,-1.2882 -2.6284,-1.3627 -11.999,-1.3687 -11.655,-0.01 -22.215,-1.0864 -34.985,-3.5623 -5.0508,-0.9791 -12.292,-2.3422 -16.086,-3.0372 -9.2304,-1.6906 -11.399,-2.3073 -11.399,-3.206 0,-0.4163 -0.32668,-1.0766 -0.73117,-1.4812 -0.58088,-0.5808 -0.92807,-0.5016 -1.6499,0.4312 -0.90474,1.1691 -0.98381,1.1717 -8.3994,-0.5999 -4.1218,-0.9847 -7.6744,-1.9784 -7.8932,-2.2124 -0.5216,-0.5578 -1.8457,-16.83 -1.4249,-17.511 0.17819,-0.2884 1.7395,-0.038 3.4685,0.5624 4.2667,1.4823 31.653,7.5755 39.447,8.7744 8.0062,1.2315 23.165,1.3235 24.336,0.15 0.98465,-0.9867 1.3614,-35.625 0.58123,-53.209 -0.63517,-14.316 0.38644,-13.293 -13.218,-13.293 -9.3958,0 -11.65,-0.23818 -26.436,-2.7186 -14.975,-2.5122 -24.091,-4.5858 -28.91,-6.5995 l -1.9686,-0.82494 0,-7.7807 c 0,-4.287 0.26015,-7.9502 0.56246,-8.137 0.30226,-0.18683 1.2429,-0.082 2.0999,0.24376 2.7576,1.0484 37.862,8.3661 43.347,9.0369 13.732,1.6794 45.246,1.2848 48.803,-0.61868 1.5738,-0.84228 2.0901,-3.2027 1.3686,-6.3558 -0.51735,-2.2606 -0.43887,-2.8506 0.65623,-4.4434 1.1177,-1.6259 1.4969,-1.7851 3.356,-1.4625 1.1549,0.20051 4.7441,1.4242 7.9682,2.7186 3.224,1.2944 6.5044,2.3436 7.2932,2.3436 2.1285,0 4.2149,-2.8906 6.0558,-8.4182 1.8749,-5.6299 3.6604,-7.7404 9.0181,-10.593 6.4122,-3.4141 16.974,-5.7835 24.992,-5.887 z m 43.628,24.992 c -0.37294,-0.0183 -0.78919,0.0286 -1.2749,0.0937 -2.8509,0.38235 -6.063,2.3594 -8.0244,4.9309 -2.7885,3.656 -1.7414,9.0378 2.2686,11.605 2.7725,1.7753 5.6902,1.6249 8.9619,-0.44997 4.3356,-2.7497 6.7471,-7.5779 5.2121,-10.443 -0.44007,-0.8214 -2.0132,-2.5061 -3.4872,-3.731 -1.7339,-1.4391 -2.5373,-1.9512 -3.656,-2.0061 z m -38.022,1.1062 c -1.3686,0.0349 -2.6802,0.25924 -3.731,0.67495 -0.92886,0.36754 -3.866,0.73111 -6.5058,0.80617 -5.5723,0.1585 -8.7154,1.4767 -14.268,5.9996 -9.3846,7.6447 -16.952,22.052 -20.286,38.66 -1.555,7.7455 -2.1304,23.244 -1.1625,30.935 1.5127,12.018 6.1394,27.436 10.687,35.622 3.7357,6.7251 10.372,12.311 16.63,13.968 4.74,1.2545 15.769,-1.3566 22.423,-5.3059 9.5988,-5.6968 17.803,-18.558 21.673,-33.991 3.8839,-15.487 5.1258,-35.753 2.831,-46.459 -1.2142,-5.6649 -4.2929,-14.513 -6.7308,-19.349 -4.2416,-8.4138 -11.623,-18.233 -15.243,-20.267 -1.605,-0.9021 -4.0372,-1.352 -6.3183,-1.2936 z m 35.885,2.756 c 0.79542,-0.0596 1.6394,0.34384 2.7936,1.1437 3.6546,2.5328 3.6466,4.0432 -0.0376,7.1432 -2.4418,2.0547 -4.9003,2.046 -6.5245,-0.0187 -1.6406,-2.0856 -1.5708,-3.3416 0.31875,-5.5872 1.4757,-1.7538 2.4271,-2.6044 3.4498,-2.681 z m -39.297,1.4249 c 2.5679,-0.023 4.7594,0.23237 5.9621,0.86244 5.2491,2.75 14.183,16.585 17.867,27.654 2.8986,8.7089 3.8055,14.09 3.8247,22.798 0.04,17.956 -3.745,35.668 -9.993,46.722 -6.3722,11.274 -12.358,16.021 -23.83,18.955 -5.6281,1.4393 -5.9083,1.4435 -9.1868,0.1312 -8.9999,-3.6025 -14.385,-12.193 -19.349,-30.898 -4.6812,-17.642 -4.8282,-32.185 -0.52496,-49.009 1.824,-7.1318 5.5828,-16.285 9.0368,-22.011 2.2578,-3.7431 7.4866,-9.738 10.162,-11.643 2.9007,-2.0655 10.381,-3.5116 16.03,-3.5622 z m -50.059,0.61874 c -2.5413,-6e-4 -3.2872,0.26956 -4.5747,1.6499 -2.1838,2.3413 -2.8685,3.9403 -2.8685,6.562 0.003,2.934 1.6816,5.6876 4.2559,6.9558 4.2974,2.117 8.9989,0.91704 11.362,-2.9061 3.7305,-6.036 -0.42789,-12.262 -8.1744,-12.262 z m 231.7,0.22498 c 0.065,-0.003 0.11759,-0.001 0.14999,0.0187 0.58088,0.35902 0.89837,54.662 0.33747,57.652 -0.35481,1.8914 -0.83286,2.3794 -3.956,3.9559 -9.381,4.7356 -23.945,9.8618 -37.104,13.068 -9.9124,2.4151 -33.909,6.9922 -42.784,8.1556 -7.3927,0.9692 -19.93,1.2565 -20.417,0.4688 -0.15551,-0.2516 -0.0825,-11.523 0.16871,-25.048 0.25126,-13.525 0.34186,-26.275 0.18749,-28.329 -0.15431,-2.0541 -0.0991,-5.2435 0.13121,-7.087 l 0.43125,-3.356 6.0933,0.39369 c 14.123,0.92184 50.214,-3.1994 66.389,-7.5932 10.553,-2.8667 21.806,-7.3384 27.486,-10.93 1.2378,-0.78295 2.4323,-1.3486 2.8873,-1.3686 z m -230.57,2.7935 c 1.2841,-0.0121 2.6131,0.57566 3.6747,1.8374 1.9448,2.3113 1.962,4.1134 0.075,6.1496 -3.0787,3.322 -9.1827,0.81006 -8.4181,-3.4685 0.50655,-2.8346 2.5283,-4.4983 4.6684,-4.5184 z m -108.18,10.574 c 0.72535,0.005 2.9446,0.61351 5.3434,1.4624 4.9898,1.7657 8.0558,2.423 27.654,6.0371 9.1134,1.6806 11.971,1.9516 21.561,2.0436 l 11.043,0.11255 0.20627,3.2248 c 0.11495,1.7739 0.22876,14.392 0.2437,28.029 0.02,18.217 -0.17297,25.021 -0.69367,25.648 -0.54704,0.6592 -2.2825,0.8193 -7.6682,0.75 -9.8193,-0.1265 -12.452,-0.5294 -35.772,-5.6621 -17.765,-3.91 -19.9,-4.707 -20.342,-7.537 -1.2267,-7.8401 -2.7306,-53.484 -1.7811,-54.071 0.039,-0.0242 0.10259,-0.0383 0.2062,-0.0375 z m 338.43,72.801 c 0.69625,0 0.69163,1.3481 -0.075,17.999 -0.64856,14.087 0.0471,50.689 1.2187,63.896 0.32206,3.6297 0.66103,12.536 0.74995,19.799 l 0.14998,13.218 -1.9311,3.9184 c -4.4929,9.1447 -8.793,13.169 -24.073,22.423 -15.285,9.2572 -40.816,19.316 -59.49,23.455 -5.4824,1.215 -6.2415,1.4454 -5.9246,1.7624 0.13607,0.136 3.6248,-0.1407 7.7432,-0.6187 8.8721,-1.0296 20.425,-3.7225 29.979,-6.9745 9.2876,-3.1615 24.469,-10.7 33.485,-16.63 4.0602,-2.6702 7.5024,-4.8559 7.6495,-4.8559 0.14698,0 0.26248,0.7424 0.26248,1.6499 -0.005,4.1463 -8.5984,13.15 -16.199,16.968 -6.4328,3.2308 -28.683,11.307 -40.497,14.699 -22.023,6.3232 -49.295,10.368 -82.494,12.262 -25.394,1.4483 -44.885,0.3524 -73.495,-4.1622 -5.9396,-0.9373 -12.149,-1.8976 -13.799,-2.1185 -1.6499,-0.2211 -9.2093,-1.5556 -16.799,-2.9811 -7.5895,-1.4256 -17.444,-3.1879 -21.898,-3.8997 -4.4547,-0.7118 -10.124,-1.69 -12.599,-2.1936 -6.7401,-1.3716 -18.96,-5.5789 -20.567,-7.0683 -1.3263,-1.2292 -3.8864,-9.0877 -3.1872,-9.7868 0.15773,-0.1578 3.4697,1.061 7.3682,2.7185 9.601,4.0823 15.315,5.782 26.492,7.8745 9.0786,1.6997 27.347,3.1952 26.379,2.1561 -0.23092,-0.2481 -3.0657,-0.9551 -6.2996,-1.5562 -13.196,-2.4528 -23.795,-5.0323 -32.885,-8.0244 -9.8323,-3.2365 -19.596,-7.5993 -22.798,-10.18 l -1.7999,-1.4437 4.7997,0.019 c 2.6398,0.012 5.5719,-0.2832 6.5058,-0.6562 2.7459,-1.0963 8.7056,-7.2053 11.943,-12.243 1.6523,-2.5712 3.2996,-4.581 3.656,-4.4622 0.35649,0.1188 0.97229,1.9461 1.3687,4.0685 1.5532,8.3165 5.1643,14.753 11.493,20.436 4.9607,4.4544 6.6006,5.0239 14.249,5.0059 6.0763,-0.014 6.8416,-0.1392 9.3556,-1.6124 5.074,-2.9736 8.442,-9.0401 10.049,-18.149 0.54518,-3.0897 1.1842,-5.8151 1.4249,-6.0559 0.24076,-0.2406 1.6208,0.666 3.0748,2.0061 5.1938,4.7875 10.054,5.9525 16.161,3.881 l 3.4872,-1.1811 1.4061,2.7935 c 2.158,4.2586 6.5407,8.7919 9.6369,9.9743 3.8196,1.4588 9.8321,0.9622 14.118,-1.1812 4.6278,-2.3145 13.666,-9.3651 18.43,-14.38 2.231,-2.3487 5.768,-6.644 7.8744,-9.5431 2.1063,-2.8991 4.1123,-5.1787 4.4621,-5.0621 0.34978,0.1166 1.7984,2.0809 3.2061,4.3684 4.5658,7.4202 11.672,14.376 17.886,17.492 6.2805,3.1496 13.375,3.272 19.686,0.3188 4.5615,-2.1347 10.698,-7.7169 13.612,-12.374 1.1549,-1.8462 2.2715,-3.3501 2.4748,-3.3561 0.20327,0 1.0886,1.9556 1.9686,4.3684 1.8414,5.0491 4.9645,9.953 7.4432,11.718 3.3415,2.3793 6.5195,2.7167 12.093,1.2937 9.0697,-2.3157 14.376,-5.9597 17.118,-11.756 0.84474,-1.7856 1.7308,-3.2435 1.9686,-3.2435 0.23777,0 1.1964,0.9441 2.1186,2.0999 2.3172,2.904 5.597,4.4165 11.23,5.1746 6.0734,0.8173 13.209,-0.053 17.249,-2.0998 4.3841,-2.2216 8.0427,-6.5835 11.455,-13.649 8.1616,-16.897 13.062,-40.376 15.13,-72.52 0.70795,-11.003 0.51614,-36.172 -0.2812,-37.891 -0.36213,-0.7807 0.34756,-1.5387 3.2248,-3.4498 2.0281,-1.3471 3.9493,-2.456 4.2559,-2.456 z m -10.312,6.5995 c 0.20831,0 0.19631,3.1722 -0.0376,7.0495 -0.23374,3.8772 -0.72918,12.854 -1.0874,19.949 -1.8453,36.543 -6.9021,62.439 -15.655,80.188 -3.3864,6.8667 -7.2162,11.067 -11.118,12.168 -3.2744,0.9239 -10.231,1.2724 -13.499,0.6749 -7.8032,-1.4264 -8.7804,-3.424 -12.824,-26.136 -2.5358,-14.242 -4.0908,-21.871 -6.1308,-29.998 -1.7009,-6.7756 -3.1363,-27.192 -2.5498,-36.222 0.28906,-4.4507 0.49988,-5.1732 1.8749,-6.3559 1.6584,-1.4265 14.587,-5.2223 25.629,-7.5182 8.4559,-1.7581 14.874,-4.068 25.798,-9.3369 5.0756,-2.448 9.3907,-4.4621 9.5993,-4.4621 z m -124.13,5.4559 c -0.99077,-0.034 -1.7792,0.2085 -2.4186,0.7124 -4.2768,3.3702 -3.8544,10.207 0.80623,13.049 4.6642,2.8439 9.5243,-0.057 9.5243,-5.6996 0,-3.6664 -1.3927,-5.9827 -4.2934,-7.1432 -1.4356,-0.5745 -2.6278,-0.8851 -3.6185,-0.9187 z m -199.6,0.2624 c 1.8934,-0.036 12.477,2.521 13.237,3.2623 0.28348,0.2768 -0.17596,3.4201 -1.0124,7.012 -2.7881,11.973 -4.7802,25.975 -6.4308,45.203 -0.38235,4.4546 -0.89688,8.7744 -1.1436,9.5993 -0.41235,1.3784 -0.47031,1.4027 -0.78744,0.3 -0.18983,-0.66 -0.50859,-4.3047 -0.71245,-8.0994 -0.20381,-3.7948 -0.76609,-12.299 -1.2374,-18.899 -0.47139,-6.5995 -1.1447,-16.994 -1.4999,-23.098 -0.35523,-6.1045 -0.79392,-11.94 -0.97493,-12.974 -0.18101,-1.0346 -0.0439,-2.0561 0.29998,-2.2686 0.0435,-0.027 0.13625,-0.035 0.26248,-0.038 z m 106.81,1.4812 c -2.1264,0 -4.024,0.351 -4.7809,0.8812 -1.7887,1.2528 -3.2248,4.5821 -3.2248,7.5182 0,2.065 0.37155,2.8838 2.0436,4.5559 1.8354,1.8355 2.3874,2.0436 5.4183,2.0436 2.9817,0 3.617,-0.235 5.5496,-2.0061 1.9075,-1.7481 2.2108,-2.4233 2.4561,-5.3809 0.268,-3.2325 0.19901,-3.4757 -1.8186,-5.4933 -1.9381,-1.9381 -2.4091,-2.1186 -5.6434,-2.1186 z m 93.462,1.8749 c 0.70645,0.01 1.5013,0.5005 2.2873,1.4999 1.3907,1.7679 1.6107,3.8264 0.52496,4.9121 -1.0974,1.0973 -2.693,0.8563 -4.0497,-0.6 -1.407,-1.5101 -1.4925,-2.2261 -0.52496,-4.3497 0.44805,-0.9831 1.0559,-1.4716 1.7624,-1.4623 z m -93.125,1.1249 c 3.1823,-10e-5 4.789,4.1389 2.7372,7.0682 -1.1204,1.5996 -4.1368,1.7903 -6.1308,0.3937 -2.9647,-2.0766 -0.51831,-7.4619 3.3935,-7.4619 z m -88.962,0.056 c 0.28306,0 0.62624,0.075 1.0499,0.15 1.0382,0.1838 9.5693,1.795 18.974,3.5997 9.4043,1.8048 20.339,3.6263 24.298,4.031 3.9597,0.4047 7.3989,0.9038 7.6307,1.1062 0.5012,0.4378 -2.088,11.183 -5.2121,21.655 -1.2306,4.1247 -4.3542,15.869 -6.9371,26.098 -7.1554,28.34 -10.977,38.78 -18.317,49.984 -4.8491,7.4012 -8.485,11.654 -11.174,13.068 -1.7584,0.9246 -5.4702,1.0633 -7.387,0.2812 -3.6898,-1.5053 -8.26,-9.727 -10.668,-19.161 -1.1955,-4.6841 -1.3108,-6.6031 -1.2749,-20.174 0.0218,-8.2494 0.36604,-18.779 0.76873,-23.398 2.0218,-23.194 3.3511,-34.821 5.5308,-47.997 1.3191,-7.973 1.4919,-9.2543 2.7186,-9.2431 z m 68.395,8.3432 c 2.2002,-10e-5 2.3818,1.5377 0.44997,3.8622 -2.5592,3.0794 -3.8247,2.6006 -3.8247,-1.4437 0,-1.7834 0.88764,-2.4185 3.3748,-2.4185 z m -9.1306,0.6937 c 0.17207,-0.015 0.3589,-0.01 0.5624,0.019 1.076,0.1532 1.4436,0.8291 2.0624,3.7873 0.41416,1.9798 0.85236,6.1784 0.99365,9.318 0.15449,3.4338 0.98111,8.6932 2.0624,13.199 0.98855,4.1199 1.9778,10.046 2.1936,13.18 0.21575,3.1348 1.1647,12.044 2.1186,19.799 2.2546,18.328 2.6424,25.705 1.8186,34.498 -1.2038,12.849 -2.2961,18.193 -4.7247,23.098 -1.9358,3.9099 -2.5849,4.6789 -4.9309,5.812 -2.9955,1.45 -8.8707,2.1678 -11.774,1.4437 -2.9456,-0.7347 -5.9297,-2.8559 -9.1494,-6.4684 -3.9786,-4.4638 -6.1877,-8.7876 -8.5119,-16.742 l -1.9311,-6.6558 2.5311,-5.9246 c 4.2274,-9.8554 7.4718,-20.11 12.037,-38.06 2.3916,-9.4044 5.7751,-22.094 7.5182,-28.198 1.7432,-6.1046 3.6446,-13.124 4.2184,-15.599 1.1732,-5.0602 1.7012,-6.4032 2.9061,-6.5058 z m 178.32,2.5873 c 0.8451,0.011 1.427,0.077 1.5749,0.225 0.30418,0.304 0.33765,6.7689 0.0562,15.168 l -0.50618,14.624 -1.9124,-5.3996 c -4.1263,-11.552 -6.2748,-18.701 -6.3745,-21.28 l -0.1125,-2.6998 4.1622,-0.4686 c 1.1615,-0.1311 2.2672,-0.1797 3.1123,-0.1688 z m -34.16,0.8811 c 2.3445,-0.1522 2.3118,1.4552 2.4373,8.1557 0.38193,20.388 2.0746,60.802 2.831,67.739 l 0.84372,7.7432 -3.4123,6.0183 c -4.1298,7.2771 -8.1267,11.51 -13.255,14.062 -8.1897,4.0752 -16.264,1.7085 -25.479,-7.4619 -2.7538,-2.7403 -9.9743,-13.472 -9.9743,-14.83 0,-0.5182 0.83538,-2.3317 1.8374,-4.031 5.1898,-8.802 18.65,-39.298 22.892,-51.859 1.6717,-4.9497 3.2947,-9.3064 3.5997,-9.6931 0.3592,-0.4551 1.6393,-0.5983 3.656,-0.3938 2.5972,0.2637 3.3954,0.1035 4.781,-0.9936 2.8387,-2.2478 3.6312,-4.5184 3.206,-9.0931 l -0.37497,-4.031 3.1873,-0.7124 c 1.4031,-0.314 2.4433,-0.5679 3.2248,-0.6188 z m 10.387,0.1126 c 0.98699,0 2.2197,0.021 3.7497,0.056 l 7.3495,0.1688 0.78744,3.2997 c 2.063,8.7891 11.198,35.597 15.093,44.284 1.9963,4.4534 2.6965,7.2733 4.7997,19.311 1.3549,7.7544 2.8183,15.662 3.2623,17.568 0.76357,3.2769 0.73675,3.5568 -0.46875,5.0622 -0.70105,0.8754 -2.2198,3.3512 -3.3748,5.5121 -2.5793,4.8258 -5.7894,7.3883 -11.268,8.9993 -6.5112,1.9147 -6.8939,1.957 -9.1118,0.825 -7.802,-3.9824 -11.317,-21.353 -13.18,-64.964 -0.34533,-8.0845 -0.93221,-20.043 -1.2936,-26.567 -0.36171,-6.5237 -0.4913,-12.269 -0.29998,-12.768 0.21683,-0.5651 0.99491,-0.7762 3.9559,-0.7874 z m -40.085,7.1432 c 0.44204,0.013 2.2469,1.3923 4.031,3.0561 l 3.2435,3.0185 -1.3686,4.0122 c -8.0186,23.307 -21.518,52.87 -29.585,64.777 -5.6091,8.2783 -10.78,14.669 -14.755,18.242 -4.3592,3.9192 -11.39,9.1689 -14.23,10.63 -2.9139,1.4994 -7.7288,2.0872 -9.8431,1.1999 -2.3263,-0.9763 -5.3588,-4.1695 -6.9933,-7.3682 -5.185,-10.147 -5.6863,-28.165 -1.6499,-58.515 0.81672,-6.1402 1.8655,-14.374 2.3248,-18.28 0.45938,-3.9054 0.98069,-7.2427 1.1625,-7.4244 0.18173,-0.1818 2.8248,0.49 5.887,1.4999 15.505,5.1127 29.142,5.4696 38.604,0.9936 4.4122,-2.0872 14.997,-9.2286 18.974,-12.805 1.8677,-1.6801 3.7576,-3.0499 4.1997,-3.0373 z m -85.419,2.5311 1.7062,1.1436 c 0.93827,0.6356 4.2034,2.5174 7.2557,4.181 3.0523,1.6636 5.5496,3.1701 5.5496,3.3372 0,0.1672 -0.5333,2.9724 -1.1999,6.2434 -1.7513,8.5938 -4.626,28.716 -5.6808,39.785 -1.11,11.648 -1.1303,23.725 -0.0563,29.754 0.44091,2.4748 0.67088,4.7241 0.50625,5.0059 -0.16475,0.2818 -1.4319,1.0315 -2.7936,1.6499 -5.8214,2.6435 -11.097,0.3661 -16.274,-7.0308 -1.0857,-1.5514 -1.2022,-2.7526 -1.2561,-12.524 -0.0448,-8.1308 -0.51896,-14.505 -1.9124,-25.798 -1.0178,-8.2494 -2.0213,-17.564 -2.2311,-20.699 -0.20974,-3.1347 -1.0354,-8.4295 -1.8374,-11.774 -0.8019,-3.3447 -1.4624,-6.2197 -1.4624,-6.3746 0,-0.1549 1.8224,-0.4411 4.0497,-0.6375 3.2495,-0.2864 5.1944,-0.9259 9.8431,-3.2998 l 5.7933,-2.9622 z m 6.862,128.54 c -2.1472,-0.069 -2.9241,0.4062 -2.3061,1.4061 0.92975,1.5045 13.958,3.3292 30.354,4.2559 15.816,0.8942 43.251,0.4087 38.997,-0.6936 -4.9948,-1.2943 -16.776,-2.2045 -45.597,-3.4873 -8.0844,-0.3598 -16.556,-0.9009 -18.842,-1.2187 -1.022,-0.142 -1.8903,-0.2394 -2.606,-0.2624 z" />
      <path
         id="path4298"
         style="color:#000000;fill:#497800"
         d="m 310.52,483.45 c -9.609,3.6246 -17.895,12.776 -29.018,11.027 -4.815,0.075 -9.2338,-3.3373 -13.973,-2.7455 -4.2171,6.8419 -6.0678,15.105 -9.1295,22.567 -2.2154,7.4396 -5.9048,14.736 -6.8527,22.411 2.7878,3.1092 7.9109,1.9691 11.607,2.9688 13.833,0.0865 27.759,0.38812 41.54,-0.55804 2.6631,-3.8012 -3.1068,-9.2026 0.82589,-12.857 4.0548,-9.55 4.0435,-20.332 5.7366,-30.491 0.1938,-3.8427 1.2586,-7.8402 0.64732,-11.629 -0.28284,-0.46786 -0.82595,-0.81332 -1.3839,-0.69197 z" />
      <path
         id="path4300"
         style="color:#000000;fill:#497800"
         d="m 236.61,643.74 c -3.7403,1.2716 -2.6871,6.6448 -3.7264,9.6925 -4.1581,28.772 -7.6222,57.977 -5.6329,87.085 1.1614,8.5502 4.0848,17.608 10.699,23.468 6.051,3.8383 12.703,-1.6521 15.915,-6.6741 10.397,-13.021 15.793,-28.992 19.748,-45 5.035,-18.929 10.744,-37.759 15.074,-56.83 -0.42343,-4.9331 -7.1869,-3.6899 -10.528,-4.728 -13.901,-1.9915 -27.662,-5.0906 -41.548,-7.0131 z" />
      <path
         id="path4302"
         style="color:#000000;fill:#497800"
         d="m 295.07,652.51 c -3.354,0.94085 -2.1211,6.1012 -3.6321,8.6317 -6.8907,24.414 -12.415,49.289 -20.676,73.243 -1.4922,4.5539 -4.0246,8.9118 -5.1339,13.549 3.0123,10.199 6.1915,21.488 15.513,27.768 5.7151,3.8182 14.566,3.3827 19.531,-1.4509 7.1348,-9.5336 6.6722,-22.329 7.7009,-33.683 0.11728,-16.47 -2.8557,-32.802 -4.6033,-49.146 -1.7015,-11.542 -3.5868,-23.072 -5.0618,-34.582 -0.45527,-1.7977 -1.1446,-4.7417 -3.6384,-4.3304 z" />
      <path
         id="path4304"
         style="color:#000000;fill:#497800"
         d="m 318.49,668.56 c -4.334,2.068 -9.1098,3.2921 -13.75,4.308 -0.79456,3.8664 1.7668,7.8758 1.6071,11.853 2.9121,21.709 4.8502,43.633 6.0019,65.44 3.7802,5.0933 9.8244,11.235 16.811,8.3323 4.6484,-0.61433 4.6619,-4.6269 3.6161,-8.3482 -2.1746,-24.652 3.398,-49.029 6.2946,-73.348 0.17534,-4.5844 -5.8736,-5.3198 -8.6101,-7.7448 -3.6023,-3.1812 -7.7302,-3.7371 -11.611,-0.66004 l -0.35966,0.16823 z" />
      <path
         id="path4306"
         style="color:#000000;fill:#497800"
         d="m 409.71,663.31 c -11.659,7.6365 -22.68,19.351 -37.679,18.438 -9.9276,0.0885 -19.435,-2.6016 -28.996,-4.8214 -3.0494,1.0915 -1.5712,5.8247 -2.6305,8.3568 -2.6888,22.363 -7.0269,45.191 -3.42,67.698 1.319,7.0111 4.9502,16.35 13.305,16.78 9.5638,-0.15766 16.624,-8.0082 23.237,-13.973 18.216,-18.74 27.838,-43.584 37.688,-67.334 2.1942,-6.3185 5.3569,-12.556 6.6643,-19.028 -2.605,-1.7184 -4.8842,-5.8263 -8.1696,-6.1161 z" />
      <path
         id="path4308"
         style="color:#000000;fill:#497800"
         d="m 317.26,484.18 c -2.2789,3.797 -1.4597,9.0608 -2.6339,13.348 -0.95054,9.042 -2.9042,18.116 -3.125,27.165 4.6301,2.762 10.188,4.6935 15.536,5.7589 4.4377,-1.4452 4.2499,-7.4379 6.9643,-10.647 2.9344,-4.9188 9.2164,-6.5178 12.679,-10.647 -0.87748,-5.4311 0.19528,-11.589 -2.0312,-16.629 -8.4411,-2.4997 -17.165,-4.3669 -25.29,-8.0804 -0.68505,-0.19942 -1.3683,-0.57348 -2.0982,-0.26786 z" />
      <path
         id="path4310"
         style="color:#000000;fill:#497800"
         d="m 304.36,651.86 c -4.1089,-0.83899 -5.4623,6.9727 -1.0938,6.6518 2.4814,-0.54109 5.9199,-5.6226 2.1875,-6.6295 -0.36353,-0.032 -0.72925,-0.0723 -1.0938,-0.0223 z" />
      <path
         id="path4314"
         style="color:#000000;fill:#497800"
         d="m 255.96,484.23 c -4.4624,1.2192 -7.8512,5.1766 -12.701,5.6027 -4.6061,1.262 -9.6601,0.5406 -14.152,1.9643 0.35591,13.307 2.96,26.63 5.3509,39.766 0.10105,5.1902 6.7447,3.543 10.162,5.1895 3.9168,1.8187 5.8949,-2.8968 6.1348,-5.9981 3.4152,-14.009 8.0251,-27.6 13.106,-41.1 -0.87876,-2.5627 -4.8125,-5.5367 -7.9018,-5.4241 z" />
      <path
         id="path4316"
         style="color:#000000;fill:#497800"
         d="m 403.64,478.51 c -5.0102,5.1652 -10.922,10.709 -18.638,10.335 -3.2424,0.5736 -7.282,-0.98626 -9.9777,0.89285 -1.3471,4.9744 -4.4526,9.7808 -4.7321,14.911 4.6613,3.2233 10.979,2.9904 16.094,5.5166 7.0807,2.4306 11.741,8.3637 16.63,13.747 3.8044,2.9416 7.9393,-1.913 11.295,-3.4375 3.5286,-2.7076 7.8465,-3.6675 11.92,-4.7321 0.91477,-9.1148 2.1696,-18.481 1.2277,-27.634 -1.1583,-4.0507 -6.3791,-2.2029 -9.1295,-4.2634 -4.9656,-1.4562 -9.6607,-4.394 -14.688,-5.3348 z" />
      <path
         id="path4318"
         style="color:#000000;fill:#497800"
         d="m 361.77,484.2 c -4.0473,2.5546 -8.4352,4.7086 -12.411,7.2991 -1.4786,4.6445 -0.32722,10.053 0.0446,14.911 0.81442,3.9574 6.0722,1.0636 8.573,1.1639 3.3033,-1.1189 9.3525,-0.279 10.222,-4.6684 -0.5467,-6.1885 -3.0979,-12.047 -4.8438,-17.991 -0.40723,-0.46332 -0.91414,-0.996 -1.5848,-0.71429 z" />
      <path
         id="path4320"
         style="color:#000000;fill:#497800"
         d="m 438.93,656.19 c -3.1409,0.11193 -8.0117,0.33769 -6.3128,4.8414 0.64183,3.715 0.0625,8.5967 -4.089,9.8461 -2.9817,0.28553 -7.2988,-0.12934 -7.9911,3.75 -7.852,21.145 -17.128,41.62 -26.674,62.031 -1.6664,4.0398 2.9819,7.3667 4.6205,10.67 5.955,8.6161 15.816,17.499 27.121,15 10.432,-2.9232 16.304,-13.255 20.982,-22.165 -2.7595,-27.561 -2.3219,-55.348 -4.5536,-82.924 -0.47828,-1.2606 -2.0464,-1.0635 -3.1027,-1.0491 z" />
      <path
         id="path4322"
         style="color:#000000;fill:#497800"
         d="m 445.54,656.5 c -0.12263,17.747 1.2004,35.7 2.209,53.496 1.5509,14.833 1.2768,30.289 6.7196,44.361 1.7502,3.9444 4.7132,8.9973 9.5312,9.0179 7.597,-1.3553 15.1,-5.0473 18.712,-12.208 2.2741,-3.2955 5.0738,-6.758 3.0006,-10.929 -3.1848,-15.111 -4.6533,-30.729 -11.34,-44.824 -4.8875,-12.767 -8.9316,-25.982 -12.831,-38.978 -4.9155,-0.60732 -11.017,-0.70207 -16.001,0.0638 z" />
      <path
         id="path4324"
         style="color:#000000;fill:#497800"
         d="m 466.48,655.79 c -1.0445,7.8423 3.2817,15.35 5.1516,22.834 -0.0342,5.1795 5.1196,6.7984 4.143,0.52659 0.44576,-7.7899 1.2263,-15.829 0.34826,-23.495 -2.9657,-0.45073 -6.7483,-0.67152 -9.6429,0.13393 z" />
      <path
         id="path4326"
         style="color:#000000;fill:#497800"
         d="m 540.25,633.98 c -12.534,5.5833 -24.906,11.322 -38.441,13.98 -7.4336,2.3048 -15.773,3.1208 -22.296,7.5607 -2.0812,5.9618 -0.80467,12.73 -1.0753,18.995 0.25989,20.589 6.5494,40.42 9.8212,60.619 1.8358,6.4812 1.9482,15.416 8.9104,18.712 5.8498,1.7246 12.619,1.1118 18.438,-0.66964 9.043,-5.7869 12.384,-16.95 15.814,-26.597 8.6786,-28.419 9.9676,-58.434 10.838,-87.956 -0.22101,-1.4696 0.5153,-4.983 -2.0089,-4.6428 z" />
      <path
         id="path4328"
         style="color:#000000;fill:#497800"
         d="m 493.64,463.25 c -3.6193,2.4901 -6.3708,6.7166 -7.7902,10.871 -1.7206,18.55 -3.0105,37.241 -2.9911,55.871 1.8331,3.9157 7.1247,0.53508 10.206,0.72905 19.468,-2.7019 38.434,-9.0725 55.619,-18.497 1.6492,-2.315 -1.4849,-2.5214 -2.7902,-2.9688 -1.8479,-14.269 -1.992,-29.209 -6.6518,-42.924 -0.96431,-2.6713 -4.9344,-4.1192 -6.4955,-1.1384 -3.0938,5.0525 -8.483,8.6294 -14.554,8.125 -7.1036,0.78636 -13.841,-2.1682 -18.992,-6.9164 -1.7832,-0.98711 -3.4131,-3.1164 -5.5612,-3.1506 z" />
      <path
         id="path4330"
         style="color:#000000;fill:#497800"
         d="m 456.63,474.72 c -3.426,5.0409 -9.047,7.7108 -13.967,10.808 0.43256,14.907 3.2633,29.988 5.2174,44.884 -0.48409,6.0204 6.0218,3.5808 9.7493,3.801 7.4691,-0.54838 15.168,0.0886 22.46,-1.8144 2.1294,-3.4138 0.44557,-8.526 1.0938,-12.589 0.0711,-14.664 1.201,-29.463 1.0242,-44.032 -2.7275,-1.2311 -6.4087,0.9387 -9.5928,0.61302 -5.3292,0.94616 -10.651,-0.18377 -15.646,-1.7067 l -0.33883,0.036 z" />
      <path
         id="path4332"
         style="color:#000000;fill:#497800"
         d="m 435.92,485.84 c -1.6431,-0.11845 -3.843,0.90131 -3.125,2.8795 1.8148,8.739 3.9181,17.463 6.7522,25.926 0.88163,1.6878 3.1161,0.14947 2.4219,-1.4174 -0.95312,-8.3687 -1.9636,-16.795 -2.8237,-25.134 -0.11169,-1.8118 -1.5026,-2.5093 -3.2254,-2.2545 z" />
      <path
         id="path4334"
         style="color:#000000;fill:#497800"
         d="m 431.27,501.92 c -1.7527,1.5353 -0.99614,4.3273 -1.2388,6.4062 0.0575,4.1891 0.25429,8.4743 1.8638,12.377 0.82252,3.767 -1.9724,7.1553 -1.4844,10.882 1.2594,2.7154 4.9068,2.1962 7.3764,2.5915 1.7224,-0.19715 4.7196,1.0415 5.358,-1.2634 -3.124,-9.0421 -6.3843,-18.057 -9.0151,-27.282 -0.64432,-1.2704 -0.68542,-4.3893 -2.8599,-3.7112 z" />
      <path
         id="path4336"
         style="color:#000000;fill:#669321"
         d="m 507.41,430.25 c -6.4153,0.9557 -10.467,7.5993 -13.037,12.943 -1.9738,6.9226 -6.0033,13.935 -5.9346,21.118 2.4094,2.3279 4.7318,-4.6208 7.5446,-1.0102 7.4407,6.1605 17.296,13.091 27.306,8.4285 5.6226,-2.2286 9.512,-7.431 13.89,-11.143 -0.37221,-7.4337 -6.4859,-13.613 -10.733,-19.288 -5.0751,-5.3818 -10.805,-12.061 -19.035,-11.049 z" />
      <path
         id="path4338"
         style="color:#000000;fill:#669321"
         d="m 464.32,427.22 c -8.114,1.1315 -11.478,10.374 -14.773,16.762 -4.7712,11.969 -7.2052,25.277 -6.4397,38.165 2.8112,2.9601 6.7012,-2.2017 9.0914,-3.7881 2.777,-2.9774 4.859,-6.6528 8.9651,-3.283 6.5538,1.4594 15.354,2.0597 20.582,-3.0305 3.4872,-5.7331 4.0659,-12.79 5.4611,-19.224 -3.9873,-10.749 -9.5372,-24.731 -22.886,-25.601 z" />
      <path
         id="path4340"
         style="color:#000000;fill:#669321"
         d="m 410.31,446.22 c -13.391,1.3271 -21.32,13.657 -27.053,24.433 -1.9504,5.1631 -6.7115,10.619 -5.4927,16.32 7.4578,3.5964 16.663,0.0354 21.971,-5.9031 2.5471,-3.212 6.1859,-3.412 9.5762,-1.3536 5.8625,2.0291 11.833,5.4562 18.108,5.3942 1.0581,-12.066 0.22423,-26.891 -9.4702,-35.671 -2.2288,-1.5614 -4.772,-3.4297 -7.6393,-3.2199 z" />
      <path
         id="path4342"
         style="color:#000000;fill:#669321"
         d="m 381.81,436.31 c -9.4848,0.50516 -15.894,9.8686 -15.752,18.909 -0.58097,9.5323 -2.0226,20.165 2.3044,28.979 2.038,3.0372 5.4478,2.0348 5.9846,-1.4758 6.3615,-12.655 11.949,-26.137 23.026,-35.426 2.7628,-1.5586 2.7022,-4.9498 -0.41037,-5.8715 -4.7258,-2.2919 -9.8322,-4.8841 -15.152,-5.1139 z" />
      <path
         id="path4344"
         style="color:#000000;fill:#669321"
         d="m 313.21,429.75 c -8.6166,1.8844 -16.022,9.2229 -19.035,17.33 0.48138,4.5746 6.8616,2.0113 9.4386,4.7666 11.374,4.6152 10.725,18.532 13.353,28.474 3.4409,5.603 11.113,6.4818 16.825,8.7441 3.4577,0.45681 9.1179,2.9315 11.396,-0.15784 -2.0348,-20.637 -6.2841,-44.453 -24.907,-56.758 -2.0628,-1.4333 -4.5167,-2.5547 -7.0711,-2.3991 z" />
      <path
         id="path4346"
         style="color:#000000;fill:#669321"
         d="m 295.72,453.61 c -10.046,2.6773 -14.639,13.618 -20.208,21.422 -2.106,4.618 -6.8696,9.4961 -5.8031,14.817 8.1744,6.118 19.568,5.5333 27.842,-0.12627 4.7412,-3.4977 11.835,-5.2895 14.647,-10.733 -1.0929,-8.6241 -1.6254,-20.578 -11.175,-24.338 -1.6855,-0.7571 -3.5441,-1.224 -5.3033,-1.0417 z" />
      <path
         id="path4348"
         style="color:#000000;fill:#669321"
         d="m 249.26,447.45 c -10.073,-0.179 -16.516,9.3236 -17.836,18.403 -1.7599,7.8482 -3.9862,16.246 -2.525,24.181 9.223,1.3885 19.278,-1.3343 26.611,-6.6607 3.6437,0.6456 8.746,5.0583 11.017,-0.1894 2.6991,-4.978 6.1515,-10.182 7.4183,-15.626 -5.6796,-8.9401 -12.077,-21.433 -24.686,-20.108 z" />
      <path
         id="path4350"
         style="color:#000000;fill:#669321"
         d="m 351.44,450.86 c -3.6234,0.9129 -6.247,4.3793 -7.9076,7.5604 -0.45451,4.6243 1.7223,9.1343 2.0798,13.765 1.2209,5.6147 1.2992,11.59 3.0025,17.029 2.5948,1.4505 5.3624,-1.3933 7.5675,-2.5571 2.2796,-1.9756 5.777,-3.7102 6.4413,-6.738 -0.75108,-8.1826 -1.2069,-16.486 -0.87704,-24.64 -2.4659,-2.5955 -6.6133,-4.4076 -10.306,-4.4187 z" />
      <path
         id="path4358"
         style="color:#000000;fill:#669321"
         d="m 489.1,422.11 c -3.5528,1.2096 -5.6137,4.9386 -7.7971,7.7813 -1.5624,3.4073 1.7154,6.7288 2.8553,9.7751 1.5597,1.9368 1.862,5.7375 4.4476,6.3173 2.4238,-1.5974 2.9922,-5.2319 4.6137,-7.6008 0.99342,-2.985 3.7524,-5.7491 3.4724,-8.9967 -1.3473,-3.0834 -3.8641,-7.1464 -7.5919,-7.2763 z" />
      <path
         id="path4360"
         style="color:#000000;fill:#cbd851"
         d="m 548.43,628.81 c -5.9046,5.1999 -2.462,15.276 -3.9863,22.184 -1.4044,32.638 -1.8147,67.245 -17.71,96.61 -6.0649,12.043 -22.82,13.369 -34.062,7.9464 -4.6697,-6.1718 -9.013,2.0849 -12.366,5.0446 -6.459,4.7151 -16.882,9.6177 -23.973,3.8839 -4.5104,-3.6383 -4.9772,-12.845 -10.089,-14.062 -7.4619,9.4352 -20.324,21.658 -33.214,14.33 -9.9129,-4.5365 -15.729,-13.619 -22.768,-21.205 -11.867,10.681 -22.05,27.22 -38.973,30.089 -8.4866,0.008 -12.281,-8.5089 -18.125,-12.723 -7.5776,2.687 -15.396,-1.6708 -21.83,-5.1786 -2.4189,9.4852 -4.6693,23.514 -16.964,25.134 -12.379,3.0152 -21.515,-7.799 -26.518,-17.455 -1.7277,-5.4625 -3.4299,-15.603 -8.9274,-6.0307 -5.2818,6.4525 -11.508,13.708 -21.028,11.433 -1.2003,4.8072 10.591,6.7305 15.312,9.5153 12.512,4.9668 25.863,7.5606 38.839,11.154 -17.274,0.44825 -33.366,-5.9327 -49.598,-10.357 -4.893,1.6042 0.0247,9.2925 3.6607,10.223 22.488,8.5224 46.982,10.652 70.57,15.193 24.406,4.0852 48.992,7.6806 73.804,5.7399 43.082,-0.10463 86.508,-6.4759 126.49,-22.791 9.0401,-4.1717 19.946,-9.1339 24.133,-18.723 -2.8905,-4.4526 -9.0516,2.0906 -12.5,3.2143 -17.974,9.8896 -37.349,18.029 -57.857,20.134 25.761,-8.3338 53.281,-17.138 74.107,-35.179 7.0044,-6.643 11.319,-15.734 9.2231,-25.534 -1.1113,-33.534 -0.0316,-67.249 -2.7499,-100.67 -0.29068,-1.3004 -1.4759,-2.531 -2.9018,-1.9196 z M 330.79,795.9 c 19.059,0.37123 38.076,2.0202 57.054,3.75 -19.027,-0.38629 -39.091,1.6153 -57.366,-3.75 l 0.3125,0 z" />
      <path
         id="path4364"
         style="color:#000000;fill:#cbd851"
         d="m 218.1,638.84 c -2.3256,0.94737 -1.0305,4.0784 -1.2054,5.9822 1.4983,19.572 2.4334,39.194 4.0625,58.75 0.006,1.5189 2.3343,2.3286 2.7344,0.45759 2.0551,-17.692 3.291,-35.523 7.2322,-52.924 0.24376,-2.7891 1.6934,-5.711 0.85937,-8.4821 -1.7658,-1.9375 -4.8227,-1.8483 -7.1875,-2.6674 -2.1435,-0.41301 -4.299,-1.1389 -6.4955,-1.1161 z" />
      <path
         id="path4366"
         style="color:#000000;fill:#cbd851"
         d="m 223.73,461.74 c -2.1322,-0.18204 -4.8813,-0.0201 -4.6164,2.8419 -0.3488,3.7457 -2.9189,6.6133 -5.5398,9.0666 -0.86222,3.9467 -0.37299,8.1874 -0.70811,12.249 -0.32318,14.129 -0.76384,28.28 -0.31867,42.405 0.97499,2.2025 3.9988,2.2565 5.9598,3.1138 3.6609,0.88609 7.5232,2.1429 11.283,1.4062 1.8242,-1.1682 0.15111,-3.643 0.2683,-5.3305 -1.9725,-11.823 -3.5139,-23.717 -5.0562,-35.596 -0.97421,-2.4366 -4.0597,-2.5453 -5.9933,-3.9286 1.721,0.73575 4.8992,2.3351 5.8482,-0.26786 0.93489,-5.7544 0.54219,-11.671 1.6519,-17.417 0.17721,-2.704 1.4969,-5.3137 1.4173,-8.0066 -1.0485,-1.2034 -2.8177,-0.36242 -4.1964,-0.53571 z" />
      <path
         id="path4372"
         style="color:#000000;fill:#cbd851"
         d="m 432.77,454.62 c -2.4054,0.44132 -5.2214,2.9096 -3.9201,5.5448 1.7727,7.8859 1.2313,16.088 2.4804,24.031 1.4641,1.7539 4.2078,0.65678 6.1607,0.85937 2.1554,-0.86822 1.0458,-3.9191 1.62,-5.7617 0.55038,-7.3708 1.6519,-14.789 1.5977,-22.153 -1.0034,-1.7707 -3.7287,-1.075 -5.461,-1.9067 -0.82343,-0.2405 -1.5753,-0.74258 -2.4777,-0.61384 z" />
      <path
         id="path4374"
         style="color:#000000;fill:#cbd851"
         d="m 544.63,445.61 c -1.9061,0.69099 -3.6783,1.7171 -5.5915,2.4107 -1.9856,1.5467 0.51733,4.0408 0.7723,5.8793 1.485,3.2811 2.0988,7.0964 4.384,9.9354 2.1557,1.0783 3.8472,-1.6026 5.3572,-2.7567 1.5345,-1.8598 4.1433,-3.5373 4.2634,-6.1384 -1.4182,-2.3722 -4.2174,-3.5759 -5.5804,-6.0491 -0.99428,-1.149 -1.8161,-3.3319 -3.6049,-3.2812 z" />
      <path
         id="path4376"
         style="color:#000000;fill:#cbe076"
         d="m 552.85,459.73 c -2.1734,0.34119 -3.6013,2.6286 -5.3571,3.8393 -1.323,1.3677 -3.9294,2.3241 -3.192,4.6987 2.1863,12.732 5.7129,25.664 3.9732,38.672 -0.29954,1.6327 -1.6326,4.1223 0.55803,4.9777 2.4712,0.12891 4.7122,-2.2605 4.5201,-4.7545 0.71586,-15.315 1.0526,-30.663 0.83705,-45.993 0.0584,-0.73532 -0.74453,-1.66 -1.3393,-1.4397 z" />
      <path
         id="path4378"
         style="color:#000000;fill:#d4e58e"
         d="m 507.26,382.45 c -6.0493,3.0394 -11.314,7.7193 -17.879,9.8772 -11.864,4.4346 -24.116,7.824 -36.365,11.012 -23.788,5.2947 -47.911,9.1412 -72.128,12.035 -17.511,1.6647 -35.192,1.3023 -52.779,1.0673 -18.392,-0.76615 -36.808,-2.6898 -54.682,-7.1258 -7.404,-1.5798 -14.661,-3.9368 -22.126,-5.158 -2.1579,-0.40788 -3.5866,1.8097 -3.1528,3.7834 0.38771,4.1365 -1.0883,8.6151 -4.9275,10.614 -6.2776,3.8334 -13.692,6.7673 -17.856,13.268 -7.1073,9.5218 -9.6621,21.512 -11.027,33.092 0.1226,1.8381 -0.88041,4.3264 0.67966,5.7046 2.1443,0.54595 2.6527,-2.4145 3.0915,-3.8951 0.63229,-2.4275 0.58674,-4.9772 1.5067,-7.3214 2.9311,2.6393 8.2634,2.2239 10.112,-1.5067 2.6316,-5.5125 6.7887,-10.555 12.6,-12.757 5.8721,-2.3191 12.887,-1.7435 18.359,1.3951 5.9194,4.0894 10.267,10.041 12.6,16.838 0.35507,1.3002 1.4187,3.7459 3.0025,2.392 3.3039,-3.9439 6.669,-7.9262 9.9794,-11.83 0.59931,-2.3253 -2.7963,-1.8748 -4.2416,-2.3869 -3.0145,-0.29249 -5.8235,-1.7945 -8.7847,-2.044 -0.90728,0.62346 -2.574,2.36 -1.317,0.33482 0.25911,-0.85079 0.85099,-1.5288 1.7522,-0.95982 4.8532,1.6113 10.665,3.8249 15.491,1.0156 3.0694,-2.7987 4.1728,-7.1007 6.7969,-10.279 4.1041,-5.6768 9.7933,-11.017 16.953,-12.21 5.5404,-0.31414 9.9792,3.905 14.135,7.0377 6.2589,5.0114 10.117,12.113 13.722,19.112 1.1881,2.0914 3.2446,-0.16669 4.3456,-1.1244 2.1609,-1.8907 4.5863,-4.2252 7.7303,-3.5408 3.0841,-0.0333 5.8222,1.7723 8.8058,1.9531 2.015,-1.5416 2.0377,-4.5548 3.4933,-6.5766 3.0476,-5.6259 8.5606,-11.091 15.401,-10.854 3.7833,-0.31676 7.6352,9.6e-4 10.938,1.9958 4.5368,2.0051 8.624,4.9852 12.924,7.4219 4.3665,0.43371 9.122,-0.32914 12.913,2.3438 4.589,2.3345 6.9594,7.2717 10.96,10.257 1.922,0.71717 2.9336,-2.1461 4.2351,-2.3592 2.4805,1.3384 6.3144,3.5302 8.622,0.70743 3.2261,-5.6606 5.1643,-11.982 8.5156,-17.612 2.6021,-4.2581 4.9768,-9.4258 9.7322,-11.708 5.9456,-2.0531 12.163,0.98306 17.091,4.2708 1.2225,1.0329 3.3372,1.7142 3.9585,-0.39798 2.098,-3.1979 4.146,-7.1488 7.9018,-8.5714 3.5586,-0.796 6.314,2.4416 8.4224,4.8243 1.127,1.7934 2.8441,4.2913 5.3276,3.2337 3.9672,-1.7769 8.6166,-1.771 12.779,-0.74777 7.6261,3.2975 12.96,10.004 18.605,15.859 1.8465,1.5678 3.4714,4.8084 6.2946,4.2411 2.2572,-0.38379 3.6588,-2.3607 5.0112,-3.9062 2.8298,2.5927 3.7668,6.8759 7.0312,8.9955 2.2828,0.52793 2.2064,-2.509 1.9866,-3.9621 -0.98386,-8.2373 -2.2465,-16.621 -5.4353,-24.33 -2.9779,-6.252 -6.1902,-12.752 -11.429,-17.433 -6.8727,-5.013 -16.197,-5.4411 -22.779,-10.893 -3.3556,-3.0717 -4.2022,-7.6327 -4.7545,-11.886 -0.25069,-0.89648 -1.1864,-1.6811 -2.1429,-1.3058 z" />
      <path
         id="path4380"
         style="color:#000000;fill:#c2862d"
         d="m 367.24,509.59 c -10.258,0.59447 -21.37,2.6089 -29.353,9.4643 -4.1058,4.178 -3.9475,11.635 -9.2188,14.688 -5.8635,-0.65671 -11.299,-4.547 -17.277,-4.3304 -4.8969,1.9596 -1.4895,8.2059 -3.5491,11.562 -11.371,2.767 -23.555,1.755 -35.268,1.6964 -19.555,-0.48499 -38.396,-6.2172 -57.522,-9.6428 -3.7277,0.78415 -1.8918,6.0156 -2.4107,8.6607 0.29208,3.6714 -1.6567,9.4218 3.8393,9.7098 16.845,5.1086 34.558,7.3297 52.097,8.7601 4.1404,0.68536 9.1393,-0.5276 12.791,1.6194 2.6477,12.528 1.5855,25.675 1.8304,38.46 -0.47125,8.2378 0.48413,16.91 -1.1161,24.911 -5.1937,1.5425 -11.139,0.15614 -16.561,0.31367 -16.693,-1.0748 -32.65,-6.6291 -49.042,-9.4878 -2.8181,1.4972 -0.47102,5.8721 -0.95225,8.4998 0.8042,3.306 -0.50057,8.3876 2.7156,10.518 5.0443,1.1329 10.381,3.866 15.58,2.7232 1.3539,-1.0294 2.3444,2.0944 4.1518,1.8973 18.955,4.4477 38.308,8.1789 57.834,8.7429 4.9989,0.5683 11.571,-1.2084 15.38,2.7749 1.8539,3.2956 -2.5385,6.082 -3.683,8.8616 -0.98427,2.3229 -5.5453,6.2137 -1.9866,8.2143 6.9027,1.2088 12.637,-4.2963 19.018,-5.4688 11.223,4.743 21.485,11.823 33.616,14.375 10.825,2.1968 22.973,2.0262 32.299,-4.6429 6.9803,-3.9804 12.971,-9.7829 19.688,-13.906 5.4855,3.2656 10.173,10.063 17.21,9.3973 4.4016,-1.6714 1.6986,-7.0321 1.7188,-10.357 2.8714,-4.6219 9.5452,-3.7655 14.262,-4.4041 16.173,-0.8971 32.576,-1.3047 48.147,-6.1567 16.32,-4.2424 32.937,-8.3961 47.524,-17.118 5.0013,-2.9707 10.721,-5.5491 14.196,-10.312 -0.35828,-4.4934 0.91553,-9.4254 -0.64732,-13.705 -3.7868,-0.96119 -7.3695,2.5284 -10.905,3.4227 -22.157,8.7361 -45.762,13.949 -69.377,17.094 -9.1272,0.9091 -18.303,1.9124 -27.487,1.6479 -0.0245,-22.458 1.1107,-44.937 2.567,-67.344 -0.60999,-3.5941 3.4674,-2.6927 5.692,-2.9464 28.151,-0.19472 56.852,-2.5434 83.413,-12.375 6.016,-2.5763 12.997,-4.6143 17.257,-9.7678 -0.29253,-6.9102 0.58767,-14.08 -0.44643,-20.826 -4.1005,0.14198 -7.8025,3.6426 -11.864,4.8078 -14.799,6.5126 -30.144,11.625 -46.206,13.839 -20.742,3.7771 -42.199,5.1637 -63.158,2.6697 -3.1242,-0.48526 -5.7502,-3.2519 -4.4196,-6.4955 -0.15967,-2.969 2.9848,-8.2635 -1.183,-9.6205 -8.7629,-1.6984 -14.037,8.6549 -22.757,8.0092 -3.4362,-0.75278 -5.2961,-5.5013 -8.1139,-7.8529 -5.4463,-6.1331 -13.704,-9.1154 -21.585,-10.424 -2.2359,-0.24205 -4.4958,-0.23342 -6.7411,-0.15625 z m 44.375,26.339 c 3.172,0.48282 6.2208,3.2795 7.3214,6.1607 -0.14031,6.2611 -8.1467,12.482 -13.772,8.2143 -4.7662,-3.6386 -2.7086,-11.221 2.5446,-13.237 1.2117,-0.60671 2.536,-1.1142 3.9062,-1.1384 z m -36.362,1.1384 c 7.5107,0.0644 11.165,8.0436 15.128,13.161 7.7154,12.473 13.35,26.894 12.126,41.816 -0.34662,17.636 -2.6386,36.348 -12.188,51.384 -6.1961,9.9222 -16.516,17.193 -28.259,18.482 -9.5108,1.8026 -17.801,-6.1496 -22.188,-13.638 -6.6273,-12.139 -9.7644,-25.972 -11.004,-39.643 -0.9944,-17.358 1.5042,-35.316 10.424,-50.424 4.6443,-8.9455 12.341,-17.506 22.5,-19.754 4.5564,-0.0236 8.9531,-1.1947 13.46,-1.3839 z m -54.978,4.9554 c 4.4588,-0.69048 9.4321,2.3792 8.9732,7.2545 -0.0862,5.5497 -7.4715,8.6765 -11.763,5.4688 -4.78,-2.6869 -3.7487,-10.935 1.25,-12.567 0.51869,-0.0696 0.98317,-0.14569 1.5402,-0.15625 z m 97.634,98.103 c 4.1586,0.52465 8.167,4.2996 6.6295,8.7723 -0.282,3.5846 -4.0006,5.2544 -7.0982,3.7277 -5.3935,-1.9095 -5.653,-10.29 -0.33482,-12.344 0.26358,-0.0928 0.52332,-0.14468 0.80357,-0.15625 z m -93.638,1.8304 c 4.0166,-0.61082 8.4589,3.0569 7.1205,7.3214 -0.48063,5.5711 -9.1829,8.3839 -12.321,3.3705 -2.6679,-3.8753 -0.40078,-11.428 5.2009,-10.692 z" />
      <path
         id="path4382"
         style="color:#000000;fill:#8e6221"
         d="m 368.04,539.96 c -8.053,-0.0239 -15.691,3.5362 -20.08,10.414 -19.266,25.599 -19.806,61.398 -7.6049,90.191 3.2599,9.6212 12.346,20.304 23.549,17.488 14.983,-2.7224 25.136,-15.789 29.358,-29.673 6.5729,-21.63 9.1489,-46.628 -1.5784,-67.428 -3.9726,-8.2237 -8.9003,-16.389 -16.289,-21.718 -2.4517,0.24202 -4.9034,0.48403 -7.3552,0.72605 z" />
      <path
         id="path4384"
         style="color:#000000;fill:#8e6221"
         d="m 321.4,543.29 c -4.9122,0.36386 -7.0444,8.213 -2.1308,10.18 3.8693,2.1076 9.9712,-1.6084 8.0812,-6.1714 -1.003,-2.268 -3.332,-4.2892 -5.9504,-4.009 z" />
      <path
         id="path4386"
         style="color:#000000;fill:#8e6221"
         d="m 324.95,643.43 c -4.3085,-0.24941 -7.4369,6.7732 -2.9673,8.823 2.6537,1.75 6.8296,0.85155 7.371,-2.6201 1.0214,-3.0586 -0.99224,-6.5063 -4.4036,-6.203 z" />
      <path
         id="path4388"
         style="color:#000000;fill:#8e6221"
         d="m 409.9,538.14 c -2.838,1.0908 -5.9105,4.2414 -5.1297,7.5288 0.94585,2.937 4.6652,5.0217 7.3394,2.7779 2.4176,-1.3665 5.8736,-4.8325 3.1094,-7.513 -1.377,-1.4524 -3.2583,-2.7788 -5.3191,-2.7937 z" />
      <path
         id="path4390"
         style="color:#000000;fill:#8e6221"
         d="m 417.96,642.45 c -3.6734,0.87742 -3.4981,6.5198 -0.12627,7.8287 2.9656,2.2219 6.1369,-2.4983 4.1511,-5.0823 -0.70402,-1.5394 -2.2126,-2.9717 -4.0248,-2.7464 z" />
      <path
         id="path4392"
         style="color:#000000;fill:#deb271"
         d="m 551.53,540.84 c -0.19833,-0.003 -0.38374,0.0201 -0.5625,0.0937 -27.684,14.78 -59.85,18.467 -90.844,19 -5.18,0.23267 -14.489,-2.3197 -11.75,6.3125 0.33562,19.478 -0.67704,39.288 0.5,58.562 25.635,1.4483 51.018,-5.6436 75.625,-12.219 9.8671,-3.3359 20.793,-5.9067 28.906,-12.5 -0.12509,-19.379 1.4714,-38.865 -0.65625,-58.156 -0.0372,-0.7223 -0.62376,-1.0857 -1.2188,-1.0938 z m -336.59,13.35 c -3.7942,2.641 -1.1923,8.9661 -1.9375,12.938 0.88837,14.047 -0.76087,28.532 2.375,42.281 4.5885,5.4489 13.096,4.7316 19.344,7.0625 14.706,3.6404 30.108,6.858 45.188,5.125 0.6628,-19.02 0.0919,-38.241 0.28125,-57.344 -3.8803,-2.9401 -10.597,-0.44264 -15.594,-1.3438 -16.829,-0.28994 -33.435,-4.9526 -49.656,-8.7188 z" />
      <path
         id="path4397"
         style="color:#000000;fill:#d6d1cb"
         d="m 512.7,358.03 c -30.951,11.864 -64.429,15.425 -96.975,21.466 -31.224,3.6742 -62.722,5.0485 -94.165,6.345 -26.267,0.97806 -52.684,-2.361 -78.255,-7.4499 -3.4194,2.9451 -0.83853,8.7638 -1.0417,12.785 0.1781,8.1931 10.102,8.885 16.036,11.049 65.38,17.289 134.44,11.104 199.44,-4.4826 20.223,-5.1266 42,-11.404 56.411,-27.306 1.2026,-3.8141 1.2305,-8.4028 0,-12.153 -0.48638,0.29587 -0.96571,-0.54892 -1.4521,-0.25253 z" />
      <path
         id="path4399"
         style="color:#000000;fill:#f0eeeb"
         d="m 404.27,325.07 c -44.995,1.2723 -90.925,6.1063 -132.82,23.347 -10.031,4.805 -21.381,8.9897 -28.745,17.595 -2.0175,6.0502 6.3368,9.075 10.891,10.038 26.776,6.05 54.462,7.6217 81.853,5.5377 41.659,-1.6289 83.302,-5.0389 124.19,-13.65 16.953,-3.7964 34.907,-5.5902 50.508,-13.605 5.374,-2.3829 4.4269,-9.3631 -0.0631,-12.09 -14.083,-8.9493 -31.159,-12.023 -47.438,-14.739 -19.299,-2.2016 -38.869,-2.6233 -58.375,-2.4338 z" />
    </g>
  </g>
  <metadata
     id="metadata332">
    <rdf:RDF>
      <cc:Work>
        <dc:format>image/svg+xml</dc:format>
        <dc:type
           rdf:resource="http://purl.org/dc/dcmitype/StillImage" />
        <cc:license
           rdf:resource="http://creativecommons.org/publicdomain/zero/1.0/" />
        <dc:publisher>
          <cc:Agent
             rdf:about="http://openclipart.org/">
            <dc:title>Openclipart</dc:title>
          </cc:Agent>
        </dc:publisher>
        <dc:title></dc:title>
      </cc:Work>
      <cc:License
         rdf:about="http://creativecommons.org/publicdomain/zero/1.0/">
        <cc:permits
           rdf:resource="http://creativecommons.org/ns#Reproduction" />
        <cc:permits
           rdf:resource="http://creativecommons.org/ns#Distribution" />
        <cc:permits
           rdf:resource="http://creativecommons.org/ns#DerivativeWorks" />
      </cc:License>
    </rdf:RDF>
  </metadata>
</svg>
