<?xml version="1.0" encoding="UTF-8" standalone="no"?>
<!-- Created with Inkscape (http://www.inkscape.org/) -->

<svg
   xmlns:dc="http://purl.org/dc/elements/1.1/"
   xmlns:cc="http://creativecommons.org/ns#"
   xmlns:rdf="http://www.w3.org/1999/02/22-rdf-syntax-ns#"
   xmlns:svg="http://www.w3.org/2000/svg"
   xmlns="http://www.w3.org/2000/svg"
   xmlns:xlink="http://www.w3.org/1999/xlink"
   xmlns:sodipodi="http://sodipodi.sourceforge.net/DTD/sodipodi-0.dtd"
   xmlns:inkscape="http://www.inkscape.org/namespaces/inkscape"
   width="256"
   height="256"
   viewBox="0 0 240 239.99998"
   id="svg2"
   version="1.1"
   inkscape:version="0.92.4 (5da689c313, 2019-01-14)"
   sodipodi:docname="plum.svg">
  <title
     id="title4136">Plum</title>
  <defs
     id="defs4">
    <linearGradient
       inkscape:collect="always"
       id="linearGradient6099">
      <stop
         style="stop-color:#8478bf;stop-opacity:1"
         offset="0"
         id="stop6101" />
      <stop
         id="stop6107"
         offset="0.14594515"
         style="stop-color:#4e3ba7;stop-opacity:1" />
      <stop
         style="stop-color:#1f00a4;stop-opacity:1;"
         offset="0.50851828"
         id="stop6109" />
      <stop
         id="stop6111"
         offset="0.68420041"
         style="stop-color:#1f00a4;stop-opacity:1;" />
      <stop
         style="stop-color:#1f00a4;stop-opacity:1"
         offset="1"
         id="stop6103" />
    </linearGradient>
    <pattern
       inkscape:collect="always"
       xlink:href="#Polkadots-large"
       id="pattern5863"
       patternTransform="matrix(1.331633,0,0,1.4097264,0.20161688,-0.90432382)" />
    <pattern
       inkscape:stockid="Polka dots, large"
       id="Polkadots-large"
       patternTransform="translate(0,0) scale(10,10)"
       height="10"
       width="10"
       patternUnits="userSpaceOnUse"
       inkscape:collect="always">
      <circle
         id="circle5445"
         r="0.45"
         cy="0.810"
         cx="2.567"
         style="fill:black;stroke:none" />
      <circle
         id="circle5447"
         r="0.45"
         cy="2.33"
         cx="3.048"
         style="fill:black;stroke:none" />
      <circle
         id="circle5449"
         r="0.45"
         cy="2.415"
         cx="4.418"
         style="fill:black;stroke:none" />
      <circle
         id="circle5451"
         r="0.45"
         cy="3.029"
         cx="1.844"
         style="fill:black;stroke:none" />
      <circle
         id="circle5453"
         r="0.45"
         cy="1.363"
         cx="6.08"
         style="fill:black;stroke:none" />
      <circle
         id="circle5455"
         r="0.45"
         cy="4.413"
         cx="5.819"
         style="fill:black;stroke:none" />
      <circle
         id="circle5457"
         r="0.45"
         cy="4.048"
         cx="4.305"
         style="fill:black;stroke:none" />
      <circle
         id="circle5459"
         r="0.45"
         cy="3.045"
         cx="5.541"
         style="fill:black;stroke:none" />
      <circle
         id="circle5461"
         r="0.45"
         cy="5.527"
         cx="4.785"
         style="fill:black;stroke:none" />
      <circle
         id="circle5463"
         r="0.45"
         cy="5.184"
         cx="2.667"
         style="fill:black;stroke:none" />
      <circle
         id="circle5465"
         r="0.45"
         cy="1.448"
         cx="7.965"
         style="fill:black;stroke:none" />
      <circle
         id="circle5467"
         r="0.45"
         cy="5.049"
         cx="7.047"
         style="fill:black;stroke:none" />
      <circle
         id="circle5469"
         r="0.45"
         cy="0.895"
         cx="4.340"
         style="fill:black;stroke:none" />
      <circle
         id="circle5471"
         r="0.45"
         cy="0.340"
         cx="7.125"
         style="fill:black;stroke:none" />
      <circle
         id="circle5473"
         r="0.45"
         cy="1.049"
         cx="9.553"
         style="fill:black;stroke:none" />
      <circle
         id="circle5475"
         r="0.45"
         cy="2.689"
         cx="7.006"
         style="fill:black;stroke:none" />
      <circle
         id="circle5477"
         r="0.45"
         cy="2.689"
         cx="8.909"
         style="fill:black;stroke:none" />
      <circle
         id="circle5479"
         r="0.45"
         cy="4.407"
         cx="9.315"
         style="fill:black;stroke:none" />
      <circle
         id="circle5481"
         r="0.45"
         cy="3.870"
         cx="7.820"
         style="fill:black;stroke:none" />
      <circle
         id="circle5483"
         r="0.45"
         cy="5.948"
         cx="8.270"
         style="fill:black;stroke:none" />
      <circle
         id="circle5485"
         r="0.45"
         cy="7.428"
         cx="7.973"
         style="fill:black;stroke:none" />
      <circle
         id="circle5487"
         r="0.45"
         cy="8.072"
         cx="9.342"
         style="fill:black;stroke:none" />
      <circle
         id="circle5489"
         r="0.45"
         cy="9.315"
         cx="8.206"
         style="fill:black;stroke:none" />
      <circle
         id="circle5491"
         r="0.45"
         cy="9.475"
         cx="9.682"
         style="fill:black;stroke:none" />
      <circle
         id="circle5493"
         r="0.45"
         cy="6.186"
         cx="9.688"
         style="fill:black;stroke:none" />
      <circle
         id="circle5495"
         r="0.45"
         cy="6.296"
         cx="3.379"
         style="fill:black;stroke:none" />
      <circle
         id="circle5497"
         r="0.45"
         cy="8.204"
         cx="2.871"
         style="fill:black;stroke:none" />
      <circle
         id="circle5499"
         r="0.45"
         cy="8.719"
         cx="4.59"
         style="fill:black;stroke:none" />
      <circle
         id="circle5501"
         r="0.45"
         cy="9.671"
         cx="3.181"
         style="fill:black;stroke:none" />
      <circle
         id="circle5503"
         r="0.45"
         cy="7.315"
         cx="5.734"
         style="fill:black;stroke:none" />
      <circle
         id="circle5505"
         r="0.45"
         cy="6.513"
         cx="6.707"
         style="fill:black;stroke:none" />
      <circle
         id="circle5507"
         r="0.45"
         cy="9.670"
         cx="5.730"
         style="fill:black;stroke:none" />
      <circle
         id="circle5509"
         r="0.45"
         cy="8.373"
         cx="6.535"
         style="fill:black;stroke:none" />
      <circle
         id="circle5511"
         r="0.45"
         cy="7.154"
         cx="4.37"
         style="fill:black;stroke:none" />
      <circle
         id="circle5513"
         r="0.45"
         cy="7.25"
         cx="0.622"
         style="fill:black;stroke:none" />
      <circle
         id="circle5515"
         r="0.45"
         cy="5.679"
         cx="0.831"
         style="fill:black;stroke:none" />
      <circle
         id="circle5517"
         r="0.45"
         cy="8.519"
         cx="1.257"
         style="fill:black;stroke:none" />
      <circle
         id="circle5519"
         r="0.45"
         cy="6.877"
         cx="1.989"
         style="fill:black;stroke:none" />
      <circle
         id="circle5521"
         r="0.45"
         cy="3.181"
         cx="0.374"
         style="fill:black;stroke:none" />
      <circle
         id="circle5523"
         r="0.45"
         cy="1.664"
         cx="1.166"
         style="fill:black;stroke:none" />
      <circle
         id="circle5525"
         r="0.45"
         cy="0.093"
         cx="1.151"
         style="fill:black;stroke:none" />
      <circle
         id="circle5527"
         r="0.45"
         cy="10.093"
         cx="1.151"
         style="fill:black;stroke:none" />
      <circle
         id="circle5529"
         r="0.45"
         cy="4.451"
         cx="1.302"
         style="fill:black;stroke:none" />
      <circle
         id="circle5531"
         r="0.45"
         cy="3.763"
         cx="3.047"
         style="fill:black;stroke:none" />
    </pattern>
    <radialGradient
       inkscape:collect="always"
       xlink:href="#linearGradient6099"
       id="radialGradient6105"
       cx="54.478439"
       cy="74.05941"
       fx="54.478439"
       fy="74.05941"
       r="16.657114"
       gradientTransform="matrix(1.3937686,0.28904407,-0.59837417,2.8853564,22.863339,-157.6534)"
       gradientUnits="userSpaceOnUse" />
  </defs>
  <sodipodi:namedview
     id="base"
     pagecolor="#ffffff"
     bordercolor="#666666"
     borderopacity="1.0"
     inkscape:pageopacity="0.0"
     inkscape:pageshadow="2"
     inkscape:zoom="1.4142136"
     inkscape:cx="-51.489934"
     inkscape:cy="134.44217"
     inkscape:document-units="mm"
     inkscape:current-layer="layer2"
     showgrid="false"
     borderlayer="false"
     inkscape:window-width="1920"
     inkscape:window-height="1025"
     inkscape:window-x="-8"
     inkscape:window-y="-8"
     inkscape:window-maximized="1"
     inkscape:snap-global="false"
     fit-margin-top="1"
     fit-margin-right="1"
     fit-margin-bottom="1"
     fit-margin-left="1"
     units="px" />
  <metadata
     id="metadata7">
    <rdf:RDF>
      <cc:Work
         rdf:about="">
        <dc:format>image/svg+xml</dc:format>
        <dc:type
           rdf:resource="http://purl.org/dc/dcmitype/StillImage" />
        <dc:title>Plum</dc:title>
        <dc:subject>
          <rdf:Bag>
            <rdf:li>plum</rdf:li>
            <rdf:li>fruit</rdf:li>
            <rdf:li>school</rdf:li>
            <rdf:li>teaching</rdf:li>
            <rdf:li>education</rdf:li>
            <rdf:li>Pflaume</rdf:li>
            <rdf:li>Frucht</rdf:li>
            <rdf:li>Schule</rdf:li>
            <rdf:li>Unterricht</rdf:li>
            <rdf:li>Erziehung</rdf:li>
            <rdf:li>line art</rdf:li>
            <rdf:li>outline</rdf:li>
            <rdf:li />
          </rdf:Bag>
        </dc:subject>
        <dc:date>2016-03-29</dc:date>
        <dc:creator>
          <cc:Agent>
            <dc:title>Frank Tremmel</dc:title>
          </cc:Agent>
        </dc:creator>
        <dc:description>coloured line art plum</dc:description>
        <cc:license
           rdf:resource="http://creativecommons.org/publicdomain/zero/1.0/" />
        <dc:source>https://openclipart.org/detail/245256</dc:source>
        <dc:publisher>
          <cc:Agent>
            <dc:title>OpenClipart</dc:title>
          </cc:Agent>
        </dc:publisher>
      </cc:Work>
      <cc:License
         rdf:about="http://creativecommons.org/publicdomain/zero/1.0/">
        <cc:permits
           rdf:resource="http://creativecommons.org/ns#Reproduction" />
        <cc:permits
           rdf:resource="http://creativecommons.org/ns#Distribution" />
        <cc:permits
           rdf:resource="http://creativecommons.org/ns#DerivativeWorks" />
      </cc:License>
    </rdf:RDF>
  </metadata>
  <g
     inkscape:groupmode="layer"
     id="layer2"
     inkscape:label="Ebene 2"
     transform="translate(59.446881,44.436811)">
    <g
       id="g1620"
       transform="matrix(3.4013271,3.4013271,-3.4013271,3.4013271,108.01517,-385.44025)">
      <path
         sodipodi:nodetypes="ssssssss"
         inkscape:connector-curvature="0"
         id="path4249"
         d="M 57.140524,54.213971 C 47.691666,57.787943 45.099586,67.686613 43.73449,76.1452 c -0.975843,6.046651 0.7873,12.787047 4.164982,17.896403 2.919141,4.41573 7.534745,9.658657 12.820332,9.371207 6.393548,-0.3477 11.797372,-7.0101 14.186967,-12.950487 2.945145,-7.32145 1.403777,-16.310083 -1.561868,-23.623253 -1.925828,-4.74902 -5.473331,-9.232167 -9.956908,-11.714009 -1.841253,-1.019208 -4.279056,-1.655631 -6.247471,-0.91109 z"
         style="fill:url(#radialGradient6105);fill-opacity:1;fill-rule:evenodd;stroke:#ffaaaa;stroke-width:0.29055119;stroke-linecap:butt;stroke-linejoin:miter;stroke-miterlimit:4;stroke-dasharray:none;stroke-opacity:1" />
      <path
         sodipodi:nodetypes="ssssssss"
         inkscape:connector-curvature="0"
         id="path4249-2"
         d="m 57.495609,54.40106 c -9.44886,3.57397 -12.04094,13.47264 -13.40603,21.93123 -0.97584,6.04665 0.7873,12.787052 4.16498,17.896402 2.91914,4.41573 7.53474,9.658658 12.82033,9.371208 6.393552,-0.3477 11.797372,-7.010098 14.186972,-12.950488 2.94514,-7.32145 1.40378,-16.310082 -1.56187,-23.623252 -1.92583,-4.74902 -5.47333,-9.23217 -9.956912,-11.71401 -1.84125,-1.01921 -4.27905,-1.65563 -6.24747,-0.91109 z"
         style="opacity:0.28000004;fill:url(#pattern5863);fill-opacity:1;fill-rule:evenodd;stroke:#ffaaaa;stroke-width:0.29055119;stroke-linecap:butt;stroke-linejoin:miter;stroke-miterlimit:4;stroke-dasharray:none;stroke-opacity:1" />
      <path
         sodipodi:nodetypes="sssssssssssssscsccscsssss"
         inkscape:connector-curvature="0"
         id="path4173"
         d="m 58.953439,53.21953 c -0.334129,-0.0027 -0.670879,0.01073 -1.011718,0.03711 -5.375056,0.416051 -9.100796,4.625142 -11.794922,10.021484 -2.694126,5.396343 -3.733833,11.43478 -3.503906,16.382813 0.225231,4.846944 2.111083,11.017628 5.27539,16.054687 3.164306,5.037056 8.65931,8.937216 12.982422,8.654296 7.1471,-0.46774 11.49678,-4.972988 13.953125,-10.230468 2.456345,-5.257482 3.034142,-11.449685 2.769531,-16.441406 -0.267854,-5.05292 -2.608156,-11.314447 -6.117187,-16.40625 -3.289718,-4.773564 -7.540796,-8.031588 -12.552735,-8.072266 z m -0.261718,2.130859 c 3.643484,0.118873 7.463631,3.17406 10.478515,7.548828 3.215878,4.666419 5.3966,10.675471 5.623047,14.947266 0.245891,4.638579 -0.346861,10.466563 -2.507812,15.091797 -1.941806,4.156178 -4.979632,7.32866 -10.029297,8.29297 4.340556,-6.887908 6.99084,-14.063326 6.861328,-21.376955 -0.129227,-7.297564 -1.231238,-12.65343 -6.307194,-19.838056 -1.341841,-1.015796 -2.199988,0.03986 -1.121094,0.761719 4.844191,6.85658 5.446314,12.091263 5.52985,19.013837 0.08921,7.393503 -2.355205,14.70669 -6.90039,21.693355 -4.407464,0.27973 -8.149645,-2.777349 -10.976563,-7.277339 -2.860499,-4.553444 -4.580846,-10.451079 -4.777344,-14.679688 -0.19825,-4.266358 1.128196,-10.366169 3.595704,-15.308593 2.467507,-4.942426 5.982919,-8.557696 9.804687,-8.853516 0.241033,-0.01866 0.483664,-0.02355 0.726563,-0.01563 z"
         style="color:#000000;font-style:normal;font-variant:normal;font-weight:normal;font-stretch:normal;font-size:medium;line-height:normal;font-family:sans-serif;text-indent:0;text-align:start;text-decoration:none;text-decoration-line:none;text-decoration-style:solid;text-decoration-color:#000000;letter-spacing:normal;word-spacing:normal;text-transform:none;writing-mode:lr-tb;direction:ltr;baseline-shift:baseline;text-anchor:start;white-space:normal;clip-rule:nonzero;display:inline;overflow:visible;visibility:visible;opacity:1;isolation:auto;mix-blend-mode:normal;color-interpolation:sRGB;color-interpolation-filters:linearRGB;solid-color:#000000;solid-opacity:1;fill:#120049;fill-opacity:1;fill-rule:evenodd;stroke:none;stroke-width:2.83464575;stroke-linecap:butt;stroke-linejoin:miter;stroke-miterlimit:4;stroke-dasharray:none;stroke-dashoffset:0;stroke-opacity:1;color-rendering:auto;image-rendering:auto;shape-rendering:auto;text-rendering:auto;enable-background:accumulate" />
      <path
         sodipodi:nodetypes="ccccccccccc"
         inkscape:connector-curvature="0"
         id="path4251"
         d="m 60.524571,41.784106 c -1.841597,0.263345 -2.909082,1.558837 -3.188814,3.904669 l -1.171401,10.282298 c -0.90708,0.597549 -1.755065,1.209872 -1.301557,2.147568 0.420906,0.864949 1.317678,1.432482 3.123736,1.431712 1.487232,-0.601326 2.870763,-1.254502 2.993581,-2.538035 0.180731,-1.352132 -0.816377,-1.526426 -1.82218,-1.692024 0.110352,-2.352704 -0.09448,-4.863002 0.650779,-6.89825 0.282743,-0.965691 0.182578,-1.739927 1.431712,-3.188813 l 1.757101,-1.431713 C 62.643257,42.659 62.081226,41.724241 60.524571,41.784106 Z"
         style="fill:#137a52;fill-opacity:1;fill-rule:evenodd;stroke:#00ff00;stroke-width:0.29055119;stroke-linecap:butt;stroke-linejoin:miter;stroke-miterlimit:4;stroke-dasharray:none;stroke-opacity:1" />
      <path
         sodipodi:nodetypes="ssscsssscsssssssscssscsss"
         inkscape:connector-curvature="0"
         id="path4196"
         d="m 60.890939,41.225389 c -1.337186,-0.242265 -2.773011,0.506004 -3.368918,1.752862 -0.687401,1.438296 -0.726406,3.057326 -1.00536,4.598264 -0.466013,2.574251 -0.671541,5.188385 -0.92455,7.791452 -0.822512,0.566651 -1.777001,1.479699 -1.504534,2.577893 0.324311,1.307155 1.783305,1.894823 3.002227,2.014545 1.615686,0.158691 3.389824,-0.434052 4.418412,-1.731197 0.55174,-0.695795 0.644711,-1.747057 7.8e-4,-2.473472 -0.532452,-0.600655 -1.856538,-0.427809 -1.380169,-1.471117 -0.315277,-2.502786 -0.428428,-3.96525 0.437232,-6.407683 0.276567,-0.780326 0.523765,-2.26306 1.259036,-2.334051 1.14681,-0.110726 1.782208,-1.327377 1.500491,-2.327672 -0.381021,-1.352897 -1.233018,-1.772119 -2.434647,-1.989824 z m 0.611012,1.110941 c 1.253338,0.563724 0.689988,1.38462 -0.02266,1.867816 -1.048659,0.711019 -1.401773,1.059982 -1.71151,1.970932 -0.481555,1.416275 -0.810792,2.597423 -0.989093,4.064717 -0.247895,2.040014 0.01952,3.761451 -0.199778,5.804733 0.679199,0.132752 1.366781,0.208204 1.544455,0.891795 0.218979,0.842511 -1.254283,1.559068 -2.025332,1.694409 -0.734045,0.128845 -1.848395,-0.04262 -2.429303,-0.529555 -0.347704,-0.291453 -0.01308,-1.485374 1.049898,-1.669977 -0.239836,-4.2145 0.808398,-7.375243 1.339631,-10.405487 0.163519,-0.932739 0.488459,-2.28636 1.29396,-2.918 0.320901,-0.251637 1.229795,-1.185151 2.149735,-0.771383 z"
         style="color:#000000;font-style:normal;font-variant:normal;font-weight:normal;font-stretch:normal;font-size:medium;line-height:normal;font-family:sans-serif;text-indent:0;text-align:start;text-decoration:none;text-decoration-line:none;text-decoration-style:solid;text-decoration-color:#000000;letter-spacing:normal;word-spacing:normal;text-transform:none;writing-mode:lr-tb;direction:ltr;baseline-shift:baseline;text-anchor:start;white-space:normal;clip-rule:nonzero;display:inline;overflow:visible;visibility:visible;opacity:1;isolation:auto;mix-blend-mode:normal;color-interpolation:sRGB;color-interpolation-filters:linearRGB;solid-color:#000000;solid-opacity:1;fill:#003b29;fill-opacity:1;fill-rule:evenodd;stroke:none;stroke-width:1.77165353;stroke-linecap:butt;stroke-linejoin:miter;stroke-miterlimit:4;stroke-dasharray:none;stroke-dashoffset:0;stroke-opacity:1;color-rendering:auto;image-rendering:auto;shape-rendering:auto;text-rendering:auto;enable-background:accumulate" />
    </g>
  </g>
</svg>
