<?xml version="1.0" encoding="UTF-8" standalone="no"?>
<svg
   xmlns:dc="http://purl.org/dc/elements/1.1/"
   xmlns:cc="http://creativecommons.org/ns#"
   xmlns:rdf="http://www.w3.org/1999/02/22-rdf-syntax-ns#"
   xmlns:svg="http://www.w3.org/2000/svg"
   xmlns="http://www.w3.org/2000/svg"
   xmlns:sodipodi="http://sodipodi.sourceforge.net/DTD/sodipodi-0.dtd"
   xmlns:inkscape="http://www.inkscape.org/namespaces/inkscape"
   version="1.1"
   id="Layer_1"
   x="0px"
   y="0px"
   viewBox="-308.043 -416.0075 256 256"
   enable-background="new -308.043 -416.0075 795.1136 1075.1212"
   xml:space="preserve"
   sodipodi:docname="strawberry.svg"
   inkscape:version="0.92.4 (5da689c313, 2019-01-14)"
   width="256"
   height="256"><title
   id="title1162">Strawberry</title><metadata
   id="metadata355"><rdf:RDF><cc:Work
       rdf:about=""><dc:format>image/svg+xml</dc:format><dc:type
         rdf:resource="http://purl.org/dc/dcmitype/StillImage" /><dc:title>Strawberry</dc:title><cc:license
         rdf:resource="http://creativecommons.org/publicdomain/zero/1.0/" /><dc:source>https://openclipart.org/detail/233803</dc:source><dc:publisher><cc:Agent><dc:title>OpenClipart</dc:title></cc:Agent></dc:publisher><dc:creator><cc:Agent><dc:title>GDJ</dc:title></cc:Agent></dc:creator></cc:Work><cc:License
       rdf:about="http://creativecommons.org/publicdomain/zero/1.0/"><cc:permits
         rdf:resource="http://creativecommons.org/ns#Reproduction" /><cc:permits
         rdf:resource="http://creativecommons.org/ns#Distribution" /><cc:permits
         rdf:resource="http://creativecommons.org/ns#DerivativeWorks" /></cc:License></rdf:RDF></metadata><defs
   id="defs353" /><sodipodi:namedview
   pagecolor="#ffffff"
   bordercolor="#666666"
   borderopacity="1"
   objecttolerance="10"
   gridtolerance="10"
   guidetolerance="10"
   inkscape:pageopacity="0"
   inkscape:pageshadow="2"
   inkscape:window-width="1920"
   inkscape:window-height="1025"
   id="namedview351"
   showgrid="false"
   inkscape:zoom="2.4834736"
   inkscape:cx="46.757903"
   inkscape:cy="145.32478"
   inkscape:window-x="-8"
   inkscape:window-y="-8"
   inkscape:window-maximized="1"
   inkscape:current-layer="Layer_1"
   fit-margin-top="0"
   fit-margin-left="0"
   fit-margin-right="0"
   fit-margin-bottom="0" />
<g
   id="g348"
   transform="matrix(0.25578247,0,0,0.25578247,-202.93909,-319.09855)">
	<path
   d="m 156.2064,-354.7458 c -0.7572,-8.7076 4.7534,-16.2374 8.7917,-23.4727 2.0192,22.4631 -3.6177,45.8096 4.0804,67.5576 8.6235,24.903 12.7039,51.6568 10.0958,77.9479 -1.6406,21.1591 -2.1874,42.4023 -4.7114,63.4773 -7.8242,17.878 -12.0308,37.8171 -25.1132,52.9608 -7.025,-3.0708 -14.7651,-3.5335 -22.2949,-3.828 5.132,-34.2415 14.723,-67.5576 24.2299,-100.7475 6.5622,-23.7251 6.8146,-48.5439 5.8051,-72.9421 -0.9675,-20.3178 2.4398,-40.7197 -0.8834,-60.9533 z"
   id="path2"
   inkscape:connector-curvature="0"
   style="fill:#234910;stroke:#234910;stroke-width:0.3944" />
	<path
   d="m 110.0603,-276.5035 c 9.9275,-28.3944 19.855,-60.5747 46.1462,-78.2424 3.3232,20.2336 -0.0841,40.6356 0.8834,60.9533 1.0096,24.3982 0.7572,49.217 -5.8051,72.9421 -9.5069,33.1899 -19.0979,66.506 -24.2299,100.7475 -7.4036,-0.0841 -14.8492,0 -22.2528,0.2524 -5.8051,-24.9029 -14.2182,-49.0487 -21.4115,-73.573 -1.9351,-7.7401 -6.0154,-14.7651 -12.9563,-18.9717 l 6.8146,2.3557 c -1.8088,-26.4173 0.4627,-54.7276 16.1954,-77.0225 7.025,-9.2965 7.4877,-21.075 8.4552,-32.2224 8.6656,12.4095 6.3519,28.4787 8.1608,42.781 z"
   id="path4"
   inkscape:connector-curvature="0"
   style="fill:#499224;stroke:#499224;stroke-width:0.3944" />
	<path
   d="m 249.0877,-305.1082 c 0.8834,0.0841 2.6081,0.1682 3.4914,0.2103 -4.2907,17.4152 -6.0995,35.5876 -2.0612,53.2132 3.8701,16.7422 0.2103,33.7368 -4.1645,49.9741 27.3848,-12.9983 62.005,2.3136 85.9825,-19.0558 18.7193,-13.419 32.0121,-33.3161 37.6909,-55.653 -0.3365,22.9259 -5.2582,46.5248 -18.5089,65.6226 -7.5298,11.0212 -19.4765,17.6255 -29.6985,25.7442 -13.9659,10.3482 -23.4727,25.1974 -33.9891,38.7426 l -4.6693,-0.5469 c -20.6543,-2.8184 -42.0237,-3.3653 -62.2574,2.4398 -22.2107,5.5106 -39.8363,21.2012 -60.743,29.8667 -2.1033,-21.0329 10.4323,-39.2894 17.2049,-58.3032 21.3273,-28.5627 50.1004,-54.6434 56.4943,-91.3248 2.0192,-6.6464 4.5431,-13.0825 6.8567,-19.6027 2.6081,-7.193 5.3845,-14.3022 8.3712,-21.3271 z"
   id="path6"
   inkscape:connector-curvature="0"
   style="fill:#254813;stroke:#254813;stroke-width:0.3944" />
	<path
   d="m 11.8367,-260.182 c -1.0516,-13.1245 5.0479,-25.618 14.8913,-34.0312 -4.1645,19.2241 -9.8434,42.3182 5.09,58.5556 8.2028,14.092 25.0291,16.9104 38.6164,23.2624 6.9409,4.2066 11.0212,11.2316 12.9563,18.9717 7.1932,24.5244 15.6064,48.6701 21.4115,73.573 -10.2641,0.5048 -20.486,1.5564 -30.666,2.7343 -9.2124,-18.6351 -4.501,-40.3831 -11.8205,-59.481 -6.7726,-15.3961 -17.0787,-29.5302 -31.1708,-39.037 -7.2774,-14.4707 -20.6964,-27.0905 -19.3082,-44.5478 z"
   id="path8"
   inkscape:connector-curvature="0"
   style="fill:#224a11;stroke:#224a11;stroke-width:0.3944" />
	<path
   d="m -136.3611,-230.147 c -11.7363,-17.4994 -10.4744,-38.7005 -14.8913,-58.3873 5.9733,8.2449 13.8396,14.6809 23.3044,18.4669 -2.3557,0.0421 -7.1091,0.1262 -9.5069,0.1683 9.8434,18.3828 23.1783,34.4519 35.5035,51.1099 13.2928,17.4994 26.5856,35.3353 43.5802,49.5114 25.2815,20.5281 54.0545,37.9854 73.2365,64.9496 -21.4115,-0.4207 -41.8555,-9.9696 -63.4352,-6.5202 l -3.3232,-0.4207 c -6.394,-6.8146 -13.9238,-12.3673 -22.0845,-16.8684 -17.1628,-9.4648 -31.5914,-23.1362 -42.0658,-39.668 -15.2278,-21.8742 -22.9258,-48.4177 -40.8879,-68.3569 5.1321,1.5144 15.4382,4.501 20.5702,6.0154 z"
   id="path10"
   inkscape:connector-curvature="0"
   style="fill:#244812;stroke:#244812;stroke-width:0.3944" />
	<path
   d="m 221.9973,-260.0558 c 1.5144,-10.8109 9.5489,-18.6772 18.7193,-23.7251 -2.3136,6.5202 -4.8375,12.9563 -6.8567,19.6027 -2.9446,1.0516 -8.918,3.1129 -11.8626,4.1224 z"
   id="path12"
   inkscape:connector-curvature="0"
   style="fill:#aecc9e;stroke:#aecc9e;stroke-width:0.3944" />
	<path
   d="m -137.4548,-269.8992 c 2.3978,-0.0421 7.1512,-0.1262 9.5069,-0.1683 36.9758,6.5623 68.9037,31.8859 91.8296,60.9113 24.3561,35.798 34.1995,80.0932 64.571,111.9791 -1.8929,-0.0421 -5.6789,-0.1262 -7.6139,-0.1683 -2.0612,-2.2716 -4.0383,-4.5852 -5.9733,-6.9829 -19.182,-26.9642 -47.955,-44.4214 -73.2365,-64.9496 -16.9946,-14.1762 -30.2873,-32.0121 -43.5802,-49.5114 -12.3253,-16.658 -25.6602,-32.7271 -35.5036,-51.1099 z"
   id="path14"
   inkscape:connector-curvature="0"
   style="fill:#4a9126;stroke:#4a9126;stroke-width:0.3944" />
	<path
   d="m -37.5906,-266.7442 c 0.8413,-0.2103 2.4819,-0.5468 3.2811,-0.7572 1.2199,2.6501 3.5756,7.9925 4.7955,10.6426 0.5048,2.1874 1.5564,6.6043 2.1033,8.8338 6.0995,30.3715 21.4115,58.3032 40.93,82.1124 8.6655,9.7172 9.7172,23.3044 16.0271,34.2836 6.3519,9.4648 14.1341,17.8359 21.075,26.9221 -7.1512,3.197 -14.3444,6.394 -22.1687,7.5298 -30.3715,-31.8859 -40.2149,-76.1811 -64.571,-111.9791 3.3232,-19.1399 4.0804,-38.7426 -1.4723,-57.588 z"
   id="path16"
   inkscape:connector-curvature="0"
   style="fill:#214b0f;stroke:#214b0f;stroke-width:0.3944" />
	<path
   d="m 179.1743,-232.713 c 14.4706,-8.8338 28.5627,-18.1724 42.823,-27.3428 2.9446,-1.0096 8.918,-3.0708 11.8625,-4.1224 -6.394,36.6814 -35.167,62.7621 -56.4943,91.3248 l -2.9026,3.6176 c 2.524,-21.0749 3.0709,-42.3181 4.7114,-63.4772 z"
   id="path18"
   inkscape:connector-curvature="0"
   style="fill:#4b9028;stroke:#4b9028;stroke-width:0.3944" />
	<path
   d="m -27.4107,-248.025 c 12.1149,21.1591 32.8954,33.7368 53.0029,46.2303 1.893,-4.6272 3.7018,-9.2545 5.5527,-13.8396 14.0921,9.5069 24.3982,23.641 31.1708,39.037 7.3194,19.0979 2.6081,40.8459 11.8205,59.481 0.5889,1.3461 1.8509,4.0383 2.4398,5.3844 -8.7497,1.8088 -17.5835,3.7439 -25.9546,7.025 -6.9409,-9.0862 -14.723,-17.4573 -21.075,-26.9221 -6.3099,-10.9792 -7.3615,-24.5664 -16.0271,-34.2836 -19.5185,-23.8092 -34.8305,-51.7409 -40.93,-82.1124 z"
   id="path20"
   inkscape:connector-curvature="0"
   style="fill:#4a9224;stroke:#4a9224;stroke-width:0.3944" />
	<path
   d="m 149.3497,-116.2749 c 13.0824,-15.1437 17.289,-35.0829 25.1132,-52.9608 l 2.9026,-3.6176 c -6.7726,19.0137 -19.3082,37.2703 -17.2049,58.3032 -3.7859,0.757 -7.4877,0.2943 -10.8109,-1.7248 z"
   id="path22"
   inkscape:connector-curvature="0"
   style="fill:#eccf9b;stroke:#eccf9b;stroke-width:0.3944" />
	<path
   d="m -116.0433,-167.8055 c 10.4744,16.5319 24.9029,30.2032 42.0658,39.668 -18.0462,1.7668 -35.5035,-5.4265 -53.5077,-3.87 -29.404,1.1358 -56.9571,12.4094 -85.7301,17.1208 -18.0042,3.5756 -36.0504,-4.9638 -53.8442,-0.1682 -5.9733,-1.4303 -8.5814,-8.3711 -12.8721,-12.0729 15.3961,2.3557 31.2128,5.4685 46.7351,2.1453 31.0445,-5.6368 53.2553,-32.601 84.6784,-37.1862 10.6427,-2.8184 21.4956,-1.304 31.8017,2.1033 0.1683,-1.935 0.5048,-5.8051 0.6731,-7.7401 z"
   id="path24"
   inkscape:connector-curvature="0"
   style="fill:#4c9028;stroke:#4c9028;stroke-width:0.3944" />
	<path
   d="m 220.9036,-144.4169 c 20.2337,-5.8051 41.603,-5.2582 62.2574,-2.4398 9.2965,8.7076 22.6314,9.0862 33.7788,14.092 24.1037,9.8434 47.8288,21.9583 67.9362,38.7426 3.7859,3.9121 7.9084,7.4877 12.4515,10.5164 3.7018,2.9446 7.3195,6.0154 10.8109,9.2545 -1.3461,2.4398 -3.9541,7.3194 -5.3003,9.7593 -8.6235,-15.6485 -21.8322,-28.773 -37.6068,-37.1441 -3.9962,-2.2716 -8.0345,-1.9771 -12.0729,0.8834 -5.5106,-4.3328 -10.9371,-8.8338 -16.3636,-13.2928 -6.6464,-5.7209 -14.2603,-10.1799 -22.4631,-13.2507 -1.2199,1.6826 -3.6598,5.0058 -4.8796,6.6885 -5.7209,-3.828 -11.4839,-7.698 -17.4152,-11.2316 -18.551,-11.3157 -41.6031,-8.329 -62.2994,-7.5718 -28.2261,1.8088 -46.8192,31.0025 -75.7605,29.1516 -28.6047,-1.262 -58.5135,-3.5335 -85.5197,8.1187 -21.075,6.5202 -43.7063,19.5606 -65.8329,9.7172 -7.2774,-2.4819 -14.4706,-5.2161 -21.8742,-7.2774 13.2928,1.6406 26.7118,2.1874 40.0887,2.3557 1.935,0.042 5.7209,0.1262 7.6139,0.1683 7.8242,-1.1358 15.0175,-4.3328 22.1687,-7.5298 8.3711,-3.2811 17.2049,-5.2162 25.9546,-7.025 -0.5889,-1.3461 -1.8509,-4.0383 -2.4398,-5.3844 10.1799,-1.1778 20.4019,-2.2295 30.666,-2.7343 7.4036,-0.2524 14.8492,-0.3365 22.2528,-0.2524 7.5298,0.2945 15.2699,0.7572 22.2949,3.828 3.3232,2.0191 7.025,2.4819 10.8109,1.7247 20.9064,-8.6657 38.532,-24.3562 60.7427,-29.8668 z"
   id="path26"
   inkscape:connector-curvature="0"
   style="fill:#883415;stroke:#883415;stroke-width:0.3944" />
	<path
   d="m -213.2153,-114.8868 c 28.773,-4.7113 56.3261,-15.985 85.7301,-17.1208 18.0042,-1.5564 35.4615,5.6368 53.5077,3.87 8.1608,4.501 15.6905,10.0537 22.0845,16.8684 -43.2016,-3.828 -85.1411,10.0117 -127.4593,16.2795 -12.1991,2.6081 -23.9775,-1.6826 -35.1249,-6.2258 -17.0366,-7.025 -37.2282,-2.1033 -52.5822,-13.8396 17.7938,-4.7954 35.84,3.7439 53.8441,0.1683 z"
   id="path28"
   inkscape:connector-curvature="0"
   style="fill:#306316;stroke:#306316;stroke-width:0.3944" />
	<path
   d="m 305.2455,-114.8026 c -10.4323,2.2716 -21.1591,-6.8988 -13.2086,-17.0366 5.9313,3.5335 11.6943,7.4036 17.4152,11.2316 -1.0517,1.4722 -3.155,4.3747 -4.2066,5.805 z"
   id="path30"
   inkscape:connector-curvature="0"
   style="fill:#ffbd83;stroke:#ffbd83;stroke-width:0.3944" />
	<path
   d="m 264.6099,-120.145 c 11.6943,-3.9121 19.7289,9.3386 22.0845,18.8876 -8.4131,12.4093 -32.012,-8.4553 -22.0845,-18.8876 z"
   id="path32"
   inkscape:connector-curvature="0"
   style="fill:#ffc584;stroke:#ffc584;stroke-width:0.3944" />
	<path
   d="m -179.3523,-94.9897 c 42.3182,-6.2678 84.2578,-20.1074 127.4593,-16.2795 l 3.3232,0.4207 c -17.92,2.9446 -36.6393,-1.6406 -54.0545,4.501 -13.7555,4.2486 -27.3007,9.3386 -40.0046,16.1953 -2.7343,1.4302 -5.3844,2.9867 -8.0346,4.5852 -8.1608,-1.7247 -18.4248,-7.1932 -25.3657,0.3786 -6.6043,5.0479 -2.8184,13.2507 -2.3557,19.9812 l -2.3557,1.9771 c -4.9217,4.9638 -9.4648,10.222 -13.8817,15.6064 -2.1454,-10.8109 11.1054,-16.3636 9.6751,-26.9221 -0.2522,-7.2773 2.3138,-14.0919 5.5949,-20.4439 z"
   id="path34"
   inkscape:connector-curvature="0"
   style="fill:#ffffea;stroke:#ffffea;stroke-width:0.3944" />
	<path
   d="m -48.5698,-110.8484 c 21.5797,-3.4494 42.0237,6.0995 63.4352,6.5202 1.935,2.3977 3.9121,4.7114 5.9733,6.9829 -13.3769,-0.1683 -26.7959,-0.7152 -40.0886,-2.3557 -22.5893,-1.7668 -46.1882,-9.4227 -68.2728,-0.9254 -8.2869,2.7343 -15.3119,7.9084 -21.8742,13.5031 -1.0096,-2.7764 -2.9867,-8.2449 -3.9963,-10.9792 -8.96,5.0479 -18.5931,10.0116 -29.2357,7.9504 12.7039,-6.8567 26.2491,-11.9467 40.0046,-16.1953 17.4152,-6.1416 36.1345,-1.5564 54.0545,-4.501 z"
   id="path36"
   inkscape:connector-curvature="0"
   style="fill:#61230c;stroke:#61230c;stroke-width:0.3944" />
	<path
   d="m 336.7948,-114.0454 c 5.4265,4.459 10.853,8.96 16.3636,13.2928 0.4207,3.3653 1.2199,10.1379 1.5985,13.5452 -14.5548,1.5143 -31.2549,-13.5873 -17.9621,-26.838 z"
   id="path38"
   inkscape:connector-curvature="0"
   style="fill:#ffc380;stroke:#ffc380;stroke-width:0.3944" />
	<path
   d="m -87.5227,-100.6265 c 22.0845,-8.4973 45.6834,-0.8413 68.2728,0.9254 7.4036,2.0612 14.5968,4.7955 21.8742,7.2774 -6.5623,0.5468 -13.5031,0.2103 -19.6447,2.9446 -20.4019,14.8072 -35.3773,34.8725 -48.0812,56.284 -21.2012,19.8971 -29.2778,48.2074 -39.1632,74.5826 -9.2545,18.7193 -14.723,39.3736 -14.8913,60.3223 -0.0421,15.3119 6.2257,30.3715 2.9867,45.6834 -5.0479,27.4269 -7.1091,58.7238 10.4323,82.3648 2.4398,4.2487 4.9638,8.4131 7.4877,12.6618 -2.2716,3.6597 -8.2028,7.1091 -5.9313,12.1149 4.9638,13.8397 10.4323,27.5952 12.9983,42.192 3.5756,2.3136 7.1512,4.6693 10.7688,6.9409 2.4819,6.3098 4.8376,12.7038 6.6464,19.2661 8.4552,35.6718 36.471,62.5518 48.6701,96.6671 4.1645,-0.9254 8.3711,-1.8509 12.5356,-2.8184 0.7993,5.3003 1.5985,10.6005 2.7343,15.8167 3.1549,2.4819 6.3519,4.9217 9.591,7.3195 -0.2945,3.4915 -0.5889,6.9829 -0.8834,10.4743 11.484,7.9084 16.658,20.6964 21.4956,33.1899 4.8796,14.0079 21.5377,17.7939 28.4785,30.2453 4.2486,7.1091 7.4036,14.7651 10.8109,22.2949 4.9638,0.2945 9.8855,0.5469 14.8493,1.0096 -1.9771,7.9925 -7.9504,19.8129 0.7992,25.7863 8.4552,4.8376 10.6006,-8.6656 14.723,-12.9142 1.3882,5.7209 2.524,11.4839 3.7018,17.2049 4.2486,-0.1683 8.4973,-0.3365 12.7459,-0.5048 6.5202,14.0499 17.6676,26.88 33.8209,29.2777 7.2774,2.0192 11.0212,-6.3939 15.985,-9.9695 0.0842,4.4169 0.1683,8.7917 0.2945,13.2086 2.6502,0.6731 7.9925,2.0192 10.6427,2.6923 2.4819,0.5889 7.4035,1.8088 9.8855,2.3978 -9.8434,2.0191 -19.6027,4.3748 -29.4881,6.0995 -1.5564,-0.2524 -4.7114,-0.7572 -6.2678,-1.0516 -9.7172,4.0804 -20.2757,4.9637 -30.708,5.0059 l -5.8471,0.1262 c 6.5622,-6.9409 9.9275,-15.9429 7.656,-25.4077 -14.5548,-0.2103 -13.2507,14.4706 -10.6847,24.5664 C 85.2837,610.3692 68.6257,607.2985 53.0613,600.8624 40.8622,593.6271 30.2617,583.279 15.749,580.755 -0.7408,569.6497 -15.6321,555.5997 -28.1256,540.1616 -33.6783,528.2149 -42.0073,518.1191 -53.1968,511.0521 -72.7574,489.8088 -85.924,463.3494 -105.1901,442.1062 l 1.935,-2.6922 c 1.1358,-1.5564 3.3232,-4.5851 4.459,-6.0995 3.2811,-0.2104 9.8013,-0.5468 13.0825,-0.7151 -2.1033,-8.1608 -5.8471,-15.6905 -11.3157,-22.1266 -2.6501,1.5144 -7.9504,4.501 -10.6006,6.0154 -2.7763,-0.0421 -8.3711,-0.0841 -11.1895,-0.1262 -6.1837,-13.5452 -13.8817,-26.3332 -22.9259,-38.1536 -7.1091,-9.0862 -10.264,-20.7805 -18.7613,-28.8571 l 1.7247,-2.4398 c 1.4723,-2.0612 4.4169,-6.1416 5.8472,-8.2028 7.8663,-7.0671 9.0441,-20.5702 -1.0096,-26.2491 -2.3978,0.9254 -7.1933,2.7764 -9.591,3.7018 -5.0479,-1.2199 -10.0117,-2.7764 -14.9334,-4.459 -4.3328,-5.4685 -7.9925,-11.6943 -9.4648,-18.551 -0.0841,-12.788 -6.4361,-23.5569 -14.3865,-32.9796 -11.6102,-25.3657 -18.551,-52.9608 -23.9775,-80.2615 -0.9675,-10.1379 -2.0192,-20.2337 -4.0383,-30.2453 0.8413,-10.3903 1.3461,-20.8647 0.5889,-31.2549 -1.9771,-24.0196 3.0287,-47.955 -0.0421,-71.9325 0.9254,-11.8625 3.0708,-23.8513 7.5298,-34.9567 3.4073,-7.9925 6.7305,-16.0271 9.5489,-24.2719 5.2582,-2.9025 10.5585,-5.8051 16.0691,-8.329 2.6922,0.0421 8.0346,0.0421 10.7268,0.0841 5.5106,-4.9637 10.1379,-11.1474 10.4744,-18.8455 -0.7993,-1.935 -2.4398,-5.763 -3.2391,-7.656 -1.1358,-5.1741 -1.5144,-10.4744 -2.0612,-15.7326 l 2.3557,-1.9771 c 9.2124,-6.8147 18.4248,-13.6293 27.7213,-20.3599 2.6501,-1.5985 5.3003,-3.1549 8.0346,-4.5852 10.6426,2.0612 20.2757,-2.9025 29.2357,-7.9504 1.0096,2.7343 2.9867,8.2028 3.9963,10.9792 0.2945,2.8184 0.9254,8.4132 1.2199,11.2316 13.2505,-0.3786 25.8703,-10.3061 20.6541,-24.7347 m 5.4686,75.7605 c 9.591,-6.6884 13.0404,-17.7518 12.9983,-28.9833 -16.7843,-4.4169 -24.6926,19.0978 -12.9983,28.9833 m -72.4373,21.2011 c 3.7439,-7.4877 8.4552,-14.9333 8.2028,-23.5989 -14.4285,-13.1665 -26.6697,23.5148 -8.2028,23.5989 m 32.8534,44.2533 c 2.2715,0.2945 6.7305,0.8413 8.96,1.0937 2.9446,-8.4132 3.6177,-17.289 3.1549,-26.1228 -15.7326,-4.5432 -17.0366,14.5547 -12.1149,25.0291 m -90.5256,13.1665 c 9.9275,-5.5106 14.5548,-17.0787 13.1245,-28.0579 -14.8492,-3.0707 -25.3656,19.1821 -13.1245,28.0579 m 44.0008,5.6789 c -1.6406,8.3711 4.8376,13.7134 11.6102,16.9525 5.2162,-9.0021 7.4036,-19.8971 4.1224,-30.035 -8.0346,-6.9828 -17.7517,4.7535 -15.7326,13.0825 m -34.4519,70.9229 c 2.6081,-0.0421 7.8242,-0.0421 10.3902,-0.0841 1.3461,-8.5814 7.3195,-22.5893 -2.7763,-27.5952 -12.2411,3.0708 -11.2736,18.1724 -7.6139,27.6793 m 67.9783,-5.7209 c -0.7572,10.3902 -5.2162,28.0579 10.6006,28.2682 3.9963,-9.4648 6.8988,-19.5185 3.197,-29.6143 -4.5852,0.4627 -9.2124,0.8833 -13.7976,1.3461 m -32.5168,29.9508 c -2.3136,10.2219 -6.2678,27.7213 9.4648,27.4269 3.5335,-8.96 3.828,-18.551 2.7343,-28.0158 -4.0804,0.2103 -8.1187,0.3786 -12.1991,0.5889 m -39.5419,49.3853 c -6.6043,6.9408 -5.7209,23.5148 3.9121,27.3428 9.8434,-0.4207 6.7305,-13.6714 6.8988,-20.3178 0.7993,-6.6886 -5.3002,-9.2966 -10.8109,-7.025 m 38.5323,64.4867 c 2.0612,-0.4206 6.1837,-1.2619 8.2449,-1.6826 1.893,-10.1799 4.2486,-22.5893 -5.5947,-29.6564 -10.3903,7.5719 -8.7077,21.5798 -2.6502,31.339 m 37.9013,-22.421 c -7.1512,10.0116 -4.4169,21.9162 2.2716,31.339 12.7459,-4.7955 9.1283,-18.551 9.1283,-29.1095 -3.8281,-0.7572 -7.614,-1.4723 -11.3999,-2.2295 m 12.0729,76.097 c -8.4973,5.1741 -1.8088,28.4365 9.5069,21.4535 1.6405,-7.4035 3.3652,-27.8054 -9.5069,-21.4535 m 40.0045,39.2894 c -0.3365,5.2582 -0.631,10.4744 -0.9255,15.7326 2.3978,3.2811 4.8376,6.5623 7.2774,9.8434 2.3557,-0.3786 7.067,-1.1778 9.4227,-1.5564 0.2524,-8.3291 -0.1262,-16.616 -1.1778,-24.8188 -4.8796,0.2524 -9.7592,0.5047 -14.5968,0.7992 m -28.3103,35.0829 c 6.8567,-7.4877 8.329,-27.3848 -5.0058,-27.469 -12.1991,5.721 -5.5527,23.5148 5.0058,27.469 m 51.3203,26.3332 c -7.6139,7.6559 -6.0995,26.2911 7.2774,25.5759 5.8892,-6.5201 1.6406,-15.8167 0.9675,-23.4306 -2.0613,-0.5468 -6.1837,-1.6405 -8.2449,-2.1453 m 51.0678,38.7425 c -8.7918,5.0479 -4.5431,19.5185 2.7343,24.7347 12.115,-0.631 10.1379,-28.8571 -2.7343,-24.7347 m -64.9916,0.589 c -6.6043,10.2641 4.6693,24.314 15.9429,21.748 4.5011,-9.4648 -3.7438,-27.9737 -15.9429,-21.748 m 37.4386,37.3544 c -0.4207,4.1224 -0.8413,8.2449 -1.262,12.3673 4.459,6.0154 10.3902,10.1378 18.0462,10.7688 1.8509,-11.1894 -3.3232,-25.3656 -16.7842,-23.1361 m 62.5938,12.8301 c -2.9446,9.591 -1.1778,19.4344 6.4361,26.3331 2.2716,-0.673 6.7726,-2.0191 9.0441,-2.6922 0.9255,-10.3482 -1.5143,-26.6697 -15.4802,-23.6409 m -22.421,32.2644 c -2.1033,9.8434 4.459,24.1878 16.1112,21.4535 6.5622,-9.2123 -3.7439,-26.4593 -16.1112,-21.4535 m 44.0849,40.7196 c 0.3365,7.7402 8.2028,8.0346 13.9658,9.4228 1.0937,-8.4131 -1.0516,-16.4898 -5.8051,-23.4307 -3.6176,3.6177 -12.0308,7.5299 -8.1607,14.0079 z"
   id="path40"
   inkscape:connector-curvature="0"
   style="fill:#9e070a;stroke:#9e070a;stroke-width:1.65890002" />
	<path
   d="m -109.3969,-87.1233 c 6.5622,-5.5948 13.5872,-10.7689 21.8742,-13.5031 5.2162,14.4285 -7.4036,24.3561 -20.6543,24.7347 -0.2945,-2.8185 -0.9254,-8.4132 -1.2199,-11.2316 z"
   id="path42"
   inkscape:connector-curvature="0"
   style="fill:#eba56f;stroke:#eba56f;stroke-width:0.3944" />
	<path
   d="m 384.876,-94.0221 c 6.1416,-6.0996 18.509,3.4914 12.4515,10.5164 -4.5431,-3.0287 -8.6656,-6.6043 -12.4515,-10.5164 z"
   id="path44"
   inkscape:connector-curvature="0"
   style="fill:#f3b8b8;stroke:#f3b8b8;stroke-width:0.3944" />
	<path
   d="m -176.0291,-85.1883 c 6.9408,-7.5719 17.2049,-2.1033 25.3657,-0.3786 -9.2965,6.7305 -18.5089,13.5452 -27.7213,20.3599 -0.4628,-6.7306 -4.2487,-14.9334 2.3556,-19.9813 z"
   id="path46"
   inkscape:connector-curvature="0"
   style="fill:#f1cc89;stroke:#f1cc89;stroke-width:0.3944" />
	<path
   d="m 88.3543,-77.953 c 3.3652,-2.6502 7.9083,-2.0612 11.8205,-2.8605 1.1778,8.8338 1.262,17.7938 -1.262,26.3752 -2.6922,-0.5048 -8.0766,-1.4723 -10.7688,-1.9771 -0.3786,-7.1511 -1.7668,-14.5126 0.2103,-21.5376 z"
   id="path48"
   inkscape:connector-curvature="0"
   style="fill:#ffc189;stroke:#ffc189;stroke-width:0.3944" />
	<path
   d="m 197.6833,-61.5474 c -16.1533,14.1341 -25.0712,-28.3523 -3.2391,-21.0329 1.4723,6.8988 3.6177,13.8397 3.2391,21.0329 z"
   id="path50"
   inkscape:connector-curvature="0"
   style="fill:#ffc382;stroke:#ffc382;stroke-width:0.3944" />
	<path
   d="m 408.1383,-74.2512 c 8.7918,8.7497 19.0979,17.7097 19.6027,31.1707 -12.199,-1.4723 -24.1037,-7.9084 -24.9029,-21.4115 1.3461,-2.4398 3.9542,-7.3194 5.3002,-9.7592 z"
   id="path52"
   inkscape:connector-curvature="0"
   style="fill:#ffc88e;stroke:#ffc88e;stroke-width:0.3944" />
	<path
   d="m 322.9551,-70.3391 c 4.5852,1.0937 13.419,-1.9771 14.3445,4.8796 1.5985,6.5623 0.631,13.3349 0.5889,19.9812 -14.0499,0.7572 -15.5223,-14.3023 -14.9334,-24.8608 z"
   id="path54"
   inkscape:connector-curvature="0"
   style="fill:#ffc387;stroke:#ffc387;stroke-width:0.3944" />
	<path
   d="m 369.3958,-62.0942 c 0.0842,-5.9733 7.3195,-8.4552 11.2736,-4.2066 7.1512,4.6693 8.0767,13.461 8.6656,21.2432 -9.549,0.1683 -20.4019,-6.5623 -19.9392,-17.0366 z"
   id="path56"
   inkscape:connector-curvature="0"
   style="fill:#ffc484;stroke:#ffc484;stroke-width:0.3944" />
	<path
   d="m 147.4567,-63.6507 c 12.0729,-2.1453 9.7172,15.6485 7.3615,22.9679 -13.4189,12.4515 -20.3177,-19.0557 -7.3615,-22.9679 z"
   id="path58"
   inkscape:connector-curvature="0"
   style="fill:#ffc085;stroke:#ffc085;stroke-width:0.3944" />
	<path
   d="m -194.6222,-47.6236 c 4.4169,-5.3844 8.96,-10.6426 13.8817,-15.6064 0.5468,5.2582 0.9254,10.5585 2.0612,15.7326 -11.5681,4.1645 -16.0691,15.1437 -17.9621,26.4173 -5.5106,2.5239 -10.8109,5.4265 -16.0691,8.329 1.8509,-5.2162 3.7859,-10.3482 6.0154,-15.4382 3.4915,-6.7725 7.5719,-13.2506 12.0729,-19.4343 z"
   id="path60"
   inkscape:connector-curvature="0"
   style="fill:#8a3426;stroke:#8a3426;stroke-width:0.3944" />
	<path
   d="m 246.774,-54.1859 c 14.8913,-6.7726 15.8167,13.5452 13.8817,23.4727 -14.134,2.9026 -14.2602,-13.8396 -13.8817,-23.4727 z"
   id="path62"
   inkscape:connector-curvature="0"
   style="fill:#ffbf80;stroke:#ffbf80;stroke-width:0.3944" />
	<path
   d="m -82.0541,-24.866 c -11.6943,-9.8855 -3.7859,-33.4002 12.9983,-28.9833 0.042,11.2315 -3.4074,22.2948 -12.9983,28.9833 z"
   id="path64"
   inkscape:connector-curvature="0"
   style="fill:#dda06e;stroke:#dda06e;stroke-width:0.3944" />
	<path
   d="m -196.6413,-21.0801 c 1.893,-11.2736 6.394,-22.2528 17.9621,-26.4173 0.7993,1.8929 2.4398,5.7209 3.2391,7.656 -0.3365,7.698 -4.9638,13.8817 -10.4744,18.8455 -2.6923,-0.0421 -8.0346,-0.0421 -10.7268,-0.0842 z"
   id="path66"
   inkscape:connector-curvature="0"
   style="fill:#e39b6f;stroke:#e39b6f;stroke-width:0.3944" />
	<path
   d="m -48.1491,-4.0014 c -14.8913,-7.0671 -4.1645,-39.5418 10.9792,-27.1745 1.304,10.5165 -4.1646,19.7289 -10.9792,27.1745 z"
   id="path68"
   inkscape:connector-curvature="0"
   style="fill:#ffc282;stroke:#ffc282;stroke-width:0.3944" />
	<path
   d="m 88.9853,-4.3379 c -15.9429,4.6693 -18.6351,-21.2432 -6.6464,-26.6276 12.4094,1.8929 6.8988,18.0462 6.6464,26.6276 z"
   id="path70"
   inkscape:connector-curvature="0"
   style="fill:#ffc57c;stroke:#ffc57c;stroke-width:0.3944" />
	<path
   d="m -222.533,-15.4159 c 5.4209,-6.5739 8.182,-8.9453 15.838,-12.7733 -2.2295,5.09 -4.1645,10.222 -6.0154,15.4382 -2.8184,8.2449 -6.1416,16.2794 -9.5489,24.2719 -5.0058,-1.9771 -4.8155,-3.3171 -6.289,-8.3437 -1.8407,-6.2787 1.8764,-13.5739 6.0153,-18.5931 z"
   id="path72"
   inkscape:connector-curvature="0"
   style="fill:#ebce94;stroke:#ebce94;stroke-width:0.3944" />
	<path
   d="m -154.4914,-3.6649 c -18.4669,-0.0841 -6.2257,-36.7655 8.2028,-23.5989 0.2524,8.6656 -4.459,16.1112 -8.2028,23.5989 z"
   id="path74"
   inkscape:connector-curvature="0"
   style="fill:#e6a16c;stroke:#e6a16c;stroke-width:0.3944" />
	<path
   d="m 6.8308,-7.8294 c -4.6693,-8.0346 -1.3461,-17.289 3.9121,-24.0616 12.0308,2.7343 11.1895,14.9754 8.7497,24.3561 -1.7667,5.3003 -11.568,5.2582 -12.6618,-0.2945 z"
   id="path76"
   inkscape:connector-curvature="0"
   style="fill:#ffbe7f;stroke:#ffbe7f;stroke-width:0.3944" />
	<path
   d="m 217.5383,12.7829 c -2.3978,-7.8242 -6.8988,-19.1399 3.6177,-23.2203 9.8013,3.7439 6.5202,14.8072 7.6139,22.8838 -2.8184,0.0841 -8.4132,0.2523 -11.2316,0.3365 z"
   id="path78"
   inkscape:connector-curvature="0"
   style="fill:#ffbe89;stroke:#ffbe89;stroke-width:0.3944" />
	<path
   d="m 445.1142,-7.1984 c 6.8146,8.5393 8.5393,19.8971 6.6884,30.4977 l -4.4169,-1.8509 c -2.1874,-0.5889 -6.4781,-1.8088 -8.6655,-2.4398 -0.7572,-5.9733 -1.4723,-11.9467 -2.1874,-17.92 2.8604,-2.7764 5.7209,-5.5106 8.5814,-8.287 z"
   id="path80"
   inkscape:connector-curvature="0"
   style="fill:#ffc894;stroke:#ffc894;stroke-width:0.3944" />
	<path
   d="m 390.8914,1.8458 c 14.1341,-6.0995 17.7938,15.9009 10.5585,23.4306 C 389.6294,27.9686 384.9601,9.4176 390.8914,1.8458 Z"
   id="path82"
   inkscape:connector-curvature="0"
   style="fill:#ffc47f;stroke:#ffc47f;stroke-width:0.3944" />
	<path
   d="m 114.0986,24.3089 c -3.7439,-20.7384 26.7118,-28.8151 37.6068,-13.5873 4.9217,5.7209 3.2391,13.419 3.197,20.2757 -6.6043,-2.8184 -8.918,-9.7172 -12.0729,-15.5223 -11.1474,-5.4264 -20.486,2.0192 -28.7309,8.8339 z"
   id="path84"
   inkscape:connector-curvature="0"
   style="fill:#ed6764;stroke:#ed6764;stroke-width:0.3944" />
	<path
   d="m 319.5058,7.8191 c 2.9026,-0.7993 8.7076,-2.4398 11.6101,-3.2391 3.2811,7.8242 10.4744,21.7901 -0.1262,26.88 C 320.3471,28.9361 320.3892,16.5267 319.5058,7.8191 Z"
   id="path86"
   inkscape:connector-curvature="0"
   style="fill:#ffbb81;stroke:#ffbb81;stroke-width:0.3944" />
	<path
   d="m -121.638,40.5884 c -4.9217,-10.4744 -3.6177,-29.5723 12.1149,-25.0292 0.4627,8.8338 -0.2103,17.7097 -3.1549,26.1228 -2.2295,-0.2523 -6.6885,-0.7992 -8.96,-1.0936 z"
   id="path88"
   inkscape:connector-curvature="0"
   style="fill:#e1a26c;stroke:#e1a26c;stroke-width:0.3944" />
	<path
   d="m 128.8637,42.5234 c -2.7764,-8.96 -6.2678,-21.2432 3.7859,-27.1745 12.7039,2.8605 9.2545,17.1208 6.9829,26.249 -2.6922,0.2524 -8.0766,0.7151 -10.7688,0.9255 z"
   id="path90"
   inkscape:connector-curvature="0"
   style="fill:#ffc07c;stroke:#ffc07c;stroke-width:0.3944" />
	<path
   d="m 169.9199,43.8274 c -0.9675,-13.1666 14.8071,-21.6218 26.5856,-21.3273 17.247,-1.304 30.708,17.3732 25.0291,33.4844 -2.1033,-1.4723 -6.3099,-4.3748 -8.3711,-5.8051 -3.828,-5.763 -5.2582,-14.6389 -13.1245,-16.1953 -11.0633,-2.9868 -20.6123,5.6367 -30.1191,9.8433 z"
   id="path92"
   inkscape:connector-curvature="0"
   style="fill:#f97577;stroke:#f97577;stroke-width:0.3944" />
	<path
   d="m 447.3857,21.4484 4.4169,1.8509 c 3.1549,16.2374 3.0708,32.8954 5.7209,49.2169 -4.8376,10.9792 -3.7018,22.9679 -1.7668,34.4519 -0.2104,26.7118 -0.7993,54.0545 -7.7401,79.9249 0.2524,-6.0154 0.5048,-11.9887 0.7151,-18.0041 2.9446,-33.6105 0.9255,-67.3894 1.5985,-101.0841 0.4208,-15.4801 -0.5047,-31.0444 -2.9445,-46.3564 z"
   id="path94"
   inkscape:connector-curvature="0"
   style="fill:#883415;stroke:#883415;stroke-width:0.3944" />
	<path
   d="m -212.1636,53.7549 c -12.2411,-8.8759 -1.7247,-31.1287 13.1245,-28.0579 1.4303,10.9792 -3.197,22.5473 -13.1245,28.0579 z"
   id="path96"
   inkscape:connector-curvature="0"
   style="fill:#dda071;stroke:#dda071;stroke-width:0.3944" />
	<path
   d="m 291.8685,50.6 c -12.8721,1.304 -27.1324,-20.2336 -12.157,-27.0483 11.6102,3.6177 12.9563,16.7842 12.157,27.0483 z"
   id="path98"
   inkscape:connector-curvature="0"
   style="fill:#ffc17d;stroke:#ffc17d;stroke-width:0.3944" />
	<path
   d="m 184.1802,63.7666 c 0.7151,-8.3711 -4.2907,-22.1266 7.7401,-23.5568 7.7401,2.6081 5.5527,11.7784 5.9313,18.0883 -0.9254,2.2716 -2.7343,6.8146 -3.6597,9.0862 -3.3654,-1.1779 -6.6885,-2.3557 -10.0117,-3.6177 z"
   id="path100"
   inkscape:connector-curvature="0"
   style="fill:#ffc984;stroke:#ffc984;stroke-width:0.3944" />
	<path
   d="m 420.4637,40.2939 c 14.1341,-0.5469 12.7039,18.9296 8.1608,27.7634 -11.2737,-2.6922 -18.467,-20.444 -8.1608,-27.7634 z"
   id="path102"
   inkscape:connector-curvature="0"
   style="fill:#ffc17c;stroke:#ffc17c;stroke-width:0.3944" />
	<path
   d="m -168.1628,59.4338 c -2.0191,-8.329 7.698,-20.0654 15.7326,-13.0825 3.2811,10.1379 1.0937,21.0329 -4.1224,30.035 -6.7726,-3.239 -13.2508,-8.5814 -11.6102,-16.9525 z"
   id="path104"
   inkscape:connector-curvature="0"
   style="fill:#d8a365;stroke:#d8a365;stroke-width:0.3944" />
	<path
   d="m -13.9497,64.7341 c -15.7747,9.9696 -17.8779,-14.3444 -9.3386,-22.5473 2.566,0.673 7.7401,2.0612 10.3061,2.7343 -0.3365,6.6044 -0.7151,13.2087 -0.9675,19.813 z"
   id="path106"
   inkscape:connector-curvature="0"
   style="fill:#ffc085;stroke:#ffc085;stroke-width:0.3944" />
	<path
   d="m -234.7109,110.081 c 0.3365,-21.2432 -1.2199,-42.9912 4.9217,-63.6035 3.0708,23.9775 -1.935,47.9129 0.0421,71.9325 0.7572,10.3902 0.2524,20.8646 -0.5889,31.2549 l -1.8509,-5.4686 c -3.4073,-10.9791 -1.8509,-22.7575 -2.524,-34.1153 z"
   id="path108"
   inkscape:connector-curvature="0"
   style="fill:#90393b;stroke:#90393b;stroke-width:0.3944" />
	<path
   d="m 83.8533,57.1623 c 11.9046,-2.5239 26.4594,-1.8088 34.9567,8.0766 8.329,8.7918 8.7917,22.0425 5.1741,33.0637 C 116.3702,94.2643 115.4448,85.2622 112.3319,78.1952 107.9571,71.002 99.9225,64.3135 90.9625,67.6367 82.2549,69.4035 78.0483,77.8166 72.6218,83.8741 71.0233,85.3464 67.8684,88.2069 66.2699,89.6792 64.2506,76.4284 70.855,61.9578 83.8533,57.1623 Z"
   id="path110"
   inkscape:connector-curvature="0"
   style="fill:#f37673;stroke:#f37673;stroke-width:0.3944" />
	<path
   d="M 40.5255,92.5816 C 26.3073,87.071 24.9191,56.1527 44.3115,60.191 c 7.6139,9.0021 2.5239,23.5989 -3.786,32.3906 z"
   id="path112"
   inkscape:connector-curvature="0"
   style="fill:#ffc87f;stroke:#ffc87f;stroke-width:0.3944" />
	<path
   d="m 224.8157,86.398 c 10.6006,-24.3982 49.5535,-28.6468 65.875,-7.656 10.0958,10.7688 14.8492,29.7825 2.9867,41.0983 -11.6943,10.6426 -7.6981,28.0579 0.5469,39.5418 14.05,2.9026 24.8188,-5.763 36.1765,-12.2832 l 3.9962,1.8088 c -0.0841,2.2295 -0.2103,6.6885 -0.2944,8.96 -8.8759,23.6409 15.8167,42.4865 12.7459,66.0012 0,17.4994 -14.0921,29.6984 -27.0904,39.1212 -13.2086,8.6234 -17.7517,25.6601 -16.1112,40.6355 2.3978,14.3445 24.1037,14.8492 31.4652,4.5431 5.1741,-12.5356 4.3748,-27.9737 15.4802,-37.5227 2.1454,1.8929 6.4781,5.6789 8.6235,7.5718 -0.4207,9.0021 0.7571,18.4669 -2.2716,27.1324 -6.394,9.7593 -15.312,17.4994 -22.9679,26.2491 -14.3445,6.3519 -30.1191,-8.918 -43.0754,-0.7572 -8.5814,14.6389 -2.6501,33.232 -5.2582,49.4273 -5.2161,8.918 -11.4419,19.2241 -22.4211,21.3694 -8.7917,0.7151 -22.4631,4.0804 -24.8609,-7.5718 5.6368,-0.0421 11.2736,-0.0421 16.9525,0.0421 6.8146,-7.6139 14.723,-14.8913 18.4669,-24.6085 4.5851,-15.354 -8.1187,-31.8017 -23.0521,-34.3677 -19.3923,-1.6826 -16.7001,31.7176 -36.3028,25.6602 -7.6139,-7.656 2.4398,-15.7326 4.3328,-23.6831 2.1033,-10.3061 0.3365,-23.7671 -10.222,-28.773 -6.9829,-4.7534 -15.2699,-0.1262 -22.0004,2.7343 -8.5393,4.5431 -18.8875,10.9792 -19.182,21.8742 -1.2199,16.7422 15.2699,26.4173 20.486,41.0562 -21.117,4.1645 -36.6393,-13.0825 -47.4502,-28.6469 -2.1033,-20.0233 15.9009,-35.0829 15.0175,-54.4331 -4.7113,-21.5377 -37.733,-17.6255 -45.5152,-0.5048 -0.631,12.9142 6.2678,24.7767 9.2124,37.1441 l 1.2199,4.2907 c -5.3003,-0.5889 -12.3253,1.3882 -15.6064,-4.2486 -10.853,-12.2411 -14.05,-29.1096 -12.4515,-44.9683 5.5106,-10.6848 14.1341,-19.2661 20.0654,-29.6564 -0.1683,-6.2678 -1.1358,-12.4515 -1.8509,-18.6772 -0.2524,-2.4398 -0.7572,-7.3195 -1.0096,-9.8013 6.4361,0.8413 12.8721,2.3136 19.3923,1.7668 15.7747,-8.7497 23.5568,-31.297 14.5548,-47.2819 -8.6655,-10.1379 -26.6276,-11.8626 -36.0083,-1.7668 -7.7401,7.4456 -7.5718,19.0137 -9.8855,28.815 -2.2295,-0.5048 -6.6884,-1.5564 -8.9179,-2.0612 -5.8051,-18.9296 6.0575,-36.3449 22.5893,-44.7159 17.92,-3.786 33.5264,8.4132 50.9417,8.5814 21.5798,-5.8471 22.1687,-49.89 -4.0804,-48.9646 -11.2736,-1.0937 -14.8492,11.7364 -20.5281,18.8455 -2.6922,8.7076 -15.3961,5.5527 -16.1953,-2.4819 -9.1703,-28.2682 23.0941,-53.5077 49.4273,-50.7313 13.419,2.7764 20.4019,16.0271 31.339,22.9679 7.4036,2.4398 16.1533,-0.7572 22.7997,3.828 9.8855,9.4227 18.2986,25.9546 34.536,22.8838 21.117,-1.5144 26.5435,-32.0121 12.199,-44.9263 -11.9884,-14.092 -31.5911,-3.4073 -46.8189,-2.8604 m -27.1745,46.3144 c -10.6426,9.5069 -11.2736,27.3428 -5.0058,39.3736 12.1991,13.3348 33.8209,0.7572 34.1153,-15.6485 4.5431,-16.1953 -13.8396,-34.9567 -29.1095,-23.7251 m 46.1883,38.5322 c -15.1016,6.352 -13.5873,26.0808 -12.8721,39.5419 0.7993,14.05 18.9717,25.7442 30.4977,14.9334 10.8109,-14.9755 11.7364,-36.9337 2.1033,-52.6664 -5.2584,-4.4169 -13.5453,-3.6597 -19.7289,-1.8089 m 54.8116,7.9926 c -13.3769,3.9542 -15.1857,20.2757 -15.4802,32.0541 0.7993,13.0825 14.1761,22.2528 26.5435,17.1208 10.222,-11.5681 12.788,-29.6984 4.8376,-43.1595 -3.1549,-5.5527 -9.9696,-7.5718 -15.9009,-6.0154 m -131.5817,82.0282 -0.2945,-3.786 c 2.0191,0.7993 6.0575,2.3557 8.1187,3.1129 8.96,5.3003 17.0366,-5.3424 20.0654,-12.7459 7.5719,-13.7976 -3.2811,-36.1345 -20.1916,-34.0312 -21.9583,2.2295 -26.7117,37.3544 -7.698,47.4502 m 39.4577,8.3711 c -1.8929,11.5681 2.1033,22.7576 9.1703,31.8438 7.9925,0.042 18.5931,3.2811 23.7251,-5.09 6.5202,-12.4514 4.8376,-29.4039 -4.459,-40.0466 -9.7592,-11.0212 -28.3943,0.3786 -28.4364,13.2928 m 58.219,-14.8071 c -18.5931,9.7172 -19.3503,51.4464 7.4036,49.6797 16.7001,-3.4073 17.92,-25.1133 14.6809,-38.5323 -1.7667,-10.0958 -12.9562,-14.9754 -22.0845,-11.1474 z"
   id="path114"
   inkscape:connector-curvature="0"
   style="fill:#e58285;stroke:#e58285;stroke-width:1.65890002" />
	<path
   d="m 305.2455,79.9199 c 1.262,-16.5739 25.0712,-20.3178 35.5456,-9.6331 8.1187,5.8051 7.9504,16.6581 7.2353,25.576 -3.6176,-5.763 -6.8146,-11.8205 -11.1053,-17.0787 -7.2353,-4.8375 -16.3636,-0.9675 -24.272,-0.2103 -1.851,0.3365 -5.5527,1.0095 -7.4036,1.3461 z"
   id="path116"
   inkscape:connector-curvature="0"
   style="fill:#ee5a5c;stroke:#ee5a5c;stroke-width:0.3944" />
	<path
   d="m 365.5678,64.692 c 16.9105,-5.8892 17.2049,20.486 4.6693,24.9029 -2.3977,-8.1186 -4.0804,-16.4476 -4.6693,-24.9029 z"
   id="path118"
   inkscape:connector-curvature="0"
   style="fill:#ffbd83;stroke:#ffbd83;stroke-width:0.3944" />
	<path
   d="m 72.6217,83.874 c 5.4265,-6.0575 9.6331,-14.4706 18.3407,-16.2374 8.96,-3.3232 16.9946,3.3652 21.3694,10.5585 -8.0346,3.4494 -9.6331,12.2832 -12.6618,19.4765 -0.0841,-8.2028 3.2811,-22.4211 -8.7076,-23.1783 -6.4361,4.2486 -7.1091,12.1149 -7.8242,19.0558 -3.4915,-3.239 -7.025,-6.436 -10.5165,-9.6751 z"
   id="path120"
   inkscape:connector-curvature="0"
   style="fill:#ab2c16;stroke:#ab2c16;stroke-width:0.3944" />
	<path
   d="m -77.3428,107.2626 c -12.5356,-6.3099 -9.7593,-30.2032 6.1837,-29.0675 0.631,9.6752 5.9733,24.5244 -6.1837,29.0675 z"
   id="path122"
   inkscape:connector-curvature="0"
   style="fill:#ffc47d;stroke:#ffc47d;stroke-width:0.3944" />
	<path
   d="m 83.1382,93.5492 c 0.7151,-6.9409 1.3882,-14.8071 7.8242,-19.0558 11.9887,0.7572 8.6235,14.9754 8.7076,23.1783 -1.3461,2.2295 -4.1224,6.6043 -5.4685,8.7917 -5.8472,-2.2295 -10.853,-6.0996 -11.0633,-12.9142 z"
   id="path124"
   inkscape:connector-curvature="0"
   style="fill:#ffc878;stroke:#ffc878;stroke-width:0.3944" />
	<path
   d="m 312.649,78.5738 c 7.9084,-0.7572 17.0367,-4.6272 24.272,0.2103 4.2907,5.2582 7.4877,11.3157 11.1053,17.0787 -3.2391,3.4494 -6.6884,6.7305 -10.4744,9.5489 1.0096,-9.3386 -3.2811,-16.2795 -12.2832,-19.0979 -4.2906,-2.4398 -8.4972,-5.0058 -12.6197,-7.74 z"
   id="path126"
   inkscape:connector-curvature="0"
   style="fill:#ad1f13;stroke:#ad1f13;stroke-width:0.3944" />
	<path
   d="m 325.2688,86.3138 c 9.0021,2.8184 13.2928,9.7593 12.2832,19.0979 -2.1874,3.828 -3.9541,9.591 -9.4648,7.1091 -8.4552,-6.2257 -4.501,-17.7517 -2.8184,-26.207 z"
   id="path128"
   inkscape:connector-curvature="0"
   style="fill:#ffc084;stroke:#ffc084;stroke-width:0.3944" />
	<path
   d="m 243.8715,121.8594 c -3.197,-10.5164 -3.7859,-29.3198 12.0729,-25.7022 1.7247,10.4323 4.3748,29.0254 -12.0729,25.7022 z"
   id="path130"
   inkscape:connector-curvature="0"
   style="fill:#ffc282;stroke:#ffc282;stroke-width:0.3944" />
	<path
   d="m -202.6147,130.3567 c -3.6597,-9.5069 -4.6272,-24.6085 7.6139,-27.6793 10.0958,5.0058 4.1225,19.0137 2.7763,27.5952 -2.5659,0.0421 -7.7821,0.0421 -10.3902,0.0841 z"
   id="path132"
   inkscape:connector-curvature="0"
   style="fill:#e0a169;stroke:#e0a169;stroke-width:0.3944" />
	<path
   d="m 403.8056,102.8457 c 18.4669,-4.4169 19.0137,25.8705 6.4781,31.339 -9.5489,-6.6464 -6.2678,-21.2011 -6.4781,-31.339 z"
   id="path134"
   inkscape:connector-curvature="0"
   style="fill:#ffc382;stroke:#ffc382;stroke-width:0.3944" />
	<path
   d="m 455.7568,106.9682 3.4073,-4.459 c 1.8929,32.1803 -7.8663,63.7297 -4.7534,95.91 1.7247,9.8434 -5.0479,17.5414 -10.264,24.945 -1.9351,-12.4094 -3.4915,-25.3656 3.8701,-36.471 6.9408,-25.8705 7.5297,-53.2133 7.74,-79.925 z"
   id="path136"
   inkscape:connector-curvature="0"
   style="fill:#fdc79b;stroke:#fdc79b;stroke-width:0.3944" />
	<path
   d="m -134.6364,124.6358 c 4.5852,-0.4627 9.2124,-0.8834 13.7976,-1.3461 3.7018,10.0958 0.7992,20.1495 -3.197,29.6143 -15.8167,-0.2103 -11.3578,-17.878 -10.6006,-28.2682 z"
   id="path138"
   inkscape:connector-curvature="0"
   style="fill:#daa26a;stroke:#daa26a;stroke-width:0.3944" />
	<path
   d="m 0.8996,129.0947 c 3.828,0.1262 7.656,0.2103 11.4839,0.3365 1.0937,8.8338 0.7572,17.7938 -1.8509,26.3752 -2.8184,-0.1682 -8.4132,-0.5048 -11.2316,-0.673 -3.2811,-8.6655 -2.0612,-17.6675 1.5986,-26.0387 z"
   id="path140"
   inkscape:connector-curvature="0"
   style="fill:#ffc486;stroke:#ffc486;stroke-width:0.3944" />
	<path
   d="m 37.5809,188.6178 c -16.2374,-18.9716 -6.0995,-53.5918 19.3923,-57.8825 9.6751,-3.2812 23.4306,4.0804 15.6906,15.1857 l -4.3748,0.2944 c -9.9696,0.2103 -21.7901,1.8089 -26.0808,12.3674 -6.9409,11.6522 2.5239,23.7671 8.96,33.1479 -4.6273,1.7247 -10.9371,2.0612 -13.5873,-3.1129 z"
   id="path142"
   inkscape:connector-curvature="0"
   style="fill:#f47679;stroke:#f47679;stroke-width:0.3944" />
	<path
   d="m 157.8891,164.0094 c -12.6197,-7.2774 -13.7555,-26.4173 0.1683,-32.7272 8.7917,9.3386 7.6559,23.1361 -0.1683,32.7272 z"
   id="path144"
   inkscape:connector-curvature="0"
   style="fill:#ffc17b;stroke:#ffc17b;stroke-width:0.3944" />
	<path
   d="m 301.9222,131.5346 c 11.8626,-0.7151 9.9696,19.6447 3.5756,25.4498 -14.2602,2.6921 -14.765,-21.7901 -3.5756,-25.4498 z"
   id="path146"
   inkscape:connector-curvature="0"
   style="fill:#fcac7a;stroke:#fcac7a;stroke-width:0.3944" />
	<path
   d="m 198.9032,144.7012 c 16.0691,-2.9446 15.2699,20.3177 5.5527,27.1324 -6.7305,-2.2295 -7.4457,-9.9696 -10.3903,-15.2698 1.2199,-2.9868 3.6177,-8.876 4.8376,-11.8626 z"
   id="path148"
   inkscape:connector-curvature="0"
   style="fill:#ffc67e;stroke:#ffc67e;stroke-width:0.3944" />
	<path
   d="m -239.6431,166.0811 c -1.5985,-11.2316 -1.7563,-16.3741 7.4561,-21.8847 l 1.8509,5.4686 c 2.0191,10.0116 3.0708,20.1074 4.0383,30.2453 -7.3614,-1.7248 -8.5918,-7.0987 -13.3453,-13.8292 z"
   id="path150"
   inkscape:connector-curvature="0"
   style="fill:#eed298;stroke:#eed298;stroke-width:0.3944" />
	<path
   d="m -167.1532,154.5866 c 4.0804,-0.2103 8.1187,-0.3786 12.1991,-0.5889 1.0937,9.4648 0.7993,19.0558 -2.7343,28.0158 -15.7326,0.2945 -11.7784,-17.2049 -9.4648,-27.4269 z"
   id="path152"
   inkscape:connector-curvature="0"
   style="fill:#dfa269;stroke:#dfa269;stroke-width:0.3944" />
	<path
   d="m -48.4436,163.7569 c 6.1837,-5.0479 11.4419,3.4915 10.222,9.2966 1.7668,8.7076 -2.8605,17.0787 -11.1054,20.1916 -4.3748,-8.8339 -9.591,-22.7156 0.8834,-29.4882 z"
   id="path154"
   inkscape:connector-curvature="0"
   style="fill:#ffc17e;stroke:#ffc17e;stroke-width:0.3944" />
	<path
   d="m 58.5297,188.9964 c -5.1741,-10.5585 -3.5335,-31.2128 12.788,-25.7863 0.4627,8.7917 0.0421,17.6256 -3.1549,25.9546 -2.3978,-0.0421 -7.2354,-0.1262 -9.6331,-0.1683 z"
   id="path156"
   inkscape:connector-curvature="0"
   style="fill:#ffc482;stroke:#ffc482;stroke-width:0.3944" />
	<path
   d="m 347.2692,194.0443 c -13.8817,-9.0862 -5.9734,-34.7043 11.8205,-28.8151 -0.8834,6.7726 -1.0938,13.6714 -2.6922,20.3178 -2.2716,2.1454 -6.8568,6.3519 -9.1283,8.4973 z"
   id="path158"
   inkscape:connector-curvature="0"
   style="fill:#ffc180;stroke:#ffc180;stroke-width:0.3944" />
	<path
   d="m 416.9301,171.1184 c 2.1033,-0.0841 6.2678,-0.2944 8.329,-0.3786 6.3519,9.5069 6.3519,29.9929 -8.2449,30.9184 -1.2619,-10.1378 -2.1453,-20.4439 -0.0841,-30.5398 z"
   id="path160"
   inkscape:connector-curvature="0"
   style="fill:#ffc483;stroke:#ffc483;stroke-width:0.3944" />
	<path
   d="m 382.4782,176.8815 c 4.6693,-2.3978 9.5069,-3.0287 14.5127,-1.893 4.3328,8.2029 0.7151,17.4994 -0.4207,26.0387 -2.3136,0.2945 -6.9829,0.8834 -9.2965,1.1778 -1.4723,-7.6139 -3.0708,-15.1857 -4.8375,-22.7155 z"
   id="path162"
   inkscape:connector-curvature="0"
   style="fill:#ffc17b;stroke:#ffc17b;stroke-width:0.3944" />
	<path
   d="m 113.2152,194.1284 c 0.5468,-7.5719 9.0862,-7.067 14.5548,-8.2449 -0.7993,9.1703 3.1549,21.2853 -3.9962,28.4364 -12.115,3.8701 -11.7785,-12.7458 -10.5586,-20.1915 z"
   id="path164"
   inkscape:connector-curvature="0"
   style="fill:#ffc982;stroke:#ffc982;stroke-width:0.3944" />
	<path
   d="m 251.4433,223.1959 c -15.3119,-2.9446 -20.9487,-29.9508 -5.0058,-35.9662 15.312,5.2161 10.7689,24.945 5.0058,35.9662 z"
   id="path166"
   inkscape:connector-curvature="0"
   style="fill:#ffca78;stroke:#ffca78;stroke-width:0.3944" />
	<path
   d="m 8.1349,247.5099 c -27.7213,3.828 -33.4423,-44.4635 -7.8663,-50.7313 0.0421,9.0441 -0.9255,18.0041 -1.8088,27.0062 0.5468,8.7917 4.3327,16.8684 9.6751,23.7251 z"
   id="path168"
   inkscape:connector-curvature="0"
   style="fill:#ea7777;stroke:#ea7777;stroke-width:0.3944" />
	<path
   d="m 294.1401,203.8877 c 1.893,-6.5622 9.2545,-3.9121 14.2603,-4.5851 1.3882,9.6751 0.8833,20.3598 -6.8146,27.4689 -13.7555,2.9866 -11.1895,-15.2278 -7.4457,-22.8838 z"
   id="path170"
   inkscape:connector-curvature="0"
   style="fill:#ffc57d;stroke:#ffc57d;stroke-width:0.3944" />
	<path
   d="m -206.6951,203.9719 c 5.5106,-2.2716 11.6102,0.3365 10.8109,7.025 -0.1683,6.6464 2.9446,19.8971 -6.8988,20.3178 -9.633,-3.8281 -10.5164,-20.402 -3.9121,-27.3428 z"
   id="path172"
   inkscape:connector-curvature="0"
   style="fill:#d8a165;stroke:#d8a165;stroke-width:0.3944" />
	<path
   d="m -103.4656,213.3946 c 4.9217,0.0421 9.8434,0.0842 14.7651,0.1683 -0.0841,10.5585 0.1262,22.0424 -9.5489,28.8571 -2.5239,-4.2487 -5.0479,-8.4132 -7.4877,-12.6618 0.715,-5.4686 1.4722,-10.9371 2.2715,-16.3636 z"
   id="path174"
   inkscape:connector-curvature="0"
   style="fill:#ffc17a;stroke:#ffc17a;stroke-width:0.3944" />
	<path
   d="m 9.6913,222.5649 c 4.2907,-0.2103 11.9467,-5.3844 14.2182,0.9255 4.1225,9.8854 0.0421,21.748 -9.633,26.6276 -2.4398,-9.0021 -3.9121,-18.2566 -4.5852,-27.5531 z"
   id="path176"
   inkscape:connector-curvature="0"
   style="fill:#ffc480;stroke:#ffc480;stroke-width:0.3944" />
	<path
   d="m 420.5898,218.3584 c 4.9638,0.7992 9.8855,1.6406 14.8492,2.4819 -0.7571,10.6847 -3.8701,24.8188 -17.6676,23.5989 0,-5.9733 0.0841,-11.9467 0.1682,-17.9201 0.6731,-2.0612 1.9772,-6.1416 2.6502,-8.1607 z"
   id="path178"
   inkscape:connector-curvature="0"
   style="fill:#ffbc80;stroke:#ffbc80;stroke-width:0.3944" />
	<path
   d="m -1.5402,223.7848 c 2.1033,2.3557 4.2066,4.7955 6.3519,7.1933 1.2199,-2.1033 3.6597,-6.3099 4.8796,-8.4132 0.6731,9.2965 2.1454,18.551 4.5852,27.553 -1.5144,-0.631 -4.5852,-1.935 -6.1416,-2.6081 -5.3424,-6.8566 -9.1283,-14.9333 -9.6751,-23.725 z"
   id="path180"
   inkscape:connector-curvature="0"
   style="fill:#b54024;stroke:#b54024;stroke-width:0.3944" />
	<path
   d="m 359.0056,260.5924 c -10.0537,-10.7268 -6.6884,-29.9508 8.9179,-32.7272 3.1129,9.0441 3.2811,18.6772 -1.3461,27.2586 -1.893,1.3882 -5.6789,4.1225 -7.5718,5.4686 z"
   id="path182"
   inkscape:connector-curvature="0"
   style="fill:#ffcb7f;stroke:#ffcb7f;stroke-width:0.3944" />
	<path
   d="m 167.0173,232.198 c 4.9217,0.7151 9.8013,1.3882 14.723,2.1453 -1.0517,9.0442 -3.7859,17.7097 -6.8567,26.2491 -2.0612,-0.7572 -6.0995,-2.3136 -8.1187,-3.1129 -0.9675,-8.4132 -0.2944,-16.8684 0.2524,-25.2815 z"
   id="path184"
   inkscape:connector-curvature="0"
   style="fill:#ffc081;stroke:#ffc081;stroke-width:0.3944" />
	<path
   d="m 49.3173,257.143 c 0.1262,-10.8109 8.2028,-19.5606 17.4994,-23.9775 0.1683,1.3882 0.5048,4.0804 0.673,5.4686 -4.2486,13.9238 -4.1224,28.3524 3.9542,40.93 -12.9142,2.9866 -23.8092,-10.18 -22.1266,-22.4211 z"
   id="path186"
   inkscape:connector-curvature="0"
   style="fill:#ec7879;stroke:#ec7879;stroke-width:0.3944" />
	<path
   d="m -168.1628,268.4586 c -6.0575,-9.7592 -7.7401,-23.7671 2.6501,-31.339 9.8434,7.0671 7.4877,19.4765 5.5947,29.6564 -2.0611,0.4207 -6.1836,1.262 -8.2448,1.6826 z"
   id="path188"
   inkscape:connector-curvature="0"
   style="fill:#dfa36c;stroke:#dfa36c;stroke-width:0.3944" />
	<path
   d="m -130.2615,246.0376 c 3.7859,0.7572 7.5719,1.4723 11.3998,2.2295 0,10.5585 3.6176,24.314 -9.1283,29.1095 -6.6884,-9.4227 -9.4227,-21.3273 -2.2715,-31.339 z"
   id="path190"
   inkscape:connector-curvature="0"
   style="fill:#daa060;stroke:#daa060;stroke-width:0.3944" />
	<path
   d="M 87.0082,274.8947 C 67.4476,276.9139 63.872,239.5595 86.0407,244.9018 l 1.7247,3.3653 c 0.3786,8.8759 -0.0841,17.7518 -0.7572,26.6276 z"
   id="path192"
   inkscape:connector-curvature="0"
   style="fill:#ffc57a;stroke:#ffc57a;stroke-width:0.3944" />
	<path
   d="m -41.0821,251.7585 c 4.1645,-1.5985 8.4973,-2.4819 13.0825,-2.6081 0.5048,8.9179 3.1549,31.0866 -11.9046,25.6601 -3.2391,-7.109 -4.417,-15.7325 -1.1779,-23.052 z"
   id="path194"
   inkscape:connector-curvature="0"
   style="fill:#ffc681;stroke:#ffc681;stroke-width:0.3944" />
	<path
   d="m 390.7652,278.3021 c 1.4723,-9.2124 -3.1129,-22.2528 7.2773,-27.3428 12.4515,0.9254 9.1704,12.5776 8.0346,20.9067 -5.0478,2.3136 -10.0958,4.6272 -15.3119,6.4361 z"
   id="path196"
   inkscape:connector-curvature="0"
   style="fill:#ffc47d;stroke:#ffc47d;stroke-width:0.3944" />
	<path
   d="m -202.3202,260.1717 c 7.9504,9.4228 14.3024,20.1916 14.3865,32.9796 -16.9525,-1.0096 -21.2012,-20.1074 -14.3865,-32.9796 z"
   id="path198"
   inkscape:connector-curvature="0"
   style="fill:#d8ac7c;stroke:#d8ac7c;stroke-width:0.3944" />
	<path
   d="m 262.086,268.5848 c 3.7438,0 7.4877,-0.0421 11.2315,-0.0421 1.9771,10.0958 0.673,26.838 -12.9563,26.207 -2.5239,-8.8337 -1.1777,-17.6675 1.7248,-26.1649 z"
   id="path200"
   inkscape:connector-curvature="0"
   style="fill:#ffc67e;stroke:#ffc67e;stroke-width:0.3944" />
	<path
   d="m 422.5669,269.4683 c 4.7535,-0.3365 9.549,-0.6731 14.3865,-1.0096 -0.9254,17.7939 -5.3844,37.06 -15.3961,51.9933 2.0192,-7.4877 4.0804,-14.9754 6.1837,-22.4211 -1.8509,-1.8929 -5.5948,-5.6788 -7.4456,-7.5298 0.7572,-7.0249 1.4723,-14.0499 2.2715,-21.0328 z"
   id="path202"
   inkscape:connector-curvature="0"
   style="fill:#ffc980;stroke:#ffc980;stroke-width:0.3944" />
	<path
   d="m 218.632,271.9081 c 17.3311,-6.7306 12.4094,20.5702 3.0708,26.5435 -11.9467,-1.1779 -10.9371,-21.2853 -3.0708,-26.5435 z"
   id="path204"
   inkscape:connector-curvature="0"
   style="fill:#ffca81;stroke:#ffca81;stroke-width:0.3944" />
	<path
   d="m 317.6969,312.9222 c -14.5127,-4.4169 -8.6656,-30.077 6.6043,-28.9413 1.8089,9.8855 3.113,22.5894 -6.6043,28.9413 z"
   id="path206"
   inkscape:connector-curvature="0"
   style="fill:#ffc482;stroke:#ffc482;stroke-width:0.3944" />
	<path
   d="m -11.1733,324.5323 c -5.0479,-14.5968 1.5564,-29.6564 9.5069,-41.8134 6.4781,6.9409 0.5889,16.8684 1.1778,25.1133 -2.1874,10.1379 5.5527,18.0463 9.9696,26.2911 -7.5719,-1.0937 -16.1953,-2.5239 -20.6543,-9.591 z"
   id="path208"
   inkscape:connector-curvature="0"
   style="fill:#f06a69;stroke:#f06a69;stroke-width:0.3944" />
	<path
   d="m -80.4136,303.6678 c 3.9542,-4.1225 8.7076,-7.2774 14.092,-9.2124 1.3882,10.2641 4.7534,23.3044 -7.4456,28.4785 -1.8088,-6.5623 -4.1645,-12.9563 -6.6464,-19.2661 z"
   id="path210"
   inkscape:connector-curvature="0"
   style="fill:#ffbd83;stroke:#ffbd83;stroke-width:0.3944" />
	<path
   d="m 122.5117,297.4841 c 5.09,-0.8413 10.1799,-1.6406 15.3119,-2.3978 2.3136,10.222 1.3461,20.7385 -4.7113,29.5722 -11.3157,-5.0057 -10.7268,-16.7842 -10.6006,-27.1744 z"
   id="path212"
   inkscape:connector-curvature="0"
   style="fill:#ffc87d;stroke:#ffc87d;stroke-width:0.3944" />
	<path
   d="m 8.1769,305.1821 c 2.5239,-0.0421 7.5298,-0.1683 10.0117,-0.2104 -0.3786,7.2774 2.7343,15.9009 -2.524,22.0425 C 5.5268,325.1634 7.7142,312.6277 8.1769,305.1821 Z"
   id="path214"
   inkscape:connector-curvature="0"
   style="fill:#ffc07f;stroke:#ffc07f;stroke-width:0.3944" />
	<path
   d="m 61.5584,355.9555 c -19.4344,-7.9504 -20.3178,-41.6031 -0.7151,-49.7638 -0.9675,11.1475 -5.3424,23.9355 1.935,33.9471 3.5335,6.8988 11.5681,8.7497 17.878,12.115 -3.4494,7.1511 -12.9983,5.1319 -19.0979,3.7017 z"
   id="path216"
   inkscape:connector-curvature="0"
   style="fill:#f16c6a;stroke:#f16c6a;stroke-width:0.3944" />
	<path
   d="m -178.4689,311.7023 c 4.9217,1.6826 9.8855,3.2391 14.9334,4.459 2.9446,7.7821 6.4781,15.312 10.6006,22.5473 -1.4302,2.0612 -4.3748,6.1416 -5.8472,8.2028 -8.5814,-10.4744 -14.4286,-22.8418 -19.6868,-35.2091 z"
   id="path218"
   inkscape:connector-curvature="0"
   style="fill:#872c23;stroke:#872c23;stroke-width:0.3944" />
	<path
   d="m -163.5356,316.1613 c 2.3977,-0.9254 7.1932,-2.7764 9.591,-3.7018 10.0537,5.6789 8.8759,19.182 1.0096,26.2491 -4.1224,-7.2354 -7.656,-14.7652 -10.6006,-22.5473 z"
   id="path220"
   inkscape:connector-curvature="0"
   style="fill:#e29f6d;stroke:#e29f6d;stroke-width:0.3944" />
	<path
   d="m 360.6881,312.8802 c 2.566,0.0421 7.6981,0.1682 10.2641,0.2524 -0.2524,7.6559 -1.3882,15.312 -4.0383,22.5473 -2.4819,0 -7.4457,-0.0841 -9.9276,-0.1262 0.6731,-7.3195 -3.5335,-17.6678 3.7018,-22.6735 z"
   id="path222"
   inkscape:connector-curvature="0"
   style="fill:#ffc384;stroke:#ffc384;stroke-width:0.3944" />
	<path
   d="m -118.1886,322.1346 c 12.8721,-6.352 11.1474,14.05 9.5069,21.4535 -11.3158,6.983 -18.0042,-16.2794 -9.5069,-21.4535 z"
   id="path224"
   inkscape:connector-curvature="0"
   style="fill:#df9f6f;stroke:#df9f6f;stroke-width:0.3944" />
	<path
   d="m 81.4976,344.5977 c -14.8071,4.7114 -15.3119,-22.0425 -3.0287,-25.1553 4.2907,7.2353 9.3386,17.6676 3.0287,25.1553 z"
   id="path226"
   inkscape:connector-curvature="0"
   style="fill:#ffc183;stroke:#ffc183;stroke-width:0.3944" />
	<path
   d="m 177.3234,330.9684 c 4.0383,-0.7992 8.1608,-1.1357 12.3674,-0.9675 1.4302,9.2965 2.6922,18.9296 -1.5985,27.7213 -9.0442,-5.3844 -15.7747,-16.2794 -10.7689,-26.7538 z"
   id="path228"
   inkscape:connector-curvature="0"
   style="fill:#ffc67c;stroke:#ffc67c;stroke-width:0.3944" />
	<path
   d="m -26.8218,367.6497 c -13.2087,-3.9542 -13.2087,-26.6697 2.6501,-25.8704 3.3233,7.9925 8.7918,21.9163 -2.6501,25.8704 z"
   id="path230"
   inkscape:connector-curvature="0"
   style="fill:#ffbf7d;stroke:#ffbf7d;stroke-width:0.3944" />
	<path
   d="m 294.2243,365.252 c -7.1512,-10.4744 1.7668,-26.88 15.1436,-23.5989 0.2524,9.3387 -2.0612,26.3332 -15.1436,23.5989 z"
   id="path232"
   inkscape:connector-curvature="0"
   style="fill:#ffc685;stroke:#ffc685;stroke-width:0.3944" />
	<path
   d="m 374.696,372.4032 c -1.8929,-8.3711 -2.0191,-27.9737 11.2737,-23.641 6.6464,7.1512 0.3786,17.2049 -2.1033,24.8608 -2.2716,-0.2943 -6.8567,-0.8833 -9.1704,-1.2198 z"
   id="path234"
   inkscape:connector-curvature="0"
   style="fill:#ffc383;stroke:#ffc383;stroke-width:0.3944" />
	<path
   d="m 237.0989,353.095 c 3.828,-1.3882 7.8242,-2.0612 12.0308,-1.9771 0.3786,7.3615 0.4207,14.723 0.2103,22.0845 -2.7343,0.4206 -8.287,1.2199 -11.0212,1.6406 -2.4819,-6.9829 -4.3748,-14.6388 -1.2199,-21.748 z"
   id="path236"
   inkscape:connector-curvature="0"
   style="fill:#ffc283;stroke:#ffc283;stroke-width:0.3944" />
	<path
   d="m -78.1841,361.424 c 4.8376,-0.2945 9.7172,-0.5469 14.5968,-0.7993 1.0516,8.2028 1.4302,16.4898 1.1778,24.8188 -2.3557,0.3786 -7.0671,1.1778 -9.4227,1.5564 -2.4398,-3.2811 -4.8796,-6.5622 -7.2774,-9.8434 0.2945,-5.2581 0.589,-10.4742 0.9255,-15.7325 z"
   id="path238"
   inkscape:connector-curvature="0"
   style="fill:#dea267;stroke:#dea267;stroke-width:0.3944" />
	<path
   d="m 83.1802,363.4432 c 2.9025,-0.1262 8.7076,-0.4627 11.6102,-0.631 -0.5469,3.1549 -1.6826,9.4648 -2.2716,12.6197 -0.7572,7.2774 -3.1549,15.354 0.9255,22.0845 4.2486,6.8146 12.6618,8.9601 19.5606,11.9887 -8.1187,11.484 -22.9258,2.7343 -30.4977,-4.7113 -11.1474,-11.6942 -6.8567,-29.0253 0.673,-41.3506 z"
   id="path240"
   inkscape:connector-curvature="0"
   style="fill:#f27879;stroke:#f27879;stroke-width:0.3944" />
	<path
   d="m -106.4944,396.5069 c -10.5585,-3.9542 -17.2049,-21.748 -5.0058,-27.469 13.3349,0.0842 11.8626,19.9813 5.0058,27.469 z"
   id="path242"
   inkscape:connector-curvature="0"
   style="fill:#dfa567;stroke:#dfa567;stroke-width:0.3944" />
	<path
   d="m 36.4451,399.9563 c -13.2507,-4.5851 -16.8263,-29.6564 1.5144,-27.5531 3.7018,9.2966 4.6693,19.0138 -1.5144,27.5531 z"
   id="path244"
   inkscape:connector-curvature="0"
   style="fill:#ffc285;stroke:#ffc285;stroke-width:0.3944" />
	<path
   d="m 108.5459,376.4836 c 13.7555,-4.5011 12.157,14.8912 10.3061,23.0941 -11.8205,9.3386 -21.2853,-17.289 -10.3061,-23.0941 z"
   id="path246"
   inkscape:connector-curvature="0"
   style="fill:#ffc97c;stroke:#ffc97c;stroke-width:0.3944" />
	<path
   d="m 335.8694,376.736 c 2.8184,-0.1682 8.4973,-0.4627 11.3578,-0.5889 2.4819,8.3711 -0.6731,16.6581 -3.1549,24.6085 -15.7748,1.9771 -12.5357,-14.8913 -8.2029,-24.0196 z"
   id="path248"
   inkscape:connector-curvature="0"
   style="fill:#ffbc7f;stroke:#ffbc7f;stroke-width:0.3944" />
	<path
   d="m -141.7455,378.2083 c 9.0442,11.8205 16.7422,24.6084 22.9259,38.1536 -6.6043,-1.5564 -13.1245,-3.5756 -19.5606,-5.6368 -4.6273,-10.3061 -5.1321,-21.5376 -3.3653,-32.5168 z"
   id="path250"
   inkscape:connector-curvature="0"
   style="fill:#cd9e78;stroke:#cd9e78;stroke-width:0.3944" />
	<path
   d="m 132.0607,391.8376 c 16.616,-6.3519 7.9504,15.1017 10.8109,23.8934 2.9446,13.0825 22.2107,9.633 24.7347,22.1266 -18.0042,3.3653 -37.9433,-7.067 -41.561,-25.8284 1.3881,-6.8988 3.4494,-13.6714 6.0154,-20.1916 z"
   id="path252"
   inkscape:connector-curvature="0"
   style="fill:#f37478;stroke:#f37478;stroke-width:0.3944" />
	<path
   d="m 152.4205,411.3982 c 3.0287,-7.1512 7.3194,-18.3828 17.3732,-13.7135 7.5719,8.7918 0.5048,22.0425 -6.9408,28.7309 -3.5336,-4.9637 -6.983,-9.9695 -10.4324,-15.0174 z"
   id="path254"
   inkscape:connector-curvature="0"
   style="fill:#ffca85;stroke:#ffca85;stroke-width:0.3944" />
	<path
   d="m -107.6301,416.4881 c 2.6501,-1.5144 7.9504,-4.501 10.6006,-6.0154 5.4685,6.4361 9.2124,13.9658 11.3157,22.1266 -3.2811,0.1683 -9.8013,0.5048 -13.0825,0.7151 -2.9867,-5.5947 -5.9313,-11.2315 -8.8338,-16.8263 z"
   id="path256"
   inkscape:connector-curvature="0"
   style="fill:#e0a169;stroke:#e0a169;stroke-width:0.3944" />
	<path
   d="m -12.5615,416.7826 c 5.0058,-1.2199 9.9696,-2.6502 14.9334,-3.9962 -0.1262,6.8146 -0.2945,13.6293 -0.4207,20.486 -2.9446,-0.1683 -8.8338,-0.5048 -11.7784,-0.6731 -1.1358,-5.2162 -1.935,-10.5164 -2.7343,-15.8167 z"
   id="path258"
   inkscape:connector-curvature="0"
   style="fill:#ffbf8c;stroke:#ffbf8c;stroke-width:0.3944" />
	<path
   d="m 82.2127,438.9512 c -17.1208,0.8414 -13.5031,-29.9508 2.6922,-24.5664 7.1933,7.3616 -0.7571,16.616 -2.6922,24.5664 z"
   id="path260"
   inkscape:connector-curvature="0"
   style="fill:#ffc182;stroke:#ffc182;stroke-width:0.3944" />
	<path
   d="m 210.8078,415.1841 c 2.6922,0.042 8.0346,0.0841 10.6847,0.0841 -0.1262,7.2353 1.0937,14.9754 -2.7343,21.5797 -6.3099,4.7114 -10.0538,-3.8701 -14.05,-7.2353 2.0613,-4.7954 4.0805,-9.633 6.0996,-14.4285 z"
   id="path262"
   inkscape:connector-curvature="0"
   style="fill:#ffbe83;stroke:#ffbe83;stroke-width:0.3944" />
	<g
   id="g278">
		<path
   d="m 261.4553,225.7198 c 10.8107,-14.9754 11.7365,-36.9336 2.1033,-52.6664 -5.2582,-4.4169 -13.5451,-3.6597 -19.7291,-1.8088 -15.1015,6.352 -13.5872,26.0808 -12.8719,39.5419 0.799,14.0498 18.9717,25.7442 30.4977,14.9333 z m -15.0178,-38.4903 c 15.312,5.2164 10.7691,24.9452 5.0056,35.9664 -15.3115,-2.9446 -20.9487,-29.9508 -5.0056,-35.9664 z"
   id="path264"
   inkscape:connector-curvature="0"
   style="fill:#bf090d;stroke:#bf090d;stroke-width:1.65890002" />
		<path
   d="m 314.5417,185.2525 c -3.1549,-5.5527 -9.9691,-7.5718 -15.9005,-6.0154 -13.3772,3.9542 -15.1857,20.2757 -15.4804,32.0541 0.7995,13.0824 14.1767,22.2527 26.5437,17.1208 10.2218,-11.568 12.7882,-29.6984 4.8372,-43.1595 z m -12.9555,41.5189 c -13.7556,2.9868 -11.1902,-15.2278 -7.4457,-22.8838 1.8928,-6.5623 9.2543,-3.9121 14.2599,-4.585 1.3884,9.6751 0.8831,20.3597 -6.8142,27.4688 z"
   id="path266"
   inkscape:connector-curvature="0"
   style="fill:#bf090d;stroke:#bf090d;stroke-width:1.65890002" />
		<path
   d="m 174.7572,213.8151 c -21.9582,2.2296 -26.7117,37.3544 -7.6979,47.4503 l -0.2942,-3.786 c -0.9674,-8.4131 -0.2948,-16.8684 0.2521,-25.2816 4.9219,0.7153 9.8011,1.3882 14.723,2.1454 -1.0517,9.0443 -3.786,17.7098 -6.8568,26.249 8.96,5.3004 17.0368,-5.3422 20.0655,-12.7458 7.5722,-13.7977 -3.2811,-36.1346 -20.1917,-34.0313 z"
   id="path268"
   inkscape:connector-curvature="0"
   style="fill:#bf090d;stroke:#bf090d;stroke-width:0.3944" />
		<path
   d="m 206.5171,269.6365 c -1.8927,11.5681 2.1033,22.7575 9.1701,31.8438 7.9931,0.0421 18.5933,3.281 23.7257,-5.0901 6.5199,-12.4513 4.8371,-29.4039 -4.4592,-40.0464 -9.7597,-11.0215 -28.3945,0.3785 -28.4366,13.2927 z m 15.1857,28.8149 c -11.9465,-1.1777 -10.937,-21.2853 -3.0707,-26.5435 17.331,-6.7304 12.4097,20.5703 3.0707,26.5435 z"
   id="path270"
   inkscape:connector-curvature="0"
   style="fill:#bf090d;stroke:#bf090d;stroke-width:1.65890002" />
		<path
   d="m 264.7365,254.8293 c -18.5938,9.7172 -19.3507,51.4466 7.4036,49.6797 16.7,-3.4073 17.9196,-25.1131 14.6809,-38.5321 -1.7674,-10.096 -12.9566,-14.9755 -22.0845,-11.1476 z m -4.375,39.9203 c -2.5244,-8.8337 -1.1779,-17.6674 1.7243,-26.1648 3.7444,0 7.4879,-0.0421 11.2318,-0.0421 1.9774,10.0959 0.6732,26.838 -12.9561,26.2069 z"
   id="path272"
   inkscape:connector-curvature="0"
   style="fill:#bf090d;stroke:#bf090d;stroke-width:1.65890002" />
		<path
   d="m 226.751,156.4376 c 4.5429,-16.1955 -13.8398,-34.9567 -29.1097,-23.7252 -10.6428,9.5069 -11.2739,27.3428 -5.0061,39.3735 12.1992,13.3348 33.821,0.7572 34.1158,-15.6483 z m -22.2951,15.3959 c -6.7304,-2.2296 -7.4457,-9.9696 -10.3901,-15.2699 1.2201,-2.9868 3.6176,-8.8758 4.8372,-11.8626 16.0694,-2.9446 15.2704,20.3179 5.5529,27.1325 z"
   id="path274"
   inkscape:connector-curvature="0"
   style="fill:#bf090d;stroke:#bf090d;stroke-width:1.65890002" />
		<path
   d="m 450.3302,67.805 c 0.4211,-15.4802 -0.5042,-31.0446 -2.9444,-46.3566 -2.1875,-0.589 -6.4783,-1.8088 -8.6658,-2.4399 -0.7569,-5.9733 -1.4717,-11.9465 -2.1875,-17.9201 2.8607,-2.7762 5.7214,-5.5106 8.5816,-8.2868 -5.9309,-11.526 -10.5586,-23.7252 -15.9852,-35.5035 l -1.3875,-0.3787 c -12.1997,-1.4722 -24.1041,-7.9081 -24.9036,-21.4113 -8.6232,-15.6486 -21.8319,-28.7731 -37.6066,-37.1442 -3.9961,-2.2715 -8.0342,-1.977 -12.0729,0.8835 0.4206,3.3652 1.2201,10.1377 1.5985,13.5451 -14.5546,1.5146 -31.2546,-13.5872 -17.9622,-26.838 -6.6462,-5.7209 -14.2598,-10.1798 -22.463,-13.2506 -1.2195,1.6825 -3.6597,5.0058 -4.8798,6.6883 -1.0516,1.4725 -3.1549,4.375 -4.2066,5.8051 -10.4323,2.2717 -21.1592,-6.8986 -13.2082,-17.0366 -18.5517,-11.3157 -41.6036,-8.3289 -62.2997,-7.5718 -28.226,1.8088 -46.8192,31.0024 -75.7605,29.1516 -28.6049,-1.2619 -58.5136,-3.5336 -85.5201,8.1187 -21.075,6.5201 -43.7059,19.5607 -65.8325,9.7172 -6.5625,0.5469 -13.503,0.2103 -19.6449,2.9447 -20.4016,14.8071 -35.3773,34.8723 -48.0812,56.2839 -21.2008,19.897 -29.2776,48.2075 -39.163,74.5826 -9.2548,18.7193 -14.723,39.3735 -14.8909,60.3224 -0.0421,15.312 6.2257,30.3714 2.9865,45.6834 -5.0477,27.427 -7.1094,58.7239 10.4322,82.3649 0.7148,-5.4688 1.4722,-10.9373 2.2717,-16.3636 4.9214,0.0421 9.8432,0.0842 14.7651,0.1682 -0.0842,10.5585 0.1258,22.0424 -9.549,28.8573 -2.2717,3.6597 -8.2031,7.1089 -5.9314,12.1147 4.964,13.8398 10.4322,27.5951 12.9982,42.1921 3.576,2.3136 7.151,4.6692 10.7691,6.9409 3.9539,-4.1226 8.7074,-7.2776 14.0919,-9.2124 1.388,10.2641 4.7535,23.3044 -7.4457,28.4784 8.4553,35.672 36.4712,62.5518 48.6699,96.6673 4.1645,-0.9256 8.371,-1.8509 12.5355,-2.8186 5.0061,-1.2198 9.9701,-2.6502 14.9336,-3.9961 -0.1263,6.8146 -0.2942,13.6293 -0.4206,20.486 -2.9449,-0.1684 -8.8337,-0.5048 -11.7781,-0.6732 3.1549,2.482 6.352,4.9216 9.5906,7.3194 -0.2942,3.4915 -0.589,6.9831 -0.8832,10.4743 11.4839,7.9084 16.6579,20.6966 21.4956,33.19 4.8798,14.008 21.5377,17.794 28.4786,30.2453 4.2487,7.1091 7.4036,14.7651 10.8112,22.2948 4.9635,0.2945 9.8848,0.5469 14.8488,1.0098 7.0673,1.6825 12.115,6.6884 15.5225,12.8721 1.388,5.7209 2.5238,11.4839 3.7013,17.2048 4.2487,-0.1682 8.4974,-0.3366 12.7461,-0.5048 6.5204,14.05 17.6674,26.8801 33.8211,29.2778 7.2773,2.0191 11.0212,-6.394 15.9852,-9.9695 4.5008,-2.1875 9.2122,-3.8702 13.8814,-5.5527 -0.8832,7.1512 -1.8512,14.3022 -2.9444,21.4534 2.4817,0.589 7.4031,1.8088 9.8854,2.3978 17.4153,-2.8605 37.4802,-5.9312 47.1135,-22.7996 -1.5559,-8.7918 2.8607,-23.9775 14.723,-17.2889 2.5244,4.9216 4.9219,9.9274 7.3615,14.9333 11.6102,-7.3194 21.9161,-16.3636 33.0641,-24.3141 6.9825,-4.459 14.5125,-8.0344 21.7477,-12.115 3.1128,-2.3557 5.8472,-5.0898 8.2026,-8.2028 2.1875,-3.7016 4.3329,-7.4455 6.3941,-11.2315 -3.4913,-13.2506 8.5816,-20.2758 19.8549,-21.5377 26.5016,-41.5189 52.2464,-84.8887 67.5579,-131.6659 8.2026,-15.6904 13.0829,-32.8534 18.4248,-49.6375 2.0196,-7.4879 4.0807,-14.9754 6.1841,-22.4211 -1.8512,-1.893 -5.5951,-5.6788 -7.4457,-7.5297 0.7569,-7.0251 1.4717,-14.0501 2.2712,-21.0329 4.7534,-0.3366 9.549,-0.6732 14.3867,-1.0098 1.3043,-15.1857 6.0993,-29.8666 7.1931,-45.0944 -1.9349,-12.4095 -3.4913,-25.3658 3.8702,-36.4709 0.2521,-6.0154 0.5048,-11.9886 0.7153,-18.004 v -3e-4 c 2.9443,-33.6106 0.9252,-67.3893 1.5979,-101.084 z m -527.6729,39.4577 c -12.5355,-6.3099 -9.7596,-30.2032 6.1835,-29.0676 0.6311,9.6751 5.9731,24.5244 -6.1835,29.0676 z M 420.4636,40.2938 c 14.134,-0.5469 12.7039,18.9296 8.161,27.7636 -11.2738,-2.6923 -18.4669,-20.444 -8.161,-27.7636 z M 401.4503,25.2763 C 389.6296,27.9686 384.9598,9.4177 390.8917,1.8459 c 14.1336,-6.0996 17.7938,15.9007 10.5586,23.4304 z m 1.5887,176.9682 c -2.0463,1.6668 -4.2867,2.9683 -6.679,3.9044 2.3923,-0.9362 4.6322,-2.2376 6.679,-3.9044 z m -15.7654,-0.0396 c -1.4722,-7.6136 -3.0707,-15.1852 -4.8372,-22.7146 0,-3e-4 0,-5e-4 0,-8e-4 l 0.0421,-2.6081 c 4.6693,-2.3978 9.5069,-3.0289 14.5125,-1.893 4.3329,8.2029 0.7148,17.4993 -0.4211,26.0387 -2.3132,0.2946 -6.9825,0.8836 -9.2963,1.1778 z m -6.6041,-268.5057 c 7.1515,4.6692 8.0768,13.4611 8.6653,21.2432 -9.549,0.1682 -20.4018,-6.5623 -19.9391,-17.0366 0.0842,-5.9733 7.3194,-8.4552 11.2738,-4.2066 z M 370.2368,89.595 c -2.397,-8.1187 -4.0803,-16.4479 -4.6687,-24.9029 16.9105,-5.8893 17.2047,20.486 4.6687,24.9029 z m -2.3133,138.2702 c 3.1128,9.044 3.2813,18.6772 -1.3459,27.2585 -1.8927,1.3883 -5.6793,4.1226 -7.572,5.4685 -10.0538,-10.7267 -6.6884,-29.9508 8.9179,-32.727 z m -8.8337,-62.636 c -0.8832,6.7725 -1.0938,13.6714 -2.6923,20.3178 -2.2712,2.1454 -6.8568,6.352 -9.1285,8.4974 -13.8814,-9.0863 -5.973,-34.7043 11.8208,-28.8152 z M 322.9549,-70.3392 c 4.5855,1.0938 13.4193,-1.977 14.3451,4.8798 1.598,6.5622 0.6306,13.3348 0.5885,19.9812 -14.0499,0.7572 -15.5221,-14.3024 -14.9336,-24.861 z m 8.161,74.9192 c 3.2813,7.8242 10.4743,21.79 -0.1258,26.8801 -10.6428,-2.5238 -10.6007,-14.9333 -11.4844,-23.6409 2.9028,-0.7993 8.7074,-2.44 11.6102,-3.2392 z m 9.6748,65.7067 c 8.1194,5.8051 7.951,16.6581 7.2357,25.5761 -3.2391,3.4494 -6.6883,6.7304 -10.4743,9.549 -2.1875,3.8279 -3.9544,9.5909 -9.4648,7.1091 -8.4553,-6.2259 -4.5008,-17.7519 -2.8186,-26.2072 -4.2908,-2.4396 -8.4974,-5.0058 -12.6198,-7.74 -1.8506,0.3363 -5.5524,1.0095 -7.4036,1.3461 1.2622,-16.5738 25.0711,-20.3177 35.5454,-9.6331 z m -38.8687,61.2478 c 11.8628,-0.715 9.9701,19.6449 3.576,25.4498 -14.2604,2.6922 -14.7651,-21.7901 -3.576,-25.4498 z M 291.8687,50.5999 c -12.8724,1.304 -27.1322,-20.2336 -12.1571,-27.0483 11.6102,3.6177 12.9561,16.7843 12.1571,27.0483 z m -27.2585,-170.7448 c 11.6944,-3.9121 19.7286,9.3385 22.0845,18.8875 -8.4131,12.4094 -32.0125,-8.4553 -22.0845,-18.8875 z m -17.8359,65.9591 c 14.8909,-6.7728 15.8168,13.5451 13.8814,23.4725 -14.134,2.9026 -14.2603,-13.8395 -13.8814,-23.4725 z m -25.6184,43.7483 c 9.8017,3.7439 6.5204,14.8072 7.6142,22.8838 -2.8186,0.0842 -8.4131,0.2524 -11.2318,0.3366 -2.3975,-7.8242 -6.8988,-19.1399 3.6176,-23.2204 z m -26.7117,-72.1427 c 1.4722,6.8986 3.6176,13.8395 3.2392,21.0329 -16.1531,14.134 -25.0716,-28.3523 -3.2392,-21.0329 z M 196.5054,22.5 c 17.2469,-1.304 30.7077,17.3732 25.0294,33.4845 -2.1033,-1.4725 -6.3099,-4.375 -8.371,-5.8051 -3.8286,-5.763 -5.2582,-14.6391 -13.125,-16.1955 C 188.976,30.9974 179.427,39.6208 169.9201,43.8274 168.9526,30.6608 184.7273,22.2055 196.5054,22.5 Z m 1.3459,35.7978 v 3e-4 c -0.9253,2.2715 -2.7339,6.8146 -3.6592,9.0861 -3.3655,-1.1777 -6.6888,-2.3557 -10.0122,-3.6176 0.7153,-8.371 -4.2908,-22.1266 7.7405,-23.5567 7.74,2.608 5.5525,11.778 5.9309,18.0879 z M 178.532,54.7737 c -0.6244,-2.0969 -1.1194,-4.2579 -1.7978,-6.277 0.6788,2.019 1.1733,4.1801 1.7978,6.277 z M 147.4566,-63.6506 c 12.0734,-2.1454 9.7174,15.6483 7.3615,22.9678 -13.4187,12.4515 -20.3176,-19.0557 -7.3615,-22.9678 z m 4.2487,74.3723 c 4.9219,5.7209 3.2392,13.419 3.197,20.2757 -6.6041,-2.8186 -8.9179,-9.7172 -12.0729,-15.5223 -11.1475,-5.4267 -20.486,2.0191 -28.7307,8.8337 -3.7439,-20.7384 26.7117,-28.8149 37.6066,-13.5871 z m -12.0729,30.8761 c -2.6923,0.2524 -8.0768,0.7153 -10.7686,0.9256 -2.7765,-8.96 -6.2678,-21.2432 3.7855,-27.1746 12.704,2.8604 9.2548,17.1208 6.9831,26.249 z M 88.3545,-77.9531 c 3.365,-2.6502 7.9084,-2.0612 11.8202,-2.8604 1.178,8.8337 1.2622,17.7937 -1.2622,26.3753 -2.6918,-0.5048 -8.0763,-1.4725 -10.7686,-1.9772 -0.3784,-7.1512 -1.7669,-14.5128 0.2106,-21.5377 z m -6.0157,46.9874 c 12.4092,1.893 6.8988,18.0464 6.6467,26.6277 -15.943,4.6693 -18.6353,-21.2431 -6.6467,-26.6277 z m 1.5149,88.1279 c 11.9039,-2.5238 26.459,-1.8088 34.9564,8.0766 8.3289,8.7919 8.7916,22.0427 5.174,33.0639 -7.6136,-4.0384 -8.5395,-13.0406 -11.6523,-20.1076 -8.0347,3.4494 -9.6327,12.2831 -12.6618,19.4765 -1.3459,2.2296 -4.1224,6.6044 -5.4682,8.7919 -5.8472,-2.2296 -10.8533,-6.0996 -11.0638,-12.9142 -3.4908,-3.2391 -7.0247,-6.4362 -10.5164,-9.6751 -1.598,1.4722 -4.7529,4.3326 -6.3515,5.8051 C 64.2503,76.4284 70.855,61.9578 83.8537,57.1622 Z M 71.3176,163.2101 c 0.4627,8.7916 0.0421,17.6256 -3.1549,25.9545 -2.3975,-0.0421 -7.2352,-0.1261 -9.6327,-0.1682 -5.174,-10.5585 -3.5339,-31.2129 12.7876,-25.7863 z m -3.3228,-8.96 c 2.7688,1.3644 4.908,3.1164 6.542,5.1504 -1.634,-2.034 -3.7738,-3.7861 -6.542,-5.1504 z m -1.178,78.9154 c 0.1684,1.388 0.5048,4.0803 0.6727,5.4685 -4.2487,13.9238 -4.1224,28.3523 3.9545,40.9299 -12.914,2.9868 -23.8094,-10.1798 -22.1266,-22.4209 0.1262,-10.8109 8.203,-19.5606 17.4994,-23.9775 z m 11.6523,86.277 c 4.2908,7.2352 9.3385,17.6674 3.0286,25.1552 -14.8072,4.7114 -15.312,-22.0424 -3.0286,-25.1552 z m 7.5715,-74.5407 1.7248,3.3652 c 0.3784,8.8761 -0.0842,17.7519 -0.7569,26.6277 -19.5611,2.0191 -23.1361,-35.3354 -0.9679,-29.9929 z M 44.3112,60.1911 C 51.9254,69.193 46.8356,83.7899 40.5257,92.5815 26.3074,87.0709 24.9195,56.1527 44.3112,60.1911 Z m 12.6618,70.5441 c 9.6753,-3.281 23.4309,4.0805 15.6905,15.1859 l -4.3745,0.2942 c -9.9696,0.2105 -21.7903,1.8091 -26.0811,12.3673 -6.9404,11.6523 2.5244,23.7673 8.9605,33.1479 -4.6276,1.7248 -10.9375,2.0612 -13.5872,-3.1128 C 21.3435,169.646 31.4814,135.026 56.973,130.7352 Z M 10.7428,-31.891 c 12.0313,2.7344 11.1896,14.9754 8.75,24.356 C 17.7259,-2.2347 7.9247,-2.2768 6.831,-7.8295 2.1612,-15.8639 5.4846,-25.1185 10.7428,-31.891 Z M 0.8995,129.0948 c 3.8281,0.1261 7.6557,0.2103 11.4839,0.3363 1.0938,8.834 0.7574,17.794 -1.8506,26.3753 -2.8186,-0.1682 -8.4132,-0.5048 -11.2317,-0.6729 -3.2813,-8.6655 -2.0613,-17.6676 1.5984,-26.0387 z m -24.1878,-86.908 c 2.566,0.6732 7.74,2.0612 10.3064,2.7344 -0.3369,6.6044 -0.7153,13.2087 -0.9674,19.8128 -15.7747,9.9696 -17.8779,-14.3443 -9.339,-22.5472 z m -13.8814,-73.3627 c 1.3038,10.5164 -4.1645,19.7289 -10.9796,27.1746 -14.8914,-7.0671 -4.1645,-39.542 10.9796,-27.1746 z m -12.1576,224.421 c -4.3745,-8.834 -9.5906,-22.7156 0.8837,-29.4882 6.1835,-5.0479 11.4418,3.4913 10.2222,9.2964 1.7665,8.7077 -2.8606,17.0788 -11.1059,20.1918 z m 8.2453,58.5134 c 4.1645,-1.5985 8.4969,-2.482 13.0824,-2.6081 0.5048,8.9179 3.1549,31.0867 -11.9049,25.66 -3.2387,-7.109 -4.4167,-15.7325 -1.1775,-23.0519 z m 14.2603,115.8912 c -13.2087,-3.9542 -13.2087,-26.6696 2.6497,-25.8703 3.3234,7.9923 8.7921,21.9161 -2.6497,25.8703 z m 15.6484,-43.1174 c -5.0477,-14.5967 1.5564,-29.6563 9.5069,-41.8134 6.4783,6.9409 0.589,16.8684 1.178,25.1134 -2.1875,10.1378 5.5525,18.0461 9.9696,26.2911 -7.5721,-1.0938 -16.1953,-2.5241 -20.6545,-9.5911 z m 26.838,2.482 c -10.138,-1.8509 -7.9505,-14.3867 -7.4878,-21.8322 2.5238,-0.0421 7.5299,-0.1684 10.0117,-0.2103 -0.3785,7.2773 2.7343,15.9008 -2.5239,22.0425 z m -1.388,-76.8964 c -1.5148,-0.6308 -4.5855,-1.9349 -6.1414,-2.6081 -27.7217,3.8281 -33.4426,-44.4636 -7.8668,-50.7313 0.0421,9.0443 -0.9253,18.0043 -1.8085,27.0062 2.1033,2.3557 4.2066,4.7956 6.352,7.1933 1.2201,-2.1033 3.6592,-6.3099 4.8793,-8.4132 4.2908,-0.2103 11.9471,-5.3843 14.2188,0.9256 4.1222,9.8854 0.0414,21.748 -9.6334,26.6275 z m 23.6825,122.2852 c 3.7023,9.2966 4.6698,19.0138 -1.5138,27.553 -13.2513,-4.5849 -16.8263,-29.6562 1.5138,-27.553 z m 10.8112,112.2315 c -12.4513,7.6981 -19.3081,-19.9812 -6.3941,-23.3044 11.4418,-1.4724 9.8438,16.1953 6.3941,23.3044 z M 60.8433,306.1917 c -0.9674,11.1476 -5.3424,23.9355 1.9354,33.9471 3.5329,6.8989 11.5681,8.7498 17.878,12.115 -3.4497,7.1512 -12.9987,5.1319 -19.098,3.7018 -19.435,-7.9506 -20.3182,-41.6032 -0.7154,-49.7639 z m 21.3692,132.7595 c -17.1205,0.8414 -13.5029,-29.9508 2.6928,-24.5665 7.1931,7.3615 -0.7574,16.6161 -2.6928,24.5665 z m 0.2948,-34.1573 c -11.1475,-11.6944 -6.8567,-29.0255 0.6727,-41.3507 2.9028,-0.1261 8.7079,-0.4626 11.6102,-0.6308 -0.5464,3.1549 -1.6822,9.4648 -2.2712,12.6197 -0.7574,7.2773 -3.1549,15.3539 0.9253,22.0845 4.2487,6.8146 12.6618,8.9601 19.5607,11.9886 -8.1185,11.4839 -22.9257,2.7344 -30.4977,-4.7113 z m 26.0384,-28.3102 c 13.7556,-4.5011 12.1571,14.8912 10.3064,23.0941 -11.8207,9.3384 -21.2855,-17.289 -10.3064,-23.0941 z m -5.2582,136.924 c -12.7461,2.8605 -10.6007,-12.4516 -11.7781,-20.2757 14.3867,-10.811 21.4113,11.4418 11.7781,20.2757 z m 13.4614,59.0182 c -11.7365,-8.2869 -3.7439,-28.9832 11.1054,-24.23 0.21,8.5816 1.5143,25.0714 -11.1054,24.23 z m 5.2161,-109.6234 c 0.0837,-7.656 -2.8607,-23.683 10.138,-19.5604 8.0342,6.7303 2.1875,23.4725 -10.138,19.5604 z m 0.5469,-165.3185 c 5.0898,-0.8414 10.1796,-1.6406 15.3115,-2.3978 2.3138,10.2219 1.3464,20.7384 -4.7108,29.5724 -11.316,-5.0058 -10.7271,-16.7842 -10.6007,-27.1746 z m 31.423,236.1995 c -9.3806,0.2103 -8.2026,-12.4516 -6.8146,-18.7614 1.388,-6.6044 10.0117,-3.4073 14.6388,-4.5011 -1.3038,7.6981 1.809,20.3178 -7.8242,23.2625 z M 126.0452,412.0291 c 1.388,-6.8986 3.4492,-13.6714 6.0156,-20.1915 16.6158,-6.352 7.95,15.1017 10.8107,23.8933 2.9449,13.0826 22.2108,9.6332 24.7347,22.1266 -18.0042,3.3652 -37.9434,-7.067 -41.561,-25.8284 z m 36.8076,14.3866 c -3.5334,-4.9637 -6.9831,-9.9695 -10.4322,-15.0175 3.0286,-7.1512 7.3194,-18.3828 17.3732,-13.7135 7.572,8.7919 0.5047,22.0424 -6.941,28.731 z m 11.526,37.3963 c 3.0712,0.2524 9.1706,0.7153 12.1992,0.9677 -0.0842,8.4131 -1.3043,16.8684 -7.3194,23.3044 -6.941,-6.6465 -7.1931,-15.6066 -4.8798,-24.2721 z m 22.6735,119.0882 c -18.2148,4.7956 -17.7516,-29.1094 0.3369,-24.3139 1.7243,8.0345 0.9674,16.2374 -0.3369,24.3139 z m -8.96,-225.178 c -9.0442,-5.3846 -15.7747,-16.2794 -10.7686,-26.7538 4.0382,-0.7993 8.1605,-1.1359 12.3671,-0.9677 1.4306,9.2967 2.6923,18.9297 -1.5985,27.7215 z m 25.0715,187.7817 c -12.1997,-5.5527 -11.316,-30.2874 5.3003,-25.1555 0.5464,8.4553 6.2257,21.8743 -5.3003,25.1555 z M 195.1174,436.6801 c 7.0673,3.87 13.8398,8.7074 21.6635,10.9789 11.0217,1.977 16.1957,-9.1282 22.4635,-15.7747 l 3.0707,-3.4073 c 1.1359,5.8891 0.6311,11.6102 -1.5564,17.0787 -7.9505,21.2852 -44.4633,12.5778 -45.6413,-8.8756 z m 9.5912,-7.0673 c 2.0612,-4.7956 4.0802,-9.6332 6.0993,-14.4288 2.6923,0.0421 8.0332,0.0842 10.6849,0.0842 -0.1263,7.2354 1.0938,14.9754 -2.7344,21.5798 -6.3099,4.7113 -10.0538,-3.87 -14.0498,-7.2352 z m 32.3904,-76.5177 c 3.8276,-1.3882 7.8242,-2.0614 12.0307,-1.9772 0.3784,7.3615 0.4206,14.723 0.21,22.0845 -2.7339,0.4205 -8.2868,1.2198 -11.0207,1.6406 -2.4822,-6.983 -4.3749,-14.6388 -1.22,-21.7479 z m 11.3154,138.9431 c -9.3385,-3.1549 -10.937,-15.9007 -5.5525,-23.1362 2.7344,-0.0421 8.2452,-0.2103 10.9791,-0.2524 -0.042,8.1187 -1.7663,16.0692 -5.4266,23.3886 z m 25.4922,-76.4334 c 2.2717,-0.0842 6.8146,-0.2103 9.0858,-0.2945 2.0196,8.7916 -0.21,17.3311 -5.6783,24.356 -2.0612,0.1263 -6.1419,0.3787 -8.2031,0.5048 -1.8091,-8.7495 -0.9674,-17.4993 4.7956,-24.5663 z m 1.8506,124.0941 c -4.9635,-7.3615 -5.4266,-15.8168 -1.977,-23.8094 2.7765,-0.4205 8.2868,-1.2198 11.0633,-1.6404 3.5755,9.8432 -1.6827,19.0556 -9.0863,25.4498 z m 18.4674,-174.447 c -7.1515,-10.4743 1.7664,-26.8799 15.1431,-23.5988 0.2527,9.3387 -2.0612,26.3332 -15.1431,23.5988 z m 5.2583,117.5739 c -2.0617,-9.8014 0.6306,-29.0252 14.8067,-24.3139 6.5199,9.4227 -2.9865,26.0806 -14.8067,24.3139 z m -8.5816,-151.9837 c -8.5816,14.6391 -2.6507,33.2321 -5.2582,49.4273 -5.2161,8.9179 -11.4418,19.2241 -22.4214,21.3695 -8.7916,0.7151 -22.463,4.0803 -24.8605,-7.5718 5.6367,-0.0421 11.2733,-0.0421 16.9526,0.0421 6.8141,-7.6139 14.723,-14.8914 18.4664,-24.6086 4.5855,-15.3539 -8.1184,-31.8017 -23.052,-34.3677 -19.3923,-1.6827 -16.7,31.7175 -36.3028,25.66 -7.6136,-7.656 2.4396,-15.7326 4.3329,-23.6831 2.1033,-10.3059 0.3363,-23.767 -10.2222,-28.7729 -6.9825,-4.7534 -15.2699,-0.1263 -22.0003,2.7341 -8.5395,4.5432 -18.8875,10.9794 -19.1822,21.8743 -1.2196,16.7423 15.2704,26.4174 20.4865,41.0562 -21.1171,4.1645 -36.6396,-13.0824 -47.4503,-28.6468 -2.1033,-20.0233 15.901,-35.083 15.0173,-54.4331 -4.7113,-21.5377 -37.7329,-17.6256 -45.515,-0.5048 -0.6311,12.9142 6.2678,24.7768 9.2122,37.1442 l 1.2201,4.2905 c -5.3003,-0.5887 -12.325,1.3882 -15.6062,-4.2484 -10.8533,-12.2413 -14.0503,-29.1097 -12.4513,-44.9683 5.5104,-10.6849 14.1335,-19.2662 20.0649,-29.6566 -0.1679,-6.2678 -1.1353,-12.4513 -1.8512,-18.6772 -0.2521,-2.4396 -0.7569,-7.3194 -1.0095,-9.8011 6.4362,0.8411 12.8724,2.3136 19.3928,1.7667 15.7747,-8.7498 23.5567,-31.297 14.5546,-47.2819 -8.6658,-10.138 -26.628,-11.8626 -36.0086,-1.7667 -7.74,7.4455 -7.5715,19.0135 -9.8848,28.815 -2.2306,-0.5048 -6.6888,-1.5564 -8.9184,-2.0612 -5.8046,-18.9296 6.0577,-36.3449 22.5898,-44.7159 17.9201,-3.786 33.5263,8.4132 50.9411,8.5813 21.5803,-5.8472 22.1687,-49.89 -4.0803,-48.9646 -11.2733,-1.0935 -14.8493,11.7365 -20.5281,18.8456 -2.6923,8.7076 -15.3962,5.5527 -16.1952,-2.482 -9.1701,-28.2681 23.0941,-53.5075 49.4273,-50.7313 13.4187,2.7765 20.4018,16.027 31.3388,22.968 7.4036,2.4399 16.1536,-0.7571 22.7999,3.8279 9.8853,9.4227 18.2985,25.9548 34.5363,22.8838 21.1171,-1.5143 26.5432,-32.012 12.1987,-44.9262 -11.9886,-14.0919 -31.5914,-3.4073 -46.8192,-2.8604 10.6007,-24.3981 49.5536,-28.6468 65.8752,-7.656 10.0959,10.7688 14.8493,29.7826 2.9865,41.0984 -11.6944,10.6425 -7.6979,28.0578 0.5474,39.5417 14.0493,2.9025 24.8184,-5.763 36.176,-12.2831 l 3.9966,1.8088 c -0.0842,2.2296 -0.21,6.6886 -0.2942,8.96 -8.8763,23.6409 15.8168,42.4866 12.7455,66.0012 0,17.4995 -14.0919,29.6984 -27.0906,39.1211 -13.2082,8.6234 -17.7516,25.6603 -16.1105,40.6357 2.3975,14.3443 24.1036,14.8491 31.4651,4.5429 5.174,-12.5355 4.3745,-27.9736 15.4799,-37.5226 2.1454,1.893 6.4783,5.679 8.6237,7.5718 -0.4211,9.0021 0.7569,18.4669 -2.2717,27.1325 -6.3941,9.7593 -15.312,17.4995 -22.9677,26.249 -14.345,6.3519 -30.1196,-8.918 -43.0757,-0.7573 z M 123.774,214.3199 c -12.1155,3.8702 -11.7786,-12.7458 -10.5585,-20.1915 0.5464,-7.5718 9.0858,-7.067 14.5546,-8.2447 -0.799,9.1702 3.1549,21.2852 -3.9961,28.4362 z m 34.2832,-83.0378 c 8.7921,9.3387 7.6563,23.1362 -0.1684,32.7273 -12.6197,-7.2776 -13.7556,-26.4175 0.1684,-32.7273 z m 97.8872,-35.1249 c 1.7248,10.4322 4.375,29.0252 -12.0729,25.7021 -3.197,-10.5164 -3.786,-29.3196 12.0729,-25.7021 z m 61.7523,216.7649 c -14.5125,-4.4169 -8.6653,-30.0769 6.6046,-28.9413 1.8085,9.8856 3.1128,22.5896 -6.6046,28.9413 z m 18.1727,63.814 c 2.8181,-0.1684 8.4974,-0.4629 11.3576,-0.589 2.4822,8.3711 -0.6727,16.6581 -3.1549,24.6084 -15.7748,1.9772 -12.5356,-14.8912 -8.2027,-24.0194 z m -1.2201,74.9612 c -4.5008,-10.0538 0.8832,-30.7082 14.9757,-23.683 3.8276,10.348 -3.8698,22.7153 -14.9757,23.683 z m 32.2646,-116.0175 c -2.4818,0 -7.4457,-0.0842 -9.9275,-0.1263 0.6727,-7.3194 -3.5339,-17.6677 3.7018,-22.6733 2.5659,0.0419 7.6979,0.1682 10.2643,0.2524 -0.2525,7.6558 -1.3884,15.3118 -4.0386,22.5472 z m 16.9526,37.9432 c -2.2717,-0.2942 -6.8567,-0.8832 -9.1706,-1.2198 -1.8927,-8.371 -2.0191,-27.9736 11.2739,-23.6409 6.6463,7.1511 0.3785,17.2049 -2.1033,24.8607 z m 22.2104,-101.7569 c -5.0477,2.3136 -10.0954,4.6271 -15.3115,6.4359 1.4722,-9.2124 -3.1128,-22.2527 7.2773,-27.3428 12.4513,0.9256 9.1701,12.5777 8.0342,20.9069 z m 4.2066,-137.6815 c -9.549,-6.6462 -6.2678,-21.2011 -6.4778,-31.3391 18.4669,-4.4168 19.0133,25.8706 6.4778,31.3391 z m 6.6467,36.9339 c 2.1033,-0.0842 6.2678,-0.2945 8.3289,-0.3787 6.352,9.5069 6.352,29.9929 -8.2448,30.9185 -1.2621,-10.138 -2.1453,-20.4442 -0.0841,-30.5398 z m 0.8411,73.3206 c 0,-5.9733 0.0842,-11.9468 0.1684,-17.9201 0.6727,-2.0612 1.977,-6.1417 2.6502,-8.1608 4.964,0.7993 9.8853,1.6406 14.8488,2.482 -0.7569,10.6847 -3.8697,24.8187 -17.6674,23.5989 z"
   id="path276"
   inkscape:connector-curvature="0"
   style="fill:#bf090d;stroke:#bf090d;stroke-width:1.65890002" />
	</g>
	<path
   d="m 273.9065,415.6048 c 2.2715,-0.0842 6.8146,-0.2104 9.0862,-0.2945 2.0192,8.7917 -0.2103,17.3311 -5.6788,24.3561 -2.0612,0.1262 -6.1416,0.3786 -8.2028,0.5048 -1.809,-8.7497 -0.9677,-17.4994 4.7954,-24.5664 z"
   id="path280"
   inkscape:connector-curvature="0"
   style="fill:#ffc67e;stroke:#ffc67e;stroke-width:0.3944" />
	<path
   d="m -118.8196,416.3619 c 2.8184,0.0421 8.4132,0.0841 11.1895,0.1262 2.9025,5.5948 5.8471,11.2316 8.8338,16.8263 -1.1358,1.5144 -3.3232,4.5431 -4.459,6.0995 -8.1187,-5.174 -11.1054,-15.0594 -15.5643,-23.052 z"
   id="path282"
   inkscape:connector-curvature="0"
   style="fill:#883415;stroke:#883415;stroke-width:0.3944" />
	<path
   d="m -55.1741,422.8401 c 2.0612,0.5048 6.1837,1.5984 8.2449,2.1453 0.673,7.6139 4.9217,16.9105 -0.9675,23.4306 -13.377,0.7152 -14.8913,-17.92 -7.2774,-25.5759 z"
   id="path284"
   inkscape:connector-curvature="0"
   style="fill:#e2a36d;stroke:#e2a36d;stroke-width:0.3944" />
	<path
   d="m 334.6495,451.6972 c -4.5011,-10.0537 0.8834,-30.708 14.9754,-23.683 3.8279,10.3481 -3.87,22.7155 -14.9754,23.683 z"
   id="path286"
   inkscape:connector-curvature="0"
   style="fill:#ffbe7f;stroke:#ffbe7f;stroke-width:0.3944" />
	<path
   d="m 239.2443,431.8842 3.0708,-3.4073 c 1.1358,5.8892 0.631,11.6101 -1.5564,17.0787 -7.9504,21.2853 -44.4635,12.5777 -45.6414,-8.8759 7.067,3.8701 13.8396,8.7076 21.6639,10.9792 11.0212,1.9771 16.1953,-9.1283 22.4631,-15.7747 z"
   id="path288"
   inkscape:connector-curvature="0"
   style="fill:#fb717b;stroke:#fb717b;stroke-width:0.3944" />
	<path
   d="m 121.9649,462.8026 c 0.0841,-7.656 -2.8605,-23.683 10.1378,-19.5606 8.0346,6.7305 2.1875,23.4727 -10.1378,19.5606 z"
   id="path290"
   inkscape:connector-curvature="0"
   style="fill:#ffc18e;stroke:#ffc18e;stroke-width:0.3944" />
	<path
   d="m 299.4825,482.8259 c -2.0612,-9.8014 0.631,-29.0254 14.8071,-24.314 6.5202,9.4227 -2.9866,26.0808 -14.8071,24.314 z"
   id="path292"
   inkscape:connector-curvature="0"
   style="fill:#ffc07f;stroke:#ffc07f;stroke-width:0.3944" />
	<path
   d="m -4.1063,461.5826 c 12.8721,-4.1224 14.8492,24.1037 2.7343,24.7347 -7.2774,-5.2161 -11.526,-19.6868 -2.7343,-24.7347 z"
   id="path294"
   inkscape:connector-curvature="0"
   style="fill:#e1a16d;stroke:#e1a16d;stroke-width:0.3944" />
	<path
   d="m 42.3764,461.3303 c 11.4419,-1.4723 9.8434,16.1953 6.394,23.3044 -12.4514,7.698 -19.3082,-19.9813 -6.394,-23.3044 z"
   id="path296"
   inkscape:connector-curvature="0"
   style="fill:#ffc584;stroke:#ffc584;stroke-width:0.3944" />
	<path
   d="m -69.0979,462.1716 c 12.1991,-6.2257 20.444,12.2832 15.9429,21.748 -11.2736,2.566 -22.5472,-11.484 -15.9429,-21.748 z"
   id="path298"
   inkscape:connector-curvature="0"
   style="fill:#db8b5e;stroke:#db8b5e;stroke-width:0.3944" />
	<path
   d="m 174.3788,463.8121 c 3.0708,0.2524 9.1703,0.7151 12.1991,0.9676 -0.0842,8.4131 -1.3041,16.8683 -7.3195,23.3044 -6.9408,-6.6464 -7.1932,-15.6064 -4.8796,-24.272 z"
   id="path300"
   inkscape:connector-curvature="0"
   style="fill:#ffc587;stroke:#ffc587;stroke-width:0.3944" />
	<path
   d="m 242.8619,468.9021 c 2.7343,-0.0421 8.2449,-0.2104 10.9792,-0.2524 -0.042,8.1187 -1.7668,16.0691 -5.4265,23.3885 -9.3386,-3.1548 -10.9371,-15.9007 -5.5527,-23.1361 z"
   id="path302"
   inkscape:connector-curvature="0"
   style="fill:#ffc285;stroke:#ffc285;stroke-width:0.3944" />
	<path
   d="m 91.5093,493.132 c 14.3865,-10.8109 21.4115,11.4419 11.7784,20.2757 -12.746,2.8605 -10.6006,-12.4515 -11.7784,-20.2757 z"
   id="path304"
   inkscape:connector-curvature="0"
   style="fill:#ffc887;stroke:#ffc887;stroke-width:0.3944" />
	<path
   d="m -31.6593,499.526 c 13.4611,-2.2295 18.6351,11.9467 16.7843,23.1362 -7.656,-0.631 -13.5873,-4.7534 -18.0462,-10.7688 0.4205,-4.1225 0.8412,-8.245 1.2619,-12.3674 z"
   id="path306"
   inkscape:connector-curvature="0"
   style="fill:#dea36b;stroke:#dea36b;stroke-width:0.3944" />
	<path
   d="m 315.7199,523.2932 c -3.4915,-13.2507 8.5814,-20.2757 19.855,-21.5377 -5.4685,12.9562 -14.092,25.2815 -26.249,32.7692 2.1874,-3.7018 4.3327,-7.4456 6.394,-11.2315 z"
   id="path308"
   inkscape:connector-curvature="0"
   style="fill:#e6a182;stroke:#e6a182;stroke-width:0.3944" />
	<path
   d="m 30.9345,512.3561 c 13.9658,-3.0287 16.4057,13.2927 15.4802,23.6409 -2.2716,0.6731 -6.7726,2.0192 -9.0441,2.6922 -7.6139,-6.8987 -9.3807,-16.7421 -6.4361,-26.3331 z"
   id="path310"
   inkscape:connector-curvature="0"
   style="fill:#e1a26f;stroke:#e1a26f;stroke-width:0.3944" />
	<path
   d="m 147.1202,514.9221 c 1.3882,-6.6044 10.0117,-3.4074 14.6389,-4.5011 -1.304,7.6981 1.8088,20.3178 -7.8242,23.2624 -9.3807,0.2103 -8.2028,-12.4515 -6.8147,-18.7613 z"
   id="path312"
   inkscape:connector-curvature="0"
   style="fill:#ffc088;stroke:#ffc088;stroke-width:0.3944" />
	<path
   d="m -53.197,511.0521 c 11.1895,7.067 19.5185,17.1628 25.0712,29.1095 -5.763,-1.0938 -11.6102,-1.8509 -17.1628,-3.7859 -7.3195,-6.0576 -7.5298,-16.6161 -7.9084,-25.3236 z"
   id="path314"
   inkscape:connector-curvature="0"
   style="fill:#d4b07c;stroke:#d4b07c;stroke-width:0.3944" />
	<path
   d="m 273.7803,515.8896 c 2.7763,-0.4207 8.287,-1.22 11.0633,-1.6406 3.5756,9.8434 -1.6826,19.0558 -9.0862,25.4498 -4.9638,-7.3615 -5.4265,-15.8167 -1.9771,-23.8092 z"
   id="path316"
   inkscape:connector-curvature="0"
   style="fill:#ffbd83;stroke:#ffbd83;stroke-width:0.3944" />
	<path
   d="m 213.1635,545.5038 c -12.1991,-5.5526 -11.3157,-30.2874 5.3003,-25.1553 0.5468,8.4553 6.2257,21.8742 -5.3003,25.1553 z"
   id="path318"
   inkscape:connector-curvature="0"
   style="fill:#ffbf8c;stroke:#ffbf8c;stroke-width:0.3944" />
	<path
   d="m 74.5147,537.1328 c 7.067,1.6826 12.1149,6.6885 15.5222,12.8721 -4.1224,4.2486 -6.2678,17.7518 -14.723,12.9142 -8.7496,-5.9734 -2.7763,-17.7938 -0.7992,-25.7863 z"
   id="path320"
   inkscape:connector-curvature="0"
   style="fill:#ecab6e;stroke:#ecab6e;stroke-width:0.3944" />
	<path
   d="M 8.5135,544.6205 C 20.8808,539.6146 31.187,556.8616 24.6247,566.074 12.9724,568.8083 6.4102,554.4639 8.5135,544.6205 Z"
   id="path322"
   inkscape:connector-curvature="0"
   style="fill:#e39d6d;stroke:#e39d6d;stroke-width:0.3944" />
	<path
   d="m 279.3751,554.8425 c 6.9828,-4.459 14.5127,-8.0345 21.748,-12.1149 2.3136,7.6139 2.1874,16.1953 -4.2907,21.79 -7.7401,4.1224 -16.8684,4.6273 -25.3657,6.436 3.5335,-4.8796 5.8471,-10.4743 7.9084,-16.1111 z"
   id="path324"
   inkscape:connector-curvature="0"
   style="fill:#eccf9b;stroke:#eccf9b;stroke-width:0.3944" />
	<path
   d="m 116.7487,572.426 c -11.7364,-8.287 -3.7439,-28.9833 11.1054,-24.2299 0.2103,8.5814 1.5144,25.0712 -11.1054,24.2299 z"
   id="path326"
   inkscape:connector-curvature="0"
   style="fill:#ffc37a;stroke:#ffc37a;stroke-width:0.3944" />
	<path
   d="m 197.0523,582.9003 c -18.2145,4.7955 -17.7518,-29.1095 0.3365,-24.314 1.7247,8.0346 0.9675,16.2374 -0.3365,24.314 z"
   id="path328"
   inkscape:connector-curvature="0"
   style="fill:#ffc67d;stroke:#ffc67d;stroke-width:0.3944" />
	<path
   d="m 246.3113,579.1565 c 11.6102,-7.3194 21.9163,-16.3636 33.0638,-24.314 -2.0612,5.6368 -4.3749,11.2316 -7.9084,16.1112 l -4.6273,2.1033 c -6.0575,2.2295 -11.2736,6.0995 -16.2794,10.1379 -7.2353,5.3424 -15.3961,9.2545 -23.8092,12.4094 -22.8417,9.0021 -46.6509,15.2699 -71.0911,18.1724 -2.0192,-0.8414 -6.0154,-2.524 -8.0346,-3.3653 9.8855,-1.7247 19.6447,-4.0804 29.4881,-6.0995 17.4152,-2.8605 37.4806,-5.9313 47.1136,-22.7997 3.4915,2.5239 6.9829,5.09 10.5164,7.698 3.5756,-7.8663 6.6043,-16.2794 4.2066,-24.987 2.5239,4.9217 4.9217,9.9275 7.3615,14.9333 z"
   id="path330"
   inkscape:connector-curvature="0"
   style="fill:#883415;stroke:#883415;stroke-width:0.3944" />
	<path
   d="m 224.2268,581.5122 c -1.5564,-8.7917 2.8605,-23.9775 14.723,-17.289 2.3978,8.7076 -0.631,17.1207 -4.2066,24.987 -3.5335,-2.608 -7.025,-5.1741 -10.5164,-7.698 z"
   id="path332"
   inkscape:connector-curvature="0"
   style="fill:#ffc980;stroke:#ffc980;stroke-width:0.3944" />
	<path
   d="m 52.5984,585.3401 c -3.8701,-6.4781 4.5431,-10.3903 8.1607,-14.0079 4.7535,6.9409 6.8988,15.0175 5.8051,23.4307 -5.763,-1.3881 -13.6293,-1.6826 -13.9658,-9.4228 z"
   id="path334"
   inkscape:connector-curvature="0"
   style="fill:#df865f;stroke:#df865f;stroke-width:0.3944" />
	<path
   d="m 250.56,583.1948 c 5.0058,-4.0383 10.222,-7.9084 16.2794,-10.1379 4.6273,8.4553 -10.0537,15.9009 -16.2794,10.1379 z"
   id="path336"
   inkscape:connector-curvature="0"
   style="fill:#f6b8bd;stroke:#f6b8bd;stroke-width:0.3944" />
	<path
   d="m 15.7488,580.755 c 14.5127,2.524 25.1133,12.8721 37.3123,20.1074 -9.4227,-0.042 -18.8875,0.5889 -28.2261,-0.673 -5.4265,-5.0058 -6.5202,-12.8721 -9.0862,-19.4344 z"
   id="path338"
   inkscape:connector-curvature="0"
   style="fill:#eec993;stroke:#eec993;stroke-width:0.3944" />
	<path
   d="m 156.2905,586.0132 c 4.501,-2.1874 9.2124,-3.8701 13.8817,-5.5527 -0.8834,7.1512 -1.8509,14.3024 -2.9446,21.4536 -2.6502,-0.6731 -7.9925,-2.0192 -10.6427,-2.6923 -0.1261,-4.4168 -0.2102,-8.7916 -0.2944,-13.2086 z"
   id="path340"
   inkscape:connector-curvature="0"
   style="fill:#ffbf84;stroke:#ffbf84;stroke-width:0.3944" />
	<path
   d="m 101.7733,613.6505 c -2.566,-10.0958 -3.87,-24.7767 10.6847,-24.5664 2.2716,9.4648 -1.0937,18.4669 -7.656,25.4077 l -2.2295,2.9446 z"
   id="path342"
   inkscape:connector-curvature="0"
   style="fill:#daa26a;stroke:#daa26a;stroke-width:0.3944" />
	<path
   d="m 155.6596,613.7767 c 24.4402,-2.9025 48.2494,-9.1703 71.0911,-18.1724 -4.3328,6.7305 -10.222,12.6617 -18.3407,14.3444 -18.2144,4.5851 -37.0179,6.9829 -55.7372,8.0766 z"
   id="path344"
   inkscape:connector-curvature="0"
   style="fill:#eeb8b7;stroke:#eeb8b7;stroke-width:0.3944" />
	<path
   d="m 110.6492,614.3656 c 10.4323,-0.0421 20.9908,-0.9255 30.708,-5.0059 1.5564,0.2944 4.7113,0.7993 6.2678,1.0516 2.0192,0.8413 6.0154,2.5239 8.0346,3.3653 l -2.9867,4.2486 c -11.6943,8.918 -29.1516,-0.4206 -42.0237,-3.6596 z"
   id="path346"
   inkscape:connector-curvature="0"
   style="fill:#e6c0a1;stroke:#e6c0a1;stroke-width:0.3944" />
</g>
</svg>