<?xml version="1.0" encoding="UTF-8" standalone="no"?>
<!-- Created with Inkscape (http://www.inkscape.org/) -->

<svg
   xmlns:dc="http://purl.org/dc/elements/1.1/"
   xmlns:cc="http://creativecommons.org/ns#"
   xmlns:rdf="http://www.w3.org/1999/02/22-rdf-syntax-ns#"
   xmlns:svg="http://www.w3.org/2000/svg"
   xmlns="http://www.w3.org/2000/svg"
   xmlns:sodipodi="http://sodipodi.sourceforge.net/DTD/sodipodi-0.dtd"
   xmlns:inkscape="http://www.inkscape.org/namespaces/inkscape"
   id="svg2"
   sodipodi:docname="onion_01.svg"
   sodipodi:modified="true"
   viewBox="0 0 255.99999 256"
   sodipodi:version="0.32"
   version="1.0"
   inkscape:output_extension="org.inkscape.output.svg.inkscape"
   inkscape:version="0.92.4 (5da689c313, 2019-01-14)"
   width="256"
   height="256">
  <sodipodi:namedview
     id="base"
     bordercolor="#666666"
     inkscape:pageshadow="2"
     inkscape:window-y="-8"
     pagecolor="#ffffff"
     inkscape:window-height="1025"
     inkscape:zoom="2.8611997"
     inkscape:window-x="-8"
     borderopacity="1.0"
     inkscape:current-layer="layer1"
     inkscape:cx="46.364483"
     inkscape:cy="154.08881"
     inkscape:showpageshadow="false"
     inkscape:window-width="1920"
     inkscape:pageopacity="0.0"
     inkscape:document-units="px"
     showgrid="false"
     inkscape:window-maximized="1" />
  <defs
     id="defs4">
    <radialGradient
       id="radialGradient12060"
       gradientUnits="userSpaceOnUse"
       cy="513.10999"
       cx="-240.69"
       gradientTransform="matrix(1,3.5993e-7,-2.3582e-7,0.65517,1.4297e-4,176.94)"
       r="47.056"
       inkscape:collect="always">
      <stop
         id="stop12056"
         style="stop-color:#ffffff"
         offset="0" />
      <stop
         id="stop12058"
         style="stop-color:#c98500;stop-opacity:0"
         offset="1" />
    </radialGradient>
    <filter
       id="filter18945"
       inkscape:collect="always">
      <feGaussianBlur
         id="feGaussianBlur18947"
         stdDeviation="1.2116008"
         inkscape:collect="always" />
    </filter>
    <filter
       id="filter20002"
       inkscape:collect="always">
      <feGaussianBlur
         id="feGaussianBlur20004"
         stdDeviation="3.2821945"
         inkscape:collect="always" />
    </filter>
    <filter
       id="filter20026"
       height="1.2222"
       width="1.1949"
       y="-0.11112"
       x="-0.097465999"
       inkscape:collect="always">
      <feGaussianBlur
         id="feGaussianBlur20028"
         stdDeviation="11.707601"
         inkscape:collect="always" />
    </filter>
    <filter
       id="filter21009"
       inkscape:collect="always">
      <feGaussianBlur
         id="feGaussianBlur21011"
         stdDeviation="0.42681587"
         inkscape:collect="always" />
    </filter>
    <clipPath
       id="clipPath21015"
       clipPathUnits="userSpaceOnUse">
      <path
         id="path21017"
         style="color:#000000;fill:#a85d24;fill-rule:evenodd"
         d="m -239.2,416.42 c -46.83,0.31 -90.69,36.78 -98.24,83.32 -3.15,17.27 0.4,35.06 -3.07,52.35 -1.12,8.83 -5.32,17.75 -1.26,26.46 5.7,16.44 23.79,24.35 40.22,24.79 6.06,0.57 12.51,-0.56 17.51,3.64 40.24,21.37 93.91,11.96 124,-22.26 24.48,-26.88 33.08,-67.53 19.81,-101.62 -3.23,-9.83 -4.64,-23.04 4.84,-29.97 5.4,-5.04 13.27,-5.23 19.22,-9.12 2.14,-1.84 5.26,-5.59 4.5,-7.66 -4.88,0.17 -6.74,-6.04 -11.87,-5.53 -9.16,-0.82 -15.11,7.94 -23.94,8.75 -7.68,1.47 -16.02,1.53 -23.63,0.13 -18.98,-15.67 -43.52,-23.96 -68.09,-23.28 z"
         inkscape:connector-curvature="0" />
    </clipPath>
    <clipPath
       id="clipPath21019"
       clipPathUnits="userSpaceOnUse">
      <path
         id="path21021"
         style="color:#000000;fill:#a85d24;fill-rule:evenodd"
         d="m -234.35,422.4 c -42.82,0.26 -82.93,30.22 -89.83,68.44 -2.88,14.18 0.36,28.8 -2.81,43 -1.02,7.25 -4.87,14.57 -1.15,21.73 5.21,13.5 21.75,20 36.78,20.36 5.53,0.47 11.43,-0.46 16,2.99 36.8,17.55 85.88,9.82 113.4,-18.28 22.39,-22.08 30.25,-55.47 18.12,-83.47 -2.96,-8.07 -4.25,-18.92 4.43,-24.61 4.93,-4.14 12.12,-4.3 17.57,-7.49 1.95,-1.51 4.8,-4.6 4.12,-6.29 -4.47,0.13 -6.17,-4.97 -10.86,-4.55 -8.37,-0.67 -13.81,6.52 -21.89,7.19 -7.02,1.21 -14.65,1.26 -21.61,0.1 -17.36,-12.86 -39.8,-19.67 -62.27,-19.12 z"
         inkscape:connector-curvature="0" />
    </clipPath>
    <clipPath
       id="clipPath21023"
       clipPathUnits="userSpaceOnUse">
      <path
         id="path21025"
         style="color:#000000;fill:#a85d24;fill-rule:evenodd"
         d="m -239.2,416.42 c -46.83,0.31 -90.69,36.78 -98.24,83.32 -3.15,17.27 0.4,35.06 -3.07,52.35 -1.12,8.83 -5.32,17.75 -1.26,26.46 5.7,16.44 23.79,24.35 40.22,24.79 6.06,0.57 12.51,-0.56 17.51,3.64 40.24,21.37 93.91,11.96 124,-22.26 24.48,-26.88 33.08,-67.53 19.81,-101.62 -3.23,-9.83 -4.64,-23.04 4.84,-29.97 5.4,-5.04 13.27,-5.23 19.22,-9.12 2.14,-1.84 5.26,-5.59 4.5,-7.66 -4.88,0.17 -6.74,-6.04 -11.87,-5.53 -9.16,-0.82 -15.11,7.94 -23.94,8.75 -7.68,1.47 -16.02,1.53 -23.63,0.13 -18.98,-15.67 -43.52,-23.96 -68.09,-23.28 z"
         inkscape:connector-curvature="0" />
    </clipPath>
    <clipPath
       id="clipPath21027"
       clipPathUnits="userSpaceOnUse">
      <path
         id="path21029"
         style="color:#000000;fill:#a85d24;fill-rule:evenodd"
         d="m -251.1,441.3 c -46.83,0.31 -90.69,36.78 -98.24,83.32 -3.15,17.27 0.4,35.06 -3.07,52.35 -1.12,8.83 -5.32,17.75 -1.26,26.46 5.7,16.44 23.79,24.35 40.22,24.79 6.06,0.57 12.51,-0.56 17.51,3.64 40.24,21.37 93.91,11.96 124,-22.26 24.48,-26.88 33.08,-67.53 19.82,-101.62 -3.24,-9.83 -4.65,-23.04 4.83,-29.97 5.4,-5.04 13.27,-5.23 19.22,-9.12 2.14,-1.84 5.26,-5.59 4.5,-7.66 -4.88,0.17 -6.74,-6.04 -11.87,-5.53 -9.16,-0.82 -15.1,7.94 -23.94,8.75 -7.68,1.47 -16.01,1.53 -23.62,0.13 -18.99,-15.67 -43.53,-23.96 -68.1,-23.28 z"
         inkscape:connector-curvature="0" />
    </clipPath>
    <clipPath
       id="clipPath21031"
       clipPathUnits="userSpaceOnUse">
      <path
         id="path21033"
         style="color:#000000;fill:#a85d24;fill-rule:evenodd"
         d="m -239.2,416.42 c -46.83,0.31 -90.69,36.78 -98.24,83.32 -3.15,17.27 0.4,35.06 -3.07,52.35 -1.12,8.83 -5.32,17.75 -1.26,26.46 5.7,16.44 23.79,24.35 40.22,24.79 6.06,0.57 12.51,-0.56 17.51,3.64 40.24,21.37 93.91,11.96 124,-22.26 24.48,-26.88 33.08,-67.53 19.81,-101.62 -3.23,-9.83 -4.64,-23.04 4.84,-29.97 5.4,-5.04 13.27,-5.23 19.22,-9.12 2.14,-1.84 5.26,-5.59 4.5,-7.66 -4.88,0.17 -6.74,-6.04 -11.87,-5.53 -9.16,-0.82 -15.11,7.94 -23.94,8.75 -7.68,1.47 -16.02,1.53 -23.63,0.13 -18.98,-15.67 -43.52,-23.96 -68.09,-23.28 z"
         inkscape:connector-curvature="0" />
    </clipPath>
    <clipPath
       id="clipPath21035"
       clipPathUnits="userSpaceOnUse">
      <path
         id="path21037"
         style="color:#000000;fill:#a85d24;fill-rule:evenodd"
         d="m -239.2,416.42 c -46.83,0.31 -90.69,36.78 -98.24,83.32 -3.15,17.27 0.4,35.06 -3.07,52.35 -1.12,8.83 -5.32,17.75 -1.26,26.46 5.7,16.44 23.79,24.35 40.22,24.79 6.06,0.57 12.51,-0.56 17.51,3.64 40.24,21.37 93.91,11.96 124,-22.26 24.48,-26.88 33.08,-67.53 19.81,-101.62 -3.23,-9.83 -4.64,-23.04 4.84,-29.97 5.4,-5.04 13.27,-5.23 19.22,-9.12 2.14,-1.84 5.26,-5.59 4.5,-7.66 -4.88,0.17 -6.74,-6.04 -11.87,-5.53 -9.16,-0.82 -15.11,7.94 -23.94,8.75 -7.68,1.47 -16.02,1.53 -23.63,0.13 -18.98,-15.67 -43.52,-23.96 -68.09,-23.28 z"
         inkscape:connector-curvature="0" />
    </clipPath>
    <clipPath
       id="clipPath21039"
       clipPathUnits="userSpaceOnUse">
      <path
         id="path21041"
         style="color:#000000;fill:#a85d24;fill-rule:evenodd"
         d="m -239.2,416.42 c -46.83,0.31 -90.69,36.78 -98.24,83.32 -3.15,17.27 0.4,35.06 -3.07,52.35 -1.12,8.83 -5.32,17.75 -1.26,26.46 5.7,16.44 23.79,24.35 40.22,24.79 6.06,0.57 12.51,-0.56 17.51,3.64 40.24,21.37 93.91,11.96 124,-22.26 24.48,-26.88 33.08,-67.53 19.81,-101.62 -3.23,-9.83 -4.64,-23.04 4.84,-29.97 5.4,-5.04 13.27,-5.23 19.22,-9.12 2.14,-1.84 5.26,-5.59 4.5,-7.66 -4.88,0.17 -6.74,-6.04 -11.87,-5.53 -9.16,-0.82 -15.11,7.94 -23.94,8.75 -7.68,1.47 -16.02,1.53 -23.63,0.13 -18.98,-15.67 -43.52,-23.96 -68.09,-23.28 z"
         inkscape:connector-curvature="0" />
    </clipPath>
    <radialGradient
       id="radialGradient7342"
       gradientUnits="userSpaceOnUse"
       cy="595.73999"
       cx="-335"
       gradientTransform="matrix(0.37153,-0.20177,0.39512,0.72756,-2.8108,-269.82)"
       r="13.375"
       inkscape:collect="always">
      <stop
         id="stop7346"
         style="stop-color:#381600;stop-opacity:0"
         offset="0" />
      <stop
         id="stop7348"
         style="stop-color:#381600"
         offset="1" />
    </radialGradient>
    <radialGradient
       id="radialGradient8333"
       gradientUnits="userSpaceOnUse"
       cy="498.89001"
       cx="-247.03999"
       gradientTransform="matrix(0.82066,-0.10413,0.082138,0.64735,-87.207,152.91)"
       r="115.97"
       inkscape:collect="always">
      <stop
         id="stop8329"
         style="stop-color:#e3a63d"
         offset="0" />
      <stop
         id="stop8331"
         style="stop-color:#a96b00"
         offset="1" />
    </radialGradient>
    <radialGradient
       id="radialGradient8341"
       gradientUnits="userSpaceOnUse"
       cy="516.26001"
       cx="-227.53"
       gradientTransform="matrix(1,0,0,0.86122,0,71.647)"
       r="115.97"
       inkscape:collect="always">
      <stop
         id="stop8337"
         style="stop-color:#943f00;stop-opacity:.88947"
         offset="0" />
      <stop
         id="stop8339"
         style="stop-color:#723100"
         offset="1" />
    </radialGradient>
    <filter
       id="filter11253"
       inkscape:collect="always">
      <feGaussianBlur
         id="feGaussianBlur11255"
         stdDeviation="0.045227149"
         inkscape:collect="always" />
    </filter>
    <filter
       id="filter12312"
       height="1.0882"
       width="1.4256001"
       y="-0.044114001"
       x="-0.21278"
       inkscape:collect="always">
      <feGaussianBlur
         id="feGaussianBlur12314"
         stdDeviation="2.1133543"
         inkscape:collect="always" />
    </filter>
    <linearGradient
       id="linearGradient12326"
       y2="444.38"
       gradientUnits="userSpaceOnUse"
       x2="-175.39"
       gradientTransform="translate(440.61,-352.17)"
       y1="423.14001"
       x1="-227.82001"
       inkscape:collect="always">
      <stop
         id="stop12322"
         style="stop-color:#a05b2c"
         offset="0" />
      <stop
         id="stop12324"
         style="stop-color:#784421;stop-opacity:0"
         offset="1" />
    </linearGradient>
    <linearGradient
       id="linearGradient13303"
       y2="560.54999"
       gradientUnits="userSpaceOnUse"
       x2="-339.70001"
       gradientTransform="translate(440.61,-352.17)"
       y1="527.56"
       x1="-330.89001"
       inkscape:collect="always">
      <stop
         id="stop13299"
         style="stop-color:#784421"
         offset="0" />
      <stop
         id="stop13301"
         style="stop-color:#784421;stop-opacity:0"
         offset="1" />
    </linearGradient>
  </defs>
  <g
     id="layer1"
     inkscape:label="Ebene 1"
     inkscape:groupmode="layer"
     transform="translate(-77.188,-26.091999)">
    <g
       id="g886"
       transform="matrix(1.0528439,0,0,1.0528439,-13.84393,-20.116454)">
      <path
         inkscape:connector-curvature="0"
         transform="translate(440.61,-352.17)"
         d="m -237.62,411.84 c -58.77,0 -106.44,47.06 -106.44,105.04 0,3.77 0.2,7.48 0.59,11.15 -0.44,6.28 -1.06,14.31 -1.75,21.56 -1.02,10.69 -7.6,17.79 0.25,33.22 1.01,1.98 2.26,4.1 3.78,6.38 6.58,9.83 18.92,14.33 29.25,16.62 7.5,1.67 13.18,0.64 20.13,1.47 15.87,9.29 34.4,14.6 54.19,14.6 58.76,-0.01 106.46,-47.03 106.46,-105 0,-13.52 -2.62,-26.45 -7.34,-38.32 -0.71,-3.78 -1.28,-7.8 -1.28,-11.03 0,-8.61 6.89,-14.36 15.5,-16.65 8.61,-2.3 11.48,-4.6 15.5,-12.63 4.02,-8.03 -4.6,-6.31 -4.6,-6.31 0,0 -0.08,-0.08 -0.24,-0.25 -1.54,-1.63 -10.18,-9.9 -22.13,-2.63 -13.2,8.04 -17.79,6.91 -29.84,6.91 -1.6,0 -3.13,-0.13 -4.57,-0.31 -18.36,-14.87 -41.87,-23.82 -67.46,-23.82 z"
         clip-path="url(#clipPath21039)"
         style="color:#000000;fill:url(#radialGradient8333);fill-rule:evenodd"
         id="path4216" />
      <path
         inkscape:connector-curvature="0"
         transform="translate(440.61,-352.17)"
         sodipodi:nodetypes="cssssccccccccccccccccccccccccccccccccccccccccccccccccccccccccccccccssscccssscssccccccccccccccccccccccccccccccccccccccccccccccccccccccccccccccccccccccccccccccccccssssssc"
         clip-path="url(#clipPath21035)"
         d="m -353.92,588.69 c 0,0 22.25,-24.42 52.49,-49.58 10.92,-9.1 22.27,-19.03 34.98,-26.7 81.91,-49.45 47.46,-29.37 112.73,-61.23 1.15,-0.56 2.28,-1.11 3.39,-1.65 54.949,-26.82 62.689,-30.42 62.689,-30.42 m -266.25,168.61 c 1.99,-2.01 20.66,-26.09 48.83,-52.87 10.16,-9.54 21.85,-19.36 34.43,-27.95 76.96,-50.31 50.05,-31.23 115.07,-57.16 1.16,-0.45 2.31,-0.89 3.44,-1.31 52.553,-23.98 61.852,-28.66 63.354,-30.73 m -265.1,169.05 c 3.99,-4.02 19.56,-27.28 45.67,-55.68 9.39,-9.98 20.74,-20.5 33.4,-29.67 72,-48.26 52.64,-33.11 117.4,-53.11 1.18,-0.33 2.34,-0.65 3.49,-0.96 50.16,-21.15 61.016,-26.91 64.019,-31.04 m -263.96,169.49 c 5.99,-6.03 18.46,-28.47 42.51,-58.48 8.62,-10.44 19.64,-21.64 32.36,-31.4 67.05,-46.21 55.24,-34.98 119.75,-49.05 1.19,-0.22 2.36,-0.43 3.53,-0.62 47.76,-18.32 60.179,-25.15 64.684,-31.36 m -262.81,169.95 c 7.99,-8.05 17.36,-29.67 39.35,-61.29 7.85,-10.89 18.53,-22.78 31.32,-33.13 62.09,-44.16 57.83,-36.85 122.09,-45 1.2,-0.1 2.39,-0.19 3.58,-0.27 45.37,-15.49 59.343,-23.4 65.349,-31.67 m -261.66,170.39 c 9.98,-10.06 16.25,-30.85 36.18,-64.1 7.09,-11.33 17.42,-23.92 30.29,-34.86 57.13,-42.11 60.42,-38.72 124.43,-40.93 1.21,0.01 2.42,0.03 3.61,0.07 42.98,-12.66 58.52,-21.65 66.024,-31.98 m -260.51,170.83 c 11.98,-12.08 15.15,-32.04 33.02,-66.9 6.32,-11.78 16.32,-25.06 29.25,-36.59 52.18,-40.06 63.02,-40.59 126.77,-36.87 1.23,0.12 2.45,0.25 3.66,0.41 40.59,-9.83 57.68,-19.89 66.689,-32.29 m -259.37,171.27 c 13.98,-14.09 14.05,-33.23 29.86,-69.7 5.55,-12.23 15.21,-26.21 28.22,-38.32 47.22,-38.01 65.61,-42.46 129.1,-32.82 1.24,0.24 2.48,0.49 3.71,0.76 38.19,-7 56.84,-18.14 67.354,-32.61 m -258.22,171.72 c 15.98,-16.1 12.95,-34.42 26.71,-72.51 4.77,-12.67 14.09,-27.34 27.17,-40.05 42.27,-35.95 68.2,-44.32 131.45,-28.75 1.25,0.34 2.5,0.71 3.75,1.1 35.8,-4.16 56.01,-16.38 68.019,-32.92 m -257.07,172.16 c 17.97,-18.11 11.84,-35.6 23.54,-75.31 4.01,-13.12 12.98,-28.49 26.14,-41.78 37.3,-33.91 70.79,-46.2 133.78,-24.7 1.27,0.46 2.53,0.95 3.8,1.45 33.4,-1.33 55.17,-14.63 68.684,-33.23 M -353.675,579 c 19.97,-20.12 10.74,-36.79 20.38,-78.11 3.24,-13.57 11.88,-29.63 25.1,-43.51 32.35,-31.86 73.39,-48.07 136.13,-20.64 1.27,0.57 2.56,1.17 3.84,1.79 31.01,1.5 54.33,-12.88 69.349,-33.55 m -254.78,173.05 c 21.97,-22.13 9.64,-37.98 17.22,-80.92 2.47,-14.02 10.77,-30.77 24.07,-45.23 27.39,-29.81 75.97,-49.94 138.46,-16.59 1.29,0.69 2.59,1.4 3.89,2.14 28.61,4.33 53.5,-11.12 70.01,-33.86 m -244.66,196.3 c 0,0 34.01,-3.4 51.99,2.91 16.54,5.82 54.1,19.52 89.11,5.32 3.04,-1.23 6.06,-2.67 9.04,-4.34 27.7,-15.55 58.59,-49 56.37,-89.41 -0.64,-11.36 -1.89,-20.93 -3.01,-28.96 -2.46,-17.67 -4.28,-27.86 2.52,-33.24 10.38,-8.21 51.019,-13.12 51.505,-11.66 m -258.64,158.36 c 0,0 32.22,-4.09 50.43,0.31 16.67,4.11 52.87,15.13 86.69,0.95 2.98,-1.26 5.93,-2.71 8.85,-4.36 30.64,-17.63 58.18,-47.76 58.27,-85.79 -0.11,-10.61 -0.65,-19.67 -0.86,-27.46 -1.36,-16.58 -2.27,-26.29 4.54,-31.54 12.47,-9.2 49.964,-13.74 50.406,-12.41 m -259.43,159.29 c 0,0 30.43,-4.78 48.87,-2.31 16.78,2.41 51.62,10.75 84.25,-3.41 2.92,-1.29 5.82,-2.74 8.66,-4.37 33.59,-19.72 57.78,-46.54 60.18,-82.17 0.42,-9.87 0.58,-18.42 1.3,-25.97 -0.28,-15.5 -0.28,-24.72 6.55,-29.85 14.56,-10.19 48.909,-14.35 49.307,-13.15 m -260.23,160.21 c 0,0 28.64,-5.47 47.31,-4.91 16.9,0.71 50.38,6.36 81.82,-7.79 2.87,-1.31 5.7,-2.77 8.48,-4.38 36.53,-21.8 57.37,-45.3 62.09,-78.55 0.93,-9.12 1.81,-17.15 3.44,-24.47 0.82,-14.42 1.73,-23.15 8.58,-28.15 16.64,-11.19 47.844,-14.97 48.197,-13.91 m -261.02,161.15 c 0,0 26.85,-6.16 45.75,-7.53 17.02,-0.99 49.13,1.98 79.38,-12.15 2.82,-1.35 5.58,-2.8 8.3,-4.39 39.47,-23.88 56.96,-44.07 63.99,-74.94 1.46,-8.36 3.04,-15.89 5.59,-22.97 1.92,-13.34 3.73,-21.58 10.6,-26.46 18.73,-12.17 46.789,-15.58 47.098,-14.65 m -261.82,162.07 c 0,0 25.06,-6.84 44.19,-10.13 17.14,-2.69 47.89,-2.4 76.96,-16.52 2.75,-1.38 5.46,-2.84 8.1,-4.41 42.43,-25.96 56.56,-42.84 65.91,-71.32 1.98,-7.61 4.26,-14.63 7.73,-21.46 3.01,-12.27 5.74,-20.02 12.62,-24.77 20.82,-13.17 45.734,-16.2 45.999,-15.41 m -262.61,163 c 0,0 23.26,-7.53 42.63,-12.74 17.26,-4.39 46.64,-6.78 74.52,-20.88 2.7,-1.41 5.34,-2.88 7.92,-4.42 45.37,-28.05 56.15,-41.61 67.81,-67.7 2.5,-6.87 5.5,-13.37 9.88,-19.97 4.11,-11.19 7.74,-18.45 14.64,-23.08 22.91,-14.16 44.679,-16.81 44.9,-16.15 m -263.4,163.93 c 0,0 21.47,-8.22 41.06,-15.35 17.38,-6.1 45.4,-11.17 72.09,-25.26 2.65,-1.43 5.23,-2.9 7.74,-4.42 48.31,-30.14 55.75,-40.39 69.72,-64.09 3.02,-6.12 6.72,-12.11 12.02,-18.47 5.2,-10.11 9.75,-16.88 16.67,-21.38 24.98,-15.15 43.614,-17.43 43.79,-16.9 m -264.2,164.85 c 0,0 19.68,-8.91 39.51,-17.96 17.5,-7.79 44.15,-15.55 69.65,-29.62 2.59,-1.46 5.11,-2.94 7.55,-4.44 51.26,-32.22 55.35,-39.15 71.63,-60.47 3.55,-5.37 7.96,-10.85 14.17,-16.97 6.3,-9.02 11.75,-15.3 18.69,-19.69 27.07,-16.14 42.559,-18.04 42.691,-17.65 m -264.99,165.79 c 0,0 17.89,-9.6 37.94,-20.57 17.62,-9.5 42.91,-19.94 67.22,-33.99 2.54,-1.5 5,-2.98 7.37,-4.45 54.2,-34.31 54.94,-37.93 73.54,-56.86 4.07,-4.61 9.18,-9.59 16.31,-15.47 7.39,-7.94 13.76,-13.73 20.71,-17.99 29.16,-17.14 41.504,-18.67 41.592,-18.4 m -265.79,166.71 c 0,0 16.1,-10.28 36.39,-23.18 17.74,-11.2 41.66,-24.32 64.79,-38.36 2.48,-1.52 4.87,-3 7.17,-4.46 57.15,-36.38 54.54,-36.69 75.45,-53.23 4.59,-3.87 10.42,-8.33 18.46,-13.98 8.49,-6.86 15.77,-12.16 22.74,-16.3 31.242,-18.12 40.439,-19.28 40.483,-19.14 m -266.58,167.63 c 0,0 14.3,-10.97 34.82,-25.79 17.86,-12.89 40.43,-28.7 62.36,-42.72 2.42,-1.55 4.75,-3.04 6.99,-4.47 60.1,-38.47 54.13,-35.46 77.36,-49.62 5.11,-3.12 11.64,-7.07 20.6,-12.48 9.58,-5.78 17.77,-10.59 24.76,-14.6 33.331,-19.12 39.384,-19.9 39.384,-19.9"
         style="fill:none;stroke:url(#radialGradient8341);stroke-width:3.5999999;filter:url(#filter20002)"
         id="path4226" />
      <path
         inkscape:connector-curvature="0"
         transform="translate(440.61,-352.17)"
         sodipodi:nodetypes="cssssccccccccccccccccccccccccccccccccccccccccccccccccccccccccccccccssscccssscssccccccccccccccccccccccccccccccccccccccccccccccccccccccccccccccccccccccccccccccccccssssssc"
         clip-path="url(#clipPath21031)"
         d="m -353.38,587.61 c 0,0 22.25,-24.42 52.49,-49.59 10.92,-9.09 22.27,-19.02 34.98,-26.7 81.92,-49.44 47.46,-29.36 112.73,-61.22 1.15,-0.56 2.28,-1.11 3.39,-1.65 54.949,-26.82 62.69,-30.42 62.69,-30.42 m -266.25,168.61 c 1.99,-2.01 20.66,-26.09 48.83,-52.87 10.16,-9.54 21.85,-19.36 34.43,-27.95 76.96,-50.31 50.05,-31.24 115.07,-57.16 1.16,-0.45 2.31,-0.89 3.44,-1.31 52.554,-23.99 61.853,-28.66 63.355,-30.73 m -265.1,169.05 c 3.99,-4.02 19.56,-27.28 45.67,-55.68 9.39,-9.99 20.74,-20.5 33.4,-29.67 72,-48.26 52.64,-33.11 117.41,-53.11 1.17,-0.33 2.33,-0.65 3.48,-0.96 50.16,-21.15 61.017,-26.91 64.02,-31.04 m -263.96,169.49 c 5.99,-6.03 18.46,-28.47 42.51,-58.48 8.62,-10.44 19.64,-21.64 32.36,-31.4 67.05,-46.21 55.24,-34.98 119.75,-49.05 1.19,-0.22 2.36,-0.43 3.53,-0.62 47.76,-18.32 60.18,-25.16 64.685,-31.36 m -262.82,169.94 c 7.99,-8.04 17.36,-29.66 39.35,-61.29 7.86,-10.88 18.53,-22.78 31.33,-33.13 62.09,-44.16 57.82,-36.84 122.08,-44.99 1.2,-0.1 2.4,-0.2 3.58,-0.27 45.37,-15.49 59.344,-23.4 65.35,-31.67 m -261.66,170.38 c 9.98,-10.06 16.25,-30.84 36.18,-64.09 7.09,-11.33 17.42,-23.92 30.29,-34.86 57.13,-42.11 60.42,-38.72 124.43,-40.93 1.21,0.01 2.42,0.03 3.62,0.07 42.97,-12.66 58.51,-21.65 66.015,-31.98 m -260.52,170.82 c 11.98,-12.07 15.15,-32.03 33.03,-66.89 6.31,-11.78 16.31,-25.07 29.24,-36.59 52.18,-40.06 63.02,-40.59 126.77,-36.88 1.23,0.12 2.45,0.26 3.67,0.42 40.58,-9.83 57.67,-19.89 66.68,-32.3 m -259.37,171.28 c 13.98,-14.09 14.05,-33.23 29.87,-69.71 5.54,-12.22 15.2,-26.2 28.21,-38.31 47.22,-38.01 65.61,-42.46 129.11,-32.82 1.24,0.23 2.47,0.49 3.7,0.76 38.19,-7 56.84,-18.14 67.355,-32.61 M -353.2,579.86 c 15.98,-16.1 12.95,-34.42 26.71,-72.51 4.77,-12.67 14.09,-27.34 27.17,-40.05 42.27,-35.96 68.2,-44.33 131.45,-28.75 1.25,0.34 2.5,0.71 3.75,1.1 35.8,-4.17 56.01,-16.39 68.02,-32.92 m -257.07,172.16 c 17.97,-18.11 11.84,-35.61 23.54,-75.31 4.01,-13.13 12.99,-28.49 26.14,-41.78 37.3,-33.91 70.79,-46.2 133.78,-24.7 1.27,0.46 2.54,0.94 3.8,1.45 33.4,-1.33 55.17,-14.63 68.685,-33.24 m -255.92,172.61 c 19.97,-20.12 10.74,-36.79 20.38,-78.12 3.24,-13.57 11.88,-29.62 25.1,-43.5 32.35,-31.86 73.39,-48.07 136.13,-20.64 1.28,0.57 2.56,1.17 3.84,1.79 31.01,1.5 54.33,-12.88 69.35,-33.55 m -254.78,173.05 c 21.97,-22.14 9.64,-37.98 17.22,-80.92 2.47,-14.02 10.77,-30.77 24.07,-45.24 27.39,-29.8 75.98,-49.94 138.46,-16.58 1.29,0.69 2.59,1.4 3.89,2.14 28.61,4.33 53.5,-11.12 70.015,-33.86 m -244.66,196.3 c 0,0 34.01,-3.4 51.99,2.91 16.54,5.82 54.11,19.52 89.12,5.32 3.03,-1.23 6.05,-2.67 9.03,-4.35 27.7,-15.54 58.59,-48.99 56.37,-89.4 -0.64,-11.36 -1.89,-20.93 -3.01,-28.96 -2.46,-17.67 -4.28,-27.86 2.52,-33.24 10.38,-8.21 51.02,-13.12 51.506,-11.66 m -258.64,158.36 c 0,0 32.22,-4.09 50.43,0.31 16.67,4.11 52.87,15.13 86.69,0.95 2.98,-1.26 5.93,-2.71 8.85,-4.36 30.64,-17.63 58.18,-47.76 58.27,-85.79 -0.11,-10.61 -0.65,-19.67 -0.85,-27.46 -1.37,-16.59 -2.28,-26.29 4.53,-31.54 12.47,-9.21 49.965,-13.74 50.407,-12.41 m -259.43,159.29 c 0,0 30.43,-4.78 48.87,-2.31 16.78,2.41 51.62,10.75 84.25,-3.41 2.93,-1.29 5.82,-2.74 8.66,-4.37 33.59,-19.72 57.78,-46.54 60.19,-82.18 0.41,-9.86 0.57,-18.41 1.29,-25.96 -0.27,-15.5 -0.28,-24.72 6.56,-29.85 14.55,-10.19 48.9,-14.35 49.297,-13.16 m -260.23,160.22 c 0,0 28.64,-5.47 47.31,-4.91 16.91,0.71 50.38,6.36 81.82,-7.79 2.87,-1.32 5.7,-2.77 8.48,-4.38 36.53,-21.8 57.37,-45.3 62.09,-78.55 0.93,-9.12 1.81,-17.16 3.44,-24.47 0.82,-14.42 1.73,-23.15 8.58,-28.15 16.64,-11.19 47.845,-14.97 48.198,-13.91 m -261.02,161.14 c 0,0 26.85,-6.15 45.75,-7.52 17.02,-0.99 49.13,1.98 79.38,-12.15 2.82,-1.35 5.59,-2.81 8.3,-4.39 39.47,-23.89 56.96,-44.08 63.99,-74.94 1.46,-8.37 3.04,-15.89 5.59,-22.97 1.92,-13.34 3.73,-21.58 10.6,-26.46 18.73,-12.18 46.79,-15.58 47.099,-14.65 m -261.81,162.07 c 0,0 25.05,-6.85 44.18,-10.13 17.14,-2.7 47.89,-2.41 76.96,-16.52 2.76,-1.38 5.46,-2.84 8.1,-4.41 42.43,-25.96 56.56,-42.84 65.91,-71.32 1.98,-7.61 4.27,-14.63 7.73,-21.47 3.01,-12.26 5.74,-20.01 12.62,-24.76 20.82,-13.17 45.735,-16.2 46,-15.41 m -262.61,163 c 0,0 23.26,-7.53 42.63,-12.74 17.26,-4.39 46.64,-6.79 74.52,-20.89 2.7,-1.4 5.34,-2.87 7.92,-4.41 45.37,-28.05 56.16,-41.61 67.81,-67.71 2.51,-6.86 5.5,-13.37 9.88,-19.97 4.11,-11.18 7.74,-18.44 14.65,-23.07 22.9,-14.16 44.67,-16.81 44.891,-16.15 m -263.4,163.93 c 0,0 21.47,-8.22 41.06,-15.36 17.38,-6.09 45.4,-11.16 72.09,-25.25 2.65,-1.43 5.23,-2.91 7.74,-4.43 48.31,-30.13 55.75,-40.38 69.72,-64.08 3.02,-6.12 6.72,-12.11 12.02,-18.47 5.2,-10.11 9.75,-16.88 16.67,-21.38 24.99,-15.15 43.615,-17.43 43.791,-16.9 m -264.2,164.85 c 0,0 19.68,-8.91 39.51,-17.96 17.5,-7.79 44.15,-15.55 69.65,-29.62 2.6,-1.47 5.11,-2.94 7.55,-4.44 51.26,-32.22 55.35,-39.15 71.63,-60.47 3.55,-5.37 7.96,-10.85 14.17,-16.97 6.3,-9.03 11.76,-15.31 18.69,-19.69 27.07,-16.14 42.56,-18.05 42.692,-17.65 m -264.99,165.78 c 0,0 17.89,-9.59 37.94,-20.57 17.62,-9.49 42.91,-19.93 67.23,-33.99 2.53,-1.49 4.99,-2.97 7.36,-4.44 54.2,-34.31 54.94,-37.93 73.54,-56.86 4.07,-4.61 9.18,-9.59 16.31,-15.47 7.39,-7.94 13.76,-13.74 20.71,-17.99 29.16,-17.14 41.505,-18.67 41.593,-18.4 m -265.79,166.71 c 0,0 16.1,-10.29 36.39,-23.18 17.74,-11.2 41.67,-24.32 64.79,-38.36 2.48,-1.52 4.87,-3 7.18,-4.46 57.14,-36.38 54.53,-36.69 75.44,-53.24 4.59,-3.86 10.42,-8.32 18.46,-13.97 8.49,-6.86 15.77,-12.17 22.74,-16.3 31.242,-18.12 40.44,-19.28 40.484,-19.15 m -266.58,167.64 c 0,0 14.3,-10.97 34.82,-25.79 17.86,-12.89 40.43,-28.7 62.36,-42.72 2.43,-1.55 4.75,-3.04 6.99,-4.47 60.1,-38.47 54.13,-35.47 77.36,-49.62 5.11,-3.12 11.64,-7.07 20.61,-12.48 9.58,-5.78 17.76,-10.59 24.75,-14.6 33.331,-19.12 39.385,-19.9 39.385,-19.9"
         style="opacity:0.19230999;fill:none;stroke:#ee8128;stroke-width:2.0999999;filter:url(#filter18945)"
         id="path3214" />
      <ellipse
         ry="34.615734"
         rx="47.055763"
         cy="513.11395"
         cx="-240.68752"
         transform="translate(440.23,-391.97)"
         clip-path="url(#clipPath21027)"
         style="color:#000000;opacity:0.83846005;fill:url(#radialGradient12060);fill-rule:evenodd"
         id="path11083" />
      <path
         inkscape:connector-curvature="0"
         transform="translate(440.61,-352.17)"
         d="m -345.62,496.35 c 0,0 5.95,36.78 -1.08,48.13 -7.03,11.36 -1.08,38.95 -1.08,38.95 0,0 24.34,23.25 38.4,25.42 14.06,2.16 50.84,17.85 50.84,17.85 0,0 -13.52,-18.39 -37.32,-36.24 -23.79,-17.85 -26.5,-30.29 -30.29,-40.57 -3.78,-10.27 -9.73,-8.65 -11.89,-19.47 -2.17,-10.82 -7.04,-34.07 -7.58,-34.07 z"
         clip-path="url(#clipPath21023)"
         style="opacity:0.18845999;fill:#7d2900;fill-rule:evenodd;filter:url(#filter21009)"
         id="path20030" />
      <path
         inkscape:connector-curvature="0"
         transform="matrix(1.0935,0,0,1.2175,457.68,-450.04)"
         sodipodi:nodetypes="csscccc"
         clip-path="url(#clipPath21019)"
         d="m -187.68,422.25 c 0,0 -10.58,18 5.7,37.38 18.67,22.21 32.7,26.98 41.35,24.82 8.66,-2.17 25.97,-11.9 25.97,-11.9 l 18.926,-25.96 -19.476,-26.51 z"
         style="color:#000000;opacity:0.18845999;fill:#7d2900;fill-rule:evenodd;filter:url(#filter21009)"
         id="path21013" />
      <path
         inkscape:connector-curvature="0"
         transform="translate(440.61,-352.17)"
         d="m -240.25,417.88 c -49.47,0.06 -95.56,42.4 -97.5,92.24 -0.35,17.63 0.68,35.7 -4.03,52.74 -4.26,16.1 9.41,31.39 24.31,35.39 9.9,4.24 21.55,0.64 31.38,5.09 40.45,23.7 97.62,12.71 126.78,-24.31 22.06,-26.83 28.5,-65.61 15.53,-97.78 -3.53,-10.54 -3.02,-24.52 7.19,-31.19 6.37,-5.5 17.66,-4.31 21.56,-12.56 -4.41,-1.52 -7.28,-6.98 -12.63,-5.12 -8.29,1.99 -14.59,9.13 -23.53,9.09 -7.54,0.79 -16.06,1.69 -23.03,-1.38 -18.41,-14.96 -42.31,-22.87 -66.03,-22.21 z"
         clip-path="url(#clipPath21015)"
         style="color:#000000;fill:none;stroke:#3b0606;stroke-width:12.70199966;stroke-linecap:round;filter:url(#filter20026)"
         id="path13031" />
      <path
         inkscape:connector-curvature="0"
         d="m 98.114,216.8 -0.844,1.37 c -0.005,0.28 -0.039,0.55 -0.062,0.82 l -0.469,0.75 c -0.294,0.91 -0.616,1.83 -0.906,2.75 -0.084,0.11 -0.166,0.23 -0.25,0.34 -0.015,0.02 -0.017,0.05 -0.032,0.06 -1.263,0.16 -2.53,0.3 -3.812,0.13 -0.637,-0.15 -1.169,-0.47 -1.688,-0.85 l -0.718,1.47 c 0.542,0.39 1.12,0.72 1.781,0.88 0.3,0.04 0.577,0.05 0.875,0.06 -0.022,0.02 -0.041,0.07 -0.063,0.09 l -0.218,0.75 c -0.083,0.02 -0.168,0.02 -0.25,0.04 -0.142,-0.09 -0.297,-0.16 -0.438,-0.25 -0.215,-0.18 -0.457,-0.32 -0.687,-0.47 l 0.093,-0.28 c -0.064,0.07 -0.122,0.14 -0.187,0.21 -0.075,-0.05 -0.145,-0.1 -0.219,-0.15 -0.248,-0.18 -0.512,-0.33 -0.781,-0.47 -0.383,-0.25 -0.806,-0.31 -1.25,-0.34 -0.263,0 -0.519,0.02 -0.781,0.03 h -0.25 l -0.625,1.5 h 0.25 c 0.26,-0.01 0.521,-0.03 0.781,-0.03 0.423,0.02 0.823,0.06 1.187,0.31 0.261,0.13 0.543,0.27 0.782,0.44 0.042,0.03 0.082,0.06 0.125,0.09 l -0.219,0.69 c 0.151,-0.17 0.316,-0.33 0.469,-0.5 0.062,0.04 0.126,0.08 0.187,0.12 l -0.344,0.85 c 0.421,-0.1 0.858,-0.15 1.282,-0.22 0.271,0.15 0.537,0.26 0.812,0.37 -0.054,0.05 -0.101,0.11 -0.156,0.16 -0.322,0.23 -0.432,0.14 -0.75,0 -0.277,-0.13 -0.52,-0.05 -0.781,0 -0.376,0.19 -0.784,0.31 -1.188,0.44 -0.438,0.14 -0.897,0.25 -1.344,0.34 l -0.593,1.5 c 0.463,-0.07 0.925,-0.17 1.375,-0.34 0.415,-0.13 0.821,-0.24 1.218,-0.41 0.223,-0.07 0.363,-0.21 0.625,-0.09 0.334,0.15 0.549,0.3 0.907,0.09 0.524,-0.44 1.01,-0.93 1.468,-1.44 0.411,0.11 0.819,0.19 1.25,0.19 -0.037,0.11 -0.071,0.23 -0.093,0.34 -1.058,1.42 -2.229,2.75 -3.625,3.85 -0.491,0.36 -0.185,-0.02 -0.532,-0.07 -0.198,-0.07 -0.431,-0.02 -0.625,0 l -0.656,1.47 c 0.183,-0.01 0.399,0 0.594,-0.03 0.295,0.18 0.301,0.41 0.719,0.16 0.271,-0.21 0.525,-0.44 0.781,-0.66 l -0.563,1.5 c 1.744,-0.68 2.101,-0.86 2.625,-1.15 0.003,0.02 -0.002,0.04 0,0.06 l 0.063,-0.1 c 0.251,-0.14 0.642,-0.37 1.281,-0.75 -0.125,0.49 -0.236,0.99 -0.312,1.47 0.116,-0.16 0.228,-0.3 0.343,-0.47 -0.1,0.25 -0.396,0.95 -0.375,0.69 0.011,-0.07 0.02,-0.15 0.032,-0.22 -0.059,0.09 -0.098,0.17 -0.157,0.25 -0.057,0.12 -0.194,0.2 -0.281,0.28 l -0.562,1.5 c 0.105,-0.07 0.292,-0.06 0.343,-0.21 0.177,-0.26 0.369,-0.52 0.563,-0.75 0.344,-0.72 0.913,-1.4 0.937,-2.22 0.057,-0.36 0.049,-0.52 0.063,-0.72 0.478,-0.42 0.95,-0.86 1.375,-1.31 0.049,0.17 0.102,0.34 0.187,0.5 -0.159,0.25 -0.285,0.5 -0.437,0.75 -0.158,0.06 -0.334,0.1 -0.5,0.15 l -0.563,1.53 c 0.023,0 0.04,-0.02 0.063,-0.03 -0.13,0.3 -0.119,0.25 -0.219,0.47 -0.033,0.03 -0.061,0.07 -0.094,0.09 l -0.187,0.57 c -0.027,0.06 -0.07,0.13 -0.094,0.18 -0.146,0.06 -0.175,0.08 -0.531,0.22 l -0.563,1.5 c 0.287,-0.11 0.295,-0.1 0.438,-0.15 -0.079,0.25 -0.17,0.61 -0.375,1.34 l 0.875,-1.34 c 0.024,-0.08 0.039,-0.17 0.062,-0.25 0.18,-0.09 0.376,-0.2 1.125,-0.63 0.264,-0.2 0.522,-0.42 0.782,-0.62 l -0.344,1.06 c 0.103,-0.11 0.209,-0.21 0.312,-0.31 -0.162,0.35 -0.111,0.22 -0.437,0.93 l 0.469,-0.68 c 0.83,-0.03 0.933,-0.04 1.312,-0.1 -0.584,1.24 -0.8,1.65 -0.906,1.94 -0.019,0.01 -0.044,0.02 -0.063,0.03 l -0.468,1.53 c 0.104,-0.1 0.23,-0.16 0.343,-0.25 l -0.156,0.53 c 0.1,-0.22 0.197,-0.44 0.313,-0.65 0.353,-0.25 0.727,-0.5 1.125,-0.69 -0.002,0.04 0.001,0.08 0,0.13 0.035,0.39 0.089,0.79 0.125,1.18 l 0.812,-1.37 c -0.009,-0.13 -0.022,-0.25 -0.031,-0.38 0.186,-0.09 0.382,-0.18 0.562,-0.28 0.112,-0.07 0.204,-0.14 0.313,-0.22 0.121,0.18 0.231,0.35 0.312,0.5 -0.201,0.39 -0.456,0.88 -0.562,1.13 -0.018,0.13 0.007,0.25 0,0.37 -0.881,0.76 -1.766,1.51 -2.688,2.22 -0.252,0.19 -0.528,0.38 -0.781,0.56 l -0.5,1.54 c 0.254,-0.19 0.496,-0.38 0.75,-0.57 1.114,-0.86 2.19,-1.77 3.25,-2.68 0.079,0.5 0.221,1 0.406,1.5 -0.326,0.26 -0.692,0.47 -1.125,0.62 l -0.593,1.5 c 0.862,-0.25 1.461,-0.72 2.031,-1.44 0.552,-0.93 1.066,-1.99 1.566,-3.06 0.03,0.08 0.1,0.2 0.12,0.25 l -0.47,1.5 c 0.1,-0.1 0.19,-0.18 0.28,-0.28 0.16,-0.2 0.27,-0.42 0.41,-0.63 0,0.01 0.03,0 0.03,0 v 0.07 c 0.04,0.1 0.05,0.09 0.13,0.28 l 0.47,-0.81 c 0.15,0.07 0.33,0.14 0.53,0.18 -0.01,0.03 -0.03,0.04 -0.03,0.07 -0.12,0.15 -0.23,0.3 -0.35,0.46 l -0.28,0.91 c -1.63,0.8 -1.19,0.48 -2.781,1.69 l -0.5,1.53 c 1.711,-1.34 0.735,-0.69 3.031,-1.88 0.16,-0.03 0.31,-0.05 0.47,-0.09 0.05,0.11 0.1,0.21 0.16,0.31 l -0.5,1.38 c 0.86,-0.58 0.41,-0.22 1.37,-1.13 0.22,-0.26 0.44,-0.55 0.66,-0.87 0.11,-0.02 0.23,-0.05 0.34,-0.06 v 0.12 l 0.09,-0.12 c 0.08,-0.01 0.15,-0.03 0.22,-0.04 -0.22,0.54 -0.43,1.07 -0.62,1.63 0.01,0.33 0.02,0.67 0.03,1 l 0.81,-1.38 v -0.96 c -0.19,0.11 -0.13,-0.04 0.06,-0.32 0.53,-0.06 1.07,-0.13 1.6,-0.15 -0.11,1.1 -0.14,2.24 -0.22,3.37 l 0.84,-1.37 c 0.04,-0.64 0.07,-1.34 0.1,-2.03 1.87,-0.01 3.71,0.27 5.47,0.96 l 0.68,-1.43 c -0.9,-0.37 -1.83,-0.63 -2.78,-0.78 l 0.28,-0.69 c -0.18,-0.04 -0.37,-0.07 -0.56,-0.1 -0.16,-0.09 -0.32,-0.2 -0.47,-0.31 -0.07,-0.09 -0.14,-0.18 -0.25,-0.28 -0.19,-0.11 -0.38,-0.23 -0.56,-0.34 l 0.28,-0.6 c -0.38,0 -0.74,0.03 -1.06,0.1 0.07,-0.32 0.16,-0.65 0.19,-0.97 l -0.47,0.78 c -0.07,-0.05 -0.15,-0.08 -0.22,-0.13 l 0.25,-0.75 c -0.15,0.21 -0.26,0.45 -0.38,0.66 l -0.15,-0.09 c -0.09,-0.37 -0.18,-0.73 -0.25,-1.1 l -0.28,0.5 c -0.08,-0.34 -0.15,-0.69 -0.22,-1.03 l 0.12,-0.47 c 0.16,-0.35 0.31,-0.69 0.44,-1.06 l -0.69,1.09 c -0.05,-0.23 -0.11,-0.48 -0.15,-0.71 l -0.6,0.96 -0.06,-0.12 0.03,-0.06 0.03,-0.07 0.06,-0.09 c -0.17,-0.65 -0.35,-1.31 -0.5,-1.97 0.13,-0.27 0.14,-0.29 0.41,-0.87 l -0.47,0.68 c -0.06,-0.31 -0.09,-0.62 -0.12,-0.93 l -0.72,1.18 c -0.37,-0.72 -0.42,-0.82 -0.63,-1.12 l 0.44,-1.03 c -0.06,0.04 -0.12,0.08 -0.19,0.12 0.11,-0.29 0.21,-0.58 0.32,-0.87 l -0.79,1.19 c -0.14,0.1 -0.29,0.22 -0.43,0.34 -0.06,-0.1 -0.11,-0.21 -0.16,-0.31 0.03,-0.06 0.07,-0.13 0.09,-0.19 0.19,-0.21 0.38,-0.42 0.6,-0.59 l 0.56,-1.5 c -0.66,0.44 -1.15,1.07 -1.56,1.75 -0.05,-0.09 -0.08,-0.17 -0.13,-0.25 0.1,-0.24 0.18,-0.49 0.28,-0.72 0.2,-0.1 0.39,-0.17 0.6,-0.25 l 0.56,-1.53 c -0.61,0.24 -1.18,0.55 -1.72,0.87 0.02,-0.7 0.03,-1.4 0.03,-2.09 l 0.35,-1.07 c -0.35,0.54 -0.68,1.09 -0.97,1.66 -0.04,-0.34 -0.14,-0.33 -0.38,0.41 l 0.25,-0.78 c 0.07,-0.05 0.12,-0.12 0.19,-0.16 l 0.53,-1.5 c -0.57,0.38 -1.08,0.78 -1.56,1.22 -0.03,-0.14 -0.04,-0.27 -0.06,-0.41 l 0.5,-1.53 c -0.3,0.41 -0.56,0.83 -0.78,1.28 l 0.43,-1.12 c -0.43,0.29 -0.878,0.57 -1.341,0.81 -0.045,-0.07 -0.081,-0.15 -0.125,-0.22 0.117,-0.24 0.237,-0.47 0.344,-0.72 l -0.407,0.63 c -0.091,-0.15 -0.192,-0.29 -0.281,-0.44 0.034,-0.07 0.061,-0.15 0.094,-0.22 0.445,-0.39 0.872,-0.78 1.286,-1.22 l 0.53,-1.53 c -0.35,0.35 -0.732,0.67 -1.097,1 0.517,-1.46 0.927,-2.97 1.127,-4.56 l -0.877,1.34 c -0.096,1.38 -0.377,2.57 -0.782,3.69 -0.084,0.07 -0.164,0.15 -0.25,0.22 l 0.063,-0.22 0.25,-0.47 C 99.088,224.04 99.046,224 99.02,223.96 l 0.219,-0.47 c -0.124,0.04 -0.252,0.08 -0.375,0.12 -0.026,-0.04 -0.068,-0.08 -0.094,-0.12 l 0.344,-0.75 c -0.073,-0.01 -0.146,-0.03 -0.219,-0.03 l 0.063,-0.22 c -0.042,0.07 -0.083,0.14 -0.125,0.22 -0.166,-0.02 -0.335,-0.03 -0.5,-0.04 -0.071,-0.13 -0.153,-0.26 -0.219,-0.4 -0.018,-0.35 -0.038,-0.72 -0.094,-1.06 l -0.219,0.34 c -0.089,-0.23 -0.179,-0.48 -0.25,-0.72 l 0.407,-1.31 c -0.071,0.09 -0.149,0.18 -0.219,0.28 0.231,-0.98 0.368,-1.98 0.375,-3 z m -1,3.06 c -0.01,0.06 0.01,0.13 0,0.19 l -0.094,0.12 c 0.037,-0.1 0.057,-0.21 0.094,-0.31 z m -3.75,1.35 c -0.008,0 -0.422,0.15 -0.438,0.12 l -0.562,1.5 c 0.145,-0.03 0.298,-0.08 0.437,-0.12 z m 3.062,1.34 c 0.002,0.02 -0.001,0.04 0,0.06 -0.02,0.06 -0.041,0.13 -0.062,0.19 -0.003,-0.06 0,-0.13 0,-0.19 0.017,-0.02 0.046,-0.04 0.062,-0.06 z m -1.187,1.78 c 0.061,-0.01 0.126,0.01 0.187,0 -0.053,0.21 -0.081,0.31 -0.125,0.47 -0.032,0.01 -0.061,0.02 -0.093,0.03 0.011,-0.04 0.021,-0.08 0.031,-0.12 l -0.094,0.12 c -0.073,0.02 -0.145,0.05 -0.219,0.06 0.003,-0.03 0.03,-0.1 0.032,-0.12 -0.001,-0.02 0.001,-0.04 0,-0.06 -0.03,0.06 -0.088,0.12 -0.125,0.18 -0.061,0.02 -0.127,0.02 -0.188,0.03 0.153,-0.19 0.313,-0.37 0.469,-0.56 l -0.156,0.28 c 0.001,0.02 -0.001,0.04 0,0.07 0.093,-0.13 0.181,-0.25 0.281,-0.38 z m 1.219,0 c 0.016,0.04 0.045,0.08 0.062,0.13 -0.044,0.01 -0.081,0.04 -0.125,0.06 z m -2.188,0.13 c -0.185,0.23 -0.374,0.46 -0.562,0.68 -0.043,0.01 -0.083,0.03 -0.125,0.03 -0.462,0.06 -0.916,0.13 -1.375,0.19 0.075,-0.08 0.143,-0.17 0.218,-0.25 l 0.157,-0.53 c 0.566,-0.01 1.124,-0.06 1.687,-0.12 z m 1.344,0.18 c 0.006,0.02 0.024,0.04 0.031,0.07 -0.022,0 -0.04,0.02 -0.062,0.03 0.013,-0.03 0.019,-0.07 0.031,-0.1 z m 1.562,1.35 c 0.007,0.01 0.025,0.02 0.032,0.03 -0.031,0.02 -0.064,0.04 -0.094,0.06 0.024,-0.03 0.038,-0.07 0.062,-0.09 z m -2.75,1.72 c 0.031,-0.01 0.064,0 0.094,0 -0.054,0.09 -0.079,0.17 -0.125,0.25 -0.034,0.04 -0.059,0.08 -0.094,0.12 v 0.03 c -0.059,0.06 -0.13,0.1 -0.187,0.16 0.113,-0.18 0.203,-0.38 0.312,-0.56 z m 2.438,0.03 c 0.009,0.05 0.022,0.1 0.031,0.15 -0.084,0.04 -0.166,0.09 -0.25,0.13 0.077,-0.09 0.14,-0.19 0.219,-0.28 z m 4.216,0.65 c -0.08,0.21 -0.15,0.42 -0.22,0.63 -0.02,0.03 -0.06,0.06 -0.09,0.09 -0.02,-0.1 -0.04,-0.21 -0.06,-0.31 l 0.06,-0.16 c 0.1,-0.08 0.2,-0.17 0.31,-0.25 z m -5.966,0.22 c 0.122,0 0.209,0.09 0.25,0.28 -0.515,0.6 -0.911,1.3 -1.219,2.03 -0.508,0.31 -0.831,0.49 -1.062,0.63 -0.108,-1.13 -0.115,-1.21 0.75,-1.94 v -0.03 c 0.009,-0.01 0.021,-0.02 0.031,-0.03 0.198,-0.17 0.384,-0.29 0.687,-0.56 0.193,-0.13 0.371,-0.25 0.563,-0.38 z m 1.969,0.44 -0.032,0.06 c -0.008,-0.01 -0.022,-0.02 -0.031,-0.03 0.022,-0.01 0.041,-0.02 0.063,-0.03 z m -1.625,0.75 c 0.001,0.01 -0.002,0.02 0,0.03 -0.174,0.17 -0.349,0.34 -0.532,0.5 0.129,-0.15 0.214,-0.23 0.407,-0.47 0.04,-0.02 0.084,-0.04 0.125,-0.06 z m -2.563,0.22 c -0.305,0.62 -0.485,1.29 -0.562,1.97 -0.36,0.18 -0.68,0.32 -2.063,0.87 0.985,-0.85 1.841,-1.8 2.625,-2.84 z m 9.345,1.15 c -0.04,0.08 -0.06,0.15 -0.09,0.22 -0.03,-0.04 -0.07,-0.08 -0.1,-0.12 0.06,-0.04 0.13,-0.06 0.19,-0.1 z m -5.251,1.22 c 0.02,0.04 0.043,0.09 0.062,0.13 -0.066,0.14 -0.071,0.17 -0.125,0.28 -0.329,0.29 -0.692,0.54 -1.031,0.81 0.386,-0.39 0.743,-0.8 1.094,-1.22 z m 0.5,1.38 c 0.049,0.2 0.076,0.39 0.125,0.59 -0.311,0.05 -0.669,0.09 -0.844,0.1 0.235,-0.24 0.486,-0.45 0.719,-0.69 z m 1.219,0.22 c 0.01,0.02 0.02,0.04 0.031,0.06 -0.04,0.01 -0.085,0.02 -0.125,0.03 0.029,-0.03 0.065,-0.06 0.094,-0.09 z m 5.442,0.78 c 0.01,0.1 0.04,0.21 0.06,0.31 -0.03,0.04 -0.07,0.08 -0.1,0.13 -0.01,-0.05 -0.04,-0.09 -0.06,-0.13 z m -4.161,0.31 c 0.031,0.08 0.081,0.15 0.121,0.22 v 0.03 c -0.11,0.09 -0.223,0.19 -0.34,0.28 l 0.188,-0.28 c -0.001,-0.07 0,-0.14 0,-0.22 z m -0.719,0.09 -0.094,0.13 c -0.016,0.1 -0.021,0.21 -0.031,0.31 -0.212,0.06 -0.417,0.14 -0.531,0.22 0.16,-0.18 0.313,-0.38 0.469,-0.56 0.066,-0.03 0.122,-0.07 0.187,-0.1 z m -1.781,0.6 c -0.027,0.11 -0.038,0.23 -0.063,0.34 -0.28,0.32 -0.522,0.65 -0.75,1 0.045,-0.13 0.119,-0.35 0.125,-0.37 0.181,-0.32 0.368,-0.64 0.563,-0.94 0.037,-0.01 0.022,0.01 0.062,0 0.023,-0.01 0.04,-0.03 0.063,-0.03 z m 1,0.19 c -0.104,0.14 -0.127,0.32 -0.094,0.5 -0.136,0.06 -0.269,0.15 -0.406,0.21 0.005,-0.06 -0.007,-0.12 0,-0.18 0.165,-0.18 0.338,-0.35 0.5,-0.53 z m 1.911,0.37 c -0.01,0.16 -0.01,0.31 0,0.47 -0.05,-0.07 -0.11,-0.15 -0.16,-0.22 0.05,-0.08 0.1,-0.16 0.16,-0.25 z m -0.911,0.63 c 0.032,0.05 0.061,0.1 0.094,0.15 -0.095,0.18 -0.133,0.28 -0.219,0.44 -0.105,0.05 -0.191,-0.05 -0.344,-0.25 0.159,-0.11 0.316,-0.23 0.469,-0.34 z m 3.661,1.15 c 0.02,0.1 0.06,0.19 0.09,0.28 -0.01,0.03 -0.05,0.04 -0.06,0.07 -0.02,-0.01 -0.08,-0.06 -0.1,-0.07 l -0.06,-0.09 z m -3.692,0.06 c 0.106,0.05 0.225,0.11 0.343,0.16 -0.122,0.11 -0.251,0.2 -0.375,0.31 -0.005,-0.15 0.021,-0.31 0.032,-0.47 z m 1.152,0.54 c 0.04,0.05 0.06,0.1 0.1,0.15 0.02,0.11 0.03,0.21 0.06,0.31 0.01,0.03 0.02,0.01 0.03,0.04 -0.29,0.64 -0.61,1.28 -0.967,1.9 -0.132,0.18 -0.266,0.35 -0.407,0.5 l 0.469,-0.87 c -0.134,-0.37 -0.229,-0.73 -0.312,-1.1 0.347,-0.31 0.687,-0.62 1.027,-0.93 z m 3.97,0.93 c 0.03,0.03 0.07,0.04 0.1,0.07 0.03,0.05 0.06,0.1 0.09,0.15 -0.04,0.08 -0.08,0.15 -0.12,0.22 -0.04,-0.17 -0.04,-0.31 -0.07,-0.44 z m 0.41,0.57 0.03,0.06 h -0.06 z m -2.13,0.21 c 0.13,0.12 0.25,0.21 0.38,0.32 0.03,0.04 0.06,0.09 0.09,0.12 0.01,0.11 0.03,0.2 0.07,0.28 -0.23,0.05 -0.44,0.11 -0.66,0.16 -0.07,-0.19 -0.1,-0.4 -0.09,-0.59 0.06,-0.1 0.15,-0.19 0.21,-0.29 z"
         style="color:#000000;fill:url(#radialGradient7342);fill-rule:evenodd"
         id="path3187" />
      <path
         inkscape:connector-curvature="0"
         d="m 94.981,223.87 c -0.508,-0.01 -0.993,0.12 -1.468,0.28 l -0.719,1.87 c -0.272,0.06 -0.543,0.1 -0.813,0.16 l -0.718,1.87 c 1.067,-0.24 2.145,-0.51 3.25,-0.47 l 0.781,-1.87 c -0.786,-0.03 -1.577,0.13 -2.344,0.28 0.403,-0.15 0.813,-0.28 1.25,-0.28 z m 2.625,0.25 c -0.289,0.29 -0.554,0.6 -0.843,0.9 l -0.625,1.91 c 0.296,-0.3 0.579,-0.58 0.875,-0.88 z m 1.063,1.84 c -0.971,0.67 -1.884,1.45 -2.781,2.22 l 0.343,-0.88 c -1.394,0.45 -2.758,0.97 -4.093,1.57 l -0.688,1.9 c 0.661,-0.3 1.325,-0.58 2,-0.84 l -0.594,1.44 c 1.034,0.05 2.077,-0.06 3.094,-0.25 l -0.906,1.78 c 0.993,0.65 2.045,0.87 3.156,0.68 l -0.344,1.04 c 1.467,-1.43 2.664,-2.74 3.344,-4.75 l -1.12,1.68 c 1.2,-2.1 0.29,-1.05 -0.599,0 -0.896,0.27 -1.747,0.31 -2.562,0.03 0.508,-0.67 1.062,-1.32 1.75,-1.84 l 0.656,-1.91 c -1.092,0.81 -1.931,1.87 -2.656,3 l -0.156,0.57 c -0.181,-0.09 -0.355,-0.2 -0.532,-0.32 0.093,-0.01 0.189,-0.01 0.282,-0.03 l 0.75,-1.87 c -0.277,0.05 -0.565,0.08 -0.844,0.12 0.603,-0.49 1.213,-0.95 1.844,-1.4 z m 2.341,6.25 c -0.74,0.82 -1.239,1.77 -1.685,2.75 -0.248,-0.03 -0.514,-0.07 -0.781,-0.16 l -0.844,1.85 c 0.279,0.09 0.554,0.15 0.813,0.18 -0.031,0.08 -0.064,0.15 -0.094,0.22 l 0.156,-0.22 c 0.326,0.04 0.646,0.06 0.969,0 l -0.375,1.29 c 0.327,-0.61 0.686,-1.13 1.161,-1.5 0.04,-0.02 0.07,-0.05 0.12,-0.07 l 0.03,-0.06 c 0.3,-0.21 0.64,-0.38 1.06,-0.47 l 0.75,-1.87 c -0.52,0.1 -0.94,0.29 -1.31,0.56 -0.42,0.16 -0.82,0.27 -1.217,0.28 0.237,-0.38 0.467,-0.7 0.627,-0.84 z m 2.19,3.56 c -0.8,0.53 -1.65,0.76 -2.59,0.78 l -0.785,1.88 c 0.805,0 1.565,-0.17 2.285,-0.5 -0.35,0.7 -0.61,1.46 -0.91,2.12 l 1.09,-1.68 c -1.28,2.44 -0.02,-0.18 0.88,-0.44 -0.16,0.3 -0.32,0.59 -0.47,0.9 -0.07,0.05 -0.15,0.08 -0.22,0.13 l -0.53,1.56 c -0.06,0.14 -0.13,0.27 -0.19,0.41 l 0.07,-0.06 c 0.16,-0.12 0.33,-0.21 0.5,-0.32 -0.05,0.12 -0.09,0.23 -0.13,0.35 l 0.28,-0.44 c 0.75,-0.47 1.5,-0.88 2.31,-1.22 -0.41,0.43 -0.83,0.86 -1.28,1.25 l -0.65,1.91 c 0.95,-0.61 1.57,-1.56 2.34,-2.38 l 0.66,-1.9 c -0.28,0.29 -0.54,0.58 -0.82,0.87 l 0.66,-1.72 c -0.71,0.27 -1.38,0.6 -2.03,0.97 0.11,-0.3 0.24,-0.6 0.34,-0.91 l -0.56,0.88 0.53,-1.63 c -0.22,0.3 -0.41,0.62 -0.59,0.94 l 0.59,-1.5 c -0.42,0.15 -0.77,0.37 -1.06,0.66 z m 3.91,3.38 c -0.7,0.48 -1.38,1 -2.13,1.4 l -0.69,1.91 c 0.76,-0.38 1.47,-0.87 2.1,-1.44 z"
         style="color:#000000;opacity:0.93462004;fill:#552200;fill-rule:evenodd"
         id="path4342" />
      <path
         inkscape:connector-curvature="0"
         d="m 313.97,80.166 c 0,0 0.4,-1.117 -12.78,5.739 -10.77,5.596 -20.5,3.475 -20.5,3.475 0,0 9.35,3.004 23.69,-3.03 7.73,-3.253 13.07,-3.432 13.07,-3.432 0.6,-1.725 -2.33,-3.653 -3.48,-2.752 z"
         style="fill:#a05a2c;fill-rule:evenodd;filter:url(#filter11253)"
         sodipodi:nodetypes="cscscc"
         id="path10282" />
      <path
         inkscape:connector-curvature="0"
         d="m 120.77,121.59 c 0,0 -10.51,19.28 -11.68,42.07 -1.17,22.78 -3.05,26.38 -3.51,35.05 -0.43,8.18 -4.67,18.7 -4.67,18.7 0,0 14.92,-23.69 12.32,-42.55 -0.93,-6.81 0.53,-28.9 7.54,-53.27 z"
         style="color:#000000;opacity:0.85768995;fill:url(#linearGradient13303);fill-rule:evenodd;filter:url(#filter12312)"
         sodipodi:nodetypes="csscsc"
         id="path11257" />
      <path
         inkscape:connector-curvature="0"
         d="m 209.18,68.709 c 0,0 14.01,-2.261 33.45,7.684 19.43,9.945 23.05,16.273 28.47,16.273 5.43,0 -0.45,5.424 -9.49,1.808 -9.04,-3.616 -28,-18.06 -33,-18.985 -26.16,-4.837 -44.3,-3.164 -44.3,-3.164 z"
         style="color:#000000;opacity:0.85768995;fill:url(#linearGradient12326);fill-rule:evenodd;filter:url(#filter12312)"
         sodipodi:nodetypes="csssscc"
         id="path12316" />
      <path
         inkscape:connector-curvature="0"
         d="m -148.11,505.73 c 13.37,-2.68 -2.06,91.13 -66.9,104.42 -61.48,12.6 -60.12,-8.59 -78.65,-10.85 -18.53,-2.26 -35.26,-0.91 -35.26,-0.91 0,0 11.94,-1.34 23.51,-3.61 23.05,-4.52 72.94,7.62 93.57,-3.62 45.65,-24.86 64.19,-85.43 63.73,-85.43 z"
         transform="matrix(1.0403,0,0,1,453.86,-352.17)"
         style="color:#000000;opacity:0.40769001;fill:#552200;fill-rule:evenodd;filter:url(#filter12312)"
         sodipodi:nodetypes="csscssc"
         id="path12318" />
    </g>
  </g>
  <metadata
     id="metadata65">
    <rdf:RDF>
      <cc:Work>
        <dc:format>image/svg+xml</dc:format>
        <dc:type
           rdf:resource="http://purl.org/dc/dcmitype/StillImage" />
        <cc:license
           rdf:resource="http://creativecommons.org/publicdomain/zero/1.0/" />
        <dc:publisher>
          <cc:Agent
             rdf:about="http://openclipart.org/">
            <dc:title>OpenClipart</dc:title>
          </cc:Agent>
        </dc:publisher>
        <dc:title>Onion</dc:title>
        <dc:date>2007-08-10T08:23:25</dc:date>
        <dc:description />
        <dc:source>https://openclipart.org/detail/4748</dc:source>
        <dc:creator>
          <cc:Agent>
            <dc:title>Chrisdesign</dc:title>
          </cc:Agent>
        </dc:creator>
        <dc:subject>
          <rdf:Bag>
            <rdf:li>brown</rdf:li>
            <rdf:li>food</rdf:li>
            <rdf:li>nature</rdf:li>
            <rdf:li>onion</rdf:li>
            <rdf:li>photorealistic</rdf:li>
            <rdf:li>plant</rdf:li>
          </rdf:Bag>
        </dc:subject>
      </cc:Work>
      <cc:License
         rdf:about="http://creativecommons.org/publicdomain/zero/1.0/">
        <cc:permits
           rdf:resource="http://creativecommons.org/ns#Reproduction" />
        <cc:permits
           rdf:resource="http://creativecommons.org/ns#Distribution" />
        <cc:permits
           rdf:resource="http://creativecommons.org/ns#DerivativeWorks" />
      </cc:License>
    </rdf:RDF>
  </metadata>
</svg>
