<?xml version="1.0" encoding="UTF-8" standalone="no"?>
<svg
   xmlns:dc="http://purl.org/dc/elements/1.1/"
   xmlns:cc="http://creativecommons.org/ns#"
   xmlns:rdf="http://www.w3.org/1999/02/22-rdf-syntax-ns#"
   xmlns:svg="http://www.w3.org/2000/svg"
   xmlns="http://www.w3.org/2000/svg"
   xmlns:sodipodi="http://sodipodi.sourceforge.net/DTD/sodipodi-0.dtd"
   xmlns:inkscape="http://www.inkscape.org/namespaces/inkscape"
   version="1.1"
   id="Layer_1"
   x="0px"
   y="0px"
   viewBox="0 0 256 256"
   enable-background="new 0 0 1920 1407"
   xml:space="preserve"
   sodipodi:docname="peas.svg"
   inkscape:version="0.92.4 (5da689c313, 2019-01-14)"
   width="256"
   height="256"><title
   id="title1195">Peas</title><metadata
   id="metadata772"><rdf:RDF><cc:Work
       rdf:about=""><dc:format>image/svg+xml</dc:format><dc:type
         rdf:resource="http://purl.org/dc/dcmitype/StillImage" /><dc:title>Peas</dc:title><cc:license
         rdf:resource="http://creativecommons.org/publicdomain/zero/1.0/" /><dc:creator><cc:Agent><dc:title>GDJ</dc:title></cc:Agent></dc:creator><dc:source>https://openclipart.org/detail/228333</dc:source></cc:Work><cc:License
       rdf:about="http://creativecommons.org/publicdomain/zero/1.0/"><cc:permits
         rdf:resource="http://creativecommons.org/ns#Reproduction" /><cc:permits
         rdf:resource="http://creativecommons.org/ns#Distribution" /><cc:permits
         rdf:resource="http://creativecommons.org/ns#DerivativeWorks" /></cc:License></rdf:RDF></metadata><defs
   id="defs770" /><sodipodi:namedview
   pagecolor="#ffffff"
   bordercolor="#666666"
   borderopacity="1"
   objecttolerance="10"
   gridtolerance="10"
   guidetolerance="10"
   inkscape:pageopacity="0"
   inkscape:pageshadow="2"
   inkscape:window-width="1920"
   inkscape:window-height="1025"
   id="namedview768"
   showgrid="false"
   inkscape:zoom="0.11195857"
   inkscape:cx="-887.16328"
   inkscape:cy="-1312.8457"
   inkscape:window-x="-8"
   inkscape:window-y="-8"
   inkscape:window-maximized="1"
   inkscape:current-layer="Layer_1"
   fit-margin-top="0"
   fit-margin-left="0"
   fit-margin-right="0"
   fit-margin-bottom="0" />






























<g
   id="g663"
   transform="matrix(1.56319,0,0,1.56319,-938.51732,-1999.7221)">
	<path
   d="m 708.4,1348.6 c 5.8,-1.8 11.8,-1.3 17.8,-1.9 10.5,-1 21.4,2.7 28.6,10.5 8.3,8.6 11.9,22.2 6.8,33.2 -4.2,9.4 -14,14.9 -23.8,16.5 h -4.4 c -12.7,-1.7 -23.8,-9.8 -31.4,-19.9 -4.7,-6.3 -8.3,-14.2 -7.5,-22.2 0.7,-7.5 6.6,-14.1 13.9,-16.2 m 7.6,2.2 0.5,0.2 c -7.3,0.7 -14.5,6 -15.9,13.5 -1.9,10.1 3,20.1 9.4,27.6 6,6.8 14.6,12.3 24,11.8 5.5,0 10.3,-2.9 14.6,-5.9 v -0.4 c 5.1,-4.5 9.7,-10.3 10.4,-17.2 2,-10.7 -5.5,-20.8 -14.6,-25.7 -8.5,-5.2 -18.9,-5.7 -28.4,-3.9 z"
   id="path647"
   inkscape:connector-curvature="0"
   style="fill:#000200;stroke:#000200;stroke-width:0.39399999" />
	<path
   d="m 612.3,1316.4 c 7.5,-2.3 15.3,-0.1 22.9,0.8 8,0.8 15.7,4.6 20.9,10.7 8.2,9.4 10.5,23.2 6.6,35 -2.3,6.6 -5.8,12.9 -10.8,17.8 -3.9,3.7 -9.3,6.2 -14.8,5.7 -6.3,-0.5 -11.8,-4.1 -16.5,-8 -8.5,-7.5 -15.7,-16.9 -18.9,-27.9 -2.2,-7.1 -0.8,-14.7 1.2,-21.7 1.5,-4.9 4.2,-10.4 9.4,-12.4 m 1,6.3 v 0.3 c -6.4,2.6 -10,9.4 -9.9,16.1 -0.5,12 5.3,23.6 13,32.5 5,5.6 11.8,10.6 19.6,10.6 6.1,0 11.8,-3.9 14.8,-9.1 2.4,-3 4,-6.4 5.5,-9.8 2.3,-5.6 4.8,-11.6 4.1,-17.8 -1.4,-6.5 -4.8,-12.2 -7.9,-17.9 -1.3,-2.9 -4.7,-3.5 -7.3,-4.7 -10.2,-4.2 -21.7,-4.1 -31.9,-0.2 z"
   id="path649"
   inkscape:connector-curvature="0"
   style="fill:#000300;stroke:#000300;stroke-width:0.39399999" />
	<path
   d="m 613.3,1322.7 c 10.2,-3.8 21.7,-3.9 31.9,0.2 -2.1,1.7 -4.6,3.2 -5.6,5.8 -1.8,4.2 -2.9,8.6 -4.4,12.9 -3.3,-2 -6.3,-4.7 -10.3,-5.2 -3.1,2.5 -3.1,7.1 -1.8,10.6 2.8,7.4 8.2,13.4 12.1,20.3 -13.8,-10 -24.4,-26.7 -21.9,-44.2 z"
   id="path651"
   inkscape:connector-curvature="0"
   style="fill:#b6fc23;stroke:#b6fc23;stroke-width:0.39399999" />
	<path
   d="m 603.4,1339.1 c -0.1,-6.7 3.5,-13.5 9.9,-16.1 -2.6,17.5 8.1,34.3 21.9,44.2 -3.9,-6.8 -9.3,-12.8 -12.1,-20.3 -1.3,-3.5 -1.2,-8 1.8,-10.6 3.9,0.5 7,3.2 10.3,5.2 1.5,-4.3 2.6,-8.7 4.4,-12.9 1,-2.6 3.5,-4.1 5.6,-5.8 2.6,1.2 6,1.8 7.3,4.7 3.1,5.7 6.6,11.5 7.9,17.9 0.7,6.2 -1.8,12.2 -4.1,17.8 -1.5,3.4 -3.1,6.9 -5.5,9.8 l 0.6,-1.3 c -2.4,1.5 -4.4,4 -7.4,4.2 -6.2,0.7 -12.3,-1.5 -17.6,-4.5 -3.8,-2.1 -6.3,-5.7 -9.7,-8.3 -3.4,-2.7 -5.5,-6.5 -8,-10 -2.9,-4.1 -2.9,-9.5 -5.3,-14 z"
   id="path653"
   inkscape:connector-curvature="0"
   style="fill:#39c30d;stroke:#39c30d;stroke-width:0.39399999" />
	<path
   d="m 716,1350.8 c 9.5,-1.8 19.9,-1.3 28.4,3.8 9,4.9 16.6,15 14.6,25.7 -2.2,-5.5 -4.3,-11.4 -9.1,-15.2 -4,-3.1 -8.5,-5.6 -12.8,-8.2 3,4.2 6.4,8 9.2,12.3 -7.7,-4.5 -16,-9.9 -25.4,-8 9.9,1.9 19.7,7.1 24.7,16.2 3.5,5.5 4.3,12.3 3.1,18.7 -2.3,1.6 -5.3,4.5 -8.1,2.4 -5,-3.3 -10.7,-5.6 -15.3,-9.6 -5.8,-3.7 -11.5,-8 -15.4,-13.9 -3,-5.5 -3.3,-12.5 -0.5,-18.2 1.2,-3.8 5.7,-3.9 8.8,-5.2 -0.4,-0.1 -1.3,-0.4 -1.8,-0.6 z"
   id="path655"
   inkscape:connector-curvature="0"
   style="fill:#39c30d;stroke:#39c30d;stroke-width:0.39399999" />
	<path
   d="m 603.4,1339.1 c 2.4,4.5 2.4,10 5.3,14.2 2.4,3.5 4.6,7.3 8,10 3.4,2.6 5.9,6.2 9.7,8.3 5.3,3 11.4,5.2 17.6,4.5 3,-0.3 5,-2.7 7.4,-4.2 l -0.6,1.3 c -3,5.2 -8.7,9.1 -14.8,9.1 -7.9,0 -14.6,-5.1 -19.6,-10.6 -7.7,-9 -13.5,-20.6 -13,-32.6 z"
   id="path657"
   inkscape:connector-curvature="0"
   style="fill:#53a71d;stroke:#53a71d;stroke-width:0.39399999" />
	<path
   d="m 700.6,1364.4 c 1.4,-7.5 8.6,-12.8 15.9,-13.5 0.4,0.2 1.3,0.5 1.8,0.6 -3.1,1.4 -7.6,1.5 -8.8,5.2 -2.8,5.7 -2.5,12.6 0.5,18.2 3.9,5.8 9.5,10.1 15.4,13.9 4.5,4 10.2,6.3 15.3,9.6 2.8,2.1 5.8,-0.8 8.1,-2.4 0,0.4 0,1.1 0,1.5 v 0.4 c -4.3,3 -9.1,5.9 -14.6,5.9 -9.4,0.5 -18,-5 -24,-11.8 -6.6,-7.4 -11.5,-17.4 -9.6,-27.6 z"
   id="path659"
   inkscape:connector-curvature="0"
   style="fill:#53a61d;stroke:#53a61d;stroke-width:0.39399999" />
	<path
   d="m 737.1,1356.9 c 4.3,2.6 8.8,5.1 12.8,8.2 4.8,3.8 6.9,9.8 9.1,15.2 -0.7,6.9 -5.3,12.7 -10.4,17.2 0,-0.4 0,-1.1 0,-1.5 1.3,-6.4 0.5,-13.2 -3.1,-18.7 -5,-9.1 -14.8,-14.3 -24.7,-16.2 9.4,-1.8 17.7,3.5 25.4,8 -2.7,-4.2 -6.1,-8 -9.1,-12.2 z"
   id="path661"
   inkscape:connector-curvature="0"
   style="fill:#b5fc23;stroke:#b5fc23;stroke-width:0.39399999" />
</g>

</svg>