<?xml version="1.0" encoding="UTF-8" standalone="no"?>
<svg
   xmlns:dc="http://purl.org/dc/elements/1.1/"
   xmlns:cc="http://creativecommons.org/ns#"
   xmlns:rdf="http://www.w3.org/1999/02/22-rdf-syntax-ns#"
   xmlns:svg="http://www.w3.org/2000/svg"
   xmlns="http://www.w3.org/2000/svg"
   xmlns:sodipodi="http://sodipodi.sourceforge.net/DTD/sodipodi-0.dtd"
   xmlns:inkscape="http://www.inkscape.org/namespaces/inkscape"
   version="1.1"
   id="Layer_1"
   x="0px"
   y="0px"
   viewBox="0 0 256 256"
   enable-background="new 0 0 1920 1407"
   xml:space="preserve"
   sodipodi:docname="pepper_bell_02.svg"
   inkscape:version="0.92.4 (5da689c313, 2019-01-14)"
   width="256"
   height="256"><title
   id="title1197">Bell Pepper</title><metadata
   id="metadata772"><rdf:RDF><cc:Work
       rdf:about=""><dc:format>image/svg+xml</dc:format><dc:type
         rdf:resource="http://purl.org/dc/dcmitype/StillImage" /><dc:title>Bell Pepper</dc:title><cc:license
         rdf:resource="http://creativecommons.org/publicdomain/zero/1.0/" /><dc:creator><cc:Agent><dc:title>GDJ</dc:title></cc:Agent></dc:creator><dc:source>https://openclipart.org/detail/228333</dc:source></cc:Work><cc:License
       rdf:about="http://creativecommons.org/publicdomain/zero/1.0/"><cc:permits
         rdf:resource="http://creativecommons.org/ns#Reproduction" /><cc:permits
         rdf:resource="http://creativecommons.org/ns#Distribution" /><cc:permits
         rdf:resource="http://creativecommons.org/ns#DerivativeWorks" /></cc:License></rdf:RDF></metadata><defs
   id="defs770" /><sodipodi:namedview
   pagecolor="#ffffff"
   bordercolor="#666666"
   borderopacity="1"
   objecttolerance="10"
   gridtolerance="10"
   guidetolerance="10"
   inkscape:pageopacity="0"
   inkscape:pageshadow="2"
   inkscape:window-width="1920"
   inkscape:window-height="1025"
   id="namedview768"
   showgrid="false"
   inkscape:zoom="0.31666667"
   inkscape:cx="-110.14145"
   inkscape:cy="243.36545"
   inkscape:window-x="-8"
   inkscape:window-y="-8"
   inkscape:window-maximized="1"
   inkscape:current-layer="Layer_1"
   fit-margin-top="0"
   fit-margin-left="0"
   fit-margin-right="0"
   fit-margin-bottom="0" />























<g
   id="g322"
   transform="matrix(0.68671044,0,0,0.68671044,-212.91368,-473.19014)">
	<path
   d="m 503.3,694.4 c 7.2,-2.9 14.9,-3.5 22.4,-5.1 2.5,9.7 1.4,19.9 0.5,29.7 -1.4,12.8 -3.4,25.6 -7,38 3.6,-4.4 8.1,-8.5 13.8,-10.1 10.5,-3.2 21.7,0.7 30.3,6.9 -4.5,-2.1 -9.2,-4.4 -14.3,-4 -11,0.8 -20.6,7 -29.9,12.3 -1.3,0.7 -2.6,1.3 -3.8,2 0.1,-0.8 0.3,-2.4 0.5,-3.2 2.2,-14.3 2.5,-28.8 4,-43.1 0.7,-7.8 4.9,-14.8 5.2,-22.7 -3.8,0.2 -7.5,0.7 -11.2,1.2 -3.2,0.4 -7,0.5 -9.4,2.9 -1.1,1.7 -0.7,3.9 -0.8,5.9 0.8,22.2 -3.3,44.8 -13.4,64.7 -16.3,-3.7 -30.5,-13.2 -46.7,-17.1 -7.5,-1.8 -15.4,-2.1 -22.8,-0.1 -6.7,1.7 -12.6,6.1 -15.8,12.2 -3.4,6 -5,13 -9.4,18.4 -2.3,3 -5.8,4.7 -9.1,6.4 -2.8,1.2 -5.7,2.2 -8.3,3.8 -11.2,6.7 -16.8,19.4 -19.5,31.7 -4,19.5 -3.1,39.6 -0.4,59.2 3.3,22 9.6,43.6 19.1,63.8 5.4,10.8 11,21.8 19.5,30.7 4.8,5.3 8.6,11.3 12.5,17.3 8.8,14.1 16.2,29.3 28.1,41.2 6.6,6.5 14.3,12.3 23.5,14.3 8.9,2 18.1,0 26.5,-3.1 2.9,-1 5.6,-2.5 8.7,-3 3.5,-0.3 6.9,0.8 10.2,2 8.4,3.6 16.3,9.3 25.9,9.1 14.4,-0.2 29.3,-2.7 41.5,-10.7 11.5,-7.3 21.2,-17.8 26.5,-30.5 7.3,-17.3 13.9,-34.8 19.1,-52.8 7.1,-22.5 11.9,-45.8 14.5,-69.3 1.8,-16.3 1.5,-32.7 1.4,-49.1 -0.2,-5.9 -0.6,-11.8 -1.3,-17.6 -1.1,-11.7 -3.8,-23.4 -9.1,-34 -5.1,-10.1 -14.5,-18.4 -25.7,-20.5 -6.7,-1.5 -13.6,0 -19.2,3.9 -2,0.6 -4,1 -6,1.2 -3.5,-5.4 -4,-12 -6.5,-17.8 -1,-1.6 -2.1,-3.2 -3.2,-4.7 5.1,4.2 9.4,9.3 12.4,15.2 10.1,1.6 20.5,-0.8 30.5,1.6 16.3,6.6 29.7,21.3 32.8,38.9 6.1,39 0.7,78.9 -9.2,116.8 -5.3,20.9 -11.7,41.4 -17.3,62.2 -3.7,13.3 -7.8,26.8 -15.6,38.4 -5.9,9 -14.1,16.3 -23.1,22.1 -11.4,7.2 -24.8,12.8 -38.5,11.6 -13.2,-1 -23.7,-11.4 -37,-11.9 -6.6,-0.3 -11.5,4.6 -17.6,6.3 -7.8,2.4 -16.4,4.6 -24.5,1.8 -11.9,-4 -21.8,-12.3 -30.1,-21.5 -5.1,-5.9 -9.9,-12.4 -12.1,-19.9 -2.2,-7.3 -6.8,-13.5 -11.6,-19.3 -7.8,-9.5 -17,-17.7 -23.9,-28 -10.3,-15.2 -17,-32.6 -21.6,-50.3 -5.4,-21.4 -7.9,-43.6 -7.3,-65.7 0.5,-14.8 1.6,-30.1 7.8,-43.8 3.2,-7 8.2,-13.7 15.6,-16.5 4.2,-1.7 8.3,-4.1 11.1,-7.8 5.6,-6.9 6.7,-16.2 11.5,-23.5 4.6,-7.6 12.8,-12.9 21.6,-13.9 14.2,-1.9 28.4,1.5 41.8,6.1 7.9,2.7 15.4,6.3 22.6,10.3 3.3,1.9 6,-1.9 7.3,-4.5 4,-8.3 5.4,-17.5 6.9,-26.4 1.8,-10.9 0,-22.2 2.8,-33 0.4,-2.3 1.3,-4.8 3.8,-5.6 z"
   id="path288"
   inkscape:connector-curvature="0"
   style="fill:#010100;stroke:#010100;stroke-width:0.39399999" />
	<path
   d="m 513.6,696.2 c 3.7,-0.5 7.5,-0.9 11.2,-1.2 -0.3,7.9 -4.4,14.9 -5.2,22.7 -1.6,14.3 -1.8,28.8 -4,43.1 -1.5,3.7 -2.3,7.6 -2,11.5 -0.5,4.9 -2.5,9.5 -4.3,14 -0.2,2.9 -0.5,7 3,8.1 6.9,2.8 14.3,3.7 21.6,5 -5.4,0.3 -9.5,4 -14.3,6 -7.1,3.3 -14.5,7.1 -22.6,6.7 -5.8,-0.4 -11.5,-2.3 -16.7,-4.9 -3.6,-1.7 -4,-6.9 -1.9,-9.9 2.6,-2.6 6.4,-3.5 9.2,-5.8 1.7,-1.8 2.6,-4.1 3.6,-6.3 3.7,-10.5 9,-20.4 11.9,-31.2 4.3,-15.5 6.3,-31.8 13.9,-46.1 2.1,-3.6 4.2,-7.2 5.8,-11.1 -3,-0.2 -6.1,-0.4 -9.2,-0.6 z"
   id="path290"
   inkscape:connector-curvature="0"
   style="fill:#539a34;stroke:#539a34;stroke-width:0.39399999" />
	<path
   d="m 504.2,699.2 c 2.4,-2.5 6.2,-2.5 9.4,-2.9 3.1,0.2 6.1,0.4 9.2,0.6 -1.5,3.9 -3.7,7.5 -5.8,11.1 -7.6,14.3 -9.6,30.7 -13.9,46.1 -2.9,10.8 -8.2,20.7 -11.9,31.2 -0.9,2.2 -1.8,4.6 -3.6,6.3 -2.8,2.4 -6.6,3.3 -9.2,5.8 -2.2,3 -1.8,8.2 1.9,9.9 5.2,2.6 10.9,4.5 16.7,4.9 8.1,0.4 15.5,-3.4 22.6,-6.7 4.7,-2.1 8.9,-5.8 14.3,-6 3.5,0.7 7.5,1 10.3,3.5 -5.6,3.7 -12.8,2.4 -18.8,5.2 -11.7,5.4 -23.8,10.1 -36.5,12.1 -7,1.2 -13.6,-1.8 -20,-4.2 -7,-3 -14.1,-6.2 -19.7,-11.4 -1.9,-1.5 -1.6,-3.9 -1.9,-6 8.3,-3.5 18.2,-2.8 25.5,-8.9 7.5,-4.9 12.9,-12.3 17.1,-20.1 10.1,-19.9 14.2,-42.5 13.4,-64.7 0.2,-1.9 -0.2,-4.2 0.9,-5.8 z"
   id="path292"
   inkscape:connector-curvature="0"
   style="fill:#2f8a0f;stroke:#2f8a0f;stroke-width:0.39399999" />
	<path
   d="m 519,762.1 c 9.4,-5.3 18.9,-11.5 29.9,-12.3 5.1,-0.4 9.8,1.9 14.3,4 l 0.6,0.3 0.3,0.4 c 1,1.6 2.2,3.1 3.2,4.7 -0.3,4.3 1.1,8.4 2.5,12.4 -2.5,1.5 -5,3 -7.3,4.8 -5.6,4.3 -9.6,10.5 -15.5,14.5 -6.7,4.4 -15.4,4 -22.8,1.9 -5.1,-1.6 -10.8,-2.5 -14.8,-6.4 1.8,-4.6 3.8,-9.1 4.3,-14 1.2,-3.7 2.9,-7.2 5.3,-10.3 m 16.8,-0.1 c -4.5,5.1 -10.2,9.4 -12.8,15.9 2.8,-0.6 5.5,-1.5 7.8,-3.2 4.7,-3.3 11,-3.7 14.9,-8.1 2,-2.3 4.2,-4.7 4.8,-7.7 0.4,-1.8 -1.7,-3.5 -3.4,-2.9 -4.2,1.1 -8.4,2.7 -11.3,6 z"
   id="path294"
   inkscape:connector-curvature="0"
   style="fill:#ffd201;stroke:#ffd201;stroke-width:0.39399999" />
	<path
   d="m 420.5,752.5 c 7.4,-2 15.4,-1.7 22.8,0.1 16.2,4 30.4,13.4 46.7,17.1 -4.2,7.8 -9.6,15.2 -17.1,20.1 0.2,-0.5 0.5,-1.4 0.7,-1.9 -8,1.6 -16.1,2.7 -23.9,4.8 -4.4,1.3 -9.7,2.9 -11.7,7.5 0,3.3 2.6,5.9 4.8,8.1 7.2,6.5 16.2,10.5 24.5,15.5 5.2,3 7.4,10.5 14,10.9 5.4,-0.5 10.4,-3 15.4,-5.1 9.2,-4.9 18.3,-10 28,-14 8.8,-2.9 18.3,-7.5 27.5,-3.8 6.4,3.1 13.2,6.5 17.2,12.8 6.3,9.1 11.2,19 16,28.9 11.2,25.7 16.3,53.6 18.7,81.3 0.7,7.5 -0.3,15.1 1.1,22.5 3.5,-4.7 4.7,-10.7 5,-16.4 0.5,-12 0.2,-24.1 -1.3,-36 -2.3,-24.1 -4.7,-48.6 -13.5,-71.3 -2.3,-6 -4.6,-12.2 -8.6,-17.3 -4.1,-4.9 -9,-9.1 -14.5,-12.4 -1.4,-1.1 -3.7,-1.8 -3.4,-4 -0.3,-6.2 2.7,-12 6.6,-16.7 2,-2.3 3.7,-4.7 4.4,-7.7 5.6,-3.9 12.5,-5.4 19.2,-3.9 11.3,2.1 20.7,10.5 25.7,20.5 5.3,10.5 8,22.2 9.1,34 -0.8,14.9 0,29.8 -0.3,44.7 0.1,7.7 0.1,15.4 -1.2,23 -1.7,17.7 -5.2,35.3 -9.7,52.5 -1.5,5.2 -3.4,10.4 -3.4,15.9 -5.2,18 -11.9,35.5 -19.1,52.8 -5.3,12.6 -15,23.2 -26.5,30.5 -12.3,7.9 -27.2,10.4 -41.5,10.7 -9.5,0.3 -17.5,-5.5 -25.9,-9.1 -2.5,-1.8 -4.4,-4.3 -5.1,-7.3 -2.4,-8.8 -5,-17.7 -5.3,-26.9 -0.3,-13.4 -0.3,-26.8 2.1,-40 5.3,-34.7 16.4,-68.7 15.4,-104.1 -0.5,-8.4 -1.1,-16.8 -2.9,-25 -1.2,-5.3 -1.6,-10.9 -4.7,-15.5 -1.4,9.8 -0.8,19.7 -0.9,29.6 0,18.3 1,36.7 -1,54.9 -3.2,32.6 -10.4,64.6 -18.3,96.3 -2,8.4 -5.2,17.4 -12.6,22.6 -6.7,5.4 -15.1,8.7 -23.8,8.5 -4.2,0.3 -8,-1.7 -11.7,-3.3 -11.9,-11.9 -19.3,-27.1 -28.1,-41.2 0.5,-5.2 -1.2,-10.2 -2.8,-15.1 -7.3,-26.2 -11.9,-54 -7,-81.1 1.4,-10.1 4.2,-20 7.5,-29.6 2.8,-10.1 7.2,-19.6 10.8,-29.4 4.9,-8.8 12.3,-15.8 17.6,-24.3 1.1,-1.8 1.8,-3.9 1.4,-6 -1,-0.5 -2,-1.1 -3.1,-0.7 -3.8,1 -7,3.5 -10.1,6 -6.8,5.8 -13.2,12.2 -18.1,19.8 -3.3,4.3 -5.3,9.3 -8.4,13.6 -2.2,3.2 -6.5,1.6 -9.5,0.7 -5.8,-1.7 -9.6,-7 -12.1,-12.2 -4,-8.9 -4,-18.9 -3.2,-28.4 0.3,-5.7 2.6,-11 5.7,-15.7 2.6,-1.6 5.5,-2.6 8.3,-3.8 6.2,0 12.4,1 18.5,2 7.1,0.7 14.2,1.6 21.3,2.1 -3,-6.7 -8.7,-12 -10.4,-19.4 -1,-4.5 -1,-9.5 0.9,-13.8 1.1,-2.7 2.5,-5.3 3.8,-7.9 m 3.5,8.5 c -1.7,2.1 -2.6,6.2 0.2,7.8 4.5,3.4 10.4,2.9 15.7,2.4 5.4,-0.8 10.9,-0.9 16.1,-2.7 -7,-4.1 -13.6,-9.9 -22,-10.6 -3.6,-0.4 -7.3,0.8 -10,3.1 m 168.5,16.6 c -3.9,1.9 -7.8,4.3 -10.6,7.7 4.7,1.4 9.8,2 13.7,5.1 6.5,4.4 11.7,10.6 15.2,17.7 3.5,6 4.5,13 6.6,19.5 3.4,10.4 2.6,21.6 4.1,32.3 0.9,-2.6 1.8,-5.2 2.1,-7.9 2.2,-14.8 2.8,-30 -0.1,-44.7 -1.5,-5.2 -4,-10 -6.3,-14.9 -3.3,-4.8 -6.4,-10.2 -11.6,-13.3 -3.7,-2.6 -8.8,-2.1 -13.1,-1.5 M 389.9,799 c -3.5,4.3 -6.3,9.5 -7.2,15.1 -0.7,3.5 0.9,8.5 5.4,7.7 8,-2.2 13.8,-8.6 19.4,-14.4 2.7,-3.1 6.5,-5.1 8.6,-8.8 -8.7,-0.8 -17.8,-2.3 -26.2,0.4 m 154.5,23.6 c -4.1,0.9 -7.2,3.9 -10,6.8 -1.7,1.8 -3.8,4.3 -2.8,6.9 2,5.3 5.4,9.9 8.9,14.3 5.5,6.4 13.9,8.6 20.9,12.7 4.1,1.9 8.2,4 12.6,5.1 1.8,0.6 3.9,-0.4 4.4,-2.3 1.3,-10 -3.7,-19.1 -7.3,-28.1 -2.7,-4.7 -7.5,-7.8 -11,-11.9 -3.9,-4.6 -10.4,-4.2 -15.7,-3.5 M 483,854.2 c -0.6,1.1 -1.7,2.2 -1.3,3.7 1.4,11.7 2,23.4 1.8,35.2 0.3,25.1 -3.1,50 -5.8,74.9 -1.6,13.6 -8.7,26.4 -7.1,40.4 3.4,-4.8 4.9,-10.5 7.1,-15.9 2.7,-6.6 3.3,-13.8 5.3,-20.6 3.5,-12.5 5.5,-25.3 8.4,-37.9 1.4,-7.2 1.7,-14.6 2.8,-21.9 1.5,-14.3 1.3,-28.6 1.4,-43 0,-3.6 -1.3,-7.1 -3.4,-10 -2.3,-2.9 -6,-3.7 -9.2,-4.9 z"
   id="path296"
   inkscape:connector-curvature="0"
   style="fill:#ffd202;stroke:#ffd202;stroke-width:0.39399999" />
	<path
   d="m 404.7,764.7 c 3.2,-6.1 9.1,-10.5 15.8,-12.2 -1.3,2.6 -2.7,5.2 -3.9,7.9 -1.9,4.3 -1.9,9.2 -0.9,13.8 1.6,7.3 7.3,12.6 10.4,19.4 -7.1,-0.5 -14.2,-1.4 -21.3,-2.1 -6.1,-1 -12.3,-2 -18.5,-2 3.3,-1.6 6.7,-3.4 9.1,-6.4 4.3,-5.4 5.9,-12.4 9.3,-18.4 z"
   id="path298"
   inkscape:connector-curvature="0"
   style="fill:#e0bb14;stroke:#e0bb14;stroke-width:0.39399999" />
	<path
   d="m 567.3,759.2 c 2.5,5.8 3,12.3 6.5,17.8 2,-0.2 4.1,-0.6 6,-1.2 -0.7,2.9 -2.5,5.4 -4.4,7.7 -3.9,4.6 -6.9,10.5 -6.6,16.7 -0.3,2.2 2,2.9 3.4,4 5.5,3.3 10.5,7.4 14.5,12.4 4,5.1 6.3,11.3 8.6,17.3 8.8,22.7 11.2,47.2 13.5,71.3 1.5,12 1.9,24 1.3,36 -0.4,5.8 -1.5,11.7 -5,16.4 -1.3,-7.4 -0.4,-15 -1.1,-22.5 -2.4,-27.8 -7.5,-55.7 -18.7,-81.3 -4.8,-9.9 -9.8,-19.8 -16,-28.9 -3.9,-6.2 -10.7,-9.7 -17.2,-12.8 -9.3,-3.7 -18.8,0.9 -27.5,3.8 -9.7,3.9 -18.8,9.1 -28,14 -4.9,2.1 -9.9,4.6 -15.4,5.1 -6.7,-0.4 -8.8,-7.9 -14,-10.9 -8.3,-5 -17.3,-9 -24.5,-15.5 -2.2,-2.2 -4.9,-4.8 -4.8,-8.1 2,-4.6 7.2,-6.3 11.7,-7.5 7.9,-2 16,-3.2 23.9,-4.8 -0.2,0.5 -0.5,1.4 -0.7,1.9 -7.3,6.1 -17.2,5.4 -25.5,8.9 0.3,2.1 0,4.6 1.9,6 5.6,5.2 12.7,8.5 19.7,11.4 6.4,2.4 13,5.4 20,4.2 12.8,-2 24.9,-6.7 36.5,-12.1 6,-2.8 13.2,-1.5 18.8,-5.2 -2.8,-2.5 -6.8,-2.8 -10.3,-3.5 -7.2,-1.3 -14.7,-2.3 -21.6,-5 -3.5,-1.2 -3.2,-5.2 -3,-8.1 4,3.9 9.6,4.8 14.8,6.4 7.5,2 16.1,2.4 22.8,-1.9 5.9,-4 9.8,-10.2 15.5,-14.5 2.3,-1.8 4.8,-3.3 7.3,-4.8 -1.3,-4.3 -2.7,-8.4 -2.4,-12.7 z"
   id="path300"
   inkscape:connector-curvature="0"
   style="fill:#e0bb14;stroke:#e0bb14;stroke-width:0.39399999" />
	<path
   d="m 358.5,824.9 c 2.6,-12.3 8.3,-25 19.5,-31.7 -3.1,4.7 -5.4,10.1 -5.7,15.7 -0.8,9.5 -0.8,19.6 3.2,28.4 2.5,5.2 6.3,10.5 12.1,12.2 3,0.9 7.3,2.5 9.5,-0.7 3.1,-4.4 5.2,-9.4 8.4,-13.6 4.9,-7.6 11.3,-14 18.1,-19.8 3.1,-2.4 6.3,-5 10.1,-6 1.1,-0.4 2.1,0.2 3.1,0.7 0.4,2.1 -0.3,4.2 -1.4,6 -5.4,8.5 -12.8,15.5 -17.6,24.3 -3.7,9.8 -8,19.3 -10.8,29.4 -3.4,9.6 -6.1,19.5 -7.5,29.6 -4.9,27.1 -0.3,54.8 7,81.1 1.6,4.9 3.3,9.9 2.8,15.1 -3.9,-6 -7.7,-12 -12.5,-17.3 -8.4,-8.8 -14.1,-19.8 -19.5,-30.7 -9.5,-20.1 -15.9,-41.7 -19.1,-63.8 -2.8,-19.3 -3.8,-39.4 0.3,-58.9 z"
   id="path302"
   inkscape:connector-curvature="0"
   style="fill:#e0bb14;stroke:#e0bb14;stroke-width:0.39399999" />
	<path
   d="m 535.8,762 c 2.9,-3.3 7.2,-4.9 11.3,-6 1.6,-0.6 3.8,1.1 3.4,2.9 -0.6,3 -2.8,5.4 -4.8,7.7 -3.9,4.4 -10.2,4.8 -14.9,8.1 -2.3,1.6 -5,2.6 -7.8,3.2 2.6,-6.5 8.3,-10.8 12.8,-15.9 z"
   id="path304"
   inkscape:connector-curvature="0"
   style="fill:#ffea4e;stroke:#ffea4e;stroke-width:0.39399999" />
	<path
   d="m 592.5,777.6 c 4.4,-0.7 9.4,-1.1 13.3,1.6 5.2,3.1 8.2,8.5 11.6,13.3 2.3,4.9 4.8,9.7 6.3,14.9 2.9,14.7 2.3,29.9 0.1,44.7 -0.4,2.7 -1.2,5.3 -2.1,7.9 -1.6,-10.8 -0.7,-21.9 -4.1,-32.3 -2.1,-6.6 -3.1,-13.5 -6.6,-19.5 -3.5,-7 -8.7,-13.3 -15.2,-17.7 -3.9,-3.1 -9,-3.7 -13.7,-5.1 2.5,-3.5 6.4,-5.9 10.4,-7.8 z"
   id="path306"
   inkscape:connector-curvature="0"
   style="fill:#ffea4e;stroke:#ffea4e;stroke-width:0.39399999" />
	<path
   d="m 483,854.2 c 3.2,1.1 6.9,2 9.1,4.8 2.1,2.9 3.4,6.4 3.4,10 0,14.3 0.1,28.7 -1.4,43 -1.1,7.3 -1.5,14.6 -2.8,21.9 -2.9,12.6 -4.9,25.4 -8.4,37.9 -2,6.8 -2.6,14 -5.3,20.6 -2.2,5.4 -3.7,11.1 -7.1,15.9 -1.6,-13.9 5.6,-26.8 7.1,-40.4 2.6,-24.9 6.1,-49.8 5.8,-74.9 0.2,-11.7 -0.4,-23.5 -1.8,-35.2 -0.3,-1.3 0.8,-2.4 1.4,-3.6 z"
   id="path308"
   inkscape:connector-curvature="0"
   style="fill:#ffea4e;stroke:#ffea4e;stroke-width:0.39399999" />
	<path
   d="m 424,761 c 2.7,-2.3 6.4,-3.5 10,-3.1 8.4,0.7 15,6.5 22,10.6 -5.2,1.8 -10.7,1.9 -16.1,2.7 -5.3,0.5 -11.3,1 -15.7,-2.4 -2.8,-1.6 -1.9,-5.7 -0.2,-7.8 z"
   id="path310"
   inkscape:connector-curvature="0"
   style="fill:#ffe94f;stroke:#ffe94f;stroke-width:0.39399999" />
	<path
   d="m 513.6,772.5 c -0.3,-4 0.5,-7.9 2,-11.5 -0.1,0.8 -0.3,2.4 -0.5,3.2 1.3,-0.7 2.6,-1.3 3.8,-2 -2.3,3 -4,6.5 -5.3,10.3 z"
   id="path312"
   inkscape:connector-curvature="0"
   style="fill:#9da617;stroke:#9da617;stroke-width:0.39399999" />
	<path
   d="m 389.9,799 c 8.4,-2.6 17.5,-1.1 26.2,-0.4 -2,3.6 -5.9,5.7 -8.6,8.8 -5.6,5.8 -11.4,12.2 -19.4,14.4 -4.4,0.8 -6.1,-4.2 -5.4,-7.7 0.9,-5.6 3.7,-10.8 7.2,-15.1 z"
   id="path314"
   inkscape:connector-curvature="0"
   style="fill:#ffea4f;stroke:#ffea4f;stroke-width:0.39399999" />
	<path
   d="m 544.4,822.6 c 5.3,-0.7 11.8,-1.1 15.6,3.4 3.5,4.1 8.3,7.2 11,11.9 3.7,8.9 8.6,18.1 7.3,28.1 -0.5,1.9 -2.5,2.9 -4.4,2.3 -4.4,-1.1 -8.5,-3.2 -12.6,-5.1 -7,-4.1 -15.5,-6.2 -20.9,-12.7 -3.5,-4.4 -6.9,-9 -8.9,-14.3 -1,-2.7 1.1,-5.1 2.8,-6.9 2.9,-2.8 6,-5.8 10.1,-6.7 z"
   id="path316"
   inkscape:connector-curvature="0"
   style="fill:#ffea4f;stroke:#ffea4f;stroke-width:0.39399999" />
	<path
   d="m 633.8,826.3 c 0.8,5.9 1.1,11.8 1.3,17.6 0.2,16.4 0.4,32.8 -1.4,49.1 -2.6,23.5 -7.3,46.8 -14.5,69.3 0,-5.5 1.8,-10.7 3.4,-15.9 4.4,-17.2 8,-34.8 9.7,-52.5 1.3,-7.6 1.3,-15.3 1.2,-23 0.3,-14.8 -0.5,-29.7 0.3,-44.6 z"
   id="path318"
   inkscape:connector-curvature="0"
   style="fill:#cfb020;stroke:#cfb020;stroke-width:0.39399999" />
	<path
   d="m 505.6,828.4 c 3.1,4.6 3.6,10.2 4.7,15.5 1.8,8.2 2.4,16.6 2.9,25 1,35.4 -10.1,69.4 -15.4,104.1 -2.4,13.2 -2.5,26.6 -2.1,40 0.3,9.2 2.9,18.1 5.3,26.9 0.7,3 2.7,5.5 5.1,7.3 -3.3,-1.2 -6.7,-2.3 -10.2,-2 -3,0.5 -5.8,1.9 -8.7,3 -8.4,3.2 -17.6,5.1 -26.5,3.1 -9.2,-2 -16.9,-7.8 -23.5,-14.3 3.7,1.7 7.5,3.7 11.7,3.3 8.7,0.1 17.1,-3.1 23.8,-8.5 7.4,-5.2 10.6,-14.2 12.6,-22.6 8,-31.7 15.1,-63.7 18.3,-96.3 2,-18.2 1,-36.6 1,-54.9 0.2,-9.8 -0.5,-19.8 1,-29.6 z"
   id="path320"
   inkscape:connector-curvature="0"
   style="fill:#e0bb13;stroke:#e0bb13;stroke-width:0.39399999" />
</g>








</svg>