<?xml version="1.0" encoding="UTF-8" standalone="no"?>
<!-- Generator: Adobe Illustrator 16.0.0, SVG Export Plug-In . SVG Version: 6.00 Build 0)  -->

<svg
   xmlns:dc="http://purl.org/dc/elements/1.1/"
   xmlns:cc="http://creativecommons.org/ns#"
   xmlns:rdf="http://www.w3.org/1999/02/22-rdf-syntax-ns#"
   xmlns:svg="http://www.w3.org/2000/svg"
   xmlns="http://www.w3.org/2000/svg"
   xmlns:sodipodi="http://sodipodi.sourceforge.net/DTD/sodipodi-0.dtd"
   xmlns:inkscape="http://www.inkscape.org/namespaces/inkscape"
   version="1.1"
   id="Layer_1"
   x="0px"
   y="0px"
   width="256"
   height="256"
   viewBox="0 0 256 255.99999"
   enable-background="new 0 0 416 320.833"
   xml:space="preserve"
   sodipodi:docname="potato.svg"
   inkscape:version="0.92.4 (5da689c313, 2019-01-14)"><title
   id="title1410">Potato</title><metadata
   id="metadata603"><rdf:RDF><cc:Work
       rdf:about=""><dc:format>image/svg+xml</dc:format><dc:type
         rdf:resource="http://purl.org/dc/dcmitype/StillImage" /><dc:title>Potato</dc:title><cc:license
         rdf:resource="http://creativecommons.org/publicdomain/zero/1.0/" /><dc:source>https://openclipart.org/detail/291193</dc:source><dc:publisher><cc:Agent><dc:title>OpenClipart</dc:title></cc:Agent></dc:publisher><dc:creator><cc:Agent><dc:title>cactus cowboy</dc:title></cc:Agent></dc:creator></cc:Work><cc:License
       rdf:about="http://creativecommons.org/publicdomain/zero/1.0/"><cc:permits
         rdf:resource="http://creativecommons.org/ns#Reproduction" /><cc:permits
         rdf:resource="http://creativecommons.org/ns#Distribution" /><cc:permits
         rdf:resource="http://creativecommons.org/ns#DerivativeWorks" /></cc:License></rdf:RDF></metadata><defs
   id="defs601">
	
	
	
	
	
	
	
	
	
	
	
	
	
	
	
	
	
	
	
	
	
	
	
	
	
	
	
	
	
	
	
	
	
	
	
	
	
	
	
	
	
	
	
	
	
	
	
	
	
	
	
	
	
	
	
	
	
	
	
	
	
	
	
	
	
	
	
	
	
	
	
	
	
	
	
	
	
	
	
	
	
	
	
	
	
	
	
	
	
	
	
	
	
	
	
	
	
	
	
	
	
	
	
	
	
	
	
	
	
	
	
	
	
	
	
	
	
	
	
	
	
	
	
	
	
	
	
	
	
	
	
	
	
	
	
	
	
	
	
	
	
	
	
	
	
	
	
	
	
	
	
	
	
	
	
	
	
	
	
	
	
	
	
	
	
	
	
	
	
	
	
	
	
	
	
	
	
	
	
	
	
	
	
	
	
	
	
	
	
	
	
	
	
	
	
	
	
	
	
	
	
	
	
	
	
	
	
	
	
	
	
	
	
	
	
	
	
	
	
	
	
	
	
	
	
	
	
	
	
	
	
	
	
	
	
	
	
	
	
	
	
	
	
	
	
	
	
	
	
	
	
	
	
	
	
	
	
	
	
	
	
	
	
	
	
	
	
	
	
	
	
	
	
	
	
	
	
	
	
	
	
	
	
	
	
	
	
	
	
	
	
	
	
	
	
	
	
</defs><sodipodi:namedview
   pagecolor="#ffffff"
   bordercolor="#666666"
   borderopacity="1"
   objecttolerance="10"
   gridtolerance="10"
   guidetolerance="10"
   inkscape:pageopacity="0"
   inkscape:pageshadow="2"
   inkscape:window-width="1920"
   inkscape:window-height="1025"
   id="namedview599"
   showgrid="false"
   inkscape:zoom="0.73076923"
   inkscape:cx="-260.29399"
   inkscape:cy="80.319625"
   inkscape:window-x="-8"
   inkscape:window-y="-8"
   inkscape:window-maximized="1"
   inkscape:current-layer="Layer_1"
   fit-margin-top="0"
   fit-margin-left="0"
   fit-margin-right="0"
   fit-margin-bottom="0" />
<g
   id="g1777"
   transform="matrix(1.0489568,1.0489568,-1.0489568,1.0489568,-3.4416297,-158.7958)"><polygon
     points="291.597,91.174 286.862,101.614 279.901,110.245 271.687,117.206 262.22,121.938 252.195,124.722 242.031,125.001 232.007,123.052 225.324,121.242 219.615,120.686 214.742,121.103 210.287,122.217 205.833,123.47 201.237,125.001 196.225,126.114 190.656,126.95 186.479,126.95 181.885,127.089 177.151,126.95 172.417,126.95 167.406,126.671 162.532,126.532 157.52,126.253 153.065,126.253 145.407,126.114 139.142,125.975 133.573,125.279 128.839,123.748 124.245,120.963 119.79,116.509 115.056,109.966 110.043,100.918 104.475,88.39 102.108,78.367 102.247,70.015 104.475,63.055 107.816,56.651 112.132,50.526 116.587,43.984 120.903,36.884 122.853,34.379 126.473,32.151 131.345,29.924 137.472,27.836 144.015,25.748 151.395,23.938 158.773,21.989 166.292,20.319 176.873,17.535 189.542,14.612 203.187,12.105 217.806,10.574 232.285,10.296 246.347,12.245 259.436,16.7 270.851,24.356 278.23,31.038 284.217,36.884 288.672,42.174 291.875,47.603 293.823,53.311 294.798,60.271 294.938,68.901 294.242,79.62 "
     id="polygon34"
     style="clip-rule:evenodd;fill:#857357;fill-rule:evenodd" /><polygon
     points="290.344,89.921 285.471,99.944 278.648,108.435 270.572,115.256 261.105,119.989 251.22,122.773 241.057,123.052 231.311,121.242 224.627,119.432 219.059,118.876 214.186,119.293 209.73,120.407 205.275,121.66 200.82,123.191 195.808,124.305 190.238,125.14 186.062,125.14 181.606,125.14 176.873,125.14 172.139,125.14 167.266,124.861 162.393,124.861 157.52,124.722 153.065,124.722 145.546,124.444 139.282,124.305 133.712,123.609 128.979,122.217 124.384,119.432 120.068,114.978 115.334,108.435 110.461,99.805 105.031,87.694 102.804,77.811 102.943,69.597 105.17,62.776 108.512,56.512 112.689,50.526 117.144,44.123 121.321,37.023 123.271,34.518 127.029,32.291 131.763,30.202 137.89,28.254 144.433,26.166 151.673,24.356 159.051,22.407 166.431,20.736 176.873,17.813 189.542,15.029 203.187,12.523 217.666,10.992 232.007,10.714 245.93,12.523 258.878,16.838 270.155,24.356 277.396,30.898 283.381,36.606 287.698,41.756 290.899,47.046 292.71,52.753 293.685,59.575 293.685,67.927 292.988,78.506 "
     id="polygon36"
     style="clip-rule:evenodd;fill:#8c785e;fill-rule:evenodd" /><polygon
     points="288.951,88.251 284.217,98.274 277.534,106.625 269.459,113.447 260.131,118.041 250.384,120.825 240.222,121.103 230.476,119.293 223.932,117.484 218.363,116.927 213.49,117.345 209.034,118.458 204.579,119.711 200.263,121.242 195.39,122.356 189.821,123.191 185.644,123.191 181.328,123.33 176.594,123.191 171.86,123.191 166.988,122.913 162.114,122.913 157.381,122.634 152.926,122.634 145.407,122.495 139.282,122.356 133.852,121.799 129.118,120.407 124.523,117.623 120.208,113.168 115.613,106.765 110.74,98.134 105.31,86.023 103.082,76.14 103.082,68.066 105.31,61.245 108.651,54.981 112.968,48.995 117.423,42.731 121.6,35.771 123.41,33.265 127.029,31.177 131.902,28.95 137.89,27 144.433,24.913 151.534,23.103 158.912,21.154 166.292,19.484 176.733,16.7 188.985,13.916 202.49,11.41 216.831,10.018 231.031,9.74 244.955,11.549 257.624,15.864 268.902,23.242 276.143,29.646 281.989,35.353 286.306,40.364 289.508,45.654 291.317,51.361 292.292,58.043 292.292,66.396 291.597,76.835 "
     id="polygon38"
     style="clip-rule:evenodd;fill:#917d63;fill-rule:evenodd" /><polygon
     points="287.698,86.719 283.104,96.603 276.281,104.816 268.346,111.358 259.017,115.953 249.271,118.597 239.247,119.015 229.64,117.206 223.096,115.535 217.666,115.117 212.793,115.396 208.478,116.509 204.022,117.762 199.706,119.154 194.833,120.268 189.403,121.103 185.226,121.103 180.911,121.242 176.177,121.242 171.582,121.242 166.709,121.103 161.976,121.103 157.242,120.963 152.926,120.963 145.546,120.686 139.421,120.546 133.991,119.85 129.396,118.458 124.941,115.674 120.625,111.498 116.17,105.373 111.297,96.881 106.006,85.049 103.778,75.444 103.917,67.509 106.146,60.827 109.487,54.702 113.664,48.995 117.979,42.87 122.295,36.049 124.105,33.543 127.726,31.316 132.459,29.228 138.446,27.279 144.85,25.191 151.951,23.382 159.191,21.711 166.431,20.041 176.873,17.256 188.985,14.473 202.352,11.967 216.553,10.435 230.614,10.157 244.398,11.967 256.929,16.003 268.066,23.242 275.167,29.646 281.015,35.075 285.331,40.086 288.394,45.236 290.204,50.666 291.178,57.348 291.039,65.421 290.344,75.722 "
     id="polygon40"
     style="clip-rule:evenodd;fill:#99856b;fill-rule:evenodd" /><polygon
     points="286.445,85.188 281.711,94.793 275.028,102.868 267.093,109.41 257.902,113.864 248.297,116.509 238.411,117.066 228.944,115.396 222.4,113.586 216.97,113.168 212.097,113.447 207.781,114.56 203.465,115.813 199.149,117.206 194.276,118.319 188.846,119.154 184.809,119.154 180.493,119.293 175.898,119.293 171.304,119.293 166.431,119.154 161.697,119.154 157.103,119.015 152.647,119.015 145.407,118.876 139.421,118.737 134.13,118.041 129.535,116.788 125.081,114.004 120.903,109.966 116.587,103.842 111.854,95.628 106.563,84.075 104.475,74.887 104.475,67.092 106.702,60.688 110.043,54.702 114.36,48.995 118.676,42.87 122.992,36.188 124.802,33.822 128.422,31.733 133.155,29.646 139.003,27.697 145.407,25.748 152.369,23.938 159.608,22.128 166.849,20.458 177.012,17.674 189.125,14.89 202.352,12.384 216.413,10.992 230.336,10.574 243.98,12.384 256.371,16.421 267.371,23.521 274.332,29.646 280.041,34.935 284.217,39.808 287.279,44.819 288.951,50.109 289.925,56.512 289.786,64.447 288.951,74.47 "
     id="polygon42"
     style="clip-rule:evenodd;fill:#9e8a6e;fill-rule:evenodd" /><polygon
     points="284.914,83.379 280.18,92.845 273.636,100.64 265.699,107.183 256.649,111.637 247.043,114.143 237.297,114.56 227.83,112.89 221.426,111.219 215.996,110.802 211.262,111.081 207.085,112.194 202.769,113.447 198.592,114.978 193.72,116.091 188.428,116.927 184.252,116.927 180.075,117.066 175.48,116.927 171.025,116.927 166.152,116.788 161.558,116.648 156.963,116.509 152.508,116.509 145.268,116.37 139.282,116.37 133.991,115.813 129.535,114.56 125.22,111.916 121.042,107.878 116.726,101.893 111.993,93.819 106.841,82.404 104.753,73.217 104.892,65.421 107.12,59.018 110.461,53.171 114.638,47.464 118.954,41.478 123.131,34.796 124.941,32.43 128.561,30.342 133.155,28.254 139.003,26.444 145.268,24.495 152.229,22.686 159.33,21.015 166.431,19.345 176.594,16.7 188.568,13.916 201.655,11.41 215.577,9.879 229.361,9.6 242.867,11.271 255.118,15.168 265.979,22.128 272.939,28.115 278.508,33.404 282.686,38.276 285.609,43.148 287.279,48.438 288.255,54.981 288.255,62.776 287.559,72.66 "
     id="polygon44"
     style="clip-rule:evenodd;fill:#a38f73;fill-rule:evenodd" /><polygon
     points="283.521,81.708 278.787,90.896 272.244,98.691 264.307,104.955 255.258,109.271 245.93,111.916 236.184,112.333 226.994,110.802 220.59,109.131 215.299,108.714 210.566,108.992 206.389,110.106 202.073,111.219 197.896,112.75 193.023,113.864 187.872,114.699 183.834,114.699 179.657,114.699 175.063,114.699 170.608,114.839 165.874,114.699 161.279,114.699 156.685,114.699 152.508,114.699 145.407,114.56 139.421,114.421 134.27,113.864 129.814,112.612 125.498,110.106 121.321,106.208 117.144,100.361 112.55,92.427 107.538,81.291 105.449,72.381 105.728,64.864 107.956,58.6 111.158,52.753 115.334,47.325 119.65,41.478 123.828,35.075 125.637,32.848 129.118,30.759 133.852,28.671 139.56,26.861 145.825,24.913 152.787,23.103 159.748,21.433 166.849,19.762 176.873,17.117 188.707,14.473 201.655,11.967 215.438,10.435 229.083,10.018 242.31,11.688 254.423,15.447 265.143,22.268 271.825,28.115 277.396,33.265 281.572,37.859 284.495,42.731 286.166,47.881 287.002,54.007 286.862,61.663 286.166,71.268 "
     id="polygon46"
     style="clip-rule:evenodd;fill:#a89478;fill-rule:evenodd" /><polygon
     points="281.989,79.898 277.256,88.947 270.712,96.463 262.915,102.589 254.004,106.904 244.677,109.41 235.209,109.966 226.021,108.435 219.755,106.904 214.603,106.486 209.87,106.765 205.692,107.878 201.377,108.992 197.2,110.384 192.466,111.498 187.315,112.333 183.416,112.333 179.24,112.473 174.784,112.473 170.329,112.612 165.596,112.473 161.14,112.473 156.546,112.333 152.369,112.333 145.407,112.194 139.421,112.194 134.27,111.637 129.953,110.523 125.637,108.018 121.6,104.259 117.423,98.691 112.968,91.035 108.095,80.177 106.146,71.546 106.423,64.307 108.651,58.322 111.854,52.615 116.03,47.325 120.346,41.617 124.523,35.353 126.333,33.125 129.814,31.038 134.408,29.089 140.117,27.279 146.382,25.469 153.204,23.66 160.166,21.989 167.127,20.319 177.012,17.674 188.707,15.029 201.516,12.523 215.021,10.992 228.526,10.574 241.614,12.105 253.587,15.725 264.029,22.268 270.712,27.975 276.281,32.987 280.318,37.441 283.242,42.035 284.773,46.907 285.609,53.032 285.471,60.41 284.635,69.737 "
     id="polygon48"
     style="clip-rule:evenodd;fill:#ad997d;fill-rule:evenodd" /><polygon
     points="280.318,78.228 275.585,86.858 269.041,94.236 261.384,100.083 252.473,104.259 243.284,106.765 233.956,107.322 224.906,105.93 218.78,104.398 213.629,104.12 209.034,104.398 204.997,105.512 200.681,106.625 196.504,108.018 191.909,109.131 186.758,109.966 182.999,109.966 178.822,110.106 174.506,110.106 170.19,110.245 165.596,110.106 161.001,110.106 156.546,110.106 152.369,110.106 145.407,110.106 139.56,110.106 134.547,109.549 130.232,108.435 125.916,106.069 122.018,102.45 117.84,97.021 113.524,89.643 108.791,79.203 106.841,70.85 107.259,63.751 109.487,57.904 112.689,52.476 116.866,47.186 121.182,41.756 125.22,35.631 127.029,33.404 130.51,31.456 134.965,29.367 140.674,27.697 146.799,25.748 153.482,24.078 160.305,22.407 167.266,20.876 177.012,18.231 188.707,15.586 201.377,13.22 214.742,11.688 228.108,11.271 241.057,12.523 252.751,16.003 263.193,22.268 269.738,27.836 275.028,32.569 278.927,37.023 281.85,41.478 283.381,46.35 284.078,52.197 283.938,59.296 283.104,68.345 "
     id="polygon50"
     style="clip-rule:evenodd;fill:#b09980;fill-rule:evenodd" /><polygon
     points="278.648,76.279 273.914,84.771 267.51,91.87 259.853,97.717 251.22,101.753 242.031,104.12 232.703,104.677 223.932,103.285 217.944,101.893 212.793,101.614 208.199,102.032 204.161,103.006 200.124,104.12 195.947,105.512 191.353,106.625 186.34,107.461 182.442,107.601 178.404,107.74 174.088,107.74 169.772,107.878 165.317,107.878 160.861,107.878 156.406,107.878 152.369,107.878 145.546,107.878 139.838,107.878 134.826,107.322 130.51,106.208 126.333,103.842 122.574,100.361 118.536,95.072 114.22,87.972 109.626,78.089 107.816,70.015 108.095,63.194 110.322,57.487 113.524,52.058 117.701,47.046 121.878,41.617 126.055,35.771 127.865,33.683 131.345,31.873 135.801,29.924 141.37,28.115 147.496,26.305 154.179,24.634 160.861,22.964 167.684,21.433 177.291,18.788 188.707,16.143 201.237,13.776 214.464,12.245 227.691,11.688 240.36,12.941 252.056,16.282 262.22,22.268 268.624,27.558 273.775,32.151 277.674,36.328 280.318,40.782 281.85,45.376 282.407,51.083 282.128,58.043 281.294,66.813 "
     id="polygon52"
     style="clip-rule:evenodd;fill:#b59e82;fill-rule:evenodd" /><polygon
     points="276.977,74.191 272.244,82.404 265.84,89.225 258.321,94.932 249.688,98.969 240.639,101.336 231.45,102.032 222.679,100.779 216.691,99.387 211.68,99.109 207.225,99.526 203.326,100.5 199.288,101.614 195.251,103.006 190.656,104.12 185.644,104.955 181.885,105.094 177.848,105.233 173.531,105.233 169.354,105.373 164.899,105.233 160.583,105.233 156.267,105.233 152.229,105.373 145.407,105.373 139.838,105.512 134.965,104.955 130.788,103.981 126.751,101.753 122.853,98.413 118.954,93.262 114.777,86.441 110.322,76.835 108.651,69.04 109.069,62.498 111.297,57.069 114.499,51.779 118.536,46.907 122.713,41.756 126.89,36.049 128.7,33.961 132.181,32.151 136.636,30.202 142.066,28.532 148.053,26.861 154.597,25.191 161.14,23.521 167.962,21.85 177.43,19.345 188.707,16.7 201.098,14.333 214.186,12.941 227.134,12.384 239.664,13.498 251.081,16.7 261.105,22.407 267.371,27.418 272.522,31.873 276.281,35.91 278.927,40.086 280.318,44.541 281.015,49.969 280.736,56.512 279.763,65.004 "
     id="polygon54"
     style="clip-rule:evenodd;fill:#b8a185;fill-rule:evenodd" /><polygon
     points="275.167,72.243 270.434,80.177 264.168,86.858 256.649,92.288 248.157,96.186 239.247,98.552 230.197,99.109 221.564,97.995 215.718,96.742 210.845,96.463 206.389,96.881 202.49,97.856 198.453,98.969 194.555,100.222 190.1,101.336 185.087,102.171 181.328,102.311 177.43,102.45 173.253,102.45 169.076,102.589 164.621,102.589 160.444,102.728 156.128,102.728 152.229,102.868 145.546,102.868 139.978,102.868 135.104,102.589 131.067,101.614 127.029,99.526 123.41,96.325 119.511,91.453 115.473,84.91 111.158,75.583 109.487,68.206 110.043,61.802 112.271,56.512 115.473,51.64 119.65,46.907 123.828,41.896 127.865,36.328 129.675,34.379 133.016,32.569 137.333,30.759 142.762,29.089 148.609,27.279 155.153,25.609 161.697,23.938 168.38,22.407 177.708,20.041 188.846,17.535 200.959,15.168 213.907,13.637 226.577,12.941 238.969,14.055 250.106,16.979 259.853,22.407 265.979,27.279 270.991,31.456 274.609,35.353 277.256,39.39 278.648,43.705 279.344,48.856 278.927,55.259 277.952,63.473 "
     id="polygon56"
     style="clip-rule:evenodd;fill:#bda68a;fill-rule:evenodd" /><polygon
     points="273.218,70.015 268.624,77.532 262.22,83.936 254.84,89.225 246.487,92.984 237.716,95.35 228.805,95.907 220.451,94.932 214.603,93.819 209.73,93.541 205.415,93.958 201.516,94.932 197.478,96.046 193.58,97.299 189.264,98.413 184.391,99.109 180.632,99.248 176.873,99.526 172.696,99.666 168.659,99.805 164.203,99.805 160.026,99.944 155.85,99.944 151.951,100.083 145.407,100.083 139.978,100.222 135.244,99.805 131.206,98.969 127.308,97.021 123.828,93.958 120.068,89.364 116.17,83.1 111.993,74.33 110.461,67.231 111.019,61.245 113.246,56.094 116.448,51.361 120.485,46.768 124.663,41.896 128.7,36.745 130.51,34.657 133.712,32.848 138.167,31.177 143.458,29.506 149.167,27.836 155.571,26.166 162.114,24.634 168.659,23.103 177.986,20.736 188.985,18.231 200.959,15.864 213.629,14.333 226.16,13.637 238.271,14.612 249.132,17.396 258.738,22.546 264.726,27 269.599,31.038 273.078,34.657 275.724,38.416 276.977,42.592 277.534,47.603 277.116,53.728 276.143,61.523 "
     id="polygon58"
     style="clip-rule:evenodd;fill:#bfa88c;fill-rule:evenodd" /><polygon
     points="271.27,67.788 266.535,75.026 260.27,81.151 253.03,86.302 244.677,89.921 236.044,92.148 227.413,92.845 219.059,91.87 213.49,90.896 208.756,90.756 204.439,91.174 200.681,92.148 196.643,93.262 192.745,94.376 188.428,95.35 183.695,96.186 180.075,96.325 176.316,96.463 172.278,96.603 168.241,96.742 163.925,96.742 159.887,96.881 155.71,97.021 151.951,97.299 145.546,97.299 140.117,97.438 135.383,97.16 131.485,96.325 127.586,94.515 124.105,91.591 120.625,87.276 116.866,81.43 112.828,72.938 111.436,66.117 111.993,60.41 114.22,55.538 117.423,50.944 121.46,46.628 125.637,41.896 129.675,36.884 131.485,35.075 134.687,33.265 138.864,31.594 144.154,30.063 149.862,28.393 156.128,26.722 162.532,25.191 169.076,23.799 178.125,21.433 188.985,18.927 200.82,16.561 213.212,15.029 225.463,14.333 237.437,15.168 248.157,17.674 257.485,22.546 263.333,26.861 268.066,30.62 271.408,34.1 273.914,37.72 275.167,41.617 275.585,46.35 275.167,52.197 274.054,59.714 "
     id="polygon60"
     style="clip-rule:evenodd;fill:#c4ad91;fill-rule:evenodd" /><polygon
     points="269.041,65.421 264.447,72.381 258.182,78.228 250.941,83.1 242.867,86.581 234.374,88.668 225.741,89.364 217.666,88.529 212.097,87.555 207.503,87.555 203.326,87.972 199.567,88.947 195.668,90.06 191.909,91.174 187.593,92.148 182.999,92.845 179.379,92.984 175.759,93.262 171.721,93.401 167.823,93.68 163.646,93.68 159.608,93.819 155.571,93.958 151.812,94.097 145.407,94.236 140.256,94.376 135.662,94.236 131.763,93.541 128.143,91.73 124.802,89.086 121.321,85.049 117.701,79.481 113.803,71.546 112.55,65.143 113.107,59.575 115.473,54.981 118.676,50.526 122.713,46.489 126.751,42.035 130.788,37.163 132.459,35.492 135.662,33.822 139.838,32.151 144.99,30.62 150.559,28.95 156.685,27.418 162.95,25.887 169.354,24.495 178.404,22.128 188.985,19.762 200.681,17.396 212.934,15.864 224.906,15.029 236.602,15.725 247.043,18.092 256.093,22.546 261.801,26.583 266.396,30.202 269.738,33.404 272.104,36.884 273.218,40.503 273.636,45.097 273.218,50.666 271.965,57.765 "
     id="polygon62"
     style="clip-rule:evenodd;fill:#c7b094;fill-rule:evenodd" /><polygon
     points="266.813,62.776 262.22,69.319 256.093,74.887 248.853,79.481 240.778,82.822 232.564,85.049 224.071,85.884 216.274,85.188 210.845,84.214 206.389,84.214 202.212,84.631 198.592,85.606 194.833,86.581 191.074,87.694 186.897,88.668 182.303,89.364 178.683,89.503 175.063,89.782 171.164,90.06 167.406,90.339 163.229,90.339 159.33,90.617 155.293,90.756 151.673,91.035 145.546,91.174 140.395,91.453 135.939,91.174 132.181,90.617 128.561,88.947 125.22,86.441 121.739,82.543 118.397,77.393 114.777,70.015 113.664,63.89 114.22,58.74 116.587,54.424 119.79,50.248 123.688,46.35 127.726,42.174 131.763,37.581 133.573,35.91 136.636,34.379 140.813,32.848 145.825,31.316 151.395,29.646 157.52,28.115 163.646,26.583 169.912,25.191 178.683,22.964 189.125,20.597 200.541,18.37 212.515,16.838 224.21,16.003 235.627,16.561 245.79,18.649 254.701,22.825 260.27,26.444 264.726,29.785 267.927,32.848 270.155,36.049 271.27,39.39 271.687,43.705 271.13,48.856 269.877,55.538 "
     id="polygon64"
     style="clip-rule:evenodd;fill:#c7b094;fill-rule:evenodd" /><polygon
     points="264.307,59.992 259.713,66.117 253.587,71.407 246.626,75.861 238.689,79.063 230.614,81.151 222.4,81.848 214.603,81.43 209.313,80.594 204.997,80.594 200.959,81.012 197.339,81.986 193.72,82.961 189.96,84.075 185.922,85.049 181.468,85.884 178.125,86.023 174.506,86.302 170.747,86.581 166.988,86.858 162.95,86.858 159.051,87.137 155.293,87.276 151.673,87.555 145.686,87.833 140.535,88.112 136.218,87.972 132.459,87.416 128.979,85.884 125.776,83.518 122.574,80.038 119.232,75.166 115.752,68.206 114.777,62.637 115.473,57.765 117.84,53.728 121.042,49.83 124.941,46.211 128.979,42.174 133.016,37.859 134.687,36.328 137.75,34.796 141.788,33.265 146.799,31.873 152.229,30.342 158.077,28.95 164.203,27.418 170.329,26.026 178.961,23.799 189.264,21.572 200.402,19.345 212.097,17.674 223.515,16.7 234.652,17.117 244.677,18.927 253.17,22.825 258.6,26.166 262.775,29.228 265.84,31.873 268.066,34.935 269.041,37.998 269.319,42.035 268.624,46.907 267.371,53.171 "
     id="polygon66"
     style="clip-rule:evenodd;fill:#ccb599;fill-rule:evenodd" /><polygon
     points="261.801,56.93 257.207,62.776 251.081,67.788 244.259,71.964 236.463,75.026 228.526,77.114 220.451,77.811 213.072,77.393 207.92,76.835 203.604,76.835 199.567,77.253 196.086,78.228 192.466,79.203 188.846,80.316 184.809,81.151 180.493,81.986 177.151,82.125 173.81,82.404 170.051,82.683 166.431,82.961 162.532,83.1 158.773,83.379 155.014,83.518 151.534,83.796 145.686,84.075 140.813,84.492 136.497,84.353 133.016,83.936 129.535,82.683 126.612,80.594 123.41,77.393 120.346,72.938 117.144,66.674 116.17,61.523 116.866,57.069 119.232,53.171 122.295,49.552 126.333,46.072 130.232,42.313 134.27,38.276 135.939,36.745 138.864,35.353 142.901,33.961 147.774,32.569 153.065,31.038 158.773,29.646 164.76,28.254 170.747,27 179.101,24.634 189.264,22.407 200.124,20.18 211.54,18.649 222.679,17.535 233.538,17.813 243.284,19.484 251.498,22.964 256.649,26.026 260.827,28.671 263.751,31.177 265.84,33.961 266.813,36.884 266.953,40.503 266.118,44.958 264.726,50.805 "
     id="polygon68"
     style="clip-rule:evenodd;fill:#cfb89c;fill-rule:evenodd" /><polygon
     points="259.155,53.867 254.562,59.157 248.574,63.751 241.753,67.648 234.096,70.432 226.299,72.521 218.502,73.356 211.123,73.217 206.25,72.66 202.073,72.799 198.175,73.217 194.833,74.052 191.353,74.887 187.872,76 183.973,76.976 179.657,77.811 176.316,77.95 172.974,78.367 169.354,78.506 165.874,78.924 161.976,79.063 158.355,79.342 154.597,79.62 151.255,79.898 145.546,80.177 140.813,80.594 136.775,80.594 133.294,80.177 130.092,79.063 127.169,77.114 124.245,74.33 121.321,70.432 118.258,64.725 117.562,59.992 118.397,55.955 120.625,52.476 123.688,49.134 127.586,45.933 131.485,42.453 135.522,38.833 137.193,37.441 140.256,36.049 144.154,34.657 148.888,33.265 154.04,31.873 159.748,30.481 165.456,29.089 171.304,27.836 179.518,25.748 189.264,23.521 199.984,21.433 211.123,19.762 221.982,18.649 232.424,18.649 241.753,19.901 249.828,22.964 254.701,25.748 258.738,28.115 261.522,30.342 263.473,32.848 264.307,35.492 264.447,38.833 263.611,42.87 262.22,48.16 "
     id="polygon70"
     style="clip-rule:evenodd;fill:#d4bda1;fill-rule:evenodd" /><polygon
     points="255.954,50.526 251.359,55.259 245.512,59.435 238.829,63.194 231.45,65.838 223.793,67.648 216.274,68.484 209.313,68.484 204.439,68.066 200.402,68.345 196.782,68.762 193.441,69.737 189.96,70.571 186.619,71.546 182.86,72.381 178.683,73.217 175.48,73.495 172.139,73.913 168.659,74.191 165.178,74.609 161.558,74.748 157.938,75.166 154.457,75.304 151.116,75.722 145.686,76 141.091,76.418 137.054,76.418 133.712,76.14 130.649,75.166 127.865,73.634 125.081,70.989 122.435,67.648 119.65,62.498 118.954,58.322 119.929,54.702 122.156,51.64 125.22,48.578 129.118,45.654 133.016,42.592 137.054,39.251 138.585,37.998 141.509,36.745 145.268,35.353 150.001,34.1 155.014,32.708 160.583,31.316 166.152,30.063 171.86,28.811 179.936,26.722 189.403,24.634 199.706,22.546 210.566,20.876 221.147,19.762 231.311,19.484 240.222,20.458 247.879,23.103 252.473,25.33 256.371,27.558 259.017,29.367 260.827,31.594 261.662,33.822 261.662,36.884 260.688,40.643 259.155,45.376 "
     id="polygon72"
     style="clip-rule:evenodd;fill:#d6bfa3;fill-rule:evenodd" /><polygon
     points="252.751,46.907 248.157,51.083 242.31,54.842 235.766,58.183 228.526,60.688 221.286,62.498 213.907,63.333 207.225,63.473 202.49,63.194 198.731,63.473 195.112,64.029 191.909,64.864 188.428,65.699 185.087,66.674 181.468,67.509 177.43,68.345 174.366,68.623 171.164,68.901 167.823,69.18 164.481,69.597 160.861,69.876 157.52,70.293 154.179,70.571 150.977,70.989 145.546,71.407 141.231,71.825 137.333,71.964 134.13,71.825 131.206,70.989 128.7,69.737 126.194,67.648 123.688,64.725 121.042,60.41 120.625,56.791 121.6,53.589 123.966,50.944 127.029,48.16 130.788,45.515 134.687,42.731 138.585,39.668 140.117,38.416 143.041,37.302 146.66,36.049 151.255,34.935 156.128,33.683 161.418,32.43 166.988,31.177 172.557,29.924 180.214,27.836 189.542,25.748 199.567,23.66 210.009,22.128 220.173,20.876 230.058,20.458 238.689,21.154 245.93,23.242 250.245,25.052 253.727,26.861 256.232,28.532 258.042,30.342 258.6,32.291 258.6,34.935 257.624,38.137 255.954,42.313 "
     id="polygon74"
     style="clip-rule:evenodd;fill:#d9c2a6;fill-rule:evenodd" /><polygon
     points="189.403,120.128 190.1,120.825 191.074,121.799 191.492,122.356 191.074,122.634 190.377,123.609 189.682,124.026 188.985,124.583 188.011,125.001 187.175,125.418 185.922,125.418 184.809,125.14 183.416,124.722 182.164,124.444 180.771,123.887 179.518,123.609 178.265,123.47 177.291,123.887 176.594,123.887 176.733,123.887 177.012,123.47 177.848,123.052 178.543,122.356 179.379,121.66 179.797,120.963 179.797,120.546 179.24,119.432 179.101,118.737 178.961,118.18 179.101,118.18 179.379,118.041 180.214,117.901 181.328,117.345 182.86,116.509 183.416,115.953 184.113,115.535 184.948,115.117 185.783,114.839 186.479,114.56 187.175,114.421 187.454,114.421 187.732,114.421 187.454,114.699 187.175,115.396 187.036,115.813 187.036,116.509 187.175,117.345 187.732,118.18 188.15,118.737 188.846,119.432 "
     id="polygon76"
     style="clip-rule:evenodd;fill:#968269;fill-rule:evenodd" /><polygon
     points="187.315,101.753 186.897,102.032 186.201,103.146 185.644,103.563 185.087,104.12 184.252,104.538 183.556,104.955 182.442,104.816 181.328,104.538 180.075,104.12 178.822,103.702 177.569,103.146 176.455,102.868 175.341,102.728 174.506,103.006 173.81,103.006 174.088,102.589 174.923,102.171 175.48,101.475 176.177,100.779 176.594,99.944 176.733,99.526 176.177,98.274 175.898,97.578 175.898,97.021 175.898,96.881 176.177,96.742 176.873,96.742 177.848,96.325 178.961,95.489 179.379,94.793 180.214,94.376 180.911,93.958 181.746,93.68 182.999,93.262 183.556,93.262 183.277,93.541 182.999,94.376 182.86,94.793 182.999,95.628 183.138,96.325 183.695,97.299 184.113,97.995 184.809,98.691 185.226,99.387 185.922,100.222 186.897,101.197 "
     id="polygon78"
     style="clip-rule:evenodd;fill:#bda68a;fill-rule:evenodd" /><polygon
     points="237.019,108.157 237.854,108.157 238.689,108.296 239.664,108.157 240.778,108.157 241.614,107.74 242.448,107.322 243.284,106.625 244.259,106.069 245.094,105.373 246.068,104.816 247.043,104.259 248.019,104.259 248.436,104.12 248.436,103.981 247.739,103.842 247.043,103.842 245.93,103.563 245.094,103.424 244.398,103.146 244.259,102.868 244.12,101.893 243.98,101.475 243.701,101.058 243.284,101.058 242.588,101.336 241.336,101.336 239.942,101.197 238.969,100.918 238.133,100.918 237.297,100.918 236.463,101.058 235.627,101.058 235.07,101.197 234.652,101.336 234.652,101.475 234.93,101.475 235.627,101.893 236.323,102.45 236.602,103.702 236.184,105.094 235.905,106.347 235.487,107.322 235.487,107.74 235.766,107.74 "
     id="polygon80"
     style="clip-rule:evenodd;fill:#ad967d;fill-rule:evenodd" /><polygon
     points="230.476,88.808 231.311,88.808 232.285,88.947 232.981,88.529 233.817,87.972 234.652,87.276 235.487,86.719 236.184,85.884 237.019,85.327 237.854,84.91 238.829,84.91 239.247,84.771 239.247,84.631 238.689,84.492 237.994,84.492 236.88,84.214 236.044,83.936 235.349,83.657 235.209,83.379 235.07,82.404 234.93,81.848 234.652,81.43 234.234,81.43 233.538,81.708 232.424,81.708 231.172,81.569 230.336,81.151 229.5,81.151 228.666,81.151 227.969,81.151 226.855,81.291 226.438,81.43 226.577,81.43 227.272,81.986 227.969,82.822 228.247,84.075 227.969,85.327 227.83,86.719 227.552,87.694 227.552,88.251 227.83,88.251 228.944,88.668 229.64,88.668 "
     id="polygon82"
     style="clip-rule:evenodd;fill:#c4ad94;fill-rule:evenodd" /><polygon
     points="202.49,72.66 203.326,72.66 204.161,72.66 204.997,72.243 205.833,71.686 206.667,70.989 207.503,70.432 208.338,69.597 209.174,69.04 210.009,68.623 210.845,68.484 211.262,68.345 211.123,68.345 210.566,68.206 209.87,68.206 208.895,67.927 208.199,67.788 207.503,67.37 207.364,67.092 207.085,66.117 206.946,65.56 206.667,65.282 206.25,65.282 205.554,65.421 204.439,65.282 203.187,65.282 202.352,65.004 201.655,65.004 200.82,65.004 200.124,65.004 198.871,65.143 198.453,65.282 198.731,65.282 199.428,65.838 199.984,66.535 200.402,67.788 200.124,69.04 199.845,70.432 199.567,71.407 199.567,71.825 199.845,71.964 200.959,72.381 201.655,72.521 "
     id="polygon84"
     style="clip-rule:evenodd;fill:#cfb89c;fill-rule:evenodd" /><polygon
     points="153.065,72.938 154.04,73.078 155.014,73.217 156.267,73.634 157.242,73.773 158.355,74.052 159.33,74.052 160.305,73.913 160.583,73.773 159.608,74.609 158.355,75.583 158.216,76.697 158.495,77.393 158.634,78.089 158.634,78.367 158.773,78.646 158.355,78.646 157.659,78.785 156.685,79.203 155.85,80.038 155.153,80.316 154.457,80.733 153.761,81.012 153.204,81.43 152.09,81.708 151.673,81.986 151.812,81.708 152.09,81.012 152.09,80.038 151.673,78.924 150.559,77.811 149.724,76.835 149.027,76.14 148.749,75.861 148.888,75.444 149.584,74.748 150.001,74.191 150.698,73.773 151.395,73.356 152.229,73.217 "
     id="polygon86"
     style="clip-rule:evenodd;fill:#cfb89c;fill-rule:evenodd" /><polygon
     points="265.561,113.308 265.84,113.725 265.561,113.725 265.004,113.864 264.029,114.004 262.775,114.421 260.967,114.839 258.878,115.396 256.232,116.091 253.309,116.927 250.524,117.345 249.132,117.484 248.436,117.066 248.714,116.788 249.132,116.091 249.828,115.674 250.524,115.117 250.803,115.117 250.941,114.978 251.639,114.699 252.612,114.282 254.004,113.864 255.258,113.168 256.511,112.612 257.624,111.776 258.46,110.941 258.738,109.827 259.017,108.853 259.017,107.878 259.155,107.043 259.155,106.208 259.574,105.93 260.131,105.93 261.105,106.347 261.941,106.765 262.637,107.183 262.915,107.601 263.333,108.018 263.611,108.992 264.029,110.245 264.447,111.498 265.143,112.612 "
     id="polygon88"
     style="clip-rule:evenodd;fill:#99856b;fill-rule:evenodd" /><polygon
     points="253.448,92.845 254.004,94.097 254.562,94.932 254.84,95.35 254.562,95.35 254.004,95.35 253.17,95.489 252.056,95.907 250.384,96.186 248.436,96.742 246.068,97.299 243.424,98.134 240.917,98.552 239.664,98.552 238.969,98.134 239.247,97.856 239.525,97.16 240.222,96.603 240.778,96.046 241.057,96.046 241.195,95.907 241.753,95.628 242.588,95.211 243.841,94.932 244.955,94.236 246.068,93.68 247.043,92.845 247.879,92.009 248.019,90.896 248.297,89.921 248.297,88.947 248.297,88.112 248.297,87.276 248.574,86.858 248.992,86.719 249.967,87.137 250.663,87.555 251.359,88.112 251.777,88.529 252.195,89.086 252.334,89.503 252.473,90.06 252.612,90.617 252.891,91.453 "
     id="polygon90"
     style="clip-rule:evenodd;fill:#bda68a;fill-rule:evenodd" /><polygon
     points="167.127,112.473 168.519,112.333 170.051,112.055 172.139,111.776 174.645,111.358 177.569,110.941 179.936,110.384 181.189,109.966 181.468,109.549 181.189,109.41 180.354,109.131 179.657,109.131 178.961,109.131 178.683,109.131 178.265,109.131 177.569,109.131 176.455,109.271 175.341,109.41 173.949,109.271 172.696,109.271 171.304,109.131 170.468,108.853 169.494,108.296 168.798,107.74 168.102,107.043 167.684,106.625 166.709,105.93 165.734,106.625 164.899,107.601 164.76,108.435 164.899,109.131 165.178,110.106 165.456,111.081 165.596,112.055 165.596,112.612 165.734,112.89 165.734,112.75 166.292,112.75 "
     id="polygon92"
     style="clip-rule:evenodd;fill:#ad967d;fill-rule:evenodd" /><polygon
     points="164.621,90.756 165.874,90.617 167.266,90.339 169.076,90.06 171.304,89.643 174.088,89.364 176.177,88.947 177.291,88.529 177.569,88.112 177.291,87.833 176.455,87.416 175.759,87.276 175.063,87.276 174.923,87.276 174.645,87.276 173.949,87.276 172.974,87.276 172,87.416 170.747,87.276 169.494,87.276 168.38,87.137 167.545,86.858 166.57,86.302 165.874,85.606 165.317,84.91 164.899,84.353 163.925,83.657 163.089,84.353 162.254,85.466 162.114,86.302 162.393,87.137 162.811,88.251 163.089,89.225 163.229,90.199 163.229,90.896 163.368,91.174 163.368,91.035 163.925,90.896 "
     id="polygon94"
     style="clip-rule:evenodd;fill:#c4ad94;fill-rule:evenodd" /><polygon
     points="129.953,70.015 131.206,69.876 132.598,69.597 134.547,69.319 136.915,69.04 139.699,68.762 141.788,68.206 142.901,67.788 143.041,67.37 142.762,67.231 142.066,66.813 141.37,66.674 140.674,66.674 140.535,66.674 140.256,66.674 139.56,66.674 138.585,66.674 137.472,66.813 136.218,66.674 134.965,66.674 133.712,66.396 132.877,66.117 131.902,65.421 131.206,64.864 130.649,64.029 130.232,63.612 129.396,62.916 128.561,63.612 127.865,64.586 127.726,65.421 127.865,66.256 128.282,67.37 128.422,68.345 128.7,69.319 128.7,70.015 128.7,70.293 128.7,70.154 129.257,70.154 "
     id="polygon96"
     style="clip-rule:evenodd;fill:#cfb89c;fill-rule:evenodd" /><polygon
     points="130.928,113.029 131.345,113.586 131.902,114.56 132.737,116.23 133.155,117.762 133.712,119.293 133.991,120.407 134.27,121.381 134.13,121.938 134.13,122.217 133.712,122.078 133.434,121.66 132.598,120.825 132.181,119.989 131.624,119.154 131.206,118.458 130.232,117.345 129.257,117.484 128.282,117.484 127.447,117.484 126.333,117.066 125.498,116.509 124.523,115.674 123.828,114.839 123.271,113.864 123.271,112.89 122.992,111.498 122.574,109.827 121.878,107.878 121.46,106.347 120.903,104.816 120.625,104.12 120.764,103.981 121.321,104.955 121.878,106.069 122.435,107.183 122.853,108.018 123.271,108.992 123.966,109.966 125.22,110.663 126.333,110.523 127.169,110.106 127.447,109.966 127.865,110.106 128.282,110.384 128.839,111.219 129.257,111.776 129.675,112.333 130.092,112.473 130.51,112.75 "
     id="polygon98"
     style="clip-rule:evenodd;fill:#99856b;fill-rule:evenodd" /><polygon
     points="131.624,89.921 132.042,90.617 132.459,91.591 133.155,93.262 133.712,94.932 134.27,96.463 134.687,97.717 134.965,98.83 134.965,99.387 134.965,99.666 134.547,99.526 134.27,99.109 133.573,98.134 133.155,97.299 132.598,96.325 132.181,95.628 131.206,94.376 130.232,94.515 129.396,94.515 128.561,94.376 127.586,93.958 126.751,93.541 125.916,92.566 125.22,91.73 124.663,90.756 124.663,89.782 124.245,88.251 123.828,86.302 123.271,84.353 122.713,82.543 122.018,81.012 121.878,80.038 121.878,79.898 122.435,81.012 122.992,82.265 123.549,83.518 123.966,84.492 124.384,85.327 125.081,86.441 126.194,87.276 127.169,87.137 128.004,86.719 128.282,86.441 128.561,86.719 128.979,87.137 129.675,87.972 130.092,88.668 130.649,89.225 130.928,89.364 131.345,89.782 "
     id="polygon100"
     style="clip-rule:evenodd;fill:#bda68a;fill-rule:evenodd" /><polygon
     points="278.787,79.342 279.065,80.594 279.344,81.291 279.763,82.125 280.18,82.543 280.597,81.986 280.736,80.455 280.736,79.203 280.875,78.228 281.989,77.95 283.381,77.393 284.495,76.14 284.773,75.304 285.053,74.609 284.914,73.773 284.635,73.217 283.938,72.243 283.381,71.128 282.964,69.737 282.547,68.484 282.128,67.37 281.989,66.674 281.85,66.674 281.989,67.509 281.989,68.484 282.128,69.319 282.268,70.015 282.407,70.711 282.268,71.546 281.711,72.381 280.597,72.66 279.901,72.66 279.483,72.66 279.205,72.799 279.065,73.078 279.065,73.913 278.787,74.887 278.369,75.444 278.23,75.722 278.23,76.279 278.23,76.976 278.508,78.228 "
     id="polygon102"
     style="clip-rule:evenodd;fill:#ad967d;fill-rule:evenodd" /><polygon
     points="264.586,58.322 264.864,59.435 265.143,60.688 265.421,61.523 265.84,62.359 266.257,62.916 266.674,62.22 266.674,60.688 266.674,59.435 266.813,58.322 267.788,58.043 268.902,57.487 270.016,56.233 270.155,55.398 270.294,54.702 270.155,53.867 269.877,53.171 269.181,52.058 268.763,50.805 268.205,49.413 267.788,48.16 267.371,47.046 267.231,46.35 267.371,47.186 267.371,48.16 267.649,48.995 267.649,49.691 267.927,50.526 267.788,51.361 267.231,52.197 266.257,52.476 265.561,52.476 265.143,52.476 264.864,52.615 264.726,52.893 264.726,53.728 264.586,54.285 264.586,54.702 264.447,54.981 264.307,55.398 264.168,55.538 264.168,56.233 264.168,57.069 "
     id="polygon104"
     style="clip-rule:evenodd;fill:#c4ad94;fill-rule:evenodd" /><polygon
     points="287.141,79.898 287.279,80.455 287.559,81.151 287.559,81.708 287.559,82.404 287.559,83.1 287.559,84.214 287.419,85.049 287.559,86.023 287.698,86.719 287.977,87.555 287.837,88.251 287.837,89.086 287.419,90.06 286.724,91.453 285.609,92.566 284.914,93.819 284.078,94.793 283.521,95.768 282.964,96.463 282.686,97.021 282.547,97.299 282.547,97.578 281.294,94.097 281.711,92.845 282.128,92.009 282.547,91.313 283.104,90.756 283.381,89.921 283.521,89.086 283.521,87.833 283.242,86.163 282.686,84.075 282.268,82.125 281.85,80.316 281.85,78.924 281.711,77.811 281.85,77.253 282.128,77.253 282.686,78.089 283.242,78.924 283.8,79.481 284.356,79.898 284.914,80.177 285.609,80.177 285.888,80.177 285.888,79.898 285.888,79.342 285.888,78.646 286.026,77.95 286.026,77.253 286.306,76.976 286.445,77.114 286.862,78.089 287.002,78.924 "
     id="polygon106"
     style="clip-rule:evenodd;fill:#99856b;fill-rule:evenodd" /><polygon
     points="273.218,62.081 273.356,62.637 273.497,63.333 273.497,63.751 273.497,64.447 273.497,65.143 273.497,66.117 273.356,66.953 273.497,67.788 273.636,68.484 273.914,69.319 273.914,70.015 273.914,70.85 273.497,71.825 272.939,73.078 271.965,74.052 271.27,75.166 270.572,76 270.155,76.976 269.599,77.671 269.319,78.228 269.181,78.506 269.181,78.785 268.066,75.444 268.205,74.33 268.624,73.495 269.041,72.938 269.599,72.381 269.738,71.546 270.016,70.711 269.877,69.458 269.599,67.788 269.181,65.838 268.763,64.029 268.346,62.359 268.346,61.105 268.205,59.992 268.346,59.575 268.624,59.575 269.181,60.41 269.599,61.245 270.155,61.802 270.572,62.081 271.13,62.498 271.687,62.498 271.965,62.498 271.965,62.22 271.965,61.663 271.965,60.966 272.104,60.271 272.104,59.575 272.383,59.296 272.522,59.435 272.939,60.41 273.078,61.245 "
     id="polygon108"
     style="clip-rule:evenodd;fill:#bda68a;fill-rule:evenodd" /><polygon
     points="235.905,40.643 235.905,41.061 235.905,41.478 235.627,42.035 235.487,43.009 235.209,43.705 235.209,44.262 235.349,44.819 235.627,45.376 235.487,45.933 235.349,46.628 234.791,47.464 233.817,48.578 232.285,49.552 231.031,50.526 229.919,51.222 229.083,52.058 227.83,53.171 227.552,53.589 226.299,51.083 226.855,50.109 227.691,49.413 228.387,48.856 229.083,48.299 229.5,47.603 229.919,46.907 229.919,46.072 229.778,44.819 229.223,43.288 228.944,41.896 228.666,40.643 228.666,39.668 228.666,38.833 228.805,38.416 229.223,38.416 229.919,38.972 231.172,39.947 232.424,40.364 233.398,40.364 233.817,40.364 233.817,40.086 233.817,39.668 233.956,38.972 234.374,38.555 234.513,37.998 234.791,37.72 235.07,37.859 235.349,38.416 235.487,39.112 235.627,39.808 235.766,40.225 "
     id="polygon110"
     style="clip-rule:evenodd;fill:#d1ba9e;fill-rule:evenodd" /><polygon
     points="176.594,32.43 175.759,32.291 175.341,32.291 174.506,32.012 174.228,31.456 173.81,31.038 172.974,30.898 172,30.759 171.164,30.759 170.468,30.481 170.329,30.342 170.886,29.785 172.557,29.228 174.366,28.254 176.177,27.418 177.569,26.583 178.822,26.166 179.657,25.609 180.354,25.33 180.632,25.191 180.911,25.191 185.783,25.748 185.087,26.166 184.252,26.583 183.277,27 182.442,27.418 181.746,27.697 181.885,28.115 182.721,28.393 184.669,28.811 187.036,28.95 189.125,29.367 190.795,29.646 192.048,29.924 192.605,30.202 192.605,30.481 191.771,30.62 190.1,30.759 187.872,30.759 186.062,30.898 184.391,31.038 183.138,31.316 182.024,31.456 181.328,31.594 180.771,31.733 180.771,31.873 180.911,32.012 181.05,32.569 180.911,32.708 180.493,32.848 179.797,32.848 178.822,32.848 177.569,32.569 "
     id="polygon112"
     style="clip-rule:evenodd;fill:#d1ba9e;fill-rule:evenodd" /><polygon
     points="130.788,43.009 131.067,42.453 130.928,42.174 130.51,41.896 130.232,41.756 130.092,41.339 130.649,40.921 131.902,40.364 134.27,39.529 136.775,38.416 139.282,37.581 141.37,36.606 143.18,36.049 144.433,35.353 145.546,35.075 146.104,34.796 146.382,34.796 148.47,35.771 147.078,36.328 145.825,36.884 144.294,37.441 143.18,37.998 142.066,38.416 141.509,38.972 141.37,39.39 141.927,40.225 142.623,40.782 143.18,41.339 143.458,41.896 143.737,42.592 143.458,42.87 143.18,43.288 142.344,43.427 141.37,43.427 139.978,43.148 138.585,43.148 137.333,43.288 136.218,43.427 135.104,43.566 134.408,43.705 133.852,43.845 133.852,43.984 133.434,44.262 132.598,45.097 131.624,45.515 130.788,45.376 130.092,44.68 129.675,44.401 129.814,43.845 "
     id="polygon114"
     style="clip-rule:evenodd;fill:#d1ba9e;fill-rule:evenodd" /><polygon
     points="137.611,110.245 138.446,110.663 139.699,111.219 140.952,111.498 142.205,111.916 143.319,112.194 144.294,112.612 144.99,112.75 145.546,113.029 145.825,113.168 146.104,113.308 145.407,110.941 144.433,110.384 143.597,110.106 142.762,109.827 142.205,109.688 141.509,109.271 140.952,108.992 140.395,108.296 139.978,107.322 139.282,105.93 138.864,104.677 138.167,103.702 137.75,103.006 137.193,102.311 136.915,102.032 136.636,102.171 136.636,102.868 136.357,103.981 135.801,104.677 135.244,104.816 135.104,104.955 134.547,104.538 133.712,103.702 133.016,103.285 133.155,103.981 133.712,105.094 134.13,105.791 134.547,106.347 135.662,107.461 136.357,108.435 136.775,109.41 136.915,109.827 "
     id="polygon116"
     style="clip-rule:evenodd;fill:#ad967d;fill-rule:evenodd" /><polygon
     points="139.838,89.364 140.952,89.503 142.066,89.782 142.901,89.921 143.876,90.199 144.572,90.339 145.129,90.478 145.407,90.617 145.546,90.756 144.85,89.086 144.015,88.529 143.319,88.39 142.623,88.251 142.205,88.112 141.509,87.833 141.091,87.694 140.674,87.137 140.395,86.441 139.838,85.327 139.421,84.492 139.003,83.657 138.585,83.1 137.89,82.404 137.611,83.1 137.333,83.936 136.775,84.492 136.079,84.631 135.939,84.771 135.522,84.353 134.826,83.936 134.27,83.657 134.408,84.214 134.687,84.91 135.104,85.466 135.522,85.884 136.357,86.581 136.915,87.276 137.333,88.112 137.472,88.39 138.028,88.668 138.725,88.947 "
     id="polygon118"
     style="clip-rule:evenodd;fill:#c4ad94;fill-rule:evenodd" /><polygon
     points="292.57,65.699 292.85,64.864 292.988,63.751 293.267,62.776 293.128,61.523 293.128,60.271 292.85,58.6 292.57,56.93 291.875,54.981 291.457,53.589 290.899,52.615 290.482,52.058 290.065,51.779 289.925,51.918 289.925,52.336 290.065,53.171 290.065,54.007 290.344,54.981 290.621,56.094 291.039,57.348 291.039,58.461 291.178,59.714 291.039,60.827 290.761,62.081 290.204,63.055 289.786,64.029 289.508,64.725 289.368,65.56 289.229,66.256 289.368,67.231 289.368,68.345 289.786,69.876 289.925,71.128 290.065,72.521 290.204,73.634 290.482,74.609 290.621,75.304 290.761,75.861 290.761,76.14 290.899,76.418 290.899,76 290.899,75.304 291.039,74.052 291.317,72.66 291.457,71.128 291.735,69.597 291.875,68.066 292.292,66.953 "
     id="polygon120"
     style="clip-rule:evenodd;fill:#99856b;fill-rule:evenodd" /><polygon
     points="276.698,45.654 276.838,44.541 276.977,43.427 277.256,42.453 277.116,41.061 276.977,39.808 276.698,38.137 276.421,36.328 275.724,34.239 275.167,32.848 274.75,31.733 274.332,31.177 273.914,30.898 273.636,31.038 273.636,31.456 273.775,32.291 273.914,33.125 274.332,34.239 274.609,35.353 275.028,36.606 275.167,37.859 275.307,39.112 275.167,40.364 275.028,41.756 274.471,42.731 274.192,43.705 273.914,44.541 273.914,45.376 273.775,46.211 273.914,47.186 274.054,48.299 274.471,49.969 274.609,51.361 274.89,52.753 275.028,53.867 275.307,54.842 275.445,55.538 275.585,56.094 275.585,56.373 275.724,56.651 275.724,56.233 275.724,55.538 275.724,54.285 275.863,52.893 276.002,51.222 276.143,49.691 276.281,48.021 276.56,46.907 "
     id="polygon122"
     style="clip-rule:evenodd;fill:#bda68a;fill-rule:evenodd" /><polygon
     points="123.828,102.45 123.271,101.893 122.574,101.058 122.018,100.361 121.321,99.248 120.903,98.134 120.346,96.603 120.068,95.628 119.929,94.793 120.068,94.376 120.346,94.097 121.042,94.932 121.182,95.489 121.6,96.325 121.878,97.021 122.295,97.856 122.713,98.552 123.271,99.387 124.105,100.083 125.081,100.779 125.776,101.197 126.612,101.753 127.169,102.171 127.726,102.589 128.143,103.006 128.561,103.702 128.979,104.538 129.675,105.651 130.092,106.486 130.649,107.461 131.067,108.157 131.485,108.853 131.763,109.549 132.042,109.966 131.763,109.688 131.345,109.271 130.51,108.435 129.814,107.74 128.7,106.765 127.865,105.93 126.89,105.094 126.055,104.398 125.22,103.563 124.523,103.146 "
     id="polygon124"
     style="clip-rule:evenodd;fill:#ad967d;fill-rule:evenodd" /><polygon
     points="119.79,73.913 121.042,75.026 122.156,75.583 122.992,76.14 123.549,76.835 124.523,78.089 125.22,79.342 125.916,80.316 126.333,81.012 126.612,81.291 126.055,80.733 124.941,79.759 124.105,79.063 123.41,78.367 122.574,77.811 122.018,77.393 120.903,76.418 120.068,75.722 119.511,75.166 119.093,74.609 118.536,73.773 118.119,73.078 117.562,72.103 117.283,71.407 117.144,70.85 117.144,70.571 117.283,70.293 117.84,70.989 118.258,71.686 118.954,72.938 "
     id="polygon126"
     style="clip-rule:evenodd;fill:#c4ad94;fill-rule:evenodd" /><polygon
     points="231.45,116.648 231.589,117.623 231.589,118.18 231.729,118.876 231.867,119.432 232.285,120.268 232.424,120.546 232.424,120.268 232.146,119.572 231.729,118.597 230.614,117.345 229.223,116.23 227.413,115.256 225.046,114.699 222.679,114.143 221.008,114.004 219.755,113.864 218.92,114.004 217.666,114.56 216.691,115.535 216.274,115.535 216.274,115.117 216.553,114.143 217.249,113.168 217.806,111.916 218.363,110.802 218.78,110.106 219.059,109.827 219.476,109.688 220.729,109.549 222.4,109.271 224.488,109.41 226.438,109.549 228.387,110.245 229.919,111.219 230.893,112.89 231.172,114.421 231.311,115.674 "
     id="polygon128"
     style="clip-rule:evenodd;fill:#99856b;fill-rule:evenodd" /><polygon
     points="223.515,97.16 223.653,98.134 223.653,98.691 223.793,99.387 223.932,100.083 224.349,100.918 224.488,101.197 224.627,101.058 224.21,100.222 223.793,99.248 222.817,97.856 221.564,96.603 219.755,95.489 217.666,94.793 215.438,94.236 213.768,93.958 212.654,93.819 211.957,93.958 210.845,94.515 210.148,95.489 209.73,95.489 209.73,94.932 210.009,93.958 210.428,92.845 210.845,91.453 211.262,90.478 211.54,89.643 211.818,89.364 212.097,89.225 213.212,89.086 214.742,89.086 216.691,89.225 218.502,89.503 220.312,90.199 221.704,91.313 222.679,93.123 222.957,94.793 223.374,96.186 "
     id="polygon130"
     style="clip-rule:evenodd;fill:#bda68a;fill-rule:evenodd" /><polygon
     points="197.478,109.41 197.896,110.106 198.453,110.802 198.871,111.916 198.731,112.194 198.592,112.055 198.453,111.498 198.453,110.802 198.592,109.549 199.149,108.435 200.124,107.183 201.794,106.069 203.326,104.955 204.718,104.398 205.554,103.842 206.528,103.842 207.781,103.702 209.034,103.981 209.313,103.981 209.034,103.702 208.338,103.146 207.503,102.728 206.389,102.032 205.415,101.614 204.718,101.197 204.439,101.197 203.883,101.197 202.908,101.475 201.237,101.893 199.706,102.589 198.035,103.285 196.782,104.259 196.086,105.373 196.225,106.765 196.643,107.878 197.061,108.853 "
     id="polygon132"
     style="clip-rule:evenodd;fill:#ad967d;fill-rule:evenodd" /><polygon
     points="192.188,88.39 192.605,88.947 193.163,89.921 193.58,91.174 193.441,91.453 193.302,91.313 193.023,90.617 193.163,89.921 193.163,88.668 193.72,87.416 194.555,86.163 196.086,85.049 197.478,83.936 198.592,83.379 199.428,82.822 200.263,82.822 201.237,82.822 202.49,83.1 202.769,83.1 202.49,82.822 201.655,82.265 200.82,81.708 199.706,81.012 198.731,80.455 198.035,80.038 197.896,80.038 197.478,80.038 196.504,80.316 195.112,80.733 193.72,81.43 192.327,82.125 191.213,83.1 190.656,84.214 190.935,85.606 191.353,86.719 191.771,87.694 "
     id="polygon134"
     style="clip-rule:evenodd;fill:#c4ad94;fill-rule:evenodd" /><polygon
     points="156.546,118.737 157.52,118.876 158.077,119.015 158.773,119.154 159.191,119.154 159.887,119.293 160.583,119.432 161.558,119.711 162.532,119.711 163.786,119.85 164.899,119.989 166.013,120.407 166.709,120.546 167.266,121.103 167.266,121.521 166.988,122.356 166.152,122.773 165.456,122.913 164.621,122.773 164.063,122.773 163.229,122.634 162.532,122.634 161.558,122.773 160.583,123.33 159.33,123.748 158.355,124.165 157.52,124.444 156.685,124.722 155.71,124.722 154.875,124.722 153.9,124.583 153.065,124.444 151.812,124.026 150.559,123.609 149.306,123.191 148.47,122.913 147.774,122.495 147.774,122.217 148.192,121.938 149.445,121.938 150.698,121.66 151.673,121.242 152.229,120.546 152.787,119.989 153.204,119.154 153.761,118.737 154.597,118.458 155.71,118.597 "
     id="polygon136"
     style="clip-rule:evenodd;fill:#968269;fill-rule:evenodd" /><polygon
     points="156.685,97.16 157.381,97.299 157.799,97.438 158.355,97.578 158.912,97.717 159.887,97.995 160.722,97.995 161.836,98.274 162.811,98.413 163.925,98.83 164.621,99.109 165.178,99.666 165.178,100.083 164.899,100.918 163.507,101.475 162.393,101.336 161.697,101.058 161.001,101.058 160.026,101.197 159.191,101.753 158.077,102.171 157.242,102.589 156.406,102.868 155.71,103.146 154.875,103.006 154.179,103.006 153.204,102.868 152.369,102.589 151.116,102.032 150.001,101.614 148.749,101.197 148.053,100.779 147.356,100.361 147.356,99.944 147.635,99.666 148.888,99.805 149.862,99.666 150.698,99.248 151.255,98.552 151.812,97.995 152.09,97.299 152.647,96.881 153.344,96.603 154.457,96.742 155.293,96.881 156.128,97.021 "
     id="polygon138"
     style="clip-rule:evenodd;fill:#bda68a;fill-rule:evenodd" /><polygon
     points="261.662,93.68 261.105,94.097 260.688,94.376 260.27,94.654 259.436,95.211 258.321,95.907 257.346,96.186 256.511,96.603 255.676,97.16 254.979,97.717 254.423,97.995 254.283,98.413 254.423,98.691 255.258,99.109 256.093,99.109 256.649,98.969 257.207,98.691 257.764,98.552 258.182,98.134 258.738,97.856 259.574,97.717 260.827,97.717 261.941,97.578 263.054,97.578 263.89,97.438 264.864,97.438 265.421,97.16 266.257,96.881 266.953,96.463 267.788,96.186 268.484,95.489 269.319,94.932 269.877,94.097 270.572,93.68 270.712,93.262 270.712,92.984 270.155,92.984 269.319,93.401 268.066,93.68 267.093,93.68 266.257,93.401 265.561,93.262 264.726,92.845 264.029,92.845 263.193,92.845 262.498,93.262 "
     id="polygon140"
     style="clip-rule:evenodd;fill:#ad967d;fill-rule:evenodd" /><polygon
     points="247.879,75.444 247.043,76 246.208,76.418 245.373,76.835 244.537,77.393 243.98,77.95 243.424,78.228 243.284,78.646 243.563,79.063 244.398,79.481 245.094,79.481 245.651,79.481 246.068,79.203 246.626,79.063 247.043,78.646 247.6,78.367 248.297,78.089 249.41,78.228 250.384,78.228 251.359,78.228 252.056,78.089 252.891,78.089 254.145,77.671 255.537,76.835 256.232,76.14 256.929,75.444 257.485,74.748 258.042,74.33 258.182,73.773 258.182,73.495 257.764,73.495 256.929,73.913 255.814,74.052 254.979,74.191 254.145,73.913 253.448,73.634 252.056,73.078 250.803,73.634 249.967,74.052 249.41,74.47 248.992,74.748 248.574,75.026 "
     id="polygon142"
     style="clip-rule:evenodd;fill:#c4ad94;fill-rule:evenodd" /><polygon
     points="142.484,119.711 142.623,119.572 142.484,119.154 142.344,118.876 141.927,118.737 141.231,119.015 139.978,119.015 138.725,118.737 137.472,118.18 136.497,117.623 135.522,116.788 134.826,116.091 134.547,115.256 134.965,114.699 135.939,114.004 137.333,114.421 138.028,114.699 139.003,114.978 140.117,115.117 141.37,115.117 142.344,114.56 143.319,113.864 144.154,113.029 144.99,112.333 145.268,111.637 145.686,111.498 145.686,111.637 145.686,112.75 145.546,113.725 145.546,114.699 145.546,115.396 145.546,116.091 145.407,116.648 145.129,117.206 144.711,117.901 143.876,118.876 143.041,119.432 142.623,119.85 "
     id="polygon144"
     style="clip-rule:evenodd;fill:#a38f73;fill-rule:evenodd" /><polygon
     points="147.217,106.347 147.217,106.208 147.078,105.93 147.078,105.651 146.66,105.512 146.104,105.651 144.99,105.512 144.015,105.233 142.901,104.538 142.066,103.981 141.091,103.006 140.674,102.171 140.395,101.336 140.535,100.779 141.231,100.083 142.484,100.64 143.18,100.918 144.015,101.336 144.85,101.614 145.964,101.614 146.799,101.058 147.635,100.361 148.192,99.526 148.749,98.83 149.027,98.134 149.306,97.995 149.306,98.274 149.445,99.387 149.306,100.361 149.306,101.336 149.306,102.032 149.445,102.868 149.306,103.424 149.306,103.981 148.749,104.677 148.331,105.651 147.635,106.208 147.356,106.486 "
     id="polygon146"
     style="clip-rule:evenodd;fill:#b8a387;fill-rule:evenodd" /><polygon
     points="273.078,87.276 272.939,86.998 272.939,86.858 273.356,86.581 274.192,86.441 275.028,86.023 276.002,85.466 276.698,84.771 277.256,84.075 277.534,83.239 277.674,82.543 277.534,81.986 277.116,81.708 275.863,81.569 274.89,82.404 274.332,82.822 273.775,83.239 272.939,83.657 272.104,84.075 270.851,83.936 269.599,83.796 268.484,83.518 267.649,83.379 266.813,82.961 266.535,82.961 266.535,83.1 267.231,83.796 267.788,84.353 268.346,85.049 268.624,85.466 269.041,85.884 269.319,86.163 269.877,86.441 270.572,86.719 271.687,87.137 272.522,87.276 273.078,87.416 "
     id="polygon148"
     style="clip-rule:evenodd;fill:#ad967d;fill-rule:evenodd" /><polygon
     points="260.131,67.509 259.853,67.231 259.991,67.092 260.131,66.813 260.967,66.813 261.662,66.396 262.498,65.838 263.054,65.143 263.611,64.447 263.89,63.612 263.89,62.916 263.751,62.22 263.333,61.941 262.22,61.802 261.522,62.498 260.967,62.916 260.548,63.333 259.853,63.751 259.017,64.168 257.902,64.168 256.79,63.89 255.676,63.612 254.84,63.333 254.145,63.055 253.865,63.055 253.865,63.194 254.562,63.89 255.118,64.586 255.676,65.143 255.954,65.56 256.232,66.117 256.511,66.396 257.068,66.813 257.764,67.092 258.878,67.509 259.713,67.648 260.131,67.648 "
     id="polygon150"
     style="clip-rule:evenodd;fill:#c4ad94;fill-rule:evenodd" /><polygon
     points="253.03,41.617 252.751,41.339 252.891,41.2 253.17,40.921 254.004,40.921 254.701,40.503 255.537,39.947 256.093,39.112 256.649,38.416 256.929,37.581 256.929,36.884 256.79,36.328 256.371,36.049 255.258,35.771 254.562,36.466 254.004,36.884 253.448,37.441 252.751,37.859 251.917,38.276 250.803,38.276 249.688,37.998 248.574,37.72 247.879,37.441 247.043,37.023 246.766,37.023 246.904,37.163 247.6,37.859 248.019,38.555 248.574,39.251 248.853,39.668 249.271,40.225 249.55,40.503 250.106,40.921 250.803,41.2 251.917,41.617 252.612,41.756 253.03,41.756 "
     id="polygon152"
     style="clip-rule:evenodd;fill:#d1ba9e;fill-rule:evenodd" /><polygon
     points="115.891,89.364 115.473,88.668 114.22,87.276 112.828,86.302 111.575,85.327 110.74,84.91 110.322,84.492 110.043,84.075 109.626,83.239 109.348,82.404 108.791,81.151 108.233,79.898 107.816,78.785 107.398,78.089 106.98,77.532 106.841,77.532 106.841,78.089 106.98,79.481 106.98,80.733 106.98,81.291 106.841,81.43 106.702,81.151 106.702,81.291 106.98,82.265 107.259,83.239 107.816,84.214 108.651,85.049 109.626,86.163 110.322,86.998 111.158,88.251 111.714,89.503 112.271,91.035 112.411,92.148 112.55,92.845 112.55,93.262 112.55,93.541 112.411,93.68 112.55,93.958 112.55,94.376 112.968,95.35 113.246,96.186 113.664,97.021 114.081,97.578 114.499,98.134 115.056,98.691 115.334,98.969 115.334,98.691 115.473,98.274 115.613,97.438 115.891,96.742 116.03,95.628 116.309,94.515 116.448,93.401 116.726,92.427 116.587,91.174 116.309,90.199 "
     id="polygon154"
     style="clip-rule:evenodd;fill:#a89478;fill-rule:evenodd" /><polygon
     points="109.626,62.916 109.487,63.055 109.487,63.473 109.487,64.307 109.348,65.004 109.208,65.421 109.208,65.56 109.069,65.421 109.208,66.117 109.766,67.231 111.158,68.345 111.714,68.762 112.411,69.458 112.828,70.154 113.246,71.128 113.246,71.825 113.246,72.381 113.107,72.521 113.107,72.799 113.107,73.078 113.385,73.913 113.803,74.887 114.36,75.583 114.777,75.861 115.056,76 115.195,75.444 115.752,74.47 116.309,73.078 116.866,71.686 116.726,70.293 116.17,69.458 115.056,68.762 114.081,68.206 112.968,67.648 112.411,67.509 111.854,67.092 111.297,66.117 110.879,65.282 110.601,64.447 110.183,63.751 110.043,63.333 "
     id="polygon156"
     style="clip-rule:evenodd;fill:#bfab8f;fill-rule:evenodd" /><polygon
     points="281.572,55.677 281.572,55.259 281.711,54.842 281.711,54.285 281.711,53.589 281.433,52.615 281.154,51.779 280.875,50.944 280.875,50.387 280.736,49.83 281.015,49.83 281.294,50.109 281.989,50.944 282.407,51.779 282.825,52.197 282.964,52.197 283.104,52.197 282.964,51.918 283.104,52.058 283.381,52.753 283.381,53.45 283.381,54.285 283.242,55.12 283.104,56.094 282.825,56.93 282.825,57.904 282.825,58.879 283.381,59.992 283.659,60.688 284.078,61.245 284.217,61.384 284.495,61.663 284.635,61.802 284.773,62.22 285.192,62.916 285.331,64.168 285.331,65.282 285.192,65.838 285.192,66.117 284.635,65.699 283.381,64.864 282.547,64.168 281.85,63.612 281.015,62.916 280.597,62.22 280.041,61.384 279.622,60.688 279.483,59.992 279.622,59.435 279.901,58.183 280.597,57.208 281.015,56.233 "
     id="polygon158"
     style="clip-rule:evenodd;fill:#ad967d;fill-rule:evenodd" /><polygon
     points="267.231,37.163 267.51,36.188 267.927,35.771 267.927,35.353 268.066,34.935 267.927,34.239 267.927,33.543 267.649,32.43 267.371,31.456 266.953,30.62 266.953,29.924 266.813,29.506 267.093,29.506 267.371,29.785 268.066,30.759 268.484,31.594 268.902,32.012 269.041,32.151 269.181,32.151 269.041,31.873 269.041,32.012 269.459,32.708 269.459,33.404 269.599,34.239 269.459,35.214 269.459,36.188 269.181,37.023 269.181,38.137 269.319,39.112 269.877,40.364 270.155,41.2 270.572,41.617 270.712,41.896 270.991,42.174 271.13,42.313 271.13,42.731 271.547,43.427 271.547,44.123 271.687,44.819 271.687,45.376 271.825,45.933 271.687,46.489 271.687,46.768 271.13,46.35 270.016,45.376 269.319,44.68 268.624,43.984 267.788,43.288 267.371,42.592 266.813,41.756 266.535,40.921 266.396,40.225 266.396,39.668 266.674,38.276 "
     id="polygon160"
     style="clip-rule:evenodd;fill:#c4ad94;fill-rule:evenodd" /><polygon
     points="208.338,108.575 208.756,107.183 209.174,105.791 209.591,104.816 210.009,104.398 210.428,104.955 210.845,105.651 211.54,106.486 212.097,107.322 212.793,108.157 213.072,108.992 213.351,109.827 213.212,110.802 212.793,111.916 211.818,112.89 210.983,114.004 210.287,114.978 209.73,115.953 209.034,116.509 208.756,116.788 208.338,116.648 208.338,116.23 208.06,115.396 208.06,114.699 207.781,114.143 207.781,113.725 207.642,112.89 207.92,112.055 207.92,111.219 208.06,109.966 "
     id="polygon162"
     style="clip-rule:evenodd;fill:#a38f73;fill-rule:evenodd" /><polygon
     points="211.262,106.904 212.236,108.296 212.515,108.992 212.654,109.827 212.515,110.663 212.236,111.498 211.401,112.333 210.845,113.168 210.287,114.004 209.87,114.839 209.174,115.535 208.895,115.117 208.617,113.864 208.478,113.029 208.199,112.194 208.338,111.498 208.338,110.802 208.617,109.827 208.756,108.575 209.174,107.461 209.452,106.208 209.73,105.512 210.009,105.233 210.428,105.651 "
     id="polygon164"
     style="clip-rule:evenodd;fill:#9e9178;fill-rule:evenodd" /><polygon
     points="210.705,112.473 210.009,113.725 209.452,114.282 209.452,114.004 209.174,112.89 209.034,112.194 208.895,111.637 209.034,111.219 209.034,110.523 209.174,109.688 209.313,108.714 209.452,107.878 209.591,106.904 209.87,106.347 210.009,106.069 210.428,106.486 210.983,107.461 211.68,108.575 211.957,109.827 211.68,111.219 "
     id="polygon166"
     style="clip-rule:evenodd;fill:#99947a;fill-rule:evenodd" /><polygon
     points="209.591,111.916 209.591,111.498 209.591,111.081 209.591,110.663 209.591,110.106 209.591,109.549 209.73,108.853 209.87,108.157 210.148,107.043 210.428,107.183 210.705,107.878 211.123,108.714 211.262,109.688 211.123,110.802 210.566,111.637 210.148,112.612 209.87,113.029 209.73,112.75 "
     id="polygon168"
     style="clip-rule:evenodd;fill:#969680;fill-rule:evenodd" /></g>
</svg>