<?xml version="1.0" encoding="UTF-8" standalone="no"?>
<!-- Created with Inkscape (http://www.inkscape.org/) -->
<svg xmlns:inkscape="http://www.inkscape.org/namespaces/inkscape" xmlns:rdf="http://www.w3.org/1999/02/22-rdf-syntax-ns#" xmlns:ns1="http://sozi.baierouge.fr" xmlns:dc="http://purl.org/dc/elements/1.1/" xmlns="http://www.w3.org/2000/svg" xmlns:cc="http://web.resource.org/cc/" xmlns:xlink="http://www.w3.org/1999/xlink" xmlns:sodipodi="http://sodipodi.sourceforge.net/DTD/sodipodi-0.dtd" id="svg3808" version="1.0" viewBox="0 0 1067.4 545.63" inkscape:version="0.91 r13725" xmlns:svg="http://www.w3.org/2000/svg">
  <defs id="defs3810">
    <linearGradient id="linearGradient3608" y2="71.791" gradientUnits="userSpaceOnUse" x2="206.24" gradientTransform="translate(218.87 562.77)" y1="71.791" x1="184.63">
      <stop id="stop3604" style="stop-color:#c88678" offset="0"/>
      <stop id="stop3606" style="stop-color:#c88678;stop-opacity:0" offset="1"/>
    </linearGradient>
    <linearGradient id="linearGradient3590" y2="67.395" gradientUnits="userSpaceOnUse" x2="196.02" gradientTransform="translate(218.87 562.77)" y1="67.395" x1="176.99">
      <stop id="stop3586" style="stop-color:#c9705c" offset="0"/>
      <stop id="stop3588" style="stop-color:#c9705c;stop-opacity:0" offset="1"/>
    </linearGradient>
    <filter id="filter3299">
      <feGaussianBlur id="feGaussianBlur3301" stdDeviation="0.19901178" inkscape:collect="always"/>
    </filter>
    <linearGradient id="linearGradient4081" y2="515.68" xlink:href="#linearGradient4037" gradientUnits="userSpaceOnUse" x2="435.24" gradientTransform="matrix(-.26251 .25079 -.27175 -.26151 562.8 701.31)" y1="553.16" x1="434.34"/>
    <filter id="filter4135" color-interpolation-filters="sRGB">
      <feGaussianBlur id="feGaussianBlur4137" stdDeviation="0.76757793"/>
    </filter>
    <radialGradient id="radialGradient4159" gradientUnits="userSpaceOnUse" cy="325.05" cx="404.6" gradientTransform="matrix(1 0 0 .90121 0 32.113)" r="62.371">
      <stop id="stop4155" style="stop-color:#a5a6a4" offset="0"/>
      <stop id="stop4157" style="stop-color:#a5a6a4;stop-opacity:0" offset="1"/>
    </radialGradient>
    <linearGradient id="linearGradient4037">
      <stop id="stop4039" style="stop-color:#a5a6a3" offset="0"/>
      <stop id="stop4041" style="stop-color:#efefef" offset="1"/>
    </linearGradient>
    <linearGradient id="linearGradient4049" y2="515.68" xlink:href="#linearGradient4037" gradientUnits="userSpaceOnUse" x2="435.24" gradientTransform="matrix(-.25295 .25767 -.33886 -.20173 606.44 670.45)" y1="553.16" x1="434.34"/>
    <linearGradient id="linearGradient3202" y2="273.52" gradientUnits="userSpaceOnUse" x2="498.88" gradientTransform="matrix(-1 0 0 1 1086.1 .5)" y1="269.02" x1="527">
      <stop id="stop4225" style="stop-color:#ffffff;stop-opacity:0" offset="0"/>
      <stop id="stop4227" style="stop-color:#ffffff" offset="1"/>
    </linearGradient>
    <linearGradient id="linearGradient3200" y2="63.256" spreadMethod="reflect" gradientUnits="userSpaceOnUse" x2="238.51" gradientTransform="translate(247.66,164.5)" y1="63.609" x1="213">
      <stop id="stop3958" style="stop-color:#796a69" offset="0"/>
      <stop id="stop3960" style="stop-color:#2e3436;stop-opacity:.11786" offset="1"/>
    </linearGradient>
    <linearGradient id="linearGradient3198" y2="231.86" xlink:href="#linearGradient3155" gradientUnits="userSpaceOnUse" x2="43.581" y1="246" x1="14.08"/>
    <linearGradient id="linearGradient3155">
      <stop id="stop3157" style="stop-color:#796a69" offset="0"/>
      <stop id="stop3159" style="stop-color:#ccbdb8" offset="1"/>
    </linearGradient>
    <linearGradient id="linearGradient3196" y2="63.256" xlink:href="#linearGradient3155" spreadMethod="reflect" gradientUnits="userSpaceOnUse" x2="238.51" gradientTransform="translate(247.24,164.01)" y1="63.609" x1="213"/>
    <linearGradient id="linearGradient3194" y2="264.52" gradientUnits="userSpaceOnUse" x2="520.38" y1="270.02" x1="493.5">
      <stop id="stop4211" style="stop-color:#000000" offset="0"/>
      <stop id="stop4213" style="stop-color:#000000;stop-opacity:0" offset="1"/>
    </linearGradient>
    <linearGradient id="linearGradient3192" y2="263.43" gradientUnits="userSpaceOnUse" x2="504.61" gradientTransform="matrix(-1,0,0,1,1085.5,0)" y1="283.69" x1="580.11">
      <stop id="stop4045" style="stop-color:#a4a5a2" offset="0"/>
      <stop id="stop4196" style="stop-color:#d7d7d7" offset=".41399"/>
      <stop id="stop4047" style="stop-color:#f1f1f1" offset="1"/>
    </linearGradient>
    <linearGradient id="linearGradient3190" y2="357.38" gradientUnits="userSpaceOnUse" x2="548.47" gradientTransform="translate(-5.7071,-20.793)" y1="386.38" x1="557.75">
      <stop id="stop4066" style="stop-color:#888a85" offset="0"/>
      <stop id="stop4068" style="stop-color:#888a85;stop-opacity:0" offset="1"/>
    </linearGradient>
    <filter id="filter4109" color-interpolation-filters="sRGB">
      <feGaussianBlur id="feGaussianBlur4111" stdDeviation="0.97178172"/>
    </filter>
    <filter id="filter4158" color-interpolation-filters="sRGB">
      <feGaussianBlur id="feGaussianBlur4160" stdDeviation="1.716105"/>
    </filter>
    <linearGradient id="linearGradient3188" y2="496.5" gradientUnits="userSpaceOnUse" x2="401.94" gradientTransform="translate(137,-179.5)" y1="470.5" x1="402.44">
      <stop id="stop4130" style="stop-color:#ffffff;stop-opacity:0.8" offset="0"/>
      <stop id="stop4132" style="stop-color:#ffffff;stop-opacity:0" offset="1"/>
    </linearGradient>
    <radialGradient id="radialGradient3186" gradientUnits="userSpaceOnUse" cy="356.12" cx="530.25" gradientTransform="matrix(1.8794 .40771 -.20137 .9282 -394.13 -249.25)" r="51.25">
      <stop id="stop3972" style="stop-color:#f0f0f0" offset="0"/>
      <stop id="stop3974" style="stop-color:#bfbfbf" offset="1"/>
    </radialGradient>
    <filter id="filter4304" height="1.5657" width="1.1157" color-interpolation-filters="sRGB" y="-.28284" x="-.057826">
      <feGaussianBlur id="feGaussianBlur4306" stdDeviation="2.3662087"/>
    </filter>
  </defs>
  <g id="layer1" transform="translate(190.86 .44117)">
    <g id="g3674" transform="matrix(3.9305 0 0 3.9983 -1090.4 -2410.5)">
      <g id="g4004">
        <g id="g4024" transform="translate(-117.1 360.51)">
          <path id="rect4126" style="fill:#c17d11" d="m370.66 302.38l-23.75 63.84h270l-12.25-63.84h-234z"/>
          <path id="path3151" style="fill:#8f5902" d="m350.66 378.72l-3.75-12.34h270l-2.25 12.34h-264z"/>
          <path id="path3231" style="opacity:.5;fill:#e9b96e" d="m377.44 301.38c-2.13 0.12-4.27 0.25-6.41 0.34l-0.25 0.63c10.2-0.23 20.37-0.6 30.57-0.97h-23.91zm58.97 2.5c-22.09 0-44.16 0.03-66.25 0.16l-0.25 0.75c57.23 0.84 114.48 3.27 171.72 1.15 21.39-0.48 42.76-1.03 64.15-1.34l-0.16-0.72c-1.39 0-2.78-0.01-4.16 0-55.02 0.26-110.05 0.01-165.06 0h0.01zm170 4c-79.23 0.17-158.46 0.09-237.69 0.09l-0.16 0.38c57.15 0.33 114.32-0.1 171.47 0.09h66.47l-0.09-0.56zm0.41 2.19c-78.48 0.72-156.96-0.07-235.44 0.25h-3.54l-0.12 0.31c59.84 0.3 119.72-0.05 179.56 0.13 19.88-0.08 39.77 0 59.66-0.1l-0.13-0.59h0.01zm0.37 1.93c-79.81 0.2-159.6 0.03-239.41 0.29 79.84 0.22 159.66 0.17 239.5 0.18l-0.1-0.48 0.01 0.01zm-152.47 2.32c-29.5 0.01-59 0.1-88.5 0.31l-0.12 0.37c80.52 1.3 161.09-0.08 241.62-0.21l-0.1-0.47c-50.97 0.14-101.94-0.02-152.91 0h0.01zm153.19 1.44c-77.6 0.18-155.21 0.05-232.81 0.28 77.64 0.18 155.27 0.18 232.91 0.22l-0.09-0.5h-0.01zm0.47 2.31c-81.18 0.24-162.35 0.07-243.53 0.31 81.2 0.19 162.39 0.15 243.59 0.19l-0.06-0.5zm-233.94 4.56c-3.86-0.01-7.66 0.07-11.28 0.28l-0.56 1.47c9.66 0.55 19.32 0.82 29 0.91 14.96-0.26 29.94-0.5 44.9-0.66-14.97 0.48-29.94 0.79-44.9 0.66-9.85 0.17-19.69 0.34-29.54 0.53l-0.15 0.47c58.27 0.1 116.53-0.44 174.78 1.03 23.43-0.4 47.19 0.36 70.34-3.35-25.25-2.47-51.65 0.33-77.19 0.88-30.86-0.61-61.72-0.58-92.59-0.25 7.9-0.26 15.79-0.55 23.69-0.85-21.75 0.08-43.51-0.85-65.25-0.96-6.75 0.11-14.1-0.14-21.25-0.16zm86.5 1.13c9.5-0.04 19-0.27 28.5-0.85l-2.45-0.08c-8.69 0.26-17.37 0.58-26.06 0.91l0.01 0.02zm-36.13 4.09c-21.21 0.85-42.41 0.58-63.62 0.31l-0.09 0.31c1.72 0.06 3.23 0.15 4.34 0.29-1.26 0.14-2.85 0.28-4.59 0.37l-0.22 0.56c13.93-0.39 27.87-0.82 41.81 0.38 44 1.05 88.02 0.03 132.03 0.37-27.39 0.36-54.88 0.02-82.31 1.07-24.21 0.09-48.42-0.32-72.63-1.19-6.37-0.11-12.74-0.06-19.12 0l-0.1 0.22c0.74 0.03 1.46 0.07 2.19 0.12 16.66 0.03 33.32 0.71 49.97 1.25-17.71 1.2-35.47 1.44-53.22 1.47l-0.19 0.53c10.76-0.07 21.53-0.33 32.28-0.53-10.8 1.22-21.63 1.21-32.47 1l-0.09 0.28c3.43 0.12 5.82 0.34 5.5 0.66-1.94 0.11-3.9 0.19-5.84 0.25l-0.13 0.37c24.86-0.1 49.73-0.58 74.6 0.28 55.3-0.04 111.94 0.1 166.47-0.18-71.6-0.36-143.21 0.21-214.75-0.82 23.64-1.31 47.3-0.99 70.93-1.78-14.84-0.16-29.7-0.38-44.56-0.68 4.81-0.17 9.63-0.34 14.44-0.47 11.1 0.32 22.2 0.76 33.31 1.03 6.82-0.26 13.63-0.6 20.44-1.13 17.17-0.5 34.36-0.8 51.56-0.75l-0.84-0.06c26.51-0.69 53.01-1.5 79.53-1.75-70.55 0.95-141.12 1.14-211.66-0.37-6.68-0.27-13.73-0.49-2.97-0.41 68.08-1.11 136.17-0.3 204.25-0.78-58.08-0.34-116.17-0.19-174.25-0.22zm105.93 3.59c15.69 1.19 31.37 2.33 47.07 3.31 6.69 0.23 14.24 0.86 21.56 1.28h0.12c4.27 0.25 8.46 0.42 12.38 0.41l-0.25-1.35c-26.86-2.57-53.87-3.56-80.88-3.65zm-72 1.87c-0.99 0.04-1.97 0.1-2.96 0.13 25.5 0.27 50.99 0.35 76.62 0.22 0.26-0.04 0.14-0.11-0.22-0.16h-0.03c-2.8-0.38-20.11-0.98-26.22-0.97-15.76 1.19-31.49 1.16-47.19 0.78zm-100.97 4l-0.31 0.88c29.94 0.21 59.88 1.21 89.81 1.78 25.08-0.77 50.17-1.53 75.25-1.78 5.68-0.08 11.35-0.18 17.03-0.28-60.59-0.47-121.19-0.22-181.78-0.6zm181.78 0.6c13.95 0.1 27.9 0.27 41.85 0.47 5.19-0.23 10.37-0.5 15.56-0.78-19.13-0.46-38.27-0.05-57.41 0.31zm41.85 0.47c-17.09 0.76-34.2 1.21-51.31 1.53 26.34-0.19 52.68-0.02 79-1.07-9.23-0.18-18.46-0.33-27.69-0.46zm-134.12 1.59c-4.87 0.15-9.73 0.29-14.6 0.44 13.6 0.08 27.19 0.09 40.78 0.19-3.8 0.03-7.62 0.08-11.43 0.12h24.84c-4.36-0.06-8.73-0.09-13.09-0.12 18.47-0.17 36.94-0.36 55.4-0.69-3.8 0.03-7.63 0.08-11.44 0.12-23.49 0.59-46.97 0.39-70.46-0.06zm14.75 0.75h-40c-7.43 0.21-14.86 0.39-22.28 0.56 10.98-0.05 21.95-0.13 32.93-0.22 9.78-0.14 19.57-0.25 29.35-0.34zm-62.28 0.56c-14.5 0.08-29 0.13-43.5 0.16l-0.16 0.41c14.56-0.02 29.1-0.24 43.66-0.57zm22.28-0.56c3.55-0.1 7.1-0.21 10.65-0.31-17.66-0.11-35.34-0.34-53-1.06-7.54 0.13-15.08 0.07-22.62-0.07l-0.16 0.41c21.25 0.29 42.51 0.39 63.75 1.03h1.38zm162.81 2.66c-8.01 0.01-16.33 0.1-23.56 0.06-29.64 0.07-59.27 0.21-88.91 0.37-39 0.01-78 0-117 0l-0.13 0.35c83.76 0.7 167.56 0.76 251.32-0.5-6.01-0.26-13.72-0.3-21.72-0.28zm-230.12 2.18l-0.1 0.29c69.56 0.44 139.13-0.21 208.69-0.07 6.58-0.03 29.9 0.01 27.29-0.09-78.63-0.11-157.25-0.09-235.88-0.13zm108.31 2.32c-36.39 0.01-72.8 0.03-109.19 0.03l-0.22 0.62c84.86 1.14 169.73-0.03 254.59-0.47-48.4-0.17-96.79-0.2-145.19-0.18h0.01zm-109.72 1.47l-0.1 0.28c73.75 0.37 147.47-0.27 221.22-0.13 7.26-0.02 28.48 0.01 28.22-0.06-83.11-0.06-166.23-0.07-249.34-0.09zm-0.85 2.28l-0.12 0.37c62.48 0.4 124.98-0.22 187.47-0.06 18.26-0.05 36.52-0.01 54.78-0.16-80.71-0.19-161.42-0.15-242.12-0.15h-0.01zm214.69 1.65c-36.1-0.04-72.24 0.43-108.34 0.1-35.67 0.01-71.33 0.02-107 0l-0.12 0.34c48.13 0.31 96.3-0.09 144.44 0.03 39.72-0.02 79.44 0.01 119.16 0.31l-0.06-0.28c-16.02-0.34-32.04-0.48-48.07-0.5h-0.01zm1.75 1.6c-72.65 0.14-145.32 0.58-217.97 0.87l-0.12 0.35c3.4-0.01 6.7-0.01 9.62 0.03 85.08 0 170.15-0.01 255.22 0l-0.12-0.63c-15.54-0.36-31.08-0.4-46.63-0.62zm-122.97 2.87c-26.38 0.11-52.74 1.36-79.12 1.93 76.05 0.23 152.11-0.09 228.16 0.16-49.69-0.71-99.36-2.24-149.04-2.09zm-96.46 1.9l-0.1 0.28c3.57-0.02 7.13-0.09 10.69-0.15-3.53 0-7.07-0.06-10.59-0.13zm266 0.03c-8.16 0.04-29.3 0.16-10.1 0.28 2.48 0.02 6.97 0.08 11.06 0.13l-0.09-0.41h-0.88 0.01zm-266.69 1.82l-0.19 0.5c34.87 0.75 69.72 2.85 104.62 1.93 54.64-0.01 109.29 0.01 163.94 0.03l-0.03-0.28c-74.27-0.85-148.6 0.86-222.87-0.85-15.15-0.71-30.3-1.15-45.47-1.34v0.01zm16.72 2.25c-4.88 0.02-9.75 0.08-14.63 0.12 1.99 0.03 3.96 0.12 5.94 0.28 14.65 0.34 29.31 0.72 43.97 1.06h17.59c-11.37-0.06-22.76-0.4-34.12-1.25-6.25-0.21-12.5-0.24-18.75-0.21zm-17.6 0.12v0.03c0.87 0 1.73-0.02 2.6-0.03-0.86-0.01-1.74-0.01-2.6 0zm147.25 0.22c-22.75 0-45.5 1-68.25 1.12h99.69c-1.95-0.18-3.89-0.38-5.84-0.59-8.53-0.38-17.07-0.53-25.6-0.53z"/>
          <path id="path3237" style="opacity:.5;fill:#8f5902" d="m486.75 304.38c-26.91 1.19-53.92-0.73-80.77 1.89-12.73 0.16-25.49-0.63-38.2 0.48 8.96 1.53 18.19-1.22 27.28 0.11 21.15 0.33 42.19-2.45 63.35-1.48 12.04-0.03 24.17 0.37 36.15-0.95-2.6-0.19-5.21 0.05-7.81-0.05zm66.5 1.12c-9.45 0.83-16.56 0.62-26.34 1.34-24.75 2.38-49.63 0.81-74.45 1.19-27.87-0.12-55.77-0.1-83.61 0.93 7.91 0.81 23.48-0.25 34.31-0.3 40.07-0.71 80.18 0.8 120.22-0.66 22.94-1.86 46.09-2.56 69.05-1.51 4.42 1.19 15.56 0.97 4.85-0.56-14.67-1.02-29.37-0.11-44.04-0.42l0.01-0.01zm-110.47 5.07c-19.72 1.38-39.58-0.34-59.22 2.17-4.53 0.27-17.29-0.46-16.69 0.19 13.97 1.44 27.87-0.65 41.81-1.17 21.61 0.37 43.18-1.15 64.8-0.67 43.49-0.02 86.97-0.03 130.46-0.02-17.5-1.23-35.11-0.08-52.66-0.48-36.17 0-72.33-0.05-108.49-0.02h-0.01zm112.41 1.78c-10.5-0.31-15.08 2.21-24.39 1.43-17.1 1.49-34.3 4.38-51.47 3.9-25.64-0.4-51.27-1.9-76.84-0.28-12.89 0.05-25.78 0-38.67-0.02 10.58 1.3 21.52 0.27 32.25 0.63 24.81-0.04 49.53-3 74.36-2.25 21.52 0 43.09 0.62 64.54-1.46 12.43-0.26 24.72-2.01 37.18-1.4 9.89 0 19.77 0.03 29.66 0.01-10.52 0.03 8.19 0.55-0.65-0.39-15.32-0.37-30.65-0.02-45.97-0.17zm-93.81 5.44c-3.26-7.6-48.15 0.93-72.17 2.43-8.83 0.22-17.66 0.05-26.49 0.1 32.43 2.4 64.8-3.41 97.26-2.03 48.45 0.01 96.91-0.04 145.36 0.03-16.24-1.27-32.6-0.13-48.89-0.53-31.69-0.01-63.39 0-95.07 0zm-85.06 4.65c-5.16-0.04-21.49 1.68-8.44 1.11 38.05-1.22 77.63 2.73 115.7 2.42 41.38 0 81.26-2.99 122.65-3-17.78-1.17-35.64-0.13-53.46-0.48-58.82-0.02-117.63 0.03-176.44-0.05h-0.01zm-16.25 5.06c13.93 1.42 28.01 0.07 42.01 0.57h205.11c-13.54-1.4-27.24-0.09-40.85-0.57-68.76 0-137.52 0.01-206.27 0zm247.47 2.19c-42.2 1.55-84.43 0.29-126.64 0.72h-121.92c12.72 1.24 25.59 0.07 38.37 0.49 67.25-0.11 134.54 0.28 201.77-0.18 2.71-0.42 6.07 0.68 8.42-1.03zm-249.34 2.85c14.68 1.31 29.49 0.18 44.23 0.56h205.74c-19.19-1.19-38.47-0.15-57.69-0.5-64.1 0-128.19-0.02-192.28-0.06zm228.05 2.91c-76.4 0.1-152.79 0.08-229.19 0.06 23.58 1 50.24 1.15 73.86 1.43 60.26 0 117.52-0.99 177.8-0.96-7.43-1.38-14.99-0.07-22.47-0.53zm1.93 1.81c-77.26 0.1-154.52 0.07-231.78 0.03 17.41 1.07 34.91 0.09 52.35 0.43 66.77 0 133.54 0.03 200.31 0.07-6.89-1.31-13.92-0.12-20.87-0.53h-0.01zm-232.84 2.87c13.9 1.41 27.95 0.09 41.92 0.56 70.79-0.01 141.58-0.06 212.37-0.03-18.86-1.24-37.82-0.13-56.72-0.49-65.86-0.03-131.71-0.05-197.56-0.04h-0.01zm-0.78 2.13c12.84 1.52 25.85 0 38.76 0.56 68.9 0.22 137.8-0.45 206.69 0.39 4.81 0.15 14.8 0.6 4.54-0.37-31.98-1.13-64.02-0.25-96.02-0.52-51.32 0.01-102.65 0.04-153.97-0.06zm27.13 2.9c-7.52 0.34-25.6-0.54-26.4 0.56 85.1 0.02 170.2 0 255.3 0.01-16.73-1.23-35.58-1.17-52.37-1.54-59.51-0.01-117.02 1.02-176.54 0.98l0.01-0.01zm-23.92 4.35c-13.04 0.33 4.25 0.8 8.39 0.86 32.88 1.02 66.8-2.88 99.71-2.6 48.89 0 96.78 2.97 145.68 3.03-14.23-1.34-28.59-0.08-42.87-0.55-64.98-0.06-129.97 0.21-194.95-0.16-5.28-0.81-10.64-0.53-15.96-0.58zm-7 2.91c13.7 1.4 27.58-0.25 41.35 0.87 21.18 1.4 42.38 2.87 63.62 2.18 52.24-0.03 104.48-0.03 156.72 0.01-11.96-1.3-24.08-0.1-36.1-0.56-50.68-0.13-101.37 0.47-152.04-0.36-24.49-2.05-49-2.52-73.55-2.14zm-0.57 1.53c9.31 4.75 20.4 0.48 30.44 1.86 27.24-0.58 54.37 2.87 81.62 2.25 21.19 0.17 42.42-1 63.53 1.36 5.83 0.5 10.86-0.33 12.52 0.35 20.08 2.38 40.35 0.56 60.52 1.03 4.83 0.18 20.72-1.57 8.37-1.16-18.15 1.01-36.36 0.81-54.53 0.59-12.2-1.42-25.46-3.05-37.67-4.46-30.94-1.12-60.97 2.77-91.9 0.63-22.79-2.44-45.8 0.03-68.6-1.71-1.41-0.33-2.83-0.74-4.3-0.74zm-2.25 6.03c14.87 1.74 29.95-0.79 44.81 1.57 17.19 0.94 34.46 0.24 51.68 1.08 56.46 0.2 112.92-0.08 169.39 0.07-20.78-1.19-41.65-0.23-62.47-0.53h-112.71c2.22-0.49-10.71-0.64-14.1-0.73-12.68-0.05-25.37 0.44-37.95-1.38-12.88-0.46-25.76 0.3-38.64-0.08h-0.01zm-0.9 2.5c8.42 4.98 19.02 0.33 28.32 2.18 45.1 1.28 90.22 0.04 135.33 0.79 23.78 1.65 47.61 2.84 71.48 2.24 9.59 0.55 18.83-1.89 28.41-1.9 8.52-1.5-7.62-0.9-10.64-0.26-20.98 3.13-42.29 1.36-63.4 0.84-36.29-2.98-72.76-1.32-109.14-1.66-22.89 0.31-45.75-0.94-68.64-0.8-3.97-0.11-7.91-0.25-11.72-1.43zm-1.1 2.91c9.93 0.92 19.94 0.88 29.86 1.63 17.03-0.31 34.07 0.16 51.06 1.21h60.8c-25.93-1.12-51.97 0.97-77.82-1.75-17.12 0.07-34.25 0.19-51.32-1.09h-12.57-0.01z"/>
          <path id="path3244" style="opacity:.5;fill:#c17d11" d="m616.62 367.34c-88.12 0.09-176.23 0.04-264.34 0.12 88.14 0.07 176.27 0.06 264.41 0.07l-0.06-0.19h-0.01zm-253.91 1.62c-4.28-0.31-19.86 0.53-6.98 0.73 24.77 0.48 49.55 0.02 74.32-0.01-26.97 0.44-54.09 0-80.97 0.6 72.01-0.15 144.02 0.2 216.03 0.29 16.69-0.06 33.38-0.23 50.04-1.11-39.96-1.05-79.93 0.92-119.9 0.16-21.46-0.04-42.92-0.01-64.39 0.06 7.46-0.08 20.85-0.23 24.62-0.31-30.93-0.05-61.85-0.4-92.77-0.41zm93.87 0.41c8.53 0 26.23-0.1 29.33-0.3-9.77 0.04-19.55 0.2-29.33 0.3zm-39.21 1.47c-22.85 0.37-46.06 0.1-68.69 0.22 4.85 0.16 3.78-0.15 0.12 0.44 41.63-0.32 83.25 0.65 124.88 0.28 7.27-0.01 23.68-0.03 25.12-0.03-40.01-0.06-80.02-0.1-120.02-0.53 75.91-0.38 151.82-0.13 227.74-0.29-63.06-0.12-126.1-0.08-189.16-0.09h0.01zm199.19 0.63c-37.89 0.16-75.78 0.28-113.66 0.28 9.76-0.01 26.99 0 32.1 0.03-58.01 0.06-116.03 0.73-174.05-0.09-4.4-0.07-18.61 0.12-6.13 0.16 16.38 0.05 32.76 0.28 49.13 0.46-18.16 0.53-36.92 0.23-54.72 0.69 8.69 0.01 27.73-0.24 29.83-0.12-7.19 0.59-28.44-0.12-27.39 0.65-4.89 0.39 9.41 0.13 12.19 0.18 80.99 0.06 161.98 0.24 242.97 0.07-77.7-0.13-155.4 0.08-233.09-0.28 25.66-0.47 51.33-0.38 77-0.66-16.13-0.06-32.25-0.14-48.38-0.25 27.59-0.33 55.18 0.62 82.77-0.27 15.74-0.13 31.49-0.22 47.23-0.2 4.04-0.12 15.96-0.15 23.03-0.24 20.38-0.18 40.77-0.35 61.16-0.41h0.01zm-84.17 0.66c27.91 0.67 55.83 1.38 83.75 1.75-5.99-1.56-15.02-0.57-22.14-1.13-20.53-0.42-41.07-0.6-61.61-0.62zm-78.16 0.68c-7.4 0.07 7.99 0.04 10.78 0.06 5.03 0.01-8.86-0.03-10.78-0.06zm12.78 0.07c22.13 0.02 45.62 0.19 66.91 0-22.31-0.74-44.6 0.17-66.91 0zm-117.38 1.35c9.15 0.83 19.34 0.2 28.88 0.49 43.21 0.6 86.41 0.36 129.62-0.11 11.27-0.07 22.55-0.09 33.82-0.16-64.11-0.17-128.21-0.1-192.31-0.22h-0.01zm192.31 0.22c20.77-0.04 41.54 0.42 62.31-0.1-20.77-0.16-41.54-0.03-62.31 0.1zm45.41 0.18c-18.57 0.27-37.13 0.42-55.69 0.53 28.1-0.06 56.21-0.02 84.31-0.37-9.54-0.06-19.08-0.11-28.63-0.16h0.01zm-145.56 0.57c-3.8 0.04-13.84 0.11-14.46 0.15 14.29 0.03 28.57 0.03 42.86 0.06-5.28 0.02-17.51 0.04-6.5 0.04h21.06c-4.04-0.03-20.48-0.03-8.85-0.05 7.74-0.03 15.49-0.05 23.23-0.08-19.12 0.06-38.23 0-57.34-0.12zm16 0.25h-43.41c4.19-0.05 17.04-0.11 6.17-0.11-23.46 0.13-47.5-0.64-70.64-0.21 20.99 0.09 41.98 0.11 62.97 0.32-6.45 0.06-18.84 0.18-21.57 0.21 22.16-0.04 44.32-0.14 66.48-0.21zm-67.6 0.21c-13.31 0.09-26.97-0.07-40.06 0.16 13.35-0.02 26.71-0.06 40.06-0.16zm200.91 0.75c-80.17 0.19-160.86 0.04-240.69 0.29 88.09 0.23 176.17 0.24 264.25-0.19-7.85-0.11-15.71-0.1-23.56-0.1zm-240.56 0.79c82.13 0.31 164.54-0.03 246.78 0.03-82.26-0.04-164.52-0.02-246.78-0.03zm108.34 0.81c-36.03 0-72.06 0.03-108.09 0.03 27.93 0.68 56.6 0.22 84.82 0.38 59.92-0.02 119.85-0.22 179.78-0.32-52.17-0.06-104.34-0.1-156.5-0.09h-0.01zm-107.94 0.53c86.36 0.28 173-0.02 259.47 0.03-86.49-0.02-172.98-0.02-259.47-0.03z"/>
          <path id="path3246" style="opacity:.5;fill:#6d4302" d="m347.91 365.88l0.06 0.16c14.28 0.92 28.65-0.17 42.97 0.28h226.56c-2.4-0.22-4.81-0.34-7.22-0.44h-262.37zm269.62 2.03c-46.49 1.48-93.02 0.28-139.53 0.69h-129.28l0.12 0.34c12.25 0.57 24.61-0.23 36.88 0.13 74.28-0.11 148.58 0.28 222.84-0.16 2.85-0.39 6.37 0.56 8.94-0.78l0.03-0.22zm-22.84 2.71c-13.28-0.01-26.57 0.31-39.84 0.09-68.49 0-136.98-0.02-205.47-0.06l0.09 0.41c13.92 0.58 27.9-0.19 41.84 0.12h225.62v-0.06c-7.4-0.36-14.82-0.49-22.25-0.5h0.01zm15.22 2.72c-5.18 0.01-10.37 0.4-15.53 0.12-81.38 0.1-162.78 0.09-244.16 0.07l0.09 0.28c23.68 0.7 49.41 0.85 72.5 1.09 65.64 0 128.07-0.94 193.62-0.93l0.07-0.35c-2.19-0.22-4.39-0.29-6.59-0.29v0.01zm1.03 1.78c-4.81-0.01-9.64 0.34-14.44 0.09-81.92 0.1-163.83 0.08-245.75 0.04l0.13 0.37c15.79 0.35 31.63-0.24 47.44 0.03 72.59 0 145.19 0.06 217.78 0.1l0.09-0.41c-1.75-0.15-3.5-0.22-5.25-0.22zm-14.22 2.81c-13.05-0.01-26.14 0.32-39.19 0.1-68.64-0.01-137.29-0.03-205.94-0.02l0.07 0.22h262.03c-5.66-0.21-11.31-0.28-16.97-0.29v-0.01z"/>
        </g>
        <g id="g3170" transform="translate(-118.6 355.51)">
          <path id="path3978" style="opacity:.2;filter:url(#filter4304);fill-rule:evenodd;fill:#2e3436" d="m560.25 314.88c-17.67 0-33.73 0.95-45.71 2.49-2.27 1.45-3.54 3.03-3.54 4.68 0 4.43 8.93 8.31 22.43 10.56 8.22 0.49 17.29 0.77 26.82 0.77 9.54 0 18.61-0.28 26.82-0.77 13.5-2.25 22.43-6.13 22.43-10.56 0-1.65-1.27-3.23-3.54-4.68-11.98-1.55-28.04-2.49-45.71-2.49z" transform="matrix(.62655 .053418 -.051373 .91101 210.41 19.271)"/>
          <path id="path3132" style="fill-rule:evenodd;fill:url(#radialGradient3186)" d="m491.78 277c-0.22 2.63-0.34 5.29-0.34 8 0 24.51 9.29 46.03 23.34 58.47 22.29 12.48 34.96 11.78 55.81 0 14.05-12.44 23.35-33.96 23.35-58.47 0-1.53-0.05-3.06-0.12-4.56-10.99 8.2-28.85 13.56-49 13.56-22.87 0-42.76-6.87-53.03-17h-0.01z"/>
          <path id="path4055" style="filter:url(#filter4158);fill-rule:evenodd;fill:url(#linearGradient3188)" d="m493 276.12c-0.04 1.11-0.06 2.25-0.06 3.38 0 13.33 2.75 25.78 7.53 36.37 0 0 0.53 2.5 12.03-14 16.18 17.3 58.96 34.24 60.34 19.47 5.8-62.32 11.57-9.47 11.57-9.47 4.77-10.59 7.03-19.04 7.03-32.38 0-1.01 3.97-2.03 3.94-3.03-7.27 5.9-16.47 9.46-25.44 11.82-19.34 4.61-40.13 4.1-58.97-2.44-6.28-2.31-12.73-5.38-17.97-9.72z"/>
          <path id="path4084" style="opacity:.33712;filter:url(#filter4109);fill-rule:evenodd;fill:#2e3436" d="m491.19 272.38c0.69 15.42 27.33 27.78 55.22 27.78s46.53-12.36 47.22-27.78h-0.19c-2.15 14.47-20.36 25.78-47.03 25.78s-52.15-11.31-54.94-25.78h-0.28z"/>
          <path id="path4051" style="fill-rule:evenodd;fill:url(#linearGradient3190)" d="m583.76 326.89c-5.53 3.04-13.2 7.99-11.32-4.77 1.09-7.48-22.19 14.96-30.4 14.96-14.44 0-27.87-3.23-39-8.75 3.41 5.76 7.46 10.79 12.03 14.84 22.29 12.48 34.96 11.79 55.81 0 4.95-4.38 9.31-9.91 12.88-16.28z"/>
          <g id="g4229" transform="translate(-.47855 8.1532)">
            <path id="path4021" style="fill-rule:evenodd;fill:url(#linearGradient3192)" d="m545.23 245.78c-14.89-0.18-30.49 2.48-42.95 11.1-4.03 2.93-7.7 6.68-9.52 11.4 3.89 9.35 13.39 14.69 22.48 18.03 15.57 5.41 32.74 5.82 48.73 2.01 10.35-2.72 21.12-7.35 27.31-16.52 3.65-3.61-0.33-7.78-2.86-10.69-8.83-8.91-21.38-12.87-33.52-14.57-3.21-0.43-6.44-0.68-9.67-0.76z"/>
            <path id="path3119" style="opacity:.5;fill-rule:evenodd;fill:url(#linearGradient3194)" d="m519.12 249.25c-5.7 1.74-11.15 4.2-16.09 7.63-4.04 2.92-7.71 6.68-9.54 11.4 3.89 9.35 13.41 14.69 22.5 18.03 7.93 2.75 16.24 4.2 24.63 4.47-3.97-16.15-11.7-30.64-21.5-41.53z"/>
            <g id="g4191" transform="translate(31,41.5)">
              <path id="path3138" style="fill-rule:evenodd;fill:url(#linearGradient3196)" d="m512.25 198.09c-27.45 0-49.83 11.99-51.19 27.06v5c1.46 15.03 23.81 26.97 51.19 26.97 27.13 0 49.3-11.73 51.13-26.56v-6.06c-1.94-14.77-24.08-26.41-51.13-26.41zm-2.22 5.81c0.76-0.02 1.54 0 2.31 0 24.63 0 45.21 9.63 50.16 22.5-4.95 12.87-25.53 22.53-50.16 22.53-24.62 0-45.2-9.66-50.15-22.53 4.79-12.47 24.24-21.92 47.84-22.5z"/>
              <path id="path3933" style="stroke:url(#linearGradient3198);stroke-width:1.1678px;fill:none" d="m120.5 231.86c0 16.57-26.079 30-58.25 30s-58.25-13.43-58.25-30 26.079-30 58.25-30 58.25 13.43 58.25 30z" transform="matrix(.86221 0 0 .85051 458.57 26.416)"/>
              <path id="path3947" style="fill-rule:evenodd;fill:url(#linearGradient3200)" d="m512.66 198.59c-24.32 0-44.64 9.4-49.91 22.03v5.75h0.07c5.13-12.21 24.36-21.4 47.62-21.97 0.76-0.02 1.54 0 2.31 0 22.73 0 42.02 8.21 48.75 19.6l-0.25-4.63c-6.05-13.29-25.66-20.78-48.59-20.78z"/>
            </g>
            <path id="path4219" style="opacity:.5;fill-rule:evenodd;fill:url(#linearGradient3202)" d="m567 249.75c5.7 1.74 11.15 4.2 16.09 7.63 4.04 2.92 7.71 6.68 9.54 11.4-3.89 9.35-13.41 14.69-22.5 18.03-7.93 2.75-16.24 4.2-24.63 4.47 3.97-16.15 11.7-30.64 21.5-41.53z"/>
          </g>
        </g>
        <path id="path4058" style="opacity:.2;fill:#2e3436" d="m329.58 662.24l-68.18 71.91-1.04 4.66 77.26-75.88-4.62-0.09-3.42-0.6z"/>
        <path id="path4047" style="fill:url(#linearGradient4049)" d="m358.56 637.6l-100.43 99.02-2.37-1.41 96.36-101.45c1.39-1.44 3.37-2.08 5.24-0.96l1.02 0.61c1.88 1.11 1.6 2.77 0.18 4.19z"/>
        <path id="path4083" style="opacity:.2;fill:#2e3436" d="m323.85 662.87l-20.3 16.8s-2.69 1.92-5.17 4.2l-45.95 43.55h-4.05l45.48-46.65 4.09-4.11 3.15-3.36 13.49-10.43h9.26z"/>
        <path id="path4139" style="filter:url(#filter4135);fill:url(#radialGradient4159)" d="m461.79 272.48c-34.29 32.46-84.1 73.09-117.71 106.27l0.81 0.67 118.15-105.43c1.88-1.26 2.33-1.43 2-2.85-1.24-1.19-2.19 0.21-3.25 1.35v-0.01z" transform="matrix(-.053203 -.79368 -.96281 .043857 639.96 990.91)"/>
        <path id="path4079" style="fill:url(#linearGradient4081)" d="m347.25 635.34l-103.75 95.99-1.9-1.83 100.49-99.12c1.44-1.41 3.29-1.87 4.8-0.42l0.81 0.78c1.51 1.45 1.02 3.23-0.45 4.6z"/>
        <path id="path4085" style="filter:url(#filter4135);fill:#a5a6a4" d="m344.69 632.99c-34.29 32.47-68.7 64.41-102.31 97.59l0.82 0.66 102.75-96.75c1.87-1.25 2.32-1.43 2-2.84-1.25-1.2-2.2 0.21-3.25 1.34h-0.01z"/>
        <path id="path2519" style="filter:url(#filter3299);fill-rule:evenodd;fill:#b58b65" d="m362.47 498.25l95.92-0.6-6.37 6.02-9.91 5.87-15.4 4.37s-14.21 1.8-14.95 1.5-14.66-0.75-14.66-0.75l-18.06-4.82-11.39-6.77-5.18-4.82z" transform="matrix(1 0 0 -1.0462 13.764 1157.1)"/>
        <path id="path3307" style="fill-rule:evenodd;fill:#b58b65" d="m421.76 653.67c-0.55-0.03-1-0.09-1-0.13 0-0.06-1.36-5.14-4.44-16.61l-0.13-0.48 12.24 0.03c6.73 0.02 10.98 0.06 9.45 0.08-2.56 0.04-2.78 0.07-2.7 0.3 0.04 0.14 0.81 2.99 1.71 6.33l1.63 6.07-0.29 1.69c-0.16 0.93-0.35 1.73-0.41 1.79-0.15 0.13-3.84 0.55-6.48 0.73-2.44 0.17-8.16 0.29-9.58 0.2z"/>
        <path id="path3309" style="fill-rule:evenodd;fill:#b58b65" d="m416.76 653.44c-0.77-0.08-1.42-0.15-1.43-0.16-0.11-0.15-4.46-16.76-4.4-16.82 0.04-0.05 7.78-0.1 17.2-0.13 9.41-0.02 17.08 0 17.03 0.04-0.04 0.05-6.59 0.08-14.54 0.08s-14.45 0.05-14.45 0.11 1.02 3.93 2.27 8.59l2.27 8.47-1.27-0.02c-0.7-0.01-1.91-0.08-2.68-0.16z"/>
        <path id="path3311" style="fill-rule:evenodd;fill:#b58b65" d="m412.11 652.98c-1.63-0.24-2.23-0.38-2.28-0.54-0.34-0.99-4.28-15.93-4.22-15.99 0.12-0.12 7.6-0.23 7.6-0.11 0 0.06-0.54 0.11-1.2 0.11-1.07 0-1.19 0.03-1.11 0.25 0.05 0.14 0.49 1.83 0.98 3.75 0.72 2.9 3.05 11.67 3.34 12.62 0.1 0.33-0.22 0.32-3.11-0.09z"/>
        <path id="path3313" style="fill-rule:evenodd;fill:#b58b65" d="m407.69 652.3c-1.12-0.22-2.06-0.43-2.09-0.47-0.03-0.03-0.31-1.29-0.61-2.8-0.3-1.5-0.74-3.47-0.99-4.36-0.59-2.2-1.78-7.93-1.68-8.17 0.05-0.15 0.49-0.2 1.67-0.2 1.47 0 1.61 0.03 1.63 0.28 0.02 0.32 2.13 8.49 3.34 12.95 0.44 1.62 0.89 3 1.01 3.07 0.32 0.2 0 0.16-2.28-0.3z"/>
        <path id="path3317" style="fill-rule:evenodd;fill:#b58b65" d="m401.22 650.93c-0.86-0.24-1.61-0.48-1.67-0.54s-0.31-1.11-0.55-2.32c-0.25-1.22-0.78-3.45-1.18-4.96-0.87-3.29-1.57-6.62-1.43-6.76 0.05-0.06 1.11-0.12 2.35-0.13 1.24-0.02 1.97 0 1.62 0.03-0.52 0.06-0.62 0.12-0.56 0.32 0.04 0.14 0.48 2.25 0.98 4.69s1.11 5.21 1.36 6.14c0.71 2.69 0.98 4 0.79 3.99-0.09-0.01-0.86-0.22-1.71-0.46z"/>
        <path id="path3319" style="fill-rule:evenodd;fill:#b58b65" d="m403.92 651.58c-0.87-0.22-0.93-0.26-0.93-0.66 0-0.23-0.16-1.07-0.36-1.86-0.54-2.14-2.75-12.2-2.75-12.53 0-0.03 0.21-0.12 0.47-0.21 0.48-0.17 6.77-0.24 6.6-0.08-0.05 0.05-1.09 0.08-2.31 0.08-1.3-0.01-2.26 0.04-2.31 0.12-0.14 0.23 0.28 2.38 1.41 7.36 1.01 4.41 1.77 7.85 1.77 7.98 0 0.12-0.66 0.03-1.59-0.2z"/>
        <path id="path3321" style="fill-rule:evenodd;fill:#b58b65" d="m435.78 652.56c0.17-0.54 0.6-2.77 0.6-3.16 0-0.21-0.82-3.12-1.82-6.47-1-3.34-1.8-6.09-1.78-6.11 0.03-0.02 1.14-0.11 2.47-0.2 1.57-0.11 7.41-0.16 16.7-0.14 12 0.03 13.06 0.05 6.67 0.12-4.19 0.04-7.69 0.12-7.79 0.18-0.09 0.05-0.31 0.9-0.47 1.87l-0.3 1.76 0.7 2.37 0.69 2.37-0.39 2.3-0.39 2.3-1.48 0.42c-3.11 0.87-8.57 1.97-12.79 2.56-0.64 0.09-0.71 0.08-0.62-0.17z"/>
        <path id="path3323" style="fill-rule:evenodd;fill:#b58b65" d="m449.76 649.53c0.05-0.31 0.22-1.37 0.38-2.34l0.29-1.76-0.69-2.47-0.69-2.47 0.3-1.66c0.16-0.91 0.38-1.73 0.48-1.83 0.12-0.11 1.51-0.21 4.07-0.27 5.57-0.14 17.34-0.15 17.33-0.02 0 0.21-1.11 1.47-2.38 2.71-4.06 3.98-9.76 7.34-16.66 9.83-1.31 0.47-2.41 0.86-2.45 0.86s-0.03-0.26 0.02-0.58z"/>
        <path id="path3325" style="fill-rule:evenodd;fill:#000000" d="m454.91 636.64c0.26-0.03 0.73-0.03 1.04 0s0.09 0.06-0.48 0.06-0.82-0.03-0.56-0.06z"/>
        <path id="path3327" style="fill-rule:evenodd;fill:#000000" d="m455.33 636.58c0.05-0.07 0.6-0.12 1.22-0.12 1.35 0.02 1.26 0.09-0.23 0.18-0.58 0.04-1.03 0.01-0.99-0.06z"/>
        <path id="path3329" style="fill-rule:evenodd;fill:#000000" d="m459.58 636.64c0.14-0.03 0.37-0.03 0.52 0 0.14 0.04 0.02 0.07-0.26 0.07-0.29 0-0.4-0.03-0.26-0.07z"/>
        <path id="path3331" style="fill-rule:evenodd;fill:#b58b65" d="m391.82 647.58c-2.25-0.99-2.45-1.09-2.37-1.22s-0.6-3.52-1.26-6.28c-0.25-1.06-0.55-2.33-0.66-2.82-0.12-0.51-0.16-0.94-0.08-1.01 0.07-0.08 1.51-0.15 3.21-0.18 1.93-0.02 2.6 0 1.8 0.06-0.71 0.06-1.33 0.15-1.39 0.2-0.11 0.11 0.35 2.3 1.04 4.93 0.28 1.06 0.71 2.93 0.96 4.15s0.48 2.37 0.53 2.55c0.04 0.18 0.02 0.33-0.04 0.33s-0.85-0.32-1.74-0.71z"/>
        <path id="path3333" style="fill-rule:evenodd;fill:#b58b65" d="m396.85 649.68c-0.81-0.29-1.7-0.59-1.97-0.68-0.26-0.09-0.41-0.21-0.32-0.26 0.1-0.07 0.03-0.69-0.23-1.94-0.22-1.01-0.42-1.88-0.46-1.94-0.03-0.05-0.22-0.92-0.42-1.92-0.21-1.01-0.62-2.88-0.92-4.16s-0.5-2.37-0.44-2.43 0.82-0.15 1.69-0.21c1.67-0.12 6.05-0.17 5.94-0.08-0.03 0.03-0.98 0.09-2.1 0.13s-2.07 0.1-2.1 0.14c-0.04 0.04 0.06 0.53 0.23 1.09 0.16 0.57 0.82 3.62 1.48 6.79 0.65 3.19 1.26 5.82 1.36 5.89 0.4 0.25-0.3 0.08-1.74-0.42z"/>
        <path id="path3335" style="fill-rule:evenodd;fill:#b58b65" d="m386.86 644.99c-0.97-0.56-3.77-2.43-4.43-2.95-0.45-0.37-0.66-0.66-0.7-0.96-0.02-0.24-0.25-1.42-0.5-2.62-0.25-1.21-0.43-2.22-0.39-2.26 0.11-0.11 6.31-0.33 9.41-0.34 1.66 0 2.99 0.03 2.96 0.06s-1.78 0.09-3.87 0.12c-2.1 0.04-3.85 0.1-3.89 0.14-0.03 0.03 0.13 0.79 0.38 1.69 0.43 1.56 1.66 7.33 1.58 7.39-0.02 0.01-0.27-0.11-0.55-0.27z"/>
        <path id="path3337" style="fill-rule:evenodd;fill:#b58b65" d="m379.79 639.65c-1.72-1.67-1.77-1.73-1.92-2.57-0.09-0.47-0.14-0.88-0.11-0.9 0.03-0.03 0.9-0.08 1.95-0.1 1.04-0.03 1.71-0.02 1.49 0.02-0.23 0.04-0.41 0.11-0.41 0.16s0.2 1.18 0.45 2.52 0.42 2.47 0.38 2.51-0.86-0.7-1.83-1.64z"/>
        <path id="path3339" style="fill-rule:evenodd;fill:#b58b65" d="m388.56 645.98c-0.41-0.2-0.82-0.45-0.91-0.55-0.09-0.09-0.38-1.2-0.63-2.47-0.26-1.26-0.69-3.26-0.96-4.44-0.56-2.43-0.59-2.34 0.7-2.36 0.43 0 0.67 0.05 0.62 0.14-0.05 0.08 0.14 1.16 0.43 2.41 1.16 5.05 1.69 7.67 1.54 7.65-0.03 0-0.38-0.17-0.79-0.38z"/>
        <path id="path3341" style="fill-rule:evenodd;fill:#b58b65" d="m394.33 648.73c-0.05-0.08-0.15-0.11-0.23-0.06-0.07 0.05-0.14 0.01-0.14-0.07 0-0.09-0.09-0.16-0.21-0.16-0.13 0-0.19-0.09-0.14-0.21 0.09-0.23-0.39-2.51-1.64-7.83-0.45-1.91-0.82-3.62-0.82-3.79 0-0.24 0.09-0.31 0.43-0.31 0.38 0 0.43 0.06 0.52 0.63 0.06 0.35 0.6 2.89 1.21 5.65s1.15 5.31 1.2 5.66c0.08 0.62 0.02 0.81-0.18 0.49z"/>
        <path id="path3343" style="fill-rule:evenodd;fill:#b58b65" d="m398.88 650.24c-0.27-0.17-0.36-0.52-1.88-7.42-1.38-6.24-1.41-6.51-0.89-6.51 0.08-0.01 0.29 0.74 0.47 1.66 0.18 0.91 0.9 4.04 1.59 6.95 0.7 2.9 1.27 5.31 1.27 5.36 0 0.12-0.34 0.1-0.56-0.04z"/>
        <path id="path3349" style="fill-rule:evenodd;fill:#000000" d="m416.51 636.34c0.38-0.03 0.98-0.03 1.33 0 0.34 0.03 0.02 0.06-0.71 0.06s-1.01-0.03-0.62-0.06z"/>
        <path id="path3353" style="fill-rule:evenodd;fill:#b58b65" d="m377.19 636.75c-0.3-0.4-0.55-0.77-0.55-0.81 0-0.05 1.91-0.08 4.25-0.08 2.33 0 4.21 0.03 4.16 0.07-0.04 0.05-1.36 0.08-2.94 0.08-1.58 0.01-3.22 0.04-3.65 0.09l-0.77 0.09 0.09 0.65c0.05 0.35 0.06 0.65 0.03 0.65-0.04 0-0.31-0.33-0.62-0.74z"/>
        <rect id="rect3444" style="fill-rule:evenodd;fill:#b58b65" ry=".86292" height="1.7258" width="93.54" y="635.34" x="377.1"/>
        <path id="path3446" style="fill-rule:evenodd;fill:#b58b65" d="m376.54 635.75c1.11-0.76 5.18-4.07 5.18-4.07l63.1-0.62 25.13 3.93 1.52 1.04-0.49 0.96-6.83 1.94-19.88 12.28-7.39 1.73-17.12 0.62-12.7-1.38s-7.6-1.59-7.94-1.86c-0.35-0.28-9.74-3.87-9.74-3.87l-4.9-3.11-5.24-4.21-1.45-1.86-1.25-1.52z"/>
        <path id="path3458" style="fill-rule:evenodd;fill:#a77953" d="m414.1 627.18c1.96-0.91 4.16-1.36 6.33-1.26 0.71 0.03 1.42 0.16 2.13 0.24 2.62 0.54 5.1 1.57 7.3 3.08 1.16 0.79 1.36 1.06 2.35 1.98 1.01 1.19 0.56 0.6 1.37 1.74l-0.53 0.33c-0.76-1.1-0.34-0.53-1.29-1.67-0.94-0.9-1.13-1.15-2.25-1.93-2.13-1.48-4.54-2.49-7.09-3-0.63-0.07-1.26-0.19-1.89-0.22-2.07-0.09-4.2 0.33-6.04 1.27l-0.39-0.56z"/>
        <path id="path3460" style="fill-rule:evenodd;fill:#a77953" d="m426.35 633.9c0.38-0.49 0.93-0.77 1.45-1.08 0.98-0.57 1.55-0.9 2.63-1.38 0.6-0.27 1.22-0.49 1.83-0.74 1.54-0.5 2.32-0.82 3.94-1.05 0.63-0.09 1.27-0.13 1.91-0.14 1.12-0.03 2.14 0.01 3.2 0.38 0.44 0.15 0.83 0.41 1.24 0.61 0.35 0.31 0.74 0.58 1.06 0.91 1.31 1.37 2.32 3.58 2.5 5.46 0.04 0.49-0.02 0.99-0.03 1.48-0.16 0.45-0.25 0.94-0.48 1.36-1.11 2.03-3.46 2.94-5.58 3.4-0.62 0.13-1.26 0.2-1.89 0.3-1.68 0.17-3.38 0.22-5.08 0.11-0.48-0.03-1.46-0.12-1.98-0.28-0.17-0.06-0.33-0.17-0.5-0.25 0-0.23-0.13-0.5-0.01-0.69 0.26-0.43 1.7-0.96 2.01-1.08 4.28-1.73-1.3 0.59 3.2-1.25 0.54-0.22 1.08-0.46 1.62-0.69 1.81-0.77 3.44-1.87 5.11-2.89 1.29-0.78 1.13-0.67 2.49-1.41 2.09-1.01 4.21-2.04 6.44-2.72 0.28-0.08 0.57-0.15 0.85-0.22 0.59-0.1 0.77-0.16 1.35-0.13 0.15 0.01 0.3 0.05 0.45 0.08l-0.2 0.63c-0.47-0.08-0.89-0.11-1.36 0.01-0.28 0.06-0.55 0.11-0.82 0.19-2.22 0.63-4.31 1.65-6.37 2.64-1.35 0.74-1.18 0.63-2.46 1.41-1.7 1.03-3.36 2.13-5.2 2.91-0.54 0.23-1.08 0.47-1.63 0.69-1.05 0.44-2.12 0.83-3.17 1.27-0.38 0.16-0.76 0.33-1.14 0.51-0.18 0.08-0.34 0.21-0.54 0.26-0.08 0.02-0.16-0.05-0.25-0.07 0.12 0.07 0.22 0.16 0.35 0.2 0.52 0.17 1.38 0.26 1.88 0.3 1.6 0.12 3.2 0.08 4.8-0.07 0.61-0.1 1.22-0.16 1.83-0.28 1.95-0.42 4.17-1.22 5.23-3.06 0.21-0.37 0.3-0.8 0.45-1.2 0.02-0.45 0.09-0.9 0.05-1.35-0.16-1.78-1.11-3.85-2.35-5.14-0.29-0.31-0.64-0.56-0.96-0.83-0.37-0.19-0.72-0.42-1.12-0.56-0.92-0.33-1.9-0.4-2.87-0.39-0.61 0.01-1.23 0.03-1.85 0.11-1.59 0.22-2.33 0.53-3.85 1.02-0.6 0.25-1.2 0.47-1.78 0.74-1.11 0.5-1.58 0.79-2.57 1.39-0.44 0.27-0.92 0.51-1.24 0.93l-0.59-0.35z"/>
        <path id="path3462" style="fill-rule:evenodd;fill:#a77953" d="m450.97 645.62c0.22-0.96 0.29-1.97 0.15-2.95-0.06-0.45-0.17-0.89-0.25-1.34-0.89-3.33-2.66-6.23-4.9-8.83-0.41-0.49-0.87-0.94-1.31-1.41-1.8-1.78-3.87-3.32-6.3-4.11-0.33-0.11-0.66-0.17-0.99-0.26-0.79-0.11-1.69-0.23-2.41 0.23-0.3 0.2-0.41 0.38-0.64 0.65l-0.53-0.38c0.3-0.36 0.42-0.56 0.83-0.82 0.9-0.57 2-0.43 2.99-0.25 0.35 0.1 0.7 0.17 1.04 0.29 2.48 0.86 4.61 2.45 6.45 4.3 0.44 0.48 0.9 0.95 1.33 1.45 2.25 2.65 4.09 5.66 5.03 9.03 0.09 0.47 0.21 0.94 0.28 1.41 0.15 1.03 0.1 2.08-0.09 3.1l-0.68-0.11z"/>
        <path id="path3464" style="fill-rule:evenodd;fill:#a77953" d="m443.21 637.24c-0.05-1.27-0.11-2.54-0.33-3.8-0.2-1.2-0.41-1.94-0.7-3.12-0.67-2.29-1.43-4.69-3.09-6.48-0.99-1.06-1.32-1.11-2.57-1.77-0.46-0.13-0.92-0.3-1.4-0.4-1.17-0.22-2.4-0.16-3.52 0.27-0.89 0.34-1.05 0.56-1.78 1.15-1.38 1.39-2.33 3.11-2.92 4.96-0.1 0.31-0.17 0.63-0.25 0.95-0.09 0.67-0.18 0.95-0.06 1.62 0.04 0.24 0.15 0.46 0.22 0.69l-0.62 0.16c-0.08-0.27-0.19-0.54-0.23-0.82-0.13-0.75-0.02-1.05 0.08-1.8 0.09-0.33 0.17-0.67 0.27-0.99 0.63-1.95 1.64-3.75 3.08-5.21 0.81-0.65 0.99-0.89 1.97-1.27 1.27-0.49 2.68-0.53 4-0.25 0.51 0.11 1 0.31 1.5 0.46 1.32 0.73 1.66 0.79 2.71 1.94 1.68 1.85 2.47 4.31 3.17 6.66 0.31 1.2 0.52 1.96 0.74 3.17 0.22 1.27 0.3 2.56 0.4 3.85l-0.67 0.03z"/>
        <path id="path3466" style="fill-rule:evenodd;fill:#a77953" d="m433.8 631.77c-0.48-1.17-0.76-2.41-1.21-3.6-0.15-0.38-0.32-0.76-0.48-1.14-0.8-1.66-1.84-3.11-3.56-3.92-1.18-0.55-1.88-0.59-3.16-0.83-0.62-0.03-1.24-0.1-1.86-0.1-2.42-0.02-4.97 0.4-7.11 1.58-0.41 0.24-0.78 0.54-1.18 0.81-0.8 0.85-1.4 1.57-1.39 2.79 0 0.29 0.09 0.57 0.14 0.86l-0.62 0.08c-0.05-0.34-0.15-0.68-0.14-1.03 0.02-0.77 0.29-1.51 0.73-2.15 0.26-0.37 0.6-0.67 0.91-1 0.42-0.29 0.81-0.61 1.26-0.85 2.27-1.24 4.96-1.66 7.51-1.64 0.65 0 1.29 0.07 1.93 0.11 1.38 0.26 2.08 0.29 3.34 0.9 1.81 0.88 2.91 2.42 3.77 4.18 0.17 0.39 0.34 0.78 0.5 1.17 0.46 1.18 0.74 2.43 1.27 3.59l-0.65 0.19z"/>
        <path id="path3468" style="fill-rule:evenodd;fill:#a77953" d="m419.96 627.15c-1.78-1.01-3.82-1.46-5.87-1.49-0.67-0.01-1.35 0.06-2.02 0.09-0.74 0.13-1.48 0.22-2.21 0.4-2.22 0.55-4.31 1.48-6.14 2.86-1.42 1.07-1.62 1.45-2.74 2.76-0.27 0.47-0.59 0.92-0.8 1.41-0.52 1.21-0.61 2.54-0.28 3.8 0.22 0.88 0.43 1.12 0.88 1.89 0.22 0.24 0.42 0.51 0.66 0.74 1.15 1.07 2.71 1.48 4.22 1.67 0.54 0.07 1.09 0.08 1.63 0.12 0.59 0 1.18-0.01 1.77-0.01l0.1 0.56c-0.67 0-1.33 0.01-2 0.01-0.56-0.04-1.12-0.05-1.68-0.11-0.82-0.1-1.87-0.33-2.64-0.65-1.07-0.43-1.92-1.13-2.61-2.05-0.48-0.85-0.7-1.11-0.94-2.08-0.33-1.39-0.21-2.84 0.37-4.15 0.24-0.52 0.58-0.99 0.87-1.49 1.16-1.34 1.38-1.73 2.86-2.84 2.51-1.89 5.47-2.94 8.57-3.38 0.75-0.03 1.51-0.11 2.26-0.1 2.13 0.02 4.25 0.5 6.14 1.49l-0.4 0.55z"/>
        <path id="path3470" style="fill-rule:evenodd;fill:#a77953" d="m424.01 637.17c-0.85-0.95-2.24-1.66-3.44-2.02-0.52-0.15-1.05-0.22-1.58-0.34-0.59-0.02-1.18-0.09-1.77-0.06-2.31 0.13-4.92 1.18-6.32 3.1-0.28 0.39-0.43 0.88-0.64 1.31-0.03 0.42-0.16 0.85-0.07 1.26 0.19 0.93 0.95 1.51 1.73 1.92 1.17 0.63 2.51 0.92 3.81 1.1 0.67 0.1 1.36 0.11 2.05 0.16 1.51-0.07 1.8-0.01 3.23-0.34 0.39-0.1 0.77-0.24 1.16-0.36l0.24 0.55c-0.41 0.12-0.81 0.27-1.22 0.36-1.57 0.35-1.85 0.27-3.54 0.32-0.7-0.05-1.41-0.07-2.11-0.17-1.32-0.19-2.83-0.52-4.02-1.19-0.97-0.54-1.74-1.24-1.93-2.39-0.08-0.48 0.09-0.97 0.13-1.46 0.25-0.48 0.42-1.01 0.75-1.44 0.36-0.48 0.8-0.91 1.27-1.28 1.61-1.27 3.56-1.9 5.59-2.01 0.62-0.03 1.24 0.05 1.86 0.08 0.55 0.12 1.12 0.2 1.66 0.36 1.3 0.39 2.77 1.14 3.71 2.15l-0.55 0.39z"/>
        <path id="path3472" style="fill-rule:evenodd;fill:#a77953" d="m426.07 641.39c-0.15-0.08-0.29-0.17-0.45-0.23-1.15-0.48-2.4-0.71-3.63-0.89-1.44-0.21-2.25-0.26-3.7-0.39-2.14-0.09-4.38-0.03-6.38 0.85-1.04 0.46-1.16 0.65-1.99 1.34-0.36 0.42-0.67 0.67-0.81 1.2-0.02 0.05 0.1 0.19 0.05 0.15-0.42-0.34-0.32-0.3-0.16-0.72l0.59 0.27c-0.26 0.44-0.38 1.18-1.1 0.49-0.11-0.1-0.02-0.31 0.02-0.45 0.19-0.6 0.57-0.91 0.98-1.37 0.9-0.74 1.04-0.95 2.16-1.44 2.13-0.93 4.5-0.97 6.78-0.87 1.39 0.12 2.35 0.19 3.73 0.38 1.3 0.19 2.59 0.42 3.81 0.9 0.18 0.06 0.34 0.16 0.51 0.24l-0.41 0.54z"/>
        <path id="path3474" style="fill-rule:evenodd;fill:#a77953" d="m401.54 629.55c-1.88 0.19-3.86 0.83-5.54 1.7-0.54 0.29-1.06 0.63-1.59 0.95-2.05 1.46-3.73 3.17-4.68 5.54-0.09 0.24-0.16 0.49-0.24 0.73-0.05 0.29-0.15 0.58-0.09 0.88 0.01 0.04 0.1 0.09 0.08 0.07-0.1-0.07-0.2-0.15-0.3-0.23l0.29 0.62c-0.21-0.04-0.44-0.02-0.62-0.13-0.27-0.17-0.02-1.21 0.03-1.4 0.1-0.26 0.17-0.52 0.28-0.78 1.04-2.46 2.77-4.22 4.91-5.75 0.55-0.33 1.08-0.69 1.64-0.99 1.75-0.93 3.73-1.58 5.69-1.87l0.14 0.66z"/>
        <path id="path3476" style="fill-rule:evenodd;fill:#a77953" d="m388.41 632.86c0.17 0.32 0.53 0.45 0.76 0.71 0.08 0.09 0.14 0.2 0.22 0.3 0.05 0.16 0.13 0.3 0.17 0.46 0.05 0.19 0.07 0.39 0.12 0.59 0.14 0.6 0.24 0.99 0.56 1.55 0.54 0.95 0.87 1.22 1.63 2.06 0.44 0.33 0.85 0.7 1.31 1 1.53 0.98 3.28 1.59 5.1 1.69 1.28 0.07 1.74-0.12 2.95-0.39l0.2 0.55c-1.44 0.32-1.75 0.48-3.31 0.38-1.9-0.12-3.74-0.78-5.33-1.81-0.49-0.31-0.92-0.7-1.38-1.06-0.82-0.89-1.17-1.17-1.75-2.19-0.34-0.59-0.47-1.03-0.63-1.66-0.04-0.17-0.06-0.34-0.1-0.5-0.03-0.11-0.08-0.21-0.11-0.31-0.05-0.06-0.08-0.13-0.14-0.19-0.08-0.09-0.31-0.25-0.4-0.33-0.17-0.15-0.32-0.32-0.46-0.51l0.59-0.34z"/>
        <path id="path3478" style="fill-rule:evenodd;fill:#a77953" d="m401.48 633.14c-0.09 0.04-0.19 0.07-0.27 0.12-0.94 0.65-1.55 1.95-1.81 3.02-0.09 0.4-0.11 0.82-0.17 1.23 0.02 0.44 0 0.88 0.07 1.31 0.34 1.86 1.56 3.39 3.18 4.32 0.38 0.22 0.79 0.35 1.19 0.53 1.5 0.24 0.77 0.22 2.17 0.08l0.14 0.6c-1.77 0.11-0.9 0.17-2.62-0.17-1.15-0.54-1.5-0.6-2.47-1.47-1.14-1.02-1.92-2.34-2.18-3.86-0.08-0.47-0.05-0.94-0.08-1.41 0.06-0.45 0.09-0.9 0.19-1.34 0.28-1.21 0.99-2.68 2.04-3.4 0.14-0.1 0.3-0.15 0.46-0.22l0.16 0.66z"/>
        <path id="path3480" style="fill-rule:evenodd;fill:#a77953" d="m410.38 639.55c-0.49 0.93-0.98 1.92-1.12 2.97-0.04 0.28-0.02 0.57-0.03 0.85 0.05 0.29 0.08 0.58 0.17 0.86 0.31 0.93 1 1.7 1.82 2.23 0.79 0.52 1.23 0.6 2.13 0.92 1.7 0.43 3.46 0.69 5.21 0.58 0.45-0.03 0.89-0.1 1.33-0.15l0.16 0.58c-0.46 0.05-0.92 0.13-1.39 0.16-1.88 0.1-3.77-0.15-5.58-0.63-0.97-0.35-1.44-0.44-2.3-1.02-0.91-0.62-1.66-1.5-2-2.57-0.1-0.31-0.12-0.65-0.18-0.98 0.01-0.32 0-0.64 0.04-0.96 0.15-1.11 0.65-2.15 1.13-3.14l0.61 0.3z"/>
        <path id="path3482" style="fill-rule:evenodd;fill:#a77953" d="m419.51 650.05c1.83 0.25 3.69 0.2 5.54 0.17 3.74-0.19 7.5-0.7 11.12-1.72 0.64-0.18 1.26-0.4 1.89-0.61 2.03-0.72 3.87-1.82 5.47-3.26 0.73-0.66 0.94-0.93 1.58-1.62 0.51-0.62 1.1-1.24 1.37-2.01l0.64 0.21c-0.33 0.84-0.93 1.52-1.53 2.18-0.65 0.7-0.9 1-1.65 1.66-1.67 1.48-3.53 2.6-5.64 3.35-0.65 0.2-1.28 0.42-1.93 0.6-3.66 1.02-7.44 1.54-11.22 1.79-1.59 0.04-1.81 0.06-3.29 0.05-0.77-0.01-1.57-0.01-2.33-0.11-0.1-0.01-0.2-0.03-0.29-0.05l0.27-0.63z"/>
        <path id="path3484" style="fill-rule:evenodd;fill:#a77953" d="m429.5 647.22c1.42-1.25 2.66-2.72 3.67-4.32 0.34-0.54 0.64-1.12 0.96-1.67 1.53-3 2.4-6.3 2.53-9.67 0.03-0.57 0-1.15-0.01-1.73-0.06-0.51-0.09-1.03-0.19-1.54-0.25-1.35-0.81-2.66-1.77-3.65-0.12-0.13-0.27-0.24-0.4-0.35l0.48-0.45c0.15 0.14 0.3 0.27 0.44 0.42 1.39 1.53 1.88 3.56 2.02 5.57 0 0.59 0.02 1.19 0 1.78-0.16 3.43-1.05 6.8-2.6 9.87-0.33 0.57-0.63 1.16-0.97 1.72-1.02 1.65-2.27 3.15-3.67 4.49l-0.49-0.47z"/>
        <path id="path3486" style="fill-rule:evenodd;fill:#a77953" d="m431.5 635.38c0.06-0.68 0.15-1.38 0.05-2.06-0.04-0.27-0.1-0.53-0.16-0.79-0.57-2.16-1.81-4.06-3.42-5.58-0.39-0.37-0.81-0.69-1.22-1.03-0.44-0.3-0.87-0.62-1.33-0.88-1.95-1.13-4.17-1.76-6.4-2.06-0.59-0.08-1.19-0.11-1.78-0.17-1.58-0.06-3.18-0.02-4.74 0.26-0.42 0.08-0.83 0.17-1.23 0.3-0.95 0.32-1.08 0.5-1.88 1.07-0.95 0.82-1.61 1.87-2.19 2.97l-0.58-0.27c0.64-1.17 1.35-2.29 2.37-3.17 0.88-0.62 1.01-0.82 2.06-1.16 0.42-0.14 0.85-0.23 1.29-0.31 1.66-0.29 3.36-0.31 5.04-0.24 1.57 0.16 2.06 0.15 3.6 0.5 2.23 0.5 4.35 1.37 6.19 2.75 0.42 0.36 0.85 0.69 1.25 1.07 1.68 1.6 2.98 3.59 3.6 5.83 0.06 0.29 0.13 0.57 0.17 0.86 0.11 0.73 0.04 1.46-0.01 2.19l-0.68-0.08z"/>
        <path id="path3488" style="fill-rule:evenodd;fill:#a77953" d="m422.92 632.52c-0.37-0.35-0.92-0.42-1.4-0.52-1.09-0.22-1.23-0.21-2.44-0.36-3.12-0.23-6.38-0.32-9.38 0.71-0.48 0.16-0.92 0.4-1.38 0.6-0.36 0.24-0.74 0.45-1.08 0.72-1.06 0.86-1.81 2.1-2.28 3.37-0.1 0.28-0.18 0.57-0.27 0.85-0.19 0.89-0.48 1.95 0.1 2.76 0.31 0.43 0.6 0.52 1.05 0.77 1 0.32 2.07 0.44 3.11 0.29l0.17 0.64c-0.21 0.02-0.42 0.05-0.63 0.05-1.02 0.04-2.06-0.1-3.03-0.47-0.59-0.36-0.88-0.44-1.27-1.04-0.61-0.96-0.34-2.14-0.11-3.17 0.1-0.3 0.18-0.61 0.3-0.9 0.51-1.37 1.32-2.69 2.48-3.61 0.37-0.29 0.78-0.52 1.17-0.77 0.48-0.21 0.95-0.45 1.45-0.62 3.13-1.05 6.51-0.95 9.75-0.76 1.15 0.13 1.46 0.14 2.52 0.34 0.6 0.11 1.24 0.23 1.69 0.67l-0.52 0.45z"/>
        <path id="path3490" style="fill-rule:evenodd;fill:#a77953" d="m403.99 624.15c-0.1 0.01-0.21 0.01-0.31 0.02-0.36 0.05-1.29 0.22-1.56 0.27-0.88 0.18-2.06 0.43-2.91 0.66-0.6 0.17-1.2 0.36-1.8 0.55-0.61 0.23-1.23 0.44-1.83 0.7-1.84 0.82-3.81 1.94-4.88 3.72-0.18 0.29-0.27 0.61-0.4 0.92-0.03 0.29-0.1 0.57-0.08 0.86 0.06 0.96 0.67 1.73 1.44 2.25s1.21 0.59 2.09 0.87c0.88 0.26 1.78 0.29 2.69 0.29l-0.11 0.63c-0.96-0.03-1.91-0.09-2.84-0.37-0.95-0.32-1.46-0.41-2.28-1-0.91-0.64-1.57-1.59-1.62-2.73-0.01-0.35 0.09-0.69 0.13-1.03 0.16-0.34 0.27-0.71 0.47-1.03 1.14-1.82 3.22-3.02 5.12-3.87 0.61-0.27 1.25-0.48 1.87-0.73 0.61-0.19 1.21-0.39 1.82-0.57 0.82-0.23 2.06-0.52 2.92-0.71 0.08-0.02 1.37-0.28 1.6-0.32 0.12-0.03 0.24-0.04 0.36-0.05l0.11 0.67z"/>
        <path id="path3492" style="fill-rule:evenodd;fill:#a77953" d="m395.6 629.4c-0.09 0-0.17-0.01-0.26 0-0.38 0.02-0.73 0.1-1.11 0.2-1.1 0.3-2.13 0.75-3.18 1.2-1.32 0.6-2.62 1.24-3.85 2.01-0.53 0.34-1.34 0.89-1.81 1.36-0.19 0.18-0.33 0.41-0.5 0.62-0.34 0.63-0.56 1.27-0.19 1.95 0.21 0.38 0.47 0.58 0.77 0.88 0.79 0.63 1.63 1.22 2.54 1.67 0.49 0.25 0.63 0.28 1.14 0.45l-0.29 0.58c-0.55-0.2-0.69-0.23-1.22-0.5-0.95-0.49-1.83-1.11-2.65-1.78-0.4-0.4-0.67-0.6-0.91-1.11-0.28-0.57-0.27-1.24-0.05-1.83 0.09-0.24 0.23-0.45 0.34-0.68 0.2-0.23 0.37-0.48 0.59-0.69 0.49-0.48 1.33-1.05 1.89-1.4 1.24-0.78 2.56-1.43 3.9-2.04 1.07-0.48 2.12-0.95 3.25-1.28 0.42-0.13 0.81-0.23 1.24-0.28 0.08-0.01 0.17 0 0.25 0l0.11 0.67z"/>
        <path id="path3494" style="fill-rule:evenodd;fill:#a77953" d="m395.9 636.76c-0.22 0.72-0.38 1.51-0.34 2.28 0.01 0.24 0.06 0.49 0.1 0.73 0.09 0.27 0.15 0.55 0.28 0.8 0.68 1.36 1.99 2.3 3.31 2.98 0.33 0.17 0.68 0.31 1.03 0.47 0.77 0.31 1.55 0.6 2.36 0.79 0.16 0.04 0.32 0.08 0.48 0.1 0.1 0.01 0.21-0.01 0.31-0.02l-0.11 0.66c-0.14-0.01-0.29 0-0.43-0.03-0.17-0.02-0.34-0.07-0.51-0.12-0.83-0.22-1.63-0.53-2.42-0.86-0.36-0.17-0.72-0.32-1.07-0.5-1.43-0.76-2.82-1.8-3.55-3.28-0.14-0.29-0.21-0.61-0.32-0.91-0.03-0.28-0.09-0.56-0.11-0.83-0.04-0.83 0.13-1.75 0.37-2.54l0.62 0.28z"/>
        <path id="path3496" style="fill-rule:evenodd;fill:#a77953" d="m394.92 643.35c0.66 0.79 1.52 1.38 2.46 1.81 0.39 0.18 0.8 0.32 1.2 0.47 0.5 0.15 1 0.31 1.51 0.44 1.14 0.3 2.46 0.55 3.62 0.75 0.76 0.14 2.5 0.4 3.3 0.49 0.46 0.04 0.93 0.06 1.39 0.09 2.27 0 4.38-0.84 6.41-1.75 0.44-0.19 0.84-0.43 1.22-0.72l0.45 0.49c-0.42 0.31-0.86 0.57-1.35 0.77-1.7 0.74-3.56 1.53-5.41 1.74-0.48 0.05-0.97 0.03-1.45 0.05-0.47-0.04-0.95-0.06-1.42-0.11-0.78-0.09-2.58-0.38-3.32-0.51-1.76-0.31-3.53-0.65-5.24-1.2-0.42-0.16-0.85-0.3-1.26-0.49-1-0.45-1.92-1.08-2.65-1.91l0.54-0.41z"/>
        <path id="path3498" style="fill-rule:evenodd;fill:#a77953" d="m405.99 642.24c0.12-0.13 0.24-0.26 0.37-0.39 0.58-0.55 1.18-1.05 1.81-1.55 1.41-1.12 2.16-1.68 3.77-2.64 0.84-0.51 1.72-0.96 2.57-1.43 0.95-0.44 1.88-0.91 2.84-1.32 3.23-1.37 6.77-2.48 10.31-2.52 0.62-0.01 1.23 0.08 1.84 0.11 0.46 0.11 0.94 0.19 1.39 0.34 1.05 0.33 2.46 1.11 2.86 2.23 0.09 0.25 0.09 0.52 0.13 0.78-0.04 0.31-0.05 0.62-0.11 0.93-0.08 0.36-0.2 0.72-0.31 1.08-0.51 1.49-1.16 2.91-2 4.24-0.3 0.47-0.63 0.92-0.95 1.37l-0.49-0.3c0.3-0.44 0.63-0.87 0.92-1.33 0.82-1.29 1.44-2.68 1.92-4.14 0.1-0.33 0.21-0.66 0.28-1 0.05-0.25 0.07-0.51 0.1-0.76-0.02-0.19-0.01-0.39-0.07-0.58-0.12-0.4-0.47-0.78-0.78-1.03-0.86-0.72-1.93-1.05-3.02-1.27-0.53-0.04-1.06-0.13-1.59-0.14-3.51-0.02-6.98 1.05-10.18 2.4-0.95 0.4-1.87 0.87-2.8 1.31-0.84 0.48-1.7 0.92-2.53 1.43-1.57 0.95-2.32 1.53-3.68 2.66-0.57 0.47-1.19 1-1.72 1.54-0.11 0.12-0.21 0.24-0.32 0.37l-0.56-0.39z"/>
        <path id="path3500" style="fill-rule:evenodd;fill:#a77953" d="m451.85 642.1c1.26-0.32 2.38-0.98 3.35-1.83 0.29-0.26 0.56-0.54 0.84-0.81 0.95-1.05 1.78-2.25 2.09-3.65 0.2-0.89 0.14-1.18 0.12-2.08-0.07-0.38-0.11-0.76-0.2-1.13-0.41-1.66-1.31-3.34-2.38-4.68-0.3-0.36-0.63-0.69-0.94-1.04-0.97-0.94-2.11-1.65-3.33-2.23-0.31-0.15-0.63-0.28-0.95-0.42l0.31-0.53c0.33 0.15 0.66 0.28 0.98 0.44 1.26 0.63 2.45 1.38 3.45 2.38 0.33 0.36 0.68 0.71 0.98 1.09 1.12 1.4 2.06 3.16 2.49 4.9 0.09 0.39 0.13 0.8 0.2 1.21 0.02 0.98 0.09 1.29-0.13 2.25-0.34 1.5-1.21 2.78-2.23 3.89-0.29 0.28-0.57 0.58-0.87 0.85-1.02 0.91-2.18 1.61-3.49 2.01l-0.29-0.62z"/>
        <path id="path3502" style="fill-rule:evenodd;fill:#b98963" d="m449.44 632.61c-0.03-1.23-0.5-2.43-1.05-3.51-0.21-0.41-0.45-0.79-0.67-1.18-1.02-1.56-2.19-3.04-3.63-4.24-0.76-0.63-1.08-0.78-1.9-1.28-1.07-0.5-2.37-1.19-3.59-1.03-0.41 0.12-0.21 0.05-0.59 0.23l-0.36-0.56c0.5-0.25 0.24-0.14 0.8-0.32 0.19-0.01 0.38-0.03 0.57-0.03 1.23 0.04 2.47 0.69 3.54 1.22 0.87 0.54 1.19 0.69 1.98 1.37 1.46 1.24 2.66 2.78 3.71 4.37 0.24 0.4 0.48 0.8 0.7 1.22 0.6 1.15 1.1 2.42 1.17 3.74h-0.68z"/>
        <path id="path3506" style="fill-rule:evenodd;fill:#cb976e" d="m433.53 625.55c2.31 0.04 4.49 0.9 6.61 1.72 2.14 1 4.42 1.89 6.26 3.43 0.18 0.14 0.34 0.31 0.51 0.47 0.55 0.58 0.78 1.1 0.79 1.89 0 0.21-0.01 0.42-0.03 0.63l-0.68-0.05c0.02-0.19 0.04-0.38 0.04-0.57-0.01-0.6-0.19-1.02-0.61-1.47-0.15-0.15-0.29-0.3-0.45-0.44-1.77-1.53-3.99-2.42-6.09-3.39-2.07-0.77-4.21-1.61-6.46-1.55l0.11-0.67z"/>
        <path id="path3508" style="fill-rule:evenodd;fill:#cb976e" d="m451.37 639.39c-0.1-0.75-0.25-1.56-0.66-2.21-0.14-0.21-0.31-0.4-0.46-0.6-0.23-0.22-0.45-0.46-0.7-0.66-1.95-1.47-4.58-1.99-6.92-2.44-1.72-0.29-3.48-0.46-5.22-0.23-0.94 0.12-1.04 0.18-1.93 0.42-0.71 0.23-1.39 0.54-1.96 1.02-0.46 0.38-0.81 0.85-1.15 1.33-0.08 0.13-0.15 0.26-0.23 0.39l-0.58-0.31c0.08-0.14 0.17-0.28 0.26-0.42 0.38-0.53 0.77-1.05 1.27-1.47 0.63-0.53 1.37-0.87 2.15-1.12 0.87-0.23 1.11-0.33 2.03-0.44 1.85-0.22 3.72-0.05 5.55 0.27 2.45 0.49 5.15 1.03 7.18 2.58 0.29 0.22 0.52 0.49 0.79 0.73 0.17 0.23 0.36 0.44 0.51 0.69 0.45 0.72 0.63 1.65 0.75 2.47h-0.68z"/>
        <path id="path3510" style="fill-rule:evenodd;fill:#cb976e" d="m426.51 630.7c-0.71-1.04-1.71-1.4-2.85-1.83-1.13-0.28-2.42-0.44-3.43 0.31-0.64 0.48-0.69 0.8-1.04 1.52-0.09 0.38-0.22 0.75-0.27 1.14-0.22 1.46 0.05 2.75 0.85 4.01 0.78 1.23 1.35 1.54 2.47 2.46 1.31 0.8 1.52 1 2.87 1.6 0.36 0.16 0.73 0.28 1.09 0.42l-0.29 0.54c-0.38-0.16-0.76-0.3-1.12-0.47-1.41-0.66-1.58-0.83-2.95-1.69-1.19-0.99-1.78-1.31-2.61-2.63-0.86-1.38-1.14-2.78-0.91-4.37 0.07-0.43 0.2-0.84 0.3-1.26 0.44-0.86 0.48-1.22 1.27-1.8 0.87-0.63 2-0.71 3.03-0.56 0.35 0.05 0.69 0.15 1.03 0.23 0.32 0.12 0.65 0.22 0.96 0.36 0.84 0.37 1.61 0.87 2.16 1.63l-0.56 0.39z"/>
        <path id="path3512" style="fill-rule:evenodd;fill:#cb976e" d="m421.16 633.56c-1.43-1.04-2.98-1.95-4.6-2.65-0.5-0.21-1.01-0.39-1.52-0.59-1.42-0.42-2.05-0.66-3.55-0.85-2.21-0.28-4.47-0.14-6.67 0.16-0.84 0.11-1.67 0.27-2.51 0.41-2.12 0.4-4.23 0.89-6.3 1.51-0.6 0.18-1.65 0.53-2.27 0.79-0.2 0.09-0.4 0.21-0.6 0.31-0.11 0.1-0.23 0.17-0.32 0.28-0.13 0.18-0.07 0.36-0.01 0.54 0.17 0.6 0.49 0.92 0.9 1.38 0.71 0.72 1.48 1.36 2.26 2 0.27 0.23 0.97 0.81 1.3 1.04 0.17 0.12 0.37 0.22 0.55 0.33 0.19 0.08 0.38 0.16 0.56 0.23l-0.32 0.56c-0.21-0.09-0.42-0.18-0.63-0.28-0.2-0.13-0.41-0.24-0.6-0.38-0.3-0.21-1.04-0.84-1.3-1.05-0.79-0.67-1.59-1.33-2.33-2.06-0.18-0.21-0.39-0.41-0.55-0.64-0.33-0.44-0.64-1.09-0.53-1.66 0.09-0.45 0.35-0.56 0.67-0.83 0.22-0.11 0.44-0.23 0.67-0.32 0.63-0.25 1.73-0.59 2.33-0.76 2.1-0.6 4.23-1.07 6.37-1.49 0.84-0.14 1.68-0.31 2.53-0.42 2.3-0.33 4.66-0.48 6.98-0.18 1.53 0.19 2.2 0.44 3.65 0.87 0.51 0.2 1.04 0.38 1.55 0.6 1.67 0.72 3.25 1.63 4.75 2.66l-0.46 0.49z"/>
        <path id="path3514" style="fill-rule:evenodd;fill:#cb976e" d="m405.29 638.12c0.41-0.93 1.16-1.72 2.01-2.27 0.34-0.22 0.71-0.39 1.07-0.59 0.46-0.18 0.92-0.38 1.4-0.54 1.21-0.38 2.33-0.59 3.59-0.79 2.29-0.36 4.59-0.54 6.89-0.71 2.03-0.04 2.93-0.12 4.96 0.06 1.61 0.14 3.23 0.44 4.8 0.81 1.8 0.44 2.9 0.82 4.66 1.37 2.06 0.63 4.12 1.3 6.24 1.68 1.12 0.2 2.23 0.32 3.37 0.24 0.43-0.03 0.85-0.14 1.27-0.21 0.39-0.15 0.8-0.25 1.17-0.44 1.49-0.77 2.76-2.41 3.61-3.82 0.2-0.33 0.36-0.68 0.55-1.03 0.3-0.68 0.63-1.38 0.74-2.13 0.02-0.13 0.05-0.4-0.07-0.52-0.03-0.03-0.08-0.02-0.13-0.04-0.9-0.15-1.82-0.13-2.74-0.12-0.46 0.03-0.25 0-0.65 0.08l-0.22-0.63c0.49-0.1 0.24-0.07 0.76-0.1 0.56 0 1.11-0.01 1.67 0.02 0.29 0.01 0.88 0.03 1.18 0.1 0.16 0.04 0.32 0.12 0.48 0.18 0.1 0.11 0.23 0.2 0.3 0.33 0.13 0.24 0.1 0.59 0.06 0.83-0.14 0.8-0.5 1.54-0.83 2.27-0.2 0.35-0.37 0.72-0.58 1.07-0.91 1.5-2.26 3.22-3.85 4.04-0.4 0.21-0.85 0.32-1.28 0.48-0.51 0.07-1.02 0.18-1.54 0.21-1.15 0.07-2.34-0.08-3.46-0.29-2.14-0.4-4.2-1.08-6.27-1.72-1.78-0.56-2.8-0.92-4.62-1.35-3.1-0.74-6.28-1.06-9.46-0.85-0.81 0.06-1.61 0.1-2.42 0.18-1.31 0.12-3.09 0.33-4.41 0.54-1.23 0.2-2.31 0.41-3.5 0.79-0.45 0.14-0.88 0.34-1.32 0.51-0.33 0.18-0.67 0.34-0.99 0.54-0.74 0.49-1.41 1.18-1.78 1.99l-0.66-0.17z"/>
        <path id="path3516" style="fill-rule:evenodd;fill:#cb976e" d="m445.14 628.17c-0.73-0.99-1.73-1.74-2.82-2.3-0.37-0.19-0.77-0.35-1.15-0.52-2.86-1.02-5.93-1.23-8.95-1.15-0.67 0.02-1.34 0.08-2.01 0.12-2.98 0.3-5.96 0.87-8.79 1.86-0.37 0.13-0.74 0.29-1.1 0.43-1.51 0.66-3 1.48-4.16 2.66-0.22 0.22-0.41 0.47-0.61 0.7-0.49 0.68-0.91 1.41-1.21 2.19-0.07 0.18-0.12 0.37-0.18 0.56l-0.62-0.18c0.07-0.21 0.13-0.42 0.21-0.62 0.33-0.83 0.77-1.6 1.3-2.32 0.22-0.25 0.42-0.52 0.65-0.76 1.22-1.23 2.75-2.09 4.33-2.77 0.38-0.14 0.76-0.3 1.14-0.43 2.89-0.98 5.9-1.55 8.93-1.86 0.73-0.04 1.47-0.1 2.2-0.12 2.58-0.07 5.23 0.06 7.73 0.71 0.49 0.13 0.97 0.31 1.45 0.46 0.4 0.18 0.81 0.34 1.21 0.54 1.17 0.6 2.23 1.42 3.03 2.46l-0.58 0.34z"/>
        <path id="path3518" style="fill-rule:evenodd;fill:#cb976e" d="m415.21 623.05c-1.05-0.11-2.1-0.23-3.15-0.23-0.46 0-0.92 0.03-1.37 0.05-2.36 0.18-4.74 0.5-6.96 1.35-1.36 0.52-1.53 0.7-2.72 1.46-0.33 0.3-0.69 0.57-1 0.89-1.07 1.13-1.84 2.63-2.11 4.17-0.06 0.37-0.06 0.74-0.09 1.11 0.03 0.37 0.03 0.74 0.1 1.11 0.22 1.1 0.78 2.07 1.53 2.88 0.6 0.65 0.86 0.78 1.56 1.27 0.92 0.51 0.47 0.28 1.34 0.67l-0.33 0.55c-0.93-0.44-0.45-0.19-1.42-0.75-0.74-0.54-1.02-0.69-1.65-1.39-0.82-0.91-1.41-1.97-1.64-3.18-0.07-0.4-0.07-0.81-0.11-1.21 0.04-0.4 0.05-0.8 0.12-1.2 0.29-1.64 1.11-3.24 2.27-4.44 0.33-0.34 0.71-0.63 1.06-0.94 1.26-0.79 1.42-0.97 2.85-1.52 2.26-0.86 4.69-1.19 7.08-1.41 0.53-0.02 1.07-0.06 1.6-0.07 0.98-0.02 1.96 0.05 2.93 0.15l0.11 0.68z"/>
        <path id="path3520" style="fill-rule:evenodd;fill:#cb976e" d="m428.87 646.98c0.41 0.03 0.37 0.04 0.86 0.01 0.93-0.07 1.87-0.17 2.8-0.24 2.09-0.16 2.99-0.2 5.16-0.33 4.08-0.22 8.19-0.48 12.19-1.37 1.98-0.45 2.28-0.61 4.09-1.24 1-0.42 1.5-0.6 2.4-1.11 0.51-0.29 1.06-0.64 1.37-1.14 0.06-0.1 0.09-0.2 0.14-0.3 0.09-0.39 0.06-0.19 0.07-0.6l0.67 0.03c-0.04 0.56 0.01 0.28-0.13 0.84-0.07 0.13-0.12 0.27-0.21 0.4-0.8 1.22-2.81 1.84-4.06 2.38-1.86 0.62-2.16 0.78-4.18 1.21-4.02 0.87-8.15 1.12-12.25 1.39-2.23 0.16-2.99 0.2-5.12 0.4-0.94 0.09-1.88 0.23-2.82 0.31-0.64 0.06-0.66 0.05-1.16 0.02l0.18-0.66z"/>
        <path id="path3522" style="fill-rule:evenodd;fill:#cb976e" d="m462.14 637.77c-0.12-1.06-0.44-2.09-0.89-3.05-0.16-0.35-0.35-0.68-0.53-1.02-0.54-0.84-0.68-1.18-1.45-1.86-1.58-1.4-3.66-1.99-5.62-2.6-1.91-0.56-3.85-0.97-5.8-1.33l0.2-0.58c1.96 0.4 3.91 0.83 5.83 1.39 2.07 0.64 4.21 1.26 5.86 2.74 0.82 0.74 0.97 1.1 1.54 1.99 0.18 0.35 0.38 0.69 0.55 1.05 0.49 1.03 0.84 2.14 0.99 3.27h-0.68z"/>
        <path id="path3524" style="fill-rule:evenodd;fill:#cb976e" d="m446.69 640.65c0.01-0.11 0.02-0.29 0-0.39-0.23-0.94-1.47-2.03-2.12-2.67-1.37-1.25-2.9-2.33-4.65-2.99-1.14-0.44-2.04-0.61-3.23-0.89-2.21-0.43-4.45-0.73-6.7-0.66-0.99 0.03-1.28 0.1-2.23 0.24-0.28 0.06-0.55 0.13-0.83 0.2l-0.22-0.6c0.29-0.06 0.58-0.13 0.87-0.2 0.37-0.05 0.73-0.11 1.1-0.15 2.75-0.25 5.51 0.12 8.22 0.63 1.24 0.3 2.14 0.46 3.33 0.92 1.8 0.69 3.38 1.82 4.8 3.1 0.85 0.83 2.04 1.83 2.33 3.04 0.03 0.13 0.01 0.38 0.01 0.52l-0.68-0.1z"/>
        <path id="path3526" style="fill-rule:evenodd;fill:#cb976e" d="m426.86 642.79c-0.16 0.01-0.33 0-0.49 0.01-0.78 0.03-1.56 0.1-2.35 0.13-2.25 0.1-4.5 0.2-6.75 0.33-3.25 0.19-6.51 0.38-9.76 0.11-1.72-0.14-2.06-0.25-3.71-0.56-1.57-0.36-3.11-0.86-4.56-1.58-0.56-0.27-0.76-0.4-1.28-0.7l0.39-0.52c0.49 0.29 0.69 0.42 1.22 0.69 1.4 0.7 2.89 1.21 4.41 1.57 1.61 0.31 1.96 0.42 3.65 0.57 3.17 0.27 6.36 0.11 9.53-0.09 3.2-0.2 6.4-0.36 9.6-0.63l0.1 0.67z"/>
        <path id="path3528" style="fill-rule:evenodd;fill:#ceaa8e" d="m388 640.28c0.29 0.65 0.9 1.12 1.45 1.54 0.87 0.66 1.31 0.91 2.27 1.51 2.73 1.62 5.6 3.03 8.55 4.24 0.59 0.25 1.2 0.47 1.8 0.71 2.27 0.87 4.62 1.46 7.02 1.82 1.2 0.18 1.78 0.22 2.95 0.33 1.36 0.08 0.72 0.06 1.92 0.07l-0.11 0.62c-1.22-0.03-0.57 0-1.96-0.11-1.14-0.12-1.81-0.18-2.98-0.37-2.42-0.38-4.81-0.98-7.1-1.87-0.61-0.24-1.22-0.47-1.82-0.72-2.97-1.22-5.86-2.64-8.63-4.25-0.97-0.6-1.47-0.87-2.35-1.53-0.66-0.49-1.35-1.04-1.68-1.82l0.67-0.17z"/>
        <path id="path3530" style="fill-rule:evenodd;fill:#ceaa8e" d="m457.29 637.89c-0.27-1.25-0.9-2.4-1.61-3.44-0.21-0.32-0.45-0.62-0.68-0.93-0.28-0.29-0.54-0.6-0.84-0.87-1.37-1.21-3.11-1.94-4.9-2.24-0.47-0.08-0.95-0.11-1.43-0.16-1.76-0.08-3.51 0.13-5.12 0.87-0.79 0.36-1.61 0.89-2.35 1.34-0.41 0.25-0.81 0.51-1.22 0.76-0.83 0.51-1.65 1.02-2.5 1.49-1.34 0.74-2.72 1.37-4.12 1.99-2.77 1.12-5.7 1.76-8.67 2.06-0.61 0.06-1.21 0.09-1.82 0.14-2.79 0.1-5.59-0.19-8.3-0.86-0.45-0.11-0.9-0.25-1.35-0.38-1.06-0.3-2.09-0.68-3.12-1.08l0.3-0.56c1 0.41 2.01 0.79 3.05 1.09 0.45 0.13 0.88 0.26 1.33 0.37 2.6 0.65 5.28 0.95 7.96 0.86 0.6-0.04 1.2-0.07 1.8-0.12 2.92-0.29 5.8-0.92 8.53-2.03 1.38-0.6 2.74-1.23 4.06-1.96 0.85-0.46 1.67-0.97 2.48-1.48 0.41-0.25 0.82-0.51 1.23-0.77 0.76-0.47 1.61-1.02 2.43-1.39 1.74-0.81 3.64-1.02 5.55-0.91 1.31 0.15 1.69 0.13 2.95 0.53 1.81 0.57 3.35 1.54 4.59 2.98 0.23 0.32 0.48 0.63 0.7 0.96 0.76 1.13 1.44 2.35 1.75 3.68l-0.68 0.06z"/>
        <path id="path3532" style="fill-rule:evenodd;fill:#ceaa8e" d="m403.1 626.37c1.69-0.27 3.34-0.74 5-1.14 0.63-0.15 1.27-0.3 1.9-0.45 2.31-0.5 4.64-1.01 7.02-0.98 1.16 0.01 1.6 0.1 2.71 0.25 0.35 0.07 0.69 0.14 1.03 0.21l-0.2 0.58c-0.33-0.07-0.67-0.13-1-0.2-0.89-0.13-1.53-0.25-2.44-0.27-2.34-0.04-4.64 0.43-6.91 0.93-0.64 0.15-1.27 0.3-1.9 0.46-1.67 0.41-3.32 0.92-5.01 1.27l-0.2-0.66z"/>
        <path id="path3534" style="fill-rule:evenodd;fill:#ceaa8e" d="m411.18 630.23c-1.64-0.06-3.24 0.34-4.82 0.78-1.34 0.45-2.65 1.05-3.7 2.02-0.59 0.54-0.66 0.71-1.11 1.37-0.71 1.21-1.17 2.59-1.14 4.01 0.01 0.3 0.06 0.6 0.09 0.89 0.26 1.34 0.81 2.49 1.86 3.38 0.12 0.1 0.25 0.18 0.38 0.27 0.09 0.06 0.18 0.12 0.28 0.18l-0.43 0.51-0.3-0.21c-0.13-0.11-0.28-0.21-0.41-0.33-1.12-1.01-1.73-2.27-2.01-3.74-0.03-0.33-0.08-0.65-0.09-0.98-0.03-1.53 0.47-3.01 1.23-4.31 0.5-0.72 0.57-0.89 1.22-1.49 1.11-1.02 2.48-1.66 3.89-2.13 1.63-0.46 3.26-0.88 4.96-0.89l0.1 0.67z"/>
        <path id="path3536" style="fill-rule:evenodd;fill:#ceaa8e" d="m390.74 629.51c-0.44-0.08-0.89-0.16-1.35-0.15-0.29 0.01-0.55 0.08-0.84 0.14-1.08 0.33-1.72 0.97-2.33 1.88-0.44 0.73-0.8 1.49-1.01 2.31-0.08 0.49-0.2 1.01-0.09 1.5 0.02 0.1 0.06 0.19 0.09 0.29 0.07 0.11 0.14 0.23 0.22 0.33 0.75 0.96 1.87 1.72 2.89 2.38 0.73 0.4 0.36 0.23 1.09 0.53l-0.32 0.56c-0.79-0.35-0.4-0.15-1.17-0.6-0.7-0.46-1.38-0.93-2.02-1.48-0.36-0.32-0.76-0.68-1.05-1.07-0.11-0.15-0.19-0.31-0.28-0.47-0.04-0.14-0.09-0.27-0.12-0.41-0.12-0.56 0.02-1.15 0.11-1.71 0.23-0.88 0.62-1.71 1.1-2.49 0.09-0.15 0.19-0.3 0.29-0.45 0.6-0.8 1.41-1.41 2.37-1.71 0.19-0.04 0.38-0.1 0.56-0.13 0.7-0.1 1.39-0.01 2.07 0.1l-0.21 0.65z"/>
        <path id="path3538" style="fill-rule:evenodd;fill:#ceaa8e" d="m429.12 648.47c2.9-0.31 5.74-0.99 8.57-1.67 2.68-0.69 5.37-1.45 7.88-2.63 1.2-0.56 1.68-0.88 2.79-1.55 1.29-0.83 2.57-1.69 3.69-2.74 0.41-0.39 0.63-0.66 1-1.07 0.44-0.55 0.23-0.29 0.61-0.78l0.55 0.38c-0.4 0.49-0.19 0.23-0.65 0.79-0.39 0.43-0.62 0.7-1.06 1.11-1.15 1.07-2.46 1.94-3.79 2.78-1.13 0.67-1.64 1.01-2.86 1.57-2.55 1.18-5.26 1.94-7.96 2.65-2.84 0.69-5.7 1.38-8.59 1.82l-0.18-0.66z"/>
        <path id="path3540" style="fill-rule:evenodd;fill:#ceaa8e" d="m444.88 639.1c0.84-1.32 1.63-2.69 2.25-4.13 0.15-0.37 0.29-0.75 0.43-1.13 0.49-1.42 0.67-2.92 0.33-4.4-0.05-0.19-0.11-0.38-0.17-0.57-0.39-1.12-1.03-2.08-1.78-2.99-0.78-0.91-1.71-1.65-2.74-2.26-0.32-0.18-0.62-0.4-0.98-0.48l0.27-0.62c0.4 0.14 0.75 0.34 1.1 0.57 1.08 0.66 2.06 1.45 2.88 2.42 0.15 0.18 0.3 0.36 0.44 0.54 0.62 0.81 1.1 1.71 1.44 2.66 0.06 0.21 0.13 0.42 0.17 0.63 0.34 1.58 0.15 3.19-0.38 4.7-0.15 0.39-0.29 0.78-0.45 1.16-0.62 1.46-1.41 2.84-2.21 4.21l-0.6-0.31z"/>
        <path id="path3542" style="fill-rule:evenodd;fill:#ceaa8e" d="m434.36 628.51c-0.08-0.13-0.1-0.31-0.18-0.44s-0.42-0.28-0.52-0.34c-1.45-0.66-3-1.05-4.53-1.46-1.09-0.27-2.18-0.51-3.23-0.87-1.28-0.47-2.64-0.6-3.98-0.72-1.67-0.1-3.33-0.19-5-0.23-0.44 0.03-0.22 0.01-0.65 0.05l-0.17-0.64c0.56-0.06 0.24-0.04 0.94-0.05 1.68 0.07 3.35 0.16 5.02 0.26 1.4 0.12 2.8 0.25 4.12 0.74 1.05 0.35 2.12 0.6 3.18 0.88 1.59 0.43 3.2 0.82 4.7 1.51 0.21 0.13 0.42 0.23 0.59 0.41 0.19 0.2 0.25 0.47 0.37 0.7l-0.66 0.2z"/>
        <path id="path3544" style="fill-rule:evenodd;fill:#ceaa8e" d="m431.11 621.73c-1.62-0.43-3.3-0.57-4.96-0.71-2.02-0.14-4.04-0.22-6.06-0.15-1.13 0.04-2.23 0.29-3.3 0.63l-0.27-0.6c1.12-0.35 2.27-0.6 3.45-0.65 2.11-0.07 4.21 0.03 6.32 0.18 1.7 0.14 3.42 0.28 5.09 0.68l-0.27 0.62z"/>
        <path id="path3546" style="fill-rule:evenodd;fill:#ceaa8e" d="m459.28 632.43c0.63 0.59 1.24 1.23 1.63 2.02 0.12 0.24 0.21 0.49 0.32 0.74 0.07 0.28 0.16 0.55 0.21 0.83 0.21 1.35-0.09 2.78-0.72 3.98-0.18 0.34-0.41 0.64-0.61 0.97-1.47 1.88-3.41 3.12-5.58 4.04-0.56 0.23-1.13 0.42-1.69 0.63-3.84 1.26-7.82 2.06-11.81 2.67-1.86 0.25-3.72 0.47-5.6 0.57-0.66-0.02-1.34 0.07-1.99-0.05-0.46-0.12-0.88-0.32-1.29-0.54-1.31-0.81-2.48-1.81-3.69-2.76-2.08-1.63-4.18-3.23-6.36-4.74-1.69-1.15-3.38-2.29-5.02-3.51-0.74-0.56-1.42-1.19-1.96-1.94-0.16-0.23-0.53-0.84-0.68-1.07-0.68-1.17-1.3-2.37-2.04-3.5-0.57-0.81-1.15-1.62-1.9-2.27-0.34-0.25-0.75-0.33-1.17-0.36-0.16-0.02-0.27 0.01-0.39 0.03l-0.23-0.64c0.26-0.06 0.52-0.07 0.78-0.04 0.54 0.05 1.06 0.2 1.49 0.55 0.77 0.7 1.39 1.55 1.97 2.41 0.74 1.13 1.38 2.33 2.05 3.51 0.32 0.49 0.62 1.01 1 1.47 0.45 0.52 0.97 0.96 1.51 1.37 1.63 1.22 3.3 2.39 4.98 3.54 2.18 1.51 4.29 3.11 6.39 4.74 1.18 0.92 2.35 1.89 3.64 2.65 0.36 0.19 0.73 0.36 1.12 0.46 0.55 0.09 1.12 0.01 1.67 0.04 1.86-0.05 3.71-0.23 5.56-0.47 0.59-0.08 1.19-0.16 1.78-0.26 3.36-0.54 6.69-1.32 9.93-2.36 0.54-0.21 1.1-0.4 1.64-0.63 2.06-0.87 3.96-2.07 5.35-3.84 0.19-0.3 0.41-0.58 0.57-0.89 0.58-1.09 0.87-2.39 0.68-3.62-0.04-0.25-0.13-0.5-0.19-0.75-0.1-0.22-0.18-0.45-0.29-0.66-0.37-0.74-0.96-1.33-1.57-1.88l0.51-0.44z"/>
        <path id="path3548" style="fill-rule:evenodd;fill:#ceaa8e" d="m417.1 621.13c-1.4 0.67-2.79 1.35-4.19 2.02-1.94 0.89-3.83 1.89-5.75 2.82-1.11 0.55-2.3 0.91-3.45 1.35-1.08 0.43-2.1 0.99-3.13 1.52-0.82 0.42-1.57 0.93-2.32 1.45-0.36 0.22-0.69 0.5-1.02 0.75l-0.45-0.51c0.35-0.24 0.66-0.55 1.04-0.75 0.77-0.53 1.55-1.05 2.39-1.48 1.05-0.54 2.09-1.11 3.18-1.56 1.14-0.43 2.32-0.78 3.42-1.3 1.93-0.92 3.83-1.9 5.76-2.81 1.39-0.68 2.78-1.35 4.15-2.07l0.37 0.57z"/>
        <path id="path3550" style="fill-rule:evenodd;fill:#ceaa8e" d="m409.93 621.53c-0.75-0.03-1.51 0.07-2.22 0.31-0.22 0.08-0.44 0.18-0.66 0.26-1.77 0.79-3.46 1.73-5.18 2.6-1.19 0.61-2.43 1.11-3.58 1.78-0.09 0.06-0.17 0.11-0.26 0.16l-0.4-0.54 0.27-0.15c1.17-0.67 2.43-1.16 3.63-1.77 1.74-0.88 3.44-1.82 5.21-2.64 0.24-0.1 0.47-0.2 0.71-0.29 0.76-0.27 1.56-0.4 2.37-0.39l0.11 0.67z"/>
        <path id="path3552" style="fill-rule:evenodd;stroke:#a16451;stroke-width:.39183;fill:#c08477" d="m405.31 624.64l-3.32 1.25-4 2.21-0.41 1.65-1.52 3.04v3.73l3.03 3.73h2.9l4.7-0.69 4.56-3.04s0.41-5.38 0.69-5.94c0.27-0.55 2.76-8.84 2.76-8.84l-1.8-1.1-1.51-0.14-2.63-0.41-1.38 0.83-1.66 1.38-0.41 0.96v1.38z"/>
        <path id="path3554" style="fill-rule:evenodd;stroke:#a16451;stroke-width:.39183;fill:url(#linearGradient3590)" d="m405.31 624.64l-3.32 1.25-4 2.21-0.41 1.65-1.52 3.04v3.73l3.03 3.73h2.9l4.7-0.69 4.56-3.04s0.41-5.38 0.69-5.94c0.27-0.55 2.76-8.84 2.76-8.84l-1.8-1.1-1.51-0.14-2.63-0.41-1.38 0.83-1.66 1.38-0.41 0.96v1.38z"/>
        <path id="path3622" style="fill-rule:evenodd;stroke:#a05124;stroke-width:.39183;fill:#dd9578" d="m406.3 639.01c-1.05 0.61-3.11 2.15-3.11 2.15l-3.29 0.73s-0.61 0.23-1.22 0.47c-0.62 0.24-2.68 1.77-2.68 1.77l1.01 1.65 0.47 1.23 2.1-1.22s2.02-0.57 2.81-0.67-0.06-0.48 1.61-1.32c1.66-0.85 2.24-1.4 2.99-1.82 0.75-0.41 1.97-2.33 1.97-2.33l-1.61-1.25-1.05 0.61z"/>
        <path id="path3620" style="fill-rule:evenodd;stroke:#a05124;stroke-width:.39183;fill:#dd9578" d="m411.67 640.46c-1.12 0.48-3.35 1.75-3.35 1.75l-3.35 0.32-1.28 0.32c-0.64 0.16-2.99 1.08-2.99 1.08l0.19 2.35 1.05 1.04 2.23-0.96s2.08-0.32 2.87-0.32c0.8 0 0-0.48 1.76-1.11 1.75-0.64 2.39-1.12 3.19-1.44s2.23-2.07 2.23-2.07l-1.43-1.44-1.12 0.48z"/>
        <path id="path3624" style="fill-rule:evenodd;stroke:#a05124;stroke-width:.39183;fill:#dd9578" d="m415.71 641.27c-0.81 0.9-2.29 3-2.29 3l-2.9 1.71s-0.51 0.41-1.03 0.83c-0.51 0.41-1.99 2.51-1.99 2.51l1.46 1.26 0.83 1.02 1.62-1.81s1.75-1.17 2.47-1.51c0.72-0.33-0.2-0.43 1.12-1.75s1.7-2.02 2.28-2.65c0.59-0.63 1.15-2.82 1.15-2.82l-1.91-0.7-0.81 0.91z"/>
        <path id="path3580" style="fill-rule:evenodd;stroke:#a16451;stroke-width:.39183;fill:#be7565" d="m409.73 628.24l1.93-2.35 1.11 0.14s0.13-0.14 1.24-0.69c1.1-0.56 3.18-0.7 3.18-0.7s0.69-1.1 1.65-1.1c0.97 0 2.49 1.24 2.49 1.24s0.69 0.83 1.1 1.38c0.42 0.56 2.49 2.08 2.49 2.08l-3.59 4.69s-1.38-0.28-0.28 1.66c1.11 1.93 1.25 2.21 1.11 2.76s-0.28 0.69-0.28 0.69-1.79 0.83-1.93 1.52 0.14 0.97-0.55 1.38c-0.7 0.42-2.08 1.8-3.04 2.62-0.97 0.83-1.25 1.39-2.07 1.52-0.83 0.14-1.25 0-2.21 0.14-0.97 0.14-0.56 0.55-1.66 0.28-1.11-0.28-2.63-0.83-3.45-1.94-0.83-1.1-0.56-0.96-1.25-2.2-0.69-1.25-1.79-4.15-1.79-4.84s-0.14-0.27 0-1.38c0.14-1.1-0.83-0.14 0.41-1.66s1.94-1.93 2.35-2.76 0.14-0.55 0.69-0.97c0.55-0.41 0.41-0.27 0.97-0.55 0.55-0.27 1.24-0.69 1.38-0.96z"/>
        <path id="path3610" style="fill-rule:evenodd;stroke:#d9c8c8;stroke-width:.44701;fill:#e9dedb" d="m431.21 622.05c-0.39-0.25-1.18-0.32-1.72 0.11-0.37 0.3-0.1 0.99-0.1 1.49 0 0.04-1.41-0.77-1.41 0.53 0 0.94 0.57 1.53 1.31 1.92 0.09 0.05-0.3 1.38-0.3 1.81 0 0.88 1.14 0.86 1.71 0.86 0.38 0 0.43 0.22 1.22 0.64 0.71 0.37 1.42-0.05 1.51-0.54 0.13-0.7 1.34 0.22 2.02 0.22 0.55 0 0.43-1.15 0.1-1.5-0.57-0.6 0.28-0.41 0.71-0.64 0.46-0.24 0.3-1.19 0.3-1.7 0-0.83-1.1 0.93-0.1-1.18 0.31-0.66-0.48-0.95-0.91-0.95-0.59 0-0.2-0.75-0.6-1.18-0.35-0.37-1.24-0.24-1.42-0.32-0.04-0.02-0.07-0.07-0.1-0.1-0.51-0.55-1.03-0.09-1.31 0.21-0.21 0.22-0.52-0.5-0.81-0.43-0.23 0.06-0.05 0.5-0.1 0.75z"/>
        <path id="path3612" style="fill-rule:evenodd;stroke:#d9c8c8;stroke-width:.44701;fill:#e9dedb" d="m439.35 624.54c-0.46-0.02-1.18 0.3-1.44 0.95-0.17 0.44 0.41 0.91 0.66 1.34 0.02 0.04-1.61 0.04-0.95 1.17 0.46 0.81 1.26 1.04 2.09 1 0.1 0 0.43 1.35 0.65 1.73 0.44 0.76 1.41 0.16 1.91-0.12 0.33-0.19 0.48-0.02 1.37-0.06 0.8-0.03 1.21-0.75 1.04-1.22-0.23-0.67 1.27-0.48 1.86-0.82 0.48-0.28-0.2-1.21-0.66-1.34-0.8-0.24 0.03-0.5 0.29-0.91 0.28-0.44-0.33-1.18-0.59-1.63-0.41-0.72-0.48 1.35-0.67-0.96-0.06-0.73-0.9-0.59-1.27-0.38-0.51 0.29-0.55-0.55-1.11-0.71-0.49-0.15-1.2 0.4-1.38 0.43-0.05 0-0.1-0.03-0.15-0.05-0.71-0.21-0.93 0.45-1.03 0.84-0.07 0.31-0.69-0.17-0.91 0.04-0.17 0.17 0.2 0.46 0.29 0.7z"/>
        <path id="path3616" style="stroke:#e13c3c;stroke-width:.39183;fill:none" d="m434.64 624.66c-0.11-0.54-0.51-1.11-1.39-1.11h-1.25c-0.5 0-0.73 0.16-1.11 0.35-0.29 0.14-0.49 0.99-0.49 1.39v1.8c0 0.39 0.52 0.61 0.84 0.77 0.41 0.2 0.92 0.14 1.39 0.14 0.49 0 0.72-0.25 1.04-0.49 0.27-0.21 0.28-0.64 0.28-1.04 0-0.61 0.09-1.24-0.21-1.74-0.24-0.4-0.73-0.49-1.32-0.49-0.7 0-0.97-0.07-1.25 0.49-0.14 0.27-0.07 0.8-0.07 1.18 0 0.39 0.31 0.71 0.62 0.83 0.44 0.18 0.59 0.27 0.97 0.07 0.32-0.15 0.28-0.8 0.28-1.11 0-0.51-0.49-0.41-0.76-0.34-0.29 0.07-0.39 0.29-0.49 0.48"/>
        <path id="path3618" style="stroke:#e13c3c;stroke-width:.39183;fill:none" d="m442.29 624.22c-0.53-0.18-1.23-0.11-1.66 0.65-0.21 0.36-0.42 0.72-0.63 1.08-0.25 0.43-0.23 0.71-0.25 1.14-0.02 0.32 0.61 0.91 0.96 1.11 0.52 0.3 1.04 0.6 1.56 0.91 0.34 0.19 0.78-0.15 1.08-0.34 0.38-0.26 0.59-0.74 0.82-1.14 0.24-0.42 0.14-0.74 0.1-1.14-0.04-0.34-0.42-0.56-0.77-0.77-0.52-0.3-1.02-0.69-1.61-0.68-0.46 0-0.78 0.38-1.08 0.9-0.35 0.6-0.55 0.8-0.2 1.32 0.16 0.25 0.66 0.47 0.99 0.65 0.34 0.2 0.77 0.09 1.03-0.12 0.37-0.29 0.52-0.38 0.55-0.81 0.02-0.35-0.56-0.64-0.83-0.8-0.44-0.25-0.6 0.23-0.68 0.49-0.08 0.28 0.06 0.49 0.18 0.67"/>
        <path id="path3592" style="fill-rule:evenodd;stroke:#a16451;stroke-width:.39183;fill:url(#linearGradient3608)" d="m409.73 628.24l1.93-2.35 1.11 0.14s0.13-0.14 1.24-0.69c1.1-0.56 3.18-0.7 3.18-0.7s0.69-1.1 1.65-1.1c0.97 0 2.49 1.24 2.49 1.24s0.69 0.83 1.1 1.38c0.42 0.56 2.49 2.08 2.49 2.08l-3.59 4.69s-1.38-0.28-0.28 1.66c1.11 1.93 1.25 2.21 1.11 2.76s-0.28 0.69-0.28 0.69-1.79 0.83-1.93 1.52 0.14 0.97-0.55 1.38c-0.7 0.42-2.08 1.8-3.04 2.62-0.97 0.83-1.25 1.39-2.07 1.52-0.83 0.14-1.25 0-2.21 0.14-0.97 0.14-0.56 0.55-1.66 0.28-1.11-0.28-2.63-0.83-3.45-1.94-0.83-1.1-0.56-0.96-1.25-2.2-0.69-1.25-1.79-4.15-1.79-4.84s-0.14-0.27 0-1.38c0.14-1.1-0.83-0.14 0.41-1.66s1.94-1.93 2.35-2.76 0.14-0.55 0.69-0.97c0.55-0.41 0.41-0.27 0.97-0.55 0.55-0.27 1.24-0.69 1.38-0.96z"/>
        <path id="path3630" style="fill-rule:evenodd;fill:#cc7949" d="m233.47 78.662a5.3693 6.3345 0 1 1 -10.74 0 5.3693 6.3345 0 1 1 10.74 0z" transform="matrix(.84526 .51352 -.50788 .85463 295.15 457.07)"/>
        <path id="path3626" style="stroke-linejoin:round;fill-rule:evenodd;stroke:#cc7949;stroke-linecap:round;stroke-width:.66611;fill:#f4caba" d="m233.47 78.662a5.3693 6.3345 0 1 1 -10.74 0 5.3693 6.3345 0 1 1 10.74 0z" transform="matrix(.85717 .51504 -.51504 .85717 291.97 456.53)"/>
        <path id="path3628" style="stroke-linejoin:round;fill-rule:evenodd;stroke:#f6b974;stroke-linecap:round;stroke-width:.39183;fill:#f0a539" d="m229.97 78.843a1.8702 2.2925 0 1 1 -3.74 0 1.8702 2.2925 0 1 1 3.74 0z" transform="matrix(1.5832 .56096 -.57625 1.5412 131.39 391.79)"/>
        <path id="path3632" style="stroke:#177b2b;stroke-width:1px;fill:none" d="m426.16 641.86c-1.5 0.14-2.95 2.65-0.84 3.5 1.03 0.41 1.4-0.08 1.81-0.49 0.49-0.49 0.31-0.41-0.12-0.84"/>
        <path id="path3634" style="stroke:#177b2b;stroke-width:1px;fill:none" d="m424.35 635.7c0.83-0.82 3.13 0.08 3.62 2.06 0.36 1.45-1.18 1.9-2.05 1.68-0.72-0.17-0.7-1.12-0.84-1.68"/>
        <path id="path3636" style="stroke:#177b2b;stroke-width:1px;fill:none" d="m424.23 632.33c-1.1 0.07-1.81 1.33-1.21 2.53 0.27 0.53 2.73 0.48 3.26 0.48 1.32 0 2.43-1.35 1.33-2.17-0.34-0.26-1.83 0.07-2.05 0.12-0.87 0.22 0.78 0.82 0.84 0.85"/>
        <path id="path3638" style="stroke:#177b2b;stroke-width:1px;fill:none" d="m430.26 632.57c-1.77 0.44-1.02 2.43 0.25 3.38 1.13 0.85 1.32-0.51 1.32-1.21 0-0.42-0.15-0.28-0.48-0.36"/>
        <path id="path3640" style="stroke:#177b2b;stroke-width:1px;fill:none" d="m420.97 635.83c0-0.51-4.32 1.42-2.05 5.06 1.36 2.18 2.37 1.38 3.5 0.24 0.54-0.54-0.73-2.55-0.96-3.01"/>
        <path id="path3642" style="stroke:#177b2b;stroke-width:1px;fill:none" d="m434.97 634.02c-0.36-0.72-3.38 4-0.12 5.3 0.93 0.38 2.57-0.87 2.77-1.68 0.22-0.87-2.38-1.57-2.65-1.57-0.16 0 0 0.32 0 0.48"/>
        <path id="path3644" style="stroke:#a7e0b2;stroke-width:1px;fill:none" d="m424.47 628.22c0 0.65-1.3 0.32-1.81 0.73-1.78 1.42 1.53 3.35 2.54 3.5 1.35 0.19 0.97-1.66 0.84-2.42-0.19-1.12-1.41-0.79-1.69-0.24"/>
        <path id="path3646" style="stroke:#9ae3a8;stroke-width:1px;fill:none" d="m423.15 634.14c-0.05-0.28-3.23 2.05-0.73 2.05 0.98 0 2.42-0.14 2.66-1.09 0.04-0.18-0.2-0.1-0.25-0.12"/>
        <path id="path3648" style="stroke:#177b2b;stroke-width:1px;fill:none" d="m430.87 640.77c0.38-1.52-3.73 4.35 0 4.35 1.15 0 1.2-0.06 1.2-1.21 0-0.11-0.23-0.35-0.24-0.36"/>
        <path id="path3650" style="stroke:#177b2b;stroke-width:1px;fill:none" d="m417.96 642.82c0-1.13-6 2.05-2.17 4.35 0.77 0.46 2.63 1.88 3.01 0.36 0.35-1.41-0.33-1.04-1.2-1.69-0.13-0.1-0.33 0-0.49 0"/>
        <path id="path3652" style="stroke:#a4d3ad;stroke-width:1px;fill:none" d="m426.4 637.39c-0.5-0.37-3.92 4.84-0.96 5.43 0.63 0.13 0.91-0.19 1.2-0.48"/>
        <path id="path3654" style="stroke:#177b2b;stroke-width:1px;fill:none" d="m418.44 633.17c0.45 0.09 1.21 3.47 2.77 3.86 1.58 0.4 1.52-0.13 1.94-0.96 0.6-1.22-1.23-1.29-1.94-1.57-0.46-0.19-0.7 0.08-0.84 0.12"/>
        <path id="path3656" style="stroke:#177b2b;stroke-width:1px;fill:none" d="m429.66 637.15c-0.67-0.27-2.66 2.05 0.24 2.05 1.02 0 2.36 0.03 2.05-1.2-0.13-0.55-2.7 0.44-0.84-0.49"/>
        <path id="path3658" style="stroke:#177b2b;stroke-width:1px;fill:none" d="m420.25 644.27c-0.12-0.46 2.24-0.7 2.65 0.97 0.08 0.29-1.36 0.96-1.69 0.96-0.36 0-0.68 0.22-0.96 0.36"/>
        <path id="path3660" style="stroke:#177b2b;stroke-width:1px;fill:none" d="m431.95 633.41c-0.49 0 2.23-2.65 5.43-1.45 1.87 0.71 2.52 0.93 2.17 2.66-0.14 0.71-2.05 0.36-2.53 0-0.54-0.41-1.08-0.73-1.08-1.57"/>
        <path id="path3662" style="stroke:#93cd9f;stroke-width:1px;fill:none" d="m431.59 641.25c-0.68-0.51 1.82-3.17 4.59-1.2 1.46 1.05-0.52 2.24-1.09 2.53-0.54 0.27-1.1-0.13-1.33-0.36"/>
        <path id="path3664" style="stroke:#177b2b;stroke-width:1px;fill:none" d="m433.64 645.48c-0.97 0.48 1.19-3.21 2.05-3.86 1.12-0.84 1.42-0.92 1.93 0.12 0.89 1.77 0.45 2.03-1.08 2.29-0.14 0.02-0.21-0.32-0.24-0.36"/>
        <path id="path3666" style="stroke:#177b2b;stroke-width:1px;fill:none" d="m425.44 644.39c-0.82 0.14 0.6 1.59 0.6 2.41 0 2.29 3 3.45 4.59 2.18 0.77-0.62-0.72-1.71-1.21-1.81-0.91-0.18-0.84 0.17-0.84 0.6"/>
        <path id="path3668" style="stroke:#177b2b;stroke-width:1px;fill:none" d="m428.21 640.05c-0.89-0.18-2.09 2.02-1.08 2.77 0.67 0.51 2.48 0.18 3.01-0.36 0.67-0.66 0.62-1.21-0.36-1.21h-0.72"/>
        <path id="path3670" style="stroke:#177b2b;stroke-width:1px;fill:none" d="m420.73 645c-0.92 0 0.73 1.68 1.09 2.53 0.99 2.31 1.44 3.14 2.77 1.81 0.71-0.71 0.02-1.43-0.36-1.81"/>
        <path id="path3672" style="stroke:#a7e0b2;stroke-width:1px;fill:none" d="m435.57 637.15c0.82-0.81 3.95-1.59 5.19-0.84 0.72 0.43 0.62 1.64 0.48 2.17-0.13 0.53-1.33-0.31-1.44-0.36-0.13-0.07-0.25-0.16-0.37-0.24"/>
      </g>
    </g>
  </g>
  <metadata>
    <rdf:RDF>
      <cc:Work>
        <dc:format>image/svg+xml</dc:format>
        <dc:type rdf:resource="http://purl.org/dc/dcmitype/StillImage"/>
        <cc:license rdf:resource="http://creativecommons.org/licenses/publicdomain/"/>
        <dc:publisher>
          <cc:Agent rdf:about="http://openclipart.org/">
            <dc:title>Openclipart</dc:title>
          </cc:Agent>
        </dc:publisher>
      </cc:Work>
      <cc:License rdf:about="http://creativecommons.org/licenses/publicdomain/">
        <cc:permits rdf:resource="http://creativecommons.org/ns#Reproduction"/>
        <cc:permits rdf:resource="http://creativecommons.org/ns#Distribution"/>
        <cc:permits rdf:resource="http://creativecommons.org/ns#DerivativeWorks"/>
      </cc:License>
    </rdf:RDF>
  </metadata>
</svg>
