<?xml version="1.0" encoding="UTF-8"?>
<!DOCTYPE svg PUBLIC "-//W3C//DTD SVG 1.1//EN" "http://www.w3.org/Graphics/SVG/1.1/DTD/svg11.dtd">
<svg version="1.1" xmlns="http://www.w3.org/2000/svg" xmlns:xlink="http://www.w3.org/1999/xlink" x="0" y="0" width="310" height="460" viewBox="0, 0, 310, 460">
  <defs>
    <radialGradient id="Gradient_1" gradientUnits="userSpaceOnUse" cx="263.198" cy="312.211" r="165.307">
      <stop offset="0" stop-color="#4F4F4D"/>
      <stop offset="1" stop-color="#020604"/>
    </radialGradient>
    <radialGradient id="Gradient_2" gradientUnits="userSpaceOnUse" cx="99.538" cy="63.455" r="336.322">
      <stop offset="0" stop-color="#C06E58"/>
      <stop offset="0.703" stop-color="#AB2E2F"/>
      <stop offset="1" stop-color="#982E30"/>
    </radialGradient>
    <linearGradient id="Gradient_3" gradientUnits="userSpaceOnUse" x1="125.342" y1="389.777" x2="291.118" y2="389.777">
      <stop offset="0" stop-color="#BABAB4"/>
      <stop offset="0.006" stop-color="#BABAB4"/>
      <stop offset="0.534" stop-color="#E3DCCF"/>
      <stop offset="1" stop-color="#F5E9DA"/>
    </linearGradient>
    <radialGradient id="Gradient_4" gradientUnits="userSpaceOnUse" cx="270.122" cy="377.286" r="73.6">
      <stop offset="0" stop-color="#4F4F4D"/>
      <stop offset="1" stop-color="#020604"/>
    </radialGradient>
  </defs>
  <g id="Layer_1">
    <path d="M285.743,364.444 C285.743,385.835 268.392,403.194 246.993,403.194 L174.876,403.194 C153.485,403.194 136.126,385.835 136.126,364.444 L136.126,326.772 C136.126,305.374 153.485,288.022 174.876,288.022 L246.993,288.022 C268.392,288.022 285.743,305.374 285.743,326.772 L285.743,364.444 z" fill="url(#Gradient_1)"/>
    <path d="M138.626,326.772 L138.626,364.444 C138.673,384.444 154.853,400.655 174.876,400.694 L246.985,400.694 C267.009,400.655 283.196,384.444 283.235,364.444 L283.235,326.772 C283.196,306.749 267.009,290.546 246.985,290.522 L174.876,290.522 C154.853,290.546 138.673,306.749 138.626,326.772 z M174.876,405.694 C152.087,405.679 133.626,387.218 133.626,364.444 L133.626,326.772 C133.626,303.983 152.103,285.522 174.876,285.522 L246.985,285.522 C269.759,285.522 288.243,303.983 288.243,326.772 L288.243,364.444 C288.243,387.218 269.782,405.679 246.985,405.694 L174.876,405.694" fill="#191613"/>
    <path d="M288.97,317.085 L292.204,295.554 C292.204,295.554 295.431,294.483 298.657,282.647 C301.892,270.804 288.97,235.288 295.431,199.765 C301.892,164.249 304.04,134.116 304.04,122.272 C304.04,110.421 305.118,46.929 259.915,22.171 C226.931,4.116 158.735,4.952 112.454,12.491 C66.173,20.007 47.876,24.327 42.493,45.851 C39.509,57.765 39.267,78.132 44.642,87.819 C30.649,100.733 24.196,95.366 14.509,113.663 C4.821,131.96 -1.64,204.069 18.813,226.671 C39.267,249.272 114.603,302.022 124.29,316.007 C133.978,329.991 128.595,343.991 136.126,348.304 C143.665,352.608 186.72,352.608 216.853,342.921 C246.993,333.233 288.97,317.085 288.97,317.085 z" fill="url(#Gradient_2)"/>
    <path d="M176.438,9.929 C154.173,9.929 131.642,11.874 112.845,14.952 C66.22,22.577 49.696,26.772 44.899,46.436 C43.649,51.444 42.868,58.21 42.868,64.929 C42.853,73.413 44.157,81.905 46.829,86.616 C47.384,87.608 47.181,88.882 46.329,89.663 C31.188,103.335 25.853,97.429 16.712,114.819 C12.079,123.429 7.774,147.374 7.829,170.991 C7.751,193.046 11.61,215.163 20.673,224.991 C40.759,247.296 115.798,299.64 126.329,314.585 C136.298,329.757 132.009,344.405 137.36,346.132 C139.212,347.319 148.087,348.616 159.118,348.522 C175.798,348.546 198.376,346.226 216.087,340.538 C242.931,331.905 279.267,318.101 286.704,315.265 L289.728,295.163 C289.845,294.327 290.399,293.601 291.188,293.265 L291.188,293.257 L291.228,293.226 C291.384,293.077 291.72,292.741 292.165,292.108 C293.126,290.694 294.688,287.71 296.228,281.983 C296.517,280.96 296.681,279.483 296.681,277.679 C296.72,266.788 291.087,245.241 291.063,221.413 C291.063,214.226 291.595,206.772 292.97,199.327 C299.407,163.96 301.54,133.858 301.54,122.272 C301.54,121.726 301.54,121.085 301.54,120.319 C301.618,104.796 300.267,46.866 258.712,24.366 C240.079,14.124 208.767,9.929 176.907,9.929 C176.751,9.929 176.595,9.929 176.438,9.929 z M134.884,350.46 C125.157,343.569 131.657,330.226 122.235,317.413 C113.392,304.382 37.767,251.233 16.954,228.351 C6.251,216.335 2.915,193.601 2.829,170.991 C2.892,146.647 6.907,122.804 12.282,112.476 C22.165,93.976 29.548,97.804 41.563,87.241 C38.868,81.194 37.907,73.077 37.868,64.929 C37.868,57.819 38.688,50.772 40.063,45.233 C46.048,21.882 66.118,17.452 112.04,10.007 C131.126,6.874 153.884,4.929 176.438,4.929 C208.907,4.952 240.876,8.944 261.11,19.976 C305.821,44.694 306.438,104.616 306.54,120.319 C306.54,121.069 306.54,121.726 306.54,122.272 C306.54,134.351 304.368,164.515 297.892,200.21 C296.579,207.319 296.063,214.452 296.063,221.413 C296.048,244.569 301.618,265.476 301.657,277.679 C301.657,279.757 301.517,281.593 301.063,283.288 C298.665,292.061 296.188,295.538 294.509,296.976 L291.431,317.452 C291.306,318.335 290.696,319.093 289.853,319.405 C289.829,319.429 247.868,335.577 217.603,345.296 C199.134,351.202 176.251,353.538 159.118,353.538 C147.571,353.444 139.063,352.694 134.884,350.46" fill="#191613"/>
    <path d="M216.267,353.679 C266.368,339.679 291.118,325.694 291.118,325.694 L285.368,420.866 C285.368,420.866 226.532,448.898 196.696,453.055 C156.384,458.648 124.29,434.405 125.368,402.108 C127.188,347.507 170.743,366.397 216.267,353.679 z" fill="url(#Gradient_3)"/>
    <path d="M154.962,364.616 C138.845,368.468 129.056,375.546 127.868,402.257 C127.829,402.71 127.829,403.194 127.829,403.663 C127.884,430.397 152.071,451.273 185.181,451.359 C188.813,451.359 192.532,451.086 196.345,450.578 C222.813,446.945 274.079,423.413 282.962,419.225 L288.353,329.952 C279.462,334.382 255.751,345.241 216.931,356.085 C193.673,362.554 171.204,361.015 154.962,364.616 z M122.813,403.663 C122.813,403.101 122.837,402.538 122.876,402.022 C123.493,374.054 136.384,363.288 153.899,359.741 C171.259,355.968 193.329,357.53 215.603,351.257 C265.485,337.327 289.821,323.546 289.892,323.507 C290.688,323.054 291.657,323.077 292.431,323.569 C293.212,324.046 293.665,324.913 293.603,325.835 L287.86,421.014 C287.813,421.928 287.259,422.726 286.438,423.116 C286.298,423.155 227.673,451.211 197.04,455.523 C193.001,456.078 189.04,456.336 185.181,456.336 C150.079,456.305 122.837,433.726 122.813,403.663" fill="#191613"/>
    <path d="M197.845,380.265 L197.845,432.061 C197.845,432.061 221.032,429.694 239.454,422.694 C257.884,415.694 272.556,408.577 272.556,408.577 L276.595,356.905 C276.595,356.905 261.251,366.194 237.845,371.851 C210.72,378.382 197.845,380.265 197.845,380.265 z" fill="url(#Gradient_4)"/>
    <path d="M200.353,429.218 C206.978,428.366 224.329,425.772 238.563,420.366 C253.696,414.616 266.243,408.803 270.173,406.944 L273.728,361.319 C267.587,364.476 255.009,370.265 238.415,374.272 C217.524,379.296 205.04,381.593 200.353,382.397 L200.353,429.218 z M196.165,433.905 C195.649,433.429 195.345,432.757 195.345,432.061 L195.345,380.265 C195.345,379.038 196.243,377.96 197.478,377.804 C197.517,377.788 210.204,375.929 237.243,369.405 C260.29,363.835 275.251,354.796 275.298,354.772 C276.095,354.288 277.103,354.288 277.899,354.772 C278.704,355.265 279.157,356.147 279.071,357.093 L275.048,408.756 C274.97,409.647 274.431,410.428 273.634,410.811 C273.595,410.842 258.876,417.975 240.345,425.022 C221.462,432.179 198.196,434.522 198.095,434.538 L197.868,434.554 C197.243,434.554 196.642,434.327 196.165,433.905" fill="#191613"/>
    <path d="M57.157,142.96 C55.829,142.585 55.056,141.226 55.423,139.897 C55.524,139.741 65.36,103.601 76.017,89.53 C81.001,83.085 86.22,79.53 91.376,79.444 C96.095,79.366 99.86,83.085 100.899,88.351 C101.204,89.694 100.345,91.046 99.001,91.327 C97.649,91.632 96.321,90.788 96.009,89.444 C94.993,85.522 93.493,84.522 91.376,84.444 C88.86,84.358 84.399,86.726 80.001,92.577 C70.47,104.866 60.204,141.163 60.228,141.226 L60.251,141.226 C59.938,142.335 58.923,143.054 57.829,143.054 C57.61,143.054 57.384,143.022 57.157,142.96" fill="#882C2E"/>
    <path d="M59.603,175.343 C56.228,175.343 54.22,172.007 54.321,169.444 C54.563,160.999 64.04,147.022 64.079,146.694 C64.103,146.671 67.353,141.804 71.259,136.874 C75.493,132.007 78.845,126.913 83.821,126.28 C86.907,126.319 88.04,129.53 88.04,131.905 C88.079,133.272 86.97,134.429 85.603,134.444 C84.212,134.483 83.063,133.382 83.04,132.007 C83.04,131.905 83.04,131.804 83.04,131.718 C82.423,132.108 81.642,132.788 80.79,133.601 C79.056,135.288 77.032,137.608 75.165,139.991 C71.423,144.718 68.251,149.46 68.274,149.444 C68.298,149.46 59.087,164.304 59.313,169.444 C59.313,170.116 59.438,170.319 59.454,170.319 C59.501,170.288 59.454,170.304 59.821,170.343 L59.821,170.366 C61.196,170.397 62.259,171.569 62.196,172.96 C62.142,174.296 61.032,175.343 59.712,175.343 L59.603,175.343" fill="#882C2E"/>
    <path d="M40.853,151.616 C39.509,151.28 38.665,149.952 38.978,148.601 C41.282,139.069 50.22,133.413 50.384,133.233 L50.384,133.257 C51.532,132.476 53.087,132.788 53.845,133.913 C54.603,135.069 54.29,136.624 53.165,137.397 C53.188,137.483 45.29,142.843 43.837,149.741 C43.571,150.89 42.556,151.671 41.415,151.671 C41.228,151.671 41.04,151.647 40.853,151.616" fill="#882C2E"/>
    <path d="M47.282,130.835 C47.282,130.772 46.071,122.843 46.071,115.054 C46.071,112.741 46.173,110.452 46.462,108.351 C47.243,100.616 51.345,97.304 54.907,97.452 C57.095,97.476 58.485,98.351 58.688,98.444 C59.876,99.171 60.282,100.679 59.571,101.882 C58.876,103.077 57.337,103.46 56.149,102.741 C56.11,102.788 55.954,102.686 55.704,102.601 C55.501,102.522 55.212,102.429 54.907,102.452 C54.188,102.601 52.556,102.179 51.431,108.991 C51.188,110.804 51.063,112.897 51.063,115.054 C51.063,122.351 52.228,130.077 52.228,130.101 C52.431,131.476 51.493,132.741 50.126,132.944 C49.993,132.96 49.876,132.968 49.743,132.968 C48.532,132.968 47.47,132.085 47.282,130.835" fill="#882C2E"/>
    <path d="M106.829,301.476 C106.79,301.257 80.587,246.851 78.743,226.335 C77.923,216.546 77.923,209.366 77.923,202.304 C77.923,195.233 77.923,188.288 77.126,178.702 C75.384,159.147 73.884,159.897 72.806,156.694 C72.368,155.382 73.063,153.976 74.376,153.546 C75.688,153.101 77.103,153.811 77.556,155.116 C78.087,156.757 80.626,159.093 82.103,178.288 C82.923,188.085 82.923,195.257 82.923,202.304 C82.923,209.366 82.923,216.319 83.72,225.929 C85.134,244.14 111.259,299.28 111.337,299.319 C111.931,300.569 111.399,302.061 110.173,302.655 C109.821,302.819 109.454,302.897 109.095,302.897 C108.157,302.897 107.259,302.374 106.829,301.476" fill="#882C2E"/>
    <path d="M76.462,159.757 C76.36,159.616 51.673,140.491 43.548,126.749 C40.423,121.366 39.563,114.905 39.563,108.897 C39.563,98.569 42.204,89.405 42.243,89.28 C42.61,87.944 44.001,87.194 45.329,87.577 C46.657,87.944 47.415,89.335 47.048,90.679 C47.071,90.679 44.548,99.405 44.548,108.897 C44.548,114.413 45.431,120.077 47.868,124.226 C54.837,136.319 79.485,155.835 79.548,155.811 C80.626,156.671 80.837,158.241 79.978,159.327 C79.478,159.952 78.743,160.288 78.001,160.288 C77.454,160.288 76.915,160.108 76.462,159.757" fill="#191613"/>
    <path d="M128.376,335.944 C128.36,334.569 129.462,333.444 130.86,333.429 C130.938,333.382 185.524,332.765 220.517,323.272 C261.407,312.226 290.798,293.491 290.86,293.444 C292.009,292.686 293.571,293.038 294.306,294.21 C295.048,295.382 294.696,296.913 293.548,297.647 C293.407,297.733 263.501,316.819 221.806,328.101 C185.774,337.819 131.001,338.413 130.899,338.429 L130.915,338.429 L130.884,338.429 C129.509,338.429 128.399,337.327 128.376,335.944" fill="#191613"/>
  </g>
</svg>
