<?xml version="1.0" encoding="UTF-8" standalone="no"?>
<svg
   xmlns:dc="http://purl.org/dc/elements/1.1/"
   xmlns:cc="http://creativecommons.org/ns#"
   xmlns:rdf="http://www.w3.org/1999/02/22-rdf-syntax-ns#"
   xmlns:svg="http://www.w3.org/2000/svg"
   xmlns="http://www.w3.org/2000/svg"
   xmlns:sodipodi="http://sodipodi.sourceforge.net/DTD/sodipodi-0.dtd"
   xmlns:inkscape="http://www.inkscape.org/namespaces/inkscape"
   version="1.0"
   viewBox="0 0 245.4931 256"
   id="svg458"
   sodipodi:docname="m16.svg"
   inkscape:version="0.92.4 (5da689c313, 2019-01-14)"
   width="245.4931"
   height="256"
   style="fill:none;fill-rule:evenodd;stroke-width:2.78530002;stroke-linecap:round;stroke-linejoin:round">
  <defs
     id="defs462" />
  <sodipodi:namedview
     pagecolor="#ffffff"
     bordercolor="#666666"
     borderopacity="1"
     objecttolerance="10"
     gridtolerance="10"
     guidetolerance="10"
     inkscape:pageopacity="0"
     inkscape:pageshadow="2"
     inkscape:window-width="1920"
     inkscape:window-height="1025"
     id="namedview460"
     showgrid="false"
     inkscape:zoom="0.14552417"
     inkscape:cx="-67.552247"
     inkscape:cy="786.98825"
     inkscape:window-x="-8"
     inkscape:window-y="-8"
     inkscape:window-maximized="1"
     inkscape:current-layer="svg458"
     fit-margin-top="0"
     fit-margin-left="0"
     fit-margin-right="0"
     fit-margin-bottom="0" />
  <g
     id="g1496"
     transform="matrix(0.11297745,-0.11297745,0.11297745,0.11297745,-14.125627,216.91326)">
    <path
       id="path2"
       d="m 968,115 h 8 v -13 l 32,10 v 3 h 9 v 94 h -9 v 3 l -32,10 v -12 l -9,1 z"
       inkscape:connector-curvature="0"
       style="fill:#666666" />
    <path
       id="path4"
       d="m 968,115 h 8 v -13 l 32,10 v 3 h 9 v 94 h -9 v 3 l -32,10 v -12 l -9,1 1,-96"
       inkscape:connector-curvature="0"
       style="stroke:#000000" />
    <path
       id="path6"
       d="m 1008,115 v 94 h 9 v -37 h -9 z"
       inkscape:connector-curvature="0"
       style="fill:#0d0d0d" />
    <path
       id="path8"
       d="m 1008,115 v 94 h 9 v -37 h -9"
       inkscape:connector-curvature="0"
       style="stroke:#000000" />
    <path
       id="path10"
       d="m 976,115 v 95 l -9,1 v -38 h 8 z"
       inkscape:connector-curvature="0"
       style="fill:#0d0d0d" />
    <path
       id="path12"
       d="m 976,115 v 95 l -9,1 v -38 h 8"
       inkscape:connector-curvature="0"
       style="stroke:#000000" />
    <path
       id="path14"
       d="m 976,170 h 32 v 42 l -32,10 z"
       inkscape:connector-curvature="0"
       style="fill:#0d0d0d" />
    <path
       id="path16"
       d="M 528,115 H 28 l -1,-1 -4,-1 h -4 l -5,1 -2,2 -3,2 -2,2 -2,4 -2,5 -1,6 -1,7 -1,8 1,21 v 26 l 1,29 1,30 1,28 1,25 1,18 1,10 1,6 1,7 3,6 5,5 3,2 3,2 5,2 5,1 h 5 l 7,-1 8,-1 8,-2 28,-8 45,-15 56,-18 59,-21 57,-19 49,-17 33,-12 13,-4 2,-1 7,-1 11,-3 12,-3 14,-3 14,-2 13,-2 10,-2 9,-1 9,-1 8,-1 7,-2 5,-1 4,-1 3,-1 h 1 z"
       inkscape:connector-curvature="0"
       style="fill:#0d0d0d" />
    <path
       id="path18"
       d="m 28,116 h 494 l 1,5 v 12 17 l 1,20 v 19 17 13 4 h -1 l -3,1 -4,1 -5,1 -7,2 -8,1 -8,1 -9,1 -10,2 -13,2 -13,2 -14,3 -12,3 -10,2 -7,2 h -3 l -13,5 -35,11 -48,17 -56,19 -59,19 -54,18 -44,14 -28,9 -8,2 -8,1 h -6 -6 l -5,-1 -4,-2 -3,-2 -3,-2 -5,-5 -2,-6 L 8,338 7,332 6,322 5,305 4,281 3,254 2,225 V 197 L 1,171 v -20 -8 l 1,-7 2,-6 1,-4 2,-4 3,-3 2,-2 2,-1 5,-1 h 5 l 3,1 z"
       inkscape:connector-curvature="0"
       style="fill:#141414" />
    <path
       id="path20"
       d="m 28,118 h 488 l 1,5 v 11 l 1,17 v 19 19 16 12 4 l -1,1 h -2 l -5,1 -5,2 -6,1 -8,1 -8,1 -9,1 -10,1 -12,2 -13,3 -14,3 -12,2 -9,3 -7,1 -3,1 -15,4 -35,12 -48,15 -56,19 -58,19 -53,17 -43,14 -27,8 -8,1 -7,2 h -6 -6 l -5,-1 -4,-2 -3,-2 -3,-2 -4,-5 -3,-6 -2,-5 -1,-6 v -9 L 6,301 5,278 4,252 3,224 2,197 v -25 -20 -8 l 1,-7 1,-5 2,-5 2,-3 2,-3 2,-2 3,-1 5,-1 h 4 l 3,1 z"
       inkscape:connector-curvature="0"
       style="fill:#1c1c1c" />
    <path
       id="path22"
       d="m 28,120 h 482 l 1,5 1,11 v 16 l 1,18 v 18 16 l -1,12 v 4 h -1 l -2,1 -4,1 -6,1 -6,1 -7,1 -8,1 -9,1 -10,1 -12,2 -13,3 -12,3 -12,2 -10,2 -7,2 -3,1 -16,4 -35,11 -48,15 -55,18 -57,18 -53,17 -42,13 -26,8 -8,2 -7,1 h -6 -5 l -5,-1 -4,-2 -3,-1 -3,-3 -4,-5 -3,-5 L 9,327 8,322 7,313 6,296 5,275 4,249 V 223 L 3,196 2,172 v -19 l 1,-8 v -6 l 2,-6 1,-4 2,-4 2,-2 3,-2 2,-1 5,-1 h 4 l 3,1 z"
       inkscape:connector-curvature="0"
       style="fill:#242424" />
    <path
       id="path24"
       d="m 28,122 h 476 l 1,4 1,11 1,15 v 18 18 15 l -1,11 v 4 h -1 l -2,1 -4,1 -5,1 -7,1 -7,1 -8,1 -8,1 -10,1 -11,2 -13,3 -12,2 -12,3 -9,2 -7,1 -4,1 -17,5 -35,10 -48,15 -55,17 -56,18 -52,16 -41,13 -25,7 -8,2 -6,1 h -6 -5 l -5,-1 -4,-2 -3,-1 -3,-2 -4,-5 -2,-6 -2,-5 -1,-5 v -9 L 7,292 6,271 5,247 4,221 3,196 v -23 -19 -8 l 1,-6 1,-5 2,-5 2,-3 2,-2 2,-2 3,-2 4,-1 4,1 h 3 z"
       inkscape:connector-curvature="0"
       style="fill:#2b2b2b" />
    <path
       id="path26"
       d="m 28,124 h 470 l 2,4 1,10 v 15 l 1,17 -1,17 v 15 10 l -1,4 h -1 l -2,1 -4,1 -5,1 -6,1 -7,1 -8,2 h -8 l -10,2 -11,1 -12,3 -12,2 -11,2 -10,2 -7,2 -3,1 -18,4 -36,10 -48,15 -54,17 -56,17 -50,15 -41,12 -24,7 -8,2 -6,1 h -6 l -5,-1 h -4 l -4,-2 -3,-1 -3,-2 -4,-5 -2,-5 -2,-6 v -4 L 8,303 7,288 6,268 5,245 V 220 L 4,196 v -23 l -1,-18 1,-7 1,-7 1,-5 1,-4 2,-3 2,-3 3,-1 2,-2 4,-1 h 4 l 3,1 z"
       inkscape:connector-curvature="0"
       style="fill:#333333" />
    <path
       id="path28"
       d="m 29,126 h 463 l 2,3 1,11 1,14 v 16 16 l -1,15 v 10 l -1,3 -1,1 h -2 l -4,1 -5,1 -6,1 -7,1 -7,2 h -8 l -10,1 -11,2 -11,2 -12,3 -11,2 -9,2 -7,2 h -4 l -19,5 -36,10 -48,14 -54,16 -54,16 -50,15 -40,12 -24,7 -6,1 -7,1 h -5 l -5,-1 h -4 l -4,-2 -3,-1 -2,-2 -4,-5 -3,-5 -1,-5 -1,-4 -1,-8 -1,-15 V 265 L 6,243 5,219 V 195 L 4,174 v -18 -7 l 1,-6 1,-5 2,-4 2,-3 2,-3 2,-2 2,-1 5,-1 4,1 h 3 z"
       inkscape:connector-curvature="0"
       style="fill:#3b3b3b" />
    <path
       id="path30"
       d="m 29,127 457,1 2,1 1,2 v 5 l 1,5 v 14 l 1,15 -1,16 v 13 l -1,10 -1,4 h -1 -2 l -4,1 -5,1 -6,1 -6,1 -7,1 -8,1 -9,1 -11,2 -11,2 -12,2 -11,3 -9,2 -7,1 -3,1 -21,4 -36,10 -48,13 -53,16 -54,16 -49,14 -38,11 -23,7 -7,1 -6,1 h -5 l -5,-1 -4,-1 -4,-1 -3,-1 -2,-2 -4,-5 -3,-5 -1,-5 -1,-4 v -7 L 8,280 7,262 6,240 V 218 L 5,195 v -21 -17 -7 l 1,-6 1,-5 1,-4 2,-3 2,-2 3,-2 2,-1 4,-1 h 4 l 3,1 z"
       inkscape:connector-curvature="0"
       style="fill:#424242" />
    <path
       id="path32"
       d="m 29,129 452,1 h 1 l 1,3 1,4 v 5 l 1,13 v 15 15 l -1,13 -1,9 -1,4 h -1 l -2,1 h -4 l -4,1 -6,1 -7,2 -7,1 h -7 l -9,1 -11,2 -11,2 -11,2 -10,2 -9,2 -7,2 h -4 l -21,5 -37,9 -48,13 -53,15 -52,15 -48,14 -38,11 -23,6 -6,1 -6,1 h -5 l -4,-1 -8,-2 -5,-3 -4,-5 -2,-4 -2,-5 -1,-4 v -7 L 8,276 7,258 V 238 L 6,216 V 195 L 5,175 v -17 l 1,-7 v -5 l 1,-5 2,-4 2,-3 2,-2 2,-2 2,-1 4,-1 h 4 l 3,1 z"
       inkscape:connector-curvature="0"
       style="fill:#4a4a4a" />
    <path
       id="path34"
       d="m 29,131 h 446 l 1,1 1,3 1,4 1,5 v 12 l 1,14 -1,15 -1,12 -1,9 -1,3 -1,1 h -2 l -4,1 -4,1 -6,1 -6,1 -7,1 h -8 l -8,1 -10,2 -11,2 -11,2 -10,2 -9,2 -6,1 -5,1 -22,4 -37,10 -48,12 -52,14 -52,15 -47,13 -37,10 -22,6 -11,2 -10,-1 -7,-2 -5,-3 -4,-4 -2,-5 -1,-4 -1,-4 -1,-7 V 272 L 8,255 7,236 V 215 L 6,194 v -19 -16 -7 l 1,-5 1,-5 2,-4 1,-2 2,-3 2,-1 3,-1 4,-1 h 4 l 2,1 z"
       inkscape:connector-curvature="0"
       style="fill:#525252" />
    <path
       id="path36"
       d="m 29,133 h 440 l 1,1 2,2 1,4 v 5 l 1,12 v 13 l -1,14 -1,12 -1,8 -1,4 h -1 -2 l -3,1 -5,1 -5,1 -6,1 h -7 l -8,1 -8,1 -10,2 -10,2 -11,2 -9,2 -9,1 -7,2 h -4 l -24,5 -37,9 -48,12 -51,14 -52,13 -46,13 -36,10 -21,5 -11,2 -9,-1 -7,-2 -5,-3 -3,-4 -3,-4 -1,-5 -1,-3 v -7 L 9,268 8,252 V 234 L 7,214 v -20 -18 l -1,-16 1,-7 v -5 l 2,-4 1,-4 2,-3 2,-2 2,-1 2,-2 h 4 4 2 z"
       inkscape:connector-curvature="0"
       style="fill:#595959" />
    <path
       id="path38"
       d="m 30,135 h 433 l 1,1 2,2 1,4 1,4 1,12 v 12 l -1,13 -1,12 -2,8 -1,3 h -1 -2 l -3,1 -5,1 -5,1 -6,1 -7,1 h -7 l -8,1 -9,2 -10,1 -10,2 -10,2 -8,2 -7,1 -4,1 -25,4 -38,9 -48,12 -51,13 -50,13 -46,12 -35,9 -20,5 -11,2 -8,-1 -7,-2 -5,-3 -3,-4 -3,-4 -1,-4 -1,-3 v -6 L 9,264 V 249 L 8,231 V 212 L 7,194 v -18 -15 -6 l 1,-5 1,-5 2,-3 1,-3 2,-2 2,-2 2,-1 4,-1 4,1 h 3 z"
       inkscape:connector-curvature="0"
       style="fill:#616161" />
    <path
       id="path40"
       d="m 30,136 427,1 2,1 1,2 1,3 1,4 1,11 v 12 l -1,13 -1,10 -1,8 -2,3 h -1 l -2,1 h -3 l -4,1 -5,1 -6,1 -7,1 h -7 l -8,1 -9,2 -9,1 -10,2 -9,2 -9,2 -6,1 h -5 l -26,5 -38,8 -47,11 -51,13 -50,13 -44,11 -35,9 -19,5 -10,1 -8,-1 -7,-2 -4,-3 -4,-3 -2,-4 -1,-4 -1,-4 -1,-5 V 259 L 9,245 V 229 L 8,211 v -18 -17 -14 -6 l 1,-5 1,-4 1,-4 4,-4 4,-3 4,-1 3,1 h 3 z"
       inkscape:connector-curvature="0"
       style="fill:#696969" />
    <path
       id="path42"
       d="m 30,138 421,1 2,1 2,2 1,3 1,4 1,10 v 11 l -1,12 -2,10 -1,7 -2,3 h -1 l -2,1 h -3 l -4,1 -5,1 -6,1 -6,1 h -7 l -8,1 -8,1 -10,2 -9,2 -9,2 -8,1 -7,1 -5,1 -26,4 -40,9 -46,10 -51,12 -49,12 -43,11 -33,8 -19,5 -10,1 -8,-1 -6,-2 -4,-3 -4,-3 -2,-4 -1,-4 -1,-3 v -5 L 10,255 V 242 L 9,227 V 210 193 L 8,177 v -14 -6 l 1,-5 1,-4 2,-3 3,-5 4,-2 4,-1 h 3 l 3,1 z"
       inkscape:connector-curvature="0"
       style="fill:#707070" />
    <path
       id="path44"
       d="m 30,140 415,1 h 2 l 2,2 1,3 1,4 1,10 v 10 l -1,11 -1,10 -2,7 -2,2 h -1 l -2,1 h -3 l -4,1 -5,1 -5,1 -6,1 h -7 l -7,1 -9,1 -9,2 -9,2 -9,1 -8,2 -6,1 -5,1 -28,4 -40,8 -46,10 -50,11 -48,12 -43,10 -32,8 -18,4 -9,1 -8,-1 -6,-2 -4,-3 -3,-3 -3,-4 -1,-3 v -3 l -1,-5 v -9 L 10,239 V 224 L 9,209 v -16 -16 -13 -6 l 1,-4 1,-4 1,-4 4,-4 3,-2 4,-1 h 4 l 2,1 z"
       inkscape:connector-curvature="0"
       style="fill:#787878" />
    <path
       id="path46"
       d="m 30,142 409,1 h 3 l 1,2 2,3 1,3 1,9 v 11 l -1,10 -2,9 -2,6 -2,3 h -1 -2 l -3,1 -4,1 h -4 l -6,1 -6,1 h -6 l -7,1 -8,1 -9,2 -9,1 -8,2 -8,1 -7,1 -5,1 -29,4 -40,8 -46,10 -49,11 -48,10 -41,10 -32,7 -17,4 -9,1 -7,-1 -6,-2 -4,-3 -3,-3 -2,-3 -2,-3 v -3 l -1,-4 v -9 -11 l -1,-14 v -15 -15 -14 l -1,-13 1,-6 v -4 l 1,-4 2,-3 3,-4 4,-2 4,-1 h 3 l 2,1 z"
       inkscape:connector-curvature="0"
       style="fill:#7f7f7f" />
    <path
       id="path48"
       d="m 30,144 403,1 h 3 l 2,2 1,2 1,4 1,8 v 10 l -1,9 -2,9 -2,6 -2,2 h -1 -2 l -3,1 -3,1 h -5 l -5,1 -6,1 h -6 l -7,1 -8,1 -8,2 -9,1 -8,2 -8,1 -6,1 -5,1 -31,4 -40,7 -46,10 -49,10 -47,10 -40,9 -31,6 -16,4 -9,1 -6,-1 -6,-2 -4,-2 -3,-4 -2,-3 -1,-3 -1,-2 v -4 l -1,-8 v -11 -12 l -1,-14 v -14 -14 -12 -5 l 1,-5 1,-4 1,-3 3,-4 4,-2 h 4 3 z"
       inkscape:connector-curvature="0"
       style="fill:#878787" />
    <path
       id="path50"
       d="m 30,146 h 397 l 3,1 2,1 2,3 1,3 1,8 v 9 l -2,9 -2,8 -2,5 -2,2 h -1 l -2,1 h -2 l -4,1 h -4 l -5,1 -6,1 h -6 l -7,1 -7,1 -8,1 -9,2 -8,1 -7,1 -7,1 -5,1 -31,5 -41,7 -46,8 -48,10 -46,9 -40,9 -30,6 -16,3 -7,1 -7,-1 -5,-2 -4,-2 -3,-3 -2,-3 -1,-3 -1,-2 v -4 -7 -10 l -1,-11 v -13 -13 l -1,-13 v -12 l 1,-9 2,-7 4,-4 3,-2 h 4 3 3 z"
       inkscape:connector-curvature="0"
       style="fill:#8f8f8f" />
    <path
       id="path52"
       d="m 31,148 h 390 l 3,1 2,1 2,2 1,3 1,7 v 9 l -1,8 -2,7 -3,5 -2,2 -1,1 h -2 -2 l -4,1 h -4 l -5,1 -5,1 h -6 l -7,1 -7,1 -7,1 -8,2 -8,1 -7,1 -7,1 -6,1 -32,4 -41,7 -46,8 -48,9 -45,9 -39,8 -28,5 -15,3 -8,1 -6,-1 -5,-2 -3,-2 -3,-3 -2,-3 -2,-3 v -2 -3 l -1,-6 v -9 -11 l -1,-11 v -13 -12 -11 l 1,-9 2,-6 3,-4 4,-2 3,-1 4,1 h 2 z"
       inkscape:connector-curvature="0"
       style="fill:#969696" />
    <path
       id="path54"
       d="m 31,149 385,1 3,1 2,1 2,2 1,3 1,6 v 8 l -2,8 -2,6 -3,5 -2,2 h -1 -2 -2 l -4,1 h -4 l -4,1 -6,1 -5,1 h -6 l -7,1 -8,1 -7,1 -8,1 -7,2 -7,1 h -5 l -34,5 -41,6 -46,8 -47,8 -44,9 -38,7 -28,5 -15,3 h -6 l -6,-1 -5,-2 -3,-2 -3,-3 -2,-2 -1,-3 -1,-2 v -3 -5 l -1,-8 v -10 -11 -11 -11 -11 -9 l 3,-6 3,-3 3,-2 4,-1 3,1 h 2 z"
       inkscape:connector-curvature="0"
       style="fill:#9e9e9e" />
    <path
       id="path56"
       d="m 31,151 379,1 h 3 l 2,2 2,2 1,2 2,6 -1,7 -1,7 -3,6 -2,4 -3,2 h -1 -2 l -2,1 h -3 l -4,1 h -5 l -5,1 h -5 l -6,1 -7,1 -7,1 -7,1 -7,1 -7,1 -7,1 -6,1 -34,4 -42,6 -46,8 -47,8 -43,7 -37,7 -27,4 -14,3 h -6 l -5,-1 -5,-2 -3,-2 -3,-3 -2,-2 -1,-2 -1,-2 v -2 -5 -8 -8 l -1,-10 v -10 -11 -10 l 1,-8 2,-6 3,-4 4,-1 3,-1 h 3 l 2,1 z"
       inkscape:connector-curvature="0"
       style="fill:#a6a6a6" />
    <path
       id="path58"
       d="m 31,153 373,1 h 3 l 2,1 2,2 2,2 1,6 v 6 l -2,6 -2,6 -3,4 -3,1 h -1 l -1,1 h -3 -3 l -4,1 h -4 l -5,1 h -6 l -5,1 -6,1 -7,1 -7,1 -7,1 -7,1 -6,1 h -6 l -36,5 -42,6 -46,7 -46,7 -43,7 -36,6 -26,4 -13,2 h -5 l -5,-1 -5,-2 -3,-2 -3,-2 -1,-3 -2,-2 v -1 -2 -5 l -1,-6 v -7 -9 -10 -9 -10 l 1,-8 2,-6 3,-3 3,-2 h 3 3 l 2,1 z"
       inkscape:connector-curvature="0"
       style="fill:#adadad" />
    <path
       id="path60"
       d="m 31,155 367,1 h 3 l 3,1 2,1 1,2 2,5 -1,6 -2,6 -2,5 -3,3 -3,2 h -1 -1 -3 -3 l -3,1 h -5 l -4,1 -6,1 h -5 l -6,1 -6,1 h -7 l -7,1 -6,1 -7,1 -6,1 -37,4 -42,6 -46,6 -45,7 -42,6 -35,6 -26,4 -12,1 h -5 l -5,-1 -4,-2 -3,-2 -2,-2 -2,-2 -1,-2 -1,-1 v -2 -4 -5 -7 -8 l -1,-8 v -9 -9 l 1,-8 2,-5 3,-3 3,-2 h 4 3 2 z"
       inkscape:connector-curvature="0"
       style="fill:#b5b5b5" />
    <path
       id="path62"
       d="m 31,157 361,1 h 3 l 3,1 2,1 2,2 1,4 v 5 l -2,5 -3,5 -3,3 -3,1 h -1 -1 -3 l -2,1 h -4 -4 l -5,1 h -5 l -5,1 -5,1 h -6 l -7,1 -6,1 -7,1 -6,1 h -7 l -37,5 -44,5 -45,6 -45,6 -41,6 -34,5 -24,3 -12,1 h -5 l -4,-1 -4,-2 -3,-2 -2,-2 -2,-2 -1,-1 v -1 l -1,-2 v -3 -4 -6 -7 -7 -9 -8 l 1,-7 2,-5 2,-3 4,-2 h 3 3 2 z"
       inkscape:connector-curvature="0"
       style="fill:#bdbdbd" />
    <path
       id="path64"
       d="m 32,159 354,1 h 4 l 3,1 2,1 1,1 2,4 -1,4 -2,5 -3,3 -3,3 -3,1 h -1 -1 -3 l -2,1 h -4 -3 l -5,1 h -5 l -5,1 -5,1 h -6 l -6,1 -6,1 h -6 l -7,1 -6,1 -39,4 -44,5 -45,6 -44,5 -41,5 -33,5 -23,2 -11,2 -4,-1 -4,-1 -4,-2 -3,-2 -2,-2 -2,-1 -1,-2 v -1 -3 -3 -5 -6 -7 -7 -8 -7 l 2,-5 3,-3 3,-1 h 3 3 2 z"
       inkscape:connector-curvature="0"
       style="fill:#c4c4c4" />
    <path
       id="path66"
       d="M 380,161 32,160 h -1 -2 -2 -3 l -4,1 -2,3 -2,4 -1,7 v 7 7 6 4 4 3 2 l 1,1 1,1 1,1 3,2 2,2 4,2 3,1 4,1 10,-1 23,-3 32,-3 39,-4 44,-5 45,-5 44,-5 40,-5 h 7 l 6,-1 7,-1 h 6 l 5,-1 h 6 l 4,-1 h 5 l 5,-1 h 4 l 4,-1 h 3 l 3,-1 h 2 1 1 l 3,-1 4,-2 3,-3 2,-4 v -2 -1 -2 l -1,-2 -2,-1 -2,-1 h -3 z"
       inkscape:connector-curvature="0"
       style="fill:#cccccc" />
    <path
       id="path68"
       d="M 528,115 H 28 l -1,-1 -4,-1 h -4 l -5,1 -2,2 -3,2 -2,2 -2,4 -2,5 -1,6 -1,7 -1,8 1,21 v 26 l 1,29 1,30 1,28 1,25 1,18 1,10 1,6 1,7 3,6 5,5 3,2 3,2 5,2 5,1 h 5 l 7,-1 8,-1 8,-2 28,-8 45,-15 56,-18 59,-21 57,-19 49,-17 33,-12 13,-4 2,-1 7,-1 11,-3 12,-3 14,-3 14,-2 13,-2 10,-2 9,-1 9,-1 8,-1 7,-2 5,-1 4,-1 3,-1 h 1 l -2,-110"
       inkscape:connector-curvature="0"
       style="stroke:#000000" />
    <path
       id="path70"
       d="m 669,329 -2,-67 h -1 v -1 l -1,-2 -1,-1 -1,-2 -3,-1 -2,-1 -4,-1 h -6 -8 -9 -10 -10 -8 -6 -2 v 21 l -1,2 -1,3 -1,3 -1,4 -1,4 -2,3 -2,3 -5,7 -13,14 -17,20 -19,22 -19,22 -16,18 -12,14 -4,4 v 1 l -1,1 v 1 2 2 l 1,2 3,3 4,2 8,3 12,4 14,5 15,5 14,5 12,4 9,2 3,1 5,2 h 5 l 5,-1 5,-2 2,-1 1,-2 1,-3 v -3 -3 l -1,-4 -2,-5 -2,-5 6,-10 6,-11 49,-82 z"
       inkscape:connector-curvature="0"
       style="fill:#0d0d0d" />
    <path
       id="path72"
       d="m 595,253 h 2 6 8 9 10 9 8 6 l 3,1 3,1 2,1 1,2 2,2 v 2 l 1,1 v 3 7 11 l 1,11 v 12 10 8 l 1,2 -17,6 -47,80 -6,10 -7,10 3,5 2,4 1,4 v 4 l -1,2 -1,3 -1,2 -2,1 -4,2 -5,1 -6,-1 -4,-1 -3,-1 -8,-3 -12,-3 -14,-5 -14,-5 -14,-4 -11,-4 -7,-3 -4,-3 -2,-2 -1,-3 v -3 l 1,-3 1,-2 1,-2 h 1 l 4,-5 11,-13 16,-18 18,-21 18,-21 17,-19 12,-14 5,-7 2,-3 1,-3 1,-4 2,-3 1,-3 v -3 l 1,-2 z"
       inkscape:connector-curvature="0"
       style="fill:#141414" />
    <path
       id="path74"
       d="m 595,253 h 2 6 8 9 9 9 8 5 l 4,1 2,1 2,2 2,1 1,2 v 2 l 1,1 v 1 2 7 10 l 1,12 v 11 10 7 3 l -20,10 -45,77 -5,10 -7,10 2,5 2,4 1,4 v 3 2 l -1,3 -2,1 -1,2 -5,2 h -5 -5 l -4,-1 -3,-1 -8,-3 -11,-3 -14,-5 -13,-4 -13,-5 -11,-4 -7,-2 -2,-2 -2,-1 -1,-2 v -1 -4 l 1,-4 2,-4 1,-3 2,-2 4,-5 11,-12 15,-18 18,-20 17,-20 16,-19 12,-13 5,-7 1,-2 2,-4 1,-3 1,-4 1,-3 1,-2 v -2 -1 z"
       inkscape:connector-curvature="0"
       style="fill:#1c1c1c" />
    <path
       id="path76"
       d="m 596,254 h 2 5 8 8 10 8 8 5 3 l 2,1 2,2 2,2 1,2 v 1 l 1,2 v 3 7 10 11 l 1,11 v 9 7 2 l -23,15 -44,74 -4,10 -7,10 2,5 2,4 1,3 v 3 l -1,3 -1,2 -1,1 -2,2 -4,1 -5,1 h -5 l -5,-2 h -2 l -8,-3 -11,-3 -12,-5 -14,-4 -12,-4 -10,-4 -7,-3 -2,-1 -1,-1 -1,-2 v -2 l 1,-5 2,-5 2,-4 3,-4 1,-3 1,-1 4,-4 10,-12 15,-17 16,-19 17,-20 15,-17 11,-13 6,-7 1,-2 1,-3 1,-4 2,-3 1,-3 v -3 l 1,-1 v -1 z"
       inkscape:connector-curvature="0"
       style="fill:#242424" />
    <path
       id="path78"
       d="m 596,254 h 2 5 7 9 9 8 8 4 3 l 3,2 1,1 2,2 1,2 1,2 v 1 1 3 6 10 10 l 1,11 v 9 7 2 l -27,19 -41,71 -4,10 -7,10 2,4 1,4 1,3 v 3 3 l -1,2 -2,1 -2,1 -4,2 -5,1 -4,-1 -5,-1 -2,-1 -7,-2 -11,-3 -12,-4 -13,-5 -12,-4 -9,-3 -7,-3 -2,-1 -1,-2 v -2 -2 l 1,-6 3,-5 3,-5 3,-5 3,-3 1,-1 3,-5 10,-11 14,-16 16,-19 16,-19 15,-17 11,-13 4,-6 2,-2 1,-3 1,-3 1,-3 1,-3 1,-3 v -2 z"
       inkscape:connector-curvature="0"
       style="fill:#2b2b2b" />
    <path
       id="path80"
       d="m 597,254 h 1 5 7 9 8 8 7 5 l 3,1 2,1 2,2 1,2 1,2 1,1 v 2 3 7 9 10 l 1,10 v 9 6 3 l -30,24 -40,68 -2,9 -9,10 2,4 2,4 v 3 2 3 l -1,2 -2,1 -1,1 -4,2 h -5 -5 l -4,-1 -2,-1 -7,-2 -10,-4 -12,-3 -12,-5 -11,-3 -9,-4 -7,-2 -1,-1 -1,-2 v -3 -2 l 2,-6 4,-7 4,-6 4,-5 2,-4 1,-1 4,-5 9,-10 14,-16 15,-18 15,-18 14,-17 10,-12 5,-5 1,-3 1,-3 2,-3 1,-3 v -3 l 1,-2 v -2 l 1,-1 z"
       inkscape:connector-curvature="0"
       style="fill:#333333" />
    <path
       id="path82"
       d="m 597,254 h 2 5 6 8 l 9,1 h 7 7 4 3 l 2,1 2,2 1,2 1,2 1,2 v 1 1 3 6 9 9 10 l 1,9 v 6 2 l -34,29 -37,65 -2,9 -9,10 2,4 1,3 1,3 v 3 l -1,2 -1,2 -1,1 -2,1 -4,1 -5,1 h -4 l -4,-1 -2,-1 -7,-2 -9,-3 -11,-4 -12,-4 -11,-4 -8,-3 -6,-3 -2,-1 v -2 -2 -3 l 3,-7 4,-7 5,-7 4,-7 4,-4 1,-2 3,-3 9,-11 13,-15 15,-17 15,-18 13,-15 9,-12 5,-5 1,-2 1,-3 1,-3 1,-3 1,-3 1,-3 v -1 -1 z"
       inkscape:connector-curvature="0"
       style="fill:#3b3b3b" />
    <path
       id="path84"
       d="m 598,255 h 1 5 6 8 8 7 7 4 2 l 2,2 2,1 1,2 1,3 1,2 v 1 1 2 6 9 9 9 l 1,9 v 5 3 l -37,33 -36,62 -1,10 -9,8 2,4 1,4 v 2 3 2 l -1,2 -2,1 -2,1 -4,1 -4,1 -4,-1 -4,-1 h -2 l -6,-2 -9,-3 -11,-4 -11,-4 -10,-3 -9,-4 -5,-2 -2,-1 v -2 -3 l 1,-3 4,-8 5,-8 6,-8 5,-7 3,-4 2,-2 3,-4 8,-10 13,-14 14,-17 14,-17 12,-15 9,-11 5,-5 1,-2 1,-3 1,-3 1,-3 v -3 l 1,-2 v -2 h 1 z"
       inkscape:connector-curvature="0"
       style="fill:#424242" />
    <path
       id="path86"
       d="m 598,255 h 2 4 6 8 7 8 6 4 2 l 2,2 1,2 2,2 v 2 l 1,2 v 2 1 2 6 8 9 9 7 6 2 l -40,38 -34,59 v 10 l -9,8 1,4 1,3 1,3 v 2 l -2,3 -3,3 -4,1 h -5 -4 l -3,-1 -2,-1 -6,-2 -9,-3 -10,-3 -10,-4 -10,-3 -8,-3 -5,-2 -1,-1 v -3 -2 l 2,-4 4,-8 6,-9 6,-9 6,-8 4,-5 2,-2 3,-4 8,-10 11,-13 13,-16 14,-16 12,-14 8,-11 4,-5 1,-2 1,-2 1,-3 1,-3 1,-3 1,-2 v -2 -1 z"
       inkscape:connector-curvature="0"
       style="fill:#4a4a4a" />
    <path
       id="path88"
       d="m 598,255 h 2 4 6 7 8 7 5 4 l 2,1 2,1 2,2 1,2 1,2 v 2 2 1 3 5 8 8 9 7 6 2 l -43,42 -32,56 v 10 l -9,8 2,7 v 4 l -2,3 -3,3 -4,1 h -4 -4 l -3,-1 -2,-1 -6,-2 -8,-3 -9,-3 -10,-3 -9,-4 -8,-2 -5,-2 -1,-2 v -2 l 1,-3 2,-4 5,-9 6,-10 7,-10 7,-8 4,-6 2,-3 3,-3 8,-9 10,-13 13,-15 13,-15 11,-14 8,-10 4,-5 1,-2 1,-2 1,-3 1,-3 v -3 l 1,-2 v -1 -1 z"
       inkscape:connector-curvature="0"
       style="fill:#525252" />
    <path
       id="path90"
       d="m 599,255 h 1 4 6 7 7 7 l 5,1 h 4 2 l 2,1 1,2 1,2 1,3 v 2 2 1 2 5 8 8 8 7 5 2 l -47,47 -30,54 1,9 -10,8 3,6 v 5 l -2,3 -3,1 -4,1 -4,1 -4,-1 -4,-1 h -1 l -6,-2 -7,-3 -9,-3 -9,-3 -9,-3 -7,-3 -5,-2 -1,-1 1,-2 1,-4 2,-4 6,-10 7,-10 8,-11 7,-9 5,-7 2,-2 3,-4 7,-8 10,-13 12,-14 12,-15 10,-12 8,-10 4,-5 1,-1 1,-3 v -2 l 1,-3 1,-3 v -2 l 1,-2 z"
       inkscape:connector-curvature="0"
       style="fill:#595959" />
    <path
       id="path92"
       d="m 599,255 h 2 4 5 l 7,1 h 6 7 5 3 2 l 2,2 1,2 1,2 1,2 v 2 l 1,2 v 1 l -1,3 v 5 7 8 7 7 5 2 l -50,51 -28,51 1,9 -10,8 2,6 v 4 l -2,2 -3,2 -4,1 h -4 -4 l -3,-1 -1,-1 -5,-1 -7,-3 -9,-3 -8,-3 -8,-3 -7,-2 -4,-2 -1,-1 v -3 l 2,-3 2,-5 7,-10 8,-12 8,-12 8,-10 5,-7 2,-2 3,-4 7,-8 9,-12 12,-13 11,-14 10,-12 7,-9 4,-4 v -2 l 1,-2 1,-3 1,-3 v -3 l 1,-2 v -1 -1 z"
       inkscape:connector-curvature="0"
       style="fill:#616161" />
    <path
       id="path94"
       d="m 600,256 h 1 4 5 6 6 6 5 4 l 1,1 2,1 1,2 1,2 1,3 v 2 l 1,2 -1,1 v 2 5 7 7 8 6 4 2 l -54,57 -26,47 2,10 -10,7 2,5 -1,4 -1,2 -4,2 -3,1 h -4 l -4,-1 h -3 l -1,-1 -5,-1 -6,-3 -8,-3 -8,-2 -8,-3 -6,-3 -4,-1 -1,-2 1,-2 2,-4 2,-5 7,-11 9,-13 10,-12 8,-11 6,-8 2,-3 3,-2 6,-8 9,-11 11,-13 10,-13 9,-12 7,-8 3,-4 1,-2 1,-2 1,-3 v -2 l 1,-3 v -2 l 1,-2 z"
       inkscape:connector-curvature="0"
       style="fill:#696969" />
    <path
       id="path96"
       d="m 600,256 h 2 3 5 6 6 6 4 3 l 2,1 1,1 2,2 v 3 l 1,2 1,2 v 2 2 l -1,2 v 4 7 7 7 6 l -1,4 v 2 l -56,61 -25,45 3,9 -11,7 2,5 v 3 l -2,2 -3,2 h -4 l -4,1 -3,-1 h -3 l -1,-1 -5,-2 -6,-2 -7,-2 -7,-3 -8,-3 -5,-2 -4,-2 -1,-1 1,-3 2,-4 3,-5 8,-12 10,-13 10,-13 9,-12 6,-8 3,-3 2,-3 6,-7 8,-11 10,-12 10,-12 9,-11 6,-8 3,-4 1,-2 1,-2 v -2 l 1,-3 v -2 l 1,-2 v -2 z"
       inkscape:connector-curvature="0"
       style="fill:#707070" />
    <path
       id="path98"
       d="m 601,256 h 1 3 5 5 6 5 5 3 l 1,1 2,1 1,2 1,3 v 2 l 1,3 v 2 1 2 l -1,5 v 6 6 7 l -1,6 v 4 1 l -60,66 -22,42 3,9 -11,7 2,4 -1,3 -2,2 -3,2 h -3 -4 -3 l -3,-1 h -1 l -4,-2 -6,-2 -7,-2 -6,-3 -7,-2 -5,-2 -4,-2 v -1 l 1,-3 2,-4 3,-5 9,-13 11,-15 10,-14 10,-12 7,-9 2,-3 3,-3 5,-7 8,-10 9,-11 9,-12 8,-10 6,-7 3,-4 1,-1 v -2 l 1,-3 v -2 l 1,-3 v -2 -1 l 1,-1 z"
       inkscape:connector-curvature="0"
       style="fill:#787878" />
    <path
       id="path100"
       d="m 601,256 h 1 3 5 5 l 6,1 h 5 4 2 2 l 1,2 1,2 1,2 v 3 l 1,2 v 2 2 2 l -1,4 v 6 6 6 l -1,5 v 4 2 l -63,70 -21,39 4,9 -11,7 1,4 v 2 l -2,2 -3,1 -4,1 h -3 l -4,-1 h -2 l -1,-1 -4,-1 -5,-2 -6,-2 -7,-3 -5,-2 -5,-2 -3,-1 -1,-2 2,-3 2,-4 4,-5 9,-14 11,-15 12,-15 10,-14 7,-9 3,-4 2,-2 5,-6 7,-10 9,-10 8,-11 8,-9 5,-8 3,-3 v -1 l 1,-2 v -2 l 1,-3 v -2 l 1,-2 v -1 -1 z"
       inkscape:connector-curvature="0"
       style="fill:#7f7f7f" />
    <path
       id="path102"
       d="m 601,256 h 2 l 2,1 h 5 5 5 5 3 3 l 1,1 1,1 1,2 1,3 1,2 v 3 2 1 2 l -1,5 v 5 6 5 l -1,5 v 4 1 l -67,75 -18,36 4,9 -11,7 1,3 -1,3 -2,1 -3,1 -3,1 h -4 l -3,-1 h -2 l -1,-1 -4,-1 -4,-2 -6,-2 -6,-2 -5,-3 -5,-1 -2,-2 1,-4 7,-10 10,-15 12,-16 12,-16 11,-14 8,-10 3,-3 2,-3 4,-6 7,-8 8,-10 7,-10 7,-9 5,-7 2,-2 1,-2 1,-2 v -2 -2 l 1,-3 v -1 -2 z"
       inkscape:connector-curvature="0"
       style="fill:#878787" />
    <path
       id="path104"
       d="m 602,257 h 1 3 4 4 5 5 3 2 l 2,1 1,1 v 3 l 1,2 1,3 v 2 2 2 2 l -1,4 v 5 5 l -1,6 v 4 3 2 l -71,79 -16,34 5,9 -12,6 1,3 v 2 l -3,1 -2,1 h -4 -3 -3 l -2,-1 h -1 l -3,-1 -4,-2 -5,-2 -6,-2 -5,-2 -4,-2 -2,-1 2,-4 7,-11 11,-15 13,-17 13,-17 11,-15 8,-10 3,-4 2,-3 4,-5 6,-8 7,-9 7,-9 6,-9 5,-6 2,-2 1,-2 v -1 l 1,-2 v -3 -2 l 1,-2 v -1 -1 z"
       inkscape:connector-curvature="0"
       style="fill:#8f8f8f" />
    <path
       id="path106"
       d="m 602,257 h 1 3 4 4 4 5 l 3,1 h 2 1 l 1,2 1,2 v 2 l 1,3 v 3 2 2 2 l -1,3 v 5 5 l -1,5 v 4 3 1 l -74,84 -14,31 5,9 -12,6 1,2 -1,2 -2,1 -3,1 h -3 -4 l -3,-1 h -1 -1 l -3,-1 -4,-2 -4,-2 -5,-2 -4,-2 -4,-1 -2,-1 2,-5 8,-11 12,-16 13,-18 14,-18 12,-15 9,-11 3,-5 2,-1 3,-6 6,-7 6,-8 6,-9 6,-7 4,-6 2,-2 v -1 l 1,-2 v -2 l 1,-2 v -2 -2 -1 -1 z"
       inkscape:connector-curvature="0"
       style="fill:#969696" />
    <path
       id="path108"
       d="m 603,257 h 1 2 3 5 l 4,1 h 4 3 1 1 l 1,2 1,2 v 3 l 1,3 v 2 3 1 2 l -1,4 v 4 5 l -1,4 v 4 3 1 l -77,89 -13,27 6,9 -12,6 v 2 l -1,1 -2,1 -3,1 h -3 -3 l -3,-1 h -1 l -1,-1 -3,-1 -3,-1 -4,-2 -4,-2 -4,-1 -3,-2 h -2 l 3,-5 8,-12 13,-17 14,-18 15,-19 12,-16 9,-12 4,-4 1,-2 4,-5 4,-6 6,-8 5,-8 5,-7 4,-5 2,-2 v -1 -2 l 1,-2 v -2 -2 -2 l 1,-1 z"
       inkscape:connector-curvature="0"
       style="fill:#9e9e9e" />
    <path
       id="path110"
       d="m 603,257 h 1 2 l 3,1 h 4 4 4 2 2 l 1,1 v 1 l 1,2 1,3 v 3 3 2 2 2 l -1,3 v 4 4 l -1,4 v 4 2 l -1,1 -80,94 -11,24 8,9 -14,6 1,1 -1,2 h -2 -3 -4 -3 -2 -2 v -1 l -2,-1 -3,-1 -4,-2 -3,-1 -3,-2 -3,-1 -2,-1 3,-5 9,-12 13,-17 15,-20 16,-20 13,-17 10,-12 3,-4 2,-2 3,-4 4,-6 5,-7 4,-7 5,-6 3,-5 1,-2 1,-1 v -1 -2 l 1,-2 v -2 -2 -1 z"
       inkscape:connector-curvature="0"
       style="fill:#a6a6a6" />
    <path
       id="path112"
       d="m 604,257 h 2 l 3,1 h 4 3 4 2 1 l 1,1 1,1 v 3 l 1,3 v 3 l 1,2 v 3 l -1,2 v 1 l -1,3 v 4 l -1,4 v 3 l -1,4 v 2 1 l -83,98 -9,21 8,9 -14,6 1,1 -2,1 h -2 -3 -3 -3 l -2,-1 h -2 l -2,-1 -2,-1 -3,-2 -3,-1 -3,-1 -2,-1 -1,-1 3,-5 9,-13 14,-18 16,-21 16,-20 14,-18 10,-13 4,-4 1,-2 3,-4 3,-5 4,-6 5,-6 3,-6 3,-4 1,-2 v -1 l 1,-1 v -2 -2 -2 -1 -1 l 1,-1 z"
       inkscape:connector-curvature="0"
       style="fill:#adadad" />
    <path
       id="path114"
       d="m 604,258 h 1 1 3 3 4 3 2 l 1,1 h 1 v 2 l 1,2 v 3 3 l 1,3 v 2 2 l -1,2 v 3 l -1,3 -1,3 v 4 l -1,2 v 2 1 l -87,103 -7,19 9,8 -14,5 v 1 l -1,1 h -3 -3 -3 -3 l -2,-1 h -1 -1 l -1,-1 -2,-1 -2,-1 -2,-2 -2,-1 -2,-1 h -1 l 3,-6 10,-13 15,-19 17,-21 17,-21 14,-19 11,-13 4,-5 1,-2 2,-3 3,-5 3,-5 4,-6 3,-4 2,-4 1,-2 v -1 -2 -2 l 1,-2 v -2 -1 z"
       inkscape:connector-curvature="0"
       style="fill:#b5b5b5" />
    <path
       id="path116"
       d="m 604,258 h 1 2 2 3 l 3,1 h 3 2 1 v 2 l 1,2 v 3 3 l 1,3 v 3 l -1,2 v 2 l -1,2 v 3 l -1,3 v 3 l -1,2 v 2 1 l -91,107 -4,16 9,8 -14,5 v 1 h -2 -2 -3 -3 l -3,-1 h -2 -1 v -1 h -1 l -2,-1 -2,-1 -1,-1 -2,-1 -1,-1 -1,-1 4,-5 11,-14 15,-19 17,-23 18,-22 15,-19 11,-14 5,-5 v -1 l 2,-3 2,-4 3,-5 3,-5 2,-4 2,-3 1,-1 v -1 -1 -2 -2 -1 -2 -1 z"
       inkscape:connector-curvature="0"
       style="fill:#bdbdbd" />
    <path
       id="path118"
       d="m 605,258 h 2 2 l 3,1 h 2 3 1 1 v 1 l 1,1 v 3 3 l 1,3 v 3 3 1 l -1,2 v 2 l -1,3 -1,3 v 2 l -1,2 v 1 1 l -94,112 -3,13 10,9 -14,4 -1,1 h -2 l -2,-1 h -3 l -3,-1 h -2 l -2,-1 h -1 l -1,-1 h -1 l -1,-1 -1,-1 -1,-1 -1,-1 h -1 l 4,-5 12,-15 16,-20 18,-23 18,-24 16,-20 12,-14 4,-5 v -1 l 2,-3 2,-3 2,-4 2,-4 2,-4 1,-2 v -1 -1 -1 l 1,-1 v -2 -2 -1 -1 -1 z"
       inkscape:connector-curvature="0"
       style="fill:#c4c4c4" />
    <path
       id="path120"
       d="m 605,258 v 17 l -7,18 -104,131 3,4 15,3 15,-4 -11,-8 2,-11 97,-116 v -1 -1 l 1,-2 v -2 l 1,-2 1,-2 v -2 l 1,-2 v -2 -3 -3 -3 l -1,-3 v -2 -2 -1 z"
       inkscape:connector-curvature="0"
       style="fill:#cccccc" />
    <path
       id="path122"
       d="m 669,329 -2,-67 h -1 v -1 l -1,-2 -1,-1 -1,-2 -3,-1 -2,-1 -4,-1 h -6 -8 -9 -10 -10 -8 -6 -2 v 21 l -1,2 -1,3 -1,3 -1,4 -1,4 -2,3 -2,3 -5,7 -13,14 -17,20 -19,22 -19,22 -16,18 -12,14 -4,4 v 1 l -1,1 v 1 2 2 l 1,2 3,3 4,2 8,3 12,4 14,5 15,5 14,5 12,4 9,2 3,1 5,2 h 5 l 5,-1 5,-2 2,-1 1,-2 1,-3 v -3 -3 l -1,-4 -2,-5 -2,-5 6,-10 6,-11 49,-82 14,-1"
       inkscape:connector-curvature="0"
       style="stroke:#000000" />
    <path
       id="path124"
       d="m 633,337 2,-4 1,-4 -1,-3 -2,-3 -3,-3 -3,-3 -4,-2 -5,-1 -9,-2 -10,-1 -4,1 -4,1 -3,2 -3,2 -6,7 -9,11 -10,13 -12,14 -11,13 -9,12 -7,8 -2,3 h -1 l -2,3 -2,3 -1,4 v 5 l 2,5 2,2 2,2 4,3 4,2 9,4 8,3 6,2 6,2 4,1 2,1 h 2 l 1,1 v -1 l 2,-1 2,-1 3,-3 4,-3 4,-3 4,-5 3,-5 5,-8 7,-12 7,-13 8,-14 7,-13 6,-11 5,-8 1,-3"
       inkscape:connector-curvature="0"
       style="stroke:#000000" />
    <path
       id="path126"
       d="m 528,115 h 31 l 6,-25 h 1 2 3 4 3 4 3 1 l 2,-1 1,-1 2,-2 3,-3 2,-4 4,-7 4,-8 4,-10 14,-34 v -1 -2 l 2,-3 2,-4 4,-3 6,-3 8,-2 10,-1 h 3 4 3 4 l 3,-1 h 2 l 2,1 h 2 l 12,2 30,4 42,5 47,6 48,6 41,5 30,4 11,1 1,1 3,1 5,3 5,3 5,5 5,7 2,3 1,4 1,5 1,5 v 14 19 23 24 23 19 13 5 1 1 1 l -1,2 v 2 l -2,1 -2,1 -2,1 h -4 -3 -4 l -3,1 -3,1 -2,2 -2,2 v 3 9 10 10 9 9 6 5 1 l -1,1 v 2 1 l 1,2 1,1 1,2 2,1 2,1 1,2 1,1 v 1 h -1 l -1,1 -1,1 h -1 l -7,2 -16,2 -22,4 -26,5 -26,4 -24,4 -17,2 -9,1 h -6 l -8,-4 h -85 v 1 l -1,2 -1,1 -1,2 -2,1 -3,1 h -4 -3 l -4,1 h -2 -3 -2 -1 -1 v -67 -1 -2 -2 l -1,-2 -3,-3 -3,-2 -6,-1 -8,-1 h -9 -9 -9 -9 l -7,-1 h -5 -4 -1 l -1,-1 -2,-3 -3,-5 -5,-5 -7,-5 -10,-5 -5,-1 -7,-2 h -7 -8 -13 l -7,1 -2,-1 h 1 3 l 3,-1 h 4 1 z"
       inkscape:connector-curvature="0"
       style="fill:#666666" />
    <path
       id="path128"
       d="m 528,115 h 31 l 6,-25 h 1 2 3 4 3 4 3 1 l 2,-1 1,-1 2,-2 3,-3 2,-4 4,-7 4,-8 4,-10 14,-34 v -1 -2 l 2,-3 2,-4 4,-3 6,-3 8,-2 10,-1 h 3 4 3 4 l 3,-1 h 2 l 2,1 h 2 l 12,2 30,4 42,5 47,6 48,6 41,5 30,4 11,1 1,1 3,1 5,3 5,3 5,5 5,7 2,3 1,4 1,5 1,5 v 14 19 23 24 23 19 13 5 1 1 1 l -1,2 v 2 l -2,1 -2,1 -2,1 h -4 -3 -4 l -3,1 -3,1 -2,2 -2,2 v 3 9 10 10 9 9 6 5 1 l -1,1 v 2 1 l 1,2 1,1 1,2 2,1 2,1 1,2 1,1 v 1 h -1 l -1,1 -1,1 h -1 l -7,2 -16,2 -22,4 -26,5 -26,4 -24,4 -17,2 -9,1 h -6 l -8,-4 h -85 v 1 l -1,2 -1,1 -1,2 -2,1 -3,1 h -4 -3 l -4,1 h -2 -3 -2 -1 -1 v -67 -1 -2 -2 l -1,-2 -3,-3 -3,-2 -6,-1 -8,-1 h -9 -9 -9 -9 l -7,-1 h -5 -4 -1 l -1,-1 -2,-3 -3,-5 -5,-5 -7,-5 -10,-5 -5,-1 -7,-2 h -7 -8 -13 l -7,1 -2,-1 h 1 3 l 3,-1 h 4 1 l -2,-110"
       inkscape:connector-curvature="0"
       style="stroke:#000000" />
    <path
       id="path130"
       d="m 763,265 h 7 l 6,2 5,2 4,4 2,4 2,5 1,4 v 6 5 l -2,4 -2,5 -2,4 -4,4 -3,2 -5,2 -4,1 h -10 -8 -8 -8 -8 -7 -8 -8 l -4,-1 -3,-2 -4,-3 -3,-3 -2,-5 -2,-4 -2,-5 v -6 l -1,-5 1,-5 1,-5 2,-4 3,-3 4,-3 5,-2 6,-1 h 1 1 1 1 1 v 1 l -1,2 -2,2 -2,3 -1,4 -2,4 -1,4 v 3 4 l 1,3 1,2 1,3 1,3 2,3 3,3 3,3 3,-2 -1,-2 -1,-5 -2,-7 v -8 -4 l 1,-4 1,-4 2,-3 2,-3 4,-2 5,-1 5,-1 h 10 8 l 5,1 h 4 3 1 1 z"
       inkscape:connector-curvature="0"
       style="fill:#ffffff" />
    <path
       id="path132"
       d="m 763,265 h 7 l 6,2 5,2 4,4 2,4 2,5 1,4 v 6 5 l -2,4 -2,5 -2,4 -4,4 -3,2 -5,2 -4,1 h -10 -8 -8 -8 -8 -7 -8 -8 l -4,-1 -3,-2 -4,-3 -3,-3 -2,-5 -2,-4 -2,-5 v -6 l -1,-5 1,-5 1,-5 2,-4 3,-3 4,-3 5,-2 6,-1 h 1 1 1 1 1 v 1 l -1,2 -2,2 -2,3 -1,4 -2,4 -1,4 v 3 4 l 1,3 1,2 1,3 1,3 2,3 3,3 3,3 3,-2 -1,-2 -1,-5 -2,-7 v -8 -4 l 1,-4 1,-4 2,-3 2,-3 4,-2 5,-1 5,-1 h 10 8 l 5,1 h 4 3 1 1 v 1"
       inkscape:connector-curvature="0"
       style="stroke:#000000" />
    <path
       id="path134"
       d="m 798,330 v 6 15 l 1,24 3,30 2,17 2,18 3,19 4,19 5,19 6,19 6,19 8,19 130,-31 1,-1 1,-1 v -1 l 1,-2 v -1 -2 l -1,-3 -3,-7 -5,-15 -6,-23 -6,-27 -7,-32 -5,-33 -2,-17 -2,-17 -1,-17 v -16 z"
       inkscape:connector-curvature="0"
       style="fill:#e5e5e5" />
    <path
       id="path136"
       d="m 798,330 v 6 15 l 1,24 3,30 2,17 2,18 3,19 4,19 5,19 6,19 6,19 8,19 130,-31 1,-1 1,-1 v -1 l 1,-2 v -1 -2 l -1,-3 -3,-7 -5,-15 -6,-23 -6,-27 -7,-32 -5,-33 -2,-17 -2,-17 -1,-17 v -16 l -135,22"
       inkscape:connector-curvature="0"
       style="stroke:#000000" />
    <path
       id="path138"
       d="m 928,42 7,1 5,2 5,3 3,3 3,5 2,4 2,5 v 5 6 l -2,5 -2,4 -2,4 -4,4 -4,2 -6,2 -6,1 h -17 l -28,-1 h -35 -38 l -37,-1 h -31 -21 -9 l -3,-1 -3,-1 -3,-1 -4,-3 -3,-3 -2,-4 v -6 -4 l 1,-2 v -3 l 1,-2 1,-1 1,-1 1,-1 1,-2 2,-1 1,-2 2,-3 2,-2 2,-3 2,-2 1,-1 1,-1 1,-1 2,-1 4,-2 4,-2 6,-1 7,-1 8,-1 15,1 h 23 l 30,1 32,1 31,1 h 26 l 18,1 z"
       inkscape:connector-curvature="0"
       style="fill:#ffffff" />
    <path
       id="path140"
       d="m 928,42 7,1 5,2 5,3 3,3 3,5 2,4 2,5 v 5 6 l -2,5 -2,4 -2,4 -4,4 -4,2 -6,2 -6,1 h -17 l -28,-1 h -35 -38 l -37,-1 h -31 -21 -9 l -3,-1 -3,-1 -3,-1 -4,-3 -3,-3 -2,-4 v -6 -4 l 1,-2 v -3 l 1,-2 1,-1 1,-1 1,-1 1,-2 2,-1 1,-2 2,-3 2,-2 2,-3 2,-2 1,-1 1,-1 1,-1 2,-1 4,-2 4,-2 6,-1 7,-1 8,-1 15,1 h 23 l 30,1 32,1 31,1 h 26 l 18,1 h 7"
       inkscape:connector-curvature="0"
       style="stroke:#000000" />
    <path
       id="path142"
       d="m 655,58 h 5 l 5,-2 4,-2 4,-4 4,-3 2,-5 2,-5 v -5 -6 l -2,-5 -2,-4 -4,-4 -4,-3 -4,-3 -5,-1 -5,-1 -6,1 -5,1 -4,3 -4,3 -3,4 -3,4 -1,5 -1,6 1,5 1,5 3,5 3,3 4,4 4,2 5,2 z"
       inkscape:connector-curvature="0"
       style="fill:#666666" />
    <path
       id="path144"
       d="m 655,58 h 5 l 5,-2 4,-2 4,-4 4,-3 2,-5 2,-5 v -5 -6 l -2,-5 -2,-4 -4,-4 -4,-3 -4,-3 -5,-1 -5,-1 -6,1 -5,1 -4,3 -4,3 -3,4 -3,4 -1,5 -1,6 1,5 1,5 3,5 3,3 4,4 4,2 5,2 h 6"
       inkscape:connector-curvature="0"
       style="stroke:#000000" />
    <path
       id="path146"
       d="m 655,41 h 2 1 l 2,-1 2,-1 1,-2 1,-1 v -2 -2 -2 -2 l -1,-2 -1,-1 -2,-1 -2,-1 -1,-1 h -2 -2 l -2,1 -2,1 -1,1 -1,1 -1,2 -1,2 v 2 2 l 1,2 1,1 1,2 1,1 2,1 h 2 z"
       inkscape:connector-curvature="0"
       style="fill:#b2b2b2" />
    <path
       id="path148"
       d="m 655,41 h 2 1 l 2,-1 2,-1 1,-2 1,-1 v -2 -2 -2 -2 l -1,-2 -1,-1 -2,-1 -2,-1 -1,-1 h -2 -2 l -2,1 -2,1 -1,1 -1,1 -1,2 -1,2 v 2 2 l 1,2 1,1 1,2 1,1 2,1 h 2 2"
       inkscape:connector-curvature="0"
       style="stroke:#000000" />
    <path
       id="path150"
       d="m 646,22 h 1 1 v -1 h 1 v -1 l 1,-1 v -1 -1 h -1 v -1 l -1,-1 -1,-1 h -1 -1 v 1 h -1 l -1,1 v 1 h -1 v 1 1 l 1,1 v 1 h 1 l 1,1 z"
       inkscape:connector-curvature="0"
       style="fill:#666666" />
    <path
       id="path152"
       d="m 646,22 h 1 1 v -1 h 1 v -1 l 1,-1 v -1 -1 h -1 v -1 l -1,-1 -1,-1 h -1 -1 v 1 h -1 l -1,1 v 1 h -1 v 1 1 l 1,1 v 1 h 1 l 1,1 h 1"
       inkscape:connector-curvature="0"
       style="stroke:#000000" />
    <path
       id="path154"
       d="m 665,49 h 1 1 l 1,-1 1,-1 v -1 -1 -1 l -1,-1 -1,-1 h -1 -1 -1 -1 l -1,1 -1,1 v 1 1 1 l 1,1 1,1 h 1 z"
       inkscape:connector-curvature="0"
       style="fill:#666666" />
    <path
       id="path156"
       d="m 665,49 h 1 1 l 1,-1 1,-1 v -1 -1 -1 l -1,-1 -1,-1 h -1 -1 -1 -1 l -1,1 -1,1 v 1 1 1 l 1,1 1,1 h 1 1"
       inkscape:connector-curvature="0"
       style="stroke:#000000" />
    <path
       id="path158"
       d="m 661,21 h 1 l 1,-1 h 1 l 1,-1 v -1 -1 -1 -1 l -1,-1 -1,-1 h -1 -1 -1 l -1,1 -1,1 v 1 1 1 1 l 1,1 h 1 z"
       inkscape:connector-curvature="0"
       style="fill:#666666" />
    <path
       id="path160"
       d="m 661,21 h 1 l 1,-1 h 1 l 1,-1 v -1 -1 -1 -1 l -1,-1 -1,-1 h -1 -1 -1 l -1,1 -1,1 v 1 1 1 1 l 1,1 h 1 l 1,1"
       inkscape:connector-curvature="0"
       style="stroke:#000000" />
    <path
       id="path162"
       d="m 670,34 h 1 1 l 1,-1 1,-1 v -1 -1 -1 l -1,-1 h -1 v -1 h -1 -1 -1 l -1,1 h -1 v 1 1 1 1 1 h 1 v 1 h 1 z"
       inkscape:connector-curvature="0"
       style="fill:#666666" />
    <path
       id="path164"
       d="m 670,34 h 1 1 l 1,-1 1,-1 v -1 -1 -1 l -1,-1 h -1 v -1 h -1 -1 -1 l -1,1 h -1 v 1 1 1 1 1 h 1 v 1 h 1 1"
       inkscape:connector-curvature="0"
       style="stroke:#000000" />
    <path
       id="path166"
       d="m 639,36 h 1 1 v -1 h 1 v -1 -1 l 1,-1 h -1 v -1 -1 h -1 v -1 h -1 -1 v -1 l -1,1 h -1 l -1,1 -1,1 v 1 1 1 l 1,1 1,1 h 1 z"
       inkscape:connector-curvature="0"
       style="fill:#666666" />
    <path
       id="path168"
       d="m 639,36 h 1 1 v -1 h 1 v -1 -1 l 1,-1 h -1 v -1 -1 h -1 v -1 h -1 -1 v -1 l -1,1 h -1 l -1,1 -1,1 v 1 1 1 l 1,1 1,1 h 1 1"
       inkscape:connector-curvature="0"
       style="stroke:#000000" />
    <path
       id="path170"
       d="m 647,50 h 1 v -1 h 1 l 1,-1 v -1 -1 -1 -1 l -1,-1 h -1 v -1 h -1 -1 l -1,1 h -1 v 1 l -1,1 v 1 1 1 h 1 v 1 h 1 l 1,1 z"
       inkscape:connector-curvature="0"
       style="fill:#666666" />
    <path
       id="path172"
       d="m 647,50 h 1 v -1 h 1 l 1,-1 v -1 -1 -1 -1 l -1,-1 h -1 v -1 h -1 -1 l -1,1 h -1 v 1 l -1,1 v 1 1 1 h 1 v 1 h 1 l 1,1 h 1"
       inkscape:connector-curvature="0"
       style="stroke:#000000" />
    <path
       id="path174"
       d="m 653,144 h -75 1 1 l 2,1 1,1 1,3 1,4 v 6 4 3 l -1,2 v 1 l -1,2 h -1 l -2,1 h -1 74"
       inkscape:connector-curvature="0"
       style="stroke:#000000" />
    <path
       id="path176"
       d="m 577,148 h -21 l -2,-1 -2,-1 h -2 l -2,1 -2,1 -1,1 v 2 l -1,2 v 3 4 5 5 4 5 3 3 l 1,5 2,3 3,2 4,1 3,-1 3,-2 3,-3 1,-5 v -5 -4 -2 l 1,-3 v -1 -1 -1 h 13 l 1,-3 1,-3 v -3 -2 l -1,-3 v -2 l -1,-2 z"
       inkscape:connector-curvature="0"
       style="fill:#b2b2b2" />
    <path
       id="path178"
       d="m 577,148 h -21 l -2,-1 -2,-1 h -2 l -2,1 -2,1 -1,1 v 2 l -1,2 v 3 4 5 5 4 5 3 3 l 1,5 2,3 3,2 4,1 3,-1 3,-2 3,-3 1,-5 v -5 -4 -2 l 1,-3 v -1 -1 -1 h 13 l 1,-3 1,-3 v -3 -2 l -1,-3 v -2 l -1,-2 -1,-2"
       inkscape:connector-curvature="0"
       style="stroke:#000000" />
    <path
       id="path180"
       d="m 544,153 1,-3 1,-2 3,-2 h 2 2 l 3,2 1,2 1,3 v 6 4 5 l -1,3 v 4 4 3 4 4 l -2,3 -2,2 h -2 -2 l -2,-2 -2,-3 -1,-5 v -6 -6 -5 -5 -4 -3 -2 z"
       inkscape:connector-curvature="0"
       style="fill:#e5e5e5" />
    <path
       id="path182"
       d="m 544,153 1,-3 1,-2 3,-2 h 2 2 l 3,2 1,2 1,3 v 6 4 5 l -1,3 v 4 4 3 4 4 l -2,3 -2,2 h -2 -2 l -2,-2 -2,-3 -1,-5 v -6 -6 -5 -5 -4 -3 -2 -1"
       inkscape:connector-curvature="0"
       style="stroke:#000000" />
    <path
       id="path184"
       d="m 564,173 v -3 l 1,-3 v -3 -3 -3 -2 -2 l -1,-1"
       inkscape:connector-curvature="0"
       style="stroke:#000000" />
    <path
       id="path186"
       d="m 578,144 h -1 -1 l -1,1 -2,1 v 1 l -1,1"
       inkscape:connector-curvature="0"
       style="stroke:#000000" />
    <path
       id="path188"
       d="m 577,173 -4,-1 -1,-3 v 1 l 1,1 1,1 h 1 1 1 1"
       inkscape:connector-curvature="0"
       style="stroke:#000000" />
    <path
       id="path190"
       d="m 567,117 h 32 V 96 h -27 v 21 h 2 v 2 h -4 v 2 h 18 v -2 h -4 v -2 h -10"
       inkscape:connector-curvature="0"
       style="stroke:#000000" />
    <path
       id="path192"
       d="m 586,96 v 21"
       inkscape:connector-curvature="0"
       style="stroke:#000000" />
    <path
       id="path194"
       d="m 573,96 v -4 h 12 v 4 h -12"
       inkscape:connector-curvature="0"
       style="stroke:#000000" />
    <path
       id="path196"
       d="m 764,135 v 47 h 202 v -5 H 769 v -42 h -5"
       inkscape:connector-curvature="0"
       style="stroke:#000000" />
    <path
       id="path198"
       d="m 769,183 v 29 1 1 l 1,1 1,2 1,2 2,1 3,2 h 3 9 18 24 26 26 22 15 6 1 l 1,-1 1,-1 2,-1 2,-2 2,-2 1,-3 v -4 -4 -4 -4 -4 -3 -3 -2 -1 h -10 v 23 1 1 2 l -1,1 -1,2 -1,1 h -2 l -3,1 h -5 -7 -6 -7 -5 l -4,-1 h -2 -1 l -1,-1 -1,-1 -1,-1 -1,-1 -1,-2 v -3 -2 -4 -3 -4 -4 -3 -2 -1 h -47 v 22 1 1 l -1,1 v 2 l -1,2 -1,1 -2,1 -1,1 h -3 -4 -6 -6 -6 -6 -3 -1 l -1,-1 h -1 l -1,-1 -2,-1 -2,-1 -1,-1 -1,-2 -1,-2 v -2 -3 -4 -4 -3 -3 -2 -1 z"
       inkscape:connector-curvature="0"
       style="fill:#b2b2b2" />
    <path
       id="path200"
       d="m 769,183 v 29 1 1 l 1,1 1,2 1,2 2,1 3,2 h 3 9 18 24 26 26 22 15 6 1 l 1,-1 1,-1 2,-1 2,-2 2,-2 1,-3 v -4 -4 -4 -4 -4 -3 -3 -2 -1 h -10 v 23 1 1 2 l -1,1 -1,2 -1,1 h -2 l -3,1 h -5 -7 -6 -7 -5 l -4,-1 h -2 -1 l -1,-1 -1,-1 -1,-1 -1,-1 -1,-2 v -3 -2 -4 -3 -4 -4 -3 -2 -1 h -47 v 22 1 1 l -1,1 v 2 l -1,2 -1,1 -2,1 -1,1 h -3 -4 -6 -6 -6 -6 -3 -1 l -1,-1 h -1 l -1,-1 -2,-1 -2,-1 -1,-1 -1,-2 -1,-2 v -2 -3 -4 -4 -3 -3 -2 -1 h -9"
       inkscape:connector-curvature="0"
       style="stroke:#000000" />
    <path
       id="path202"
       d="m 847,197 1,-3 1,-2 3,-1 2,-1 3,1 2,1 2,2 v 3 3 2 2 2 2 1 2 3 3 l -2,2 -2,2 h -3 -2 l -3,-2 -1,-3 -1,-4 v -2 -2 -3 -2 -3 -2 z"
       inkscape:connector-curvature="0"
       style="fill:#b2b2b2" />
    <path
       id="path204"
       d="m 847,197 1,-3 1,-2 3,-1 2,-1 3,1 2,1 2,2 v 3 3 2 2 2 2 1 2 3 3 l -2,2 -2,2 h -3 -2 l -3,-2 -1,-3 -1,-4 v -2 -2 -3 -2 -3 -2 -1"
       inkscape:connector-curvature="0"
       style="stroke:#000000" />
    <path
       id="path206"
       d="m 743,38 h -2 -5 -6 -8 -8 -7 -5 -2 -3 -3 l -3,1 h -2 l -3,1 -2,2 -2,1 -1,2 h -1 l -1,2 -1,2 -3,3 -3,3 -4,2 -6,2 h -6 -4 -3 -4 -3 -3 -3 -3 -3 -3 l -4,1 h -2 l -3,1 -2,1 -2,1 -1,1 h -2 l -1,1 -1,2 -1,2 -1,2 -1,3 -1,2 -1,3 -1,2 v 1 h 1 l 1,-1 3,-2 3,-2 3,-3 4,-2 4,-2 4,-1 5,-1 6,-1 h 6 6 l 4,1 h 4 1 1 l 3,-1 h 4 l 4,-1 6,-1 4,-2 5,-3 3,-3 1,-2 1,-1 2,-2 1,-1 2,-1 1,-1 3,-1 h 2 l 3,-1 h 3 2 2 1 1 l 4,-3 5,-3 4,-1 5,-1 5,-1 h 3 3 z"
       inkscape:connector-curvature="0"
       style="fill:#0d0d0d" />
    <path
       id="path208"
       d="M 741,97 H 610 l -1,-1 -2,-1 -2,-1 -1,-2 -2,-3 v -4 l 1,-4 1,-2 1,-3 1,-2 1,-3 1,-2 1,-2 1,-2 1,-1 h 2 l 1,-1 2,-1 2,-1 3,-1 h 2 l 4,-1 h 3 3 3 3 3 3 4 3 4 6 l 6,-2 4,-2 3,-3 3,-3 1,-2 1,-2 h 1 l 1,-2 2,-1 2,-2 3,-1 h 2 l 3,-1 h 3 3 2 4 7 8 8 7 5 2"
       inkscape:connector-curvature="0"
       style="stroke:#000000" />
    <path
       id="path210"
       d="m 773,136 h 154 1 1 2 l 1,1 1,1 1,1 1,2 v 2 2 3 2 3 2 1 h -1 v -1 l -1,-1 -1,-1 -1,-1 -1,-2 -1,-1 v -1 l -1,-1 -1,-1 h -2 l -1,-1 h -1 -1 -1 -140 -2 -2 -1 l -1,1 -1,1 -1,1 -1,1 -1,2 v 1 l -1,1 v 1 l -1,1 v 1 -1 -1 -2 -3 -3 -2 -3 -2 -1 -1 -1 h 1 1 1 z"
       inkscape:connector-curvature="0"
       style="fill:#0d0d0d" />
    <path
       id="path212"
       d="m 874,148 v 23 l 1,1 1,1 h 1 l 1,1 h 1 3 7 9 10 10 8 6 2"
       inkscape:connector-curvature="0"
       style="stroke:#000000" />
    <path
       id="path214"
       d="m 836,149 v 20 l -1,1 v 1 l -1,1 -1,1 h -1 -1 -4 -7 -10 -11 -11 -10 -6 -3"
       inkscape:connector-curvature="0"
       style="stroke:#000000" />
    <path
       id="path216"
       d="m 935,156 v 21"
       inkscape:connector-curvature="0"
       style="stroke:#000000" />
    <path
       id="path218"
       d="m 817,222 v 37 1 1 l -1,1 -1,1 h -1 -2 -4 -8 -11 -12 -12 -10 -7 -3"
       inkscape:connector-curvature="0"
       style="stroke:#000000" />
    <path
       id="path220"
       d="m 810,222 v 31 1 2 1 l -1,1 -1,1 -1,1 h -2 -3 -4 -5 -5 -5 -5 -3 -1 -1 -1 l -1,-1 h -1 l -1,-2 v -1 -3 -2 -5 -6 -7 -7 -6 -4 -2"
       inkscape:connector-curvature="0"
       style="stroke:#000000" />
    <path
       id="path222"
       d="m 773,232 v -4 l 2,-3 2,-1 2,-1 3,1 2,2 1,2 1,4 v 4 2 2 2 1 1 l -1,2 v 2 3 l -2,2 -2,1 h -2 -2 l -2,-2 -2,-1 v -3 l -1,-2 v -3 -3 -2 -3 -1 l 1,-1 v -1"
       inkscape:connector-curvature="0"
       style="stroke:#000000" />
    <path
       id="path224"
       d="M 798,318 939,296 798,318"
       inkscape:connector-curvature="0"
       style="stroke:#000000" />
    <path
       id="path226"
       d="m 798,318 -16,8"
       inkscape:connector-curvature="0"
       style="stroke:#000000" />
    <path
       id="path228"
       d="m 955,219 2,-1 h 1 l 1,-1 2,-1 v -1 l 1,-1 v -1 l 1,-2 -1,-1 v -2 l -1,-1 v -1 l -2,-1 h -1 l -1,-1 h -2 -1 l -2,1 h -1 l -1,1 -1,1 -1,1 v 2 1 2 1 l 1,1 1,1 1,1 1,1 h 2 l 1,1"
       inkscape:connector-curvature="0"
       style="stroke:#000000" />
    <path
       id="path230"
       d="M 950,206 H 938"
       inkscape:connector-curvature="0"
       style="stroke:#000000" />
    <path
       id="path232"
       d="M 951,217 H 935"
       inkscape:connector-curvature="0"
       style="stroke:#000000" />
    <path
       id="path234"
       d="M 768,194 H 560"
       inkscape:connector-curvature="0"
       style="stroke:#000000" />
    <path
       id="path236"
       d="M 547,194 H 530"
       inkscape:connector-curvature="0"
       style="stroke:#000000" />
    <path
       id="path238"
       d="m 609,215 h 2 l 1,-1 1,-1 h 2 v -2 l 1,-1 1,-1 v -2 -1 l -1,-2 -1,-1 v -1 l -2,-1 -1,-1 h -1 -2 -1 -2 l -1,1 -1,1 -1,1 v 1 l -1,2 v 1 2 l 1,1 v 1 l 1,2 h 1 l 1,1 2,1 h 1"
       inkscape:connector-curvature="0"
       style="stroke:#000000" />
    <path
       id="path240"
       d="m 609,200 h -50 v 14 l 50,1"
       inkscape:connector-curvature="0"
       style="stroke:#000000" />
    <path
       id="path242"
       d="m 669,268 h 19 l 11,-5 h 52"
       inkscape:connector-curvature="0"
       style="stroke:#000000" />
    <path
       id="path244"
       d="m 697,326 v -7"
       inkscape:connector-curvature="0"
       style="stroke:#000000" />
    <path
       id="path246"
       d="m 791,292 v 30"
       inkscape:connector-curvature="0"
       style="stroke:#000000" />
    <path
       id="path248"
       d="M 764,135 H 529"
       inkscape:connector-curvature="0"
       style="stroke:#000000" />
    <path
       id="path250"
       d="M 764,167 H 658 l -3,6 h -80 l -3,-1 v -3 l -7,-1 v 14 h 199"
       inkscape:connector-curvature="0"
       style="stroke:#000000" />
    <path
       id="path252"
       d="m 592,171 h -7 v -1 l 1,-1 v -1 -2 l 1,-2 v -2 -3 l 72,-1 1,2 v 3 2 2 l -1,2 v 1 l -1,1 h -1 z"
       inkscape:connector-curvature="0"
       style="fill:#191919" />
    <path
       id="path254"
       d="m 544,182 h -14 v -12 h 14 z"
       inkscape:connector-curvature="0"
       style="fill:#191919" />
    <path
       id="path256"
       d="m 942,529 -7,-16 -5,-16 -5,-16 -5,-17 -6,-32 -5,-31 -3,-29 -2,-25 -1,-20 v -14 l 26,-5 v 16 l 1,17 1,17 2,17 6,33 6,32 7,27 6,23 5,15 3,7 1,3 v 2 1 l -1,2 v 1 l -1,1 -1,1 z"
       inkscape:connector-curvature="0"
       style="fill:#b2b2b2" />
    <path
       id="path258"
       d="m 929,532 -29,8 -7,-19 -7,-19 -5,-19 -5,-19 -4,-19 -3,-18 -3,-17 -2,-17 -2,-29 -1,-23 -1,-15 v -6 l 30,-4 v 15 l 1,20 2,25 3,29 5,31 7,32 4,16 5,16 6,16 z"
       inkscape:connector-curvature="0"
       style="fill:#b2b2b2" />
    <path
       id="path260"
       d="m 888,542 -28,6 -8,-19 -6,-19 -6,-19 -5,-19 -3,-19 -4,-18 -2,-18 -2,-16 -3,-30 -1,-24 v -15 -5 l 28,-5 v 12 l 1,20 1,25 4,29 4,32 7,34 5,17 5,17 6,17 z"
       inkscape:connector-curvature="0"
       style="fill:#b2b2b2" />
    <path
       id="path262"
       d="m 805,328 v 6 15 l 1,24 3,31 2,17 3,18 3,18 4,20 4,19 6,19 7,20 7,19 8,-4 -8,-18 -6,-19 -5,-19 -5,-19 -4,-19 -3,-19 -3,-17 -2,-17 -2,-30 -1,-24 v -15 -6 z"
       inkscape:connector-curvature="0"
       style="fill:#b2b2b2;fill-rule:nonzero" />
    <path
       id="path264"
       d="m 798,330 v 6 15 l 1,24 3,30 2,17 2,18 3,19 4,19 5,19 6,20 6,19 8,19 130,-32 h 1 l 1,-1 v -2 l 1,-1 v -2 -2 l -1,-3 -3,-7 -5,-15 -6,-23 -6,-27 -7,-32 -5,-33 -2,-17 -2,-17 -1,-17 v -16 l -135,22"
       inkscape:connector-curvature="0"
       style="stroke:#000000" />
    <path
       id="path266"
       d="m 860,548 -8,-19 -6,-19 -6,-19 -5,-19 -4,-19 -3,-18 -2,-18 -2,-17 -3,-29 -1,-24 v -15 -5"
       inkscape:connector-curvature="0"
       style="stroke:#000000" />
    <path
       id="path268"
       d="m 900,538 -7,-18 -7,-19 -5,-19 -5,-19 -4,-19 -3,-18 -3,-17 -2,-16 -2,-29 -1,-23 -1,-15 v -6"
       inkscape:connector-curvature="0"
       style="stroke:#000000" />
    <path
       id="path270"
       d="m 942,529 -8,-19 -6,-18 -6,-19 -4,-19 -4,-18 -3,-18 -3,-18 -2,-16 -2,-28 -1,-23 v -15 -5"
       inkscape:connector-curvature="0"
       style="stroke:#000000" />
    <path
       id="path272"
       d="m 845,552 -8,-19 -6,-19 -6,-19 -4,-19 -4,-19 -3,-19 -3,-18 -2,-17 -2,-30 -2,-24 v -15 -6"
       inkscape:connector-curvature="0"
       style="stroke:#000000" />
    <path
       id="path274"
       d="m 968,115 h 8 v -13 l 32,10 v 3 h 9 v 94 h -9 v 3 l -32,10 v -12 l -9,1 1,-96"
       inkscape:connector-curvature="0"
       style="stroke:#000000" />
    <path
       id="path276"
       d="m 1651,135 v -4 l -2,-3 -2,-3 -3,-2 -4,-2 -3,-1 h -4 l -4,-1 -29,-2 -69,-3 -95,-5 -108,-5 -108,-4 -94,-4 -66,-3 -25,-1 h -1 -2 -3 l -4,2 -3,3 -3,4 -2,6 v 8 11 13 l 1,13 v 14 13 l -1,12 v 10 8 6 l 1,6 2,4 2,3 4,3 4,2 4,1 h 5 28 69 96 110 109 96 67 25 1 l 1,-1 2,-1 2,-1 2,-3 2,-5 2,-5 v -8 l 1,-8 v -11 -13 -12 -12 -10 -6 z"
       inkscape:connector-curvature="0"
       style="fill:#0d0d0d" />
    <path
       id="path278"
       d="m 1035,93 25,1 66,3 94,4 108,5 108,4 95,5 69,3 29,2 4,1 4,1 3,1 4,1 3,2 2,3 2,3 v 4 2 7 9 11 12 12 11 8 l -1,8 -1,5 -2,4 -2,3 -3,2 -2,1 h -1 -26 -67 -95 -109 -110 -96 -69 -29 -4 l -4,-1 -4,-2 -3,-3 -3,-3 -2,-4 -1,-5 v -6 l 1,-8 v -10 -12 -13 -13 -12 -12 l -1,-11 1,-8 2,-6 2,-4 4,-3 3,-1 3,-1 h 2 z"
       inkscape:connector-curvature="0"
       style="fill:#141414" />
    <path
       id="path280"
       d="m 1035,94 25,1 66,3 94,4 108,5 108,5 96,4 68,3 29,2 4,1 4,1 3,1 4,1 2,2 3,3 1,3 1,4 v 2 6 9 11 11 12 10 8 l -1,7 -2,6 -2,4 -2,2 -2,2 -2,1 h -1 l -1,1 -25,-1 h -67 -95 -110 -109 -96 l -70,-1 h -28 -4 l -4,-1 -4,-2 -3,-2 -2,-3 -2,-4 -1,-5 v -6 -8 -10 -11 -12 -12 -13 -11 -10 -8 l 2,-6 3,-4 3,-3 3,-1 3,-1 h 2 z"
       inkscape:connector-curvature="0"
       style="fill:#1c1c1c" />
    <path
       id="path282"
       d="m 1035,96 25,1 66,3 94,4 108,4 108,5 96,4 68,4 29,1 4,1 3,1 4,1 3,1 3,2 2,3 1,3 1,4 v 2 6 8 10 12 11 9 9 l -1,6 -1,5 -2,4 -2,3 -2,1 -2,1 -2,1 h -25 l -68,-1 h -95 -109 l -109,-1 h -97 -69 -28 l -4,-1 -4,-1 -4,-1 -3,-2 -2,-4 -2,-4 -1,-4 v -6 -8 l 1,-9 v -11 -11 -12 -12 -11 l -1,-9 1,-8 2,-6 2,-4 3,-2 3,-1 3,-1 h 2 z"
       inkscape:connector-curvature="0"
       style="fill:#242424" />
    <path
       id="path284"
       d="m 1035,97 25,1 66,3 94,4 108,5 108,4 96,5 68,3 29,2 h 4 l 3,1 4,1 3,1 3,2 2,3 1,3 v 4 2 5 8 10 l 1,11 v 10 l -1,10 v 7 7 l -2,5 -1,4 -3,2 -2,2 -2,1 h -1 -26 -67 l -95,-1 h -109 l -110,-1 h -96 l -69,-1 h -28 -4 l -4,-1 -3,-2 -3,-2 -3,-3 -1,-4 -1,-4 v -6 -7 -9 -10 -11 -12 -11 -10 -10 -7 l 2,-6 2,-3 3,-3 3,-1 3,-1 h 2 z"
       inkscape:connector-curvature="0"
       style="fill:#2b2b2b" />
    <path
       id="path286"
       d="m 1035,99 25,1 66,3 94,4 108,4 108,5 96,4 68,3 29,2 h 4 l 3,1 4,1 3,2 2,1 2,3 1,3 1,3 v 2 6 7 10 10 10 9 8 l -1,6 -1,5 -2,3 -2,2 -2,2 -2,1 h -1 -1 -25 -67 l -95,-1 h -110 l -109,-1 -96,-1 h -69 -28 -4 l -4,-1 -3,-2 -3,-2 -2,-3 -2,-4 -1,-4 v -6 -7 l 1,-8 v -10 -11 -10 -11 l -1,-10 v -9 l 1,-7 1,-5 3,-4 3,-2 3,-2 h 2 2 z"
       inkscape:connector-curvature="0"
       style="fill:#333333" />
    <path
       id="path288"
       d="m 1035,100 25,1 66,3 94,4 108,4 108,5 96,4 68,3 29,2 4,1 3,1 h 4 l 3,2 2,1 2,3 1,3 v 3 2 l 1,5 v 7 9 10 9 9 l -1,8 v 5 l -2,5 -1,3 -3,3 -2,1 -1,1 -2,1 h -26 l -67,-1 -95,-1 -109,-1 h -109 l -96,-1 -69,-1 h -28 -4 l -4,-1 -3,-1 -3,-2 -2,-3 -2,-4 v -4 -5 -7 -9 -9 -10 -10 -10 -10 -8 -7 l 2,-5 2,-4 3,-2 3,-1 2,-1 h 2 z"
       inkscape:connector-curvature="0"
       style="fill:#3b3b3b" />
    <path
       id="path290"
       d="m 1035,102 25,1 66,3 94,3 108,5 108,4 96,4 68,3 29,2 4,1 3,1 4,1 2,1 3,2 1,2 1,3 1,3 v 2 5 6 9 9 9 9 7 l -1,5 -1,5 -2,3 -2,2 -2,2 -2,1 h -1 -1 -25 l -67,-1 -95,-1 -109,-1 -109,-1 -97,-1 h -69 -28 l -3,-1 h -3 l -4,-2 -2,-2 -2,-3 -2,-3 -1,-4 v -5 -7 l 1,-8 v -9 -9 -10 -9 l -1,-9 v -8 l 1,-7 1,-5 3,-3 2,-3 3,-1 h 2 2 z"
       inkscape:connector-curvature="0"
       style="fill:#424242" />
    <path
       id="path292"
       d="m 1035,103 25,1 66,3 94,4 108,4 108,4 96,5 68,3 29,1 4,1 3,1 3,1 3,1 2,2 2,2 1,3 v 3 2 4 7 7 9 9 8 7 5 l -2,4 -1,3 -2,3 -2,1 -2,1 h -1 -1 -25 l -67,-1 -95,-1 -109,-1 -110,-1 -96,-1 -69,-1 h -28 -3 l -3,-1 -3,-1 -3,-2 -2,-3 -2,-3 v -4 l -1,-5 1,-6 v -8 -8 -9 -9 -9 -9 -8 -6 l 2,-5 2,-3 3,-2 2,-1 2,-1 h 2 z"
       inkscape:connector-curvature="0"
       style="fill:#4a4a4a" />
    <path
       id="path294"
       d="m 1035,105 25,1 66,2 94,4 108,4 108,5 96,4 68,3 29,2 h 4 l 3,1 3,1 3,1 2,2 1,2 1,2 1,4 v 1 4 6 8 8 8 8 7 l -1,5 -1,4 -2,3 -2,2 -2,1 -2,1 -1,1 -26,-1 h -67 l -95,-2 -109,-1 -109,-1 -96,-1 -69,-1 h -28 l -3,-1 h -3 l -3,-1 -3,-2 -2,-3 -1,-3 -1,-4 v -5 -6 l 1,-7 v -8 -8 -9 -8 l -1,-9 v -7 l 1,-6 1,-5 2,-3 3,-2 2,-1 h 2 2 z"
       inkscape:connector-curvature="0"
       style="fill:#525252" />
    <path
       id="path296"
       d="m 1035,106 25,1 66,3 94,3 108,5 108,4 96,4 68,3 29,2 h 4 l 3,1 3,1 2,1 2,2 2,2 1,2 v 4 1 4 5 7 8 8 7 7 5 l -2,3 -1,3 -2,2 -2,2 h -2 l -1,1 h -1 -25 l -67,-1 -95,-2 -109,-1 -109,-1 -96,-2 -69,-1 h -28 -3 l -3,-1 -3,-1 -2,-2 -2,-2 -2,-3 -1,-4 v -5 l 1,-6 v -7 -7 -8 -8 -8 -7 -7 -6 l 2,-5 2,-3 2,-2 3,-1 h 2 1 z"
       inkscape:connector-curvature="0"
       style="fill:#595959" />
    <path
       id="path298"
       d="m 1035,108 25,1 66,2 94,4 108,4 108,4 96,4 69,3 28,2 4,1 h 3 l 3,1 2,1 2,2 2,2 v 2 l 1,4 v 1 3 6 6 7 8 7 6 l -1,5 -1,3 -2,3 -2,2 -2,1 -1,1 h -2 -25 l -67,-1 -95,-2 -109,-1 -110,-2 -96,-1 -68,-1 h -29 l -2,-1 h -3 l -3,-1 -2,-2 -2,-2 -1,-3 -1,-4 v -5 -5 -7 l 1,-7 v -7 -7 l -1,-8 v -7 -7 l 1,-6 1,-4 2,-2 2,-2 3,-1 h 2 1 z"
       inkscape:connector-curvature="0"
       style="fill:#616161" />
    <path
       id="path300"
       d="m 1035,109 25,1 66,3 94,3 108,4 108,5 96,3 69,3 28,2 4,1 3,1 h 3 l 2,2 2,1 1,2 1,2 v 3 2 3 5 6 6 7 7 6 4 l -2,4 -1,2 -2,2 -2,1 -2,1 h -1 v 1 l -26,-1 -67,-1 -95,-2 -108,-1 -110,-2 -96,-2 -69,-1 h -28 -2 l -3,-1 -2,-1 -3,-1 -1,-2 -2,-3 -1,-4 v -4 l 1,-6 v -6 -6 -7 -7 -7 -7 -6 -5 l 2,-4 2,-3 2,-2 2,-1 h 2 1 z"
       inkscape:connector-curvature="0"
       style="fill:#696969" />
    <path
       id="path302"
       d="m 1035,111 25,1 66,2 94,4 108,4 108,4 96,4 69,3 28,1 4,1 3,1 3,1 2,1 1,1 2,2 v 2 l 1,3 v 1 3 5 5 6 7 6 6 l -1,4 -1,3 -2,3 -2,2 -2,1 h -1 l -1,1 h -1 l -25,-1 -67,-1 -95,-1 -109,-2 -109,-2 -96,-2 -69,-1 h -28 l -2,-1 h -3 l -2,-1 -2,-2 -2,-2 -1,-2 -1,-4 v -4 -6 -5 l 1,-6 -1,-6 v -7 -6 -6 -6 l 1,-6 1,-3 2,-3 2,-1 2,-1 h 2 1 z"
       inkscape:connector-curvature="0"
       style="fill:#707070" />
    <path
       id="path304"
       d="m 1035,112 25,1 66,2 94,4 108,4 108,4 96,4 69,3 28,2 h 4 l 3,1 3,1 2,1 1,1 1,2 1,2 v 3 1 3 4 5 5 6 6 6 l -1,4 -1,3 -1,2 -2,2 -2,1 -2,1 h -1 -26 l -66,-2 -95,-1 -109,-2 -109,-2 -96,-2 -69,-2 h -28 -2 l -3,-1 -2,-1 -2,-1 -2,-2 -1,-3 -1,-3 v -4 l 1,-5 v -5 -6 -6 -5 -6 -6 -6 -5 l 2,-3 1,-3 2,-1 2,-1 h 2 1 z"
       inkscape:connector-curvature="0"
       style="fill:#787878" />
    <path
       id="path306"
       d="m 1035,113 25,1 66,3 94,3 108,4 108,4 96,4 69,3 28,2 h 4 l 3,1 2,1 2,1 2,1 1,2 v 2 3 1 2 4 4 l 1,6 -1,5 v 6 5 4 l -1,3 -2,2 -2,1 -1,2 h -2 l -1,1 h -1 l -25,-1 -67,-1 -95,-2 -108,-2 -110,-3 -96,-2 -68,-1 -29,-1 h -2 -2 l -2,-1 -2,-1 -1,-2 -2,-3 v -3 -4 -5 -5 -5 -5 -5 -5 -6 -5 l 1,-5 1,-3 2,-2 2,-2 h 1 l 2,-1 h 1 z"
       inkscape:connector-curvature="0"
       style="fill:#7f7f7f" />
    <path
       id="path308"
       d="m 1035,115 25,1 66,2 94,4 108,4 109,4 95,3 69,3 28,2 4,1 h 3 l 2,1 2,1 1,1 1,2 1,2 v 3 3 3 4 5 5 5 5 3 l -2,3 -1,2 -2,2 -2,1 -1,1 h -1 -1 l -25,-1 -67,-1 -95,-2 -109,-3 -109,-2 -96,-2 -68,-2 h -29 -1 l -2,-1 h -2 l -2,-2 -2,-1 -1,-3 -1,-3 v -4 -4 l 1,-5 v -4 -5 -5 -4 -5 -5 -5 l 1,-3 2,-2 2,-1 2,-1 h 1 1 z"
       inkscape:connector-curvature="0"
       style="fill:#878787" />
    <path
       id="path310"
       d="m 1035,116 25,1 66,3 94,3 108,4 109,4 95,4 69,3 28,1 4,1 3,1 h 2 l 2,1 1,1 1,2 v 2 3 2 3 4 4 4 5 5 3 l -1,3 -2,2 -2,1 -1,1 -2,1 h -1 -26 l -67,-2 -94,-2 -109,-3 -109,-2 -96,-2 -69,-2 h -28 l -2,-1 h -1 l -2,-1 -2,-1 -2,-2 -1,-2 v -3 -3 -5 -4 -4 -4 -4 -5 -4 -4 l 1,-5 1,-3 1,-2 2,-1 2,-1 h 1 1 z"
       inkscape:connector-curvature="0"
       style="fill:#8f8f8f" />
    <path
       id="path312"
       d="m 1035,118 25,1 66,2 94,3 108,4 109,4 95,4 69,3 29,1 3,1 3,1 h 2 l 2,1 1,1 v 2 l 1,2 v 2 1 1 3 3 4 4 4 5 l -1,3 -1,2 -1,2 -2,2 -2,1 h -1 l -1,1 h -1 l -25,-1 -67,-2 -95,-2 -108,-3 -109,-2 -96,-3 -69,-1 -28,-1 h -2 l -1,-1 h -2 l -2,-1 -1,-2 -1,-2 -1,-3 v -3 -5 l 1,-3 v -4 -4 -3 -4 -4 -4 -4 l 2,-3 1,-2 1,-1 h 2 1 1 z"
       inkscape:connector-curvature="0"
       style="fill:#969696" />
    <path
       id="path314"
       d="m 1035,119 25,1 66,3 94,3 108,4 109,4 95,3 69,3 29,2 h 3 l 3,1 2,1 1,1 1,1 1,1 v 2 2 1 1 2 3 3 4 4 4 3 l -1,2 -2,2 -1,1 -2,1 h -2 l -1,1 -25,-1 -67,-2 -95,-2 -109,-3 -109,-3 -95,-2 -69,-2 -28,-1 h -2 -1 l -2,-1 -1,-1 -2,-1 -1,-2 v -3 -3 -4 -4 -3 -3 -3 -3 -3 -4 l 1,-4 1,-3 1,-1 2,-1 1,-1 h 1 1 z"
       inkscape:connector-curvature="0"
       style="fill:#9e9e9e" />
    <path
       id="path316"
       d="m 1035,121 25,1 66,2 94,3 108,4 109,4 95,3 69,3 29,2 h 3 l 3,1 2,1 1,1 1,1 v 1 l 1,2 v 2 1 2 2 3 3 4 4 l -1,3 -1,2 -1,1 -2,1 -1,1 -2,1 h -1 -26 l -66,-2 -95,-3 -109,-3 -109,-3 -96,-3 -68,-2 h -28 -2 l -1,-1 h -2 l -1,-1 -1,-1 -2,-2 v -3 -3 -4 -3 l 1,-2 v -3 -2 -3 -3 -3 -4 l 1,-2 2,-2 1,-1 h 1 1 1 z"
       inkscape:connector-curvature="0"
       style="fill:#a6a6a6" />
    <path
       id="path318"
       d="m 1035,122 25,1 66,2 94,4 108,3 109,4 95,4 69,2 29,2 3,1 h 3 l 2,1 1,1 1,1 v 1 2 2 1 1 2 2 3 3 4 2 l -1,2 -2,2 -1,1 -2,1 h -2 -1 v 1 l -25,-1 -67,-2 -95,-3 -108,-3 -109,-3 -96,-3 -69,-2 -28,-1 h -1 -1 -1 l -2,-1 -1,-1 -1,-2 -1,-3 v -3 l 1,-3 v -3 -2 -2 -2 -2 -3 -3 l 1,-3 1,-2 1,-2 h 1 l 2,-1 h 1 z"
       inkscape:connector-curvature="0"
       style="fill:#adadad" />
    <path
       id="path320"
       d="m 1035,124 h 25 l 66,3 94,3 108,4 109,3 95,4 69,3 29,1 3,1 h 3 l 1,1 2,1 v 1 l 1,1 v 2 2 1 1 2 2 4 3 l -1,2 -1,2 -1,1 -2,1 -1,1 h -2 l -1,1 -26,-1 -66,-2 -95,-3 -108,-3 -109,-3 -96,-3 -69,-2 -28,-1 h -1 -1 l -1,-1 h -2 l -1,-2 -1,-1 v -2 -3 -4 -2 l 1,-2 v -2 -1 -1 -2 -3 -3 l 1,-2 1,-1 2,-1 1,-1 h 1 z"
       inkscape:connector-curvature="0"
       style="fill:#b5b5b5" />
    <path
       id="path322"
       d="m 1035,125 25,1 66,2 94,3 108,4 109,4 95,3 69,3 29,1 3,1 2,1 h 2 l 1,1 1,1 v 1 2 1 1 1 1 2 3 4 1 l -1,1 -2,2 -1,1 h -2 l -1,1 h -1 -1 l -25,-1 -67,-2 -94,-3 -109,-3 -109,-4 -95,-3 -69,-2 -28,-1 h -1 -1 -1 l -1,-1 -1,-1 -1,-1 -1,-2 v -3 l 1,-3 v -2 -2 -1 -1 -2 -2 l 1,-3 1,-2 1,-1 1,-1 h 1 1 z"
       inkscape:connector-curvature="0"
       style="fill:#bdbdbd" />
    <path
       id="path324"
       d="m 1035,127 h 25 l 66,3 94,3 108,3 109,4 95,3 69,3 29,2 h 3 l 2,1 h 2 l 1,1 v 1 l 1,1 v 2 1 1 2 2 3 l -1,2 -1,1 -1,1 -2,1 -1,1 h -2 -1 -25 l -67,-3 -94,-3 -109,-3 -109,-4 -96,-3 -68,-2 -28,-1 h -1 -1 -1 l -1,-1 -1,-1 -1,-1 v -2 -3 -3 -2 -1 h 1 v -1 -1 -1 -3 l 1,-2 1,-1 1,-1 h 1 1 z"
       inkscape:connector-curvature="0"
       style="fill:#c4c4c4" />
    <path
       id="path326"
       d="m 1638,156 v -2 -1 -1 -1 h -1 l -2,-1 h -2 l -3,-1 -29,-1 -69,-3 -95,-4 -109,-3 -108,-4 -94,-3 -66,-2 -25,-1 h -1 -1 -1 l -1,1 -1,2 -1,2 v 2 1 l -1,3 v 3 l 1,2 1,1 1,1 h 1 1 l 28,1 69,3 96,3 109,4 108,3 95,4 66,2 26,1 1,-1 h 1 l 2,-1 h 1 l 2,-1 1,-1 v -1 -4 -2 -1 z"
       inkscape:connector-curvature="0"
       style="fill:#cccccc" />
    <path
       id="path328"
       d="m 1651,135 v -4 l -2,-3 -2,-3 -3,-2 -4,-2 -3,-1 h -4 l -4,-1 -29,-2 -69,-3 -95,-5 -108,-5 -108,-4 -94,-4 -66,-3 -25,-1 h -1 -2 -3 l -4,2 -3,3 -3,4 -2,6 v 8 11 13 l 1,13 v 14 13 l -1,12 v 10 8 6 l 1,6 2,4 2,3 4,3 4,2 4,1 h 5 28 69 96 110 109 96 67 25 1 l 1,-1 2,-1 2,-1 2,-3 2,-5 2,-5 v -8 l 1,-8 v -11 -13 -12 -12 -10 -6 l -1,-3"
       inkscape:connector-curvature="0"
       style="stroke:#000000" />
    <path
       id="path330"
       d="m 1019,175 632,15 v -20 l -632,-12"
       inkscape:connector-curvature="0"
       style="stroke:#000000" />
    <path
       id="path332"
       d="M 1051,94 V 234"
       inkscape:connector-curvature="0"
       style="stroke:#000000" />
    <path
       id="path334"
       d="M 1055,94 V 234"
       inkscape:connector-curvature="0"
       style="stroke:#000000" />
    <path
       id="path336"
       d="M 1091,95 V 233"
       inkscape:connector-curvature="0"
       style="stroke:#000000" />
    <path
       id="path338"
       d="M 1095,95 V 233"
       inkscape:connector-curvature="0"
       style="stroke:#000000" />
    <path
       id="path340"
       d="M 1130,96 V 233"
       inkscape:connector-curvature="0"
       style="stroke:#000000" />
    <path
       id="path342"
       d="M 1135,96 V 233"
       inkscape:connector-curvature="0"
       style="stroke:#000000" />
    <path
       id="path344"
       d="M 1170,100 V 234"
       inkscape:connector-curvature="0"
       style="stroke:#000000" />
    <path
       id="path346"
       d="M 1174,100 V 234"
       inkscape:connector-curvature="0"
       style="stroke:#000000" />
    <path
       id="path348"
       d="M 1210,100 V 234"
       inkscape:connector-curvature="0"
       style="stroke:#000000" />
    <path
       id="path350"
       d="M 1214,100 V 234"
       inkscape:connector-curvature="0"
       style="stroke:#000000" />
    <path
       id="path352"
       d="M 1249,102 V 233"
       inkscape:connector-curvature="0"
       style="stroke:#000000" />
    <path
       id="path354"
       d="M 1253,102 V 233"
       inkscape:connector-curvature="0"
       style="stroke:#000000" />
    <path
       id="path356"
       d="M 1289,103 V 234"
       inkscape:connector-curvature="0"
       style="stroke:#000000" />
    <path
       id="path358"
       d="M 1293,103 V 234"
       inkscape:connector-curvature="0"
       style="stroke:#000000" />
    <path
       id="path360"
       d="M 1328,106 V 234"
       inkscape:connector-curvature="0"
       style="stroke:#000000" />
    <path
       id="path362"
       d="M 1333,106 V 234"
       inkscape:connector-curvature="0"
       style="stroke:#000000" />
    <path
       id="path364"
       d="M 1368,107 V 234"
       inkscape:connector-curvature="0"
       style="stroke:#000000" />
    <path
       id="path366"
       d="M 1372,107 V 234"
       inkscape:connector-curvature="0"
       style="stroke:#000000" />
    <path
       id="path368"
       d="M 1408,110 V 233"
       inkscape:connector-curvature="0"
       style="stroke:#000000" />
    <path
       id="path370"
       d="M 1412,110 V 233"
       inkscape:connector-curvature="0"
       style="stroke:#000000" />
    <path
       id="path372"
       d="M 1447,112 V 233"
       inkscape:connector-curvature="0"
       style="stroke:#000000" />
    <path
       id="path374"
       d="M 1452,112 V 233"
       inkscape:connector-curvature="0"
       style="stroke:#000000" />
    <path
       id="path376"
       d="M 1487,113 V 234"
       inkscape:connector-curvature="0"
       style="stroke:#000000" />
    <path
       id="path378"
       d="M 1491,113 V 234"
       inkscape:connector-curvature="0"
       style="stroke:#000000" />
    <path
       id="path380"
       d="M 1527,115 V 233"
       inkscape:connector-curvature="0"
       style="stroke:#000000" />
    <path
       id="path382"
       d="M 1531,115 V 233"
       inkscape:connector-curvature="0"
       style="stroke:#000000" />
    <path
       id="path384"
       d="M 1566,116 V 233"
       inkscape:connector-curvature="0"
       style="stroke:#000000" />
    <path
       id="path386"
       d="M 1570,116 V 233"
       inkscape:connector-curvature="0"
       style="stroke:#000000" />
    <path
       id="path388"
       d="M 1606,119 V 233"
       inkscape:connector-curvature="0"
       style="stroke:#000000" />
    <path
       id="path390"
       d="M 1610,119 V 233"
       inkscape:connector-curvature="0"
       style="stroke:#000000" />
    <path
       id="path392"
       d="m 1653,220 -2,-85 h 1 v -2 -2 l 1,-3 1,-3 2,-4 2,-4 3,-4 5,-5 7,-8 8,-10 9,-11 9,-10 7,-8 5,-6 2,-2 1,-1 4,-2 5,-2 5,-2 h 3 3 l 3,1 2,1 2,2 1,4 1,4 v 5 18 l -1,25 v 28 29 l -1,27 v 23 15 6 h -18 l -2,-7 v -27 l 10,-1 V 83 l -3,-5 h -15 -1 -1 -1 -1 l -2,1 h -2 l -1,1 -2,2 -2,2 -4,5 -5,6 -6,6 -5,6 -5,5 -3,3 -2,2 -1,1 -1,1 -1,2 -1,3 -1,3 -1,4 v 4 7 11 12 13 13 11 8 2 l -5,8 z"
       inkscape:connector-curvature="0"
       style="fill:#666666" />
    <path
       id="path394"
       d="m 1653,220 -2,-85 h 1 v -2 -2 l 1,-3 1,-3 2,-4 2,-4 3,-4 5,-5 7,-8 8,-10 9,-11 9,-10 7,-8 5,-6 2,-2 1,-1 4,-2 5,-2 5,-2 h 3 3 l 3,1 2,1 2,2 1,4 1,4 v 5 18 l -1,25 v 28 29 l -1,27 v 23 15 6 h -18 l -2,-7 v -27 l 10,-1 V 83 l -3,-5 h -15 -1 -1 -1 -1 l -2,1 h -2 l -1,1 -2,2 -2,2 -4,5 -5,6 -6,6 -5,6 -5,5 -3,3 -2,2 -1,1 -1,1 -1,2 -1,3 -1,3 -1,4 v 4 7 11 12 13 13 11 8 2 l -5,8 h -6"
       inkscape:connector-curvature="0"
       style="stroke:#000000" />
    <path
       id="path396"
       d="m 1731,106 h -12 V 88 l -1,-2 v -2 l -2,-2 -2,-1 -3,-1 h -4 l -5,2 1,-1 h 1 l 1,-1 1,-1 3,-1 h 2 3 12 1 1 l 1,1 1,1 1,2 v 2 3 3 4 3 3 2 2 1 z"
       inkscape:connector-curvature="0"
       style="fill:#666666" />
    <path
       id="path398"
       d="m 1731,106 h -12 V 88 l -1,-2 v -2 l -2,-2 -2,-1 -3,-1 h -4 l -5,2 1,-1 h 1 l 1,-1 1,-1 3,-1 h 2 3 12 1 1 l 1,1 1,1 1,2 v 2 3 3 4 3 3 2 2 1 1"
       inkscape:connector-curvature="0"
       style="stroke:#000000" />
    <path
       id="path400"
       d="m 1665,133 v 2 l 1,2 v 1 h 2 l 1,1 h 1 1 1 3 6 l 8,1 h 9 9 8 6 3 1 l 2,-1 1,-1 1,-2 1,-1 1,-2 v -1 -1 37 h -13 v -4 -3 l -1,-2 -1,-1 -2,-1 -1,-1 h -1 -2 -2 -4 -5 -5 -6 -4 -3 -2 -2 l -2,1 -2,1 -1,1 v 2 l -1,1 v 2 1 1 1 1 h -1 -1 -1 -2 -1 -1 z"
       inkscape:connector-curvature="0"
       style="fill:#666666" />
    <path
       id="path402"
       d="m 1665,133 v 2 l 1,2 v 1 h 2 l 1,1 h 1 1 1 3 6 l 8,1 h 9 9 8 6 3 1 l 2,-1 1,-1 1,-2 1,-1 1,-2 v -1 -1 37 h -13 v -4 -3 l -1,-2 -1,-1 -2,-1 -1,-1 h -1 -2 -2 -4 -5 -5 -6 -4 -3 -2 -2 l -2,1 -2,1 -1,1 v 2 l -1,1 v 2 1 1 1 1 h -1 -1 -1 -2 -1 -1 l 1,-35"
       inkscape:connector-curvature="0"
       style="stroke:#000000" />
    <path
       id="path404"
       d="m 1742,207 h 12 1 l 1,1 h 1 l 1,1 1,1 1,1 v 12 l -6,5 -12,-1 z"
       inkscape:connector-curvature="0"
       style="fill:#666666" />
    <path
       id="path406"
       d="m 1742,207 h 12 1 l 1,1 h 1 l 1,1 1,1 1,1 v 12 l -6,5 -12,-1 v -20"
       inkscape:connector-curvature="0"
       style="stroke:#000000" />
    <path
       id="path408"
       d="m 1664,166 66,-1 v 37 l -56,-1 h -1 -2 -1 l -2,1 -1,1 -1,1 -1,2 z"
       inkscape:connector-curvature="0"
       style="fill:#666666" />
    <path
       id="path410"
       d="m 1664,166 66,-1 v 37 l -56,-1 h -1 -2 -1 l -2,1 -1,1 -1,1 -1,2 -1,-40"
       inkscape:connector-curvature="0"
       style="stroke:#000000" />
    <path
       id="path412"
       d="m 1742,156 v 4 l 1,3 1,2 2,2 1,1 2,1 2,1 h 3 12 26 38 l 42,1 h 42 l 37,1 h 26 11 2 l 1,-1 1,-1 1,-1 1,-1 1,-2 1,-1 v -1 h 5 v 49 h -5 v -1 l -1,-2 -1,-1 -1,-2 -1,-1 -2,-1 -2,-1 h -12 -28 -37 l -43,-1 h -42 l -37,-1 h -26 -10 -1 -1 l -2,1 h -2 l -2,1 -1,2 -2,1 v 3 z"
       inkscape:connector-curvature="0"
       style="fill:#666666" />
    <path
       id="path414"
       d="m 1742,156 v 4 l 1,3 1,2 2,2 1,1 2,1 2,1 h 3 12 26 38 l 42,1 h 42 l 37,1 h 26 11 2 l 1,-1 1,-1 1,-1 1,-1 1,-2 1,-1 v -1 h 5 v 49 h -5 v -1 l -1,-2 -1,-1 -1,-2 -1,-1 -2,-1 -2,-1 h -12 -28 -37 l -43,-1 h -42 l -37,-1 h -26 -10 -1 -1 l -2,1 h -2 l -2,1 -1,2 -2,1 v 3 -54"
       inkscape:connector-curvature="0"
       style="stroke:#000000" />
    <path
       id="path416"
       d="m 2010,164 h 7 v 49 h -8 z"
       inkscape:connector-curvature="0"
       style="fill:#666666" />
    <path
       id="path418"
       d="m 2010,164 h 7 v 49 h -8 l 1,-49"
       inkscape:connector-curvature="0"
       style="stroke:#000000" />
    <path
       id="path420"
       d="m 2026,164 v 49 h 6 v -49 z"
       inkscape:connector-curvature="0"
       style="fill:#666666" />
    <path
       id="path422"
       d="m 2026,164 v 49 h 6 v -49 h -6"
       inkscape:connector-curvature="0"
       style="stroke:#000000" />
    <path
       id="path424"
       d="m 2032,164 1,2 v 1 l 1,1 h 1 1 1 l 1,1 h 48 l 3,2 -1,37 -2,2 h -2 -5 l -7,-1 h -9 -9 -8 -6 -3 -1 -1 l -1,1 h -1 v 1 l -1,1 v 1 z"
       inkscape:connector-curvature="0"
       style="fill:#666666" />
    <path
       id="path426"
       d="m 2032,164 1,2 v 1 l 1,1 h 1 1 1 l 1,1 h 48 l 3,2 -1,37 -2,2 h -2 -5 l -7,-1 h -9 -9 -8 -6 -3 -1 -1 l -1,1 h -1 v 1 l -1,1 v 1 -49"
       inkscape:connector-curvature="0"
       style="stroke:#000000" />
    <path
       id="path428"
       d="m 2001,164 1,2 1,1 1,1 2,1 1,-1 h 2 l 1,-2 v -2 l -1,49 v -3 l -1,-1 -1,-1 -2,-1 -1,1 -1,1 -1,2 -1,2 z"
       inkscape:connector-curvature="0"
       style="fill:#666666" />
    <path
       id="path430"
       d="m 2001,164 1,2 1,1 1,1 2,1 1,-1 h 2 l 1,-2 v -2 l -1,49 v -3 l -1,-1 -1,-1 -2,-1 -1,1 -1,1 -1,2 -1,2 v -49"
       inkscape:connector-curvature="0"
       style="stroke:#000000" />
    <path
       id="path432"
       d="m 2017,164 1,2 1,2 1,1 h 2 1 l 2,-1 1,-2 v -2 49 -3 l -1,-1 -2,-2 h -2 -1 l -2,2 -1,1 v 3 z"
       inkscape:connector-curvature="0"
       style="fill:#666666" />
    <path
       id="path434"
       d="m 2017,164 1,2 1,2 1,1 h 2 1 l 2,-1 1,-2 v -2 49 -3 l -1,-1 -2,-2 h -2 -1 l -2,2 -1,1 v 3 -49"
       inkscape:connector-curvature="0"
       style="stroke:#000000" />
    <path
       id="path436"
       d="m 2083,169 -1,40 z"
       inkscape:connector-curvature="0"
       style="fill:#666666" />
    <path
       id="path438"
       d="m 2083,169 -1,40"
       inkscape:connector-curvature="0"
       style="stroke:#000000" />
    <path
       id="path440"
       d="m 2037,192 -1,1 v 1 l -1,1 1,1 h 1 v 1 h 2 l 1,1 h 1 1 l 1,1 h 1 2 3 4 l 4,1 h 5 3 l 3,-1 h 2 1 1 1 l 1,-1 h 1 1 1 l 1,-1 v -1 h 1 v -1 -1 h -1 v -1 h -1 l -1,-1 h -1 -1 l -1,-1 h -1 -1 -1 -2 l -3,-1 h -3 -4 -4 -4 -4 -2 l -1,1 h -1 -1 -1 -1 -1 z"
       inkscape:connector-curvature="0"
       style="fill:#cccccc" />
    <path
       id="path442"
       d="m 2037,192 -1,1 v 1 l -1,1 1,1 h 1 v 1 h 2 l 1,1 h 1 1 l 1,1 h 1 2 3 4 l 4,1 h 5 3 l 3,-1 h 2 1 1 1 l 1,-1 h 1 1 1 l 1,-1 v -1 h 1 v -1 -1 h -1 v -1 h -1 l -1,-1 h -1 -1 l -1,-1 h -1 -1 -1 -2 l -3,-1 h -3 -4 -4 -4 -4 -2 l -1,1 h -1 -1 -1 -1 -1 l -1,1"
       inkscape:connector-curvature="0"
       style="stroke:#000000" />
    <path
       id="path444"
       d="m 2039,191 v 1 h -1 v 1 l 1,1 h 1 l 1,1 h 1 1 1 1 l 1,1 h 1 3 4 4 4 3 3 1 1 1 l 1,-1 h 1 1 1 1 v -1 h 1 v -1 -1 h -1 -1 -1 l -1,-1 h -1 -1 -1 -1 -2 -2 l -3,-1 h -4 -4 -3 -3 -2 l -1,1 h -1 -1 -1 -1 -1 z"
       inkscape:connector-curvature="0"
       style="fill:#000000" />
    <path
       id="path446"
       d="m 2039,191 v 1 h -1 v 1 l 1,1 h 1 l 1,1 h 1 1 1 1 l 1,1 h 1 3 4 4 4 3 3 1 1 1 l 1,-1 h 1 1 1 1 v -1 h 1 v -1 -1 h -1 -1 -1 l -1,-1 h -1 -1 -1 -1 -2 -2 l -3,-1 h -4 -4 -3 -3 -2 l -1,1 h -1 -1 -1 -1 -1 -1"
       inkscape:connector-curvature="0"
       style="stroke:#000000" />
    <path
       id="path448"
       d="m 2037,172 h -1 v 1 1 h 1 1 1 l 1,1 h 1 1 1 1 l 2,1 h 3 4 5 4 4 3 2 l 1,-1 h 1 1 2 1 1 l 1,-1 v -1 h -1 v -1 h -1 -1 -1 -1 -1 -1 -1 -1 l -2,-1 h -2 -4 -4 -4 -4 -3 -3 -1 -1 -1 -1 -1 l -1,1 z"
       inkscape:connector-curvature="0"
       style="fill:#000000" />
    <path
       id="path450"
       d="m 2037,172 h -1 v 1 1 h 1 1 1 l 1,1 h 1 1 1 1 l 2,1 h 3 4 5 4 4 3 2 l 1,-1 h 1 1 2 1 1 l 1,-1 v -1 h -1 v -1 h -1 -1 -1 -1 -1 -1 -1 -1 l -2,-1 h -2 -4 -4 -4 -4 -3 -3 -1 -1 -1 -1 -1 l -1,1 h -1"
       inkscape:connector-curvature="0"
       style="stroke:#000000" />
    <path
       id="path452"
       d="m 1996,164 v 49 z"
       inkscape:connector-curvature="0"
       style="fill:#000000" />
    <path
       id="path454"
       d="m 1996,164 v 49"
       inkscape:connector-curvature="0"
       style="stroke:#000000" />
  </g>
  <metadata
     id="metadata456">
    <rdf:RDF>
      <cc:Work>
        <dc:format>image/svg+xml</dc:format>
        <dc:type
           rdf:resource="http://purl.org/dc/dcmitype/StillImage" />
        <cc:license
           rdf:resource="http://creativecommons.org/publicdomain/zero/1.0/" />
        <dc:publisher>
          <cc:Agent
             rdf:about="http://openclipart.org/">
            <dc:title>Openclipart</dc:title>
          </cc:Agent>
        </dc:publisher>
        <dc:title>M16</dc:title>
        <dc:date>2007-12-09T16:51:28</dc:date>
        <dc:description />
        <dc:source>https://openclipart.org/detail/9642/m16-by-anonymous-9642</dc:source>
        <dc:creator>
          <cc:Agent>
            <dc:title>Anonymous</dc:title>
          </cc:Agent>
        </dc:creator>
        <dc:subject>
          <rdf:Bag>
            <rdf:li>externalsource</rdf:li>
            <rdf:li>gun</rdf:li>
            <rdf:li>rifle</rdf:li>
            <rdf:li>weapon</rdf:li>
          </rdf:Bag>
        </dc:subject>
      </cc:Work>
      <cc:License
         rdf:about="http://creativecommons.org/publicdomain/zero/1.0/">
        <cc:permits
           rdf:resource="http://creativecommons.org/ns#Reproduction" />
        <cc:permits
           rdf:resource="http://creativecommons.org/ns#Distribution" />
        <cc:permits
           rdf:resource="http://creativecommons.org/ns#DerivativeWorks" />
      </cc:License>
    </rdf:RDF>
  </metadata>
</svg>
