<?xml version="1.0" encoding="UTF-8" standalone="no"?>
<!-- Generator: Adobe Illustrator 15.1.0, SVG Export Plug-In . SVG Version: 6.00 Build 0)  -->

<svg
   xmlns:dc="http://purl.org/dc/elements/1.1/"
   xmlns:cc="http://creativecommons.org/ns#"
   xmlns:rdf="http://www.w3.org/1999/02/22-rdf-syntax-ns#"
   xmlns:svg="http://www.w3.org/2000/svg"
   xmlns="http://www.w3.org/2000/svg"
   xmlns:xlink="http://www.w3.org/1999/xlink"
   xmlns:sodipodi="http://sodipodi.sourceforge.net/DTD/sodipodi-0.dtd"
   xmlns:inkscape="http://www.inkscape.org/namespaces/inkscape"
   version="1.1"
   id="flash0.ai"
   x="0px"
   y="0px"
   width="256"
   height="256"
   viewBox="0 0 256 255.99999"
   xml:space="preserve"
   sodipodi:docname="bubble_tea.svg"
   inkscape:version="0.92.4 (5da689c313, 2019-01-14)"
   inkscape:export-filename="C:\Users\antum\Development\game-resources\icon\CC0\food\individual\Glitch\32x32\drink\bubble_tea.png"
   inkscape:export-xdpi="10.5"
   inkscape:export-ydpi="10.5"><title
   id="title1137">Bubble Tea</title><metadata
   id="metadata330"><rdf:RDF><cc:Work
       rdf:about=""><dc:format>image/svg+xml</dc:format><dc:type
         rdf:resource="http://purl.org/dc/dcmitype/StillImage" /><dc:title>Bubble Tea</dc:title><cc:license
         rdf:resource="http://creativecommons.org/publicdomain/zero/1.0/" /><dc:creator><cc:Agent><dc:title>Glitch</dc:title></cc:Agent></dc:creator><dc:source>https://opengameart.org/node/20149</dc:source></cc:Work><cc:License
       rdf:about="http://creativecommons.org/publicdomain/zero/1.0/"><cc:permits
         rdf:resource="http://creativecommons.org/ns#Reproduction" /><cc:permits
         rdf:resource="http://creativecommons.org/ns#Distribution" /><cc:permits
         rdf:resource="http://creativecommons.org/ns#DerivativeWorks" /></cc:License></rdf:RDF></metadata><defs
   id="defs328"><radialGradient
     inkscape:collect="always"
     xlink:href="#SVGID_1_"
     id="radialGradient1027"
     gradientUnits="userSpaceOnUse"
     gradientTransform="matrix(0.5768,-0.8169,-0.8169,-0.5768,-6422.8164,-8461.8633)"
     cx="-3205.2764"
     cy="-10127.838"
     r="4.5293999" /><radialGradient
     inkscape:collect="always"
     xlink:href="#SVGID_2_"
     id="radialGradient1029"
     gradientUnits="userSpaceOnUse"
     gradientTransform="matrix(0.5751,-0.8181,-0.8181,-0.5751,-6461.5947,-8458.9609)"
     cx="-3202.3262"
     cy="-10151.181"
     r="2.5211999" /><radialGradient
     inkscape:collect="always"
     xlink:href="#SVGID_3_"
     id="radialGradient1031"
     gradientUnits="userSpaceOnUse"
     gradientTransform="matrix(0.0074,-1,-0.7818,-0.0058,-12704.717,-142.9619)"
     cx="-37.564499"
     cy="-16262.296"
     r="21.8256" /><radialGradient
     inkscape:collect="always"
     xlink:href="#SVGID_4_"
     id="radialGradient1033"
     gradientUnits="userSpaceOnUse"
     gradientTransform="matrix(0.5762,-0.8173,-0.8173,-0.5762,-6435.9258,-8460.7754)"
     cx="-3204.0508"
     cy="-10135.73"
     r="4.2518001" /><radialGradient
     inkscape:collect="always"
     xlink:href="#SVGID_5_"
     id="radialGradient1035"
     gradientUnits="userSpaceOnUse"
     gradientTransform="matrix(0.5772,-0.8166,-0.8166,-0.5772,-6414.1855,-8462.54)"
     cx="-3206.4258"
     cy="-10122.639"
     r="4.0716" /><linearGradient
     inkscape:collect="always"
     xlink:href="#SVGID_6_"
     id="linearGradient1037"
     gradientUnits="userSpaceOnUse"
     gradientTransform="matrix(5.298014e-5,-1,1,-0.001,16330.568,2.8398)"
     x1="20.5303"
     y1="-16328.356"
     x2="39.4053"
     y2="-16328.356" /><linearGradient
     inkscape:collect="always"
     xlink:href="#SVGID_7_"
     id="linearGradient1039"
     gradientUnits="userSpaceOnUse"
     gradientTransform="matrix(1.201201e-4,-1,1,-0.001,16330.02,2.8398)"
     x1="19.397499"
     y1="-16319.971"
     x2="27.7225"
     y2="-16319.971" /><linearGradient
     inkscape:collect="always"
     xlink:href="#SVGID_8_"
     id="linearGradient1041"
     gradientUnits="userSpaceOnUse"
     x1="-2"
     y1="-14.8442"
     x2="4.5999999"
     y2="-14.8442" /></defs><sodipodi:namedview
   pagecolor="#ffffff"
   bordercolor="#666666"
   borderopacity="1"
   objecttolerance="10"
   gridtolerance="10"
   guidetolerance="10"
   inkscape:pageopacity="0"
   inkscape:pageshadow="2"
   inkscape:window-width="1920"
   inkscape:window-height="1025"
   id="namedview326"
   showgrid="false"
   inkscape:zoom="1.3265278"
   inkscape:cx="94.226282"
   inkscape:cy="44.015462"
   inkscape:window-x="-8"
   inkscape:window-y="-8"
   inkscape:window-maximized="1"
   inkscape:current-layer="flash0.ai"
   fit-margin-top="0"
   fit-margin-left="0"
   fit-margin-right="0"
   fit-margin-bottom="0" />
<symbol
   id="flash0.ai_x5F_2_x2F_Layer_44_copy_x2F__x3C_Compound_Path_x3E__x5F_2"
   viewBox="0 -6.85 6.9 6.85"
   transform="translate(27.379631,87.245525)">
	<g
   id="Layer_1_28_">
		<path
   style="clip-rule:evenodd;fill:#ffffff;fill-rule:evenodd"
   d="m 5.75,-1.1 c -0.633,0.633 -1.4,0.95 -2.3,0.95 -0.9,0 -1.667,-0.317 -2.3,-0.95 -0.667,-0.633 -1,-1.417 -1,-2.35 0,-0.9 0.333,-1.667 1,-2.3 0.633,-0.633 1.4,-0.95 2.3,-0.95 0.9,0 1.667,0.317 2.3,0.95 0.633,0.633 0.95,1.4 0.95,2.3 0,0.933 -0.317,1.717 -0.95,2.35 z M 5.9,-5.85 c -0.7,-0.667 -1.517,-1 -2.45,-1 -0.934,0 -1.75,0.333 -2.45,1 -0.667,0.667 -1,1.467 -1,2.4 0,0.933 0.333,1.75 1,2.45 0.7,0.667 1.517,1 2.45,1 0.967,0 1.783,-0.333 2.45,-1 0.667,-0.7 1,-1.517 1,-2.45 0,-0.933 -0.333,-1.733 -1,-2.4 z"
   id="path2"
   inkscape:connector-curvature="0" />
	</g>
</symbol>
<symbol
   id="flash0.ai_x5F_2_x2F_Layer_44_copy_x2F__x3C_Compound_Path_x3E__x5F_3"
   transform="translate(27.379631,87.245525)">
	<g
   id="Layer_1_24_">
	</g>
</symbol>
<symbol
   id="flash0.ai_x5F_2_x2F_Layer_44_copy_x2F__x3C_Compound_Path_x3E__x5F_4"
   viewBox="0 -5.7 5.75 5.7"
   transform="translate(27.379631,87.245525)">
	<g
   id="Layer_1_20_">
		<path
   style="clip-rule:evenodd;fill:#ffffff;fill-rule:evenodd"
   d="m 2.85,-0.1 c -0.733,0 -1.367,-0.267 -1.9,-0.8 -0.534,-0.533 -0.8,-1.184 -0.8,-1.95 0,-0.766 0.267,-1.4 0.8,-1.9 0.533,-0.533 1.167,-0.8 1.9,-0.8 0.767,0 1.417,0.267 1.95,0.8 0.534,0.533 0.8,1.167 0.8,1.9 0,0.733 -0.267,1.383 -0.8,1.95 -0.533,0.533 -1.183,0.8 -1.95,0.8 z M 4.9,-0.85 c 0.567,-0.533 0.85,-1.2 0.85,-2 0,-0.767 -0.283,-1.433 -0.85,-2 C 4.333,-5.417 3.65,-5.7 2.85,-5.7 c -0.767,0 -1.434,0.284 -2,0.85 -0.567,0.567 -0.85,1.233 -0.85,2 0,0.8 0.283,1.467 0.85,2 0.567,0.567 1.233,0.85 2,0.85 0.8,0 1.483,-0.283 2.05,-0.85 z"
   id="path8"
   inkscape:connector-curvature="0" />
	</g>
</symbol>
<symbol
   id="flash0.ai_x5F_2_x2F_Layer_44_copy_x2F__x3C_Compound_Path_x3E__x5F_5"
   viewBox="0 -6.45 6.45 6.45"
   transform="translate(27.379631,87.245525)">
	<g
   id="Layer_1_17_">
		<path
   style="clip-rule:evenodd;fill:#ffffff;fill-rule:evenodd"
   d="m 5.4,-1.05 c -0.6,0.6 -1.333,0.9 -2.2,0.9 -0.833,0 -1.55,-0.3 -2.15,-0.9 -0.6,-0.6 -0.9,-1.317 -0.9,-2.15 0,-0.867 0.3,-1.6 0.9,-2.2 0.6,-0.6 1.317,-0.9 2.15,-0.9 0.867,0 1.6,0.3 2.2,0.9 0.6,0.6 0.9,1.333 0.9,2.2 0,0.833 -0.3,1.55 -0.9,2.15 z M 5.5,-5.5 C 4.867,-6.133 4.1,-6.45 3.2,-6.45 2.333,-6.45 1.583,-6.133 0.95,-5.5 0.317,-4.867 0,-4.1 0,-3.2 0,-2.333 0.317,-1.583 0.95,-0.95 1.583,-0.317 2.333,0 3.2,0 4.1,0 4.867,-0.317 5.5,-0.95 6.133,-1.583 6.45,-2.333 6.45,-3.2 6.45,-4.1 6.133,-4.867 5.5,-5.5 Z"
   id="path12"
   inkscape:connector-curvature="0" />
	</g>
</symbol>
<symbol
   id="flash0.ai_x5F_2_x2F_Layer_44_copy_x2F__x3C_Compound_Path_x3E__x5F_6"
   viewBox="0 -6.2 6.2 6.2"
   transform="translate(27.379631,87.245525)">
	<g
   id="Layer_1_13_">
		<path
   style="clip-rule:evenodd;fill:#ffffff;fill-rule:evenodd"
   d="M 5.2,-1 C 4.6,-0.433 3.9,-0.15 3.1,-0.15 2.267,-0.15 1.567,-0.433 1,-1 0.433,-1.567 0.15,-2.267 0.15,-3.1 c 0,-0.8 0.283,-1.5 0.85,-2.1 0.567,-0.566 1.267,-0.85 2.1,-0.85 0.8,0 1.5,0.283 2.1,0.85 0.566,0.6 0.85,1.3 0.85,2.1 0,0.833 -0.283,1.533 -0.85,2.1 z M 5.3,-5.3 C 4.7,-5.9 3.967,-6.2 3.1,-6.2 2.267,-6.2 1.533,-5.9 0.9,-5.3 0.3,-4.7 0,-3.967 0,-3.1 0,-2.267 0.3,-1.533 0.9,-0.9 1.533,-0.3 2.267,0 3.1,0 3.967,0 4.7,-0.3 5.3,-0.9 5.9,-1.533 6.2,-2.267 6.2,-3.1 6.2,-3.967 5.9,-4.7 5.3,-5.3 Z"
   id="path16"
   inkscape:connector-curvature="0" />
	</g>
</symbol>
<symbol
   id="flash0.ai_x5F_2_x2F_Layer_44_copy_x2F__x3C_Path_x3E_"
   transform="translate(27.379631,87.245525)">
	<g
   id="Layer_1_10_">
	</g>
</symbol>
<symbol
   id="flash0.ai_x5F_2_x2F_Layer_44_copy_x2F__x3C_Path_x3E__x5F_1"
   transform="translate(27.379631,87.245525)">
	<g
   id="Layer_1_9_">
	</g>
</symbol>
<symbol
   id="flash0.ai_x5F_2_x2F_Layer_44_copy_x2F__x3C_Path_x3E__x5F_10"
   viewBox="0 -6.75 6.7 6.75"
   transform="translate(27.379631,87.245525)">
	<g
   id="Layer_1_27_">
		
			<radialGradient
   id="SVGID_1_"
   cx="-3205.2764"
   cy="-10127.838"
   r="4.5293999"
   gradientTransform="matrix(0.5768,-0.8169,-0.8169,-0.5768,-6422.8164,-8461.8633)"
   gradientUnits="userSpaceOnUse">
			<stop
   offset="0"
   style="stop-color:#EDF5FF"
   id="stop24" />
			<stop
   offset="0.6275"
   style="stop-color:#7D90A6"
   id="stop26" />
			<stop
   offset="1"
   style="stop-color:#3F5875"
   id="stop28" />
		</radialGradient>
		<path
   style="clip-rule:evenodd;fill:url(#radialGradient1027);fill-rule:evenodd"
   d="m 6.7,-3.4 c 0,-0.934 -0.333,-1.717 -1,-2.35 -0.633,-0.667 -1.417,-1 -2.35,-1 -0.934,0 -1.717,0.333 -2.35,1 -0.667,0.633 -1,1.417 -1,2.35 0,0.933 0.333,1.733 1,2.4 0.633,0.667 1.417,1 2.35,1 0.933,0 1.717,-0.333 2.35,-1 0.667,-0.667 1,-1.467 1,-2.4 z"
   id="path31"
   inkscape:connector-curvature="0" />
	</g>
</symbol>
<symbol
   id="flash0.ai_x5F_2_x2F_Layer_44_copy_x2F__x3C_Path_x3E__x5F_11"
   viewBox="0 -6.75 6.7 6.75"
   transform="translate(27.379631,87.245525)">
	<g
   id="Layer_1_26_">
		<path
   style="clip-rule:evenodd;fill:#ffffff;fill-rule:evenodd"
   d="m 6.7,-3.4 c 0,-0.934 -0.333,-1.717 -1,-2.35 -0.633,-0.667 -1.417,-1 -2.35,-1 -0.934,0 -1.717,0.333 -2.35,1 -0.667,0.633 -1,1.417 -1,2.35 0,0.933 0.333,1.733 1,2.4 0.633,0.667 1.417,1 2.35,1 0.933,0 1.717,-0.333 2.35,-1 0.667,-0.667 1,-1.467 1,-2.4 z"
   id="path35"
   inkscape:connector-curvature="0" />
	</g>
</symbol>
<symbol
   id="flash0.ai_x5F_2_x2F_Layer_44_copy_x2F__x3C_Path_x3E__x5F_12"
   viewBox="0 -1.862 2.977 1.862"
   transform="translate(27.379631,87.245525)">
	<g
   id="Layer_1_25_">
		<path
   style="clip-rule:evenodd;fill:#ffffff;fill-rule:evenodd"
   d="M 0,-1.35 C 0.433,-1.717 1.033,-1.767 1.8,-1.5 2.5,-1.233 2.883,-0.733 2.95,0 3.083,-0.767 2.717,-1.333 1.85,-1.7 1.217,-2 0.6,-1.883 0,-1.35 Z"
   id="path39"
   inkscape:connector-curvature="0" />
	</g>
</symbol>
<symbol
   id="flash0.ai_x5F_2_x2F_Layer_44_copy_x2F__x3C_Path_x3E__x5F_15"
   viewBox="0 -3.75 3.75 3.75"
   transform="translate(27.379631,87.245525)">
	<g
   id="Layer_1_23_">
		
			<radialGradient
   id="SVGID_2_"
   cx="-3202.3262"
   cy="-10151.181"
   r="2.5211999"
   gradientTransform="matrix(0.5751,-0.8181,-0.8181,-0.5751,-6461.5947,-8458.9609)"
   gradientUnits="userSpaceOnUse">
			<stop
   offset="0"
   style="stop-color:#EDF5FF"
   id="stop43" />
			<stop
   offset="0.0824"
   style="stop-color:#D9E5F3"
   id="stop45" />
			<stop
   offset="0.7216"
   style="stop-color:#3E6899"
   id="stop47" />
			<stop
   offset="1"
   style="stop-color:#003675"
   id="stop49" />
		</radialGradient>
		<path
   style="clip-rule:evenodd;fill:url(#radialGradient1029);fill-rule:evenodd"
   d="M 3.75,-1.9 C 3.75,-2.4 3.567,-2.834 3.2,-3.2 2.833,-3.566 2.4,-3.75 1.9,-3.75 1.367,-3.75 0.917,-3.567 0.55,-3.2 0.183,-2.833 0,-2.4 0,-1.9 0,-1.367 0.183,-0.917 0.55,-0.55 0.917,-0.183 1.367,0 1.9,0 2.4,0 2.834,-0.183 3.2,-0.55 3.566,-0.917 3.75,-1.367 3.75,-1.9 Z"
   id="path52"
   inkscape:connector-curvature="0" />
	</g>
</symbol>
<symbol
   id="flash0.ai_x5F_2_x2F_Layer_44_copy_x2F__x3C_Path_x3E__x5F_16"
   viewBox="0 -3.75 3.75 3.75"
   transform="translate(27.379631,87.245525)">
	<g
   id="Layer_1_22_">
		<path
   style="clip-rule:evenodd;fill:#ffffff;fill-rule:evenodd"
   d="M 3.75,-1.9 C 3.75,-2.4 3.567,-2.834 3.2,-3.2 2.833,-3.566 2.4,-3.75 1.9,-3.75 1.367,-3.75 0.917,-3.567 0.55,-3.2 0.183,-2.833 0,-2.4 0,-1.9 0,-1.367 0.183,-0.917 0.55,-0.55 0.917,-0.183 1.367,0 1.9,0 2.4,0 2.834,-0.183 3.2,-0.55 3.566,-0.917 3.75,-1.367 3.75,-1.9 Z"
   id="path56"
   inkscape:connector-curvature="0" />
	</g>
</symbol>
<symbol
   id="flash0.ai_x5F_2_x2F_Layer_44_copy_x2F__x3C_Path_x3E__x5F_17"
   viewBox="0.175 -2.751 4.258 2.751"
   transform="translate(27.379631,87.245525)">
	<g
   id="Layer_1_21_">
		<path
   style="clip-rule:evenodd;fill:#ffffff;fill-rule:evenodd"
   d="M 0.175,-2.1 C 0.791,-2.563 1.632,-2.597 2.7,-2.2 3.733,-1.833 4.3,-1.1 4.4,0 4.467,-0.3 4.433,-0.617 4.3,-0.95 4.067,-1.65 3.55,-2.183 2.75,-2.55 1.875,-2.925 1.016,-2.775 0.175,-2.1 Z"
   id="path60"
   inkscape:connector-curvature="0" />
	</g>
</symbol>
<symbol
   id="flash0.ai_x5F_2_x2F_Layer_44_copy_x2F__x3C_Path_x3E__x5F_2"
   viewBox="-0.007 -34.2 21.536 34.2"
   transform="translate(27.379631,87.245525)">
	<g
   id="Layer_1_8_">
		
			<radialGradient
   id="SVGID_3_"
   cx="-37.564499"
   cy="-16262.296"
   r="21.8256"
   gradientTransform="matrix(0.0074,-1,-0.7818,-0.0058,-12704.717,-142.9619)"
   gradientUnits="userSpaceOnUse">
			<stop
   offset="0"
   style="stop-color:#EBE0C3"
   id="stop64" />
			<stop
   offset="1"
   style="stop-color:#B09F6F"
   id="stop66" />
		</radialGradient>
		<path
   style="clip-rule:evenodd;fill:url(#radialGradient1031);fill-rule:evenodd"
   d="m 20.45,-0.8 c 0.433,0.233 0.75,0.5 0.95,0.8 0.2,-3.3 0.167,-6.583 -0.1,-9.85 -0.5,-5.467 -1.667,-9.65 -3.5,-12.55 -1.733,-2.7 -2.883,-5.317 -3.45,-7.85 -0.267,-1.267 -0.367,-2.25 -0.3,-2.95 l -0.4,-0.5 c -0.533,-0.333 -1.467,-0.5 -2.8,-0.5 h -0.1 c -1.333,0 -2.267,0.167 -2.8,0.5 l -0.4,0.5 c 0.067,0.7 -0.033,1.684 -0.3,2.95 -0.533,2.533 -1.667,5.15 -3.4,7.85 -3,4.667 -4.25,11.983 -3.75,21.95 l 0.05,-0.1 c 0.033,-0.567 0.3,-1.133 0.8,-1.7 0.5,-0.533 1.083,-0.883 1.75,-1.05 4.3,-1.067 8.217,-1.2 11.75,-0.4 2.567,0.6 4.567,1.567 6,2.9 z"
   id="path69"
   inkscape:connector-curvature="0" />
	</g>
</symbol>
<symbol
   id="flash0.ai_x5F_2_x2F_Layer_44_copy_x2F__x3C_Path_x3E__x5F_21"
   viewBox="0 -5.55 5.55 5.55"
   transform="translate(27.379631,87.245525)">
	<g
   id="Layer_1_19_">
		<path
   style="clip-rule:evenodd;fill:#ffffff;fill-rule:evenodd"
   d="m 5.55,-2.8 c 0,-0.767 -0.267,-1.417 -0.8,-1.95 -0.567,-0.533 -1.233,-0.8 -2,-0.8 -0.733,0 -1.383,0.267 -1.95,0.8 C 0.267,-4.217 0,-3.567 0,-2.8 c 0,0.767 0.267,1.433 0.8,2 0.533,0.533 1.183,0.8 1.95,0.8 0.767,0 1.433,-0.267 2,-0.8 0.533,-0.567 0.8,-1.233 0.8,-2 z"
   id="path73"
   inkscape:connector-curvature="0" />
	</g>
</symbol>
<symbol
   id="flash0.ai_x5F_2_x2F_Layer_44_copy_x2F__x3C_Path_x3E__x5F_22"
   viewBox="0.225 -3.063 4.758 3.063"
   transform="translate(27.379631,87.245525)">
	<g
   id="Layer_1_18_">
		<path
   style="clip-rule:evenodd;fill:#ffffff;fill-rule:evenodd"
   d="M 0.225,-2.375 C 0.938,-2.878 1.88,-2.92 3.05,-2.5 c 0.733,0.267 1.267,0.767 1.6,1.5 0.167,0.367 0.267,0.7 0.3,1 0.066,-0.333 0.033,-0.7 -0.1,-1.1 -0.233,-0.8 -0.8,-1.383 -1.7,-1.75 -0.7,-0.3 -1.433,-0.283 -2.2,0.05 -0.267,0.121 -0.509,0.263 -0.725,0.425 z"
   id="path77"
   inkscape:connector-curvature="0" />
	</g>
</symbol>
<symbol
   id="flash0.ai_x5F_2_x2F_Layer_44_copy_x2F__x3C_Path_x3E__x5F_25"
   viewBox="0 -6.3 6.3 6.3"
   transform="translate(27.379631,87.245525)">
	<g
   id="Layer_1_16_">
		
			<radialGradient
   id="SVGID_4_"
   cx="-3204.0508"
   cy="-10135.73"
   r="4.2518001"
   gradientTransform="matrix(0.5762,-0.8173,-0.8173,-0.5762,-6435.9258,-8460.7754)"
   gradientUnits="userSpaceOnUse">
			<stop
   offset="0"
   style="stop-color:#99DAFF"
   id="stop81" />
			<stop
   offset="0.3608"
   style="stop-color:#77B6E7"
   id="stop83" />
			<stop
   offset="1"
   style="stop-color:#3D78BF"
   id="stop85" />
		</radialGradient>
		<path
   style="clip-rule:evenodd;fill:url(#radialGradient1033);fill-rule:evenodd"
   d="M 6.3,-3.15 C 6.3,-4.017 6,-4.767 5.4,-5.4 4.767,-6 4.017,-6.3 3.15,-6.3 2.283,-6.3 1.55,-6 0.95,-5.4 0.317,-4.767 0,-4.017 0,-3.15 0,-2.283 0.317,-1.533 0.95,-0.9 1.55,-0.3 2.283,0 3.15,0 4.017,0 4.767,-0.3 5.4,-0.9 6,-1.533 6.3,-2.283 6.3,-3.15 Z"
   id="path88"
   inkscape:connector-curvature="0" />
	</g>
</symbol>
<symbol
   id="flash0.ai_x5F_2_x2F_Layer_44_copy_x2F__x3C_Path_x3E__x5F_26"
   viewBox="0 -6.3 6.3 6.3"
   transform="translate(27.379631,87.245525)">
	<g
   id="Layer_1_15_">
		<path
   style="clip-rule:evenodd;fill:#ffffff;fill-rule:evenodd"
   d="M 6.3,-3.15 C 6.3,-4.017 6,-4.767 5.4,-5.4 4.767,-6 4.017,-6.3 3.15,-6.3 2.283,-6.3 1.55,-6 0.95,-5.4 0.317,-4.767 0,-4.017 0,-3.15 0,-2.283 0.317,-1.533 0.95,-0.9 1.55,-0.3 2.283,0 3.15,0 4.017,0 4.767,-0.3 5.4,-0.9 6,-1.533 6.3,-2.283 6.3,-3.15 Z"
   id="path92"
   inkscape:connector-curvature="0" />
	</g>
</symbol>
<symbol
   id="flash0.ai_x5F_2_x2F_Layer_44_copy_x2F__x3C_Path_x3E__x5F_27"
   viewBox="0 -2.928 4.783 2.928"
   transform="translate(27.379631,87.245525)">
	<g
   id="Layer_1_14_">
		<path
   style="clip-rule:evenodd;fill:#ffffff;fill-rule:evenodd"
   d="M 0,-2.1 C 0.7,-2.733 1.683,-2.833 2.95,-2.4 4.05,-2 4.65,-1.2 4.75,0 4.817,-0.3 4.783,-0.65 4.65,-1.05 4.417,-1.817 3.867,-2.383 3,-2.75 2.367,-3.017 1.667,-2.983 0.9,-2.65 0.533,-2.517 0.233,-2.333 0,-2.1 Z"
   id="path96"
   inkscape:connector-curvature="0" />
	</g>
</symbol>
<symbol
   id="flash0.ai_x5F_2_x2F_Layer_44_copy_x2F__x3C_Path_x3E__x5F_30"
   viewBox="0 -6.05 6.05 6.05"
   transform="translate(27.379631,87.245525)">
	<g
   id="Layer_1_12_">
		
			<radialGradient
   id="SVGID_5_"
   cx="-3206.4258"
   cy="-10122.639"
   r="4.0716"
   gradientTransform="matrix(0.5772,-0.8166,-0.8166,-0.5772,-6414.1855,-8462.54)"
   gradientUnits="userSpaceOnUse">
			<stop
   offset="0"
   style="stop-color:#EDF5FF"
   id="stop100" />
			<stop
   offset="0.6275"
   style="stop-color:#7D90A6"
   id="stop102" />
			<stop
   offset="1"
   style="stop-color:#3F5875"
   id="stop104" />
		</radialGradient>
		<path
   style="clip-rule:evenodd;fill:url(#radialGradient1035);fill-rule:evenodd"
   d="m 6.05,-3.05 c 0,-0.833 -0.3,-1.534 -0.9,-2.1 -0.566,-0.6 -1.267,-0.9 -2.1,-0.9 -0.833,0 -1.55,0.3 -2.15,0.9 C 0.3,-4.583 0,-3.883 0,-3.05 0,-2.217 0.3,-1.5 0.9,-0.9 1.5,-0.3 2.217,0 3.05,0 c 0.833,0 1.534,-0.3 2.1,-0.9 0.6,-0.6 0.9,-1.317 0.9,-2.15 z"
   id="path107"
   inkscape:connector-curvature="0" />
	</g>
</symbol>
<symbol
   id="flash0.ai_x5F_2_x2F_Layer_44_copy_x2F__x3C_Path_x3E__x5F_31"
   viewBox="0 -6.05 6.05 6.05"
   transform="translate(27.379631,87.245525)">
	<g
   id="Layer_1_11_">
		<path
   style="clip-rule:evenodd;fill:#ffffff;fill-rule:evenodd"
   d="m 6.05,-3.05 c 0,-0.833 -0.3,-1.534 -0.9,-2.1 -0.566,-0.6 -1.267,-0.9 -2.1,-0.9 -0.833,0 -1.55,0.3 -2.15,0.9 C 0.3,-4.583 0,-3.883 0,-3.05 0,-2.217 0.3,-1.5 0.9,-0.9 1.5,-0.3 2.217,0 3.05,0 c 0.833,0 1.534,-0.3 2.1,-0.9 0.6,-0.6 0.9,-1.317 0.9,-2.15 z"
   id="path111"
   inkscape:connector-curvature="0" />
	</g>
</symbol>
<symbol
   id="flash0.ai_x5F_2_x2F_Layer_44_copy_x2F__x3C_Path_x3E__x5F_4"
   viewBox="-0.178 -25.71 4.778 25.71"
   transform="translate(27.379631,87.245525)">
	<g
   id="Layer_1_31_">
		
			<linearGradient
   id="SVGID_6_"
   gradientUnits="userSpaceOnUse"
   x1="20.5303"
   y1="-16328.356"
   x2="39.4053"
   y2="-16328.356"
   gradientTransform="matrix(5.298014e-5,-1,1,-0.001,16330.568,2.8398)">
			<stop
   offset="0"
   style="stop-color:#FFFFFF"
   id="stop115" />
			<stop
   offset="1"
   style="stop-color:#000000"
   id="stop117" />
		</linearGradient>
		<path
   style="clip-rule:evenodd;fill:url(#linearGradient1037);fill-rule:evenodd"
   d="M 2.05,-0.5 4.3,0 4.55,-6.35 c 0.1,-2.066 0.05,-4.3 -0.15,-6.7 -0.233,-3.1 -0.683,-5.617 -1.35,-7.55 -0.667,-2 -1.466,-3.5 -2.4,-4.5 -1.033,-1.066 -1.1,-0.733 -0.2,1 1.233,2.333 1.85,5.083 1.85,8.25 z"
   id="path120"
   inkscape:connector-curvature="0" />
	</g>
</symbol>
<symbol
   id="flash0.ai_x5F_2_x2F_Layer_44_copy_x2F__x3C_Path_x3E__x5F_40"
   viewBox="0 -5.75 22.4 5.75"
   transform="translate(27.379631,87.245525)">
	<g
   id="Layer_1_7_">
		<path
   style="clip-rule:evenodd;fill:#ffffff;fill-rule:evenodd"
   d="m 22.4,-2.85 c 0,-0.8 -1.083,-1.483 -3.25,-2.05 -2.2,-0.567 -4.85,-0.85 -7.95,-0.85 -3.067,0 -5.7,0.283 -7.9,0.85 -2.2,0.567 -3.3,1.25 -3.3,2.05 0,0.767 1.1,1.434 3.3,2 2.2,0.567 4.833,0.85 7.9,0.85 3.1,0 5.75,-0.283 7.95,-0.85 2.167,-0.567 3.25,-1.233 3.25,-2 z"
   id="path124"
   inkscape:connector-curvature="0" />
	</g>
</symbol>
<symbol
   id="flash0.ai_x5F_2_x2F_Layer_44_copy_x2F__x3C_Path_x3E__x5F_41"
   viewBox="-0.013 -41.1 22.742 41.1"
   transform="translate(27.379631,87.245525)">
	<g
   id="Layer_1_6_">
		<path
   style="clip-rule:evenodd;fill:#ffffff;fill-rule:evenodd"
   d="m 22.5,0 c 0.267,-3.6 0.3,-7.517 0.1,-11.75 -0.367,-8.5 -1.65,-14.35 -3.85,-17.55 -1.833,-2.7 -3.033,-5.317 -3.6,-7.85 -0.3,-1.267 -0.417,-2.25 -0.35,-2.95 l -0.4,-0.5 c -0.566,-0.333 -1.566,-0.5 -3,-0.5 h -0.1 c -1.4,0 -2.383,0.167 -2.95,0.5 l -0.45,0.5 c 0.067,0.7 -0.033,1.684 -0.3,2.95 -0.6,2.533 -1.817,5.15 -3.65,7.85 -2.067,3 -3.317,8.333 -3.75,16 -0.267,4.033 -0.283,8.333 -0.05,12.9 0.2,-0.767 1.367,-1.4 3.5,-1.9 2.167,-0.534 4.717,-0.8 7.65,-0.8 3.1,0 5.75,0.283 7.95,0.85 2.167,0.567 3.25,1.25 3.25,2.05 L 22.45,0 Z"
   id="path128"
   inkscape:connector-curvature="0" />
	</g>
</symbol>
<symbol
   id="flash0.ai_x5F_2_x2F_Layer_44_copy_x2F__x3C_Path_x3E__x5F_42"
   viewBox="0 -7.7 20.1 7.7"
   transform="translate(27.379631,87.245525)">
	<g
   id="Layer_1_5_">
		<path
   style="clip-rule:evenodd;fill:#e3e3e3;fill-rule:evenodd"
   d="M 18.65,-2.75 C 19.383,-3.317 19.867,-3.733 20.1,-4 19.867,-4.333 19.433,-4.733 18.8,-5.2 17.567,-6.067 15.967,-6.766 14,-7.3 13.4,-7.467 12.683,-7.584 11.85,-7.65 V -7.7 H 8.2 v 0.05 C 7.367,-7.583 6.667,-7.467 6.1,-7.3 4.133,-6.767 2.517,-6.067 1.25,-5.2 0.65,-4.733 0.233,-4.333 0,-4 0.2,-3.733 0.667,-3.317 1.4,-2.75 1.967,-2.35 3.783,-1.433 6.85,0 6.083,-0.467 5.2,-1.117 4.2,-1.95 3.8,-2.283 3.567,-2.6 3.5,-2.9 3.467,-3.233 3.6,-3.65 3.9,-4.15 c 0.6,-0.833 1.233,-1.4 1.9,-1.7 0.667,-0.3 1.784,-0.517 3.35,-0.65 1.533,-0.167 3.15,-0.017 4.85,0.45 1.667,0.433 2.883,1.033 3.65,1.8 0.567,0.6 0.567,1.3 0,2.1 z"
   id="path132"
   inkscape:connector-curvature="0" />
	</g>
</symbol>
<symbol
   id="flash0.ai_x5F_2_x2F_Layer_44_copy_x2F__x3C_Path_x3E__x5F_43"
   viewBox="0 -8.5 20.1 8.5"
   transform="translate(27.379631,87.245525)">
	<g
   id="Layer_1_4_">
		
			<linearGradient
   id="SVGID_7_"
   gradientUnits="userSpaceOnUse"
   x1="19.397499"
   y1="-16319.971"
   x2="27.7225"
   y2="-16319.971"
   gradientTransform="matrix(1.201201e-4,-1,1,-0.001,16330.02,2.8398)">
			<stop
   offset="0"
   style="stop-color:#7A7A7A"
   id="stop136" />
			<stop
   offset="1"
   style="stop-color:#FFFFFF"
   id="stop138" />
		</linearGradient>
		<path
   style="clip-rule:evenodd;fill:url(#linearGradient1039);fill-rule:evenodd"
   d="M 18.65,-3.55 C 19.383,-4.117 19.867,-4.533 20.1,-4.8 19.867,-5.133 19.433,-5.533 18.8,-6 17.567,-6.867 15.967,-7.567 14,-8.1 13.4,-8.267 12.683,-8.383 11.85,-8.45 V -8.5 H 8.2 v 0.05 C 7.367,-8.383 6.667,-8.267 6.1,-8.1 4.133,-7.567 2.517,-6.867 1.25,-6 0.65,-5.533 0.233,-5.133 0,-4.8 c 0.2,0.267 0.667,0.683 1.4,1.25 0.733,0.566 2.75,1.566 6.05,3 L 10.1,0 l 2.55,-0.55 2.6,-1.2 c 1.8,-0.833 2.933,-1.433 3.4,-1.8 z"
   id="path141"
   inkscape:connector-curvature="0" />
	</g>
</symbol>
<symbol
   id="flash0.ai_x5F_2_x2F_Layer_44_copy_x2F__x3C_Path_x3E__x5F_44"
   viewBox="0 -4.361 20.05 4.361"
   transform="translate(27.379631,87.245525)">
	<g
   id="Layer_1_3_">
		<path
   style="clip-rule:evenodd;fill:#ffffff;fill-rule:evenodd"
   d="m 14,-3.25 c 2.967,0.767 4.983,1.85 6.05,3.25 v -0.35 c -0.133,-0.333 -0.4,-0.667 -0.8,-1 -2.033,-1.867 -5,-2.867 -8.9,-3 -2.867,-0.1 -5.45,0.5 -7.75,1.8 -1.133,0.633 -2,1.283 -2.6,1.95 V 0 C 1.1,-1.4 3.133,-2.483 6.1,-3.25 6.667,-3.417 7.367,-3.533 8.2,-3.6 v -0.05 h 3.65 v 0.05 c 0.833,0.067 1.55,0.183 2.15,0.35 z"
   id="path145"
   inkscape:connector-curvature="0" />
	</g>
</symbol>
<symbol
   id="flash0.ai_x5F_2_x2F_Layer_44_copy_x2F__x3C_Path_x3E__x5F_45"
   viewBox="0.011 -4.9 20.278 4.9"
   transform="translate(27.379631,87.245525)">
	<g
   id="Layer_1_2_">
		<path
   style="clip-rule:evenodd;fill:#5e473c;fill-rule:evenodd"
   d="M 20.2,-1.2 C 19.967,-1.533 19.533,-1.933 18.9,-2.4 17.667,-3.267 16.067,-3.967 14.1,-4.5 13.2,-4.7 12.483,-4.817 11.95,-4.85 V -4.9 H 8.3 v 0.05 c -0.567,0.033 -1.267,0.15 -2.1,0.35 -1.967,0.533 -3.583,1.233 -4.85,2.1 -0.6,0.467 -1.017,0.867 -1.25,1.2 -0.133,0.467 -0.117,0.85 0.05,1.15 1.2,-1.367 3.217,-2.434 6.05,-3.2 0.567,-0.167 1.267,-0.283 2.1,-0.35 v -0.05 h 3.65 v 0.05 c 0.833,0.067 1.55,0.184 2.15,0.35 2.867,0.767 4.883,1.85 6.05,3.25 0.167,-0.267 0.183,-0.667 0.05,-1.2 z"
   id="path149"
   inkscape:connector-curvature="0" />
	</g>
</symbol>
<symbol
   id="flash0.ai_x5F_2_x2F_Layer_44_copy_x2F__x3C_Path_x3E__x5F_5"
   viewBox="0 -29.688 7.525 29.688"
   transform="translate(27.379631,87.245525)">
	<g
   id="Layer_1_30_">
		<linearGradient
   id="SVGID_8_"
   gradientUnits="userSpaceOnUse"
   x1="-2"
   y1="-14.8442"
   x2="4.5999999"
   y2="-14.8442">
			<stop
   offset="0"
   style="stop-color:#FFFFFF"
   id="stop153" />
			<stop
   offset="1"
   style="stop-color:#000000"
   id="stop155" />
		</linearGradient>
		<path
   style="clip-rule:evenodd;fill:url(#linearGradient1041);fill-rule:evenodd"
   d="m 0.1,0 4.4,-1.5 c 1.733,-10.667 2.733,-18.583 3,-23.75 0.133,-3.233 -0.267,-4.7 -1.2,-4.4 l -1.45,1.4 -1,1.5 c -0.633,0.967 -1.283,2.433 -1.95,4.4 -0.8,2.5 -1.316,5.033 -1.55,7.6 -0.2,2.5 -0.317,5.583 -0.35,9.25 0,3.067 0.033,4.9 0.1,5.5 z"
   id="path158"
   inkscape:connector-curvature="0" />
	</g>
</symbol>
<symbol
   id="flash0.ai_x5F_2_x2F_Layer_44_copy_x2F__x3C_Path_x3E__x5F_7"
   viewBox="0 -3.263 5.283 3.263"
   transform="translate(27.379631,87.245525)">
	<g
   id="Layer_1_29_">
		<path
   style="clip-rule:evenodd;fill:#ffffff;fill-rule:evenodd"
   d="m 0,-2.35 c 0.2,-0.167 0.483,-0.317 0.85,-0.45 0.733,-0.2 1.533,-0.15 2.4,0.15 0.767,0.267 1.333,0.783 1.7,1.55 0.167,0.4 0.267,0.767 0.3,1.1 C 5.317,-0.333 5.283,-0.717 5.15,-1.15 4.883,-2.017 4.267,-2.65 3.3,-3.05 2.6,-3.35 1.833,-3.333 1,-3 0.6,-2.8 0.267,-2.583 0,-2.35 Z"
   id="path162"
   inkscape:connector-curvature="0" />
	</g>
</symbol>
<g
   id="g323"
   transform="matrix(5.7864286,0,0,5.7864286,0.88107419,-107.82284)">
	
		<use
   xlink:href="#flash0.ai_x5F_2_x2F_Layer_44_copy_x2F__x3C_Path_x3E__x5F_45"
   width="20.278"
   height="4.9000001"
   x="0.011"
   y="-4.9000001"
   transform="matrix(0.75,0,0,-0.75,-6.384823,124.63434)"
   style="overflow:visible;opacity:0.37890003;enable-background:new"
   id="use166" />
	
		<use
   xlink:href="#flash0.ai_x5F_2_x2F_Layer_44_copy_x2F__x3C_Path_x3E__x5F_44"
   width="20.049999"
   height="4.3610001"
   y="-4.3610001"
   transform="matrix(0.75,0,0,-0.75,-6.284723,124.63434)"
   style="overflow:visible;opacity:0.48830004;enable-background:new"
   id="use168"
   x="0" />
	
		<use
   xlink:href="#flash0.ai_x5F_2_x2F_Layer_44_copy_x2F__x3C_Path_x3E__x5F_43"
   width="20.1"
   height="8.5"
   y="-8.5"
   transform="matrix(0.75,0,0,-0.75,-6.284723,120.98394)"
   style="overflow:visible;opacity:0.37890003;enable-background:new"
   id="use170"
   x="0" />
	
		<use
   xlink:href="#flash0.ai_x5F_2_x2F_Layer_44_copy_x2F__x3C_Path_x3E__x5F_42"
   width="20.1"
   height="7.6999998"
   y="-7.6999998"
   transform="matrix(0.75,0,0,-0.75,-6.284723,121.58454)"
   style="overflow:visible;opacity:0.23049999;enable-background:new"
   id="use172"
   x="0" />
	
		<use
   xlink:href="#flash0.ai_x5F_2_x2F_Layer_44_copy_x2F__x3C_Path_x3E__x5F_41"
   width="22.742001"
   height="41.099998"
   x="-0.013"
   y="-41.099998"
   transform="matrix(0.75,0,0,-0.75,-7.084523,93.384344)"
   style="overflow:visible;opacity:0.28130002;enable-background:new"
   id="use174" />
	
		<use
   xlink:href="#flash0.ai_x5F_2_x2F_Layer_44_copy_x2F__x3C_Path_x3E__x5F_40"
   width="22.4"
   height="5.75"
   y="-5.75"
   transform="matrix(0.75,0,0,-0.75,-7.034723,91.384344)"
   style="overflow:visible;opacity:0.33980001;enable-background:new"
   id="use176"
   x="0" />
	<path
   style="clip-rule:evenodd;fill:#dbabff;fill-rule:evenodd"
   d="m 29.875,32.862 c 0.025,0.4 -0.25,0.851 -0.825,1.351 -0.6,0.55 -1.449,1.062 -2.55,1.537 -1.225,0.5 -2.949,0.763 -5.175,0.787 -2.15,0.025 -3.9,-0.175 -5.25,-0.6 -1.425,-0.45 -2.138,-1.275 -2.138,-2.475 0,-0.101 0.038,-0.188 0.112,-0.263 -0.1,0.475 0.038,0.949 0.413,1.425 0.4,0.5 0.887,0.825 1.462,0.975 3.9,0.95 7.338,0.9 10.313,-0.149 2.25,-0.825 3.463,-1.687 3.638,-2.588 z"
   id="path178"
   inkscape:connector-curvature="0" />
	<path
   style="clip-rule:evenodd;fill:#fffbce;fill-rule:evenodd"
   d="m 29.875,32.862 c 0.025,0.4 -0.25,0.851 -0.825,1.351 -0.6,0.55 -1.449,1.062 -2.55,1.537 -1.225,0.5 -2.949,0.763 -5.175,0.787 -2.15,0.025 -3.9,-0.175 -5.25,-0.6 -1.425,-0.45 -2.138,-1.275 -2.138,-2.475 0,-0.101 0.038,-0.188 0.112,-0.263 -0.1,0.475 0.038,0.949 0.413,1.425 0.4,0.5 0.887,0.825 1.462,0.975 3.9,0.95 7.338,0.9 10.313,-0.149 2.25,-0.825 3.463,-1.687 3.638,-2.588 z"
   id="path180"
   inkscape:connector-curvature="0" />
	<g
   id="g188">
		
			<use
   xlink:href="#flash0.ai_x5F_2_x2F_Layer_44_copy_x2F__x3C_Path_x3E__x5F_2"
   width="21.535999"
   height="34.200001"
   x="-0.0070000002"
   y="-34.200001"
   transform="matrix(0.75,0,0,-0.75,-6.634823,98.584544)"
   style="overflow:visible;opacity:0.75;enable-background:new"
   id="use182" />
		
			<use
   xlink:href="#flash0.ai_x5F_2_x2F_Layer_44_copy_x2F__x3C_Path_x3E__x5F_1"
   width="-32766"
   height="-32766"
   x="16383"
   y="16383"
   transform="matrix(0.75,0,0,-0.75,9.365677,98.134344)"
   style="overflow:visible;opacity:0.75;enable-background:new"
   id="use184" />
		
			<use
   xlink:href="#flash0.ai_x5F_2_x2F_Layer_44_copy_x2F__x3C_Path_x3E_"
   width="-32766"
   height="-32766"
   x="16383"
   y="16383"
   transform="matrix(0.75,0,0,-0.75,9.314877,98.033744)"
   style="overflow:visible;opacity:0.75;enable-background:new"
   id="use186" />
	</g>
	
		<linearGradient
   id="SVGID_9_"
   gradientUnits="userSpaceOnUse"
   x1="-19.5249"
   y1="-21.1152"
   x2="4.7768002"
   y2="-21.1152"
   gradientTransform="matrix(-0.7445,0.0903,-0.0903,-0.7445,13.4498,18.6503)">
		<stop
   offset="0"
   style="stop-color:#EBE0C3"
   id="stop190" />
		<stop
   offset="1"
   style="stop-color:#B09F6F"
   id="stop192" />
	</linearGradient>
	<path
   style="clip-rule:evenodd;fill:url(#SVGID_9_);fill-rule:evenodd"
   d="m 15.925,35.6 c -0.725,-0.199 -1.274,-0.625 -1.649,-1.274 -0.4,-0.675 -0.375,-1.237 0.075,-1.688 0.8,-0.775 2.287,-1.238 4.462,-1.388 0.675,-0.05 1.726,-0.188 3.15,-0.413 1.375,-0.15 2.612,-0.163 3.712,-0.038 2.775,0.4 4.188,1.063 4.238,1.987 0.024,0.851 -1.138,1.713 -3.488,2.588 C 23.4,36.5 19.9,36.575 15.925,35.6 Z"
   id="path195"
   inkscape:connector-curvature="0" />
	<path
   style="clip-rule:evenodd;fill:#e3e3e3;fill-rule:evenodd"
   d="m 16.563,58.138 c 0,0.425 0.063,0.763 0.188,1.013 0.125,0.249 0.375,0.55 0.75,0.899 0.475,0.475 0.738,0.775 0.788,0.9 0.024,0.175 -0.313,0.162 -1.013,-0.038 -0.7,-0.175 -1.3,-0.438 -1.8,-0.787 -0.425,-0.3 -0.7,-0.563 -0.825,-0.787 -0.1,-0.2 0.2,-0.514 0.899,-0.938 0.676,-0.425 1.013,-0.513 1.013,-0.262 z"
   id="path197"
   inkscape:connector-curvature="0" />
	<path
   style="clip-rule:evenodd;fill:#e3e3e3;fill-rule:evenodd"
   d="m 25.112,60.838 c 1,-0.101 1.351,-0.025 1.051,0.225 -0.275,0.275 -0.75,0.463 -1.426,0.563 -0.524,0.075 -0.662,-0.025 -0.412,-0.3 0.225,-0.301 0.488,-0.464 0.787,-0.488 z"
   id="path199"
   inkscape:connector-curvature="0" />
	<path
   style="clip-rule:evenodd;fill:#ccb891;fill-rule:evenodd"
   d="m 25.825,31.925 c 0.5,0 0.65,0.125 0.45,0.375 -0.2,0.275 -0.45,0.388 -0.75,0.338 -0.25,-0.025 -0.325,-0.15 -0.226,-0.375 0.101,-0.226 0.276,-0.338 0.526,-0.338 z"
   id="path201"
   inkscape:connector-curvature="0" />
	<path
   style="clip-rule:evenodd;fill:#ccb891;fill-rule:evenodd"
   d="m 28.675,32.638 c 0.75,-0.025 1.001,0.112 0.75,0.412 -0.2,0.3 -0.475,0.476 -0.824,0.525 -0.226,0.05 -0.325,-0.088 -0.301,-0.413 0.051,-0.325 0.175,-0.5 0.375,-0.524 z"
   id="path203"
   inkscape:connector-curvature="0" />
	<path
   style="clip-rule:evenodd;fill:#ccb891;fill-rule:evenodd"
   d="m 24.588,32.938 c 0.475,-0.175 0.725,-0.101 0.75,0.225 0.024,0.325 -0.15,0.488 -0.525,0.488 -0.324,0 -0.487,-0.113 -0.487,-0.338 -0.001,-0.201 0.087,-0.326 0.262,-0.375 z"
   id="path205"
   inkscape:connector-curvature="0" />
	
		<use
   xlink:href="#flash0.ai_x5F_2_x2F_Layer_44_copy_x2F__x3C_Path_x3E__x5F_31"
   width="6.0500002"
   height="6.0500002"
   y="-6.0500002"
   transform="matrix(0.75,0,0,-0.75,-0.93462301,118.28374)"
   style="overflow:visible;opacity:0.39059999;enable-background:new"
   id="use207"
   x="0" />
	
		<use
   xlink:href="#flash0.ai_x5F_2_x2F_Layer_44_copy_x2F__x3C_Path_x3E__x5F_30"
   width="6.0500002"
   height="6.0500002"
   y="-6.0500002"
   transform="matrix(0.75,0,0,-0.75,-0.93462301,118.28374)"
   style="overflow:visible;opacity:0.35160002;enable-background:new"
   id="use209"
   x="0" />
	
		<use
   xlink:href="#flash0.ai_x5F_2_x2F_Layer_44_copy_x2F__x3C_Compound_Path_x3E__x5F_6"
   width="6.1999998"
   height="6.1999998"
   y="-6.1999998"
   transform="matrix(0.75,0,0,-0.75,-0.98492301,118.23394)"
   style="overflow:visible;opacity:0.67189995;enable-background:new"
   id="use211"
   x="0" />
	<path
   style="clip-rule:evenodd;fill:#ffffff;fill-rule:evenodd"
   d="m 20.838,53.675 c 0.375,0 0.438,0.188 0.188,0.563 -0.3,0.4 -0.513,0.538 -0.638,0.413 -0.125,-0.126 -0.125,-0.313 0,-0.563 0.125,-0.275 0.275,-0.413 0.45,-0.413 z"
   id="path213"
   inkscape:connector-curvature="0" />
	<path
   style="clip-rule:evenodd;fill:#ffffff;fill-rule:evenodd"
   d="m 20.237,54.95 c 0.1,0.024 0.138,0.1 0.113,0.225 -0.025,0.125 -0.075,0.163 -0.15,0.112 -0.075,-0.025 -0.1,-0.1 -0.075,-0.225 0.025,-0.099 0.063,-0.137 0.112,-0.112 z"
   id="path215"
   inkscape:connector-curvature="0" />
	
		<use
   xlink:href="#flash0.ai_x5F_2_x2F_Layer_44_copy_x2F__x3C_Path_x3E__x5F_27"
   width="4.783"
   height="2.928"
   y="-2.928"
   transform="matrix(0.75,0,0,-0.75,-0.23492301,120.38434)"
   style="overflow:visible;opacity:0.21880002;enable-background:new"
   id="use217"
   x="0" />
	
		<use
   xlink:href="#flash0.ai_x5F_2_x2F_Layer_44_copy_x2F__x3C_Path_x3E__x5F_26"
   width="6.3000002"
   height="6.3000002"
   y="-6.3000002"
   transform="matrix(0.75,0,0,-0.75,2.215277,111.28374)"
   style="overflow:visible;opacity:0.39059999;enable-background:new"
   id="use219"
   x="0" />
	
		<use
   xlink:href="#flash0.ai_x5F_2_x2F_Layer_44_copy_x2F__x3C_Path_x3E__x5F_25"
   width="6.3000002"
   height="6.3000002"
   y="-6.3000002"
   transform="matrix(0.75,0,0,-0.75,2.215277,111.28374)"
   style="overflow:visible;opacity:0.67970001;enable-background:new"
   id="use221"
   x="0" />
	
		<use
   xlink:href="#flash0.ai_x5F_2_x2F_Layer_44_copy_x2F__x3C_Compound_Path_x3E__x5F_5"
   width="6.4499998"
   height="6.4499998"
   y="-6.4499998"
   transform="matrix(0.75,0,0,-0.75,2.165477,111.23394)"
   style="overflow:visible;opacity:0.67189995;enable-background:new"
   id="use223"
   x="0" />
	<path
   style="clip-rule:evenodd;fill:#ffffff;fill-rule:evenodd"
   d="m 24.025,46.7 c 0.399,-0.025 0.463,0.162 0.188,0.563 -0.3,0.425 -0.513,0.575 -0.638,0.45 -0.125,-0.126 -0.125,-0.326 0,-0.601 0.125,-0.275 0.276,-0.412 0.45,-0.412 z"
   id="path225"
   inkscape:connector-curvature="0" />
	<path
   style="clip-rule:evenodd;fill:#ffffff;fill-rule:evenodd"
   d="m 23.425,48.013 c 0.101,0.024 0.138,0.1 0.113,0.225 -0.025,0.15 -0.075,0.2 -0.15,0.15 -0.075,-0.051 -0.1,-0.125 -0.075,-0.226 0.025,-0.125 0.062,-0.175 0.112,-0.149 z"
   id="path227"
   inkscape:connector-curvature="0" />
	
		<use
   xlink:href="#flash0.ai_x5F_2_x2F_Layer_44_copy_x2F__x3C_Path_x3E__x5F_22"
   width="4.7579999"
   height="3.063"
   x="0.22499999"
   y="-3.063"
   transform="matrix(0.75,0,0,-0.75,2.965277,113.43414)"
   style="overflow:visible;opacity:0.21880002;enable-background:new"
   id="use229" />
	
		<use
   xlink:href="#flash0.ai_x5F_2_x2F_Layer_44_copy_x2F__x3C_Path_x3E__x5F_21"
   width="5.5500002"
   height="5.5500002"
   y="-5.5500002"
   transform="matrix(0.75,0,0,-0.75,-1.934623,111.53374)"
   style="overflow:visible;opacity:0.39059999;enable-background:new"
   id="use231"
   x="0" />
	
		<radialGradient
   id="SVGID_10_"
   cx="35.9277"
   cy="15.1846"
   r="3.7665"
   gradientTransform="matrix(0.4331,0.6123,0.6123,-0.4331,-5.1455,31.8021)"
   gradientUnits="userSpaceOnUse">
		<stop
   offset="0"
   style="stop-color:#CC9B64"
   id="stop233" />
		<stop
   offset="1"
   style="stop-color:#9E6E44"
   id="stop235" />
	</radialGradient>
	<path
   style="clip-rule:evenodd;fill:url(#SVGID_10_);fill-rule:evenodd"
   d="m 22.788,48.2 c 0,0.575 -0.2,1.062 -0.601,1.462 -0.425,0.4 -0.925,0.601 -1.5,0.601 -0.55,0 -1.037,-0.2 -1.462,-0.601 -0.4,-0.4 -0.601,-0.887 -0.601,-1.462 0,-0.575 0.2,-1.075 0.601,-1.5 0.399,-0.4 0.887,-0.601 1.462,-0.601 0.575,0 1.075,0.2 1.5,0.601 0.401,0.425 0.601,0.925 0.601,1.5 z"
   id="path238"
   inkscape:connector-curvature="0" />
	
		<use
   xlink:href="#flash0.ai_x5F_2_x2F_Layer_44_copy_x2F__x3C_Compound_Path_x3E__x5F_4"
   width="5.75"
   height="5.6999998"
   y="-5.6999998"
   transform="matrix(0.75,0,0,-0.75,-1.984923,111.48394)"
   style="overflow:visible;opacity:0.67189995;enable-background:new"
   id="use240"
   x="0" />
	<path
   style="clip-rule:evenodd;fill:#ffb778;fill-rule:evenodd"
   d="m 19.75,46.85 c 0.35,-0.025 0.4,0.138 0.15,0.488 -0.25,0.375 -0.438,0.512 -0.563,0.412 -0.1,-0.1 -0.1,-0.275 0,-0.525 0.101,-0.25 0.238,-0.375 0.413,-0.375 z"
   id="path242"
   inkscape:connector-curvature="0" />
	<path
   style="clip-rule:evenodd;fill:#ffb778;fill-rule:evenodd"
   d="m 19.226,48.013 c 0.1,0.024 0.125,0.1 0.074,0.225 -0.024,0.125 -0.074,0.163 -0.149,0.112 -0.05,-0.05 -0.075,-0.125 -0.075,-0.225 0.024,-0.1 0.074,-0.138 0.15,-0.112 z"
   id="path244"
   inkscape:connector-curvature="0" />
	
		<use
   xlink:href="#flash0.ai_x5F_2_x2F_Layer_44_copy_x2F__x3C_Path_x3E__x5F_17"
   width="4.2579999"
   height="2.7509999"
   x="0.175"
   y="-2.7509999"
   transform="matrix(0.75,0,0,-0.75,-1.284723,113.43414)"
   style="overflow:visible;opacity:0.21880002;enable-background:new"
   id="use246" />
	
		<use
   xlink:href="#flash0.ai_x5F_2_x2F_Layer_44_copy_x2F__x3C_Path_x3E__x5F_16"
   width="3.75"
   height="3.75"
   y="-3.75"
   transform="matrix(0.75,0,0,-0.75,-2.384823,115.63434)"
   style="overflow:visible;opacity:0.39059999;enable-background:new"
   id="use248"
   x="0" />
	
		<use
   xlink:href="#flash0.ai_x5F_2_x2F_Layer_44_copy_x2F__x3C_Path_x3E__x5F_15"
   width="3.75"
   height="3.75"
   y="-3.75"
   transform="matrix(0.75,0,0,-0.75,-2.384823,115.63434)"
   style="overflow:visible;opacity:0.35160002;enable-background:new"
   id="use250"
   x="0" />
	
		<use
   xlink:href="#flash0.ai_x5F_2_x2F_Layer_44_copy_x2F__x3C_Compound_Path_x3E__x5F_3"
   width="-32766"
   height="-32766"
   x="16383"
   y="16383"
   transform="matrix(0.75,0,0,-0.75,-2.384823,115.58454)"
   style="overflow:visible;opacity:0.67189995;enable-background:new"
   id="use252" />
	<path
   style="clip-rule:evenodd;fill:#ffffff;fill-rule:evenodd"
   d="m 18.925,50.675 c 0.25,0 0.288,0.125 0.113,0.375 -0.175,0.25 -0.301,0.338 -0.375,0.263 -0.05,-0.075 -0.05,-0.2 0,-0.375 0.074,-0.151 0.162,-0.238 0.262,-0.263 z"
   id="path254"
   inkscape:connector-curvature="0" />
	<path
   style="clip-rule:evenodd;fill:#ffffff;fill-rule:evenodd"
   d="m 18.588,51.463 c 0.05,0.024 0.062,0.074 0.037,0.149 0,0.1 -0.025,0.125 -0.075,0.075 -0.024,-0.025 -0.037,-0.063 -0.037,-0.112 0.025,-0.075 0.05,-0.112 0.075,-0.112 z"
   id="path256"
   inkscape:connector-curvature="0" />
	
		<use
   xlink:href="#flash0.ai_x5F_2_x2F_Layer_44_copy_x2F__x3C_Path_x3E__x5F_12"
   width="2.977"
   height="1.862"
   y="-1.862"
   transform="matrix(0.75,0,0,-0.75,-1.934623,116.88434)"
   style="overflow:visible;opacity:0.21880002;enable-background:new"
   id="use258"
   x="0" />
	
		<use
   xlink:href="#flash0.ai_x5F_2_x2F_Layer_44_copy_x2F__x3C_Path_x3E__x5F_11"
   width="6.6999998"
   height="6.75"
   y="-6.75"
   transform="matrix(0.75,0,0,-0.75,0.06537699,113.93414)"
   style="overflow:visible;opacity:0.39059999;enable-background:new"
   id="use260"
   x="0" />
	
		<use
   xlink:href="#flash0.ai_x5F_2_x2F_Layer_44_copy_x2F__x3C_Path_x3E__x5F_10"
   width="6.6999998"
   height="6.75"
   y="-6.75"
   transform="matrix(0.75,0,0,-0.75,0.06537699,113.93414)"
   style="overflow:visible;opacity:0.35160002;enable-background:new"
   id="use262"
   x="0" />
	
		<use
   xlink:href="#flash0.ai_x5F_2_x2F_Layer_44_copy_x2F__x3C_Compound_Path_x3E__x5F_2"
   width="6.9000001"
   height="6.8499999"
   y="-6.8499999"
   transform="matrix(0.75,0,0,-0.75,0.01507699,113.88434)"
   style="overflow:visible;opacity:0.67189995;enable-background:new"
   id="use264"
   x="0" />
	<path
   style="clip-rule:evenodd;fill:#ffffff;fill-rule:evenodd"
   d="m 21.963,49.4 c 0.425,0 0.487,0.212 0.188,0.637 -0.325,0.45 -0.55,0.601 -0.675,0.45 -0.126,-0.125 -0.126,-0.325 0,-0.6 0.099,-0.299 0.261,-0.462 0.487,-0.487 z"
   id="path266"
   inkscape:connector-curvature="0" />
	<path
   style="clip-rule:evenodd;fill:#ffffff;fill-rule:evenodd"
   d="m 21.325,50.825 c 0.1,0.024 0.138,0.112 0.112,0.263 -0.05,0.125 -0.112,0.162 -0.188,0.112 -0.075,-0.025 -0.1,-0.101 -0.075,-0.226 C 21.2,50.85 21.25,50.8 21.325,50.825 Z"
   id="path268"
   inkscape:connector-curvature="0" />
	
		<use
   xlink:href="#flash0.ai_x5F_2_x2F_Layer_44_copy_x2F__x3C_Path_x3E__x5F_7"
   width="5.283"
   height="3.263"
   y="-3.263"
   transform="matrix(0.75,0,0,-0.75,0.86567699,116.28374)"
   style="overflow:visible;opacity:0.21880002;enable-background:new"
   id="use270"
   x="0" />
	
		<linearGradient
   id="SVGID_11_"
   gradientUnits="userSpaceOnUse"
   x1="1.3486"
   y1="19.3076"
   x2="5.6289001"
   y2="19.3076"
   gradientTransform="matrix(0.7359,-0.1446,0.1446,0.7359,13.4502,18.6498)">
		<stop
   offset="0"
   style="stop-color:#BF9199"
   id="stop272" />
		<stop
   offset="0.3647"
   style="stop-color:#CC99AE"
   id="stop274" />
		<stop
   offset="1"
   style="stop-color:#D18E9B"
   id="stop276" />
	</linearGradient>
	<path
   style="clip-rule:evenodd;fill:url(#SVGID_11_);fill-rule:evenodd"
   d="m 17.65,35.075 -1.388,-5.325 1.425,0.3 c 0.725,0.125 1.488,0.2 2.288,0.225 l 0.149,0.9 c 0.1,0.5 0.25,1.638 0.45,3.413 0,0.375 -0.388,0.625 -1.162,0.75 -0.774,0.149 -1.362,0.062 -1.762,-0.263 z"
   id="path279"
   inkscape:connector-curvature="0" />
	
		<use
   xlink:href="#flash0.ai_x5F_2_x2F_Layer_44_copy_x2F__x3C_Path_x3E__x5F_5"
   width="7.5250001"
   height="29.688"
   y="-29.688"
   transform="matrix(0.75,0,0,-0.75,-5.534723,94.334044)"
   style="overflow:visible;opacity:0.66019999;enable-background:new"
   id="use281"
   x="0" />
	
		<use
   xlink:href="#flash0.ai_x5F_2_x2F_Layer_44_copy_x2F__x3C_Path_x3E__x5F_4"
   width="4.7779999"
   height="25.709999"
   x="-0.178"
   y="-25.709999"
   transform="matrix(0.75,0,0,-0.75,4.814877,94.684144)"
   style="overflow:visible;opacity:0.44140003;enable-background:new"
   id="use283" />
	<path
   style="clip-rule:evenodd;fill:#c9c9c9;fill-rule:evenodd"
   d="m 21.925,25.962 c 2.325,0 4.313,0.212 5.963,0.638 1.625,0.425 2.438,0.925 2.438,1.5 0,0.6 -0.813,1.112 -2.438,1.537 -1.65,0.425 -3.638,0.638 -5.963,0.638 -2.3,0 -4.274,-0.212 -5.925,-0.638 -1.649,-0.425 -2.475,-0.938 -2.475,-1.537 0,-0.575 0.825,-1.075 2.475,-1.5 1.65,-0.425 3.625,-0.638 5.925,-0.638 z M 27.4,26.825 C 25.9,26.5 24.1,26.338 22,26.338 c -2.1,0 -3.887,0.163 -5.362,0.487 -1.475,0.325 -2.213,0.725 -2.213,1.2 0,0.475 0.738,0.875 2.213,1.2 1.475,0.325 3.262,0.487 5.362,0.487 2.101,0 3.9,-0.163 5.4,-0.487 1.475,-0.325 2.212,-0.725 2.212,-1.2 0,-0.475 -0.737,-0.875 -2.212,-1.2 z"
   id="path285"
   inkscape:connector-curvature="0" />
	<path
   style="clip-rule:evenodd;fill:#c9c9c9;fill-rule:evenodd"
   d="m 29.8,27.538 0.413,0.037 0.037,0.188 c 0.25,2.1 0.275,5.15 0.075,9.15 -0.274,6.275 -1.224,10.637 -2.849,13.087 -1.3,1.975 -2.163,3.9 -2.588,5.775 -0.225,0.925 -0.313,1.662 -0.263,2.212 0,0.649 -0.862,0.976 -2.587,0.976 h -0.226 c -1.725,0 -2.587,-0.326 -2.587,-0.976 0.05,-0.55 -0.038,-1.287 -0.263,-2.212 C 18.538,53.9 17.675,51.975 16.375,50 14.875,47.725 13.95,43.737 13.601,38.037 13.4,34.787 13.388,31.462 13.563,28.062 l 0.375,-0.038 c 0.125,0.475 0.9,0.913 2.325,1.313 1.575,0.4 3.462,0.6 5.662,0.6 2.25,0 4.163,-0.213 5.738,-0.638 1.5,-0.4 2.25,-0.862 2.25,-1.387 z m -7.875,2.737 c -2.925,0 -5.2,-0.313 -6.824,-0.938 -0.576,-0.25 -0.976,-0.487 -1.2,-0.712 -0.175,3.475 -0.138,6.837 0.112,10.088 0.375,5.25 1.262,8.938 2.662,11.063 1.351,2.05 2.238,4.012 2.663,5.887 0.225,0.976 0.313,1.763 0.263,2.363 0,0.125 0.149,0.236 0.449,0.337 0.4,0.15 0.988,0.226 1.763,0.226 h 0.226 c 1.425,0 2.175,-0.2 2.25,-0.601 -0.126,-0.35 -0.051,-1.125 0.225,-2.325 0.425,-1.875 1.313,-3.837 2.662,-5.887 1.4,-2.125 2.288,-5.838 2.663,-11.138 0.225,-3.15 0.263,-6.487 0.112,-10.013 -0.525,0.525 -1.575,0.938 -3.15,1.237 -1.45,0.276 -3.075,0.413 -4.876,0.413 z"
   id="path287"
   inkscape:connector-curvature="0" />
	
		<linearGradient
   id="SVGID_12_"
   gradientUnits="userSpaceOnUse"
   x1="1.0556999"
   y1="3.1278999"
   x2="6.6842999"
   y2="3.1278999"
   gradientTransform="matrix(0.7362,-0.1432,0.1432,0.7362,13.4505,18.6499)">
		<stop
   offset="0"
   style="stop-color:#BF9199"
   id="stop289" />
		<stop
   offset="0.3647"
   style="stop-color:#CC99AE"
   id="stop291" />
		<stop
   offset="1"
   style="stop-color:#D18E9B"
   id="stop293" />
	</linearGradient>
	<path
   style="clip-rule:evenodd;fill:url(#SVGID_12_);fill-rule:evenodd"
   d="m 15.888,22.288 c -0.45,0.2 -0.9,-0.1 -1.35,-0.9 -0.226,-0.4 -0.4,-0.812 -0.525,-1.237 -0.025,-0.1 0.025,-0.225 0.15,-0.375 0.225,-0.325 0.7,-0.6 1.425,-0.825 0.875,-0.3 1.625,-0.387 2.25,-0.262 0.625,0.1 0.85,0.337 0.675,0.712 -0.125,0.35 -0.563,0.913 -1.313,1.688 -0.675,0.698 -1.112,1.099 -1.312,1.199 z"
   id="path296"
   inkscape:connector-curvature="0" />
	
		<linearGradient
   id="SVGID_13_"
   gradientUnits="userSpaceOnUse"
   x1="1.0322"
   y1="9.0488005"
   x2="6.6363001"
   y2="9.0488005"
   gradientTransform="matrix(0.7361,-0.1439,0.1439,0.7361,13.4504,18.6498)">
		<stop
   offset="0"
   style="stop-color:#BF5E70"
   id="stop298" />
		<stop
   offset="0.3647"
   style="stop-color:#CC648F"
   id="stop300" />
		<stop
   offset="1"
   style="stop-color:#9E4455"
   id="stop302" />
	</linearGradient>
	<path
   style="clip-rule:evenodd;fill:url(#SVGID_13_);fill-rule:evenodd"
   d="m 14.013,20.15 c 0.325,0.375 1.1,0.45 2.325,0.225 1.025,-0.175 1.775,-0.55 2.25,-1.125 0.2,1.875 0.387,3.4 0.563,4.575 l 0.825,5.775 -2.138,-0.15 c -0.875,-0.075 -1.463,-0.212 -1.763,-0.412 -0.3,-1.1 -0.525,-2.15 -0.675,-3.15 -0.175,-1 -0.637,-2.913 -1.387,-5.738 z"
   id="path305"
   inkscape:connector-curvature="0" />
	
		<linearGradient
   id="SVGID_14_"
   gradientUnits="userSpaceOnUse"
   x1="1.3472"
   y1="1.8954999"
   x2="6.3678002"
   y2="1.8954999"
   gradientTransform="matrix(0.7357,-0.1457,0.1457,0.7357,13.4502,18.6501)">
		<stop
   offset="0"
   style="stop-color:#7A3C47"
   id="stop307" />
		<stop
   offset="0.6745"
   style="stop-color:#CC648F"
   id="stop309" />
	</linearGradient>
	<path
   style="clip-rule:evenodd;fill:url(#SVGID_14_);fill-rule:evenodd"
   d="m 14.275,20 c 0.1,-0.4 0.638,-0.737 1.612,-1.013 0.725,-0.225 1.35,-0.287 1.875,-0.188 0.275,0.05 0.462,0.125 0.563,0.225 -0.05,0.15 -0.175,0.313 -0.375,0.487 -0.425,0.35 -1.025,0.587 -1.8,0.713 C 15.05,20.4 14.425,20.325 14.275,20 Z"
   id="path312"
   inkscape:connector-curvature="0" />
	
		<linearGradient
   id="SVGID_15_"
   gradientUnits="userSpaceOnUse"
   x1="1.7803"
   y1="32.265598"
   x2="5.1682"
   y2="32.265598"
   gradientTransform="matrix(0.7361,-0.1439,0.1439,0.7361,13.4502,18.65)">
		<stop
   offset="0"
   style="stop-color:#BF9199"
   id="stop314" />
		<stop
   offset="0.3647"
   style="stop-color:#CC99AE"
   id="stop316" />
		<stop
   offset="1"
   style="stop-color:#D18E9B"
   id="stop318" />
	</linearGradient>
	<path
   style="clip-rule:evenodd;fill:url(#SVGID_15_);fill-rule:evenodd"
   d="m 19.375,37.138 c 0.5,0.05 0.988,0.012 1.463,-0.112 l 0.563,2.25 c 0.175,0.725 0.575,2.975 1.2,6.75 -0.025,0.475 -0.426,0.762 -1.2,0.862 -0.8,0.1 -1.3,-0.063 -1.5,-0.487 l -1.688,-9.15 0.3,-0.075 c 0.275,-0.051 0.562,-0.064 0.862,-0.038 z"
   id="path321"
   inkscape:connector-curvature="0" />
</g>
</svg>