<?xml version="1.0" encoding="UTF-8" standalone="no"?>
<!-- Generator: Adobe Illustrator 15.1.0, SVG Export Plug-In . SVG Version: 6.00 Build 0)  -->

<svg
   xmlns:dc="http://purl.org/dc/elements/1.1/"
   xmlns:cc="http://creativecommons.org/ns#"
   xmlns:rdf="http://www.w3.org/1999/02/22-rdf-syntax-ns#"
   xmlns:svg="http://www.w3.org/2000/svg"
   xmlns="http://www.w3.org/2000/svg"
   xmlns:xlink="http://www.w3.org/1999/xlink"
   xmlns:sodipodi="http://sodipodi.sourceforge.net/DTD/sodipodi-0.dtd"
   xmlns:inkscape="http://www.inkscape.org/namespaces/inkscape"
   version="1.1"
   id="flash0.ai"
   x="0px"
   y="0px"
   width="256"
   height="256"
   viewBox="0 0 256 255.99999"
   xml:space="preserve"
   sodipodi:docname="creamy_martini.svg"
   inkscape:version="0.92.4 (5da689c313, 2019-01-14)"
   inkscape:export-xdpi="10.5"
   inkscape:export-ydpi="10.5"><title
   id="title991">Creamy Martini</title><metadata
   id="metadata184"><rdf:RDF><cc:Work
       rdf:about=""><dc:format>image/svg+xml</dc:format><dc:type
         rdf:resource="http://purl.org/dc/dcmitype/StillImage" /><dc:title>Creamy Martini</dc:title><cc:license
         rdf:resource="http://creativecommons.org/publicdomain/zero/1.0/" /><dc:creator><cc:Agent><dc:title>Glitch</dc:title></cc:Agent></dc:creator><dc:source>https://opengameart.org/node/20149</dc:source></cc:Work><cc:License
       rdf:about="http://creativecommons.org/publicdomain/zero/1.0/"><cc:permits
         rdf:resource="http://creativecommons.org/ns#Reproduction" /><cc:permits
         rdf:resource="http://creativecommons.org/ns#Distribution" /><cc:permits
         rdf:resource="http://creativecommons.org/ns#DerivativeWorks" /></cc:License></rdf:RDF></metadata><defs
   id="defs182"><linearGradient
     inkscape:collect="always"
     xlink:href="#SVGID_1_"
     id="linearGradient965"
     gradientUnits="userSpaceOnUse"
     x1="0"
     y1="-6.3076"
     x2="33.599998"
     y2="-6.3076" /><linearGradient
     inkscape:collect="always"
     xlink:href="#SVGID_2_"
     id="linearGradient967"
     gradientUnits="userSpaceOnUse"
     x1="0"
     y1="-3.4751"
     x2="33"
     y2="-3.4751" /><linearGradient
     inkscape:collect="always"
     xlink:href="#SVGID_3_"
     id="linearGradient969"
     gradientUnits="userSpaceOnUse"
     x1="0.024900001"
     y1="-7.7997999"
     x2="2.9749"
     y2="-7.7997999" /><linearGradient
     inkscape:collect="always"
     xlink:href="#SVGID_4_"
     id="linearGradient971"
     gradientUnits="userSpaceOnUse"
     x1="0.0127"
     y1="-1"
     x2="3.3877001"
     y2="-1" /><radialGradient
     inkscape:collect="always"
     xlink:href="#SVGID_5_"
     id="radialGradient973"
     gradientUnits="userSpaceOnUse"
     gradientTransform="matrix(7.707129e-5,-1,-1.3198,7.707129e-5,-21538.346,0.7344)"
     cx="1.3267"
     cy="-16324.67"
     r="6.4875002" /><linearGradient
     inkscape:collect="always"
     xlink:href="#SVGID_6_"
     id="linearGradient975"
     gradientUnits="userSpaceOnUse"
     gradientTransform="matrix(-0.5445,-0.8388,0.8388,-0.5445,19462.463,-5764.2192)"
     x1="5760.0449"
     y1="-19457.623"
     x2="5766.8403"
     y2="-19457.623" /><linearGradient
     inkscape:collect="always"
     xlink:href="#SVGID_7_"
     id="linearGradient977"
     gradientUnits="userSpaceOnUse"
     x1="2.1122999"
     y1="-3.8540001"
     x2="9.4872999"
     y2="-3.8540001" /></defs><sodipodi:namedview
   pagecolor="#ffffff"
   bordercolor="#666666"
   borderopacity="1"
   objecttolerance="10"
   gridtolerance="10"
   guidetolerance="10"
   inkscape:pageopacity="0"
   inkscape:pageshadow="2"
   inkscape:window-width="1920"
   inkscape:window-height="1025"
   id="namedview180"
   showgrid="false"
   inkscape:zoom="0.85753954"
   inkscape:cx="-418.85652"
   inkscape:cy="151.62401"
   inkscape:window-x="-8"
   inkscape:window-y="-8"
   inkscape:window-maximized="1"
   inkscape:current-layer="flash0.ai"
   fit-margin-top="0"
   fit-margin-left="0"
   fit-margin-right="0"
   fit-margin-bottom="0" />
<symbol
   id="flash0.ai_x5F_3_x2F_Layer_20_copy_x2F__x3C_Path_x3E_"
   viewBox="0 -13.1 0.15 13.1"
   transform="translate(92.772751,106.5751)">
	<g
   id="Layer_1_17_">
		<path
   style="clip-rule:evenodd;fill:#dff7f7;fill-rule:evenodd"
   d="m 0.15,-6.55 c 0,-4.367 -0.033,-6.55 -0.1,-6.55 C 0.017,-13.1 0,-10.917 0,-6.55 0,-2.183 0.017,0 0.05,0 c 0.067,0 0.1,-2.183 0.1,-6.55 z"
   id="path2"
   inkscape:connector-curvature="0" />
	</g>
</symbol>
<symbol
   id="flash0.ai_x5F_3_x2F_Layer_20_copy_x2F__x3C_Path_x3E__x5F_10"
   viewBox="0.375 -12.34 32.9 12.065"
   transform="translate(92.772751,106.5751)">
	<g
   id="Layer_1_11_">
		<linearGradient
   id="SVGID_1_"
   gradientUnits="userSpaceOnUse"
   x1="0"
   y1="-6.3076"
   x2="33.599998"
   y2="-6.3076">
			<stop
   offset="0"
   style="stop-color:#FFFFFF"
   id="stop6" />
			<stop
   offset="1"
   style="stop-color:#000000"
   id="stop8" />
		</linearGradient>
		<path
   style="clip-rule:evenodd;fill:url(#linearGradient965);fill-rule:evenodd"
   d="M 33.275,-0.275 C 28.182,-4.054 24.74,-6.545 22.95,-7.75 c -2.367,-1.533 -3.917,-2.8 -4.65,-3.8 -0.433,-0.633 -0.933,-0.883 -1.5,-0.75 -0.133,-0.067 -0.316,-0.05 -0.55,0.05 -0.367,0.1 -0.667,0.333 -0.9,0.7 -0.733,1 -2.283,2.267 -4.65,3.8 -1.79,1.205 -5.232,3.696 -10.325,7.475 1.848,-1.298 3.256,-2.056 4.225,-2.275 0.3,-0.067 4.367,-0.5 12.2,-1.3 7.767,0.767 11.85,1.2 12.25,1.3 0.969,0.219 2.377,0.977 4.225,2.275 z"
   id="path11"
   inkscape:connector-curvature="0" />
	</g>
</symbol>
<symbol
   id="flash0.ai_x5F_3_x2F_Layer_20_copy_x2F__x3C_Path_x3E__x5F_14"
   viewBox="0 -6.95 33 6.95"
   transform="translate(92.772751,106.5751)">
	<g
   id="Layer_1_10_">
		<linearGradient
   id="SVGID_2_"
   gradientUnits="userSpaceOnUse"
   x1="0"
   y1="-3.4751"
   x2="33"
   y2="-3.4751">
			<stop
   offset="0"
   style="stop-color:#C2E7FF"
   id="stop15" />
			<stop
   offset="1"
   style="stop-color:#88ABC2"
   id="stop17" />
		</linearGradient>
		<path
   style="clip-rule:evenodd;fill:url(#linearGradient967);fill-rule:evenodd"
   d="m 33,-3.45 c 0,-0.966 -1.617,-1.8 -4.85,-2.5 -3.2,-0.667 -7.083,-1 -11.65,-1 -4.567,0 -8.45,0.333 -11.65,1 C 1.617,-5.25 0,-4.417 0,-3.45 0,-2.517 1.617,-1.7 4.85,-1 8.083,-0.333 11.967,0 16.5,0 21.033,0 24.917,-0.333 28.15,-1 31.383,-1.7 33,-2.517 33,-3.45 Z"
   id="path20"
   inkscape:connector-curvature="0" />
	</g>
</symbol>
<symbol
   id="flash0.ai_x5F_3_x2F_Layer_20_copy_x2F__x3C_Path_x3E__x5F_15"
   viewBox="0.05 -2.55 2.311 2.635"
   transform="translate(92.772751,106.5751)">
	<g
   id="Layer_1_9_">
		<path
   style="clip-rule:evenodd;fill:#cef2f2;fill-rule:evenodd"
   d="m 1.35,-1.5 c 0.367,0.6 0.566,1.067 0.6,1.4 0.233,0.333 0.367,0.217 0.4,-0.35 0.066,-0.533 -0.167,-1 -0.7,-1.4 -0.6,-0.467 -1.133,-0.7 -1.6,-0.7 0.267,0.167 0.483,0.3 0.65,0.4 0.3,0.233 0.517,0.45 0.65,0.65 z"
   id="path24"
   inkscape:connector-curvature="0" />
	</g>
</symbol>
<symbol
   id="flash0.ai_x5F_3_x2F_Layer_20_copy_x2F__x3C_Path_x3E__x5F_16"
   viewBox="0.017 -0.539 0.673 0.539"
   transform="translate(92.772751,106.5751)">
	<g
   id="Layer_1_8_">
		<path
   style="clip-rule:evenodd;fill:#cef2f2;fill-rule:evenodd"
   d="m 0.4,-0.05 c 0.3,-0.133 0.367,-0.267 0.2,-0.4 -0.133,-0.133 -0.283,-0.117 -0.45,0.05 -0.133,0.167 -0.167,0.283 -0.1,0.35 0.067,0.067 0.183,0.067 0.35,0 z"
   id="path28"
   inkscape:connector-curvature="0" />
	</g>
</symbol>
<symbol
   id="flash0.ai_x5F_3_x2F_Layer_20_copy_x2F__x3C_Path_x3E__x5F_17"
   viewBox="0.015 -2.664 1.887 2.642"
   transform="translate(92.772751,106.5751)">
	<g
   id="Layer_1_7_">
		<path
   style="clip-rule:evenodd;fill:#cef2f2;fill-rule:evenodd"
   d="m 0.55,-0.05 c 0.2,0.1 0.333,-0.067 0.4,-0.5 0.133,-0.667 0.367,-1.2 0.7,-1.6 0.367,-0.4 0.333,-0.567 -0.1,-0.5 -0.4,0.066 -0.783,0.333 -1.15,0.8 -0.333,0.4 -0.45,0.783 -0.35,1.15 0.033,0.3 0.2,0.517 0.5,0.65 z"
   id="path32"
   inkscape:connector-curvature="0" />
	</g>
</symbol>
<symbol
   id="flash0.ai_x5F_3_x2F_Layer_20_copy_x2F__x3C_Path_x3E__x5F_19"
   viewBox="0 -15.6 3 15.6"
   transform="translate(92.772751,106.5751)">
	<g
   id="Layer_1_6_">
		<linearGradient
   id="SVGID_3_"
   gradientUnits="userSpaceOnUse"
   x1="0.024900001"
   y1="-7.7997999"
   x2="2.9749"
   y2="-7.7997999">
			<stop
   offset="0"
   style="stop-color:#5A9BC9"
   id="stop36" />
			<stop
   offset="0.4588"
   style="stop-color:#EDF8FF"
   id="stop38" />
			<stop
   offset="0.9765"
   style="stop-color:#61BEFF"
   id="stop40" />
		</linearGradient>
		<path
   style="clip-rule:evenodd;fill:url(#linearGradient969);fill-rule:evenodd"
   d="M 1.5,-0.55 3,0 C 2.567,-0.3 2.35,-1.15 2.35,-2.55 2.317,-4.383 2.317,-8.6 2.35,-15.2 2.283,-15.433 2.033,-15.55 1.6,-15.55 v -0.05 l -0.1,0.05 -0.1,-0.05 v 0.05 c -0.433,0 -0.683,0.117 -0.75,0.35 0.033,6.6 0.033,10.817 0,12.65 C 0.65,-1.15 0.433,-0.3 0,0 Z"
   id="path43"
   inkscape:connector-curvature="0" />
	</g>
</symbol>
<symbol
   id="flash0.ai_x5F_3_x2F_Layer_20_copy_x2F__x3C_Path_x3E__x5F_20"
   viewBox="-0.007 -2 3.413 2"
   transform="translate(92.772751,106.5751)">
	<g
   id="Layer_1_5_">
		<linearGradient
   id="SVGID_4_"
   gradientUnits="userSpaceOnUse"
   x1="0.0127"
   y1="-1"
   x2="3.3877001"
   y2="-1">
			<stop
   offset="0"
   style="stop-color:#8F8F8F"
   id="stop47" />
			<stop
   offset="0.4588"
   style="stop-color:#FFFFFF"
   id="stop49" />
			<stop
   offset="0.9765"
   style="stop-color:#A8A8A8"
   id="stop51" />
		</linearGradient>
		<path
   style="clip-rule:evenodd;fill:url(#linearGradient971);fill-rule:evenodd"
   d="M 1.8,-2 H 1.6 C 0.767,-1.9 0.267,-1.7 0.1,-1.4 -0.167,-0.9 0.067,-0.433 0.8,0 L 1.7,-0.3 2.6,0 C 3.333,-0.433 3.567,-0.9 3.3,-1.4 3.133,-1.7 2.633,-1.9 1.8,-2 Z"
   id="path54"
   inkscape:connector-curvature="0" />
	</g>
</symbol>
<symbol
   id="flash0.ai_x5F_3_x2F_Layer_20_copy_x2F__x3C_Path_x3E__x5F_21"
   viewBox="0 -6.5 15.35 6.5"
   transform="translate(92.772751,106.5751)">
	<g
   id="Layer_1_4_">
		<path
   style="clip-rule:evenodd;fill:#162c33;fill-rule:evenodd"
   d="m 13.2,-0.45 c 1.433,-0.7 2.15,-1.517 2.15,-2.45 0,-1 -0.75,-1.85 -2.25,-2.55 -1.5,-0.7 -3.317,-1.05 -5.45,-1.05 -2.1,0 -3.9,0.35 -5.4,1.05 C 0.75,-4.75 0,-3.9 0,-2.9 0,-2.334 0.283,-1.783 0.85,-1.25 1.45,-0.75 2.233,-0.333 3.2,0 2.433,-0.467 1.933,-0.85 1.7,-1.15 1.333,-1.617 1.3,-2.15 1.6,-2.75 2.1,-3.817 3.367,-4.567 5.4,-5 c 1.934,-0.433 3.883,-0.433 5.85,0 1.433,0.333 2.317,0.983 2.65,1.95 0.3,0.933 0.067,1.8 -0.7,2.6 z"
   id="path58"
   inkscape:connector-curvature="0" />
	</g>
</symbol>
<symbol
   id="flash0.ai_x5F_3_x2F_Layer_20_copy_x2F__x3C_Path_x3E__x5F_22"
   viewBox="0 -7.15 15.35 7.15"
   transform="translate(92.772751,106.5751)">
	<g
   id="Layer_1_3_">
		
			<radialGradient
   id="SVGID_5_"
   cx="1.3267"
   cy="-16324.67"
   r="6.4875002"
   gradientTransform="matrix(7.707129e-5,-1,-1.3198,7.707129e-5,-21538.346,0.7344)"
   gradientUnits="userSpaceOnUse">
			<stop
   offset="0"
   style="stop-color:#FFFFFF"
   id="stop62" />
			<stop
   offset="0.9882"
   style="stop-color:#83CFE6"
   id="stop64" />
		</radialGradient>
		<path
   style="clip-rule:evenodd;fill:url(#radialGradient973);fill-rule:evenodd"
   d="m 15.35,-3.55 c 0,-1 -0.75,-1.85 -2.25,-2.55 -1.5,-0.7 -3.317,-1.05 -5.45,-1.05 -2.1,0 -3.9,0.35 -5.4,1.05 C 0.75,-5.4 0,-4.55 0,-3.55 c 0,0.966 0.75,1.8 2.25,2.5 1.5,0.7 3.3,1.05 5.4,1.05 2.133,0 3.95,-0.35 5.45,-1.05 1.5,-0.7 2.25,-1.533 2.25,-2.5 z"
   id="path67"
   inkscape:connector-curvature="0" />
	</g>
</symbol>
<symbol
   id="flash0.ai_x5F_3_x2F_Layer_20_copy_x2F__x3C_Path_x3E__x5F_23"
   viewBox="0 -4.05 15.35 4.05"
   transform="translate(92.772751,106.5751)">
	<g
   id="Layer_1_2_">
		<path
   style="clip-rule:evenodd;fill:#004e69;fill-rule:evenodd"
   d="m 12.85,-2.45 c 1.467,0.633 2.283,1.4 2.45,2.3 L 15.35,-0.5 C 15.35,-1.467 14.6,-2.3 13.1,-3 11.6,-3.7 9.783,-4.05 7.65,-4.05 5.517,-4.05 3.717,-3.7 2.25,-3 0.75,-2.3 0,-1.467 0,-0.5 V 0 c 0.133,-0.967 0.933,-1.767 2.4,-2.4 1.467,-0.667 3.217,-1 5.25,-1 2,0 3.733,0.317 5.2,0.95 z"
   id="path71"
   inkscape:connector-curvature="0" />
	</g>
</symbol>
<symbol
   id="flash0.ai_x5F_3_x2F_Layer_20_copy_x2F__x3C_Path_x3E__x5F_4"
   viewBox="0 -3.95 3.45 3.95"
   transform="translate(92.772751,106.5751)">
	<g
   id="Layer_1_16_">
		<path
   style="clip-rule:evenodd;fill:#d1bf7d;fill-rule:evenodd"
   d="M 0.65,-3.65 0,-3.95 C 0.333,-2.583 0.833,-1.567 1.5,-0.9 1.867,-0.467 2.517,-0.167 3.45,0 2.583,-0.267 1.867,-0.95 1.3,-2.05 1,-2.617 0.783,-3.15 0.65,-3.65 Z"
   id="path75"
   inkscape:connector-curvature="0" />
	</g>
</symbol>
<symbol
   id="flash0.ai_x5F_3_x2F_Layer_20_copy_x2F__x3C_Path_x3E__x5F_5"
   viewBox="0 -11.603 5.65 11.61"
   transform="translate(92.772751,106.5751)">
	<g
   id="Layer_1_15_">
		<path
   style="clip-rule:evenodd;fill:#d1bf7d;fill-rule:evenodd"
   d="m 2.55,-0.3 c 0.7,-0.133 1.4,-0.733 2.1,-1.8 0.667,-1 1,-1.933 1,-2.8 0,-1.667 -0.583,-3.167 -1.75,-4.5 -0.467,-0.533 -1.15,-1.05 -2.05,-1.55 -0.867,-0.466 -1.467,-0.683 -1.8,-0.65 H 0 c 0.8,0.1 1.733,0.633 2.8,1.6 0.967,0.833 1.583,1.9 1.85,3.2 C 4.983,-5.333 4.8,-3.9 4.1,-2.5 3.333,-1 2.167,-0.167 0.6,0 0.833,0.033 1.483,-0.067 2.55,-0.3 Z"
   id="path79"
   inkscape:connector-curvature="0" />
	</g>
</symbol>
<symbol
   id="flash0.ai_x5F_3_x2F_Layer_20_copy_x2F__x3C_Path_x3E__x5F_6"
   viewBox="0.017 -11.65 9.845 11.668"
   transform="translate(92.772751,106.5751)">
	<g
   id="Layer_1_14_">
		<path
   style="clip-rule:evenodd;fill:#f5eabf;fill-rule:evenodd"
   d="M 7.3,-2.05 C 6.667,-1.45 5.8,-1.183 4.7,-1.25 3.7,-1.35 2.933,-1.667 2.4,-2.2 1.733,-2.867 1.233,-3.883 0.9,-5.25 0.833,-5.417 0.617,-5.333 0.25,-5 l -0.2,0.4 c -0.066,0.267 -0.033,0.6 0.1,1 0.3,0.833 0.934,1.65 1.9,2.45 1.2,0.967 2.483,1.333 3.85,1.1 1.4,-0.267 2.483,-1.1 3.25,-2.5 0.7,-1.4 0.883,-2.833 0.55,-4.3 -0.267,-1.3 -0.883,-2.367 -1.85,-3.2 -1.167,-1.034 -2.133,-1.567 -2.9,-1.6 -0.3,0.367 -0.45,0.6 -0.45,0.7 v 0.15 c 1.1,0.167 2.117,0.9 3.05,2.2 0.733,1 1.1,2.117 1.1,3.35 -0.033,1.267 -0.483,2.333 -1.35,3.2 z"
   id="path83"
   inkscape:connector-curvature="0" />
	</g>
</symbol>
<symbol
   id="flash0.ai_x5F_3_x2F_Layer_20_copy_x2F__x3C_Path_x3E__x5F_8"
   viewBox="0.066 -6.357 8.984 6.357"
   transform="translate(92.772751,106.5751)">
	<g
   id="Layer_1_13_">
		
			<linearGradient
   id="SVGID_6_"
   gradientUnits="userSpaceOnUse"
   x1="5760.0449"
   y1="-19457.623"
   x2="5766.8403"
   y2="-19457.623"
   gradientTransform="matrix(-0.5445,-0.8388,0.8388,-0.5445,19462.463,-5764.2192)">
			<stop
   offset="0"
   style="stop-color:#FFFFFF"
   id="stop87" />
			<stop
   offset="1"
   style="stop-color:#000000"
   id="stop89" />
		</linearGradient>
		<path
   style="clip-rule:evenodd;fill:url(#linearGradient975);fill-rule:evenodd"
   d="M 6.65,-0.25 9.05,0 8.55,-0.5 C 8.15,-0.9 7.2,-1.667 5.7,-2.8 3.9,-4.2 2.483,-5.167 1.45,-5.7 0.383,-6.267 -0.067,-6.467 0.1,-6.3 l 2.1,1.65 c 1.5,1.2 2.983,2.667 4.45,4.4 z"
   id="path92"
   inkscape:connector-curvature="0" />
	</g>
</symbol>
<symbol
   id="flash0.ai_x5F_3_x2F_Layer_20_copy_x2F__x3C_Path_x3E__x5F_9"
   viewBox="0 -7.708 12 7.708"
   transform="translate(92.772751,106.5751)">
	<g
   id="Layer_1_12_">
		<linearGradient
   id="SVGID_7_"
   gradientUnits="userSpaceOnUse"
   x1="2.1122999"
   y1="-3.8540001"
   x2="9.4872999"
   y2="-3.8540001">
			<stop
   offset="0"
   style="stop-color:#FFFFFF"
   id="stop96" />
			<stop
   offset="1"
   style="stop-color:#000000"
   id="stop98" />
		</linearGradient>
		<path
   style="clip-rule:evenodd;fill:url(#linearGradient977);fill-rule:evenodd"
   d="M 0,0 12,-1 11.95,-6.3 C 11.95,-7.6 11.3,-8 10,-7.5 L 8.05,-6.3 C 7.717,-6 6.567,-5.133 4.6,-3.7 2.633,-2.3 1.1,-1.067 0,0 Z"
   id="path101"
   inkscape:connector-curvature="0" />
	</g>
</symbol>











<linearGradient
   id="SVGID_8_"
   gradientUnits="userSpaceOnUse"
   x1="-22.792"
   y1="17.0264"
   x2="-11.442"
   y2="17.0264"
   gradientTransform="matrix(8.810573e-5,-1,1,-0.001,2.301103e-4,-9.151176e-6)">
	<stop
   offset="0"
   style="stop-color:#FFD596"
   id="stop127" />
	<stop
   offset="1"
   style="stop-color:#CF9F40"
   id="stop129" />
</linearGradient>

<linearGradient
   id="SVGID_9_"
   gradientUnits="userSpaceOnUse"
   x1="3.4872999"
   y1="10.75"
   x2="29.112301"
   y2="10.75">
	<stop
   offset="0"
   style="stop-color:#FFD596"
   id="stop134" />
	<stop
   offset="1"
   style="stop-color:#CF9F40"
   id="stop136" />
</linearGradient>

<linearGradient
   id="SVGID_10_"
   gradientUnits="userSpaceOnUse"
   x1="7.0127001"
   y1="8.9707003"
   x2="25.1877"
   y2="8.9707003">
	<stop
   offset="0"
   style="stop-color:#FFD596"
   id="stop141" />
	<stop
   offset="1"
   style="stop-color:#CF9F40"
   id="stop143" />
</linearGradient>






<linearGradient
   id="SVGID_11_"
   gradientUnits="userSpaceOnUse"
   x1="9.5375996"
   y1="5.1206002"
   x2="25.1626"
   y2="5.1206002">
	<stop
   offset="0"
   style="stop-color:#FFD596"
   id="stop158" />
	<stop
   offset="1"
   style="stop-color:#CF9F40"
   id="stop160" />
</linearGradient>







<g
   id="g949"
   transform="matrix(5.9743569,0,0,5.9743569,16.577049,2.8343089e-7)"><use
     id="use105"
     style="overflow:visible;opacity:0.44920002;enable-background:new"
     transform="matrix(1,0,0,-1,-83.372851,145.3749)"
     y="-4.0500002"
     height="4.0500002"
     width="15.35"
     xlink:href="#flash0.ai_x5F_3_x2F_Layer_20_copy_x2F__x3C_Path_x3E__x5F_23"
     x="0" /><use
     id="use107"
     style="overflow:visible;opacity:0.73830004;enable-background:new"
     transform="matrix(1,0,0,-1,-83.372851,141.6249)"
     y="-7.1500001"
     height="7.1500001"
     width="15.35"
     xlink:href="#flash0.ai_x5F_3_x2F_Layer_20_copy_x2F__x3C_Path_x3E__x5F_22"
     x="0" /><use
     id="use109"
     style="overflow:visible;opacity:0.12890003;enable-background:new"
     transform="matrix(1,0,0,-1,-83.372851,142.2753)"
     y="-6.5"
     height="6.5"
     width="15.35"
     xlink:href="#flash0.ai_x5F_3_x2F_Layer_20_copy_x2F__x3C_Path_x3E__x5F_21"
     x="0" /><use
     id="use111"
     style="overflow:visible;opacity:0.71089998;enable-background:new"
     transform="matrix(1,0,0,-1,-77.372851,141.7255)"
     y="-2"
     x="-0.0070000002"
     height="2"
     width="3.4130001"
     xlink:href="#flash0.ai_x5F_3_x2F_Layer_20_copy_x2F__x3C_Path_x3E__x5F_20" /><use
     id="use113"
     style="overflow:visible;opacity:0.69139997;enable-background:new"
     transform="matrix(1,0,0,-1,-77.222951,126.8749)"
     y="-15.6"
     height="15.6"
     width="3"
     xlink:href="#flash0.ai_x5F_3_x2F_Layer_20_copy_x2F__x3C_Path_x3E__x5F_19"
     x="0" /><path
     id="path115"
     d="m 18.6,20.45 c -0.367,0.267 -0.55,1.066 -0.55,2.4 -0.033,1.833 -0.033,6.05 0,12.65 -0.167,0.333 -0.433,0.517 -0.8,0.55 H 17.1 l -0.05,-0.2 -0.05,0.2 h -0.1 c -0.267,-0.033 -0.483,-0.116 -0.65,-0.25 -0.1,-0.133 -0.167,-0.217 -0.2,-0.25 0.034,-6.633 0.034,-10.867 0,-12.7 0,-1.333 -0.183,-2.133 -0.55,-2.4 l 0.1,-0.3 1.45,0.55 1.45,-0.55 z m -2.6,0.2 c 0.233,0.467 0.35,1.2 0.35,2.2 0.033,1.767 0.033,5.966 0,12.6 0.133,0.133 0.333,0.217 0.6,0.25 h 0.2 c 0.267,-0.033 0.467,-0.117 0.6,-0.25 -0.033,-6.634 -0.033,-10.833 0,-12.6 0,-1 0.117,-1.733 0.35,-2.2 l -1.05,0.4 z"
     style="clip-rule:evenodd;fill:#b4cfe0;fill-rule:evenodd"
     inkscape:connector-curvature="0" /><path
     id="path117"
     d="m 18.2,20.75 -0.2,0.8 c -0.067,0.267 -0.083,0.95 -0.05,2.05 -0.067,-0.067 -0.117,-0.4 -0.15,-1 -0.033,-0.434 -0.167,-0.767 -0.4,-1 -0.2,-0.233 -0.433,-0.267 -0.7,-0.1 -0.233,0.133 -0.383,0.417 -0.45,0.85 -0.019,0.132 -0.036,0.257 -0.05,0.375 0,-0.297 -0.05,-0.672 -0.15,-1.125 l -0.2,-0.8 1.2,0.1 c 0.5,0.033 0.883,-0.017 1.15,-0.15 z"
     style="clip-rule:evenodd;fill:#b4cfe0;fill-rule:evenodd"
     inkscape:connector-curvature="0" /><use
     id="use119"
     style="overflow:visible;opacity:0.62110003;enable-background:new"
     transform="matrix(1,0,0,-1,-83.222951,144.2255)"
     y="-2.664"
     x="0.015"
     height="2.642"
     width="1.887"
     xlink:href="#flash0.ai_x5F_3_x2F_Layer_20_copy_x2F__x3C_Path_x3E__x5F_17" /><use
     id="use121"
     style="overflow:visible;opacity:0.62110003;enable-background:new"
     transform="matrix(1,0,0,-1,-81.022751,147.0751)"
     y="-0.53899997"
     x="0.017000001"
     height="0.53899997"
     width="0.67299998"
     xlink:href="#flash0.ai_x5F_3_x2F_Layer_20_copy_x2F__x3C_Path_x3E__x5F_16" /><use
     id="use123"
     style="overflow:visible;opacity:0.62110003;enable-background:new"
     transform="matrix(1,0,0,-1,-70.572551,144.6249)"
     y="-2.55"
     x="0.050000001"
     height="2.635"
     width="2.3110001"
     xlink:href="#flash0.ai_x5F_3_x2F_Layer_20_copy_x2F__x3C_Path_x3E__x5F_15" /><use
     id="use125"
     style="overflow:visible;opacity:0.39059999;enable-background:new"
     transform="matrix(1,0,0,-1,-92.122851,111.225)"
     y="-6.9499998"
     height="6.9499998"
     width="33"
     xlink:href="#flash0.ai_x5F_3_x2F_Layer_20_copy_x2F__x3C_Path_x3E__x5F_14"
     x="0" /><path
     id="path132"
     d="m 21.4,17.55 c -1.333,1 -2.15,1.684 -2.45,2.05 -0.133,0.2 -0.317,0.483 -0.55,0.85 -0.233,0.3 -0.583,0.466 -1.05,0.5 -0.5,0.033 -0.9,-0.067 -1.2,-0.3 -0.1,-0.066 -0.367,-0.333 -0.8,-0.8 -0.7,-0.733 -1.85,-1.7 -3.45,-2.9 L 4.5,11.8 h 25.05 z"
     style="clip-rule:evenodd;fill:url(#SVGID_8_);fill-rule:evenodd"
     inkscape:connector-curvature="0" /><path
     id="path139"
     d="m 30.45,10.75 c 0,0.8 -1.3,1.483 -3.9,2.05 -2.6,0.567 -5.75,0.85 -9.45,0.85 -3.667,0 -6.817,-0.283 -9.45,-0.85 -2.6,-0.566 -3.9,-1.25 -3.9,-2.05 0,-0.8 1.3,-1.483 3.9,-2.05 2.633,-0.567 5.783,-0.85 9.45,-0.85 3.7,0 6.85,0.283 9.45,0.85 2.6,0.567 3.9,1.25 3.9,2.05 z"
     style="clip-rule:evenodd;fill:url(#SVGID_9_);fill-rule:evenodd"
     inkscape:connector-curvature="0" /><path
     id="path146"
     d="m 9.85,6.85 c 2.167,-0.6 4.7,-0.833 7.6,-0.7 2.333,0.1 4.466,0.4 6.4,0.9 1.667,0.434 2.433,1.083 2.3,1.95 -0.134,0.9 -1.3,1.633 -3.5,2.2 -2.167,0.566 -4.883,0.75 -8.15,0.55 C 11.433,11.55 9.333,11.133 8.2,10.5 7.233,9.967 6.967,9.3 7.4,8.5 7.8,7.767 8.617,7.217 9.85,6.85 Z"
     style="clip-rule:evenodd;fill:url(#SVGID_10_);fill-rule:evenodd"
     inkscape:connector-curvature="0" /><use
     id="use148"
     style="overflow:visible;opacity:0.35940001;enable-background:new"
     transform="matrix(1,0,0,-1,-92.572551,115.1752)"
     y="-12.34"
     x="0.375"
     height="12.065"
     width="32.900002"
     xlink:href="#flash0.ai_x5F_3_x2F_Layer_20_copy_x2F__x3C_Path_x3E__x5F_10" /><use
     id="use150"
     style="overflow:visible;opacity:0.35940001;enable-background:new"
     transform="matrix(1,0,0,-1,-86.572551,117.6249)"
     y="-7.7080002"
     height="7.7080002"
     width="12"
     xlink:href="#flash0.ai_x5F_3_x2F_Layer_20_copy_x2F__x3C_Path_x3E__x5F_9"
     x="0" /><use
     id="use152"
     style="overflow:visible;opacity:0.35160002;enable-background:new"
     transform="matrix(1,0,0,-1,-74.072551,117.725)"
     y="-6.3569999"
     x="0.066"
     height="6.3569999"
     width="8.9840002"
     xlink:href="#flash0.ai_x5F_3_x2F_Layer_20_copy_x2F__x3C_Path_x3E__x5F_8" /><path
     id="path154"
     d="m 30.75,10.65 -1.2,0.4 c -2.767,0.733 -6.917,1.217 -12.45,1.45 l -1.7,-0.05 c -3.6,0 -6.967,-0.367 -10.1,-1.1 -0.433,-0.1 -1.25,-0.45 -2.45,-1.05 3.733,2.8 6.45,4.75 8.15,5.85 2.333,1.533 3.883,2.817 4.65,3.85 0.434,0.633 0.883,0.867 1.35,0.7 h 0.2 c 0.466,0 0.867,-0.233 1.2,-0.7 0.667,-0.967 2.217,-2.25 4.65,-3.85 1.467,-0.933 4.033,-2.767 7.7,-5.5 z m -7.5,5.85 c -2.267,1.5 -3.8,2.75 -4.6,3.75 -0.4,0.6 -0.883,0.9 -1.45,0.9 L 17,21.1 16.85,21.15 c -0.567,0 -1.05,-0.3 -1.45,-0.9 C 14.6,19.25 13.067,18 10.8,16.5 9,15.3 5.433,12.717 0.1,8.75 L 0.05,8.7 V 8.4 H 0.2 l 0.75,0.35 c 2.033,1.267 3.5,2 4.4,2.2 3.1,0.733 6.45,1.1 10.05,1.1 l 1.7,0.05 C 22.633,11.867 26.75,11.383 29.45,10.65 30.55,10.383 31.9,9.7 33.5,8.6 33.667,8.467 33.783,8.4 33.85,8.4 H 34 v 0.3 l -0.05,0.05 c -5.334,3.967 -8.9,6.55 -10.7,7.75 z"
     style="clip-rule:evenodd;fill:#b4cfe0;fill-rule:evenodd"
     inkscape:connector-curvature="0" /><path
     id="path156"
     d="m 34.1,8.35 c 0,1.066 -1.666,1.983 -5,2.75 -3.333,0.733 -7.35,1.1 -12.05,1.1 C 12.317,12.2 8.3,11.833 5,11.1 1.667,10.333 0,9.416 0,8.35 0,7.283 1.667,6.383 5,5.65 8.333,4.883 12.35,4.5 17.05,4.5 c 4.7,0 8.717,0.383 12.05,1.15 3.334,0.733 5,1.633 5,2.7 z M 32.95,8.1 C 32.95,7.2 31.4,6.433 28.3,5.8 25.2,5.133 21.45,4.8 17.05,4.8 12.683,4.8 8.933,5.133 5.8,5.8 2.7,6.433 1.15,7.2 1.15,8.1 c 0,0.933 1.55,1.717 4.65,2.35 3.1,0.633 6.85,0.95 11.25,0.95 4.4,0 8.15,-0.316 11.25,-0.95 3.1,-0.633 4.65,-1.417 4.65,-2.35 z"
     style="clip-rule:evenodd;fill:#b4cfe0;fill-rule:evenodd"
     inkscape:connector-curvature="0" /><path
     id="path163"
     d="M 26,7.25 C 25.9,8.417 25.25,9.267 24.05,9.8 22.817,10.334 20.584,10.383 17.35,9.95 13.916,9.45 11.533,8.633 10.2,7.5 9.4,6.767 9.533,6.017 10.6,5.25 c 0.733,-0.533 1.733,-1 3,-1.4 C 14.433,3.583 15,3.1 15.3,2.4 15.9,1.2 16.817,0.4 18.05,0 17.85,0.367 17.7,0.75 17.6,1.15 c -0.2,0.833 -0.05,1.434 0.45,1.8 0.467,0.367 1.15,0.667 2.05,0.9 0.6,0.133 1.833,0.417 3.7,0.85 1.567,0.433 2.3,1.283 2.2,2.55 z"
     style="clip-rule:evenodd;fill:url(#SVGID_11_);fill-rule:evenodd"
     inkscape:connector-curvature="0" /><use
     id="use165"
     style="overflow:visible;opacity:0.80080004;enable-background:new"
     transform="matrix(1,0,0,-1,-66.173151,111.4252)"
     y="-11.65"
     x="0.017000001"
     height="11.668"
     width="9.8450003"
     xlink:href="#flash0.ai_x5F_3_x2F_Layer_20_copy_x2F__x3C_Path_x3E__x5F_6" /><use
     id="use167"
     style="overflow:visible;opacity:0.69919996;enable-background:new"
     transform="matrix(1,0,0,-1,-61.122351,111.475)"
     y="-11.603"
     height="11.61"
     width="5.6500001"
     xlink:href="#flash0.ai_x5F_3_x2F_Layer_20_copy_x2F__x3C_Path_x3E__x5F_5"
     x="0" /><use
     id="use169"
     style="overflow:visible;opacity:0.69919996;enable-background:new"
     transform="matrix(1,0,0,-1,-65.272751,112.725)"
     y="-3.95"
     height="3.95"
     width="3.45"
     xlink:href="#flash0.ai_x5F_3_x2F_Layer_20_copy_x2F__x3C_Path_x3E__x5F_4"
     x="0" /><path
     id="path171"
     d="m 16,35 c 0.1,0.167 0.117,0.25 0.05,0.25 -0.466,-0.1 -1.417,0.083 -2.85,0.55 -1.5,0.434 -2.483,0.9 -2.95,1.4 -0.567,0.6 -0.85,1.217 -0.85,1.85 0,0.137 0.008,0.262 0.025,0.375 C 9.178,38.505 9.32,37.78 9.85,37.25 c 0.7,-0.7 1.933,-1.283 3.7,-1.75 0.9,-0.233 1.717,-0.4 2.45,-0.5 z"
     style="clip-rule:evenodd;fill:#b4cfe0;fill-rule:evenodd"
     inkscape:connector-curvature="0" /><path
     id="path173"
     d="M 19.4,35.4 18.05,35.2 V 35 l 0.3,-0.05 c 0.4,0.033 1.033,0.166 1.9,0.399 1.794,0.487 3.003,1.028 3.625,1.625 C 23.613,36.788 23.021,36.513 22.1,36.15 21.333,35.85 20.433,35.6 19.4,35.4 Z"
     style="clip-rule:evenodd;fill:#b4cfe0;fill-rule:evenodd"
     inkscape:connector-curvature="0" /><path
     id="path175"
     d="m 16.95,28.6 c 0,3.801 -0.067,5.7 -0.2,5.7 -0.133,0 -0.2,-1.899 -0.2,-5.7 0,-3.833 0.067,-5.75 0.2,-5.75 0.133,0 0.2,1.917 0.2,5.75 z"
     style="clip-rule:evenodd;fill:#dff7f7;fill-rule:evenodd"
     inkscape:connector-curvature="0" /><use
     id="use177"
     style="overflow:visible;opacity:0.28910002;enable-background:new"
     transform="matrix(1,0,0,-1,-75.422651,128.725)"
     y="-13.1"
     height="13.1"
     width="0.15000001"
     xlink:href="#flash0.ai_x5F_3_x2F_Layer_20_copy_x2F__x3C_Path_x3E_"
     x="0" /></g>
</svg>