<?xml version="1.0" encoding="UTF-8" standalone="no"?>
<!-- Generator: Adobe Illustrator 15.1.0, SVG Export Plug-In . SVG Version: 6.00 Build 0)  -->

<svg
   xmlns:dc="http://purl.org/dc/elements/1.1/"
   xmlns:cc="http://creativecommons.org/ns#"
   xmlns:rdf="http://www.w3.org/1999/02/22-rdf-syntax-ns#"
   xmlns:svg="http://www.w3.org/2000/svg"
   xmlns="http://www.w3.org/2000/svg"
   xmlns:xlink="http://www.w3.org/1999/xlink"
   xmlns:sodipodi="http://sodipodi.sourceforge.net/DTD/sodipodi-0.dtd"
   xmlns:inkscape="http://www.inkscape.org/namespaces/inkscape"
   version="1.1"
   id="flash0.ai"
   x="0px"
   y="0px"
   width="256"
   height="256"
   viewBox="0 0 256 256"
   xml:space="preserve"
   sodipodi:docname="exotic_juice.svg"
   inkscape:version="0.92.4 (5da689c313, 2019-01-14)"
   inkscape:export-filename="C:\Users\antum\Development\game-resources\icon\CC0\food\individual\Glitch\32x32\drink\exotic_juice.png"
   inkscape:export-xdpi="10.5"
   inkscape:export-ydpi="10.5"><title
   id="title1464">Exotic Juice</title><metadata
   id="metadata657"><rdf:RDF><cc:Work
       rdf:about=""><dc:format>image/svg+xml</dc:format><dc:type
         rdf:resource="http://purl.org/dc/dcmitype/StillImage" /><dc:title>Exotic Juice</dc:title><cc:license
         rdf:resource="http://creativecommons.org/publicdomain/zero/1.0/" /><dc:creator><cc:Agent><dc:title>Glitch</dc:title></cc:Agent></dc:creator><dc:source>https://opengameart.org/node/20149</dc:source></cc:Work><cc:License
       rdf:about="http://creativecommons.org/publicdomain/zero/1.0/"><cc:permits
         rdf:resource="http://creativecommons.org/ns#Reproduction" /><cc:permits
         rdf:resource="http://creativecommons.org/ns#Distribution" /><cc:permits
         rdf:resource="http://creativecommons.org/ns#DerivativeWorks" /></cc:License></rdf:RDF></metadata><defs
   id="defs655"><linearGradient
     inkscape:collect="always"
     xlink:href="#SVGID_1_"
     id="linearGradient1815"
     gradientUnits="userSpaceOnUse"
     x1="0"
     y1="-2.3501"
     x2="18.200199"
     y2="-2.3501" /><linearGradient
     inkscape:collect="always"
     xlink:href="#SVGID_2_"
     id="linearGradient1817"
     gradientUnits="userSpaceOnUse"
     x1="0.0127"
     y1="-2.3501"
     x2="8.9877005"
     y2="-2.3501" /><linearGradient
     inkscape:collect="always"
     xlink:href="#SVGID_3_"
     id="linearGradient1819"
     gradientUnits="userSpaceOnUse"
     x1="0.024900001"
     y1="-1.1001"
     x2="4.375"
     y2="-1.1001" /><linearGradient
     inkscape:collect="always"
     xlink:href="#SVGID_4_"
     id="linearGradient1821"
     gradientUnits="userSpaceOnUse"
     x1="0.0127"
     y1="-1.8252"
     x2="3.8877001"
     y2="-1.8252" /><linearGradient
     inkscape:collect="always"
     xlink:href="#SVGID_5_"
     id="linearGradient1823"
     gradientUnits="userSpaceOnUse"
     gradientTransform="matrix(-0.0848,-0.9964,0.9964,-0.0848,17000.748,-710.6631)"
     x1="733.64697"
     y1="-16997.473"
     x2="737.18469"
     y2="-16997.473" /><linearGradient
     inkscape:collect="always"
     xlink:href="#SVGID_6_"
     id="linearGradient1825"
     gradientUnits="userSpaceOnUse"
     x1="0.0127"
     y1="-2.4043"
     x2="11.6792"
     y2="-2.4043" /><linearGradient
     inkscape:collect="always"
     xlink:href="#SVGID_7_"
     id="linearGradient1827"
     gradientUnits="userSpaceOnUse"
     x1="0.031300001"
     y1="-18.137699"
     x2="19.368601"
     y2="-18.137699" /><linearGradient
     inkscape:collect="always"
     xlink:href="#SVGID_8_"
     id="linearGradient1829"
     gradientUnits="userSpaceOnUse"
     x1="0.031300001"
     y1="-18.137699"
     x2="19.368601"
     y2="-18.137699" /></defs><sodipodi:namedview
   pagecolor="#ffffff"
   bordercolor="#666666"
   borderopacity="1"
   objecttolerance="10"
   gridtolerance="10"
   guidetolerance="10"
   inkscape:pageopacity="0"
   inkscape:pageshadow="2"
   inkscape:window-width="1920"
   inkscape:window-height="1025"
   id="namedview653"
   showgrid="false"
   inkscape:zoom="1.4625522"
   inkscape:cx="-191.35679"
   inkscape:cy="110.47257"
   inkscape:window-x="-8"
   inkscape:window-y="-8"
   inkscape:window-maximized="1"
   inkscape:current-layer="flash0.ai"
   fit-margin-top="0"
   fit-margin-left="0"
   fit-margin-right="0"
   fit-margin-bottom="0" />
<symbol
   id="flash0.ai_x5F_3_x2F_Layer_18_copy_x2F__x3C_Path_x3E__x5F_10"
   viewBox="0 -0.9 0.6 0.9"
   transform="translate(35.850699,89.172193)">
	<g
   id="Layer_1_17_">
		<path
   style="clip-rule:evenodd;fill:#ff8452;fill-rule:evenodd"
   d="M 0.6,-0.45 C 0.6,-0.75 0.5,-0.9 0.3,-0.9 0.1,-0.9 0,-0.75 0,-0.45 0,-0.15 0.1,0 0.3,0 0.5,0 0.6,-0.15 0.6,-0.45 Z"
   id="path2"
   inkscape:connector-curvature="0" />
	</g>
</symbol>
<symbol
   id="flash0.ai_x5F_3_x2F_Layer_18_copy_x2F__x3C_Path_x3E__x5F_11"
   viewBox="0 -0.95 0.6 0.95"
   transform="translate(35.850699,89.172193)">
	<g
   id="Layer_1_16_">
		<path
   style="clip-rule:evenodd;fill:#ff8452;fill-rule:evenodd"
   d="M 0.6,-0.5 C 0.6,-0.8 0.5,-0.95 0.3,-0.95 0.1,-0.95 0,-0.8 0,-0.5 0,-0.167 0.1,0 0.3,0 0.5,0 0.6,-0.167 0.6,-0.5 Z"
   id="path6"
   inkscape:connector-curvature="0" />
	</g>
</symbol>
<symbol
   id="flash0.ai_x5F_3_x2F_Layer_18_copy_x2F__x3C_Path_x3E__x5F_12"
   viewBox="0 -1.6 1.1 1.6"
   transform="translate(35.850699,89.172193)">
	<g
   id="Layer_1_15_">
		<path
   style="clip-rule:evenodd;fill:#ff8452;fill-rule:evenodd"
   d="M 1.1,-0.8 C 1.1,-1.334 0.916,-1.6 0.55,-1.6 0.184,-1.6 0,-1.333 0,-0.8 0,-0.267 0.183,0 0.55,0 0.917,0 1.1,-0.267 1.1,-0.8 Z"
   id="path10"
   inkscape:connector-curvature="0" />
	</g>
</symbol>
<symbol
   id="flash0.ai_x5F_3_x2F_Layer_18_copy_x2F__x3C_Path_x3E__x5F_13"
   viewBox="0 -1.2 0.85 1.2"
   transform="translate(35.850699,89.172193)">
	<g
   id="Layer_1_14_">
		<path
   style="clip-rule:evenodd;fill:#ff8452;fill-rule:evenodd"
   d="M 0.85,-0.6 C 0.85,-1 0.7,-1.2 0.4,-1.2 0.133,-1.2 0,-1 0,-0.6 0,-0.2 0.133,0 0.4,0 0.7,0 0.85,-0.2 0.85,-0.6 Z"
   id="path14"
   inkscape:connector-curvature="0" />
	</g>
</symbol>
<symbol
   id="flash0.ai_x5F_3_x2F_Layer_18_copy_x2F__x3C_Path_x3E__x5F_14"
   viewBox="0 -1.25 0.9 1.25"
   transform="translate(35.850699,89.172193)">
	<g
   id="Layer_1_13_">
		<path
   style="clip-rule:evenodd;fill:#ff8452;fill-rule:evenodd"
   d="M 0.9,-0.6 C 0.9,-1.033 0.75,-1.25 0.45,-1.25 0.15,-1.25 0,-1.033 0,-0.6 0,-0.2 0.15,0 0.45,0 0.75,0 0.9,-0.2 0.9,-0.6 Z"
   id="path18"
   inkscape:connector-curvature="0" />
	</g>
</symbol>
<symbol
   id="flash0.ai_x5F_3_x2F_Layer_18_copy_x2F__x3C_Path_x3E__x5F_15"
   viewBox="0 -1.9 1.35 1.9"
   transform="translate(35.850699,89.172193)">
	<g
   id="Layer_1_12_">
		<path
   style="clip-rule:evenodd;fill:#ff8452;fill-rule:evenodd"
   d="M 1.35,-0.95 C 1.35,-1.217 1.283,-1.433 1.15,-1.6 1.017,-1.8 0.867,-1.9 0.7,-1.9 0.233,-1.9 0,-1.583 0,-0.95 0,-0.317 0.233,0 0.7,0 c 0.167,0 0.316,-0.1 0.45,-0.3 0.133,-0.167 0.2,-0.383 0.2,-0.65 z"
   id="path22"
   inkscape:connector-curvature="0" />
	</g>
</symbol>
<symbol
   id="flash0.ai_x5F_3_x2F_Layer_18_copy_x2F__x3C_Path_x3E__x5F_16"
   viewBox="0 -1.2 0.9 1.2"
   transform="translate(35.850699,89.172193)">
	<g
   id="Layer_1_11_">
		<path
   style="clip-rule:evenodd;fill:#ff8452;fill-rule:evenodd"
   d="M 0.9,-0.6 C 0.9,-1 0.75,-1.2 0.45,-1.2 0.15,-1.2 0,-1 0,-0.6 0,-0.2 0.15,0 0.45,0 0.75,0 0.9,-0.2 0.9,-0.6 Z"
   id="path26"
   inkscape:connector-curvature="0" />
	</g>
</symbol>
<symbol
   id="flash0.ai_x5F_3_x2F_Layer_18_copy_x2F__x3C_Path_x3E__x5F_17"
   viewBox="0 -1.8 1.4 1.8"
   transform="translate(35.850699,89.172193)">
	<g
   id="Layer_1_10_">
		<path
   style="clip-rule:evenodd;fill:#ff8452;fill-rule:evenodd"
   d="M 1.4,-0.9 C 1.4,-1.133 1.334,-1.35 1.2,-1.55 1.033,-1.717 0.867,-1.8 0.7,-1.8 0.233,-1.8 0,-1.5 0,-0.9 0,-0.3 0.233,0 0.7,0 0.867,0 1.033,-0.083 1.2,-0.25 1.333,-0.45 1.4,-0.667 1.4,-0.9 Z"
   id="path30"
   inkscape:connector-curvature="0" />
	</g>
</symbol>
<symbol
   id="flash0.ai_x5F_3_x2F_Layer_18_copy_x2F__x3C_Path_x3E__x5F_23"
   viewBox="0 -4.7 18.2 4.7"
   transform="translate(35.850699,89.172193)">
	<g
   id="Layer_1_9_">
		<linearGradient
   id="SVGID_1_"
   gradientUnits="userSpaceOnUse"
   x1="0"
   y1="-2.3501"
   x2="18.200199"
   y2="-2.3501">
			<stop
   offset="0"
   style="stop-color:#829396"
   id="stop34" />
			<stop
   offset="1"
   style="stop-color:#F3F9FA"
   id="stop36" />
		</linearGradient>
		<path
   style="clip-rule:evenodd;fill:url(#linearGradient1815);fill-rule:evenodd"
   d="M 18.2,-2.35 C 18.2,-3.017 17.317,-3.567 15.55,-4 13.75,-4.467 11.6,-4.7 9.1,-4.7 6.567,-4.7 4.417,-4.467 2.65,-4 0.883,-3.567 0,-3.017 0,-2.35 0,-1.717 0.883,-1.167 2.65,-0.7 4.417,-0.233 6.567,0 9.1,0 c 2.5,0 4.65,-0.233 6.45,-0.7 1.767,-0.467 2.65,-1.017 2.65,-1.65 z"
   id="path39"
   inkscape:connector-curvature="0" />
	</g>
</symbol>
<symbol
   id="flash0.ai_x5F_3_x2F_Layer_18_copy_x2F__x3C_Path_x3E__x5F_29"
   viewBox="0 -4.7 9 4.7"
   transform="translate(35.850699,89.172193)">
	<g
   id="Layer_1_8_">
		<linearGradient
   id="SVGID_2_"
   gradientUnits="userSpaceOnUse"
   x1="0.0127"
   y1="-2.3501"
   x2="8.9877005"
   y2="-2.3501">
			<stop
   offset="0"
   style="stop-color:#F0FCFF"
   id="stop43" />
			<stop
   offset="1"
   style="stop-color:#9FC1C9"
   id="stop45" />
		</linearGradient>
		<path
   style="clip-rule:evenodd;fill:url(#linearGradient1817);fill-rule:evenodd"
   d="M 9,-2.35 C 9,-2.983 8.55,-3.533 7.65,-4 6.783,-4.467 5.733,-4.7 4.5,-4.7 3.267,-4.7 2.2,-4.467 1.3,-4 0.433,-3.567 0,-3.017 0,-2.35 0,-1.717 0.433,-1.167 1.3,-0.7 2.2,-0.233 3.267,0 4.5,0 5.733,0 6.783,-0.233 7.65,-0.7 8.55,-1.167 9,-1.717 9,-2.35 Z"
   id="path48"
   inkscape:connector-curvature="0" />
	</g>
</symbol>
<symbol
   id="flash0.ai_x5F_3_x2F_Layer_18_copy_x2F__x3C_Path_x3E__x5F_32"
   viewBox="0 -2.2 4.35 2.2"
   transform="translate(35.850699,89.172193)">
	<g
   id="Layer_1_7_">
		<linearGradient
   id="SVGID_3_"
   gradientUnits="userSpaceOnUse"
   x1="0.024900001"
   y1="-1.1001"
   x2="4.375"
   y2="-1.1001">
			<stop
   offset="0"
   style="stop-color:#F0FCFF"
   id="stop52" />
			<stop
   offset="1"
   style="stop-color:#9FC1C9"
   id="stop54" />
		</linearGradient>
		<path
   style="clip-rule:evenodd;fill:url(#linearGradient1819);fill-rule:evenodd"
   d="m 4.35,-1.1 c 0,-0.333 -0.2,-0.6 -0.6,-0.8 C 3.317,-2.1 2.8,-2.2 2.2,-2.2 1.6,-2.2 1.083,-2.1 0.65,-1.9 0.217,-1.7 0,-1.433 0,-1.1 0,-0.8 0.217,-0.55 0.65,-0.35 1.083,-0.117 1.6,0 2.2,0 c 0.6,0 1.117,-0.117 1.55,-0.35 0.4,-0.2 0.6,-0.45 0.6,-0.75 z"
   id="path57"
   inkscape:connector-curvature="0" />
	</g>
</symbol>
<symbol
   id="flash0.ai_x5F_3_x2F_Layer_18_copy_x2F__x3C_Path_x3E__x5F_34"
   viewBox="0 -3.65 3.9 3.65"
   transform="translate(35.850699,89.172193)">
	<g
   id="Layer_1_6_">
		<linearGradient
   id="SVGID_4_"
   gradientUnits="userSpaceOnUse"
   x1="0.0127"
   y1="-1.8252"
   x2="3.8877001"
   y2="-1.8252">
			<stop
   offset="0"
   style="stop-color:#F0FCFF"
   id="stop61" />
			<stop
   offset="1"
   style="stop-color:#9FC1C9"
   id="stop63" />
		</linearGradient>
		<path
   style="clip-rule:evenodd;fill:url(#linearGradient1821);fill-rule:evenodd"
   d="m 3.9,-1.85 c 0,-0.5 -0.2,-0.933 -0.6,-1.3 -0.367,-0.333 -0.816,-0.5 -1.35,-0.5 -0.534,0 -1,0.167 -1.4,0.5 -0.367,0.367 -0.55,0.8 -0.55,1.3 0,0.5 0.183,0.934 0.55,1.3 0.4,0.367 0.867,0.55 1.4,0.55 0.533,0 0.983,-0.183 1.35,-0.55 0.4,-0.367 0.6,-0.8 0.6,-1.3 z"
   id="path66"
   inkscape:connector-curvature="0" />
	</g>
</symbol>
<symbol
   id="flash0.ai_x5F_3_x2F_Layer_18_copy_x2F__x3C_Path_x3E__x5F_35"
   viewBox="-0.033 -1.311 3.646 1.328"
   transform="translate(35.850699,89.172193)">
	<g
   id="Layer_1_5_">
		<path
   style="clip-rule:evenodd;fill:#597092;fill-rule:evenodd"
   d="m 0,-0.45 c 0.8,-0.267 1.417,-0.4 1.85,-0.4 0.433,0 0.733,0.267 0.9,0.8 C 2.55,0.083 2.733,0.016 3.3,-0.25 3.733,-0.45 3.717,-0.7 3.25,-1 2.783,-1.3 2.167,-1.383 1.4,-1.25 0.3,-1.017 -0.167,-0.75 0,-0.45 Z"
   id="path70"
   inkscape:connector-curvature="0" />
	</g>
</symbol>
<symbol
   id="flash0.ai_x5F_3_x2F_Layer_18_copy_x2F__x3C_Path_x3E__x5F_37"
   viewBox="0 -3.85 4.356 3.85"
   transform="translate(35.850699,89.172193)">
	<g
   id="Layer_1_4_">
		
			<linearGradient
   id="SVGID_5_"
   gradientUnits="userSpaceOnUse"
   x1="733.64697"
   y1="-16997.473"
   x2="737.18469"
   y2="-16997.473"
   gradientTransform="matrix(-0.0848,-0.9964,0.9964,-0.0848,17000.748,-710.6631)">
			<stop
   offset="0"
   style="stop-color:#FFFFFF;stop-opacity:0.7569"
   id="stop74" />
			<stop
   offset="1"
   style="stop-color:#FFFFFF;stop-opacity:0"
   id="stop76" />
		</linearGradient>
		<path
   style="clip-rule:evenodd;fill:url(#linearGradient1823);fill-rule:evenodd"
   d="M 0,-0.35 0.2,0 c 1.167,-0.5 2.216,-1.033 3.15,-1.6 0.6,-0.367 0.933,-0.733 1,-1.1 0.033,-0.3 -0.067,-0.5 -0.3,-0.6 -0.2,-0.133 -0.667,-0.317 -1.4,-0.55 0.667,0.6 0.7,1.184 0.1,1.75 C 2.183,-1.567 1.267,-0.983 0,-0.35 Z"
   id="path79"
   inkscape:connector-curvature="0" />
	</g>
</symbol>
<symbol
   id="flash0.ai_x5F_3_x2F_Layer_18_copy_x2F__x3C_Path_x3E__x5F_38"
   viewBox="-0.008 -4.808 11.666 4.808"
   transform="translate(35.850699,89.172193)">
	<g
   id="Layer_1_3_">
		<linearGradient
   id="SVGID_6_"
   gradientUnits="userSpaceOnUse"
   x1="0.0127"
   y1="-2.4043"
   x2="11.6792"
   y2="-2.4043">
			<stop
   offset="0"
   style="stop-color:#F0FCFF"
   id="stop83" />
			<stop
   offset="1"
   style="stop-color:#9FC1C9"
   id="stop85" />
		</linearGradient>
		<path
   style="clip-rule:evenodd;fill:url(#linearGradient1825);fill-rule:evenodd"
   d="m 7.05,0 c 1.633,-0.7 2.767,-1.267 3.4,-1.7 1.4,-0.9 1.583,-1.6 0.55,-2.1 -1.633,-0.833 -3.35,-1.15 -5.15,-0.95 -1.867,-0.2 -3.6,0.117 -5.2,0.95 -1.033,0.5 -0.85,1.2 0.55,2.1 0.567,0.367 1.7,0.933 3.4,1.7 l 1.25,-0.1 z"
   id="path88"
   inkscape:connector-curvature="0" />
	</g>
</symbol>
<symbol
   id="flash0.ai_x5F_3_x2F_Layer_18_copy_x2F__x3C_Path_x3E__x5F_39"
   viewBox="0.031 -36.275 19.337 36.275"
   transform="translate(35.850699,89.172193)">
	<g
   id="Layer_1_2_">
		<linearGradient
   id="SVGID_7_"
   gradientUnits="userSpaceOnUse"
   x1="0.031300001"
   y1="-18.137699"
   x2="19.368601"
   y2="-18.137699">
			<stop
   offset="0"
   style="stop-color:#F0FCFF"
   id="stop92" />
			<stop
   offset="1"
   style="stop-color:#9FC1C9"
   id="stop94" />
		</linearGradient>
		<path
   style="clip-rule:evenodd;fill:url(#linearGradient1827);fill-rule:evenodd"
   d="m 18.8,-0.1 c -0.9,-1.3 -1.55,-2.983 -1.95,-5.05 -0.633,-3.267 -0.567,-7.083 0.2,-11.45 0.167,-1 0.767,-3.117 1.8,-6.35 0.767,-3.167 0.683,-5.75 -0.25,-7.75 -1.133,-2.4 -2.8,-4.05 -5,-4.95 -1.333,-0.5 -2.633,-0.7 -3.9,-0.6 -1.267,-0.1 -2.567,0.1 -3.9,0.6 -2.233,0.9 -3.9,2.55 -5,4.95 -0.933,2 -1.017,4.583 -0.25,7.75 1.034,3.233 1.633,5.35 1.8,6.35 0.767,4.467 0.817,8.333 0.15,11.6 -0.433,2.1 -1.1,3.767 -2,5 0.633,-0.5 1.783,-0.917 3.45,-1.25 1.733,-0.333 3.65,-0.5 5.75,-0.5 2.066,0 3.933,0.15 5.6,0.45 1.633,0.3 2.8,0.7 3.5,1.2 z"
   id="path97"
   inkscape:connector-curvature="0" />
	</g>
</symbol>
<symbol
   id="flash0.ai_x5F_3_x2F_Layer_18_copy_x2F__x3C_Path_x3E__x5F_6"
   viewBox="0 -32.5 3.486 32.5"
   transform="translate(35.850699,89.172193)">
	<g
   id="Layer_1_20_">
		<path
   style="clip-rule:evenodd;fill:#ffffff;fill-rule:evenodd"
   d="M 1.05,-0.55 2.95,0 C 2.817,-0.167 2.533,-0.85 2.1,-2.05 1.633,-3.317 1.283,-5.084 1.05,-7.35 0.717,-10.217 0.8,-12.5 1.3,-14.2 1.7,-15.567 2.25,-17.317 2.95,-19.45 3.45,-21.283 3.6,-23.233 3.4,-25.3 3.2,-27.267 2.584,-29.05 1.55,-30.65 1.017,-31.483 0.5,-32.1 0,-32.5 c 0.567,0.567 1.117,1.383 1.65,2.45 1.067,2.133 1.517,4.483 1.35,7.05 -0.067,1.3 -0.633,3.383 -1.7,6.25 -0.933,2.6 -1.35,5 -1.25,7.2 0.167,3.333 0.5,6.333 1,9 z"
   id="path101"
   inkscape:connector-curvature="0" />
	</g>
</symbol>
<symbol
   id="flash0.ai_x5F_3_x2F_Layer_18_copy_x2F__x3C_Path_x3E__x5F_8"
   viewBox="0.031 -36.275 19.337 36.275"
   transform="translate(35.850699,89.172193)">
	<g
   id="Layer_1_19_">
		<linearGradient
   id="SVGID_8_"
   gradientUnits="userSpaceOnUse"
   x1="0.031300001"
   y1="-18.137699"
   x2="19.368601"
   y2="-18.137699">
			<stop
   offset="0"
   style="stop-color:#F0FCFF"
   id="stop105" />
			<stop
   offset="1"
   style="stop-color:#9FC1C9"
   id="stop107" />
		</linearGradient>
		<path
   style="clip-rule:evenodd;fill:url(#linearGradient1829);fill-rule:evenodd"
   d="m 18.8,-0.1 c -0.9,-1.3 -1.55,-2.983 -1.95,-5.05 -0.633,-3.267 -0.567,-7.083 0.2,-11.45 0.167,-1 0.767,-3.117 1.8,-6.35 0.767,-3.167 0.683,-5.75 -0.25,-7.75 -1.133,-2.4 -2.8,-4.05 -5,-4.95 -1.333,-0.5 -2.633,-0.7 -3.9,-0.6 -1.267,-0.1 -2.567,0.1 -3.9,0.6 -2.233,0.9 -3.9,2.55 -5,4.95 -0.933,2 -1.017,4.583 -0.25,7.75 1.034,3.233 1.633,5.35 1.8,6.35 0.767,4.467 0.817,8.333 0.15,11.6 -0.433,2.1 -1.1,3.767 -2,5 0.633,-0.5 1.783,-0.917 3.45,-1.25 1.733,-0.333 3.65,-0.5 5.75,-0.5 2.066,0 3.933,0.15 5.6,0.45 1.633,0.3 2.8,0.7 3.5,1.2 z"
   id="path110"
   inkscape:connector-curvature="0" />
	</g>
</symbol>
<symbol
   id="flash0.ai_x5F_3_x2F_Layer_18_copy_x2F__x3C_Path_x3E__x5F_9"
   viewBox="0 -1.65 1.25 1.65"
   transform="translate(35.850699,89.172193)">
	<g
   id="Layer_1_18_">
		<path
   style="clip-rule:evenodd;fill:#ff8452;fill-rule:evenodd"
   d="M 1.25,-0.85 C 1.25,-1.383 1.033,-1.65 0.6,-1.65 0.2,-1.65 0,-1.383 0,-0.85 0,-0.283 0.2,0 0.6,0 1.033,0 1.25,-0.283 1.25,-0.85 Z"
   id="path114"
   inkscape:connector-curvature="0" />
	</g>
</symbol>
<g
   id="g648"
   transform="matrix(6.9839223,0,0,6.9839223,10.372689,-143.17041)">
		
			<use
   id="use517"
   style="overflow:visible;opacity:0.39840004;enable-background:new"
   transform="matrix(0.75,0,0,-0.75,-17.287924,89.329345)"
   y="-36.275002"
   x="0.030999999"
   height="36.275002"
   width="19.337"
   xlink:href="#flash0.ai_x5F_3_x2F_Layer_18_copy_x2F__x3C_Path_x3E__x5F_39" />
		
			<use
   id="use519"
   style="overflow:visible;opacity:0.89060005;enable-background:new"
   transform="matrix(0.75,0,0,-0.75,-13.937824,120.32934)"
   y="-4.8080001"
   x="-0.0080000004"
   height="4.8080001"
   width="11.666"
   xlink:href="#flash0.ai_x5F_3_x2F_Layer_18_copy_x2F__x3C_Path_x3E__x5F_38" />
		
			<use
   x="0"
   id="use521"
   style="overflow:visible;opacity:0.62889997;enable-background:new"
   transform="matrix(0.75,0,0,-0.75,-8.6878242,120.67894)"
   y="-3.8499999"
   height="3.8499999"
   width="4.3559999"
   xlink:href="#flash0.ai_x5F_3_x2F_Layer_18_copy_x2F__x3C_Path_x3E__x5F_37" />
		<path
   inkscape:connector-curvature="0"
   id="path523"
   d="m 18.25,53.426 -0.9,0.074 -0.938,-0.074 c -1.275,0.574 -2.125,0.999 -2.55,1.273 -1.05,0.676 -1.188,1.201 -0.413,1.576 1.2,0.625 2.5,0.861 3.9,0.713 1.35,0.148 2.637,-0.088 3.863,-0.713 0.774,-0.375 0.637,-0.9 -0.413,-1.576 -0.474,-0.324 -1.324,-0.75 -2.549,-1.273 z"
   style="clip-rule:evenodd;fill:none;fill-rule:evenodd;stroke:#e3faff;stroke-width:0.25" />
		
			<use
   id="use525"
   style="overflow:visible;opacity:0.32809999;enable-background:new"
   transform="matrix(0.75,0,0,-0.75,-10.437824,120.52954)"
   y="-1.311"
   x="-0.033"
   height="1.3279999"
   width="3.6459999"
   xlink:href="#flash0.ai_x5F_3_x2F_Layer_18_copy_x2F__x3C_Path_x3E__x5F_35" />
		
			<use
   x="0"
   id="use527"
   style="overflow:visible;opacity:0.96089998;enable-background:new"
   transform="matrix(0.75,0,0,-0.75,-10.988124,118.42894)"
   y="-3.6500001"
   height="3.6500001"
   width="3.9000001"
   xlink:href="#flash0.ai_x5F_3_x2F_Layer_18_copy_x2F__x3C_Path_x3E__x5F_34" />
		<path
   inkscape:connector-curvature="0"
   id="path529"
   d="m 18.813,52.938 c 0,0.375 -0.15,0.7 -0.45,0.975 -0.274,0.251 -0.612,0.375 -1.012,0.375 -0.4,0 -0.75,-0.124 -1.05,-0.375 -0.275,-0.274 -0.413,-0.6 -0.413,-0.975 0,-0.375 0.138,-0.7 0.413,-0.975 0.3,-0.275 0.65,-0.412 1.05,-0.412 0.4,0 0.738,0.137 1.012,0.412 0.299,0.274 0.45,0.6 0.45,0.975 z"
   style="clip-rule:evenodd;fill:none;fill-rule:evenodd;stroke:#e3faff;stroke-width:0.25" />
		
			<use
   x="0"
   id="use531"
   style="overflow:visible;opacity:0.82029999;enable-background:new"
   transform="matrix(0.75,0,0,-0.75,-11.238124,117.67894)"
   y="-2.2"
   height="2.2"
   width="4.3499999"
   xlink:href="#flash0.ai_x5F_3_x2F_Layer_18_copy_x2F__x3C_Path_x3E__x5F_32" />
		
			<linearGradient
   gradientTransform="matrix(0.541,0.5194,-0.5194,0.541,9.3995,20.5002)"
   y2="23.602501"
   x2="36.4193"
   y1="23.602501"
   x1="34.686501"
   gradientUnits="userSpaceOnUse"
   id="SVGID_36_">
			<stop
   id="stop533"
   style="stop-color:#FFFFFF;stop-opacity:0.7569"
   offset="0" />
			<stop
   id="stop535"
   style="stop-color:#FFFFFF;stop-opacity:0"
   offset="1" />
		</linearGradient>
		<path
   inkscape:connector-curvature="0"
   id="path538"
   d="m 16.075,51.475 0.375,0.037 v 0.227 c 0,0.148 0.15,0.312 0.45,0.486 L 16.413,52 c -0.175,-0.074 -0.288,-0.188 -0.338,-0.338 z"
   style="clip-rule:evenodd;fill:url(#SVGID_36_);fill-rule:evenodd" />
		<path
   inkscape:connector-curvature="0"
   id="path540"
   d="m 18.925,51.625 c 0,0.25 -0.149,0.449 -0.45,0.6 -0.325,0.15 -0.712,0.225 -1.162,0.225 -0.45,0 -0.838,-0.074 -1.163,-0.225 -0.325,-0.151 -0.487,-0.35 -0.487,-0.6 0,-0.225 0.163,-0.412 0.487,-0.563 0.325,-0.175 0.712,-0.262 1.163,-0.262 0.45,0 0.837,0.087 1.162,0.262 0.3,0.151 0.45,0.338 0.45,0.563 z"
   style="clip-rule:evenodd;fill:none;fill-rule:evenodd;stroke:#e3faff;stroke-width:0.25" />
		
			<use
   x="0"
   id="use542"
   style="overflow:visible;opacity:0.82810005;enable-background:new"
   transform="matrix(0.75,0,0,-0.75,-13.037924,114.92894)"
   y="-4.6999998"
   height="4.6999998"
   width="9"
   xlink:href="#flash0.ai_x5F_3_x2F_Layer_18_copy_x2F__x3C_Path_x3E__x5F_29" />
		
			<linearGradient
   gradientTransform="matrix(-0.3903,0.6404,-0.6404,-0.3903,9.4,20.5001)"
   y2="-31.928699"
   x2="28.274401"
   y1="-31.928699"
   x1="25.200199"
   gradientUnits="userSpaceOnUse"
   id="SVGID_37_">
			<stop
   id="stop544"
   style="stop-color:#FFFFFF;stop-opacity:0.7569"
   offset="0" />
			<stop
   id="stop546"
   style="stop-color:#FFFFFF;stop-opacity:0"
   offset="1" />
		</linearGradient>
		<path
   inkscape:connector-curvature="0"
   id="path549"
   d="m 19.487,49.188 0.938,-0.15 -0.525,1.013 c -0.351,0.649 -0.838,0.975 -1.463,0.975 0.3,-0.076 0.588,-0.301 0.862,-0.676 0.2,-0.225 0.288,-0.486 0.263,-0.787 z"
   style="clip-rule:evenodd;fill:url(#SVGID_37_);fill-rule:evenodd" />
		
			<linearGradient
   gradientTransform="matrix(0.4773,0.5785,-0.5785,0.4773,9.3998,20.5)"
   y2="19.0527"
   x2="37.1133"
   y1="19.0527"
   x1="34.5205"
   gradientUnits="userSpaceOnUse"
   id="SVGID_38_">
			<stop
   id="stop551"
   style="stop-color:#FFFFFF;stop-opacity:0.7569"
   offset="0" />
			<stop
   id="stop553"
   style="stop-color:#FFFFFF;stop-opacity:0"
   offset="1" />
		</linearGradient>
		<path
   inkscape:connector-curvature="0"
   id="path556"
   d="m 14.688,49.375 0.6,0.037 c 0.375,0.05 0.45,0.188 0.225,0.412 -0.35,0.351 -0.175,0.801 0.525,1.352 -0.35,0 -0.713,-0.188 -1.088,-0.563 -0.25,-0.227 -0.362,-0.501 -0.337,-0.826 z"
   style="clip-rule:evenodd;fill:url(#SVGID_38_);fill-rule:evenodd" />
		<path
   inkscape:connector-curvature="0"
   id="path558"
   d="m 20.612,49.787 c 0,0.476 -0.337,0.888 -1.013,1.238 -0.649,0.35 -1.438,0.525 -2.362,0.525 -0.924,0 -1.725,-0.176 -2.4,-0.525 -0.65,-0.325 -0.975,-0.738 -0.975,-1.238 0,-0.475 0.325,-0.888 0.975,-1.236 0.675,-0.351 1.475,-0.525 2.4,-0.525 0.925,0 1.713,0.174 2.363,0.525 0.675,0.348 1.012,0.762 1.012,1.236 z"
   style="clip-rule:evenodd;fill:none;fill-rule:evenodd;stroke:#e3faff;stroke-width:0.25" />
		
			<linearGradient
   gradientTransform="matrix(0.1178,0.7407,-0.7407,0.1178,9.4,20.5)"
   y2="-2.8633001"
   x2="45.007401"
   y1="-2.8633001"
   x1="43.8936"
   gradientUnits="userSpaceOnUse"
   id="SVGID_39_">
			<stop
   id="stop560"
   style="stop-color:#FFFFFF;stop-opacity:0.7569"
   offset="0" />
			<stop
   id="stop562"
   style="stop-color:#FFFFFF;stop-opacity:0"
   offset="1" />
		</linearGradient>
		<path
   inkscape:connector-curvature="0"
   id="path565"
   d="m 16.6,52.787 c 0.25,-0.074 0.437,0.05 0.563,0.375 0.125,0.301 0.012,0.438 -0.338,0.412 -0.325,-0.024 -0.475,-0.161 -0.45,-0.412 0,-0.224 0.075,-0.349 0.225,-0.375 z"
   style="clip-rule:evenodd;fill:url(#SVGID_39_);fill-rule:evenodd" />
		
			<linearGradient
   gradientTransform="matrix(-0.0652,0.7472,-0.7472,-0.0652,9.3992,20.5003)"
   y2="-10.9697"
   x2="47.201"
   y1="-10.9697"
   x1="44.039101"
   gradientUnits="userSpaceOnUse"
   id="SVGID_40_">
			<stop
   id="stop567"
   style="stop-color:#FFFFFF;stop-opacity:0.7569"
   offset="0" />
			<stop
   id="stop569"
   style="stop-color:#FFFFFF;stop-opacity:0"
   offset="1" />
		</linearGradient>
		<path
   inkscape:connector-curvature="0"
   id="path572"
   d="m 15.775,54.137 -0.6,0.301 c -0.4,0.274 -0.65,0.588 -0.75,0.938 -0.175,0.575 0.1,0.95 0.825,1.125 -0.225,0.025 -0.638,-0.101 -1.238,-0.375 -0.4,-0.175 -0.55,-0.35 -0.45,-0.525 0.225,-0.199 0.4,-0.375 0.525,-0.525 0.2,-0.175 0.538,-0.387 1.013,-0.637 z"
   style="clip-rule:evenodd;fill:url(#SVGID_40_);fill-rule:evenodd" />
		
			<use
   x="0"
   id="use574"
   style="overflow:visible;opacity:0.42190001;enable-background:new"
   transform="matrix(0.75,0,0,-0.75,-16.838224,87.529045)"
   y="-4.6999998"
   height="4.6999998"
   width="18.200001"
   xlink:href="#flash0.ai_x5F_3_x2F_Layer_18_copy_x2F__x3C_Path_x3E__x5F_23" />
		
			<radialGradient
   gradientUnits="userSpaceOnUse"
   gradientTransform="matrix(0.2135,0.719,0.719,-0.2135,10.8706,20.0634)"
   r="15.1517"
   cy="-1.0225"
   cx="22.7314"
   id="SVGID_41_">
			<stop
   id="stop576"
   style="stop-color:#FF6D40"
   offset="0" />
			<stop
   id="stop578"
   style="stop-color:#AD4305"
   offset="1" />
		</radialGradient>
		<path
   inkscape:connector-curvature="0"
   id="path581"
   d="m 11.913,29.65 9.937,0.074 0.113,2.101 c 0.074,1.5 0.188,2.55 0.337,3.149 0.075,0.375 0.313,1.238 0.713,2.588 0.375,1.4 0.675,2.6 0.899,3.6 0.426,1.925 -0.013,3.851 -1.313,5.775 -0.425,0.649 -1.162,1.25 -2.212,1.801 -1.175,0.6 -2.362,0.898 -3.563,0.898 -1.175,0.026 -2.15,-0.137 -2.925,-0.486 -0.575,-0.275 -1.313,-0.787 -2.212,-1.537 -0.75,-0.626 -1.3,-1.476 -1.65,-2.551 C 9.737,44.112 9.612,43.086 9.662,41.987 9.712,41.162 9.95,40 10.375,38.5 c 0.5,-1.55 0.813,-2.6 0.938,-3.15 0.175,-0.675 0.325,-1.824 0.45,-3.449 z"
   style="clip-rule:evenodd;fill:url(#SVGID_41_);fill-rule:evenodd" />
		<path
   inkscape:connector-curvature="0"
   id="path583"
   d="m 15.737,49.488 c -1.175,-0.2 -1.862,-0.501 -2.063,-0.9 -0.25,-0.425 0.525,-0.726 2.325,-0.9 1.9,-0.2 3.25,-0.175 4.05,0.074 0.675,0.227 0.862,0.538 0.563,0.938 -0.25,0.375 -0.862,0.639 -1.837,0.789 -1,0.174 -2.012,0.174 -3.038,-10e-4 z"
   style="clip-rule:evenodd;fill:#99360d;fill-rule:evenodd" />
		<path
   inkscape:connector-curvature="0"
   id="path585"
   d="m 21.85,29.65 c 0,0.875 -1.662,1.412 -4.987,1.612 -1.3,0.075 -2.5,-0.075 -3.6,-0.45 -1,-0.375 -1.5,-0.763 -1.5,-1.162 0,-0.351 0.488,-0.613 1.463,-0.788 0.9,-0.175 2.075,-0.263 3.525,-0.263 1.475,0 2.675,0.088 3.6,0.263 0.999,0.175 1.499,0.438 1.499,0.788 z"
   style="clip-rule:evenodd;fill:#ffffff;fill-rule:evenodd" />
		<path
   inkscape:connector-curvature="0"
   id="path587"
   d="m 21.888,29.575 c 0,0.35 -0.487,0.662 -1.463,0.938 -0.975,0.25 -2.149,0.375 -3.525,0.375 -1.375,0 -2.563,-0.125 -3.563,-0.375 -0.975,-0.275 -1.462,-0.588 -1.462,-0.938 0,-0.375 0.487,-0.688 1.462,-0.938 0.975,-0.275 2.163,-0.413 3.563,-0.413 1.375,0 2.55,0.138 3.525,0.413 0.975,0.25 1.463,0.563 1.463,0.938 z"
   style="clip-rule:evenodd;fill:#ffffff;fill-rule:evenodd" />
		
			<linearGradient
   gradientTransform="matrix(-0.664,0.3488,-0.3488,-0.664,9.3997,20.5003)"
   y2="-15.3818"
   x2="3.3223"
   y1="-15.3818"
   x1="-7.2676001"
   gradientUnits="userSpaceOnUse"
   id="SVGID_42_">
			<stop
   id="stop589"
   style="stop-color:#FF6D40"
   offset="0" />
			<stop
   id="stop591"
   style="stop-color:#AD4305"
   offset="1" />
		</linearGradient>
		<path
   inkscape:connector-curvature="0"
   id="path594"
   d="m 21.775,29.65 c 0,0.375 -0.488,0.688 -1.463,0.938 -0.95,0.25 -2.125,0.375 -3.525,0.375 -1.4,0 -2.575,-0.125 -3.525,-0.375 -0.975,-0.25 -1.462,-0.563 -1.462,-0.938 0,-0.375 0.488,-0.688 1.462,-0.938 0.95,-0.25 2.125,-0.375 3.525,-0.375 1.4,0 2.575,0.125 3.525,0.375 0.975,0.25 1.463,0.563 1.463,0.938 z"
   style="clip-rule:evenodd;fill:url(#SVGID_42_);fill-rule:evenodd" />
		
			<use
   x="0"
   id="use596"
   style="overflow:visible;opacity:0.66019999;enable-background:new"
   transform="matrix(0.75,0,0,-0.75,-8.0384242,110.17894)"
   y="-1.8"
   height="1.8"
   width="1.4"
   xlink:href="#flash0.ai_x5F_3_x2F_Layer_18_copy_x2F__x3C_Path_x3E__x5F_17" />
		
			<use
   x="0"
   id="use598"
   style="overflow:visible;opacity:0.66019999;enable-background:new"
   transform="matrix(0.75,0,0,-0.75,-8.8382242,102.97874)"
   y="-1.2"
   height="1.2"
   width="0.89999998"
   xlink:href="#flash0.ai_x5F_3_x2F_Layer_18_copy_x2F__x3C_Path_x3E__x5F_16" />
		
			<use
   x="0"
   id="use600"
   style="overflow:visible;opacity:0.66019999;enable-background:new"
   transform="matrix(0.75,0,0,-0.75,-13.138024,112.57934)"
   y="-1.9"
   height="1.9"
   width="1.35"
   xlink:href="#flash0.ai_x5F_3_x2F_Layer_18_copy_x2F__x3C_Path_x3E__x5F_15" />
		
			<use
   x="0"
   id="use602"
   style="overflow:visible;opacity:0.66019999;enable-background:new"
   transform="matrix(0.75,0,0,-0.75,-14.037924,109.32934)"
   y="-1.25"
   height="1.25"
   width="0.89999998"
   xlink:href="#flash0.ai_x5F_3_x2F_Layer_18_copy_x2F__x3C_Path_x3E__x5F_14" />
		
			<use
   x="0"
   id="use604"
   style="overflow:visible;opacity:0.66019999;enable-background:new"
   transform="matrix(0.75,0,0,-0.75,-12.588224,108.72874)"
   y="-1.2"
   height="1.2"
   width="0.85000002"
   xlink:href="#flash0.ai_x5F_3_x2F_Layer_18_copy_x2F__x3C_Path_x3E__x5F_13" />
		
			<use
   x="0"
   id="use606"
   style="overflow:visible;opacity:0.66019999;enable-background:new"
   transform="matrix(0.75,0,0,-0.75,-14.537924,102.82934)"
   y="-1.6"
   height="1.6"
   width="1.1"
   xlink:href="#flash0.ai_x5F_3_x2F_Layer_18_copy_x2F__x3C_Path_x3E__x5F_12" />
		
			<use
   x="0"
   id="use608"
   style="overflow:visible;opacity:0.66019999;enable-background:new"
   transform="matrix(0.75,0,0,-0.75,-6.1380242,99.079345)"
   y="-0.94999999"
   height="0.94999999"
   width="0.60000002"
   xlink:href="#flash0.ai_x5F_3_x2F_Layer_18_copy_x2F__x3C_Path_x3E__x5F_11" />
		
			<use
   x="0"
   id="use610"
   style="overflow:visible;opacity:0.66019999;enable-background:new"
   transform="matrix(0.75,0,0,-0.75,-5.9378242,100.42894)"
   y="-0.89999998"
   height="0.89999998"
   width="0.60000002"
   xlink:href="#flash0.ai_x5F_3_x2F_Layer_18_copy_x2F__x3C_Path_x3E__x5F_10" />
		
			<use
   x="0"
   id="use612"
   style="overflow:visible;opacity:0.66019999;enable-background:new"
   transform="matrix(0.75,0,0,-0.75,-4.9378242,108.42894)"
   y="-1.65"
   height="1.65"
   width="1.25"
   xlink:href="#flash0.ai_x5F_3_x2F_Layer_18_copy_x2F__x3C_Path_x3E__x5F_9" />
		<path
   inkscape:connector-curvature="0"
   id="path614"
   d="m 15.775,30.287 c 0.3,0 0.45,0.138 0.45,0.413 0,0.3 -0.15,0.45 -0.45,0.45 -0.275,0 -0.413,-0.15 -0.413,-0.45 0,-0.275 0.138,-0.413 0.413,-0.413 z m 0,0.676 c 0.2,0 0.3,-0.101 0.3,-0.301 0,-0.225 -0.1,-0.337 -0.3,-0.337 -0.225,0 -0.337,0.112 -0.337,0.337 0,0.2 0.112,0.301 0.337,0.301 z"
   style="clip-rule:evenodd;fill:#ffffff;fill-rule:evenodd" />
		<path
   inkscape:connector-curvature="0"
   id="path616"
   d="m 16.675,31.225 c -0.175,0 -0.337,-0.063 -0.487,-0.188 C 16.063,30.912 16,30.763 16,30.588 c 0,-0.176 0.063,-0.338 0.188,-0.488 0.15,-0.125 0.313,-0.188 0.487,-0.188 0.174,0 0.325,0.063 0.45,0.188 0.125,0.15 0.188,0.313 0.188,0.488 0,0.175 -0.063,0.324 -0.188,0.449 -0.125,0.125 -0.275,0.188 -0.45,0.188 z m -0.038,-1.2 c -0.325,0 -0.487,0.162 -0.487,0.487 0,0.3 0.163,0.45 0.487,0.45 0.325,0 0.488,-0.15 0.488,-0.45 0,-0.324 -0.163,-0.487 -0.488,-0.487 z"
   style="clip-rule:evenodd;fill:#ffffff;fill-rule:evenodd" />
		
			<use
   id="use618"
   style="overflow:visible;opacity:0.17970001;enable-background:new"
   transform="matrix(0.75,0,0,-0.75,-17.287924,89.329345)"
   y="-36.275002"
   x="0.030999999"
   height="36.275002"
   width="19.337"
   xlink:href="#flash0.ai_x5F_3_x2F_Layer_18_copy_x2F__x3C_Path_x3E__x5F_8" />
		<path
   inkscape:connector-curvature="0"
   id="path620"
   d="m 23.575,22.675 c -0.5,0.375 -1.351,0.675 -2.55,0.9 -1.25,0.225 -2.638,0.337 -4.163,0.337 -1.575,0 -3,-0.125 -4.275,-0.375 -1.25,-0.25 -2.1,-0.563 -2.55,-0.938 0.675,0.951 1.162,2.2 1.462,3.75 0.5,2.451 0.462,5.325 -0.113,8.625 -0.125,0.75 -0.575,2.338 -1.35,4.763 -0.55,2.351 -0.475,4.263 0.225,5.737 0.825,1.801 2.063,3.037 3.713,3.713 0.975,0.375 1.925,0.525 2.85,0.449 0.95,0.076 1.913,-0.074 2.888,-0.449 1.649,-0.676 2.887,-1.912 3.712,-3.713 0.7,-1.475 0.775,-3.387 0.226,-5.737 -0.775,-2.425 -1.226,-4.013 -1.351,-4.763 -0.575,-3.25 -0.625,-6.087 -0.149,-8.512 0.3,-1.574 0.775,-2.837 1.425,-3.787 z"
   style="clip-rule:evenodd;fill:none;fill-rule:evenodd;stroke:#e3faff;stroke-width:0.75" />
		
			<use
   x="0"
   id="use622"
   style="overflow:visible;opacity:0.23049999;enable-background:new"
   transform="matrix(0.75,0,0,-0.75,-7.0384242,90.379145)"
   y="-32.5"
   height="32.5"
   width="3.4860001"
   xlink:href="#flash0.ai_x5F_3_x2F_Layer_18_copy_x2F__x3C_Path_x3E__x5F_6" />
		<path
   inkscape:connector-curvature="0"
   id="path624"
   d="m 22.037,21.063 c 1.4,0.35 2.101,0.787 2.101,1.313 0,0.5 -0.7,0.938 -2.101,1.313 -1.425,0.35 -3.138,0.525 -5.137,0.525 -2,0 -3.712,-0.175 -5.138,-0.525 -1.425,-0.375 -2.137,-0.813 -2.137,-1.313 0,-0.525 0.712,-0.962 2.137,-1.313 1.4,-0.375 3.113,-0.563 5.138,-0.563 1.999,0 3.712,0.188 5.137,0.563 z m -0.449,2.212 c 1.3,-0.275 1.949,-0.625 1.949,-1.051 0,-0.399 -0.649,-0.75 -1.949,-1.05 -1.325,-0.3 -2.913,-0.45 -4.763,-0.45 -1.825,0 -3.4,0.15 -4.725,0.45 -1.3,0.3 -1.95,0.65 -1.95,1.05 0,0.425 0.65,0.775 1.95,1.051 1.325,0.3 2.9,0.449 4.725,0.449 1.85,0.001 3.438,-0.149 4.763,-0.449 z"
   style="clip-rule:evenodd;fill:#e3faff;fill-rule:evenodd" />
		
			<linearGradient
   gradientTransform="matrix(6.185567e-5,0.75,-0.75,-7.5e-4,9.3996,20.4998)"
   y2="-4.5864"
   x2="17.007799"
   y1="-4.5864"
   x1="4.8828001"
   gradientUnits="userSpaceOnUse"
   id="SVGID_43_">
			<stop
   id="stop626"
   style="stop-color:#FFFFFF;stop-opacity:0.7569"
   offset="0" />
			<stop
   id="stop628"
   style="stop-color:#FFFFFF;stop-opacity:0"
   offset="1" />
		</linearGradient>
		<path
   inkscape:connector-curvature="0"
   id="path631"
   d="m 11.95,23.612 0.713,0.075 c 0.25,0 0.5,0.087 0.75,0.263 0.3,0.975 0.387,2.55 0.262,4.725 -0.147,2.413 -0.504,4.075 -1.069,4.987 0.168,-0.31 0.299,-1.497 0.394,-3.563 0.1,-2.049 -0.05,-3.75 -0.45,-5.1 -0.175,-0.674 -0.375,-1.137 -0.6,-1.387 z"
   style="clip-rule:evenodd;fill:url(#SVGID_43_);fill-rule:evenodd" />
		
			<linearGradient
   gradientTransform="matrix(-0.0216,0.7497,-0.7497,-0.0216,9.3992,20.5002)"
   y2="-4.3242002"
   x2="27.224501"
   y1="-4.3242002"
   x1="23.747999"
   gradientUnits="userSpaceOnUse"
   id="SVGID_44_">
			<stop
   id="stop633"
   style="stop-color:#FFFFFF;stop-opacity:0.5098"
   offset="0" />
			<stop
   id="stop635"
   style="stop-color:#FFFFFF;stop-opacity:0"
   offset="1" />
		</linearGradient>
		<path
   inkscape:connector-curvature="0"
   id="path638"
   d="m 11.837,38.612 c 0.225,-0.225 0.487,-0.325 0.788,-0.3 0.275,0.025 0.375,0.1 0.3,0.225 -0.35,0.676 -0.575,1.601 -0.675,2.775 -0.075,0.75 -0.225,1 -0.45,0.75 -0.45,-0.575 -0.625,-1.237 -0.525,-1.987 0.05,-0.625 0.238,-1.112 0.562,-1.463 z"
   style="clip-rule:evenodd;fill:url(#SVGID_44_);fill-rule:evenodd" />
		<path
   inkscape:connector-curvature="0"
   id="path640"
   d="m 17.05,28.188 c 0,0.1 -0.05,0.15 -0.15,0.15 -0.075,0 -0.112,-0.05 -0.112,-0.15 L 16.9,28.076 c 0.1,-0.001 0.15,0.036 0.15,0.112 z"
   style="clip-rule:evenodd;fill:#ffffff;fill-rule:evenodd" />
		<path
   inkscape:connector-curvature="0"
   id="path642"
   d="m 21.4,28.787 c 0,0.15 -0.075,0.226 -0.226,0.226 -0.125,0 -0.188,-0.075 -0.188,-0.226 0,-0.125 0.063,-0.188 0.188,-0.188 0.151,0.001 0.226,0.064 0.226,0.188 z"
   style="clip-rule:evenodd;fill:#ffffff;fill-rule:evenodd" />
		<path
   inkscape:connector-curvature="0"
   id="path644"
   d="m 20.987,28.675 c 0,0.1 -0.037,0.15 -0.112,0.15 -0.101,0 -0.15,-0.05 -0.15,-0.15 0,-0.075 0.05,-0.112 0.15,-0.112 0.075,0 0.112,0.037 0.112,0.112 z"
   style="clip-rule:evenodd;fill:#ffffff;fill-rule:evenodd" />
		
			<rect
   id="rect646"
   height="0.106"
   width="0.106"
   style="clip-rule:evenodd;fill:#ffffff;fill-rule:evenodd"
   transform="matrix(0.7071,-0.7071,0.7071,0.7071,-16.7067,17.3169)"
   y="28.771999"
   x="12.497" />
	</g>
</svg>