<?xml version="1.0" encoding="UTF-8" standalone="no"?>
<!-- Generator: Adobe Illustrator 15.1.0, SVG Export Plug-In . SVG Version: 6.00 Build 0)  -->

<svg
   xmlns:dc="http://purl.org/dc/elements/1.1/"
   xmlns:cc="http://creativecommons.org/ns#"
   xmlns:rdf="http://www.w3.org/1999/02/22-rdf-syntax-ns#"
   xmlns:svg="http://www.w3.org/2000/svg"
   xmlns="http://www.w3.org/2000/svg"
   xmlns:xlink="http://www.w3.org/1999/xlink"
   xmlns:sodipodi="http://sodipodi.sourceforge.net/DTD/sodipodi-0.dtd"
   xmlns:inkscape="http://www.inkscape.org/namespaces/inkscape"
   version="1.1"
   id="flash0.ai"
   x="0px"
   y="0px"
   width="256"
   height="256"
   viewBox="0 0 256.00001 256.00001"
   xml:space="preserve"
   sodipodi:docname="flaming_humbaba.svg"
   inkscape:version="0.92.4 (5da689c313, 2019-01-14)"
   inkscape:export-filename="C:\Users\antum\Development\game-resources\icon\CC0\food\individual\Glitch\32x32\drink\flaming_humbaba.png"
   inkscape:export-xdpi="10.5"
   inkscape:export-ydpi="10.5"><title
   id="title1016">Flaming Humbaba</title><metadata
   id="metadata209"><rdf:RDF><cc:Work
       rdf:about=""><dc:format>image/svg+xml</dc:format><dc:type
         rdf:resource="http://purl.org/dc/dcmitype/StillImage" /><dc:title>Flaming Humbaba</dc:title><cc:license
         rdf:resource="http://creativecommons.org/publicdomain/zero/1.0/" /><dc:creator><cc:Agent><dc:title>Glitch</dc:title></cc:Agent></dc:creator><dc:source>https://opengameart.org/node/20149</dc:source></cc:Work><cc:License
       rdf:about="http://creativecommons.org/publicdomain/zero/1.0/"><cc:permits
         rdf:resource="http://creativecommons.org/ns#Reproduction" /><cc:permits
         rdf:resource="http://creativecommons.org/ns#Distribution" /><cc:permits
         rdf:resource="http://creativecommons.org/ns#DerivativeWorks" /></cc:License></rdf:RDF></metadata><defs
   id="defs207"><linearGradient
     inkscape:collect="always"
     xlink:href="#SVGID_1_"
     id="linearGradient992"
     gradientUnits="userSpaceOnUse"
     gradientTransform="matrix(1,0.006,-0.006,1,-49.1787,-49.4893)"
     x1="44.894501"
     y1="48.084999"
     x2="61.444801"
     y2="48.084999" /><linearGradient
     inkscape:collect="always"
     xlink:href="#SVGID_2_"
     id="linearGradient994"
     gradientUnits="userSpaceOnUse"
     x1="-12.25"
     y1="-1.5474"
     x2="3.45"
     y2="-1.5474" /><linearGradient
     inkscape:collect="always"
     xlink:href="#SVGID_3_"
     id="linearGradient996"
     gradientUnits="userSpaceOnUse"
     x1="0.0127"
     y1="-6.0009999"
     x2="31.9877"
     y2="-6.0009999" /><linearGradient
     inkscape:collect="always"
     xlink:href="#SVGID_4_"
     id="linearGradient998"
     gradientUnits="userSpaceOnUse"
     gradientTransform="matrix(-0.5449,-0.8385,0.8385,-0.5449,19461.041,-5764.7251)"
     x1="5767.7754"
     y1="-19454.354"
     x2="5774.2451"
     y2="-19454.354" /><linearGradient
     inkscape:collect="always"
     xlink:href="#SVGID_5_"
     id="linearGradient1000"
     gradientUnits="userSpaceOnUse"
     x1="2.0376"
     y1="-3.6582"
     x2="9.0626001"
     y2="-3.6582" /><linearGradient
     inkscape:collect="always"
     xlink:href="#SVGID_6_"
     id="linearGradient1002"
     gradientUnits="userSpaceOnUse"
     x1="0"
     y1="-3.2997999"
     x2="31.450199"
     y2="-3.2997999" /><linearGradient
     inkscape:collect="always"
     xlink:href="#SVGID_7_"
     id="linearGradient1004"
     gradientUnits="userSpaceOnUse"
     x1="0.049800001"
     y1="-7.3999"
     x2="2.8498001"
     y2="-7.3999" /><linearGradient
     inkscape:collect="always"
     xlink:href="#SVGID_8_"
     id="linearGradient1006"
     gradientUnits="userSpaceOnUse"
     x1="0"
     y1="-0.95020002"
     x2="3.2"
     y2="-0.95020002" /><radialGradient
     inkscape:collect="always"
     xlink:href="#SVGID_9_"
     id="radialGradient1008"
     gradientUnits="userSpaceOnUse"
     gradientTransform="matrix(8.097166e-5,-1,-1.3178,8.097166e-5,-21501.99,3.8232)"
     cx="4.2515001"
     cy="-16321.988"
     r="6.1750002" /><linearGradient
     inkscape:collect="always"
     xlink:href="#SVGID_10_"
     id="linearGradient1010"
     gradientUnits="userSpaceOnUse"
     gradientTransform="matrix(0.0969,0.9953,-0.9953,0.0969,-750.7715,-15500.596)"
     x1="15494.189"
     y1="747.47559"
     x2="15499.866"
     y2="747.47559" /><linearGradient
     inkscape:collect="always"
     xlink:href="#SVGID_11_"
     id="linearGradient1012"
     gradientUnits="userSpaceOnUse"
     x1="1.0625"
     y1="-6.1973"
     x2="19.8375"
     y2="-6.1973" /><linearGradient
     inkscape:collect="always"
     xlink:href="#SVGID_12_"
     id="linearGradient1014"
     gradientUnits="userSpaceOnUse"
     gradientTransform="matrix(-0.0258,-0.9997,0.9997,-0.0258,16538.035,-211.4248)"
     x1="215.99071"
     y1="-16525.477"
     x2="230.5206"
     y2="-16525.477" /></defs><sodipodi:namedview
   pagecolor="#ffffff"
   bordercolor="#666666"
   borderopacity="1"
   objecttolerance="10"
   gridtolerance="10"
   guidetolerance="10"
   inkscape:pageopacity="0"
   inkscape:pageshadow="2"
   inkscape:window-width="1920"
   inkscape:window-height="1025"
   id="namedview205"
   showgrid="false"
   inkscape:zoom="0.53539022"
   inkscape:cx="14.996666"
   inkscape:cy="-107.39162"
   inkscape:window-x="-8"
   inkscape:window-y="-8"
   inkscape:window-maximized="1"
   inkscape:current-layer="flash0.ai"
   fit-margin-top="0"
   fit-margin-left="0"
   fit-margin-right="0"
   fit-margin-bottom="0" />
<symbol
   id="flash0.ai_x5F_8_x2F_Layer_28_x2F__x3C_Path_x3E_"
   viewBox="-0.044 -2.203 2.005 2.203"
   transform="translate(0,210.4498)">
	<g
   id="Layer_1_19_">
		
			<linearGradient
   id="SVGID_1_"
   gradientUnits="userSpaceOnUse"
   x1="44.894501"
   y1="48.084999"
   x2="61.444801"
   y2="48.084999"
   gradientTransform="matrix(1,0.006,-0.006,1,-49.1787,-49.4893)">
			<stop
   offset="0"
   style="stop-color:#87CDFF"
   id="stop2" />
			<stop
   offset="1"
   style="stop-color:#6ED6F5"
   id="stop4" />
		</linearGradient>
		<path
   style="clip-rule:evenodd;fill:url(#linearGradient992);fill-rule:evenodd"
   d="M 0.5,0 C 0.5,-0.267 0.533,-0.5 0.6,-0.7 0.666,-0.9 0.833,-1.067 1.1,-1.2 1.433,-1.333 1.683,-1.5 1.85,-1.7 2.117,-2.033 1.9,-2.2 1.2,-2.2 0.533,-2.233 0.133,-2 0,-1.5 -0.133,-0.9 0.033,-0.4 0.5,0 Z"
   id="path7"
   inkscape:connector-curvature="0" />
	</g>
</symbol>
<symbol
   id="flash0.ai_x5F_8_x2F_Layer_28_x2F__x3C_Path_x3E__x5F_1"
   viewBox="-0.026 -3.095 2.664 3.095"
   transform="translate(0,210.4498)">
	<g
   id="Layer_1_18_">
		<linearGradient
   id="SVGID_2_"
   gradientUnits="userSpaceOnUse"
   x1="-12.25"
   y1="-1.5474"
   x2="3.45"
   y2="-1.5474">
			<stop
   offset="0"
   style="stop-color:#87CDFF"
   id="stop11" />
			<stop
   offset="1"
   style="stop-color:#6ED6F5"
   id="stop13" />
		</linearGradient>
		<path
   style="clip-rule:evenodd;fill:url(#linearGradient994);fill-rule:evenodd"
   d="M 2.1,0 C 2.367,-0.4 2.517,-0.667 2.55,-0.8 2.683,-1.167 2.667,-1.55 2.5,-1.95 2.233,-2.45 1.883,-2.8 1.45,-3 0.95,-3.2 0.516,-3.083 0.15,-2.65 -0.25,-2.217 0.033,-1.783 1,-1.35 1.9,-0.983 2.267,-0.533 2.1,0 Z"
   id="path16"
   inkscape:connector-curvature="0" />
	</g>
</symbol>
<symbol
   id="flash0.ai_x5F_8_x2F_Layer_28_x2F__x3C_Path_x3E__x5F_11"
   viewBox="0.35 -11.752 31.3 11.502"
   transform="translate(0,210.4498)">
	<g
   id="Layer_1_13_">
		<linearGradient
   id="SVGID_3_"
   gradientUnits="userSpaceOnUse"
   x1="0.0127"
   y1="-6.0009999"
   x2="31.9877"
   y2="-6.0009999">
			<stop
   offset="0"
   style="stop-color:#A1DAFF"
   id="stop20" />
			<stop
   offset="1"
   style="stop-color:#537F9C"
   id="stop22" />
		</linearGradient>
		<path
   style="clip-rule:evenodd;fill:url(#linearGradient996);fill-rule:evenodd"
   d="M 31.65,-0.25 C 26.809,-3.876 23.525,-6.243 21.8,-7.35 19.533,-8.883 18.084,-10.1 17.45,-11 16.983,-11.633 16.5,-11.867 16,-11.7 c -0.5,-0.167 -0.967,0.067 -1.4,0.7 -0.6,0.867 -2.067,2.083 -4.4,3.65 -1.725,1.107 -5.009,3.474 -9.85,7.1 1.762,-1.248 3.112,-1.981 4.05,-2.2 1.233,-0.233 5.1,-0.633 11.6,-1.2 6.5,0.566 10.367,0.967 11.6,1.2 0.938,0.219 2.288,0.952 4.05,2.2 z"
   id="path25"
   inkscape:connector-curvature="0" />
	</g>
</symbol>
<symbol
   id="flash0.ai_x5F_8_x2F_Layer_28_x2F__x3C_Path_x3E__x5F_12"
   viewBox="0.051 -6.059 8.549 6.059"
   transform="translate(0,210.4498)">
	<g
   id="Layer_1_12_">
		
			<linearGradient
   id="SVGID_4_"
   gradientUnits="userSpaceOnUse"
   x1="5767.7754"
   y1="-19454.354"
   x2="5774.2451"
   y2="-19454.354"
   gradientTransform="matrix(-0.5449,-0.8385,0.8385,-0.5449,19461.041,-5764.7251)">
			<stop
   offset="0"
   style="stop-color:#FFFFFF"
   id="stop29" />
			<stop
   offset="1"
   style="stop-color:#000000"
   id="stop31" />
		</linearGradient>
		<path
   style="clip-rule:evenodd;fill:url(#linearGradient998);fill-rule:evenodd"
   d="M 6.3,-0.25 8.6,0 8.1,-0.5 C 7.7,-0.9 6.8,-1.633 5.4,-2.7 3.7,-4 2.35,-4.917 1.35,-5.45 0.317,-5.983 -0.1,-6.167 0.1,-6 c 0.033,0.033 0.7,0.55 2,1.55 1.433,1.133 2.833,2.533 4.2,4.2 z"
   id="path34"
   inkscape:connector-curvature="0" />
	</g>
</symbol>
<symbol
   id="flash0.ai_x5F_8_x2F_Layer_28_x2F__x3C_Path_x3E__x5F_13"
   viewBox="0 -7.316 11.4 7.316"
   transform="translate(0,210.4498)">
	<g
   id="Layer_1_11_">
		<linearGradient
   id="SVGID_5_"
   gradientUnits="userSpaceOnUse"
   x1="2.0376"
   y1="-3.6582"
   x2="9.0626001"
   y2="-3.6582">
			<stop
   offset="0"
   style="stop-color:#FFFFFF"
   id="stop38" />
			<stop
   offset="1"
   style="stop-color:#000000"
   id="stop40" />
		</linearGradient>
		<path
   style="clip-rule:evenodd;fill:url(#linearGradient1000);fill-rule:evenodd"
   d="M 0,0 11.4,-0.95 11.35,-6 c 0,-1.233 -0.617,-1.6 -1.85,-1.1 L 7.65,-6 C 7.317,-5.7 6.217,-4.883 4.35,-3.55 2.483,-2.183 1.033,-1 0,0 Z"
   id="path43"
   inkscape:connector-curvature="0" />
	</g>
</symbol>
<symbol
   id="flash0.ai_x5F_8_x2F_Layer_28_x2F__x3C_Path_x3E__x5F_16"
   viewBox="0 -6.6 31.45 6.6"
   transform="translate(0,210.4498)">
	<g
   id="Layer_1_10_">
		<linearGradient
   id="SVGID_6_"
   gradientUnits="userSpaceOnUse"
   x1="0"
   y1="-3.2997999"
   x2="31.450199"
   y2="-3.2997999">
			<stop
   offset="0"
   style="stop-color:#C2E7FF"
   id="stop47" />
			<stop
   offset="1"
   style="stop-color:#88ABC2"
   id="stop49" />
		</linearGradient>
		<path
   style="clip-rule:evenodd;fill:url(#linearGradient1002);fill-rule:evenodd"
   d="m 31.45,-3.3 c 0,-0.934 -1.534,-1.717 -4.6,-2.35 C 23.783,-6.283 20.067,-6.6 15.7,-6.6 11.367,-6.6 7.666,-6.283 4.6,-5.65 1.533,-5.017 0,-4.233 0,-3.3 0,-2.367 1.533,-1.584 4.6,-0.95 7.667,-0.317 11.367,0 15.7,0 c 4.367,0 8.083,-0.317 11.15,-0.95 3.067,-0.633 4.6,-1.417 4.6,-2.35 z"
   id="path52"
   inkscape:connector-curvature="0" />
	</g>
</symbol>
<symbol
   id="flash0.ai_x5F_8_x2F_Layer_28_x2F__x3C_Path_x3E__x5F_17"
   viewBox="0 -2.45 2.253 2.512"
   transform="translate(0,210.4498)">
	<g
   id="Layer_1_9_">
		<path
   style="clip-rule:evenodd;fill:#cef2f2;fill-rule:evenodd"
   d="m 1.25,-1.45 c 0.367,0.567 0.567,1.017 0.6,1.35 0.2,0.3 0.333,0.184 0.4,-0.35 C 2.283,-0.95 2.05,-1.4 1.55,-1.8 0.983,-2.233 0.467,-2.45 0,-2.45 c 0.733,0.467 1.15,0.8 1.25,1 z"
   id="path56"
   inkscape:connector-curvature="0" />
	</g>
</symbol>
<symbol
   id="flash0.ai_x5F_8_x2F_Layer_28_x2F__x3C_Path_x3E__x5F_18"
   viewBox="-0.033 -0.506 0.68 0.506"
   transform="translate(0,210.4498)">
	<g
   id="Layer_1_8_">
		<path
   style="clip-rule:evenodd;fill:#cef2f2;fill-rule:evenodd"
   d="m 0.4,-0.05 c 0.267,-0.133 0.317,-0.267 0.15,-0.4 -0.133,-0.1 -0.283,-0.066 -0.45,0.1 -0.133,0.133 -0.167,0.233 -0.1,0.3 0.1,0.067 0.233,0.067 0.4,0 z"
   id="path60"
   inkscape:connector-curvature="0" />
	</g>
</symbol>
<symbol
   id="flash0.ai_x5F_8_x2F_Layer_28_x2F__x3C_Path_x3E__x5F_19"
   viewBox="-0.026 -2.564 1.819 2.529"
   transform="translate(0,210.4498)">
	<g
   id="Layer_1_7_">
		<path
   style="clip-rule:evenodd;fill:#cef2f2;fill-rule:evenodd"
   d="m 0.5,-0.05 c 0.2,0.066 0.333,-0.1 0.4,-0.5 0.133,-0.633 0.367,-1.133 0.7,-1.5 0.3,-0.4 0.25,-0.567 -0.15,-0.5 -0.4,0.067 -0.75,0.317 -1.05,0.75 -0.6,0.8 -0.567,1.383 0.1,1.75 z"
   id="path64"
   inkscape:connector-curvature="0" />
	</g>
</symbol>
<symbol
   id="flash0.ai_x5F_8_x2F_Layer_28_x2F__x3C_Path_x3E__x5F_21"
   viewBox="0 -14.8 2.85 14.8"
   transform="translate(0,210.4498)">
	<g
   id="Layer_1_6_">
		<linearGradient
   id="SVGID_7_"
   gradientUnits="userSpaceOnUse"
   x1="0.049800001"
   y1="-7.3999"
   x2="2.8498001"
   y2="-7.3999">
			<stop
   offset="0"
   style="stop-color:#5A9BC9"
   id="stop68" />
			<stop
   offset="0.4588"
   style="stop-color:#EDF8FF"
   id="stop70" />
			<stop
   offset="0.9765"
   style="stop-color:#61BEFF"
   id="stop72" />
		</linearGradient>
		<path
   style="clip-rule:evenodd;fill:url(#linearGradient1004);fill-rule:evenodd"
   d="M 1.45,-0.55 2.85,0 c -0.4,-0.333 -0.6,-1.133 -0.6,-2.4 -0.033,-1.767 -0.033,-5.783 0,-12.05 -0.1,-0.2 -0.333,-0.316 -0.7,-0.35 H 1.3 c -0.367,0.033 -0.6,0.15 -0.7,0.35 0.033,6.267 0.033,10.283 0,12.05 0,1.267 -0.2,2.067 -0.6,2.4 z"
   id="path75"
   inkscape:connector-curvature="0" />
	</g>
</symbol>
<symbol
   id="flash0.ai_x5F_8_x2F_Layer_28_x2F__x3C_Path_x3E__x5F_22"
   viewBox="0.009 -1.9 3.213 1.9"
   transform="translate(0,210.4498)">
	<g
   id="Layer_1_5_">
		<linearGradient
   id="SVGID_8_"
   gradientUnits="userSpaceOnUse"
   x1="0"
   y1="-0.95020002"
   x2="3.2"
   y2="-0.95020002">
			<stop
   offset="0"
   style="stop-color:#ABC5D9"
   id="stop79" />
			<stop
   offset="0.4588"
   style="stop-color:#EDF8FF"
   id="stop81" />
			<stop
   offset="0.9765"
   style="stop-color:#B8D1E3"
   id="stop83" />
		</linearGradient>
		<path
   style="clip-rule:evenodd;fill:url(#linearGradient1006);fill-rule:evenodd"
   d="M 1.7,-1.9 H 1.5 C 0.767,-1.9 0.3,-1.717 0.1,-1.35 -0.133,-0.95 0.083,-0.5 0.75,0 L 1.6,-0.3 2.5,0 C 3.133,-0.467 3.35,-0.917 3.15,-1.35 2.95,-1.717 2.467,-1.9 1.7,-1.9 Z"
   id="path86"
   inkscape:connector-curvature="0" />
	</g>
</symbol>
<symbol
   id="flash0.ai_x5F_8_x2F_Layer_28_x2F__x3C_Path_x3E__x5F_23"
   viewBox="0 -6.15 14.6 6.15"
   transform="translate(0,210.4498)">
	<g
   id="Layer_1_4_">
		<path
   style="clip-rule:evenodd;fill:#162c33;fill-rule:evenodd"
   d="m 12.55,-0.4 c 1.367,-0.7 2.05,-1.483 2.05,-2.35 0,-0.933 -0.717,-1.733 -2.15,-2.4 -1.4,-0.667 -3.117,-1 -5.15,-1 -2.033,0 -3.75,0.333 -5.15,1 C 0.717,-4.483 0,-3.683 0,-2.75 0,-1.617 1.017,-0.7 3.05,0 2.317,-0.433 1.833,-0.8 1.6,-1.1 1.267,-1.533 1.233,-2.033 1.5,-2.6 c 0.533,-1 1.75,-1.717 3.65,-2.15 1.867,-0.433 3.717,-0.433 5.55,0 1.4,0.3 2.25,0.917 2.55,1.85 0.267,0.867 0.033,1.7 -0.7,2.5 z"
   id="path90"
   inkscape:connector-curvature="0" />
	</g>
</symbol>
<symbol
   id="flash0.ai_x5F_8_x2F_Layer_28_x2F__x3C_Path_x3E__x5F_24"
   viewBox="0 -6.75 14.6 6.75"
   transform="translate(0,210.4498)">
	<g
   id="Layer_1_3_">
		
			<radialGradient
   id="SVGID_9_"
   cx="4.2515001"
   cy="-16321.988"
   r="6.1750002"
   gradientTransform="matrix(8.097166e-5,-1,-1.3178,8.097166e-5,-21501.99,3.8232)"
   gradientUnits="userSpaceOnUse">
			<stop
   offset="0"
   style="stop-color:#FFFFFF"
   id="stop94" />
			<stop
   offset="0.9882"
   style="stop-color:#83CFE6"
   id="stop96" />
		</radialGradient>
		<path
   style="clip-rule:evenodd;fill:url(#radialGradient1008);fill-rule:evenodd"
   d="m 14.6,-3.35 c 0,-0.933 -0.717,-1.733 -2.15,-2.4 -1.4,-0.667 -3.117,-1 -5.15,-1 -2.033,0 -3.75,0.333 -5.15,1 C 0.717,-5.083 0,-4.283 0,-3.35 c 0,0.933 0.717,1.717 2.15,2.35 1.4,0.667 3.117,1 5.15,1 2.034,0 3.75,-0.333 5.15,-1 1.433,-0.633 2.15,-1.417 2.15,-2.35 z"
   id="path99"
   inkscape:connector-curvature="0" />
	</g>
</symbol>
<symbol
   id="flash0.ai_x5F_8_x2F_Layer_28_x2F__x3C_Path_x3E__x5F_25"
   viewBox="0 -3.85 14.6 3.85"
   transform="translate(0,210.4498)">
	<g
   id="Layer_1_2_">
		<path
   style="clip-rule:evenodd;fill:#004e69;fill-rule:evenodd"
   d="m 12.2,-2.3 c 1.4,0.566 2.183,1.283 2.35,2.15 l 0.05,-0.3 c 0,-0.933 -0.717,-1.733 -2.15,-2.4 -1.434,-0.667 -3.15,-1 -5.15,-1 -2,0 -3.716,0.333 -5.15,1 C 0.717,-2.183 0,-1.383 0,-0.45 V 0 c 0.1,-0.9 0.85,-1.667 2.25,-2.3 1.433,-0.6 3.117,-0.9 5.05,-0.9 1.9,0 3.533,0.3 4.9,0.9 z"
   id="path103"
   inkscape:connector-curvature="0" />
	</g>
</symbol>
<symbol
   id="flash0.ai_x5F_8_x2F_Layer_28_x2F__x3C_Path_x3E__x5F_4"
   viewBox="0 -12.5 0.2 12.5"
   transform="translate(0,210.4498)">
	<g
   id="Layer_1_17_">
		<path
   style="clip-rule:evenodd;fill:#dff7f7;fill-rule:evenodd"
   d="M 0.2,-6.25 C 0.2,-10.417 0.166,-12.5 0.1,-12.5 0.033,-12.5 0,-10.417 0,-6.25 0,-2.083 0.033,0 0.1,0 0.167,0 0.2,-2.083 0.2,-6.25 Z"
   id="path107"
   inkscape:connector-curvature="0" />
	</g>
</symbol>
<symbol
   id="flash0.ai_x5F_8_x2F_Layer_28_x2F__x3C_Path_x3E__x5F_7"
   viewBox="-0.006 -7.245 13.184 7.245"
   transform="translate(0,210.4498)">
	<g
   id="Layer_1_16_">
		
			<linearGradient
   id="SVGID_10_"
   gradientUnits="userSpaceOnUse"
   x1="15494.189"
   y1="747.47559"
   x2="15499.866"
   y2="747.47559"
   gradientTransform="matrix(0.0969,0.9953,-0.9953,0.0969,-750.7715,-15500.596)">
			<stop
   offset="0"
   style="stop-color:#FFFFFF"
   id="stop111" />
			<stop
   offset="1"
   style="stop-color:#9AE0F5;stop-opacity:0.6275"
   id="stop113" />
		</linearGradient>
		<path
   style="clip-rule:evenodd;fill:url(#linearGradient1010);fill-rule:evenodd"
   d="m 9.2,-2 c 2.167,-1.233 3.45,-2.217 3.85,-2.95 0.567,-1 -0.75,-1.7 -3.95,-2.1 C 5.933,-7.417 3.35,-7.267 1.35,-6.6 0.483,-6.333 0.033,-6.067 0,-5.8 c -0.067,0.333 0.4,0.683 1.4,1.05 0.367,0.133 1.533,0.35 3.5,0.65 1.267,0.2 1.934,0.55 2,1.05 0.033,0.233 0.033,0.617 0,1.15 0,0.3 0.083,0.583 0.25,0.85 C 7.65,-0.35 8.233,0 8.9,0 8.667,-0.167 8.517,-0.383 8.45,-0.65 8.25,-1.15 8.5,-1.6 9.2,-2 Z"
   id="path116"
   inkscape:connector-curvature="0" />
	</g>
</symbol>
<symbol
   id="flash0.ai_x5F_8_x2F_Layer_28_x2F__x3C_Path_x3E__x5F_8"
   viewBox="-0.046 -12.395 18.362 12.395"
   transform="translate(0,210.4498)">
	<g
   id="Layer_1_15_">
		<linearGradient
   id="SVGID_11_"
   gradientUnits="userSpaceOnUse"
   x1="1.0625"
   y1="-6.1973"
   x2="19.8375"
   y2="-6.1973">
			<stop
   offset="0"
   style="stop-color:#87CDFF"
   id="stop120" />
			<stop
   offset="1"
   style="stop-color:#6ED6F5"
   id="stop122" />
		</linearGradient>
		<path
   style="clip-rule:evenodd;fill:url(#linearGradient1012);fill-rule:evenodd"
   d="m 13.6,-2.5 c 0.2,0.7 0.183,1.3 -0.05,1.8 L 13.15,0 c 0.934,-0.767 1.4,-1.567 1.4,-2.4 0,-0.5 -0.066,-0.9 -0.2,-1.2 -0.233,-0.367 -0.417,-0.667 -0.55,-0.9 -0.233,-0.4 -0.216,-0.917 0.05,-1.55 0.3,-0.667 0.783,-1.05 1.45,-1.15 0.567,-0.1 1,-0.1 1.3,0 0.2,0.067 0.383,0.184 0.55,0.35 l 0.3,0.2 -0.2,-0.7 c -0.1,-0.533 -0.033,-0.917 0.2,-1.15 0.4,-0.333 0.667,-0.75 0.8,-1.25 0.167,-0.6 0.017,-1.017 -0.45,-1.25 -1.233,-0.7 -3.85,-1.15 -7.85,-1.35 -4.5,-0.2 -7.633,0.267 -9.4,1.4 -0.7,0.434 -0.783,0.917 -0.25,1.45 0.567,0.533 1.633,0.917 3.2,1.15 2.767,0.333 4.35,1.083 4.75,2.25 0.2,0.567 0.65,1.1 1.35,1.6 0.767,0.567 1.566,0.833 2.4,0.8 0.8,-0.033 1.333,0.367 1.6,1.2 z"
   id="path125"
   inkscape:connector-curvature="0" />
	</g>
</symbol>
<symbol
   id="flash0.ai_x5F_8_x2F_Layer_28_x2F__x3C_Path_x3E__x5F_9"
   viewBox="0.015 -15.946 24.384 15.946"
   transform="translate(0,210.4498)">
	<g
   id="Layer_1_14_">
		
			<linearGradient
   id="SVGID_12_"
   gradientUnits="userSpaceOnUse"
   x1="215.99071"
   y1="-16525.477"
   x2="230.5206"
   y2="-16525.477"
   gradientTransform="matrix(-0.0258,-0.9997,0.9997,-0.0258,16538.035,-211.4248)">
			<stop
   offset="0"
   style="stop-color:#54C0FF"
   id="stop129" />
			<stop
   offset="1"
   style="stop-color:#0E93F0"
   id="stop131" />
		</linearGradient>
		<path
   style="clip-rule:evenodd;fill:url(#linearGradient1014);fill-rule:evenodd"
   d="m 23.5,-9.65 c -0.633,0 -1.1,-0.317 -1.4,-0.95 -0.367,-0.733 -0.017,-1.483 1.05,-2.25 1.167,-0.833 1.333,-1.483 0.5,-1.95 -0.733,-0.4 -2.35,-0.7 -4.85,-0.9 -2.633,-0.267 -5.85,-0.316 -9.65,-0.15 -3.867,0.167 -6.483,0.467 -7.85,0.9 -1.133,0.367 -1.517,0.817 -1.15,1.35 0.333,0.467 1.1,0.85 2.3,1.15 2.133,0.5 3.617,1.1 4.45,1.8 0.3,0.233 0.567,0.75 0.8,1.55 0.233,0.767 0.466,1.25 0.7,1.45 0.467,0.433 1.133,0.733 2,0.9 L 9.95,-7.05 C 9.75,-7.183 9.633,-7.4 9.6,-7.7 c 0,-0.16 0,-0.301 0,-0.425 l 0.8,0.525 c 0.767,0.467 1.5,0.767 2.2,0.9 0.4,0.1 1.133,0.117 2.2,0.05 0.467,0 0.867,0.316 1.2,0.95 0.333,0.6 0.2,1.15 -0.4,1.65 l -1,0.55 c -1.3,0.967 -1.4,1.85 -0.3,2.65 0.567,0.367 1.25,0.65 2.05,0.85 -0.867,-0.333 -1.3,-0.833 -1.3,-1.5 0,-0.6 0.317,-1.033 0.95,-1.3 1.567,-0.667 2.383,-1.017 2.45,-1.05 0.8,-0.467 1.167,-1.233 1.1,-2.3 0,-0.533 -0.1,-1.017 -0.3,-1.45 l 0.5,0.45 c 0.367,0.267 0.55,1.133 0.55,2.6 1.167,-1.067 1.833,-2.167 2,-3.3 0.1,-0.733 -0.1,-1.35 -0.6,-1.85 l -0.8,-0.55 1.15,0.55 c 0.733,0.367 1.517,0.383 2.35,0.05 z"
   id="path134"
   inkscape:connector-curvature="0" />
	</g>
</symbol>











<linearGradient
   id="SVGID_13_"
   gradientUnits="userSpaceOnUse"
   x1="-24.428699"
   y1="16.2271"
   x2="-17.9037"
   y2="16.2271"
   gradientTransform="matrix(1.532567e-4,-1,1,-0.001,2.27842e-5,6.02114e-5)">
	<stop
   offset="0"
   style="stop-color:#FFC83D"
   id="stop160" />
	<stop
   offset="1"
   style="stop-color:#F73A00"
   id="stop162" />
</linearGradient>

<linearGradient
   id="SVGID_14_"
   gradientUnits="userSpaceOnUse"
   x1="-27.3979"
   y1="-17.797899"
   x2="-4.3188"
   y2="-17.797899"
   gradientTransform="matrix(-0.9825,0.1863,-0.1863,-0.9825,1.015663e-4,-2.642274e-4)">
	<stop
   offset="0"
   style="stop-color:#FFC83D"
   id="stop167" />
	<stop
   offset="1"
   style="stop-color:#F73A00"
   id="stop169" />
</linearGradient>















<g
   id="g966"
   transform="matrix(5.6201729,0,0,5.6201729,36.809885,1.7449031e-7)"><use
     id="use138"
     style="overflow:visible;opacity:0.44920002;enable-background:new"
     transform="matrix(1,0,0,-1,8.9502,252.15)"
     y="-3.8499999"
     height="3.8499999"
     width="14.6"
     xlink:href="#flash0.ai_x5F_8_x2F_Layer_28_x2F__x3C_Path_x3E__x5F_25"
     x="0" /><use
     id="use140"
     style="overflow:visible;opacity:0.73830004;enable-background:new"
     transform="matrix(1,0,0,-1,8.9502,248.6002)"
     y="-6.75"
     height="6.75"
     width="14.6"
     xlink:href="#flash0.ai_x5F_8_x2F_Layer_28_x2F__x3C_Path_x3E__x5F_24"
     x="0" /><use
     id="use142"
     style="overflow:visible;opacity:0.21089998;enable-background:new"
     transform="matrix(1,0,0,-1,8.9502,249.1998)"
     y="-6.1500001"
     height="6.1500001"
     width="14.6"
     xlink:href="#flash0.ai_x5F_8_x2F_Layer_28_x2F__x3C_Path_x3E__x5F_23"
     x="0" /><use
     id="use144"
     style="overflow:visible;opacity:0.42190001;enable-background:new"
     transform="matrix(1,0,0,-1,14.6499,248.65)"
     y="-1.9"
     x="0.0089999996"
     height="1.9"
     width="3.2130001"
     xlink:href="#flash0.ai_x5F_8_x2F_Layer_28_x2F__x3C_Path_x3E__x5F_22" /><use
     id="use146"
     style="overflow:visible;opacity:0.69139997;enable-background:new"
     transform="matrix(1,0,0,-1,14.7998,234.5499)"
     y="-14.8"
     height="14.8"
     width="2.8499999"
     xlink:href="#flash0.ai_x5F_8_x2F_Layer_28_x2F__x3C_Path_x3E__x5F_21"
     x="0" /><path
     id="path148"
     d="m 17.7,24.25 c -0.333,0.233 -0.517,0.983 -0.55,2.25 v 12.05 c 0,0.3 -0.25,0.467 -0.75,0.5 V 39.1 H 16.25 V 38.9 L 16.2,39.1 16.05,39.05 C 15.55,39.017 15.3,38.866 15.3,38.6 V 26.5 c -0.033,-1.267 -0.216,-2.017 -0.55,-2.25 l 0.1,-0.3 1.4,0.5 1.35,-0.5 z m -1.35,14.5 c 0.233,-0.033 0.417,-0.116 0.55,-0.25 -0.033,-6.333 -0.033,-10.333 0,-12 0,-0.967 0.117,-1.65 0.35,-2.05 l -1,0.35 -1,-0.35 c 0.2,0.466 0.3,1.15 0.3,2.05 0.034,1.667 0.034,5.667 0,12 0.133,0.134 0.317,0.217 0.55,0.25 z"
     style="clip-rule:evenodd;fill:#b4cfe0;fill-rule:evenodd"
     inkscape:connector-curvature="0" /><path
     id="path150"
     d="m 16.2,24.65 c 0.5,0.033 0.867,-0.017 1.1,-0.15 l -0.2,0.8 -0.05,1.95 -0.1,-1 C 16.916,25.817 16.8,25.5 16.6,25.3 c -0.233,-0.167 -0.483,-0.183 -0.75,-0.05 -0.2,0.133 -0.333,0.4 -0.4,0.8 0,0.059 0,0.117 0,0.175 C 15.43,25.969 15.38,25.661 15.3,25.3 l -0.2,-0.75 z"
     style="clip-rule:evenodd;fill:#b4cfe0;fill-rule:evenodd"
     inkscape:connector-curvature="0" /><use
     id="use152"
     style="overflow:visible;opacity:0.62110003;enable-background:new"
     transform="matrix(1,0,0,-1,9.1001,251.0494)"
     y="-2.5639999"
     x="-0.026000001"
     height="2.529"
     width="1.819"
     xlink:href="#flash0.ai_x5F_8_x2F_Layer_28_x2F__x3C_Path_x3E__x5F_19" /><use
     id="use154"
     style="overflow:visible;opacity:0.62110003;enable-background:new"
     transform="matrix(1,0,0,-1,11.2002,253.7496)"
     y="-0.50599998"
     x="-0.033"
     height="0.50599998"
     width="0.68000001"
     xlink:href="#flash0.ai_x5F_8_x2F_Layer_28_x2F__x3C_Path_x3E__x5F_18" /><use
     id="use156"
     style="overflow:visible;opacity:0.62110003;enable-background:new"
     transform="matrix(1,0,0,-1,21.1499,251.4)"
     y="-2.45"
     height="2.5120001"
     width="2.253"
     xlink:href="#flash0.ai_x5F_8_x2F_Layer_28_x2F__x3C_Path_x3E__x5F_17"
     x="0" /><use
     id="use158"
     style="overflow:visible;opacity:0.39059999;enable-background:new"
     transform="matrix(1,0,0,-1,0.6001,219.65)"
     y="-6.5999999"
     height="6.5999999"
     width="31.450001"
     xlink:href="#flash0.ai_x5F_8_x2F_Layer_28_x2F__x3C_Path_x3E__x5F_16"
     x="0" /><path
     id="path165"
     d="m 20.35,21.5 c -0.3,0.233 -0.633,0.483 -1,0.75 -0.7,0.567 -1.133,0.967 -1.3,1.2 -0.133,0.167 -0.3,0.433 -0.5,0.8 -0.233,0.267 -0.583,0.417 -1.05,0.45 -0.467,0.033 -0.85,-0.067 -1.15,-0.3 C 15.25,24.334 15,24.084 14.6,23.65 13.8,22.783 12.7,21.867 11.3,20.9 L 4.3,16 h 23.85 z"
     style="clip-rule:evenodd;fill:url(#SVGID_13_);fill-rule:evenodd"
     inkscape:connector-curvature="0" /><path
     id="path172"
     d="m 29,15 c 0,0.767 -1.233,1.433 -3.7,2 -2.5,0.533 -5.5,0.8 -9,0.8 -3.533,0 -6.533,-0.267 -9,-0.8 -2.5,-0.567 -3.75,-1.233 -3.75,-2 0,-0.767 1.25,-1.417 3.75,-1.95 2.5,-0.533 5.5,-0.8 9,-0.8 3.5,0 6.5,0.267 9,0.8 2.467,0.533 3.7,1.183 3.7,1.95 z"
     style="clip-rule:evenodd;fill:url(#SVGID_14_);fill-rule:evenodd"
     inkscape:connector-curvature="0" /><use
     id="use174"
     style="overflow:visible;opacity:0.35940001;enable-background:new"
     transform="matrix(1,0,0,-1,5.8999,225.7496)"
     y="-7.316"
     height="7.316"
     width="11.4"
     xlink:href="#flash0.ai_x5F_8_x2F_Layer_28_x2F__x3C_Path_x3E__x5F_13"
     x="0" /><use
     id="use176"
     style="overflow:visible;opacity:0.35160002;enable-background:new"
     transform="matrix(1,0,0,-1,17.7998,225.7999)"
     y="-6.059"
     x="0.050999999"
     height="6.059"
     width="8.5489998"
     xlink:href="#flash0.ai_x5F_8_x2F_Layer_28_x2F__x3C_Path_x3E__x5F_12" /><use
     id="use178"
     style="overflow:visible;opacity:0.21089998;enable-background:new"
     transform="matrix(1,0,0,-1,0.2002,223.4)"
     y="-11.752"
     x="0.34999999"
     height="11.502"
     width="31.299999"
     xlink:href="#flash0.ai_x5F_8_x2F_Layer_28_x2F__x3C_Path_x3E__x5F_11" /><path
     id="path180"
     d="m 31.35,12.45 c -0.1,-0.867 -1.616,-1.6 -4.55,-2.2 -2.933,-0.6 -6.45,-0.9 -10.55,-0.9 -4.1,0 -7.633,0.3 -10.6,0.9 -2.933,0.6 -4.433,1.333 -4.5,2.2 h -1.1 c 0.333,-0.967 2.05,-1.767 5.15,-2.4 3.1,-0.667 6.767,-1 11,-1 4.267,0 7.95,0.333 11.05,1 3.066,0.633 4.767,1.434 5.1,2.4 z"
     style="clip-rule:evenodd;fill:#b4cfe0;fill-rule:evenodd"
     inkscape:connector-curvature="0" /><use
     id="use182"
     style="overflow:visible;opacity:0.67970001;enable-background:new"
     transform="matrix(1,0,0,-1,4.2998,210.4498)"
     y="-15.946"
     x="0.015"
     height="15.946"
     width="24.384001"
     xlink:href="#flash0.ai_x5F_8_x2F_Layer_28_x2F__x3C_Path_x3E__x5F_9" /><use
     id="use184"
     style="overflow:visible;opacity:0.39840004;enable-background:new"
     transform="matrix(1,0,0,-1,6.5498,215.4)"
     y="-12.395"
     x="-0.046"
     height="12.395"
     width="18.362"
     xlink:href="#flash0.ai_x5F_8_x2F_Layer_28_x2F__x3C_Path_x3E__x5F_8" /><use
     id="use186"
     style="overflow:visible;opacity:0.71880002;enable-background:new"
     transform="matrix(1,0,0,-1,10.4502,219.2496)"
     y="-7.2449999"
     x="-0.0060000001"
     height="7.2449999"
     width="13.184"
     xlink:href="#flash0.ai_x5F_8_x2F_Layer_28_x2F__x3C_Path_x3E__x5F_7" /><path
     id="path188"
     d="m 29.25,14.9 -1.15,0.4 c -2.667,0.667 -6.6,1.117 -11.8,1.35 H 14.65 C 10.883,16.584 7.683,16.233 5.05,15.6 4.584,15.5 3.8,15.15 2.7,14.55 c 4.233,3.133 6.816,5 7.75,5.6 2.333,1.533 3.816,2.767 4.45,3.7 0.3,0.433 0.733,0.65 1.3,0.65 h 0.15 c 0.467,0 0.85,-0.217 1.15,-0.65 0.633,-0.934 2.117,-2.167 4.45,-3.7 1.333,-0.9 3.767,-2.65 7.3,-5.25 z m -7.15,5.6 c -2.233,1.467 -3.684,2.65 -4.35,3.55 -0.4,0.567 -0.867,0.85 -1.4,0.85 L 16.2,24.85 16.05,24.9 c -0.533,0 -1,-0.283 -1.4,-0.85 C 14.017,23.15 12.567,21.967 10.3,20.5 8.567,19.333 5.167,16.867 0.1,13.1 L 0.05,13.05 v -0.3 H 0.2 l 0.7,0.35 c 2.033,1.233 3.434,1.933 4.2,2.1 2.967,0.7 6.15,1.05 9.55,1.05 l 1.65,0.05 c 5.233,-0.233 9.15,-0.7 11.75,-1.4 0.934,-0.233 2.2,-0.883 3.8,-1.95 0.167,-0.133 0.284,-0.2 0.351,-0.2 h 0.149 v 0.3 L 32.3,13.1 c -5.067,3.767 -8.467,6.233 -10.2,7.4 z"
     style="clip-rule:evenodd;fill:#b4cfe0;fill-rule:evenodd"
     inkscape:connector-curvature="0" /><path
     id="path190"
     d="m 31.35,12.45 h 1 l 0.101,0.3 c 0,1 -1.584,1.867 -4.75,2.6 -3.2,0.7 -7.034,1.05 -11.5,1.05 -4.467,0 -8.284,-0.35 -11.45,-1.05 C 1.583,14.617 0,13.75 0,12.75 l 0.05,-0.3 h 1.1 L 1.1,12.5 c 0,0.867 1.483,1.617 4.45,2.25 2.967,0.6 6.534,0.9 10.7,0.9 4.166,0 7.733,-0.3 10.7,-0.9 2.934,-0.633 4.399,-1.383 4.399,-2.25 v -0.05 z"
     style="clip-rule:evenodd;fill:#b4cfe0;fill-rule:evenodd"
     inkscape:connector-curvature="0" /><path
     id="path192"
     d="m 16.2,32 c 0,3.6 -0.067,5.4 -0.2,5.4 -0.1,0 -0.15,-1.801 -0.15,-5.4 0,-3.634 0.05,-5.45 0.15,-5.45 0.133,0 0.2,1.816 0.2,5.45 z"
     style="clip-rule:evenodd;fill:#dff7f7;fill-rule:evenodd"
     inkscape:connector-curvature="0" /><use
     id="use194"
     style="overflow:visible;opacity:0.28910002;enable-background:new"
     transform="matrix(1,0,0,-1,16.5498,236.2999)"
     y="-12.5"
     height="12.5"
     width="0.2"
     xlink:href="#flash0.ai_x5F_8_x2F_Layer_28_x2F__x3C_Path_x3E__x5F_4"
     x="0" /><path
     id="path196"
     d="m 9.7,40.15 c -0.533,0.567 -0.8,1.15 -0.8,1.75 0,0.12 0.008,0.229 0.025,0.324 C 8.678,41.372 8.803,40.697 9.3,40.2 c 0.7,-0.667 1.883,-1.217 3.55,-1.65 0.867,-0.233 1.65,-0.399 2.35,-0.5 0.1,0.167 0.1,0.25 0,0.25 -0.467,-0.1 -1.367,0.066 -2.7,0.5 -1.433,0.433 -2.367,0.884 -2.8,1.35 z"
     style="clip-rule:evenodd;fill:#b4cfe0;fill-rule:evenodd"
     inkscape:connector-curvature="0" /><path
     id="path198"
     d="m 17.45,38 c 0.333,0.033 0.917,0.167 1.75,0.4 1.718,0.452 2.876,0.96 3.475,1.524 C 22.415,39.74 21.857,39.483 21,39.15 20.267,38.849 19.4,38.599 18.4,38.4 l -1.25,-0.15 v -0.2 z"
     style="clip-rule:evenodd;fill:#b4cfe0;fill-rule:evenodd"
     inkscape:connector-curvature="0" /><use
     id="use200"
     style="overflow:visible;opacity:0.39840004;enable-background:new"
     transform="matrix(1,0,0,-1,22.75,217.7496)"
     y="-3.095"
     x="-0.026000001"
     height="3.095"
     width="2.664"
     xlink:href="#flash0.ai_x5F_8_x2F_Layer_28_x2F__x3C_Path_x3E__x5F_1" /><use
     id="use202"
     style="overflow:visible;opacity:0.39840004;enable-background:new"
     transform="matrix(1,0,0,-1,12.5,219.2496)"
     y="-2.2030001"
     x="-0.044"
     height="2.2030001"
     width="2.0050001"
     xlink:href="#flash0.ai_x5F_8_x2F_Layer_28_x2F__x3C_Path_x3E_" /></g>
</svg>