<?xml version="1.0" encoding="UTF-8" standalone="no"?>
<!-- Generator: Adobe Illustrator 15.1.0, SVG Export Plug-In . SVG Version: 6.00 Build 0)  -->

<svg
   xmlns:dc="http://purl.org/dc/elements/1.1/"
   xmlns:cc="http://creativecommons.org/ns#"
   xmlns:rdf="http://www.w3.org/1999/02/22-rdf-syntax-ns#"
   xmlns:svg="http://www.w3.org/2000/svg"
   xmlns="http://www.w3.org/2000/svg"
   xmlns:xlink="http://www.w3.org/1999/xlink"
   xmlns:sodipodi="http://sodipodi.sourceforge.net/DTD/sodipodi-0.dtd"
   xmlns:inkscape="http://www.inkscape.org/namespaces/inkscape"
   version="1.1"
   id="flash0.ai"
   x="0px"
   y="0px"
   width="256"
   height="256"
   viewBox="0 0 256 256"
   xml:space="preserve"
   sodipodi:docname="gurly_drink.svg"
   inkscape:version="0.92.4 (5da689c313, 2019-01-14)"
   inkscape:export-filename="C:\Users\antum\Development\game-resources\icon\CC0\food\individual\Glitch\32x32\drink\gurly_drink.png"
   inkscape:export-xdpi="10.5"
   inkscape:export-ydpi="10.5"><title
   id="title1258">Gurly Drink</title><metadata
   id="metadata451"><rdf:RDF><cc:Work
       rdf:about=""><dc:format>image/svg+xml</dc:format><dc:type
         rdf:resource="http://purl.org/dc/dcmitype/StillImage" /><dc:title>Gurly Drink</dc:title><cc:license
         rdf:resource="http://creativecommons.org/publicdomain/zero/1.0/" /><dc:creator><cc:Agent><dc:title>Glitch</dc:title></cc:Agent></dc:creator><dc:source>https://opengameart.org/node/20149</dc:source></cc:Work><cc:License
       rdf:about="http://creativecommons.org/publicdomain/zero/1.0/"><cc:permits
         rdf:resource="http://creativecommons.org/ns#Reproduction" /><cc:permits
         rdf:resource="http://creativecommons.org/ns#Distribution" /><cc:permits
         rdf:resource="http://creativecommons.org/ns#DerivativeWorks" /></cc:License></rdf:RDF></metadata><defs
   id="defs449"><linearGradient
     inkscape:collect="always"
     xlink:href="#SVGID_1_"
     id="linearGradient1100"
     gradientUnits="userSpaceOnUse"
     gradientTransform="matrix(-0.5431,-0.8396,0.8396,-0.5431,19458.629,-5746.2573)"
     x1="5741.5186"
     y1="-19451.977"
     x2="5750.54"
     y2="-19451.977" /><linearGradient
     inkscape:collect="always"
     xlink:href="#SVGID_2_"
     id="linearGradient1102"
     gradientUnits="userSpaceOnUse"
     x1="2.8501"
     y1="-5.1469998"
     x2="12.6501"
     y2="-5.1469998" /><linearGradient
     inkscape:collect="always"
     xlink:href="#SVGID_3_"
     id="linearGradient1104"
     gradientUnits="userSpaceOnUse"
     x1="0"
     y1="-8.1948004"
     x2="44.600101"
     y2="-8.1948004" /><linearGradient
     inkscape:collect="always"
     xlink:href="#SVGID_4_"
     id="linearGradient1106"
     gradientUnits="userSpaceOnUse"
     gradientTransform="matrix(6.644518e-5,1,-1,-0.001,-1.5425,-16341.167)"
     x1="16326.575"
     y1="-17.082001"
     x2="16341.625"
     y2="-17.082001" /><radialGradient
     inkscape:collect="always"
     xlink:href="#SVGID_5_"
     id="radialGradient1108"
     gradientUnits="userSpaceOnUse"
     gradientTransform="matrix(0.5749,-0.8183,-0.8183,-0.5749,-6462.4512,-8464.207)"
     cx="-3209.626"
     cy="-10153.845"
     r="2.4137001" /><radialGradient
     inkscape:collect="always"
     xlink:href="#SVGID_6_"
     id="radialGradient1110"
     gradientUnits="userSpaceOnUse"
     gradientTransform="matrix(0.5749,-0.8183,-0.8183,-0.5749,-6462.4512,-8464.207)"
     cx="-3209.626"
     cy="-10153.845"
     r="2.4137001" /><radialGradient
     inkscape:collect="always"
     xlink:href="#SVGID_7_"
     id="radialGradient1112"
     gradientUnits="userSpaceOnUse"
     gradientTransform="matrix(0.5739,-0.8189,-0.8189,-0.5739,-6484.6895,-8462.457)"
     cx="-3207.5342"
     cy="-10167.217"
     r="1.9385" /><radialGradient
     inkscape:collect="always"
     xlink:href="#SVGID_8_"
     id="radialGradient1114"
     gradientUnits="userSpaceOnUse"
     gradientTransform="matrix(0.5779,-0.8161,-0.8161,-0.5779,-6392.4795,-8469.6572)"
     cx="-3216.832"
     cy="-10111.712"
     r="2.4658999" /><radialGradient
     inkscape:collect="always"
     xlink:href="#SVGID_9_"
     id="radialGradient1116"
     gradientUnits="userSpaceOnUse"
     gradientTransform="matrix(0.5785,-0.8157,-0.8157,-0.5785,-6378.1914,-8470.7891)"
     cx="-3218.4805"
     cy="-10103.098"
     r="2.1608" /><linearGradient
     inkscape:collect="always"
     xlink:href="#SVGID_10_"
     id="linearGradient1118"
     gradientUnits="userSpaceOnUse"
     x1="0"
     y1="-4.625"
     x2="43.850101"
     y2="-4.625" /><linearGradient
     inkscape:collect="always"
     xlink:href="#SVGID_11_"
     id="linearGradient1120"
     gradientUnits="userSpaceOnUse"
     x1="0"
     y1="-10.3252"
     x2="3.8999"
     y2="-10.3252" /><linearGradient
     inkscape:collect="always"
     xlink:href="#SVGID_12_"
     id="linearGradient1122"
     gradientUnits="userSpaceOnUse"
     x1="0.0127"
     y1="-1.2998"
     x2="4.4877"
     y2="-1.2998" /><radialGradient
     inkscape:collect="always"
     xlink:href="#SVGID_13_"
     id="radialGradient1124"
     gradientUnits="userSpaceOnUse"
     gradientTransform="matrix(5.805515e-5,-1,-1.3193,5.805515e-5,-21523.783,0.3066)"
     cx="1.8091"
     cy="-16322.275"
     r="8.6125002" /></defs><sodipodi:namedview
   pagecolor="#ffffff"
   bordercolor="#666666"
   borderopacity="1"
   objecttolerance="10"
   gridtolerance="10"
   guidetolerance="10"
   inkscape:pageopacity="0"
   inkscape:pageshadow="2"
   inkscape:window-width="1920"
   inkscape:window-height="1025"
   id="namedview447"
   showgrid="false"
   inkscape:zoom="1.6924666"
   inkscape:cx="-73.9916"
   inkscape:cy="68.737811"
   inkscape:window-x="-8"
   inkscape:window-y="-8"
   inkscape:window-maximized="1"
   inkscape:current-layer="flash0.ai"
   fit-margin-top="0"
   fit-margin-left="0"
   fit-margin-right="0"
   fit-margin-bottom="0" />
<symbol
   id="flash0.ai_x5F_2_x2F_Layer_4_copy_2_x2F__x3C_Path_x3E__x5F_2"
   viewBox="0 -17.4 0.25 17.4"
   transform="translate(74.704106,98.219185)">
	<g
   id="Layer_1_27_">
		<path
   style="clip-rule:evenodd;fill:#dff7f7;fill-rule:evenodd"
   d="m 0.25,-8.7 c 0,-5.8 -0.033,-8.7 -0.1,-8.7 -0.1,0 -0.15,2.9 -0.15,8.7 0,5.8 0.05,8.7 0.15,8.7 0.067,0 0.1,-2.9 0.1,-8.7 z"
   id="path2"
   inkscape:connector-curvature="0" />
	</g>
</symbol>
<symbol
   id="flash0.ai_x5F_2_x2F_Layer_4_copy_2_x2F__x3C_Path_x3E__x5F_42"
   viewBox="0.051 -8.482 11.949 8.482"
   transform="translate(74.704106,98.219185)">
	<g
   id="Layer_1_26_">
		
			<linearGradient
   id="SVGID_1_"
   gradientUnits="userSpaceOnUse"
   x1="5741.5186"
   y1="-19451.977"
   x2="5750.54"
   y2="-19451.977"
   gradientTransform="matrix(-0.5431,-0.8396,0.8396,-0.5431,19458.629,-5746.2573)">
			<stop
   offset="0"
   style="stop-color:#FFFFFF"
   id="stop6" />
			<stop
   offset="1"
   style="stop-color:#000000"
   id="stop8" />
		</linearGradient>
		<path
   style="clip-rule:evenodd;fill:url(#linearGradient1100);fill-rule:evenodd"
   d="M 8.8,-0.35 12,0 11.3,-0.7 C 10.767,-1.233 9.517,-2.266 7.55,-3.8 5.15,-5.633 3.267,-6.9 1.9,-7.6 0.467,-8.367 -0.133,-8.633 0.1,-8.4 c 0.066,0.1 1,0.833 2.8,2.2 2,1.567 3.967,3.517 5.9,5.85 z"
   id="path11"
   inkscape:connector-curvature="0" />
	</g>
</symbol>
<symbol
   id="flash0.ai_x5F_2_x2F_Layer_4_copy_2_x2F__x3C_Path_x3E__x5F_43"
   viewBox="0 -10.248 15.9 10.202"
   transform="translate(74.704106,98.219185)">
	<g
   id="Layer_1_25_">
		<linearGradient
   id="SVGID_2_"
   gradientUnits="userSpaceOnUse"
   x1="2.8501"
   y1="-5.1469998"
   x2="12.6501"
   y2="-5.1469998">
			<stop
   offset="0"
   style="stop-color:#FFFFFF"
   id="stop15" />
			<stop
   offset="1"
   style="stop-color:#000000"
   id="stop17" />
		</linearGradient>
		<path
   style="clip-rule:evenodd;fill:url(#linearGradient1102);fill-rule:evenodd"
   d="m 0,-0.05 c 0.467,0.033 3.25,-0.167 8.35,-0.6 2.566,-0.233 5.083,-0.467 7.55,-0.7 l -0.05,-7 c 0,-1.767 -0.867,-2.3 -2.6,-1.6 l -2.6,1.6 c -0.433,0.367 -1.95,1.5 -4.55,3.4 -2.633,1.9 -4.667,3.533 -6.1,4.9 z"
   id="path20"
   inkscape:connector-curvature="0" />
	</g>
</symbol>
<symbol
   id="flash0.ai_x5F_2_x2F_Layer_4_copy_2_x2F__x3C_Path_x3E__x5F_44"
   viewBox="0 -16.39 44.6 16.39"
   transform="translate(74.704106,98.219185)">
	<g
   id="Layer_1_24_">
		<linearGradient
   id="SVGID_3_"
   gradientUnits="userSpaceOnUse"
   x1="0"
   y1="-8.1948004"
   x2="44.600101"
   y2="-8.1948004">
			<stop
   offset="0"
   style="stop-color:#FFFFFF"
   id="stop24" />
			<stop
   offset="1"
   style="stop-color:#000000"
   id="stop26" />
		</linearGradient>
		<path
   style="clip-rule:evenodd;fill:url(#linearGradient1104);fill-rule:evenodd"
   d="m 42.35,-1.5 c 0.833,0.533 1.583,1.033 2.25,1.5 -7,-5.233 -11.717,-8.65 -14.15,-10.25 -3.133,-2.067 -5.184,-3.767 -6.15,-5.1 -0.6,-0.8 -1.267,-1.133 -2,-1 -0.2,-0.066 -0.45,-0.05 -0.75,0.05 -0.466,0.167 -0.867,0.483 -1.2,0.95 -0.967,1.333 -3.017,3.033 -6.15,5.1 C 11.767,-8.65 7.033,-5.233 0,0 0.667,-0.467 1.433,-0.967 2.3,-1.5 4,-2.6 5.267,-3.233 6.1,-3.4 c 1.4,-0.267 6.8,-0.833 16.2,-1.7 9.4,0.867 14.8,1.434 16.2,1.7 0.867,0.167 2.15,0.8 3.85,1.9 z"
   id="path29"
   inkscape:connector-curvature="0" />
	</g>
</symbol>
<symbol
   id="flash0.ai_x5F_2_x2F_Layer_4_copy_2_x2F__x3C_Path_x3E__x5F_47"
   viewBox="0 -12.106 33.25 12.106"
   transform="translate(74.704106,98.219185)">
	<g
   id="Layer_1_23_">
		
			<linearGradient
   id="SVGID_4_"
   gradientUnits="userSpaceOnUse"
   x1="16326.575"
   y1="-17.082001"
   x2="16341.625"
   y2="-17.082001"
   gradientTransform="matrix(6.644518e-5,1,-1,-0.001,-1.5425,-16341.167)">
			<stop
   offset="0"
   style="stop-color:#FF859B"
   id="stop33" />
			<stop
   offset="1"
   style="stop-color:#D42F56"
   id="stop35" />
		</linearGradient>
		<path
   style="clip-rule:evenodd;fill:url(#linearGradient1106);fill-rule:evenodd"
   d="M 22.4,-7.65 C 21.967,-7.983 21.5,-8.333 21,-8.7 c -0.967,-0.8 -1.567,-1.35 -1.8,-1.65 -0.3,-0.533 -0.534,-0.917 -0.7,-1.15 -0.333,-0.367 -0.817,-0.567 -1.45,-0.6 -0.667,-0.033 -1.216,0.083 -1.65,0.35 -0.167,0.133 -0.517,0.5 -1.05,1.1 -0.367,0.4 -1.05,1.033 -2.05,1.9 -1,0.8 -1.833,1.433 -2.5,1.9 C 8.933,-6.283 5.667,-4 0,0 h 33.25 z"
   id="path38"
   inkscape:connector-curvature="0" />
	</g>
</symbol>
<symbol
   id="flash0.ai_x5F_2_x2F_Layer_4_copy_2_x2F__x3C_Path_x3E__x5F_48"
   viewBox="0.05 -1.782 2.828 1.782"
   transform="translate(74.704106,98.219185)">
	<g
   id="Layer_1_22_">
		<path
   style="clip-rule:evenodd;fill:#ffffff;fill-rule:evenodd"
   d="M 1.8,-1.65 C 1.182,-1.91 0.599,-1.785 0.05,-1.275 0.473,-1.65 1.04,-1.708 1.75,-1.45 2.417,-1.183 2.783,-0.7 2.85,0 2.983,-0.733 2.633,-1.283 1.8,-1.65 Z"
   id="path42"
   inkscape:connector-curvature="0" />
	</g>
</symbol>
<symbol
   id="flash0.ai_x5F_2_x2F_Layer_4_copy_2_x2F__x3C_Path_x3E__x5F_51"
   viewBox="0 -3.55 3.6 3.55"
   transform="translate(74.704106,98.219185)">
	<g
   id="Layer_1_21_">
		
			<radialGradient
   id="SVGID_5_"
   cx="-3209.626"
   cy="-10153.845"
   r="2.4137001"
   gradientTransform="matrix(0.5749,-0.8183,-0.8183,-0.5749,-6462.4512,-8464.207)"
   gradientUnits="userSpaceOnUse">
			<stop
   offset="0"
   style="stop-color:#EDF5FF"
   id="stop46" />
			<stop
   offset="0.0824"
   style="stop-color:#D9E5F3"
   id="stop48" />
			<stop
   offset="0.7216"
   style="stop-color:#3E6899"
   id="stop50" />
			<stop
   offset="1"
   style="stop-color:#003675"
   id="stop52" />
		</radialGradient>
		<path
   style="clip-rule:evenodd;fill:url(#radialGradient1108);fill-rule:evenodd"
   d="m 3.6,-1.75 c 0,-0.5 -0.167,-0.933 -0.5,-1.3 -0.367,-0.333 -0.8,-0.5 -1.3,-0.5 -0.5,0 -0.917,0.167 -1.25,0.5 C 0.183,-2.683 0,-2.25 0,-1.75 0,-1.283 0.183,-0.867 0.55,-0.5 0.883,-0.167 1.3,0 1.8,0 2.3,0 2.734,-0.167 3.1,-0.5 3.433,-0.867 3.6,-1.283 3.6,-1.75 Z"
   id="path55"
   inkscape:connector-curvature="0" />
	</g>
</symbol>
<symbol
   id="flash0.ai_x5F_2_x2F_Layer_4_copy_2_x2F__x3C_Path_x3E__x5F_52"
   viewBox="0 -3.55 3.6 3.55"
   transform="translate(74.704106,98.219185)">
	<g
   id="Layer_1_20_">
		<path
   style="clip-rule:evenodd;fill:#ffffff;fill-rule:evenodd"
   d="m 3.6,-1.75 c 0,-0.5 -0.167,-0.933 -0.5,-1.3 -0.367,-0.333 -0.8,-0.5 -1.3,-0.5 -0.5,0 -0.917,0.167 -1.25,0.5 C 0.183,-2.683 0,-2.25 0,-1.75 0,-1.283 0.183,-0.867 0.55,-0.5 0.883,-0.167 1.3,0 1.8,0 2.3,0 2.734,-0.167 3.1,-0.5 3.433,-0.867 3.6,-1.283 3.6,-1.75 Z"
   id="path59"
   inkscape:connector-curvature="0" />
	</g>
</symbol>
<symbol
   id="flash0.ai_x5F_2_x2F_Layer_4_copy_2_x2F__x3C_Path_x3E__x5F_53"
   viewBox="0 -1.739 2.867 1.739"
   transform="translate(74.704106,98.219185)">
	<g
   id="Layer_1_19_">
		<path
   style="clip-rule:evenodd;fill:#ffffff;fill-rule:evenodd"
   d="M 0,-1.25 C 0.433,-1.617 1.017,-1.667 1.75,-1.4 2.417,-1.167 2.783,-0.7 2.85,0 2.95,-0.733 2.6,-1.267 1.8,-1.6 1.167,-1.867 0.567,-1.75 0,-1.25 Z"
   id="path63"
   inkscape:connector-curvature="0" />
	</g>
</symbol>
<symbol
   id="flash0.ai_x5F_2_x2F_Layer_4_copy_2_x2F__x3C_Path_x3E__x5F_56"
   viewBox="0 -3.55 3.6 3.55"
   transform="translate(74.704106,98.219185)">
	<g
   id="Layer_1_18_">
		
			<radialGradient
   id="SVGID_6_"
   cx="-3209.626"
   cy="-10153.845"
   r="2.4137001"
   gradientTransform="matrix(0.5749,-0.8183,-0.8183,-0.5749,-6462.4512,-8464.207)"
   gradientUnits="userSpaceOnUse">
			<stop
   offset="0"
   style="stop-color:#EDF5FF"
   id="stop67" />
			<stop
   offset="0.0824"
   style="stop-color:#D9E5F3"
   id="stop69" />
			<stop
   offset="0.7216"
   style="stop-color:#3E6899"
   id="stop71" />
			<stop
   offset="1"
   style="stop-color:#003675"
   id="stop73" />
		</radialGradient>
		<path
   style="clip-rule:evenodd;fill:url(#radialGradient1110);fill-rule:evenodd"
   d="m 3.6,-1.8 c 0,-0.467 -0.167,-0.883 -0.5,-1.25 -0.367,-0.333 -0.8,-0.5 -1.3,-0.5 -0.5,0 -0.917,0.167 -1.25,0.5 C 0.183,-2.683 0,-2.267 0,-1.8 0,-1.3 0.183,-0.883 0.55,-0.55 0.883,-0.183 1.3,0 1.8,0 2.3,0 2.734,-0.183 3.1,-0.55 3.433,-0.883 3.6,-1.3 3.6,-1.8 Z"
   id="path76"
   inkscape:connector-curvature="0" />
	</g>
</symbol>
<symbol
   id="flash0.ai_x5F_2_x2F_Layer_4_copy_2_x2F__x3C_Path_x3E__x5F_57"
   viewBox="0 -3.55 3.6 3.55"
   transform="translate(74.704106,98.219185)">
	<g
   id="Layer_1_17_">
		<path
   style="clip-rule:evenodd;fill:#ffffff;fill-rule:evenodd"
   d="m 3.6,-1.8 c 0,-0.467 -0.167,-0.883 -0.5,-1.25 -0.367,-0.333 -0.8,-0.5 -1.3,-0.5 -0.5,0 -0.917,0.167 -1.25,0.5 C 0.183,-2.683 0,-2.267 0,-1.8 0,-1.3 0.183,-0.883 0.55,-0.55 0.883,-0.183 1.3,0 1.8,0 2.3,0 2.734,-0.183 3.1,-0.55 3.433,-0.883 3.6,-1.3 3.6,-1.8 Z"
   id="path80"
   inkscape:connector-curvature="0" />
	</g>
</symbol>
<symbol
   id="flash0.ai_x5F_2_x2F_Layer_4_copy_2_x2F__x3C_Path_x3E__x5F_58"
   viewBox="0.075 -1.399 2.194 1.399"
   transform="translate(74.704106,98.219185)">
	<g
   id="Layer_1_16_">
		<path
   style="clip-rule:evenodd;fill:#ffffff;fill-rule:evenodd"
   d="M 0.075,-1.05 C 0.399,-1.301 0.84,-1.317 1.4,-1.1 1.933,-0.933 2.217,-0.567 2.25,0 2.35,-0.567 2.067,-1 1.4,-1.3 0.957,-1.49 0.515,-1.407 0.075,-1.05 Z"
   id="path84"
   inkscape:connector-curvature="0" />
	</g>
</symbol>
<symbol
   id="flash0.ai_x5F_2_x2F_Layer_4_copy_2_x2F__x3C_Path_x3E__x5F_61"
   viewBox="0 -2.9 2.85 2.9"
   transform="translate(74.704106,98.219185)">
	<g
   id="Layer_1_15_">
		
			<radialGradient
   id="SVGID_7_"
   cx="-3207.5342"
   cy="-10167.217"
   r="1.9385"
   gradientTransform="matrix(0.5739,-0.8189,-0.8189,-0.5739,-6484.6895,-8462.457)"
   gradientUnits="userSpaceOnUse">
			<stop
   offset="0"
   style="stop-color:#EDF5FF"
   id="stop88" />
			<stop
   offset="0.0824"
   style="stop-color:#D9E5F3"
   id="stop90" />
			<stop
   offset="0.7216"
   style="stop-color:#3E6899"
   id="stop92" />
			<stop
   offset="1"
   style="stop-color:#003675"
   id="stop94" />
		</radialGradient>
		<path
   style="clip-rule:evenodd;fill:url(#radialGradient1112);fill-rule:evenodd"
   d="m 2.85,-1.45 c 0,-0.4 -0.133,-0.75 -0.4,-1.05 -0.3,-0.267 -0.633,-0.4 -1,-0.4 -0.4,0 -0.733,0.133 -1,0.4 C 0.15,-2.2 0,-1.85 0,-1.45 c 0,0.4 0.15,0.733 0.45,1 0.267,0.3 0.6,0.45 1,0.45 0.367,0 0.7,-0.15 1,-0.45 0.267,-0.267 0.4,-0.6 0.4,-1 z"
   id="path97"
   inkscape:connector-curvature="0" />
	</g>
</symbol>
<symbol
   id="flash0.ai_x5F_2_x2F_Layer_4_copy_2_x2F__x3C_Path_x3E__x5F_62"
   viewBox="0 -2.9 2.85 2.9"
   transform="translate(74.704106,98.219185)">
	<g
   id="Layer_1_14_">
		<path
   style="clip-rule:evenodd;fill:#ffffff;fill-rule:evenodd"
   d="m 2.85,-1.45 c 0,-0.4 -0.133,-0.75 -0.4,-1.05 -0.3,-0.267 -0.633,-0.4 -1,-0.4 -0.4,0 -0.733,0.133 -1,0.4 C 0.15,-2.2 0,-1.85 0,-1.45 c 0,0.4 0.15,0.733 0.45,1 0.267,0.3 0.6,0.45 1,0.45 0.367,0 0.7,-0.15 1,-0.45 0.267,-0.267 0.4,-0.6 0.4,-1 z"
   id="path101"
   inkscape:connector-curvature="0" />
	</g>
</symbol>
<symbol
   id="flash0.ai_x5F_2_x2F_Layer_4_copy_2_x2F__x3C_Path_x3E__x5F_63"
   viewBox="0.05 -1.832 2.828 1.832"
   transform="translate(74.704106,98.219185)">
	<g
   id="Layer_1_13_">
		<path
   style="clip-rule:evenodd;fill:#ffffff;fill-rule:evenodd"
   d="M 1.8,-1.7 C 1.181,-1.961 0.597,-1.836 0.05,-1.325 0.44,-1.667 1.007,-1.708 1.75,-1.45 2.417,-1.217 2.783,-0.733 2.85,0 2.983,-0.767 2.633,-1.333 1.8,-1.7 Z"
   id="path105"
   inkscape:connector-curvature="0" />
	</g>
</symbol>
<symbol
   id="flash0.ai_x5F_2_x2F_Layer_4_copy_2_x2F__x3C_Path_x3E__x5F_66"
   viewBox="0 -3.65 3.65 3.65"
   transform="translate(74.704106,98.219185)">
	<g
   id="Layer_1_12_">
		
			<radialGradient
   id="SVGID_8_"
   cx="-3216.832"
   cy="-10111.712"
   r="2.4658999"
   gradientTransform="matrix(0.5779,-0.8161,-0.8161,-0.5779,-6392.4795,-8469.6572)"
   gradientUnits="userSpaceOnUse">
			<stop
   offset="0"
   style="stop-color:#EDF5FF"
   id="stop109" />
			<stop
   offset="0.0824"
   style="stop-color:#D9E5F3"
   id="stop111" />
			<stop
   offset="0.7216"
   style="stop-color:#3E6899"
   id="stop113" />
			<stop
   offset="1"
   style="stop-color:#003675"
   id="stop115" />
		</radialGradient>
		<path
   style="clip-rule:evenodd;fill:url(#radialGradient1114);fill-rule:evenodd"
   d="m 3.65,-1.8 c 0,-0.534 -0.167,-0.967 -0.5,-1.3 -0.367,-0.367 -0.8,-0.55 -1.3,-0.55 -0.5,0 -0.933,0.183 -1.3,0.55 C 0.183,-2.767 0,-2.333 0,-1.8 c 0,0.5 0.183,0.917 0.55,1.25 0.367,0.367 0.8,0.55 1.3,0.55 0.5,0 0.933,-0.183 1.3,-0.55 0.333,-0.333 0.5,-0.75 0.5,-1.25 z"
   id="path118"
   inkscape:connector-curvature="0" />
	</g>
</symbol>
<symbol
   id="flash0.ai_x5F_2_x2F_Layer_4_copy_2_x2F__x3C_Path_x3E__x5F_67"
   viewBox="0 -3.65 3.65 3.65"
   transform="translate(74.704106,98.219185)">
	<g
   id="Layer_1_11_">
		<path
   style="clip-rule:evenodd;fill:#ffffff;fill-rule:evenodd"
   d="m 3.65,-1.8 c 0,-0.534 -0.167,-0.967 -0.5,-1.3 -0.367,-0.367 -0.8,-0.55 -1.3,-0.55 -0.5,0 -0.933,0.183 -1.3,0.55 C 0.183,-2.767 0,-2.333 0,-1.8 c 0,0.5 0.183,0.917 0.55,1.25 0.367,0.367 0.8,0.55 1.3,0.55 0.5,0 0.933,-0.183 1.3,-0.55 0.333,-0.333 0.5,-0.75 0.5,-1.25 z"
   id="path122"
   inkscape:connector-curvature="0" />
	</g>
</symbol>
<symbol
   id="flash0.ai_x5F_2_x2F_Layer_4_copy_2_x2F__x3C_Path_x3E__x5F_68"
   viewBox="0.05 -1.567 2.518 1.567"
   transform="translate(74.704106,98.219185)">
	<g
   id="Layer_1_10_">
		<path
   style="clip-rule:evenodd;fill:#ffffff;fill-rule:evenodd"
   d="m 0.05,-1.15 c 0.365,-0.289 0.865,-0.323 1.5,-0.1 0.6,0.2 0.934,0.617 1,1.25 C 2.65,-0.633 2.334,-1.117 1.6,-1.45 1.084,-1.676 0.567,-1.576 0.05,-1.15 Z"
   id="path126"
   inkscape:connector-curvature="0" />
	</g>
</symbol>
<symbol
   id="flash0.ai_x5F_2_x2F_Layer_4_copy_2_x2F__x3C_Path_x3E__x5F_71"
   viewBox="0 -3.2 3.2 3.2"
   transform="translate(74.704106,98.219185)">
	<g
   id="Layer_1_9_">
		
			<radialGradient
   id="SVGID_9_"
   cx="-3218.4805"
   cy="-10103.098"
   r="2.1608"
   gradientTransform="matrix(0.5785,-0.8157,-0.8157,-0.5785,-6378.1914,-8470.7891)"
   gradientUnits="userSpaceOnUse">
			<stop
   offset="0"
   style="stop-color:#EDF5FF"
   id="stop130" />
			<stop
   offset="0.0824"
   style="stop-color:#D9E5F3"
   id="stop132" />
			<stop
   offset="0.7216"
   style="stop-color:#3E6899"
   id="stop134" />
			<stop
   offset="1"
   style="stop-color:#003675"
   id="stop136" />
		</radialGradient>
		<path
   style="clip-rule:evenodd;fill:url(#radialGradient1116);fill-rule:evenodd"
   d="M 3.2,-1.6 C 3.2,-2.067 3.05,-2.45 2.75,-2.75 2.45,-3.05 2.067,-3.2 1.6,-3.2 1.166,-3.2 0.8,-3.05 0.5,-2.75 0.167,-2.417 0,-2.033 0,-1.6 0,-1.166 0.167,-0.783 0.5,-0.45 0.8,-0.15 1.167,0 1.6,0 2.067,0 2.45,-0.15 2.75,-0.45 3.05,-0.783 3.2,-1.167 3.2,-1.6 Z"
   id="path139"
   inkscape:connector-curvature="0" />
	</g>
</symbol>
<symbol
   id="flash0.ai_x5F_2_x2F_Layer_4_copy_2_x2F__x3C_Path_x3E__x5F_72"
   viewBox="0 -3.2 3.2 3.2"
   transform="translate(74.704106,98.219185)">
	<g
   id="Layer_1_8_">
		<path
   style="clip-rule:evenodd;fill:#ffffff;fill-rule:evenodd"
   d="M 3.2,-1.6 C 3.2,-2.067 3.05,-2.45 2.75,-2.75 2.45,-3.05 2.067,-3.2 1.6,-3.2 1.166,-3.2 0.8,-3.05 0.5,-2.75 0.167,-2.417 0,-2.033 0,-1.6 0,-1.166 0.167,-0.783 0.5,-0.45 0.8,-0.15 1.167,0 1.6,0 2.067,0 2.45,-0.15 2.75,-0.45 3.05,-0.783 3.2,-1.167 3.2,-1.6 Z"
   id="path143"
   inkscape:connector-curvature="0" />
	</g>
</symbol>
<symbol
   id="flash0.ai_x5F_2_x2F_Layer_4_copy_2_x2F__x3C_Path_x3E__x5F_74"
   viewBox="0 -9.25 43.85 9.25"
   transform="translate(74.704106,98.219185)">
	<g
   id="Layer_1_7_">
		<linearGradient
   id="SVGID_10_"
   gradientUnits="userSpaceOnUse"
   x1="0"
   y1="-4.625"
   x2="43.850101"
   y2="-4.625">
			<stop
   offset="0"
   style="stop-color:#C2E7FF"
   id="stop147" />
			<stop
   offset="1"
   style="stop-color:#88ABC2"
   id="stop149" />
		</linearGradient>
		<path
   style="clip-rule:evenodd;fill:url(#linearGradient1118);fill-rule:evenodd"
   d="m 37.45,-1.35 c 4.267,-0.9 6.4,-1.983 6.4,-3.25 0,-1.267 -2.133,-2.367 -6.4,-3.3 -4.3,-0.9 -9.467,-1.35 -15.5,-1.35 -6.034,0 -11.2,0.45 -15.5,1.35 C 2.15,-6.967 0,-5.867 0,-4.6 c 0,1.267 2.15,2.35 6.45,3.25 4.267,0.9 9.433,1.35 15.5,1.35 6.067,0 11.233,-0.45 15.5,-1.35 z"
   id="path152"
   inkscape:connector-curvature="0" />
	</g>
</symbol>
<symbol
   id="flash0.ai_x5F_2_x2F_Layer_4_copy_2_x2F__x3C_Path_x3E__x5F_79"
   viewBox="0 -20.65 3.9 20.65"
   transform="translate(74.704106,98.219185)">
	<g
   id="Layer_1_6_">
		<linearGradient
   id="SVGID_11_"
   gradientUnits="userSpaceOnUse"
   x1="0"
   y1="-10.3252"
   x2="3.8999"
   y2="-10.3252">
			<stop
   offset="0"
   style="stop-color:#5A9BC9"
   id="stop156" />
			<stop
   offset="0.4588"
   style="stop-color:#EDF8FF"
   id="stop158" />
			<stop
   offset="0.9765"
   style="stop-color:#61BEFF"
   id="stop160" />
		</linearGradient>
		<path
   style="clip-rule:evenodd;fill:url(#linearGradient1120);fill-rule:evenodd"
   d="M 1.95,-0.75 3.9,0 C 3.367,-0.367 3.1,-1.483 3.1,-3.35 3.067,-5.817 3.067,-11.4 3.1,-20.1 3,-20.433 2.666,-20.617 2.1,-20.65 H 1.8 c -0.533,0.033 -0.85,0.217 -0.95,0.55 0.033,8.7 0.033,14.283 0,16.75 C 0.817,-1.483 0.533,-0.367 0,0 Z"
   id="path163"
   inkscape:connector-curvature="0" />
	</g>
</symbol>
<symbol
   id="flash0.ai_x5F_2_x2F_Layer_4_copy_2_x2F__x3C_Path_x3E__x5F_80"
   viewBox="0.03 -2.6 4.482 2.6"
   transform="translate(74.704106,98.219185)">
	<g
   id="Layer_1_5_">
		<linearGradient
   id="SVGID_12_"
   gradientUnits="userSpaceOnUse"
   x1="0.0127"
   y1="-1.2998"
   x2="4.4877"
   y2="-1.2998">
			<stop
   offset="0"
   style="stop-color:#8F8F8F"
   id="stop167" />
			<stop
   offset="0.4588"
   style="stop-color:#FFFFFF"
   id="stop169" />
			<stop
   offset="0.9765"
   style="stop-color:#A8A8A8"
   id="stop171" />
		</linearGradient>
		<path
   style="clip-rule:evenodd;fill:url(#linearGradient1122);fill-rule:evenodd"
   d="M 3.45,0 C 3.75,-0.133 4,-0.333 4.2,-0.6 4.533,-1 4.6,-1.4 4.4,-1.8 4.1,-2.334 3.433,-2.6 2.4,-2.6 H 2.15 c -1.1,0 -1.767,0.267 -2,0.8 C -0.05,-1.4 0,-1 0.3,-0.6 0.5,-0.333 0.75,-0.133 1.05,0 l 1.2,-0.35 z"
   id="path174"
   inkscape:connector-curvature="0" />
	</g>
</symbol>
<symbol
   id="flash0.ai_x5F_2_x2F_Layer_4_copy_2_x2F__x3C_Path_x3E__x5F_81"
   viewBox="0 -8.55 20.35 8.55"
   transform="translate(74.704106,98.219185)">
	<g
   id="Layer_1_4_">
		<path
   style="clip-rule:evenodd;fill:#162c33;fill-rule:evenodd"
   d="m 17.4,-7.2 c -2,-0.9 -4.4,-1.35 -7.2,-1.35 -2.833,0 -5.233,0.45 -7.2,1.35 -2,0.933 -3,2.05 -3,3.35 0,0.767 0.383,1.5 1.15,2.2 0.767,0.667 1.8,1.217 3.1,1.65 -1,-0.567 -1.667,-1.067 -2,-1.5 -0.467,-0.633 -0.5,-1.333 -0.1,-2.1 0.7,-1.4 2.367,-2.4 5,-3 2.6,-0.6 5.184,-0.6 7.75,0 1.934,0.434 3.117,1.3 3.55,2.6 0.4,1.233 0.083,2.383 -0.95,3.45 1.9,-0.9 2.85,-2 2.85,-3.3 0,-1.3 -0.983,-2.417 -2.95,-3.35 z"
   id="path178"
   inkscape:connector-curvature="0" />
	</g>
</symbol>
<symbol
   id="flash0.ai_x5F_2_x2F_Layer_4_copy_2_x2F__x3C_Path_x3E__x5F_82"
   viewBox="0 -9.45 20.35 9.45"
   transform="translate(74.704106,98.219185)">
	<g
   id="Layer_1_3_">
		
			<radialGradient
   id="SVGID_13_"
   cx="1.8091"
   cy="-16322.275"
   r="8.6125002"
   gradientTransform="matrix(5.805515e-5,-1,-1.3193,5.805515e-5,-21523.783,0.3066)"
   gradientUnits="userSpaceOnUse">
			<stop
   offset="0"
   style="stop-color:#FFFFFF"
   id="stop182" />
			<stop
   offset="0.9882"
   style="stop-color:#83CFE6"
   id="stop184" />
		</radialGradient>
		<path
   style="clip-rule:evenodd;fill:url(#radialGradient1124);fill-rule:evenodd"
   d="m 20.35,-4.75 c 0,-1.3 -0.983,-2.417 -2.95,-3.35 C 15.4,-9 13,-9.45 10.2,-9.45 7.367,-9.45 4.967,-9 3,-8.1 c -2,0.933 -3,2.05 -3,3.35 0,1.3 1,2.417 3,3.35 2,0.933 4.4,1.4 7.2,1.4 2.8,0 5.2,-0.467 7.2,-1.4 1.967,-0.933 2.95,-2.05 2.95,-3.35 z"
   id="path187"
   inkscape:connector-curvature="0" />
	</g>
</symbol>
<symbol
   id="flash0.ai_x5F_2_x2F_Layer_4_copy_2_x2F__x3C_Path_x3E__x5F_83"
   viewBox="0 -5.35 20.35 5.35"
   transform="translate(74.704106,98.219185)">
	<g
   id="Layer_1_2_">
		<path
   style="clip-rule:evenodd;fill:#162c33;fill-rule:evenodd"
   d="m 20.3,-0.2 0.05,-0.4 c 0,-1.333 -1,-2.45 -3,-3.35 -1.967,-0.933 -4.367,-1.4 -7.2,-1.4 -2.8,0 -5.183,0.467 -7.15,1.4 -2,0.9 -3,2.017 -3,3.35 V 0 c 0.167,-1.267 1.217,-2.317 3.15,-3.15 1.967,-0.867 4.317,-1.3 7.05,-1.3 2.633,0 4.917,0.4 6.85,1.2 1.933,0.833 3.017,1.85 3.25,3.05 z"
   id="path191"
   inkscape:connector-curvature="0" />
	</g>
</symbol>
<g
   id="g444"
   transform="matrix(6.5652876,0,0,6.5652876,-48.032773,-67.519645)">
	
		<use
   xlink:href="#flash0.ai_x5F_2_x2F_Layer_4_copy_2_x2F__x3C_Path_x3E__x5F_83"
   width="20.35"
   height="5.3499999"
   y="-5.3499999"
   transform="matrix(0.65,0,0,-0.65,-29.107469,109.64227)"
   style="overflow:visible;opacity:0.42190001;enable-background:new"
   id="use195"
   x="0" />
	
		<use
   xlink:href="#flash0.ai_x5F_2_x2F_Layer_4_copy_2_x2F__x3C_Path_x3E__x5F_82"
   width="20.35"
   height="9.4499998"
   y="-9.4499998"
   transform="matrix(0.65,0,0,-0.65,-29.107469,106.39227)"
   style="overflow:visible;opacity:0.19920002;enable-background:new"
   id="use197"
   x="0" />
	
		<use
   xlink:href="#flash0.ai_x5F_2_x2F_Layer_4_copy_2_x2F__x3C_Path_x3E__x5F_81"
   width="20.35"
   height="8.5500002"
   y="-8.5500002"
   transform="matrix(0.65,0,0,-0.65,-29.107469,106.99287)"
   style="overflow:visible;opacity:0.21089998;enable-background:new"
   id="use199"
   x="0" />
	
		<use
   xlink:href="#flash0.ai_x5F_2_x2F_Layer_4_copy_2_x2F__x3C_Path_x3E__x5F_80"
   width="4.4819999"
   height="2.5999999"
   x="0.029999999"
   y="-2.5999999"
   transform="matrix(0.65,0,0,-0.65,-23.907769,106.49287)"
   style="overflow:visible;opacity:0.42190001;enable-background:new"
   id="use201" />
	
		<use
   xlink:href="#flash0.ai_x5F_2_x2F_Layer_4_copy_2_x2F__x3C_Path_x3E__x5F_79"
   width="3.9000001"
   height="20.65"
   y="-20.65"
   transform="matrix(0.65,0,0,-0.65,-23.757869,93.69207)"
   style="overflow:visible;opacity:0.19140003;enable-background:new"
   id="use203"
   x="0" />
	<path
   style="clip-rule:evenodd;fill:#b4cfe0;fill-rule:evenodd"
   d="m 27.405,29.962 c -0.304,0.238 -0.466,0.921 -0.487,2.048 -0.022,1.581 -0.022,5.211 0,10.888 0,0.086 -0.044,0.173 -0.131,0.26 -0.13,0.13 -0.313,0.205 -0.552,0.228 v 0.032 h -0.13 l -0.033,-0.162 -0.032,0.162 -0.13,-0.032 c -0.238,-0.022 -0.422,-0.087 -0.552,-0.195 -0.087,-0.087 -0.13,-0.163 -0.13,-0.228 0.021,-5.72 0.021,-9.371 0,-10.952 -0.021,-1.127 -0.184,-1.81 -0.487,-2.048 l 0.097,-0.292 1.235,0.487 1.235,-0.487 z m -0.423,0.163 -0.91,0.357 -0.91,-0.357 c 0.195,0.434 0.292,1.062 0.292,1.885 0.086,5.633 0.086,9.252 0,10.854 0.13,0.13 0.303,0.206 0.52,0.228 l 0.065,0.032 v -0.032 l 0.065,0.032 0.032,-0.032 h 0.032 c 0.282,-0.021 0.455,-0.098 0.521,-0.228 -0.022,-5.72 -0.022,-9.338 0,-10.854 0.001,-0.823 0.098,-1.451 0.293,-1.885 z"
   id="path205"
   inkscape:connector-curvature="0" />
	<path
   style="clip-rule:evenodd;fill:#b4cfe0;fill-rule:evenodd"
   d="m 26.072,30.319 c 0.434,0.043 0.759,0 0.976,-0.13 l -0.163,0.715 c -0.043,0.238 -0.054,0.823 -0.032,1.756 -0.065,-0.065 -0.108,-0.358 -0.13,-0.878 -0.021,-0.368 -0.13,-0.65 -0.325,-0.845 -0.195,-0.174 -0.412,-0.195 -0.65,-0.065 -0.195,0.108 -0.314,0.357 -0.357,0.747 -0.014,0.108 -0.024,0.216 -0.033,0.325 -0.002,-0.252 -0.046,-0.588 -0.13,-1.007 l -0.195,-0.715 z"
   id="path207"
   inkscape:connector-curvature="0" />
	<path
   style="clip-rule:evenodd;fill:#e3e3e3;fill-rule:evenodd"
   d="m 20.093,44.848 c 0.151,-0.087 0.26,0.054 0.325,0.422 0.108,0.563 0.314,1.018 0.618,1.365 0.303,0.347 0.271,0.498 -0.098,0.454 -0.347,-0.064 -0.671,-0.292 -0.975,-0.682 -0.281,-0.368 -0.39,-0.704 -0.325,-1.008 0.065,-0.259 0.216,-0.444 0.455,-0.551 z"
   id="path209"
   inkscape:connector-curvature="0" />
	<path
   style="clip-rule:evenodd;fill:#e3e3e3;fill-rule:evenodd"
   d="m 21.848,47.285 c 0.238,0.129 0.303,0.248 0.195,0.356 -0.13,0.087 -0.271,0.065 -0.422,-0.064 -0.13,-0.13 -0.163,-0.228 -0.098,-0.292 0.064,-0.065 0.173,-0.065 0.325,0 z"
   id="path211"
   inkscape:connector-curvature="0" />
	<path
   style="clip-rule:evenodd;fill:#e3e3e3;fill-rule:evenodd"
   d="m 31.662,46.439 c 0.195,-0.303 0.325,-0.563 0.39,-0.779 0.065,-0.218 0.12,-0.369 0.163,-0.455 0.173,-0.282 0.292,-0.174 0.357,0.324 0.044,0.434 -0.162,0.834 -0.617,1.202 -0.52,0.391 -0.985,0.586 -1.397,0.586 0.217,-0.131 0.4,-0.239 0.553,-0.325 0.259,-0.195 0.443,-0.38 0.551,-0.553 z"
   id="path213"
   inkscape:connector-curvature="0" />
	
		<use
   xlink:href="#flash0.ai_x5F_2_x2F_Layer_4_copy_2_x2F__x3C_Path_x3E__x5F_74"
   width="43.849998"
   height="9.25"
   y="-9.25"
   transform="matrix(0.65,0,0,-0.65,-36.357469,80.14227)"
   style="overflow:visible;opacity:0.26170002;enable-background:new"
   id="use215"
   x="0" />
	
		<linearGradient
   id="SVGID_14_"
   gradientUnits="userSpaceOnUse"
   x1="-33.347698"
   y1="22.625999"
   x2="-18.297701"
   y2="22.625999"
   gradientTransform="matrix(4.318896e-5,-0.65,0.65,-6.499939e-4,11.3499,10.2998)">
		<stop
   offset="0"
   style="stop-color:#FF859B"
   id="stop217" />
		<stop
   offset="1"
   style="stop-color:#D42F56"
   id="stop219" />
	</linearGradient>
	<path
   style="clip-rule:evenodd;fill:url(#SVGID_14_);fill-rule:evenodd"
   d="M 21.62,26.939 15.25,22.487 H 36.862 L 29.81,27.46 c -0.282,0.217 -0.586,0.443 -0.91,0.683 -0.629,0.52 -1.019,0.877 -1.17,1.072 -0.109,0.173 -0.261,0.422 -0.455,0.747 -0.217,0.238 -0.531,0.368 -0.943,0.39 C 25.899,30.374 25.541,30.298 25.26,30.125 25.152,30.038 24.925,29.8 24.578,29.41 24.34,29.149 23.895,28.737 23.245,28.175 22.595,27.654 22.053,27.243 21.62,26.939 Z"
   id="path222"
   inkscape:connector-curvature="0" />
	
		<use
   xlink:href="#flash0.ai_x5F_2_x2F_Layer_4_copy_2_x2F__x3C_Path_x3E__x5F_72"
   width="3.2"
   height="3.2"
   y="-3.2"
   transform="matrix(0.65,0,0,-0.65,-25.107469,90.29267)"
   style="overflow:visible;opacity:0.39059999;enable-background:new"
   id="use224"
   x="0" />
	
		<use
   xlink:href="#flash0.ai_x5F_2_x2F_Layer_4_copy_2_x2F__x3C_Path_x3E__x5F_71"
   width="3.2"
   height="3.2"
   y="-3.2"
   transform="matrix(0.65,0,0,-0.65,-25.107469,90.29267)"
   style="overflow:visible;opacity:0.35160002;enable-background:new"
   id="use226"
   x="0" />
	<path
   style="clip-rule:evenodd;fill:#ffffff;fill-rule:evenodd"
   d="m 24.025,26.81 c 0.173,-0.021 0.195,0.055 0.065,0.228 -0.13,0.195 -0.228,0.261 -0.292,0.195 -0.043,-0.044 -0.043,-0.131 0,-0.26 0.064,-0.109 0.14,-0.163 0.227,-0.163 z"
   id="path228"
   inkscape:connector-curvature="0" />
	<path
   style="clip-rule:evenodd;fill:#ffffff;fill-rule:evenodd"
   d="m 23.732,27.395 c 0.043,0 0.065,0.032 0.065,0.098 0,0.064 -0.021,0.075 -0.065,0.032 -0.021,-0.109 -0.021,-0.152 0,-0.13 z"
   id="path230"
   inkscape:connector-curvature="0" />
	
		<use
   xlink:href="#flash0.ai_x5F_2_x2F_Layer_4_copy_2_x2F__x3C_Path_x3E__x5F_68"
   width="2.5179999"
   height="1.567"
   x="0.050000001"
   y="-1.567"
   transform="matrix(0.65,0,0,-0.65,-24.807669,91.24287)"
   style="overflow:visible;opacity:0.21880002;enable-background:new"
   id="use232" />
	
		<use
   xlink:href="#flash0.ai_x5F_2_x2F_Layer_4_copy_2_x2F__x3C_Path_x3E__x5F_67"
   width="3.6500001"
   height="3.6500001"
   y="-3.6500001"
   transform="matrix(0.65,0,0,-0.65,-24.107469,91.19207)"
   style="overflow:visible;opacity:0.39059999;enable-background:new"
   id="use234"
   x="0" />
	
		<use
   xlink:href="#flash0.ai_x5F_2_x2F_Layer_4_copy_2_x2F__x3C_Path_x3E__x5F_66"
   width="3.6500001"
   height="3.6500001"
   y="-3.6500001"
   transform="matrix(0.65,0,0,-0.65,-24.107469,91.19207)"
   style="overflow:visible;opacity:0.35160002;enable-background:new"
   id="use236"
   x="0" />
	<path
   style="clip-rule:evenodd;fill:#ffffff;fill-rule:evenodd"
   d="m 25.097,27.785 c 0.217,0 0.25,0.097 0.098,0.292 -0.151,0.217 -0.26,0.281 -0.325,0.195 -0.064,-0.044 -0.064,-0.141 0,-0.293 0.065,-0.129 0.141,-0.194 0.227,-0.194 z"
   id="path238"
   inkscape:connector-curvature="0" />
	<path
   style="clip-rule:evenodd;fill:#ffffff;fill-rule:evenodd"
   d="m 24.805,28.435 c 0.043,0.021 0.054,0.065 0.032,0.13 0,0.065 -0.021,0.087 -0.065,0.065 -0.044,-0.022 -0.065,-0.055 -0.065,-0.098 0.022,-0.065 0.055,-0.097 0.098,-0.097 z"
   id="path240"
   inkscape:connector-curvature="0" />
	
		<use
   xlink:href="#flash0.ai_x5F_2_x2F_Layer_4_copy_2_x2F__x3C_Path_x3E__x5F_63"
   width="2.8280001"
   height="1.832"
   x="0.050000001"
   y="-1.832"
   transform="matrix(0.65,0,0,-0.65,-23.707569,92.29267)"
   style="overflow:visible;opacity:0.21880002;enable-background:new"
   id="use242" />
	
		<use
   xlink:href="#flash0.ai_x5F_2_x2F_Layer_4_copy_2_x2F__x3C_Path_x3E__x5F_62"
   width="2.8499999"
   height="2.9000001"
   y="-2.9000001"
   transform="matrix(0.65,0,0,-0.65,-22.107469,90.64227)"
   style="overflow:visible;opacity:0.39059999;enable-background:new"
   id="use244"
   x="0" />
	
		<use
   xlink:href="#flash0.ai_x5F_2_x2F_Layer_4_copy_2_x2F__x3C_Path_x3E__x5F_61"
   width="2.8499999"
   height="2.9000001"
   y="-2.9000001"
   transform="matrix(0.65,0,0,-0.65,-22.107469,90.64227)"
   style="overflow:visible;opacity:0.35160002;enable-background:new"
   id="use246"
   x="0" />
	<path
   style="clip-rule:evenodd;fill:#ffffff;fill-rule:evenodd"
   d="m 26.95,27.135 c 0.238,-0.022 0.184,0.108 -0.163,0.39 -0.043,-0.043 -0.043,-0.119 0,-0.227 0.044,-0.11 0.098,-0.163 0.163,-0.163 z"
   id="path248"
   inkscape:connector-curvature="0" />
	<path
   style="clip-rule:evenodd;fill:#ffffff;fill-rule:evenodd"
   d="m 26.723,27.654 c 0.043,0 0.054,0.022 0.032,0.065 0,0.065 -0.021,0.087 -0.064,0.065 -0.022,-0.022 -0.033,-0.055 -0.033,-0.098 0.022,-0.042 0.043,-0.053 0.065,-0.032 z"
   id="path250"
   inkscape:connector-curvature="0" />
	
		<use
   xlink:href="#flash0.ai_x5F_2_x2F_Layer_4_copy_2_x2F__x3C_Path_x3E__x5F_58"
   width="2.194"
   height="1.399"
   x="0.075000003"
   y="-1.399"
   transform="matrix(0.65,0,0,-0.65,-21.807669,91.49287)"
   style="overflow:visible;opacity:0.21880002;enable-background:new"
   id="use252" />
	
		<use
   xlink:href="#flash0.ai_x5F_2_x2F_Layer_4_copy_2_x2F__x3C_Path_x3E__x5F_57"
   width="3.5999999"
   height="3.55"
   y="-3.55"
   transform="matrix(0.65,0,0,-0.65,-26.407769,88.59247)"
   style="overflow:visible;opacity:0.39059999;enable-background:new"
   id="use254"
   x="0" />
	
		<use
   xlink:href="#flash0.ai_x5F_2_x2F_Layer_4_copy_2_x2F__x3C_Path_x3E__x5F_56"
   width="3.5999999"
   height="3.55"
   y="-3.55"
   transform="matrix(0.65,0,0,-0.65,-26.407769,88.59247)"
   style="overflow:visible;opacity:0.35160002;enable-background:new"
   id="use256"
   x="0" />
	<path
   style="clip-rule:evenodd;fill:#ffffff;fill-rule:evenodd"
   d="m 22.79,25.119 c 0.195,0 0.228,0.099 0.098,0.293 -0.152,0.217 -0.26,0.293 -0.325,0.228 -0.043,-0.043 -0.043,-0.141 0,-0.293 0.064,-0.129 0.141,-0.205 0.227,-0.228 z"
   id="path258"
   inkscape:connector-curvature="0" />
	<path
   style="clip-rule:evenodd;fill:#ffffff;fill-rule:evenodd"
   d="m 22.498,25.802 c 0.065,0 0.086,0.033 0.065,0.098 -0.021,0.065 -0.054,0.087 -0.098,0.065 -0.044,-0.022 -0.033,-0.076 0.033,-0.163 z"
   id="path260"
   inkscape:connector-curvature="0" />
	
		<use
   xlink:href="#flash0.ai_x5F_2_x2F_Layer_4_copy_2_x2F__x3C_Path_x3E__x5F_53"
   width="2.8670001"
   height="1.739"
   y="-1.739"
   transform="matrix(0.65,0,0,-0.65,-26.057669,89.64227)"
   style="overflow:visible;opacity:0.21880002;enable-background:new"
   id="use262"
   x="0" />
	
		<use
   xlink:href="#flash0.ai_x5F_2_x2F_Layer_4_copy_2_x2F__x3C_Path_x3E__x5F_52"
   width="3.5999999"
   height="3.55"
   y="-3.55"
   transform="matrix(0.65,0,0,-0.65,-20.857469,88.19257)"
   style="overflow:visible;opacity:0.39059999;enable-background:new"
   id="use264"
   x="0" />
	
		<use
   xlink:href="#flash0.ai_x5F_2_x2F_Layer_4_copy_2_x2F__x3C_Path_x3E__x5F_51"
   width="3.5999999"
   height="3.55"
   y="-3.55"
   transform="matrix(0.65,0,0,-0.65,-20.857469,88.19257)"
   style="overflow:visible;opacity:0.35160002;enable-background:new"
   id="use266"
   x="0" />
	<path
   style="clip-rule:evenodd;fill:#ffffff;fill-rule:evenodd"
   d="m 28.38,24.73 c 0.195,0 0.228,0.097 0.098,0.292 -0.152,0.217 -0.26,0.292 -0.325,0.228 -0.064,-0.065 -0.076,-0.163 -0.032,-0.293 0.064,-0.151 0.15,-0.227 0.259,-0.227 z"
   id="path268"
   inkscape:connector-curvature="0" />
	<path
   style="clip-rule:evenodd;fill:#ffffff;fill-rule:evenodd"
   d="m 28.055,25.38 c 0.087,0.021 0.087,0.087 0,0.194 -0.043,-0.021 -0.064,-0.064 -0.064,-0.13 -0.001,-0.043 0.021,-0.064 0.064,-0.064 z"
   id="path270"
   inkscape:connector-curvature="0" />
	
		<use
   xlink:href="#flash0.ai_x5F_2_x2F_Layer_4_copy_2_x2F__x3C_Path_x3E__x5F_48"
   width="2.8280001"
   height="1.7819999"
   x="0.050000001"
   y="-1.7819999"
   transform="matrix(0.65,0,0,-0.65,-20.458069,89.24287)"
   style="overflow:visible;opacity:0.21880002;enable-background:new"
   id="use272" />
	
		<use
   xlink:href="#flash0.ai_x5F_2_x2F_Layer_4_copy_2_x2F__x3C_Path_x3E__x5F_47"
   width="33.25"
   height="12.106"
   y="-12.106"
   transform="matrix(0.65,0,0,-0.65,-33.307669,86.34247)"
   style="overflow:visible;opacity:0.37110003;enable-background:new"
   id="use274"
   x="0" />
	
		<linearGradient
   id="SVGID_15_"
   gradientUnits="userSpaceOnUse"
   x1="4.6499"
   y1="17.4004"
   x2="38.649899"
   y2="17.4004"
   gradientTransform="matrix(0.65,0,0,0.65,11.3502,10.3)">
		<stop
   offset="0"
   style="stop-color:#FF859B"
   id="stop276" />
		<stop
   offset="1"
   style="stop-color:#D42F56"
   id="stop278" />
	</linearGradient>
	<path
   style="clip-rule:evenodd;fill:url(#SVGID_15_);fill-rule:evenodd"
   d="m 37.643,21.61 c 0,0.693 -1.127,1.278 -3.38,1.755 -2.254,0.498 -4.962,0.748 -8.125,0.748 -3.185,0 -5.904,-0.25 -8.158,-0.748 -2.253,-0.477 -3.38,-1.062 -3.38,-1.755 0,-0.693 1.126,-1.29 3.38,-1.788 2.253,-0.477 4.973,-0.715 8.158,-0.715 3.185,0 5.893,0.238 8.125,0.715 2.253,0.498 3.38,1.095 3.38,1.788 z"
   id="path281"
   inkscape:connector-curvature="0" />
	
		<radialGradient
   id="SVGID_16_"
   cx="14.6875"
   cy="16.185499"
   r="17.498699"
   gradientTransform="matrix(0.6496,0.0232,0.0232,-0.6496,10.5988,31.3272)"
   gradientUnits="userSpaceOnUse">
		<stop
   offset="0"
   style="stop-color:#FF859B"
   id="stop283" />
		<stop
   offset="1"
   style="stop-color:#D42F56"
   id="stop285" />
	</radialGradient>
	<path
   style="clip-rule:evenodd;fill:url(#SVGID_16_);fill-rule:evenodd"
   d="m 19.865,18.23 c 1.885,-0.542 4.073,-0.759 6.564,-0.65 1.993,0.108 3.824,0.379 5.493,0.813 1.451,0.368 2.112,0.92 1.982,1.657 -0.108,0.78 -1.105,1.419 -2.99,1.917 -1.863,0.499 -4.214,0.65 -7.053,0.455 -2.643,-0.173 -4.452,-0.52 -5.427,-1.041 -0.845,-0.476 -1.083,-1.051 -0.715,-1.722 0.348,-0.649 1.063,-1.126 2.146,-1.429 z"
   id="path288"
   inkscape:connector-curvature="0" />
	
		<use
   xlink:href="#flash0.ai_x5F_2_x2F_Layer_4_copy_2_x2F__x3C_Path_x3E__x5F_44"
   width="44.599998"
   height="16.389999"
   y="-16.389999"
   transform="matrix(0.65,0,0,-0.65,-37.007869,83.59247)"
   style="overflow:visible;opacity:0.35160002;enable-background:new"
   id="use290"
   x="0" />
	
		<use
   xlink:href="#flash0.ai_x5F_2_x2F_Layer_4_copy_2_x2F__x3C_Path_x3E__x5F_43"
   width="15.9"
   height="10.202"
   y="-10.248"
   transform="matrix(0.65,0,0,-0.65,-31.857469,85.69257)"
   style="overflow:visible;opacity:0.35940001;enable-background:new"
   id="use292"
   x="0" />
	
		<use
   xlink:href="#flash0.ai_x5F_2_x2F_Layer_4_copy_2_x2F__x3C_Path_x3E__x5F_42"
   width="11.949"
   height="8.4820004"
   x="0.050999999"
   y="-8.4820004"
   transform="matrix(0.65,0,0,-0.65,-21.057669,85.74237)"
   style="overflow:visible;opacity:0.35160002;enable-background:new"
   id="use294" />
	<path
   style="clip-rule:evenodd;fill:#b4cfe0;fill-rule:evenodd"
   d="m 40.632,19.855 c -4.593,3.423 -7.67,5.655 -9.229,6.695 -2.08,1.364 -3.391,2.448 -3.933,3.25 -0.347,0.498 -0.769,0.748 -1.268,0.748 l -0.162,-0.033 -0.13,0.033 c -0.498,0 -0.92,-0.25 -1.267,-0.748 -0.607,-0.845 -1.917,-1.929 -3.933,-3.25 -1.56,-1.04 -4.637,-3.271 -9.23,-6.695 L 11.415,19.822 V 19.53 h 0.13 l 0.618,0.325 c 1.928,1.126 3.207,1.766 3.835,1.917 1.668,0.39 3.326,0.661 4.972,0.813 0.824,0.065 2.048,0.109 3.673,0.13 l 1.495,0.032 c 4.832,-0.238 8.385,-0.65 10.66,-1.235 0.996,-0.26 2.145,-0.856 3.444,-1.788 l 0.293,-0.195 h 0.162 v 0.292 z m -14.494,3.25 -1.495,-0.033 c -3.25,-0.043 -6.153,-0.368 -8.71,-0.975 -0.542,-0.13 -1.246,-0.433 -2.113,-0.91 3.684,2.708 6.035,4.399 7.053,5.07 2.123,1.431 3.456,2.535 3.997,3.315 0.304,0.411 0.694,0.617 1.17,0.617 h 0.162 c 0.391,0 0.727,-0.206 1.008,-0.617 0.606,-0.846 1.95,-1.95 4.029,-3.315 1.063,-0.715 3.272,-2.307 6.631,-4.777 -0.347,0.173 -0.683,0.292 -1.008,0.357 -2.426,0.607 -6.002,1.03 -10.724,1.268 z"
   id="path296"
   inkscape:connector-curvature="0" />
	<path
   style="clip-rule:evenodd;fill:#b4cfe0;fill-rule:evenodd"
   d="m 26.04,16.215 c 4.073,0 7.54,0.325 10.399,0.975 2.882,0.628 4.323,1.408 4.323,2.34 0,0.91 -1.441,1.69 -4.323,2.34 -2.859,0.628 -6.326,0.942 -10.399,0.942 -4.052,0 -7.508,-0.314 -10.368,-0.942 -2.881,-0.65 -4.322,-1.43 -4.322,-2.34 0,-0.932 1.441,-1.711 4.322,-2.34 2.86,-0.65 6.316,-0.975 10.368,-0.975 z m 0.032,5.947 c 3.792,0 7.021,-0.281 9.685,-0.845 2.688,-0.542 4.03,-1.213 4.03,-2.015 0,-0.78 -1.343,-1.441 -4.03,-1.982 -2.664,-0.563 -5.893,-0.845 -9.685,-0.845 -3.792,0 -7.02,0.282 -9.685,0.845 -2.665,0.542 -3.998,1.202 -3.998,1.982 0,0.802 1.333,1.473 3.998,2.015 2.666,0.564 5.894,0.845 9.685,0.845 z"
   id="path298"
   inkscape:connector-curvature="0" />
	
		<radialGradient
   id="SVGID_17_"
   cx="16.737801"
   cy="16.1465"
   r="16.0991"
   gradientTransform="matrix(0.6404,-0.111,-0.111,-0.6404,14.9357,30.9817)"
   gradientUnits="userSpaceOnUse">
		<stop
   offset="0"
   style="stop-color:#FF859B"
   id="stop300" />
		<stop
   offset="1"
   style="stop-color:#D42F56"
   id="stop302" />
	</radialGradient>
	<path
   style="clip-rule:evenodd;fill:url(#SVGID_17_);fill-rule:evenodd"
   d="m 24.578,14.395 c 0.303,-0.671 0.791,-1.213 1.462,-1.625 0.347,-0.216 0.65,-0.368 0.91,-0.455 -0.174,0.303 -0.304,0.639 -0.391,1.007 -0.173,0.715 -0.043,1.235 0.391,1.56 0.411,0.282 0.996,0.52 1.755,0.715 0.498,0.13 1.56,0.39 3.185,0.78 1.344,0.368 1.973,1.094 1.885,2.177 -0.064,1.019 -0.628,1.755 -1.689,2.21 -1.04,0.455 -2.958,0.488 -5.753,0.098 -2.946,-0.39 -4.994,-1.083 -6.142,-2.08 -0.715,-0.628 -0.607,-1.278 0.325,-1.95 0.65,-0.476 1.517,-0.877 2.6,-1.202 0.692,-0.26 1.18,-0.672 1.462,-1.235 z"
   id="path305"
   inkscape:connector-curvature="0" />
	<path
   style="clip-rule:evenodd;fill:#fd9fb0;fill-rule:evenodd"
   d="m 23.538,16.117 c 0.563,0 0.748,0.13 0.552,0.39 -0.173,0.238 -0.444,0.357 -0.813,0.357 -0.303,0 -0.401,-0.119 -0.292,-0.357 0.13,-0.26 0.314,-0.39 0.553,-0.39 z"
   id="path307"
   inkscape:connector-curvature="0" />
	<path
   style="clip-rule:evenodd;fill:#fd9fb0;fill-rule:evenodd"
   d="m 24.252,17.19 c 0.455,-0.043 0.672,0.108 0.65,0.455 0,0.347 -0.206,0.521 -0.617,0.521 -0.368,0 -0.542,-0.152 -0.52,-0.456 0,-0.304 0.163,-0.477 0.487,-0.52 z"
   id="path309"
   inkscape:connector-curvature="0" />
	<path
   style="clip-rule:evenodd;fill:#fd9fb0;fill-rule:evenodd"
   d="m 22.303,17.905 c 0.368,-0.022 0.53,0.173 0.487,0.585 -0.043,0.412 -0.249,0.574 -0.618,0.487 -0.325,-0.086 -0.444,-0.282 -0.357,-0.584 0.065,-0.304 0.227,-0.467 0.488,-0.488 z"
   id="path311"
   inkscape:connector-curvature="0" />
	<path
   style="clip-rule:evenodd;fill:#fd9fb0;fill-rule:evenodd"
   d="m 21.49,16.93 c 0.39,-0.217 0.628,-0.238 0.715,-0.065 0.087,0.173 0.043,0.357 -0.13,0.553 -0.13,0.173 -0.314,0.163 -0.553,-0.033 C 21.284,17.19 21.273,17.038 21.49,16.93 Z"
   id="path313"
   inkscape:connector-curvature="0" />
	<path
   style="clip-rule:evenodd;fill:#fd9fb0;fill-rule:evenodd"
   d="m 24.578,18.945 c 0.412,0.043 0.574,0.216 0.487,0.52 -0.086,0.281 -0.303,0.357 -0.65,0.228 -0.303,-0.13 -0.401,-0.292 -0.292,-0.487 0.086,-0.218 0.238,-0.305 0.455,-0.261 z"
   id="path315"
   inkscape:connector-curvature="0" />
	<path
   style="clip-rule:evenodd;fill:#fd9fb0;fill-rule:evenodd"
   d="m 26.04,17.807 c 0.325,0 0.466,0.152 0.423,0.455 -0.065,0.325 -0.261,0.444 -0.585,0.357 -0.303,-0.065 -0.401,-0.216 -0.292,-0.455 0.085,-0.238 0.237,-0.357 0.454,-0.357 z"
   id="path317"
   inkscape:connector-curvature="0" />
	<path
   style="clip-rule:evenodd;fill:#fd9fb0;fill-rule:evenodd"
   d="m 25.422,16.442 c 0.282,-0.152 0.434,-0.043 0.455,0.325 0.021,0.368 -0.108,0.552 -0.39,0.552 -0.238,0 -0.335,-0.13 -0.292,-0.39 0.043,-0.26 0.119,-0.422 0.227,-0.487 z"
   id="path319"
   inkscape:connector-curvature="0" />
	<path
   style="clip-rule:evenodd;fill:#fd9fb0;fill-rule:evenodd"
   d="m 25.163,14.232 c 0.238,0 0.347,0.098 0.325,0.293 -0.043,0.217 -0.206,0.335 -0.487,0.357 -0.26,0.021 -0.336,-0.087 -0.228,-0.325 0.108,-0.216 0.238,-0.325 0.39,-0.325 z"
   id="path321"
   inkscape:connector-curvature="0" />
	<path
   style="clip-rule:evenodd;fill:#fd9fb0;fill-rule:evenodd"
   d="m 24.935,15.402 c 0.282,0.086 0.39,0.206 0.325,0.357 -0.043,0.152 -0.206,0.195 -0.487,0.13 -0.238,-0.043 -0.304,-0.141 -0.195,-0.292 0.108,-0.173 0.227,-0.238 0.357,-0.195 z"
   id="path323"
   inkscape:connector-curvature="0" />
	<path
   style="clip-rule:evenodd;fill:#fd9fb0;fill-rule:evenodd"
   d="m 20.515,20.115 c 0.303,0.065 0.379,0.228 0.228,0.487 -0.152,0.26 -0.303,0.357 -0.455,0.292 -0.152,-0.086 -0.217,-0.249 -0.195,-0.487 0.021,-0.26 0.162,-0.357 0.422,-0.292 z"
   id="path325"
   inkscape:connector-curvature="0" />
	<path
   style="clip-rule:evenodd;fill:#fd9fb0;fill-rule:evenodd"
   d="m 21.978,20.57 c 0.563,0.043 0.726,0.216 0.487,0.52 -0.238,0.325 -0.498,0.433 -0.78,0.325 -0.217,-0.086 -0.292,-0.26 -0.228,-0.52 0.087,-0.239 0.261,-0.347 0.521,-0.325 z"
   id="path327"
   inkscape:connector-curvature="0" />
	<path
   style="clip-rule:evenodd;fill:#fd9fb0;fill-rule:evenodd"
   d="m 19.053,19.692 c 0.216,0.26 0.249,0.455 0.097,0.585 -0.151,0.086 -0.335,0.076 -0.552,-0.033 -0.173,-0.108 -0.163,-0.26 0.033,-0.455 0.172,-0.194 0.313,-0.227 0.422,-0.097 z"
   id="path329"
   inkscape:connector-curvature="0" />
	<path
   style="clip-rule:evenodd;fill:#fd9fb0;fill-rule:evenodd"
   d="m 19.638,21.155 c 0.195,0.108 0.249,0.227 0.162,0.357 -0.108,0.108 -0.238,0.119 -0.39,0.032 -0.152,-0.086 -0.206,-0.206 -0.163,-0.357 0.022,-0.13 0.152,-0.141 0.391,-0.032 z"
   id="path331"
   inkscape:connector-curvature="0" />
	<path
   style="clip-rule:evenodd;fill:#fd9fb0;fill-rule:evenodd"
   d="m 23.96,21.317 c 0.542,0.368 0.434,0.498 -0.325,0.39 -0.303,-0.065 -0.368,-0.173 -0.195,-0.325 0.195,-0.173 0.368,-0.195 0.52,-0.065 z"
   id="path333"
   inkscape:connector-curvature="0" />
	<path
   style="clip-rule:evenodd;fill:#fd9fb0;fill-rule:evenodd"
   d="m 19.703,19.302 c 0.303,-0.13 0.455,-0.076 0.455,0.163 -0.021,0.216 -0.141,0.347 -0.357,0.39 -0.151,0.021 -0.217,-0.065 -0.195,-0.26 z"
   id="path335"
   inkscape:connector-curvature="0" />
	<path
   style="clip-rule:evenodd;fill:#fd9fb0;fill-rule:evenodd"
   d="m 17.038,20.44 c 0.303,0.021 0.401,0.108 0.292,0.26 -0.109,0.152 -0.292,0.217 -0.552,0.195 -0.239,-0.021 -0.304,-0.108 -0.195,-0.26 0.108,-0.152 0.26,-0.217 0.455,-0.195 z"
   id="path337"
   inkscape:connector-curvature="0" />
	<path
   style="clip-rule:evenodd;fill:#c43154;fill-rule:evenodd"
   d="m 31.077,16.702 c 0.304,0.26 0.314,0.422 0.033,0.488 -0.261,0.086 -0.51,0.054 -0.748,-0.098 -0.217,-0.152 -0.228,-0.314 -0.032,-0.487 0.217,-0.152 0.466,-0.12 0.747,0.097 z"
   id="path339"
   inkscape:connector-curvature="0" />
	<path
   style="clip-rule:evenodd;fill:#c43154;fill-rule:evenodd"
   d="m 32.377,17.027 c 0.152,0.108 0.174,0.26 0.065,0.455 -0.13,0.174 -0.249,0.174 -0.357,0 -0.087,-0.195 -0.098,-0.346 -0.033,-0.455 0.065,-0.087 0.174,-0.087 0.325,0 z"
   id="path341"
   inkscape:connector-curvature="0" />
	<path
   style="clip-rule:evenodd;fill:#c43154;fill-rule:evenodd"
   d="m 31.564,17.677 c 0.434,0.216 0.521,0.444 0.261,0.683 -0.261,0.238 -0.499,0.282 -0.715,0.13 -0.174,-0.108 -0.185,-0.292 -0.033,-0.553 0.13,-0.26 0.293,-0.346 0.487,-0.26 z"
   id="path343"
   inkscape:connector-curvature="0" />
	<path
   style="clip-rule:evenodd;fill:#c43154;fill-rule:evenodd"
   d="m 32.864,18.132 c 0.348,-0.065 0.478,0.065 0.391,0.39 -0.087,0.304 -0.26,0.455 -0.52,0.455 -0.239,0 -0.325,-0.141 -0.261,-0.422 0.066,-0.261 0.196,-0.401 0.39,-0.423 z"
   id="path345"
   inkscape:connector-curvature="0" />
	<path
   style="clip-rule:evenodd;fill:#c43154;fill-rule:evenodd"
   d="m 29.939,17.677 c 0.239,0.173 0.261,0.325 0.065,0.455 -0.151,0.13 -0.336,0.184 -0.553,0.162 -0.173,-0.043 -0.184,-0.195 -0.032,-0.455 0.131,-0.259 0.305,-0.314 0.52,-0.162 z"
   id="path347"
   inkscape:connector-curvature="0" />
	<path
   style="clip-rule:evenodd;fill:#c43154;fill-rule:evenodd"
   d="m 29.777,18.88 c 0.325,0 0.357,0.184 0.098,0.552 -0.238,0.369 -0.434,0.487 -0.585,0.357 -0.152,-0.108 -0.174,-0.282 -0.065,-0.52 0.108,-0.259 0.293,-0.389 0.552,-0.389 z"
   id="path349"
   inkscape:connector-curvature="0" />
	<path
   style="clip-rule:evenodd;fill:#c43154;fill-rule:evenodd"
   d="m 29.063,20.277 c 0.325,0.065 0.412,0.152 0.26,0.26 -0.13,0.087 -0.303,0.108 -0.521,0.065 -0.216,-0.021 -0.292,-0.097 -0.227,-0.228 0.043,-0.129 0.205,-0.162 0.488,-0.097 z"
   id="path351"
   inkscape:connector-curvature="0" />
	<path
   style="clip-rule:evenodd;fill:#c43154;fill-rule:evenodd"
   d="m 29.485,21.382 c 0.433,0.065 0.52,0.163 0.26,0.293 -0.26,0.13 -0.488,0.151 -0.683,0.065 -0.174,-0.043 -0.195,-0.13 -0.064,-0.26 0.129,-0.109 0.292,-0.141 0.487,-0.098 z"
   id="path353"
   inkscape:connector-curvature="0" />
	<path
   style="clip-rule:evenodd;fill:#c43154;fill-rule:evenodd"
   d="m 28.802,16.345 c 0.282,0.022 0.358,0.151 0.229,0.39 -0.13,0.238 -0.282,0.335 -0.455,0.292 -0.152,-0.021 -0.174,-0.141 -0.065,-0.358 0.086,-0.238 0.183,-0.346 0.291,-0.324 z"
   id="path355"
   inkscape:connector-curvature="0" />
	<path
   style="clip-rule:evenodd;fill:#c43154;fill-rule:evenodd"
   d="m 27.34,15.532 c 0.281,0.13 0.391,0.271 0.325,0.423 -0.065,0.129 -0.228,0.162 -0.487,0.097 -0.217,-0.043 -0.271,-0.152 -0.163,-0.325 0.108,-0.195 0.216,-0.26 0.325,-0.195 z"
   id="path357"
   inkscape:connector-curvature="0" />
	
		<linearGradient
   id="SVGID_18_"
   gradientUnits="userSpaceOnUse"
   x1="-42.3008"
   y1="-20.589399"
   x2="-33.348301"
   y2="-20.589399"
   gradientTransform="matrix(-0.6444,0.0853,-0.0853,-0.6444,11.3508,10.299)">
		<stop
   offset="0"
   style="stop-color:#A9FF52"
   id="stop359" />
		<stop
   offset="1"
   style="stop-color:#4F7314"
   id="stop361" />
	</linearGradient>
	<path
   style="clip-rule:evenodd;fill:url(#SVGID_18_);fill-rule:evenodd"
   d="m 35.14,20.147 c 0.238,-0.195 0.531,-0.314 0.878,-0.357 0.282,-0.021 0.639,0.022 1.072,0.13 0.542,0.152 1.029,0.033 1.462,-0.357 -0.605,0.997 -1.311,1.549 -2.112,1.658 -0.823,0.108 -1.332,0.151 -1.527,0.13 -0.39,-0.065 -0.477,-0.303 -0.26,-0.715 0.217,-0.39 0.368,-0.585 0.455,-0.585 0.021,-10e-4 0.032,0.031 0.032,0.096 z"
   id="path364"
   inkscape:connector-curvature="0" />
	
		<linearGradient
   id="SVGID_19_"
   gradientUnits="userSpaceOnUse"
   x1="36.836899"
   y1="-10.7373"
   x2="40.200001"
   y2="-10.7373"
   gradientTransform="matrix(0.5363,0.3672,-0.3672,0.5363,11.3504,10.2996)">
		<stop
   offset="0"
   style="stop-color:#A9FF52"
   id="stop366" />
		<stop
   offset="1"
   style="stop-color:#4F7314"
   id="stop368" />
	</linearGradient>
	<path
   style="clip-rule:evenodd;fill:url(#SVGID_19_);fill-rule:evenodd"
   d="m 37.123,14.167 0.292,0.097 c 0.173,0.173 0.228,0.466 0.162,0.878 -0.173,1.321 -0.672,2.708 -1.495,4.16 -0.628,1.083 -1.289,1.831 -1.982,2.242 l -0.357,0.13 -1.202,0.097 0.324,-0.39 c 0.823,-0.498 1.625,-1.343 2.405,-2.535 0.801,-1.234 1.419,-2.794 1.853,-4.679 z"
   id="path371"
   inkscape:connector-curvature="0" />
	
		<linearGradient
   id="SVGID_20_"
   gradientUnits="userSpaceOnUse"
   x1="-17.1143"
   y1="-39.097698"
   x2="-11.6906"
   y2="-39.097698"
   gradientTransform="matrix(-0.2786,0.5872,-0.5872,-0.2786,11.3502,10.2995)">
		<stop
   offset="0"
   style="stop-color:#FFADBC"
   id="stop373" />
		<stop
   offset="1"
   style="stop-color:#FA7695"
   id="stop375" />
	</linearGradient>
	<path
   style="clip-rule:evenodd;fill:url(#SVGID_20_);fill-rule:evenodd"
   d="m 38.194,14.297 c -0.975,0.455 -1.43,0.357 -1.364,-0.292 0.086,-0.888 0.249,-1.733 0.487,-2.535 0.087,-0.238 0.271,-0.379 0.553,-0.422 0.303,-0.065 0.649,-0.011 1.04,0.163 0.672,0.303 0.953,0.921 0.845,1.853 -0.066,0.388 -0.585,0.8 -1.561,1.233 z"
   id="path378"
   inkscape:connector-curvature="0" />
	
		<linearGradient
   id="SVGID_21_"
   gradientUnits="userSpaceOnUse"
   x1="16.133301"
   y1="-31.9023"
   x2="23.255199"
   y2="-31.9023"
   gradientTransform="matrix(0.2898,0.5818,-0.5818,0.2898,11.3497,10.3)">
		<stop
   offset="0"
   style="stop-color:#FFADBC"
   id="stop380" />
		<stop
   offset="1"
   style="stop-color:#FA7695"
   id="stop382" />
	</linearGradient>
	<path
   style="clip-rule:evenodd;fill:url(#SVGID_21_);fill-rule:evenodd"
   d="m 36.439,14.492 c -0.477,-0.347 -1.354,-1.159 -2.632,-2.438 -0.26,-0.303 -0.357,-0.606 -0.293,-0.91 0.065,-0.347 0.325,-0.585 0.78,-0.715 0.542,-0.151 1.007,-0.184 1.397,-0.098 0.477,0.109 0.747,0.369 0.813,0.78 l 0.715,3.25 c 0.021,0.173 -0.043,0.281 -0.195,0.325 -0.151,0.045 -0.345,-0.02 -0.585,-0.194 z"
   id="path385"
   inkscape:connector-curvature="0" />
	
		<linearGradient
   id="SVGID_22_"
   gradientUnits="userSpaceOnUse"
   x1="31.5576"
   y1="2.4360001"
   x2="39.819"
   y2="2.4360001"
   gradientTransform="matrix(0.6471,0.061,-0.061,0.6471,11.3503,10.2995)">
		<stop
   offset="0"
   style="stop-color:#FFADBC"
   id="stop387" />
		<stop
   offset="1"
   style="stop-color:#FA7695"
   id="stop389" />
	</linearGradient>
	<path
   style="clip-rule:evenodd;fill:url(#SVGID_22_);fill-rule:evenodd"
   d="m 36.505,14.103 c 0.672,0.238 0.672,0.541 0,0.91 -0.672,0.347 -1.495,0.488 -2.47,0.422 -0.91,-0.043 -1.528,-0.206 -1.853,-0.487 -0.282,-0.238 -0.455,-0.683 -0.521,-1.333 -0.087,-1.257 0.759,-1.473 2.535,-0.65 0.238,0.108 0.65,0.325 1.235,0.65 0.413,0.216 0.77,0.379 1.074,0.488 z"
   id="path392"
   inkscape:connector-curvature="0" />
	
		<linearGradient
   id="SVGID_23_"
   gradientUnits="userSpaceOnUse"
   x1="-46.045399"
   y1="-13.2617"
   x2="-38.326401"
   y2="-13.2617"
   gradientTransform="matrix(-0.64,0.1137,-0.1137,-0.64,11.3506,10.2995)">
		<stop
   offset="0"
   style="stop-color:#FFADBC"
   id="stop394" />
		<stop
   offset="1"
   style="stop-color:#FA7695"
   id="stop396" />
	</linearGradient>
	<path
   style="clip-rule:evenodd;fill:url(#SVGID_23_);fill-rule:evenodd"
   d="m 39.072,14.915 c -0.715,0.021 -1.289,-0.022 -1.723,-0.13 -0.477,-0.108 -0.444,-0.249 0.098,-0.422 0.303,-0.087 0.78,-0.292 1.43,-0.618 0.694,-0.347 1.16,-0.563 1.397,-0.65 0.368,-0.108 0.77,-0.076 1.203,0.098 0.368,0.151 0.628,0.325 0.779,0.52 0.108,0.173 -0.237,0.412 -1.039,0.715 -0.822,0.303 -1.538,0.465 -2.145,0.487 z"
   id="path399"
   inkscape:connector-curvature="0" />
	
		<linearGradient
   id="SVGID_24_"
   gradientUnits="userSpaceOnUse"
   x1="-48.6367"
   y1="-1.0244"
   x2="-40.7658"
   y2="-1.0244"
   gradientTransform="matrix(-0.6421,-0.1012,0.1012,-0.6421,11.3508,10.2997)">
		<stop
   offset="0"
   style="stop-color:#FFADBC"
   id="stop401" />
		<stop
   offset="1"
   style="stop-color:#FA7695"
   id="stop403" />
	</linearGradient>
	<path
   style="clip-rule:evenodd;fill:url(#SVGID_24_);fill-rule:evenodd"
   d="m 40.47,16.475 c -0.975,-0.021 -2.058,-0.542 -3.25,-1.56 -0.086,-0.087 0,-0.184 0.261,-0.293 0.303,-0.108 0.66,-0.141 1.071,-0.097 0.586,0.043 1.561,0.13 2.926,0.26 0.411,0.043 0.66,0.13 0.747,0.26 0.087,0.152 0.021,0.401 -0.194,0.748 -0.304,0.476 -0.824,0.703 -1.561,0.682 z"
   id="path406"
   inkscape:connector-curvature="0" />
	
		<linearGradient
   id="SVGID_25_"
   gradientUnits="userSpaceOnUse"
   x1="9.7075005"
   y1="38.0947"
   x2="14.9298"
   y2="38.0947"
   gradientTransform="matrix(0.3298,-0.5601,0.5601,0.3298,11.3501,10.2997)">
		<stop
   offset="0"
   style="stop-color:#FFADBC"
   id="stop408" />
		<stop
   offset="1"
   style="stop-color:#FA7695"
   id="stop410" />
	</linearGradient>
	<path
   style="clip-rule:evenodd;fill:url(#SVGID_25_);fill-rule:evenodd"
   d="m 37.577,17.645 c -0.672,0.152 -1.408,0.043 -2.21,-0.325 -0.802,-0.347 -1.257,-0.748 -1.365,-1.203 -0.107,-0.347 0.163,-0.606 0.813,-0.78 0.369,-0.108 0.932,-0.271 1.69,-0.488 0.433,-0.195 0.672,-0.292 0.715,-0.292 0.043,0 0.162,0.098 0.357,0.292 1.062,0.975 1.527,1.679 1.397,2.113 -0.086,0.304 -0.551,0.531 -1.397,0.683 z"
   id="path413"
   inkscape:connector-curvature="0" />
	
		<radialGradient
   id="SVGID_26_"
   cx="-11.918"
   cy="-38.941399"
   r="3.2251999"
   gradientTransform="matrix(-0.257,0.597,0.5794,0.262,56.9804,30.9326)"
   gradientUnits="userSpaceOnUse">
		<stop
   offset="0"
   style="stop-color:#FFE68A"
   id="stop415" />
		<stop
   offset="1"
   style="stop-color:#DE9B50"
   id="stop417" />
	</radialGradient>
	<path
   style="clip-rule:evenodd;fill:url(#SVGID_26_);fill-rule:evenodd"
   d="m 37.739,13.419 c 0.737,0.26 1.116,0.607 1.138,1.04 0.022,0.412 -0.184,0.672 -0.617,0.78 -0.455,0.108 -1.019,-0.011 -1.69,-0.357 -0.628,-0.347 -0.932,-0.683 -0.909,-1.007 0.021,-0.304 0.26,-0.499 0.715,-0.585 0.411,-0.087 0.865,-0.043 1.363,0.129 z"
   id="path420"
   inkscape:connector-curvature="0" />
	
		<linearGradient
   id="SVGID_27_"
   gradientUnits="userSpaceOnUse"
   x1="4.0019999"
   y1="34.670898"
   x2="9.6576004"
   y2="34.670898"
   gradientTransform="matrix(0.3821,-0.5258,0.5258,0.3821,11.3499,10.3002)">
		<stop
   offset="0"
   style="stop-color:#A9FF52"
   id="stop422" />
		<stop
   offset="1"
   style="stop-color:#4F7314"
   id="stop424" />
	</linearGradient>
	<path
   style="clip-rule:evenodd;fill:url(#SVGID_27_);fill-rule:evenodd"
   d="m 30.915,20.895 c -0.39,-0.368 -0.542,-0.942 -0.455,-1.722 l 0.228,-1.073 0.064,0.325 c 0.087,0.26 0.261,0.487 0.521,0.682 0.39,0.282 0.779,0.423 1.17,0.423 0.607,0 1.019,0.032 1.234,0.098 0.455,0.13 0.694,0.379 0.716,0.747 0.021,0.195 0,0.369 -0.065,0.52 -0.26,0.563 -0.779,0.824 -1.56,0.78 -0.716,-0.022 -1.332,-0.282 -1.853,-0.78 z"
   id="path427"
   inkscape:connector-curvature="0" />
	
		<linearGradient
   id="SVGID_28_"
   gradientUnits="userSpaceOnUse"
   x1="-0.30809999"
   y1="35.252899"
   x2="4.8332"
   y2="35.252899"
   gradientTransform="matrix(0.3255,-0.5626,0.5626,0.3255,11.3504,10.2993)">
		<stop
   offset="0"
   style="stop-color:#A9FF52"
   id="stop429" />
		<stop
   offset="1"
   style="stop-color:#4F7314"
   id="stop431" />
	</linearGradient>
	<path
   style="clip-rule:evenodd;fill:url(#SVGID_28_);fill-rule:evenodd"
   d="m 30.915,20.895 c -0.39,-0.368 -0.542,-0.942 -0.455,-1.722 l 0.228,-1.073 0.064,0.39 c 0.044,0.455 0.174,0.813 0.391,1.072 0.411,0.477 1.019,0.683 1.819,0.618 0.217,-0.022 0.478,0.054 0.78,0.228 0.282,0.151 0.466,0.325 0.553,0.52 -0.282,0.542 -0.802,0.791 -1.56,0.748 -0.715,-0.045 -1.322,-0.305 -1.82,-0.781 z"
   id="path434"
   inkscape:connector-curvature="0" />
	<path
   style="clip-rule:evenodd;fill:#dff7f7;fill-rule:evenodd"
   d="m 25.942,36.852 c 0,3.294 -0.054,4.94 -0.162,4.94 -0.109,0 -0.163,-1.646 -0.163,-4.94 0,-3.293 0.054,-4.939 0.163,-4.939 0.108,-0.001 0.162,1.646 0.162,4.939 z"
   id="path436"
   inkscape:connector-curvature="0" />
	
		<use
   xlink:href="#flash0.ai_x5F_2_x2F_Layer_4_copy_2_x2F__x3C_Path_x3E__x5F_2"
   width="0.25"
   height="17.4"
   y="-17.4"
   transform="matrix(0.65,0,0,-0.65,-22.307669,95.14227)"
   style="overflow:visible;opacity:0.28910002;enable-background:new"
   id="use438"
   x="0" />
	<path
   style="clip-rule:evenodd;fill:#b4cfe0;fill-rule:evenodd"
   d="m 25.195,42.572 c 0.086,0.151 0.098,0.217 0.033,0.195 -0.412,-0.065 -1.224,0.086 -2.438,0.455 -1.3,0.411 -2.156,0.823 -2.567,1.234 -0.477,0.52 -0.726,1.051 -0.748,1.593 0,0.06 0,0.12 0,0.179 -0.013,-0.111 -0.024,-0.225 -0.032,-0.342 -0.044,-0.606 0.097,-1.062 0.422,-1.364 0.628,-0.607 1.701,-1.116 3.217,-1.528 0.78,-0.194 1.485,-0.336 2.113,-0.422 z"
   id="path440"
   inkscape:connector-curvature="0" />
	<path
   style="clip-rule:evenodd;fill:#b4cfe0;fill-rule:evenodd"
   d="M 26.982,42.768 26.95,42.573 27.21,42.54 c 0.325,0.022 0.866,0.13 1.625,0.325 1.604,0.427 2.676,0.897 3.217,1.414 -0.213,-0.148 -0.743,-0.393 -1.592,-0.731 -0.672,-0.26 -1.462,-0.466 -2.372,-0.617 z"
   id="path442"
   inkscape:connector-curvature="0" />
</g>
</svg>