<?xml version="1.0" encoding="UTF-8" standalone="no"?>
<!-- Generator: Adobe Illustrator 15.1.0, SVG Export Plug-In . SVG Version: 6.00 Build 0)  -->

<svg
   xmlns:dc="http://purl.org/dc/elements/1.1/"
   xmlns:cc="http://creativecommons.org/ns#"
   xmlns:rdf="http://www.w3.org/1999/02/22-rdf-syntax-ns#"
   xmlns:svg="http://www.w3.org/2000/svg"
   xmlns="http://www.w3.org/2000/svg"
   xmlns:xlink="http://www.w3.org/1999/xlink"
   xmlns:sodipodi="http://sodipodi.sourceforge.net/DTD/sodipodi-0.dtd"
   xmlns:inkscape="http://www.inkscape.org/namespaces/inkscape"
   version="1.1"
   id="flash0.ai"
   x="0px"
   y="0px"
   width="256"
   height="256"
   viewBox="0 0 256 256"
   xml:space="preserve"
   sodipodi:docname="hooch.svg"
   inkscape:version="0.92.4 (5da689c313, 2019-01-14)"
   inkscape:export-xdpi="10.5"
   inkscape:export-ydpi="10.5"><title
   id="title1039">Hooch</title><metadata
   id="metadata232"><rdf:RDF><cc:Work
       rdf:about=""><dc:format>image/svg+xml</dc:format><dc:type
         rdf:resource="http://purl.org/dc/dcmitype/StillImage" /><dc:title>Hooch</dc:title><cc:license
         rdf:resource="http://creativecommons.org/publicdomain/zero/1.0/" /><dc:creator><cc:Agent><dc:title>Glitch</dc:title></cc:Agent></dc:creator><dc:source>https://opengameart.org/node/20149</dc:source></cc:Work><cc:License
       rdf:about="http://creativecommons.org/publicdomain/zero/1.0/"><cc:permits
         rdf:resource="http://creativecommons.org/ns#Reproduction" /><cc:permits
         rdf:resource="http://creativecommons.org/ns#Distribution" /><cc:permits
         rdf:resource="http://creativecommons.org/ns#DerivativeWorks" /></cc:License></rdf:RDF></metadata><defs
   id="defs230"><linearGradient
     inkscape:collect="always"
     xlink:href="#SVGID_1_"
     id="linearGradient996"
     gradientUnits="userSpaceOnUse"
     gradientTransform="matrix(5.36193e-5,-1,1,-0.001,16334.563,-5.166)"
     x1="11.5908"
     y1="-16332.621"
     x2="30.240801"
     y2="-16332.621" /><linearGradient
     inkscape:collect="always"
     xlink:href="#SVGID_2_"
     id="linearGradient998"
     gradientUnits="userSpaceOnUse"
     x1="-1.0498"
     y1="-14.0933"
     x2="7.9502001"
     y2="-14.0933" /><radialGradient
     inkscape:collect="always"
     xlink:href="#SVGID_3_"
     id="radialGradient1000"
     gradientUnits="userSpaceOnUse"
     gradientTransform="matrix(0.0041,1,1,-0.0041,-82.4639,-16301.095)"
     cx="16276.34"
     cy="25.949699"
     r="24.287701" /><radialGradient
     inkscape:collect="always"
     xlink:href="#SVGID_4_"
     id="radialGradient1002"
     gradientUnits="userSpaceOnUse"
     gradientTransform="matrix(0.011,-0.9999,-0.9999,-0.011,-16226.326,-264.189)"
     cx="-70.696297"
     cy="-16236.58"
     r="25.063999" /><radialGradient
     inkscape:collect="always"
     xlink:href="#SVGID_5_"
     id="radialGradient1004"
     gradientUnits="userSpaceOnUse"
     gradientTransform="matrix(1,0,0,-1,0,-14.4004)"
     cx="5.6001"
     cy="-7.2002001"
     r="6.4375" /></defs><sodipodi:namedview
   pagecolor="#ffffff"
   bordercolor="#666666"
   borderopacity="1"
   objecttolerance="10"
   gridtolerance="10"
   guidetolerance="10"
   inkscape:pageopacity="0"
   inkscape:pageshadow="2"
   inkscape:window-width="1920"
   inkscape:window-height="1025"
   id="namedview228"
   showgrid="false"
   inkscape:zoom="1.1671612"
   inkscape:cx="170.47049"
   inkscape:cy="96.958743"
   inkscape:window-x="-8"
   inkscape:window-y="-8"
   inkscape:window-maximized="1"
   inkscape:current-layer="flash0.ai"
   fit-margin-top="0"
   fit-margin-left="0"
   fit-margin-right="0"
   fit-margin-bottom="0" />
<symbol
   id="flash0.ai_x5F_3_x2F_Layer_13_x2F__x3C_Compound_Path_x3E_"
   viewBox="0 -38.45 24.95 38.45"
   transform="translate(60.82354,105.70005)">
	<g
   id="Layer_1_11_">
		<path
   style="clip-rule:evenodd;fill:#634120;fill-rule:evenodd"
   d="m 24.45,-16.45 c -0.367,5.567 -2.183,8.683 -5.45,9.35 -1.967,0.434 -3.5,1.533 -4.6,3.3 -0.633,1.033 -1.05,2.1 -1.25,3.2 L 12.5,-0.4 11.85,-0.6 C 11.65,-1.7 11.233,-2.767 10.6,-3.8 9.5,-5.567 7.967,-6.667 6,-7.1 2.767,-7.767 0.95,-10.883 0.55,-16.45 L 0.5,-16.6 v -0.7 c -0.033,-0.934 -0.033,-1.9 0,-2.9 V -33 l -0.1,-0.55 c 0,-1.233 1.2,-2.284 3.6,-3.15 2.367,-0.9 5.183,-1.35 8.45,-1.35 3.267,0 6.1,0.45 8.5,1.35 2.367,0.867 3.55,1.917 3.55,3.15 l -0.1,0.65 h 0.1 v 12.7 c 0.067,1 0.067,1.967 0,2.9 v 0.7 z m 0.5,0.05 -0.05,-16.9 0.05,-0.25 c 0,-1.367 -1.2,-2.534 -3.6,-3.5 -2.434,-0.934 -5.4,-1.4 -8.9,-1.4 -3.5,0 -6.45,0.467 -8.85,1.4 -2.4,0.967 -3.6,2.133 -3.6,3.5 0,0.267 0.033,0.466 0.1,0.6 L 0.05,-16.2 h 0.1 c 0.434,5.633 2.367,8.817 5.8,9.55 1.967,0.4 3.483,1.55 4.55,3.45 0.5,0.934 0.817,1.85 0.95,2.75 l 0.05,0.15 1,0.3 1.05,-0.3 v -0.15 c 0.133,-0.9 0.45,-1.817 0.95,-2.75 1.067,-1.9 2.583,-3.05 4.55,-3.45 3.467,-0.733 5.4,-3.917 5.8,-9.55 h 0.05 z"
   id="path2"
   inkscape:connector-curvature="0" />
	</g>
</symbol>
<symbol
   id="flash0.ai_x5F_3_x2F_Layer_13_x2F__x3C_Compound_Path_x3E__x5F_1"
   viewBox="0.04 -14.75 11.61 14.757"
   transform="translate(60.82354,105.70005)">
	<g
   id="Layer_1_3_">
		<path
   style="clip-rule:evenodd;fill:#634120;fill-rule:evenodd"
   d="M 10.15,-5.35 10,-5.5 9.85,-5.3 c -0.267,0.433 -0.667,0.8 -1.2,1.1 -1,0.667 -1.967,1 -2.9,1 -0.867,0 -1.567,-0.333 -2.1,-1 -0.5,-0.633 -0.767,-1.517 -0.8,-2.65 -0.033,-1.233 0.517,-2.867 1.65,-4.9 0.3,-0.5 0.467,-0.817 0.5,-0.95 0.167,-0.433 0.067,-0.917 -0.3,-1.45 -0.333,-0.4 -0.784,-0.6 -1.35,-0.6 L 2.5,-14.6 H 2.45 l -0.05,0.05 c -0.566,0.9 -1.066,1.933 -1.5,3.1 -0.633,1.767 -0.917,3.483 -0.85,5.15 0.033,1.7 0.417,3.1 1.15,4.2 0.9,1.333 2.15,2.033 3.75,2.1 1.867,0.067 3.5,-0.333 4.9,-1.2 0.8,-0.5 1.383,-1.017 1.75,-1.55 l 0.05,-0.1 -0.05,-0.1 c -0.233,-0.967 -0.717,-1.767 -1.45,-2.4 z m -1.3,1.5 c 0.5,-0.3 0.9,-0.65 1.2,-1.05 0.567,0.567 0.95,1.217 1.15,1.95 -0.434,0.6 -1.034,1.117 -1.8,1.55 -1.267,0.767 -2.75,1.1 -4.45,1 -1.467,-0.1 -2.6,-0.75 -3.4,-1.95 -0.7,-1.066 -1.066,-2.4 -1.1,-4 -0.067,-1.633 0.217,-3.283 0.85,-4.95 0.333,-1 0.8,-1.983 1.4,-2.95 l 0.65,-0.1 c 0.433,0 0.767,0.15 1,0.45 0.267,0.333 0.367,0.683 0.3,1.05 l -0.5,0.9 c -1.2,2.067 -1.783,3.767 -1.75,5.1 0.033,1.267 0.35,2.267 0.95,3 0.6,0.733 1.4,1.1 2.4,1.1 1,0 2.033,-0.367 3.1,-1.1 z"
   id="path6"
   inkscape:connector-curvature="0" />
	</g>
</symbol>
<symbol
   id="flash0.ai_x5F_3_x2F_Layer_13_x2F__x3C_Path_x3E__x5F_14"
   viewBox="0 -5.15 1.1 5.15"
   transform="translate(60.82354,105.70005)">
	<g
   id="Layer_1_16_">
		<path
   style="clip-rule:evenodd;fill:#fcc676;fill-rule:evenodd"
   d="M 1.1,-2.6 C 1.1,-4.3 0.916,-5.15 0.55,-5.15 0.184,-5.15 0,-4.3 0,-2.6 0,-0.867 0.183,0 0.55,0 0.917,0 1.1,-0.867 1.1,-2.6 Z"
   id="path10"
   inkscape:connector-curvature="0" />
	</g>
</symbol>
<symbol
   id="flash0.ai_x5F_3_x2F_Layer_13_x2F__x3C_Path_x3E__x5F_17"
   viewBox="0 -2.413 5.2 2.474"
   transform="translate(60.82354,105.70005)">
	<g
   id="Layer_1_15_">
		<path
   style="clip-rule:evenodd;fill:#634120;fill-rule:evenodd"
   d="M 4.5,-0.3 C 4.6,-0.867 4.833,-1.383 5.2,-1.85 4.933,-2.35 4.083,-2.517 2.65,-2.35 1.183,-2.183 0.3,-1.85 0,-1.35 0.2,-1.117 0.333,-0.867 0.4,-0.6 3,0.167 4.367,0.267 4.5,-0.3 Z"
   id="path14"
   inkscape:connector-curvature="0" />
	</g>
</symbol>
<symbol
   id="flash0.ai_x5F_3_x2F_Layer_13_x2F__x3C_Path_x3E__x5F_18"
   viewBox="-0.014 -2.306 2.765 2.309"
   transform="translate(60.82354,105.70005)">
	<g
   id="Layer_1_14_">
		<path
   style="clip-rule:evenodd;fill:#fcc676;fill-rule:evenodd"
   d="M 1.95,0 C 2.717,-0.067 2.933,-0.45 2.6,-1.15 2.467,-1.483 2.283,-1.7 2.05,-1.8 1.717,-1.933 1.383,-2.05 1.05,-2.15 0.584,-2.317 0.267,-2.35 0.1,-2.25 c -0.167,0.1 -0.15,0.25 0.05,0.45 0.333,0.433 0.6,0.783 0.8,1.05 0.433,0.533 0.767,0.783 1,0.75 z"
   id="path18"
   inkscape:connector-curvature="0" />
	</g>
</symbol>
<symbol
   id="flash0.ai_x5F_3_x2F_Layer_13_x2F__x3C_Path_x3E__x5F_19"
   viewBox="0.02 -1.25 7.83 1.26"
   transform="translate(60.82354,105.70005)">
	<g
   id="Layer_1_13_">
		<path
   style="clip-rule:evenodd;fill:#fcc676;fill-rule:evenodd"
   d="m 0.5,0 c 0.467,-0.033 1.117,-0.167 1.95,-0.4 1.433,-0.434 3.233,-0.667 5.4,-0.7 -0.533,-0.1 -1.3,-0.15 -2.3,-0.15 -1.066,0 -2.566,0.233 -4.5,0.7 -0.6,0.133 -0.933,0.267 -1,0.4 C -0.05,-0.017 0.1,0.033 0.5,0 Z"
   id="path22"
   inkscape:connector-curvature="0" />
	</g>
</symbol>
<symbol
   id="flash0.ai_x5F_3_x2F_Layer_13_x2F__x3C_Path_x3E__x5F_20"
   viewBox="-0.025 -3.8 19.376 3.762"
   transform="translate(60.82354,105.70005)">
	<g
   id="Layer_1_12_">
		<path
   style="clip-rule:evenodd;fill:#6e3e11;fill-rule:evenodd"
   d="m 1.55,-2.85 c -1.833,0.733 -2.067,1.45 -0.7,2.15 1.633,0.4 4.75,0.617 9.35,0.65 4.9,0.066 7.95,-0.133 9.15,-0.6 -1.833,0.133 -3.867,0.217 -6.1,0.25 C 8.817,-0.3 5.65,-0.517 3.75,-1.05 2.85,-1.317 2.5,-1.6 2.7,-1.9 2.8,-2.133 3.2,-2.517 3.9,-3.05 L 4.75,-3.8 c -1.2,0.233 -2.267,0.55 -3.2,0.95 z"
   id="path26"
   inkscape:connector-curvature="0" />
	</g>
</symbol>
<symbol
   id="flash0.ai_x5F_3_x2F_Layer_13_x2F__x3C_Path_x3E__x5F_22"
   viewBox="-0.019 -25.9 3.918 25.855"
   transform="translate(60.82354,105.70005)">
	<g
   id="Layer_1_10_">
		
			<linearGradient
   id="SVGID_1_"
   gradientUnits="userSpaceOnUse"
   x1="11.5908"
   y1="-16332.621"
   x2="30.240801"
   y2="-16332.621"
   gradientTransform="matrix(5.36193e-5,-1,1,-0.001,16334.563,-5.166)">
			<stop
   offset="0"
   style="stop-color:#FFC185"
   id="stop30" />
			<stop
   offset="1"
   style="stop-color:#000000"
   id="stop32" />
		</linearGradient>
		<path
   style="clip-rule:evenodd;fill:url(#linearGradient996);fill-rule:evenodd"
   d="m 1.35,-0.45 c 1.367,-1.2 2.167,-3.117 2.4,-5.75 0.1,-1.466 0.083,-3.333 -0.05,-5.6 L 3.9,-24.55 2.5,-25.9 c 0,6.433 -0.067,11.767 -0.2,16 -0.1,4.4 -0.817,7.5 -2.15,9.3 -0.267,0.367 -0.217,0.55 0.15,0.55 0.4,0.033 0.75,-0.1 1.05,-0.4 z"
   id="path35"
   inkscape:connector-curvature="0" />
	</g>
</symbol>
<symbol
   id="flash0.ai_x5F_3_x2F_Layer_13_x2F__x3C_Path_x3E__x5F_23"
   viewBox="-0.025 -28.2 10.225 28.214"
   transform="translate(60.82354,105.70005)">
	<g
   id="Layer_1_9_">
		<linearGradient
   id="SVGID_2_"
   gradientUnits="userSpaceOnUse"
   x1="-1.0498"
   y1="-14.0933"
   x2="7.9502001"
   y2="-14.0933">
			<stop
   offset="0"
   style="stop-color:#FFCE9E"
   id="stop39" />
			<stop
   offset="1"
   style="stop-color:#000000"
   id="stop41" />
		</linearGradient>
		<path
   style="clip-rule:evenodd;fill:url(#linearGradient998);fill-rule:evenodd"
   d="M 10.2,-28.2 H 9.6 c -4.033,0 -7.2,0.633 -9.5,1.9 -0.167,11.933 -0.167,18.917 0,20.95 0.133,1.6 0.733,2.95 1.8,4.05 0.9,0.967 1.783,1.4 2.65,1.3 0.767,-0.067 1.3,-0.15 1.6,-0.25 C 6.683,-0.383 7.1,-0.667 7.4,-1.1 8.333,-2.233 8.983,-3.2 9.35,-4 9.817,-5.067 10.033,-6.267 10,-7.6 c -0.067,-1.1 0,-7.967 0.2,-20.6 z"
   id="path44"
   inkscape:connector-curvature="0" />
	</g>
</symbol>
<symbol
   id="flash0.ai_x5F_3_x2F_Layer_13_x2F__x3C_Path_x3E__x5F_24"
   viewBox="0 -3.8 21.15 3.8"
   transform="translate(60.82354,105.70005)">
	<g
   id="Layer_1_8_">
		<path
   style="clip-rule:evenodd;fill:#f29f3f;fill-rule:evenodd"
   d="m 21.15,-1.9 c 0,-0.533 -1.033,-0.983 -3.1,-1.35 C 15.983,-3.617 13.5,-3.8 10.6,-3.8 7.666,-3.8 5.166,-3.617 3.1,-3.25 1.033,-2.883 0,-2.433 0,-1.9 0,-1.367 1.033,-0.917 3.1,-0.55 5.167,-0.183 7.667,0 10.6,0 c 2.9,0 5.383,-0.183 7.45,-0.55 2.067,-0.367 3.1,-0.817 3.1,-1.35 z"
   id="path48"
   inkscape:connector-curvature="0" />
	</g>
</symbol>
<symbol
   id="flash0.ai_x5F_3_x2F_Layer_13_x2F__x3C_Path_x3E__x5F_25"
   viewBox="0 -23.28 23.16 23.28"
   transform="translate(60.82354,105.70005)">
	<g
   id="Layer_1_7_">
		
			<radialGradient
   id="SVGID_3_"
   cx="16276.34"
   cy="25.949699"
   r="24.287701"
   gradientTransform="matrix(0.0041,1,1,-0.0041,-82.4639,-16301.095)"
   gradientUnits="userSpaceOnUse">
			<stop
   offset="0"
   style="stop-color:#DB7F21"
   id="stop52" />
			<stop
   offset="1"
   style="stop-color:#BD7626"
   id="stop54" />
		</radialGradient>
		<path
   style="clip-rule:evenodd;fill:url(#radialGradient1000);fill-rule:evenodd"
   d="m 23.15,-4.1 c 0.033,-1 -0.017,-6.283 -0.15,-15.85 -0.4,-0.5 -1.15,-1 -2.25,-1.5 -2.233,-1.066 -5.133,-1.667 -8.7,-1.8 -4.167,-0.167 -7.417,0.367 -9.75,1.6 -1.2,0.633 -1.967,1.283 -2.3,1.95 v 14.6 c 0,2.3 0.267,4 0.8,5.1 H 0.85 L 0.8,-0.2 c 0,-0.533 1.034,-0.983 3.1,-1.35 2.067,-0.367 4.567,-0.55 7.5,-0.55 2.867,0 5.333,0.184 7.4,0.55 2.034,0.367 3.083,0.8 3.15,1.3 H 22 c 0.2,-0.267 0.417,-0.783 0.65,-1.55 0.3,-0.867 0.467,-1.633 0.5,-2.3 z"
   id="path57"
   inkscape:connector-curvature="0" />
	</g>
</symbol>
<symbol
   id="flash0.ai_x5F_3_x2F_Layer_13_x2F__x3C_Path_x3E__x5F_26"
   viewBox="0 -38.05 24.55 38.05"
   transform="translate(60.82354,105.70005)">
	<g
   id="Layer_1_6_">
		
			<radialGradient
   id="SVGID_4_"
   cx="-70.696297"
   cy="-16236.58"
   r="25.063999"
   gradientTransform="matrix(0.011,-0.9999,-0.9999,-0.011,-16226.326,-264.189)"
   gradientUnits="userSpaceOnUse">
			<stop
   offset="0"
   style="stop-color:#A16023"
   id="stop61" />
			<stop
   offset="1"
   style="stop-color:#472807"
   id="stop63" />
		</radialGradient>
		<path
   style="clip-rule:evenodd;fill:url(#radialGradient1002);fill-rule:evenodd"
   d="m 24.5,-16.2 h 0.05 v -16.7 h -0.1 l 0.1,-0.45 c 0,-1.3 -1.2,-2.417 -3.6,-3.35 -2.4,-0.9 -5.3,-1.35 -8.7,-1.35 -3.367,0 -6.25,0.45 -8.65,1.35 -2.4,0.933 -3.6,2.05 -3.6,3.35 l 0.1,0.55 V -20 c -0.033,1.033 -0.033,2 0,2.9 v 0.9 h 0.05 c 0.4,5.633 2.283,8.8 5.65,9.5 2.067,0.434 3.633,1.633 4.7,3.6 0.533,1 0.85,1.95 0.95,2.85 L 12.3,0 13.15,-0.25 c 0.133,-0.9 0.467,-1.85 1,-2.85 1.067,-1.967 2.633,-3.167 4.7,-3.6 3.333,-0.7 5.217,-3.867 5.65,-9.5 z"
   id="path66"
   inkscape:connector-curvature="0" />
	</g>
</symbol>
<symbol
   id="flash0.ai_x5F_3_x2F_Layer_13_x2F__x3C_Path_x3E__x5F_27"
   viewBox="0 -1.25 0.469 1.284"
   transform="translate(60.82354,105.70005)">
	<g
   id="Layer_1_5_">
		<path
   style="clip-rule:evenodd;fill:#fcc676;fill-rule:evenodd"
   d="M 0.3,-0.1 C 0.6,-0.733 0.5,-1.117 0,-1.25 0.033,-0.117 0.133,0.267 0.3,-0.1 Z"
   id="path70"
   inkscape:connector-curvature="0" />
	</g>
</symbol>
<symbol
   id="flash0.ai_x5F_3_x2F_Layer_13_x2F__x3C_Path_x3E__x5F_28"
   viewBox="-0.02 -5.174 3.87 5.199"
   transform="translate(60.82354,105.70005)">
	<g
   id="Layer_1_4_">
		<path
   style="clip-rule:evenodd;fill:#fcc676;fill-rule:evenodd"
   d="M 3.85,0 C 3.85,-0.033 3.666,-0.133 3.3,-0.3 2.233,-0.8 1.5,-1.433 1.1,-2.2 1,-2.367 0.733,-3.183 0.3,-4.65 0.033,-5.45 -0.067,-5.333 0,-4.3 0.067,-3.033 0.417,-2 1.05,-1.2 1.617,-0.467 2.3,-0.067 3.1,0 3.6,0.033 3.85,0.033 3.85,0 Z"
   id="path74"
   inkscape:connector-curvature="0" />
	</g>
</symbol>
<symbol
   id="flash0.ai_x5F_3_x2F_Layer_13_x2F__x3C_Path_x3E__x5F_29"
   viewBox="0 -14.362 11.2 14.378"
   transform="translate(60.82354,105.70005)">
	<g
   id="Layer_1_2_">
		
			<radialGradient
   id="SVGID_5_"
   cx="5.6001"
   cy="-7.2002001"
   r="6.4375"
   gradientTransform="matrix(1,0,0,-1,0,-14.4004)"
   gradientUnits="userSpaceOnUse">
			<stop
   offset="0"
   style="stop-color:#A16023"
   id="stop78" />
			<stop
   offset="1"
   style="stop-color:#704517"
   id="stop80" />
		</radialGradient>
		<path
   style="clip-rule:evenodd;fill:url(#radialGradient1004);fill-rule:evenodd"
   d="m 0.9,-11.2 c -1,2.767 -1.167,5.267 -0.5,7.5 0.733,2.333 2.183,3.567 4.35,3.7 1.833,0.1 3.433,-0.283 4.8,-1.15 0.867,-0.567 1.417,-1.083 1.65,-1.55 -0.233,-0.933 -0.7,-1.7 -1.4,-2.3 -0.3,0.467 -0.717,0.867 -1.25,1.2 -1.733,1.1 -3.2,1.333 -4.4,0.7 -1.1,-0.567 -1.683,-1.75 -1.75,-3.55 -0.033,-1 0.25,-2.117 0.85,-3.35 0.333,-0.667 0.8,-1.533 1.4,-2.6 0.1,-0.433 -0.017,-0.85 -0.35,-1.25 -0.466,-0.533 -1.1,-0.65 -1.9,-0.35 -0.6,0.833 -1.1,1.833 -1.5,3 z"
   id="path83"
   inkscape:connector-curvature="0" />
	</g>
</symbol>










<linearGradient
   id="SVGID_6_"
   gradientUnits="userSpaceOnUse"
   x1="0.64990002"
   y1="29.033199"
   x2="25.6504"
   y2="29.033199">
	<stop
   offset="0"
   style="stop-color:#FFC978"
   id="stop107" />
	<stop
   offset="1"
   style="stop-color:#B48445"
   id="stop109" />
</linearGradient>






<linearGradient
   id="SVGID_7_"
   gradientUnits="userSpaceOnUse"
   x1="10.4126"
   y1="6.7997999"
   x2="15.6876"
   y2="6.7997999">
	<stop
   offset="0"
   style="stop-color:#A16E34"
   id="stop130" />
	<stop
   offset="1"
   style="stop-color:#704A22"
   id="stop132" />
</linearGradient>




<linearGradient
   id="SVGID_8_"
   gradientUnits="userSpaceOnUse"
   x1="10.2002"
   y1="2.125"
   x2="15.8002"
   y2="2.125">
	<stop
   offset="0"
   style="stop-color:#EBB64B"
   id="stop143" />
	<stop
   offset="1"
   style="stop-color:#AB7F3E"
   id="stop145" />
</linearGradient>

<linearGradient
   id="SVGID_9_"
   gradientUnits="userSpaceOnUse"
   x1="-16.164101"
   y1="-2.6191001"
   x2="-8.3327999"
   y2="-2.6191001"
   gradientTransform="matrix(-0.9896,0.1437,-0.1437,-0.9896,8.777976e-4,4.56214e-4)">
	<stop
   offset="0"
   style="stop-color:#EBB64B"
   id="stop150" />
	<stop
   offset="1"
   style="stop-color:#AB7F3E"
   id="stop152" />
</linearGradient>

<linearGradient
   id="SVGID_10_"
   gradientUnits="userSpaceOnUse"
   x1="-4.8525"
   y1="10.5132"
   x2="-3.9110999"
   y2="10.5132"
   gradientTransform="matrix(-0.1859,-0.9826,0.9826,-0.1859,-7.298589e-5,4.705787e-5)">
	<stop
   offset="0"
   style="stop-color:#EBB64B"
   id="stop157" />
	<stop
   offset="1"
   style="stop-color:#AB7F3E"
   id="stop159" />
</linearGradient>

<linearGradient
   id="SVGID_11_"
   gradientUnits="userSpaceOnUse"
   x1="-5.4375"
   y1="11.0327"
   x2="-4.8000998"
   y2="11.0327"
   gradientTransform="matrix(-0.1961,-0.9806,0.9806,-0.1961,-2.962649e-4,-2.129674e-4)">
	<stop
   offset="0"
   style="stop-color:#EBB64B"
   id="stop164" />
	<stop
   offset="1"
   style="stop-color:#AB7F3E"
   id="stop166" />
</linearGradient>

<linearGradient
   id="SVGID_12_"
   gradientUnits="userSpaceOnUse"
   x1="-5.6973"
   y1="13.3223"
   x2="-4.9324002"
   y2="13.3223"
   gradientTransform="matrix(-0.1961,-0.9806,0.9806,-0.1961,1.935661e-4,-9.128451e-5)">
	<stop
   offset="0"
   style="stop-color:#EBB64B"
   id="stop171" />
	<stop
   offset="1"
   style="stop-color:#AB7F3E"
   id="stop173" />
</linearGradient>

<linearGradient
   id="SVGID_13_"
   gradientUnits="userSpaceOnUse"
   x1="-5.0293002"
   y1="14.3379"
   x2="-4.4949002"
   y2="14.3379"
   gradientTransform="matrix(-0.1871,-0.9823,0.9823,-0.1871,-3.804266e-5,-6.513298e-4)">
	<stop
   offset="0"
   style="stop-color:#EBB64B"
   id="stop178" />
	<stop
   offset="1"
   style="stop-color:#AB7F3E"
   id="stop180" />
</linearGradient>

<linearGradient
   id="SVGID_14_"
   gradientUnits="userSpaceOnUse"
   x1="-5.4990001"
   y1="14.4629"
   x2="-4.8906999"
   y2="14.4629"
   gradientTransform="matrix(-0.1644,-0.9864,0.9864,-0.1644,-1.980513e-4,3.729761e-4)">
	<stop
   offset="0"
   style="stop-color:#EBB64B"
   id="stop185" />
	<stop
   offset="1"
   style="stop-color:#AB7F3E"
   id="stop187" />
</linearGradient>

<linearGradient
   id="SVGID_15_"
   gradientUnits="userSpaceOnUse"
   x1="-11.7539"
   y1="-1.1454999"
   x2="-11.0784"
   y2="-1.1454999"
   gradientTransform="matrix(-0.9993,0.037,-0.037,-0.9993,4.388243e-4,-9.7204e-5)">
	<stop
   offset="0"
   style="stop-color:#EBB64B"
   id="stop192" />
	<stop
   offset="1"
   style="stop-color:#AB7F3E"
   id="stop194" />
</linearGradient>

<linearGradient
   id="SVGID_16_"
   gradientUnits="userSpaceOnUse"
   x1="-12.1006"
   y1="-0.99800003"
   x2="-11.6249"
   y2="-0.99800003"
   gradientTransform="matrix(-0.9986,0.0526,-0.0526,-0.9986,-5.252808e-4,-3.448352e-4)">
	<stop
   offset="0"
   style="stop-color:#EBB64B"
   id="stop199" />
	<stop
   offset="1"
   style="stop-color:#AB7F3E"
   id="stop201" />
</linearGradient>

<linearGradient
   id="SVGID_17_"
   gradientUnits="userSpaceOnUse"
   x1="-12.9346"
   y1="-1.6416"
   x2="-12.2591"
   y2="-1.6416"
   gradientTransform="matrix(-0.9993,0.037,-0.037,-0.9993,4.388243e-4,-9.7204e-5)">
	<stop
   offset="0"
   style="stop-color:#EBB64B"
   id="stop206" />
	<stop
   offset="1"
   style="stop-color:#AB7F3E"
   id="stop208" />
</linearGradient>

<linearGradient
   id="SVGID_18_"
   gradientUnits="userSpaceOnUse"
   x1="-14.6626"
   y1="-1.1719"
   x2="-14.0621"
   y2="-1.1719"
   gradientTransform="matrix(-0.9991,0.0416,-0.0416,-0.9991,2.28487e-4,1.540743e-4)">
	<stop
   offset="0"
   style="stop-color:#EBB64B"
   id="stop213" />
	<stop
   offset="1"
   style="stop-color:#AB7F3E"
   id="stop215" />
</linearGradient>

<linearGradient
   id="SVGID_19_"
   gradientUnits="userSpaceOnUse"
   x1="-13.2222"
   y1="-1.4453"
   x2="-12.8463"
   y2="-1.4453"
   gradientTransform="matrix(-0.9978,0.0665,-0.0665,-0.9978,-8.317977e-4,6.409734e-5)">
	<stop
   offset="0"
   style="stop-color:#EBB64B"
   id="stop220" />
	<stop
   offset="1"
   style="stop-color:#AB7F3E"
   id="stop222" />
</linearGradient>
<g
   id="g984"
   transform="matrix(5.7399231,0,0,5.7399231,54.409576,-3.234519e-7)"><use
     id="use87"
     style="overflow:visible;opacity:0.91019999;enable-background:new"
     transform="matrix(1,0,0,-1,-60.67364,111.90025)"
     y="-14.362"
     x="0"
     height="14.378"
     width="11.2"
     xlink:href="#flash0.ai_x5F_3_x2F_Layer_13_x2F__x3C_Path_x3E__x5F_29" /><use
     id="use89"
     style="overflow:visible;opacity:0.91019999;enable-background:new"
     transform="matrix(1,0,0,-1,-60.87334,111.70005)"
     y="-14.75"
     x="0.039999999"
     height="14.757"
     width="11.61"
     xlink:href="#flash0.ai_x5F_3_x2F_Layer_13_x2F__x3C_Compound_Path_x3E__x5F_1" /><use
     id="use91"
     style="overflow:visible;opacity:0.25;enable-background:new"
     transform="matrix(1,0,0,-1,-59.57354,112.74985)"
     y="-5.1739998"
     x="-0.02"
     height="5.1989999"
     width="3.8699999"
     xlink:href="#flash0.ai_x5F_3_x2F_Layer_13_x2F__x3C_Path_x3E__x5F_28" /><use
     id="use93"
     style="overflow:visible;opacity:0.25;enable-background:new"
     transform="matrix(1,0,0,-1,-59.72344,119.24985)"
     y="-1.25"
     height="1.284"
     width="0.46900001"
     xlink:href="#flash0.ai_x5F_3_x2F_Layer_13_x2F__x3C_Path_x3E__x5F_27"
     x="0" /><use
     id="use95"
     style="overflow:visible;opacity:0.78910002;enable-background:new"
     transform="matrix(1,0,0,-1,-60.02374,112.05015)"
     y="-38.049999"
     height="38.049999"
     width="24.549999"
     xlink:href="#flash0.ai_x5F_3_x2F_Layer_13_x2F__x3C_Path_x3E__x5F_26"
     x="0" /><use
     id="use97"
     style="overflow:visible;opacity:0.57810005;enable-background:new"
     transform="matrix(1,0,0,-1,-59.22344,125.65025)"
     y="-23.280001"
     height="23.280001"
     width="23.16"
     xlink:href="#flash0.ai_x5F_3_x2F_Layer_13_x2F__x3C_Path_x3E__x5F_25"
     x="0" /><use
     id="use99"
     style="overflow:visible;opacity:0.57810005;enable-background:new"
     transform="matrix(1,0,0,-1,-58.42364,123.95005)"
     y="-3.8"
     height="3.8"
     width="21.15"
     xlink:href="#flash0.ai_x5F_3_x2F_Layer_13_x2F__x3C_Path_x3E__x5F_24"
     x="0" /><use
     id="use101"
     style="overflow:visible;opacity:0.48830004;enable-background:new"
     transform="matrix(1,0,0,-1,-57.97344,121.24985)"
     y="-28.200001"
     x="-0.025"
     height="28.214001"
     width="10.225"
     xlink:href="#flash0.ai_x5F_3_x2F_Layer_13_x2F__x3C_Path_x3E__x5F_23" /><use
     id="use103"
     style="overflow:visible;opacity:0.21880002;enable-background:new"
     transform="matrix(1,0,0,-1,-41.37334,121.45005)"
     y="-25.9"
     x="-0.018999999"
     height="25.855"
     width="3.918"
     xlink:href="#flash0.ai_x5F_3_x2F_Layer_13_x2F__x3C_Path_x3E__x5F_22" /><use
     id="use105"
     style="overflow:visible;opacity:0.91019999;enable-background:new"
     transform="matrix(1,0,0,-1,-60.22344,111.84995)"
     y="-38.450001"
     height="38.450001"
     width="24.950001"
     xlink:href="#flash0.ai_x5F_3_x2F_Layer_13_x2F__x3C_Compound_Path_x3E_"
     x="0" /><path
     id="path112"
     d="M 25.55,22.35 25.6,23 h 0.051 v 9.7 c -1.767,1.899 -5.817,2.934 -12.15,3.1 -3.333,0.101 -6.3,-0.283 -8.9,-1.149 -1.667,-0.534 -2.983,-1.184 -3.95,-1.95 V 22.25 c 0.5,0.467 1.717,0.917 3.65,1.35 2.667,0.633 5.784,0.9 9.35,0.8 6.132,-0.2 10.099,-0.883 11.899,-2.05 z"
     style="clip-rule:evenodd;fill:url(#SVGID_6_);fill-rule:evenodd"
     inkscape:connector-curvature="0" /><use
     id="use114"
     style="overflow:visible;opacity:0.51169996;enable-background:new"
     transform="matrix(1,0,0,-1,-57.32354,144.40025)"
     y="-3.8"
     x="-0.025"
     height="3.7620001"
     width="19.375999"
     xlink:href="#flash0.ai_x5F_3_x2F_Layer_13_x2F__x3C_Path_x3E__x5F_20" /><use
     id="use116"
     style="overflow:visible;opacity:0.33980001;enable-background:new"
     transform="matrix(1,0,0,-1,-53.42364,119.30015)"
     y="-1.25"
     x="0.02"
     height="1.26"
     width="7.8299999"
     xlink:href="#flash0.ai_x5F_3_x2F_Layer_13_x2F__x3C_Path_x3E__x5F_19" /><use
     id="use118"
     style="overflow:visible;opacity:0.25;enable-background:new"
     transform="matrix(1,0,0,-1,-51.17364,116.30015)"
     y="-2.306"
     x="-0.014"
     height="2.309"
     width="2.7650001"
     xlink:href="#flash0.ai_x5F_3_x2F_Layer_13_x2F__x3C_Path_x3E__x5F_18" /><use
     id="use120"
     style="overflow:visible;opacity:0.91019999;enable-background:new"
     transform="matrix(1,0,0,-1,-50.17364,114.34995)"
     y="-2.4130001"
     height="2.474"
     width="5.1999998"
     xlink:href="#flash0.ai_x5F_3_x2F_Layer_13_x2F__x3C_Path_x3E__x5F_17"
     x="0" /><g
     id="g128">
	<path
   inkscape:connector-curvature="0"
   id="path122"
   d="m 17.1,30.25 c -0.2,-0.5 -0.817,-1.333 -1.85,-2.5 -0.833,-0.967 -1.233,-1.717 -1.2,-2.25 0.333,-0.267 0.767,-0.033 1.3,0.7 0.3,0.399 0.683,1 1.15,1.8 0.1,0.134 0.267,0.434 0.5,0.9 0.233,0.433 0.433,0.633 0.6,0.6 0.267,0 0.667,-0.667 1.2,-2 0.534,-1.366 0.967,-2.083 1.3,-2.15 0.5,0.167 0.417,0.9 -0.25,2.2 -0.367,0.7 -0.917,1.684 -1.65,2.95 0.133,0.333 0.667,1 1.6,2 0.7,0.934 0.733,1.583 0.1,1.95 -0.1,0.066 -0.417,-0.384 -0.95,-1.351 -0.6,-1.1 -1.05,-1.733 -1.35,-1.899 -0.267,0.434 -0.667,1.233 -1.2,2.399 -0.533,0.934 -1.133,1.351 -1.8,1.25 0.233,-0.6 0.65,-1.366 1.25,-2.3 0.6,-1.032 1.017,-1.799 1.25,-2.299 z"
   style="clip-rule:evenodd;fill:#452d17;fill-rule:evenodd" />
	<path
   inkscape:connector-curvature="0"
   id="path124"
   d="m 10.75,28.1 c 0.367,-0.267 0.683,-0.583 0.95,-0.949 0.167,-0.267 0.3,-0.45 0.4,-0.551 0.167,-0.199 0.4,-0.267 0.7,-0.199 0.067,0.333 -0.05,0.683 -0.35,1.05 -0.2,0.267 -0.55,0.649 -1.05,1.149 l -1.1,1.15 c -0.433,0.533 -0.65,0.884 -0.65,1.05 0.033,0.2 0.25,0.517 0.65,0.95 0.133,0.167 0.3,0.467 0.5,0.9 l 1.1,1.5 c 0.067,0.133 0.1,0.267 0.1,0.399 -0.033,0.167 -0.183,0.25 -0.45,0.25 -0.133,0 -0.233,-0.066 -0.3,-0.2 -0.067,-0.166 -0.133,-0.3 -0.2,-0.399 l -0.4,-0.45 c -0.9,-1.467 -1.483,-2.333 -1.75,-2.6 -0.667,0.733 -1.383,1.716 -2.15,2.949 -0.167,0.267 -0.3,0.4 -0.4,0.4 -0.633,-0.2 -0.833,-0.483 -0.6,-0.85 C 7.017,32.215 7.9,31.182 8.4,30.548 6.967,28.515 5.9,27.048 5.2,26.149 5.1,25.882 5.016,25.682 4.95,25.548 4.917,25.517 5.067,25.5 5.4,25.5 c 0.067,0.033 0.233,0.217 0.5,0.55 l 0.45,0.55 c 0.6,0.767 1.316,1.75 2.15,2.95 0.133,0.3 0.3,0.5 0.5,0.601 0.167,-0.233 0.467,-0.567 0.9,-1 0.4,-0.401 0.683,-0.751 0.85,-1.051 z"
   style="clip-rule:evenodd;fill:#452d17;fill-rule:evenodd" />
	<path
   inkscape:connector-curvature="0"
   id="path126"
   d="m 23.6,28.95 c -0.133,-0.434 -0.517,-1.2 -1.149,-2.3 -0.467,-0.867 -0.717,-1.55 -0.75,-2.05 0.133,-0.2 0.367,0.033 0.7,0.7 0.2,0.367 0.45,0.9 0.75,1.601 0.066,0.1 0.166,0.366 0.3,0.8 0.166,0.399 0.283,0.583 0.35,0.55 0.134,0 0.283,-0.616 0.45,-1.85 0.2,-1.234 0.384,-1.884 0.55,-1.95 0.267,0.133 0.267,0.8 0,2 -0.133,0.666 -0.35,1.566 -0.649,2.7 0.1,0.3 0.416,0.899 0.949,1.8 0.434,0.833 0.5,1.434 0.2,1.8 -0.033,0.066 -0.217,-0.35 -0.55,-1.25 -0.4,-1 -0.684,-1.566 -0.85,-1.7 -0.101,0.4 -0.25,1.134 -0.45,2.2 -0.2,0.833 -0.467,1.2 -0.8,1.1 0.465,-1.768 0.783,-3.151 0.949,-4.151 z"
   style="clip-rule:evenodd;fill:#452d17;fill-rule:evenodd" />
</g><path
     id="path135"
     d="M 15.7,3.35 V 9.2 c -0.034,0.267 -0.317,0.517 -0.85,0.75 -0.5,0.2 -1.1,0.3 -1.8,0.3 -0.7,0 -1.316,-0.1 -1.85,-0.3 C 10.7,9.717 10.433,9.467 10.4,9.2 V 3.35 Z"
     style="clip-rule:evenodd;fill:url(#SVGID_7_);fill-rule:evenodd"
     inkscape:connector-curvature="0" /><path
     id="path137"
     d="M 15.7,3.35 H 10.4 V 9.2 c 0.033,0.267 0.3,0.517 0.8,0.75 0.533,0.2 1.15,0.3 1.85,0.3 0.7,0 1.3,-0.1 1.8,-0.3 0.533,-0.233 0.816,-0.483 0.85,-0.75 z"
     style="clip-rule:evenodd;fill:none;fill-rule:evenodd;stroke:#634120;stroke-width:0.5"
     inkscape:connector-curvature="0" /><use
     id="use139"
     style="overflow:visible;opacity:0.25;enable-background:new"
     transform="matrix(1,0,0,-1,-49.97344,110.09995)"
     y="-5.1500001"
     height="5.1500001"
     width="1.1"
     xlink:href="#flash0.ai_x5F_3_x2F_Layer_13_x2F__x3C_Path_x3E__x5F_14"
     x="0" /><path
     id="path141"
     d="m 15.9,3.25 c 0,0.2 -0.283,0.383 -0.85,0.55 -0.566,0.133 -1.233,0.2 -2,0.2 -0.8,0 -1.466,-0.067 -2,-0.2 C 10.484,3.633 10.2,3.45 10.2,3.25 c 0,-0.467 0.95,-0.7 2.85,-0.7 0.8,0 1.467,0.067 2,0.2 0.567,0.133 0.85,0.3 0.85,0.5 z"
     style="clip-rule:evenodd;fill:#a17448;fill-rule:evenodd"
     inkscape:connector-curvature="0" /><path
     id="path148"
     d="m 15.45,3.2 c -0.6,0.233 -1.5,0.35 -2.7,0.35 -0.5,0 -0.983,-0.05 -1.45,-0.15 L 10.75,3.2 C 10.65,2.533 10.533,1.983 10.4,1.55 L 10.2,0.7 10.8,0.9 c 0.534,0.133 1.217,0.167 2.05,0.1 1.333,-0.067 2.333,-0.167 3,-0.3 z"
     style="clip-rule:evenodd;fill:url(#SVGID_8_);fill-rule:evenodd"
     inkscape:connector-curvature="0" /><path
     id="path155"
     d="M 15.85,0.75 C 15.85,0.95 15.567,1.133 15,1.3 14.433,1.433 13.767,1.5 13,1.5 12.233,1.5 11.567,1.433 11,1.3 10.467,1.133 10.2,0.95 10.2,0.75 10.2,0.55 10.467,0.383 11,0.25 11.567,0.083 12.233,0 13,0 c 0.767,0 1.433,0.083 2,0.25 0.567,0.133 0.85,0.3 0.85,0.5 z"
     style="clip-rule:evenodd;fill:url(#SVGID_9_);fill-rule:evenodd"
     inkscape:connector-curvature="0" /><path
     id="path162"
     d="m 11.3,1.95 c 0.233,0.433 0.217,0.667 -0.05,0.7 -0.267,0.067 -0.4,-0.017 -0.4,-0.25 0,-0.2 0.05,-0.367 0.15,-0.5 0.1,-0.167 0.2,-0.15 0.3,0.05 z"
     style="clip-rule:evenodd;fill:url(#SVGID_10_);fill-rule:evenodd"
     inkscape:connector-curvature="0" /><path
     id="path169"
     d="M 12,2.7 C 12.033,3 11.967,3.133 11.8,3.1 11.667,3.067 11.6,2.967 11.6,2.8 c 0,-0.133 0.066,-0.233 0.2,-0.3 0.134,-0.067 0.2,0 0.2,0.2 z"
     style="clip-rule:evenodd;fill:url(#SVGID_11_);fill-rule:evenodd"
     inkscape:connector-curvature="0" /><path
     id="path176"
     d="m 14.3,2.2 c 0.133,0.2 0.133,0.383 0,0.55 -0.167,0.2 -0.316,0.217 -0.45,0.05 -0.1,-0.167 -0.083,-0.333 0.05,-0.5 0.133,-0.2 0.267,-0.233 0.4,-0.1 z"
     style="clip-rule:evenodd;fill:url(#SVGID_12_);fill-rule:evenodd"
     inkscape:connector-curvature="0" /><path
     id="path183"
     d="M 15.15,1.8 C 15.183,1.967 15.133,2.1 15,2.2 14.833,2.266 14.767,2.217 14.8,2.05 c 0,-0.167 0.05,-0.283 0.15,-0.35 0.1,-0.067 0.167,-0.033 0.2,0.1 z"
     style="clip-rule:evenodd;fill:url(#SVGID_13_);fill-rule:evenodd"
     inkscape:connector-curvature="0" /><path
     id="path190"
     d="M 15.3,2.45 C 15.4,2.717 15.367,2.9 15.2,3 15,3.067 14.9,3.033 14.9,2.9 14.867,2.8 14.917,2.683 15.05,2.55 15.183,2.383 15.267,2.35 15.3,2.45 Z"
     style="clip-rule:evenodd;fill:url(#SVGID_14_);fill-rule:evenodd"
     inkscape:connector-curvature="0" /><path
     id="path197"
     d="m 11.4,0.55 c 0.3,0 0.434,0.067 0.4,0.2 C 11.734,0.85 11.567,0.9 11.3,0.9 11.067,0.867 10.984,0.8 11.05,0.7 11.117,0.6 11.233,0.55 11.4,0.55 Z"
     style="clip-rule:evenodd;fill:url(#SVGID_15_);fill-rule:evenodd"
     inkscape:connector-curvature="0" /><path
     id="path204"
     d="m 12.15,0.4 c 0,0.067 -0.1,0.1 -0.3,0.1 -0.167,0 -0.25,-0.033 -0.25,-0.1 0,-0.1 0.083,-0.15 0.25,-0.15 0.2,0 0.3,0.05 0.3,0.15 z"
     style="clip-rule:evenodd;fill:url(#SVGID_16_);fill-rule:evenodd"
     inkscape:connector-curvature="0" /><path
     id="path211"
     d="M 13,1.2 C 13,1.3 12.867,1.35 12.6,1.35 12.367,1.35 12.25,1.3 12.25,1.2 12.25,1.067 12.367,1 12.6,1 12.867,1 13,1.067 13,1.2 Z"
     style="clip-rule:evenodd;fill:url(#SVGID_17_);fill-rule:evenodd"
     inkscape:connector-curvature="0" /><path
     id="path218"
     d="m 14.7,0.6 c 0,0.066 -0.117,0.1 -0.35,0.1 -0.2,0 -0.3,-0.034 -0.3,-0.1 0,-0.1 0.1,-0.15 0.3,-0.15 0.233,0 0.35,0.05 0.35,0.15 z"
     style="clip-rule:evenodd;fill:url(#SVGID_18_);fill-rule:evenodd"
     inkscape:connector-curvature="0" /><path
     id="path225"
     d="m 13.3,0.55 c 0,0.1 -0.066,0.15 -0.2,0.15 -0.134,0 -0.2,-0.05 -0.2,-0.15 0,-0.066 0.067,-0.1 0.2,-0.1 z"
     style="clip-rule:evenodd;fill:url(#SVGID_19_);fill-rule:evenodd"
     inkscape:connector-curvature="0" /></g>
</svg>