<?xml version="1.0" encoding="UTF-8" standalone="no"?>
<!-- Generator: Adobe Illustrator 15.1.0, SVG Export Plug-In . SVG Version: 6.00 Build 0)  -->

<svg
   xmlns:dc="http://purl.org/dc/elements/1.1/"
   xmlns:cc="http://creativecommons.org/ns#"
   xmlns:rdf="http://www.w3.org/1999/02/22-rdf-syntax-ns#"
   xmlns:svg="http://www.w3.org/2000/svg"
   xmlns="http://www.w3.org/2000/svg"
   xmlns:xlink="http://www.w3.org/1999/xlink"
   xmlns:sodipodi="http://sodipodi.sourceforge.net/DTD/sodipodi-0.dtd"
   xmlns:inkscape="http://www.inkscape.org/namespaces/inkscape"
   version="1.1"
   id="flash0.ai"
   x="0px"
   y="0px"
   width="256"
   height="256"
   viewBox="0 0 255.99999 256.00001"
   xml:space="preserve"
   sodipodi:docname="lemon_juice.svg"
   inkscape:version="0.92.4 (5da689c313, 2019-01-14)"
   inkscape:export-xdpi="10.5"
   inkscape:export-ydpi="10.5"><title
   id="title925">Lemon Juice</title><metadata
   id="metadata118"><rdf:RDF><cc:Work
       rdf:about=""><dc:format>image/svg+xml</dc:format><dc:type
         rdf:resource="http://purl.org/dc/dcmitype/StillImage" /><dc:title>Lemon Juice</dc:title><cc:license
         rdf:resource="http://creativecommons.org/publicdomain/zero/1.0/" /><dc:creator><cc:Agent><dc:title>Glitch</dc:title></cc:Agent></dc:creator><dc:source>https://opengameart.org/node/20149</dc:source></cc:Work><cc:License
       rdf:about="http://creativecommons.org/publicdomain/zero/1.0/"><cc:permits
         rdf:resource="http://creativecommons.org/ns#Reproduction" /><cc:permits
         rdf:resource="http://creativecommons.org/ns#Distribution" /><cc:permits
         rdf:resource="http://creativecommons.org/ns#DerivativeWorks" /></cc:License></rdf:RDF></metadata><defs
   id="defs116"><linearGradient
     inkscape:collect="always"
     xlink:href="#SVGID_1_"
     id="linearGradient1038"
     gradientUnits="userSpaceOnUse"
     gradientTransform="matrix(-0.9627,-0.2705,0.2705,-0.9627,18250.572,-13818.579)"
     x1="13816.356"
     y1="-18235.883"
     x2="13832.067"
     y2="-18235.883" /><radialGradient
     inkscape:collect="always"
     xlink:href="#SVGID_2_"
     id="radialGradient1040"
     gradientUnits="userSpaceOnUse"
     gradientTransform="matrix(0.4351,-0.9004,-0.9004,-0.4351,-9584.5039,-7671.7178)"
     cx="-2728.6543"
     cy="-11969.822"
     r="20.3668" /><linearGradient
     inkscape:collect="always"
     xlink:href="#SVGID_3_"
     id="linearGradient1042"
     gradientUnits="userSpaceOnUse"
     x1="2.0249"
     y1="-18.325199"
     x2="20.1749"
     y2="-18.325199" /></defs><sodipodi:namedview
   pagecolor="#ffffff"
   bordercolor="#666666"
   borderopacity="1"
   objecttolerance="10"
   gridtolerance="10"
   guidetolerance="10"
   inkscape:pageopacity="0"
   inkscape:pageshadow="2"
   inkscape:window-width="1920"
   inkscape:window-height="1025"
   id="namedview114"
   showgrid="false"
   inkscape:zoom="0.86286042"
   inkscape:cx="55.904547"
   inkscape:cy="79.562555"
   inkscape:window-x="-8"
   inkscape:window-y="-8"
   inkscape:window-maximized="1"
   inkscape:current-layer="flash0.ai"
   fit-margin-top="0"
   fit-margin-left="0"
   fit-margin-right="0"
   fit-margin-bottom="0" />
<symbol
   id="flash0.ai_x5F_0_x2F_Layer_24_x2F__x3C_Path_x3E__x5F_10"
   viewBox="0 -1.2 1.15 1.2"
   transform="translate(60.480306,103.825)">
	<g
   id="Layer_1_7_">
		<path
   style="clip-rule:evenodd;fill:#ffffff;fill-rule:evenodd"
   d="M 1.15,-0.6 C 1.15,-1 0.95,-1.2 0.55,-1.2 0.183,-1.2 0,-1 0,-0.6 0,-0.2 0.183,0 0.55,0 c 0.4,0 0.6,-0.2 0.6,-0.6 z"
   id="path2"
   inkscape:connector-curvature="0" />
	</g>
</symbol>
<symbol
   id="flash0.ai_x5F_0_x2F_Layer_24_x2F__x3C_Path_x3E__x5F_11"
   viewBox="0 -32.098 20 32.098"
   transform="translate(60.480306,103.825)">
	<g
   id="Layer_1_6_">
		<path
   style="clip-rule:evenodd;fill:#ffffff;fill-rule:evenodd"
   d="m 1.15,-1.25 c 1.1,-0.833 2.533,-1.25 4.3,-1.25 3.533,0 5.85,0.017 6.95,0.05 2.633,0.1 4.383,0.35 5.25,0.75 1.333,0.567 2.117,1 2.35,1.3 l -3.6,-30.25 c -1.167,-0.367 -2.483,-0.684 -3.95,-0.95 -2.9,-0.566 -5.034,-0.65 -6.4,-0.25 -1.333,0.4 -2.183,0.817 -2.55,1.25 L 3.3,-30.05 0,0 c 0.2,-0.433 0.583,-0.85 1.15,-1.25 z"
   id="path6"
   inkscape:connector-curvature="0" />
	</g>
</symbol>
<symbol
   id="flash0.ai_x5F_0_x2F_Layer_24_x2F__x3C_Path_x3E__x5F_12"
   viewBox="0 -30.65 3.9 30.65"
   transform="translate(60.480306,103.825)">
	<g
   id="Layer_1_5_">
		<polygon
   style="clip-rule:evenodd;fill:#ffffff;fill-rule:evenodd"
   points="0,-30.65 0.8,-0.65 3.9,0 1.85,-29.7 "
   id="polygon10" />
	</g>
</symbol>
<symbol
   id="flash0.ai_x5F_0_x2F_Layer_24_x2F__x3C_Path_x3E__x5F_13"
   viewBox="0 -4.3 18.1 4.3"
   transform="translate(60.480306,103.825)">
	<g
   id="Layer_1_4_">
		
			<linearGradient
   id="SVGID_1_"
   gradientUnits="userSpaceOnUse"
   x1="13816.356"
   y1="-18235.883"
   x2="13832.067"
   y2="-18235.883"
   gradientTransform="matrix(-0.9627,-0.2705,0.2705,-0.9627,18250.572,-13818.579)">
			<stop
   offset="0"
   style="stop-color:#FFFDAB"
   id="stop14" />
			<stop
   offset="1"
   style="stop-color:#E6D645"
   id="stop16" />
		</linearGradient>
		<path
   style="clip-rule:evenodd;fill:url(#linearGradient1038);fill-rule:evenodd"
   d="m 18.1,-2.15 c 0,-0.6 -0.883,-1.117 -2.65,-1.55 -1.767,-0.4 -3.9,-0.6 -6.4,-0.6 -2.5,0 -4.633,0.2 -6.4,0.6 C 0.883,-3.267 0,-2.75 0,-2.15 c 0,0.6 0.883,1.1 2.65,1.5 1.767,0.433 3.9,0.65 6.4,0.65 2.5,0 4.633,-0.217 6.4,-0.65 1.767,-0.4 2.65,-0.9 2.65,-1.5 z"
   id="path19"
   inkscape:connector-curvature="0" />
	</g>
</symbol>
<symbol
   id="flash0.ai_x5F_0_x2F_Layer_24_x2F__x3C_Path_x3E__x5F_15"
   viewBox="0 -25.4 18.9 25.4"
   transform="translate(60.480306,103.825)">
	<g
   id="Layer_1_3_">
		
			<radialGradient
   id="SVGID_2_"
   cx="-2728.6543"
   cy="-11969.822"
   r="20.3668"
   gradientTransform="matrix(0.4351,-0.9004,-0.9004,-0.4351,-9584.5039,-7671.7178)"
   gradientUnits="userSpaceOnUse">
			<stop
   offset="0"
   style="stop-color:#FFFDAB"
   id="stop23" />
			<stop
   offset="1"
   style="stop-color:#E6CF00"
   id="stop25" />
		</radialGradient>
		<path
   style="clip-rule:evenodd;fill:url(#radialGradient1040);fill-rule:evenodd"
   d="m 3.4,-1.3 c 1.733,-0.333 3.717,-0.5 5.95,-0.5 2.233,0 4.2,0.167 5.9,0.5 1.667,0.367 2.683,0.8 3.05,1.3 h 0.6 L 15.8,-25.15 3.4,-25.4 0,0 h 0.4 c 0.333,-0.5 1.333,-0.933 3,-1.3 z"
   id="path28"
   inkscape:connector-curvature="0" />
	</g>
</symbol>
<symbol
   id="flash0.ai_x5F_0_x2F_Layer_24_x2F__x3C_Path_x3E__x5F_16"
   viewBox="0 -36.65 21.35 36.65"
   transform="translate(60.480306,103.825)">
	<g
   id="Layer_1_2_">
		<linearGradient
   id="SVGID_3_"
   gradientUnits="userSpaceOnUse"
   x1="2.0249"
   y1="-18.325199"
   x2="20.1749"
   y2="-18.325199">
			<stop
   offset="0"
   style="stop-color:#A9D7F2"
   id="stop32" />
			<stop
   offset="1"
   style="stop-color:#EBFBFF"
   id="stop34" />
		</linearGradient>
		<path
   style="clip-rule:evenodd;fill:url(#linearGradient1042);fill-rule:evenodd"
   d="M 0,-3.25 V -3 c 0.067,0.833 1.133,1.533 3.2,2.1 2.067,0.6 4.55,0.9 7.45,0.9 2.9,0 5.4,-0.3 7.5,-0.9 2.067,-0.567 3.133,-1.267 3.2,-2.1 l -3.85,-31.5 0.05,-0.1 c 0,-0.566 -0.667,-1.05 -2,-1.45 -1.367,-0.4 -2.983,-0.6 -4.85,-0.6 -1.9,0 -3.517,0.2 -4.85,0.6 -1.333,0.4 -2,0.883 -2,1.45 v 0.1 z"
   id="path37"
   inkscape:connector-curvature="0" />
	</g>
</symbol>
<symbol
   id="flash0.ai_x5F_0_x2F_Layer_24_x2F__x3C_Path_x3E__x5F_3"
   viewBox="0 -0.9 0.75 0.9"
   transform="translate(60.480306,103.825)">
	<g
   id="Layer_1_14_">
		<path
   style="clip-rule:evenodd;fill:#ffffff;fill-rule:evenodd"
   d="M 0.75,-0.45 C 0.75,-0.75 0.633,-0.9 0.4,-0.9 0.133,-0.9 0,-0.75 0,-0.45 0,-0.15 0.133,0 0.4,0 0.633,0 0.75,-0.15 0.75,-0.45 Z"
   id="path41"
   inkscape:connector-curvature="0" />
	</g>
</symbol>
<symbol
   id="flash0.ai_x5F_0_x2F_Layer_24_x2F__x3C_Path_x3E__x5F_4"
   viewBox="0 -0.85 0.55 0.85"
   transform="translate(60.480306,103.825)">
	<g
   id="Layer_1_13_">
		<path
   style="clip-rule:evenodd;fill:#ffffff;fill-rule:evenodd"
   d="M 0.55,-0.45 C 0.55,-0.717 0.467,-0.85 0.3,-0.85 0.1,-0.85 0,-0.717 0,-0.45 0,-0.15 0.1,0 0.3,0 0.467,0 0.55,-0.15 0.55,-0.45 Z"
   id="path45"
   inkscape:connector-curvature="0" />
	</g>
</symbol>
<symbol
   id="flash0.ai_x5F_0_x2F_Layer_24_x2F__x3C_Path_x3E__x5F_5"
   viewBox="0 -1.05 0.75 1.05"
   transform="translate(60.480306,103.825)">
	<g
   id="Layer_1_12_">
		<path
   style="clip-rule:evenodd;fill:#ffffff;fill-rule:evenodd"
   d="m 0.75,-0.55 c 0,-0.333 -0.133,-0.5 -0.4,-0.5 C 0.117,-1.05 0,-0.883 0,-0.55 0,-0.183 0.117,0 0.35,0 c 0.267,0 0.4,-0.183 0.4,-0.55 z"
   id="path49"
   inkscape:connector-curvature="0" />
	</g>
</symbol>
<symbol
   id="flash0.ai_x5F_0_x2F_Layer_24_x2F__x3C_Path_x3E__x5F_6"
   viewBox="0 -1.85 1.35 1.85"
   transform="translate(60.480306,103.825)">
	<g
   id="Layer_1_11_">
		<path
   style="clip-rule:evenodd;fill:#ffffff;fill-rule:evenodd"
   d="m 1.35,-0.95 c 0,-0.6 -0.217,-0.9 -0.65,-0.9 -0.167,0 -0.333,0.083 -0.5,0.25 -0.133,0.2 -0.2,0.417 -0.2,0.65 0,0.267 0.067,0.5 0.2,0.7 C 0.367,-0.083 0.533,0 0.7,0 1.133,0 1.35,-0.317 1.35,-0.95 Z"
   id="path53"
   inkscape:connector-curvature="0" />
	</g>
</symbol>
<symbol
   id="flash0.ai_x5F_0_x2F_Layer_24_x2F__x3C_Path_x3E__x5F_7"
   viewBox="0 -1.1 0.9 1.1"
   transform="translate(60.480306,103.825)">
	<g
   id="Layer_1_10_">
		<path
   style="clip-rule:evenodd;fill:#ffffff;fill-rule:evenodd"
   d="M 0.9,-0.55 C 0.9,-0.917 0.75,-1.1 0.45,-1.1 0.15,-1.1 0,-0.917 0,-0.55 0,-0.183 0.15,0 0.45,0 0.75,0 0.9,-0.183 0.9,-0.55 Z"
   id="path57"
   inkscape:connector-curvature="0" />
	</g>
</symbol>
<symbol
   id="flash0.ai_x5F_0_x2F_Layer_24_x2F__x3C_Path_x3E__x5F_8"
   viewBox="0 -1.5 1.1 1.5"
   transform="translate(60.480306,103.825)">
	<g
   id="Layer_1_9_">
		<path
   style="clip-rule:evenodd;fill:#ffffff;fill-rule:evenodd"
   d="M 1.1,-0.75 C 1.1,-1.25 0.916,-1.5 0.55,-1.5 0.184,-1.5 0,-1.25 0,-0.75 0,-0.25 0.183,0 0.55,0 0.917,0 1.1,-0.25 1.1,-0.75 Z"
   id="path61"
   inkscape:connector-curvature="0" />
	</g>
</symbol>
<symbol
   id="flash0.ai_x5F_0_x2F_Layer_24_x2F__x3C_Path_x3E__x5F_9"
   viewBox="0 -1.8 1.6 1.8"
   transform="translate(60.480306,103.825)">
	<g
   id="Layer_1_8_">
		<path
   style="clip-rule:evenodd;fill:#ffffff;fill-rule:evenodd"
   d="M 1.6,-0.9 C 1.6,-1.5 1.333,-1.8 0.8,-1.8 0.267,-1.8 0,-1.5 0,-0.9 0,-0.3 0.267,0 0.8,0 1.333,0 1.6,-0.3 1.6,-0.9 Z"
   id="path65"
   inkscape:connector-curvature="0" />
	</g>
</symbol>




















<g
   id="g904"
   transform="matrix(5.294726,0,0,5.294726,53.437235,-1.05e-6)"><use
     id="use69"
     style="overflow:visible;opacity:0.78130002;enable-background:new"
     transform="matrix(1.3192,0,0,-1.3192,-79.78562,136.96594)"
     y="-36.650002"
     height="36.650002"
     width="21.35"
     xlink:href="#flash0.ai_x5F_0_x2F_Layer_24_x2F__x3C_Path_x3E__x5F_16"
     x="0" /><use
     id="use71"
     style="overflow:visible;opacity:0.73049999;enable-background:new"
     transform="matrix(1.3192,0,0,-1.3192,-78.28562,149.21594)"
     y="-25.4"
     height="25.4"
     width="18.9"
     xlink:href="#flash0.ai_x5F_0_x2F_Layer_24_x2F__x3C_Path_x3E__x5F_15"
     x="0" /><path
     id="path73"
     d="m 25.526,11.279 c 1.231,0.748 0.792,1.518 -1.318,2.309 -2.331,0.88 -5.937,1.319 -10.818,1.319 C 8.729,14.864 5.409,14.402 3.431,13.522 2.463,13.038 1.936,12.576 1.848,12.137 l 0.066,-0.33 c 0,0.791 1.166,1.473 3.496,2.044 2.331,0.528 5.145,0.792 8.443,0.792 3.298,0 6.112,-0.264 8.443,-0.792 2.33,-0.571 3.495,-1.253 3.495,-2.044 -0.001,-0.176 -0.088,-0.352 -0.265,-0.528 z"
     style="clip-rule:evenodd;fill:#ffffff;fill-rule:evenodd"
     inkscape:connector-curvature="0" /><use
     id="use75"
     style="overflow:visible;opacity:0.89060005;enable-background:new"
     transform="matrix(1.3192,0,0,-1.3192,-77.88572,145.91614)"
     y="-4.3000002"
     height="4.3000002"
     width="18.1"
     xlink:href="#flash0.ai_x5F_0_x2F_Layer_24_x2F__x3C_Path_x3E__x5F_13"
     x="0" /><path
     id="path77"
     d="m 7.124,12.797 c 0.44,0 0.66,0.219 0.66,0.659 0,0.484 -0.22,0.726 -0.66,0.726 -0.484,0 -0.725,-0.242 -0.725,-0.726 -0.001,-0.44 0.241,-0.659 0.725,-0.659 z m -0.066,1.12 c 0.352,0 0.527,-0.176 0.527,-0.528 0,-0.352 -0.176,-0.527 -0.527,-0.527 -0.308,0 -0.462,0.176 -0.462,0.527 0,0.353 0.154,0.528 0.462,0.528 z"
     style="clip-rule:evenodd;fill:#ffffff;fill-rule:evenodd"
     inkscape:connector-curvature="0" /><path
     id="path79"
     d="m 17.348,13.72 c 0.352,0 0.527,0.176 0.527,0.527 0,0.353 -0.176,0.528 -0.527,0.528 -0.352,0 -0.528,-0.176 -0.528,-0.528 0,-0.351 0.176,-0.527 0.528,-0.527 z m 0,0.857 c 0.22,0 0.33,-0.131 0.33,-0.396 0,-0.265 -0.109,-0.396 -0.33,-0.396 -0.264,0 -0.396,0.131 -0.396,0.396 0,0.265 0.132,0.396 0.396,0.396 z"
     style="clip-rule:evenodd;fill:#ffffff;fill-rule:evenodd"
     inkscape:connector-curvature="0" /><path
     id="path81"
     d="m 15.501,13.258 c 0.483,0 0.725,0.242 0.725,0.726 0,0.484 -0.242,0.725 -0.725,0.725 -0.484,0 -0.726,-0.241 -0.726,-0.725 0,-0.484 0.242,-0.726 0.726,-0.726 z m 0,1.188 c 0.308,0 0.461,-0.176 0.461,-0.528 0,-0.352 -0.154,-0.528 -0.461,-0.528 -0.352,0 -0.528,0.176 -0.528,0.528 0,0.352 0.176,0.528 0.528,0.528 z"
     style="clip-rule:evenodd;fill:#ffffff;fill-rule:evenodd"
     inkscape:connector-curvature="0" /><use
     id="use83"
     style="overflow:visible;opacity:0.25;enable-background:new"
     transform="matrix(1.3192,0,0,-1.3192,-61.58542,143.36584)"
     y="-30.65"
     height="30.65"
     width="3.9000001"
     xlink:href="#flash0.ai_x5F_0_x2F_Layer_24_x2F__x3C_Path_x3E__x5F_12"
     x="0" /><use
     id="use85"
     style="overflow:visible;opacity:0.07809999;enable-background:new"
     transform="matrix(1.3192,0,0,-1.3192,-78.88572,140.96594)"
     y="-32.098"
     height="32.098"
     width="20"
     xlink:href="#flash0.ai_x5F_0_x2F_Layer_24_x2F__x3C_Path_x3E__x5F_11"
     x="0" /><use
     id="use87"
     style="overflow:visible;opacity:0.58980001;enable-background:new"
     transform="matrix(1.3192,0,0,-1.3192,-69.38572,159.21594)"
     y="-1.2"
     height="1.2"
     width="1.15"
     xlink:href="#flash0.ai_x5F_0_x2F_Layer_24_x2F__x3C_Path_x3E__x5F_10"
     x="0" /><use
     id="use89"
     style="overflow:visible;opacity:0.58980001;enable-background:new"
     transform="matrix(1.3192,0,0,-1.3192,-58.98582,163.36634)"
     y="-1.8"
     height="1.8"
     width="1.6"
     xlink:href="#flash0.ai_x5F_0_x2F_Layer_24_x2F__x3C_Path_x3E__x5F_9"
     x="0" /><use
     id="use91"
     style="overflow:visible;opacity:0.58980001;enable-background:new"
     transform="matrix(1.3192,0,0,-1.3192,-74.98582,161.21594)"
     y="-1.5"
     height="1.5"
     width="1.1"
     xlink:href="#flash0.ai_x5F_0_x2F_Layer_24_x2F__x3C_Path_x3E__x5F_8"
     x="0" /><use
     id="use93"
     style="overflow:visible;opacity:0.58980001;enable-background:new"
     transform="matrix(1.3192,0,0,-1.3192,-68.78562,172.36634)"
     y="-1.1"
     height="1.1"
     width="0.89999998"
     xlink:href="#flash0.ai_x5F_0_x2F_Layer_24_x2F__x3C_Path_x3E__x5F_7"
     x="0" /><use
     id="use95"
     style="overflow:visible;opacity:0.58980001;enable-background:new"
     transform="matrix(1.3192,0,0,-1.3192,-64.93552,177.01574)"
     y="-1.85"
     height="1.85"
     width="1.35"
     xlink:href="#flash0.ai_x5F_0_x2F_Layer_24_x2F__x3C_Path_x3E__x5F_6"
     x="0" /><use
     id="use97"
     style="overflow:visible;opacity:0.58980001;enable-background:new"
     transform="matrix(1.3192,0,0,-1.3192,-76.48582,155.76574)"
     y="-1.05"
     height="1.05"
     width="0.75"
     xlink:href="#flash0.ai_x5F_0_x2F_Layer_24_x2F__x3C_Path_x3E__x5F_5"
     x="0" /><use
     id="use99"
     style="overflow:visible;opacity:0.58980001;enable-background:new"
     transform="matrix(1.3192,0,0,-1.3192,-66.58542,171.41614)"
     y="-0.85000002"
     height="0.85000002"
     width="0.55000001"
     xlink:href="#flash0.ai_x5F_0_x2F_Layer_24_x2F__x3C_Path_x3E__x5F_4"
     x="0" /><use
     id="use101"
     style="overflow:visible;opacity:0.58980001;enable-background:new"
     transform="matrix(1.3192,0,0,-1.3192,-61.53562,160.96594)"
     y="-0.89999998"
     height="0.89999998"
     width="0.75"
     xlink:href="#flash0.ai_x5F_0_x2F_Layer_24_x2F__x3C_Path_x3E__x5F_3"
     x="0" /><path
     id="path103"
     d="M 3.43,6.002 5.474,6.398 C 7.19,26.45 7.981,38.037 7.85,41.16 7.629,44.502 6.156,32.782 3.43,6.002 Z"
     style="clip-rule:evenodd;fill:#ffffff;fill-rule:evenodd"
     inkscape:connector-curvature="0" /><g
     id="g107">
	<path
   inkscape:connector-curvature="0"
   id="path105"
   d="M 26.583,5.937 C 24.032,7.388 19.854,8.113 14.049,8.113 11.278,8.113 8.707,7.894 6.332,7.454 4.046,7.014 2.353,6.442 1.253,5.739 l 4.419,36.74 v 0.066 c 0,0.703 0.813,1.297 2.44,1.78 1.627,0.528 3.563,0.792 5.805,0.792 2.243,0 4.178,-0.264 5.805,-0.792 1.626,-0.483 2.439,-1.077 2.439,-1.78 V 42.479 Z M 23.878,1.122 h 0.065 l 0.857,0.33 h 0.066 c 2.067,0.704 3.166,1.539 3.298,2.506 l -5.079,41.555 0.066,0.132 c 0,0.748 -0.88,1.386 -2.639,1.913 -1.803,0.528 -3.935,0.792 -6.398,0.792 -2.507,0 -4.64,-0.264 -6.398,-0.792 C 5.957,47.031 5.077,46.393 5.077,45.645 V 45.513 L 0,4.288 V 3.958 C 0.044,2.99 1.144,2.155 3.298,1.451 L 3.364,1.385 4.222,1.122 H 4.288 L 5.211,0.924 5.409,0.858 8.641,0.265 H 9.235 L 9.895,0.133 12.071,0 l 4.815,0.066 1.319,0.066 0.792,0.132 h 0.528 l 2.11,0.33 1.188,0.264 0.132,0.066 z M 22.559,5.871 C 24.846,5.299 25.99,4.618 25.99,3.826 25.99,2.991 24.846,2.309 22.559,1.782 20.272,1.21 17.502,0.925 14.247,0.925 10.994,0.925 8.245,1.21 6.002,1.782 3.716,2.309 2.573,2.99 2.573,3.826 c 0,0.792 1.144,1.473 3.429,2.045 2.287,0.571 5.036,0.857 8.245,0.857 3.211,0 5.982,-0.286 8.312,-0.857 z"
   style="clip-rule:evenodd;fill:#ccf6ff;fill-rule:evenodd" />
</g><path
     id="path109"
     d="m 21.635,43.402 c 0.704,0.791 0.616,1.582 -0.264,2.375 -1.012,0.834 -2.77,1.318 -5.276,1.45 C 11.17,47.492 8.07,46.941 6.794,45.578 6.53,45.226 6.398,44.875 6.398,44.523 c 0.043,-0.308 0.154,-0.55 0.33,-0.726 1.539,0.879 3.936,1.319 7.189,1.319 3.871,10e-4 6.442,-0.571 7.718,-1.714 z"
     style="clip-rule:evenodd;fill:#ffffff;fill-rule:evenodd"
     inkscape:connector-curvature="0" /><path
     id="path111"
     d="m 23.152,45.645 c 0,0.748 -0.88,1.386 -2.639,1.913 -1.803,0.528 -3.935,0.792 -6.398,0.792 -2.199,0 -4.133,-0.22 -5.805,-0.659 -1.539,-0.397 -2.594,-0.902 -3.166,-1.518 0.616,0.528 1.715,0.967 3.298,1.319 4.485,0.88 8.619,0.659 12.401,-0.66 0.704,-0.221 1.253,-0.461 1.648,-0.726 0.308,-0.264 0.506,-0.44 0.594,-0.528 z"
     style="clip-rule:evenodd;fill:#8bc3cf;fill-rule:evenodd"
     inkscape:connector-curvature="0" /></g>
</svg>