<?xml version="1.0" encoding="UTF-8" standalone="no"?>
<!-- Generator: Adobe Illustrator 15.1.0, SVG Export Plug-In . SVG Version: 6.00 Build 0)  -->

<svg
   xmlns:dc="http://purl.org/dc/elements/1.1/"
   xmlns:cc="http://creativecommons.org/ns#"
   xmlns:rdf="http://www.w3.org/1999/02/22-rdf-syntax-ns#"
   xmlns:svg="http://www.w3.org/2000/svg"
   xmlns="http://www.w3.org/2000/svg"
   xmlns:xlink="http://www.w3.org/1999/xlink"
   xmlns:sodipodi="http://sodipodi.sourceforge.net/DTD/sodipodi-0.dtd"
   xmlns:inkscape="http://www.inkscape.org/namespaces/inkscape"
   version="1.1"
   id="Layer_1"
   x="0px"
   y="0px"
   width="256"
   height="256"
   viewBox="0 0 256.00001 255.99999"
   xml:space="preserve"
   sodipodi:docname="goat_liquer.svg"
   inkscape:version="0.92.4 (5da689c313, 2019-01-14)"
   inkscape:export-xdpi="10.5"
   inkscape:export-ydpi="10.5"><title
   id="title925">Liquer</title><metadata
   id="metadata118"><rdf:RDF><cc:Work
       rdf:about=""><dc:format>image/svg+xml</dc:format><dc:type
         rdf:resource="http://purl.org/dc/dcmitype/StillImage" /><dc:title>Liquer</dc:title><cc:license
         rdf:resource="http://creativecommons.org/publicdomain/zero/1.0/" /><dc:creator><cc:Agent><dc:title>Glitch</dc:title></cc:Agent></dc:creator><dc:source>https://opengameart.org/node/20149</dc:source></cc:Work><cc:License
       rdf:about="http://creativecommons.org/publicdomain/zero/1.0/"><cc:permits
         rdf:resource="http://creativecommons.org/ns#Reproduction" /><cc:permits
         rdf:resource="http://creativecommons.org/ns#Distribution" /><cc:permits
         rdf:resource="http://creativecommons.org/ns#DerivativeWorks" /></cc:License></rdf:RDF></metadata><defs
   id="defs116" /><sodipodi:namedview
   pagecolor="#ffffff"
   bordercolor="#666666"
   borderopacity="1"
   objecttolerance="10"
   gridtolerance="10"
   guidetolerance="10"
   inkscape:pageopacity="0"
   inkscape:pageshadow="2"
   inkscape:window-width="1920"
   inkscape:window-height="1025"
   id="namedview114"
   showgrid="false"
   inkscape:zoom="1.0102739"
   inkscape:cx="-214.81322"
   inkscape:cy="12.76787"
   inkscape:window-x="-8"
   inkscape:window-y="-8"
   inkscape:window-maximized="1"
   inkscape:current-layer="Layer_1"
   fit-margin-top="0"
   fit-margin-left="0"
   fit-margin-right="0"
   fit-margin-bottom="0" />

<symbol
   id="goatllabl2"
   viewBox="-37.7 -47.786 79.775 80.885"
   transform="translate(3.1073653,118.51263)">
	
	
	<g
   id="g1242"><path
     inkscape:connector-curvature="0"
     id="path27"
     d="m -37.7,-41.475 8.8,70.8 c 22.517,-2.207 40.35,-0.948 53.5,3.774 L 42.075,-37.376 C 30.085,-45.36 14.444,-48.752 -4.85,-47.55 c -10.506,0.805 -21.456,2.83 -32.85,6.075 z m 4.5,5.35 c 10.709,-2.815 20.742,-4.515 30.1,-5.1 17.21,-0.984 30.527,1.949 39.95,8.8 L 22.475,30.625 C 13.691,26.002 -2.626,24.81 -26.475,27.05 Z"
     style="clip-rule:evenodd;fill:#9c7a14;fill-rule:evenodd" /><path
     inkscape:connector-curvature="0"
     id="path29"
     d="m -33.2,-36.125 6.726,63.175 c 23.849,-2.24 40.166,-1.048 48.95,3.575 l 14.375,-63.05 c -9.423,-6.852 -22.74,-9.785 -39.95,-8.8 -9.359,0.585 -19.392,2.285 -30.101,5.1 z"
     style="clip-rule:evenodd;fill:#6c6c6c;fill-rule:evenodd" /></g>
	
	
</symbol>



<g
   id="g1098"
   transform="matrix(4.7064345,0,0,-4.7064345,128.04884,-116.30896)">
		
			<g
   id="g1056"
   transform="matrix(0.2289,0,0,0.2289,-0.01852279,-54.378195)">
			<path
   id="path1052"
   d="m -23,47.6 c 1.434,-1.166 4.433,-2.183 9,-3.05 5.133,-1 9.55,-1.5 13.25,-1.5 4.133,0 7.717,0.5 10.75,1.5 3.967,1.267 6.117,3.25 6.45,5.95 1.566,-2.033 2.65,-4.75 3.25,-8.15 0.406,-2.162 1.59,-6.995 3.55,-14.5 1.953,-7.502 3.536,-12.936 4.75,-16.3 1.223,-3.359 3.297,-9.601 6.225,-18.725 2.919,-9.128 5.328,-15.895 7.225,-20.3 1.901,-4.4 3.693,-14.525 5.375,-30.375 1.678,-15.852 -1.421,-27.811 -9.3,-35.875 -9.407,-7.525 -21.399,-11.116 -35.975,-10.775 -27.548,1.359 -43.739,9.859 -48.575,25.5 -2.007,6.361 -2.374,14.145 -1.1,23.35 0.644,6.218 2.335,14.51 5.075,24.875 1.215,5.284 5.015,19.359 11.399,42.225 4.541,16.112 7.424,28.161 8.651,36.15 z"
   style="clip-rule:evenodd;fill:#2d2306;fill-opacity:0.70200004;fill-rule:evenodd"
   inkscape:connector-curvature="0" />
			<path
   id="path1054"
   d="M 16.45,50.5 C 16.117,47.8 13.967,45.816 10,44.55 c -3.033,-1 -6.617,-1.5 -10.75,-1.5 -3.7,0 -8.117,0.5 -13.25,1.5 -4.567,0.867 -7.566,1.884 -9,3.05 0.233,1.534 0.467,2.9 0.7,4.101 1.666,1.1 4.6,2.05 8.8,2.85 5.233,1 9.9,1.5 14,1.5 6.367,0 11.067,-1.217 14.1,-3.649 0.667,-0.536 1.283,-1.169 1.85,-1.902 z"
   style="clip-rule:evenodd;fill:#a27e15;fill-opacity:0.79220001;fill-rule:evenodd"
   inkscape:connector-curvature="0" />
		</g><g
   id="g1076"
   transform="matrix(0.2289,0,0,0.2289,-0.01852279,-54.378195)">
			<path
   id="path1060"
   d="m -21.75,92.55 c -1.733,0 -3.217,0.616 -4.45,1.85 -1.233,1.267 -1.85,2.783 -1.85,4.55 0.4,-0.566 0.85,-1.083 1.35,-1.55 2.334,-2.333 5.117,-3.399 8.351,-3.2 4.566,-0.533 9.183,-0.566 13.85,-0.1 7.3,1.033 14.067,3.184 20.3,6.45 l -2.95,2.5 -3.75,-2.4 c -8.133,4.167 -16.933,5.084 -26.4,2.75 -2.033,-0.5 -3.634,-1.566 -4.8,-3.2 -0.566,0 -1.033,0.351 -1.4,1.051 -0.399,0.733 -0.6,1.616 -0.6,2.649 12,5.134 24.183,5.5 36.55,1.101 0.867,-0.301 1.566,-0.784 2.1,-1.45 3.233,-3.967 2.55,-7.117 -2.05,-9.45 -1.767,-0.366 -3.483,-0.833 -5.15,-1.4 -9.734,-3.468 -19.434,-3.518 -29.101,-0.151 z"
   style="clip-rule:evenodd;fill:#6f4940;fill-rule:evenodd"
   inkscape:connector-curvature="0" />
			<path
   id="path1062"
   d="m -22.1,100.199 c 9.8,-3.166 19.65,-3.233 29.55,-0.199 0.566,0.166 1.117,0.383 1.65,0.649 l 3.75,2.4 2.95,-2.5 c -6.233,-3.267 -13,-5.417 -20.3,-6.45 -4.667,-0.467 -9.283,-0.434 -13.85,0.1 -3.233,-0.199 -6.017,0.867 -8.351,3.2 -0.5,0.467 -0.949,0.983 -1.35,1.55 0,1.367 0.384,2.534 1.15,3.5 0.767,0.967 1.699,1.45 2.8,1.45 0,-1.033 0.2,-1.916 0.6,-2.649 0.368,-0.7 0.835,-1.051 1.401,-1.051 z"
   style="clip-rule:evenodd;fill:#895143;fill-rule:evenodd"
   inkscape:connector-curvature="0" />
			<path
   id="path1064"
   d="m -22.1,100.199 c 1.166,1.634 2.767,2.7 4.8,3.2 9.467,2.334 18.267,1.417 26.4,-2.75 C 8.567,100.382 8.017,100.166 7.45,100 -2.45,96.966 -12.3,97.033 -22.1,100.199 Z"
   style="clip-rule:evenodd;fill:#261c1a;fill-rule:evenodd"
   inkscape:connector-curvature="0" />
			<path
   id="path1066"
   d="m -23.3,81.25 1.55,11.3 c 9.667,-3.367 19.367,-3.316 29.1,0.149 1.667,0.567 3.383,1.034 5.15,1.4 l 1.15,-7.35 c 0.033,-0.7 0.066,-1.4 0.1,-2.101 0.067,-3 -1.116,-5.25 -3.55,-6.75 -4,-2.399 -7.934,-2.233 -11.8,0.5 -3.766,2.668 -7.4,5.535 -10.9,8.602 -0.6,0.533 -1.267,0.883 -2,1.05 -4.7,0.7 -7.633,-1.567 -8.8,-6.8 z"
   style="clip-rule:evenodd;fill:#42302d;fill-opacity:0.9020004;fill-rule:evenodd"
   inkscape:connector-curvature="0" />
			<path
   id="path1068"
   d="m 13.65,86.75 c 2.566,-13 5.116,-26.017 7.65,-39.051 0.872,-4.528 1.73,-9.062 2.575,-13.6 H 23.85 c 2.367,-5.78 4.833,-11.863 7.4,-18.25 4.534,-11.525 9.2,-24.142 14,-37.85 1.8,-5.133 3.267,-10.408 4.4,-15.825 1.633,-8.203 2.533,-16.77 2.7,-25.7 0.233,-17.229 -3.933,-28.737 -12.5,-34.525 -7.483,-4.916 -15.625,-8.008 -24.425,-9.275 -8.796,-1.267 -19.287,-0.825 -31.475,1.326 -12.196,2.152 -21.096,6.06 -26.7,11.725 -5.4,5.497 -8.417,11.438 -9.05,17.825 -0.634,6.146 -0.65,12.837 -0.05,20.075 0.566,7.839 1.483,15.314 2.75,22.425 1.467,8.495 3.416,16.544 5.85,24.15 3.834,12.367 7.367,23.783 10.601,34.25 0.966,3.318 1.983,6.535 3.05,9.65 h 0.024 c 1.058,8.374 2.165,16.74 3.325,25.1 1,7.367 1.983,14.717 2.95,22.051 1.167,5.233 4.1,7.5 8.8,6.8 0.733,-0.167 1.4,-0.517 2,-1.05 3.5,-3.067 7.134,-5.934 10.9,-8.601 3.866,-2.733 7.8,-2.899 11.8,-0.5 2.434,1.5 3.617,3.75 3.55,6.75 -0.033,0.7 -0.066,1.4 -0.1,2.1 z M 11.45,67.8 c -0.066,-0.9 -0.066,-1.783 0,-2.65 0.8,-9.133 2.4,-18.1 4.8,-26.899 0.377,-1.381 0.735,-2.764 1.075,-4.15 H 17.3 c 3.5,-7.563 6.267,-15.813 8.3,-24.75 2.9,-12.814 5.25,-26.923 7.05,-42.325 0.8,-7.032 0.066,-14.023 -2.2,-20.975 C 23.35,-75.258 8,-87.309 -15.6,-90.101 l 6.8,-0.975 c 7.167,-0.445 14.333,-0.445 21.5,0 5.167,0.081 10.05,1.456 14.65,4.125 12.633,7.404 18.967,18.771 19,34.1 0,10.948 -1.933,21.432 -5.8,31.45 -3.233,8.333 -6.483,16.241 -9.75,23.725 -5.034,11.4 -8.95,21.992 -11.75,31.775 h 0.025 c -0.678,5.715 -1.22,11.448 -1.625,17.2 -0.433,6.267 -2.433,11.767 -6,16.501 z m -27.25,8.55 c -0.547,1.851 -1.231,3.635 -2.05,5.35 l -1.65,-1.1 c -0.733,-1.434 -1.267,-2.934 -1.6,-4.5 -2.902,-13.931 -5.252,-27.931 -7.05,-42 -4.467,-14.151 -8.301,-30.243 -11.5,-48.275 0.6,1.699 1.233,3.357 1.899,4.975 -2.666,-12.007 -4.583,-25.065 -5.75,-39.175 -1.366,-17.019 5.101,-30.036 19.4,-39.05 -3.233,3.398 -6.334,6.757 -9.3,10.075 -1,1.125 -1.601,2.534 -1.801,4.225 -1.699,15.002 -0.533,28.994 3.5,41.975 4.4,14.273 9.167,27.273 14.3,39 4.067,9.255 7.267,18.005 9.6,26.25 h 0.025 c 0.232,1.314 0.457,2.632 0.675,3.95 0.9,5.5 1.65,11.017 2.25,16.55 0.767,7.3 -0.25,14.25 -3.05,20.85 -0.433,1 -1.183,1.584 -2.25,1.75 -2.21,0.512 -4.094,0.229 -5.648,-0.85 z"
   style="clip-rule:evenodd;fill:#5e302f;fill-opacity:0.70200004;fill-rule:evenodd"
   inkscape:connector-curvature="0" />
			<path
   id="path1070"
   d="m 11.45,67.8 c 3.566,-4.733 5.566,-10.233 6,-16.5 0.405,-5.752 0.947,-11.485 1.625,-17.2 H 19.05 c 2.8,-9.783 6.716,-20.375 11.75,-31.775 3.267,-7.484 6.517,-15.392 9.75,-23.725 3.867,-10.019 5.8,-20.502 5.8,-31.45 -0.033,-15.329 -6.367,-26.695 -19,-34.1 -4.6,-2.669 -9.483,-4.044 -14.65,-4.125 -7.167,-0.445 -14.333,-0.445 -21.5,0 l -6.8,0.975 c 23.6,2.791 38.95,14.842 46.05,36.15 2.267,6.951 3,13.943 2.2,20.975 -1.8,15.402 -4.15,29.51 -7.05,42.325 -2.033,8.938 -4.8,17.188 -8.3,24.75 h 0.025 c -0.34,1.387 -0.698,2.77 -1.075,4.15 -2.4,8.8 -4,17.767 -4.8,26.899 -0.066,0.868 -0.066,1.75 0,2.651 z"
   style="clip-rule:evenodd;fill:#42302d;fill-opacity:0.8;fill-rule:evenodd"
   inkscape:connector-curvature="0" />
			<path
   id="path1072"
   d="m -37.75,-9.2 c 2.267,5.825 4.55,11.366 6.851,16.625 3.933,9.538 7.683,18.43 11.25,26.675 1.247,5.275 2.497,10.542 3.75,15.8 2.366,9.947 2.399,18.764 0.1,26.45 1.554,1.079 3.438,1.362 5.65,0.85 1.067,-0.166 1.817,-0.75 2.25,-1.75 2.8,-6.6 3.817,-13.55 3.05,-20.85 -0.6,-5.533 -1.35,-11.05 -2.25,-16.55 -0.218,-1.318 -0.443,-2.636 -0.675,-3.95 H -7.8 c -2.333,-8.245 -5.533,-16.995 -9.6,-26.25 -5.133,-11.727 -9.9,-24.727 -14.3,-39 -4.033,-12.981 -5.199,-26.973 -3.5,-41.975 0.2,-1.691 0.801,-3.1 1.801,-4.225 2.966,-3.318 6.066,-6.676 9.3,-10.075 -14.3,9.014 -20.767,22.031 -19.4,39.05 1.166,14.109 3.083,27.167 5.749,39.175 z"
   style="clip-rule:evenodd;fill:#895143;fill-opacity:0.8;fill-rule:evenodd"
   inkscape:connector-curvature="0" />
			<path
   id="path1074"
   d="m -15.8,76.35 c 2.299,-7.687 2.266,-16.503 -0.1,-26.45 -1.253,-5.258 -2.503,-10.524 -3.75,-15.8 -3.567,-8.245 -7.317,-17.137 -11.25,-26.675 -2.3,-5.259 -4.583,-10.8 -6.85,-16.625 -0.666,-1.618 -1.3,-3.276 -1.899,-4.975 3.199,18.032 7.033,34.124 11.5,48.275 1.798,14.069 4.147,28.069 7.05,42 0.333,1.566 0.866,3.066 1.6,4.5 l 1.65,1.1 c 0.818,-1.716 1.502,-3.5 2.049,-5.35 z"
   style="clip-rule:evenodd;fill:#ceb8b3;fill-rule:evenodd"
   inkscape:connector-curvature="0" />
		</g><use
   id="use1080"
   style="overflow:visible"
   transform="matrix(0.2289,0,0,0.2289,-0.18046159,-87.113785)"
   y="-47.785999"
   x="-37.700001"
   height="80.885002"
   width="79.775002"
   xlink:href="#goatllabl2" /><g
   id="g1094"
   transform="matrix(0.2289,0,0,0.2289,-0.01852279,-54.378195)">
		<g
   id="g1092">
			<path
   inkscape:connector-curvature="0"
   style="clip-rule:evenodd;fill:#e4be98;fill-rule:evenodd"
   d="m -20.25,124.7 0.1,-0.1 c 0.133,0.1 0.283,0.183 0.45,0.25 0.8,0.433 1.6,0.833 2.4,1.199 0.533,0.2 1.133,0.384 1.8,0.551 l -0.05,0.149 c 1.267,0.5 2.533,0.884 3.8,1.15 1.833,0.399 3.967,0.633 6.4,0.7 h 0.45 c 0.233,0 0.483,0 0.75,0 h 1 c 2.367,-0.034 4.95,-0.233 7.75,-0.601 1.434,-0.166 2.55,-0.483 3.35,-0.95 0.933,-0.533 1.4,-1.283 1.4,-2.25 0,-0.366 -0.066,-0.733 -0.2,-1.1 -0.433,-1.134 -1.633,-1.967 -3.6,-2.5 -2.567,-0.634 -3.983,-0.983 -4.25,-1.05 -2.934,-0.7 -6.333,-1.05 -10.2,-1.05 -2.467,0 -5.05,0.25 -7.75,0.75 -3.5,0.666 -5.25,1.533 -5.25,2.6 0,0.835 0.549,1.585 1.65,2.252 z"
   id="path1084" />
			<path
   inkscape:connector-curvature="0"
   style="clip-rule:evenodd;fill:#d79e66;fill-rule:evenodd"
   d="m 2.85,98.351 c -7.3,-1 -11.967,-1.5 -14,-1.5 -0.5,0 -0.983,0.017 -1.45,0.05 -0.933,0.133 -1.8,0.35 -2.6,0.649 -1.233,0.5 -2.284,0.884 -3.15,1.15 -1.4,1.267 -2.5,3.15 -3.3,5.65 -1.167,3.666 -1.75,9.083 -1.75,16.25 0,3.767 2.5,6.35 7.5,7.75 0.333,0.1 0.667,0.183 1,0.25 2.967,0.666 6.917,1 11.85,1 3.6,0 6.383,-0.334 8.35,-1 1.167,-0.4 2.05,-0.917 2.65,-1.551 -0.8,0.467 -1.917,0.784 -3.35,0.95 -2.8,0.367 -5.383,0.566 -7.75,0.601 h -1 c -0.267,0 -0.517,0 -0.75,0 h -0.45 c -2.433,-0.067 -4.566,-0.301 -6.4,-0.7 -1.267,-0.267 -2.533,-0.65 -3.8,-1.15 -0.6,-0.2 -1.184,-0.434 -1.75,-0.7 -1.133,-0.366 -2.05,-0.767 -2.75,-1.199 h -0.1 V 124.8 c -0.033,-0.033 -0.066,-0.066 -0.1,-0.1 -1.101,-0.667 -1.65,-1.417 -1.65,-2.25 0,-1.066 1.75,-1.934 5.25,-2.6 2.7,-0.5 5.283,-0.75 7.75,-0.75 3.867,0 7.267,0.35 10.2,1.05 0.8,-2.134 1.316,-5.2 1.55,-9.2 0,-0.267 0,-4.134 0,-11.6 0,-0.3 0,-0.633 0,-0.999 z m -20.75,15 c 0,-0.601 0.25,-1.101 0.75,-1.5 0.434,-0.334 0.883,-0.5 1.35,-0.5 0.7,0 1.167,0.166 1.4,0.5 0.167,0.233 0.25,0.683 0.25,1.35 0,0.7 -0.333,1.333 -1,1.9 -0.2,0.166 -0.4,0.3 -0.6,0.399 -0.133,0.066 -0.25,0.117 -0.35,0.15 -0.466,0 -0.883,-0.25 -1.25,-0.75 -0.367,-0.533 -0.55,-1.049 -0.55,-1.549 z M -7,116.45 c -0.533,-0.267 -0.9,-0.45 -1.1,-0.55 -0.233,-0.167 -0.383,-0.384 -0.45,-0.65 -0.067,-0.2 -0.1,-0.416 -0.1,-0.649 0,-0.4 0.017,-0.617 0.05,-0.65 0.034,-0.066 0.267,-0.267 0.7,-0.6 h 2 c 0,0.333 0.083,0.866 0.25,1.6 0,0.4 -0.25,0.783 -0.75,1.15 -0.133,0.1 -0.25,0.183 -0.35,0.25 -0.101,0.033 -0.184,0.066 -0.25,0.099 z m 4.85,-0.5 c 0,-0.7 0.833,-1.233 2.5,-1.6 v 1.5 c -0.434,0.699 -1.05,1.033 -1.85,1 -0.066,-0.067 -0.133,-0.15 -0.2,-0.25 -0.3,-0.4 -0.45,-0.617 -0.45,-0.65 z m 0.25,-6.5 c 0.533,-0.233 1.033,-0.35 1.5,-0.35 0.333,0.333 0.5,0.916 0.5,1.75 0,0.666 -0.45,1.1 -1.35,1.3 -0.267,0.1 -0.566,0.149 -0.9,0.149 -0.2,-0.066 -0.367,-0.166 -0.5,-0.3 -0.333,-0.333 -0.5,-0.684 -0.5,-1.05 0,-0.666 0.416,-1.166 1.25,-1.499 z m -5.25,-4.15 c 0.133,-0.133 0.333,-0.199 0.6,-0.199 0.3,0 0.6,0.133 0.9,0.399 0.2,0.134 0.45,0.334 0.75,0.601 -0.233,0.267 -0.6,0.483 -1.1,0.649 -0.4,0.101 -0.667,0.134 -0.8,0.101 l -1.1,-0.75 c 0.266,-0.267 0.516,-0.535 0.75,-0.801 z m 5.75,-2.85 c -0.667,-0.467 -1,-0.866 -1,-1.2 0,-1.434 0.583,-2.149 1.75,-2.149 0.434,0 0.85,0.25 1.25,0.75 0.333,0.399 0.5,0.699 0.5,0.899 0,0.566 -0.167,1.017 -0.5,1.351 -0.333,0.333 -0.75,0.5 -1.25,0.5 -0.2,0 -0.383,-0.017 -0.55,-0.051 -0.067,-0.033 -0.134,-0.067 -0.2,-0.1 z m -17.75,6.8 c 0.333,-0.233 0.667,-0.366 1,-0.399 0,0.166 0.083,0.583 0.25,1.25 -0.667,0.166 -1.167,0.25 -1.5,0.25 -0.167,-0.2 -0.25,-0.367 -0.25,-0.5 0,-0.167 0.166,-0.368 0.5,-0.601 z m 3.2,-7.05 c -0.3,-0.267 -0.45,-0.467 -0.45,-0.6 0,-1.334 0.667,-2 2,-2 0.4,0 0.9,0.083 1.5,0.25 v 1.25 c -0.8,0.8 -1.383,1.283 -1.75,1.449 -0.1,0.034 -0.184,0.051 -0.25,0.051 -0.1,0 -0.4,-0.101 -0.9,-0.301 -0.067,-0.032 -0.117,-0.066 -0.15,-0.099 z"
   id="path1086" />
			<path
   inkscape:connector-curvature="0"
   style="clip-rule:evenodd;fill:#c48348;fill-rule:evenodd"
   d="m 9.149,123.7 c 0.1,-0.866 0.15,-1.884 0.15,-3.05 -0.134,-3.5 -0.2,-6.434 -0.2,-8.8 -0.167,-4 -0.25,-6.917 -0.25,-8.75 0,-1.233 -0.483,-2.267 -1.45,-3.101 -0.8,-0.7 -1.816,-1.166 -3.05,-1.399 -0.533,-0.067 -1.033,-0.15 -1.5,-0.25 0,0.366 0,0.699 0,1 0,7.466 0,11.333 0,11.6 -0.233,4 -0.75,7.066 -1.55,9.2 0.267,0.066 1.683,0.416 4.25,1.05 1.967,0.533 3.167,1.366 3.6,2.5 z M -15.95,102.2 c 0.033,0.033 0.083,0.066 0.15,0.1 0.5,0.2 0.8,0.301 0.9,0.301 0.066,0 0.15,-0.017 0.25,-0.051 0.367,-0.166 0.95,-0.649 1.75,-1.449 v -1.25 c -0.6,-0.167 -1.1,-0.25 -1.5,-0.25 -1.333,0 -2,0.666 -2,2 0,0.132 0.15,0.333 0.45,0.599 z m -3.2,7.05 c -0.333,0.233 -0.5,0.434 -0.5,0.601 0,0.133 0.083,0.3 0.25,0.5 0.333,0 0.833,-0.084 1.5,-0.25 -0.167,-0.667 -0.25,-1.084 -0.25,-1.25 -0.334,0.033 -0.667,0.166 -1,0.399 z m 17.75,-6.8 c 0.066,0.033 0.133,0.066 0.2,0.1 0.167,0.034 0.35,0.051 0.55,0.051 0.5,0 0.917,-0.167 1.25,-0.5 0.333,-0.334 0.5,-0.784 0.5,-1.351 0,-0.2 -0.167,-0.5 -0.5,-0.899 -0.4,-0.5 -0.816,-0.75 -1.25,-0.75 -1.167,0 -1.75,0.716 -1.75,2.149 0,0.334 0.333,0.733 1,1.2 z m -5.75,2.85 c -0.233,0.267 -0.483,0.534 -0.75,0.801 l 1.1,0.75 c 0.133,0.033 0.4,0 0.8,-0.101 0.5,-0.166 0.867,-0.383 1.1,-0.649 -0.3,-0.267 -0.55,-0.467 -0.75,-0.601 -0.3,-0.267 -0.6,-0.399 -0.9,-0.399 -0.267,0 -0.467,0.066 -0.6,0.199 z m 5.25,4.15 c -0.833,0.333 -1.25,0.833 -1.25,1.5 0,0.366 0.167,0.717 0.5,1.05 0.133,0.134 0.3,0.233 0.5,0.3 0.333,0 0.633,-0.05 0.9,-0.149 0.9,-0.2 1.35,-0.634 1.35,-1.3 0,-0.834 -0.167,-1.417 -0.5,-1.75 -0.467,0 -0.967,0.116 -1.5,0.349 z m -0.25,6.5 c 0,0.033 0.15,0.25 0.45,0.65 0.066,0.1 0.133,0.183 0.2,0.25 0.8,0.033 1.417,-0.301 1.85,-1 v -1.5 c -1.667,0.367 -2.5,0.9 -2.5,1.6 z m -4.85,0.5 c 0.067,-0.033 0.15,-0.066 0.25,-0.1 0.1,-0.067 0.217,-0.15 0.35,-0.25 0.5,-0.367 0.75,-0.75 0.75,-1.15 -0.167,-0.733 -0.25,-1.267 -0.25,-1.6 h -2 c -0.434,0.333 -0.667,0.533 -0.7,0.6 -0.033,0.033 -0.05,0.25 -0.05,0.65 0,0.233 0.033,0.449 0.1,0.649 0.066,0.267 0.216,0.483 0.45,0.65 0.2,0.101 0.566,0.285 1.1,0.551 z m -10.9,-3.099 c 0,0.5 0.184,1.017 0.55,1.55 0.367,0.5 0.784,0.75 1.25,0.75 0.1,-0.033 0.217,-0.084 0.35,-0.15 0.2,-0.1 0.4,-0.233 0.6,-0.399 0.667,-0.567 1,-1.2 1,-1.9 0,-0.667 -0.083,-1.116 -0.25,-1.35 -0.233,-0.334 -0.7,-0.5 -1.4,-0.5 -0.467,0 -0.917,0.166 -1.35,0.5 -0.5,0.398 -0.75,0.898 -0.75,1.499 z m 23.5,4.099 c 0,-1.066 0.7,-1.6 2.1,-1.6 0.233,0 0.533,0.25 0.9,0.75 0.333,0.466 0.5,0.8 0.5,1 0,0.566 -0.25,0.899 -0.75,1 -0.033,0 -0.533,0 -1.5,0 -0.4,0 -0.733,-0.017 -1,-0.051 C 5.683,118.283 5.6,117.917 5.6,117.45 Z M 5.399,109.3 c -0.366,-0.533 -0.55,-1.1 -0.55,-1.699 0,-0.834 0.5,-1.25 1.5,-1.25 1.5,0 2.25,0.616 2.25,1.85 0,0.8 -0.717,1.267 -2.15,1.4 -0.3,0 -0.649,-0.101 -1.05,-0.301 z"
   id="path1088" />
			<path
   inkscape:connector-curvature="0"
   style="clip-rule:evenodd;fill:#a46935;fill-rule:evenodd"
   d="m 5.6,117.45 c 0,0.467 0.083,0.833 0.25,1.1 0.267,0.034 0.6,0.051 1,0.051 0.967,0 1.467,0 1.5,0 0.5,-0.101 0.75,-0.434 0.75,-1 0,-0.2 -0.167,-0.534 -0.5,-1 -0.367,-0.5 -0.667,-0.75 -0.9,-0.75 -1.4,0 -2.1,0.533 -2.1,1.599 z M 5.399,109.3 c 0.4,0.2 0.75,0.301 1.05,0.301 1.433,-0.134 2.15,-0.601 2.15,-1.4 0,-1.233 -0.75,-1.85 -2.25,-1.85 -1,0 -1.5,0.416 -1.5,1.25 10e-4,0.599 0.184,1.166 0.55,1.699 z"
   id="path1090" />
		</g>
	</g>
	</g>
</svg>