<?xml version="1.0" encoding="UTF-8" standalone="no"?>
<!-- Generator: Adobe Illustrator 15.1.0, SVG Export Plug-In . SVG Version: 6.00 Build 0)  -->

<svg
   xmlns:dc="http://purl.org/dc/elements/1.1/"
   xmlns:cc="http://creativecommons.org/ns#"
   xmlns:rdf="http://www.w3.org/1999/02/22-rdf-syntax-ns#"
   xmlns:svg="http://www.w3.org/2000/svg"
   xmlns="http://www.w3.org/2000/svg"
   xmlns:xlink="http://www.w3.org/1999/xlink"
   xmlns:sodipodi="http://sodipodi.sourceforge.net/DTD/sodipodi-0.dtd"
   xmlns:inkscape="http://www.inkscape.org/namespaces/inkscape"
   version="1.1"
   id="flash0.ai"
   x="0px"
   y="0px"
   width="256"
   height="256"
   viewBox="0 0 255.99999 256"
   xml:space="preserve"
   sodipodi:docname="savory_smoothie.svg"
   inkscape:version="0.92.4 (5da689c313, 2019-01-14)"
   inkscape:export-filename="C:\Users\antum\Development\game-resources\icon\CC0\food\individual\Glitch\32x32\drink\savory_smoothie.png"
   inkscape:export-xdpi="10.5"
   inkscape:export-ydpi="10.5"><title
   id="title995">Savory Smoothie</title><metadata
   id="metadata188"><rdf:RDF><cc:Work
       rdf:about=""><dc:format>image/svg+xml</dc:format><dc:type
         rdf:resource="http://purl.org/dc/dcmitype/StillImage" /><dc:title>Savory Smoothie</dc:title><cc:license
         rdf:resource="http://creativecommons.org/publicdomain/zero/1.0/" /><dc:creator><cc:Agent><dc:title>Glitch</dc:title></cc:Agent></dc:creator><dc:source>https://opengameart.org/node/20149</dc:source></cc:Work><cc:License
       rdf:about="http://creativecommons.org/publicdomain/zero/1.0/"><cc:permits
         rdf:resource="http://creativecommons.org/ns#Reproduction" /><cc:permits
         rdf:resource="http://creativecommons.org/ns#Distribution" /><cc:permits
         rdf:resource="http://creativecommons.org/ns#DerivativeWorks" /></cc:License></rdf:RDF></metadata><defs
   id="defs186"><linearGradient
     inkscape:collect="always"
     xlink:href="#SVGID_1_"
     id="linearGradient936"
     gradientUnits="userSpaceOnUse"
     gradientTransform="matrix(1.201201e-4,-1,1,-0.001,16340.02,-1.167)"
     x1="15.4004"
     y1="-16329.971"
     x2="23.725401"
     y2="-16329.971" /><linearGradient
     inkscape:collect="always"
     xlink:href="#SVGID_2_"
     id="linearGradient938"
     gradientUnits="userSpaceOnUse"
     gradientTransform="matrix(5.298014e-5,-1,1,-0.001,16340.568,-1.167)"
     x1="16.5835"
     y1="-16338.356"
     x2="35.4585"
     y2="-16338.356" /><linearGradient
     inkscape:collect="always"
     xlink:href="#SVGID_3_"
     id="linearGradient940"
     gradientUnits="userSpaceOnUse"
     x1="-2.0127001"
     y1="-14.8442"
     x2="4.6122999"
     y2="-14.8442" /></defs><sodipodi:namedview
   pagecolor="#ffffff"
   bordercolor="#666666"
   borderopacity="1"
   objecttolerance="10"
   gridtolerance="10"
   guidetolerance="10"
   inkscape:pageopacity="0"
   inkscape:pageshadow="2"
   inkscape:window-width="1920"
   inkscape:window-height="1025"
   id="namedview184"
   showgrid="false"
   inkscape:zoom="0.85930589"
   inkscape:cx="73.794937"
   inkscape:cy="-89.329034"
   inkscape:window-x="-8"
   inkscape:window-y="-8"
   inkscape:window-maximized="1"
   inkscape:current-layer="flash0.ai"
   fit-margin-top="0"
   fit-margin-left="0"
   fit-margin-right="0"
   fit-margin-bottom="0" />
<symbol
   id="flash0.ai_x5F_2_x2F_Layer_36_copy_x2F__x3C_Path_x3E__x5F_10"
   viewBox="0.01 -1.19 2.964 1.195"
   transform="translate(-9.1899144,207.4754)">
	<g
   id="Layer_1_16_">
		<path
   style="clip-rule:evenodd;fill:#8c471e;fill-rule:evenodd"
   d="m 2.9,-0.4 c 0.167,-0.333 0.05,-0.567 -0.35,-0.7 -0.3,-0.1 -0.566,-0.117 -0.8,-0.05 -0.367,0.2 -0.767,0.383 -1.2,0.55 -0.6,0.233 -0.7,0.383 -0.3,0.45 0.2,0.067 0.717,0.117 1.55,0.15 0.567,0.033 0.933,-0.1 1.1,-0.4 z"
   id="path2"
   inkscape:connector-curvature="0" />
	</g>
</symbol>
<symbol
   id="flash0.ai_x5F_2_x2F_Layer_36_copy_x2F__x3C_Path_x3E__x5F_11"
   viewBox="0.011 -0.768 1.839 0.773"
   transform="translate(-9.1899144,207.4754)">
	<g
   id="Layer_1_15_">
		<path
   style="clip-rule:evenodd;fill:#8c471e;fill-rule:evenodd"
   d="M 1.7,-0.4 C 1.4,-0.7 1,-0.817 0.5,-0.75 0,-0.65 -0.117,-0.5 0.15,-0.3 0.417,-0.133 0.783,-0.033 1.25,0 1.85,0.033 2,-0.1 1.7,-0.4 Z"
   id="path6"
   inkscape:connector-curvature="0" />
	</g>
</symbol>
<symbol
   id="flash0.ai_x5F_2_x2F_Layer_36_copy_x2F__x3C_Path_x3E__x5F_12"
   viewBox="0 -0.844 3.022 0.844"
   transform="translate(-9.1899144,207.4754)">
	<g
   id="Layer_1_14_">
		<path
   style="clip-rule:evenodd;fill:#8c471e;fill-rule:evenodd"
   d="M 1.85,0 C 2.883,-0.033 3.233,-0.167 2.9,-0.4 2.6,-0.6 2.167,-0.733 1.6,-0.8 1,-0.933 0.483,-0.767 0.05,-0.3 c -0.133,0.167 0,0.267 0.4,0.3 z"
   id="path10"
   inkscape:connector-curvature="0" />
	</g>
</symbol>
<symbol
   id="flash0.ai_x5F_2_x2F_Layer_36_copy_x2F__x3C_Path_x3E__x5F_13"
   viewBox="0.021 -0.691 1.756 0.698"
   transform="translate(-9.1899144,207.4754)">
	<g
   id="Layer_1_13_">
		<path
   style="clip-rule:evenodd;fill:#8c471e;fill-rule:evenodd"
   d="m 0.95,0 c 0.767,-0.033 1,-0.167 0.7,-0.4 C 1.317,-0.667 0.9,-0.75 0.4,-0.65 0,-0.617 -0.083,-0.483 0.15,-0.25 0.35,-0.05 0.617,0.033 0.95,0 Z"
   id="path14"
   inkscape:connector-curvature="0" />
	</g>
</symbol>
<symbol
   id="flash0.ai_x5F_2_x2F_Layer_36_copy_x2F__x3C_Path_x3E__x5F_14"
   viewBox="-0.008 -0.964 2.07 0.964"
   transform="translate(-9.1899144,207.4754)">
	<g
   id="Layer_1_12_">
		<path
   style="clip-rule:evenodd;fill:#8c471e;fill-rule:evenodd"
   d="M 1,0 C 2.267,-0.067 2.4,-0.35 1.4,-0.85 1.167,-0.983 0.917,-1 0.65,-0.9 0.383,-0.8 0.183,-0.65 0.05,-0.45 -0.15,-0.15 0.167,0 1,0 Z"
   id="path18"
   inkscape:connector-curvature="0" />
	</g>
</symbol>
<symbol
   id="flash0.ai_x5F_2_x2F_Layer_36_copy_x2F__x3C_Path_x3E__x5F_15"
   viewBox="0.067 -3.067 3.255 3.073"
   transform="translate(-9.1899144,207.4754)">
	<g
   id="Layer_1_11_">
		<path
   style="clip-rule:evenodd;fill:#8c471e;fill-rule:evenodd"
   d="M 2.55,-1.45 C 3.15,-2.117 3.4,-2.483 3.3,-2.55 3.1,-2.75 2.5,-2.883 1.5,-2.95 1.433,-2.95 1.167,-2.983 0.7,-3.05 0.5,-3.083 0.333,-3.067 0.2,-3 c -0.133,0.033 -0.167,0.167 -0.1,0.4 0.1,0.434 0.15,0.75 0.15,0.95 0,0.633 0.117,1.133 0.35,1.5 0.1,0.167 0.2,0.2 0.3,0.1 l 0.35,-0.45 0.2,-0.2 z"
   id="path22"
   inkscape:connector-curvature="0" />
	</g>
</symbol>
<symbol
   id="flash0.ai_x5F_2_x2F_Layer_36_copy_x2F__x3C_Path_x3E__x5F_16"
   viewBox="0 -1.556 2.204 1.569"
   transform="translate(-9.1899144,207.4754)">
	<g
   id="Layer_1_10_">
		<path
   style="clip-rule:evenodd;fill:#8c471e;fill-rule:evenodd"
   d="m 0,-1.5 c 0.5,0.333 0.783,0.667 0.85,1 L 1,0 C 1.2,0.033 1.467,0 1.8,-0.1 2.067,-0.166 2.2,-0.217 2.2,-0.25 2.233,-0.283 2.067,-0.433 1.7,-0.7 1.467,-0.9 1.2,-1.133 0.9,-1.4 0.667,-1.567 0.367,-1.6 0,-1.5 Z"
   id="path26"
   inkscape:connector-curvature="0" />
	</g>
</symbol>
<symbol
   id="flash0.ai_x5F_2_x2F_Layer_36_copy_x2F__x3C_Path_x3E__x5F_17"
   viewBox="0 -1.75 2.25 1.75"
   transform="translate(-9.1899144,207.4754)">
	<g
   id="Layer_1_9_">
		<path
   style="clip-rule:evenodd;fill:#8c471e;fill-rule:evenodd"
   d="M 0.55,0 C 0.717,-0.1 0.967,-0.183 1.3,-0.25 1.533,-0.283 1.7,-0.383 1.8,-0.55 L 2.25,-1.1 C 2.183,-1.3 1.9,-1.433 1.4,-1.5 0.9,-1.533 0.433,-1.617 0,-1.75 c 0.333,0.133 0.55,0.367 0.65,0.7 0.067,0.333 0.033,0.683 -0.1,1.05 z"
   id="path30"
   inkscape:connector-curvature="0" />
	</g>
</symbol>
<symbol
   id="flash0.ai_x5F_2_x2F_Layer_36_copy_x2F__x3C_Path_x3E__x5F_22"
   viewBox="0.039 -3.424 2.776 3.447"
   transform="translate(-9.1899144,207.4754)">
	<g
   id="Layer_1_8_">
		<path
   style="clip-rule:evenodd;fill:#f8bca1;fill-rule:evenodd"
   d="m 0.9,-3.35 c -0.2,0.067 -0.383,0.317 -0.55,0.75 -0.3,0.733 -0.383,1.183 -0.25,1.35 0.133,0.167 0.65,0.567 1.55,1.2 C 1.85,0.117 2.017,0 2.15,-0.4 2.217,-0.633 2.3,-1 2.4,-1.5 2.467,-1.7 2.583,-2 2.75,-2.4 2.85,-2.733 2.833,-2.933 2.7,-3 1.9,-3.4 1.3,-3.517 0.9,-3.35 Z"
   id="path34"
   inkscape:connector-curvature="0" />
	</g>
</symbol>
<symbol
   id="flash0.ai_x5F_2_x2F_Layer_36_copy_x2F__x3C_Path_x3E__x5F_27"
   viewBox="0 -5.8 22.4 5.8"
   transform="translate(-9.1899144,207.4754)">
	<g
   id="Layer_1_7_">
		<path
   style="clip-rule:evenodd;fill:#ffffff;fill-rule:evenodd"
   d="m 22.4,-2.9 c 0,-0.8 -1.083,-1.483 -3.25,-2.05 C 16.95,-5.517 14.3,-5.8 11.2,-5.8 8.133,-5.8 5.5,-5.517 3.3,-4.95 1.1,-4.383 0,-3.7 0,-2.9 0,-2.1 1.1,-1.417 3.3,-0.85 5.5,-0.283 8.133,0 11.2,0 c 3.1,0 5.75,-0.283 7.95,-0.85 2.167,-0.567 3.25,-1.25 3.25,-2.05 z"
   id="path38"
   inkscape:connector-curvature="0" />
	</g>
</symbol>
<symbol
   id="flash0.ai_x5F_2_x2F_Layer_36_copy_x2F__x3C_Path_x3E__x5F_29"
   viewBox="-0.013 -41.15 22.742 41.15"
   transform="translate(-9.1899144,207.4754)">
	<g
   id="Layer_1_6_">
		<path
   style="clip-rule:evenodd;fill:#ffffff;fill-rule:evenodd"
   d="m 22.5,0 c 0.267,-3.6 0.3,-7.517 0.1,-11.75 -0.367,-8.5 -1.65,-14.367 -3.85,-17.6 -1.833,-2.7 -3.033,-5.3 -3.6,-7.8 -0.3,-1.267 -0.417,-2.25 -0.35,-2.95 l -0.4,-0.5 c -0.566,-0.367 -1.566,-0.533 -3,-0.5 v -0.05 h -0.1 v 0.05 c -1.4,-0.033 -2.383,0.133 -2.95,0.5 l -0.45,0.5 c 0.067,0.7 -0.033,1.684 -0.3,2.95 -0.6,2.5 -1.817,5.1 -3.65,7.8 -2.067,3 -3.317,8.333 -3.75,16 -0.267,4.033 -0.284,8.333 -0.05,12.9 0.2,-0.767 1.367,-1.4 3.5,-1.9 2.167,-0.533 4.717,-0.8 7.65,-0.8 3.1,0 5.75,0.283 7.95,0.85 2.167,0.566 3.25,1.25 3.25,2.05 L 22.45,0 Z"
   id="path42"
   inkscape:connector-curvature="0" />
	</g>
</symbol>
<symbol
   id="flash0.ai_x5F_2_x2F_Layer_36_copy_x2F__x3C_Path_x3E__x5F_30"
   viewBox="0 -7.7 20.1 7.7"
   transform="translate(-9.1899144,207.4754)">
	<g
   id="Layer_1_5_">
		<path
   style="clip-rule:evenodd;fill:#e3e3e3;fill-rule:evenodd"
   d="M 18.65,-2.8 C 19.383,-3.334 19.867,-3.734 20.1,-4 19.867,-4.367 19.433,-4.767 18.8,-5.2 17.567,-6.1 15.967,-6.8 14,-7.3 13.4,-7.467 12.683,-7.584 11.85,-7.65 V -7.7 H 8.2 v 0.05 C 7.367,-7.583 6.667,-7.467 6.1,-7.3 4.133,-6.8 2.517,-6.1 1.25,-5.2 0.65,-4.767 0.233,-4.367 0,-4 c 0.2,0.267 0.667,0.667 1.4,1.2 0.5,0.4 2.317,1.333 5.45,2.8 L 4.2,-1.95 c -0.4,-0.367 -0.633,-0.7 -0.7,-1 -0.033,-0.3 0.1,-0.7 0.4,-1.2 0.6,-0.867 1.233,-1.45 1.9,-1.75 0.667,-0.3 1.784,-0.517 3.35,-0.65 1.567,-0.133 3.184,0.033 4.85,0.5 1.7,0.433 2.917,1.033 3.65,1.8 0.567,0.567 0.567,1.267 0,2.1 0.533,-0.3 0.867,-0.517 1,-0.65 z"
   id="path46"
   inkscape:connector-curvature="0" />
	</g>
</symbol>
<symbol
   id="flash0.ai_x5F_2_x2F_Layer_36_copy_x2F__x3C_Path_x3E__x5F_31"
   viewBox="0 -8.5 20.1 8.5"
   transform="translate(-9.1899144,207.4754)">
	<g
   id="Layer_1_4_">
		
			<linearGradient
   id="SVGID_1_"
   gradientUnits="userSpaceOnUse"
   x1="15.4004"
   y1="-16329.971"
   x2="23.725401"
   y2="-16329.971"
   gradientTransform="matrix(1.201201e-4,-1,1,-0.001,16340.02,-1.167)">
			<stop
   offset="0"
   style="stop-color:#7A7A7A"
   id="stop50" />
			<stop
   offset="1"
   style="stop-color:#FFFFFF"
   id="stop52" />
		</linearGradient>
		<path
   style="clip-rule:evenodd;fill:url(#linearGradient936);fill-rule:evenodd"
   d="M 18.65,-3.6 C 19.383,-4.133 19.867,-4.533 20.1,-4.8 19.867,-5.167 19.433,-5.567 18.8,-6 17.567,-6.9 15.967,-7.6 14,-8.1 13.4,-8.267 12.683,-8.383 11.85,-8.45 V -8.5 H 8.2 v 0.05 C 7.367,-8.383 6.667,-8.267 6.1,-8.1 4.133,-7.6 2.517,-6.9 1.25,-6 0.65,-5.567 0.233,-5.167 0,-4.8 c 0.2,0.267 0.667,0.667 1.4,1.2 0.733,0.567 2.75,1.567 6.05,3 l 2.65,0.6 2.55,-0.6 2.6,-1.2 c 1.8,-0.833 2.933,-1.433 3.4,-1.8 z"
   id="path55"
   inkscape:connector-curvature="0" />
	</g>
</symbol>
<symbol
   id="flash0.ai_x5F_2_x2F_Layer_36_copy_x2F__x3C_Path_x3E__x5F_32"
   viewBox="0 -4.361 20.05 4.361"
   transform="translate(-9.1899144,207.4754)">
	<g
   id="Layer_1_3_">
		<path
   style="clip-rule:evenodd;fill:#ffffff;fill-rule:evenodd"
   d="m 14,-3.25 c 2.8,0.7 4.817,1.767 6.05,3.2 v -0.3 c -0.133,-0.333 -0.4,-0.683 -0.8,-1.05 -2.233,-1.867 -5.2,-2.85 -8.9,-2.95 -2.867,-0.1 -5.45,0.5 -7.75,1.8 -1.133,0.633 -2,1.283 -2.6,1.95 V 0 c 0.267,-0.4 0.767,-0.85 1.5,-1.35 1.233,-0.8 2.767,-1.433 4.6,-1.9 0.567,-0.167 1.267,-0.283 2.1,-0.35 v -0.05 h 3.65 v 0.05 c 0.833,0.067 1.55,0.183 2.15,0.35 z"
   id="path59"
   inkscape:connector-curvature="0" />
	</g>
</symbol>
<symbol
   id="flash0.ai_x5F_2_x2F_Layer_36_copy_x2F__x3C_Path_x3E__x5F_33"
   viewBox="0.011 -4.9 20.278 4.9"
   transform="translate(-9.1899144,207.4754)">
	<g
   id="Layer_1_2_">
		<path
   style="clip-rule:evenodd;fill:#5e473c;fill-rule:evenodd"
   d="M 20.2,-1.2 C 19.967,-1.567 19.533,-1.967 18.9,-2.4 17.667,-3.3 16.067,-4 14.1,-4.5 13.5,-4.667 12.783,-4.783 11.95,-4.85 V -4.9 H 8.3 v 0.05 C 7.467,-4.783 6.767,-4.667 6.2,-4.5 4.233,-4 2.617,-3.3 1.35,-2.4 c -0.6,0.433 -1.017,0.833 -1.25,1.2 -0.133,0.434 -0.117,0.817 0.05,1.15 1.067,-1.367 3.083,-2.434 6.05,-3.2 0.567,-0.167 1.267,-0.283 2.1,-0.35 v -0.05 h 3.65 v 0.05 c 0.833,0.067 1.55,0.184 2.15,0.35 1.833,0.467 3.35,1.1 4.55,1.9 0.7,0.467 1.2,0.917 1.5,1.35 0.167,-0.267 0.183,-0.667 0.05,-1.2 z"
   id="path63"
   inkscape:connector-curvature="0" />
	</g>
</symbol>
<symbol
   id="flash0.ai_x5F_2_x2F_Layer_36_copy_x2F__x3C_Path_x3E__x5F_6"
   viewBox="-0.178 -25.717 4.778 25.717"
   transform="translate(-9.1899144,207.4754)">
	<g
   id="Layer_1_20_">
		
			<linearGradient
   id="SVGID_2_"
   gradientUnits="userSpaceOnUse"
   x1="16.5835"
   y1="-16338.356"
   x2="35.4585"
   y2="-16338.356"
   gradientTransform="matrix(5.298014e-5,-1,1,-0.001,16340.568,-1.167)">
			<stop
   offset="0"
   style="stop-color:#FFFFFF"
   id="stop67" />
			<stop
   offset="1"
   style="stop-color:#000000"
   id="stop69" />
		</linearGradient>
		<path
   style="clip-rule:evenodd;fill:url(#linearGradient938);fill-rule:evenodd"
   d="M 2.05,-0.5 4.3,0 4.55,-6.4 c 0.1,-2.067 0.05,-4.283 -0.15,-6.65 -0.233,-3.1 -0.683,-5.633 -1.35,-7.6 -0.667,-1.967 -1.466,-3.45 -2.4,-4.45 -1.033,-1.066 -1.1,-0.75 -0.2,0.95 1.233,2.4 1.85,5.15 1.85,8.25 z"
   id="path72"
   inkscape:connector-curvature="0" />
	</g>
</symbol>
<symbol
   id="flash0.ai_x5F_2_x2F_Layer_36_copy_x2F__x3C_Path_x3E__x5F_7"
   viewBox="0 -29.688 7.525 29.688"
   transform="translate(-9.1899144,207.4754)">
	<g
   id="Layer_1_19_">
		<linearGradient
   id="SVGID_3_"
   gradientUnits="userSpaceOnUse"
   x1="-2.0127001"
   y1="-14.8442"
   x2="4.6122999"
   y2="-14.8442">
			<stop
   offset="0"
   style="stop-color:#FFFFFF"
   id="stop76" />
			<stop
   offset="1"
   style="stop-color:#000000"
   id="stop78" />
		</linearGradient>
		<path
   style="clip-rule:evenodd;fill:url(#linearGradient940);fill-rule:evenodd"
   d="m 0.1,0 4.4,-1.5 c 1.733,-10.667 2.733,-18.583 3,-23.75 0.133,-3.233 -0.267,-4.7 -1.2,-4.4 l -1.45,1.4 -1,1.5 c -0.633,0.967 -1.283,2.433 -1.95,4.4 -0.8,2.5 -1.316,5.033 -1.55,7.6 -0.2,2.5 -0.317,5.583 -0.35,9.25 0,3.067 0.033,4.9 0.1,5.5 z"
   id="path81"
   inkscape:connector-curvature="0" />
	</g>
</symbol>
<symbol
   id="flash0.ai_x5F_2_x2F_Layer_36_copy_x2F__x3C_Path_x3E__x5F_8"
   viewBox="-0.012 -1.85 3.317 1.856"
   transform="translate(-9.1899144,207.4754)">
	<g
   id="Layer_1_18_">
		<path
   style="clip-rule:evenodd;fill:#8c471e;fill-rule:evenodd"
   d="M 2.45,-0.2 C 2.983,-0.2 3.266,-0.367 3.3,-0.7 3.334,-1.033 3.2,-1.3 2.9,-1.5 2.633,-1.7 2.35,-1.817 2.05,-1.85 c -0.333,0 -0.85,0.067 -1.55,0.2 -0.533,0.133 -0.65,0.383 -0.35,0.75 0.4,0.433 0.583,0.683 0.55,0.75 -0.067,0.167 0.1,0.2 0.5,0.1 0.667,-0.1 1.083,-0.15 1.25,-0.15 z"
   id="path85"
   inkscape:connector-curvature="0" />
	</g>
</symbol>
<symbol
   id="flash0.ai_x5F_2_x2F_Layer_36_copy_x2F__x3C_Path_x3E__x5F_9"
   viewBox="0.034 -0.86 1.728 0.864"
   transform="translate(-9.1899144,207.4754)">
	<g
   id="Layer_1_17_">
		<path
   style="clip-rule:evenodd;fill:#8c471e;fill-rule:evenodd"
   d="M 1.25,-0.5 C 0.517,-0.9 0.117,-0.967 0.05,-0.7 -0.05,-0.333 0.333,-0.1 1.2,0 1.933,0.033 1.95,-0.133 1.25,-0.5 Z"
   id="path89"
   inkscape:connector-curvature="0" />
	</g>
</symbol>
<g
   id="g181"
   transform="matrix(5.9790593,0,0,5.9790593,15.396633,-34.131461)">
	
		<use
   xlink:href="#flash0.ai_x5F_2_x2F_Layer_36_copy_x2F__x3C_Path_x3E__x5F_33"
   width="20.278"
   height="4.9000001"
   x="0.011"
   y="-4.9000001"
   transform="matrix(0.75,0,0,-0.75,16.792336,200.45615)"
   style="overflow:visible;opacity:0.37890003;enable-background:new"
   id="use93" />
	
		<use
   xlink:href="#flash0.ai_x5F_2_x2F_Layer_36_copy_x2F__x3C_Path_x3E__x5F_32"
   width="20.049999"
   height="4.3610001"
   y="-4.3610001"
   transform="matrix(0.75,0,0,-0.75,16.842636,200.45615)"
   style="overflow:visible;opacity:0.48830004;enable-background:new"
   id="use95"
   x="0" />
	
		<use
   xlink:href="#flash0.ai_x5F_2_x2F_Layer_36_copy_x2F__x3C_Path_x3E__x5F_31"
   width="20.1"
   height="8.5"
   y="-8.5"
   transform="matrix(0.75,0,0,-0.75,16.842636,196.80675)"
   style="overflow:visible;opacity:0.37890003;enable-background:new"
   id="use97"
   x="0" />
	
		<use
   xlink:href="#flash0.ai_x5F_2_x2F_Layer_36_copy_x2F__x3C_Path_x3E__x5F_30"
   width="20.1"
   height="7.6999998"
   y="-7.6999998"
   transform="matrix(0.75,0,0,-0.75,16.842636,197.40635)"
   style="overflow:visible;opacity:0.23049999;enable-background:new"
   id="use99"
   x="0" />
	
		<use
   xlink:href="#flash0.ai_x5F_2_x2F_Layer_36_copy_x2F__x3C_Path_x3E__x5F_29"
   width="22.742001"
   height="41.150002"
   x="-0.013"
   y="-41.150002"
   transform="matrix(0.75,0,0,-0.75,16.092636,169.20665)"
   style="overflow:visible;opacity:0.28130002;enable-background:new"
   id="use101" />
	
		<radialGradient
   id="SVGID_4_"
   cx="29.7871"
   cy="-8.4102001"
   r="22.7022"
   gradientTransform="matrix(-0.0103,0.7499,0.3911,0.0054,18.7969,5.8319)"
   gradientUnits="userSpaceOnUse">
		<stop
   offset="0"
   style="stop-color:#FF6B2B"
   id="stop103" />
		<stop
   offset="1"
   style="stop-color:#734216"
   id="stop105" />
	</radialGradient>
	<path
   style="clip-rule:evenodd;fill:url(#SVGID_4_);fill-rule:evenodd"
   d="m 17.75,20.625 c 2.2,0 4.088,-0.2 5.663,-0.6 1.294,-0.35 2.057,-0.756 2.287,-1.219 0.14,1.792 0.151,3.785 0.037,5.981 -0.274,4.8 -1.187,8.412 -2.737,10.837 -1.3,2.025 -2.162,3.976 -2.587,5.851 -0.2,0.95 -0.275,1.688 -0.226,2.212 l -0.3,0.375 c -0.399,0.275 -1.101,0.4 -2.1,0.375 v 0.038 h -0.075 v -0.038 c -1,0.025 -1.7,-0.1 -2.101,-0.375 l -0.3,-0.375 c 0.05,-0.524 -0.025,-1.262 -0.225,-2.212 -0.4,-1.875 -1.25,-3.825 -2.55,-5.851 -2.25,-3.5 -3.188,-9 -2.813,-16.5 0.227,1.001 2.902,1.501 8.027,1.501 z"
   id="path108"
   inkscape:connector-curvature="0" />
	
		<use
   xlink:href="#flash0.ai_x5F_2_x2F_Layer_36_copy_x2F__x3C_Path_x3E__x5F_27"
   width="22.4"
   height="5.8000002"
   y="-5.8000002"
   transform="matrix(0.75,0,0,-0.75,16.142436,167.25645)"
   style="overflow:visible;opacity:0.33980001;enable-background:new"
   id="use110"
   x="0" />
	<path
   style="clip-rule:evenodd;fill:#ffd396;fill-rule:evenodd"
   d="m 25.288,18 c 0.499,0.275 0.487,0.75 -0.038,1.425 -0.574,0.75 -1.575,1.413 -3,1.988 -1.25,0.5 -2.975,0.762 -5.175,0.787 -2.175,0.05 -3.925,-0.15 -5.25,-0.6 -0.925,-0.301 -1.55,-0.726 -1.875,-1.275 -0.175,-0.3 -0.263,-0.7 -0.263,-1.2 0,-0.225 0.263,-0.375 0.788,-0.45 0.774,-0.1 1.237,-0.188 1.387,-0.262 2.025,-0.175 4.113,-0.338 6.263,-0.488 4.25,-0.25 6.638,-0.225 7.163,0.075 z"
   id="path112"
   inkscape:connector-curvature="0" />
	<path
   style="clip-rule:evenodd;fill:#e3e3e3;fill-rule:evenodd"
   d="m 12.313,43.838 c 0,0.4 0.063,0.725 0.188,0.975 0.125,0.25 0.375,0.563 0.75,0.938 0.475,0.45 0.738,0.738 0.788,0.862 0.05,0.2 -0.288,0.2 -1.013,0 -0.7,-0.2 -1.3,-0.475 -1.8,-0.824 C 10.775,45.513 10.5,45.25 10.4,45 c -0.1,-0.199 0.2,-0.512 0.899,-0.938 0.677,-0.424 1.014,-0.499 1.014,-0.224 z"
   id="path114"
   inkscape:connector-curvature="0" />
	<path
   style="clip-rule:evenodd;fill:#e3e3e3;fill-rule:evenodd"
   d="m 20.862,46.5 c 1.025,-0.1 1.375,-0.012 1.051,0.263 -0.301,0.274 -0.775,0.45 -1.426,0.525 -0.524,0.074 -0.662,-0.025 -0.412,-0.301 0.225,-0.299 0.488,-0.462 0.787,-0.487 z"
   id="path116"
   inkscape:connector-curvature="0" />
	
		<radialGradient
   id="SVGID_5_"
   cx="1.98"
   cy="17.9937"
   r="18.702499"
   gradientTransform="matrix(0.7494,-0.0301,-0.0301,-0.7494,10.2827,32.6688)"
   gradientUnits="userSpaceOnUse">
		<stop
   offset="0"
   style="stop-color:#FF6B2B"
   id="stop118" />
		<stop
   offset="1"
   style="stop-color:#734216"
   id="stop120" />
	</radialGradient>
	<path
   style="clip-rule:evenodd;fill:url(#SVGID_5_);fill-rule:evenodd"
   d="m 24.463,16.987 c 0.425,0.075 0.737,0.288 0.938,0.638 0.175,0.275 0.25,0.55 0.225,0.825 -0.025,0.3 -0.175,0.575 -0.45,0.825 -0.425,0.35 -1.187,0.8 -2.287,1.35 -1.125,0.55 -2.138,0.888 -3.037,1.013 -0.625,0.1 -1.825,0.175 -3.601,0.225 -1.375,0.05 -2.5,-0.012 -3.375,-0.188 -0.375,-0.074 -0.975,-0.275 -1.8,-0.6 -0.675,-0.275 -1.013,-0.8 -1.013,-1.575 0,-0.2 0.112,-0.437 0.338,-0.712 0.175,-0.201 0.237,-0.375 0.188,-0.525 -0.3,-0.6 -0.45,-0.913 -0.45,-0.938 0,-0.075 0.112,-0.188 0.338,-0.338 0.3,-0.174 0.5,-0.325 0.6,-0.449 0.025,-0.025 0.063,-0.1 0.112,-0.226 0.05,-0.1 0.125,-0.149 0.226,-0.149 0.95,0 1.625,0.05 2.024,0.149 0.275,0.075 0.487,0.2 0.638,0.375 0.15,0.226 0.275,0.363 0.375,0.413 0.475,0.225 0.813,0.225 1.013,0 l 0.487,-0.9 c 0.15,-0.2 0.475,-0.425 0.975,-0.675 0.45,-0.2 0.838,-0.35 1.163,-0.45 0.2,-0.05 0.425,-0.112 0.675,-0.188 0.2,-0.025 0.362,0.025 0.487,0.15 0.1,0.1 0.351,0.312 0.75,0.637 0.426,0.351 0.726,0.65 0.9,0.9 0.149,0.225 0.675,0.35 1.575,0.375 1.198,10e-4 1.861,0.014 1.986,0.038 z"
   id="path123"
   inkscape:connector-curvature="0" />
	
		<use
   xlink:href="#flash0.ai_x5F_2_x2F_Layer_36_copy_x2F__x3C_Path_x3E__x5F_22"
   width="2.776"
   height="3.447"
   x="0.039000001"
   y="-3.424"
   transform="matrix(0.75,0,0,-0.75,17.042336,171.75645)"
   style="overflow:visible;opacity:0.33980001;enable-background:new"
   id="use125" />
	<path
   style="clip-rule:evenodd;fill:#e07b41;fill-rule:evenodd"
   d="m 16.288,15.825 c 0.6,-0.025 1.025,0.137 1.274,0.487 0.226,0.35 0.212,0.638 -0.037,0.862 -0.45,0.4 -0.862,0.525 -1.237,0.375 -0.25,-0.05 -0.413,-0.087 -0.488,-0.112 -0.125,-0.05 -0.174,-0.137 -0.149,-0.263 0.124,-0.874 0.336,-1.324 0.637,-1.349 z"
   id="path127"
   inkscape:connector-curvature="0" />
	<path
   style="clip-rule:evenodd;fill:#e07b41;fill-rule:evenodd"
   d="m 21.2,17.851 c 0.625,0.024 1.013,0.2 1.162,0.524 0.126,0.3 0.075,0.55 -0.149,0.75 -0.175,0.15 -0.325,0.212 -0.45,0.188 -0.1,0 -0.263,-0.062 -0.487,-0.188 l -1.2,-0.45 c -0.3,-0.05 -0.362,-0.188 -0.188,-0.412 0.275,-0.325 0.713,-0.463 1.312,-0.412 z"
   id="path129"
   inkscape:connector-curvature="0" />
	<path
   style="clip-rule:evenodd;fill:#e07b41;fill-rule:evenodd"
   d="m 16.476,20.737 -0.825,-0.75 c -0.05,-0.149 -0.05,-0.312 0,-0.487 0.025,-0.149 0.1,-0.237 0.225,-0.263 0.125,-0.024 0.388,-0.024 0.788,0 0.2,0.025 0.337,0.113 0.412,0.263 l 0.3,0.487 c 0.226,0.301 0.438,0.475 0.638,0.525 -0.15,0.125 -0.375,0.225 -0.675,0.3 -0.275,0.05 -0.45,0.075 -0.525,0.075 -0.151,0.026 -0.264,-0.024 -0.338,-0.15 z"
   id="path131"
   inkscape:connector-curvature="0" />
	<path
   style="clip-rule:evenodd;fill:#e07b41;fill-rule:evenodd"
   d="m 13.513,19.913 c 0.325,0.149 0.475,0.325 0.45,0.524 0,0.175 -0.112,0.325 -0.338,0.45 -0.275,0.15 -0.5,0.163 -0.675,0.037 -0.275,-0.174 -0.375,-0.337 -0.3,-0.487 0.05,-0.175 0.149,-0.325 0.3,-0.45 0.2,-0.149 0.388,-0.174 0.563,-0.074 z"
   id="path133"
   inkscape:connector-curvature="0" />
	
		<use
   xlink:href="#flash0.ai_x5F_2_x2F_Layer_36_copy_x2F__x3C_Path_x3E__x5F_17"
   width="2.25"
   height="1.75"
   y="-1.75"
   transform="matrix(0.75,0,0,-0.75,24.842636,175.10655)"
   style="overflow:visible;opacity:0.58980001;enable-background:new"
   id="use135"
   x="0" />
	
		<use
   xlink:href="#flash0.ai_x5F_2_x2F_Layer_36_copy_x2F__x3C_Path_x3E__x5F_16"
   width="2.204"
   height="1.569"
   y="-1.556"
   transform="matrix(0.75,0,0,-0.75,29.142436,173.90635)"
   style="overflow:visible;opacity:0.58980001;enable-background:new"
   id="use137"
   x="0" />
	
		<use
   xlink:href="#flash0.ai_x5F_2_x2F_Layer_36_copy_x2F__x3C_Path_x3E__x5F_15"
   width="3.2550001"
   height="3.073"
   x="0.067000002"
   y="-3.0669999"
   transform="matrix(0.75,0,0,-0.75,25.392436,170.70665)"
   style="overflow:visible;opacity:0.58980001;enable-background:new"
   id="use139" />
	
		<use
   xlink:href="#flash0.ai_x5F_2_x2F_Layer_36_copy_x2F__x3C_Path_x3E__x5F_14"
   width="2.0699999"
   height="0.96399999"
   x="-0.0080000004"
   y="-0.96399999"
   transform="matrix(0.75,0,0,-0.75,24.092636,173.70665)"
   style="overflow:visible;opacity:0.58980001;enable-background:new"
   id="use141" />
	
		<use
   xlink:href="#flash0.ai_x5F_2_x2F_Layer_36_copy_x2F__x3C_Path_x3E__x5F_13"
   width="1.756"
   height="0.69800001"
   x="0.021"
   y="-0.69099998"
   transform="matrix(0.75,0,0,-0.75,22.492536,174.00645)"
   style="overflow:visible;opacity:0.58980001;enable-background:new"
   id="use143" />
	
		<use
   xlink:href="#flash0.ai_x5F_2_x2F_Layer_36_copy_x2F__x3C_Path_x3E__x5F_12"
   width="3.0220001"
   height="0.84399998"
   x="0"
   y="-0.84399998"
   transform="matrix(0.75,0,0,-0.75,21.242536,176.70665)"
   style="overflow:visible;opacity:0.58980001;enable-background:new"
   id="use145" />
	
		<use
   xlink:href="#flash0.ai_x5F_2_x2F_Layer_36_copy_x2F__x3C_Path_x3E__x5F_11"
   width="1.839"
   height="0.773"
   x="0.011"
   y="-0.76800001"
   transform="matrix(0.75,0,0,-0.75,25.692236,176.40635)"
   style="overflow:visible;opacity:0.58980001;enable-background:new"
   id="use147" />
	
		<use
   xlink:href="#flash0.ai_x5F_2_x2F_Layer_36_copy_x2F__x3C_Path_x3E__x5F_10"
   width="2.964"
   height="1.1950001"
   x="0.0099999998"
   y="-1.1900001"
   transform="matrix(0.75,0,0,-0.75,19.092636,174.55675)"
   style="overflow:visible;opacity:0.58980001;enable-background:new"
   id="use149" />
	
		<use
   xlink:href="#flash0.ai_x5F_2_x2F_Layer_36_copy_x2F__x3C_Path_x3E__x5F_9"
   width="1.728"
   height="0.86400002"
   x="0.034000002"
   y="-0.86000001"
   transform="matrix(0.75,0,0,-0.75,17.242536,175.20665)"
   style="overflow:visible;opacity:0.58980001;enable-background:new"
   id="use151" />
	
		<use
   xlink:href="#flash0.ai_x5F_2_x2F_Layer_36_copy_x2F__x3C_Path_x3E__x5F_8"
   width="3.3169999"
   height="1.8559999"
   x="-0.012"
   y="-1.85"
   transform="matrix(0.75,0,0,-0.75,29.742036,173.10655)"
   style="overflow:visible;opacity:0.58980001;enable-background:new"
   id="use153" />
	
		<use
   xlink:href="#flash0.ai_x5F_2_x2F_Layer_36_copy_x2F__x3C_Path_x3E__x5F_7"
   width="7.5250001"
   height="29.688"
   y="-29.688"
   transform="matrix(0.75,0,0,-0.75,17.642436,170.15635)"
   style="overflow:visible;opacity:0.66019999;enable-background:new"
   id="use155"
   x="0" />
	
		<use
   xlink:href="#flash0.ai_x5F_2_x2F_Layer_36_copy_x2F__x3C_Path_x3E__x5F_6"
   width="4.7779999"
   height="25.716999"
   x="-0.178"
   y="-25.716999"
   transform="matrix(0.75,0,0,-0.75,27.992036,170.55675)"
   style="overflow:visible;opacity:0.44140003;enable-background:new"
   id="use157" />
	<path
   style="clip-rule:evenodd;fill:#c9c9c9;fill-rule:evenodd"
   d="m 17.675,11.625 c 2.325,0 4.313,0.212 5.963,0.638 1.625,0.425 2.438,0.938 2.438,1.537 0,0.601 -0.813,1.113 -2.438,1.538 -1.65,0.425 -3.638,0.638 -5.963,0.638 -2.3,0 -4.274,-0.213 -5.925,-0.638 C 10.101,14.913 9.275,14.4 9.275,13.8 c 0,-0.6 0.825,-1.112 2.475,-1.537 1.65,-0.426 3.625,-0.638 5.925,-0.638 z m 5.475,0.9 c -1.5,-0.325 -3.3,-0.487 -5.4,-0.487 -2.1,0 -3.887,0.162 -5.362,0.487 -1.475,0.325 -2.213,0.712 -2.213,1.162 0,0.475 0.738,0.875 2.213,1.2 1.475,0.325 3.263,0.487 5.362,0.487 2.101,0 3.9,-0.163 5.4,-0.487 1.475,-0.325 2.212,-0.725 2.212,-1.2 0,-0.45 -0.737,-0.837 -2.212,-1.162 z"
   id="path159"
   inkscape:connector-curvature="0" />
	<path
   style="clip-rule:evenodd;fill:#c9c9c9;fill-rule:evenodd"
   d="m 25.55,13.237 0.413,0.038 0.037,0.15 c 0.25,2.176 0.275,5.238 0.075,9.188 -0.274,6.275 -1.226,10.626 -2.85,13.051 -1.3,1.975 -2.163,3.899 -2.588,5.774 -0.225,0.95 -0.313,1.688 -0.263,2.213 0,0.65 -0.862,0.975 -2.587,0.975 h -0.075 v 0.038 l -0.15,-0.038 c -1.05,0 -1.787,-0.137 -2.212,-0.412 -0.25,-0.15 -0.375,-0.325 -0.375,-0.525 0.05,-0.55 -0.038,-1.3 -0.263,-2.25 -0.425,-1.875 -1.288,-3.8 -2.588,-5.774 C 10.625,33.388 9.7,29.4 9.351,23.7 9.15,20.45 9.138,17.137 9.313,13.762 l 0.375,-0.037 c 0.125,0.475 0.9,0.899 2.325,1.274 1.575,0.4 3.462,0.601 5.662,0.601 2.25,0 4.163,-0.213 5.738,-0.638 1.5,-0.4 2.25,-0.85 2.25,-1.351 z m -7.875,2.739 C 14.8,15.976 12.525,15.651 10.851,15 10.301,14.8 9.9,14.575 9.651,14.325 9.475,17.8 9.513,21.163 9.763,24.413 c 0.375,5.225 1.262,8.912 2.662,11.063 1.351,2.024 2.238,3.987 2.663,5.887 0.225,0.95 0.313,1.726 0.263,2.325 0,0.125 0.149,0.25 0.449,0.375 0.4,0.15 0.988,0.226 1.763,0.226 h 0.226 c 0.774,0 1.362,-0.075 1.762,-0.226 0.301,-0.125 0.463,-0.25 0.488,-0.375 -0.126,-0.35 -0.051,-1.125 0.225,-2.325 0.425,-1.875 1.313,-3.837 2.662,-5.887 1.4,-2.126 2.288,-5.838 2.663,-11.138 0.225,-3.15 0.263,-6.5 0.112,-10.05 -0.525,0.524 -1.575,0.938 -3.15,1.237 -1.476,0.3 -3.101,0.451 -4.876,0.451 z"
   id="path161"
   inkscape:connector-curvature="0" />
	<path
   style="clip-rule:evenodd;fill:#8a461e;fill-rule:evenodd"
   d="m 21.763,19.5 c 0.6,-0.075 0.813,0.05 0.638,0.375 -0.2,0.325 -0.55,0.525 -1.05,0.601 -0.351,0.05 -0.513,0.012 -0.488,-0.113 0.101,-0.325 0.138,-0.549 0.113,-0.675 C 20.925,19.413 21,19.3 21.2,19.351 c 0.1,0.024 0.287,0.074 0.563,0.149 z"
   id="path163"
   inkscape:connector-curvature="0" />
	<path
   style="clip-rule:evenodd;fill:#bdaf93;fill-rule:evenodd"
   d="m 20.825,15.788 c 0.5,-0.025 1.112,-0.113 1.838,-0.263 -0.375,1.4 -0.825,2.95 -1.351,4.649 -0.25,0.325 -0.612,0.438 -1.087,0.338 -0.726,-0.15 -0.976,-0.525 -0.75,-1.125 0.45,-0.749 0.9,-1.949 1.35,-3.599 z"
   id="path165"
   inkscape:connector-curvature="0" />
	<path
   style="clip-rule:evenodd;fill:#edcaa1;fill-rule:evenodd"
   d="m 28.138,7.388 c 0.225,0.65 0.338,1.075 0.338,1.275 -0.025,0.375 -0.288,0.625 -0.788,0.75 -0.475,0.1 -1.087,0.112 -1.837,0.037 L 24.838,9.3 c -0.95,2.125 -1.612,3.9 -1.987,5.325 l -0.075,0.226 -1.8,0.262 0.3,-1.199 c 0.5,-2.2 0.813,-3.838 0.938,-4.913 -0.575,0.05 -1,-0.188 -1.275,-0.712 -0.425,-0.825 -0.287,-1.55 0.413,-2.176 0.575,-0.5 1.199,-0.512 1.875,-0.037 l 0.6,0.412 L 26.15,6 c 1,-0.149 1.663,0.313 1.988,1.388 z"
   id="path167"
   inkscape:connector-curvature="0" />
	<g
   id="g173">
		<path
   style="clip-rule:evenodd;fill:#ccae8b;fill-rule:evenodd"
   d="m 27.688,9.413 c -0.475,0.1 -1.087,0.112 -1.837,0.037 L 24.838,9.3 c -0.95,2.125 -1.612,3.9 -1.987,5.325 L 22.776,14.851 21.726,15 c 0.85,-1.425 1.45,-2.762 1.8,-4.013 0.275,-1.075 0.65,-1.775 1.125,-2.1 1.25,0.4 2.037,0.338 2.362,-0.188 0.45,-0.75 0.3,-1.438 -0.45,-2.063 C 26.463,6.536 26.1,6.461 25.476,6.411 24.85,6.386 24.513,6.361 24.463,6.336 25.138,6.163 25.7,6.05 26.15,6 c 1,-0.149 1.662,0.313 1.987,1.388 0.225,0.65 0.338,1.075 0.338,1.275 -0.025,0.375 -0.287,0.625 -0.787,0.75 z"
   id="path169"
   inkscape:connector-curvature="0" />
		<path
   style="clip-rule:evenodd;fill:#edcaa1;fill-rule:evenodd"
   d="M 23.075,7.125 C 23,6.7 22.775,6.388 22.4,6.188 l -0.563,-0.3 0.037,-0.112 c 0.375,-0.15 0.825,-0.05 1.351,0.3 l 0.6,0.412 -0.487,0.375 z"
   id="path171"
   inkscape:connector-curvature="0" />
	</g>
	<path
   style="clip-rule:evenodd;fill:#f5ebdf;fill-rule:evenodd"
   d="M 22.025,6.45 C 23,7.05 23.012,7.488 22.062,7.763 21.812,7.813 21.587,7.788 21.387,7.688 21.187,7.563 21.1,7.401 21.124,7.201 21.175,6.951 21.287,6.739 21.462,6.563 21.638,6.363 21.825,6.325 22.025,6.45 Z"
   id="path175"
   inkscape:connector-curvature="0" />
	<path
   style="clip-rule:evenodd;fill:#f5ebdf;fill-rule:evenodd"
   d="m 26.263,7.125 c 0.225,0.175 0.2,0.363 -0.075,0.563 -0.225,0.175 -0.475,0.263 -0.75,0.263 C 25.213,7.95 25,7.863 24.8,7.688 24.625,7.488 24.588,7.301 24.688,7.125 c 0.125,-0.2 0.35,-0.3 0.675,-0.3 0.325,0 0.625,0.1 0.9,0.3 z"
   id="path177"
   inkscape:connector-curvature="0" />
	<path
   style="clip-rule:evenodd;fill:#f5ebdf;fill-rule:evenodd"
   d="m 23.15,9.112 c 0.175,0.15 0.225,0.351 0.149,0.601 C 23.25,9.862 23.15,10.1 23,10.425 l -1.05,2.832 C 22.171,12.563 22.321,11.682 22.4,10.612 22.45,9.762 22.562,9.25 22.737,9.075 22.838,9 22.975,9.013 23.15,9.112 Z"
   id="path179"
   inkscape:connector-curvature="0" />
</g>
</svg>