<?xml version="1.0" encoding="UTF-8" standalone="no"?>
<!-- Generator: Adobe Illustrator 15.1.0, SVG Export Plug-In . SVG Version: 6.00 Build 0)  -->

<svg
   xmlns:dc="http://purl.org/dc/elements/1.1/"
   xmlns:cc="http://creativecommons.org/ns#"
   xmlns:rdf="http://www.w3.org/1999/02/22-rdf-syntax-ns#"
   xmlns:svg="http://www.w3.org/2000/svg"
   xmlns="http://www.w3.org/2000/svg"
   xmlns:xlink="http://www.w3.org/1999/xlink"
   xmlns:sodipodi="http://sodipodi.sourceforge.net/DTD/sodipodi-0.dtd"
   xmlns:inkscape="http://www.inkscape.org/namespaces/inkscape"
   version="1.1"
   id="flash0.ai"
   x="0px"
   y="0px"
   width="256"
   height="256"
   viewBox="0 0 255.99998 255.99999"
   xml:space="preserve"
   sodipodi:docname="veggie_juice.svg"
   inkscape:version="0.92.4 (5da689c313, 2019-01-14)"
   inkscape:export-xdpi="10.5"
   inkscape:export-ydpi="10.5"><title
   id="title953">Veggie Juice</title><metadata
   id="metadata146"><rdf:RDF><cc:Work
       rdf:about=""><dc:format>image/svg+xml</dc:format><dc:type
         rdf:resource="http://purl.org/dc/dcmitype/StillImage" /><dc:title>Veggie Juice</dc:title><cc:license
         rdf:resource="http://creativecommons.org/publicdomain/zero/1.0/" /><dc:creator><cc:Agent><dc:title>Glitch</dc:title></cc:Agent></dc:creator><dc:source>https://opengameart.org/node/20149</dc:source></cc:Work><cc:License
       rdf:about="http://creativecommons.org/publicdomain/zero/1.0/"><cc:permits
         rdf:resource="http://creativecommons.org/ns#Reproduction" /><cc:permits
         rdf:resource="http://creativecommons.org/ns#Distribution" /><cc:permits
         rdf:resource="http://creativecommons.org/ns#DerivativeWorks" /></cc:License></rdf:RDF></metadata><defs
   id="defs144">
	
		
	
		
	
		
	
		
<linearGradient
   inkscape:collect="always"
   xlink:href="#SVGID_1_"
   id="linearGradient1084"
   gradientUnits="userSpaceOnUse"
   x1="1.3252"
   y1="-2.3999"
   x2="17.075199"
   y2="-2.3999" /><linearGradient
   inkscape:collect="always"
   xlink:href="#SVGID_2_"
   id="linearGradient1086"
   gradientUnits="userSpaceOnUse"
   x1="0"
   y1="-20.375"
   x2="20.9"
   y2="-20.375" /><linearGradient
   inkscape:collect="always"
   xlink:href="#SVGID_3_"
   id="linearGradient1088"
   gradientUnits="userSpaceOnUse"
   x1="0"
   y1="-20.375"
   x2="20.9"
   y2="-20.375" /><radialGradient
   inkscape:collect="always"
   xlink:href="#SVGID_4_"
   id="radialGradient1090"
   gradientUnits="userSpaceOnUse"
   gradientTransform="matrix(0.3537,-1.1992,-1.1992,-0.3537,-15724.453,-7204.02)"
   cx="-1946.2832"
   cy="-13694.086"
   r="15.2871" /><linearGradient
   inkscape:collect="always"
   xlink:href="#SVGID_5_"
   id="linearGradient1092"
   gradientUnits="userSpaceOnUse"
   gradientTransform="matrix(-1.21,-0.3149,0.3149,-1.21,22683.693,-17511.107)"
   x1="14013.69"
   y1="-18108.672"
   x2="14032.549"
   y2="-18108.672" /><linearGradient
   inkscape:collect="always"
   xlink:href="#SVGID_6_"
   id="linearGradient1094"
   gradientUnits="userSpaceOnUse"
   gradientTransform="matrix(0.0886,-1.2471,1.2471,0.0886,19678.801,711.1006)"
   x1="-540.89447"
   y1="-15724.727"
   x2="-515.12982"
   y2="-15724.727" /><linearGradient
   inkscape:collect="always"
   xlink:href="#SVGID_7_"
   id="linearGradient1096"
   gradientUnits="userSpaceOnUse"
   gradientTransform="matrix(0.088,-1.2472,1.2472,0.088,19683.4,707.1143)"
   x1="-539.33197"
   y1="-15740.412"
   x2="-518.02917"
   y2="-15740.412" /></defs><sodipodi:namedview
   pagecolor="#ffffff"
   bordercolor="#666666"
   borderopacity="1"
   objecttolerance="10"
   gridtolerance="10"
   guidetolerance="10"
   inkscape:pageopacity="0"
   inkscape:pageshadow="2"
   inkscape:window-width="1920"
   inkscape:window-height="1025"
   id="namedview142"
   showgrid="false"
   inkscape:zoom="1.0845588"
   inkscape:cx="74.327563"
   inkscape:cy="17.545048"
   inkscape:window-x="-8"
   inkscape:window-y="-8"
   inkscape:window-maximized="1"
   inkscape:current-layer="flash0.ai"
   fit-margin-top="0"
   fit-margin-left="0"
   fit-margin-right="0"
   fit-margin-bottom="0" />
<symbol
   id="flash0.ai_x5F_0_x2F_Layer_4_copy_x2F__x3C_Path_x3E__x5F_10"
   viewBox="0 -1.05 0.75 1.05"
   transform="translate(44.839173,90.794475)">
	<g
   id="Layer_1_9_">
		<path
   style="clip-rule:evenodd;fill:#db6f40;fill-rule:evenodd"
   d="m 0.75,-0.55 c 0,-0.333 -0.133,-0.5 -0.4,-0.5 C 0.117,-1.05 0,-0.883 0,-0.55 0,-0.183 0.117,0 0.35,0 c 0.267,0 0.4,-0.183 0.4,-0.55 z"
   id="path2"
   inkscape:connector-curvature="0" />
	</g>
</symbol>
<symbol
   id="flash0.ai_x5F_0_x2F_Layer_4_copy_x2F__x3C_Path_x3E__x5F_11"
   viewBox="0 -1.8 1.35 1.8"
   transform="translate(44.839173,90.794475)">
	<g
   id="Layer_1_8_">
		<path
   style="clip-rule:evenodd;fill:#db6f40;fill-rule:evenodd"
   d="M 1.35,-0.9 C 1.35,-1.5 1.133,-1.8 0.7,-1.8 0.233,-1.8 0,-1.5 0,-0.9 0,-0.3 0.233,0 0.7,0 1.133,0 1.35,-0.3 1.35,-0.9 Z"
   id="path6"
   inkscape:connector-curvature="0" />
	</g>
</symbol>
<symbol
   id="flash0.ai_x5F_0_x2F_Layer_4_copy_x2F__x3C_Path_x3E__x5F_12"
   viewBox="0 -1.1 0.9 1.1"
   transform="translate(44.839173,90.794475)">
	<g
   id="Layer_1_7_">
		<path
   style="clip-rule:evenodd;fill:#db6f40;fill-rule:evenodd"
   d="M 0.9,-0.55 C 0.9,-0.917 0.75,-1.1 0.45,-1.1 0.15,-1.1 0,-0.917 0,-0.55 0,-0.183 0.15,0 0.45,0 0.75,0 0.9,-0.183 0.9,-0.55 Z"
   id="path10"
   inkscape:connector-curvature="0" />
	</g>
</symbol>
<symbol
   id="flash0.ai_x5F_0_x2F_Layer_4_copy_x2F__x3C_Path_x3E__x5F_13"
   viewBox="0 -1.5 1.1 1.5"
   transform="translate(44.839173,90.794475)">
	<g
   id="Layer_1_6_">
		<path
   style="clip-rule:evenodd;fill:#db6f40;fill-rule:evenodd"
   d="M 1.1,-0.75 C 1.1,-1.25 0.916,-1.5 0.55,-1.5 0.184,-1.5 0,-1.25 0,-0.75 0,-0.25 0.183,0 0.55,0 0.917,0 1.1,-0.25 1.1,-0.75 Z"
   id="path14"
   inkscape:connector-curvature="0" />
	</g>
</symbol>
<symbol
   id="flash0.ai_x5F_0_x2F_Layer_4_copy_x2F__x3C_Path_x3E__x5F_14"
   viewBox="0 -1.8 1.6 1.8"
   transform="translate(44.839173,90.794475)">
	<g
   id="Layer_1_5_">
		<path
   style="clip-rule:evenodd;fill:#db6f40;fill-rule:evenodd"
   d="M 1.6,-0.9 C 1.6,-1.5 1.333,-1.8 0.8,-1.8 0.267,-1.8 0,-1.5 0,-0.9 0,-0.3 0.267,0 0.8,0 1.333,0 1.6,-0.3 1.6,-0.9 Z"
   id="path18"
   inkscape:connector-curvature="0" />
	</g>
</symbol>
<symbol
   id="flash0.ai_x5F_0_x2F_Layer_4_copy_x2F__x3C_Path_x3E__x5F_15"
   viewBox="0 -1.2 1.15 1.2"
   transform="translate(44.839173,90.794475)">
	<g
   id="Layer_1_4_">
		<path
   style="clip-rule:evenodd;fill:#db6f40;fill-rule:evenodd"
   d="M 1.15,-0.6 C 1.15,-1 0.95,-1.2 0.55,-1.2 0.183,-1.2 0,-1 0,-0.6 0,-0.2 0.183,0 0.55,0 c 0.4,0 0.6,-0.2 0.6,-0.6 z"
   id="path22"
   inkscape:connector-curvature="0" />
	</g>
</symbol>
<symbol
   id="flash0.ai_x5F_0_x2F_Layer_4_copy_x2F__x3C_Path_x3E__x5F_17"
   viewBox="0 -4.8 18.5 4.8"
   transform="translate(44.839173,90.794475)">
	<g
   id="Layer_1_3_">
		<linearGradient
   id="SVGID_1_"
   gradientUnits="userSpaceOnUse"
   x1="1.3252"
   y1="-2.3999"
   x2="17.075199"
   y2="-2.3999">
			<stop
   offset="0"
   style="stop-color:#A9D7F2"
   id="stop26" />
			<stop
   offset="1"
   style="stop-color:#EBFBFF"
   id="stop28" />
		</linearGradient>
		<path
   style="clip-rule:evenodd;fill:url(#linearGradient1084);fill-rule:evenodd"
   d="m 18.5,-2.4 c 0,-0.667 -0.9,-1.233 -2.7,-1.7 C 14,-4.567 11.817,-4.8 9.25,-4.8 6.683,-4.8 4.5,-4.567 2.7,-4.1 0.9,-3.633 0,-3.067 0,-2.4 0,-1.733 0.9,-1.167 2.7,-0.7 4.5,-0.233 6.683,0 9.25,0 11.817,0 14,-0.233 15.8,-0.7 c 1.8,-0.467 2.7,-1.033 2.7,-1.7 z"
   id="path31"
   inkscape:connector-curvature="0" />
	</g>
</symbol>
<symbol
   id="flash0.ai_x5F_0_x2F_Layer_4_copy_x2F__x3C_Path_x3E__x5F_18"
   viewBox="-0.022 -40.75 20.971 40.75"
   transform="translate(44.839173,90.794475)">
	<g
   id="Layer_1_2_">
		<linearGradient
   id="SVGID_2_"
   gradientUnits="userSpaceOnUse"
   x1="0"
   y1="-20.375"
   x2="20.9"
   y2="-20.375">
			<stop
   offset="0"
   style="stop-color:#EBFBFF"
   id="stop35" />
			<stop
   offset="1"
   style="stop-color:#A9D7F2"
   id="stop37" />
		</linearGradient>
		<path
   style="clip-rule:evenodd;fill:url(#linearGradient1086);fill-rule:evenodd"
   d="m 20.3,-0.1 c 0.7,-2 0.833,-5.75 0.4,-11.25 -0.267,-3.233 -1,-7.717 -2.2,-13.45 -1.033,-4.967 -1.517,-8.05 -1.45,-9.25 0.034,-0.733 0.317,-1.784 0.85,-3.15 0.267,-0.667 0.067,-1.267 -0.6,-1.8 -1.233,-0.967 -3.3,-1.533 -6.2,-1.7 v -0.05 H 9.85 v 0.05 c -2.9,0.167 -4.967,0.733 -6.2,1.7 -0.667,0.533 -0.867,1.133 -0.6,1.8 0.534,1.367 0.817,2.417 0.85,3.15 0.067,1.2 -0.417,4.283 -1.45,9.25 -1.2,5.733 -1.934,10.216 -2.2,13.45 -0.467,5.4 -0.333,9.183 0.4,11.35 v -0.05 c 0,-0.733 0.967,-1.35 2.9,-1.85 1.9,-0.533 4.217,-0.8 6.95,-0.8 2.667,0 4.967,0.25 6.9,0.75 1.9,0.533 2.867,1.15 2.9,1.85 z"
   id="path40"
   inkscape:connector-curvature="0" />
	</g>
</symbol>
<symbol
   id="flash0.ai_x5F_0_x2F_Layer_4_copy_x2F__x3C_Path_x3E__x5F_3"
   viewBox="-0.022 -40.75 20.971 40.75"
   transform="translate(44.839173,90.794475)">
	<g
   id="Layer_1_12_">
		<linearGradient
   id="SVGID_3_"
   gradientUnits="userSpaceOnUse"
   x1="0"
   y1="-20.375"
   x2="20.9"
   y2="-20.375">
			<stop
   offset="0"
   style="stop-color:#EBFBFF"
   id="stop44" />
			<stop
   offset="1"
   style="stop-color:#5F7887"
   id="stop46" />
		</linearGradient>
		<path
   style="clip-rule:evenodd;fill:url(#linearGradient1088);fill-rule:evenodd"
   d="m 20.3,-0.1 c 0.7,-2 0.833,-5.75 0.4,-11.25 -0.267,-3.233 -1,-7.717 -2.2,-13.45 -1.033,-4.967 -1.517,-8.05 -1.45,-9.25 0.034,-0.733 0.317,-1.784 0.85,-3.15 0.267,-0.667 0.067,-1.267 -0.6,-1.8 -1.233,-0.967 -3.3,-1.533 -6.2,-1.7 v -0.05 H 9.85 v 0.05 c -2.9,0.167 -4.967,0.733 -6.2,1.7 -0.667,0.533 -0.867,1.133 -0.6,1.8 0.534,1.367 0.817,2.417 0.85,3.15 0.067,1.2 -0.417,4.283 -1.45,9.25 -1.2,5.733 -1.934,10.216 -2.2,13.45 -0.467,5.4 -0.333,9.183 0.4,11.35 v -0.05 c 0,-0.733 0.967,-1.35 2.9,-1.85 1.9,-0.533 4.217,-0.8 6.95,-0.8 2.667,0 4.967,0.25 6.9,0.75 1.9,0.533 2.867,1.15 2.9,1.85 z"
   id="path49"
   inkscape:connector-curvature="0" />
	</g>
</symbol>
<symbol
   id="flash0.ai_x5F_0_x2F_Layer_4_copy_x2F__x3C_Path_x3E__x5F_8"
   viewBox="0 -0.9 0.75 0.9"
   transform="translate(44.839173,90.794475)">
	<g
   id="Layer_1_11_">
		<path
   style="clip-rule:evenodd;fill:#db6f40;fill-rule:evenodd"
   d="M 0.75,-0.45 C 0.75,-0.75 0.633,-0.9 0.4,-0.9 0.133,-0.9 0,-0.75 0,-0.45 0,-0.15 0.133,0 0.4,0 0.633,0 0.75,-0.15 0.75,-0.45 Z"
   id="path53"
   inkscape:connector-curvature="0" />
	</g>
</symbol>
<symbol
   id="flash0.ai_x5F_0_x2F_Layer_4_copy_x2F__x3C_Path_x3E__x5F_9"
   viewBox="0 -0.85 0.6 0.85"
   transform="translate(44.839173,90.794475)">
	<g
   id="Layer_1_10_">
		<path
   style="clip-rule:evenodd;fill:#db6f40;fill-rule:evenodd"
   d="M 0.6,-0.45 C 0.6,-0.717 0.5,-0.85 0.3,-0.85 0.1,-0.85 0,-0.717 0,-0.45 0,-0.15 0.1,0 0.3,0 0.5,0 0.6,-0.15 0.6,-0.45 Z"
   id="path57"
   inkscape:connector-curvature="0" />
	</g>
</symbol>
<symbol
   id="juice"
   viewBox="-0.048 -54.388 26.24 54.387"
   transform="translate(44.839173,90.794475)">
	<g
   id="Layer_1_13_">
		<g
   id="g127">
			
				<use
   xlink:href="#flash0.ai_x5F_0_x2F_Layer_4_copy_x2F__x3C_Path_x3E__x5F_18"
   width="20.971001"
   height="40.75"
   x="-0.022"
   y="-40.75"
   transform="matrix(1.2503,0,0,1.2503,-56.062418,-116.72103)"
   style="overflow:visible;opacity:0.44920002;enable-background:new"
   id="use61" />
			
				<use
   xlink:href="#flash0.ai_x5F_0_x2F_Layer_4_copy_x2F__x3C_Path_x3E__x5F_17"
   width="18.5"
   height="4.8000002"
   y="-4.8000002"
   transform="matrix(1.2503,0,0,1.2503,-54.512618,-113.52082)"
   style="overflow:visible;opacity:0.44920002;enable-background:new"
   id="use63"
   x="0" />
			
				<radialGradient
   id="SVGID_4_"
   cx="-1946.2832"
   cy="-13694.086"
   r="15.2871"
   gradientTransform="matrix(0.3537,-1.1992,-1.1992,-0.3537,-15724.453,-7204.02)"
   gradientUnits="userSpaceOnUse">
				<stop
   offset="0"
   style="stop-color:#CC300C"
   id="stop65" />
				<stop
   offset="1"
   style="stop-color:#A61E00"
   id="stop67" />
			</radialGradient>
			<path
   style="clip-rule:evenodd;fill:url(#radialGradient1090);fill-rule:evenodd"
   d="m 25.707,-16.254 -0.375,-4.063 -3.063,-16.566 c -0.625,-3.5 -0.938,-6.459 -0.938,-8.877 -0.042,-1.875 0.313,-3.354 1.063,-4.438 l -0.188,-0.625 c -0.125,-0.458 -0.313,-0.833 -0.562,-1.125 -0.209,-0.25 -0.667,-0.479 -1.375,-0.688 -1.5,-0.458 -2.563,-0.792 -3.188,-1 -1.334,-0.5 -3.043,-0.667 -5.126,-0.5 -1.75,0.083 -3.313,0.354 -4.688,0.813 -1.5,0.5 -2.709,1.396 -3.626,2.688 -0.125,0.417 0.021,0.833 0.438,1.25 0.292,0.292 0.521,1.042 0.688,2.25 0.167,1.084 0.25,2.105 0.25,3.063 0,0.75 -0.917,5.522 -2.75,14.316 -0.333,1.708 -0.75,4.479 -1.25,8.314 l -0.688,5.189 8.815,0.875 z"
   id="path70"
   inkscape:connector-curvature="0" />
			
				<use
   xlink:href="#flash0.ai_x5F_0_x2F_Layer_4_copy_x2F__x3C_Path_x3E__x5F_15"
   width="1.15"
   height="1.2"
   y="-1.2"
   transform="matrix(1.2503,0,0,1.2503,-47.112218,-138.52083)"
   style="overflow:visible;opacity:0.32809999;enable-background:new"
   id="use72"
   x="0" />
			
				<use
   xlink:href="#flash0.ai_x5F_0_x2F_Layer_4_copy_x2F__x3C_Path_x3E__x5F_14"
   width="1.6"
   height="1.8"
   y="-1.8"
   transform="matrix(1.2503,0,0,1.2503,-37.312418,-142.47103)"
   style="overflow:visible;opacity:0.32809999;enable-background:new"
   id="use74"
   x="0" />
			
				<use
   xlink:href="#flash0.ai_x5F_0_x2F_Layer_4_copy_x2F__x3C_Path_x3E__x5F_13"
   width="1.1"
   height="1.5"
   y="-1.5"
   transform="matrix(1.2503,0,0,1.2503,-52.413018,-140.47103)"
   style="overflow:visible;opacity:0.32809999;enable-background:new"
   id="use76"
   x="0" />
			
				<use
   xlink:href="#flash0.ai_x5F_0_x2F_Layer_4_copy_x2F__x3C_Path_x3E__x5F_12"
   width="0.89999998"
   height="1.1"
   y="-1.1"
   transform="matrix(1.2503,0,0,1.2503,-46.562418,-151.02083)"
   style="overflow:visible;opacity:0.32809999;enable-background:new"
   id="use78"
   x="0" />
			
				<use
   xlink:href="#flash0.ai_x5F_0_x2F_Layer_4_copy_x2F__x3C_Path_x3E__x5F_11"
   width="1.35"
   height="1.8"
   y="-1.8"
   transform="matrix(1.2503,0,0,1.2503,-49.663018,-160.67023)"
   style="overflow:visible;opacity:0.32809999;enable-background:new"
   id="use80"
   x="0" />
			
				<use
   xlink:href="#flash0.ai_x5F_0_x2F_Layer_4_copy_x2F__x3C_Path_x3E__x5F_10"
   width="0.75"
   height="1.05"
   y="-1.05"
   transform="matrix(1.2503,0,0,1.2503,-53.862218,-135.27083)"
   style="overflow:visible;opacity:0.32809999;enable-background:new"
   id="use82"
   x="0" />
			
				<use
   xlink:href="#flash0.ai_x5F_0_x2F_Layer_4_copy_x2F__x3C_Path_x3E__x5F_9"
   width="0.60000002"
   height="0.85000002"
   y="-0.85000002"
   transform="matrix(1.2503,0,0,1.2503,-36.862218,-157.32063)"
   style="overflow:visible;opacity:0.32809999;enable-background:new"
   id="use84"
   x="0" />
			
				<use
   xlink:href="#flash0.ai_x5F_0_x2F_Layer_4_copy_x2F__x3C_Path_x3E__x5F_8"
   width="0.75"
   height="0.89999998"
   y="-0.89999998"
   transform="matrix(1.2503,0,0,1.2503,-39.663018,-140.22103)"
   style="overflow:visible;opacity:0.32809999;enable-background:new"
   id="use86"
   x="0" />
			<path
   style="clip-rule:evenodd;fill:#ff8d4a;fill-rule:evenodd"
   d="m 25.832,-16.566 c -0.167,-0.875 -1.438,-1.604 -3.814,-2.188 -2.459,-0.625 -5.417,-0.938 -8.877,-0.938 -3.459,0 -6.418,0.313 -8.876,0.938 -2.376,0.584 -3.668,1.313 -3.876,2.188 -0.25,1.083 0.875,1.979 3.375,2.688 2.418,0.667 5.439,1 9.065,1 3.709,0 6.814,-0.334 9.315,-1 2.666,-0.667 3.896,-1.563 3.688,-2.688 z"
   id="path88"
   inkscape:connector-curvature="0" />
			<path
   style="clip-rule:evenodd;fill:#ff8d4a;fill-rule:evenodd"
   d="m 15.141,-12.753 c 0,-0.292 -0.146,-0.437 -0.438,-0.437 -0.292,0 -0.438,0.146 -0.438,0.437 0,0.291 0.146,0.438 0.438,0.438 0.292,0 0.438,-0.147 0.438,-0.438 z"
   id="path90"
   inkscape:connector-curvature="0" />
			<path
   style="clip-rule:evenodd;fill:#ff8d4a;fill-rule:evenodd"
   d="m 21.143,-13.19 c 0,-0.334 -0.167,-0.501 -0.501,-0.501 -0.333,0 -0.5,0.167 -0.5,0.501 0,0.333 0.167,0.5 0.5,0.5 0.334,0 0.501,-0.167 0.501,-0.5 z"
   id="path92"
   inkscape:connector-curvature="0" />
			
				<linearGradient
   id="SVGID_5_"
   gradientUnits="userSpaceOnUse"
   x1="14013.69"
   y1="-18108.672"
   x2="14032.549"
   y2="-18108.672"
   gradientTransform="matrix(-1.21,-0.3149,0.3149,-1.21,22683.693,-17511.107)">
				<stop
   offset="0"
   style="stop-color:#CC3918"
   id="stop94" />
				<stop
   offset="1"
   style="stop-color:#8A0000"
   id="stop96" />
			</linearGradient>
			<path
   style="clip-rule:evenodd;fill:url(#linearGradient1092);fill-rule:evenodd"
   d="m 25.707,-16.254 c 0,-0.875 -1.23,-1.625 -3.689,-2.25 -2.5,-0.583 -5.501,-0.875 -9.001,-0.875 -3.501,0 -6.481,0.292 -8.94,0.875 -2.501,0.625 -3.751,1.375 -3.751,2.25 0,0.833 1.25,1.563 3.751,2.188 2.459,0.583 5.438,0.875 8.94,0.875 3.5,0 6.501,-0.292 9.001,-0.875 2.459,-0.625 3.689,-1.355 3.689,-2.188 z"
   id="path99"
   inkscape:connector-curvature="0" />
			<path
   style="clip-rule:evenodd;fill:#ff8d4a;fill-rule:evenodd"
   d="m 7.765,-17.879 c 0.458,0 0.688,-0.229 0.688,-0.688 0,-0.416 -0.229,-0.625 -0.688,-0.625 -0.459,0 -0.688,0.209 -0.688,0.625 0,0.458 0.229,0.688 0.688,0.688 z m 0,-1.063 c 0.333,0 0.5,0.167 0.5,0.5 0,0.333 -0.167,0.5 -0.5,0.5 -0.333,0 -0.5,-0.167 -0.5,-0.5 0,-0.333 0.166,-0.5 0.5,-0.5 z"
   id="path101"
   inkscape:connector-curvature="0" />
			<path
   style="clip-rule:evenodd;fill:#ff8d4a;fill-rule:evenodd"
   d="m 9.14,-17.755 c 0.583,0 0.875,-0.27 0.875,-0.813 0,-0.542 -0.291,-0.813 -0.875,-0.813 -0.542,0 -0.813,0.271 -0.813,0.813 10e-4,0.543 0.271,0.813 0.813,0.813 z m -0.063,-1.312 c 0.417,0 0.625,0.208 0.625,0.625 0,0.417 -0.208,0.625 -0.625,0.625 -0.375,0 -0.563,-0.208 -0.563,-0.625 0,-0.417 0.188,-0.625 0.563,-0.625 z"
   id="path103"
   inkscape:connector-curvature="0" />
			<path
   style="clip-rule:evenodd;fill:#ff8d4a;fill-rule:evenodd"
   d="m 22.33,-17.442 c 0.417,0 0.625,-0.208 0.625,-0.625 0,-0.375 -0.208,-0.562 -0.625,-0.562 -0.375,0 -0.562,0.188 -0.562,0.562 0,0.417 0.188,0.625 0.562,0.625 z m 0,-0.938 c 0.292,0 0.438,0.146 0.438,0.438 0,0.25 -0.146,0.375 -0.438,0.375 -0.292,0 -0.438,-0.125 -0.438,-0.375 0.001,-0.292 0.147,-0.438 0.438,-0.438 z"
   id="path105"
   inkscape:connector-curvature="0" />
			
				<use
   xlink:href="#flash0.ai_x5F_0_x2F_Layer_4_copy_x2F__x3C_Path_x3E__x5F_3"
   width="20.971001"
   height="40.75"
   x="-0.022"
   y="-40.75"
   transform="matrix(1.2503,0,0,1.2503,-56.062418,-116.72103)"
   style="overflow:visible;opacity:0.12110003;enable-background:new"
   id="use107" />
			
				<linearGradient
   id="SVGID_6_"
   gradientUnits="userSpaceOnUse"
   x1="-540.89447"
   y1="-15724.727"
   x2="-515.12982"
   y2="-15724.727"
   gradientTransform="matrix(0.0886,-1.2471,1.2471,0.0886,19678.801,711.1006)">
				<stop
   offset="0"
   style="stop-color:#FFFFFF;stop-opacity:0.298"
   id="stop109" />
				<stop
   offset="1"
   style="stop-color:#FFFFFF;stop-opacity:0"
   id="stop111" />
			</linearGradient>
			<path
   style="clip-rule:evenodd;fill:url(#linearGradient1094);fill-rule:evenodd"
   d="m 21.33,-5.314 2.813,0.438 c 0.333,-0.917 0.521,-2.584 0.562,-5.001 0.042,-5.543 -0.896,-11.107 -2.813,-16.691 -1.125,-3.167 -1.875,-6.772 -2.25,-10.815 -0.292,-3.417 -0.25,-6.231 0.125,-8.439 0.208,-1.375 0.625,-2.854 1.25,-4.439 0.417,-1.167 0.563,-1.771 0.438,-1.813 -1.459,-0.625 -2.126,-0.896 -2,-0.813 0.125,0.042 0.021,0.75 -0.313,2.125 -0.583,2.084 -1.021,4.001 -1.313,5.751 -0.375,2.292 -0.208,5.355 0.5,9.19 0.375,2.208 1.354,6.418 2.938,12.628 1,4 1.313,8.168 0.938,12.503 -0.208,2.209 -0.5,4.001 -0.875,5.376 z"
   id="path114"
   inkscape:connector-curvature="0" />
			
				<linearGradient
   id="SVGID_7_"
   gradientUnits="userSpaceOnUse"
   x1="-539.33197"
   y1="-15740.412"
   x2="-518.02917"
   y2="-15740.412"
   gradientTransform="matrix(0.088,-1.2472,1.2472,0.088,19683.4,707.1143)">
				<stop
   offset="0"
   style="stop-color:#FFFFFF;stop-opacity:0.5686"
   id="stop116" />
				<stop
   offset="1"
   style="stop-color:#FFFFFF;stop-opacity:0"
   id="stop118" />
			</linearGradient>
			<path
   style="clip-rule:evenodd;fill:url(#linearGradient1096);fill-rule:evenodd"
   d="M 3.138,-18.942 C 2.597,-13.691 2.513,-8.94 2.889,-4.689 L 7.202,-5.814 C 6.619,-7.481 6.119,-9.585 5.702,-12.128 4.868,-17.17 4.91,-21.796 5.827,-26.005 7.119,-31.84 7.64,-36.57 7.39,-40.196 c -0.125,-1.792 -0.375,-3.001 -0.75,-3.626 0.167,0.833 0.208,2.417 0.125,4.751 -0.042,1.834 -0.542,4.709 -1.5,8.627 -1.085,4.417 -1.793,8.251 -2.127,11.502 z"
   id="path121"
   inkscape:connector-curvature="0" />
			<path
   style="clip-rule:evenodd;fill:none;fill-rule:evenodd;stroke:#ccf6ff;stroke-width:0.5"
   d="m 21.518,-5.626 c -2.334,-0.625 -5.147,-0.938 -8.439,-0.938 -3.334,0 -6.189,0.333 -8.564,1 -2.334,0.625 -3.5,1.396 -3.5,2.313 v 0.063 c -0.875,-2.584 -1.042,-7.314 -0.5,-14.191 0.333,-4.042 1.25,-9.648 2.75,-16.816 1.25,-6.21 1.834,-10.064 1.75,-11.565 -0.042,-0.917 -0.396,-2.229 -1.063,-3.938 -0.333,-0.833 -0.083,-1.583 0.75,-2.25 1.5,-1.208 4.022,-1.917 7.564,-2.125 v -0.063 h 1.563 v 0.063 c 3.542,0.208 6.064,0.917 7.564,2.125 0.834,0.667 1.083,1.417 0.75,2.25 -0.667,1.708 -1.021,3.021 -1.063,3.938 -0.083,1.501 0.521,5.355 1.813,11.565 1.458,7.168 2.355,12.774 2.688,16.816 0.542,6.877 0.375,11.565 -0.5,14.066 -0.041,-0.876 -1.229,-1.647 -3.563,-2.313 z"
   id="path123"
   inkscape:connector-curvature="0" />
			<path
   style="clip-rule:evenodd;fill:#ccf6ff;fill-rule:evenodd"
   d="m 13.141,0 c 3.376,0 6.273,-0.313 8.689,-0.938 2.375,-0.625 3.563,-1.396 3.563,-2.313 0,-0.917 -1.188,-1.688 -3.563,-2.313 -2.417,-0.667 -5.313,-1 -8.689,-1 -3.417,0 -6.314,0.333 -8.689,1 -2.418,0.625 -3.626,1.396 -3.626,2.313 0,0.917 1.208,1.688 3.625,2.313 C 6.827,-0.313 9.724,0 13.141,0 Z m 0.063,-5.814 c 3.125,0 5.813,0.271 8.064,0.813 2.209,0.542 3.313,1.188 3.313,1.938 0,0.792 -1.104,1.438 -3.313,1.938 -2.209,0.542 -4.897,0.813 -8.064,0.813 -3.126,0 -5.793,-0.271 -8.002,-0.813 -2.209,-0.5 -3.313,-1.146 -3.313,-1.938 0,-0.75 1.104,-1.396 3.313,-1.938 2.209,-0.542 4.876,-0.813 8.002,-0.813 z"
   id="path125"
   inkscape:connector-curvature="0" />
		</g>
	</g>
</symbol>
<use
   id="use137"
   style="overflow:visible"
   transform="matrix(4.7070937,0,0,-4.7070937,-144.59126,427.3781)"
   y="-54.388"
   x="-0.048"
   height="54.387001"
   width="26.24"
   xlink:href="#juice" />
</svg>