<?xml version="1.0" encoding="UTF-8" standalone="no"?>
<!-- Generator: Adobe Illustrator 15.1.0, SVG Export Plug-In . SVG Version: 6.00 Build 0)  -->

<svg
   xmlns:dc="http://purl.org/dc/elements/1.1/"
   xmlns:cc="http://creativecommons.org/ns#"
   xmlns:rdf="http://www.w3.org/1999/02/22-rdf-syntax-ns#"
   xmlns:svg="http://www.w3.org/2000/svg"
   xmlns="http://www.w3.org/2000/svg"
   xmlns:xlink="http://www.w3.org/1999/xlink"
   xmlns:sodipodi="http://sodipodi.sourceforge.net/DTD/sodipodi-0.dtd"
   xmlns:inkscape="http://www.inkscape.org/namespaces/inkscape"
   version="1.1"
   id="Layer_1"
   x="0px"
   y="0px"
   width="256"
   height="256"
   viewBox="0 0 256.00001 256"
   xml:space="preserve"
   sodipodi:docname="vodka.svg"
   inkscape:version="0.92.4 (5da689c313, 2019-01-14)"
   inkscape:export-xdpi="10.5"
   inkscape:export-ydpi="10.5"><title
   id="title899">Vodka</title><metadata
   id="metadata92"><rdf:RDF><cc:Work
       rdf:about=""><dc:format>image/svg+xml</dc:format><dc:type
         rdf:resource="http://purl.org/dc/dcmitype/StillImage" /><dc:title>Vodka</dc:title><cc:license
         rdf:resource="http://creativecommons.org/publicdomain/zero/1.0/" /><dc:creator><cc:Agent><dc:title>Glitch</dc:title></cc:Agent></dc:creator><dc:source>https://opengameart.org/node/20149</dc:source></cc:Work><cc:License
       rdf:about="http://creativecommons.org/publicdomain/zero/1.0/"><cc:permits
         rdf:resource="http://creativecommons.org/ns#Reproduction" /><cc:permits
         rdf:resource="http://creativecommons.org/ns#Distribution" /><cc:permits
         rdf:resource="http://creativecommons.org/ns#DerivativeWorks" /></cc:License></rdf:RDF></metadata><defs
   id="defs90"><linearGradient
     inkscape:collect="always"
     xlink:href="#SVGID_1_"
     id="linearGradient1303"
     gradientUnits="userSpaceOnUse"
     x1="0.54979998"
     y1="-25.225599"
     x2="60.249802"
     y2="-25.225599" /></defs><sodipodi:namedview
   pagecolor="#ffffff"
   bordercolor="#666666"
   borderopacity="1"
   objecttolerance="10"
   gridtolerance="10"
   guidetolerance="10"
   inkscape:pageopacity="0"
   inkscape:pageshadow="2"
   inkscape:window-width="1920"
   inkscape:window-height="1025"
   id="namedview88"
   showgrid="false"
   inkscape:zoom="0.7287214"
   inkscape:cx="-436.40645"
   inkscape:cy="117.34242"
   inkscape:window-x="-8"
   inkscape:window-y="-8"
   inkscape:window-maximized="1"
   inkscape:current-layer="Layer_1"
   fit-margin-top="0"
   fit-margin-left="0"
   fit-margin-right="0"
   fit-margin-bottom="0" />
<symbol
   id="bottlelighter"
   viewBox="-0.02 -220.845 139.429 220.844"
   transform="translate(44.166729,-15.15137)">
	<path
   inkscape:connector-curvature="0"
   id="path2"
   d="m 92.5,0 c 0.133,-7.667 0.317,-15.35 0.55,-23.05 0.067,-2.533 0.8,-4.8 2.2,-6.8 0.667,-0.966 1.483,-1.767 2.45,-2.4 6.767,-4.333 13.417,-8.85 19.95,-13.55 10.467,-7.533 16.55,-17.783 18.25,-30.75 -2.233,10.3 -7,19.167 -14.3,26.6 -2.3,2.367 -4.867,4.316 -7.7,5.85 -4.1,2.267 -8.35,4.383 -12.75,6.35 -3.333,1.567 -5.8,4.083 -7.4,7.55 -4.467,9.5 -5.917,19.566 -4.35,30.2 z M 44.35,-212.2 c 9.267,3.5 18.517,7.033 27.75,10.6 2.9,1.167 5.9,2.117 9,2.85 9.333,1.934 18.75,3 28.25,3.2 -11.633,-5.2 -23.667,-9.167 -36.1,-11.9 -9.933,-2.1 -19.567,-3.684 -28.9,-4.75 z m 77.65,29.9 c -4.733,3 -9.883,5.15 -15.45,6.45 -10.133,2.333 -20.3,2.383 -30.5,0.15 -12.333,-2.667 -24.333,-6.317 -36,-10.95 5.733,10.3 8.3,21.35 7.7,33.15 -0.3,5.467 -0.617,10.9 -0.95,16.3 -0.7,11.167 -0.433,22.316 0.8,33.45 1.467,13.133 5.883,25.184 13.25,36.15 7.033,10.467 16.8,16.434 29.3,17.9 4,0.566 7.75,-0.233 11.25,-2.4 7.767,-4.8 12.45,-11.767 14.05,-20.9 3.033,-17.133 4.05,-34.45 3.05,-51.95 -0.467,-8.6 -0.9,-17.233 -1.3,-25.9 -0.2,-4.767 0.583,-9.3 2.35,-13.6 1.333,-3.167 3.317,-5.817 5.95,-7.95 0.967,12.867 1.7,25.767 2.2,38.7 0.367,8.8 0.633,17.583 0.8,26.35 0.267,13.4 -1.883,26.417 -6.45,39.05 -1.066,2.9 -2.55,5.633 -4.45,8.2 -8.5,11.434 -20.017,16.583 -34.55,15.45 -5.466,-0.367 -10.617,-1.717 -15.45,-4.05 -12.067,-5.9 -20.55,-15.284 -25.45,-28.15 -4.467,-11.767 -7.2,-24.033 -8.2,-36.8 -1.034,-13.267 -1.2,-26.55 -0.5,-39.85 0.633,-11.633 1.45,-23.25 2.45,-34.85 L 29.7,-191 c -0.733,12.5 -1.167,25 -1.3,37.5 -0.133,10.3 -0.15,20.583 -0.05,30.85 0.1,11.3 0.566,22.6 1.4,33.9 0.967,13.3 5.133,25.5 12.5,36.6 2.567,3.9 5.633,7.267 9.2,10.1 5.7,4.566 8.333,10.583 7.9,18.05 -0.333,5.333 -0.5,10.667 -0.5,16 0,2.667 -0.033,5.333 -0.1,8 h 2.6 c 2.066,-12.566 2.033,-24.883 -0.1,-36.95 -0.133,-0.667 -0.383,-1.317 -0.75,-1.95 -2.467,-4.2 -4.933,-8.4 -7.4,-12.6 3.667,1.967 7.233,4.05 10.7,6.25 3.434,2.167 6.4,4.767 8.9,7.8 l -6.6,2.95 5,9 c -1.467,2.233 -2.684,4.583 -3.65,7.05 -2.3,5.966 -3.1,12.117 -2.4,18.45 h 17.4 c -0.633,-8.7 -0.883,-17.4 -0.75,-26.1 0.033,-2.133 0.466,-4.216 1.3,-6.25 2.333,-5.533 6.567,-8.966 12.7,-10.3 7.833,-1.767 15.15,-4.45 21.95,-8.05 1.467,-0.8 2.783,-1.85 3.95,-3.15 6.933,-7.733 11,-16.833 12.2,-27.3 0.534,-4.533 0.934,-8.967 1.2,-13.3 0.2,-2.967 0.35,-5.95 0.45,-8.95 -0.034,-1.2 -0.1,-2.4 -0.2,-3.6 -0.867,-12.333 -1.767,-24.683 -2.7,-37.05 -0.566,-7.633 -1.283,-15.3 -2.15,-23 -0.7,-6.167 -3.5,-11.25 -8.4,-15.25 z"
   style="clip-rule:evenodd;fill:#a0978e;fill-rule:evenodd" /><path
   inkscape:connector-curvature="0"
   id="path4"
   d="m 44.35,-212.2 c -0.6,-0.1 -1.2,-0.2 -1.8,-0.3 -4.267,-0.333 -8.333,0.217 -12.2,1.65 v 8.4 c 12.6,-2.4 25.2,-1.8 37.8,1.8 12.333,3.567 24.75,6.883 37.25,9.95 2.8,0.733 5.567,1.767 8.3,3.1 l 8.3,5.3 c 4.9,4 7.7,9.083 8.4,15.25 0.867,7.7 1.583,15.367 2.15,23 0.934,12.367 1.833,24.717 2.7,37.05 0.1,1.2 0.167,2.4 0.2,3.6 l 0.45,26.85 c -1.7,12.967 -7.783,23.217 -18.25,30.75 -6.533,4.7 -13.183,9.217 -19.95,13.55 -0.967,0.633 -1.784,1.434 -2.45,2.4 -1.4,2 -2.133,4.267 -2.2,6.8 C 92.817,-15.351 92.633,-7.667 92.5,0 h 7.05 c -0.533,-7.867 0.5,-15.316 3.1,-22.35 0.667,-1.767 1.783,-3.3 3.35,-4.6 3.367,-2.9 6.833,-5.65 10.4,-8.25 10.567,-7.8 17.767,-17.967 21.6,-30.5 1.2,-3.967 1.633,-8.017 1.3,-12.15 -1.066,-13.733 -1.966,-27.55 -2.7,-41.45 -0.434,-8.4 -0.917,-16.783 -1.45,-25.15 -0.6,-9.1 -0.883,-18.2 -0.85,-27.3 0,-3.7 -0.466,-7.383 -1.4,-11.05 -0.833,-3.2 -2.183,-6.2 -4.05,-9 l 0.15,6.5 -19.65,-10.25 c -9.5,-0.2 -18.917,-1.267 -28.25,-3.2 -3.1,-0.733 -6.1,-1.683 -9,-2.85 -9.233,-3.567 -18.483,-7.1 -27.75,-10.6 z"
   style="clip-rule:evenodd;fill:#8b7b79;fill-rule:evenodd" /><path
   inkscape:connector-curvature="0"
   id="path6"
   d="m 82.45,0 h 6.95 c -1.566,-10.633 -0.117,-20.7 4.35,-30.2 1.6,-3.467 4.067,-5.983 7.4,-7.55 4.4,-1.967 8.65,-4.083 12.75,-6.35 2.833,-1.533 5.4,-3.483 7.7,-5.85 7.3,-7.434 12.066,-16.3 14.3,-26.6 l -0.45,-26.85 c -0.1,3 -0.25,5.983 -0.45,8.95 -0.267,4.333 -0.667,8.767 -1.2,13.3 -1.2,10.467 -5.267,19.567 -12.2,27.3 -1.167,1.3 -2.483,2.35 -3.95,3.15 -6.8,3.6 -14.117,6.283 -21.95,8.05 -6.133,1.333 -10.367,4.767 -12.7,10.3 -0.833,2.034 -1.267,4.117 -1.3,6.25 -0.133,8.7 0.117,17.4 0.75,26.1 z M 35.9,-188.351 c -1,11.6 -1.816,23.217 -2.45,34.85 -0.7,13.3 -0.534,26.583 0.5,39.85 1,12.767 3.733,25.033 8.2,36.8 4.9,12.867 13.383,22.25 25.45,28.15 4.833,2.333 9.983,3.683 15.45,4.05 14.534,1.133 26.05,-4.017 34.55,-15.45 1.9,-2.566 3.383,-5.3 4.45,-8.2 4.567,-12.633 6.717,-25.65 6.45,-39.05 -0.167,-8.767 -0.433,-17.55 -0.8,-26.35 -0.5,-12.934 -1.233,-25.833 -2.2,-38.7 -2.633,2.133 -4.617,4.783 -5.95,7.95 -1.767,4.3 -2.55,8.833 -2.35,13.6 0.4,8.667 0.833,17.3 1.3,25.9 1,17.5 -0.017,34.816 -3.05,51.95 -1.6,9.133 -6.284,16.1 -14.05,20.9 -3.5,2.167 -7.25,2.967 -11.25,2.4 -12.5,-1.467 -22.267,-7.434 -29.3,-17.9 -7.367,-10.966 -11.783,-23.017 -13.25,-36.15 -1.233,-11.133 -1.5,-22.283 -0.8,-33.45 0.333,-5.4 0.65,-10.833 0.95,-16.3 0.6,-11.8 -1.967,-22.85 -7.7,-33.15 l -1.55,-2.75 -2.2,-3.5 -0.2,2.45 z M 65.05,0 c -0.7,-6.333 0.1,-12.483 2.4,-18.45 0.966,-2.467 2.183,-4.817 3.65,-7.05 l -5,-9 6.6,-2.95 c -2.5,-3.034 -5.467,-5.633 -8.9,-7.8 -3.466,-2.2 -7.033,-4.283 -10.7,-6.25 2.467,4.2 4.933,8.4 7.4,12.6 0.367,0.633 0.617,1.283 0.75,1.95 2.133,12.066 2.167,24.383 0.1,36.95 z"
   style="clip-rule:evenodd;fill:#9d9182;fill-rule:evenodd" /><path
   inkscape:connector-curvature="0"
   id="path8"
   d="m 29.8,-193.4 0.55,-9.05 v -8.4 C 17.983,-205.484 9.9,-196.2 6.1,-183 c -2.033,7.067 -2.9,14.333 -2.6,21.8 0.5,11.767 0.817,23.466 0.95,35.1 0.167,11.966 0.55,23.983 1.15,36.05 0.6,12.167 3.316,23.783 8.15,34.85 2.5,5.767 5.667,11.133 9.5,16.1 7.9,4.133 13.55,10.133 16.95,18 1.433,3.267 2.2,6.8 2.3,10.6 0.1,3.5 0.167,7 0.2,10.5 h 16.05 c 0.067,-2.667 0.1,-5.333 0.1,-8 0,-5.333 0.167,-10.667 0.5,-16 0.433,-7.467 -2.2,-13.483 -7.9,-18.05 -3.567,-2.833 -6.633,-6.2 -9.2,-10.1 -7.367,-11.1 -11.533,-23.3 -12.5,-36.6 -0.833,-11.3 -1.3,-22.6 -1.4,-33.9 -0.1,-10.267 -0.083,-20.55 0.05,-30.85 0.133,-12.5 0.567,-25 1.3,-37.5 z"
   style="clip-rule:evenodd;fill:#887c77;fill-rule:evenodd" /><path
   inkscape:connector-curvature="0"
   id="path10"
   d="m 30.35,-210.851 c 3.867,-1.433 7.933,-1.983 12.2,-1.65 0.6,0.1 1.2,0.2 1.8,0.3 9.333,1.066 18.967,2.65 28.9,4.75 12.433,2.733 24.467,6.7 36.1,11.9 l 19.65,10.251 -0.15,-6.5 c -5.2,-3.8 -10.75,-7.25 -16.65,-10.35 -11.6,-5.933 -23.717,-10.6 -36.35,-14 -12.333,-3.433 -24.85,-4.983 -37.55,-4.65 -13.733,0.967 -25.383,6.583 -34.95,16.85 -1.133,1.2 -1.767,2.617 -1.9,4.25 -0.5,5.4 -0.833,10.816 -1,16.25 -0.267,9.7 -0.417,19.4 -0.45,29.1 -0.067,11.233 0.033,22.45 0.3,33.65 0.333,12.9 1.15,25.733 2.45,38.5 0.5,5.1 1.1,10.2 1.8,15.3 1.733,12.2 7.967,21.467 18.7,27.8 -3.833,-4.966 -7,-10.333 -9.5,-16.1 C 8.917,-66.267 6.2,-77.884 5.6,-90.05 5,-102.117 4.617,-114.133 4.45,-126.1 4.317,-137.734 4,-149.434 3.5,-161.2 c -0.3,-7.467 0.567,-14.733 2.6,-21.8 3.8,-13.2 11.883,-22.484 24.25,-27.851 z m 9.7,24.201 c 11.667,4.633 23.667,8.283 36,10.95 10.2,2.233 20.367,2.183 30.5,-0.15 5.567,-1.3 10.717,-3.45 15.45,-6.45 l -8.3,-5.3 c -0.633,2.4 -2.117,4.217 -4.45,5.45 -10.433,5.167 -21.45,6.65 -33.05,4.45 -13,-2.367 -25.567,-6.267 -37.7,-11.7 z m -10.25,-6.75 -0.1,2.4 6.2,2.65 0.2,-2.1 z"
   style="clip-rule:evenodd;fill:#998a80;fill-rule:evenodd" /><path
   inkscape:connector-curvature="0"
   id="path12"
   d="m 30.35,-202.45 -0.55,9.05 6.3,2.95 0.2,-2.45 2.2,3.5 c 12.133,5.433 24.7,9.333 37.7,11.7 11.6,2.2 22.617,0.716 33.05,-4.45 2.333,-1.233 3.817,-3.05 4.45,-5.45 -2.733,-1.333 -5.5,-2.367 -8.3,-3.1 -12.5,-3.067 -24.917,-6.383 -37.25,-9.95 -12.6,-3.6 -25.2,-4.201 -37.8,-1.8 z"
   style="clip-rule:evenodd;fill:#847d7b;fill-rule:evenodd" />
</symbol>
<symbol
   id="cheapbottletop"
   viewBox="-0.012 -55.426 61.762 55.437"
   transform="translate(44.166729,-15.15137)">
	<g
   id="Layer_1_3_">
		<linearGradient
   id="SVGID_1_"
   gradientUnits="userSpaceOnUse"
   x1="0.54979998"
   y1="-25.225599"
   x2="60.249802"
   y2="-25.225599">
			<stop
   offset="0"
   style="stop-color:#8A724E"
   id="stop16" />
			<stop
   offset="0.2549"
   style="stop-color:#FADFC2"
   id="stop18" />
			<stop
   offset="1"
   style="stop-color:#735942"
   id="stop20" />
		</linearGradient>
		<path
   style="clip-rule:evenodd;fill:url(#linearGradient1303);fill-rule:evenodd"
   d="m 54.75,-14.524 c -1.176,-0.314 -2.418,-0.606 -3.725,-0.875 -1.3,0.84 -2.4,1.032 -3.3,0.575 -0.901,-0.458 -1.643,-0.958 -2.225,-1.5 -1.693,-0.236 -3.451,-0.437 -5.275,-0.6 -0.793,-0.063 -1.601,-0.121 -2.425,-0.175 -1.562,1.492 -3.512,1.417 -5.85,-0.225 -0.933,-0.017 -1.883,-0.025 -2.85,-0.025 -1.043,0 -2.368,0.075 -3.975,0.225 -1.644,1.211 -2.927,1.67 -3.85,1.375 -0.92,-0.29 -1.479,-0.532 -1.675,-0.725 -2.196,0.311 -3.888,0.544 -5.075,0.7 -0.648,0.189 -1.315,0.573 -2,1.15 -0.69,0.572 -1.666,0.389 -2.925,-0.55 -1.048,0.158 -2.04,0.333 -2.975,0.525 -0.72,1.387 -1.695,1.629 -2.925,0.724 -0.569,0.168 -1.11,0.343 -1.625,0.525 -0.338,1.046 -0.946,1.296 -1.825,0.75 -0.066,0.934 -0.15,1.85 -0.25,2.751 2.066,-0.667 4.533,-1.233 7.4,-1.7 1.401,-0.237 3.384,-0.654 5.95,-1.25 2.564,-0.588 7.831,-0.838 15.8,-0.75 2.995,0.033 5.57,0.083 7.725,0.15 3.563,0.105 5.963,0.255 7.2,0.45 1.982,0.304 3.341,0.471 4.075,0.5 0.967,0.033 2.05,0.183 3.25,0.45 1.633,0.233 3.434,0.583 5.4,1.05 1.567,0.333 2.884,0.683 3.95,1.05 0.027,-0.782 0.052,-1.549 0.075,-2.3 -0.221,0.1 -0.496,0.15 -0.825,0.15 -0.533,0 -0.934,-0.317 -1.2,-0.95 -0.029,-0.063 -0.054,-0.13 -0.075,-0.2 -0.477,-0.179 -0.969,-0.354 -1.475,-0.525 -0.796,1.101 -1.629,0.851 -2.5,-0.75 z m 6.725,-11.051 c 0.009,-0.108 0.018,-0.216 0.025,-0.325 0.07,-1.217 0.154,-2.483 0.25,-3.8 v -4 c -0.503,-0.549 -1.22,-1.158 -2.15,-1.825 -1.136,-0.817 -5.236,-1.951 -12.3,-3.4 -1.821,-0.372 -3.629,-0.681 -5.425,-0.925 -5.161,-0.704 -10.211,-0.879 -15.15,-0.525 -2.198,0.157 -4.273,0.332 -6.225,0.525 -3.952,0.392 -7.394,0.858 -10.325,1.4 -4.381,0.803 -7.156,2.086 -8.325,3.85 0.033,-0.233 0.05,-0.45 0.05,-0.65 -0.159,1.43 -0.3,2.729 -0.425,3.9 -0.213,2.071 -0.372,3.738 -0.475,5 1.462,-0.97 3.079,-1.703 4.85,-2.2 0.733,-0.2 3.45,-0.716 8.15,-1.55 6.733,-1.167 12.85,-1.75 18.35,-1.75 5.833,0 12.25,0.917 19.25,2.75 4.036,1.073 7.328,2.248 9.875,3.525 z"
   id="path23"
   inkscape:connector-curvature="0" />
		<path
   style="clip-rule:evenodd;fill:#d3c0a2;fill-rule:evenodd"
   d="m 0,-9.899 c -0.033,0.533 0,1.466 0.1,2.8 0.056,1.056 0.605,1.972 1.65,2.75 0.217,0.156 0.45,0.306 0.7,0.45 0.582,0.341 2.24,0.858 4.975,1.55 1.806,0.457 4.081,0.99 6.825,1.6 3.133,0.7 9.167,0.917 18.1,0.65 4.5,-0.133 8.783,-0.35 12.85,-0.65 1.925,-0.294 4.125,-0.827 6.6,-1.6 0.047,-0.017 0.097,-0.033 0.15,-0.05 2.123,-0.659 3.782,-1.309 4.975,-1.95 0.438,-0.235 0.813,-0.468 1.125,-0.7 1.2,-0.8 1.95,-1.7 2.25,-2.7 0.3,-1 0.45,-1.733 0.45,-2.2 -1.066,-0.367 -2.383,-0.717 -3.95,-1.05 -1.966,-0.467 -3.767,-0.817 -5.4,-1.05 -1.2,-0.267 -2.283,-0.417 -3.25,-0.45 -0.734,-0.029 -2.092,-0.196 -4.075,-0.5 -1.237,-0.195 -3.637,-0.345 -7.2,-0.45 -2.155,-0.067 -4.73,-0.117 -7.725,-0.15 -7.969,-0.088 -13.236,0.162 -15.8,0.75 -2.566,0.596 -4.549,1.013 -5.95,1.25 -2.867,0.466 -5.334,1.033 -7.4,1.7 z"
   id="path25"
   inkscape:connector-curvature="0" />
		<path
   style="clip-rule:evenodd;fill:#8a724e;fill-rule:evenodd"
   d="m 2.55,-20.7 c -0.013,0.198 -0.03,0.39 -0.05,0.575 -0.213,3.277 -0.355,5.519 -0.425,6.725 0.515,-0.183 1.056,-0.357 1.625,-0.525 -0.035,-0.842 -0.085,-2.017 -0.15,-3.525 0,-1.675 0.117,-3 0.35,-3.975 -0.367,0.184 -0.717,0.375 -1.05,0.575 -0.051,0.021 -0.101,0.046 -0.15,0.075 -0.051,0.022 -0.101,0.047 -0.15,0.075 z m 4.15,5.075 c -0.023,0.329 -0.048,0.654 -0.075,0.975 0.936,-0.192 1.927,-0.367 2.975,-0.525 0.054,-0.943 0.12,-2.502 0.2,-4.675 0.044,-1.52 0.111,-2.778 0.2,-3.775 v -0.025 c -1.166,0.355 -2.166,0.681 -3,0.975 -0.002,0.113 -0.002,0.23 0,0.35 -0.046,2.378 -0.146,4.611 -0.3,6.7 z m 12.9,-0.85 c 0.073,-0.893 0.156,-2.702 0.25,-5.425 0.098,-1.461 0.223,-2.703 0.375,-3.725 0.012,-0.023 0.021,-0.048 0.025,-0.075 -1.697,0.24 -3.43,0.54 -5.2,0.9 h -0.025 c -0.173,1.162 -0.298,2.778 -0.375,4.85 -0.039,1.352 -0.072,2.452 -0.1,3.3 -0.008,0.329 -0.017,0.621 -0.025,0.875 1.187,-0.155 2.879,-0.389 5.075,-0.7 z m 12.35,-0.85 c 0.33,-1.152 0.546,-2.877 0.65,-5.175 0.042,-1.212 0.076,-2.479 0.1,-3.8 -1.285,-0.033 -2.401,-0.05 -3.35,-0.05 -1.032,0 -2.082,0.025 -3.15,0.075 -0.389,3.057 -0.673,5.39 -0.85,7 -0.093,0.843 -0.168,1.56 -0.225,2.15 1.607,-0.15 2.932,-0.225 3.975,-0.225 0.967,0 1.918,0.009 2.85,0.025 z m 6.6,-8.625 H 38.5 c -0.137,1.533 -0.271,3.183 -0.4,4.95 -0.043,0.649 -0.085,1.25 -0.125,1.8 -0.061,0.808 -0.12,1.507 -0.175,2.1 0.824,0.054 1.632,0.112 2.425,0.175 1.824,0.164 3.582,0.364 5.275,0.6 0.126,-1.172 0.276,-3.014 0.45,-5.525 0.081,-1.194 0.156,-2.235 0.225,-3.125 L 46.2,-25 c -2.595,-0.413 -5.145,-0.729 -7.65,-0.95 z m 12.475,10.551 c 1.307,0.269 2.549,0.561 3.725,0.875 0.025,-2.944 0.133,-5.76 0.325,-8.45 L 55.1,-23 c -0.925,-0.24 -1.642,-0.423 -2.15,-0.55 -0.396,-0.1 -0.797,-0.2 -1.2,-0.3 -0.006,0.07 -0.014,0.136 -0.025,0.2 -0.047,0.621 -0.105,1.304 -0.175,2.05 -0.017,0.165 -0.033,0.332 -0.05,0.5 -0.136,1.396 -0.244,2.571 -0.325,3.525 -0.077,0.947 -0.127,1.672 -0.15,2.176 z m 6.275,-0.75 c -0.022,0.89 -0.039,1.681 -0.05,2.375 0.506,0.171 0.998,0.346 1.475,0.525 0.116,0.052 0.232,0.103 0.35,0.15 l 0.475,-8.275 v -0.025 c -0.317,-0.192 -0.643,-0.35 -0.975,-0.475 -0.319,-0.108 -0.644,-0.216 -0.975,-0.325 -0.08,0.973 -0.147,2.173 -0.2,3.6 -0.037,0.885 -0.07,1.702 -0.1,2.45 z m 3.525,3.774 c 0.122,-3.155 0.247,-5.972 0.375,-8.45 -0.123,-0.055 -0.248,-0.113 -0.375,-0.175 -0.07,0.826 -0.145,1.793 -0.225,2.9 -0.204,2.858 -0.321,4.683 -0.35,5.475 0.196,0.083 0.388,0.166 0.575,0.25 z"
   id="path27"
   inkscape:connector-curvature="0" />
		<path
   style="clip-rule:evenodd;fill:#c09467;fill-rule:evenodd"
   d="m 2.075,-13.399 c 0.07,-1.207 0.211,-3.448 0.425,-6.725 0.02,-0.185 0.037,-0.377 0.05,-0.575 -0.723,0.415 -1.356,0.849 -1.9,1.3 -0.173,3.318 -0.307,5.568 -0.4,6.75 0.879,0.546 1.487,0.296 1.825,-0.75 z M 3.7,-13.925 c 1.229,0.905 2.205,0.663 2.925,-0.725 0.027,-0.321 0.052,-0.646 0.075,-0.975 -0.593,0.11 -1.042,0.035 -1.35,-0.225 -0.4,-0.333 -0.6,-1.033 -0.6,-2.1 0,-0.999 0.1,-2.332 0.3,-4 -0.397,0.174 -0.781,0.349 -1.15,0.525 -0.233,0.975 -0.35,2.3 -0.35,3.975 0.065,1.509 0.115,2.683 0.15,3.525 z m 10.825,-1.849 c 0.008,-0.254 0.017,-0.546 0.025,-0.875 -1.053,0.287 -1.853,-0.247 -2.4,-1.6 -0.433,-1.167 -0.65,-2.7 -0.65,-4.6 0,-0.239 0.033,-0.63 0.1,-1.175 -0.553,0.129 -1.086,0.263 -1.6,0.4 -0.089,0.997 -0.156,2.255 -0.2,3.775 -0.08,2.173 -0.146,3.731 -0.2,4.675 1.259,0.939 2.234,1.122 2.925,0.55 0.684,-0.578 1.351,-0.961 2,-1.15 z M 45.5,-16.325 c 0.582,0.542 1.324,1.042 2.225,1.5 0.9,0.457 2,0.265 3.3,-0.575 0.023,-0.503 0.073,-1.229 0.15,-2.175 -1.013,-0.28 -1.771,-0.672 -2.275,-1.175 -0.767,-0.733 -1.15,-1.85 -1.15,-3.35 0,-0.749 0.05,-1.607 0.15,-2.575 -0.569,-0.101 -1.145,-0.201 -1.725,-0.3 -0.068,0.89 -0.144,1.931 -0.225,3.125 -0.174,2.511 -0.324,4.353 -0.45,5.525 z M 20.25,-25.7 c -0.004,0.027 -0.013,0.052 -0.025,0.075 -0.152,1.022 -0.277,2.264 -0.375,3.725 -0.094,2.723 -0.177,4.532 -0.25,5.425 0.196,0.193 0.754,0.435 1.675,0.725 0.923,0.295 2.207,-0.164 3.85,-1.375 0.057,-0.59 0.132,-1.307 0.225,-2.15 -0.625,-0.048 -1.226,-0.156 -1.8,-0.325 -1.366,-0.433 -2.05,-1.183 -2.05,-2.25 0,-0.033 0.1,-0.867 0.3,-2.5 0.093,-0.604 0.185,-1.129 0.275,-1.575 -0.593,0.065 -1.193,0.141 -1.8,0.225 H 20.25 Z m 37,11.926 c 0.011,-0.694 0.027,-1.485 0.05,-2.375 -0.571,-0.422 -0.938,-0.822 -1.1,-1.2 C 56.066,-17.716 56,-18.5 56,-19.7 c 0,-0.314 0.042,-1.306 0.125,-2.975 -0.341,-0.099 -0.691,-0.199 -1.05,-0.3 -0.192,2.69 -0.3,5.506 -0.325,8.45 0.871,1.602 1.704,1.852 2.5,0.751 z m -25.3,-3.551 c 2.337,1.642 4.288,1.717 5.85,0.225 0.056,-0.593 0.114,-1.292 0.175,-2.1 -0.125,0.067 -0.284,0.1 -0.475,0.1 -0.967,0 -1.717,-0.417 -2.25,-1.25 -0.5,-0.767 -0.75,-1.717 -0.75,-2.85 0,-0.595 0.125,-1.595 0.375,-3 -0.719,-0.044 -1.443,-0.077 -2.175,-0.1 -0.024,1.322 -0.058,2.588 -0.1,3.8 -0.103,2.298 -0.32,4.023 -0.65,5.175 z"
   id="path29"
   inkscape:connector-curvature="0" />
		<path
   style="clip-rule:evenodd;fill:#a68961;fill-rule:evenodd"
   d="m 10,-23.625 c 0.514,-0.137 1.047,-0.271 1.6,-0.4 -0.067,0.544 -0.1,0.936 -0.1,1.175 0,1.9 0.217,3.433 0.65,4.6 0.547,1.354 1.347,1.887 2.4,1.6 0.028,-0.848 0.061,-1.948 0.1,-3.3 0.077,-2.072 0.202,-3.688 0.375,-4.85 h 0.025 c -0.568,-1.035 -1.269,-1.609 -2.1,-1.725 -0.829,-0.11 -1.487,0.256 -1.975,1.1 -0.489,0.838 -0.814,1.43 -0.975,1.775 z m -3.3,8 c 0.154,-2.089 0.254,-4.323 0.3,-6.7 -0.002,-0.12 -0.002,-0.237 0,-0.35 -0.022,-0.416 -0.164,-0.866 -0.425,-1.35 C 6.236,-24.646 5.794,-25.004 5.25,-25.1 4.617,-25 4,-24.35 3.4,-23.149 c -0.312,0.624 -0.521,1.199 -0.625,1.725 -0.089,-0.683 -0.223,-1.191 -0.4,-1.525 -0.181,-0.334 -0.456,-0.568 -0.825,-0.7 -0.366,-0.131 -0.583,0.102 -0.65,0.7 -0.097,0.941 -0.181,2.125 -0.25,3.55 0.543,-0.452 1.177,-0.885 1.9,-1.3 0.049,-0.028 0.099,-0.053 0.15,-0.075 0.049,-0.029 0.099,-0.054 0.15,-0.075 0.333,-0.2 0.683,-0.392 1.05,-0.575 0.369,-0.176 0.752,-0.351 1.15,-0.525 -0.2,1.668 -0.3,3.001 -0.3,4 0,1.067 0.2,1.767 0.6,2.1 0.308,0.26 0.757,0.335 1.35,0.224 z m 18.65,-3.649 c 0.177,-1.61 0.461,-3.943 0.85,-7 H 26.175 L 26.2,-26.3 c 0.092,-0.161 -0.008,-0.544 -0.3,-1.15 -0.296,-0.603 -1.029,-0.82 -2.2,-0.65 -1.169,0.167 -2.286,0.934 -3.35,2.3 -0.021,0.033 -0.045,0.066 -0.075,0.1 0.607,-0.084 1.207,-0.16 1.8,-0.225 -0.091,0.446 -0.182,0.971 -0.275,1.575 -0.2,1.633 -0.3,2.467 -0.3,2.5 0,1.067 0.684,1.817 2.05,2.25 0.575,0.169 1.175,0.278 1.8,0.326 z m 20.825,-5.701 c 0.581,0.099 1.156,0.199 1.725,0.3 -0.1,0.968 -0.15,1.826 -0.15,2.575 0,1.5 0.383,2.617 1.15,3.35 0.503,0.503 1.262,0.895 2.275,1.175 0.081,-0.954 0.189,-2.129 0.325,-3.525 0.017,-0.168 0.033,-0.335 0.05,-0.5 0.07,-0.746 0.128,-1.429 0.175,-2.05 -0.075,-2.006 -0.917,-3.015 -2.525,-3.025 -1.614,-0.008 -2.539,0.233 -2.775,0.725 -0.229,0.49 -0.304,0.806 -0.225,0.95 z m -8.2,5.775 c 0.04,-0.55 0.082,-1.15 0.125,-1.8 0.129,-1.767 0.263,-3.417 0.4,-4.95 h 0.05 c -0.032,-0.07 -0.282,-0.503 -0.75,-1.3 -0.474,-0.795 -1.299,-1.095 -2.475,-0.9 -1.175,0.193 -2.05,0.81 -2.625,1.85 0.731,0.023 1.456,0.056 2.175,0.1 -0.25,1.405 -0.375,2.405 -0.375,3 0,1.133 0.25,2.083 0.75,2.85 0.533,0.833 1.283,1.25 2.25,1.25 0.191,0 0.35,-0.033 0.475,-0.1 z m 20.6,-2.675 c -0.027,-0.158 -0.136,-0.641 -0.325,-1.45 -0.189,-0.806 -0.647,-1.156 -1.375,-1.05 -0.72,0.108 -1.136,0.241 -1.25,0.4 -0.12,0.16 -0.295,0.485 -0.525,0.975 l -0.025,0.025 c 0.359,0.101 0.709,0.201 1.05,0.3 -0.083,1.67 -0.125,2.661 -0.125,2.975 0,1.2 0.066,1.983 0.2,2.35 0.162,0.378 0.528,0.778 1.1,1.2 0.03,-0.748 0.063,-1.564 0.1,-2.45 0.053,-1.427 0.12,-2.627 0.2,-3.6 0.332,0.109 0.656,0.218 0.975,0.325 z m 2.625,1.05 c 0.03,-0.573 0.063,-1.131 0.1,-1.675 -0.02,-0.03 -0.036,-0.063 -0.05,-0.1 -0.629,0.204 -1.196,0.612 -1.7,1.225 l -0.475,8.275 c -0.118,-0.047 -0.234,-0.098 -0.35,-0.15 0.021,0.069 0.045,0.136 0.075,0.2 0.267,0.633 0.667,0.95 1.2,0.95 0.329,0 0.604,-0.05 0.825,-0.15 -0.001,-0.042 -0.001,-0.083 0,-0.125 -0.188,-0.085 -0.379,-0.168 -0.575,-0.25 0.029,-0.792 0.146,-2.617 0.35,-5.475 0.081,-1.107 0.155,-2.074 0.225,-2.9 0.128,0.062 0.253,0.121 0.375,0.175 z"
   id="path31"
   inkscape:connector-curvature="0" />
		<path
   style="clip-rule:evenodd;fill:#614031;fill-rule:evenodd"
   d="m 61.3,-22.5 c 0.03,-0.639 0.063,-1.255 0.1,-1.85 0.019,-0.311 0.036,-0.61 0.05,-0.9 0.009,-0.108 0.018,-0.216 0.025,-0.325 -2.547,-1.277 -5.839,-2.452 -9.875,-3.525 -7,-1.833 -13.417,-2.75 -19.25,-2.75 -5.5,0 -11.617,0.583 -18.35,1.75 -4.7,0.833 -7.417,1.35 -8.15,1.55 -1.771,0.497 -3.388,1.23 -4.85,2.2 -0.049,0.713 -0.082,1.296 -0.1,1.75 -0.005,0.111 -0.005,0.662 0,1.65 0.067,-0.598 0.284,-0.831 0.65,-0.7 0.369,0.132 0.644,0.365 0.825,0.7 0.177,0.334 0.311,0.842 0.4,1.525 0.104,-0.525 0.313,-1.101 0.625,-1.725 0.6,-1.2 1.217,-1.85 1.85,-1.95 0.544,0.096 0.986,0.454 1.325,1.075 0.261,0.484 0.403,0.934 0.425,1.35 0.834,-0.294 1.834,-0.619 3,-0.975 0.161,-0.345 0.486,-0.937 0.975,-1.775 0.488,-0.843 1.146,-1.21 1.975,-1.1 0.831,0.115 1.531,0.69 2.1,1.725 1.77,-0.36 3.503,-0.66 5.2,-0.9 h 0.025 c 0.03,-0.034 0.055,-0.067 0.075,-0.1 1.064,-1.366 2.181,-2.132 3.35,-2.3 1.171,-0.17 1.904,0.047 2.2,0.65 0.292,0.606 0.393,0.989 0.3,1.15 l -0.025,0.025 H 26.2 c 1.068,-0.05 2.118,-0.075 3.15,-0.075 0.949,0 2.065,0.017 3.35,0.05 0.575,-1.04 1.45,-1.656 2.625,-1.85 1.176,-0.195 2,0.105 2.475,0.9 0.468,0.797 0.718,1.23 0.75,1.3 2.505,0.22 5.055,0.537 7.65,0.95 -0.079,-0.145 -0.004,-0.461 0.225,-0.95 0.236,-0.492 1.161,-0.733 2.775,-0.725 1.608,0.01 2.45,1.019 2.525,3.025 0.011,-0.064 0.019,-0.13 0.025,-0.2 0.403,0.1 0.804,0.2 1.2,0.3 0.508,0.127 1.225,0.311 2.15,0.55 0.23,-0.491 0.405,-0.816 0.525,-0.975 0.114,-0.159 0.53,-0.292 1.25,-0.4 0.728,-0.106 1.186,0.244 1.375,1.05 0.189,0.809 0.298,1.292 0.325,1.45 0.332,0.125 0.657,0.283 0.975,0.475 v 0.025 c 0.504,-0.613 1.071,-1.021 1.7,-1.225 0.014,0.037 0.03,0.071 0.05,0.1 z"
   id="path33"
   inkscape:connector-curvature="0" />
		<path
   style="clip-rule:evenodd;fill:#412823;fill-rule:evenodd"
   d="m 61.75,-33.7 v -15.525 c -0.932,-0.589 -2.266,-1.214 -4,-1.875 -2.467,-0.963 -6.425,-1.955 -11.875,-2.975 -5.454,-1.028 -10.029,-1.47 -13.725,-1.325 -3.696,0.145 -8.004,0.403 -12.925,0.775 -4.917,0.38 -9.475,1.605 -13.675,3.675 -0.767,0.367 -1.483,0.767 -2.15,1.2 -0.2,0.167 -0.433,0.5 -0.7,1 0.027,2.067 -0.115,5.034 -0.425,8.9 -0.064,0.871 -0.139,1.788 -0.225,2.75 l -0.1,1.25 c -0.034,0.2 -0.05,0.4 -0.05,0.6 0,0.2 -0.017,0.417 -0.05,0.65 1.169,-1.764 3.944,-3.047 8.325,-3.85 2.932,-0.542 6.373,-1.008 10.325,-1.4 1.952,-0.193 4.027,-0.368 6.225,-0.525 4.939,-0.354 9.989,-0.179 15.15,0.525 1.795,0.244 3.604,0.553 5.425,0.925 7.064,1.45 11.164,2.583 12.3,3.4 0.93,0.668 1.647,1.276 2.15,1.825 z"
   id="path35"
   inkscape:connector-curvature="0" />
	</g>
</symbol>



<g
   transform="matrix(0.95627557,0,0,-0.95627557,61.353138,0.01098872)"
   id="g1040">
	<g
   id="g1050"
   transform="translate(5,-261.4532)">
		<path
   style="clip-rule:evenodd;fill:#e8c859;fill-rule:evenodd"
   d="m 119.7,163.05 c -0.813,-1.211 -1.997,-2.578 -3.55,-4.1 -3.631,-3.53 -16.906,-8.297 -39.825,-14.3 -22.924,-6.009 -37.133,-8.908 -42.625,-8.7 -5.492,0.21 -11.217,1.776 -17.175,4.7 -5.954,2.926 -10.238,5.768 -12.85,8.524 0.448,1.949 0.931,3.749 1.45,5.4 2.717,4.85 10.258,8.892 22.625,12.125 9.208,2.296 18.967,4.713 29.275,7.25 10.311,2.529 20.886,4.179 31.725,4.95 10.838,0.781 18.655,-1.586 23.45,-7.101 4.788,-5.525 7.288,-8.442 7.5,-8.748 z"
   id="path1046"
   inkscape:connector-curvature="0" />
		<path
   style="clip-rule:evenodd;fill:#ffcc00;fill-rule:evenodd"
   d="m 3.675,149.175 c 2.612,-2.757 6.896,-5.599 12.85,-8.524 5.958,-2.924 11.683,-4.49 17.175,-4.7 5.492,-0.208 19.701,2.691 42.625,8.7 22.919,6.003 36.194,10.77 39.825,14.3 1.554,1.521 2.737,2.889 3.55,4.1 5.533,-7.977 8.3,-18.26 8.3,-30.85 -0.003,-1.2 -0.47,-13.858 -1.4,-37.975 -0.924,-24.117 -1.632,-39.059 -2.125,-44.825 -0.493,-5.768 -0.826,-9.951 -1,-12.55 -0.183,-2.598 -0.891,-5.848 -2.125,-9.75 -1.224,-3.909 -6.458,-7.692 -15.7,-11.35 C 96.401,12.094 86.543,9.044 76.075,6.601 65.613,4.164 54.955,2.114 44.1,0.45 33.242,-1.216 21.808,1.717 9.8,9.25 5.667,11.817 3.267,15.184 2.6,19.35 2.367,20.75 2.283,22.567 2.35,24.8 2.45,28.1 2.5,29.816 2.5,29.95 2.233,39.25 1.717,49.134 0.95,59.6 0.317,68.066 0,75.601 0,82.2 c 0,26.434 0.517,44.333 1.55,53.7 0.559,5.007 1.268,9.432 2.125,13.275 z"
   id="path1048"
   inkscape:connector-curvature="0" />
	</g>
	<use
   id="use1008"
   style="overflow:visible;opacity:0.67970001"
   transform="translate(-44.166729,-31.69823)"
   y="-220.845"
   x="-0.02"
   height="220.84399"
   width="139.429"
   xlink:href="#bottlelighter" /><use
   id="use1010"
   style="overflow:visible"
   transform="translate(-6.1667287,15.15137)"
   y="-55.425999"
   x="-0.012"
   height="55.437"
   width="61.762001"
   xlink:href="#cheapbottletop" />
	<g
   id="g1229"><path
     style="clip-rule:evenodd;fill:#b98c8e;fill-rule:evenodd"
     d="m 33.5,-130.25 1.55,9.15 93.6,21.5 c 1.434,-3.4 2.15,-7.033 2.15,-10.9 0.067,-13.5 -0.066,-26.983 -0.4,-40.45 -0.333,-13 -0.75,-26 -1.25,-39 -0.133,-3.566 -0.316,-7.15 -0.55,-10.75 -0.233,-4.033 -2.033,-6.85 -5.4,-8.45 -10.6,-5.033 -21.667,-8.85 -33.2,-11.45 -0.333,-0.1 -0.667,-0.2 -1,-0.3 -0.333,-0.1 -0.667,-0.2 -1,-0.3 -0.333,-0.1 -0.667,-0.2 -1,-0.3 L 33.5,-241 Z m 4.9,-4 v -99.7 l 48.15,17.55 c 0.3,0.1 0.6,0.183 0.9,0.25 0.3,0.1 0.6,0.2 0.9,0.3 0.3,0.1 0.6,0.184 0.9,0.25 10.367,2.333 20.333,5.767 29.9,10.3 3,1.466 4.617,4 4.85,7.6 0.2,3.267 0.367,6.5 0.5,9.7 0.433,11.7 0.8,23.4 1.1,35.1 0.3,12.133 0.417,24.267 0.35,36.4 0,3.467 -0.633,6.733 -1.9,9.8 L 39.8,-126.05 Z"
     id="path1012"
     inkscape:connector-curvature="0" /><path
     style="clip-rule:evenodd;fill:#b35b81;fill-rule:evenodd"
     d="m 38.4,-134.25 1.4,8.2 84.25,19.35 c 1.267,-3.066 1.9,-6.333 1.9,-9.8 0.066,-12.133 -0.05,-24.267 -0.35,-36.4 -0.3,-11.7 -0.667,-23.4 -1.1,-35.1 -0.133,-3.2 -0.3,-6.433 -0.5,-9.7 -0.233,-3.6 -1.85,-6.133 -4.85,-7.6 -9.566,-4.534 -19.533,-7.967 -29.9,-10.3 -0.3,-0.066 -0.6,-0.15 -0.9,-0.25 -0.3,-0.1 -0.6,-0.2 -0.9,-0.3 -0.3,-0.067 -0.6,-0.15 -0.9,-0.25 L 38.4,-233.95 Z M 97,-209.875 V -210 l 4.05,0.2 -0.425,7.825 L 106,-207 h 3 2.5 l -9,11 5,6.5 v 1 h -2.5 -4.5 l -1.75,-2.275 v 0.225 l -2.25,-0.3 0.075,-2.725 -0.525,-0.675 0.2,3.7 -2.25,-0.3 0.5,-19.15 z m -7.05,-3.425 h 2.5 v 18 h -2.5 -9.75 v -18 z m 29.45,31.35 v 0.35 c -3.733,-0.267 -6.883,-1.533 -9.45,-3.8 -0.233,-0.2 -0.333,-0.483 -0.3,-0.85 0.3,-5.7 0.55,-11.45 0.75,-17.25 l 1.15,-1.3 1.95,0.625 0.55,-0.625 2.2,0.7 0.175,7.075 0.075,-3.975 h 3 2.5 l -0.1,19.4 c -0.864,-0.062 -1.697,-0.178 -2.5,-0.35 z m -4,-4.55 c 0.05,-0.05 0.101,-0.101 0.15,-0.15 0.367,-0.367 0.55,-0.817 0.55,-1.35 0,-0.533 -0.184,-1 -0.55,-1.4 -0.042,-0.039 -0.083,-0.072 -0.125,-0.1 -0.052,0.036 -0.102,0.077 -0.15,0.125 -0.383,0.383 -0.575,0.842 -0.575,1.375 0,0.533 0.191,0.992 0.575,1.375 0.04,0.04 0.082,0.082 0.125,0.125 z m -3.175,-1.2 c 0.014,-0.269 0.03,-0.535 0.05,-0.8 -0.05,0.157 -0.075,0.324 -0.075,0.5 0,0.107 0.008,0.207 0.025,0.3 z m -27.025,-16.275 1.8,-3.275 -1.6,-1.5 z m -2.5,0.175 -0.2,4.8 0.2,-0.375 z m -14.45,4.15 c -0.403,0.1 -0.82,0.15 -1.25,0.15 -1.933,0 -3.583,-1.033 -4.95,-3.1 -1.367,-2.033 -2.05,-4.5 -2.05,-7.4 0,-2.9 0.683,-5.383 2.05,-7.45 1.367,-2.033 3.017,-3.05 4.95,-3.05 0.432,0 0.848,0.05 1.25,0.15 0.403,-0.1 0.82,-0.15 1.25,-0.15 1.933,0 3.583,1.025 4.95,3.075 1.367,2.05 2.05,4.525 2.05,7.425 0,2.9 -0.683,5.375 -2.05,7.425 -1.367,2.05 -3.017,3.075 -4.95,3.075 -0.432,0 -0.848,-0.05 -1.25,-0.15 z m 0,-17.35 c -0.315,0.271 -0.607,0.662 -0.875,1.175 -0.583,1.117 -0.875,2.475 -0.875,4.075 0,1.6 0.292,2.958 0.875,4.075 0.266,0.508 0.557,0.9 0.875,1.175 0.325,-0.279 0.625,-0.679 0.9,-1.2 0.567,-1.1 0.85,-2.45 0.85,-4.05 0,-1.6 -0.283,-2.967 -0.85,-4.1 -0.273,-0.501 -0.573,-0.884 -0.9,-1.15 z m -16.775,-6.7 1.025,-2.3 0.5,-0.5 7.5,21.5 H 58 55.5 L 51.025,-215.425 48.5,-206 46.4,-207.525 46,-206 l -3.7,-2.7 7.7,-17.3 0.5,-0.5 z"
     id="path1014"
     inkscape:connector-curvature="0" /></g><g
   id="g1221"><path
     style="clip-rule:evenodd;fill:#ff6600;fill-rule:evenodd"
     d="M 100.625,-201.975 98,-199.5 98.55,-209.8 97,-209.875 94.5,-210 l -0.5,19.15 2.25,0.3 -0.2,-3.7 0.525,0.675 2.175,2.8 1.75,2.275 h 4.5 v -1 l -5,-6.5 9,-11 h -3 z m 18.775,20.025 0.1,-19.05 h -3 l -0.075,3.975 -0.025,2.025 -2.4,0.5 -0.25,-9.6 -0.25,-0.075 -1.95,-0.625 -1.15,1.3 c -0.2,5.8 -0.45,11.55 -0.75,17.25 -0.033,0.367 0.067,0.65 0.3,0.85 2.566,2.267 5.716,3.533 9.45,3.8 z M 89.95,-213.3 H 80.2 v 18 h 9.75 z m 25.475,23.8 c 0.042,0.028 0.083,0.062 0.125,0.1 0.367,0.4 0.55,0.867 0.55,1.4 0,0.533 -0.184,0.983 -0.55,1.35 -0.049,0.049 -0.1,0.1 -0.15,0.15 -0.366,0.3 -0.783,0.45 -1.25,0.45 -0.533,0 -0.983,-0.2 -1.35,-0.6 -0.319,-0.293 -0.511,-0.643 -0.575,-1.05 -0.017,-0.093 -0.025,-0.193 -0.025,-0.3 0,-0.176 0.025,-0.343 0.075,-0.5 0.082,-0.332 0.257,-0.632 0.525,-0.9 0.367,-0.367 0.817,-0.55 1.35,-0.55 0.477,0 0.902,0.15 1.275,0.45 z m -32.725,-9.875 -0.2,0.375 0.2,-4.8 0.3,-7.2 2.4,2.25 1.6,1.5 -1.8,3.275 z M 68.25,-220.35 c -0.402,-0.1 -0.818,-0.15 -1.25,-0.15 -1.933,0 -3.583,1.017 -4.95,3.05 -1.367,2.067 -2.05,4.55 -2.05,7.45 0,2.9 0.683,5.367 2.05,7.4 1.367,2.067 3.017,3.1 4.95,3.1 0.43,0 0.847,-0.05 1.25,-0.15 1.404,-0.359 2.637,-1.343 3.7,-2.95 1.367,-2.033 2.05,-4.5 2.05,-7.4 0,-2.9 -0.683,-5.383 -2.05,-7.45 -1.062,-1.579 -2.295,-2.546 -3.7,-2.9 z m 0,13.85 c -0.383,0.333 -0.799,0.5 -1.25,0.5 -0.833,0 -1.533,-0.567 -2.1,-1.7 -0.6,-1.1 -0.9,-2.45 -0.9,-4.05 0,-1.6 0.3,-2.967 0.9,-4.1 0.567,-1.1 1.267,-1.65 2.1,-1.65 0.454,0 0.871,0.167 1.25,0.5 0.327,0.266 0.627,0.649 0.9,1.15 0.567,1.133 0.85,2.5 0.85,4.1 0,1.6 -0.283,2.95 -0.85,4.05 -0.275,0.521 -0.575,0.921 -0.9,1.2 z M 46.4,-207.525 49.5,-219 51.025,-215.425 55.5,-205 H 58 l -6.525,-18.7 -0.975,-2.8 -0.5,0.5 -7.7,17.3 3.7,2.7 z"
     id="path1016"
     inkscape:connector-curvature="0" /><path
     style="clip-rule:evenodd;fill:#660000;fill-rule:evenodd"
     d="m 98.75,-190.775 -2.175,-2.8 -0.075,2.725 2.25,0.3 z m 6.25,2.275 h 2.5 v -1 l -5,-6.5 9,-11 H 109 l -9,11 5,6.5 z m -4.375,-13.475 0.425,-7.825 L 97,-210 v 0.125 l 1.55,0.075 -0.55,10.3 z M 89.95,-213.3 v 18 h 2.5 v -18 z m 23.55,9.125 0.25,0.075 0.25,9.6 2.4,-0.5 0.025,-2.025 -0.175,-7.075 -2.2,-0.7 z m 6,3.175 -0.1,19.05 c 0.803,0.172 1.636,0.289 2.5,0.35 L 122,-201 Z m -7.225,12.5 c -0.02,0.265 -0.036,0.531 -0.05,0.8 0.063,0.407 0.255,0.757 0.575,1.05 0.367,0.4 0.817,0.6 1.35,0.6 0.467,0 0.884,-0.15 1.25,-0.45 -0.043,-0.043 -0.084,-0.085 -0.125,-0.125 -0.383,-0.383 -0.575,-0.842 -0.575,-1.375 0,-0.533 0.191,-0.992 0.575,-1.375 0.048,-0.048 0.098,-0.089 0.15,-0.125 -0.373,-0.3 -0.797,-0.45 -1.275,-0.45 -0.533,0 -0.983,0.184 -1.35,0.55 -0.268,0.268 -0.443,0.568 -0.525,0.9 z m -29.575,-10.875 2.5,-4.6 0.2,-4.775 -2.4,-2.25 -0.3,7.2 z M 68.25,-220.35 c 1.405,0.354 2.638,1.321 3.7,2.9 1.367,2.067 2.05,4.55 2.05,7.45 0,2.9 -0.683,5.367 -2.05,7.4 -1.063,1.607 -2.296,2.591 -3.7,2.95 0.402,0.1 0.818,0.15 1.25,0.15 1.933,0 3.583,-1.025 4.95,-3.075 1.367,-2.05 2.05,-4.525 2.05,-7.425 0,-2.9 -0.683,-5.375 -2.05,-7.425 -1.367,-2.05 -3.017,-3.075 -4.95,-3.075 -0.43,0 -0.847,0.05 -1.25,0.15 z m 0,13.85 c -0.318,-0.275 -0.609,-0.667 -0.875,-1.175 -0.583,-1.117 -0.875,-2.475 -0.875,-4.075 0,-1.6 0.292,-2.958 0.875,-4.075 0.268,-0.513 0.56,-0.904 0.875,-1.175 -0.379,-0.333 -0.796,-0.5 -1.25,-0.5 -0.833,0 -1.533,0.55 -2.1,1.65 -0.6,1.133 -0.9,2.5 -0.9,4.1 0,1.6 0.3,2.95 0.9,4.05 0.567,1.133 1.267,1.7 2.1,1.7 0.451,0 0.867,-0.167 1.25,-0.5 z M 58,-205 h 2.5 l -7.5,-21.5 -0.5,0.5 -1.025,2.3 z m -11.6,-2.525 2.1,1.525 2.525,-9.425 L 49.5,-219 Z"
     id="path1018"
     inkscape:connector-curvature="0" /></g>
</g>
</svg>