<?xml version="1.0" encoding="UTF-8" standalone="no"?>
<!-- Created with Inkscape (http://www.inkscape.org/) -->

<svg
   xmlns:dc="http://purl.org/dc/elements/1.1/"
   xmlns:cc="http://creativecommons.org/ns#"
   xmlns:rdf="http://www.w3.org/1999/02/22-rdf-syntax-ns#"
   xmlns:svg="http://www.w3.org/2000/svg"
   xmlns="http://www.w3.org/2000/svg"
   xmlns:sodipodi="http://sodipodi.sourceforge.net/DTD/sodipodi-0.dtd"
   xmlns:inkscape="http://www.inkscape.org/namespaces/inkscape"
   width="256"
   height="255.65837"
   viewBox="0 0 67.733331 67.642946"
   version="1.1"
   id="svg1385"
   inkscape:version="0.92.4 (5da689c313, 2019-01-14)"
   sodipodi:docname="mp5.svg"
   inkscape:export-xdpi="36"
   inkscape:export-ydpi="36">
  <title
     id="title960">MP5</title>
  <defs
     id="defs1379" />
  <sodipodi:namedview
     id="base"
     pagecolor="#ffffff"
     bordercolor="#666666"
     borderopacity="1.0"
     inkscape:pageopacity="0.0"
     inkscape:pageshadow="2"
     inkscape:zoom="2"
     inkscape:cx="177.24177"
     inkscape:cy="136.46457"
     inkscape:document-units="px"
     inkscape:current-layer="svg1385"
     showgrid="false"
     inkscape:window-width="1920"
     inkscape:window-height="1025"
     inkscape:window-x="-8"
     inkscape:window-y="-8"
     inkscape:window-maximized="1"
     inkscape:snap-global="false"
     showguides="false"
     inkscape:guide-bbox="true"
     units="px"
     fit-margin-top="0"
     fit-margin-left="0"
     fit-margin-right="0"
     fit-margin-bottom="0">
    <sodipodi:guide
       position="187.04064,198.22055"
       orientation="0,1"
       id="guide930"
       inkscape:locked="false" />
    <sodipodi:guide
       position="110.76476,191.07416"
       orientation="1,0"
       id="guide1054"
       inkscape:locked="false" />
  </sodipodi:namedview>
  <metadata
     id="metadata1382">
    <rdf:RDF>
      <cc:Work
         rdf:about="">
        <dc:format>image/svg+xml</dc:format>
        <dc:type
           rdf:resource="http://purl.org/dc/dcmitype/StillImage" />
        <dc:title>MP5</dc:title>
        <cc:license
           rdf:resource="http://creativecommons.org/publicdomain/zero/1.0/" />
        <dc:source>https://openclipart.org/detail/286224</dc:source>
        <dc:publisher>
          <cc:Agent>
            <dc:title>OpenClipart Library</dc:title>
          </cc:Agent>
        </dc:publisher>
      </cc:Work>
      <cc:License
         rdf:about="http://creativecommons.org/publicdomain/zero/1.0/">
        <cc:permits
           rdf:resource="http://creativecommons.org/ns#Reproduction" />
        <cc:permits
           rdf:resource="http://creativecommons.org/ns#Distribution" />
        <cc:permits
           rdf:resource="http://creativecommons.org/ns#DerivativeWorks" />
      </cc:License>
    </rdf:RDF>
  </metadata>
  <g
     id="g1386"
     transform="matrix(0.32288149,-0.2669005,0.2669005,0.32288149,216.21372,-10.117783)">
    <rect
       y="-205.35956"
       x="-489.07599"
       height="6.5633073"
       width="53.024605"
       id="rect1163"
       style="display:inline;opacity:1;vector-effect:none;fill:#393939;fill-opacity:1;fill-rule:evenodd;stroke:none;stroke-width:0.30377457px;stroke-linecap:butt;stroke-linejoin:miter;stroke-miterlimit:4;stroke-dasharray:none;stroke-dashoffset:0;stroke-opacity:1" />
    <rect
       y="-201.0416"
       x="-489.07599"
       height="1.3817489"
       width="53.024605"
       id="rect1165"
       style="display:inline;opacity:1;vector-effect:none;fill:#2b2b2f;fill-opacity:1;fill-rule:evenodd;stroke:none;stroke-width:0.13938133px;stroke-linecap:butt;stroke-linejoin:miter;stroke-miterlimit:4;stroke-dasharray:none;stroke-dashoffset:0;stroke-opacity:1" />
    <rect
       style="display:inline;opacity:1;vector-effect:none;fill:#808080;fill-opacity:1;fill-rule:evenodd;stroke:none;stroke-width:0.09855749px;stroke-linecap:butt;stroke-linejoin:miter;stroke-miterlimit:4;stroke-dasharray:none;stroke-dashoffset:0;stroke-opacity:1"
       id="rect1167"
       width="53.024605"
       height="0.69087452"
       x="-489.07599"
       y="-204.32326" />
    <path
       sodipodi:nodetypes="ssssssssss"
       inkscape:connector-curvature="0"
       id="path1169"
       d="m -395.19775,-218.92752 h 3.0838 c 1.18405,0 1.02452,1.73265 2.13728,2.13729 0,0 5.7096,1.02814 5.7096,2.07622 v 1.34343 c 0,1.18406 -0.95323,2.13729 -2.13728,2.13729 h -8.7934 c -1.18405,0 -2.13728,-0.95323 -2.13728,-2.13729 v -3.41965 c 0,-1.18406 0.95323,-2.13729 2.13728,-2.13729 z"
       style="display:inline;opacity:1;vector-effect:none;fill:#393939;fill-opacity:1;fill-rule:evenodd;stroke:none;stroke-width:0.30377457px;stroke-linecap:butt;stroke-linejoin:miter;stroke-miterlimit:4;stroke-dasharray:none;stroke-dashoffset:0;stroke-opacity:1" />
    <path
       sodipodi:nodetypes="cscsscc"
       inkscape:connector-curvature="0"
       id="path1171"
       d="m -404.08275,-183.84553 c 2.25942,1.14497 1.89284,4.16149 1.84723,6.09126 -0.0636,2.69232 2.27468,3.77078 2.51894,3.95398 0.99597,0.40882 1.57254,0.18054 0.79385,-0.97705 -0.92172,-1.37021 -1.47584,-0.68259 -1.19077,-4.80889 0.11886,-1.72044 1.87775,-3.35859 2.59527,-4.1677 0.24426,-0.48852 -7.23623,-1.37397 -6.56452,-0.0916 z"
       style="display:inline;opacity:1;fill:#4d4d4d;fill-opacity:1;fill-rule:evenodd;stroke:none;stroke-width:0.30377457px;stroke-linecap:butt;stroke-linejoin:miter;stroke-opacity:1" />
    <path
       sodipodi:nodetypes="cssssscccccccssccscccccccssssssc"
       inkscape:connector-curvature="0"
       id="path1173"
       d="m -386.58357,-184.18788 c -0.36566,0.0246 -3.15736,-0.76103 -2.87676,0.30685 0.13411,0.5104 1.72791,1.26799 1.23673,2.60334 -0.67306,1.82982 -1.6144,4.35942 -2.29543,6.07074 -0.55002,1.38208 -1.20326,2.21734 -1.75582,2.6954 -0.55257,0.47806 -1.04839,0.57855 -1.08983,0.57855 -0.38165,0 -2.81715,2.2e-4 -5.19571,-0.0115 -1.18928,-0.006 -2.36534,-0.0141 -3.26049,-0.0269 -0.44758,-0.007 -0.82492,-0.014 -1.09431,-0.0224 -0.13373,-0.005 -0.24008,-0.009 -0.30945,-0.0134 0.005,5.3e-4 -0.007,-2.7e-4 -0.002,0 0.0317,0.007 0.0254,0.006 -0.0695,-0.0449 -0.12705,-0.0674 -0.30744,-0.16829 -0.52473,-0.29376 -0.43459,-0.25091 -1.0165,-0.60078 -1.6594,-1.00236 -0.80446,-0.5025 -1.70771,-1.08848 -2.54509,-1.66578 -0.50104,-0.34542 -0.35258,-2.13803 -0.77118,-2.4575 -0.97129,-0.78033 -3.76327,3.54195 -2.75429,4.27288 0.61927,0.4726 2.3568,-0.39914 3.0843,0.0892 0.68487,0.45976 1.3811,0.90725 2.01977,1.30619 0.65855,0.41135 1.25377,0.77073 1.71322,1.036 0.22972,0.13264 0.42467,0.24118 0.58303,0.32516 0.15836,0.0839 0.17025,0.12716 0.46867,0.20855 0.26959,0.0735 0.24589,0.0389 0.34533,0.0449 0.0994,0.006 0.22113,0.0115 0.36552,0.0157 0.28878,0.009 0.67256,0.016 1.1257,0.0224 0.90628,0.013 2.08393,0.0234 3.27619,0.0292 2.38453,0.0115 4.82303,0.0115 5.20468,0.0115 0.72189,0 1.47665,-0.32734 2.2828,-1.0248 0.80614,-0.69745 1.61737,-1.78716 2.25812,-3.39728 0.70755,-1.77794 1.67366,-4.37647 2.34976,-6.21621 0.47392,-1.28959 0.88142,-2.00203 1.2328,-2.37429 0.57255,-0.60656 -0.67855,-1.11155 -1.34231,-1.06552 z"
       style="color:#000000;font-style:normal;font-variant:normal;font-weight:normal;font-stretch:normal;font-size:medium;line-height:normal;font-family:sans-serif;font-variant-ligatures:normal;font-variant-position:normal;font-variant-caps:normal;font-variant-numeric:normal;font-variant-alternates:normal;font-feature-settings:normal;text-indent:0;text-align:start;text-decoration:none;text-decoration-line:none;text-decoration-style:solid;text-decoration-color:#000000;letter-spacing:normal;word-spacing:normal;text-transform:none;writing-mode:lr-tb;direction:ltr;text-orientation:mixed;dominant-baseline:auto;baseline-shift:baseline;text-anchor:start;white-space:normal;shape-padding:0;clip-rule:nonzero;display:inline;overflow:visible;visibility:visible;opacity:1;isolation:auto;mix-blend-mode:normal;color-interpolation:sRGB;color-interpolation-filters:linearRGB;solid-color:#000000;solid-opacity:1;vector-effect:none;fill:#393939;fill-opacity:1;fill-rule:evenodd;stroke:none;stroke-width:1.82264745;stroke-linecap:round;stroke-linejoin:round;stroke-miterlimit:4;stroke-dasharray:none;stroke-dashoffset:0;stroke-opacity:1;color-rendering:auto;image-rendering:auto;shape-rendering:auto;text-rendering:auto;enable-background:accumulate" />
    <g
       transform="matrix(1.1558223,-0.25883338,0.25883338,1.1558223,-520.49703,-262.63882)"
       id="g1189"
       style="display:inline;opacity:1">
      <rect
         style="opacity:1;vector-effect:none;fill:#464646;fill-opacity:1;fill-rule:evenodd;stroke:none;stroke-width:0.27880833px;stroke-linecap:butt;stroke-linejoin:miter;stroke-miterlimit:4;stroke-dasharray:none;stroke-dashoffset:0;stroke-opacity:1"
         id="rect1175"
         width="8.4368134"
         height="35.818104"
         x="102.44655"
         y="89.760704"
         ry="0" />
      <rect
         ry="0"
         y="89.760704"
         x="103.35072"
         height="35.818104"
         width="1.9480039"
         id="rect1177"
         style="opacity:1;vector-effect:none;fill:#4d4d4d;fill-opacity:1;fill-rule:evenodd;stroke:none;stroke-width:0.1339712px;stroke-linecap:butt;stroke-linejoin:miter;stroke-miterlimit:4;stroke-dasharray:none;stroke-dashoffset:0;stroke-opacity:1" />
      <path
         style="opacity:1;vector-effect:none;fill:#393939;fill-opacity:1;fill-rule:evenodd;stroke:none;stroke-width:0.26458332px;stroke-linecap:butt;stroke-linejoin:miter;stroke-miterlimit:4;stroke-dasharray:none;stroke-dashoffset:0;stroke-opacity:1"
         d="m 107.51209,116.10022 c -0.29169,0 -0.52658,0.23489 -0.52658,0.52658 v 5.96759 c 0,0.2917 0.23489,0.52659 0.52658,0.52659 h 2.29754 v -0.52917 h -1.36633 c -0.24774,0 -0.44751,-0.19925 -0.44751,-0.447 v -5.06843 c 0,-0.24775 0.19977,-0.44751 0.44751,-0.44751 h 1.36633 v -0.52865 z"
         id="path1179"
         inkscape:connector-curvature="0" />
      <path
         inkscape:connector-curvature="0"
         id="path1181"
         d="m 107.51209,107.29975 c -0.29169,0 -0.52658,0.23489 -0.52658,0.52658 v 5.96759 c 0,0.2917 0.23489,0.52659 0.52658,0.52659 h 2.29754 v -0.52917 h -1.36633 c -0.24774,0 -0.44751,-0.19925 -0.44751,-0.447 v -5.06843 c 0,-0.24775 0.19977,-0.44751 0.44751,-0.44751 h 1.36633 v -0.52865 z"
         style="opacity:1;vector-effect:none;fill:#393939;fill-opacity:1;fill-rule:evenodd;stroke:none;stroke-width:0.26458332px;stroke-linecap:butt;stroke-linejoin:miter;stroke-miterlimit:4;stroke-dasharray:none;stroke-dashoffset:0;stroke-opacity:1" />
      <path
         inkscape:connector-curvature="0"
         id="path1183"
         d="m 107.51209,98.875362 c -0.29169,0 -0.52658,0.23489 -0.52658,0.52658 v 5.967588 c 0,0.2917 0.23489,0.52659 0.52658,0.52659 h 2.29754 v -0.52917 h -1.36633 c -0.24774,0 -0.44751,-0.19925 -0.44751,-0.447 v -5.068428 c 0,-0.24775 0.19977,-0.44751 0.44751,-0.44751 h 1.36633 v -0.52865 z"
         style="opacity:1;vector-effect:none;fill:#393939;fill-opacity:1;fill-rule:evenodd;stroke:none;stroke-width:0.26458332px;stroke-linecap:butt;stroke-linejoin:miter;stroke-miterlimit:4;stroke-dasharray:none;stroke-dashoffset:0;stroke-opacity:1" />
      <path
         style="opacity:1;vector-effect:none;fill:#393939;fill-opacity:1;fill-rule:evenodd;stroke:none;stroke-width:0.26458332px;stroke-linecap:butt;stroke-linejoin:miter;stroke-miterlimit:4;stroke-dasharray:none;stroke-dashoffset:0;stroke-opacity:1"
         d="m 107.51209,90.074892 c -0.29169,0 -0.52658,0.23489 -0.52658,0.52658 v 5.96759 c 0,0.2917 0.23489,0.52659 0.52658,0.52659 h 2.29754 v -0.52917 h -1.36633 c -0.24774,0 -0.44751,-0.19925 -0.44751,-0.447 v -5.06843 c 0,-0.24775 0.19977,-0.44751 0.44751,-0.44751 h 1.36633 v -0.52865 z"
         id="path1185"
         inkscape:connector-curvature="0" />
      <rect
         style="opacity:1;vector-effect:none;fill:#393939;fill-opacity:1;fill-rule:evenodd;stroke:#1a1a1a;stroke-width:0.25646907;stroke-linecap:butt;stroke-linejoin:miter;stroke-miterlimit:4;stroke-dasharray:none;stroke-dashoffset:0;stroke-opacity:1"
         id="rect1187"
         width="9.1765623"
         height="1.5043545"
         x="102.03394"
         y="125.22475"
         ry="0.52652347" />
    </g>
    <path
       sodipodi:nodetypes="cssasssssssc"
       inkscape:connector-curvature="0"
       id="path1191"
       d="m -304.98128,-219.32818 h 1.17422 c 0.61229,0 0.99932,0.15672 1.10523,0.75979 0,0 0.67436,3.20678 0.84878,4.83316 0.0638,0.59576 0.0533,1.1972 0.0715,1.79609 0.0465,1.52757 0.19141,6.1697 0.26894,12.74705 0.006,0.52097 -0.49543,1.05009 -1.10523,1.10523 l -2.36352,0.21373 c -0.6098,0.0551 -1.10523,-0.15708 -1.10523,-0.76937 v -19.92589 c 3e-5,-0.6123 0.49297,-0.75979 1.10526,-0.75979 z"
       style="display:inline;opacity:1;vector-effect:none;fill:#393939;fill-opacity:1;fill-rule:evenodd;stroke:none;stroke-width:0.2967383px;stroke-linecap:butt;stroke-linejoin:miter;stroke-miterlimit:4;stroke-dasharray:none;stroke-dashoffset:0;stroke-opacity:1" />
    <path
       sodipodi:nodetypes="ccccc"
       inkscape:connector-curvature="0"
       id="path1193"
       d="m -363.36521,-213.39098 57.32776,1.25221 v 14.03338 l -57.32776,1.68401 z"
       style="display:inline;opacity:1;vector-effect:none;fill:#2b2b2f;fill-opacity:1;fill-rule:evenodd;stroke:none;stroke-width:0.30377457px;stroke-linecap:butt;stroke-linejoin:miter;stroke-miterlimit:4;stroke-dasharray:none;stroke-dashoffset:0;stroke-opacity:1" />
    <path
       style="display:inline;opacity:1;vector-effect:none;fill:#353542;fill-opacity:1;fill-rule:evenodd;stroke:none;stroke-width:0.30377457px;stroke-linecap:butt;stroke-linejoin:miter;stroke-miterlimit:4;stroke-dasharray:none;stroke-dashoffset:0;stroke-opacity:1"
       d="m -363.36521,-205.46793 57.32776,5.31171 v 2.05083 l -57.32776,1.68401 z"
       id="path1195"
       inkscape:connector-curvature="0"
       sodipodi:nodetypes="ccccc" />
    <path
       sodipodi:nodetypes="cssssccccccssssc"
       inkscape:connector-curvature="0"
       id="path1197"
       d="m -434.87411,-213.57486 h 70.88116 c 0.3825,0 0.69044,0.30794 0.69044,0.69044 v 16.41693 c 0,0.3825 -0.30794,0.69044 -0.69044,0.69044 h -2.80946 c -1.93347,0.0602 -1.75025,2.39489 -1.4045,5.86226 l 0.33973,2.96617 -10.57703,3.94158 -27.68418,0.39638 c -2.79938,-1.6591 -5.37656,-3.74408 -7.20569,-7.26279 l -21.54003,0.0197 c -0.38249,2.6e-4 -0.69043,-0.30794 -0.69043,-0.69044 v -22.34027 c 0,-0.3825 0.30794,-0.69043 0.69043,-0.69043 z"
       style="display:inline;opacity:1;vector-effect:none;fill:#393939;fill-opacity:1;fill-rule:evenodd;stroke:none;stroke-width:0.29997063px;stroke-linecap:butt;stroke-linejoin:miter;stroke-miterlimit:4;stroke-dasharray:none;stroke-dashoffset:0;stroke-opacity:1" />
    <path
       sodipodi:nodetypes="sssssssss"
       inkscape:connector-curvature="0"
       id="path1199"
       d="m -439.80217,-210.00254 c 1.1026,-1.70491 2.20807,-3.01281 3.74105,-3.27006 0.6939,-0.11644 0.69089,0.25589 0.69089,0.9492 v 21.09916 c 0,1.08192 -0.46808,1.54863 -0.97156,1.05714 l -3.46038,-3.37801 c -0.45696,-0.44608 -1.2954,-1.78544 -1.2954,-2.18277 v -12.09189 c 0,-0.39733 0.83594,-1.47232 1.2954,-2.18277 z"
       style="display:inline;opacity:1;vector-effect:none;fill:#393939;fill-opacity:1;fill-rule:evenodd;stroke:none;stroke-width:0.09725057px;stroke-linecap:butt;stroke-linejoin:miter;stroke-miterlimit:4;stroke-dasharray:none;stroke-dashoffset:0;stroke-opacity:1" />
    <rect
       ry="0.27262092"
       y="-211.89882"
       x="-433.54672"
       height="0.54524183"
       width="67.11071"
       id="rect1201"
       style="display:inline;opacity:1;vector-effect:none;fill:#808080;fill-opacity:1;fill-rule:evenodd;stroke:none;stroke-width:0.15567163px;stroke-linecap:butt;stroke-linejoin:miter;stroke-miterlimit:4;stroke-dasharray:none;stroke-dashoffset:0;stroke-opacity:1" />
    <g
       transform="matrix(0.96800739,0,0,0.96800739,-468.88048,-274.90325)"
       id="g1209"
       style="display:inline;opacity:1">
      <path
         style="opacity:1;vector-effect:none;fill:#b3b3b3;fill-opacity:1;fill-rule:evenodd;stroke:none;stroke-width:0.17866305px;stroke-linecap:butt;stroke-linejoin:miter;stroke-miterlimit:4;stroke-dasharray:none;stroke-dashoffset:0;stroke-opacity:1"
         d="M 97.563674,68.833792 H 86.163215 c -0.09784,0.152319 -0.200677,0.303503 -0.256363,0.470656 l -0.255048,0.765581 c -0.312809,0.938948 0.232092,1.694621 1.221774,1.694621 h 8.026994 c 0.989685,0 2.038278,-0.755673 2.351086,-1.694621 l 0.255048,-0.765581 c 0.05569,-0.167175 0.05333,-0.318321 0.05697,-0.470656 z"
         id="path1203"
         inkscape:connector-curvature="0" />
      <path
         style="opacity:1;vector-effect:none;fill:#808080;fill-opacity:1;fill-rule:evenodd;stroke:none;stroke-width:0.17866305px;stroke-linecap:butt;stroke-linejoin:miter;stroke-miterlimit:4;stroke-dasharray:none;stroke-dashoffset:0;stroke-opacity:1"
         d="M 97.368664,68.092752 H 86.851668 c -0.282697,0.199812 -0.50686,0.458324 -0.688453,0.74104 h 11.400459 c 0.0068,-0.28277 -0.04538,-0.541215 -0.19501,-0.74104 z"
         id="path1205"
         inkscape:connector-curvature="0" />
      <path
         style="opacity:1;vector-effect:none;fill:#b3b3b3;fill-opacity:1;fill-rule:evenodd;stroke:none;stroke-width:0.17866305px;stroke-linecap:butt;stroke-linejoin:miter;stroke-miterlimit:4;stroke-dasharray:none;stroke-dashoffset:0;stroke-opacity:1"
         d="m 88.257935,67.609825 c -0.486487,0 -0.985706,0.18567 -1.406267,0.482927 h 10.516996 c -0.222519,-0.297159 -0.597337,-0.482927 -1.083732,-0.482927 z"
         id="path1207"
         inkscape:connector-curvature="0" />
    </g>
    <rect
       ry="0.14075623"
       y="-196.39125"
       x="-428.60043"
       height="0.36204609"
       width="59.355427"
       id="rect1211"
       style="display:inline;opacity:1;vector-effect:none;fill:#1a1a1a;fill-opacity:1;fill-rule:evenodd;stroke:none;stroke-width:0.30047297;stroke-linecap:butt;stroke-linejoin:miter;stroke-miterlimit:4;stroke-dasharray:none;stroke-dashoffset:0;stroke-opacity:1" />
    <path
       sodipodi:nodetypes="sssssssss"
       inkscape:connector-curvature="0"
       id="path1213"
       d="m -406.19304,-194.5305 c 2.96144,0 18.75789,5.17505 18.75789,5.17505 0.62598,0.1727 1.182,0.96534 1.182,1.36975 v 1.32223 c 0,0.4047 -0.5274,1.37415 -1.182,1.36976 l -18.75789,-0.12586 c -1.4688,-0.01 -2.65134,-1.06651 -2.65134,-2.39129 v -4.32835 c 0,-1.32478 1.40149,-2.39129 2.65134,-2.39129 z"
       style="display:inline;opacity:1;vector-effect:none;fill:#393939;fill-opacity:1;fill-rule:evenodd;stroke:#2b2b2f;stroke-width:0.60754919;stroke-linecap:butt;stroke-linejoin:miter;stroke-miterlimit:4;stroke-dasharray:none;stroke-dashoffset:0;stroke-opacity:1" />
    <rect
       style="display:inline;opacity:1;vector-effect:none;fill:#4d4d4d;fill-opacity:1;fill-rule:evenodd;stroke:none;stroke-width:1.05036032;stroke-linecap:butt;stroke-linejoin:miter;stroke-miterlimit:4;stroke-dasharray:none;stroke-dashoffset:0;stroke-opacity:1"
       id="rect1215"
       width="59.785099"
       height="4.3923526"
       x="-435.23126"
       y="-204.45494"
       ry="1.7076583" />
    <rect
       ry="1.143037"
       y="-209.26526"
       x="-359.63397"
       height="2.5674367"
       width="8.0687017"
       id="rect1217"
       style="display:inline;opacity:1;vector-effect:none;fill:#1a1a1a;fill-opacity:1;fill-rule:evenodd;stroke:none;stroke-width:0.17907111px;stroke-linecap:butt;stroke-linejoin:miter;stroke-miterlimit:4;stroke-dasharray:none;stroke-dashoffset:0;stroke-opacity:1" />
    <rect
       style="display:inline;opacity:1;vector-effect:none;fill:#1a1a1a;fill-opacity:1;fill-rule:evenodd;stroke:none;stroke-width:0.17907111px;stroke-linecap:butt;stroke-linejoin:miter;stroke-miterlimit:4;stroke-dasharray:none;stroke-dashoffset:0;stroke-opacity:1"
       id="rect1219"
       width="8.0687017"
       height="2.5674367"
       x="-350.64929"
       y="-209.26526"
       ry="1.143037" />
    <rect
       ry="1.143037"
       y="-209.26526"
       x="-341.55057"
       height="2.5674367"
       width="8.0687017"
       id="rect1221"
       style="display:inline;opacity:1;vector-effect:none;fill:#1a1a1a;fill-opacity:1;fill-rule:evenodd;stroke:none;stroke-width:0.17907111px;stroke-linecap:butt;stroke-linejoin:miter;stroke-miterlimit:4;stroke-dasharray:none;stroke-dashoffset:0;stroke-opacity:1" />
    <rect
       style="display:inline;opacity:1;vector-effect:none;fill:#1a1a1a;fill-opacity:1;fill-rule:evenodd;stroke:none;stroke-width:0.17907111px;stroke-linecap:butt;stroke-linejoin:miter;stroke-miterlimit:4;stroke-dasharray:none;stroke-dashoffset:0;stroke-opacity:1"
       id="rect1223"
       width="8.0687017"
       height="2.5674367"
       x="-332.39078"
       y="-209.26526"
       ry="1.143037" />
    <rect
       ry="1.143037"
       y="-209.26526"
       x="-323.59738"
       height="2.5674367"
       width="8.0687017"
       id="rect1225"
       style="display:inline;opacity:1;vector-effect:none;fill:#1a1a1a;fill-opacity:1;fill-rule:evenodd;stroke:none;stroke-width:0.17907111px;stroke-linecap:butt;stroke-linejoin:miter;stroke-miterlimit:4;stroke-dasharray:none;stroke-dashoffset:0;stroke-opacity:1" />
    <rect
       style="display:inline;opacity:1;vector-effect:none;fill:#1a1a1a;fill-opacity:1;fill-rule:evenodd;stroke:none;stroke-width:0.17907111px;stroke-linecap:butt;stroke-linejoin:miter;stroke-miterlimit:4;stroke-dasharray:none;stroke-dashoffset:0;stroke-opacity:1"
       id="rect1227"
       width="8.0687017"
       height="2.5674367"
       x="-359.02643"
       y="-203.2198"
       ry="1.143037" />
    <rect
       ry="1.143037"
       y="-203.2198"
       x="-350.04172"
       height="2.5674367"
       width="8.0687017"
       id="rect1229"
       style="display:inline;opacity:1;vector-effect:none;fill:#1a1a1a;fill-opacity:1;fill-rule:evenodd;stroke:none;stroke-width:0.17907111px;stroke-linecap:butt;stroke-linejoin:miter;stroke-miterlimit:4;stroke-dasharray:none;stroke-dashoffset:0;stroke-opacity:1" />
    <rect
       style="display:inline;opacity:1;vector-effect:none;fill:#1a1a1a;fill-opacity:1;fill-rule:evenodd;stroke:none;stroke-width:0.17907111px;stroke-linecap:butt;stroke-linejoin:miter;stroke-miterlimit:4;stroke-dasharray:none;stroke-dashoffset:0;stroke-opacity:1"
       id="rect1231"
       width="8.0687017"
       height="2.5674367"
       x="-340.94302"
       y="-203.2198"
       ry="1.143037" />
    <rect
       ry="1.143037"
       y="-203.2198"
       x="-331.78323"
       height="2.5674367"
       width="8.0687017"
       id="rect1233"
       style="display:inline;opacity:1;vector-effect:none;fill:#1a1a1a;fill-opacity:1;fill-rule:evenodd;stroke:none;stroke-width:0.17907111px;stroke-linecap:butt;stroke-linejoin:miter;stroke-miterlimit:4;stroke-dasharray:none;stroke-dashoffset:0;stroke-opacity:1" />
    <rect
       style="display:inline;opacity:1;vector-effect:none;fill:#1a1a1a;fill-opacity:1;fill-rule:evenodd;stroke:none;stroke-width:0.17907111px;stroke-linecap:butt;stroke-linejoin:miter;stroke-miterlimit:4;stroke-dasharray:none;stroke-dashoffset:0;stroke-opacity:1"
       id="rect1235"
       width="8.0687017"
       height="2.5674367"
       x="-322.98984"
       y="-203.2198"
       ry="1.143037" />
    <rect
       transform="matrix(0.99989002,0.01483056,-0.00503714,0.99998731,0,0)"
       style="display:inline;opacity:1;vector-effect:none;fill:#4d4d4d;fill-opacity:1;fill-rule:evenodd;stroke:none;stroke-width:0.15532835px;stroke-linecap:butt;stroke-linejoin:miter;stroke-miterlimit:4;stroke-dasharray:none;stroke-dashoffset:0;stroke-opacity:1"
       id="rect1237"
       width="53.12743"
       height="0.68571657"
       x="-362.0658"
       y="-206.48434"
       ry="0.34285828" />
    <rect
       ry="1.0930357"
       y="-204.28008"
       x="-302.84219"
       height="4.3179655"
       width="8.8518305"
       id="rect1239"
       style="display:inline;opacity:1;vector-effect:none;fill:#393939;fill-opacity:1;fill-rule:evenodd;stroke:none;stroke-width:0.30377457px;stroke-linecap:butt;stroke-linejoin:miter;stroke-miterlimit:4;stroke-dasharray:none;stroke-dashoffset:0;stroke-opacity:1" />
    <path
       sodipodi:nodetypes="csssscc"
       inkscape:connector-curvature="0"
       id="path1241"
       d="m -301.59615,-203.5892 h 7.36534 c 0.13322,0 0.23357,0.10186 0.23508,0.23507 l 0.006,0.47442 c 0.002,0.22477 0.0277,0.24046 -0.24047,0.24046 h -7.36535 z"
       style="display:inline;opacity:1;vector-effect:none;fill:#808080;fill-opacity:1;fill-rule:evenodd;stroke:none;stroke-width:0.13276877px;stroke-linecap:butt;stroke-linejoin:miter;stroke-miterlimit:4;stroke-dasharray:none;stroke-dashoffset:0;stroke-opacity:1" />
    <path
       style="display:inline;opacity:1;vector-effect:none;fill:#808080;fill-opacity:1;fill-rule:evenodd;stroke:none;stroke-width:0.07845064px;stroke-linecap:butt;stroke-linejoin:miter;stroke-miterlimit:4;stroke-dasharray:none;stroke-dashoffset:0;stroke-opacity:1"
       d="m -306.05392,-212.1078 h 4.26316 l 0.0103,0.33167 h -4.27261 z"
       id="path1243"
       inkscape:connector-curvature="0"
       sodipodi:nodetypes="ccccc" />
    <rect
       transform="rotate(-18.653962)"
       inkscape:transform-center-y="-1.3861238"
       inkscape:transform-center-x="-5.3334712"
       ry="0.422591"
       y="-294.59457"
       x="-301.16959"
       height="0.845182"
       width="12.85509"
       id="rect1245"
       style="display:inline;opacity:1;vector-effect:none;fill:#393939;fill-opacity:1;fill-rule:evenodd;stroke:#1a1a1a;stroke-width:0.30377457;stroke-linecap:butt;stroke-linejoin:miter;stroke-miterlimit:4;stroke-dasharray:none;stroke-dashoffset:0;stroke-opacity:1" />
    <path
       sodipodi:nodetypes="cscssssssacsc"
       inkscape:connector-curvature="0"
       id="path1247"
       d="m -427.01275,-190.04365 c 2.87007,0.91598 6.53398,6.04546 2.19835,11.35813 -4.33563,5.31268 -10.80855,13.61756 -10.99174,16.67081 2.23486,1.7147 14.03158,8.56143 14.83885,8.67127 1.21329,0.16509 0.7009,-2.70552 2.10082,-5.92313 0.60374,-1.38764 1.78167,-1.79842 2.33558,-2.91289 0.91806,-1.84713 0.148,-3.07351 1.0354,-4.61972 0.57409,-1.00032 1.36446,-1.32684 1.91339,-2.2171 0.71383,-1.15768 -0.0824,-1.70808 0.6483,-2.89339 0.47472,-0.77006 1.72608,-0.96581 2.34761,-1.70743 2.21032,-2.63743 4.39669,-8.97659 4.51883,-9.28192 -1.8625,-0.58012 -5.2741,-3.71999 -7.26677,-7.14463 -0.94527,-1.62457 -8.39647,-1.00758 -13.67862,0 z"
       style="display:inline;opacity:1;fill:#2b2b2f;fill-opacity:1;fill-rule:evenodd;stroke:none;stroke-width:0.30377457px;stroke-linecap:butt;stroke-linejoin:miter;stroke-opacity:1" />
    <path
       sodipodi:nodetypes="ccsssc"
       inkscape:connector-curvature="0"
       id="path1249"
       d="m -434.09631,-160.91553 c 1.16023,0.79385 3.90817,2.38154 4.51883,2.809 2.01515,-3.17539 10.50322,-18.6249 12.27411,-19.90727 1.77089,-1.28237 -1.5877,-10.38109 -3.72498,-6.47291 -0.70917,1.29676 0.0272,3.96365 -1.80751,6.50847 -3.69462,5.12475 -10.28118,12.32952 -11.26045,17.06271 z"
       style="display:inline;opacity:1;fill:#353542;fill-opacity:1;fill-rule:evenodd;stroke:none;stroke-width:0.30377457px;stroke-linecap:butt;stroke-linejoin:miter;stroke-opacity:1" />
    <rect
       style="display:inline;opacity:1;vector-effect:none;fill:#808080;fill-opacity:1;fill-rule:evenodd;stroke:none;stroke-width:0.05893197px;stroke-linecap:butt;stroke-linejoin:miter;stroke-miterlimit:4;stroke-dasharray:none;stroke-dashoffset:0;stroke-opacity:1"
       id="rect1251"
       width="9.6177759"
       height="0.54524183"
       x="-396.90759"
       y="-215.74593"
       ry="0.27262092" />
    <path
       style="display:inline;opacity:1;vector-effect:none;fill:#2b2b2f;fill-opacity:1;fill-rule:evenodd;stroke:none;stroke-width:0.13276877px;stroke-linecap:butt;stroke-linejoin:miter;stroke-miterlimit:4;stroke-dasharray:none;stroke-dashoffset:0;stroke-opacity:1"
       d="m -301.59615,-200.66346 h 7.36534 c 0.13322,0 0.23357,-0.10186 0.23508,-0.23507 l 0.006,-0.47442 c 0.002,-0.22477 0.0277,-0.24046 -0.24047,-0.24046 h -7.36535 z"
       id="path1253"
       inkscape:connector-curvature="0"
       sodipodi:nodetypes="csssscc" />
    <path
       sodipodi:nodetypes="sssssssss"
       inkscape:connector-curvature="0"
       id="path1255"
       d="m -378.5781,-194.465 4.54222,0.95073 c 0.92598,0.19382 1.8466,0.2937 2.09145,1.2075 l 0.703,2.62364 c 0.24486,0.91381 -0.29368,1.84659 -1.2075,2.09145 l -4.54222,1.21708 c -0.91381,0.24486 -1.95412,-0.27148 -2.09145,-1.2075 l -0.703,-4.79145 c -0.13733,-0.93602 0.28152,-2.28526 1.2075,-2.09145 z"
       style="display:inline;opacity:1;vector-effect:none;fill:#393939;fill-opacity:1;fill-rule:evenodd;stroke:#2b2b2f;stroke-width:0.60754919;stroke-linecap:butt;stroke-linejoin:miter;stroke-miterlimit:4;stroke-dasharray:none;stroke-dashoffset:0;stroke-opacity:1" />
    <path
       style="display:inline;opacity:1;vector-effect:none;fill:#393939;fill-opacity:1;fill-rule:evenodd;stroke:#2b2b2f;stroke-width:0.60754919;stroke-linecap:butt;stroke-linejoin:miter;stroke-miterlimit:4;stroke-dasharray:none;stroke-dashoffset:0;stroke-opacity:1"
       d="m -386.87598,-191.55435 c -1.0877,0 -6.88953,-1.90073 -6.88953,-1.90073 -0.22992,-0.0634 -0.43413,-0.35456 -0.43413,-0.50309 v -0.48564 c 0,-0.14864 0.1937,-0.50471 0.43413,-0.50309 l 6.88953,0.0462 c 0.53947,0.004 0.9738,0.39171 0.9738,0.87829 v 1.58975 c 0,0.48657 -0.51475,0.87828 -0.9738,0.87828 z"
       id="path1257"
       inkscape:connector-curvature="0"
       sodipodi:nodetypes="sssssssss" />
    <rect
       ry="0.36203659"
       y="-201.92924"
       x="-435.23126"
       height="0.93121225"
       width="59.223831"
       id="rect1319"
       style="display:inline;opacity:1;vector-effect:none;fill:#393939;fill-opacity:1;fill-rule:evenodd;stroke:none;stroke-width:0.4813554;stroke-linecap:butt;stroke-linejoin:miter;stroke-miterlimit:4;stroke-dasharray:none;stroke-dashoffset:0;stroke-opacity:1" />
    <rect
       style="display:inline;opacity:1;vector-effect:none;fill:#2b2b2f;fill-opacity:1;fill-rule:evenodd;stroke:none;stroke-width:0.13804294px;stroke-linecap:butt;stroke-linejoin:miter;stroke-miterlimit:4;stroke-dasharray:none;stroke-dashoffset:0;stroke-opacity:1"
       id="rect1259"
       width="10.017675"
       height="7.1739597"
       x="-442.70105"
       y="-205.66489" />
    <rect
       y="-201.13397"
       x="-442.70105"
       height="1.9822785"
       width="10.017675"
       id="rect1261"
       style="display:inline;opacity:1;vector-effect:none;fill:#1a1a1a;fill-opacity:1;fill-rule:evenodd;stroke:none;stroke-width:0.07256332px;stroke-linecap:butt;stroke-linejoin:miter;stroke-miterlimit:4;stroke-dasharray:none;stroke-dashoffset:0;stroke-opacity:1" />
    <rect
       style="display:inline;opacity:1;vector-effect:none;fill:#393939;fill-opacity:1;fill-rule:evenodd;stroke:none;stroke-width:0.04616544px;stroke-linecap:butt;stroke-linejoin:miter;stroke-miterlimit:4;stroke-dasharray:none;stroke-dashoffset:0;stroke-opacity:1"
       id="rect1263"
       width="10.017675"
       height="0.80235094"
       x="-442.70105"
       y="-204.95694" />
    <path
       sodipodi:nodetypes="ssscsssssss"
       inkscape:connector-curvature="0"
       id="path1273"
       d="m -493.16739,-210.72531 h 2.05385 c 2.26793,0 4.1974,1.56719 4.09374,3.50932 l -0.31183,5.84258 -6.34252,26.54134 c -0.3066,1.28303 -2.01774,2.36403 -3.54552,2.36403 h -1.38356 c -1.52778,0 -3.60313,-1.17364 -2.75772,-2.36403 1.87793,-2.64423 5.56573,-18.30201 4.23362,-26.82785 -0.60255,-3.85642 -0.13381,-5.55607 -0.13381,-5.55607 -0.38968,-1.91525 1.82581,-3.50932 4.09375,-3.50932 z"
       style="display:inline;opacity:1;vector-effect:none;fill:#2b2b2f;fill-opacity:1;fill-rule:evenodd;stroke:none;stroke-width:0.36284548px;stroke-linecap:butt;stroke-linejoin:miter;stroke-miterlimit:4;stroke-dasharray:none;stroke-dashoffset:0;stroke-opacity:1" />
    <path
       style="display:inline;opacity:1;vector-effect:none;fill:#353542;fill-opacity:1;fill-rule:evenodd;stroke:none;stroke-width:0.36284548px;stroke-linecap:butt;stroke-linejoin:miter;stroke-miterlimit:4;stroke-dasharray:none;stroke-dashoffset:0;stroke-opacity:1"
       d="m -490.32575,-202.14863 c 2.26794,0 3.40961,-7.00949 3.30595,-5.06736 l -0.31183,5.84258 -6.34252,26.54134 c -0.3066,1.28303 -2.01774,2.36403 -3.54552,2.36403 h -1.38356 c -1.52778,0 3.56647,-6.36386 4.33244,-9.79265 1.58535,-7.09671 3.13875,-11.98659 3.94504,-19.88794 z"
       id="path1275"
       inkscape:connector-curvature="0"
       sodipodi:nodetypes="cscssssc" />
    <circle
       r="2.0598788"
       cy="-207.95233"
       cx="-310.66074"
       id="path1296"
       style="display:inline;opacity:1;vector-effect:none;fill:#4d4d4d;fill-opacity:1;fill-rule:evenodd;stroke:#313131;stroke-width:0.26458332;stroke-linecap:butt;stroke-linejoin:miter;stroke-miterlimit:4;stroke-dasharray:none;stroke-dashoffset:0;stroke-opacity:1" />
    <circle
       style="display:inline;opacity:1;vector-effect:none;fill:#4d4d4d;fill-opacity:1;fill-rule:evenodd;stroke:#313131;stroke-width:0.26458332;stroke-linecap:butt;stroke-linejoin:miter;stroke-miterlimit:4;stroke-dasharray:none;stroke-dashoffset:0;stroke-opacity:1"
       id="circle1313"
       cx="-382.49512"
       cy="-187.18253"
       r="1.5626459" />
    <circle
       r="1.5626459"
       cy="-193.9294"
       cx="-434.75034"
       id="circle1315"
       style="display:inline;opacity:1;vector-effect:none;fill:#4d4d4d;fill-opacity:1;fill-rule:evenodd;stroke:#313131;stroke-width:0.26458332;stroke-linecap:butt;stroke-linejoin:miter;stroke-miterlimit:4;stroke-dasharray:none;stroke-dashoffset:0;stroke-opacity:1" />
    <circle
       r="0.72225904"
       cy="-214.48093"
       cx="-393.4975"
       id="circle1317"
       style="display:inline;opacity:1;vector-effect:none;fill:#4d4d4d;fill-opacity:1;fill-rule:evenodd;stroke:#313131;stroke-width:0.26458332;stroke-linecap:butt;stroke-linejoin:miter;stroke-miterlimit:4;stroke-dasharray:none;stroke-dashoffset:0;stroke-opacity:1" />
    <path
       sodipodi:nodetypes="sssssssss"
       inkscape:connector-curvature="0"
       id="rect1321"
       d="m -402.52405,-190.80193 0.5098,0.92747 c 0.25819,0.46973 0.0974,1.07384 -0.38184,1.31395 l -9.60216,4.81093 c -0.34817,0.17449 -0.76705,0.0639 -0.95464,-0.27741 l -0.37039,-0.67384 c -0.18759,-0.34128 -0.0565,-0.75418 0.27742,-0.95465 l 9.20786,-5.52828 c 0.45956,-0.27589 1.05576,-0.0879 1.31395,0.38183 z"
       style="opacity:1;vector-effect:none;fill:#464646;fill-opacity:1;fill-rule:evenodd;stroke:#2b2b2f;stroke-width:0.26458332px;stroke-linecap:butt;stroke-linejoin:miter;stroke-miterlimit:4;stroke-dasharray:none;stroke-dashoffset:0;stroke-opacity:1" />
    <rect
       transform="matrix(0.83841618,-0.54503056,0.45627684,0.88983787,0,0)"
       ry="0.32713372"
       y="-382.34698"
       x="-278.0058"
       height="2.268127"
       width="0.50037032"
       id="rect1324"
       style="opacity:1;vector-effect:none;fill:#393939;fill-opacity:1;fill-rule:evenodd;stroke:none;stroke-width:0.15257807px;stroke-linecap:butt;stroke-linejoin:miter;stroke-miterlimit:4;stroke-dasharray:none;stroke-dashoffset:0;stroke-opacity:1" />
  </g>
</svg>
