<?xml version="1.0" encoding="UTF-8" standalone="no"?>
<!-- Created with Inkscape (http://www.inkscape.org/) -->

<svg
   xmlns:dc="http://purl.org/dc/elements/1.1/"
   xmlns:cc="http://creativecommons.org/ns#"
   xmlns:rdf="http://www.w3.org/1999/02/22-rdf-syntax-ns#"
   xmlns:svg="http://www.w3.org/2000/svg"
   xmlns="http://www.w3.org/2000/svg"
   xmlns:sodipodi="http://sodipodi.sourceforge.net/DTD/sodipodi-0.dtd"
   xmlns:inkscape="http://www.inkscape.org/namespaces/inkscape"
   width="256"
   height="256"
   viewBox="0 0 240.00001 240.00001"
   id="svg4437"
   version="1.1"
   inkscape:version="0.92.4 (5da689c313, 2019-01-14)"
   sodipodi:docname="caduceus.svg">
  <title
     id="title824">caduceus</title>
  <defs
     id="defs4439" />
  <sodipodi:namedview
     id="base"
     pagecolor="#ffffff"
     bordercolor="#666666"
     borderopacity="1.0"
     inkscape:pageopacity="0.0"
     inkscape:pageshadow="2"
     inkscape:zoom="2.6546746"
     inkscape:cx="59.12694"
     inkscape:cy="132.5024"
     inkscape:document-units="px"
     inkscape:current-layer="layer1"
     showgrid="false"
     fit-margin-top="0"
     fit-margin-left="0"
     fit-margin-right="0"
     fit-margin-bottom="0"
     inkscape:window-width="1920"
     inkscape:window-height="1025"
     inkscape:window-x="-8"
     inkscape:window-y="-8"
     inkscape:window-maximized="1"
     units="px" />
  <metadata
     id="metadata4442">
    <rdf:RDF>
      <cc:Work
         rdf:about="">
        <dc:format>image/svg+xml</dc:format>
        <dc:type
           rdf:resource="http://purl.org/dc/dcmitype/StillImage" />
        <dc:title>caduceus</dc:title>
        <dc:creator>
          <cc:Agent>
            <dc:title>Firkin</dc:title>
          </cc:Agent>
        </dc:creator>
        <dc:date>2016-12-22 11:10:12</dc:date>
        <dc:source>https://openclipart.org/detail/269438/caduceus-2</dc:source>
        <dc:publisher>
          <cc:Agent>
            <dc:title>OpenClipart</dc:title>
          </cc:Agent>
        </dc:publisher>
        <cc:license
           rdf:resource="http://creativecommons.org/publicdomain/zero/1.0/" />
      </cc:Work>
      <cc:License
         rdf:about="http://creativecommons.org/publicdomain/zero/1.0/">
        <cc:permits
           rdf:resource="http://creativecommons.org/ns#Reproduction" />
        <cc:permits
           rdf:resource="http://creativecommons.org/ns#Distribution" />
        <cc:permits
           rdf:resource="http://creativecommons.org/ns#DerivativeWorks" />
      </cc:License>
    </rdf:RDF>
  </metadata>
  <g
     inkscape:label="Layer 1"
     inkscape:groupmode="layer"
     id="layer1"
     transform="translate(-431.38202,-309.88118)">
    <g
       transform="matrix(0.54424986,0.53970811,-0.53970811,0.54424986,542.32891,278.69839)"
       id="g4404">
      <path
         inkscape:connector-curvature="0"
         id="path4205"
         d="m 146.49825,8.3092773 c -4.19926,-0.5251813 -7.80768,1.7111607 -10.19057,5.0272457 -3.48824,3.054033 -2.33977,8.309947 -2.08524,12.278324 3.14677,2.378024 5.3273,6.855743 9.09086,7.937886 4.97197,-0.02284 11.3462,-0.268937 13.73461,-5.545219 3.83288,-4.828229 3.2494,-12.232372 -1.41368,-16.263582 -2.49915,-2.179552 -5.74969,-3.7336304 -9.13598,-3.4346547 z m 5.46823,5.4606727 c 5.48309,2.247328 4.03127,10.658663 -0.59974,12.866726 -0.86575,0.399139 -3.43815,1.783577 -3.8328,1.030648 3.50338,-2.730325 6.47819,-7.154927 4.50332,-11.70551 -0.0672,-0.600665 -0.36761,-1.694373 -0.0708,-2.191864 z"
         style="opacity:1;fill:#3d3935;fill-opacity:1;stroke:none;stroke-width:18;stroke-miterlimit:4;stroke-dasharray:none;stroke-opacity:1" />
      <path
         inkscape:connector-curvature="0"
         id="path4207"
         d="m 191.50391,7.046875 c -0.49271,-0.00999 -0.98732,-0.00748 -1.48438,0.011719 -6.7781,-0.2503625 -13.51829,2.5549606 -17.50391,8.169922 -5.91689,7.398015 -3.85243,19.009096 2.92774,25.191406 3.1854,2.254424 4.25694,4.686972 1.01172,7.425781 -3.71998,6.241018 -11.80225,7.312824 -18.17774,5.166016 -3.74333,0.225174 -0.87609,6.540838 -1.76953,9.210937 0.24621,4.02335 -0.50154,8.269278 0.36719,12.152344 9.72768,3.211045 21.92128,1.982471 28.86914,-6.285156 2.5948,-3.419018 6.11079,-8.231219 4.1543,-12.666016 0.86531,-1.000884 3.98508,-0.616899 5.79297,-0.935547 6.28931,0.07794 12.77384,-1.96372 16.66601,-7.18164 4.51994,-4.762011 5.44765,-11.544356 5.28516,-17.830079 6.33144,10.035207 16.10789,17.105146 25.7207,23.751954 10.19034,7.007407 22.31328,13.524129 35.07617,12.167968 3.0497,-0.694508 7.97886,-1.829268 8.17383,-5.636718 -1.8921,-3.581045 -7.01754,-3.246305 -10.16797,-5.263672 -23.08942,-10.69494 -42.59375,-27.406683 -64.24414,-40.53125 -6.40691,-3.43704 -13.30669,-6.7681214 -20.69726,-6.917969 z M 104.23438,7.8222656 C 100.38764,7.7394893 96.448585,8.1524505 92.71875,8 66.449779,19.990799 45.130683,40.433464 18.957031,52.523438 c -3.773013,2.154643 -8.21353,3.501564 -11.5957029,6.148437 1.6140832,2.555071 5.6582859,3.193157 8.6347659,3.927734 13.160512,1.915329 24.583005,-6.70477 35.314453,-12.945312 9.638075,-6.029096 19.075726,-12.495928 27.263672,-20.412109 0.231591,7.781101 2.62845,15.98458 9.1875,20.779296 4.56104,4.450526 11.156453,4.95083 16.988281,6.066407 -2.53662,3.647297 0.0593,8.585147 1.97852,11.988281 4.76391,5.678114 12.12888,9.610948 19.69921,9.02539 3.39771,-0.202678 9.46406,0.641237 10.00782,-4.113281 0.64121,-6.440968 1.07561,-13.141994 0.58789,-19.5 -4.17743,0.03718 -8.5275,1.144168 -12.80469,1.298828 -3.06825,-3.326921 -7.84574,-6.515293 -8.21289,-11.367187 2.49715,-5.18034 8.64404,-8.367882 8.94141,-14.673828 1.96697,-7.549037 -2.9217,-15.084056 -9.75196,-18.126953 -3.3613,-2.1347437 -7.1142,-2.714099 -10.96093,-2.7968754 z"
         style="opacity:1;fill:#9d3b00;fill-opacity:1;stroke:none;stroke-width:18;stroke-miterlimit:4;stroke-dasharray:none;stroke-opacity:1" />
      <path
         sodipodi:nodetypes="ccccccccsccccccsccccccccccccccsccccccsscccccssccccccccscccccccccscccccscccccc"
         inkscape:connector-curvature="0"
         id="path4211"
         d="m 73.371094,38.09375 c -9.627806,5.954326 -18.223795,13.651708 -27.955078,19.556641 -4.433886,2.869028 -9.079033,5.717272 -14.082032,7.261718 -2.309369,2.198864 1.653088,3.451504 3.367188,3.798829 9.43154,2.867372 18.449245,-2.859654 25.957031,-7.882813 5.66308,-4.122137 12.486696,-7.039688 17.142578,-12.349609 1.37518,-3.360506 -1.21922,-6.978907 -2.890625,-9.785157 -0.398231,-0.404735 -0.961207,-0.676841 -1.539062,-0.599609 z m 148.080076,3.027344 c -0.12018,-0.0094 -0.24232,-0.0055 -0.36523,0.01563 -4.08344,1.185488 -2.79972,6.887427 -1.10742,9.628906 7.06868,9.201103 17.33465,15.666406 27.87695,20.232422 3.93186,1.355066 9.06736,2.508147 12.74805,0.119141 1.24822,-1.885271 0.0537,-4.441679 -2.19727,-4.583985 -12.88526,-6.991588 -23.84761,-16.899946 -35.92969,-25.066406 -0.31938,-0.168878 -0.66484,-0.317497 -1.02539,-0.345703 z M 80.228516,49.535156 79.65625,49.5625 c -9.137986,6.951297 -17.350356,15.321725 -27.628906,20.728516 -2.205553,0.584882 -2.604789,4.078611 0.01367,4.240234 9.005511,1.269254 17.478354,-2.978957 24.322265,-8.443359 3.763546,-3.056745 8.121105,-5.698809 11.306641,-9.269532 -2.011202,-2.697653 -4.559391,-5.426067 -7.441406,-7.283203 z m 134.472654,2.90625 c -2.62761,0.744291 -6.90288,3.207298 -5.59765,6.494141 4.25053,6.300128 10.62499,11.153061 17.36718,14.5625 4.91902,1.821939 10.8144,3.431383 15.86328,1.423828 1.63476,-2.333223 -2.37537,-3.835001 -3.79882,-5.005859 -8.12668,-4.457645 -14.55678,-11.146259 -21.6836,-16.878907 -0.64719,-0.380798 -1.38845,-0.655653 -2.15039,-0.595703 z m -121.748045,4.28125 c -0.312695,-0.0094 -0.62504,-0.0066 -0.9375,0.0098 -4.153203,0.588771 -6.524809,4.943388 -9.726563,7.257812 -3.700676,3.85078 -8.159769,7.225978 -11.091796,11.697266 0.797906,2.559029 4.686375,1.424013 6.845703,1.435547 7.941716,-1.71023 14.561545,-7.343748 19.746093,-13.357422 2.309038,-2.214894 1.361707,-6.361572 -2.052734,-6.644531 -0.909158,-0.22852 -1.845119,-0.370272 -2.783203,-0.398438 z M 200.1875,57.224609 c -3.14132,0.06467 -7.08618,2.831357 -5.07422,6.183594 4.78521,8.172075 13.30165,15.366446 23.10938,15.699219 2.67041,0.03457 3.81369,-3.337418 1.28515,-4.646484 -6.50572,-4.346276 -10.03865,-11.699377 -15.94922,-16.615235 -0.82547,-0.502665 -1.80466,-0.623377 -2.7539,-0.597656 -0.20028,-0.02034 -0.40777,-0.02775 -0.61719,-0.02344 z m -99.50977,8.421875 c -0.13232,-0.01751 -0.26612,-0.01316 -0.39648,0.01367 -4.119812,2.74853 -7.474329,7.130351 -9.667969,11.449219 2.52492,6.861826 7.975192,12.959033 14.511719,16.314453 4.86774,-1.889373 8.92065,-6.145171 14.42188,-6.68164 5.81829,-1.10332 11.64188,1.023248 17.2871,1.484374 0.29111,-2.244363 1.90249,-8.04548 -1.8789,-7.667968 -7.40868,-0.871031 -16.08522,1.479692 -22.38477,-3.63086 -4.68371,-2.818244 -7.66237,-7.50028 -11.51172,-11.166015 -0.119,-0.05885 -0.24853,-0.09772 -0.38086,-0.115235 z m 92.23829,3.232422 c -6.38688,3.027024 -10.80569,9.797548 -18.28907,10.597656 -5.86509,1.456023 -12.00784,0.402952 -17.83593,0.564454 -0.23486,2.224964 -1.46284,7.470761 2.25586,7.550781 5.54314,-0.73192 11.16427,-2.967174 16.72265,-0.78125 5.76023,1.133453 9.78102,6.040625 15.10156,7.90625 5.04996,-2.313283 8.51436,-7.248333 11.74024,-11.638672 3.01831,-3.630218 -1.85628,-7.117952 -3.84766,-9.765625 -1.74784,-1.529577 -3.37884,-4.117561 -5.84765,-4.433594 z m -56.28321,29.65625 c -0.11438,-0.009 -0.23094,0.0021 -0.34375,0.03516 -4.60699,2.718314 -9.12538,5.900894 -13.97265,8.007804 1.26069,2.78097 5.53533,3.32657 8.10937,5.0918 1.92793,1.13399 6.04678,3.01106 6.79102,-0.41797 0.62964,-3.98737 1.01118,-8.21591 0.2539,-12.18554 -0.16863,-0.301162 -0.49473,-0.504357 -0.83789,-0.53125 z m 19.29212,-1.413532 c -2.03909,3.099446 0.47053,9.185156 -0.0636,12.729936 -0.56337,4.17449 4.36694,1.39034 6.54883,1.03516 2.555,-1.09636 6.90913,-1.5497 8.72741,-3.78042 -0.44492,-2.90463 -5.57241,-2.65943 -7.50085,-4.42271 -2.32244,-1.00096 -5.14962,-5.408271 -7.71179,-5.561966 z"
         style="opacity:1;fill:#8d2c00;fill-opacity:1;stroke:none;stroke-width:18;stroke-miterlimit:4;stroke-dasharray:none;stroke-opacity:1" />
      <path
         inkscape:connector-curvature="0"
         id="path4188"
         d="m 140.87305,35.912109 c -0.76715,0.02034 -1.51191,0.120599 -2.20117,0.41211 -0.48041,21.588391 -0.20815,43.347142 -0.0273,65.000001 0.50934,6.79626 -0.46156,14.00019 1.62109,20.53711 2.73205,2.00123 6.38469,3.76288 9.80079,3.57226 2.43213,-2.10251 0.82887,-6.14336 1.57226,-8.94921 1.16203,-26.206884 1.8437,-52.431929 2.54688,-78.654302 -2.13334,-2.283276 -6.381,-1.436165 -9.44922,-1.855469 -1.24433,0.09372 -2.58471,-0.09641 -3.86328,-0.0625 z m 1.4414,114.873051 c -0.63955,0.0153 -1.27729,0.13143 -1.90039,0.36914 -0.04,8.62526 0.036,17.49069 1.14453,26.11523 0.53387,2.91404 4.0784,5.73708 6.95899,4.77539 2.6355,-3.71263 1.32469,-8.92042 1.97656,-13.22265 -0.31635,-4.68346 1.45242,-9.96213 -0.79297,-14.29297 -1.80874,-1.98793 -4.61532,-3.81049 -7.38672,-3.74414 z m 0.49219,60.86328 c -0.42117,0.0224 -0.79854,0.16641 -1.09961,0.4707 0.45878,7.39668 -1.24005,15.41318 1.69141,22.44336 0.93493,1.70176 4.62945,4.29369 5.27734,1.12109 0.86435,-6.71463 1.43193,-13.89101 -0.55664,-20.43945 -0.83848,-1.49177 -3.48741,-3.69295 -5.3125,-3.5957 z m 1.50391,54.12109 c -2.68779,1.22444 -1.13253,5.31489 -1.50782,7.67578 0.32148,2.92068 -0.2951,8.71942 3.87305,8.96875 2.82547,-1.40569 0.94544,-5.64892 1.36914,-8.10547 -0.33709,-2.86528 0.30508,-8.12983 -3.73437,-8.53906 z m 0.57226,35.39844 c -0.0599,0.005 -0.11869,0.0147 -0.17773,0.0117 -1.16747,0.28632 -1.09431,1.74023 -1.21875,2.68945 -0.47421,7.87146 -0.16045,15.76502 0.0449,23.64063 0.24889,6.33819 0.40234,12.68945 1.05664,19.00195 0.0305,0.82467 0.3989,2.03369 1.45508,1.84961 1.14774,-0.31484 0.96841,-1.73788 1.08594,-2.66211 0.30233,-7.28208 0.18416,-14.57532 0.11132,-21.86133 -0.14677,-6.66775 -0.21526,-13.35239 -0.89453,-19.99219 -0.17969,-0.93996 -0.11807,-2.38823 -1.28515,-2.66211 -0.0574,-0.0194 -0.1178,-0.0202 -0.17774,-0.0156 z"
         style="opacity:1;fill:#3d3935;fill-opacity:1;stroke:none;stroke-width:18;stroke-miterlimit:4;stroke-dasharray:none;stroke-opacity:1" />
      <path
         inkscape:connector-curvature="0"
         id="path4178"
         d="m 124.11133,87.240234 c -9.02211,0.06536 -18.26614,5.391134 -21.5918,14.005856 -1.56055,4.00948 -1.48009,8.55887 -0.27539,12.64844 2.20314,6.64251 6.93019,12.2326 12.7207,16.07422 7.94239,5.28233 16.6857,9.19337 25.22266,13.39258 5.61377,2.74783 11.3596,5.31258 16.59961,8.74414 3.0589,2.26128 5.80583,5.38136 6.24219,9.31641 0.84202,6.06517 -2.15628,11.98369 -6.30274,16.23046 -1.47075,1.73415 -3.62871,3.3193 -3.90234,5.73047 0.0737,2.32229 2.39175,3.66291 4.09375,4.83594 2.41406,1.39348 4.91045,3.01893 7.74805,3.28125 2.46885,-0.51803 4.47399,-2.26528 6.49804,-3.67773 6.31682,-4.62836 10.76137,-11.75453 11.88086,-19.5293 0.64413,-4.43427 0.57283,-8.9895 -0.11133,-13.41406 -0.97728,-5.30604 -4.99866,-9.26566 -8.3789,-13.19336 -2.06228,-2.1962 -4.17315,-4.55968 -7.08594,-5.59961 -5.302,-2.91874 -10.64053,-5.8272 -16.36719,-7.84375 -9.35198,-3.41076 -19.27735,-5.64896 -27.77344,-11.05078 -3.74465,-2.43491 -7.61313,-5.40555 -9.19335,-9.7461 -0.85691,-2.93923 -1.161,-6.02661 -1.03125,-9.099607 -0.0647,-0.837747 0.48484,-0.320945 0.82812,0.0078 1.93103,1.984517 4.49516,3.467157 7.33203,3.447267 4.18121,0.29809 8.52829,-0.94955 11.62695,-3.839845 1.80669,-1.684881 3.72801,-4.080384 3.10157,-6.708985 -0.91586,-2.261174 -3.6343,-2.768945 -5.73242,-3.367187 -2.01325,-0.461369 -4.08433,-0.661771 -6.14844,-0.644532 z m -0.63672,4.169922 c 1.18376,0.01077 0.35727,0.143586 -0.30469,0.236328 -0.96517,0.01093 -1.89637,0.777879 -2.83594,0.535157 -0.34936,-0.304719 0.74096,-0.457581 0.95313,-0.5625 0.71486,-0.16862 1.45415,-0.228733 2.1875,-0.208985 z M 123.00977,200.1582 c -2.54406,0.12754 -3.78936,2.7819 -4.93165,4.68946 -2.49255,4.3961 -4.47828,9.26491 -4.41015,14.40039 -0.32778,6.22323 1.55099,12.36707 4.20117,17.93164 2.25039,4.39569 6.03849,7.72901 9.63281,11.00976 4.18886,3.82315 9.3597,6.3892 14.22071,9.11719 4.0945,2.53035 8.47557,5.46077 10.5625,10 0.89035,1.8661 0.82461,4.09425 -0.28125,5.85938 -1.6102,3.27364 -1.43911,7.06446 -1.19141,10.60351 0.3559,2.05082 1.28321,4.56982 3.65625,4.875 3.14795,0.22662 5.72424,-2.08882 7.91797,-4.04492 4.5451,-4.20414 7.6211,-10.13151 7.69336,-16.39258 0.22711,-6.03665 -2.11638,-12.02177 -6.17578,-16.46484 -4.12396,-4.82809 -9.46332,-8.38758 -14.83203,-11.65039 -5.19469,-3.43278 -10.39473,-7.07854 -14.13282,-12.13477 -1.96783,-3.28433 -1.80483,-7.3411 -1.09375,-10.9707 0.55704,-2.54543 2.55191,-4.46532 3.24414,-6.9375 0.21532,-2.13566 -2.03113,-3.31169 -3.49414,-4.40235 -3.04095,-1.92696 -6.05245,-4.01631 -9.42382,-5.32226 -0.37731,-0.10738 -0.76911,-0.17209 -1.16211,-0.16602 z m 9.30664,94.42969 c -2.14475,0.0598 -3.41354,2.16939 -4.59961,3.67969 -1.14347,1.52671 -1.74978,3.3989 -1.53516,5.30859 0.10411,4.48252 0.44532,9.14275 2.38867,13.25 1.02942,1.80057 2.09877,3.67229 3.56836,5.12695 1.13829,0.66215 1.74176,-0.89003 1.54102,-1.82421 -0.0952,-4.77359 -1.42061,-9.79822 0.49219,-14.39063 0.95984,-2.67651 3.83029,-4.38873 4.08203,-7.34375 0.0217,-2.95784 -3.58444,-3.8827 -5.9375,-3.80664 z"
         style="opacity:1;fill:#c18000;fill-opacity:1;stroke:none;stroke-width:18;stroke-miterlimit:4;stroke-dasharray:none;stroke-opacity:1" />
      <path
         inkscape:connector-curvature="0"
         id="path4176"
         d="m 169.16406,86.277344 c -3.92681,0.150204 -8.1853,0.596121 -11.41797,3.041015 -1.52029,1.08822 -1.95768,3.249234 -0.93554,4.822266 1.48632,2.629409 3.55671,5.21882 6.44726,6.339845 3.34173,1.00626 6.89818,0.6913 10.3418,0.68945 2.91469,-0.29073 4.81575,-2.861581 7.12695,-4.374998 -0.31252,3.994588 -0.9429,8.167258 -3.38476,11.513668 -4.27744,6.18135 -10.41807,11.07785 -17.3125,14.03321 -1.69475,0.87924 -4.1373,1.19459 -4.95899,3.15429 -0.54389,1.99928 1.52788,3.38705 2.95508,4.32227 2.82793,1.67547 5.77391,3.24167 8.90039,4.27344 2.79406,0.794 5.46951,-0.73915 7.70899,-2.24414 7.26505,-5.0653 12.82377,-12.61822 15.33593,-21.125 0.9946,-3.46512 0.88157,-7.14098 0.64649,-10.70118 -0.44182,-2.492017 -2.46873,-4.274682 -3.98438,-6.166011 -3.76896,-4.293316 -9.14351,-7.308712 -14.92383,-7.523438 -0.84722,-0.04969 -1.69633,-0.06783 -2.54492,-0.05469 z m 1.4668,4.271484 c 0.42815,0.04305 1.32922,0.03195 1.45898,0.31836 -1.15547,0.89773 -2.73791,0.297344 -3.79492,-0.154297 0.76409,-0.172776 1.55629,-0.184738 2.33594,-0.164063 z m -50.12891,48.554692 c -1.45016,0.63968 -2.17177,2.27288 -3.25781,3.38086 -2.93709,3.4838 -5.6568,7.31234 -6.79883,11.79296 -1.53382,5.77969 -1.34564,11.89015 -0.49804,17.76368 0.97485,4.83821 3.49576,9.22613 6.32031,13.21484 4.8903,6.724 11.77826,11.67133 19.03515,15.56836 6.73622,3.98649 13.64081,8.06106 19.56055,13.10547 2.09967,1.59086 2.98617,4.3076 3.4082,6.8457 0.53593,3.41358 -0.83241,6.79642 -2.25781,9.83399 -0.7415,1.72819 -2.07552,3.04079 -3.30664,4.40624 -1.55111,1.95162 -0.67572,4.79799 1.11328,6.28126 2.19029,1.91441 4.63395,3.62118 7.30469,4.78906 2.75743,1.02955 5.36578,-1.00268 7.50195,-2.49024 6.71837,-5.12235 10.16006,-13.61727 10.41993,-21.91211 0.15949,-3.66576 0.30356,-7.53916 -1.44532,-10.89257 -1.85571,-3.91448 -3.90588,-7.8432 -6.81836,-11.08204 -5.06016,-4.35738 -10.7948,-7.85246 -16.43554,-11.39648 -6.95149,-4.35412 -14.57089,-7.56821 -20.87696,-12.89062 -2.30266,-2.14286 -3.22551,-5.30129 -4.24023,-8.18165 -1.29959,-4.21447 -1.72433,-9.06851 0.62695,-13.01562 0.98676,-2.11979 3.21574,-3.60566 3.6543,-5.97461 0.28294,-2.50527 -2.30399,-3.89549 -4.14063,-4.95508 -2.79786,-1.50535 -5.65461,-2.91951 -8.57617,-4.16406 -0.0983,0.015 -0.19488,-0.0333 -0.29297,-0.0273 z m 5.88282,116.38671 c -2.23929,0.33934 -3.37957,2.72367 -4.06641,4.64063 -1.36355,4.02773 -1.19587,8.40861 -0.70703,12.57422 0.86358,5.90171 5.06732,10.606 9.34961,14.44531 4.5077,3.98898 9.85538,6.85929 15.35156,9.23242 4.36557,2.19615 8.15019,5.84073 10.06836,10.375 0.84767,2.50319 0.41549,5.22053 0.41602,7.81446 -0.10528,2.74322 -1.03655,5.35895 -1.50586,8.03515 0.0849,1.2986 1.77509,1.25422 2.41796,0.39649 3.50147,-3.30154 6.03505,-7.65723 7.24805,-12.3086 1.2369,-4.73862 -0.18642,-9.82835 -3.12695,-13.65234 -4.41168,-6.02554 -11.00462,-9.8696 -16.6211,-14.60547 -2.98703,-2.59901 -5.78993,-5.59925 -7.51171,-9.19922 -0.5675,-2.3936 -0.18985,-4.91443 -0.26172,-7.35937 -0.0895,-1.65428 0.36619,-3.37436 -0.0449,-5.00977 -3.02911,-1.98954 -6.14316,-4.04704 -9.61914,-5.18945 -0.45125,-0.12204 -0.91721,-0.21266 -1.38671,-0.18946 z"
         style="opacity:1;fill:#723d00;fill-opacity:1;stroke:none;stroke-width:18;stroke-miterlimit:4;stroke-dasharray:none;stroke-opacity:1" />
      <g
         id="layer1-5">
        <path
           sodipodi:nodetypes="cccccccccccccccccccccccccccccccccccccccccccccccccccccccscccccscccccccccccccccccccccsccccccscccscccccccccccccccscccccccccccccccccccscccccccccccccccccccscccccsccccccccccsscccccccccccccccccccsscccccscccccccsccccscccccccccccccccccccccccccccccccccccccccccccccscccccccccccsccccccccccccccsccccccsccccccccccscscccccccccsscccccccccsscccccscccccscccccccccccccccccccccccccsccsccccccccccccscccccsccccscccccscccccccccccsc"
           style="fill:#000000"
           inkscape:connector-curvature="0"
           id="path16479"
           d="m 143.68,350.424 c -0.97,-1.124 -1.459,-4.528 -1.583,-11.02 l -0.178,-9.393 -4.034,-1.739 c -8.964,-3.866 -12.689,-9.813 -12.894,-20.582 -0.108,-5.657 0.291,-7.443 2.373,-10.636 2.677,-4.105 2.679,-4.094 -2.084,-9.124 -6.595,-6.965 -8.469,-24.169 -3.26,-29.93 1.091,-1.206 1.975,-2.648 1.965,-3.204 -0.011,-0.556 -2.142,-3.637 -4.736,-6.847 -8.054,-9.967 -9.06,-12.48 -9.304,-23.252 -0.197,-8.675 0.025,-9.935 2.569,-14.551 1.531,-2.78 4.071,-6.473 5.643,-8.207 l 2.858,-3.152 -3.746,-4.315 c -2.061,-2.373 -4.952,-6.775 -6.425,-9.782 -2.37,-4.841 -2.709,-6.784 -2.957,-16.964 -0.243,-9.97 0.015,-12.184 1.944,-16.672 1.224,-2.847 3.518,-6.463 5.098,-8.036 2.785,-2.772 3.751,-5.503 1.934,-5.468 -0.489,0.009 -3.414,-2.375 -6.501,-5.299 -8.562,-8.112 -13.178,-22.332 -9.905,-30.512 l 1.458,-3.645 -3.764,-2.939 C 94.458,92.272 92.394,89.171 89.319,81.88 L 87.777,78.226 82.74,79.943 C 77.913,81.588 77.479,81.576 72.403,79.654 69.083,78.396 65,77.71 61.468,77.816 57.505,77.935 54.385,77.319 50.961,75.742 48.283,74.507 44.09,73.418 41.645,73.32 38.666,73.202 35.331,72.044 31.542,69.815 27.504,67.439 24.669,66.496 21.635,66.52 16.833,66.559 8.954,62.91 4.778,58.714 L 2.125,56.049 7.661,54.699 C 14.406,53.054 32.256,43.693 44.299,35.484 49.186,32.153 59.405,25.162 67.007,19.948 83.968,8.316 85.249,7.627 93.041,5.94 c 18.041,-3.907 32.475,4.14 35.088,19.563 1.008,5.944 -0.566,11.199 -4.839,16.16 -1.808,2.099 -3.28,4.225 -3.27,4.724 0.009,0.5 1.477,2.09 3.262,3.535 2.623,2.124 3.912,2.506 6.72,1.995 5.265,-0.957 6.058,-2.385 5.986,-10.777 -0.048,-5.656 -0.586,-8.483 -2.215,-11.633 -4.459,-8.626 -2.175,-17.946 5.416,-22.101 10.278,-5.626 21.579,-0.425 23.033,10.601 0.407,3.085 -0.101,5.641 -1.982,9.968 -2.223,5.114 -2.475,6.878 -2.076,14.542 l 0.455,8.723 4.703,0.213 c 4.324,0.196 10.766,-2.017 10.734,-3.689 -0.007,-0.346 -1.095,-2.001 -2.419,-3.679 -5.905,-7.481 -6.634,-19.79 -1.631,-27.554 6.208,-9.635 14.774,-12.904 27.54,-10.511 11.72,2.197 16.667,5.026 45.394,25.961 6.877,5.011 18.416,12.357 25.643,16.323 12.505,6.862 13.393,7.187 18.381,6.721 4.82,-0.451 5.245,-0.317 5.283,1.662 0.056,2.934 -6.167,10.265 -10.827,12.755 -2.098,1.121 -5.578,2.072 -7.733,2.113 -2.155,0.041 -6.455,1.295 -9.555,2.786 -4.588,2.207 -6.475,2.602 -10.149,2.122 -3.202,-0.418 -5.145,-0.158 -6.69,0.897 -2.473,1.689 -8.558,3.01 -16.596,3.602 -16.544,1.219 -22.092,1.791 -22.985,2.366 -0.546,0.352 -1.594,2.16 -2.329,4.019 -1.483,3.749 -5.463,8.369 -9.608,11.153 -2.495,1.675 -2.706,2.342 -2.595,8.179 0.17,8.934 -2.96,15.866 -11.137,24.665 l -6.516,7.011 4.217,4.847 c 6.277,7.214 8.314,12.196 8.503,20.802 0.296,13.435 -2.865,21.068 -12.139,29.305 l -4.665,4.144 3.133,3.226 c 7.411,7.63 8.071,9.248 8.214,20.132 0.161,12.299 -1.395,16.007 -9.965,23.752 -5.489,4.961 -7.362,8.083 -4.819,8.035 0.58,-0.011 2.253,2.545 3.717,5.68 4.617,9.886 2.796,20.291 -5.201,29.733 -2.097,2.476 -3.808,4.75 -3.802,5.054 0.005,0.303 1.166,2.188 2.58,4.188 2.08,2.942 2.593,4.857 2.691,10.044 0.215,11.274 -6.64,20.441 -15.411,20.608 l -2.898,0.055 -0.468,11.221 c -0.429,10.3 -1.094,12.739 -3.504,12.844 -0.344,0.015 -1.258,-0.705 -2.03,-1.601 z m 2.634,-25.96 c -0.278,-14.6 -0.784,-22.43 -1.448,-22.417 -0.669,0.013 -0.824,7.942 -0.449,23.001 0.326,13.06 0.951,22.738 1.448,22.418 0.482,-0.311 0.684,-10.661 0.449,-23.002 z m -4.679,-11.781 c -0.288,-8.834 -1.64,-10.586 -4.185,-5.426 -1.823,3.696 -1.129,10.404 1.592,15.391 l 1.628,2.983 0.612,-2.512 c 0.337,-1.382 0.496,-6.078 0.353,-10.436 z m 11.597,9.274 c 1.371,-2.683 1.07,-12.417 -0.428,-13.86 -2.279,-2.193 -2.675,-1.165 -2.837,7.358 -0.118,6.185 0.169,8.5 1.053,8.481 0.668,-0.014 1.663,-0.904 2.212,-1.979 z m 8.051,-4.893 c 6.225,-10.514 3.622,-18.444 -9.241,-28.156 -1.066,-0.805 -3.799,-2.867 -6.073,-4.583 -2.274,-1.715 -5.426,-4.909 -7.004,-7.097 -2.533,-3.511 -2.834,-4.671 -2.557,-9.874 l 0.314,-5.897 -4.208,-2.552 c -2.315,-1.403 -4.937,-2.537 -5.828,-2.521 -4.26,0.082 -6.174,12.997 -2.995,20.216 3.049,6.924 12.382,14.728 22.063,18.449 5.06,1.945 10.932,8.066 11.813,12.313 0.729,3.516 0.375,8.583 -0.942,13.465 -0.607,2.253 -0.508,2.369 0.958,1.119 0.899,-0.766 2.564,-2.963 3.7,-4.882 z m -28.801,-0.687 c -0.923,-6.699 -0.014,-11.098 2.989,-14.463 2.948,-3.303 2.502,-5.4 -1.338,-6.286 -2.236,-0.516 -3.15,-0.098 -5.067,2.317 -2.072,2.611 -2.275,3.705 -1.785,9.592 0.379,4.549 1.276,7.767 2.843,10.198 1.26,1.954 2.457,3.549 2.661,3.545 0.205,-0.004 0.068,-2.21 -0.303,-4.903 z M 161.7,283.973 c 5.104,-4.781 7.606,-10.429 7.483,-16.895 -0.183,-9.584 -6.246,-17.626 -18.96,-25.144 -7.338,-4.339 -14.436,-10.358 -16.321,-13.84 -2.324,-4.292 -2.013,-10.976 0.705,-15.149 2.71,-4.163 2.787,-4.047 -6.361,-9.532 -6.16,-3.692 -6.583,-3.525 -10.593,4.189 -3.845,7.396 -4.189,14.989 -1.089,24.037 2.031,5.927 3.45,8.094 8.67,13.245 3.786,3.735 8.745,7.363 12.604,9.22 12.441,5.985 18.549,13.791 15.094,19.29 -0.872,1.387 -1.502,4.555 -1.45,7.288 0.156,8.216 3.731,9.368 10.218,3.291 z m -14.164,-6.231 c 0.058,-8.248 -0.973,-11.734 -3.456,-11.687 -1.351,0.026 -0.804,13.436 0.604,14.792 2.119,2.04 2.821,1.275 2.852,-3.105 z m -6.562,-9.377 c -0.43,-1.659 -0.487,-1.658 -1.18,0.022 -0.401,0.971 -0.371,2.545 0.066,3.5 0.757,1.652 0.814,1.651 1.18,-0.023 0.212,-0.966 0.182,-2.541 -0.066,-3.499 z m 25.641,-24.493 c 6.941,-4.404 11.092,-12.4 11.542,-22.233 0.303,-6.607 0.041,-7.833 -2.875,-13.483 -1.764,-3.418 -4.257,-7.127 -5.54,-8.241 -3.355,-2.915 -17.915,-12.418 -22.071,-14.405 -1.943,-0.929 -6.385,-3.498 -9.871,-5.71 -5.446,-3.455 -6.632,-4.759 -8.428,-9.27 -3.414,-8.575 -2.85,-14.547 1.883,-19.951 2.705,-3.087 1.725,-4.645 -4.932,-7.844 l -5.734,-2.756 -3.432,4.066 c -5.33,6.316 -7.062,11.553 -6.885,20.825 0.131,6.878 0.604,8.925 3.32,14.347 3.703,7.395 10.596,14.284 18.968,18.959 12.678,7.078 22.946,14.136 24.794,17.041 1.064,1.672 1.969,4.746 2.01,6.83 0.08,3.986 -2.564,10.492 -5.181,12.75 -2.607,2.249 -1.682,4.821 2.827,7.856 5.142,3.461 5.917,3.559 9.605,1.219 z m -18.107,-14.908 c 0.049,-13.522 -0.014,-13.816 -3.305,-15.439 l -3.029,-1.494 0.2,10.484 c 0.181,9.507 0.408,10.672 2.432,12.488 1.229,1.101 2.558,1.656 2.956,1.232 0.397,-0.423 0.733,-3.695 0.746,-7.271 z m 6.308,-3.3 c 0.094,-5.467 -1.94,-4.793 -2.177,0.721 -0.165,3.865 0.052,4.731 0.953,3.803 0.642,-0.661 1.192,-2.697 1.224,-4.524 z m -15.273,-5.713 c -1.478,-1.422 -2.534,2.7 -1.547,6.035 0.774,2.615 0.805,2.593 1.687,-1.186 0.598,-2.564 0.551,-4.183 -0.14,-4.849 z m 31.129,-32.892 c 8.23,-6.286 12.042,-14.491 11.965,-25.756 -0.031,-4.567 -0.647,-7.661 -2.073,-10.403 -1.952,-3.754 -10.651,-13.359 -12.075,-13.332 -0.38,0.007 -3.612,-1.699 -7.182,-3.792 -3.64,-2.134 -11.727,-5.359 -18.41,-7.342 -13.464,-3.995 -22.423,-8.69 -26.973,-14.136 -2.474,-2.962 -3.207,-4.909 -3.644,-9.683 -0.576,-6.297 0.174,-7.298 3.12,-4.165 4.102,4.363 14.122,2.903 18.338,-2.671 2.218,-2.933 1.97,-5.029 -0.719,-6.083 -7.356,-2.883 -16.038,-1.747 -22.604,2.957 -8.315,5.957 -10.532,15.757 -5.634,24.906 4.618,8.627 11.048,13.233 32.851,23.534 18.354,8.672 21.66,10.719 24.55,15.202 3.97,6.159 1.733,15.864 -5.16,22.381 -3.839,3.629 -4.176,5.193 -1.589,7.369 2.382,2.004 7.511,4.548 9.204,4.566 0.752,0.007 3.467,-1.591 6.035,-3.552 z M 119.629,92.881 c -1.262,-1.215 0.323,-2.398 3.288,-2.455 1.617,-0.031 2.949,0.394 2.959,0.944 0.011,0.55 -0.619,1.012 -1.398,1.027 -0.78,0.015 -2.037,0.278 -2.792,0.584 -0.756,0.307 -1.681,0.262 -2.057,-0.1 z m 30.196,75.877 c 0.473,-13.054 0.454,-13.199 -1.907,-14.95 -3.092,-2.293 -5.925,-3.152 -6.817,-2.066 -0.39,0.475 -0.336,6.836 0.12,14.137 0.802,12.861 0.907,13.314 3.354,14.59 4.627,2.414 4.747,2.146 5.25,-11.711 z m 8.081,4.715 c 2.541,-4.042 2.657,-7.942 0.343,-11.505 -1.165,-1.793 -2.555,-2.978 -3.09,-2.633 -1.271,0.82 -0.98,16.512 0.306,16.488 0.537,-0.011 1.636,-1.068 2.441,-2.35 z m -19.614,-7.826 c -0.146,-7.675 -0.462,-9.493 -1.646,-9.47 -1.707,0.032 -2.979,2.266 -3.857,6.775 -0.439,2.252 0.002,4.563 1.473,7.724 3.23,6.942 4.233,5.689 4.03,-5.029 z m 33.688,-33.279 c 9.409,-5.106 17.316,-16.898 17.913,-26.713 0.34,-5.586 0.137,-6.285 -2.885,-9.947 -5.014,-6.077 -10.308,-8.656 -17.585,-8.565 -6.631,0.082 -11.861,2.123 -12.325,4.81 -0.159,0.918 1.048,3.108 2.682,4.868 2.589,2.789 3.735,3.241 8.924,3.517 5.292,0.282 6.292,0.021 9,-2.347 1.675,-1.465 3.324,-2.669 3.664,-2.676 0.846,-0.016 -0.293,8.04 -1.488,10.53 -3.46,7.206 -12.491,14.997 -20.688,17.846 -5.073,1.764 -4.429,3.637 2.441,7.1 6.174,3.113 7.223,3.273 10.347,1.577 z m -3.336,-40.501 c -2.834,-0.683 -2.053,-2.272 1.146,-2.333 3.327,-0.063 4.882,1.389 2.517,2.348 -0.86,0.349 -1.641,0.584 -1.735,0.522 -0.093,-0.062 -0.961,-0.304 -1.928,-0.537 z m -18.007,31.788 c 0.346,-3.652 0.586,-10.624 1.178,-34.279 0.359,-14.309 0.816,-26.556 1.016,-27.216 0.201,-0.659 0.343,-6.513 0.317,-13.008 l -0.047,-11.81 -6.863,-0.558 c -3.774,-0.308 -6.999,-0.418 -7.166,-0.245 -0.166,0.174 -0.152,19.247 0.031,42.386 0.263,33.016 0.607,42.241 1.602,42.858 1.659,1.029 6.968,2.907 8.562,3.029 0.688,0.052 1.305,-0.468 1.37,-1.157 z m 11.091,-3.888 c 4.522,-2.182 11.538,-8.39 11.504,-10.179 -0.012,-0.613 -0.697,-1.102 -1.521,-1.087 -0.825,0.016 -1.397,-0.488 -1.272,-1.12 0.126,-0.632 -1.338,-1.542 -3.253,-2.022 -1.914,-0.481 -5.098,-2.244 -7.075,-3.917 l -3.595,-3.044 -0.181,6.316 c -0.099,3.473 0.047,6.535 0.325,6.803 0.279,0.267 8.542,-2.251 11.03,-3.152 6.157,-2.229 5.747,-0.684 -0.642,2.417 -5.053,2.454 -12.475,6.515 -11.231,9.582 0.741,1.825 0.931,1.806 5.911,-0.597 z m -24.587,-1.789 c -0.734,-1.797 -12.921,-8.573 -15.336,-8.527 -1.735,0.033 -1.617,0.381 1.027,3.038 6.233,6.263 16.185,10.08 14.309,5.489 z m -0.68,-6.556 c 0.69,-3.027 0.745,-12.266 0.073,-12.253 -0.352,0.006 -2.052,1.123 -3.777,2.481 -1.726,1.358 -4.665,3.121 -6.533,3.917 l -3.395,1.447 5.979,2.947 c 7.378,3.636 7.166,3.595 7.653,1.461 z m 60.028,-21.875 c 2.314,-2.508 4.932,-5.715 5.819,-7.126 1.588,-2.527 1.538,-2.641 -3.342,-7.708 -2.724,-2.829 -5.303,-5.287 -5.73,-5.462 -0.427,-0.175 -2.778,1.511 -5.224,3.748 -6.618,6.053 -10.717,7.795 -18.825,8.001 -3.849,0.098 -8.127,-0.026 -9.507,-0.275 -2.294,-0.413 -2.503,-0.152 -2.442,3.047 0.073,3.856 -0.056,3.827 7.935,1.78 6.318,-1.618 14.978,0.625 20.48,5.305 2.083,1.772 4.426,3.228 5.208,3.236 0.782,0.008 3.315,-2.038 5.628,-4.546 z m -88.708,1.777 c 0.62,-0.777 3.444,-2.462 6.276,-3.744 4.224,-1.913 6.275,-2.248 11.429,-1.865 3.455,0.256 7.133,0.901 8.175,1.433 2.365,1.209 3.145,0.436 3.079,-3.05 l -0.052,-2.729 -8.248,0.183 c -6.318,0.141 -9.335,-0.29 -12.895,-1.842 -4.318,-1.882 -11.08,-8.008 -13.735,-12.444 -1.057,-1.765 -1.473,-1.532 -5.691,3.173 -2.503,2.792 -4.539,5.658 -4.526,6.368 0.053,2.775 4.306,9.09 8.384,12.448 4.667,3.843 6.087,4.22 7.804,2.069 z M 219.057,77.988 c 2.38,-0.966 1.888,-2.053 -1.963,-4.333 -1.926,-1.14 -5.637,-5.157 -8.248,-8.926 -4.238,-6.119 -5.091,-6.846 -7.969,-6.792 -7.014,0.134 -7.277,4.369 -0.693,11.146 5.007,5.152 8.827,7.526 13.949,8.671 1.658,0.37 3.09,0.718 3.184,0.772 0.093,0.055 0.876,-0.187 1.74,-0.538 z M 133.21,75.676 c 2.705,-0.595 3.281,-3.055 3.104,-13.244 l -0.143,-8.234 -5.977,0.74 -5.977,0.74 -4.595,-4.423 c -5.709,-5.496 -6.028,-8.378 -1.374,-12.427 4.478,-3.896 6.47,-8.366 6.357,-14.268 -0.081,-4.279 -0.592,-5.453 -3.922,-9.01 -5.071,-5.417 -11.624,-7.686 -20.993,-7.269 -6.125,0.272 -8.236,0.909 -15.414,4.652 -4.575,2.385 -10.818,6.08 -13.874,8.211 -3.056,2.131 -9.275,6.467 -13.82,9.635 C 38.576,43.33 29.218,48.791 11.713,56.96 l -3.953,1.846 2.861,1.43 c 5.235,2.617 12.981,2.6 19.882,-0.044 11.656,-4.466 42.672,-24.799 45.521,-29.842 2.333,-4.13 3.624,-3.099 3.74,2.986 0.222,11.649 11.037,21.668 23.163,21.458 1.787,-0.031 3.258,0.394 3.268,0.944 0.011,0.55 -0.49,1.009 -1.112,1.021 -1.813,0.035 -0.212,7.513 2.346,10.966 2.957,3.99 9.255,7.747 14.497,8.65 3.866,0.665 5.556,0.561 11.284,-0.699 z M 242.57,74.17 c -0.01,-0.537 -1.27,-1.705 -2.799,-2.595 -7.221,-4.203 -12.242,-7.789 -16.063,-11.473 -8.359,-8.06 -8.011,-7.885 -11.454,-5.761 -1.667,1.027 -3.017,2.603 -3,3.5 0.049,2.57 11.639,12.558 17.512,15.093 5.433,2.345 15.841,3.159 15.804,1.236 z M 84.606,74.104 c 1.941,-1.029 5.626,-3.821 8.188,-6.203 7.589,-7.057 7.844,-9.33 1.172,-10.451 -3.66,-0.615 -3.957,-0.43 -10.377,6.44 -3.635,3.89 -7.832,7.898 -9.325,8.906 -3.137,2.119 -3.413,3.278 -0.926,3.891 2.558,0.63 7.224,-0.439 11.268,-2.583 z m 90.454,0.223 c 5.828,-1.586 11.796,-7.055 13.816,-12.66 1.315,-3.65 1.38,-4.794 0.342,-5.997 -0.705,-0.818 -1.115,-1.506 -0.911,-1.528 0.205,-0.023 3.814,-0.204 8.021,-0.403 6.809,-0.322 8.118,-0.715 11.934,-3.585 6.634,-4.991 10.066,-13.473 8.302,-20.52 -0.852,-3.401 2.49,-1.221 4.072,2.657 1.738,4.26 9.744,11.097 26.348,22.498 13.471,9.25 29.74,12.871 36.63,8.153 3.717,-2.545 3.373,-4.116 -1.18,-5.386 C 272.647,54.825 253.767,43.798 232.895,28.621 206.028,9.085 196.733,5.507 181.586,8.873 c -3.187,0.708 -9.213,6.513 -10.723,10.331 -2.768,6.994 -0.731,15.087 5.304,21.073 l 3.808,3.777 -2.181,3.339 c -4.453,6.817 -10.209,9.048 -17.866,6.925 l -2.765,-0.767 0.191,10.078 0.192,10.078 3.267,0.877 c 4.544,1.218 9.13,1.136 14.247,-0.257 z m 83.876,-3.099 c 1.683,-0.682 2.144,-3.434 0.57,-3.404 -1.935,0.037 -22.09,-13.603 -29.321,-19.843 -7.746,-6.684 -9.619,-7.536 -10.602,-4.82 -1.465,4.047 -0.378,6.658 4.867,11.695 12.233,11.748 27.739,19.11 34.486,16.372 z M 67.493,71.005 c 2.459,-1.313 7.911,-5.06 12.116,-8.327 l 7.645,-5.94 -3.281,-3.258 C 82.169,51.688 80.336,50.229 79.9,50.237 79.464,50.245 76.78,52.434 73.935,55.101 67.339,61.287 60.058,66.78 54.7,69.615 c -5.04,2.666 -5.304,3.937 -0.917,4.408 4.804,0.516 8.697,-0.341 13.71,-3.018 z m -16.614,-5.08 c 5.327,-2.67 27.179,-17.117 27.163,-17.958 -0.028,-1.492 -3.54,-9.629 -4.151,-9.618 -0.428,0.008 -6.489,4.467 -13.47,9.908 -11.032,8.601 -24.663,16.822 -27.995,16.886 -2.372,0.045 -0.814,2.02 2.239,2.839 5.782,1.551 10.111,1.002 16.214,-2.057 z M 155.807,28.821 c 6.977,-8.689 1.403,-20.062 -9.729,-19.85 -4.313,0.082 -5.402,0.549 -8.299,3.558 -2.857,2.969 -3.322,4.145 -3.244,8.218 0.081,4.277 0.516,5.144 4.324,8.632 4.02,3.68 4.491,3.847 9.278,3.295 4.152,-0.479 5.506,-1.159 7.67,-3.853 z m -9.535,-0.697 c -0.354,-0.549 0.283,-1.311 1.416,-1.694 3.05,-1.032 5.586,-7.142 3.984,-9.601 -2.565,-3.939 -0.154,-5.649 3.095,-2.194 2.406,2.559 2.221,7.547 -0.394,10.588 -2.412,2.805 -7.084,4.478 -8.101,2.901 z" />
      </g>
      <path
         inkscape:connector-curvature="0"
         id="path4150"
         d="m 111.67969,116.86523 0.37304,0.54102 c 8.1707,9.46634 20.5964,13.59719 31.2793,19.50195 9.1193,5.19124 21.01669,8.73522 25.62109,19.07422 3.7463,9.36233 -0.55536,19.83985 -7.22656,26.70313 3.321,2.88155 6.07144,-2.05066 8.61914,-3.86524 5.6927,-7.26523 8.43572,-18.76833 3.25782,-26.97265 -7.628,-11.1672 -21.17707,-15.12438 -33.19727,-19.6211 -10.1849,-3.67126 -21.10046,-7.28796 -28.72656,-15.36133 z m 12.84179,91.85743 c -0.15843,0.0183 -0.30313,0.0815 -0.42773,0.19922 -6.4989,10.69539 -2.43093,25.66682 7.23047,32.70507 8.9879,8.52429 23.31094,11.8402 28.05664,24.34961 1.7366,4.2455 -0.41017,8.59416 -1.35547,12.6211 6.2681,-5.88572 6.23833,-16.11843 0.33203,-22.16407 -9.713,-10.28669 -25.26464,-15.14471 -31.30664,-28.72656 -1.6166,-5.50929 -0.77021,-11.56572 1.52539,-16.76172 -1.11116,-0.31876 -2.94568,-2.35056 -4.05469,-2.22265 z"
         style="opacity:1;fill:#723d00;fill-opacity:1;stroke:none;stroke-width:18;stroke-miterlimit:4;stroke-dasharray:none;stroke-opacity:1" />
      <path
         inkscape:connector-curvature="0"
         id="path4152"
         d="m 183.3457,110.2207 c -4.3517,7.07387 -10.99226,12.59394 -18.28906,16.44922 1.9578,1.13969 4.34863,2.33797 6.11133,-0.004 5.742,-3.83238 10.28833,-10.07391 12.17773,-16.44532 z m -60.95898,37.69141 c -0.10596,-0.0131 -0.20959,-0.0122 -0.30664,0.006 -10.209,11.78557 -5.61758,30.65871 6.32812,39.43164 10.8667,9.17252 25.38108,13.83781 34.42188,25.12109 4.6731,7.77266 2.1473,18.00254 -2.4375,24.8418 2.1717,2.90946 4.48487,-0.16069 6.10937,-1.94922 4.6426,-5.3295 6.40008,-13.29848 4.92188,-20.11914 -2.3864,-8.10683 -8.94682,-13.63466 -16.01172,-17.66211 -9.581,-7.05566 -22.04007,-10.59059 -29.38867,-20.36914 -5.0877,-8.22848 -7.34178,-19.81362 -1.23828,-28.15234 -0.72608,-0.28454 -1.65671,-1.05655 -2.39844,-1.14844 z m 5.69336,114.89648 c -2.6651,8.41105 2.31063,16.65361 9.11523,21.3086 1.0495,0.84478 5.67706,4.02564 2.62696,1.5 -6.0495,-4.78507 -10.12039,-12.33544 -8.58399,-20.19141 0.8393,-1.62598 -2.4307,-2.64709 -3.1582,-2.61719 z"
         style="opacity:1;fill:#3b1f00;fill-opacity:1;stroke:none;stroke-width:18;stroke-miterlimit:4;stroke-dasharray:none;stroke-opacity:1" />
      <path
         inkscape:connector-curvature="0"
         id="path4385"
         d="m 72.484375,44.25 c -0.07231,0.0016 -0.153563,0.03778 -0.246094,0.121094 -9.258704,6.752333 -18.707782,14.283966 -28.392578,19.839844 7.629062,-2.104806 13.889304,-7.530056 20.666016,-11.441407 2.941934,-2.093773 6.484545,-4.010923 8.939453,-6.43164 C 73.055943,45.998456 72.990554,44.23858 72.484375,44.25 Z m 151.158205,3.558594 c 6.36361,8.34558 15.66052,14.207122 25.16211,18.425781 -8.72417,-5.638599 -17.13235,-11.99049 -25.16211,-18.425781 z M 79.931641,55.341797 c -0.06188,-0.0031 -0.121762,0.01014 -0.181641,0.04492 C 74.605893,59.70858 69.621939,64.242164 64.138672,68.144529 70.291699,64.951891 75.759466,60.6269 81.232422,56.41406 80.838911,56.209704 80.364785,55.363685 79.931641,55.341795 Z m 134.808589,2.230469 -0.34961,0.261718 c 0.44681,1.901899 3.50225,3.819349 5.19141,5.519532 3.11754,2.576253 6.47915,4.939688 10.25195,6.451172 -5.34246,-3.690833 -10.03459,-8.19214 -15.09375,-12.232422 z M 92.332031,61.300781 c -3.901521,1.821375 -5.950425,6.270519 -9.320312,8.896485 3.814919,-2.489171 7.281215,-5.503677 10.466797,-8.75 -0.376431,-0.07773 -0.759524,-0.159142 -1.146485,-0.146485 z m 108.603519,0.615235 c -2.20668,0.257097 1.0307,2.641251 1.67968,3.714843 2.08195,2.23055 4.22144,4.498051 6.9043,6.013672 -3.03275,-3.049099 -5.06915,-7.250858 -8.58398,-9.728515 z"
         style="opacity:1;fill:#000000;fill-opacity:1;stroke:none;stroke-width:18;stroke-miterlimit:4;stroke-dasharray:none;stroke-opacity:1" />
    </g>
  </g>
</svg>
