<?xml version="1.0" encoding="UTF-8" standalone="no"?>
<!-- Created with Inkscape (http://www.inkscape.org/) -->

<svg
   xmlns:dc="http://purl.org/dc/elements/1.1/"
   xmlns:cc="http://creativecommons.org/ns#"
   xmlns:rdf="http://www.w3.org/1999/02/22-rdf-syntax-ns#"
   xmlns:svg="http://www.w3.org/2000/svg"
   xmlns="http://www.w3.org/2000/svg"
   xmlns:sodipodi="http://sodipodi.sourceforge.net/DTD/sodipodi-0.dtd"
   xmlns:inkscape="http://www.inkscape.org/namespaces/inkscape"
   width="256"
   height="256"
   version="1.1"
   viewBox="0 0 256 256"
   id="svg48"
   sodipodi:docname="staff_03.svg"
   inkscape:version="0.92.4 (5da689c313, 2019-01-14)">
  <defs
     id="defs52" />
  <sodipodi:namedview
     pagecolor="#ffffff"
     bordercolor="#666666"
     borderopacity="1"
     objecttolerance="10"
     gridtolerance="10"
     guidetolerance="10"
     inkscape:pageopacity="0"
     inkscape:pageshadow="2"
     inkscape:window-width="1920"
     inkscape:window-height="1025"
     id="namedview50"
     showgrid="false"
     inkscape:zoom="0.3935783"
     inkscape:cx="-778.36545"
     inkscape:cy="193.49851"
     inkscape:window-x="-8"
     inkscape:window-y="-8"
     inkscape:window-maximized="1"
     inkscape:current-layer="svg48"
     fit-margin-top="0"
     fit-margin-left="0"
     fit-margin-right="0"
     fit-margin-bottom="0" />
  <metadata
     id="metadata2">
    <rdf:RDF>
      <cc:Work
         rdf:about="">
        <dc:format>image/svg+xml</dc:format>
        <dc:type
           rdf:resource="http://purl.org/dc/dcmitype/StillImage" />
        <dc:title></dc:title>
        <cc:license
           rdf:resource="http://creativecommons.org/publicdomain/zero/1.0/" />
        <dc:source>https://openclipart.org/detail/313967</dc:source>
        <dc:creator>
          <cc:Agent>
            <dc:title>Falco276</dc:title>
          </cc:Agent>
        </dc:creator>
        <dc:date>2019-01-20 13:27:41</dc:date>
        <dc:publisher>
          <cc:Agent>
            <dc:title>OpenClipart</dc:title>
          </cc:Agent>
        </dc:publisher>
      </cc:Work>
      <cc:License
         rdf:about="http://creativecommons.org/publicdomain/zero/1.0/">
        <cc:permits
           rdf:resource="http://creativecommons.org/ns#Reproduction" />
        <cc:permits
           rdf:resource="http://creativecommons.org/ns#Distribution" />
        <cc:permits
           rdf:resource="http://creativecommons.org/ns#DerivativeWorks" />
      </cc:License>
    </rdf:RDF>
  </metadata>
  <g
     transform="matrix(0.30235913,0.30235913,-0.30235913,0.30235913,213.29027,-35.885612)"
     id="g44">
    <path
       d="m 120.27,824.3 -6.2282,-7.6217 -8.0436,-15.739 v -8.6764 l 4.1002,-12.761 0.5845,-6.143 0.58451,-6.143 -6.6999,-11.714 -9.5693,-14.454 v -4.9161 l 2.1251,-5.5895 1.3749,-1.0407 4,-7.8331 4,-7.1669 0.55592,-176 -1.6577,-8.5 -1.6577,-8.5 -1.5096,-2 -1.0289,-4.9126 -1.0289,-4.9126 1.952,-5.1342 1.3749,-1.0407 4,-7.8331 1.9408,-3.5835 1.9408,-3.5835 -0.001,-34 -0.75999,-72.5 -0.75998,-72.5 -1.7604,-12 -1.5616,-7.4282 -1.5616,-7.4282 -0.44525,-0.44524 -0.44524,-0.44525 -7.5864,3.9396 -8,2.6106 -4,2.5664 -10,2.419 -1,0.73887 -1,0.73886 -11,2.3838 -23.389,1.139 -0.6702,-2.6703 -0.6702,-2.6703 1.021,-12.449 3.1963,-19.743 5.2955,-16.257 1.838,-4.1502 1.838,-4.1502 0.60416,-5.3498 0.60417,-5.3498 -2.9953,-13 -6.3053,-17 -1.9674,-7.9385 -1.9674,-7.9385 -0.83368,-1.0615 -0.83368,-1.0615 -3.5293,-11 -1.4747,-2 -2.5656,-7.954 -9.195,-11.488 -4.5594,-5.9465 -5.3993,-11.612 -0.75935,-16.812 17.328,1.2229 6.3897,2.0302 22,4.1956 7.7381,1.0965 1.2619,-1.788 9,-3.82 3,-2.2785 20,-11.112 8.1722,-4.1078 1.8116,-10.313 1.8116,-10.313 0.7694,-1.5 0.76941,-1.5 3.2689,-19.692 1.7611,-3.3078 1.637,-6.9809 1.6371,-6.9809 0.79294,-1.0191 0.79295,-1.0191 1.3638,-6 6.3215,-12.5 h 4.3208 l 5.1478,4.0492 4.8681,10.451 2.5158,11 1.5384,2 4.3741,19 4.3256,22 1.3053,2 0.6861,4.5846 0.68611,4.5846 1.3225,2.0423 20,10.517 9,5.5698 12,6.4502 9.4684,-0.21189 3.5316,-2.0384 22,-3.9305 9,-1.9806 4.8792,-0.0436 4.8792,-0.0435 -0.71337,7.2396 -0.71338,7.2396 -1.9158,4.2055 -1.9158,4.2055 v 1.2828 l -6.4581,9.327 -8.0885,10 -2.5294,3.5 -2.5294,3.5 -2.1082,3.6562 -2.1082,3.6562 -3.3184,15.688 -1.6849,4 -3.3645,18 -1.48,2 -3.2015,13 -1.2126,5.6821 4.3058,17.318 1.5048,2 3.4267,15 1.8086,4 2.0228,13 0.016,19.794 -23.5,-1.1441 -11,-2.3838 -1,-0.72802 -1,-0.72803 -10,-2.5802 -4,-2.4268 -8,-2.5974 -6.9704,-3.7058 h -1.5296 v 3.0271 l -1.8986,3.4729 -2.4433,13 -0.86211,65.5 -0.8621,65.5 -0.99534,54.411 10.249,19.415 1.1085,1.7749 1.1085,1.7749 -2.2758,4.6234 -4.2344,18 -1.948,9.2996 0.29068,85.35 0.29069,85.35 5.4103,10 0.0626,2.5 h 1.6136 l 6.7687,13.992 -4.3823,5.9274 v 1.1292 l -6.9932,10.452 -1.8397,2.2367 -5.3456,10.549 1.0434,4.2142 4.2909,18 -0.33992,7.1028 -0.33992,7.1028 -5.1295,7.7944 -2.8643,4.5 -2.8644,4.5 -9.0426,9.5 -6.0752,-0.081 -6.2282,-7.6217 z m -0.27182,-591.39 8.5,-2.0562 8,1.0137 15.774,3.9287 7.7146,-8.2902 0.5571,-1.6995 0.55709,-1.6995 -6.6117,-9.6011 -5.991,-7.9724 -6.3221,-6.0276 -1.7476,-1.4376 -1.7476,-1.4376 -9.9771,-2.588 -8.707,3.8515 -11.198,10.591 -10.932,15.513 9.6321,11.051 4,-1.0832 z m 99.098,-77.154 4.4442,-4.25 6.1335,-8 1.312,-2.5 1.312,-2.5 1.3048,-1 3.6914,-8 1.4348,-1 1.4043,-4.5 -10.635,0.008 -18.357,2.9773 -15.166,6.9114 -1.1592,3.0208 2.4574,7.5825 3.9105,9 12.314,6.2706 1.1536,0.2294 4.4442,-4.25 z m -162.34,-0.5 1.9753,-1.75 5.3739,-15.604 0.92788,-2.418 -11.531,-4.2101 -14,-4.2539 -17.679,-3.1681 -0.64558,0.65453 5.7428,12 0.08154,2.5 h 1.8393 l 3.2078,9.5 10.453,5 9,3.4125 3.2784,0.0876 1.9753,-1.75 z m 79.353,-43.65 4.3938,-3.4001 3.6047,-4.3449 1.9826,-5.2147 -1.1268,-7.5701 -1.1268,-7.5701 -1.6935,-4 -3.245,-16 -1.7947,-4 -3.4132,-13 -0.72817,-1 -0.72816,-1 -0.71404,-3.337 -0.71403,-3.337 -1.3302,2.5639 -1.3302,2.5639 -5.2317,14.546 -5.8879,21.285 -3.1634,21.293 4.098,8.4653 6.1194,3.6148 5.423,2.8292 2.2124,0.012 4.3938,-3.4001 z"
       id="path6"
       inkscape:connector-curvature="0"
       style="fill:#f9eada" />
    <path
       d="m 123.79,828.25 -3.6123,-3.75 -9.2768,-13.659 -4.9045,-11.09 v -4.2558 l 2.4882,-9.9977 2.4882,-9.9977 0.0118,-4.1279 0.0118,-4.1279 -1.5562,-3.7245 -1.5562,-3.7245 -0.99111,-1.1476 -0.99111,-1.1476 -5.4527,-8.4781 -5.4527,-8.4781 v -4.4379 l 4.5987,-8.6058 5.1661,-9 3.3024,-11 -0.60004,-171 -2.6433,-10 -2.6433,-10 -1.8825,-7.1123 8.6352,-14.888 3.116,-10 1.1796,-17 -2.4386,-23 -0.77691,-73 -0.77692,-73 -2.3626,-8 -2.0358,-8.5 h -2.145 l -10.193,4.7926 -8,3.4127 -17.086,5.6307 -15.559,2.164 h -14.157 l 1.1741,-25.5 2.2469,-11 1.8122,-4 3.2476,-13 1.6322,-2 3.4302,-11.842 -0.67284,-6.5673 -0.67284,-6.5673 -8.077,-23.024 -4.6463,-17 -5.2539,-14 -3.2088,-7 -5.7791,-7 -2.4134,-2.9326 -4.5324,-6.6789 -6.3606,-12.222 -0.44265,-8.4336 -0.44265,-8.4336 10.761,0.92519 21,3.3546 15.447,3.9205 h 5.9739 l 21.579,-11.246 0.5,-0.76229 0.5,-0.76228 19,-9.83 3.6212,-16.899 4.7268,-23 4.1734,-17 0.9823,-2 0.98231,-2 1.468,-4.2652 1.468,-4.2652 2.7471,-5.9848 2.7471,-5.9848 h 2.9601 l 6.4835,4.4426 4.9668,11.132 3.3754,11.925 4.9902,20 2.3517,11 2.3517,11 2.6717,12 16.933,8.6803 22,13.091 5.5857,1.6138 12.414,-2.0212 4,-1.7819 25,-4.4141 9,-0.1678 -0.46392,12.334 -2.0952,5.3328 -2.0952,5.3328 -6.7213,10 -11.046,14 -5.9175,10 -2.5079,10.5 -2.5079,10.5 -1.2394,7 -3.8532,13 -4.8445,17.195 6.0116,19.805 3.4316,12.5 3.4316,12.5 0.60633,13.41 0.60633,13.41 -23.796,-1.3046 -7,-1.8506 -14,-4.1338 -4,-1.8894 -17.608,-7.3674 -0.54715,0.72566 -2.2956,6 -2.3631,13 -0.81475,59.5 -0.81474,59.5 -1.2287,66 3.0887,6.5 3.0887,6.5 5.9185,10.814 -1.2314,1.9925 -2.4021,9.5969 -2.4021,9.5969 -0.97121,5.3331 -0.97122,5.3331 0.55382,170.33 6.6104,13 6.8884,13.582 -3.7373,5.4175 -8.9169,14 -5.591,10.369 0.50104,2.8157 0.50103,2.8157 4.2135,16 0.0308,11.564 -2.7003,6.4358 -10.445,16 -8.0225,7.5 h -4.4264 l -3.6123,-3.75 z m -5.6058,-558.87 1.6878,-0.473 -0.59611,-7.1104 -0.59611,-7.1104 9.8166,1.1486 5.6736,-1.0989 12.339,-12.234 13.035,-14 2.6594,-3.4542 -8.4845,-12.546 -8.7077,-10.302 -9.1187,-6.04 -7.7615,-1.3113 -9.0418,3.9996 -12.593,12.8 -8.5,12.416 v 1.8484 l 16.963,17.589 0.0374,2.4006 -2.5306,1.5994 -11.73,12.454 3.0804,4.5462 6.2069,6.653 6.473,-1.3023 1.6878,-0.473 z m 57.29,-78.754 1.6037,-6.876 -0.29063,-0.19817 -0.29063,-0.19818 -18,-4.2257 -9.5,-2.4628 v -3.9901 l 13,-26.719 v -1.9031 l -6.0587,-3.1331 -1.0823,0.66888 -1.0823,0.66888 -4.765,10.244 -11.009,20 -1.2363,3.5 h -13.67 l -8.5198,-17.5 -9.6924,-17.479 -7.2819,3.0426 -0.37289,0.43606 13.555,27.248 0.62302,1.963 0.62302,1.963 -8.5313,2.5325 -1,0.76441 -1,0.7644 -11,3.4405 -6.3023,2.8241 h -2.1977 v 0.8698 l 2.2851,5.6302 5.8086,16 0.56975,2.25 0.56975,2.25 h 1.5642 l 15.512,-14.5 7.785,-7.1299 10.606,-5.3701 h 5.8161 l 9.9841,5.2991 7,5.1735 8.7925,8.0274 10.181,9.535 2.7,-8.2675 2.7,-8.2675 z m 58.64,-54.296 5.5601,-9.8276 1.2596,-3.5 h -11.369 l -20.068,4.2111 -16.382,7.8646 5.107,13.424 1.8556,5.1704 14.419,7.3834 14.058,-14.899 z m -177.99,20.602 1.9999,-1.0703 4.0471,-9.3593 3.5881,-11.424 -8.2665,-3.0199 -12.712,-4.1492 -18.288,-4.0634 -6.5353,-1.0668 1.8317,4.7229 5.0654,10 5.3974,11.741 18.241,8.7182 3.6315,0.0408 1.9999,-1.0703 z m 80.659,-45.18 4.072,-3.25 4.0135,-5.1578 1.291,-5.1436 -1.1368,-7.4992 -1.1368,-7.4992 -5.7954,-22.7 -4.8619,-16 -2.7737,-6.7327 -2.3573,4.7327 -2.5168,6.5 -2.5168,6.5 -2.6171,9 -2.6171,9 -1.429,8.5 -1.429,8.5 -1.0731,4.0836 -1.0731,4.0836 4.4255,9.4149 8.2412,5.6214 1.5,0.56936 1.5,0.56937 2.1093,0.0789 2.1093,0.079 4.072,-3.25 z"
       id="path8"
       inkscape:connector-curvature="0"
       style="fill:#ead5ca" />
    <path
       d="m 123.08,827.35 -4.0945,-4.6516 -8.5379,-13.197 -2.3433,-5.1448 -2.3433,-5.1448 1.0532,-6.7103 2.0557,-8.7691 2.0557,-8.7691 0.16147,-3.7309 0.16148,-3.7309 -1.6783,-3.8524 -1.6783,-3.8524 -0.94724,-1.1476 -0.94723,-1.1476 -6.9932,-10.452 v -1.1292 l -4.2769,-5.7848 0.57212,-2.8606 0.57212,-2.8606 8.3425,-14.722 3.8122,-11.612 -0.55476,-171.58 -5.605,-21 -1.0236,-7 9.2621,-16.468 3.1063,-14.532 -1.272,-25 -1.8412,-39 -0.1342,-106 -0.93794,-6.5 -0.93793,-6.5 -3.3808,-12.5 h -2.0717 l -8.1314,3.8692 -12,5.2527 -14,4.0481 -8,2.0141 -22,0.31588 -0.61194,-14 2.1794,-17 4.1067,-14 3.4129,-10.102 3.413,-10.102 -0.03472,-7.7964 -2.9338,-14 -2.0304,-4 -4.1793,-12 -1.4443,-6.3785 -1.4443,-6.3786 -8.9971,-24.052 -5.436,-6.4056 -1.5,-1.9126 -1.5,-1.9126 -5.2195,-6.9603 -6.6192,-13 -0.91204,-16.5 h 7.3652 l 8.3856,1.864 22,3.3544 3.4078,1.8026 11.727,1.2258 21.865,-11.465 3,-2.6127 17,-8.76 1.8129,-8.4544 1.8129,-8.4544 1.8957,-9.5 1.8957,-9.5 4.7976,-19 2.7018,-7.5 2.7018,-7.5 2.6042,-5.3441 2.6042,-5.3441 2.7142,-1.0416 6.8587,4.6996 2.4666,6.015 2.4666,6.015 4.3593,14 3.9097,17 4.9185,23 2.5696,11 8.9099,4.5131 11,6.0442 1.5,0.91635 1.5,0.91636 15.871,9.3562 5.7078,1.637 14.421,-2.8132 21,-4.0918 10.014,-2.1809 4.9861,0.70281 -0.19946,5.8069 -0.19945,5.8069 -2.1117,5.6931 -2.1117,5.6931 -5.296,8 -8.2889,10 -9.9873,15 -5.5032,24 -3.5565,14 -6.0901,21.771 3.4653,11.115 3.4653,11.115 6.1262,23 1.0643,25.819 -23.777,-1.3037 -7,-1.8506 -14,-4.1338 -4,-1.8894 -17.082,-7.1417 h -1.2221 l -2.1493,6.1654 -3.2006,23.144 -0.57124,101.19 -0.78124,37.25 -0.78125,37.25 5.8014,11.4 5.8014,11.4 -2.7478,10.85 -2.7478,10.85 -0.94149,5.3644 -0.94148,5.3644 0.2818,85.636 0.28181,85.636 13.352,25.106 -4.1849,6.8939 -9.0671,14 -4.5916,9 -0.004,1.6778 -0.004,1.6778 4.995,18.644 0.006,11.564 -1.4156,3.3879 -1.4156,3.3879 -10.457,15.66 -7.8798,7.5 h -4.6623 l -4.0945,-4.6516 z m -5.7109,-557.07 2.8646,-0.57789 -1.3325,-13.522 1.7239,-1.0654 8.2914,2.1046 8.5879,-4.1637 22,-24.462 1.2953,-1.7813 1.2953,-1.7813 -8.9656,-13.734 -10.193,-11.153 -10.324,-5.1449 -5.1073,0.044 -8,3.6985 -11.369,10.758 -11.195,15.48 18.194,19.326 -10.629,11.146 -2.4755,1.6336 -2.0079,3.7518 10.945,11.391 1.7691,-0.68437 1.7692,-0.68436 2.8646,-0.5779 z m 37.828,-4.6592 4.6931,-5.3519 -9.6426,-10.599 -8.8637,2.4817 -1.1687,6.1732 -1.1688,6.1732 -1.2484,5.3579 6.706,0.82201 6,0.29483 z m 33.462,-15.729 1.1553,-6.3943 3.5153,-20 0.38942,-14.338 0.38942,-14.338 -4.3103,-12.952 -0.59842,0.59843 -0.59843,0.59843 -1.7355,8.5722 -1.7355,8.5722 -1.6622,3.6433 -1.6622,3.6433 -3.9532,8.4435 -4.7409,6.9861 -2.1964,4.104 4.7942,9.5451 2.5548,7.9213 1.4979,2 3.275,11.423 4.4665,-1.6346 z m -85.077,-46.617 5.4103,-5.2224 10.15,-8.023 9.1153,-4.0321 h 3.8122 l 10.434,5.2438 10.959,9.2562 14.986,13.615 4.7412,-13.615 3.7799,-14 0.0342,-3.1634 -17.5,-4.1676 -10,-2.85 0.18359,-2.6254 0.18359,-2.6253 13.105,-26.115 -6.4718,-3.946 -2.3209,-0.008 -10.174,20.5 -8.0727,14.5 h -11.687 l -2.0135,-2.5 -15.508,-30.485 -2.445,-2.0292 -7.278,3.041 v 0.80155 l 8.8644,17.672 2.5678,5.3322 2.5678,5.3322 v 2.6806 l -7.5,2.2944 -4,1.8146 -14,5.1772 -3.5,1.1021 0.0124,2.2667 2.8161,5.3978 1.5595,5.3645 1.5595,5.3645 4.2346,9.573 5.9864,-5.6998 5.4103,-5.2224 z m 115.92,-47.163 5,-4.8459 8.5425,-12.016 7.9575,-15.104 v -1.1493 h -13.016 l -21.216,5.013 -13.816,7.26 0.63257,2.1135 0.63258,2.1135 5.0227,13 2.6661,2.8343 10.594,5.3677 2,0.25884 z m -160.21,-2.115 1.9508,-3.5 4.856,-14.865 -3.599,-2.0702 -17,-5.6163 -19,-4.21 -6.8119,-0.99364 1.1672,2.7552 10.645,23.518 17.895,9.0773 7.9468,-0.59572 z m 78.459,-42.991 5.0124,-3.9909 1.7764,-3.7434 1.7764,-3.7434 -2.4222,-17.031 -3.3216,-12.5 -3.3216,-12.5 -4.2022,-14.299 -2.366,-5.1928 -2.3088,3.4919 -6.2485,17 -1.9892,6.5 -1.9892,6.5 -3.2162,18 -2.0931,9.3448 3.9246,8.8721 6.7974,5.1847 4.9402,1.9716 4.2387,0.1268 5.0124,-3.9909 z"
       id="path10"
       inkscape:connector-curvature="0"
       style="fill:#d5cfcd" />
    <path
       d="m 123.4,827.25 -3.4932,-3.75 -8.833,-13.151 -2.0394,-4.7576 -2.0394,-4.7576 10e-4,-4.1671 0.001,-4.1671 2.4987,-10.314 2.4987,-10.314 v -3.9523 l -4.2826,-8.4203 -7.484,-11.29 -2.8667,-5.1454 -2.8661,-5.1454 13,-24.419 0.27312,-87.5 0.27311,-87.5 -7.2441,-29.334 11.42,-21.29 1.01,-20.376 -1.3071,-21.5 -1.3071,-21.5 -0.1945,-58.5 -0.19451,-58.5 -1.1396,-7.5 -1.1396,-7.5 -3.1668,-11.336 -9.2826,4.0595 -16,6.5279 -20,5.4584 -21,0.28989 0.16946,-12 0.16946,-12 1.9614,-8 5.0672,-18 6.2609,-18 -3.209,-16.39 -8.1726,-22.61 -1.6553,-8.3338 -9.1616,-24.491 -3.4298,-4.3598 -11.446,-15.135 -5.3344,-11.68 -0.11001,-7.4688 -0.11001,-7.4688 9,0.5519 21,3.0097 11,3.216 14,0.1518 33,-18.775 5.8669,-2.4906 3.5338,-14.726 3.1889,-17 2.5729,-10.5 2.5729,-10.5 5.4744,-17 6.3188,-12.5 h 2.5155 l 7.1486,5.8925 5.2178,14.608 3.2938,12 4.9462,21 3.8305,19 3.1143,10 16.269,8 21.065,12.525 6.8283,1.8854 15.241,-2.8115 19,-4.0698 15.5,-1.3165 v 10.908 l -2.3286,5.9396 -2.3286,5.9396 -5.6559,9 -11.402,14 -3.0441,5 -3.0441,5 -3.4152,13 -4.5543,21 -3.9084,14.036 -2.5167,4.7024 -0.0419,5.6309 -0.0419,5.6309 7.4031,22 3.941,17 2.033,12.109 -0.29775,7.4456 -0.29773,7.4456 -21.066,-0.28225 -21.934,-6.1352 -17,-7.2739 -6.4983,-2.1437 -0.96047,0.96047 -3.1473,19.875 -1.8939,8.3856 -0.12191,54.807 -0.1219,54.807 -0.6281,30 -0.62809,30 1.3099,10 10.357,18.495 -2.2051,10.505 -4.4617,14 v 180 l 12.837,24.627 -4.3184,8.3729 -12.518,19 0.0548,12 3.6502,9 0.53523,7.675 0.53523,7.6751 -6.5585,11.65 -7.6236,11.253 -6.2472,6.2472 h -5.9481 l -3.4932,-3.75 z m -6.0402,-556.97 2.8646,-0.57789 -1.3325,-13.522 1.7239,-1.0654 8.2914,2.1046 8.8379,-4.2783 10.56,-12.141 13.626,-14.302 0.0646,-2.4204 -10.494,-15.312 -12.492,-11.686 -10.23,-3.0378 -10.811,5.2937 -9.9737,10.169 -11,14.808 0.03768,1.1863 18.091,18.807 -10.628,11.145 -2.4755,1.6336 -2.0079,3.7518 10.945,11.391 1.7691,-0.68437 1.7692,-0.68436 2.8646,-0.5779 z m 37.828,-4.6592 4.6931,-5.3519 -9.6426,-10.599 -8.8637,2.4817 -1.1687,6.1732 -1.1688,6.1732 -1.2484,5.3579 6.706,0.82201 6,0.29483 z m 33.462,-15.729 1.1553,-6.3943 3.5153,-20 0.38942,-14.338 0.38942,-14.338 -4.3103,-12.952 -0.59842,0.59843 -0.59843,0.59843 -1.7355,8.5722 -1.7355,8.5722 -1.6622,3.6433 -1.6622,3.6433 -3.9532,8.4435 -4.7409,6.9861 -2.1964,4.104 4.7942,9.5451 2.5548,7.9213 1.4979,2 3.275,11.423 4.4665,-1.6346 z m -85.077,-46.617 5.4103,-5.2224 10.15,-8.023 9.1153,-4.0321 h 3.8122 l 10.434,5.2438 10.959,9.2562 14.986,13.615 4.7412,-13.615 3.7799,-14 0.0342,-3.1634 -17.5,-4.1676 -10,-2.85 0.18359,-2.6254 0.18359,-2.6253 13.105,-26.115 -6.4718,-3.946 -2.3209,-0.008 -10.174,20.5 -8.0727,14.5 h -11.687 l -2.0135,-2.5 -15.508,-30.485 -2.445,-2.0292 -7.278,3.041 v 0.80155 l 8.8644,17.672 2.5678,5.3322 2.5678,5.3322 v 2.6806 l -7.5,2.2944 -4,1.8146 -14,5.1772 -3.5,1.1021 0.0124,2.2667 2.8161,5.3978 1.5595,5.3645 1.5595,5.3645 4.2346,9.573 5.9864,-5.6998 5.4103,-5.2224 z m 116.88,-47.865 5.5871,-5.5871 7.9805,-11.752 6.9659,-13.574 0.01,-1.5 h -14.744 l -18.979,4.8144 -10.778,5.0046 -3.5588,2.6972 1.8963,5.4919 1.8963,5.4919 1.8866,4 1.8866,4 11.993,6.2356 1.1848,0.1322 1.1848,0.13221 5.5871,-5.5871 z m -161.36,-0.91289 1.7426,-3 5.4233,-16.574 -0.75892,-0.65295 -19,-6.1905 -17,-4.0783 -9.5,-1.7456 v 1.9338 l 6.759,14.308 4.4931,10.514 18.142,9.0821 7.9559,-0.59572 z m 75.934,-41.153 2.4725,-1.6534 5.7522,-5.1933 1.7295,-3.7855 1.7295,-3.7855 -4.5002,-24.429 -3.2601,-13 -5.0791,-16 -3.1407,-8.7709 -1.9948,3.5645 -4.8772,12.206 -5.7258,18.313 -5.2786,27.249 0.61274,2.7898 0.61273,2.7898 3.0519,3.7025 3.0519,3.7025 7.3159,3.865 5.055,0.0884 2.4725,-1.6534 z"
       id="path12"
       inkscape:connector-curvature="0"
       style="fill:#e3cdb8" />
    <path
       d="m 123.4,827.25 -3.4932,-3.75 -8.833,-13.151 -2.0394,-4.7576 -2.0394,-4.7576 10e-4,-4.1671 0.001,-4.1671 2.4987,-10.314 2.4987,-10.314 v -3.9523 l -4.2826,-8.4203 -7.484,-11.29 -2.8667,-5.1454 -2.8661,-5.1454 13,-24.419 0.27312,-87.5 0.27311,-87.5 -7.2441,-29.334 11.42,-21.29 1.01,-20.376 -1.3071,-21.5 -1.3071,-21.5 -0.1945,-58.5 -0.19451,-58.5 -1.1396,-7.5 -1.1396,-7.5 -3.1668,-11.336 -9.2826,4.0595 -16,6.5279 -20,5.4584 -21,0.28989 0.16946,-12 0.16946,-12 1.9614,-8 5.0672,-18 6.2609,-18 -3.2511,-16.602 -8.8465,-24.398 -0.01897,-2.5 -0.01897,-2.5 -6.1262,-16 -3.7413,-10.449 -4.3715,-4.5507 -10.699,-14.32 -5.3344,-11.68 -0.11001,-7.4688 -0.11001,-7.4688 9,0.5519 21,3.0097 11,3.216 14,0.1518 33,-18.775 5.8669,-2.4906 3.5338,-14.726 3.1889,-17 2.5729,-10.5 2.5729,-10.5 5.4744,-17 6.3188,-12.5 h 2.5155 l 7.1486,5.8925 5.2178,14.608 3.2938,12 4.9462,21 3.8305,19 3.1143,10 16.269,8 21.065,12.525 6.8283,1.8854 15.241,-2.8115 19,-4.0698 15.5,-1.3165 v 10.908 l -2.3286,5.9396 -2.3286,5.9396 -5.6559,9 -11.402,14 -3.0441,5 -3.0441,5 -3.4152,13 -4.5543,21 -3.9084,14.036 -2.5167,4.7024 -0.0419,5.6309 -0.0419,5.6309 7.4031,22 3.941,17 2.033,12.109 -0.29775,7.4456 -0.29773,7.4456 -21.066,-0.28225 -21.934,-6.1352 -17,-7.2739 -6.4983,-2.1437 -0.96047,0.96047 -3.1473,19.875 -1.8939,8.3856 -0.12191,54.807 -0.1219,54.807 -0.6281,30 -0.62809,30 1.3099,10 10.357,18.495 -2.2051,10.505 -4.4617,14 v 180 l 12.837,24.627 -4.3184,8.3729 -12.518,19 0.0548,12 3.6502,9 0.53523,7.675 0.53523,7.6751 -6.5585,11.65 -7.6236,11.253 -6.2472,6.2472 h -5.9481 l -3.4932,-3.75 z m -3.5784,-557.55 1.3264,-1.0728 -1.2212,-7.1283 -0.5332,-2.6951 -0.53321,-2.6951 13.635,0.39025 8.2767,-5.9603 4.2113,-6.0397 16.926,-18 0.0858,-2.4204 -10.494,-15.312 -12.492,-11.686 -10.23,-3.0378 -10.811,5.2937 -9.9737,10.169 -11,14.808 0.0513,1.1863 17.905,18.999 -15.296,15.386 1.3643,1.8071 1.3643,1.8071 8.1109,8.5893 8,-1.3154 1.3264,-1.0728 z m 35.182,-3.7107 5.2062,-6.0096 -6.7146,-7.7361 -4.3253,-2.4891 -8.6747,2.7445 -1.4056,8.2611 -1.4056,8.2611 1.2097,1.2097 6.6015,1.5634 4.3021,0.20472 z m -76.008,-8.3539 v -3.3635 l 1.9531,-10.299 5.0336,-11.474 2.9525,-5.5562 -7.012,-10.962 -5.891,-12.728 -1.6078,-6.3774 -1.6078,-6.3774 -2.3207,-12.331 -5.2856,2.7825 -2.4778,16.655 1.3176,18.894 1.1766,20.604 -2.158,8.3956 -0.63346,7.2062 -0.63346,7.2062 15.694,0.68513 1.5,0.40249 z m 107.67,-0.41079 1.169,-0.74367 2.7936,-15.491 2.7937,-15.491 0.0746,-35 -3.7302,-9.6698 -1.4876,1.6698 -2.3613,14.865 -1.5851,3.5677 -1.5851,3.5677 -5.9834,13 -4.4145,6 -1.383,3.7423 2.8577,6.1288 2.8577,6.1288 5.5304,16 0.72168,2.5 2.5628,-0.0306 1.169,-0.74367 z m -84.785,-52.226 3.6434,-3.5 10.972,-9.7946 12,-5.7038 3.1243,-0.002 8.8757,4.2844 7,5.1296 17.027,15.086 4.1998,3.5623 6.1688,-19.562 1.4451,-5.2573 1.4451,-5.2573 -1.5632,-0.96612 -13.722,-3.0238 -13,-3.6975 -0.55142,-2.8035 14.172,-28.707 -0.31034,-0.22002 -0.31035,-0.22003 -7.2486,-4.3551 -1.8604,2.5078 -8.6758,17 -8.3901,16 -12.187,0.59185 -4.9011,-8.5918 -13.405,-26 -0.69791,-0.69933 -7.1061,2.3452 -1.131,1.83 14.103,28.121 v 2.7527 l -9.5,3.054 -13,4.8378 -6.5,2.4543 2.99e-4,0.65218 3e-4,0.65217 6.841,19 3.2892,7.7488 6.11,-5.7488 z m 118.57,-49.587 5.5871,-5.5871 7.9805,-11.752 6.9659,-13.574 0.01,-1.5 h -14.744 l -19.694,4.9958 -14.562,7.2928 v 1.3114 l 1.7109,1.9 3.3297,10.5 3.4811,6.2312 7.9783,3.1615 2.6429,2.6073 h 3.7267 l 5.5871,-5.5871 z m -162.19,0.83711 1.5816,-1.75 6.9649,-19.494 -1.318,-0.73669 -19,-6.1868 -17,-4.0783 -9.5,-1.7456 v 1.9559 l 5.808,12.286 5.9648,13.275 16.726,8.2246 h 8.1914 z m 76.756,-42.903 2.4725,-1.6534 5.7522,-5.1933 1.7295,-3.7855 1.7295,-3.7855 -4.5002,-24.429 -3.2601,-13 -5.0791,-16 -3.1407,-8.7709 -1.9948,3.5645 -4.8772,12.206 -5.7258,18.313 -5.2786,27.249 0.61274,2.7898 0.61273,2.7898 3.0519,3.7025 3.0519,3.7025 7.3159,3.865 5.055,0.0884 2.4725,-1.6534 z"
       id="path14"
       inkscape:connector-curvature="0"
       style="fill:#dcc8b0" />
    <path
       d="m 123.4,827.25 -3.4932,-3.75 -8.833,-13.151 -2.0394,-4.7576 -2.0394,-4.7576 10e-4,-4.1671 0.001,-4.1671 2.4987,-10.314 2.4987,-10.314 v -3.9523 l -4.2826,-8.4203 -7.484,-11.29 -2.8667,-5.1454 -2.8661,-5.1454 13,-24.419 0.27312,-87.5 0.27311,-87.5 -7.2441,-29.334 11.42,-21.29 1.01,-20.376 -1.3071,-21.5 -1.3071,-21.5 -0.1945,-58.5 -0.19451,-58.5 -1.1396,-7.5 -1.1396,-7.5 -3.1668,-11.336 -9.2826,4.0595 -16,6.5279 -20,5.4584 -21,0.28989 0.16946,-12 0.16946,-12 1.9614,-8 5.0672,-18 6.2609,-18 -3.209,-16.39 -8.2254,-22.61 -1.5,-10 -5.4087,-14 -3.2853,-9.1027 -4.7463,-4.8973 -10.699,-14.32 -5.3344,-11.68 -0.11001,-7.4688 -0.11001,-7.4688 9,0.5519 21,3.0097 11,3.216 14,0.1518 33,-18.775 5.8669,-2.4906 3.5338,-14.726 3.1889,-17 2.5729,-10.5 2.5729,-10.5 5.4744,-17 6.3188,-12.5 h 2.5155 l 7.1486,5.8925 5.2178,14.608 3.2938,12 4.9462,21 3.8305,19 3.1143,10 16.269,8 21.065,12.525 6.8283,1.8854 15.241,-2.8115 19,-4.0698 15.5,-1.3165 v 10.908 l -2.3286,5.9396 -2.3286,5.9396 -5.6559,9 -11.402,14 -3.0441,5 -3.0441,5 -3.4152,13 -4.5543,21 -3.9084,14.036 -2.5167,4.7024 -0.0419,5.6309 -0.0419,5.6309 7.4031,22 3.941,17 2.033,12.109 -0.29775,7.4456 -0.29773,7.4456 -21.066,-0.28225 -21.934,-6.1352 -17,-7.2739 -6.4983,-2.1437 -0.96047,0.96047 -3.1473,19.875 -1.8939,8.3856 -0.12191,54.807 -0.1219,54.807 -0.6281,30 -0.62809,30 1.3099,10 10.357,18.495 -2.2051,10.505 -4.4617,14 v 180 l 12.837,24.627 -4.3184,8.3729 -12.518,19 0.0548,12 3.6502,9 0.53523,7.675 0.53523,7.6751 -6.5585,11.65 -7.6236,11.253 -6.2472,6.2472 h -5.9481 l -3.4932,-3.75 z m -3.1913,-556.88 1.0477,-0.6475 -1.2537,-13.49 12.492,0.94301 6.8568,-5.1505 0.40179,0.40178 0.40178,0.40179 -3.1313,16.602 1.9006,1.9006 10.615,0.8803 8.8073,-9.0879 1.769,-3.1611 -9.4419,-11.052 -1.5897,0.63055 -1.5897,0.63054 -6.5,1.0915 v -1.9387 l 21,-23.132 v -2.1112 l -10.494,-15.312 -12.492,-11.686 -10.23,-3.0378 -10.811,5.2937 -9.9737,10.169 -11,14.808 0.06654,1.1863 16.886,18 0.0472,2.0536 -14,13.893 v 1.3925 l 10.399,11.378 8.7667,-1.2016 1.0477,-0.64751 z m -40.54,-17.152 1.0277,-7.7842 3.5375,-7.9317 4.7612,-10.199 v -1.3816 l -4,-5.919 -3.5894,-5.5 -6.2021,-15 -2.1629,-10.475 -2.1629,-10.475 -0.2792,-0.27919 -0.2792,-0.2792 -6.1669,2.1498 -1.341,14.359 0.57711,12 0.5771,12 1.2164,13.872 -1.0301,5.5642 -1.0301,5.5642 -0.66206,8.1877 -0.66206,8.1877 8.6971,0.77522 8.1459,0.34941 z m 107.89,3.6872 0.52875,-0.85554 1.5442,-8.7738 1.5442,-8.7738 1.8565,-10 0.86349,-13.458 0.8635,-13.458 -0.84688,-6.7446 -0.84687,-6.7445 -3.025,-7.2397 -1.7783,1.099 -0.69483,5.2724 -0.69483,5.2724 -5.1084,15 -7.0478,13 -3.7178,4.7697 v 2.6864 l 7,14.951 v 2.9744 l 0.86061,0.53188 0.86061,0.53189 3.3262,11.855 3.9837,-1.0418 z m -20.599,-11.831 1.0316,-1.9276 -1.1475,-2.9902 -3.1271,-1.2 -3.5023,1.1116 -1.0379,3.9689 2.9648,2.9648 h 3.7868 z m -69.961,-35.252 4.4996,-4.1795 15,-13.835 7,-3.535 7.6862,-2.4872 10.314,5.5606 7,5.0871 18,16.211 2.2462,1.3186 4.1297,-11.461 5.221,-18.736 -0.29846,-0.24495 -0.29846,-0.24496 -14,-3.3009 -13.868,-3.5781 -0.82489,-2.4747 14.465,-29.134 -2.7714,-1.859 -5.2988,-2.8742 -1.9044,2.4473 -8.1139,16 -8.9576,17 h -12.725 l -16,-31.04 -2.2183,-3.7077 -7.2538,2.394 -0.55245,0.89389 -0.55245,0.89388 14.077,28.398 v 2.2863 l -9.5,3.2809 -16,5.849 -3.5,1.4658 v 1.2344 l 9.4904,26.552 h 1.0104 z m 96.124,-40.347 4.3757,-1.5264 8,-3.6305 9.8082,-3.8167 10.462,-10.272 8.2537,-12.154 6.9659,-13.574 0.005,-0.89361 0.005,-0.89362 -20.5,1.1655 -16.719,5.2647 -10.704,5.7911 -16.595,-16.434 -17.982,-8.7284 -3.4729,-1.7716 h -2.0271 l 0.0292,6.5 1.522,4.3703 1.522,4.3703 1.3754,2.6598 1.3754,2.6598 11.154,11.244 6.2937,5.2958 -12.994,25.9 h 25.47 l 4.3757,-1.5264 z m -134.38,-12.724 0.99193,-1.25 7.3572,-19.804 -1.5962,-1.4474 -19,-6.1667 -17,-4.0783 -9.5,-1.7456 v 1.9419 l 7.6679,16.3 1.8568,4.5772 1.8568,4.5772 14.119,7.2664 1.5,0.46061 1.5,0.46062 9.2551,0.1578 0.99193,-1.25 z m 76.28,-43.403 2.4725,-1.6534 5.7522,-5.1933 1.7295,-3.7855 1.7295,-3.7855 -4.5002,-24.429 -3.2601,-13 -5.0791,-16 -3.1407,-8.7709 -1.9948,3.5645 -4.8772,12.206 -5.7258,18.313 -5.2786,27.249 0.61274,2.7898 0.61273,2.7898 3.0519,3.7025 3.0519,3.7025 7.3159,3.865 5.055,0.0884 2.4725,-1.6534 z"
       id="path16"
       inkscape:connector-curvature="0"
       style="fill:#ceb9a8" />
    <path
       d="m 124.5,828.25 -2.7723,-2.75 -7.7883,-10.496 -6.9301,-13.504 0.0378,-8 4.1158,-17 0.50903,-4.1243 0.50902,-4.1243 -3.4275,-6.7514 -13.982,-22.511 4.3509,-10.72 1.6002,-2.2847 1.6002,-2.2846 2.5828,-4.6002 2.5828,-4.6001 0.56338,-176.53 -7.085,-28.419 4.7392,-9.0513 6.3638,-11.755 0.57529,-9.1224 0.57528,-9.1224 -2.6733,-55 -0.1742,-108 -2.4846,-16 -2.9122,-10.388 -7.4766,3.0788 -6,2.6695 -13.553,5.2984 -18.242,4.8818 -21.205,0.45974 -0.61478,-13 2.2133,-17 1.8042,-6 10.097,-31.34 v -3.9989 l -1.5725,-6.3308 -1.5725,-6.3308 -9.1052,-26.74 1.1329,-9.2596 4.6421,-14 1.8526,-2.9199 1.686,5.9199 3.9029,20 4.7385,16 7.4722,21 -1.2592,13 -1.3204,11.5 -1.3204,11.5 1.2228,1.2815 17.5,1.3981 0.03364,-13.68 7.1131,-17 1.1005,-2.6298 1.1005,-2.6298 -6.3016,-9.5136 -3.8483,-8.2268 -3.395,-7.4352 -4.5715,-22.565 3.9902,-3.5 3.2784,-0.012 5.2743,-2.752 10.726,-3.502 1.4196,-0.80205 -4.4239,-8.2158 -4.4239,-8.2162 -3.0717,-5.8073 v -1.5797 l 13.5,-10.08 4,-3.1018 7.775,-5.9312 h 1.2797 l 5.9726,12.24 5.9726,12.24 6.7815,12.798 3.7865,-4.7782 4.2006,-8 0.61566,-0.5 0.61567,-0.5 6.3289,-13 1.2606,-4.5 1.2606,-4.5 0.67522,-1 0.67523,-1 1.2914,-6.5 1.2914,-6.5 0.85824,-0.95 0.85825,-0.95 v 6.325 l 4.2071,11.575 19.053,18.482 -2.0564,2.5182 -10.704,21 -0.33333,0.75 -0.33334,0.75 h 28.496 l 15.17,-6.0543 12,-6.6127 12.239,-14.541 9.0151,-16.292 0.73989,-2.406 0.7399,-2.406 -21.734,1.2557 -15,4.7873 -11.559,5.7145 -10.441,-11.214 -8,-5.9911 -13,-6.8811 -4,-1.3265 -4.4428,-1.9471 -2.5812,2.4144 -21.361,10.625 -20.783,-10.125 h -4.5434 l -11.502,2.9804 -9.787,5.4444 -2.7762,2.0752 -13.629,13.812 -19.595,-6.275 -13,-3.2404 -13.995,-2.6348 -0.5057,0.5057 7.2331,14.832 4.7678,10.749 v 5.3511 l -2.2619,2.2619 -8.3651,-10.362 -6.0127,-9 -2.6955,-7 -1.9698,-2.5725 -0.48911,-7.6213 -0.48911,-7.6213 18.783,1.3914 13,2.7278 16.92,3.4029 7.2161,-0.96789 34.763,-19.441 4.2907,-1.6313 2.5402,-11.667 4.5655,-22 4.2154,-18.473 4.7423,-14.528 3.0461,-6.4997 3.0462,-6.4997 1.8887,-2.6886 6.1077,3.1584 3.8063,5.5302 4.1823,12 2.2096,8 2.2096,8 3.7932,17 2.4182,11.5 2.4182,11.5 2.167,6 12.208,5.8731 24.867,14.512 6.6924,2.2087 18.244,-3.1654 4.8013,-1.8254 20.897,-3.1029 h 6.2433 v 8.637 l -1.5855,5.4315 -1.5855,5.4315 -2.5698,4.4429 -2.5698,4.4429 -9.1896,11.724 -9.4996,13.39 -2.0562,6.7958 -2.0562,6.7958 -1.9084,9.7042 -1.9084,9.7042 -6.1835,20 -2.0118,9.6838 6.3426,20.316 1.2808,3.5 1.2807,3.5 2.6567,13 2.6567,13 -0.59352,16 -20.995,-0.44431 -19.147,-5.0502 -12.858,-5.0478 -3.464,-1.9522 -10.037,-3.8136 -0.97348,1.5751 -4.8577,28.733 -1.5212,165 0.27184,11.713 3.7436,7.1434 3.7436,7.1434 3.6974,7.2869 -4.3551,16.713 -1.4006,6.344 -1.4006,6.344 0.27634,87.156 0.27633,87.156 4.7931,9 7.7069,14.945 v 2.1034 l -17.122,26.952 1.0875,12 3.4097,9 0.1252,16.118 -10,16.802 -10.113,10.58 h -5.1141 l -2.7723,-2.75 z m 9.8446,-534.11 0.88063,-1.3628 3.2743,-3.3463 9.2066,-13.928 12.293,-14.681 v -1.6792 l -9.7067,-10.556 -8.3033,2.7403 -0.66564,-0.66564 -0.66564,-0.66565 3.9377,-4.4921 18.362,-20.217 -11.838,-16.967 -9.6203,-9.5127 -7,-3.5198 -5.4086,-1.299 -10.591,4.7327 -10.5,10.789 -11,14.808 0.0056,1.1863 16.994,18.324 v 1.7295 l -14,13.893 v 2.1162 l 11.927,11.803 9.0727,18.646 0.044,2.4881 2.0072,4.4244 2.0072,4.4244 8.406,-7.8489 0.88063,-1.3628 z m 52.636,-36.137 h 0.81783 l 1.5871,-7.25 1.5871,-7.25 3.0671,-20.757 0.47312,-0.76553 0.47312,-0.76552 0.1604,-26.502 -4.526,-14.751 -1.0509,0.35032 -1.051,0.35031 -1.0738,6.4199 -1.0738,6.4199 -1.8263,5.5 -1.8263,5.5 -7.8477,15 -2.1437,3.6569 -2.1437,3.6569 3.5682,8.3431 3.5682,8.3431 5.5831,15.598 1.43,-0.54877 1.43,-0.54876 h 0.81784 z m -18.981,-14.332 v -2.0108 l -3.31,-3.6575 h -2.0325 l -3.6575,3.31 v 3.5766 l 4.2325,2.9646 4.7675,-2.1722 z m -64.112,-40.106 11.045,-10.438 8.5671,-4.9017 7.0868,-2.2407 10.913,5.2319 9,7.1857 17.659,15.962 1.7671,-2.8592 4.9674,-16.002 1.6974,-5.7726 1.6974,-5.7726 -0.78803,-0.59579 -21,-5.4724 -7.5,-1.9636 v -2.0762 l 14.094,-28.16 -0.87421,-2.1869 -7.2316,-3.8214 -0.65598,0.82138 -14.68,28 -1.3467,2.6448 -1.3467,2.6448 -1.3981,1.1603 -1.3981,1.1603 -10.38,-0.61015 -17.283,-33.363 -1.3053,-1.276 -8.1947,2.4552 v 2.1816 l 14.207,28.695 -1.7065,1.6986 -27,9.6889 0.21596,2.9118 0.21596,2.9118 3.8322,10.095 4.7013,12.5 h 1.3774 z m 30.912,-89.976 2.7003,-1.4147 6.2761,-6.6706 1.5952,-3.168 1.5952,-3.168 -2.0106,-11.166 -2.0105,-11.166 -5.8669,-21.333 -5.6525,-18 h -1.806 l -4.7857,12 -2.9888,9 -2.9889,9 -2.9283,14.211 -2.9283,14.211 0.004,2.7887 0.004,2.7887 4.1496,6.8066 4.343,3.7993 6,2.8158 4.5993,0.0782 2.7003,-1.4147 z"
       id="path18"
       inkscape:connector-curvature="0"
       style="fill:#b5a8ab" />
    <path
       d="m 123.34,826.75 -3.9118,-4.25 -6.4914,-9.4481 -5.938,-12.552 -7.9e-4,-3.6218 -7.9e-4,-3.6218 5,-19.711 v -6.3537 l -6.8817,-12.175 -6.8409,-10.517 -3.4772,-6.1082 5.8866,-11.892 6.8131,-12 0.27108,-88.893 0.27109,-88.893 -1.6511,-6.1066 -1.6511,-6.1066 -3.482,-15.26 4.242,-7.8647 6.9487,-12.875 -0.0442,-36 -2.1892,-148 -4.0411,-21.726 -0.83712,-0.8315 -0.83711,-0.8315 -14,6.0044 -16,5.9747 -16,3.7148 -16.319,1.387 -2.2373,-0.71008 -2.2372,-0.71008 1.2373,-22.272 5.8198,-23 7.2366,-20.533 v -6.6181 l -5.8808,-19.848 -6.2449,-18 1.0085,-9 4.6421,-14 1.8526,-2.9199 1.686,5.9199 3.9029,20 4.7385,16 7.4722,21 -1.2592,13 -1.3204,11.5 -1.3204,11.5 1.2228,1.2815 17.5,1.3981 0.03364,-13.68 7.1131,-17 1.1005,-2.6298 1.1005,-2.6298 -6.3016,-9.5136 -3.8483,-8.2268 -3.395,-7.4352 -4.5715,-22.565 3.9902,-3.5 3.2784,-0.012 5.2743,-2.752 10.726,-3.502 1.4196,-0.80205 -4.4239,-8.2158 -4.4239,-8.2162 -3.0717,-5.8073 v -1.5797 l 13.5,-10.08 4,-3.1018 7.775,-5.9312 h 1.2797 l 5.9726,12.24 5.9726,12.24 6.7815,12.798 3.7865,-4.7782 4.2006,-8 0.61566,-0.5 0.61567,-0.5 6.3289,-13 1.2606,-4.5 1.2606,-4.5 0.67522,-1 0.67523,-1 1.2914,-6.5 1.2914,-6.5 0.85824,-0.95 0.85825,-0.95 v 6.325 l 4.2071,11.575 19.053,18.482 -2.0564,2.5182 -10.704,21 -0.33333,0.75 -0.33334,0.75 h 28.742 l 15.925,-6.7522 9.3067,-4.2558 10.253,-11.219 5.6748,-8.2733 9.593,-17.77 -21.828,0.98088 -12,3.4612 -15.623,7.2016 -10.377,-11.142 -8,-5.9911 -13,-6.8811 -4,-1.3265 -4.4428,-1.9471 -2.5812,2.4144 -21.361,10.625 -20.783,-10.125 h -4.5434 l -11.502,2.9804 -9.787,5.4444 -2.7762,2.0752 -13.545,13.724 -18.679,-6.1757 -13,-3.2086 -14.872,-2.8017 -0.6386,0.6386 12.122,25.531 -0.61118,6.1377 -2.3731,0.7784 -9.2019,-11.624 -5.9738,-10.329 -3.9512,-11.484 v -9.982 l 16.808,1.292 15.692,3.1845 18.121,3.4779 6.9363,-2.4014 10.942,-5.5314 10.944,-6.9856 15.108,-7.7214 3.4229,-13.519 1.9828,-10 1.9828,-10 3.8672,-17 4.4522,-14 3.8432,-9 2.1049,-4 2.1049,-4 0.58198,-0.72814 7.1305,4.4069 1.9611,3.6644 2.6447,7.3284 2.6447,7.3284 2.4356,9 2.4356,9 3.7328,18 4.102,19 1.0555,4.4964 15.526,7.8064 23.937,14.192 6,1.0843 22,-4.2984 20,-3.7089 3.75,-0.0358 3.75,-0.0357 -0.0348,5.5 -2.8954,13.665 -6.3368,10.335 -13.317,17 -2.231,3.6556 -2.231,3.6556 -3.9181,11.935 -4.0189,19.754 -5.2212,18 -2.7953,9.9359 v 3.4308 l 2.9193,9.3167 2.9193,9.3166 2.0761,7 2.0761,7 1.9895,11 1.9894,11 0.0152,6.1276 0.0152,6.1276 -3.0331,2.5172 -17.467,-1.4122 -17,-3.9416 -13,-5.0692 -16.648,-7.035 -0.59259,0.68566 -2.2508,10.5 -2.2508,10.5 -1.6431,151 -0.30754,17 -0.30755,17 3.2572,6.5 3.2572,6.5 5.1178,9.2321 -3.351,11.768 -1.8846,8.5 -1.8846,8.5 0.48784,175.12 12.685,24.993 -4.3442,7.7344 -7.5176,11.156 -5.5896,9.6296 0.55337,5.6852 0.55338,5.6852 4.301,13 -0.70752,12.045 -10.934,17.926 -9.1323,9.5292 h -5.113 l -3.9118,-4.25 z m 2.5625,-130.95 2.108,-8.7042 0.98136,-49.296 0.98135,-49.296 1.9779,-35.468 0.55417,-2.2658 0.55418,-2.2658 0.75368,-10.353 0.75368,-10.353 -12.707,0.80909 -1.8324,2.8965 -0.1409,21 -0.14089,21 -0.139,118 1.5829,15.736 2.6046,-2.7358 2.108,-8.7042 z m 11.095,-404.73 1.5,-1.6421 9.2066,-13.928 12.293,-14.681 v -1.6792 l -9.7067,-10.556 -8.3033,2.7403 -1.2957,-1.2957 16.673,-18.528 5.758,-6.2247 -9.5061,-13.775 -9.7299,-11.399 -12.209,-6.1009 h -3.747 l -10.002,5.0683 -11.432,11.529 -9.7694,14.32 10.091,11.583 7.1783,6.8923 v 1.8208 l -14,14.438 v 1.9112 l 11.927,11.803 9.0727,18.646 v 2.1173 l 4.1965,9.755 10.304,-11.172 z M 187.1045,258 h 0.94296 l 0.85782,-2.2562 0.85782,-2.2562 1.6713,-12.494 1.6713,-12.494 1.8835,-8.3512 0.0783,-12.718 0.0783,-12.718 -4.5145,-14.714 h -2.3581 l -0.65123,5.541 -0.65124,5.541 -2.9659,8.5597 -2.9659,8.5597 -5.7552,10.299 -4.7153,8.2831 7.1497,16.717 5.5831,15.598 1.43,-0.54877 1.43,-0.54876 h 0.94297 z m -19.107,-14.332 v -2.0108 l -3.31,-3.6575 h -2.0325 l -3.6575,3.31 v 3.5766 l 4.2325,2.9646 4.7675,-2.1722 z m -64.112,-40.106 11.045,-10.438 8.5671,-4.9017 7.0868,-2.2407 10.913,5.2319 9,7.1857 17.659,15.962 1.7671,-2.8592 4.9674,-16.002 1.6974,-5.7726 1.6974,-5.7726 -0.78803,-0.59579 -21,-5.4724 -7.5,-1.9636 v -2.0762 l 14.094,-28.16 -0.87421,-2.1869 -7.2316,-3.8214 -0.65598,0.82138 -14.68,28 -1.3467,2.6448 -1.3467,2.6448 -1.3981,1.1603 -1.3981,1.1603 -10.38,-0.61015 -17.283,-33.363 -1.3053,-1.276 -8.1947,2.4552 v 2.1816 l 14.207,28.695 -1.7065,1.6986 -27,9.6889 0.21596,2.9118 0.21596,2.9118 3.8322,10.095 4.7013,12.5 h 1.3774 z m 34.133,-92.176 4.7388,-3.6139 4.4435,-7.9061 -0.95668,-6.3662 -2.0205,-10.5 -2.0205,-10.5 -7.4351,-25 -1.5246,-5.25 -1.5246,-5.25 h -1.7924 l -4.0731,9.5 -3.426,9.8414 -3.426,9.8414 -4.0813,19.317 -2.1089,12.693 1.2826,6.8368 7.1855,7.1855 6.2184,2.7068 5.7821,0.0782 4.7388,-3.6139 z"
       id="path20"
       inkscape:connector-curvature="0"
       style="fill:#c3af95" />
    <path
       d="m 123.34,826.75 -3.9118,-4.25 -6.4914,-9.4481 -5.938,-12.552 -7.9e-4,-3.6218 -7.9e-4,-3.6218 5,-19.711 v -6.3537 l -6.8817,-12.175 -6.8409,-10.517 -3.4772,-6.1082 5.8866,-11.892 6.8131,-12 0.27108,-88.893 0.27109,-88.893 -1.6511,-6.1066 -1.6511,-6.1066 -3.482,-15.26 4.242,-7.8647 6.9487,-12.875 -0.0442,-36 -2.1892,-148 -4.0411,-21.726 -0.83712,-0.8315 -0.83711,-0.8315 -14,6.0044 -16,5.9747 -16,3.7148 -16.319,1.387 -2.2373,-0.71008 -2.2372,-0.71008 1.2373,-22.272 5.8198,-23 7.2366,-20.533 v -6.6181 l -5.8808,-19.848 -6.2216,-18 0.60078,-4 0.60078,-4 4.1782,-14 2.086,-2.6427 2.4662,9.6427 3.1065,16.384 4.2147,13.616 6.8492,19.161 -0.02011,7.4194 -0.02011,7.4194 -2.0376,13 -1.1751,11.226 2.2151,1.369 16.765,1.1831 0.49623,-7.8889 0.49623,-7.8889 8.6068,-19.848 -5.4503,-9.1521 -8.0858,-16.991 -2.8826,-13.825 -0.40754,-9.9718 13,-4.4624 10,-3.5401 0.70299,-0.57995 -8.1487,-15.993 -4.0468,-6.6377 -0.0037,-0.65546 -0.0037,-0.65547 25.867,-19.054 0.88004,1.1824 0.88004,1.1824 17.647,35.674 0.61264,-0.86459 0.61265,-0.86459 7.1411,-10.944 6.2363,-13 4.9256,-13 2.4545,-11 0.84087,-1.5 0.84088,-1.5 0.0624,7 5.7382,12 16.367,15.828 -2.4878,6.1724 -9.6191,18.587 v 0.91311 h 26.882 l 1.1446,1.852 -1.4128,4.324 -1.4128,4.324 -0.69308,5 -0.69309,5 -5.7736,16.701 -5.7552,10.299 -4.7305,8.3108 6.3812,14.689 6.1784,16.948 0.30381,0.30381 0.30381,0.30382 5.024,-1.9101 0.57274,-2.3229 0.57275,-2.3229 4.023,-28.008 3.1117,-8.8194 0.84113,-1.0863 0.84113,-1.0863 6.1062,-18.008 3.3918,-14.992 1.5708,-16.617 3.7222,-2.8193 2.2846,-0.0636 11.147,-12.04 5.8034,-8.4602 9.593,-17.77 -21.828,0.98088 -12,3.4612 -15.261,7.0314 -14.739,-14.828 -11.989,-6.6676 -12.686,-5.4121 -24.858,12.554 -18.107,-8.9972 -6.7056,-1.0882 -10.655,2.5098 -12,6.1453 -15.596,15.715 -18.405,-6.0844 -13,-3.2086 -14.872,-2.8017 -0.6386,0.6386 12.01,25.297 -0.03062,4.5259 -2.0297,3 -7.0548,-7.9663 -7.3127,-11.017 -4.9373,-12.017 -0.88805,-12.814 17.061,1.3114 15.692,3.1845 18.121,3.4779 6.9363,-2.4014 10.942,-5.5314 10.944,-6.9856 15.108,-7.7214 3.4229,-13.519 1.9828,-10 1.9828,-10 3.8672,-17 4.4522,-14 3.8432,-9 2.1049,-4 2.1049,-4 0.58198,-0.72814 7.1305,4.4069 1.9611,3.6644 2.6447,7.3284 2.6447,7.3284 2.4356,9 2.4356,9 3.7328,18 4.102,19 1.0555,4.4964 15.526,7.8064 23.937,14.192 6,1.0843 22,-4.2984 20,-3.7089 3.75,-0.0358 3.75,-0.0357 -0.0348,5.5 -2.8954,13.665 -6.3368,10.335 -13.317,17 -2.231,3.6556 -2.231,3.6556 -3.9181,11.935 -4.0189,19.754 -5.2212,18 -2.7953,9.9359 v 3.4308 l 2.9193,9.3167 2.9193,9.3166 2.0761,7 2.0761,7 1.9895,11 1.9894,11 0.0152,6.1276 0.0152,6.1276 -3.0331,2.5172 -17.467,-1.4122 -17,-3.9416 -13,-5.0692 -16.648,-7.035 -0.59259,0.68566 -2.2508,10.5 -2.2508,10.5 -1.6431,151 -0.30754,17 -0.30755,17 3.2572,6.5 3.2572,6.5 5.1178,9.2321 -3.351,11.768 -1.8846,8.5 -1.8846,8.5 0.48784,175.12 12.685,24.993 -4.3442,7.7344 -7.5176,11.156 -5.5896,9.6296 0.55337,5.6852 0.55338,5.6852 4.301,13 -0.70752,12.045 -10.934,17.926 -9.1323,9.5292 h -5.113 l -3.9118,-4.25 z m 2.5625,-130.95 2.108,-8.7042 0.98136,-49.296 0.98135,-49.296 1.9779,-35.468 0.55417,-2.2658 0.55418,-2.2658 0.75368,-10.353 0.75368,-10.353 -12.707,0.80909 -1.8324,2.8965 -0.1409,21 -0.14089,21 -0.139,118 1.5829,15.736 2.6046,-2.7358 2.108,-8.7042 z m 16.808,-412.58 5.503,-8.3562 11.784,-13.657 v -2.7811 l -9.9309,-9.7816 -7.3991,2.2708 -1.7209,-1.0636 9.3123,-10.35 12.808,-14.304 -9.4505,-13.696 -9.7299,-11.399 -12.209,-6.1009 h -3.747 l -10.002,5.0683 -11.432,11.529 -9.7694,14.32 10.091,11.583 7.1783,6.8923 v 1.8208 l -14,14.438 v 1.9322 l 9.1876,8.9164 6.8124,10.539 v 0.9019 l 4.7653,10.559 1.4571,5 1.5232,3.2931 1.5232,3.2931 11.942,-12.511 z m 24.834,-37.652 1.5941,-2.4329 -2.14,-3.9987 -1.9633,-0.62312 -1.9633,-0.62313 -3.8257,2.0475 -1.1014,4.2118 3.8516,3.8516 h 3.9539 z m -65.253,-40.37 9.2051,-8.8034 8.3966,-6.4793 9.1688,-3.1241 6.6952,1.256 11.739,7.6376 20.574,18.576 0.34692,-0.37957 0.34691,-0.37958 4.1104,-10 5.4079,-19.547 -0.39316,-0.29704 -0.39317,-0.29705 -21,-5.4724 -7.5,-1.9636 v -2.027 l 14,-27.931 v -1.7672 l -7.1143,-4.1976 h -1.4877 l -9.3751,18.5 -7.9867,14.751 -1.1406,1.3743 -1.1406,1.3743 -9.2551,-0.0306 -1.0684,-0.73468 -1.0684,-0.73469 -16.506,-32 -1.7968,-1.8399 -8.0601,2.6601 v 2.4352 l 14.101,28.272 -1.0738,1.7374 -27.216,9.563 -1.0529,2.7439 5.5421,15.428 3.8432,10.5 h 1.9461 l 9.2051,-8.8034 z m 35.726,-93.81 4.7388,-3.6139 4.4435,-7.9061 -0.95668,-6.3662 -2.0205,-10.5 -2.0205,-10.5 -7.4351,-25 -1.5246,-5.25 -1.5246,-5.25 h -1.7924 l -4.0731,9.5 -3.426,9.8414 -3.426,9.8414 -4.0813,19.317 -2.1089,12.693 1.2826,6.8368 7.1855,7.1855 6.2184,2.7068 5.7821,0.0782 4.7388,-3.6139 z"
       id="path22"
       inkscape:connector-curvature="0"
       style="fill:#b3a098" />
    <path
       d="m 124.34,827.75 -3.0533,-3.25 -8.1404,-11 -6.1437,-13 -7.9e-4,-3.6405 -7.9e-4,-3.6405 5,-19.244 v -7.0901 l -5.2092,-9.3849 -1.592,-2 -10.109,-16.683 3.242,-8.317 3.4121,-5 5.7565,-11 0.27108,-88.893 0.27109,-88.893 -1.6511,-6.1066 -1.6511,-6.1066 -3.482,-15.26 4.242,-7.8647 6.9986,-12.875 -0.1394,-38 -0.79489,-70.5 -0.7949,-70.5 -4.6286,-26.759 -1.807,-1.807 -13.834,6.2461 -18,6.5448 -16,3.1264 -12.388,1.3323 -6.3995,-1.4056 0.58297,-10.639 0.58297,-10.639 5.2234,-22 8.1612,-22.713 -0.60402,-5.6433 -0.60401,-5.6433 -6.154,-18 -5.1461,-16.845 5.5458,-20.155 1.0988,-1.4024 1.0988,-1.4024 0.63702,3.4024 0.63702,3.4024 4.1232,19.21 6.0226,19.79 5.0824,13.591 v 13.764 l -6.1485,16.645 -6.622,21 -1.8671,14.5 h 2.7219 l 15.416,-3.0702 4,-1.787 11,-3.4074 2,-1.5571 9,-3.5842 1.6374,-1.547 1.6374,-1.547 -4.3514,-9 -12.423,0.57911 v -11.96 l 5.2691,-14.619 3.7309,-6.9704 v -3.6693 l -6.4408,-9.3604 -7.554,-17.52 -2.9971,-18.48 -0.008,-2.2337 14.5,-5.3916 9.5,-3.2564 v -1.9316 l -12.198,-21.888 1.6981,-1.5031 23.345,-17.295 h 1.8053 l 7.9854,16.5 10.589,20.912 4.2628,-5.8519 3.499,-6.0597 7.7698,-15 5.0875,-16 2.4965,-9 1.5194,8.2899 4.9286,9.7261 14.281,13.984 0.96535,0.33333 0.96535,0.33334 v 2.0694 l -12,23.689 v 1.0753 h 24.836 l 2.9253,1.1226 -1.9029,7.3774 -2.7356,14 -4.9494,14 -5.6738,10.282 -2.3294,4.2248 -2.3294,4.2248 1.2102,4.8218 2.3832,5.2234 2.3832,5.2234 4.3382,12 1.7859,5.7847 -0.45021,0.72847 -0.45022,0.72847 -6.0416,1.2083 -8.5,3.8117 -4.5,1.3731 0.0632,1.3652 4.4368,5.0281 11.181,6.3089 8.8192,2.2465 4,1.8189 16.883,3.3075 2.2958,0.881 -1.2581,-8.2954 -1.2581,-8.2954 -4.2194,-17 -2.9437,-6.3023 v -1.4715 l -8.2018,-16.868 1.1534,-4.5804 1.1534,-4.5804 1.4373,-2.7794 1.4373,-2.7794 6.7359,-18.846 2.1191,-9.8964 2.1191,-9.8964 0.59818,-6.7064 0.59817,-6.7064 4.1413,-1.3144 8.976,-8.2728 4.2767,-5.5574 4.2767,-5.5574 10.523,-19.695 -23.844,1.1746 -15,5.1704 -10.394,5.4235 -11.117,-12.285 -13.489,-8.7756 -14.498,-6.3893 -24.827,12.367 -22.269,-10.445 -13.407,3.3307 -12,5.9913 -15.736,15.923 -14.264,-5.0078 -20,-5.0959 -11.839,-2.0665 -0.37524,0.37524 -0.37524,0.37523 8.8647,18.744 3.2934,7.9094 -0.61395,2.7953 -0.61395,2.7953 h -1.6689 l -9.8633,-12.5 -5.2996,-9.1598 -4.0093,-11.653 v -9.9739 l 17.5,1.378 14,2.9228 19.986,3.8223 14.543,-6.7194 16.471,-9.9199 12.207,-6.1762 4.2292,-18.521 6.1862,-29 5.1392,-17 7.6095,-16.5 h 2.0351 l 5.0661,2.3083 3.2039,4.8898 4.0278,11.302 4.8146,17 5.0141,23 4.6836,21.918 2.784,1.6754 23,12.551 15,8.8555 12,-0.3113 23,-5.12 13,-2.0535 6.5,-0.016 -0.0348,5.5 -1.441,6.8007 -1.441,6.8007 -7.1578,11.399 -16.476,21.326 -2.1948,6.837 -2.1948,6.837 -3.8895,19 -5.0832,18 -1.5925,5.5 -1.5925,5.5 0.56966,3.8061 0.56965,3.8061 1.9051,5.6939 1.9051,5.6939 2.5907,8.5182 2.5907,8.5182 3.9536,22.964 0.007,5.6276 0.007,5.6276 -1.5168,1.2588 -1.5168,1.2588 -15.466,-1.3581 -16,-3.1899 -18,-6.5448 -13.686,-6.18 h -1.5957 l -1.7223,8.75 -1.7223,8.75 -1.5925,13 -1.6318,159 0.0263,8.7986 0.0263,8.7986 11.274,21.661 -1.5096,5.871 -1.5096,5.871 -3.8989,16.653 0.27114,87.732 0.27115,87.732 12.689,25.001 -9.6894,15.483 -7.6356,12.4 0.46208,6 0.46209,6 3.6161,10 0.0952,15 -6.4366,10 -4.157,7.6037 -9.5388,9.8963 h -4.9754 l -3.0533,-3.25 z m 8.7766,-57.75 0.8174,-1.5 7.0998,-16 2.017,-3 1.9983,-4 1.9983,-4 3.0501,-4.2779 -39.183,-1.4692 -0.64594,0.64595 -0.64595,0.64595 17.878,34.991 4.7983,-0.53552 z m -7.6336,-71.534 2.5868,-8.4809 0.97277,-50.242 0.97277,-50.242 0.93241,-13 0.93242,-13 1.056,-13 1.056,-13 0.3576,-4.75 0.35759,-4.75 -12.206,0.0306 -3,1.8964 v 164.57 l 1.6612,13.518 1.7341,-1.0717 2.5868,-8.4809 z m 17.643,-415.5 5.6253,-8.4908 12.365,-14.8 -10.616,-10.803 -5,0.98252 -3.5,1.354 v -2.4879 l 13.5,-14.931 7.6358,-8.7719 -10.043,-14.523 -9.8405,-11 -10.952,-5.5 h -4.3667 l -10.117,5.1265 -12.381,12.565 -8.702,13.356 3.7309,4.4518 13.763,14.521 -1.3636,1.6564 -1.3636,1.6564 -12.384,13.095 10.359,11.071 1.1372,1.196 1.1372,1.196 8.9883,18.608 2.5259,8 2.0223,3.902 12.214,-12.941 z m 24.423,-37.404 1.5941,-2.4329 -2.14,-3.9987 -1.9633,-0.62312 -1.9633,-0.62313 -3.8257,2.0475 -1.1014,4.2118 3.8516,3.8516 h 3.9539 z m -64.703,-40.87 9.7216,-9.3029 8.9333,-6.105 7.6304,-2.4872 6.6303,1.2439 11.739,7.7005 20,18.221 0.73658,0.0161 0.73658,0.0162 2.8821,-6.8978 6.1448,-21.693 v -2.2469 l -8.5,-1.9855 -19.714,-5.0568 -1.0617,-1.0617 14.275,-29.245 v -1.6158 l -7.1143,-4.1976 h -1.6282 l -11.518,22.5 -6.9616,12.59 -12.188,-0.58967 -17.089,-32.141 -1.5208,-2.2011 -7.9589,3.3426 -0.01017,1.2162 -0.01017,1.2162 14.041,28.359 -0.58326,0.58327 -0.58327,0.58327 -15.375,5.658 -12.5,4.2914 v 3.3536 l 7.0564,19.739 2.1863,5.5 h 1.881 z m 35.246,-93.364 4.8087,-3.6671 4.4868,-8.4576 -4.4813,-23.708 -5.0631,-18 -6.2589,-20.5 h -1.608 l -2.5974,5.75 -2.5974,5.75 -3.3269,10.673 -3.3269,10.673 -2.6539,12.827 -2.6539,12.827 0.46723,4.2436 0.46723,4.2436 5.1545,6.758 8.5926,4.2532 5.7821,0.002 z"
       id="path24"
       inkscape:connector-curvature="0"
       style="fill:#ac9991" />
    <path
       d="m 121,823.75 -6.0424,-7.25 -8.1468,-16 1.2272,-12.373 3.9573,-12.387 v -9.0778 l -5.8686,-10.398 -10.131,-15.52 v -4.6244 l 11.5,-21.619 0.27279,-89 0.2728,-89 -3.0228,-11.719 -3.0228,-11.719 v -5.191 l 10.5,-19.37 -0.1776,-41 -0.73126,-69.5 -0.73127,-69.5 -4.8004,-25.841 -1.6522,-1.6522 -16.907,7.1219 -13.001,4.7839 -12.999,2.9453 -18.32,2.1606 -5.4784,-2.0829 1.2186,-19.436 4.9716,-22 6.2198,-17 2.1206,-7 -1.246,-12 -8.8479,-26 -2.0899,-7.9081 5.1389,-19.092 1.4063,-1.4643 1.4063,-1.4643 v 4.5605 l 4.1695,18.368 6.1301,21 5.7004,14.333 v 13.076 l -5.0835,13.591 -6.0205,16.635 -4.663,23.365 0.29128,0.32445 0.29128,0.32446 19.654,-4.2583 16.03,-5.7026 10.418,-4.8751 2.7502,-2.2824 -5.1237,-11.089 -5.0446,0.99049 -7.5,1.291 v -10.872 l 4.7238,-13.889 2.1381,-4.191 2.1381,-4.191 v -4.6797 l -1.8554,-1.9 -7.3782,-13 -5.5938,-16 -2.1124,-15 2.9803,-2.2501 20.96,-7.4675 v -1.9796 l -11,-20.693 v -2.0318 l 19.449,-14.578 5.4048,-3.3815 1.7626,2.3815 16.819,34 0.7445,1 4.5154,-5.6499 8.7812,-16.35 5.2687,-12.337 3.3614,-13.717 1.8634,-2.9465 0.0502,6 5.0254,10.796 17.146,16.354 -12.191,24.319 v 2.1292 l 26.5,-0.29488 -0.14145,2.3482 -0.14146,2.3482 -1.1634,6.5 -1.1634,6.5 -2.1125,7 -2.1125,7 -5.202,11 -7.4533,12.245 6.0894,13.43 6.7661,18.692 -1.1827,0.96883 -1.1827,0.96882 -8.2902,2.2161 -10.406,4.5926 5.3011,6.3 10.395,5.8609 14,4.1954 19.5,4.6361 v -0.4608 l -2.1261,-15.645 -2.495,-9.5 -2.495,-9.5 -4.0221,-10 -7.2175,-14.301 4.1586,-10.699 7.2969,-19 4.8219,-20 1.3688,-16.535 4.6601,-1.1696 12.549,-13.316 7.6026,-11.473 3.3634,-6.7532 3.3635,-6.7532 -1.3899,-1.4604 -22.463,1.9712 -12.477,4.1625 -12.251,6.1083 -3.8746,-4.3604 -3.8746,-4.3604 -5,-4.84 -10.406,-6.722 -16.431,-7.2242 -24.593,12.667 -17.57,-8.5867 -3.4729,-1.8554 h -4.6768 l -14.158,4.8154 -10.693,6.8722 -6.045,5.8124 -6.336,7.8113 -14.619,-5.1931 -19,-4.991 -12.708,-2.2528 -0.97169,0.97168 9.3836,19.654 3.0615,7.6214 -2.4649,5.3786 -5.9322,-7 -9.8058,-14.574 -4.0627,-13.642 v -8.5594 l 17.416,1.4131 9.0844,1.9125 24.834,4.7994 8.1656,-3.2488 19,-10.866 11.394,-6.5671 4.2202,-1.3394 2.0647,-5.3289 4.7834,-24 2.3747,-10.5 2.3747,-10.5 4.5878,-15 7.571,-16.5 h 2.0351 l 5.1432,2.3434 3.7025,6.1566 2.558,8 2.558,8 4.274,16 3.6489,17 4.2507,20 0.52658,1.6864 0.52659,1.6864 22.406,11.939 17,10.188 6.2292,1.1715 17.771,-3.2272 17,-3.8291 14.5,-1.3739 v 4.8911 l -1.0895,5.8934 -1.0895,5.8934 -5.0603,10.08 -13.342,17 -6.1365,9 -4.1377,12 -3.3344,17 -5.9348,21 -3.2935,12.648 3.2062,11.352 3.619,11.759 3.619,11.759 3.9638,23.481 0.01,10.55 -4.9183,1.8699 -17.582,-1.9153 -14.064,-3.0436 -14.936,-5.7135 -15.626,-6.4539 -0.61588,0.70691 -4.5306,20 -0.76333,75 -0.76334,75 -1.2992,31.222 2.417,9.7781 9.5678,17.072 -0.82882,3.4641 -0.82883,3.4641 -4.7283,16 v 181.19 l 10,19.737 2.4104,5.3424 -7.2343,11.734 -9.865,16 1.0696,13 4.2625,13 -0.413,5.5 -0.41301,5.5 -10.817,17.785 -9.1019,9.7152 h -5.351 l -6.0424,-7.25 z m 16.505,-19.595 3.7938,-7.5703 -2.2337,-8.3516 -4.1193,-6.9817 -9.4507,1.0292 -4.4435,1.6486 -3.0565,7.3152 0.0312,3.6279 0.0312,3.6279 4.4376,7.1172 8,10.219 3.216,-4.1115 3.7938,-7.5703 z m -4.4309,-33.214 0.72182,-1.4405 11.494,-24 4.705,-6.9643 v -2.5357 h -41 l 0.0954,1.5 17.624,33.875 3.7808,1.4762 1.8571,-0.47062 0.72182,-1.4405 z m 7.8136,-46.551 0.3925,-0.34136 -1.1885,-1.432 -1.1885,-1.432 -6.408,-2.9469 -12.5,-1.3366 v 9.1909 l 20.5,-1.3605 z m -14.647,-26.349 1.9189,-5.4588 1.7515,-93.044 1.0187,-13.519 1.0187,-13.519 2.0871,-35 0.5799,-4.7958 0.57989,-4.7958 -14.7,0.59166 -1.5535,26 0.74774,150 1.6092,4.7684 3.0231,-5.7684 z m 10.542,-182.15 5.2872,-1.0447 4.9154,-2.5501 -15.292,-1.2926 h -19.698 v 1.3906 l 5.5,5.7932 14,-1.2517 z m -4.6584,-218.65 6.3711,-6.7586 13.426,-19.983 9.2974,-10.459 -9.7238,-10.931 -4.3698,-0.1106 -5.1302,1.9505 v -1.9378 l 14.5,-16.229 6.6568,-7.7723 -12.933,-18.55 -8.7234,-8.0405 -9.6288,-4.6609 -6.8336,1.1089 -10.968,7.2804 -9.6732,11.351 -7.396,10.268 v 2.2612 l 17.061,18.237 -12.434,13.234 -3.0158,2.5043 6.0842,6.4957 6.6748,7.5544 4.229,7.4456 7.1946,18 1.3404,4.5 h 1.623 l 6.3711,-6.7586 z m 35.433,-51.31 1.8718,-2.0683 -3.0104,-5.3633 h -5.8466 l -3.0104,5.3633 3.7436,4.1367 h 4.38 z m -63.512,-42.257 10.852,-10.325 13.043,-6.6202 7.2792,1.1812 12.277,8.0494 6,5.5567 14.385,12.672 0.93442,-0.57751 0.93442,-0.5775 5.4606,-17.534 2.7854,-8.5699 v -3.6734 l -24.5,-6.3327 -4.422,-1.8456 6.7043,-14.578 8.1761,-15.864 -8.272,-4.6986 -0.8908,0.29694 -0.89081,0.29693 -17.584,33.968 -12.079,0.58915 -4.9794,-8.5892 -11.559,-23 -2.8251,-3.2915 -7.8787,3.0949 v 2.6277 l 13.897,28.569 -5.3972,2.4242 -15.374,5.9646 -8.1264,2.1882 v 3.7567 l 8.0493,22.666 0.44396,1.25 0.44396,1.25 h 2.2605 z m 33.769,-91.772 4.212,-3.0976 5.1772,-8.8343 -0.45927,-3.7353 -0.45926,-3.7353 -4.4384,-22 -6.0982,-20 -4.2388,-14.504 -1.6505,0.55017 -5.4557,12.954 -6.2646,20 -4.0995,18.187 -1.2943,13.927 3.0612,5.8866 2.345,2.1284 2.345,2.1284 6,3.1631 7.106,0.08 4.212,-3.0976 z"
       id="path26"
       inkscape:connector-curvature="0"
       style="fill:#9590ad" />
    <path
       d="m 121,823.75 -6.0424,-7.25 -8.1468,-16 1.2272,-12.373 3.9573,-12.387 v -9.0778 l -5.8686,-10.398 -10.131,-15.52 v -4.6244 l 11.5,-21.619 0.27279,-89 0.2728,-89 -3.0228,-11.719 -3.0228,-11.719 v -5.191 l 10.5,-19.37 -0.1776,-41 -0.73126,-69.5 -0.73127,-69.5 -4.8004,-25.841 -1.6522,-1.6522 -16.907,7.1219 -13.001,4.7839 -12.999,2.9453 -18.32,2.1606 -5.4784,-2.0829 1.2186,-19.436 4.9716,-22 6.2198,-17 2.1206,-7 -1.246,-12 -8.8479,-26 -2.0899,-7.9081 5.1389,-19.092 1.4063,-1.4643 1.4063,-1.4643 v 4.5605 l 4.1695,18.368 6.1301,21 5.7004,14.333 v 13.076 l -5.0835,13.591 -6.0205,16.635 -4.663,23.365 0.29128,0.32445 0.29128,0.32446 19.654,-4.2583 16.03,-5.7026 10.418,-4.8751 2.7502,-2.2824 -5.1237,-11.089 -5.0446,0.99049 -7.5,1.291 v -10.872 l 4.7238,-13.889 2.1381,-4.191 2.1381,-4.191 v -4.6797 l -1.8554,-1.9 -7.3782,-13 -5.5938,-16 -2.1124,-15 2.9803,-2.2501 20.96,-7.4675 v -1.9796 l -11,-20.693 v -2.0318 l 19.449,-14.578 5.4048,-3.3815 1.7626,2.3815 16.819,34 0.7445,1 4.5154,-5.6499 8.7812,-16.35 5.2687,-12.337 3.3614,-13.717 1.8634,-2.9465 0.0502,6 5.0254,10.796 17.146,16.354 -12.191,24.319 v 2.1292 l 26.5,-0.29488 -0.14145,2.3482 -0.14146,2.3482 -1.1634,6.5 -1.1634,6.5 -2.1125,7 -2.1125,7 -5.202,11 -7.4533,12.245 6.0894,13.43 6.7661,18.692 -1.1827,0.96883 -1.1827,0.96882 -8.2902,2.2161 -10.406,4.5926 5.3011,6.3 10.395,5.8609 14,4.1954 19.5,4.6361 v -0.4608 l -2.1261,-15.645 -2.495,-9.5 -2.495,-9.5 -4.0221,-10 -7.2175,-14.301 4.1586,-10.699 7.2969,-19 4.8219,-20 1.3688,-16.535 4.6601,-1.1696 12.549,-13.316 7.6026,-11.473 3.3634,-6.7532 3.3635,-6.7532 -1.3899,-1.4604 -22.463,1.9712 -12.477,4.1625 -12.251,6.1083 -3.8746,-4.3604 -3.8746,-4.3604 -5,-4.84 -10.406,-6.722 -16.431,-7.2242 -24.593,12.667 -17.57,-8.5867 -3.4729,-1.8554 h -4.6768 l -14.158,4.8154 -10.693,6.8722 -6.045,5.8124 -6.336,7.8113 -14.619,-5.1931 -19,-4.991 -12.708,-2.2528 -0.97169,0.97168 9.3836,19.654 3.0615,7.6214 -2.4649,5.3786 -5.9322,-7 -9.8058,-14.574 -4.0627,-13.642 v -8.5594 l 17.416,1.4131 9.0844,1.9125 24.834,4.7994 8.1656,-3.2488 19,-10.866 11.394,-6.5671 4.2202,-1.3394 2.0647,-5.3289 4.7834,-24 2.3747,-10.5 2.3747,-10.5 4.5878,-15 7.571,-16.5 h 2.0351 l 5.1432,2.3434 3.7025,6.1566 2.558,8 2.558,8 4.274,16 3.6489,17 4.2507,20 0.52658,1.6864 0.52659,1.6864 22.406,11.939 17,10.188 6.2292,1.1715 17.771,-3.2272 17,-3.8291 14.5,-1.3739 v 4.8911 l -1.0895,5.8934 -1.0895,5.8934 -5.0603,10.08 -13.342,17 -6.1365,9 -4.1377,12 -3.3344,17 -5.9348,21 -3.2935,12.648 3.2062,11.352 3.619,11.759 3.619,11.759 3.9638,23.481 0.01,10.55 -4.9183,1.8699 -17.582,-1.9153 -14.064,-3.0436 -14.936,-5.7135 -15.626,-6.4539 -0.61588,0.70691 -4.5306,20 -0.76333,75 -0.76334,75 -1.2992,31.222 2.417,9.7781 9.5678,17.072 -0.82882,3.4641 -0.82883,3.4641 -4.7283,16 v 181.19 l 10,19.737 2.4104,5.3424 -7.2343,11.734 -9.865,16 1.0696,13 4.2625,13 -0.413,5.5 -0.41301,5.5 -10.817,17.785 -9.1019,9.7152 h -5.351 l -6.0424,-7.25 z m 16.505,-19.595 3.7938,-7.5703 -2.2337,-8.3516 -4.1193,-6.9817 -9.4507,1.0292 -4.4435,1.6486 -3.0565,7.3152 0.0312,3.6279 0.0312,3.6279 4.4376,7.1172 8,10.219 3.216,-4.1115 3.7938,-7.5703 z m -4.4309,-33.214 0.72182,-1.4405 11.494,-24 4.705,-6.9643 v -2.5357 h -41 l 0.0954,1.5 17.624,33.875 3.7808,1.4762 1.8571,-0.47062 0.72182,-1.4405 z m 7.8136,-46.551 0.3925,-0.34136 -1.1885,-1.432 -1.1885,-1.432 -6.408,-2.9469 -12.5,-1.3366 v 9.1909 l 20.5,-1.3605 z m -14.647,-26.349 1.9189,-5.4588 1.7515,-93.044 1.0187,-13.519 1.0187,-13.519 2.0871,-35 0.5799,-4.7958 0.57989,-4.7958 -14.7,0.59166 -1.5535,26 0.74774,150 1.6092,4.7684 3.0231,-5.7684 z m 10.542,-182.15 5.2872,-1.0447 4.9154,-2.5501 -15.292,-1.2926 h -19.698 v 1.3906 l 5.5,5.7932 14,-1.2517 z m -7.372,-109.89 -0.0421,-83.5 -1.14,-9.9223 -1.1401,-9.9223 11.421,-12.209 13.412,-19.946 9.2974,-10.459 -9.7238,-10.931 -4.3698,-0.1106 -5.1302,1.9505 v -1.9378 l 14.5,-16.229 6.6568,-7.7723 -12.933,-18.55 -8.7234,-8.0405 -9.6288,-4.6609 -6.8336,1.1089 -10.968,7.2804 -9.6732,11.351 -7.396,10.268 v 2.2612 l 17.061,18.237 -12.434,13.234 -3.0158,2.5043 6.0842,6.4957 6.6748,7.5544 4.229,7.4456 7.1873,18 2.5918,7.4367 -1.1938,15.282 -1.1938,15.282 0.004,74.885 0.004,74.885 1.1963,6.4925 1.1963,6.4926 4.0648,-10.754 -0.0421,-83.5 z m 38.147,-160.07 1.8718,-2.0683 -3.0104,-5.3633 h -5.8466 l -3.0104,5.3633 3.7436,4.1367 h 4.38 z m -63.512,-42.257 10.852,-10.325 13.043,-6.6202 7.2792,1.1812 12.277,8.0494 6,5.5567 14.385,12.672 0.93442,-0.57751 0.93442,-0.5775 5.4606,-17.534 2.7854,-8.5699 v -3.6734 l -24.5,-6.3327 -4.422,-1.8456 6.7043,-14.578 8.1761,-15.864 -8.272,-4.6986 -0.8908,0.29694 -0.89081,0.29693 -17.584,33.968 -12.079,0.58915 -4.9794,-8.5892 -11.559,-23 -2.8251,-3.2915 -7.8787,3.0949 v 2.6277 l 13.897,28.569 -5.3972,2.4242 -15.374,5.9646 -8.1264,2.1882 v 3.7567 l 8.0493,22.666 0.44396,1.25 0.44396,1.25 h 2.2605 z m 33.769,-91.772 4.212,-3.0976 5.1772,-8.8343 -0.45927,-3.7353 -0.45926,-3.7353 -4.4384,-22 -6.0982,-20 -4.2388,-14.504 -1.6505,0.55017 -5.4557,12.954 -6.2646,20 -4.0995,18.187 -1.2943,13.927 3.0612,5.8866 2.345,2.1284 2.345,2.1284 6,3.1631 7.106,0.08 4.212,-3.0976 z"
       id="path28"
       inkscape:connector-curvature="0"
       style="fill:#978987" />
    <path
       d="m 121.75,824.49 -5.4021,-6.5083 -8.5267,-14.903 -0.52643,-3.9248 -0.52643,-3.9248 2.6085,-10.126 2.6085,-10.126 0.32184,-8.5088 -9.5815,-15.971 -4.2656,-6 -1.3574,-2.673 -1.3574,-2.673 1.415,-5.6541 10.34,-18 v -185 l -2.3083,-6.5 -2.3083,-6.5 -1.1358,-9.2784 10.752,-18.722 -0.1438,-43 -1.5186,-139 -4.8127,-25.808 -0.96321,-0.96322 -15.562,6.501 -14.936,5.7312 -15.064,3.355 -21,0.1844 0.1347,-9 0.1347,-9 4.3699,-20.658 5.7339,-17.342 3.3707,-8 -1.1109,-14 -10.189,-29.384 -0.09166,-3.3082 -0.09166,-3.3082 4.41,-17 2.2749,-2.7412 2.2749,11.741 4.1089,18 5.2427,16 4.9285,12.341 -0.02374,6.8294 -0.02374,6.8294 -5.0867,12 -6.0646,17.802 -2.4006,11.577 -2.4006,11.577 v 1.2728 l 24.5,-5.794 10.662,-3.9668 14.838,-6.947 v -0.97623 l -5.4441,-11.1 -8.8471,1.3267 -3.2088,0.22924 -0.61543,-9.6431 4.441,-13.357 5.621,-11.895 -4.028,-6.1055 -6.8745,-13.363 -4.0812,-10.637 -1.4674,-8.964 -1.4674,-8.964 1.7113,-1.7113 21.559,-7.8261 1.178,-1.178 -11.51,-22.357 0.0334,-1.2766 18.5,-13.846 6.275,-4.3532 1.8368,2.476 16.888,34.43 1.5248,0.0704 6.6753,-10.5 6.0558,-11 6.0147,-15.078 2.2823,-10.922 1.9163,-3 0.0502,6 5.0942,11 17.188,16.182 -12.302,23.705 v 2.613 h 27.233 l -0.61002,2.25 -0.61003,2.25 -1.1033,6.5 -1.1033,6.5 -4.7779,16 -11.952,21.486 6.0981,13.514 6.6427,18.494 -1.5849,0.97954 -17.733,6.2112 -1.6545,1.5694 6.4744,7.374 9.18,4.5782 13,4.2984 20,4.7577 0.74325,-0.67269 -1.1786,-8.295 -1.1786,-8.295 -5.9723,-21.778 -9.8697,-20.924 3.7213,-10.298 6.2836,-16 5.0875,-17.877 1.149,-10.811 1.149,-10.811 h 2.7385 l 13.025,-12.5 10.424,-16 5.3777,-11.199 v -1.4802 l -17.5,1.389 -13,2.575 -10.463,4.0296 -7.236,4.4721 -13.621,-14.032 -11.874,-7.2128 -14.68,-6.247 -24.344,12.539 -21.261,-10.333 h -4.876 l -15.836,5.6038 -13.006,9.2811 -7.7139,10.115 h -1.514 l -10.575,-3.9378 -17,-4.8992 -16.721,-3.163 h -2.7047 l 8.9418,17.967 3.9444,10.007 -2.1022,5.5262 -5.8875,-7 -9.2369,-13.669 -4.7338,-14.907 v -8.1821 l 16.5,1.4259 9,1.8619 25.441,4.9024 8.0934,-2.8555 29.465,-16.825 6.1344,-3.1138 2.3976,-7.6377 3.9426,-20 3.8812,-18 5.1554,-18 1.7439,-4 6.5441,-13.5 h 2.6312 l 6.905,6.0627 6.0118,18.437 5.1525,20 4.0101,19 1.6339,8 1.6339,8 2.2223,2.373 18,9.4157 16.121,9.6561 9.5248,4.2133 3.3543,-1.3155 24,-4.8886 20.625,-3.2285 2.0617,2.0617 -2.2281,14.36 -2.4398,4.8148 -2.4398,4.8148 -10.52,13.723 -9.5654,12.794 -2.497,7.9046 -2.497,7.9046 v 3.1493 l -3.0375,12.624 -3.0375,12.624 -3.9124,10.541 -1.2294,10.46 4.9817,14.998 2.7078,9.5 2.7077,9.5 2.8168,16 0.001,8.903 0.001,8.903 -22.5,-1.2842 -13,-3.1122 -13,-4.7408 -12,-5.196 -1.7364,-0.98637 -1.7364,-0.98638 h -2.65 l -3.4587,15.5 -0.95345,6 -0.95346,6 -0.012,88 -1.0449,43.065 -1.0449,43.065 2.1182,9.4518 9.9483,17.648 -4.71,15.77 -1.7869,9.9508 -1.7869,9.9508 0.5713,82.549 0.57131,82.549 3.1812,9.3116 8.9847,15.977 v 5.0209 l -13.536,20.691 -2.464,5.5941 v 7.6869 l 5,19.244 -0.044,6.475 -3.7974,8.3639 -11.179,16.976 -6.1328,5.1604 h -4.6951 l -5.4021,-6.5083 z m 15.145,-18.827 4.1061,-7.835 v -5.0799 l -5.3198,-11.854 -11.18,1.3547 -3.4793,1.8086 -3.0207,5.8414 v 9.1697 l 1.709,2.7148 1.709,2.7148 8.9357,11.575 2.434,-2.5748 z m -3.3165,-34.915 0.71217,-2.25 8.6046,-18 8.2724,-13.667 -0.69592,-0.69592 -39.273,-1.4274 -3.4234,1.3137 0.97965,1.2382 0.97964,1.2382 13.661,27 4.6303,7.5 h 4.8401 z m 3.0941,-45.599 5.1715,-0.6511 -1.8209,-2.2365 -1.8209,-2.2365 -2.3998,-0.91241 -2.3998,-0.91242 -13.402,-1.4352 v 9.233 l 11.5,-0.1978 5.1715,-0.65111 z m -9.92,-27.651 1.4425,-5 1.6508,-77 1.1878,-18 1.0128,-22 1.0128,-22 1.9972,-22 1.0793,-3.5 h -15.918 l -0.67511,2.6898 -0.6751,2.6898 -0.38669,66.56 -0.38668,66.56 1.8518,41.602 0.67898,1.0986 0.67897,1.0986 4.006,-7.7993 z m 9.7485,-181.18 7,-1.5581 4.8293,-2.4887 -10.829,-1.2137 -21,-1.1431 -6.5,-1.0054 v 1.7306 l 7.3437,8.5794 12.156,-1.3429 z m -6.802,-95.818 0.33203,-69 -2.0471,-43.72 -0.59205,-2.3589 -0.59205,-2.3589 10.927,-11.562 13.575,-20 9.9443,-11.436 -9.7443,-10.953 -4.3698,-0.1106 -5.1302,1.9505 v -1.6982 l 11.277,-12.752 9.8582,-10.706 -0.95981,-2.5012 -12.211,-17.071 -8.7655,-8.0798 -8.5445,-4.3591 -7.6902,1.0315 -10.156,6.517 -11.506,13.368 -3.1514,4.5804 -3.1514,4.5804 0.0422,1.3198 0.0422,1.3198 16.908,17.838 -12.492,13.162 -2.968,2.3154 12.555,13.685 7.6842,16 2.9615,7 3.6446,10.452 -2.3865,30.548 0.004,74.885 0.004,74.885 1.1963,6.4925 1.1963,6.4926 1.9867,-5.3772 1.9867,-5.3772 0.33203,-69 z m 37.864,-174.57 1.8718,-2.0683 -3.0104,-5.3633 h -5.8466 l -3.0104,5.3633 3.7436,4.1367 h 4.38 z m -63.925,-41.722 10.137,-9.71 11.413,-6.8579 9.4816,-0.1422 11.148,7.3989 16.582,14.601 4.9479,4.551 2.1529,-0.65614 7.541,-22.895 0.57257,-3.5329 0.57256,-3.5329 -11.686,-3.3786 -15.763,-3.9188 -0.81242,-0.81845 -0.81241,-0.81845 14.778,-29.818 -9.3149,-5.9073 -0.31163,0.8627 -0.31164,0.8627 -17.674,34 h -12.567 l -17.298,-33.42 -1.3367,-1.3367 -9.1635,4.3073 0.83099,1.4491 13.39,27.707 -0.983,2.5616 -15.652,5.5022 -11.5,4.0091 0.01082,1.6102 0.01082,1.6102 3.009,9.9197 4.6975,12.08 1.2091,3.5 2.5628,-0.08 10.137,-9.71 z m 32.989,-91.297 4.487,-3.0872 5.8862,-8.1257 -0.0436,-3.6 -0.0436,-3.6 -1.6631,-8 -2.1266,-10 -2.1266,-10 -0.91967,-2.5 -0.91966,-2.5 -7.6189,-25.5 h -1.588 l -0.95172,2.5032 -0.95173,2.5032 -1.8948,4.2468 -1.8948,4.2468 -5.1262,16 -4.0351,17 -2.0962,11.867 v 7.732 l 1.405,2.7003 1.405,2.7003 2.345,2.1346 2.345,2.1346 8,4.1423 3.6396,0.0884 4.487,-3.0872 z"
       id="path30"
       inkscape:connector-curvature="0"
       style="fill:#96847a" />
    <path
       d="m 121.77,824.52 -5.3784,-6.4797 -7.297,-13.128 -2.4317,-6.7246 3.4177,-15.688 2.7995,-14 -1.9229,-4.0271 -1.9229,-4.0271 -9.7803,-15.048 -1.7099,-3.3066 -1.7099,-3.3066 1.314,-5.2846 10.349,-18 v -185 l -5.5,-16.852 v -5.9102 l 10.5,-18.237 -0.1988,-44 -0.57168,-68.508 -0.57169,-68.508 -5.0892,-26.565 -1.1165,-1.8066 -17.102,7.864 -20.35,6.8272 -18,2.3637 -11,-0.66838 0.21588,-17 4.4075,-21.49 5.7592,-16.51 3.3264,-9 -1.0198,-14.037 -7.4299,-20.963 -1.5923,-5.689 -1.5923,-5.689 2.5216,-12.622 3.0645,-9.5 h 1.8393 v 4.2424 l 6.115,26.258 5.0324,15 5.088,12.93 -0.96235,14.07 -4.9584,11 -5.2477,15 -2.5335,11.178 -2.5335,11.178 v 4.1826 l 4.5,-1.0587 20,-4.8793 13.59,-5.1169 11.91,-6.012 v -2.0015 l -6.0378,-10.698 -10.838,2.5194 -1.1241,-1.1241 0.01478,-3.0833 0.01478,-3.0833 2.9196,-12.381 7.134,-15.445 -6.8397,-11.174 -4.3888,-8.7052 -4.7505,-14.295 -1.8884,-14 1.2842,-1.2267 23,-8.5143 0.56426,-0.48994 -12.263,-23.471 1.6982,-1.5136 13,-9.8422 10.443,-7.5708 18.536,37.136 2.0215,-0.64304 6.629,-9.8641 3.805,-7.5 3.805,-7.5 4.1561,-12 3.381,-12 1.184,5.0957 1.184,5.0958 4.5768,6.8085 15.911,15 -12.132,23.625 v 2.8754 h 26.658 l -3.534,19.5 -3.9447,13 -2.6937,5.4604 -2.6937,5.4604 -3.3961,5.309 -3.3961,5.309 v 2.5612 l 1.8463,1.9 8.1537,20.301 v 2.2981 l 1.4904,2.8821 1.4904,2.8821 -10.481,3.8815 -5,1.5084 -5.5634,2.8308 3.2802,5.5529 9.2832,6.108 11,4.1754 22,5.2059 1.75,0.50423 1.75,0.50424 v -4.8728 l -1.5184,-8.881 -1.5184,-8.881 -6.8971,-22 -7.9403,-15.452 0.87389,-2.7739 0.8739,-2.7739 3.9809,-9.7221 3.9809,-9.7221 5.0742,-17.556 2.0903,-15.645 v -7.6385 l 4.6988,-1.1793 15.041,-15.744 7.9597,-13.794 4.6477,-9.4859 -0.65096,-0.65095 -0.65095,-0.65095 -24.546,2.454 -13.735,4.794 -9.1124,5.093 -12.153,-12.778 -9,-6.0089 -12,-5.991 -7.3837,-2.3916 -24.088,12.241 -20.991,-10.125 h -5.9923 l -13.525,5.0907 -9.021,5.2855 -11.15,11.124 -2.1759,3.9402 -10.674,-4.3122 -22,-6.0092 -14.631,-2.3215 -0.5915,0.70273 11.678,24 0.014,6 -1.5271,2.4024 -9.0844,-11.402 -6.3839,-10.572 -4.1039,-14.959 0.62984,-5.4689 14,0.43392 36.638,7.2753 9.3617,-3.9762 33.733,-18.898 1.8164,-3.2458 2.399,-11.794 2.399,-11.794 2.0496,-9.7307 2.0496,-9.7307 3.2101,-10.539 5.1268,-15 5.2163,-9.498 2.8097,-0.002 7.1903,7.6381 5.6202,18.15 2.4682,9.8557 2.4682,9.8557 1.9784,9.5 1.9784,9.5 3.5075,15.421 1.9792,1.9322 14,7.3617 18.846,11.054 10.248,4.6917 36.906,-7.744 12.277,-1.3871 1.0816,1.7501 -1.699,13.699 -6.3088,12.035 -12.35,15.977 -5.7732,8.1804 -1.8184,4.2421 -1.8184,4.2421 -3.1605,15.544 -2.6004,10.488 -2.6004,10.488 -3.7581,10.923 -1.1565,10.102 6.0043,19 5.0912,18 2.0903,15.645 v 14.855 l -13.5,-0.008 -17.021,-2.7631 -17.979,-6.0372 -15.75,-7.1921 h -2.3073 l -3.4279,13.5 -1.9754,14 -0.0342,88 -1.1073,43.306 -1.1072,43.306 2.3636,9.3872 9.8103,17.403 -3.8641,12.597 -4.1008,18.906 0.016,166.09 1.8288,6 1.8288,6 8.5232,15 0.88954,6 -14.211,21.7 -0.93728,2.4652 -0.93728,2.4652 0.006,8.3698 4.995,18.644 v 5.6899 l -3.8946,9.0859 -12.008,17.858 -5.3674,4.222 h -4.5788 l -5.3784,-6.4796 z m 11.625,-11.777 1.8985,-3.2437 2.8388,-5.5 2.8388,-5.5 0.0127,-2.6243 0.0127,-2.6243 -1.5381,-4.3594 -1.5381,-4.3594 -2.8228,-4.3082 -13.159,2.4729 -2.8047,3.8025 -1.1744,4.1641 -1.1744,4.1641 2.3634,7.161 10.963,14.011 1.3858,-0.012 1.8985,-3.2437 z m 3.6388,-49.458 4.4627,-9.714 9.6127,-16.793 -0.49632,-0.49631 -0.49631,-0.49632 -42.12,-1.0832 v 1.3693 l 19.171,36.927 h 5.4035 z m 0.28815,-37.917 4.6046,-0.63113 -1.9893,-3.717 -5.881,-3.0412 -15.06,-1.273 v 9.2935 h 13.721 z m -10.91,-25.359 1.5436,-5.5095 1.9406,-20 0.52326,-37.5 0.52325,-37.5 1.0308,-21 1.0308,-21 0.94138,-7 0.94139,-7 0.64033,-7.75 0.64034,-7.75 h -16.053 l -0.6953,1.125 -0.6953,1.125 -0.31878,68.625 -0.31877,68.625 0.86235,20.195 0.86236,20.196 0.7358,1.1905 0.73579,1.1905 3.5852,-4.753 z m 8.585,-183.03 8.5,-2.008 5.9487,-2.3985 -6.9487,-1.5157 -32.819,-2.07 -0.27223,0.27223 -0.27224,0.27223 7.3027,9.4697 10.061,-0.014 8.5,-2.008 z m -5.302,-96.478 0.33203,-69 -2.0471,-43.72 -0.57124,-2.276 -0.57124,-2.276 10.096,-10.42 14.16,-20.802 9.9039,-11.318 v -1.4173 l -10.669,-11.283 -6.2882,2.1921 -2.3117,-0.77057 21.269,-23.293 v -1.4791 l -11.108,-16.523 -11.621,-10.759 -7.0734,-3.3565 h -6.3955 l -7.3023,3.356 -15.087,15.315 -7.413,11.168 0.09242,2.6611 16.835,18 -15.236,15.354 8.2466,9.8497 3.1345,2.6014 6.6709,12.195 8.6333,21.741 -2.4064,32.259 0.0147,74.385 0.0147,74.385 1.1963,6.4925 1.1963,6.4926 1.9867,-5.3772 1.9867,-5.3772 0.33203,-69 z m 38.734,-175.83 0.93239,-2.6103 -3.6748,-4.0606 -4.19,0.0306 -2.3414,1.4894 -1.3092,5.2163 5.2784,4.152 4.3723,-1.6072 0.93239,-2.6103 z m 5.9591,-45.171 2.5197,-8 0.63828,-4.0378 0.63829,-4.0378 -10.688,-3.3158 -13,-2.9659 -5.5387,-2.108 1.9348,-3.5348 13.211,-26.816 -2.6069,-1.7206 -6.8695,-4.355 -0.69825,1.8915 -17.787,34 h -12.263 l -17.034,-33 -1.7814,-1.8337 -8.163,3.681 -0.85664,1.3861 13.953,28.206 v 1.7568 l -7.5,3.2669 -19.624,6.9953 -0.83168,0.51401 -0.83167,0.514 4.7229,14.514 4.4558,13.5 1.5542,-0.034 1.5542,-0.0339 20,-19.088 11,-6.6702 7.4579,-1.3881 11.542,6.4642 10.973,9.2505 13.935,12.73 1.7319,-3.865 1.7319,-3.8649 2.5197,-8 z m -37.921,-86.312 3.9709,-2.7453 6.5582,-8.5984 -0.0436,-4.1723 -0.0435,-4.1723 -1.6933,-8 -1.6268,-7.5 -1.6268,-7.5 -2.05,-7 -2.05,-7 -6.3625,-20.5 h -1.5744 l -4.1181,9.5 -5.6626,16 -4.3958,17 -1.3232,7.5 -1.3232,7.5 -0.106,8.5993 1.405,2.7003 1.405,2.7003 2.345,2.1346 2.345,2.1346 8,4.1423 4,0.022 3.9709,-2.7453 z"
       id="path32"
       inkscape:connector-curvature="0"
       style="fill:#837a8d" />
    <path
       d="m 121.77,824.52 -5.3784,-6.4797 -7.297,-13.128 -2.4317,-6.7246 3.4177,-15.688 2.7995,-14 -1.9229,-4.0271 -1.9229,-4.0271 -9.7803,-15.048 -1.7099,-3.3066 -1.7099,-3.3066 1.314,-5.2846 10.349,-18 v -185 l -5.5,-16.852 v -5.9102 l 10.5,-18.237 -0.1988,-44 -0.57168,-68.508 -0.57169,-68.508 -5.0892,-26.565 -1.1165,-1.8066 -17.102,7.864 -20.35,6.8272 -18,2.3637 -11,-0.66838 0.21588,-17 4.4075,-21.49 5.7592,-16.51 3.3264,-9 -1.0198,-14.037 -7.4299,-20.963 -1.5923,-5.689 -1.5923,-5.689 2.5216,-12.622 3.0645,-9.5 h 1.8393 v 4.2424 l 6.115,26.258 5.0324,15 5.088,12.93 -0.96235,14.07 -4.9584,11 -5.2477,15 -2.5335,11.178 -2.5335,11.178 v 4.1826 l 4.5,-1.0587 20,-4.8793 13.59,-5.1169 11.91,-6.012 v -2.0015 l -6.0378,-10.698 -10.838,2.5194 -1.1241,-1.1241 0.01478,-3.0833 0.01478,-3.0833 2.9196,-12.381 7.134,-15.445 -6.8397,-11.174 -4.3888,-8.7052 -4.7505,-14.295 -1.8884,-14 1.2842,-1.2267 23,-8.5143 0.56426,-0.48994 -12.263,-23.471 1.6982,-1.5136 13,-9.8422 10.443,-7.5708 18.536,37.136 2.0215,-0.64304 6.629,-9.8641 3.805,-7.5 3.805,-7.5 4.1561,-12 3.381,-12 1.184,5.0957 1.184,5.0958 4.5768,6.8085 15.911,15 -12.132,23.625 v 2.8754 h 26.658 l -3.534,19.5 -3.9447,13 -2.6937,5.4604 -2.6937,5.4604 -3.3961,5.309 -3.3961,5.309 v 2.5612 l 1.8463,1.9 8.1537,20.301 v 2.2981 l 1.4904,2.8821 1.4904,2.8821 -10.481,3.8815 -5,1.5084 -5.5634,2.8308 3.2802,5.5529 9.2832,6.108 11,4.1754 22,5.2059 1.75,0.50423 1.75,0.50424 v -4.8728 l -1.5184,-8.881 -1.5184,-8.881 -6.8971,-22 -7.9403,-15.452 0.87389,-2.7739 0.8739,-2.7739 3.9809,-9.7221 3.9809,-9.7221 5.0742,-17.556 2.0903,-15.645 v -7.6385 l 4.6988,-1.1793 15.041,-15.744 7.9597,-13.794 4.6477,-9.4859 -0.65096,-0.65095 -0.65095,-0.65095 -24.546,2.454 -13.735,4.794 -9.1124,5.093 -12.153,-12.778 -9,-6.0089 -12,-5.991 -7.3837,-2.3916 -24.088,12.241 -20.991,-10.125 h -5.9923 l -13.525,5.0907 -9.021,5.2855 -11.15,11.124 -2.1759,3.9402 -10.674,-4.3122 -22,-6.0092 -14.631,-2.3215 -0.5915,0.70273 11.678,24 0.014,6 -1.5271,2.4024 -9.0844,-11.402 -6.3839,-10.572 -4.1039,-14.959 0.62984,-5.4689 14,0.43392 36.638,7.2753 9.3617,-3.9762 33.733,-18.898 1.8164,-3.2458 2.399,-11.794 2.399,-11.794 2.0496,-9.7307 2.0496,-9.7307 3.2101,-10.539 5.1268,-15 5.2163,-9.498 2.8097,-0.002 7.1903,7.6381 5.6202,18.15 2.4682,9.8557 2.4682,9.8557 1.9784,9.5 1.9784,9.5 3.5075,15.421 1.9792,1.9322 14,7.3617 18.846,11.054 10.248,4.6917 36.906,-7.744 12.277,-1.3871 1.0816,1.7501 -1.699,13.699 -6.3088,12.035 -12.35,15.977 -5.7732,8.1804 -1.8184,4.2421 -1.8184,4.2421 -3.1605,15.544 -2.6004,10.488 -2.6004,10.488 -3.7581,10.923 -1.1565,10.102 6.0043,19 5.0912,18 2.0903,15.645 v 14.855 l -13.5,-0.008 -17.021,-2.7631 -17.979,-6.0372 -15.75,-7.1921 h -2.3073 l -3.4279,13.5 -1.9754,14 -0.0342,88 -1.1073,43.306 -1.1072,43.306 2.3636,9.3872 9.8103,17.403 -3.8641,12.597 -4.1008,18.906 0.016,166.09 1.8288,6 1.8288,6 8.5232,15 0.88954,6 -14.211,21.7 -0.93728,2.4652 -0.93728,2.4652 0.006,8.3698 4.995,18.644 v 5.6899 l -3.8946,9.0859 -12.008,17.858 -5.3674,4.222 h -4.5788 l -5.3784,-6.4796 z m 11.625,-11.777 1.8985,-3.2437 2.8388,-5.5 2.8388,-5.5 0.0127,-2.6243 0.0127,-2.6243 -1.5381,-4.3594 -1.5381,-4.3594 -2.8228,-4.3082 -13.159,2.4729 -2.8047,3.8025 -1.1744,4.1641 -1.1744,4.1641 2.3634,7.161 10.963,14.011 1.3858,-0.012 1.8985,-3.2437 z m 3.6388,-49.458 4.4627,-9.714 9.6127,-16.793 -0.49632,-0.49631 -0.49631,-0.49632 -42.12,-1.0832 v 1.3693 l 19.171,36.927 h 5.4035 z m 0.28815,-37.917 4.6046,-0.63113 -1.9893,-3.717 -5.881,-3.0412 -15.06,-1.273 v 9.2935 h 13.721 z m -10.91,-25.359 1.5436,-5.5095 1.9406,-20 0.52326,-37.5 0.52325,-37.5 1.0308,-21 1.0308,-21 0.94138,-7 0.94139,-7 0.64033,-7.75 0.64034,-7.75 h -16.053 l -0.6953,1.125 -0.6953,1.125 -0.31878,68.625 -0.31877,68.625 0.86235,20.195 0.86236,20.196 0.7358,1.1905 0.73579,1.1905 3.5852,-4.753 z m 8.585,-183.03 8.5,-2.008 5.9487,-2.3985 -6.9487,-1.5157 -32.819,-2.07 -0.27223,0.27223 -0.27224,0.27223 7.3027,9.4697 10.061,-0.014 8.5,-2.008 z m -7.2955,-21.271 1.7564,-5.207 0.33728,-73 0.33729,-73 -2.2248,-42.569 8.8186,-8.8185 14.367,-21.106 9.9039,-11.318 v -1.4173 l -10.669,-11.283 -6.2882,2.1921 -2.3117,-0.77057 21.269,-23.293 v -1.4791 l -11.108,-16.523 -11.621,-10.759 -7.0734,-3.3565 h -6.3955 l -7.3023,3.356 -15.087,15.315 -7.413,11.168 0.09242,2.6611 16.835,18 -15.268,15.386 9.8401,11.192 5.4306,7.4219 9.5694,22 -1.9e-4,11.5 -1.8e-4,11.5 -0.35273,81.5 -0.35274,81.5 1.4772,15.45 1.6767,-1.0362 1.7564,-5.207 z m 40.728,-251.04 0.93239,-2.6103 -3.6748,-4.0606 -4.19,0.0306 -2.3414,1.4894 -1.3092,5.2163 5.2784,4.152 4.3723,-1.6072 0.93239,-2.6103 z m 5.9591,-45.171 2.5197,-8 0.63828,-4.0378 0.63829,-4.0378 -10.688,-3.3158 -13,-2.9659 -5.5387,-2.108 1.9348,-3.5348 13.211,-26.816 -2.6069,-1.7206 -6.8695,-4.355 -0.69825,1.8915 -17.787,34 h -12.263 l -17.034,-33 -1.7814,-1.8337 -8.163,3.681 -0.85664,1.3861 13.953,28.206 v 1.7568 l -7.5,3.2669 -19.624,6.9953 -0.83168,0.51401 -0.83167,0.514 4.7229,14.514 4.4558,13.5 1.5542,-0.034 1.5542,-0.0339 20,-19.088 11,-6.6702 7.4579,-1.3881 11.542,6.4642 10.973,9.2505 13.935,12.73 1.7319,-3.865 1.7319,-3.8649 2.5197,-8 z m -37.921,-86.312 3.9709,-2.7453 6.5582,-8.5984 -0.0435,-4.1723 -0.0436,-4.1723 -1.6933,-8 -1.6268,-7.5 -1.6268,-7.5 -2.05,-7 -2.05,-7 -6.3625,-20.5 h -1.5744 l -4.1181,9.5 -5.6626,16 -4.3958,17 -1.3232,7.5 -1.3232,7.5 -0.106,8.5993 1.405,2.7003 1.405,2.7003 2.345,2.1346 2.345,2.1346 8,4.1423 4,0.022 3.9709,-2.7453 z"
       id="path34"
       inkscape:connector-curvature="0"
       style="fill:#8a786b" />
    <path
       d="m 123.38,825.75 -5.0486,-5.25 -3.1095,-5 -3.1095,-5 -2.6614,-5.8162 -2.6614,-5.8162 0.67258,-4.6838 0.67257,-4.6838 3.9018,-12.839 0.22308,-5.0804 0.22309,-5.0804 -9.1818,-15 -7.4198,-12 0.56606,-2.9159 0.56606,-2.9159 9.0249,-15.647 1.0949,-2.7608 1.0949,-2.7608 0.64806,-165 -0.92596,-8.5 -0.92597,-8.5 -1.5955,-5.5 -1.5955,-5.5 -2.132,-11 10.796,-18.978 -0.1984,-45.022 -1.1104,-138 -5.1693,-24.656 -1.014,-1.6407 -20.508,8.9072 -14,4.7229 -11,2.28 -20.274,1.1747 -0.70312,-2.2153 -0.70311,-2.2153 0.6645,-6.179 0.6645,-6.1789 3.1266,-19 6.5958,-20 3.3378,-9 -1.0858,-15 -7.2047,-20 -1.6487,-5.4253 -1.6487,-5.4253 3.4932,-16.971 1.6218,-3.0893 1.6218,-3.0893 3.4178,18 4.2484,16.73 5.8042,16.27 3.1712,7.4358 -0.0653,10.564 -3.7015,10 -6.1256,15.753 -4.9291,19.247 -1.4091,11.5 1.7304,-0.0702 12,-2.7829 12.174,-3.0476 10.826,-4.2477 13.49,-6.3515 0.005,-1.2278 0.005,-1.2278 -5.4465,-11.105 -2.7768,0.53043 -2.7769,0.53036 -6,1.1589 0.01187,-5.3294 0.01187,-5.3295 2.784,-10 6.4449,-14.201 -6.888,-10.799 -5.1235,-11 -4.2781,-14 -1.6123,-12.356 15.149,-5.8866 9.5,-3.5291 v -1.4018 l -11.962,-21.826 -0.01896,-0.52692 -0.01896,-0.52693 23.073,-16.946 h 2.4267 l 17.534,34.934 1.7725,1.7725 7.5129,-11.706 9.4732,-19 5.679,-19.842 1.4593,8.5485 4.9746,8.4885 15.094,14.008 v 2.3275 l -12,23.938 v 1.0308 h 27.23 l -0.71212,5.75 -0.71213,5.75 -2.4511,9.234 -2.4511,9.234 -5.2375,11.532 -7.6665,12.216 v 2.0342 l 7.1803,15.75 4.7549,14.965 -1.4352,1.3651 -18.5,6.4208 v 2.6826 l 7.3514,7.3515 13.149,6.0016 27,6.6583 2.75,0.0552 -1.3517,-6.5 -3.8398,-21 -5.1029,-15 -8.4047,-16.981 0.32318,-2.5094 0.32318,-2.5094 2.6997,-5 2.1212,-5 2.1212,-5 6.1293,-19 1.3585,-9 1.3585,-9 0.007,-4.2148 0.007,-4.2148 4.5,-2.3637 7,-6.0737 11,-13.17 9.9907,-19.306 -0.71231,-0.7123 -0.7123,-0.71231 -24.082,2.2864 -12.59,4.1329 -10.7,5.4731 -15.194,-15.138 -15,-8.1529 -10.274,-3.648 -24.3,12.227 -19.832,-9.9127 h -7.8554 l -13.738,5.1562 -10.429,6.9038 -11.368,12.709 -13.203,-4.6575 -14,-4.0732 -18.619,-3.1657 -0.86117,0.3135 -0.86117,0.31349 3.9904,8 8.0393,17.682 -1.3426,7.1569 -4.8058,-5.8393 -10.846,-16 -3.1937,-10.863 v -10.84 l 14.5,1.3843 17,3.5862 19.239,3.4974 14.761,-7.1432 26.346,-15.122 h 2.0194 l 0.57662,-1.8167 0.57661,-1.8167 5.0679,-23.867 3.1022,-16 4.8756,-17 2.9105,-7.569 2.9106,-7.569 3.6147,-6.3493 2.7,-0.0126 6.4988,6.5 6.5015,20 4.7666,19 4.0286,19 1.5271,7 1.5271,7 0.54256,1.75 0.54257,1.75 h 1.6953 l 29.67,16.625 8,4.6414 5.5769,1.6158 37.423,-7.6771 11.78,-1.4708 -0.96594,15.051 -6.6037,12.714 -15.749,20 -5.943,12 -3.9476,19 -4.934,19 -4.2602,14 0.94154,10.137 5.0759,14.863 6.2173,24 0.60403,12.412 0.60403,12.412 -21.819,-1.3558 -12,-2.6536 -14,-5.1459 -19,-7.9721 -3.5596,14.304 -2.0823,14 0.21164,76 -1.1339,50.194 -1.1339,50.194 3.3021,9.6127 8.598,14.888 -1.6173,6.1123 -3.0046,12 -3.0046,12 -0.0756,169.19 3.7761,10.813 9.1905,17 0.0167,2.0136 0.0167,2.0136 -13.247,19.973 -1.3765,3.2179 -1.3765,3.2179 v 8.1541 l 5,20.208 v 3.8313 l -4.4429,10.371 -10.637,15.926 -3.5456,3.3032 -4.2425,2.2705 h -1.6998 l -5.0485,-5.25 z m 14.101,-20.169 4.9304,-9.5445 -2.6204,-7.2467 -1.9558,-4.4214 -1.9558,-4.4214 -10.383,1.2841 -5.9332,3.3423 -2.6223,8.9269 1.2169,7.4148 12.035,16.167 2.3572,-1.9563 z m -4.354,-33.64 0.77335,-1.4405 11.776,-24 6.2014,-9.9552 -2.3814,-1.5141 -41.5,-0.0306 v 1.9207 l 15.168,28.579 2.7427,6.5316 4.5889,1.8345 1.8571,-0.48514 z m 4.7607,-46.558 5.3912,-0.56188 -5.8646,-5.8646 -15.462,-3.1532 -1.4778,0.56709 -1.4778,0.56708 v 8.7294 l 0.96359,0.96358 12.536,-0.68568 z m 1.1378,-16.028 0.83841,-0.85472 0.48644,-167 -0.78751,-6.6949 -0.78751,-6.695 -4.2788,-0.61011 -15.226,0.64369 -0.60269,24.178 -0.6027,24.178 -0.018,97 0.8247,17.603 0.82469,17.603 1.5817,2.5592 16.909,-1.0549 0.8384,-0.85471 z m -2.6035,-192.4 7.8022,-2.0436 6.2723,-2.5918 -13,-2.2498 -28.5,-1.3691 v 1.4613 l 7.2409,8.8366 h 12.382 z m -8.721,-21.249 1.7564,-5.207 0.67644,-146 -2.1904,-41.751 9.6068,-10.249 13.709,-20.627 9.737,-10.654 v -1.8958 l -10.5,-11.384 -7.6875,2.2056 -0.75095,-0.75095 20.938,-23.248 v -1.7904 l -10.159,-14.856 -11.341,-11.563 -8.1314,-3.9365 h -6.5663 l -7.3023,3.3673 -15,15.17 -8.5882,12.406 17.944,19.75 -14.856,14.757 v 1.8802 l 11.764,12.251 6.9886,13.919 3.2273,8 3.2273,8 -0.606,17 -0.60601,17 -0.23876,148 1.4986,16.461 1.6932,-1.0465 z m 40.412,-249.93 1.0534,-1.9682 -1.2005,-4.7833 -4.8252,-1.211 -4.042,1.2829 -1.2371,3.8977 1.3107,4.1295 4.2495,1.572 3.6379,-0.95134 z m -66.45,-39.32 5.1669,-5.1657 10.666,-8.9524 7,-4.1009 7.5097,-1.3358 12.845,7.1833 13.645,12.462 9.8002,8.4631 2.411,-3.5164 6.4949,-20.618 0.50073,-3.7332 0.50073,-3.7332 -4.8088,-2.191 -11.899,-2.3538 -10,-3.1166 -1.7603,-1.6145 14.26,-29.162 v -0.89314 l -9.0903,-5.3273 -0.77914,0.77914 -10.364,19.964 -8.1822,15.5 h -11.451 l -8.9092,-17.5 -8.7247,-16.724 -1.1154,-0.44318 -1.1154,-0.44319 -8.2692,3.5825 v 1.4026 l 14,27.972 v 1.7684 l -7.6201,3.362 -11.88,4.1436 -9.5,3.261 v 1.8978 l 8.3031,23.22 1.7272,4.7101 5.4696,-3.5821 z m 33.361,-92.113 2.4725,-1.6511 6.7442,-6.1978 3.4106,-7.4448 -2.545,-14.555 -4.0171,-18.288 -3.7861,-11.712 -5.8066,-18.494 -1.5271,-0.0063 -4.6582,10.5 -5.2871,15 -4.9598,19.264 -1.1854,8.9035 -1.1854,8.9035 0.66192,3.5284 0.66193,3.5284 6.6537,6.449 6.8255,3.8084 5.055,0.1148 2.4725,-1.6511 z"
       id="path36"
       inkscape:connector-curvature="0"
       style="fill:#786967" />
    <path
       d="m 123.58,825.88 -4.6013,-5.1177 -5.9455,-8.8095 -5.0373,-10.648 v -11.056 l 1.3675,-3.876 1.3675,-3.876 1.2181,-7.2216 1.2181,-7.2216 -8.2569,-14.556 -8.9796,-14 0.61242,-2.5 0.61242,-2.5 10.144,-18 1.7929,-17.861 -0.70176,-164.14 -4.543,-16 -1.0944,-4.6093 -1.0944,-4.6093 9.056,-15.781 2.5522,-7.8507 -1.7023,-87.149 -0.20806,-95 -2.2487,-8 -3.0666,-14.788 -0.45874,-0.45874 -0.45873,-0.45874 -11.004,5.2056 h -1.1456 l -8.4782,3.965 -18.994,6.0865 -24.592,2.2625 -1.1365,-1.1365 -1.1365,-1.1365 0.16742,-6.0747 0.16742,-6.0747 3.2125,-20.206 4.8118,-15.161 v -1.634 l 4.4035,-9.3903 0.70205,-15 -2.8576,-10 -8.4917,-24 2.3632,-13 3.3499,-9.5 h 1.1845 l 2.447,15.985 3.927,13.515 7.2075,22 0.9474,1.1809 0.9474,1.1809 1.0461,10.638 -2.0125,8 -6.3382,15 -5.9019,19.693 -2.2381,15.826 0.57783,0.57782 0.57783,0.57783 11.659,-2.3827 18,-5.0579 20.5,-9.5949 v -1.3854 l -6.5,-11.841 -8,1.2333 -3.8062,1.0859 0.57191,-7.5619 0.57191,-7.5619 8.1624,-18.612 v -1.4085 l -6.3321,-10.588 -5.6117,-11.416 -5.162,-20.364 0.60584,-5.8548 14,-5.603 6,-1.3568 4,-2.992 -4.7088,-8.4134 -6.7912,-13.338 v -2.0034 l 23.211,-17.347 0.82003,0.84435 0.82002,0.84435 17.128,34.369 1.8643,1.1522 6.4564,-9.5215 10.298,-20 5.816,-19.442 1.239,4.8414 1.239,4.8414 6.0267,8.9298 13.057,10.83 0.0236,2.0251 -12,23.95 v 1.5251 h 27 l -0.0436,2.25 -0.0435,2.25 -1.7728,8 -3.3095,15 -5.8305,12.64 v 0.94145 l -8,11.838 0.006,1.7905 0.006,1.7905 1.5548,2.9818 1.5548,2.9818 5.2049,13.01 3.441,11.365 -18.268,6.4592 -1.2658,1.1527 -1.2658,1.1527 7.3813,8.6234 12.336,5.7096 27.801,7.064 h 3.514 l -0.0436,-2.25 -0.0435,-2.25 -1.733,-8 -1.6094,-8 -1.6094,-8 -6.3931,-18 -6.568,-12.645 v -4.7366 l 1.7784,-1.0991 1.273,-5.0722 4.669,-10.447 5.1844,-16 4.095,-23.344 v -6.0212 l 4.5,-1.366 9.3981,-9.4821 6.9868,-9.1531 4.5926,-8.0938 4.5926,-8.0938 0.9402,-2.4729 0.94021,-2.4729 -12.45,0.0628 -21.121,3.6599 -15.674,7.7772 -16.205,-16.03 -14,-7.302 -10.375,-3.9291 -19.625,10.031 12.482,-11.422 0.81414,-3.1419 0.81415,-3.1419 -2.4943,-16.87 -1.9683,-5.1945 -3.3446,-16 -0.90158,-0.95 -0.90121,-0.94994 0.01,-3.1 -3.255,-10.242 -3.255,-10.242 -1.3534,-0.0156 -2.4593,5.3717 -2.4593,5.3717 -6.118,18.757 -1.5864,5.2839 -1.5864,5.2839 -3.0996,20.432 0.44158,4.8245 0.44158,4.8245 3.9564,5.351 8.7469,4.8838 7.076,1.207 -4.2976,2.3712 -15.702,-8.1565 -7.3487,-2.6634 -11.651,2.7546 -11,5.3415 -8,6.2543 -3.1623,3.5037 -3.1623,3.5037 -3.6754,4.5151 -5.8597,-3.0831 -13.14,-3.224 -2,-1.5326 -13,-2.2818 -12.633,-3.0939 -1.1367,1.1367 7.0844,14.564 5.1853,11.193 -0.03062,3.807 -1.602,2.5236 -5.8674,-7.2518 -4.1397,-5.2718 -5.595,-10 -2.7416,-10 -0.01187,-4.6778 -0.011868,-4.6777 11.5,0.9872 27,4.9286 8.4646,2.1897 h 4.8301 l 18.705,-9.4169 3,-2.5957 21.287998,-11.301 4.1453,-20.436 4.8696,-23 5.0268,-18 4.7653,-12.495 2.4049,-2.4049 0.0306,-2.1 0.85198,-1.3443 0.85199,-1.3443 6.2458,3.2298 4.2947,8.4183 5.5841,18.04 4.305,18 4.9829,23 2.4024,10.838 18.951,9.8333 16,9.5584 8.8505,4.4896 11.15,-1.9907 30,-6.0065 9.7629,-1.22 -0.4766,7.2489 -0.4766,7.2489 -6.2649,12 -5.5448,7.4377 -11.227,14.562 -5.1474,10 -1.4854,7 -1.4854,7 -4.243,18.825 -1.9792,5.8751 -1.9792,5.875 -2.6277,12.536 2.4257,8.4449 2.4257,8.4449 5.8251,20 2.0571,10 0.62152,10.723 0.62151,10.723 -3.5578,1.3653 -23.399,-2.2898 -19.846,-6.2551 -2,-1.4319 -7,-2.652 -10.628,-4.8888 -0.27578,0.35283 -0.27579,0.35282 -1.635,6 -1.6351,6 -1.0816,7.5 -1.0816,7.5 -0.36674,61 -0.36675,61 -1.0702,26.802 -1.0701,26.802 4.1182,12.225 7.8683,13.046 -0.003,1.0631 -0.003,1.0631 -6.994,28.486 v 170.99 l 5.3076,13.521 2.4232,3 5.2692,10.664 v 2.851 l -12.776,19.625 -4.224,8.2797 0.002,3.5797 5.1269,21 0.0186,4.0827 0.0186,4.0827 -1.6337,3.9173 -1.6337,3.9173 -11.012,16.392 -6.9568,6.1082 h -2.7451 l -4.6013,-5.1177 z m 9.8178,-12.139 1.9019,-3.2437 6.6962,-12.645 -7.9e-4,-2.6773 -7.9e-4,-2.6773 -2.9568,-6.25 -2.9567,-6.25 -4.5849,0.087 -8.9417,1.7251 -2.215,2.5752 -2.215,2.5752 -0.66639,4.4438 -0.66638,4.4438 2.3561,7.1392 10.963,14.011 1.3858,-0.012 1.9019,-3.2437 z m 4.1651,-50.339 4.8469,-10.595 4.7755,-8.029 4.7755,-8.029 -0.54141,-0.87602 -0.54141,-0.87603 h -42.882 v 2.0538 l 18.346,35.446 2.1543,1.4694 4.2201,0.0306 4.8469,-10.595 z m 4.1963,-38.328 1.2633,-0.67127 -4.0846,-4.3843 -6.092,-3.1503 -13.85,-1.1611 v 11.424 l 21.5,-1.3856 z m -1.2716,-38.327 0.71648,-24.25 -0.49737,-65 -0.49736,-65 -0.74085,-2.842 -0.74084,-2.842 -18.568,0.68392 -1.6632,1.6662 v 172.33 l 0.81127,4.75 0.81128,4.75 h 19.653 z m 2.7584,-171.27 7.75,-2.661 v -1.5344 l -12.075,-1.262 -31.33,-1.3509 7.9049,10.432 20,-0.96234 z m -14.254,-24.964 2.1083,-9.2546 -0.8274,-151.76 -2.2521,-26.76 10.608,-11.458 13.601,-20.366 7.9162,-8.4165 1.7425,-3.1685 -11.42,-11.301 -7.6605,2.1152 -0.34687,-0.34686 -0.34686,-0.34687 20.824,-22.952 0.0288,-1.2734 0.0288,-1.2734 -10.427,-15.15 -11.447,-11.59 -9.1096,-3.479 -8.2709,1.1094 -8.8044,6.3228 -5.7594,5.3333 -13.182,17.756 v 1.3184 l 16.928,17.925 0.0359,0.64869 0.0359,0.6487 -14,14.991 v 1.2956 l 12.995,14.901 2.9116,6.2577 2.9116,6.2577 5.8362,15 -0.75171,88 -0.7517,88 0.8986,9.5 0.89859,9.5 0.1152,5 1.4122,-1.8646 1.4122,-1.8646 2.1083,-9.2546 z m 37.781,-243.07 2.2225,-1.5567 v -4.0181 l -2.0704,-3.8685 h -6.8593 l -2.2404,4.1863 0.61495,2.4502 0.61494,2.4502 4.4402,1.7866 1.055,0.1268 2.2225,-1.5567 z m -63.071,-42.61 10.793,-10.167 8.9692,-5.7156 7.6273,-2.0538 11.105,5.6031 11.719,10 14.251,12.603 2.4285,-2.0154 1.3326,-5.2938 1.3326,-5.2938 1.3149,-2.5983 1.3149,-2.5983 2.4597,-13.349 -2.0955,-2.0955 -17.158,-3.7496 -8.6003,-2.9412 0.62644,-3.6679 13.178,-26.762 -4.8047,-3.6483 -4.5404,-2.4497 -0.85431,0.9298 -0.85431,0.92979 -15.358,29.734 -1.5612,2.3828 -1.5612,2.3828 h -10.36 l -14.783,-28.5 -1.5636,-3.2174 -1.5636,-3.2174 -3.4178,-0.0652 -7.033,3.5 -0.0246,0.86183 -0.0246,0.86184 14.334,28.952 -2.8337,1.7936 -3.1,0.0306 -1.9,1.7542 -11,3.5105 -2,1.5288 -8.5,2.5231 v 4.5654 l 0.877,0.54201 0.877,0.54202 1.1861,4.7103 1.1861,4.7103 3.8738,8.5036 v 0.97953 l 1.9505,5.1302 h 1.9634 l 10.793,-10.167 z"
       id="path38"
       inkscape:connector-curvature="0"
       style="fill:#67554e" />
    <path
       d="m 123.95,826.25 -4.2236,-4.75 -7.1714,-11 -2.349,-5 -2.349,-5 0.48561,-5.5 0.48562,-5.5 4.5461,-19.664 -1.6032,-4.3256 -1.6032,-4.3256 -9.46,-14.685 -4.8821,-7.3642 1.4572,-4.6358 9.7596,-17.343 1.0174,-5.5036 1.0174,-5.5036 -0.3267,-86.325 -0.32669,-86.325 -4.5388,-16 -1.0634,-4.0498 -1.0634,-4.0498 10.745,-18.9 -0.63272,-178 -1.0123,-7.9762 -1.0123,-7.9762 -2.6651,-11.048 -0.60785,-2.75 -0.60784,-2.75 h -1.9566 l -12.699,6 h -1.5873 l -8.2191,3.8922 -17,5.2669 -25.82,1.1413 0.65578,-9.9002 0.65578,-9.9002 2.904,-16.436 1.8166,-3.5643 2.4143,-9.8867 4.2882,-9.1133 0.77149,-16.027 -2.9902,-10.973 -8.2279,-23.419 2.3254,-14.081 h 1.4843 l 1.3621,-7.2605 1.6335,1.7605 1.1506,7 1.1506,7 5.0828,18 6.1823,18 0.99695,1.3033 0.99695,1.3033 v 14.787 l -0.99447,1.3033 -0.99447,1.3033 -3.6255,10 -1.4955,2 -4.4089,15 -2.737,10.943 -1.3359,13.557 h 2.0375 l 16.721,-3.147 16.301,-5.7263 16.199,-7.405 -0.06419,-2.2217 -5.4358,-11 -12.5,0.65078 0.0112,-8.6508 2.1425,-8 3.9717,-9 4.1841,-8.2277 -5.1598,-6.7723 -7.9336,-15.522 -1.6755,-6.7389 -1.6756,-6.7389 -1.865,-7.232 v -5.1072 l 10.5,-3.4254 2,-1.5109 11.5,-3.5897 -0.14618,-4.1348 -3.6534,-6 -7.6878,-14.687 4.9873,-3.7663 4,-3.0479 14.831,-10.984 1.6227,2.7424 1.6227,2.7424 15.648,31.5 h 2.3446 l 3.9312,-6.2545 4.5168,-7.2455 7.8459,-16 0.70651,-3 0.7065,-3 1.5453,-2 0.70077,-3.75 0.70078,-3.75 h 1.5057 l 3.5423,9.5 17.93,17.41 -6.1704,12.348 -1.6954,2.2418 -2.6646,7 -1.3353,1.5787 -1.3353,1.5787 v 1.3425 h 28.227 l -1.1166,5.5 -1.535,8 -1.535,8 -3.1708,10 -8.0469,15.91 -3.8228,4.8599 v 4.7968 l 4.727,9.4335 2.5337,8 1.429,2 2.526,9.342 -1.1741,1.8997 -6.0416,1.2083 -8.5,3.8117 -4.5,1.3731 v 1.9462 l 4.5,6.1067 11.293,6.6281 16.707,5.0134 15.15,3.0543 1.4248,0.30827 1.4248,0.30828 0.55474,-5 -2.8947,-15 -1.6144,-7 -1.6144,-7 -2.4994,-6.5 -2.4994,-6.5 -6.9858,-13.338 4.3613,-12.662 1.2596,-2 1.2596,-2 2.5229,-9 1.7768,-2.3579 4.0447,-18.642 1.7091,-9 0.1192,-10.283 4.7297,-1.1871 12.861,-13.634 6.2408,-9.247 8.4187,-17.232 -0.60349,-0.60349 -0.60348,-0.60349 -19.543,2.0666 -14.501,3.3064 -9.7892,4.9168 h -1.5521 l -3.4983,3.1659 -2.4839,-4.6659 -7.1753,-7.6714 -10,-6.5204 -7,-4.0984 -13.194,-5.2249 -15.582,8.015 h -0.88691 l 8.2242,-7.9018 1.4333,-3.4304 1.4333,-3.4304 -3.0198,-19.737 -1.7677,-4 -1.6791,-8 -1.6791,-8 -0.74505,-1 -0.74504,-1 -3.4303,-13.962 -1.6307,-2.0382 -1.3899,-6.5 h -1.6392 l -3.8946,7.5 -2.568,8 -0.78027,1 -0.78028,1 -3.2329,13 -2.0299,4.7785 -4.12,22.222 -0.48021,4.0176 -0.48021,4.0176 4.6873,8.9513 9.9542,6.5134 7.0229,0.1354 -2.2613,1.0902 -2.2613,1.0902 -16.567,-8.209 -5.3782,-2.0448 -11.533,2.0479 -15,7.279 -15.27,15.55 -20.73,-6.8009 -13,-2.4247 -1.5,-0.74161 -1.5,-0.74162 -10.703,-1.4459 1.4766,4.7156 10.818,22.809 -1.325,6.0328 -3.8637,-4.8414 -8.0801,-10.655 -5.923,-12.657 -1.1517,-13.738 15.752,1.4383 25,4.9976 9.6803,2.0872 11.32,-5.3113 20,-11.052 1,-1.1651 8,-3.5387 4.5178,-3.4282 4.1187,-19.978 4.6787,-22 2.1131,-8 2.1131,-8 2.7139,-7 2.7139,-7 4.6927,-8.4837 3.3381,1.8001 4.2517,4.6836 3.0663,7 5.1587,17 4.0662,18 4.8131,22 2.3448,10 2.2991,2.256 19,9.9353 21.427,12.309 h 6.6528 l 10.92,-2.8278 23,-4.4184 11.74,-1.3503 -0.48926,6.5483 -0.48926,6.5483 -5.6994,12 -3.562,3.8771 v 1.48 l -2.9235,2.9235 -10.077,13.147 -3.9747,6.5719 -0.95102,2.1536 -0.95103,2.1536 -3.037,13.693 -4.8766,21 -5.5699,18 0.0642,9 4.2709,14 2.0041,4 2.0674,8.5 2.0674,8.5 1.7609,8 0.71468,10.9 0.71467,10.9 -25.804,-1.1406 -17,-5.2898 -12,-5.1229 -10.559,-4.7464 h -1.667 l -3.1776,10.5 -1.2543,8 -1.2543,8 -0.0876,91 -1.371,43.289 -1.371,43.289 3.51,9.4224 8.5906,16 -4.9756,20 -1.9265,8 0.54358,176 12.658,24.874 -4.4758,7.9636 -8.6786,12.676 -4.2077,8.9514 0.50675,4.2672 0.50674,4.2672 4.4653,19.183 -0.6749,4.5006 -0.67491,4.5006 -6.8073,10.816 -4.0732,5.7735 -4.0732,5.7735 -6.471,3.9455 -1.33,0.008 -4.2236,-4.75 z m 8.5665,-10.196 0.98713,-1.9458 7.7736,-13.608 0.47669,-4.1029 0.47668,-4.1029 -5.727,-12.513 -13,1.3217 -4,2.6192 -3.7908,11.178 3.7908,9.0981 10.957,14.002 h 1.0686 z m 7.9773,-57.304 7.6339,-15.25 5.0258,-8.5 h -46.15 v 0.81056 l 18.26,35.689 1.9847,2.5 h 5.6114 z m -6.3445,-32.099 6.6456,-0.40443 2.2142,-1.3684 -2.0013,-3.7395 -5.8697,-4.1796 -16.134,-1.5597 v 12.355 l 8.5,-0.69842 z m 5.8544,-15.63 1.5,-0.94807 v -172.57 l -0.81891,-4.801 -0.81892,-4.801 -4.3622,-1.448 -16.285,0.69544 -1.4374,40.354 0.44498,70.5 0.44499,70.5 1.5466,3.5 18.286,-0.0306 1.5,-0.94806 z m -3,-193.45 6.5,-1.3935 6,-3.1659 2.5,-0.012 v -1.7214 l -10.5,-1.3158 -33.818,-1.2863 1.6536,2.8236 5.8324,7.5 15.332,-0.0348 6.5,-1.3935 z m -8.8345,-21.329 2.3345,-6.7432 v -171 l -2.8122,-15.671 7.8292,-7.3291 2.9779,-3.9932 2.9779,-3.9932 10.834,-16.014 9.96,-11.462 -7.6846,-8.5379 -1.6498,-1.7868 -1.6498,-1.7868 -8.2828,1.861 v -0.78741 l 3.5,-4.0488 4.1605,-4.4512 12.34,-13.702 v -3.5 l -11.16,-15.798 -11.34,-10.737 -6.4358,-2.7632 h -7.82 l -7.5652,3.1609 -11.314,11.339 -11.365,15.394 v 2.1366 l 8.5,8.8198 3.9797,4.65 4.4055,5.1523 -13.885,14.533 v 2.0429 l 10.159,11.726 4.8413,7.1341 v 1.035 l 4.8619,10.376 4.3216,11 -0.13666,64 -0.13665,64 -1.9457,37.097 1.5137,16.452 1.5137,16.452 0.004,1.809 0.004,1.809 1.8309,-1.1316 2.3345,-6.7432 z m 41.675,-252.71 0.34051,-1.7141 -4.5296,-4.8216 h -4.5062 l -4.1452,5.2697 v 2.5853 l 6.4541,5.0511 6.0459,-4.6563 z m 1.6544,-33.797 1.6479,-5.2382 1.8766,-4 3.8079,-17.615 -4.3273,-1.6421 -12,-2.3469 -4,-1.8124 -8.5604,-2.1768 0.76818,-1.4067 5.3045,-11.402 2.0196,-4.5979 6.8651,-12.855 -3.397,-2.6857 -2.8403,-1.5521 -2.8402,-1.5521 -2.7599,1.0591 -10.126,20.586 -7.649,14 -7.5942,0.63917 -4.1906,-1.0714 -3.8526,-9.5677 -1.1474,-1 -11.931,-23.692 -6.7809,1.1004 -4.7979,3.1437 11.16,22.448 1.9246,3.6362 1.9246,3.6362 v 0.91111 l -8.5,2.5231 -2,1.5328 -8,2.4329 -10.5,4.1958 v 3.8297 l 2.8241,6.3023 3.4405,11 1.5044,2 0.70755,3.3075 0.70755,3.3075 1.8609,-0.30749 1.8609,-0.30748 16.594,-16.087 8,-6.0399 7.0594,-4.0453 5.4148,-1.359 11.526,6.3798 11,9.0692 8,7.3588 6.9822,6.044 0.68244,-0.42178 0.68245,-0.42177 z"
       id="path40"
       inkscape:connector-curvature="0"
       style="fill:#5b4a44" />
    <path
       d="m 124.51,826.33 -3.9664,-4.4714 -6.6096,-9.2966 -6.1578,-13.033 0.62714,-4.5122 0.62715,-4.5121 2.3819,-11 2.3819,-11 -8.2262,-15.585 -3.0696,-3.5169 -2.116,-3.8982 -4.3845,-7.2369 4.0203,-7.3815 4.0203,-7.3815 4.2135,-8.8616 1.8272,-15.138 -0.65766,-164 -1.1785,-3.5 -1.1785,-3.5 -5.3083,-19.575 2.9068,-3.425 3.3888,-7.415 0.89532,-0.55334 0.89533,-0.55334 4.3762,-13.151 -0.65186,-21.664 -0.65187,-21.664 -0.8099,-70 -0.80991,-70 -3.5091,-14 -0.51905,-2.8294 -0.51904,-2.8294 -2.4769,-0.95049 -26.112,11.109 h -1.9 l -12.761,4.1472 -23.5,1.147 -0.11092,-2.3971 -0.11092,-2.3971 0.41855,-14 2.636,-15 4.9597,-16 4.4012,-12 -0.05532,-14.178 -3.3171,-12.822 -1.5798,-2 -3.4305,-12 -2.1326,-2.5925 0.05628,-5.9753 0.05628,-5.9753 1.9472,-2.4569 2.6587,-11 0.70633,4 1.7221,4 3.333,17.78 1.6076,3.2196 4.0718,14 5.2935,14.916 0.03118,7.0836 -4.3716,14 -1.526,2 -3.3713,11 -0.86778,1.6102 -0.86778,1.6101 -3.2843,16.78 -1.8735,6.142 v 5.4208 l 3.1349,1.203 4.3651,-2.0502 17,-3.4072 1,-0.72908 1,-0.72907 9,-2.5312 14,-6.6039 3.5459,-2.7218 -5.5459,-10.993 -2,-1.4938 -11.5,1.2522 0.02386,-3.8792 0.02386,-3.8792 1.8187,-7 4.6336,-12.201 2.2552,-2.7986 1.2907,-4.22 -7.9028,-13.008 -5.813,-12.82 -1.5302,-5.9514 -2.4672,-16.45 10.167,-3.3149 2,-1.4939 11.398,-3.2677 1.0651,-1.7233 -9.4633,-18.401 -2.3273,-4.1356 0.52063,-1.3567 0.52063,-1.3567 h 1.3784 l 15.908,-11.919 4.8343,-4.0968 18.839,38.016 2.3265,-0.035 7.9297,-13.465 1.1838,-1 1.3608,-3.5 1.3608,-3.5 1.0824,-1.3993 1.0824,-1.3993 4.6689,-12.201 2.1796,-8.5505 2.0424,0.68082 1.4588,5.4548 7.5612,9.9149 1.089,0.0308 10.445,9.5586 -12.945,25.701 v 0.70928 h 28 v 3.0271 l -1.813,3.4729 -3.2587,19.882 -1.5839,2.1185 -3.661,10 -1.2026,1 -1.9904,4 -1.9904,4 -1.2209,1 -1.5423,3.0123 -1.5423,3.0124 1.2882,3.7471 1.2882,3.7471 1.9645,2.481 1.7798,5.5 1.7798,5.5 0.69046,0.5 0.69045,0.5 2.3242,9.3856 v 1.0109 l -12,3.367 v 1.5139 l -7.1051,1.3329 -0.5574,1.4525 -0.55739,1.4526 3.2835,5.0113 9.1281,6.6242 11.308,3.5483 3.2196,1.6425 17.78,3.4378 1.9,1.7204 h 4.6 v -6.1169 l -1.0489,-7.1916 -1.0489,-7.1916 -1.719,-4 -3.4228,-15 -0.63021,-0.5 -0.6302,-0.5 -3.7427,-11 -4.2573,-6 0.112,-9 6.2504,-13.25 0.68009,-3.6252 0.68008,-3.6252 h 1.45 l 1.6637,-6.8931 1.6637,-6.8931 v -3.8138 l 1.9263,-1.9263 1.3817,-19.657 4.999,-2.2777 5.6658,-5.6657 10.027,-11.528 v -1.6874 l 2.7706,-3.1575 7.0922,-14 0.67941,-2.3867 0.6794,-2.3867 -20.722,1.4371 -1.9,1.8363 h -4.1798 l -11.857,3.0883 -0.53173,0.81095 -0.53174,0.81095 -7.5183,2.451 -2.9817,2.9817 v -2.316 l -12.317,-12.827 h -2.683 v -1.9843 l -6.6669,-3.5157 -7.8331,-3.7215 -6,-2.7254 -5.2699,-1.916 -1.865,1.7285 -1.865,1.7285 -9,3.5637 6.2318,-6.6577 2.2377,-6.711 -3.0824,-19.156 -2.479,-10.067 -2.4789,-10.067 -2.8639,-7 -2.973,-11 -2.5818,-7.5 h -1.4725 l -1.2549,5 h -1.553 l -3.4209,10.5 -1.5247,2 -3.615,14 -1.4959,2 -3.3371,22 -1.8367,3.4729 v 8.8381 l 4.4238,8.2878 6.5762,4.0643 v 1.0669 l -4.5,-2.907 -10,-3.6674 -2.5,-1.9005 -1.25,0.97276 -1.25,0.97275 -12.666,2.6078 -2.3344,2.2149 -5.7932,2.5674 -5.8287,4.4093 -6.378,6.2659 -4.959,5.902 -13.041,-3.7307 -3.3155,-1.8389 -16.684,-3.1874 -1.5399,-0.83266 -1.5399,-0.83267 -10.328,-1.4205 -1.8847,1.1648 6.5396,13.51 6.0718,13 -0.51805,2.7083 -0.51805,2.7083 -8.2828,-10.473 -1.2136,-1.9718 -1.2136,-1.9718 -6.0187,-10.755 -2.0542,-11.112 v -4.6327 l 5.5,0.006 30,4.9827 15,3.3203 15,-7.3052 3,-1.8946 15.539,-9.1544 10.858,-5.1408 2.1283,-11.315 2.8138,-10 0.66386,-4.5 0.66387,-4.5 3.0117,-12.5 3.0117,-12.5 5.7022,-16.353 2.5708,-5.0733 2.5708,-5.0725 h 0.89672 l 7.0696,6.2072 0.012,2.2928 2.9966,5.7459 3.0759,12.254 1.2753,3 2.3496,10 2.3496,10 4.8214,22 1.1731,5.1536 1.1731,5.1536 7.2455,3.6927 21.028,11.64 12,7.3492 15,-0.1772 11,-3.2396 24.656,-4.0726 h 4.1214 l -0.5388,5.9419 -0.53879,5.9419 -5.4814,11.616 -9.6299,13 -2.5889,2.9251 -2.5397,3.5375 -2.5397,3.5375 -5.1911,9 -1.1668,6 -1.1668,6 -0.8681,2 -0.86811,2 -3.4382,19 -1.3911,2 -3.5979,14 -1.7325,1.9 v 10.2 l 1.6838,1.9 1.8233,7 1.8233,7 0.84375,1.5 0.84374,1.5 4.0911,17 1.6876,8 1.4407,20.801 -24.737,-1.1528 -17,-5.2525 -9,-3.6856 -14.16,-6.2103 h -2.0195 l -2.3997,5.2668 -1.4904,10.617 -1.4904,10.617 -1.0264,8 -1.0264,8 1.6121,47 -0.65659,17.5 -0.65658,17.5 -0.34342,42 -0.34341,42 5.7688,12 1.5497,1.0058 3.4613,8.6506 -1.7836,8.6718 -1.7836,8.6718 -1.4518,2 -0.81785,4 -0.81784,4 0.2884,87.5 0.28839,87.5 3.9073,9 1.1938,2.5 1.1938,2.5 0.54872,0.5 0.54871,0.5 2.805,5.8084 2.805,5.8084 -1.6021,1.7703 -1.6021,1.7703 v 1.3907 l -6.9932,10.452 -0.99535,1.1992 -0.99536,1.1992 -1.7581,3.8008 -1.7578,3.8009 -0.96712,0.69321 -0.96712,0.6932 0.23984,5.7317 0.23985,5.7317 1.7998,2.1687 3.2606,17.4 -0.65881,3.5117 -0.6588,3.5117 -2.8941,4.5636 -2.8941,4.5636 v 1.6206 l -4,3.62 v 1.7969 l -5.5,7.037 -7.022,3.653 z m 7.4884,-9.2539 v -0.92857 l 1.3095,-1.3214 1.3095,-1.3214 1.5796,-3 1.5796,-3 4.3684,-8 -0.46632,-5.616 -0.46631,-5.616 -4.714,-8.2526 -6.4016,-0.016 -9.7941,2.1005 -4.3043,8.6186 v 7.4248 l 2.6794,4.6781 2.6794,4.6781 1.5706,1.6765 1.5706,1.6765 5,7.092 2.5,0.055 v -0.92857 z m 1.6051,-43.837 1.1051,-0.73469 1.2602,-3.8644 1.2602,-3.8644 11.031,-21.271 0.72969,-0.5 0.7297,-0.5 3.2791,-6.4007 v -1.0993 h -46.84 l 3.0956,6.25 3.0956,6.25 1.1492,1 12.756,25.5 6.2444,-0.0306 1.1051,-0.73468 z m 7.1449,-46.808 2.25,-0.46437 v -3.0528 l -4.7701,-4.7701 -7.7299,-1.962 -11.5,-0.84154 v 12.386 l 19.5,-0.83067 z m 0.74486,-36.676 0.71749,-22.25 -0.35617,-69.215 -0.35618,-69.215 -3.0476,-3.047 -19.326,1.2695 -1.2539,20.207 -0.89918,141.87 2.0266,2.0266 v 20.6 h 21.777 z m -5.7273,-171.75 9.174,-2.0022 7.0584,-3.3659 v -1.4704 l -13.5,-1.1444 -13.537,-2.0147 h -16.845 l -1.0186,1.6481 9.0556,10.352 h 10.439 z m -7.643,-21.248 2.3754,-7.25 v -165 l -1.433,-22.147 9.8578,-10.5 8.0752,-11.83 v -1.1399 l 6.5,-8.3614 8.4763,-9.0213 0.0118,-1.1405 0.0119,-1.1405 -11.839,-12.597 -1.3303,1.0447 -1.3303,1.0447 -4.6069,1.1296 9.4926,-11.341 4.3283,-4 7.4825,-9.4459 -4.6329,-7.5541 -3.5637,-3.8771 v -1.3308 l -4.5,-4.9759 -7.2862,-7.8161 -2.9016,-2.2872 -6.2129,-3.2128 -9.5993,0.044 -8,3.6823 -12.763,13.774 -3.4257,4 -2.6032,5 -1.354,0.79969 -1.354,0.79961 v 4.0786 l 6.6938,7.322 9.4883,10.402 -2.9594,4.2252 -10.223,10.884 v 2.5255 l 8.1289,9.8371 2.6108,2.1262 5.1873,10 4.7037,10 2.6292,9.5 h 1.9107 l -0.6121,6.75 -0.61211,6.75 -0.84419,82 -0.8442,82 1.7064,15 1.2456,8.5 h 1.5391 z m 38.971,-248.82 2.9044,-2.0681 v -4.8638 l -4,-4 h -5.1794 l -3.754,4.5 -0.0333,1.798 -0.0333,1.798 5.5,4.8409 1.6913,0.0632 2.9044,-2.0681 z m -66.823,-39.396 7.7729,-7.4208 10.454,-8.7074 9,-4.2225 3.2872,-1.0411 9.7128,5.1322 8,6.1188 3,2.5806 10.33,9.524 6.584,5.4858 1.6315,-1.6315 5.854,-16.554 2.3242,-11.3 1.8565,-3.5189 -4.5805,-1.725 -14.5,-2.5764 v -1.5571 l -9.1591,-1.3735 -1.034,-2.6946 6.3288,-13.554 0.95705,-1.5 0.95706,-1.5 4.2313,-9 1.7188,-0.66667 v -1.9762 l -1.2989,-1.2989 -1.2989,-1.2989 -6.5022,-3.3624 -3.4576,1.0974 -3.8828,10.006 h -1.3589 l -1.798,5 -1.798,5 h -1.3012 l -3.7486,8.5 -1.4301,1.0407 -1.0577,2.7821 -1.0577,2.7821 -10.353,-0.60485 -16.156,-31.268 -3,-4.3324 -9.7462,3.6007 -0.87298,2.2529 9.7073,18.747 2.8274,7 2.5845,2.6429 v 1.479 l -10,2.5629 v 1.4004 l -9.2249,2.4673 -8.6653,3.9475 h -2.1478 l 0.6517,2.75 0.65169,2.75 3.4396,8 2.555,9.5 h 1.5643 l 1.3516,8 1.1621,-0.0214 1.1621,-0.0215 z m 26.727,-91.536 -1.5,-0.96937 h 7 l -3,1.9387 h -1 z m 10.5,-4 0.61803,-1 h 0.88197 v 2 h -2.118 z"
       id="path42"
       inkscape:connector-curvature="0"
       style="fill:#54423b" />
  </g>
</svg>
