<?xml version="1.0" encoding="UTF-8" standalone="no"?>
<!-- Created with Inkscape (http://www.inkscape.org/) -->

<svg
   xmlns:dc="http://purl.org/dc/elements/1.1/"
   xmlns:cc="http://creativecommons.org/ns#"
   xmlns:rdf="http://www.w3.org/1999/02/22-rdf-syntax-ns#"
   xmlns:svg="http://www.w3.org/2000/svg"
   xmlns="http://www.w3.org/2000/svg"
   xmlns:sodipodi="http://sodipodi.sourceforge.net/DTD/sodipodi-0.dtd"
   xmlns:inkscape="http://www.inkscape.org/namespaces/inkscape"
   id="svg2"
   sodipodi:docname="staff_01.svg"
   viewBox="0 0 255.99999 256"
   version="1.1"
   inkscape:version="0.92.4 (5da689c313, 2019-01-14)"
   width="256"
   height="256">
  <defs
     id="defs4">
    <linearGradient
       id="linearGradient5395-470-606-749-155-473-817-466-134-201-6-691-779-548-982"
       y2="286.82999"
       gradientUnits="userSpaceOnUse"
       y1="287.51999"
       gradientTransform="matrix(-0.42245,0,0,0.2353,-332.82,330.26)"
       x2="179.89"
       x1="163.94">
      <stop
         id="stop41363"
         stop-color="#a44f0d"
         offset="0" />
      <stop
         id="stop41365"
         stop-color="#e94949"
         offset="1" />
    </linearGradient>
  </defs>
  <sodipodi:namedview
     id="base"
     bordercolor="#666666"
     inkscape:pageshadow="2"
     inkscape:window-y="-8"
     fit-margin-left="0"
     pagecolor="#ffffff"
     fit-margin-top="0"
     inkscape:window-maximized="1"
     inkscape:zoom="1.4"
     inkscape:window-x="-8"
     inkscape:window-height="1025"
     showgrid="false"
     borderopacity="1.0"
     inkscape:current-layer="layer1"
     inkscape:cx="54.343852"
     inkscape:cy="156.26466"
     fit-margin-right="0"
     fit-margin-bottom="0"
     inkscape:window-width="1920"
     inkscape:pageopacity="0.0"
     inkscape:document-units="px" />
  <g
     id="layer1"
     inkscape:label="Layer 1"
     inkscape:groupmode="layer"
     transform="translate(-26.123579,-289.57269)">
    <g
       id="g823"
       transform="matrix(2.4420956,2.4004009,-2.4004009,2.4420956,2130.7229,399.61095)">
      <path
         id="path4890"
         d="m -408.91,358.48 c -0.73228,-0.0466 -1.3614,0.15093 -1.8223,0.39843 -0.46085,0.24749 -0.82997,0.56587 -1.1348,0.91797 -0.60951,0.7042 -0.98454,1.5493 -0.89844,2.3164 0.0543,0.48356 0.3858,1.1797 0.83203,2.0586 0.44623,0.87893 1.0146,1.9048 1.584,2.8828 1.0714,1.8405 2.0044,3.3162 2.125,3.5078 -0.34983,0.2942 -1.4121,1.2438 -1.4121,2.5293 0,0.85949 0.79207,2.0679 1.5449,3.1836 0.5758,0.85337 0.90992,1.2713 1.1484,1.5801 a 0.90962,0.50664 0 0 0 -0.34375,0.14843 c 0,0 -0.75842,0.53252 -1.5059,1.168 -0.37369,0.31772 -0.74523,0.66131 -1.0293,0.99414 -0.28401,0.33283 -0.53862,0.6369 -0.44922,1.0352 0.0553,0.24653 0.2277,0.72965 0.47656,1.4121 0.24891,0.68257 0.56088,1.5335 0.88477,2.3984 0.64778,1.7298 1.3286,3.5372 1.4785,4.0801 -0.006,-0.0204 0.0117,0.18087 0.0117,0.4336 -8e-4,0.25274 -0.005,0.59813 -0.0254,1.0156 -0.0404,0.83507 -0.12415,1.9666 -0.22461,3.293 -0.20092,2.6527 -0.49542,6.0798 -0.80469,9.4707 -0.61855,6.7815 -1.2812,13.412 -1.2812,13.412 a 0.90962,0.50664 0 0 0 0,0.0156 c 0,0 -1.7798,31.325 -1.8476,34.516 -0.0228,1.0724 -0.0856,4.6291 -0.11719,6.5508 h 6.7773 c 0.18328,-3.6521 0.37172,-7.3196 0.57422,-10.965 0.8378,-15.08 1.8963,-29.71 2.7461,-40.604 0.4249,-5.4469 0.80205,-9.9598 1.0684,-13.131 0.13315,-1.5856 0.23138,-2.8362 0.30468,-3.6992 0.0366,-0.43156 0.0724,-0.76008 0.0918,-0.99219 0.009,-0.11604 0.009,-0.20904 0.0137,-0.27344 0.005,-0.0645 0.0117,-0.0717 0.0117,-0.13086 0,-0.33061 -0.19198,-0.60413 -0.42187,-0.95703 -0.2299,-0.35292 -0.52285,-0.73821 -0.81836,-1.1094 -0.42409,-0.53269 -0.64078,-0.77436 -0.84571,-1.0078 0.44597,-0.19532 1.0625,-0.47924 1.5859,-0.625 0.62565,-0.17426 0.83416,-0.44394 1.0684,-0.72851 0.23421,-0.28456 0.42616,-0.61559 0.59375,-0.95508 0.33517,-0.67893 0.56841,-1.4047 0.6875,-1.8027 0.12479,-0.41697 -0.13458,-0.73848 -0.42383,-1.1016 -0.28925,-0.36309 -0.67781,-0.73607 -1.0684,-1.0879 -0.57339,-0.51655 -0.89111,-0.7494 -1.1621,-0.95703 l 0.50196,-0.3164 c 0.14245,-0.0439 0.59166,-0.17953 1.2012,-0.42579 0.34937,-0.14116 0.70727,-0.29929 1.0156,-0.48632 0.3083,-0.18704 0.64844,-0.40182 0.64844,-0.76368 0,-0.2769 -0.12336,-0.5586 -0.27734,-1.0156 -0.15403,-0.45699 -0.35221,-1.0217 -0.55469,-1.5957 -0.20253,-0.57403 -0.40514,-1.1548 -0.55469,-1.6465 -0.14963,-0.49167 -0.23828,-0.91575 -0.23828,-1.0586 0,-0.13047 0.0227,-0.13491 0.0664,-0.16211 0.0437,-0.0272 0.18756,-0.0733 0.43554,-0.13867 0.49591,-0.13082 1.4548,-0.32813 1.9668,-0.89844 0.37192,-0.41433 0.25496,-0.80047 0.11914,-1.2344 -0.13582,-0.43393 -0.38689,-0.90459 -0.64648,-1.3457 -0.51919,-0.88222 -1.123,-1.6543 -1.123,-1.6543 a 0.90962,0.50664 0 0 0 -1.7031,0.043 c 0,0 -0.38332,0.66357 -0.93555,1.2363 -0.27611,0.28636 -0.60201,0.5412 -0.83203,0.6543 -0.092,0.0452 -0.13541,0.0526 -0.15821,0.0586 0.0834,0.0205 -0.20625,-0.19323 -0.33007,-0.61719 -0.12712,-0.43462 -0.17406,-1.0152 -0.16016,-1.582 0.028,-1.1337 0.25195,-2.2129 0.25195,-2.2129 a 0.90962,0.50664 0 0 0 -0.19726,-0.375 c 0,0 -3.5207,-2.4441 -5.3457,-3.3594 -0.31316,-0.157 -0.70975,-0.26883 -1.1211,-0.29492 h -0.002 z"
         inkscape:connector-curvature="0"
         transform="translate(-7.3564e-6)" />
      <path
         id="path3922"
         d="m -409.02,358.98 c -1.479,-0.0941 -2.9742,1.8216 -2.8301,3.1055 0.16475,1.4673 4.6113,8.5293 4.6113,8.5293 0,0 -1.4824,1.1907 -1.4824,2.4746 0,1.2838 2.9648,5.0449 2.9648,5.0449 l -0.82421,0.18359 c 0,0 -2.9635,2.0828 -2.7988,2.8164 0.16463,0.73366 2.5125,6.6926 2.8418,7.8848 0.3293,1.1906 -2.3027,27.729 -2.3027,27.729 0,0 -1.791,31.385 -1.8574,34.508 -0.0188,0.88163 -0.0714,3.9204 -0.0957,5.3906 h 5.0039 c 0.166,-3.2746 0.33227,-6.557 0.51367,-9.8223 1.6758,-30.167 4.2324,-58.52 4.2324,-58.822 0,-0.64848 -2.3281,-3.2422 -2.3281,-3.2422 0,0 1.3968,-0.64881 2.3281,-0.9082 0.93142,-0.2593 1.6304,-2.3351 1.8633,-3.1133 0.23285,-0.77805 -2.9102,-3.1113 -2.9102,-3.1113 l 1.0469,-0.64844 c 10e-6,0 2.5625,-0.77812 2.5625,-1.2969 0,-0.51883 -1.6308,-4.4105 -1.6308,-5.3184 0,-0.90784 1.8639,-0.64763 2.5625,-1.4258 0.69856,-0.77813 -1.6562,-3.8086 -1.6562,-3.8086 0,0 -1.6044,2.7707 -3.2344,2.252 -1.6299,-0.51883 -0.69922,-4.9277 -0.69922,-4.9277 l 0.002,-0.002 c 0,0 -3.6074,-2.4754 -5.2539,-3.3008 -0.20581,-0.10317 -0.41763,-0.15648 -0.62891,-0.16992 z"
         style="fill:url(#linearGradient5395-470-606-749-155-473-817-466-134-201-6-691-779-548-982)"
         inkscape:connector-curvature="0"
         transform="translate(-7.3564e-6)" />
      <path
         id="path3948"
         d="m -400.61,366.82 1.8218,2.7059 c -0.67541,0.17589 -1.3202,0.30982 -1.3202,0.84561 v 0.0515 l -0.13202,0.0221 -2.7591,-3.2499 0.17165,-0.0441 c 0.10865,0.10566 0.23424,0.18801 0.38282,0.23529 0.64951,0.20673 1.2936,-0.11185 1.835,-0.56617 z m -7.4985,1.9927 c 0,0 1.3564,1.5344 4.2376,3.7353 1.1661,0.89074 3.2212,4.081 3.2212,4.081 l -1.5314,1.1544 c 0,0 -3.5299,-3.2582 -4.0661,-4.1838 -0.82322,-1.4214 -1.8614,-4.7869 -1.8614,-4.7869 z m 2.4291,9.3309 c 0,0 2.3246,2.08 3.4588,4.3972 0.23379,0.4776 0.40927,1.4706 0.40927,1.4706 l -1.5578,0.82354 c 0,0 -1.3155,-1.467 -2.1387,-3.1177 -0.48771,-0.97797 -1.0693,-3.2059 -1.0693,-3.2059 l 0.8977,-0.36765 z"
         style="opacity:0.6;fill:#321100"
         inkscape:connector-curvature="0" />
    </g>
  </g>
  <metadata
     id="metadata12">
    <rdf:RDF>
      <cc:Work>
        <dc:format>image/svg+xml</dc:format>
        <dc:type
           rdf:resource="http://purl.org/dc/dcmitype/StillImage" />
        <cc:license
           rdf:resource="http://creativecommons.org/publicdomain/zero/1.0/" />
        <dc:publisher>
          <cc:Agent
             rdf:about="http://openclipart.org/">
            <dc:title>OpenClipart</dc:title>
          </cc:Agent>
        </dc:publisher>
        <dc:title></dc:title>
        <dc:source>https://openclipart.org/detail/193247</dc:source>
        <dc:creator>
          <cc:Agent>
            <dc:title>Magnesus</dc:title>
          </cc:Agent>
        </dc:creator>
        <dc:date>2014-05-04 04:53:33</dc:date>
      </cc:Work>
      <cc:License
         rdf:about="http://creativecommons.org/publicdomain/zero/1.0/">
        <cc:permits
           rdf:resource="http://creativecommons.org/ns#Reproduction" />
        <cc:permits
           rdf:resource="http://creativecommons.org/ns#Distribution" />
        <cc:permits
           rdf:resource="http://creativecommons.org/ns#DerivativeWorks" />
      </cc:License>
    </rdf:RDF>
  </metadata>
</svg>
