<?xml version="1.0" encoding="UTF-8" standalone="no"?>
<!-- Created with Inkscape (http://www.inkscape.org/) -->

<svg
   xmlns:dc="http://purl.org/dc/elements/1.1/"
   xmlns:cc="http://creativecommons.org/ns#"
   xmlns:rdf="http://www.w3.org/1999/02/22-rdf-syntax-ns#"
   xmlns:svg="http://www.w3.org/2000/svg"
   xmlns="http://www.w3.org/2000/svg"
   xmlns:sodipodi="http://sodipodi.sourceforge.net/DTD/sodipodi-0.dtd"
   xmlns:inkscape="http://www.inkscape.org/namespaces/inkscape"
   id="svg2"
   sodipodi:docname="muramasa_01.svg"
   viewBox="0 0 256 255.69247"
   version="1.1"
   inkscape:version="0.92.4 (5da689c313, 2019-01-14)"
   width="256"
   height="255.69247">
  <title
     id="title875">Muramasa</title>
  <defs
     id="defs4">
    <radialGradient
       id="radialGradient4796"
       gradientUnits="userSpaceOnUse"
       cy="275.45999"
       cx="182.49001"
       gradientTransform="matrix(1,0,0,0.090744,0,250.47)"
       r="210.36"
       inkscape:collect="always">
      <stop
         id="stop4792"
         style="stop-color:#ffffff"
         offset="0" />
      <stop
         id="stop4794"
         style="stop-color:#b3b3b3"
         offset="1" />
    </radialGradient>
    <radialGradient
       id="radialGradient4820"
       gradientUnits="userSpaceOnUse"
       cy="272.01999"
       cx="474.45001"
       gradientTransform="matrix(1.0036,0,0,0.24447,-1.7797,205.16)"
       r="75.447998"
       inkscape:collect="always">
      <stop
         id="stop4816"
         style="stop-color:#696969"
         offset="0" />
      <stop
         id="stop4818"
         style="stop-color:#3f3f3f"
         offset="1" />
    </radialGradient>
    <radialGradient
       id="radialGradient4886"
       gradientUnits="userSpaceOnUse"
       cy="444.51001"
       cx="206.53999"
       gradientTransform="matrix(1,0,0,0.095015,-10,299.42)"
       r="229.58"
       inkscape:collect="always">
      <stop
         id="stop4882"
         style="stop-color:#535353"
         offset="0" />
      <stop
         id="stop4884"
         style="stop-color:#262626"
         offset="1" />
    </radialGradient>
  </defs>
  <sodipodi:namedview
     id="base"
     bordercolor="#666666"
     inkscape:pageshadow="2"
     inkscape:window-y="-8"
     pagecolor="#ffffff"
     inkscape:window-height="1025"
     inkscape:window-maximized="1"
     inkscape:zoom="1.979899"
     inkscape:window-x="-8"
     showgrid="false"
     borderopacity="1.0"
     inkscape:current-layer="svg2"
     inkscape:cx="106.14395"
     inkscape:cy="191.8518"
     inkscape:window-width="1920"
     inkscape:pageopacity="0.0"
     inkscape:document-units="px"
     inkscape:pagecheckerboard="true"
     fit-margin-top="0"
     fit-margin-left="0"
     fit-margin-right="0"
     fit-margin-bottom="0" />
  <g
     id="g4892"
     transform="matrix(-0.4400662,0.42218738,0.42218738,0.4400662,134.25016,-98.501942)">
    <g
       id="g929"
       inkscape:label="sheath"
       style="display:none">
      <path
         inkscape:connector-curvature="0"
         style="fill:url(#radialGradient4886)"
         d="M 209.91,363.04 C 174.45,362 102.92,354.88 19.54,344.08 c -54.64,-7.0737 -52.574,-6.5437 -52.574,-13.489 0,-3.1752 2.4274,-9.8345 3.9109,-10.729 0.34913,-0.21053 6.9987,0.69655 14.777,2.0157 7.7782,1.3192 30.734,4.0054 51.013,5.9693 20.279,1.964 49.598,4.916 65.155,6.5602 74.137,7.8356 89.974,8.9489 145.97,10.262 44.223,1.0371 55.182,0.94127 112.58,-0.98441 34.972,-1.1733 63.689,-2.0303 63.815,-1.9045 0.2956,0.2956 2.1585,19.329 1.9235,19.653 -1.0314,1.4209 -177.61,2.7272 -216.2,1.5993 z"
         id="path4878" />
      <path
         d="m 424.08,341.42 c -0.1278,0.39871 -0.27225,0.79104 -0.38797,1.1938 -0.17346,0.64968 -0.35139,1.2976 -0.49452,1.9548 -0.14039,0.75501 -0.28869,1.5086 -0.42401,2.2646 -0.12228,0.72886 -0.28473,1.45 -0.41781,2.177 -0.12712,0.70295 -0.21832,1.4115 -0.29913,2.1211 -0.092,0.72761 -0.0341,1.4637 0.0406,2.1901 0.0713,0.70005 0.1948,1.3934 0.34008,2.0815 0.11322,0.63099 0.31748,1.2384 0.5091,1.8484 0.17019,0.57422 0.36546,1.1407 0.57167,1.7029 0.20532,0.51424 0.43636,1.018 0.73126,1.4872 0.28071,0.44112 0.59151,0.86317 0.91681,1.2723 0.22749,0.25447 0.1097,0.13132 0.35334,0.36951 l -0.30394,0.18668 c -0.24523,-0.24084 -0.12667,-0.11641 -0.35563,-0.3733 -0.32585,-0.41041 -0.63755,-0.8334 -0.9188,-1.2757 -0.29606,-0.47138 -0.52853,-0.9772 -0.73491,-1.4937 -0.20643,-0.56269 -0.40221,-1.1296 -0.57246,-1.7044 -0.19185,-0.61099 -0.3972,-1.2193 -0.51068,-1.8514 -0.14576,-0.68916 -0.27007,-1.3836 -0.34181,-2.0848 -0.0755,-0.72852 -0.13494,-1.467 -0.0441,-2.1969 0.0805,-0.71024 0.17135,-1.4196 0.29807,-2.1232 0.1326,-0.72705 0.29523,-1.4482 0.41792,-2.1769 0.13503,-0.75641 0.2841,-1.5102 0.42338,-2.2658 0.14224,-0.65803 0.32032,-1.3064 0.49343,-1.9568 0.11424,-0.40241 0.25513,-0.79498 0.38886,-1.191 l 0.32125,-0.15578 z"
         inkscape:connector-curvature="0"
         style="fill:#000000"
         id="path4888" />
      <path
         inkscape:connector-curvature="0"
         style="fill:#000000"
         d="m 424.5,360.5 c -0.75434,-1.07 -1.9258,-4.9104 -2.194,-7.193 -0.2282,-1.9416 1.0849,-10.048 1.6879,-10.421 0.1748,-0.10803 0.31782,0.0148 0.31782,0.27299 0,0.25817 0.31937,3.5221 0.70971,7.2532 0.77872,7.4434 0.89964,10.891 0.38197,10.891 -0.18529,0 -0.59182,-0.36161 -0.9034,-0.80357 z"
         id="path4890" />
    </g>
    <g
       id="g976"
       inkscape:label="sword">
      <path
         inkscape:connector-curvature="0"
         style="fill:none;stroke:#b3b3b3;stroke-width:1px"
         sodipodi:nodetypes="cccccc"
         d="m 393.45,270.7 c -135.07,7.8983 -294.32,11.134 -410.63,-12.122 -13.637,-4.0406 -14.142,-4.5457 -14.142,-4.5457 0,0 10.607,14.142 17.173,16.162 142.46,30.073 259.57,27.892 394.46,21.213 l 14.142,-0.50508"
         id="path4712" />
      <path
         inkscape:connector-curvature="0"
         style="fill:none;stroke:#999999;stroke-width:1px"
         sodipodi:nodetypes="ccssscc"
         d="m 391.94,269.69 c 0,0 1.0102,-8.0812 3.0305,-10.607 2.0203,-2.5254 3.0304,6.0609 4.0406,14.142 1.0102,8.0812 0.50507,26.264 -1.0102,29.8 -1.5152,3.5355 -4.0406,-1.0102 -4.0406,-1.0102 l -1.0102,-33.84"
         id="path4714" />
      <path
         inkscape:connector-curvature="0"
         style="fill:none;stroke:#414141;stroke-width:1px"
         sodipodi:nodetypes="cscsssc"
         d="m 398.51,268.17 c 0,0 116.17,-6.0609 132.84,-11.112 16.668,-5.0508 17.173,-2.5254 17.173,-2.5254 0,0 1.9897,3.5355 1.4846,12.627 -0.50508,9.0914 1.0408,9.8617 -1.4846,9.8617 -2.5254,0 -127.28,12.867 -137.38,12.867 h -10.102"
         id="path4716" />
      <path
         inkscape:connector-curvature="0"
         style="display:inline;fill:url(#radialGradient4796)"
         d="m 200.16,294.29 c -37.428,-0.88394 -83.66,-4.4035 -121.98,-9.2858 -35.015,-4.4616 -89.888,-14.165 -94.075,-16.635 -4.0135,-2.368 -13.118,-11.567 -11.863,-11.986 0.27214,-0.0907 2.6275,0.5144 5.2341,1.3447 2.6066,0.8303 9.7396,2.4221 15.851,3.5373 88.783,16.201 210.5,20.031 370.98,11.673 15.14,-0.78858 27.64,-1.323 27.779,-1.1876 0.1389,0.13537 0.36618,4.3024 0.50508,9.2601 l 0.25253,9.0139 -4.5457,0.2848 c -9.9645,0.62429 -66.089,2.8718 -89.43,3.5812 -21.685,0.65908 -78.068,0.88759 -98.711,0.40005 z"
         id="path4718" />
      <path
         d="m -17.813,266.51 c 0.84518,0.0787 1.6855,0.20755 2.5292,0.3034 1.1112,0.12494 2.2266,0.20448 3.3423,0.2752 1.1219,0.0953 2.2471,0.079 3.3714,0.0621 1.3023,0.0323 2.5843,0.26883 3.8542,0.54075 1.2162,0.2478 2.4204,0.54863 3.6323,0.81602 1.2317,0.25382 2.4766,0.43519 3.7227,0.60095 1.1711,0.18751 2.3422,0.37383 3.5174,0.53393 1.1665,0.15113 2.3377,0.26121 3.51,0.35602 1.216,0.0949 2.4342,0.15829 3.6525,0.21701 1.1158,0.0622 2.2341,0.0199 3.3505,-0.006 1.1069,-0.0406 2.2035,-0.20129 3.3015,-0.33604 1.082,-0.13984 2.166,-0.24455 3.2564,-0.2793 1.0086,-0.0415 1.9896,0.15827 2.9623,0.39694 0.88507,0.23347 1.7328,0.57233 2.555,0.9709 0.84182,0.37932 1.6368,0.85183 2.4465,1.2935 0.81025,0.47603 1.6165,0.95669 2.4584,1.375 0.95738,0.48935 1.9607,0.88382 2.9685,1.2556 1.1707,0.38861 2.3346,0.79797 3.5119,1.1665 1.1075,0.34985 2.2436,0.59234 3.3828,0.81158 1.11,0.20843 2.2288,0.36397 3.3502,0.49593 1.2067,0.13408 2.4178,0.22155 3.6291,0.30104 1.3787,0.0439 2.7586,0.0244 4.1377,0.0174 1.5998,-0.009 3.1997,-0.0159 4.7995,-0.0214 1.7084,-0.006 3.4167,-0.01 5.1251,-0.0139 1.5226,-0.0604 3.0322,0.0377 4.5335,0.28922 1.4686,0.26664 2.9185,0.63097 4.3494,1.0536 1.313,0.41486 2.6279,0.82013 3.9619,1.1626 1.2953,0.3162 2.5873,0.64383 3.8901,0.92832 1.281,0.2687 2.5773,0.45369 3.8742,0.62517 1.2599,0.16333 2.5253,0.27935 3.7914,0.38115 1.3429,0.10322 2.688,0.17063 4.0334,0.23139 1.2821,0.0778 2.5643,0.0887 3.8479,0.064 1.1374,-0.0147 2.2732,-0.0456 3.404,-0.17365 1.0803,-0.12426 2.1537,-0.29266 3.227,-0.46522 1.171,-0.22282 2.3395,-0.45765 3.5137,-0.66304 1.3125,-0.22526 2.6328,-0.39995 3.9548,-0.55757 1.2689,-0.16738 2.5485,-0.22544 3.8275,-0.2182 1.277,-0.032 2.5114,0.28075 3.7299,0.62192 1.1593,0.32402 2.2533,0.82993 3.3244,1.3711 1.0221,0.52692 2.0001,1.1306 3.0364,1.6308 1.2342,0.58818 2.4967,1.1105 3.7794,1.5824 1.1808,0.43412 2.3892,0.77544 3.6223,1.0204 1.2211,0.20396 2.4581,0.22945 3.6928,0.23703 1.2247,-0.0357 2.4486,-0.0989 3.6653,-0.24465 1.3487,-0.16922 2.6923,-0.37421 4.0377,-0.56713 1.5005,-0.22329 2.998,-0.45785 4.5061,-0.62563 1.7839,-0.17328 3.5694,-0.34122 5.3599,-0.42719 1.545,-0.0739 3.0926,-0.0601 4.6366,0.0266 1.3306,0.062 2.6436,0.28929 3.9567,0.49747 1.4156,0.30821 2.8373,0.58337 4.2649,0.82963 1.4096,0.24214 2.829,0.41876 4.2502,0.57545 1.3315,0.14328 2.6661,0.25504 4.0017,0.35122 1.381,0.10031 2.7642,0.16305 4.1477,0.2131 1.6167,0.0539 3.2339,0.093 4.8511,0.12949 1.4936,0.0316 2.9897,10e-4 4.4815,-0.0774 1.5771,-0.0744 3.1474,-0.22894 4.7139,-0.42138 1.6514,-0.21565 3.3096,-0.36985 4.9691,-0.50586 2.0039,-0.15459 4.0114,-0.2576 6.0207,-0.30096 2.1977,-0.004 4.3945,0.12695 6.5807,0.34487 2.249,0.23803 4.4627,0.70851 6.6704,1.1854 2.052,0.41394 4.0886,0.8969 6.133,1.3456 1.8444,0.40193 3.7014,0.74019 5.5647,1.0409 1.6621,0.2587 3.3314,0.46742 5.0045,0.64013 1.6403,0.1905 3.2912,0.19195 4.9395,0.17545 1.7484,-0.006 3.4924,-0.16641 5.2316,-0.33275 1.9037,-0.17257 3.7929,-0.46164 5.6771,-0.77785 1.8666,-0.337 3.7204,-0.74201 5.5698,-1.1625 1.7221,-0.3956 3.449,-0.76586 5.1851,-1.0943 1.6147,-0.30602 3.2423,-0.53527 4.8729,-0.73671 1.5388,-0.20754 3.086,-0.30983 4.6363,-0.37271 1.5106,-0.0241 3.0208,0.0875 4.5208,0.25793 1.586,0.18239 3.1663,0.40488 4.746,0.63446 1.4467,0.21389 2.8998,0.38007 4.3543,0.53154 1.4071,0.13769 2.8095,0.31864 4.2158,0.46554 1.4813,0.14694 2.9666,0.24815 4.452,0.34256 1.4235,0.0903 2.8486,0.15269 4.2738,0.20953 1.3436,0.011 2.6885,0.003 4.031,-0.0572 1.3626,-0.063 2.7188,-0.21785 4.0682,-0.41189 1.2292,-0.1888 2.4343,-0.4959 3.6413,-0.78954 1.245,-0.27512 2.4691,-0.6318 3.6984,-0.96751 1.3822,-0.36485 2.7942,-0.57214 4.2175,-0.68098 1.4448,-0.0986 2.8764,0.0271 4.2868,0.3395 1.7032,0.54191 3.3774,1.169 5.0751,1.7282 1.5395,0.49682 3.1074,0.89498 4.6857,1.246 1.3972,0.28115 2.8213,0.37716 4.2432,0.41262 1.2992,0.019 2.5821,-0.206 3.8547,-0.44031 1.2372,-0.24386 2.4396,-0.63572 3.6188,-1.0772 1.1517,-0.42831 2.2814,-0.91181 3.4226,-1.3669 1.2581,-0.49201 2.5662,-0.82956 3.8774,-1.1443 1.4158,-0.33233 2.847,-0.58146 4.2914,-0.74556 1.3178,-0.11791 2.6426,-0.0593 3.9596,0.0359 1.2622,0.11253 2.4968,0.40417 3.7102,0.75905 1.324,0.41974 2.6556,0.81102 4.0097,1.1211 1.3918,0.30842 2.7994,0.53154 4.2163,0.68259 1.2434,0.16995 2.4913,0.0848 3.7304,-0.0672 1.1795,-0.19039 2.3327,-0.51938 3.4716,-0.875 1.0897,-0.37056 2.1494,-0.8188 3.2349,-1.2012 1.075,-0.40973 2.1633,-0.77963 3.2889,-1.0209 1.3303,-0.21304 2.6837,-0.18786 4.0233,-0.0964 1.2185,0.0716 2.4222,0.26384 3.6215,0.48152 1.1308,0.20753 2.2673,0.37675 3.3961,0.59479 0.1756,0.0335 0.3512,0.067 0.5268,0.10045 l -0.41337,0.28858 c -0.17562,-0.0335 -0.35123,-0.067 -0.52685,-0.10054 -1.1287,-0.21741 -2.2653,-0.38593 -3.3957,-0.59438 -1.1981,-0.2168 -2.401,-0.40602 -3.6182,-0.47695 -1.3372,-0.0882 -2.6883,-0.11275 -4.015,0.10783 -1.1235,0.24667 -2.2105,0.6175 -3.2851,1.026 -1.0849,0.38418 -2.1448,0.83302 -3.236,1.1997 -1.141,0.35328 -2.2952,0.68341 -3.4771,0.86772 -1.2417,0.14887 -2.4916,0.22928 -3.737,0.0578 -1.418,-0.15294 -2.8268,-0.3779 -4.2196,-0.68755 -1.3544,-0.31203 -2.6863,-0.70457 -4.0114,-1.1234 -1.2117,-0.35158 -2.4441,-0.64165 -3.7042,-0.75024 -1.3152,-0.0937 -2.6384,-0.15011 -3.954,-0.0284 -1.4432,0.1662 -2.8732,0.41727 -4.2876,0.75044 -1.3101,0.3159 -2.6168,0.65564 -3.8732,1.1502 -1.1408,0.45619 -2.2713,0.93812 -3.4232,1.3659 -1.1813,0.43899 -2.385,0.82975 -3.6241,1.0701 -1.2746,0.23349 -2.5598,0.45484 -3.8609,0.43189 -1.4239,-0.0374 -2.85,-0.13624 -4.2487,-0.4207 -1.5793,-0.35239 -3.1481,-0.75198 -4.6884,-1.2502 -1.6962,-0.55954 -3.3685,-1.1882 -5.0723,-1.7238 -1.4082,-0.30652 -2.8369,-0.42936 -4.2781,-0.32746 -1.4215,0.11213 -2.8318,0.32142 -4.2119,0.68872 -1.2293,0.33633 -2.4543,0.69053 -3.6992,0.96637 -1.2075,0.2942 -2.414,0.59888 -3.6442,0.78566 -1.3504,0.19299 -2.7077,0.3459 -4.0711,0.40787 -1.3433,0.0578 -2.689,0.068 -4.0334,0.0538 -1.4254,-0.0571 -2.8507,-0.1198 -4.2745,-0.21053 -1.4858,-0.0948 -2.9715,-0.19642 -4.4532,-0.3442 -1.4062,-0.14737 -2.8086,-0.32823 -4.2158,-0.46552 -1.4548,-0.15205 -2.9082,-0.31895 -4.3553,-0.53327 -1.5793,-0.2296 -3.1594,-0.45105 -4.7451,-0.63318 -1.4986,-0.16818 -3.0074,-0.27932 -4.5164,-0.2516 -1.5495,0.0637 -3.0958,0.16862 -4.6338,0.37597 -1.63,0.20233 -3.2569,0.43246 -4.8709,0.73923 -1.7357,0.32923 -3.4621,0.70047 -5.184,1.0958 -1.8498,0.42016 -3.7041,0.8245 -5.5714,1.1601 -1.8848,0.31586 -3.775,0.60277 -5.6793,0.77501 -1.7402,0.16519 -3.485,0.32477 -5.2343,0.32943 -1.6495,0.0158 -3.3015,0.0112 -4.9428,-0.18009 -1.6736,-0.17364 -3.3435,-0.38289 -5.0061,-0.64253 -1.8638,-0.3016 -3.7213,-0.64077 -5.5662,-1.0434 -2.0441,-0.44935 -4.081,-0.93078 -6.1328,-1.3455 -2.2065,-0.47622 -4.4193,-0.94481 -6.6672,-1.1806 -2.1851,-0.21598 -4.3806,-0.34692 -6.577,-0.34001 -2.0089,0.0449 -4.0158,0.14806 -6.0193,0.30367 -1.6592,0.13661 -3.3169,0.2919 -4.968,0.50754 -1.5673,0.19167 -3.1384,0.34427 -4.7161,0.41862 -1.4926,0.0764 -2.9894,0.10758 -4.4837,0.0743 -1.6173,-0.0366 -3.2346,-0.0759 -4.8515,-0.13007 -1.384,-0.0504 -2.7676,-0.11366 -4.149,-0.21443 -1.336,-0.0968 -2.6709,-0.2089 -4.0028,-0.35282 -1.4218,-0.15743 -2.8418,-0.335 -4.252,-0.57799 -1.4274,-0.24692 -2.8485,-0.52417 -4.2646,-0.82899 -1.312,-0.20818 -2.6242,-0.43256 -3.9537,-0.49334 -1.543,-0.0842 -3.0894,-0.0978 -4.6333,-0.0225 -1.7898,0.0883 -3.5749,0.25477 -5.358,0.42973 -1.5077,0.16938 -3.0049,0.40483 -4.5054,0.62705 -1.3456,0.1933 -2.6895,0.39781 -4.0386,0.5662 -1.2181,0.14299 -2.4432,0.20706 -3.6691,0.23964 -1.2366,-0.009 -2.4759,-0.0367 -3.6983,-0.24484 -1.2346,-0.24767 -2.4443,-0.59175 -3.6266,-1.027 -1.2835,-0.47354 -2.547,-0.99721 -3.7822,-1.5865 -1.0355,-0.50221 -2.0142,-1.1054 -3.037,-1.6315 -1.0695,-0.53849 -2.1614,-1.0421 -3.3189,-1.363 -1.2161,-0.33922 -2.4483,-0.645 -3.7221,-0.6109 -1.2779,-0.004 -2.556,0.0549 -3.8238,0.22321 -1.3215,0.15825 -2.6412,0.33357 -3.9531,0.55974 -1.1742,0.2065 -2.3428,0.44217 -3.5143,0.6626 -1.0737,0.17273 -2.1478,0.33937 -3.2285,0.46327 -1.1319,0.12436 -2.2686,0.15513 -3.4067,0.16986 -1.2842,0.024 -2.567,0.0102 -3.8497,-0.0667 -1.3457,-0.0611 -2.6913,-0.12888 -4.0345,-0.23278 -1.2667,-0.10247 -2.5326,-0.21903 -3.7929,-0.38326 -1.2978,-0.17233 -2.595,-0.35824 -3.8767,-0.62862 -1.303,-0.28544 -2.5955,-0.61324 -3.8911,-0.92988 -1.3341,-0.3439 -2.6491,-0.75014 -3.9629,-1.164 -1.43,-0.42043 -2.8783,-0.78455 -4.3458,-1.0486 -1.5,-0.24732 -3.0079,-0.34155 -4.5286,-0.28241 -1.7083,0.004 -3.4167,0.008 -5.125,0.0139 -1.5999,0.006 -3.1998,0.0127 -4.7997,0.0216 -1.3799,0.007 -2.7607,0.0274 -4.14,-0.0201 -1.2119,-0.0799 -2.4235,-0.16796 -3.6307,-0.30313 -1.1221,-0.13302 -2.2416,-0.28931 -3.3523,-0.49894 -1.1404,-0.22057 -2.2775,-0.46494 -3.3861,-0.81629 -1.1776,-0.36966 -2.3425,-0.77827 -3.5132,-1.1686 -1.0089,-0.37351 -2.0133,-0.76896 -2.9717,-1.26 -0.84164,-0.42002 -1.648,-0.90154 -2.4594,-1.3766 -0.80878,-0.44184 -1.6039,-0.91247 -2.4451,-1.2914 -0.82059,-0.39516 -1.6661,-0.73205 -2.5491,-0.96216 -0.97013,-0.23654 -1.9491,-0.4299 -2.9543,-0.38579 -1.0894,0.0366 -2.1725,0.14382 -3.2537,0.2829 -1.0988,0.13506 -2.1966,0.29442 -3.3045,0.33203 -1.117,0.0253 -2.236,0.0662 -3.3525,0.003 -1.2186,-0.059 -2.4371,-0.12277 -3.6534,-0.21834 -1.1728,-0.0955 -2.3446,-0.20605 -3.5116,-0.35825 -1.1751,-0.16074 -2.3459,-0.34808 -3.5172,-0.53384 -1.247,-0.16662 -2.4928,-0.34876 -3.7252,-0.60443 -1.2116,-0.26805 -2.4159,-0.56803 -3.632,-0.8158 -1.2676,-0.27029 -2.5479,-0.50431 -3.8478,-0.53137 -1.1251,0.0165 -2.251,0.0299 -3.3736,-0.0654 -1.1163,-0.0712 -2.2322,-0.15147 -3.3439,-0.27718 -0.84246,-0.0964 -1.6816,-0.22813 -2.5264,-0.29839 l 0.40838,-0.2967 z"
         inkscape:connector-curvature="0"
         style="display:inline;fill:#b3b3b3;fill-opacity:0.61961"
         id="path4754" />
      <path
         inkscape:connector-curvature="0"
         style="fill:#f9f9f9;fill-opacity:0.61961"
         d="m 175.67,293.1 c -4.1669,-0.20319 -10.452,-0.50574 -13.967,-0.67234 -3.5152,-0.16659 -6.6972,-0.39668 -7.0711,-0.5113 -0.87909,-0.26952 -20.534,-1.5299 -24.166,-1.5497 -1.5278,-0.008 -2.8916,-0.14507 -3.0304,-0.30391 -0.1389,-0.15884 -3.1596,-0.52793 -6.7128,-0.8202 -3.5531,-0.29227 -6.592,-0.66322 -6.7532,-0.82434 -0.50544,-0.50544 -1.5016,-5.5975 -1.2882,-6.5852 0.32915,-1.524 4.62,-0.87631 9.4508,1.4266 8.5413,4.0717 11.969,4.5433 22.223,3.0575 6.9633,-1.0089 13.758,-0.94024 21.076,0.2129 3.409,0.53718 8.5846,1.1278 11.501,1.3125 4.8786,0.30889 5.4246,0.4488 6.8185,1.7472 0.83338,0.77631 2.6516,1.9934 4.0406,2.7046 l 2.5254,1.2931 -3.5355,-0.0591 c -1.9446,-0.0325 -6.9448,-0.22529 -11.112,-0.42847 z"
         id="path4756" />
      <path
         inkscape:connector-curvature="0"
         style="fill:#f9f9f9;fill-opacity:0.61961"
         d="m 237.8,294.14 -46.467,-0.25254 -2.2515,-1.2002 c -1.2383,-0.66011 -3.3662,-1.967 -4.7286,-2.9042 l -2.4772,-1.704 h 2.2264 c 1.2245,0 6.1151,-0.34147 10.868,-0.75881 10.053,-0.88279 14.055,-0.60556 25.506,1.767 14.178,2.9377 20.71,2.9299 35.104,-0.0416 10.465,-2.1603 14.31,-2.3104 24.899,-0.97192 12.862,1.6258 21.424,1.5803 28.627,-0.15207 7.6378,-1.837 7.7389,-1.8286 7.7389,0.63869 0,1.0981 -0.24809,2.541 -0.55131,3.2065 -0.53264,1.169 -0.79353,1.2211 -7.7024,1.5372 -3.9331,0.17994 -10.335,0.32799 -14.226,0.329 -3.8909,10e-4 -7.7548,0.17231 -8.5863,0.38066 -0.83154,0.20834 -22.422,0.26516 -47.979,0.12627 z"
         id="path4758" />
      <path
         inkscape:connector-curvature="0"
         style="fill:#f9f9f9;fill-opacity:0.61961"
         d="m 316.21,293.24 c -0.78455,-0.16375 -0.79864,-0.26876 -0.12627,-0.94113 0.46762,-0.46762 0.75681,-1.708 0.75681,-3.2461 0,-2.2437 0.11197,-2.4893 1.1347,-2.4893 0.62408,0 2.8401,0.55584 4.9245,1.2352 2.0844,0.67936 4.7748,1.4887 5.9786,1.7986 1.6315,0.41994 2.1137,0.75896 1.894,1.3315 -0.16211,0.42245 -0.29474,0.97679 -0.29474,1.2319 0,0.25507 -2.1024,0.47367 -4.672,0.48576 -2.5696,0.0121 -5.5811,0.19209 -6.6923,0.39997 -1.1112,0.20789 -2.4177,0.29504 -2.9034,0.19367 z"
         id="path4760" />
      <path
         inkscape:connector-curvature="0"
         style="fill:#f9f9f9;fill-opacity:0.61961"
         d="m 346.84,291.32 c 0.16862,-0.43941 0.30657,-1.663 0.30657,-2.719 0,-1.4953 0.22348,-1.9785 1.0102,-2.1842 0.90805,-0.23747 1.0102,-0.0155 1.0102,2.1962 0,1.9155 -0.21633,2.5761 -0.97695,2.9832 -1.3571,0.72628 -1.7071,0.65469 -1.3499,-0.27607 z"
         id="path4762" />
      <path
         inkscape:connector-curvature="0"
         style="fill:#f9f9f9;fill-opacity:0.61961"
         d="m 330.87,291.3 c 0.21119,-1.1048 0.47003,-1.1984 3.3268,-1.2031 2.219,-0.004 4.5073,-0.4975 8.066,-1.7408 l 4.9682,-1.7357 -0.35333,2.6247 c -0.19434,1.4436 -0.38446,2.6522 -0.4225,2.6858 -0.038,0.0336 -3.6118,0.17493 -7.9417,0.31408 l -7.8725,0.25302 0.22901,-1.198 z"
         id="path4764" />
      <path
         inkscape:connector-curvature="0"
         style="fill:#f9f9f9;fill-opacity:0.61961"
         d="m 351.95,291.72 -3.0305,-0.14634 0.16986,-2.7034 c 0.16066,-2.557 0.25301,-2.7201 1.7046,-3.0104 2.9268,-0.58536 7.2563,-0.30191 10.763,0.70469 1.9385,0.5564 5.3997,1.1584 7.6915,1.3377 3.8703,0.30286 4.1669,0.40591 4.1669,1.4477 0,1.3833 -1.6577,1.7289 -8.5863,1.7901 -2.639,0.0233 -5.9346,0.1963 -7.3236,0.38437 -1.389,0.18806 -3.8891,0.27608 -5.5558,0.1956 z"
         id="path4766" />
      <path
         inkscape:connector-curvature="0"
         style="fill:#f9f9f9;fill-opacity:0.61961"
         d="m 373.31,289.12 c -0.17474,-1.1906 -0.0355,-1.5441 0.608,-1.5441 0.45905,0 2.4084,-0.54849 4.3319,-1.2189 5.0145,-1.7476 6.5957,-1.9439 10.554,-1.3101 1.9365,0.31009 3.5989,0.6417 3.6941,0.73692 0.0952,0.0952 0.19266,0.86048 0.21655,1.7006 0.076,2.6739 -0.53895,2.855 -10.274,3.0246 l -8.9036,0.15514 -0.22662,-1.5441 z"
         id="path4768" />
      <path
         inkscape:connector-curvature="0"
         style="fill:#f9f9f9;fill-opacity:0.61961"
         d="m 93.852,286.56 c -19.249,-2.2245 -45.529,-5.8876 -52.907,-7.3745 -1.0419,-0.20999 -1.389,-0.57657 -1.389,-1.4672 0,-1.1105 0.10619,-1.1533 1.6415,-0.66232 0.90282,0.28874 7.4372,0.69981 14.521,0.91348 12.544,0.37837 13.059,0.43548 19.753,2.1922 11.209,2.9416 19.513,3.3722 30.25,1.5688 5.3752,-0.90289 7.1124,-0.92662 6.8113,-0.093 -0.12544,0.34724 0.0705,2.0519 0.43533,3.7881 l 0.66342,3.1567 -1.5559,-0.048 c -0.85575,-0.0264 -9.0563,-0.91484 -18.223,-1.9742 z"
         id="path4770" />
      <path
         inkscape:connector-curvature="0"
         style="fill:#f2f2f2;fill-opacity:0.61961"
         d="m 27.181,276.97 c -24.3,-4.1926 -40.242,-7.5256 -42.679,-8.9229 -1.14,-0.65375 -0.772,-0.69824 3.7881,-0.45795 2.7779,0.14638 7.3535,0.71983 10.168,1.2743 7.8021,1.5372 15.63,2.141 20.533,1.584 5.0872,-0.57805 6.7008,-0.25677 11.825,2.3544 2.1678,1.1047 5.0211,2.4123 6.3406,2.9058 1.9325,0.72283 2.3991,1.1296 2.3991,2.0914 0,0.65674 -0.28411,1.1702 -0.63135,1.141 -0.34724,-0.0292 -5.6316,-0.91576 -11.743,-1.9702 z"
         id="path4772" />
      <path
         inkscape:connector-curvature="0"
         style="fill:#f2f2f2;fill-opacity:0.61961"
         d="m 36.213,278.39 c -0.1588,-0.25694 -0.7784,-0.41995 -1.3769,-0.36224 -0.5985,0.0577 -1.4291,-0.0192 -1.8458,-0.17096 -0.41669,-0.15174 -5.4169,-1.1136 -11.112,-2.1375 -16.532,-2.9723 -32.409,-6.2165 -34.598,-7.0691 -2.0124,-0.784 -2.0026,-0.78604 2.5254,-0.52245 2.5001,0.14555 7.2731,0.75053 10.607,1.3444 4.6326,0.82532 8.3224,1.096 15.657,1.1485 l 9.5964,0.0688 5.8084,2.6736 c 6.6222,3.0482 8.2226,3.982 7.8522,4.5813 -0.39386,0.63728 -2.7844,0.97935 -3.1143,0.44563 z"
         id="path4774" />
      <path
         inkscape:connector-curvature="0"
         style="fill:#f2f2f2;fill-opacity:0.61961"
         d="m 112.43,288.52 c -0.30317,-0.30317 -1.5949,-0.46821 -2.8705,-0.36675 -1.2756,0.10145 -2.3193,-0.0105 -2.3193,-0.24885 0,-0.23831 -1.0222,-0.352 -2.2717,-0.25263 -1.2494,0.0994 -2.329,0.0173 -2.3991,-0.18236 -0.0701,-0.19966 -1.9457,-0.46881 -4.1681,-0.5981 -2.2223,-0.12929 -4.3815,-0.34544 -4.7982,-0.48034 -1.6621,-0.5381 -26.361,-3.4348 -27.046,-3.172 -0.4035,0.15484 -0.73364,0.0365 -0.73364,-0.26295 0,-0.32486 -0.71305,-0.46124 -1.7678,-0.33811 -0.97227,0.11351 -1.7678,-1.3e-4 -1.7678,-0.25254 0,-0.2524 -0.7955,-0.36604 -1.7678,-0.25253 -0.97227,0.1135 -1.7678,-1.4e-4 -1.7678,-0.25254 0,-0.25241 -0.7955,-0.36605 -1.7678,-0.25254 -0.97227,0.11351 -1.7678,-1.4e-4 -1.7678,-0.25254 0,-0.2524 -0.79191,-0.36646 -1.7598,-0.25347 -0.96789,0.113 -1.8202,0.0644 -1.894,-0.10806 -0.07383,-0.17244 -2.5084,-0.70368 -5.4101,-1.1806 -2.9017,-0.47687 -5.5698,-1.111 -5.9291,-1.4091 -0.88854,-0.73742 -0.2947,-1.5488 0.86431,-1.181 0.51619,0.16383 7.1451,0.61139 14.731,0.99457 12.154,0.6139 14.573,0.88114 20.358,2.249 10.451,2.4706 16.813,2.9312 26.102,1.8895 10.836,-1.2151 9.8124,-1.4801 10.522,2.7243 0.62636,3.7135 0.55577,4.3669 -0.37158,3.4396 z"
         id="path4776" />
      <path
         inkscape:connector-curvature="0"
         style="fill:#f2f2f2;fill-opacity:0.61961"
         d="m 112.2,288.7 c -0.0932,-0.21884 -4.7151,-0.89946 -10.271,-1.5125 -22.671,-2.5016 -52.262,-6.546 -58.463,-7.9907 -5.3454,-1.2454 -4.2805,-1.8712 2.5254,-1.484 17.433,0.99173 25.43,1.803 32.353,3.2822 9.5337,2.0368 15.606,2.3593 24.904,1.3223 4.0594,-0.45272 7.7419,-0.68456 8.1833,-0.51519 0.49905,0.1915 0.92315,1.1981 1.1217,2.6623 0.17558,1.2949 0.42302,2.733 0.54987,3.1958 0.23152,0.84464 -0.58625,1.7856 -0.90375,1.0399 z"
         id="path4778" />
      <path
         inkscape:connector-curvature="0"
         style="fill:#f2f2f2;fill-opacity:0.61961"
         d="m 165.48,292.48 c -0.14002,-0.22227 -1.8819,-0.39943 -3.8709,-0.39369 -1.989,0.006 -7.1392,-0.29817 -11.445,-0.67537 -4.3058,-0.3772 -11.124,-0.85904 -15.152,-1.0708 -8.8448,-0.4649 -14.26,-1.0398 -21.064,-2.2361 -0.0569,-0.01 -0.24264,-0.8705 -0.41284,-1.9122 -0.17021,-1.0417 -0.42585,-2.5191 -0.5681,-3.283 -0.24903,-1.3374 -0.17917,-1.389 1.8816,-1.389 1.4302,0 4.2501,0.87378 8.5002,2.6339 l 6.36,2.6339 6.3134,-0.0143 c 3.4724,-0.008 10.064,-0.19312 14.647,-0.41169 7.3935,-0.35258 9.616,-0.2478 19.698,0.92858 11.079,1.2928 11.428,1.3684 13.89,3.0185 1.389,0.93086 2.98,1.9549 3.5355,2.2756 0.7803,0.45046 -1.6143,0.55091 -10.524,0.44145 -6.3436,-0.0779 -11.648,-0.32355 -11.788,-0.54583 z"
         id="path4780" />
      <path
         inkscape:connector-curvature="0"
         style="fill:#f2f2f2;fill-opacity:0.61961"
         d="m 262.79,294.47 c -0.13625,-0.13624 -16.344,-0.39712 -36.018,-0.57972 -39.851,-0.36987 -35.36,0.0537 -41.658,-3.9291 l -2.6818,-1.6959 11.343,-0.66127 c 12.655,-0.73778 13.179,-0.70234 27.355,1.8535 13.928,2.5109 19.375,2.5065 33.758,-0.0268 11.941,-2.1032 15.397,-2.2377 26.407,-1.028 10.9,1.1976 21.405,1.1025 27.672,-0.25039 6.064,-1.309 6.8173,-1.3283 7.6765,-0.1965 0.63902,0.8418 0.67173,0.8418 0.68703,0 0.022,-1.2111 0.89709,-1.1304 7.4659,0.68836 4.675,1.2944 5.6821,1.7421 5.6821,2.5259 0,0.76273 -0.37757,0.95417 -1.894,0.96036 -1.0417,0.004 -1.6328,0.17472 -1.3135,0.37881 0.31927,0.20409 -2.1017,0.37127 -5.38,0.3715 -5.5863,4e-4 -5.9299,-0.0567 -5.4733,-0.90994 0.26797,-0.5007 0.39026,-1.41 0.27175,-2.0207 -0.18697,-0.96351 -0.22457,-0.93485 -0.28426,0.21675 -0.0378,0.72991 -0.41697,1.6161 -0.84253,1.9693 -0.56778,0.47121 -6.2485,0.8138 -21.339,1.2869 -11.311,0.35462 -22.955,0.79101 -25.876,0.96977 -2.9208,0.17876 -5.422,0.21354 -5.5582,0.0773 z"
         id="path4782" />
      <path
         inkscape:connector-curvature="0"
         style="fill:#f2f2f2;fill-opacity:0.61961"
         d="m 335.87,292.25 c -5.7192,-0.19088 -6.5071,-1.1081 -1.5681,-1.8255 2.5333,-0.36797 9.6205,-2.2252 12.052,-3.1584 0.48867,-0.18752 0.65709,0.0185 0.53063,0.64907 -0.77374,3.858 -0.65754,3.7017 -2.7513,3.7017 -1.0895,0 -2.1213,0.22729 -2.293,0.50508 -0.17168,0.27779 -0.4692,0.45751 -0.66115,0.39937 -0.19195,-0.0581 -2.5812,-0.18021 -5.3093,-0.27126 z"
         id="path4784" />
      <path
         inkscape:connector-curvature="0"
         style="fill:#f2f2f2;fill-opacity:0.61961"
         d="m 347.15,290.67 c 0,-1.6631 0.61743,-4.1038 1.0382,-4.1038 0.22375,0 0.49569,0.51139 0.60432,1.1364 0.18999,1.0933 0.21963,1.0837 0.78024,-0.25253 0.56477,-1.3461 0.70383,-1.389 4.5096,-1.3892 2.1598,-1.2e-4 6.3133,0.45483 9.2302,1.011 9.4528,1.8024 9.9493,1.8612 10.42,1.2331 0.6192,-0.8267 9.6703,-3.2565 12.077,-3.242 2.4042,0.0145 5.7314,0.73952 6.3827,1.3909 0.73979,0.73978 -0.0787,3.1428 -1.0704,3.1428 -0.47917,0 -1.0093,0.13807 -1.178,0.30683 -0.52256,0.52256 -15.991,0.55099 -16.164,0.0297 -0.0973,-0.2918 -0.56815,-0.26322 -1.1956,0.0726 -1.1302,0.60488 -22.128,1.8408 -22.923,1.3492 -0.26939,-0.16649 -0.50421,-0.68704 -0.52182,-1.1568 -0.0232,-0.61881 -0.15784,-0.54104 -0.4888,0.28234 -0.55411,1.3786 -1.4995,1.498 -1.4995,0.18941 z"
         id="path4786" />
      <path
         inkscape:connector-curvature="0"
         style="fill:#f2f2f2;fill-opacity:0.61961"
         d="m 347.45,291.19 c -0.43155,-0.69826 0.17151,-4.1141 0.72634,-4.1141 0.22372,0 0.51578,0.2841 0.64902,0.63134 0.16032,0.41784 0.53927,0.22789 1.1205,-0.56167 0.82767,-1.1243 1.1144,-1.179 4.9769,-0.94916 2.2542,0.13413 7.1082,0.76783 10.787,1.4082 l 6.6879,1.1643 3.9187,-1.3255 c 5.6883,-1.9241 9.0254,-2.4595 12.165,-1.9515 1.4798,0.2394 2.9914,0.75055 3.3591,1.1359 0.91679,0.96083 0.10089,2.9735 -1.2054,2.9735 -0.54814,0 -1.1497,0.2477 -1.3368,0.55043 -0.19428,0.31436 -1.0194,0.42905 -1.9238,0.2674 -2.8241,-0.50473 -15.074,-0.41893 -20.794,0.14563 -8.4429,0.83336 -16.899,0.86955 -17.39,0.0744 -0.31333,-0.50698 -0.51531,-0.45548 -0.8984,0.22905 -0.32746,0.58514 -0.61124,0.69368 -0.84112,0.32173 z"
         id="path4788" />
      <rect
         x="376.79001"
         y="271.20001"
         width="16.667999"
         height="19.698"
         style="opacity:0.80088004;fill:#cccccc"
         id="rect4808" />
      <path
         inkscape:connector-curvature="0"
         style="opacity:0.80088004;fill:#808080"
         d="m 395.41,302.62 c -0.57877,-0.90294 -0.81207,-4.1604 -1.0774,-15.042 -0.18624,-7.6393 -0.52651,-15.441 -0.75616,-17.337 -0.33105,-2.7332 -0.22986,-4.1241 0.48855,-6.7149 1.5062,-5.4317 1.7721,-5.2303 3.1992,2.4222 0.91701,4.9174 1.0672,7.6327 1.0706,19.357 0.004,13.232 -0.38555,17.355 -1.7169,18.178 -0.25804,0.15947 -0.8016,-0.22868 -1.2079,-0.86256 z"
         id="path4810" />
      <path
         inkscape:connector-curvature="0"
         style="fill:url(#radialGradient4820)"
         d="m 399.99,283.56 c -0.0332,-3.4443 -0.29015,-8.2067 -0.57083,-10.583 l -0.51035,-4.3208 4.3342,-0.41009 c 2.3838,-0.22556 15.463,-1.1127 29.065,-1.9714 29.915,-1.8886 73.871,-5.5799 85.661,-7.1936 4.7311,-0.64752 12.578,-2.1936 17.438,-3.4357 10.672,-2.7276 11.989,-2.7827 13.144,-0.55045 1.3396,2.5878 1.7556,20.501 0.5007,21.566 -1.4567,1.2354 -131.37,13.153 -143.45,13.159 l -5.5554,0.003 -0.0605,-6.2623 z"
         id="path4812" />
      <rect
         x="339.07999"
         y="590.14001"
         width="8.3135996"
         height="8.46"
         transform="matrix(0.58627,-0.81012,0.35065,0.93651,0,0)"
         style="opacity:0.80088004;fill:#808080"
         id="rect4826" />
      <rect
         x="247.95"
         y="594.33002"
         width="8.3135996"
         height="8.46"
         transform="matrix(0.41453,-0.91004,0.52888,0.8487,0,0)"
         style="opacity:0.80088004;fill:#808080"
         id="rect4828" />
      <rect
         x="261"
         y="607.06"
         width="8.3135996"
         height="8.46"
         transform="matrix(0.41453,-0.91004,0.52888,0.8487,0,0)"
         style="opacity:0.80088004;fill:#808080"
         id="rect4830" />
      <rect
         x="272.5"
         y="618.97998"
         width="8.3135996"
         height="8.46"
         transform="matrix(0.41453,-0.91004,0.52888,0.8487,0,0)"
         style="opacity:0.80088004;fill:#808080"
         id="rect4832" />
      <rect
         x="285.78"
         y="631.53003"
         width="8.3135996"
         height="8.46"
         transform="matrix(0.41453,-0.91004,0.52888,0.8487,0,0)"
         style="opacity:0.80088004;fill:#808080"
         id="rect4834" />
      <rect
         x="297.73999"
         y="643.09003"
         width="8.3135996"
         height="8.46"
         transform="matrix(0.41453,-0.91004,0.52888,0.8487,0,0)"
         style="opacity:0.80088004;fill:#808080"
         id="rect4836" />
      <rect
         x="308.14999"
         y="653.84003"
         width="8.3135996"
         height="8.46"
         transform="matrix(0.41453,-0.91004,0.52888,0.8487,0,0)"
         style="opacity:0.80088004;fill:#808080"
         id="rect4838" />
      <rect
         x="318.88"
         y="663.65997"
         width="8.3135996"
         height="8.46"
         transform="matrix(0.41453,-0.91004,0.52888,0.8487,0,0)"
         style="opacity:0.80088004;fill:#808080"
         id="rect4840" />
      <rect
         x="331.92999"
         y="676.39001"
         width="8.3135996"
         height="8.46"
         transform="matrix(0.41453,-0.91004,0.52888,0.8487,0,0)"
         style="opacity:0.80088004;fill:#808080"
         id="rect4842" />
      <rect
         x="343.53"
         y="687.56"
         width="8.3135996"
         height="8.46"
         transform="matrix(0.41453,-0.91004,0.52888,0.8487,0,0)"
         style="opacity:0.80088004;fill:#808080"
         id="rect4844" />
      <rect
         x="355.70999"
         y="698.94"
         width="8.3135996"
         height="8.46"
         transform="matrix(0.41453,-0.91004,0.52888,0.8487,0,0)"
         style="opacity:0.80088004;fill:#808080"
         id="rect4846" />
      <rect
         x="367.67001"
         y="710.5"
         width="8.3135996"
         height="8.46"
         transform="matrix(0.41453,-0.91004,0.52888,0.8487,0,0)"
         style="opacity:0.80088004;fill:#808080"
         id="rect4824" />
      <path
         d="m 540.2,255.37 c 0.30846,0.80476 0.59622,1.6171 0.90083,2.4234 0.40897,1.1212 0.83904,2.2345 1.2147,3.3675 0.34183,1.0339 0.5997,2.0919 0.83521,3.1542 0.20536,0.93865 0.36588,1.8861 0.51003,2.8358 0.1275,0.85232 0.22378,1.7088 0.3098,2.5661 0.0787,0.79867 0.13656,1.5992 0.18812,2.4 0.0484,0.7658 0.0832,1.5323 0.11423,2.299 0.0296,0.74568 0.0506,1.4916 0.0694,2.2377 0.0323,0.58023 0.0864,1.159 0.13231,1.7382 l -0.31638,0.16437 c -0.0459,-0.57986 -0.0999,-1.1592 -0.13316,-1.74 -0.0187,-0.74586 -0.0397,-1.4917 -0.0691,-2.2372 -0.0309,-0.76641 -0.0656,-1.5327 -0.11382,-2.2982 -0.0514,-0.80045 -0.109,-1.6006 -0.1875,-2.3989 -0.0857,-0.85683 -0.18172,-1.7128 -0.3089,-2.5646 -0.14376,-0.94901 -0.30387,-1.8958 -0.5088,-2.8337 -0.23494,-1.0612 -0.49217,-2.1182 -0.83338,-3.151 -0.37525,-1.1326 -0.8052,-2.2454 -1.214,-3.3662 -0.30475,-0.8063 -0.59262,-1.6186 -0.90163,-2.4231 l 0.31203,-0.17335 z"
         inkscape:connector-curvature="0"
         style="opacity:0.80088004;fill:#333333"
         id="path4848" />
      <path
         inkscape:connector-curvature="0"
         style="opacity:0.80088004;fill:#333333"
         d="m 545.8,275.82 c 2.6252,-2.7607 2.1654,-6.3331 -1.0894,-8.4645 -0.86092,-0.56378 -1.1383,-1.0529 -1.3162,-2.3214 -0.12399,-0.88393 -0.7685,-3.2143 -1.4322,-5.1786 -0.66374,-1.9643 -1.162,-3.6193 -1.1071,-3.6778 0.28659,-0.30577 5.0069,-0.81892 5.7704,-0.6273 1.4806,0.37161 1.9524,2.1909 2.3648,9.1192 0.34806,5.847 0.19406,10.413 -0.38139,11.308 -0.13627,0.21198 -1.0513,0.50222 -2.0335,0.64496 l -1.7857,0.25953 1.0104,-1.0626 z"
         id="path4850" />
      <path
         inkscape:connector-curvature="0"
         style="opacity:0.80088004;fill:#333333"
         d="m 544.56,275.36 c -0.0251,-0.66884 -0.0776,-2.0196 -0.11668,-3.0018 -0.039,-0.98215 -0.19989,-2.6696 -0.35747,-3.75 l -0.28652,-1.9643 1.4824,1.4194 c 1.989,1.9044 2.4484,3.5937 1.5335,5.6383 -0.37252,0.83255 -1.0221,1.8199 -1.4434,2.1941 l -0.76613,0.68035 -0.0457,-1.2161 z"
         id="path4852" />
      <path
         inkscape:connector-curvature="0"
         style="opacity:0.80088004;fill:#333333"
         d="m 544.62,274.11 c -0.006,-1.1989 -0.11334,-3.2078 -0.23808,-4.4643 l -0.22679,-2.2845 1.0937,1.0241 c 2.2072,2.0667 2.2989,4.5906 0.25119,6.9173 l -0.86873,0.98713 -0.0113,-2.1798 z"
         id="path4854" />
      <path
         inkscape:connector-curvature="0"
         style="opacity:0.80088004;fill:#333333"
         d="m 546.56,275.13 c 0.67879,-0.99894 0.90573,-1.7922 0.90573,-3.1661 0,-1.9174 -0.50534,-2.8561 -2.5733,-4.7805 -0.7502,-0.69809 -1.2847,-2.0145 -2.391,-5.889 -0.78364,-2.7445 -1.3658,-5.049 -1.2936,-5.1212 0.0721,-0.0721 1.4139,-0.2191 2.9816,-0.32655 l 2.8504,-0.19538 0.54253,1.0492 c 0.75832,1.4664 1.3119,7.0114 1.3119,13.141 0,4.7165 -0.0655,5.2582 -0.71429,5.9069 -0.39285,0.39286 -1.1219,0.71429 -1.62,0.71429 h -0.90574 l 0.90574,-1.3329 z"
         id="path4856" />
      <path
         d="m 545.55,265.7 c 0.20874,0.48167 0.43468,0.95629 0.65787,1.4316 0.33759,0.72164 0.65219,1.4533 0.9059,2.2087 0.22964,0.65171 0.32692,1.3156 0.25963,2.0017 -0.0708,0.36326 -0.11878,0.79962 -0.37114,1.0919 -0.14199,0.0459 -0.27789,0.11919 -0.42595,0.13771 -0.21172,0.0265 -0.34481,-0.60266 -0.37481,-0.71389 -0.12985,-0.55706 -0.19323,-1.1269 -0.2557,-1.6947 -0.0311,-0.45949 -0.037,-0.93226 0.088,-1.379 0.36969,-0.80538 0.57455,0.0617 0.65686,0.33585 0.20896,0.67903 0.35422,1.3747 0.4875,2.0717 0.12463,0.63429 0.21065,1.2754 0.2215,1.922 -0.006,0.22556 0.0671,0.42427 -0.34164,0.29598 -0.0936,-0.0294 -0.0118,-0.19585 -0.0161,-0.29386 -0.0155,-0.45281 -0.0201,-0.90591 -0.0247,-1.3589 0.006,-0.71646 -0.0142,-1.4312 -0.0665,-2.1457 -0.0193,-0.2083 -0.0352,-0.41744 -0.0672,-0.62434 -0.008,-0.0509 -0.0857,-0.13371 -0.0369,-0.14993 0.0933,-0.031 0.19425,-0.0305 0.29138,-0.0458 -0.0331,0.50661 0.0581,1.0108 0.13817,1.509 0.13687,0.63297 0.27843,1.2645 0.39593,1.9015 0.12092,0.63482 0.20223,1.2744 0.20845,1.9208 0.0153,0.55779 -0.0521,1.099 -0.22886,1.6273 -0.0951,0.25762 -0.36475,0.86176 -0.7564,0.63576 -0.15797,-0.1641 -0.14992,-0.39609 -0.13695,-0.60857 0.0335,-0.3536 0.0588,-0.7078 0.0795,-1.0624 0.0272,-0.51021 -0.0152,-1.0217 -0.039,-1.5315 -0.0289,-0.61842 -0.0492,-1.2372 -0.067,-1.856 10e-4,-0.63401 -0.0612,-1.2646 -0.11639,-1.8954 -0.0571,-0.64267 -0.0982,-1.2866 -0.13427,-1.9307 -0.0552,-0.62327 -0.12781,-1.2444 -0.23099,-1.8615 l 0.31501,-0.16715 c 0.10372,0.6183 0.17673,1.2405 0.23277,1.865 0.0359,0.6438 0.0769,1.2874 0.13378,1.9297 0.0553,0.63142 0.11893,1.2626 0.11734,1.8972 0.0177,0.61863 0.0378,1.2372 0.0667,1.8554 0.0238,0.51088 0.0665,1.0235 0.0408,1.5348 -0.0204,0.35462 -0.0449,0.70896 -0.0792,1.0625 -0.0138,0.19582 -0.0324,0.42147 0.11641,0.57273 0.14951,0.0676 0.0873,0.0163 -0.15513,0.20338 -0.0786,0.0607 0.44589,-0.54459 0.29003,-0.49185 0.17969,-0.52444 0.24973,-1.0615 0.23421,-1.6167 -0.004,-0.64456 -0.0852,-1.2823 -0.20553,-1.9153 -0.11726,-0.63727 -0.25839,-1.2692 -0.39632,-1.9022 -0.081,-0.5024 -0.1712,-1.0096 -0.14443,-1.5206 0.11396,-0.0944 0.21731,-0.20342 0.34189,-0.28335 0.0399,-0.0256 0.1057,0.78592 0.1087,0.78382 0.0526,0.71514 0.0741,1.4305 0.0675,2.1477 0.005,0.45263 0.009,0.90533 0.0244,1.3578 0.004,0.0975 0.0712,0.21231 0.0153,0.29225 -0.40973,0.58592 -0.28693,0.27225 -0.29248,0.0315 -0.009,-0.64483 -0.0941,-1.2841 -0.21837,-1.9166 -0.13277,-0.69595 -0.27732,-1.3905 -0.48596,-2.0684 -0.0115,-0.0384 -0.21468,-0.53339 -0.19706,-0.56493 0.0576,-0.10312 0.17213,-0.16187 0.26047,-0.24028 0.0419,-0.0372 -0.2172,0.21376 -0.0849,0.14519 -0.13102,0.44119 -0.12317,0.91122 -0.0945,1.3667 0.062,0.56605 0.12495,1.1342 0.25326,1.6898 0.0472,0.17684 0.088,0.37119 0.18728,0.52889 0.0405,0.0643 0.19709,0.0831 0.1684,0.15339 -0.0356,0.0872 -0.13194,0.13437 -0.19791,0.20155 0.27342,-0.25907 0.30322,-0.72676 0.38126,-1.0706 0.0711,-0.68153 -0.0244,-1.3406 -0.25248,-1.9884 -0.25267,-0.75439 -0.56696,-1.4847 -0.90394,-2.2051 -0.22315,-0.47494 -0.44913,-0.94924 -0.65784,-1.4306 l 0.31022,-0.17664 z"
         inkscape:connector-curvature="0"
         style="opacity:0.80088004;fill:#333333"
         id="path4860" />
    </g>
  </g>
  <metadata
     id="metadata67">
    <rdf:RDF>
      <cc:Work>
        <dc:format>image/svg+xml</dc:format>
        <dc:type
           rdf:resource="http://purl.org/dc/dcmitype/StillImage" />
        <cc:license
           rdf:resource="http://creativecommons.org/publicdomain/zero/1.0/" />
        <dc:publisher>
          <cc:Agent
             rdf:about="http://openclipart.org/">
            <dc:title>OpenClipart Library</dc:title>
          </cc:Agent>
        </dc:publisher>
        <dc:title>Muramasa</dc:title>
        <dc:date>2011-05-16T17:01:34</dc:date>
        <dc:description />
        <dc:source>https://openclipart.org/detail/139081</dc:source>
        <dc:creator>
          <cc:Agent>
            <dc:title>chikiyo</dc:title>
          </cc:Agent>
        </dc:creator>
        <dc:subject>
          <rdf:Bag>
            <rdf:li>ak student</rdf:li>
            <rdf:li>japan</rdf:li>
            <rdf:li>japanese</rdf:li>
            <rdf:li>muramasa</rdf:li>
            <rdf:li>samurai</rdf:li>
            <rdf:li>sword</rdf:li>
            <rdf:li>weapon</rdf:li>
          </rdf:Bag>
        </dc:subject>
      </cc:Work>
      <cc:License
         rdf:about="http://creativecommons.org/publicdomain/zero/1.0/">
        <cc:permits
           rdf:resource="http://creativecommons.org/ns#Reproduction" />
        <cc:permits
           rdf:resource="http://creativecommons.org/ns#Distribution" />
        <cc:permits
           rdf:resource="http://creativecommons.org/ns#DerivativeWorks" />
      </cc:License>
    </rdf:RDF>
  </metadata>
</svg>
