<?xml version="1.0" encoding="UTF-8" standalone="no"?>
<!-- Created with Inkscape (http://www.inkscape.org/) -->

<svg
   id="svg2"
   sodipodi:docname="scimitar_02.svg"
   viewBox="0 0 256 256"
   version="1.1"
   inkscape:version="1.1.2 (0a00cf5339, 2022-02-04)"
   width="256"
   height="256"
   xmlns:inkscape="http://www.inkscape.org/namespaces/inkscape"
   xmlns:sodipodi="http://sodipodi.sourceforge.net/DTD/sodipodi-0.dtd"
   xmlns="http://www.w3.org/2000/svg"
   xmlns:svg="http://www.w3.org/2000/svg"
   xmlns:rdf="http://www.w3.org/1999/02/22-rdf-syntax-ns#"
   xmlns:cc="http://creativecommons.org/ns#"
   xmlns:dc="http://purl.org/dc/elements/1.1/">
  <defs
     id="defs6">
    <clipPath
       id="clipPath4786">
      <path
         id="path4788"
         style="fill:#666666;fill-rule:evenodd"
         inkscape:connector-curvature="0"
         d="m 224.18,-209.31 c -2.4461,-4.2239 -6.0122,-7.9979 -10.194,-10.243 -11.636,-6.2486 -33.445,-4.548 -59.392,51.328 -0.16338,0.32811 -11.33,29.548 -12.602,32.776 -2.0358,5.1652 -21.826,33.538 -31.29,38.005 0,0 3.1777,-7.6457 -1.1413,-15.127 -4.3191,-7.4809 -8.824,-9.8134 -16.24,-3.537 -7.4157,6.2764 -0.7317,27.143 10.905,33.392 11.636,6.2486 33.351,5.6885 59.298,-50.188 0.17156,-0.34451 11.438,-30.724 12.696,-33.916 2.0278,-5.145 21.649,-33.293 31.156,-37.928 -0.23473,0.613 -2.7528,9.9166 1.4314,17.164 4.3191,7.4809 9.9305,6.3533 17.346,0.0769 4.7507,-4.0208 2.3872,-14.273 -1.9733,-21.803 z" />
    </clipPath>
  </defs>
  <sodipodi:namedview
     id="namedview4"
     bordercolor="#666666"
     inkscape:pageshadow="2"
     guidetolerance="10"
     pagecolor="#ffffff"
     gridtolerance="10"
     inkscape:window-maximized="1"
     inkscape:zoom="1"
     objecttolerance="10"
     borderopacity="1"
     inkscape:current-layer="svg2"
     inkscape:cx="73"
     inkscape:cy="127"
     inkscape:window-y="0"
     inkscape:window-x="0"
     inkscape:window-width="1366"
     showgrid="false"
     inkscape:pageopacity="0"
     inkscape:window-height="708"
     inkscape:pagecheckerboard="true"
     fit-margin-top="0"
     fit-margin-left="0"
     fit-margin-right="0"
     fit-margin-bottom="0">
    <inkscape:grid
       id="grid4045"
       enabled="true"
       visible="true"
       snapvisiblegridlinesonly="true"
       type="xygrid"
       empspacing="5"
       originx="35.769658"
       originy="-25.660941" />
  </sodipodi:namedview>
  <g
     id="g4180"
     transform="matrix(0.9119318,1.9316806,-1.9206267,0.93627398,154.07493,-156.73895)">
    <path
       id="path4178"
       style="fill:#c3c3c3;fill-rule:evenodd;stroke:#424242;stroke-width:2.9187;stroke-linecap:square;stroke-linejoin:bevel"
       d="M 133.15,117.01 C 128.91,46.913 114.12,41.684 114.12,41.684 110.57,17.712 87.408,-9.78 87.408,-9.78 c 0,0 1.2511,-1.2253 17.589,15.457 16.3379,16.6823 35.118,51.069 37.436,115.31 z"
       sodipodi:nodetypes="ccczcc"
       inkscape:transform-center-y="92.869058"
       inkscape:connector-curvature="0"
       inkscape:transform-center-x="41.06683" />
    <path
       id="path4043"
       sodipodi:nodetypes="ccczcc"
       d="M 133.15,117.01 C 128.91,46.913 114.12,41.684 114.12,41.684 110.57,17.712 87.408,-9.78 87.408,-9.78 c 0,0 1.2511,-1.2253 17.589,15.457 16.3379,16.6823 35.118,51.069 37.436,115.31 z"
       inkscape:transform-center-x="41.06683"
       inkscape:transform-center-y="92.869058"
       inkscape:connector-curvature="0"
       style="fill:#c3c3c3;fill-rule:evenodd" />
    <path
       id="path4968"
       d="m 141.52,145.58 c 0.63839,-0.62522 -1.2647,1.2386 1.9663,-1.9257 3.231,-3.1643 -4.5277,-1.2852 -4.2475,-2.3767 0.28019,-1.0915 1.2809,-2.9645 0.35814,-3.9924 -0.9228,-1.0279 -3.131,-1.2547 -4.279,-0.0778 -1.148,1.1769 -0.37798,4.1371 0.24053,5.5795 0.61851,1.4424 1.5677,2.288 2.6595,2.7587 1.0918,0.47074 2.6636,0.65963 3.302,0.0344 z"
       sodipodi:nodetypes="zzzzzzzz"
       style="color:#000000;fill:#fed107;stroke:#201914;stroke-width:0.50975"
       inkscape:connector-curvature="0" />
    <g
       id="g4136"
       transform="matrix(0.080621,-0.10842,-0.093018,-0.093562,109.69,122.45)">
      <path
         id="path4972"
         style="color:#000000;fill:#ad5528;stroke:#201914;stroke-width:2.0942"
         inkscape:connector-curvature="0"
         d="m 85.449,-260.1 c 4.7696,3.9383 1.9538,15.03 -6.3134,24.87 l -7.1504,8.5107 c -8.2672,9.8398 -18.762,14.591 -23.532,10.653 -4.7696,-3.9383 -1.9539,-15.03 6.3133,-24.87 l 7.1505,-8.5107 c 8.2672,-9.8398 18.763,-14.591 23.532,-10.652 z" />
      <path
         id="path4974"
         style="color:#000000;fill:#ad5528;stroke:#201914;stroke-width:2.0942"
         inkscape:connector-curvature="0"
         d="m 95.222,-252.03 c 4.7696,3.9383 1.9538,15.03 -6.3134,24.87 l -7.1504,8.5107 c -8.2672,9.8398 -18.763,14.591 -23.532,10.653 -4.7696,-3.9383 -1.9539,-15.03 6.3133,-24.87 l 7.1505,-8.5106 c 8.2672,-9.8398 18.763,-14.591 23.532,-10.652 z" />
      <path
         id="path4976"
         style="color:#000000;fill:#ad5528;stroke:#201914;stroke-width:2.0942"
         inkscape:connector-curvature="0"
         d="m 104.99,-243.96 c 4.7696,3.9383 1.9538,15.03 -6.3134,24.87 l -7.1505,8.5106 c -8.2672,9.8398 -18.762,14.591 -23.532,10.653 -4.7696,-3.9383 -1.9538,-15.03 6.3133,-24.87 l 7.1505,-8.5106 c 8.2672,-9.8398 18.763,-14.591 23.532,-10.653 z" />
      <path
         id="path4978"
         style="color:#000000;fill:#ad5528;stroke:#201914;stroke-width:2.0942"
         inkscape:connector-curvature="0"
         d="m 114.77,-235.89 c 4.7696,3.9383 1.9538,15.03 -6.3134,24.87 l -7.1505,8.5106 c -8.2672,9.8398 -18.762,14.591 -23.532,10.653 -4.7696,-3.9383 -1.9539,-15.03 6.3133,-24.87 l 7.1505,-8.5106 c 8.2672,-9.8398 18.763,-14.591 23.532,-10.652 z" />
      <path
         id="path4980"
         style="color:#000000;fill:#ad5528;stroke:#201914;stroke-width:2.0942"
         inkscape:connector-curvature="0"
         d="m 124.54,-227.82 c 4.7696,3.9383 1.9538,15.03 -6.3134,24.87 l -7.1505,8.5107 c -8.2672,9.8398 -18.762,14.591 -23.532,10.652 -4.7696,-3.9383 -1.9538,-15.03 6.3133,-24.87 l 7.1505,-8.5106 c 8.2672,-9.8398 18.763,-14.591 23.532,-10.653 z" />
      <path
         id="path4982"
         style="color:#000000;fill:#ad5528;stroke:#201914;stroke-width:2.0942"
         inkscape:connector-curvature="0"
         d="m 134.31,-219.75 c 4.7696,3.9383 1.9538,15.03 -6.3134,24.87 l -7.1504,8.5106 c -8.2672,9.8398 -18.763,14.591 -23.532,10.653 -4.7696,-3.9383 -1.9539,-15.03 6.3133,-24.87 l 7.1505,-8.5106 c 8.2672,-9.8398 18.762,-14.591 23.532,-10.653 z" />
      <path
         id="path4984"
         style="color:#000000;fill:#ad5528;stroke:#201914;stroke-width:2.0942"
         inkscape:connector-curvature="0"
         d="m 144.09,-211.68 c 4.7696,3.9383 1.9538,15.03 -6.3134,24.87 l -7.1505,8.5106 c -8.2672,9.8398 -18.762,14.591 -23.532,10.653 -4.7696,-3.9383 -1.9539,-15.03 6.3133,-24.87 l 7.1504,-8.5107 c 8.2672,-9.8398 18.763,-14.591 23.532,-10.652 z" />
      <path
         id="path4986"
         style="color:#000000;fill:#ad5528;stroke:#201914;stroke-width:2.0942"
         inkscape:connector-curvature="0"
         d="m 153.86,-203.61 c 4.7696,3.9383 1.9538,15.03 -6.3134,24.87 l -7.1505,8.5106 c -8.2672,9.8398 -18.762,14.591 -23.532,10.653 -4.7696,-3.9383 -1.9539,-15.03 6.3133,-24.87 l 7.1505,-8.5107 c 8.2672,-9.8398 18.762,-14.591 23.532,-10.652 z" />
      <path
         id="path4988"
         style="color:#000000;fill:#ad5528;stroke:#201914;stroke-width:2.0942"
         inkscape:connector-curvature="0"
         d="m 163.63,-195.54 c 4.7696,3.9383 1.9539,15.03 -6.3133,24.87 l -7.1505,8.5106 c -8.2672,9.8398 -18.762,14.591 -23.532,10.653 -4.7696,-3.9383 -1.9538,-15.03 6.3133,-24.87 l 7.1505,-8.5106 c 8.2672,-9.8398 18.763,-14.591 23.532,-10.652 z" />
      <path
         id="path4990"
         style="color:#000000;fill:#ad5528;stroke:#201914;stroke-width:2.0942"
         inkscape:connector-curvature="0"
         d="m 173.4,-187.47 c 4.7696,3.9383 1.9538,15.03 -6.3134,24.87 l -7.1504,8.5106 c -8.2672,9.8398 -18.763,14.591 -23.532,10.653 -4.7696,-3.9383 -1.9539,-15.03 6.3133,-24.87 l 7.1504,-8.5106 c 8.2672,-9.8398 18.763,-14.591 23.532,-10.652 z" />
    </g>
    <g
       id="g5020"
       style="fill:#424242"
       transform="matrix(0.097097,-0.10527,-0.10527,-0.097097,105.51,121.56)">
      <path
         id="path5022"
         style="fill:#424242;fill-rule:evenodd"
         d="m 224.18,-209.31 c -2.4461,-4.2239 -6.0122,-7.9979 -10.194,-10.243 -11.636,-6.2486 -33.445,-4.548 -59.392,51.328 -0.16338,0.32811 -11.33,29.548 -12.602,32.776 -2.0358,5.1652 -21.826,33.538 -31.29,38.005 0,0 3.1777,-7.6457 -1.1413,-15.127 -4.3191,-7.4809 -8.824,-9.8134 -16.24,-3.537 -7.4157,6.2764 -0.7317,27.143 10.905,33.392 11.636,6.2486 33.351,5.6885 59.298,-50.188 0.17156,-0.34451 11.438,-30.724 12.696,-33.916 2.0278,-5.145 21.649,-33.293 31.156,-37.928 -0.23473,0.613 -2.7528,9.9166 1.4314,17.164 4.3191,7.4809 9.9305,6.3533 17.346,0.0769 4.7507,-4.0208 2.3872,-14.273 -1.9733,-21.803 z"
         clip-path="url(#clipPath4786)"
         transform="matrix(0.98906,-0.14753,0.14753,0.98906,26.152,21.875)"
         inkscape:connector-curvature="0" />
    </g>
    <g
       id="g4149"
       transform="matrix(0.094025,-0.10802,-0.10802,-0.094025,106.2,123.07)">
      <g
         id="g5633"
         style="fill:#323232"
         transform="matrix(0.57766,-0.20159,0.20159,0.57766,-97.084,-96.564)">
        <path
           id="path5635"
           style="fill:#323232"
           inkscape:connector-curvature="0"
           d="m 424.44,13.893 c -23.024,-0.39802 -43.567,20.928 -42.113,44.002 0.53597,19.355 15.653,37.459 35.049,40.421 18.063,3.2385 37.81,-6.1615 45.597,-22.999 7.8743,-15.823 5.0223,-36.442 -7.9063,-48.798 -8.0344,-8.0133 -19.179,-12.964 -30.627,-12.626 z" />
      </g>
      <g
         id="g5034"
         style="fill:#ff4517"
         transform="matrix(0.37217,-0.12988,0.12988,0.37217,-5.7221,-115.45)">
        <path
           id="path5036"
           style="fill:#ff4517"
           inkscape:connector-curvature="0"
           d="m 424.44,13.893 c -23.024,-0.39802 -43.567,20.928 -42.113,44.002 0.53597,19.355 15.653,37.459 35.049,40.421 18.063,3.2385 37.81,-6.1615 45.597,-22.999 7.8743,-15.823 5.0223,-36.442 -7.9063,-48.798 -8.0344,-8.0133 -19.179,-12.964 -30.627,-12.626 z" />
      </g>
    </g>
  </g>
  <metadata
     id="metadata30">
    <rdf:RDF>
      <cc:Work>
        <dc:format>image/svg+xml</dc:format>
        <dc:type
           rdf:resource="http://purl.org/dc/dcmitype/StillImage" />
        <cc:license
           rdf:resource="http://creativecommons.org/publicdomain/zero/1.0/" />
        <dc:publisher>
          <cc:Agent
             rdf:about="http://openclipart.org/">
            <dc:title>Openclipart</dc:title>
          </cc:Agent>
        </dc:publisher>
        <dc:title>Long Scimitar</dc:title>
        <dc:date>2012-06-20T16:01:06</dc:date>
        <dc:description>For a weapon texture and icon in DNT http://dnt.dnteam.org/</dc:description>
        <dc:source>https://openclipart.org/detail/170823/long-scimitar-by-qubodup-170823</dc:source>
        <dc:creator>
          <cc:Agent>
            <dc:title>qubodup</dc:title>
          </cc:Agent>
        </dc:creator>
        <dc:subject>
          <rdf:Bag>
            <rdf:li>scimitar</rdf:li>
            <rdf:li>slice</rdf:li>
            <rdf:li>sword</rdf:li>
            <rdf:li>weapon</rdf:li>
          </rdf:Bag>
        </dc:subject>
      </cc:Work>
      <cc:License
         rdf:about="http://creativecommons.org/licenses/publicdomain/">
        <cc:permits
           rdf:resource="http://creativecommons.org/ns#Reproduction" />
        <cc:permits
           rdf:resource="http://creativecommons.org/ns#Distribution" />
        <cc:permits
           rdf:resource="http://creativecommons.org/ns#DerivativeWorks" />
      </cc:License>
    </rdf:RDF>
  </metadata>
</svg>
