<?xml version="1.0" encoding="UTF-8" standalone="no"?>
<svg
   xmlns:dc="http://purl.org/dc/elements/1.1/"
   xmlns:cc="http://creativecommons.org/ns#"
   xmlns:rdf="http://www.w3.org/1999/02/22-rdf-syntax-ns#"
   xmlns:svg="http://www.w3.org/2000/svg"
   xmlns="http://www.w3.org/2000/svg"
   xmlns:sodipodi="http://sodipodi.sourceforge.net/DTD/sodipodi-0.dtd"
   xmlns:inkscape="http://www.inkscape.org/namespaces/inkscape"
   version="1.1"
   x="0"
   y="0"
   width="256"
   height="256"
   viewBox="0 0 255.99999 256.00001"
   id="svg72"
   sodipodi:docname="scythe_01.svg"
   inkscape:version="0.92.4 (5da689c313, 2019-01-14)">
  <title
     id="title945">Scythe</title>
  <metadata
     id="metadata76">
    <rdf:RDF>
      <cc:Work
         rdf:about="">
        <dc:format>image/svg+xml</dc:format>
        <dc:type
           rdf:resource="http://purl.org/dc/dcmitype/StillImage" />
        <dc:title>Scythe</dc:title>
        <dc:creator>
          <cc:Agent>
            <dc:title>oksmith</dc:title>
          </cc:Agent>
        </dc:creator>
        <dc:publisher>
          <cc:Agent>
            <dc:title>https://openclipart.org/</dc:title>
          </cc:Agent>
        </dc:publisher>
        <dc:source>https://openclipart.org/detail/308651</dc:source>
        <cc:license
           rdf:resource="http://creativecommons.org/publicdomain/zero/1.0/" />
      </cc:Work>
      <cc:License
         rdf:about="http://creativecommons.org/publicdomain/zero/1.0/">
        <cc:permits
           rdf:resource="http://creativecommons.org/ns#Reproduction" />
        <cc:permits
           rdf:resource="http://creativecommons.org/ns#Distribution" />
        <cc:permits
           rdf:resource="http://creativecommons.org/ns#DerivativeWorks" />
      </cc:License>
    </rdf:RDF>
  </metadata>
  <sodipodi:namedview
     pagecolor="#ffffff"
     bordercolor="#666666"
     borderopacity="1"
     objecttolerance="10"
     gridtolerance="10"
     guidetolerance="10"
     inkscape:pageopacity="0"
     inkscape:pageshadow="2"
     inkscape:window-width="1920"
     inkscape:window-height="1025"
     id="namedview74"
     showgrid="false"
     fit-margin-top="0"
     fit-margin-left="0"
     fit-margin-right="0"
     fit-margin-bottom="0"
     inkscape:zoom="0.60121111"
     inkscape:cx="-166.10829"
     inkscape:cy="-27.072166"
     inkscape:window-x="-8"
     inkscape:window-y="-8"
     inkscape:window-maximized="1"
     inkscape:current-layer="svg72" />
  <defs
     id="defs20">
    <linearGradient
       id="Gradient_1"
       gradientUnits="userSpaceOnUse"
       x1="88.222"
       y1="297.091"
       x2="401.177"
       y2="297.091"
       gradientTransform="matrix(0.75,0,0,0.75,640.528,600.994)">
      <stop
         offset="0"
         stop-color="#858685"
         id="stop2" />
      <stop
         offset="0.489"
         stop-color="#4F504F"
         id="stop4" />
      <stop
         offset="1"
         stop-color="#363736"
         id="stop6" />
    </linearGradient>
    <linearGradient
       id="Gradient_2"
       gradientUnits="userSpaceOnUse"
       x1="172.983"
       y1="235.474"
       x2="311.31699"
       y2="26.191999"
       gradientTransform="matrix(0.75,0,0,0.75,640.528,600.994)">
      <stop
         offset="0"
         stop-color="#92938D"
         id="stop9" />
      <stop
         offset="0.034"
         stop-color="#92938D"
         id="stop11" />
      <stop
         offset="0.219"
         stop-color="#A7AAAD"
         id="stop13" />
      <stop
         offset="0.719"
         stop-color="#5F686A"
         id="stop15" />
      <stop
         offset="1"
         stop-color="#838B8D"
         id="stop17" />
    </linearGradient>
  </defs>
  <g
     id="g941"
     transform="matrix(0.16292521,0.95483904,-0.95483904,0.16292521,227.76688,-15.077148)">
    <path
       d="m 235.332,274.368 c -0.395,0.596 -0.939,1.102 -1.608,1.461 -2.157,1.165 -4.852,0.358 -6.023,-1.809 -0.232,-0.438 -24.311,-44.888 -53.984,-69.119 C 147.53,183.522 136.133,179.662 120.365,174.32 108.817,170.407 95.744,165.978 73.913,154.033 21.547,125.382 2.821,96.637 2.051,95.43 0.733,93.362 1.324,90.615 3.407,89.291 c 2.061,-1.319 4.803,-0.712 6.127,1.355 0.269,0.422 18.62,28.224 68.65,55.593 21.14,11.564 33.834,15.868 45.029,19.659 16.031,5.432 28.687,9.719 56.131,32.126 31.072,25.36 55.176,69.905 56.194,71.793 0.796,1.492 0.664,3.238 -0.206,4.551 z"
       id="path188672"
       style="fill:url(#Gradient_1)"
       inkscape:connector-curvature="0" />
    <path
       d="m 235.332,274.368 -1.125,-0.747 c -0.275,0.415 -0.65,0.765 -1.121,1.018 l -0.004,0.002 c -0.469,0.253 -0.966,0.37 -1.461,0.371 -1.102,-0.002 -2.168,-0.588 -2.732,-1.633 l 0.004,0.008 c -0.024,-0.046 -0.129,-0.24 -0.329,-0.602 -1.489,-2.697 -7.972,-14.187 -17.582,-27.873 -9.614,-13.685 -22.343,-29.564 -36.411,-41.057 -13.136,-10.723 -22.607,-17.09 -30.803,-21.45 -8.197,-4.361 -15.091,-6.695 -22.969,-9.364 C 109.254,169.129 96.324,164.752 74.56,152.849 22.413,124.316 3.857,95.749 3.189,94.704 2.856,94.181 2.701,93.607 2.7,93.035 2.702,92.011 3.198,91.023 4.13,90.431 l 0.004,-0.002 c 0.517,-0.33 1.084,-0.485 1.652,-0.485 1.022,0.002 2.017,0.502 2.611,1.431 L 8.396,91.372 c 0.036,0.056 0.123,0.189 0.293,0.435 2.521,3.649 21.739,29.847 68.847,55.617 21.209,11.605 34.044,15.962 45.244,19.753 8.02,2.717 15.09,5.114 23.587,9.612 8.497,4.498 18.445,11.113 32.123,22.281 15.373,12.543 29.117,29.937 39.11,44.42 9.997,14.483 16.255,26.051 16.749,26.967 l -0.003,-0.004 c 0.253,0.472 0.369,0.973 0.369,1.469 0.001,0.605 -0.178,1.202 -0.509,1.701 l 0.001,-0.002 1.125,0.747 1.126,0.745 c 0.626,-0.946 0.958,-2.057 0.958,-3.191 0,-0.927 -0.224,-1.871 -0.687,-2.74 l -0.003,-0.005 c -0.524,-0.972 -6.826,-12.62 -16.904,-27.221 -10.082,-14.602 -23.926,-32.16 -39.625,-44.978 -13.765,-11.239 -23.867,-17.97 -32.567,-22.576 -8.698,-4.605 -15.973,-7.068 -23.984,-9.782 -11.19,-3.792 -23.742,-8.041 -44.814,-19.565 C 53.925,131.429 36.927,117.71 26.132,107.363 20.735,102.189 16.889,97.859 14.381,94.805 13.128,93.279 12.209,92.071 11.598,91.237 11.293,90.82 11.064,90.495 10.91,90.272 10.832,90.16 10.774,90.074 10.733,90.013 L 10.687,89.944 10.675,89.925 10.673,89.921 10.671,89.919 C 9.565,88.191 7.691,87.242 5.786,87.244 4.722,87.243 3.638,87.54 2.679,88.154 l 0.004,-0.002 c -1.737,1.102 -2.686,2.98 -2.683,4.883 -0.001,1.069 0.298,2.157 0.913,3.121 0.871,1.37 19.768,30.293 72.352,59.061 21.9,11.985 35.114,16.469 46.668,20.382 7.888,2.673 14.577,4.94 22.567,9.189 7.99,4.251 17.311,10.504 30.363,21.159 14.668,11.973 28.06,29.063 37.774,43.201 4.859,7.069 8.803,13.4 11.545,17.987 1.371,2.294 2.441,4.152 3.175,5.448 0.367,0.648 0.65,1.155 0.844,1.507 0.193,0.349 0.303,0.553 0.307,0.562 l 0.005,0.009 c 1.05,1.943 3.048,3.053 5.108,3.051 0.928,0.001 1.874,-0.225 2.744,-0.695 l -0.003,10e-4 c 0.867,-0.464 1.58,-1.126 2.095,-1.903 l 0.001,-0.002 -1.126,-0.745"
       id="path188674"
       inkscape:connector-curvature="0"
       style="fill:#1a1919" />
    <path
       d="m 59.468,140.802 c -1.313,1.978 -3.538,3.296 -6.09,3.327 -21.543,0.264 -24.507,-6.233 -25.492,-8.368 -0.828,-1.851 -1.039,-3.85 -0.607,-5.717 -9.851,-4.804 -12.941,-8.337 -12.498,-13.284 0.116,-1.26 0.527,-2.658 1.387,-3.849 -1.229,-0.681 -2.288,-1.255 -2.996,-1.635 l -0.637,-0.348 C 5.742,107.284 1.935,97.829 0.929,95.018 c -1.377,-3.855 0.637,-8.1 4.487,-9.466 3.85,-1.381 8.095,0.623 9.466,4.478 1.181,3.237 3.501,7.145 4.677,7.863 l 0.622,0.336 c 7.604,4.087 14.723,8.112 18.151,12.498 2.943,3.744 2.41,6.983 1.672,8.813 0.416,0.174 0.854,0.358 1.302,0.543 2.453,1.028 8.09,3.385 7.784,9.139 1.382,0.074 2.785,0.105 4.103,0.094 4.087,-0.052 7.441,3.228 7.493,7.315 0.027,1.54 -0.432,2.974 -1.218,4.171"
       id="path188676"
       inkscape:connector-curvature="0"
       style="fill:#1a1919" />
    <path
       d="m 11.111,90.357 c 0,0 5.226,3.738 10.683,-0.945 5.464,-4.677 3.861,-13.431 3.861,-13.431 0,0 28.513,-46.269 74.862,-67.137 46.342,-20.866 115.472,1.736 115.472,1.736 0,0 -67.622,-7.853 -116.069,23.335 -41.48,26.71 -55.386,73.944 -55.386,73.944 0,0 -10.706,-7.082 -15.103,4.947 L 11.111,90.357"
       id="path188678"
       inkscape:connector-curvature="0"
       style="fill:#1a1919" />
    <path
       d="M 197.843,5.823 C 187.423,4.879 127.464,0.94 83.384,29.311 c -41.481,26.71 -55.393,73.944 -55.393,73.944 0,0 -3.897,-2.552 -7.947,-1.956 l 9.387,11.507 c 4.397,-12.029 15.103,-4.947 15.103,-4.947 0,0 13.906,-47.234 55.386,-73.944 C 148.367,2.727 215.989,10.58 215.989,10.58 c 0,0 -7.061,-2.294 -18.146,-4.757 z"
       id="path188680"
       style="fill:url(#Gradient_2)"
       inkscape:connector-curvature="0" />
    <path
       d="m 197.843,5.823 0.122,-1.344 C 195.127,4.221 188.699,3.748 179.948,3.748 168.062,3.749 151.892,4.62 134.616,8.104 117.341,11.59 98.953,17.686 82.652,28.176 61.664,41.694 47.696,60.358 38.96,75.63 30.225,90.904 26.717,102.803 26.696,102.874 l 1.295,0.381 0.739,-1.129 c -0.049,-0.032 -0.894,-0.583 -2.227,-1.14 -1.334,-0.554 -3.158,-1.125 -5.198,-1.128 -0.476,0 -0.964,0.032 -1.458,0.105 -0.482,0.072 -0.885,0.394 -1.062,0.848 -0.175,0.454 -0.095,0.964 0.213,1.341 l 9.387,11.506 c 0.307,0.378 0.79,0.559 1.27,0.479 0.48,-0.081 0.877,-0.411 1.044,-0.868 0.944,-2.577 2.136,-4.074 3.344,-4.951 1.211,-0.873 2.49,-1.176 3.789,-1.18 1.523,-0.003 3.044,0.454 4.165,0.93 0.561,0.235 1.022,0.473 1.335,0.647 0.158,0.088 0.278,0.159 0.356,0.206 l 0.083,0.054 0.018,0.01 0.027,-0.041 -0.027,0.041 0.027,-0.041 -0.027,0.041 c 0.357,0.236 0.805,0.289 1.207,0.142 0.403,-0.147 0.711,-0.476 0.832,-0.887 l 0.008,-0.027 c 0.194,-0.648 3.8,-12.462 12.414,-27.346 8.613,-14.888 22.229,-32.831 42.402,-45.817 15.919,-10.25 33.993,-16.261 51.037,-19.699 17.042,-3.438 33.047,-4.302 44.806,-4.302 5.92,0 10.765,0.219 14.125,0.438 1.679,0.108 2.987,0.218 3.874,0.3 0.443,0.04 0.78,0.074 1.005,0.098 0.113,0.011 0.198,0.021 0.254,0.027 l 0.08,0.009 c 0.688,0.08 1.327,-0.377 1.475,-1.053 0.147,-0.677 -0.244,-1.358 -0.902,-1.572 -0.032,-0.011 -7.131,-2.316 -18.27,-4.791 l -0.171,-0.026 -0.122,1.344 -0.293,1.318 c 5.515,1.225 10.028,2.408 13.159,3.284 1.565,0.438 2.785,0.799 3.611,1.05 0.413,0.125 0.728,0.223 0.939,0.289 0.105,0.033 0.184,0.059 0.237,0.075 l 0.076,0.025 0.417,-1.284 0.156,-1.341 c -0.041,-0.005 -7.676,-0.89 -19.65,-0.89 -11.891,0 -28.063,0.872 -45.34,4.356 C 133.879,16.191 115.491,22.287 99.19,32.78 78.2,46.298 64.234,64.962 55.5,80.233 46.766,95.508 43.26,107.407 43.238,107.478 l 1.296,0.381 0.744,-1.126 c -0.05,-0.032 -0.896,-0.59 -2.232,-1.154 -1.337,-0.56 -3.167,-1.138 -5.214,-1.141 -1.733,-0.005 -3.645,0.439 -5.373,1.694 -1.729,1.251 -3.222,3.263 -4.296,6.21 l 1.268,0.464 1.046,-0.854 -9.387,-11.506 -1.046,0.853 0.198,1.335 c 0.351,-0.052 0.707,-0.076 1.063,-0.076 1.52,-0.003 3.039,0.45 4.158,0.92 0.56,0.233 1.02,0.468 1.333,0.64 0.157,0.087 0.277,0.157 0.354,0.204 l 0.085,0.052 0.016,0.011 0.027,-0.041 -0.027,0.041 0.027,-0.041 -0.027,0.041 c 0.359,0.234 0.804,0.285 1.206,0.138 0.402,-0.148 0.708,-0.475 0.829,-0.886 l 0.008,-0.028 c 0.194,-0.647 3.801,-12.461 12.416,-27.346 8.614,-14.888 22.232,-32.831 42.404,-45.817 15.92,-10.248 33.993,-16.259 51.036,-19.695 17.041,-3.437 33.044,-4.303 44.798,-4.303 8.653,0 15.003,0.469 17.773,0.719 l 0.122,-1.344 -0.293,1.318 0.293,-1.318"
       id="path188682"
       inkscape:connector-curvature="0"
       style="fill:#1a1919" />
  </g>
</svg>
