<?xml version="1.0" encoding="UTF-8" standalone="no"?>
<!-- Generator: Adobe Illustrator 15.1.0, SVG Export Plug-In . SVG Version: 6.00 Build 0)  -->

<svg
   xmlns:dc="http://purl.org/dc/elements/1.1/"
   xmlns:cc="http://creativecommons.org/ns#"
   xmlns:rdf="http://www.w3.org/1999/02/22-rdf-syntax-ns#"
   xmlns:svg="http://www.w3.org/2000/svg"
   xmlns="http://www.w3.org/2000/svg"
   xmlns:xlink="http://www.w3.org/1999/xlink"
   xmlns:sodipodi="http://sodipodi.sourceforge.net/DTD/sodipodi-0.dtd"
   xmlns:inkscape="http://www.inkscape.org/namespaces/inkscape"
   version="1.1"
   id="flash0.ai"
   x="0px"
   y="0px"
   width="256"
   height="256"
   viewBox="0 0 256 256"
   xml:space="preserve"
   sodipodi:docname="flummery.svg"
   inkscape:version="0.92.4 (5da689c313, 2019-01-14)"
   inkscape:export-xdpi="10.5"
   inkscape:export-ydpi="10.5"><title
   id="title1529">Flummery</title><metadata
   id="metadata722"><rdf:RDF><cc:Work
       rdf:about=""><dc:format>image/svg+xml</dc:format><dc:type
         rdf:resource="http://purl.org/dc/dcmitype/StillImage" /><dc:title>Flummery</dc:title><cc:license
         rdf:resource="http://creativecommons.org/publicdomain/zero/1.0/" /><dc:creator><cc:Agent><dc:title>Glitch</dc:title></cc:Agent></dc:creator><dc:source>https://opengameart.org/node/20149</dc:source></cc:Work><cc:License
       rdf:about="http://creativecommons.org/publicdomain/zero/1.0/"><cc:permits
         rdf:resource="http://creativecommons.org/ns#Reproduction" /><cc:permits
         rdf:resource="http://creativecommons.org/ns#Distribution" /><cc:permits
         rdf:resource="http://creativecommons.org/ns#DerivativeWorks" /></cc:License></rdf:RDF></metadata><defs
   id="defs720">
	
	
	
	
	
	
	
<linearGradient
   inkscape:collect="always"
   xlink:href="#SVGID_1_"
   id="linearGradient2473"
   gradientUnits="userSpaceOnUse"
   x1="0"
   y1="-4.8228002"
   x2="27.5562"
   y2="-4.8228002" /></defs><sodipodi:namedview
   pagecolor="#ffffff"
   bordercolor="#666666"
   borderopacity="1"
   objecttolerance="10"
   gridtolerance="10"
   guidetolerance="10"
   inkscape:pageopacity="0"
   inkscape:pageshadow="2"
   inkscape:window-width="1920"
   inkscape:window-height="1025"
   id="namedview718"
   showgrid="false"
   inkscape:zoom="1.4757282"
   inkscape:cx="88.041518"
   inkscape:cy="58.011233"
   inkscape:window-x="-8"
   inkscape:window-y="-8"
   inkscape:window-maximized="1"
   inkscape:current-layer="flash0.ai"
   fit-margin-top="0"
   fit-margin-left="0"
   fit-margin-right="0"
   fit-margin-bottom="0" />
<symbol
   id="flash0.ai_Assets_x5F_2_x2F_Layer_60_copy_x2F__x3C_Path_x3E_"
   viewBox="-0.002 -2.163 3.456 2.188"
   transform="translate(76.455012,169.43439)">
	<g
   id="Layer_1_9_">
		<path
   style="clip-rule:evenodd;fill:#ffffff;fill-rule:evenodd"
   d="M 0,-1.55 C -0.033,-1.15 0.433,-0.7 1.4,-0.2 1.767,0 2.183,0.067 2.65,0 3.083,-0.067 3.333,-0.2 3.4,-0.4 3.567,-0.767 3.35,-1.167 2.75,-1.6 2.15,-2.033 1.567,-2.217 1,-2.15 0.367,-2.117 0.033,-1.917 0,-1.55 Z"
   id="path2"
   inkscape:connector-curvature="0" />
	</g>
</symbol>
<symbol
   id="flash0.ai_Assets_x5F_2_x2F_Layer_60_copy_x2F__x3C_Path_x3E__x5F_19"
   viewBox="0 -20.45 17.3 20.375"
   transform="translate(76.455012,169.43439)">
	<g
   id="Layer_1_3_">
		<path
   style="clip-rule:evenodd;fill-rule:evenodd"
   d="m 12.25,-1.55 c 0.54,0.54 0.807,1.032 0.8,1.475 0.068,-1.764 0.151,-3.205 0.25,-4.325 0.2,-2.133 0.917,-4.4 2.15,-6.8 0.633,-1.233 1.25,-2.233 1.85,-3 -0.4,-0.933 -1.25,-1.9 -2.55,-2.9 -2.567,-1.967 -6.067,-3.083 -10.5,-3.35 2.433,2.534 3.533,5.367 3.3,8.5 -0.167,2.2 -0.65,3.7 -1.45,4.5 -0.2,0.2 -0.417,0.35 -0.65,0.45 -0.733,0.267 -1.7,0.683 -2.9,1.25 L 0,-4.45 c 1.967,-0.233 4.083,-0.117 6.35,0.35 2.867,0.567 4.833,1.417 5.9,2.55 z"
   id="path6"
   inkscape:connector-curvature="0" />
	</g>
</symbol>


<symbol
   id="flash0.ai_Assets_x5F_2_x2F_Layer_60_copy_x2F__x3C_Path_x3E__x5F_3"
   viewBox="0.012 -4.302 6.074 4.322"
   transform="translate(76.455012,169.43439)">
	<g
   id="Layer_1_8_">
		<path
   style="clip-rule:evenodd;fill:#ffffff;fill-rule:evenodd"
   d="M 2,-0.5 C 2.4,-0.233 2.9,-0.067 3.5,0 4.167,0.067 4.75,-0.033 5.25,-0.3 6.55,-1.067 6.333,-2.017 4.6,-3.15 3.4,-3.95 2.383,-4.333 1.55,-4.3 0.917,-4.267 0.467,-4.017 0.2,-3.55 c -0.533,1 0.067,2.017 1.8,3.05 z"
   id="path18"
   inkscape:connector-curvature="0" />
	</g>
</symbol>
<symbol
   id="flash0.ai_Assets_x5F_2_x2F_Layer_60_copy_x2F__x3C_Path_x3E__x5F_30"
   viewBox="0 -10.614 28.529 10.614"
   transform="translate(76.455012,169.43439)">
	<g
   id="Layer_1_5_">
		<path
   style="clip-rule:evenodd;fill-rule:evenodd"
   d="m 25.95,-0.7 c 2.533,-0.033 3.2,-0.833 2,-2.4 -0.8,-1.033 -2.55,-2.517 -5.25,-4.45 -0.034,-0.034 -0.067,-0.35 -0.1,-0.95 -0.167,-0.667 -0.667,-1.2 -1.5,-1.6 -0.867,-0.4 -1.95,-0.566 -3.25,-0.5 L 15,-10.25 c -5.533,0.3 -9.683,1.6 -12.45,3.9 -1.4,1.167 -2.25,2.3 -2.55,3.4 1.3,1.067 3.067,2.05 5.3,2.95 7.2,-0.433 14.083,-0.667 20.65,-0.7 z"
   id="path22"
   inkscape:connector-curvature="0" />
	</g>
</symbol>
<symbol
   id="flash0.ai_Assets_x5F_2_x2F_Layer_60_copy_x2F__x3C_Path_x3E__x5F_31"
   viewBox="0 -9.612 27.556 9.578"
   transform="translate(76.455012,169.43439)">
	<g
   id="Layer_1_2_">
		<linearGradient
   id="SVGID_1_"
   gradientUnits="userSpaceOnUse"
   x1="0"
   y1="-4.8228002"
   x2="27.5562"
   y2="-4.8228002">
			<stop
   offset="0"
   style="stop-color:#FFF6A1"
   id="stop26" />
			<stop
   offset="1"
   style="stop-color:#CFC785"
   id="stop28" />
		</linearGradient>
		<path
   style="clip-rule:evenodd;fill:url(#linearGradient2473);fill-rule:evenodd"
   d="m 27.3,-9.4 c -1.279,0.664 -2.404,1.014 -3.375,1.05 C 22.951,-8.314 22.092,-8.331 21.35,-8.4 20.614,-8.467 19.83,-8.634 19,-8.9 18.067,-9.167 17.167,-9.383 16.3,-9.55 15.133,-9.75 13.367,-9.467 11,-8.7 10.067,-8.433 8.2,-7.75 5.4,-6.65 4.433,-6.25 2.733,-5.8 0.3,-5.3 0.267,-3.667 0.167,-2.283 0,-1.15 l 1.05,0.2 c 4.4,0.3 8.8,0.534 13.2,0.7 8.8,0.367 13.233,0.267 13.3,-0.3 0.034,-0.567 -0.066,-2.333 -0.3,-5.3 0,-0.433 0.017,-1.617 0.05,-3.55 z"
   id="path31"
   inkscape:connector-curvature="0" />
	</g>
</symbol>
<symbol
   id="flash0.ai_Assets_x5F_2_x2F_Layer_60_copy_x2F__x3C_Path_x3E__x5F_6"
   viewBox="0 -14.2 4.436 14.118"
   transform="translate(76.455012,169.43439)">
	<g
   id="Layer_1_4_">
		<path
   style="clip-rule:evenodd;fill:#fffcdb;fill-rule:evenodd"
   d="m 2.3,-6.75 c 0.2,0.833 0.467,2.567 0.8,5.2 0.167,1.433 0.433,1.817 0.8,1.15 0.5,-0.967 0.65,-2.9 0.45,-5.8 -0.233,-3.267 -0.9,-5.933 -2,-8 -0.933,0.433 -1.717,0.917 -2.35,1.45 0.833,1.233 1.6,3.233 2.3,6 z"
   id="path35"
   inkscape:connector-curvature="0" />
	</g>
</symbol>

<g
   id="g2469"
   transform="matrix(4.8702511,0,0,4.8702511,-123.03704,2.2642056)"><g
     id="g684">
		<g
   id="g387">
			<path
   style="clip-rule:evenodd;fill:#ffffff;fill-rule:evenodd"
   d="m 76.809,30.33 -19.9,7.633 c -0.68,0.246 -1.566,0.354 -2.66,0.322 -1.092,-0.057 -2.163,-0.24 -3.215,-0.551 l -24.83,-7.73 c -0.625,-0.288 -0.939,-0.675 -0.941,-1.16 -0.003,-0.461 0.278,-0.728 0.842,-0.8 0.056,-0.049 0.348,-0.021 0.877,0.083 0.555,0.105 0.901,0.137 1.036,0.093 l 16.181,-4.643 c 1.977,-0.537 3.383,-0.873 4.218,-1.008 0.969,-0.154 1.796,-0.137 2.48,0.052 l 25.863,5.561 c 0.683,0.214 1.039,0.564 1.067,1.052 0,0.51 -0.34,0.876 -1.018,1.096 z"
   id="path372"
   inkscape:connector-curvature="0" />
			<path
   style="clip-rule:evenodd;fill:#d4d5d6;fill-rule:evenodd"
   d="m 68.787,26.693 c 0.083,-0.047 0.495,-0.025 1.238,0.064 l 6.734,1.423 c 0.683,0.214 1.039,0.564 1.067,1.052 0,0.512 -0.34,0.878 -1.019,1.098 l -19.9,7.633 c -0.733,0.243 -1.659,0.336 -2.777,0.277 0.121,-0.274 0.111,-0.595 -0.03,-0.96 -0.141,-0.365 -0.33,-0.592 -0.565,-0.682 9.787,-6.469 14.871,-9.772 15.252,-9.905 z"
   id="path374"
   inkscape:connector-curvature="0" />
			
				<linearGradient
   id="SVGID_41_"
   gradientUnits="userSpaceOnUse"
   x1="19.3018"
   y1="-23.922899"
   x2="48.608501"
   y2="-23.922899"
   gradientTransform="matrix(0.2332,0.7337,-0.7651,0.22,26.1494,11.7501)">
				<stop
   offset="0"
   style="stop-color:#E3E3E3"
   id="stop376" />
				<stop
   offset="1"
   style="stop-color:#FFFFFF"
   id="stop378" />
			</linearGradient>
			<path
   style="clip-rule:evenodd;fill:url(#SVGID_41_);fill-rule:evenodd"
   d="M 76.521,29.702 56.736,36.65 c -0.68,0.246 -1.515,0.381 -2.504,0.406 -0.963,0.027 -1.798,-0.08 -2.507,-0.321 l -25.201,-7.52 c -0.499,-0.154 -0.824,-0.337 -0.973,-0.549 -0.174,-0.239 -0.15,-0.455 0.074,-0.648 0.195,-0.169 0.471,-0.32 0.824,-0.455 L 44.28,22.775 c 2.005,-0.561 3.397,-0.897 4.177,-1.01 0.997,-0.178 1.838,-0.173 2.522,0.016 l 25.466,6.268 c 0.71,0.216 1.07,0.478 1.081,0.785 0.01,0.333 -0.325,0.622 -1.005,0.868 z"
   id="path381"
   inkscape:connector-curvature="0" />
			<path
   style="clip-rule:evenodd;fill:#c9c9c9;fill-rule:evenodd"
   d="m 25.626,28.019 c 0.195,-0.169 0.471,-0.32 0.824,-0.455 l 15.394,-4.148 c -6.022,1.835 -9.224,2.819 -9.605,2.953 -2.964,1.048 -4.086,1.833 -3.366,2.356 0.749,0.498 2.813,1.372 6.192,2.621 2.636,0.987 5.336,1.933 8.103,2.836 L 26.525,29.216 c -0.499,-0.154 -0.824,-0.337 -0.973,-0.549 -0.174,-0.239 -0.15,-0.455 0.074,-0.648 z"
   id="path383"
   inkscape:connector-curvature="0" />
			<path
   style="clip-rule:evenodd;fill:#ffffff;fill-rule:evenodd"
   d="m 77.527,28.834 c 0.009,0.333 -0.326,0.622 -1.007,0.868 L 56.736,36.65 c -0.68,0.246 -1.515,0.381 -2.504,0.406 -0.963,0.027 -1.798,-0.08 -2.507,-0.321 l -3.076,-0.927 c 1.193,0.164 2.15,0.252 2.87,0.264 0.961,0.024 2.073,-0.071 3.339,-0.286 2.67,-0.501 6.325,-1.487 10.967,-2.959 4.074,-1.322 6.958,-2.36 8.652,-3.116 1.178,-0.553 1.837,-0.914 1.979,-1.086 0.171,-0.222 -0.109,-0.479 -0.842,-0.772 l 0.831,0.196 c 0.711,0.216 1.072,0.477 1.082,0.785 z"
   id="path385"
   inkscape:connector-curvature="0" />
		</g>
		<g
   id="g404">
			<g
   id="g398">
				
					<linearGradient
   id="SVGID_42_"
   gradientUnits="userSpaceOnUse"
   x1="36.476101"
   y1="26.7012"
   x2="70.518501"
   y2="26.7012"
   gradientTransform="matrix(0.9986,0.0522,-0.0522,0.9986,1.984127e-4,2.208501e-4)">
					<stop
   offset="0"
   style="stop-color:#8589FF"
   id="stop389" />
					<stop
   offset="1"
   style="stop-color:#404082"
   id="stop391" />
				</linearGradient>
				<path
   style="clip-rule:evenodd;fill:url(#SVGID_42_);fill-rule:evenodd"
   d="m 45.8,34.6 c -1.533,-0.899 -2.55,-1.449 -3.05,-1.649 -0.733,-0.334 -2.183,-0.767 -4.35,-1.3 -1.833,-0.534 -2.917,-0.934 -3.25,-1.2 -0.297,-0.329 -0.031,-0.671 0.8,-1.025 0.826,-0.361 0.159,-0.753 -2,-1.175 -2.157,-0.417 -0.69,-1.575 4.4,-3.475 5.092,-1.903 10.984,-2.353 17.675,-1.35 6.688,0.999 11.297,2.249 13.824,3.75 2.531,1.509 3.056,2.442 1.575,2.8 -1.48,0.353 -2.256,0.661 -2.325,0.926 -0.033,0.033 -0.083,0.183 -0.149,0.449 -0.101,0.267 -0.2,0.567 -0.3,0.9 -0.101,0.333 -0.134,0.717 -0.101,1.15 0,0.166 0.05,0.35 0.15,0.55 0.066,0.133 -0.066,0.566 -0.4,1.3 -0.333,0.7 -0.816,1.05 -1.45,1.05 -0.633,-0.033 -1.083,-0.166 -1.35,-0.399 -0.066,-0.067 -0.15,-0.167 -0.25,-0.301 v -0.05 c -0.1,-1.5 -0.467,-2.217 -1.1,-2.149 -0.2,0.066 -0.417,0.133 -0.65,0.199 -1.5,0.334 -3.217,0.65 -5.15,0.95 -1.1,0.134 -1.933,0.351 -2.5,0.65 -0.566,0.3 -1.116,0.483 -1.649,0.55 -1.233,0.2 -3.117,0.184 -5.65,-0.05 C 47.75,35.566 46.833,35.2 45.8,34.6 Z"
   id="path394"
   inkscape:connector-curvature="0" />
				<path
   style="clip-rule:evenodd;fill:#424386;fill-rule:evenodd"
   d="m 58.35,34.553 c -1.1,0.128 -1.934,0.351 -2.5,0.67 -0.566,0.287 -1.116,0.463 -1.649,0.526 -1.233,0.191 -3.117,0.176 -5.65,-0.048 -0.8,-0.128 -1.717,-0.494 -2.75,-1.102 -1.533,-0.893 -2.55,-1.451 -3.05,-1.675 -0.733,-0.318 -2.184,-0.75 -4.35,-1.292 -1.833,-0.51 -2.917,-0.909 -3.25,-1.196 -0.167,-0.128 -0.217,-0.239 -0.15,-0.335 0.3,0.351 0.816,0.59 1.55,0.719 0.867,0.127 2.017,0.382 3.45,0.765 1.5,0.447 2.566,0.829 3.2,1.149 0.467,0.19 1.283,0.605 2.45,1.244 1.233,0.638 2.45,1.053 3.65,1.244 1.3,0.191 2.417,0.224 3.35,0.095 0.5,-0.095 1.584,-0.366 3.25,-0.813 0.801,-0.224 2.167,-0.479 4.101,-0.766 1.733,-0.287 3.033,-0.575 3.899,-0.862 3.334,-1.181 4.851,-2.313 4.551,-3.397 0.234,0.214 0.401,0.429 0.5,0.646 0.175,0.371 0.191,0.683 0.05,0.935 -0.104,0.287 -0.138,0.543 -0.101,0.765 l -0.1,1.818 c -0.062,0.314 -0.111,0.602 -0.15,0.862 -0.034,0.263 -0.21,0.565 -0.524,0.909 -0.317,0.348 -0.926,0.522 -1.825,0.526 -0.533,0 -0.934,-0.176 -1.2,-0.526 -0.188,-0.382 -0.363,-0.726 -0.524,-1.029 -0.05,-0.137 -0.107,-0.257 -0.176,-0.358 -0.274,-0.428 -0.699,-0.556 -1.274,-0.384 -1.403,0.335 -2.995,0.638 -4.778,0.91 z"
   id="path396"
   inkscape:connector-curvature="0" />
			</g>
			<path
   style="clip-rule:evenodd;fill:#9ca6ff;fill-rule:evenodd"
   d="m 38.313,29.133 0.366,0.671 c 0.125,0.16 0.285,0.438 0.478,0.831 l -0.635,-0.11 c -1.297,-0.221 -2.036,-0.387 -2.217,-0.498 -0.181,-0.112 0.028,-0.28 0.627,-0.505 0.545,-0.227 1.005,-0.357 1.381,-0.389 z"
   id="path400"
   inkscape:connector-curvature="0" />
			<path
   style="clip-rule:evenodd;fill:#9ca6ff;fill-rule:evenodd"
   d="m 35.912,26.684 0.366,0.67 c 0.125,0.16 0.285,0.438 0.478,0.831 l -0.635,-0.11 c -1.297,-0.221 -2.036,-0.387 -2.217,-0.498 -0.181,-0.112 0.028,-0.28 0.627,-0.505 0.545,-0.227 1.006,-0.357 1.381,-0.388 z"
   id="path402"
   inkscape:connector-curvature="0" />
		</g>
		<g
   id="g514">
			
				<use
   xlink:href="#flash0.ai_Assets_x5F_2_x2F_Layer_60_copy_x2F__x3C_Path_x3E__x5F_31"
   width="27.556"
   height="9.5780001"
   y="-9.6120005"
   transform="matrix(0.6483,0.0336,0.0322,-0.6207,-7.9214717,127.44914)"
   style="overflow:visible;opacity:0.21880002;enable-background:new"
   id="use406"
   x="0" />
			
				<use
   xlink:href="#flash0.ai_Assets_x5F_2_x2F_Layer_60_copy_x2F__x3C_Path_x3E__x5F_30"
   width="28.528999"
   height="10.614"
   y="-10.614"
   transform="matrix(0.6483,0.0336,0.0322,-0.6207,-7.6216717,126.14884)"
   style="overflow:visible;opacity:0.21089998;enable-background:new"
   id="use408"
   x="0" />
			<path
   style="clip-rule:evenodd;fill:#fffbd6;fill-rule:evenodd"
   d="m 63.872,16.56 -15.748,7.833 c 0.907,-2.442 1.394,-4.305 1.46,-5.588 0.075,-1.448 0.06,-2.621 -0.045,-3.519 l 1.683,-1.095 c 1.552,-0.688 3.364,-0.957 5.437,-0.807 2.223,0.178 4.089,0.762 5.598,1.753 0.775,0.497 1.313,0.971 1.615,1.423 z"
   id="path410"
   inkscape:connector-curvature="0" />
			
				<linearGradient
   id="SVGID_43_"
   gradientUnits="userSpaceOnUse"
   x1="19.149401"
   y1="14.6035"
   x2="47.7994"
   y2="14.6035"
   gradientTransform="matrix(0.6483,0.0336,-0.0322,0.6207,35.7503,12.2996)">
				<stop
   offset="0"
   style="stop-color:#FFF6A1"
   id="stop412" />
				<stop
   offset="1"
   style="stop-color:#CFC785"
   id="stop414" />
			</linearGradient>
			<path
   style="clip-rule:evenodd;fill:url(#SVGID_43_);fill-rule:evenodd"
   d="m 63.304,17.495 c 0.368,-0.317 0.557,-0.613 0.566,-0.888 -0.013,1.097 -0.006,1.994 0.022,2.692 0.061,1.331 0.453,2.762 1.175,4.293 0.371,0.787 0.738,1.428 1.104,1.925 -0.339,0.667 -1.021,1.306 -2.05,1.916 -2.058,1.221 -4.823,1.71 -8.3,1.468 -2.786,-0.187 -5.007,-0.81 -6.664,-1.871 l -1.644,-1.517 c 0.956,-1.714 1.697,-3.47 2.224,-5.268 0.372,-1.309 0.483,-2.838 0.335,-4.588 l 0.422,0.645 c 0.385,0.518 0.871,0.968 1.458,1.351 1.864,1.238 4.346,1.646 7.444,1.227 1.877,-0.256 3.18,-0.718 3.908,-1.385 z"
   id="path417"
   inkscape:connector-curvature="0" />
			
				<linearGradient
   id="SVGID_44_"
   gradientUnits="userSpaceOnUse"
   x1="19.149401"
   y1="21.153299"
   x2="47.7994"
   y2="21.153299"
   gradientTransform="matrix(0.6483,0.0336,-0.0322,0.6207,35.7503,12.2996)">
				<stop
   offset="0"
   style="stop-color:#D9A318"
   id="stop419" />
				<stop
   offset="1"
   style="stop-color:#A86E16"
   id="stop421" />
			</linearGradient>
			<path
   style="clip-rule:evenodd;fill:url(#SVGID_44_);fill-rule:evenodd"
   d="m 66.171,25.517 c -0.339,0.667 -1.021,1.306 -2.05,1.916 -2.058,1.221 -4.823,1.71 -8.3,1.468 -2.786,-0.187 -5.007,-0.81 -6.664,-1.871 l -1.644,-1.517 0.434,-0.849 c 0.29,0.679 0.952,1.294 1.985,1.846 1.415,0.716 3.309,1.167 5.683,1.353 2.826,0.229 5.18,-0.021 7.06,-0.754 1.549,-0.625 2.524,-1.456 2.925,-2.493 z"
   id="path424"
   inkscape:connector-curvature="0" />
			
				<use
   xlink:href="#flash0.ai_Assets_x5F_2_x2F_Layer_60_copy_x2F__x3C_Path_x3E__x5F_19"
   width="17.299999"
   height="20.375"
   y="-20.450001"
   transform="matrix(0.6483,0.0336,0.0322,-0.6207,0.17862825,118.69914)"
   style="overflow:visible;opacity:0.03130002;enable-background:new"
   id="use426"
   x="0" />
			
				<linearGradient
   id="SVGID_45_"
   gradientUnits="userSpaceOnUse"
   x1="-47.879902"
   y1="4.7002001"
   x2="-18.8887"
   y2="4.7002001"
   gradientTransform="matrix(-0.6126,-0.2083,0.2148,-0.5856,35.7498,12.3004)">
				<stop
   offset="0"
   style="stop-color:#FFF6A1"
   id="stop428" />
				<stop
   offset="1"
   style="stop-color:#CFC785"
   id="stop430" />
			</linearGradient>
			<path
   style="clip-rule:evenodd;fill:url(#SVGID_45_);fill-rule:evenodd"
   d="m 63.444,17.907 c -0.782,0.893 -2.442,1.346 -4.979,1.359 -3.013,0.031 -5.312,-0.566 -6.896,-1.789 -0.5,-0.379 -0.901,-0.793 -1.203,-1.245 l -0.295,-0.576 0.922,-0.854 c 1.028,-0.611 2.598,-0.996 4.708,-1.156 2.24,-0.153 4.276,0.284 6.107,1.313 0.905,0.524 1.593,1.058 2.063,1.601 0.108,0.441 -0.034,0.89 -0.427,1.347 z"
   id="path433"
   inkscape:connector-curvature="0" />
			
				<linearGradient
   id="SVGID_46_"
   gradientUnits="userSpaceOnUse"
   x1="-15.7217"
   y1="24.799299"
   x2="-10.1161"
   y2="24.799299"
   gradientTransform="matrix(0.0033,-0.6216,0.6491,0.0059,35.7502,12.3)">
				<stop
   offset="0"
   style="stop-color:#FFF7AD"
   id="stop435" />
				<stop
   offset="1"
   style="stop-color:#CFC785"
   id="stop437" />
			</linearGradient>
			<path
   style="clip-rule:evenodd;fill:url(#SVGID_46_);fill-rule:evenodd"
   d="m 52.251,19.411 c 0.229,0.178 0.376,0.465 0.442,0.863 0.065,0.418 0.022,0.82 -0.128,1.207 -0.172,0.385 -0.5,0.461 -0.986,0.229 -0.486,-0.232 -0.717,-0.597 -0.691,-1.094 0.028,-0.538 0.167,-0.935 0.419,-1.192 0.276,-0.297 0.59,-0.301 0.944,-0.013 z"
   id="path440"
   inkscape:connector-curvature="0" />
			
				<linearGradient
   id="SVGID_47_"
   gradientUnits="userSpaceOnUse"
   x1="-19.8374"
   y1="27.762699"
   x2="-16.1593"
   y2="27.762699"
   gradientTransform="matrix(0.0057,-0.6215,0.6491,0.0083,35.7502,12.2992)">
				<stop
   offset="0"
   style="stop-color:#FFF7AD"
   id="stop442" />
				<stop
   offset="1"
   style="stop-color:#CFC785"
   id="stop444" />
			</linearGradient>
			<path
   style="clip-rule:evenodd;fill:url(#SVGID_47_);fill-rule:evenodd"
   d="m 53.824,22.915 c 0.36,0.144 0.516,0.494 0.466,1.051 -0.052,0.558 -0.3,0.752 -0.746,0.583 C 53.075,24.4 52.93,24.061 53.109,23.531 53.267,23 53.505,22.795 53.824,22.915 Z"
   id="path447"
   inkscape:connector-curvature="0" />
			
				<linearGradient
   id="SVGID_48_"
   gradientUnits="userSpaceOnUse"
   x1="-20.3853"
   y1="20.9893"
   x2="-17.757299"
   y2="20.9893"
   gradientTransform="matrix(0.0013,-0.6216,0.6491,0.0041,35.7505,12.2998)">
				<stop
   offset="0"
   style="stop-color:#FFF7AD"
   id="stop449" />
				<stop
   offset="1"
   style="stop-color:#CFC785"
   id="stop451" />
			</linearGradient>
			<path
   style="clip-rule:evenodd;fill:url(#SVGID_48_);fill-rule:evenodd"
   d="m 49.816,23.734 c 0.117,0.255 0.004,0.54 -0.337,0.854 -0.341,0.314 -0.551,0.386 -0.629,0.216 -0.057,-0.148 0.076,-0.411 0.399,-0.788 0.301,-0.378 0.49,-0.473 0.567,-0.282 z"
   id="path454"
   inkscape:connector-curvature="0" />
			
				<linearGradient
   id="SVGID_49_"
   gradientUnits="userSpaceOnUse"
   x1="-18.664101"
   y1="39.597698"
   x2="-15.3107"
   y2="39.597698"
   gradientTransform="matrix(0.0032,-0.6216,0.6491,0.0058,35.75,12.3002)">
				<stop
   offset="0"
   style="stop-color:#FFF7AD"
   id="stop456" />
				<stop
   offset="1"
   style="stop-color:#CFC785"
   id="stop458" />
			</linearGradient>
			<path
   style="clip-rule:evenodd;fill:url(#SVGID_49_);fill-rule:evenodd"
   d="m 61.62,22.386 c 0.286,0.326 0.376,0.683 0.27,1.072 -0.107,0.389 -0.342,0.522 -0.704,0.399 -0.34,-0.122 -0.41,-0.447 -0.209,-0.976 0.223,-0.548 0.437,-0.713 0.643,-0.495 z"
   id="path461"
   inkscape:connector-curvature="0" />
			
				<linearGradient
   id="SVGID_50_"
   gradientUnits="userSpaceOnUse"
   x1="-13.7866"
   y1="34.9678"
   x2="-11.5094"
   y2="34.9678"
   gradientTransform="matrix(0.0037,-0.6216,0.6491,0.0064,35.75,12.3004)">
				<stop
   offset="0"
   style="stop-color:#FFF7AD"
   id="stop463" />
				<stop
   offset="1"
   style="stop-color:#CFC785"
   id="stop465" />
			</linearGradient>
			<path
   style="clip-rule:evenodd;fill:url(#SVGID_50_);fill-rule:evenodd"
   d="m 58.413,20.913 c -0.416,0.082 -0.604,-0.063 -0.563,-0.434 0.063,-0.37 0.203,-0.57 0.422,-0.601 0.349,-0.044 0.569,0.092 0.661,0.408 0.092,0.316 -0.08,0.525 -0.52,0.627 z"
   id="path468"
   inkscape:connector-curvature="0" />
			
				<linearGradient
   id="SVGID_51_"
   gradientUnits="userSpaceOnUse"
   x1="-21.369101"
   y1="41.347698"
   x2="-19.216801"
   y2="41.347698"
   gradientTransform="matrix(0.002,-0.6216,0.6491,0.0048,35.7499,12.2999)">
				<stop
   offset="0"
   style="stop-color:#FFF7AD"
   id="stop470" />
				<stop
   offset="1"
   style="stop-color:#CFC785"
   id="stop472" />
			</linearGradient>
			<path
   style="clip-rule:evenodd;fill:url(#SVGID_51_);fill-rule:evenodd"
   d="m 62.762,24.811 c 0.093,0.295 0.07,0.532 -0.069,0.712 -0.118,0.181 -0.236,0.164 -0.355,-0.05 -0.097,-0.212 -0.074,-0.439 0.068,-0.681 0.164,-0.261 0.283,-0.255 0.356,0.019 z"
   id="path475"
   inkscape:connector-curvature="0" />
			
				<linearGradient
   id="SVGID_52_"
   gradientUnits="userSpaceOnUse"
   x1="-27.2236"
   y1="9.3008003"
   x2="-25.0881"
   y2="9.3008003"
   gradientTransform="matrix(-0.5621,-0.3133,0.3247,-0.5369,35.7493,12.2991)">
				<stop
   offset="0"
   style="stop-color:#FFF7AD"
   id="stop477" />
				<stop
   offset="1"
   style="stop-color:#CFC785"
   id="stop479" />
			</linearGradient>
			<path
   style="clip-rule:evenodd;fill:url(#SVGID_52_);fill-rule:evenodd"
   d="m 53.293,14.984 c 0.646,0.096 0.917,0.276 0.817,0.54 -0.121,0.243 -0.462,0.329 -1.021,0.258 -0.494,-0.088 -0.659,-0.252 -0.494,-0.493 0.164,-0.24 0.396,-0.342 0.698,-0.305 z"
   id="path482"
   inkscape:connector-curvature="0" />
			
				<linearGradient
   id="SVGID_53_"
   gradientUnits="userSpaceOnUse"
   x1="-31.3242"
   y1="13.1196"
   x2="-29.021"
   y2="13.1196"
   gradientTransform="matrix(-0.5624,-0.3129,0.3242,-0.5371,35.7507,12.3001)">
				<stop
   offset="0"
   style="stop-color:#FFF7AD"
   id="stop484" />
				<stop
   offset="1"
   style="stop-color:#CFC785"
   id="stop486" />
			</linearGradient>
			<path
   style="clip-rule:evenodd;fill:url(#SVGID_53_);fill-rule:evenodd"
   d="m 56.748,14.167 c 0.621,0.136 0.927,0.307 0.916,0.514 0.012,0.187 -0.295,0.265 -0.922,0.232 -0.584,-0.03 -0.825,-0.178 -0.725,-0.442 0.1,-0.264 0.344,-0.366 0.731,-0.304 z"
   id="path489"
   inkscape:connector-curvature="0" />
			
				<linearGradient
   id="SVGID_54_"
   gradientUnits="userSpaceOnUse"
   x1="-33.215302"
   y1="13.9668"
   x2="-31.9182"
   y2="13.9668"
   gradientTransform="matrix(-0.5599,-0.3169,0.3284,-0.5347,35.7504,12.3004)">
				<stop
   offset="0"
   style="stop-color:#FFF7AD"
   id="stop491" />
				<stop
   offset="1"
   style="stop-color:#CFC785"
   id="stop493" />
			</linearGradient>
			<path
   style="clip-rule:evenodd;fill:url(#SVGID_54_);fill-rule:evenodd"
   d="m 58.816,15.021 c 0.188,0.134 0.205,0.218 0.052,0.251 -0.175,0.032 -0.391,0.011 -0.646,-0.065 -0.256,-0.075 -0.283,-0.17 -0.083,-0.284 0.201,-0.113 0.426,-0.081 0.677,0.098 z"
   id="path496"
   inkscape:connector-curvature="0" />
			
				<linearGradient
   id="SVGID_55_"
   gradientUnits="userSpaceOnUse"
   x1="-37.300301"
   y1="11.1079"
   x2="-35.242802"
   y2="11.1079"
   gradientTransform="matrix(-0.5602,-0.3164,0.3279,-0.535,35.7504,12.2998)">
				<stop
   offset="0"
   style="stop-color:#FFF7AD"
   id="stop498" />
				<stop
   offset="1"
   style="stop-color:#CFC785"
   id="stop500" />
			</linearGradient>
			<path
   style="clip-rule:evenodd;fill:url(#SVGID_55_);fill-rule:evenodd"
   d="m 59.378,17.353 c 0.667,0.097 0.973,0.258 0.918,0.483 -0.055,0.205 -0.308,0.295 -0.762,0.272 -0.389,-0.021 -0.609,-0.167 -0.66,-0.439 -0.029,-0.271 0.139,-0.376 0.504,-0.316 z"
   id="path503"
   inkscape:connector-curvature="0" />
			
				<linearGradient
   id="SVGID_56_"
   gradientUnits="userSpaceOnUse"
   x1="-29.8354"
   y1="7.2153001"
   x2="-28.7397"
   y2="7.2153001"
   gradientTransform="matrix(-0.5622,-0.3132,0.3245,-0.5369,35.7497,12.3)">
				<stop
   offset="0"
   style="stop-color:#FFF7AD"
   id="stop505" />
				<stop
   offset="1"
   style="stop-color:#CFC785"
   id="stop507" />
			</linearGradient>
			<path
   style="clip-rule:evenodd;fill:url(#SVGID_56_);fill-rule:evenodd"
   d="m 54.504,17.318 c 0.302,0.036 0.427,0.125 0.377,0.268 -0.072,0.142 -0.228,0.206 -0.466,0.194 -0.237,-0.012 -0.352,-0.101 -0.344,-0.267 0.031,-0.164 0.175,-0.229 0.433,-0.195 z"
   id="path510"
   inkscape:connector-curvature="0" />
			
				<use
   xlink:href="#flash0.ai_Assets_x5F_2_x2F_Layer_60_copy_x2F__x3C_Path_x3E__x5F_6"
   width="4.4359999"
   height="14.118"
   y="-14.2"
   transform="matrix(0.6483,0.0336,0.0322,-0.6207,-6.4717717,121.39884)"
   style="overflow:visible;opacity:0.67970001;enable-background:new"
   id="use512"
   x="0" />
		</g>
		<g
   id="g624">
			
				<use
   xlink:href="#flash0.ai_Assets_x5F_2_x2F_Layer_60_copy_x2F__x3C_Path_x3E__x5F_31"
   width="27.556"
   height="9.5780001"
   y="-9.6120005"
   transform="matrix(0.7589,0.0394,0.0377,-0.7266,-30.209185,148.3985)"
   style="overflow:visible;opacity:0.21880002;enable-background:new"
   id="use516"
   x="0" />
			
				<use
   xlink:href="#flash0.ai_Assets_x5F_2_x2F_Layer_60_copy_x2F__x3C_Path_x3E__x5F_30"
   width="28.528999"
   height="10.614"
   y="-10.614"
   transform="matrix(0.7589,0.0394,0.0377,-0.7266,-29.959185,146.9483)"
   style="overflow:visible;opacity:0.21089998;enable-background:new"
   id="use518"
   x="0" />
			<path
   style="clip-rule:evenodd;fill:#fffbd6;fill-rule:evenodd"
   d="m 53.817,18.636 -18.434,9.17 c 1.062,-2.859 1.631,-5.04 1.709,-6.542 0.088,-1.695 0.07,-3.068 -0.052,-4.119 l 1.969,-1.282 c 1.817,-0.805 3.938,-1.12 6.365,-0.945 2.602,0.208 4.786,0.892 6.552,2.052 0.908,0.583 1.539,1.138 1.891,1.666 z"
   id="path520"
   inkscape:connector-curvature="0" />
			
				<linearGradient
   id="SVGID_57_"
   gradientUnits="userSpaceOnUse"
   x1="19.149401"
   y1="14.6035"
   x2="47.7994"
   y2="14.6035"
   gradientTransform="matrix(0.7589,0.0394,-0.0377,0.7266,20.9,13.65)">
				<stop
   offset="0"
   style="stop-color:#FFF6A1"
   id="stop522" />
				<stop
   offset="1"
   style="stop-color:#CFC785"
   id="stop524" />
			</linearGradient>
			<path
   style="clip-rule:evenodd;fill:url(#SVGID_57_);fill-rule:evenodd"
   d="m 53.152,19.731 c 0.43,-0.371 0.651,-0.718 0.662,-1.04 -0.015,1.284 -0.006,2.335 0.027,3.152 0.071,1.558 0.529,3.233 1.375,5.026 0.434,0.92 0.864,1.671 1.291,2.252 -0.396,0.781 -1.195,1.528 -2.399,2.243 -2.408,1.43 -5.646,2.002 -9.715,1.718 -3.261,-0.218 -5.861,-0.947 -7.8,-2.189 l -1.924,-1.775 c 1.119,-2.006 1.986,-4.062 2.603,-6.167 0.435,-1.532 0.565,-3.322 0.393,-5.371 l 0.494,0.754 c 0.451,0.606 1.019,1.133 1.706,1.582 2.183,1.449 5.087,1.927 8.714,1.436 2.196,-0.299 3.721,-0.84 4.573,-1.621 z"
   id="path527"
   inkscape:connector-curvature="0" />
			
				<linearGradient
   id="SVGID_58_"
   gradientUnits="userSpaceOnUse"
   x1="19.149401"
   y1="21.153299"
   x2="47.7994"
   y2="21.153299"
   gradientTransform="matrix(0.7589,0.0394,-0.0377,0.7266,20.9,13.65)">
				<stop
   offset="0"
   style="stop-color:#D9A318"
   id="stop529" />
				<stop
   offset="1"
   style="stop-color:#A86E16"
   id="stop531" />
			</linearGradient>
			<path
   style="clip-rule:evenodd;fill:url(#SVGID_58_);fill-rule:evenodd"
   d="m 56.508,29.121 c -0.396,0.781 -1.195,1.528 -2.399,2.243 -2.408,1.43 -5.646,2.002 -9.715,1.718 -3.261,-0.218 -5.861,-0.947 -7.8,-2.189 l -1.924,-1.775 0.508,-0.993 c 0.339,0.794 1.114,1.515 2.323,2.16 1.656,0.838 3.873,1.366 6.652,1.584 3.309,0.269 6.063,-0.025 8.264,-0.883 1.813,-0.731 2.954,-1.705 3.423,-2.919 z"
   id="path534"
   inkscape:connector-curvature="0" />
			
				<use
   xlink:href="#flash0.ai_Assets_x5F_2_x2F_Layer_60_copy_x2F__x3C_Path_x3E__x5F_19"
   width="17.299999"
   height="20.375"
   y="-20.450001"
   transform="matrix(0.7589,0.0394,0.0377,-0.7266,-20.859585,138.4986)"
   style="overflow:visible;opacity:0.03130002;enable-background:new"
   id="use536"
   x="0" />
			
				<linearGradient
   id="SVGID_59_"
   gradientUnits="userSpaceOnUse"
   x1="-47.879902"
   y1="4.7002001"
   x2="-18.8887"
   y2="4.7002001"
   gradientTransform="matrix(-0.717,-0.2439,0.2515,-0.6855,20.8999,13.65)">
				<stop
   offset="0"
   style="stop-color:#FFF6A1"
   id="stop538" />
				<stop
   offset="1"
   style="stop-color:#CFC785"
   id="stop540" />
			</linearGradient>
			<path
   style="clip-rule:evenodd;fill:url(#SVGID_59_);fill-rule:evenodd"
   d="M 53.317,20.213 C 52.4,21.258 50.458,21.789 47.489,21.804 43.962,21.84 41.271,21.142 39.418,19.71 38.833,19.267 38.363,18.781 38.01,18.253 l -0.346,-0.674 1.079,-1 c 1.204,-0.714 3.041,-1.166 5.511,-1.353 2.622,-0.18 5.005,0.333 7.149,1.537 1.06,0.614 1.864,1.238 2.414,1.874 0.126,0.516 -0.041,1.041 -0.5,1.576 z"
   id="path543"
   inkscape:connector-curvature="0" />
			
				<linearGradient
   id="SVGID_60_"
   gradientUnits="userSpaceOnUse"
   x1="-15.7217"
   y1="24.7983"
   x2="-10.1161"
   y2="24.7983"
   gradientTransform="matrix(0.0038,-0.7276,0.7598,0.0069,20.8997,13.6496)">
				<stop
   offset="0"
   style="stop-color:#FFF7AD"
   id="stop545" />
				<stop
   offset="1"
   style="stop-color:#CFC785"
   id="stop547" />
			</linearGradient>
			<path
   style="clip-rule:evenodd;fill:url(#SVGID_60_);fill-rule:evenodd"
   d="m 40.214,21.974 c 0.268,0.208 0.441,0.545 0.518,1.011 0.076,0.49 0.026,0.96 -0.149,1.413 -0.201,0.451 -0.586,0.54 -1.155,0.268 -0.569,-0.272 -0.839,-0.699 -0.809,-1.28 0.033,-0.63 0.196,-1.095 0.491,-1.396 0.322,-0.348 0.69,-0.353 1.104,-0.016 z"
   id="path550"
   inkscape:connector-curvature="0" />
			
				<linearGradient
   id="SVGID_61_"
   gradientUnits="userSpaceOnUse"
   x1="-19.8374"
   y1="27.7637"
   x2="-16.1593"
   y2="27.7637"
   gradientTransform="matrix(0.0067,-0.7276,0.7598,0.0097,20.8998,13.6498)">
				<stop
   offset="0"
   style="stop-color:#FFF7AD"
   id="stop552" />
				<stop
   offset="1"
   style="stop-color:#CFC785"
   id="stop554" />
			</linearGradient>
			<path
   style="clip-rule:evenodd;fill:url(#SVGID_61_);fill-rule:evenodd"
   d="m 42.056,26.076 c 0.423,0.168 0.604,0.578 0.545,1.23 -0.06,0.652 -0.35,0.88 -0.873,0.684 -0.549,-0.175 -0.718,-0.571 -0.509,-1.192 0.185,-0.622 0.464,-0.862 0.837,-0.722 z"
   id="path557"
   inkscape:connector-curvature="0" />
			
				<linearGradient
   id="SVGID_62_"
   gradientUnits="userSpaceOnUse"
   x1="-20.3853"
   y1="20.9893"
   x2="-17.757299"
   y2="20.9893"
   gradientTransform="matrix(0.0016,-0.7276,0.7598,0.0048,20.8995,13.6497)">
				<stop
   offset="0"
   style="stop-color:#FFF7AD"
   id="stop559" />
				<stop
   offset="1"
   style="stop-color:#CFC785"
   id="stop561" />
			</linearGradient>
			<path
   style="clip-rule:evenodd;fill:url(#SVGID_62_);fill-rule:evenodd"
   d="m 37.364,27.035 c 0.137,0.299 0.005,0.632 -0.394,0.999 -0.4,0.368 -0.645,0.452 -0.736,0.254 -0.067,-0.174 0.088,-0.481 0.467,-0.923 0.352,-0.443 0.573,-0.553 0.663,-0.33 z"
   id="path564"
   inkscape:connector-curvature="0" />
			
				<linearGradient
   id="SVGID_63_"
   gradientUnits="userSpaceOnUse"
   x1="-18.664101"
   y1="39.595699"
   x2="-15.3107"
   y2="39.595699"
   gradientTransform="matrix(0.0037,-0.7276,0.7598,0.0068,20.9003,13.6498)">
				<stop
   offset="0"
   style="stop-color:#FFF7AD"
   id="stop566" />
				<stop
   offset="1"
   style="stop-color:#CFC785"
   id="stop568" />
			</linearGradient>
			<path
   style="clip-rule:evenodd;fill:url(#SVGID_63_);fill-rule:evenodd"
   d="m 51.181,25.457 c 0.336,0.382 0.44,0.8 0.315,1.255 -0.125,0.455 -0.399,0.61 -0.823,0.468 -0.398,-0.143 -0.48,-0.523 -0.245,-1.143 0.261,-0.641 0.512,-0.835 0.753,-0.58 z"
   id="path571"
   inkscape:connector-curvature="0" />
			
				<linearGradient
   id="SVGID_64_"
   gradientUnits="userSpaceOnUse"
   x1="-13.7866"
   y1="34.9688"
   x2="-11.5094"
   y2="34.9688"
   gradientTransform="matrix(0.0043,-0.7276,0.7598,0.0074,20.9,13.6498)">
				<stop
   offset="0"
   style="stop-color:#FFF7AD"
   id="stop573" />
				<stop
   offset="1"
   style="stop-color:#CFC785"
   id="stop575" />
			</linearGradient>
			<path
   style="clip-rule:evenodd;fill:url(#SVGID_64_);fill-rule:evenodd"
   d="m 47.428,23.732 c -0.487,0.096 -0.707,-0.073 -0.659,-0.508 0.074,-0.433 0.238,-0.667 0.493,-0.703 0.409,-0.051 0.667,0.107 0.774,0.478 0.108,0.37 -0.095,0.614 -0.608,0.733 z"
   id="path578"
   inkscape:connector-curvature="0" />
			
				<linearGradient
   id="SVGID_65_"
   gradientUnits="userSpaceOnUse"
   x1="-21.369101"
   y1="41.345699"
   x2="-19.216801"
   y2="41.345699"
   gradientTransform="matrix(0.0024,-0.7276,0.7598,0.0056,20.9,13.6492)">
				<stop
   offset="0"
   style="stop-color:#FFF7AD"
   id="stop580" />
				<stop
   offset="1"
   style="stop-color:#CFC785"
   id="stop582" />
			</linearGradient>
			<path
   style="clip-rule:evenodd;fill:url(#SVGID_65_);fill-rule:evenodd"
   d="m 52.518,28.295 c 0.108,0.346 0.082,0.624 -0.081,0.834 -0.138,0.211 -0.276,0.191 -0.416,-0.059 -0.114,-0.249 -0.088,-0.515 0.079,-0.797 0.194,-0.305 0.333,-0.298 0.418,0.022 z"
   id="path585"
   inkscape:connector-curvature="0" />
			
				<linearGradient
   id="SVGID_66_"
   gradientUnits="userSpaceOnUse"
   x1="-27.2236"
   y1="9.2997999"
   x2="-25.0881"
   y2="9.2997999"
   gradientTransform="matrix(-0.658,-0.3668,0.38,-0.6284,20.9004,13.6487)">
				<stop
   offset="0"
   style="stop-color:#FFF7AD"
   id="stop587" />
				<stop
   offset="1"
   style="stop-color:#CFC785"
   id="stop589" />
			</linearGradient>
			<path
   style="clip-rule:evenodd;fill:url(#SVGID_66_);fill-rule:evenodd"
   d="m 41.434,16.792 c 0.755,0.112 1.074,0.323 0.957,0.632 -0.142,0.284 -0.54,0.385 -1.195,0.302 -0.578,-0.103 -0.771,-0.295 -0.579,-0.577 0.192,-0.28 0.464,-0.399 0.817,-0.357 z"
   id="path592"
   inkscape:connector-curvature="0" />
			
				<linearGradient
   id="SVGID_67_"
   gradientUnits="userSpaceOnUse"
   x1="-31.3242"
   y1="13.1196"
   x2="-29.021"
   y2="13.1196"
   gradientTransform="matrix(-0.6583,-0.3663,0.3795,-0.6287,20.9004,13.6503)">
				<stop
   offset="0"
   style="stop-color:#FFF7AD"
   id="stop594" />
				<stop
   offset="1"
   style="stop-color:#CFC785"
   id="stop596" />
			</linearGradient>
			<path
   style="clip-rule:evenodd;fill:url(#SVGID_67_);fill-rule:evenodd"
   d="m 45.479,15.836 c 0.727,0.159 1.084,0.36 1.072,0.602 0.014,0.219 -0.346,0.31 -1.08,0.272 -0.683,-0.035 -0.965,-0.208 -0.848,-0.518 0.118,-0.309 0.403,-0.428 0.856,-0.356 z"
   id="path599"
   inkscape:connector-curvature="0" />
			
				<linearGradient
   id="SVGID_68_"
   gradientUnits="userSpaceOnUse"
   x1="-33.215302"
   y1="13.9673"
   x2="-31.9182"
   y2="13.9673"
   gradientTransform="matrix(-0.6554,-0.371,0.3845,-0.626,20.8998,13.6502)">
				<stop
   offset="0"
   style="stop-color:#FFF7AD"
   id="stop601" />
				<stop
   offset="1"
   style="stop-color:#CFC785"
   id="stop603" />
			</linearGradient>
			<path
   style="clip-rule:evenodd;fill:url(#SVGID_68_);fill-rule:evenodd"
   d="m 47.9,16.836 c 0.22,0.157 0.24,0.255 0.061,0.294 -0.205,0.038 -0.457,0.013 -0.757,-0.076 -0.3,-0.089 -0.332,-0.199 -0.097,-0.333 0.235,-0.133 0.499,-0.095 0.793,0.115 z"
   id="path606"
   inkscape:connector-curvature="0" />
			
				<linearGradient
   id="SVGID_69_"
   gradientUnits="userSpaceOnUse"
   x1="-37.300301"
   y1="11.1084"
   x2="-35.242802"
   y2="11.1084"
   gradientTransform="matrix(-0.6557,-0.3704,0.3838,-0.6263,20.9005,13.65)">
				<stop
   offset="0"
   style="stop-color:#FFF7AD"
   id="stop608" />
				<stop
   offset="1"
   style="stop-color:#CFC785"
   id="stop610" />
			</linearGradient>
			<path
   style="clip-rule:evenodd;fill:url(#SVGID_69_);fill-rule:evenodd"
   d="m 48.557,19.565 c 0.78,0.113 1.138,0.302 1.074,0.566 -0.063,0.239 -0.361,0.346 -0.892,0.318 -0.455,-0.023 -0.712,-0.195 -0.772,-0.514 -0.034,-0.317 0.162,-0.44 0.59,-0.37 z"
   id="path613"
   inkscape:connector-curvature="0" />
			
				<linearGradient
   id="SVGID_70_"
   gradientUnits="userSpaceOnUse"
   x1="-29.8354"
   y1="7.2147999"
   x2="-28.7397"
   y2="7.2147999"
   gradientTransform="matrix(-0.6581,-0.3666,0.3798,-0.6285,20.8997,13.6499)">
				<stop
   offset="0"
   style="stop-color:#FFF7AD"
   id="stop615" />
				<stop
   offset="1"
   style="stop-color:#CFC785"
   id="stop617" />
			</linearGradient>
			<path
   style="clip-rule:evenodd;fill:url(#SVGID_70_);fill-rule:evenodd"
   d="m 42.852,19.524 c 0.353,0.042 0.5,0.147 0.44,0.314 -0.084,0.166 -0.266,0.241 -0.544,0.227 -0.278,-0.014 -0.412,-0.119 -0.402,-0.312 0.035,-0.192 0.204,-0.268 0.506,-0.229 z"
   id="path620"
   inkscape:connector-curvature="0" />
			
				<use
   xlink:href="#flash0.ai_Assets_x5F_2_x2F_Layer_60_copy_x2F__x3C_Path_x3E__x5F_6"
   width="4.4359999"
   height="14.118"
   y="-14.2"
   transform="matrix(0.7589,0.0394,0.0377,-0.7266,-28.859585,141.3487)"
   style="overflow:visible;opacity:0.67970001;enable-background:new"
   id="use622"
   x="0" />
		</g>
		<g
   id="g653">
			
				<radialGradient
   id="SVGID_71_"
   cx="24.3174"
   cy="-7.3916001"
   r="3.9077001"
   gradientTransform="matrix(0.3984,0.6658,0.6309,-0.5045,30.7625,9.8928)"
   gradientUnits="userSpaceOnUse">
				<stop
   offset="0"
   style="stop-color:#8589FF"
   id="stop626" />
				<stop
   offset="1"
   style="stop-color:#404082"
   id="stop628" />
			</radialGradient>
			<path
   style="clip-rule:evenodd;fill:url(#SVGID_71_);fill-rule:evenodd"
   d="m 36.807,28.716 c 0.922,0.227 1.428,0.764 1.518,1.612 0.095,0.746 -0.122,1.323 -0.65,1.729 -0.611,0.454 -1.31,0.533 -2.095,0.236 -0.759,-0.295 -1.188,-0.765 -1.288,-1.408 -0.095,-0.747 0.123,-1.336 0.652,-1.769 0.503,-0.433 1.124,-0.567 1.863,-0.4 z"
   id="path631"
   inkscape:connector-curvature="0" />
			<path
   style="clip-rule:evenodd;fill:#48498f;fill-rule:evenodd"
   d="m 37.675,32.058 c -0.583,0.43 -1.255,0.522 -2.017,0.279 -0.76,-0.27 -1.205,-0.702 -1.334,-1.297 0.42,0.661 0.961,1.034 1.624,1.12 0.611,0.057 1.073,-0.085 1.384,-0.427 0.7,-0.628 0.963,-1.317 0.788,-2.068 0.22,0.396 0.277,0.846 0.17,1.352 -0.105,0.479 -0.311,0.827 -0.615,1.041 z"
   id="path633"
   inkscape:connector-curvature="0" />
			
				<g
   id="use635"
   transform="matrix(0.7988,0.0415,0.0397,-0.7648,34.164688,30.631959)">
	<g
   id="g2507">
		<path
   inkscape:connector-curvature="0"
   id="path2505"
   d="m 1.05,-0.3 c 0.567,0.4 1.133,0.433 1.7,0.1 0.7,-0.4 0.583,-0.9 -0.35,-1.5 -1.2,-0.767 -1.967,-0.833 -2.3,-0.2 -0.267,0.533 0.05,1.067 0.95,1.6 z"
   style="clip-rule:evenodd;fill:#ffffff;fill-rule:evenodd" />
	</g>
</g>
			
				<linearGradient
   id="SVGID_72_"
   gradientUnits="userSpaceOnUse"
   x1="21.308599"
   y1="-11.0342"
   x2="23.468"
   y2="-11.0342"
   gradientTransform="matrix(0.2404,0.7316,-0.7628,0.2269,21.5001,17.2996)">
				<stop
   offset="0"
   style="stop-color:#4F52A8"
   id="stop637" />
				<stop
   offset="1"
   style="stop-color:#363670"
   id="stop639" />
			</linearGradient>
			<path
   style="clip-rule:evenodd;fill:url(#SVGID_72_);fill-rule:evenodd"
   d="m 34.784,30.662 c -0.119,-0.104 -0.114,-0.213 0.017,-0.325 0.144,-0.197 0.275,-0.165 0.395,0.097 l 0.034,0.117 0.086,-0.11 c 0.057,-0.074 0.125,-0.109 0.206,-0.104 0.211,0.036 0.313,0.144 0.304,0.322 -0.032,0.101 -0.076,0.162 -0.13,0.186 l 0.16,0.008 c 0.106,0.006 0.185,0.035 0.236,0.089 0.076,0.08 0.098,0.171 0.066,0.271 -0.031,0.075 -0.073,0.111 -0.126,0.108 l -0.16,-0.008 c 0.208,0.113 0.269,0.231 0.182,0.354 -0.06,0.125 -0.155,0.146 -0.284,0.063 0.016,0.205 -0.069,0.303 -0.255,0.293 -0.106,-0.006 -0.185,-0.035 -0.236,-0.089 l 0.004,-0.077 c -0.06,0.125 -0.143,0.172 -0.248,0.142 -0.052,-0.028 -0.089,-0.082 -0.112,-0.16 l 0.006,-0.114 c -0.057,0.074 -0.137,0.057 -0.238,-0.051 -0.05,-0.054 -0.061,-0.105 -0.032,-0.155 l 0.043,-0.074 c -0.133,-0.007 -0.224,-0.063 -0.271,-0.167 -0.022,-0.078 0.006,-0.128 0.088,-0.149 0.053,0.003 0.106,0.006 0.16,0.009 -0.211,-0.037 -0.272,-0.155 -0.182,-0.354 0.032,-0.101 0.101,-0.148 0.208,-0.143 0.036,0 0.062,0.007 0.079,0.021 z"
   id="path642"
   inkscape:connector-curvature="0" />
			
				<linearGradient
   id="SVGID_73_"
   gradientUnits="userSpaceOnUse"
   x1="-15.7725"
   y1="20.0508"
   x2="-14.3616"
   y2="20.0508"
   gradientTransform="matrix(0.1385,-0.7538,0.7894,0.127,21.5002,17.2999)">
				<stop
   offset="0"
   style="stop-color:#4F52A8"
   id="stop644" />
				<stop
   offset="1"
   style="stop-color:#363670"
   id="stop646" />
			</linearGradient>
			<path
   style="clip-rule:evenodd;fill:url(#SVGID_73_);fill-rule:evenodd"
   d="m 35.496,30.833 c 0.274,0.372 0.3,0.642 0.078,0.81 -0.224,0.192 -0.448,0.143 -0.673,-0.15 -0.2,-0.266 -0.2,-0.509 -0.002,-0.729 0.198,-0.22 0.397,-0.198 0.597,0.069 z"
   id="path649"
   inkscape:connector-curvature="0" />
			
				<g
   id="use651"
   transform="matrix(0.7988,0.0415,0.0397,-0.7648,34.751748,29.728997)">
	<g
   id="g2501">
		<path
   inkscape:connector-curvature="0"
   id="path2499"
   d="M 0,-0.85 C -0.033,-0.617 0.217,-0.367 0.75,-0.1 0.95,0 1.167,0.033 1.4,0 1.6,-0.033 1.733,-0.1 1.8,-0.2 1.9,-0.4 1.783,-0.617 1.45,-0.85 1.15,-1.05 0.85,-1.15 0.55,-1.15 0.183,-1.117 0,-1.017 0,-0.85 Z"
   style="clip-rule:evenodd;fill:#ffffff;fill-rule:evenodd" />
	</g>
</g>
		</g>
		<g
   id="g682">
			
				<radialGradient
   id="SVGID_74_"
   cx="-10.2593"
   cy="-43.358398"
   r="7.4271998"
   gradientTransform="matrix(-0.465,0.6212,-0.5759,-0.5668,30.3523,8.6575)"
   gradientUnits="userSpaceOnUse">
				<stop
   offset="0"
   style="stop-color:#8589FF"
   id="stop655" />
				<stop
   offset="1"
   style="stop-color:#404082"
   id="stop657" />
			</radialGradient>
			<path
   style="clip-rule:evenodd;fill:url(#SVGID_74_);fill-rule:evenodd"
   d="m 58.364,24.623 c 1.399,-0.209 2.542,0.157 3.427,1.098 0.914,0.917 1.2,2.082 0.86,3.496 -0.275,1.187 -1.171,1.971 -2.686,2.353 -1.543,0.405 -2.85,0.12 -3.921,-0.855 -0.917,-0.84 -1.219,-1.968 -0.905,-3.383 0.35,-1.593 1.425,-2.496 3.225,-2.709 z"
   id="path660"
   inkscape:connector-curvature="0" />
			<path
   style="clip-rule:evenodd;fill:#48498f;fill-rule:evenodd"
   d="m 56.045,30.714 c -0.535,-0.487 -0.859,-1.183 -0.973,-2.082 -0.084,-0.95 0.12,-1.796 0.612,-2.537 -0.47,1.33 -0.113,2.703 1.067,4.119 0.578,0.694 1.429,1.021 2.553,0.977 1.309,-0.009 2.407,-0.592 3.295,-1.746 -0.379,1.13 -1.299,1.862 -2.758,2.195 -1.511,0.33 -2.777,0.021 -3.796,-0.926 z"
   id="path662"
   inkscape:connector-curvature="0" />
			
				<use
   xlink:href="#flash0.ai_Assets_x5F_2_x2F_Layer_60_copy_x2F__x3C_Path_x3E__x5F_3"
   width="6.0739999"
   height="4.322"
   x="0.012"
   y="-4.302"
   transform="matrix(0.7988,0.0415,0.0397,-0.7648,-12.298809,151.16054)"
   style="overflow:visible;opacity:0.07029999;enable-background:new"
   id="use664" />
			
				<linearGradient
   id="SVGID_75_"
   gradientUnits="userSpaceOnUse"
   x1="40.278801"
   y1="26.1367"
   x2="37.431801"
   y2="23.158899"
   gradientTransform="matrix(0.7988,0.0415,-0.0397,0.7648,30.7003,8.9998)">
				<stop
   offset="0"
   style="stop-color:#4F52A8"
   id="stop666" />
				<stop
   offset="1"
   style="stop-color:#363670"
   id="stop668" />
			</linearGradient>
			<path
   style="clip-rule:evenodd;fill:url(#SVGID_75_);fill-rule:evenodd"
   d="m 59.116,29.417 c -0.044,-0.182 0.005,-0.346 0.146,-0.491 0.17,-0.196 0.411,-0.222 0.725,-0.078 -0.076,-0.08 -0.123,-0.21 -0.141,-0.391 -0.035,-0.334 0.147,-0.516 0.549,-0.546 0.269,-0.012 0.461,0.139 0.578,0.451 l 0.09,-0.187 c 0.062,-0.15 0.159,-0.248 0.295,-0.292 0.166,-0.094 0.323,-0.047 0.474,0.14 0.227,0.268 0.175,0.495 -0.155,0.683 l 0.243,-0.064 c 0.188,-0.016 0.315,0.094 0.384,0.327 0.114,0.363 -0.016,0.562 -0.392,0.593 0.374,-0.006 0.503,0.09 0.386,0.288 -0.092,0.226 -0.271,0.318 -0.535,0.279 0.233,0.14 0.238,0.306 0.015,0.499 -0.167,0.119 -0.289,0.164 -0.368,0.135 l -0.113,-0.121 c 0.013,0.256 -0.075,0.418 -0.266,0.484 -0.135,0.019 -0.239,-0.025 -0.313,-0.131 l -0.072,-0.157 c 0.017,0.205 -0.148,0.299 -0.495,0.28 -0.239,-0.012 -0.381,-0.121 -0.424,-0.328 l 0.017,-0.306 c -0.248,0.141 -0.432,0.08 -0.552,-0.183 -0.071,-0.156 -0.024,-0.295 0.142,-0.414 0.081,-0.07 0.178,-0.129 0.29,-0.177 -0.112,0.044 -0.219,0.038 -0.32,-0.017 -0.107,-0.03 -0.168,-0.123 -0.188,-0.276 z"
   id="path671"
   inkscape:connector-curvature="0" />
			
				<linearGradient
   id="SVGID_76_"
   gradientUnits="userSpaceOnUse"
   x1="38.5513"
   y1="23.563999"
   x2="39.325901"
   y2="26.1141"
   gradientTransform="matrix(0.7988,0.0415,-0.0397,0.7648,30.7003,8.9998)">
				<stop
   offset="0"
   style="stop-color:#4F52A8"
   id="stop673" />
				<stop
   offset="1"
   style="stop-color:#363670"
   id="stop675" />
			</linearGradient>
			<path
   style="clip-rule:evenodd;fill:url(#SVGID_76_);fill-rule:evenodd"
   d="m 60.427,28.871 c 0.397,-0.465 0.771,-0.472 1.122,-0.019 0.351,0.453 0.3,0.91 -0.151,1.372 -0.505,0.46 -0.935,0.514 -1.29,0.164 -0.381,-0.377 -0.275,-0.883 0.319,-1.517 z"
   id="path678"
   inkscape:connector-curvature="0" />
			
				<use
   xlink:href="#flash0.ai_Assets_x5F_2_x2F_Layer_60_copy_x2F__x3C_Path_x3E_"
   width="3.4560001"
   height="2.188"
   x="-0.0020000001"
   y="-2.1630001"
   transform="matrix(0.7988,0.0415,0.0397,-0.7648,-11.298809,151.36074)"
   style="overflow:visible;opacity:0.14839998;enable-background:new"
   id="use680" />
		</g>
	</g><g
     id="g713">
		
			<radialGradient
   id="SVGID_77_"
   cx="-10.2593"
   cy="-43.358398"
   r="7.4271998"
   gradientTransform="matrix(-0.2809,0.445,-0.4004,-0.3654,52.2076,16.4791)"
   gradientUnits="userSpaceOnUse">
			<stop
   offset="0"
   style="stop-color:#8589FF"
   id="stop686" />
			<stop
   offset="1"
   style="stop-color:#404082"
   id="stop688" />
		</radialGradient>
		<path
   style="clip-rule:evenodd;fill:url(#SVGID_77_);fill-rule:evenodd"
   d="m 71.23,26.294 c 0.911,-0.2 1.676,0.005 2.294,0.614 0.636,0.591 0.87,1.379 0.702,2.362 -0.134,0.825 -0.691,1.399 -1.671,1.723 -0.997,0.341 -1.866,0.198 -2.608,-0.428 -0.636,-0.539 -0.878,-1.3 -0.728,-2.283 0.168,-1.106 0.839,-1.769 2.011,-1.988 z"
   id="path691"
   inkscape:connector-curvature="0" />
		<path
   style="clip-rule:evenodd;fill:#48498f;fill-rule:evenodd"
   d="m 69.947,30.565 c -0.37,-0.313 -0.611,-0.775 -0.721,-1.389 -0.093,-0.648 0.008,-1.236 0.303,-1.765 -0.257,0.931 0.031,1.858 0.862,2.782 0.407,0.453 0.979,0.642 1.715,0.565 0.859,-0.059 1.558,-0.503 2.095,-1.331 -0.204,0.791 -0.779,1.33 -1.724,1.618 -0.98,0.29 -1.824,0.13 -2.53,-0.48 z"
   id="path693"
   inkscape:connector-curvature="0" />
		
			<use
   xlink:href="#flash0.ai_Assets_x5F_2_x2F_Layer_60_copy_x2F__x3C_Path_x3E__x5F_3"
   width="6.0739999"
   height="4.322"
   x="0.012"
   y="-4.302"
   transform="matrix(0.5262,-0.004,-0.004,-0.5262,29.14731,115.9622)"
   style="overflow:visible;opacity:0.07029999;enable-background:new"
   id="use695" />
		
			<linearGradient
   id="SVGID_78_"
   gradientUnits="userSpaceOnUse"
   x1="40.279301"
   y1="26.1357"
   x2="37.432201"
   y2="23.1579"
   gradientTransform="matrix(0.5262,-0.004,0.004,0.5262,52.45,16.7003)">
			<stop
   offset="0"
   style="stop-color:#4F52A8"
   id="stop697" />
			<stop
   offset="1"
   style="stop-color:#363670"
   id="stop699" />
		</linearGradient>
		<path
   style="clip-rule:evenodd;fill:url(#SVGID_78_);fill-rule:evenodd"
   d="m 71.913,29.551 c -0.036,-0.122 -0.011,-0.236 0.076,-0.343 0.104,-0.141 0.263,-0.168 0.474,-0.082 -0.054,-0.053 -0.089,-0.14 -0.107,-0.263 -0.037,-0.228 0.076,-0.359 0.339,-0.396 0.176,-0.02 0.308,0.076 0.396,0.286 l 0.052,-0.132 c 0.035,-0.105 0.096,-0.177 0.183,-0.212 0.105,-0.071 0.21,-0.046 0.316,0.076 0.159,0.175 0.135,0.333 -0.075,0.475 l 0.157,-0.054 c 0.123,-0.019 0.211,0.051 0.265,0.208 0.09,0.245 0.012,0.386 -0.233,0.423 0.245,-0.02 0.334,0.041 0.265,0.183 -0.052,0.157 -0.165,0.229 -0.341,0.213 0.159,0.086 0.169,0.2 0.029,0.342 -0.104,0.088 -0.184,0.124 -0.236,0.106 l -0.079,-0.078 c 0.019,0.176 -0.033,0.29 -0.155,0.344 -0.088,0.018 -0.158,-0.008 -0.211,-0.077 l -0.054,-0.105 c 0.019,0.141 -0.086,0.211 -0.314,0.213 -0.157,10e-4 -0.255,-0.068 -0.291,-0.208 l -0.001,-0.211 c -0.157,0.106 -0.28,0.072 -0.369,-0.103 -0.054,-0.104 -0.028,-0.201 0.076,-0.29 0.051,-0.051 0.112,-0.095 0.184,-0.133 -0.072,0.034 -0.143,0.035 -0.211,0.002 -0.072,-0.018 -0.116,-0.079 -0.135,-0.184 z"
   id="path702"
   inkscape:connector-curvature="0" />
		
			<linearGradient
   id="SVGID_79_"
   gradientUnits="userSpaceOnUse"
   x1="38.5508"
   y1="23.563999"
   x2="39.325401"
   y2="26.1141"
   gradientTransform="matrix(0.5262,-0.004,0.004,0.5262,52.45,16.7003)">
			<stop
   offset="0"
   style="stop-color:#4F52A8"
   id="stop704" />
			<stop
   offset="1"
   style="stop-color:#363670"
   id="stop706" />
		</linearGradient>
		<path
   style="clip-rule:evenodd;fill:url(#SVGID_79_);fill-rule:evenodd"
   d="m 72.752,29.124 c 0.243,-0.335 0.488,-0.354 0.736,-0.059 0.248,0.297 0.232,0.612 -0.045,0.947 -0.313,0.336 -0.594,0.391 -0.841,0.165 -0.265,-0.243 -0.214,-0.594 0.15,-1.053 z"
   id="path709"
   inkscape:connector-curvature="0" />
		
			<use
   xlink:href="#flash0.ai_Assets_x5F_2_x2F_Layer_60_copy_x2F__x3C_Path_x3E_"
   width="3.4560001"
   height="2.188"
   x="-0.0020000001"
   y="-2.1630001"
   transform="matrix(0.5262,-0.004,-0.004,-0.5262,29.89731,115.9124)"
   style="overflow:visible;opacity:0.14839998;enable-background:new"
   id="use711" />
	</g></g></svg>