<?xml version="1.0" encoding="UTF-8" standalone="no"?>
<!-- Generator: Adobe Illustrator 15.1.0, SVG Export Plug-In . SVG Version: 6.00 Build 0)  -->

<svg
   xmlns:dc="http://purl.org/dc/elements/1.1/"
   xmlns:cc="http://creativecommons.org/ns#"
   xmlns:rdf="http://www.w3.org/1999/02/22-rdf-syntax-ns#"
   xmlns:svg="http://www.w3.org/2000/svg"
   xmlns="http://www.w3.org/2000/svg"
   xmlns:sodipodi="http://sodipodi.sourceforge.net/DTD/sodipodi-0.dtd"
   xmlns:inkscape="http://www.inkscape.org/namespaces/inkscape"
   version="1.1"
   id="flash0.ai"
   x="0px"
   y="0px"
   width="256"
   height="256"
   viewBox="0 0 256.00001 256"
   xml:space="preserve"
   sodipodi:docname="cheese_02.svg"
   inkscape:version="0.92.4 (5da689c313, 2019-01-14)"
   inkscape:export-filename="C:\Users\antum\Development\game-resources\icon\CC0\food\individual\Glitch\32x32\cheese_02.png"
   inkscape:export-xdpi="10.5"
   inkscape:export-ydpi="10.5"><title
   id="title903">Cheese</title><metadata
   id="metadata80"><rdf:RDF><cc:Work
       rdf:about=""><dc:format>image/svg+xml</dc:format><dc:type
         rdf:resource="http://purl.org/dc/dcmitype/StillImage" /><dc:title>Cheese</dc:title><cc:license
         rdf:resource="http://creativecommons.org/publicdomain/zero/1.0/" /><dc:creator><cc:Agent><dc:title>Glitch</dc:title></cc:Agent></dc:creator><dc:source>https://opengameart.org/node/20149</dc:source></cc:Work><cc:License
       rdf:about="http://creativecommons.org/publicdomain/zero/1.0/"><cc:permits
         rdf:resource="http://creativecommons.org/ns#Reproduction" /><cc:permits
         rdf:resource="http://creativecommons.org/ns#Distribution" /><cc:permits
         rdf:resource="http://creativecommons.org/ns#DerivativeWorks" /></cc:License></rdf:RDF></metadata><defs
   id="defs78" /><sodipodi:namedview
   pagecolor="#ffffff"
   bordercolor="#666666"
   borderopacity="1"
   objecttolerance="10"
   gridtolerance="10"
   guidetolerance="10"
   inkscape:pageopacity="0"
   inkscape:pageshadow="2"
   inkscape:window-width="1920"
   inkscape:window-height="1025"
   id="namedview76"
   showgrid="false"
   inkscape:zoom="0.959596"
   inkscape:cx="-95.356873"
   inkscape:cy="-24.578649"
   inkscape:window-x="-8"
   inkscape:window-y="-8"
   inkscape:window-maximized="1"
   inkscape:current-layer="flash0.ai"
   fit-margin-top="0"
   fit-margin-left="0"
   fit-margin-right="0"
   fit-margin-bottom="0" />










<linearGradient
   id="SVGID_1_"
   gradientUnits="userSpaceOnUse"
   x1="13.8237"
   y1="0.056600001"
   x2="20.541201"
   y2="0.056600001"
   gradientTransform="matrix(0.7071,0.7071,-0.7071,0.7071,-8.219481e-5,-4.372001e-4)">
	<stop
   offset="0"
   style="stop-color:#C2A353"
   id="stop26" />
	<stop
   offset="1"
   style="stop-color:#F2DC88"
   id="stop28" />
</linearGradient>

<linearGradient
   id="SVGID_2_"
   gradientUnits="userSpaceOnUse"
   x1="19.2334"
   y1="-7.0897999"
   x2="23.5467"
   y2="-7.0897999"
   gradientTransform="matrix(0.7071,0.7071,-0.7071,0.7071,-8.451939e-5,4.87566e-5)">
	<stop
   offset="0"
   style="stop-color:#C2A353"
   id="stop33" />
	<stop
   offset="1"
   style="stop-color:#F2DC88"
   id="stop35" />
</linearGradient>

<linearGradient
   id="SVGID_3_"
   gradientUnits="userSpaceOnUse"
   x1="29.132799"
   y1="-0.1797"
   x2="36.5574"
   y2="-0.1797"
   gradientTransform="matrix(0.7071,0.7071,-0.7071,0.7071,-8.368492e-5,5.25713e-5)">
	<stop
   offset="0"
   style="stop-color:#C2A353"
   id="stop40" />
	<stop
   offset="1"
   style="stop-color:#F2DC88"
   id="stop42" />
</linearGradient>

<linearGradient
   id="SVGID_4_"
   gradientUnits="userSpaceOnUse"
   x1="33.5522"
   y1="-12.6372"
   x2="39.350498"
   y2="-12.6372"
   gradientTransform="matrix(0.7071,0.7071,-0.7071,0.7071,-8.368492e-5,5.25713e-5)">
	<stop
   offset="0"
   style="stop-color:#C2A353"
   id="stop47" />
	<stop
   offset="1"
   style="stop-color:#F2DC88"
   id="stop49" />
</linearGradient>

<linearGradient
   id="SVGID_5_"
   gradientUnits="userSpaceOnUse"
   x1="16.139601"
   y1="-12.937"
   x2="18.932699"
   y2="-12.937"
   gradientTransform="matrix(0.7071,0.7071,-0.7071,0.7071,-8.302927e-5,5.355477e-4)">
	<stop
   offset="0"
   style="stop-color:#C2A353"
   id="stop54" />
	<stop
   offset="1"
   style="stop-color:#F2DC88"
   id="stop56" />
</linearGradient>

<linearGradient
   id="SVGID_6_"
   gradientUnits="userSpaceOnUse"
   x1="26.1807"
   y1="-9.7792997"
   x2="30.670799"
   y2="-9.7792997"
   gradientTransform="matrix(0.7071,0.7071,-0.7071,0.7071,-8.219481e-5,-4.372001e-4)">
	<stop
   offset="0"
   style="stop-color:#C2A353"
   id="stop61" />
	<stop
   offset="1"
   style="stop-color:#F2DC88"
   id="stop63" />
</linearGradient>

<linearGradient
   id="SVGID_7_"
   gradientUnits="userSpaceOnUse"
   x1="23.564501"
   y1="-14.1699"
   x2="25.6504"
   y2="-14.1699"
   gradientTransform="matrix(0.7071,0.7071,-0.7071,0.7071,-8.219481e-5,-4.372001e-4)">
	<stop
   offset="0"
   style="stop-color:#C2A353"
   id="stop68" />
	<stop
   offset="1"
   style="stop-color:#F2DC88"
   id="stop70" />
</linearGradient>
<g
   id="g899"
   transform="matrix(5.9396683,0,0,5.9396683,1.48135e-4,24.49056)"><polygon
     id="polygon2"
     points="22.3,31.7 15.35,29.85 20.75,20.9 42.9,17.95 43.1,20.35 25,34.85 "
     style="clip-rule:evenodd;fill:#ab7422;fill-rule:evenodd" /><polygon
     id="polygon4"
     points="25.75,23.55 31.15,19.7 41.1,18.55 42.4,18.5 42.6,20.75 26.1,33.95 "
     style="clip-rule:evenodd;fill:#e3ca6c;fill-rule:evenodd" /><path
     id="path6"
     d="M 0,17.85 C 0,15.617 0.467,13.633 1.4,11.9 L 2.8,10 16.05,11.95 24.75,29.75 25,34.85 13.75,31 C 10.35,29.9 6.233,28.467 1.4,26.7 1.167,26.467 0.933,25.917 0.7,25.05 0.233,23.317 0,20.917 0,17.85 Z"
     style="clip-rule:evenodd;fill:#cc841d;fill-rule:evenodd"
     inkscape:connector-curvature="0" /><path
     id="path22"
     d="m 42,18.7 -16.5,7.575 0.65,4.774 -1.3,1.05 C 17.217,26.033 11.983,21.816 9.15,19.45 6.183,16.917 4.433,15.4 3.9,14.9 2.567,13.567 1.95,12.517 2.05,11.75 2.183,10.883 2.65,10.033 3.45,9.2 4.283,8.333 5.817,7.133 8.05,5.6 c 4.867,-3.367 8.567,-5.2 11.1,-5.5 1.5,-0.167 2.783,-0.117 3.85,0.15 1.167,0.3 2.5,0.967 4,2 1.3,0.933 3.417,2.867 6.35,5.8 1.533,1.567 3.35,3.45 5.45,5.65 1.3,1.267 2.717,2.716 4.25,4.35 z"
     style="clip-rule:evenodd;fill:#f0a537;fill-rule:evenodd"
     inkscape:connector-curvature="0" /><path
     id="path24"
     d="m 29.15,5.05 c 1.067,1.034 2.7,2.717 4.9,5.05 2.4,2.333 5.184,5.133 8.351,8.4 -5.5,4 -9.2,6.733 -11.101,8.2 -1.867,1.434 -3.633,2.967 -5.3,4.6 -4.633,-3.333 -8.133,-6.166 -10.5,-8.5 -3.1,-2.667 -5.433,-4.683 -7,-6.05 -2.8,-2.5 -4.05,-4.133 -3.75,-4.9 0.4,-1.033 0.883,-1.833 1.45,-2.4 0.7,-0.7 2.1,-1.7 4.2,-3 3.867,-2.367 6.167,-3.733 6.9,-4.1 2.667,-1.267 4.867,-1.567 6.6,-0.9 1.667,0.667 3.417,1.867 5.25,3.6 z"
     style="clip-rule:evenodd;fill:#ffe894;fill-rule:evenodd"
     inkscape:connector-curvature="0" /><path
     id="path31"
     d="m 11.25,8.95 c 2.167,0.033 3.7,0.75 4.6,2.15 0.767,1.233 0.816,2.3 0.15,3.2 -0.633,0.833 -1.683,1.267 -3.15,1.3 -1.6,0 -2.934,-0.567 -4,-1.7 -1,-1.1 -1.083,-2.233 -0.25,-3.4 0.767,-1.033 1.65,-1.55 2.65,-1.55 z"
     style="clip-rule:evenodd;fill:url(#SVGID_1_);fill-rule:evenodd"
     inkscape:connector-curvature="0" /><path
     id="path38"
     d="m 19.8,7.9 c 0.833,0.033 1.534,0.283 2.1,0.75 0.6,0.533 0.883,1.2 0.85,2 -0.067,0.867 -0.533,1.45 -1.4,1.75 -0.867,0.3 -1.717,0.15 -2.55,-0.45 -0.867,-0.633 -1.167,-1.467 -0.9,-2.5 0.233,-1.067 0.867,-1.583 1.9,-1.55 z"
     style="clip-rule:evenodd;fill:url(#SVGID_2_);fill-rule:evenodd"
     inkscape:connector-curvature="0" /><path
     id="path45"
     d="m 25,20.2 c 1.6,0.9 2.5,2.066 2.7,3.5 0.133,1.366 -0.434,2.416 -1.7,3.149 -1.167,0.7 -2.5,0.567 -4,-0.399 -1.367,-0.9 -2.2,-2 -2.5,-3.3 -0.433,-1.733 0.167,-2.816 1.8,-3.25 1.4,-0.4 2.633,-0.3 3.7,0.3 z"
     style="clip-rule:evenodd;fill:url(#SVGID_3_);fill-rule:evenodd"
     inkscape:connector-curvature="0" /><path
     id="path52"
     d="m 35.65,14.4 c 1.733,0.9 2.55,2.033 2.45,3.4 -0.1,1.267 -0.8,2.034 -2.1,2.3 -1.1,0.233 -2.05,-0.1 -2.85,-1 -0.733,-0.867 -1.117,-1.867 -1.15,-3 -0.033,-1.033 0.333,-1.717 1.1,-2.05 0.7,-0.3 1.55,-0.183 2.55,0.35 z"
     style="clip-rule:evenodd;fill:url(#SVGID_4_);fill-rule:evenodd"
     inkscape:connector-curvature="0" /><path
     id="path59"
     d="M 21.75,2.15 C 23.383,2.45 23.833,3.1 23.1,4.1 22.367,5.166 21.517,5.267 20.55,4.4 19.817,3.8 19.6,3.233 19.9,2.7 20.2,2.167 20.817,1.983 21.75,2.15 Z"
     style="clip-rule:evenodd;fill:url(#SVGID_5_);fill-rule:evenodd"
     inkscape:connector-curvature="0" /><path
     id="path66"
     d="m 27.25,11.1 c 1.2,0.4 1.967,1.033 2.3,1.9 0.333,0.8 0.2,1.483 -0.4,2.05 -0.566,0.534 -1.25,0.717 -2.05,0.55 -0.867,-0.167 -1.6,-0.717 -2.2,-1.65 -0.6,-0.934 -0.533,-1.717 0.2,-2.35 0.667,-0.6 1.383,-0.767 2.15,-0.5 z"
     style="clip-rule:evenodd;fill:url(#SVGID_6_);fill-rule:evenodd"
     inkscape:connector-curvature="0" /><path
     id="path73"
     d="m 28,6.65 c 0.8,0.7 0.9,1.25 0.3,1.65 -0.566,0.434 -1.117,0.3 -1.65,-0.4 -0.467,-0.6 -0.467,-1.05 0,-1.35 0.433,-0.3 0.883,-0.267 1.35,0.1 z"
     style="clip-rule:evenodd;fill:url(#SVGID_7_);fill-rule:evenodd"
     inkscape:connector-curvature="0" /></g>
</svg>