<?xml version="1.0" encoding="UTF-8" standalone="no"?>
<!-- Created with Inkscape (http://www.inkscape.org/) -->

<svg
   xmlns:dc="http://purl.org/dc/elements/1.1/"
   xmlns:cc="http://creativecommons.org/ns#"
   xmlns:rdf="http://www.w3.org/1999/02/22-rdf-syntax-ns#"
   xmlns:svg="http://www.w3.org/2000/svg"
   xmlns="http://www.w3.org/2000/svg"
   xmlns:sodipodi="http://sodipodi.sourceforge.net/DTD/sodipodi-0.dtd"
   xmlns:inkscape="http://www.inkscape.org/namespaces/inkscape"
   sodipodi:docname="gem_diamond_turquoise.svg"
   inkscape:version="0.92.4 (5da689c313, 2019-01-14)"
   version="1.1"
   id="svg2"
   viewBox="0 0 256 255.99999"
   height="256"
   width="256"
   inkscape:export-filename="C:\Users\Assem\Desktop\Gem_collection_preview.png"
   inkscape:export-xdpi="90"
   inkscape:export-ydpi="90">
  <title
     id="title1776">Turquoise Diamond Gem</title>
  <defs
     id="defs4" />
  <sodipodi:namedview
     inkscape:window-maximized="1"
     inkscape:window-y="-8"
     inkscape:window-x="-8"
     inkscape:window-height="1025"
     inkscape:window-width="1920"
     inkscape:object-nodes="false"
     showgrid="false"
     inkscape:current-layer="svg2"
     inkscape:document-units="px"
     inkscape:cy="3.7770546"
     inkscape:cx="-214.67199"
     inkscape:zoom="1.4"
     inkscape:pageshadow="2"
     inkscape:pageopacity="0.0"
     borderopacity="1.0"
     bordercolor="#666666"
     pagecolor="#ffffff"
     id="base"
     showguides="false"
     inkscape:snap-smooth-nodes="false"
     units="px"
     inkscape:pagecheckerboard="true"
     fit-margin-top="0"
     fit-margin-left="0"
     fit-margin-right="0"
     fit-margin-bottom="0" />
  <metadata
     id="metadata7">
    <rdf:RDF>
      <cc:Work
         rdf:about="">
        <dc:format>image/svg+xml</dc:format>
        <dc:type
           rdf:resource="http://purl.org/dc/dcmitype/StillImage" />
        <dc:title>Turquoise Diamond Gem</dc:title>
        <cc:license
           rdf:resource="http://creativecommons.org/publicdomain/zero/1.0/" />
        <dc:source>https://opengameart.org/node/69586</dc:source>
        <dc:creator>
          <cc:Agent>
            <dc:title>firestorm200</dc:title>
          </cc:Agent>
        </dc:creator>
        <dc:publisher>
          <cc:Agent>
            <dc:title>OpenGameArt.org</dc:title>
          </cc:Agent>
        </dc:publisher>
      </cc:Work>
      <cc:License
         rdf:about="http://creativecommons.org/publicdomain/zero/1.0/">
        <cc:permits
           rdf:resource="http://creativecommons.org/ns#Reproduction" />
        <cc:permits
           rdf:resource="http://creativecommons.org/ns#Distribution" />
        <cc:permits
           rdf:resource="http://creativecommons.org/ns#DerivativeWorks" />
      </cc:License>
    </rdf:RDF>
  </metadata>
  <g
     id="g842"
     transform="translate(-3.210043,-3.2341844e-6)">
    <rect
       transform="matrix(0.54288883,0.83980457,-0.54288883,0.83980457,0,0)"
       y="-119.70719"
       x="121.98149"
       height="150.14214"
       width="150.14214"
       id="rect4532"
       style="opacity:1;fill:#37c837;fill-opacity:1;stroke:none;stroke-width:1.45534825;stroke-miterlimit:4;stroke-dasharray:none;stroke-opacity:1" />
    <path
       inkscape:connector-curvature="0"
       style="opacity:1;fill:#87decd;fill-opacity:1;stroke:none;stroke-width:1.45534825;stroke-miterlimit:4;stroke-dasharray:none;stroke-opacity:1"
       d="M 131.21004,1.9098664 V 46.433409 L 183.93858,128 h 28.78185 z"
       id="path4534" />
    <path
       inkscape:connector-curvature="0"
       style="opacity:1;fill:#5fd3bc;fill-opacity:1;stroke:none;stroke-width:1.45534825;stroke-miterlimit:4;stroke-dasharray:none;stroke-opacity:1"
       d="M 131.21004,1.9098664 49.699656,128 h 28.78184 L 131.21004,46.433409 Z"
       id="path4536" />
    <rect
       transform="matrix(0.54288883,0.83980457,-0.54288883,0.83980457,0,0)"
       y="-93.198921"
       x="148.48972"
       height="97.125923"
       width="97.125923"
       id="rect4538"
       style="opacity:1;fill:#afe9dd;fill-opacity:1;stroke:none;stroke-width:1.45534825;stroke-miterlimit:4;stroke-dasharray:none;stroke-opacity:1" />
    <path
       style="opacity:1;fill:#37c8ab;fill-opacity:1;stroke:none;stroke-width:1.45534825;stroke-miterlimit:4;stroke-dasharray:none;stroke-opacity:1"
       d="m 131.21011,209.56682 v 44.5235 l 81.51039,-126.0901 h -28.78185 z"
       id="path4540"
       inkscape:connector-curvature="0" />
    <path
       inkscape:connector-curvature="0"
       style="opacity:1;fill:#2ca089;fill-opacity:1;stroke:none;stroke-width:1.45534825;stroke-miterlimit:4;stroke-dasharray:none;stroke-opacity:1"
       d="M 78.481496,128 H 49.699656 L 131.21004,254.09014 V 209.5666 Z"
       id="path4542" />
    <path
       inkscape:connector-curvature="0"
       style="opacity:0.71499999;fill:#d7f4ee;fill-opacity:1;stroke:none;stroke-width:1.45534825;stroke-miterlimit:4;stroke-dasharray:none;stroke-opacity:1"
       d="m 151.56985,77.928128 a 69.694992,84.432114 53.992136 0 1 0.39578,22.095902 6.9961543,6.9961543 0 0 0 -3.01064,-0.690494 6.9961543,6.9961543 0 0 0 -6.99622,6.996224 6.9961543,6.9961543 0 0 0 3.92587,6.2771 4.0446515,4.9191707 0 0 0 -3.05128,4.76397 4.0446515,4.9191707 0 0 0 2.62981,4.60199 69.694992,84.432114 53.992136 0 1 -17.47953,25.66602 10.056972,9.401082 0 0 0 -7.71065,-4.11354 5.2471156,4.4819117 0 0 0 -5.20575,-3.96354 5.2471156,4.4819117 0 0 0 -5.24704,4.48182 5.2471156,4.4819117 0 0 0 1.7259,3.3155 10.056972,9.401082 0 0 0 -1.94471,5.53877 10.056972,9.401082 0 0 0 3.91631,7.43082 69.694992,84.432114 53.992136 0 1 -3.48349,2.40264 69.694992,84.432114 53.992136 0 1 -6.5622,3.92704 L 131.21004,209.5666 183.93858,128 Z m -33.2021,7.595245 a 11.964795,12.849651 23.021748 0 0 -5.88728,1.473649 11.964795,12.849651 23.021748 0 0 -5.87593,17.188388 11.964795,12.849651 23.021748 0 0 16.07825,5.29845 11.964795,12.849651 23.021748 0 0 5.87593,-17.188424 11.964795,12.849651 23.021748 0 0 -10.19097,-6.772063 z"
       id="path4544" />
    <path
       inkscape:connector-curvature="0"
       style="opacity:0.61499999;fill:#d7f4ee;fill-opacity:1;stroke:none;stroke-width:1.45534825;stroke-miterlimit:4;stroke-dasharray:none;stroke-opacity:1"
       d="M 131.21004,15.302127 58.356613,128 131.21004,240.69788 204.06346,128 Z m 0,14.212494 L 194.87567,128 131.21004,226.48539 67.544445,128 Z"
       id="path4550" />
    <path
       inkscape:connector-curvature="0"
       style="display:inline;opacity:1;fill:none;fill-opacity:1;stroke:#0b2822;stroke-width:2.07368326;stroke-miterlimit:4;stroke-dasharray:none;stroke-opacity:1"
       d="M 131.21004,1.9098664 49.699656,128 131.21004,254.09014 212.72043,128 Z m 0,44.5235426 L 183.93858,128 131.21004,209.5666 78.481496,128 Z"
       id="path4546" />
  </g>
</svg>
