<?xml version="1.0" encoding="UTF-8" standalone="no"?>
<!-- Created with Inkscape (http://www.inkscape.org/) -->

<svg
   xmlns:dc="http://purl.org/dc/elements/1.1/"
   xmlns:cc="http://creativecommons.org/ns#"
   xmlns:rdf="http://www.w3.org/1999/02/22-rdf-syntax-ns#"
   xmlns:svg="http://www.w3.org/2000/svg"
   xmlns="http://www.w3.org/2000/svg"
   xmlns:sodipodi="http://sodipodi.sourceforge.net/DTD/sodipodi-0.dtd"
   xmlns:inkscape="http://www.inkscape.org/namespaces/inkscape"
   sodipodi:docname="gem_crystals_blue.svg"
   inkscape:version="0.92.4 (5da689c313, 2019-01-14)"
   version="1.1"
   id="svg2"
   viewBox="0 0 256 255.99999"
   height="256"
   width="256"
   inkscape:export-filename="C:\Users\Assem\Desktop\Gem_collection_preview.png"
   inkscape:export-xdpi="90"
   inkscape:export-ydpi="90">
  <title
     id="title1776">Blue Crystals Gem</title>
  <defs
     id="defs4" />
  <sodipodi:namedview
     inkscape:window-maximized="1"
     inkscape:window-y="-8"
     inkscape:window-x="-8"
     inkscape:window-height="1025"
     inkscape:window-width="1920"
     inkscape:object-nodes="false"
     showgrid="false"
     inkscape:current-layer="svg2"
     inkscape:document-units="px"
     inkscape:cy="36.937451"
     inkscape:cx="227.05069"
     inkscape:zoom="1.4"
     inkscape:pageshadow="2"
     inkscape:pageopacity="0.0"
     borderopacity="1.0"
     bordercolor="#666666"
     pagecolor="#ffffff"
     id="base"
     showguides="false"
     inkscape:snap-smooth-nodes="false"
     units="px"
     inkscape:pagecheckerboard="true"
     fit-margin-top="0"
     fit-margin-left="0"
     fit-margin-right="0"
     fit-margin-bottom="0" />
  <metadata
     id="metadata7">
    <rdf:RDF>
      <cc:Work
         rdf:about="">
        <dc:format>image/svg+xml</dc:format>
        <dc:type
           rdf:resource="http://purl.org/dc/dcmitype/StillImage" />
        <dc:title>Blue Crystals Gem</dc:title>
        <cc:license
           rdf:resource="http://creativecommons.org/publicdomain/zero/1.0/" />
        <dc:source>https://opengameart.org/node/69586</dc:source>
        <dc:creator>
          <cc:Agent>
            <dc:title>firestorm200</dc:title>
          </cc:Agent>
        </dc:creator>
        <dc:publisher>
          <cc:Agent>
            <dc:title>OpenGameArt.org</dc:title>
          </cc:Agent>
        </dc:publisher>
      </cc:Work>
      <cc:License
         rdf:about="http://creativecommons.org/publicdomain/zero/1.0/">
        <cc:permits
           rdf:resource="http://creativecommons.org/ns#Reproduction" />
        <cc:permits
           rdf:resource="http://creativecommons.org/ns#Distribution" />
        <cc:permits
           rdf:resource="http://creativecommons.org/ns#DerivativeWorks" />
      </cc:License>
    </rdf:RDF>
  </metadata>
  <g
     id="g10540"
     transform="matrix(2.0736832,0,0,2.0736832,-1166.8163,-1858.8528)">
    <g
       transform="matrix(0.11149673,0.06437266,-0.06384074,0.11057541,862.28929,306.77451)"
       id="g9624">
      <path
         id="path9626"
         d="m 1158.132,5007.6227 -130.8594,125.9471 130.8594,122.4598 132.5166,-124.2031 z"
         style="opacity:1;fill:#0066ff;fill-opacity:1;stroke:none;stroke-width:4;stroke-miterlimit:4;stroke-dasharray:none;stroke-opacity:1"
         inkscape:connector-curvature="0" />
      <path
         sodipodi:nodetypes="ccccc"
         inkscape:connector-curvature="0"
         id="path9628"
         d="m 1224.7602,5070.0709 -66.8266,-17.9748 -65.9829,19.223 66.1813,184.7105 z"
         style="opacity:1;fill:#0066ff;fill-opacity:1;stroke:none;stroke-width:4;stroke-miterlimit:4;stroke-dasharray:none;stroke-opacity:1" />
      <path
         sodipodi:nodetypes="ccccc"
         inkscape:connector-curvature="0"
         id="path9630"
         d="m 1158.132,5256.0296 -130.8594,-122.4598 54.0044,456.8898 79.0236,50.7697 z"
         style="opacity:1;fill:#0066ff;fill-opacity:1;stroke:none;stroke-width:4;stroke-miterlimit:4;stroke-dasharray:none;stroke-opacity:1" />
      <path
         id="path9632"
         d="m 1158.3845,5300.8309 a 115.54381,252.39827 12.427489 0 1 -89.6523,183.4956 l 12.5448,106.1331 79.0236,50.7697 z"
         style="opacity:0.24800002;fill:#0055d4;fill-opacity:1;stroke:none;stroke-width:4;stroke-miterlimit:4;stroke-dasharray:none;stroke-opacity:1"
         inkscape:connector-curvature="0" />
      <path
         sodipodi:nodetypes="cccccc"
         inkscape:connector-curvature="0"
         id="path9634"
         d="m 1158.132,5256.0296 2.1686,385.1997 v 0 l 79.0228,-51.8164 51.3252,-457.5864 z"
         style="opacity:1;fill:#2a7fff;fill-opacity:1;stroke:none;stroke-width:5.69948292;stroke-miterlimit:4;stroke-dasharray:none;stroke-opacity:1" />
      <path
         sodipodi:nodetypes="ccccc"
         inkscape:connector-curvature="0"
         style="opacity:0.856;fill:#0055d4;fill-opacity:1;stroke:none;stroke-width:4;stroke-miterlimit:4;stroke-dasharray:none;stroke-opacity:1"
         d="m 1158.3845,5300.8309 c 17.8913,76.8961 54.8987,144.7974 93.4845,183.4956 l -12.5448,106.1331 -79.0236,50.7697 z"
         id="path9636" />
      <path
         id="path9638"
         d="m 1091.9507,5071.3191 -64.6781,62.2507 130.8594,122.4598 z"
         style="opacity:1;fill:#2a7fff;fill-opacity:1;stroke:none;stroke-width:4;stroke-miterlimit:4;stroke-dasharray:none;stroke-opacity:1"
         inkscape:connector-curvature="0" />
      <path
         sodipodi:nodetypes="ccccc"
         inkscape:connector-curvature="0"
         id="path9640"
         d="m 1158.132,5007.6227 -66.1813,63.6964 65.9829,-19.223 66.8266,17.9748 z"
         style="opacity:1;fill:#2a7fff;fill-opacity:1;stroke:none;stroke-width:4;stroke-miterlimit:4;stroke-dasharray:none;stroke-opacity:1" />
      <path
         id="path9642"
         d="m 1224.7602,5070.0709 -66.6282,185.9587 132.5166,-124.2031 z"
         style="opacity:1;fill:#5599ff;fill-opacity:1;stroke:none;stroke-width:4;stroke-miterlimit:4;stroke-dasharray:none;stroke-opacity:1"
         inkscape:connector-curvature="0" />
      <path
         style="opacity:1;fill:none;fill-opacity:1;stroke:#00112b;stroke-width:5.69948292;stroke-miterlimit:4;stroke-dasharray:none;stroke-opacity:1"
         d="m 1158.132,5007.6227 -130.8594,125.9471 130.8594,122.4598 132.5166,-124.2031 z"
         id="path9644"
         inkscape:connector-curvature="0" />
      <path
         sodipodi:nodetypes="ccccc"
         inkscape:connector-curvature="0"
         id="path9646"
         d="m 1159.5487,5512.5378 c -44.4727,18.3124 -60.0713,48.6593 -78.2717,77.9218 v 0 l 78.7346,-0.5214 z"
         style="opacity:0.27000002;fill:#5599ff;fill-opacity:1;stroke:none;stroke-width:4;stroke-miterlimit:4;stroke-dasharray:none;stroke-opacity:1" />
      <path
         sodipodi:nodetypes="ccccc"
         inkscape:connector-curvature="0"
         id="path9648"
         d="m 1159.5487,5512.5378 0.4629,77.4004 79.3118,-0.5253 v 0 c -26.6095,-46.431 -53.1926,-62.2733 -79.7747,-76.8751 z"
         style="opacity:0.27000002;fill:#5599ff;fill-opacity:1;stroke:none;stroke-width:4;stroke-miterlimit:4;stroke-dasharray:none;stroke-opacity:1" />
      <path
         sodipodi:nodetypes="ccccc"
         inkscape:connector-curvature="0"
         id="path9650"
         d="m 1160.0116,5589.9382 c -32.8098,-12.8195 -55.1692,-4.9704 -78.7346,0.5214 l 76.855,49.3766 2.1686,1.3931 z"
         style="opacity:0.27000002;fill:#aaccff;fill-opacity:1;stroke:none;stroke-width:4;stroke-miterlimit:4;stroke-dasharray:none;stroke-opacity:1" />
      <path
         sodipodi:nodetypes="cccc"
         inkscape:connector-curvature="0"
         id="path9652"
         d="m 1160.0116,5589.9382 0.289,51.2911 79.0228,-51.8164 c -25.686,-3.9568 -50.7488,-11.3412 -79.3118,0.5253 z"
         style="opacity:0.27000002;fill:#aaccff;fill-opacity:1;stroke:none;stroke-width:4;stroke-miterlimit:4;stroke-dasharray:none;stroke-opacity:1" />
      <path
         sodipodi:nodetypes="cc"
         inkscape:connector-curvature="0"
         id="path9654"
         d="m 1158.132,5256.0296 2.1686,385.1997"
         style="fill:none;fill-rule:evenodd;stroke:#00112b;stroke-width:5.69948292;stroke-linecap:butt;stroke-linejoin:miter;stroke-opacity:1" />
      <rect
         transform="matrix(0.98769702,0.15637965,-0.11179315,0.9937315,0,0)"
         ry="9.2037373"
         y="4993.1304"
         x="1830.1531"
         height="180.07312"
         width="14.968219"
         id="rect9656"
         style="opacity:0.72600002;fill:#d5e5ff;fill-opacity:1;stroke:none;stroke-width:4;stroke-miterlimit:4;stroke-dasharray:none;stroke-opacity:1" />
      <path
         inkscape:connector-curvature="0"
         id="path9658"
         d="m 1268.0921,5199.5647 a 5.3837658,5.1004096 0 0 0 -5.0711,3.4053 10.767532,16.789713 4.6052058 0 0 -3.1039,-0.9987 10.767532,16.789713 4.6052058 0 0 -12.0807,15.871 10.767532,16.789713 4.6052058 0 0 9.3852,17.5996 10.767532,16.789713 4.6052058 0 0 12.0807,-15.871 10.767532,16.789713 4.6052058 0 0 -1.2017,-9.8059 5.3837658,5.1004096 0 0 0 5.3748,-5.0997 5.3837658,5.1004096 0 0 0 -5.3833,-5.1006 z"
         style="opacity:0.72600002;fill:#d5e5ff;fill-opacity:1;stroke:none;stroke-width:4;stroke-miterlimit:4;stroke-dasharray:none;stroke-opacity:1" />
      <path
         id="path9660"
         d="m 1158.132,5007.6227 -130.8594,125.9471 54.0044,456.8898 76.855,49.3766 2.1686,1.3931 79.0228,-51.8164 51.3252,-457.5864 z"
         style="opacity:1;fill:none;fill-opacity:1;stroke:#00112b;stroke-width:5.69948292;stroke-miterlimit:4;stroke-dasharray:none;stroke-opacity:1"
         inkscape:connector-curvature="0" />
    </g>
    <g
       id="g9862"
       transform="matrix(-0.11149673,0.06437266,0.06384074,0.11057541,386.51891,306.77451)">
      <path
         inkscape:connector-curvature="0"
         style="opacity:1;fill:#0066ff;fill-opacity:1;stroke:none;stroke-width:4;stroke-miterlimit:4;stroke-dasharray:none;stroke-opacity:1"
         d="m 1158.132,5007.6227 -130.8594,125.9471 130.8594,122.4598 132.5166,-124.2031 z"
         id="path9864" />
      <path
         style="opacity:1;fill:#0066ff;fill-opacity:1;stroke:none;stroke-width:4;stroke-miterlimit:4;stroke-dasharray:none;stroke-opacity:1"
         d="m 1224.7602,5070.0709 -66.8266,-17.9748 -65.9829,19.223 66.1813,184.7105 z"
         id="path9866"
         inkscape:connector-curvature="0"
         sodipodi:nodetypes="ccccc" />
      <path
         style="opacity:1;fill:#0066ff;fill-opacity:1;stroke:none;stroke-width:4;stroke-miterlimit:4;stroke-dasharray:none;stroke-opacity:1"
         d="m 1158.132,5256.0296 -130.8594,-122.4598 54.0044,456.8898 79.0236,50.7697 z"
         id="path9868"
         inkscape:connector-curvature="0"
         sodipodi:nodetypes="ccccc" />
      <path
         inkscape:connector-curvature="0"
         style="opacity:0.24800002;fill:#0055d4;fill-opacity:1;stroke:none;stroke-width:4;stroke-miterlimit:4;stroke-dasharray:none;stroke-opacity:1"
         d="m 1158.3845,5300.8309 a 115.54381,252.39827 12.427489 0 1 -89.6523,183.4956 l 12.5448,106.1331 79.0236,50.7697 z"
         id="path9870" />
      <path
         style="opacity:1;fill:#2a7fff;fill-opacity:1;stroke:none;stroke-width:5.69948292;stroke-miterlimit:4;stroke-dasharray:none;stroke-opacity:1"
         d="m 1158.132,5256.0296 2.1686,385.1997 v 0 l 79.0228,-51.8164 51.3252,-457.5864 z"
         id="path9872"
         inkscape:connector-curvature="0"
         sodipodi:nodetypes="cccccc" />
      <path
         id="path9874"
         d="m 1158.3845,5300.8309 c 17.8913,76.8961 54.8987,144.7974 93.4845,183.4956 l -12.5448,106.1331 -79.0236,50.7697 z"
         style="opacity:0.856;fill:#0055d4;fill-opacity:1;stroke:none;stroke-width:4;stroke-miterlimit:4;stroke-dasharray:none;stroke-opacity:1"
         inkscape:connector-curvature="0"
         sodipodi:nodetypes="ccccc" />
      <path
         inkscape:connector-curvature="0"
         style="opacity:1;fill:#2a7fff;fill-opacity:1;stroke:none;stroke-width:4;stroke-miterlimit:4;stroke-dasharray:none;stroke-opacity:1"
         d="m 1091.9507,5071.3191 -64.6781,62.2507 130.8594,122.4598 z"
         id="path9876" />
      <path
         style="opacity:1;fill:#2a7fff;fill-opacity:1;stroke:none;stroke-width:4;stroke-miterlimit:4;stroke-dasharray:none;stroke-opacity:1"
         d="m 1158.132,5007.6227 -66.1813,63.6964 65.9829,-19.223 66.8266,17.9748 z"
         id="path9878"
         inkscape:connector-curvature="0"
         sodipodi:nodetypes="ccccc" />
      <path
         inkscape:connector-curvature="0"
         style="opacity:1;fill:#5599ff;fill-opacity:1;stroke:none;stroke-width:4;stroke-miterlimit:4;stroke-dasharray:none;stroke-opacity:1"
         d="m 1224.7602,5070.0709 -66.6282,185.9587 132.5166,-124.2031 z"
         id="path9880" />
      <path
         inkscape:connector-curvature="0"
         id="path9882"
         d="m 1158.132,5007.6227 -130.8594,125.9471 130.8594,122.4598 132.5166,-124.2031 z"
         style="opacity:1;fill:none;fill-opacity:1;stroke:#00112b;stroke-width:5.69948292;stroke-miterlimit:4;stroke-dasharray:none;stroke-opacity:1" />
      <path
         style="opacity:0.27000002;fill:#5599ff;fill-opacity:1;stroke:none;stroke-width:4;stroke-miterlimit:4;stroke-dasharray:none;stroke-opacity:1"
         d="m 1159.5487,5512.5378 c -44.4727,18.3124 -60.0713,48.6593 -78.2717,77.9218 v 0 l 78.7346,-0.5214 z"
         id="path9884"
         inkscape:connector-curvature="0"
         sodipodi:nodetypes="ccccc" />
      <path
         style="opacity:0.27000002;fill:#5599ff;fill-opacity:1;stroke:none;stroke-width:4;stroke-miterlimit:4;stroke-dasharray:none;stroke-opacity:1"
         d="m 1159.5487,5512.5378 0.4629,77.4004 79.3118,-0.5253 v 0 c -26.6095,-46.431 -53.1926,-62.2733 -79.7747,-76.8751 z"
         id="path9886"
         inkscape:connector-curvature="0"
         sodipodi:nodetypes="ccccc" />
      <path
         style="opacity:0.27000002;fill:#aaccff;fill-opacity:1;stroke:none;stroke-width:4;stroke-miterlimit:4;stroke-dasharray:none;stroke-opacity:1"
         d="m 1160.0116,5589.9382 c -32.8098,-12.8195 -55.1692,-4.9704 -78.7346,0.5214 l 76.855,49.3766 2.1686,1.3931 z"
         id="path9888"
         inkscape:connector-curvature="0"
         sodipodi:nodetypes="ccccc" />
      <path
         style="opacity:0.27000002;fill:#aaccff;fill-opacity:1;stroke:none;stroke-width:4;stroke-miterlimit:4;stroke-dasharray:none;stroke-opacity:1"
         d="m 1160.0116,5589.9382 0.289,51.2911 79.0228,-51.8164 c -25.686,-3.9568 -50.7488,-11.3412 -79.3118,0.5253 z"
         id="path9890"
         inkscape:connector-curvature="0"
         sodipodi:nodetypes="cccc" />
      <path
         style="fill:none;fill-rule:evenodd;stroke:#00112b;stroke-width:5.69948292;stroke-linecap:butt;stroke-linejoin:miter;stroke-opacity:1"
         d="m 1158.132,5256.0296 2.1686,385.1997"
         id="path9892"
         inkscape:connector-curvature="0"
         sodipodi:nodetypes="cc" />
      <rect
         style="opacity:0.72600002;fill:#d5e5ff;fill-opacity:1;stroke:none;stroke-width:4;stroke-miterlimit:4;stroke-dasharray:none;stroke-opacity:1"
         id="rect9894"
         width="14.968219"
         height="180.07312"
         x="1830.1531"
         y="4993.1304"
         ry="9.2037373"
         transform="matrix(0.98769702,0.15637965,-0.11179315,0.9937315,0,0)" />
      <path
         style="opacity:0.72600002;fill:#d5e5ff;fill-opacity:1;stroke:none;stroke-width:4;stroke-miterlimit:4;stroke-dasharray:none;stroke-opacity:1"
         d="m 1268.0921,5199.5647 a 5.3837658,5.1004096 0 0 0 -5.0711,3.4053 10.767532,16.789713 4.6052058 0 0 -3.1039,-0.9987 10.767532,16.789713 4.6052058 0 0 -12.0807,15.871 10.767532,16.789713 4.6052058 0 0 9.3852,17.5996 10.767532,16.789713 4.6052058 0 0 12.0807,-15.871 10.767532,16.789713 4.6052058 0 0 -1.2017,-9.8059 5.3837658,5.1004096 0 0 0 5.3748,-5.0997 5.3837658,5.1004096 0 0 0 -5.3833,-5.1006 z"
         id="path9896"
         inkscape:connector-curvature="0" />
      <path
         inkscape:connector-curvature="0"
         style="opacity:1;fill:none;fill-opacity:1;stroke:#00112b;stroke-width:5.69948292;stroke-miterlimit:4;stroke-dasharray:none;stroke-opacity:1"
         d="m 1158.132,5007.6227 -130.8594,125.9471 54.0044,456.8898 76.855,49.3766 2.1686,1.3931 79.0228,-51.8164 51.3252,-457.5864 z"
         id="path9898" />
    </g>
    <g
       id="g9278"
       transform="matrix(0.17545451,0,0,0.17545451,420.8831,23.979639)">
      <path
         inkscape:connector-curvature="0"
         style="opacity:1;fill:#0066ff;fill-opacity:1;stroke:none;stroke-width:4;stroke-miterlimit:4;stroke-dasharray:none;stroke-opacity:1"
         d="m 1158.132,5007.6227 -130.8594,125.9471 130.8594,122.4598 132.5166,-124.2031 z"
         id="path9280" />
      <path
         style="opacity:1;fill:#0066ff;fill-opacity:1;stroke:none;stroke-width:4;stroke-miterlimit:4;stroke-dasharray:none;stroke-opacity:1"
         d="m 1224.7602,5070.0709 -66.8266,-17.9748 -65.9829,19.223 66.1813,184.7105 z"
         id="path9282"
         inkscape:connector-curvature="0"
         sodipodi:nodetypes="ccccc" />
      <path
         style="opacity:1;fill:#0066ff;fill-opacity:1;stroke:none;stroke-width:4;stroke-miterlimit:4;stroke-dasharray:none;stroke-opacity:1"
         d="m 1158.132,5256.0296 -130.8594,-122.4598 54.0044,456.8898 79.0236,50.7697 z"
         id="path9284"
         inkscape:connector-curvature="0"
         sodipodi:nodetypes="ccccc" />
      <path
         inkscape:connector-curvature="0"
         style="opacity:0.24800002;fill:#0055d4;fill-opacity:1;stroke:none;stroke-width:4;stroke-miterlimit:4;stroke-dasharray:none;stroke-opacity:1"
         d="m 1158.3845,5300.8309 a 115.54381,252.39827 12.427489 0 1 -89.6523,183.4956 l 12.5448,106.1331 79.0236,50.7697 z"
         id="path9286" />
      <path
         style="opacity:1;fill:#2a7fff;fill-opacity:1;stroke:none;stroke-width:5.69948292;stroke-miterlimit:4;stroke-dasharray:none;stroke-opacity:1"
         d="m 1158.132,5256.0296 2.1686,385.1997 v 0 l 79.0228,-51.8164 51.3252,-457.5864 z"
         id="path9288"
         inkscape:connector-curvature="0"
         sodipodi:nodetypes="cccccc" />
      <path
         id="path9290"
         d="m 1158.3845,5300.8309 c 17.8913,76.8961 54.8987,144.7974 93.4845,183.4956 l -12.5448,106.1331 -79.0236,50.7697 z"
         style="opacity:0.856;fill:#0055d4;fill-opacity:1;stroke:none;stroke-width:4;stroke-miterlimit:4;stroke-dasharray:none;stroke-opacity:1"
         inkscape:connector-curvature="0"
         sodipodi:nodetypes="ccccc" />
      <path
         inkscape:connector-curvature="0"
         style="opacity:1;fill:#2a7fff;fill-opacity:1;stroke:none;stroke-width:4;stroke-miterlimit:4;stroke-dasharray:none;stroke-opacity:1"
         d="m 1091.9507,5071.3191 -64.6781,62.2507 130.8594,122.4598 z"
         id="path9292" />
      <path
         style="opacity:1;fill:#2a7fff;fill-opacity:1;stroke:none;stroke-width:4;stroke-miterlimit:4;stroke-dasharray:none;stroke-opacity:1"
         d="m 1158.132,5007.6227 -66.1813,63.6964 65.9829,-19.223 66.8266,17.9748 z"
         id="path9294"
         inkscape:connector-curvature="0"
         sodipodi:nodetypes="ccccc" />
      <path
         inkscape:connector-curvature="0"
         style="opacity:1;fill:#5599ff;fill-opacity:1;stroke:none;stroke-width:4;stroke-miterlimit:4;stroke-dasharray:none;stroke-opacity:1"
         d="m 1224.7602,5070.0709 -66.6282,185.9587 132.5166,-124.2031 z"
         id="path9296" />
      <path
         inkscape:connector-curvature="0"
         id="path9298"
         d="m 1158.132,5007.6227 -130.8594,125.9471 130.8594,122.4598 132.5166,-124.2031 z"
         style="opacity:1;fill:none;fill-opacity:1;stroke:#00112b;stroke-width:5.69948292;stroke-miterlimit:4;stroke-dasharray:none;stroke-opacity:1" />
      <path
         style="opacity:0.27000002;fill:#5599ff;fill-opacity:1;stroke:none;stroke-width:4;stroke-miterlimit:4;stroke-dasharray:none;stroke-opacity:1"
         d="m 1159.5487,5512.5378 c -44.4727,18.3124 -60.0713,48.6593 -78.2717,77.9218 v 0 l 78.7346,-0.5214 z"
         id="path9300"
         inkscape:connector-curvature="0"
         sodipodi:nodetypes="ccccc" />
      <path
         style="opacity:0.27000002;fill:#5599ff;fill-opacity:1;stroke:none;stroke-width:4;stroke-miterlimit:4;stroke-dasharray:none;stroke-opacity:1"
         d="m 1159.5487,5512.5378 0.4629,77.4004 79.3118,-0.5253 v 0 c -26.6095,-46.431 -53.1926,-62.2733 -79.7747,-76.8751 z"
         id="path9302"
         inkscape:connector-curvature="0"
         sodipodi:nodetypes="ccccc" />
      <path
         style="opacity:0.27000002;fill:#aaccff;fill-opacity:1;stroke:none;stroke-width:4;stroke-miterlimit:4;stroke-dasharray:none;stroke-opacity:1"
         d="m 1160.0116,5589.9382 c -32.8098,-12.8195 -55.1692,-4.9704 -78.7346,0.5214 l 76.855,49.3766 2.1686,1.3931 z"
         id="path9304"
         inkscape:connector-curvature="0"
         sodipodi:nodetypes="ccccc" />
      <path
         style="opacity:0.27000002;fill:#aaccff;fill-opacity:1;stroke:none;stroke-width:4;stroke-miterlimit:4;stroke-dasharray:none;stroke-opacity:1"
         d="m 1160.0116,5589.9382 0.289,51.2911 79.0228,-51.8164 c -25.686,-3.9568 -50.7488,-11.3412 -79.3118,0.5253 z"
         id="path9306"
         inkscape:connector-curvature="0"
         sodipodi:nodetypes="cccc" />
      <path
         style="fill:none;fill-rule:evenodd;stroke:#00112b;stroke-width:5.69948292;stroke-linecap:butt;stroke-linejoin:miter;stroke-opacity:1"
         d="m 1158.132,5256.0296 2.1686,385.1997"
         id="path9308"
         inkscape:connector-curvature="0"
         sodipodi:nodetypes="cc" />
      <rect
         style="opacity:0.72600002;fill:#d5e5ff;fill-opacity:1;stroke:none;stroke-width:4;stroke-miterlimit:4;stroke-dasharray:none;stroke-opacity:1"
         id="rect9310"
         width="14.968219"
         height="180.07312"
         x="1830.1531"
         y="4993.1304"
         ry="9.2037373"
         transform="matrix(0.98769702,0.15637965,-0.11179315,0.9937315,0,0)" />
      <path
         style="opacity:0.72600002;fill:#d5e5ff;fill-opacity:1;stroke:none;stroke-width:4;stroke-miterlimit:4;stroke-dasharray:none;stroke-opacity:1"
         d="m 1268.0921,5199.5647 a 5.3837658,5.1004096 0 0 0 -5.0711,3.4053 10.767532,16.789713 4.6052058 0 0 -3.1039,-0.9987 10.767532,16.789713 4.6052058 0 0 -12.0807,15.871 10.767532,16.789713 4.6052058 0 0 9.3852,17.5996 10.767532,16.789713 4.6052058 0 0 12.0807,-15.871 10.767532,16.789713 4.6052058 0 0 -1.2017,-9.8059 5.3837658,5.1004096 0 0 0 5.3748,-5.0997 5.3837658,5.1004096 0 0 0 -5.3833,-5.1006 z"
         id="path9312"
         inkscape:connector-curvature="0" />
      <path
         inkscape:connector-curvature="0"
         style="opacity:1;fill:none;fill-opacity:1;stroke:#00112b;stroke-width:5.69948292;stroke-miterlimit:4;stroke-dasharray:none;stroke-opacity:1"
         d="m 1158.132,5007.6227 -130.8594,125.9471 54.0044,456.8898 76.855,49.3766 2.1686,1.3931 79.0228,-51.8164 51.3252,-457.5864 z"
         id="path9314" />
    </g>
  </g>
</svg>
