<?xml version="1.0" encoding="UTF-8" standalone="no"?>
<!-- Created with Inkscape (http://www.inkscape.org/) -->

<svg
   xmlns:dc="http://purl.org/dc/elements/1.1/"
   xmlns:cc="http://creativecommons.org/ns#"
   xmlns:rdf="http://www.w3.org/1999/02/22-rdf-syntax-ns#"
   xmlns:svg="http://www.w3.org/2000/svg"
   xmlns="http://www.w3.org/2000/svg"
   xmlns:sodipodi="http://sodipodi.sourceforge.net/DTD/sodipodi-0.dtd"
   xmlns:inkscape="http://www.inkscape.org/namespaces/inkscape"
   sodipodi:docname="gem_tear_green.svg"
   inkscape:version="0.92.4 (5da689c313, 2019-01-14)"
   version="1.1"
   id="svg2"
   viewBox="0 0 256 256"
   height="256"
   width="256"
   inkscape:export-filename="C:\Users\Assem\Desktop\Gem_collection_preview.png"
   inkscape:export-xdpi="90"
   inkscape:export-ydpi="90">
  <title
     id="title1776">Green Tear Gem</title>
  <defs
     id="defs4" />
  <sodipodi:namedview
     inkscape:window-maximized="1"
     inkscape:window-y="-8"
     inkscape:window-x="-8"
     inkscape:window-height="1025"
     inkscape:window-width="1920"
     inkscape:object-nodes="false"
     showgrid="false"
     inkscape:current-layer="svg2"
     inkscape:document-units="px"
     inkscape:cy="-1176.3148"
     inkscape:cx="-689.12588"
     inkscape:zoom="0.175"
     inkscape:pageshadow="2"
     inkscape:pageopacity="0.0"
     borderopacity="1.0"
     bordercolor="#666666"
     pagecolor="#ffffff"
     id="base"
     showguides="false"
     inkscape:snap-smooth-nodes="false"
     units="px"
     inkscape:pagecheckerboard="true"
     fit-margin-top="0"
     fit-margin-left="0"
     fit-margin-right="0"
     fit-margin-bottom="0" />
  <metadata
     id="metadata7">
    <rdf:RDF>
      <cc:Work
         rdf:about="">
        <dc:format>image/svg+xml</dc:format>
        <dc:type
           rdf:resource="http://purl.org/dc/dcmitype/StillImage" />
        <dc:title>Green Tear Gem</dc:title>
        <cc:license
           rdf:resource="http://creativecommons.org/publicdomain/zero/1.0/" />
        <dc:source>https://opengameart.org/node/69586</dc:source>
        <dc:creator>
          <cc:Agent>
            <dc:title>firestorm200</dc:title>
          </cc:Agent>
        </dc:creator>
        <dc:publisher>
          <cc:Agent>
            <dc:title>OpenGameArt.org</dc:title>
          </cc:Agent>
        </dc:publisher>
      </cc:Work>
      <cc:License
         rdf:about="http://creativecommons.org/publicdomain/zero/1.0/">
        <cc:permits
           rdf:resource="http://creativecommons.org/ns#Reproduction" />
        <cc:permits
           rdf:resource="http://creativecommons.org/ns#Distribution" />
        <cc:permits
           rdf:resource="http://creativecommons.org/ns#DerivativeWorks" />
      </cc:License>
    </rdf:RDF>
  </metadata>
  <g
     id="g6928"
     transform="matrix(0.36383709,0,0,0.36383709,-799.31987,-80.172402)">
    <path
       style="opacity:1;fill:#37c837;fill-opacity:1;stroke:none;stroke-width:4;stroke-miterlimit:4;stroke-dasharray:none;stroke-opacity:1"
       inkscape:transform-center-x="16.529204"
       inkscape:transform-center-y="23.341364"
       d="m 2549.3449,259.31664 233.4628,396.55231 -71.8567,136.2534 -164.1153,95.16772 -162.8607,-96.68546 -69.3474,-136.90883 z"
       id="path4274"
       inkscape:connector-curvature="0"
       sodipodi:nodetypes="ccccccc" />
    <path
       id="path4257"
       d="m 2549.3444,259.31745 -0.2137,126.73032 153.8162,261.26548 79.86,8.55635 z"
       style="opacity:1;fill:#87de87;fill-opacity:1;stroke:none;stroke-width:4;stroke-miterlimit:4;stroke-dasharray:none;stroke-opacity:1"
       inkscape:connector-curvature="0" />
    <path
       id="path4289"
       d="m 2655.6043,737.08264 55.3475,55.0389 71.8551,-136.25194 -79.86,-8.55635 z"
       style="opacity:1;fill:#37c837;fill-opacity:1;stroke:none;stroke-width:4;stroke-miterlimit:4;stroke-dasharray:none;stroke-opacity:1"
       inkscape:connector-curvature="0" />
    <path
       id="path4287"
       d="m 2547.4777,799.78331 -0.6412,87.5062 164.1153,-95.16797 -55.3475,-55.0389 z"
       style="opacity:1;fill:#2ca02c;fill-opacity:1;stroke:none;stroke-width:4;stroke-miterlimit:4;stroke-dasharray:none;stroke-opacity:1"
       inkscape:connector-curvature="0" />
    <path
       id="path4285"
       d="m 2440.1784,736.0829 -56.2041,54.5218 162.8622,96.68481 0.6412,-87.5062 z"
       style="opacity:1;fill:#217821;fill-opacity:1;stroke:none;stroke-width:4;stroke-miterlimit:4;stroke-dasharray:none;stroke-opacity:1"
       inkscape:connector-curvature="0" />
    <path
       id="path4283"
       d="m 2394.4888,645.88258 -79.8617,7.81346 69.3472,136.90866 56.2041,-54.5218 z"
       style="opacity:1;fill:#2ca02c;fill-opacity:1;stroke:none;stroke-width:4;stroke-miterlimit:4;stroke-dasharray:none;stroke-opacity:1"
       inkscape:connector-curvature="0" />
    <path
       id="path4281"
       d="m 2549.3444,259.31745 -234.7173,394.37859 79.8617,-7.81346 154.6419,-259.83481 z"
       style="opacity:1;fill:#37c837;fill-opacity:1;stroke:none;stroke-width:4;stroke-miterlimit:4;stroke-dasharray:none;stroke-opacity:1"
       inkscape:connector-curvature="0" />
    <path
       style="opacity:1;fill:#afe9af;fill-opacity:1;stroke:none;stroke-width:4;stroke-miterlimit:4;stroke-dasharray:none;stroke-opacity:1"
       inkscape:transform-center-x="10.890154"
       inkscape:transform-center-y="15.378304"
       d="m 2549.131,386.04796 153.8154,261.26586 -47.3424,89.76965 -108.1262,62.70063 -107.2997,-63.70058 -45.6891,-90.20147 z"
       id="path4260"
       inkscape:connector-curvature="0"
       sodipodi:nodetypes="ccccccc" />
    <path
       inkscape:connector-curvature="0"
       id="path4298"
       d="m 2451.6392,550.24061 a 151.92046,157.59384 0 0 0 139.4425,95.18175 151.92046,157.59384 0 0 0 92.1981,-32.58622 l 19.6671,33.04644 -45.6896,90.20032 -107.2993,63.70041 -108.1266,-62.70067 -47.3426,-89.76939 z"
       style="opacity:1;fill:#87de87;fill-opacity:1;stroke:none;stroke-width:4;stroke-miterlimit:4;stroke-dasharray:none;stroke-opacity:1" />
    <path
       id="path4291"
       d="m 2549.3444,259.31745 -234.7173,394.37859 69.3472,136.90866 162.8622,96.68481 164.1153,-95.16797 71.8551,-136.25194 z m -0.2137,126.73032 153.8162,261.26548 -47.3426,89.76939 -108.1266,62.70067 -107.2993,-63.70041 -45.6896,-90.20032 z"
       style="opacity:1;fill:none;fill-opacity:1;stroke:#0b280b;stroke-width:5.69948292;stroke-miterlimit:4;stroke-dasharray:none;stroke-opacity:1"
       inkscape:connector-curvature="0" />
    <path
       inkscape:connector-curvature="0"
       id="path4302"
       d="m 2557.4261,436.17129 a 14.425533,9.9448384 79.70798 0 1 4.9838,1.61109 14.425533,9.9448384 79.70798 0 1 6.4098,17.74844 12.127299,8.2395586 82.186805 0 1 2.7527,1.16987 12.127299,8.2395586 82.186805 0 1 4.8767,16.19537 12.127299,8.2395586 82.186805 0 1 -10.7208,5.37785 12.127299,8.2395586 82.186805 0 1 -5.3352,-13.50516 14.425533,9.9448384 79.70798 0 1 -4.8594,-1.60605 14.425533,9.9448384 79.70798 0 1 -6.0789,-19.29147 14.425533,9.9448384 79.70798 0 1 7.9713,-7.69994 z"
       style="opacity:0.76999996;fill:#ffffff;fill-opacity:1;stroke:none;stroke-width:4;stroke-miterlimit:4;stroke-dasharray:none;stroke-opacity:1" />
    <ellipse
       transform="matrix(-0.71418113,0.69996093,0.52105885,0.85352075,0,0)"
       ry="38.501381"
       rx="13.722534"
       cy="2259.28"
       cx="-1998.9762"
       id="path4308"
       style="opacity:0.76999996;fill:#ffffff;fill-opacity:1;stroke:none;stroke-width:4;stroke-miterlimit:4;stroke-dasharray:none;stroke-opacity:1" />
    <path
       inkscape:connector-curvature="0"
       id="path4310"
       d="m 2549.2857,295.42343 -212.5299,355.9229 62.7922,123.55824 147.4664,87.25783 148.6021,-85.88899 65.0618,-122.96684 z m 0.3522,60.94641 173.2503,293.30757 -53.3231,100.7777 -121.7883,70.38959 -120.8586,-71.51274 -51.4603,-101.26205 z"
       style="opacity:0.5;fill:#afe9af;fill-opacity:1;stroke:none;stroke-width:4;stroke-miterlimit:4;stroke-dasharray:none;stroke-opacity:1" />
  </g>
</svg>
