<?xml version="1.0" encoding="UTF-8" standalone="no"?>
<!-- Created with Inkscape (http://www.inkscape.org/) -->

<svg
   xmlns:dc="http://purl.org/dc/elements/1.1/"
   xmlns:cc="http://creativecommons.org/ns#"
   xmlns:rdf="http://www.w3.org/1999/02/22-rdf-syntax-ns#"
   xmlns:svg="http://www.w3.org/2000/svg"
   xmlns="http://www.w3.org/2000/svg"
   xmlns:sodipodi="http://sodipodi.sourceforge.net/DTD/sodipodi-0.dtd"
   xmlns:inkscape="http://www.inkscape.org/namespaces/inkscape"
   sodipodi:docname="gem_octagon_red.svg"
   inkscape:version="0.92.4 (5da689c313, 2019-01-14)"
   version="1.1"
   id="svg2"
   viewBox="0 0 256 255.99999"
   height="256"
   width="256"
   inkscape:export-filename="C:\Users\Assem\Desktop\Gem_collection_preview.png"
   inkscape:export-xdpi="90"
   inkscape:export-ydpi="90">
  <title
     id="title1776">Red Octagon Gem</title>
  <defs
     id="defs4" />
  <sodipodi:namedview
     inkscape:window-maximized="1"
     inkscape:window-y="-8"
     inkscape:window-x="-8"
     inkscape:window-height="1025"
     inkscape:window-width="1920"
     inkscape:object-nodes="false"
     showgrid="false"
     inkscape:current-layer="g6643"
     inkscape:document-units="px"
     inkscape:cy="114.3908"
     inkscape:cx="108.86552"
     inkscape:zoom="2.8"
     inkscape:pageshadow="2"
     inkscape:pageopacity="0.0"
     borderopacity="1.0"
     bordercolor="#666666"
     pagecolor="#ffffff"
     id="base"
     showguides="false"
     inkscape:snap-smooth-nodes="false"
     units="px"
     inkscape:pagecheckerboard="true"
     fit-margin-top="0"
     fit-margin-left="0"
     fit-margin-right="0"
     fit-margin-bottom="0" />
  <metadata
     id="metadata7">
    <rdf:RDF>
      <cc:Work
         rdf:about="">
        <dc:format>image/svg+xml</dc:format>
        <dc:type
           rdf:resource="http://purl.org/dc/dcmitype/StillImage" />
        <dc:title>Red Octagon Gem</dc:title>
        <cc:license
           rdf:resource="http://creativecommons.org/publicdomain/zero/1.0/" />
        <dc:source>https://opengameart.org/node/69586</dc:source>
        <dc:creator>
          <cc:Agent>
            <dc:title>firestorm200</dc:title>
          </cc:Agent>
        </dc:creator>
        <dc:publisher>
          <cc:Agent>
            <dc:title>OpenGameArt.org</dc:title>
          </cc:Agent>
        </dc:publisher>
      </cc:Work>
      <cc:License
         rdf:about="http://creativecommons.org/publicdomain/zero/1.0/">
        <cc:permits
           rdf:resource="http://creativecommons.org/ns#Reproduction" />
        <cc:permits
           rdf:resource="http://creativecommons.org/ns#Distribution" />
        <cc:permits
           rdf:resource="http://creativecommons.org/ns#DerivativeWorks" />
      </cc:License>
    </rdf:RDF>
  </metadata>
  <g
     id="g6643"
     transform="matrix(0.36383707,0,0,0.36383707,-1120.9784,-774.22943)">
    <path
       sodipodi:type="star"
       style="opacity:1;fill:#ff0066;fill-opacity:1;stroke:none;stroke-width:4;stroke-miterlimit:4;stroke-dasharray:none;stroke-opacity:1"
       id="path5055"
       sodipodi:sides="8"
       sodipodi:cx="3604.2244"
       sodipodi:cy="506.87982"
       sodipodi:r1="459.49396"
       sodipodi:r2="397.93344"
       sodipodi:arg1="0.52359878"
       sodipodi:arg2="0.91629786"
       inkscape:flatsided="true"
       inkscape:rounded="0"
       inkscape:randomized="0"
       d="m 4002.1578,736.6268 -279.0076,214.0901 -348.6728,-45.90364 -214.0901,-279.00765 45.9036,-348.67277 279.0077,-214.090099 348.6727,45.903639 214.0901,279.00766 z"
       transform="matrix(0.70588537,-0.0936067,0.0936067,0.70588537,841.17925,2459.3427)" />
    <path
       id="path5071"
       d="m 3557.7223,2177.3607 -250.4202,0.235 35.7367,86.05 179.1066,-0.1683 z"
       style="opacity:1;fill:#ff0066;fill-opacity:1;stroke:none;stroke-width:4;stroke-miterlimit:4;stroke-dasharray:none;stroke-opacity:1"
       inkscape:connector-curvature="0" />
    <path
       sodipodi:type="star"
       style="opacity:1;fill:#ffd5e5;fill-opacity:1;stroke:none;stroke-width:4;stroke-miterlimit:4;stroke-dasharray:none;stroke-opacity:1"
       id="path5057"
       sodipodi:sides="8"
       sodipodi:cx="3604.2244"
       sodipodi:cy="506.87982"
       sodipodi:r1="459.49396"
       sodipodi:r2="397.93344"
       sodipodi:arg1="0.52359878"
       sodipodi:arg2="0.91629786"
       inkscape:flatsided="true"
       inkscape:rounded="0"
       inkscape:randomized="0"
       d="m 4002.1578,736.6268 -279.0076,214.0901 -348.6728,-45.90364 -214.0901,-279.00765 45.9036,-348.67277 279.0077,-214.090099 348.6727,45.903639 214.0901,279.00766 z"
       transform="matrix(0.50486769,-0.06694996,0.06694996,0.50486769,1579.2038,2465.1577)" />
    <path
       id="path5059"
       d="m 3649.0808,2569.1118 86.1167,35.5768 -0.2364,-250.4201 -86.0487,35.7367 z"
       style="opacity:1;fill:#ff5599;fill-opacity:1;stroke:none;stroke-width:4;stroke-miterlimit:4;stroke-dasharray:none;stroke-opacity:1"
       inkscape:connector-curvature="0" />
    <path
       id="path5061"
       d="m 3522.553,2695.8788 35.7367,86.0486 176.9078,-177.2388 -86.1167,-35.5768 z"
       style="opacity:1;fill:#ff0066;fill-opacity:1;stroke:none;stroke-width:4;stroke-miterlimit:4;stroke-dasharray:none;stroke-opacity:1"
       inkscape:connector-curvature="0" />
    <path
       id="path5063"
       d="m 3343.445,2696.0471 -35.5755,86.1167 250.4202,-0.2364 -35.7367,-86.0486 -179.1066,0.1683 v 0 z"
       style="opacity:1;fill:#aa0044;fill-opacity:1;stroke:none;stroke-width:4;stroke-miterlimit:4;stroke-dasharray:none;stroke-opacity:1"
       inkscape:connector-curvature="0" />
    <path
       id="path5065"
       d="m 3216.6794,2569.5193 -86.05,35.7367 177.2401,176.9078 35.5755,-86.1167 z"
       style="opacity:1;fill:#d40055;fill-opacity:1;stroke:none;stroke-width:4;stroke-miterlimit:4;stroke-dasharray:none;stroke-opacity:1"
       inkscape:connector-curvature="0" />
    <path
       id="path5067"
       d="m 3216.511,2390.4113 -86.1166,-35.5754 0.235,250.4201 86.05,-35.7367 z"
       style="opacity:1;fill:#aa0044;fill-opacity:1;stroke:none;stroke-width:4;stroke-miterlimit:4;stroke-dasharray:none;stroke-opacity:1"
       inkscape:connector-curvature="0" />
    <path
       id="path5069"
       d="m 3343.0388,2263.6457 -35.7367,-86.05 -176.9077,177.2402 86.1166,35.5754 z"
       style="opacity:1;fill:#d40055;fill-opacity:1;stroke:none;stroke-width:4;stroke-miterlimit:4;stroke-dasharray:none;stroke-opacity:1"
       inkscape:connector-curvature="0" />
    <path
       id="path5073"
       d="m 3557.7223,2177.3607 -35.5769,86.1167 126.767,126.5278 86.0487,-35.7367 z"
       style="opacity:1;fill:#ff2a7f;fill-opacity:1;stroke:none;stroke-width:4;stroke-miterlimit:4;stroke-dasharray:none;stroke-opacity:1"
       inkscape:connector-curvature="0" />
    <path
       transform="matrix(0.4193857,-0.05561429,0.05561429,0.4193857,1893.0459,2467.6304)"
       d="m 4002.1578,736.6268 -279.0076,214.0901 -348.6728,-45.90364 -214.0901,-279.00765 45.9036,-348.67277 279.0077,-214.090099 348.6727,45.903639 214.0901,279.00766 z"
       inkscape:randomized="0"
       inkscape:rounded="0"
       inkscape:flatsided="true"
       sodipodi:arg2="0.91629786"
       sodipodi:arg1="0.52359878"
       sodipodi:r2="397.93344"
       sodipodi:r1="459.49396"
       sodipodi:cy="506.87982"
       sodipodi:cx="3604.2244"
       sodipodi:sides="8"
       id="path5077"
       style="opacity:1;fill:#ff80b2;fill-opacity:1;stroke:none;stroke-width:4;stroke-miterlimit:4;stroke-dasharray:none;stroke-opacity:1"
       sodipodi:type="star" />
    <path
       id="path5079"
       d="m 3295.4223,2363.1707 -42.2913,42.3692 0.1404,148.7812 105.3021,105.1061 148.7813,-0.1405 104.6248,-104.8195 a 219.9353,213.18943 0 0 1 -96.6252,21.832 219.9353,213.18943 0 0 1 -219.9321,-213.1285 z"
       style="opacity:0.29600004;fill:#ff0066;fill-opacity:1;stroke:none;stroke-width:4;stroke-miterlimit:4;stroke-dasharray:none;stroke-opacity:1"
       inkscape:connector-curvature="0" />
    <ellipse
       transform="matrix(0.9132659,-0.40736396,0.35538781,0.93471894,0,0)"
       ry="46.456512"
       rx="36.341537"
       cy="3690.8044"
       cx="2459.4619"
       id="ellipse5081"
       style="opacity:1;fill:#ffffff;fill-opacity:1;stroke:none;stroke-width:4;stroke-miterlimit:4;stroke-dasharray:none;stroke-opacity:1" />
    <path
       id="path5083"
       d="m 3499.1702,2342.9936 a 7.1391488,9.8164407 1.5576891 0 0 -2.1209,0.3853 7.1391488,9.8164407 1.5576891 0 0 -5.0275,12.1579 7.1391488,9.8164407 1.5576891 0 0 3.2015,5.755 20.921575,17.920456 52.148606 0 0 8.8576,24.8986 20.921575,17.920456 52.148606 0 0 25.9543,-3.7022 20.921575,17.920456 52.148606 0 0 -7.5156,-27.8206 20.921575,17.920456 52.148606 0 0 -16.5458,-3.4741 7.1391488,9.8164407 1.5576891 0 0 -0.1655,-1.1168 7.1391488,9.8164407 1.5576891 0 0 -6.6381,-7.0831 z"
       style="opacity:1;fill:#ffffff;fill-opacity:1;stroke:none;stroke-width:4;stroke-miterlimit:4;stroke-dasharray:none;stroke-opacity:1"
       inkscape:connector-curvature="0" />
    <path
       inkscape:connector-curvature="0"
       id="path5085"
       d="m 3546.7965,2203.8092 -228.5189,0.2148 -161.4347,161.7377 0.2146,228.5188 161.7378,161.4348 228.5189,-0.2148 161.4348,-161.7377 -0.2147,-228.5188 z m -15.4708,37.4481 139.7888,139.5271 0.1863,197.5077 -139.527,139.7887 -197.5077,0.1864 -139.7888,-139.5271 -0.1862,-197.5077 139.5269,-139.7902 z"
       style="opacity:0.38900003;fill:#ffd5e5;fill-opacity:1;stroke:none;stroke-width:4;stroke-miterlimit:4;stroke-dasharray:none;stroke-opacity:1" />
    <path
       style="opacity:1;fill:none;fill-opacity:1;stroke:#2b0011;stroke-width:5.70035373;stroke-miterlimit:4;stroke-dasharray:none;stroke-opacity:1"
       d="m 3557.7223,2177.3607 -250.4202,0.235 -176.9077,177.2402 0.235,250.4201 177.2401,176.9078 250.4202,-0.2364 176.9078,-177.2388 -0.2364,-250.4201 z m -35.5769,86.1167 126.767,126.5278 0.1684,179.1066 -126.5278,126.767 -179.1066,0.1683 -126.767,-126.5278 -0.1684,-179.108 126.5278,-126.7656 z"
       id="path5075"
       inkscape:connector-curvature="0" />
  </g>
</svg>
