<?xml version="1.0" encoding="UTF-8" standalone="no"?>
<!-- Created with Inkscape (http://www.inkscape.org/) -->

<svg
   xmlns:dc="http://purl.org/dc/elements/1.1/"
   xmlns:cc="http://creativecommons.org/ns#"
   xmlns:rdf="http://www.w3.org/1999/02/22-rdf-syntax-ns#"
   xmlns:svg="http://www.w3.org/2000/svg"
   xmlns="http://www.w3.org/2000/svg"
   xmlns:sodipodi="http://sodipodi.sourceforge.net/DTD/sodipodi-0.dtd"
   xmlns:inkscape="http://www.inkscape.org/namespaces/inkscape"
   sodipodi:docname="gem_diamond_green.svg"
   inkscape:version="0.92.4 (5da689c313, 2019-01-14)"
   version="1.1"
   id="svg2"
   viewBox="0 0 256 256"
   height="256"
   width="256"
   inkscape:export-filename="C:\Users\Assem\Desktop\Gem_collection_preview.png"
   inkscape:export-xdpi="90"
   inkscape:export-ydpi="90">
  <title
     id="title1776">Green Diamond Gem</title>
  <defs
     id="defs4" />
  <sodipodi:namedview
     inkscape:window-maximized="1"
     inkscape:window-y="-8"
     inkscape:window-x="-8"
     inkscape:window-height="1025"
     inkscape:window-width="1920"
     inkscape:object-nodes="false"
     showgrid="false"
     inkscape:current-layer="svg2"
     inkscape:document-units="px"
     inkscape:cy="95.724505"
     inkscape:cx="94.512945"
     inkscape:zoom="2.8"
     inkscape:pageshadow="2"
     inkscape:pageopacity="0.0"
     borderopacity="1.0"
     bordercolor="#666666"
     pagecolor="#ffffff"
     id="base"
     showguides="false"
     inkscape:snap-smooth-nodes="false"
     units="px"
     inkscape:pagecheckerboard="true"
     fit-margin-top="0"
     fit-margin-left="0"
     fit-margin-right="0"
     fit-margin-bottom="0" />
  <metadata
     id="metadata7">
    <rdf:RDF>
      <cc:Work
         rdf:about="">
        <dc:format>image/svg+xml</dc:format>
        <dc:type
           rdf:resource="http://purl.org/dc/dcmitype/StillImage" />
        <dc:title>Green Diamond Gem</dc:title>
        <cc:license
           rdf:resource="http://creativecommons.org/publicdomain/zero/1.0/" />
        <dc:source>https://opengameart.org/node/69586</dc:source>
        <dc:creator>
          <cc:Agent>
            <dc:title>firestorm200</dc:title>
          </cc:Agent>
        </dc:creator>
        <dc:publisher>
          <cc:Agent>
            <dc:title>OpenGameArt.org</dc:title>
          </cc:Agent>
        </dc:publisher>
      </cc:Work>
      <cc:License
         rdf:about="http://creativecommons.org/publicdomain/zero/1.0/">
        <cc:permits
           rdf:resource="http://creativecommons.org/ns#Reproduction" />
        <cc:permits
           rdf:resource="http://creativecommons.org/ns#Distribution" />
        <cc:permits
           rdf:resource="http://creativecommons.org/ns#DerivativeWorks" />
      </cc:License>
    </rdf:RDF>
  </metadata>
  <g
     id="g6364"
     transform="matrix(0.36383709,0,0,0.36383709,560.86986,-80.330998)">
    <rect
       style="opacity:1;fill:#37c837;fill-opacity:1;stroke:none;stroke-width:4;stroke-miterlimit:4;stroke-dasharray:none;stroke-opacity:1"
       id="rect4418"
       width="412.66312"
       height="412.66312"
       x="-961.16718"
       y="1230.3225"
       transform="matrix(0.54288883,0.83980457,-0.54288883,0.83980457,0,0)" />
    <path
       id="rect4395"
       d="m -1189.7354,226.0376 v 122.37218 l 144.9235,224.18441 h 79.10644 z"
       style="opacity:1;fill:#87de87;fill-opacity:1;stroke:none;stroke-width:4;stroke-miterlimit:4;stroke-dasharray:none;stroke-opacity:1"
       inkscape:connector-curvature="0" />
    <path
       inkscape:connector-curvature="0"
       id="path4429"
       d="m -1189.7352,796.77922 v 122.37212 l 224.02991,-346.55653 h -79.10641 z"
       style="opacity:1;fill:#37c837;fill-opacity:1;stroke:none;stroke-width:4;stroke-miterlimit:4;stroke-dasharray:none;stroke-opacity:1" />
    <path
       id="path4425"
       d="m -1189.7354,226.0376 -224.0299,346.55659 h 79.1064 l 144.9235,-224.18441 z"
       style="opacity:1;fill:#5fd35f;fill-opacity:1;stroke:none;stroke-width:4;stroke-miterlimit:4;stroke-dasharray:none;stroke-opacity:1"
       inkscape:connector-curvature="0" />
    <rect
       style="display:inline;opacity:1;fill:#afe9af;fill-opacity:1;stroke:none;stroke-width:4;stroke-miterlimit:4;stroke-dasharray:none;stroke-opacity:1"
       id="rect4408-2"
       width="266.94894"
       height="266.94894"
       x="-888.30975"
       y="1303.1801"
       transform="matrix(0.54288883,0.83980457,-0.54288883,0.83980457,0,0)" />
    <path
       id="path4427"
       d="m -1334.6589,572.59419 h -79.1064 l 224.0299,346.55656 V 796.77861 Z"
       style="display:inline;opacity:1;fill:#2ca02c;fill-opacity:1;stroke:none;stroke-width:4;stroke-miterlimit:4;stroke-dasharray:none;stroke-opacity:1"
       inkscape:connector-curvature="0" />
    <path
       id="rect4408"
       d="m -1133.7768,434.97253 a 191.5555,232.06023 53.992136 0 1 1.0878,60.73013 19.228811,19.228811 0 0 0 -8.2747,-1.89777 19.228811,19.228811 0 0 0 -19.229,19.22904 19.228811,19.228811 0 0 0 10.7902,17.25242 11.116656,13.520257 0 0 0 -8.3864,13.09376 11.116656,13.520257 0 0 0 7.228,12.64849 191.5555,232.06023 53.992136 0 1 -48.0422,70.54264 27.641416,25.838714 0 0 0 -21.1926,-11.30608 14.421608,12.318458 0 0 0 -14.3079,-10.89367 14.421608,12.318458 0 0 0 -14.4214,12.31823 14.421608,12.318458 0 0 0 4.7436,9.11256 27.641416,25.838714 0 0 0 -5.345,15.22319 27.641416,25.838714 0 0 0 10.7639,20.42358 191.5555,232.06023 53.992136 0 1 -9.5743,6.60356 191.5555,232.06023 53.992136 0 1 -18.0361,10.79344 l 76.2375,117.93256 144.9235,-224.18442 z m -91.2554,20.87541 a 32.885036,35.317047 23.021748 0 0 -16.1811,4.05021 32.885036,35.317047 23.021748 0 0 -16.1499,47.24203 32.885036,35.317047 23.021748 0 0 44.1908,14.56268 32.885036,35.317047 23.021748 0 0 16.1499,-47.24203 32.885036,35.317047 23.021748 0 0 -28.0097,-18.61289 z"
       style="display:inline;opacity:0.71499999;fill:#d7f4d7;fill-opacity:1;stroke:none;stroke-width:4;stroke-miterlimit:4;stroke-dasharray:none;stroke-opacity:1"
       inkscape:connector-curvature="0" />
    <path
       id="rect4479"
       d="m -1189.7354,262.84603 -200.2364,309.74816 200.2364,309.74816 200.2364,-309.74816 z m 0,39.06275 174.9839,270.68541 -174.9839,270.68542 -174.9838,-270.68542 z"
       style="opacity:0.61499999;fill:#afe9af;fill-opacity:1;stroke:none;stroke-width:4;stroke-miterlimit:4;stroke-dasharray:none;stroke-opacity:1"
       inkscape:connector-curvature="0" />
    <path
       id="rect4431"
       d="m -1189.7354,226.0376 -224.0299,346.55659 224.0299,346.55656 224.02994,-346.55656 z m 0,122.37218 144.9235,224.18441 -144.9235,224.18442 -144.9235,-224.18442 z"
       style="display:inline;opacity:1;fill:none;fill-opacity:1;stroke:#0b280b;stroke-width:5.70035362;stroke-miterlimit:4;stroke-dasharray:none;stroke-opacity:1"
       inkscape:connector-curvature="0" />
  </g>
</svg>
