<?xml version="1.0" encoding="UTF-8" standalone="no"?>
<!-- Created with Inkscape (http://www.inkscape.org/) -->

<svg
   xmlns:dc="http://purl.org/dc/elements/1.1/"
   xmlns:cc="http://creativecommons.org/ns#"
   xmlns:rdf="http://www.w3.org/1999/02/22-rdf-syntax-ns#"
   xmlns:svg="http://www.w3.org/2000/svg"
   xmlns="http://www.w3.org/2000/svg"
   xmlns:sodipodi="http://sodipodi.sourceforge.net/DTD/sodipodi-0.dtd"
   xmlns:inkscape="http://www.inkscape.org/namespaces/inkscape"
   sodipodi:docname="gem_diamond_orange.svg"
   inkscape:version="0.92.4 (5da689c313, 2019-01-14)"
   version="1.1"
   id="svg2"
   viewBox="0 0 256 255.99999"
   height="256"
   width="256"
   inkscape:export-filename="C:\Users\Assem\Desktop\Gem_collection_preview.png"
   inkscape:export-xdpi="90"
   inkscape:export-ydpi="90">
  <title
     id="title1776">Orange Diamond Gem</title>
  <defs
     id="defs4" />
  <sodipodi:namedview
     inkscape:window-maximized="1"
     inkscape:window-y="-8"
     inkscape:window-x="-8"
     inkscape:window-height="1025"
     inkscape:window-width="1920"
     inkscape:object-nodes="false"
     showgrid="false"
     inkscape:current-layer="svg2"
     inkscape:document-units="px"
     inkscape:cy="23.743208"
     inkscape:cx="118.89612"
     inkscape:zoom="1.4"
     inkscape:pageshadow="2"
     inkscape:pageopacity="0.0"
     borderopacity="1.0"
     bordercolor="#666666"
     pagecolor="#ffffff"
     id="base"
     showguides="false"
     inkscape:snap-smooth-nodes="false"
     units="px"
     inkscape:pagecheckerboard="true"
     fit-margin-top="0"
     fit-margin-left="0"
     fit-margin-right="0"
     fit-margin-bottom="0" />
  <metadata
     id="metadata7">
    <rdf:RDF>
      <cc:Work
         rdf:about="">
        <dc:format>image/svg+xml</dc:format>
        <dc:type
           rdf:resource="http://purl.org/dc/dcmitype/StillImage" />
        <dc:title>Orange Diamond Gem</dc:title>
        <cc:license
           rdf:resource="http://creativecommons.org/publicdomain/zero/1.0/" />
        <dc:source>https://opengameart.org/node/69586</dc:source>
        <dc:creator>
          <cc:Agent>
            <dc:title>firestorm200</dc:title>
          </cc:Agent>
        </dc:creator>
        <dc:publisher>
          <cc:Agent>
            <dc:title>OpenGameArt.org</dc:title>
          </cc:Agent>
        </dc:publisher>
      </cc:Work>
      <cc:License
         rdf:about="http://creativecommons.org/publicdomain/zero/1.0/">
        <cc:permits
           rdf:resource="http://creativecommons.org/ns#Reproduction" />
        <cc:permits
           rdf:resource="http://creativecommons.org/ns#Distribution" />
        <cc:permits
           rdf:resource="http://creativecommons.org/ns#DerivativeWorks" />
      </cc:License>
    </rdf:RDF>
  </metadata>
  <g
     id="g842"
     transform="translate(-3.210043,-4.0369725e-6)">
    <rect
       style="opacity:1;fill:#ff6600;fill-opacity:1;stroke:none;stroke-width:1.45534825;stroke-miterlimit:4;stroke-dasharray:none;stroke-opacity:1"
       id="rect5471"
       width="150.14214"
       height="150.14214"
       x="121.9815"
       y="-119.70716"
       transform="matrix(0.54288883,0.83980457,-0.54288883,0.83980457,0,0)" />
    <path
       id="path5473"
       d="M 131.21004,1.9098682 V 46.433411 l 52.72854,81.566599 h 28.78185 z"
       style="opacity:1;fill:#ffb380;fill-opacity:1;stroke:none;stroke-width:1.45534825;stroke-miterlimit:4;stroke-dasharray:none;stroke-opacity:1"
       inkscape:connector-curvature="0" />
    <path
       id="path5475"
       d="M 131.21004,1.9098682 49.699656,128.00001 h 28.78184 L 131.21004,46.433411 Z"
       style="opacity:1;fill:#ff7f2a;fill-opacity:1;stroke:none;stroke-width:1.45534825;stroke-miterlimit:4;stroke-dasharray:none;stroke-opacity:1"
       inkscape:connector-curvature="0" />
    <rect
       style="opacity:1;fill:#ffccaa;fill-opacity:1;stroke:none;stroke-width:1.45534825;stroke-miterlimit:4;stroke-dasharray:none;stroke-opacity:1"
       id="rect5477"
       width="97.125923"
       height="97.125923"
       x="148.48969"
       y="-93.198929"
       transform="matrix(0.54288883,0.83980457,-0.54288883,0.83980457,0,0)" />
    <path
       inkscape:connector-curvature="0"
       id="path5479"
       d="m 131.21011,209.56682 v 44.52351 L 212.7205,128.00022 h -28.78185 z"
       style="opacity:1;fill:#ff6600;fill-opacity:1;stroke:none;stroke-width:1.45534825;stroke-miterlimit:4;stroke-dasharray:none;stroke-opacity:1" />
    <path
       id="path5481"
       d="M 78.481496,128.00001 H 49.699656 L 131.21004,254.09014 V 209.5666 Z"
       style="opacity:1;fill:#d45500;fill-opacity:1;stroke:none;stroke-width:1.45534825;stroke-miterlimit:4;stroke-dasharray:none;stroke-opacity:1"
       inkscape:connector-curvature="0" />
    <path
       id="path5483"
       d="m 151.56985,77.92813 a 69.694992,84.432114 53.992136 0 1 0.39578,22.0959 6.9961543,6.9961543 0 0 0 -3.01064,-0.690492 6.9961543,6.9961543 0 0 0 -6.99622,6.996222 6.9961543,6.9961543 0 0 0 3.92587,6.2771 4.0446515,4.9191707 0 0 0 -3.05128,4.76397 4.0446515,4.9191707 0 0 0 2.62981,4.602 69.694992,84.432114 53.992136 0 1 -17.47953,25.66601 10.056972,9.401082 0 0 0 -7.71065,-4.11354 5.2471156,4.4819117 0 0 0 -5.20575,-3.96353 5.2471156,4.4819117 0 0 0 -5.24704,4.48181 5.2471156,4.4819117 0 0 0 1.7259,3.31551 10.056972,9.401082 0 0 0 -1.94471,5.53876 10.056972,9.401082 0 0 0 3.91631,7.43083 69.694992,84.432114 53.992136 0 1 -3.48349,2.40263 69.694992,84.432114 53.992136 0 1 -6.5622,3.92704 l 27.73803,42.90825 52.72854,-81.56659 z m -33.2021,7.595244 a 11.964795,12.849651 23.021748 0 0 -5.88728,1.47365 11.964795,12.849651 23.021748 0 0 -5.87593,17.188386 11.964795,12.849651 23.021748 0 0 16.07825,5.29845 11.964795,12.849651 23.021748 0 0 5.87593,-17.188423 11.964795,12.849651 23.021748 0 0 -10.19097,-6.772063 z"
       style="opacity:0.71499999;fill:#ffe6d5;fill-opacity:1;stroke:none;stroke-width:1.45534825;stroke-miterlimit:4;stroke-dasharray:none;stroke-opacity:1"
       inkscape:connector-curvature="0" />
    <path
       id="path5489"
       d="M 131.21004,15.302129 58.356613,128.00001 131.21004,240.69788 204.06346,128.00001 Z m 0,14.212494 63.66563,98.485387 -63.66563,98.48538 -63.665595,-98.48538 z"
       style="opacity:0.61499999;fill:#ffe6d5;fill-opacity:1;stroke:none;stroke-width:1.45534825;stroke-miterlimit:4;stroke-dasharray:none;stroke-opacity:1"
       inkscape:connector-curvature="0" />
    <path
       id="path5485"
       d="M 131.21004,1.9098682 49.699656,128.00001 131.21004,254.09014 212.72043,128.00001 Z m 0,44.5235428 52.72854,81.566599 -52.72854,81.56659 -52.728544,-81.56659 z"
       style="display:inline;opacity:1;fill:none;fill-opacity:1;stroke:#2b1100;stroke-width:2.07368326;stroke-miterlimit:4;stroke-dasharray:none;stroke-opacity:1"
       inkscape:connector-curvature="0" />
  </g>
</svg>
