<?xml version="1.0" encoding="UTF-8" standalone="no"?>
<!-- Created with Inkscape (http://www.inkscape.org/) -->

<svg
   xmlns:dc="http://purl.org/dc/elements/1.1/"
   xmlns:cc="http://creativecommons.org/ns#"
   xmlns:rdf="http://www.w3.org/1999/02/22-rdf-syntax-ns#"
   xmlns:svg="http://www.w3.org/2000/svg"
   xmlns="http://www.w3.org/2000/svg"
   xmlns:xlink="http://www.w3.org/1999/xlink"
   xmlns:sodipodi="http://sodipodi.sourceforge.net/DTD/sodipodi-0.dtd"
   xmlns:inkscape="http://www.inkscape.org/namespaces/inkscape"
   id="svg2"
   viewBox="0 0 256 198.72126"
   sodipodi:docname="american_football_helmet.svg"
   version="1.1"
   inkscape:version="0.92.4 (5da689c313, 2019-01-14)"
   width="256"
   height="198.72125">
  <defs
     id="defs4">
    <linearGradient
       id="linearGradient3841"
       inkscape:collect="always">
      <stop
         id="stop3843"
         style="stop-color:#cdcdcf"
         offset="0" />
      <stop
         id="stop3851"
         style="stop-color:#ccccce"
         offset=".58312" />
      <stop
         id="stop3849"
         style="stop-color:#929295"
         offset=".75108" />
      <stop
         id="stop3853"
         style="stop-color:#ccccce"
         offset=".89167" />
      <stop
         id="stop3845"
         style="stop-color:#cdcdcf"
         offset="1" />
    </linearGradient>
    <linearGradient
       id="linearGradient3794"
       inkscape:collect="always">
      <stop
         id="stop3796"
         style="stop-color:#1d1e20"
         offset="0" />
      <stop
         id="stop3798"
         style="stop-color:#cbccce"
         offset="1" />
    </linearGradient>
    <linearGradient
       id="linearGradient3772"
       inkscape:collect="always">
      <stop
         id="stop3774"
         style="stop-color:#b9babc"
         offset="0" />
      <stop
         id="stop3782"
         style="stop-color:#6f7072"
         offset=".33230" />
      <stop
         id="stop3780"
         style="stop-color:#1f2022"
         offset=".50507" />
      <stop
         id="stop3784"
         style="stop-color:#6f7072"
         offset=".69174" />
      <stop
         id="stop3776"
         style="stop-color:#b9babc"
         offset="1" />
    </linearGradient>
    <linearGradient
       id="linearGradient3957"
       y2="430.66"
       xlink:href="#linearGradient3772"
       gradientUnits="userSpaceOnUse"
       x2="252.02"
       y1="424.97"
       x1="247.50999"
       inkscape:collect="always" />
    <linearGradient
       id="linearGradient3959"
       y2="431.37"
       xlink:href="#linearGradient3794"
       gradientUnits="userSpaceOnUse"
       x2="254.16"
       y1="422.67999"
       x1="248.33"
       inkscape:collect="always" />
    <linearGradient
       id="linearGradient3965"
       y2="426.82999"
       gradientUnits="userSpaceOnUse"
       x2="264.29001"
       y1="400.39999"
       x1="195.17999"
       inkscape:collect="always">
      <stop
         id="stop3897"
         style="stop-color:#000000;stop-opacity:0"
         offset="0" />
      <stop
         id="stop3903"
         style="stop-color:#000000"
         offset=".094718" />
      <stop
         id="stop3915"
         style="stop-color:#000000"
         offset=".39767" />
      <stop
         id="stop3913"
         style="stop-color:#000000"
         offset=".72494" />
      <stop
         id="stop3899"
         style="stop-color:#000000;stop-opacity:0"
         offset="1" />
    </linearGradient>
    <linearGradient
       id="linearGradient3967"
       y2="321.64999"
       gradientUnits="userSpaceOnUse"
       x2="-120"
       y1="384.85999"
       x1="-215.36"
       inkscape:collect="always">
      <stop
         id="stop3920"
         style="stop-color:#cacacd"
         offset="0" />
      <stop
         id="stop3922"
         style="stop-color:#d4d4d4"
         offset="1" />
    </linearGradient>
    <linearGradient
       id="linearGradient3979"
       y2="375.89999"
       xlink:href="#linearGradient3841"
       gradientUnits="userSpaceOnUse"
       x2="61.198002"
       gradientTransform="matrix(1,0,-0.030956,1,94.764,-29.397)"
       y1="354.51999"
       x1="63.02"
       inkscape:collect="always" />
    <linearGradient
       id="linearGradient3989"
       y2="396.53"
       xlink:href="#linearGradient3841"
       gradientUnits="userSpaceOnUse"
       x2="228.92"
       y1="414.75"
       x1="204.41"
       inkscape:collect="always" />
    <linearGradient
       id="linearGradient3991"
       y2="430.17001"
       gradientUnits="userSpaceOnUse"
       x2="253.33"
       y1="426.19"
       x1="248.67"
       inkscape:collect="always">
      <stop
         id="stop3877"
         style="stop-color:#b9babc"
         offset="0" />
      <stop
         id="stop3879"
         style="stop-color:#6f7072"
         offset=".33230" />
      <stop
         id="stop3881"
         style="stop-color:#1f2022"
         offset=".50507" />
      <stop
         id="stop3883"
         style="stop-color:#6f7072"
         offset=".69174" />
      <stop
         id="stop3885"
         style="stop-color:#b9babc"
         offset="1" />
    </linearGradient>
    <linearGradient
       id="linearGradient3993"
       y2="429.26001"
       xlink:href="#linearGradient3794"
       gradientUnits="userSpaceOnUse"
       x2="256.59"
       y1="422.67999"
       x1="248.33"
       inkscape:collect="always" />
    <linearGradient
       inkscape:collect="always"
       xlink:href="#linearGradient3772"
       id="linearGradient923"
       gradientUnits="userSpaceOnUse"
       x1="247.50999"
       y1="424.97"
       x2="252.02"
       y2="430.66" />
    <linearGradient
       inkscape:collect="always"
       xlink:href="#linearGradient3794"
       id="linearGradient925"
       gradientUnits="userSpaceOnUse"
       x1="248.33"
       y1="422.67999"
       x2="254.16"
       y2="431.37" />
    <linearGradient
       inkscape:collect="always"
       xlink:href="#linearGradient3772"
       id="linearGradient927"
       gradientUnits="userSpaceOnUse"
       x1="247.50999"
       y1="424.97"
       x2="252.02"
       y2="430.66" />
    <linearGradient
       inkscape:collect="always"
       xlink:href="#linearGradient3794"
       id="linearGradient929"
       gradientUnits="userSpaceOnUse"
       x1="248.33"
       y1="422.67999"
       x2="254.16"
       y2="431.37" />
    <linearGradient
       inkscape:collect="always"
       xlink:href="#linearGradient3967"
       id="linearGradient931"
       gradientUnits="userSpaceOnUse"
       x1="-215.36"
       y1="384.85999"
       x2="-120"
       y2="321.64999" />
    <linearGradient
       inkscape:collect="always"
       xlink:href="#linearGradient3967"
       id="linearGradient933"
       gradientUnits="userSpaceOnUse"
       x1="-215.36"
       y1="384.85999"
       x2="-120"
       y2="321.64999" />
    <linearGradient
       inkscape:collect="always"
       xlink:href="#linearGradient3967"
       id="linearGradient935"
       gradientUnits="userSpaceOnUse"
       x1="-215.36"
       y1="384.85999"
       x2="-120"
       y2="321.64999" />
    <linearGradient
       inkscape:collect="always"
       xlink:href="#linearGradient3967"
       id="linearGradient937"
       gradientUnits="userSpaceOnUse"
       x1="-215.36"
       y1="384.85999"
       x2="-120"
       y2="321.64999" />
    <linearGradient
       inkscape:collect="always"
       xlink:href="#linearGradient3967"
       id="linearGradient939"
       gradientUnits="userSpaceOnUse"
       x1="-215.36"
       y1="384.85999"
       x2="-120"
       y2="321.64999" />
    <linearGradient
       inkscape:collect="always"
       xlink:href="#linearGradient3967"
       id="linearGradient941"
       gradientUnits="userSpaceOnUse"
       x1="-215.36"
       y1="384.85999"
       x2="-120"
       y2="321.64999" />
    <linearGradient
       inkscape:collect="always"
       xlink:href="#linearGradient3772"
       id="linearGradient943"
       gradientUnits="userSpaceOnUse"
       x1="247.50999"
       y1="424.97"
       x2="252.02"
       y2="430.66" />
    <linearGradient
       inkscape:collect="always"
       xlink:href="#linearGradient3794"
       id="linearGradient945"
       gradientUnits="userSpaceOnUse"
       x1="248.33"
       y1="422.67999"
       x2="254.16"
       y2="431.37" />
    <linearGradient
       inkscape:collect="always"
       xlink:href="#linearGradient3772"
       id="linearGradient947"
       gradientUnits="userSpaceOnUse"
       x1="247.50999"
       y1="424.97"
       x2="252.02"
       y2="430.66" />
    <linearGradient
       inkscape:collect="always"
       xlink:href="#linearGradient3794"
       id="linearGradient949"
       gradientUnits="userSpaceOnUse"
       x1="248.33"
       y1="422.67999"
       x2="254.16"
       y2="431.37" />
  </defs>
  <sodipodi:namedview
     id="base"
     fit-margin-left="0"
     inkscape:zoom="0.35"
     borderopacity="1.0"
     inkscape:snap-intersection-paths="true"
     inkscape:cx="-380.83863"
     inkscape:cy="508.61935"
     inkscape:object-paths="true"
     inkscape:window-maximized="1"
     showgrid="false"
     fit-margin-right="0"
     inkscape:snap-global="false"
     inkscape:document-units="px"
     bordercolor="#666666"
     inkscape:window-x="-8"
     inkscape:window-y="-8"
     inkscape:snap-smooth-nodes="true"
     inkscape:object-nodes="true"
     fit-margin-bottom="0"
     inkscape:window-width="1920"
     inkscape:pageopacity="0.0"
     inkscape:pageshadow="2"
     pagecolor="#ffffff"
     inkscape:current-layer="svg2"
     inkscape:window-height="1025"
     fit-margin-top="0" />
  <g
     id="g3917"
     transform="matrix(1.1880387,0,0,1.1880387,-107.58712,-334.29509)">
    <path
       id="path3820"
       d="m 141.23,354.77 c 5.2579,6.9324 15.568,3.645 15.557,20.269 -0.009,14.238 -4.802,27.935 -2.3214,40.714 3.8331,19.748 23.661,18.063 38.036,18.214 l 7.1429,-40.536 0.17857,-46.071 -40.058,-6.021 -15.408,11.165 z"
       sodipodi:nodetypes="csscccccc"
       style="fill:#000000"
       inkscape:connector-curvature="0" />
    <path
       id="path3000"
       d="m 294.46,408.52 c -0.44409,7.0789 -0.5098,12.567 -2.5254,17.046 l -2.2728,5.0508 c -1.1105,1.8714 -1.5812,3.4677 -1.2627,4.9245 1.0428,4.77 -4.334,6.5814 -9.7858,6.6923 -9.0993,0.18507 -16.98,-3.0991 -23.675,-7.5762 z"
       sodipodi:nodetypes="cscsscc"
       style="fill:#ffffff;stroke:#000000;stroke-width:1px"
       inkscape:connector-curvature="0" />
    <path
       id="path3802"
       d="m 259.74,436.06 c 5.029,2.6739 16.282,7.4036 24.483,3.97 1.8633,-0.78017 0.92576,-1.2671 0.55606,-1.1326 -5.9557,-0.71677 -6.8806,-1.2032 -9.8865,-6.8935 -4.5663,0.71655 -13.24,0.57873 -15.292,3.2705 -0.4602,0.44884 0.0389,0.4423 0.13979,0.78553 z"
       sodipodi:nodetypes="cscccc"
       style="fill:#000000"
       inkscape:connector-curvature="0" />
    <path
       id="path3804"
       d="m 276.96,432.81 c 3.9,8.4513 8.0593,2.5223 10,-3.3036"
       sodipodi:nodetypes="cc"
       style="fill:none;stroke:#000000;stroke-width:1px;stroke-linecap:round;stroke-linejoin:round"
       inkscape:connector-curvature="0" />
    <path
       id="path3828"
       d="m 166.29,350.88 -0.57427,-10.379 45.401,23.947 -23.8,57.876 c 0.76249,-4.3781 -0.80022,-11.811 1.042,-16.319 4.7415,-11.602 7.6857,-21.389 6.2682,-28.783 -3.8101,-19.875 -17.777,-23.289 -28.337,-26.342 z"
       sodipodi:nodetypes="ccccssc"
       style="fill:#ffffff;stroke:#000000;stroke-width:1px"
       inkscape:connector-curvature="0" />
    <path
       id="path2996"
       d="m 142.68,356.11 c -8.3598,-2.0028 -9.27,-15.426 2.5254,-33.082 32.706,-48.956 79.395,-43.169 101.02,-37.376 39.512,10.587 68.141,51.333 56.821,100.26 -3.3328,14.405 -9.7245,30.399 -20.203,45.836 -0.9646,1.421 -2.0181,3.0752 -7.0711,1.5152 -6.8562,-2.1166 -12.26,-2.4575 -16.415,0.37881 -24.509,16.731 -41.962,17.049 -57.2,10.733 -16.766,-6.9494 -16.365,-20.796 -13.763,-33.082 2.1967,-10.375 9.1335,-20.437 7.955,-32.072 -2.3838,-23.534 -20.286,-26.699 -32.072,-29.421 -10.548,-2.4359 -22.511,0.15092 -21.592,6.3134 z"
       sodipodi:nodetypes="cssssssssssc"
       style="fill:#ffffff"
       inkscape:connector-curvature="0" />
    <path
       id="path2998"
       d="m 232.44,401.44 6.1957,9.2594 c 5.1067,0.24642 8.8858,-1.4976 10.989,-4.3746 2.4933,-3.4106 2.729,-8.2315 1.4103,-10.643 -2.7626,-5.051 -9.9584,-7.1787 -14.884,-2.204 -1.6866,1.7032 -2.6688,4.5294 -3.7105,7.9618 z"
       sodipodi:nodetypes="ccsssc"
       style="fill:#000000;stroke:#000000"
       inkscape:connector-curvature="0" />
    <ellipse
       id="path3002"
       style="color:#000000;fill:url(#linearGradient923);stroke:url(#linearGradient925);stroke-width:0.44218999;stroke-linecap:round;stroke-linejoin:round"
       transform="matrix(0.93971,0,0,0.85218,15.118,63.689)"
       cx="249.76022"
       cy="427.64597"
       rx="4.2931485"
       ry="4.4825521" />
    <path
       id="path3806"
       sodipodi:nodetypes="cc"
       style="fill:none;stroke:#000000;stroke-width:1px;stroke-linecap:round;stroke-linejoin:round"
       inkscape:connector-curvature="0"
       d="m 226.25,420.13 c 3.9,8.4513 27.166,2.8794 29.107,-2.9464" />
    <ellipse
       id="path3808"
       style="color:#000000;fill:url(#linearGradient927);stroke:url(#linearGradient929);stroke-width:0.44218999;stroke-linecap:round;stroke-linejoin:round"
       transform="matrix(0.78108,0.44749,-0.40581,0.70833,190.58,7.3705)"
       cx="249.76022"
       cy="427.64597"
       rx="4.2931485"
       ry="4.4825521" />
    <path
       id="path3818"
       d="m 195.89,401.56 c -20.041,42.944 32.499,51.77 67.143,26.696 -13.539,6.3683 -23.602,10.819 -33.708,11.721 -15.163,1.3531 -26.614,-2.0184 -32.112,-8.9971 -5.5304,-7.0204 -5.0507,-17.687 -1.323,-29.42 z"
       sodipodi:nodetypes="ccssc"
       style="fill:url(#linearGradient3965)"
       inkscape:connector-curvature="0" />
    <path
       id="path3822"
       d="m 168.3,379.74 c 2.1311,-0.13233 5.4146,0.39219 7.1054,4.064 0.6652,1.4446 0.73394,3.5059 0.31285,6.0578 -2.1302,12.909 5.9375,20.436 15.179,28.214 l -0.53572,14.286 c -12.23,1.0682 -23.613,-0.22216 -29.63,-6.4503 -6.9292,-7.1722 -6.4749,-21.343 -3.4853,-35.217 1.5948,-5.5483 4.8475,-10.47 11.054,-10.955 z"
       sodipodi:nodetypes="cssccscc"
       style="fill:#ffffff"
       inkscape:connector-curvature="0" />
    <path
       id="path3824"
       d="m 154.38,359.33 c 5.9142,5.3329 6.3533,13.656 5.0893,20.893 -0.36782,2.106 -1.9093,0.90363 -1.7857,0.17858 1.3053,-7.6559 0.31212,-13.845 -4.7321,-20.179 -1.4298,-1.7954 0.31269,-1.8991 1.4286,-0.89286 z"
       sodipodi:nodetypes="sssss"
       style="fill:#ffffff"
       inkscape:connector-curvature="0" />
    <path
       id="path3893"
       sodipodi:nodetypes="csscc"
       style="fill:#082052"
       inkscape:connector-curvature="0"
       d="m 154.91,325.53 c 0.77115,-1.9538 -14.34,5.3691 -13.18,3.2341 1.0056,-1.8512 2.1615,-3.7648 3.475,-5.7309 32.706,-48.956 79.395,-43.169 101.02,-37.376 -33.363,0.82706 -66.812,1.2865 -91.31,39.872 z" />
    <path
       id="path3826"
       sodipodi:nodetypes="cssssssssssc"
       style="fill:none;stroke:#000000;stroke-width:1px"
       inkscape:connector-curvature="0"
       d="m 142.68,356.11 c -8.3598,-2.0028 -9.27,-15.426 2.5254,-33.082 32.706,-48.956 79.395,-43.169 101.02,-37.376 39.512,10.587 68.141,51.333 56.821,100.26 -3.3328,14.405 -9.7245,30.399 -20.203,45.836 -0.9646,1.421 -2.0181,3.0752 -7.0711,1.5152 -6.8562,-2.1166 -12.26,-2.4575 -16.415,0.37881 -24.509,16.731 -41.962,17.049 -57.2,10.733 -16.766,-6.9494 -16.365,-20.796 -13.763,-33.082 2.1967,-10.375 9.1335,-20.437 7.955,-32.072 -2.3838,-23.534 -20.286,-26.699 -32.072,-29.421 -10.548,-2.4359 -22.511,0.15092 -21.592,6.3134 z" />
    <path
       id="path3816"
       d="m 161.31,324.17 c 1.6422,0.67441 4.8766,-0.84976 3.283,4.2932 l -5.4927,14.584 c -2.5446,6.7562 3.581,8.294 8.8388,9.9753 l -9.9753,0.0631 -4.0406,-7.6393 4.23,-16.668 z"
       sodipodi:nodetypes="ccsccccc"
       style="fill:#f2f2f2;stroke:#000000"
       inkscape:connector-curvature="0" />
    <path
       id="path3049"
       sodipodi:nodetypes="cccsc"
       style="fill:#d0d0d1;stroke:#000000;stroke-width:1px"
       inkscape:connector-curvature="0"
       d="m 140.85,322.21 6.124,2.9673 -5.177,20.582 c -6.6582,1.9502 -14.764,-0.11489 -10.859,-7.0079 3.1232,-5.5138 6.2919,-11.028 9.9121,-16.541 z" />
    <path
       id="path3814"
       d="m 144.42,324.72 16.473,-0.38964 c 2.0545,-0.0486 2.5548,0.24985 1.9643,1.9643 l -5.5357,16.071 c -2.0735,6.0198 -0.024,9.6986 5.1786,11.071 l -17.958,-0.70916 c -1.6537,0.30262 -2.06,2.2696 -1.8575,3.2638 -10.614,-4.242 -5.7165,-21.556 1.7354,-31.272 z"
       sodipodi:nodetypes="cssscccc"
       style="fill:#ffffff;stroke:#000000"
       inkscape:connector-curvature="0" />
    <path
       id="path3057"
       d="m 153.55,323.31 3.9644,2.4622 c 1.3604,0.84495 3.3064,1.8004 2.2623,4.4194 l -5.2438,14.395 -5.0238,-9.0282 z"
       sodipodi:nodetypes="cssccc"
       style="fill:#ccccce;stroke:#000000;stroke-width:1px;stroke-linecap:round;stroke-linejoin:round"
       inkscape:connector-curvature="0" />
    <path
       id="path3055"
       d="m 153.56,322.49 c 1.1288,1.7503 6.1915,2.0008 4.205,7.2586 l -3.8326,9.5964 0.88898,3.9143 c -0.29367,1.9082 -0.93711,3.314 -2.1415,3.9143 l -2.3731,0.31775 -4.1202,-3.9802 0.47172,-9.8483 z"
       sodipodi:nodetypes="ccccccccc"
       style="fill:#ccccce;stroke:#000000;stroke-width:1px;stroke-linecap:round;stroke-linejoin:round"
       inkscape:connector-curvature="0" />
    <path
       id="path3043"
       d="m 232.19,414.94 c 2.4938,1.4973 5.1888,-0.52118 4.7322,-2.6786 l -28.482,-44.732 c -5.9014,-10.533 -13.357,-16.545 -21.875,-19.464 -10.485,-3.751 -21.255,-5.5028 -31.964,-7.6786 -4.3916,-0.20919 -4.646,4.4408 -0.89286,5.4464 8.367,1.7197 16.598,2.623 25.179,5.625 9.4118,2.7722 17.898,6.9334 22.589,16.786 z"
       sodipodi:nodetypes="ccccccccc"
       style="fill:#cdcdcf;stroke:#000000;stroke-width:1px"
       inkscape:connector-curvature="0" />
    <g
       id="g3948"
       style="stroke:#000000"
       transform="translate(320.72,49.497)">
      <path
         id="path3850"
         d="m -163.74,325 c -16.441,16.953 -35.658,13.789 -49.827,11.464 -3.0408,-0.53087 -4.9358,0.058 -6.0714,2.5 -6.5329,14.048 -8.5932,30.416 -10.009,47.552 -0.10575,1.2799 0.39628,2.8387 1.9012,3.1728 7.92,0.14196 4.0821,-0.64781 4.8846,-5.4942 -0.24497,-9.0884 0.80883,-26.522 8.2233,-41.481 0.66949,-1.3508 2.1604,-2.0895 5.8929,-1.0714 14.479,4.2545 25.014,2.8251 32.596,-1.0191 6.2033,-3.1455 8.7282,-4.6322 11.924,-6.9135 z"
         sodipodi:nodetypes="ccssccscscc"
         style="fill:url(#linearGradient931);stroke:#000000;stroke-linecap:round;stroke-linejoin:round"
         inkscape:connector-curvature="0" />
      <path
         id="path3852"
         sodipodi:nodetypes="csscccccc"
         style="fill:url(#linearGradient933);stroke:#000000;stroke-linecap:round;stroke-linejoin:round"
         inkscape:connector-curvature="0"
         d="m -209.45,365.22 c -3.9534,-0.76671 -7.6954,-1.4859 -11.932,-2.7148 -2.626,-0.76166 -3.9913,-8.1503 2.8041,-7.149 19.898,2.932 32.231,1.7934 51.945,-1.9809 l -0.12839,5.4124 c -23.018,4.4044 -30.694,3.8605 -46.393,-0.10595 l -4.8706,-0.85313 c 4.4274,0.9117 6.5445,1.6545 10.974,2.2143 z" />
      <path
         id="path3854"
         d="m -202.39,344.5 -11.932,-2.5885 c -2.4869,-1.1364 -3.4089,-5.0508 0.82074,-5.4927 l 13.826,2.3991 z"
         sodipodi:nodetypes="ccccc"
         style="fill:url(#linearGradient935);stroke:#000000;stroke-linecap:round;stroke-linejoin:round"
         inkscape:connector-curvature="0" />
      <path
         id="path3858"
         d="m -172.5,310.04 -20.175,48.755 c -7.0172,16.958 -14.329,20.771 -29.286,24.464 -7.0335,0.72869 -7.1972,4.2188 -6.1522,5.795 1.3791,2.08 8.7116,4.588 15.884,5.1872 l 0.53571,-5.5357 c -2.8394,-0.83391 -6.2014,-0.64719 -7.9987,-1.1282 -1.1695,-0.31299 -1.194,-0.70876 0.47072,-0.65115 0.99794,0.0345 2.0734,0.33724 3.4882,0.28436 4.6821,-0.17501 7.9862,-2.2118 11.986,-5.0228 7.8138,-5.4913 11.337,-9.8085 18.393,-26.607 l 17.853,-42.505 c -1.1291,-2.8397 -3.0458,-3.0015 -5,-3.0357 z"
         sodipodi:nodetypes="cscsccssssscc"
         style="fill:url(#linearGradient937);stroke:#000000;stroke-linecap:round;stroke-linejoin:round"
         inkscape:connector-curvature="0" />
      <path
         id="path3862"
         sodipodi:nodetypes="ccccc"
         style="fill:url(#linearGradient939);stroke:#000000;stroke-width:1px;stroke-linecap:round;stroke-linejoin:round"
         inkscape:connector-curvature="0"
         d="m -123.48,304.56 c 1.5894,1.1604 3.1278,2.575 4.5982,4.3304 l -29.345,63.635 -6.9643,0.44643 z" />
      <path
         id="path3856"
         d="m -107.51,326.65 c 1.4731,0.32017 3.6695,2.868 3.5279,4.7351 -5.7242,5.3018 -8.9479,8.0929 -15.201,12.934 -4.7488,3.6769 -10.271,5.8033 -15.91,6.2503 -15.15,1.2009 -29.922,-0.75081 -44.447,-2.5885 l -17.362,-3.0304 c 0.0441,-0.2713 -0.11358,-0.93453 -0.31567,-0.63135 -3.4721,5.4229 -4.6023,10.928 -5.6821,16.668 l 39.27,5.9346 c 2.7357,0.41343 18.816,1.2654 30.178,-0.75761 l 40.538,-7.2174 3.2774,5.0077 c -17.536,3.0216 -34.679,6.4089 -54.043,8.5232 -8.563,0.93496 -18.851,0.42593 -23.486,-0.3788 l -36.366,-6.3135 c -0.58546,-0.10164 -0.98866,-0.10075 -1.1364,0.37881 -2.6592,8.6303 -2.8943,16.655 -2.9042,24.622 0.49469,0.0752 0.2056,-0.7993 0.6953,-0.70043 21.174,4.4534 46.61,-3.1084 51.469,-16.922 l 6.8064,-0.28859 c -11.427,23.436 -38.743,25.27 -59.728,22.078 -2.106,0.59236 -3.6534,0.0673 -5.0508,-0.75762 -0.52236,-20.676 4.1057,-38.913 12.627,-55.306 0.48854,-0.93982 4.4441,-1.9496 4.6088,1.3258 28.812,4.7966 40.585,4.433 56.884,5.3664 7.9653,0.45619 15.234,-3.6731 22.602,-10.48 z"
         sodipodi:nodetypes="ccssccccssccssssccccccscssc"
         style="fill:url(#linearGradient941);stroke:#000000;stroke-linecap:round;stroke-linejoin:round"
         inkscape:connector-curvature="0" />
    </g>
    <path
       id="path3051"
       sodipodi:nodetypes="ccccc"
       style="fill:#d0d0d1;stroke:#000000;stroke-width:1px"
       inkscape:connector-curvature="0"
       d="m 144.7,339.08 -10.094,-0.51405 c -3.743,1.0536 -3.7893,5.2809 0.37881,5.3033 l 9.6204,-0.3067 z" />
    <path
       id="path3053"
       d="m 149.25,323.4 c 2.6166,-2.0161 4.8984,-2.4282 6.4009,0.89285 l -6.1224,13.885 c -1.2959,2.939 -3.2754,5.7 2.5969,9.1492 -2.847,0.65635 -5.0489,1.0243 -7.453,0.38498 -0.44124,-0.11733 -0.90365,-0.27773 -1.1521,-0.74078 -1.7512,-3.2637 -2.2156,-6.5789 -0.19851,-10.893 z"
       sodipodi:nodetypes="ccscassc"
       style="fill:url(#linearGradient3979);stroke:#000000;stroke-width:1px;stroke-linecap:round;stroke-linejoin:round"
       inkscape:connector-curvature="0" />
    <ellipse
       id="path3059"
       style="color:#000000;fill:url(#linearGradient943);stroke:url(#linearGradient945);stroke-width:0.44218999;stroke-linecap:round;stroke-linejoin:round"
       transform="matrix(0.20455,0.41885,-0.37689,0.38063,261.43,58.822)"
       cx="249.76022"
       cy="427.64597"
       rx="4.2931485"
       ry="4.4825521" />
    <ellipse
       id="path3065"
       style="color:#000000;fill:url(#linearGradient947);stroke:url(#linearGradient949);stroke-width:0.44218999;stroke-linecap:round;stroke-linejoin:round"
       transform="matrix(0.20455,0.41885,-0.37689,0.38063,259.04,64.568)"
       cx="249.76022"
       cy="427.64597"
       rx="4.2931485"
       ry="4.4825521" />
    <path
       id="path3859"
       d="m 223.48,390.22 5.2679,7.6339 c 1.5366,2.2268 -0.44925,2.9894 -1.6071,3.75 l -13.661,8.9732 c -1.9454,1.2779 -3.2512,0.99015 -4.2857,-0.0893 l -4.1071,-4.2857 0.35714,-5.9821 10.982,-6.6964 z"
       sodipodi:nodetypes="csssscccc"
       style="fill:url(#linearGradient3989);stroke:#000000;stroke-width:1px;stroke-linecap:round;stroke-linejoin:round"
       inkscape:connector-curvature="0" />
    <path
       id="path3857"
       d="m 205,405.49 c -2.3629,-2.8716 -2.7186,-5.6618 0.0893,-7.5893 l 10.536,-7.2321 2.2322,2.7678 c -5.9492,3.6993 -12.324,7.317 -12.857,12.054 z"
       sodipodi:nodetypes="csccc"
       style="fill:#cbcbce;stroke:#000000;stroke-width:1px;stroke-linecap:round;stroke-linejoin:round"
       inkscape:connector-curvature="0" />
    <path
       id="path3855"
       d="m 216.88,392.45 c 3.585,0.0165 4.8008,-1.9216 5.0893,-3.8393 0.99339,1.1101 3.2477,1.9613 0.26785,4.1071 -10.237,5.6101 -18.347,11.406 -15.982,14.821 -1.6328,-1.8557 -3.0688,-3.7632 -0.26786,-6.7857 z"
       sodipodi:nodetypes="cccccc"
       style="fill:#ceced0;stroke:#000000;stroke-width:1px;stroke-linecap:round;stroke-linejoin:round"
       inkscape:connector-curvature="0" />
    <ellipse
       id="path3869"
       style="color:#000000;fill:url(#linearGradient3991);stroke:url(#linearGradient3993);stroke-width:0.44218999;stroke-linecap:round;stroke-linejoin:round"
       transform="matrix(0.60696,0.34773,-0.31534,0.55043,195.42,83.139)"
       cx="249.76022"
       cy="427.64597"
       rx="4.2931485"
       ry="4.4825521" />
    <ellipse
       id="path3887"
       style="color:#000000;fill:url(#linearGradient3957);stroke:url(#linearGradient3959);stroke-width:0.44218999;stroke-linecap:round;stroke-linejoin:round"
       transform="matrix(-0.32641,0.56126,-0.50898,-0.29601,516.85,387.43)"
       cx="249.76022"
       cy="427.64597"
       rx="4.2931485"
       ry="4.4825521" />
  </g>
  <metadata
     id="metadata131">
    <rdf:RDF>
      <cc:Work>
        <dc:format>image/svg+xml</dc:format>
        <dc:type
           rdf:resource="http://purl.org/dc/dcmitype/StillImage" />
        <cc:license
           rdf:resource="http://creativecommons.org/publicdomain/zero/1.0/" />
        <dc:publisher>
          <cc:Agent
             rdf:about="http://openclipart.org/">
            <dc:title>Openclipart</dc:title>
          </cc:Agent>
        </dc:publisher>
        <dc:title></dc:title>
        <dc:source>https://openclipart.org/detail/212653</dc:source>
      </cc:Work>
      <cc:License
         rdf:about="http://creativecommons.org/publicdomain/zero/1.0/">
        <cc:permits
           rdf:resource="http://creativecommons.org/ns#Reproduction" />
        <cc:permits
           rdf:resource="http://creativecommons.org/ns#Distribution" />
        <cc:permits
           rdf:resource="http://creativecommons.org/ns#DerivativeWorks" />
      </cc:License>
    </rdf:RDF>
  </metadata>
</svg>
