<?xml version="1.0" encoding="UTF-8" standalone="no"?>
<svg xmlns:rdf="http://www.w3.org/1999/02/22-rdf-syntax-ns#" xmlns="http://www.w3.org/2000/svg" height="1219" viewBox="0 0 895 1219" width="895" version="1.1" xmlns:cc="http://creativecommons.org/ns#" xmlns:dc="http://purl.org/dc/elements/1.1/">
<path d="m616.5 1217.4c-2.3834-0.8444-7.9142-1.4233-13.685-1.4322-5.3267-0.01-10.952-0.5234-12.5-1.1445-1.7958-0.7206-14.582-1.2992-35.315-1.5981-17.875-0.2578-38.575-0.561-46-0.6739-13.412-0.2038-38.387-2.6446-47-4.5933-5.8741-1.3289-38.195-5.0019-44.032-5.0038-2.4926-0.0008-6.9926-0.6746-10-1.4973-23.065-6.3095-45.294-10.4-65.468-12.048-6.2189-0.508-8.8403-1.2221-11.774-3.2074-3.1357-2.1217-7.9573-3.2818-28.5-6.8567-31.318-5.4499-54.66-10.38-72.615-15.338-7.7608-2.1427-15.685-4.1935-17.61-4.5572-6.6856-1.2635-37.574-10.455-50.5-15.027-7.15-2.529-20.654-7.2222-30.008-10.429-29.984-10.28-46.447-18.724-77.992-40.004-6.6-4.4523-14.246-9.5445-16.992-11.316-2.9285-1.8895-6.932-5.9075-9.6859-9.7208-2.5818-3.575-6.519-8.5654-8.7493-11.09-4.4802-5.0709-9.958-16.164-12.547-25.41-0.92416-3.3-2.5196-8.925-3.5454-12.5-3.7015-12.9-3.0197-14.372 14.403-31.102 7.2182-6.9312 16.497-16.606 20.62-21.5 4.127-4.85 13.575-15.15 21-22.86 27.538-28.574 53.753-57.209 70.573-77.087 6.5596-7.752 15.639-18.211 20.177-23.241 9.7576-10.818 9.7462-10.752 4.1203-23.965-2.2713-5.3344-6.1256-15.324-8.5651-22.199s-7.5349-20.6-11.323-30.5c-10.773-28.152-19.804-53.406-26.106-73-3.1841-9.9-10.483-31.95-16.221-49-9.854-29.28-12.152-36.36-16.048-49.49-3.906-13.16-14.809-48.69-19.028-62-2.527-7.98-8.205-26.42-12.617-41s-9.124-29.2-10.47-32.5c-3.167-7.76-6.911-22.96-9.367-38.03-1.072-6.58-2.698-13.72-3.611-15.86-4.345-10.19 3.926-38.54 14.63-50.15 4.45-4.83 6.856-10 6.856-14.75 0-1.8447 0.63327-5.3466 1.4073-7.7821 0.774-2.44 2.621-10.28 4.103-17.43 3.386-16.327 4.4871-20.205 9.0066-31.716 7.3883-18.818 9.4639-23.486 14.577-32.784 4.6681-8.4886 13.848-26.104 26.578-51 4.4895-8.7803 14.414-23.127 31.951-46.189 14.476-19.036 50.298-54.708 79.447-79.113 13.535-11.332 19.226-15.602 37.163-27.882 3.7625-2.5758 9.2569-6.8914 12.21-9.5902 6.9481-6.3501 14.557-11.362 22.057-14.529 3.3-1.3932 9.7379-4.6058 14.306-7.1391 42.74-23.702 66.75-26.134 102.69-10.402 25.829 11.306 27.383 12.078 34.25 17.022 4.8566 3.4965 12.279 6.9697 28.652 13.407 12.154 4.7783 25.472 10.553 29.597 12.834 4.125 2.2802 9.9419 5.19 12.926 6.4662 2.9845 1.2762 9.8669 4.7789 15.294 7.7838 5.4274 3.0049 11.989 6.0934 14.582 6.8633 2.5928 0.76997 7.8603 3.2993 11.706 5.6207 3.8454 2.3214 9.2416 5.0769 11.992 6.1233 2.75 1.0464 8.0784 4.4494 11.841 7.5622 3.7625 3.1128 10.544 8.5847 15.07 12.16 9.1324 7.2134 23.207 19.513 27.382 23.927 1.489 1.5747 7.6572 7.2682 13.707 12.652 6.05 5.3842 16.428 14.994 23.061 21.355 6.6337 6.361 13.266 12.37 14.739 13.354 1.4725 0.98345 4.5625 4.5643 6.8668 7.9574 2.3042 3.3931 6.9218 9.7254 10.261 14.072 3.3396 4.3464 7.8719 10.716 10.072 14.156 2.2 3.4393 5.2649 7.732 6.8108 9.5391 1.546 1.8072 4.1856 6.0312 5.8658 9.3868s4.4969 8.1269 6.2593 10.603 5.8152 9.2261 9.0062 15 6.655 11.704 7.6979 13.178c1.0428 1.4738 4.1636 7.7738 6.9351 14s7.013 14.695 9.4255 18.82c2.4126 4.125 4.8861 9.75 5.4967 12.5 0.61061 2.75 2.3726 7.25 3.9154 10 4.298 7.6607 9.3801 19.806 13.6 32.5 4.6622 14.026 4.2502 13.475 11.112 14.853 3.0832 0.61919 7.0164 1.9908 8.7406 3.048 3.691 2.2633 14.637 4.5927 17.752 3.778 6.9282-1.8118 28.569 1.5888 44.882 7.0527 54.364 18.208 39.806 46.188-33.698 64.769-16.409 4.148-18.901 10.804-9.1276 24.379 4.9748 6.9099 5.3557 19.759 0.97358 32.838-2.9262 8.7342-3.029 9.6526-3.0126 26.912 0.0343 35.917-0.0946 40.049-1.5554 49.869-0.81815 5.5-1.9664 15.889-2.5517 23.087-0.58529 7.1977-1.756 16.198-2.6017 20-0.84563 3.8023-1.7806 12.088-2.0776 18.413-0.38456 8.1884-1.2533 13.804-3.0167 19.5-1.4754 4.766-2.6894 11.638-3.0029 17-0.49036 8.3856-1.2552 12.868-6.3617 37.283-1.0678 5.1054-2.3703 12.305-2.8943 16-2.7058 19.076-4.1879 27.404-6.0899 34.217-5.2676 18.871-7.0136 26.516-7.5929 33.25-0.34303 3.9873-1.4676 9.0496-2.499 11.25-5.7823 12.334-17.098 45.494-21.841 64-3.5114 13.703-3.5774 14.951-0.98341 18.594 2.1801 3.0617 2.2235 3.4969 1.0464 10.502-1.6498 9.8184 0.51785 13.074 16.886 25.363 2.475 1.8581 6.75 5.5321 9.5 8.1643 2.75 2.6323 7.5282 6.7189 10.618 9.0813 3.09 2.3624 8.715 6.8096 12.5 9.8825 3.785 3.073 13.182 10.168 20.882 15.766 7.7 5.5983 17.948 13.141 22.772 16.761 6.3726 4.7816 9.8816 6.7311 12.827 7.1262 3.3412 0.4481 4.479 1.2159 6.4656 4.3629 1.5174 2.4038 6.3992 6.5791 13.173 11.267 29.098 20.136 30.904 23.698 29.221 57.63-2.3332 47.033-22.535 80.729-58.459 97.504-4.95 2.3115-15.525 7.4697-23.5 11.463-18.948 9.4867-28.383 12.897-38.521 13.925-4.5247 0.4586-8.6782 1.1129-9.23 1.454-1.9527 1.2068-21.936 4.6917-35.671 6.2209-7.6571 0.8525-15.325 2.1361-17.039 2.8525-3.2678 1.3653-13.215 2.7301-22.539 3.0922-3.025 0.1175-12.925 0.9438-22 1.8362-9.075 0.8925-19.2 1.8793-22.5 2.1929-5.971 0.5674-18.187 2.198-22 2.9365-1.1 0.2131-3.8-0.2504-6-1.0299zm53-13.413c2.2-0.5045 10.525-1.6399 18.5-2.5231s15.85-2.0639 17.5-2.6237 8.85-1.6898 16-2.5112c7.15-0.8213 16.15-1.8678 20-2.3253 3.85-0.4576 8.7051-1.5696 10.789-2.471 2.084-0.9015 8.609-2.2773 14.5-3.0573 32.282-4.2744 79.768-27.33 96.893-47.045 17.512-20.159 27.651-56.658 21.278-76.597-1.936-6.0572-1.9562-6.598-0.39877-10.679 1.905-4.9914 0.69782-9.6669-2.781-10.771-3.7107-1.1778-5.0328 1.692-5.8788 12.76-4.008 52.438-21.816 79.354-65.686 99.283-6.9941 3.1772-16.902 7.7369-22.016 10.133-6.6683 3.1233-11.907 4.7753-18.512 5.8382-5.0666 0.8153-13.032 2.5809-17.7 3.9235-11.966 3.4415-37.871 7.8933-61.898 10.637-5.1755 0.591-9.7871 1.3076-10.248 1.5925-2.4023 1.4846-136.75 2.3567-153.84 0.9986-15.746-1.2514-40.445-3.6057-48-4.5753-7.1715-0.9204-21.078-2.6369-40.5-4.999-4.95-0.602-14.85-2.1894-22-3.5275-7.15-1.3382-22.9-4.2632-35-6.5001s-24.581-4.7258-27.735-5.5308c-3.1542-0.805-7.4882-1.4636-9.6312-1.4636s-10.137-1.2857-17.765-2.8571c-7.6278-1.5714-17.244-3.4268-21.369-4.123-14.577-2.4606-32.163-6.7344-69-16.769-10.175-2.7716-20.975-5.5466-24-6.1667-7.5656-1.5508-29.288-7.554-42.232-11.671-5.9023-1.8774-11.306-3.4135-12.009-3.4135-22.896 0-95.052-41.172-125.01-71.33-12.565-12.649-14.102-13.642-16.131-10.426-5.9049 9.3612 22.343 41.548 50.718 57.789 3.3942 1.9428 8.1947 4.9125 10.668 6.5995 5.8857 4.0146 26.002 14.637 32.997 17.424 18.681 7.4429 65.907 23.604 77.5 26.521 3.3 0.8303 11.4 3.256 18 5.3906 6.6 2.1345 16.5 4.9734 22 6.3087 5.5 1.3352 15.625 3.8153 22.5 5.5112 13.732 3.3873 23.317 5.3126 38.5 7.7337 5.5 0.877 13.375 2.2394 17.5 3.0276s15.6 2.5875 25.5 3.9984 23.625 3.6371 30.5 4.9471c11.261 2.1459 27.933 5.1215 50.5 9.0133 8.191 1.4126 19.958 2.9341 31.5 4.0727 3.575 0.3527 8.0265 1.2704 9.8922 2.0392 1.8657 0.7689 8.6157 1.8579 15 2.42s16.333 1.433 22.108 1.9355c17.521 1.5243 33.198 3.1184 39 3.9658 7.7328 1.1293 134.61 1.2146 139.5 0.094zm-22.613-24.045c7.6256-1.3759 8.4309-2.2875 7.6366-8.645-1.0949-8.7636 4.235-16.266 10.409-14.652 1.2315 0.322 4.6743 0 7.6506-0.7127 10.933-2.6227 17.405 2.1335 17.413 12.795 0.006 8.109 1.1396 8.2104 35.504 3.1769 8.3603-1.2246 27.036-5.6332 29.54-6.9731 0.98265-0.5259 2.7485-3.9768 3.9478-7.715 4.8487-15.113 17.578-18.919 29.089-8.6959 6.0201 5.3467 5.0099 5.3117 16.258 0.5631 22.868-9.6536 25.512-12.012 20.47-18.258-8.0622-9.9867-3.745-21.422 9.5459-25.286 7.5838-2.2047 8.4427-2.0632 12.169 2.0052 4.8005 5.241 6.2183 4.4421 11.698-6.5916 8.8647-17.85 10.603-38.186 2.9118-34.069-8.678 4.6443-17.507-4.1965-14.2-14.218 1.9093-5.7853 5.1505-7.9729 12.789-8.6318 12.89-1.1118 12.85-8.9977-0.0968-18.986-8.7169-6.725-10.26-6.0348-14.697 6.572-8.3449 23.714-23.799 49.977-38.334 65.148-15.138 15.8-62.468 36.205-96.592 41.644-36.979 5.8941-33.591 5.6401-70.164 5.2612-75.717-0.7846-118.34-3.0731-152.34-8.1793-5.5-0.8261-14.05-1.9775-19-2.5587-11.489-1.3491-25.674-3.4203-41.5-6.0597-6.875-1.1466-16.55-2.7127-21.5-3.4802-12.527-1.9423-48.504-8.9987-63.5-12.455-15.172-3.4966-23.808-5.3288-35-7.4262-32.27-6.0474-56.669-12.578-90-24.09-39.414-13.613-40.734-14.143-79.482-31.91-18.827-8.633-25.985-12.436-48.455-25.748-9.6866-5.7383-9.7389-5.7196-23.563 8.4372-6.6 6.7587-13.238 13.078-14.75 14.042-4.8268 3.0778 1.5654 10.384 19.161 21.9 11.708 7.6627 13.619 7.5991 18.039-0.6 5.5182-10.236 15.903-10.623 22.117-0.8254 3.3057 5.2126 3.8979 11.921 1.4329 16.233-1.9793 3.4624-1.8412 6.3812 0.39769 8.4074 2.2175 2.0068 21.995 9.9631 27.102 10.903 1.925 0.3542 9.2605 2.55 16.301 4.8795 14.662 4.851 15.45 4.7327 17.321-2.5998 3.5705-13.996 22.149-17.474 30.125-5.6383 3.1406 4.6604 2.9153 9.5375-0.69168 14.974-4.8475 7.3068-4.008 7.8446 21.945 14.056 6.875 1.6453 17 4.3406 22.5 5.9895 31.898 9.563 34.5 9.579 37.764 0.2331 6.3913-18.3 31.468-12.228 29.282 7.0905-0.98042 8.6658-0.24986 9.0113 30.954 14.64 11.27 2.0331 32.758 5.9599 47 8.589 12.574 2.3212 15.269 2.0664 17.297-1.635 6.8221-12.456 15.045-17.052 25.113-14.035 7.7324 2.3167 9.4646 6.4979 7.5892 18.319l-0.74145 4.6735 3.8714 1.0017c5.0603 1.3095 27.822 4.1352 42.371 5.2601 6.325 0.489 13.75 1.315 16.5 1.8355 21.132 3.9998 31.561 2.3886 32.898-5.0825 3.545-19.812 32.536-19.576 32.588 0.2658 0.0173 6.5982 0.90781 7.6178 7.0344 8.0536 9.5091 0.6766 65.755-0.2696 70.868-1.192zm-87.232-5.1176c3.6561-3.0343 0.62922-6.8716-5.4204-6.8716-5.6177 0-8.2343 1.4321-8.2343 4.5066 0 3.991 9.6762 5.6669 13.655 2.365zm118.12-3.4283c2.7536-1.9287 2.9122-6.0038 0.28825-7.4081-5.2702-2.8206-15.284 0.3485-13.748 4.3509 1.4462 3.7686 9.7508 5.6549 13.46 3.0572zm-244.96-11.693c0.57071-4.9599-8.4539-6.1649-10.969-1.4646-1.5422 2.8817 1.426 4.8932 6.653 4.5085 3.5335-0.2601 4.0369-0.6151 4.3164-3.0439zm345.23-2.5885c2.51-2.0325 2.017-3.8324-1.3955-5.0947-4.1519-1.5359-11.009 2.9302-9.1401 5.9534 1.0374 1.6785 8.1145 1.1017 10.536-0.8587zm-475.45-18.6c3.9458-3.9458 4.1182-4.8818 1.4-7.6-3.9338-3.9338-13 0.1575-13 5.8664 0 5.4082 6.895 6.4386 11.6 1.7336zm377.4-4.4028c6.875-0.5725 14.072-1.5261 15.993-2.1191 1.9214-0.5929 5.0134-1.0781 6.8712-1.0781 8.0209 0 30.722-5.9806 48.635-12.813 49.247-18.784 67.275-37.273 85.08-87.258 7.2316-20.302 9.4246-16.876-29.58-46.212-5.225-3.9298-11.88-9.0738-14.789-11.431-8.6938-7.045-10.088-6.1338-15.626 10.214-5.9581 17.587-13.537 29.482-23.353 36.649-3.1525 2.3019-7.445 5.7071-9.5388 7.567-8.2504 7.3287-38.103 22.376-54.041 27.239-21.258 6.4868-41.572 11.043-49.243 11.044-2.8001 0.0004-7.3001 0.7064-10 1.5689-17.997 5.7487-127.06 1.8343-169.41-6.0807-4.125-0.7708-12-2.1144-17.5-2.9856s-15.175-2.6604-21.5-3.9761-20.05-4.0333-30.5-6.0391c-31.964-6.1353-47.389-9.3554-62-12.943-7.7-1.8909-21.428-5.2404-30.506-7.4435-20.864-5.063-37.203-9.7637-57.494-16.54-8.8-2.9392-19.815-6.541-24.478-8.004-15.626-4.9027-41.263-15.8-45.104-19.172-0.87006-0.76389-4.2451-1.8576-7.5-2.4306-3.6341-0.63967-11.076-3.5748-19.283-7.6053-16.152-7.9322-13.026-8.9033-33.706 10.471-24.985 23.408-25.447 24.692-11.724 32.536 4.2869 2.4505 10.846 6.3442 14.577 8.6527 6.5256 4.0384 27.627 14.097 42.218 20.124 3.85 1.5903 8.575 3.7375 10.5 4.7715s6.65 3.0311 10.5 4.438c3.85 1.407 11.275 4.2008 16.5 6.2086 19.615 7.5375 35.039 12.699 52.5 17.57 9.9 2.7615 21.375 6.0638 25.5 7.3385 7.6739 2.3712 20.807 5.5142 31.5 7.5386 3.3 0.6248 10.5 2.2213 16 3.5478 11.014 2.6564 35.519 7.7662 48 10.009 8.1125 1.4577 17.52 3.2983 27.5 5.3802 16.296 3.3995 57.603 9.5447 78 11.604 9.075 0.9162 18.532 2.2396 21.016 2.9409 4.2686 1.2054 11.532 2.1244 35.984 4.5529 5.775 0.5736 29.175 1.4959 52 2.0495 22.825 0.5537 41.838 1.0997 42.251 1.2133 2.2913 0.6299 45.136-0.2126 55.749-1.0963zm158.25-10.4c3.8694-2.9557 2.5436-9.75-1.9025-9.75-1.6811 0-7.3516 5.2849-7.3516 6.8516 0 3.4106 6.0876 5.3172 9.2541 2.8984zm-645.18-18.334c2.0206-2.4346-0.0887-4.9162-4.1786-4.9162-2.8133 0-3.4485 0.4066-3.7285 2.3869-0.55629 3.9343 5.2101 5.7789 7.9071 2.5293zm-90.07-32c0-2.7365-2.9552-4.8734-5.4276-3.9246-1.5656 0.6007-2.1753 4.4532-0.90578 5.7227 1.893 1.8931 6.3333 0.6324 6.3333-1.7981zm522-13.841c3.575-0.8689 11.225-2.085 17-2.7022 24.833-2.6543 69.817-17.438 87-28.592 27.953-18.145 35.483-27.614 43.075-54.164 3.0222-10.568 2.6928-12.843-2.593-17.907-7.3537-7.0461-9.249-5.5182-11.997 9.6714-6.7888 37.53-45.259 69.768-91.906 77.017-3.8064 0.5915-7.2813 1.2984-7.7221 1.5708-0.77296 0.4777-5.9979 1.1393-27.357 3.4641-27.916 3.0384-118.47 0.6245-150.5-4.0119-3.575-0.5175-9.2-1.2117-12.5-1.5426-13.743-1.3781-35.124-4.6532-52-7.9651-9.9-1.9428-22.95-4.4609-29-5.5958-22.246-4.173-45.335-8.9225-58-11.931-7.15-1.6986-18.175-4.2031-24.5-5.5656-33.343-7.1825-58.006-15.162-102-32.999-28.469-11.543-34.236-13.962-44.251-18.565-9.1189-4.1914-11.337-4.4843-13.073-1.7267-1.5667 2.4881 1.3705 6.2168 7.0222 8.9143 2.641 1.2606 8.0272 4.2335 11.969 6.6066 3.9421 2.3731 9.7921 4.9692 13 5.7691s10.783 3.3139 16.833 5.5867 19.1 6.9776 29 10.455c9.9 3.4776 20.436 7.2893 23.413 8.4705 2.9771 1.1812 7.9271 2.7814 11 3.556 3.0729 0.7745 8.7372 2.3366 12.587 3.4713 3.85 1.1348 13.975 3.8695 22.5 6.0772s19.325 5.0891 24 6.4031 12.775 3.341 18 4.5044c16.905 3.7641 42.307 9.0666 50 10.437 4.125 0.7349 15.375 2.9462 25 4.914 29.623 6.0563 57.827 10.943 73.5 12.735 5.5 0.6288 10.323 1.3424 10.717 1.5857 0.39445 0.2433 8.9444 0.9078 19 1.4766s22.108 1.4077 26.783 1.8642c15.166 1.4808 78.52 0.5369 86-1.2813zm237.8 1.1054c2.1096-2.1096 1.4124-5.7461-1.3424-7.0013-5.229-2.3825-8.325 4.5057-3.1493 7.0068 2.8911 1.3971 3.0893 1.3969 4.4917-0.01zm-793.74-45c14.041-13.9 33.553-33.07 43.353-42.57l17.829-17.273-0.43683-5.2676c-0.28698-3.4607-2.0222-8.6839-5.0585-15.227-2.5419-5.4776-5.6023-13.109-6.8008-16.959-5.356-17.205-5.4873-17.15-34.648 14.5-9.8813 10.725-18.793 20.175-19.803 21-1.0105 0.825-6.1237 6.675-11.363 13-5.2389 6.325-14.448 16.652-20.464 22.95-17.584 18.405-17.387 24.328 1.4749 44.3 8.7754 9.2921 6.7661 10.327 35.912-18.5zm548.94 24.2c17.962-1.3357 32.13-2.8704 36.5-3.9538 2.2-0.5454 5.681-1.0024 7.7356-1.0155 2.0546-0.013 5.6546-0.4779 8-1.0329 2.3454-0.5549 7.1894-1.6839 10.764-2.5088 33.941-7.8316 67.023-40.708 69.522-69.09 0.33369-3.7908 1.051-8.9394 1.594-11.442 1.3773-6.3463 0.16577-8.7587-7.4367-14.808-12.769-10.16-13.153-10.116-23.642 2.7391-21.515 26.369-42.559 41.056-66.037 46.09-5.564 1.1929-12.906 3.6907-17.722 6.0288-4.522 2.1956-10.372 4.5131-13 5.1499-2.628 0.63681-7.8241 2.01-11.547 3.0516-4.0851 1.1429-14.394 2.4584-26 3.3178-10.577 0.7832-20.803 1.8867-22.725 2.4521-7.1558 2.1058-18.971 1.2885-43.023-2.9758-3.0338-0.5379-8.4338-1.2236-12-1.5239-27.015-2.2747-42.958-4.7393-90.841-14.043-4.04-0.8-8.7-1.44-10.35-1.44s-5.9893-0.66541-9.643-1.4787c-3.6537-0.81328-10.468-2.3322-15.143-3.3753-29.297-6.5369-93.768-26.759-117.34-36.805-10.148-4.3249-11.872-4.2788-15.309 0.40918-11.996 16.36-32.143 6.8276-26.947-12.75 1.9343-7.2881 1.1694-8.3532-10.42-14.508-5.2633-2.7952-10.354-6.3146-11.855-8.1956-3.7311-4.6761-4.9336-4.2804-14.813 4.8736-4.8497 4.4937-11.351 10.279-14.448 12.857-23.467 19.534-21.751 21.708 34.63 43.864 11.55 4.5389 24.15 9.5527 28 11.142 23.798 9.8232 79.388 24.956 122.5 33.347 10.175 1.9804 24.35 4.7539 31.5 6.1633 36.066 7.1094 56.905 10.752 65.5 11.448 5.225 0.4233 12.2 1.2672 15.5 1.8754 5.5985 1.0318 10.409 1.5516 39 4.2136 6.05 0.5633 14.375 1.3906 18.5 1.8384 10.064 1.0927 76.576 1.1472 91 0.075zm-56.967-44.58c3.4069-0.87281 7.1034-1.3492 8.2144-1.0587 1.111 0.29055 4.3224 0.11127 7.1364-0.39839s12.091-1.4089 20.616-1.9983c32.663-2.2583 31.62-2.015 39.8-9.2803 4.8802-4.3343 7.6409-5.2818 25.24-8.6627 18.691-3.5906 49.336-28.492 60.735-49.351 3.3886-6.2007 0.0679-6.5836-4.7756-0.55062-20.756 25.853-55.035 48.124-79.647 51.748-15.703 2.3118-24.237 4.5452-32.053 8.3879l-8.2005 4.0317-36.407-0.0378c-20.024-0.0208-40.409-0.53027-45.3-1.1322-13.183-1.6225-29.539-3.2505-41.393-4.1202-19.379-1.4219-29.44-2.9474-39-5.9133-5.225-1.621-16.025-4.6085-24-6.6388-16.157-4.1133-68.642-21.054-79.5-25.661-3.85-1.6334-11.5-5.1416-17-7.7962-15.407-7.4361-36.601-17.101-40.602-18.515-1.9809-0.70025-16.744-7.8417-32.807-15.87-26.94-13.47-33.08-16.02-33.08-13.75 0 0.46723-1.3418 2.8297-2.9818 5.25-4.1379 6.1066-4.0794 6.2242 5.7318 11.509 4.8125 2.5921 11.9 6.545 15.75 8.7842 29.829 17.349 68.895 33.269 107 43.603 4.4 1.1933 11.375 3.2273 15.5 4.5201 33.905 10.626 61.734 16.514 92.21 19.51 5.6594 0.55638 12.315 1.4459 14.79 1.9766 14.7 3.1524 21.392 4.3359 28.988 5.1266 14.751 1.5355 22.16 2.5501 34.512 4.7265 19.312 3.4028 31.503 3.8715 40.533 1.5582zm40.47-17.88c6.05-1.5593 15.05-4.3362 20-6.1709s14.85-4.7383 22-6.4524c18.966-4.5467 21.974-6.194 22.666-12.412 0.25217-2.2647 1.1554-3.3832 3.6984-4.5794 4.3413-2.0421 4.6854-2.7835 5.9991-12.924 0.60565-4.675 1.559-12.006 2.1186-16.291 2.0771-15.904 1.5303-16.888-9.218-16.59-11.596 0.32166-69.141-7.2025-107.26-14.025-29.595-5.2965-38.509-7.1486-58.5-12.155-10.725-2.6858-22.425-5.6044-26-6.4859-3.575-0.88141-16.245-4.7912-28.155-8.6883-19.57-6.4036-21.939-6.9683-24.6-5.8661-4.2794 1.7726-11.194 9.225-14.167 15.269-6.1951 12.594-16.924 12.454-32.569-0.4244-7.2038-5.9298-6.3154-17.59 1.9588-25.711 4.8354-4.7455 5.3978-6.5058 3.0644-9.5908-5.0268-6.646-0.12594-7.3858 13.576-2.0494 18.103 7.0503 34.306 13.744 35.392 14.622 0.55 0.44433 3.7707 1.5246 7.1572 2.4006 3.3864 0.876 11.486 3.333 18 5.4599 26.364 8.6091 47.939 13.841 87.343 21.181 9.075 1.6905 19.296 3.7205 22.713 4.511 3.4171 0.79055 11.517 2.1135 18 2.94 6.4829 0.82644 13.812 1.9619 16.287 2.5232 5.9136 1.3412 31.669 3.8849 50.5 4.9876 8.25 0.48309 17.082 1.0991 19.628 1.369 8.62 0.92 10.88-1.43 10.88-11.31 0-6.8-1.99-9.07-7.95-9.07-2.658 0-8.37-0.64678-12.693-1.4373-4.3233-0.79051-12.81-1.9332-18.86-2.5394-6.05-0.60613-14.596-1.7705-18.991-2.5875-4.3952-0.81701-17.22-2.8208-28.5-4.4529s-22.084-3.3865-24.009-3.8986c-1.925-0.51214-5.975-1.2239-9-1.5816-7.8833-0.93235-49.447-9.2002-57.609-11.46-3.7899-1.0491-11.97-3.053-18.177-4.4531-13.004-2.933-46.475-13.719-53.43-17.217-6.2978-3.1678-7.7826-3.0114-11.837 1.2467-10.224 10.737-32.809 3.7989-32.939-10.119-0.0506-5.3935-0.3242-5.7137-11.633-13.616-10.331-7.2194-11.142-7.746-30.733-19.94-6.6774-4.1563-15.066-9.7169-18.641-12.357-3.575-2.6399-8.7468-5.9397-11.493-7.3329-2.746-1.3932-8.371-5.0938-12.5-8.2236-4.13-3.14-10.66-7.58-14.51-9.87-6.98-4.17-18.31-12.74-41.8-31.67-6.8284-5.5-15.066-11.907-18.306-14.238-3.2397-2.331-13.426-11.556-22.636-20.5-9.22-8.94-18.91-18.28-21.55-20.76-7.4-6.95-37.52-39.7-43.43-47.22-15.67-19.95-21.73-27.81-25.25-32.78-2.1464-3.025-5.8733-7.8559-8.2819-10.735-3.829-4.5776-10.944-15.462-30.532-46.708-4.435-7.08-18.802-34.58-24.32-46.56-4.0799-8.8563-7.5162-15-8.3898-15-1.6608 0-2.0236 1.8247-0.92769 4.6661 0.60115 1.5587 1.4662 4.8589 1.9224 7.3339 0.45615 2.475 2.3906 8.55 4.2987 13.5 4.8964 12.702 6.1856 16.248 8.1801 22.5 2.1905 6.8664 20.198 43.09 26.099 52.5 2.4142 3.85 6.3961 11.089 8.8486 16.087 2.4525 4.9981 5.9472 10.902 7.7659 13.12 3.7287 4.5473 12.384 17.031 19.706 28.423 2.6974 4.1966 5.4224 7.9504 6.0556 8.3417 0.63325 0.39137 4.9993 5.9578 9.7022 12.37 4.703 6.412 14.467 17.68 21.697 25.039 24.978 25.424 48.173 47.861 55.646 53.827 4.125 3.2933 8.4 7.0041 9.5 8.2462 1.1 1.2422 3.6139 3.0822 5.5865 4.089s7.6778 5.1214 12.678 9.1436c20.305 16.333 37.624 28.993 44.235 32.337 1.925 0.9735 8.0623 5.0516 13.638 9.0625 5.5761 4.0109 14.351 9.6288 19.5 12.484 5.1489 2.8555 11.27 6.5014 13.602 8.102 2.3321 1.6006 12.007 6.6396 21.5 11.198 18.149 8.7144 20.115 10.101 19.587 13.815-0.75107 5.2747-37.678-11.808-66.347-30.693-7.7112-5.0794-17.161-10.838-21-12.798-7.4869-3.821-13.257-7.8862-23.908-16.844-3.6944-3.1071-9.2726-7.0114-12.396-8.6761-3.1233-1.6647-10.546-6.885-16.496-11.601-5.96-4.71-11.24-8.57-11.75-8.57-1.1108 0-14.967-12.111-21.81-19.062-2.6889-2.7317-6.6303-6.3463-8.7586-8.0326-9.4955-7.5231-37.982-35.015-42.385-40.906-2.6723-3.575-8.0802-9.65-12.018-13.5-3.9374-3.85-10.242-11.5-14.011-17-3.7684-5.5-9.4704-13.6-12.671-18s-7.8367-11.287-10.302-15.304c-26.406-43.01-29.124-43.52-17.192-3.2 6.104 20.626 20.053 63.412 23.962 73.5 1.9182 4.95 5.6579 15.975 8.3105 24.5 5.0757 16.313 5.709 18.153 13.935 40.5 2.8343 7.7 6.8688 18.95 8.9655 25s5.1622 14.375 6.8122 18.5c9.3178 23.294 13.025 32.766 13.7 35 0.41514 1.375 2.8943 7 5.5093 12.5s6.1872 13.143 7.9384 16.984c5.4819 12.026 6.7714 12.508 10.556 3.9493 9.9598-22.521 41.782-4.0723 32.888 19.066-2.6921 7.0036-2.7174 8.1028-0.23967 10.411 2.8989 2.7008 18.188 11.043 31.365 17.113 5.5 2.5338 14.95 7.1772 21 10.319 6.05 3.1415 20 9.7081 31 14.593 11 4.8844 25.76 11.603 32.801 14.931 7.0405 3.3278 20.766 8.5715 30.5 11.653 9.7345 3.0812 21.524 6.9153 26.199 8.5201 13.853 4.7554 40.83 11.931 50.5 13.433 4.95 0.76862 13.05 2.0599 18 2.8696 4.95 0.80965 13.725 1.9853 19.5 2.6125 5.775 0.62725 14.1 1.7681 18.5 2.5353 6.8285 1.1906 21.536 2.5617 42 3.9156 21.129 1.3979 55.194-0.0817 66-2.8669zm-446.55-45.43c6.3248-5.8364 16.462-15.394 22.526-21.238 6.0648-5.8445 14.402-13.203 18.527-16.352 9.9072-7.5628 9.9061-7.5599 5.4158-14.08-3.2-4.64-4.22-5.44-6.89-5.44-1.7935 0-4.6162-1.0904-6.5838-2.5432-1.8944-1.3988-5.768-3.2194-8.6081-4.0459-5.3098-1.5452-12.063-8.4813-13.788-14.162-2.1252-6.9975-5.885-5.2014-19.592 9.3593-27.544 29.261-27.766 29.804-20.532 50.392 12.297 34.996 11.653 34.601 29.522 18.112zm84.482 8.3169c2.0904-2.0904 1.9812-3.7477-0.38828-5.8921-2.7277-2.4686-6.8017-1.3353-7.6725 2.1344-1.1195 4.4604 4.6626 7.1559 8.0608 3.7578zm458.42-5.7839c12.56-12.08 25.15-28.64 25.15-33.09 0-1.7269 0.72919-5.8219 1.6204-9.1 2.6702-9.8213 2.7258-10.39 1.0774-11.023-1.7803-0.68317-31.987 16.796-34.723 20.093-1.1587 1.3962-4.8679 26.571-4.9388 33.52-0.0764 7.4852 3.7435 7.3541 11.816-0.40534zm7.7381-52.441c27.489-16.668 26.324-15.738 30.189-24.095 4.71-10.2 5.45-16.12 2.02-16.12-1.3514 0-4.9504 1.9108-8.0048 4.25-7.3801 5.6519-14.357 10.514-25.646 17.874-9.96 6.5-12.15 9.43-12.15 16.27 0 8.177 2.542 8.5171 13.59 1.818zm-305.16-13.774c4.0465-4.0465-8.4134-12.176-12.924-8.4326-2.4348 2.0207-1.7604 3.8027 2.6476 6.9958 4.6095 3.3391 7.9125 3.8009 10.277 1.4368zm-194.74-3.2162c6.0867-3.8703 2.5292-15.297-5.5112-17.701-5.072-1.5168-11.84 4.7483-9.5171 8.8096 2.8809 5.0365 12.314 10.617 15.028 8.8914zm476.25-3.97c2.7839-2.2566 3.7427-9.1687 5.0973-36.75 0.56727-11.55 1.4688-24.6 2.0035-29 1.8452-15.185 2.4166-126.72 0.66655-130.1-1.7095-3.3058-1.9151-5.3461-4.6747-46.396-3.1307-46.569-6.3981-74.966-9.4602-82.218-0.86343-2.0448-1.5758-5.6448-1.583-8-0.0181-5.9089-3.5375-22.447-5.3728-25.248-1.2598-1.9226-2.7121-2.4144-8.8112-2.9834-12.878-1.2015-14.921-0.94249-37.803 4.7928-30.582 7.6655-32.24 8.1314-50.5 14.195-17.759 5.8967-33.119 10.371-60 17.478-9.9 2.6175-22.05 5.953-27 7.4124-15.462 4.5585-80.054 19.736-91.5 21.5-3.575 0.55099-13.7 2.1405-22.5 3.5323-61.732 9.7634-82.652 11.485-83.311 6.8575-0.43666-3.0672 1.8717-3.9497 12.311-4.7065 8.612-0.62433 14.106-1.384 41-5.6692 6.6-1.0516 16.275-2.3588 21.5-2.905 21.82-2.2806 46.47-7.4575 114.5-24.048 35.572-8.6747 44.077-11.088 90-25.54 14.511-4.5665 32.041-9.5348 51-14.454 6.05-1.5698 16.4-4.4774 23-6.4612 13.539-4.0697 14.767-4.0777 30.5-0.19886 34.002 8.3829 57.076 12.831 86.117 16.6 36.027 4.6759 36.594 4.5884 39.435-6.0842 3.3103-12.437 1.7429-14.916-11.552-18.267-5.225-1.3172-10.625-2.8393-12-3.3826-1.375-0.54325-6.1-1.5083-10.5-2.1446-4.4-0.63627-13.4-2.0128-20-3.0588-6.6-1.0461-19.875-2.8363-29.5-3.9782-31.986-3.7949-32.418-3.8684-33.765-5.7511-0.7-0.97-2.83-3.79-4.73-6.27-9.33-12.12-17.51-32.91-17.51-44.48 0-4.2018-1.7742-4.9153-8.6647-3.4848-6.838 1.4196-8.3353 3.5061-8.3353 11.616 0 17.1-3.3201 27.678-11.692 37.248-7.5345 8.6131-8.2395 8.9138-66.808 28.503-51.103 17.092-66.62 21.652-82 24.1-3.8514 0.61289-13.957 3.5403-33 9.5594-4.95 1.5646-13.725 3.9601-19.5 5.3232-20.044 4.7313-49.573 11.66-63 14.782-7.425 1.7266-16.135 3.7704-19.355 4.5417-11.178 2.6773-31.696 6.6765-56.282 10.97-9.0361 1.5781-9.0264-7.2358 0.0368-33.177 1.9215-5.5 5.0887-14.5 7.0382-20 8.2616-23.308-1.2645-45.385-19.648-45.535-2.36-0.01-7.89-0.7-12.29-1.52s-12.5-2.18-18-3.03c-40.88-6.28-67.66-18.99-108.5-51.5-55.1-43.86-84.369-54.49-98.271-35.7-5.2217 7.0595-3.8895 9.8086 4.6446 9.584 12.939-0.34043 20.1 12.138 20.117 35.054l0.009 14.35-3.75 3.15c-2.063 1.73-3.755 4.05-3.761 5.15-0.0059 1.1-0.61581 4.025-1.3553 6.5-0.73948 2.475-1.1394 5.175-0.88869 6 2.1768 7.1634 13.438 32.958 16.153 36.999 0.92432 1.3758 3.8863 7.2264 6.5822 13.001 2.6959 5.775 6.2032 12.021 7.794 13.88 1.5908 1.8589 4.2119 6.1339 5.8246 9.5s4.9977 8.8201 7.5222 12.12c2.5245 3.3 5.9321 8.925 7.5724 12.5s4.6302 8.0981 6.6443 10.051c2.014 1.9533 6.5869 7.5765 10.162 12.496 3.575 4.9196 7.8791 10.521 9.5646 12.449 1.6855 1.9271 4.319 5.6876 5.8523 8.3565 1.5332 2.6689 5.5541 7.6298 8.9354 11.024 5.4489 5.4702 9.3427 9.8901 25.148 28.546 5.7437 6.7797 50.593 49.827 56.862 54.577 2.9034 2.2 8.6594 6.925 12.791 10.5 4.1318 3.575 10.583 8.975 14.335 12 3.7525 3.025 10.376 8.425 14.72 12 4.3432 3.575 10.089 7.85 12.768 9.5s8.393 5.5149 12.698 8.5886c4.3048 3.0737 8.952 6.1666 10.327 6.873 1.375 0.70643 5.65 3.6242 9.5 6.484s9.2383 6.5062 11.974 8.1032 9.817 6.388 15.736 10.646c5.9193 4.2585 15.008 10.068 20.198 12.909 5.1897 2.8416 11.608 7.0652 14.264 9.3859 11.962 10.454 16.089 10.727 25.631 1.6955 12.002-11.36 16.233-12.524 26.495-7.289 12.917 6.59 16.56 15.235 9.2019 21.84-7.306 6.5587-5.9023 8.6869 9.0936 13.788 29.952 10.188 83.512 23.193 106.91 25.957 3.025 0.35743 10.9 1.713 17.5 3.0125 6.6 1.2994 14.925 2.6372 18.5 2.9729 3.575 0.33566 8.975 1.0196 12 1.5198 5.8607 0.96914 19.712 2.7254 47.992 6.0852 9.6206 1.143 17.683 2.2692 17.917 2.5028 1.2609 1.2609 11.069 0.26322 13.029-1.3253zm-15.94-49.95c-80.255-13.714-163.23-44.028-227.5-83.113-4.95-3.0103-12.15-7.2702-16-9.4666-22.079-12.595-37.766-24.668-37.293-28.701 0.45906-3.9162 3.2513-3.5516 9.528 1.2441 8.6524 6.6108 22.975 16.036 31.863 20.966 4.3465 2.4114 10.153 5.8674 12.903 7.6801 40.461 26.67 121.23 60.03 174.5 72.076 31.705 7.1692 40.676 9.0804 49.058 10.451 5.2566 0.85938 10.699 1.5625 12.095 1.5625 1.3956 0 3.3188 0.86339 4.2738 1.9186 3.854 4.2587-3.2755 7.1164-13.426 5.3818zm-23.137-40.317c-0.90041-0.52586-2.9955-3.0997-4.6558-5.7196l-3.01-4.76-1.1246-54c-0.61854-29.7-1.5712-60.3-2.117-68-1.087-15.334-2.233-34.278-3.9321-65-0.60836-11-1.7263-24.701-2.4843-30.447-1.5732-11.924-1.1572-13.54 4.8443-18.809 14.241-12.504 19.851-0.81112 21.233 44.256 0.2698 8.8 1.3433 20.95 2.3856 27 4.6428 26.949 5.3796 73.415 2.0852 131.5-1.8581 32.761-3.5969 41.548-8.6798 43.864-2.9164 1.3288-2.4835 1.3175-4.5358 0.11889zm-59.17-16.98c-6.8001-2.0928-7.2796-4.3834-9.1774-43.843-3.3004-68.62-8.9877-142.03-11.519-148.69-4.2614-11.208 15.078-21.233 20.412-10.581 1.7923 3.5794 3.3132 16.439 5.1573 43.609 0.85864 12.65 1.7723 23.633 2.0303 24.407 0.42746 1.2818 1.9788 32.176 4.0971 81.593 2.1728 50.689 0.8445 57.15-10.999 53.505zm-62.965-12.083c-5.7665-4.7533-5.9324-5.4665-5.8834-25.299 0.0489-19.808-2.0126-59.771-4.2621-82.622-3.6533-37.112-4.0098-42.596-3.7506-57.708l0.18-10.21 4.3345-2.5402c16.834-9.8652 18.624-8.2363 19.731 17.956 0.4417 10.45 1.3496 25.3 2.0176 33 2.1769 25.094 1.8365 114.77-0.46115 121.5-3.3247 9.7344-5.7879 10.96-11.9 5.9216zm-58.9-28.12-5.59-5.3-0.61-10.5c-0.33235-5.775-1.0928-24.225-1.6899-41-0.97986-27.529-1.7484-38.371-4.9819-70.277-1.4157-13.969 0.16928-15.895 14.08-17.109 10.593-0.92438 10.957-0.54872 12.596 12.984 5.4165 44.73 5.7524 63.352 2.0129 111.57-2.0937 26.995-4.6649 30.187-15.815 19.633zm-57.57-33.77c-6.4811-2.9419-6.4026-2.4218-9.2776-61.527-0.5618-11.55-1.4459-23.364-1.9647-26.254-1.5288-8.5151-0.82573-9.1121 9.6924-8.2295 11.842 0.99367 13.196 5.3358 13.879 44.483 0.3379 19.384 0.87679 27.825 2.1178 33.174 3.4476 14.858-3.2904 23.418-14.447 18.354zm306.39 169.64c5.97-4.03 16.04-10.81 22.36-15.06 15.666-10.531 16.131-11.111 19.386-24.188 1.4952-6.006 4.0191-15.195 5.6086-20.42 9.9907-32.841 8.5831-37.962-6.9951-25.45-11.222 9.0126-31.622 23.082-40.429 27.883-12.364 6.7398-12.569 7.1129-12.583 22.952-0.007 8.058-0.55389 15.151-1.4175 18.396-6.2405 23.443-2.8322 27.293 14.067 15.889zm-299.84 4.13c3.1707-3.1707 1.2048-5.9756-7.0017-9.9895-6.41-3.14-13.8-1.72-13.8 2.64 0 4.0249 17.826 10.325 20.8 7.351zm1.6286-35.371c2.303-2.303 1.9432-3.938-1.5053-6.8397-4.25-3.58-12.92-2.97-12.92 0.9 0 4.7803 11.042 9.3253 14.429 5.9389zm16.9-13.523c6.5597-4.345 6.5527-7.7567-0.0243-11.928-12.3-7.8007-24.33 2.2121-13.214 10.999 6.1176 4.8357 7.2236 4.9133 13.239 0.92901zm282.81-22.153c7.9115-4.2201 27.874-18.902 36.036-26.503 8.0154-7.465 8.9538-7.9136 13.187-6.3042 3.5864 1.3635 4.2713 0.0601 7.1529-13.612 5.16-24.51 5.88-38.34 2-38.34-5.2205 0-5.7597-2.701-5.0595-25.344 0.35978-11.636 0.78928-42.426 0.95445-68.422 0.32671-51.423 0.37656-51.849 5.9745-51.027 6.1349 0.89985 7.7357 10.814 6.4366 39.861-0.57641 12.888-1.1999 28.934-1.3856 35.658-0.18568 6.724-0.8093 13.924-1.3858 16-2.2388 8.0617-0.26041 20.632 2.688 17.079 1.523-1.8351 3.1052-8.7985 4.1591-18.304 2.4522-22.118 4.2373-37.811 5.1573-45.339 1.8996-15.543 3.9122-59.421 2.92-63.661-0.51484-2.2-0.94681-5.4467-0.95993-7.2148-0.0373-5.022 1.0894-4.7205-38.524-10.309-16.687-2.3544-35.389-5.777-52-9.5165-19.944-4.49-20.23-4.1615-14.84 17.041 1.9979 7.8581 3.0873 14.99 4.888 32 0.81512 7.7 1.9184 16.925 2.4518 20.5 0.53338 3.575 1.412 18.875 1.9525 34 1.1278 31.561 1.6981 38.135 3.7298 43 1.3432 3.2163 2.382 17.492 3.7473 51.5 0.19873 4.95 0.69867 15.576 1.111 23.614 0.55727 10.864 0.42697 15.483-0.50774 18-0.77264 2.0806-1.3809 10.032-1.5778 20.624-0.39924 21.477-0.40961 21.464 11.68 15.015zm-2.679-30.802c-1.7237-1.9047-1.8648-4.487-2.008-36.75-0.0847-19.086-0.66724-41.001-1.2946-48.701-1.6575-20.345-4.0296-52.659-5.1798-70.563-0.54992-8.5597-1.6611-18.685-2.4694-22.5-0.80824-3.8153-1.4773-9.7684-1.4869-13.229-0.01-3.4607-0.71677-9.6782-1.5716-13.817-3.4807-16.851 1.718-23.839 8.4064-11.301 2.7734 5.1992 3.7008 11.017 5.0862 31.91 0.56532 8.525 1.7011 23.375 2.5239 33 0.82283 9.625 1.5054 23.06 1.5169 29.856 0.0122 7.2304 0.60608 14.697 1.4318 18 2.7659 11.065 3.9367 101.7 1.3549 104.89-1.5032 1.859-4.2154 1.5157-6.3099-0.79864zm19.41-18.21c-0.75053-1.4013-1.5162-10.549-2.0298-24.25-0.45358-12.1-1.52-33.7-2.3698-48-4.482-75.42-5.9805-121.07-4.07-123.98 7.1916-10.976 13.488 16.722 14.203 62.481 0.11608 7.425 0.88988 17.85 1.7196 23.167 1.0223 6.5507 1.2226 10.902 0.62139 13.5-0.81935 3.5406-0.4236 28.742 0.47416 30.194 0.2176 0.35208-0.1475 15.04-0.81133 32.64-1.22 32.14-1.83 36.5-5.11 36.5-0.7863 0-1.9719-1.0125-2.6348-2.25zm20.308-15.576c-1.7715-1.7715-1.9091-5.0665-2.5578-61.273-0.38-32.67-1.14-63.9-1.69-69.4-0.54969-5.5-1.3896-16.975-1.8665-25.5-0.47687-8.525-1.1875-16.507-1.5791-17.738-1.3088-4.1131 2.2078-3.9679 6.5481 0.27037 6.2878 6.1399 6.9548 9.4192 8.5361 41.967 0.77489 15.95 1.8146 33.5 2.3105 39 0.53301 5.9119 0.5359 15.519 0.007 23.5-0.49198 7.425-1.302 24.894-1.8001 38.821-1.1259 31.481-2.2961 35.97-7.9133 30.353zm-416.49-244.58c3.7485-0.77208 12.665-2.3747 19.815-3.5614s16.15-3.0098 20-4.0513c3.85-1.0416 12.175-2.8235 18.5-3.9598 6.325-1.1364 16-3.42 21.5-5.0748 9.9483-2.9931 21.374-5.8451 39.5-9.8597 21.771-4.8219 76.876-18.209 91-22.107 8.3253-2.2979 14.376-3.4124 27-4.9734 4.675-0.57808 11.2-1.9043 14.5-2.9472 3.3-1.0428 8.475-2.4212 11.5-3.063 3.025-0.64179 9.1-2.0132 13.5-3.0477 4.4-1.0344 12.866-2.8116 18.814-3.9493 5.9476-1.1377 12.698-2.7073 15-3.4881 2.3024-0.78078 10.486-2.1402 18.186-3.021 7.7-0.88077 15.967-2.31 18.372-3.1761 2.5951-0.9347 9.9666-1.8762 18.137-2.3166 7.5708-0.40804 14.2-1.0108 14.732-1.3396 3.082-1.9048 77.441-2.7027 94.034-1.009 24.438 2.4945 38.838 17.519 31.071 32.42-4.1897 8.0382 1.068 11.674 10.898 7.5369 40.724-17.14 24.984-34.729-41.744-46.65-14.43-2.5779-76.939-4.5847-94.5-3.0338-22.772 2.0111-54.037 6.184-72 9.6098-3.85 0.73422-11.95 2.0769-18 2.9837-6.05 0.90683-21.35 4.3029-34 7.5468s-30.2 7.5023-39 9.463c-17.102 3.8105-35.775 8.1486-52.042 12.09-5.5234 1.3383-13.398 2.8111-17.5 3.273-4.1016 0.46186-12.858 2.4352-19.458 4.3853s-17.175 4.7515-23.5 6.2254-13.75 3.2915-16.5 4.039c-2.75 0.74753-9.95 2.7162-16 4.3748s-18.2 4.8846-27 7.1688c-59.111 15.344-67.5 17.884-67.5 20.439 0 1.0538 16.302 0.38772 22.685-0.92683zm-24.073-10.757c6.363-2.9196 11.999-4.3637 26.388-6.7613 9.4442-1.5736 22.984-5.0184 26.14-6.6505 1.6626-0.85975 9.1737-2.875 16.691-4.4783 18.988-4.0496 32.924-7.7456 35.495-9.4135 1.1955-0.77565 5.3236-1.9148 9.1736-2.5314 3.85-0.61662 12.4-2.6395 19-4.4953s16.725-4.5317 22.5-5.9464c5.775-1.4148 13.65-3.4578 17.5-4.54 17.886-5.0279 26.424-6.8967 31.5-6.8944 3.318 0.001 12.641-1.8496 23.5-4.6657 9.9-2.5675 20.7-5.0104 24-5.4286 6.1197-0.77552 24.818-5.1446 41-9.5802 4.95-1.3568 10.208-2.4639 11.685-2.4603 1.4767 0.004 3.897-0.45418 5.3783-1.0174 1.4814-0.56323 7.2482-1.487 12.815-2.0529 5.5669-0.56587 13.497-1.8809 17.622-2.9222 4.125-1.0414 11.1-2.1761 15.5-2.5217 4.4-0.34559 11.6-1.2445 16-1.9975 4.4-0.75304 13.175-1.8653 19.5-2.4716 6.325-0.60633 14.425-1.5227 18-2.0364s11.9-0.96832 18.5-1.0102c24.103-0.15316 24.263-0.93852 7.7326-37.963-3.5606-7.975-7.9489-18.325-9.7518-23s-5.3274-12.18-7.8324-16.679c-2.505-4.4984-6.4197-11.923-8.6993-16.5-15.528-31.174-26.398-45.806-34.067-45.857-5.4939-0.0364-8.8116-0.71893-26.382-5.4276-20.966-5.6188-61.376-18.439-79.154-25.111-21.465-8.0564-21.383-8.1845-9.7905 15.454 4.64 9.49 8.44 17.83 8.44 18.56 0 0.72821 2.8566 7.1186 6.348 14.201 21.48 43.58 26.67 74.38 12.54 74.38-9.0741 0-37.368-41.357-66.684-97.469-20.093-38.459-19.397-37.924-35.492-27.234-22.206 14.749-36.486 23.554-52.211 32.194-8.8 4.835-18.025 10.068-20.5 11.628-4.9119 3.0968-15.274 8.2265-27 13.366-4.125 1.808-11.775 5.1585-17 7.4455-14.24 6.2331-32.612 13.29-50.5 19.397-17.549 5.9919-34.08 12.421-41.332 16.074-2.5676 1.2935-11.418 4.4693-19.668 7.0573s-17.925 5.7852-21.5 7.1048c-3.575 1.3197-16.625 5.7589-29 9.8649s-25.2 8.563-28.5 9.9044c-34.239 13.917-57.136 25.062-70.25 34.194-4.6958 3.2699 5.5054 14.284 24.628 26.592 3.092 1.99 7.1969 5.2903 9.1219 7.3339 5.7945 6.1516 37.48 26.279 50.5 32.078 14.594 6.5009 25.522 9.2276 52 12.975 28.191 3.9894 36.08 6.5649 43.142 14.085 4.9384 5.2586 4.3551 5.2024 12.97 1.2495zm497.67-32.469c3.4209-1.446 8.652-3.4708 11.625-4.4994 6.69-2.31 12.08-6.31 12.08-8.98 0-2.8146-11.354-13.882-14.238-13.878-1.2442 0.002-9.391-0.50338-18.104-1.1224-21.797-1.5486-21.545-1.8911-13.367 18.119 5.3902 13.189 10.084 15.403 21.989 10.371zm-752.81-7.98c3.0396-3.0396 1.6261-8.5874-2.7056-10.62-7.595-3.5633-8.7297-9.9769-2.307-13.04 4.198-2.0019 4.544-4.4272 1.1883-8.3284-6.262-7.28-21.658 1.67-21.658 12.59 0 12.416 18.431 26.443 25.482 19.393zm56.993-61.895c3.4831-2.4855 9.4137-5.8971 13.179-7.5814 7.051-3.1538 13.431-6.1762 35.846-16.982 12.398-5.9767 34.359-14.346 56-21.342 5.5-1.7779 11.843-4.1832 14.095-5.345 2.2521-1.1618 8.1021-3.2463 13-4.6322s16.78-5.23 26.405-8.5426c9.625-3.3125 18.203-6.0301 19.063-6.0391 0.85972-0.009 4.5256-1.803 8.1463-3.9868 6.99-4.22 22.97-10.03 27.58-10.03 1.5194 0 3.6502-0.61011 4.7351-1.3558s4.4475-2.1682 7.4725-3.1612 8.6373-3.3079 12.472-5.1442c3.8345-1.8363 7.4376-3.3388 8.0069-3.3388 0.56929 0 5.082-1.625 10.028-3.6112 4.9462-1.9861 11.243-4.4931 13.993-5.571 7.8022-3.0582 24.629-11.839 28.5-14.873 1.925-1.5084 4.625-3.0579 6-3.4432 4.7703-1.3367 39.545-19.819 48-25.511 4.675-3.1474 12.325-8.1216 17-11.054 19.124-11.994 25.057-18.48 20.8-22.737-2.221-2.221-4.9192-1.2319-18.218 6.6786-7.2848 4.3332-15.233 8.7854-17.664 9.8937-2.4302 1.1083-14.544 6.8319-26.919 12.719-12.375 5.8872-33.975 16.104-48 22.704-14.025 6.5999-32.25 15.278-40.5 19.284-8.25 4.0061-23.1 10.535-33 14.508-9.9 3.9732-18.45 7.5866-19 8.0298-1.6051 1.2935-22.348 8.9827-24.259 8.9928-0.95732 0.005-6.9156 2.2817-13.241 5.0593-12.332 5.4154-35.839 14.386-40.599 15.492-1.5955 0.37092-6.501 2.3755-10.901 4.4546s-15.03 6.2982-23.622 9.3757c-25.136 9.0033-48.386 19.247-71.878 31.669-7.425 3.9261-15.188 8.0042-17.25 9.0625-4.9544 2.5422-5.1518 6.0522-0.5 8.8885 4.9974 3.047 8.1411 2.5246 15.224-2.53zm-20.183-13.85c29.083-15.76 63.553-31.59 90.703-41.67 4.125-1.5311 10.875-4.2157 15-5.9658 13.18-5.5916 22.363-9.1124 27.5-10.543 2.75-0.76609 10.175-3.7099 16.5-6.5417 20.681-9.2592 32.374-14.056 40-16.408 4.125-1.2722 10.1-3.4801 13.279-4.9064 3.1782-1.4263 6.4635-2.5932 7.3006-2.5932 0.83715 0 4.9868-1.3346 9.2215-2.9657 4.2347-1.6312 12.199-4.6018 17.699-6.6015 13.476-4.8996 57.633-25.585 84-39.35 2.2-1.1485 11.65-5.514 21-9.7012 9.35-4.1871 17.518-8.0289 18.15-8.5372 0.63272-0.50833 4.6827-2.8681 9-5.2439 20.643-11.36 33.771-19.449 34.389-21.189 1.222-3.4408-10.117-26.852-18.847-38.912-1.9906-2.75-7.9354-11.3-13.211-19-27.14-39.618-28.97-41.464-53.98-54.362-5.78-2.979-12.98-6.702-16-8.274-20.83-10.823-68.82-12.511-96.5-3.395-33.335 10.979-54.317 22.533-72.067 39.685-3.8867 3.7558-9.3762 8.5202-12.199 10.588-11.451 8.3862-20.026 16.21-45.362 41.389-15.483 15.387-28.166 28.868-30.453 32.37-4.0766 6.2409-12.847 17.891-19.041 25.293-1.9757 2.361-5.5108 7.986-7.8556 12.5-7.7955 15.007-17.532 33.014-18.448 34.118-0.49707 0.59911-2.063 4.1694-3.4799 7.9341-1.4169 3.7646-3.7327 8.2192-5.1461 9.899-3.0526 3.6278-8.035 13.267-10.468 20.252-0.95885 2.7525-4.0218 9.9545-6.8066 16.004-2.7848 6.05-5.5022 13.025-6.0386 15.5-0.53648 2.475-1.906 8.55-3.0435 13.5-6.6062 28.75-6.3735 30.363 4.4087 30.562 2.75 0.0507 6.8 0.6854 9 1.4105 7.184 2.3676 9.4014 1.8751 21.797-4.8413zm503.43-43.65c-0.83084-9.1627-9.1873-31.874-19.487-52.961-5.2336-10.716-10.364-21.462-11.401-23.88-3.0023-7.0041-19.569-37.784-25.639-47.637-4.8427-7.86-8.6772-14.336-25.325-42.773-8.53-14.57-16.58-26.73-21.35-32.23-2.8604-3.3-6.9615-8.3295-9.1136-11.177-14.716-19.47-29.789-35.329-36.071-37.954-2.1102-0.88172-6.7031-4.2844-10.206-7.5614-3.5032-3.2771-8.2775-7.387-10.61-9.1332-2.3321-1.7462-6.9204-5.448-10.196-8.2262-3.2758-2.7782-7.2777-5.5273-8.893-6.1091-1.6153-0.58182-6.5488-2.4635-10.963-4.1816-21.31-8.2932-21.624-8.3606-38.346-8.238-16.752 0.12283-26.041 2.1904-34.378 7.6517-6.0792 3.9825-3.64 8.1876 4.0749 7.0249 20.749-3.1268 61.742 4.3804 77.601 14.211 3.3409 2.071 7.4243 4.3474 9.0743 5.0587 14.724 6.3475 31.002 20.393 43.506 37.537 16.028 21.977 36.373 54.485 43.868 70.096 3.4329 7.15 8.1938 16.375 10.58 20.5 2.3859 4.125 4.6676 8.625 5.0704 10 0.40278 1.375 4.3392 9.025 8.7477 17 4.4084 7.975 11.075 20.8 14.816 28.5 24.279 49.983 56.391 93.752 54.644 74.478zm85.228-82.43c2.7289-3.2882-2.703-9.9314-8.9354-10.928-4.2259-0.67575-34.272-8.8931-47.525-12.998-10.329-3.1991-46.005-16.132-59.401-21.533-11.518-4.644-16.389-5.0642-16.903-1.4581-0.47672 3.3422 3.6458 6.9032 11.804 10.196 4.125 1.665 13.623 5.7279 21.106 9.0286 20.256 8.9344 41.04 15.643 75.894 24.496 19.427 4.9346 22.209 5.3056 23.96 3.1956zm-19.96-27.07c0-4.906-12.462-19.435-21.275-24.803-1.9662-1.1976-4.9496-3.9155-6.6298-6.0397s-5.0889-5.4469-7.575-7.3838c-2.49-1.93-4.52-3.88-4.52-4.31 0-4.0733-52.362-48.062-64.515-54.199-2.7581-1.3927-7.8039-4.6288-11.213-7.1914-3.7691-2.8333-7.6823-4.8896-9.9853-5.247-4.3358-0.6729-11.127-3.9165-26.826-12.812-21.618-12.249-37.969-19.527-40.439-18.001-2.5402 1.5699-0.85007 5.7497 4.7669 11.789 3.1841 3.4236 8.443 9.8248 11.686 14.225 3.2433 4.4 8.0252 10.25 10.626 13 2.6012 2.75 8.7764 11.525 13.723 19.5 4.9462 7.975 10.357 16.525 12.024 19 1.6668 2.475 4.8575 7.9769 7.0904 12.227 4.737 9.015 5.4174 9.5408 18.453 14.26 5.4351 1.9674 16.233 6.5234 23.995 10.124 13.562 6.292 36.388 14.692 53.826 19.808 4.5579 1.3373 11.215 3.3495 14.794 4.4715 15.716 4.9271 21.993 5.3809 21.993 1.5899z"/>
</svg>
