<?xml version="1.0" encoding="UTF-8" standalone="no"?>
<!-- Created with Inkscape (http://www.inkscape.org/) -->

<svg
   xmlns:dc="http://purl.org/dc/elements/1.1/"
   xmlns:cc="http://creativecommons.org/ns#"
   xmlns:rdf="http://www.w3.org/1999/02/22-rdf-syntax-ns#"
   xmlns:svg="http://www.w3.org/2000/svg"
   xmlns="http://www.w3.org/2000/svg"
   xmlns:sodipodi="http://sodipodi.sourceforge.net/DTD/sodipodi-0.dtd"
   xmlns:inkscape="http://www.inkscape.org/namespaces/inkscape"
   id="svg26454"
   sodipodi:docname="pith_helmet_01.svg"
   viewBox="0 0 125.91028 107.58528"
   version="1.1"
   inkscape:version="0.92.4 (5da689c313, 2019-01-14)"
   width="125.91029"
   height="107.58528">
  <defs
     id="defs26456">
    <radialGradient
       id="radialGradient9905"
       gradientUnits="userSpaceOnUse"
       cx="1106"
       cy="255.61"
       r="222.36"
       gradientTransform="matrix(1.5,0.024859,-0.018059,1.0897,-548.39,-65.481)"
       inkscape:collect="always">
      <stop
         id="stop3003"
         style="stop-color:#d6b991"
         offset="0" />
      <stop
         id="stop3005"
         style="stop-color:#d0aa7b"
         offset="1" />
    </radialGradient>
    <linearGradient
       id="linearGradient9907"
       y2="11.74"
       gradientUnits="userSpaceOnUse"
       y1="349.66"
       x2="1421.3"
       x1="1053.9"
       inkscape:collect="always">
      <stop
         id="stop3939"
         style="stop-color:#a69075"
         offset="0" />
      <stop
         id="stop3941"
         style="stop-color:#918a6f"
         offset="1" />
    </linearGradient>
    <linearGradient
       id="linearGradient9909"
       y2="169.03999"
       gradientUnits="userSpaceOnUse"
       y1="100.9"
       x2="1189.1"
       x1="1368.2"
       inkscape:collect="always">
      <stop
         id="stop3011"
         style="stop-color:#d0aa7b"
         offset="0" />
      <stop
         id="stop3013"
         style="stop-color:#d6b991"
         offset="1" />
    </linearGradient>
    <linearGradient
       id="linearGradient9911"
       y2="86.593002"
       gradientUnits="userSpaceOnUse"
       y1="86.593002"
       x2="1252.9"
       x1="1246.7"
       inkscape:collect="always">
      <stop
         id="stop3908"
         style="stop-color:#b28f64"
         offset="0" />
      <stop
         id="stop3914"
         style="stop-color:#a05a2c"
         offset=".5" />
      <stop
         id="stop3910"
         style="stop-color:#b28f64"
         offset="1" />
    </linearGradient>
    <filter
       id="filter3889"
       width="1.0389"
       y="-0.11406"
       x="-0.019446"
       height="1.2280999"
       inkscape:collect="always"
       style="color-interpolation-filters:sRGB">
      <feGaussianBlur
         id="feGaussianBlur3891"
         stdDeviation="0.42612"
         inkscape:collect="always" />
    </filter>
    <radialGradient
       id="radialGradient9913"
       gradientUnits="userSpaceOnUse"
       cx="1243.1"
       cy="-46.937"
       r="36.292999"
       gradientTransform="matrix(1,0,0,0.54203,0,-8.4276)"
       inkscape:collect="always">
      <stop
         id="stop3900"
         style="stop-color:#dcc59c"
         offset="0" />
      <stop
         id="stop3898"
         style="stop-color:#cdab7b"
         offset="1" />
    </radialGradient>
    <filter
       id="filter4153"
       width="1.0262001"
       y="-0.14161"
       x="-0.013111"
       height="1.2832"
       inkscape:collect="always"
       style="color-interpolation-filters:sRGB">
      <feGaussianBlur
         id="feGaussianBlur4155"
         stdDeviation="2.312701"
         inkscape:collect="always" />
    </filter>
    <linearGradient
       id="linearGradient9915"
       y2="264.31"
       gradientUnits="userSpaceOnUse"
       y1="264.31"
       x2="1456.6"
       x1="1033.3"
       inkscape:collect="always">
      <stop
         id="stop4094"
         style="stop-color:#502d16"
         offset="0" />
      <stop
         id="stop4096"
         style="stop-color:#520"
         offset="1" />
    </linearGradient>
    <filter
       id="filter4171"
       inkscape:collect="always"
       style="color-interpolation-filters:sRGB">
      <feGaussianBlur
         id="feGaussianBlur4173"
         stdDeviation="0.60265078"
         inkscape:collect="always" />
    </filter>
    <linearGradient
       id="linearGradient9917"
       y2="264.32001"
       gradientUnits="userSpaceOnUse"
       y1="258.20001"
       x2="1429.6"
       x1="1323.4"
       inkscape:collect="always">
      <stop
         id="stop4110"
         style="stop-color:#2b1100"
         offset="0" />
      <stop
         id="stop4108"
         style="stop-color:#542405"
         offset="1" />
    </linearGradient>
    <linearGradient
       id="linearGradient9919"
       y2="265.95999"
       gradientUnits="userSpaceOnUse"
       y1="264.38"
       x2="1394.8"
       x1="1385.9"
       inkscape:collect="always">
      <stop
         id="stop4135"
         style="stop-color:#d4aa00"
         offset="0" />
      <stop
         id="stop4137"
         style="stop-color:#fc0"
         offset="1" />
    </linearGradient>
    <filter
       id="filter4179"
       inkscape:collect="always"
       style="color-interpolation-filters:sRGB">
      <feGaussianBlur
         id="feGaussianBlur4181"
         stdDeviation="0.64226076"
         inkscape:collect="always" />
    </filter>
    <radialGradient
       id="radialGradient9921"
       gradientUnits="userSpaceOnUse"
       cx="1390"
       cy="263.75"
       r="24.796"
       gradientTransform="matrix(1.1594,0.18253,-0.13458,0.85484,-186.12,-214.72)"
       inkscape:collect="always">
      <stop
         id="stop4145"
         style="stop-color:#fea"
         offset="0" />
      <stop
         id="stop4143"
         style="stop-color:#fc0"
         offset="1" />
    </radialGradient>
    <filter
       id="filter4209"
       inkscape:collect="always"
       style="color-interpolation-filters:sRGB">
      <feGaussianBlur
         id="feGaussianBlur4211"
         stdDeviation="0.68008625"
         inkscape:collect="always" />
    </filter>
    <linearGradient
       id="linearGradient30381">
      <stop
         id="stop30383"
         style="stop-color:#820201"
         offset="0" />
      <stop
         id="stop30393"
         style="stop-color:#f5c33c"
         offset=".20987" />
      <stop
         id="stop30391"
         style="stop-color:#f2da82"
         offset=".34333" />
      <stop
         id="stop30389"
         style="stop-color:#d87a06"
         offset=".5" />
      <stop
         id="stop30395"
         style="stop-color:#ec950e"
         offset=".65988" />
      <stop
         id="stop30385"
         style="stop-color:#ee970f"
         offset="1" />
    </linearGradient>
    <linearGradient
       id="linearGradient29584">
      <stop
         id="stop29586"
         style="stop-color:#c47940"
         offset="0" />
      <stop
         id="stop29594"
         style="stop-color:#f7db4b"
         offset=".14262" />
      <stop
         id="stop29600"
         style="stop-color:#f7db4b"
         offset=".53774" />
      <stop
         id="stop29596"
         style="stop-color:#fff6d5"
         offset=".60744" />
      <stop
         id="stop29602"
         style="stop-color:#f7db4b"
         offset=".75471" />
      <stop
         id="stop29598"
         style="stop-color:#f3d75b"
         offset=".90199" />
      <stop
         id="stop29588"
         style="stop-color:#efd36b"
         offset="1" />
    </linearGradient>
    <filter
       inkscape:collect="always"
       style="color-interpolation-filters:sRGB"
       id="filter1107"
       x="-0.0332793"
       width="1.0665586"
       y="-0.03920516"
       height="1.0784103">
      <feGaussianBlur
         inkscape:collect="always"
         stdDeviation="6.166349"
         id="feGaussianBlur1109" />
    </filter>
  </defs>
  <sodipodi:namedview
     id="base"
     bordercolor="#666666"
     inkscape:pageshadow="2"
     inkscape:window-y="-8"
     fit-margin-left="0"
     pagecolor="#ffffff"
     fit-margin-top="0"
     inkscape:window-maximized="1"
     inkscape:zoom="1.4"
     inkscape:window-x="-8"
     inkscape:window-height="1025"
     showgrid="false"
     borderopacity="1.0"
     inkscape:current-layer="svg26454"
     inkscape:cx="-8.4894995"
     inkscape:cy="115.4247"
     fit-margin-right="0"
     fit-margin-bottom="0"
     inkscape:window-width="1920"
     inkscape:pageopacity="0.0"
     inkscape:document-units="px" />
  <g
     transform="matrix(0.27699126,0,0,0.27699126,-405.83367,13.201526)"
     id="g4376">
    <path
       d="m 1692.5,-41.656 c -18.442,0.23658 -25.544,5.8715 -31.719,22.344 -0.073,0.01811 -0.1457,0.04422 -0.2187,0.0625 -0.546,0.13704 -1.0824,0.29102 -1.625,0.4375 -1.6416,0.44197 -3.2681,0.90745 -4.875,1.4375 -0.156,0.05149 -0.3131,0.10392 -0.4687,0.15625 -0.1158,0.0389 -0.2283,0.08564 -0.3438,0.125 -0.6964,0.23737 -1.3735,0.49563 -2.0625,0.75 -0.8198,0.30257 -1.6601,0.61047 -2.4687,0.9375 -0.021,0.0086 -0.041,0.02259 -0.063,0.03125 -0.051,0.02084 -0.1048,0.04156 -0.1562,0.0625 -0.7791,0.31776 -1.5445,0.62801 -2.3125,0.96875 -6.6789,2.9631 -13.259,6.0056 -19.656,9.25 -2.5588,1.2979 -5.0987,2.6238 -7.5937,4 -1.2476,0.68803 -2.4891,1.3826 -3.7187,2.0938 -3.6806,2.1298 -7.2857,4.4013 -10.781,6.7812 -5.839,3.9743 -11.404,8.3406 -16.594,13.25 -3.1132,2.946 -6.0751,6.0692 -8.9063,9.4375 -0.9439,1.1226 -1.8714,2.2632 -2.7813,3.4375 -0.9149,1.1806 -1.8083,2.3898 -2.6874,3.625 -0.8746,1.2284 -1.7247,2.4652 -2.5626,3.75 V 41.313 c -0.8328,1.2778 -1.6734,2.5703 -2.4687,3.9062 v 0.03125 c -0.795,1.3362 -1.5876,2.697 -2.3437,4.0938 v 0.03125 c -0.7559,1.3971 -1.5032,2.8213 -2.2188,4.2812 v 0.03125 c -0.7154,1.4603 -1.4199,2.9432 -2.0938,4.4688 -1.0206,2.3097 -1.9846,4.6904 -2.9062,7.1562 -0.6122,1.6376 -1.1832,3.2905 -1.75,5 v 0.03125 c -0.2802,0.84564 -0.5749,1.6988 -0.8438,2.5625 v 0.03125 c -0.5403,1.7374 -1.0689,3.5005 -1.5624,5.3125 v 0.03125 c -0.9893,3.6348 -1.8949,7.4258 -2.6876,11.375 v 0.03125 c -0.882,4.3998 -1.668,9.5991 -2.4062,15.156 -0.3343,2.5007 -0.6632,5.0644 -0.9688,7.6875 -0.092,-0.11296 -0.1944,-0.23124 -0.2812,-0.34375 -0.063,0.50765 -0.1272,1.047 -0.1875,1.5625 -5.934,4.0208 -56.121,38.611 -67.875,66.469 -6.1434,14.56 -10.47,32.132 -10.219,48.812 0.061,11.776 2.3604,23.154 7.9062,32.75 0.2494,0.43157 0.5196,0.85852 0.7812,1.2812 0.04,0.064 0.085,0.12367 0.125,0.1875 0.076,0.12192 0.1415,0.25372 0.2188,0.375 0.3849,0.60349 0.7749,1.1936 1.1875,1.7812 0.5577,0.7943 1.1424,1.5684 1.7187,2.3438 0.05,0.0669 0.075,0.15202 0.125,0.21875 0.07,0.0943 0.1482,0.18725 0.2188,0.28125 0.4647,0.618 0.9299,1.2375 1.4062,1.8438 0.122,0.15564 0.2524,0.31385 0.375,0.46875 0.1933,0.24316 0.3987,0.47746 0.5938,0.71875 41.141,51.073 123.13,61.22 189.25,64.062 70.741,3.0415 146.56,-8.0792 206.56,-50.938 1.2575,0.35067 4.0224,1.0197 5.5937,0.6875 2.7586,-0.58322 5.05,-2.6613 7.1876,-4.5 4.1778,-3.5938 10.739,-7.0203 10.75,-12.531 0,-1.2611 -1.5627,-2.7511 -2.6876,-3.6562 9.3364,-14.36 13.387,-33.218 13.375,-51.719 0.074,-11.31 -1.3788,-22.499 -4.0937,-32.469 -13.058,-47.953 -67.479,-73.008 -71.812,-74.938 -1.2424,-13.627 -3.63,-27.074 -7.9688,-37.125 -8.1761,-18.941 -18.432,-33.211 -30.187,-44.438 -0.9709,-0.92783 -1.9466,-1.8318 -2.9376,-2.7188 -0.2592,-0.23193 -0.5206,-0.45829 -0.7812,-0.6875 -0.7495,-0.65968 -1.4895,-1.2998 -2.25,-1.9375 -0.5175,-0.43386 -1.0401,-0.85726 -1.5625,-1.2812 -0.1917,-0.15562 -0.4014,-0.28319 -0.5937,-0.4375 -3.4125,-2.737 -6.9238,-5.295 -10.531,-7.6562 -1.0859,-0.71078 -2.1791,-1.4131 -3.2813,-2.0938 -0.562,-0.34702 -1.1213,-0.6917 -1.6874,-1.0312 -0.549,-0.32935 -1.1036,-0.64621 -1.6563,-0.96875 -0.8464,-0.4938 -1.7075,-0.99023 -2.5625,-1.4688 -0.2804,-0.15693 -0.5625,-0.31341 -0.8438,-0.46875 -0.208,-0.11492 -0.4164,-0.22968 -0.625,-0.34375 -2.0744,-1.1344 -4.1605,-2.2254 -6.2812,-3.2812 -0.776,-0.38641 -1.562,-0.77933 -2.3438,-1.1562 -0.3921,-0.18904 -0.7938,-0.37575 -1.1874,-0.5625 -0.5959,-0.28276 -1.1823,-0.56603 -1.7813,-0.84375 -0.1268,-0.058771 -0.2481,-0.12895 -0.375,-0.1875 -2.8417,-1.311 -5.7176,-2.5356 -8.625,-3.75 -1.207,-0.50417 -2.4078,-1.0094 -3.625,-1.5 -0.3108,-0.12526 -0.6261,-0.25055 -0.9375,-0.375 -1.6249,-0.64935 -3.2649,-1.2764 -4.9062,-1.9062 -1.4492,-0.55613 -2.9143,-1.1122 -4.375,-1.6562 -1.5617,-0.58156 -3.1451,-1.1787 -4.7188,-1.75 -0.8953,-0.32503 -1.7797,-0.63018 -2.6875,-0.9375 -0.5144,-0.17409 -1.0443,-0.33173 -1.5625,-0.5 -5.3539,-15.323 -13.077,-25.342 -30.938,-25.844 -1.5893,-0.04462 -3.1174,-0.04979 -4.5625,-0.03125 z"
       inkscape:connector-curvature="0"
       style="display:inline;opacity:0.3;fill:#000000;filter:url(#filter1107)"
       id="path4258" />
    <g
       transform="translate(444.72,-9.5865)"
       id="g4213">
      <path
         inkscape:connector-curvature="0"
         style="fill:url(#radialGradient9905)"
         sodipodi:nodetypes="caaasscc"
         d="m 1104.6,117.47 c 0,0 -56.551,37.648 -69.04,67.246 -10.922,25.884 -16.143,61.289 0,84.282 39.439,56.174 125.1,66.988 193.67,69.936 74.168,3.1888 153.94,-9.1815 215.19,-57.384 25.983,-20.45 30.206,-64.931 21.519,-96.835 -13.596,-49.93 -72.626,-75.316 -72.626,-75.316 z"
         id="path2987" />
      <path
         inkscape:connector-curvature="0"
         style="fill:url(#linearGradient9907)"
         d="m 1393.3,108.5 -6.7188,0.1875 -0.1875,1.75 c 2.0388,0.89187 55.214,24.547 67.719,70.469 8.1458,29.914 4.1751,71.638 -20.188,90.812 -57.424,45.196 -132.21,56.771 -201.75,53.781 -64.296,-2.7644 -144.61,-12.892 -181.59,-65.562 -15.136,-21.559 -10.24,-54.762 0,-79.031 10.657,-25.258 55.082,-56.444 63.062,-61.906 -0.9548,-0.86425 -1.9087,-1.699 -2.9062,-2.5938 l -6.1563,0.15625 c 0,0 -56.542,37.651 -69.031,67.25 -10.922,25.884 -16.143,61.288 0,84.281 39.439,56.174 125.08,66.989 193.66,69.938 74.168,3.1888 153.98,-9.173 215.22,-57.375 25.983,-20.45 30.188,-64.94 21.5,-96.844 -13.596,-49.93 -72.625,-75.312 -72.625,-75.312 z"
         id="path2991" />
      <path
         inkscape:connector-curvature="0"
         style="fill:url(#linearGradient9909)"
         sodipodi:nodetypes="cscsaasc"
         d="m 1099.3,173.06 c 0,0 25.998,54.907 131.8,54.694 137.72,-0.27814 163.18,-60.073 163.18,-60.073 0,0 5.4961,-64.511 -8.0695,-95.938 -21.783,-50.464 -58.342,-67.863 -98.628,-82.489 -26.969,-9.7915 -59.849,-11.636 -86.075,0 -42.745,18.964 -81.429,40.653 -94.145,104.01 -5.2611,26.213 -8.0696,79.799 -8.0696,79.799 z"
         id="path2989" />
      <path
         d="m 1241.4,-18.781 c -13.923,0.1003 -27.675,2.5771 -39.969,8.0312 -42.745,18.964 -81.44,40.645 -94.156,104 -1.7043,8.4915 -3.135,19.859 -4.3125,31.344 25.553,13.692 55.589,21.562 87.719,21.562 81.747,0 149.88,-51.072 165.28,-118.84 -19.57,-18.703 -43.29,-28.921 -68.469,-38.062 -14.327,-5.2017 -30.314,-8.1449 -46.094,-8.0312 z"
         inkscape:connector-curvature="0"
         style="color:#000000;opacity:0.5;fill:#e3d5ae"
         id="path3044" />
      <path
         inkscape:connector-curvature="0"
         style="opacity:0.5;fill:url(#linearGradient9911)"
         d="m 1249.6,0.74196 -4.4831,171.25 9.8628,-0.89662 z"
         id="path3019" />
      <path
         inkscape:connector-curvature="0"
         style="opacity:0.5;fill:#b28f64"
         sodipodi:nodetypes="csccsc"
         d="m 1113.6,124.46 c 0,0 4.5594,-54.07 43.965,-96.353 14.408,-15.46 53.25,-34.409 53.25,-34.409 l 5.5594,2.2954 c 0,0 -38.763,20.847 -54.016,36.263 -37.284,37.684 -48.759,92.204 -48.759,92.204 z"
         id="path3021" />
      <path
         d="m 1281.9,-6.5701 c 0,0 53.209,21.829 73.523,41.244 32.655,31.211 35.865,82.489 35.865,82.489 l -2.6899,5.3797 c 0,0 -2.6517,-46.708 -37.658,-83.385 -19.058,-19.968 -69.04,-45.727 -69.04,-45.727 z"
         inkscape:connector-curvature="0"
         style="opacity:0.5;fill:#b28f64"
         sodipodi:nodetypes="csccsc"
         id="path3023" />
      <path
         d="m 1393.6,104.41 c -5.2182,9.4887 -40.026,37.163 -144.61,63.416 -70.091,-17.769 -133.68,-36.926 -145.34,-52.041 -3.3207,26.949 -3.5087,65.353 -3.5087,65.353 0,0 26.008,54.901 131.81,54.688 137.72,-0.27814 163.19,-60.062 163.19,-60.062 0,0 2.36,-40.289 -1.5403,-71.353 z"
         inkscape:connector-curvature="0"
         style="fill:#e3d5ae"
         id="path3033" />
      <path
         transform="matrix(1.4065,0,0,2.2,-426.74,45.081)"
         inkscape:connector-curvature="0"
         sodipodi:nodetypes="cscsc"
         d="m 1217.5,-23.133 c -2.3905,2.0684 -10.432,3.8718 -25.659,3.8718 -15.227,0 -23.906,-1.9053 -26.934,-3.9736 5.2592,-2.4759 10.75,-4.9925 25.977,-4.9925 15.227,0 24.224,2.6185 26.615,5.0944 z"
         style="color:#000000;opacity:0.3;fill:#000000;filter:url(#filter3889)"
         id="path3066" />
      <path
         inkscape:connector-curvature="0"
         style="fill:url(#radialGradient9913)"
         sodipodi:nodetypes="cscsc"
         d="m 1212.8,-6.0572 c 11.082,4.3989 15.048,7.6263 35.343,7.3048 23.855,-0.37788 23.878,-0.8973 37.243,-6.6352 -5.5215,-19.104 -12.707,-32.066 -33.091,-32.638 -25.429,-0.71393 -31.764,6.3167 -39.495,31.968 z"
         id="path3042" />
      <path
         d="m 1224.3,-12.312 -4.3438,9.25 c 1.1227,0.45964 2.2194,0.8806 3.3438,1.2812 l 1,-10.531 z"
         inkscape:connector-curvature="0"
         style="opacity:0.5;fill:#98734e"
         id="path3051" />
      <path
         d="m 1276.3,-12.531 2.1874,10.062 c 1.131,-0.45434 2.3933,-0.97939 3.75,-1.5625 l -5.9374,-8.5 z"
         inkscape:connector-curvature="0"
         style="opacity:0.5;fill:#98734e"
         id="path3053" />
      <path
         d="m 1102.7,124.47 c -0.066,0.69991 -0.1563,1.3871 -0.2188,2.0938 4.3019,1.9356 28.5,12.764 42.188,17.656 34.274,12.25 69.094,23.454 104.72,31.125 18.436,3.9699 37.285,5.4383 55.906,7.5938 13.281,1.5373 26.591,3.1754 40,3.8125 13.151,0.62483 26.273,0 39.344,0 h 2.9688 c 0.2915,-0.33965 0.5721,-0.6718 0.8438,-1 v -1 h -3.8126 c -13.134,0 -26.225,0.61883 -39.25,0 -13.309,-0.63236 -26.585,-2.2429 -39.875,-3.7812 -18.668,-2.161 -37.425,-3.6611 -55.687,-7.5938 -35.496,-7.6437 -70.268,-18.796 -104.5,-31.031 -13.987,-4.9993 -39.775,-16.59 -42.625,-17.875 z m -0.4376,5.0938 c -0.059,0.72369 -0.1319,1.4292 -0.1874,2.1562 5.264,2.3672 28.373,12.678 41.687,17.438 34.274,12.25 69.094,23.422 104.72,31.094 18.435,3.9699 37.285,5.4695 55.906,7.625 13.281,1.5373 26.591,3.1754 40,3.8125 12.9,0.61289 25.801,0.0228 38.625,0 0.6864,-0.67729 1.3511,-1.3495 1.9688,-2 h -1.2188 c -13.134,0 -26.256,0.61883 -39.281,0 -13.31,-0.63236 -26.585,-2.2429 -39.875,-3.7812 -18.669,-2.161 -37.425,-3.6611 -55.688,-7.5938 -35.496,-7.6437 -70.268,-18.796 -104.5,-31.031 -13.628,-4.8712 -38.217,-15.941 -42.156,-17.719 z m -0.4374,5.8438 c -0.049,0.7073 -0.1102,1.4183 -0.1563,2.125 5.3697,2.4174 28.382,12.724 41.656,17.469 34.273,12.25 69.094,23.422 104.72,31.094 18.435,3.9699 37.285,5.4695 55.906,7.625 13.281,1.5373 26.591,3.1754 40,3.8125 10.848,0.51539 21.673,0.19561 32.469,0.0625 0.8288,-0.67913 1.5809,-1.3658 2.3437,-2.0312 -11.614,0.10428 -23.193,0.51637 -34.719,-0.0312 -13.31,-0.63236 -26.585,-2.2741 -39.875,-3.8125 -18.669,-2.161 -37.425,-3.6611 -55.688,-7.5938 -35.496,-7.6437 -70.268,-18.796 -104.5,-31.031 -13.628,-4.8712 -38.217,-15.914 -42.156,-17.688 z m -0.4,5.6 c -0.042,0.71385 -0.085,1.4155 -0.125,2.125 7.6432,3.4183 28.052,12.444 40.187,16.781 34.274,12.25 69.126,23.454 104.75,31.125 18.436,3.9699 37.254,5.4695 55.875,7.625 13.281,1.5373 26.591,3.1442 40,3.7812 9.2268,0.43837 18.457,0.29159 27.656,0.15625 0.9706,-0.68047 1.9095,-1.3566 2.8125,-2.0312 -10.147,0.14313 -20.265,0.38511 -30.344,-0.0937 -13.309,-0.63236 -26.585,-2.2741 -39.875,-3.8125 -18.668,-2.161 -37.456,-3.6611 -55.719,-7.5938 -35.496,-7.6437 -70.236,-18.796 -104.47,-31.031 -12.506,-4.4698 -34.066,-14.039 -40.75,-17.031 z m -0.3126,5.5938 c -0.036,0.70838 -0.091,1.4249 -0.125,2.125 8.9364,3.9712 27.591,12.148 38.719,16.125 34.274,12.25 69.094,23.422 104.72,31.094 18.435,3.9699 37.285,5.4695 55.906,7.625 13.281,1.5373 26.591,3.1754 40,3.8125 7.2645,0.34515 14.507,0.28902 21.75,0.1875 1.1381,-0.67979 2.2463,-1.3504 3.3125,-2.0312 -8.3438,0.13034 -16.673,0.23791 -24.969,-0.15625 -13.31,-0.63236 -26.585,-2.2429 -39.875,-3.7812 -18.669,-2.161 -37.425,-3.6611 -55.688,-7.5938 -35.496,-7.6437 -70.267,-18.796 -104.5,-31.031 -11.362,-4.0612 -30.742,-12.584 -39.25,-16.375 z m -0.25,5.7812 c -0.031,0.72821 -0.065,1.4424 -0.094,2.1562 9.4289,4.1781 26.21,11.505 36.688,15.25 34.274,12.25 69.126,23.422 104.75,31.094 18.435,3.9699 37.254,5.4695 55.875,7.625 13.281,1.5373 26.591,3.1754 40,3.8125 4.9525,0.2353 9.8953,0.30028 14.844,0.28125 1.3603,-0.68245 2.6581,-1.3717 3.9374,-2.0625 -6.2467,0.0665 -12.476,0.0764 -18.687,-0.21875 -13.31,-0.63236 -26.585,-2.2429 -39.875,-3.7812 -18.669,-2.161 -37.425,-3.6611 -55.688,-7.5938 -35.496,-7.6437 -70.236,-18.796 -104.47,-31.031 -10.564,-3.776 -27.993,-11.407 -37.281,-15.531 z m -0.2187,5.4375 c -0.027,0.7507 -0.038,1.4281 -0.062,2.1562 9.6123,4.2585 25.432,11.14 35.531,14.75 34.274,12.25 69.126,23.422 104.75,31.094 18.436,3.9699 37.254,5.4695 55.875,7.625 13.281,1.5373 26.591,3.1754 40,3.8125 1.8312,0.087 3.6691,0.14389 5.5,0.1875 1.5595,-0.64657 3.0888,-1.2753 4.5626,-1.9375 -3.3297,-0.0277 -6.6504,-0.0923 -9.9688,-0.25 -13.31,-0.63236 -26.585,-2.2741 -39.875,-3.8125 -18.669,-2.161 -37.425,-3.6611 -55.688,-7.5938 -35.496,-7.6437 -70.236,-18.764 -104.47,-31 -10.203,-3.6469 -26.644,-10.817 -36.156,-15.031 z m -0.1563,5.2188 c -0.021,0.71083 -0.075,1.4444 -0.094,2.125 9.7538,4.2925 24.36,10.608 33.938,14.031 34.274,12.25 69.094,23.422 104.72,31.094 18.435,3.9699 37.285,5.4695 55.906,7.625 12.137,1.4048 24.293,2.8926 36.531,3.625 1.6617,-0.57145 3.2947,-1.1586 4.875,-1.75 -0.4386,-0.0181 -0.874,-0.0417 -1.3124,-0.0625 -13.31,-0.63236 -26.585,-2.2429 -39.875,-3.7812 -18.669,-2.161 -37.425,-3.6611 -55.688,-7.5938 -35.496,-7.6437 -70.267,-18.796 -104.5,-31.031 -9.6804,-3.4601 -24.8,-10.003 -34.5,-14.281 z m 151.66,4 c -1.0703,0.2727 -2.1022,0.54008 -3.1875,0.8125 -0.7014,-0.17781 -1.3937,-0.35317 -2.0938,-0.53125 l -0.1562,0.75 c 0,0 31.1,5.9058 46.938,7.5938 32.53,3.467 65.284,5.9952 98.031,5.8125 0.5213,-0.74758 0.9855,-1.4127 1.375,-2.0312 -33.096,0.26503 -66.241,-2.2698 -99.188,-5.7812 -11.761,-1.2535 -32.281,-4.8965 -41.719,-6.625 z m -151.81,0.78125 c -0.021,0.82616 -0.045,1.4223 -0.062,2.1875 9.7608,4.3011 23.83,10.354 33.156,13.688 34.273,12.25 69.125,23.422 104.75,31.094 18.435,3.9699 37.254,5.4695 55.875,7.625 8.5478,0.98946 17.097,2.0021 25.687,2.7812 1.8083,-0.50607 3.5547,-1.032 5.2813,-1.5625 -10.255,-0.79897 -20.5,-2.0323 -30.75,-3.2188 -18.669,-2.161 -37.425,-3.6611 -55.688,-7.5938 -35.496,-7.6437 -70.236,-18.796 -104.47,-31.031 -9.4419,-3.3748 -24.03,-9.679 -33.781,-13.969 z m -0.125,5.0938 c -0.015,0.79556 -0.02,1.4639 -0.031,2.1562 9.7676,4.2874 23.601,10.239 32.812,13.531 34.274,12.25 69.094,23.454 104.72,31.125 18.435,3.9699 37.285,5.4695 55.906,7.625 3.9236,0.45416 7.8509,0.90041 11.781,1.3438 2.0717,-0.44577 4.1125,-0.86603 6.0937,-1.3438 -5.8831,-0.62511 -11.772,-1.3188 -17.656,-2 -18.669,-2.161 -37.425,-3.6611 -55.688,-7.5938 -35.496,-7.6437 -70.268,-18.796 -104.5,-31.031 -9.3396,-3.3382 -23.685,-9.5216 -33.438,-13.812 z m -0.062,4.75 c -0.01,0.79711 -0.029,1.832 -0.031,2.1562 9.571,4.1732 21.828,9.3872 30.188,12.375 34.273,12.25 69.094,23.454 104.72,31.125 18.435,3.9699 37.285,5.4383 55.906,7.5938 0.6348,0.0735 1.2713,0.14493 1.9062,0.21875 2.2821,-0.38142 4.5019,-0.79944 6.6875,-1.2188 -2.7904,-0.31973 -5.5838,-0.64565 -8.375,-0.96875 -18.669,-2.161 -37.425,-3.6611 -55.688,-7.5938 -35.496,-7.6437 -70.268,-18.796 -104.5,-31.031 -8.4973,-3.0372 -21.167,-8.4392 -30.812,-12.656 z m 1.2187,5.7188 c 0.4982,0.82189 1.1594,1.8335 2,3.0312 8.3388,3.5784 17.598,7.446 24.219,9.8125 34.274,12.25 69.126,23.454 104.75,31.125 14.114,3.0394 28.447,4.6411 42.75,6.1875 2.9831,-0.32691 5.9078,-0.67402 8.75,-1.0625 -17.137,-1.9017 -34.308,-3.4859 -51.062,-7.0938 -35.496,-7.6437 -70.268,-18.796 -104.5,-31.031 -7.2746,-2.6001 -17.932,-7.0875 -26.906,-10.969 z m 8.4376,10.969 c 1.0649,1.1502 2.2279,2.3324 3.5,3.5625 3.8914,1.5752 7.6294,3.052 10.719,4.1562 34.274,12.25 69.094,23.422 104.72,31.094 4.5269,0.97481 9.0891,1.808 13.656,2.5312 3.7866,-0.0944 7.4863,-0.25297 11.094,-0.4375 -8.1671,-1.0512 -16.287,-2.303 -24.312,-4.0312 -35.496,-7.6437 -70.268,-18.796 -104.5,-31.031 -4.1596,-1.4867 -9.4447,-3.5878 -14.875,-5.8438 z m 9.0624,8.5625 c 1.5827,1.3145 3.301,2.6311 5.125,3.9688 31.205,11.102 62.904,21.281 95.219,28.688 3.4067,0.14247 6.9085,0.26225 10.5,0.28125 -0.9268,-0.18698 -1.8569,-0.39471 -2.7812,-0.59375 -35.496,-7.6437 -70.236,-18.796 -104.47,-31.031 -1.1141,-0.39821 -2.338,-0.8347 -3.5938,-1.3125 z m 8.5626,6.375 c 2.3389,1.5857 4.8239,3.1929 7.5312,4.75 21.612,7.4591 43.458,14.36 65.594,20.094 4.1338,0.47896 8.4185,0.87383 12.875,1.1562 -29.117,-6.9111 -57.735,-16.045 -86,-26 z"
         inkscape:connector-curvature="0"
         style="color:#000000;text-indent:0;text-transform:none;opacity:0.7;fill:#c09e58"
         id="path4066" />
      <path
         d="m 1393.8,106.34 c -0.5178,0.0284 -1.0407,0.0338 -1.5625,0.0625 v 0.0312 c -0.945,1.2144 -2.2558,2.5987 -3.9375,4.1562 2.3199,-1.2165 4.156,-2.1575 5.625,-2.9375 -0.048,-0.43636 -0.075,-0.87914 -0.125,-1.3125 z m 0.6563,6.375 c -11.892,6.6264 -24.397,12.131 -36.938,17.625 -7.749,3.8918 -16.946,8.041 -27.781,12.312 -7.0601,3.0759 -14.168,6.0357 -21.375,8.6875 -12.238,4.5025 -24.91,7.8362 -37.438,11.781 l -3.625,1.1562 0.3125,0.9375 c 0.3577,0.23144 0.7137,0.48233 1.0938,0.71875 l 2.8124,-0.90625 c 12.468,-3.9261 25.175,-7.2664 37.531,-11.812 12.599,-4.6352 24.825,-10.201 37.031,-15.656 16.26,-7.2674 32.884,-14.005 48.562,-22.656 -0.059,-0.7326 -0.1226,-1.4593 -0.1874,-2.1875 z m 0.4374,5.5 c -15.212,8.2855 -31.371,14.858 -47.281,21.969 -12.214,5.4592 -24.401,10.993 -36.906,15.594 -12.238,4.5024 -24.941,7.8362 -37.469,11.781 l -1.1562,0.375 c 0.7844,0.43495 1.6419,0.87266 2.5,1.3125 12.239,-3.8302 24.692,-7.1344 36.812,-11.594 12.598,-4.6352 24.825,-10.201 37.031,-15.656 15.582,-6.9643 31.496,-13.479 46.594,-21.625 -0.045,-0.72043 -0.075,-1.4373 -0.125,-2.1562 z m 0.375,6.3438 c -14.687,7.838 -30.211,14.198 -45.5,21.031 -12.214,5.4592 -24.37,11.024 -36.875,15.625 -10.829,3.9843 -21.985,7.0799 -33.094,10.469 0.9275,0.40561 1.8492,0.81993 2.8437,1.2188 10.337,-3.1156 20.746,-6.0627 30.938,-9.8125 12.599,-4.6353 24.794,-10.201 37,-15.656 14.954,-6.6835 30.23,-12.932 44.781,-20.625 -0.034,-0.75023 -0.055,-1.498 -0.094,-2.25 z m 0.25,5.7188 c -13.812,7.1402 -28.295,13.123 -42.562,19.5 -12.215,5.4592 -24.37,11.024 -36.875,15.625 -9.4695,3.484 -19.216,6.2761 -28.938,9.1875 1.064,0.37225 2.1823,0.73623 3.3126,1.0938 8.8153,-2.6341 17.643,-5.2792 26.312,-8.4688 12.598,-4.6352 24.825,-10.138 37.031,-15.594 13.943,-6.2319 28.134,-12.127 41.781,-19.125 -0.023,-0.73757 -0.036,-1.4764 -0.063,-2.2188 z m 0.1,5.72 c -12.888,6.4693 -26.298,12.023 -39.531,17.938 -12.214,5.4592 -24.401,10.993 -36.906,15.594 -7.7944,2.8677 -15.752,5.2744 -23.75,7.6562 1.2215,0.32915 2.4602,0.63094 3.75,0.9375 6.939,-2.0787 13.862,-4.2075 20.688,-6.7188 12.598,-4.6352 24.825,-10.201 37.031,-15.656 12.912,-5.771 26.032,-11.228 38.75,-17.562 -0.013,-0.72458 -0.014,-1.455 -0.031,-2.1875 z m 0.094,5.75 c -11.797,5.7402 -23.969,10.842 -36,16.219 -12.214,5.4592 -24.401,10.993 -36.906,15.594 -5.8362,2.1472 -11.772,3.9996 -17.75,5.8125 1.4277,0.27467 2.8725,0.53892 4.375,0.78125 4.7257,-1.4682 9.4095,-3.0068 14.063,-4.7188 12.598,-4.6352 24.825,-10.201 37.031,-15.656 11.722,-5.239 23.615,-10.203 35.219,-15.812 -0.01,-0.73818 -0.023,-1.468 -0.031,-2.2188 z m 0.031,5.625 c -10.938,5.2093 -22.178,9.9122 -33.281,14.875 -12.214,5.4592 -24.37,11.024 -36.875,15.625 -3.1178,1.1472 -6.2698,2.1922 -9.4375,3.2188 1.6047,0.18897 3.2557,0.32042 4.9375,0.46875 1.7331,-0.59154 3.4669,-1.1795 5.1875,-1.8125 12.598,-4.6353 24.794,-10.201 37,-15.656 10.79,-4.8224 21.747,-9.4242 32.469,-14.5 0,-0.73499 3e-4,-1.4658 0,-2.2188 z m 0,5.1875 c -9.9737,4.6511 -20.139,8.9323 -30.219,13.438 -12.214,5.4592 -24.401,10.993 -36.906,15.594 -0.412,0.15152 -0.8059,0.31976 -1.2188,0.46875 1.6849,0.0894 3.3997,0.1416 5.1562,0.1875 11.453,-4.3745 22.596,-9.4521 33.75,-14.438 9.7475,-4.3566 19.645,-8.5521 29.375,-13.062 0.01,-0.75655 0.056,-1.4039 0.063,-2.1875 z m -0.094,5.0312 c -9.2343,4.2464 -18.632,8.2474 -27.938,12.406 -9.42,4.2103 -18.803,8.4703 -28.344,12.312 1.8061,-0.0125 3.6232,-0.0333 5.5,-0.0937 7.96,-3.3236 15.8,-6.8638 23.656,-10.375 8.9935,-4.0196 18.104,-7.8858 27.094,-12 0.015,-0.70415 0.018,-1.5117 0.031,-2.25 z m -0.125,5.5312 c -8.5756,3.9005 -17.285,7.6154 -25.906,11.469 -5.4084,2.4173 -10.795,4.8242 -16.219,7.1875 2.0332,-0.13942 4.1089,-0.33418 6.2188,-0.53125 3.6156,-1.6034 7.2065,-3.2321 10.812,-4.8438 8.3067,-3.7126 16.707,-7.2621 25.031,-11.031 0.023,-0.74469 0.04,-1.4399 0.062,-2.25 z m -0.125,4.3125 c -7.352,3.289 -14.76,6.458 -22.125,9.75 -2.5653,1.1466 -5.1221,2.2944 -7.6875,3.4375 2.2106,-0.25652 4.4274,-0.52209 6.7187,-0.84375 0.5835,-0.2611 1.1667,-0.52048 1.75,-0.78125 7.0417,-3.1473 14.174,-6.1968 21.25,-9.3438 0.031,-0.78064 0.062,-1.2998 0.094,-2.2188 z m -0.2188,4.8438 c -4.6156,2.0423 -9.2528,4.054 -13.875,6.0938 2.8276,-0.48317 5.7127,-1.0408 8.6563,-1.625 1.7093,-0.74855 3.4167,-1.4967 5.125,-2.25 0.017,-0.30228 0.056,-1.4359 0.094,-2.2188 z"
         inkscape:connector-curvature="0"
         style="color:#000000;text-indent:0;text-transform:none;opacity:0.7;fill:#c09e58"
         id="path4074" />
      <path
         d="m 1237.6,244.72 c -61.696,0.41734 -176.49,16.61 -204.28,20.656 0.718,1.2423 1.4841,2.4451 2.3126,3.625 3.7787,5.3822 7.9908,10.324 12.562,14.906 4.3141,-0.63798 126.81,-18.67 189.41,-19.094 68.55,-0.46396 204.59,17.841 205.31,17.938 0.5197,-0.4019 1.0454,-0.7805 1.5625,-1.1875 4.7734,-3.7569 8.828,-8.348 12.188,-13.5 l -4.75,-4.3125 c 0,0 -142.6,-19.516 -214.31,-19.031 z"
         inkscape:connector-curvature="0"
         style="opacity:0.5;fill:#000000;filter:url(#filter4153)"
         id="path4151" />
      <path
         d="m 1237.6,244.72 c -61.696,0.41734 -176.49,16.61 -204.28,20.656 0.718,1.2423 1.4841,2.4451 2.3126,3.625 3.7787,5.3822 7.9908,10.324 12.562,14.906 4.3141,-0.63798 126.81,-18.67 189.41,-19.094 68.55,-0.46396 204.59,17.841 205.31,17.938 0.5197,-0.4019 1.0454,-0.7805 1.5625,-1.1875 4.7734,-3.7569 8.828,-8.348 12.188,-13.5 l -4.75,-4.3125 c 0,0 -142.6,-19.516 -214.31,-19.031 z"
         inkscape:connector-curvature="0"
         style="fill:url(#linearGradient9915)"
         id="path4079" />
      <path
         d="m 1351.9,270.47 9.1411,2.8953 c 0,0 15.522,-6.3558 23.306,-4.8208 4.7819,0.94305 12.122,8.1764 12.122,8.1764 l 15.067,2.2198 13.816,-17.229 -16.958,-2.4184 c 0,0 -13.363,-6.4189 -20.591,-7.3685 -7.5946,-0.99781 -22.902,1.891 -22.902,1.891 l -7.8885,1.5237 c 0,0 -23.392,-1.1085 -24.905,3.92 -1.3235,4.3993 19.792,11.211 19.792,11.211 z"
         inkscape:connector-curvature="0"
         style="opacity:0.3;fill:#000000;filter:url(#filter4171)"
         sodipodi:nodetypes="ccaccccaccsc"
         id="path4157" />
      <path
         inkscape:connector-curvature="0"
         style="fill:#552201"
         sodipodi:nodetypes="ccaaacc"
         d="m 1443.2,281.5 -8.0696,6.2763 c 0,0 4.2087,1.3338 6.2764,0.89662 2.7586,-0.58322 5.0354,-2.6444 7.1729,-4.4831 4.1779,-3.5938 10.748,-7.0417 10.759,-12.553 0,-1.9612 -3.8106,-4.4831 -3.8106,-4.4831 z"
         id="path4100" />
      <path
         inkscape:connector-curvature="0"
         style="fill:url(#linearGradient9917)"
         sodipodi:nodetypes="ccaccccaccsc"
         d="m 1356.2,270.47 9.1411,2.8953 c 0,0 15.522,-6.3558 23.306,-4.8208 4.7819,0.94305 12.122,8.1764 12.122,8.1764 l 15.067,2.2198 13.816,-17.229 -16.958,-2.4184 c 0,0 -13.363,-6.4189 -20.591,-7.3685 -7.5946,-0.99781 -22.902,1.891 -22.902,1.891 l -7.8885,1.5237 c 0,0 -23.392,-1.1085 -24.905,3.92 -1.3235,4.3993 19.792,11.211 19.792,11.211 z"
         id="path4104" />
      <path
         inkscape:connector-curvature="0"
         style="fill:url(#linearGradient9919)"
         d="m 1383.4,280.55 6.34,-32.651 h 3.17 l 1.902,0.634 -7.291,33.919 -2.219,1.585 z"
         id="path4131" />
      <path
         d="m 1392.8,248.58 c -6.553,-0.75215 -12.757,0.33542 -17.647,2.9067 -4.89,2.57128 -8.58,6.8122 -9.2168,12.047 -0.6368,5.2348 1.9368,10.171 6.0752,13.778 4.1384,3.6076 9.9076,6.0933 16.461,6.8454 6.5529,0.75215 12.76,-0.35893 17.65,-2.9302 4.89,-2.57127 8.5771,-6.7887 9.2139,-12.024 0.6368,-5.2348 -1.9339,-10.194 -6.0723,-13.802 -4.1384,-3.6076 -9.9105,-6.0698 -16.463,-6.8219 z m 16.404,11.029 c 3.7311,5.3669 0.9468,14.359 -6.0648,16.296 -3.5767,1.8807 -8.5612,2.8535 -13.935,2.2367 -5.3739,-0.61682 -13.182,-4.9132 -16.209,-7.5518 -5.9764,-5.2709 -0.9996,-13.636 4.1628,-16.613 10.857,-5.369 22.345,-2.7068 32.046,5.6321 z"
         inkscape:connector-curvature="0"
         style="color:#000000;text-indent:0;text-transform:none;opacity:0.5;fill:#000000;filter:url(#filter4179)"
         sodipodi:nodetypes="sssssssssccsccc"
         id="path4177" />
      <path
         inkscape:connector-curvature="0"
         style="color:#000000;text-indent:0;text-transform:none;fill:url(#radialGradient9921)"
         sodipodi:nodetypes="sssssssssccsccc"
         d="m 1392.8,248.58 c -6.553,-0.75215 -12.757,0.33542 -17.647,2.9067 -4.89,2.57128 -8.58,6.8122 -9.2168,12.047 -0.6368,5.2348 1.9368,10.171 6.0752,13.778 4.1384,3.6076 9.9076,6.0933 16.461,6.8454 6.5529,0.75215 12.76,-0.35893 17.65,-2.9302 4.89,-2.57127 8.5771,-6.7887 9.2139,-12.024 0.6368,-5.2348 -1.9339,-10.194 -6.0723,-13.802 -4.1384,-3.6076 -9.9105,-6.0698 -16.463,-6.8219 z m 16.404,11.029 c 3.7311,5.3669 0.9468,14.359 -6.0648,16.296 -3.5767,1.8807 -8.5612,2.8535 -13.935,2.2367 -5.3739,-0.61682 -13.182,-4.9132 -16.209,-7.5518 -5.9764,-5.2709 -0.9996,-13.636 4.1628,-16.613 10.857,-5.369 22.345,-2.7068 32.046,5.6321 z"
         id="path4102" />
      <path
         inkscape:connector-curvature="0"
         style="color:#000000;text-indent:0;text-transform:none;opacity:0.7;fill:#ffffff;filter:url(#filter4209)"
         d="m 1367.9,262.27 -0.9688,0.125 c 0,0 0.1285,1.0525 0.375,2.3438 0.2466,1.2912 0.5918,2.7868 1.0938,3.8125 1.2543,2.563 3.1018,4.939 5.375,6.6875 2.9785,2.291 6.6219,3.4958 10.125,4.5312 2.956,0.8738 6.0726,1.4595 9.1875,1.4375 3.2724,-0.0231 9.3125,-1.5938 9.3125,-1.5938 l -0.25,-0.96875 c 0,0 -6.1159,1.5416 -9.0625,1.5625 -2.9825,0.0211 -5.9836,-0.55155 -8.875,-1.4062 -3.4831,-1.0296 -7.0479,-2.1932 -9.8437,-4.3438 -2.135,-1.6421 -3.9035,-3.9115 -5.0938,-6.3438 -0.405,-0.82746 -0.76,-2.3055 -1,-3.5625 -0.24,-1.257 -0.375,-2.2812 -0.375,-2.2812 z"
         id="path4183" />
    </g>
  </g>
  <metadata
     id="metadata174">
    <rdf:RDF>
      <cc:Work>
        <dc:format>image/svg+xml</dc:format>
        <dc:type
           rdf:resource="http://purl.org/dc/dcmitype/StillImage" />
        <cc:license
           rdf:resource="http://creativecommons.org/publicdomain/zero/1.0/" />
        <dc:publisher>
          <cc:Agent
             rdf:about="http://openclipart.org/">
            <dc:title>Openclipart</dc:title>
          </cc:Agent>
        </dc:publisher>
        <dc:title>Safari Scene</dc:title>
        <dc:date>2012-07-14T08:19:14</dc:date>
        <dc:description />
        <dc:source>https://openclipart.org/detail/171173/safari-scene-by-gnokii-171173</dc:source>
        <dc:creator>
          <cc:Agent>
            <dc:title>gnokii</dc:title>
          </cc:Agent>
        </dc:creator>
        <dc:subject>
          <rdf:Bag>
            <rdf:li>africa</rdf:li>
            <rdf:li>african</rdf:li>
            <rdf:li>afrika</rdf:li>
            <rdf:li>compass</rdf:li>
            <rdf:li>helmet</rdf:li>
            <rdf:li>map</rdf:li>
            <rdf:li>pith helmet</rdf:li>
            <rdf:li>safari</rdf:li>
            <rdf:li>sun</rdf:li>
            <rdf:li>tropic</rdf:li>
          </rdf:Bag>
        </dc:subject>
      </cc:Work>
      <cc:License
         rdf:about="http://creativecommons.org/publicdomain/zero/1.0/">
        <cc:permits
           rdf:resource="http://creativecommons.org/ns#Reproduction" />
        <cc:permits
           rdf:resource="http://creativecommons.org/ns#Distribution" />
        <cc:permits
           rdf:resource="http://creativecommons.org/ns#DerivativeWorks" />
      </cc:License>
    </rdf:RDF>
  </metadata>
</svg>
