<?xml version="1.0" encoding="UTF-8" standalone="no"?>
<svg
   xmlns:dc="http://purl.org/dc/elements/1.1/"
   xmlns:cc="http://creativecommons.org/ns#"
   xmlns:rdf="http://www.w3.org/1999/02/22-rdf-syntax-ns#"
   xmlns:svg="http://www.w3.org/2000/svg"
   xmlns="http://www.w3.org/2000/svg"
   xmlns:sodipodi="http://sodipodi.sourceforge.net/DTD/sodipodi-0.dtd"
   xmlns:inkscape="http://www.inkscape.org/namespaces/inkscape"
   version="1.1"
   x="0"
   y="0"
   width="256"
   height="256"
   viewBox="0 0 256 256"
   id="svg39"
   sodipodi:docname="egg_fried_03.svg"
   inkscape:version="0.92.4 (5da689c313, 2019-01-14)">
  <title
     id="title852">Fried Egg</title>
  <metadata
     id="metadata45">
    <rdf:RDF>
      <cc:Work
         rdf:about="">
        <dc:format>image/svg+xml</dc:format>
        <dc:type
           rdf:resource="http://purl.org/dc/dcmitype/StillImage" />
        <dc:title>Fried Egg</dc:title>
        <cc:license
           rdf:resource="http://creativecommons.org/publicdomain/zero/1.0/" />
        <dc:creator>
          <cc:Agent>
            <dc:title>oksmith</dc:title>
          </cc:Agent>
        </dc:creator>
        <dc:source>https://openclipart.org/detail/317181</dc:source>
      </cc:Work>
      <cc:License
         rdf:about="http://creativecommons.org/publicdomain/zero/1.0/">
        <cc:permits
           rdf:resource="http://creativecommons.org/ns#Reproduction" />
        <cc:permits
           rdf:resource="http://creativecommons.org/ns#Distribution" />
        <cc:permits
           rdf:resource="http://creativecommons.org/ns#DerivativeWorks" />
      </cc:License>
    </rdf:RDF>
  </metadata>
  <defs
     id="defs43" />
  <sodipodi:namedview
     pagecolor="#ffffff"
     bordercolor="#666666"
     borderopacity="1"
     objecttolerance="10"
     gridtolerance="10"
     guidetolerance="10"
     inkscape:pageopacity="0"
     inkscape:pageshadow="2"
     inkscape:window-width="1920"
     inkscape:window-height="1025"
     id="namedview41"
     showgrid="false"
     inkscape:zoom="1.3147429"
     inkscape:cx="164.93085"
     inkscape:cy="149.61676"
     inkscape:window-x="-8"
     inkscape:window-y="-8"
     inkscape:window-maximized="1"
     inkscape:current-layer="svg39"
     fit-margin-top="0"
     fit-margin-left="0"
     fit-margin-right="0"
     fit-margin-bottom="0" />
  <g
     id="Layer_1"
     transform="matrix(0.39184819,0,0,0.39184819,7.225595e-5,56.754377)">
    <path
       d="m 419.751,7.831 c 52.31,2.356 127.386,25.286 165.55,63.192 22.72,22.566 73.388,66.62 67.548,101.242 -2.647,15.713 -12.646,28.62 -22.819,40.272 -25.582,28.012 -39.75,32.792 -57.423,69.801 -16.376,34.31 -44.469,35.676 -79.283,40.592 -45.874,6.364 -94.678,6.166 -138.626,13.328 -14.442,2.353 -24.51,5.32 -37.973,10.968 -46.33,20.949 -68.704,12.494 -115.043,-4.572 C 163.716,328.674 146.91,316.866 104.59,315.256 29.872,312.123 30.401,291.578 10.126,227.007 -15.178,146.432 32.839,115.156 102.832,95.813 134.618,87.03 150.217,83.379 178.322,65.004 247.05,18.051 258.479,33.936 332.37,18.513 362.141,12.084 389.247,8.172 419.751,7.831"
       id="path2"
       inkscape:connector-curvature="0"
       style="fill:#bb9349" />
    <path
       d="m 416.467,4.037 c 52.309,2.356 127.384,25.286 165.548,63.193 22.719,22.565 73.388,66.62 67.55,101.241 -2.65,15.714 -12.648,28.62 -22.819,40.273 -25.581,28.011 -39.753,32.791 -57.422,69.801 -16.379,34.311 -44.47,35.676 -79.286,40.591 -45.873,6.365 -94.676,6.166 -138.626,13.328 -14.439,2.354 -24.509,5.321 -37.97,10.969 -46.334,20.947 -68.705,12.494 -115.044,-4.572 -37.965,-13.98 -54.774,-25.789 -97.094,-27.399 C 26.587,308.329 27.116,287.786 6.84,223.212 -18.463,142.639 29.554,111.361 99.546,92.02 131.332,83.238 146.934,79.586 175.038,61.21 243.764,14.258 255.193,30.142 329.083,14.72 358.854,8.291 385.961,4.379 416.467,4.037"
       id="path4"
       inkscape:connector-curvature="0"
       style="fill:#e2b45c" />
    <path
       d="m 416.276,7.745 c -29.002,0.355 -56.569,4.471 -84.895,10.442 -15.439,3.255 -30.777,5.602 -46.443,7.38 -10.818,1.227 -21.828,2.154 -32.535,4.107 -26.845,4.895 -48.803,18.081 -71.083,33.301 l -0.188,0.126 c -12.324,8.059 -24.676,14.857 -38.468,20.078 -49.69,18.11 -135.649,28.38 -139.088,95.663 -1.347,26.382 20.547,93.103 43.862,107.957 18.306,9.688 64.126,12.239 88.253,17.276 31.45,6.81 56.234,16.155 86.191,24.224 39.454,9.033 102.926,-9.894 145.052,-15.621 44.26,-5.583 83.106,-5.62 126.739,-7.951 35.638,-1.903 57.512,-6.834 71.616,-41.946 C 584.855,214.063 602.468,222.845 627.475,188 653.827,151.272 622.594,117.34 597.238,90.579 589.76,82.798 581.871,75.273 574.165,67.702 538.274,32.051 466.05,10.068 416.276,7.745"
       id="path6"
       inkscape:connector-curvature="0"
       style="fill:#f9ecc9" />
    <path
       d="m 494.919,304.659 c 34.901,-1.956 56.431,-7.179 70.37,-41.878 C 584.855,214.063 602.468,222.845 627.475,188 653.827,151.272 622.594,117.34 597.238,90.579 589.76,82.798 581.871,75.273 574.165,67.702 555.331,48.995 526.497,34.056 496.15,23.741 c 15.151,8.388 29.193,17.254 45.939,32.553 17.267,15.768 45.813,35.199 59.092,51.28 23.737,31.964 26.851,51.929 -3.023,81.976 -28.677,28.843 -33.357,39.148 -47.718,76.812 -10.269,27.548 -30.544,34.958 -55.521,38.297"
       id="path8"
       inkscape:connector-curvature="0"
       style="fill:#f0deb3" />
    <path
       d="m 63.88,150.578 c 24.672,-20.498 65.813,-30.704 96.595,-49.28 25.693,-15.505 81.174,-49.687 110.103,-49.917 l 4.058,-0.031 c 20.966,1.226 26.031,8.555 53.105,7.895 9.199,-0.225 21.641,-1.147 16.186,13.963 -26.008,49.114 -88.463,29.472 -114.329,66.723 -10.461,24.092 7.488,33.182 26.85,44.406 55.303,31.435 73.538,5.626 130.254,34.61 50.841,25.985 49.925,12.837 99.7,18.876 19.466,2.363 44.353,13.03 11.287,23.641 -49.135,15.761 -74.328,31.438 -127.443,25.705 -41.479,-4.479 -44.206,-4.616 -86.57,-0.765 -21.555,1.96 -37.851,0.257 -57.956,-7.894 -32.953,-14.717 -31.424,-16.559 -69.317,-22.534 -41.087,-6.478 -163.017,-36.958 -101.42,-97.189 l 2.827,-2.765 2.983,-2.748 3.087,-2.696"
       id="path10"
       inkscape:connector-curvature="0"
       style="fill:#f0deb3" />
    <path
       d="m 459.437,152.007 c 50.796,0 92.226,-21.397 92.226,-47.633 0,-26.236 -41.43,-47.634 -92.226,-47.634 -50.798,0 -92.228,21.398 -92.228,47.634 0,26.236 41.43,47.633 92.228,47.633"
       id="path12"
       inkscape:connector-curvature="0"
       style="fill:#e4d0a1" />
    <path
       d="m 437.14,204.031 c 75.73,0 137.496,-29.744 137.496,-66.214 0,-36.469 -61.766,-66.214 -137.496,-66.214 -75.73,0 -137.496,29.745 -137.496,66.214 0,36.47 61.766,66.214 137.496,66.214"
       id="path14"
       inkscape:connector-curvature="0"
       style="fill:#e4d0a1" />
    <path
       d="m 437.14,71.603 c 47.639,0 89.614,11.669 114.288,29.391 0.151,1.118 0.233,2.243 0.233,3.38 0,26.308 -41.292,47.633 -92.224,47.633 -50.937,0 -92.228,-21.325 -92.228,-47.633 0,-10.344 6.386,-19.919 17.234,-27.731 16.231,-3.246 34.029,-5.04 52.697,-5.04"
       id="path16"
       inkscape:connector-curvature="0"
       style="fill:#ccb883" />
    <path
       d="m 396.603,19.577 c 74.071,0 134.117,55.642 134.117,95.943 0,40.3 -60.046,72.971 -134.117,72.971 -74.072,0 -134.121,-32.671 -134.121,-72.971 0,-40.301 60.049,-95.943 134.121,-95.943"
       id="path18"
       inkscape:connector-curvature="0"
       style="fill:#e99e2e" />
    <path
       d="m 378.02,28.79 c 50.583,0 91.591,38 91.591,65.522 0,27.521 -41.008,49.832 -91.591,49.832 -50.585,0 -91.591,-22.311 -91.591,-49.832 0,-27.522 41.006,-65.522 91.591,-65.522"
       id="path20"
       inkscape:connector-curvature="0"
       style="fill:#f3b528" />
    <path
       d="m 473.991,40.676 c 34.319,19.885 56.729,50.228 56.729,74.844 0,40.3 -60.046,72.971 -134.117,72.971 -50.565,0 -94.582,-15.225 -117.437,-37.708 24.184,12.876 57.28,20.817 93.785,20.817 74.074,0 134.118,-32.671 134.118,-72.971 0,-18.371 -12.481,-39.93 -33.078,-57.953"
       id="path22"
       inkscape:connector-curvature="0"
       style="fill:#d68e2f" />
    <path
       d="m 365.505,35.209 c 36.019,0 65.223,27.06 65.223,46.659 0,19.599 -29.204,35.486 -65.223,35.486 -36.024,0 -65.224,-15.887 -65.224,-35.486 0,-19.599 29.2,-46.659 65.224,-46.659"
       id="path24"
       inkscape:connector-curvature="0"
       style="fill:#f8c823" />
    <path
       d="m 413.084,31.23 c 34.281,0 61.222,16.554 61.222,28.823 0,12.269 -26.941,12.565 -61.222,12.565 -34.284,0 -62.927,-0.296 -62.927,-12.565 0,-12.269 28.645,-28.823 62.927,-28.823"
       id="path26"
       inkscape:connector-curvature="0"
       style="fill:#fbd96b" />
    <path
       d="m 460.906,70.168 c -11.141,2.352 -28.29,2.45 -47.822,2.45 -34.284,0 -62.927,-0.296 -62.927,-12.565 0,-10.976 22.925,-25.377 52.301,-28.291 25.891,6.326 47.184,21.916 58.448,38.406"
       id="path28"
       inkscape:connector-curvature="0"
       style="fill:#fdf080" />
    <path
       d="m 330.324,61.974 c -10.314,0 -20.752,13.322 -20.752,21.345 0,8.024 10.438,7.707 20.752,7.707 10.314,0 18.677,-6.502 18.677,-14.526 0,-8.023 -8.363,-14.526 -18.677,-14.526 z m 49.29,-25.376 c 24.108,4.75 43.211,20.914 49.169,35.951 -4.997,0.062 -10.255,0.069 -15.699,0.069 -34.284,0 -62.927,-0.296 -62.927,-12.565 0,-7.894 11.863,-17.564 29.457,-23.455"
       id="path30"
       inkscape:connector-curvature="0"
       style="fill:#fef5a2" />
    <path
       d="m 434.201,54.995 c 4.021,0.888 6.896,3.349 6.419,5.498 -0.474,2.15 -4.115,3.173 -8.137,2.286 -4.017,-0.888 -6.892,-3.349 -6.416,-5.498 0.477,-2.15 4.116,-3.173 8.134,-2.286 z m 20.562,-3.886 c 5.822,1.286 9.985,4.851 9.297,7.964 -0.687,3.113 -5.963,4.593 -11.786,3.307 -5.821,-1.286 -9.981,-4.85 -9.294,-7.964 0.686,-3.11 5.963,-4.593 11.783,-3.307"
       id="path32"
       inkscape:connector-curvature="0"
       style="fill:#fffffe" />
    <path
       d="m 172.511,125.759 c 11.204,-2.836 35.218,-6.782 35.946,11.06 -3.486,32.456 -58.297,42.403 -33.57,66.136 23.932,22.975 92.996,25.891 125.626,36.307 4.394,1.404 18.335,6.615 15.072,13.436 -2.787,5.827 -29.818,1.633 -35.645,1.109 -32.058,-2.882 -139.487,-7.215 -157.62,-33.057 -11.423,-19.684 8.703,-31.65 15.281,-48.047 4.668,-11.634 -32.053,-10.112 -26.454,-28.399 4.543,-14.851 27.882,-10.68 40.191,-13.017 6.719,-1.275 14.348,-3.779 21.173,-5.528"
       id="path34"
       inkscape:connector-curvature="0"
       style="fill:#e4d0a1" />
    <path
       d="m 517.878,203.952 c -9.006,2.123 -83.009,13.848 -32.351,22.285 47.828,7.968 100.57,-5.721 105.585,-62.611 -9.715,-2.569 -15.285,4.659 -22.526,11.29 -19.16,17.553 -25.505,22.742 -50.708,29.036 z m -307.007,91.773 c 41.271,23.812 35.711,32.335 -6.209,15.972 C 156.99,293.539 149.81,297.202 101.859,293.11 73.977,290.731 33.989,276.494 30.775,243.928 c -1.93,-19.575 21.735,0.2 28.922,5.068 31.497,21.328 66.417,15.318 101.293,25.492 l 10.128,2.954 c 14.271,4.718 26.725,10.883 39.753,18.283"
       id="path36"
       inkscape:connector-curvature="0"
       style="fill:#fff9e7" />
  </g>
</svg>
