<?xml version="1.0" encoding="UTF-8" standalone="no"?>
<!-- Generator: Adobe Illustrator 15.1.0, SVG Export Plug-In . SVG Version: 6.00 Build 0)  -->

<svg
   xmlns:dc="http://purl.org/dc/elements/1.1/"
   xmlns:cc="http://creativecommons.org/ns#"
   xmlns:rdf="http://www.w3.org/1999/02/22-rdf-syntax-ns#"
   xmlns:svg="http://www.w3.org/2000/svg"
   xmlns="http://www.w3.org/2000/svg"
   xmlns:xlink="http://www.w3.org/1999/xlink"
   xmlns:sodipodi="http://sodipodi.sourceforge.net/DTD/sodipodi-0.dtd"
   xmlns:inkscape="http://www.inkscape.org/namespaces/inkscape"
   version="1.1"
   id="flash0.ai"
   x="0px"
   y="0px"
   width="256"
   height="256"
   viewBox="0 0 256.00001 256"
   xml:space="preserve"
   sodipodi:docname="corn_off_the_cob.svg"
   inkscape:version="0.92.4 (5da689c313, 2019-01-14)"
   inkscape:export-xdpi="10.5"
   inkscape:export-ydpi="10.5"><title
   id="title1318">Corn</title><metadata
   id="metadata511"><rdf:RDF><cc:Work
       rdf:about=""><dc:format>image/svg+xml</dc:format><dc:type
         rdf:resource="http://purl.org/dc/dcmitype/StillImage" /><dc:title>Corn</dc:title><cc:license
         rdf:resource="http://creativecommons.org/publicdomain/zero/1.0/" /><dc:creator><cc:Agent><dc:title>Glitch</dc:title></cc:Agent></dc:creator><dc:source>https://opengameart.org/node/20149</dc:source></cc:Work><cc:License
       rdf:about="http://creativecommons.org/publicdomain/zero/1.0/"><cc:permits
         rdf:resource="http://creativecommons.org/ns#Reproduction" /><cc:permits
         rdf:resource="http://creativecommons.org/ns#Distribution" /><cc:permits
         rdf:resource="http://creativecommons.org/ns#DerivativeWorks" /></cc:License></rdf:RDF></metadata><defs
   id="defs509"><linearGradient
     inkscape:collect="always"
     xlink:href="#SVGID_1_"
     id="linearGradient1526"
     gradientUnits="userSpaceOnUse"
     gradientTransform="matrix(0.339,-0.9408,0.9408,0.339,13081.727,2265.3369)"
     x1="-2295.7051"
     y1="-13059.306"
     x2="-2278.0071"
     y2="-13059.306" /></defs><sodipodi:namedview
   pagecolor="#ffffff"
   bordercolor="#666666"
   borderopacity="1"
   objecttolerance="10"
   gridtolerance="10"
   guidetolerance="10"
   inkscape:pageopacity="0"
   inkscape:pageshadow="2"
   inkscape:window-width="1920"
   inkscape:window-height="1025"
   id="namedview507"
   showgrid="false"
   inkscape:zoom="0.959596"
   inkscape:cx="-185.6767"
   inkscape:cy="-49.998416"
   inkscape:window-x="-8"
   inkscape:window-y="-8"
   inkscape:window-maximized="1"
   inkscape:current-layer="flash0.ai"
   fit-margin-top="0"
   fit-margin-left="0"
   fit-margin-right="0"
   fit-margin-bottom="0" />
<symbol
   id="corn"
   viewBox="-0.004 -15.956 39.656 15.964"
   transform="translate(-19.796294,227.74406)">
	<g
   id="Layer_1_2_">
		<path
   style="clip-rule:evenodd;fill:#ffffff;fill-rule:evenodd"
   d="m 24.2,-15.55 c -0.5,-0.233 -1.167,-0.367 -2,-0.4 -0.833,-0.033 -1.65,0.067 -2.45,0.3 l -19,5.1 c -0.467,0.2 -0.717,0.483 -0.75,0.85 -0.033,0.367 0.167,0.583 0.6,0.65 0.033,0.066 0.25,0.066 0.65,0 0.433,-0.067 0.7,-0.083 0.8,-0.05 l 12,4.3 c 1.5,0.533 2.55,0.85 3.15,0.95 0.733,0.167 1.367,0.2 1.9,0.1 l 19.7,-3.3 c 0.534,-0.167 0.817,-0.434 0.85,-0.8 0.033,-0.4 -0.217,-0.717 -0.75,-0.95 z"
   id="path2"
   inkscape:connector-curvature="0" />
		<path
   style="clip-rule:evenodd;fill:#d4d5d6;fill-rule:evenodd"
   d="m 32.7,-6.25 c 0.1,0.067 0.417,0.067 0.95,0 l 5.15,-0.8 c 0.534,-0.167 0.817,-0.434 0.85,-0.8 0.033,-0.4 -0.217,-0.717 -0.75,-0.95 l -14.7,-6.75 c -0.467,-0.2 -1.167,-0.333 -2.1,-0.4 0.1,0.233 0.083,0.5 -0.05,0.8 -0.1,0.267 -0.25,0.433 -0.45,0.5 7.133,5.5 10.833,8.3 11.1,8.4 z"
   id="path4"
   inkscape:connector-curvature="0" />
		
			<linearGradient
   id="SVGID_1_"
   gradientUnits="userSpaceOnUse"
   x1="-2295.7051"
   y1="-13059.306"
   x2="-2278.0071"
   y2="-13059.306"
   gradientTransform="matrix(0.339,-0.9408,0.9408,0.339,13081.727,2265.3369)">
			<stop
   offset="0"
   style="stop-color:#E3E3E3"
   id="stop6" />
			<stop
   offset="1"
   style="stop-color:#FFFFFF"
   id="stop8" />
		</linearGradient>
		<path
   style="clip-rule:evenodd;fill:url(#linearGradient1526);fill-rule:evenodd"
   d="m 24,-14.55 c -0.5,-0.233 -1.117,-0.367 -1.85,-0.4 -0.733,-0.066 -1.367,-0.033 -1.9,0.1 l -19.3,4.9 c -0.8,0.2 -1.034,0.5 -0.7,0.9 0.1,0.167 0.3,0.3 0.6,0.4 l 13.25,4.5 c 1.467,0.5 2.5,0.816 3.1,0.95 0.733,0.2 1.367,0.233 1.9,0.1 L 38.55,-7 c 0.534,-0.133 0.817,-0.317 0.85,-0.55 0.033,-0.267 -0.217,-0.5 -0.75,-0.7 z"
   id="path11"
   inkscape:connector-curvature="0" />
		<path
   style="clip-rule:evenodd;fill:#c9c9c9;fill-rule:evenodd"
   d="M 12.225,-12.775 0.95,-9.95 c -0.8,0.2 -1.034,0.5 -0.7,0.9 0.1,0.167 0.3,0.3 0.6,0.4 l 11.4,3.9 C 8.817,-6.017 6.45,-6.933 5.15,-7.5 2.95,-8.433 2.133,-9.083 2.7,-9.45 c 1.108,-0.729 4.283,-1.838 9.525,-3.325 z"
   id="path13"
   inkscape:connector-curvature="0" />
		<path
   style="clip-rule:evenodd;fill:#ffffff;fill-rule:evenodd"
   d="m 38.55,-7 c 0.534,-0.133 0.817,-0.317 0.85,-0.55 0.033,-0.267 -0.217,-0.5 -0.75,-0.7 L 24,-14.55 c -0.5,-0.233 -1.117,-0.367 -1.85,-0.4 -0.733,-0.066 -1.367,-0.033 -1.9,0.1 l -2.35,0.6 c 0.9,-0.1 1.617,-0.133 2.15,-0.1 0.767,0.033 1.617,0.167 2.55,0.4 2,0.5 4.7,1.434 8.1,2.8 3.1,1.2 5.25,2.133 6.45,2.8 0.867,0.467 1.35,0.767 1.45,0.9 0.1,0.2 -0.133,0.4 -0.7,0.6 z"
   id="path15"
   inkscape:connector-curvature="0" />
		<path
   style="clip-rule:evenodd;fill:#c9c9c9;fill-rule:evenodd"
   d="m 30.4,-7 c 0.367,-0.133 0.65,-0.267 0.85,-0.4 0.167,-0.133 0.15,-0.333 -0.05,-0.6 -0.167,-0.233 -0.167,-0.367 0,-0.4 0.9,-0.267 1.216,-0.567 0.95,-0.9 -0.133,-0.167 -0.467,-0.367 -1,-0.6 l -0.75,-0.3 c 0.033,-0.733 -0.217,-1.133 -0.75,-1.2 -0.367,-0.033 -0.683,-0.017 -0.95,0.05 l -0.3,0.1 c -0.1,-0.133 -0.383,-0.283 -0.85,-0.45 -0.3,-0.1 -0.683,-0.133 -1.15,-0.1 l -0.6,0.05 -0.6,-0.5 c -0.467,-0.333 -1.417,-0.5 -2.85,-0.5 -0.367,0 -0.717,0.067 -1.05,0.2 l -0.4,0.2 h -0.6 c 0.9,-0.333 1.267,-0.6 1.1,-0.8 -0.433,-0.6 -1.133,-0.9 -2.1,-0.9 -0.566,0.033 -1.066,0.183 -1.5,0.45 l -0.5,0.45 0.5,1.05 -0.8,0.2 c -0.167,0.066 -0.333,0.2 -0.5,0.4 l -0.25,0.25 H 15.3 l -2.15,0.3 c -0.3,0.034 -0.617,0.1 -0.95,0.2 l -0.4,0.2 0.45,0.6 c -0.933,0 -1.583,0.05 -1.95,0.15 -0.233,0.066 -0.466,0.25 -0.7,0.55 l -0.3,0.4 c 12.967,2.367 19.733,3.434 20.3,3.2 0.566,-0.233 0.667,-0.633 0.3,-1.2 z"
   id="path17"
   inkscape:connector-curvature="0" />
		<path
   style="clip-rule:evenodd;fill:#deae00;fill-rule:evenodd"
   d="m 25.45,-3.85 0.35,0.3 c 0.267,0.167 0.517,0.2 0.75,0.1 0.367,-0.2 0.567,-0.583 0.6,-1.15 l 0.25,0.1 c 0.133,0.067 0.4,0.017 0.8,-0.15 0.466,-0.167 0.783,-0.367 0.95,-0.6 0.267,-0.3 0.283,-0.683 0.05,-1.15 l 0.35,0.05 c 0.233,0 0.4,-0.05 0.5,-0.15 0.167,-0.133 0.25,-0.333 0.25,-0.6 0,-0.3 -0.117,-0.583 -0.35,-0.85 -0.233,-0.267 -0.633,-0.483 -1.2,-0.65 L 28,-8.75 c 0.533,-0.3 0.783,-0.533 0.75,-0.7 -0.2,-0.4 -0.667,-0.65 -1.4,-0.75 -0.3,-0.033 -0.617,0 -0.95,0.1 l -0.35,0.2 c 0.034,-0.267 -0.2,-0.55 -0.7,-0.85 -0.3,-0.167 -0.65,-0.267 -1.05,-0.3 h -0.5 l 0.05,-0.3 c 0.033,-0.133 -0.1,-0.316 -0.4,-0.55 -0.3,-0.233 -0.684,-0.4 -1.15,-0.5 -0.4,-0.1 -0.85,0 -1.35,0.3 l -0.65,0.45 c -0.133,-0.133 -0.417,-0.233 -0.85,-0.3 -0.267,-0.033 -0.517,0.05 -0.75,0.25 l -0.3,0.35 -0.35,-0.3 c -0.466,-0.3 -1.017,-0.267 -1.65,0.1 -0.3,0.167 -0.517,0.35 -0.65,0.55 l -0.15,0.3 -0.95,-0.2 c -0.233,-0.067 -0.517,-0.033 -0.85,0.1 l -0.45,0.2 c -0.567,-0.167 -1.117,-0.117 -1.65,0.15 -0.3,0.133 -0.467,0.367 -0.5,0.7 l 0.05,0.45 C 10.517,-9.5 9.967,-9.483 9.6,-9.25 9.2,-8.917 9.1,-8.533 9.3,-8.1 c 0.1,0.167 0.333,0.3 0.7,0.4 0.167,0.067 0.333,0.117 0.5,0.15 -0.033,0.066 0.017,0.3 0.15,0.7 0.067,0.233 0.267,0.383 0.6,0.45 0.167,0 0.317,0 0.45,0 -0.034,0.033 -0.05,0.083 -0.05,0.15 0.033,0.1 0.117,0.217 0.25,0.35 0.233,0.233 0.483,0.283 0.75,0.15 -0.1,0.133 -0.167,0.267 -0.2,0.4 -0.1,0.333 -0.034,0.567 0.2,0.7 0.367,0.267 0.733,0.267 1.1,0 -0.067,0.167 -0.083,0.35 -0.05,0.55 0.033,0.434 0.233,0.767 0.6,1 0.567,0.4 1.133,0.45 1.7,0.15 -0.033,0.034 -0.05,0.1 -0.05,0.2 0.066,0.233 0.283,0.517 0.65,0.85 0.6,0.533 1.183,0.633 1.75,0.3 V -1 c 0,0.267 0.233,0.517 0.7,0.75 0.434,0.2 0.867,0.283 1.3,0.25 0.5,-0.033 0.917,-0.45 1.25,-1.25 l 0.65,0.2 c 0.467,0.133 0.8,0.1 1,-0.1 0.367,-0.3 0.55,-0.75 0.55,-1.35 l 0.5,0.1 c 0.367,0.066 0.617,0.033 0.75,-0.1 0.2,-0.2 0.333,-0.65 0.4,-1.35 z"
   id="path19"
   inkscape:connector-curvature="0" />
		<path
   style="clip-rule:evenodd;fill:#ffd22e;fill-rule:evenodd"
   d="m 10.7,-7.55 1.1,-0.5 c -0.267,-0.2 -0.566,-0.35 -0.9,-0.45 -0.233,-0.067 -0.517,-0.067 -0.85,0 -0.3,0.067 -0.5,0.167 -0.6,0.3 -0.167,0.233 -0.017,0.417 0.45,0.55 0.3,0.067 0.567,0.1 0.8,0.1 z"
   id="path21"
   inkscape:connector-curvature="0" />
		<path
   style="clip-rule:evenodd;fill:#ffd22e;fill-rule:evenodd"
   d="m 11.9,-8.9 0.6,-0.3 c 0.1,-0.133 0.4,-0.283 0.9,-0.45 L 12.95,-9.8 c -0.2,-0.067 -0.467,-0.05 -0.8,0.05 -0.367,0.1 -0.6,0.217 -0.7,0.35 -0.1,0.133 -0.1,0.25 0,0.35 0.133,0.1 0.283,0.15 0.45,0.15 z"
   id="path23"
   inkscape:connector-curvature="0" />
		<path
   style="clip-rule:evenodd;fill:#ffd22e;fill-rule:evenodd"
   d="m 20.15,-0.05 c 0.2,0 0.417,-0.117 0.65,-0.35 0.1,-0.1 0.117,-0.233 0.05,-0.4 -0.067,-0.2 -0.217,-0.3 -0.45,-0.3 -0.533,-0.267 -0.967,-0.4 -1.3,-0.4 -0.2,0 -0.35,0.083 -0.45,0.25 -0.066,0.167 -0.066,0.333 0,0.5 0.033,0.133 0.233,0.283 0.6,0.45 0.367,0.167 0.667,0.25 0.9,0.25 z"
   id="path25"
   inkscape:connector-curvature="0" />
		<path
   style="clip-rule:evenodd;fill:#ffd22e;fill-rule:evenodd"
   d="m 17.4,-1.6 c 0.233,0 0.367,-0.1 0.4,-0.3 0.034,-0.233 -0.05,-0.383 -0.25,-0.45 -0.7,-0.467 -1.117,-0.667 -1.25,-0.6 -0.267,0.067 -0.267,0.267 0,0.6 0.067,0.167 0.217,0.333 0.45,0.5 0.233,0.167 0.45,0.25 0.65,0.25 z"
   id="path27"
   inkscape:connector-curvature="0" />
		<path
   style="clip-rule:evenodd;fill:#ffd22e;fill-rule:evenodd"
   d="m 14.9,-3 c 0.167,0 0.317,-0.083 0.45,-0.25 0.133,-0.167 0.133,-0.267 0,-0.3 -0.133,-0.034 -0.333,-0.15 -0.6,-0.35 -0.267,-0.167 -0.45,-0.317 -0.55,-0.45 -0.1,-0.133 -0.184,-0.083 -0.25,0.15 -0.1,0.233 -0.1,0.434 0,0.6 0.267,0.4 0.583,0.6 0.95,0.6 z"
   id="path29"
   inkscape:connector-curvature="0" />
		<path
   style="clip-rule:evenodd;fill:#ffd22e;fill-rule:evenodd"
   d="m 15.7,-4.3 c 0.233,0 0.417,-0.133 0.55,-0.4 0.167,-0.267 0.183,-0.45 0.05,-0.55 -0.133,-0.167 -0.5,-0.233 -1.1,-0.2 -0.233,0 -0.4,0.067 -0.5,0.2 -0.067,0.1 -0.083,0.183 -0.05,0.25 0.033,0.1 0.15,0.233 0.35,0.4 0.233,0.2 0.467,0.3 0.7,0.3 z"
   id="path31"
   inkscape:connector-curvature="0" />
		<path
   style="clip-rule:evenodd;fill:#ffd22e;fill-rule:evenodd"
   d="m 13.25,-4.6 c 0.1,0 0.183,-0.066 0.25,-0.2 0.067,-0.1 0.067,-0.184 0,-0.25 L 12.8,-5.5 c -0.066,-0.033 -0.133,0 -0.2,0.1 -0.1,0.133 -0.133,0.25 -0.1,0.35 0,0.3 0.25,0.45 0.75,0.45 z"
   id="path33"
   inkscape:connector-curvature="0" />
		<path
   style="clip-rule:evenodd;fill:#ffd22e;fill-rule:evenodd"
   d="m 12.45,-5.8 c 0.133,-0.034 0.25,-0.15 0.35,-0.35 -0.3,-0.067 -0.483,-0.133 -0.55,-0.2 -0.233,-0.1 -0.367,-0.05 -0.4,0.15 0,0.267 0.2,0.4 0.6,0.4 z"
   id="path35"
   inkscape:connector-curvature="0" />
		<path
   style="clip-rule:evenodd;fill:#ffd22e;fill-rule:evenodd"
   d="m 11.55,-6.6 c 0.167,-0.066 0.3,-0.2 0.4,-0.4 0.133,-0.2 0.15,-0.317 0.05,-0.35 h -0.7 c -0.167,0 -0.3,0.067 -0.4,0.2 -0.1,0.133 -0.133,0.233 -0.1,0.3 0.034,0.067 0.133,0.133 0.3,0.2 0.167,0.067 0.317,0.083 0.45,0.05 z"
   id="path37"
   inkscape:connector-curvature="0" />
		<path
   style="clip-rule:evenodd;fill:#ffd22e;fill-rule:evenodd"
   d="m 13.85,-6.4 c 0.133,-0.2 0.45,-0.467 0.95,-0.8 0.034,-0.133 -0.117,-0.25 -0.45,-0.35 -0.5,-0.167 -0.917,0.05 -1.25,0.65 -0.1,0.167 -0.017,0.333 0.25,0.5 0.233,0.167 0.4,0.167 0.5,0 z"
   id="path39"
   inkscape:connector-curvature="0" />
		<path
   style="clip-rule:evenodd;fill:#ffd22e;fill-rule:evenodd"
   d="m 14.35,-5.55 c 0.033,-0.1 0.183,-0.267 0.45,-0.5 0,-0.167 -0.033,-0.267 -0.1,-0.3 -0.167,-0.133 -0.4,-0.066 -0.7,0.2 -0.167,0.133 -0.183,0.3 -0.05,0.5 0.167,0.233 0.3,0.267 0.4,0.1 z"
   id="path41"
   inkscape:connector-curvature="0" />
		<path
   style="clip-rule:evenodd;fill:#ffd22e;fill-rule:evenodd"
   d="m 12.95,-8.1 1.1,-0.25 c 0.067,-0.3 -0.066,-0.5 -0.4,-0.6 -0.533,-0.167 -0.933,-0.033 -1.2,0.4 -0.133,0.2 -0.117,0.35 0.05,0.45 0.133,0.1 0.283,0.1 0.45,0 z"
   id="path43"
   inkscape:connector-curvature="0" />
		<path
   style="clip-rule:evenodd;fill:#ffd22e;fill-rule:evenodd"
   d="m 12.75,-7.25 c 0.033,-0.167 0.2,-0.267 0.5,-0.3 0,-0.1 -0.05,-0.15 -0.15,-0.15 h -0.6 c -0.033,0 -0.05,0.017 -0.05,0.05 -0.034,0.033 -0.017,0.066 0.05,0.1 0.067,0.033 0.15,0.133 0.25,0.3 z"
   id="path45"
   inkscape:connector-curvature="0" />
		<path
   style="clip-rule:evenodd;fill:#ffd22e;fill-rule:evenodd"
   d="m 17.8,-3.25 c 0.2,0 0.383,-0.067 0.55,-0.2 0.2,-0.133 0.25,-0.283 0.15,-0.45 -0.067,-0.233 -0.217,-0.434 -0.45,-0.6 -0.267,-0.167 -0.517,-0.233 -0.75,-0.2 -0.233,0.034 -0.4,0.184 -0.5,0.45 -0.1,0.267 -0.1,0.5 0,0.7 0.067,0.133 0.25,0.233 0.55,0.3 0.167,0 0.317,0 0.45,0 z"
   id="path47"
   inkscape:connector-curvature="0" />
		<path
   style="clip-rule:evenodd;fill:#ffd22e;fill-rule:evenodd"
   d="m 20.1,-2.45 c 0.566,-0.033 0.833,-0.25 0.8,-0.65 -0.033,-0.333 -0.2,-0.566 -0.5,-0.7 -0.2,-0.133 -0.45,-0.1 -0.75,0.1 -0.267,0.167 -0.45,0.367 -0.55,0.6 -0.067,0.2 0.017,0.367 0.25,0.5 0.233,0.133 0.483,0.183 0.75,0.15 z"
   id="path49"
   inkscape:connector-curvature="0" />
		<path
   style="clip-rule:evenodd;fill:#ffd22e;fill-rule:evenodd"
   d="m 22.35,-1.3 c 0.233,0.066 0.3,-0.05 0.2,-0.35 -0.1,-0.333 -0.267,-0.583 -0.5,-0.75 -0.2,-0.167 -0.417,-0.217 -0.65,-0.15 -0.2,0.033 -0.267,0.117 -0.2,0.25 l 0.3,0.6 z"
   id="path51"
   inkscape:connector-curvature="0" />
		<path
   style="clip-rule:evenodd;fill:#ffd22e;fill-rule:evenodd"
   d="m 16.25,-6.25 c 0.267,-0.1 0.4,-0.317 0.4,-0.65 0,-0.367 -0.2,-0.583 -0.6,-0.65 -0.4,-0.067 -0.65,0 -0.75,0.2 -0.066,0.133 -0.083,0.283 -0.05,0.45 l 0.35,0.45 0.25,0.15 c 0.2,0.067 0.333,0.083 0.4,0.05 z"
   id="path53"
   inkscape:connector-curvature="0" />
		<path
   style="clip-rule:evenodd;fill:#ffd22e;fill-rule:evenodd"
   d="m 15.45,-8.2 c 0.333,0.033 0.55,-0.067 0.65,-0.3 0.033,-0.167 0.017,-0.333 -0.05,-0.5 -0.133,-0.2 -0.5,-0.267 -1.1,-0.2 -0.267,0.034 -0.4,0.15 -0.4,0.35 l 0.05,0.3 0.25,0.15 c 0.2,0.133 0.4,0.2 0.6,0.2 z"
   id="path55"
   inkscape:connector-curvature="0" />
		<path
   style="clip-rule:evenodd;fill:#ffd22e;fill-rule:evenodd"
   d="m 14.3,-9.65 c 0.034,-0.067 0.233,-0.167 0.6,-0.3 0.333,-0.133 0.434,-0.233 0.3,-0.3 -0.3,-0.133 -0.767,-0.133 -1.4,0 -0.233,0.033 -0.216,0.167 0.05,0.4 0.233,0.233 0.383,0.3 0.45,0.2 z"
   id="path57"
   inkscape:connector-curvature="0" />
		<path
   style="clip-rule:evenodd;fill:#ffd22e;fill-rule:evenodd"
   d="m 16.5,-10.15 c 1.033,-0.4 1.4,-0.733 1.1,-1 -0.3,-0.3 -0.8,-0.167 -1.5,0.4 -0.133,0.1 -0.133,0.25 0,0.45 0.167,0.167 0.3,0.217 0.4,0.15 z"
   id="path59"
   inkscape:connector-curvature="0" />
		<path
   style="clip-rule:evenodd;fill:#ffd22e;fill-rule:evenodd"
   d="m 17.65,-7.95 c 0.667,-0.433 0.867,-0.767 0.6,-1 -0.367,-0.233 -0.867,-0.216 -1.5,0.05 -0.233,0.1 -0.317,0.267 -0.25,0.5 l 0.2,0.3 h 0.35 c 0.2,0 0.4,0.05 0.6,0.15 z"
   id="path61"
   inkscape:connector-curvature="0" />
		<path
   style="clip-rule:evenodd;fill:#ffd22e;fill-rule:evenodd"
   d="m 18.3,-5.6 c 0.267,0.033 0.567,-0.133 0.9,-0.5 0.333,-0.4 0.433,-0.667 0.3,-0.8 -0.3,-0.2 -0.883,-0.25 -1.75,-0.15 -0.333,0.067 -0.517,0.25 -0.55,0.55 -0.034,0.2 0,0.4 0.1,0.6 0.167,0.2 0.5,0.3 1,0.3 z"
   id="path63"
   inkscape:connector-curvature="0" />
		<path
   style="clip-rule:evenodd;fill:#ffd22e;fill-rule:evenodd"
   d="m 18,-9.7 c 0.533,-0.5 0.65,-0.816 0.35,-0.95 -0.367,-0.2 -0.8,0.1 -1.3,0.9 -0.066,0.1 -0.033,0.133 0.1,0.1 0.3,-0.133 0.583,-0.15 0.85,-0.05 z"
   id="path65"
   inkscape:connector-curvature="0" />
		<path
   style="clip-rule:evenodd;fill:#ffd22e;fill-rule:evenodd"
   d="m 19.45,-10.3 c 0.2,0 0.383,-0.067 0.55,-0.2 0.167,-0.133 0.167,-0.283 0,-0.45 -0.233,-0.2 -0.583,-0.267 -1.05,-0.2 -0.233,0.033 -0.267,0.183 -0.1,0.45 0.167,0.267 0.367,0.4 0.6,0.4 z"
   id="path67"
   inkscape:connector-curvature="0" />
		<path
   style="clip-rule:evenodd;fill:#ffd22e;fill-rule:evenodd"
   d="m 20.1,-8.7 c 0.4,0.034 0.65,-0.066 0.75,-0.3 0.1,-0.234 0.033,-0.45 -0.2,-0.65 -0.2,-0.167 -0.367,-0.233 -0.5,-0.2 -0.2,0.133 -0.383,0.233 -0.55,0.3 -0.2,0.133 -0.233,0.3 -0.1,0.5 0.167,0.2 0.367,0.317 0.6,0.35 z"
   id="path69"
   inkscape:connector-curvature="0" />
		<path
   style="clip-rule:evenodd;fill:#ffd22e;fill-rule:evenodd"
   d="m 20.75,-6.65 c 0.4,0.066 0.65,-0.117 0.75,-0.55 0.133,-0.433 -0.067,-0.75 -0.6,-0.95 -0.467,-0.167 -0.767,-0.15 -0.9,0.05 -0.1,0.3 -0.183,0.517 -0.25,0.65 -0.2,0.433 0.133,0.7 1,0.8 z"
   id="path71"
   inkscape:connector-curvature="0" />
		<path
   style="clip-rule:evenodd;fill:#ffd22e;fill-rule:evenodd"
   d="m 20.45,-4.7 c 0.466,-0.3 0.667,-0.517 0.6,-0.65 -0.133,-0.267 -0.617,-0.4 -1.45,-0.4 -0.333,0 -0.45,0.183 -0.35,0.55 l 0.2,0.6 z"
   id="path73"
   inkscape:connector-curvature="0" />
		<path
   style="clip-rule:evenodd;fill:#ffd22e;fill-rule:evenodd"
   d="m 22.7,-3.45 c 0.3,0.034 0.433,-0.1 0.4,-0.4 -0.067,-0.333 -0.233,-0.55 -0.5,-0.65 -0.467,-0.167 -0.867,-0.15 -1.2,0.05 -0.133,0.067 -0.133,0.233 0,0.5 l 0.2,0.4 z"
   id="path75"
   inkscape:connector-curvature="0" />
		<path
   style="clip-rule:evenodd;fill:#ffd22e;fill-rule:evenodd"
   d="m 22.9,-5.55 c 0.233,-0.034 0.35,-0.217 0.35,-0.55 0,-0.367 -0.133,-0.6 -0.4,-0.7 -0.333,-0.133 -0.567,0.05 -0.7,0.55 -0.066,0.2 -0.017,0.383 0.15,0.55 0.167,0.167 0.367,0.217 0.6,0.15 z"
   id="path77"
   inkscape:connector-curvature="0" />
		<path
   style="clip-rule:evenodd;fill:#ffd22e;fill-rule:evenodd"
   d="m 22.3,-8.05 c 0.333,-0.333 0.434,-0.583 0.3,-0.75 -0.167,-0.2 -0.434,-0.167 -0.8,0.1 -0.167,0.1 -0.183,0.233 -0.05,0.4 0.133,0.1 0.317,0.183 0.55,0.25 z"
   id="path79"
   inkscape:connector-curvature="0" />
		<path
   style="clip-rule:evenodd;fill:#ffd22e;fill-rule:evenodd"
   d="m 22.15,-9.8 c 0.233,0.066 0.35,-0.05 0.35,-0.35 0,-0.3 -0.167,-0.483 -0.5,-0.55 -0.3,-0.1 -0.483,-0.1 -0.55,0 -0.067,0.067 -0.1,0.217 -0.1,0.45 -0.033,0.233 0.233,0.383 0.8,0.45 z"
   id="path81"
   inkscape:connector-curvature="0" />
		<path
   style="clip-rule:evenodd;fill:#ffd22e;fill-rule:evenodd"
   d="m 24.15,-8.25 c 0.6,0 0.883,-0.1 0.85,-0.3 -0.067,-0.333 -0.367,-0.583 -0.9,-0.75 -0.3,-0.1 -0.483,-0.067 -0.55,0.1 l 0.05,0.25 0.15,0.35 c 0.133,0.233 0.267,0.35 0.4,0.35 z"
   id="path83"
   inkscape:connector-curvature="0" />
		<path
   style="clip-rule:evenodd;fill:#ffd22e;fill-rule:evenodd"
   d="m 24.35,-6.6 c 0.333,0.033 0.5,-0.066 0.5,-0.3 0,-0.234 -0.083,-0.417 -0.25,-0.55 -0.3,-0.2 -0.633,-0.183 -1,0.05 -0.133,0.066 -0.1,0.2 0.1,0.4 0.167,0.2 0.383,0.333 0.65,0.4 z"
   id="path85"
   inkscape:connector-curvature="0" />
		<path
   style="clip-rule:evenodd;fill:#ffd22e;fill-rule:evenodd"
   d="m 24.35,-3.9 c 0.133,0.033 0.25,-0.067 0.35,-0.3 0.066,-0.2 0.066,-0.367 0,-0.5 -0.133,-0.2 -0.35,-0.3 -0.65,-0.3 -0.167,0 -0.2,0.167 -0.1,0.5 0.1,0.333 0.233,0.533 0.4,0.6 z"
   id="path87"
   inkscape:connector-curvature="0" />
		<path
   style="clip-rule:evenodd;fill:#ffd22e;fill-rule:evenodd"
   d="m 25.85,-4 c 0.267,0.067 0.3,-0.167 0.1,-0.7 -0.067,-0.233 -0.184,-0.267 -0.35,-0.1 -0.1,0.066 -0.133,0.216 -0.1,0.45 0.067,0.2 0.183,0.317 0.35,0.35 z"
   id="path89"
   inkscape:connector-curvature="0" />
		<path
   style="clip-rule:evenodd;fill:#ffd22e;fill-rule:evenodd"
   d="m 24.15,-2.7 c 0.167,0.067 0.233,0.017 0.2,-0.15 0,-0.133 -0.083,-0.233 -0.25,-0.3 -0.133,-0.067 -0.2,-0.017 -0.2,0.15 0.033,0.133 0.117,0.233 0.25,0.3 z"
   id="path91"
   inkscape:connector-curvature="0" />
		<path
   style="clip-rule:evenodd;fill:#ffd22e;fill-rule:evenodd"
   d="m 27.55,-4.9 c 0.233,0.033 0.367,-0.083 0.4,-0.35 0.033,-0.267 -0.067,-0.433 -0.3,-0.5 -0.267,-0.1 -0.5,0.017 -0.7,0.35 -0.067,0.066 -0.034,0.167 0.1,0.3 0.133,0.1 0.3,0.167 0.5,0.2 z"
   id="path93"
   inkscape:connector-curvature="0" />
		<path
   style="clip-rule:evenodd;fill:#ffd22e;fill-rule:evenodd"
   d="m 26.15,-5.9 c 0.167,0.033 0.25,-0.067 0.25,-0.3 0,-0.233 -0.083,-0.383 -0.25,-0.45 -0.1,-0.067 -0.183,-0.083 -0.25,-0.05 0,0.034 -0.05,0.15 -0.15,0.35 -0.1,0.2 0.033,0.35 0.4,0.45 z"
   id="path95"
   inkscape:connector-curvature="0" />
		<path
   style="clip-rule:evenodd;fill:#ffd22e;fill-rule:evenodd"
   d="m 27.75,-6.85 c 0.3,0.033 0.417,-0.066 0.35,-0.3 -0.1,-0.233 -0.3,-0.383 -0.6,-0.45 -0.3,-0.066 -0.4,0.033 -0.3,0.3 0.1,0.267 0.283,0.417 0.55,0.45 z"
   id="path97"
   inkscape:connector-curvature="0" />
		<path
   style="clip-rule:evenodd;fill:#ffd22e;fill-rule:evenodd"
   d="m 26.8,-8.9 c 0.133,0.033 0.233,-0.067 0.3,-0.3 0.066,-0.233 0.033,-0.4 -0.1,-0.5 -0.133,-0.133 -0.383,-0.017 -0.75,0.35 -0.167,0.167 -0.183,0.267 -0.05,0.3 0,0.033 0.2,0.083 0.6,0.15 z"
   id="path99"
   inkscape:connector-curvature="0" />
		<path
   style="clip-rule:evenodd;fill:#ffd22e;fill-rule:evenodd"
   d="m 29.25,-6.95 c 0.2,0.034 0.233,-0.083 0.1,-0.35 -0.167,-0.267 -0.367,-0.4 -0.6,-0.4 -0.233,0 -0.267,0.117 -0.1,0.35 0.167,0.233 0.367,0.367 0.6,0.4 z"
   id="path101"
   inkscape:connector-curvature="0" />
		<path
   style="clip-rule:evenodd;fill:#ffd22e;fill-rule:evenodd"
   d="m 24.8,-9.9 c 0.167,0.066 0.133,-0.083 -0.1,-0.45 -0.2,-0.167 -0.45,-0.2 -0.75,-0.1 -0.2,0.067 0.083,0.25 0.85,0.55 z"
   id="path103"
   inkscape:connector-curvature="0" />
		<path
   style="clip-rule:evenodd;fill:#ffd22e;fill-rule:evenodd"
   d="m 22.05,-11.45 c 0.067,0.067 0.15,0 0.25,-0.2 0.1,-0.2 0.083,-0.317 -0.05,-0.35 -0.233,-0.1 -0.533,0 -0.9,0.3 -0.133,0.067 -0.1,0.117 0.1,0.15 z"
   id="path105"
   inkscape:connector-curvature="0" />
		<path
   style="clip-rule:evenodd;fill:#ffeca6;fill-rule:evenodd"
   d="m 19.6,-0.15 c 0.5,0.033 0.667,-0.067 0.5,-0.3 -0.167,-0.2 -0.434,-0.316 -0.8,-0.35 -0.333,-0.034 -0.433,0.066 -0.3,0.3 0.133,0.234 0.333,0.35 0.6,0.35 z"
   id="path107"
   inkscape:connector-curvature="0" />
		<path
   style="clip-rule:evenodd;fill:#ffeca6;fill-rule:evenodd"
   d="m 16.9,-1.75 c 0.4,0.167 0.533,0.1 0.4,-0.2 -0.133,-0.267 -0.35,-0.417 -0.65,-0.45 -0.267,-0.033 -0.35,0.05 -0.25,0.25 0.1,0.167 0.267,0.3 0.5,0.4 z"
   id="path109"
   inkscape:connector-curvature="0" />
		<path
   style="clip-rule:evenodd;fill:#ffeca6;fill-rule:evenodd"
   d="m 14.45,-3.45 c -0.267,-0.2 -0.4,-0.2 -0.4,0 0,0.2 0.15,0.333 0.45,0.4 0.267,0.033 0.367,0 0.3,-0.1 -0.033,-0.1 -0.15,-0.2 -0.35,-0.3 z"
   id="path111"
   inkscape:connector-curvature="0" />
		<path
   style="clip-rule:evenodd;fill:#ffeca6;fill-rule:evenodd"
   d="m 13,-4.65 c 0.233,0.033 0.317,-0.017 0.25,-0.15 -0.067,-0.1 -0.217,-0.167 -0.45,-0.2 -0.233,-0.033 -0.3,0 -0.2,0.1 0.1,0.133 0.233,0.217 0.4,0.25 z"
   id="path113"
   inkscape:connector-curvature="0" />
		<path
   style="clip-rule:evenodd;fill:#ffeca6;fill-rule:evenodd"
   d="m 12.2,-5.85 c 0.233,-0.033 0.333,-0.083 0.3,-0.15 0,-0.033 -0.083,-0.067 -0.25,-0.1 -0.167,-0.033 -0.25,0 -0.25,0.1 -0.033,0.1 0.033,0.15 0.2,0.15 z"
   id="path115"
   inkscape:connector-curvature="0" />
		<path
   style="clip-rule:evenodd;fill:#ffeca6;fill-rule:evenodd"
   d="m 11.2,-6.6 c 0.233,-0.033 0.316,-0.117 0.25,-0.25 -0.067,-0.133 -0.217,-0.2 -0.45,-0.2 -0.233,0.033 -0.3,0.117 -0.2,0.25 0.067,0.167 0.2,0.233 0.4,0.2 z"
   id="path117"
   inkscape:connector-curvature="0" />
		<path
   style="clip-rule:evenodd;fill:#ffeca6;fill-rule:evenodd"
   d="m 10.2,-7.75 c 0.2,0.033 0.4,-0.017 0.6,-0.15 0.167,-0.1 0.2,-0.183 0.1,-0.25 -0.066,-0.1 -0.2,-0.167 -0.4,-0.2 -0.267,-0.033 -0.5,-0.017 -0.7,0.05 -0.2,0.1 -0.233,0.217 -0.1,0.35 0.1,0.1 0.267,0.167 0.5,0.2 z"
   id="path119"
   inkscape:connector-curvature="0" />
		<path
   style="clip-rule:evenodd;fill:#ffeca6;fill-rule:evenodd"
   d="m 17.7,-3.4 c 0.367,-0.133 0.367,-0.317 0,-0.55 -0.4,-0.267 -0.667,-0.283 -0.8,-0.05 -0.133,0.233 -0.1,0.417 0.1,0.55 0.167,0.133 0.4,0.15 0.7,0.05 z"
   id="path121"
   inkscape:connector-curvature="0" />
		<path
   style="clip-rule:evenodd;fill:#ffeca6;fill-rule:evenodd"
   d="m 15.45,-4.4 c 0.267,0.033 0.367,-0.05 0.3,-0.25 -0.033,-0.167 -0.183,-0.283 -0.45,-0.35 -0.267,-0.067 -0.367,0 -0.3,0.2 0.067,0.233 0.217,0.367 0.45,0.4 z"
   id="path123"
   inkscape:connector-curvature="0" />
		<path
   style="clip-rule:evenodd;fill:#ffeca6;fill-rule:evenodd"
   d="m 14.25,-5.6 c 0.267,-0.4 0.233,-0.566 -0.1,-0.5 -0.2,0.033 -0.283,0.133 -0.25,0.3 0.067,0.167 0.183,0.233 0.35,0.2 z"
   id="path125"
   inkscape:connector-curvature="0" />
		<path
   style="clip-rule:evenodd;fill:#ffeca6;fill-rule:evenodd"
   d="m 13.85,-6.4 0.8,-0.7 c -0.167,-0.033 -0.433,0.017 -0.8,0.15 -0.233,0.1 -0.317,0.233 -0.25,0.4 0.067,0.2 0.15,0.25 0.25,0.15 z"
   id="path127"
   inkscape:connector-curvature="0" />
		<path
   style="clip-rule:evenodd;fill:#ffeca6;fill-rule:evenodd"
   d="m 12.95,-8.1 c 0.3,-0.133 0.4,-0.267 0.3,-0.4 -0.133,-0.167 -0.317,-0.183 -0.55,-0.05 -0.2,0.1 -0.25,0.216 -0.15,0.35 0.1,0.133 0.233,0.167 0.4,0.1 z"
   id="path129"
   inkscape:connector-curvature="0" />
		<path
   style="clip-rule:evenodd;fill:#ffeca6;fill-rule:evenodd"
   d="m 12.1,-8.95 0.5,-0.35 c -0.1,-0.167 -0.333,-0.217 -0.7,-0.15 -0.233,0.067 -0.316,0.167 -0.25,0.3 0.1,0.167 0.25,0.233 0.45,0.2 z"
   id="path131"
   inkscape:connector-curvature="0" />
		<path
   style="clip-rule:evenodd;fill:#ffeca6;fill-rule:evenodd"
   d="m 15.85,-6.5 c 0.333,-0.067 0.4,-0.2 0.2,-0.4 -0.167,-0.233 -0.367,-0.317 -0.6,-0.25 -0.2,0.066 -0.233,0.2 -0.1,0.4 0.1,0.233 0.267,0.317 0.5,0.25 z"
   id="path133"
   inkscape:connector-curvature="0" />
		<path
   style="clip-rule:evenodd;fill:#ffeca6;fill-rule:evenodd"
   d="m 17.05,-8.1 c 0.2,-0.033 0.4,0.017 0.6,0.15 0.167,-0.233 0.217,-0.417 0.15,-0.55 -0.066,-0.167 -0.367,-0.217 -0.9,-0.15 -0.2,0.033 -0.267,0.133 -0.2,0.3 0.067,0.167 0.183,0.25 0.35,0.25 z"
   id="path135"
   inkscape:connector-curvature="0" />
		<path
   style="clip-rule:evenodd;fill:#ffeca6;fill-rule:evenodd"
   d="m 19.85,-4.75 c 0.2,-0.033 0.333,-0.117 0.4,-0.25 0.033,-0.133 0,-0.233 -0.1,-0.3 -0.066,-0.067 -0.167,-0.083 -0.3,-0.05 -0.2,0.033 -0.317,0.05 -0.35,0.05 -0.167,0 -0.2,0.083 -0.1,0.25 0.1,0.2 0.25,0.3 0.45,0.3 z"
   id="path137"
   inkscape:connector-curvature="0" />
		<path
   style="clip-rule:evenodd;fill:#ffeca6;fill-rule:evenodd"
   d="m 19.8,-2.5 c 0.333,0.033 0.467,-0.1 0.4,-0.4 -0.1,-0.267 -0.284,-0.367 -0.55,-0.3 -0.267,0.034 -0.383,0.15 -0.35,0.35 0.033,0.2 0.2,0.317 0.5,0.35 z"
   id="path139"
   inkscape:connector-curvature="0" />
		<path
   style="clip-rule:evenodd;fill:#ffeca6;fill-rule:evenodd"
   d="m 21.85,-1.6 c 0.3,0.033 0.433,-0.033 0.4,-0.2 C 22.183,-2 22.017,-2.15 21.75,-2.25 21.517,-2.317 21.467,-2.233 21.6,-2 Z"
   id="path141"
   inkscape:connector-curvature="0" />
		<path
   style="clip-rule:evenodd;fill:#ffeca6;fill-rule:evenodd"
   d="m 22.25,-3.55 c 0.3,-0.034 0.367,-0.15 0.2,-0.35 -0.167,-0.2 -0.383,-0.283 -0.65,-0.25 -0.267,0.033 -0.317,0.15 -0.15,0.35 0.167,0.2 0.367,0.283 0.6,0.25 z"
   id="path143"
   inkscape:connector-curvature="0" />
		<path
   style="clip-rule:evenodd;fill:#ffeca6;fill-rule:evenodd"
   d="m 20.45,-6.85 c 0.233,0.033 0.417,-0.033 0.55,-0.2 0.1,-0.133 0.117,-0.25 0.05,-0.35 -0.2,-0.267 -0.517,-0.333 -0.95,-0.2 -0.233,0.1 -0.3,0.25 -0.2,0.45 0.1,0.167 0.283,0.267 0.55,0.3 z"
   id="path145"
   inkscape:connector-curvature="0" />
		<path
   style="clip-rule:evenodd;fill:#ffeca6;fill-rule:evenodd"
   d="m 18.3,-5.6 c 0.534,-0.1 0.684,-0.267 0.45,-0.5 -0.234,-0.233 -0.55,-0.3 -0.95,-0.2 -0.333,0.133 -0.4,0.3 -0.2,0.5 0.167,0.2 0.4,0.267 0.7,0.2 z"
   id="path147"
   inkscape:connector-curvature="0" />
		<path
   style="clip-rule:evenodd;fill:#ffeca6;fill-rule:evenodd"
   d="m 15.35,-8.3 c 0.2,-0.034 0.267,-0.133 0.2,-0.3 -0.066,-0.2 -0.233,-0.283 -0.5,-0.25 -0.267,0.033 -0.35,0.15 -0.25,0.35 0.1,0.167 0.283,0.233 0.55,0.2 z"
   id="path149"
   inkscape:connector-curvature="0" />
		<path
   style="clip-rule:evenodd;fill:#ffeca6;fill-rule:evenodd"
   d="m 14.3,-9.65 0.8,-0.45 c -0.133,-0.1 -0.4,-0.133 -0.8,-0.1 -0.233,0.034 -0.3,0.117 -0.2,0.25 0.133,0.167 0.2,0.267 0.2,0.3 z"
   id="path151"
   inkscape:connector-curvature="0" />
		<path
   style="clip-rule:evenodd;fill:#ffeca6;fill-rule:evenodd"
   d="m 16.75,-10.2 c 0.2,-0.066 0.3,-0.2 0.3,-0.4 0,-0.233 -0.133,-0.316 -0.4,-0.25 -0.267,0.067 -0.367,0.2 -0.3,0.4 0.067,0.233 0.2,0.317 0.4,0.25 z"
   id="path153"
   inkscape:connector-curvature="0" />
		<path
   style="clip-rule:evenodd;fill:#ffeca6;fill-rule:evenodd"
   d="m 17.7,-9.95 c 0.167,-0.066 0.233,-0.167 0.2,-0.3 0,-0.1 -0.083,-0.133 -0.25,-0.1 -0.167,0.033 -0.25,0.117 -0.25,0.25 0.033,0.133 0.133,0.183 0.3,0.15 z"
   id="path155"
   inkscape:connector-curvature="0" />
		<path
   style="clip-rule:evenodd;fill:#ffeca6;fill-rule:evenodd"
   d="m 19.9,-8.9 c 0.233,0.033 0.383,-0.033 0.45,-0.2 0.033,-0.167 -0.1,-0.283 -0.4,-0.35 -0.333,-0.066 -0.483,0 -0.45,0.2 0.033,0.2 0.167,0.317 0.4,0.35 z"
   id="path157"
   inkscape:connector-curvature="0" />
		<path
   style="clip-rule:evenodd;fill:#ffeca6;fill-rule:evenodd"
   d="m 19.45,-10.4 c 0.2,0.033 0.267,-0.033 0.2,-0.2 -0.066,-0.133 -0.2,-0.217 -0.4,-0.25 -0.233,0 -0.317,0.067 -0.25,0.2 0.067,0.133 0.217,0.217 0.45,0.25 z"
   id="path159"
   inkscape:connector-curvature="0" />
		<path
   style="clip-rule:evenodd;fill:#ffeca6;fill-rule:evenodd"
   d="m 22.55,-5.7 c 0.167,-0.1 0.25,-0.267 0.25,-0.5 -0.033,-0.233 -0.167,-0.333 -0.4,-0.3 -0.2,0.067 -0.25,0.217 -0.15,0.45 0.1,0.267 0.2,0.383 0.3,0.35 z"
   id="path161"
   inkscape:connector-curvature="0" />
		<path
   style="clip-rule:evenodd;fill:#ffeca6;fill-rule:evenodd"
   d="m 24.05,-6.8 c 0.3,-0.034 0.4,-0.117 0.3,-0.25 -0.1,-0.167 -0.267,-0.25 -0.5,-0.25 -0.233,-0.034 -0.3,0.05 -0.2,0.25 0.1,0.167 0.233,0.25 0.4,0.25 z"
   id="path163"
   inkscape:connector-curvature="0" />
		<path
   style="clip-rule:evenodd;fill:#ffeca6;fill-rule:evenodd"
   d="m 22,-8.25 c 0.2,0.033 0.317,-0.033 0.35,-0.2 0.033,-0.167 -0.033,-0.25 -0.2,-0.25 -0.167,-0.033 -0.267,0.034 -0.3,0.2 -0.033,0.133 0.017,0.217 0.15,0.25 z"
   id="path165"
   inkscape:connector-curvature="0" />
		<path
   style="clip-rule:evenodd;fill:#ffeca6;fill-rule:evenodd"
   d="m 21.75,-9.95 c 0.267,0 0.333,-0.066 0.2,-0.2 -0.1,-0.1 -0.25,-0.15 -0.45,-0.15 -0.2,0.033 -0.25,0.1 -0.15,0.2 0.1,0.1 0.233,0.15 0.4,0.15 z"
   id="path167"
   inkscape:connector-curvature="0" />
		<path
   style="clip-rule:evenodd;fill:#ffeca6;fill-rule:evenodd"
   d="m 23.8,-8.55 c 0.267,-0.2 0.267,-0.383 0,-0.55 -0.167,-0.133 -0.233,-0.1 -0.2,0.1 0,0.167 0.067,0.317 0.2,0.45 z"
   id="path169"
   inkscape:connector-curvature="0" />
		<path
   style="clip-rule:evenodd;fill:#ffeca6;fill-rule:evenodd"
   d="m 21.8,-11.55 c 0.167,0 0.217,-0.034 0.15,-0.1 -0.034,-0.067 -0.133,-0.1 -0.3,-0.1 -0.133,0 -0.167,0.033 -0.1,0.1 0.033,0.067 0.117,0.1 0.25,0.1 z"
   id="path171"
   inkscape:connector-curvature="0" />
		<path
   style="clip-rule:evenodd;fill:#ffeca6;fill-rule:evenodd"
   d="m 26.5,-9.15 c 0.533,-0.367 0.483,-0.5 -0.15,-0.4 -0.133,0.033 -0.167,0.133 -0.1,0.3 0.033,0.167 0.117,0.2 0.25,0.1 z"
   id="path173"
   inkscape:connector-curvature="0" />
		<path
   style="clip-rule:evenodd;fill:#ffeca6;fill-rule:evenodd"
   d="m 24.15,-4.15 c 0.133,0.033 0.233,-0.017 0.3,-0.15 0.066,-0.133 0,-0.25 -0.2,-0.35 -0.2,-0.133 -0.283,-0.1 -0.25,0.1 0,0.233 0.05,0.367 0.15,0.4 z"
   id="path175"
   inkscape:connector-curvature="0" />
		<path
   style="clip-rule:evenodd;fill:#deae00;fill-rule:evenodd"
   d="m 31.1,-8 c 0.167,-0.067 0.3,-0.183 0.4,-0.35 0.1,-0.133 0.117,-0.25 0.05,-0.35 -0.566,-0.7 -1.167,-1 -1.8,-0.9 -0.567,0.1 -0.967,0.3 -1.2,0.6 -0.2,0.3 -0.216,0.6 -0.05,0.9 0.133,0.233 0.6,0.317 1.4,0.25 0.433,-0.033 0.833,-0.083 1.2,-0.15 z"
   id="path177"
   inkscape:connector-curvature="0" />
		<path
   style="clip-rule:evenodd;fill:#ffd22e;fill-rule:evenodd"
   d="m 28.6,-8.3 -0.1,0.05 c 0,0.2 0.133,0.333 0.4,0.4 0.333,0.1 0.983,0.083 1.95,-0.05 L 31.1,-8 c 0.167,-0.067 0.15,-0.2 -0.05,-0.4 -0.2,-0.333 -0.617,-0.517 -1.25,-0.55 -0.3,-0.033 -0.566,0.034 -0.8,0.2 -0.2,0.133 -0.333,0.283 -0.4,0.45 z"
   id="path179"
   inkscape:connector-curvature="0" />
		<path
   style="clip-rule:evenodd;fill:#ffeca6;fill-rule:evenodd"
   d="m 29.55,-7.85 c 0.267,-0.033 0.483,-0.1 0.65,-0.2 0.2,-0.067 0.216,-0.117 0.05,-0.15 -0.533,-0.1 -0.95,-0.1 -1.25,0 -0.2,0.067 -0.233,0.15 -0.1,0.25 0.1,0.1 0.317,0.133 0.65,0.1 z"
   id="path181"
   inkscape:connector-curvature="0" />
		<path
   style="clip-rule:evenodd;fill:#deae00;fill-rule:evenodd"
   d="m 20.1,-12.05 c 0.2,-0.067 0.367,-0.2 0.5,-0.4 0.1,-0.167 0.117,-0.316 0.05,-0.45 -0.133,-0.233 -0.367,-0.467 -0.7,-0.7 -0.467,-0.3 -0.9,-0.417 -1.3,-0.35 -0.633,0.1 -1.083,0.317 -1.35,0.65 -0.233,0.3 -0.267,0.633 -0.1,1 0.133,0.3 0.667,0.433 1.6,0.4 0.433,-0.033 0.867,-0.083 1.3,-0.15 z"
   id="path183"
   inkscape:connector-curvature="0" />
		<path
   style="clip-rule:evenodd;fill:#ffd22e;fill-rule:evenodd"
   d="m 17.2,-12.25 c 0.066,0.1 0.216,0.2 0.45,0.3 0.367,0.133 1.1,0.133 2.2,0 l 0.25,-0.1 c 0.167,-0.1 0.167,-0.267 0,-0.5 -0.4,-0.4 -0.867,-0.633 -1.4,-0.7 -0.3,-0.033 -0.6,0.033 -0.9,0.2 -0.267,0.167 -0.433,0.35 -0.5,0.55 l -0.1,0.05 c 0,0.067 0,0.133 0,0.2 z"
   id="path185"
   inkscape:connector-curvature="0" />
		<path
   style="clip-rule:evenodd;fill:#ffeca6;fill-rule:evenodd"
   d="m 18.35,-11.95 c 0.3,-0.033 0.566,-0.1 0.8,-0.2 0.233,-0.067 0.25,-0.117 0.05,-0.15 -0.6,-0.167 -1.083,-0.184 -1.45,-0.05 -0.2,0.067 -0.25,0.15 -0.15,0.25 0.133,0.1 0.383,0.15 0.75,0.15 z"
   id="path187"
   inkscape:connector-curvature="0" />
		<g
   id="g197">
			<path
   style="clip-rule:evenodd;fill:#c9c9c9;fill-rule:evenodd"
   d="M 5.35,-9.45 6.05,-9 C 6.583,-8.733 7.1,-8.633 7.6,-8.7 8.166,-8.766 8.416,-8.983 8.35,-9.35 8.283,-9.717 7.933,-9.967 7.3,-10.1 6.467,-10.267 5.817,-10.05 5.35,-9.45 Z"
   id="path189"
   inkscape:connector-curvature="0" />
			<path
   style="clip-rule:evenodd;fill:#deae00;fill-rule:evenodd"
   d="M 7.35,-8.3 C 7.783,-8.433 7.916,-8.65 7.75,-8.95 7.65,-9.15 7.483,-9.333 7.25,-9.5 6.95,-9.8 6.633,-9.933 6.3,-9.9 c -0.467,0.033 -0.817,0.183 -1.05,0.45 -0.2,0.233 -0.233,0.5 -0.1,0.8 0.1,0.233 0.5,0.367 1.2,0.4 0.333,0 0.667,-0.017 1,-0.05 z"
   id="path191"
   inkscape:connector-curvature="0" />
			<path
   style="clip-rule:evenodd;fill:#ffd22e;fill-rule:evenodd"
   d="m 5.25,-8.75 h -0.1 c 0,0.033 0,0.083 0,0.15 0.033,0.1 0.133,0.184 0.3,0.25 0.3,0.133 0.85,0.167 1.65,0.1 L 7.35,-8.3 c 0.133,-0.067 0.133,-0.184 0,-0.35 -0.167,-0.333 -0.5,-0.55 -1,-0.65 -0.233,-0.034 -0.467,0.017 -0.7,0.15 -0.2,0.1 -0.333,0.233 -0.4,0.4 z"
   id="path193"
   inkscape:connector-curvature="0" />
			<path
   style="clip-rule:evenodd;fill:#ffeca6;fill-rule:evenodd"
   d="m 6,-8.3 c 0.233,0 0.433,-0.034 0.6,-0.1 0.167,-0.067 0.183,-0.117 0.05,-0.15 -0.433,-0.167 -0.8,-0.2 -1.1,-0.1 -0.167,0.066 -0.2,0.133 -0.1,0.2 0.1,0.067 0.283,0.117 0.55,0.15 z"
   id="path195"
   inkscape:connector-curvature="0" />
		</g>
	</g>
</symbol>
<use
   xlink:href="#corn"
   width="39.655998"
   height="15.964"
   x="-0.0040000002"
   y="-15.956"
   transform="matrix(6.4554537,0,0,-6.4554537,127.81669,1546.7119)"
   style="overflow:visible"
   id="use201" />














</svg>