<?xml version="1.0" encoding="UTF-8" standalone="no"?>
<!-- Generator: Adobe Illustrator 15.1.0, SVG Export Plug-In . SVG Version: 6.00 Build 0)  -->

<svg
   xmlns:dc="http://purl.org/dc/elements/1.1/"
   xmlns:cc="http://creativecommons.org/ns#"
   xmlns:rdf="http://www.w3.org/1999/02/22-rdf-syntax-ns#"
   xmlns:svg="http://www.w3.org/2000/svg"
   xmlns="http://www.w3.org/2000/svg"
   xmlns:xlink="http://www.w3.org/1999/xlink"
   xmlns:sodipodi="http://sodipodi.sourceforge.net/DTD/sodipodi-0.dtd"
   xmlns:inkscape="http://www.inkscape.org/namespaces/inkscape"
   version="1.1"
   id="flash0.ai"
   x="0px"
   y="0px"
   width="256"
   height="256"
   viewBox="0 0 256 255.99999"
   xml:space="preserve"
   sodipodi:docname="fried_rice.svg"
   inkscape:version="0.92.4 (5da689c313, 2019-01-14)"
   inkscape:export-xdpi="10.5"
   inkscape:export-ydpi="10.5"><title
   id="title1520">Fried Rice</title><metadata
   id="metadata713"><rdf:RDF><cc:Work
       rdf:about=""><dc:format>image/svg+xml</dc:format><dc:type
         rdf:resource="http://purl.org/dc/dcmitype/StillImage" /><dc:title>Fried Rice</dc:title><cc:license
         rdf:resource="http://creativecommons.org/publicdomain/zero/1.0/" /><dc:creator><cc:Agent><dc:title>Glitch</dc:title></cc:Agent></dc:creator><dc:source>https://opengameart.org/node/20149</dc:source></cc:Work><cc:License
       rdf:about="http://creativecommons.org/publicdomain/zero/1.0/"><cc:permits
         rdf:resource="http://creativecommons.org/ns#Reproduction" /><cc:permits
         rdf:resource="http://creativecommons.org/ns#Distribution" /><cc:permits
         rdf:resource="http://creativecommons.org/ns#DerivativeWorks" /></cc:License></rdf:RDF></metadata><defs
   id="defs711"><linearGradient
     inkscape:collect="always"
     xlink:href="#SVGID_1_"
     id="linearGradient1694"
     gradientUnits="userSpaceOnUse"
     gradientTransform="matrix(1,-0.0028,0.0028,1,22.6909,22.6909)"
     x1="-18.612301"
     y1="-28.419901"
     x2="-0.61220002"
     y2="-28.419901" /></defs><sodipodi:namedview
   pagecolor="#ffffff"
   bordercolor="#666666"
   borderopacity="1"
   objecttolerance="10"
   gridtolerance="10"
   guidetolerance="10"
   inkscape:pageopacity="0"
   inkscape:pageshadow="2"
   inkscape:window-width="1920"
   inkscape:window-height="1025"
   id="namedview709"
   showgrid="false"
   inkscape:zoom="0.91791638"
   inkscape:cx="120.35274"
   inkscape:cy="-23.758391"
   inkscape:window-x="-8"
   inkscape:window-y="-8"
   inkscape:window-maximized="1"
   inkscape:current-layer="flash0.ai"
   fit-margin-top="0"
   fit-margin-left="0"
   fit-margin-right="0"
   fit-margin-bottom="0" />
<symbol
   id="flash0.ai_x5F_7_x2F_Layer_4_copy_x2F__x3C_Path_x3E__x5F_147"
   viewBox="0 -11.4 27.85 11.4"
   transform="translate(-3.5489998,210.563)">
	<g
   id="Layer_1_2_">
		
			<linearGradient
   id="SVGID_1_"
   gradientUnits="userSpaceOnUse"
   x1="-18.612301"
   y1="-28.419901"
   x2="-0.61220002"
   y2="-28.419901"
   gradientTransform="matrix(1,-0.0028,0.0028,1,22.6909,22.6909)">
			<stop
   offset="0"
   style="stop-color:#FFFFFF"
   id="stop2" />
			<stop
   offset="1"
   style="stop-color:#000000"
   id="stop4" />
		</linearGradient>
		<path
   style="clip-rule:evenodd;fill:url(#linearGradient1694);fill-rule:evenodd"
   d="m 27.85,-1.55 -3.7,-9.85 -5.85,0.05 c -1.233,0.167 -2.65,0.483 -4.25,0.95 -1.633,0.467 -3.017,0.983 -4.15,1.55 C 6.367,-7.05 3.65,-5.033 1.75,-2.8 0.817,-1.7 0.233,-0.767 0,0 L 3.05,-0.5 C 8.317,-1.267 14.533,-1.65 21.7,-1.65 Z"
   id="path7"
   inkscape:connector-curvature="0" />
	</g>
</symbol>

<g
   id="g636"
   transform="matrix(6.4829822,0,0,6.4829822,-23.008104,-104.71086)">
		<path
   inkscape:connector-curvature="0"
   id="path331"
   d="m 35.688,37.45 c 3.5,-0.425 5.875,-0.963 7.125,-1.612 L 43,35.8 c -1.1,2.801 -3.463,5.101 -7.088,6.9 -3.675,1.825 -7.875,2.737 -12.6,2.737 -4.775,0 -9.013,-0.925 -12.713,-2.775 -3.65,-1.824 -6,-4.149 -7.05,-6.975 l 0.338,0.037 c 1.125,0.676 3.487,1.238 7.087,1.688 3.65,0.45 7.813,0.676 12.487,0.676 4.526,0 8.602,-0.213 12.227,-0.638 z"
   style="clip-rule:evenodd;fill:#d7eaf2;fill-rule:evenodd" />
		<path
   inkscape:connector-curvature="0"
   id="path333"
   d="m 35.237,37.45 c 2.726,-0.3 4.737,-0.65 6.037,-1.05 -0.249,0.649 -0.662,1.313 -1.237,1.987 -1.05,1.35 -2.7,2.712 -4.95,4.087 -1.85,1.101 -4.037,1.95 -6.563,2.551 l -1.987,0.262 c 3.45,-1.024 5.875,-2.438 7.275,-4.237 0.675,-0.825 1.1,-1.6 1.274,-2.325 0.076,-0.65 0.127,-1.075 0.151,-1.275 z"
   style="clip-rule:evenodd;fill:#bdd4de;fill-rule:evenodd" />
		
			<use
   x="0"
   id="use335"
   style="overflow:visible;opacity:0.44140003;enable-background:new"
   transform="matrix(0.75,0,0,-0.75,9.8619499,194.77185)"
   y="-11.4"
   height="11.4"
   width="27.85"
   xlink:href="#flash0.ai_x5F_7_x2F_Layer_4_copy_x2F__x3C_Path_x3E__x5F_147" />
		<path
   inkscape:connector-curvature="0"
   id="path337"
   d="M 14.537,44.2 C 11.787,43.375 9.45,42.224 7.524,40.75 5.575,39.25 4.249,37.562 3.549,35.687 l 0.338,0.037 0.637,0.338 c 0.625,1.226 1.375,2.325 2.25,3.3 2.026,2.201 4.614,3.813 7.763,4.838 z"
   style="clip-rule:evenodd;fill:#bdd4de;fill-rule:evenodd" />
		
			<linearGradient
   gradientTransform="matrix(0.75,0,0,0.75,3.5498,26.3496)"
   y2="11.4756"
   x2="51.900398"
   y1="11.4756"
   x1="1.2998"
   gradientUnits="userSpaceOnUse"
   id="SVGID_5_">
			<stop
   id="stop339"
   style="stop-color:#9CADB5"
   offset="0" />
			<stop
   id="stop341"
   style="stop-color:#E0E0E0"
   offset="1" />
		</linearGradient>
		<path
   inkscape:connector-curvature="0"
   id="path344"
   d="m 42.475,34.938 c 0,1.85 -1.85,3.425 -5.55,4.725 -3.726,1.301 -8.2,1.95 -13.425,1.95 -5.25,0 -9.725,-0.649 -13.425,-1.95 -3.7,-1.3 -5.551,-2.875 -5.551,-4.725 0,-1.825 1.851,-3.388 5.551,-4.688 3.7,-1.3 8.175,-1.95 13.425,-1.95 5.225,0 9.699,0.65 13.425,1.95 3.7,1.3 5.55,2.862 5.55,4.688 z"
   style="clip-rule:evenodd;fill:url(#SVGID_5_);fill-rule:evenodd" />
		<path
   inkscape:connector-curvature="0"
   id="path346"
   d="m 36.662,30.025 c 3.75,1.199 5.851,2.688 6.3,4.462 h -1.274 c -0.25,-1.625 -2.138,-3 -5.663,-4.125 -3.524,-1.125 -7.737,-1.688 -12.637,-1.688 -4.875,0 -9.088,0.563 -12.638,1.688 -3.5,1.125 -5.388,2.5 -5.663,4.125 H 3.662 c 0.425,-1.774 2.525,-3.263 6.3,-4.462 3.775,-1.226 8.226,-1.838 13.351,-1.838 5.125,0 9.574,0.613 13.349,1.838 z"
   style="clip-rule:evenodd;fill:#ffffff;fill-rule:evenodd" />
		<path
   inkscape:connector-curvature="0"
   id="path348"
   d="m 35.013,29.838 c 0.524,-0.351 0.962,-0.425 1.313,-0.226 0.6,0.3 0.687,0.95 0.262,1.95 l 0.676,-0.075 c 0.499,0 0.874,0.112 1.125,0.338 l 0.637,0.563 0.563,-0.263 c 0.425,-0.1 0.775,-0.037 1.051,0.188 0.449,0.375 0.325,0.9 -0.375,1.575 l 0.524,0.149 c 0.375,0.15 0.613,0.375 0.713,0.676 0.149,0.5 0.012,0.925 -0.413,1.274 h 0.15 c 0.101,0.025 0.138,0.163 0.112,0.413 0,0.399 -1.112,1.313 -3.337,2.737 l -10.163,2.1 -9.899,0.075 -7.763,-1.575 -3.3,-1.612 C 6.639,37.9 6.476,37.7 6.401,37.525 6.3,37.3 6.262,36.975 6.287,36.55 6.312,36.125 6.399,35.825 6.55,35.651 6.675,35.501 6.875,35.414 7.15,35.388 L 7.638,35.313 C 7.463,34.963 7.325,34.588 7.225,34.188 7.025,33.388 7.1,32.875 7.451,32.651 8.026,32.3 8.638,32.376 9.288,32.876 c 0.125,-0.8 0.513,-1.362 1.163,-1.688 l 1.237,-0.563 c 0,-0.125 0.012,-0.274 0.037,-0.45 0.075,-0.35 0.212,-0.612 0.413,-0.787 0.549,-0.476 1.149,-0.413 1.8,0.188 l 0.6,0.563 0.338,-0.375 c 0.275,-0.25 0.55,-0.413 0.825,-0.487 l 0.712,-0.15 c 0,-0.175 0.025,-0.375 0.075,-0.6 0.075,-0.4 0.225,-0.638 0.45,-0.713 0.25,-0.1 0.575,-0.075 0.975,0.075 0.375,0.149 0.625,0.337 0.75,0.563 l 0.3,0.412 0.525,-0.6 c 0.4,-0.425 0.787,-0.713 1.162,-0.862 1.55,-0.601 2.425,-0.65 2.625,-0.15 0.15,0.45 0.163,0.763 0.038,0.938 L 23.8,28 c 0.375,-0.1 0.7,-0.138 0.975,-0.112 l 0.976,0.037 c -0.1,-0.175 -0.162,-0.375 -0.188,-0.6 -0.1,-0.425 -0.025,-0.713 0.225,-0.862 0.275,-0.176 0.688,-0.138 1.237,0.112 0.501,0.2 0.913,0.45 1.238,0.75 0.375,0.325 0.687,0.638 0.938,0.938 l 0.862,-0.3 c 0.675,-0.125 1.25,-0.075 1.725,0.149 0.475,0.226 0.675,0.476 0.601,0.75 -0.025,0.15 -0.101,0.263 -0.226,0.338 l 0.413,0.037 c 0.325,0.101 0.662,0.288 1.012,0.563 l 0.788,0.638 z"
   style="clip-rule:evenodd;fill:#9c6a1e;fill-rule:evenodd" />
		<path
   inkscape:connector-curvature="0"
   id="path350"
   d="m 11.5,30.888 c 0.825,-0.275 1.2,-0.2 1.125,0.225 -0.075,0.4 -0.313,0.713 -0.713,0.938 -0.425,0.226 -0.862,0.375 -1.313,0.45 -0.55,0.101 -0.762,0 -0.638,-0.3 0.202,-0.601 0.714,-1.039 1.539,-1.313 z"
   style="clip-rule:evenodd;fill:#e3ad5b;fill-rule:evenodd" />
		<path
   inkscape:connector-curvature="0"
   id="path352"
   d="M 10.075,33.588 C 12.15,33.287 13.137,33.325 13.037,33.7 12.962,33.95 12.6,34.237 11.95,34.562 11.2,34.912 10.5,35.049 9.849,34.974 9.2,34.9 8.975,34.65 9.175,34.225 c 0.2,-0.375 0.5,-0.587 0.9,-0.637 z"
   style="clip-rule:evenodd;fill:#e3ad5b;fill-rule:evenodd" />
		<path
   inkscape:connector-curvature="0"
   id="path354"
   d="m 13.975,31.188 c 0.375,-0.15 0.8,-0.162 1.275,-0.037 0.475,0.1 0.55,0.274 0.225,0.524 -0.425,0.325 -1.05,0.663 -1.875,1.013 -0.95,0.4 -1.562,0.513 -1.837,0.338 -0.25,-0.176 -0.1,-0.476 0.449,-0.9 0.525,-0.401 1.113,-0.714 1.763,-0.938 z"
   style="clip-rule:evenodd;fill:#e3ad5b;fill-rule:evenodd" />
		<path
   inkscape:connector-curvature="0"
   id="path356"
   d="m 12.888,29.388 c 0.65,-0.05 1.199,0.3 1.649,1.05 0.125,0.25 0.025,0.412 -0.3,0.487 -0.35,0.075 -0.713,0.038 -1.088,-0.112 -0.35,-0.15 -0.563,-0.412 -0.637,-0.787 -0.05,-0.376 0.075,-0.588 0.376,-0.638 z"
   style="clip-rule:evenodd;fill:#e3ad5b;fill-rule:evenodd" />
		<path
   inkscape:connector-curvature="0"
   id="path358"
   d="m 8.95,33.175 c 0.2,0.75 -0.038,1.65 -0.713,2.7 -0.65,1.025 -1.112,1.413 -1.388,1.162 -0.2,-0.199 -0.225,-0.625 -0.075,-1.274 0.125,-0.601 0.375,-1.263 0.75,-1.987 0.325,-0.65 0.625,-1.013 0.9,-1.088 0.276,-0.05 0.451,0.112 0.526,0.487 z"
   style="clip-rule:evenodd;fill:#e3ad5b;fill-rule:evenodd" />
		<path
   inkscape:connector-curvature="0"
   id="path360"
   d="m 11.274,35.313 c 1.875,-0.15 2,0.162 0.375,0.938 -1.75,0.851 -2.725,1.05 -2.925,0.6 -0.149,-0.35 0.1,-0.699 0.75,-1.05 0.576,-0.276 1.176,-0.439 1.8,-0.488 z"
   style="clip-rule:evenodd;fill:#e3ad5b;fill-rule:evenodd" />
		<path
   inkscape:connector-curvature="0"
   id="path362"
   d="m 10.787,38.35 c 0.875,0.676 0.55,0.9 -0.975,0.676 C 8.287,38.826 7.424,38.451 7.224,37.901 7,37.375 7.375,37.188 8.35,37.338 c 0.925,0.149 1.737,0.487 2.437,1.012 z"
   style="clip-rule:evenodd;fill:#e3ad5b;fill-rule:evenodd" />
		<path
   inkscape:connector-curvature="0"
   id="path364"
   d="m 16.225,35.95 c 0.55,0.149 0.288,0.475 -0.787,0.975 -1.075,0.5 -1.875,0.588 -2.4,0.263 -0.575,-0.35 -0.412,-0.7 0.487,-1.05 0.925,-0.35 1.825,-0.413 2.7,-0.188 z"
   style="clip-rule:evenodd;fill:#e3ad5b;fill-rule:evenodd" />
		<path
   inkscape:connector-curvature="0"
   id="path366"
   d="m 16.149,38.65 c 0.375,0.25 0.775,0.712 1.2,1.387 0.425,0.7 0.513,1.125 0.263,1.275 -0.275,0.175 -0.837,-0.037 -1.688,-0.638 -0.875,-0.6 -1.4,-1.175 -1.575,-1.725 -0.175,-0.55 -0.075,-0.851 0.3,-0.9 0.375,-0.074 0.876,0.126 1.5,0.601 z"
   style="clip-rule:evenodd;fill:#e3ad5b;fill-rule:evenodd" />
		<path
   inkscape:connector-curvature="0"
   id="path368"
   d="m 11.725,40.112 c 0.7,-0.35 1.213,-0.55 1.538,-0.6 0.449,-0.05 0.725,0.138 0.824,0.563 0.075,0.375 -0.012,0.537 -0.262,0.487 -0.351,-0.125 -0.613,-0.2 -0.788,-0.225 z"
   style="clip-rule:evenodd;fill:#e3ad5b;fill-rule:evenodd" />
		<path
   inkscape:connector-curvature="0"
   id="path370"
   d="m 18.7,35.2 c 1.299,-0.65 1.412,-0.338 0.337,0.938 -1.075,1.3 -1.862,1.813 -2.362,1.537 -0.45,-0.25 -0.412,-0.638 0.112,-1.162 0.425,-0.45 1.063,-0.888 1.913,-1.313 z"
   style="clip-rule:evenodd;fill:#e3ad5b;fill-rule:evenodd" />
		<path
   inkscape:connector-curvature="0"
   id="path372"
   d="m 16.037,33.7 c 2,-0.3 2.476,-0.088 1.425,0.638 -1.125,0.824 -1.975,1.075 -2.55,0.75 -0.475,-0.25 -0.55,-0.525 -0.225,-0.825 0.275,-0.276 0.726,-0.463 1.35,-0.563 z"
   style="clip-rule:evenodd;fill:#e3ad5b;fill-rule:evenodd" />
		<path
   inkscape:connector-curvature="0"
   id="path374"
   d="m 18.362,34.15 c 0.925,0 0.988,0.212 0.188,0.637 -0.9,0.476 -1.425,0.638 -1.575,0.488 -0.149,-0.125 -0.05,-0.338 0.3,-0.638 0.374,-0.324 0.737,-0.487 1.087,-0.487 z"
   style="clip-rule:evenodd;fill:#e3ad5b;fill-rule:evenodd" />
		<path
   inkscape:connector-curvature="0"
   id="path376"
   d="m 17.649,31.938 c 0.85,0.101 1.525,0.3 2.025,0.6 0.5,0.301 0.613,0.575 0.338,0.825 -0.25,0.2 -0.913,0.163 -1.988,-0.112 -1.05,-0.25 -1.7,-0.513 -1.949,-0.787 -0.201,-0.25 -0.113,-0.425 0.262,-0.525 0.325,-0.077 0.763,-0.077 1.312,-0.001 z"
   style="clip-rule:evenodd;fill:#e3ad5b;fill-rule:evenodd" />
		<path
   inkscape:connector-curvature="0"
   id="path378"
   d="m 14.575,33.063 c 0.125,-0.3 0.337,-0.475 0.637,-0.525 0.275,-0.024 0.4,0.125 0.375,0.45 -0.05,0.4 -0.237,0.663 -0.563,0.788 -0.349,0.124 -0.499,-0.114 -0.449,-0.713 z"
   style="clip-rule:evenodd;fill:#e3ad5b;fill-rule:evenodd" />
		<path
   inkscape:connector-curvature="0"
   id="path380"
   d="m 16.263,29.313 c 1.025,-0.15 1.137,0.025 0.337,0.525 -0.825,0.574 -1.35,0.75 -1.575,0.524 -0.174,-0.175 -0.1,-0.387 0.226,-0.638 0.274,-0.224 0.611,-0.362 1.012,-0.411 z"
   style="clip-rule:evenodd;fill:#e3ad5b;fill-rule:evenodd" />
		<path
   inkscape:connector-curvature="0"
   id="path382"
   d="m 17.987,30.438 c 0.925,0.25 1.4,0.463 1.425,0.638 0.025,0.1 -0.163,0.25 -0.563,0.45 -0.3,0.125 -0.75,0.112 -1.35,-0.038 -0.625,-0.125 -1.013,-0.3 -1.163,-0.524 -0.125,-0.226 -0.012,-0.4 0.338,-0.525 0.376,-0.101 0.813,-0.101 1.313,-0.001 z"
   style="clip-rule:evenodd;fill:#e3ad5b;fill-rule:evenodd" />
		<path
   inkscape:connector-curvature="0"
   id="path384"
   d="m 17.912,29.125 c -0.4,-0.875 -0.062,-0.85 1.013,0.075 1.075,0.95 1.35,1.438 0.825,1.462 -0.7,0.075 -1.312,-0.437 -1.838,-1.537 z"
   style="clip-rule:evenodd;fill:#e3ad5b;fill-rule:evenodd" />
		<path
   inkscape:connector-curvature="0"
   id="path386"
   d="m 21.399,30.55 c 0.451,1.05 0.351,1.913 -0.299,2.588 -0.25,0.274 -0.475,0.237 -0.675,-0.112 -0.175,-0.325 -0.263,-0.75 -0.263,-1.275 0,-0.5 0.15,-0.938 0.45,-1.313 0.326,-0.375 0.588,-0.338 0.787,0.112 z"
   style="clip-rule:evenodd;fill:#e3ad5b;fill-rule:evenodd" />
		<path
   inkscape:connector-curvature="0"
   id="path388"
   d="m 21.475,33.888 c 1.875,0.55 2.275,1.013 1.2,1.388 -1.2,0.425 -2.038,0.375 -2.513,-0.15 -0.4,-0.425 -0.437,-0.775 -0.112,-1.05 0.325,-0.301 0.8,-0.363 1.425,-0.188 z"
   style="clip-rule:evenodd;fill:#e3ad5b;fill-rule:evenodd" />
		<path
   inkscape:connector-curvature="0"
   id="path390"
   d="m 20.95,35.987 c 1.35,0.125 1.774,0.45 1.275,0.976 -0.5,0.524 -1.225,0.625 -2.175,0.3 -0.825,-0.275 -1.013,-0.575 -0.563,-0.9 0.426,-0.3 0.913,-0.425 1.463,-0.376 z"
   style="clip-rule:evenodd;fill:#e3ad5b;fill-rule:evenodd" />
		<path
   inkscape:connector-curvature="0"
   id="path392"
   d="m 23.537,37.15 c 0.875,0.175 0.875,0.662 0,1.462 -0.875,0.8 -1.563,1.025 -2.062,0.675 -0.425,-0.3 -0.288,-0.762 0.413,-1.387 0.674,-0.6 1.224,-0.85 1.649,-0.75 z"
   style="clip-rule:evenodd;fill:#e3ad5b;fill-rule:evenodd" />
		<path
   inkscape:connector-curvature="0"
   id="path394"
   d="m 26.35,38.912 c 0.725,0.025 0.763,0.275 0.112,0.75 -0.6,0.476 -1.287,0.575 -2.063,0.301 -0.8,-0.301 -0.925,-0.563 -0.375,-0.788 0.501,-0.225 1.276,-0.313 2.326,-0.263 z"
   style="clip-rule:evenodd;fill:#e3ad5b;fill-rule:evenodd" />
		<path
   inkscape:connector-curvature="0"
   id="path396"
   d="m 20.913,41.125 c 0.4,-0.475 0.762,-0.825 1.087,-1.05 0.525,-0.325 0.863,-0.25 1.013,0.225 0.224,0.725 -0.476,1 -2.1,0.825 z"
   style="clip-rule:evenodd;fill:#e3ad5b;fill-rule:evenodd" />
		<path
   inkscape:connector-curvature="0"
   id="path398"
   d="m 24.774,30.813 c 1.55,-0.15 1.875,0.188 0.976,1.013 -0.9,0.825 -1.825,1.225 -2.775,1.2 -0.826,-0.025 -0.963,-0.375 -0.413,-1.051 0.55,-0.675 1.288,-1.062 2.212,-1.162 z"
   style="clip-rule:evenodd;fill:#e3ad5b;fill-rule:evenodd" />
		<path
   inkscape:connector-curvature="0"
   id="path400"
   d="m 22.6,29.838 c 0.575,-0.601 0.912,-0.612 1.012,-0.038 0.101,0.551 -0.175,0.938 -0.825,1.163 -0.575,0.175 -0.838,0.112 -0.788,-0.188 0.051,-0.25 0.251,-0.562 0.601,-0.937 z"
   style="clip-rule:evenodd;fill:#e3ad5b;fill-rule:evenodd" />
		<path
   inkscape:connector-curvature="0"
   id="path402"
   d="m 25.3,28.188 c 0.625,0.075 0.55,0.313 -0.225,0.713 -0.725,0.399 -1.35,0.449 -1.875,0.149 -0.5,-0.3 -0.425,-0.537 0.225,-0.712 0.599,-0.176 1.225,-0.226 1.875,-0.15 z"
   style="clip-rule:evenodd;fill:#e3ad5b;fill-rule:evenodd" />
		<path
   inkscape:connector-curvature="0"
   id="path404"
   d="m 22.712,27.325 c 0.275,0.149 -0.074,0.412 -1.049,0.787 -0.95,0.351 -1.563,0.45 -1.837,0.3 C 19.5,28.237 19.8,27.95 20.725,27.55 c 0.9,-0.4 1.562,-0.475 1.987,-0.225 z"
   style="clip-rule:evenodd;fill:#e3ad5b;fill-rule:evenodd" />
		<path
   inkscape:connector-curvature="0"
   id="path406"
   d="m 26.987,26.763 c 0.399,0.2 0.649,0.462 0.75,0.787 0.101,0.325 -0.037,0.538 -0.412,0.638 -0.35,0.075 -0.676,0.012 -0.975,-0.188 -0.225,-0.175 -0.4,-0.4 -0.524,-0.675 -0.101,-0.25 -0.05,-0.45 0.149,-0.601 0.25,-0.174 0.588,-0.161 1.012,0.039 z"
   style="clip-rule:evenodd;fill:#e3ad5b;fill-rule:evenodd" />
		<path
   inkscape:connector-curvature="0"
   id="path408"
   d="m 26.649,28.862 c 0.976,0.075 1.051,0.313 0.226,0.713 -0.825,0.4 -1.488,0.487 -1.987,0.263 -0.4,-0.226 -0.313,-0.463 0.262,-0.713 0.549,-0.225 1.05,-0.312 1.499,-0.263 z"
   style="clip-rule:evenodd;fill:#e3ad5b;fill-rule:evenodd" />
		<path
   inkscape:connector-curvature="0"
   id="path410"
   d="m 28.3,30.588 c 0.399,0.149 0.649,0.449 0.75,0.899 0.101,0.375 0.05,0.663 -0.15,0.862 -0.375,0.325 -0.912,0.025 -1.612,-0.899 -0.3,-0.425 -0.337,-0.737 -0.112,-0.938 0.249,-0.174 0.624,-0.15 1.124,0.076 z"
   style="clip-rule:evenodd;fill:#e3ad5b;fill-rule:evenodd" />
		<path
   inkscape:connector-curvature="0"
   id="path412"
   d="m 29.05,28.713 c 0.825,-0.025 1.013,0.199 0.563,0.675 C 29.137,29.838 28.6,30 28,29.875 c -0.551,-0.1 -0.638,-0.313 -0.263,-0.638 0.351,-0.274 0.787,-0.45 1.313,-0.524 z"
   style="clip-rule:evenodd;fill:#e3ad5b;fill-rule:evenodd" />
		<path
   inkscape:connector-curvature="0"
   id="path414"
   d="m 31.938,30.588 c 1.35,0.425 1.512,0.675 0.487,0.75 -1.125,0.074 -1.825,-0.063 -2.1,-0.413 -0.251,-0.3 -0.188,-0.487 0.188,-0.563 0.349,-0.049 0.824,0.026 1.425,0.226 z"
   style="clip-rule:evenodd;fill:#e3ad5b;fill-rule:evenodd" />
		<path
   inkscape:connector-curvature="0"
   id="path416"
   d="m 30.513,33.325 c 1.1,0.45 1.35,0.862 0.75,1.237 -0.601,0.4 -1.362,0.288 -2.288,-0.338 -0.85,-0.574 -0.987,-0.949 -0.412,-1.125 0.549,-0.149 1.2,-0.074 1.95,0.226 z"
   style="clip-rule:evenodd;fill:#e3ad5b;fill-rule:evenodd" />
		<path
   inkscape:connector-curvature="0"
   id="path418"
   d="m 30.7,31.862 c 0.85,-0.075 1.037,0.063 0.563,0.413 -0.476,0.375 -0.925,0.537 -1.351,0.487 -0.375,-0.025 -0.45,-0.175 -0.225,-0.45 0.251,-0.249 0.588,-0.4 1.013,-0.45 z"
   style="clip-rule:evenodd;fill:#e3ad5b;fill-rule:evenodd" />
		<path
   inkscape:connector-curvature="0"
   id="path420"
   d="m 29.125,35.95 c 0.45,1.024 0.324,1.6 -0.375,1.725 -0.775,0.125 -1.138,-0.225 -1.088,-1.05 0.051,-0.725 0.25,-1.15 0.601,-1.275 0.325,-0.124 0.612,0.075 0.862,0.6 z"
   style="clip-rule:evenodd;fill:#e3ad5b;fill-rule:evenodd" />
		<path
   inkscape:connector-curvature="0"
   id="path422"
   d="m 25.787,36.325 c 0.5,0.675 0.5,1.063 0,1.162 -0.475,0.101 -0.975,-0.212 -1.5,-0.938 -0.5,-0.675 -0.463,-1.013 0.112,-1.013 0.576,0.027 1.039,0.289 1.388,0.789 z"
   style="clip-rule:evenodd;fill:#e3ad5b;fill-rule:evenodd" />
		<path
   inkscape:connector-curvature="0"
   id="path424"
   d="m 28.524,38.275 c 1.226,0.5 1.438,0.8 0.638,0.899 -0.85,0.101 -1.525,-0.037 -2.024,-0.412 -0.45,-0.325 -0.501,-0.55 -0.15,-0.675 0.351,-0.125 0.862,-0.062 1.536,0.188 z"
   style="clip-rule:evenodd;fill:#e3ad5b;fill-rule:evenodd" />
		<path
   inkscape:connector-curvature="0"
   id="path426"
   d="m 28.037,39.888 c 0.601,-0.025 0.601,0.188 0,0.638 -0.6,0.425 -1.3,0.637 -2.1,0.637 -0.875,0 -1,-0.199 -0.375,-0.6 0.6,-0.401 1.425,-0.625 2.475,-0.675 z"
   style="clip-rule:evenodd;fill:#e3ad5b;fill-rule:evenodd" />
		<path
   inkscape:connector-curvature="0"
   id="path428"
   d="m 32.013,36.25 c 0.6,0.825 0.513,1.2 -0.263,1.125 -0.775,-0.1 -1.225,-0.537 -1.351,-1.313 -0.1,-0.7 0.05,-0.987 0.45,-0.862 0.35,0.1 0.739,0.45 1.164,1.05 z"
   style="clip-rule:evenodd;fill:#e3ad5b;fill-rule:evenodd" />
		<path
   inkscape:connector-curvature="0"
   id="path430"
   d="m 31.712,38.388 c 0.626,0.375 0.726,0.712 0.301,1.013 -0.425,0.3 -1.001,0.25 -1.726,-0.15 -0.725,-0.375 -0.825,-0.7 -0.3,-0.975 0.55,-0.301 1.125,-0.263 1.725,0.112 z"
   style="clip-rule:evenodd;fill:#e3ad5b;fill-rule:evenodd" />
		<path
   inkscape:connector-curvature="0"
   id="path432"
   d="m 30.513,40.075 c 0.899,-0.075 1.162,0.075 0.787,0.45 -0.375,0.399 -0.774,0.587 -1.2,0.563 -0.324,0 -0.425,-0.163 -0.3,-0.488 0.125,-0.3 0.362,-0.475 0.713,-0.525 z"
   style="clip-rule:evenodd;fill:#e3ad5b;fill-rule:evenodd" />
		<path
   inkscape:connector-curvature="0"
   id="path434"
   d="m 34.638,37.525 c 0.925,0.149 1.175,0.399 0.75,0.75 -0.45,0.375 -0.963,0.475 -1.538,0.3 -0.85,-0.25 -1.125,-0.513 -0.825,-0.788 0.3,-0.3 0.837,-0.387 1.613,-0.262 z"
   style="clip-rule:evenodd;fill:#e3ad5b;fill-rule:evenodd" />
		<path
   inkscape:connector-curvature="0"
   id="path436"
   d="m 33.962,39.138 c 0.775,0.125 0.976,0.35 0.601,0.675 -0.375,0.35 -0.862,0.463 -1.463,0.338 -0.5,-0.125 -0.588,-0.338 -0.263,-0.638 0.325,-0.3 0.7,-0.425 1.125,-0.375 z"
   style="clip-rule:evenodd;fill:#e3ad5b;fill-rule:evenodd" />
		<path
   inkscape:connector-curvature="0"
   id="path438"
   d="m 36.399,36.775 c 0.175,-0.775 0.4,-0.775 0.676,0 0.249,0.824 0.274,1.387 0.074,1.688 -0.2,0.274 -0.399,0.188 -0.6,-0.263 -0.201,-0.451 -0.249,-0.925 -0.15,-1.425 z"
   style="clip-rule:evenodd;fill:#e3ad5b;fill-rule:evenodd" />
		<path
   inkscape:connector-curvature="0"
   id="path440"
   d="m 39.737,37.75 c 0.875,0.425 0.813,0.638 -0.188,0.638 -1.024,0 -1.7,-0.15 -2.025,-0.45 -0.325,-0.274 -0.175,-0.438 0.45,-0.487 0.625,-0.049 1.214,0.049 1.763,0.299 z"
   style="clip-rule:evenodd;fill:#e3ad5b;fill-rule:evenodd" />
		<path
   inkscape:connector-curvature="0"
   id="path442"
   d="m 34,34.375 c 1.025,0.075 1.362,0.325 1.013,0.75 -0.375,0.425 -0.987,0.537 -1.838,0.338 -0.774,-0.176 -0.962,-0.413 -0.563,-0.713 0.375,-0.274 0.837,-0.4 1.388,-0.375 z"
   style="clip-rule:evenodd;fill:#e3ad5b;fill-rule:evenodd" />
		<path
   inkscape:connector-curvature="0"
   id="path444"
   d="m 34.975,35.725 c 1.825,-0.175 2.412,-0.012 1.763,0.488 -0.726,0.574 -1.438,0.774 -2.138,0.6 -0.55,-0.1 -0.787,-0.263 -0.712,-0.487 0.074,-0.201 0.436,-0.401 1.087,-0.601 z"
   style="clip-rule:evenodd;fill:#e3ad5b;fill-rule:evenodd" />
		<path
   inkscape:connector-curvature="0"
   id="path446"
   d="m 35.274,32.763 c 0.65,0.225 0.663,0.412 0.038,0.563 -0.65,0.175 -1.138,0.2 -1.463,0.075 -0.699,-0.275 -0.787,-0.5 -0.263,-0.676 0.526,-0.175 1.089,-0.162 1.688,0.038 z"
   style="clip-rule:evenodd;fill:#e3ad5b;fill-rule:evenodd" />
		<path
   inkscape:connector-curvature="0"
   id="path448"
   d="m 35.95,29.838 c 0.274,0.199 0.237,0.524 -0.113,0.975 -0.375,0.45 -0.8,0.612 -1.274,0.487 -0.45,-0.149 -0.388,-0.462 0.188,-0.938 0.573,-0.524 0.974,-0.7 1.199,-0.524 z"
   style="clip-rule:evenodd;fill:#e3ad5b;fill-rule:evenodd" />
		<path
   inkscape:connector-curvature="0"
   id="path450"
   d="m 36.962,31.938 c 0.525,0.2 0.588,0.412 0.188,0.638 -0.399,0.225 -0.862,0.213 -1.387,-0.038 -0.525,-0.225 -0.601,-0.438 -0.226,-0.637 0.401,-0.176 0.875,-0.164 1.425,0.037 z"
   style="clip-rule:evenodd;fill:#e3ad5b;fill-rule:evenodd" />
		<path
   inkscape:connector-curvature="0"
   id="path452"
   d="m 39.925,32.313 c 0.5,-0.05 0.538,0.138 0.112,0.563 -0.45,0.425 -0.949,0.625 -1.5,0.6 -0.55,-0.024 -0.6,-0.212 -0.149,-0.563 0.449,-0.35 0.962,-0.551 1.537,-0.6 z"
   style="clip-rule:evenodd;fill:#e3ad5b;fill-rule:evenodd" />
		<path
   inkscape:connector-curvature="0"
   id="path454"
   d="m 37.149,33.662 c 1.051,0.075 1.351,0.238 0.9,0.488 -0.5,0.225 -1,0.274 -1.5,0.149 -0.399,-0.075 -0.476,-0.212 -0.225,-0.412 0.25,-0.199 0.526,-0.275 0.825,-0.225 z"
   style="clip-rule:evenodd;fill:#e3ad5b;fill-rule:evenodd" />
		<path
   inkscape:connector-curvature="0"
   id="path456"
   d="m 40.112,34.3 c 1.149,0.2 1.513,0.388 1.088,0.563 -0.425,0.2 -1.063,0.213 -1.913,0.038 -0.725,-0.15 -0.899,-0.313 -0.524,-0.488 0.375,-0.15 0.824,-0.188 1.349,-0.113 z"
   style="clip-rule:evenodd;fill:#e3ad5b;fill-rule:evenodd" />
		<path
   inkscape:connector-curvature="0"
   id="path458"
   d="m 11.388,31.037 c 0.625,-0.225 0.762,-0.124 0.412,0.301 -0.375,0.425 -0.713,0.662 -1.013,0.712 -0.275,0.05 -0.362,-0.063 -0.263,-0.337 0.101,-0.275 0.389,-0.5 0.864,-0.676 z"
   style="clip-rule:evenodd;fill:#f5d7a9;fill-rule:evenodd" />
		<path
   inkscape:connector-curvature="0"
   id="path460"
   d="m 14.013,31.3 c 0.75,-0.125 0.837,0.075 0.262,0.601 -0.575,0.524 -1.137,0.787 -1.688,0.787 -0.475,0 -0.449,-0.213 0.075,-0.638 0.501,-0.425 0.95,-0.675 1.351,-0.75 z"
   style="clip-rule:evenodd;fill:#f5d7a9;fill-rule:evenodd" />
		<path
   inkscape:connector-curvature="0"
   id="path462"
   d="m 13.412,29.8 c 0.45,0.226 0.65,0.438 0.601,0.638 -0.075,0.225 -0.301,0.275 -0.676,0.15 -0.325,-0.125 -0.449,-0.313 -0.375,-0.563 0.075,-0.25 0.226,-0.325 0.45,-0.225 z"
   style="clip-rule:evenodd;fill:#f5d7a9;fill-rule:evenodd" />
		<path
   inkscape:connector-curvature="0"
   id="path464"
   d="m 10.524,35.688 c 1,-0.15 1.263,-0.063 0.788,0.263 -0.5,0.325 -1.025,0.487 -1.575,0.487 -0.45,0 -0.525,-0.112 -0.225,-0.338 0.325,-0.225 0.663,-0.363 1.012,-0.412 z"
   style="clip-rule:evenodd;fill:#f5d7a9;fill-rule:evenodd" />
		<path
   inkscape:connector-curvature="0"
   id="path466"
   d="m 16.263,33.888 c 0.975,-0.101 1.075,0.037 0.3,0.412 -0.8,0.375 -1.388,0.513 -1.763,0.413 -0.35,-0.101 -0.35,-0.25 0,-0.45 0.35,-0.2 0.837,-0.325 1.463,-0.375 z"
   style="clip-rule:evenodd;fill:#f5d7a9;fill-rule:evenodd" />
		<path
   inkscape:connector-curvature="0"
   id="path468"
   d="m 14.912,36.138 c 0.45,0.075 0.563,0.213 0.338,0.412 -0.226,0.226 -0.738,0.351 -1.538,0.375 -0.875,0.025 -1.075,-0.125 -0.6,-0.45 0.451,-0.325 1.05,-0.438 1.8,-0.337 z"
   style="clip-rule:evenodd;fill:#f5d7a9;fill-rule:evenodd" />
		<path
   inkscape:connector-curvature="0"
   id="path470"
   d="m 9.513,37.975 c 0.475,0.351 0.449,0.5 -0.075,0.45 -0.525,-0.05 -0.95,-0.212 -1.275,-0.487 -0.275,-0.25 -0.175,-0.35 0.3,-0.3 0.449,0.05 0.799,0.162 1.05,0.337 z"
   style="clip-rule:evenodd;fill:#f5d7a9;fill-rule:evenodd" />
		<path
   inkscape:connector-curvature="0"
   id="path472"
   d="m 18.024,32.275 c 0.576,0.199 0.75,0.35 0.525,0.449 -0.225,0.101 -0.675,0.038 -1.35,-0.188 -0.625,-0.199 -0.738,-0.324 -0.338,-0.375 0.401,-0.049 0.788,-0.011 1.163,0.114 z"
   style="clip-rule:evenodd;fill:#f5d7a9;fill-rule:evenodd" />
		<path
   inkscape:connector-curvature="0"
   id="path474"
   d="m 18.063,30.625 c 0.5,0.075 0.55,0.175 0.149,0.3 -0.425,0.101 -0.8,0.088 -1.125,-0.037 -0.3,-0.125 -0.287,-0.213 0.038,-0.263 0.325,-0.075 0.638,-0.075 0.938,0 z"
   style="clip-rule:evenodd;fill:#f5d7a9;fill-rule:evenodd" />
		<path
   inkscape:connector-curvature="0"
   id="path476"
   d="m 21.024,30.963 c 0.2,0.6 0.188,1.05 -0.037,1.35 -0.224,0.325 -0.387,0.288 -0.487,-0.113 -0.05,-0.3 0.012,-0.638 0.188,-1.013 0.174,-0.374 0.287,-0.45 0.336,-0.224 z"
   style="clip-rule:evenodd;fill:#f5d7a9;fill-rule:evenodd" />
		<path
   inkscape:connector-curvature="0"
   id="path478"
   d="m 31.263,35.763 c 0.6,0.25 0.874,0.563 0.824,0.938 -0.024,0.375 -0.212,0.438 -0.563,0.188 -0.3,-0.25 -0.513,-0.537 -0.637,-0.862 -0.1,-0.327 0.025,-0.415 0.376,-0.264 z"
   style="clip-rule:evenodd;fill:#f5d7a9;fill-rule:evenodd" />
		<path
   inkscape:connector-curvature="0"
   id="path480"
   d="m 28.563,35.838 c 0.3,0.375 0.412,0.712 0.337,1.012 -0.074,0.275 -0.262,0.351 -0.563,0.226 -0.274,-0.125 -0.337,-0.388 -0.188,-0.788 0.151,-0.426 0.289,-0.575 0.414,-0.45 z"
   style="clip-rule:evenodd;fill:#f5d7a9;fill-rule:evenodd" />
		<path
   inkscape:connector-curvature="0"
   id="path482"
   d="m 30.024,33.625 c 0.375,0.25 0.488,0.463 0.338,0.638 -0.15,0.149 -0.438,0.162 -0.862,0.037 -0.375,-0.1 -0.45,-0.287 -0.226,-0.563 0.226,-0.25 0.476,-0.287 0.75,-0.112 z"
   style="clip-rule:evenodd;fill:#f5d7a9;fill-rule:evenodd" />
		<path
   inkscape:connector-curvature="0"
   id="path484"
   d="m 24.475,31.263 c 1.025,-0.15 1.237,0 0.638,0.45 -0.6,0.449 -1.212,0.7 -1.838,0.75 -0.475,0.05 -0.437,-0.138 0.113,-0.563 0.575,-0.424 0.937,-0.637 1.087,-0.637 z"
   style="clip-rule:evenodd;fill:#f5d7a9;fill-rule:evenodd" />
		<path
   inkscape:connector-curvature="0"
   id="path486"
   d="m 34.225,34.75 c 0.5,0.05 0.588,0.112 0.263,0.188 -0.3,0.075 -0.6,0.112 -0.9,0.112 -0.249,0 -0.325,-0.063 -0.225,-0.188 0.1,-0.099 0.387,-0.137 0.862,-0.112 z"
   style="clip-rule:evenodd;fill:#f5d7a9;fill-rule:evenodd" />
		<path
   inkscape:connector-curvature="0"
   id="path488"
   d="m 23.2,37.638 c 0.274,0 0.237,0.175 -0.113,0.524 -0.35,0.351 -0.712,0.525 -1.087,0.525 -0.425,0 -0.425,-0.175 0,-0.525 0.4,-0.349 0.8,-0.524 1.2,-0.524 z"
   style="clip-rule:evenodd;fill:#f5d7a9;fill-rule:evenodd" />
		<path
   inkscape:connector-curvature="0"
   id="path490"
   d="m 20.725,36.213 c 0.7,0 0.988,0.1 0.862,0.3 -0.1,0.2 -0.337,0.325 -0.712,0.375 -0.3,0.025 -0.475,-0.088 -0.525,-0.338 -0.076,-0.225 0.05,-0.337 0.375,-0.337 z"
   style="clip-rule:evenodd;fill:#f5d7a9;fill-rule:evenodd" />
		<path
   inkscape:connector-curvature="0"
   id="path492"
   d="m 21.475,34.188 c 0.724,0.15 0.95,0.3 0.674,0.45 -0.299,0.175 -0.674,0.2 -1.125,0.075 -0.399,-0.101 -0.5,-0.226 -0.3,-0.375 0.176,-0.15 0.426,-0.2 0.751,-0.15 z"
   style="clip-rule:evenodd;fill:#f5d7a9;fill-rule:evenodd" />
		<path
   inkscape:connector-curvature="0"
   id="path494"
   d="m 15.774,38.838 c 0.55,0.5 0.713,0.862 0.488,1.087 -0.201,0.226 -0.475,0.15 -0.825,-0.225 -0.3,-0.375 -0.413,-0.688 -0.338,-0.938 0.076,-0.275 0.3,-0.249 0.675,0.076 z"
   style="clip-rule:evenodd;fill:#f5d7a9;fill-rule:evenodd" />
		<path
   inkscape:connector-curvature="0"
   id="path496"
   d="m 11.35,38.388 c 0.2,-0.025 0.7,-0.162 1.5,-0.413 0.775,-0.199 1.263,-0.237 1.463,-0.112 0.225,0.125 0.237,0.313 0.037,0.563 -0.35,0.4 -0.538,0.65 -0.563,0.75 -0.1,0.25 -0.275,0.363 -0.524,0.338 -0.15,0 -0.475,-0.088 -0.976,-0.263 -0.425,-0.15 -0.737,-0.325 -0.938,-0.525 -0.224,-0.201 -0.224,-0.313 10e-4,-0.338 z"
   style="clip-rule:evenodd;fill:#91641d;fill-rule:evenodd" />
		<path
   inkscape:connector-curvature="0"
   id="path498"
   d="m 24.7,28.825 c -0.05,0.25 -0.188,0.462 -0.413,0.638 -0.25,0.375 -0.512,0.6 -0.787,0.675 -0.3,0.1 -0.838,0.175 -1.612,0.225 -0.95,0.075 -1.588,0.038 -1.913,-0.112 -0.3,-0.125 -0.375,-0.274 -0.225,-0.45 0.1,-0.149 0.275,-0.263 0.524,-0.337 0.201,-0.05 0.863,-0.237 1.988,-0.563 1.075,-0.301 1.762,-0.463 2.063,-0.488 0.3,-0.025 0.425,0.112 0.375,0.412 z"
   style="clip-rule:evenodd;fill:#91641d;fill-rule:evenodd" />
		<path
   inkscape:connector-curvature="0"
   id="path500"
   d="m 22.788,35.2 c 0.225,-0.375 0.837,-0.7 1.837,-0.976 0.85,-0.225 1.512,-0.312 1.987,-0.262 0.325,0.024 0.462,0.175 0.412,0.449 -0.05,0.251 -0.188,0.463 -0.412,0.638 -0.575,0.575 -0.975,0.938 -1.2,1.088 -0.3,0.25 -0.8,0.35 -1.5,0.3 -0.25,-0.025 -0.5,-0.175 -0.75,-0.45 -0.25,-0.274 -0.374,-0.537 -0.374,-0.787 z"
   style="clip-rule:evenodd;fill:#91641d;fill-rule:evenodd" />
		<path
   inkscape:connector-curvature="0"
   id="path502"
   d="M 31.487,30.475 C 31.237,30.526 30.849,30.5 30.325,30.401 29.8,30.3 29.412,30.188 29.162,30.063 c -0.199,-0.1 -0.3,-0.237 -0.3,-0.412 l 0.037,-0.263 c 0.175,-0.4 0.65,-0.588 1.426,-0.563 0.425,0 1.037,0.075 1.837,0.225 0.5,0.05 0.888,0.275 1.163,0.675 0.3,0.4 0.162,0.638 -0.413,0.713 -0.475,0.05 -0.8,0.063 -0.975,0.037 -0.2,-0.025 -0.349,-0.025 -0.45,0 z"
   style="clip-rule:evenodd;fill:#91641d;fill-rule:evenodd" />
		<path
   inkscape:connector-curvature="0"
   id="path504"
   d="m 34.188,32.05 c 0.125,0.25 0.137,0.551 0.037,0.9 -0.05,0.2 -0.3,0.274 -0.75,0.225 -0.65,-0.1 -1.013,-0.149 -1.087,-0.149 -0.325,0.05 -0.688,0.024 -1.088,-0.075 -0.476,-0.075 -0.774,-0.213 -0.9,-0.413 0.101,-0.225 1.112,-0.512 3.038,-0.862 0.375,-0.076 0.625,0.049 0.75,0.374 z"
   style="clip-rule:evenodd;fill:#91641d;fill-rule:evenodd" />
		<path
   inkscape:connector-curvature="0"
   id="path506"
   d="m 36.362,30.888 -0.188,-0.112 c -0.024,-0.425 0.375,-0.176 1.2,0.75 0.8,0.925 1.262,1.612 1.388,2.063 0.1,0.375 -0.113,0.5 -0.638,0.375 -0.5,-0.15 -0.938,-0.413 -1.313,-0.788 -0.275,-0.274 -0.4,-0.6 -0.375,-0.975 0.027,-0.576 0.002,-1.013 -0.074,-1.313 z"
   style="clip-rule:evenodd;fill:#91641d;fill-rule:evenodd" />
		<path
   inkscape:connector-curvature="0"
   id="path508"
   d="m 37.337,36.063 1.275,0.037 c 0.9,0.051 1.513,0.125 1.838,0.226 0.325,0.1 0.487,0.263 0.487,0.487 0,0.125 -0.051,0.3 -0.15,0.525 -0.05,0.25 -0.762,0.125 -2.138,-0.375 -0.6,-0.226 -0.999,-0.438 -1.199,-0.638 z"
   style="clip-rule:evenodd;fill:#91641d;fill-rule:evenodd" />
		<path
   inkscape:connector-curvature="0"
   id="path510"
   d="m 22.975,27.813 c 0.375,0.225 0.562,0.487 0.562,0.787 0,0.15 -0.088,0.288 -0.263,0.413 -0.249,0.175 -0.449,0.375 -0.6,0.6 -0.175,0.275 -0.438,0.425 -0.787,0.45 -0.5,0 -0.925,-0.013 -1.275,-0.037 C 20.187,30 19.775,29.925 19.375,29.8 l -0.487,-0.149 c -0.025,-0.176 -0.013,-0.363 0.037,-0.563 0.1,-0.375 0.325,-0.601 0.675,-0.676 0.3,-0.05 0.575,-0.175 0.825,-0.375 0.25,-0.225 0.438,-0.35 0.563,-0.375 0.85,-0.175 1.512,-0.124 1.987,0.151 z"
   style="clip-rule:evenodd;fill:#fad932;fill-rule:evenodd" />
		<path
   inkscape:connector-curvature="0"
   id="path512"
   d="m 9.962,38.5 c -0.225,-0.2 -0.225,-0.412 0,-0.638 0.301,-0.274 0.45,-0.45 0.45,-0.524 0,-0.2 0.15,-0.375 0.45,-0.525 0.325,-0.125 0.725,-0.188 1.2,-0.188 0.85,0 1.45,0.225 1.8,0.675 0.35,0.4 0.375,0.8 0.075,1.2 -0.325,0.4 -0.513,0.625 -0.563,0.675 -0.15,0.075 -0.463,0.125 -0.938,0.15 -0.949,0.075 -1.774,-0.2 -2.474,-0.825 z"
   style="clip-rule:evenodd;fill:#fad932;fill-rule:evenodd" />
		<path
   inkscape:connector-curvature="0"
   id="path514"
   d="m 23.912,33.438 c 0.475,-0.3 1,-0.362 1.575,-0.188 0.55,0.15 0.8,0.362 0.75,0.638 -0.024,0.2 -0.138,0.438 -0.338,0.712 -0.3,0.375 -0.537,0.676 -0.712,0.9 -0.2,0.3 -0.388,0.45 -0.563,0.45 -0.25,-0.075 -0.513,-0.112 -0.788,-0.112 -0.325,0 -0.624,-0.113 -0.9,-0.338 -0.275,-0.3 -0.512,-0.537 -0.712,-0.713 -0.226,-0.25 -0.2,-0.499 0.075,-0.75 0.274,-0.225 0.737,-0.412 1.388,-0.563 z"
   style="clip-rule:evenodd;fill:#fad932;fill-rule:evenodd" />
		<path
   inkscape:connector-curvature="0"
   id="path516"
   d="M 35.425,32.162 C 35.35,32.388 35.237,32.5 35.087,32.5 34.862,32.425 34.65,32.388 34.45,32.388 c -0.126,0 -0.513,0.075 -1.163,0.225 -0.55,0.125 -0.987,0.15 -1.313,0.075 -0.324,-0.075 -0.487,-0.263 -0.487,-0.563 0.075,-0.425 0.101,-0.775 0.075,-1.05 -0.025,-0.35 0.162,-0.513 0.563,-0.487 0.25,0.024 0.762,0.112 1.537,0.262 1.351,0.2 1.938,0.637 1.763,1.312 z"
   style="clip-rule:evenodd;fill:#fad932;fill-rule:evenodd" />
		<path
   inkscape:connector-curvature="0"
   id="path518"
   d="m 38.875,34.862 c 1.3,0.15 1.95,0.563 1.95,1.237 0,0.275 -0.113,0.388 -0.338,0.338 -0.425,-0.05 -0.726,-0.05 -0.9,0 -0.675,0.2 -1.425,-0.05 -2.25,-0.75 -0.399,-0.375 -0.412,-0.638 -0.037,-0.787 0.35,-0.125 0.875,-0.137 1.575,-0.038 z"
   style="clip-rule:evenodd;fill:#fad932;fill-rule:evenodd" />
		<path
   inkscape:connector-curvature="0"
   id="path520"
   d="m 9.774,38.162 c 0.301,0.2 0.738,0.375 1.313,0.525 0.7,0.175 1.163,0.263 1.388,0.263 0.175,-0.025 0.5,-0.275 0.976,-0.75 0.35,-0.35 0.475,-0.638 0.375,-0.862 v -0.113 c 0.35,0.45 0.387,0.875 0.112,1.275 -0.325,0.4 -0.513,0.625 -0.563,0.675 -0.15,0.075 -0.463,0.125 -0.938,0.15 C 11.487,39.4 10.662,39.125 9.961,38.5 9.837,38.4 9.774,38.287 9.774,38.162 Z"
   style="clip-rule:evenodd;fill:#d9bc2b;fill-rule:evenodd" />
		<path
   inkscape:connector-curvature="0"
   id="path522"
   d="m 23.462,28.338 0.075,0.262 c 0,0.15 -0.088,0.288 -0.263,0.413 -0.249,0.175 -0.449,0.375 -0.6,0.6 -0.175,0.275 -0.438,0.425 -0.787,0.45 -0.5,0 -0.925,-0.013 -1.275,-0.037 C 20.187,30 19.775,29.925 19.375,29.8 L 18.888,29.651 C 18.862,29.4 18.9,29.15 19,28.9 c 0.075,0.125 0.225,0.212 0.45,0.262 0.05,0.025 0.3,0.063 0.75,0.113 0.85,0.149 1.412,0.162 1.688,0.037 L 22.75,28.674 C 23,28.5 23.237,28.388 23.462,28.338 Z"
   style="clip-rule:evenodd;fill:#d9bc2b;fill-rule:evenodd" />
		<path
   inkscape:connector-curvature="0"
   id="path524"
   d="m 25.225,34.563 0.487,-0.525 0.188,0.038 c 0.126,0.025 0.213,0.063 0.263,0.112 -0.4,0.5 -0.725,0.938 -0.975,1.313 -0.2,0.3 -0.388,0.45 -0.563,0.45 -0.25,-0.075 -0.513,-0.112 -0.788,-0.112 -0.325,0 -0.624,-0.113 -0.9,-0.338 -0.258,-0.281 -0.483,-0.506 -0.674,-0.675 0.393,0.324 0.868,0.474 1.425,0.45 0.675,0 1.063,-0.05 1.162,-0.15 z"
   style="clip-rule:evenodd;fill:#d9bc2b;fill-rule:evenodd" />
		<path
   inkscape:connector-curvature="0"
   id="path526"
   d="m 34.188,32.088 c 0.149,0 0.387,0.012 0.712,0.037 0.301,-0.025 0.463,-0.1 0.488,-0.225 l 0.037,-0.075 v 0.337 C 35.35,32.388 35.237,32.5 35.087,32.5 34.862,32.425 34.65,32.388 34.45,32.388 c -0.126,0 -0.513,0.075 -1.163,0.225 -0.55,0.125 -0.987,0.15 -1.313,0.075 -0.199,-0.075 -0.337,-0.162 -0.412,-0.263 0.125,0.05 0.387,-0.012 0.787,-0.188 0.3,-0.099 0.913,-0.149 1.839,-0.149 z"
   style="clip-rule:evenodd;fill:#d9bc2b;fill-rule:evenodd" />
		<path
   inkscape:connector-curvature="0"
   id="path528"
   d="m 38.162,35.987 c 0.525,0.25 0.912,0.325 1.163,0.226 0.225,-0.101 0.6,-0.15 1.125,-0.15 h 0.449 l -0.074,0.563 -1.725,0.486 -1.649,-0.337 z"
   style="clip-rule:evenodd;fill:#d9bc2b;fill-rule:evenodd" />
		<path
   inkscape:connector-curvature="0"
   id="path530"
   d="m 11.05,37 c -0.025,0.15 0.313,0.15 1.013,0 0.225,-0.075 0.337,-0.013 0.337,0.188 -0.074,0.075 -0.35,0.112 -0.824,0.112 -0.375,0.176 -0.638,0.2 -0.788,0.075 -0.075,-0.075 -0.05,-0.175 0.075,-0.3 0.15,-0.175 0.212,-0.2 0.187,-0.075 z"
   style="clip-rule:evenodd;fill:#fffb8c;fill-rule:evenodd" />
		<path
   inkscape:connector-curvature="0"
   id="path532"
   d="m 13.075,37.338 c 0.25,0.024 0.337,0.087 0.262,0.188 -0.074,0.074 -0.225,0.162 -0.449,0.262 -0.175,0.075 -0.351,0.063 -0.525,-0.037 -0.175,-0.1 -0.263,-0.188 -0.263,-0.263 0.6,-0.126 0.925,-0.175 0.975,-0.15 z"
   style="clip-rule:evenodd;fill:#fffb8c;fill-rule:evenodd" />
		<path
   inkscape:connector-curvature="0"
   id="path534"
   d="m 10.862,37.825 c -0.125,0.025 -0.15,0.05 -0.075,0.075 0.125,0.074 0.188,0.149 0.188,0.225 -0.025,0.075 -0.263,0.05 -0.712,-0.075 -0.201,-0.075 -0.125,-0.199 0.225,-0.375 0.05,-0.05 0.137,-0.063 0.263,-0.037 l 0.263,0.037 c 0.024,0 0.112,-0.037 0.262,-0.112 0.125,-0.05 0.25,-0.05 0.375,0 0.175,0.075 0.138,0.138 -0.112,0.188 -0.226,0.049 -0.452,0.074 -0.677,0.074 z"
   style="clip-rule:evenodd;fill:#fffb8c;fill-rule:evenodd" />
		<path
   inkscape:connector-curvature="0"
   id="path536"
   d="m 12.024,37.9 c 0.25,-0.025 0.375,0.037 0.375,0.188 0,0.125 0.226,0.112 0.676,-0.038 0.174,0 -0.113,0.15 -0.863,0.45 -0.149,0.075 -0.275,0.088 -0.375,0.037 C 11.712,38.413 11.587,38.3 11.462,38.2 11.313,38.075 11.3,37.987 11.425,37.937 11.45,37.938 11.649,37.925 12.024,37.9 Z"
   style="clip-rule:evenodd;fill:#fffb8c;fill-rule:evenodd" />
		<path
   inkscape:connector-curvature="0"
   id="path538"
   d="m 11.237,38.35 c 0.125,0.075 0.163,0.163 0.112,0.263 -0.05,0.075 -0.175,0.088 -0.375,0.038 -0.2,-0.075 -0.25,-0.163 -0.149,-0.263 0.125,-0.125 0.262,-0.138 0.412,-0.038 z"
   style="clip-rule:evenodd;fill:#fffb8c;fill-rule:evenodd" />
		<path
   inkscape:connector-curvature="0"
   id="path540"
   d="m 23.313,34.15 c 0.125,0 0.237,0.087 0.337,0.262 0.126,0.2 0.101,0.363 -0.074,0.488 -0.175,0.1 -0.388,0.125 -0.638,0.074 -0.225,-0.074 -0.4,-0.199 -0.524,-0.375 -0.1,-0.149 -0.012,-0.262 0.262,-0.337 0.199,-0.074 0.411,-0.112 0.637,-0.112 z"
   style="clip-rule:evenodd;fill:#fffb8c;fill-rule:evenodd" />
		<path
   inkscape:connector-curvature="0"
   id="path542"
   d="m 23.837,34 c -0.175,-0.1 -0.449,-0.112 -0.824,-0.037 -0.251,0.024 -0.325,0 -0.225,-0.075 0.175,-0.101 0.4,-0.162 0.674,-0.188 0.251,-0.025 0.438,0 0.563,0.075 0.126,0.1 0.163,0.188 0.113,0.262 -0.075,0.075 -0.175,0.064 -0.301,-0.037 z"
   style="clip-rule:evenodd;fill:#fffb8c;fill-rule:evenodd" />
		<path
   inkscape:connector-curvature="0"
   id="path544"
   d="m 24.287,34.263 c 0.325,0.05 0.463,0.175 0.413,0.375 -0.025,0.175 -0.113,0.274 -0.263,0.3 -0.1,0.025 -0.2,0 -0.3,-0.075 -0.126,-0.1 -0.2,-0.212 -0.226,-0.337 -0.074,-0.226 0.052,-0.313 0.376,-0.263 z"
   style="clip-rule:evenodd;fill:#fffb8c;fill-rule:evenodd" />
		<path
   inkscape:connector-curvature="0"
   id="path546"
   d="m 25.075,33.963 c 0.225,0 0.3,0.1 0.225,0.3 -0.024,0.05 -0.101,0.087 -0.225,0.112 -0.15,0 -0.226,-0.025 -0.226,-0.075 -0.025,-0.075 -0.037,-0.138 -0.037,-0.188 0.026,-0.075 0.113,-0.125 0.263,-0.149 z"
   style="clip-rule:evenodd;fill:#fffb8c;fill-rule:evenodd" />
		<path
   inkscape:connector-curvature="0"
   id="path548"
   d="m 24.475,33.888 c -0.149,0.075 -0.313,0.05 -0.487,-0.075 -0.15,-0.125 -0.163,-0.225 -0.037,-0.3 0.05,-0.025 0.074,-0.063 0.074,-0.112 0.025,-0.025 0.163,-0.05 0.413,-0.075 0.675,0 1.037,0.037 1.087,0.112 0.05,0.05 -0.062,0.125 -0.337,0.225 -0.401,0.124 -0.638,0.199 -0.713,0.225 z"
   style="clip-rule:evenodd;fill:#fffb8c;fill-rule:evenodd" />
		<path
   inkscape:connector-curvature="0"
   id="path550"
   d="m 20.125,28.45 c 0.05,0.025 0.625,-0.013 1.725,-0.112 0.325,-0.025 0.363,0.063 0.112,0.262 -0.274,0.2 -0.563,0.3 -0.862,0.3 -0.9,0.05 -1.45,0.012 -1.65,-0.113 -0.125,-0.1 -0.075,-0.188 0.149,-0.262 0.226,-0.1 0.401,-0.125 0.526,-0.075 z"
   style="clip-rule:evenodd;fill:#fffb8c;fill-rule:evenodd" />
		<path
   inkscape:connector-curvature="0"
   id="path552"
   d="m 22.038,28.638 c 0.1,0 0.125,0.05 0.075,0.149 -0.05,0.075 -0.113,0.15 -0.188,0.226 -0.075,0.076 -0.188,0.112 -0.338,0.112 -0.175,0.025 -0.287,0 -0.337,-0.075 -0.05,-0.075 0.026,-0.162 0.226,-0.263 0.199,-0.099 0.386,-0.149 0.562,-0.149 z"
   style="clip-rule:evenodd;fill:#fffb8c;fill-rule:evenodd" />
		<path
   inkscape:connector-curvature="0"
   id="path554"
   d="m 21.325,28.15 c -0.101,-0.025 -0.288,-0.038 -0.563,-0.038 -0.125,-0.024 -0.125,-0.075 0,-0.149 0.124,-0.125 0.375,-0.226 0.75,-0.301 0.35,-0.05 0.537,-0.012 0.563,0.113 0.024,0.1 -0.076,0.199 -0.301,0.3 -0.199,0.075 -0.349,0.1 -0.449,0.075 z"
   style="clip-rule:evenodd;fill:#fffb8c;fill-rule:evenodd" />
		<path
   inkscape:connector-curvature="0"
   id="path556"
   d="m 22.675,28 c 0.101,-0.025 0.125,0.025 0.075,0.15 -0.05,0.15 -0.15,0.275 -0.3,0.375 -0.225,0.149 -0.288,0.063 -0.188,-0.263 C 22.263,28.138 22.4,28.05 22.675,28 Z"
   style="clip-rule:evenodd;fill:#fffb8c;fill-rule:evenodd" />
		<path
   inkscape:connector-curvature="0"
   id="path558"
   d="m 32.162,30.963 c 0.426,0 0.65,0.024 0.675,0.074 0.05,0.075 0.038,0.125 -0.037,0.15 -0.101,0.025 -0.175,0.05 -0.225,0.075 -0.175,0.125 -0.425,0.125 -0.75,0 -0.075,-0.05 -0.075,-0.112 0,-0.188 0.074,-0.074 0.188,-0.111 0.337,-0.111 z"
   style="clip-rule:evenodd;fill:#fffb8c;fill-rule:evenodd" />
		<path
   inkscape:connector-curvature="0"
   id="path560"
   d="m 31.975,31.45 c 0.176,0.125 0.45,0.162 0.825,0.112 0.3,-0.05 0.45,-0.05 0.45,0 0.025,0.075 -0.063,0.125 -0.263,0.15 -0.25,0.024 -0.425,0.05 -0.525,0.074 -0.249,0.2 -0.462,0.251 -0.637,0.15 -0.126,-0.075 -0.163,-0.2 -0.113,-0.375 0.05,-0.175 0.138,-0.211 0.263,-0.111 z"
   style="clip-rule:evenodd;fill:#fffb8c;fill-rule:evenodd" />
		<path
   inkscape:connector-curvature="0"
   id="path562"
   d="m 34.3,31.338 c 0.05,0.225 -0.075,0.325 -0.375,0.3 C 33.7,31.588 33.574,31.537 33.55,31.488 33.5,31.339 33.449,31.251 33.4,31.225 33.199,31.075 33.35,31 33.85,31 c 0.25,0 0.4,0.112 0.45,0.338 z"
   style="clip-rule:evenodd;fill:#fffb8c;fill-rule:evenodd" />
		<path
   inkscape:connector-curvature="0"
   id="path564"
   d="m 34.712,31.375 c 0.301,-0.025 0.413,0.05 0.338,0.225 -0.075,0.176 -0.212,0.238 -0.412,0.188 -0.2,-0.024 -0.275,-0.1 -0.226,-0.225 0.051,-0.125 0.151,-0.188 0.3,-0.188 z"
   style="clip-rule:evenodd;fill:#fffb8c;fill-rule:evenodd" />
		<path
   inkscape:connector-curvature="0"
   id="path566"
   d="m 33.662,31.713 c 0.1,0 0.125,0.037 0.075,0.112 -0.024,0.075 -0.112,0.112 -0.263,0.112 -0.149,-0.025 -0.199,-0.063 -0.149,-0.112 0.074,-0.05 0.188,-0.088 0.337,-0.112 z"
   style="clip-rule:evenodd;fill:#fffb8c;fill-rule:evenodd" />
		<path
   inkscape:connector-curvature="0"
   id="path568"
   d="m 38.537,35.088 c 0.375,0.074 0.438,0.188 0.188,0.337 -0.25,0.176 -0.5,0.2 -0.75,0.075 -0.25,-0.1 -0.3,-0.213 -0.149,-0.338 0.149,-0.099 0.387,-0.124 0.711,-0.074 z"
   style="clip-rule:evenodd;fill:#fffb8c;fill-rule:evenodd" />
		<path
   inkscape:connector-curvature="0"
   id="path570"
   d="m 39.287,35.237 c 0.35,-0.05 0.638,0.101 0.862,0.45 0.075,0.101 0.025,0.138 -0.149,0.112 -0.25,-0.05 -0.45,-0.05 -0.601,0 -0.2,0.075 -0.337,0.101 -0.412,0.075 -0.125,-0.05 -0.263,-0.112 -0.412,-0.188 -0.175,-0.075 -0.15,-0.162 0.074,-0.263 0.201,-0.098 0.414,-0.16 0.638,-0.186 z"
   style="clip-rule:evenodd;fill:#fffb8c;fill-rule:evenodd" />
		<path
   inkscape:connector-curvature="0"
   id="path572"
   d="m 38.013,35.688 c 0.175,-0.05 0.325,-0.037 0.449,0.037 0.126,0.101 0.101,0.15 -0.074,0.15 -0.301,0 -0.476,0 -0.525,0 -0.151,-0.025 -0.101,-0.087 0.15,-0.187 z"
   style="clip-rule:evenodd;fill:#fffb8c;fill-rule:evenodd" />
		<path
   inkscape:connector-curvature="0"
   id="path574"
   d="m 40.149,35.313 c 0.126,0.05 0.213,0.101 0.263,0.15 0.025,0.074 -0.037,0.1 -0.188,0.074 -0.149,-0.024 -0.199,-0.063 -0.149,-0.112 z"
   style="clip-rule:evenodd;fill:#fffb8c;fill-rule:evenodd" />
		<path
   inkscape:connector-curvature="0"
   id="path576"
   d="m 6.063,34.375 c 0.149,-0.274 0.325,-0.563 0.524,-0.862 0.375,-0.601 0.638,-0.938 0.788,-1.013 0.25,-0.125 0.575,0.05 0.975,0.525 0.2,0.5 0.15,1.137 -0.149,1.912 -0.4,0.975 -1.038,1.375 -1.913,1.2 -0.225,-0.05 -0.475,-0.162 -0.75,-0.338 L 5.2,35.537 c 0.35,-0.425 0.637,-0.812 0.863,-1.162 z"
   style="clip-rule:evenodd;fill:#915922;fill-rule:evenodd" />
		<path
   inkscape:connector-curvature="0"
   id="path578"
   d="m 17.274,29.537 c -0.899,0.125 -1.437,0.063 -1.612,-0.188 -0.1,-0.124 -0.175,-0.312 -0.225,-0.563 l -0.038,-0.375 0.375,-0.074 c 0.301,-0.075 0.625,-0.113 0.976,-0.113 l 0.787,-0.337 c 0.55,-0.226 0.925,-0.288 1.125,-0.188 0.325,0.149 0.425,0.462 0.3,0.938 -0.549,0.525 -1.112,0.826 -1.688,0.9 z"
   style="clip-rule:evenodd;fill:#915922;fill-rule:evenodd" />
		<path
   inkscape:connector-curvature="0"
   id="path580"
   d="m 13.375,33.888 0.638,-0.525 c 0.5,-0.3 0.887,-0.313 1.162,-0.037 0.35,0.325 0.412,0.8 0.188,1.425 -0.25,0.625 -0.65,1.112 -1.2,1.463 -0.45,0.274 -0.975,0.387 -1.575,0.337 -0.174,0 -0.524,-0.063 -1.05,-0.188 -0.125,-0.024 -0.275,-0.237 -0.45,-0.638 l -0.225,-0.6 c 0.25,-0.15 0.538,-0.313 0.862,-0.487 0.65,-0.375 1.2,-0.625 1.65,-0.75 z"
   style="clip-rule:evenodd;fill:#915922;fill-rule:evenodd" />
		<path
   inkscape:connector-curvature="0"
   id="path582"
   d="m 19.037,36.213 c 0.425,0.199 0.888,0.475 1.388,0.824 0.725,0.5 1.15,0.95 1.275,1.351 0.449,1.15 0.312,1.875 -0.413,2.175 -0.5,0.2 -1.087,0.237 -1.763,0.112 C 18.75,40.55 18.349,40.276 18.325,39.85 18.3,39.451 18.412,38.725 18.662,37.675 Z"
   style="clip-rule:evenodd;fill:#915922;fill-rule:evenodd" />
		<path
   inkscape:connector-curvature="0"
   id="path584"
   d="m 26.388,32.537 c 0.774,-0.425 1.374,-0.625 1.8,-0.6 0.425,0.025 0.737,0.2 0.938,0.525 l 0.225,0.712 c 0.051,0.176 -0.05,0.463 -0.3,0.862 -0.274,0.4 -0.538,0.688 -0.787,0.863 -0.45,0.325 -0.737,0.513 -0.863,0.563 -0.399,0.125 -0.787,-0.025 -1.162,-0.45 -0.375,-0.4 -0.612,-0.788 -0.713,-1.163 -0.074,-0.35 -0.124,-0.587 -0.149,-0.712 z"
   style="clip-rule:evenodd;fill:#915922;fill-rule:evenodd" />
		<path
   inkscape:connector-curvature="0"
   id="path586"
   d="m 28.712,27.7 3.413,0.899 c 0.25,0.075 0.362,0.363 0.337,0.863 l -0.112,0.375 c -0.075,0.25 -0.563,0.35 -1.462,0.3 -1.075,-0.125 -1.763,-0.4 -2.063,-0.825 -0.175,-0.25 -0.263,-0.588 -0.263,-1.013 10e-4,-0.399 0.05,-0.599 0.15,-0.599 z"
   style="clip-rule:evenodd;fill:#915922;fill-rule:evenodd" />
		<path
   inkscape:connector-curvature="0"
   id="path588"
   d="m 36.625,30.475 c 1.35,1.25 2.024,2.113 2.024,2.588 0,0.525 -0.375,0.513 -1.125,-0.037 C 36.625,32.425 36.05,31.75 35.8,31 c -0.125,-0.425 -0.063,-0.675 0.188,-0.75 0.101,-0.05 0.225,-0.05 0.375,0 z"
   style="clip-rule:evenodd;fill:#915922;fill-rule:evenodd" />
		<path
   inkscape:connector-curvature="0"
   id="path590"
   d="m 35.425,34.6 0.9,0.113 c 0.624,0.1 1.075,0.237 1.35,0.412 0.3,0.225 0.476,0.525 0.525,0.9 0.074,0.325 0.05,0.6 -0.075,0.824 -0.226,0.351 -0.788,0.525 -1.688,0.525 -0.375,0 -0.725,-0.125 -1.05,-0.375 -0.325,-0.274 -0.525,-0.588 -0.601,-0.938 -0.05,-0.274 -0.05,-0.588 0,-0.938 l 0.112,-0.45 z"
   style="clip-rule:evenodd;fill:#915922;fill-rule:evenodd" />
		<path
   inkscape:connector-curvature="0"
   id="path592"
   d="m 12.287,32.838 c 1.275,-0.676 2.188,-0.65 2.737,0.074 0.576,0.726 0.363,1.426 -0.637,2.101 -0.525,0.35 -0.951,0.575 -1.275,0.675 -0.525,0.15 -1.063,0.125 -1.612,-0.075 -0.625,-0.225 -0.85,-0.625 -0.675,-1.2 0.175,-0.6 0.662,-1.126 1.462,-1.575 z"
   style="clip-rule:evenodd;fill:#b36f2b;fill-rule:evenodd" />
		<path
   inkscape:connector-curvature="0"
   id="path594"
   d="m 16.938,27.475 c 0.825,-0.1 1.4,-0.063 1.725,0.113 0.25,0.125 0.288,0.287 0.112,0.487 -0.174,0.175 -0.563,0.35 -1.162,0.524 -0.725,0.226 -1.337,0.275 -1.838,0.15 -0.5,-0.1 -0.524,-0.325 -0.074,-0.675 0.399,-0.348 0.811,-0.549 1.237,-0.599 z"
   style="clip-rule:evenodd;fill:#b36f2b;fill-rule:evenodd" />
		<path
   inkscape:connector-curvature="0"
   id="path596"
   d="m 30.774,27.775 c 1.7,0.649 2.063,1.199 1.088,1.649 -0.325,0.15 -0.875,0.101 -1.65,-0.149 -0.8,-0.25 -1.313,-0.563 -1.537,-0.938 -0.225,-0.425 -0.112,-0.688 0.338,-0.788 0.449,-0.124 1.037,-0.049 1.761,0.226 z"
   style="clip-rule:evenodd;fill:#b36f2b;fill-rule:evenodd" />
		<path
   inkscape:connector-curvature="0"
   id="path598"
   d="m 26.725,31.487 c 1.525,0.075 2.288,0.5 2.288,1.275 0,0.225 -0.15,0.537 -0.45,0.938 -0.3,0.375 -0.613,0.675 -0.938,0.899 -0.3,0.226 -0.675,0.251 -1.125,0.075 -0.475,-0.175 -0.85,-0.5 -1.125,-0.975 -0.25,-0.45 -0.213,-0.95 0.112,-1.5 0.326,-0.499 0.738,-0.736 1.238,-0.712 z"
   style="clip-rule:evenodd;fill:#b36f2b;fill-rule:evenodd" />
		<path
   inkscape:connector-curvature="0"
   id="path600"
   d="M 7.375,32.5 C 8.15,32.601 8.225,33.163 7.6,34.188 7,35.213 6.326,35.725 5.576,35.725 4.9,35.725 4.938,35.175 5.688,34.076 6.438,32.95 7,32.425 7.375,32.5 Z"
   style="clip-rule:evenodd;fill:#b36f2b;fill-rule:evenodd" />
		<path
   inkscape:connector-curvature="0"
   id="path602"
   d="m 37.188,34.15 c 0.475,0.399 0.787,0.813 0.938,1.237 0.175,0.524 0.05,0.938 -0.375,1.237 -0.475,0.325 -1.088,0.3 -1.838,-0.075 -0.75,-0.399 -1.1,-0.912 -1.05,-1.537 0.05,-0.65 0.325,-1.063 0.825,-1.237 0.524,-0.175 1.025,-0.049 1.5,0.375 z"
   style="clip-rule:evenodd;fill:#b36f2b;fill-rule:evenodd" />
		<path
   inkscape:connector-curvature="0"
   id="path604"
   d="m 37.3,30.287 c 0.45,0.351 0.851,0.851 1.2,1.5 0.324,0.7 0.375,1.125 0.149,1.275 -0.2,0.15 -0.563,-0.05 -1.087,-0.6 -0.15,-0.2 -0.551,-0.726 -1.2,-1.575 -0.351,-0.45 -0.399,-0.75 -0.15,-0.9 0.226,-0.149 0.588,-0.049 1.088,0.3 z"
   style="clip-rule:evenodd;fill:#b36f2b;fill-rule:evenodd" />
		<path
   inkscape:connector-curvature="0"
   id="path606"
   d="m 18.813,36.138 c 0.425,0 0.975,0.3 1.649,0.899 0.676,0.626 1.013,1.176 1.013,1.65 0,0.55 -0.337,1.025 -1.013,1.425 -0.774,0.425 -1.625,0.45 -2.55,0.075 -0.95,-0.375 -1.225,-1.15 -0.825,-2.325 0.375,-1.149 0.951,-1.724 1.726,-1.724 z"
   style="clip-rule:evenodd;fill:#b36f2b;fill-rule:evenodd" />
		<path
   inkscape:connector-curvature="0"
   id="path608"
   d="m 12.175,29.237 c 0.825,-0.149 1.25,-0.063 1.275,0.263 0.05,0.325 -0.275,0.537 -0.976,0.638 -0.6,0.075 -0.875,-0.038 -0.825,-0.338 0.026,-0.3 0.201,-0.487 0.526,-0.563 z"
   style="clip-rule:evenodd;fill:#665223;fill-rule:evenodd" />
		<path
   inkscape:connector-curvature="0"
   id="path610"
   d="m 25.6,30.888 c 0.875,0.05 1.2,0.287 0.976,0.712 -0.275,0.45 -0.676,0.601 -1.2,0.45 -0.426,-0.1 -0.588,-0.325 -0.487,-0.675 0.123,-0.35 0.361,-0.513 0.711,-0.487 z"
   style="clip-rule:evenodd;fill:#665223;fill-rule:evenodd" />
		<path
   inkscape:connector-curvature="0"
   id="path612"
   d="m 19.975,31.638 c 0.9,0.2 1.1,0.5 0.601,0.899 -0.475,0.4 -0.988,0.525 -1.538,0.375 -0.475,-0.149 -0.55,-0.425 -0.225,-0.824 0.324,-0.4 0.711,-0.551 1.162,-0.45 z"
   style="clip-rule:evenodd;fill:#665223;fill-rule:evenodd" />
		<path
   inkscape:connector-curvature="0"
   id="path614"
   d="m 10.263,33.138 c 0.675,-0.025 0.912,0.175 0.712,0.6 -0.2,0.425 -0.538,0.638 -1.013,0.638 -0.425,0 -0.575,-0.2 -0.449,-0.6 0.099,-0.401 0.349,-0.613 0.75,-0.638 z"
   style="clip-rule:evenodd;fill:#665223;fill-rule:evenodd" />
		<path
   inkscape:connector-curvature="0"
   id="path616"
   d="m 17.688,33.325 c 0.7,-0.025 1,0.1 0.899,0.375 -0.074,0.3 -0.375,0.45 -0.899,0.45 -0.425,0 -0.613,-0.138 -0.563,-0.413 0.075,-0.274 0.263,-0.412 0.563,-0.412 z"
   style="clip-rule:evenodd;fill:#665223;fill-rule:evenodd" />
		<path
   inkscape:connector-curvature="0"
   id="path618"
   d="m 32.087,33.475 c 0.476,0.101 0.663,0.301 0.563,0.601 -0.124,0.325 -0.475,0.438 -1.05,0.337 -0.574,-0.074 -0.762,-0.274 -0.563,-0.6 0.2,-0.326 0.551,-0.438 1.05,-0.338 z"
   style="clip-rule:evenodd;fill:#665223;fill-rule:evenodd" />
		<path
   inkscape:connector-curvature="0"
   id="path620"
   d="m 34.6,30.213 c 0.475,0 0.713,0.138 0.713,0.412 0,0.25 -0.238,0.375 -0.713,0.375 -0.475,0 -0.699,-0.125 -0.675,-0.375 0.024,-0.25 0.25,-0.388 0.675,-0.412 z"
   style="clip-rule:evenodd;fill:#665223;fill-rule:evenodd" />
		<path
   inkscape:connector-curvature="0"
   id="path622"
   d="m 39.138,34.075 c 0.249,0.075 0.3,0.274 0.149,0.6 -0.125,0.325 -0.375,0.438 -0.75,0.338 -0.4,-0.101 -0.5,-0.313 -0.3,-0.638 0.201,-0.3 0.5,-0.4 0.901,-0.3 z"
   style="clip-rule:evenodd;fill:#665223;fill-rule:evenodd" />
		<path
   inkscape:connector-curvature="0"
   id="path624"
   d="m 15.138,36.662 c 0.3,-0.399 0.587,-0.425 0.862,-0.074 0.25,0.35 0.225,0.587 -0.075,0.712 -0.25,0.125 -0.487,0.101 -0.713,-0.075 -0.225,-0.175 -0.25,-0.363 -0.074,-0.563 z"
   style="clip-rule:evenodd;fill:#665223;fill-rule:evenodd" />
		<path
   inkscape:connector-curvature="0"
   id="path626"
   d="m 25.825,36.888 c 0.6,0 0.837,0.175 0.712,0.524 -0.1,0.375 -0.425,0.538 -0.975,0.488 -0.5,-0.025 -0.65,-0.2 -0.45,-0.525 0.175,-0.325 0.412,-0.487 0.713,-0.487 z"
   style="clip-rule:evenodd;fill:#665223;fill-rule:evenodd" />
		<path
   inkscape:connector-curvature="0"
   id="path628"
   d="m 25.6,27.775 c 0.65,0 0.95,0.125 0.9,0.375 -0.075,0.25 -0.375,0.399 -0.9,0.449 -0.45,0.025 -0.638,-0.112 -0.563,-0.412 0.1,-0.274 0.287,-0.412 0.563,-0.412 z"
   style="clip-rule:evenodd;fill:#665223;fill-rule:evenodd" />
		<path
   inkscape:connector-curvature="0"
   id="path630"
   d="m 27.888,27.175 c 0.449,0.176 0.624,0.363 0.524,0.563 -0.1,0.2 -0.375,0.25 -0.825,0.15 -0.425,-0.101 -0.563,-0.275 -0.412,-0.525 0.151,-0.25 0.388,-0.313 0.713,-0.188 z"
   style="clip-rule:evenodd;fill:#665223;fill-rule:evenodd" />
		<path
   inkscape:connector-curvature="0"
   id="path632"
   d="m 30.85,37.675 c 0.426,0.101 0.588,0.275 0.487,0.525 -0.074,0.25 -0.287,0.337 -0.637,0.263 -0.301,-0.101 -0.425,-0.263 -0.375,-0.488 0.05,-0.25 0.225,-0.35 0.525,-0.3 z"
   style="clip-rule:evenodd;fill:#665223;fill-rule:evenodd" />
		<path
   inkscape:connector-curvature="0"
   id="path634"
   d="m 41.688,34.487 h 1.274 l 0.075,0.601 c 0,1.899 -1.925,3.524 -5.774,4.875 -3.851,1.35 -8.501,2.024 -13.95,2.024 -5.45,0 -10.1,-0.675 -13.95,-2.024 -3.85,-1.351 -5.775,-2.976 -5.775,-4.875 0,-0.275 0.025,-0.476 0.075,-0.601 h 1.425 v 0.338 c 0,1.7 1.788,3.138 5.363,4.313 3.575,1.2 7.887,1.8 12.938,1.8 5.075,0 9.399,-0.6 12.975,-1.8 3.575,-1.175 5.362,-2.612 5.362,-4.313 z"
   style="clip-rule:evenodd;fill:#ffffff;fill-rule:evenodd" />
	</g>
</svg>