<?xml version="1.0" encoding="UTF-8" standalone="no"?>
<!-- Generator: Adobe Illustrator 15.1.0, SVG Export Plug-In . SVG Version: 6.00 Build 0)  -->

<svg
   xmlns:dc="http://purl.org/dc/elements/1.1/"
   xmlns:cc="http://creativecommons.org/ns#"
   xmlns:rdf="http://www.w3.org/1999/02/22-rdf-syntax-ns#"
   xmlns:svg="http://www.w3.org/2000/svg"
   xmlns="http://www.w3.org/2000/svg"
   xmlns:sodipodi="http://sodipodi.sourceforge.net/DTD/sodipodi-0.dtd"
   xmlns:inkscape="http://www.inkscape.org/namespaces/inkscape"
   version="1.1"
   id="flash0.ai"
   x="0px"
   y="0px"
   width="256"
   height="256"
   viewBox="0 0 255.99999 256"
   xml:space="preserve"
   sodipodi:docname="seed_veggies_01.svg"
   inkscape:version="0.92.4 (5da689c313, 2019-01-14)"><title
   id="title916">Veggie Seed</title><metadata
   id="metadata109"><rdf:RDF><cc:Work
       rdf:about=""><dc:format>image/svg+xml</dc:format><dc:type
         rdf:resource="http://purl.org/dc/dcmitype/StillImage" /><dc:title>Veggie Seed</dc:title><cc:license
         rdf:resource="http://creativecommons.org/publicdomain/zero/1.0/" /><dc:creator><cc:Agent><dc:title>Glitch</dc:title></cc:Agent></dc:creator><dc:source>https://opengameart.org/node/20149</dc:source></cc:Work><cc:License
       rdf:about="http://creativecommons.org/publicdomain/zero/1.0/"><cc:permits
         rdf:resource="http://creativecommons.org/ns#Reproduction" /><cc:permits
         rdf:resource="http://creativecommons.org/ns#Distribution" /><cc:permits
         rdf:resource="http://creativecommons.org/ns#DerivativeWorks" /></cc:License></rdf:RDF></metadata><defs
   id="defs107" /><sodipodi:namedview
   pagecolor="#ffffff"
   bordercolor="#666666"
   borderopacity="1"
   objecttolerance="10"
   gridtolerance="10"
   guidetolerance="10"
   inkscape:pageopacity="0"
   inkscape:pageshadow="2"
   inkscape:window-width="1920"
   inkscape:window-height="1025"
   id="namedview105"
   showgrid="false"
   inkscape:zoom="1.347032"
   inkscape:cx="107.65831"
   inkscape:cy="61.937568"
   inkscape:window-x="-8"
   inkscape:window-y="-8"
   inkscape:window-maximized="1"
   inkscape:current-layer="flash0.ai"
   fit-margin-top="0"
   fit-margin-left="0"
   fit-margin-right="0"
   fit-margin-bottom="0" />
<g
   id="g102"
   transform="matrix(7.5713254,0,0,7.5713254,-2.0841411,-74.198989)">
	<g
   id="g30">
		<path
   style="clip-rule:evenodd;fill:#a3793a;fill-rule:evenodd"
   d="m 29.25,16 c 0,0.9 0.116,3.167 0.35,6.8 0.233,4.101 0.45,6.7 0.65,7.8 0.233,1.434 0.366,3.284 0.4,5.551 0.033,2.466 -0.101,3.899 -0.4,4.3 -0.066,0.1 -0.25,0.583 -0.55,1.45 -0.2,0.6 -0.55,1.033 -1.05,1.3 -0.601,0.3 -4.367,0.416 -11.301,0.35 -6.866,-0.066 -10.899,-0.233 -12.1,-0.5 -0.967,-0.2 -1.483,-1.066 -1.55,-2.6 0,-0.033 0.1,-1.434 0.3,-4.2 L 4.9,25 C 5.233,23.267 5.4,20.217 5.4,15.85 5.4,15.483 5.817,15.067 6.65,14.6 7.083,14.367 7.5,14.167 7.9,14 L 5.85,13.5 6.05,9.8 13.7,10 c 3.733,0 8.767,0.05 15.1,0.15 l 0.4,3.2 -0.95,0.8 0.5,0.5 c 0.333,0.433 0.5,0.883 0.5,1.35 z"
   id="path2"
   inkscape:connector-curvature="0" />
		<path
   style="clip-rule:evenodd;fill:#8e6a33;fill-rule:evenodd"
   d="m 25.45,35.9 0.2,0.399 1.449,4.5 c 0.334,0.867 0.517,1.384 0.551,1.55 0.166,0.534 0.149,0.867 -0.051,1 -0.166,0.134 -0.916,0.217 -2.25,0.25 -1.633,0 -2.75,0 -3.35,0 -0.634,0.034 -1.833,0 -3.6,-0.1 -2,-0.1 -3.25,-0.15 -3.75,-0.15 -4.2,0 -6.883,-0.1 -8.05,-0.3 -0.967,-0.2 -1.45,-0.583 -1.45,-1.149 l 0.3,-0.851 0.4,0.45 c 0.4,0.3 0.983,0.45 1.75,0.45 0.8,0 2.667,-0.134 5.6,-0.4 0.633,-0.066 1.066,-0.316 1.3,-0.75 0.2,-0.434 0.383,-0.649 0.55,-0.649 0.233,-0.034 0.617,0.033 1.15,0.199 0.633,0.2 1.267,0.317 1.899,0.351 0.7,0.033 1.267,-0.05 1.7,-0.25 0.267,-0.101 0.8,-0.351 1.601,-0.75 0.699,-0.233 1.1,-0.667 1.199,-1.3 l -0.05,-0.851 0.352,0.601 c 0.3,0.366 0.666,0.416 1.1,0.149 0.7,-0.433 1.184,-1.233 1.45,-2.399 z"
   id="path4"
   inkscape:connector-curvature="0" />
		<path
   style="clip-rule:evenodd;fill:#c79346;fill-rule:evenodd"
   d="m 9.25,15 c 0.3,0 0.85,0.083 1.65,0.25 0.833,0.167 1.467,0.25 1.9,0.25 0.4,0 1.417,-0.067 3.05,-0.2 1.8,-0.1 3.466,-0.066 5,0.1 0.967,0.133 2.534,0.167 4.7,0.1 -0.5,0.567 -1.033,1.2 -1.6,1.9 -1.101,1.434 -1.783,2.567 -2.05,3.4 -0.167,0.567 -0.4,1.834 -0.7,3.8 -0.267,1.667 -0.517,2.667 -0.75,3 -0.2,0.267 -1.05,0.467 -2.55,0.601 -1.567,0.133 -2.55,0.399 -2.95,0.8 -2.233,2.333 -3.517,3.917 -3.85,4.75 -0.133,0.434 -0.667,0.8 -1.6,1.1 -1.167,0.367 -1.933,0.684 -2.3,0.95 -0.5,0.367 -1.117,1.15 -1.85,2.351 L 4.4,39.8 4.7,37.95 c 0.033,-0.167 0.066,-0.934 0.1,-2.3 0.034,-1.301 0.15,-2.267 0.35,-2.9 0.2,-0.566 0.3,-1.366 0.3,-2.4 0.033,-1.233 0.083,-2.083 0.15,-2.55 0.133,-0.666 0.217,-2.233 0.25,-4.7 0.066,-2.733 0.1,-4.167 0.1,-4.3 l 0.2,-3.4 z"
   id="path6"
   inkscape:connector-curvature="0" />
		<path
   style="clip-rule:evenodd;fill:#694e26;fill-rule:evenodd"
   d="m 23.3,23.2 c 0.2,2.233 0.283,3.616 0.25,4.149 -0.033,0.667 -0.05,1.801 -0.05,3.4 0,1.599 0.017,2.483 0.05,2.65 0.033,0.133 0.566,0.333 1.601,0.6 0.533,0.1 1.05,0.2 1.55,0.3 -1.233,0.2 -2,0.467 -2.3,0.8 -0.2,0.2 -0.267,0.967 -0.2,2.301 0.066,0.666 0.133,1.3 0.2,1.899 -2.301,-0.3 -4.467,-0.333 -6.5,-0.1 -1.067,0.133 -2.384,0.133 -3.95,0 -1.434,-0.167 -2.3,-0.25 -2.6,-0.25 -0.333,0 -1.1,-0.184 -2.3,-0.55 L 7.35,37.8 22.9,18.9 Z"
   id="path8"
   inkscape:connector-curvature="0" />
		<path
   style="clip-rule:evenodd;fill:#7a5a2b;fill-rule:evenodd"
   d="m 29.25,16 c 0,0.9 0.116,3.167 0.35,6.8 0.233,4.101 0.45,6.7 0.65,7.8 0.233,1.434 0.366,3.284 0.4,5.551 0.033,2.466 -0.101,3.899 -0.4,4.3 -0.066,0.1 -0.25,0.583 -0.55,1.45 -0.2,0.6 -0.55,1.033 -1.05,1.3 -0.634,0.033 -1.233,-1.316 -1.801,-4.05 -0.566,-2.7 -0.733,-4.801 -0.5,-6.301 0.2,-1.1 0.2,-4.017 0,-8.75 -0.233,-4.766 -0.333,-7.233 -0.3,-7.399 0.066,-0.4 0.25,-0.817 0.55,-1.25 0.267,-0.4 0.4,-0.65 0.4,-0.75 0,-0.667 0.283,-1.167 0.85,-1.5 0.4,-0.233 0.5,-1.217 0.301,-2.95 l 0.5,-0.1 h 0.15 l 0.4,3.2 -0.95,0.8 0.5,0.5 c 0.333,0.432 0.5,0.882 0.5,1.349 z"
   id="path10"
   inkscape:connector-curvature="0" />
		<polygon
   style="clip-rule:evenodd;fill:#57401f;fill-rule:evenodd"
   points="28.15,10.25 28.55,10.2 29.2,13.35 27.9,13.65 28.15,11.75 "
   id="polygon12" />
		<path
   style="clip-rule:evenodd;fill:#7a5a2b;fill-rule:evenodd"
   d="m 9.15,14.35 c -0.466,0 -1.2,0.15 -2.2,0.45 L 5.65,15.2 6.25,14.15 5.85,13.5 9,13.6 c 2.3,0.066 3.9,0.066 4.8,0 1.467,-0.133 5.134,-0.167 11,-0.1 1.467,-0.067 2.75,-0.033 3.851,0.1 l -1.15,0.9 c -3.233,0.1 -5.684,0.133 -7.35,0.1 z"
   id="path14"
   inkscape:connector-curvature="0" />
		<path
   style="clip-rule:evenodd;fill:#694e26;fill-rule:evenodd"
   d="M 28.05,43.15 27.2,43.5 H 17 C 10.067,43.5 6.15,43.35 5.25,43.05 4.684,42.85 4.233,42.384 3.9,41.651 l -0.3,-1 1.1,0.899 c 0.833,0.634 1.533,0.983 2.1,1.05 1.4,0.134 3.034,0.167 4.9,0.101 1.1,-0.033 2.633,-0.117 4.6,-0.25 1.033,-0.066 2.066,-0.283 3.101,-0.65 1.1,-0.366 1.883,-0.566 2.35,-0.6 1.167,-0.134 2.55,-0.134 4.15,0 z"
   id="path16"
   inkscape:connector-curvature="0" />
		<path
   style="clip-rule:evenodd;fill:#c79346;fill-rule:evenodd"
   d="m 21.9,10.9 c -1.167,0.033 -3.617,0.233 -7.351,0.6 L 9.25,12 15.9,12.45 c 1.034,-0.067 4.8,0.017 11.3,0.25 l -8.7,0.05 c -1.467,0.067 -3.867,0.1 -7.2,0.1 L 6.35,13 v -2.95 l 3.55,0.2 c 2.633,0.1 4.667,0.15 6.1,0.15 h 9.25 c 0.9,0 1.667,-0.033 2.3,-0.1 l 0.2,0.35 z"
   id="path18"
   inkscape:connector-curvature="0" />
		<polygon
   style="clip-rule:evenodd;fill:#7a5a2b;fill-rule:evenodd"
   points="28.35,12.85 17.65,11.3 28.25,11.15 "
   id="polygon20" />
		<path
   style="clip-rule:evenodd;fill:#d69e4c;fill-rule:evenodd"
   d="m 28.55,10.2 -1,0.5 C 23.984,10.666 20.417,10.617 16.85,10.55 9.717,10.417 6.15,10.317 6.15,10.25 L 6.05,9.8 Z"
   id="path22"
   inkscape:connector-curvature="0" />
		<path
   style="clip-rule:evenodd;fill:#c28f44;fill-rule:evenodd"
   d="m 26.25,15.6 0.1,3.4 c 0.233,1.533 0.351,2.833 0.351,3.9 V 32 c 0,0.134 -0.033,1.333 -0.101,3.6 0,2.267 0.067,3.667 0.2,4.2 0.2,0.834 0.816,1.967 1.851,3.4 L 27.1,41.95 c -0.267,-0.2 -0.5,-0.65 -0.699,-1.351 -0.067,-0.199 -0.217,-0.916 -0.45,-2.149 -0.167,-0.767 -0.25,-1.967 -0.25,-3.601 -0.033,-1.699 0.05,-2.816 0.25,-3.35 0.166,-0.467 0.184,-2.2 0.05,-5.2 -0.167,-3.1 -0.25,-4.883 -0.25,-5.35 z"
   id="path24"
   inkscape:connector-curvature="0" />
		<path
   style="clip-rule:evenodd;fill:#57401f;fill-rule:evenodd"
   d="m 26.7,32 0.899,2.5 c 0.267,0.467 0.434,0.75 0.5,0.85 0.233,0.301 0.584,0.601 1.051,0.9 0.399,0.233 0.433,-0.134 0.1,-1.1 -0.4,-1.167 -0.517,-1.851 -0.35,-2.051 0.333,-0.466 0.666,-2.133 1,-5 l 0.199,1.25 c 0.134,0.967 0.284,1.684 0.45,2.15 0.267,0.767 0.283,3.583 0.05,8.45 0,0.3 -0.199,0.916 -0.6,1.85 -0.2,0.434 -0.583,0.783 -1.15,1.05 -0.966,-1.366 -1.649,-2.383 -2.05,-3.05 -0.267,-0.399 -0.366,-1.816 -0.3,-4.25 z"
   id="path26"
   inkscape:connector-curvature="0" />
		<path
   style="clip-rule:evenodd;fill:#57401f;fill-rule:evenodd"
   d="m 29.4,14.85 c 0.267,0.467 0.267,1.783 0,3.95 l -1.351,-1.05 -0.25,3.2 c -0.267,-1.767 -0.533,-2.617 -0.8,-2.55 -0.167,0.033 -0.283,0.45 -0.35,1.25 -0.034,0.4 -0.051,0.783 -0.051,1.15 -0.366,-2 -0.55,-3.367 -0.55,-4.1 0,-0.467 0.167,-0.934 0.5,-1.4 0.134,-0.233 0.283,-0.433 0.45,-0.6 l -7.25,-0.8 5.35,-0.05 c 1.134,-0.067 1.867,-0.184 2.2,-0.35 l 1.9,-0.15 -0.25,0.7 z"
   id="path28"
   inkscape:connector-curvature="0" />
	</g>
	<g
   id="g96">
		<path
   style="clip-rule:evenodd;fill:#295224;fill-rule:evenodd"
   d="m 26.5,34.5 c -5.733,-0.233 -9.366,-0.35 -10.9,-0.35 -0.967,0 -3.15,-0.117 -6.55,-0.351 L 4.3,33.45 l 0.6,-6.101 11.15,0.45 c 2.5,0.167 5.867,0.167 10.101,0 l 3.6,-2.45 0.15,2.75 c 0.166,0.767 0.283,1.601 0.35,2.5 -0.634,0.667 -1.267,1.384 -1.9,2.15 -0.233,0.333 -0.616,0.733 -1.149,1.2 z"
   id="path32"
   inkscape:connector-curvature="0" />
		<path
   style="clip-rule:evenodd;fill:#1a3317;fill-rule:evenodd"
   d="m 28.35,32.75 c -0.466,0.566 -1,1.083 -1.6,1.55 C 26.684,32.967 26.667,32.2 26.7,32 l -0.05,-4.55 3.1,-2.101 0.15,2.75 c 0.166,0.767 0.283,1.601 0.35,2.5 -0.634,0.668 -1.267,1.384 -1.9,2.151 z"
   id="path34"
   inkscape:connector-curvature="0" />
		<path
   style="clip-rule:evenodd;fill:#baa436;fill-rule:evenodd"
   d="M 26.35,33.55 4.3,32.65 4.65,28.2 l 21.95,0.55 3.15,-2.35 0.4,3.3 c -0.567,0.866 -1.2,1.566 -1.9,2.1 z"
   id="path36"
   inkscape:connector-curvature="0" />
		<path
   style="clip-rule:evenodd;fill:#295224;fill-rule:evenodd"
   d="M 10.45,38.6 7.15,38.2 C 7.283,32.6 7.4,28.833 7.5,26.9 l 0.55,-8.8 h 7.9 c 2.3,0 4.767,0.133 7.399,0.4 l -0.05,3.95 c -0.033,2.833 -0.017,4.8 0.05,5.899 0.134,1.767 0.317,5.317 0.551,10.65 -3.334,-0.267 -5.983,-0.333 -7.95,-0.2 -1.233,0.101 -3.067,0.034 -5.5,-0.199 z"
   id="path38"
   inkscape:connector-curvature="0" />
		<path
   style="clip-rule:evenodd;fill:#d6c73e;fill-rule:evenodd"
   d="m 10.75,38.15 -3.1,-0.4 c 0.1,-5.366 0.2,-8.967 0.3,-10.8 l 0.5,-8.45 h 7.5 c 2.166,0 4.483,0.133 6.95,0.4 l -0.051,3.75 c -0.033,2.699 -0.017,4.583 0.051,5.649 0.133,1.733 0.3,5.15 0.5,10.25 -3.134,-0.267 -5.617,-0.333 -7.45,-0.2 -1.167,0.101 -2.9,0.035 -5.2,-0.199 z"
   id="path40"
   inkscape:connector-curvature="0" />
		<path
   style="clip-rule:evenodd;fill:#f0c9a6;fill-rule:evenodd"
   d="M 9.4,19.25 H 16 c 1.9,0 3.934,0.117 6.1,0.35 l -0.05,3.5 c -0.033,2.534 -0.017,4.284 0.05,5.25 l 0.45,9.5 C 19.783,37.616 17.6,37.566 16,37.7 c -1.033,0.066 -2.55,0 -4.55,-0.2 L 8.7,37.15 C 8.8,32.15 8.9,28.8 9,27.1 Z"
   id="path42"
   inkscape:connector-curvature="0" />
		<path
   style="clip-rule:evenodd;fill:#c9a98c;fill-rule:evenodd"
   d="m 22.05,26.5 0.5,11.35 C 19.783,37.616 17.6,37.566 16,37.7 c -1.033,0.066 -2.55,0 -4.55,-0.2 L 8.7,37.15 8.75,34.7 c 1.867,-1.134 3.367,-1.95 4.5,-2.45 1.7,-0.7 3.217,-1.566 4.55,-2.6 l 4.1,-3.1 z"
   id="path44"
   inkscape:connector-curvature="0" />
		<path
   style="clip-rule:evenodd;fill:#baa436;fill-rule:evenodd"
   d="m 22.95,28.65 3.649,0.1 -0.25,4.8 -3.05,-0.1 c -0.133,-0.634 -0.2,-1.066 -0.2,-1.3 z"
   id="path46"
   inkscape:connector-curvature="0" />
		<g
   id="g62">
			<path
   style="clip-rule:evenodd;fill:#7eb03e;fill-rule:evenodd"
   d="m 19.4,29.9 c 0.166,0.399 0.199,0.833 0.1,1.3 -0.134,0.533 -0.45,1 -0.95,1.399 C 17.983,33 17.066,33.2 15.8,33.2 c -1.233,0 -2.017,-0.167 -2.35,-0.5 -1.067,-1.066 -1.483,-1.967 -1.25,-2.7 0.1,-0.833 0.233,-1.434 0.4,-1.8 0.333,-0.667 1.05,-1.101 2.15,-1.3 1.1,-0.2 2.1,-0.117 3,0.25 0.434,0.166 0.767,0.366 1,0.6 z"
   id="path48"
   inkscape:connector-curvature="0" />
			<path
   style="clip-rule:evenodd;fill:#60872c;fill-rule:evenodd"
   d="m 19.4,31.3 c -0.134,0.7 -0.217,1.084 -0.25,1.15 -0.134,0.2 -0.567,0.399 -1.301,0.6 -1,0.3 -1.683,0.483 -2.05,0.55 -0.6,0.134 -1.133,0.15 -1.6,0.051 -0.8,-0.167 -1.45,-0.7 -1.95,-1.601 -0.167,-0.267 -0.35,-0.434 -0.55,-0.5 l -0.3,-0.05 1.4,-0.2 c 0.2,-0.066 0.417,0.134 0.65,0.601 0.233,0.5 0.633,0.733 1.2,0.699 0.7,-0.033 1.317,-0.449 1.85,-1.25 0.5,-0.733 0.667,-1.316 0.5,-1.75 -0.333,-0.8 -0.233,-1.399 0.3,-1.8 0.267,-0.166 0.566,-0.267 0.9,-0.3 v 0.15 c 0.033,0.166 0.233,0.35 0.6,0.55 0.635,0.333 0.835,1.366 0.601,3.1 z"
   id="path50"
   inkscape:connector-curvature="0" />
			<path
   style="clip-rule:evenodd;fill:#97d245;fill-rule:evenodd"
   d="m 16.3,27 c 1.134,-0.134 0.917,0.384 -0.65,1.55 -0.066,0.2 -0.066,0.584 0,1.15 0.034,0.434 -0.083,0.733 -0.35,0.899 -0.233,0.134 -0.417,0 -0.55,-0.399 -0.167,-0.5 -0.467,-0.767 -0.9,-0.8 -0.5,-0.034 -0.833,0.183 -1,0.649 -0.1,0.233 -0.15,0.467 -0.15,0.7 -0.034,-0.233 -0.05,-0.517 -0.05,-0.85 0,-0.7 0.15,-1.301 0.45,-1.801 0.267,-0.5 0.883,-0.833 1.85,-1 C 15.417,27.033 15.867,27 16.3,27 Z"
   id="path52"
   inkscape:connector-curvature="0" />
			<path
   style="clip-rule:evenodd;fill:#97d245;fill-rule:evenodd"
   d="m 17.1,27.5 c 0.2,0.233 0.117,0.583 -0.25,1.05 -0.187,0.24 -0.253,0.456 -0.2,0.65 -0.167,-0.222 -0.25,-0.438 -0.25,-0.65 0,-0.2 0.117,-0.434 0.35,-0.7 C 16.883,27.717 17,27.6 17.1,27.5 Z"
   id="path54"
   inkscape:connector-curvature="0" />
			<path
   style="clip-rule:evenodd;fill:#60872c;fill-rule:evenodd"
   d="m 16.65,27.05 -0.6,1.55 c -0.167,0.467 -0.083,0.867 0.25,1.2 L 15.1,30 c 0,-0.2 0.017,-0.434 0.05,-0.7 0.067,-0.533 0.2,-0.899 0.4,-1.1 z"
   id="path56"
   inkscape:connector-curvature="0" />
			<g
   id="g60">
				<path
   style="clip-rule:evenodd;fill:none;fill-rule:evenodd;stroke:#231f20;stroke-width:0.5;stroke-miterlimit:10"
   d="m 19.5,30.3 c 0.066,-1.066 -0.15,-1.75 -0.65,-2.05 l -0.1,-0.5 C 18.35,27.384 17.767,27.1 17,26.9 c 0.033,-0.034 0,-0.034 -0.1,0 -0.566,-0.167 -1.283,-0.167 -2.15,0 -1.1,0.199 -1.816,0.633 -2.15,1.3 -0.167,0.366 -0.3,0.967 -0.4,1.8 -0.133,0.467 -0.067,0.934 0.2,1.4 l -0.9,0.1 c 0.267,0 0.517,0.184 0.75,0.55 0.5,0.9 1.15,1.434 1.95,1.601 0.466,0.1 1,0.083 1.6,-0.051 0.367,-0.066 1.05,-0.25 2.05,-0.55 0.667,-0.2 1.084,-0.383 1.25,-0.55 0.101,-0.1 0.184,-0.384 0.25,-0.85 0.167,-0.4 0.216,-0.85 0.15,-1.35 z"
   id="path58"
   inkscape:connector-curvature="0" />
			</g>
		</g>
		<g
   id="g78">
			<path
   style="clip-rule:evenodd;fill:#e7b153;fill-rule:evenodd"
   d="m 16.555,31.407 c 0.533,0.854 0.507,2.147 -0.08,3.88 -0.08,0.213 -0.053,0.36 0.08,0.439 l -1.48,0.32 c -0.88,0.188 -1.573,0.24 -2.08,0.16 -0.96,-0.133 -1.626,-0.626 -2,-1.48 -0.32,-0.826 -0.347,-1.612 -0.08,-2.358 0.346,-0.694 0.546,-1.174 0.6,-1.441 0.319,-0.453 0.213,-0.786 -0.32,-1 -0.32,-0.105 -0.707,-0.119 -1.16,-0.039 l -0.56,0.199 c -0.053,-0.133 -0.08,-0.266 -0.08,-0.399 0.026,-0.293 0.2,-0.453 0.52,-0.479 0.506,-0.027 1.027,0.053 1.56,0.239 -0.08,-0.053 -0.146,-0.134 -0.2,-0.239 -0.133,-0.24 -0.12,-0.508 0.041,-0.801 0.16,-0.293 0.373,-0.52 0.64,-0.68 0.133,-0.106 0.253,-0.173 0.36,-0.2 l -0.16,0.44 c -0.133,0.319 -0.2,0.572 -0.2,0.76 0.026,0.16 0.026,0.44 0,0.84 0.053,0.347 0.347,0.507 0.879,0.48 1.094,-0.08 1.734,-0.094 1.92,-0.04 0.693,0.133 1.293,0.599 1.8,1.399 z"
   id="path64"
   inkscape:connector-curvature="0" />
			<path
   style="clip-rule:evenodd;fill:#bf8c37;fill-rule:evenodd"
   d="m 12.995,36.207 c -0.96,-0.133 -1.626,-0.626 -2,-1.48 -0.4,-0.986 -0.333,-1.999 0.2,-3.039 0.08,-0.087 0.153,-0.18 0.22,-0.28 -0.108,0.637 -0.088,1.25 0.06,1.84 0.133,0.561 0.227,0.987 0.28,1.28 0.027,0.027 0.466,0.293 1.32,0.8 0.454,0.267 0.88,0.32 1.28,0.16 0.187,-0.106 0.573,-0.413 1.16,-0.92 0.613,-0.507 0.959,-1.066 1.04,-1.68 -0.053,-0.16 -0.08,-0.333 -0.08,-0.52 0,-0.374 0.094,-0.574 0.28,-0.601 0.213,0.56 0.24,1.28 0.08,2.159 -0.08,0.454 -0.2,0.907 -0.36,1.36 -0.08,0.213 -0.053,0.36 0.08,0.439 l -1.48,0.32 c -0.88,0.189 -1.573,0.242 -2.08,0.162 z"
   id="path66"
   inkscape:connector-curvature="0" />
			<path
   style="clip-rule:evenodd;fill:#d69c3e;fill-rule:evenodd"
   d="m 11.715,30.447 0.52,1.479 c 0.48,1.014 1.08,1.654 1.8,1.921 1.147,0.399 1.88,0.399 2.2,0 -0.293,0.533 -0.68,0.973 -1.16,1.32 -0.987,0.719 -1.933,0.666 -2.84,-0.16 -0.906,-0.827 -1.267,-1.84 -1.08,-3.04 z"
   id="path68"
   inkscape:connector-curvature="0" />
			<path
   style="clip-rule:evenodd;fill:#bf8c37;fill-rule:evenodd"
   d="m 15.415,35.427 c -1.274,0.074 -2.215,-0.292 -2.82,-1.1 -0.4,-0.533 -0.64,-1.253 -0.72,-2.159 l -0.04,-1.2 0.2,1.159 c 0.267,0.907 0.681,1.613 1.24,2.12 0.849,0.778 1.562,1.172 2.14,1.18 z"
   id="path70"
   inkscape:connector-curvature="0" />
			<path
   style="clip-rule:evenodd;fill:#bf8c37;fill-rule:evenodd"
   d="m 16.274,34.308 c 0.006,-0.254 -0.047,-0.527 -0.159,-0.82 -0.213,-0.747 -0.627,-1.319 -1.241,-1.72 -0.613,-0.427 -1.2,-0.747 -1.759,-0.96 l -0.681,-0.2 1.16,0.2 c 0.827,0.187 1.44,0.427 1.84,0.72 0.621,0.439 0.9,1.366 0.84,2.78 z"
   id="path72"
   inkscape:connector-curvature="0" />
			<path
   style="clip-rule:evenodd;fill:#ffd9a0;fill-rule:evenodd"
   d="m 14.035,30.487 c 0.347,0.026 0.587,0.12 0.72,0.28 l -0.34,-0.141 c 0.66,0.29 1.041,0.684 1.14,1.181 -0.32,0 -0.546,-0.014 -0.68,-0.04 l 0.081,0.2 c -0.56,-0.187 -0.947,-0.28 -1.16,-0.28 -0.027,0.239 0,0.521 0.08,0.84 l -0.64,-0.08 c -0.053,0.24 -0.12,0.601 -0.2,1.08 -0.026,-0.026 -0.213,-0.253 -0.56,-0.68 -0.08,0.267 -0.213,0.493 -0.4,0.68 l 0.041,-0.68 c -0.16,0.16 -0.294,0.387 -0.4,0.68 -0.054,0.187 -0.134,0.453 -0.241,0.8 -0.053,-0.293 -0.04,-0.653 0.041,-1.08 0.08,-0.426 0.187,-0.773 0.319,-1.039 v 0.119 c 0.213,-0.133 0.387,-0.307 0.521,-0.52 l 0.08,0.439 0.16,-0.68 0.32,0.28 0.08,-0.601 c 0.107,0.16 0.24,0.24 0.4,0.24 0.133,0 0.213,-0.106 0.24,-0.319 0.026,-0.16 -0.027,-0.28 -0.16,-0.36 -0.133,-0.08 -0.227,-0.174 -0.28,-0.28 0.238,-0.079 0.518,-0.091 0.838,-0.039 z"
   id="path74"
   inkscape:connector-curvature="0" />
			<path
   style="clip-rule:evenodd;fill:none;fill-rule:evenodd;stroke:#231f20;stroke-width:0.5;stroke-miterlimit:10"
   d="m 16.555,31.407 c 0.533,0.854 0.507,2.147 -0.08,3.88 -0.08,0.213 -0.053,0.36 0.08,0.439 l -1.48,0.32 c -0.88,0.188 -1.573,0.24 -2.08,0.16 -0.96,-0.133 -1.626,-0.626 -2,-1.48 -0.32,-0.826 -0.347,-1.612 -0.08,-2.358 0.346,-0.694 0.546,-1.174 0.6,-1.441 0.319,-0.453 0.213,-0.786 -0.32,-1 -0.32,-0.105 -0.707,-0.119 -1.16,-0.039 l -0.56,0.199 c -0.053,-0.133 -0.08,-0.266 -0.08,-0.399 0.026,-0.293 0.2,-0.453 0.52,-0.479 0.506,-0.027 1.027,0.053 1.56,0.239 -0.08,-0.053 -0.146,-0.134 -0.2,-0.239 -0.133,-0.24 -0.12,-0.508 0.041,-0.801 0.16,-0.293 0.373,-0.52 0.64,-0.68 0.133,-0.106 0.253,-0.173 0.36,-0.2 l -0.16,0.44 c -0.133,0.319 -0.2,0.572 -0.2,0.76 0.026,0.16 0.026,0.44 0,0.84 0.053,0.347 0.347,0.507 0.879,0.48 1.094,-0.08 1.734,-0.094 1.92,-0.04 0.693,0.133 1.293,0.599 1.8,1.399 z"
   id="path76"
   inkscape:connector-curvature="0" />
		</g>
		<g
   id="g94">
			<g
   id="g90">
				<path
   style="clip-rule:evenodd;fill:#43853b;fill-rule:evenodd"
   d="m 14.75,23.5 c -0.167,-0.6 -0.183,-1 -0.05,-1.2 0.167,-0.233 0.683,-0.5 1.55,-0.8 l 0.25,-0.45 c 0.267,-0.367 0.733,-0.633 1.4,-0.8 0.633,-0.167 1.166,0.05 1.6,0.65 0.233,0.3 0.384,0.617 0.45,0.95 l 0.7,0.15 c 0.466,0.167 0.633,0.5 0.5,1 -0.101,0.434 -0.517,0.717 -1.25,0.85 -0.834,0.167 -1.351,0.367 -1.551,0.601 -0.233,0.267 -0.566,0.434 -1,0.5 -0.433,0.066 -0.683,0.217 -0.75,0.45 -0.1,0.333 -0.383,0.517 -0.85,0.55 -0.4,0.033 -0.816,-0.05 -1.25,-0.25 -0.3,-0.134 -0.333,-0.483 -0.1,-1.05 0.268,-0.668 0.384,-1.051 0.351,-1.151 z"
   id="path80"
   inkscape:connector-curvature="0" />
				<path
   style="clip-rule:evenodd;fill:#51a147;fill-rule:evenodd"
   d="m 16.725,21.875 c 0.009,0.058 0.018,0.117 0.025,0.175 v -0.2 z M 15.6,22.6 15.45,22.7 c 0.167,-0.066 0.417,-0.167 0.75,-0.3 0.223,-0.128 0.398,-0.303 0.525,-0.525 C 16.632,20.719 17.19,20.427 18.4,21 c 1.267,0.633 1.166,1.184 -0.301,1.65 l -0.149,-0.3 c -0.101,0.301 -0.367,0.534 -0.8,0.7 -0.034,0.033 -0.067,0.25 -0.101,0.65 -0.033,0.233 -0.216,0.25 -0.55,0.05 -0.066,0.2 -0.3,0.467 -0.7,0.8 -0.433,0.367 -0.75,0.483 -0.95,0.351 -0.233,-0.134 -0.2,-0.4 0.1,-0.801 0.167,-0.199 0.383,-0.433 0.65,-0.699 C 15.432,23.3 15.249,23.05 15.049,22.651 15.25,22.55 15.434,22.533 15.6,22.6 Z"
   id="path82"
   inkscape:connector-curvature="0" />
				<path
   style="clip-rule:evenodd;fill:#eb8321;fill-rule:evenodd"
   d="m 16.75,26.95 0.4,-0.5 c 0.366,-0.367 0.816,-0.617 1.35,-0.75 0.8,-0.267 1.4,-0.3 1.8,-0.101 0.867,5.767 1.217,8.717 1.05,8.851 -0.133,0.166 -1.666,-2.334 -4.6,-7.5 z"
   id="path84"
   inkscape:connector-curvature="0" />
				<polygon
   style="clip-rule:evenodd;fill:#43853b;fill-rule:evenodd"
   points="17.25,24.5 18.5,23.8 18.95,25.7 17.65,25.95 "
   id="polygon86" />
				<polygon
   style="clip-rule:evenodd;fill:#a35a17;fill-rule:evenodd"
   points="18.5,25.7 19.45,25.55 20.3,25.6 21.35,34.45 "
   id="polygon88" />
			</g>
			<path
   style="clip-rule:evenodd;fill:none;fill-rule:evenodd;stroke:#231f20;stroke-width:0.5;stroke-miterlimit:10"
   d="m 14.75,23.5 c 0.033,0.1 -0.083,0.483 -0.35,1.15 -0.233,0.566 -0.2,0.916 0.1,1.05 0.434,0.2 0.85,0.283 1.25,0.25 0.467,-0.033 0.75,-0.217 0.85,-0.55 0.1,-0.233 0.35,-0.384 0.75,-0.45 l 0.301,1 0.3,-0.05 c -0.367,0.166 -0.667,0.399 -0.9,0.699 l -0.3,0.351 c 2.934,5.166 4.467,7.666 4.6,7.5 0.167,-0.134 -0.183,-3.084 -1.05,-8.851 -0.3,-0.133 -0.767,-0.149 -1.399,-0.05 l -0.301,-1.3 c 0.134,-0.066 0.634,-0.2 1.5,-0.4 0.634,-0.166 0.983,-0.449 1.051,-0.85 0.133,-0.5 -0.034,-0.833 -0.5,-1 l -0.7,-0.15 c -0.066,-0.333 -0.217,-0.65 -0.45,-0.95 -0.434,-0.6 -0.967,-0.816 -1.6,-0.65 -0.667,0.167 -1.134,0.433 -1.4,0.8 l -0.25,0.45 c -0.867,0.3 -1.383,0.566 -1.55,0.8 C 14.567,22.5 14.583,22.9 14.75,23.5 Z"
   id="path92"
   inkscape:connector-curvature="0" />
		</g>
	</g>
	<path
   style="clip-rule:evenodd;fill:#8c7b29;fill-rule:evenodd"
   d="m 26.3,28.9 c 0.134,-0.301 0.75,-0.801 1.851,-1.5 0.566,-0.367 1.1,-0.7 1.6,-1 l 0.4,3.3 c -0.567,0.866 -1.2,1.566 -1.9,2.1 -0.9,0.834 -1.467,1.351 -1.7,1.55 -0.1,-0.633 -0.184,-1.283 -0.25,-1.949 C 26.167,30.033 26.167,29.2 26.3,28.9 Z"
   id="path98"
   inkscape:connector-curvature="0" />
	<path
   style="clip-rule:evenodd;fill:#91802a;fill-rule:evenodd"
   d="m 5.5,28.3 v 1.15 c 0.033,0.833 0.15,1.434 0.35,1.8 0.3,0.533 0.8,1.116 1.5,1.75 L 4.3,32.65 4.65,28.2 Z"
   id="path100"
   inkscape:connector-curvature="0" />
</g>
</svg>