<?xml version="1.0" encoding="UTF-8" standalone="no"?>
<!-- Generator: Adobe Illustrator 15.1.0, SVG Export Plug-In . SVG Version: 6.00 Build 0)  -->

<svg
   xmlns:dc="http://purl.org/dc/elements/1.1/"
   xmlns:cc="http://creativecommons.org/ns#"
   xmlns:rdf="http://www.w3.org/1999/02/22-rdf-syntax-ns#"
   xmlns:svg="http://www.w3.org/2000/svg"
   xmlns="http://www.w3.org/2000/svg"
   xmlns:xlink="http://www.w3.org/1999/xlink"
   xmlns:sodipodi="http://sodipodi.sourceforge.net/DTD/sodipodi-0.dtd"
   xmlns:inkscape="http://www.inkscape.org/namespaces/inkscape"
   version="1.1"
   id="flash0.ai"
   x="0px"
   y="0px"
   width="256"
   height="256"
   viewBox="0 0 255.99999 256"
   xml:space="preserve"
   sodipodi:docname="flower_yellow_crumb.svg"
   inkscape:version="0.92.4 (5da689c313, 2019-01-14)"
   inkscape:export-filename="C:\Users\antum\Development\game-resources\icon\CC0\food\individual\Glitch\32x32\herb\flower_yellow_crumb.png"
   inkscape:export-xdpi="10.5"
   inkscape:export-ydpi="10.5"><title
   id="title1151">Yellow Crumb Flower</title><metadata
   id="metadata344"><rdf:RDF><cc:Work
       rdf:about=""><dc:format>image/svg+xml</dc:format><dc:type
         rdf:resource="http://purl.org/dc/dcmitype/StillImage" /><dc:title>Yellow Crumb Flower</dc:title><cc:license
         rdf:resource="http://creativecommons.org/publicdomain/zero/1.0/" /><dc:creator><cc:Agent><dc:title>Glitch</dc:title></cc:Agent></dc:creator><dc:source>https://opengameart.org/node/20149</dc:source></cc:Work><cc:License
       rdf:about="http://creativecommons.org/publicdomain/zero/1.0/"><cc:permits
         rdf:resource="http://creativecommons.org/ns#Reproduction" /><cc:permits
         rdf:resource="http://creativecommons.org/ns#Distribution" /><cc:permits
         rdf:resource="http://creativecommons.org/ns#DerivativeWorks" /></cc:License></rdf:RDF></metadata><defs
   id="defs342"><linearGradient
     inkscape:collect="always"
     xlink:href="#SVGID_1_"
     id="linearGradient1346"
     gradientUnits="userSpaceOnUse"
     x1="17.0625"
     y1="-22.931601"
     x2="30.512501"
     y2="-22.656601" /><linearGradient
     inkscape:collect="always"
     xlink:href="#SVGID_2_"
     id="linearGradient1348"
     gradientUnits="userSpaceOnUse"
     x1="29.0249"
     y1="-13.1582"
     x2="28.8664"
     y2="-7.9334998" /><linearGradient
     inkscape:collect="always"
     xlink:href="#SVGID_3_"
     id="linearGradient1350"
     gradientUnits="userSpaceOnUse"
     gradientTransform="matrix(0.9421,0.3355,-0.3355,0.9421,-2268.8301,-3210.8403)"
     x1="3238.563"
     y1="2235.0371"
     x2="3247.5061"
     y2="2235.0371" /><linearGradient
     inkscape:collect="always"
     xlink:href="#SVGID_4_"
     id="linearGradient1352"
     gradientUnits="userSpaceOnUse"
     gradientTransform="matrix(-0.9437,-0.3308,0.3308,-0.9437,18564.42,-13186.142)"
     x1="13118.195"
     y1="-18562.029"
     x2="13123.469"
     y2="-18562.029" /><linearGradient
     inkscape:collect="always"
     xlink:href="#SVGID_5_"
     id="linearGradient1354"
     gradientUnits="userSpaceOnUse"
     x1="49.811001"
     y1="-4.6851001"
     x2="51.233101"
     y2="-17.6854" /></defs><sodipodi:namedview
   pagecolor="#ffffff"
   bordercolor="#666666"
   borderopacity="1"
   objecttolerance="10"
   gridtolerance="10"
   guidetolerance="10"
   inkscape:pageopacity="0"
   inkscape:pageshadow="2"
   inkscape:window-width="1920"
   inkscape:window-height="1025"
   id="namedview340"
   showgrid="false"
   inkscape:zoom="1.1865729"
   inkscape:cx="-37.505562"
   inkscape:cy="-76.647826"
   inkscape:window-x="-8"
   inkscape:window-y="-8"
   inkscape:window-maximized="1"
   inkscape:current-layer="flash0.ai"
   fit-margin-top="0"
   fit-margin-left="0"
   fit-margin-right="0"
   fit-margin-bottom="0" />
<symbol
   id="_x31_"
   viewBox="0 -30.1 59.889 30.1"
   transform="translate(-8.0498,214.8199)">
	<g
   id="Layer_1_2_">
		<path
   style="clip-rule:evenodd;fill:#819d13;fill-rule:evenodd"
   d="m 57.8,-13.1 c 0.233,0 0.433,-0.133 0.6,-0.4 0.1,-0.167 0.267,-0.467 0.5,-0.9 0.167,-0.233 0.283,-0.5 0.35,-0.8 0.167,-0.5 0.267,-0.8 0.3,-0.9 0.133,-0.4 0.183,-0.867 0.15,-1.4 -0.034,-0.6 -0.167,-1.1 -0.4,-1.5 -0.2,-0.767 -0.5,-1.4 -0.9,-1.9 -0.233,-0.3 -0.467,-0.534 -0.7,-0.7 l -0.3,-0.15 c -0.633,0.367 -1.283,0.684 -1.95,0.95 -4.2,1.767 -7.883,3.05 -11.05,3.85 -2.167,0.567 -5.467,0.817 -9.9,0.75 -5.567,-0.033 -8.783,-0.017 -9.65,0.05 -4.233,0.333 -6.917,0.783 -8.05,1.35 -0.6,0.3 -0.684,0.417 -0.25,0.35 1.3,-0.233 2.217,-0.366 2.75,-0.4 1.566,-0.133 3.55,-0.167 5.95,-0.1 3,0.067 5.4,0.284 7.2,0.65 1.933,0.433 4.617,0.75 8.05,0.95 3.233,0.233 5.417,0.267 6.55,0.1 1.366,-0.2 4.95,-0.15 10.75,0.15 z"
   id="path2"
   inkscape:connector-curvature="0" />
		<path
   style="clip-rule:evenodd;fill:#677f0d;fill-rule:evenodd"
   d="m 55.55,-18.15 4,-0.05 -0.1,-0.45 -2,0.25 0.65,-0.2 c 0.467,-0.133 0.85,-0.283 1.15,-0.45 l -0.2,-0.5 c -2.067,0.933 -3.234,1.4 -3.5,1.4 z"
   id="path4"
   inkscape:connector-curvature="0" />
		<path
   style="clip-rule:evenodd;fill:#677f0d;fill-rule:evenodd"
   d="m 20.5,-14.95 -0.15,-0.7 c -1.833,0.3 -3.017,0.583 -3.55,0.85 -0.6,0.3 -0.684,0.417 -0.25,0.35 1.3,-0.233 2.217,-0.366 2.75,-0.4 z"
   id="path6"
   inkscape:connector-curvature="0" />
		<path
   style="clip-rule:evenodd;fill:#677f0d;fill-rule:evenodd"
   d="m 54.149,-14.45 c 2.867,0 4.483,-0.05 4.85,-0.15 0.034,-0.066 0.217,-0.566 0.55,-1.5 l 0.05,-0.35 -2.65,0.1 c 0.4,0.034 0.633,0.1 0.7,0.2 0.033,0.066 0.017,0.167 -0.05,0.3 -0.066,0.1 -0.75,0.2 -2.05,0.3 -1.4,0.1 -2.917,0.083 -4.55,-0.05 -0.867,-0.066 -1.533,-0.216 -2,-0.45 -0.466,-0.233 -0.9,-0.634 -1.3,-1.2 -0.167,-0.233 -0.367,-0.383 -0.6,-0.45 l -0.6,0.2 c -0.466,0.4 -0.817,0.667 -1.05,0.8 -0.3,0.167 -0.483,0.35 -0.55,0.55 -0.066,0.233 -0.15,0.45 -0.25,0.65 -0.1,0.267 -0.283,0.417 -0.55,0.45 -0.033,0 -0.383,-0.017 -1.05,-0.05 -0.4,-0.033 -0.767,-0.15 -1.1,-0.35 -0.4,-0.3 -0.733,-0.533 -1,-0.7 l -0.4,-0.2 c -1,0.1 -2.033,0.15 -3.1,0.15 l -0.25,0.4 c -0.133,0.033 -0.167,0.15 -0.1,0.35 0.033,0.167 0.117,0.333 0.25,0.5 0.1,0.134 0.033,0.25 -0.2,0.35 -0.233,0.1 -0.533,0.133 -0.9,0.1 -0.833,-0.066 -2.05,-0.316 -3.65,-0.75 -0.667,-0.167 -1.033,-0.5 -1.1,-1 h -0.6 c -0.066,0.6 -0.017,0.95 0.15,1.05 0.2,0.167 1.066,0.417 2.6,0.75 1.634,0.367 2.9,0.567 3.8,0.6 0.8,0.034 1.35,-0.083 1.65,-0.35 0.133,-0.1 0.2,-0.216 0.2,-0.35 1.633,-0.5 2.667,-0.517 3.1,-0.05 0.267,0.3 0.967,0.417 2.1,0.35 0.633,-0.033 1.383,-0.1 2.25,-0.2 0.3,0 0.317,-0.366 0.05,-1.1 -0.134,-0.367 -0.283,-0.784 -0.45,-1.25 0.1,-0.167 0.217,-0.317 0.35,-0.45 0.2,-0.167 0.367,-0.15 0.5,0.05 0.466,0.767 0.933,1.367 1.4,1.8 0.267,0.267 0.983,0.5 2.15,0.7 1.101,0.167 2.234,0.25 3.4,0.25 z"
   id="path8"
   inkscape:connector-curvature="0" />
		<path
   style="clip-rule:evenodd;fill:#677f0d;fill-rule:evenodd"
   d="m 53.125,-16.7 c 0.778,0.074 2.053,0.191 3.825,0.35 l 1,-0.2 c 0.767,-0.134 1.35,-0.284 1.75,-0.45 0,-0.4 -0.034,-0.717 -0.1,-0.95 l -1.2,0.6 c -0.733,0.367 -1.95,0.583 -3.65,0.65 -0.65,0.017 -1.192,0.017 -1.625,0 z"
   id="path10"
   inkscape:connector-curvature="0" />
		<path
   style="clip-rule:evenodd;fill:#677f0d;fill-rule:evenodd"
   d="m 51.8,-18.65 h 0.1 l 6.95,-1.4 c 0,-0.134 -0.05,-0.25 -0.15,-0.35 l -2.35,0.5 1.9,-1.15 -0.15,-0.2 c -1.1,0.833 -3.201,1.7 -6.3,2.6 z"
   id="path12"
   inkscape:connector-curvature="0" />
		<polygon
   style="clip-rule:evenodd;fill:#586c08;fill-rule:evenodd"
   points="58.25,-21.05 56.35,-19.9 58.7,-20.4 58.399,-20.9 "
   id="polygon14" />
		<path
   style="clip-rule:evenodd;fill:#586c08;fill-rule:evenodd"
   d="m 59.7,-17 c -0.4,0.167 -0.983,0.316 -1.75,0.45 l -1,0.2 2.65,-0.1 z"
   id="path16"
   inkscape:connector-curvature="0" />
		<path
   style="clip-rule:evenodd;fill:#586c08;fill-rule:evenodd"
   d="m 57.8,-13.1 c 0.233,0 0.433,-0.133 0.6,-0.4 0.1,-0.167 0.267,-0.467 0.5,-0.9 l 0.1,-0.2 c -0.367,0.1 -1.983,0.15 -4.85,0.15 -1.167,0 -2.3,-0.083 -3.4,-0.25 -1.167,-0.2 -1.883,-0.433 -2.15,-0.7 -0.467,-0.434 -0.934,-1.034 -1.4,-1.8 -0.133,-0.2 -0.3,-0.216 -0.5,-0.05 -0.133,0.133 -0.25,0.283 -0.35,0.45 0.167,0.466 0.316,0.883 0.45,1.25 0.267,0.733 0.25,1.1 -0.05,1.1 -0.867,0.1 -1.617,0.167 -2.25,0.2 -1.133,0.066 -1.833,-0.05 -2.1,-0.35 -0.433,-0.466 -1.467,-0.45 -3.1,0.05 0,0.133 -0.067,0.25 -0.2,0.35 -0.3,0.267 -0.85,0.384 -1.65,0.35 -0.9,-0.033 -2.167,-0.233 -3.8,-0.6 -1.533,-0.333 -2.4,-0.583 -2.6,-0.75 -0.167,-0.1 -0.217,-0.45 -0.15,-1.05 -2.633,-0.066 -4.65,-0.033 -6.05,0.1 -1.934,0.167 -3.434,0.333 -4.5,0.5 l 0.15,0.7 c 5.133,-0.167 9.117,0.05 11.95,0.65 1.933,0.433 4.617,0.75 8.05,0.95 3.233,0.233 5.417,0.267 6.55,0.1 1.366,-0.2 4.95,-0.15 10.75,0.15 z"
   id="path18"
   inkscape:connector-curvature="0" />
		<path
   style="clip-rule:evenodd;fill:#586c08;fill-rule:evenodd"
   d="m 59.25,-19.05 c -0.3,0.167 -0.683,0.316 -1.15,0.45 l -0.65,0.2 2,-0.25 L 59.3,-19 Z"
   id="path20"
   inkscape:connector-curvature="0" />
		<path
   style="clip-rule:evenodd;fill:#94b614;fill-rule:evenodd"
   d="m 47.7,-17.9 -0.05,0.2 c 0.233,-0.2 0.583,-0.316 1.05,-0.35 0.239,0 0.556,0 0.95,0 -0.15,0.025 -0.35,0.125 -0.6,0.3 -0.267,0.233 -0.467,0.434 -0.6,0.6 0.296,0 1.122,-0.025 2.475,-0.075 -0.304,0.021 -0.612,0.062 -0.925,0.125 -0.333,0.034 -0.466,0.117 -0.4,0.25 0.033,0.133 0.2,0.2 0.5,0.2 l 1.45,0.1 c 0.667,0.133 1.116,0.183 1.35,0.15 -0.477,-0.254 -0.801,-0.371 -0.975,-0.35 l 0.325,-0.05 c 0.733,0 1.284,-0.034 1.65,-0.1 0.733,-0.067 1.25,-0.2 1.55,-0.4 0.267,-0.2 0.216,-0.333 -0.15,-0.4 -0.7,0.067 -1.2,0.067 -1.5,0 1,-0.4 1.616,-0.733 1.85,-1 -0.833,0.034 -1.683,0.034 -2.55,0 l -1.3,0.05 c -0.3,0 -0.467,-0.017 -0.5,-0.05 0.233,-0.3 0.75,-0.566 1.55,-0.8 l 1.95,-0.65 c 0.233,-0.1 0.616,-0.233 1.15,-0.4 0.3,-0.134 0.45,-0.35 0.45,-0.65 l -0.95,0.4 c -3.567,1.433 -6.15,2.4 -7.75,2.9 z"
   id="path22"
   inkscape:connector-curvature="0" />
		<path
   style="clip-rule:evenodd;fill:#94b614;fill-rule:evenodd"
   d="m 35.7,-15.4 c 0.1,-0.1 0.15,-0.317 0.15,-0.65 l -0.05,-0.1 -3.3,-0.05 c 0,0.2 0.017,0.317 0.05,0.35 l 0.6,0.2 c 0.2,0.033 0.467,0.083 0.8,0.15 l 0.7,0.05 c 0.6,0.1 0.95,0.117 1.05,0.05 z"
   id="path24"
   inkscape:connector-curvature="0" />
		<path
   style="clip-rule:evenodd;fill:#94b614;fill-rule:evenodd"
   d="m 42.95,-16.1 c -0.333,-0.133 -0.534,-0.267 -0.6,-0.4 v -0.05 l -1.15,0.15 0.4,0.2 c 0.433,0.233 0.883,0.266 1.35,0.1 z"
   id="path26"
   inkscape:connector-curvature="0" />
		<path
   style="clip-rule:evenodd;fill:#586c08;fill-rule:evenodd"
   d="m 57.899,-13.05 0.4,-0.25 c 0.4,-0.1 0.717,-0.35 0.95,-0.75 0.067,-0.167 0.183,-0.567 0.35,-1.2 0.3,-1 0.367,-1.85 0.2,-2.55 l -0.4,-1.25 c -0.1,-0.233 -0.217,-0.65 -0.35,-1.25 -0.033,-0.1 -0.25,-0.333 -0.65,-0.7 -0.433,-0.467 -0.7,-0.717 -0.8,-0.75 -0.633,-0.367 -1.066,0.1 -1.3,1.4 L 56,-17.9 c -0.133,1.333 -0.05,2.316 0.25,2.95 0.367,0.733 0.567,1.117 0.6,1.15 0.333,0.5 0.683,0.75 1.049,0.75 z"
   id="path28"
   inkscape:connector-curvature="0" />
		<path
   style="clip-rule:evenodd;fill:#435505;fill-rule:evenodd"
   d="m 57.899,-14.45 0.4,0.65 c 0.066,-0.3 0.25,-0.684 0.55,-1.15 l 0.2,-1.05 c 0.066,-0.434 0.066,-0.85 0,-1.25 -0.033,-0.5 -0.283,-1.15 -0.75,-1.95 -0.4,-1.033 -0.817,-1.45 -1.25,-1.25 -0.1,0.067 -0.217,0.317 -0.35,0.75 -0.1,0.367 -0.15,0.65 -0.15,0.85 -0.033,0.5 -0.033,1 0,1.5 0,0.133 0.133,0.65 0.4,1.55 0.133,0.366 0.25,0.633 0.35,0.8 0.134,0.333 0.334,0.517 0.6,0.55 z"
   id="path30"
   inkscape:connector-curvature="0" />
		<path
   style="clip-rule:evenodd;fill:#556909;fill-rule:evenodd"
   d="m 58,-16.45 0.1,-0.8 c 0,-1.133 -0.233,-1.55 -0.7,-1.25 -0.267,0.167 -0.283,0.533 -0.05,1.1 0.2,0.433 0.417,0.75 0.65,0.95 z"
   id="path32"
   inkscape:connector-curvature="0" />
		<path
   style="clip-rule:evenodd;fill:#94b614;fill-rule:evenodd"
   d="m 56.649,-14 0.7,0.3 c -0.367,-0.167 -0.65,-0.583 -0.85,-1.25 -0.067,-0.233 -0.167,-0.767 -0.3,-1.6 -0.067,-0.467 -0.067,-1.067 0,-1.8 0.033,-0.4 0.083,-1 0.15,-1.8 -0.066,0.1 -0.217,0.6 -0.45,1.5 -0.033,0.167 -0.1,0.667 -0.2,1.5 -0.034,0.533 0,1.083 0.1,1.65 0.066,0.2 0.2,0.45 0.4,0.75 0.234,0.367 0.384,0.617 0.45,0.75 z"
   id="path34"
   inkscape:connector-curvature="0" />
		<linearGradient
   id="SVGID_1_"
   gradientUnits="userSpaceOnUse"
   x1="17.0625"
   y1="-22.931601"
   x2="30.512501"
   y2="-22.656601">
			<stop
   offset="0"
   style="stop-color:#617220"
   id="stop36" />
			<stop
   offset="1"
   style="stop-color:#869D2E"
   id="stop38" />
		</linearGradient>
		<path
   style="clip-rule:evenodd;fill:url(#linearGradient1346);fill-rule:evenodd"
   d="m 28.7,-15.65 c 0.667,0.167 1.067,0.25 1.2,0.25 l 0.8,-0.05 1.45,-0.65 c 0.1,-0.066 0.134,-0.15 0.1,-0.25 0,-0.133 -0.067,-0.216 -0.2,-0.25 l -0.6,0.05 c -0.767,0 -1.284,-0.034 -1.55,-0.1 -1.233,-0.367 -2.85,-1.3 -4.85,-2.8 -0.867,-0.667 -1.45,-1.133 -1.75,-1.4 -0.634,-0.6 -1.083,-1.216 -1.35,-1.85 l -0.65,-2 c -0.167,-0.966 -0.233,-1.6 -0.2,-1.9 0,-1.3 0.3,-2.466 0.9,-3.5 l -0.6,0.6 -1,0.75 c -0.5,0.333 -1.05,0.883 -1.65,1.65 -0.533,0.7 -0.9,1.417 -1.1,2.15 -0.233,0.8 -0.133,1.8 0.3,3 0.267,0.667 0.8,1.35 1.6,2.05 1.5,1.333 2.483,2.133 2.95,2.4 1.267,0.633 2.633,1.133 4.1,1.5 z"
   id="path41"
   inkscape:connector-curvature="0" />
		<path
   style="clip-rule:evenodd;fill:#586c08;fill-rule:evenodd"
   d="m 24.75,-18.1 c 1.034,0.767 2.2,1.383 3.5,1.85 1.067,0.367 2.017,0.583 2.85,0.65 l 1.05,-0.5 c 0.1,-0.066 0.134,-0.15 0.1,-0.25 0,-0.133 -0.067,-0.216 -0.2,-0.25 l -0.6,0.05 c -0.767,0 -1.284,-0.034 -1.55,-0.1 -1.233,-0.367 -2.85,-1.3 -4.85,-2.8 -0.867,-0.667 -1.45,-1.133 -1.75,-1.4 -0.634,-0.6 -1.083,-1.216 -1.35,-1.85 l -0.65,-2 c -0.167,-0.966 -0.233,-1.6 -0.2,-1.9 0,-1.3 0.3,-2.466 0.9,-3.5 l -0.4,0.4 -1.1,1.95 -0.05,3.4 c 0,0.934 0.417,2 1.25,3.2 0.8,1.133 1.817,2.15 3.05,3.05 z"
   id="path43"
   inkscape:connector-curvature="0" />
		<path
   style="clip-rule:evenodd;fill:#586c08;fill-rule:evenodd"
   d="m 19.55,-19.9 0.3,0.25 -0.25,-0.65 h 0.1 l -0.1,-0.4 c -0.5,-1.767 -0.6,-3 -0.3,-3.7 -0.5,1.066 -0.567,2.233 -0.2,3.5 l 0.25,0.2 -0.05,0.4 0.2,0.4 z"
   id="path45"
   inkscape:connector-curvature="0" />
		<path
   style="clip-rule:evenodd;fill:#586c08;fill-rule:evenodd"
   d="m 21.1,-20.95 -1.05,0.7 -0.35,-0.05 h -0.1 l 0.25,0.65 0.1,0.15 0.1,-0.05 c 0.133,-0.034 0.233,-0.117 0.3,-0.25 0.466,-0.567 0.716,-0.95 0.75,-1.15 z"
   id="path47"
   inkscape:connector-curvature="0" />
		<path
   style="clip-rule:evenodd;fill:#586c08;fill-rule:evenodd"
   d="m 19.1,-20.9 c -0.434,-0.367 -0.717,-0.667 -0.85,-0.9 v 0.5 c 0.2,0.3 0.55,0.7 1.05,1.2 v -0.2 l 0.05,-0.4 z"
   id="path49"
   inkscape:connector-curvature="0" />
		<path
   style="clip-rule:evenodd;fill:#586c08;fill-rule:evenodd"
   d="m 22.55,-18 -0.9,-0.05 0.85,0.55 0.3,0.15 c 0.233,-0.133 0.417,-0.367 0.55,-0.7 -0.367,0.033 -0.634,0.05 -0.8,0.05 z"
   id="path51"
   inkscape:connector-curvature="0" />
		<path
   style="clip-rule:evenodd;fill:#586c08;fill-rule:evenodd"
   d="m 26.55,-16 h 0.05 l 1.05,0.2 c 0.134,-0.134 0.184,-0.233 0.15,-0.3 -0.1,-0.033 -0.517,0 -1.25,0.1 z"
   id="path53"
   inkscape:connector-curvature="0" />
		<path
   style="clip-rule:evenodd;fill:#8ca700;fill-rule:evenodd"
   d="M 25.25,-17.15 24,-17.3 l -0.9,0.1 c 0.667,0.3 1.583,0.634 2.75,1 l 0.3,-0.25 c 0.2,-0.2 0.15,-0.366 -0.15,-0.5 -0.367,-0.1 -0.617,-0.167 -0.75,-0.2 z"
   id="path55"
   inkscape:connector-curvature="0" />
		<path
   style="clip-rule:evenodd;fill:#8ca700;fill-rule:evenodd"
   d="m 21.649,-19.6 c -0.2,-0.033 -0.55,0.05 -1.05,0.25 l -0.3,0.15 1.25,1.1 c 0.6,-0.066 0.866,-0.316 0.8,-0.75 0.001,-0.3 -0.233,-0.55 -0.7,-0.75 z"
   id="path57"
   inkscape:connector-curvature="0" />
		<path
   style="clip-rule:evenodd;fill:#8ca700;fill-rule:evenodd"
   d="m 19.8,-20.95 0.25,0.45 c 0.133,0.066 0.283,0.017 0.45,-0.15 0.1,-0.133 0.133,-0.284 0.1,-0.45 0,-0.1 -0.033,-0.267 -0.1,-0.5 -0.067,-0.733 -0.3,-1.3 -0.7,-1.7 -0.2,0.133 -0.267,0.45 -0.2,0.95 z"
   id="path59"
   inkscape:connector-curvature="0" />
		<path
   style="clip-rule:evenodd;fill:#8ca700;fill-rule:evenodd"
   d="m 18.825,-22.15 c -0.029,-0.144 -0.071,-0.31 -0.125,-0.5 -0.034,-0.3 0,-0.617 0.1,-0.95 0.066,-0.333 0.15,-0.583 0.25,-0.75 0.066,-0.133 0.167,-0.333 0.3,-0.6 0.133,-0.233 0.184,-0.433 0.15,-0.6 -0.4,0.133 -0.75,0.65 -1.05,1.55 -0.1,0.333 -0.1,0.684 0,1.05 0.181,0.323 0.306,0.589 0.375,0.8 z"
   id="path61"
   inkscape:connector-curvature="0" />
		<path
   style="clip-rule:evenodd;fill:#d5c337;fill-rule:evenodd"
   d="m 18.649,-2.9 c 1.4,-1 2.8,-2.75 4.2,-5.25 1.367,-2.434 2.083,-3.667 2.15,-3.7 l 0.85,-0.35 c 0.667,-0.3 1.184,-0.633 1.55,-1 4,-0.566 1.917,-2.616 -6.25,-6.15 -3.833,-1.633 -9.816,-1.783 -17.95,-0.45 -2.534,0.433 -3.55,1.066 -3.05,1.9 0.434,0.7 1.4,1.25 2.9,1.65 0.6,0.167 1.65,0.717 3.15,1.65 1.433,0.967 2.817,1.6 4.15,1.9 1.533,0.333 3.767,0.617 6.7,0.85 -1.367,0.8 -2.3,1.534 -2.8,2.2 -0.333,0.466 -0.95,1.517 -1.85,3.15 -0.6,1.066 -1.15,1.75 -1.65,2.05 -2.067,1.267 -2.7,2.384 -1.9,3.35 0.566,0.7 1.883,0.883 3.95,0.55 2.201,-0.333 4.151,-1.117 5.85,-2.35 z"
   id="path63"
   inkscape:connector-curvature="0" />
		<path
   style="clip-rule:evenodd;fill:#c0ae1a;fill-rule:evenodd"
   d="m 13.3,-14.65 -1.45,-0.8 c -0.767,-0.533 -1.45,-0.966 -2.05,-1.3 -0.9,-0.367 -1.483,-0.684 -1.75,-0.95 1.167,0.134 2.467,0.534 3.9,1.2 0.8,0.4 2,1.017 3.6,1.85 0.967,0.367 1.5,0.55 1.6,0.55 l 1.7,0.15 c 0.333,0 0.8,0.083 1.4,0.25 l 0.4,-0.1 c -0.967,-0.167 -2.3,-0.567 -4,-1.2 -1.8,-0.667 -3.483,-1.4 -5.05,-2.2 -1.867,-0.966 -4.583,-1.183 -8.15,-0.65 H 4 l 0.6,0.1 h 0.05 c 1.533,0.434 3.25,1.383 5.15,2.85 0.767,0.6 2.033,1.15 3.8,1.65 0.934,0.233 1.967,0.5 3.1,0.8 -1.2,-0.633 -1.833,-0.983 -1.9,-1.05 -0.834,-0.667 -1.334,-1.05 -1.5,-1.15 z"
   id="path65"
   inkscape:connector-curvature="0" />
		<path
   style="clip-rule:evenodd;fill:#beb218;fill-rule:evenodd"
   d="m 22.35,-13.6 c 0.267,-0.233 0.767,-0.367 1.5,-0.4 0.4,-0.033 0.917,-0.05 1.55,-0.05 1.434,-0.1 2.35,-0.1 2.75,0 -1.066,-0.333 -3.566,-0.25 -7.5,0.25 l -0.4,0.1 0.3,0.1 c 0.599,-0.067 1.2,-0.067 1.8,0 z"
   id="path67"
   inkscape:connector-curvature="0" />
		<path
   style="clip-rule:evenodd;fill:#beb218;fill-rule:evenodd"
   d="m 23.399,-13 c -0.5,0 -0.85,-0.033 -1.05,-0.1 -0.367,0.133 -0.75,0.367 -1.15,0.7 -1,0.833 -1.683,1.6 -2.05,2.3 L 18.5,-8.75 c 0.733,-1.3 1.4,-2.184 2,-2.65 0.534,-0.633 1.034,-1.034 1.5,-1.2 z"
   id="path69"
   inkscape:connector-curvature="0" />
		<path
   style="clip-rule:evenodd;fill:#c0ae1a;fill-rule:evenodd"
   d="M 13.649,-5.95 12.8,-4.7 c -0.233,0.434 -0.467,0.717 -0.7,0.85 L 13.05,-4 c 0.767,-0.2 1.45,-0.45 2.05,-0.75 l -0.3,0.05 c 1.033,-1.033 1.733,-2.116 2.1,-3.25 0.233,-0.6 0.4,-1.333 0.5,-2.2 0.167,-1.167 0.033,-1.767 -0.4,-1.8 l 0.1,-0.2 -0.15,-0.1 -0.5,0.35 0.6,0.05 -0.95,0.6 c 0.167,0.1 0.167,0.333 0,0.7 0.533,0.267 0.65,0.35 0.35,0.25 -0.167,-0.034 -0.567,0.483 -1.2,1.55 -1.034,1.8 -1.567,2.733 -1.601,2.8 z"
   id="path71"
   inkscape:connector-curvature="0" />
		<path
   style="clip-rule:evenodd;fill:#958600;fill-rule:evenodd"
   d="m 14.8,-13.5 c 0.066,0.066 0.7,0.417 1.9,1.05 l 0.15,0.1 0.1,0.1 0.15,0.1 0.15,-0.2 v -0.05 l -0.35,-0.75 c 0.2,-0.267 0.567,-0.367 1.1,-0.3 v -0.05 l 2.55,-0.1 -0.3,-0.1 c -0.6,-0.167 -1.067,-0.25 -1.4,-0.25 l -1.7,-0.15 c -0.1,0 -0.633,-0.183 -1.6,-0.55 -1.6,-0.833 -2.8,-1.45 -3.6,-1.85 -1.433,-0.667 -2.733,-1.066 -3.9,-1.2 0.267,0.267 0.85,0.583 1.75,0.95 0.6,0.333 1.283,0.767 2.05,1.3 l 1.45,0.8 c 0.166,0.1 0.666,0.483 1.5,1.15 z"
   id="path73"
   inkscape:connector-curvature="0" />
		<path
   style="clip-rule:evenodd;fill:#958600;fill-rule:evenodd"
   d="m 22.35,-13.1 -0.25,-0.2 c 0.033,-0.134 0.117,-0.233 0.25,-0.3 -0.6,-0.066 -1.2,-0.066 -1.8,0 L 18,-13.5 v 0.05 l 0.15,0.05 c 0.2,0.033 0.467,0.15 0.8,0.35 0.367,0.2 0.6,0.366 0.7,0.5 0.134,0.2 0.134,0.383 0,0.55 -0.233,0.233 -0.4,0.417 -0.5,0.55 -0.1,0.167 -0.267,0.534 -0.5,1.1 -0.167,0.467 -0.366,0.784 -0.6,0.95 -0.067,-0.367 -0.167,-0.934 -0.3,-1.7 -0.067,-0.233 -0.233,-0.65 -0.5,-1.25 l -0.15,0.2 -0.1,0.2 c 0.433,0.034 0.567,0.634 0.4,1.8 -0.1,0.867 -0.267,1.6 -0.5,2.2 -0.366,1.134 -1.066,2.217 -2.1,3.25 l 0.3,-0.05 c 0.5,-0.1 0.917,-0.3 1.25,-0.6 0.333,-0.367 1.05,-1.5 2.15,-3.4 l 0.65,-1.35 c 0.367,-0.7 1.05,-1.466 2.05,-2.3 0.4,-0.333 0.783,-0.567 1.15,-0.7 z"
   id="path75"
   inkscape:connector-curvature="0" />
		<path
   style="clip-rule:evenodd;fill:#564d01;fill-rule:evenodd"
   d="m 19.649,-12.55 c -0.1,-0.134 -0.333,-0.3 -0.7,-0.5 -0.333,-0.2 -0.6,-0.317 -0.8,-0.35 L 18,-13.45 c -0.533,-0.066 -0.9,0.034 -1.1,0.3 l 0.35,0.75 v 0.05 c 0.267,0.6 0.433,1.017 0.5,1.25 0.133,0.767 0.233,1.333 0.3,1.7 0.233,-0.167 0.433,-0.483 0.6,-0.95 0.233,-0.566 0.4,-0.933 0.5,-1.1 0.1,-0.133 0.267,-0.316 0.5,-0.55 0.133,-0.167 0.133,-0.35 -10e-4,-0.55 z"
   id="path77"
   inkscape:connector-curvature="0" />
		<path
   style="clip-rule:evenodd;fill:#f5e458;fill-rule:evenodd"
   d="m 24.25,-14.35 -1.7,-0.4 c -1.167,-0.3 -2.217,-0.6 -3.15,-0.9 -1.767,-0.567 -3.267,-1.25 -4.5,-2.05 -1.233,-0.8 -2.733,-1.4 -4.5,-1.8 L 8.15,-19.9 C 8.017,-20.1 7.966,-20.267 8,-20.4 H 7.8 c -1.634,0.167 -3.167,0.367 -4.6,0.6 -2.534,0.433 -3.55,1.066 -3.05,1.9 0.434,0.7 1.4,1.25 2.9,1.65 0.6,0.167 1.65,0.717 3.15,1.65 1.433,0.967 2.817,1.6 4.15,1.9 1.333,0.3 3.066,0.534 5.2,0.7 0.866,-0.434 0.5,-0.667 -1.1,-0.7 -1.367,-0.066 -2.6,-0.267 -3.7,-0.6 -1.1,-0.367 -1.883,-0.833 -2.35,-1.4 -1.433,-1.7 -2.683,-2.716 -3.75,-3.05 H 4.6 L 4,-17.85 H 2.3 l 2.3,-0.55 c 1.8,-0.3 3.267,-0.233 4.4,0.2 5.167,1.867 8.367,2.967 9.6,3.3 1.2,0.333 2.217,0.517 3.05,0.55 0.566,0.034 1.433,0.034 2.6,0 z"
   id="path79"
   inkscape:connector-curvature="0" />
		<path
   style="clip-rule:evenodd;fill:#fff25e;fill-rule:evenodd"
   d="m 27.2,-14.3 -0.1,-0.05 c -1.7,-0.133 -3.35,-0.367 -4.95,-0.7 0.8,0.3 1.5,0.533 2.1,0.7 z"
   id="path81"
   inkscape:connector-curvature="0" />
		<path
   style="clip-rule:evenodd;fill:#d9c40c;fill-rule:evenodd"
   d="m 24.1,-14.9 c 0.434,0.133 1.434,0.316 3,0.55 l 0.1,0.05 0.95,0.2 c -0.167,-0.2 -0.433,-0.367 -0.8,-0.5 -0.467,-0.2 -0.717,-0.35 -0.75,-0.45 0.167,-0.034 0.434,-0.067 0.8,-0.1 -0.467,-0.333 -1.3,-0.567 -2.5,-0.7 -1.333,-0.1 -2.233,-0.267 -2.7,-0.5 1.267,0 2.167,-0.066 2.7,-0.2 -0.566,-0.333 -1.383,-0.667 -2.45,-1 -1.267,-0.367 -2.1,-0.634 -2.5,-0.8 l 1.3,-0.05 c -0.667,-0.467 -1.183,-0.8 -1.55,-1 -0.233,-0.133 -0.8,-0.367 -1.7,-0.7 l -0.95,-0.25 c -0.367,0.067 -0.817,0.1 -1.35,0.1 -0.655,0.025 -1.072,0.042 -1.25,0.05 0.872,-0.02 1.822,0.147 2.85,0.5 0.633,0.233 1.566,0.6 2.8,1.1 -0.267,-0.1 -0.5,-0.167 -0.7,-0.2 -0.2,-0.067 -0.667,-0.1 -1.4,-0.1 -1.009,-0.092 -1.776,-0.108 -2.3,-0.05 0.43,-0.034 0.947,0.099 1.55,0.4 0.133,0.033 0.667,0.316 1.6,0.85 0.867,0.467 1.566,0.7 2.1,0.7 -0.167,0.066 -0.433,0.1 -0.8,0.1 -0.4,-0.034 -0.683,-0.05 -0.85,-0.05 L 17.95,-17 c 0.466,0.133 1.167,0.367 2.1,0.7 0.5,0.1 1.283,0.183 2.35,0.25 1.4,0.1 2.65,0.35 3.75,0.75 -0.267,0.066 -0.6,0.083 -1,0.05 -0.467,-0.033 -0.816,-0.05 -1.05,-0.05 l -1.45,0.125 c 0.34,0.001 0.823,0.092 1.45,0.275 z"
   id="path83"
   inkscape:connector-curvature="0" />
		<path
   style="clip-rule:evenodd;fill:#b69726;fill-rule:evenodd"
   d="m 27.95,-15.3 c -0.267,-0.333 -0.667,-0.617 -1.2,-0.85 -0.067,-0.034 -0.533,-0.217 -1.4,-0.55 -0.2,-0.066 -0.833,-0.417 -1.9,-1.05 -0.667,-0.467 -1.167,-0.883 -1.5,-1.25 l -0.8,-0.35 c -1.366,-0.566 -3.183,-0.966 -5.45,-1.2 l 0.45,0.1 0.9,0.1 0.95,0.25 c 0.9,0.333 1.467,0.567 1.7,0.7 0.367,0.2 0.883,0.533 1.55,1 l -1.3,0.05 c 0.4,0.167 1.233,0.434 2.5,0.8 1.067,0.333 1.883,0.667 2.45,1 -0.533,0.133 -1.433,0.2 -2.7,0.2 0.466,0.233 1.367,0.4 2.7,0.5 1.2,0.133 2.033,0.367 2.5,0.7 -0.366,0.033 -0.633,0.066 -0.8,0.1 0.033,0.1 0.283,0.25 0.75,0.45 0.367,0.133 0.633,0.3 0.8,0.5 l 0.05,0.05 0.2,0.05 c -10e-4,-0.434 -0.15,-0.867 -0.45,-1.3 z"
   id="path85"
   inkscape:connector-curvature="0" />
		<path
   style="clip-rule:evenodd;fill:#817817;fill-rule:evenodd"
   d="m 23.45,-17.75 c 1.067,0.633 1.7,0.983 1.9,1.05 0.867,0.333 1.333,0.517 1.4,0.55 0.534,0.233 0.933,0.517 1.2,0.85 0.3,0.433 0.45,0.866 0.45,1.3 l 0.65,0.25 c 1.066,-0.934 -1.3,-2.684 -7.1,-5.25 0.333,0.367 0.833,0.783 1.5,1.25 z"
   id="path87"
   inkscape:connector-curvature="0" />
		<path
   style="clip-rule:evenodd;fill:#f5e458;fill-rule:evenodd"
   d="m 13.2,-1.7 c 2.133,-0.733 3.45,-1.483 3.95,-2.25 l 2.4,-3.4 0.15,-0.4 c 0.466,-1.2 1.7,-2.934 3.7,-5.2 -0.566,0.034 -1.467,0.5 -2.7,1.4 l -0.2,0.15 c -0.6,0.466 -1.267,1.35 -2,2.65 -1.1,1.9 -1.817,3.033 -2.15,3.4 l -0.4,0.4 c -0.7,0.667 -1.667,1.1 -2.9,1.3 l -1.6,0.1 0.65,-0.3 c 0.233,-0.133 0.467,-0.417 0.7,-0.85 0.433,-1.066 0.7,-1.667 0.8,-1.8 0.1,-0.133 0.333,-0.55 0.7,-1.25 0.366,-0.733 0.85,-1.483 1.45,-2.25 l 0.35,-0.55 c 0.167,-0.367 0.167,-0.6 0,-0.7 -0.9,0.633 -1.517,1.167 -1.85,1.6 -0.333,0.466 -0.95,1.517 -1.85,3.15 -0.6,1.066 -1.15,1.75 -1.65,2.05 -1.534,0.933 -2.284,1.766 -2.25,2.5 0.733,1 2.3,1.083 4.7,0.25 z"
   id="path89"
   inkscape:connector-curvature="0" />
		<path
   style="clip-rule:evenodd;fill:#d9c40c;fill-rule:evenodd"
   d="m 21.075,-9.6 -0.325,0.45 z m 2.425,0.25 0.75,-1.35 -0.15,-0.15 -0.9,0.45 c 0.533,-1.367 1.1,-2.167 1.7,-2.4 -0.167,0 -0.417,0.066 -0.75,0.2 -0.3,0.133 -0.533,0.184 -0.7,0.15 -0.567,0.367 -1.133,1.017 -1.7,1.95 l -1.35,1.95 c -0.133,0.333 -0.2,0.583 -0.2,0.75 l 0.75,-0.7 -1.05,2.25 c -0.366,0.633 -0.566,1.083 -0.6,1.35 0.3,-0.034 0.6,-0.184 0.9,-0.45 0.167,-0.133 0.417,-0.333 0.75,-0.6 -0.034,0.233 -0.167,0.55 -0.4,0.95 l -0.6,0.95 c 0.966,-1 2.033,-2.534 3.2,-4.6 -10e-4,-0.067 0.117,-0.3 0.35,-0.7 z"
   id="path91"
   inkscape:connector-curvature="0" />
		<path
   style="clip-rule:evenodd;fill:#b69726;fill-rule:evenodd"
   d="m 23.5,-13.05 c -0.133,0.2 -0.15,0.4 -0.05,0.6 0.167,0.034 0.4,-0.017 0.7,-0.15 0.333,-0.133 0.583,-0.2 0.75,-0.2 -0.6,0.233 -1.167,1.033 -1.7,2.4 l 0.9,-0.45 0.15,0.15 c 0.333,-0.7 0.583,-1.083 0.75,-1.15 L 25.5,-12 c 0.4,-0.167 0.75,-0.35 1.05,-0.55 -0.167,-0.167 -0.45,-0.317 -0.85,-0.45 -0.367,-0.133 -0.633,-0.2 -0.8,-0.2 z"
   id="path93"
   inkscape:connector-curvature="0" />
		<path
   style="clip-rule:evenodd;fill:#817400;fill-rule:evenodd"
   d="m 24.899,-13.2 c 0.167,0 0.434,0.067 0.8,0.2 0.4,0.133 0.683,0.283 0.85,0.45 l 0.85,-0.65 c 0.833,-0.1 1.384,-0.283 1.65,-0.55 l -0.65,-0.25 -0.2,-0.05 h -0.05 c -0.4,-0.1 -1.316,-0.1 -2.75,0 -0.633,0 -1.15,0.017 -1.55,0.05 -0.733,0.033 -1.233,0.167 -1.5,0.4 -0.133,0.067 -0.217,0.167 -0.25,0.3 l 0.25,0.2 c 0.2,0.067 0.55,0.1 1.05,0.1 l 0.1,-0.05 z"
   id="path95"
   inkscape:connector-curvature="0" />
		<path
   style="clip-rule:evenodd;fill:#fff395;fill-rule:evenodd"
   d="m 24.25,-14.35 c -0.6,-0.167 -1.3,-0.4 -2.1,-0.7 -2.767,-0.934 -4.866,-1.934 -6.3,-3 -0.733,-0.534 -1.7,-1.05 -2.9,-1.55 -1.1,-0.433 -2.133,-0.75 -3.1,-0.95 -0.434,0 -1.05,0.033 -1.85,0.1 v 0.05 c -0.033,0.133 0.017,0.3 0.15,0.5 l 2.25,0.4 c 1.767,0.4 3.267,1 4.5,1.8 1.233,0.8 2.733,1.483 4.5,2.05 0.934,0.3 1.983,0.6 3.15,0.9 z"
   id="path97"
   inkscape:connector-curvature="0" />
		<path
   style="clip-rule:evenodd;fill:#fff395;fill-rule:evenodd"
   d="m 17.35,-3.15 2.75,-4.95 -2.95,4.15 c -0.5,0.767 -1.816,1.517 -3.95,2.25 -2.4,0.833 -3.967,0.75 -4.7,-0.25 0,0.3 0.117,0.583 0.35,0.85 0.4,0.5 1.267,0.733 2.6,0.7 1.367,-0.034 2.783,-0.333 4.25,-0.9 0.666,-0.5 1.216,-1.117 1.65,-1.85 z"
   id="path99"
   inkscape:connector-curvature="0" />
		<path
   style="clip-rule:evenodd;fill:#feeb47;fill-rule:evenodd"
   d="m 19.75,-3.3 c -0.033,-0.367 -0.233,-0.517 -0.6,-0.45 L 18.6,-3.3 c -0.1,0 -0.184,0.083 -0.25,0.25 -0.033,0.167 -0.033,0.3 0,0.4 0.066,0.133 0.233,0.2 0.5,0.2 0.2,0.034 0.367,0.017 0.5,-0.05 0.299,-0.133 0.433,-0.4 0.4,-0.8 z"
   id="path101"
   inkscape:connector-curvature="0" />
		<path
   style="clip-rule:evenodd;fill:#feeb47;fill-rule:evenodd"
   d="m 19.95,-4.8 c 0,0.033 0,0.183 0,0.45 -0.034,0.167 0.033,0.267 0.2,0.3 0.333,0.067 0.617,-0.05 0.85,-0.35 0.233,-0.4 0.233,-0.75 0,-1.05 -0.333,-0.233 -0.533,-0.216 -0.6,0.05 z"
   id="path103"
   inkscape:connector-curvature="0" />
		<path
   style="clip-rule:evenodd;fill:#feeb47;fill-rule:evenodd"
   d="m 18.8,-4.55 c 0.2,0.167 0.433,0.15 0.7,-0.05 0.267,-0.233 0.367,-0.45 0.3,-0.65 -0.067,-0.233 -0.233,-0.316 -0.5,-0.25 -0.233,0.033 -0.384,0.15 -0.45,0.35 z"
   id="path105"
   inkscape:connector-curvature="0" />
		<path
   style="clip-rule:evenodd;fill:#feeb47;fill-rule:evenodd"
   d="m 20.649,-6.35 c 0.3,0.233 0.6,0.184 0.9,-0.15 0.267,-0.333 0.3,-0.633 0.1,-0.9 -0.1,-0.2 -0.383,-0.233 -0.85,-0.1 -0.2,0.1 -0.3,0.467 -0.3,1.1 z"
   id="path107"
   inkscape:connector-curvature="0" />
		<path
   style="clip-rule:evenodd;fill:#feeb47;fill-rule:evenodd"
   d="m 21.2,-8.4 h 0.9 c 0.3,-0.133 0.4,-0.417 0.3,-0.85 -0.066,-0.333 -0.316,-0.417 -0.75,-0.25 -0.4,0.133 -0.583,0.35 -0.55,0.65 z"
   id="path109"
   inkscape:connector-curvature="0" />
		<path
   style="clip-rule:evenodd;fill:#feeb47;fill-rule:evenodd"
   d="m 22.149,-7.9 c 0,0.466 0.083,0.716 0.25,0.75 0.2,0.033 0.367,-0.083 0.5,-0.35 0.134,-0.167 0.2,-0.367 0.2,-0.6 0,-0.2 -0.017,-0.316 -0.05,-0.35 -0.033,-0.033 -0.15,-0.083 -0.35,-0.15 z"
   id="path111"
   inkscape:connector-curvature="0" />
		<path
   style="clip-rule:evenodd;fill:#feeb47;fill-rule:evenodd"
   d="m 21.399,-6.05 v 0.4 c 0.233,0.033 0.5,-0.184 0.8,-0.65 0.167,-0.233 0.216,-0.4 0.15,-0.5 L 22.1,-7.05 Z"
   id="path113"
   inkscape:connector-curvature="0" />
		<path
   style="clip-rule:evenodd;fill:#feeb47;fill-rule:evenodd"
   d="m 23.5,-10 c -0.033,0.033 -0.05,0.117 -0.05,0.25 0,0.167 0.033,0.267 0.1,0.3 0.133,0.1 0.217,0.067 0.25,-0.1 0.066,-0.167 0.05,-0.3 -0.05,-0.4 z"
   id="path115"
   inkscape:connector-curvature="0" />
		<path
   style="clip-rule:evenodd;fill:#feeb47;fill-rule:evenodd"
   d="m 15.75,-1.25 c 0.4,0.1 0.733,0.083 1,-0.05 0.1,-0.1 0.267,-0.233 0.5,-0.4 0.1,-0.1 0.15,-0.233 0.15,-0.4 -0.267,0.034 -0.5,0.117 -0.7,0.25 -0.4,0.267 -0.683,0.4 -0.85,0.4 z"
   id="path117"
   inkscape:connector-curvature="0" />
		<path
   style="clip-rule:evenodd;fill:#feeb47;fill-rule:evenodd"
   d="m 17,-3 c 0.133,0.233 0.4,0.267 0.8,0.1 0.267,-0.1 0.366,-0.35 0.3,-0.75 -0.133,-0.034 -0.267,0 -0.4,0.1 -0.167,0.1 -0.284,0.15 -0.35,0.15 z"
   id="path119"
   inkscape:connector-curvature="0" />
		<path
   style="clip-rule:evenodd;fill:#fff290;fill-rule:evenodd"
   d="m 16.5,-5.35 c -0.034,0.2 -0.05,0.35 -0.05,0.45 0,0.167 0.067,0.3 0.2,0.4 0.333,0.133 0.733,-0.083 1.2,-0.65 0.267,-0.267 0.283,-0.517 0.05,-0.75 C 17.833,-5.967 17.483,-6 16.85,-6 Z"
   id="path121"
   inkscape:connector-curvature="0" />
		<path
   style="clip-rule:evenodd;fill:#fff290;fill-rule:evenodd"
   d="m 13.7,-2.7 c 0.2,0.2 0.483,0.25 0.85,0.15 0.4,-0.134 0.583,-0.35 0.55,-0.65 -0.033,-0.167 -0.184,-0.25 -0.45,-0.25 -0.333,0.034 -0.566,0.167 -0.7,0.4 z"
   id="path123"
   inkscape:connector-curvature="0" />
		<path
   style="clip-rule:evenodd;fill:#fff290;fill-rule:evenodd"
   d="m 11.35,-1.9 c 0.066,0.133 0.217,0.216 0.45,0.25 0.233,0.066 0.417,0.05 0.55,-0.05 0.066,-0.066 0.1,-0.216 0.1,-0.45 0,-0.234 -0.034,-0.383 -0.1,-0.45 -0.066,-0.066 -0.2,-0.1 -0.4,-0.1 -0.233,0 -0.383,0.034 -0.45,0.1 z"
   id="path125"
   inkscape:connector-curvature="0" />
		<path
   style="clip-rule:evenodd;fill:#fff290;fill-rule:evenodd"
   d="m 11.2,-0.35 c 0.067,0.167 0.25,0.284 0.55,0.35 h 0.45 c 0.233,-0.1 0.3,-0.316 0.2,-0.65 -0.1,-0.3 -0.25,-0.5 -0.45,-0.6 z"
   id="path127"
   inkscape:connector-curvature="0" />
		<path
   style="clip-rule:evenodd;fill:#fff290;fill-rule:evenodd"
   d="m 8.649,-1.65 c 0,0.233 0.167,0.3 0.5,0.2 0.333,-0.066 0.417,-0.267 0.25,-0.6 C 9.3,-2.184 9.149,-2.267 8.95,-2.3 8.75,-2.3 8.666,-2.2 8.7,-2 Z"
   id="path129"
   inkscape:connector-curvature="0" />
		<path
   style="clip-rule:evenodd;fill:#fff290;fill-rule:evenodd"
   d="M 9.7,-3.5 C 9.967,-3.667 9.967,-3.8 9.7,-3.9 9.433,-4.033 9.216,-4.05 9.05,-3.95 8.916,-3.883 8.833,-3.75 8.8,-3.55 8.733,-3.317 8.767,-3.167 8.9,-3.1 Z"
   id="path131"
   inkscape:connector-curvature="0" />
		<path
   style="clip-rule:evenodd;fill:#fff290;fill-rule:evenodd"
   d="m 10.45,-3.6 c 0.133,0.034 0.3,0.083 0.5,0.15 0.1,0.034 0.25,0.017 0.45,-0.05 0.233,-0.066 0.367,-0.15 0.4,-0.25 C 11.833,-3.917 11.733,-4 11.5,-4 11.267,-4 11.1,-3.95 11,-3.85 Z"
   id="path133"
   inkscape:connector-curvature="0" />
		<path
   style="clip-rule:evenodd;fill:#fff290;fill-rule:evenodd"
   d="m 11.55,-5.8 c 0.066,0.433 0.183,0.667 0.35,0.7 0.467,0.1 0.7,-0.1 0.7,-0.6 0.1,-0.333 0.066,-0.566 -0.1,-0.7 -0.133,-0.067 -0.267,-0.05 -0.4,0.05 -0.167,0.133 -0.283,0.217 -0.35,0.25 z"
   id="path135"
   inkscape:connector-curvature="0" />
		<path
   style="clip-rule:evenodd;fill:#fff290;fill-rule:evenodd"
   d="m 12.45,-7.1 c 0.033,0.167 0.117,0.3 0.25,0.4 0.167,0.134 0.317,0.15 0.45,0.05 0.134,-0.133 0.15,-0.333 0.05,-0.6 h -0.4 z"
   id="path137"
   inkscape:connector-curvature="0" />
		<path
   style="clip-rule:evenodd;fill:#fff290;fill-rule:evenodd"
   d="m 13.75,-9.4 c -0.067,0.167 -0.067,0.367 0,0.6 0.367,0.033 0.683,-0.067 0.95,-0.3 0.267,-0.233 0.383,-0.533 0.35,-0.9 -0.033,-0.3 -0.2,-0.367 -0.5,-0.2 -0.267,0.134 -0.467,0.317 -0.6,0.55 z"
   id="path139"
   inkscape:connector-curvature="0" />
		<path
   style="clip-rule:evenodd;fill:#fff290;fill-rule:evenodd"
   d="m 15.35,-10.85 c -0.033,0.267 0.066,0.367 0.3,0.3 0.233,-0.034 0.333,-0.184 0.3,-0.45 l -0.75,-0.1 z"
   id="path141"
   inkscape:connector-curvature="0" />
		<path
   style="clip-rule:evenodd;fill:#fff290;fill-rule:evenodd"
   d="m 17.8,-7.8 c -0.134,0.233 -0.134,0.4 0,0.5 0.167,0.133 0.333,0.1 0.5,-0.1 0.233,-0.233 0.3,-0.583 0.2,-1.05 -0.333,0 -0.533,0.1 -0.6,0.3 z"
   id="path143"
   inkscape:connector-curvature="0" />
		<path
   style="clip-rule:evenodd;fill:#fff290;fill-rule:evenodd"
   d="m 19.05,-8.7 c 0,0.2 0.017,0.35 0.05,0.45 0.033,0.167 0.117,0.267 0.25,0.3 0.2,0.067 0.467,-0.1 0.8,-0.5 0.267,-0.4 0.367,-0.667 0.3,-0.8 -0.2,-0.3 -0.534,-0.217 -1,0.25 z"
   id="path145"
   inkscape:connector-curvature="0" />
		<path
   style="clip-rule:evenodd;fill:#fff290;fill-rule:evenodd"
   d="m 20.1,-10.6 c 0.434,0.3 0.733,0.25 0.9,-0.15 0.1,-0.2 0.1,-0.316 0,-0.35 -0.067,-0.033 -0.233,-0.05 -0.5,-0.05 z"
   id="path147"
   inkscape:connector-curvature="0" />
		<path
   style="clip-rule:evenodd;fill:#fff290;fill-rule:evenodd"
   d="m 8.55,-20.4 c -0.033,-0.034 -0.35,-0.05 -0.95,-0.05 -0.267,0 -0.483,0.017 -0.65,0.05 -0.267,0.033 -0.433,0.133 -0.5,0.3 -0.1,0.267 0,0.45 0.3,0.55 0.2,0.066 0.45,0.083 0.75,0.05 0.267,-0.033 0.433,-0.083 0.5,-0.15 0.034,-0.067 0.034,-0.233 0,-0.5 z"
   id="path149"
   inkscape:connector-curvature="0" />
		<path
   style="clip-rule:evenodd;fill:#fff290;fill-rule:evenodd"
   d="m 4.399,-19.5 c -0.033,0.233 0.15,0.35 0.55,0.35 0.367,0 0.583,-0.083 0.65,-0.25 0.167,-0.2 0.15,-0.35 -0.05,-0.45 C 5.383,-19.95 5.183,-20 4.95,-20 Z"
   id="path151"
   inkscape:connector-curvature="0" />
		<path
   style="clip-rule:evenodd;fill:#fff290;fill-rule:evenodd"
   d="m 0,-18.25 c 0,0.333 0.333,0.434 1,0.3 0.633,-0.1 0.784,-0.35 0.45,-0.75 -0.133,-0.167 -0.367,-0.233 -0.7,-0.2 -0.3,0 -0.533,0.083 -0.7,0.25 z"
   id="path153"
   inkscape:connector-curvature="0" />
		<path
   style="clip-rule:evenodd;fill:#fff290;fill-rule:evenodd"
   d="m 0.649,-19.4 c 0.1,-0.034 0.25,0.017 0.45,0.15 0.1,0.033 0.283,0.017 0.55,-0.05 0.733,0 1.067,-0.15 1,-0.45 C 2.616,-19.917 2.383,-20 1.95,-20 c -0.4,0 -0.7,0.05 -0.9,0.15 z"
   id="path155"
   inkscape:connector-curvature="0" />
		<path
   style="clip-rule:evenodd;fill:#fff290;fill-rule:evenodd"
   d="m 2.5,-19.05 c -0.033,0.2 0.083,0.333 0.35,0.4 0.233,0.066 0.434,0.033 0.6,-0.1 0.2,-0.2 0.2,-0.367 0,-0.5 -0.167,-0.133 -0.383,-0.2 -0.65,-0.2 z"
   id="path157"
   inkscape:connector-curvature="0" />
		<path
   style="clip-rule:evenodd;fill:#fff290;fill-rule:evenodd"
   d="m 2.05,-17.05 c 0.066,0.4 0.2,0.667 0.4,0.8 0.4,0.233 0.883,0.283 1.45,0.15 0,-0.333 -0.15,-0.583 -0.45,-0.75 -0.067,-0.033 -0.367,-0.133 -0.9,-0.3 z"
   id="path159"
   inkscape:connector-curvature="0" />
		<path
   style="clip-rule:evenodd;fill:#fff290;fill-rule:evenodd"
   d="m 5.05,-15.6 c 0.033,0.434 0.267,0.784 0.7,1.05 0.534,0.267 0.85,0.316 0.95,0.15 0.133,-0.2 0.117,-0.45 -0.05,-0.75 L 6.3,-15.5 c -0.434,-0.133 -0.65,-0.217 -0.65,-0.25 z"
   id="path161"
   inkscape:connector-curvature="0" />
		<path
   style="clip-rule:evenodd;fill:#fff290;fill-rule:evenodd"
   d="m 4.7,-16.25 c 0.267,0.333 0.667,0.417 1.2,0.25 0,-0.533 -0.217,-0.867 -0.65,-1 -0.3,-0.1 -0.5,-0.133 -0.6,-0.1 -0.066,0.034 -0.1,0.217 -0.1,0.55 z"
   id="path163"
   inkscape:connector-curvature="0" />
		<path
   style="clip-rule:evenodd;fill:#fff290;fill-rule:evenodd"
   d="m 7.05,-14.8 c 0.467,0.6 0.733,0.733 0.8,0.4 0.066,-0.2 0.017,-0.4 -0.15,-0.6 -0.2,-0.2 -0.4,-0.2 -0.6,0 z"
   id="path165"
   inkscape:connector-curvature="0" />
		<path
   style="clip-rule:evenodd;fill:#fff290;fill-rule:evenodd"
   d="m 8.6,-13.65 c -0.333,0.1 -0.184,0.3 0.45,0.6 0.433,0.2 0.833,0.25 1.2,0.15 0.133,-0.367 -0.067,-0.65 -0.6,-0.85 -0.667,-0.167 -1.083,-0.283 -1.25,-0.35 z"
   id="path167"
   inkscape:connector-curvature="0" />
		<path
   style="clip-rule:evenodd;fill:#fff290;fill-rule:evenodd"
   d="m 11.149,-12.75 c 0,0.233 0.05,0.417 0.15,0.55 0.167,0.134 0.4,0.2 0.7,0.2 0.267,0 0.417,-0.1 0.45,-0.3 0,-0.367 -0.317,-0.55 -0.95,-0.55 z"
   id="path169"
   inkscape:connector-curvature="0" />
		<path
   style="clip-rule:evenodd;fill:#fff290;fill-rule:evenodd"
   d="m 12.85,-12.55 c 0.133,0.1 0.333,0.183 0.6,0.25 0.3,0.066 0.5,0.05 0.6,-0.05 0.033,-0.033 0.05,-0.117 0.05,-0.25 0,-0.1 -0.033,-0.167 -0.1,-0.2 -0.1,-0.134 -0.35,-0.134 -0.75,0 z"
   id="path171"
   inkscape:connector-curvature="0" />
		<path
   style="clip-rule:evenodd;fill:#fff290;fill-rule:evenodd"
   d="m 10.399,-13.4 c 0.033,0.133 0.167,0.183 0.4,0.15 0.267,0 0.433,-0.05 0.5,-0.15 0.1,-0.2 0.033,-0.367 -0.2,-0.5 -0.267,-0.1 -0.5,-0.117 -0.7,-0.05 z"
   id="path173"
   inkscape:connector-curvature="0" />
		<path
   style="clip-rule:evenodd;fill:#fff290;fill-rule:evenodd"
   d="m 10.75,-18.2 c -0.033,0.267 0.15,0.45 0.55,0.55 0.3,0.033 0.583,0.017 0.85,-0.05 0.1,-0.433 0.017,-0.716 -0.25,-0.85 -0.4,-0.167 -0.767,-0.167 -1.1,0 z"
   id="path175"
   inkscape:connector-curvature="0" />
		<path
   style="clip-rule:evenodd;fill:#fff290;fill-rule:evenodd"
   d="m 8.05,-18.6 c -0.033,0.233 0.217,0.383 0.75,0.45 0.5,0.1 0.816,0.066 0.95,-0.1 0.067,-0.1 0.1,-0.233 0.1,-0.4 -0.033,-0.2 -0.1,-0.317 -0.2,-0.35 -0.133,-0.066 -0.533,-0.05 -1.2,0.05 z"
   id="path177"
   inkscape:connector-curvature="0" />
		<path
   style="clip-rule:evenodd;fill:#fff290;fill-rule:evenodd"
   d="m 12.85,-18.3 c -0.066,0.267 0.1,0.433 0.5,0.5 0.4,0.066 0.583,-0.05 0.55,-0.35 0,-0.467 -0.366,-0.667 -1.1,-0.6 z"
   id="path179"
   inkscape:connector-curvature="0" />
		<path
   style="clip-rule:evenodd;fill:#fff290;fill-rule:evenodd"
   d="m 12.95,-16.8 c -0.034,0.167 0.167,0.35 0.6,0.55 0.4,0.167 0.683,0.184 0.85,0.05 0.3,-0.3 -0.033,-0.65 -1,-1.05 z"
   id="path181"
   inkscape:connector-curvature="0" />
		<path
   style="clip-rule:evenodd;fill:#fff290;fill-rule:evenodd"
   d="m 15.399,-16.5 c 0.167,0.434 0.7,0.583 1.6,0.45 0,-0.267 -0.133,-0.483 -0.4,-0.65 l -0.65,-0.2 z"
   id="path183"
   inkscape:connector-curvature="0" />
		<path
   style="clip-rule:evenodd;fill:#fff290;fill-rule:evenodd"
   d="m 17.8,-15.25 c -0.033,0.233 0.133,0.434 0.5,0.6 0.3,0.133 0.583,0.183 0.85,0.15 0.267,-0.066 0.35,-0.217 0.25,-0.45 -0.1,-0.2 -0.3,-0.35 -0.6,-0.45 -0.3,-0.1 -0.567,-0.133 -0.8,-0.1 z"
   id="path185"
   inkscape:connector-curvature="0" />
		<path
   style="clip-rule:evenodd;fill:#fff290;fill-rule:evenodd"
   d="m 20,-14.85 c 0,0.133 0.1,0.25 0.3,0.35 0.2,0.1 0.366,0.117 0.5,0.05 0.033,-0.1 -0.067,-0.216 -0.3,-0.35 z"
   id="path187"
   inkscape:connector-curvature="0" />
		<path
   style="clip-rule:evenodd;fill:#feeb47;fill-rule:evenodd"
   d="m 12.05,-20.5 c 0.267,0.066 0.633,0.25 1.1,0.55 0.2,0.067 0.45,0.083 0.75,0.05 0.467,0 0.717,-0.017 0.75,-0.05 0.067,-0.033 0.1,-0.15 0.1,-0.35 0,-0.134 -0.017,-0.233 -0.05,-0.3 -0.167,-0.3 -0.617,-0.4 -1.35,-0.3 -0.7,0 -1.083,0.083 -1.15,0.25 z"
   id="path189"
   inkscape:connector-curvature="0" />
		<path
   style="clip-rule:evenodd;fill:#feeb47;fill-rule:evenodd"
   d="m 15.25,-19.6 c 0.433,0.333 0.8,0.483 1.1,0.45 0.333,0 0.533,0 0.6,0 0.233,-0.067 0.3,-0.217 0.2,-0.45 -0.1,-0.233 -0.583,-0.283 -1.45,-0.15 z"
   id="path191"
   inkscape:connector-curvature="0" />
		<path
   style="clip-rule:evenodd;fill:#feeb47;fill-rule:evenodd"
   d="m 16.399,-18.2 c 0.1,0.167 0.3,0.333 0.6,0.5 0.3,0.2 0.534,0.217 0.7,0.05 0.133,-0.133 0.083,-0.317 -0.15,-0.55 -0.2,-0.267 -0.467,-0.366 -0.8,-0.3 z"
   id="path193"
   inkscape:connector-curvature="0" />
		<path
   style="clip-rule:evenodd;fill:#feeb47;fill-rule:evenodd"
   d="m 17.8,-18.75 c 0.1,0.767 0.6,1.05 1.5,0.85 0.066,-0.434 -0.017,-0.767 -0.25,-1 -0.134,-0.133 -0.317,-0.233 -0.55,-0.3 -0.3,-0.066 -0.5,-0.033 -0.6,0.1 z"
   id="path195"
   inkscape:connector-curvature="0" />
		<path
   style="clip-rule:evenodd;fill:#feeb47;fill-rule:evenodd"
   d="m 16.6,-20.35 c 0.333,0 0.833,0.034 1.5,0.1 0.033,-0.167 -0.1,-0.316 -0.4,-0.45 -0.2,-0.066 -0.417,-0.1 -0.65,-0.1 l -0.55,0.05 c -0.133,0.1 -0.267,0.184 -0.4,0.25 z"
   id="path197"
   inkscape:connector-curvature="0" />
		<path
   style="clip-rule:evenodd;fill:#feeb47;fill-rule:evenodd"
   d="m 19.75,-16.85 c 0,0.233 0.233,0.4 0.7,0.5 0.433,0.133 0.716,0.117 0.85,-0.05 0.4,-0.467 -0.1,-0.684 -1.5,-0.65 z"
   id="path199"
   inkscape:connector-curvature="0" />
		<path
   style="clip-rule:evenodd;fill:#f5e458;fill-rule:evenodd"
   d="m 14.45,-5.3 c 0.133,0.2 0.383,0.216 0.75,0.05 0.367,-0.2 0.55,-0.417 0.55,-0.65 0.034,-0.567 -0.45,-0.567 -1.45,0 z"
   id="path201"
   inkscape:connector-curvature="0" />
		<path
   style="clip-rule:evenodd;fill:#f5e458;fill-rule:evenodd"
   d="m 15.55,-7.15 c 0.167,0.133 0.366,0.216 0.6,0.25 0.233,0 0.4,-0.1 0.5,-0.3 0.1,-0.3 0.033,-0.483 -0.2,-0.55 -0.1,-0.033 -0.333,-0.05 -0.7,-0.05 z"
   id="path203"
   inkscape:connector-curvature="0" />
		<path
   style="clip-rule:evenodd;fill:#f5e458;fill-rule:evenodd"
   d="m 14.25,-6.8 c 0.133,0.233 0.333,0.283 0.6,0.15 0.033,-0.1 0.017,-0.25 -0.05,-0.45 h -0.3 z"
   id="path205"
   inkscape:connector-curvature="0" />
		<path
   style="clip-rule:evenodd;fill:#f5e458;fill-rule:evenodd"
   d="m 16.649,-9.45 0.05,0.4 c 0.367,0.066 0.6,0.05 0.7,-0.05 0.134,-0.133 0.233,-0.417 0.3,-0.85 0.033,-0.433 0.017,-0.716 -0.05,-0.85 -0.133,-0.2 -0.333,-0.3 -0.6,-0.3 -0.233,0.034 -0.384,0.167 -0.45,0.4 -0.066,0.333 -0.133,0.583 -0.2,0.75 z"
   id="path207"
   inkscape:connector-curvature="0" />
		<path
   style="clip-rule:evenodd;fill:#f5e458;fill-rule:evenodd"
   d="m 12.95,-14.2 c 0.1,0.3 0.367,0.567 0.8,0.8 0.5,0.267 0.817,0.216 0.95,-0.15 0.167,-0.367 0.017,-0.617 -0.45,-0.75 -0.333,-0.1 -0.7,-0.134 -1.1,-0.1 z"
   id="path209"
   inkscape:connector-curvature="0" />
		<path
   style="clip-rule:evenodd;fill:#f5e458;fill-rule:evenodd"
   d="m 9.45,-15.95 c 0.167,0.267 0.466,0.434 0.9,0.5 0.434,0.1 0.633,-0.05 0.6,-0.45 -0.034,-0.333 -0.267,-0.583 -0.7,-0.75 -0.367,-0.133 -0.75,-0.167 -1.15,-0.1 z"
   id="path211"
   inkscape:connector-curvature="0" />
		<path
   style="clip-rule:evenodd;fill:#f5e458;fill-rule:evenodd"
   d="m 7.55,-16.25 c 0.2,0.2 0.366,0.2 0.5,0 0.133,-0.167 0.167,-0.35 0.1,-0.55 -0.066,-0.267 -0.267,-0.483 -0.6,-0.65 -0.333,-0.133 -0.634,-0.167 -0.9,-0.1 l 0.05,0.8 z"
   id="path213"
   inkscape:connector-curvature="0" />
		<path
   style="clip-rule:evenodd;fill:#f5e458;fill-rule:evenodd"
   d="m 11.899,-14.45 c 0.167,0.1 0.333,0.1 0.5,0 0.134,-0.066 0.167,-0.2 0.1,-0.4 -0.4,0 -0.617,0.034 -0.65,0.1 z"
   id="path215"
   inkscape:connector-curvature="0" />
		<path
   style="clip-rule:evenodd;fill:#d9c40c;fill-rule:evenodd"
   d="m 19.8,-9.3 c 0.1,-0.1 0.3,-0.15 0.6,-0.15 0.033,0.167 -0.017,0.384 -0.15,0.65 0.267,0.033 0.45,-0.117 0.55,-0.45 0.133,-0.267 0.167,-0.517 0.1,-0.75 -0.667,-0.066 -1.066,0.133 -1.2,0.6 z"
   id="path217"
   inkscape:connector-curvature="0" />
		<path
   style="clip-rule:evenodd;fill:#d9c40c;fill-rule:evenodd"
   d="m 20.649,-11.15 c 0.2,0.167 0.317,0.316 0.35,0.45 0.067,0.1 0.083,0.233 0.05,0.4 -0.032,0.2 -0.049,0.333 -0.049,0.4 0.1,0 0.317,-0.133 0.65,-0.4 0.367,-0.267 0.533,-0.45 0.5,-0.55 -0.033,-0.1 -0.217,-0.2 -0.55,-0.3 -0.1,-0.067 -0.333,-0.1 -0.7,-0.1 z"
   id="path219"
   inkscape:connector-curvature="0" />
		<path
   style="clip-rule:evenodd;fill:#d9c40c;fill-rule:evenodd"
   d="m 18.3,-8.3 0.05,0.9 c 0.233,-0.133 0.35,-0.383 0.35,-0.75 0,-0.233 -0.034,-0.367 -0.1,-0.4 h -0.45 z"
   id="path221"
   inkscape:connector-curvature="0" />
		<path
   style="clip-rule:evenodd;fill:#d9c40c;fill-rule:evenodd"
   d="m 17.45,-6.1 c 0.233,0.1 0.383,0.284 0.45,0.55 0.067,0.3 0.017,0.55 -0.15,0.75 0.4,-0.134 0.6,-0.434 0.6,-0.9 0,-0.566 -0.367,-0.816 -1.1,-0.75 z"
   id="path223"
   inkscape:connector-curvature="0" />
		<path
   style="clip-rule:evenodd;fill:#d9c40c;fill-rule:evenodd"
   d="m 15.649,-3 c 0.1,-0.533 -0.15,-0.733 -0.75,-0.6 l -0.3,0.3 c 0.3,-0.067 0.434,0.05 0.4,0.35 0,0.3 -0.067,0.534 -0.2,0.7 0.468,0.066 0.751,-0.184 0.85,-0.75 z"
   id="path225"
   inkscape:connector-curvature="0" />
		<path
   style="clip-rule:evenodd;fill:#d9c40c;fill-rule:evenodd"
   d="m 12.35,-5.55 -0.1,0.6 c 0.2,0.067 0.4,0.017 0.6,-0.15 0.167,-0.167 0.25,-0.35 0.25,-0.55 0.1,-0.267 0.066,-0.483 -0.1,-0.65 -0.067,-0.067 -0.167,-0.117 -0.3,-0.15 -0.2,0 -0.317,-0.017 -0.35,-0.05 z"
   id="path227"
   inkscape:connector-curvature="0" />
		<path
   style="clip-rule:evenodd;fill:#d9c40c;fill-rule:evenodd"
   d="m 13.25,-6.95 -0.2,0.4 c 0.267,0.033 0.467,-0.05 0.6,-0.25 0.1,-0.267 0.067,-0.417 -0.1,-0.45 z"
   id="path229"
   inkscape:connector-curvature="0" />
		<path
   style="clip-rule:evenodd;fill:#d9c40c;fill-rule:evenodd"
   d="m 14.899,-10.2 v 0.6 c -0.2,0.233 -0.316,0.434 -0.35,0.6 0.333,0.033 0.583,-0.1 0.75,-0.4 0.133,-0.3 0.083,-0.567 -0.15,-0.8 z"
   id="path231"
   inkscape:connector-curvature="0" />
		<path
   style="clip-rule:evenodd;fill:#d9c40c;fill-rule:evenodd"
   d="m 15.95,-16.75 c 0.2,-0.033 0.4,0.017 0.6,0.15 0.167,0.1 0.25,0.2 0.25,0.3 0.033,0.133 0.05,0.267 0.05,0.4 0.2,0.033 0.35,-0.034 0.45,-0.2 0.1,-0.167 0.083,-0.316 -0.05,-0.45 -0.1,-0.1 -0.283,-0.184 -0.55,-0.25 -0.267,-0.067 -0.467,-0.083 -0.6,-0.05 z"
   id="path233"
   inkscape:connector-curvature="0" />
		<path
   style="clip-rule:evenodd;fill:#d9c40c;fill-rule:evenodd"
   d="m 18.35,-15.55 c 0.267,0.066 0.533,0.233 0.8,0.5 0.033,0.033 0.083,0.233 0.15,0.6 0.233,0.067 0.35,-0.033 0.35,-0.3 0,-0.233 -0.05,-0.417 -0.15,-0.55 -0.233,-0.267 -0.567,-0.4 -1,-0.4 z"
   id="path235"
   inkscape:connector-curvature="0" />
		<path
   style="clip-rule:evenodd;fill:#d9c40c;fill-rule:evenodd"
   d="m 20.35,-14.85 c 0.133,0.034 0.333,0.15 0.6,0.35 0.033,-0.167 -0.034,-0.283 -0.2,-0.35 l -0.45,-0.2 z"
   id="path237"
   inkscape:connector-curvature="0" />
		<path
   style="clip-rule:evenodd;fill:#d9c40c;fill-rule:evenodd"
   d="m 13.35,-16.9 c 0.267,-0.034 0.5,0.083 0.7,0.35 0.066,0.066 0.2,0.216 0.4,0.45 0.133,0 0.2,-0.15 0.2,-0.45 -0.033,-0.3 -0.3,-0.517 -0.8,-0.65 z"
   id="path239"
   inkscape:connector-curvature="0" />
		<path
   style="clip-rule:evenodd;fill:#b69726;fill-rule:evenodd"
   d="m 19,-19 c 0.133,0.467 0.05,0.85 -0.25,1.15 0.233,0.167 0.467,0.167 0.7,0 0.133,-0.1 0.167,-0.267 0.1,-0.5 -0.1,-0.2 -0.217,-0.35 -0.35,-0.45 z"
   id="path241"
   inkscape:connector-curvature="0" />
		<path
   style="clip-rule:evenodd;fill:#b69726;fill-rule:evenodd"
   d="m 16.95,-19.6 c -0.067,0.233 -0.167,0.367 -0.3,0.4 0.033,0.067 0.134,0.1 0.3,0.1 0.133,0.034 0.233,0.017 0.3,-0.05 0.133,-0.034 0.2,-0.1 0.2,-0.2 0.033,-0.2 -0.133,-0.367 -0.5,-0.5 z"
   id="path243"
   inkscape:connector-curvature="0" />
		<path
   style="clip-rule:evenodd;fill:#b69726;fill-rule:evenodd"
   d="m 14.35,-20.75 c 0.2,0.066 0.217,0.2 0.05,0.4 -0.2,0.2 -0.333,0.333 -0.4,0.4 0.167,0.134 0.467,0.15 0.9,0.05 0,-0.333 -0.116,-0.6 -0.35,-0.8 z"
   id="path245"
   inkscape:connector-curvature="0" />
		<path
   style="clip-rule:evenodd;fill:#b69726;fill-rule:evenodd"
   d="m 16.95,-18.45 c 0.3,0.1 0.466,0.2 0.5,0.3 0.067,0.1 0.067,0.283 0,0.55 0.033,0.1 0.117,0.133 0.25,0.1 0.1,0 0.183,-0.05 0.25,-0.15 0.067,-0.1 0.067,-0.25 0,-0.45 -0.034,-0.167 -0.1,-0.3 -0.2,-0.4 z"
   id="path247"
   inkscape:connector-curvature="0" />
		<path
   style="clip-rule:evenodd;fill:#b69726;fill-rule:evenodd"
   d="M 21.05,-16.95 21,-16.5 c -0.033,0.233 0.067,0.3 0.3,0.2 v -0.45 z"
   id="path249"
   inkscape:connector-curvature="0" />
		<path
   style="clip-rule:evenodd;fill:#b69726;fill-rule:evenodd"
   d="m 22.55,-9.15 c 0.033,-0.3 0,-0.5 -0.1,-0.6 -0.1,-0.133 -0.317,-0.167 -0.65,-0.1 -0.3,0.067 -0.434,0.2 -0.4,0.4 l -0.05,0.2 c 0.033,-0.066 0.15,-0.117 0.35,-0.15 0.167,0 0.3,0.017 0.4,0.05 0.133,0.067 0.217,0.184 0.25,0.35 l 0.05,0.4 c 0.066,-0.1 0.117,-0.283 0.15,-0.55 z"
   id="path251"
   inkscape:connector-curvature="0" />
		<path
   style="clip-rule:evenodd;fill:#b69726;fill-rule:evenodd"
   d="m 23.149,-8.35 c -0.033,-0.133 -0.033,-0.35 0,-0.65 -0.1,-0.033 -0.217,0.017 -0.35,0.15 -0.167,0.167 -0.267,0.267 -0.3,0.3 l -0.2,0.2 z"
   id="path253"
   inkscape:connector-curvature="0" />
		<path
   style="clip-rule:evenodd;fill:#b69726;fill-rule:evenodd"
   d="m 20.85,-7.35 c 0.167,-0.033 0.283,-0.017 0.35,0.05 l 0.15,0.25 c 0.233,0.233 0.4,0.25 0.5,0.05 0.066,-0.167 0.066,-0.367 0,-0.6 -0.1,-0.233 -0.217,-0.367 -0.35,-0.4 -0.4,-0.1 -0.633,-0.017 -0.7,0.25 z"
   id="path255"
   inkscape:connector-curvature="0" />
		<path
   style="clip-rule:evenodd;fill:#b69726;fill-rule:evenodd"
   d="m 21.7,-6.4 c 0.133,0 0.267,-0.117 0.4,-0.35 0.167,-0.233 0.217,-0.417 0.15,-0.55 -0.233,-0.034 -0.433,0.1 -0.6,0.4 -0.2,0.3 -0.383,0.483 -0.55,0.55 z"
   id="path257"
   inkscape:connector-curvature="0" />
		<path
   style="clip-rule:evenodd;fill:#b69726;fill-rule:evenodd"
   d="m 20.1,-5.075 c 0.059,-0.14 0.175,-0.231 0.35,-0.275 0.167,-0.066 0.433,-0.1 0.8,-0.1 0,-0.066 0.017,-0.183 0.05,-0.35 0.033,-0.167 0.017,-0.267 -0.05,-0.3 -0.2,-0.2 -0.55,-0.05 -1.05,0.45 z"
   id="path259"
   inkscape:connector-curvature="0" />
		<path
   style="clip-rule:evenodd;fill:#b69726;fill-rule:evenodd"
   d="M 19.85,-5.35 V -5.7 c -0.1,-0.1 -0.233,-0.116 -0.4,-0.05 -0.167,0.066 -0.267,0.167 -0.3,0.3 0.033,0 0.167,0 0.4,0 0.133,0 0.233,0.033 0.3,0.1 z"
   id="path261"
   inkscape:connector-curvature="0" />
		<linearGradient
   id="SVGID_2_"
   gradientUnits="userSpaceOnUse"
   x1="29.0249"
   y1="-13.1582"
   x2="28.8664"
   y2="-7.9334998">
			<stop
   offset="0"
   style="stop-color:#617220"
   id="stop263" />
			<stop
   offset="1"
   style="stop-color:#869D2E"
   id="stop265" />
		</linearGradient>
		<path
   style="clip-rule:evenodd;fill:url(#linearGradient1348);fill-rule:evenodd"
   d="m 30.5,-15.2 c -0.267,-0.167 -0.633,-0.25 -1.1,-0.25 l -1.15,0.1 -1.75,1.2 0.1,1.35 c 0.033,0.333 0.167,0.8 0.4,1.4 0.233,0.633 0.367,1.1 0.4,1.4 l 0.1,3.25 c -0.033,0.267 -0.167,0.633 -0.4,1.1 -0.233,0.5 -0.383,0.883 -0.45,1.15 0.3,0 0.733,-0.3 1.3,-0.9 0.466,-0.434 0.85,-0.867 1.15,-1.3 1.233,-1.5 1.983,-2.917 2.25,-4.25 0.466,-2.267 0.183,-3.683 -0.85,-4.25 z"
   id="path268"
   inkscape:connector-curvature="0" />
		<path
   style="clip-rule:evenodd;fill:#586c08;fill-rule:evenodd"
   d="m 28.25,-11.5 c -0.167,-1 -0.567,-2 -1.2,-3 l -0.55,0.35 0.1,1.35 0.05,0.2 c 0.8,0.434 1.45,1.5 1.95,3.2 z"
   id="path270"
   inkscape:connector-curvature="0" />
		<path
   style="clip-rule:evenodd;fill:#586c08;fill-rule:evenodd"
   d="m 30.5,-15.2 c -0.267,-0.167 -0.633,-0.25 -1.1,-0.25 l -1.15,0.1 -0.75,0.5 0.65,-0.05 c 1.134,-0.067 1.817,0.4 2.05,1.4 0.433,1.467 0.2,3.167 -0.7,5.1 -0.433,1 -1.033,1.95 -1.8,2.85 l -1.05,1.05 c 0.3,0 0.733,-0.3 1.3,-0.9 0.466,-0.434 0.85,-0.867 1.15,-1.3 1.233,-1.5 1.983,-2.917 2.25,-4.25 0.466,-2.267 0.183,-3.683 -0.85,-4.25 z"
   id="path272"
   inkscape:connector-curvature="0" />
		
			<linearGradient
   id="SVGID_3_"
   gradientUnits="userSpaceOnUse"
   x1="3238.563"
   y1="2235.0371"
   x2="3247.5061"
   y2="2235.0371"
   gradientTransform="matrix(0.9421,0.3355,-0.3355,0.9421,-2268.8301,-3210.8403)">
			<stop
   offset="0"
   style="stop-color:#617220"
   id="stop274" />
			<stop
   offset="1"
   style="stop-color:#869D2E"
   id="stop276" />
		</linearGradient>
		<path
   style="clip-rule:evenodd;fill:url(#linearGradient1350);fill-rule:evenodd"
   d="m 37.3,-15.8 c 1.333,0.5 2.366,0.533 3.1,0.1 l 0.4,-0.3 c -0.167,-0.434 -0.317,-0.75 -0.45,-0.95 -0.167,-0.3 -0.5,-0.7 -1,-1.2 -0.367,-0.434 -0.95,-0.767 -1.75,-1 -0.767,-0.167 -1.3,-0.25 -1.6,-0.25 -0.567,-0.034 -1.117,0.066 -1.65,0.3 -0.6,0.434 -1.066,0.733 -1.4,0.9 -0.5,0.233 -0.767,0.367 -0.8,0.4 -0.267,0.2 -0.417,0.45 -0.45,0.75 0.2,0.033 0.55,0.017 1.05,-0.05 0.333,0 0.933,0.117 1.8,0.35 0.633,0.167 1.55,0.483 2.75,0.95 z"
   id="path279"
   inkscape:connector-curvature="0" />
		<path
   style="clip-rule:evenodd;fill:#586c08;fill-rule:evenodd"
   d="m 38.85,-15.85 c 0.367,0.067 0.633,0.067 0.8,0 l 0.4,0.3 0.35,-0.15 0.4,-0.3 c -0.167,-0.434 -0.317,-0.75 -0.45,-0.95 -0.167,-0.3 -0.5,-0.7 -1,-1.2 -0.367,-0.434 -0.95,-0.767 -1.75,-1 -0.767,-0.167 -1.3,-0.25 -1.6,-0.25 -0.567,-0.034 -1.117,0.066 -1.65,0.3 -0.6,0.434 -1.066,0.733 -1.4,0.9 l -0.2,0.1 1.9,-0.6 c 0.733,-0.2 1.783,-0.033 3.15,0.5 0.133,0.034 0.366,0.25 0.7,0.65 0.367,0.366 0.467,0.7 0.3,1 -0.367,-0.1 -0.733,-0.25 -1.1,-0.45 -0.4,-0.267 -0.633,-0.4 -0.7,-0.4 -0.6,-0.367 -1,-0.534 -1.2,-0.5 0.066,0.167 0.25,0.367 0.55,0.6 0.133,0.1 0.333,0.3 0.6,0.6 -0.233,-0.066 -0.417,-0.116 -0.55,-0.15 -0.206,-0.038 -0.39,-0.079 -0.55,-0.125 0.234,0.094 0.551,0.236 0.95,0.425 0.5,0.233 0.917,0.383 1.25,0.45 0.166,0.034 0.433,0.117 0.8,0.25 z"
   id="path281"
   inkscape:connector-curvature="0" />
		<path
   style="clip-rule:evenodd;fill:#8ca700;fill-rule:evenodd"
   d="m 36.899,-18.3 c -0.1,-0.067 -0.267,-0.134 -0.5,-0.2 -0.267,-0.066 -0.433,-0.066 -0.5,0 -0.267,0.2 -0.15,0.417 0.35,0.65 0.467,0.167 0.817,0.35 1.05,0.55 l 0.65,0.05 c -0.166,-0.367 -0.516,-0.717 -1.05,-1.05 z"
   id="path283"
   inkscape:connector-curvature="0" />
		<path
   style="clip-rule:evenodd;fill:#8ca700;fill-rule:evenodd"
   d="m 35.3,-17.25 0.375,0.125 c -0.119,-0.065 -0.311,-0.257 -0.575,-0.575 -0.2,-0.267 -0.55,-0.466 -1.05,-0.6 -0.3,0.366 0.116,0.717 1.25,1.05 z"
   id="path285"
   inkscape:connector-curvature="0" />
		<path
   style="clip-rule:evenodd;fill:#8ca700;fill-rule:evenodd"
   d="m 37.3,-15.8 c 0.866,0.3 1.533,0.433 2,0.4 l -0.2,-0.1 c -0.1,-0.033 -0.267,-0.05 -0.5,-0.05 -0.233,0.033 -0.4,0.017 -0.5,-0.05 -0.133,-0.233 -0.3,-0.367 -0.5,-0.4 -0.434,0.1 -0.717,0.083 -0.85,-0.05 -0.033,-0.134 -0.133,-0.25 -0.3,-0.35 l -0.35,-0.1 c -0.167,-0.033 -0.283,-0.083 -0.35,-0.15 l -0.3,-0.25 c -0.034,-0.034 -0.367,-0.15 -1,-0.35 -0.067,0.2 -0.05,0.35 0.05,0.45 l 0.05,0.05 c 0.633,0.167 1.55,0.483 2.75,0.95 z"
   id="path287"
   inkscape:connector-curvature="0" />
		
			<linearGradient
   id="SVGID_4_"
   gradientUnits="userSpaceOnUse"
   x1="13118.195"
   y1="-18562.029"
   x2="13123.469"
   y2="-18562.029"
   gradientTransform="matrix(-0.9437,-0.3308,0.3308,-0.9437,18564.42,-13186.142)">
			<stop
   offset="0"
   style="stop-color:#617220"
   id="stop289" />
			<stop
   offset="1"
   style="stop-color:#869D2E"
   id="stop291" />
		</linearGradient>
		<path
   style="clip-rule:evenodd;fill:url(#linearGradient1352);fill-rule:evenodd"
   d="m 41.2,-6.6 c 0.466,-0.767 0.85,-1.583 1.15,-2.45 0.6,-1.833 0.783,-3.35 0.55,-4.55 -0.233,-1.1 -0.917,-1.733 -2.05,-1.9 -1,-0.1 -1.483,0.117 -1.45,0.65 l 0.2,0.3 c -0.4,0.167 -0.717,0.833 -0.95,2 -0.133,0.9 -0.183,1.6 -0.15,2.1 0.067,0.733 0.383,1.567 0.95,2.5 0.433,0.733 0.7,1.233 0.8,1.5 0,0.034 0.034,0.217 0.1,0.55 0.066,0.267 0.133,0.433 0.2,0.5 0.066,-0.267 0.283,-0.666 0.65,-1.2 z"
   id="path294"
   inkscape:connector-curvature="0" />
		<path
   style="clip-rule:evenodd;fill:#586c08;fill-rule:evenodd"
   d="m 41.05,-7.3 0.05,0.85 0.1,-0.15 c 0.466,-0.767 0.85,-1.583 1.15,-2.45 0.6,-1.833 0.783,-3.35 0.55,-4.55 -0.233,-1.1 -0.917,-1.733 -2.05,-1.9 -0.5,-0.1 -0.883,-0.083 -1.15,0.05 l 0.05,0.2 c -0.033,0 -0.083,0.083 -0.15,0.25 0.5,-0.2 0.883,-0.233 1.15,-0.1 0.967,0.4 1.4,1.067 1.3,2 l -0.3,2.1 c -0.167,0.5 -0.267,0.867 -0.3,1.1 -0.234,1.4 -0.367,2.267 -0.4,2.6 z"
   id="path296"
   inkscape:connector-curvature="0" />
		<path
   style="clip-rule:evenodd;fill:#586c08;fill-rule:evenodd"
   d="m 39.45,-11.25 -0.1,-1.25 -0.4,-0.1 0.15,0.95 c 0.133,1.033 0.283,1.633 0.45,1.8 0.033,-0.167 0,-0.633 -0.1,-1.4 z"
   id="path298"
   inkscape:connector-curvature="0" />
		<path
   style="clip-rule:evenodd;fill:#586c08;fill-rule:evenodd"
   d="m 39.25,-13.75 0.025,0.025 0.175,-0.175 0.1,-0.6 c -0.267,0.2 -0.483,0.583 -0.65,1.15 v 0.15 z m 0.024,0.075 v -0.05 L 39.25,-13.7 Z"
   id="path300"
   inkscape:connector-curvature="0" />
		<path
   style="clip-rule:evenodd;fill:#586c08;fill-rule:evenodd"
   d="m 39.6,-15 c 0.066,-0.167 0.117,-0.25 0.15,-0.25 l -0.05,-0.2 c -0.2,0.1 -0.3,0.3 -0.3,0.6 l 0.15,0.25 0.05,-0.1 z"
   id="path302"
   inkscape:connector-curvature="0" />
		<path
   style="clip-rule:evenodd;fill:#586c08;fill-rule:evenodd"
   d="m 38.649,-12.65 0.7,0.15 c 0.233,0.033 0.55,0.117 0.95,0.25 0.366,0.133 0.683,0.184 0.95,0.15 -0.667,-0.4 -1.067,-0.667 -1.2,-0.8 l -0.65,-0.55 -0.15,-0.3 -0.499,0.75 z"
   id="path304"
   inkscape:connector-curvature="0" />
		<path
   style="clip-rule:evenodd;fill:#a1c000;fill-rule:evenodd"
   d="m 41.05,-13.05 c 0.233,-0.733 0.116,-1.267 -0.35,-1.6 -0.4,-0.2 -0.667,-0.267 -0.8,-0.2 -0.233,0.1 -0.35,0.383 -0.35,0.85 l -0.3,0.3 0.2,0.1 c 0.2,0.067 0.45,0.2 0.75,0.4 0.3,0.134 0.583,0.183 0.85,0.15 z"
   id="path306"
   inkscape:connector-curvature="0" />
		<linearGradient
   id="SVGID_5_"
   gradientUnits="userSpaceOnUse"
   x1="49.811001"
   y1="-4.6851001"
   x2="51.233101"
   y2="-17.6854">
			<stop
   offset="0"
   style="stop-color:#617220"
   id="stop308" />
			<stop
   offset="1"
   style="stop-color:#869D2E"
   id="stop310" />
		</linearGradient>
		<path
   style="clip-rule:evenodd;fill:url(#linearGradient1354);fill-rule:evenodd"
   d="m 53.05,-13.75 c -0.533,-1.5 -1.067,-2.417 -1.6,-2.75 -0.767,-0.533 -1.483,-0.783 -2.15,-0.75 -0.967,0.033 -1.7,0.717 -2.2,2.05 -0.167,0.167 -0.3,0.434 -0.4,0.8 -0.133,0.733 0.067,1.566 0.6,2.5 0.4,0.667 1.383,1.767 2.95,3.3 1.4,1.367 2.167,2.367 2.3,3 L 52.9,-3.75 53.7,-5 c 0.533,-1.133 0.7,-2.434 0.5,-3.9 -0.234,-1.767 -0.617,-3.383 -1.15,-4.85 z"
   id="path313"
   inkscape:connector-curvature="0" />
		<path
   style="clip-rule:evenodd;fill:#586c08;fill-rule:evenodd"
   d="m 54.2,-8.9 c -0.233,-1.767 -0.617,-3.383 -1.15,-4.85 -0.533,-1.5 -1.067,-2.417 -1.6,-2.75 -0.8,-0.566 -1.55,-0.816 -2.25,-0.75 0.8,0.367 1.817,1.8 3.05,4.3 0.933,1.967 1.317,4.083 1.15,6.35 L 52.9,-3.75 53.7,-5 c 0.533,-1.133 0.699,-2.434 0.5,-3.9 z"
   id="path315"
   inkscape:connector-curvature="0" />
		<path
   style="clip-rule:evenodd;fill:#586c08;fill-rule:evenodd"
   d="m 50,-11 c -0.9,-0.5 -1.55,-1.033 -1.95,-1.6 l -0.35,-0.6 -0.2,0.05 -0.4,-0.95 h 0.25 c -0.1,-0.3 -0.117,-0.733 -0.05,-1.3 v -0.15 l -0.2,0.35 c -0.233,0.267 -0.367,0.634 -0.4,1.1 0.233,0.4 0.55,0.833 0.95,1.3 h 0.1 v 0.15 l 0.15,0.15 c 0.6,0.7 1.283,1.217 2.05,1.55 z"
   id="path317"
   inkscape:connector-curvature="0" />
		<path
   style="clip-rule:evenodd;fill:#586c08;fill-rule:evenodd"
   d="m 47.5,-13.15 0.2,-0.05 c 1.294,-0.537 2.153,-0.745 2.575,-0.625 -0.636,-0.218 -1.228,-0.343 -1.775,-0.375 l -1.15,0.1 H 47.1 Z"
   id="path319"
   inkscape:connector-curvature="0" />
		<path
   style="clip-rule:evenodd;fill:#586c08;fill-rule:evenodd"
   d="m 50.25,-10.8 c 0.067,0.2 0.534,0.45 1.4,0.75 -0.033,-0.434 -0.517,-0.733 -1.45,-0.9 z"
   id="path321"
   inkscape:connector-curvature="0" />
		<path
   style="clip-rule:evenodd;fill:#586c08;fill-rule:evenodd"
   d="m 49.95,-10.95 0.25,0.7 c 0.033,0.4 0.067,0.717 0.1,0.95 0.066,0.433 0.183,0.683 0.35,0.75 0.2,-0.634 0.067,-1.384 -0.4,-2.25 l -0.05,-0.15 c -0.067,-0.033 -0.133,-0.116 -0.2,-0.25 v 0.2 z"
   id="path323"
   inkscape:connector-curvature="0" />
		<path
   style="clip-rule:evenodd;fill:#586c08;fill-rule:evenodd"
   d="m 47.649,-12.8 -0.3,-0.1 0.25,1.45 0.55,0.7 c -0.133,-0.867 -0.267,-1.5 -0.4,-1.9 v -0.15 z"
   id="path325"
   inkscape:connector-curvature="0" />
		<path
   style="clip-rule:evenodd;fill:#8ca700;fill-rule:evenodd"
   d="m 51.85,-10.65 c 0.167,-0.167 0.167,-0.434 0,-0.8 -0.1,-0.3 -0.25,-0.517 -0.45,-0.65 -0.566,-0.466 -1.316,-0.7 -2.25,-0.7 l -0.55,0.2 c 0.033,0.267 0.25,0.517 0.65,0.75 0.2,0.133 0.5,0.3 0.9,0.5 0.1,0.034 0.367,0.217 0.8,0.55 0.4,0.267 0.699,0.317 0.9,0.15 z"
   id="path327"
   inkscape:connector-curvature="0" />
		<path
   style="clip-rule:evenodd;fill:#8ca700;fill-rule:evenodd"
   d="m 47.8,-14.45 c 0.6,0.233 1.35,0.184 2.25,-0.15 -0.134,-0.733 -0.467,-1.167 -1,-1.3 -0.333,-0.067 -0.65,-0.05 -0.95,0.05 -0.434,0.1 -0.566,0.317 -0.4,0.65 z"
   id="path329"
   inkscape:connector-curvature="0" />
		<path
   style="clip-rule:evenodd;fill:#8ca700;fill-rule:evenodd"
   d="m 52.7,-8.75 c -0.133,-0.2 -0.367,-0.417 -0.7,-0.65 -0.433,-0.267 -0.733,-0.35 -0.9,-0.25 -0.2,0.1 -0.2,0.417 0,0.95 0.2,0.5 0.4,0.784 0.6,0.85 0.033,-0.1 0.017,-0.216 -0.05,-0.35 v -0.75 c 0.467,0.8 0.783,1.217 0.95,1.25 0.6,0.134 0.633,-0.217 0.1,-1.05 z"
   id="path331"
   inkscape:connector-curvature="0" />
		<path
   style="clip-rule:evenodd;fill:#8ca700;fill-rule:evenodd"
   d="m 49.3,-9.85 c 0,-0.5 -0.25,-0.867 -0.75,-1.1 l -0.05,0.35 0.2,0.45 0.3,0.35 z"
   id="path333"
   inkscape:connector-curvature="0" />
	</g>
</symbol>
<use
   xlink:href="#_x31_"
   width="59.889"
   height="30.1"
   x="0"
   y="-30.1"
   transform="matrix(4.2746151,0,0,-4.2746151,34.409796,981.93943)"
   style="overflow:visible"
   id="use337" />
</svg>