<?xml version="1.0" encoding="UTF-8" standalone="no"?>
<!-- Generator: Adobe Illustrator 15.1.0, SVG Export Plug-In . SVG Version: 6.00 Build 0)  -->

<svg
   xmlns:dc="http://purl.org/dc/elements/1.1/"
   xmlns:cc="http://creativecommons.org/ns#"
   xmlns:rdf="http://www.w3.org/1999/02/22-rdf-syntax-ns#"
   xmlns:svg="http://www.w3.org/2000/svg"
   xmlns="http://www.w3.org/2000/svg"
   xmlns:sodipodi="http://sodipodi.sourceforge.net/DTD/sodipodi-0.dtd"
   xmlns:inkscape="http://www.inkscape.org/namespaces/inkscape"
   version="1.1"
   id="FlashAICB"
   x="0px"
   y="0px"
   width="256"
   height="256"
   viewBox="0 0 255.99999 256"
   xml:space="preserve"
   sodipodi:docname="flower_purple.svg"
   inkscape:version="0.92.4 (5da689c313, 2019-01-14)"
   inkscape:export-xdpi="10.5"
   inkscape:export-ydpi="10.5"><title
   id="title854">Purple Flower</title><metadata
   id="metadata47"><rdf:RDF><cc:Work
       rdf:about=""><dc:format>image/svg+xml</dc:format><dc:type
         rdf:resource="http://purl.org/dc/dcmitype/StillImage" /><dc:title>Purple Flower</dc:title><cc:license
         rdf:resource="http://creativecommons.org/publicdomain/zero/1.0/" /><dc:creator><cc:Agent><dc:title>Glitch</dc:title></cc:Agent></dc:creator><dc:source>https://opengameart.org/node/20149</dc:source></cc:Work><cc:License
       rdf:about="http://creativecommons.org/publicdomain/zero/1.0/"><cc:permits
         rdf:resource="http://creativecommons.org/ns#Reproduction" /><cc:permits
         rdf:resource="http://creativecommons.org/ns#Distribution" /><cc:permits
         rdf:resource="http://creativecommons.org/ns#DerivativeWorks" /></cc:License></rdf:RDF></metadata><defs
   id="defs45" /><sodipodi:namedview
   pagecolor="#ffffff"
   bordercolor="#666666"
   borderopacity="1"
   objecttolerance="10"
   gridtolerance="10"
   guidetolerance="10"
   inkscape:pageopacity="0"
   inkscape:pageshadow="2"
   inkscape:window-width="1920"
   inkscape:window-height="1025"
   id="namedview43"
   showgrid="false"
   inkscape:zoom="1.1195446"
   inkscape:cx="-215.09649"
   inkscape:cy="264.46372"
   inkscape:window-x="-8"
   inkscape:window-y="-8"
   inkscape:window-maximized="1"
   inkscape:current-layer="FlashAICB"
   fit-margin-top="0"
   fit-margin-left="0"
   fit-margin-right="0"
   fit-margin-bottom="0" />

<g
   id="g40"
   transform="matrix(6.8815354,0,0,6.8815354,-16.171607,-19.953011)">
	<path
   style="clip-rule:evenodd;fill:#b168e1;fill-rule:evenodd"
   d="m 31.15,7.35 c -0.267,0.7 -0.6,1.533 -1,2.5 0.467,-0.4 0.917,-0.783 1.35,-1.15 v 0.05 c -0.567,0.733 -1.25,1.5 -2.05,2.3 -0.034,-0.066 -0.05,-0.283 -0.05,-0.65 0.067,-0.566 0.117,-0.917 0.15,-1.05 0.133,-0.367 0.367,-0.833 0.7,-1.4 0.333,-0.6 0.567,-1.067 0.7,-1.4 0.267,-0.8 0.533,-1.4 0.8,-1.8 l 0.05,-0.1 c 0.1,0.067 0.167,0.167 0.2,0.3 0.1,0.2 0.083,0.433 -0.05,0.7 -0.067,0.167 -0.167,0.367 -0.3,0.6 l -0.05,0.1 c -0.033,0.033 -0.05,0.066 -0.05,0.1 -0.033,0.133 -0.1,0.267 -0.2,0.4 z m -7.9,2.7 -0.05,0.4 v 0.5 C 23.166,10.883 23.117,10.717 23.05,10.45 22.783,9.683 22.584,9.1 22.45,8.7 L 22.15,7.9 C 22.217,8 22.3,8.1 22.4,8.2 l 0.1,0.1 0.5,1.15 0.2,0.8 z m 2.9,-4 -0.1,0.4 c -0.033,0.066 -0.066,0.133 -0.1,0.2 V 6.7 C 25.948,6.769 25.914,6.869 25.85,7 V 7.05 H 25.8 C 25.433,8.017 25.217,8.65 25.15,8.95 25.083,9.117 25.033,9.267 25,9.4 L 24.8,9.05 C 24.767,8.95 24.75,8.734 24.75,8.4 l 0.1,-0.65 C 24.883,7.083 24.933,6.6 25,6.3 25.3,5.167 25.467,4.584 25.5,4.55 25.633,4.183 25.883,3.817 26.25,3.45 l 0.5,-0.3 c -0.033,0.434 -0.167,1.117 -0.4,2.05 0,0.233 -0.067,0.517 -0.2,0.85 z"
   id="path6"
   inkscape:connector-curvature="0" />
	
		<radialGradient
   id="SVGID_1_"
   cx="31.625999"
   cy="-10.2183"
   r="14.6745"
   gradientTransform="matrix(0.6244,0.7811,0.5596,-0.4736,13.5217,-11.4435)"
   gradientUnits="userSpaceOnUse">
		<stop
   offset="0"
   style="stop-color:#FFFFFF"
   id="stop8" />
		<stop
   offset="0.9882"
   style="stop-color:#CF80F9"
   id="stop10" />
	</radialGradient>
	<path
   style="clip-rule:evenodd;fill:url(#SVGID_1_);fill-rule:evenodd"
   d="m 25.85,7 c 0.064,-0.131 0.098,-0.231 0.1,-0.3 0,0.037 0,0.087 0,0.15 -0.031,0.031 -0.065,0.081 -0.1,0.15 z m -1.4,5.45 c -0.034,0.07 -0.05,0.153 -0.05,0.25 -0.033,0.3 -0.1,0.533 -0.2,0.7 0.3,-0.2 0.55,-0.633 0.75,-1.3 0.233,-0.967 0.367,-1.467 0.4,-1.5 0.667,-1.567 1.5,-2.783 2.5,-3.65 0.066,-0.067 0.133,-0.1 0.2,-0.1 0.133,-0.133 0.3,-0.267 0.5,-0.4 0.2,-0.2 0.434,-0.4 0.7,-0.6 0.567,-0.467 1.067,-0.817 1.5,-1.05 0.267,-0.2 0.483,-0.3 0.65,-0.3 0.167,-0.033 0.3,0.017 0.4,0.15 l -0.05,0.1 c -0.267,0.4 -0.533,1 -0.8,1.8 -0.133,0.333 -0.367,0.8 -0.7,1.4 -0.333,0.566 -0.567,1.033 -0.7,1.4 -0.033,0.133 -0.083,0.483 -0.15,1.05 0,0.367 0.017,0.583 0.05,0.65 0.8,-0.8 1.483,-1.566 2.05,-2.3 V 8.7 c 0.3,-0.267 0.6,-0.483 0.9,-0.65 0.267,-0.233 0.533,-0.417 0.8,-0.55 1.233,-0.733 2.033,-0.8 2.399,-0.2 0.068,0.1 0.101,0.483 0.101,1.15 0,0.3 0,0.617 0,0.95 -0.066,0.6 -0.15,1.15 -0.25,1.65 -0.1,0.433 -0.25,0.817 -0.45,1.15 l -0.65,1.1 -2,1.85 c -0.133,0.133 -0.25,0.233 -0.35,0.3 -0.133,0.133 -0.2,0.25 -0.2,0.35 0.4,-0.233 1.05,-0.483 1.95,-0.75 0.2,-0.033 0.467,-0.167 0.8,-0.4 0.267,-0.133 0.733,-0.316 1.4,-0.55 1.166,-0.467 2.316,-1.233 3.45,-2.3 -0.034,0.1 -0.051,0.217 -0.051,0.35 -0.199,0.733 -0.666,1.5 -1.399,2.3 h -0.1 l -1.55,1.2 c -0.666,0.333 -1.166,0.6 -1.5,0.8 -0.7,0.167 -1.184,0.35 -1.45,0.55 0.434,0.1 0.75,0.117 0.95,0.05 0.267,-0.033 0.733,-0.1 1.4,-0.2 0.566,-0.1 1.017,-0.184 1.35,-0.25 l 2.101,-0.55 -0.101,0.1 c -1,1 -1.767,1.717 -2.3,2.15 l -0.2,0.15 c -0.666,0.367 -1.166,0.617 -1.5,0.75 -0.333,0.1 -0.833,0.183 -1.5,0.25 l 0.3,-0.4 c -0.133,0 -0.3,0.05 -0.5,0.15 -0.166,0.167 -0.3,0.25 -0.399,0.25 l -0.15,0.1 c -0.1,0 -0.183,0 -0.25,0 -0.3,0.034 -0.5,0.1 -0.6,0.2 0.033,0.033 0.1,0.067 0.2,0.1 l -0.45,0.2 c -0.367,0.1 -0.684,0.184 -0.95,0.25 -0.067,-0.033 -0.15,-0.05 -0.25,-0.05 -0.367,0 -0.65,0 -0.85,0 l 0.1,-0.1 c 0.133,-0.066 0.267,-0.167 0.4,-0.3 l 1.6,-1.3 c 0.133,-0.133 0.4,-0.316 0.8,-0.55 -0.267,0.033 -0.533,0.067 -0.8,0.1 l 0.05,-0.05 0.55,-1 c -0.267,0.267 -0.85,0.65 -1.75,1.15 -0.434,0 -0.867,-0.017 -1.3,-0.05 -0.167,-0.033 -0.316,-0.033 -0.45,0 l 0.05,-0.05 c 0.3,-0.3 0.483,-0.533 0.55,-0.7 0.433,-0.6 0.667,-1.05 0.7,-1.35 -0.267,0.133 -0.617,0.35 -1.05,0.65 -0.133,0.1 -0.25,0.183 -0.35,0.25 0.533,-1.9 0.917,-3.083 1.15,-3.55 l 0.2,-0.3 c -1.1,0.933 -1.883,1.8 -2.35,2.6 -0.253,0.507 -0.47,0.898 -0.65,1.175 L 27.05,16.9 c -0.021,0.035 -0.047,0.068 -0.075,0.1 H 26.95 l -0.5,0.4 0.1,-0.35 c -0.066,0.1 -0.117,0.217 -0.15,0.35 l -0.05,0.05 -0.2,0.2 0.05,-0.4 c 0.233,-0.9 0.533,-1.633 0.9,-2.2 -0.3,0.034 -0.583,0.2 -0.85,0.5 l 0.1,-0.8 c 0.066,-0.733 0.133,-1.383 0.2,-1.95 0,-0.033 0.017,-0.066 0.05,-0.1 0.066,-0.067 0.117,-0.15 0.15,-0.25 -0.033,0 -0.083,0.017 -0.15,0.05 0.133,-0.967 0.25,-1.667 0.35,-2.1 l 0.4,-1.2 -0.4,0.4 -0.7,1.05 c -0.2,0.4 -0.3,0.667 -0.3,0.8 -0.133,0.533 -0.3,0.966 -0.5,1.3 l -0.1,0.6 c -0.033,0.033 -0.067,0.066 -0.1,0.1 -0.167,0.133 -0.35,0.383 -0.55,0.75 -0.233,0.333 -0.417,0.566 -0.55,0.7 L 24.1,14.85 V 14.8 c -0.1,-0.2 -0.117,-0.517 -0.05,-0.95 0.034,-0.233 0.067,-0.417 0.1,-0.55 0,-0.133 0.017,-0.25 0.05,-0.35 l 0.15,-0.3 z m 12.7,7.4 c -1.634,1.333 -3.317,2.183 -5.05,2.55 l -0.3,0.05 h -0.05 l -0.25,0.05 0.1,-0.05 h -0.35 l 0.9,-0.75 c 0.533,-0.434 0.833,-0.717 0.9,-0.85 l -0.5,-0.15 c 0.1,-0.133 0.217,-0.25 0.35,-0.35 0.033,-0.067 0.1,-0.133 0.2,-0.2 0.034,-0.033 0.051,-0.066 0.051,-0.1 0.8,0.233 1.583,0.3 2.35,0.2 0.434,0 0.85,-0.033 1.25,-0.1 z m -6.7,2.95 1.75,0.35 c -0.267,0.033 -0.55,0.033 -0.85,0 -0.8,-0.1 -1.4,-0.167 -1.8,-0.2 L 29.6,22.9 c 0.1,-0.033 0.183,-0.066 0.25,-0.1 0.1,0.034 0.2,0.05 0.3,0.05 z M 23,13.05 c -0.167,0.267 -0.3,0.567 -0.4,0.9 C 22.233,11.617 22,9.883 21.9,8.75 21.834,8.25 21.917,7.967 22.15,7.9 l 0.3,0.8 c 0.133,0.4 0.333,0.983 0.6,1.75 0.067,0.267 0.117,0.433 0.15,0.5 v -0.5 l 0.05,-0.4 0.05,-0.25 c 0.434,-1.867 0.784,-3.15 1.05,-3.85 0.566,-1.4 1.367,-2.333 2.4,-2.8 l -0.5,0.3 C 25.883,3.817 25.633,4.183 25.5,4.55 25.467,4.583 25.3,5.167 25,6.3 24.933,6.6 24.883,7.084 24.85,7.75 l -0.1,0.65 c 0,0.333 0.017,0.55 0.05,0.65 L 25,9.4 c -0.2,0.733 -0.35,1.383 -0.45,1.95 -0.133,0.1 -0.333,0.267 -0.6,0.5 0,-0.2 0,-0.417 0,-0.65 0.066,-0.733 0.083,-1.2 0.05,-1.4 -0.033,0.034 -0.183,0.3 -0.45,0.8 -0.3,0.733 -0.483,1.55 -0.55,2.45 z"
   id="path13"
   inkscape:connector-curvature="0" />
	<path
   style="clip-rule:evenodd;fill:#8c5dab;fill-rule:evenodd"
   d="M 33.2,7.5 C 32.933,7.633 32.666,7.817 32.4,8.05 L 32.35,8 c -0.2,-0.367 -0.6,-0.583 -1.2,-0.65 l 0.2,-0.5 c 0.1,-0.133 0.167,-0.267 0.2,-0.4 0.133,-0.067 0.283,-0.083 0.45,-0.05 0.4,0 0.717,0.15 0.95,0.45 0.1,0.167 0.184,0.383 0.25,0.65 z m 2.25,3.55 c 0.1,-0.5 0.184,-1.05 0.25,-1.65 0.2,0.1 0.383,0.333 0.55,0.7 0.333,0.6 0.55,1.1 0.65,1.5 -0.367,0.233 -0.7,0.483 -1,0.75 V 12.3 c 0.033,-0.367 0,-0.65 -0.101,-0.85 -0.099,-0.133 -0.216,-0.267 -0.349,-0.4 z m -9.5,-4.2 c 0,-0.063 0,-0.113 0,-0.15 V 6.65 c 0.033,-0.066 0.066,-0.133 0.1,-0.2 l 0.1,-0.4 C 27.783,4.783 28.767,4.467 29.1,5.1 29,5.166 28.95,5.283 28.95,5.45 l -0.1,0.4 c -0.067,0.133 -0.167,0.333 -0.3,0.6 -0.2,0.133 -0.367,0.267 -0.5,0.4 -0.066,-0.067 -0.1,-0.117 -0.1,-0.15 -0.2,-0.133 -0.434,-0.217 -0.7,-0.25 -0.3,-0.067 -0.533,-0.067 -0.7,0 -0.167,0.033 -0.367,0.167 -0.6,0.4 z m 0.5,10.55 -0.1,0.05 0.05,-0.05 z"
   id="path15"
   inkscape:connector-curvature="0" />
	<path
   style="clip-rule:evenodd;fill:#644677;fill-rule:evenodd"
   d="m 31.5,8.7 c -0.433,0.367 -0.883,0.75 -1.35,1.15 0.4,-0.967 0.733,-1.8 1,-2.5 0.6,0.066 1,0.283 1.2,0.65 L 32.4,8.05 C 32.1,8.217 31.8,8.433 31.5,8.7 Z m 4.4,3.65 c -0.601,0.467 -1.184,0.933 -1.75,1.4 L 34.349,13.3 35,12.2 c 0.2,-0.333 0.35,-0.717 0.45,-1.15 0.133,0.133 0.25,0.267 0.35,0.4 0.101,0.2 0.134,0.483 0.101,0.85 v 0.05 z m -11.45,0.1 0.5,-1.2 c -0.133,0 -0.267,0.033 -0.4,0.1 0.1,-0.567 0.25,-1.217 0.45,-1.95 0.033,-0.133 0.083,-0.283 0.15,-0.45 0.067,-0.3 0.283,-0.934 0.65,-1.9 h 0.05 V 7 c 0.035,-0.069 0.069,-0.119 0.1,-0.15 0.233,-0.233 0.433,-0.367 0.6,-0.4 0.167,-0.067 0.4,-0.067 0.7,0 0.267,0.033 0.5,0.117 0.7,0.25 0,0.033 0.033,0.083 0.1,0.15 -0.066,0 -0.133,0.033 -0.2,0.1 -1,0.867 -1.833,2.083 -2.5,3.65 -0.033,0.033 -0.167,0.533 -0.4,1.5 -0.2,0.667 -0.45,1.1 -0.75,1.3 0.1,-0.167 0.167,-0.4 0.2,-0.7 0,-0.097 0.017,-0.18 0.05,-0.25 z m 2,4.95 H 26.4 c 0.033,-0.133 0.083,-0.25 0.15,-0.35 z"
   id="path17"
   inkscape:connector-curvature="0" />
	<path
   style="clip-rule:evenodd;fill:#eaccfd;fill-rule:evenodd"
   d="m 39.4,11.8 c -1.134,1.067 -2.284,1.833 -3.45,2.3 -0.667,0.233 -1.134,0.417 -1.4,0.55 -0.333,0.233 -0.6,0.367 -0.8,0.4 -0.9,0.267 -1.55,0.517 -1.95,0.75 0,-0.1 0.067,-0.216 0.2,-0.35 0.1,-0.067 0.217,-0.167 0.35,-0.3 l 2,-1.85 -0.199,0.45 c 0.566,-0.467 1.149,-0.933 1.75,-1.4 0.3,-0.267 0.633,-0.517 1,-0.75 0.333,-0.3 0.683,-0.583 1.05,-0.85 0.5,-0.333 0.85,-0.467 1.05,-0.4 0.033,0 0.066,0.017 0.1,0.05 0.4,0.233 0.5,0.684 0.301,1.35 v 0.05 z m -0.25,4.25 -2.1,0.55 c -0.333,0.066 -0.783,0.15 -1.35,0.25 -0.667,0.1 -1.134,0.167 -1.4,0.2 -0.2,0.067 -0.517,0.05 -0.95,-0.05 0.267,-0.2 0.75,-0.383 1.45,-0.55 0.334,-0.2 0.834,-0.467 1.5,-0.8 l 1.55,-1.2 h 0.101 c -0.167,0.167 -0.334,0.333 -0.5,0.5 0.866,-0.067 1.566,0.066 2.1,0.4 -0.001,0.2 -0.134,0.433 -0.401,0.7 z m -8.7,6.75 c 0.2,-0.033 0.466,-0.15 0.8,-0.35 h 0.35 l -0.1,0.05 0.25,-0.05 h 0.05 l 0.35,0.05 h 0.05 c 0.3,0.033 0.55,0.117 0.75,0.25 -0.133,0.133 -0.284,0.233 -0.45,0.3 -0.1,0.034 -0.183,0.067 -0.25,0.1 H 32.2 Z m 6.7,-2.95 -0.4,0.3 c -0.4,0.067 -0.816,0.1 -1.25,0.1 -0.767,0.1 -1.55,0.033 -2.35,-0.2 0.133,-0.2 0.267,-0.4 0.399,-0.6 0.667,-0.067 1.167,-0.15 1.5,-0.25 0.334,-0.133 0.834,-0.383 1.5,-0.75 0.533,-0.133 0.934,-0.034 1.2,0.3 0.2,0.267 0.2,0.5 0,0.7 -0.266,0.2 -0.466,0.333 -0.599,0.4 z m -4.35,-0.3 -0.65,0.3 c -0.1,-0.033 -0.167,-0.067 -0.2,-0.1 0.1,-0.1 0.3,-0.167 0.6,-0.2 0.067,0 0.15,0 0.25,0 z"
   id="path19"
   inkscape:connector-curvature="0" />
	<path
   style="clip-rule:evenodd;fill:#cf8bfb;fill-rule:evenodd"
   d="m 23.95,11.85 c -0.133,0.167 -0.284,0.35 -0.45,0.55 -0.2,0.2 -0.367,0.417 -0.5,0.65 0.067,-0.9 0.25,-1.716 0.55,-2.45 0.267,-0.5 0.417,-0.767 0.45,-0.8 0.033,0.2 0.017,0.667 -0.05,1.4 0,0.233 0,0.45 0,0.65 z m 2.65,0.65 c -0.3,0.067 -0.717,0.35 -1.25,0.85 l 0.1,-0.6 c 0.2,-0.333 0.367,-0.767 0.5,-1.3 0,-0.133 0.1,-0.4 0.3,-0.8 l 0.7,-1.05 0.4,-0.4 -0.4,1.2 c -0.1,0.433 -0.217,1.133 -0.35,2.1 z m -1.35,4.6 0.1,-1.15 c 0.033,-0.367 0.117,-0.733 0.25,-1.1 v -0.1 c 0.066,-0.167 0.117,-0.317 0.15,-0.45 l 0.2,-0.45 c 0.167,-0.367 0.367,-0.717 0.6,-1.05 -0.066,0.567 -0.133,1.217 -0.2,1.95 l -0.1,0.8 c -0.1,0.067 -0.2,0.167 -0.3,0.3 -0.333,0.467 -0.567,0.933 -0.7,1.4 0,-0.033 0,-0.083 0,-0.15 z M 27.05,16.9 27,17 h -0.025 c 0.028,-0.032 0.053,-0.065 0.075,-0.1 z m 1.7,0.05 c -0.367,0.267 -0.617,0.433 -0.75,0.5 l -0.2,0.15 c 0.067,-0.367 0.117,-0.684 0.15,-0.95 0.066,-0.3 0.167,-0.517 0.3,-0.65 l -0.3,0.2 -0.85,0.675 c 0.18,-0.276 0.396,-0.668 0.65,-1.175 0.467,-0.8 1.25,-1.667 2.35,-2.6 l -0.2,0.3 c -0.233,0.467 -0.617,1.65 -1.15,3.55 z m 0.1,1.2 c 0.133,-0.033 0.283,-0.033 0.45,0 0.434,0.033 0.867,0.05 1.3,0.05 -0.1,0.033 -0.217,0.1 -0.35,0.2 -0.3,0.167 -0.55,0.317 -0.75,0.45 -0.1,0.033 -0.183,0.066 -0.25,0.1 -0.5,0.2 -0.933,0.183 -1.3,-0.05 L 27.9,18.85 c 0.133,-0.133 0.45,-0.367 0.95,-0.7 z m 0.9,2.25 h -0.4 -0.05 c 0.035,-10e-4 0.068,-0.018 0.1,-0.05 0.1,-0.033 0.184,-0.067 0.25,-0.1 0.2,0 0.483,0 0.85,0 0.1,0 0.183,0.017 0.25,0.05 -0.3,0.067 -0.5,0.117 -0.6,0.15 z m 2,-2.2 v -0.1 c 0.267,-0.033 0.533,-0.067 0.8,-0.1 -0.4,0.233 -0.667,0.417 -0.8,0.55 l -1.6,1.3 c -0.133,0.133 -0.267,0.233 -0.4,0.3 0.133,-0.1 0.267,-0.25 0.4,-0.45 0.2,-0.133 0.467,-0.333 0.8,-0.6 0.3,-0.2 0.517,-0.434 0.65,-0.7 z m 0.8,2.5 0.5,0.15 c -0.066,0.133 -0.367,0.417 -0.9,0.85 l -0.9,0.75 c -0.333,0.2 -0.6,0.316 -0.8,0.35 l -0.3,0.05 c -0.1,0 -0.2,-0.017 -0.3,-0.05 0.233,-0.133 0.5,-0.316 0.8,-0.55 l 1.2,-0.95 c 0.233,-0.2 0.467,-0.4 0.7,-0.6 z"
   id="path21"
   inkscape:connector-curvature="0" />
	<path
   style="clip-rule:evenodd;fill:#86a214;fill-rule:evenodd"
   d="m 22.35,25.85 c -0.032,0 -0.066,0.017 -0.1,0.05 0.068,-0.068 0.134,-0.151 0.2,-0.25 -0.033,0.067 -0.067,0.133 -0.1,0.2 z M 2.8,35.05 c 0.2,-0.267 0.434,-0.533 0.7,-0.8 -0.1,0.134 -0.217,0.467 -0.35,1 0,0.066 -0.066,0.2 -0.2,0.4 -0.067,0.133 -0.067,0.267 0,0.399 0.1,0.167 0.316,0.217 0.65,0.15 0.267,-0.101 0.583,-0.316 0.95,-0.65 0.367,-0.399 0.633,-0.649 0.8,-0.75 0.033,0.167 0.017,0.417 -0.05,0.75 -0.6,0.467 -1.05,0.8 -1.35,1 C 3.683,36.716 3.467,36.749 3.3,36.65 3.133,36.483 3,36.316 2.9,36.15 2.8,36.116 2.733,36.083 2.7,36.049 l 0.2,0.05 -0.15,-0.35 0.2,-0.35 -0.2,0.149 z m 2.5,-2.4 C 4.767,33.05 4.317,33.4 3.95,33.7 4.117,33.533 4.3,33.384 4.5,33.25 c 0.2,-0.2 0.467,-0.4 0.8,-0.6 z m 1,2.15 0.5,-0.5 c 0.267,-0.267 0.45,-0.483 0.55,-0.649 0.033,-0.101 0.066,-0.167 0.1,-0.2 0,0.267 0.066,0.383 0.2,0.35 0.134,-0.033 0.233,-0.133 0.3,-0.3 0,-0.066 0.033,-0.283 0.1,-0.65 0,-0.199 0.067,-0.267 0.2,-0.199 0.233,0.133 0.333,0.366 0.3,0.699 0.133,-0.466 0.4,-0.916 0.8,-1.35 0.433,-0.467 1.35,-1.017 2.75,-1.65 0.433,-0.199 0.85,-0.366 1.25,-0.5 l -0.6,0.801 2,-0.9 c 0.167,-0.134 0.333,-0.267 0.5,-0.4 0.133,-0.1 0.25,-0.199 0.35,-0.3 0.033,-0.033 0.066,-0.05 0.1,-0.05 0.966,-0.267 1.833,-0.616 2.6,-1.05 0.633,-0.334 1.383,-0.9 2.25,-1.7 0.967,-0.8 1.3,-1.35 1,-1.65 0.733,-0.767 1.467,-1.6 2.2,-2.5 l -0.2,0.3 -0.65,0.75 c -0.066,0.733 -0.45,1.467 -1.15,2.2 -0.933,1.066 -1.633,1.833 -2.1,2.3 -0.767,0.8 -1.733,1.449 -2.9,1.949 -3.267,1.233 -5.183,2.084 -5.75,2.551 -0.633,0.466 -1.017,0.767 -1.15,0.899 -0.333,0.267 -0.633,0.617 -0.9,1.05 C 8.683,34.533 8.3,35.05 7.8,35.65 L 7.15,36.45 7.6,34 C 6.8,35.2 6.15,35.967 5.65,36.3 L 5.5,36.45 V 36.4 C 5.633,36.167 5.783,35.8 5.95,35.3 6.083,35.2 6.15,35.1 6.15,35 6.217,34.9 6.267,34.833 6.3,34.8 Z m 18,-13.55 H 24.15 V 21.2 Z m -0.65,-1.8 C 23.217,18.817 22.933,18.6 22.8,18.8 c -0.1,-0.2 -0.167,-0.433 -0.2,-0.7 0.133,0.1 0.333,0.233 0.6,0.4 0.067,0.067 0.217,0.383 0.45,0.95 z m 2.1,1.05 -0.85,0.55 -0.55,-0.55 -0.25,-0.35 c 0.1,0.1 0.183,0.167 0.25,0.2 0.133,0 0.2,-0.017 0.2,-0.05 0,-0.033 0.034,-0.083 0.1,-0.15 0.2,-0.167 0.317,-0.417 0.35,-0.75 0.067,-0.367 0.017,-0.683 -0.15,-0.95 -0.267,0.233 -0.45,0.367 -0.55,0.4 -0.167,0.066 -0.3,-0.133 -0.4,-0.6 -0.133,-0.6 -0.183,-0.983 -0.15,-1.15 0,-0.067 0.05,-0.233 0.15,-0.5 0.1,-0.233 0.117,-0.417 0.05,-0.55 -0.233,0.3 -0.434,0.517 -0.6,0.65 -0.267,0.3 -0.467,0.216 -0.6,-0.25 -0.067,-0.167 -0.1,-0.434 -0.1,-0.8 0,-0.4 -0.017,-0.65 -0.05,-0.75 L 22.5,14.4 22.35,15 c 0.066,-0.367 0.15,-0.717 0.25,-1.05 0.1,-0.333 0.233,-0.633 0.4,-0.9 0.133,-0.233 0.3,-0.45 0.5,-0.65 0.167,-0.2 0.317,-0.383 0.45,-0.55 0.267,-0.233 0.466,-0.4 0.6,-0.5 0.133,-0.067 0.267,-0.1 0.4,-0.1 l -0.5,1.2 0.3,-0.9 -0.1,0.1 c -0.733,0.6 -1.217,1.383 -1.45,2.35 -0.133,0.633 -0.184,1.083 -0.15,1.35 0,0.033 0.117,0.45 0.35,1.25 0.267,-0.233 0.483,-0.817 0.65,-1.75 h 0.05 l 0.05,0.05 c 0.133,-0.133 0.317,-0.367 0.55,-0.7 0.2,-0.367 0.383,-0.617 0.55,-0.75 0.033,-0.034 0.067,-0.067 0.1,-0.1 0.533,-0.5 0.95,-0.783 1.25,-0.85 0.066,-0.033 0.117,-0.05 0.15,-0.05 -0.033,0.1 -0.083,0.183 -0.15,0.25 -0.833,0.633 -1.517,1.466 -2.05,2.5 -0.267,0.6 -0.383,1.183 -0.35,1.75 0,0.066 0.15,0.566 0.45,1.5 0.067,-0.034 0.1,-0.233 0.1,-0.6 l 0.2,-0.4 c 0,-0.034 0.1,-0.15 0.3,-0.35 0,0.066 0,0.117 0,0.15 0.133,-0.467 0.367,-0.933 0.7,-1.4 0.1,-0.133 0.2,-0.233 0.3,-0.3 0.267,-0.3 0.55,-0.466 0.85,-0.5 -0.367,0.567 -0.667,1.3 -0.9,2.2 L 25.95,17.7 C 25.817,18 25.833,18.433 26,19 c 0.133,0.5 0.15,0.85 0.05,1.05 z m 5,-1.75 1.05,-0.7 -0.05,0.05 v 0.1 z m -0.6,0.95 c -0.133,0.2 -0.267,0.35 -0.4,0.45 l -0.1,0.1 c -0.066,0.033 -0.15,0.067 -0.25,0.1 l 0.4,-0.3 z M 27.8,17.45 c 0.067,-0.367 0.117,-0.65 0.15,-0.85 0.066,-0.3 0.167,-0.5 0.3,-0.6 -0.133,0.133 -0.233,0.35 -0.3,0.65 -0.034,0.267 -0.083,0.583 -0.15,0.95 z m 5.55,2.25 0.2,-0.25 c -0.133,0.2 -0.267,0.4 -0.399,0.6 0.066,-0.133 0.132,-0.25 0.199,-0.35 z"
   id="path23"
   inkscape:connector-curvature="0" />
	<path
   style="clip-rule:evenodd;fill:#6c840e;fill-rule:evenodd"
   d="m 2.7,36.05 0.05,-0.3 0.15,0.35 z m 0.1,-1 -0.05,0.5 -0.4,0.3 c 0.133,-0.267 0.283,-0.534 0.45,-0.8 z m 4.2,4.2 -0.1,-0.15 0.2,-0.449 0.55,-2.4 c -0.433,0.8 -0.867,1.366 -1.3,1.7 -0.367,0.267 -0.767,0.5 -1.2,0.7 V 38.5 l -0.3,-0.75 c 0.167,-0.333 0.333,-0.566 0.5,-0.7 L 6.3,36.2 c -0.367,0.2 -0.716,0.399 -1.05,0.6 -0.2,0.267 -0.383,0.517 -0.55,0.75 -0.167,0.2 -0.333,0.367 -0.5,0.5 L 4,37.75 c 0.1,-0.066 0.217,-0.167 0.35,-0.3 0.033,-0.134 0.1,-0.25 0.2,-0.351 0.034,-0.033 0.067,-0.083 0.1,-0.149 0.067,-0.134 0.15,-0.267 0.25,-0.4 -0.1,0.101 -0.433,0.267 -1,0.5 l -0.3,0.1 H 3.55 l -0.3,-0.5 H 3.3 c 0.167,0.1 0.383,0.066 0.65,-0.101 0.3,-0.2 0.75,-0.533 1.35,-1 L 6.25,34.699 6.2,34.85 6.3,34.8 c -0.033,0.033 -0.083,0.1 -0.15,0.2 0,0.1 -0.066,0.2 -0.2,0.3 -0.167,0.5 -0.317,0.867 -0.45,1.1 v 0.05 L 5.65,36.3 C 6.15,35.967 6.8,35.2 7.6,34 l -0.45,2.45 0.65,-0.8 c 0.5,-0.601 0.883,-1.117 1.15,-1.551 0.267,-0.433 0.566,-0.783 0.9,-1.05 0.133,-0.133 0.517,-0.434 1.15,-0.899 0.567,-0.467 2.483,-1.317 5.75,-2.551 1.167,-0.5 2.133,-1.149 2.9,-1.949 0.467,-0.467 1.167,-1.234 2.1,-2.3 0.7,-0.733 1.083,-1.467 1.15,-2.2 l 0.65,-0.75 v 0.4 c 0,0.133 -0.066,0.267 -0.2,0.4 -0.1,0.1 -0.133,0.216 -0.1,0.35 -0.567,1 -1.133,1.867 -1.7,2.6 -0.167,0.267 -0.35,0.517 -0.55,0.75 l -0.2,0.2 0.05,0.051 c -0.8,0.866 -1.583,1.5 -2.35,1.899 -0.233,0.134 -1.667,0.783 -4.3,1.95 -1.667,0.767 -2.7,1.384 -3.1,1.85 -1.6,1.867 -2.467,3.217 -2.6,4.051 -0.1,0.633 -0.183,1.033 -0.25,1.199 -0.1,0.233 -0.233,0.4 -0.4,0.5 -0.1,0.034 -0.383,0.25 -0.85,0.65 z m 17.9,-18.2 -0.6,0.2 -0.15,-0.05 -0.05,-0.05 v -0.2 c -0.067,-0.3 -0.25,-0.667 -0.55,-1.1 -0.333,-0.467 -0.583,-0.817 -0.75,-1.05 0.133,-0.2 0.417,0.017 0.85,0.65 l 0.1,0.2 0.25,0.4 c 0.033,0 0.067,0.034 0.1,0.1 l 0.25,0.35 z m -0.45,-8.6 -0.1,0.2 c -0.533,0.5 -0.8,1.467 -0.8,2.9 0.133,-0.033 0.267,-0.216 0.4,-0.55 l 0.1,-0.15 c -0.167,0.933 -0.383,1.517 -0.65,1.75 -0.233,-0.8 -0.35,-1.217 -0.35,-1.25 -0.033,-0.267 0.017,-0.717 0.15,-1.35 0.233,-0.967 0.716,-1.75 1.45,-2.35 l 0.1,-0.1 z m 1.15,2.4 c -0.2,0.1 -0.383,0.3 -0.55,0.6 -0.066,0.167 -0.167,0.45 -0.3,0.85 -0.3,0.534 -0.367,1.133 -0.2,1.8 0.1,-0.033 0.167,-0.117 0.2,-0.25 0,0.367 -0.033,0.566 -0.1,0.6 -0.3,-0.934 -0.45,-1.434 -0.45,-1.5 -0.034,-0.567 0.083,-1.15 0.35,-1.75 0.534,-1.034 1.217,-1.867 2.05,-2.5 -0.033,0.033 -0.05,0.066 -0.05,0.1 -0.233,0.333 -0.433,0.684 -0.6,1.05 l -0.2,0.45 c -0.033,0.133 -0.083,0.284 -0.15,0.45 z m 6.2,3.2 -1.05,0.7 -0.25,0.2 c -0.433,0.233 -0.767,0.367 -1,0.4 -0.367,0.066 -0.767,0.167 -1.2,0.3 -0.267,0.1 -0.45,0.1 -0.55,0 -0.133,-0.1 -0.283,-0.083 -0.45,0.05 0.233,0.4 0.333,0.716 0.3,0.95 0,0.333 -0.017,0.55 -0.05,0.65 -0.066,0.2 -0.2,0.317 -0.4,0.35 -0.633,0.2 -1.2,0.267 -1.7,0.2 l 0.1,-0.1 c 0.667,-0.667 0.867,-1.167 0.6,-1.5 l -0.4,0.25 0.3,-0.45 C 26.15,19.85 26.133,19.5 26,19 25.833,18.433 25.817,18 25.95,17.7 l 0.25,-0.45 -0.05,0.4 0.2,-0.2 -0.1,0.2 C 26.522,17.529 26.764,17.313 26.975,17 H 27 c 0.031,-0.042 0.064,-0.083 0.1,-0.125 L 27.95,16.2 c 0,0.066 -0.067,0.183 -0.2,0.35 l -0.15,0.3 c -0.033,0.033 -0.083,0.1 -0.15,0.2 -0.467,0.333 -0.767,0.6 -0.9,0.8 -0.133,0.2 -0.167,0.4 -0.1,0.6 0.066,0.167 0.2,0.233 0.4,0.2 -0.1,0.167 -0.1,0.3 0,0.4 0.167,0.167 0.3,0.367 0.4,0.6 L 27.4,19.4 c 0.1,-0.133 0.283,-0.283 0.55,-0.45 V 18.9 c 0.367,0.233 0.8,0.25 1.3,0.05 0.067,-0.034 0.15,-0.067 0.25,-0.1 0.2,-0.133 0.45,-0.283 0.75,-0.45 0.133,-0.1 0.25,-0.167 0.35,-0.2 0.9,-0.5 1.483,-0.883 1.75,-1.15 z m -4,-0.45 0.2,-0.15 c 0.133,-0.067 0.383,-0.233 0.75,-0.5 0.1,-0.067 0.217,-0.15 0.35,-0.25 0.433,-0.3 0.783,-0.517 1.05,-0.65 -0.8,0.733 -1.367,1.233 -1.7,1.5 -0.3,0.233 -0.65,0.434 -1.05,0.6 0.167,-0.2 0.3,-0.433 0.4,-0.7 z m 4.35,2.25 0.65,-0.3 0.15,-0.1 c 0.1,0 0.233,-0.083 0.399,-0.25 0.2,-0.1 0.367,-0.15 0.5,-0.15 l -0.3,0.4 -0.2,0.25 c -0.633,0.633 -1.266,1.083 -1.899,1.35 -0.567,0.267 -1.2,0.333 -1.9,0.2 l -0.8,-0.2 1,-0.6 V 20.4 l 0.4,0.05 c 0.1,-0.034 0.3,-0.083 0.6,-0.15 0.267,-0.066 0.583,-0.15 0.95,-0.25 z"
   id="path25"
   inkscape:connector-curvature="0" />
	<path
   style="clip-rule:evenodd;fill:#546708;fill-rule:evenodd"
   d="m 20.85,27.15 c 0.033,0.066 0.083,0.116 0.15,0.149 0.533,0.533 1.117,0.851 1.75,0.95 -0.233,-0.134 -0.417,-0.267 -0.55,-0.4 -0.133,-0.1 -0.2,-0.233 -0.2,-0.399 0,-0.134 0.1,-0.2 0.3,-0.2 0.167,0 0.45,0.066 0.85,0.2 0.4,0.1 0.684,0.133 0.85,0.1 0.6,-0.066 1.25,-0.383 1.95,-0.95 -1.733,0.833 -3.067,0.65 -4,-0.55 l -0.1,-0.1 -0.3,0.2 c 0.567,-0.733 1.133,-1.6 1.7,-2.6 -0.033,-0.133 0,-0.25 0.1,-0.35 0.133,-0.133 0.2,-0.267 0.2,-0.4 v -0.4 l 0.2,-0.3 0.65,0.9 c -0.133,0.2 -0.267,0.417 -0.4,0.65 -0.067,0.1 -0.15,0.2 -0.25,0.3 l -0.7,0.95 c -0.2,0.267 -0.4,0.517 -0.6,0.75 -0.066,0.099 -0.132,0.182 -0.2,0.25 0.034,-0.033 0.068,-0.05 0.1,-0.05 0.1,-0.033 0.2,-0.05 0.3,-0.05 0.133,0 0.567,0.1 1.3,0.3 0.466,0.167 0.933,0.25 1.4,0.25 0.2,0 0.533,-0.033 1,-0.1 -0.7,0.934 -1.5,1.55 -2.4,1.85 -1.067,0.4 -2.05,0.134 -2.95,-0.8 -0.033,0.033 -0.05,0.066 -0.05,0.101 -1.067,1.066 -3.05,2.533 -5.95,4.399 -0.7,0.233 -1.517,0.717 -2.45,1.45 -1,0.066 -1.716,0.533 -2.15,1.4 -0.333,0.399 -0.566,0.733 -0.7,1 -0.233,0.399 -0.483,1.066 -0.75,2 -0.4,0.833 -0.867,1.366 -1.4,1.6 -0.267,0.1 -0.45,0.1 -0.55,0 0.467,-0.4 0.75,-0.616 0.85,-0.65 0.167,-0.1 0.3,-0.267 0.4,-0.5 0.067,-0.166 0.15,-0.567 0.25,-1.2 0.133,-0.834 1,-2.184 2.6,-4.051 0.4,-0.466 1.433,-1.083 3.1,-1.85 2.633,-1.167 4.066,-1.816 4.3,-1.95 0.767,-0.399 1.55,-1.032 2.35,-1.899 z M 3.8,37.45 3.85,37.5 H 3.8 Z m 10.95,-7.7 -2,0.9 0.6,-0.801 0.3,-0.449 c 0.167,-0.101 0.3,-0.217 0.4,-0.351 0.233,-0.3 0.333,-0.633 0.3,-1 0,-0.533 -0.283,-0.967 -0.85,-1.3 -0.5,-0.267 -1.35,-0.333 -2.55,-0.2 l -1.7,0.25 c 0,-0.066 0,-0.117 0,-0.15 v -0.125 l 0.025,-0.1 c 0.013,-0.076 0.038,-0.15 0.075,-0.225 l 0.2,0.05 c 0.4,0 1.017,-0.067 1.85,-0.2 0.767,-0.1 1.417,-0.05 1.95,0.15 0.867,0.233 1.433,0.716 1.7,1.45 0.1,0.267 0.2,0.55 0.3,0.85 0,0.2 0.017,0.4 0.05,0.6 0,0.034 0,0.067 0,0.101 -0.2,0.166 -0.417,0.35 -0.65,0.55 z m 1.4,-2.65 c -0.433,-0.5 -0.833,-0.816 -1.2,-0.95 0.2,-0.133 0.316,-0.25 0.35,-0.35 0.067,-0.167 0,-0.35 -0.2,-0.55 -0.533,-0.267 -0.9,-0.467 -1.1,-0.6 -0.933,-0.467 -1.783,-0.483 -2.55,-0.05 0.966,-0.7 1.8,-0.967 2.5,-0.8 1,0.7 1.7,1.65 2.1,2.85 0.067,0.133 0.1,0.267 0.1,0.4 z m 13.6,-6.7 v 0.05 l -1,0.6 0.8,0.2 c 0.7,0.133 1.333,0.067 1.9,-0.2 0.633,-0.267 1.267,-0.716 1.899,-1.35 -0.066,0.1 -0.133,0.216 -0.199,0.35 0,0.034 -0.017,0.067 -0.051,0.1 -0.1,0.067 -0.167,0.133 -0.2,0.2 -0.133,0.1 -0.25,0.217 -0.35,0.35 -0.233,0.2 -0.466,0.4 -0.7,0.6 l -1.2,0.95 -0.3,0.1 c -0.267,0 -0.483,-0.017 -0.65,-0.05 -0.233,-0.133 -0.383,-0.2 -0.45,-0.2 -0.1,0.033 -0.267,0.133 -0.5,0.3 -0.233,0.167 -0.383,0.267 -0.45,0.3 -0.367,0.133 -0.883,0.117 -1.55,-0.05 -0.367,0 -0.633,-0.017 -0.8,-0.05 -0.3,-0.033 -0.567,-0.15 -0.8,-0.35 l -0.4,-0.65 c 0,-0.133 -0.05,-0.233 -0.15,-0.3 -0.1,-0.066 -0.25,-0.017 -0.45,0.15 v -0.2 h 0.15 l 0.6,-0.2 0.85,-0.55 0.4,-0.25 c 0.267,0.333 0.067,0.833 -0.6,1.5 l -0.1,0.1 c 0.5,0.066 1.066,0 1.7,-0.2 0.2,-0.033 0.333,-0.15 0.4,-0.35 0.034,-0.1 0.05,-0.316 0.05,-0.65 0.033,-0.233 -0.067,-0.55 -0.3,-0.95 0.167,-0.133 0.317,-0.15 0.45,-0.05 0.1,0.1 0.283,0.1 0.55,0 0.434,-0.133 0.833,-0.233 1.2,-0.3 0.233,-0.033 0.567,-0.167 1,-0.4 l -1.45,1 c -0.367,0.2 -0.6,0.483 -0.7,0.85 0.1,0.1 0.233,0.117 0.4,0.05 0.067,-0.067 0.167,-0.167 0.3,-0.3 l 0.3,-0.15 z m -0.9,-2.25 c -0.5,0.333 -0.817,0.567 -0.95,0.7 l 0.05,0.05 v 0.05 c -0.267,0.167 -0.45,0.316 -0.55,0.45 l -0.15,0.25 c -0.1,-0.233 -0.233,-0.433 -0.4,-0.6 -0.1,-0.1 -0.1,-0.233 0,-0.4 -0.2,0.033 -0.333,-0.033 -0.4,-0.2 -0.067,-0.2 -0.034,-0.4 0.1,-0.6 0.133,-0.2 0.434,-0.467 0.9,-0.8 0.066,-0.1 0.117,-0.167 0.15,-0.2 l 0.15,-0.3 c 0.133,-0.167 0.2,-0.283 0.2,-0.35 l 0.3,-0.2 c -0.133,0.1 -0.233,0.3 -0.3,0.6 -0.034,0.2 -0.083,0.483 -0.15,0.85 -0.1,0.267 -0.233,0.5 -0.4,0.7 0.4,-0.167 0.75,-0.367 1.05,-0.6 0.333,-0.267 0.9,-0.767 1.7,-1.5 -0.033,0.3 -0.267,0.75 -0.7,1.35 -0.067,0.167 -0.25,0.4 -0.55,0.7 z m -4.5,-5.5 -0.15,0.3 c -0.034,0.1 -0.05,0.216 -0.05,0.35 -0.033,0.133 -0.066,0.317 -0.1,0.55 -0.067,0.433 -0.05,0.75 0.05,0.95 v 0.05 H 24.05 L 23.95,15 c -0.133,0.333 -0.267,0.517 -0.4,0.55 0,-1.433 0.267,-2.4 0.8,-2.9 z m 2,4.8 0.1,-0.05 0.5,-0.4 h 0.025 c -0.211,0.313 -0.453,0.529 -0.725,0.65 z M 27,17 27.05,16.9 27.1,16.875 C 27.064,16.917 27.031,16.958 27,17 Z m -2.25,0.85 c -0.033,0.133 -0.1,0.217 -0.2,0.25 -0.167,-0.667 -0.1,-1.267 0.2,-1.8 0.133,-0.4 0.233,-0.683 0.3,-0.85 0.167,-0.3 0.35,-0.5 0.55,-0.6 -0.133,0.367 -0.217,0.733 -0.25,1.1 l -0.1,1.15 c -0.2,0.2 -0.3,0.316 -0.3,0.35 z M 4.7,37.55 C 4.867,37.317 5.05,37.067 5.25,36.8 5.583,36.6 5.933,36.401 6.3,36.2 l -0.95,0.85 c -0.167,0.134 -0.333,0.367 -0.5,0.7 z M 6.9,39.1 6.65,38.65 C 6.117,38.883 5.733,38.966 5.5,38.9 5.3,38.866 5.183,38.783 5.15,38.65 c 0.434,-0.2 0.833,-0.434 1.2,-0.7 0.433,-0.334 0.867,-0.9 1.3,-1.7 l -0.55,2.4 z"
   id="path27"
   inkscape:connector-curvature="0" />
	<path
   style="clip-rule:evenodd;fill:#a5c71a;fill-rule:evenodd"
   d="M 3.95,33.7 C 4.317,33.4 4.766,33.05 5.3,32.65 L 7.25,31.2 c 0.167,-0.066 0.317,-0.117 0.45,-0.15 0.367,-0.1 0.733,-0.2 1.1,-0.3 1.967,-0.6 3.717,-1.167 5.25,-1.7 -0.1,0.134 -0.233,0.25 -0.4,0.351 l -0.3,0.449 c -0.4,0.134 -0.817,0.301 -1.25,0.5 -1.4,0.634 -2.317,1.184 -2.75,1.65 -0.4,0.434 -0.667,0.884 -0.8,1.35 0.034,-0.333 -0.066,-0.566 -0.3,-0.699 -0.133,-0.067 -0.2,0 -0.2,0.199 -0.066,0.367 -0.1,0.584 -0.1,0.65 -0.067,0.167 -0.167,0.267 -0.3,0.3 -0.133,0.033 -0.2,-0.083 -0.2,-0.35 -0.034,0.033 -0.067,0.1 -0.1,0.2 -0.1,0.166 -0.283,0.383 -0.55,0.649 l -0.5,0.5 -0.1,0.05 L 6.25,34.7 5.3,35.55 C 5.367,35.217 5.383,34.967 5.35,34.8 5.183,34.901 4.916,35.151 4.55,35.55 4.183,35.884 3.867,36.1 3.6,36.2 3.267,36.266 3.05,36.217 2.95,36.05 c -0.067,-0.133 -0.067,-0.267 0,-0.399 0.133,-0.2 0.2,-0.334 0.2,-0.4 0.133,-0.533 0.25,-0.866 0.35,-1 V 34.2 c 0.133,-0.134 0.283,-0.3 0.45,-0.5 z m 17.6,-9.1 c 0.3,0.3 -0.033,0.85 -1,1.65 -0.867,0.8 -1.617,1.366 -2.25,1.7 -0.767,0.434 -1.633,0.783 -2.6,1.05 -0.034,0 -0.067,0.017 -0.1,0.05 0.233,-0.267 0.4,-0.55 0.5,-0.85 0.767,-0.367 1.45,-0.717 2.05,-1.05 l 2.2,-1.5 c 0.4,-0.333 0.8,-0.7 1.2,-1.1 z m 2.55,-4.45 c -0.033,-0.066 -0.067,-0.1 -0.1,-0.1 l -0.25,-0.4 -0.1,-0.2 C 23.417,18.883 23.267,18.567 23.2,18.5 22.933,18.333 22.733,18.2 22.6,18.1 H 22.55 V 18.05 H 22.5 C 22.267,17.383 22.217,16.367 22.35,15 l 0.15,-0.6 0.1,0.5 c 0.033,0.1 0.05,0.35 0.05,0.75 0,0.367 0.033,0.633 0.1,0.8 0.133,0.466 0.333,0.55 0.6,0.25 0.167,-0.133 0.367,-0.35 0.6,-0.65 0.066,0.133 0.05,0.317 -0.05,0.55 -0.1,0.267 -0.15,0.433 -0.15,0.5 -0.033,0.167 0.017,0.55 0.15,1.15 0.1,0.467 0.233,0.667 0.4,0.6 0.1,-0.033 0.284,-0.167 0.55,-0.4 0.167,0.267 0.217,0.583 0.15,0.95 -0.033,0.333 -0.15,0.583 -0.35,0.75 -0.066,0.067 -0.1,0.117 -0.1,0.15 0,0.034 -0.066,0.05 -0.2,0.05 -0.067,-0.033 -0.15,-0.1 -0.25,-0.2 z"
   id="path29"
   inkscape:connector-curvature="0" />
	<path
   style="clip-rule:evenodd;fill:#3b4a03;fill-rule:evenodd"
   d="m 30.65,22.25 c -0.3,0.233 -0.566,0.417 -0.8,0.55 -0.067,0.034 -0.15,0.067 -0.25,0.1 l -0.05,0.05 c -0.533,0.233 -1,0.333 -1.4,0.3 -0.167,0 -0.433,-0.067 -0.8,-0.2 -0.4,-0.1 -0.667,-0.167 -0.8,-0.2 L 24.6,22.7 24.4,23 23.75,22.1 c 0.133,-0.133 0.25,-0.283 0.35,-0.45 0.033,-0.066 0.05,-0.133 0.05,-0.2 0.2,-0.167 0.35,-0.217 0.45,-0.15 0.1,0.067 0.15,0.167 0.15,0.3 l 0.4,0.65 c 0.233,0.2 0.5,0.317 0.8,0.35 0.167,0.033 0.433,0.05 0.8,0.05 0.667,0.167 1.183,0.184 1.55,0.05 0.067,-0.034 0.217,-0.133 0.45,-0.3 0.233,-0.167 0.4,-0.267 0.5,-0.3 0.067,0 0.217,0.066 0.45,0.2 0.167,0.034 0.383,0.05 0.65,0.05 z M 7,39.25 c 0.1,0.1 0.283,0.1 0.55,0 0.534,-0.233 1,-0.767 1.4,-1.6 0.267,-0.934 0.517,-1.601 0.75,-2 0.133,-0.267 0.367,-0.601 0.7,-1 0.434,-0.867 1.15,-1.334 2.15,-1.4 -0.367,0.267 -0.75,0.6 -1.15,1 -0.167,0.134 -0.316,0.283 -0.45,0.45 L 10.4,35.2 C 9.867,35.9 9.317,36.884 8.75,38.15 8.45,38.783 8.2,39.35 8,39.85 L 6.65,39.55 C 5.783,39.217 5.167,38.917 4.8,38.651 4.633,38.584 4.467,38.434 4.3,38.201 4.267,38.168 4.234,38.117 4.2,38.051 4.1,37.918 3.967,37.735 3.8,37.501 H 3.85 L 3.8,37.45 3.55,37.15 H 3.6 l 0.3,-0.101 c 0.567,-0.233 0.9,-0.399 1,-0.5 -0.1,0.134 -0.183,0.267 -0.25,0.4 -0.033,0.066 -0.066,0.116 -0.1,0.149 -0.1,0.101 -0.167,0.217 -0.2,0.351 C 4.217,37.583 4.1,37.684 4,37.75 l 0.2,0.3 c 0.167,-0.133 0.333,-0.3 0.5,-0.5 l 0.15,0.2 0.3,0.75 v 0.15 c 0.033,0.133 0.15,0.216 0.35,0.25 0.233,0.066 0.617,-0.017 1.15,-0.25 L 6.9,39.1 Z m -4.65,-3.4 0.4,-0.3 0.2,-0.149 -0.2,0.35 -0.05,0.3 C 2.533,35.983 2.417,35.917 2.35,35.85 Z M 29.4,20.35 c -0.032,0.032 -0.065,0.049 -0.1,0.05 h 0.05 l -0.3,0.15 c -0.133,0.133 -0.233,0.233 -0.3,0.3 -0.167,0.066 -0.3,0.05 -0.4,-0.05 0.1,-0.367 0.333,-0.65 0.7,-0.85 l 1.45,-1 0.25,-0.2 1,-0.55 -0.15,0.2 c -0.133,0.267 -0.35,0.5 -0.65,0.7 -0.333,0.267 -0.6,0.467 -0.8,0.6 L 29.8,20.05 Z M 21,27.3 C 20.933,27.267 20.883,27.217 20.85,27.151 L 20.8,27.1 21,26.9 c 0.2,-0.233 0.383,-0.483 0.55,-0.75 l 0.3,-0.2 0.1,0.1 c 0.933,1.2 2.267,1.384 4,0.55 -0.7,0.567 -1.35,0.883 -1.95,0.95 -0.167,0.033 -0.45,0 -0.85,-0.1 -0.4,-0.134 -0.683,-0.2 -0.85,-0.2 -0.2,0 -0.3,0.066 -0.3,0.2 0,0.166 0.067,0.3 0.2,0.399 0.133,0.134 0.316,0.267 0.55,0.4 C 22.117,28.15 21.533,27.833 21,27.3 Z"
   id="path31"
   inkscape:connector-curvature="0" />
	
		<linearGradient
   id="SVGID_2_"
   gradientUnits="userSpaceOnUse"
   x1="-9.9102001"
   y1="28.9209"
   x2="-4.0927"
   y2="28.9209"
   gradientTransform="matrix(0.7821,-0.6231,0.644,0.7655,4.783273e-4,1.247525e-4)">
		<stop
   offset="0"
   style="stop-color:#596C0A"
   id="stop33" />
		<stop
   offset="1"
   style="stop-color:#A7CA1C"
   id="stop35" />
	</linearGradient>
	<path
   style="clip-rule:evenodd;fill:url(#SVGID_2_);fill-rule:evenodd"
   d="m 14.75,29.75 c 0.233,-0.2 0.45,-0.384 0.65,-0.55 0,-0.033 0,-0.066 0,-0.101 -0.033,-0.199 -0.05,-0.399 -0.05,-0.6 -0.1,-0.3 -0.2,-0.583 -0.3,-0.85 -0.267,-0.734 -0.833,-1.217 -1.7,-1.45 -0.533,-0.2 -1.184,-0.25 -1.95,-0.15 -0.833,0.133 -1.45,0.2 -1.85,0.2 l -0.2,-0.05 c -0.037,0.074 -0.062,0.149 -0.075,0.225 0.018,-0.119 0.06,-0.244 0.125,-0.375 0.233,-0.667 0.717,-1.4 1.45,-2.2 0.8,-0.867 1.783,-0.917 2.95,-0.15 0.067,0.033 0.117,0.066 0.15,0.1 -0.7,-0.167 -1.534,0.1 -2.5,0.8 0.767,-0.434 1.617,-0.417 2.55,0.05 0.2,0.133 0.567,0.333 1.1,0.6 0.2,0.2 0.267,0.383 0.2,0.55 -0.033,0.1 -0.15,0.217 -0.35,0.35 0.367,0.133 0.767,0.45 1.2,0.95 0.067,0.367 0.05,0.733 -0.05,1.101 -0.1,0.3 -0.267,0.583 -0.5,0.85 -0.1,0.101 -0.217,0.2 -0.35,0.3 -0.167,0.133 -0.333,0.266 -0.5,0.4 z"
   id="path38"
   inkscape:connector-curvature="0" />
</g>
</svg>