<?xml version="1.0" encoding="UTF-8" standalone="no"?>
<!-- Generator: Adobe Illustrator 15.1.0, SVG Export Plug-In . SVG Version: 6.00 Build 0)  -->

<svg
   xmlns:dc="http://purl.org/dc/elements/1.1/"
   xmlns:cc="http://creativecommons.org/ns#"
   xmlns:rdf="http://www.w3.org/1999/02/22-rdf-syntax-ns#"
   xmlns:svg="http://www.w3.org/2000/svg"
   xmlns="http://www.w3.org/2000/svg"
   xmlns:xlink="http://www.w3.org/1999/xlink"
   xmlns:sodipodi="http://sodipodi.sourceforge.net/DTD/sodipodi-0.dtd"
   xmlns:inkscape="http://www.inkscape.org/namespaces/inkscape"
   version="1.1"
   id="flash0.ai"
   x="0px"
   y="0px"
   width="256"
   height="256"
   viewBox="0 0 256 255.99998"
   xml:space="preserve"
   sodipodi:docname="gandlevery.svg"
   inkscape:version="0.92.4 (5da689c313, 2019-01-14)"><title
   id="title1376">Gandlevery</title><metadata
   id="metadata569"><rdf:RDF><cc:Work
       rdf:about=""><dc:format>image/svg+xml</dc:format><dc:type
         rdf:resource="http://purl.org/dc/dcmitype/StillImage" /><dc:title>Gandlevery</dc:title><cc:license
         rdf:resource="http://creativecommons.org/publicdomain/zero/1.0/" /><dc:creator><cc:Agent><dc:title>Glitch</dc:title></cc:Agent></dc:creator><dc:source>https://opengameart.org/node/20149</dc:source></cc:Work><cc:License
       rdf:about="http://creativecommons.org/publicdomain/zero/1.0/"><cc:permits
         rdf:resource="http://creativecommons.org/ns#Reproduction" /><cc:permits
         rdf:resource="http://creativecommons.org/ns#Distribution" /><cc:permits
         rdf:resource="http://creativecommons.org/ns#DerivativeWorks" /></cc:License></rdf:RDF></metadata><defs
   id="defs567"><linearGradient
     inkscape:collect="always"
     xlink:href="#SVGID_1_"
     id="linearGradient1386"
     gradientUnits="userSpaceOnUse"
     gradientTransform="matrix(-0.99,-0.141,0.141,-0.99,17394.762,-15111.447)"
     x1="15037.684"
     y1="-17396.514"
     x2="15093.719"
     y2="-17396.514" /><linearGradient
     inkscape:collect="always"
     xlink:href="#SVGID_2_"
     id="linearGradient1388"
     gradientUnits="userSpaceOnUse"
     gradientTransform="rotate(-106.2602,8161.9997,-8171.9988)"
     x1="2601.4395"
     y1="-18252.555"
     x2="2616.4395"
     y2="-18252.555" /><linearGradient
     inkscape:collect="always"
     xlink:href="#SVGID_3_"
     id="linearGradient1390"
     gradientUnits="userSpaceOnUse"
     gradientTransform="matrix(0.3575,0.9339,-0.9339,0.3575,-2387.9873,-12872.808)"
     x1="12877.163"
     y1="2331.9746"
     x2="12888.701"
     y2="2331.9746" /><linearGradient
     inkscape:collect="always"
     xlink:href="#SVGID_4_"
     id="linearGradient1392"
     gradientUnits="userSpaceOnUse"
     gradientTransform="matrix(-0.0197,0.9998,-0.9998,-0.0197,152.2222,-16493.254)"
     x1="16477.785"
     y1="-193.646"
     x2="16490.488"
     y2="-193.646" /></defs><sodipodi:namedview
   pagecolor="#ffffff"
   bordercolor="#666666"
   borderopacity="1"
   objecttolerance="10"
   gridtolerance="10"
   guidetolerance="10"
   inkscape:pageopacity="0"
   inkscape:pageshadow="2"
   inkscape:window-width="1920"
   inkscape:window-height="1025"
   id="namedview565"
   showgrid="false"
   inkscape:zoom="0.87382302"
   inkscape:cx="-54.716954"
   inkscape:cy="-132.09645"
   inkscape:window-x="-8"
   inkscape:window-y="-8"
   inkscape:window-maximized="1"
   inkscape:current-layer="flash0.ai"
   fit-margin-top="0"
   fit-margin-left="0"
   fit-margin-right="0"
   fit-margin-bottom="0" />
<symbol
   id="gandlevery_x5F_1"
   viewBox="0 -27.4 55.09 27.4"
   transform="translate(-8.7002,212.83)">
	<g
   id="Layer_1_2_">
		<path
   style="clip-rule:evenodd;fill:#8f3c15;fill-rule:evenodd"
   d="m 40.55,-2.25 c -0.467,0.367 -1.184,0.567 -2.15,0.6 -0.9,0 -1.683,-0.133 -2.35,-0.4 -0.634,-0.267 -1.3,-0.767 -2,-1.5 -0.734,-0.733 -1.084,-1.316 -1.05,-1.75 0.034,-0.434 0.467,-1.1 1.3,-2 0.833,-0.934 1.55,-1.467 2.15,-1.6 0.433,-0.1 1.716,0.05 3.85,0.45 -1.767,-0.733 -3.3,-1.45 -4.6,-2.15 -1.7,0.833 -3.017,1.966 -3.95,3.4 -1.233,1.9 -0.983,3.55 0.75,4.95 2.034,1.667 4.184,2.367 6.45,2.1 1.9,-0.2 3.183,-0.85 3.85,-1.95 0.5,-0.833 0.333,-1.7 -0.5,-2.6 -0.8,-0.833 -1.7,-1.284 -2.7,-1.35 -0.9,-0.066 -1.566,0.25 -2,0.95 -0.467,0.733 -0.4,1.3 0.2,1.7 0.533,0.333 1.017,0.383 1.45,0.15 0.467,-0.233 0.55,-0.383 0.25,-0.45 -0.3,-0.1 -0.533,-0.2 -0.7,-0.3 -0.267,-0.133 -0.35,-0.267 -0.25,-0.4 0.233,-0.433 0.85,-0.417 1.85,0.05 0.534,0.267 0.817,0.583 0.85,0.95 0.033,0.367 -0.2,0.75 -0.7,1.15 z"
   id="path2"
   inkscape:connector-curvature="0" />
		<path
   style="clip-rule:evenodd;fill:#ebaa91;fill-rule:evenodd"
   d="m 34.85,-10 -1.05,-0.4 c 0.167,0.6 0.433,0.917 0.8,0.95 l 0.25,-0.25 z"
   id="path4"
   inkscape:connector-curvature="0" />
		<path
   style="clip-rule:evenodd;fill:#ebaa91;fill-rule:evenodd"
   d="m 33.75,-9.05 c -0.1,0.066 -0.3,0.033 -0.6,-0.1 -0.333,-0.133 -0.55,-0.2 -0.65,-0.2 0.3,0.233 0.5,0.366 0.6,0.4 0.133,0.066 0.316,0.1 0.55,0.1 z"
   id="path6"
   inkscape:connector-curvature="0" />
		<path
   style="clip-rule:evenodd;fill:#ebaa91;fill-rule:evenodd"
   d="m 34,-9.35 c 0.067,-0.2 -0.167,-0.367 -0.7,-0.5 0.033,0.033 0.167,0.15 0.4,0.35 0.167,0.134 0.3,0.217 0.4,0.25 z"
   id="path8"
   inkscape:connector-curvature="0" />
		<path
   style="clip-rule:evenodd;fill:#ebaa91;fill-rule:evenodd"
   d="m 34.55,-8.95 -0.2,0.1 c -0.1,0.466 -0.066,0.716 0.1,0.75 0.133,-0.1 0.216,-0.25 0.25,-0.45 0.033,-0.2 -0.017,-0.333 -0.15,-0.4 z"
   id="path10"
   inkscape:connector-curvature="0" />
		<path
   style="clip-rule:evenodd;fill:#ebaa91;fill-rule:evenodd"
   d="m 35.5,-9.3 -0.15,-0.05 -0.15,0.6 c -0.067,0.3 -0.05,0.483 0.05,0.55 l 0.45,-0.9 c 0,-0.2 -0.067,-0.266 -0.2,-0.2 z"
   id="path12"
   inkscape:connector-curvature="0" />
		<path
   style="clip-rule:evenodd;fill:#ebaa91;fill-rule:evenodd"
   d="m 36.2,-9.15 0.1,0.25 c 0,0.167 0.033,0.284 0.1,0.35 0.134,-0.367 0.184,-0.583 0.15,-0.65 -0.034,-0.1 -0.083,-0.15 -0.15,-0.15 -0.1,0 -0.167,0.067 -0.2,0.2 z"
   id="path14"
   inkscape:connector-curvature="0" />
		<path
   style="clip-rule:evenodd;fill:#ebaa91;fill-rule:evenodd"
   d="m 37,-8.95 0.15,0.1 c 0.1,-0.1 0.117,-0.217 0.05,-0.35 -0.034,0 -0.1,0.084 -0.2,0.25 z"
   id="path16"
   inkscape:connector-curvature="0" />
		<path
   style="clip-rule:evenodd;fill:#ebaa91;fill-rule:evenodd"
   d="m 33.899,-7.4 0.15,0.25 c 0.133,0.167 0.35,0.284 0.65,0.35 l -0.25,-0.25 c 0.033,-0.133 0.017,-0.233 -0.05,-0.3 -0.066,-0.133 -0.233,-0.15 -0.5,-0.05 z"
   id="path18"
   inkscape:connector-curvature="0" />
		<path
   style="clip-rule:evenodd;fill:#ebaa91;fill-rule:evenodd"
   d="m 33.6,-6.85 -0.1,0.35 c 0.6,0.233 0.917,0.35 0.95,0.35 0,-0.033 -0.15,-0.15 -0.45,-0.35 -0.2,-0.133 -0.334,-0.25 -0.4,-0.35 z"
   id="path20"
   inkscape:connector-curvature="0" />
		<path
   style="clip-rule:evenodd;fill:#ebaa91;fill-rule:evenodd"
   d="m 32.85,-5.75 -0.45,0.4 c 0.267,0.133 0.483,0.2 0.65,0.2 0.366,0 0.583,-0.083 0.65,-0.25 z"
   id="path22"
   inkscape:connector-curvature="0" />
		<path
   style="clip-rule:evenodd;fill:#ebaa91;fill-rule:evenodd"
   d="m 33.649,-4 0.1,0.45 c 0.1,-0.066 0.267,-0.117 0.5,-0.15 0.2,-0.067 0.317,-0.184 0.35,-0.35 -0.266,0.067 -0.583,0.084 -0.95,0.05 z"
   id="path24"
   inkscape:connector-curvature="0" />
		<path
   style="clip-rule:evenodd;fill:#ebaa91;fill-rule:evenodd"
   d="m 35.25,-2.65 0.15,0.25 c 0.233,0.034 0.434,-0.216 0.6,-0.75 -0.234,0.367 -0.484,0.534 -0.75,0.5 z"
   id="path26"
   inkscape:connector-curvature="0" />
		<path
   style="clip-rule:evenodd;fill:#ebaa91;fill-rule:evenodd"
   d="m 37.05,-1.65 0.4,0.3 c 0.167,-0.067 0.267,-0.25 0.3,-0.55 0,-0.233 -0.033,-0.433 -0.1,-0.6 -0.3,0.6 -0.501,0.884 -0.6,0.85 z"
   id="path28"
   inkscape:connector-curvature="0" />
		<path
   style="clip-rule:evenodd;fill:#ebaa91;fill-rule:evenodd"
   d="m 35.95,-1 c -0.133,-0.033 -0.367,0 -0.7,0.1 -0.3,0.1 -0.517,0.2 -0.65,0.3 0.167,0.1 0.45,0.133 0.85,0.1 0.433,0 0.683,-0.1 0.75,-0.3 z"
   id="path30"
   inkscape:connector-curvature="0" />
		<path
   style="clip-rule:evenodd;fill:#ebaa91;fill-rule:evenodd"
   d="m 36.85,-0.65 -0.1,0.15 c 0,0.2 0.3,0.367 0.9,0.5 0,-0.066 -0.133,-0.233 -0.4,-0.5 -0.167,-0.167 -0.3,-0.216 -0.4,-0.15 z"
   id="path32"
   inkscape:connector-curvature="0" />
		<path
   style="clip-rule:evenodd;fill:#ebaa91;fill-rule:evenodd"
   d="m 38.1,-0.65 -0.05,0.2 c 0.1,0.066 0.267,0.133 0.5,0.2 0.267,0.067 0.433,0.083 0.5,0.05 0,-0.166 -0.317,-0.317 -0.95,-0.45 z"
   id="path34"
   inkscape:connector-curvature="0" />
		<path
   style="clip-rule:evenodd;fill:#ebaa91;fill-rule:evenodd"
   d="m 40.1,-0.8 -0.3,0.2 c 0.133,0.066 0.35,0.1 0.65,0.1 0.367,0.1 0.566,0.134 0.6,0.1 z"
   id="path36"
   inkscape:connector-curvature="0" />
		<path
   style="clip-rule:evenodd;fill:#ebaa91;fill-rule:evenodd"
   d="m 41.3,-1.25 -0.2,0.1 c 0.1,0.034 0.283,0.067 0.55,0.1 0.122,0 0.23,0.008 0.325,0.025 z"
   id="path38"
   inkscape:connector-curvature="0" />
		<path
   style="clip-rule:evenodd;fill:#ebaa91;fill-rule:evenodd"
   d="m 42.05,-1.8 v 0.2 c 0.167,-0.067 0.466,-0.083 0.9,-0.05 0.333,-0.066 0.517,-0.233 0.55,-0.5 -0.466,0.167 -0.816,0.25 -1.05,0.25 -0.167,0 -0.301,0.034 -0.4,0.1 z"
   id="path40"
   inkscape:connector-curvature="0" />
		<path
   style="clip-rule:evenodd;fill:#ebaa91;fill-rule:evenodd"
   d="m 42.7,-3.2 0.05,0.3 c 0.167,0 0.317,-0.133 0.45,-0.4 0.133,-0.233 0.183,-0.417 0.15,-0.55 -0.066,0.033 -0.167,0.167 -0.3,0.4 -0.1,0.167 -0.217,0.25 -0.35,0.25 z"
   id="path42"
   inkscape:connector-curvature="0" />
		<path
   style="clip-rule:evenodd;fill:#ebaa91;fill-rule:evenodd"
   d="m 42.3,-3.7 0.05,0.15 c 0.3,-0.467 0.434,-0.767 0.4,-0.9 z"
   id="path44"
   inkscape:connector-curvature="0" />
		<path
   style="clip-rule:evenodd;fill:#ebaa91;fill-rule:evenodd"
   d="m 41.899,-3.35 c -0.167,-0.1 -0.45,-0.184 -0.85,-0.25 -0.034,0.133 0.066,0.267 0.3,0.4 0.2,0.133 0.383,0.167 0.55,0.1 z"
   id="path46"
   inkscape:connector-curvature="0" />
		<path
   style="clip-rule:evenodd;fill:#ebaa91;fill-rule:evenodd"
   d="m 41.6,-2.6 -0.65,-0.25 c 0,0.1 0.1,0.2 0.3,0.3 0.167,0.1 0.3,0.133 0.4,0.1 z"
   id="path48"
   inkscape:connector-curvature="0" />
		<path
   style="clip-rule:evenodd;fill:#ebaa91;fill-rule:evenodd"
   d="m 42.149,-2.7 -0.1,0.35 c 0.133,-0.067 0.267,-0.217 0.4,-0.45 0.1,-0.233 0.117,-0.4 0.05,-0.5 z"
   id="path50"
   inkscape:connector-curvature="0" />
		<path
   style="clip-rule:evenodd;fill:#ebaa91;fill-rule:evenodd"
   d="m 40.899,-1.95 c -0.066,-0.1 -0.267,-0.2 -0.6,-0.3 -0.034,0.1 0.017,0.184 0.15,0.25 0.1,0.034 0.216,0.083 0.35,0.15 z"
   id="path52"
   inkscape:connector-curvature="0" />
		<path
   style="clip-rule:evenodd;fill:#ebaa91;fill-rule:evenodd"
   d="M 40.05,-1.45 40.3,-1.6 c 0.1,-0.167 0.083,-0.333 -0.05,-0.5 -0.1,-0.134 -0.233,-0.233 -0.4,-0.3 0.133,0.1 0.184,0.267 0.15,0.5 -0.034,0.267 -0.017,0.417 0.05,0.45 z"
   id="path54"
   inkscape:connector-curvature="0" />
		<path
   style="clip-rule:evenodd;fill:#ebaa91;fill-rule:evenodd"
   d="m 39.649,-1.25 -0.5,0.3 c 0.6,0.066 1.034,0 1.3,-0.2 -0.067,-0.033 -0.2,-0.05 -0.4,-0.05 -0.166,0.033 -0.299,0.017 -0.4,-0.05 z"
   id="path56"
   inkscape:connector-curvature="0" />
		<path
   style="clip-rule:evenodd;fill:#ebaa91;fill-rule:evenodd"
   d="m 40.55,-5.7 c -0.034,-0.2 -0.267,-0.383 -0.7,-0.55 0.066,0.634 0.3,0.9 0.7,0.8 z"
   id="path58"
   inkscape:connector-curvature="0" />
		<path
   style="clip-rule:evenodd;fill:#ebaa91;fill-rule:evenodd"
   d="m 39.399,-5.35 c 0.134,0.2 0.483,0.383 1.05,0.55 l 0.1,-0.1 z"
   id="path60"
   inkscape:connector-curvature="0" />
		<path
   style="clip-rule:evenodd;fill:#ebaa91;fill-rule:evenodd"
   d="m 41.1,-4.2 c -0.267,-0.1 -0.434,-0.1 -0.5,0 0.233,0.167 0.483,0.233 0.75,0.2 z"
   id="path62"
   inkscape:connector-curvature="0" />
		<path
   style="clip-rule:evenodd;fill:#ebaa91;fill-rule:evenodd"
   d="m 42.1,-4.45 c 0.167,-0.067 0.283,-0.2 0.35,-0.4 0.033,-0.167 0.017,-0.317 -0.05,-0.45 -0.087,0.408 -0.186,0.692 -0.3,0.85 z"
   id="path64"
   inkscape:connector-curvature="0" />
		<path
   style="clip-rule:evenodd;fill:#ebaa91;fill-rule:evenodd"
   d="m 38.899,-5.9 c -0.5,-0.167 -0.816,-0.25 -0.95,-0.25 l 0.351,0.25 0.4,0.05 z"
   id="path66"
   inkscape:connector-curvature="0" />
		<path
   style="clip-rule:evenodd;fill:#ebaa91;fill-rule:evenodd"
   d="m 38.1,-5.4 c -0.233,-0.133 -0.5,-0.117 -0.8,0.05 l 0.6,0.05 z"
   id="path68"
   inkscape:connector-curvature="0" />
		<path
   style="clip-rule:evenodd;fill:#ebaa91;fill-rule:evenodd"
   d="m 37.55,-4.7 -0.7,0.35 c 0.167,0 0.417,-0.067 0.75,-0.2 z"
   id="path70"
   inkscape:connector-curvature="0" />
		<path
   style="clip-rule:evenodd;fill:#ebaa91;fill-rule:evenodd"
   d="m 37.55,-4.15 c -0.2,0.367 -0.25,0.583 -0.15,0.65 0.167,-0.233 0.217,-0.417 0.15,-0.55 z"
   id="path72"
   inkscape:connector-curvature="0" />
		<path
   style="clip-rule:evenodd;fill:#ebaa91;fill-rule:evenodd"
   d="m 38.05,-3.65 v 0.2 l 0.85,0.3 c -0.067,-0.133 -0.35,-0.3 -0.85,-0.5 z"
   id="path74"
   inkscape:connector-curvature="0" />
		<path
   style="clip-rule:evenodd;fill:#ebaa91;fill-rule:evenodd"
   d="M 39.149,-3.5 39,-3.35 c 0.133,0.066 0.3,0.1 0.5,0.1 0.2,-0.033 0.317,-0.1 0.35,-0.2 -0.334,0.033 -0.567,0.017 -0.701,-0.05 z"
   id="path76"
   inkscape:connector-curvature="0" />
		<path
   style="clip-rule:evenodd;fill:#ebaa91;fill-rule:evenodd"
   d="m 39.5,-3.65 0.05,0.1 0.6,-0.15 c -0.3,-0.1 -0.517,-0.083 -0.65,0.05 z"
   id="path78"
   inkscape:connector-curvature="0" />
		<path
   style="clip-rule:evenodd;fill:#ebaa91;fill-rule:evenodd"
   d="m 38.25,-4 0.1,0.05 c 0.1,0.066 0.217,0.083 0.35,0.05 0.133,-0.066 0.216,-0.15 0.25,-0.25 -0.034,0 -0.267,0.05 -0.7,0.15 z"
   id="path80"
   inkscape:connector-curvature="0" />
		<path
   style="clip-rule:evenodd;fill:#ebaa91;fill-rule:evenodd"
   d="M 38.45,-4.85 38.3,-4.3 c 0.267,-0.434 0.417,-0.717 0.45,-0.85 l -0.1,-0.05 z"
   id="path82"
   inkscape:connector-curvature="0" />
		<path
   style="clip-rule:evenodd;fill:#ebaa91;fill-rule:evenodd"
   d="m 38.45,-5.4 v 0.25 c 0.066,-0.033 0.15,-0.133 0.25,-0.3 -0.034,-0.033 -0.117,-0.016 -0.25,0.05 z"
   id="path84"
   inkscape:connector-curvature="0" />
		<path
   style="clip-rule:evenodd;fill:#ebaa91;fill-rule:evenodd"
   d="m 39.149,-5.8 -0.5,0.1 0.6,0.2 c 0.067,-0.066 0.1,-0.15 0.1,-0.25 -0.033,-0.1 -0.099,-0.116 -0.2,-0.05 z"
   id="path86"
   inkscape:connector-curvature="0" />
		<path
   style="clip-rule:evenodd;fill:#ebaa91;fill-rule:evenodd"
   d="m 39.149,-4.95 -0.1,0.35 c 0.2,0.1 0.333,0.033 0.4,-0.2 z"
   id="path88"
   inkscape:connector-curvature="0" />
		<path
   style="clip-rule:evenodd;fill:#ebaa91;fill-rule:evenodd"
   d="m 41.25,-4.7 -0.2,0.05 c 0.2,0.367 0.383,0.567 0.55,0.6 0.066,-0.367 -0.05,-0.583 -0.35,-0.65 z"
   id="path90"
   inkscape:connector-curvature="0" />
		<path
   style="clip-rule:evenodd;fill:#ebaa91;fill-rule:evenodd"
   d="m 33.899,-2.35 -0.2,0.1 c 0.033,0.134 0.183,0.25 0.45,0.35 0.2,0.067 0.4,0.1 0.6,0.1 -0.166,-0.433 -0.449,-0.617 -0.85,-0.55 z"
   id="path92"
   inkscape:connector-curvature="0" />
		<path
   style="clip-rule:evenodd;fill:#ebaa91;fill-rule:evenodd"
   d="M 34.35,-2.65 34.8,-2.8 c 0.233,0 0.4,-0.117 0.5,-0.35 -0.267,0.067 -0.584,0.233 -0.95,0.5 z"
   id="path94"
   inkscape:connector-curvature="0" />
		<path
   style="clip-rule:evenodd;fill:#ebaa91;fill-rule:evenodd"
   d="m 33.2,-2.15 -0.25,0.2 c 0.066,0.367 0.233,0.633 0.5,0.8 0.033,-0.133 0.017,-0.333 -0.05,-0.6 0.034,-0.167 0.05,-0.267 0.05,-0.3 -0.034,-0.033 -0.117,-0.066 -0.25,-0.1 z"
   id="path96"
   inkscape:connector-curvature="0" />
		<path
   style="clip-rule:evenodd;fill:#ebaa91;fill-rule:evenodd"
   d="m 34.149,-1.5 0.05,0.2 0.2,0.35 c 0.134,-0.1 0.167,-0.217 0.1,-0.35 -0.066,-0.1 -0.183,-0.166 -0.35,-0.2 z"
   id="path98"
   inkscape:connector-curvature="0" />
		<path
   style="clip-rule:evenodd;fill:#ebaa91;fill-rule:evenodd"
   d="m 32.2,-2.35 c 0.333,-0.5 0.417,-0.767 0.25,-0.8 -0.1,-0.033 -0.2,0.034 -0.3,0.2 -0.1,0.2 -0.167,0.333 -0.2,0.4 z"
   id="path100"
   inkscape:connector-curvature="0" />
		<path
   style="clip-rule:evenodd;fill:#ebaa91;fill-rule:evenodd"
   d="m 33.149,-3.25 -0.25,1.2 c 0.067,-0.1 0.233,-0.383 0.5,-0.85 0.201,-0.4 0.117,-0.517 -0.25,-0.35 z"
   id="path102"
   inkscape:connector-curvature="0" />
		<path
   style="clip-rule:evenodd;fill:#ebaa91;fill-rule:evenodd"
   d="M 31.399,-3.65 31.45,-3 c 0.333,-0.333 0.466,-0.583 0.4,-0.75 -0.033,-0.1 -0.1,-0.133 -0.2,-0.1 -0.134,0.034 -0.217,0.1 -0.251,0.2 z"
   id="path104"
   inkscape:connector-curvature="0" />
		<path
   style="clip-rule:evenodd;fill:#ebaa91;fill-rule:evenodd"
   d="M 32.25,-3.95 32.45,-4 33.1,-4.1 32.65,-4.25 c -0.1,0 -0.167,0.034 -0.2,0.1 -0.1,0.1 -0.167,0.167 -0.2,0.2 z"
   id="path106"
   inkscape:connector-curvature="0" />
		<path
   style="clip-rule:evenodd;fill:#ebaa91;fill-rule:evenodd"
   d="m 32.75,-4.65 -0.1,0.3 c 0.3,0 0.617,-0.083 0.95,-0.25 -0.234,-0.1 -0.517,-0.116 -0.85,-0.05 z"
   id="path108"
   inkscape:connector-curvature="0" />
		<path
   style="clip-rule:evenodd;fill:#ebaa91;fill-rule:evenodd"
   d="M 31.3,-4.7 31,-4.1 c 0.367,-0.134 0.6,-0.333 0.7,-0.6 0.066,-0.233 -0.067,-0.233 -0.4,0 z"
   id="path110"
   inkscape:connector-curvature="0" />
		<path
   style="clip-rule:evenodd;fill:#ebaa91;fill-rule:evenodd"
   d="M 30.899,-5.55 30.35,-5.1 c 0.533,0 0.867,-0.217 1,-0.65 -0.201,-0.133 -0.35,-0.066 -0.451,0.2 z"
   id="path112"
   inkscape:connector-curvature="0" />
		<path
   style="clip-rule:evenodd;fill:#ebaa91;fill-rule:evenodd"
   d="M 31.05,-6.35 30.5,-6 c 0.534,0 0.833,-0.116 0.9,-0.35 -0.1,-0.033 -0.217,-0.033 -0.35,0 z"
   id="path114"
   inkscape:connector-curvature="0" />
		<path
   style="clip-rule:evenodd;fill:#ebaa91;fill-rule:evenodd"
   d="m 31.55,-7.6 -1.05,0.1 c 0.833,0.4 1.284,0.384 1.35,-0.05 -0.134,-0.066 -0.234,-0.083 -0.3,-0.05 z"
   id="path116"
   inkscape:connector-curvature="0" />
		<path
   style="clip-rule:evenodd;fill:#ebaa91;fill-rule:evenodd"
   d="m 32.649,-6.8 -0.2,-0.15 -0.7,0.3 c 0.534,0.2 0.834,0.15 0.9,-0.15 z"
   id="path118"
   inkscape:connector-curvature="0" />
		<path
   style="clip-rule:evenodd;fill:#ebaa91;fill-rule:evenodd"
   d="m 32.3,-5.85 c 0.2,-0.233 0.15,-0.4 -0.15,-0.5 L 31.7,-5.7 c 0.199,0.134 0.4,0.084 0.6,-0.15 z"
   id="path120"
   inkscape:connector-curvature="0" />
		<path
   style="clip-rule:evenodd;fill:#ebaa91;fill-rule:evenodd"
   d="m 33.45,-8.5 -0.95,0.2 c 0.6,0.233 0.967,0.283 1.1,0.15 0.166,-0.233 0.116,-0.35 -0.15,-0.35 z"
   id="path122"
   inkscape:connector-curvature="0" />
		<path
   style="clip-rule:evenodd;fill:#ebaa91;fill-rule:evenodd"
   d="m 31.899,-8.5 -0.7,0.25 c 0.633,0.3 0.983,0.367 1.05,0.2 0.067,-0.2 -0.049,-0.35 -0.35,-0.45 z"
   id="path124"
   inkscape:connector-curvature="0" />
		<path
   style="clip-rule:evenodd;fill:#8f3c15;fill-rule:evenodd"
   d="m 13.1,-14.3 -0.7,0.1 c -0.4,0.033 -0.716,0.066 -0.95,0.1 -0.5,0.066 -0.9,0.083 -1.2,0.05 -0.3,-0.033 -0.6,-0.033 -0.9,0 -0.667,0.066 -1.167,0.184 -1.5,0.35 -0.566,0.233 -0.867,0.367 -0.9,0.4 -0.333,0.2 -0.534,0.434 -0.6,0.7 -0.267,0.7 -0.117,1.283 0.45,1.75 0.366,0.267 0.883,0.4 1.55,0.4 0.333,0 0.633,-0.117 0.9,-0.35 0.233,-0.233 0.317,-0.483 0.25,-0.75 -0.033,-0.2 -0.233,-0.367 -0.6,-0.5 -0.333,-0.167 -0.583,-0.184 -0.75,-0.05 -0.267,0.2 -0.267,0.366 0,0.5 0.134,0.1 0.2,0.1 0.2,0 0,-0.034 0,-0.117 0,-0.25 0.333,0 0.55,0.066 0.65,0.2 0.133,0.233 0.083,0.434 -0.15,0.6 -0.566,0.267 -1.05,0.25 -1.45,-0.05 -0.433,-0.333 -0.65,-0.65 -0.65,-0.95 0,-0.434 0.284,-0.783 0.85,-1.05 1.066,-0.434 1.967,-0.65 2.7,-0.65 l 1.55,0.05 c 0.533,0.033 1.35,0.117 2.45,0.25 0.033,-0.1 0,-0.233 -0.1,-0.4 z"
   id="path126"
   inkscape:connector-curvature="0" />
		<polygon
   style="clip-rule:evenodd;fill:#c48063;fill-rule:evenodd"
   points="13.35,-13.45 13.7,-13.65 13.25,-13.75 12.8,-13.35 "
   id="polygon128" />
		<path
   style="clip-rule:evenodd;fill:#c48063;fill-rule:evenodd"
   d="m 12.149,-13.95 0.3,-0.1 c -0.733,-0.2 -1.1,-0.184 -1.1,0.05 0.334,0.067 0.601,0.083 0.8,0.05 z"
   id="path130"
   inkscape:connector-curvature="0" />
		<path
   style="clip-rule:evenodd;fill:#c48063;fill-rule:evenodd"
   d="m 10,-13.9 c -0.167,0.034 -0.417,0.15 -0.75,0.35 0.233,0.1 0.633,0 1.2,-0.3 z"
   id="path132"
   inkscape:connector-curvature="0" />
		<path
   style="clip-rule:evenodd;fill:#c48063;fill-rule:evenodd"
   d="m 7.25,-13.45 c -0.1,0.066 -0.433,0.15 -1,0.25 0.067,0 0.267,0.017 0.6,0.05 0.3,0 0.45,-0.066 0.45,-0.2 z"
   id="path134"
   inkscape:connector-curvature="0" />
		<path
   style="clip-rule:evenodd;fill:#c48063;fill-rule:evenodd"
   d="m 6.899,-12.75 c 0,0.333 0.034,0.517 0.1,0.55 0.034,-0.133 0.083,-0.35 0.15,-0.65 z"
   id="path136"
   inkscape:connector-curvature="0" />
		<path
   style="clip-rule:evenodd;fill:#c48063;fill-rule:evenodd"
   d="m 6.35,-12.45 c 0,0.033 -0.066,0.133 -0.2,0.3 -0.1,0.167 -0.133,0.284 -0.1,0.35 0.066,0.167 0.15,0.15 0.25,-0.05 0.033,-0.034 0.1,-0.184 0.2,-0.45 z"
   id="path138"
   inkscape:connector-curvature="0" />
		<path
   style="clip-rule:evenodd;fill:#c48063;fill-rule:evenodd"
   d="m 6.5,-11.35 c -0.033,0.167 -0.017,0.417 0.05,0.75 0.1,0 0.15,-0.167 0.15,-0.5 z"
   id="path140"
   inkscape:connector-curvature="0" />
		<path
   style="clip-rule:evenodd;fill:#c48063;fill-rule:evenodd"
   d="m 7.35,-10.6 c 0.2,0.033 0.434,0.15 0.7,0.35 0,-0.066 -0.117,-0.183 -0.35,-0.35 z"
   id="path142"
   inkscape:connector-curvature="0" />
		<path
   style="clip-rule:evenodd;fill:#c48063;fill-rule:evenodd"
   d="m 9.25,-11.05 c 0.267,0 0.483,-0.184 0.65,-0.55 -0.033,0 -0.216,0.05 -0.55,0.15 z"
   id="path144"
   inkscape:connector-curvature="0" />
		<path
   style="clip-rule:evenodd;fill:#8f3c15;fill-rule:evenodd"
   d="m 9.149,-11.7 c 0.1,-0.3 0.034,-0.45 -0.2,-0.45 l -0.05,0.35 z"
   id="path146"
   inkscape:connector-curvature="0" />
		<path
   style="clip-rule:evenodd;fill:#c48063;fill-rule:evenodd"
   d="m 8.6,-11 c 0,0.134 0.117,0.2 0.35,0.2 0,-0.3 -0.017,-0.467 -0.05,-0.5 z"
   id="path148"
   inkscape:connector-curvature="0" />
		<path
   style="clip-rule:evenodd;fill:#c48063;fill-rule:evenodd"
   d="m 7.5,-10.95 c 0.166,0.167 0.433,0.15 0.8,-0.05 -0.5,-0.167 -0.833,-0.2 -1,-0.1 z"
   id="path150"
   inkscape:connector-curvature="0" />
		<path
   style="clip-rule:evenodd;fill:#c48063;fill-rule:evenodd"
   d="M 6.75,-11.45 7.2,-11.4 C 7.056,-11.432 6.939,-11.582 6.85,-11.85 Z"
   id="path152"
   inkscape:connector-curvature="0" />
		
			<linearGradient
   id="SVGID_1_"
   gradientUnits="userSpaceOnUse"
   x1="15037.684"
   y1="-17396.514"
   x2="15093.719"
   y2="-17396.514"
   gradientTransform="matrix(-0.99,-0.141,0.141,-0.99,17394.762,-15111.447)">
			<stop
   offset="0"
   style="stop-color:#A3481D"
   id="stop154" />
			<stop
   offset="1"
   style="stop-color:#F1814E"
   id="stop156" />
		</linearGradient>
		<path
   style="clip-rule:evenodd;fill:url(#linearGradient1386);fill-rule:evenodd"
   d="m 26.2,-13.75 c 2.667,1.134 4.883,2.3 6.65,3.5 3.033,2.034 5.434,3.417 7.2,4.15 1.366,0.566 3.033,1.183 5,1.85 1.6,0.534 2.75,0.884 3.45,1.05 l 4.1,0.9 0.45,0.2 c 0.333,0.1 0.566,0.017 0.7,-0.25 0.533,-1.033 0.85,-1.95 0.95,-2.75 0.066,-0.667 0.05,-1.317 -0.05,-1.95 C 54.55,-7.616 54.417,-8 54.25,-8.2 54.117,-8.333 53.833,-8.484 53.4,-8.65 L 52.75,-8.9 c -3.066,0.467 -5.15,0.733 -6.25,0.8 -0.867,0.066 -2.417,-0.284 -4.65,-1.05 -2.4,-0.8 -4.467,-1.733 -6.2,-2.8 -1.9,-1.167 -4.017,-2.15 -6.35,-2.95 -2.434,-0.8 -4.55,-1.2 -6.35,-1.2 -1.2,0 -3.083,0.283 -5.65,0.85 -2.467,0.5 -4.25,0.733 -5.35,0.7 -4.133,-0.133 -6.867,-0.667 -8.2,-1.6 -1.9,-1.433 -2.75,-2.9 -2.55,-4.4 0.1,-0.833 0.55,-1.4 1.35,-1.7 0.6,-0.267 1.2,-0.333 1.8,-0.2 0.467,0.133 0.767,0.383 0.9,0.75 0.1,0.4 -0.066,0.65 -0.5,0.75 -0.367,0.066 -0.683,0.066 -0.95,0 -0.233,-0.133 -0.4,-0.2 -0.5,-0.2 -0.233,-0.033 -0.417,0.067 -0.55,0.3 -0.167,0.233 -0.017,0.383 0.45,0.45 0.7,0.1 1.2,0.133 1.5,0.1 0.466,-0.066 0.783,-0.316 0.95,-0.75 0.167,-0.5 0.117,-1 -0.15,-1.5 -0.233,-0.533 -0.633,-0.867 -1.2,-1 -0.567,-0.133 -1.233,-0.066 -2,0.2 -0.8,0.3 -1.367,0.716 -1.7,1.25 -0.4,0.6 -0.566,1.35 -0.5,2.25 0.1,0.933 0.434,1.816 1,2.65 0.6,0.867 1.583,1.617 2.95,2.25 1.4,0.7 2.85,1.117 4.35,1.25 4.1,0.333 7.4,0.25 9.9,-0.25 3.3,-0.666 5.933,-0.6 7.9,0.2 z"
   id="path159"
   inkscape:connector-curvature="0" />
		<path
   style="clip-rule:evenodd;fill:#ebaa91;fill-rule:evenodd"
   d="m 46.6,-7.6 0.35,0.55 V -7.9 c 0.066,-0.3 0.066,-0.517 0,-0.65 -0.167,-0.3 -0.45,-0.617 -0.85,-0.95 -0.267,-0.3 -0.483,-0.5 -0.65,-0.6 0.066,0.667 0.283,1.3 0.65,1.9 z"
   id="path161"
   inkscape:connector-curvature="0" />
		<path
   style="clip-rule:evenodd;fill:#ebaa91;fill-rule:evenodd"
   d="m 48.3,-7.85 0.85,-0.2 c 0.1,-0.3 0.034,-0.583 -0.2,-0.85 C 48.85,-9 48.633,-9.116 48.3,-9.25 L 47.45,-9.9 c -0.4,-0.2 -0.534,-0.15 -0.4,0.15 0.066,0.167 0.333,0.583 0.8,1.25 0.266,0.3 0.416,0.517 0.45,0.65 z"
   id="path163"
   inkscape:connector-curvature="0" />
		<path
   style="clip-rule:evenodd;fill:#ebaa91;fill-rule:evenodd"
   d="m 50.75,-7.95 0.5,0.1 c 0.233,-0.067 0.25,-0.317 0.05,-0.75 -0.2,-0.333 -0.567,-0.617 -1.1,-0.85 -0.367,-0.1 -0.6,-0.133 -0.7,-0.1 0.034,0.133 0.167,0.316 0.4,0.55 l 0.45,0.45 c 0.233,0.267 0.366,0.467 0.4,0.6 z"
   id="path165"
   inkscape:connector-curvature="0" />
		<path
   style="clip-rule:evenodd;fill:#ebaa91;fill-rule:evenodd"
   d="m 49.75,-6.85 c 0.233,0.2 0.65,0.366 1.25,0.5 0.2,0 0.317,-0.05 0.35,-0.15 C 51.45,-6.833 51.4,-7 51.2,-7 v -0.3 l -0.8,-0.15 c -0.667,-0.167 -1.167,-0.233 -1.5,-0.2 z"
   id="path167"
   inkscape:connector-curvature="0" />
		<path
   style="clip-rule:evenodd;fill:#ebaa91;fill-rule:evenodd"
   d="m 53.149,-7.25 h 0.4 c 0.133,-0.066 0.2,-0.15 0.2,-0.25 0,-0.133 -0.083,-0.216 -0.25,-0.25 L 52.55,-8.2 c -0.1,-0.067 -0.367,-0.133 -0.8,-0.2 l 0.8,0.7 c 0.366,0.234 0.566,0.384 0.599,0.45 z"
   id="path169"
   inkscape:connector-curvature="0" />
		<path
   style="clip-rule:evenodd;fill:#ebaa91;fill-rule:evenodd"
   d="M 53.25,-8.2 53.7,-8.35 C 53.733,-8.717 53.633,-8.933 53.4,-9 L 52,-9.3 c 0.167,0.1 0.4,0.316 0.7,0.65 0.366,0.233 0.55,0.383 0.55,0.45 z"
   id="path171"
   inkscape:connector-curvature="0" />
		<path
   style="clip-rule:evenodd;fill:#ebaa91;fill-rule:evenodd"
   d="m 54.75,-6.35 c -0.6,-0.067 -1.05,-0.083 -1.35,-0.05 -0.333,0 -0.533,0.05 -0.6,0.15 0.667,0.6 1.1,0.934 1.3,1 l 0.55,0.15 c 0.2,-0.034 0.333,-0.184 0.4,-0.45 0.066,-0.267 0.05,-0.467 -0.05,-0.6 z"
   id="path173"
   inkscape:connector-curvature="0" />
		<path
   style="clip-rule:evenodd;fill:#ebaa91;fill-rule:evenodd"
   d="m 54.149,-3.85 c 0.064,-0.097 0.156,-0.238 0.275,-0.425 -0.174,-0.006 -0.433,0.053 -0.775,0.175 l -1.5,0.3 c 0.134,0.167 0.384,0.283 0.75,0.35 0.367,0.033 0.65,0.017 0.85,-0.05 0.167,-0.066 0.301,-0.183 0.4,-0.35 z"
   id="path175"
   inkscape:connector-curvature="0" />
		<path
   style="clip-rule:evenodd;fill:#ebaa91;fill-rule:evenodd"
   d="m 50.95,-2.15 c 0.7,0.2 1.283,0.25 1.75,0.15 0.732,-0.122 1.132,-0.355 1.2,-0.7 -0.366,-0.067 -0.667,-0.067 -0.9,0 z"
   id="path177"
   inkscape:connector-curvature="0" />
		<path
   style="clip-rule:evenodd;fill:#ebaa91;fill-rule:evenodd"
   d="m 51.6,-3.5 c -0.5,-0.033 -0.983,0.034 -1.45,0.2 -0.466,0.2 -0.933,0.35 -1.4,0.45 0.1,0.066 0.267,0.1 0.5,0.1 l 0.95,0.15 c 0.667,0.066 1.05,0.1 1.15,0.1 C 51.783,-2.566 52,-2.833 52,-3.3 Z"
   id="path179"
   inkscape:connector-curvature="0" />
		<path
   style="clip-rule:evenodd;fill:#ebaa91;fill-rule:evenodd"
   d="m 51.1,-5.75 c -0.533,-0.1 -0.883,-0.133 -1.05,-0.1 l -0.8,0.25 c -0.466,0.133 -1.017,0.167 -1.65,0.1 l 2.7,0.35 c 0.8,0.1 1.216,0.15 1.25,0.15 0.533,-0.5 0.65,-0.75 0.35,-0.75 z"
   id="path181"
   inkscape:connector-curvature="0" />
		<path
   style="clip-rule:evenodd;fill:#ebaa91;fill-rule:evenodd"
   d="m 48.25,-4.6 c 0.733,0.133 1.317,0.2 1.75,0.2 0.233,0 0.583,-0.066 1.05,-0.2 z"
   id="path183"
   inkscape:connector-curvature="0" />
		<path
   style="clip-rule:evenodd;fill:#ebaa91;fill-rule:evenodd"
   d="m 48.399,-3.75 c -0.1,-0.066 -0.35,0 -0.75,0.2 L 46.6,-3.2 c 0.133,0.066 0.4,0.1 0.8,0.1 0.2,0.033 0.467,0.017 0.8,-0.05 0.2,-0.033 0.35,-0.1 0.45,-0.2 0.1,-0.134 0.083,-0.267 -0.05,-0.4 z"
   id="path185"
   inkscape:connector-curvature="0" />
		<path
   style="clip-rule:evenodd;fill:#ebaa91;fill-rule:evenodd"
   d="m 44.55,-4.45 c -0.2,0 -0.317,0.017 -0.35,0.05 0.433,0.133 0.933,0.25 1.5,0.35 0.867,0.133 1.3,0.066 1.3,-0.2 z"
   id="path187"
   inkscape:connector-curvature="0" />
		<path
   style="clip-rule:evenodd;fill:#ebaa91;fill-rule:evenodd"
   d="m 45,-5.05 c -0.233,-0.033 -0.6,-0.017 -1.1,0.05 -0.394,0.084 -0.719,0.118 -0.975,0.1 l 1.575,0.15 c 0.1,0 0.233,0.017 0.4,0.05 0.2,0.033 0.333,0.017 0.4,-0.05 l 0.15,-0.2 z"
   id="path189"
   inkscape:connector-curvature="0" />
		<path
   style="clip-rule:evenodd;fill:#ebaa91;fill-rule:evenodd"
   d="m 47.05,-5.3 0.35,0.05 c 0.233,0 0.233,-0.116 0,-0.35 -0.267,-0.233 -0.683,-0.35 -1.25,-0.35 -0.1,0.267 0.2,0.484 0.9,0.65 z"
   id="path191"
   inkscape:connector-curvature="0" />
		<path
   style="clip-rule:evenodd;fill:#ebaa91;fill-rule:evenodd"
   d="m 47.3,-6.5 0.2,0.3 c 0.2,0 0.233,-0.133 0.1,-0.4 -0.167,0 -0.267,0.034 -0.3,0.1 z"
   id="path193"
   inkscape:connector-curvature="0" />
		<path
   style="clip-rule:evenodd;fill:#ebaa91;fill-rule:evenodd"
   d="m 40.6,-6.7 -0.4,0.05 -0.95,0.25 c -0.322,0.088 -0.722,0.088 -1.2,0 0.255,0.068 0.588,0.218 1,0.45 0.033,0 0.316,0.05 0.85,0.15 0.8,0.167 1.2,0.066 1.2,-0.3 z"
   id="path195"
   inkscape:connector-curvature="0" />
		<path
   style="clip-rule:evenodd;fill:#ebaa91;fill-rule:evenodd"
   d="m 38.2,-7.95 c -1.1,-0.167 -1.934,-0.267 -2.5,-0.3 0.1,0.1 0.35,0.233 0.75,0.4 l 1.05,0.55 c 0.833,0.333 1.233,0.316 1.2,-0.05 z"
   id="path197"
   inkscape:connector-curvature="0" />
		<path
   style="clip-rule:evenodd;fill:#ebaa91;fill-rule:evenodd"
   d="m 35.399,-9 c -0.1,-0.1 -0.316,-0.15 -0.65,-0.15 l -0.85,-0.25 c -0.6,-0.1 -0.983,-0.117 -1.15,-0.05 0.4,0.1 0.983,0.25 1.75,0.45 0.067,0 0.284,0.067 0.65,0.2 0.3,0.1 0.45,0.05 0.45,-0.15 z"
   id="path199"
   inkscape:connector-curvature="0" />
		<path
   style="clip-rule:evenodd;fill:#ebaa91;fill-rule:evenodd"
   d="m 35.149,-9.75 0.2,-0.35 c -0.033,-0.467 -0.35,-0.8 -0.95,-1 -0.7,-0.134 -1.183,-0.233 -1.45,-0.3 l 0.3,0.2 0.6,0.5 c 0.501,0.433 0.934,0.75 1.3,0.95 z"
   id="path201"
   inkscape:connector-curvature="0" />
		<path
   style="clip-rule:evenodd;fill:#ebaa91;fill-rule:evenodd"
   d="m 37.25,-9.9 c -0.333,-0.2 -0.533,-0.333 -0.6,-0.4 l -0.6,-0.15 c 0.333,0.3 0.517,0.566 0.55,0.8 l 0.25,0.25 c 0.366,-0.133 0.5,-0.3 0.4,-0.5 z"
   id="path203"
   inkscape:connector-curvature="0" />
		<path
   style="clip-rule:evenodd;fill:#ebaa91;fill-rule:evenodd"
   d="m 36.05,-9.3 1.3,0.6 c 0.467,0.133 0.816,0.2 1.05,0.2 0.233,0.034 0.417,-0.133 0.55,-0.5 l -0.2,-0.15 c -0.233,-0.1 -0.383,-0.233 -0.45,-0.4 L 37.8,-9 Z"
   id="path205"
   inkscape:connector-curvature="0" />
		<path
   style="clip-rule:evenodd;fill:#ebaa91;fill-rule:evenodd"
   d="m 38.55,-9.35 0.25,0.05 c 0.033,-0.233 -0.034,-0.467 -0.2,-0.7 -0.233,-0.233 -0.4,-0.417 -0.5,-0.55 -0.066,-0.1 -0.117,-0.283 -0.15,-0.55 -0.034,-0.267 -0.083,-0.45 -0.15,-0.55 l -0.4,-0.75 c -0.066,-0.133 -0.133,-0.216 -0.2,-0.25 -0.034,0.5 0.167,1.15 0.6,1.95 0.1,0.3 0.15,0.466 0.15,0.5 z"
   id="path207"
   inkscape:connector-curvature="0" />
		<path
   style="clip-rule:evenodd;fill:#ebaa91;fill-rule:evenodd"
   d="m 36.55,-11.05 0.5,0.15 c -0.067,-0.633 -0.284,-1.133 -0.65,-1.5 -0.4,-0.4 -0.683,-0.583 -0.85,-0.55 -0.034,0.1 0.033,0.25 0.2,0.45 0.167,0.267 0.267,0.434 0.3,0.5 l 0.45,0.7 c 0.066,0.1 0.083,0.184 0.05,0.25 z"
   id="path209"
   inkscape:connector-curvature="0" />
		<path
   style="clip-rule:evenodd;fill:#ebaa91;fill-rule:evenodd"
   d="m 35.6,-11.35 v -0.4 c 0.033,-0.233 -0.117,-0.466 -0.45,-0.7 -0.4,-0.434 -0.783,-0.7 -1.15,-0.8 0.067,0.1 0.367,0.434 0.9,1 0.067,0.067 0.2,0.2 0.4,0.4 0.166,0.2 0.266,0.367 0.3,0.5 z"
   id="path211"
   inkscape:connector-curvature="0" />
		<path
   style="clip-rule:evenodd;fill:#ebaa91;fill-rule:evenodd"
   d="m 33.149,-12.75 0.1,0.2 c 0.067,-0.233 -0.05,-0.6 -0.35,-1.1 -0.3,-0.4 -0.667,-0.716 -1.1,-0.95 0.2,0.133 0.433,0.433 0.7,0.9 0.234,0.467 0.451,0.783 0.65,0.95 z"
   id="path213"
   inkscape:connector-curvature="0" />
		<path
   style="clip-rule:evenodd;fill:#ebaa91;fill-rule:evenodd"
   d="m 31.6,-13.8 h 0.2 c 0.066,-0.333 -0.1,-0.6 -0.5,-0.8 z"
   id="path215"
   inkscape:connector-curvature="0" />
		<path
   style="clip-rule:evenodd;fill:#ebaa91;fill-rule:evenodd"
   d="m 31.35,-12.15 c 0.2,0.034 0.383,0.017 0.55,-0.05 0.2,-0.067 0.3,-0.117 0.3,-0.15 0.066,-0.034 0.066,-0.117 0,-0.25 l -0.5,-0.05 c -0.367,-0.066 -0.633,-0.083 -0.8,-0.05 -0.646,0.064 -1.037,0.098 -1.175,0.1 0.391,0.003 0.932,0.154 1.625,0.45 z"
   id="path217"
   inkscape:connector-curvature="0" />
		<path
   style="clip-rule:evenodd;fill:#ebaa91;fill-rule:evenodd"
   d="m 31.7,-10.85 c 0.3,0 0.483,-0.083 0.55,-0.25 0.1,-0.167 0.1,-0.284 0,-0.35 l -0.45,-0.2 c -0.167,0 -0.4,0.117 -0.7,0.35 -0.233,0.233 -0.533,0.35 -0.9,0.35 0.033,0.066 0.183,0.1 0.45,0.1 0.333,0.067 0.683,0.067 1.05,0 z"
   id="path219"
   inkscape:connector-curvature="0" />
		<path
   style="clip-rule:evenodd;fill:#ebaa91;fill-rule:evenodd"
   d="m 33.399,-10.55 c -0.333,-0.066 -0.866,0.017 -1.6,0.25 0.033,0.066 0.133,0.1 0.3,0.1 l 1,0.2 c 0.333,0.067 0.566,0.034 0.7,-0.1 0.133,-0.2 0.1,-0.317 -0.1,-0.35 z"
   id="path221"
   inkscape:connector-curvature="0" />
		<path
   style="clip-rule:evenodd;fill:#ebaa91;fill-rule:evenodd"
   d="m 30.05,-12.15 c -0.3,-0.066 -0.75,0.05 -1.35,0.35 l 1.05,-0.05 c 0.5,0.1 0.767,0.15 0.8,0.15 l 0.05,-0.2 z"
   id="path223"
   inkscape:connector-curvature="0" />
		<path
   style="clip-rule:evenodd;fill:#ebaa91;fill-rule:evenodd"
   d="m 28.85,-14.85 0.75,0.2 c 0.066,-0.233 -0.1,-0.433 -0.5,-0.6 -0.667,-0.2 -1.15,-0.316 -1.45,-0.35 0.6,0.134 0.999,0.384 1.2,0.75 z"
   id="path225"
   inkscape:connector-curvature="0" />
		<path
   style="clip-rule:evenodd;fill:#ebaa91;fill-rule:evenodd"
   d="m 25.85,-15.2 0.3,-0.05 c 0.034,-0.3 -0.083,-0.533 -0.35,-0.7 -0.4,-0.3 -0.784,-0.4 -1.15,-0.3 0.7,0.333 1.1,0.684 1.2,1.05 z"
   id="path227"
   inkscape:connector-curvature="0" />
		<path
   style="clip-rule:evenodd;fill:#ebaa91;fill-rule:evenodd"
   d="m 24.75,-14.8 c -0.233,-0.066 -0.566,0.017 -1,0.25 -0.433,0.216 -0.766,0.316 -1,0.3 0.676,0.066 1.193,0.083 1.55,0.05 0.233,-0.034 0.483,-0.15 0.75,-0.35 L 25,-14.65 Z"
   id="path229"
   inkscape:connector-curvature="0" />
		<path
   style="clip-rule:evenodd;fill:#ebaa91;fill-rule:evenodd"
   d="m 23.75,-15.25 0.45,0.15 c 0.167,-0.1 0.2,-0.2 0.1,-0.3 -0.1,-0.1 -0.217,-0.167 -0.35,-0.2 l -0.95,-0.5 -0.6,-0.1 0.65,0.4 c 0.066,0.033 0.2,0.117 0.4,0.25 0.166,0.1 0.266,0.2 0.3,0.3 z"
   id="path231"
   inkscape:connector-curvature="0" />
		<path
   style="clip-rule:evenodd;fill:#ebaa91;fill-rule:evenodd"
   d="m 21.75,-15.7 c -0.1,-0.167 -0.316,-0.284 -0.65,-0.35 -0.434,-0.133 -0.8,-0.184 -1.1,-0.15 0.367,0.133 0.583,0.25 0.65,0.35 l 0.4,0.3 c 0.2,0.1 0.366,0.133 0.5,0.1 0.066,0 0.15,-0.067 0.25,-0.2 z"
   id="path233"
   inkscape:connector-curvature="0" />
		<path
   style="clip-rule:evenodd;fill:#ebaa91;fill-rule:evenodd"
   d="m 22.2,-15.9 0.4,-0.25 -0.45,-0.3 H 21.9 c -0.366,-0.1 -0.6,-0.133 -0.7,-0.1 l 0.65,0.45 c 0.233,0 0.35,0.067 0.35,0.2 z"
   id="path235"
   inkscape:connector-curvature="0" />
		<path
   style="clip-rule:evenodd;fill:#ebaa91;fill-rule:evenodd"
   d="m 24.149,-16 0.45,0.2 c 0.133,-0.434 -0.333,-0.65 -1.4,-0.65 0.066,0.066 0.25,0.133 0.55,0.2 0.234,0.067 0.367,0.15 0.4,0.25 z"
   id="path237"
   inkscape:connector-curvature="0" />
		<path
   style="clip-rule:evenodd;fill:#ebaa91;fill-rule:evenodd"
   d="m 21.95,-14.8 -1.55,0.55 c 0.6,0.067 1.117,0.017 1.55,-0.15 l 0.7,-0.25 c 0.2,-0.1 0.284,-0.167 0.25,-0.2 0,-0.067 -0.116,-0.1 -0.35,-0.1 -0.234,0 -0.434,0.05 -0.6,0.15 z"
   id="path239"
   inkscape:connector-curvature="0" />
		<path
   style="clip-rule:evenodd;fill:#ebaa91;fill-rule:evenodd"
   d="m 18.35,-15.7 c 0.319,0.062 0.635,0.178 0.95,0.35 0.2,0.1 0.433,0.15 0.7,0.15 l 0.05,-0.1 -0.15,-0.15 z"
   id="path241"
   inkscape:connector-curvature="0" />
		<path
   style="clip-rule:evenodd;fill:#ebaa91;fill-rule:evenodd"
   d="m 19.2,-15 -0.75,0.05 c -0.174,0.029 -0.349,0.029 -0.525,0 0.263,0.049 0.622,0.149 1.075,0.3 h 0.5 l 0.05,-0.4 H 19.5 Z"
   id="path243"
   inkscape:connector-curvature="0" />
		<path
   style="clip-rule:evenodd;fill:#ebaa91;fill-rule:evenodd"
   d="m 16.75,-15.1 0.75,0.3 c 0.133,-0.367 -0.05,-0.55 -0.55,-0.55 -0.633,-0.067 -1.117,-0.05 -1.45,0.05 0.066,0.033 0.483,0.1 1.25,0.2 z"
   id="path245"
   inkscape:connector-curvature="0" />
		<path
   style="clip-rule:evenodd;fill:#ebaa91;fill-rule:evenodd"
   d="m 17.55,-14 c 0.066,-0.066 0.1,-0.183 0.1,-0.35 h -0.4 l -0.65,0.1 c -0.3,0.134 -0.533,0.2 -0.7,0.2 z"
   id="path247"
   inkscape:connector-curvature="0" />
		<path
   style="clip-rule:evenodd;fill:#ebaa91;fill-rule:evenodd"
   d="m 20.5,-14.75 c -0.466,0.333 -0.8,0.517 -1,0.55 0.267,0.1 0.65,0.033 1.15,-0.2 0.5,-0.333 0.667,-0.566 0.5,-0.7 z"
   id="path249"
   inkscape:connector-curvature="0" />
		<path
   style="clip-rule:evenodd;fill:#ebaa91;fill-rule:evenodd"
   d="m 18.75,-14.1 c -0.433,0.233 -0.767,0.366 -1,0.4 0.434,0.066 0.75,0.05 0.95,-0.05 0.333,-0.167 0.517,-0.316 0.55,-0.45 z"
   id="path251"
   inkscape:connector-curvature="0" />
		<path
   style="clip-rule:evenodd;fill:#ebaa91;fill-rule:evenodd"
   d="m 15.05,-14.55 c -0.067,-0.1 -0.333,-0.15 -0.8,-0.15 -0.318,0 -0.576,-0.008 -0.775,-0.025 0.157,0.032 0.349,0.124 0.575,0.275 l 0.75,0.15 c 0.033,0 0.2,-0.066 0.5,-0.2 z"
   id="path253"
   inkscape:connector-curvature="0" />
		<path
   style="clip-rule:evenodd;fill:#ebaa91;fill-rule:evenodd"
   d="m 13.45,-13.85 c -0.2,-0.034 -0.434,0.066 -0.7,0.3 -0.333,0.3 -0.583,0.45 -0.75,0.45 1.2,0.1 1.817,-0.167 1.85,-0.8 H 13.7 Z"
   id="path255"
   inkscape:connector-curvature="0" />
		<path
   style="clip-rule:evenodd;fill:#ebaa91;fill-rule:evenodd"
   d="m 15.55,-13.85 c -0.2,-0.034 -0.517,0.167 -0.95,0.6 -0.3,0.233 -0.5,0.35 -0.6,0.35 0.4,0.1 0.833,0.034 1.3,-0.2 0.233,-0.067 0.383,-0.233 0.45,-0.5 z"
   id="path257"
   inkscape:connector-curvature="0" />
		<path
   style="clip-rule:evenodd;fill:#ebaa91;fill-rule:evenodd"
   d="M 12.649,-14.525 12.6,-14.55 c -0.566,-0.233 -1,-0.383 -1.3,-0.45 l -1.4,-0.2 0.9,0.3 c 0.167,0.067 0.417,0.184 0.75,0.35 0.167,0.066 0.383,0.1 0.65,0.1 0.228,0 0.378,-0.025 0.449,-0.075 l 0.151,0.025 -0.1,-0.1 c -0.009,0.024 -0.025,0.049 -0.051,0.075 z"
   id="path259"
   inkscape:connector-curvature="0" />
		<path
   style="clip-rule:evenodd;fill:#ebaa91;fill-rule:evenodd"
   d="m 11.1,-14.3 -0.65,-0.05 c -0.584,0.032 -1.026,0.032 -1.325,0 0.095,0.018 0.371,0.118 0.825,0.3 0.367,0.133 0.65,0.2 0.85,0.2 0.2,0 0.417,-0.083 0.65,-0.25 0.233,-0.167 0.367,-0.25 0.4,-0.25 z"
   id="path261"
   inkscape:connector-curvature="0" />
		<path
   style="clip-rule:evenodd;fill:#ebaa91;fill-rule:evenodd"
   d="m 8.45,-14.1 c -0.267,-0.067 -0.584,-0.033 -0.95,0.1 -0.566,0.167 -0.883,0.25 -0.95,0.25 l 1.5,0.3 c 0.133,0.033 0.3,0.017 0.5,-0.05 0.233,-0.066 0.366,-0.183 0.4,-0.35 z"
   id="path263"
   inkscape:connector-curvature="0" />
		<path
   style="clip-rule:evenodd;fill:#ebaa91;fill-rule:evenodd"
   d="m 6.5,-15.15 0.9,0.45 c 0.233,0 0.317,-0.067 0.25,-0.2 C 7.616,-15 7.5,-15.05 7.3,-15.05 L 6.4,-15.5 c -0.466,-0.3 -0.75,-0.45 -0.85,-0.45 l 0.6,0.6 c 0.3,0.134 0.416,0.2 0.35,0.2 z"
   id="path265"
   inkscape:connector-curvature="0" />
		<path
   style="clip-rule:evenodd;fill:#ebaa91;fill-rule:evenodd"
   d="m 5.6,-14.75 c -0.833,-0.1 -1.45,-0.2 -1.85,-0.3 l 1,0.6 0.7,0.15 c 0.066,0 0.183,0.017 0.35,0.05 0.167,0.034 0.283,0.017 0.35,-0.05 0.167,-0.167 0.167,-0.283 0,-0.35 z"
   id="path267"
   inkscape:connector-curvature="0" />
		<path
   style="clip-rule:evenodd;fill:#ebaa91;fill-rule:evenodd"
   d="m 3.7,-15.95 v 0.15 c 0.066,-0.434 0,-0.783 -0.2,-1.05 L 3,-17.35 c 0,0.1 0.1,0.366 0.3,0.8 0.099,0.234 0.233,0.434 0.4,0.6 z"
   id="path269"
   inkscape:connector-curvature="0" />
		<path
   style="clip-rule:evenodd;fill:#ebaa91;fill-rule:evenodd"
   d="m 2.25,-16 0.35,-0.1 c 0.033,-0.134 0.017,-0.233 -0.05,-0.3 l -0.3,-0.1 c -0.433,-0.2 -0.833,-0.267 -1.2,-0.2 0.066,0.1 0.283,0.233 0.65,0.4 0.367,0.167 0.55,0.267 0.55,0.3 z"
   id="path271"
   inkscape:connector-curvature="0" />
		<path
   style="clip-rule:evenodd;fill:#ebaa91;fill-rule:evenodd"
   d="M 1.25,-17.35 1,-17.85 c 0.034,-0.134 -0.083,-0.3 -0.35,-0.5 -0.233,-0.3 -0.417,-0.483 -0.55,-0.55 0,0.267 0.217,0.617 0.65,1.05 0.233,0.333 0.399,0.5 0.5,0.5 z"
   id="path273"
   inkscape:connector-curvature="0" />
		<path
   style="clip-rule:evenodd;fill:#ebaa91;fill-rule:evenodd"
   d="m 1.45,-18.2 0.4,0.7 c 0.1,-0.7 -0.017,-1.3 -0.35,-1.8 -0.066,0.167 -0.083,0.35 -0.05,0.55 0,0.3 0,0.483 0,0.55 z"
   id="path275"
   inkscape:connector-curvature="0" />
		<path
   style="clip-rule:evenodd;fill:#ebaa91;fill-rule:evenodd"
   d="m 0.95,-20.25 0.15,0.5 c 0.066,-0.1 0.117,-0.283 0.15,-0.55 0.067,-0.2 0.25,-0.467 0.55,-0.8 -0.167,-0.034 -0.35,0.05 -0.55,0.25 -0.167,0.2 -0.267,0.4 -0.3,0.6 z"
   id="path277"
   inkscape:connector-curvature="0" />
		<path
   style="clip-rule:evenodd;fill:#ebaa91;fill-rule:evenodd"
   d="m 1.5,-21.8 v 0.3 c 0.133,0.034 0.267,-0.017 0.4,-0.15 0.134,-0.1 0.35,-0.167 0.65,-0.2 -0.134,-0.067 -0.317,-0.1 -0.55,-0.1 -0.267,0 -0.434,0.05 -0.5,0.15 z"
   id="path279"
   inkscape:connector-curvature="0" />
		<polygon
   style="clip-rule:evenodd;fill:#ebaa91;fill-rule:evenodd"
   points="3,-22.55 2.649,-22.4 3.899,-22.3 3.5,-22.45 "
   id="polygon281" />
		<path
   style="clip-rule:evenodd;fill:#ebaa91;fill-rule:evenodd"
   d="m 4.5,-22.45 c 0.133,0.033 0.217,0.15 0.25,0.35 0.034,0.267 0.05,0.45 0.05,0.55 0.233,-0.667 0.233,-1 0,-1 z"
   id="path283"
   inkscape:connector-curvature="0" />
		<path
   style="clip-rule:evenodd;fill:#ebaa91;fill-rule:evenodd"
   d="m 4.8,-21 -0.95,-0.1 c 0.333,0.167 0.583,0.25 0.75,0.25 z"
   id="path285"
   inkscape:connector-curvature="0" />
		<path
   style="clip-rule:evenodd;fill:#ebaa91;fill-rule:evenodd"
   d="m 3.149,-20.95 c 0,-0.167 -0.167,-0.3 -0.5,-0.4 0.067,0.133 0.217,0.267 0.45,0.4 z"
   id="path287"
   inkscape:connector-curvature="0" />
		<path
   style="clip-rule:evenodd;fill:#ebaa91;fill-rule:evenodd"
   d="m 3.05,-20.65 c -0.167,-0.066 -0.3,-0.117 -0.4,-0.15 -0.167,-0.066 -0.283,-0.066 -0.35,0 0.066,0.167 0.3,0.283 0.7,0.35 0.3,0.033 0.567,0.017 0.8,-0.05 l -0.15,-0.1 z"
   id="path289"
   inkscape:connector-curvature="0" />
		<path
   style="clip-rule:evenodd;fill:#ebaa91;fill-rule:evenodd"
   d="m 4.399,-20.55 c -0.333,0 -0.633,0.133 -0.9,0.4 0.133,0.067 0.35,0.083 0.65,0.05 0.267,-0.034 0.467,-0.1 0.6,-0.2 0.1,-0.033 0.167,-0.15 0.2,-0.35 z"
   id="path291"
   inkscape:connector-curvature="0" />
		<path
   style="clip-rule:evenodd;fill:#ebaa91;fill-rule:evenodd"
   d="m 5.5,-20.75 c 0,0.333 -0.05,0.567 -0.15,0.7 0.2,-0.033 0.333,-0.25 0.4,-0.65 0.1,-0.633 0,-0.934 -0.3,-0.9 l -0.1,0.55 z"
   id="path293"
   inkscape:connector-curvature="0" />
		<path
   style="clip-rule:evenodd;fill:#ebaa91;fill-rule:evenodd"
   d="m 5.2,-22.9 v 0.35 c 0.033,0.066 0.167,0.167 0.4,0.3 0.233,0.1 0.383,0.134 0.45,0.1 -0.367,-0.433 -0.651,-0.683 -0.85,-0.75 z"
   id="path295"
   inkscape:connector-curvature="0" />
		<path
   style="clip-rule:evenodd;fill:#ebaa91;fill-rule:evenodd"
   d="m 3.899,-23.25 h 1.45 c -0.033,-0.133 -0.283,-0.233 -0.75,-0.3 -0.434,-0.033 -0.684,0 -0.75,0.1 z"
   id="path297"
   inkscape:connector-curvature="0" />
		<path
   style="clip-rule:evenodd;fill:#ebaa91;fill-rule:evenodd"
   d="m 3.2,-23.15 -0.25,-0.1 -0.05,0.2 c 0.367,0.1 0.75,0.15 1.15,0.15 -0.034,-0.166 -0.317,-0.25 -0.85,-0.25 z"
   id="path299"
   inkscape:connector-curvature="0" />
		<path
   style="clip-rule:evenodd;fill:#ebaa91;fill-rule:evenodd"
   d="M 2.2,-23.45 2,-23.1 c 0.233,0.033 0.467,-0.083 0.7,-0.35 0.066,-0.067 0.3,-0.217 0.7,-0.45 -0.267,-0.133 -0.667,0.017 -1.2,0.45 z"
   id="path301"
   inkscape:connector-curvature="0" />
		<path
   style="clip-rule:evenodd;fill:#ebaa91;fill-rule:evenodd"
   d="m 0.95,-22.6 0.4,-0.1 c 0.167,-0.067 0.3,-0.333 0.4,-0.8 l 0.1,-0.55 c -0.434,0.533 -0.734,1.017 -0.9,1.45 z"
   id="path303"
   inkscape:connector-curvature="0" />
		<path
   style="clip-rule:evenodd;fill:#ebaa91;fill-rule:evenodd"
   d="m 0.45,-21.65 0.1,0.45 c 0.033,-0.233 0.1,-0.583 0.2,-1.05 L 0.6,-22.7 Z"
   id="path305"
   inkscape:connector-curvature="0" />
		<path
   style="clip-rule:evenodd;fill:#ebaa91;fill-rule:evenodd"
   d="m 0.35,-20.35 0.35,0.25 c 0.2,-0.3 0.35,-0.634 0.45,-1 0.134,-0.534 0.167,-0.867 0.1,-1 -0.601,0.6 -0.9,1.183 -0.9,1.75 z"
   id="path307"
   inkscape:connector-curvature="0" />
		<path
   style="clip-rule:evenodd;fill:#ebaa91;fill-rule:evenodd"
   d="M 0.35,-20.1 C 0.416,-20.4 0.3,-20.583 0,-20.65 c 0,0.1 0.184,0.467 0.55,1.1 l 0.3,0.4 z"
   id="path309"
   inkscape:connector-curvature="0" />
		<path
   style="clip-rule:evenodd;fill:#8f3c15;fill-rule:evenodd"
   d="m 18.3,-14.7 1.15,0.05 c 0.867,-0.533 1.133,-0.933 0.8,-1.2 -0.233,-0.134 -0.667,-0.25 -1.3,-0.35 -0.733,-0.1 -1.217,-0.167 -1.45,-0.2 -0.633,-0.033 -1.15,-0.066 -1.55,-0.1 -0.733,-0.066 -1.317,-0.233 -1.75,-0.5 -0.5,-0.267 -0.684,-0.75 -0.55,-1.45 0.1,-0.633 0.384,-1.184 0.85,-1.65 0.4,-0.367 0.883,-0.534 1.45,-0.5 0.466,0.033 0.9,0.2 1.3,0.5 0.367,0.267 0.567,0.566 0.6,0.9 0.033,0.367 -0.117,0.667 -0.45,0.9 -0.3,0.2 -0.6,0.184 -0.9,-0.05 l -0.4,-0.35 0.3,-0.3 c 0.167,-0.267 0.25,-0.5 0.25,-0.7 0.034,-0.2 -0.05,-0.25 -0.25,-0.15 -0.267,0.233 -0.466,0.4 -0.6,0.5 -0.233,0.167 -0.284,0.483 -0.15,0.95 0.1,0.467 0.317,0.75 0.65,0.85 0.3,0.066 0.7,-0.017 1.2,-0.25 0.534,-0.267 0.883,-0.55 1.05,-0.85 0.2,-0.4 0.1,-0.933 -0.3,-1.6 -0.5,-0.767 -1.216,-1.15 -2.15,-1.15 -1,-0.033 -1.833,0.3 -2.5,1 -0.6,0.633 -0.9,1.3 -0.9,2 0,0.633 0.183,1.2 0.55,1.7 0.4,0.533 0.867,0.783 1.4,0.75 0.434,0 1.017,0.083 1.75,0.25 0.634,0.167 1,0.25 1.1,0.25 0.266,0 0.533,0.25 0.8,0.75 z"
   id="path311"
   inkscape:connector-curvature="0" />
		<path
   style="clip-rule:evenodd;fill:#c0a60b;fill-rule:evenodd"
   d="m 17,-15.55 c 0.4,0.167 0.767,0.483 1.1,0.95 l 2.45,-0.45 1.6,-1.25 c -0.1,-0.333 -0.767,-0.5 -2,-0.5 -0.6,0.033 -1.05,0.033 -1.35,0 -0.2,-0.066 -0.35,-0.1 -0.45,-0.1 -0.133,-0.033 -0.25,0.017 -0.35,0.15 l 0.2,0.4 c -0.367,-0.1 -0.667,-0.034 -0.9,0.2 0,0.034 0.133,0.184 0.4,0.45 -0.267,-0.1 -0.5,-0.05 -0.7,0.15 z"
   id="path313"
   inkscape:connector-curvature="0" />
		<path
   style="clip-rule:evenodd;fill:#a7810e;fill-rule:evenodd"
   d="m 18.95,-16.35 c 0.767,-0.267 1.533,0 2.3,0.8 l 0.9,-0.75 c -0.1,-0.333 -0.767,-0.5 -2,-0.5 -0.6,0.033 -1.05,0.033 -1.35,0 -0.2,-0.066 -0.35,-0.1 -0.45,-0.1 -0.133,-0.033 -0.25,0.017 -0.35,0.15 l 0.1,0.15 c 0.4,0.067 0.683,0.15 0.85,0.25 z"
   id="path315"
   inkscape:connector-curvature="0" />
		
			<linearGradient
   id="SVGID_2_"
   gradientUnits="userSpaceOnUse"
   x1="2601.4395"
   y1="-18252.555"
   x2="2616.4395"
   y2="-18252.555"
   gradientTransform="rotate(-106.2602,8161.9997,-8171.9988)">
			<stop
   offset="0"
   style="stop-color:#A3481D"
   id="stop317" />
			<stop
   offset="1"
   style="stop-color:#F1814E"
   id="stop319" />
		</linearGradient>
		<path
   style="clip-rule:evenodd;fill:url(#linearGradient1388);fill-rule:evenodd"
   d="m 30.8,-18.6 c -0.034,1.433 0.383,2.767 1.25,4 0.733,1.1 1.566,1.85 2.5,2.25 1.133,0.466 2.816,1.667 5.05,3.6 l 1.6,1 c 0.233,0.067 0.716,0.15 1.45,0.25 0.767,0.1 1.267,0.134 1.5,0.1 1.967,-0.267 3.1,-0.783 3.4,-1.55 0.133,-0.367 0.083,-0.717 -0.15,-1.05 -0.3,-0.4 -0.75,-0.5 -1.35,-0.3 -0.733,0.2 -1.684,0.05 -2.85,-0.45 -1.2,-0.633 -2,-1.017 -2.4,-1.15 -0.7,-0.3 -1.583,-0.833 -2.65,-1.6 -1.267,-0.9 -2.167,-1.7 -2.7,-2.4 -0.6,-0.8 -0.784,-1.75 -0.55,-2.85 0.2,-1.133 0.817,-2.1 1.85,-2.9 1.667,-1.267 4.017,-1.35 7.05,-0.25 1.833,0.667 1.816,2.15 -0.05,4.45 -0.566,0.667 -1.133,1.017 -1.7,1.05 l -0.7,-0.15 0.5,-0.35 c 0.367,-0.267 0.566,-0.517 0.6,-0.75 0.066,-0.3 -0.217,-0.483 -0.85,-0.55 -0.633,-0.1 -1.167,0.033 -1.6,0.4 -0.466,0.4 -0.617,0.917 -0.45,1.55 0.2,0.667 0.733,1.167 1.6,1.5 0.9,0.333 1.867,0.284 2.9,-0.15 1.033,-0.466 1.883,-1.216 2.55,-2.25 0.633,-1 0.95,-2.267 0.95,-3.8 -0.034,-1.467 -0.35,-2.483 -0.95,-3.05 -0.767,-0.667 -2.033,-1.233 -3.8,-1.7 -2.167,-0.567 -4.117,-0.633 -5.85,-0.2 -1.867,0.467 -3.383,1.434 -4.55,2.9 -1.067,1.367 -1.6,2.833 -1.6,4.4 z"
   id="path322"
   inkscape:connector-curvature="0" />
		<path
   style="clip-rule:evenodd;fill:#fff76c;fill-rule:evenodd"
   d="m 39.899,-7.75 0.4,0.45 c 0.433,-0.233 1,-0.217 1.7,0.05 0.867,0.333 1.434,0.5 1.7,0.5 1.233,0 2.316,-0.316 3.25,-0.95 0.6,-0.367 0.966,-0.717 1.1,-1.05 0.133,-0.366 0.05,-0.816 -0.25,-1.35 -0.3,-0.5 -0.617,-0.85 -0.95,-1.05 -0.633,-0.333 -1.083,-0.617 -1.35,-0.85 0.434,0.833 0.684,1.3 0.75,1.4 l -2.1,-0.4 c -0.8,-0.066 -1.366,-0.15 -1.7,-0.25 -0.633,-0.133 -1.083,-0.316 -1.35,-0.55 -0.467,-0.6 -0.85,-1.017 -1.15,-1.25 -0.5,-0.5 -0.867,-0.733 -1.1,-0.7 0.066,0.3 0.283,0.784 0.65,1.45 0.034,0.066 0.267,0.333 0.7,0.8 0.3,0.333 0.433,0.617 0.4,0.85 l -1,-0.5 c -0.4,-0.2 -0.75,-0.183 -1.05,0.05 0.033,0.167 0.167,0.417 0.4,0.75 0.2,0.3 0.316,0.55 0.35,0.75 -0.467,-0.267 -0.817,-0.483 -1.05,-0.65 -0.433,-0.3 -0.667,-0.466 -0.7,-0.5 -0.8,-0.5 -1.3,-0.616 -1.5,-0.35 0.3,0.2 0.866,0.683 1.7,1.45 0.1,0.1 0.5,0.383 1.2,0.85 0.567,0.367 0.884,0.717 0.95,1.05 z"
   id="path324"
   inkscape:connector-curvature="0" />
		<path
   style="clip-rule:evenodd;fill:#e1d801;fill-rule:evenodd"
   d="m 39.649,-8.25 1.4,0.8 c 0.167,0 0.483,0.066 0.95,0.2 -0.466,-0.5 -0.783,-0.9 -0.95,-1.2 l 2.1,1.6 0.1,0.05 0.45,0.05 0.5,-0.05 -0.75,-0.95 c 0.033,-0.033 0.133,0 0.3,0.1 l 0.251,0.1 0.05,0.05 0.85,0.35 0.6,0.1 0.4,-0.15 -2.55,-1.85 C 42.817,-9.417 42.433,-9.633 42.2,-9.7 L 41.4,-10 c 0.5,0.034 1.184,0.15 2.05,0.35 1.267,0.3 1.95,0.467 2.05,0.5 l -0.35,-0.2 c -0.733,-0.5 -1.3,-0.833 -1.7,-1 l -1,-0.4 c -0.333,-0.167 -0.6,-0.35 -0.8,-0.55 l -0.45,-0.45 -0.2,-0.1 -0.3,-0.3 c -0.267,-0.4 -0.517,-0.7 -0.75,-0.9 l -0.3,-0.25 0.3,0.65 c 0.367,0.5 0.633,0.9 0.8,1.2 l 0.6,1 c -0.367,0.033 -0.633,0.066 -0.8,0.1 -0.367,-0.034 -0.634,0 -0.8,0.1 -0.133,0.067 -0.133,0.233 0,0.5 l 0.15,0.45 c 0.134,0.267 0.184,0.434 0.15,0.5 l -0.8,-0.45 -1.7,-1.15 c -0.134,-0.133 -0.25,-0.2 -0.35,-0.2 -0.133,0 -0.233,0.066 -0.3,0.2 l 0.85,0.75 c 0.133,0.133 0.45,0.35 0.95,0.65 0.466,0.3 0.783,0.55 0.949,0.75 z"
   id="path326"
   inkscape:connector-curvature="0" />
		
			<linearGradient
   id="SVGID_3_"
   gradientUnits="userSpaceOnUse"
   x1="12877.163"
   y1="2331.9746"
   x2="12888.701"
   y2="2331.9746"
   gradientTransform="matrix(0.3575,0.9339,-0.9339,0.3575,-2387.9873,-12872.808)">
			<stop
   offset="0.0078"
   style="stop-color:#5D6F1C"
   id="stop328" />
			<stop
   offset="1"
   style="stop-color:#8FA72F"
   id="stop330" />
		</linearGradient>
		<polygon
   style="clip-rule:evenodd;fill:url(#linearGradient1390);fill-rule:evenodd"
   points="40.3,-7.3 40.5,-7.4 39.8,-8 39.899,-7.75 "
   id="polygon333" />
		<polygon
   style="clip-rule:evenodd;fill:#c0a60b;fill-rule:evenodd"
   points="41.05,-7.45 39.649,-8.25 39.8,-8 40.5,-7.4 "
   id="polygon335" />
		<path
   style="clip-rule:evenodd;fill:#c0a60b;fill-rule:evenodd"
   d="m 43.149,-6.85 -2.1,-1.6 c 0.167,0.3 0.483,0.7 0.95,1.2 l 1.25,0.45 z"
   id="path337"
   inkscape:connector-curvature="0" />
		<path
   style="clip-rule:evenodd;fill:#c0a60b;fill-rule:evenodd"
   d="m 45.5,-12 0.5,1 0.65,-0.25 C 45.983,-11.683 45.6,-11.933 45.5,-12 Z"
   id="path339"
   inkscape:connector-curvature="0" />
		<path
   style="clip-rule:evenodd;fill:#c0a60b;fill-rule:evenodd"
   d="m 45.899,-7.2 0.45,-0.2 c -0.033,-0.066 -0.184,-0.233 -0.45,-0.5 -0.466,-0.4 -0.917,-0.733 -1.35,-1 0.167,0.034 0.517,0.167 1.05,0.4 0.434,0.2 0.783,0.3 1.05,0.3 0.267,0 0.467,-0.3 0.6,-0.9 0.1,-0.5 -0.033,-0.867 -0.4,-1.1 l -1.2,-0.5 -1.5,-0.3 c -0.8,-0.066 -1.366,-0.15 -1.7,-0.25 -0.567,-0.133 -0.983,-0.3 -1.25,-0.5 l 0.45,0.45 c 0.2,0.2 0.467,0.383 0.8,0.55 l 1,0.4 c 0.4,0.167 0.966,0.5 1.7,1 l 0.35,0.2 c -0.1,-0.033 -0.783,-0.2 -2.05,-0.5 -0.867,-0.2 -1.55,-0.316 -2.05,-0.35 l 0.8,0.3 c 0.233,0.066 0.617,0.283 1.15,0.65 z"
   id="path341"
   inkscape:connector-curvature="0" />
		<path
   style="clip-rule:evenodd;fill:#78520a;fill-rule:evenodd"
   d="m 44.55,-8.9 c 0.433,0.267 0.883,0.6 1.35,1 0.267,0.267 0.417,0.434 0.45,0.5 l 0.6,-0.3 c 0.6,-0.367 0.966,-0.717 1.1,-1.05 0.133,-0.366 0.05,-0.816 -0.25,-1.35 -0.3,-0.5 -0.617,-0.85 -0.95,-1.05 l -0.2,-0.1 -0.65,0.25 0.25,0.4 -0.6,-0.1 1.2,0.5 c 0.367,0.233 0.5,0.6 0.4,1.1 -0.133,0.6 -0.333,0.9 -0.6,0.9 -0.267,0 -0.616,-0.1 -1.05,-0.3 -0.534,-0.233 -0.884,-0.366 -1.05,-0.4 z"
   id="path343"
   inkscape:connector-curvature="0" />
		<path
   style="clip-rule:evenodd;fill:#ebaa91;fill-rule:evenodd"
   d="m 36.2,-11.45 0.1,-0.05 c -0.067,-0.167 -0.184,-0.267 -0.35,-0.3 -0.1,-0.033 -0.284,-0.017 -0.55,0.05 -0.5,0.134 -0.933,0.3 -1.3,0.5 0.033,0 0.167,-0.033 0.4,-0.1 l 0.7,-0.1 c 0.233,-0.033 0.566,-0.033 1,0 z"
   id="path345"
   inkscape:connector-curvature="0" />
		<path
   style="clip-rule:evenodd;fill:#ebaa91;fill-rule:evenodd"
   d="M 36.3,-12.075 V -12.5 c -0.233,-0.533 -0.467,-0.883 -0.7,-1.05 -0.533,-0.367 -0.883,-0.533 -1.05,-0.5 0.033,0.066 0.333,0.383 0.9,0.95 0.513,0.513 0.796,0.855 0.85,1.025 z"
   id="path347"
   inkscape:connector-curvature="0" />
		<path
   style="clip-rule:evenodd;fill:#ebaa91;fill-rule:evenodd"
   d="m 37.45,-13.3 1.15,1.05 c -0.1,-0.233 -0.184,-0.6 -0.25,-1.1 -0.233,-0.5 -0.383,-0.95 -0.45,-1.35 0,-0.4 -0.017,-0.633 -0.05,-0.7 -0.1,0.233 -0.233,0.717 -0.4,1.45 z"
   id="path349"
   inkscape:connector-curvature="0" />
		<path
   style="clip-rule:evenodd;fill:#ebaa91;fill-rule:evenodd"
   d="m 37.25,-12.35 0.8,0.6 c -0.267,-0.7 -0.567,-1.333 -0.9,-1.9 -0.366,-0.733 -0.6,-1.133 -0.7,-1.2 -0.067,0.3 -0.05,0.566 0.05,0.8 0.067,0.3 0.25,0.75 0.55,1.35 z"
   id="path351"
   inkscape:connector-curvature="0" />
		<path
   style="clip-rule:evenodd;fill:#ebaa91;fill-rule:evenodd"
   d="m 36.05,-15.8 c -0.256,-1.054 -0.248,-1.787 0.025,-2.2 -0.318,0.455 -0.493,0.955 -0.525,1.5 -0.067,0.434 -0.05,0.767 0.05,1 l 0.55,0.6 c 0.133,-0.1 0.1,-0.4 -0.1,-0.9 z"
   id="path353"
   inkscape:connector-curvature="0" />
		<path
   style="clip-rule:evenodd;fill:#ebaa91;fill-rule:evenodd"
   d="m 32,-16.95 c -0.233,0 -0.417,-0.034 -0.55,-0.1 0.4,0.4 0.583,0.6 0.55,0.6 l 0.85,0.8 c 0.2,0.133 0.35,0.3 0.45,0.5 l 0.3,0.2 c -0.033,-0.434 -0.333,-0.934 -0.9,-1.5 -0.234,-0.233 -0.467,-0.4 -0.7,-0.5 z"
   id="path355"
   inkscape:connector-curvature="0" />
		<path
   style="clip-rule:evenodd;fill:#ebaa91;fill-rule:evenodd"
   d="m 31.45,-14.25 0.65,0.4 c 0.5,0.3 0.867,0.4 1.1,0.3 -0.1,-0.367 -0.217,-0.6 -0.35,-0.7 L 32.7,-14.4 c -0.567,-0.3 -1.1,-0.35 -1.6,-0.15 l -0.45,0.2 c 0.211,-0.067 0.477,-0.034 0.8,0.1 z"
   id="path357"
   inkscape:connector-curvature="0" />
		<path
   style="clip-rule:evenodd;fill:#ebaa91;fill-rule:evenodd"
   d="m 33.649,-13.55 c -0.667,0.167 -1.133,0.333 -1.4,0.5 0.034,0.033 0.284,0.05 0.751,0.05 l 0.9,0.35 c 0.2,0.1 0.317,0.067 0.35,-0.1 0.034,-0.167 -0.033,-0.283 -0.2,-0.35 z"
   id="path359"
   inkscape:connector-curvature="0" />
		<path
   style="clip-rule:evenodd;fill:#ebaa91;fill-rule:evenodd"
   d="m 30.899,-17.3 0.35,0.25 c -0.1,-0.3 -0.233,-0.75 -0.4,-1.35 -0.133,-0.333 -0.45,-0.533 -0.95,-0.6 -0.033,0.067 0.05,0.217 0.25,0.45 0.1,0.1 0.233,0.25 0.4,0.45 z"
   id="path361"
   inkscape:connector-curvature="0" />
		<path
   style="clip-rule:evenodd;fill:#ebaa91;fill-rule:evenodd"
   d="m 30.95,-19.9 0.35,0.35 c -0.134,-0.267 -0.217,-0.7 -0.25,-1.3 -0.267,-0.733 -0.534,-1.15 -0.8,-1.25 l 0.4,1.1 c 0.066,0.5 0.166,0.867 0.3,1.1 z"
   id="path363"
   inkscape:connector-curvature="0" />
		<path
   style="clip-rule:evenodd;fill:#ebaa91;fill-rule:evenodd"
   d="m 32.1,-18.75 0.4,0.7 c 0.133,-0.033 0.233,-0.133 0.3,-0.3 L 32.7,-19 c 0,-0.033 -0.1,-0.35 -0.3,-0.95 -0.167,-0.367 -0.233,-0.684 -0.2,-0.95 -0.367,0.667 -0.4,1.383 -0.1,2.15 z"
   id="path365"
   inkscape:connector-curvature="0" />
		<path
   style="clip-rule:evenodd;fill:#ebaa91;fill-rule:evenodd"
   d="m 32.95,-17.6 0.5,0.6 c 0.033,0 0.1,0.1 0.2,0.3 0.067,0.1 0.167,0.133 0.3,0.1 0.133,-0.1 0.167,-0.3 0.1,-0.6 L 34,-17.75 c 0,-0.2 -0.033,-0.483 -0.1,-0.85 l 0.35,-0.95 c -0.333,0.066 -0.667,0.434 -1,1.1 -0.133,0.167 -0.216,0.367 -0.25,0.6 z"
   id="path367"
   inkscape:connector-curvature="0" />
		<path
   style="clip-rule:evenodd;fill:#ebaa91;fill-rule:evenodd"
   d="m 35,-15.9 0.05,-1 0.25,-1.55 c -0.567,0.533 -0.833,1.083 -0.8,1.65 z"
   id="path369"
   inkscape:connector-curvature="0" />
		<path
   style="clip-rule:evenodd;fill:#ebaa91;fill-rule:evenodd"
   d="m 34.8,-19.65 0.3,0.65 c 0.167,-0.433 0.333,-0.716 0.5,-0.85 0.467,-0.467 0.833,-0.767 1.1,-0.9 -0.1,-0.033 -0.3,-0.017 -0.6,0.05 -0.467,0.2 -0.733,0.316 -0.8,0.35 -0.234,0.2 -0.401,0.433 -0.5,0.7 z"
   id="path371"
   inkscape:connector-curvature="0" />
		<path
   style="clip-rule:evenodd;fill:#ebaa91;fill-rule:evenodd"
   d="m 32,-22.4 -0.1,1 c 0.434,-0.333 0.617,-0.816 0.55,-1.45 0,-0.634 -0.167,-1.05 -0.5,-1.25 0.066,0.4 0.1,0.683 0.1,0.85 -0.134,0.367 -0.151,0.65 -0.05,0.85 z"
   id="path373"
   inkscape:connector-curvature="0" />
		<path
   style="clip-rule:evenodd;fill:#ebaa91;fill-rule:evenodd"
   d="m 32.899,-21.6 -0.05,0.8 c 0.1,0.2 0.3,0.167 0.6,-0.1 0.233,-0.2 0.4,-0.4 0.5,-0.6 0.133,-0.233 0.3,-0.667 0.5,-1.3 0.2,-0.566 0.3,-0.883 0.3,-0.95 -1.066,0.8 -1.683,1.517 -1.85,2.15 z"
   id="path375"
   inkscape:connector-curvature="0" />
		<path
   style="clip-rule:evenodd;fill:#ebaa91;fill-rule:evenodd"
   d="m 34,-20.85 0.35,0.3 c 0.533,-0.2 0.867,-0.383 1,-0.55 0.066,-0.1 0.184,-0.3 0.35,-0.6 0.1,-0.233 0.216,-0.4 0.35,-0.5 l -1.3,0.65 -0.5,0.5 c -0.034,0.133 -0.117,0.2 -0.25,0.2 z"
   id="path377"
   inkscape:connector-curvature="0" />
		<path
   style="clip-rule:evenodd;fill:#ebaa91;fill-rule:evenodd"
   d="m 33.5,-24.2 0.5,-0.15 c 0.367,-0.3 0.583,-0.517 0.65,-0.65 l 0.1,-0.45 v -1 c -0.1,0.133 -0.183,0.333 -0.25,0.6 -0.1,0.333 -0.183,0.566 -0.25,0.7 -0.4,0.6 -0.65,0.917 -0.75,0.95 z"
   id="path379"
   inkscape:connector-curvature="0" />
		<path
   style="clip-rule:evenodd;fill:#ebaa91;fill-rule:evenodd"
   d="m 35.35,-24.7 -0.15,0.4 c 0.533,-0.1 0.816,-0.15 0.85,-0.15 0.167,-0.034 0.35,-0.15 0.55,-0.35 0.533,-0.6 0.816,-1.133 0.85,-1.6 -0.5,0.434 -0.85,0.7 -1.05,0.8 -0.7,0.467 -1.05,0.767 -1.05,0.9 z"
   id="path381"
   inkscape:connector-curvature="0" />
		<path
   style="clip-rule:evenodd;fill:#ebaa91;fill-rule:evenodd"
   d="m 35.399,-23.45 -0.15,0.9 c 0.133,0.066 0.383,-0.017 0.75,-0.25 l 0.9,-0.6 c 0.167,-0.133 0.4,-0.4 0.7,-0.8 0.233,-0.367 0.45,-0.617 0.65,-0.75 l -1.35,0.6 c -0.699,0.5 -1.199,0.8 -1.5,0.9 z"
   id="path383"
   inkscape:connector-curvature="0" />
		<path
   style="clip-rule:evenodd;fill:#ebaa91;fill-rule:evenodd"
   d="m 36.55,-21.9 c -0.134,0.034 -0.167,0.117 -0.1,0.25 0.033,0.133 0.1,0.217 0.2,0.25 0.067,0.034 0.3,-0.017 0.7,-0.15 l 1.05,-0.4 c 0.2,-0.067 0.534,-0.167 1,-0.3 -0.033,-0.1 -0.167,-0.183 -0.4,-0.25 -0.267,-0.033 -0.433,-0.05 -0.5,-0.05 l -0.9,-0.15 c -0.566,0 -0.867,0.133 -0.9,0.4 z"
   id="path385"
   inkscape:connector-curvature="0" />
		<path
   style="clip-rule:evenodd;fill:#ebaa91;fill-rule:evenodd"
   d="m 37.85,-25.45 0.45,0.35 c 0.533,-0.2 0.9,-0.417 1.1,-0.65 0.434,-0.466 0.55,-1.017 0.35,-1.65 -0.267,0.434 -0.466,0.733 -0.6,0.9 -0.767,0.367 -1.2,0.717 -1.3,1.05 z"
   id="path387"
   inkscape:connector-curvature="0" />
		<path
   style="clip-rule:evenodd;fill:#ebaa91;fill-rule:evenodd"
   d="m 38.6,-23.7 -0.15,0.1 c 0.066,0.3 0.483,0.4 1.25,0.3 0.133,-0.033 0.4,-0.066 0.8,-0.1 0.367,-0.033 0.633,-0.1 0.8,-0.2 -0.034,-0.1 -0.2,-0.2 -0.5,-0.3 -0.267,-0.1 -0.467,-0.15 -0.6,-0.15 -0.7,-0.133 -1.234,-0.016 -1.6,0.35 z"
   id="path389"
   inkscape:connector-curvature="0" />
		<path
   style="clip-rule:evenodd;fill:#ebaa91;fill-rule:evenodd"
   d="m 42.1,-22 0.15,-0.05 c -0.2,-0.3 -0.5,-0.517 -0.9,-0.65 -0.467,-0.167 -0.7,-0.15 -0.7,0.05 -0.033,0.167 0.217,0.317 0.75,0.45 z"
   id="path391"
   inkscape:connector-curvature="0" />
		<path
   style="clip-rule:evenodd;fill:#ebaa91;fill-rule:evenodd"
   d="m 40.55,-25.55 -1.25,0.95 0.65,-0.05 c 0.267,0 0.533,-0.083 0.8,-0.25 0.2,-0.066 0.483,-0.216 0.85,-0.45 0.233,-0.2 0.417,-0.4 0.55,-0.6 0.134,-0.133 0.167,-0.3 0.1,-0.5 -0.233,0.033 -0.517,0.167 -0.85,0.4 -0.4,0.267 -0.684,0.434 -0.85,0.5 z"
   id="path393"
   inkscape:connector-curvature="0" />
		<path
   style="clip-rule:evenodd;fill:#ebaa91;fill-rule:evenodd"
   d="m 42.25,-24.55 -0.3,0.25 c 0.033,0.133 0.233,0.167 0.6,0.1 0.167,0 0.45,-0.067 0.85,-0.2 0.9,-0.333 1.417,-0.7 1.55,-1.1 l -1,0.4 c -0.833,0.133 -1.417,0.3 -1.75,0.5 z"
   id="path395"
   inkscape:connector-curvature="0" />
		<path
   style="clip-rule:evenodd;fill:#ebaa91;fill-rule:evenodd"
   d="m 43.5,-25.55 0.6,-0.825 c -0.056,0.063 -0.189,0.154 -0.4,0.275 l -1.1,0.4 -0.45,0.6 0.7,-0.15 c 0.266,-0.066 0.483,-0.167 0.65,-0.3 z"
   id="path397"
   inkscape:connector-curvature="0" />
		<path
   style="clip-rule:evenodd;fill:#ebaa91;fill-rule:evenodd"
   d="m 41.95,-23.2 0.25,0.5 0.5,0.25 0.15,0.15 0.1,0.05 c 0.1,0.067 0.3,0.25 0.6,0.55 -0.067,-0.534 -0.284,-0.95 -0.65,-1.25 -0.367,-0.433 -0.684,-0.516 -0.95,-0.25 z"
   id="path399"
   inkscape:connector-curvature="0" />
		<path
   style="clip-rule:evenodd;fill:#ebaa91;fill-rule:evenodd"
   d="m 44,-23.6 0.2,0.25 c 0.367,0.133 0.85,0.083 1.45,-0.15 0.167,-0.1 0.384,-0.283 0.65,-0.55 -0.5,0.234 -1.267,0.383 -2.3,0.45 z"
   id="path401"
   inkscape:connector-curvature="0" />
		<path
   style="clip-rule:evenodd;fill:#ebaa91;fill-rule:evenodd"
   d="m 45.05,-24.65 -0.2,0.3 c 0.2,-0.034 0.467,-0.067 0.8,-0.1 l 0.45,-0.15 c 0.467,-0.3 0.75,-0.517 0.85,-0.65 -0.133,-0.066 -0.45,0.034 -0.95,0.3 z"
   id="path403"
   inkscape:connector-curvature="0" />
		<path
   style="clip-rule:evenodd;fill:#ebaa91;fill-rule:evenodd"
   d="m 46.35,-23.4 0.3,0.65 c 0.134,0.067 0.35,0.1 0.65,0.1 0.3,0.034 0.5,0.017 0.6,-0.05 0,-0.1 -0.133,-0.184 -0.4,-0.25 -0.333,-0.2 -0.566,-0.383 -0.7,-0.55 -0.134,-0.2 -0.25,-0.283 -0.35,-0.25 -0.067,0.034 -0.117,0.083 -0.15,0.15 0,0.067 0.016,0.134 0.05,0.2 z"
   id="path405"
   inkscape:connector-curvature="0" />
		<path
   style="clip-rule:evenodd;fill:#ebaa91;fill-rule:evenodd"
   d="m 47,-20.85 0.9,1.8 c -0.066,-1.066 -0.3,-1.967 -0.7,-2.7 -0.367,0.034 -0.434,0.333 -0.2,0.9 z"
   id="path407"
   inkscape:connector-curvature="0" />
		<path
   style="clip-rule:evenodd;fill:#ebaa91;fill-rule:evenodd"
   d="m 46.7,-18.6 0.2,1.7 c 0.367,-0.466 0.467,-1.033 0.3,-1.7 0,-0.233 -0.067,-0.417 -0.2,-0.55 -0.1,-0.133 -0.167,-0.1 -0.2,0.1 0,0.267 -0.034,0.417 -0.1,0.45 z"
   id="path409"
   inkscape:connector-curvature="0" />
		<path
   style="clip-rule:evenodd;fill:#ebaa91;fill-rule:evenodd"
   d="m 45.75,-16.85 -0.1,1.3 c 0.733,-0.4 0.967,-0.9 0.7,-1.5 -0.167,-0.367 -0.367,-0.3 -0.6,0.2 z"
   id="path411"
   inkscape:connector-curvature="0" />
		<path
   style="clip-rule:evenodd;fill:#ebaa91;fill-rule:evenodd"
   d="m 45.05,-20.4 -0.3,1.85 0.6,-0.9 0.25,-0.7 -0.15,-0.45 C 45.317,-20.9 45.166,-21 45,-20.9 Z"
   id="path413"
   inkscape:connector-curvature="0" />
		<path
   style="clip-rule:evenodd;fill:#ebaa91;fill-rule:evenodd"
   d="m 44.95,-18 -0.65,1.7 c 1.2,-0.934 1.616,-1.667 1.25,-2.2 -0.1,0.034 -0.3,0.2 -0.6,0.5 z"
   id="path415"
   inkscape:connector-curvature="0" />
		<path
   style="clip-rule:evenodd;fill:#ebaa91;fill-rule:evenodd"
   d="m 45.649,-21.55 0.65,1.4 c 0.033,-0.466 -0.05,-0.9 -0.25,-1.3 -0.267,-0.567 -0.434,-0.85 -0.5,-0.85 -0.2,-0.066 -0.233,0.05 -0.1,0.35 0.167,0.267 0.234,0.4 0.2,0.4 z"
   id="path417"
   inkscape:connector-curvature="0" />
		<path
   style="clip-rule:evenodd;fill:#ebaa91;fill-rule:evenodd"
   d="m 43.35,-16.5 -2.1,0.65 c 0.8,0.167 1.45,0.116 1.95,-0.15 0.466,-0.233 0.667,-0.433 0.6,-0.6 -0.1,-0.133 -0.25,-0.1 -0.45,0.1 z"
   id="path419"
   inkscape:connector-curvature="0" />
		<path
   style="clip-rule:evenodd;fill:#ebaa91;fill-rule:evenodd"
   d="m 43.45,-15.4 -1.6,0.5 c 0.533,0.133 1,0.15 1.4,0.05 l 0.7,-0.35 c 0.033,-0.133 -0.017,-0.217 -0.15,-0.25 -0.1,-0.033 -0.217,-0.016 -0.35,0.05 z"
   id="path421"
   inkscape:connector-curvature="0" />
		<path
   style="clip-rule:evenodd;fill:#ebaa91;fill-rule:evenodd"
   d="m 40.899,-15.2 -0.1,-0.25 -0.4,0.15 c -0.366,0.066 -0.683,-0.033 -0.95,-0.3 0.1,0.2 0.316,0.383 0.65,0.55 0.234,0.067 0.501,0.017 0.8,-0.15 z"
   id="path423"
   inkscape:connector-curvature="0" />
		<path
   style="clip-rule:evenodd;fill:#ebaa91;fill-rule:evenodd"
   d="m 39.75,-16.35 0.2,-0.25 c -0.034,0 -0.367,-0.217 -1,-0.65 0.1,0.3 0.366,0.6 0.8,0.9 z"
   id="path425"
   inkscape:connector-curvature="0" />
		<path
   style="clip-rule:evenodd;fill:#ebaa91;fill-rule:evenodd"
   d="m 40.05,-17.05 v -0.05 c 0.167,-0.2 0.216,-0.367 0.15,-0.5 -0.1,-0.5 -0.15,-0.767 -0.15,-0.8 -0.134,0.034 -0.2,0.317 -0.2,0.85 0,0.234 0.066,0.4 0.2,0.5 z"
   id="path427"
   inkscape:connector-curvature="0" />
		<path
   style="clip-rule:evenodd;fill:#ebaa91;fill-rule:evenodd"
   d="M 40.45,-17.4 41,-17.75 c 0.067,-0.1 0.184,-0.333 0.35,-0.7 0.063,-0.115 0.13,-0.207 0.2,-0.275 -0.792,0.503 -1.159,0.944 -1.1,1.325 z"
   id="path429"
   inkscape:connector-curvature="0" />
		<path
   style="clip-rule:evenodd;fill:#ebaa91;fill-rule:evenodd"
   d="m 41.25,-17.65 0.3,0.4 1.2,-1.2 c -0.2,-0.034 -0.466,0.05 -0.8,0.25 -0.334,0.167 -0.567,0.35 -0.7,0.55 z"
   id="path431"
   inkscape:connector-curvature="0" />
		<path
   style="clip-rule:evenodd;fill:#ebaa91;fill-rule:evenodd"
   d="m 41.399,-16.9 -0.6,-0.15 c -0.233,0.1 -0.317,0.25 -0.25,0.45 0.033,0.2 0.167,0.3 0.4,0.3 0.233,0.033 0.5,-0.066 0.8,-0.3 l 0.5,-0.25 c 0.133,-0.167 0.083,-0.25 -0.15,-0.25 -0.133,-0.033 -0.366,0.034 -0.7,0.2 z"
   id="path433"
   inkscape:connector-curvature="0" />
		
			<linearGradient
   id="SVGID_4_"
   gradientUnits="userSpaceOnUse"
   x1="16477.785"
   y1="-193.646"
   x2="16490.488"
   y2="-193.646"
   gradientTransform="matrix(-0.0197,0.9998,-0.9998,-0.0197,152.2222,-16493.254)">
			<stop
   offset="0"
   style="stop-color:#A3481D"
   id="stop435" />
			<stop
   offset="1"
   style="stop-color:#F1814E"
   id="stop437" />
		</linearGradient>
		<path
   style="clip-rule:evenodd;fill:url(#linearGradient1392);fill-rule:evenodd"
   d="m 15.5,-9.05 c -0.8,1.167 -0.95,2.517 -0.45,4.05 0.633,1.967 2.433,2.9 5.4,2.8 2.933,-0.1 4.733,-0.817 5.4,-2.15 0.5,-0.934 0.483,-1.717 -0.05,-2.35 -1.233,-1.367 -2.5,-2.05 -3.8,-2.05 -0.9,0.034 -1.583,0.267 -2.05,0.7 -0.2,0.2 -0.467,0.633 -0.8,1.3 -0.2,0.367 0.034,0.717 0.7,1.05 0.633,0.3 1.2,0.383 1.7,0.25 0.433,-0.133 0.733,-0.3 0.9,-0.5 0.133,-0.2 0.083,-0.333 -0.15,-0.4 -0.134,-0.067 -0.317,-0.034 -0.55,0.1 -0.267,0.134 -0.466,0.184 -0.6,0.15 -0.7,-0.1 -1.05,-0.3 -1.05,-0.6 0,-0.534 0.3,-0.85 0.9,-0.95 1.167,-0.1 1.95,0.05 2.35,0.45 0.167,0.2 0.4,0.417 0.7,0.65 0.2,0.233 0.216,0.566 0.05,1 -0.333,0.9 -1.55,1.383 -3.65,1.45 -0.733,0.033 -1.434,-0.067 -2.1,-0.3 -0.533,-0.233 -0.95,-0.517 -1.25,-0.85 -0.233,-0.267 -0.367,-0.716 -0.4,-1.35 -0.034,-0.634 0.066,-1.117 0.3,-1.45 0.333,-0.533 1.667,-1.233 4,-2.1 0.534,-0.167 1.633,-0.667 3.3,-1.5 -0.067,-0.167 -0.017,-0.333 0.15,-0.5 0.566,-0.4 1.6,-0.7 3.1,-0.9 l 0.25,-0.1 0.15,0.05 h 0.15 v -0.05 c -0.3,-1.2 -1.35,-1.75 -3.15,-1.65 -0.233,0.033 -0.467,0.117 -0.7,0.25 -1.233,1.233 -2.583,2.167 -4.05,2.8 -1.3,0.467 -2.217,0.833 -2.75,1.1 -0.867,0.434 -1.517,0.967 -1.95,1.6 z"
   id="path440"
   inkscape:connector-curvature="0" />
		<path
   style="clip-rule:evenodd;fill:#e1d801;fill-rule:evenodd"
   d="m 28.25,-14.3 c -0.3,-0.5 -0.716,-0.767 -1.25,-0.8 l -1.85,-0.15 c -0.3,0 -0.917,0.117 -1.85,0.35 l 0.1,0.45 c -0.133,-0.034 -0.333,0.083 -0.6,0.35 -0.367,0.366 -0.567,0.55 -0.6,0.55 -0.4,0.333 -0.717,0.55 -0.95,0.65 -0.433,0.133 -0.716,0.3 -0.85,0.5 0.134,0 0.5,-0.083 1.1,-0.25 0.467,-0.1 0.833,-0.133 1.1,-0.1 -0.2,0.1 -0.367,0.25 -0.5,0.45 -0.133,0.3 -0.233,0.517 -0.3,0.65 0.1,0.034 0.316,-0.05 0.65,-0.25 0.328,-0.164 0.544,-0.297 0.65,-0.4 -0.133,0.138 -0.2,0.422 -0.2,0.85 0,0.333 -0.1,0.683 -0.3,1.05 0.267,0.067 0.633,-0.133 1.1,-0.6 0.733,-0.667 1.25,-1.083 1.55,-1.25 0.7,-0.333 1.284,-0.566 1.75,-0.7 l 1.45,-0.1 c 0.066,-0.566 0,-0.983 -0.2,-1.25 z"
   id="path442"
   inkscape:connector-curvature="0" />
		<path
   style="clip-rule:evenodd;fill:#c0a60b;fill-rule:evenodd"
   d="m 23.55,-12.45 -0.2,0.15 -0.15,0.25 -0.05,0.7 c 0.067,-0.1 0.117,-0.167 0.15,-0.2 0.333,-0.133 0.483,-0.333 0.45,-0.6 -0.1,-0.033 -0.216,-0.017 -0.35,0.05 0.067,-0.067 0.233,-0.2 0.5,-0.4 l 1.6,-0.9 c 0.434,-0.3 0.65,-0.483 0.65,-0.55 -0.267,0.033 -0.417,0 -0.45,-0.1 l 0.55,-0.3 0.2,-0.05 v -0.35 c -0.034,-0.133 -0.133,-0.25 -0.3,-0.35 l -0.3,-0.1 -0.7,-0.05 c -0.3,0 -0.917,0.117 -1.85,0.35 l 0.05,0.3 c 0.2,-0.067 0.35,-0.05 0.45,0.05 0.033,0.066 0.066,0.15 0.1,0.25 h 0.15 c 0.5,0 0.783,0.017 0.85,0.05 0.134,0.1 0.134,0.217 0,0.35 -0.133,0.1 -0.483,0.317 -1.05,0.65 -0.467,0.233 -0.717,0.384 -0.75,0.45 l 1.3,-0.5 0.5,-0.1 c -0.233,0.133 -0.4,0.25 -0.5,0.35 -0.4,0.234 -0.684,0.434 -0.85,0.6 z"
   id="path444"
   inkscape:connector-curvature="0" />
		<path
   style="clip-rule:evenodd;fill:#a7810e;fill-rule:evenodd"
   d="m 23.1,-11 -0.05,0.1 -0.2,0.5 0.15,-0.1 1.35,-1.45 c 0.066,-0.067 0.35,-0.267 0.85,-0.6 0.566,-0.434 0.966,-0.7 1.2,-0.8 0.4,-0.2 0.617,-0.35 0.65,-0.45 0.033,-0.267 0.017,-0.617 -0.05,-1.05 l -0.1,-0.25 -1.05,-0.1 0.3,0.1 c 0.167,0.1 0.267,0.216 0.3,0.35 v 0.35 l -0.2,0.05 -0.55,0.3 c 0.033,0.1 0.183,0.133 0.45,0.1 0,0.066 -0.216,0.25 -0.65,0.55 l -1.6,0.9 c -0.267,0.2 -0.433,0.333 -0.5,0.4 0.134,-0.067 0.25,-0.083 0.35,-0.05 0.034,0.267 -0.117,0.467 -0.45,0.6 -0.034,0.033 -0.083,0.1 -0.15,0.2 l -0.05,0.1 z"
   id="path446"
   inkscape:connector-curvature="0" />
		<path
   style="clip-rule:evenodd;fill:#78520a;fill-rule:evenodd"
   d="m 28.45,-13.05 c 0.066,-0.566 0,-0.983 -0.2,-1.25 -0.3,-0.5 -0.716,-0.767 -1.25,-0.8 h -0.1 l 0.1,0.25 c 0.067,0.433 0.083,0.783 0.05,1.05 -0.034,0.1 -0.25,0.25 -0.65,0.45 -0.233,0.1 -0.633,0.366 -1.2,0.8 -0.5,0.333 -0.784,0.533 -0.85,0.6 L 23,-10.5 c 0.2,-0.066 0.434,-0.233 0.7,-0.5 0.733,-0.667 1.25,-1.083 1.55,-1.25 0.7,-0.333 1.284,-0.566 1.75,-0.7 z"
   id="path448"
   inkscape:connector-curvature="0" />
		<path
   style="clip-rule:evenodd;fill:#fff76c;fill-rule:evenodd"
   d="m 22.85,-10.4 0.2,-0.5 0.05,-0.35 0.05,-0.1 0.05,-0.7 0.15,-0.25 c 0.066,-0.133 0.066,-0.25 0,-0.35 -0.1,-0.066 -0.233,-0.017 -0.4,0.15 l -0.65,0.4 c -0.034,-0.1 0.05,-0.25 0.25,-0.45 0.1,-0.167 0.15,-0.316 0.15,-0.45 l -1.35,0.05 -0.1,0.05 c -0.433,0.133 -0.716,0.3 -0.85,0.5 0.134,0 0.5,-0.083 1.1,-0.25 0.467,-0.1 0.833,-0.133 1.1,-0.1 -0.2,0.1 -0.367,0.25 -0.5,0.45 -0.133,0.3 -0.233,0.517 -0.3,0.65 0.1,0.034 0.316,-0.05 0.65,-0.25 0.328,-0.164 0.544,-0.297 0.65,-0.4 -0.133,0.138 -0.2,0.422 -0.2,0.85 0,0.333 -0.1,0.683 -0.3,1.05 z"
   id="path450"
   inkscape:connector-curvature="0" />
		<path
   style="clip-rule:evenodd;fill:#ebaa91;fill-rule:evenodd"
   d="m 21.05,-12.4 c 0,0.167 -0.233,0.267 -0.7,0.3 -0.566,0.066 -0.867,0.116 -0.9,0.15 1,0.267 1.6,0.216 1.8,-0.15 z"
   id="path452"
   inkscape:connector-curvature="0" />
		<path
   style="clip-rule:evenodd;fill:#ebaa91;fill-rule:evenodd"
   d="m 21.6,-11.65 c -0.6,0.4 -1.017,0.617 -1.25,0.65 0.3,0.067 0.566,0.067 0.8,0 0.833,-0.167 1.233,-0.366 1.2,-0.6 z"
   id="path454"
   inkscape:connector-curvature="0" />
		<path
   style="clip-rule:evenodd;fill:#ebaa91;fill-rule:evenodd"
   d="m 22.75,-10.95 0.1,-0.3 c -0.1,-0.167 -0.25,-0.183 -0.45,-0.05 -0.167,0.1 -0.283,0.217 -0.35,0.35 -0.5,0.5 -0.767,0.783 -0.8,0.85 0.167,-0.067 0.417,-0.217 0.75,-0.45 0.266,-0.2 0.516,-0.333 0.75,-0.4 z"
   id="path456"
   inkscape:connector-curvature="0" />
		<path
   style="clip-rule:evenodd;fill:#ebaa91;fill-rule:evenodd"
   d="m 18.899,-11.35 h -1.2 c 0.233,0.167 0.533,0.25 0.9,0.25 0.2,0.033 0.5,0.05 0.9,0.05 0.367,0 0.583,-0.117 0.65,-0.35 l -0.2,-0.1 z"
   id="path458"
   inkscape:connector-curvature="0" />
		<path
   style="clip-rule:evenodd;fill:#ebaa91;fill-rule:evenodd"
   d="m 19.8,-9.75 c 0.4,-0.3 0.583,-0.517 0.55,-0.65 -0.066,-0.133 -0.167,-0.167 -0.3,-0.1 -0.134,0.134 -0.233,0.217 -0.3,0.25 l -0.65,0.9 c 0.166,-0.067 0.4,-0.2 0.7,-0.4 z"
   id="path460"
   inkscape:connector-curvature="0" />
		<path
   style="clip-rule:evenodd;fill:#ebaa91;fill-rule:evenodd"
   d="m 18.55,-10.4 -1.1,0.6 c 0.466,0.066 0.933,0 1.4,-0.2 0.233,-0.133 0.333,-0.316 0.3,-0.55 -0.2,-0.033 -0.4,0.017 -0.6,0.15 z"
   id="path462"
   inkscape:connector-curvature="0" />
		<path
   style="clip-rule:evenodd;fill:#ebaa91;fill-rule:evenodd"
   d="m 15.899,-9.95 c 0.934,0 1.434,-0.2 1.5,-0.6 -0.3,0.133 -0.5,0.217 -0.6,0.25 -0.333,-0.033 -0.583,0 -0.75,0.1 z"
   id="path464"
   inkscape:connector-curvature="0" />
		<path
   style="clip-rule:evenodd;fill:#ebaa91;fill-rule:evenodd"
   d="m 15.3,-9.05 -0.35,0.5 c 0.333,0 0.733,-0.117 1.2,-0.35 0.2,-0.066 0.3,-0.25 0.3,-0.55 L 16,-9.35 c -0.367,0.1 -0.601,0.2 -0.7,0.3 z"
   id="path466"
   inkscape:connector-curvature="0" />
		<path
   style="clip-rule:evenodd;fill:#ebaa91;fill-rule:evenodd"
   d="m 14.75,-7.65 -0.4,1.75 c 0.033,-0.133 0.217,-0.466 0.55,-1 0.233,-0.4 0.333,-0.75 0.3,-1.05 -0.134,-0.067 -0.284,0.033 -0.45,0.3 z"
   id="path468"
   inkscape:connector-curvature="0" />
		<path
   style="clip-rule:evenodd;fill:#ebaa91;fill-rule:evenodd"
   d="m 15.85,-7.65 -0.2,2.15 0.3,-0.65 c 0.233,-0.633 0.367,-1.066 0.4,-1.3 V -8.1 c -0.267,-0.1 -0.434,0.05 -0.5,0.45 z"
   id="path470"
   inkscape:connector-curvature="0" />
		<path
   style="clip-rule:evenodd;fill:#ebaa91;fill-rule:evenodd"
   d="m 17.399,-8.1 -0.15,0.5 c 0.167,-0.233 0.383,-0.617 0.65,-1.15 0.333,-0.333 0.483,-0.55 0.45,-0.65 -0.233,-0.066 -0.434,0.034 -0.6,0.3 -0.033,0.034 -0.149,0.367 -0.35,1 z"
   id="path472"
   inkscape:connector-curvature="0" />
		<path
   style="clip-rule:evenodd;fill:#ebaa91;fill-rule:evenodd"
   d="m 16.55,-5.95 -0.1,0.25 c 0.1,0.033 0.25,0.133 0.45,0.3 0.2,0.133 0.367,0.2 0.5,0.2 -0.033,-0.1 -0.133,-0.3 -0.3,-0.6 -0.1,-0.233 -0.167,-0.45 -0.2,-0.65 -0.234,-0.033 -0.35,0.134 -0.35,0.5 z"
   id="path474"
   inkscape:connector-curvature="0" />
		<path
   style="clip-rule:evenodd;fill:#ebaa91;fill-rule:evenodd"
   d="m 15,-5.9 0.25,0.95 c 0.034,-0.034 0.05,-0.284 0.05,-0.75 l 0.05,-0.5 c 0,-0.067 -0.017,-0.15 -0.05,-0.25 -0.034,-0.067 -0.1,-0.083 -0.2,-0.05 -0.067,0.034 -0.1,0.233 -0.1,0.6 z"
   id="path476"
   inkscape:connector-curvature="0" />
		<path
   style="clip-rule:evenodd;fill:#ebaa91;fill-rule:evenodd"
   d="m 14.95,-5.25 c -0.2,0.1 -0.2,0.35 0,0.75 l 0.2,0.65 c 0.034,0.066 0.05,0.233 0.05,0.5 0.133,-0.733 0.1,-1.167 -0.1,-1.3 z"
   id="path478"
   inkscape:connector-curvature="0" />
		<path
   style="clip-rule:evenodd;fill:#ebaa91;fill-rule:evenodd"
   d="M 15.649,-4.6 15.8,-4 c -0.034,0.467 0.167,0.9 0.6,1.3 -0.033,-0.233 -0.116,-0.567 -0.25,-1 0,-0.6 -0.066,-0.95 -0.2,-1.05 -0.2,-0.133 -0.301,-0.083 -0.301,0.15 z"
   id="path480"
   inkscape:connector-curvature="0" />
		<path
   style="clip-rule:evenodd;fill:#ebaa91;fill-rule:evenodd"
   d="m 16.35,-4.8 0.05,0.3 c 0.134,0.267 0.4,0.434 0.8,0.5 0.433,0.134 0.7,0.167 0.8,0.1 -0.333,-0.267 -0.566,-0.466 -0.7,-0.6 l -0.45,-0.45 c -0.334,-0.266 -0.5,-0.217 -0.5,0.15 z"
   id="path482"
   inkscape:connector-curvature="0" />
		<path
   style="clip-rule:evenodd;fill:#ebaa91;fill-rule:evenodd"
   d="m 17.55,-4.8 0.25,0.2 c 0.167,0.066 0.483,0.066 0.95,0 0.434,0 0.667,-0.017 0.7,-0.05 L 18.2,-4.9 c -0.301,0 -0.517,0.034 -0.65,0.1 z"
   id="path484"
   inkscape:connector-curvature="0" />
		<path
   style="clip-rule:evenodd;fill:#ebaa91;fill-rule:evenodd"
   d="m 16.95,-3.6 0.1,0.4 c 0.366,0.233 0.65,0.367 0.85,0.4 0.267,0.066 0.534,0.066 0.8,0 -0.467,-0.233 -0.8,-0.434 -1,-0.6 -0.4,-0.4 -0.65,-0.466 -0.75,-0.2 z"
   id="path486"
   inkscape:connector-curvature="0" />
		<path
   style="clip-rule:evenodd;fill:#ebaa91;fill-rule:evenodd"
   d="m 19.649,-3.8 v 0.4 c 0.134,-0.1 0.384,-0.267 0.75,-0.5 0.333,-0.233 0.467,-0.483 0.4,-0.75 l -0.35,0.5 c -0.066,0.067 -0.333,0.184 -0.8,0.35 z"
   id="path488"
   inkscape:connector-curvature="0" />
		<path
   style="clip-rule:evenodd;fill:#ebaa91;fill-rule:evenodd"
   d="m 19.3,-2.45 0.25,0.15 c 0.167,0.2 0.55,0.333 1.15,0.4 0.5,0 0.767,-0.017 0.8,-0.05 l -0.55,-0.1 -0.6,-0.35 C 19.883,-2.733 19.533,-2.75 19.3,-2.45 Z"
   id="path490"
   inkscape:connector-curvature="0" />
		<path
   style="clip-rule:evenodd;fill:#ebaa91;fill-rule:evenodd"
   d="M 21.25,-3.2 21.2,-3.25 C 21.066,-3.283 21,-3.233 21,-3.1 c -0.033,0.133 -0.017,0.233 0.05,0.3 0.033,0.033 0.15,0.05 0.35,0.05 0.167,0 0.284,-0.017 0.35,-0.05 0.367,-0.033 0.784,-0.283 1.25,-0.75 -0.367,0.066 -0.633,0.117 -0.8,0.15 z"
   id="path492"
   inkscape:connector-curvature="0" />
		<path
   style="clip-rule:evenodd;fill:#ebaa91;fill-rule:evenodd"
   d="m 22.55,-2.7 -0.3,0.1 c 0.067,0.133 0.317,0.133 0.75,0 0.233,-0.034 0.6,-0.083 1.1,-0.15 -0.333,-0.033 -0.6,-0.05 -0.8,-0.05 -0.334,0 -0.584,0.033 -0.75,0.1 z"
   id="path494"
   inkscape:connector-curvature="0" />
		<path
   style="clip-rule:evenodd;fill:#ebaa91;fill-rule:evenodd"
   d="m 22.399,-4.4 -0.25,0.4 c 0.134,-0.066 0.35,-0.133 0.65,-0.2 0.267,-0.1 0.433,-0.267 0.5,-0.5 0.066,-0.333 0.017,-0.617 -0.15,-0.85 -0.033,0.533 -0.283,0.917 -0.75,1.15 z"
   id="path496"
   inkscape:connector-curvature="0" />
		<path
   style="clip-rule:evenodd;fill:#ebaa91;fill-rule:evenodd"
   d="m 24.55,-3.35 0.1,0.1 h 0.45 l 0.3,-0.15 c 0.067,-0.033 0.217,-0.083 0.45,-0.15 0.2,-0.066 0.3,-0.15 0.3,-0.25 -1.1,-0.133 -1.634,0.017 -1.6,0.45 z"
   id="path498"
   inkscape:connector-curvature="0" />
		<path
   style="clip-rule:evenodd;fill:#ebaa91;fill-rule:evenodd"
   d="m 25.649,-5.3 0.05,0.4 c 0.3,-0.133 0.483,-0.417 0.55,-0.85 0,-0.333 -0.066,-0.55 -0.2,-0.65 -0.034,0.2 -0.067,0.35 -0.1,0.45 10e-4,0.367 -0.099,0.584 -0.3,0.65 z"
   id="path500"
   inkscape:connector-curvature="0" />
		<path
   style="clip-rule:evenodd;fill:#ebaa91;fill-rule:evenodd"
   d="M 24.85,-5.9 25,-5.5 c 0.2,-0.133 0.25,-0.4 0.15,-0.8 -0.133,-0.434 -0.333,-0.633 -0.6,-0.6 0.2,0.4 0.3,0.733 0.3,1 z"
   id="path502"
   inkscape:connector-curvature="0" />
		<path
   style="clip-rule:evenodd;fill:#ebaa91;fill-rule:evenodd"
   d="m 24.55,-7.95 0.6,0.8 c 0.167,-0.233 0.067,-0.533 -0.3,-0.9 -0.167,-0.167 -0.3,-0.283 -0.4,-0.35 -0.167,-0.133 -0.3,-0.183 -0.4,-0.15 0.333,0.234 0.5,0.434 0.5,0.6 z"
   id="path504"
   inkscape:connector-curvature="0" />
		<path
   style="clip-rule:evenodd;fill:#ebaa91;fill-rule:evenodd"
   d="m 23.8,-7.15 c 0,-0.1 -0.167,-0.167 -0.5,-0.2 -0.333,-0.034 -0.534,-0.017 -0.6,0.05 0.133,0.066 0.333,0.233 0.6,0.5 0.267,0.233 0.483,0.4 0.65,0.5 0.2,0.133 0.316,0.117 0.35,-0.05 0.066,-0.2 -0.083,-0.434 -0.45,-0.7 z"
   id="path506"
   inkscape:connector-curvature="0" />
		<path
   style="clip-rule:evenodd;fill:#ebaa91;fill-rule:evenodd"
   d="M 23.35,-8.3 23.7,-8 c 0.033,-0.3 -0.15,-0.533 -0.55,-0.7 -0.466,-0.167 -0.733,-0.2 -0.8,-0.1 l 0.55,0.25 c 0.066,0.033 0.216,0.117 0.45,0.25 z"
   id="path508"
   inkscape:connector-curvature="0" />
		<path
   style="clip-rule:evenodd;fill:#ebaa91;fill-rule:evenodd"
   d="m 22.25,-8.15 -0.05,-0.1 c -0.167,-0.066 -0.383,-0.066 -0.65,0 -0.267,0.034 -0.483,0.134 -0.65,0.3 0.267,0 0.684,0.05 1.25,0.15 0.3,0 0.467,-0.017 0.5,-0.05 0.066,-0.067 0.083,-0.15 0.05,-0.25 0,-0.134 -0.05,-0.2 -0.15,-0.2 z"
   id="path510"
   inkscape:connector-curvature="0" />
		<path
   style="clip-rule:evenodd;fill:#ebaa91;fill-rule:evenodd"
   d="m 20.35,-8.3 h -0.3 c -0.067,0 -0.233,0.1 -0.5,0.3 -0.3,0.233 -0.434,0.367 -0.4,0.4 0.1,-0.034 0.35,-0.067 0.75,-0.1 0.267,0 0.467,-0.083 0.6,-0.25 z"
   id="path512"
   inkscape:connector-curvature="0" />
		<path
   style="clip-rule:evenodd;fill:#ebaa91;fill-rule:evenodd"
   d="m 19.3,-6.85 c -0.134,0.066 -0.217,0.2 -0.25,0.4 -0.034,0.2 -0.017,0.367 0.05,0.5 0.3,-0.467 0.45,-0.75 0.45,-0.85 z"
   id="path514"
   inkscape:connector-curvature="0" />
		<path
   style="clip-rule:evenodd;fill:#ebaa91;fill-rule:evenodd"
   d="m 20,-6.2 0.05,0.3 c 0.033,0.133 0.216,0.217 0.55,0.25 0.267,0.034 0.483,0.017 0.65,-0.05 l -0.4,-0.15 C 20.516,-6.083 20.233,-6.2 20,-6.2 Z"
   id="path516"
   inkscape:connector-curvature="0" />
		<path
   style="clip-rule:evenodd;fill:#ebaa91;fill-rule:evenodd"
   d="m 21.899,-5.9 -0.35,0.25 c 0.267,0 0.517,-0.066 0.75,-0.2 0.3,-0.167 0.433,-0.384 0.4,-0.65 -0.133,0.1 -0.25,0.184 -0.35,0.25 -0.299,0.2 -0.45,0.317 -0.45,0.35 z"
   id="path518"
   inkscape:connector-curvature="0" />
		<path
   style="clip-rule:evenodd;fill:#c48063;fill-rule:evenodd"
   d="m 16.75,-15.55 0.25,-0.2 c -0.1,-0.233 -0.3,-0.283 -0.6,-0.15 -0.3,0.2 -0.5,0.333 -0.6,0.4 0.5,-0.133 0.816,-0.15 0.95,-0.05 z"
   id="path520"
   inkscape:connector-curvature="0" />
		<path
   style="clip-rule:evenodd;fill:#c48063;fill-rule:evenodd"
   d="m 15.35,-16.1 0.1,-0.1 c -0.133,-0.233 -0.367,-0.267 -0.7,-0.1 -0.3,0.133 -0.517,0.316 -0.65,0.55 0.7,-0.1 1.116,-0.216 1.25,-0.35 z"
   id="path522"
   inkscape:connector-curvature="0" />
		<path
   style="clip-rule:evenodd;fill:#c48063;fill-rule:evenodd"
   d="m 14.149,-17 0.35,0.2 c -0.069,-0.07 -0.153,-0.17 -0.25,-0.3 -0.167,-0.333 -0.283,-0.517 -0.35,-0.55 -0.033,0.167 0.051,0.383 0.25,0.65 z"
   id="path524"
   inkscape:connector-curvature="0" />
		<path
   style="clip-rule:evenodd;fill:#c48063;fill-rule:evenodd"
   d="m 13.5,-16.5 0.35,-0.1 c -0.167,-0.233 -0.35,-0.384 -0.55,-0.45 -0.434,-0.133 -0.65,-0.133 -0.65,0 0.133,0.1 0.416,0.283 0.85,0.55 z"
   id="path526"
   inkscape:connector-curvature="0" />
		<path
   style="clip-rule:evenodd;fill:#c48063;fill-rule:evenodd"
   d="m 12.899,-17.85 h 0.05 c -0.1,-0.733 -0.35,-1.15 -0.75,-1.25 l 0.35,0.6 c 0.067,0.1 0.184,0.317 0.35,0.65 z"
   id="path528"
   inkscape:connector-curvature="0" />
		<path
   style="clip-rule:evenodd;fill:#c48063;fill-rule:evenodd"
   d="m 13.25,-18.5 0.45,0.5 c 0.033,-0.033 0.1,-0.3 0.2,-0.8 0.034,-0.167 0.15,-0.383 0.35,-0.65 -0.167,0.066 -0.367,0.2 -0.6,0.4 -0.3,0.2 -0.434,0.383 -0.4,0.55 z"
   id="path530"
   inkscape:connector-curvature="0" />
		<path
   style="clip-rule:evenodd;fill:#c48063;fill-rule:evenodd"
   d="m 13.7,-19.75 0.15,-0.05 0.6,-0.4 c -0.267,-0.033 -0.517,0.117 -0.75,0.45 z"
   id="path532"
   inkscape:connector-curvature="0" />
		<path
   style="clip-rule:evenodd;fill:#c48063;fill-rule:evenodd"
   d="m 13.2,-19.8 0.25,-0.35 c -0.1,-0.433 -0.233,-0.667 -0.4,-0.7 0.066,0.233 0.1,0.417 0.1,0.55 z"
   id="path534"
   inkscape:connector-curvature="0" />
		<path
   style="clip-rule:evenodd;fill:#c48063;fill-rule:evenodd"
   d="m 14.1,-20.85 0.55,0.05 c 0.233,-0.167 0.467,-0.55 0.7,-1.15 -0.3,0.233 -0.5,0.4 -0.6,0.5 z"
   id="path536"
   inkscape:connector-curvature="0" />
		<path
   style="clip-rule:evenodd;fill:#c48063;fill-rule:evenodd"
   d="m 15.399,-20.7 -0.2,0.25 c 0.2,0 0.5,-0.017 0.9,-0.05 -0.2,-0.3 -0.333,-0.466 -0.4,-0.5 -0.067,-0.033 -0.15,-0.017 -0.25,0.05 -0.099,0.1 -0.116,0.183 -0.05,0.25 z"
   id="path538"
   inkscape:connector-curvature="0" />
		<path
   style="clip-rule:evenodd;fill:#c48063;fill-rule:evenodd"
   d="m 16.05,-21.4 0.2,0.15 c 0.034,-0.033 0.184,-0.116 0.45,-0.25 0.233,-0.133 0.383,-0.25 0.45,-0.35 -0.9,0 -1.267,0.15 -1.1,0.45 z"
   id="path540"
   inkscape:connector-curvature="0" />
		<path
   style="clip-rule:evenodd;fill:#c48063;fill-rule:evenodd"
   d="m 17.2,-20.85 0.15,0.1 c 0.3,-0.033 0.617,0.034 0.95,0.2 -0.1,-0.267 -0.367,-0.5 -0.8,-0.7 -0.2,-0.066 -0.35,-0.066 -0.45,0 -0.067,0.067 -0.017,0.2 0.15,0.4 z"
   id="path542"
   inkscape:connector-curvature="0" />
		<path
   style="clip-rule:evenodd;fill:#c48063;fill-rule:evenodd"
   d="m 17.8,-19.95 0.75,0.8 c 0.066,-0.1 0.033,-0.216 -0.1,-0.35 -0.133,-0.167 -0.233,-0.283 -0.3,-0.35 -0.066,-0.134 -0.133,-0.233 -0.2,-0.3 -0.1,-0.1 -0.184,-0.133 -0.25,-0.1 0.1,0.1 0.133,0.2 0.1,0.3 z"
   id="path544"
   inkscape:connector-curvature="0" />
		<path
   style="clip-rule:evenodd;fill:#c48063;fill-rule:evenodd"
   d="m 18.149,-20.25 0.25,0.45 0.3,-0.05 c -0.034,-0.067 -0.184,-0.233 -0.45,-0.5 z"
   id="path546"
   inkscape:connector-curvature="0" />
		<path
   style="clip-rule:evenodd;fill:#c48063;fill-rule:evenodd"
   d="m 18.25,-18.5 -0.2,0.65 c 0.5,-0.367 0.6,-0.7 0.3,-1 -0.167,0.067 -0.201,0.183 -0.1,0.35 z"
   id="path548"
   inkscape:connector-curvature="0" />
		<path
   style="clip-rule:evenodd;fill:#c48063;fill-rule:evenodd"
   d="m 17.45,-17.85 -0.4,0.4 c 0.566,-0.3 0.783,-0.517 0.65,-0.65 -0.167,0.067 -0.25,0.15 -0.25,0.25 z"
   id="path550"
   inkscape:connector-curvature="0" />
		<path
   style="clip-rule:evenodd;fill:#c48063;fill-rule:evenodd"
   d="m 16.6,-17.95 -0.55,0.3 c 0.2,0.2 0.433,0.167 0.7,-0.1 0,-0.1 -0.05,-0.167 -0.15,-0.2 z"
   id="path552"
   inkscape:connector-curvature="0" />
		<path
   style="clip-rule:evenodd;fill:#c48063;fill-rule:evenodd"
   d="m 16.2,-19.5 h 0.2 c 0.167,-0.066 0.35,-0.216 0.55,-0.45 -0.133,-0.067 -0.284,-0.05 -0.45,0.05 -0.134,0.1 -0.234,0.233 -0.3,0.4 z"
   id="path554"
   inkscape:connector-curvature="0" />
		<path
   style="clip-rule:evenodd;fill:#c48063;fill-rule:evenodd"
   d="m 16.149,-19.15 -0.25,0.25 0.15,0.2 c 0.133,-0.133 0.3,-0.35 0.5,-0.65 -0.166,0.1 -0.299,0.167 -0.4,0.2 z"
   id="path556"
   inkscape:connector-curvature="0" />
		<path
   style="clip-rule:evenodd;fill:#c48063;fill-rule:evenodd"
   d="m 16.45,-18.35 0.25,0.4 c 0.033,-0.067 0.017,-0.2 -0.05,-0.4 -0.033,-0.167 -0.083,-0.267 -0.15,-0.3 -0.167,0.067 -0.184,0.167 -0.05,0.3 z"
   id="path558"
   inkscape:connector-curvature="0" />
	</g>
</symbol>
<use
   xlink:href="#gandlevery_x5F_1"
   width="55.09"
   height="27.4"
   x="0"
   y="-27.4"
   transform="matrix(4.6469657,0,0,-4.6469657,40.42953,1053.3503)"
   style="overflow:visible"
   id="use562" />
</svg>