<?xml version="1.0" encoding="UTF-8" standalone="no"?>
<!-- Generator: Adobe Illustrator 15.1.0, SVG Export Plug-In . SVG Version: 6.00 Build 0)  -->

<svg
   xmlns:dc="http://purl.org/dc/elements/1.1/"
   xmlns:cc="http://creativecommons.org/ns#"
   xmlns:rdf="http://www.w3.org/1999/02/22-rdf-syntax-ns#"
   xmlns:svg="http://www.w3.org/2000/svg"
   xmlns="http://www.w3.org/2000/svg"
   xmlns:xlink="http://www.w3.org/1999/xlink"
   xmlns:sodipodi="http://sodipodi.sourceforge.net/DTD/sodipodi-0.dtd"
   xmlns:inkscape="http://www.inkscape.org/namespaces/inkscape"
   version="1.1"
   id="flash0.ai"
   x="0px"
   y="0px"
   width="256"
   height="256"
   viewBox="0 0 256 256.00002"
   xml:space="preserve"
   sodipodi:docname="rubeweed.svg"
   inkscape:version="0.92.4 (5da689c313, 2019-01-14)"
   inkscape:export-filename="C:\Users\antum\Development\game-resources\icon\CC0\food\individual\Glitch\32x32\herb\rubeweed.png"
   inkscape:export-xdpi="10.5"
   inkscape:export-ydpi="10.5"><title
   id="title1151">Rubeweed</title><metadata
   id="metadata344"><rdf:RDF><cc:Work
       rdf:about=""><dc:format>image/svg+xml</dc:format><dc:type
         rdf:resource="http://purl.org/dc/dcmitype/StillImage" /><dc:title>Rubeweed</dc:title><cc:license
         rdf:resource="http://creativecommons.org/publicdomain/zero/1.0/" /><dc:creator><cc:Agent><dc:title>Glitch</dc:title></cc:Agent></dc:creator><dc:source>https://opengameart.org/node/20149</dc:source></cc:Work><cc:License
       rdf:about="http://creativecommons.org/publicdomain/zero/1.0/"><cc:permits
         rdf:resource="http://creativecommons.org/ns#Reproduction" /><cc:permits
         rdf:resource="http://creativecommons.org/ns#Distribution" /><cc:permits
         rdf:resource="http://creativecommons.org/ns#DerivativeWorks" /></cc:License></rdf:RDF></metadata><defs
   id="defs342"><linearGradient
     inkscape:collect="always"
     xlink:href="#SVGID_1_"
     id="linearGradient1195"
     gradientUnits="userSpaceOnUse"
     x1="14.6748"
     y1="-31.549801"
     x2="30.924801"
     y2="-31.549801" /><linearGradient
     inkscape:collect="always"
     xlink:href="#SVGID_2_"
     id="linearGradient1197"
     gradientUnits="userSpaceOnUse"
     x1="1.1997"
     y1="-30.231001"
     x2="12.6925"
     y2="-30.231001" /><linearGradient
     inkscape:collect="always"
     xlink:href="#SVGID_3_"
     id="linearGradient1199"
     gradientUnits="userSpaceOnUse"
     x1="24.437"
     y1="-33.684101"
     x2="31.761999"
     y2="-33.684101" /><linearGradient
     inkscape:collect="always"
     xlink:href="#SVGID_4_"
     id="linearGradient1201"
     gradientUnits="userSpaceOnUse"
     x1="36.937"
     y1="-35.5527"
     x2="44.562"
     y2="-35.5527" /><linearGradient
     inkscape:collect="always"
     xlink:href="#SVGID_5_"
     id="linearGradient1203"
     gradientUnits="userSpaceOnUse"
     x1="44.211899"
     y1="-36.8027"
     x2="50.686901"
     y2="-36.8027" /><linearGradient
     inkscape:collect="always"
     xlink:href="#SVGID_6_"
     id="linearGradient1205"
     gradientUnits="userSpaceOnUse"
     x1="51.849602"
     y1="-38.408699"
     x2="58.149399"
     y2="-38.408699" /><linearGradient
     inkscape:collect="always"
     xlink:href="#SVGID_7_"
     id="linearGradient1207"
     gradientUnits="userSpaceOnUse"
     gradientTransform="matrix(0.9999,-0.0147,0.3057,0.9956,2498.2173,84.0029)"
     x1="-2441.5332"
     y1="-152.9409"
     x2="-2427.9067"
     y2="-152.9409" /><linearGradient
     inkscape:collect="always"
     xlink:href="#SVGID_8_"
     id="linearGradient1209"
     gradientUnits="userSpaceOnUse"
     gradientTransform="matrix(-0.2221,-0.975,0.975,-0.2221,17938.652,-2026.3633)"
     x1="2026.0669"
     y1="-17900.215"
     x2="2034.7334"
     y2="-17900.215" /><linearGradient
     inkscape:collect="always"
     xlink:href="#SVGID_9_"
     id="linearGradient1211"
     gradientUnits="userSpaceOnUse"
     gradientTransform="matrix(0.9751,-0.222,0.222,0.9751,2016.9253,1607.748)"
     x1="-1597.4902"
     y1="-2023.6216"
     x2="-1582.2859"
     y2="-2023.6216" /><linearGradient
     inkscape:collect="always"
     xlink:href="#SVGID_10_"
     id="linearGradient1213"
     gradientUnits="userSpaceOnUse"
     gradientTransform="matrix(0.975,-0.2221,0.2221,0.975,2018.0581,1608.4609)"
     x1="-1601.9531"
     y1="-2030.7393"
     x2="-1588.1073"
     y2="-2030.7393" /><linearGradient
     inkscape:collect="always"
     xlink:href="#SVGID_11_"
     id="linearGradient1215"
     gradientUnits="userSpaceOnUse"
     gradientTransform="matrix(0.9753,-0.2211,0.2211,0.9753,2007.9927,1602.1299)"
     x1="-1575.1865"
     y1="-2019.5464"
     x2="-1563.0872"
     y2="-2019.5464" /><linearGradient
     inkscape:collect="always"
     xlink:href="#SVGID_12_"
     id="linearGradient1217"
     gradientUnits="userSpaceOnUse"
     gradientTransform="matrix(-0.2224,-0.975,0.975,-0.2224,17940.168,-2028.7754)"
     x1="2022.7871"
     y1="-17914.574"
     x2="2031.5488"
     y2="-17914.574" /><linearGradient
     inkscape:collect="always"
     xlink:href="#SVGID_13_"
     id="linearGradient1219"
     gradientUnits="userSpaceOnUse"
     gradientTransform="matrix(0.975,-0.2221,0.2221,0.975,2017.873,1608.3447)"
     x1="-1568.3867"
     y1="-2032.3105"
     x2="-1561.1818"
     y2="-2032.3105" /><linearGradient
     inkscape:collect="always"
     xlink:href="#SVGID_14_"
     id="linearGradient1221"
     gradientUnits="userSpaceOnUse"
     gradientTransform="matrix(0.9487,0.3162,-0.3162,0.9487,-2164.4697,-2999.9419)"
     x1="3035.1226"
     y1="2117.7871"
     x2="3042.7119"
     y2="2117.7871" /><linearGradient
     inkscape:collect="always"
     xlink:href="#SVGID_15_"
     id="linearGradient1223"
     gradientUnits="userSpaceOnUse"
     gradientTransform="matrix(-0.2197,-0.9756,0.9756,-0.2197,17923.518,-2002.3364)"
     x1="2003.561"
     y1="-17861.363"
     x2="2006.4055"
     y2="-17861.363" /><linearGradient
     inkscape:collect="always"
     xlink:href="#SVGID_16_"
     id="linearGradient1225"
     gradientUnits="userSpaceOnUse"
     gradientTransform="matrix(-0.2183,-0.9759,0.9759,-0.2183,17914.459,-1988.0215)"
     x1="1991.7124"
     y1="-17849.938"
     x2="1993.6593"
     y2="-17849.938" /><linearGradient
     inkscape:collect="always"
     xlink:href="#SVGID_17_"
     id="linearGradient1227"
     gradientUnits="userSpaceOnUse"
     gradientTransform="matrix(-0.2254,-0.9743,0.9743,-0.2254,17959.568,-2059.7827)"
     x1="2060.1572"
     y1="-17893.348"
     x2="2063.2622"
     y2="-17893.348" /><linearGradient
     inkscape:collect="always"
     xlink:href="#SVGID_18_"
     id="linearGradient1229"
     gradientUnits="userSpaceOnUse"
     gradientTransform="matrix(-0.2272,-0.9738,0.9738,-0.2272,17970.728,-2077.7197)"
     x1="2079.9854"
     y1="-17902.559"
     x2="2081.5256"
     y2="-17902.559" /><linearGradient
     inkscape:collect="always"
     xlink:href="#SVGID_19_"
     id="linearGradient1231"
     gradientUnits="userSpaceOnUse"
     gradientTransform="matrix(-0.2263,-0.9741,0.9741,-0.2263,17964.889,-2068.3232)"
     x1="2068.6216"
     y1="-17894.553"
     x2="2071.1626"
     y2="-17894.553" /><linearGradient
     inkscape:collect="always"
     xlink:href="#SVGID_20_"
     id="linearGradient1233"
     gradientUnits="userSpaceOnUse"
     gradientTransform="matrix(-0.2232,-0.9748,0.9748,-0.2232,17945.633,-2037.4907)"
     x1="2036.8149"
     y1="-17872.875"
     x2="2040.1729"
     y2="-17872.875" /><linearGradient
     inkscape:collect="always"
     xlink:href="#SVGID_21_"
     id="linearGradient1235"
     gradientUnits="userSpaceOnUse"
     gradientTransform="matrix(0.975,-0.2224,0.2224,0.975,2021.2852,1610.4873)"
     x1="-1602.7812"
     y1="-2040.1553"
     x2="-1586.3702"
     y2="-2040.1553" /></defs><sodipodi:namedview
   pagecolor="#ffffff"
   bordercolor="#666666"
   borderopacity="1"
   objecttolerance="10"
   gridtolerance="10"
   guidetolerance="10"
   inkscape:pageopacity="0"
   inkscape:pageshadow="2"
   inkscape:window-width="1920"
   inkscape:window-height="1025"
   id="namedview340"
   showgrid="false"
   inkscape:zoom="1.6859644"
   inkscape:cx="-32.942618"
   inkscape:cy="38.028015"
   inkscape:window-x="-8"
   inkscape:window-y="-8"
   inkscape:window-maximized="1"
   inkscape:current-layer="flash0.ai"
   fit-margin-top="0"
   fit-margin-left="0"
   fit-margin-right="0"
   fit-margin-bottom="0" />
<symbol
   id="rubeweed_x5F_1"
   viewBox="0.002 -39.868 72.997 39.854"
   transform="translate(-2.6518778,207.90516)">
	<g
   id="Layer_1_2_">
		<path
   style="clip-rule:evenodd;fill:#586818;fill-rule:evenodd"
   d="m 35.95,-33.6 c 0.033,0.667 0,1.133 -0.1,1.4 -0.167,0.533 -0.517,0.667 -1.05,0.4 -0.533,-0.267 -0.9,-0.633 -1.1,-1.1 -0.433,-1 0.05,-1.7 1.45,-2.1 0.582,-0.159 1.332,-0.317 2.25,-0.475 -0.128,0.111 -0.261,0.236 -0.4,0.375 -0.634,0.634 -0.983,1.134 -1.05,1.5 z m 8.15,-2.85 c -0.434,0.066 -0.717,0.133 -0.85,0.2 -0.267,0.134 -0.483,0.367 -0.65,0.7 l -0.2,0.9 c -0.366,0.8 -0.816,1.117 -1.35,0.95 -0.567,-0.167 -1.017,-0.55 -1.35,-1.15 -0.167,-0.3 -0.284,-0.534 -0.35,-0.7 -0.167,-0.3 -0.333,-0.483 -0.5,-0.55 -0.246,-0.103 -0.571,-0.02 -0.975,0.25 -0.383,-0.255 -0.875,-0.422 -1.475,-0.5 -0.333,-0.034 -0.983,-0.05 -1.95,-0.05 -1.6,0 -2.65,0.05 -3.15,0.15 -0.2,0.067 -0.434,0.2 -0.7,0.4 -0.333,0.2 -0.566,0.333 -0.7,0.4 -0.967,0.4 -1.55,0.7 -1.75,0.9 -0.4,0.533 -0.7,0.883 -0.9,1.05 -0.3,0.3 -0.7,0.467 -1.2,0.5 -0.767,-0.033 -1.35,-0.033 -1.75,0 l -2.6,0.5 c -1.067,0.2 -1.95,0.333 -2.65,0.4 -0.567,0.066 -1.267,-0.017 -2.1,-0.25 -0.633,-0.134 -1.784,-0.167 -3.45,-0.1 -1.1,0 -1.917,0.133 -2.45,0.4 l -0.65,0.45 c -0.167,0.066 -0.366,0.1 -0.6,0.1 -2.167,-0.167 -3.483,-0.25 -3.95,-0.25 -2.233,0 -3.9,0.317 -5,0.95 -0.9,0.566 -1.083,0.983 -0.55,1.25 0.267,0.167 0.8,0.184 1.6,0.05 1.134,0.134 2,0.333 2.6,0.6 1.7,0.567 2.583,1.067 2.65,1.5 l 7.65,1.55 c 0.1,-0.067 0.217,-0.117 0.35,-0.15 0.067,0 0.184,0 0.35,0 l 1.85,-0.15 c 1.533,-0.233 3.35,-0.683 5.45,-1.35 1.2,-0.366 3,-0.917 5.4,-1.65 0.6,-0.167 1.65,-0.417 3.15,-0.75 1.333,-0.267 2.383,-0.533 3.15,-0.8 0.633,-0.233 1.567,-0.583 2.8,-1.05 l 4.6,-1.3 c 0.934,-0.267 2.333,-0.633 4.2,-1.1 1.6,-0.466 2.95,-1.05 4.05,-1.75 0.367,-0.233 0.684,-0.633 0.95,-1.2 0.133,-0.333 0.333,-0.85 0.6,-1.55 -0.6,-0.1 -1.25,0.133 -1.95,0.7 -0.9,0.733 -1.5,1.15 -1.8,1.25 -0.5,0.167 -1.15,0.233 -1.95,0.2 -0.967,0 -1.601,0.017 -1.9,0.05 z"
   id="path2"
   inkscape:connector-curvature="0" />
		<linearGradient
   id="SVGID_1_"
   gradientUnits="userSpaceOnUse"
   x1="14.6748"
   y1="-31.549801"
   x2="30.924801"
   y2="-31.549801">
			<stop
   offset="0"
   style="stop-color:#677925"
   id="stop4" />
			<stop
   offset="1"
   style="stop-color:#C0DC54"
   id="stop6" />
		</linearGradient>
		<path
   style="clip-rule:evenodd;fill:url(#linearGradient1195);fill-rule:evenodd"
   d="m 18.899,-28.65 c 0.267,-0.066 0.667,-0.117 1.2,-0.15 l 4.35,-0.55 c 0.9,-0.134 2.267,-0.284 4.1,-0.45 0.667,-0.133 1.217,-0.434 1.65,-0.9 0.5,-0.5 0.75,-1.133 0.75,-1.9 0,-1.167 -0.617,-1.884 -1.85,-2.15 -0.333,-0.066 -1.333,-0.1 -3,-0.1 -1.4,0 -2.934,0.133 -4.6,0.4 -1.267,0.2 -2,0.333 -2.2,0.4 -0.767,0.2 -1.45,0.5 -2.05,0.9 -1.7,1.233 -2.55,2.867 -2.55,4.9 h 3 c 0.301,-0.2 0.7,-0.333 1.2,-0.4 z"
   id="path9"
   inkscape:connector-curvature="0" />
		<linearGradient
   id="SVGID_2_"
   gradientUnits="userSpaceOnUse"
   x1="1.1997"
   y1="-30.231001"
   x2="12.6925"
   y2="-30.231001">
			<stop
   offset="0"
   style="stop-color:#677925"
   id="stop11" />
			<stop
   offset="1"
   style="stop-color:#C0DC54"
   id="stop13" />
		</linearGradient>
		<path
   style="clip-rule:evenodd;fill:url(#linearGradient1197);fill-rule:evenodd"
   d="m 9,-27.3 3.7,1.3 c 0.067,-1.167 -0.133,-2.8 -0.6,-4.9 -0.167,-0.8 -0.733,-1.55 -1.7,-2.25 -0.833,-0.566 -1.3,-0.867 -1.4,-0.9 -0.7,-0.2 -1.417,-0.333 -2.15,-0.4 -1.566,-0.067 -2.917,0.133 -4.05,0.6 -0.434,0.167 -0.8,0.417 -1.1,0.75 -0.4,0.4 -0.55,0.85 -0.45,1.35 0.1,0.6 0.483,1.017 1.15,1.25 0.167,0.067 0.717,0.184 1.65,0.35 1.1,0.167 1.967,0.467 2.6,0.9 0.333,0.2 0.8,0.6 1.4,1.2 0.467,0.467 0.783,0.717 0.95,0.75 z"
   id="path16"
   inkscape:connector-curvature="0" />
		<path
   style="clip-rule:evenodd;fill:#c8de5a;fill-rule:evenodd"
   d="m 11.8,-27.3 0.9,0.55 c -0.034,-1.167 -0.233,-2.55 -0.6,-4.15 -0.167,-0.8 -0.733,-1.55 -1.7,-2.25 -0.833,-0.566 -1.3,-0.867 -1.4,-0.9 -0.7,-0.2 -1.417,-0.333 -2.15,-0.4 -1.566,-0.067 -2.917,0.133 -4.05,0.6 -1.134,0.433 -1.65,1.083 -1.55,1.95 1.867,-1.7 4.05,-2.3 6.55,-1.8 2.7,0.533 4.183,2.267 4.45,5.2 0.066,0.434 -0.084,0.833 -0.45,1.2 z"
   id="path18"
   inkscape:connector-curvature="0" />
		<linearGradient
   id="SVGID_3_"
   gradientUnits="userSpaceOnUse"
   x1="24.437"
   y1="-33.684101"
   x2="31.761999"
   y2="-33.684101">
			<stop
   offset="0"
   style="stop-color:#677925"
   id="stop20" />
			<stop
   offset="1"
   style="stop-color:#C0DC54"
   id="stop22" />
		</linearGradient>
		<path
   style="clip-rule:evenodd;fill:url(#linearGradient1199);fill-rule:evenodd"
   d="m 26.5,-37.8 c -0.5,0.033 -0.966,0.25 -1.4,0.65 -0.467,0.467 -0.684,1 -0.65,1.6 0.033,0.566 0.317,1.083 0.85,1.55 0.2,0.2 0.6,0.467 1.2,0.8 0.567,0.333 0.967,0.633 1.2,0.9 0.267,0.333 0.417,0.767 0.45,1.3 0,0.634 0,1.134 0,1.5 l 2.8,-0.3 c -0.034,-0.2 0.017,-0.45 0.15,-0.75 0.066,-0.2 0.167,-0.45 0.3,-0.75 0.233,-0.5 0.35,-1.2 0.35,-2.1 0,-1.3 -0.133,-2.25 -0.4,-2.85 -0.634,-1.3 -2.25,-1.816 -4.85,-1.55 z"
   id="path25"
   inkscape:connector-curvature="0" />
		<path
   style="clip-rule:evenodd;fill:#c8de5a;fill-rule:evenodd"
   d="m 26.5,-37.8 c -0.4,0.033 -0.783,0.184 -1.15,0.45 -0.4,0.3 -0.667,0.667 -0.8,1.1 1.2,-0.866 2.5,-1.167 3.9,-0.9 1.5,0.3 2.483,1.25 2.95,2.85 0.2,0.767 0.2,1.517 0,2.25 -0.233,0.767 -0.633,1.316 -1.2,1.65 l -0.35,0.15 v 0.6 l 1.1,-0.15 c -0.034,-0.2 0.017,-0.45 0.15,-0.75 0.066,-0.2 0.167,-0.45 0.3,-0.75 0.233,-0.5 0.35,-1.2 0.35,-2.1 0,-1.3 -0.133,-2.25 -0.4,-2.85 -0.634,-1.3 -2.25,-1.816 -4.85,-1.55 z"
   id="path27"
   inkscape:connector-curvature="0" />
		<linearGradient
   id="SVGID_4_"
   gradientUnits="userSpaceOnUse"
   x1="36.937"
   y1="-35.5527"
   x2="44.562"
   y2="-35.5527">
			<stop
   offset="0"
   style="stop-color:#677925"
   id="stop29" />
			<stop
   offset="1"
   style="stop-color:#C0DC54"
   id="stop31" />
		</linearGradient>
		<path
   style="clip-rule:evenodd;fill:url(#linearGradient1201);fill-rule:evenodd"
   d="m 40.5,-32.6 c 0.034,-0.7 0.317,-1.367 0.85,-2 0.467,-0.534 1,-0.95 1.6,-1.25 0.3,-0.167 0.7,-0.35 1.2,-0.55 0.333,-0.233 0.45,-0.617 0.35,-1.15 -0.1,-0.8 -0.466,-1.217 -1.1,-1.25 -0.4,-0.033 -1.333,0.066 -2.8,0.3 -1.066,0.167 -1.667,0.284 -1.8,0.35 -0.634,0.333 -1.134,0.85 -1.5,1.55 -0.367,0.767 -0.483,1.533 -0.35,2.3 0.2,0.5 0.333,0.883 0.4,1.15 0,0.034 0,0.184 0,0.45 0,0.2 0.033,0.333 0.1,0.4 z"
   id="path34"
   inkscape:connector-curvature="0" />
		<path
   style="clip-rule:evenodd;fill:#c8de5a;fill-rule:evenodd"
   d="m 43.399,-38.1 c 0.467,-0.034 0.85,0.183 1.15,0.65 l -0.05,-0.1 c -0.1,-0.8 -0.466,-1.217 -1.1,-1.25 -0.4,-0.033 -1.333,0.066 -2.8,0.3 -1.066,0.167 -1.667,0.284 -1.8,0.35 -0.6,0.3 -1.067,0.784 -1.4,1.45 -0.366,0.667 -0.517,1.367 -0.45,2.1 0.233,-1.267 1.083,-2.184 2.55,-2.75 0.9,-0.366 2.201,-0.616 3.9,-0.75 z"
   id="path36"
   inkscape:connector-curvature="0" />
		<linearGradient
   id="SVGID_5_"
   gradientUnits="userSpaceOnUse"
   x1="44.211899"
   y1="-36.8027"
   x2="50.686901"
   y2="-36.8027">
			<stop
   offset="0"
   style="stop-color:#677925"
   id="stop38" />
			<stop
   offset="1"
   style="stop-color:#C0DC54"
   id="stop40" />
		</linearGradient>
		<path
   style="clip-rule:evenodd;fill:url(#linearGradient1203);fill-rule:evenodd"
   d="m 44.899,-34.55 0.8,0.1 c 1.133,-0.467 2.117,-1.284 2.95,-2.45 0.634,-0.833 1.1,-1.367 1.4,-1.6 0.4,-0.333 0.616,-0.517 0.65,-0.55 -2.3,-0.333 -4.25,0.117 -5.85,1.35 -0.267,0.233 -0.45,0.466 -0.55,0.7 -0.067,0.2 -0.1,0.534 -0.1,1 0.001,1.067 0.234,1.55 0.7,1.45 z"
   id="path43"
   inkscape:connector-curvature="0" />
		<linearGradient
   id="SVGID_6_"
   gradientUnits="userSpaceOnUse"
   x1="51.849602"
   y1="-38.408699"
   x2="58.149399"
   y2="-38.408699">
			<stop
   offset="0"
   style="stop-color:#677925"
   id="stop45" />
			<stop
   offset="1"
   style="stop-color:#C0DC54"
   id="stop47" />
		</linearGradient>
		<path
   style="clip-rule:evenodd;fill:url(#linearGradient1205);fill-rule:evenodd"
   d="m 52.2,-36.95 5.95,-2.55 c -0.3,-0.3 -0.8,-0.417 -1.5,-0.35 -0.167,0 -0.667,0.083 -1.5,0.25 -1.433,0.3 -2.533,0.883 -3.3,1.75 0.066,0.367 0.183,0.667 0.35,0.9 z"
   id="path50"
   inkscape:connector-curvature="0" />
		
			<linearGradient
   id="SVGID_7_"
   gradientUnits="userSpaceOnUse"
   x1="-2441.5332"
   y1="-152.9409"
   x2="-2427.9067"
   y2="-152.9409"
   gradientTransform="matrix(0.9999,-0.0147,0.3057,0.9956,2498.2173,84.0029)">
			<stop
   offset="0"
   style="stop-color:#677925"
   id="stop52" />
			<stop
   offset="1"
   style="stop-color:#C0DC54"
   id="stop54" />
		</linearGradient>
		<path
   style="clip-rule:evenodd;fill:url(#linearGradient1207);fill-rule:evenodd"
   d="m 24.1,-26.35 c 0.7,-2 0.517,-4.3 -0.55,-6.9 -0.8,-1.966 -1.6,-3.316 -2.4,-4.05 -1.267,-1.167 -2.566,-1.667 -3.9,-1.5 -1.633,0.1 -2.85,0.217 -3.65,0.35 -1.367,0.3 -2.45,0.767 -3.25,1.4 -1.233,0.967 -1.333,2.066 -0.3,3.3 0.667,0.767 1.9,1.567 3.7,2.4 1.733,0.8 2.9,1.6 3.5,2.4 z"
   id="path57"
   inkscape:connector-curvature="0" />
		<path
   style="clip-rule:evenodd;fill:#c8de5a;fill-rule:evenodd"
   d="m 24.399,-30.45 c -0.133,-0.867 -0.417,-1.8 -0.85,-2.8 -0.8,-1.966 -1.6,-3.316 -2.4,-4.05 -1.267,-1.167 -2.566,-1.667 -3.9,-1.5 -1.633,0.1 -2.85,0.217 -3.65,0.35 -0.9,0.167 -1.75,0.483 -2.55,0.95 -1.067,0.6 -1.617,1.3 -1.65,2.1 l 0.15,-0.2 c 1.267,-0.7 2.333,-1.2 3.2,-1.5 0.167,-0.467 0.534,-0.7 1.1,-0.7 1.533,-0.066 2.633,-0.066 3.3,0 1.267,0.133 2.367,0.517 3.3,1.15 1.966,1.367 3.267,3.367 3.9,6 z"
   id="path59"
   inkscape:connector-curvature="0" />
		<path
   style="clip-rule:evenodd;fill:#455210;fill-rule:evenodd"
   d="m 9.35,-27.55 2.45,1.3 c -0.2,-0.233 -0.4,-0.65 -0.6,-1.25 -0.233,-0.566 -0.433,-0.95 -0.6,-1.15 L 9.45,-29.8 c -0.367,-0.467 -1,-0.75 -1.9,-0.85 -0.7,-0.1 -1.417,-0.083 -2.15,0.05 0.134,0.167 0.517,0.267 1.15,0.3 0.333,0.1 0.65,0.3 0.95,0.6 0.133,0.133 0.433,0.517 0.9,1.15 0.4,0.533 0.716,0.867 0.95,1 z"
   id="path61"
   inkscape:connector-curvature="0" />
		<path
   style="clip-rule:evenodd;fill:#455210;fill-rule:evenodd"
   d="m 19.3,-25.75 3.4,-2 c -1.367,-1.866 -2.367,-3.133 -3,-3.8 -2.133,-2.333 -3.7,-3.517 -4.7,-3.55 0.2,0.167 0.767,0.633 1.7,1.4 0.8,0.633 1.35,1.117 1.65,1.45 1.3,1.6 2.283,2.917 2.95,3.95 0.066,0.133 -0.25,0.55 -0.95,1.25 -0.701,0.734 -1.05,1.167 -1.05,1.3 z"
   id="path63"
   inkscape:connector-curvature="0" />
		<path
   style="clip-rule:evenodd;fill:#455210;fill-rule:evenodd"
   d="m 29.35,-29.95 1.5,0.15 c 0,-1.1 -0.15,-1.967 -0.45,-2.6 -0.167,-0.5 -0.5,-0.95 -1,-1.35 -0.566,-0.466 -1.033,-0.566 -1.4,-0.3 0.6,0.867 1,1.566 1.2,2.1 0.433,0.967 0.483,1.634 0.15,2 z"
   id="path65"
   inkscape:connector-curvature="0" />
		<path
   style="clip-rule:evenodd;fill:#455210;fill-rule:evenodd"
   d="m 25.25,-29.1 1.15,-0.25 c -0.033,-0.4 -0.3,-0.917 -0.8,-1.55 -1.066,-1.4 -1.867,-2.066 -2.4,-2 l 1.6,2.35 c 0.166,0.334 0.316,0.817 0.45,1.45 z"
   id="path67"
   inkscape:connector-curvature="0" />
		<path
   style="clip-rule:evenodd;fill:#455210;fill-rule:evenodd"
   d="m 39.45,-32.45 0.075,0.9 c 0,-0.351 0.125,-0.817 0.375,-1.4 0.167,-0.367 0.4,-0.867 0.7,-1.5 0.233,-0.534 0.55,-0.934 0.95,-1.2 -2.067,0.767 -2.767,1.834 -2.1,3.2 z"
   id="path69"
   inkscape:connector-curvature="0" />
		<path
   style="clip-rule:evenodd;fill:#455210;fill-rule:evenodd"
   d="m 46.2,-35.3 0.65,0.6 c 0,-0.667 0.133,-1.383 0.4,-2.15 0.3,-0.867 0.667,-1.434 1.1,-1.7 -0.9,0.234 -1.617,1.317 -2.15,3.25 z"
   id="path71"
   inkscape:connector-curvature="0" />
		<path
   style="clip-rule:evenodd;fill:#455210;fill-rule:evenodd"
   d="m 22,-27.1 c 0.133,0 0.567,-0.134 1.3,-0.4 0.866,-0.3 1.333,-0.566 1.4,-0.8 v -1.1 c -0.167,-1.167 -0.4,-1.917 -0.7,-2.25 -0.966,0.833 -2.067,1.133 -3.3,0.9 -0.3,-0.066 -0.517,-0.116 -0.65,-0.15 -0.233,-0.033 -0.4,0.05 -0.5,0.25 -0.033,0.367 -0.15,0.65 -0.35,0.85 -0.133,0.1 -0.25,0.15 -0.35,0.15 -0.167,-0.066 -0.316,-0.1 -0.45,-0.1 -1,0 -1.75,-0.017 -2.25,-0.05 0.567,0.467 0.9,0.9 1,1.3 l 0.55,2.35 c 1.567,-0.233 3,-0.55 4.3,-0.95 z"
   id="path73"
   inkscape:connector-curvature="0" />
		<path
   style="clip-rule:evenodd;fill:#455210;fill-rule:evenodd"
   d="m 28.149,-29.8 1.4,1.4 c 1.167,-1 1.816,-2.167 1.95,-3.5 0.133,-0.9 0.083,-1.55 -0.15,-1.95 -0.333,0.9 -0.7,1.566 -1.1,2 -0.267,0.3 -0.583,0.483 -0.95,0.55 -0.467,0.033 -0.833,0.066 -1.1,0.1 z"
   id="path75"
   inkscape:connector-curvature="0" />
		<path
   style="clip-rule:evenodd;fill:#455210;fill-rule:evenodd"
   d="m 39.649,-32.2 c 1.367,-0.233 1.95,-1.117 1.75,-2.65 -0.1,-0.034 -0.267,-0.017 -0.5,0.05 -0.233,0.067 -0.417,0.083 -0.55,0.05 -0.267,-0.066 -0.434,-0.116 -0.5,-0.15 -0.133,0 -0.3,0.067 -0.5,0.2 -0.267,0.233 -0.5,0.367 -0.7,0.4 -0.2,0.033 -0.467,-0.033 -0.8,-0.2 -0.333,-0.133 -0.583,-0.183 -0.75,-0.15 0.1,0.6 0.167,1.017 0.2,1.25 0.267,0.4 0.4,0.717 0.4,0.95 z"
   id="path77"
   inkscape:connector-curvature="0" />
		<path
   style="clip-rule:evenodd;fill:#455210;fill-rule:evenodd"
   d="m 44.649,-34.45 0.6,0.6 c 0.6,-0.067 1.284,-0.45 2.05,-1.15 0.833,-0.767 1.233,-1.5 1.2,-2.2 -0.5,0.466 -1.117,0.783 -1.85,0.95 -0.733,0.167 -1.216,0.25 -1.449,0.25 -0.433,-0.133 -0.767,-0.167 -1,-0.1 -0.1,1.034 0.05,1.583 0.449,1.65 z"
   id="path79"
   inkscape:connector-curvature="0" />
		<path
   style="clip-rule:evenodd;fill:#455210;fill-rule:evenodd"
   d="m 53.5,-38.1 -0.05,-0.25 c -0.3,0.033 -0.534,0.066 -0.7,0.1 -0.233,0.067 -0.417,0.217 -0.55,0.45 -0.2,0.333 -0.2,0.75 0,1.25 h 1.3 c 0.233,-0.133 0.517,-0.467 0.85,-1 0.279,-0.503 0.521,-0.844 0.725,-1.025 -0.16,0.111 -0.385,0.219 -0.675,0.325 -0.434,0.167 -0.734,0.217 -0.9,0.15 z"
   id="path81"
   inkscape:connector-curvature="0" />
		<path
   style="clip-rule:evenodd;fill:#c8de5a;fill-rule:evenodd"
   d="m 18.5,-30.65 -0.3,-0.25 c -0.133,0.034 -0.3,0 -0.5,-0.1 -0.233,-0.133 -0.383,-0.2 -0.45,-0.2 -1.2,-0.167 -1.7,0.017 -1.5,0.55 0.367,0.067 0.833,0.083 1.4,0.05 0.3,0 0.749,-0.016 1.35,-0.05 z"
   id="path83"
   inkscape:connector-curvature="0" />
		<path
   style="clip-rule:evenodd;fill:#c8de5a;fill-rule:evenodd"
   d="m 17.6,-31.6 -0.1,-0.15 c -0.167,-0.133 -0.45,-0.233 -0.85,-0.3 -0.433,-0.066 -0.733,-0.117 -0.9,-0.15 -0.9,-0.133 -1.633,-0.067 -2.2,0.2 -0.067,0.267 0.083,0.4 0.45,0.4 0.2,0.033 0.467,0.033 0.8,0 z"
   id="path85"
   inkscape:connector-curvature="0" />
		<path
   style="clip-rule:evenodd;fill:#c8de5a;fill-rule:evenodd"
   d="m 16.3,-32.6 -0.8,-1 c -0.966,-0.167 -1.783,-0.3 -2.45,-0.4 -1.267,-0.2 -1.884,-0.017 -1.85,0.55 0.033,0.433 0.233,0.683 0.6,0.75 0.233,0.033 0.583,0.017 1.05,-0.05 0.766,0 1.917,0.05 3.45,0.15 z"
   id="path87"
   inkscape:connector-curvature="0" />
		<path
   style="clip-rule:evenodd;fill:#c8de5a;fill-rule:evenodd"
   d="m 14.2,-34.45 0.7,-0.7 c -1.033,-0.267 -2.283,-0.35 -3.75,-0.25 -0.233,-0.033 -0.4,-0.033 -0.5,0 -0.2,0 -0.267,0.1 -0.2,0.3 0.033,0.133 0.317,0.233 0.85,0.3 0.3,0.066 0.616,0.117 0.95,0.15 1.1,0.067 1.75,0.133 1.95,0.2 z"
   id="path89"
   inkscape:connector-curvature="0" />
		<path
   style="clip-rule:evenodd;fill:#c8de5a;fill-rule:evenodd"
   d="m 16.3,-35.15 0.35,-0.15 c 0,-0.2 0.017,-0.667 0.05,-1.4 -0.067,-0.133 -0.167,-0.233 -0.3,-0.3 -0.2,-0.066 -0.35,-0.05 -0.45,0.05 -0.2,0.2 -0.217,0.5 -0.05,0.9 0.233,0.467 0.367,0.767 0.4,0.9 z"
   id="path91"
   inkscape:connector-curvature="0" />
		<path
   style="clip-rule:evenodd;fill:#c8de5a;fill-rule:evenodd"
   d="m 17.95,-34.15 0.45,1.55 c 0.367,-1.767 0.517,-2.983 0.45,-3.65 -0.566,-0.1 -0.883,0.083 -0.95,0.55 0.033,0.634 0.05,1.15 0.05,1.55 z"
   id="path93"
   inkscape:connector-curvature="0" />
		<path
   style="clip-rule:evenodd;fill:#c8de5a;fill-rule:evenodd"
   d="m 19.1,-32.6 1.05,-0.4 c 0.733,-1.033 1.083,-1.966 1.05,-2.8 -0.667,-0.167 -1.217,0.133 -1.65,0.9 -0.334,0.667 -0.484,1.434 -0.45,2.3 z"
   id="path95"
   inkscape:connector-curvature="0" />
		<path
   style="clip-rule:evenodd;fill:#c8de5a;fill-rule:evenodd"
   d="m 20.75,-31.9 0.45,0.55 c 0.367,-0.167 0.517,-0.634 0.45,-1.4 -0.233,-0.066 -0.45,-0.017 -0.65,0.15 -0.233,0.2 -0.317,0.433 -0.25,0.7 z"
   id="path97"
   inkscape:connector-curvature="0" />
		<path
   style="clip-rule:evenodd;fill:#c8de5a;fill-rule:evenodd"
   d="m 8.149,-32.6 c -0.333,-0.2 -0.767,-0.317 -1.3,-0.35 -0.633,-0.034 -0.967,0.133 -1,0.5 -0.066,0.734 0.484,1.15 1.651,1.25 0.233,0.033 0.55,0.066 0.95,0.1 0.333,0.066 0.633,0.2 0.9,0.4 l 1.05,1.2 -0.25,-1.7 c -0.267,-0.067 -0.6,-0.284 -1,-0.65 -0.467,-0.4 -0.8,-0.65 -1.001,-0.75 z"
   id="path99"
   inkscape:connector-curvature="0" />
		<path
   style="clip-rule:evenodd;fill:#c8de5a;fill-rule:evenodd"
   d="m 4.95,-31.2 0.45,-0.55 c -0.4,-0.033 -0.717,-0.066 -0.95,-0.1 -0.467,0 -0.767,0.083 -0.9,0.25 0.133,0.167 0.35,0.25 0.65,0.25 0.366,0 0.616,0.05 0.75,0.15 z"
   id="path101"
   inkscape:connector-curvature="0" />
		<path
   style="clip-rule:evenodd;fill:#c8de5a;fill-rule:evenodd"
   d="m 27.6,-33.15 -0.35,-0.6 c -0.633,-0.633 -1.167,-0.9 -1.6,-0.8 -0.1,0.267 -0.017,0.467 0.25,0.6 l 0.65,0.2 z"
   id="path103"
   inkscape:connector-curvature="0" />
		<path
   style="clip-rule:evenodd;fill:#c8de5a;fill-rule:evenodd"
   d="M 30.05,-33.75 29.8,-34.7 c -0.3,-0.467 -0.55,-0.767 -0.75,-0.9 -0.233,-0.233 -0.55,-0.367 -0.95,-0.4 -0.6,0 -0.917,0.083 -0.95,0.25 0.267,0.367 0.733,0.717 1.4,1.05 0.766,0.433 1.266,0.75 1.5,0.95 z"
   id="path105"
   inkscape:connector-curvature="0" />
		<path
   style="clip-rule:evenodd;fill:#c8de5a;fill-rule:evenodd"
   d="m 41.3,-36.25 1.15,-1 c -1.133,0.067 -2.067,0.384 -2.8,0.95 l -0.6,0.55 c -0.167,0.233 -0.233,0.534 -0.2,0.9 0.367,0.033 0.684,-0.034 0.95,-0.2 0.9,-0.6 1.4,-1 1.5,-1.2 z"
   id="path107"
   inkscape:connector-curvature="0" />
		<path
   style="clip-rule:evenodd;fill:#c8de5a;fill-rule:evenodd"
   d="m 42.899,-36.55 c -0.5,-0.1 -0.85,0 -1.05,0.3 0.2,0.233 0.517,0.25 0.95,0.05 0.233,-0.133 0.55,-0.333 0.95,-0.6 z"
   id="path109"
   inkscape:connector-curvature="0" />
		<path
   style="clip-rule:evenodd;fill:#c8de5a;fill-rule:evenodd"
   d="m 46.2,-36.55 0.9,-1.7 c -0.367,0 -0.7,0.083 -1,0.25 -0.367,0.2 -0.533,0.5 -0.5,0.9 0,0.5 0.2,0.683 0.6,0.55 z"
   id="path111"
   inkscape:connector-curvature="0" />
		<path
   style="clip-rule:evenodd;fill:#c8de5a;fill-rule:evenodd"
   d="m 47.55,-36.95 1.2,-0.6 -0.05,-0.4 c -0.3,-0.034 -0.617,0.033 -0.95,0.2 -0.4,0.2 -0.467,0.467 -0.2,0.8 z"
   id="path113"
   inkscape:connector-curvature="0" />
		<path
   style="clip-rule:evenodd;fill:#586818;fill-rule:evenodd"
   d="m 32.1,-27.35 c 0.6,0.333 0.917,0.767 0.95,1.3 0,0.833 -0.717,1.417 -2.15,1.75 -0.733,0.1 -1.316,0.2 -1.75,0.3 -0.8,0.167 -1.316,0.367 -1.55,0.6 -0.267,0.3 -0.283,0.733 -0.05,1.3 0.2,0.5 0.483,0.9 0.85,1.2 0.867,0.7 1.884,0.8 3.05,0.3 0.867,-0.367 1.733,-1.017 2.6,-1.95 0.566,-0.6 0.683,-1.617 0.35,-3.05 -0.133,-0.634 -0.333,-1.1 -0.6,-1.4 -0.067,-0.133 -0.267,-0.333 -0.6,-0.6 -0.267,-0.233 -0.433,-0.434 -0.5,-0.6 l -2.15,0.2 c 0.266,0.134 0.783,0.35 1.55,0.65 z"
   id="path115"
   inkscape:connector-curvature="0" />
		<path
   style="clip-rule:evenodd;fill:#586818;fill-rule:evenodd"
   d="m 41.399,-27.65 c 0.267,0.867 0.4,1.5 0.4,1.9 -0.033,0.634 -0.4,1.067 -1.1,1.3 -0.967,0.167 -1.733,0.316 -2.3,0.45 -1.066,0.233 -1.616,0.583 -1.65,1.05 -0.1,1.6 0.784,2.466 2.65,2.6 0.567,0.033 1.267,-0.034 2.1,-0.2 0.9,-0.167 1.583,-0.367 2.05,-0.6 0.533,-0.3 1.05,-0.867 1.55,-1.7 0.467,-0.833 0.667,-1.534 0.6,-2.1 -0.1,-0.667 -0.383,-1.3 -0.85,-1.9 -0.3,-0.367 -0.816,-0.833 -1.55,-1.4 -0.533,-0.566 -0.95,-1 -1.25,-1.3 -0.567,-0.7 -1,-1.066 -1.3,-1.1 L 35,-28.7 c 0.733,0.1 1.833,0.05 3.3,-0.15 1.766,-0.233 2.8,0.167 3.099,1.2 z"
   id="path117"
   inkscape:connector-curvature="0" />
		<path
   style="clip-rule:evenodd;fill:#586818;fill-rule:evenodd"
   d="m 20.899,-8.2 c 1,-0.5 1.684,-1.534 2.05,-3.1 0.233,-1.133 0.367,-1.816 0.4,-2.05 0.1,-0.7 0.066,-1.384 -0.1,-2.05 -0.067,-0.233 -0.45,-1.417 -1.15,-3.55 -0.066,-0.233 -0.25,-1 -0.55,-2.3 -0.3,-1.2 -0.583,-1.816 -0.85,-1.85 l -1.8,0.6 c -0.1,0.233 -0.083,0.6 0.05,1.1 0.2,0.567 0.317,0.967 0.35,1.2 0.066,0.533 0.05,1.216 -0.05,2.05 -0.267,2.133 -0.767,4.067 -1.5,5.8 -0.466,0.9 -0.767,1.583 -0.9,2.05 -0.267,0.833 -0.2,1.533 0.2,2.1 0.667,0.933 1.951,0.933 3.85,0 z"
   id="path119"
   inkscape:connector-curvature="0" />
		<path
   style="clip-rule:evenodd;fill:#586818;fill-rule:evenodd"
   d="m 53,-34.75 -0.35,-0.05 c -0.433,0.8 -0.25,1.566 0.55,2.3 0.833,0.733 1.65,0.9 2.45,0.5 0.033,-0.533 -0.267,-1.116 -0.9,-1.75 -0.601,-0.633 -1.184,-0.966 -1.75,-1 z"
   id="path121"
   inkscape:connector-curvature="0" />
		<path
   style="clip-rule:evenodd;fill:#586818;fill-rule:evenodd"
   d="m 56.399,-35.05 c 0.134,-0.233 0.4,-0.533 0.8,-0.9 0.3,-0.367 0.417,-0.733 0.35,-1.1 -1.1,0.167 -1.8,0.8 -2.1,1.9 z"
   id="path123"
   inkscape:connector-curvature="0" />
		<path
   style="clip-rule:evenodd;fill:#586818;fill-rule:evenodd"
   d="m 59.8,-35.5 v 0.65 c 0.333,1.366 0.9,1.8 1.7,1.3 -0.1,-0.367 -0.35,-0.717 -0.75,-1.05 -0.5,-0.4 -0.817,-0.7 -0.95,-0.9 z"
   id="path125"
   inkscape:connector-curvature="0" />
		<path
   style="clip-rule:evenodd;fill:#455210;fill-rule:evenodd"
   d="m 21.25,-15.85 c -0.3,-2.167 -0.8,-4.05 -1.5,-5.65 -0.333,-0.8 -0.65,-1.383 -0.95,-1.75 -0.467,-0.2 -0.934,-0.383 -1.4,-0.55 -0.9,-0.367 -1.283,-0.45 -1.15,-0.25 2.833,4 3.3,8.283 1.4,12.85 -0.333,0.767 -1.366,2.65 -3.1,5.65 -1.2,2.1 -1.7,3.367 -1.5,3.8 0.733,1.5 2.217,1.117 4.45,-1.15 1.4,-1.433 2.45,-3.283 3.15,-5.55 0.733,-2.433 0.933,-4.9 0.6,-7.4 z"
   id="path127"
   inkscape:connector-curvature="0" />
		<path
   style="clip-rule:evenodd;fill:#455210;fill-rule:evenodd"
   d="m 6.399,-15.2 c -1.066,1.133 -1.65,2.017 -1.75,2.65 -0.133,0.733 0.134,1.383 0.8,1.95 0.767,0.667 1.783,0.85 3.05,0.55 1.433,-0.333 3.183,-1.583 5.25,-3.75 2.1,-2.167 3.383,-4.066 3.85,-5.7 0.434,-1.366 0.45,-2.633 0.05,-3.8 -0.2,-0.6 -0.45,-1.066 -0.75,-1.4 -0.1,-0.434 -0.417,-0.65 -0.95,-0.65 -0.534,0 -0.784,0.25 -0.75,0.75 0.067,0.6 -0.467,1.633 -1.6,3.1 -1.2,1.6 -2.417,2.75 -3.65,3.45 -1.266,0.734 -2.449,1.684 -3.55,2.85 z"
   id="path129"
   inkscape:connector-curvature="0" />
		<path
   style="clip-rule:evenodd;fill:#455210;fill-rule:evenodd"
   d="m 25.6,-15.25 c 0.167,1.1 0.7,1.817 1.6,2.15 1.067,0.366 2.283,0.366 3.65,0 1.566,-0.434 2.833,-1.25 3.8,-2.45 0.967,-1.233 1.25,-2.85 0.85,-4.85 -0.367,-1.833 -1.117,-3.383 -2.25,-4.65 -0.867,-0.934 -2.333,-1.6 -4.4,-2 L 26,-27.35 c 3.067,1.333 5.05,2.8 5.95,4.4 0.7,1.267 0.733,2.25 0.1,2.95 -0.333,0.333 -1.233,0.733 -2.7,1.2 -1.6,0.5 -2.6,0.883 -3,1.15 -0.701,0.5 -0.951,1.3 -0.75,2.4 z"
   id="path131"
   inkscape:connector-curvature="0" />
		<path
   style="clip-rule:evenodd;fill:#c8de5a;fill-rule:evenodd"
   d="m 24.3,-18.5 c 0,-0.5 -0.117,-1.2 -0.35,-2.1 -0.067,-1.1 -0.217,-2.15 -0.45,-3.15 -0.4,-1.6 -0.917,-2.333 -1.55,-2.2 l -0.5,0.7 c -0.233,0.4 -0.267,1 -0.1,1.8 0.033,0.167 0.2,0.767 0.5,1.8 0.333,1 0.65,1.733 0.95,2.2 0.433,0.9 0.75,1.4 0.95,1.5 0.3,0.167 0.467,0.2 0.5,0.1 0.033,-0.067 0.05,-0.283 0.05,-0.65 z"
   id="path133"
   inkscape:connector-curvature="0" />
		<path
   style="clip-rule:evenodd;fill:#455210;fill-rule:evenodd"
   d="m 41.1,-30.5 -1.6,-0.1 c 0.534,0.1 0.75,0.816 0.65,2.15 l -1.65,1 0.25,1.15 -1.4,0.05 -0.2,3.25 c -0.066,1.367 0.367,2.15 1.3,2.35 0.466,0.133 0.933,0.117 1.4,-0.05 L 42,-23.05 c 1.1,-1.233 1.45,-2.684 1.05,-4.35 -0.334,-1.466 -0.984,-2.5 -1.95,-3.1 z"
   id="path135"
   inkscape:connector-curvature="0" />
		<path
   style="clip-rule:evenodd;fill:#455210;fill-rule:evenodd"
   d="m 44.75,-32.25 -1.45,0.5 c -0.333,0.333 -0.033,0.983 0.9,1.95 0.767,0.733 1.417,1.25 1.95,1.55 0.733,0.4 1.717,0.534 2.95,0.4 0.2,-0.034 0.767,-0.134 1.7,-0.3 0.866,-0.2 1.333,-0.4 1.4,-0.6 -0.3,-0.233 -0.733,-0.5 -1.3,-0.8 -0.667,-0.367 -1.116,-0.633 -1.35,-0.8 -0.233,-0.134 -0.583,-0.434 -1.05,-0.9 -0.433,-0.4 -0.8,-0.683 -1.1,-0.85 -0.6,-0.333 -1.484,-0.383 -2.65,-0.15 z"
   id="path137"
   inkscape:connector-curvature="0" />
		<path
   style="clip-rule:evenodd;fill:#c8de5a;fill-rule:evenodd"
   d="m 58.5,-36.8 c -1.267,0.333 -1.883,0.95 -1.85,1.85 l 0.8,-0.05 c 0.133,0.3 0.517,0.3 1.15,0 0,-0.1 0.066,-0.183 0.2,-0.25 l 0.75,-0.3 1,-0.65 0.05,-0.1 0.8,-0.4 c -0.767,-0.433 -1.734,-0.467 -2.9,-0.1 z"
   id="path139"
   inkscape:connector-curvature="0" />
		<path
   style="clip-rule:evenodd;fill:#c8de5a;fill-rule:evenodd"
   d="m 61.55,-35.3 0.85,0.2 0.7,-0.15 c 0.733,-0.333 1.066,-0.783 1,-1.35 l -1.15,0.55 c -0.367,0.267 -0.834,0.517 -1.4,0.75 z"
   id="path141"
   inkscape:connector-curvature="0" />
		
			<linearGradient
   id="SVGID_8_"
   gradientUnits="userSpaceOnUse"
   x1="2026.0669"
   y1="-17900.215"
   x2="2034.7334"
   y2="-17900.215"
   gradientTransform="matrix(-0.2221,-0.975,0.975,-0.2221,17938.652,-2026.3633)">
			<stop
   offset="0"
   style="stop-color:#677925"
   id="stop143" />
			<stop
   offset="1"
   style="stop-color:#C0DC54"
   id="stop145" />
		</linearGradient>
		<path
   style="clip-rule:evenodd;fill:url(#linearGradient1209);fill-rule:evenodd"
   d="m 50.6,-34.8 c -9.533,2.367 -16.417,4.033 -20.65,5 -2.534,0.566 -6.383,1.017 -11.55,1.35 -5.833,0.4 -8.866,0.617 -9.1,0.65 -1.3,0.2 -2.7,0.333 -4.2,0.4 l -1.9,0.05 c -0.567,0.833 -0.833,1.517 -0.8,2.05 0,0.267 -0.1,0.617 -0.3,1.05 -0.2,0.4 -0.267,0.717 -0.2,0.95 0.134,0.633 0.434,1.517 0.9,2.65 0.133,0.267 0.333,0.483 0.6,0.65 0.3,0.2 0.517,0.384 0.65,0.55 0.3,0.367 0.55,0.566 0.75,0.6 l 5.45,-2.1 c 4.333,-1.567 8.25,-2.667 11.75,-3.3 3.4,-0.6 8.717,-2.116 15.95,-4.55 3.767,-1.267 8.15,-2.767 13.15,-4.5 3.167,-0.934 6.9,-1.434 11.2,-1.5 2.167,-0.066 4,-0.017 5.5,0.15 -2.067,-0.633 -4.783,-0.966 -8.15,-1 -3.4,-0.033 -6.417,0.25 -9.05,0.85 z"
   id="path148"
   inkscape:connector-curvature="0" />
		
			<linearGradient
   id="SVGID_9_"
   gradientUnits="userSpaceOnUse"
   x1="-1597.4902"
   y1="-2023.6216"
   x2="-1582.2859"
   y2="-2023.6216"
   gradientTransform="matrix(0.9751,-0.222,0.222,0.9751,2016.9253,1607.748)">
			<stop
   offset="0"
   style="stop-color:#677925"
   id="stop150" />
			<stop
   offset="1"
   style="stop-color:#C0DC54"
   id="stop152" />
		</linearGradient>
		<path
   style="clip-rule:evenodd;fill:url(#linearGradient1211);fill-rule:evenodd"
   d="m 21.75,-15.55 c -0.3,-2.267 -0.817,-4.217 -1.55,-5.85 -0.333,-0.833 -0.65,-1.433 -0.95,-1.8 -0.466,-0.233 -0.933,-0.434 -1.4,-0.6 -0.934,-0.367 -1.333,-0.45 -1.2,-0.25 1.533,2.233 2.384,4.6 2.55,7.1 0.133,2.1 -0.233,4.167 -1.1,6.2 -0.333,0.8 -1.367,2.75 -3.1,5.85 -1.233,2.2 -1.733,3.517 -1.5,3.95 0.767,1.566 2.267,1.167 4.5,-1.2 1.4,-1.466 2.45,-3.383 3.15,-5.75 0.766,-2.5 0.966,-5.05 0.6,-7.65 z"
   id="path155"
   inkscape:connector-curvature="0" />
		
			<linearGradient
   id="SVGID_10_"
   gradientUnits="userSpaceOnUse"
   x1="-1601.9531"
   y1="-2030.7393"
   x2="-1588.1073"
   y2="-2030.7393"
   gradientTransform="matrix(0.975,-0.2221,0.2221,0.975,2018.0581,1608.4609)">
			<stop
   offset="0"
   style="stop-color:#677925"
   id="stop157" />
			<stop
   offset="1"
   style="stop-color:#C0DC54"
   id="stop159" />
		</linearGradient>
		<path
   style="clip-rule:evenodd;fill:url(#linearGradient1213);fill-rule:evenodd"
   d="m 6.649,-14.95 c -1.066,1.167 -1.65,2.1 -1.75,2.8 -0.133,0.767 0.134,1.45 0.8,2.05 0.767,0.667 1.817,0.85 3.15,0.55 1.434,-0.367 3.2,-1.65 5.3,-3.85 2.134,-2.233 3.434,-4.2 3.9,-5.9 0.433,-1.434 0.433,-2.767 0,-4 -0.2,-0.6 -0.45,-1.066 -0.75,-1.4 -0.1,-0.467 -0.417,-0.7 -0.95,-0.7 -0.566,0 -0.833,0.267 -0.8,0.8 0.066,0.6 -0.467,1.667 -1.6,3.2 -1.2,1.633 -2.417,2.817 -3.65,3.55 -1.299,0.767 -2.516,1.734 -3.65,2.9 z"
   id="path162"
   inkscape:connector-curvature="0" />
		
			<linearGradient
   id="SVGID_11_"
   gradientUnits="userSpaceOnUse"
   x1="-1575.1865"
   y1="-2019.5464"
   x2="-1563.0872"
   y2="-2019.5464"
   gradientTransform="matrix(0.9753,-0.2211,0.2211,0.9753,2007.9927,1602.1299)">
			<stop
   offset="0"
   style="stop-color:#677925"
   id="stop164" />
			<stop
   offset="1"
   style="stop-color:#C0DC54"
   id="stop166" />
		</linearGradient>
		<path
   style="clip-rule:evenodd;fill:url(#linearGradient1215);fill-rule:evenodd"
   d="m 26.149,-14.9 c 0.2,1.167 0.767,1.917 1.7,2.25 1.066,0.4 2.3,0.4 3.7,0 1.566,-0.4 2.833,-1.233 3.8,-2.5 1,-1.267 1.283,-2.95 0.85,-5.05 -0.367,-1.9 -1.133,-3.5 -2.3,-4.8 -0.866,-0.966 -2.35,-1.667 -4.45,-2.1 l -2.9,-0.35 c 3.1,1.4 5.116,2.95 6.05,4.65 0.7,1.267 0.733,2.267 0.1,3 -0.3,0.367 -1.2,0.783 -2.7,1.25 -1.667,0.533 -2.7,0.934 -3.1,1.2 -0.699,0.5 -0.949,1.317 -0.75,2.45 z"
   id="path169"
   inkscape:connector-curvature="0" />
		
			<linearGradient
   id="SVGID_12_"
   gradientUnits="userSpaceOnUse"
   x1="2022.7871"
   y1="-17914.574"
   x2="2031.5488"
   y2="-17914.574"
   gradientTransform="matrix(-0.2224,-0.975,0.975,-0.2224,17940.168,-2028.7754)">
			<stop
   offset="0"
   style="stop-color:#677925"
   id="stop171" />
			<stop
   offset="1"
   style="stop-color:#C0DC54"
   id="stop173" />
		</linearGradient>
		<path
   style="clip-rule:evenodd;fill:url(#linearGradient1217);fill-rule:evenodd"
   d="m 24.8,-17.6 c 0.033,-0.034 0.05,-0.25 0.05,-0.65 0,-0.5 -0.117,-1.233 -0.35,-2.2 -0.433,-3.934 -1.133,-5.784 -2.1,-5.55 l -0.45,0.75 c -0.233,0.434 -0.267,1.05 -0.1,1.85 0.033,0.233 0.2,0.85 0.5,1.85 0.3,1 0.617,1.767 0.95,2.3 0.467,0.9 0.8,1.417 1,1.55 0.3,0.167 0.467,0.2 0.5,0.1 z"
   id="path176"
   inkscape:connector-curvature="0" />
		
			<linearGradient
   id="SVGID_13_"
   gradientUnits="userSpaceOnUse"
   x1="-1568.3867"
   y1="-2032.3105"
   x2="-1561.1818"
   y2="-2032.3105"
   gradientTransform="matrix(0.975,-0.2221,0.2221,0.975,2017.873,1608.3447)">
			<stop
   offset="0"
   style="stop-color:#677925"
   id="stop178" />
			<stop
   offset="1"
   style="stop-color:#C0DC54"
   id="stop180" />
		</linearGradient>
		<path
   style="clip-rule:evenodd;fill:url(#linearGradient1219);fill-rule:evenodd"
   d="m 39.25,-27.45 0.25,1.2 h -1.4 l -0.2,3.4 c -0.066,1.4 0.367,2.216 1.3,2.45 0.466,0.1 0.95,0.067 1.45,-0.1 l 2.15,-2.4 c 1.1,-1.167 1.45,-2.667 1.05,-4.5 -0.333,-1.5 -1,-2.566 -2,-3.2 -0.4,-0.034 -0.767,-0.067 -1.1,-0.1 -0.7,-0.067 -0.867,-0.067 -0.5,0 0.534,0.066 0.75,0.8 0.65,2.2 z"
   id="path183"
   inkscape:connector-curvature="0" />
		
			<linearGradient
   id="SVGID_14_"
   gradientUnits="userSpaceOnUse"
   x1="3035.1226"
   y1="2117.7871"
   x2="3042.7119"
   y2="2117.7871"
   gradientTransform="matrix(0.9487,0.3162,-0.3162,0.9487,-2164.4697,-2999.9419)">
			<stop
   offset="0"
   style="stop-color:#677925"
   id="stop185" />
			<stop
   offset="1"
   style="stop-color:#C0DC54"
   id="stop187" />
		</linearGradient>
		<path
   style="clip-rule:evenodd;fill:url(#linearGradient1221);fill-rule:evenodd"
   d="m 45.6,-32.4 -1.5,0.5 c -0.333,0.333 -0.017,1 0.95,2 0.733,0.733 1.383,1.284 1.95,1.65 0.833,0.467 1.833,0.6 3,0.4 1.967,-0.167 3.017,-0.467 3.15,-0.9 -0.3,-0.267 -0.733,-0.55 -1.3,-0.85 -0.667,-0.367 -1.117,-0.634 -1.35,-0.8 -0.933,-0.9 -1.683,-1.517 -2.25,-1.85 -0.601,-0.333 -1.483,-0.383 -2.65,-0.15 z"
   id="path190"
   inkscape:connector-curvature="0" />
		
			<linearGradient
   id="SVGID_15_"
   gradientUnits="userSpaceOnUse"
   x1="2003.561"
   y1="-17861.363"
   x2="2006.4055"
   y2="-17861.363"
   gradientTransform="matrix(-0.2197,-0.9756,0.9756,-0.2197,17923.518,-2002.3364)">
			<stop
   offset="0"
   style="stop-color:#677925"
   id="stop192" />
			<stop
   offset="1"
   style="stop-color:#C0DC54"
   id="stop194" />
		</linearGradient>
		<path
   style="clip-rule:evenodd;fill:url(#linearGradient1223);fill-rule:evenodd"
   d="m 57.45,-34.8 -1.15,-0.05 c 0.2,0.8 0.4,1.35 0.6,1.65 0.333,0.466 0.833,0.7 1.5,0.7 0.634,0 1.033,-0.083 1.2,-0.25 L 59.85,-33 c -0.066,-0.1 -0.167,-0.216 -0.3,-0.35 -0.167,-0.233 -0.517,-0.483 -1.05,-0.75 -0.534,-0.333 -0.884,-0.567 -1.05,-0.7 z"
   id="path197"
   inkscape:connector-curvature="0" />
		
			<linearGradient
   id="SVGID_16_"
   gradientUnits="userSpaceOnUse"
   x1="1991.7124"
   y1="-17849.938"
   x2="1993.6593"
   y2="-17849.938"
   gradientTransform="matrix(-0.2183,-0.9759,0.9759,-0.2183,17914.459,-1988.0215)">
			<stop
   offset="0"
   style="stop-color:#677925"
   id="stop199" />
			<stop
   offset="1"
   style="stop-color:#C0DC54"
   id="stop201" />
		</linearGradient>
		<path
   style="clip-rule:evenodd;fill:url(#linearGradient1225);fill-rule:evenodd"
   d="m 58.45,-35.2 c 0.233,0.4 0.883,0.267 1.95,-0.4 1.3,-0.867 1.983,-1.3 2.05,-1.3 -0.7,-0.466 -1.667,-0.533 -2.9,-0.2 -1.3,0.4 -1.934,1.05 -1.9,1.95 z"
   id="path204"
   inkscape:connector-curvature="0" />
		
			<linearGradient
   id="SVGID_17_"
   gradientUnits="userSpaceOnUse"
   x1="2060.1572"
   y1="-17893.348"
   x2="2063.2622"
   y2="-17893.348"
   gradientTransform="matrix(-0.2254,-0.9743,0.9743,-0.2254,17959.568,-2059.7827)">
			<stop
   offset="0"
   style="stop-color:#677925"
   id="stop206" />
			<stop
   offset="1"
   style="stop-color:#C0DC54"
   id="stop208" />
		</linearGradient>
		<path
   style="clip-rule:evenodd;fill:url(#linearGradient1227);fill-rule:evenodd"
   d="m 62.1,-35.2 -2.15,-0.3 c 0,0.367 0.5,0.733 1.5,1.1 1.067,0.367 1.667,0.8 1.8,1.3 0.3,0.033 0.534,-0.083 0.7,-0.35 0.167,-0.233 0.167,-0.483 0,-0.75 -0.1,-0.167 -0.383,-0.35 -0.85,-0.55 -0.567,-0.233 -0.9,-0.383 -1,-0.45 z"
   id="path211"
   inkscape:connector-curvature="0" />
		
			<linearGradient
   id="SVGID_18_"
   gradientUnits="userSpaceOnUse"
   x1="2079.9854"
   y1="-17902.559"
   x2="2081.5256"
   y2="-17902.559"
   gradientTransform="matrix(-0.2272,-0.9738,0.9738,-0.2272,17970.728,-2077.7197)">
			<stop
   offset="0"
   style="stop-color:#677925"
   id="stop213" />
			<stop
   offset="1"
   style="stop-color:#C0DC54"
   id="stop215" />
		</linearGradient>
		<path
   style="clip-rule:evenodd;fill:url(#linearGradient1229);fill-rule:evenodd"
   d="m 63.7,-35.25 c 0.433,-0.066 0.833,-0.283 1.2,-0.65 0.367,-0.433 0.45,-0.85 0.25,-1.25 -0.433,0.034 -0.967,0.284 -1.6,0.75 -0.634,0.467 -1.15,0.717 -1.55,0.75 z"
   id="path218"
   inkscape:connector-curvature="0" />
		<path
   style="clip-rule:evenodd;fill:#c8de5a;fill-rule:evenodd"
   d="m 64.7,-35.35 c 1.367,-0.067 2.716,-0.067 4.05,0 0,-0.3 -0.083,-0.517 -0.25,-0.65 -0.167,-0.066 -0.4,-0.066 -0.7,0 -0.4,0.1 -0.634,0.15 -0.7,0.15 l -0.1,-0.2 c -1.101,0 -1.867,0.234 -2.3,0.7 z"
   id="path220"
   inkscape:connector-curvature="0" />
		
			<linearGradient
   id="SVGID_19_"
   gradientUnits="userSpaceOnUse"
   x1="2068.6216"
   y1="-17894.553"
   x2="2071.1626"
   y2="-17894.553"
   gradientTransform="matrix(-0.2263,-0.9741,0.9741,-0.2263,17964.889,-2068.3232)">
			<stop
   offset="0"
   style="stop-color:#677925"
   id="stop222" />
			<stop
   offset="1"
   style="stop-color:#C0DC54"
   id="stop224" />
		</linearGradient>
		<path
   style="clip-rule:evenodd;fill:url(#linearGradient1231);fill-rule:evenodd"
   d="m 67.25,-35.25 c 0.2,-0.433 0.1,-0.8 -0.3,-1.1 -0.133,-0.1 -0.417,-0.1 -0.85,0 -0.333,0.1 -0.617,0.216 -0.85,0.35 -0.233,0.2 -0.367,0.467 -0.4,0.8 -0.066,0.3 -0.017,0.6 0.15,0.9 0.333,0.566 0.983,0.684 1.95,0.35 0.033,-0.233 -0.034,-0.417 -0.2,-0.55 -0.161,-0.096 -0.344,-0.113 -0.55,-0.05 l 0.15,-0.05 c 0.433,-0.033 0.733,-0.25 0.9,-0.65 z"
   id="path227"
   inkscape:connector-curvature="0" />
		
			<linearGradient
   id="SVGID_20_"
   gradientUnits="userSpaceOnUse"
   x1="2036.8149"
   y1="-17872.875"
   x2="2040.1729"
   y2="-17872.875"
   gradientTransform="matrix(-0.2232,-0.9748,0.9748,-0.2232,17945.633,-2037.4907)">
			<stop
   offset="0"
   style="stop-color:#677925"
   id="stop229" />
			<stop
   offset="1"
   style="stop-color:#C0DC54"
   id="stop231" />
		</linearGradient>
		<path
   style="clip-rule:evenodd;fill:url(#linearGradient1233);fill-rule:evenodd"
   d="m 65.75,-33.8 c 0.067,0.566 0.583,0.867 1.55,0.9 0.967,0.067 1.316,-0.167 1.05,-0.7 0.066,0 0.55,0.05 1.45,0.15 0.1,-0.2 0.083,-0.367 -0.05,-0.5 0.767,0.066 1.217,0.083 1.35,0.05 0.566,-0.033 0.85,-0.267 0.85,-0.7 -0.034,-0.434 -0.317,-0.634 -0.85,-0.6 -0.667,0.133 -1.1,0.216 -1.3,0.25 0.167,-0.633 0.133,-1.034 -0.1,-1.2 -0.167,-0.1 -0.4,-0.117 -0.7,-0.05 -0.333,0.1 -0.567,0.167 -0.7,0.2 l -0.1,-0.25 c -1.467,0 -2.367,0.4 -2.7,1.2 z"
   id="path234"
   inkscape:connector-curvature="0" />
		<path
   style="clip-rule:evenodd;fill:#805740;fill-rule:evenodd"
   d="m 68.5,-32.75 c 0.034,-0.066 -0.017,-0.35 -0.15,-0.85 0,-0.067 -0.133,-0.3 -0.4,-0.7 -0.2,-0.233 -0.483,-0.434 -0.85,-0.6 -0.434,-0.2 -0.767,-0.35 -1,-0.45 l -0.4,0.2 c 0.167,0.1 0.333,0.367 0.5,0.8 0.267,0.5 0.466,0.816 0.6,0.95 0.233,0.367 0.467,0.617 0.7,0.75 0.133,0.067 0.3,0.1 0.5,0.1 0.267,-0.033 0.433,-0.1 0.5,-0.2 z"
   id="path236"
   inkscape:connector-curvature="0" />
		<path
   style="clip-rule:evenodd;fill:#805740;fill-rule:evenodd"
   d="M 65.95,-35.4 67,-35.6 c 0.467,-0.1 0.983,-0.333 1.55,-0.7 0.366,-0.267 0.55,-0.45 0.55,-0.55 0.1,-0.434 -0.167,-0.6 -0.8,-0.5 -0.367,0.066 -0.767,0.383 -1.2,0.95 -0.43,0.595 -0.814,0.928 -1.15,1 z"
   id="path238"
   inkscape:connector-curvature="0" />
		<path
   style="clip-rule:evenodd;fill:#805740;fill-rule:evenodd"
   d="m 69,-34.95 -1,-0.2 0.65,0.85 c 0.233,0.367 0.467,0.633 0.7,0.8 0.4,0.4 0.733,0.5 1,0.3 0.267,-0.2 0.167,-0.534 -0.3,-1 -0.401,-0.366 -0.75,-0.616 -1.05,-0.75 z"
   id="path240"
   inkscape:connector-curvature="0" />
		<path
   style="clip-rule:evenodd;fill:#805740;fill-rule:evenodd"
   d="m 69.55,-35.4 -0.45,0.2 c 0.434,0.133 0.684,0.2 0.75,0.2 l 0.55,-0.1 c 0.134,-0.034 0.317,-0.083 0.55,-0.15 0.2,-0.066 0.317,-0.2 0.35,-0.4 0.066,-0.367 -0.184,-0.483 -0.75,-0.35 -0.533,0.167 -0.867,0.367 -1,0.6 z"
   id="path242"
   inkscape:connector-curvature="0" />
		<path
   style="clip-rule:evenodd;fill:#805740;fill-rule:evenodd"
   d="m 71.85,-34.5 -1.55,-0.3 0.75,0.9 c 0.533,0.333 1.05,0.483 1.55,0.45 0.4,-0.1 0.5,-0.333 0.3,-0.7 -0.167,-0.367 -0.517,-0.483 -1.05,-0.35 z"
   id="path244"
   inkscape:connector-curvature="0" />
		<path
   style="clip-rule:evenodd;fill:#60402f;fill-rule:evenodd"
   d="m 72.45,-34.3 -0.05,-0.3 c -1,-0.233 -1.683,-0.267 -2.05,-0.1 0,0.167 0.133,0.333 0.4,0.5 0.2,0.133 0.383,0.216 0.55,0.25 0.2,0.066 0.417,0.05 0.65,-0.05 0.133,-0.033 0.317,-0.1 0.55,-0.2 z"
   id="path246"
   inkscape:connector-curvature="0" />
		<path
   style="clip-rule:evenodd;fill:#60402f;fill-rule:evenodd"
   d="m 68.85,-34.6 1.15,0.65 c -0.233,-0.534 -0.517,-0.85 -0.85,-0.95 l -0.95,-0.3 -0.2,0.1 c -0.033,0.133 0.067,0.233 0.3,0.3 0.133,0.067 0.316,0.133 0.55,0.2 z"
   id="path248"
   inkscape:connector-curvature="0" />
		<path
   style="clip-rule:evenodd;fill:#60402f;fill-rule:evenodd"
   d="m 70.6,-35.9 -0.25,0.25 c -0.533,0.067 -0.917,0.15 -1.15,0.25 -0.233,0.133 -0.417,0.233 -0.55,0.3 l -0.45,0.15 c 0.4,0.167 0.817,0.133 1.25,-0.1 0.733,-0.367 1.116,-0.65 1.15,-0.85 z"
   id="path250"
   inkscape:connector-curvature="0" />
		<path
   style="clip-rule:evenodd;fill:#60402f;fill-rule:evenodd"
   d="m 68.2,-36.95 v -0.45 c -0.233,0.067 -0.45,0.233 -0.65,0.5 -0.233,0.3 -0.417,0.517 -0.55,0.65 -0.233,0.2 -0.4,0.35 -0.5,0.45 -0.233,0.233 -0.283,0.45 -0.15,0.65 0.434,-0.033 0.816,-0.283 1.15,-0.75 0.433,-0.566 0.666,-0.916 0.7,-1.05 z"
   id="path252"
   inkscape:connector-curvature="0" />
		<path
   style="clip-rule:evenodd;fill:#60402f;fill-rule:evenodd"
   d="m 66.75,-35.1 -0.65,-0.05 c 0.066,0.333 0.333,0.633 0.8,0.9 0.467,0.267 0.85,0.3 1.15,0.1 -0.1,-0.233 -0.283,-0.466 -0.55,-0.7 -0.334,-0.266 -0.584,-0.35 -0.75,-0.25 z"
   id="path254"
   inkscape:connector-curvature="0" />
		<path
   style="clip-rule:evenodd;fill:#c98a69;fill-rule:evenodd"
   d="m 68.899,-36.75 -0.15,-0.2 c -0.333,0.167 -0.55,0.316 -0.65,0.45 -0.267,0.267 -0.383,0.467 -0.35,0.6 0.1,-0.066 0.333,-0.183 0.7,-0.35 0.334,-0.2 0.484,-0.366 0.45,-0.5 z"
   id="path256"
   inkscape:connector-curvature="0" />
		<path
   style="clip-rule:evenodd;fill:#c98a69;fill-rule:evenodd"
   d="M 68.3,-33.15 68,-33.7 c -0.267,0.066 -0.417,0.117 -0.45,0.15 -0.1,0.066 -0.117,0.217 -0.05,0.45 0.1,0.267 0.267,0.4 0.5,0.4 0.233,0.033 0.333,-0.116 0.3,-0.45 z"
   id="path258"
   inkscape:connector-curvature="0" />
		<path
   style="clip-rule:evenodd;fill:#c98a69;fill-rule:evenodd"
   d="m 70.399,-33.35 -0.3,-0.5 c -0.033,0 -0.2,0.033 -0.5,0.1 0.033,0.3 0.117,0.5 0.25,0.6 0.168,0.133 0.351,0.067 0.55,-0.2 z"
   id="path260"
   inkscape:connector-curvature="0" />
		<path
   style="clip-rule:evenodd;fill:#c98a69;fill-rule:evenodd"
   d="m 72.7,-33.6 0.05,-0.3 c -0.067,-0.066 -0.216,-0.033 -0.45,0.1 l 0.1,0.45 c 0.3,0 0.4,-0.083 0.3,-0.25 z"
   id="path262"
   inkscape:connector-curvature="0" />
		<path
   style="clip-rule:evenodd;fill:#c98a69;fill-rule:evenodd"
   d="m 69.2,-35.1 -0.35,-0.2 c -0.133,-0.233 -0.467,-0.267 -1,-0.1 0.066,0.534 0.25,0.784 0.55,0.75 0.134,-0.033 0.267,-0.117 0.4,-0.25 0.166,-0.133 0.3,-0.2 0.4,-0.2 z"
   id="path264"
   inkscape:connector-curvature="0" />
		<path
   style="clip-rule:evenodd;fill:#455210;fill-rule:evenodd"
   d="m 20.899,-9.8 c 0.934,-1.967 1.217,-3.883 0.85,-5.75 -0.533,-2.934 -1.067,-4.9 -1.6,-5.9 l -0.75,0.3 c 0.634,1.034 1.117,2.4 1.45,4.1 0.633,3.333 0.167,6.566 -1.4,9.7 z"
   id="path266"
   inkscape:connector-curvature="0" />
		<path
   style="clip-rule:evenodd;fill:#455210;fill-rule:evenodd"
   d="m 23.7,-24.3 -0.8,-0.85 c 0.2,0.9 0.3,1.583 0.3,2.05 0,0.033 -0.083,0.3 -0.25,0.8 -0.133,0.4 -0.133,0.667 0,0.8 0.3,-0.733 0.583,-1.1 0.85,-1.1 0.133,0.767 0.267,1.316 0.4,1.65 0.033,-0.067 0,-0.4 -0.1,-1 -0.234,-0.9 -0.367,-1.683 -0.4,-2.35 z"
   id="path268"
   inkscape:connector-curvature="0" />
		<path
   style="clip-rule:evenodd;fill:#455210;fill-rule:evenodd"
   d="m 47.05,-29.35 c 0,-0.1 -0.067,-0.384 -0.2,-0.85 -0.1,-0.4 -0.066,-0.617 0.1,-0.65 0.067,-0.034 0.317,0.167 0.75,0.6 0.8,0.467 1.567,0.7 2.3,0.7 -0.067,-0.066 -0.65,-0.4 -1.75,-1 -0.833,-0.434 -1.25,-0.867 -1.25,-1.3 0.267,-0.034 0.534,-0.134 0.8,-0.3 -0.967,0.333 -1.467,0.284 -1.5,-0.15 l -0.65,-0.2 c 0.367,0.867 0.617,1.517 0.75,1.95 0.1,0.3 0.184,0.533 0.25,0.7 0.1,0.267 0.233,0.433 0.4,0.5 z"
   id="path270"
   inkscape:connector-curvature="0" />
		<path
   style="clip-rule:evenodd;fill:#455210;fill-rule:evenodd"
   d="m 57.5,-34.85 -0.3,0.3 c 0.067,0.3 0.183,0.566 0.35,0.8 0.233,0.3 0.467,0.384 0.7,0.25 -0.434,-0.4 -0.684,-0.85 -0.75,-1.35 z"
   id="path272"
   inkscape:connector-curvature="0" />
		<path
   style="clip-rule:evenodd;fill:#455210;fill-rule:evenodd"
   d="m 58.55,-34.85 c 0.1,-0.3 0.566,-0.684 1.4,-1.15 -0.633,0.1 -1.083,0.167 -1.35,0.2 -0.467,0.1 -0.8,0.367 -1,0.8 z"
   id="path274"
   inkscape:connector-curvature="0" />
		<path
   style="clip-rule:evenodd;fill:#455210;fill-rule:evenodd"
   d="m 40.5,-23.2 1.05,-0.75 c 0.767,-0.667 1.3,-1.383 1.6,-2.15 0.333,-0.767 0.384,-1.534 0.15,-2.3 -0.1,-0.4 -0.25,-0.8 -0.45,-1.2 0.167,0.4 0.2,1.017 0.1,1.85 -0.2,1.7 -1.017,3.217 -2.45,4.55 z"
   id="path276"
   inkscape:connector-curvature="0" />
		<path
   style="clip-rule:evenodd;fill:#455210;fill-rule:evenodd"
   d="m 31,-15.6 c 3.567,-0.7 5.267,-2.233 5.1,-4.6 -0.066,-1.167 -0.5,-2.267 -1.3,-3.3 0.866,1.267 1.15,2.65 0.85,4.15 -0.2,0.9 -1.033,1.8 -2.5,2.7 z"
   id="path278"
   inkscape:connector-curvature="0" />
		
			<linearGradient
   id="SVGID_21_"
   gradientUnits="userSpaceOnUse"
   x1="-1602.7812"
   y1="-2040.1553"
   x2="-1586.3702"
   y2="-2040.1553"
   gradientTransform="matrix(0.975,-0.2224,0.2224,0.975,2021.2852,1610.4873)">
			<stop
   offset="0"
   style="stop-color:#67791E"
   id="stop280" />
			<stop
   offset="1"
   style="stop-color:#CAE55B"
   id="stop282" />
		</linearGradient>
		<path
   style="clip-rule:evenodd;fill:url(#linearGradient1235);fill-rule:evenodd"
   d="m 23.95,-26.2 c -0.233,-1.067 -1.15,-1.717 -2.75,-1.95 -1.1,-0.167 -2.183,-0.117 -3.25,0.15 -0.133,0.034 -1.534,0.083 -4.2,0.15 -2.534,0.067 -4.45,0.284 -5.75,0.65 -1.4,0.4 -2,1.2 -1.8,2.4 0.567,1.5 0.966,2.65 1.2,3.45 0.367,1.2 1.233,1.866 2.6,2 1.4,0.133 3.733,-0.25 7,-1.15 2.933,-0.8 4.95,-1.783 6.05,-2.95 0.833,-0.866 1.133,-1.783 0.9,-2.75 z"
   id="path285"
   inkscape:connector-curvature="0" />
		<path
   style="clip-rule:evenodd;fill:#455210;fill-rule:evenodd"
   d="m 12.6,-23.8 h 1.8 c 1.467,-0.066 2.817,-0.217 4.05,-0.45 1.966,-0.4 3.8,-1.05 5.5,-1.95 -0.801,-0.366 -4.584,0.433 -11.35,2.4 z"
   id="path287"
   inkscape:connector-curvature="0" />
		<path
   style="clip-rule:evenodd;fill:#c8de5a;fill-rule:evenodd"
   d="m 11.85,-21.1 c 0,0.533 0.283,0.8 0.85,0.8 0.8,-0.066 1.433,-0.35 1.9,-0.85 l 0.4,-0.7 c 0,-0.034 0.034,-0.25 0.1,-0.65 0.066,-0.3 0.133,-0.483 0.2,-0.55 l -0.25,-0.1 c -0.434,0.167 -0.767,0.267 -1,0.3 l -0.45,0.1 c -0.4,0.134 -0.767,0.35 -1.1,0.65 -0.467,0.467 -0.684,0.8 -0.65,1 z"
   id="path289"
   inkscape:connector-curvature="0" />
		<path
   style="clip-rule:evenodd;fill:#cae15b;fill-rule:evenodd"
   d="M 18.149,-22.8 18,-23.4 c -0.4,0.2 -0.716,0.333 -0.95,0.4 l -0.65,0.35 c -0.267,0.233 -0.45,0.483 -0.55,0.75 -0.133,0.367 -0.066,0.667 0.2,0.9 0.133,0.134 0.383,0.15 0.75,0.05 0.3,-0.1 0.533,-0.233 0.7,-0.4 0.566,-0.5 0.783,-0.983 0.649,-1.45 z"
   id="path291"
   inkscape:connector-curvature="0" />
		<path
   style="clip-rule:evenodd;fill:#e3fc67;fill-rule:evenodd"
   d="m 21.6,-23.7 -0.55,-0.5 c -0.167,0.033 -0.317,0.1 -0.45,0.2 -0.2,0.2 -0.316,0.317 -0.35,0.35 l -0.5,0.45 c -0.5,0.633 -0.5,0.95 0,0.95 0.6,0.034 1.216,-0.45 1.85,-1.45 z"
   id="path293"
   inkscape:connector-curvature="0" />
		<path
   style="clip-rule:evenodd;fill:#e3fc67;fill-rule:evenodd"
   d="m 23.55,-24.45 -0.1,-1.25 c -0.034,0.133 -0.25,0.483 -0.65,1.05 -0.3,0.434 -0.384,0.784 -0.25,1.05 0.233,0 0.45,-0.083 0.65,-0.25 0.199,-0.167 0.317,-0.366 0.35,-0.6 z"
   id="path295"
   inkscape:connector-curvature="0" />
		<path
   style="clip-rule:evenodd;fill:#e3fc67;fill-rule:evenodd"
   d="m 23.149,-26.65 -0.2,-0.5 c -0.367,-0.433 -0.817,-0.566 -1.35,-0.4 -0.4,0.066 -0.517,0.217 -0.35,0.45 0.233,0.233 0.534,0.417 0.9,0.55 0.467,0.167 0.801,0.133 1,-0.1 z"
   id="path297"
   inkscape:connector-curvature="0" />
		<path
   style="clip-rule:evenodd;fill:#e3fc67;fill-rule:evenodd"
   d="m 20.25,-26.45 -0.6,-0.45 c -0.167,-0.133 -0.433,-0.2 -0.8,-0.2 -0.4,-0.034 -0.684,0.033 -0.85,0.2 -0.133,0.133 -0.15,0.284 -0.05,0.45 0.1,0.166 0.233,0.283 0.4,0.35 0.4,0.167 0.767,0.25 1.1,0.25 0.466,0 0.733,-0.2 0.8,-0.6 z"
   id="path299"
   inkscape:connector-curvature="0" />
		<path
   style="clip-rule:evenodd;fill:#cae15b;fill-rule:evenodd"
   d="m 17.149,-26 -0.5,-0.45 c -0.433,-0.467 -0.85,-0.717 -1.25,-0.75 l -0.55,0.05 c -0.533,0.1 -0.684,0.4 -0.45,0.9 0.167,0.3 0.767,0.6 1.8,0.9 0.634,0.2 0.95,-0.016 0.95,-0.65 z"
   id="path301"
   inkscape:connector-curvature="0" />
		<path
   style="clip-rule:evenodd;fill:#c8de5a;fill-rule:evenodd"
   d="m 14.3,-24.7 -0.45,-1.2 c -0.2,-0.667 -0.75,-0.933 -1.65,-0.8 -0.5,0.066 -0.867,0.183 -1.1,0.35 l -0.7,0.55 c 0.134,0.434 0.367,0.717 0.7,0.85 0.133,0.066 0.533,0.167 1.2,0.3 0.599,0.1 1.266,0.084 2,-0.05 z"
   id="path303"
   inkscape:connector-curvature="0" />
		<path
   style="clip-rule:evenodd;fill:#c8de5a;fill-rule:evenodd"
   d="m 9.5,-14.75 c 0.133,0.034 0.35,0.017 0.65,-0.05 0.3,-0.1 0.5,-0.117 0.6,-0.05 -0.367,0.466 -0.533,0.783 -0.5,0.95 0.233,-0.033 0.683,-0.267 1.35,-0.7 l 1.65,-1.05 c 0.534,-0.4 0.867,-0.667 1,-0.8 l 0.9,-0.75 c 0.1,-0.133 0.3,-0.35 0.6,-0.65 0.233,-0.3 0.367,-0.567 0.4,-0.8 l 0.25,-1.3 c -0.133,0.233 -0.4,0.45 -0.8,0.65 -0.5,0.2 -0.833,0.35 -1,0.45 l -1.35,0.6 c -0.6,0.233 -0.917,0.417 -0.95,0.55 -0.033,0.267 0.183,0.45 0.65,0.55 -0.167,0.133 -0.417,0.233 -0.75,0.3 -0.433,0.1 -0.7,0.167 -0.8,0.2 l -0.9,0.4 c -0.433,0.167 -0.733,0.35 -0.9,0.55 -0.434,0.5 -0.467,0.817 -0.1,0.95 z"
   id="path305"
   inkscape:connector-curvature="0" />
		<path
   style="clip-rule:evenodd;fill:#c8de5a;fill-rule:evenodd"
   d="m 9.1,-12.95 0.45,-0.35 c -0.6,0.033 -1.134,0.1 -1.6,0.2 -0.967,0.2 -1.284,0.45 -0.95,0.75 0.067,0.066 0.35,0.033 0.85,-0.1 0.167,-0.033 0.583,-0.2 1.25,-0.5 z"
   id="path307"
   inkscape:connector-curvature="0" />
		<path
   style="clip-rule:evenodd;fill:#c8de5a;fill-rule:evenodd"
   d="m 19.45,-8.15 c 0.233,-0.433 0.483,-0.683 0.75,-0.75 l 0.5,-1.65 c 0.133,-0.367 0.216,-0.867 0.25,-1.5 0.033,-0.333 0.05,-0.85 0.05,-1.55 0.067,-0.4 0.083,-0.733 0.05,-1 -0.134,-0.767 -0.283,-1.367 -0.45,-1.8 -0.167,0.167 -0.217,0.467 -0.15,0.9 0.133,0.434 0.2,0.733 0.2,0.9 -0.1,0.633 -0.167,1.083 -0.2,1.35 -0.034,0.3 -0.3,0.833 -0.8,1.6 -0.366,0.467 -0.467,0.833 -0.3,1.1 h 0.2 c -1,0.633 -1.367,1.283 -1.1,1.95 l 0.2,-0.05 c 0.167,0.233 -0.05,0.867 -0.65,1.9 -0.466,1.067 -0.85,1.85 -1.15,2.35 0.2,-0.033 0.583,-0.466 1.15,-1.3 l 0.9,-1.4 c 0.133,-0.2 0.316,-0.55 0.55,-1.05 z"
   id="path309"
   inkscape:connector-curvature="0" />
		<path
   style="clip-rule:evenodd;fill:#c8de5a;fill-rule:evenodd"
   d="m 24,-20.5 -0.75,-1.15 c 0.3,2.1 0.633,3.017 1,2.75 l -0.15,-0.65 z"
   id="path311"
   inkscape:connector-curvature="0" />
		<path
   style="clip-rule:evenodd;fill:#c8de5a;fill-rule:evenodd"
   d="m 33.95,-17.5 0.25,-0.7 c -0.233,-0.1 -0.75,-0.067 -1.55,0.1 -0.333,0.033 -0.583,0.066 -0.75,0.1 -0.366,0.1 -0.533,0.25 -0.5,0.45 0.067,0.367 0.45,0.5 1.15,0.4 0.366,-0.066 0.833,-0.183 1.4,-0.35 z"
   id="path313"
   inkscape:connector-curvature="0" />
		<path
   style="clip-rule:evenodd;fill:#c8de5a;fill-rule:evenodd"
   d="M 35.25,-19.55 34.9,-19.9 c -0.167,-0.066 -0.45,-0.017 -0.85,0.15 -0.4,0.134 -0.583,0.3 -0.55,0.5 0,0.167 0.083,0.233 0.25,0.2 0.1,0 0.25,-0.033 0.45,-0.1 0.067,-0.033 0.267,-0.066 0.6,-0.1 0.3,-0.066 0.45,-0.167 0.45,-0.3 z"
   id="path315"
   inkscape:connector-curvature="0" />
		<path
   style="clip-rule:evenodd;fill:#c8de5a;fill-rule:evenodd"
   d="m 35,-21.35 -0.15,-0.35 c -0.6,0.167 -0.783,0.367 -0.55,0.6 0.066,0.066 0.2,0.066 0.4,0 0.199,-0.033 0.3,-0.116 0.3,-0.25 z"
   id="path317"
   inkscape:connector-curvature="0" />
		<path
   style="clip-rule:evenodd;fill:#c8de5a;fill-rule:evenodd"
   d="m 33.75,-14.7 c 0.367,-0.034 0.617,-0.2 0.75,-0.5 0.067,-0.167 0.15,-0.467 0.25,-0.9 l -0.2,-0.5 c -0.267,0.366 -0.467,0.733 -0.6,1.1 -0.2,0.434 -0.267,0.7 -0.2,0.8 z"
   id="path319"
   inkscape:connector-curvature="0" />
		<path
   style="clip-rule:evenodd;fill:#c8de5a;fill-rule:evenodd"
   d="m 32.649,-15.15 -0.3,0.3 c -0.633,0.4 -0.967,0.616 -1,0.65 -0.367,0.333 -0.483,0.667 -0.35,1 0.467,-0.034 0.833,-0.267 1.1,-0.7 0.134,-0.233 0.317,-0.65 0.55,-1.25 z"
   id="path321"
   inkscape:connector-curvature="0" />
		<path
   style="clip-rule:evenodd;fill:#c8de5a;fill-rule:evenodd"
   d="m 40.7,-24.35 -0.4,-0.15 c -0.6,-0.433 -1.184,-0.417 -1.75,0.05 l 0.2,0.9 c 1.133,-0.1 1.783,-0.367 1.95,-0.8 z"
   id="path323"
   inkscape:connector-curvature="0" />
		<path
   style="clip-rule:evenodd;fill:#c8de5a;fill-rule:evenodd"
   d="m 41.899,-25.8 -0.2,-0.45 c -0.2,-0.333 -0.45,-0.466 -0.75,-0.4 -0.333,0.133 -0.6,0.233 -0.8,0.3 0.067,0.533 0.167,0.866 0.3,1 0.2,0.133 0.466,0.15 0.8,0.05 0.334,-0.1 0.551,-0.266 0.65,-0.5 z"
   id="path325"
   inkscape:connector-curvature="0" />
		<path
   style="clip-rule:evenodd;fill:#c8de5a;fill-rule:evenodd"
   d="m 42.7,-28.15 -0.3,-1.25 c -0.4,0.1 -0.633,0.467 -0.7,1.1 -0.067,0.633 0.05,1.1 0.35,1.4 0.267,-0.167 0.45,-0.333 0.55,-0.5 0.066,-0.133 0.1,-0.383 0.1,-0.75 z"
   id="path327"
   inkscape:connector-curvature="0" />
		<path
   style="clip-rule:evenodd;fill:#c8de5a;fill-rule:evenodd"
   d="m 44.05,-25.35 -0.4,-1.3 c -0.467,0.767 -0.5,1.684 -0.1,2.75 0.266,-0.2 0.433,-0.683 0.5,-1.45 z"
   id="path329"
   inkscape:connector-curvature="0" />
		<path
   style="clip-rule:evenodd;fill:#c8de5a;fill-rule:evenodd"
   d="m 48.6,-32.1 c -0.167,0 -0.383,0.1 -0.65,0.3 0.1,0.133 0.216,0.333 0.35,0.6 0.167,0.167 0.483,0.367 0.95,0.6 l 1.35,1.05 c 0.1,0.033 0.25,0.15 0.45,0.35 0.2,0.167 0.366,0.25 0.5,0.25 0.033,-0.2 -0.05,-0.383 -0.25,-0.55 -0.267,-0.167 -0.45,-0.283 -0.55,-0.35 z"
   id="path331"
   inkscape:connector-curvature="0" />
		<path
   style="clip-rule:evenodd;fill:#c8de5a;fill-rule:evenodd"
   d="m 49.5,-29.2 -1.2,0.05 c -0.3,0.067 -0.317,0.25 -0.05,0.55 0.233,0.267 0.467,0.433 0.7,0.5 0.4,0.1 0.867,0.017 1.4,-0.25 -0.167,-0.233 -0.451,-0.516 -0.85,-0.85 z"
   id="path333"
   inkscape:connector-curvature="0" />
	</g>
</symbol>
<use
   xlink:href="#rubeweed_x5F_1"
   width="72.997002"
   height="39.854"
   x="0.0020000001"
   y="-39.868"
   transform="matrix(3.5069681,0,0,-3.5069681,9.2913801,787.18347)"
   style="overflow:visible"
   id="use337" />
</svg>