<?xml version="1.0" encoding="UTF-8" standalone="no"?>
<!-- Generator: Adobe Illustrator 15.1.0, SVG Export Plug-In . SVG Version: 6.00 Build 0)  -->

<svg
   xmlns:dc="http://purl.org/dc/elements/1.1/"
   xmlns:cc="http://creativecommons.org/ns#"
   xmlns:rdf="http://www.w3.org/1999/02/22-rdf-syntax-ns#"
   xmlns:svg="http://www.w3.org/2000/svg"
   xmlns="http://www.w3.org/2000/svg"
   xmlns:xlink="http://www.w3.org/1999/xlink"
   xmlns:sodipodi="http://sodipodi.sourceforge.net/DTD/sodipodi-0.dtd"
   xmlns:inkscape="http://www.inkscape.org/namespaces/inkscape"
   version="1.1"
   id="flash0.ai"
   x="0px"
   y="0px"
   width="256"
   height="256"
   viewBox="0 0 256.00001 256"
   xml:space="preserve"
   sodipodi:docname="silvertongue.svg"
   inkscape:version="0.92.4 (5da689c313, 2019-01-14)"
   inkscape:export-xdpi="10.5"
   inkscape:export-ydpi="10.5"><title
   id="title1082">Silvertongue</title><metadata
   id="metadata275"><rdf:RDF><cc:Work
       rdf:about=""><dc:format>image/svg+xml</dc:format><dc:type
         rdf:resource="http://purl.org/dc/dcmitype/StillImage" /><dc:title>Silvertongue</dc:title><cc:license
         rdf:resource="http://creativecommons.org/publicdomain/zero/1.0/" /><dc:creator><cc:Agent><dc:title>Glitch</dc:title></cc:Agent></dc:creator><dc:source>https://opengameart.org/node/20149</dc:source></cc:Work><cc:License
       rdf:about="http://creativecommons.org/publicdomain/zero/1.0/"><cc:permits
         rdf:resource="http://creativecommons.org/ns#Reproduction" /><cc:permits
         rdf:resource="http://creativecommons.org/ns#Distribution" /><cc:permits
         rdf:resource="http://creativecommons.org/ns#DerivativeWorks" /></cc:License></rdf:RDF></metadata><defs
   id="defs273"><linearGradient
     inkscape:collect="always"
     xlink:href="#SVGID_1_"
     id="linearGradient1100"
     gradientUnits="userSpaceOnUse"
     gradientTransform="matrix(0.2526,0.9676,-0.9676,0.2526,-1808.3867,-13996.855)"
     x1="13986.771"
     y1="1739.415"
     x2="13997.262"
     y2="1739.415" /><linearGradient
     inkscape:collect="always"
     xlink:href="#SVGID_2_"
     id="linearGradient1102"
     gradientUnits="userSpaceOnUse"
     gradientTransform="matrix(0.3177,0.9482,-0.9482,0.3177,-2180.9004,-13307.228)"
     x1="13297.907"
     y1="2121.2559"
     x2="13303.022"
     y2="2121.2559" /><linearGradient
     inkscape:collect="always"
     xlink:href="#SVGID_3_"
     id="linearGradient1104"
     gradientUnits="userSpaceOnUse"
     gradientTransform="matrix(-0.9999,0.0141,-0.0141,-0.9999,16196.147,-16452.051)"
     x1="16408.98"
     y1="-16206.189"
     x2="16419.631"
     y2="-16206.189" /><linearGradient
     inkscape:collect="always"
     xlink:href="#SVGID_4_"
     id="linearGradient1106"
     gradientUnits="userSpaceOnUse"
     gradientTransform="matrix(-0.3497,0.9369,-0.9369,-0.3497,3355.2588,-18666.894)"
     x1="18644.119"
     y1="-3397.6499"
     x2="18655.914"
     y2="-3397.6499" /><linearGradient
     inkscape:collect="always"
     xlink:href="#SVGID_5_"
     id="linearGradient1108"
     gradientUnits="userSpaceOnUse"
     gradientTransform="matrix(0.9471,0.3208,-0.3208,0.9471,-2189.583,-3048.2783)"
     x1="3068.9663"
     y1="2167.0439"
     x2="3085.3313"
     y2="2167.0439" /><linearGradient
     inkscape:collect="always"
     xlink:href="#SVGID_6_"
     id="linearGradient1110"
     gradientUnits="userSpaceOnUse"
     gradientTransform="matrix(0.984,-0.178,0.178,0.984,1584.209,1321.2285)"
     x1="-1300.9736"
     y1="-1592.7744"
     x2="-1278.9095"
     y2="-1592.7744" /><linearGradient
     inkscape:collect="always"
     xlink:href="#SVGID_7_"
     id="linearGradient1112"
     gradientUnits="userSpaceOnUse"
     gradientTransform="matrix(-0.1776,-0.9841,0.9841,-0.1776,17643.703,-1593.562)"
     x1="1575.8032"
     y1="-17618.184"
     x2="1589.5975"
     y2="-17618.184" /><linearGradient
     inkscape:collect="always"
     xlink:href="#SVGID_8_"
     id="linearGradient1114"
     gradientUnits="userSpaceOnUse"
     gradientTransform="matrix(-0.9841,-0.1774,0.1774,-0.9841,17631.898,-14761.436)"
     x1="14696.514"
     y1="-17623.023"
     x2="14703.982"
     y2="-17623.023" /></defs><sodipodi:namedview
   pagecolor="#ffffff"
   bordercolor="#666666"
   borderopacity="1"
   objecttolerance="10"
   gridtolerance="10"
   guidetolerance="10"
   inkscape:pageopacity="0"
   inkscape:pageshadow="2"
   inkscape:window-width="1920"
   inkscape:window-height="1025"
   id="namedview271"
   showgrid="false"
   inkscape:zoom="1.0540916"
   inkscape:cx="-65.920781"
   inkscape:cy="21.569856"
   inkscape:window-x="-8"
   inkscape:window-y="-8"
   inkscape:window-maximized="1"
   inkscape:current-layer="flash0.ai"
   fit-margin-top="0"
   fit-margin-left="0"
   fit-margin-right="0"
   fit-margin-bottom="0" />
<symbol
   id="silvertongue2"
   viewBox="0 -31.026 51.791 31.026"
   transform="translate(-15.3501,207.97908)">
	<g
   id="Layer_1_2_">
		<path
   style="clip-rule:evenodd;fill:#667c00;fill-rule:evenodd"
   d="m 38.75,-24.6 c 3.1,3.667 5.483,7.2 7.15,10.6 l 0.4,-1.35 c 1.167,-5.933 0.033,-9.566 -3.4,-10.9 l -3.9,1.2 z"
   id="path2"
   inkscape:connector-curvature="0" />
		
			<linearGradient
   id="SVGID_1_"
   gradientUnits="userSpaceOnUse"
   x1="13986.771"
   y1="1739.415"
   x2="13997.262"
   y2="1739.415"
   gradientTransform="matrix(0.2526,0.9676,-0.9676,0.2526,-1808.3867,-13996.855)">
			<stop
   offset="0"
   style="stop-color:#617220"
   id="stop4" />
			<stop
   offset="1"
   style="stop-color:#869D2E"
   id="stop6" />
		</linearGradient>
		<path
   style="clip-rule:evenodd;fill:url(#linearGradient1100);fill-rule:evenodd"
   d="m 44.95,-12.4 c 1.4,-0.733 2.117,-2.034 2.15,-3.9 0,-4.567 -1.583,-7.65 -4.75,-9.25 l -3.15,0.3 c -0.467,0.733 -0.566,1.833 -0.3,3.3 0.267,1.7 0.967,2.95 2.1,3.75 1.367,1 2.3,1.817 2.8,2.45 0.6,0.767 0.716,1.45 0.35,2.05 l -1.3,1.85 z"
   id="path9"
   inkscape:connector-curvature="0" />
		<path
   style="clip-rule:evenodd;fill:#5e7200;fill-rule:evenodd"
   d="m 46.95,-16.95 c -0.1,-1.1 -0.233,-2.533 -0.4,-4.3 -0.133,-1.233 -0.317,-2 -0.55,-2.3 -0.433,-0.634 -0.767,-1.083 -1,-1.35 -0.366,-0.534 -0.616,-0.767 -0.75,-0.7 l -2,0.9 -2.95,3.6 c 0.767,-0.833 1.35,-0.95 1.75,-0.35 0.167,0.267 0.333,0.784 0.5,1.55 0.133,0.7 0.35,1.2 0.65,1.5 l 1.375,1.425 C 43.44,-17.131 43.282,-17.34 43.1,-17.6 c -0.4,-0.7 -0.65,-1.45 -0.75,-2.25 -0.1,-0.833 0.017,-1.6 0.35,-2.3 0.3,-0.567 0.617,-0.9 0.95,-1 0.6,-0.133 1.217,0.566 1.85,2.1 0.367,0.9 0.667,1.966 0.9,3.2 0.267,1.4 0.3,2.417 0.1,3.05 l -0.75,2 0.7,-0.85 c 0.467,-0.833 0.633,-1.933 0.5,-3.3 z"
   id="path11"
   inkscape:connector-curvature="0" />
		<path
   style="clip-rule:evenodd;fill:#485700;fill-rule:evenodd"
   d="m 40.25,-21.75 1.6,-1 c -0.3,0.6 -0.4,1.2 -0.3,1.8 l 0.25,1.45 0.25,-1.4 c 0.2,-0.967 0.433,-1.617 0.7,-1.95 0.233,-0.267 0.417,-0.617 0.55,-1.05 0.133,-0.267 0.466,-0.233 1,0.1 1.1,0.7 1.75,1.733 1.95,3.1 l 0.4,2.05 c 0.066,-2.6 -0.217,-4.383 -0.85,-5.35 -0.367,-0.6 -0.733,-1.05 -1.1,-1.35 l -0.45,-0.25 -1.35,0.65 z"
   id="path13"
   inkscape:connector-curvature="0" />
		<path
   style="clip-rule:evenodd;fill:#9db800;fill-rule:evenodd"
   d="m 42.85,-19.8 0.7,0.3 c 0.067,0.033 0.3,0.25 0.7,0.65 0.434,0.333 0.717,0.45 0.85,0.35 0.233,-0.2 0.1,-0.617 -0.4,-1.25 -0.767,-1.167 -1.316,-1.633 -1.65,-1.4 -0.366,0.267 -0.433,0.716 -0.2,1.35 z"
   id="path15"
   inkscape:connector-curvature="0" />
		<path
   style="clip-rule:evenodd;fill:#9db800;fill-rule:evenodd"
   d="m 43.15,-18.1 -0.05,0.2 c 1.467,1.233 2.133,1.55 2,0.95 -0.033,-0.167 -0.167,-0.316 -0.4,-0.45 -0.3,-0.133 -0.5,-0.233 -0.6,-0.3 l -1.05,-0.9 c -0.2,0.166 -0.166,0.333 0.1,0.5 z"
   id="path17"
   inkscape:connector-curvature="0" />
		<path
   style="clip-rule:evenodd;fill:#9db800;fill-rule:evenodd"
   d="m 40.6,-19.2 0.45,0.1 c 0.033,-0.1 -0.034,-0.267 -0.2,-0.5 -0.167,-0.2 -0.317,-0.3 -0.45,-0.3 -0.233,0.033 -0.3,0.15 -0.2,0.35 0.1,0.167 0.234,0.283 0.4,0.35 z"
   id="path19"
   inkscape:connector-curvature="0" />
		<path
   style="clip-rule:evenodd;fill:#9db800;fill-rule:evenodd"
   d="m 39.7,-20.45 0.7,-0.35 c 0.167,-0.134 0.183,-0.25 0.05,-0.35 -0.133,-0.133 -0.267,-0.15 -0.4,-0.05 -0.1,0.067 -0.2,0.167 -0.3,0.3 -0.066,0.167 -0.083,0.317 -0.05,0.45 z"
   id="path21"
   inkscape:connector-curvature="0" />
		
			<linearGradient
   id="SVGID_2_"
   gradientUnits="userSpaceOnUse"
   x1="13297.907"
   y1="2121.2559"
   x2="13303.022"
   y2="2121.2559"
   gradientTransform="matrix(0.3177,0.9482,-0.9482,0.3177,-2180.9004,-13307.228)">
			<stop
   offset="0"
   style="stop-color:#617220"
   id="stop23" />
			<stop
   offset="1"
   style="stop-color:#869D2E"
   id="stop25" />
		</linearGradient>
		<path
   style="clip-rule:evenodd;fill:url(#linearGradient1102);fill-rule:evenodd"
   d="m 23.55,-18 -5.9,2.8 8.2,-2.35 c 5.833,-1.733 9.683,-3.034 11.55,-3.9 1.967,-0.9 3.933,-1.5 5.9,-1.8 1.167,-0.2 2.667,-0.3 4.5,-0.3 1.767,0.033 2.65,0.017 2.65,-0.05 -0.533,-0.167 -1.066,-0.417 -1.6,-0.75 -1.067,-0.7 -1.6,-1.566 -1.6,-2.6 0,-1.633 0.05,-2.85 0.15,-3.65 -11.867,6.933 -19.817,11.133 -23.85,12.6 z"
   id="path28"
   inkscape:connector-curvature="0" />
		<path
   style="clip-rule:evenodd;fill:#4a5a00;fill-rule:evenodd"
   d="m 46.65,-25.4 c 0.733,0.966 1.233,1.533 1.5,1.7 0.467,0.267 1.233,0.3 2.3,0.1 1.7,-0.333 1.783,-2.15 0.25,-5.45 -0.4,-0.9 -0.917,-1.5 -1.55,-1.8 -0.6,-0.3 -1.184,-0.216 -1.75,0.25 -0.6,0.467 -1,1.267 -1.2,2.4 -0.233,1.167 -0.083,2.1 0.45,2.8 z"
   id="path30"
   inkscape:connector-curvature="0" />
		<path
   style="clip-rule:evenodd;fill:#677c00;fill-rule:evenodd"
   d="m 48.9,-24.35 c 0.967,-0.133 1.583,-0.35 1.85,-0.65 0.434,-0.533 0.283,-1.467 -0.45,-2.8 -0.7,-1.367 -1.383,-1.967 -2.05,-1.8 -0.533,0.1 -0.866,0.567 -1,1.4 -0.133,0.8 -0.083,1.617 0.15,2.45 0.3,1.033 0.8,1.5 1.5,1.4 z"
   id="path32"
   inkscape:connector-curvature="0" />
		
			<linearGradient
   id="SVGID_3_"
   gradientUnits="userSpaceOnUse"
   x1="16408.98"
   y1="-16206.189"
   x2="16419.631"
   y2="-16206.189"
   gradientTransform="matrix(-0.9999,0.0141,-0.0141,-0.9999,16196.147,-16452.051)">
			<stop
   offset="0"
   style="stop-color:#6F66AE"
   id="stop34" />
			<stop
   offset="0.1765"
   style="stop-color:#7E7AC1"
   id="stop36" />
			<stop
   offset="0.5216"
   style="stop-color:#969BE2"
   id="stop38" />
			<stop
   offset="0.8078"
   style="stop-color:#A6AFF6"
   id="stop40" />
			<stop
   offset="1"
   style="stop-color:#ABB6FD"
   id="stop42" />
		</linearGradient>
		<path
   style="clip-rule:evenodd;fill:url(#linearGradient1104);fill-rule:evenodd"
   d="m 7.1,-19.75 c -1.7,0.434 -3.4,1.217 -5.1,2.35 l -2,1.6 h 1 c 0.833,-0.067 1.65,-0.167 2.45,-0.3 0.833,-0.133 2.217,0.267 4.15,1.2 1.133,0.566 2.867,1.5 5.2,2.8 1.4,0.7 2.966,0.75 4.7,0.15 0.867,-0.3 1.6,-0.667 2.2,-1.1 1.2,-1.733 1.533,-3.367 1,-4.9 -0.467,-1.3 -1.35,-2.233 -2.65,-2.8 -1.833,-0.8 -5.483,-0.467 -10.95,1 z"
   id="path45"
   inkscape:connector-curvature="0" />
		<path
   style="clip-rule:evenodd;fill:#605a98;fill-rule:evenodd"
   d="m 11.35,-16.45 0.2,0.25 c 0,-0.2 -0.05,-0.366 -0.15,-0.5 -0.967,-0.167 -2.05,-0.25 -3.25,-0.25 0.6,0.134 0.983,0.267 1.15,0.4 l 1.15,0.3 z"
   id="path47"
   inkscape:connector-curvature="0" />
		<path
   style="clip-rule:evenodd;fill:#605a98;fill-rule:evenodd"
   d="m 13.3,-11.9 c 1.333,0.533 2.8,0.5 4.4,-0.1 0.8,-0.3 1.467,-0.65 2,-1.05 1.2,-1.733 1.533,-3.367 1,-4.9 -0.467,-1.3 -1.35,-2.233 -2.65,-2.8 -1.833,-0.8 -5.483,-0.467 -10.95,1 -2.4,0.633 -4.6,1.8 -6.6,3.5 l 1.15,-0.55 c 1.2,-0.733 2.183,-1.25 2.95,-1.55 1.833,-0.767 3.8,-1.216 5.9,-1.35 2.033,-0.1 3.717,0.184 5.05,0.85 0.667,0.3 1.117,0.633 1.35,1 l 0.25,1.45 c -0.267,0.333 -0.867,0.483 -1.8,0.45 l 0.25,0.5 -0.9,-0.35 0.05,-0.2 -2.2,-0.5 c 0.167,0.333 0.367,0.617 0.6,0.85 l -1.5,-0.35 -0.2,0.05 c 1.233,0.333 2.083,0.667 2.55,1 l 0.85,-0.15 -0.4,0.5 0.85,0.55 c -1.067,0.267 -1.733,0.984 -2,2.15 z"
   id="path49"
   inkscape:connector-curvature="0" />
		<path
   style="clip-rule:evenodd;fill:#605a98;fill-rule:evenodd"
   d="m 11.65,-16 1.5,0.35 c -0.233,-0.233 -0.434,-0.517 -0.6,-0.85 -0.367,-0.633 -0.583,-0.983 -0.65,-1.05 -0.934,-1.067 -1.567,-1.6 -1.9,-1.6 0.6,0.667 1.067,1.483 1.4,2.45 0.1,0.134 0.15,0.3 0.15,0.5 l 0.2,0.2 z"
   id="path51"
   inkscape:connector-curvature="0" />
		<path
   style="clip-rule:evenodd;fill:#605a98;fill-rule:evenodd"
   d="m 14.75,-16 -0.05,0.2 0.9,0.35 -0.25,-0.5 -0.25,-0.8 c -0.033,-0.066 -0.183,-0.3 -0.45,-0.7 -0.068,-0.122 -0.126,-0.239 -0.175,-0.35 0.074,0.24 0.132,0.457 0.175,0.65 0.1,0.533 0.133,0.917 0.1,1.15 z"
   id="path53"
   inkscape:connector-curvature="0" />
		<path
   style="clip-rule:evenodd;fill:#605a98;fill-rule:evenodd"
   d="m 11.75,-16 -0.4,-0.45 -0.9,0.2 -0.95,0.5 c -0.167,0.167 -0.433,0.333 -0.8,0.5 L 11.65,-16 Z"
   id="path55"
   inkscape:connector-curvature="0" />
		<path
   style="clip-rule:evenodd;fill:#605a98;fill-rule:evenodd"
   d="M 14.85,-15.1 14,-14.95 c -1.167,0.267 -1.95,0.75 -2.35,1.45 0.3,-0.033 0.75,-0.2 1.35,-0.5 0.6,-0.3 1.067,-0.467 1.4,-0.5 l 0.05,-0.1 z"
   id="path57"
   inkscape:connector-curvature="0" />
		<path
   style="clip-rule:evenodd;fill:#577ed3;fill-rule:evenodd"
   d="m 5.65,-16.25 c 0.6,-0.3 1.25,-0.367 1.95,-0.2 0.267,0.067 0.433,0.15 0.5,0.25 0.133,0.167 0.167,0.284 0.1,0.35 -0.033,0.034 -0.15,0.067 -0.35,0.1 l -0.8,0.15 c -0.233,0.067 -0.517,0.05 -0.85,-0.05 -0.367,-0.133 -0.55,-0.333 -0.55,-0.6 z m 1.6,-0.7 c -3.6,0 -5.483,0.367 -5.65,1.1 l 1.85,-0.25 c 0.833,-0.167 2.25,0.25 4.25,1.25 l 1,-0.4 c 0.367,-0.167 0.633,-0.333 0.8,-0.5 0.134,-0.133 0.167,-0.267 0.1,-0.4 0,-0.067 -0.1,-0.2 -0.3,-0.4 -0.167,-0.134 -0.55,-0.267 -1.15,-0.4 -0.4,-0.067 -0.7,-0.067 -0.9,0 z"
   id="path59"
   inkscape:connector-curvature="0" />
		<path
   style="clip-rule:evenodd;fill:#577ed3;fill-rule:evenodd"
   d="m 6.5,-17.75 c 0.233,-0.2 0.533,-0.35 0.9,-0.45 0.333,-0.133 0.616,-0.167 0.85,-0.1 0.267,0.033 0.434,0.116 0.5,0.25 0.1,0.133 -0.033,0.233 -0.4,0.3 -1.433,0.2 -2.05,0.2 -1.85,0 z m 0.6,-0.75 c -1.267,0.267 -2.35,0.65 -3.25,1.15 -0.367,0.2 0.2,0.217 1.7,0.05 1.9,-0.2 3.017,-0.25 3.35,-0.15 0.566,0.167 0.933,0.15 1.1,-0.05 0.167,-0.167 0.083,-0.467 -0.25,-0.9 -0.3,-0.4 -1.183,-0.433 -2.65,-0.1 z"
   id="path61"
   inkscape:connector-curvature="0" />
		<path
   style="clip-rule:evenodd;fill:#577ed3;fill-rule:evenodd"
   d="m 11.6,-18.1 c 0.267,0.6 0.567,0.934 0.9,1 0.733,0.2 0.9,-0.05 0.5,-0.75 -0.4,-0.7 -0.816,-1.066 -1.25,-1.1 -0.366,0 -0.417,0.283 -0.15,0.85 z m 0.85,0.05 c 0.033,0.1 0.1,0.283 0.2,0.55 l -0.25,0.2 c -0.167,0.1 -0.283,-0.017 -0.35,-0.35 -0.034,-0.1 -0.083,-0.217 -0.15,-0.35 0,-0.1 0.05,-0.184 0.15,-0.25 0.167,-0.066 0.3,0 0.4,0.2 z"
   id="path63"
   inkscape:connector-curvature="0" />
		<path
   style="clip-rule:evenodd;fill:#577ed3;fill-rule:evenodd"
   d="m 11.05,-14.05 c -0.166,0.033 -0.283,0.05 -0.35,0.05 -0.133,0 -0.2,-0.1 -0.2,-0.3 0.267,-0.167 0.65,-0.25 1.15,-0.25 l 0.05,0.35 z m 0.35,0.2 c 0.366,-0.167 0.633,-0.383 0.8,-0.65 0.167,-0.267 0.133,-0.467 -0.1,-0.6 -0.233,-0.133 -0.583,-0.133 -1.05,0 -0.534,0.133 -0.883,0.35 -1.05,0.65 -0.133,0.3 -0.033,0.517 0.3,0.65 0.3,0.133 0.667,0.116 1.1,-0.05 z"
   id="path65"
   inkscape:connector-curvature="0" />
		<path
   style="clip-rule:evenodd;fill:#86e8ff;fill-rule:evenodd"
   d="m 6.5,-17.75 c -0.2,0.2 0.417,0.2 1.85,0 0.367,-0.066 0.5,-0.167 0.4,-0.3 -0.066,-0.134 -0.233,-0.217 -0.5,-0.25 -0.233,-0.067 -0.517,-0.034 -0.85,0.1 -0.367,0.1 -0.667,0.25 -0.9,0.45 z"
   id="path67"
   inkscape:connector-curvature="0" />
		<path
   style="clip-rule:evenodd;fill:#86e8ff;fill-rule:evenodd"
   d="m 8.1,-16.2 c -0.067,-0.1 -0.233,-0.183 -0.5,-0.25 -0.7,-0.167 -1.35,-0.1 -1.95,0.2 0,0.267 0.183,0.467 0.55,0.6 0.333,0.1 0.617,0.117 0.85,0.05 l 0.8,-0.15 c 0.2,-0.033 0.317,-0.066 0.35,-0.1 0.067,-0.067 0.033,-0.183 -0.1,-0.35 z"
   id="path69"
   inkscape:connector-curvature="0" />
		<path
   style="clip-rule:evenodd;fill:#86e8ff;fill-rule:evenodd"
   d="m 11.65,-14.55 c -0.5,0 -0.884,0.083 -1.15,0.25 0,0.2 0.067,0.3 0.2,0.3 0.066,0 0.184,-0.017 0.35,-0.05 l 0.65,-0.15 z"
   id="path71"
   inkscape:connector-curvature="0" />
		<path
   style="clip-rule:evenodd;fill:#86e8ff;fill-rule:evenodd"
   d="m 12.05,-18.25 c -0.1,0.066 -0.15,0.15 -0.15,0.25 0.066,0.133 0.116,0.25 0.15,0.35 0.067,0.333 0.183,0.45 0.35,0.35 l 0.25,-0.2 c -0.1,-0.267 -0.167,-0.45 -0.2,-0.55 -0.1,-0.2 -0.233,-0.266 -0.4,-0.2 z"
   id="path73"
   inkscape:connector-curvature="0" />
		
			<linearGradient
   id="SVGID_4_"
   gradientUnits="userSpaceOnUse"
   x1="18644.119"
   y1="-3397.6499"
   x2="18655.914"
   y2="-3397.6499"
   gradientTransform="matrix(-0.3497,0.9369,-0.9369,-0.3497,3355.2588,-18666.894)">
			<stop
   offset="0"
   style="stop-color:#6F66AE"
   id="stop75" />
			<stop
   offset="0.1765"
   style="stop-color:#7E7AC1"
   id="stop77" />
			<stop
   offset="0.5216"
   style="stop-color:#969BE2"
   id="stop79" />
			<stop
   offset="0.8078"
   style="stop-color:#A6AFF6"
   id="stop81" />
			<stop
   offset="1"
   style="stop-color:#ABB6FD"
   id="stop83" />
		</linearGradient>
		<path
   style="clip-rule:evenodd;fill:url(#linearGradient1106);fill-rule:evenodd"
   d="M 10.95,-2.15 10.5,0 15.6,-2.1 c 3.567,-1.667 5.8,-3.133 6.7,-4.4 0.533,-0.733 0.7,-1.783 0.5,-3.15 -0.2,-1.3 -0.683,-2.467 -1.45,-3.5 -1.966,-2.633 -4.183,-2.733 -6.65,-0.3 -0.833,0.3 -1.633,0.784 -2.4,1.45 -1.534,1.333 -2.083,2.867 -1.65,4.6 0.433,1.733 0.534,3.483 0.3,5.25 z"
   id="path86"
   inkscape:connector-curvature="0" />
		<path
   style="clip-rule:evenodd;fill:#605a98;fill-rule:evenodd"
   d="m 10.5,0 0.25,-0.1 c 0.533,-0.533 0.817,-1.216 0.85,-2.05 -0.2,-1.333 -0.283,-2.167 -0.25,-2.5 -0.166,-1.333 -0.25,-2.317 -0.25,-2.95 0.034,-1.066 0.284,-1.9 0.75,-2.5 0.667,-0.9 1.75,-1.433 3.25,-1.6 1.333,-0.2 2.267,-0.083 2.8,0.35 0.333,0.233 0.467,0.65 0.4,1.25 -0.034,0.367 -0.2,0.983 -0.5,1.85 l 0.25,-0.05 -0.45,0.7 c 0.133,-0.167 0.284,-0.3 0.45,-0.4 0.033,0.066 -0.067,0.45 -0.3,1.15 0.9,-1.233 1.533,-1.9 1.9,-2 0.066,-0.033 0.333,0.317 0.8,1.05 0.6,0.767 1.217,1.216 1.85,1.35 V -6.5 c 0.533,-0.733 0.7,-1.783 0.5,-3.15 -0.2,-1.3 -0.683,-2.467 -1.45,-3.5 -1.966,-2.633 -4.183,-2.733 -6.65,-0.3 -0.833,0.3 -1.633,0.784 -2.4,1.45 -1.534,1.333 -2.083,2.867 -1.65,4.6 0.433,1.733 0.533,3.483 0.3,5.25 z"
   id="path88"
   inkscape:connector-curvature="0" />
		<path
   style="clip-rule:evenodd;fill:#605a98;fill-rule:evenodd"
   d="m 17,-5.75 -0.15,-0.6 c -0.7,0.934 -1.667,1.95 -2.9,3.05 l -0.05,0.15 c 1.333,-0.833 2.367,-1.7 3.1,-2.6 z"
   id="path90"
   inkscape:connector-curvature="0" />
		<path
   style="clip-rule:evenodd;fill:#577ed3;fill-rule:evenodd"
   d="m 14.7,-5.6 c -0.2,-0.433 -0.684,-0.617 -1.45,-0.55 -0.767,0.1 -1.316,0.316 -1.65,0.65 -0.1,0.133 -0.183,0.417 -0.25,0.85 -0.033,0.333 0.05,1.167 0.25,2.5 l 0.1,0.55 c 0.066,0.367 0.283,0.417 0.65,0.15 0.1,-0.066 0.417,-0.366 0.95,-0.9 l 0.6,-0.8 0.05,-0.15 c 0.7,-1.067 0.95,-1.833 0.75,-2.3 z m -1.8,0.9 c 0.467,0 0.616,0.367 0.45,1.1 -0.166,0.733 -0.5,1.184 -1,1.35 -0.267,0.066 -0.35,-0.333 -0.25,-1.2 0.067,-0.833 0.334,-1.25 0.8,-1.25 z"
   id="path92"
   inkscape:connector-curvature="0" />
		<path
   style="clip-rule:evenodd;fill:#577ed3;fill-rule:evenodd"
   d="m 15.95,-2.9 c 0.333,-0.133 0.617,-0.05 0.85,0.25 l 0.8,-0.45 0.05,-0.45 c -0.033,-0.467 -0.2,-0.8 -0.5,-1 -0.267,-0.167 -0.517,-0.184 -0.75,-0.05 -0.2,0.133 -0.684,0.583 -1.45,1.35 -0.767,0.733 -1.316,1.3 -1.65,1.7 -0.133,0.233 -0.183,0.4 -0.15,0.5 l 1.45,-0.6 c 0.267,-0.666 0.717,-1.083 1.35,-1.25 z"
   id="path94"
   inkscape:connector-curvature="0" />
		<path
   style="clip-rule:evenodd;fill:#577ed3;fill-rule:evenodd"
   d="m 15.35,-7.05 c -0.267,0.133 -0.6,0.116 -1,-0.05 -0.433,-0.2 -0.667,-0.5 -0.7,-0.9 -0.033,-0.4 0.15,-0.633 0.55,-0.7 0.333,-0.066 0.617,-0.033 0.85,0.1 0.3,0.167 0.517,0.383 0.65,0.65 0.167,0.367 0.05,0.667 -0.35,0.9 z m -1.1,0.55 -0.1,-0.1 c 0.2,-0.066 0.517,-0.117 0.95,-0.15 0.3,-0.066 0.717,-0.233 1.25,-0.5 l 0.3,-0.15 c 0.167,-0.5 -0.067,-1 -0.7,-1.5 -0.6,-0.5 -1.233,-0.7 -1.9,-0.6 -0.733,0.1 -1.2,0.316 -1.4,0.65 -0.2,0.267 -0.233,0.75 -0.1,1.45 0.067,0.533 0.634,0.834 1.7,0.9 z"
   id="path96"
   inkscape:connector-curvature="0" />
		<path
   style="clip-rule:evenodd;fill:#577ed3;fill-rule:evenodd"
   d="m 19.05,-5.9 c 0.466,-0.1 0.8,0.033 1,0.4 0.167,0.367 -0.05,0.684 -0.65,0.95 -0.2,0.1 -0.4,-0.083 -0.6,-0.55 -0.233,-0.466 -0.15,-0.733 0.25,-0.8 z m 0.05,2 1.75,-1.15 c -0.1,-0.767 -0.533,-1.3 -1.3,-1.6 -0.5,-0.233 -0.917,-0.217 -1.25,0.05 -0.333,0.3 -0.467,0.684 -0.4,1.15 0.167,0.867 0.567,1.384 1.2,1.55 z"
   id="path98"
   inkscape:connector-curvature="0" />
		<path
   style="clip-rule:evenodd;fill:#86e8ff;fill-rule:evenodd"
   d="m 12.9,-4.7 c -0.467,0 -0.733,0.417 -0.8,1.25 -0.1,0.867 -0.017,1.267 0.25,1.2 0.5,-0.167 0.833,-0.617 1,-1.35 0.167,-0.733 0.017,-1.1 -0.45,-1.1 z"
   id="path100"
   inkscape:connector-curvature="0" />
		<path
   style="clip-rule:evenodd;fill:#86e8ff;fill-rule:evenodd"
   d="m 15.95,-2.9 c -0.633,0.167 -1.083,0.583 -1.35,1.25 l 2.2,-1 c -0.233,-0.3 -0.517,-0.383 -0.85,-0.25 z"
   id="path102"
   inkscape:connector-curvature="0" />
		<path
   style="clip-rule:evenodd;fill:#86e8ff;fill-rule:evenodd"
   d="m 19.05,-5.9 c -0.4,0.066 -0.483,0.333 -0.25,0.8 0.2,0.467 0.4,0.65 0.6,0.55 0.6,-0.267 0.816,-0.583 0.65,-0.95 -0.2,-0.367 -0.533,-0.5 -1,-0.4 z"
   id="path104"
   inkscape:connector-curvature="0" />
		<path
   style="clip-rule:evenodd;fill:#86e8ff;fill-rule:evenodd"
   d="m 15.05,-8.6 c -0.233,-0.133 -0.517,-0.167 -0.85,-0.1 -0.4,0.067 -0.583,0.3 -0.55,0.7 0.033,0.4 0.267,0.7 0.7,0.9 0.4,0.167 0.733,0.184 1,0.05 0.4,-0.233 0.517,-0.534 0.35,-0.9 -0.133,-0.267 -0.35,-0.484 -0.65,-0.65 z"
   id="path106"
   inkscape:connector-curvature="0" />
		<path
   style="clip-rule:evenodd;fill:#605a98;fill-rule:evenodd"
   d="m 16.8,-6.4 -0.05,-0.45 c 0.033,-0.133 0.233,-0.3 0.6,-0.5 l 0.25,-0.25 0.45,-0.7 -0.25,0.05 -0.5,0.4 c -0.2,0.2 -0.417,0.35 -0.65,0.45 l -0.3,0.15 c -0.533,0.267 -0.95,0.434 -1.25,0.5 -0.433,0.033 -0.75,0.083 -0.95,0.15 l 0.1,0.1 c 0.533,0.434 1.333,0.55 2.4,0.35 z"
   id="path108"
   inkscape:connector-curvature="0" />
		<path
   style="clip-rule:evenodd;fill:#605a98;fill-rule:evenodd"
   d="m 16.85,-6.35 0.15,0.6 c 0.134,0.267 0.384,0.517 0.75,0.75 -0.066,-0.9 -0.066,-1.483 0,-1.75 v -0.1 c 0.233,-0.7 0.333,-1.083 0.3,-1.15 -0.167,0.1 -0.317,0.233 -0.45,0.4 l -0.25,0.25 c -0.367,0.2 -0.567,0.367 -0.6,0.5 l 0.05,0.45 z"
   id="path110"
   inkscape:connector-curvature="0" />
		
			<linearGradient
   id="SVGID_5_"
   gradientUnits="userSpaceOnUse"
   x1="3068.9663"
   y1="2167.0439"
   x2="3085.3313"
   y2="2167.0439"
   gradientTransform="matrix(0.9471,0.3208,-0.3208,0.9471,-2189.583,-3048.2783)">
			<stop
   offset="0"
   style="stop-color:#6F66AE"
   id="stop112" />
			<stop
   offset="0.1765"
   style="stop-color:#7E7AC1"
   id="stop114" />
			<stop
   offset="0.5216"
   style="stop-color:#969BE2"
   id="stop116" />
			<stop
   offset="0.8078"
   style="stop-color:#A6AFF6"
   id="stop118" />
			<stop
   offset="1"
   style="stop-color:#ABB6FD"
   id="stop120" />
		</linearGradient>
		<path
   style="clip-rule:evenodd;fill:url(#linearGradient1108);fill-rule:evenodd"
   d="m 19.35,-11.3 c 0.2,1.033 0.967,2.3 2.3,3.8 1.767,1.967 3.583,2.783 5.45,2.45 2.933,-0.534 6.45,-0.6 10.55,-0.2 -0.233,-0.733 -0.617,-1.566 -1.15,-2.5 -1.033,-1.9 -2.267,-3.333 -3.7,-4.3 -2.2,-1.534 -5.034,-2.434 -8.5,-2.7 -3.9,-0.267 -5.55,0.883 -4.95,3.45 z"
   id="path123"
   inkscape:connector-curvature="0" />
		<path
   style="clip-rule:evenodd;fill:#605a98;fill-rule:evenodd"
   d="m 32.15,-11.2 c 2.066,1.134 3.783,2.784 5.15,4.95 -1.233,-2.7 -2.733,-4.633 -4.5,-5.8 -2.2,-1.534 -5.034,-2.434 -8.5,-2.7 -3.9,-0.267 -5.55,0.883 -4.95,3.45 0.067,0.4 0.467,1.183 1.2,2.35 l -0.1,-0.45 1.8,1.45 c 1.367,0.967 2.533,1.467 3.5,1.5 1.467,0.067 3.333,0.067 5.6,0 -2.733,-0.3 -4.317,-0.5 -4.75,-0.6 -0.667,-0.134 -1.483,-0.483 -2.45,-1.05 -1,-0.566 -1.733,-1.15 -2.2,-1.75 -0.4,-0.533 -0.7,-1.017 -0.9,-1.45 -0.1,-0.233 -0.167,-0.4 -0.2,-0.5 l 2.5,-0.55 c 1.867,-0.333 3.284,-0.45 4.25,-0.35 1.5,0.134 3.017,0.634 4.55,1.5 z"
   id="path125"
   inkscape:connector-curvature="0" />
		<path
   style="clip-rule:evenodd;fill:#577ed3;fill-rule:evenodd"
   d="m 36.15,-5.65 c -0.2,-0.333 -1,-0.55 -2.4,-0.65 -1.267,-0.067 -2.35,-0.017 -3.25,0.15 -0.467,0.066 -1.316,0.1 -2.55,0.1 -1.066,0 -1.883,0.1 -2.45,0.3 -0.4,0.133 -0.633,0.3 -0.7,0.5 0.433,0.167 0.834,0.25 1.2,0.25 l -0.05,-0.05 c 0.1,-0.167 0.233,-0.25 0.4,-0.25 0.5,-0.2 1.117,-0.367 1.85,-0.5 0.467,-0.1 0.75,0.066 0.85,0.5 L 31.2,-5.45 V -5.5 l 0.65,-0.3 c 0.367,-0.1 0.784,-0.05 1.25,0.15 l 0.6,0.2 2.55,0.1 z"
   id="path127"
   inkscape:connector-curvature="0" />
		<path
   style="clip-rule:evenodd;fill:#577ed3;fill-rule:evenodd"
   d="M 31.45,-7.95 C 30.684,-8.483 30.533,-8.833 31,-9 c 2.333,0.066 3.333,0.45 3,1.15 l -0.65,0.5 C 33.317,-7.417 33.033,-7.5 32.5,-7.6 32,-7.733 31.65,-7.85 31.45,-7.95 Z m 2.75,1.2 c 0.7,0.1 1.133,0.083 1.3,-0.05 0.634,-0.5 0.4,-1.117 -0.7,-1.85 -0.967,-0.633 -1.917,-1.034 -2.85,-1.2 -0.6,-0.1 -1.05,-0.033 -1.35,0.2 -0.233,0.3 -0.45,0.533 -0.65,0.7 -0.233,0.2 -0.167,0.467 0.2,0.8 0.4,0.333 1,0.633 1.8,0.9 0.767,0.267 1.517,0.434 2.25,0.5 z"
   id="path129"
   inkscape:connector-curvature="0" />
		<path
   style="clip-rule:evenodd;fill:#577ed3;fill-rule:evenodd"
   d="m 26.55,-9.5 c 0.433,-0.2 0.85,-0.15 1.25,0.15 0.367,0.3 0.233,0.583 -0.4,0.85 -0.3,0.133 -0.617,0.033 -0.95,-0.3 -0.3,-0.333 -0.266,-0.567 0.1,-0.7 z m -1.1,0.5 c -0.066,0.333 0.2,0.633 0.8,0.9 0.634,0.267 1.167,0.267 1.6,0 0.667,-0.4 0.917,-0.867 0.75,-1.4 -0.2,-0.533 -0.6,-0.767 -1.2,-0.7 -1.2,0.167 -1.85,0.567 -1.95,1.2 z"
   id="path131"
   inkscape:connector-curvature="0" />
		<path
   style="clip-rule:evenodd;fill:#86e8ff;fill-rule:evenodd"
   d="m 26.55,-9.5 c -0.367,0.133 -0.4,0.367 -0.1,0.7 0.333,0.333 0.65,0.433 0.95,0.3 0.633,-0.267 0.767,-0.55 0.4,-0.85 -0.4,-0.3 -0.817,-0.35 -1.25,-0.15 z"
   id="path133"
   inkscape:connector-curvature="0" />
		<path
   style="clip-rule:evenodd;fill:#86e8ff;fill-rule:evenodd"
   d="M 33.35,-7.35 34,-7.85 c 0.333,-0.7 -0.667,-1.083 -3,-1.15 -0.467,0.167 -0.316,0.517 0.45,1.05 0.2,0.1 0.55,0.217 1.05,0.35 0.533,0.1 0.817,0.183 0.85,0.25 z"
   id="path135"
   inkscape:connector-curvature="0" />
		<path
   style="clip-rule:evenodd;fill:#86e8ff;fill-rule:evenodd"
   d="m 26.35,-5.3 c -0.167,0 -0.3,0.083 -0.4,0.25 L 26,-5 c 0.4,0.066 0.767,0.05 1.1,-0.05 l 1.95,-0.25 c -0.1,-0.434 -0.383,-0.6 -0.85,-0.5 -0.733,0.133 -1.35,0.3 -1.85,0.5 z"
   id="path137"
   inkscape:connector-curvature="0" />
		<path
   style="clip-rule:evenodd;fill:#86e8ff;fill-rule:evenodd"
   d="m 31.85,-5.8 -0.65,0.3 v 0.05 h 2.5 l -0.6,-0.2 C 32.634,-5.85 32.217,-5.9 31.85,-5.8 Z"
   id="path139"
   inkscape:connector-curvature="0" />
		
			<linearGradient
   id="SVGID_6_"
   gradientUnits="userSpaceOnUse"
   x1="-1300.9736"
   y1="-1592.7744"
   x2="-1278.9095"
   y2="-1592.7744"
   gradientTransform="matrix(0.984,-0.178,0.178,0.984,1584.209,1321.2285)">
			<stop
   offset="0"
   style="stop-color:#6F66AE"
   id="stop141" />
			<stop
   offset="0.1765"
   style="stop-color:#7E7AC1"
   id="stop143" />
			<stop
   offset="0.5216"
   style="stop-color:#969BE2"
   id="stop145" />
			<stop
   offset="0.8078"
   style="stop-color:#A6AFF6"
   id="stop147" />
			<stop
   offset="1"
   style="stop-color:#ABB6FD"
   id="stop149" />
		</linearGradient>
		<path
   style="clip-rule:evenodd;fill:url(#linearGradient1110);fill-rule:evenodd"
   d="m 23.5,-11.7 c 1.434,0.534 2.934,0.6 4.5,0.2 1.467,-0.4 3.533,-1.35 6.2,-2.85 3.467,-1.966 6.184,-3.117 8.15,-3.45 -1.767,-0.7 -3.833,-1.284 -6.2,-1.75 -4.7,-1 -8.483,-1.034 -11.35,-0.1 -3.1,1.033 -4.567,2.483 -4.4,4.35 0.133,1.633 1.167,2.833 3.1,3.6 z"
   id="path152"
   inkscape:connector-curvature="0" />
		<path
   style="clip-rule:evenodd;fill:#605a98;fill-rule:evenodd"
   d="m 23.5,-11.7 c 0,-0.033 0.583,-0.083 1.75,-0.15 1.367,-0.066 2.567,-0.483 3.6,-1.25 1.133,-0.833 2.383,-1.617 3.75,-2.35 -2.833,1.367 -4.567,2.117 -5.2,2.25 -0.634,0.167 -1.367,0.3 -2.2,0.4 l -1.05,0.1 1.25,-0.65 c 0.933,-0.6 1.683,-1.333 2.25,-2.2 l 0.5,-0.85 c 0.633,-1.267 2.433,-2 5.4,-2.2 2.733,-0.2 5.667,0.067 8.8,0.8 -1.767,-0.7 -3.833,-1.284 -6.2,-1.75 -4.7,-1 -8.483,-1.034 -11.35,-0.1 -3.1,1.033 -4.567,2.483 -4.4,4.35 0.133,1.633 1.167,2.833 3.1,3.6 z"
   id="path154"
   inkscape:connector-curvature="0" />
		<path
   style="clip-rule:evenodd;fill:#577ed3;fill-rule:evenodd"
   d="m 32.9,-13.6 c -0.233,-0.367 -0.067,-0.7 0.5,-1 0.267,-0.133 1.1,-0.367 2.5,-0.7 l 0.35,-0.1 3.25,-1.5 c -0.066,0 -1.05,0.15 -2.95,0.45 -1.633,0.333 -3.05,0.884 -4.25,1.65 -0.534,0.333 -0.683,0.767 -0.45,1.3 0.1,0.167 0.217,0.267 0.35,0.3 z"
   id="path156"
   inkscape:connector-curvature="0" />
		<path
   style="clip-rule:evenodd;fill:#577ed3;fill-rule:evenodd"
   d="m 33.95,-17.35 c 1,-0.233 2.3,-0.133 3.9,0.3 l 2.5,-0.4 c -0.4,-0.2 -1.35,-0.383 -2.85,-0.55 -1.366,-0.233 -2.6,-0.233 -3.7,0 -0.9,0.133 -1.45,0.233 -1.65,0.3 -0.7,0.167 -1.217,0.417 -1.55,0.75 -0.233,0.233 -0.283,0.467 -0.15,0.7 0.1,0.133 0.25,0.2 0.45,0.2 0.133,0 0.3,-0.017 0.5,-0.05 0.467,-0.033 1.4,-0.2 2.8,-0.5 0.233,-0.033 0.617,-0.066 1.15,-0.1 l 1.75,-0.25 -1.9,0.1 c -1.833,0.3 -2.767,0.333 -2.8,0.1 -0.033,-0.2 0.484,-0.4 1.55,-0.6 z"
   id="path158"
   inkscape:connector-curvature="0" />
		<path
   style="clip-rule:evenodd;fill:#577ed3;fill-rule:evenodd"
   d="m 29,-12.45 c -0.333,0.2 -0.383,0.434 -0.15,0.7 l 0.45,-0.15 c 0,-0.2 0.1,-0.333 0.3,-0.4 0.367,-0.134 0.65,-0.167 0.85,-0.1 l 0.7,-0.3 c -0.1,-0.167 -0.233,-0.283 -0.4,-0.35 l -0.8,0.2 c -0.533,0.166 -0.85,0.3 -0.95,0.4 z"
   id="path160"
   inkscape:connector-curvature="0" />
		<path
   style="clip-rule:evenodd;fill:#577ed3;fill-rule:evenodd"
   d="m 28.4,-15.55 c 0.366,-0.034 0.566,-0.05 0.6,-0.05 0.2,0 0.317,0.133 0.35,0.4 0.133,0.367 0,0.583 -0.4,0.65 l -0.15,0.05 c -0.4,0.1 -0.683,-0.033 -0.85,-0.4 -0.167,-0.333 -0.016,-0.55 0.45,-0.65 z m -0.75,0 c -0.167,0.267 -0.2,0.616 -0.1,1.05 0.033,0.3 0.133,0.467 0.3,0.5 0.3,0.033 0.733,-0.083 1.3,-0.35 l 0.35,-0.2 c 0.033,-0.134 0.1,-0.317 0.2,-0.55 0,-0.1 -0.066,-0.283 -0.2,-0.55 -0.167,-0.333 -0.517,-0.467 -1.05,-0.4 -0.367,0.033 -0.633,0.2 -0.8,0.5 z"
   id="path162"
   inkscape:connector-curvature="0" />
		<path
   style="clip-rule:evenodd;fill:#86e8ff;fill-rule:evenodd"
   d="m 28.4,-15.55 c -0.467,0.1 -0.617,0.316 -0.45,0.65 0.167,0.367 0.45,0.5 0.85,0.4 l 0.15,-0.05 c 0.4,-0.067 0.533,-0.284 0.4,-0.65 -0.033,-0.267 -0.15,-0.4 -0.35,-0.4 -0.033,0 -0.233,0.017 -0.6,0.05 z"
   id="path164"
   inkscape:connector-curvature="0" />
		<path
   style="clip-rule:evenodd;fill:#86e8ff;fill-rule:evenodd"
   d="m 29.6,-12.3 c -0.2,0.066 -0.3,0.2 -0.3,0.4 l 1.15,-0.5 c -0.2,-0.067 -0.483,-0.034 -0.85,0.1 z"
   id="path166"
   inkscape:connector-curvature="0" />
		<path
   style="clip-rule:evenodd;fill:#86e8ff;fill-rule:evenodd"
   d="m 32.9,-13.6 3.35,-1.8 -0.35,0.1 c -1.4,0.333 -2.233,0.566 -2.5,0.7 -0.567,0.3 -0.733,0.633 -0.5,1 z"
   id="path168"
   inkscape:connector-curvature="0" />
		<path
   style="clip-rule:evenodd;fill:#86e8ff;fill-rule:evenodd"
   d="m 35.2,-16.85 2.85,-0.15 -0.2,-0.05 c -1.6,-0.434 -2.9,-0.534 -3.9,-0.3 -1.066,0.2 -1.583,0.4 -1.55,0.6 0.034,0.233 0.967,0.2 2.8,-0.1 z"
   id="path170"
   inkscape:connector-curvature="0" />
		
			<linearGradient
   id="SVGID_7_"
   gradientUnits="userSpaceOnUse"
   x1="1575.8032"
   y1="-17618.184"
   x2="1589.5975"
   y2="-17618.184"
   gradientTransform="matrix(-0.1776,-0.9841,0.9841,-0.1776,17643.703,-1593.562)">
			<stop
   offset="0"
   style="stop-color:#6F66AE"
   id="stop172" />
			<stop
   offset="0.1765"
   style="stop-color:#7E7AC1"
   id="stop174" />
			<stop
   offset="0.5216"
   style="stop-color:#969BE2"
   id="stop176" />
			<stop
   offset="0.8078"
   style="stop-color:#A6AFF6"
   id="stop178" />
			<stop
   offset="1"
   style="stop-color:#ABB6FD"
   id="stop180" />
		</linearGradient>
		<path
   style="clip-rule:evenodd;fill:url(#linearGradient1112);fill-rule:evenodd"
   d="m 16.95,-17.95 c -0.2,0.967 -0.083,1.75 0.35,2.35 0.533,0.7 1.6,1.35 3.2,1.95 2,0.767 3.55,0.733 4.65,-0.1 2.4,-1.8 4.283,-4.65 5.65,-8.55 0.667,-1.967 1.1,-3.75 1.3,-5.35 l -3.75,1.3 c -3.867,1.367 -6.966,3.05 -9.3,5.05 -1.166,0.967 -1.866,2.083 -2.1,3.35 z"
   id="path183"
   inkscape:connector-curvature="0" />
		<path
   style="clip-rule:evenodd;fill:#605a98;fill-rule:evenodd"
   d="m 20.85,-21.75 c 3.943,-2.639 7.535,-4.548 10.775,-5.725 l -3.275,1.125 c -3.867,1.367 -6.966,3.05 -9.3,5.05 -1.733,1.466 -2.433,3.05 -2.1,4.75 -0.066,-1.733 1.234,-3.467 3.9,-5.2 z"
   id="path185"
   inkscape:connector-curvature="0" />
		<path
   style="clip-rule:evenodd;fill:#605a98;fill-rule:evenodd"
   d="m 20.95,-14 -0.6,0.3 1.1,0.4 c 0.833,-0.567 1.45,-1.284 1.85,-2.15 0.533,-1.2 0.833,-2.116 0.9,-2.75 -1.5,2.433 -2.583,3.833 -3.25,4.2 z"
   id="path187"
   inkscape:connector-curvature="0" />
		<path
   style="clip-rule:evenodd;fill:#577ed3;fill-rule:evenodd"
   d="m 29.6,-20.15 -0.35,0.05 c -0.133,-0.233 -0.1,-0.55 0.1,-0.95 0.1,-0.233 0.25,-0.534 0.45,-0.9 0.233,-0.8 0.533,-1.216 0.9,-1.25 l 0.2,0.6 0.8,-3.15 c -0.667,-0.066 -1.467,0.684 -2.4,2.25 -0.866,1.5 -1.3,2.617 -1.3,3.35 0,0.733 0.5,1.033 1.5,0.9 0.1,-0.233 0.25,-0.566 0.45,-1 z"
   id="path189"
   inkscape:connector-curvature="0" />
		<path
   style="clip-rule:evenodd;fill:#577ed3;fill-rule:evenodd"
   d="m 27,-24.65 c -0.767,0.367 -1.7,1.066 -2.8,2.1 -1.1,1.066 -1.633,1.783 -1.6,2.15 0.034,0.4 0.4,0.6 1.1,0.6 0.7,0 1.4,-0.2 2.1,-0.6 0.767,-0.467 1.95,-2.217 3.55,-5.25 z m -0.1,1.95 c -0.134,0.233 -0.25,0.434 -0.35,0.6 l -1,1 c -0.5,0.233 -0.85,0.317 -1.05,0.25 -0.5,-0.133 -0.467,-0.533 0.1,-1.2 0.733,-0.867 1.517,-1.3 2.35,-1.3 0.1,0.233 0.083,0.45 -0.05,0.65 z"
   id="path191"
   inkscape:connector-curvature="0" />
		<path
   style="clip-rule:evenodd;fill:#577ed3;fill-rule:evenodd"
   d="m 26.45,-15.75 c -0.1,-0.033 -0.167,-0.167 -0.2,-0.4 -0.066,-0.233 -0.066,-0.4 0,-0.5 0.067,-0.167 0.333,-0.3 0.8,-0.4 0.233,0.733 0.133,1.167 -0.3,1.3 z m -0.05,0.75 0.45,-0.25 0.05,-0.1 c 0.433,-0.4 0.667,-0.983 0.7,-1.75 0,-0.733 -0.183,-1.167 -0.55,-1.3 -0.367,-0.1 -0.7,0.1 -1,0.6 -0.133,0.3 -0.367,0.883 -0.7,1.75 -0.2,0.533 -0.15,0.883 0.15,1.05 0.233,0.1 0.533,0.1 0.9,0 z"
   id="path193"
   inkscape:connector-curvature="0" />
		<path
   style="clip-rule:evenodd;fill:#577ed3;fill-rule:evenodd"
   d="m 21.4,-18.6 c 0.2,-0.1 0.45,-0.083 0.75,0.05 0.2,0.066 0.35,0.283 0.45,0.65 l -0.55,0.25 c -0.367,0.1 -0.633,0.017 -0.8,-0.25 -0.233,-0.367 -0.183,-0.6 0.15,-0.7 z m 1.85,1 c 0.033,-0.333 -0.033,-0.733 -0.2,-1.2 0.067,-0.2 -0.15,-0.4 -0.65,-0.6 -0.467,-0.233 -0.934,-0.333 -1.4,-0.3 -0.5,0.067 -0.7,0.567 -0.6,1.5 0.066,0.967 0.45,1.467 1.15,1.5 1.1,0.033 1.667,-0.267 1.7,-0.9 z"
   id="path195"
   inkscape:connector-curvature="0" />
		<path
   style="clip-rule:evenodd;fill:#86e8ff;fill-rule:evenodd"
   d="m 21.25,-17.9 c 0.167,0.267 0.434,0.35 0.8,0.25 l 0.55,-0.25 c -0.1,-0.367 -0.25,-0.583 -0.45,-0.65 -0.3,-0.134 -0.55,-0.15 -0.75,-0.05 -0.333,0.1 -0.383,0.333 -0.15,0.7 z"
   id="path197"
   inkscape:connector-curvature="0" />
		<path
   style="clip-rule:evenodd;fill:#86e8ff;fill-rule:evenodd"
   d="m 27.05,-17.05 c -0.467,0.1 -0.733,0.233 -0.8,0.4 -0.066,0.1 -0.066,0.267 0,0.5 0.033,0.233 0.1,0.367 0.2,0.4 h 0.3 c 0.434,-0.133 0.533,-0.566 0.3,-1.3 z"
   id="path199"
   inkscape:connector-curvature="0" />
		<path
   style="clip-rule:evenodd;fill:#86e8ff;fill-rule:evenodd"
   d="m 24.6,-22.05 c -0.567,0.667 -0.6,1.066 -0.1,1.2 0.2,0.067 0.55,-0.017 1.05,-0.25 l 1,-1 c 0.1,-0.167 0.216,-0.367 0.35,-0.6 0.133,-0.2 0.15,-0.417 0.05,-0.65 -0.833,0 -1.617,0.433 -2.35,1.3 z"
   id="path201"
   inkscape:connector-curvature="0" />
		<path
   style="clip-rule:evenodd;fill:#86e8ff;fill-rule:evenodd"
   d="m 29.25,-20.1 0.35,-0.05 0.35,-0.1 c 0.333,-0.667 0.65,-1.45 0.95,-2.35 l -0.2,-0.6 c -0.367,0.034 -0.667,0.45 -0.9,1.25 -0.2,0.367 -0.35,0.667 -0.45,0.9 -0.2,0.4 -0.233,0.717 -0.1,0.95 z"
   id="path203"
   inkscape:connector-curvature="0" />
		<path
   style="clip-rule:evenodd;fill:#343157;fill-rule:evenodd"
   d="m 16.75,-15.125 c 0.244,-0.428 0.277,-1.286 0.1,-2.575 0,0.333 -0.133,0.817 -0.4,1.45 -0.144,0.313 -0.045,0.688 0.3,1.125 -0.079,0.135 -0.179,0.227 -0.3,0.275 -0.3,0.1 -0.717,0.05 -1.25,-0.15 l -0.65,-0.3 1.4,1.4 c -0.267,-0.1 -0.617,-0.083 -1.05,0.05 -0.933,0.267 -1.9,0.95 -2.9,2.05 l 1.25,-0.65 c 0.967,-0.4 1.884,-0.55 2.75,-0.45 1,0.133 1.85,0.466 2.55,1 0.633,0.533 0.933,1.066 0.9,1.6 -0.033,0.433 0,0.8 0.1,1.1 l 0.1,0.35 0.45,0.1 c 0.3,0.1 0.55,0.267 0.75,0.5 l 0.4,0.5 -0.95,-2.7 1.25,1.05 c -0.267,-0.267 -0.534,-0.55 -0.8,-0.85 -0.533,-0.6 -0.85,-1.05 -0.95,-1.35 l -0.25,-0.7 0.75,-0.3 c 0.533,-0.2 0.966,-0.3 1.3,-0.3 l 1.9,-0.1 -2.05,-0.3 0.45,-0.95 c -1.267,0.5 -2.217,0.717 -2.85,0.65 -0.5,-0.066 -1.1,-0.4 -1.8,-1 -0.203,-0.185 -0.369,-0.359 -0.5,-0.525 z"
   id="path205"
   inkscape:connector-curvature="0" />
		<path
   style="clip-rule:evenodd;fill:#dfdf6d;fill-rule:evenodd"
   d="m 20.5,-10.85 0.35,0.05 h 0.05 c 0.066,0.233 0.167,0.45 0.3,0.65 -0.517,0.226 -0.875,0.451 -1.075,0.675 0.414,-0.49 0.539,-0.948 0.375,-1.375 z m -2.4,-0.75 0.2,0.15 0.95,-0.5 v 0.1 l 0.05,0.1 -0.95,0.45 z m 1.75,3.6 c -0.167,-0.167 -0.367,-0.184 -0.6,-0.05 L 18.7,-7.7 c 0.3,-0.6 0.333,-1.2 0.1,-1.8 l -0.05,-0.1 c 0.3,0.167 0.583,0.184 0.85,0.05 l 0.3,0.1 c -0.333,0.134 -0.5,0.333 -0.5,0.6 0,0.133 0.05,0.284 0.15,0.45 0.1,0.2 0.216,0.316 0.35,0.35 z m -2.8,-4.15 h -0.2 c -0.12,-0.33 -0.303,-0.496 -0.55,-0.5 l 0.45,-0.05 v 0.15 c 0,0.133 0.1,0.267 0.3,0.4 z m -1.4,2.3 c 0.1,0.233 0.333,0.417 0.7,0.55 l 0.05,0.45 c 0.1,0.567 0.267,0.967 0.5,1.2 0.1,0.1 0.3,0.15 0.6,0.15 0.267,0 0.45,0.033 0.55,0.1 l 0.5,-0.15 c -0.034,0.2 0.133,0.366 0.5,0.5 0.4,0.1 0.667,0.066 0.8,-0.1 0.233,-0.233 0.233,-0.5 0,-0.8 0.433,-0.2 0.667,-0.433 0.7,-0.7 0.033,0.167 0.15,0.283 0.35,0.35 0.2,0.1 0.366,0.133 0.5,0.1 0.267,-0.033 0.467,-0.167 0.6,-0.4 0.167,-0.233 0.217,-0.5 0.15,-0.8 l -0.1,-0.3 h 0.45 l -0.2,-0.15 c 0.433,-0.167 0.683,-0.533 0.75,-1.1 0.033,-0.6 -0.167,-0.933 -0.6,-1 -0.1,-0.3 -0.283,-0.583 -0.55,-0.85 -0.3,-0.233 -0.567,-0.35 -0.8,-0.35 -0.4,-0.067 -0.867,0.083 -1.4,0.45 v -0.2 l -0.05,-0.1 0.9,-0.25 0.15,-0.1 c -0.133,-0.7 -0.55,-0.8 -1.25,-0.3 l -0.15,0.1 c -0.267,-0.134 -0.483,-0.2 -0.65,-0.2 l -0.6,0.1 -0.15,-0.25 c -0.233,-0.3 -0.55,-0.367 -0.95,-0.2 -0.733,0.3 -1.083,0.6 -1.05,0.9 0,0.134 0.116,0.317 0.35,0.55 H 16.2 c -0.167,0.033 -0.333,0.117 -0.5,0.25 -0.2,0.167 -0.283,0.333 -0.25,0.5 0,0.3 0.15,0.533 0.45,0.7 -0.433,0.5 -0.516,0.95 -0.25,1.35 z"
   id="path207"
   inkscape:connector-curvature="0" />
		<path
   style="clip-rule:evenodd;fill:#b6a648;fill-rule:evenodd"
   d="m 20.25,-11.25 c -0.333,0.066 -0.4,-0.033 -0.2,-0.3 0.2,-0.267 0.35,-0.233 0.45,0.1 l -0.25,0.2 c 0.333,-0.133 0.617,-0.167 0.85,-0.1 -0.3,-0.433 -0.617,-0.683 -0.95,-0.75 l -0.35,-0.65 -0.1,0.05 v -0.2 L 19.65,-13 19.5,-13.2 c -0.1,-0.1 -0.2,-0.15 -0.3,-0.15 -0.1,0.034 -0.2,0.067 -0.3,0.1 -0.167,0.033 -0.367,0.017 -0.6,-0.05 -0.333,-0.1 -0.534,-0.15 -0.6,-0.15 h -0.2 l 0.2,0.35 -0.8,0.1 -0.35,0.1 c -0.034,-0.1 0.017,-0.217 0.15,-0.35 -0.233,0.1 -0.434,0.233 -0.6,0.4 l 0.15,0.2 0.5,-0.05 v 0.1 l 0.35,0.05 c 0,0.033 -0.067,0.116 -0.2,0.25 l 0.15,0.15 h -0.2 l -0.05,-0.1 -1.3,0.6 0.4,0.45 c -0.2,0.267 -0.317,0.5 -0.35,0.7 0.367,-0.3 0.7,-0.45 1,-0.45 -0.1,-0.366 -0.133,-0.583 -0.1,-0.65 0.133,-0.233 0.367,-0.283 0.7,-0.15 -0.134,-0.2 0.017,-0.417 0.45,-0.65 0.467,-0.267 0.75,-0.333 0.85,-0.2 -0.066,-0.1 -0.066,-0.2 0,-0.3 0.033,-0.1 0.117,-0.133 0.25,-0.1 0.133,0.033 0.267,0.2 0.4,0.5 0.167,-0.066 0.267,-0.05 0.3,0.05 l 0.1,0.25 0.575,0.525 c -0.167,-0.142 -0.492,-0.101 -0.975,0.125 -0.367,0.167 -0.667,0.35 -0.9,0.55 0.4,-0.1 0.717,-0.117 0.95,-0.05 0.221,0.063 0.471,0.246 0.75,0.55 l 0.45,0.3 c -0.1,-0.2 -0.117,-0.35 -0.05,-0.45 l 0.25,-0.1 -0.05,-0.1 0.35,0.05 h 0.05 l 0.05,0.1 0.1,0.1 c 0.267,0.133 0.433,0.317 0.5,0.55 0.067,0.233 -0.034,0.417 -0.3,0.55 0,0.033 0.117,0.117 0.35,0.25 0.1,0.167 0.183,0.45 0.25,0.85 0.3,-0.3 0.4,-0.633 0.3,-1 l -0.1,-0.3 h 0.45 l -0.2,-0.15 c 0.233,-0.1 0.433,-0.316 0.6,-0.65 l -0.2,-0.15 -0.35,0.3 c -0.167,0 -0.283,-0.117 -0.35,-0.35 l 0.3,-0.2 -0.15,-0.05 c -0.233,-0.066 -0.317,0.05 -0.25,0.35 0.133,0.4 0.2,0.667 0.2,0.8 -0.233,-0.567 -0.483,-0.95 -0.75,-1.15 -0.461,-0.308 -0.919,-0.366 -1.375,-0.175 z"
   id="path209"
   inkscape:connector-curvature="0" />
		<path
   style="clip-rule:evenodd;fill:#7b6f2e;fill-rule:evenodd"
   d="m 15.5,-11.65 1.3,-0.6 c -0.034,-0.133 -0.117,-0.233 -0.25,-0.3 l -0.35,-0.1 c -0.566,0.066 -0.816,0.316 -0.75,0.75 z"
   id="path211"
   inkscape:connector-curvature="0" />
		<path
   style="clip-rule:evenodd;fill:#7b6f2e;fill-rule:evenodd"
   d="m 20.25,-11.25 -0.275,0.125 c 0.456,-0.191 0.914,-0.133 1.375,0.175 0.267,0.2 0.517,0.583 0.75,1.15 0,-0.134 -0.067,-0.4 -0.2,-0.8 -0.067,-0.3 0.017,-0.417 0.25,-0.35 l 0.15,0.05 c 0.3,-0.133 0.466,-0.083 0.5,0.15 l -0.1,0.1 0.2,0.15 c 0.133,-0.3 0.167,-0.6 0.1,-0.9 -0.066,-0.333 -0.25,-0.517 -0.55,-0.55 -0.1,-0.3 -0.283,-0.583 -0.55,-0.85 -0.3,-0.233 -0.567,-0.35 -0.8,-0.35 -0.433,-0.067 -0.867,0.066 -1.3,0.4 l 0.35,0.65 c 0.333,0.067 0.65,0.317 0.95,0.75 -0.233,-0.067 -0.517,-0.033 -0.85,0.1 z"
   id="path213"
   inkscape:connector-curvature="0" />
		<path
   style="clip-rule:evenodd;fill:#7b6f2e;fill-rule:evenodd"
   d="m 17.9,-13.9 c -0.233,-0.3 -0.55,-0.367 -0.95,-0.2 -0.733,0.3 -1.083,0.6 -1.05,0.9 0,0.1 0.066,0.217 0.2,0.35 0.167,-0.167 0.367,-0.3 0.6,-0.4 l 0.45,-0.2 c 0.167,-0.066 0.283,-0.066 0.35,0 h 0.2 c 0.066,0 0.267,0.05 0.6,0.15 0.233,0.066 0.433,0.083 0.6,0.05 0.1,-0.033 0.2,-0.066 0.3,-0.1 0.1,0 0.2,0.05 0.3,0.15 l 0.15,0.2 0.9,-0.25 0.15,-0.1 c -0.133,-0.7 -0.55,-0.8 -1.25,-0.3 l -0.15,0.1 c -0.267,-0.134 -0.483,-0.2 -0.65,-0.2 l -0.6,0.1 z"
   id="path215"
   inkscape:connector-curvature="0" />
		<path
   style="clip-rule:evenodd;fill:#6a6e32;fill-rule:evenodd"
   d="m 16.9,-12.3 c 0.133,-0.134 0.2,-0.217 0.2,-0.25 l -0.35,-0.05 v 0.05 c 0,0.067 0.05,0.15 0.15,0.25 z"
   id="path217"
   inkscape:connector-curvature="0" />
		<path
   style="clip-rule:evenodd;fill:#fbfec4;fill-rule:evenodd"
   d="m 16.9,-7.65 c 0.1,0.1 0.3,0.15 0.6,0.15 0.267,0 0.45,0.033 0.55,0.1 l 0.45,-0.1 c -0.133,-0.434 -0.316,-0.717 -0.55,-0.85 -0.133,-0.133 -0.316,-0.167 -0.55,-0.1 -0.233,0.067 -0.417,0.167 -0.55,0.3 l -0.1,0.2 z"
   id="path219"
   inkscape:connector-curvature="0" />
		<path
   style="clip-rule:evenodd;fill:#fbfec4;fill-rule:evenodd"
   d="m 17.95,-10 v 0.1 c 0.1,0.1 0.4,0.283 0.9,0.55 L 18.8,-9.5 18.75,-9.6 c 0.3,0.167 0.583,0.184 0.85,0.05 l 0.4,-0.2 c -0.2,-0.4 -0.517,-0.617 -0.95,-0.65 -0.4,-0.034 -0.784,0.066 -1.15,0.3 z"
   id="path221"
   inkscape:connector-curvature="0" />
		<path
   style="clip-rule:evenodd;fill:#fbfec4;fill-rule:evenodd"
   d="m 16.1,-9.7 -0.05,0.25 0.3,0.15 v 0.15 c 0.267,0.1 0.534,0.083 0.8,-0.05 L 18.1,-9.65 17.95,-9.9 V -10 c -0.233,-0.267 -0.483,-0.367 -0.75,-0.3 -0.633,0.133 -1,0.333 -1.1,0.6 z"
   id="path223"
   inkscape:connector-curvature="0" />
		<path
   style="clip-rule:evenodd;fill:#fbfec4;fill-rule:evenodd"
   d="m 16.9,-10.9 c 0,0.133 0.066,0.216 0.2,0.25 0.133,0.033 0.233,0.017 0.3,-0.05 l 0.15,-0.15 c -0.034,-0.167 -0.133,-0.25 -0.3,-0.25 -0.2,-0.033 -0.316,0.034 -0.35,0.2 z"
   id="path225"
   inkscape:connector-curvature="0" />
		<path
   style="clip-rule:evenodd;fill:#fbfec4;fill-rule:evenodd"
   d="m 18,-11.6 0.95,-0.45 c -0.133,-0.3 -0.283,-0.45 -0.45,-0.45 -0.1,0 -0.283,0.066 -0.55,0.2 -0.267,0.167 -0.434,0.3 -0.5,0.4 0.167,0.367 0.35,0.466 0.55,0.3 z"
   id="path227"
   inkscape:connector-curvature="0" />
		<path
   style="clip-rule:evenodd;fill:#fbfec4;fill-rule:evenodd"
   d="m 20.45,-8.4 c -0.267,-0.333 -0.5,-0.417 -0.7,-0.25 l 0.25,0.6 c 0.233,-0.1 0.384,-0.217 0.45,-0.35 z"
   id="path229"
   inkscape:connector-curvature="0" />
		<path
   style="clip-rule:evenodd;fill:#fbfec4;fill-rule:evenodd"
   d="m 21.25,-8.8 c -0.333,0 -0.517,0.066 -0.55,0.2 -0.033,0.034 -0.017,0.117 0.05,0.25 l 0.25,0.1 0.35,0.05 h 0.05 l 0.35,-0.1 c -0.2,-0.266 -0.366,-0.433 -0.5,-0.5 z"
   id="path231"
   inkscape:connector-curvature="0" />
		<path
   style="clip-rule:evenodd;fill:#fbfec4;fill-rule:evenodd"
   d="m 19.95,-7.25 c -0.233,0 -0.467,0.083 -0.7,0.25 0.333,0 0.533,-0.05 0.6,-0.15 z"
   id="path233"
   inkscape:connector-curvature="0" />
		<path
   style="clip-rule:evenodd;fill:#fbfec4;fill-rule:evenodd"
   d="m 21.05,-10.1 -0.45,0.2 c 0,0.2 0.034,0.35 0.1,0.45 h 0.2 c 0.2,0.034 0.3,-0.033 0.3,-0.2 0.033,-0.166 -0.016,-0.317 -0.15,-0.45 z"
   id="path235"
   inkscape:connector-curvature="0" />
		<path
   style="clip-rule:evenodd;fill:#fbfec4;fill-rule:evenodd"
   d="m 19.4,-12.45 c -0.033,-0.1 -0.134,-0.116 -0.3,-0.05 v 0.05 c 0.034,0.134 0.183,0.3 0.45,0.5 L 19.5,-12.2 Z"
   id="path237"
   inkscape:connector-curvature="0" />
		<path
   style="clip-rule:evenodd;fill:#fbfec4;fill-rule:evenodd"
   d="m 20.25,-11.25 0.25,-0.2 c -0.1,-0.333 -0.25,-0.366 -0.45,-0.1 -0.2,0.267 -0.133,0.366 0.2,0.3 z"
   id="path239"
   inkscape:connector-curvature="0" />
		<path
   style="clip-rule:evenodd;fill:#fbfec4;fill-rule:evenodd"
   d="m 22.35,-10.35 0.45,-0.4 c -0.034,-0.233 -0.2,-0.283 -0.5,-0.15 l -0.3,0.2 c 0.067,0.233 0.184,0.35 0.35,0.35 z"
   id="path241"
   inkscape:connector-curvature="0" />
		<path
   style="clip-rule:evenodd;fill:#fbfec4;fill-rule:evenodd"
   d="m 17.15,-13.45 -0.45,0.2 c -0.133,0.133 -0.184,0.25 -0.15,0.35 l 0.35,-0.1 0.8,-0.1 -0.2,-0.35 c -0.066,-0.067 -0.183,-0.067 -0.35,0 z"
   id="path243"
   inkscape:connector-curvature="0" />
		<path
   style="clip-rule:evenodd;fill:#667c00;fill-rule:evenodd"
   d="m 32.8,-30.55 c -2.5,-0.233 -4.6,0.466 -6.3,2.1 l -1.8,2.5 0.85,-0.35 c 0.767,-0.233 1.65,-0.333 2.65,-0.3 0.6,0.034 1.233,0.317 1.9,0.85 1.867,0.066 4.4,-0.3 7.6,-1.1 1.6,-0.4 3.017,-0.8 4.25,-1.2 -0.533,-0.333 -1.3,-0.684 -2.3,-1.05 -2.067,-0.733 -4.35,-1.216 -6.85,-1.45 z"
   id="path245"
   inkscape:connector-curvature="0" />
		
			<linearGradient
   id="SVGID_8_"
   gradientUnits="userSpaceOnUse"
   x1="14696.514"
   y1="-17623.023"
   x2="14703.982"
   y2="-17623.023"
   gradientTransform="matrix(-0.9841,-0.1774,0.1774,-0.9841,17631.898,-14761.436)">
			<stop
   offset="0"
   style="stop-color:#617220"
   id="stop247" />
			<stop
   offset="1"
   style="stop-color:#869D2E"
   id="stop249" />
		</linearGradient>
		<path
   style="clip-rule:evenodd;fill:url(#linearGradient1114);fill-rule:evenodd"
   d="m 31.75,-24.85 c 1.733,0.934 3.35,1.434 4.85,1.5 1.733,0.034 3.133,-0.233 4.2,-0.8 0.667,-0.333 1.333,-0.9 2,-1.7 0.4,-0.5 0.317,-1.083 -0.25,-1.75 l -0.95,-0.8 c -1.933,0 -4.9,-0.15 -8.9,-0.45 -2.533,-0.2 -4.617,0.233 -6.25,1.3 l -1.75,1.6 0.85,-0.2 c 0.767,-0.133 1.633,-0.184 2.6,-0.15 0.667,0 1.867,0.484 3.6,1.45 z"
   id="path252"
   inkscape:connector-curvature="0" />
		<path
   style="clip-rule:evenodd;fill:#5e7200;fill-rule:evenodd"
   d="m 40.5,-23.95 c 0.4,-0.233 0.717,-0.466 0.95,-0.7 l 0.85,-1.15 c -0.367,-0.3 -0.784,-0.817 -1.25,-1.55 -0.433,-0.767 -0.717,-1.233 -0.85,-1.4 -0.133,-0.267 -0.533,-0.517 -1.2,-0.75 -0.6,-0.233 -1.783,-0.583 -3.55,-1.05 -1.434,-0.367 -2.95,-0.384 -4.55,-0.05 l -2,0.65 1.45,-0.25 c 1.267,-0.1 2.617,0.034 4.05,0.4 1.533,0.4 2.967,1.116 4.3,2.15 1.1,0.833 1.717,1.483 1.85,1.95 0.067,0.367 -0.05,0.7 -0.35,1 -0.367,0.333 -0.917,0.534 -1.65,0.6 -0.667,0.067 -1.667,-0.117 -3,-0.55 l -1.8,-0.65 1.15,0.65 c 0.933,0.466 1.883,0.8 2.85,1 0.967,0.2 1.884,0.1 2.75,-0.3 z"
   id="path254"
   inkscape:connector-curvature="0" />
		<path
   style="clip-rule:evenodd;fill:#485700;fill-rule:evenodd"
   d="m 40.8,-24.55 c 1.233,-0.134 1.9,-0.284 2,-0.45 l 1.3,-1.65 c -0.1,-0.467 -0.567,-1.034 -1.4,-1.7 -1.167,-0.933 -2.6,-1.566 -4.3,-1.9 -1.634,-0.3 -3.567,-0.383 -5.8,-0.25 l -2.85,0.35 h 4.75 c 1.967,0.033 3.7,0.517 5.2,1.45 0.733,0.5 1.267,0.983 1.6,1.45 l -0.2,1.45 c -0.067,0.6 -0.45,1.017 -1.15,1.25 l -1,0.15 z"
   id="path256"
   inkscape:connector-curvature="0" />
		<path
   style="clip-rule:evenodd;fill:#9db800;fill-rule:evenodd"
   d="m 31.75,-26.3 1.05,0.25 c -0.567,-0.567 -1.35,-1.1 -2.35,-1.6 -0.833,-0.434 -1.417,-0.55 -1.75,-0.35 -0.367,0.2 -0.3,0.434 0.2,0.7 0.366,0.167 0.733,0.283 1.1,0.35 0.4,0.1 0.983,0.317 1.75,0.65 z"
   id="path258"
   inkscape:connector-curvature="0" />
		<path
   style="clip-rule:evenodd;fill:#9db800;fill-rule:evenodd"
   d="m 34.3,-25.65 1.4,0.05 c -0.633,-0.7 -1.133,-1.216 -1.5,-1.55 -0.7,-0.6 -1.333,-0.833 -1.9,-0.7 -0.1,0.534 0.083,1 0.55,1.4 0.6,0.6 1.084,0.867 1.45,0.8 z"
   id="path260"
   inkscape:connector-curvature="0" />
		<path
   style="clip-rule:evenodd;fill:#9db800;fill-rule:evenodd"
   d="m 36.75,-25.3 0.35,-0.5 c -0.133,-0.067 -0.466,-0.417 -1,-1.05 -0.4,-0.466 -0.817,-0.65 -1.25,-0.55 0.034,0.233 0.167,0.45 0.4,0.65 0.134,0.133 0.333,0.316 0.6,0.55 0.1,0.1 0.233,0.267 0.4,0.5 0.134,0.2 0.3,0.333 0.5,0.4 z"
   id="path262"
   inkscape:connector-curvature="0" />
		<path
   style="clip-rule:evenodd;fill:#9db800;fill-rule:evenodd"
   d="m 38.2,-25.75 1.05,0.25 c 0,-0.133 -0.083,-0.283 -0.25,-0.45 -0.233,-0.167 -0.383,-0.283 -0.45,-0.35 -0.333,-0.4 -0.617,-0.717 -0.85,-0.95 -0.434,-0.4 -0.8,-0.566 -1.1,-0.5 -0.133,0.4 0.017,0.833 0.45,1.3 0.4,0.467 0.783,0.7 1.15,0.7 z"
   id="path264"
   inkscape:connector-curvature="0" />
	</g>
</symbol>
<use
   xlink:href="#silvertongue2"
   width="51.791"
   height="31.025999"
   y="-31.025999"
   transform="matrix(4.9429828,0,0,-4.9429828,75.875281,1079.3568)"
   style="overflow:visible"
   id="use268"
   x="0" />
</svg>