<?xml version="1.0" encoding="UTF-8" standalone="no"?>
<svg
   xmlns:dc="http://purl.org/dc/elements/1.1/"
   xmlns:cc="http://creativecommons.org/ns#"
   xmlns:rdf="http://www.w3.org/1999/02/22-rdf-syntax-ns#"
   xmlns:svg="http://www.w3.org/2000/svg"
   xmlns="http://www.w3.org/2000/svg"
   xmlns:sodipodi="http://sodipodi.sourceforge.net/DTD/sodipodi-0.dtd"
   xmlns:inkscape="http://www.inkscape.org/namespaces/inkscape"
   version="1.1"
   id="Layer_1"
   x="0px"
   y="0px"
   viewBox="0 0 256 256"
   enable-background="new 0 0 2772 1368"
   xml:space="preserve"
   sodipodi:docname="hot_dog_02.svg"
   inkscape:version="0.92.4 (5da689c313, 2019-01-14)"
   width="256"
   height="256"><title
   id="title4630">Hot Dog</title><metadata
   id="metadata3823"><rdf:RDF><cc:Work
       rdf:about=""><dc:format>image/svg+xml</dc:format><dc:type
         rdf:resource="http://purl.org/dc/dcmitype/StillImage" /><dc:title>Hot Dog</dc:title><cc:license
         rdf:resource="http://creativecommons.org/publicdomain/zero/1.0/" /><dc:source>https://openclipart.org/detail/311979</dc:source><dc:creator><cc:Agent><dc:title>GDJ</dc:title></cc:Agent></dc:creator></cc:Work><cc:License
       rdf:about="http://creativecommons.org/publicdomain/zero/1.0/"><cc:permits
         rdf:resource="http://creativecommons.org/ns#Reproduction" /><cc:permits
         rdf:resource="http://creativecommons.org/ns#Distribution" /><cc:permits
         rdf:resource="http://creativecommons.org/ns#DerivativeWorks" /></cc:License></rdf:RDF></metadata><defs
   id="defs3821" /><sodipodi:namedview
   pagecolor="#ffffff"
   bordercolor="#666666"
   borderopacity="1"
   objecttolerance="10"
   gridtolerance="10"
   guidetolerance="10"
   inkscape:pageopacity="0"
   inkscape:pageshadow="2"
   inkscape:window-width="1920"
   inkscape:window-height="1025"
   id="namedview3819"
   showgrid="false"
   inkscape:zoom="1.240753"
   inkscape:cx="44.147686"
   inkscape:cy="36.349148"
   inkscape:window-x="-8"
   inkscape:window-y="-8"
   inkscape:window-maximized="1"
   inkscape:current-layer="Layer_1"
   fit-margin-top="0"
   fit-margin-left="0"
   fit-margin-right="0"
   fit-margin-bottom="0" />







<g
   id="g2560"
   transform="matrix(0.52263695,0,0,0.52263695,-697.72215,-413.11869)">
	<path
   d="m 1709.604,880.59 c 6.77,-0.38 13.87,-0.73 20.35,1.65 0.16,0.27 0.48,0.82 0.64,1.09 -3.64,5.43 -9.36,8.87 -15.32,11.22 -4.51,0.85 -8.97,2.08 -13.04,4.22 -8.95,4.57 -18.74,7.05 -28.13,10.49 -10.44,3.25 -20.37,7.89 -30.73,11.37 -8.76,2.94 -17.06,7.07 -25.75,10.18 -8.12,3.13 -16.35,6.02 -24.22,9.77 -8.27,3.88 -16.99,6.69 -25.12,10.86 -10.11,4.82 -20.82,8.22 -30.82,13.26 -7.32,3.7 -15.22,6 -22.6,9.52 -13.03,6.38 -26.89,10.79 -40.14,16.64 -8.95,3.97 -18.3,6.92 -27.33,10.67 -14.36,6.09 -29.58,9.66 -44.29,14.7 -10.52,3.25 -21.48,6.06 -30.58,12.53 -6.4,4.19 -11.23,10.27 -15.44,16.56 -5.14,7.67 -7.23,16.86 -8.97,25.79 -1.54,11.8 -1.02,23.87 1.81,35.44 3.31,18.67 12.61,35.39 20.72,52.28 -4.28,-3.15 -7.01,-7.76 -10.34,-11.78 -5,-5.68 -8.28,-12.57 -11.86,-19.17 -5.76,-10.25 -9.25,-21.61 -11.64,-33.07 -1.63,-9.93 -2.27,-20.16 -0.45,-30.12 2.07,-10.56 5.57,-21.16 12.39,-29.66 3.59,-4.38 6.88,-9.12 11.42,-12.6 5.32,-4.07 10.34,-8.65 16.38,-11.66 7.36,-3.78 15.43,-5.85 22.99,-9.16 8.56,-4.19 17.72,-6.98 26.6,-10.43 9.5,-4.43 19.41,-7.94 29.26,-11.55 6.86,-2.19 13.11,-5.86 19.97,-8.07 16.46,-6.17 32.57,-13.2 49.19,-18.99 9.06,-4.22 18.48,-7.59 27.83,-11.11 12.17,-5.55 24.94,-9.62 37.32,-14.65 9.23,-4.48 19.22,-7.12 28.56,-11.36 8.39,-4 17.38,-6.51 25.94,-10.12 8.21,-2.81 15.87,-6.97 24.16,-9.61 14.07,-4.19 26.33,-13.65 41.24,-15.13 z"
   id="path2412"
   inkscape:connector-curvature="0"
   style="fill:#ffda64;stroke:#ffda64;stroke-width:0.5" />
	<path
   d="m 1715.274,894.55 c 5.96,-2.35 11.68,-5.79 15.32,-11.22 5.28,1.97 8.55,6.65 11.12,11.41 -1.98,0.82 -3.87,1.79 -5.72,2.83 -6.69,-2.15 -13.74,-2.9 -20.72,-3.02 z"
   id="path2414"
   inkscape:connector-curvature="0"
   style="fill:#ffae3e;stroke:#ffae3e;stroke-width:0.5" />
	<path
   d="m 1741.714,894.74 c 2.75,-1.34 5.75,-1.96 8.83,-1.73 3.88,0.27 8.14,-0.77 11.72,1.24 2.57,1.16 4.94,2.74 7.29,4.32 -7.22,-0.47 -15.14,-0.03 -20.61,5.35 -4.31,-2.13 -8.48,-4.58 -12.95,-6.35 1.85,-1.04 3.74,-2.01 5.72,-2.83 z"
   id="path2416"
   inkscape:connector-curvature="0"
   style="fill:#d52501;stroke:#d52501;stroke-width:0.5" />
	<path
   d="m 1702.234,898.77 c 4.07,-2.14 8.53,-3.37 13.04,-4.22 6.98,0.12 14.03,0.87 20.72,3.02 4.47,1.77 8.64,4.22 12.95,6.35 7.04,4.07 14.51,7.53 20.93,12.57 2.13,1.39 2.68,3.93 3.35,6.23 -1.67,1.61 -3.2,3.4 -5.12,4.72 -1.53,0.07 -2.99,-0.38 -4.39,-0.84 -9.42,-5.35 -18.71,-10.95 -28.32,-15.91 -4.5,-1.83 -9.23,-3.08 -14.04,-3.73 2.14,3.17 4.31,6.35 5.99,9.81 3.06,6.03 4.68,12.62 6.67,19.05 0.86,3.82 2.99,7.96 1.45,11.85 -1.44,2.52 -4.02,4.52 -6.96,4.83 -6.57,0.7 -13.2,0.2 -19.72,-0.63 -7.09,-1.05 -14.33,-0.4 -21.35,-1.85 -5.23,-1.17 -10.6,-0.83 -15.88,-1.28 -8.07,-0.5 -16.18,-1.69 -24.24,-0.46 0.49,2.56 1.45,5.02 3.07,7.1 0.95,1.2 1.99,2.35 3,3.54 1.16,3.2 2.84,6.8 1.55,10.22 -3.21,4.65 -9.18,5.88 -14.16,7.78 -11.88,2.6 -24.18,0.59 -35.86,-2.12 -10.94,-1.98 -22.26,-2.97 -33.24,-0.8 -2.05,0.39 -3.81,1.54 -5.58,2.54 2.15,2.06 4.35,4.09 6.69,5.96 7.19,6.49 14.82,13.02 19.33,21.78 -1.91,2.38 -3.53,5.44 -6.63,6.41 -4.16,1.23 -8.55,1.09 -12.83,1.41 -6.28,-0.39 -12.58,-0.31 -18.84,-0.78 -9.67,-1.58 -19.47,-2.08 -29.24,-2.64 -11.02,-0.12 -22.49,-0.78 -32.93,3.42 1.73,2.5 3.51,4.98 5.52,7.29 5.28,6.26 11.35,13.55 9.66,22.37 -1.89,0.64 -3.8,1.21 -5.7,1.8 -6.56,-0.34 -13.27,-0.4 -19.53,-2.6 -9.84,-3.75 -20.11,-6.19 -30.3,-8.75 -3.62,-0.98 -7.42,-0.92 -10.98,0.21 1.96,4.59 4.89,8.71 8.57,12.1 3.11,3.25 7.17,6.54 7.42,11.41 0.45,3.19 -2.57,5.39 -5.13,6.57 -12.91,5.24 -27.07,3.87 -40.66,3.93 -5.83,0.5 -9.62,-7.92 -5.44,-12.09 1.45,-2.36 4.36,-2.41 6.82,-2.75 -1.9,1.35 -3.73,2.8 -5.56,4.25 0.1,0.67 0.3,2.03 0.4,2.71 3.75,0.96 7.48,2.03 11.31,2.66 5.78,0.9 11.67,-0.1 17.27,-1.62 1.62,-0.53 3.63,-1 4.36,-2.76 -1.31,-2.16 -3.24,-3.8 -5.06,-5.48 0.48,0.03 1.45,0.08 1.93,0.11 -3.84,-2.94 -7.79,-5.86 -10.57,-9.87 -0.93,-1.85 -1.72,-3.74 -2.39,-5.67 -0.57,-1.82 -1.03,-3.65 -1.48,-5.47 2.56,-5.04 5.32,-10.91 11.07,-12.91 6.64,-2.02 13.73,-1.14 20.47,-0.1 5.25,1.1 10.37,2.77 15.5,4.34 5.63,1.68 10.9,4.31 16.46,6.16 -2.46,-3.68 -5.39,-7 -8.21,-10.38 -2.23,-2.7 -3.77,-5.87 -5.35,-8.96 2.63,-2.51 5.04,-5.35 8.32,-7.05 8.21,-4.45 17.62,-5.55 26.71,-6.94 5.92,0.12 11.84,0.27 17.77,0.45 4.42,0.61 8.87,0.97 13.35,0.99 9.81,1.93 19.89,2.01 29.86,1.95 -3.99,-4.95 -9.32,-8.54 -13.71,-13.09 -0.34,-0.32 -1.01,-0.94 -1.34,-1.25 -2.32,-2.24 -4.7,-4.4 -7.3,-6.27 0.27,-2.48 -0.05,-5.54 2.27,-7.15 12,-9.78 28.17,-11.78 43.15,-10.9 6.64,0.48 13.34,0.67 19.93,1.81 9.22,0.88 18.67,0.61 27.6,3.44 -3.63,-3.42 -7.24,-6.88 -10.54,-10.62 -0.42,-3.75 -0.71,-7.51 -0.92,-11.27 2.13,-2.29 3.93,-5.05 6.79,-6.52 2.7,-1.35 5.75,-1.74 8.68,-2.36 -0.95,0.42 -1.88,0.86 -2.79,1.33 -0.05,0.62 -0.15,1.86 -0.2,2.47 7.91,0.64 16.23,1.72 23.89,-1.01 0.41,-2.33 -2.4,-2.57 -4.02,-2.9 -4.78,-0.47 -9.58,-0.31 -14.36,-0.42 3.32,-0.78 6.69,-1.25 10.1,-1.51 8.12,0.53 16.33,-0.25 24.39,1.18 4.61,0.77 9.3,0.57 13.96,1.04 8.94,0.56 17.69,2.67 26.63,3.26 -1.05,-6.19 -2.97,-12.28 -6.15,-17.7 -1,-1.69 -2.04,-3.34 -3.19,-4.9 -1.65,-1.79 -3.52,-3.34 -5.27,-4.99 -3.37,-2.61 -3.35,-7.05 -3.42,-10.9 m 2.74,0.71 c 0.17,0.8 0.5,2.4 0.67,3.19 6.22,0.41 12.55,0.97 18.75,-0.15 1.73,-0.49 4.54,-2.27 3,-4.29 -7.37,-0.76 -15.47,-1.96 -22.42,1.25 m -1.68,43.65 c 0.7,6.03 7.91,5.07 12.33,5 2.8,0.11 7.91,-1.34 6.82,-4.97 -2.43,-1.39 -5.2,-1.96 -7.9,-2.43 -3.92,-0.72 -7.65,1.19 -11.25,2.4 m -144.49,25 c -0.04,0.64 -0.11,1.94 -0.15,2.59 7.47,0.52 14.82,-1.33 21.6,-4.37 0.11,-1.15 0.25,-2.29 0.41,-3.42 -7.77,-1.42 -15.16,1.62 -21.86,5.2 m 62.58,3.6 c 1.34,0.76 2.69,1.57 4.15,2.19 3.54,3.54 9.6,3.75 13.03,-0.08 1.11,-0.39 2.23,-0.8 3.36,-1.25 -0.7,-2.15 -1.84,-4.58 -4.42,-4.74 -5.54,-0.76 -12.58,-1.44 -16.12,3.88 m -127.73,28.09 c -3.74,1.43 -7.88,2.56 -10.54,5.75 6.63,1.23 13.16,-0.91 19.39,-2.92 1.91,-0.52 3.1,-2.16 4.34,-3.57 -4.39,-0.62 -8.98,-0.84 -13.19,0.74 m 67.89,4.99 c 3.04,1.91 6.27,4.07 10.04,3.92 3.76,0.25 7.21,-1.49 10.49,-3.11 -0.66,-1.65 -1.01,-3.74 -2.94,-4.3 -3.73,-1.2 -7.76,-0.99 -11.59,-0.66 -2.62,0.2 -4.19,2.56 -6,4.15 m -125.93,16.37 c -1.47,3.03 1.23,5.88 4.14,6.37 4.16,0.71 8.48,0.71 12.67,0.06 2.96,-0.59 4.7,-3.31 6.38,-5.56 -4.02,-2.26 -8.46,-4.35 -13.19,-3.94 -3.49,0.34 -6.95,1.34 -10,3.07 z"
   id="path2418"
   inkscape:connector-curvature="0"
   style="fill:#ffdd00;stroke:#ffdd00;stroke-width:0.5" />
	<path
   d="m 1704.974,899.48 c 6.95,-3.21 15.05,-2.01 22.42,-1.25 1.54,2.02 -1.27,3.8 -3,4.29 -6.2,1.12 -12.53,0.56 -18.75,0.15 -0.17,-0.79 -0.5,-2.39 -0.67,-3.19 z"
   id="path2420"
   inkscape:connector-curvature="0"
   style="fill:#fffd67;stroke:#fffd67;stroke-width:0.5" />
	<path
   d="m 1748.944,903.92 c 5.47,-5.38 13.39,-5.82 20.61,-5.35 5.71,5.94 10.71,12.94 12.57,21.1 -1.68,0.81 -3.28,1.75 -4.84,2.73 -1.38,0.1 -2.72,0.21 -4.06,0.32 -0.67,-2.3 -1.22,-4.84 -3.35,-6.23 -6.42,-5.04 -13.89,-8.5 -20.93,-12.57 z"
   id="path2422"
   inkscape:connector-curvature="0"
   style="fill:#ad0604;stroke:#ad0604;stroke-width:0.5" />
	<path
   d="m 1674.104,909.26 c 9.39,-3.44 19.18,-5.92 28.13,-10.49 0.07,3.85 0.05,8.29 3.42,10.9 -9,3.63 -17.57,8.24 -26.7,11.56 -8.09,3.07 -15.79,7.02 -23.67,10.55 -3.41,0.26 -6.78,0.73 -10.1,1.51 -0.63,0.13 -1.89,0.4 -2.52,0.53 -2.93,0.62 -5.98,1.01 -8.68,2.36 -2.86,1.47 -4.66,4.23 -6.79,6.52 -3.12,2.05 -6.69,3.2 -10.09,4.64 -5.19,2.04 -10.11,4.71 -15.31,6.69 -3.73,1.42 -7.47,2.9 -10.67,5.31 -14.98,-0.88 -31.15,1.12 -43.15,10.9 -2.32,1.61 -2,4.67 -2.27,7.15 -6.54,3.7 -13.73,5.97 -20.62,8.89 -6.16,2.43 -12.11,5.34 -18.01,8.33 -9.09,1.39 -18.5,2.49 -26.71,6.94 -3.28,1.7 -5.69,4.54 -8.32,7.05 -6.09,3.03 -12.61,5.2 -18.4,8.84 -6.74,-1.04 -13.83,-1.92 -20.47,0.1 -5.75,2 -8.51,7.87 -11.07,12.91 -9.39,3.19 -18.47,7.21 -27.45,11.39 -7.65,3.52 -15.88,5.76 -23.23,9.92 -7.65,5.02 -11.75,13.88 -14.22,22.39 -0.92,7.43 -1.23,15.32 1.58,22.41 2.71,7.44 5.74,15 11.01,21.05 4.64,5.03 10.62,8.58 16.76,11.47 -1.14,13.91 -1.91,28.25 1.98,41.82 -1.14,0.23 -2.27,0.44 -3.4,0.64 -6.04,-2.54 -9.93,-8.27 -14.49,-12.71 -8.11,-16.89 -17.41,-33.61 -20.72,-52.28 -2.83,-11.57 -3.35,-23.64 -1.81,-35.44 1.74,-8.93 3.83,-18.12 8.97,-25.79 4.21,-6.29 9.04,-12.37 15.44,-16.56 9.1,-6.47 20.06,-9.28 30.58,-12.53 14.71,-5.04 29.93,-8.61 44.29,-14.7 9.03,-3.75 18.38,-6.7 27.33,-10.67 13.25,-5.85 27.11,-10.26 40.14,-16.64 7.38,-3.52 15.28,-5.82 22.6,-9.52 10,-5.04 20.71,-8.44 30.82,-13.26 8.13,-4.17 16.85,-6.98 25.12,-10.86 7.87,-3.75 16.1,-6.64 24.22,-9.77 8.69,-3.11 16.99,-7.24 25.75,-10.18 10.36,-3.48 20.29,-8.12 30.73,-11.37 z"
   id="path2424"
   inkscape:connector-curvature="0"
   style="fill:#ffae3e;stroke:#ffae3e;stroke-width:0.5" />
	<path
   d="m 1721.354,906.96 c 4.81,0.65 9.54,1.9 14.04,3.73 -2.5,0.83 -4.97,1.7 -7.43,2.59 -0.23,1.15 -0.43,2.32 -0.62,3.49 -1.68,-3.46 -3.85,-6.64 -5.99,-9.81 z"
   id="path2426"
   inkscape:connector-curvature="0"
   style="fill:#e97d48;stroke:#e97d48;stroke-width:0.5" />
	<path
   d="m 1678.954,921.23 c 9.13,-3.32 17.7,-7.93 26.7,-11.56 1.75,1.65 3.62,3.2 5.27,4.99 -4.14,2.22 -8.31,4.52 -11.63,7.89 0.87,0.1 2.61,0.3 3.48,0.4 -7.71,1.53 -14.6,5.5 -21.51,9.04 4.08,0.85 8.21,1.5 12.37,2.01 -4.66,-0.47 -9.35,-0.27 -13.96,-1.04 -8.06,-1.43 -16.27,-0.65 -24.39,-1.18 7.88,-3.53 15.58,-7.48 23.67,-10.55 z"
   id="path2428"
   inkscape:connector-curvature="0"
   style="fill:#d62602;stroke:#d62602;stroke-width:0.5" />
	<path
   d="m 1727.964,913.28 c 2.46,-0.89 4.93,-1.76 7.43,-2.59 9.61,4.96 18.9,10.56 28.32,15.91 -1.41,0.6 -2.82,1.18 -4.22,1.75 -7.35,2.99 -14.9,5.6 -21.74,9.68 -1.27,-0.73 -2.52,-1.46 -3.74,-2.21 -1.99,-6.43 -3.61,-13.02 -6.67,-19.05 0.19,-1.17 0.39,-2.34 0.62,-3.49 z"
   id="path2430"
   inkscape:connector-curvature="0"
   style="fill:#ad0604;stroke:#ad0604;stroke-width:0.5" />
	<path
   d="m 1699.294,922.55 c 3.32,-3.37 7.49,-5.67 11.63,-7.89 1.15,1.56 2.19,3.21 3.19,4.9 -3.71,1.36 -7.45,2.69 -11.34,3.39 -0.87,-0.1 -2.61,-0.3 -3.48,-0.4 z"
   id="path2432"
   inkscape:connector-curvature="0"
   style="fill:#fd945b;stroke:#fd945b;stroke-width:0.5" />
	<path
   d="m 1782.124,919.67 c 6.65,-0.39 13.33,-2.77 20,-1.11 3.93,1.2 8.13,2.56 10.9,5.8 2.78,3.2 4.85,6.93 6.93,10.61 -7.85,-1.43 -15.6,0.98 -23.35,1.87 -7.61,0.68 -14.97,2.68 -22.35,4.49 -10.94,2.15 -21.76,4.85 -32.45,7.99 -1.85,-3.58 -3.08,-7.41 -4.05,-11.29 6.84,-4.08 14.39,-6.69 21.74,-9.68 4.28,1.34 8.17,3.65 12.41,5.09 2.01,0.82 3.92,-0.88 5.02,-2.41 1.76,-2.57 0.6,-5.82 0.36,-8.63 1.56,-0.98 3.16,-1.92 4.84,-2.73 z"
   id="path2434"
   inkscape:connector-curvature="0"
   style="fill:#ffca56;stroke:#ffca56;stroke-width:0.5" />
	<path
   d="m 1702.774,922.95 c 3.89,-0.7 7.63,-2.03 11.34,-3.39 3.18,5.42 5.1,11.51 6.15,17.7 -8.94,-0.59 -17.69,-2.7 -26.63,-3.26 -4.16,-0.51 -8.29,-1.16 -12.37,-2.01 6.91,-3.54 13.8,-7.51 21.51,-9.04 z"
   id="path2436"
   inkscape:connector-curvature="0"
   style="fill:#ae0604;stroke:#ae0604;stroke-width:0.5" />
	<path
   d="m 1773.224,922.72 c 1.34,-0.11 2.68,-0.22 4.06,-0.32 0.24,2.81 1.4,6.06 -0.36,8.63 -1.1,1.53 -3.01,3.23 -5.02,2.41 -4.24,-1.44 -8.13,-3.75 -12.41,-5.09 1.4,-0.57 2.81,-1.15 4.22,-1.75 1.4,0.46 2.86,0.91 4.39,0.84 1.92,-1.32 3.45,-3.11 5.12,-4.72 z"
   id="path2438"
   inkscape:connector-curvature="0"
   style="fill:#e8ad45;stroke:#e8ad45;stroke-width:0.5" />
	<path
   d="m 1642.664,933.82 c 0.63,-0.13 1.89,-0.4 2.52,-0.53 4.78,0.11 9.58,-0.05 14.36,0.42 1.62,0.33 4.43,0.57 4.02,2.9 -7.66,2.73 -15.98,1.65 -23.89,1.01 0.05,-0.61 0.15,-1.85 0.2,-2.47 0.91,-0.47 1.84,-0.91 2.79,-1.33 z"
   id="path2440"
   inkscape:connector-curvature="0"
   style="fill:#fffc65;stroke:#fffc65;stroke-width:0.5" />
	<path
   d="m 1796.604,936.84 c 7.75,-0.89 15.5,-3.3 23.35,-1.87 2.43,8.07 5.66,16.31 4.3,24.9 -0.85,4.75 -0.63,9.95 -3.25,14.17 0.68,-5.88 1.6,-11.72 2.43,-17.58 1.02,-4.66 -4.24,-7.5 -8.04,-8.37 -8.45,-1.26 -17.36,-0.88 -25.43,2.11 -8.78,3.27 -17.72,6.09 -26.39,9.64 -7.25,2.76 -13.8,7 -20.9,10.07 -9.2,3.95 -17.89,8.96 -27.09,12.9 -9.21,3.92 -17.9,8.94 -27.11,12.85 -8.11,3.44 -15.77,7.86 -23.93,11.2 -10.9,4.59 -21.36,10.15 -32.28,14.71 -6.91,2.91 -13.51,6.51 -20.43,9.39 -6.59,2.77 -13.24,5.39 -19.67,8.51 -10.93,5.33 -22.48,9.24 -33.45,14.46 -8.12,3.85 -16.71,6.57 -24.89,10.27 -11.22,5.15 -23.13,8.59 -34.45,13.51 -5.02,2.25 -9.96,4.66 -15.05,6.75 -8.31,3.3 -15.68,8.43 -23.6,12.49 -10.24,5.67 -19.59,12.9 -28.15,20.85 -6.87,6.15 -13.4,12.83 -18.37,20.64 -3.97,6.14 -8.06,12.21 -11.6,18.61 -0.61,-8.4 2.35,-16.42 6.67,-23.48 3.88,-7.18 8.75,-13.75 14.33,-19.7 11.19,-13.54 26.1,-23.33 41.4,-31.64 9.12,-5.73 18.68,-10.69 28.05,-15.99 7.21,-4.6 15,-8.19 22.32,-12.61 8.62,-5.19 17.8,-9.36 26.44,-14.53 7.47,-4.51 15.58,-7.77 23.26,-11.87 5.8,-3.38 11.99,-5.97 18.05,-8.84 4.77,-0.49 9.32,-2.13 13.17,-5.03 9.64,-4.25 19.56,-7.94 28.82,-13.03 6.32,-3.55 13.21,-5.97 19.54,-9.51 9.96,-5.67 20.68,-9.81 30.85,-15.09 7.58,-4.04 15.72,-6.86 23.46,-10.56 5.32,-2.57 11.24,-3.97 15.98,-7.65 7.54,1.37 15.75,2.81 23.08,-0.23 3.34,-1.2 3.44,-5 3.78,-7.97 10.69,-3.14 21.51,-5.84 32.45,-7.99 7.38,-1.81 14.74,-3.81 22.35,-4.49 z"
   id="path2442"
   inkscape:connector-curvature="0"
   style="fill:#ffae3e;stroke:#ffae3e;stroke-width:0.5" />
	<path
   d="m 1734.014,935.82 c 1.22,0.75 2.47,1.48 3.74,2.21 0.97,3.88 2.2,7.71 4.05,11.29 -0.34,2.97 -0.44,6.77 -3.78,7.97 -7.33,3.04 -15.54,1.6 -23.08,0.23 -5.49,-1.04 -11.09,-1.22 -16.64,-1.08 3.51,-1.46 6.84,-3.37 10.48,-4.57 6.52,0.83 13.15,1.33 19.72,0.63 2.94,-0.31 5.52,-2.31 6.96,-4.83 1.54,-3.89 -0.59,-8.03 -1.45,-11.85 z"
   id="path2444"
   inkscape:connector-curvature="0"
   style="fill:#e89e3a;stroke:#e89e3a;stroke-width:0.5" />
	<path
   d="m 1703.294,943.13 c 3.6,-1.21 7.33,-3.12 11.25,-2.4 2.7,0.47 5.47,1.04 7.9,2.43 1.09,3.63 -4.02,5.08 -6.82,4.97 -4.42,0.07 -11.63,1.03 -12.33,-5 z"
   id="path2446"
   inkscape:connector-curvature="0"
   style="fill:#fffd67;stroke:#fffd67;stroke-width:0.5" />
	<path
   d="m 1617.104,947.34 c 3.4,-1.44 6.97,-2.59 10.09,-4.64 0.21,3.76 0.5,7.52 0.92,11.27 -5.8,2.12 -11.55,4.41 -17.06,7.18 -6.59,-1.14 -13.29,-1.33 -19.93,-1.81 3.2,-2.41 6.94,-3.89 10.67,-5.31 5.2,-1.98 10.12,-4.65 15.31,-6.69 z"
   id="path2448"
   inkscape:connector-curvature="0"
   style="fill:#d52601;stroke:#d52601;stroke-width:0.5" />
	<path
   d="m 1647.314,948.28 c 8.06,-1.23 16.17,-0.04 24.24,0.46 5.28,0.45 10.65,0.11 15.88,1.28 7.02,1.45 14.26,0.8 21.35,1.85 -3.64,1.2 -6.97,3.11 -10.48,4.57 -1.5,0.52 -2.96,1.08 -4.38,1.72 -3.89,-1.73 -8.12,-2.49 -12.35,-2.5 -5.56,-0.06 -11.06,-0.79 -16.55,-1.45 -4.92,-0.6 -9.83,0.24 -14.64,1.17 -1.62,-2.08 -2.58,-4.54 -3.07,-7.1 z"
   id="path2450"
   inkscape:connector-curvature="0"
   style="fill:#9d0403;stroke:#9d0403;stroke-width:0.5" />
	<path
   d="m 1789.964,950.2 c 8.07,-2.99 16.98,-3.37 25.43,-2.11 3.8,0.87 9.06,3.71 8.04,8.37 -0.83,5.86 -1.75,11.7 -2.43,17.58 -1.73,9.77 -6.31,18.75 -10.92,27.44 -2.6,3.96 -5.55,7.67 -8.35,11.49 -2.9,4.06 -6.87,7.14 -10.32,10.69 -6.16,7.25 -15.01,11.39 -23.27,15.73 -8.73,5.02 -18.3,8.32 -27.28,12.8 -8.89,5.45 -19.03,8.46 -27.9,13.95 -8.26,3.72 -16.58,7.37 -24.67,11.45 -8.31,5.11 -17.91,7.62 -26.19,12.78 -4.05,2.16 -8.25,4.02 -12.44,5.86 -4.83,1.92 -6.38,-5.19 -11.05,-4.39 -3.06,-0.14 -8.63,1.31 -6.88,5.45 2.27,1.54 4.89,2.51 7.48,3.47 -8.08,4.86 -16.85,8.39 -25.32,12.47 -3.38,1.82 -6.71,3.71 -10.27,5.16 -2.35,-2.23 -4.52,-4.8 -7.48,-6.21 -2.5,-0.8 -5.17,-0.22 -7.7,-0.1 0.03,4.13 3.23,6.72 6.22,9.04 -0.65,0.64 -1.3,1.29 -1.93,1.95 -3.26,2.27 -7.11,3.44 -10.52,5.42 -6.73,3.9 -14.08,6.5 -20.97,10.05 -10.21,5.34 -20.78,9.92 -31.19,14.83 -0.17,-3.56 0.2,-7.12 0.27,-10.66 -4.25,0.42 -8.11,3.34 -9.22,7.53 -0.31,2.36 0.22,4.72 0.51,7.08 -9.92,4.96 -19.7,10.21 -29.88,14.64 -3.27,1.26 -6.26,3.84 -9.79,4.03 -2.87,-1.66 -5.51,-3.82 -8.7,-4.83 -2.99,-0.97 -5.55,1.45 -8,2.74 1.43,3.27 4.51,4.89 7.89,5.57 -1.11,0.89 -2.21,1.8 -3.31,2.69 -5.05,3.3 -10.97,5.25 -16.89,6.23 -10.2,0.7 -20.27,-1.77 -29.82,-5.12 -6.38,-2.29 -11.92,-6.56 -16.38,-11.59 -3.17,-3.54 -4.26,-8.34 -4.57,-12.94 0.11,-0.43 0.33,-1.27 0.44,-1.69 3.54,-6.4 7.63,-12.47 11.6,-18.61 4.97,-7.81 11.5,-14.49 18.37,-20.64 8.56,-7.95 17.91,-15.18 28.15,-20.85 7.92,-4.06 15.29,-9.19 23.6,-12.49 5.09,-2.09 10.03,-4.5 15.05,-6.75 11.32,-4.92 23.23,-8.36 34.45,-13.51 8.18,-3.7 16.77,-6.42 24.89,-10.27 10.97,-5.22 22.52,-9.13 33.45,-14.46 6.43,-3.12 13.08,-5.74 19.67,-8.51 6.92,-2.88 13.52,-6.48 20.43,-9.39 10.92,-4.56 21.38,-10.12 32.28,-14.71 8.16,-3.34 15.82,-7.76 23.93,-11.2 9.21,-3.91 17.9,-8.93 27.11,-12.85 9.2,-3.94 17.89,-8.95 27.09,-12.9 7.1,-3.07 13.65,-7.31 20.9,-10.07 8.67,-3.55 17.61,-6.37 26.39,-9.64 m -10.5,39.78 c 1.91,-2.61 3.76,-5.66 3.07,-9.05 -0.09,-2.75 -2.13,-4.71 -3.9,-6.53 -6.03,2.96 -5.5,13.25 0.83,15.58 m 20.77,-8.48 c -1.37,1.67 -0.78,4.56 1.3,5.38 3.84,1.84 8.24,0.94 12.16,-0.22 -0.27,-1.38 -0.4,-2.77 -0.86,-4.07 -3.62,-2.32 -8.71,-3.25 -12.6,-1.09 m -79.43,5.52 c -2.55,2.35 0.79,5.47 2.88,6.75 2.92,2.33 6.75,2.22 10.09,0.89 -0.44,-2.5 -0.91,-5.32 -3.27,-6.74 -2.73,-1.86 -7.06,-4.07 -9.7,-0.9 m 27.1,17.99 c -1.54,5.49 1.69,13.44 8.33,12.72 0.6,-3.84 0.89,-8.4 -2.33,-11.21 -1.48,-1.84 -3.95,-1.41 -6,-1.51 m 32.66,7.82 c -3.18,2.55 -4.95,6.6 -4.79,10.67 2.95,0.3 6.34,0.47 8.57,-1.91 2.91,-2.4 3.32,-6.42 2.21,-9.82 -2.01,0.25 -4.21,0 -5.99,1.06 m -111.59,10.32 c -1.17,0.46 -2.17,1.55 -2.17,2.86 -0.34,4.32 2.63,8.78 6.95,9.74 1.53,0.24 3.82,-0.11 3.68,-2.15 0.43,-4.67 -3.13,-11.15 -8.46,-10.45 m 34.53,4.75 c -0.05,1.58 -1.11,3.46 0.1,4.86 3.34,3.47 8.64,4.93 13.16,2.93 -0.43,-2.03 -0.51,-4.42 -2.38,-5.69 -2.94,-2.76 -7.21,-2.18 -10.88,-2.1 m -66.38,9.08 c 0.33,2.83 1.67,5.59 3.65,7.66 1.72,1.88 4.42,0.9 6.64,0.9 0.13,-4.1 -1.11,-8.57 -4.49,-11.13 -2.23,-1.62 -5.65,-0.25 -5.8,2.57 m 102.75,-1.66 c -2.47,0.21 -4.22,2.89 -3.18,5.22 2.31,4.17 8.02,5.42 12.21,3.56 2.36,-1.35 1.25,-4.69 -0.71,-5.81 -2.52,-1.54 -5.35,-2.87 -8.32,-2.97 m -140.02,16.82 c 0.02,2.65 1.97,4.84 3.92,6.45 2.78,2.21 6.51,1.12 9.72,0.82 -0.57,-3.3 -2.02,-6.78 -5.26,-8.22 -2.63,-1.31 -6.73,-2.31 -8.38,0.95 m 101.18,3.13 c -4.49,1.81 -6.95,7.47 -4.73,11.87 1.4,2.25 4.87,1.69 6.31,-0.23 1.67,-2.33 2.65,-5.17 2.81,-8.02 0.36,-2.28 -2.2,-4.67 -4.39,-3.62 m -153.78,10.19 c -3.55,0.74 -3.5,5.84 -0.54,7.26 4.01,1.57 9.5,2.15 12.3,-1.85 -2.47,-3.77 -7.26,-6.35 -11.76,-5.41 m 106.24,5.38 c -0.69,6.15 5.19,12.64 11.53,10.4 2.19,-6.4 -5.41,-12.91 -11.53,-10.4 m -152.68,16.21 c -1.73,1.78 -0.92,4.38 -0.93,6.58 4.75,0.47 10.45,-1.92 11.55,-6.98 0.72,-2.22 -1.28,-5.12 -3.69,-4.54 -2.75,0.87 -5.08,2.78 -6.93,4.94 m 95.63,-2.01 c 2.44,4.9 8.7,6.08 13.44,4.06 1.71,-1.11 2.26,-3.73 0.5,-5.06 -3.94,-3.48 -10.53,-3.01 -13.94,1 m -65.17,15.48 c -2.03,3.58 -1.49,8.47 0.98,11.69 1.56,2.08 4.16,1.11 6.24,0.62 -0.02,-3.49 0.86,-7.5 -1.45,-10.48 -1.26,-1.7 -3.78,-3.35 -5.77,-1.83 m 36.44,16.39 c -4.7,1.89 -6.42,8.96 -2.34,12.29 2.24,-1.55 4.75,-2.92 6.33,-5.22 1.48,-2.06 1.57,-4.69 1.96,-7.1 -1.97,-0.32 -4.1,-1.09 -5.95,0.03 m -93.63,1.37 c -2.52,1.88 0.07,4.84 1.71,6.34 2.85,2.79 7.06,2.25 10.68,1.85 -0.26,-2.21 -0.11,-4.92 -2.3,-6.21 -2.83,-1.84 -6.85,-4.16 -10.09,-1.98 m -38.15,37.85 c -4.77,2.13 -5.73,9.71 -1.59,12.98 1.38,1.11 3.94,1.05 4.86,-0.66 1.75,-2.95 3.13,-7.03 0.93,-10.12 -0.93,-1.35 -2.4,-3.29 -4.2,-2.2 z"
   id="path2452"
   inkscape:connector-curvature="0"
   style="fill:#e67c14;stroke:#e67c14;stroke-width:0.5" />
	<path
   d="m 1611.054,961.15 c 5.51,-2.77 11.26,-5.06 17.06,-7.18 3.3,3.74 6.91,7.2 10.54,10.62 -8.93,-2.83 -18.38,-2.56 -27.6,-3.44 z"
   id="path2454"
   inkscape:connector-curvature="0"
   style="fill:#ad0504;stroke:#ad0504;stroke-width:0.5" />
	<path
   d="m 1650.384,955.38 c 4.81,-0.93 9.72,-1.77 14.64,-1.17 5.49,0.66 10.99,1.39 16.55,1.45 4.23,0.01 8.46,0.77 12.35,2.5 -10.52,5.17 -21.19,9.99 -31.9,14.73 -2.04,-5.13 -4.76,-10.01 -8.64,-13.97 -1.01,-1.19 -2.05,-2.34 -3,-3.54 z"
   id="path2456"
   inkscape:connector-curvature="0"
   style="fill:#ae0604;stroke:#ae0604;stroke-width:0.5" />
	<path
   d="m 1693.924,958.16 c 1.42,-0.64 2.88,-1.2 4.38,-1.72 5.55,-0.14 11.15,0.04 16.64,1.08 -4.74,3.68 -10.66,5.08 -15.98,7.65 -7.74,3.7 -15.88,6.52 -23.46,10.56 -10.17,5.28 -20.89,9.42 -30.85,15.09 -6.33,3.54 -13.22,5.96 -19.54,9.51 -9.26,5.09 -19.18,8.78 -28.82,13.03 -0.75,-3.3 -1.45,-6.58 -2.16,-9.87 6.97,-2.89 13.61,-6.54 20.66,-9.27 6.89,-2.7 13.35,-6.33 20.12,-9.29 9.3,-3.38 18.26,-7.61 27.11,-12.04 10.71,-4.74 21.38,-9.56 31.9,-14.73 z"
   id="path2458"
   inkscape:connector-curvature="0"
   style="fill:#ffca56;stroke:#ffca56;stroke-width:0.5" />
	<path
   d="m 1653.384,958.92 c 3.88,3.96 6.6,8.84 8.64,13.97 -8.85,4.43 -17.81,8.66 -27.11,12.04 -10.41,-1.42 -20.71,-3.49 -31.16,-4.54 -10.23,-1.92 -21.54,-3.42 -30.97,2.11 -2.34,-1.87 -4.54,-3.9 -6.69,-5.96 1.77,-1 3.53,-2.15 5.58,-2.54 10.98,-2.17 22.3,-1.18 33.24,0.8 11.68,2.71 23.98,4.72 35.86,2.12 4.98,-1.9 10.95,-3.13 14.16,-7.78 1.29,-3.42 -0.39,-7.02 -1.55,-10.22 z"
   id="path2460"
   inkscape:connector-curvature="0"
   style="fill:#9d0503;stroke:#9d0503;stroke-width:0.5" />
	<path
   d="m 1558.804,968.13 c 6.7,-3.58 14.09,-6.62 21.86,-5.2 -0.16,1.13 -0.3,2.27 -0.41,3.42 -6.78,3.04 -14.13,4.89 -21.6,4.37 0.04,-0.65 0.11,-1.95 0.15,-2.59 z"
   id="path2462"
   inkscape:connector-curvature="0"
   style="fill:#fffd67;stroke:#fffd67;stroke-width:0.5" />
	<path
   d="m 1621.384,971.73 c 3.54,-5.32 10.58,-4.64 16.12,-3.88 2.58,0.16 3.72,2.59 4.42,4.74 -1.13,0.45 -2.25,0.86 -3.36,1.25 -4.34,0.32 -8.7,0.31 -13.03,0.08 -1.46,-0.62 -2.81,-1.43 -4.15,-2.19 z"
   id="path2464"
   inkscape:connector-curvature="0"
   style="fill:#fffd67;stroke:#fffd67;stroke-width:0.5" />
	<path
   d="m 1625.534,973.92 c 4.33,0.23 8.69,0.24 13.03,-0.08 -3.43,3.83 -9.49,3.62 -13.03,0.08 z"
   id="path2466"
   inkscape:connector-curvature="0"
   style="fill:#fff129;stroke:#fff129;stroke-width:0.5" />
	<path
   d="m 1779.464,989.98 c -6.33,-2.33 -6.86,-12.62 -0.83,-15.58 1.77,1.82 3.81,3.78 3.9,6.53 0.69,3.39 -1.16,6.44 -3.07,9.05 z"
   id="path2468"
   inkscape:connector-curvature="0"
   style="fill:#f29428;stroke:#f29428;stroke-width:0.5" />
	<path
   d="m 1525.084,986.28 c 6.89,-2.92 14.08,-5.19 20.62,-8.89 2.6,1.87 4.98,4.03 7.3,6.27 -9.84,2.37 -19.87,5.42 -28.16,11.4 -5.93,-0.18 -11.85,-0.33 -17.77,-0.45 5.9,-2.99 11.85,-5.9 18.01,-8.33 z"
   id="path2470"
   inkscape:connector-curvature="0"
   style="fill:#d52502;stroke:#d52502;stroke-width:0.5" />
	<path
   d="m 1572.784,982.5 c 9.43,-5.53 20.74,-4.03 30.97,-2.11 10.45,1.05 20.75,3.12 31.16,4.54 -6.77,2.96 -13.23,6.59 -20.12,9.29 -7.05,2.73 -13.69,6.38 -20.66,9.27 -0.51,0.2 -1.52,0.59 -2.02,0.79 -4.51,-8.76 -12.14,-15.29 -19.33,-21.78 z"
   id="path2472"
   inkscape:connector-curvature="0"
   style="fill:#ae0604;stroke:#ae0604;stroke-width:0.5" />
	<path
   d="m 1800.234,981.5 c 3.89,-2.16 8.98,-1.23 12.6,1.09 0.46,1.3 0.59,2.69 0.86,4.07 -3.92,1.16 -8.32,2.06 -12.16,0.22 -2.08,-0.82 -2.67,-3.71 -1.3,-5.38 z"
   id="path2474"
   inkscape:connector-curvature="0"
   style="fill:#f39529;stroke:#f39529;stroke-width:0.5" />
	<path
   d="m 1524.844,995.06 c 8.29,-5.98 18.32,-9.03 28.16,-11.4 0.33,0.31 1,0.93 1.34,1.25 -4.46,4.99 -10.97,7.11 -16.15,11.14 -4.48,-0.02 -8.93,-0.38 -13.35,-0.99 z"
   id="path2476"
   inkscape:connector-curvature="0"
   style="fill:#fe925a;stroke:#fe925a;stroke-width:0.5" />
	<path
   d="m 1554.344,984.91 c 4.39,4.55 9.72,8.14 13.71,13.09 -9.97,0.06 -20.05,-0.02 -29.86,-1.95 5.18,-4.03 11.69,-6.15 16.15,-11.14 z"
   id="path2478"
   inkscape:connector-curvature="0"
   style="fill:#ad0604;stroke:#ad0604;stroke-width:0.5" />
	<path
   d="m 1720.804,987.02 c 2.64,-3.17 6.97,-0.96 9.7,0.9 2.36,1.42 2.83,4.24 3.27,6.74 -3.34,1.33 -7.17,1.44 -10.09,-0.89 -2.09,-1.28 -5.43,-4.4 -2.88,-6.75 z"
   id="path2480"
   inkscape:connector-curvature="0"
   style="fill:#f39428;stroke:#f39428;stroke-width:0.5" />
	<path
   d="m 1493.654,999.82 c 4.21,-1.58 8.8,-1.36 13.19,-0.74 -1.24,1.41 -2.43,3.05 -4.34,3.57 -6.23,2.01 -12.76,4.15 -19.39,2.92 2.66,-3.19 6.8,-4.32 10.54,-5.75 z"
   id="path2482"
   inkscape:connector-curvature="0"
   style="fill:#fffc67;stroke:#fffc67;stroke-width:0.5" />
	<path
   d="m 1561.544,1004.81 c 1.81,-1.59 3.38,-3.95 6,-4.15 3.83,-0.33 7.86,-0.54 11.59,0.66 1.93,0.56 2.28,2.65 2.94,4.3 -3.28,1.62 -6.73,3.36 -10.49,3.11 -3.77,0.15 -7,-2.01 -10.04,-3.92 z"
   id="path2484"
   inkscape:connector-curvature="0"
   style="fill:#fffd66;stroke:#fffd66;stroke-width:0.5" />
	<path
   d="m 1592.114,1004.28 c 0.5,-0.2 1.51,-0.59 2.02,-0.79 0.71,3.29 1.41,6.57 2.16,9.87 -3.85,2.9 -8.4,4.54 -13.17,5.03 -6.89,-0.42 -13.78,-0.81 -20.67,-0.74 3.61,-1.44 6.82,-3.66 10.2,-5.55 4.28,-0.32 8.67,-0.18 12.83,-1.41 3.1,-0.97 4.72,-4.03 6.63,-6.41 z"
   id="path2486"
   inkscape:connector-curvature="0"
   style="fill:#e8ad45;stroke:#e8ad45;stroke-width:0.5" />
	<path
   d="m 1747.904,1005.01 c 2.05,0.1 4.52,-0.33 6,1.51 3.22,2.81 2.93,7.37 2.33,11.21 -6.64,0.72 -9.87,-7.23 -8.33,-12.72 z"
   id="path2488"
   inkscape:connector-curvature="0"
   style="fill:#f39529;stroke:#f39529;stroke-width:0.5" />
	<path
   d="m 1453.644,1017.44 c 5.79,-3.64 12.31,-5.81 18.4,-8.84 1.58,3.09 3.12,6.26 5.35,8.96 -2.8,1.31 -5.56,2.71 -8.25,4.22 -5.13,-1.57 -10.25,-3.24 -15.5,-4.34 z"
   id="path2490"
   inkscape:connector-curvature="0"
   style="fill:#d52601;stroke:#d52601;stroke-width:0.5" />
	<path
   d="m 1491.644,1012.1 c 10.44,-4.2 21.91,-3.54 32.93,-3.42 9.77,0.56 19.57,1.06 29.24,2.64 6.26,0.47 12.56,0.39 18.84,0.78 -3.38,1.89 -6.59,4.11 -10.2,5.55 -1.79,0.62 -3.55,1.28 -5.29,1.98 -1.97,-1.37 -4.1,-2.63 -6.54,-2.75 -7.36,-0.67 -14.63,-2.36 -22.04,-2.15 -10.57,0.03 -21.9,-0.86 -31.42,4.66 -2.01,-2.31 -3.79,-4.79 -5.52,-7.29 z"
   id="path2492"
   inkscape:connector-curvature="0"
   style="fill:#9d0503;stroke:#9d0503;stroke-width:0.5" />
	<path
   d="m 1780.564,1012.83 c 1.78,-1.06 3.98,-0.81 5.99,-1.06 1.11,3.4 0.7,7.42 -2.21,9.82 -2.23,2.38 -5.62,2.21 -8.57,1.91 -0.16,-4.07 1.61,-8.12 4.79,-10.67 z"
   id="path2494"
   inkscape:connector-curvature="0"
   style="fill:#f39529;stroke:#f39529;stroke-width:0.5" />
	<path
   d="m 1497.164,1019.39 c 9.52,-5.52 20.85,-4.63 31.42,-4.66 7.41,-0.21 14.68,1.48 22.04,2.15 2.44,0.12 4.57,1.38 6.54,2.75 -9.15,3.56 -17.72,8.4 -26.9,11.88 -5.61,2.33 -11.31,4.48 -16.75,7.2 -2.21,1.07 -4.41,2.16 -6.69,3.05 1.69,-8.82 -4.38,-16.11 -9.66,-22.37 z"
   id="path2496"
   inkscape:connector-curvature="0"
   style="fill:#ae0604;stroke:#ae0604;stroke-width:0.5" />
	<path
   d="m 1435.614,1021.18 c 3.05,-1.73 6.51,-2.73 10,-3.07 4.73,-0.41 9.17,1.68 13.19,3.94 -1.68,2.25 -3.42,4.97 -6.38,5.56 -4.19,0.65 -8.51,0.65 -12.67,-0.06 -2.91,-0.49 -5.61,-3.34 -4.14,-6.37 z"
   id="path2498"
   inkscape:connector-curvature="0"
   style="fill:#fffd66;stroke:#fffd66;stroke-width:0.5" />
	<path
   d="m 1469.144,1021.78 c 2.69,-1.51 5.45,-2.91 8.25,-4.22 2.82,3.38 5.75,6.7 8.21,10.38 -5.56,-1.85 -10.83,-4.48 -16.46,-6.16 z"
   id="path2500"
   inkscape:connector-curvature="0"
   style="fill:#ad0704;stroke:#ad0704;stroke-width:0.5" />
	<path
   d="m 1557.164,1019.63 c 1.74,-0.7 3.5,-1.36 5.29,-1.98 6.89,-0.07 13.78,0.32 20.67,0.74 -6.06,2.87 -12.25,5.46 -18.05,8.84 -7.68,4.1 -15.79,7.36 -23.26,11.87 -8.64,5.17 -17.82,9.34 -26.44,14.53 -7.32,4.42 -15.11,8.01 -22.32,12.61 -9.37,5.3 -18.93,10.26 -28.05,15.99 -15.3,8.31 -30.21,18.1 -41.4,31.64 -5.58,5.95 -10.45,12.52 -14.33,19.7 -4.32,7.06 -7.28,15.08 -6.67,23.48 -0.11,0.42 -0.33,1.26 -0.44,1.69 -2.58,5.7 -7.09,11.15 -13.63,12.16 -3.89,-13.57 -3.12,-27.91 -1.98,-41.82 0.07,-0.55 0.21,-1.67 0.28,-2.23 3.14,-9.79 7.68,-19.39 15.01,-26.76 4.49,-4.5 9.14,-8.87 14.02,-12.95 8.73,-6.11 17.64,-12.09 27.41,-16.45 4.94,0.11 10.3,0.4 14.64,-2.45 2.57,-1.22 3.16,-4.18 3.98,-6.61 9.76,-4.5 19.36,-9.41 29.41,-13.24 5.98,0.11 12.12,2.02 18.02,0.3 4.06,-1.45 3.81,-6.46 4.19,-9.98 5.44,-2.72 11.14,-4.87 16.75,-7.2 9.18,-3.48 17.75,-8.32 26.9,-11.88 z"
   id="path2502"
   inkscape:connector-curvature="0"
   style="fill:#ffca56;stroke:#ffca56;stroke-width:0.5" />
	<path
   d="m 1668.974,1023.15 c 5.33,-0.7 8.89,5.78 8.46,10.45 0.14,2.04 -2.15,2.39 -3.68,2.15 -4.32,-0.96 -7.29,-5.42 -6.95,-9.74 0,-1.31 1,-2.4 2.17,-2.86 z"
   id="path2504"
   inkscape:connector-curvature="0"
   style="fill:#f39529;stroke:#f39529;stroke-width:0.5" />
	<path
   d="m 1703.504,1027.9 c 3.67,-0.08 7.94,-0.66 10.88,2.1 1.87,1.27 1.95,3.66 2.38,5.69 -4.52,2 -9.82,0.54 -13.16,-2.93 -1.21,-1.4 -0.15,-3.28 -0.1,-4.86 z"
   id="path2506"
   inkscape:connector-curvature="0"
   style="fill:#f39529;stroke:#f39529;stroke-width:0.5" />
	<path
   d="m 1394.654,1041.84 c 8.98,-4.18 18.06,-8.2 27.45,-11.39 0.45,1.82 0.91,3.65 1.48,5.47 -6.95,2.92 -13.67,6.32 -20.56,9.37 -4.36,2.2 -9.57,3.97 -11.72,8.78 -5.19,2.25 -10.79,4.5 -14.38,9.09 -3.19,3.97 -4.44,8.99 -6.29,13.63 0.31,-2.89 0.24,-5.8 0.13,-8.68 -0.63,-0.36 -1.88,-1.07 -2.5,-1.43 -1.41,1.56 -3.07,3.01 -3.88,4.99 -0.93,2.86 -0.18,5.89 0.22,8.79 1.37,0.27 2.75,0.56 4.15,0.86 -2.06,6 -0.51,12.4 0.78,18.4 1.49,7.53 5.18,14.42 9.43,20.75 1.88,2.9 4.77,4.93 7.87,6.38 -0.07,0.56 -0.21,1.68 -0.28,2.23 -6.14,-2.89 -12.12,-6.44 -16.76,-11.47 -5.27,-6.05 -8.3,-13.61 -11.01,-21.05 -2.81,-7.09 -2.5,-14.98 -1.58,-22.41 2.47,-8.51 6.57,-17.37 14.22,-22.39 7.35,-4.16 15.58,-6.4 23.23,-9.92 z"
   id="path2508"
   inkscape:connector-curvature="0"
   style="fill:#d62602;stroke:#d62602;stroke-width:0.5" />
	<path
   d="m 1440.314,1032.42 c 3.56,-1.13 7.36,-1.19 10.98,-0.21 10.19,2.56 20.46,5 30.3,8.75 6.26,2.2 12.97,2.26 19.53,2.6 -3.25,1.66 -6.42,3.5 -9.82,4.83 -10.05,3.83 -19.65,8.74 -29.41,13.24 -6.46,2.48 -12.45,5.98 -18.62,9.06 -9.77,4.36 -18.68,10.34 -27.41,16.45 -4.88,4.08 -9.53,8.45 -14.02,12.95 -7.33,7.37 -11.87,16.97 -15.01,26.76 -3.1,-1.45 -5.99,-3.48 -7.87,-6.38 -4.25,-6.33 -7.94,-13.22 -9.43,-20.75 -1.29,-6 -2.84,-12.4 -0.78,-18.4 0.6,-1.53 1.28,-3.01 1.88,-4.53 1.85,-4.64 3.1,-9.66 6.29,-13.63 3.59,-4.59 9.19,-6.84 14.38,-9.09 12.19,-2.15 23.52,-7.33 34.67,-12.48 2.78,4.01 6.73,6.93 10.57,9.87 -0.48,-0.03 -1.45,-0.08 -1.93,-0.11 -7.57,-0.31 -15.18,-0.58 -22.72,0.24 -2.46,0.34 -5.37,0.39 -6.82,2.75 -4.18,4.17 -0.39,12.59 5.44,12.09 13.59,-0.06 27.75,1.31 40.66,-3.93 2.56,-1.18 5.58,-3.38 5.13,-6.57 -0.25,-4.87 -4.31,-8.16 -7.42,-11.41 -3.68,-3.39 -6.61,-7.51 -8.57,-12.1 m -64.29,55.94 c -0.94,1.41 -1.57,3.79 0.33,4.75 2.99,0.72 6.11,-0.44 8.72,-1.86 1.33,-1.75 1.07,-4.09 1.33,-6.13 -3.78,-0.54 -7.65,0.52 -10.38,3.24 m 1.33,18.47 c 0.06,2.52 3.97,6.19 5.85,3.69 0.07,-3.02 -3.56,-3.59 -5.85,-3.69 z"
   id="path2510"
   inkscape:connector-curvature="0"
   style="fill:#ae0604;stroke:#ae0604;stroke-width:0.5" />
	<path
   d="m 1637.124,1036.98 c 0.15,-2.82 3.57,-4.19 5.8,-2.57 3.38,2.56 4.62,7.03 4.49,11.13 -2.22,0 -4.92,0.98 -6.64,-0.9 -1.98,-2.07 -3.32,-4.83 -3.65,-7.66 z"
   id="path2512"
   inkscape:connector-curvature="0"
   style="fill:#f39529;stroke:#f39529;stroke-width:0.5" />
	<path
   d="m 1739.874,1035.32 c 2.97,0.1 5.8,1.43 8.32,2.97 1.96,1.12 3.07,4.46 0.71,5.81 -4.19,1.86 -9.9,0.61 -12.21,-3.56 -1.04,-2.33 0.71,-5.01 3.18,-5.22 z"
   id="path2514"
   inkscape:connector-curvature="0"
   style="fill:#f39529;stroke:#f39529;stroke-width:0.5" />
	<path
   d="m 1403.024,1045.29 c 6.89,-3.05 13.61,-6.45 20.56,-9.37 0.67,1.93 1.46,3.82 2.39,5.67 -11.15,5.15 -22.48,10.33 -34.67,12.48 2.15,-4.81 7.36,-6.58 11.72,-8.78 z"
   id="path2516"
   inkscape:connector-curvature="0"
   style="fill:#fe945a;stroke:#fe945a;stroke-width:0.5" />
	<path
   d="m 1506.824,1041.76 c 2.28,-0.89 4.48,-1.98 6.69,-3.05 -0.38,3.52 -0.13,8.53 -4.19,9.98 -5.9,1.72 -12.04,-0.19 -18.02,-0.3 3.4,-1.33 6.57,-3.17 9.82,-4.83 1.9,-0.59 3.81,-1.16 5.7,-1.8 z"
   id="path2518"
   inkscape:connector-curvature="0"
   style="fill:#e8ad45;stroke:#e8ad45;stroke-width:0.5" />
	<path
   d="m 1599.854,1052.14 c 1.65,-3.26 5.75,-2.26 8.38,-0.95 3.24,1.44 4.69,4.92 5.26,8.22 -3.21,0.3 -6.94,1.39 -9.72,-0.82 -1.95,-1.61 -3.9,-3.8 -3.92,-6.45 z"
   id="path2520"
   inkscape:connector-curvature="0"
   style="fill:#f39529;stroke:#f39529;stroke-width:0.5" />
	<path
   d="m 1411.894,1051.59 c 7.54,-0.82 15.15,-0.55 22.72,-0.24 1.82,1.68 3.75,3.32 5.06,5.48 -0.73,1.76 -2.74,2.23 -4.36,2.76 -5.6,1.52 -11.49,2.52 -17.27,1.62 -3.83,-0.63 -7.56,-1.7 -11.31,-2.66 -0.1,-0.68 -0.3,-2.04 -0.4,-2.71 1.83,-1.45 3.66,-2.9 5.56,-4.25 z"
   id="path2522"
   inkscape:connector-curvature="0"
   style="fill:#fffd66;stroke:#fffd66;stroke-width:0.5" />
	<path
   d="m 1701.034,1055.27 c 2.19,-1.05 4.75,1.34 4.39,3.62 -0.16,2.85 -1.14,5.69 -2.81,8.02 -1.44,1.92 -4.91,2.48 -6.31,0.23 -2.22,-4.4 0.24,-10.06 4.73,-11.87 z"
   id="path2524"
   inkscape:connector-curvature="0"
   style="fill:#f39529;stroke:#f39529;stroke-width:0.5" />
	<path
   d="m 1443.274,1070.69 c 6.17,-3.08 12.16,-6.58 18.62,-9.06 -0.82,2.43 -1.41,5.39 -3.98,6.61 -4.34,2.85 -9.7,2.56 -14.64,2.45 z"
   id="path2526"
   inkscape:connector-curvature="0"
   style="fill:#eab146;stroke:#eab146;stroke-width:0.5" />
	<path
   d="m 1547.254,1065.46 c 4.5,-0.94 9.29,1.64 11.76,5.41 -2.8,4 -8.29,3.42 -12.3,1.85 -2.96,-1.42 -3.01,-6.52 0.54,-7.26 z"
   id="path2528"
   inkscape:connector-curvature="0"
   style="fill:#f39529;stroke:#f39529;stroke-width:0.5" />
	<path
   d="m 1364.384,1071.67 c 0.81,-1.98 2.47,-3.43 3.88,-4.99 0.62,0.36 1.87,1.07 2.5,1.43 0.11,2.88 0.18,5.79 -0.13,8.68 -0.6,1.52 -1.28,3 -1.88,4.53 -1.4,-0.3 -2.78,-0.59 -4.15,-0.86 -0.4,-2.9 -1.15,-5.93 -0.22,-8.79 z"
   id="path2530"
   inkscape:connector-curvature="0"
   style="fill:#fe975a;stroke:#fe975a;stroke-width:0.5" />
	<path
   d="m 1653.494,1070.84 c 6.12,-2.51 13.72,4 11.53,10.4 -6.34,2.24 -12.22,-4.25 -11.53,-10.4 z"
   id="path2532"
   inkscape:connector-curvature="0"
   style="fill:#f39529;stroke:#f39529;stroke-width:0.5" />
	<path
   d="m 1500.814,1087.05 c 1.85,-2.16 4.18,-4.07 6.93,-4.94 2.41,-0.58 4.41,2.32 3.69,4.54 -1.1,5.06 -6.8,7.45 -11.55,6.98 0.01,-2.2 -0.8,-4.8 0.93,-6.58 z"
   id="path2534"
   inkscape:connector-curvature="0"
   style="fill:#f39529;stroke:#f39529;stroke-width:0.5" />
	<path
   d="m 1596.444,1085.04 c 3.41,-4.01 10,-4.48 13.94,-1 1.76,1.33 1.21,3.95 -0.5,5.06 -4.74,2.02 -11,0.84 -13.44,-4.06 z"
   id="path2536"
   inkscape:connector-curvature="0"
   style="fill:#f39529;stroke:#f39529;stroke-width:0.5" />
	<path
   d="m 1376.024,1088.36 c 2.73,-2.72 6.6,-3.78 10.38,-3.24 -0.26,2.04 0,4.38 -1.33,6.13 -2.61,1.42 -5.73,2.58 -8.72,1.86 -1.9,-0.96 -1.27,-3.34 -0.33,-4.75 z"
   id="path2538"
   inkscape:connector-curvature="0"
   style="fill:#fd885c;stroke:#fd885c;stroke-width:0.5" />
	<path
   d="m 1631.734,1097.29 c -1.75,-4.14 3.82,-5.59 6.88,-5.45 4.67,-0.8 6.22,6.31 11.05,4.39 -3.45,1.55 -6.73,3.79 -10.45,4.53 -2.59,-0.96 -5.21,-1.93 -7.48,-3.47 z"
   id="path2540"
   inkscape:connector-curvature="0"
   style="fill:#f39529;stroke:#f39529;stroke-width:0.5" />
	<path
   d="m 1531.274,1100.52 c 1.99,-1.52 4.51,0.13 5.77,1.83 2.31,2.98 1.43,6.99 1.45,10.48 -2.08,0.49 -4.68,1.46 -6.24,-0.62 -2.47,-3.22 -3.01,-8.11 -0.98,-11.69 z"
   id="path2542"
   inkscape:connector-curvature="0"
   style="fill:#f39529;stroke:#f39529;stroke-width:0.5" />
	<path
   d="m 1377.354,1106.83 c 2.29,0.1 5.92,0.67 5.85,3.69 -1.88,2.5 -5.79,-1.17 -5.85,-3.69 z"
   id="path2544"
   inkscape:connector-curvature="0"
   style="fill:#fa9263;stroke:#fa9263;stroke-width:0.5" />
	<path
   d="m 1588.444,1112.08 c 2.53,-0.12 5.2,-0.7 7.7,0.1 2.96,1.41 5.13,3.98 7.48,6.21 -3.38,2.07 -7.12,3.51 -10.89,4.68 0.63,-0.66 1.28,-1.31 1.93,-1.95 -2.99,-2.32 -6.19,-4.91 -6.22,-9.04 z"
   id="path2546"
   inkscape:connector-curvature="0"
   style="fill:#f39529;stroke:#f39529;stroke-width:0.5" />
	<path
   d="m 1567.714,1116.91 c 1.85,-1.12 3.98,-0.35 5.95,-0.03 -0.39,2.41 -0.48,5.04 -1.96,7.1 -1.58,2.3 -4.09,3.67 -6.33,5.22 -4.08,-3.33 -2.36,-10.4 2.34,-12.29 z"
   id="path2548"
   inkscape:connector-curvature="0"
   style="fill:#f39529;stroke:#f39529;stroke-width:0.5" />
	<path
   d="m 1474.084,1118.28 c 3.24,-2.18 7.26,0.14 10.09,1.98 2.19,1.29 2.04,4 2.3,6.21 -3.62,0.4 -7.83,0.94 -10.68,-1.85 -1.64,-1.5 -4.23,-4.46 -1.71,-6.34 z"
   id="path2550"
   inkscape:connector-curvature="0"
   style="fill:#f39529;stroke:#f39529;stroke-width:0.5" />
	<path
   d="m 1521.104,1150.24 c 1.11,-4.19 4.97,-7.11 9.22,-7.53 -0.07,3.54 -0.44,7.1 -0.27,10.66 -2.4,2.1 -5.34,3.36 -8.44,3.95 -0.29,-2.36 -0.82,-4.72 -0.51,-7.08 z"
   id="path2552"
   inkscape:connector-curvature="0"
   style="fill:#f39529;stroke:#f39529;stroke-width:0.5" />
	<path
   d="m 1435.934,1156.13 c 1.8,-1.09 3.27,0.85 4.2,2.2 2.2,3.09 0.82,7.17 -0.93,10.12 -0.92,1.71 -3.48,1.77 -4.86,0.66 -4.14,-3.27 -3.18,-10.85 1.59,-12.98 z"
   id="path2554"
   inkscape:connector-curvature="0"
   style="fill:#f39428;stroke:#f39428;stroke-width:0.5" />
	<path
   d="m 1388.534,1170.9 c 6.54,-1.01 11.05,-6.46 13.63,-12.16 0.31,4.6 1.4,9.4 4.57,12.94 4.46,5.03 10,9.3 16.38,11.59 9.55,3.35 19.62,5.82 29.82,5.12 -1.59,1 -3.39,1.67 -5.28,1.7 -7.68,0.43 -15.43,0.51 -23.08,-0.3 -14.09,-3.45 -28.64,-8.15 -39.44,-18.25 1.13,-0.2 2.26,-0.41 3.4,-0.64 z"
   id="path2556"
   inkscape:connector-curvature="0"
   style="fill:#f4a931;stroke:#f4a931;stroke-width:0.5" />
	<path
   d="m 1465.244,1173.9 c 2.45,-1.29 5.01,-3.71 8,-2.74 3.19,1.01 5.83,3.17 8.7,4.83 -3.69,2.67 -7.62,5.16 -12.12,6.17 1.1,-0.89 2.2,-1.8 3.31,-2.69 -3.38,-0.68 -6.46,-2.3 -7.89,-5.57 z"
   id="path2558"
   inkscape:connector-curvature="0"
   style="fill:#f39428;stroke:#f39428;stroke-width:0.5" />
</g>

</svg>