<?xml version="1.0" encoding="UTF-8" standalone="no"?>
<!-- Created with Inkscape (http://www.inkscape.org/) -->

<svg
   xmlns:dc="http://purl.org/dc/elements/1.1/"
   xmlns:cc="http://creativecommons.org/ns#"
   xmlns:rdf="http://www.w3.org/1999/02/22-rdf-syntax-ns#"
   xmlns:svg="http://www.w3.org/2000/svg"
   xmlns="http://www.w3.org/2000/svg"
   xmlns:sodipodi="http://sodipodi.sourceforge.net/DTD/sodipodi-0.dtd"
   xmlns:inkscape="http://www.inkscape.org/namespaces/inkscape"
   width="256"
   height="256"
   viewBox="0 0 239.99998 239.99998"
   id="svg2"
   version="1.1"
   inkscape:version="0.92.4 (5da689c313, 2019-01-14)"
   sodipodi:docname="ketchup.svg">
  <title
     id="title860">Ketchup</title>
  <defs
     id="defs4" />
  <sodipodi:namedview
     id="base"
     pagecolor="#ffffff"
     bordercolor="#666666"
     borderopacity="1.0"
     inkscape:pageopacity="0.0"
     inkscape:pageshadow="2"
     inkscape:zoom="1.3944803"
     inkscape:cx="44.757085"
     inkscape:cy="168.0281"
     inkscape:document-units="px"
     inkscape:current-layer="svg2"
     showgrid="false"
     inkscape:window-width="1920"
     inkscape:window-height="1025"
     inkscape:window-x="-8"
     inkscape:window-y="-8"
     inkscape:window-maximized="1"
     fit-margin-top="0"
     fit-margin-left="0"
     fit-margin-right="0"
     fit-margin-bottom="0"
     units="px" />
  <metadata
     id="metadata7">
    <rdf:RDF>
      <cc:Work
         rdf:about="">
        <dc:format>image/svg+xml</dc:format>
        <dc:type
           rdf:resource="http://purl.org/dc/dcmitype/StillImage" />
        <dc:title>Ketchup</dc:title>
        <cc:license
           rdf:resource="http://creativecommons.org/publicdomain/zero/1.0/" />
        <dc:source>https://openclipart.org/detail/268371</dc:source>
        <dc:creator>
          <cc:Agent>
            <dc:title>lohanandrade</dc:title>
          </cc:Agent>
        </dc:creator>
      </cc:Work>
      <cc:License
         rdf:about="http://creativecommons.org/publicdomain/zero/1.0/">
        <cc:permits
           rdf:resource="http://creativecommons.org/ns#Reproduction" />
        <cc:permits
           rdf:resource="http://creativecommons.org/ns#Distribution" />
        <cc:permits
           rdf:resource="http://creativecommons.org/ns#DerivativeWorks" />
      </cc:License>
    </rdf:RDF>
  </metadata>
  <g
     transform="matrix(0.56749328,0,0,0.56749328,-62.943937,-95.36085)"
     id="g5656"
     inkscape:export-xdpi="170.28647"
     inkscape:export-ydpi="170.28647">
    <path
       inkscape:connector-curvature="0"
       id="path4194"
       style="fill:#b2151b;fill-opacity:1;fill-rule:nonzero;stroke:none"
       d="m 345.68822,229.70121 h -46.63375 v -33.33 h 46.63375 z" />
    <path
       inkscape:connector-curvature="0"
       id="path4196"
       style="fill:#b2151b;fill-opacity:1;fill-rule:nonzero;stroke:none"
       d="m 263.67197,590.95121 c -13.675,0 -25.13125,-10.245 -26.64875,-23.83125 l -0.0275,-0.3125 -8.43625,-138.10375 v -0.19 c 0,-34.27875 18.37,-65.36375 48.17625,-81.95 l 10.27375,-114.6825 c 0.8275,-9.37 8.555,-16.4425 17.975,-16.4425 h 34.775 c 9.42,0 17.1475,7.0725 17.975,16.45125 l 10.2725,114.67375 c 29.8075,16.58625 48.1775,47.67125 48.1775,81.95 v 0.19 l -8.44625,138.26 -0.0187,0.15625 c -1.51625,13.58625 -12.9725,23.83125 -26.6475,23.83125 h -117.4 z" />
    <path
       inkscape:connector-curvature="0"
       id="path4198"
       style="fill:#ed1c24;fill-opacity:1;fill-rule:nonzero;stroke:none"
       d="m 362.08447,350.48871 -10.575,-118.05 c -0.5375,-6.0875 -5.6375,-10.75 -11.75,-10.75 h -17.3875 -17.3875 c -6.1125,0 -11.2125,4.6625 -11.75,10.75 l -10.575,118.05 c -28.4,14.475 -47.85,43.975 -47.85,78.025 l 8.425,137.9125 c 1.1625,10.4125 9.9625,18.275 20.4375,18.275 h 58.7 58.7 c 10.475,0 19.275,-7.8625 20.4375,-18.275 l 8.425,-137.9125 c 0,-34.05 -19.45,-63.55 -47.85,-78.025" />
    <path
       inkscape:connector-curvature="0"
       id="path4200"
       style="fill:#f6d77a;fill-opacity:1;fill-rule:nonzero;stroke:none"
       d="m 272.26822,519.09246 -7.9125,-79.06 c 0.6125,-27.15125 26.4025,-49.0775 58.01625,-49.0775 31.61375,0 57.40375,21.92625 58.01625,49.0775 l -7.91375,79.06 c -0.3175,3.175 -3.3975,5.6125 -7.09125,5.6125 h -86.0225 c -3.695,0 -6.775,-2.4375 -7.0925,-5.6125" />
    <path
       inkscape:connector-curvature="0"
       id="path4202"
       style="fill:#b9a15c;fill-opacity:1;fill-rule:nonzero;stroke:none"
       d="m 282.79822,515.32996 h 79.1475 l 7.565,-75.585 c -0.78375,-21.7425 -21.90375,-39.415 -47.13875,-39.415 -25.235,0 -46.355,17.6725 -47.1375,39.415 z m 83.135,3.75 h -87.1225 l -7.92875,-79.22875 0.004,-0.1075 c 0.7825,-23.8 23.88,-43.16375 51.48625,-43.16375 27.605,0 50.70375,19.36375 51.48625,43.16375 l 0.004,0.1075 -0.01,0.1075 -7.91875,79.12125 z" />
    <path
       inkscape:connector-curvature="0"
       id="path4204"
       style="fill:#ed1c24;fill-opacity:1;fill-rule:nonzero;stroke:none"
       d="m 356.64572,476.72746 c -3.46625,8.38625 -14.32125,11.85875 -24.24625,7.7575 -9.92375,-4.1 -15.16,-14.22375 -11.69375,-22.61 3.465,-8.38625 14.25375,-10.3525 22.52875,-3.60625 8.87125,-1.195 16.87625,10.0725 13.41125,18.45875" />
    <path
       inkscape:connector-curvature="0"
       id="path4206"
       style="fill:#d11920;fill-opacity:1;fill-rule:nonzero;stroke:none"
       d="m 356.64447,476.72871 c -3.465,8.38625 -14.32,11.8575 -24.24375,7.7575 -0.585,-0.2425 -1.15625,-0.505 -1.71,-0.79125 9.305,0.4 16.88,-2.65125 19.37,-8.67375 2.10125,-5.08625 0.14125,-11.23 -4.66,-16.8025 7.945,0.69 14.42375,10.815 11.24375,18.51" />
    <path
       inkscape:connector-curvature="0"
       id="path4208"
       style="fill:#22b573;fill-opacity:1;fill-rule:nonzero;stroke:none"
       d="m 345.24697,459.83621 0.24125,5.31 -3.26125,-5.35375 -5.65625,1.66875 4.33875,-4.22 -3.64875,-3.955 5.095,1.895 1.76875,-2.61875 0.84875,3.15625 5.555,0.79 c 0,0 -0.005,10e-4 -0.0125,0.002 l -4.015,1.58375 3.1225,4.15125 -4.37625,-2.41 z" />
    <path
       inkscape:connector-curvature="0"
       id="path4210"
       style="fill:#1d9961;fill-opacity:1;fill-rule:nonzero;stroke:none"
       d="m 345.24697,459.83621 0.24125,5.31 -3.26125,-5.35375 -5.65625,1.66875 c 0.67875,-0.655 4.8525,-2.215 4.8525,-2.215 l 0.74125,-1.7925 1.94,2.0375 0.54,-1.30875 0.54375,0.0775 0.2125,-0.0412 c 0,0 -0.755,-0.85625 -10e-4,-1.16625 0.73125,-0.3 4.85875,-0.52875 5.11625,-0.54125 l -4.015,1.58375 3.1225,4.15125 -4.37625,-2.41 z" />
    <path
       inkscape:connector-curvature="0"
       id="path4212"
       style="fill:#22b573;fill-opacity:1;fill-rule:nonzero;stroke:none"
       d="m 343.75197,457.01496 c 0,0 3.43125,-6.835 5.07125,-6.1575 1.64125,0.6775 0.1075,1.45125 0.1075,1.45125 l -4.53125,4.9725 z" />
    <path
       inkscape:connector-curvature="0"
       id="path4214"
       style="fill:#1d9961;fill-opacity:1;fill-rule:nonzero;stroke:none"
       d="m 346.29322,457.15871 c -0.14875,0.36 -1.61875,0.84 -2.24375,0.45125 -0.625,-0.73 -1.11125,-0.8 -0.9625,-1.16125 0.84,-0.30875 0.82125,-0.4225 1.5,-0.1425 0.68,0.28125 1.85375,0.4925 1.70625,0.8525" />
    <path
       inkscape:connector-curvature="0"
       id="path4216"
       style="fill:#22b573;fill-opacity:1;fill-rule:nonzero;stroke:none"
       d="m 348.92947,452.30746 -4.41,4.84125 -0.23,-0.1225 -0.195,0.13125 c -0.18625,-0.0775 -0.2675,-0.295 -0.17375,-0.47375 0.715,-1.36 3.4825,-6.4125 4.9025,-5.825 0.4025,0.16625 0.615,0.33875 0.70375,0.505 10e-4,-0.002 10e-4,-0.002 0.004,10e-4 0.26625,0.50625 -0.60125,0.9425 -0.60125,0.9425" />
    <path
       inkscape:connector-curvature="0"
       id="path4218"
       style="fill:#1d9961;fill-opacity:1;fill-rule:nonzero;stroke:none"
       d="m 348.92947,452.30746 -4.41,4.84125 -0.23,-0.1225 c 0,0 3.45625,-5.4 5.2375,-5.6625 10e-4,-0.002 10e-4,-0.002 0.004,10e-4 0.26625,0.50625 -0.60125,0.9425 -0.60125,0.9425" />
    <path
       inkscape:connector-curvature="0"
       id="path4220"
       style="fill:#ed1c24;fill-opacity:1;fill-rule:nonzero;stroke:none"
       d="m 335.53947,463.21121 c 0,12.1125 -11.62125,21.9325 -25.95625,21.9325 -14.335,0 -25.9575,-9.82 -25.9575,-21.9325 0,-12.115 12.30875,-20.04125 25.9575,-15.9375 10.33625,-5.99625 25.95625,3.8225 25.95625,15.9375" />
    <path
       inkscape:connector-curvature="0"
       id="path4222"
       style="fill:#d11920;fill-opacity:1;fill-rule:nonzero;stroke:none"
       d="m 335.53947,463.21246 c 0,12.1125 -11.62125,21.93125 -25.95375,21.93125 -0.84875,0 -1.68625,-0.0338 -2.515,-0.10375 11.68375,-4.2525 19.475,-11.8775 19.475,-20.5775 0,-7.3475 -5.5525,-13.9275 -14.315,-18.35375 10.15375,-3.20125 23.30875,5.9875 23.30875,17.10375" />
    <path
       inkscape:connector-curvature="0"
       id="path4224"
       style="fill:#f88b8f;fill-opacity:1;fill-rule:nonzero;stroke:none"
       d="m 294.48697,462.73746 c 0,4.4875 4.12375,8.12625 0.95625,8.12625 -3.16875,0 -5.73625,-3.63875 -5.73625,-8.12625 0,-4.48875 2.5675,-8.12625 5.73625,-8.12625 3.1675,0 -0.95625,3.6375 -0.95625,8.12625" />
    <path
       inkscape:connector-curvature="0"
       id="path4226"
       style="fill:#22b573;fill-opacity:1;fill-rule:nonzero;stroke:none"
       d="m 312.86572,448.18121 3.005,6.43 -6.75375,-4.9425 -6.12625,4.9425 3.2,-7.41875 -6.51875,-3.02 7.2525,-0.26125 0.8475,-4.13125 2.655,3.46 7.2575,-1.855 c 0,0 -0.005,0.005 -0.0137,0.009 l -4.1475,4 5.96875,3.53125 -6.62625,-0.74375 z" />
    <path
       inkscape:connector-curvature="0"
       id="path4228"
       style="fill:#1d9961;fill-opacity:1;fill-rule:nonzero;stroke:none"
       d="m 312.86572,448.18121 3.005,6.43 -6.75375,-4.9425 -6.12625,4.9425 c 0.50125,-1.15625 4.85625,-5.2075 4.85625,-5.2075 v -2.59 l 3.4325,1.52375 v -1.88875 l 0.71,-0.18125 0.24125,-0.15875 c 0,0 -1.3675,-0.6725 -0.59625,-1.43875 0.7475,-0.74375 5.72375,-3.12875 6.03625,-3.27625 l -4.1475,4 5.96875,3.53125 z" />
    <path
       inkscape:connector-curvature="0"
       id="path4230"
       style="fill:#22b573;fill-opacity:1;fill-rule:nonzero;stroke:none"
       d="m 309.58322,445.46246 c 0,0 0.7475,-10.18125 3.11625,-10.18125 2.37,0 0.87375,1.73625 0.87375,1.73625 l -3.05625,8.445 z" />
    <path
       inkscape:connector-curvature="0"
       id="path4232"
       style="fill:#1d9961;fill-opacity:1;fill-rule:nonzero;stroke:none"
       d="m 312.78947,444.34496 c 0,0.52 -1.5675,1.86125 -2.5375,1.7 -1.1425,-0.58125 -1.7775,-0.42125 -1.7775,-0.94125 0.8775,-0.80875 0.79625,-0.94125 1.7775,-0.94125 0.9825,0 2.5375,-0.3375 2.5375,0.1825" />
    <path
       inkscape:connector-curvature="0"
       id="path4234"
       style="fill:#22b573;fill-opacity:1;fill-rule:nonzero;stroke:none"
       d="m 313.57072,437.01496 -2.9725,8.2225 -0.34625,-0.0337 -0.17375,0.26 c -0.26875,0 -0.48,-0.22625 -0.45625,-0.495 0.1875,-2.0425 1.0275,-9.68625 3.0775,-9.68625 0.5825,0 0.9325,0.10375 1.1275,0.265 0,-0.005 0,-0.005 0.004,0 0.5875,0.4875 -0.26,1.4675 -0.26,1.4675" />
    <path
       inkscape:connector-curvature="0"
       id="path4236"
       style="fill:#1d9961;fill-opacity:1;fill-rule:nonzero;stroke:none"
       d="m 313.57072,437.01496 -2.9725,8.2225 -0.34625,-0.0337 c 0,0 1.51,-8.425 3.575,-9.65625 0,-0.005 0,-0.005 0.004,0 0.5875,0.4875 -0.26,1.4675 -0.26,1.4675" />
    <path
       inkscape:connector-curvature="0"
       id="path4238"
       style="fill:#f4777c;fill-opacity:1;fill-rule:nonzero;stroke:none"
       d="m 299.12697,229.70121 v 0 c -2.11375,0 -3.87375,1.61875 -4.05125,3.725 l -10.125,120.8 c -24.75,15.475 -41.2,42.9625 -41.2,74.2875 l 8.425,137.9125 c 1.1625,10.4125 9.9625,18.275 20.4375,18.275 h 17.3875 c -10.475,0 -19.275,-7.8625 -20.4375,-18.275 l -8.425,-137.9125 c 0,-24.88375 10.38375,-47.3425 27.065,-63.28875 4.25625,-4.06875 6.7475,-9.645 7.14875,-15.52 l 0.0738,-1.07875 7.75625,-114.58625 c 0.15875,-2.3475 -1.7025,-4.33875 -4.055,-4.33875" />
    <path
       inkscape:connector-curvature="0"
       id="path4240"
       style="fill:#b2151b;fill-opacity:1;fill-rule:nonzero;stroke:none"
       d="m 355.36197,212.93996 h -65.98 c -5.64375,0 -10.22,-4.575 -10.22,-10.21875 v -24.4625 c 0,-5.64375 4.57625,-10.22 10.22,-10.22 h 65.98 c 5.64375,0 10.21875,4.57625 10.21875,10.22 v 24.4625 c 0,5.64375 -4.575,10.21875 -10.21875,10.21875" />
    <path
       inkscape:connector-curvature="0"
       id="path4242"
       style="fill:#ed1c24;fill-opacity:1;fill-rule:nonzero;stroke:none"
       d="m 361.83447,178.26371 v 24.4625 c 0,3.5625 -2.9,6.4625 -6.475,6.4625 h -65.975 c -3.575,0 -6.475,-2.9 -6.475,-6.4625 v -24.4625 c 0,-3.575 2.9,-6.475 6.475,-6.475 h 65.975 c 3.575,0 6.475,2.9 6.475,6.475" />
    <path
       inkscape:connector-curvature="0"
       id="path4244"
       style="fill:#b2151b;fill-opacity:1;fill-rule:nonzero;stroke:none"
       d="m 289.38197,211.26246 h -3.46625 v -27.32375 c 0,-0.9575 0.77625,-1.73375 1.73375,-1.73375 0.95625,0 1.7325,0.77625 1.7325,1.73375 z" />
    <path
       inkscape:connector-curvature="0"
       id="path4246"
       style="fill:#b2151b;fill-opacity:1;fill-rule:nonzero;stroke:none"
       d="m 295.65822,211.26246 h -3.4675 v -27.32375 c 0,-0.9575 0.77625,-1.73375 1.73375,-1.73375 0.9575,0 1.73375,0.77625 1.73375,1.73375 z" />
    <path
       inkscape:connector-curvature="0"
       id="path4248"
       style="fill:#b2151b;fill-opacity:1;fill-rule:nonzero;stroke:none"
       d="m 301.93322,211.26246 h -3.46625 v -27.32375 c 0,-0.9575 0.77625,-1.73375 1.73375,-1.73375 0.95625,0 1.7325,0.77625 1.7325,1.73375 z" />
    <path
       inkscape:connector-curvature="0"
       id="path4250"
       style="fill:#b2151b;fill-opacity:1;fill-rule:nonzero;stroke:none"
       d="m 308.20822,211.26246 h -3.46625 v -27.32375 c 0,-0.9575 0.77625,-1.73375 1.73375,-1.73375 0.9575,0 1.7325,0.77625 1.7325,1.73375 z" />
    <path
       inkscape:connector-curvature="0"
       id="path4252"
       style="fill:#b2151b;fill-opacity:1;fill-rule:nonzero;stroke:none"
       d="m 314.48447,211.26246 h -3.46625 v -27.32375 c 0,-0.9575 0.77625,-1.73375 1.73375,-1.73375 0.95625,0 1.7325,0.77625 1.7325,1.73375 z" />
    <path
       inkscape:connector-curvature="0"
       id="path4254"
       style="fill:#b2151b;fill-opacity:1;fill-rule:nonzero;stroke:none"
       d="m 320.75947,211.26246 h -3.465 v -27.32375 c 0,-0.9575 0.775,-1.73375 1.7325,-1.73375 0.9575,0 1.7325,0.77625 1.7325,1.73375 z" />
    <path
       inkscape:connector-curvature="0"
       id="path4256"
       style="fill:#b2151b;fill-opacity:1;fill-rule:nonzero;stroke:none"
       d="m 327.03572,211.26246 h -3.46625 v -27.32375 c 0,-0.9575 0.775,-1.73375 1.73375,-1.73375 0.95625,0 1.7325,0.77625 1.7325,1.73375 z" />
    <path
       inkscape:connector-curvature="0"
       id="path4258"
       style="fill:#b2151b;fill-opacity:1;fill-rule:nonzero;stroke:none"
       d="m 333.31197,211.26246 h -3.46625 v -27.32375 c 0,-0.9575 0.775,-1.73375 1.7325,-1.73375 0.9575,0 1.73375,0.77625 1.73375,1.73375 z" />
    <path
       inkscape:connector-curvature="0"
       id="path4260"
       style="fill:#b2151b;fill-opacity:1;fill-rule:nonzero;stroke:none"
       d="m 339.58572,211.26246 h -3.465 v -27.32375 c 0,-0.9575 0.775,-1.73375 1.73375,-1.73375 0.95625,0 1.73125,0.77625 1.73125,1.73375 z" />
    <path
       inkscape:connector-curvature="0"
       id="path4262"
       style="fill:#b2151b;fill-opacity:1;fill-rule:nonzero;stroke:none"
       d="m 345.86197,211.26246 h -3.465 v -27.32375 c 0,-0.9575 0.775,-1.73375 1.7325,-1.73375 0.9575,0 1.7325,0.77625 1.7325,1.73375 z" />
    <path
       inkscape:connector-curvature="0"
       id="path4264"
       style="fill:#b2151b;fill-opacity:1;fill-rule:nonzero;stroke:none"
       d="m 352.13822,211.26246 h -3.46625 v -27.32375 c 0,-0.9575 0.775,-1.73375 1.73375,-1.73375 0.95625,0 1.7325,0.77625 1.7325,1.73375 z" />
    <path
       inkscape:connector-curvature="0"
       id="path4266"
       style="fill:#b2151b;fill-opacity:1;fill-rule:nonzero;stroke:none"
       d="m 358.41322,211.26246 h -3.465 v -27.32375 c 0,-0.9575 0.775,-1.73375 1.73125,-1.73375 0.95875,0 1.73375,0.77625 1.73375,1.73375 z" />
    <path
       inkscape:connector-curvature="0"
       id="path4268"
       style="fill:#f4777c;fill-opacity:1;fill-rule:nonzero;stroke:none"
       d="m 361.83447,178.26371 v 0.0125 c -11.375,2.4875 -24.925,3.925 -39.4625,3.925 -14.5375,0 -28.0875,-1.4375 -39.4625,-3.925 v -0.0125 c 0,-3.575 2.9,-6.475 6.475,-6.475 h 65.975 c 3.575,0 6.475,2.9 6.475,6.475" />
  </g>
</svg>
