<?xml version="1.0" encoding="UTF-8" standalone="no"?>
<!-- Created with Inkscape (http://www.inkscape.org/) -->

<svg
   xmlns:dc="http://purl.org/dc/elements/1.1/"
   xmlns:cc="http://creativecommons.org/ns#"
   xmlns:rdf="http://www.w3.org/1999/02/22-rdf-syntax-ns#"
   xmlns:svg="http://www.w3.org/2000/svg"
   xmlns="http://www.w3.org/2000/svg"
   xmlns:sodipodi="http://sodipodi.sourceforge.net/DTD/sodipodi-0.dtd"
   xmlns:inkscape="http://www.inkscape.org/namespaces/inkscape"
   id="svg4249"
   sodipodi:docname="sandwich_02.svg"
   viewBox="0 0 256 256.00001"
   version="1.1"
   inkscape:version="0.92.4 (5da689c313, 2019-01-14)"
   width="256"
   height="256">
  <title
     id="title856">Vegetarian Sandwich</title>
  <defs
     id="defs4251">
    <linearGradient
       id="linearGradient4959"
       y2="469.16"
       gradientUnits="userSpaceOnUse"
       x2="-67.959999"
       gradientTransform="translate(400.93,78.329)"
       y1="457.69"
       x1="-84.852997"
       inkscape:collect="always">
      <stop
         id="stop4012"
         style="stop-color:#cf9361"
         offset="0" />
      <stop
         id="stop4014"
         style="stop-color:#aa6934"
         offset="1" />
    </linearGradient>
  </defs>
  <sodipodi:namedview
     id="base"
     bordercolor="#666666"
     inkscape:pageshadow="2"
     inkscape:window-y="-8"
     pagecolor="#ffffff"
     inkscape:window-height="1025"
     inkscape:window-maximized="1"
     inkscape:zoom="0.70710678"
     inkscape:window-x="-8"
     showgrid="false"
     borderopacity="1.0"
     inkscape:current-layer="svg4249"
     inkscape:cx="-7.7139288"
     inkscape:cy="206.70732"
     inkscape:window-width="1920"
     inkscape:pageopacity="0.0"
     inkscape:document-units="px"
     fit-margin-top="0"
     fit-margin-left="0"
     fit-margin-right="0"
     fit-margin-bottom="0" />
  <metadata
     id="metadata48">
    <rdf:RDF>
      <cc:Work>
        <dc:format>image/svg+xml</dc:format>
        <dc:type
           rdf:resource="http://purl.org/dc/dcmitype/StillImage" />
        <cc:license
           rdf:resource="http://creativecommons.org/publicdomain/zero/1.0/" />
        <dc:publisher>
          <cc:Agent
             rdf:about="http://openclipart.org/">
            <dc:title>OpenClipart</dc:title>
          </cc:Agent>
        </dc:publisher>
        <dc:title>Vegetarian Sandwich</dc:title>
        <dc:date>2010-04-02T20:29:03</dc:date>
        <dc:description />
        <dc:source>https://openclipart.org/detail/36199</dc:source>
        <dc:creator>
          <cc:Agent>
            <dc:title>rg1024</dc:title>
          </cc:Agent>
        </dc:creator>
        <dc:subject>
          <rdf:Bag>
            <rdf:li>diet</rdf:li>
            <rdf:li>eat</rdf:li>
            <rdf:li>eating</rdf:li>
            <rdf:li>food</rdf:li>
            <rdf:li>sandwich</rdf:li>
            <rdf:li>vegetarian</rdf:li>
          </rdf:Bag>
        </dc:subject>
      </cc:Work>
      <cc:License
         rdf:about="http://creativecommons.org/publicdomain/zero/1.0/">
        <cc:permits
           rdf:resource="http://creativecommons.org/ns#Reproduction" />
        <cc:permits
           rdf:resource="http://creativecommons.org/ns#Distribution" />
        <cc:permits
           rdf:resource="http://creativecommons.org/ns#DerivativeWorks" />
      </cc:License>
    </rdf:RDF>
  </metadata>
  <g
     transform="matrix(2.7321876,0,0,2.7321876,-811.09087,-1323.645)"
     id="g896">
    <path
       sodipodi:nodetypes="cccccccccccccccccccccccccccccsccccccsccsccccccccccccccc"
       inkscape:connector-curvature="0"
       d="m 340.26823,486.22761 c -1.92809,0.0423 -3.27003,0.97656 -3.51895,3.25358 0,0 -7.67242,12.43379 -10.62355,14.04316 -0.23857,0.23864 -0.71552,0.63132 -1.36106,1.12888 -0.57207,-3.4053 -1.85409,-8.31926 -4.44862,-7.27057 -3.88779,1.57134 -2.62275,4.94658 -2.62275,4.94658 0,0 -3.17801,-1.62572 -4.18317,-0.89648 -1.00507,0.72925 -1.95874,4.97987 -1.95874,4.97987 l -3.78468,-0.73039 0.0326,5.64374 c 0,0 -7.88937,-0.20214 -2.29055,3.18704 1.22693,0.74277 2.35285,1.32315 3.41933,1.79286 -0.91332,0.62363 -1.76507,1.20347 -2.72217,1.85906 -1.2621,1.25385 -1.33345,3.54341 -1.52714,6.17493 -3.44709,-0.0178 -8.33642,0.39479 -7.76842,3.08732 0.8651,4.10308 4.38222,3.45278 4.38222,3.45278 0,0 -2.13528,2.83324 -1.59373,3.95072 0.42933,0.88532 2.94859,2.1119 4.01703,2.58945 -0.0931,0.59619 -0.11949,1.06849 0.0326,1.52714 l -0.8631,2.29057 2.72215,0.46484 c 0.51582,0.58312 1.21559,1.29073 1.99198,2.05833 0.16303,0.27006 0.35797,0.53882 0.5644,0.79675 -0.0391,1.44108 0.26172,2.80235 1.75944,1.69311 0.33918,0.25482 0.71124,0.49751 1.09554,0.7304 2.3356,2.11117 5.02587,4.41465 7.76845,6.60653 0.46478,0.37154 6.21182,4.26173 12.78125,8.66481 12.57196,8.42574 13.92847,9.46338 14.57441,11.1548 0.29463,0.77135 0.29152,0.84307 -0.0992,1.59361 -0.22388,0.42954 0.46356,0.78379 0.51165,0.8319 0.0477,0.0478 0.52759,0.22551 2.11104,0.36315 1.58344,0.1377 3.34312,0.22185 3.91738,0.19929 2.80768,-0.11083 8.25352,-4.14523 14.04318,-10.42447 3.77392,-4.09307 8.42861,-9.89943 12.81422,-15.90231 3.65428,-1.42123 6.12419,-2.56231 6.20824,-3.05428 0.0271,-0.15974 -0.11085,-0.54876 -0.29883,-1.09555 3.2053,-1.64739 5.21213,-4.01616 5.21213,-6.63977 0,-2.11404 -1.30244,-4.04019 -3.48577,-5.57738 0.31244,-1.9382 0.59218,-3.69218 0.92949,-5.67702 0.55236,-3.25014 0.9419,-5.93023 0.89649,-5.97578 -0.0453,-0.0444 -0.67769,0.0854 -1.42778,0.29885 -0.0617,0.0167 -0.13354,0.048 -0.19916,0.0666 0.29164,-2.70287 0.498,-5.0793 0.498,-5.0793 -0.0748,0.14084 -0.157,0.37128 -0.23228,0.56448 l 0.29863,-1.92562 c 0,0 -0.14658,0.17106 -0.16589,0.19919 0.48769,-2.00744 0.20445,-1.59085 -1.59354,-1.19505 -1.62445,0.30695 -4.02354,0.56477 -6.07539,-0.0671 l -18.59107,-13.64492 c 0.20957,-3.77271 -14.26206,-15.19167 -21.14728,-15.03871 z m 23.63753,73.20276 c -2.5181,2.44761 -4.79322,4.30512 -6.77261,5.47778 -10e-4,-0.0453 0.002,-0.088 0,-0.13292 2.05741,-1.35583 4.44487,-3.1881 6.77261,-5.34486 z"
       style="fill:#343434;fill-opacity:1;stroke-width:1.06235588"
       id="path4142" />
    <path
       sodipodi:start="0"
       sodipodi:end="0.055826173"
       sodipodi:cx="-67.970642"
       sodipodi:cy="363.375"
       transform="matrix(0.94152,0.33697,-0.33697,0.94152,529.41,210.51)"
       sodipodi:open="true"
       d="m -60.457633,363.375 a 7.5130095,3.9774756 0 0 1 -0.0117,0.22193"
       sodipodi:type="arc"
       style="fill:#c3dd6e"
       sodipodi:ry="3.9774756"
       sodipodi:rx="7.5130095"
       id="path4106" />
    <path
       sodipodi:nodetypes="cccccccccccscccccccccccccccccccccccccscccccccccscccccccscccc"
       inkscape:connector-curvature="0"
       d="m 348.63,574.61 c -1.36218,-0.29799 -1.97947,-0.19628 -2.27296,-1.2294 -0.0537,-0.83143 0.15317,-0.67095 -0.12415,-1.39705 -0.60802,-1.5921 -1.8676,-2.5562 -13.701,-10.487 -6.1841,-4.1447 -11.602,-7.822 -12.039,-8.1717 -5.872,-4.6931 -11.689,-10.052 -13.193,-12.153 -1.079,-1.5075 -1.2085,-1.9511 -0.96065,-3.2928 0.24934,-1.35 0.70089,-6.3294 0.59837,-6.5985 -0.041,-0.10746 0.11991,-0.62453 0.35747,-1.149 1.0558,-2.3311 4.5087,-5.5086 12.756,-11.738 6.1436,-4.6406 6.8385,-5.2375 8.4938,-7.2954 1.8188,-2.2612 6.7974,-9.6522 6.7974,-10.091 0,-0.16977 0.20391,-0.71789 0.45315,-1.218 0.50396,-1.0113 1.5888,-1.857 2.8068,-2.1881 1.8257,-0.49624 5.2012,0.29945 8.5841,2.0235 5.8919,3.0028 12.182,8.3865 13.629,11.666 0.41598,0.94257 0.5346,1.0385 8.695,7.0341 4.5503,3.3432 8.4489,6.1506 8.6636,6.2386 0.5756,0.23609 3.412,0.20337 4.633,-0.0534 0.58337,-0.12271 1.6382,-0.38786 2.344,-0.58922 0.70584,-0.20136 1.3184,-0.33107 1.3612,-0.28823 0.0428,0.0428 -0.34753,2.581 -0.86748,5.6404 -0.51994,3.0594 -1.1607,6.9944 -1.424,8.7445 l -0.47865,3.182 -1.427,2.1213 c -5.2572,7.8151 -11.817,16.287 -16.775,21.664 -5.4498,5.9107 -10.574,9.7193 -13.217,9.8236 -0.54048,0.0213 -2.2022,-0.0673 -3.6928,-0.1969 z m 7.8918,-10.587 c 6.0039,-3.5259 15.006,-13.717 24.797,-28.074 l 1.8922,-2.7745 0.36754,-2.1753 c 0.20215,-1.1964 0.42148,-2.445 0.48742,-2.7746 l 0.11987,-0.59927 -0.66316,0.12441 c -0.45139,0.0847 -0.62605,0.0644 -0.54695,-0.0636 0.0645,-0.1043 -0.0157,-0.18805 -0.17998,-0.18805 -0.21879,0 -0.27463,-0.11288 -0.21364,-0.4319 l 0.0826,-0.43189 -2.0507,0.0909 c -3.616,0.16022 -3.0115,0.48174 -13.337,-7.0936 -6.9952,-5.132 -8.9365,-6.6393 -9.0131,-6.9981 -0.0537,-0.25157 -0.42048,-0.86574 -0.81498,-1.3648 -0.73831,-0.93403 -0.88169,-1.2169 -0.4963,-0.97914 0.53504,0.33009 -1.0898,-1.4735 -2.4111,-2.6762 -5.2155,-4.7478 -12.304,-8.5539 -15.206,-8.1647 -0.81645,0.10951 -1.5194,0.76899 -1.5194,1.4254 0,0.95873 -6.0183,9.8375 -8.5337,12.59 -1.0335,1.1308 -2.5485,2.3588 -7.7098,6.2494 -6.2074,4.6792 -9.8584,7.8402 -11.259,9.7476 -0.78366,1.0676 -0.72721,1.5384 0.36869,3.0755 1.4302,2.006 7.1322,7.2733 12.372,11.429 0.68059,0.53977 6.1158,4.2655 12.078,8.2795 11.466,7.7187 12.611,8.6045 13.545,10.479 0.24837,0.4984 0.45158,1.0919 0.45158,1.319 0,0.22703 0.0994,0.45057 0.22097,0.49676 0.49299,0.18734 2.9602,0.40392 4.2868,0.37631 1.351,-0.0281 1.4799,-0.068 2.8836,-0.89236 z"
       style="fill:#88542a"
       id="path4005" />
    <path
       inkscape:connector-curvature="0"
       d="m 326.51,510.14 c 0,0 -0.90556,-11.187 -4.5651,-9.7074 -3.6596,1.4791 -2.4656,4.6447 -2.4656,4.6447 0,0 -2.9866,-1.529 -3.9327,-0.84259 -0.94608,0.68641 -1.8433,4.6972 -1.8433,4.6972 l -3.5718,-0.68444 0.0421,5.3032 c 0,0 -7.4489,-0.18144 -2.1789,3.0088 5.2701,3.1902 9.2652,3.3995 9.2652,3.3995 l 9.2501,-9.819 z"
       inkscape:transform-center-y="-7"
       style="fill:#c3dd6e;stroke:#8faf27;stroke-width:2;stroke-linejoin:round"
       id="path4098" />
    <path
       inkscape:connector-curvature="0"
       d="m 310.26,525.92 c 0,0 -11.172,-1.0701 -10.358,2.7921 0.81446,3.8622 4.1404,3.2419 4.1404,3.2419 0,0 -2.029,2.6722 -1.5192,3.724 0.50987,1.0518 4.3012,2.6384 4.3012,2.6384 l -1.3002,3.3965 5.2284,0.88848 c 0,0 -1.4848,7.3017 2.5801,2.6727 4.0649,-4.629 4.9716,-8.5255 4.9716,-8.5255 l -8.0448,-10.829 z"
       style="fill:#c3dd6e;stroke:#8faf27;stroke-width:2;stroke-linejoin:round"
       id="path4096" />
    <path
       inkscape:connector-curvature="0"
       d="m 343.06,554.16 c 0,0 -9.8825,5.3193 -7.0589,8.0775 2.8236,2.7582 5.2438,0.39403 5.2438,0.39403 0,0 -0.20168,3.3492 0.80674,3.9402 1.0084,0.59103 5.0421,-0.19702 5.0421,-0.19702 l 0.80673,3.5462 4.8404,-2.1671 c 0,0 2.8236,6.8954 3.6303,0.78805 0.80673,-6.1074 -0.60506,-9.8506 -0.60506,-9.8506 l -12.706,-4.5313 z"
       style="fill:#c3dd6e;stroke:#8faf27;stroke-width:2"
       id="path4094" />
    <path
       inkscape:connector-curvature="0"
       d="m 354.47,507.55 -47.413,28.991 c 0,0 31.85,22.274 31.126,24.749 -0.72386,2.4749 44.879,-12.021 45.241,-14.142 0.36193,-2.1213 -20.63,-43.487 -28.954,-39.598 z"
       style="fill:#fffbde"
       id="path4054" />
    <ellipse
       ry="8.485281"
       rx="16.086679"
       cy="546.07373"
       cx="-66.998367"
       transform="matrix(0.94505,0,0,1,387.68,-4.7013)"
       style="fill:#a52728"
       id="path4080" />
    <ellipse
       ry="8.485281"
       rx="16.086679"
       cy="546.07373"
       cx="-66.998367"
       transform="matrix(0.87912,0,0,0.87912,382.91,59.858)"
       style="fill:#e34a4d"
       id="path4082" />
    <ellipse
       ry="8.485281"
       rx="16.086679"
       cy="546.07373"
       cx="-66.998367"
       transform="matrix(0.30769,0,0,0.27644,346.04,392.94)"
       style="opacity:0.32706999;fill:#ec847c"
       id="path4084" />
    <ellipse
       ry="8.485281"
       rx="16.086679"
       cy="546.07373"
       cx="-66.998367"
       transform="matrix(0.30769,0,0,0.27644,352.23,387.99)"
       style="fill:#e65d5c"
       id="path4086" />
    <ellipse
       ry="8.485281"
       rx="16.086679"
       cy="546.07373"
       cx="-66.998367"
       transform="matrix(0.30769,0,0,0.27644,337.38,389.23)"
       style="fill:#e65d5c"
       id="path4088" />
    <ellipse
       ry="8.485281"
       rx="16.086679"
       cy="546.07373"
       cx="-66.998367"
       transform="matrix(0.25275,0,0,0.22708,339.89,411.66)"
       style="fill:#e65d5c"
       id="path4090" />
    <ellipse
       ry="8.485281"
       rx="16.086679"
       cy="546.07373"
       cx="-66.998367"
       transform="matrix(0.94505,0,0,1,436.18,-6.2013)"
       style="fill:#a52728"
       id="path4058" />
    <ellipse
       ry="8.485281"
       rx="16.086679"
       cy="546.07373"
       cx="-66.998367"
       transform="matrix(0.87912,0,0,0.87912,431.41,58.358)"
       style="fill:#e34a4d"
       id="path4060" />
    <ellipse
       ry="8.485281"
       rx="16.086679"
       cy="546.07373"
       cx="-66.998367"
       transform="matrix(0.30769,0,0,0.27644,394.54,391.44)"
       style="opacity:0.32706999;fill:#ec847c"
       id="path4062" />
    <ellipse
       ry="8.485281"
       rx="16.086679"
       cy="546.07373"
       cx="-66.998367"
       transform="matrix(0.30769,0,0,0.27644,400.73,386.49)"
       style="fill:#e65d5c"
       id="path4064" />
    <ellipse
       ry="8.485281"
       rx="16.086679"
       cy="546.07373"
       cx="-66.998367"
       transform="matrix(0.30769,0,0,0.27644,385.88,387.73)"
       style="fill:#e65d5c"
       id="path4066" />
    <ellipse
       ry="8.485281"
       rx="16.086679"
       cy="546.07373"
       cx="-66.998367"
       transform="matrix(0.25275,0,0,0.22708,388.39,410.16)"
       style="fill:#e65d5c"
       id="path4068" />
    <path
       inkscape:connector-curvature="0"
       d="m 308.64,519.98 c -1.8074,1.7959 -0.96179,5.7572 -1.9946,9.8621 0,3.3353 15.075,14.91 15.075,14.91 l 19.98,13.392 c 0,0 6.5709,2.8216 4.747,5.6438 l 6.1817,1.7191 c 10.845,-2.8222 30.707,-33.334 30.707,-33.334 l 2.176,-14.242 c 0,0 -5.0346,7.4952 -8.3913,6.469 -31.318,-29.516 -36.747,-26.154 -68.481,-4.4196 z"
       style="fill:#cf9361;stroke:#cf9361;stroke-width:1.01919997px"
       sodipodi:nodetypes="cccccccccc"
       id="path3977" />
    <path
       inkscape:connector-curvature="0"
       d="m 337.41,492.99 c 0,0 -7.2221,11.699 -10,13.214 -1.7678,1.7678 -17.204,12.031 -18.214,16.071 0,3.283 14.744,14.676 14.744,14.676 l 19.541,13.181 c 0,0 6.9157,4.0078 4.6428,6.7857 l 6.046,0.46175 c 10.607,-2.7779 30.033,-32.811 30.033,-32.811 l 1.148,-6.469 c 0.459,-1.8896 0.18054,-1.4778 -1.5119,-1.1052 -1.5291,0.2889 -3.7837,0.51742 -5.715,-0.0768 l -17.5,-12.857 c 0.25254,-4.5457 -22.143,-20.87 -23.214,-11.071 z"
       style="fill:#fff7dc;stroke:#cf9361;stroke-width:3"
       sodipodi:nodetypes="ccccccccccccc"
       id="path3146" />
    <path
       inkscape:connector-curvature="0"
       d="m 342.59,498.86 c -0.27765,0.0129 -0.51461,0.23812 -0.59375,0.53125 0.21057,1.503 1.4507,2.0024 2.6562,2.5 0.19883,-0.0976 0.35064,-0.20433 0.46875,-0.3125 -1.1851,-0.48899 -2.387,-0.99329 -2.5938,-2.4688 0.0264,-0.0977 0.0675,-0.17506 0.125,-0.25 -0.0199,-0.001 -0.0429,-9.1e-4 -0.0625,0 z"
       style="fill:#cf9361"
       id="path3927" />
    <path
       inkscape:connector-curvature="0"
       d="m 321.36,520.82 c -0.16659,0.008 -0.30877,0.14287 -0.35625,0.31875 0.12634,0.90179 0.87044,1.2015 1.5938,1.5 0.1193,-0.0586 0.21038,-0.1226 0.28125,-0.1875 -0.71107,-0.29339 -1.4322,-0.59597 -1.5562,-1.4812 0.0158,-0.0586 0.0405,-0.10504 0.075,-0.15 -0.012,-6e-4 -0.0257,-5.5e-4 -0.0375,0 z"
       style="fill:#cf9361"
       id="path3963" />
    <path
       inkscape:connector-curvature="0"
       d="m 358.4,528.19 c -0.16659,0.008 -0.30877,0.14287 -0.35625,0.31875 0.12634,0.90179 0.87044,1.2015 1.5938,1.5 0.1193,-0.0586 0.21038,-0.1226 0.28125,-0.1875 -0.71108,-0.29339 -1.4322,-0.59597 -1.5562,-1.4812 0.0158,-0.0586 0.0405,-0.10504 0.075,-0.15 -0.012,-6e-4 -0.0257,-5.5e-4 -0.0375,0 z"
       style="fill:#cf9361"
       id="path3967" />
    <path
       inkscape:connector-curvature="0"
       d="m 331.22,525.48 c -0.21868,0.0129 -0.40532,0.23812 -0.46765,0.53124 0.16585,1.5029 1.1426,2.0024 2.0921,2.4999 0.1566,-0.0976 0.27616,-0.20432 0.36919,-0.31249 -0.93342,-0.48897 -1.8801,-0.99326 -2.0429,-2.4687 0.0208,-0.0977 0.0532,-0.17505 0.0985,-0.25 -0.0157,-6.8e-4 -0.0338,-6.8e-4 -0.0492,0 z"
       style="fill:#cf9361"
       id="path3969" />
    <path
       inkscape:connector-curvature="0"
       d="m 351.15,519.7 c -0.16659,0.008 -0.30876,0.14287 -0.35625,0.31875 0.12634,0.90179 0.87045,1.2015 1.5938,1.5 0.1193,-0.0586 0.21039,-0.1226 0.28125,-0.1875 -0.71107,-0.29339 -1.4322,-0.59597 -1.5562,-1.4812 0.0158,-0.0586 0.0405,-0.10504 0.075,-0.15 -0.012,-6e-4 -0.0257,-5.5e-4 -0.0375,0 z"
       style="fill:#cf9361"
       id="path3971" />
    <path
       inkscape:connector-curvature="0"
       d="m 340.43,490.76 c -0.56373,0.0165 -0.95111,0.15286 -1.1875,0.3125 -0.31518,0.21286 -0.55546,0.51575 -0.65625,1.4375 l -0.0312,0.34375 -0.1875,0.28125 c 0,0 -1.8205,2.9409 -4,6.0938 -1.0897,1.5764 -2.2654,3.2325 -3.375,4.5938 -0.99576,1.2216 -1.8408,2.1619 -2.8438,2.8125 -0.11469,0.0744 -0.22399,0.1847 -0.34375,0.25 -0.7198,0.66376 -1.726,1.4049 -3.2812,2.5625 -1.714,1.2757 -3.8239,2.8391 -5.9062,4.4688 -2.0824,1.6296 -4.1369,3.3496 -5.6875,4.8438 -1.4669,1.4135 -2.3091,2.6763 -2.4688,3.0625 0.0325,0.0693 0.0618,0.17333 0.3125,0.5625 0.13275,0.20603 0.33776,0.46512 0.53125,0.71875 -0.25075,-0.38917 -0.28002,-0.49318 -0.3125,-0.5625 0.15878,-0.38519 1.0323,-1.6794 2.5,-3.0938 1.5506,-1.4942 3.5739,-3.1829 5.6562,-4.8125 2.0824,-1.6296 4.2235,-3.193 5.9375,-4.4688 1.5544,-1.157 2.5302,-1.8989 3.25,-2.5625 0.11976,-0.0653 0.22906,-0.1756 0.34375,-0.25 1.0029,-0.65057 1.848,-1.6222 2.8438,-2.8438 1.1096,-1.3613 2.2853,-2.9861 3.375,-4.5625 2.1795,-3.1528 4,-6.0938 4,-6.0938 l 0.1875,-0.28125 0.0312,-0.34375 c 0.10079,-0.92175 0.34107,-1.2246 0.65625,-1.4375 0.31518,-0.21286 0.90346,-0.37171 1.8125,-0.28125 1.8181,0.18091 4.629,1.3506 7.375,3 2.746,1.6494 5.488,3.7679 7.4688,5.6875 0.77771,0.75368 1.3866,1.4334 1.875,2.0625 -0.0398,-0.0648 -0.079,-0.12027 -0.125,-0.1875 -0.50435,-0.73671 -1.2909,-1.634 -2.2812,-2.5938 -1.9808,-1.9196 -4.7227,-4.0381 -7.4688,-5.6875 -2.746,-1.6494 -5.5569,-2.8191 -7.375,-3 -0.22726,-0.0226 -0.43709,-0.0367 -0.625,-0.0312 v -5e-5 z m 18.8752,13.7812 v 0.3125 l 0.65625,0.5 17.5,12.844 0.1875,0.15625 0.25,0.0625 c 1.9751,0.6077 3.8332,0.51645 5.375,0.28125 l 0.15625,-0.8125 c -1.6533,0.31476 -3.7901,0.51168 -6.0625,-0.1875 l -0.25,-0.0625 -0.1875,-0.15625 -17.5,-12.844 -0.125,-0.0937 z"
       style="color:#000000;text-indent:0;text-transform:none;fill:#e7c9b0"
       sodipodi:nodetypes="cscccssscssscsccssscssscccsssssssssccccccccccccccccc"
       id="path3979" />
    <path
       inkscape:connector-curvature="0"
       d="m 318.86,531.22 -1.4688,10.25 c 0.90361,0.75523 1.7959,1.5124 2.7188,2.25 0.43752,0.34969 5.8472,4.0115 12.031,8.1562 11.834,7.9312 13.111,8.9079 13.719,10.5 0.23247,0.60872 0.24298,0.77335 0.0312,1.2188 l 0.25,0.15625 c 0,-0.84518 1.1831,-5.4567 2.4062,-10.031 -0.0744,-0.19873 -0.15154,-0.39616 -0.25,-0.59375 -0.93396,-1.8742 -2.0655,-2.7813 -13.531,-10.5 -5.9625,-4.0139 -11.413,-7.7415 -12.094,-8.2812 -1.2649,-1.0032 -2.5604,-2.0538 -3.8125,-3.125 z"
       style="fill:url(#linearGradient4959)"
       id="path4003" />
    <path
       inkscape:connector-curvature="0"
       d="m 377.51,533.17 c -6.518,7.2055 -15.684,20.887 -23.548,22.542 0,0 -2.0358,6.846 -1.1213,10.196 2.8397,-1.0295 8.4304,-5.01 13.031,-10 4.9579,-5.3771 13.149,-15.466 17.531,-23.781 1.25,-2 2.0196,-12.914 2.0196,-12.914 -0.52416,0.99628 -1.0462,3.5211 -2.077,5.4955 -1.8504,3.5442 -4.5068,6.9814 -5.8355,8.4613 z"
       style="fill:#aa6934"
       sodipodi:nodetypes="cccsccsc"
       id="path4032" />
    <path
       inkscape:connector-curvature="0"
       d="m 367.46,519.74 c -0.58022,0.0656 -1.0227,0.30028 -1.2425,0.6878 -0.58612,1.0334 0.64687,2.8445 2.7512,4.0381 0.94986,0.53875 1.9016,0.83572 2.729,0.93186 -0.42638,-0.15488 -0.87447,-0.33039 -1.309,-0.57687 -2.1043,-1.1936 -3.3373,-3.0047 -2.7512,-4.0381 0.3262,-0.57512 1.1483,-0.77176 2.1743,-0.64342 -0.87125,-0.31908 -1.6995,-0.47314 -2.3518,-0.39937 z"
       style="fill:#cf9361"
       id="path4050" />
    <path
       inkscape:connector-curvature="0"
       d="m 346.78,538.83 c -0.58022,0.0656 -1.0227,0.30028 -1.2425,0.6878 -0.58611,1.0334 0.64687,2.8445 2.7512,4.0381 0.94986,0.53875 1.9016,0.83572 2.729,0.93186 -0.42639,-0.15488 -0.87447,-0.33039 -1.309,-0.57687 -2.1044,-1.1936 -3.3373,-3.0047 -2.7512,-4.0381 0.32621,-0.57512 1.1483,-0.77176 2.1744,-0.64342 -0.87125,-0.31908 -1.6995,-0.47314 -2.3518,-0.39937 z"
       style="fill:#cf9361"
       id="path4052" />
    <path
       inkscape:connector-curvature="0"
       d="m 339.88,514.06 c -1.309,2.2826 -3.7391,3.1489 -5.8393,2.2217 -2.1002,-0.92719 -3.4802,-2.7907 -3.0822,-4.1622 0.39794,-1.3715 1.9313,-3.2163 4.2196,-3.0316 2.7076,0.21859 5.0998,3.6005 4.7019,4.972 z"
       style="fill:#cf9361"
       sodipodi:nodetypes="csssc"
       id="path4134" />
    <ellipse
       ry="3.9774756"
       rx="7.5130095"
       cy="363.375"
       cx="-67.970642"
       transform="matrix(0.50616,0.22346,-0.18115,0.62435,434.99,302.11)"
       style="fill:#c3dd6e"
       id="path4106-9" />
    <path
       inkscape:connector-curvature="0"
       d="m 337.09,512.57 c -1.7106,-0.11722 -2.1858,3.2824 -2.1858,3.2824 m -2.3759,-1.2895 c 0.38014,-0.35168 1.3305,-2.9307 2.1858,-3.5168"
       style="fill:none;stroke:#8faf27;stroke-width:1px"
       sodipodi:nodetypes="cccc"
       id="path4109" />
    <path
       inkscape:connector-curvature="0"
       d="m 346,561.86 0.375,2.625 -5.8509,-4.857 -14.024,-9.893 -2,0.125 -0.75,-2.375 c -4.5741,-3.7458 -8.1638,-5.7416 -13.033,-9.4874 l -0.30715,-0.79599 -6.2845,-5.7166 1.875,-1 7.2561,7.6799 12.119,9.6951 2.25,1.625 15.56,9.6538 2.8153,2.7212 z"
       style="opacity:0.2;fill:#2e3436"
       sodipodi:nodetypes="ccccccccccccccc"
       id="path4987" />
    <path
       inkscape:connector-curvature="0"
       d="m 310.12,512.49 2.75,3"
       style="fill:none;stroke:#8faf27;stroke-width:2"
       id="path4989" />
    <path
       inkscape:connector-curvature="0"
       d="m 319.75,505.24 2.75,3"
       style="fill:none;stroke:#8faf27;stroke-width:2"
       inkscape:transform-center-x="-1"
       id="path4991" />
    <path
       inkscape:connector-curvature="0"
       d="m 314,508.99 3.125,3.125"
       style="fill:none;stroke:#8faf27;stroke-width:2"
       id="path4993" />
  </g>
</svg>
