<?xml version="1.0" encoding="UTF-8" standalone="no"?>
<svg
   xmlns:dc="http://purl.org/dc/elements/1.1/"
   xmlns:cc="http://creativecommons.org/ns#"
   xmlns:rdf="http://www.w3.org/1999/02/22-rdf-syntax-ns#"
   xmlns:svg="http://www.w3.org/2000/svg"
   xmlns="http://www.w3.org/2000/svg"
   xmlns:sodipodi="http://sodipodi.sourceforge.net/DTD/sodipodi-0.dtd"
   xmlns:inkscape="http://www.inkscape.org/namespaces/inkscape"
   version="1.1"
   id="Layer_1"
   x="0px"
   y="0px"
   viewBox="0 0 256 256"
   enable-background="new 0 0 2772 1368"
   xml:space="preserve"
   sodipodi:docname="sandwich_03.svg"
   inkscape:version="0.92.4 (5da689c313, 2019-01-14)"
   width="256"
   height="256"><title
   id="title4630">Chicken</title><metadata
   id="metadata3823"><rdf:RDF><cc:Work
       rdf:about=""><dc:format>image/svg+xml</dc:format><dc:type
         rdf:resource="http://purl.org/dc/dcmitype/StillImage" /><dc:title>Chicken</dc:title><cc:license
         rdf:resource="http://creativecommons.org/publicdomain/zero/1.0/" /><dc:source>https://openclipart.org/detail/311979</dc:source><dc:creator><cc:Agent><dc:title>GDJ</dc:title></cc:Agent></dc:creator></cc:Work><cc:License
       rdf:about="http://creativecommons.org/publicdomain/zero/1.0/"><cc:permits
         rdf:resource="http://creativecommons.org/ns#Reproduction" /><cc:permits
         rdf:resource="http://creativecommons.org/ns#Distribution" /><cc:permits
         rdf:resource="http://creativecommons.org/ns#DerivativeWorks" /></cc:License></rdf:RDF></metadata><defs
   id="defs3821" /><sodipodi:namedview
   pagecolor="#ffffff"
   bordercolor="#666666"
   borderopacity="1"
   objecttolerance="10"
   gridtolerance="10"
   guidetolerance="10"
   inkscape:pageopacity="0"
   inkscape:pageshadow="2"
   inkscape:window-width="1920"
   inkscape:window-height="1025"
   id="namedview3819"
   showgrid="false"
   inkscape:zoom="1.240753"
   inkscape:cx="107.11479"
   inkscape:cy="90.13672"
   inkscape:window-x="-8"
   inkscape:window-y="-8"
   inkscape:window-maximized="1"
   inkscape:current-layer="Layer_1"
   fit-margin-top="0"
   fit-margin-left="0"
   fit-margin-right="0"
   fit-margin-bottom="0" />



<g
   id="g358"
   transform="matrix(0.63161495,0,0,0.63161495,-1153.8288,-194.07646)">
	<path
   d="m 2039.645,352.845 c 4.35,-1.05 8.85,-1.13 13.31,-0.83 5.08,0.33 10.26,-0.29 15.3,0.84 4.9,1.16 9.99,0.8 14.96,1.65 5.71,0.57 11.3,1.99 16.86,3.4 17.51,3.96 35.19,7.94 51.74,15.08 8.16,2.93 16.35,5.92 23.91,10.23 9.29,4.82 18.8,9.46 27,16.09 10.36,7.95 20.78,17.35 24.91,30.16 1.45,3.78 2.2,8.08 0.91,12.02 -2.63,7.6 -8.3,13.96 -15.61,17.33 -10.57,4.59 -21.44,8.55 -32.59,11.47 -5.84,1.73 -12.06,2.06 -17.69,4.44 -12.62,6.25 -24.85,13.23 -37.35,19.7 -9.58,5.91 -19.94,10.39 -29.48,16.33 -6.35,3.76 -13.09,6.8 -19.31,10.76 -7.5,4.7 -15.74,8.06 -23.12,12.93 -6.28,4.15 -13.09,7.44 -19.34,11.62 -7.06,4.63 -15.2,7.27 -23.44,8.85 -18.26,4.58 -38.6,2.11 -54.6,-8.06 -7.52,-5.35 -15.98,-9.16 -23.68,-14.21 -16.28,-8.98 -32.44,-18.15 -48.48,-27.53 -9.92,-4.87 -19.09,-11.05 -28.76,-16.35 -5.25,-3.39 -10.56,-6.69 -15.79,-10.08 -4.02,-2.54 -6.41,-6.74 -8.68,-10.75 0,5.38 0.72,10.72 1,16.1 -2.47,-7.4 -2.04,-15.33 -1.39,-22.97 0.68,-3.64 2.08,-7.37 4.87,-9.91 3.46,-3.2 6.4,-7.09 10.71,-9.24 11.86,-6.36 23.9,-12.45 36.37,-17.54 5.04,-1.92 9.72,-4.64 14.78,-6.53 10.37,-4.23 21.09,-7.68 31.18,-12.61 5.97,-2.55 12.17,-4.5 18.26,-6.74 4.38,-1.49 8.34,-3.98 12.76,-5.39 11.1,-4.17 22.47,-7.67 33.32,-12.5 4.92,-1.73 9.87,-3.38 14.76,-5.24 -0.41,-8.94 7.74,-14.41 14.4,-18.67 5.29,-3.76 12.04,-2.35 18,-3.85 m -0.66,4.04 c -8.09,0.17 -16.56,2.94 -22,9.17 -2.87,2.79 -1.13,7.08 -1.2,10.57 -5.37,2.03 -10.93,3.57 -16.14,6.01 -10.71,4.19 -21.67,7.74 -32.42,11.83 -10.83,5.32 -22.64,8.2 -33.58,13.25 -6.54,3.01 -13.36,5.35 -20.06,7.96 -9.39,3.38 -18.24,8.02 -27.59,11.48 -6.45,2.24 -12.16,6.04 -18.5,8.5 -9.49,4.24 -19.16,8.8 -26.52,16.33 -2.65,2.73 -4.06,6.86 -2.46,10.5 1.5,4.21 5.49,6.55 8.95,8.97 8.5,6.12 18.13,10.4 26.87,16.13 9.52,5.06 18.56,10.95 28.16,15.86 8.26,4.27 15.95,9.54 24.28,13.7 7.8,4.58 15.52,9.31 23.56,13.48 7.95,4.98 15.67,11.05 25.14,12.81 5.81,0.98 11.51,2.89 17.48,2.73 4.41,0.12 8.66,-1.21 12.98,-1.93 9.59,-1.21 18.93,-4.74 26.88,-10.28 7.57,-4.95 15.88,-8.64 23.4,-13.68 5.61,-3.52 11.75,-6.12 17.35,-9.69 8.91,-5.59 18.64,-9.75 27.54,-15.37 5.47,-3.4 11.53,-5.73 16.99,-9.16 7.42,-4.78 15.6,-8.19 23.29,-12.51 6.94,-3.79 13.96,-7.44 20.97,-11.12 6.24,-3.51 13.75,-1.27 20.28,-3.86 10.23,-3.98 20.79,-7.25 30.54,-12.36 5.25,-3.69 9.59,-10.8 6.91,-17.27 -2,-5.78 -4.61,-11.64 -9.33,-15.7 -4.34,-3.68 -7.76,-8.36 -12.55,-11.48 -5.91,-3.81 -11.49,-8.16 -17.83,-11.22 -11.05,-5.59 -22.02,-11.46 -33.88,-15.14 -7.63,-2.22 -14.78,-5.81 -22.52,-7.65 -11.2,-3.15 -22.56,-5.65 -33.97,-7.88 -4.39,-0.71 -8.87,-0.75 -13.17,-1.85 -6.37,-1.74 -13.07,-0.63 -19.46,-2.15 -6.17,-1.57 -12.24,0.87 -18.39,1.02 z"
   id="path286"
   inkscape:connector-curvature="0"
   style="fill:#ffcf3e;stroke:#ffcf3e;stroke-width:0.5" />
	<path
   d="m 2038.985,356.885 c 6.15,-0.15 12.22,-2.59 18.39,-1.02 6.39,1.52 13.09,0.41 19.46,2.15 4.3,1.1 8.78,1.14 13.17,1.85 11.41,2.23 22.77,4.73 33.97,7.88 7.74,1.84 14.89,5.43 22.52,7.65 11.86,3.68 22.83,9.55 33.88,15.14 6.34,3.06 11.92,7.41 17.83,11.22 4.79,3.12 8.21,7.8 12.55,11.48 4.72,4.06 7.33,9.92 9.33,15.7 2.68,6.47 -1.66,13.58 -6.91,17.27 -9.75,5.11 -20.31,8.38 -30.54,12.36 -6.53,2.59 -14.04,0.35 -20.28,3.86 -7.01,3.68 -14.03,7.33 -20.97,11.12 -7.69,4.32 -15.87,7.73 -23.29,12.51 -5.46,3.43 -11.52,5.76 -16.99,9.16 -8.9,5.62 -18.63,9.78 -27.54,15.37 -5.6,3.57 -11.74,6.17 -17.35,9.69 -7.52,5.04 -15.83,8.73 -23.4,13.68 -7.95,5.54 -17.29,9.07 -26.88,10.28 -4.32,0.72 -8.57,2.05 -12.98,1.93 -5.97,0.16 -11.67,-1.75 -17.48,-2.73 -9.47,-1.76 -17.19,-7.83 -25.14,-12.81 -8.04,-4.17 -15.76,-8.9 -23.56,-13.48 -8.33,-4.16 -16.02,-9.43 -24.28,-13.7 -9.6,-4.91 -18.64,-10.8 -28.16,-15.86 -8.74,-5.73 -18.37,-10.01 -26.87,-16.13 -3.46,-2.42 -7.45,-4.76 -8.95,-8.97 -1.6,-3.64 -0.19,-7.77 2.46,-10.5 7.36,-7.53 17.03,-12.09 26.52,-16.33 6.34,-2.46 12.05,-6.26 18.5,-8.5 9.35,-3.46 18.2,-8.1 27.59,-11.48 6.7,-2.61 13.52,-4.95 20.06,-7.96 10.94,-5.05 22.75,-7.93 33.58,-13.25 10.75,-4.09 21.71,-7.64 32.42,-11.83 5.21,-2.44 10.77,-3.98 16.14,-6.01 0.07,-3.49 -1.67,-7.78 1.2,-10.57 5.44,-6.23 13.91,-9 22,-9.17 z"
   id="path288"
   inkscape:connector-curvature="0"
   style="fill:#ffe699;stroke:#ffe699;stroke-width:0.5" />
	<path
   d="m 2212.935,458.815 c 7.31,-3.37 12.98,-9.73 15.61,-17.33 0.51,6.85 0.7,13.73 1.6,20.55 0.5,8.15 -3.86,16.11 -10.99,20.08 -2.56,1.05 -3.97,3.37 -5.18,5.7 0.1,-0.63 0.3,-1.9 0.4,-2.53 -6.61,2.29 -12.94,5.31 -19.6,7.46 -6.49,2.01 -12.81,4.82 -19.64,5.39 -4.57,0.35 -9.04,1.54 -13.01,3.83 -9.19,4.41 -17.71,10.09 -26.97,14.34 -4.6,2.13 -8.64,5.22 -13.06,7.64 -8.36,3.77 -16.45,8.1 -24.27,12.86 -6.04,3.48 -12.63,6.03 -18.03,10.54 -13.7,6.34 -26.48,14.42 -39.41,22.15 -7.41,5.45 -16.09,8.83 -24.94,11.12 -6.07,1.57 -12.34,2.28 -18.59,2.48 1.85,-4.14 3.92,-8.17 6.05,-12.18 2.81,-5.22 4.36,-11.06 7.71,-16 8.24,-1.58 16.38,-4.22 23.44,-8.85 6.25,-4.18 13.06,-7.47 19.34,-11.62 7.38,-4.87 15.62,-8.23 23.12,-12.93 6.22,-3.96 12.96,-7 19.31,-10.76 9.54,-5.94 19.9,-10.42 29.48,-16.33 12.5,-6.47 24.73,-13.45 37.35,-19.7 5.63,-2.38 11.85,-2.71 17.69,-4.44 11.15,-2.92 22.02,-6.88 32.59,-11.47 z"
   id="path290"
   inkscape:connector-curvature="0"
   style="fill:#cd7c0a;stroke:#cd7c0a;stroke-width:0.5" />
	<path
   d="m 1830.625,467.935 c 2.27,4.01 4.66,8.21 8.68,10.75 5.23,3.39 10.54,6.69 15.79,10.08 9.67,5.3 18.84,11.48 28.76,16.35 16.04,9.38 32.2,18.55 48.48,27.53 7.7,5.05 16.16,8.86 23.68,14.21 16,10.17 36.34,12.64 54.6,8.06 -3.35,4.94 -4.9,10.78 -7.71,16 -2.13,4.01 -4.2,8.04 -6.05,12.18 -10.99,0.55 -22.14,-1.28 -32.2,-5.8 -4.94,-2.21 -9.39,-5.3 -13.92,-8.21 -5.78,-3.6 -11.96,-6.52 -17.63,-10.29 -4.53,-3.01 -9.31,-5.66 -14.46,-7.41 -10.52,-7.87 -22.72,-13.02 -33.64,-20.25 -10.41,-5.07 -20.07,-11.46 -30.2,-17.02 -4.72,-2.78 -8.97,-6.46 -14.28,-8.11 -2.95,-3.97 -7.27,-7.27 -8.37,-12.31 -0.79,-3.16 -0.35,-6.45 -0.53,-9.66 -0.28,-5.38 -1,-10.72 -1,-16.1 z"
   id="path292"
   inkscape:connector-curvature="0"
   style="fill:#e69f14;stroke:#e69f14;stroke-width:0.5" />
	<path
   d="m 2194.775,492.745 c 6.66,-2.15 12.99,-5.17 19.6,-7.46 -0.1,0.63 -0.3,1.9 -0.4,2.53 -0.87,2.29 -2.18,4.38 -3.74,6.24 -7.02,9.28 -17.68,14.67 -27.38,20.63 -8.22,3.19 -15.89,7.72 -24.43,10.03 1.48,-3.27 3.25,-6.45 4.17,-9.94 1,-4.24 0.16,-8.6 -0.47,-12.81 3.97,-2.29 8.44,-3.48 13.01,-3.83 6.83,-0.57 13.15,-3.38 19.64,-5.39 z"
   id="path294"
   inkscape:connector-curvature="0"
   style="fill:#ae0604;stroke:#ae0604;stroke-width:0.5" />
	<path
   d="m 2210.235,494.055 c 5.1,4.33 11.96,6.93 15.77,12.59 1.16,5.41 3.54,11.14 1.49,16.65 -1.89,7.17 -8.74,11.22 -14.9,14.37 -16.59,6.91 -34.95,6.79 -52.61,6.22 -5.03,-0.16 -9.84,-1.69 -14.6,-3.14 6.06,-4.07 11.75,-8.7 18.17,-12.23 6.56,-4.42 13.85,-7.98 19.3,-13.83 9.7,-5.96 20.36,-11.35 27.38,-20.63 m 4.65,25.89 c -3.05,2.59 -4.99,6.15 -6.7,9.68 0.95,0.74 1.93,1.49 2.94,2.25 5.02,-2.14 10.13,-5.14 12.86,-10.06 0.33,-1.9 -0.29,-3.81 -0.48,-5.68 -3.03,0.86 -6.21,1.7 -8.62,3.81 z"
   id="path296"
   inkscape:connector-curvature="0"
   style="fill:#accc00;stroke:#accc00;stroke-width:0.5" />
	<path
   d="m 2135.155,516.305 c 9.26,-4.25 17.78,-9.93 26.97,-14.34 0.63,4.21 1.47,8.57 0.47,12.81 -0.92,3.49 -2.69,6.67 -4.17,9.94 -5.47,1.83 -11.21,2.54 -16.85,3.59 -6.74,1.23 -13.96,-0.31 -19.48,-4.36 4.42,-2.42 8.46,-5.51 13.06,-7.64 m 8.97,1.61 c -0.02,1.65 0.01,3.32 0.04,4.99 2.16,0.84 4.47,1.16 6.82,1.13 -0.33,-2.09 -0.12,-4.69 -2.19,-5.92 -1.3,-1.31 -3.15,-0.23 -4.67,-0.2 z"
   id="path298"
   inkscape:connector-curvature="0"
   style="fill:#e63e00;stroke:#e63e00;stroke-width:0.5" />
	<path
   d="m 1840.525,506.005 c 5.31,1.65 9.56,5.33 14.28,8.11 10.13,5.56 19.79,11.95 30.2,17.02 -2.76,1.86 -4.76,4.53 -7.09,6.82 -2.8,2.38 -6.36,3.54 -9.57,5.18 -9.39,-2.65 -18.11,-7.58 -24.87,-14.64 -2.43,-2.86 -3.8,-6.39 -5.04,-9.87 -1.11,-4.35 0.4,-8.66 2.09,-12.62 m 3.61,10.15 c -1.12,2.51 -1.52,5.24 -1.36,7.99 1.66,-0.12 3.36,-0.23 5.07,-0.33 -0.1,-2.43 -0.21,-4.84 -0.36,-7.25 -1.14,-0.14 -2.26,-0.28 -3.35,-0.41 z"
   id="path300"
   inkscape:connector-curvature="0"
   style="fill:#e63e00;stroke:#e63e00;stroke-width:0.5" />
	<path
   d="m 2226.005,506.645 c 4.12,4.62 6.54,11.06 5.67,17.3 -1.02,5.57 -5.08,9.89 -9.15,13.55 -1.21,0.76 -2.41,1.48 -3.63,2.14 -7.89,3.34 -16.26,5.28 -24.65,6.81 -9.63,2.46 -19.62,0.82 -29.41,1.46 -0.12,5.15 0.41,10.53 -1.72,15.38 -4.26,4.86 -9.37,9.27 -15.54,11.45 -3.33,1.23 -6.82,1.91 -10.24,2.76 -8.94,1.88 -18.08,3.04 -27.22,2.74 0.06,3.76 0.09,7.53 0.14,11.3 -2.8,4.58 -5.71,9.5 -10.64,12.07 -7.95,4.19 -16.84,6.1 -25.43,8.5 -9.25,0.33 -18.45,1.45 -27.71,1.13 -0.92,4.75 -1.91,10.16 -6,13.28 -6.44,5.09 -14.68,6.85 -22.54,8.43 -13.56,2.9 -28.28,3.21 -41.18,-2.47 12.82,0.28 25.7,1.46 38.5,-0.1 7.09,-0.98 14.12,-3.12 20.34,-6.74 4.58,-2.71 7.29,-7.78 7.38,-13.07 -4.57,-0.47 -9.72,-0.26 -13.19,-3.78 0.45,-0.25 1.34,-0.75 1.79,-1 5.81,0.51 11.47,2.28 17.35,2.34 7.74,0.41 15.3,-1.59 22.97,-2.28 8.56,-0.79 16.95,-3.42 24.55,-7.44 4.29,-2.56 7.64,-6.63 9.6,-11.21 1.89,-4.86 0.5,-10.16 -0.99,-14.92 5.03,3.87 11.58,2.98 17.48,2.35 3.58,-0.4 7.08,-1.36 10.58,-2.28 1.59,-0.38 3.2,-0.77 4.83,-1.14 8.69,-1.85 17.1,-6.77 21.77,-14.49 2.02,-3.25 3.02,-7.38 1.68,-11.07 -5.61,-2.69 -12.18,-2.77 -17.61,-6.01 0.4,-0.22 1.2,-0.67 1.6,-0.89 4.76,1.45 9.57,2.98 14.6,3.14 17.66,0.57 36.02,0.69 52.61,-6.22 6.16,-3.15 13.01,-7.2 14.9,-14.37 2.05,-5.51 -0.33,-11.24 -1.49,-16.65 z"
   id="path302"
   inkscape:connector-curvature="0"
   style="fill:#7e9800;stroke:#7e9800;stroke-width:0.5" />
	<path
   d="m 2158.425,524.715 c 8.54,-2.31 16.21,-6.84 24.43,-10.03 -5.45,5.85 -12.74,9.41 -19.3,13.83 -6.42,3.53 -12.11,8.16 -18.17,12.23 -0.4,0.22 -1.2,0.67 -1.6,0.89 -4.9,2.74 -9.34,6.2 -14.14,9.09 -16.67,10.02 -33.2,20.27 -50.25,29.64 -7.69,4.78 -15.57,9.22 -23.48,13.62 -7.87,5.04 -16.18,9.29 -24.34,13.8 -0.45,0.25 -1.34,0.75 -1.79,1 -6.79,4.4 -14.22,7.68 -21.11,11.91 -2.71,1.6 -5.41,3.23 -8.29,4.46 -3.75,1.06 -7.56,1.94 -11.1,3.58 -5.64,-2.18 -11.78,-3.01 -17.02,-6.15 -7.24,-4.24 -14.61,-8.39 -20.9,-14 -11.13,-8.44 -21.86,-17.42 -31.81,-27.21 -7.35,-5.41 -13.48,-12.16 -19.95,-18.52 -0.98,-0.94 -1.9,-1.87 -2.82,-2.79 -4.21,-4.12 -8.31,-8.38 -13.01,-11.94 11.48,2.14 23.12,4.43 34.87,3.26 5.15,1.75 9.93,4.4 14.46,7.41 5.67,3.77 11.85,6.69 17.63,10.29 2.19,9.09 6.1,18.6 14.2,23.96 7.61,5.92 17.53,8.15 27.03,7.9 6.3,0.04 12.45,-1.49 18.62,-2.64 18.34,-5.14 36.23,-12.68 51.58,-24.12 7.63,-7.46 16.93,-15.38 17.63,-26.84 5.4,-4.51 11.99,-7.06 18.03,-10.54 7.82,-4.76 15.91,-9.09 24.27,-12.86 5.52,4.05 12.74,5.59 19.48,4.36 5.64,-1.05 11.38,-1.76 16.85,-3.59 m -234.59,50.4 c 3.28,4.93 7.59,9.08 11.78,13.24 7.74,6.65 15.44,13.4 23.95,19.08 6.99,5.28 14.24,10.46 22.59,13.4 -1.47,-4.94 -5.11,-8.8 -8.89,-12.11 -9.07,-7.33 -17.72,-15.2 -27.35,-21.79 -6.62,-5.04 -13.6,-10.61 -22.08,-11.82 z"
   id="path304"
   inkscape:connector-curvature="0"
   style="fill:#ffdd00;stroke:#ffdd00;stroke-width:0.5" />
	<path
   d="m 1844.135,516.155 c 1.09,0.13 2.21,0.27 3.35,0.41 0.15,2.41 0.26,4.82 0.36,7.25 -1.71,0.1 -3.41,0.21 -5.07,0.33 -0.16,-2.75 0.24,-5.48 1.36,-7.99 z"
   id="path306"
   inkscape:connector-curvature="0"
   style="fill:#fea35b;stroke:#fea35b;stroke-width:0.5" />
	<path
   d="m 2214.885,519.945 c 2.41,-2.11 5.59,-2.95 8.62,-3.81 0.19,1.87 0.81,3.78 0.48,5.68 -2.73,4.92 -7.84,7.92 -12.86,10.06 -1.01,-0.76 -1.99,-1.51 -2.94,-2.25 1.71,-3.53 3.65,-7.09 6.7,-9.68 z"
   id="path308"
   inkscape:connector-curvature="0"
   style="fill:#e6f161;stroke:#e6f161;stroke-width:0.5" />
	<path
   d="m 2144.125,517.915 c 1.52,-0.03 3.37,-1.11 4.67,0.2 2.07,1.23 1.86,3.83 2.19,5.92 -2.35,0.03 -4.66,-0.29 -6.82,-1.13 -0.03,-1.67 -0.06,-3.34 -0.04,-4.99 z"
   id="path310"
   inkscape:connector-curvature="0"
   style="fill:#fea45b;stroke:#fea45b;stroke-width:0.5" />
	<path
   d="m 1827.335,534.235 c 1.75,-6.33 6.21,-11.42 11.1,-15.61 1.24,3.48 2.61,7.01 5.04,9.87 6.76,7.06 15.48,11.99 24.87,14.64 5.17,1.58 10.19,3.62 15.43,4.99 4.7,3.56 8.8,7.82 13.01,11.94 -12.09,2.83 -24.72,3.3 -37.07,2.36 -6.62,-0.31 -12.83,-2.73 -19.27,-3.95 -1.47,-0.29 -2.58,-1.36 -3.69,-2.22 -2.92,-2.41 -6.18,-4.7 -7.89,-8.19 -2.64,-4.11 -1.67,-9.23 -1.53,-13.83 m 4.52,6.8 c 0.29,2.17 0.01,4.73 1.66,6.47 3.8,4.02 8.53,8.41 14.55,7.63 -0.33,-1.72 -0.22,-3.59 -1.14,-5.11 -3.29,-5.07 -8.61,-9.73 -15.07,-8.99 z"
   id="path312"
   inkscape:connector-curvature="0"
   style="fill:#accc00;stroke:#accc00;stroke-width:0.5" />
	<path
   d="m 1877.915,537.955 c 2.33,-2.29 4.33,-4.96 7.09,-6.82 10.92,7.23 23.12,12.38 33.64,20.25 -11.75,1.17 -23.39,-1.12 -34.87,-3.26 -5.24,-1.37 -10.26,-3.41 -15.43,-4.99 3.21,-1.64 6.77,-2.8 9.57,-5.18 z"
   id="path314"
   inkscape:connector-curvature="0"
   style="fill:#ae0604;stroke:#ae0604;stroke-width:0.5" />
	<path
   d="m 2218.895,539.635 c 1.22,-0.66 2.42,-1.38 3.63,-2.14 1.16,7.97 3.02,16.42 0.16,24.25 -1.57,3.51 -4.46,6.18 -6.9,9.08 -2.01,2.67 -5.5,3.26 -8.31,4.72 -6.81,3.18 -13.86,5.84 -21.06,7.99 -4.05,1.31 -7.91,3.41 -12.22,3.7 -3.92,0.61 -8.13,0.37 -11.67,2.37 -8.23,3.97 -15.91,8.91 -24.09,12.96 -11.11,5.4 -21.48,12.2 -32.74,17.31 -5.95,4.75 -13.27,7.11 -19.69,11.07 -5.85,2.67 -10.93,6.7 -16.74,9.42 -6.34,3.06 -12.04,7.2 -18.07,10.78 -9.62,5.34 -18.8,12.02 -29.79,14.23 -5.98,0.89 -11.77,3.18 -17.91,2.41 3.92,-8.95 9.95,-16.9 12.61,-26.41 8.92,-1.66 17.47,-5.05 24.98,-10.18 11.1,-6.25 21.86,-13.08 33.1,-19.09 8.59,-2.4 17.48,-4.31 25.43,-8.5 4.93,-2.57 7.84,-7.49 10.64,-12.07 9.65,-3.45 17.65,-10.14 27.08,-14.04 3.42,-0.85 6.91,-1.53 10.24,-2.76 6.17,-2.18 11.28,-6.59 15.54,-11.45 5.08,-0.35 10.23,-0.65 15.13,-2.18 11.12,-4 22.63,-7.12 33.06,-12.83 3.41,-1.95 5.74,-5.25 7.59,-8.64 z"
   id="path316"
   inkscape:connector-curvature="0"
   style="fill:#cd7c0a;stroke:#cd7c0a;stroke-width:0.5" />
	<path
   d="m 2194.245,546.445 c 8.39,-1.53 16.76,-3.47 24.65,-6.81 -1.85,3.39 -4.18,6.69 -7.59,8.64 -10.43,5.71 -21.94,8.83 -33.06,12.83 -4.9,1.53 -10.05,1.83 -15.13,2.18 2.13,-4.85 1.6,-10.23 1.72,-15.38 9.79,-0.64 19.78,1 29.41,-1.46 z"
   id="path318"
   inkscape:connector-curvature="0"
   style="fill:#ffe699;stroke:#ffe699;stroke-width:0.5" />
	<path
   d="m 1831.855,541.035 c 6.46,-0.74 11.78,3.92 15.07,8.99 0.92,1.52 0.81,3.39 1.14,5.11 -6.02,0.78 -10.75,-3.61 -14.55,-7.63 -1.65,-1.74 -1.37,-4.3 -1.66,-6.47 z"
   id="path320"
   inkscape:connector-curvature="0"
   style="fill:#e7f161;stroke:#e7f161;stroke-width:0.5" />
	<path
   d="m 2129.645,550.725 c 4.8,-2.89 9.24,-6.35 14.14,-9.09 5.43,3.24 12,3.32 17.61,6.01 1.34,3.69 0.34,7.82 -1.68,11.07 -4.67,7.72 -13.08,12.64 -21.77,14.49 1.07,-2.1 2.15,-4.2 3.21,-6.32 -5.38,-2.66 -11.82,-1.5 -16.7,1.66 -1.99,1.13 -1.56,3.78 -2.17,5.68 3.57,0.56 7.23,0.68 10.83,0.12 -3.5,0.92 -7,1.88 -10.58,2.28 -5.9,0.63 -12.45,1.52 -17.48,-2.35 1.49,4.76 2.88,10.06 0.99,14.92 -1.96,4.58 -5.31,8.65 -9.6,11.21 -7.6,4.02 -15.99,6.65 -24.55,7.44 -7.67,0.69 -15.23,2.69 -22.97,2.28 -5.88,-0.06 -11.54,-1.83 -17.35,-2.34 8.16,-4.51 16.47,-8.76 24.34,-13.8 7.91,-4.4 15.79,-8.84 23.48,-13.62 17.05,-9.37 33.58,-19.62 50.25,-29.64 m -31.15,31.71 c -5.5,2.33 -10.77,7.39 -10.67,13.78 7.97,0.84 14.1,-5.92 16.11,-13.03 -1.76,-0.55 -3.63,-1.69 -5.44,-0.75 z"
   id="path322"
   inkscape:connector-curvature="0"
   style="fill:#accc00;stroke:#accc00;stroke-width:0.5" />
	<path
   d="m 2040.385,569.495 c 12.93,-7.73 25.71,-15.81 39.41,-22.15 -0.7,11.46 -10,19.38 -17.63,26.84 -15.35,11.44 -33.24,18.98 -51.58,24.12 -0.12,-2.7 0.81,-5.24 2.05,-7.59 1.63,-3.14 2.31,-6.64 2.81,-10.1 8.85,-2.29 17.53,-5.67 24.94,-11.12 z"
   id="path324"
   inkscape:connector-curvature="0"
   style="fill:#ae0604;stroke:#ae0604;stroke-width:0.5" />
	<path
   d="m 1840.445,558.475 c 6.44,1.22 12.65,3.64 19.27,3.95 12.35,0.94 24.98,0.47 37.07,-2.36 0.92,0.92 1.84,1.85 2.82,2.79 -3.06,1.35 -6.31,2.24 -9.65,2.32 -7.27,0.24 -14.53,1.23 -21.8,0.69 -5.96,-0.57 -11.98,-0.89 -17.79,-2.41 -0.61,-0.17 -1.82,-0.49 -2.43,-0.65 -2.93,-0.6 -5.61,-1.98 -7.49,-4.33 z"
   id="path326"
   inkscape:connector-curvature="0"
   style="fill:#819a00;stroke:#819a00;stroke-width:0.5" />
	<path
   d="m 1847.935,562.805 c 0.61,0.16 1.82,0.48 2.43,0.65 4.02,6.46 10.88,10.09 17.35,13.66 2.57,6.06 7.42,10.95 12.81,14.62 7.23,4.65 15.75,6.53 24.22,7.25 0.21,5.02 -0.01,10.68 3.52,14.73 3.53,3.91 7.45,7.78 12.36,9.91 11.89,5.62 25.24,5.48 38.09,5.23 5.34,3.14 10.07,7.35 15.94,9.57 13.12,5.03 27.74,6.03 41.45,2.95 -2.66,9.51 -8.69,17.46 -12.61,26.41 -8.75,0.83 -17.42,-0.99 -25.7,-3.64 -6.34,-2.12 -11.44,-6.56 -17.29,-9.61 -7.52,-4 -14.7,-8.58 -22.03,-12.89 -4.44,-2.09 -8.76,-4.41 -12.68,-7.35 -8.5,-4.87 -17.51,-8.86 -25.59,-14.42 -7.04,-3.96 -14.31,-7.52 -21.03,-12.02 -9.15,-5.76 -19.92,-9.58 -27.02,-18.11 -6.3,-7.45 -4.35,-17.97 -4.22,-26.94 z"
   id="path328"
   inkscape:connector-curvature="0"
   style="fill:#ffcf3e;stroke:#ffcf3e;stroke-width:0.5" />
	<path
   d="m 1850.365,563.455 c 5.81,1.52 11.83,1.84 17.79,2.41 -0.23,3.74 -0.5,7.49 -0.44,11.25 -6.47,-3.57 -13.33,-7.2 -17.35,-13.66 z"
   id="path330"
   inkscape:connector-curvature="0"
   style="fill:#ffe69a;stroke:#ffe69a;stroke-width:0.5" />
	<path
   d="m 1889.955,565.175 c 3.34,-0.08 6.59,-0.97 9.65,-2.32 6.47,6.36 12.6,13.11 19.95,18.52 9.95,9.79 20.68,18.77 31.81,27.21 6.29,5.61 13.66,9.76 20.9,14 5.24,3.14 11.38,3.97 17.02,6.15 4.51,2.38 9.64,2.19 14.5,1.18 -0.03,-0.61 -0.09,-1.84 -0.12,-2.46 -1.12,-0.77 -2.21,-1.54 -3.28,-2.3 2.88,-1.23 5.58,-2.86 8.29,-4.46 6.89,-4.23 14.32,-7.51 21.11,-11.91 3.47,3.52 8.62,3.31 13.19,3.78 -0.09,5.29 -2.8,10.36 -7.38,13.07 -6.22,3.62 -13.25,5.76 -20.34,6.74 -12.8,1.56 -25.68,0.38 -38.5,0.1 -3.16,-1.21 -6.11,-2.93 -9.36,-3.84 -0.04,-0.92 -0.05,-1.83 -0.04,-2.73 -10.43,-0.48 -20.9,1 -31.29,-0.21 -5.11,-0.99 -10.19,-2.44 -15.44,-2.07 -4.91,-2.13 -8.83,-6 -12.36,-9.91 -3.53,-4.05 -3.31,-9.71 -3.52,-14.73 -0.02,-0.68 -0.06,-2.02 -0.08,-2.7 -7.95,-2.01 -16.13,-2.86 -24.14,-4.55 -5.39,-3.67 -10.24,-8.56 -12.81,-14.62 -0.06,-3.76 0.21,-7.51 0.44,-11.25 7.27,0.54 14.53,-0.45 21.8,-0.69 m -15.97,8.66 c -0.24,1.67 -1.22,3.59 -0.09,5.16 3.19,4.86 7.86,10.22 14.36,9.28 -0.14,-2.64 0.26,-5.75 -1.88,-7.72 -3.42,-3.3 -7.58,-6.12 -12.39,-6.72 m 63.19,41.74 c 0.18,1.4 -0.26,3.17 1.01,4.2 3.66,3.33 9.01,3.79 13.71,3.06 2.28,-0.35 3.47,-2.64 5.05,-4.09 -4.94,-5.67 -13.21,-4.23 -19.77,-3.17 z"
   id="path332"
   inkscape:connector-curvature="0"
   style="fill:#accc00;stroke:#accc00;stroke-width:0.5" />
	<path
   d="m 2124.455,568.545 c 4.88,-3.16 11.32,-4.32 16.7,-1.66 -1.06,2.12 -2.14,4.22 -3.21,6.32 -1.63,0.37 -3.24,0.76 -4.83,1.14 -3.6,0.56 -7.26,0.44 -10.83,-0.12 0.61,-1.9 0.18,-4.55 2.17,-5.68 z"
   id="path334"
   inkscape:connector-curvature="0"
   style="fill:#e6f160;stroke:#e6f160;stroke-width:0.5" />
	<path
   d="m 1950.735,569.085 c 4.53,2.91 8.98,6 13.92,8.21 10.06,4.52 21.21,6.35 32.2,5.8 6.25,-0.2 12.52,-0.91 18.59,-2.48 -0.5,3.46 -1.18,6.96 -2.81,10.1 -1.24,2.35 -2.17,4.89 -2.05,7.59 -6.17,1.15 -12.32,2.68 -18.62,2.64 -9.5,0.25 -19.42,-1.98 -27.03,-7.9 -8.1,-5.36 -12.01,-14.87 -14.2,-23.96 m 14.45,10.65 c -0.56,3.61 -1.07,7.72 1.35,10.83 1.93,1.46 4.88,1.5 6.15,-0.86 -0.51,-4.31 -3.15,-8.69 -7.5,-9.97 z"
   id="path336"
   inkscape:connector-curvature="0"
   style="fill:#e63e00;stroke:#e63e00;stroke-width:0.5" />
	<path
   d="m 1873.985,573.835 c 4.81,0.6 8.97,3.42 12.39,6.72 2.14,1.97 1.74,5.08 1.88,7.72 -6.5,0.94 -11.17,-4.42 -14.36,-9.28 -1.13,-1.57 -0.15,-3.49 0.09,-5.16 z"
   id="path338"
   inkscape:connector-curvature="0"
   style="fill:#e6f161;stroke:#e6f161;stroke-width:0.5" />
	<path
   d="m 1923.835,575.115 c 8.48,1.21 15.46,6.78 22.08,11.82 9.63,6.59 18.28,14.46 27.35,21.79 3.78,3.31 7.42,7.17 8.89,12.11 -8.35,-2.94 -15.6,-8.12 -22.59,-13.4 -8.51,-5.68 -16.21,-12.43 -23.95,-19.08 -4.19,-4.16 -8.5,-8.31 -11.78,-13.24 z"
   id="path340"
   inkscape:connector-curvature="0"
   style="fill:#fffd66;stroke:#fffd66;stroke-width:0.5" />
	<path
   d="m 2110.115,580.235 c 9.14,0.3 18.28,-0.86 27.22,-2.74 -9.43,3.9 -17.43,10.59 -27.08,14.04 -0.05,-3.77 -0.08,-7.54 -0.14,-11.3 z"
   id="path342"
   inkscape:connector-curvature="0"
   style="fill:#ffe79c;stroke:#ffe79c;stroke-width:0.5" />
	<path
   d="m 1965.185,579.735 c 4.35,1.28 6.99,5.66 7.5,9.97 -1.27,2.36 -4.22,2.32 -6.15,0.86 -2.42,-3.11 -1.91,-7.22 -1.35,-10.83 z"
   id="path344"
   inkscape:connector-curvature="0"
   style="fill:#fea259;stroke:#fea259;stroke-width:0.5" />
	<path
   d="m 2098.495,582.435 c 1.81,-0.94 3.68,0.2 5.44,0.75 -2.01,7.11 -8.14,13.87 -16.11,13.03 -0.1,-6.39 5.17,-11.45 10.67,-13.78 z"
   id="path346"
   inkscape:connector-curvature="0"
   style="fill:#e6f160;stroke:#e6f160;stroke-width:0.5" />
	<path
   d="m 1880.525,591.735 c 8.01,1.69 16.19,2.54 24.14,4.55 0.02,0.68 0.06,2.02 0.08,2.7 -8.47,-0.72 -16.99,-2.6 -24.22,-7.25 z"
   id="path348"
   inkscape:connector-curvature="0"
   style="fill:#7d9a01;stroke:#7d9a01;stroke-width:0.5" />
	<path
   d="m 2046.475,613.235 c 9.26,0.32 18.46,-0.8 27.71,-1.13 -11.24,6.01 -22,12.84 -33.1,19.09 -7.51,5.13 -16.06,8.52 -24.98,10.18 -13.71,3.08 -28.33,2.08 -41.45,-2.95 -5.87,-2.22 -10.6,-6.43 -15.94,-9.57 2.88,-0.04 5.77,-0.21 8.68,-0.22 3.25,0.91 6.2,2.63 9.36,3.84 12.9,5.68 27.62,5.37 41.18,2.47 7.86,-1.58 16.1,-3.34 22.54,-8.43 4.09,-3.12 5.08,-8.53 6,-13.28 z"
   id="path350"
   inkscape:connector-curvature="0"
   style="fill:#ffe79b;stroke:#ffe79b;stroke-width:0.5" />
	<path
   d="m 1937.175,615.575 c 6.56,-1.06 14.83,-2.5 19.77,3.17 -1.58,1.45 -2.77,3.74 -5.05,4.09 -4.7,0.73 -10.05,0.27 -13.71,-3.06 -1.27,-1.03 -0.83,-2.8 -1.01,-4.2 z"
   id="path352"
   inkscape:connector-curvature="0"
   style="fill:#e6f161;stroke:#e6f161;stroke-width:0.5" />
	<path
   d="m 1920.625,623.625 c 5.25,-0.37 10.33,1.08 15.44,2.07 10.39,1.21 20.86,-0.27 31.29,0.21 -0.01,0.9 0,1.81 0.04,2.73 -2.91,0.01 -5.8,0.18 -8.68,0.22 -12.85,0.25 -26.2,0.39 -38.09,-5.23 z"
   id="path354"
   inkscape:connector-curvature="0"
   style="fill:#769400;stroke:#769400;stroke-width:0.5" />
	<path
   d="m 1989.285,628.735 c 3.54,-1.64 7.35,-2.52 11.1,-3.58 1.07,0.76 2.16,1.53 3.28,2.3 0.03,0.62 0.09,1.85 0.12,2.46 -4.86,1.01 -9.99,1.2 -14.5,-1.18 z"
   id="path356"
   inkscape:connector-curvature="0"
   style="fill:#e6f160;stroke:#e6f160;stroke-width:0.5" />
</g>





</svg>