<?xml version="1.0" encoding="UTF-8" standalone="no"?>
<!-- Generator: Adobe Illustrator 15.1.0, SVG Export Plug-In . SVG Version: 6.00 Build 0)  -->

<svg
   xmlns:dc="http://purl.org/dc/elements/1.1/"
   xmlns:cc="http://creativecommons.org/ns#"
   xmlns:rdf="http://www.w3.org/1999/02/22-rdf-syntax-ns#"
   xmlns:svg="http://www.w3.org/2000/svg"
   xmlns="http://www.w3.org/2000/svg"
   xmlns:sodipodi="http://sodipodi.sourceforge.net/DTD/sodipodi-0.dtd"
   xmlns:inkscape="http://www.inkscape.org/namespaces/inkscape"
   version="1.1"
   id="flash0.ai"
   x="0px"
   y="0px"
   width="256"
   height="256"
   viewBox="0 0 256 256"
   xml:space="preserve"
   sodipodi:docname="curry.svg"
   inkscape:version="0.92.4 (5da689c313, 2019-01-14)"
   inkscape:export-filename="C:\Users\antum\Development\game-resources\icon\CC0\food\individual\Glitch\32x32\condiment\curry.png"
   inkscape:export-xdpi="9"
   inkscape:export-ydpi="9"><title
   id="title991">Curry</title><metadata
   id="metadata332"><rdf:RDF><cc:Work
       rdf:about=""><dc:format>image/svg+xml</dc:format><dc:type
         rdf:resource="http://purl.org/dc/dcmitype/StillImage" /><dc:title>Curry</dc:title><cc:license
         rdf:resource="http://creativecommons.org/publicdomain/zero/1.0/" /><dc:creator><cc:Agent><dc:title>Glitch</dc:title></cc:Agent></dc:creator><dc:source>https://opengameart.org/node/20149</dc:source></cc:Work><cc:License
       rdf:about="http://creativecommons.org/publicdomain/zero/1.0/"><cc:permits
         rdf:resource="http://creativecommons.org/ns#Reproduction" /><cc:permits
         rdf:resource="http://creativecommons.org/ns#Distribution" /><cc:permits
         rdf:resource="http://creativecommons.org/ns#DerivativeWorks" /></cc:License></rdf:RDF></metadata><defs
   id="defs330" /><sodipodi:namedview
   pagecolor="#ffffff"
   bordercolor="#666666"
   borderopacity="1"
   objecttolerance="10"
   gridtolerance="10"
   guidetolerance="10"
   inkscape:pageopacity="0"
   inkscape:pageshadow="2"
   inkscape:window-width="1920"
   inkscape:window-height="1025"
   id="namedview328"
   showgrid="false"
   inkscape:zoom="1.3681368"
   inkscape:cx="-48.596258"
   inkscape:cy="42.133091"
   inkscape:window-x="-8"
   inkscape:window-y="-8"
   inkscape:window-maximized="1"
   inkscape:current-layer="flash0.ai"
   fit-margin-top="0"
   fit-margin-left="0"
   fit-margin-right="0"
   fit-margin-bottom="0" />
<linearGradient
   id="SVGID_1_"
   gradientUnits="userSpaceOnUse"
   x1="11.5854"
   y1="22.0273"
   x2="20.9951"
   y2="22.0273"
   gradientTransform="matrix(0.8263,-0.5633,0.5633,0.8263,-8.267164e-5,9.75728e-5)">
	<stop
   offset="0"
   style="stop-color:#F9AF00"
   id="stop2" />
	<stop
   offset="1"
   style="stop-color:#E08006"
   id="stop4" />
</linearGradient>

<linearGradient
   id="SVGID_2_"
   gradientUnits="userSpaceOnUse"
   x1="-2.1566999"
   y1="13.7217"
   x2="-1.5464"
   y2="13.7217"
   gradientTransform="matrix(0.8192,-0.5735,0.5735,0.8192,3.869534e-4,-2.346039e-4)">
	<stop
   offset="0"
   style="stop-color:#F9AF00"
   id="stop9" />
	<stop
   offset="1"
   style="stop-color:#E08006"
   id="stop11" />
</linearGradient>

<linearGradient
   id="SVGID_3_"
   gradientUnits="userSpaceOnUse"
   x1="-4.3037"
   y1="13.3066"
   x2="-3.7282"
   y2="13.3066"
   gradientTransform="matrix(0.8253,-0.5647,0.5647,0.8253,2.974272e-4,1.149178e-4)">
	<stop
   offset="0"
   style="stop-color:#F9AF00"
   id="stop16" />
	<stop
   offset="1"
   style="stop-color:#E08006"
   id="stop18" />
</linearGradient>

<linearGradient
   id="SVGID_4_"
   gradientUnits="userSpaceOnUse"
   x1="-7.3740001"
   y1="11.958"
   x2="-7.1036"
   y2="11.958"
   gradientTransform="matrix(0.8321,-0.5547,0.5547,0.8321,3.23534e-4,1.349449e-4)">
	<stop
   offset="0"
   style="stop-color:#F9AF00"
   id="stop23" />
	<stop
   offset="1"
   style="stop-color:#E08006"
   id="stop25" />
</linearGradient>

<linearGradient
   id="SVGID_5_"
   gradientUnits="userSpaceOnUse"
   x1="-2.8657"
   y1="15.9648"
   x2="-2.4356"
   y2="15.9648"
   gradientTransform="matrix(0.8137,-0.5812,0.5812,0.8137,3.224015e-4,1.754761e-4)">
	<stop
   offset="0"
   style="stop-color:#F9AF00"
   id="stop30" />
	<stop
   offset="1"
   style="stop-color:#E08006"
   id="stop32" />
</linearGradient>

<linearGradient
   id="SVGID_6_"
   gradientUnits="userSpaceOnUse"
   x1="-0.65969998"
   y1="15.8037"
   x2="-0.44459999"
   y2="15.8037"
   gradientTransform="matrix(0.8137,-0.5812,0.5812,0.8137,3.224015e-4,1.754761e-4)">
	<stop
   offset="0"
   style="stop-color:#F9AF00"
   id="stop37" />
	<stop
   offset="1"
   style="stop-color:#E08006"
   id="stop39" />
</linearGradient>

<linearGradient
   id="SVGID_7_"
   gradientUnits="userSpaceOnUse"
   x1="0.87010002"
   y1="17.169901"
   x2="1.0159"
   y2="17.169901"
   gradientTransform="matrix(0.8575,-0.5145,0.5145,0.8575,-2.385378e-4,-1.728535e-5)">
	<stop
   offset="0"
   style="stop-color:#F9AF00"
   id="stop44" />
	<stop
   offset="1"
   style="stop-color:#E08006"
   id="stop46" />
</linearGradient>

<linearGradient
   id="SVGID_8_"
   gradientUnits="userSpaceOnUse"
   x1="2.3989"
   y1="21.095699"
   x2="3.335"
   y2="21.095699"
   gradientTransform="matrix(0.8279,-0.5608,0.5608,0.8279,-1.851916e-4,1.488328e-4)">
	<stop
   offset="0"
   style="stop-color:#F9AF00"
   id="stop51" />
	<stop
   offset="1"
   style="stop-color:#E08006"
   id="stop53" />
</linearGradient>

<linearGradient
   id="SVGID_9_"
   gradientUnits="userSpaceOnUse"
   x1="0.70359999"
   y1="20.580099"
   x2="1.0989"
   y2="20.580099"
   gradientTransform="matrix(0.8222,-0.5692,0.5692,0.8222,-5.084276e-5,-1.536012e-4)">
	<stop
   offset="0"
   style="stop-color:#F9AF00"
   id="stop58" />
	<stop
   offset="1"
   style="stop-color:#E08006"
   id="stop60" />
</linearGradient>

<linearGradient
   id="SVGID_10_"
   gradientUnits="userSpaceOnUse"
   x1="-0.031300001"
   y1="13.2207"
   x2="0.41940001"
   y2="13.2207"
   gradientTransform="matrix(0.8321,-0.5547,0.5547,0.8321,-1.631379e-4,1.349449e-4)">
	<stop
   offset="0"
   style="stop-color:#F9AF00"
   id="stop65" />
	<stop
   offset="1"
   style="stop-color:#E08006"
   id="stop67" />
</linearGradient>

<linearGradient
   id="SVGID_11_"
   gradientUnits="userSpaceOnUse"
   x1="-3.1475"
   y1="13.3516"
   x2="-2.9324"
   y2="13.3516"
   gradientTransform="matrix(0.8137,-0.5812,0.5812,0.8137,3.224015e-4,1.754761e-4)">
	<stop
   offset="0"
   style="stop-color:#F9AF00"
   id="stop72" />
	<stop
   offset="1"
   style="stop-color:#E08006"
   id="stop74" />
</linearGradient>

<linearGradient
   id="SVGID_12_"
   gradientUnits="userSpaceOnUse"
   x1="-5.0756998"
   y1="13.5723"
   x2="-4.7150998"
   y2="13.5723"
   gradientTransform="matrix(0.8321,-0.5547,0.5547,0.8321,3.21269e-4,1.352429e-4)">
	<stop
   offset="0"
   style="stop-color:#F9AF00"
   id="stop79" />
	<stop
   offset="1"
   style="stop-color:#E08006"
   id="stop81" />
</linearGradient>

<linearGradient
   id="SVGID_13_"
   gradientUnits="userSpaceOnUse"
   x1="-6.7509999"
   y1="12.4316"
   x2="-6.5359001"
   y2="12.4316"
   gradientTransform="matrix(0.8137,-0.5812,0.5812,0.8137,3.224015e-4,1.754761e-4)">
	<stop
   offset="0"
   style="stop-color:#F9AF00"
   id="stop86" />
	<stop
   offset="1"
   style="stop-color:#E08006"
   id="stop88" />
</linearGradient>

<linearGradient
   id="SVGID_14_"
   gradientUnits="userSpaceOnUse"
   x1="-4.0770998"
   y1="15.4863"
   x2="-3.7165999"
   y2="15.4863"
   gradientTransform="matrix(0.8321,-0.5547,0.5547,0.8321,3.21269e-4,1.352429e-4)">
	<stop
   offset="0"
   style="stop-color:#F9AF00"
   id="stop93" />
	<stop
   offset="1"
   style="stop-color:#E08006"
   id="stop95" />
</linearGradient>

<linearGradient
   id="SVGID_15_"
   gradientUnits="userSpaceOnUse"
   x1="-0.89990002"
   y1="19.6035"
   x2="-0.3937"
   y2="19.6035"
   gradientTransform="matrix(0.8396,-0.5433,0.5433,0.8396,3.740788e-4,-1.048446e-4)">
	<stop
   offset="0"
   style="stop-color:#F9AF00"
   id="stop100" />
	<stop
   offset="1"
   style="stop-color:#E08006"
   id="stop102" />
</linearGradient>

<linearGradient
   id="SVGID_16_"
   gradientUnits="userSpaceOnUse"
   x1="7.0893998"
   y1="25.185499"
   x2="8.5663004"
   y2="25.185499"
   gradientTransform="matrix(0.8294,-0.5586,0.5586,0.8294,1.505017e-4,-9.11355e-5)">
	<stop
   offset="0"
   style="stop-color:#F9AF00"
   id="stop107" />
	<stop
   offset="1"
   style="stop-color:#E08006"
   id="stop109" />
</linearGradient>

<linearGradient
   id="SVGID_17_"
   gradientUnits="userSpaceOnUse"
   x1="8.5785999"
   y1="27.529301"
   x2="9.7297001"
   y2="27.529301"
   gradientTransform="matrix(0.8253,-0.5647,0.5647,0.8253,2.996922e-4,1.155734e-4)">
	<stop
   offset="0"
   style="stop-color:#F9AF00"
   id="stop114" />
	<stop
   offset="1"
   style="stop-color:#E08006"
   id="stop116" />
</linearGradient>

<linearGradient
   id="SVGID_18_"
   gradientUnits="userSpaceOnUse"
   x1="4.2944002"
   y1="25.9893"
   x2="5.085"
   y2="25.9893"
   gradientTransform="matrix(0.8222,-0.5692,0.5692,0.8222,-5.084276e-5,-1.536012e-4)">
	<stop
   offset="0"
   style="stop-color:#F9AF00"
   id="stop121" />
	<stop
   offset="1"
   style="stop-color:#E08006"
   id="stop123" />
</linearGradient>

<linearGradient
   id="SVGID_19_"
   gradientUnits="userSpaceOnUse"
   x1="3.7177999"
   y1="25.6152"
   x2="4.224"
   y2="25.6152"
   gradientTransform="matrix(0.8396,-0.5433,0.5433,0.8396,3.740788e-4,-1.048446e-4)">
	<stop
   offset="0"
   style="stop-color:#F9AF00"
   id="stop128" />
	<stop
   offset="1"
   style="stop-color:#E08006"
   id="stop130" />
</linearGradient>

<linearGradient
   id="SVGID_20_"
   gradientUnits="userSpaceOnUse"
   x1="16.055201"
   y1="31.503901"
   x2="17.4561"
   y2="31.503901"
   gradientTransform="matrix(0.8209,-0.5711,0.5711,0.8209,1.415014e-4,1.122355e-4)">
	<stop
   offset="0"
   style="stop-color:#F9AF00"
   id="stop135" />
	<stop
   offset="1"
   style="stop-color:#E08006"
   id="stop137" />
</linearGradient>

<linearGradient
   id="SVGID_21_"
   gradientUnits="userSpaceOnUse"
   x1="14.1221"
   y1="31.665001"
   x2="15.0582"
   y2="31.665001"
   gradientTransform="matrix(0.8279,-0.5608,0.5608,0.8279,-1.851916e-4,1.488328e-4)">
	<stop
   offset="0"
   style="stop-color:#F9AF00"
   id="stop142" />
	<stop
   offset="1"
   style="stop-color:#E08006"
   id="stop144" />
</linearGradient>

<linearGradient
   id="SVGID_22_"
   gradientUnits="userSpaceOnUse"
   x1="11.3711"
   y1="31.6553"
   x2="11.8565"
   y2="31.6553"
   gradientTransform="matrix(0.824,-0.5665,0.5665,0.824,7.927418e-6,-1.163483e-4)">
	<stop
   offset="0"
   style="stop-color:#F9AF00"
   id="stop149" />
	<stop
   offset="1"
   style="stop-color:#E08006"
   id="stop151" />
</linearGradient>

<linearGradient
   id="SVGID_23_"
   gradientUnits="userSpaceOnUse"
   x1="13.9683"
   y1="29.0322"
   x2="14.5992"
   y2="29.0322"
   gradientTransform="matrix(0.8321,-0.5547,0.5547,0.8321,-1.654029e-4,1.352429e-4)">
	<stop
   offset="0"
   style="stop-color:#F9AF00"
   id="stop156" />
	<stop
   offset="1"
   style="stop-color:#E08006"
   id="stop158" />
</linearGradient>

<linearGradient
   id="SVGID_24_"
   gradientUnits="userSpaceOnUse"
   x1="21.242201"
   y1="31.914101"
   x2="22.303101"
   y2="31.914101"
   gradientTransform="matrix(0.8247,-0.5655,0.5655,0.8247,2.79963e-4,-1.7941e-5)">
	<stop
   offset="0"
   style="stop-color:#F9AF00"
   id="stop163" />
	<stop
   offset="1"
   style="stop-color:#E08006"
   id="stop165" />
</linearGradient>

<linearGradient
   id="SVGID_25_"
   gradientUnits="userSpaceOnUse"
   x1="23.2852"
   y1="32.6992"
   x2="24.0618"
   y2="32.6992"
   gradientTransform="matrix(0.837,-0.5472,0.5472,0.837,-2.456307e-4,2.188087e-4)">
	<stop
   offset="0"
   style="stop-color:#F9AF00"
   id="stop170" />
	<stop
   offset="1"
   style="stop-color:#E08006"
   id="stop172" />
</linearGradient>

<linearGradient
   id="SVGID_26_"
   gradientUnits="userSpaceOnUse"
   x1="25.3291"
   y1="35.681599"
   x2="26.230499"
   y2="35.681599"
   gradientTransform="matrix(0.8321,-0.5547,0.5547,0.8321,-1.631379e-4,1.349449e-4)">
	<stop
   offset="0"
   style="stop-color:#F9AF00"
   id="stop177" />
	<stop
   offset="1"
   style="stop-color:#E08006"
   id="stop179" />
</linearGradient>

<linearGradient
   id="SVGID_27_"
   gradientUnits="userSpaceOnUse"
   x1="25.5718"
   y1="31.568399"
   x2="25.932301"
   y2="31.568399"
   gradientTransform="matrix(0.8321,-0.5547,0.5547,0.8321,3.21269e-4,1.352429e-4)">
	<stop
   offset="0"
   style="stop-color:#F9AF00"
   id="stop184" />
	<stop
   offset="1"
   style="stop-color:#E08006"
   id="stop186" />
</linearGradient>

<linearGradient
   id="SVGID_28_"
   gradientUnits="userSpaceOnUse"
   x1="25.151899"
   y1="32.839802"
   x2="26.0879"
   y2="32.839802"
   gradientTransform="matrix(0.8279,-0.5608,0.5608,0.8279,-1.851916e-4,1.488328e-4)">
	<stop
   offset="0"
   style="stop-color:#F9AF00"
   id="stop191" />
	<stop
   offset="1"
   style="stop-color:#E08006"
   id="stop193" />
</linearGradient>

<linearGradient
   id="SVGID_29_"
   gradientUnits="userSpaceOnUse"
   x1="25.315901"
   y1="34.923801"
   x2="25.9611"
   y2="34.923801"
   gradientTransform="matrix(0.8137,-0.5812,0.5812,0.8137,-1.652241e-4,1.777411e-4)">
	<stop
   offset="0"
   style="stop-color:#F9AF00"
   id="stop198" />
	<stop
   offset="1"
   style="stop-color:#E08006"
   id="stop200" />
</linearGradient>

<linearGradient
   id="SVGID_30_"
   gradientUnits="userSpaceOnUse"
   x1="28.5879"
   y1="33.625"
   x2="29.1287"
   y2="33.625"
   gradientTransform="matrix(0.8321,-0.5547,0.5547,0.8321,3.23534e-4,1.349449e-4)">
	<stop
   offset="0"
   style="stop-color:#F9AF00"
   id="stop205" />
	<stop
   offset="1"
   style="stop-color:#E08006"
   id="stop207" />
</linearGradient>

<linearGradient
   id="SVGID_31_"
   gradientUnits="userSpaceOnUse"
   x1="26.267599"
   y1="31.8965"
   x2="26.572701"
   y2="31.8965"
   gradientTransform="matrix(0.8192,-0.5735,0.5735,0.8192,3.869534e-4,-2.346039e-4)">
	<stop
   offset="0"
   style="stop-color:#F9AF00"
   id="stop212" />
	<stop
   offset="1"
   style="stop-color:#E08006"
   id="stop214" />
</linearGradient>

<linearGradient
   id="SVGID_32_"
   gradientUnits="userSpaceOnUse"
   x1="19.502001"
   y1="34.291"
   x2="20.9582"
   y2="34.291"
   gradientTransform="matrix(0.824,-0.5665,0.5665,0.824,7.927418e-6,-1.170039e-4)">
	<stop
   offset="0"
   style="stop-color:#F9AF00"
   id="stop219" />
	<stop
   offset="1"
   style="stop-color:#E08006"
   id="stop221" />
</linearGradient>

<linearGradient
   id="SVGID_33_"
   gradientUnits="userSpaceOnUse"
   x1="23.4004"
   y1="36.016602"
   x2="23.906601"
   y2="36.016602"
   gradientTransform="matrix(0.8396,-0.5433,0.5433,0.8396,3.740788e-4,-1.048446e-4)">
	<stop
   offset="0"
   style="stop-color:#F9AF00"
   id="stop226" />
	<stop
   offset="1"
   style="stop-color:#E08006"
   id="stop228" />
</linearGradient>















































<g
   id="g1219"
   transform="matrix(5.8850575,0,0,5.8850575,-6.2500001e-7,68.836477)"><path
     id="path7"
     d="m 35.05,14.25 c -3.2,1.4 -7.166,2.1 -11.9,2.1 -5.467,0 -9.9,-0.783 -13.3,-2.35 C 8.183,13.233 7.05,12.45 6.45,11.65 7.45,11.483 8.7,10.766 10.2,9.5 13,7.167 14.6,5.867 15,5.6 17.6,3.733 19.85,1.867 21.75,0 c 1.167,1.233 4.117,3.417 8.85,6.55 3.067,2 5.667,3.867 7.801,5.601 -0.634,0.699 -1.751,1.399 -3.351,2.099 z"
     style="clip-rule:evenodd;fill:url(#SVGID_1_);fill-rule:evenodd"
     inkscape:connector-curvature="0" /><path
     id="path14"
     d="M 6.65,11.65 C 7.217,12.517 7.167,13 6.5,13.1 5.767,13.234 5.35,13.083 5.25,12.651 5.183,12.35 5.35,12.034 5.75,11.701 6.15,11.4 6.45,11.384 6.65,11.65 Z"
     style="clip-rule:evenodd;fill:url(#SVGID_2_);fill-rule:evenodd"
     inkscape:connector-curvature="0" /><path
     id="path21"
     d="m 4.2,12.75 c 0.867,0.4 0.983,0.75 0.35,1.05 -0.633,0.334 -1.083,0.334 -1.35,0 C 3.033,13.567 3.1,13.3 3.4,13 3.7,12.733 3.967,12.65 4.2,12.75 Z"
     style="clip-rule:evenodd;fill:url(#SVGID_3_);fill-rule:evenodd"
     inkscape:connector-curvature="0" /><path
     id="path28"
     d="m 0.4,13.8 c 0.167,0.101 0.383,0.217 0.65,0.351 0.1,0.1 -0.033,0.149 -0.4,0.149 C 0.217,14.3 0,14.184 0,13.95 0.033,13.684 0.167,13.634 0.4,13.8 Z"
     style="clip-rule:evenodd;fill:url(#SVGID_4_);fill-rule:evenodd"
     inkscape:connector-curvature="0" /><path
     id="path35"
     d="m 7.1,14.2 c 0.566,0.267 0.717,0.5 0.45,0.7 -0.267,0.199 -0.6,0.233 -1,0.1 C 6.217,14.9 6.167,14.717 6.4,14.45 6.6,14.15 6.833,14.066 7.1,14.2 Z"
     style="clip-rule:evenodd;fill:url(#SVGID_5_);fill-rule:evenodd"
     inkscape:connector-curvature="0" /><path
     id="path42"
     d="m 8.7,13.05 c 0.3,0.033 0.383,0.134 0.25,0.3 -0.167,0.167 -0.333,0.2 -0.5,0.101 C 8.283,13.384 8.233,13.3 8.3,13.2 8.367,13.066 8.5,13.017 8.7,13.05 Z"
     style="clip-rule:evenodd;fill:url(#SVGID_6_);fill-rule:evenodd"
     inkscape:connector-curvature="0" /><path
     id="path49"
     d="M 9.65,14.15 C 9.983,14.283 9.9,14.366 9.4,14.4 9.3,14.366 9.283,14.316 9.35,14.25 c 0.067,-0.1 0.167,-0.134 0.3,-0.1 z"
     style="clip-rule:evenodd;fill:url(#SVGID_7_);fill-rule:evenodd"
     inkscape:connector-curvature="0" /><path
     id="path56"
     d="m 12.95,15.25 c 0.1,0.033 0.267,0.05 0.5,0.05 0.3,-0.033 0.667,-0.017 1.1,0.05 0.467,0.067 0.684,0.334 0.65,0.801 0,0.233 -0.017,0.5 -0.05,0.8 0.1,0.133 0,0.233 -0.3,0.3 -0.3,0.033 -0.583,0.017 -0.85,-0.05 -0.2,-0.033 -0.333,-0.15 -0.4,-0.351 -0.067,-0.199 -0.133,-0.316 -0.2,-0.35 -0.333,-0.1 -0.75,-0.3 -1.25,-0.6 -0.333,-0.2 -0.333,-0.384 0,-0.551 0.3,-0.165 0.567,-0.199 0.8,-0.099 z"
     style="clip-rule:evenodd;fill:url(#SVGID_8_);fill-rule:evenodd"
     inkscape:connector-curvature="0" /><path
     id="path63"
     d="m 12.55,16.3 c 0.333,0.101 0.467,0.217 0.4,0.351 -0.067,0.1 -0.217,0.166 -0.45,0.199 -0.4,0.034 -0.7,-0.05 -0.9,-0.25 -0.133,-0.133 -0.05,-0.233 0.25,-0.3 0.267,-0.067 0.5,-0.067 0.7,0 z"
     style="clip-rule:evenodd;fill:url(#SVGID_9_);fill-rule:evenodd"
     inkscape:connector-curvature="0" /><path
     id="path70"
     d="m 8,11.1 c -0.3,0.2 -0.583,0.284 -0.85,0.25 -0.367,-0.066 -0.533,-0.116 -0.5,-0.149 0.067,-0.167 0.15,-0.3 0.25,-0.4 0.133,-0.2 0.333,-0.267 0.6,-0.2 C 7.933,10.733 8.1,10.9 8,11.1 Z"
     style="clip-rule:evenodd;fill:url(#SVGID_10_);fill-rule:evenodd"
     inkscape:connector-curvature="0" /><path
     id="path77"
     d="m 5.5,12.9 c -0.067,0.133 -0.183,0.183 -0.35,0.149 -0.267,-0.033 -0.367,-0.2 -0.3,-0.5 0.066,-0.2 0.233,-0.233 0.5,-0.1 C 5.45,12.45 5.5,12.6 5.5,12.9 Z"
     style="clip-rule:evenodd;fill:url(#SVGID_11_);fill-rule:evenodd"
     inkscape:connector-curvature="0" /><path
     id="path84"
     d="M 3.9,14.1 C 3.733,14.333 3.517,14.451 3.25,14.451 3.05,14.451 2.9,14.418 2.8,14.35 L 2.7,14.2 C 2.733,14.134 2.783,14.066 2.85,14 2.983,13.833 3.1,13.767 3.2,13.8 c 0.367,0 0.6,0.1 0.7,0.3 z"
     style="clip-rule:evenodd;fill:url(#SVGID_12_);fill-rule:evenodd"
     inkscape:connector-curvature="0" /><path
     id="path91"
     d="m 1.9,13.9 c 0.2,0 0.2,0.083 0,0.25 C 1.7,14.283 1.567,14.3 1.5,14.2 1.367,14 1.5,13.9 1.9,13.9 Z"
     style="clip-rule:evenodd;fill:url(#SVGID_13_);fill-rule:evenodd"
     inkscape:connector-curvature="0" /><path
     id="path98"
     d="m 5.4,14.9 c 0.233,0.034 0.35,0.1 0.35,0.2 0,0.067 -0.083,0.134 -0.25,0.2 -0.4,0.2 -0.65,0.2 -0.75,0 C 4.683,15.2 4.717,15.1 4.85,15 5.017,14.9 5.2,14.866 5.4,14.9 Z"
     style="clip-rule:evenodd;fill:url(#SVGID_14_);fill-rule:evenodd"
     inkscape:connector-curvature="0" /><path
     id="path105"
     d="m 10.2,16.55 c 0.5,0.066 0.633,0.267 0.4,0.601 C 10.367,17.484 10,17.534 9.5,17.3 9,17.1 8.883,16.9 9.15,16.7 9.417,16.533 9.767,16.483 10.2,16.55 Z"
     style="clip-rule:evenodd;fill:url(#SVGID_15_);fill-rule:evenodd"
     inkscape:connector-curvature="0" /><path
     id="path112"
     d="m 21.55,17.6 c -0.867,0.134 -1.583,0.2 -2.15,0.2 -0.566,0 -1.017,-0.1 -1.35,-0.3 -0.333,-0.2 -0.466,-0.4 -0.4,-0.6 0.167,-0.534 0.517,-1 1.05,-1.4 0.367,-0.267 0.833,-0.35 1.4,-0.25 0.467,0.1 0.9,0.3 1.3,0.6 0.333,0.233 0.65,0.534 0.95,0.9 0.267,0.3 0.4,0.483 0.4,0.55 0,0.067 -0.4,0.167 -1.2,0.3 z"
     style="clip-rule:evenodd;fill:url(#SVGID_16_);fill-rule:evenodd"
     inkscape:connector-curvature="0" /><path
     id="path119"
     d="m 23.6,16.9 0.95,0.899 c -0.1,0.434 -0.466,0.717 -1.1,0.851 -0.867,0.233 -1.633,0.166 -2.3,-0.2 -0.2,-0.134 -0.183,-0.367 0.05,-0.7 0.133,-0.2 0.316,-0.45 0.55,-0.75 0.133,-0.2 0.367,-0.333 0.7,-0.4 0.433,-0.067 0.817,0.034 1.15,0.3 z"
     style="clip-rule:evenodd;fill:url(#SVGID_17_);fill-rule:evenodd"
     inkscape:connector-curvature="0" /><path
     id="path126"
     d="m 18.75,18.05 c 0.267,0.066 0.517,0.25 0.75,0.55 0.2,0.267 0.233,0.483 0.1,0.65 -0.1,0.134 -0.45,0.184 -1.05,0.15 -0.5,-0.034 -0.917,-0.101 -1.25,-0.2 -0.233,-0.1 -0.333,-0.2 -0.3,-0.3 0.033,-0.067 0.167,-0.233 0.4,-0.5 0.333,-0.4 0.783,-0.516 1.35,-0.35 z"
     style="clip-rule:evenodd;fill:url(#SVGID_18_);fill-rule:evenodd"
     inkscape:connector-curvature="0" /><path
     id="path133"
     d="m 17.8,19.4 c 0.1,0.133 0.083,0.233 -0.05,0.3 -0.1,0.1 -0.267,0.149 -0.5,0.149 -0.267,0.034 -0.533,0 -0.8,-0.1 -0.233,-0.1 -0.267,-0.233 -0.1,-0.4 C 16.617,19.15 16.8,19 16.9,18.9 c 0.133,-0.134 0.283,-0.15 0.45,-0.051 0.2,0.134 0.35,0.318 0.45,0.551 z"
     style="clip-rule:evenodd;fill:url(#SVGID_19_);fill-rule:evenodd"
     inkscape:connector-curvature="0" /><path
     id="path140"
     d="m 29.35,16.65 c 0.134,-0.4 0.233,-0.7 0.301,-0.9 0.133,-0.366 0.316,-0.616 0.55,-0.75 0.3,-0.167 0.649,-0.217 1.05,-0.15 0.434,0.067 0.733,0.217 0.9,0.45 0.199,0.334 0.5,0.584 0.899,0.75 0.167,0.066 0.334,0.283 0.5,0.65 0.167,0.333 0.217,0.533 0.15,0.6 -0.1,0.1 -0.384,0.217 -0.85,0.35 -0.466,0.133 -0.866,0.216 -1.199,0.25 -0.467,0.067 -0.818,0.1 -1.051,0.1 -0.366,0.033 -0.649,0 -0.85,-0.1 -0.2,-0.134 -0.333,-0.334 -0.4,-0.601 -0.067,-0.233 -0.067,-0.449 0,-0.649 z"
     style="clip-rule:evenodd;fill:url(#SVGID_20_);fill-rule:evenodd"
     inkscape:connector-curvature="0" /><path
     id="path147"
     d="m 29.9,17.25 c 0.3,0.066 0.6,0.3 0.899,0.7 0.3,0.399 0.351,0.666 0.15,0.8 -0.533,0.333 -1.05,0.5 -1.55,0.5 -0.7,0 -1.184,-0.316 -1.45,-0.95 -0.033,-0.133 0.05,-0.25 0.25,-0.35 0.267,-0.2 0.45,-0.384 0.55,-0.55 0.134,-0.233 0.3,-0.334 0.5,-0.301 0.101,0.001 0.317,0.051 0.651,0.151 z"
     style="clip-rule:evenodd;fill:url(#SVGID_21_);fill-rule:evenodd"
     inkscape:connector-curvature="0" /><path
     id="path154"
     d="m 27.65,19.2 c 0.433,0.233 0.533,0.45 0.3,0.649 -0.233,0.2 -0.533,0.284 -0.9,0.25 -0.4,-0.033 -0.533,-0.233 -0.4,-0.6 0.033,-0.1 0.167,-0.2 0.4,-0.3 0.266,-0.099 0.467,-0.099 0.6,10e-4 z"
     style="clip-rule:evenodd;fill:url(#SVGID_22_);fill-rule:evenodd"
     inkscape:connector-curvature="0" /><path
     id="path161"
     d="m 28.55,16.05 c 0.233,0.566 -0.184,0.851 -1.25,0.851 -0.466,0 -0.5,-0.267 -0.1,-0.801 0.166,-0.233 0.399,-0.366 0.7,-0.399 0.333,-0.034 0.55,0.082 0.65,0.349 z"
     style="clip-rule:evenodd;fill:url(#SVGID_23_);fill-rule:evenodd"
     inkscape:connector-curvature="0" /><path
     id="path168"
     d="m 37.2,14.1 c -0.134,0.267 -0.316,0.517 -0.55,0.75 -0.5,0.467 -1.067,0.634 -1.7,0.5 -0.634,-0.1 -0.8,-0.416 -0.5,-0.949 0.1,-0.233 0.467,-0.684 1.1,-1.351 0.3,-0.333 0.55,-0.383 0.75,-0.149 0.167,0.165 0.467,0.566 0.9,1.199 z"
     style="clip-rule:evenodd;fill:url(#SVGID_24_);fill-rule:evenodd"
     inkscape:connector-curvature="0" /><path
     id="path175"
     d="m 38.45,14.25 c -0.134,0.833 -0.55,1.25 -1.25,1.25 -0.467,0.033 -0.7,-0.1 -0.7,-0.4 0,-0.066 0.066,-0.366 0.2,-0.899 0.1,-0.267 0.3,-0.384 0.6,-0.351 0.134,0.034 0.516,0.167 1.15,0.4 z"
     style="clip-rule:evenodd;fill:url(#SVGID_25_);fill-rule:evenodd"
     inkscape:connector-curvature="0" /><path
     id="path182"
     d="m 41.7,14.75 c 0.1,0.033 0.217,0.167 0.35,0.4 0.167,0.3 0.233,0.533 0.2,0.699 -0.066,0.334 -0.816,0.4 -2.25,0.2 -0.434,-0.033 -0.583,-0.116 -0.45,-0.25 l 0.4,-0.5 c 0.066,-0.267 0.267,-0.483 0.6,-0.649 0.4,-0.167 0.783,-0.133 1.15,0.1 z"
     style="clip-rule:evenodd;fill:url(#SVGID_26_);fill-rule:evenodd"
     inkscape:connector-curvature="0" /><path
     id="path189"
     d="m 37.75,11.45 0.15,-0.2 c 0.133,-0.1 0.333,-0.083 0.6,0.05 0.233,0.134 0.434,0.3 0.6,0.5 0.067,0.101 0.184,0.25 0.351,0.45 0.166,0.134 0.283,0.267 0.35,0.4 0.033,0.133 0.017,0.199 -0.05,0.199 -0.067,0 -0.283,-0.1 -0.65,-0.3 -0.433,-0.2 -0.716,-0.35 -0.85,-0.45 z"
     style="clip-rule:evenodd;fill:url(#SVGID_27_);fill-rule:evenodd"
     inkscape:connector-curvature="0" /><path
     id="path196"
     d="m 38.2,12.85 c 0.467,-0.8 0.95,-1.033 1.45,-0.699 0.333,0.199 0.75,0.55 1.25,1.05 -0.634,0.366 -1.101,0.55 -1.4,0.55 -0.233,0 -0.566,-0.066 -1,-0.2 -0.4,-0.133 -0.634,-0.233 -0.7,-0.3 z"
     style="clip-rule:evenodd;fill:url(#SVGID_28_);fill-rule:evenodd"
     inkscape:connector-curvature="0" /><path
     id="path203"
     d="m 41.45,13 c 0.5,0.467 0.666,0.767 0.5,0.9 -0.134,0.133 -0.7,0.166 -1.7,0.1 -0.3,-0.033 -0.4,-0.134 -0.3,-0.3 0.066,-0.101 0.166,-0.233 0.3,-0.4 0.1,-0.166 0.25,-0.283 0.45,-0.35 0.267,-0.167 0.517,-0.15 0.75,0.05 z"
     style="clip-rule:evenodd;fill:url(#SVGID_29_);fill-rule:evenodd"
     inkscape:connector-curvature="0" /><path
     id="path210"
     d="m 41.55,12.15 c 0.334,-0.567 0.65,-0.801 0.95,-0.7 0.333,0.133 0.667,0.399 1,0.8 -0.434,0.233 -0.816,0.333 -1.15,0.3 -0.199,-0.033 -0.383,-0.1 -0.55,-0.2 z"
     style="clip-rule:evenodd;fill:url(#SVGID_30_);fill-rule:evenodd"
     inkscape:connector-curvature="0" /><path
     id="path217"
     d="m 39.9,10.6 c 0.133,0.1 0.25,0.217 0.35,0.35 0.134,0.166 0.15,0.283 0.05,0.35 -0.233,0.167 -0.55,0.101 -0.95,-0.2 -0.133,-0.066 -0.1,-0.183 0.101,-0.35 0.201,-0.167 0.349,-0.217 0.449,-0.15 z"
     style="clip-rule:evenodd;fill:url(#SVGID_31_);fill-rule:evenodd"
     inkscape:connector-curvature="0" /><path
     id="path224"
     d="m 37.15,16 c 0.733,0.967 0.966,1.55 0.699,1.75 -0.233,0.134 -0.666,0.283 -1.3,0.45 -0.666,0.2 -1.217,0.3 -1.649,0.3 -0.367,-0.033 -0.717,-0.167 -1.051,-0.4 L 33.4,17.7 33.95,16.5 c 0.133,-0.233 0.366,-0.5 0.7,-0.8 0.433,-0.4 0.767,-0.617 1,-0.65 0.233,-0.033 0.5,0.066 0.8,0.3 0.166,0.133 0.4,0.35 0.7,0.65 z"
     style="clip-rule:evenodd;fill:url(#SVGID_32_);fill-rule:evenodd"
     inkscape:connector-curvature="0" /><path
     id="path231"
     d="m 39.4,17.05 c 0.5,0.167 0.7,0.35 0.6,0.55 -0.066,0.167 -0.267,0.284 -0.6,0.351 -0.434,0.033 -0.733,-0.05 -0.9,-0.25 -0.1,-0.101 -0.05,-0.25 0.15,-0.45 0.234,-0.234 0.484,-0.301 0.75,-0.201 z"
     style="clip-rule:evenodd;fill:url(#SVGID_33_);fill-rule:evenodd"
     inkscape:connector-curvature="0" /><path
     id="path233"
     d="m 32.1,10 c 0.267,0.4 0.384,0.667 0.351,0.8 0,0.067 -0.033,0.184 -0.101,0.351 0,0.267 -0.199,0.399 -0.6,0.399 -0.4,0.033 -0.634,-0.184 -0.7,-0.65 C 30.95,10.233 30.984,9.767 31.151,9.5 31.35,9.167 31.667,9.333 32.1,10 Z"
     style="clip-rule:evenodd;fill:#c97700;fill-rule:evenodd"
     inkscape:connector-curvature="0" /><path
     id="path235"
     d="m 34.65,10.35 c 0.633,0.4 0.816,0.833 0.55,1.3 -0.134,0.233 -0.384,0.233 -0.75,0 -0.334,-0.267 -0.5,-0.551 -0.5,-0.851 -0.066,-0.699 0.166,-0.849 0.7,-0.449 z"
     style="clip-rule:evenodd;fill:#c97700;fill-rule:evenodd"
     inkscape:connector-curvature="0" /><path
     id="path237"
     d="m 36.1,11.2 c 0.233,0.267 0.367,0.416 0.4,0.45 0.033,0.066 0,0.149 -0.1,0.25 -0.134,0.199 -0.351,0.149 -0.65,-0.15 -0.167,-0.134 -0.184,-0.3 -0.05,-0.5 0.166,-0.167 0.3,-0.184 0.4,-0.05 z"
     style="clip-rule:evenodd;fill:#c97700;fill-rule:evenodd"
     inkscape:connector-curvature="0" /><path
     id="path239"
     d="m 29.5,6.75 c 0.2,0.2 0.3,0.417 0.3,0.65 0.033,0.3 -0.066,0.517 -0.3,0.65 C 29.266,8.183 29.083,8.1 28.95,7.8 28.849,7.433 28.75,7.15 28.65,6.95 28.516,6.65 28.549,6.467 28.75,6.4 28.95,6.367 29.2,6.483 29.5,6.75 Z"
     style="clip-rule:evenodd;fill:#c97700;fill-rule:evenodd"
     inkscape:connector-curvature="0" /><path
     id="path241"
     d="m 31.3,7.45 c 0.467,0.466 0.601,0.867 0.4,1.2 C 31.5,8.917 31.2,8.7 30.8,8 30.634,7.733 30.616,7.517 30.75,7.35 30.917,7.217 31.1,7.25 31.3,7.45 Z"
     style="clip-rule:evenodd;fill:#c97700;fill-rule:evenodd"
     inkscape:connector-curvature="0" /><path
     id="path243"
     d="m 32.95,11.25 c 0.267,0.267 0.416,0.566 0.45,0.9 0.033,0.333 -0.084,0.517 -0.351,0.55 -0.267,0.033 -0.449,-0.1 -0.549,-0.4 -0.1,-0.267 -0.1,-0.517 0,-0.75 0.2,-0.366 0.35,-0.467 0.45,-0.3 z"
     style="clip-rule:evenodd;fill:#c97700;fill-rule:evenodd"
     inkscape:connector-curvature="0" /><path
     id="path245"
     d="m 25.75,3.75 c 0.2,0.2 0.3,0.433 0.3,0.7 0.034,0.3 -0.083,0.5 -0.35,0.6 C 25.433,5.15 25.217,5 25.05,4.6 24.917,4.3 24.85,3.95 24.85,3.55 c 0,-0.467 0.3,-0.4 0.9,0.2 z"
     style="clip-rule:evenodd;fill:#c97700;fill-rule:evenodd"
     inkscape:connector-curvature="0" /><path
     id="path247"
     d="m 24.3,3.15 c 0.267,0.4 0.267,0.667 0,0.8 -0.1,0.066 -0.216,0 -0.35,-0.2 -0.133,-0.167 -0.2,-0.333 -0.2,-0.5 0,-0.167 0.067,-0.283 0.2,-0.35 0.133,-0.033 0.25,0.05 0.35,0.25 z"
     style="clip-rule:evenodd;fill:#c97700;fill-rule:evenodd"
     inkscape:connector-curvature="0" /><path
     id="path249"
     d="M 28.75,9.25 C 29.184,10.283 29.033,10.9 28.3,11.1 27.967,11.201 27.85,10.65 27.95,9.451 27.983,9.117 28.1,8.933 28.3,8.9 28.5,8.867 28.65,8.983 28.75,9.25 Z"
     style="clip-rule:evenodd;fill:#c97700;fill-rule:evenodd"
     inkscape:connector-curvature="0" /><path
     id="path251"
     d="m 29.9,10.7 c 0.199,0.3 0.25,0.649 0.149,1.05 -0.033,0.134 -0.133,0.167 -0.3,0.1 -0.2,-0.1 -0.35,-0.3 -0.45,-0.6 -0.1,-0.3 -0.05,-0.5 0.15,-0.6 0.235,-0.1 0.384,-0.083 0.451,0.05 z"
     style="clip-rule:evenodd;fill:#c97700;fill-rule:evenodd"
     inkscape:connector-curvature="0" /><path
     id="path253"
     d="m 28.6,13.1 c 0.2,0.267 0.334,0.601 0.4,1 0.1,0.467 0.017,0.75 -0.25,0.851 -0.233,0.1 -0.417,0.083 -0.55,-0.05 -0.1,-0.101 -0.233,-0.368 -0.4,-0.801 -0.133,-0.399 -0.083,-0.733 0.15,-1 0.267,-0.3 0.484,-0.3 0.65,0 z"
     style="clip-rule:evenodd;fill:#c97700;fill-rule:evenodd"
     inkscape:connector-curvature="0" /><path
     id="path255"
     d="m 25.85,13 c 0.1,-0.033 0.233,0.1 0.4,0.4 0.2,0.267 0.283,0.5 0.25,0.699 -0.033,0.334 -0.3,0.45 -0.8,0.351 -0.233,-0.033 -0.317,-0.267 -0.25,-0.7 0.067,-0.434 0.2,-0.684 0.4,-0.75 z"
     style="clip-rule:evenodd;fill:#c97700;fill-rule:evenodd"
     inkscape:connector-curvature="0" /><path
     id="path257"
     d="m 32.6,13.3 c 0.167,0.2 0.267,0.417 0.301,0.65 0.033,0.267 -0.034,0.467 -0.2,0.6 -0.334,0.2 -0.601,-0.05 -0.8,-0.75 -0.067,-0.233 -0.017,-0.434 0.149,-0.6 0.167,-0.134 0.35,-0.1 0.55,0.1 z"
     style="clip-rule:evenodd;fill:#c97700;fill-rule:evenodd"
     inkscape:connector-curvature="0" /><path
     id="path259"
     d="M 33.35,8.9 C 33.417,9.533 33.3,9.917 33,10.05 32.8,10.117 32.667,10.033 32.6,9.8 32.567,9.467 32.517,9.217 32.451,9.05 32.283,8.617 32.583,8.567 33.35,8.9 Z"
     style="clip-rule:evenodd;fill:#c97700;fill-rule:evenodd"
     inkscape:connector-curvature="0" /><path
     id="path261"
     d="m 19.05,3.3 c 0.534,-0.3 0.667,0 0.4,0.9 C 19.383,4.5 19.233,4.7 19,4.8 18.733,4.933 18.433,4.867 18.1,4.6 17.633,4.267 17.95,3.833 19.05,3.3 Z"
     style="clip-rule:evenodd;fill:#ffc633;fill-rule:evenodd"
     inkscape:connector-curvature="0" /><path
     id="path263"
     d="m 17.75,5.3 c 0.2,0 0.317,0.117 0.35,0.35 C 18.133,5.883 18.067,6.067 17.9,6.2 17.667,6.433 17.467,6.35 17.3,5.95 17.133,5.517 17.283,5.3 17.75,5.3 Z"
     style="clip-rule:evenodd;fill:#ffc633;fill-rule:evenodd"
     inkscape:connector-curvature="0" /><path
     id="path265"
     d="M 22.65,3.3 C 22.783,3.767 22.633,4.117 22.2,4.35 21.933,4.517 21.867,4.267 22,3.6 c 0,-0.133 0.083,-0.267 0.25,-0.4 0.2,-0.133 0.333,-0.1 0.4,0.1 z"
     style="clip-rule:evenodd;fill:#ffc633;fill-rule:evenodd"
     inkscape:connector-curvature="0" /><path
     id="path267"
     d="m 20.9,5 c 0.167,-0.067 0.317,-0.133 0.45,-0.2 0.033,0 0.05,0.1 0.05,0.3 0,0.4 -0.15,0.566 -0.45,0.5 C 20.817,5.567 20.75,5.467 20.75,5.3 20.717,5.167 20.767,5.067 20.9,5 Z"
     style="clip-rule:evenodd;fill:#ffc633;fill-rule:evenodd"
     inkscape:connector-curvature="0" /><path
     id="path269"
     d="m 14.4,6.9 c 0.333,-0.1 0.533,-0.05 0.6,0.15 0.067,0.167 0.033,0.4 -0.1,0.7 C 14.7,8.183 14.267,8.267 13.6,8 13.367,7.9 13.4,7.7 13.7,7.4 13.967,7.1 14.2,6.933 14.4,6.9 Z"
     style="clip-rule:evenodd;fill:#ffc633;fill-rule:evenodd"
     inkscape:connector-curvature="0" /><path
     id="path271"
     d="m 16.05,6.6 c 0.4,-0.233 0.567,-0.15 0.5,0.25 -0.033,0.367 -0.167,0.633 -0.4,0.8 -0.3,0.233 -0.566,0.2 -0.8,-0.1 -0.067,-0.1 -0.033,-0.25 0.1,-0.45 0.133,-0.2 0.333,-0.367 0.6,-0.5 z"
     style="clip-rule:evenodd;fill:#ffc633;fill-rule:evenodd"
     inkscape:connector-curvature="0" /><path
     id="path273"
     d="m 11.45,9.75 c 0.233,-0.033 0.367,0.117 0.4,0.45 0.066,0.3 -0.033,0.583 -0.3,0.85 -0.233,0.233 -0.466,0.334 -0.7,0.3 -0.133,0 -0.333,-0.116 -0.6,-0.35 -0.2,-0.167 -0.15,-0.4 0.15,-0.7 0.3,-0.3 0.65,-0.483 1.05,-0.55 z"
     style="clip-rule:evenodd;fill:#ffc633;fill-rule:evenodd"
     inkscape:connector-curvature="0" /><path
     id="path275"
     d="m 12.65,9.4 c 0.267,-0.066 0.434,0 0.5,0.2 0.033,0.167 -0.066,0.367 -0.3,0.6 -0.2,0.2 -0.35,0.3 -0.45,0.3 -0.1,-0.033 -0.183,-0.067 -0.25,-0.1 -0.133,-0.033 -0.133,-0.183 0,-0.45 0.133,-0.3 0.3,-0.483 0.5,-0.55 z"
     style="clip-rule:evenodd;fill:#ffc633;fill-rule:evenodd"
     inkscape:connector-curvature="0" /><path
     id="path277"
     d="m 17.5,9.45 c 0.767,-0.034 0.85,0.45 0.25,1.45 -0.2,0.333 -0.35,0.466 -0.45,0.4 -0.133,-0.2 -0.283,-0.333 -0.45,-0.4 -0.2,-0.1 -0.217,-0.367 -0.05,-0.8 0.167,-0.4 0.4,-0.617 0.7,-0.65 z"
     style="clip-rule:evenodd;fill:#ffc633;fill-rule:evenodd"
     inkscape:connector-curvature="0" /><path
     id="path279"
     d="m 20.2,9.85 c 0.167,-0.033 0.316,0.05 0.45,0.25 0.133,0.2 0.167,0.367 0.1,0.5 -0.033,0.233 -0.317,0.283 -0.85,0.15 -0.233,-0.033 -0.3,-0.183 -0.2,-0.45 0.067,-0.233 0.233,-0.383 0.5,-0.45 z"
     style="clip-rule:evenodd;fill:#ffc633;fill-rule:evenodd"
     inkscape:connector-curvature="0" /><path
     id="path281"
     d="m 20,11.25 c 0.2,0.033 0.317,0.116 0.35,0.25 0.033,0.134 0,0.25 -0.1,0.35 -0.167,0.2 -0.367,0.15 -0.6,-0.149 -0.133,-0.134 -0.15,-0.25 -0.05,-0.351 0.1,-0.133 0.233,-0.166 0.4,-0.1 z"
     style="clip-rule:evenodd;fill:#ffc633;fill-rule:evenodd"
     inkscape:connector-curvature="0" /><path
     id="path283"
     d="m 16.2,12.9 c 0.566,-0.233 0.85,-0.051 0.85,0.55 0.034,0.566 -0.1,0.95 -0.4,1.149 -0.267,0.2 -0.55,0.017 -0.85,-0.55 -0.1,-0.2 -0.1,-0.434 0,-0.7 0.1,-0.233 0.233,-0.382 0.4,-0.449 z"
     style="clip-rule:evenodd;fill:#ffc633;fill-rule:evenodd"
     inkscape:connector-curvature="0" /><path
     id="path285"
     d="m 12.65,11.8 c 0.333,-0.233 0.583,-0.3 0.75,-0.2 0.133,0.067 0.184,0.184 0.15,0.351 -0.066,0.399 -0.3,0.649 -0.7,0.75 -0.233,0.066 -0.367,-0.033 -0.4,-0.3 0,-0.267 0.067,-0.467 0.2,-0.601 z"
     style="clip-rule:evenodd;fill:#ffc633;fill-rule:evenodd"
     inkscape:connector-curvature="0" /><path
     id="path287"
     d="m 22.25,13.7 c 0.733,-0.033 0.767,0.283 0.1,0.95 -0.133,0.1 -0.233,0.133 -0.3,0.1 -0.066,-0.1 -0.133,-0.167 -0.2,-0.2 -0.1,-0.066 -0.1,-0.217 0,-0.45 0.1,-0.233 0.233,-0.367 0.4,-0.4 z"
     style="clip-rule:evenodd;fill:#ffc633;fill-rule:evenodd"
     inkscape:connector-curvature="0" /><path
     id="path289"
     d="m 19.2,15.45 c 0.3,0.066 0.45,0.283 0.45,0.649 0,0.4 -0.15,0.7 -0.45,0.9 -0.267,0.167 -0.434,0.2 -0.5,0.1 -0.034,-0.199 -0.1,-0.383 -0.2,-0.55 -0.133,-0.2 -0.1,-0.45 0.1,-0.75 0.2,-0.266 0.4,-0.382 0.6,-0.349 z"
     style="clip-rule:evenodd;fill:#ffc633;fill-rule:evenodd"
     inkscape:connector-curvature="0" /><path
     id="path291"
     d="m 22.1,17 c 0.1,0.066 0.183,0.184 0.25,0.35 0.066,0.233 0.066,0.434 0,0.601 -0.1,0.166 -0.184,0.217 -0.25,0.149 -0.133,-0.166 -0.267,-0.333 -0.4,-0.5 -0.2,-0.199 -0.217,-0.366 -0.05,-0.5 0.133,-0.166 0.283,-0.2 0.45,-0.1 z"
     style="clip-rule:evenodd;fill:#ffc633;fill-rule:evenodd"
     inkscape:connector-curvature="0" /><path
     id="path293"
     d="m 30.4,15.25 c 0.399,-0.066 0.6,0.134 0.6,0.6 -0.033,0.334 -0.134,0.667 -0.3,1 -0.134,0.2 -0.3,0.2 -0.5,0 -0.2,-0.133 -0.334,-0.3 -0.4,-0.5 -0.1,-0.166 -0.1,-0.366 0,-0.6 0.1,-0.3 0.3,-0.467 0.6,-0.5 z"
     style="clip-rule:evenodd;fill:#ffc633;fill-rule:evenodd"
     inkscape:connector-curvature="0" /><path
     id="path295"
     d="m 3.75,13.05 c 0.2,0.167 0.25,0.3 0.15,0.4 -0.066,0.1 -0.183,0.1 -0.35,0 -0.167,-0.101 -0.183,-0.2 -0.05,-0.3 0.1,-0.133 0.183,-0.167 0.25,-0.1 z"
     style="clip-rule:evenodd;fill:#ffc633;fill-rule:evenodd"
     inkscape:connector-curvature="0" /><path
     id="path297"
     d="M 5.9,11.8 C 6.1,11.734 6.167,11.866 6.1,12.2 6.033,12.533 5.883,12.683 5.65,12.65 5.417,12.616 5.367,12.483 5.5,12.25 5.6,12.05 5.733,11.9 5.9,11.8 Z"
     style="clip-rule:evenodd;fill:#ffc633;fill-rule:evenodd"
     inkscape:connector-curvature="0" /><path
     id="path299"
     d="m 6.85,14.4 c 0.133,0 0.167,0.066 0.1,0.199 C 6.917,14.7 6.8,14.75 6.6,14.75 6.433,14.75 6.4,14.7 6.5,14.6 6.633,14.467 6.75,14.4 6.85,14.4 Z"
     style="clip-rule:evenodd;fill:#ffc633;fill-rule:evenodd"
     inkscape:connector-curvature="0" /><path
     id="path301"
     d="m 12.4,15.4 c 0.1,0.033 0.167,0.116 0.2,0.25 0,0.133 -0.083,0.199 -0.25,0.199 -0.167,0 -0.233,-0.083 -0.2,-0.25 0.067,-0.165 0.15,-0.233 0.25,-0.199 z"
     style="clip-rule:evenodd;fill:#ffc633;fill-rule:evenodd"
     inkscape:connector-curvature="0" /><path
     id="path303"
     d="m 13.95,15.6 c 0.167,0.034 0.283,0.15 0.35,0.351 0.067,0.2 0.034,0.366 -0.1,0.5 -0.1,0.1 -0.217,0.1 -0.35,0 L 13.45,16 c -0.2,-0.267 -0.033,-0.4 0.5,-0.4 z"
     style="clip-rule:evenodd;fill:#ffc633;fill-rule:evenodd"
     inkscape:connector-curvature="0" /><path
     id="path305"
     d="m 29.1,17.75 c 0.134,0 0.217,0.116 0.25,0.35 0.034,0.233 0.017,0.4 -0.05,0.5 -0.033,0.1 -0.133,0.133 -0.3,0.1 -0.2,-0.033 -0.417,-0.15 -0.65,-0.351 -0.233,-0.166 -0.233,-0.316 0,-0.449 0.2,-0.1 0.45,-0.15 0.75,-0.15 z"
     style="clip-rule:evenodd;fill:#ffc633;fill-rule:evenodd"
     inkscape:connector-curvature="0" /><path
     id="path307"
     d="m 34.5,16.3 c 0.167,-0.066 0.35,0.05 0.55,0.351 0.2,0.267 0.283,0.517 0.25,0.75 -0.033,0.233 -0.2,0.366 -0.5,0.399 -0.267,0.066 -0.517,0.05 -0.75,-0.05 -0.2,-0.1 -0.233,-0.333 -0.1,-0.7 0.1,-0.4 0.283,-0.65 0.55,-0.75 z"
     style="clip-rule:evenodd;fill:#ffc633;fill-rule:evenodd"
     inkscape:connector-curvature="0" /><path
     id="path309"
     d="m 35.2,13.85 c 0.267,0 0.35,0.184 0.25,0.551 -0.033,0.199 -0.167,0.316 -0.4,0.35 -0.166,0 -0.3,-0.05 -0.399,-0.15 -0.067,-0.1 -0.017,-0.25 0.149,-0.449 0.134,-0.202 0.266,-0.302 0.4,-0.302 z"
     style="clip-rule:evenodd;fill:#ffc633;fill-rule:evenodd"
     inkscape:connector-curvature="0" /><path
     id="path311"
     d="m 36.95,14.25 c 0.1,-0.033 0.2,0 0.3,0.1 0.066,0.101 0.1,0.217 0.1,0.351 0,0.3 -0.199,0.416 -0.6,0.35 -0.167,-0.033 -0.217,-0.166 -0.15,-0.399 0.067,-0.202 0.183,-0.336 0.35,-0.402 z"
     style="clip-rule:evenodd;fill:#ffc633;fill-rule:evenodd"
     inkscape:connector-curvature="0" /><path
     id="path313"
     d="m 40.65,15.3 c 0.033,0.167 0.017,0.283 -0.051,0.351 -0.1,0.133 -0.3,0.149 -0.6,0.05 0,-0.101 0.017,-0.2 0.05,-0.3 0.033,-0.167 0.134,-0.267 0.3,-0.301 0.134,-0.034 0.234,0.034 0.301,0.2 z"
     style="clip-rule:evenodd;fill:#ffc633;fill-rule:evenodd"
     inkscape:connector-curvature="0" /><path
     id="path315"
     d="m 40.6,13.25 c 0.134,-0.033 0.217,0.017 0.25,0.15 0.034,0.1 0,0.199 -0.1,0.3 -0.1,0.133 -0.283,0.149 -0.55,0.05 -0.101,-0.033 -0.084,-0.116 0.05,-0.25 0.134,-0.134 0.25,-0.217 0.35,-0.25 z"
     style="clip-rule:evenodd;fill:#ffc633;fill-rule:evenodd"
     inkscape:connector-curvature="0" /><path
     id="path317"
     d="m 38.7,12.5 c 0.133,-0.1 0.233,0 0.3,0.3 0.1,0.3 0.1,0.5 0,0.601 -0.066,0.1 -0.15,0.083 -0.25,-0.051 -0.1,-0.133 -0.184,-0.233 -0.25,-0.3 -0.167,-0.166 -0.1,-0.35 0.2,-0.55 z"
     style="clip-rule:evenodd;fill:#ffc633;fill-rule:evenodd"
     inkscape:connector-curvature="0" /><path
     id="path319"
     d="m 38.5,11.55 c 0.134,0.334 0.134,0.483 0,0.45 -0.167,-0.033 -0.283,-0.15 -0.35,-0.35 -0.034,-0.134 0,-0.2 0.1,-0.2 0.134,-0.033 0.217,0 0.25,0.1 z"
     style="clip-rule:evenodd;fill:#ffc633;fill-rule:evenodd"
     inkscape:connector-curvature="0" /><path
     id="path321"
     d="m 42.15,11.6 c 0.166,0.167 0.233,0.384 0.199,0.65 -0.033,0.134 -0.183,0.116 -0.449,-0.05 -0.134,-0.101 -0.15,-0.25 -0.051,-0.45 0.101,-0.167 0.201,-0.217 0.301,-0.15 z"
     style="clip-rule:evenodd;fill:#ffc633;fill-rule:evenodd"
     inkscape:connector-curvature="0" /><path
     id="path323"
     d="m 17.85,18.15 c 0.233,0 0.367,0.017 0.4,0.05 0.033,0.033 0.067,0.133 0.1,0.3 0.066,0.167 0.083,0.267 0.05,0.3 -0.066,0.033 -0.283,0 -0.65,-0.1 -0.333,-0.101 -0.433,-0.217 -0.3,-0.351 0.1,-0.132 0.233,-0.199 0.4,-0.199 z"
     style="clip-rule:evenodd;fill:#ffc633;fill-rule:evenodd"
     inkscape:connector-curvature="0" /><path
     id="path325"
     d="m 16.95,19.05 c 0.2,0.033 0.233,0.117 0.1,0.25 -0.133,0.134 -0.283,0.15 -0.45,0.05 -0.167,-0.066 -0.184,-0.133 -0.05,-0.199 0.1,-0.101 0.233,-0.134 0.4,-0.101 z"
     style="clip-rule:evenodd;fill:#ffc633;fill-rule:evenodd"
     inkscape:connector-curvature="0" /></g>
</svg>