<?xml version="1.0" encoding="UTF-8" standalone="no"?>
<!-- Generator: Adobe Illustrator 15.1.0, SVG Export Plug-In . SVG Version: 6.00 Build 0)  -->

<svg
   xmlns:dc="http://purl.org/dc/elements/1.1/"
   xmlns:cc="http://creativecommons.org/ns#"
   xmlns:rdf="http://www.w3.org/1999/02/22-rdf-syntax-ns#"
   xmlns:svg="http://www.w3.org/2000/svg"
   xmlns="http://www.w3.org/2000/svg"
   xmlns:xlink="http://www.w3.org/1999/xlink"
   xmlns:sodipodi="http://sodipodi.sourceforge.net/DTD/sodipodi-0.dtd"
   xmlns:inkscape="http://www.inkscape.org/namespaces/inkscape"
   version="1.1"
   id="flash0.ai"
   x="0px"
   y="0px"
   width="256"
   height="256"
   viewBox="0 0 255.99999 255.99999"
   xml:space="preserve"
   sodipodi:docname="banana.svg"
   inkscape:version="0.92.4 (5da689c313, 2019-01-14)"><title
   id="title1004">Banana</title><metadata
   id="metadata197"><rdf:RDF><cc:Work
       rdf:about=""><dc:format>image/svg+xml</dc:format><dc:type
         rdf:resource="http://purl.org/dc/dcmitype/StillImage" /><dc:title>Banana</dc:title><cc:license
         rdf:resource="http://creativecommons.org/publicdomain/zero/1.0/" /><dc:creator><cc:Agent><dc:title>Glitch</dc:title></cc:Agent></dc:creator><dc:source>https://opengameart.org/node/20149</dc:source></cc:Work><cc:License
       rdf:about="http://creativecommons.org/publicdomain/zero/1.0/"><cc:permits
         rdf:resource="http://creativecommons.org/ns#Reproduction" /><cc:permits
         rdf:resource="http://creativecommons.org/ns#Distribution" /><cc:permits
         rdf:resource="http://creativecommons.org/ns#DerivativeWorks" /></cc:License></rdf:RDF></metadata><defs
   id="defs195">
	
	
		<radialGradient
   gradientUnits="userSpaceOnUse"
   gradientTransform="matrix(0.4857,-0.5041,-0.5671,-0.4336,63.2233,100.3724)"
   r="31.277201"
   cy="44.883801"
   cx="2.9741001"
   id="SVGID_1_">
		<stop
   id="stop68"
   style="stop-color:#F4DA42"
   offset="0" />
		<stop
   id="stop70"
   style="stop-color:#F4D837"
   offset="0.4784" />
		<stop
   id="stop72"
   style="stop-color:#F1D736"
   offset="0.6039" />
		<stop
   id="stop74"
   style="stop-color:#E7D431"
   offset="0.698" />
		<stop
   id="stop76"
   style="stop-color:#D7CF29"
   offset="0.7843" />
		<stop
   id="stop78"
   style="stop-color:#BFC71E"
   offset="0.8667" />
		<stop
   id="stop80"
   style="stop-color:#A1BE10"
   offset="0.9412" />
		<stop
   id="stop82"
   style="stop-color:#86B503"
   offset="1" />
	</radialGradient>
	
	
		
	
		
	
		
	
	
		
	
	
		<radialGradient
   gradientUnits="userSpaceOnUse"
   gradientTransform="matrix(-0.4645,-0.5237,0.5395,-0.4475,12.6518,61.6986)"
   r="29.875601"
   cy="-4.4672999"
   cx="-40.296902"
   id="SVGID_2_">
		<stop
   id="stop99"
   style="stop-color:#F4DA42"
   offset="0" />
		<stop
   id="stop101"
   style="stop-color:#F4D837"
   offset="0.4784" />
		<stop
   id="stop103"
   style="stop-color:#F1D736"
   offset="0.6039" />
		<stop
   id="stop105"
   style="stop-color:#E7D431"
   offset="0.698" />
		<stop
   id="stop107"
   style="stop-color:#D7CF29"
   offset="0.7843" />
		<stop
   id="stop109"
   style="stop-color:#BFC71E"
   offset="0.8667" />
		<stop
   id="stop111"
   style="stop-color:#A1BE10"
   offset="0.9412" />
		<stop
   id="stop113"
   style="stop-color:#86B503"
   offset="1" />
	</radialGradient>
	
	
		
	
		
	
		
	
	
		
	
	
		<radialGradient
   gradientUnits="userSpaceOnUse"
   gradientTransform="matrix(0.7,0,0,0.7,12.6499,61.7002)"
   r="31.1537"
   cy="33.799801"
   cx="58.900398"
   id="SVGID_3_">
		<stop
   id="stop130"
   style="stop-color:#F4DA42"
   offset="0" />
		<stop
   id="stop132"
   style="stop-color:#F4D837"
   offset="0.4784" />
		<stop
   id="stop134"
   style="stop-color:#F1D736"
   offset="0.6039" />
		<stop
   id="stop136"
   style="stop-color:#E7D431"
   offset="0.698" />
		<stop
   id="stop138"
   style="stop-color:#D7CF29"
   offset="0.7843" />
		<stop
   id="stop140"
   style="stop-color:#BFC71E"
   offset="0.8667" />
		<stop
   id="stop142"
   style="stop-color:#A1BE10"
   offset="0.9412" />
		<stop
   id="stop144"
   style="stop-color:#86B503"
   offset="1" />
	</radialGradient>
	
	
		
	
		
	
		
	
	
		
	
	
		<radialGradient
   gradientUnits="userSpaceOnUse"
   gradientTransform="matrix(0.4864,-0.5034,-0.5034,-0.4864,74.3725,121.3266)"
   r="38.392799"
   cy="61.299801"
   cx="-0.917"
   id="SVGID_4_">
		<stop
   id="stop161"
   style="stop-color:#F4DA42"
   offset="0" />
		<stop
   id="stop163"
   style="stop-color:#F4D837"
   offset="0.4784" />
		<stop
   id="stop165"
   style="stop-color:#F1D736"
   offset="0.6039" />
		<stop
   id="stop167"
   style="stop-color:#E7D431"
   offset="0.698" />
		<stop
   id="stop169"
   style="stop-color:#D7CF29"
   offset="0.7843" />
		<stop
   id="stop171"
   style="stop-color:#BFC71E"
   offset="0.8667" />
		<stop
   id="stop173"
   style="stop-color:#A1BE10"
   offset="0.9412" />
		<stop
   id="stop175"
   style="stop-color:#86B503"
   offset="1" />
	</radialGradient>
	
	
		
	
		
	
		
	
	
		
</defs><sodipodi:namedview
   pagecolor="#ffffff"
   bordercolor="#666666"
   borderopacity="1"
   objecttolerance="10"
   gridtolerance="10"
   guidetolerance="10"
   inkscape:pageopacity="0"
   inkscape:pageshadow="2"
   inkscape:window-width="1920"
   inkscape:window-height="1025"
   id="namedview193"
   showgrid="false"
   inkscape:zoom="0.90155157"
   inkscape:cx="113.50701"
   inkscape:cy="-153.72805"
   inkscape:window-x="-8"
   inkscape:window-y="-8"
   inkscape:window-maximized="1"
   inkscape:current-layer="flash0.ai"
   inkscape:pagecheckerboard="false"
   fit-margin-top="0"
   fit-margin-left="0"
   fit-margin-right="0"
   fit-margin-bottom="0" />








<symbol
   id="flash0.ai_x2F_Layer_17_x2F__x3C_Path_x3E__x5F_21"
   viewBox="0.299 -6 34.523 6.013"
   transform="translate(88.79742,120.52411)">
	<g
   id="Layer_1_5_">
		<path
   style="clip-rule:evenodd;fill:#ffffff;fill-rule:evenodd"
   d="M 18.65,-6 C 12.35,-5.967 7.2,-4.867 3.2,-2.7 1.233,-1.633 0.267,-0.767 0.3,-0.1 1.333,-1 2.767,-1.85 4.6,-2.65 c 3.633,-1.633 7.8,-2.483 12.5,-2.55 3.6,-0.066 6.45,0.233 8.55,0.9 1.5,0.466 3.467,1.466 5.9,3 2,1.267 3.083,1.617 3.25,1.05 0.167,-0.567 -0.617,-1.367 -2.35,-2.4 C 28.817,-4.883 24.217,-6 18.65,-6 Z"
   id="path34"
   inkscape:connector-curvature="0" />
	</g>
</symbol>
<symbol
   id="flash0.ai_x2F_Layer_17_x2F__x3C_Path_x3E__x5F_23"
   viewBox="0 -24.678 50.1 24.678"
   transform="translate(88.79742,120.52411)">
	<g
   id="Layer_1_4_">
		<path
   style="clip-rule:evenodd;fill:#42210b;fill-rule:evenodd"
   d="m 50.1,0 c -0.2,-0.7 -0.4,-1.233 -0.6,-1.6 -0.567,-0.6 -1.05,-1.167 -1.45,-1.7 -0.833,-1 -1.216,-1.85 -1.15,-2.55 0.033,-0.6 0.317,-1.8 0.85,-3.6 0.3,-1.9 -0.05,-3.75 -1.05,-5.55 -3.367,-5.9 -10.167,-9.1 -20.4,-9.6 -6.133,-0.333 -11.167,0.4 -15.1,2.2 -3.067,1.367 -6.617,4.05 -10.65,8.05 L 0,-13.75 c 6.3,-6.3 13.033,-9.617 20.2,-9.95 6.633,-0.3 12.2,0.517 16.7,2.45 3.4,1.467 5.934,3.417 7.6,5.85 0.967,1.4 1.383,3.233 1.25,5.5 -0.133,2.367 0.033,3.983 0.5,4.85 0.3,0.5 0.533,1.15 0.7,1.95 0.167,0.867 0.3,1.4 0.4,1.6 0.767,-0.067 1.316,0.033 1.65,0.3 0.533,0.367 0.9,0.767 1.1,1.2 z"
   id="path38"
   inkscape:connector-curvature="0" />
	</g>
</symbol>
<symbol
   id="flash0.ai_x2F_Layer_17_x2F__x3C_Path_x3E__x5F_24"
   viewBox="0 -18.692 45.8 18.692"
   transform="translate(88.79742,120.52411)">
	<g
   id="Layer_1_3_">
		<path
   style="clip-rule:evenodd;fill:#ffffff;fill-rule:evenodd"
   d="M 43,-0.8 43.05,0 43.9,-0.7 c 0.667,-0.5 1.2,-0.733 1.6,-0.7 h 0.3 c -0.833,-2.133 -1.55,-4.583 -2.15,-7.35 -0.667,-3.167 -3.467,-5.733 -8.4,-7.7 -5,-2.033 -10.417,-2.683 -16.25,-1.95 -5.067,0.633 -9.4,2.2 -13,4.7 -2.1,1.467 -3.8,3.15 -5.1,5.05 L 0,-7.1 1,-6.2 c 0.3,-0.033 1.033,-0.233 2.2,-0.6 1.466,-0.4 2.55,-0.75 3.25,-1.05 0.566,-0.267 2.533,-1.3 5.9,-3.1 3.8,-1.667 7.417,-2.483 10.85,-2.45 3.933,0 7.367,0.566 10.3,1.7 2.633,1.034 4.717,2.467 6.25,4.3 2.067,2.433 3.15,4.633 3.25,6.6 z"
   id="path42"
   inkscape:connector-curvature="0" />
	</g>
</symbol>
<symbol
   id="flash0.ai_x2F_Layer_17_x2F__x3C_Path_x3E__x5F_25"
   viewBox="0.05 -24.678 51.15 24.678"
   transform="translate(88.79742,120.52411)">
	<g
   id="Layer_1_2_">
		<path
   style="clip-rule:evenodd;fill-rule:evenodd"
   d="m 50.6,-1.6 c -0.567,-0.6 -1.05,-1.167 -1.45,-1.7 -0.833,-1 -1.217,-1.85 -1.15,-2.55 0.033,-0.6 0.317,-1.8 0.85,-3.6 0.3,-1.9 -0.05,-3.75 -1.05,-5.55 -3.367,-5.9 -10.167,-9.1 -20.4,-9.6 -6.133,-0.333 -11.167,0.4 -15.1,2.2 -3.066,1.367 -6.617,4.05 -10.65,8.05 -0.967,0.967 -1.5,2.233 -1.6,3.8 l 0.15,2.1 c 0.633,0.667 0.983,1.167 1.05,1.5 0,0.133 0.117,0.267 0.35,0.4 0.433,-0.933 0.817,-1.65 1.15,-2.15 1.3,-1.9 3,-3.583 5.1,-5.05 3.6,-2.5 7.933,-4.067 13,-4.7 5.833,-0.733 11.25,-0.083 16.25,1.95 4.933,1.967 7.733,4.533 8.4,7.7 0.6,2.767 1.317,5.216 2.15,7.35 0.3,-0.033 0.733,-0.066 1.3,-0.1 0.467,0.033 0.85,0.15 1.15,0.35 0.533,0.367 0.9,0.767 1.1,1.2 -0.2,-0.7 -0.4,-1.233 -0.6,-1.6 z"
   id="path46"
   inkscape:connector-curvature="0" />
	</g>
</symbol>





<g
   id="g1022"
   transform="matrix(7.1438835,0,0,7.1438835,-152.05738,-377.54679)"><path
     style="clip-rule:evenodd;fill:#7a601e;fill-rule:evenodd"
     d="m 56.96,63.135 c -0.934,0.49 -1.622,1.063 -2.065,1.716 -0.279,0.396 -0.852,1.073 -1.715,2.029 l -1.225,1.295 c 0.84,-2.029 1.236,-3.383 1.189,-4.06 -0.047,-0.653 -0.198,-1.167 -0.455,-1.54 l 0.42,-0.07 c 0.351,-0.07 0.688,-0.175 1.016,-0.314 l 0.805,-0.315 0.176,0.07 c 0.163,0.023 0.35,-0.035 0.56,-0.175 0.187,-0.117 0.35,-0.07 0.49,0.14 0.21,0.373 0.326,0.571 0.35,0.595 0.232,0.185 0.384,0.396 0.454,0.629 z"
     id="path66"
     inkscape:connector-curvature="0" /><path
     style="clip-rule:evenodd;fill:url(#SVGID_1_);fill-rule:evenodd"
     d="m 55.665,64.851 c -0.584,0.699 -0.852,1.295 -0.806,1.784 0.023,0.42 0.222,1.261 0.596,2.521 0.21,1.33 -0.035,2.625 -0.735,3.885 -2.356,4.13 -7.116,6.37 -14.28,6.72 -4.293,0.233 -7.817,-0.279 -10.57,-1.54 -2.147,-0.956 -4.632,-2.835 -7.455,-5.635 -0.677,-0.677 -1.05,-1.563 -1.12,-2.66 l 0.105,-1.47 c 0.443,-0.467 0.688,-0.816 0.735,-1.05 0.023,-0.163 0.222,-0.292 0.595,-0.385 0.187,-0.047 0.361,-0.082 0.525,-0.105 l 1.47,0.385 c 1.073,0.304 1.855,0.561 2.345,0.771 0.396,0.187 1.773,0.91 4.13,2.17 2.66,1.167 5.191,1.738 7.595,1.715 2.753,0 5.156,-0.396 7.21,-1.189 1.843,-0.724 3.301,-1.728 4.375,-3.011 1.446,-1.703 2.205,-3.243 2.275,-4.62 l 0.034,-0.56 0.595,0.49 c 0.468,0.35 0.841,0.513 1.121,0.489 0.21,0 0.548,0.012 1.015,0.035 0.396,0.023 0.699,-0.046 0.91,-0.21 0.373,-0.257 0.63,-0.536 0.77,-0.84 -0.14,0.49 -0.28,0.863 -0.42,1.12 -0.397,0.419 -0.736,0.816 -1.015,1.19 z"
     id="path85"
     inkscape:connector-curvature="0" /><path
     style="clip-rule:evenodd;fill:#82633b;fill-rule:evenodd"
     d="m 22.73,67.021 c 0.187,-0.047 0.361,-0.082 0.525,-0.105 l 0.42,0.105 c -0.023,0.046 -0.105,0.128 -0.245,0.245 -0.163,0.14 -0.268,0.257 -0.314,0.35 -0.14,0.304 -0.152,0.548 -0.036,0.735 -0.327,-0.023 -0.7,-0.023 -1.12,0 -0.163,0 -0.362,0.047 -0.595,0.14 L 21.4,68.456 c 0.443,-0.467 0.688,-0.816 0.735,-1.05 0.023,-0.164 0.221,-0.293 0.595,-0.385 z"
     id="path93"
     inkscape:connector-curvature="0" /><use
     xlink:href="#flash0.ai_x2F_Layer_17_x2F__x3C_Path_x3E__x5F_23"
     width="50.099998"
     height="24.677999"
     y="-24.677999"
     transform="matrix(0.7,0,0,-0.7,-40.108394,146.91668)"
     style="overflow:visible;opacity:0.28130002;enable-background:new"
     id="use91"
     x="0" /><use
     xlink:href="#flash0.ai_x2F_Layer_17_x2F__x3C_Path_x3E__x5F_25"
     width="51.150002"
     height="24.677999"
     x="0.050000001"
     y="-24.677999"
     transform="matrix(0.7,0,0,-0.7,-40.908194,146.91668)"
     style="overflow:visible;opacity:0.14059999;enable-background:new"
     id="use87" /><use
     xlink:href="#flash0.ai_x2F_Layer_17_x2F__x3C_Path_x3E__x5F_24"
     width="45.799999"
     height="18.691999"
     y="-18.691999"
     transform="matrix(0.7,0,0,-0.7,-39.608394,146.91668)"
     style="overflow:visible;opacity:0.19140003;enable-background:new"
     id="use89"
     x="0" /><use
     xlink:href="#flash0.ai_x2F_Layer_17_x2F__x3C_Path_x3E__x5F_21"
     width="34.522999"
     height="6.013"
     x="0.29899999"
     y="-6"
     transform="matrix(0.7,0,0,-0.7,-36.008294,155.81708)"
     style="overflow:visible;opacity:0.46090004;enable-background:new"
     id="use95" /></g></svg>