<?xml version="1.0" encoding="UTF-8" standalone="no"?>
<!-- Generator: Adobe Illustrator 15.1.0, SVG Export Plug-In . SVG Version: 6.00 Build 0)  -->

<svg
   xmlns:dc="http://purl.org/dc/elements/1.1/"
   xmlns:cc="http://creativecommons.org/ns#"
   xmlns:rdf="http://www.w3.org/1999/02/22-rdf-syntax-ns#"
   xmlns:svg="http://www.w3.org/2000/svg"
   xmlns="http://www.w3.org/2000/svg"
   xmlns:xlink="http://www.w3.org/1999/xlink"
   xmlns:sodipodi="http://sodipodi.sourceforge.net/DTD/sodipodi-0.dtd"
   xmlns:inkscape="http://www.inkscape.org/namespaces/inkscape"
   version="1.1"
   x="0px"
   y="0px"
   width="256"
   height="256"
   viewBox="0 0 255.99999 256"
   xml:space="preserve"
   id="svg44"
   sodipodi:docname="bean.svg"
   inkscape:version="0.92.4 (5da689c313, 2019-01-14)"
   inkscape:export-filename="C:\Users\antum\Development\game-resources\icon\CC0\food\individual\Glitch\32x32\bean.png"
   inkscape:export-xdpi="10.5"
   inkscape:export-ydpi="10.5"><title
   id="title896">Bean</title><metadata
   id="metadata50"><rdf:RDF><cc:Work
       rdf:about=""><dc:format>image/svg+xml</dc:format><dc:type
         rdf:resource="http://purl.org/dc/dcmitype/StillImage" /><dc:title>Bean</dc:title><cc:license
         rdf:resource="http://creativecommons.org/publicdomain/zero/1.0/" /><dc:creator><cc:Agent><dc:title>Glitch</dc:title></cc:Agent></dc:creator><dc:source>https://opengameart.org/node/20149</dc:source></cc:Work><cc:License
       rdf:about="http://creativecommons.org/publicdomain/zero/1.0/"><cc:permits
         rdf:resource="http://creativecommons.org/ns#Reproduction" /><cc:permits
         rdf:resource="http://creativecommons.org/ns#Distribution" /><cc:permits
         rdf:resource="http://creativecommons.org/ns#DerivativeWorks" /></cc:License></rdf:RDF></metadata><defs
   id="defs48">

	
	
</defs><sodipodi:namedview
   pagecolor="#ffffff"
   bordercolor="#666666"
   borderopacity="1"
   objecttolerance="10"
   gridtolerance="10"
   guidetolerance="10"
   inkscape:pageopacity="0"
   inkscape:pageshadow="2"
   inkscape:window-width="1920"
   inkscape:window-height="1025"
   id="namedview46"
   showgrid="false"
   fit-margin-top="0"
   fit-margin-left="0"
   fit-margin-right="0"
   fit-margin-bottom="0"
   inkscape:zoom="0.85011184"
   inkscape:cx="-136.56857"
   inkscape:cy="-139.25478"
   inkscape:window-x="-8"
   inkscape:window-y="-8"
   inkscape:window-maximized="1"
   inkscape:current-layer="svg44" />
<symbol
   id="flash0.ai_x5F_4_x2F_Layer_39_x2F__x3C_Path_x3E__x5F_4"
   viewBox="-0.028 -7.25 10.629 7.258"
   transform="translate(96.726339,170.57521)">
	<g
   id="Layer_1_5_">
		<path
   style="clip-rule:evenodd;fill:#ffffff;fill-rule:evenodd"
   d="M 1.05,-6.65 C 0.217,-6.183 -0.133,-5.633 0,-5 c 0.1,0.4 0.583,0.667 1.45,0.8 0.5,0.067 1.466,0.217 2.9,0.45 0.967,0.2 1.7,0.65 2.2,1.35 C 6.817,-2 7.1,-1.433 7.4,-0.7 7.667,-0.267 8.05,-0.033 8.55,0 9.183,0.067 9.7,-0.283 10.1,-1.05 10.733,-2.217 10.767,-3.334 10.2,-4.4 9.467,-5.767 7.8,-6.667 5.2,-7.1 3.467,-7.4 2.083,-7.25 1.05,-6.65 Z"
   id="path2"
   inkscape:connector-curvature="0" />
	</g>
</symbol>
<symbol
   id="flash0.ai_x5F_4_x2F_Layer_39_x2F__x3C_Path_x3E__x5F_5"
   viewBox="-0.01 -5.356 6.593 5.358"
   transform="translate(96.726339,170.57521)">
	<g
   id="Layer_1_4_">
		<path
   style="clip-rule:evenodd;fill:#ffffff;fill-rule:evenodd"
   d="M 3.1,-1.6 C 3.2,-2.067 3.683,-2.45 4.55,-2.75 5.517,-3.117 6.133,-3.483 6.4,-3.85 6.834,-4.483 6.5,-4.933 5.4,-5.2 4.233,-5.5 3.083,-5.367 1.95,-4.8 0.883,-4.3 0.25,-3.567 0.05,-2.6 -0.117,-1.767 0.067,-1.033 0.6,-0.4 1,0.033 1.483,0.117 2.05,-0.15 2.617,-0.45 2.967,-0.933 3.1,-1.6 Z"
   id="path6"
   inkscape:connector-curvature="0" />
	</g>
</symbol>
<symbol
   id="flash0.ai_x5F_4_x2F_Layer_39_x2F__x3C_Path_x3E__x5F_6"
   viewBox="0 -15.87 26.968 15.845"
   transform="translate(96.726339,170.57521)">
	<g
   id="Layer_1_3_">
		<path
   style="clip-rule:evenodd;fill-rule:evenodd"
   d="m 21.55,-0.1 c 2.167,-0.467 3.717,-1.533 4.65,-3.2 0.867,-1.567 1,-3.3 0.4,-5.2 -1.467,-4.667 -5.417,-7.117 -11.85,-7.35 -4.633,-0.167 -8.3,0.733 -11,2.7 -2.2,1.6 -3.45,3.6 -3.75,6 0.567,-1.5 1.7,-2.95 3.4,-4.35 2.133,-1.767 4.467,-2.767 7,-3 4.1,-0.4 7.5,0.017 10.2,1.25 2.566,1.167 4.167,2.85 4.8,5.05 1.16,4.174 -0.315,6.899 -4.425,8.175 z"
   id="path10"
   inkscape:connector-curvature="0" />
	</g>
</symbol>
<symbol
   id="flash0.ai_x5F_4_x2F_Layer_39_x2F__x3C_Path_x3E__x5F_7"
   viewBox="-0.002 -15.871 27.02 15.861"
   transform="translate(96.726339,170.57521)">
	<g
   id="Layer_1_2_">
		<path
   style="clip-rule:evenodd;fill-rule:evenodd"
   d="m 21.6,-0.1 c 2.167,-0.467 3.717,-1.533 4.65,-3.2 0.867,-1.567 1,-3.3 0.4,-5.2 -1.467,-4.667 -5.417,-7.117 -11.85,-7.35 -6.466,-0.233 -10.933,1.5 -13.4,5.2 -0.933,1.4 -1.4,2.867 -1.4,4.4 -0.033,1.433 0.333,2.5 1.1,3.2 -0.533,-0.867 -0.633,-1.967 -0.3,-3.3 0.367,-1.433 1.15,-2.717 2.35,-3.85 1.833,-1.767 4.7,-2.683 8.6,-2.75 3.833,-0.066 6.783,0.684 8.85,2.25 2.133,1.6 2.867,3.767 2.2,6.5 -0.7,2.733 -2.367,3.7 -5,2.9 l -0.4,-0.15 c 1.367,1.2 2.767,1.65 4.2,1.35 z"
   id="path14"
   inkscape:connector-curvature="0" />
	</g>
</symbol>

<g
   id="g41"
   transform="matrix(14.562329,0,0,14.562329,-29.788681,-41.136394)">
		<path
   inkscape:connector-curvature="0"
   id="path23"
   d="m 19.126,8.597 c 0.563,1.02 0.65,2.146 0.26,3.383 -0.954,3.036 -3.524,4.629 -7.709,4.781 C 7.362,16.912 4.424,15.741 2.863,13.248 2.278,12.294 2.007,11.318 2.05,10.321 2.093,9.388 2.386,8.716 2.928,8.304 3.708,7.74 4.489,7.502 5.27,7.588 6.137,7.654 6.939,8.12 7.677,8.987 8.11,9.464 8.739,9.746 9.563,9.833 10.409,9.898 11.06,9.713 11.515,9.28 11.862,8.977 12.469,8.337 13.337,7.361 14.226,6.602 15.148,6.32 16.102,6.515 c 1.408,0.304 2.417,0.998 3.024,2.082 z"
   style="clip-rule:evenodd;fill:#75ad45;fill-rule:evenodd" />
		
			<use
   id="use25"
   style="overflow:visible;opacity:0.14839998;enable-background:new"
   transform="matrix(0.6505,0,0,-0.6505,-60.870683,117.40937)"
   y="-15.871"
   x="-0.0020000001"
   height="15.861"
   width="27.02"
   xlink:href="#flash0.ai_x5F_4_x2F_Layer_39_x2F__x3C_Path_x3E__x5F_7" />
		
			<use
   x="0"
   id="use27"
   style="overflow:visible;opacity:0.19140003;enable-background:new"
   transform="matrix(0.6505,0,0,-0.6505,-60.870683,117.40937)"
   y="-15.87"
   height="15.845"
   width="26.968"
   xlink:href="#flash0.ai_x5F_4_x2F_Layer_39_x2F__x3C_Path_x3E__x5F_6" />
		
			<use
   id="use29"
   style="overflow:visible;opacity:0.19920002;enable-background:new"
   transform="matrix(0.6505,0,0,-0.6505,-59.920483,119.50897)"
   y="-5.3559999"
   x="-0.0099999998"
   height="5.3579998"
   width="6.5929999"
   xlink:href="#flash0.ai_x5F_4_x2F_Layer_39_x2F__x3C_Path_x3E__x5F_5" />
		
			<use
   id="use31"
   style="overflow:visible;opacity:0.19920002;enable-background:new"
   transform="matrix(0.6505,0,0,-0.6505,-54.120683,119.35907)"
   y="-7.25"
   x="-0.028000001"
   height="7.2579999"
   width="10.629"
   xlink:href="#flash0.ai_x5F_4_x2F_Layer_39_x2F__x3C_Path_x3E__x5F_4" />
		<path
   inkscape:connector-curvature="0"
   id="path33"
   d="m 13.792,9.052 c 0.477,-0.108 0.672,0.098 0.585,0.618 -0.108,0.542 -0.585,1.019 -1.431,1.431 -0.629,0.282 -1.225,0.401 -1.789,0.357 -0.737,-0.043 -0.759,-0.108 -0.065,-0.195 0.933,-0.108 1.561,-0.477 1.887,-1.105 0.347,-0.694 0.617,-1.062 0.813,-1.106 z"
   style="clip-rule:evenodd;fill:#ffffff;fill-rule:evenodd" />
		<path
   inkscape:connector-curvature="0"
   id="path35"
   d="M 4.457,9.215 C 4.565,9.627 4.673,9.92 4.782,10.093 4.933,10.288 4.868,10.322 4.587,10.191 4.327,10.061 4.143,9.877 4.034,9.638 3.947,9.421 3.98,9.258 4.131,9.15 4.283,9.042 4.392,9.063 4.457,9.215 Z"
   style="clip-rule:evenodd;fill:#ffffff;fill-rule:evenodd" />
		<path
   inkscape:connector-curvature="0"
   id="path37"
   d="m 5.4,10.483 c 0.412,0.238 0.585,0.391 0.521,0.455 C 5.856,11.025 5.715,11.014 5.498,10.906 5.346,10.841 5.248,10.732 5.206,10.581 5.183,10.429 5.248,10.396 5.4,10.483 Z"
   style="clip-rule:evenodd;fill:#ffffff;fill-rule:evenodd" />
		<path
   inkscape:connector-curvature="0"
   id="path39"
   d="m 9.921,11.395 c 0.217,0.043 0.336,0.108 0.358,0.194 0,0.087 -0.108,0.142 -0.325,0.163 C 9.737,11.795 9.629,11.731 9.629,11.557 9.628,11.405 9.726,11.351 9.921,11.395 Z"
   style="clip-rule:evenodd;fill:#ffffff;fill-rule:evenodd" />
	</g>
</svg>