<?xml version="1.0" encoding="UTF-8" standalone="no"?>
<!-- Generator: Adobe Illustrator 15.1.0, SVG Export Plug-In . SVG Version: 6.00 Build 0)  -->

<svg
   xmlns:dc="http://purl.org/dc/elements/1.1/"
   xmlns:cc="http://creativecommons.org/ns#"
   xmlns:rdf="http://www.w3.org/1999/02/22-rdf-syntax-ns#"
   xmlns:svg="http://www.w3.org/2000/svg"
   xmlns="http://www.w3.org/2000/svg"
   xmlns:xlink="http://www.w3.org/1999/xlink"
   xmlns:sodipodi="http://sodipodi.sourceforge.net/DTD/sodipodi-0.dtd"
   xmlns:inkscape="http://www.inkscape.org/namespaces/inkscape"
   version="1.1"
   id="flash0.ai"
   x="0px"
   y="0px"
   width="256"
   height="256"
   viewBox="0 0 256 255.99999"
   xml:space="preserve"
   sodipodi:docname="carrot.svg"
   inkscape:version="0.92.4 (5da689c313, 2019-01-14)"
   inkscape:export-filename="C:\Users\antum\Development\game-resources\icon\CC0\food\individual\Glitch\32x32\carrot.png"
   inkscape:export-xdpi="10.5"
   inkscape:export-ydpi="10.5"><title
   id="title875">Carrot</title><metadata
   id="metadata68"><rdf:RDF><cc:Work
       rdf:about=""><dc:format>image/svg+xml</dc:format><dc:type
         rdf:resource="http://purl.org/dc/dcmitype/StillImage" /><dc:title>Carrot</dc:title><cc:license
         rdf:resource="http://creativecommons.org/publicdomain/zero/1.0/" /><dc:creator><cc:Agent><dc:title>Glitch</dc:title></cc:Agent></dc:creator><dc:source>https://opengameart.org/node/20149</dc:source></cc:Work><cc:License
       rdf:about="http://creativecommons.org/publicdomain/zero/1.0/"><cc:permits
         rdf:resource="http://creativecommons.org/ns#Reproduction" /><cc:permits
         rdf:resource="http://creativecommons.org/ns#Distribution" /><cc:permits
         rdf:resource="http://creativecommons.org/ns#DerivativeWorks" /></cc:License></rdf:RDF></metadata><defs
   id="defs66" /><sodipodi:namedview
   pagecolor="#ffffff"
   bordercolor="#666666"
   borderopacity="1"
   objecttolerance="10"
   gridtolerance="10"
   guidetolerance="10"
   inkscape:pageopacity="0"
   inkscape:pageshadow="2"
   inkscape:window-width="1920"
   inkscape:window-height="1025"
   id="namedview64"
   showgrid="false"
   inkscape:zoom="1.6666666"
   inkscape:cx="69.30865"
   inkscape:cy="88.804286"
   inkscape:window-x="-8"
   inkscape:window-y="-8"
   inkscape:window-maximized="1"
   inkscape:current-layer="flash0.ai"
   fit-margin-top="0"
   fit-margin-left="0"
   fit-margin-right="0"
   fit-margin-bottom="0" />
<symbol
   id="flash0.ai_x5F_4_x2F_Layer_33_copy_x2F__x3C_Group_x3E_"
   viewBox="0 -26.8 31.813 26.794"
   transform="translate(85.995495,112.36609)">
	<g
   id="Layer_1_2_">
		<g
   id="g16">
			<path
   style="clip-rule:evenodd;fill-rule:evenodd"
   d="M 1.95,-25.9 0.7,-26.8 c 0.1,0.566 -0.133,0.95 -0.7,1.15 0.333,0.433 0.7,0.833 1.1,1.2 0.5,-0.2 0.783,-0.683 0.85,-1.45 z"
   id="path2"
   inkscape:connector-curvature="0" />
			<path
   style="clip-rule:evenodd;fill-rule:evenodd"
   d="M 10.7,-21.15 8.8,-22.1 c 0.4,1.067 0.333,1.917 -0.2,2.55 -0.467,0.566 -1.067,0.816 -1.8,0.75 l 1.8,1.85 c 1.4,0 2.233,-0.483 2.5,-1.45 0.233,-0.733 0.1,-1.65 -0.4,-2.75 z"
   id="path4"
   inkscape:connector-curvature="0" />
			<path
   style="clip-rule:evenodd;fill-rule:evenodd"
   d="m 6,-23.5 -1.8,-0.95 c 0.033,0.434 -0.083,0.817 -0.35,1.15 -0.267,0.333 -0.6,0.55 -1,0.65 l 1.9,1.8 c 0.7,-0.033 1.15,-0.367 1.35,-1 0.167,-0.5 0.133,-1.05 -0.1,-1.65 z"
   id="path6"
   inkscape:connector-curvature="0" />
			<path
   style="clip-rule:evenodd;fill-rule:evenodd"
   d="m 16.3,-18.1 -2.6,-1.45 c 0.533,1.167 0.383,2.3 -0.45,3.4 -0.7,0.9 -1.517,1.45 -2.45,1.65 l 1.3,1.55 c 0.367,0 0.85,-0.083 1.45,-0.25 0.9,-0.233 1.633,-0.883 2.2,-1.95 0.533,-1 0.717,-1.983 0.55,-2.95 z"
   id="path8"
   inkscape:connector-curvature="0" />
			<path
   style="clip-rule:evenodd;fill-rule:evenodd"
   d="m 29.8,-9.4 -0.6,-0.55 c 0.367,1.1 0.566,1.983 0.6,2.65 0.034,1.133 -0.5,2.65 -1.6,4.55 -1.034,1.667 -2.833,2.283 -5.4,1.85 2.934,1.3 5.25,1.183 6.95,-0.35 2.733,-2.5 2.75,-5.217 0.05,-8.15 z"
   id="path10"
   inkscape:connector-curvature="0" />
			<path
   style="clip-rule:evenodd;fill-rule:evenodd"
   d="m 21.4,-15.1 -3.1,-1.8 c 0.5,1.633 0.4,3.217 -0.3,4.75 -0.267,0.6 -0.833,1.05 -1.7,1.35 -0.833,0.333 -1.667,0.433 -2.5,0.3 l 1.4,2.05 c 1.667,0.5 3.2,0.15 4.6,-1.05 1.633,-1.367 2.167,-3.233 1.6,-5.6 z"
   id="path12"
   inkscape:connector-curvature="0" />
			<path
   style="clip-rule:evenodd;fill-rule:evenodd"
   d="m 24.05,-13.5 c 0.3,1.167 0.284,2.417 -0.05,3.75 -0.333,1.4 -1.283,2.45 -2.85,3.15 -1.333,0.567 -2.733,0.767 -4.2,0.6 l 1.3,1.65 c 2.633,1.1 4.767,1 6.4,-0.3 0.934,-0.8 1.583,-1.967 1.95,-3.5 0.267,-1.2 0.316,-2.417 0.15,-3.65 z"
   id="path14"
   inkscape:connector-curvature="0" />
		</g>
	</g>
</symbol>
<symbol
   id="flash0.ai_x5F_4_x2F_Layer_33_copy_x2F__x3C_Path_x3E_"
   viewBox="-0.014 -15.2 15.715 15.217"
   transform="translate(85.995495,112.36609)">
	<g
   id="Layer_1_4_">
		<path
   style="clip-rule:evenodd;fill:#ffffff;fill-rule:evenodd"
   d="m 15.25,0 c 0.867,-0.2 0.483,-0.95 -1.15,-2.25 -0.533,-0.433 -1.867,-1.367 -4,-2.8 -0.667,-0.467 -1.883,-1.733 -3.65,-3.8 -2.167,-2.566 -3.367,-3.967 -3.6,-4.2 -0.733,-0.8 -1.45,-1.417 -2.15,-1.85 -0.667,-0.4 -0.867,-0.4 -0.6,0 2.033,1.933 3.383,3.517 4.05,4.75 1.267,2.233 3.15,4.65 5.65,7.25 1.167,1.2 2.35,2.033 3.55,2.5 0.8,0.333 1.433,0.467 1.9,0.4 z"
   id="path20"
   inkscape:connector-curvature="0" />
	</g>
</symbol>
<symbol
   id="flash0.ai_x5F_4_x2F_Layer_33_copy_x2F__x3C_Path_x3E__x5F_1"
   viewBox="0 -25.441 32.784 25.441"
   transform="translate(85.995495,112.36609)">
	<g
   id="Layer_1_3_">
		<path
   style="clip-rule:evenodd;fill-rule:evenodd"
   d="m 29.2,-6.15 c 1.133,1.267 1.9,2.333 2.3,3.2 0.4,1.034 0.4,2.017 0,2.95 1.933,-2.267 1.683,-4.7 -0.75,-7.3 -0.9,-0.934 -2.9,-2.35 -6,-4.25 -1.167,-0.733 -3.833,-2.3 -8,-4.7 -1.8,-1.067 -4.183,-2.35 -7.15,-3.85 -3,-1.5 -4.7,-2.367 -5.1,-2.6 -0.6,-0.367 -1.567,-1.05 -2.9,-2.05 -1.033,-0.733 -1.567,-0.883 -1.6,-0.45 0.2,-0.2 1.2,0.534 3,2.2 1.167,1.067 2.967,2.267 5.4,3.6 1.4,0.767 3.684,1.983 6.85,3.65 6.9,3.767 11.55,6.967 13.95,9.6 z"
   id="path24"
   inkscape:connector-curvature="0" />
	</g>
</symbol>








<linearGradient
   id="SVGID_1_"
   gradientUnits="userSpaceOnUse"
   x1="26.9224"
   y1="4.3066001"
   x2="34.5695"
   y2="4.3066001"
   gradientTransform="matrix(1.1932,1.4173,-1.4173,1.1932,0.2004,0.0499)">
	<stop
   offset="0"
   style="stop-color:#FA9600"
   id="stop50" />
	<stop
   offset="1"
   style="stop-color:#D47200"
   id="stop52" />
</linearGradient>



<g
   id="g892"
   transform="matrix(3.0587909,0,0,3.0587909,-0.48275367,19.717585)"><path
     id="path28"
     d="m 76.532,20.522 c -0.989,0.495 -1.452,-0.123 -1.39,-1.853 l 0.463,-2.779 c -3.025,4.385 -4.539,5.558 -4.539,3.521 l 0.092,-4.354 c -0.432,-0.124 -0.987,-0.186 -1.667,-0.186 -1.358,0.124 -2.563,0.679 -3.612,1.667 -0.186,0.186 -1.729,2.285 -4.632,6.299 -2.285,3.15 -4.23,4.878 -5.837,5.188 -1.667,0.309 -2.347,-0.062 -2.037,-1.112 l 1.019,-1.76 c 1.174,-0.062 2.688,-1.204 4.54,-3.427 1.543,-1.853 2.963,-3.984 4.261,-6.393 1.111,-2.1 3.057,-4.076 5.836,-5.929 2.902,-1.976 5.435,-2.933 7.596,-2.872 4.693,0 6.639,0.525 5.837,1.575 -0.371,0.432 -0.741,0.648 -1.112,0.648 l -0.556,-0.093 1.574,0.649 c 0.989,0.741 1.483,1.822 1.483,3.242 -0.063,1.42 -0.619,1.977 -1.668,1.667 l -1.668,-0.926 c -0.989,4.079 -2.317,6.487 -3.983,7.228 z"
     style="clip-rule:evenodd;fill:#5f6e06;fill-rule:evenodd"
     inkscape:connector-curvature="0" /><path
     id="path30"
     d="m 78.293,12.092 c -0.804,1.42 -2.07,1.945 -3.799,1.575 -1.483,-0.31 -2.872,-0.896 -4.169,-1.761 l -1.39,-1.296 0.464,2.038 c 0.123,1.482 -0.402,2.501 -1.575,3.058 -1.174,0.556 -2.192,0.401 -3.057,-0.463 l -1.02,-1.389 c -1.235,4.075 -3.521,8.09 -6.854,12.042 -2.1,2.47 -4.479,4.385 -7.134,5.743 l -3.242,1.205 1.019,-4.725 3.984,-1.482 c 3.026,-1.605 5.373,-4.045 7.04,-7.318 1.791,-3.396 2.594,-5.497 2.408,-6.299 -0.741,-0.432 -1.39,-0.865 -1.945,-1.297 -0.74,-0.556 -1.081,-1.482 -1.019,-2.779 0,-1.235 0.37,-1.821 1.111,-1.759 l 1.39,0.092 C 60.382,6.536 60.351,5.734 60.412,4.869 c 0.124,-1.792 0.68,-3.088 1.667,-3.891 1.545,-1.235 2.038,-0.432 1.483,2.408 L 65.97,1.441 c 1.914,-1.235 3.52,-1.667 4.816,-1.297 1.297,0.371 1.328,1.112 0.093,2.224 L 68.658,3.94 71.9,3.292 C 74.184,2.983 75.698,3.2 76.439,3.94 77.612,5.236 76.13,6.41 71.992,7.46 l 5.374,1.945 c 1.359,0.371 1.666,1.267 0.927,2.687 z"
     style="clip-rule:evenodd;fill:#8fa309;fill-rule:evenodd"
     inkscape:connector-curvature="0" /><g
     id="g38">
	<path
   inkscape:connector-curvature="0"
   id="path32"
   d="m 76.069,3.755 0.37,0.185 c 1.173,1.296 -0.309,2.47 -4.447,3.52 2.471,-0.926 3.83,-2.161 4.077,-3.705 z"
   style="clip-rule:evenodd;fill:#6f8007;fill-rule:evenodd" />
	<path
   inkscape:connector-curvature="0"
   id="path34"
   d="m 60.876,18.669 c 0.988,-1.914 2.008,-4.6 3.058,-8.059 l 1.482,1.853 c 1.11,1.235 1.883,1.821 2.315,1.759 0.741,-0.123 1.143,-1.328 1.204,-3.612 l 0.464,2.038 c 0.123,1.482 -0.402,2.501 -1.575,3.058 -1.174,0.556 -2.192,0.401 -3.057,-0.463 l -1.02,-1.389 c -1.235,4.075 -3.521,8.09 -6.854,12.042 l -0.278,0.278 -0.371,-0.834 c 2.162,-2.533 3.706,-4.756 4.632,-6.671 z"
   style="clip-rule:evenodd;fill:#6f8007;fill-rule:evenodd" />
	<path
   inkscape:connector-curvature="0"
   id="path36"
   d="m 77.366,9.406 c 1.358,0.371 1.666,1.266 0.927,2.687 -0.804,1.42 -2.07,1.945 -3.799,1.575 -1.483,-0.31 -2.872,-0.896 -4.169,-1.761 l -1.39,-1.296 2.594,0.648 c 1.977,0.31 3.397,0.31 4.261,0 1.359,-0.556 0.094,-1.821 -3.798,-3.798 z"
   style="clip-rule:evenodd;fill:#6f8007;fill-rule:evenodd" />
</g><path
     id="path40"
     d="M 67.083,1.995 65.879,4.033 C 65.384,4.898 65.015,5.794 64.768,6.72 64.644,7.214 64.582,7.585 64.582,7.832 L 65.508,7.184 C 66.311,6.627 67.053,6.226 67.732,5.98 68.906,5.485 70.233,5.238 71.715,5.238 l -1.761,0.649 c -0.74,0.309 -1.697,0.865 -2.871,1.667 l -1.482,1.02 2.131,-0.371 c 1.05,-0.186 2.037,0.124 2.964,0.926 -0.927,-0.186 -2.007,-0.154 -3.242,0.093 -0.864,0.185 -1.605,0.617 -2.223,1.296 -0.494,0.679 -0.804,1.389 -0.927,2.13 -0.124,0.618 -0.37,0.71 -0.74,0.278 C 63.193,12.494 62.915,11.937 62.73,11.258 62.606,10.702 62.236,10.209 61.618,9.776 L 60.69,9.313 62.173,9.961 c 1.11,0.494 1.79,1.08 2.037,1.76 -0.37,-1.358 -0.494,-2.594 -0.37,-3.706 0.062,-1.172 1.143,-3.179 3.243,-6.02 z"
     style="clip-rule:evenodd;fill:#6f8007;fill-rule:evenodd"
     inkscape:connector-curvature="0" /><path
     id="path42"
     d="m 61.895,14.038 c -0.308,1.297 -0.802,2.563 -1.481,3.798 -1.358,2.408 -2.224,3.612 -2.594,3.612 -0.124,0 0.217,-0.648 1.019,-1.945 0.927,-1.482 1.483,-2.501 1.668,-3.057 1.049,-2.717 1.512,-3.52 1.388,-2.408 z"
     style="clip-rule:evenodd;fill:#d0db88;fill-rule:evenodd"
     inkscape:connector-curvature="0" /><path
     id="path44"
     d="M 62.544,1.347 C 62.853,2.026 62.821,2.705 62.451,3.384 62.08,4.063 61.771,4.156 61.525,3.663 61.339,3.23 61.431,2.674 61.802,1.995 62.174,1.254 62.421,1.038 62.544,1.347 Z"
     style="clip-rule:evenodd;fill:#d0db88;fill-rule:evenodd"
     inkscape:connector-curvature="0" /><path
     id="path46"
     d="m 59.579,7.646 c 0.804,0.37 0.896,0.896 0.278,1.575 -0.556,0.741 -1.02,0.802 -1.39,0.185 -0.246,-0.556 -0.216,-1.019 0.093,-1.39 0.248,-0.37 0.587,-0.494 1.019,-0.37 z"
     style="clip-rule:evenodd;fill:#d0db88;fill-rule:evenodd"
     inkscape:connector-curvature="0" /><path
     id="path48"
     d="M 69.954,0.421 C 70.942,0.544 71.005,1.007 70.14,1.81 69.214,2.551 68.535,2.705 68.102,2.273 67.732,1.84 67.825,1.408 68.38,0.976 68.874,0.482 69.399,0.297 69.954,0.421 Z"
     style="clip-rule:evenodd;fill:#d0db88;fill-rule:evenodd"
     inkscape:connector-curvature="0" /><path
     id="path55"
     d="m 57.079,22.097 c 5.063,4.632 5.095,9.666 0.092,15.1 -1.667,1.729 -5.373,4.354 -11.116,7.874 -2.161,1.358 -7.103,4.262 -14.822,8.708 -3.334,1.977 -7.75,4.354 -13.247,7.133 -5.558,2.779 -8.708,4.385 -9.449,4.817 -1.173,0.741 -3.088,2.068 -5.744,3.982 -1.976,1.358 -2.841,1.42 -2.594,0.187 0.186,-0.865 1.606,-2.656 4.261,-5.374 3.274,-3.21 5.59,-5.495 6.948,-6.854 6.794,-6.67 11.673,-12.073 14.637,-16.211 4.199,-6.114 6.638,-9.604 7.317,-10.468 2.965,-4.015 5.281,-6.484 6.948,-7.411 7.473,-4.385 13.063,-4.879 16.769,-1.483 z"
     style="clip-rule:evenodd;fill:url(#SVGID_1_);fill-rule:evenodd"
     inkscape:connector-curvature="0" /><use
     id="use57"
     style="overflow:visible;opacity:0.10940001;enable-background:new"
     transform="matrix(1.8527,0,0,-1.8527,-157.37365,227.98046)"
     y="-26.799999"
     height="26.794001"
     width="31.813"
     xlink:href="#flash0.ai_x5F_4_x2F_Layer_33_copy_x2F__x3C_Group_x3E_"
     x="0" /><use
     id="use59"
     style="overflow:visible;opacity:0.23049999;enable-background:new"
     transform="matrix(1.8527,0,0,-1.8527,-159.12365,231.83056)"
     y="-25.441"
     height="25.441"
     width="32.784"
     xlink:href="#flash0.ai_x5F_4_x2F_Layer_33_copy_x2F__x3C_Path_x3E__x5F_1"
     x="0" /><use
     id="use61"
     style="overflow:visible;opacity:0.26950001;enable-background:new"
     transform="matrix(1.8527,0,0,-1.8527,-139.12365,230.58056)"
     y="-15.2"
     x="-0.014"
     height="15.217"
     width="15.715"
     xlink:href="#flash0.ai_x5F_4_x2F_Layer_33_copy_x2F__x3C_Path_x3E_" /></g>
</svg>