<?xml version="1.0" encoding="UTF-8" standalone="no"?>
<!-- Generator: Adobe Illustrator 15.1.0, SVG Export Plug-In . SVG Version: 6.00 Build 0)  -->

<svg
   xmlns:dc="http://purl.org/dc/elements/1.1/"
   xmlns:cc="http://creativecommons.org/ns#"
   xmlns:rdf="http://www.w3.org/1999/02/22-rdf-syntax-ns#"
   xmlns:svg="http://www.w3.org/2000/svg"
   xmlns="http://www.w3.org/2000/svg"
   xmlns:xlink="http://www.w3.org/1999/xlink"
   xmlns:sodipodi="http://sodipodi.sourceforge.net/DTD/sodipodi-0.dtd"
   xmlns:inkscape="http://www.inkscape.org/namespaces/inkscape"
   version="1.1"
   id="flash0.ai"
   x="0px"
   y="0px"
   width="256"
   height="256"
   viewBox="0 0 256 256.00001"
   xml:space="preserve"
   sodipodi:docname="omelet.svg"
   inkscape:version="0.92.4 (5da689c313, 2019-01-14)"
   inkscape:export-filename="C:\Users\antum\Development\game-resources\icon\CC0\food\individual\Glitch\32x32\omelet.png"
   inkscape:export-xdpi="10.5"
   inkscape:export-ydpi="10.5"><title
   id="title1328">Omelet</title><metadata
   id="metadata521"><rdf:RDF><cc:Work
       rdf:about=""><dc:format>image/svg+xml</dc:format><dc:type
         rdf:resource="http://purl.org/dc/dcmitype/StillImage" /><dc:title>Omelet</dc:title><cc:license
         rdf:resource="http://creativecommons.org/publicdomain/zero/1.0/" /><dc:creator><cc:Agent><dc:title>Glitch</dc:title></cc:Agent></dc:creator><dc:source>https://opengameart.org/node/20149</dc:source></cc:Work><cc:License
       rdf:about="http://creativecommons.org/publicdomain/zero/1.0/"><cc:permits
         rdf:resource="http://creativecommons.org/ns#Reproduction" /><cc:permits
         rdf:resource="http://creativecommons.org/ns#Distribution" /><cc:permits
         rdf:resource="http://creativecommons.org/ns#DerivativeWorks" /></cc:License></rdf:RDF></metadata><defs
   id="defs519">
	
	
	
	
</defs><sodipodi:namedview
   pagecolor="#ffffff"
   bordercolor="#666666"
   borderopacity="1"
   objecttolerance="10"
   gridtolerance="10"
   guidetolerance="10"
   inkscape:pageopacity="0"
   inkscape:pageshadow="2"
   inkscape:window-width="1920"
   inkscape:window-height="1025"
   id="namedview517"
   showgrid="false"
   inkscape:zoom="1.2871884"
   inkscape:cx="-16.276551"
   inkscape:cy="11.566664"
   inkscape:window-x="-8"
   inkscape:window-y="-8"
   inkscape:window-maximized="1"
   inkscape:current-layer="flash0.ai"
   fit-margin-top="0"
   fit-margin-left="0"
   fit-margin-right="0"
   fit-margin-bottom="0" />
<symbol
   id="flash0.ai_x5F_3_x2F_Layer_4_copy_x2F__x3C_Path_x3E_"
   viewBox="-0.007 -1.363 2.196 1.431"
   transform="translate(93.48176,158.32551)">
	<g
   id="Layer_1_8_">
		<path
   style="clip-rule:evenodd;fill:#ffdc5e;fill-rule:evenodd"
   d="m 1.5,-0.1 c 0.667,-0.3 0.85,-0.617 0.55,-0.95 -0.3,-0.333 -0.716,-0.4 -1.25,-0.2 -0.733,0.3 -0.966,0.633 -0.7,1 0.3,0.367 0.767,0.417 1.4,0.15 z"
   id="path2"
   inkscape:connector-curvature="0" />
	</g>
</symbol>
<symbol
   id="flash0.ai_x5F_3_x2F_Layer_4_copy_x2F__x3C_Path_x3E__x5F_1"
   viewBox="-0.029 -0.764 1.007 0.754"
   transform="translate(93.48176,158.32551)">
	<g
   id="Layer_1_7_">
		<path
   style="clip-rule:evenodd;fill:#ffdc5e;fill-rule:evenodd"
   d="M 0.85,-0.3 C 1.05,-0.433 1.017,-0.567 0.75,-0.7 0.483,-0.8 0.283,-0.783 0.15,-0.65 -0.017,-0.483 -0.067,-0.3 0,-0.1 0.1,0.067 0.383,0 0.85,-0.3 Z"
   id="path6"
   inkscape:connector-curvature="0" />
	</g>
</symbol>
<symbol
   id="flash0.ai_x5F_3_x2F_Layer_4_copy_x2F__x3C_Path_x3E__x5F_2"
   viewBox="-0.044 -1.454 1.401 1.457"
   transform="translate(93.48176,158.32551)">
	<g
   id="Layer_1_6_">
		<path
   style="clip-rule:evenodd;fill:#ffdc5e;fill-rule:evenodd"
   d="M 1,0 C 1.333,-0.033 1.433,-0.3 1.3,-0.8 1.167,-1.267 0.9,-1.483 0.5,-1.45 0.033,-1.383 -0.133,-1.117 0,-0.65 0.167,-0.183 0.5,0.033 1,0 Z"
   id="path10"
   inkscape:connector-curvature="0" />
	</g>
</symbol>
<symbol
   id="flash0.ai_x5F_3_x2F_Layer_4_copy_x2F__x3C_Path_x3E__x5F_3"
   viewBox="-0.013 -1.772 2.029 1.772"
   transform="translate(93.48176,158.32551)">
	<g
   id="Layer_1_5_">
		<path
   style="clip-rule:evenodd;fill:#ffdc5e;fill-rule:evenodd"
   d="M 0.6,-0.05 C 1.067,-0.15 1.45,-0.367 1.75,-0.7 2.017,-1.033 2.083,-1.3 1.95,-1.5 1.817,-1.733 1.667,-1.817 1.5,-1.75 c -0.2,0.067 -0.5,0.4 -0.9,1 -0.133,0.233 -0.333,0.467 -0.6,0.7 -0.067,0.067 0.133,0.067 0.6,0 z"
   id="path14"
   inkscape:connector-curvature="0" />
	</g>
</symbol>
<symbol
   id="flash0.ai_x5F_3_x2F_Layer_4_copy_x2F__x3C_Path_x3E__x5F_4"
   viewBox="-0.009 -1.434 1.769 1.446"
   transform="translate(93.48176,158.32551)">
	<g
   id="Layer_1_4_">
		<path
   style="clip-rule:evenodd;fill:#ffdc5e;fill-rule:evenodd"
   d="m 0.8,-0.05 c 0.534,-0.2 0.85,-0.534 0.95,-1 C 1.817,-1.484 1.533,-1.55 0.9,-1.25 0.233,-0.95 -0.067,-0.633 0,-0.3 0.067,0 0.333,0.083 0.8,-0.05 Z"
   id="path18"
   inkscape:connector-curvature="0" />
	</g>
</symbol>
<symbol
   id="flash0.ai_x5F_3_x2F_Layer_4_copy_x2F__x3C_Path_x3E__x5F_45"
   viewBox="0.021 -17.95 48.934 17.979"
   transform="translate(93.48176,158.32551)">
	<g
   id="Layer_1_2_">
		<path
   style="clip-rule:evenodd;fill:#ab6700;fill-rule:evenodd"
   d="m 46.4,-0.05 c 1.1,-0.5 1.833,-1.167 2.2,-2 0.2,-0.434 0.316,-1.083 0.35,-1.95 0.033,-0.433 -0.083,-0.8 -0.35,-1.1 -0.4,-0.4 -0.75,-0.75 -1.05,-1.05 -0.333,-0.4 -0.6,-0.883 -0.8,-1.45 -0.1,-0.333 -0.217,-0.717 -0.35,-1.15 -0.066,-0.167 -0.167,-0.283 -0.3,-0.35 -0.3,-0.233 -0.7,-0.583 -1.2,-1.05 -1.267,-1.233 -2.55,-2.2 -3.85,-2.9 -0.6,-0.333 -1.267,-0.85 -2,-1.55 -0.667,-0.667 -1.083,-1.033 -1.25,-1.1 -0.733,-0.267 -1.417,-0.5 -2.05,-0.7 -1.2,-0.367 -2.183,-0.55 -2.95,-0.55 -0.867,0 -1.966,-0.117 -3.3,-0.35 -1.233,-0.2 -1.933,-0.367 -2.1,-0.5 -0.167,-0.1 -0.783,-0.15 -1.85,-0.15 -1.033,0 -2,0.05 -2.9,0.15 -0.5,0.066 -1.233,0.033 -2.2,-0.1 -0.767,-0.1 -1.45,-0.033 -2.05,0.2 l -3,0.9 -1.45,0.05 c -2.167,-0.033 -4.05,0.1 -5.65,0.4 -0.633,0.133 -1.533,0.35 -2.7,0.65 -0.867,0.233 -1.717,0.4 -2.55,0.5 -0.933,0.067 -1.466,-0.15 -1.6,-0.65 -0.067,-0.233 -0.034,-0.483 0.1,-0.75 -0.833,-0.133 -1.333,0.133 -1.5,0.8 -0.066,0.433 -0.017,0.8 0.15,1.1 l 0.25,0.3 c 2.633,1.2 5.083,2.183 7.35,2.95 10.233,3.467 16.783,5.65 19.65,6.55 11.6,3.7 17.917,5.317 18.95,4.85 z"
   id="path22"
   inkscape:connector-curvature="0" />
	</g>
</symbol>
<symbol
   id="flash0.ai_x5F_3_x2F_Layer_4_copy_x2F__x3C_Path_x3E__x5F_5"
   viewBox="-0.007 -28.978 44.771 28.945"
   transform="translate(93.48176,158.32551)">
	<g
   id="Layer_1_3_">
		<path
   style="clip-rule:evenodd;fill:#e34400;fill-rule:evenodd"
   d="m 40.8,-1.75 c -0.566,-0.033 -1,-0.033 -1.3,0 -0.267,0.033 -0.5,0.1 -0.7,0.2 -0.267,0.2 -0.483,0.367 -0.65,0.5 -0.333,0.2 -0.683,0.35 -1.05,0.45 -1.267,0.2 -2.383,0.25 -3.35,0.15 L 32.1,-0.5 33.8,-0.9 c 1.233,-0.3 2.117,-0.55 2.65,-0.75 1.667,-0.633 2.75,-1.184 3.25,-1.65 0.667,-0.534 0.933,-0.917 0.8,-1.15 -0.2,-0.267 -1.183,-0.4 -2.95,-0.4 -1.433,-0.067 -3.15,0.083 -5.15,0.45 l -5.7,0.6 3,-0.7 c 2.167,-0.6 3.767,-1.167 4.8,-1.7 1.033,-0.533 1.933,-1.167 2.7,-1.9 0.4,-0.4 0.816,-0.867 1.25,-1.4 0.233,-0.267 0.383,-0.517 0.45,-0.75 0,-0.067 0,-0.35 0,-0.85 0,-0.566 0.45,-0.983 1.35,-1.25 0.267,-0.066 0.567,-0.117 0.9,-0.15 0.267,-0.033 0.5,-0.1 0.7,-0.2 0.267,-0.133 0.467,-0.283 0.6,-0.45 0.1,-0.1 0.2,-0.25 0.3,-0.45 0.4,-0.4 0.783,-0.633 1.15,-0.7 0.733,-0.067 1,-0.333 0.8,-0.8 -0.1,-0.233 -0.317,-0.4 -0.65,-0.5 -0.333,-0.1 -0.7,-0.05 -1.1,0.15 -0.367,0.133 -0.617,0.367 -0.75,0.7 l -0.35,0.8 c -0.4,0.534 -1.05,0.883 -1.95,1.05 -0.566,0.066 -0.867,0.1 -0.9,0.1 -0.233,0.1 -0.5,0.3 -0.8,0.6 -0.367,0.367 -0.767,0.633 -1.2,0.8 -0.5,0.167 -1.383,0.367 -2.65,0.6 -0.7,0.133 -2.4,0.3 -5.1,0.5 -2.433,0.2 -4.183,0.417 -5.25,0.65 -1.167,0.233 -2.833,0.45 -5,0.65 l -2.95,0.25 3.4,-1 c 2.5,-0.8 4.316,-1.55 5.45,-2.25 1.434,-0.867 2.25,-1.6 2.45,-2.2 0.2,-0.667 -0.4,-0.933 -1.8,-0.8 -6.867,0.567 -10.966,0.95 -12.3,1.15 -2.167,0.267 -4.85,0.5 -8.05,0.7 L 8.1,-14 c 2.167,-0.633 3.733,-1.2 4.7,-1.7 1.1,-0.533 1.967,-1.2 2.6,-2 0.533,-0.633 0.817,-1.183 0.85,-1.65 0,-1.333 0.133,-2.333 0.4,-3 0.5,-1.3 1.267,-2.133 2.3,-2.5 0.3,-0.1 0.8,-0.217 1.5,-0.35 0.4,-0.066 0.617,-0.167 0.65,-0.3 0.066,-0.133 0.117,-0.35 0.15,-0.65 0.067,-0.3 0.233,-0.467 0.5,-0.5 0.367,-0.1 0.783,-0.283 1.25,-0.55 0.5,-0.3 0.75,-0.55 0.75,-0.75 0,-0.267 -0.267,-0.533 -0.8,-0.8 -0.6,-0.267 -1.184,-0.3 -1.75,-0.1 -1.067,0.333 -1.6,0.8 -1.6,1.4 0,0.2 -0.117,0.467 -0.35,0.8 -0.233,0.367 -0.433,0.6 -0.6,0.7 -0.367,0.133 -0.667,0.25 -0.9,0.35 -0.467,0.233 -0.833,0.55 -1.1,0.95 -0.767,0.867 -1.267,1.55 -1.5,2.05 l -0.55,1 -0.1,-0.6 c -0.067,-0.433 -0.067,-0.8 0,-1.1 0.1,-0.467 0.283,-1.05 0.55,-1.75 0.067,-0.267 0.034,-0.6 -0.1,-1 -0.133,-0.434 -0.317,-0.767 -0.55,-1 -0.4,-0.4 -1.033,-0.483 -1.9,-0.25 -0.333,0.1 -0.517,0.3 -0.55,0.6 -0.067,0.333 0.033,0.65 0.3,0.95 0.1,0.133 0.267,0.283 0.5,0.45 0.033,0.033 0.033,0.15 0,0.35 -0.033,0.2 0.033,0.567 0.2,1.1 0.167,0.533 0.233,0.934 0.2,1.2 -0.1,0.733 -0.15,1.383 -0.15,1.95 0,1.267 -0.2,2.083 -0.6,2.45 -0.333,0.3 -1.017,0.717 -2.05,1.25 -1.167,0.6 -2.317,1.083 -3.45,1.45 -2.533,0.833 -4.2,1.483 -5,1.95 -0.3,0.2 -0.65,0.35 -1.05,0.45 -0.333,0.067 -0.55,0.083 -0.65,0.05 H 0 c -0.067,0.167 0.35,0.483 1.25,0.95 0.5,0.267 1.283,0.367 2.35,0.3 2.667,-0.1 4.2,-0.15 4.6,-0.15 2.867,0 6.7,-0.217 11.5,-0.65 1.2,-0.067 1.75,0 1.65,0.2 -0.067,0.1 -0.6,0.417 -1.6,0.95 -0.8,0.4 -2.133,0.917 -4,1.55 -1.767,0.567 -2.867,0.883 -3.3,0.95 -0.367,0.067 -0.5,0.183 -0.4,0.35 0.1,0.133 0.367,0.283 0.8,0.45 0.633,0.2 2.066,0.333 4.3,0.4 2.7,0.066 4.983,-0.083 6.85,-0.45 1.733,-0.333 3.417,-0.567 5.05,-0.7 0.867,-0.1 1.75,-0.167 2.65,-0.2 2.966,-0.434 4.583,-0.617 4.85,-0.55 0.333,0.067 0.05,0.417 -0.85,1.05 -1,0.733 -2.15,1.333 -3.45,1.8 -3.3,1.3 -5.533,2.05 -6.7,2.25 -1.066,0.167 -1.816,0.3 -2.25,0.4 -0.733,0.133 -1,0.267 -0.8,0.4 0.867,0.767 2.733,1.083 5.6,0.95 4,-0.267 6.85,-0.55 8.55,-0.85 1,-0.2 1.517,-0.183 1.55,0.05 0.066,0.233 -0.417,0.55 -1.45,0.95 -2.733,1.067 -4.717,1.633 -5.95,1.7 -0.966,0.067 -1.367,0.217 -1.2,0.45 0.133,0.267 0.767,0.417 1.9,0.45 2.667,0.067 4.1,0.083 4.3,0.05 0.434,-0.034 0.934,-0.067 1.5,-0.1 0.367,-0.067 0.6,-0.167 0.7,-0.3 0.333,-0.367 0.717,-0.5 1.15,-0.4 0.833,0.1 1.317,0.1 1.45,0 0.2,-0.167 0.267,-0.467 0.2,-0.9 z"
   id="path26"
   inkscape:connector-curvature="0" />
	</g>
</symbol>
<g
   id="g512"
   transform="matrix(6.377681,0,0,6.377681,-111.34776,22.653404)">
		<g
   id="g358">
			<path
   inkscape:connector-curvature="0"
   id="path356"
   d="m 48.45,24.55 c -0.867,0.5 -1.417,0.8 -1.65,0.9 -0.467,0.166 -1.083,0.366 -1.85,0.6 -0.634,0.2 -1.267,0.3 -1.9,0.3 l -1.25,-0.1 c -0.133,0 -0.983,0.15 -2.55,0.45 -1.533,0.267 -2.683,0.399 -3.45,0.399 -1.533,0 -2.7,-0.1 -3.5,-0.3 -0.5,-0.133 -1.433,-0.399 -2.8,-0.8 -0.2,-0.033 -1.15,-0.267 -2.85,-0.7 -1.633,-0.434 -2.45,-0.833 -2.45,-1.2 0,-0.666 1.883,-1 5.65,-1 4,-0.066 7.9,-0.316 11.7,-0.75 1.2,-0.133 3.667,-0.533 7.4,-1.199 2.833,-0.467 4.833,-0.75 6,-0.851 l 0.399,0.25 c -0.066,0.2 -0.199,0.334 -0.399,0.4 -0.134,0.066 -0.384,0.184 -0.75,0.35 -0.267,0.134 -0.634,0.517 -1.101,1.15 -0.767,0.7 -1.699,1.149 -2.8,1.35 -0.499,0.067 -1.115,0.317 -1.849,0.751 z"
   style="clip-rule:evenodd;fill-opacity:0.30199998;fill-rule:evenodd" />
		</g>
		<g
   id="g510">
			<path
   inkscape:connector-curvature="0"
   id="path360"
   d="m 56.938,13.6 c 0.325,0.676 0.487,1.15 0.487,1.426 0,1.75 -0.024,2.762 -0.074,3.037 -0.15,0.675 -0.65,1.212 -1.5,1.612 -1.775,0.926 -2.888,1.601 -3.338,2.024 -0.351,0.375 -0.575,0.613 -0.675,0.713 -0.176,0.15 -0.45,0.301 -0.825,0.451 -0.975,0.424 -1.8,0.812 -2.475,1.162 -0.575,0.299 -1.338,0.637 -2.288,1.012 -1.149,0.451 -1.912,0.676 -2.287,0.676 -0.2,0 -0.525,-0.037 -0.976,-0.113 -0.375,-0.074 -0.75,-0.087 -1.125,-0.037 -0.85,0.175 -1.55,0.313 -2.1,0.412 -1.025,0.176 -1.813,0.237 -2.362,0.188 -1.75,-0.274 -3.025,-0.412 -3.825,-0.412 -0.6,0 -1.425,-0.074 -2.475,-0.225 -1.051,-0.15 -1.838,-0.313 -2.363,-0.488 -0.3,-0.1 -0.875,-0.225 -1.725,-0.375 -0.8,-0.124 -1.425,-0.287 -1.875,-0.486 -1.675,-0.602 -2.75,-1.001 -3.225,-1.201 -0.226,-0.1 -0.5,-0.312 -0.825,-0.637 -0.35,-0.301 -0.663,-0.513 -0.938,-0.639 -0.65,-0.249 -1.138,-0.449 -1.463,-0.6 -0.6,-0.274 -0.938,-0.525 -1.013,-0.75 -0.25,-0.65 0.088,-1.187 1.013,-1.612 L 45.086,8.651 49.173,6.026 C 51.125,6.4 52.2,6.7 52.4,6.925 c 0.475,0.7 0.912,1.1 1.313,1.2 0.35,0.075 0.75,0.238 1.2,0.487 0.575,0.275 0.899,0.55 0.975,0.825 0.075,0.2 0.163,0.763 0.263,1.688 0.075,0.85 0.137,1.3 0.188,1.35 0.124,0.15 0.323,0.525 0.599,1.125 z"
   style="clip-rule:evenodd;fill:#e6b70e;fill-rule:evenodd" />
			<path
   inkscape:connector-curvature="0"
   id="path362"
   d="m 52.15,8.1 c 1.366,0.2 2.199,0.767 2.5,1.7 0.066,0.1 0.199,0.383 0.399,0.85 0.167,0.367 0.283,0.733 0.351,1.1 0.066,0.4 0,0.733 -0.2,1 -0.134,0.133 -0.5,0.4 -1.101,0.8 -0.433,0.267 -0.399,0.817 0.101,1.65 0.467,0.8 0.866,1.25 1.2,1.35 0.333,0.1 0.55,0.35 0.649,0.75 0.134,0.467 0.05,0.934 -0.25,1.4 -0.3,0.433 -0.8,0.733 -1.5,0.9 -0.267,0.066 -0.833,0.133 -1.7,0.2 -0.366,0.034 -0.8,0.267 -1.3,0.7 -0.802,0.706 -1.419,1.197 -1.85,1.475 0.168,0.349 0.552,0.69 1.149,1.025 0.834,0.5 1.25,0.983 1.25,1.45 0,0.566 -0.699,0.85 -2.1,0.85 -2.434,0 -4.3,-0.316 -5.6,-0.95 -1.334,-0.633 -2.2,-0.949 -2.601,-0.949 -0.284,0 -0.518,0.05 -0.7,0.149 L 40.4,23.9 40.475,23.974 40.8,24.35 c 0.233,0.367 0.034,0.667 -0.6,0.9 L 39.4,24.8 c -0.267,-0.1 -0.6,-0.366 -1,-0.8 -0.367,-0.366 -0.717,-0.6 -1.05,-0.7 -0.5,-0.2 -1.333,-0.267 -2.5,-0.2 -1.2,0.034 -2.184,0.184 -2.95,0.45 -0.667,0.2 -1.55,0.134 -2.65,-0.2 -1.167,-0.399 -1.967,-0.649 -2.4,-0.75 -1,-0.166 -1.717,-0.3 -2.15,-0.399 -0.8,-0.167 -1.284,-0.316 -1.45,-0.45 -0.1,-0.134 -0.633,-0.316 -1.6,-0.55 -1,-0.267 -1.583,-0.45 -1.75,-0.55 -0.633,-0.367 -0.867,-0.667 -0.7,-0.9 0.466,-0.467 2.417,-0.85 5.85,-1.15 1.034,-0.067 5.7,-1.883 14,-5.45 8.1,-3.434 12.467,-5.118 13.1,-5.051 z"
   style="clip-rule:evenodd;fill:#c78a12;fill-rule:evenodd" />
			<path
   inkscape:connector-curvature="0"
   id="path364"
   d="m 52.1,7.65 c 1.367,0.2 2.2,0.767 2.5,1.7 0.067,0.133 0.2,0.433 0.4,0.9 0.167,0.367 0.283,0.717 0.35,1.05 0.101,0.434 0.034,0.784 -0.199,1.05 -0.101,0.1 -0.467,0.35 -1.101,0.75 -0.434,0.267 -0.399,0.816 0.101,1.65 0.433,0.8 0.833,1.267 1.199,1.4 0.334,0.067 0.551,0.3 0.65,0.7 0.134,0.467 0.05,0.933 -0.25,1.4 -0.267,0.467 -0.75,0.783 -1.45,0.95 -0.3,0.033 -0.883,0.1 -1.75,0.2 -0.333,0 -0.767,0.233 -1.3,0.7 -0.689,0.583 -1.23,1.017 -1.625,1.301 0.146,0.418 0.505,0.752 1.075,1 0.733,0.333 1.1,0.75 1.1,1.25 0,0.566 -0.35,0.933 -1.05,1.1 -0.305,0.061 -0.972,0.095 -2,0.1 0,-0.066 -0.033,-0.083 -0.1,-0.05 -0.085,0.028 -0.144,0.045 -0.176,0.05 -1.558,-0.011 -2.683,-0.11 -3.375,-0.3 -0.133,-0.033 -0.616,-0.3 -1.449,-0.8 -0.601,-0.333 -1.233,-0.5 -1.9,-0.5 -0.641,0.068 -1.074,0.11 -1.3,0.125 l -0.1,0.075 0.4,0.5 c 0.233,0.366 0.05,0.649 -0.55,0.85 l -0.85,-0.45 c -0.233,-0.1 -0.567,-0.35 -1,-0.75 -0.367,-0.366 -0.717,-0.616 -1.05,-0.75 -0.466,-0.166 -1.3,-0.216 -2.5,-0.149 -1.2,0.033 -2.183,0.166 -2.95,0.399 -0.633,0.233 -1.5,0.184 -2.6,-0.149 -1.2,-0.434 -2.017,-0.684 -2.45,-0.75 -0.966,-0.167 -1.683,-0.3 -2.15,-0.4 -0.8,-0.166 -1.267,-0.316 -1.4,-0.45 -0.133,-0.133 -0.683,-0.316 -1.65,-0.55 -1,-0.267 -1.583,-0.45 -1.75,-0.55 -0.633,-0.433 -0.85,-0.733 -0.65,-0.9 0.4,-0.467 2.333,-0.85 5.8,-1.15 1.033,-0.1 5.7,-1.917 14,-5.45 C 47.1,9.283 51.467,7.583 52.1,7.65 Z"
   style="clip-rule:evenodd;fill:#ffd642;fill-rule:evenodd" />
			<path
   inkscape:connector-curvature="0"
   id="path366"
   d="m 21.688,20.088 c 0.525,0.1 0.95,0.262 1.275,0.486 0.275,0.227 0.313,0.338 0.112,0.338 -0.175,0 -0.563,-0.074 -1.162,-0.225 -0.601,-0.175 -0.988,-0.313 -1.163,-0.412 -0.175,-0.101 -0.137,-0.163 0.112,-0.188 0.226,-0.049 0.501,-0.049 0.826,0.001 z"
   style="clip-rule:evenodd;fill:#fffc8a;fill-rule:evenodd" />
			<path
   inkscape:connector-curvature="0"
   id="path368"
   d="m 26.938,21.475 c 1.25,0.451 2.213,0.726 2.888,0.826 0.35,0.049 0.638,0.161 0.862,0.336 0.226,0.15 0.2,0.227 -0.075,0.227 -0.5,0 -1.062,-0.126 -1.688,-0.375 -1.625,-0.426 -2.575,-0.713 -2.85,-0.863 -0.225,-0.101 -0.2,-0.175 0.075,-0.225 0.275,-0.05 0.538,-0.026 0.788,0.074 z"
   style="clip-rule:evenodd;fill:#fffc8a;fill-rule:evenodd" />
			<path
   inkscape:connector-curvature="0"
   id="path370"
   d="m 38.862,23.162 c 0.125,0.076 0.301,0.264 0.525,0.563 0.825,0.275 1.075,0.488 0.75,0.639 -0.25,0.1 -0.55,0 -0.9,-0.301 -0.325,-0.274 -0.524,-0.537 -0.6,-0.787 l -0.188,-0.338 z"
   style="clip-rule:evenodd;fill:#fffc8a;fill-rule:evenodd" />
			<path
   inkscape:connector-curvature="0"
   id="path372"
   d="m 45.612,21.85 c 0.251,0.002 0.282,0.258 0.094,0.77 -0.187,0.514 1.57,0.869 5.27,1.068 -1.351,0.824 -2.851,0.969 -4.5,0.432 -1.646,-0.533 -2.289,-1.045 -1.932,-1.537 0.36,-0.492 0.716,-0.735 1.068,-0.733 z"
   style="clip-rule:evenodd;fill:#fffc8a;fill-rule:evenodd" />
			<path
   inkscape:connector-curvature="0"
   id="path374"
   d="m 54.688,12.025 c 0.426,-0.05 0.4,0.087 -0.075,0.412 -0.499,0.325 -0.812,0.462 -0.938,0.412 -0.1,-0.024 -0.024,-0.162 0.226,-0.412 0.275,-0.249 0.537,-0.387 0.787,-0.412 z"
   style="clip-rule:evenodd;fill:#fffc8a;fill-rule:evenodd" />
			<path
   inkscape:connector-curvature="0"
   id="path376"
   d="m 47.713,19.338 c 0.149,-0.275 -0.013,-0.475 -0.487,-0.601 -0.501,-0.125 -0.825,-0.012 -0.976,0.338 -0.1,0.25 0.088,0.412 0.563,0.487 0.45,0.101 0.75,0.025 0.9,-0.224 z m 4.125,-0.113 c -0.125,0.375 -0.013,0.575 0.337,0.6 0.45,0.026 0.838,-0.137 1.163,-0.487 0.3,-0.351 0.012,-0.563 -0.862,-0.638 -0.326,-0.025 -0.538,0.15 -0.638,0.525 z m -1.612,-1.5 c -0.425,-0.05 -0.813,0.125 -1.163,0.525 -0.375,0.375 -0.275,0.638 0.3,0.787 0.676,0.175 1.263,0.013 1.763,-0.487 0.474,-0.475 0.175,-0.75 -0.9,-0.825 z m 4.125,-0.9 c -0.075,0.05 -0.15,0.125 -0.226,0.225 -0.125,0.225 -0.199,0.487 -0.225,0.788 -0.025,0.149 0.063,0.212 0.263,0.188 0.124,0 0.287,-0.025 0.487,-0.075 0.025,0 0.037,0.137 0.037,0.412 -0.05,0.65 -0.425,1.175 -1.125,1.575 -0.425,0.225 -0.938,0.388 -1.537,0.488 l -0.75,0.074 c -0.25,-0.25 -0.638,-0.388 -1.163,-0.412 -0.35,-0.025 -0.637,0.074 -0.862,0.299 l -0.263,0.338 -1.199,-0.111 C 47.538,20.563 47.025,20.35 46.25,19.975 l -1.125,-0.563 c 0.375,0.15 2.138,-1.313 5.288,-4.387 l 1.537,0.3 c 1.05,0.225 1.712,0.437 1.987,0.638 0.451,0.3 0.588,0.587 0.414,0.862 z m -2.138,0.263 c 0.3,-0.125 0.463,-0.313 0.487,-0.563 0,-0.301 -0.288,-0.475 -0.862,-0.525 -0.426,-0.025 -0.862,0.037 -1.313,0.188 -0.45,0.125 -0.688,0.263 -0.713,0.412 -0.025,0.15 0.313,0.288 1.013,0.413 0.675,0.125 1.138,0.149 1.388,0.075 z"
   style="clip-rule:evenodd;fill:#d9870d;fill-rule:evenodd" />
			<path
   inkscape:connector-curvature="0"
   id="path378"
   d="m 47.713,18.888 c 0.149,-0.275 -0.013,-0.475 -0.487,-0.601 -0.501,-0.125 -0.825,0 -0.976,0.375 -0.1,0.226 0.088,0.388 0.563,0.488 0.45,0.075 0.75,-0.013 0.9,-0.262 z m 4.125,-0.075 c -0.125,0.375 -0.013,0.575 0.337,0.6 0.45,0.025 0.838,-0.137 1.163,-0.487 0.3,-0.35 0.012,-0.575 -0.862,-0.675 -0.326,-0.026 -0.538,0.162 -0.638,0.562 z m -2.775,-0.975 c -0.375,0.375 -0.275,0.625 0.3,0.75 0.676,0.174 1.263,0.012 1.763,-0.488 0.475,-0.449 0.176,-0.725 -0.899,-0.824 -0.426,-0.026 -0.815,0.162 -1.164,0.562 z M 53.9,17.425 c -0.025,0.475 0.237,0.638 0.787,0.487 -0.05,0.65 -0.425,1.175 -1.125,1.575 -0.425,0.25 -0.938,0.425 -1.537,0.524 l -0.75,0.076 c -0.25,-0.251 -0.638,-0.388 -1.163,-0.413 -0.35,-0.025 -0.637,0.075 -0.862,0.3 l -0.263,0.338 c -0.375,-0.025 -0.774,-0.074 -1.199,-0.15 -0.25,-0.024 -0.763,-0.225 -1.538,-0.6 L 45.125,19 c 0.375,0.125 2.138,-1.337 5.288,-4.388 l 1.199,0.075 c 0.851,0.075 1.413,0.212 1.688,0.412 0.425,0.301 0.775,0.738 1.051,1.313 -0.075,0.05 -0.15,0.125 -0.226,0.226 C 54,16.862 53.926,17.125 53.9,17.425 Z m -1.2,-1.35 c 0,-0.3 -0.288,-0.463 -0.862,-0.487 -0.426,-0.025 -0.862,0.037 -1.313,0.188 -0.45,0.125 -0.688,0.262 -0.713,0.412 -0.025,0.15 0.313,0.288 1.013,0.412 0.675,0.125 1.138,0.138 1.388,0.038 0.3,-0.1 0.463,-0.288 0.487,-0.563 z"
   style="clip-rule:evenodd;fill:#ffa826;fill-rule:evenodd" />
			<path
   inkscape:connector-curvature="0"
   id="path380"
   d="m 42.5,21.926 c 0.601,-0.051 1.163,-0.126 1.688,-0.227 l 0.375,0.713 c -0.575,0.476 -1.087,0.763 -1.537,0.863 -0.3,0.074 -0.601,0.188 -0.9,0.338 L 41.751,23.801 41.639,23.35 V 22.6 Z"
   style="clip-rule:evenodd;fill:#d9870d;fill-rule:evenodd" />
			<path
   inkscape:connector-curvature="0"
   id="path382"
   d="m 26.45,20.949 2.475,-0.787 0.338,0.863 -0.638,0.338 c -0.425,0.225 -0.899,0.424 -1.425,0.6 h -0.338 c -0.2,0 -1.025,-0.125 -2.475,-0.375 l -0.075,-0.525 z"
   style="clip-rule:evenodd;fill:#d9870d;fill-rule:evenodd" />
			<path
   inkscape:connector-curvature="0"
   id="path384"
   d="m 25.362,20.051 c 0.55,0.049 1.851,0.124 3.9,0.225 -1,0.8 -1.775,1.199 -2.325,1.199 -0.35,0 -0.887,-0.063 -1.612,-0.188 l -1.013,-0.225 c 0.075,-0.175 0.175,-0.35 0.3,-0.525 0.226,-0.349 0.475,-0.513 0.75,-0.486 z"
   style="clip-rule:evenodd;fill:#ffa826;fill-rule:evenodd" />
			<path
   inkscape:connector-curvature="0"
   id="path386"
   d="m 41.75,23.801 c -1.625,-0.851 -2.938,-1.738 -3.938,-2.664 -0.625,-0.6 -0.175,-0.687 1.351,-0.262 0.774,0.225 1.6,0.5 2.475,0.824 z"
   style="clip-rule:evenodd;fill:#ffc042;fill-rule:evenodd" />
			<path
   inkscape:connector-curvature="0"
   id="path388"
   d="m 44.188,21.699 c -0.475,0.101 -1.025,0.326 -1.649,0.676 l -0.788,0.488 C 40.726,22.488 39.901,22.15 39.276,21.849 L 36.2,20.5 l 3,-0.338 2.813,0.863 c 0.875,0.299 1.599,0.526 2.175,0.674 z"
   style="clip-rule:evenodd;fill:#ffa826;fill-rule:evenodd" />
			<path
   inkscape:connector-curvature="0"
   id="path390"
   d="m 34.7,21.176 c 1.7,-0.726 2.538,-0.501 2.513,0.674 0,0.301 -0.063,0.513 -0.188,0.639 -0.175,0.199 -0.55,0.362 -1.125,0.486 -0.525,0.125 -1.05,0.176 -1.575,0.15 l -0.638,-0.113 c -0.075,0.15 -0.188,0.288 -0.337,0.414 -0.15,0.124 -0.463,0.499 -0.938,1.125 l -0.563,-0.338 -1.313,-0.451 -0.15,-0.486 0.862,-0.225 z"
   style="clip-rule:evenodd;fill:#69542b;fill-rule:evenodd" />
			<path
   inkscape:connector-curvature="0"
   id="path392"
   d="m 33.612,19 c 0.325,0.05 1.088,0.338 2.288,0.863 1.175,0.5 1.562,1.062 1.162,1.688 -0.3,0.475 -0.825,0.812 -1.575,1.012 -0.425,0.101 -0.887,0.125 -1.387,0.074 l -0.638,-0.074 -1.237,1.238 -1.838,-0.525 c 0.2,-0.2 0.512,-0.425 0.938,-0.676 0.45,-0.25 0.8,-0.486 1.05,-0.713 -0.65,-0.375 -1.262,-0.762 -1.837,-1.162 -0.4,-0.25 -0.313,-0.587 0.262,-1.012 0.55,-0.375 1.125,-0.601 1.726,-0.676 0.649,-0.05 1.012,-0.062 1.086,-0.037 z"
   style="clip-rule:evenodd;fill:#bf984d;fill-rule:evenodd" />
			<path
   inkscape:connector-curvature="0"
   id="path394"
   d="m 50.75,19.412 -0.6,-0.037 0.263,0.15 c 0.225,0.1 0.449,0.162 0.675,0.188 0.375,0.05 0.875,0.074 1.5,0.074 l 0.037,0.412 -0.675,0.488 c -0.225,0.15 -0.388,0.325 -0.487,0.525 l -0.112,0.225 -0.863,-0.375 -1.649,-0.525 c -0.35,0.451 -0.9,0.713 -1.65,0.787 -0.45,0.051 -0.787,-0.012 -1.013,-0.188 L 45.988,20.837 45.838,19.9 h 0.75 c 0.175,0 0.612,-0.163 1.313,-0.488 l 4.05,-1.012 0.15,0.637 c 0.074,0.15 -0.063,0.263 -0.413,0.338 -0.2,0.05 -0.512,0.063 -0.938,0.037 z"
   style="clip-rule:evenodd;fill:#69542b;fill-rule:evenodd" />
			<path
   inkscape:connector-curvature="0"
   id="path396"
   d="m 47.9,17.95 c 0.55,-0.275 1.074,-0.438 1.575,-0.487 0.6,-0.075 1.212,0.05 1.837,0.375 0.625,0.325 0.825,0.612 0.601,0.862 -0.175,0.225 -0.501,0.35 -0.976,0.375 H 50.3 l 0.976,0.412 c 0.425,0.125 0.862,0.226 1.313,0.3 l -0.525,0.338 c -0.175,0.101 -0.375,0.262 -0.6,0.488 l -0.3,0.299 -0.525,-0.262 -1.875,-0.676 c -0.075,0.15 -0.225,0.301 -0.45,0.451 -0.425,0.249 -0.962,0.324 -1.612,0.225 -0.7,-0.125 -0.975,-0.463 -0.825,-1.013 0.15,-0.475 0.426,-0.813 0.825,-1.013 0.223,-0.099 0.623,-0.324 1.198,-0.674 z"
   style="clip-rule:evenodd;fill:#bf984d;fill-rule:evenodd" />
			<path
   inkscape:connector-curvature="0"
   id="path398"
   d="m 48.875,19.975 c -0.225,-0.15 -0.425,-0.225 -0.6,-0.225 -0.075,0 -0.2,0.063 -0.375,0.188 -0.175,0.125 -0.325,0.175 -0.45,0.15 -0.225,-0.025 -0.263,-0.163 -0.112,-0.413 0.149,-0.25 0.399,-0.375 0.75,-0.375 0.55,0 0.812,0.225 0.787,0.675 z"
   style="clip-rule:evenodd;fill:#69542b;fill-rule:evenodd" />
			<path
   inkscape:connector-curvature="0"
   id="path400"
   d="M 50.413,19.075 C 50.312,19 50.225,18.912 50.15,18.812 50,18.637 50,18.474 50.15,18.325 c 0.175,-0.175 0.387,-0.25 0.638,-0.226 0.249,0 0.312,0.075 0.188,0.226 z"
   style="clip-rule:evenodd;fill:#69542b;fill-rule:evenodd" />
			<path
   inkscape:connector-curvature="0"
   id="path402"
   d="m 56.638,12.7 c -0.55,0.45 -0.987,0.837 -1.313,1.162 l -0.487,0.487 0.938,-0.112 c 0.675,0 1.087,0.212 1.237,0.638 0.175,0.45 0.15,0.925 -0.075,1.425 -0.324,0.675 -0.949,1.088 -1.875,1.237 -1.3,0.175 -2.574,0.038 -3.825,-0.412 -1.475,-0.55 -2.075,-1.363 -1.8,-2.438 0.2,-0.75 0.675,-1.1 1.425,-1.05 l 2.476,0.563 1.274,-1.088 0.45,-0.487 0.45,-0.3 c 0.351,-0.175 0.649,-0.238 0.9,-0.188 0.124,0.026 0.2,0.213 0.225,0.563 z"
   style="clip-rule:evenodd;fill:#69542b;fill-rule:evenodd" />
			<path
   inkscape:connector-curvature="0"
   id="path404"
   d="m 56.487,12.138 -1.762,1.649 h 0.637 c 0.501,0.05 0.925,0.226 1.275,0.525 0.45,0.425 0.538,0.913 0.263,1.463 -0.325,0.575 -0.988,0.938 -1.987,1.087 -1.226,0.175 -2.45,0.063 -3.676,-0.337 C 49.838,16.05 49.25,15.412 49.475,14.612 49.8,13.487 50.724,13.1 52.249,13.45 l 0.976,0.188 1.237,-1.088 c 0.225,-0.275 0.375,-0.425 0.45,-0.45 l 0.149,-0.074 c 0.125,-0.025 0.325,-0.025 0.601,0 z"
   style="clip-rule:evenodd;fill:#bf984d;fill-rule:evenodd" />
			<path
   inkscape:connector-curvature="0"
   id="path406"
   d="m 53.226,13.638 c -0.2,0.3 -0.55,0.587 -1.051,0.862 -0.824,0.425 -1.374,0.45 -1.649,0.075 -0.1,-0.175 -0.025,-0.325 0.225,-0.45 0.226,-0.1 0.537,-0.137 0.938,-0.112 0.499,0.05 1.011,-0.075 1.537,-0.375 z"
   style="clip-rule:evenodd;fill:#69542b;fill-rule:evenodd" />
			<path
   inkscape:connector-curvature="0"
   id="path408"
   d="m 54.726,13.787 v 0.301 c 0.024,0.25 0.124,0.462 0.3,0.637 0.149,0.15 0.337,0.238 0.563,0.263 0.149,0.025 0.225,0.088 0.225,0.188 0,0.226 -0.199,0.375 -0.6,0.45 -0.4,0.1 -0.688,-0.05 -0.862,-0.45 -0.15,-0.35 -0.126,-0.688 0.074,-1.013 0.074,-0.15 0.174,-0.276 0.3,-0.376 z"
   style="clip-rule:evenodd;fill:#69542b;fill-rule:evenodd" />
			<path
   inkscape:connector-curvature="0"
   id="path410"
   d="M 52.213,9.25 53.3,8.8 c 0.75,-0.3 1.213,-0.4 1.388,-0.3 0.275,0.125 0.3,0.487 0.075,1.088 -0.125,0.174 -0.388,0.425 -0.787,0.75 -0.75,0.6 -1.851,0.824 -3.301,0.675 -1.125,-0.1 -1.825,-0.525 -2.1,-1.275 -0.05,-0.125 -0.05,-0.362 0,-0.712 l 0.112,-0.488 z"
   style="clip-rule:evenodd;fill:#69542b;fill-rule:evenodd" />
			<path
   inkscape:connector-curvature="0"
   id="path412"
   d="m 52.138,8.05 0.938,-0.188 c 0.7,-0.075 1.237,0.088 1.612,0.487 0.45,0.475 0.15,0.976 -0.899,1.5 -1.075,0.525 -2.226,0.65 -3.45,0.375 -1.125,-0.25 -1.688,-0.687 -1.688,-1.313 -0.025,-0.5 0.213,-0.875 0.712,-1.125 h 1.125 l 1.125,-0.449 z"
   style="clip-rule:evenodd;fill:#bf984d;fill-rule:evenodd" />
			<path
   inkscape:connector-curvature="0"
   id="path414"
   d="m 22.775,20.012 c 0.075,0 0.987,0.051 2.737,0.15 1.825,0.15 2.963,0.388 3.412,0.713 0.676,0.476 0.488,0.987 -0.563,1.537 -1.1,0.626 -2.562,0.763 -4.387,0.412 -1.726,-0.349 -2.525,-0.911 -2.4,-1.688 0.101,-0.749 0.501,-1.124 1.201,-1.124 z"
   style="clip-rule:evenodd;fill:#69542b;fill-rule:evenodd" />
			<path
   inkscape:connector-curvature="0"
   id="path416"
   d="m 23,19.9 c 0.075,0 0.925,0.024 2.55,0.074 1.701,0.076 2.788,0.275 3.263,0.6 0.601,0.451 0.45,0.863 -0.45,1.238 -1,0.4 -2.438,0.5 -4.313,0.301 -1.75,-0.2 -2.537,-0.626 -2.362,-1.275 C 21.863,20.212 22.3,19.9 23,19.9 Z"
   style="clip-rule:evenodd;fill:#bf984d;fill-rule:evenodd" />
			
				<use
   id="use418"
   style="overflow:visible;opacity:0.64060005;enable-background:new"
   transform="matrix(0.75,0,0,-0.75,-52.06152,127.44433)"
   y="-17.950001"
   x="0.021"
   height="17.979"
   width="48.933998"
   xlink:href="#flash0.ai_x5F_3_x2F_Layer_4_copy_x2F__x3C_Path_x3E__x5F_45" />
			<path
   inkscape:connector-curvature="0"
   id="path420"
   d="m 50.413,4.787 c 0.3,0.1 0.587,0.375 0.862,0.825 0.25,0.425 0.375,0.8 0.375,1.125 0,0.25 0.237,0.587 0.712,1.013 0.55,0.475 0.838,0.75 0.863,0.825 0.824,1.175 1.024,2.05 0.6,2.625 0,0.025 -0.399,0.524 -1.2,1.5 -0.5,0.575 -0.75,0.95 -0.75,1.125 0,0.175 -0.438,0.638 -1.313,1.388 -1,0.85 -1.662,1.412 -1.987,1.688 -0.5,0.449 -1.463,1.037 -2.888,1.762 -1.475,0.775 -2.475,1.175 -3,1.201 -1.05,0.075 -2.637,0.299 -4.763,0.674 -1.45,0.076 -2.625,0.163 -3.524,0.264 -0.725,0.1 -1.2,0.175 -1.425,0.225 -0.375,0.05 -0.788,0.012 -1.238,-0.113 -0.225,-0.05 -0.675,-0.262 -1.35,-0.637 -0.525,-0.301 -1.063,-0.413 -1.612,-0.338 -1.675,0.225 -3.013,0.237 -4.013,0.037 -0.175,-0.024 -0.775,-0.2 -1.8,-0.524 -0.825,-0.25 -1.438,-0.388 -1.838,-0.413 -1.15,0 -1.937,0.025 -2.362,0.075 -0.725,0.1 -1.038,0.463 -0.938,1.087 0.075,0.676 -0.013,0.676 -0.263,0 -0.175,-0.449 -0.075,-0.849 0.3,-1.199 0.425,-0.425 1.763,-1.1 4.013,-2.025 2.25,-0.899 4.1,-1.524 5.55,-1.875 1.15,-0.275 3.25,-1.125 6.301,-2.55 3.549,-1.675 5.462,-2.563 5.737,-2.662 1.475,-0.575 3.65,-1.675 6.524,-3.3 1.825,-0.9 2.8,-1.388 2.926,-1.463 0.751,-0.327 1.25,-0.439 1.501,-0.34 z"
   style="clip-rule:evenodd;fill:#edc913;fill-rule:evenodd" />
			<path
   inkscape:connector-curvature="0"
   id="path422"
   d="m 57.4,14.8 0.05,0.15 c 0.066,0.4 0.116,0.8 0.149,1.2 0,0.333 0,0.817 0,1.45 -0.033,0.6 -0.166,1.05 -0.399,1.35 -0.267,0.4 -1.017,0.9 -2.25,1.5 -1.033,0.434 -1.884,0.983 -2.55,1.649 -0.4,0.4 -0.767,0.684 -1.101,0.851 -0.016,0.008 -0.032,0.016 -0.05,0.024 -0.019,-0.008 -0.035,-0.016 -0.05,-0.024 -0.166,-0.143 -0.308,-0.284 -0.425,-0.425 0.35,-0.202 0.625,-0.394 0.824,-0.575 0.301,-0.3 0.65,-0.7 1.051,-1.2 0.399,-0.366 0.949,-0.7 1.649,-1 0.566,-0.233 1.217,-0.517 1.95,-0.85 0.5,-0.267 0.783,-0.633 0.85,-1.1 0.235,-1.433 0.336,-2.433 0.302,-3 z m -3.55,-3.6 c 0.334,-0.5 0.167,-1.317 -0.5,-2.45 0.634,0.667 0.95,1.383 0.95,2.15 0,0.367 -0.133,0.7 -0.399,1 -0.334,0.333 -0.567,0.583 -0.7,0.75 -0.367,0.333 -0.634,0.7 -0.8,1.1 -0.2,0.467 -0.351,0.783 -0.45,0.95 -0.434,0.633 -1.25,1.45 -2.45,2.45 -1.4,1.133 -2.634,1.934 -3.7,2.4 -0.934,0.434 -1.7,0.733 -2.3,0.9 l -3.15,0.5 c -1.033,0.2 -1.967,0.333 -2.8,0.399 -0.267,0.034 -0.883,0.034 -1.85,0 -0.9,0 -1.55,0.051 -1.95,0.15 -0.6,0.233 -1.25,0.217 -1.95,-0.05 -0.533,-0.267 -0.883,-0.434 -1.05,-0.5 -0.3,-0.101 -0.583,-0.167 -0.85,-0.2 -0.433,-0.033 -1.4,-0.05 -2.9,-0.05 -1.567,0 -2.867,-0.167 -3.9,-0.5 -1.5,-0.534 -2.7,-0.75 -3.6,-0.65 -0.8,0.1 -1.217,0.15 -1.25,0.15 -0.267,0.1 -0.283,0.316 -0.05,0.649 0.167,0.267 0.6,0.5 1.3,0.7 0.8,0.2 1.3,0.367 1.5,0.5 0.033,0.033 0.3,0.267 0.8,0.7 0.267,0.267 0.633,0.467 1.1,0.6 1.067,0.301 2.067,0.65 3,1.051 0.3,0.1 0.817,0.199 1.55,0.3 0.767,0.1 1.3,0.2 1.6,0.3 0.9,0.3 2.167,0.55 3.8,0.75 l 3.75,0.35 c 1.333,0.134 2.55,0.067 3.65,-0.199 1.233,-0.301 2.167,-0.384 2.8,-0.25 0.367,0.066 0.684,0.166 0.95,0.3 0.1,-0.033 0.55,-0.184 1.35,-0.45 0.197,-0.076 0.39,-0.151 0.575,-0.225 0.434,0.09 0.825,0.156 1.175,0.199 -0.364,0.134 -0.814,0.275 -1.35,0.426 -1.066,0.333 -1.767,0.466 -2.1,0.399 l -1.15,-0.2 c -0.333,-0.033 -0.8,0.017 -1.4,0.15 -1.533,0.4 -2.783,0.6 -3.75,0.6 -0.4,0 -0.8,-0.05 -1.2,-0.149 -0.333,-0.101 -0.683,-0.167 -1.05,-0.2 -1.2,0 -2.017,-0.017 -2.45,-0.05 -0.267,-0.033 -1.333,-0.217 -3.2,-0.55 l -1.05,-0.2 c -0.667,-0.2 -1.283,-0.334 -1.85,-0.4 -0.3,-0.066 -0.9,-0.25 -1.8,-0.55 -1.167,-0.533 -1.967,-0.833 -2.4,-0.9 -0.4,-0.033 -0.883,-0.35 -1.45,-0.949 -0.367,-0.367 -0.767,-0.617 -1.2,-0.75 -1.233,-0.4 -1.917,-0.767 -2.05,-1.101 -0.333,-0.667 -0.233,-1.133 0.3,-1.4 0.433,-0.233 1.5,-0.267 3.2,-0.1 0.434,0.034 1.083,0.184 1.95,0.45 0.767,0.233 1.267,0.35 1.5,0.35 0.033,0 0.433,0.05 1.2,0.15 0.6,0.033 1.15,0.033 1.65,0 1.7,-0.133 2.933,0.017 3.7,0.45 0.4,0.267 0.767,0.416 1.1,0.45 0.1,0 0.5,-0.034 1.2,-0.101 0.7,-0.066 1.85,-0.116 3.45,-0.149 0.4,-0.034 0.95,-0.117 1.65,-0.25 0.7,-0.167 1.25,-0.25 1.65,-0.25 l 2.5,-0.3 c 0.533,0 1.533,-0.4 3,-1.2 1.434,-0.7 2.399,-1.283 2.899,-1.75 0.301,-0.267 0.95,-0.833 1.95,-1.7 0.9,-0.733 1.351,-1.184 1.351,-1.35 0,-0.2 0.25,-0.583 0.75,-1.15 0.799,-0.967 1.199,-1.467 1.199,-1.5 z"
   style="clip-rule:evenodd;fill:#fff273;fill-rule:evenodd" />
			<path
   inkscape:connector-curvature="0"
   id="path424"
   d="m 33.65,19.075 c 0.225,0.025 0.587,0 1.087,-0.075 0.025,0.075 -0.037,0.175 -0.188,0.3 -0.125,0.1 -0.188,0.188 -0.188,0.263 -0.149,0.025 -0.35,-0.025 -0.6,-0.15 -0.3,-0.149 -0.5,-0.237 -0.6,-0.262 -0.525,-0.125 -1,-0.088 -1.426,0.112 -0.1,0.1 -0.2,0.163 -0.3,0.188 -0.1,0.025 -0.263,0.012 -0.487,-0.038 -0.225,-0.05 -0.388,-0.074 -0.487,-0.074 -0.375,0.125 -0.675,0.212 -0.9,0.262 -0.925,0.175 -1.775,0.237 -2.55,0.188 -0.425,0 -0.775,-0.012 -1.05,-0.037 -0.5,-0.025 -0.725,-0.15 -0.675,-0.375 h 0.037 c 0.05,-0.05 0.288,-0.075 0.713,-0.075 0.074,0 0.287,-0.05 0.637,-0.149 0.201,-0.05 0.351,-0.063 0.45,-0.038 0.3,0.1 0.463,0.15 0.487,0.15 0.175,0.05 0.45,0.025 0.825,-0.075 l 0.862,-0.15 c 0.425,-0.125 0.65,-0.188 0.676,-0.188 0.149,-0.024 0.287,-0.05 0.412,-0.074 0.075,0 0.125,-0.075 0.15,-0.226 0.05,-0.175 -0.075,-0.325 -0.375,-0.45 -0.576,-0.25 -0.913,-0.437 -1.013,-0.563 -0.275,-0.275 -0.475,-0.449 -0.601,-0.524 -0.1,-0.05 -0.325,-0.238 -0.675,-0.563 -0.25,-0.275 -0.512,-0.425 -0.787,-0.45 -0.25,-0.025 -0.525,0.075 -0.825,0.3 -0.35,0.275 -0.587,0.438 -0.713,0.487 -0.024,0 -0.475,0.013 -1.35,0.038 -0.625,0.025 -0.95,0.188 -0.975,0.487 0.3,0.1 0.712,0.125 1.237,0.075 0.275,-0.025 0.688,-0.075 1.237,-0.15 0.525,-0.025 1.375,0.075 2.55,0.3 -0.05,0.201 -0.225,0.325 -0.524,0.375 -0.025,0 -0.313,0 -0.863,0 -1.025,-0.05 -1.787,-0.062 -2.287,-0.037 -0.9,0.1 -1.587,0.15 -2.063,0.15 -0.375,0 -0.663,-0.025 -0.862,-0.075 -0.35,-0.175 -0.563,-0.263 -0.638,-0.263 -0.05,-0.2 0.05,-0.338 0.3,-0.412 0.125,-0.025 0.338,-0.063 0.638,-0.113 0.65,-0.275 1,-0.412 1.05,-0.412 0.375,-0.1 0.813,-0.238 1.313,-0.412 l 1.275,-0.488 -0.038,0.075 c 0.125,-0.025 0.238,-0.1 0.338,-0.225 0.1,-0.15 0.2,-0.238 0.3,-0.263 0.125,-0.05 0.45,-0.1 0.976,-0.15 0.225,-0.05 0.612,-0.174 1.162,-0.375 0.525,-0.149 0.913,-0.188 1.162,-0.112 -0.05,0.125 -0.35,0.3 -0.899,0.525 -0.425,0.175 -0.55,0.4 -0.375,0.675 0.125,0.175 0.524,0.412 1.2,0.713 0.25,0.2 0.675,0.449 1.274,0.75 0.45,0.225 0.688,0.35 0.713,0.375 0.075,0.1 0.112,0.237 0.112,0.412 0.075,0.175 0.163,0.275 0.263,0.3 0.125,0.075 0.225,0.1 0.3,0.075 0.15,-0.025 0.238,-0.037 0.263,-0.037 0.378,0.022 0.815,0.185 1.315,0.485 z"
   style="clip-rule:evenodd;fill:#d4ae1e;fill-rule:evenodd" />
			<path
   inkscape:connector-curvature="0"
   id="path426"
   d="m 36.8,14.05 c 0.325,-0.025 0.726,0.013 1.2,0.112 0.625,0.1 0.875,0.275 0.75,0.525 -0.1,0.175 -0.425,0.325 -0.975,0.45 -0.575,0.1 -0.95,0.1 -1.125,0 0.025,-0.05 0.275,-0.163 0.75,-0.338 0.325,-0.125 0.25,-0.2 -0.226,-0.225 -0.6,-0.05 -1.137,0.062 -1.612,0.337 0.05,0.201 0.063,0.338 0.038,0.413 -0.45,-0.025 -0.775,-0.013 -0.976,0.037 -0.125,0.025 -0.237,0.075 -0.337,0.15 -0.175,0.1 -0.288,0.163 -0.338,0.188 -0.35,0.125 -0.6,0.163 -0.75,0.112 -0.1,-0.05 -0.175,-0.1 -0.225,-0.15 -0.075,-0.1 -0.15,-0.162 -0.226,-0.188 -0.149,-0.05 -0.575,-0.012 -1.274,0.113 -0.601,0.125 -0.988,0.1 -1.163,-0.075 -0.175,-0.175 0.013,-0.275 0.563,-0.3 0.275,-0.025 0.613,-0.025 1.013,0 L 32,15.175 c 0.1,-0.125 0.325,-0.212 0.675,-0.263 0.15,-0.024 0.4,-0.024 0.75,0 l 0.413,-0.188 c 0.825,-0.375 1.288,-0.575 1.388,-0.6 0.299,-0.049 0.824,-0.074 1.574,-0.074 z"
   style="clip-rule:evenodd;fill:#d4ae1e;fill-rule:evenodd" />
			<path
   inkscape:connector-curvature="0"
   id="path428"
   d="m 34.025,12.963 0.112,-0.038 c 0.25,-0.05 0.512,-0.137 0.787,-0.263 0.15,-0.1 0.375,-0.237 0.676,-0.412 0.5,-0.25 0.8,-0.325 0.899,-0.225 0.175,0.149 0.05,0.337 -0.375,0.563 0.425,0.25 0.413,0.412 -0.037,0.487 -0.625,0.05 -1.013,0.1 -1.163,0.149 0.025,0.05 0.075,0.125 0.15,0.226 0.05,0.1 0.05,0.175 0,0.225 -0.025,0.025 -0.3,-0.025 -0.825,-0.149 -0.2,-0.025 -0.475,0.012 -0.825,0.112 -0.35,0.1 -0.637,0.137 -0.862,0.112 0.05,-0.25 0.25,-0.425 0.601,-0.525 0.174,-0.05 0.462,-0.138 0.862,-0.262 z"
   style="clip-rule:evenodd;fill:#d4ae1e;fill-rule:evenodd" />
			<path
   inkscape:connector-curvature="0"
   id="path430"
   d="m 33.688,18.25 c -0.55,0.15 -0.85,0.075 -0.899,-0.225 -0.301,-0.025 -0.55,-0.088 -0.75,-0.188 -0.201,-0.175 -0.375,-0.325 -0.525,-0.45 -0.2,-0.075 -0.35,-0.138 -0.45,-0.188 C 30.888,17.1 30.8,17 30.8,16.9 c -0.024,-0.201 0.226,-0.263 0.75,-0.188 l 0.038,0.112 c 0.025,0 0.225,0.05 0.6,0.149 0.225,0.027 0.312,0.139 0.262,0.34 0.75,0.1 1.275,0.125 1.575,0.075 0.575,-0.075 0.775,0.025 0.6,0.3 -0.125,0.2 -0.437,0.387 -0.937,0.562 z"
   style="clip-rule:evenodd;fill:#d4ae1e;fill-rule:evenodd" />
			<path
   inkscape:connector-curvature="0"
   id="path432"
   d="m 37.138,16.638 c 0.125,0.05 0.013,0.137 -0.338,0.263 -0.275,0.1 -0.512,0.112 -0.712,0.037 -0.5,-0.2 -0.888,-0.275 -1.163,-0.225 -0.425,0.074 -0.75,0.112 -0.975,0.112 -0.675,0.05 -1.075,-0.05 -1.2,-0.3 -0.05,-0.1 0.112,-0.188 0.487,-0.263 0.375,-0.075 0.588,-0.063 0.638,0.037 0.075,0.175 0.313,0.238 0.713,0.188 0.2,-0.025 0.487,-0.075 0.862,-0.149 0.4,-0.025 0.963,0.074 1.688,0.3 z"
   style="clip-rule:evenodd;fill:#d4ae1e;fill-rule:evenodd" />
			<path
   inkscape:connector-curvature="0"
   id="path434"
   d="m 35.263,19.6 c -0.1,-0.074 0.025,-0.162 0.375,-0.262 0.325,-0.1 0.55,-0.113 0.675,-0.038 0.2,0.125 0.463,0.2 0.788,0.226 0.2,0 0.487,-0.013 0.862,-0.038 0.475,0.025 1.162,-0.025 2.063,-0.149 0.5,-0.025 0.35,0.1 -0.45,0.375 -0.65,0.1 -1.15,0.15 -1.5,0.15 h -1.05 C 36.125,19.863 35.538,19.775 35.263,19.6 Z"
   style="clip-rule:evenodd;fill:#d4ae1e;fill-rule:evenodd" />
			<path
   inkscape:connector-curvature="0"
   id="path436"
   d="m 36.95,18.1 c 0.225,0 0.338,0.038 0.338,0.113 0,0.149 -0.201,0.262 -0.601,0.337 -0.7,0.15 -1.037,0.075 -1.013,-0.225 0.025,-0.125 0.213,-0.212 0.563,-0.263 0.355,-0.047 0.53,-0.041 0.525,0.019 0.082,0.002 0.145,0.008 0.188,0.019 z"
   style="clip-rule:evenodd;fill:#d4ae1e;fill-rule:evenodd" />
			<path
   inkscape:connector-curvature="0"
   id="path438"
   d="m 44.9,18.438 -0.038,0.112 c -0.2,0.175 -0.462,0.275 -0.787,0.3 -0.351,0.025 -0.65,-0.024 -0.9,-0.149 l -0.037,-0.075 c 0.024,-0.05 0.112,-0.112 0.263,-0.188 0.039,-0.018 0.076,-0.037 0.112,-0.057 0.021,-0.006 0.039,-0.013 0.057,-0.019 0.043,-0.014 0.087,-0.026 0.131,-0.037 0.205,-0.095 0.43,-0.12 0.675,-0.075 0.299,0.05 0.474,0.112 0.524,0.188 z"
   style="clip-rule:evenodd;fill:#d4ae1e;fill-rule:evenodd" />
			<path
   inkscape:connector-curvature="0"
   id="path440"
   d="m 42.313,18.888 c 0.2,0.149 0.3,0.237 0.3,0.263 -0.074,0.149 -0.188,0.262 -0.337,0.337 -0.375,0.2 -0.788,0.238 -1.237,0.112 -0.1,-0.024 -0.175,-0.074 -0.226,-0.149 -0.025,-0.075 0,-0.15 0.075,-0.226 0.075,-0.074 0.212,-0.137 0.412,-0.188 0.049,-0.017 0.093,-0.029 0.132,-0.037 0.032,-0.027 0.063,-0.052 0.094,-0.075 0.299,-0.15 0.562,-0.163 0.787,-0.037 z"
   style="clip-rule:evenodd;fill:#d4ae1e;fill-rule:evenodd" />
			<path
   inkscape:connector-curvature="0"
   id="path442"
   d="m 34.663,19.563 0.3,0.075 c 0.125,0 0.137,0.05 0.037,0.149 -0.375,0.425 -0.962,0.538 -1.763,0.338 -0.074,-0.025 -0.225,0.013 -0.449,0.113 -0.275,0.1 -0.438,0.148 -0.488,0.148 -0.3,0.076 -0.6,0.076 -0.899,0 -0.075,0 -0.112,-0.037 -0.112,-0.111 0.149,-0.425 0.787,-0.638 1.912,-0.638 0.188,0 0.301,0.019 0.338,0.056 0.114,0 0.252,0.012 0.412,0.038 l 0.037,-0.019 c 0.275,-0.125 0.5,-0.174 0.675,-0.149 z"
   style="clip-rule:evenodd;fill:#d4ae1e;fill-rule:evenodd" />
			<path
   inkscape:connector-curvature="0"
   id="path444"
   d="m 48.237,12.4 c 0.325,0.074 0.425,0.188 0.301,0.337 -0.126,0.2 -0.463,0.463 -1.013,0.788 -0.25,0.2 -0.513,0.225 -0.788,0.074 -0.2,-0.1 -0.175,-0.237 0.075,-0.412 0.351,-0.2 0.575,-0.375 0.675,-0.525 0.151,-0.174 0.401,-0.262 0.75,-0.262 z"
   style="clip-rule:evenodd;fill:#d4ae1e;fill-rule:evenodd" />
			<path
   inkscape:connector-curvature="0"
   id="path446"
   d="m 45.538,17.388 c 0.029,0.007 0.055,0.014 0.074,0.019 0.077,-0.018 0.165,-0.037 0.263,-0.057 0.426,0 0.7,0.025 0.825,0.075 0.15,0.025 0.2,0.125 0.15,0.3 -0.051,0.175 -0.351,0.325 -0.9,0.45 -0.65,0.1 -1.175,-0.05 -1.575,-0.45 0.075,-0.074 0.112,-0.125 0.112,-0.149 0.326,-0.151 0.676,-0.213 1.051,-0.188 z"
   style="clip-rule:evenodd;fill:#d4ae1e;fill-rule:evenodd" />
			<path
   inkscape:connector-curvature="0"
   id="path448"
   d="m 49.213,7.75 c 0.225,0 0.287,0.075 0.188,0.225 C 49.175,8.2 49,8.337 48.875,8.388 48.351,8.513 48.063,8.5 48.013,8.35 c -0.024,-0.074 0,-0.188 0.075,-0.337 0.042,-0.071 0.13,-0.121 0.263,-0.15 0.067,-0.026 0.142,-0.051 0.225,-0.075 l -0.15,0.038 0.113,-0.038 0.188,-0.037 C 48.9,7.725 49.063,7.725 49.213,7.75 Z M 48.463,8.162 48.538,8.2 48.5,8.162 Z"
   style="clip-rule:evenodd;fill:#d4ae1e;fill-rule:evenodd" />
			<path
   inkscape:connector-curvature="0"
   id="path450"
   d="M 41.226,11.575 C 41.1,11.4 41.213,11.25 41.563,11.125 c 0.351,-0.1 0.575,-0.075 0.675,0.075 0.2,0.275 0.213,0.524 0.038,0.75 -0.15,0.175 -0.388,0.263 -0.713,0.263 -0.35,-0.05 -0.463,-0.163 -0.337,-0.338 0.074,-0.1 0.074,-0.2 0,-0.3 z"
   style="clip-rule:evenodd;fill:#d4ae1e;fill-rule:evenodd" />
			<path
   inkscape:connector-curvature="0"
   id="path452"
   d="m 32.112,13.787 c 0.201,0 0.313,0.025 0.338,0.075 0.05,0.075 0,0.138 -0.15,0.188 l -0.037,0.038 -0.112,0.188 -0.263,0.3 c -0.175,0.175 -0.388,0.263 -0.638,0.263 -0.25,0 -0.487,-0.075 -0.712,-0.226 -0.079,-0.059 -0.06,-0.108 0.056,-0.149 -0.085,-0.028 -0.104,-0.078 -0.056,-0.15 0.35,-0.352 0.875,-0.527 1.574,-0.527 z"
   style="clip-rule:evenodd;fill:#d4ae1e;fill-rule:evenodd" />
			<path
   inkscape:connector-curvature="0"
   id="path454"
   d="m 40.175,15.475 c -0.549,0.301 -0.837,0.463 -0.862,0.488 -0.075,0.074 -0.237,0.125 -0.487,0.149 -0.275,0.025 -0.538,0 -0.787,-0.075 -0.325,-0.074 -0.563,-0.137 -0.713,-0.188 -0.225,-0.05 -0.35,-0.112 -0.375,-0.188 -0.025,-0.149 0.475,-0.225 1.5,-0.225 0.375,0 0.713,-0.137 1.013,-0.412 0.4,-0.175 0.675,-0.175 0.825,0 0.149,0.176 0.111,0.326 -0.114,0.451 z"
   style="clip-rule:evenodd;fill:#d4ae1e;fill-rule:evenodd" />
			<path
   inkscape:connector-curvature="0"
   id="path456"
   d="m 40.663,12.362 c 0.375,0.15 0.662,0.288 0.862,0.413 0.1,0.1 -0.063,0.2 -0.487,0.3 -0.525,0.125 -0.813,0.212 -0.863,0.263 -0.074,0.074 0.125,0.2 0.601,0.375 0.575,0.174 0.887,0.287 0.938,0.337 0.05,0.05 0.162,0.088 0.337,0.112 0.2,0.025 0.338,0.063 0.413,0.113 0.125,0.1 0.162,0.262 0.112,0.487 0.024,0.1 0.175,0.149 0.45,0.149 0.25,0 0.425,-0.024 0.524,-0.074 0.101,-0.05 0.013,-0.213 -0.262,-0.488 -0.051,-0.074 0.037,-0.112 0.262,-0.112 0.25,0 0.438,0.05 0.563,0.15 0.15,0.075 0.175,0.263 0.075,0.563 -0.1,0.25 -0.237,0.487 -0.412,0.712 -0.125,0.125 -0.287,0.226 -0.487,0.301 -0.175,0.074 -0.275,0.149 -0.301,0.225 -0.074,0.15 -0.412,0.25 -1.012,0.3 -0.15,0.025 -0.325,0.1 -0.525,0.226 l -0.487,0.3 c -0.1,0.075 -0.3,0.1 -0.601,0.075 -0.3,-0.025 -0.462,-0.025 -0.487,0 -0.05,0.35 -0.212,0.563 -0.487,0.637 -0.4,0.15 -0.837,-0.012 -1.313,-0.487 -0.075,-0.1 0.013,-0.225 0.263,-0.375 0.149,-0.1 0.35,-0.237 0.6,-0.412 0.1,-0.075 0.425,-0.163 0.976,-0.263 0.6,-0.1 0.987,-0.2 1.162,-0.3 0.275,-0.15 0.425,-0.338 0.45,-0.563 0.024,-0.226 -0.075,-0.375 -0.3,-0.45 -0.126,-0.05 -0.238,-0.175 -0.338,-0.375 -0.1,-0.225 -0.188,-0.375 -0.263,-0.45 -0.125,-0.1 -0.437,-0.212 -0.938,-0.337 -0.725,-0.175 -1.137,-0.275 -1.237,-0.301 -0.35,-0.1 -0.35,-0.225 0,-0.375 0.325,-0.149 0.713,-0.212 1.162,-0.188 0.226,0 0.313,-0.1 0.263,-0.3 -0.025,-0.25 -0.025,-0.387 0,-0.412 0.099,-0.025 0.362,0.05 0.787,0.224 z"
   style="clip-rule:evenodd;fill:#d4ae1e;fill-rule:evenodd" />
			<path
   inkscape:connector-curvature="0"
   id="path458"
   d="m 39.2,12.588 c -0.125,-0.025 -0.35,0.012 -0.675,0.112 -0.275,0.05 -0.487,0.037 -0.638,-0.038 -0.175,-0.074 -0.238,-0.188 -0.188,-0.337 0.05,-0.1 0.137,-0.175 0.263,-0.226 l 1.425,-0.563 c 0.2,-0.074 0.225,0.1 0.075,0.525 0,0.025 0.025,0.15 0.075,0.375 0.051,0.152 -0.062,0.202 -0.337,0.152 z"
   style="clip-rule:evenodd;fill:#d4ae1e;fill-rule:evenodd" />
			<path
   inkscape:connector-curvature="0"
   id="path460"
   d="m 38.862,18.813 c -0.149,0 -0.05,-0.125 0.301,-0.375 0.35,-0.25 0.625,-0.4 0.824,-0.45 0.15,-0.025 0.226,-0.125 0.226,-0.3 0,-0.2 0.025,-0.3 0.075,-0.3 0.725,-0.075 1.438,-0.013 2.137,0.188 0.301,0.1 0.438,0.237 0.413,0.412 0,0.175 -0.125,0.288 -0.375,0.338 -0.45,0.1 -0.875,0.263 -1.275,0.487 -0.275,0.15 -1.05,0.15 -2.326,0 z"
   style="clip-rule:evenodd;fill:#d4ae1e;fill-rule:evenodd" />
			<path
   inkscape:connector-curvature="0"
   id="path462"
   d="m 48.5,14.5 c 0.25,-0.2 0.487,-0.25 0.713,-0.15 0.199,0.1 0.275,0.25 0.225,0.45 -0.1,0.475 -0.524,0.862 -1.274,1.163 -0.301,0.125 -0.525,0.25 -0.676,0.375 -0.149,0.1 -0.337,0.188 -0.563,0.262 -0.274,0.1 -0.475,0.15 -0.6,0.15 -0.2,-0.025 -0.438,-0.063 -0.713,-0.112 -0.324,-0.025 -0.662,0.012 -1.012,0.112 -0.476,0.15 -0.775,0.238 -0.9,0.263 -0.325,0.025 -0.55,0.025 -0.675,0 -0.051,0 -0.175,-0.063 -0.375,-0.188 -0.15,-0.1 -0.063,-0.212 0.263,-0.338 0.324,-0.125 0.649,-0.163 0.975,-0.112 0.075,0.025 0.313,-0.125 0.713,-0.45 0.1,-0.025 0.212,-0.137 0.337,-0.337 0.15,-0.201 0.287,-0.338 0.413,-0.413 0.149,-0.1 0.362,-0.112 0.637,-0.037 0.15,0.05 0.362,0.137 0.638,0.263 0.299,0.124 0.924,-0.176 1.874,-0.901 z"
   style="clip-rule:evenodd;fill:#d4ae1e;fill-rule:evenodd" />
			<path
   inkscape:connector-curvature="0"
   id="path464"
   d="m 48.163,14.237 c 0.024,0.1 -0.063,0.188 -0.263,0.263 -0.275,0.125 -0.463,0.225 -0.563,0.3 -0.175,0.15 -0.388,0.226 -0.638,0.226 -0.225,0 -0.388,-0.038 -0.487,-0.113 -0.075,-0.074 -0.063,-0.162 0.037,-0.262 0.1,-0.125 0.287,-0.213 0.563,-0.263 0.85,-0.25 1.3,-0.3 1.351,-0.151 z"
   style="clip-rule:evenodd;fill:#d4ae1e;fill-rule:evenodd" />
			<path
   inkscape:connector-curvature="0"
   id="path466"
   d="m 43.438,12.175 c -0.024,-0.05 0.1,-0.163 0.375,-0.337 0.275,-0.226 0.575,-0.413 0.9,-0.563 0.475,-0.226 1.013,-0.15 1.612,0.225 -0.024,0.1 0.237,0.3 0.787,0.6 0.126,0.1 0.088,0.2 -0.112,0.3 -0.275,0.074 -0.487,0.137 -0.638,0.188 -0.149,0.05 -0.324,0.024 -0.524,-0.075 -0.226,-0.125 -0.388,-0.188 -0.487,-0.188 -0.126,0 -0.413,0.1 -0.863,0.3 -0.475,0.2 -0.763,0.3 -0.862,0.3 -0.125,0.025 -0.313,0.125 -0.563,0.3 -0.3,0.201 -0.537,0.338 -0.712,0.413 -0.25,0.1 -0.438,0.112 -0.563,0.037 -0.101,-0.1 -0.188,-0.188 -0.263,-0.263 -0.1,-0.1 0.013,-0.225 0.337,-0.375 0.175,-0.1 0.45,-0.225 0.825,-0.375 0.576,-0.2 0.826,-0.362 0.751,-0.487 z"
   style="clip-rule:evenodd;fill:#d4ae1e;fill-rule:evenodd" />
			<path
   inkscape:connector-curvature="0"
   id="path468"
   d="m 45.2,12.85 c 0.275,-0.024 0.538,0.038 0.787,0.188 -0.274,0.301 -0.487,0.5 -0.637,0.601 -0.375,0.2 -0.763,0.287 -1.163,0.263 -0.225,-0.025 -0.399,-0.201 -0.524,-0.525 -0.025,-0.1 0.137,-0.212 0.487,-0.338 0.325,-0.101 0.675,-0.164 1.05,-0.189 z"
   style="clip-rule:evenodd;fill:#d4ae1e;fill-rule:evenodd" />
			<path
   inkscape:connector-curvature="0"
   id="path470"
   d="m 45.275,14.313 c 0.175,-0.075 0.263,-0.025 0.263,0.15 0,0.2 -0.063,0.337 -0.188,0.412 -0.15,0.075 -0.3,0.125 -0.45,0.15 -0.175,0 -0.275,-0.063 -0.3,-0.188 -0.025,-0.125 0.037,-0.226 0.188,-0.301 z"
   style="clip-rule:evenodd;fill:#d4ae1e;fill-rule:evenodd" />
			<path
   inkscape:connector-curvature="0"
   id="path472"
   d="m 41.075,10.225 c 0.55,0.05 0.7,0.163 0.45,0.338 -0.275,0.175 -0.475,0.3 -0.601,0.375 -0.174,0.075 -0.412,0.125 -0.712,0.15 -0.275,0.024 -0.725,0.149 -1.351,0.375 -0.8,0.3 -1.212,0.449 -1.237,0.449 -0.225,0.075 -0.313,0.013 -0.263,-0.188 0.075,-0.2 0.201,-0.375 0.375,-0.524 0.075,-0.075 0.363,-0.175 0.863,-0.3 0.549,-0.15 0.938,-0.301 1.162,-0.45 0.326,-0.2 0.764,-0.275 1.314,-0.225 z"
   style="clip-rule:evenodd;fill:#d4ae1e;fill-rule:evenodd" />
			<path
   inkscape:connector-curvature="0"
   id="path474"
   d="m 42.125,9.138 c 0.45,-0.2 0.862,-0.338 1.237,-0.413 0.45,-0.1 0.625,-0.062 0.525,0.113 -0.325,0.5 -0.85,0.812 -1.575,0.938 C 41.613,9.9 41.075,9.875 40.7,9.7 40.525,9.65 40.637,9.562 41.038,9.437 41.713,9.263 42.075,9.163 42.125,9.138 Z"
   style="clip-rule:evenodd;fill:#d4ae1e;fill-rule:evenodd" />
			<path
   inkscape:connector-curvature="0"
   id="path476"
   d="m 48.088,6.138 c 0.5,0.1 0.712,0.2 0.638,0.3 -0.05,0.075 -0.237,0.15 -0.563,0.225 -0.325,0.1 -0.513,0.175 -0.563,0.226 -0.301,0.55 -0.638,0.899 -1.013,1.05 C 46.062,8.139 45.399,8.301 44.6,8.426 44.1,8.475 43.851,8.4 43.851,8.2 c 0,-0.2 0.188,-0.438 0.563,-0.713 0.475,-0.325 1.175,-0.725 2.1,-1.2 0.499,-0.2 1.024,-0.249 1.574,-0.149 z"
   style="clip-rule:evenodd;fill:#d4ae1e;fill-rule:evenodd" />
			<path
   inkscape:connector-curvature="0"
   id="path478"
   d="m 49.25,5.2 c 0.5,-0.275 0.738,-0.212 0.713,0.188 -0.025,0.3 -0.188,0.5 -0.487,0.6 -0.175,0.075 -0.4,0.088 -0.676,0.038 -0.3,-0.1 -0.537,-0.163 -0.712,-0.188 -0.2,-0.05 -0.15,-0.125 0.149,-0.226 C 48.763,5.438 49.101,5.3 49.25,5.2 Z"
   style="clip-rule:evenodd;fill:#d4ae1e;fill-rule:evenodd" />
			<path
   inkscape:connector-curvature="0"
   id="path480"
   d="m 46.851,8.388 c 0.449,-0.125 0.649,-0.05 0.6,0.225 -0.075,0.25 -0.25,0.475 -0.525,0.675 -0.325,0.424 -0.738,0.712 -1.238,0.862 -0.774,0.275 -1.524,0.487 -2.25,0.637 -0.45,0.075 -0.688,0.075 -0.712,0 0.024,-0.125 0.037,-0.237 0.037,-0.337 0,-0.175 0.638,-0.425 1.912,-0.75 0.126,-0.05 0.213,-0.163 0.263,-0.338 0.051,-0.325 0.088,-0.524 0.112,-0.6 0.075,-0.15 0.313,-0.238 0.713,-0.263 0.599,-0.049 0.962,-0.086 1.088,-0.111 z"
   style="clip-rule:evenodd;fill:#d4ae1e;fill-rule:evenodd" />
			<path
   inkscape:connector-curvature="0"
   id="path482"
   d="m 43.362,11.088 c 0.2,-0.025 0.15,0.087 -0.149,0.337 -0.3,0.226 -0.475,0.288 -0.525,0.188 -0.076,-0.25 0.15,-0.425 0.674,-0.525 z"
   style="clip-rule:evenodd;fill:#d4ae1e;fill-rule:evenodd" />
			<path
   inkscape:connector-curvature="0"
   id="path484"
   d="m 48.013,10.375 c 0.325,-0.075 0.663,-0.2 1.013,-0.375 0.375,-0.2 0.625,-0.175 0.75,0.075 0.149,0.225 0.063,0.437 -0.263,0.638 -0.476,0.325 -0.9,0.563 -1.275,0.712 -0.3,0.1 -0.537,0.125 -0.712,0.075 -0.175,-0.075 -0.338,-0.137 -0.487,-0.188 -0.15,-0.025 -0.313,-0.112 -0.488,-0.263 -0.2,-0.2 -0.324,-0.313 -0.375,-0.337 -0.149,-0.1 -0.087,-0.238 0.188,-0.413 C 46.663,10.1 47,10 47.375,10 c 0.2,0 0.287,0.037 0.263,0.112 0,0.05 -0.024,0.125 -0.075,0.226 0,0.074 0.15,0.087 0.45,0.037 z"
   style="clip-rule:evenodd;fill:#d4ae1e;fill-rule:evenodd" />
			<path
   inkscape:connector-curvature="0"
   id="path486"
   d="m 48.5,9.063 c 0.275,-0.025 0.426,0.05 0.45,0.225 0,0.15 -0.175,0.25 -0.525,0.301 C 48.075,9.639 47.95,9.576 48.05,9.401 48.125,9.225 48.275,9.113 48.5,9.063 Z"
   style="clip-rule:evenodd;fill:#d4ae1e;fill-rule:evenodd" />
			<path
   inkscape:connector-curvature="0"
   id="path488"
   d="m 51.05,7.825 c 0.375,-0.025 0.663,0.112 0.863,0.412 0.175,0.3 0.162,0.55 -0.038,0.75 C 51.7,9.138 51.563,9.175 51.463,9.1 51.438,9.076 51.388,8.975 51.313,8.8 51.263,8.725 50.913,8.625 50.263,8.5 49.963,8.425 49.925,8.3 50.151,8.125 50.4,7.95 50.7,7.85 51.05,7.825 Z"
   style="clip-rule:evenodd;fill:#d4ae1e;fill-rule:evenodd" />
			<path
   inkscape:connector-curvature="0"
   id="path490"
   d="M 50.45,7.075 C 50.275,7.224 50.012,7.263 49.663,7.187 49.312,7.112 49.175,7.037 49.25,6.962 c 0.15,-0.15 0.375,-0.226 0.675,-0.226 0.126,0 0.263,0.038 0.413,0.112 0.175,0.077 0.213,0.152 0.112,0.227 z"
   style="clip-rule:evenodd;fill:#d4ae1e;fill-rule:evenodd" />
			<path
   inkscape:connector-curvature="0"
   id="path492"
   d="m 50.15,9.55 c 0.025,-0.025 0.362,-0.062 1.013,-0.112 0.624,-0.075 0.938,0.275 0.938,1.05 0,0.125 -0.063,0.238 -0.188,0.338 L 51.5,11.05 c -0.275,0.175 -0.188,0.413 0.263,0.713 0.3,0.225 0.05,0.45 -0.75,0.675 -0.25,0.075 -0.6,0.037 -1.05,-0.112 -0.45,-0.15 -0.688,-0.275 -0.713,-0.375 0,-0.05 0.226,-0.238 0.675,-0.563 0.525,-0.35 0.825,-0.587 0.9,-0.713 0.101,-0.149 0.05,-0.3 -0.15,-0.45 -0.274,-0.2 -0.487,-0.35 -0.637,-0.449 C 49.888,9.65 49.925,9.575 50.15,9.55 Z"
   style="clip-rule:evenodd;fill:#d4ae1e;fill-rule:evenodd" />
			<path
   inkscape:connector-curvature="0"
   id="path494"
   d="m 49.925,12.813 c 0.251,-0.05 0.413,0.087 0.488,0.412 0.074,0.325 -0.025,0.538 -0.301,0.638 -0.249,0.1 -0.437,0.15 -0.563,0.15 -0.124,-0.025 -0.237,-0.05 -0.337,-0.075 -0.3,-0.1 -0.475,-0.313 -0.525,-0.638 -0.025,-0.149 0.1,-0.25 0.375,-0.3 0.176,-0.05 0.463,-0.112 0.863,-0.187 z"
   style="clip-rule:evenodd;fill:#d4ae1e;fill-rule:evenodd" />
			<path
   inkscape:connector-curvature="0"
   id="path496"
   d="m 51.351,12.813 c 0.124,0.5 0,0.688 -0.375,0.563 -0.476,-0.151 -0.351,-0.339 0.375,-0.563 z"
   style="clip-rule:evenodd;fill:#d4ae1e;fill-rule:evenodd" />
			
				<use
   id="use498"
   style="overflow:visible;opacity:0.78910002;enable-background:new"
   transform="matrix(0.75,0,0,-0.75,-46.86132,125.29393)"
   y="-28.978001"
   x="-0.0070000002"
   height="28.945"
   width="44.771"
   xlink:href="#flash0.ai_x5F_3_x2F_Layer_4_copy_x2F__x3C_Path_x3E__x5F_5" />
			
				<use
   id="use500"
   style="overflow:visible;opacity:0.67189995;enable-background:new"
   transform="matrix(0.75,0,0,-0.75,-45.66112,134.49413)"
   y="-1.434"
   x="-0.0089999996"
   height="1.446"
   width="1.7690001"
   xlink:href="#flash0.ai_x5F_3_x2F_Layer_4_copy_x2F__x3C_Path_x3E__x5F_4" />
			
				<use
   id="use502"
   style="overflow:visible;opacity:0.67189995;enable-background:new"
   transform="matrix(0.75,0,0,-0.75,-37.86132,138.09423)"
   y="-1.772"
   x="-0.013"
   height="1.772"
   width="2.029"
   xlink:href="#flash0.ai_x5F_3_x2F_Layer_4_copy_x2F__x3C_Path_x3E__x5F_3" />
			
				<use
   id="use504"
   style="overflow:visible;opacity:0.67189995;enable-background:new"
   transform="matrix(0.75,0,0,-0.75,-37.51122,144.44433)"
   y="-1.454"
   x="-0.044"
   height="1.457"
   width="1.401"
   xlink:href="#flash0.ai_x5F_3_x2F_Layer_4_copy_x2F__x3C_Path_x3E__x5F_2" />
			
				<use
   id="use506"
   style="overflow:visible;opacity:0.67189995;enable-background:new"
   transform="matrix(0.75,0,0,-0.75,-32.36132,144.69433)"
   y="-0.764"
   x="-0.028999999"
   height="0.75400001"
   width="1.007"
   xlink:href="#flash0.ai_x5F_3_x2F_Layer_4_copy_x2F__x3C_Path_x3E__x5F_1" />
			
				<use
   id="use508"
   style="overflow:visible;opacity:0.67189995;enable-background:new"
   transform="matrix(0.75,0,0,-0.75,-31.61132,145.74413)"
   y="-1.363"
   x="-0.0070000002"
   height="1.431"
   width="2.1960001"
   xlink:href="#flash0.ai_x5F_3_x2F_Layer_4_copy_x2F__x3C_Path_x3E_" />
		</g>
	</g>
</svg>