<?xml version="1.0" encoding="UTF-8" standalone="no"?>
<!-- Generator: Adobe Illustrator 15.1.0, SVG Export Plug-In . SVG Version: 6.00 Build 0)  -->

<svg
   xmlns:dc="http://purl.org/dc/elements/1.1/"
   xmlns:cc="http://creativecommons.org/ns#"
   xmlns:rdf="http://www.w3.org/1999/02/22-rdf-syntax-ns#"
   xmlns:svg="http://www.w3.org/2000/svg"
   xmlns="http://www.w3.org/2000/svg"
   xmlns:xlink="http://www.w3.org/1999/xlink"
   xmlns:sodipodi="http://sodipodi.sourceforge.net/DTD/sodipodi-0.dtd"
   xmlns:inkscape="http://www.inkscape.org/namespaces/inkscape"
   version="1.1"
   id="flash0.ai"
   x="0px"
   y="0px"
   width="256"
   height="256"
   viewBox="0 0 256 255.99999"
   xml:space="preserve"
   sodipodi:docname="pickle.svg"
   inkscape:version="0.92.4 (5da689c313, 2019-01-14)"
   inkscape:export-filename="C:\Users\antum\Development\game-resources\icon\CC0\food\individual\Glitch\32x32\pickle.png"
   inkscape:export-xdpi="10.5"
   inkscape:export-ydpi="10.5"><title
   id="title927">Pickle</title><metadata
   id="metadata120"><rdf:RDF><cc:Work
       rdf:about=""><dc:format>image/svg+xml</dc:format><dc:type
         rdf:resource="http://purl.org/dc/dcmitype/StillImage" /><dc:title>Pickle</dc:title><cc:license
         rdf:resource="http://creativecommons.org/publicdomain/zero/1.0/" /><dc:creator><cc:Agent><dc:title>Glitch</dc:title></cc:Agent></dc:creator><dc:source>https://opengameart.org/node/20149</dc:source></cc:Work><cc:License
       rdf:about="http://creativecommons.org/publicdomain/zero/1.0/"><cc:permits
         rdf:resource="http://creativecommons.org/ns#Reproduction" /><cc:permits
         rdf:resource="http://creativecommons.org/ns#Distribution" /><cc:permits
         rdf:resource="http://creativecommons.org/ns#DerivativeWorks" /></cc:License></rdf:RDF></metadata><defs
   id="defs118"><linearGradient
     inkscape:collect="always"
     xlink:href="#SVGID_1_"
     id="linearGradient919"
     gradientUnits="userSpaceOnUse"
     x1="13.1782"
     y1="-11.0679"
     x2="18.503201"
     y2="-18.2679" /></defs><sodipodi:namedview
   pagecolor="#ffffff"
   bordercolor="#666666"
   borderopacity="1"
   objecttolerance="10"
   gridtolerance="10"
   guidetolerance="10"
   inkscape:pageopacity="0"
   inkscape:pageshadow="2"
   inkscape:window-width="1920"
   inkscape:window-height="1025"
   id="namedview116"
   showgrid="false"
   inkscape:zoom="0.90092396"
   inkscape:cx="231.49879"
   inkscape:cy="-9.6188008"
   inkscape:window-x="-8"
   inkscape:window-y="-8"
   inkscape:window-maximized="1"
   inkscape:current-layer="flash0.ai"
   fit-margin-top="0"
   fit-margin-left="0"
   fit-margin-right="0"
   fit-margin-bottom="0" />
<symbol
   id="flash0.ai_x5F_0_x2F_Layer_3_x2F__x3C_Group_x3E_"
   viewBox="-0.003 -35.45 32.053 35.453"
   transform="translate(109.22704,113.76533)">
	<g
   id="Layer_1_2_">
		<g
   id="g6">
			<g
   id="g4">
				<path
   style="clip-rule:evenodd;fill-rule:evenodd"
   d="m 20.25,-11.3 c 0.467,1.066 0.75,1.75 0.85,2.05 0.467,1.2 1.167,2.517 2.1,3.95 0.9,1.333 1.65,2.25 2.25,2.75 0.733,0.633 1.6,1.183 2.6,1.65 1.233,0.633 2.267,0.933 3.1,0.9 l 0.9,-0.15 C 29.917,-0.217 28.4,-1.1 27.5,-2.8 c -0.433,-0.833 -1.183,-1.817 -2.25,-2.95 -1,-0.967 -1.767,-2.15 -2.3,-3.55 -0.7,-1.867 -2.034,-3.917 -4,-6.15 -1.967,-2.3 -3.967,-4.033 -6,-5.2 -1.333,-0.8 -3.333,-1.883 -6,-3.25 -2.2,-1.233 -3.817,-2.417 -4.85,-3.55 -0.967,-1.033 -1.4,-2.15 -1.3,-3.35 0.1,-1.067 0.583,-2 1.45,-2.8 l 2,-1.85 -0.4,0.1 c -1.033,0.4 -1.967,1.167 -2.8,2.3 -1.233,1.633 -1.383,3.317 -0.45,5.05 0.933,1.733 2.4,3.217 4.4,4.45 1.4,0.9 2.8,1.533 4.2,1.9 1.233,0.333 2.833,1.483 4.8,3.45 1.9,1.667 3.183,2.85 3.85,3.55 1.033,1.1 1.833,2.217 2.4,3.35 z"
   id="path2"
   inkscape:connector-curvature="0" />
			</g>
		</g>
	</g>
</symbol>
<symbol
   id="flash0.ai_x5F_0_x2F_Layer_3_x2F__x3C_Path_x3E__x5F_30"
   viewBox="-0.04 -26.311 28.999 26.341"
   transform="translate(109.22704,113.76533)">
	<g
   id="Layer_1_3_">
		<linearGradient
   id="SVGID_1_"
   gradientUnits="userSpaceOnUse"
   x1="13.1782"
   y1="-11.0679"
   x2="18.503201"
   y2="-18.2679">
			<stop
   offset="0"
   style="stop-color:#F4FF7D"
   id="stop10" />
			<stop
   offset="1"
   style="stop-color:#000000"
   id="stop12" />
		</linearGradient>
		<path
   style="clip-rule:evenodd;fill:url(#linearGradient919);fill-rule:evenodd"
   d="m 28.4,0 c 0.6,0.267 0.717,-1.217 0.35,-4.45 -0.133,-1.333 -1.517,-3.617 -4.15,-6.85 -0.5,-0.633 -1.333,-1.55 -2.5,-2.75 -1.333,-1.333 -2.167,-2.184 -2.5,-2.55 -0.867,-0.967 -2.967,-2.783 -6.3,-5.45 -0.8,-0.633 -2.233,-1.383 -4.3,-2.25 -1.867,-0.733 -3.183,-1.167 -3.95,-1.3 -1.667,-0.533 -2.883,-0.767 -3.65,-0.7 -1.2,0.133 -1.65,1.2 -1.35,3.2 0.3,2.033 0.95,3.117 1.95,3.25 0.833,0.1 2.783,1.283 5.85,3.55 2.833,2.1 4.717,3.65 5.65,4.65 0.533,0.566 1.85,1.8 3.95,3.7 2.1,1.934 3.35,3.117 3.75,3.55 0.633,0.7 1.933,1.6 3.9,2.7 1.033,0.533 2.133,1.1 3.3,1.7 z"
   id="path15"
   inkscape:connector-curvature="0" />
	</g>
</symbol>
<symbol
   id="flash0.ai_x5F_0_x2F_Layer_3_x2F_Compound_Shape"
   viewBox="-0.003 -35.45 32.053 35.453"
   transform="translate(109.22704,113.76533)">
	<g
   id="Layer_1_4_">
		
			<use
   xlink:href="#flash0.ai_x5F_0_x2F_Layer_3_x2F__x3C_Group_x3E_"
   width="32.053001"
   height="35.452999"
   x="-0.003"
   y="-35.450001"
   style="overflow:visible;opacity:0.17970001;enable-background:new"
   id="use19"
   transform="translate(-109.22704,-113.76533)" />
	</g>
</symbol>
<linearGradient
   id="SVGID_2_"
   gradientUnits="userSpaceOnUse"
   x1="-24.800301"
   y1="-23.063999"
   x2="-0.4445"
   y2="-23.063999"
   gradientTransform="matrix(-0.9556,0.2946,-0.2946,-0.9556,3.359318e-4,1.298487e-4)">
	<stop
   offset="0"
   style="stop-color:#B8B306"
   id="stop23" />
	<stop
   offset="1"
   style="stop-color:#8CA104"
   id="stop25" />
</linearGradient>

<linearGradient
   id="SVGID_3_"
   gradientUnits="userSpaceOnUse"
   x1="-26.437"
   y1="-26.589399"
   x2="11.8354"
   y2="-26.589399"
   gradientTransform="matrix(-0.7791,0.6268,-0.6268,-0.7791,4.528165e-4,-1.040101e-4)">
	<stop
   offset="0"
   style="stop-color:#DBD50F"
   id="stop30" />
	<stop
   offset="1"
   style="stop-color:#B7D106"
   id="stop32" />
</linearGradient>

<radialGradient
   id="SVGID_4_"
   cx="-24.2085"
   cy="-25.419399"
   r="5.3783002"
   gradientTransform="matrix(-0.7786,0.6275,0.6275,0.7786,31.9024,39.583)"
   gradientUnits="userSpaceOnUse">
	<stop
   offset="0"
   style="stop-color:#EDE824"
   id="stop37" />
	<stop
   offset="1"
   style="stop-color:#E3E10F"
   id="stop39" />
</radialGradient>

<radialGradient
   id="SVGID_5_"
   cx="-24.310101"
   cy="-25.2866"
   r="3.8399999"
   gradientTransform="matrix(-0.778,0.6283,0.6283,0.778,31.7729,39.3459)"
   gradientUnits="userSpaceOnUse">
	<stop
   offset="0.0039"
   style="stop-color:#FFFB42"
   id="stop44" />
	<stop
   offset="1"
   style="stop-color:#F2F010"
   id="stop46" />
</radialGradient>
































<g
   id="g913"
   transform="matrix(6.92757,0,0,6.92757,-2.0518545,3.5658099)"><path
     id="path28"
     d="m 31.45,0.25 c 1.899,0.133 3.366,0.983 4.399,2.55 0.967,1.5 1.351,3.25 1.151,5.25 -0.167,1.534 -0.517,2.767 -1.05,3.7 -0.667,1.067 -1.017,1.683 -1.05,1.85 -0.367,1.5 -1.25,2.8 -2.65,3.9 -0.6,0.467 -0.95,0.8 -1.05,1 -0.167,0.434 -0.45,1 -0.851,1.7 -0.767,1.333 -2.25,2.866 -4.45,4.6 -0.267,0.233 -0.867,0.816 -1.8,1.75 -0.934,0.934 -1.6,1.55 -2,1.851 -0.467,0.366 -1.05,0.75 -1.75,1.149 -0.4,0.233 -0.983,0.566 -1.75,1 -0.133,0.101 -0.583,0.5 -1.35,1.2 -0.567,0.533 -1.2,0.9 -1.9,1.1 -0.533,0.167 -1.383,0.601 -2.55,1.301 -1.167,0.699 -2.133,1.149 -2.9,1.35 -1,0.267 -2.083,0.4 -3.25,0.4 -1.033,0 -1.867,-0.101 -2.5,-0.301 -1.033,-0.399 -1.967,-1.166 -2.8,-2.3 -1.233,-1.633 -1.383,-3.316 -0.45,-5.05 0.934,-1.733 2.4,-3.217 4.4,-4.45 C 6.7,22.9 8.1,22.267 9.5,21.9 c 1.233,-0.334 2.833,-1.483 4.8,-3.45 1.9,-1.667 3.184,-2.85 3.85,-3.55 1.033,-1.1 1.833,-2.217 2.4,-3.35 C 21.017,10.484 21.3,9.8 21.4,9.5 21.867,8.3 22.567,6.983 23.5,5.55 24.4,4.217 25.15,3.3 25.75,2.8 c 0.733,-0.633 1.6,-1.183 2.6,-1.65 1.233,-0.633 2.266,-0.933 3.1,-0.9 z"
     style="clip-rule:evenodd;fill:url(#SVGID_2_);fill-rule:evenodd"
     inkscape:connector-curvature="0" /><path
     id="path35"
     d="M 29.75,5.5 C 29.517,5.3 29.167,5.4 28.7,5.8 c -0.034,0 -0.45,0.4 -1.25,1.2 -0.5,0.467 -1.167,1.75 -2,3.85 -0.233,0.5 -0.65,1.3 -1.25,2.4 -0.633,1.067 -1.117,1.833 -1.45,2.3 -1.467,1.934 -2.467,3.15 -3,3.65 -1.3,1.3 -3.083,2.733 -5.35,4.3 -1.4,0.967 -2.917,1.95 -4.55,2.95 L 11.6,25.2 c 0.933,-0.634 2.133,-1.566 3.6,-2.8 0.8,-0.634 2.283,-1.95 4.45,-3.95 0.5,-0.4 0.85,-0.733 1.05,-1 0.2,-0.3 0.433,-0.833 0.7,-1.6 0.233,-0.667 0.617,-1.35 1.15,-2.05 0.3,-0.4 0.767,-1.017 1.4,-1.85 0.4,-0.6 0.667,-1.017 0.8,-1.25 0,-0.067 0.183,-0.583 0.55,-1.55 0.434,-1.1 1.333,-2.566 2.7,-4.4 0.2,-0.333 0.283,-0.733 0.25,-1.2 C 28.183,3.117 28.05,2.8 27.85,2.6 27.65,2.4 27.233,2.483 26.6,2.85 c -0.633,0.367 -1.267,0.933 -1.9,1.7 -1.267,1.567 -2.367,3.167 -3.3,4.8 l 0.55,-1.1 c 0.9,-1.9 1.816,-3.45 2.75,-4.65 0.533,-0.633 1,-1.1 1.4,-1.4 0.467,-0.333 1.316,-0.8 2.55,-1.4 2.867,-1.433 5.284,-0.883 7.25,1.65 0.9,1.167 1.35,2.55 1.35,4.15 0,0.8 -0.1,1.483 -0.3,2.05 -0.267,-0.333 -0.601,-0.417 -1,-0.25 -0.267,0.1 -0.434,0.467 -0.5,1.1 -0.066,0.367 -0.134,0.95 -0.2,1.75 -0.033,0.367 -0.233,0.867 -0.6,1.5 -0.367,0.633 -0.567,1.133 -0.601,1.5 -0.033,0.433 -0.25,0.883 -0.649,1.35 -0.567,0.5 -1.017,0.9 -1.351,1.2 -0.333,0.3 -0.816,0.983 -1.45,2.05 -0.733,1.2 -1.316,2.051 -1.75,2.551 -1.033,1.166 -2.55,2.533 -4.55,4.1 l -4.2,3.25 c -0.9,0.767 -2.283,1.483 -4.15,2.15 1.5,-0.667 2.716,-1.4 3.65,-2.2 l 4.05,-3.15 c 1.867,-1.467 3.267,-2.783 4.2,-3.95 0.367,-0.433 1.1,-1.433 2.2,-3 0.9,-1.3 1.517,-2.1 1.851,-2.399 0.366,-0.367 0.733,-0.867 1.1,-1.5 0.233,-0.367 0.583,-1 1.05,-1.9 0.367,-0.7 0.601,-1.617 0.7,-2.75 C 34.849,8.919 34.767,8.2 34.5,7.9 34.3,7.633 34.083,7.567 33.85,7.7 c -0.3,0.267 -0.566,0.483 -0.8,0.65 -0.3,0.233 -0.633,0.683 -1,1.35 -0.399,0.633 -0.649,1.15 -0.75,1.55 -0.1,0.333 -0.583,1.167 -1.45,2.5 -0.833,1.233 -1.433,2.067 -1.8,2.5 l -5.4,6.5 c -0.4,0.434 -1.2,1.134 -2.4,2.1 -1.533,1.2 -2.733,2.15 -3.6,2.851 -1.733,1.399 -4.033,2.5 -6.9,3.3 2.467,-1 4.15,-1.833 5.05,-2.5 3.7,-2.733 5.817,-4.434 6.35,-5.1 0.667,-0.867 1.167,-1.517 1.5,-1.95 0.6,-0.8 1.133,-1.4 1.6,-1.8 1.7,-1.567 2.767,-2.734 3.2,-3.5 0.466,-0.8 1.1,-1.8 1.899,-3 0.534,-0.8 0.983,-1.633 1.351,-2.5 0.467,-1.133 0.633,-2 0.5,-2.6 C 31.033,7.15 30.55,6.3 29.75,5.5 Z"
     style="clip-rule:evenodd;fill:url(#SVGID_3_);fill-rule:evenodd"
     inkscape:connector-curvature="0" /><path
     id="path42"
     d="M 35.9,6.4 C 34.933,7.334 33.7,7.2 32.2,6 30.8,4.9 30.116,3.9 30.15,3 c 0,-0.9 0.366,-1.583 1.1,-2.05 0.866,-0.567 1.934,-0.35 3.2,0.65 1.233,1 1.899,2 2,3 0.1,0.767 -0.084,1.367 -0.55,1.8 z"
     style="clip-rule:evenodd;fill:url(#SVGID_4_);fill-rule:evenodd"
     inkscape:connector-curvature="0" /><path
     id="path49"
     d="M 35.75,5.5 C 35.316,6.067 34.634,6.183 33.7,5.85 32.733,5.483 32.066,4.8 31.7,3.8 31.333,2.867 31.5,2.217 32.2,1.85 32.8,1.517 33.366,1.5 33.9,1.8 c 0.866,0.467 1.483,1.117 1.85,1.95 0.333,0.767 0.333,1.35 0,1.75 z"
     style="clip-rule:evenodd;fill:url(#SVGID_5_);fill-rule:evenodd"
     inkscape:connector-curvature="0" /><use
     id="use51"
     style="overflow:visible;opacity:0.17970001;enable-background:new"
     transform="matrix(1,0,0,-1,-108.92724,114.01533)"
     y="-35.450001"
     x="-0.003"
     height="35.452999"
     width="32.053001"
     xlink:href="#flash0.ai_x5F_0_x2F_Layer_3_x2F_Compound_Shape" /><use
     id="use53"
     style="overflow:visible;opacity:0.48050005;enable-background:new"
     transform="matrix(1,0,0,-1,-104.97704,121.11543)"
     y="-26.311001"
     x="-0.039999999"
     height="26.341"
     width="28.999001"
     xlink:href="#flash0.ai_x5F_0_x2F_Layer_3_x2F__x3C_Path_x3E__x5F_30" /><path
     id="path55"
     d="m 26.65,24.7 c -0.7,0.8 -1.2,0.967 -1.5,0.5 -0.333,-0.5 -0.15,-0.967 0.55,-1.4 0.6,-0.366 1.017,-0.434 1.25,-0.2 0.233,0.233 0.133,0.6 -0.3,1.1 z"
     style="clip-rule:evenodd;fill:#cddb32;fill-rule:evenodd"
     inkscape:connector-curvature="0" /><path
     id="path57"
     d="m 29.4,19.4 c -1.067,-0.4 -1.117,-0.967 -0.15,-1.7 1.033,-0.767 1.65,-0.9 1.85,-0.4 0.167,0.467 0.051,0.967 -0.35,1.5 -0.4,0.6 -0.85,0.8 -1.35,0.6 z"
     style="clip-rule:evenodd;fill:#e5e835;fill-rule:evenodd"
     inkscape:connector-curvature="0" /><path
     id="path59"
     d="m 32.15,12.6 c -0.7,-0.667 -0.584,-1.217 0.35,-1.65 0.967,-0.434 1.5,-0.434 1.6,0 0.134,0.4 -0.05,0.883 -0.55,1.45 -0.5,0.567 -0.967,0.633 -1.4,0.2 z"
     style="clip-rule:evenodd;fill:#e5e835;fill-rule:evenodd"
     inkscape:connector-curvature="0" /><path
     id="path61"
     d="m 28.2,13.4 c -1.167,0.633 -1.917,0.067 -2.25,-1.7 -0.034,-0.233 0.167,-0.284 0.6,-0.15 0.267,0.067 0.767,0.233 1.5,0.5 1.033,0.367 1.084,0.817 0.15,1.35 z"
     style="clip-rule:evenodd;fill:#e5e835;fill-rule:evenodd"
     inkscape:connector-curvature="0" /><path
     id="path63"
     d="m 17.1,28.75 c 0.033,-0.4 0.316,-0.467 0.85,-0.2 0.533,0.3 0.716,0.584 0.55,0.851 -0.2,0.333 -0.5,0.466 -0.9,0.399 -0.4,-0.1 -0.567,-0.45 -0.5,-1.05 z"
     style="clip-rule:evenodd;fill:#b1d12f;fill-rule:evenodd"
     inkscape:connector-curvature="0" /><path
     id="path65"
     d="m 7.3,28.85 c 0.267,0 0.617,0 1.05,0 0.333,0.034 0.517,0.184 0.55,0.45 0.067,0.4 -0.033,0.717 -0.3,0.95 C 8.333,30.517 8.017,30.483 7.65,30.15 7.25,29.783 7.033,29.467 7,29.2 6.967,28.967 7.067,28.85 7.3,28.85 Z"
     style="clip-rule:evenodd;fill:#b1d12f;fill-rule:evenodd"
     inkscape:connector-curvature="0" /><path
     id="path67"
     d="m 22.8,20.7 c -0.633,0.467 -1.066,0.383 -1.3,-0.25 -0.233,-0.667 -0.183,-1.084 0.15,-1.25 0.267,-0.134 0.583,0.05 0.95,0.55 0.367,0.467 0.433,0.783 0.2,0.95 z"
     style="clip-rule:evenodd;fill:#cddb32;fill-rule:evenodd"
     inkscape:connector-curvature="0" /><path
     id="path69"
     d="m 14.95,32.6 c -0.4,0 -0.6,-0.183 -0.6,-0.55 0.033,-0.366 0.183,-0.533 0.45,-0.5 0.267,0.033 0.45,0.217 0.55,0.55 0.067,0.334 -0.067,0.5 -0.4,0.5 z"
     style="clip-rule:evenodd;fill:#b1d12f;fill-rule:evenodd"
     inkscape:connector-curvature="0" /><path
     id="path71"
     d="M 10.6,34.45 C 10,34.75 9.55,34.667 9.25,34.2 9.017,33.9 8.883,33.467 8.85,32.9 8.817,32.566 8.9,32.467 9.1,32.6 c 0.133,0.067 0.483,0.267 1.05,0.601 0.667,0.3 1.033,0.483 1.1,0.55 0.133,0.166 -0.083,0.399 -0.65,0.699 z"
     style="clip-rule:evenodd;fill:#b1d12f;fill-rule:evenodd"
     inkscape:connector-curvature="0" /><path
     id="path73"
     d="M 5.1,35.1 C 4.666,35.067 4.433,34.767 4.4,34.201 4.367,33.668 4.567,33.367 5,33.301 c 0.4,-0.033 0.6,0.267 0.6,0.9 0,0.665 -0.167,0.966 -0.5,0.899 z"
     style="clip-rule:evenodd;fill:#b1d12f;fill-rule:evenodd"
     inkscape:connector-curvature="0" /><path
     id="path75"
     d="m 13.95,27.3 c -0.867,0.4 -1.284,0.2 -1.25,-0.6 0,-0.834 0.2,-1.233 0.6,-1.2 0.3,0.033 0.534,0.316 0.7,0.85 0.167,0.567 0.15,0.883 -0.05,0.95 z"
     style="clip-rule:evenodd;fill:#b1d12f;fill-rule:evenodd"
     inkscape:connector-curvature="0" /><path
     id="path77"
     d="M 9.2,24.25 C 9.1,23.85 9.067,23.533 9.1,23.3 9.167,23 9.333,22.866 9.6,22.9 c 0.3,0.033 0.35,0.383 0.15,1.05 -0.2,0.7 -0.383,0.8 -0.55,0.3 z"
     style="clip-rule:evenodd;fill:#b1d12f;fill-rule:evenodd"
     inkscape:connector-curvature="0" /><path
     id="path79"
     d="m 16.8,21.65 c -0.333,0.666 -0.6,0.666 -0.8,0 -0.2,-0.7 -0.067,-1.15 0.4,-1.351 0.434,-0.2 0.667,-0.1 0.7,0.3 0,0.335 -0.1,0.684 -0.3,1.051 z"
     style="clip-rule:evenodd;fill:#cddb32;fill-rule:evenodd"
     inkscape:connector-curvature="0" /><path
     id="path81"
     d="m 24.3,7.15 c -0.5,0.633 -0.733,0.5 -0.7,-0.4 0,-0.9 0.267,-1.417 0.8,-1.55 0.533,-0.133 0.75,0.033 0.65,0.5 -0.067,0.433 -0.317,0.917 -0.75,1.45 z"
     style="clip-rule:evenodd;fill:#e5e835;fill-rule:evenodd"
     inkscape:connector-curvature="0" /><path
     id="path83"
     d="m 2.9,29.75 c -0.467,0.434 -0.7,0.267 -0.7,-0.5 0,-0.767 0.2,-1.3 0.6,-1.6 0.434,-0.301 0.717,-0.167 0.85,0.399 0.1,0.601 -0.15,1.168 -0.75,1.701 z"
     style="clip-rule:evenodd;fill:#b1d12f;fill-rule:evenodd"
     inkscape:connector-curvature="0" /><path
     id="path85"
     d="m 31.8,11.5 c 0.066,-0.067 0.15,0.117 0.25,0.55 0.101,0.5 0.233,0.767 0.4,0.8 l 0.399,0.1 c -0.6,0.267 -1.066,0.267 -1.399,0 -0.233,-0.2 -0.3,-0.434 -0.2,-0.7 0.1,-0.266 0.283,-0.517 0.55,-0.75 z"
     style="clip-rule:evenodd;fill:#b0a009;fill-rule:evenodd"
     inkscape:connector-curvature="0" /><path
     id="path87"
     d="m 28.5,18.5 0.05,0.45 c 0.067,0.267 0.217,0.399 0.45,0.399 0.6,0.034 1.05,0.034 1.35,0 L 29.9,19.8 c -0.367,0.2 -0.784,0.267 -1.25,0.2 -0.3,-0.033 -0.45,-0.267 -0.45,-0.7 0.033,-0.434 0.133,-0.7 0.3,-0.8 z"
     style="clip-rule:evenodd;fill:#b0a009;fill-rule:evenodd"
     inkscape:connector-curvature="0" /><path
     id="path89"
     d="m 25.4,24.1 c -0.1,0.067 -0.183,0.15 -0.25,0.25 -0.167,0.233 -0.183,0.45 -0.05,0.65 l 0.3,0.45 c -0.566,0.267 -0.9,0.217 -1,-0.15 -0.1,-0.233 -0.017,-0.483 0.25,-0.75 0.233,-0.234 0.483,-0.383 0.75,-0.45 z"
     style="clip-rule:evenodd;fill:#a19208;fill-rule:evenodd"
     inkscape:connector-curvature="0" /><path
     id="path91"
     d="m 17.15,28.45 -0.1,0.399 c -0.033,0.301 0.017,0.517 0.15,0.65 l 0.35,0.3 c -0.333,0.167 -0.583,0.15 -0.75,-0.05 -0.167,-0.2 -0.233,-0.483 -0.2,-0.85 0.033,-0.399 0.217,-0.549 0.55,-0.449 z"
     style="clip-rule:evenodd;fill:#a19c08;fill-rule:evenodd"
     inkscape:connector-curvature="0" /><path
     id="path93"
     d="m 25.95,11.7 0.1,0.55 c 0.1,0.367 0.217,0.633 0.35,0.8 0.2,0.233 0.5,0.4 0.9,0.5 -0.5,0.3 -0.983,0.35 -1.45,0.15 -0.3,-0.1 -0.4,-0.45 -0.3,-1.05 0.067,-0.567 0.2,-0.883 0.4,-0.95 z"
     style="clip-rule:evenodd;fill:#b0a009;fill-rule:evenodd"
     inkscape:connector-curvature="0" /><path
     id="path95"
     d="m 23.95,5.55 -0.15,0.3 c -0.066,0.233 -0.117,0.483 -0.15,0.75 0,0.433 0.05,0.717 0.15,0.85 -0.5,-0.133 -0.767,-0.4 -0.8,-0.8 0,-0.467 0.317,-0.833 0.95,-1.1 z"
     style="clip-rule:evenodd;fill:#b0a009;fill-rule:evenodd"
     inkscape:connector-curvature="0" /><path
     id="path97"
     d="m 16.4,22.15 c -0.8,-0.4 -1.066,-0.834 -0.8,-1.301 L 16.2,20 l 0.05,0.1 c -0.033,0.101 -0.133,0.267 -0.3,0.5 -0.267,0.4 -0.117,0.917 0.45,1.55 z"
     style="clip-rule:evenodd;fill:#94a108;fill-rule:evenodd"
     inkscape:connector-curvature="0" /><path
     id="path99"
     d="M 8.4,30.5 C 8.233,30.566 7.883,30.467 7.35,30.2 6.783,29.933 6.483,29.683 6.45,29.45 6.416,29.25 6.55,29.099 6.85,29 6.983,28.934 7.133,28.884 7.3,28.85 l -0.1,0.3 c -0.033,0.234 0.017,0.45 0.15,0.65 0.267,0.334 0.617,0.566 1.05,0.7 z"
     style="clip-rule:evenodd;fill:#a19c08;fill-rule:evenodd"
     inkscape:connector-curvature="0" /><path
     id="path101"
     d="m 14.8,31.55 -0.3,0.2 c -0.167,0.2 -0.2,0.366 -0.1,0.5 l 0.2,0.35 c -0.567,-0.066 -0.767,-0.233 -0.6,-0.5 0.1,-0.133 0.267,-0.267 0.5,-0.399 z"
     style="clip-rule:evenodd;fill:#a19c08;fill-rule:evenodd"
     inkscape:connector-curvature="0" /><path
     id="path103"
     d="m 21.7,20.95 c -0.6,-0.601 -0.784,-1.066 -0.55,-1.4 0.133,-0.233 0.25,-0.366 0.35,-0.399 0.067,0 0.117,0.017 0.15,0.05 l -0.2,0.7 c -0.067,0.299 0.017,0.649 0.25,1.049 z"
     style="clip-rule:evenodd;fill:#94a108;fill-rule:evenodd"
     inkscape:connector-curvature="0" /><path
     id="path105"
     d="M 9.2,24.25 C 8.7,23.783 8.516,23.434 8.65,23.2 8.717,23.066 8.817,22.983 8.95,22.95 9.016,22.917 9.083,22.9 9.15,22.9 l -0.1,0.149 C 8.983,23.184 9.033,23.583 9.2,24.25 Z"
     style="clip-rule:evenodd;fill:#a19c08;fill-rule:evenodd"
     inkscape:connector-curvature="0" /><path
     id="path107"
     d="M 2.35,30 C 1.583,29.233 1.467,28.583 2,28.05 2.3,27.717 2.617,27.533 2.95,27.5 c 0.133,0 0.25,0.017 0.35,0.05 L 3,27.75 C 2.8,27.95 2.6,28.184 2.4,28.45 2.067,28.884 2.05,29.4 2.35,30 Z"
     style="clip-rule:evenodd;fill:#a19c08;fill-rule:evenodd"
     inkscape:connector-curvature="0" /><path
     id="path109"
     d="m 13.3,25.5 -0.4,0.45 c -0.233,0.366 -0.316,0.684 -0.25,0.95 l 0.2,0.699 c -0.5,-0.633 -0.75,-1.1 -0.75,-1.399 0,-0.267 0.117,-0.483 0.35,-0.65 0.233,-0.166 0.517,-0.184 0.85,-0.05 z"
     style="clip-rule:evenodd;fill:#a19c08;fill-rule:evenodd"
     inkscape:connector-curvature="0" /><path
     id="path111"
     d="m 8.7,32.5 v 0.3 c 0.066,0.233 0.167,0.483 0.3,0.75 L 9.65,34.6 C 9.317,34.7 9,34.566 8.7,34.2 8.467,33.866 8.333,33.483 8.3,33.05 8.267,32.616 8.4,32.434 8.7,32.5 Z"
     style="clip-rule:evenodd;fill:#a19c08;fill-rule:evenodd"
     inkscape:connector-curvature="0" /><path
     id="path113"
     d="m 5,33.3 -0.45,0.25 c -0.233,0.2 -0.283,0.434 -0.15,0.7 0.2,0.434 0.434,0.717 0.7,0.85 C 4.433,35.034 4.017,34.75 3.85,34.25 3.75,33.917 3.916,33.667 4.35,33.5 4.55,33.4 4.767,33.333 5,33.3 Z"
     style="clip-rule:evenodd;fill:#a19c08;fill-rule:evenodd"
     inkscape:connector-curvature="0" /></g>
</svg>