<?xml version="1.0" encoding="UTF-8" standalone="no"?>
<!-- Generator: Adobe Illustrator 15.1.0, SVG Export Plug-In . SVG Version: 6.00 Build 0)  -->

<svg
   xmlns:dc="http://purl.org/dc/elements/1.1/"
   xmlns:cc="http://creativecommons.org/ns#"
   xmlns:rdf="http://www.w3.org/1999/02/22-rdf-syntax-ns#"
   xmlns:svg="http://www.w3.org/2000/svg"
   xmlns="http://www.w3.org/2000/svg"
   xmlns:sodipodi="http://sodipodi.sourceforge.net/DTD/sodipodi-0.dtd"
   xmlns:inkscape="http://www.inkscape.org/namespaces/inkscape"
   version="1.1"
   id="FlashAICB"
   x="0px"
   y="0px"
   width="256"
   height="256"
   viewBox="0 0 255.99999 255.99999"
   xml:space="preserve"
   sodipodi:docname="pie.svg"
   inkscape:version="0.92.4 (5da689c313, 2019-01-14)"
   inkscape:export-filename="C:\Users\antum\Development\game-resources\icon\CC0\food\individual\Glitch\32x32\pie.png"
   inkscape:export-xdpi="10.5"
   inkscape:export-ydpi="10.5"><title
   id="title862">Pie</title><metadata
   id="metadata55"><rdf:RDF><cc:Work
       rdf:about=""><dc:format>image/svg+xml</dc:format><dc:type
         rdf:resource="http://purl.org/dc/dcmitype/StillImage" /><dc:title>Pie</dc:title><cc:license
         rdf:resource="http://creativecommons.org/publicdomain/zero/1.0/" /><dc:creator><cc:Agent><dc:title>Glitch</dc:title></cc:Agent></dc:creator><dc:source>https://opengameart.org/node/20149</dc:source></cc:Work><cc:License
       rdf:about="http://creativecommons.org/publicdomain/zero/1.0/"><cc:permits
         rdf:resource="http://creativecommons.org/ns#Reproduction" /><cc:permits
         rdf:resource="http://creativecommons.org/ns#Distribution" /><cc:permits
         rdf:resource="http://creativecommons.org/ns#DerivativeWorks" /></cc:License></rdf:RDF></metadata><defs
   id="defs53">
	
	
</defs><sodipodi:namedview
   pagecolor="#ffffff"
   bordercolor="#666666"
   borderopacity="1"
   objecttolerance="10"
   gridtolerance="10"
   guidetolerance="10"
   inkscape:pageopacity="0"
   inkscape:pageshadow="2"
   inkscape:window-width="1920"
   inkscape:window-height="1025"
   id="namedview51"
   showgrid="false"
   inkscape:zoom="0.64516127"
   inkscape:cx="-254.63798"
   inkscape:cy="123.04948"
   inkscape:window-x="-8"
   inkscape:window-y="-8"
   inkscape:window-maximized="1"
   inkscape:current-layer="FlashAICB"
   fit-margin-top="0"
   fit-margin-left="0"
   fit-margin-right="0"
   fit-margin-bottom="0" />
<g
   id="g35"
   transform="matrix(4.3448866,0,0,4.3448866,3.5142745e-4,41.754001)">
		<path
   inkscape:connector-curvature="0"
   id="path2"
   d="m 47.7,4.75 c 0,-0.033 0.017,-0.067 0.05,-0.1 0.366,0.033 0.684,0.083 0.95,0.15 0.2,0.034 0.35,0.083 0.45,0.15 0.366,0.133 0.699,0.367 1,0.7 0.133,0.133 0.25,0.283 0.35,0.45 -2,-0.133 -3,-0.383 -3,-0.75 0,-0.2 0.066,-0.4 0.2,-0.6 z m 4.9,5.5 c -0.133,-0.5 0.067,-0.933 0.601,-1.3 0.2,0.1 0.434,0.183 0.7,0.25 l 1.699,1.1 c 0.167,0.133 0.334,0.3 0.5,0.5 -0.366,0.367 -0.683,0.567 -0.949,0.6 l -0.9,-0.1 c -0.667,-0.066 -1.1,-0.216 -1.3,-0.45 l -0.2,-0.2 C 52.65,10.483 52.6,10.35 52.6,10.25 Z m -49.9,7.4 0.8,0.5 C 3.433,19.05 3.383,19.6 3.35,19.8 3.183,20.5 2.9,20.717 2.5,20.45 2.133,20.217 2,19.733 2.1,19 2.167,18.3 2.367,17.85 2.7,17.65 Z M 4,10.4 3.05,13.2 C 2.984,13.433 2.817,13.6 2.55,13.7 2.25,13.8 2.033,13.75 1.9,13.55 2,13.217 2.133,12.9 2.3,12.6 2.4,12.333 2.517,12.1 2.65,11.9 l 0.5,-0.65 C 3.383,10.917 3.667,10.617 4,10.35 Z m 5.25,-5 C 9.35,5.233 9.467,5.117 9.6,5.05 c 0.033,0 0.066,0 0.1,0 C 9.7,5.017 9.717,5 9.75,5 c 0.033,0 0.067,0 0.1,0 0.167,-0.067 0.4,-0.1 0.7,-0.1 h 0.05 c 0.4,0 0.783,-0.033 1.15,-0.1 L 11.4,5.5 C 11.033,5.933 10.383,6.05 9.45,5.85 L 9.1,5.75 9.05,5.7 C 9.117,5.567 9.183,5.467 9.25,5.4 Z m 9.5,-3.35 C 18.583,2.483 18.4,2.767 18.2,2.9 17.933,3.167 17.55,3.3 17.05,3.3 16.584,3.3 16.167,3.234 15.8,3.1 15.5,3.033 15.3,2.85 15.2,2.55 15.8,1.95 16.4,1.683 17,1.75 17.333,1.783 17.817,1.867 18.45,2 18.516,2 18.6,2.017 18.7,2.05 Z M 25.65,0.4 26.4,0.65 C 26.267,1.584 25.95,2.084 25.45,2.15 24.516,2.217 23.783,2.167 23.25,2 23.183,1.767 23.15,1.333 23.15,0.7 23.85,0.4 24.5,0.266 25.1,0.3 Z m 8,0.15 L 31.8,0.4 30.95,0.25 C 31.203,0.145 31.453,0.069 31.7,0.025 L 31.75,0 h 0.45 c 0.166,0 0.333,0.033 0.5,0.1 l 0.45,0.15 z m 7.75,1.7 c -0.301,0.3 -0.634,0.467 -1,0.5 -0.634,0 -1.067,-0.167 -1.301,-0.5 C 38.966,2.017 38.866,1.767 38.799,1.5 V 1.45 c 0.467,-0.067 0.934,-0.017 1.4,0.15 z M 56.2,20.9 c -0.467,-0.134 -0.717,-0.434 -0.75,-0.9 -0.101,-1.1 0.25,-1.717 1.05,-1.85 0.366,0 0.65,0.05 0.85,0.15 l 0.75,1.25 c -0.1,0.3 -0.183,0.684 -0.25,1.15 -0.066,0.3 -0.3,0.434 -0.699,0.399 C 56.55,20.967 56.233,20.9 56.2,20.9 Z M 31.9,33.05 c 2.033,-0.1 4,-0.333 5.899,-0.7 -0.133,0.434 -0.3,0.851 -0.5,1.25 -0.267,0.4 -0.5,0.684 -0.7,0.851 l -0.699,0.2 c -0.567,0.199 -1.2,0.267 -1.9,0.199 -0.467,0.034 -0.85,0.051 -1.15,0.051 -0.6,-0.034 -1,-0.184 -1.199,-0.45 C 31.616,33.884 31.7,33.417 31.9,33.05 Z m 19.15,-6.2 c 0.101,-0.166 0.4,-0.316 0.9,-0.449 L 53.4,26.1 c 0.066,0.767 -0.15,1.45 -0.65,2.051 -0.5,0.633 -0.983,0.666 -1.45,0.1 -0.1,-0.134 -0.184,-0.35 -0.25,-0.65 -0.067,-0.301 -0.067,-0.551 0,-0.751 z m -8,4.7 1.65,-0.5 c 0.033,0.767 -0.233,1.367 -0.8,1.8 -0.534,0.4 -1.067,0.534 -1.601,0.4 -0.5,-0.134 -0.75,-0.35 -0.75,-0.65 0.033,-0.267 0.267,-0.517 0.7,-0.75 0.234,-0.1 0.501,-0.2 0.801,-0.3 z M 6.7,25.2 C 6.5,25.433 6.266,25.516 6,25.45 5.467,25.384 5.15,25.083 5.05,24.55 c -0.066,-0.333 0,-0.666 0.2,-1 0.033,-0.033 0.067,-0.066 0.1,-0.1 0.367,0.6 0.817,1.184 1.35,1.75 z m 13.2,6.9 c 1.6,0.367 3.3,0.634 5.1,0.801 -0.2,0.199 -0.35,0.35 -0.45,0.449 -0.4,0.4 -0.783,0.634 -1.15,0.7 -0.9,0.2 -1.833,-0.066 -2.8,-0.8 -0.5,-0.366 -0.733,-0.75 -0.7,-1.15 z m -7.55,-2.75 c 1.2,0.634 2.483,1.184 3.85,1.65 -0.034,0.033 -0.05,0.066 -0.05,0.1 -0.1,0.2 -0.217,0.334 -0.35,0.4 -0.167,0.033 -0.316,0.05 -0.45,0.05 -1.267,0.167 -2.184,-0.033 -2.75,-0.6 -0.467,-0.434 -0.617,-0.867 -0.45,-1.3 0.033,-0.133 0.1,-0.233 0.2,-0.3 z"
   style="clip-rule:evenodd;fill:#fff5c9;fill-rule:evenodd" />
		<path
   inkscape:connector-curvature="0"
   id="path4"
   d="M 55.65,14.85 55.8,15 c -0.066,0.133 -0.2,0.3 -0.399,0.5 L 55.251,15.65 55,16 54.7,15.95 c -0.467,-1.867 -1.5,-3.583 -3.101,-5.15 0.134,0 0.267,0 0.4,0 0.533,0.067 0.866,0.15 1,0.25 0.267,0.167 0.467,0.5 0.6,1 l 0.2,0.8 c 0.066,0.4 0.15,0.683 0.25,0.85 l 0.2,0.2 c 0.268,0.267 0.734,0.583 1.401,0.95 z m 2,0.35 c 0.133,0.533 0.433,1.25 0.899,2.15 0,0.033 0.017,0.066 0.05,0.1 0.267,0.667 0.367,1.417 0.301,2.25 l -0.15,1.1 c -0.167,0.634 -0.4,1.117 -0.7,1.45 -0.1,0.134 -0.3,0.3 -0.6,0.5 l -0.101,0.1 H 57.3 c -0.033,0.034 -0.083,0.067 -0.149,0.101 L 57,23.05 l -0.2,0.05 0.05,0.051 c -0.3,0.267 -0.533,0.633 -0.699,1.1 L 56.1,24.4 v 0.05 l -0.05,0.05 c -0.133,0.267 -0.233,0.583 -0.3,0.95 -0.3,1.666 -0.733,2.833 -1.3,3.5 -0.101,-0.2 -0.15,-0.667 -0.15,-1.4 0.033,-0.8 0.05,-1.3 0.05,-1.5 0.167,-1.934 0.5,-3.116 1,-3.55 0.267,-0.233 0.601,-0.316 1,-0.25 0.367,0.066 0.684,0.25 0.95,0.55 0.533,-0.533 0.867,-1.149 1,-1.85 0.167,-0.7 0.184,-1.333 0.05,-1.9 -0.066,-0.267 -0.366,-0.667 -0.899,-1.2 L 56.7,16.8 c -0.233,-0.3 -0.417,-0.533 -0.55,-0.7 -0.267,-0.3 -0.417,-0.567 -0.45,-0.8 0.066,-0.1 0.217,-0.15 0.45,-0.15 0.133,0 0.3,0 0.5,0 z m -54.2,7.75 c -0.733,0.4 -1.133,0.95 -1.2,1.65 v 0.351 c -0.167,-0.233 -0.5,-0.667 -1,-1.3 L 0.3,22.1 C 0.267,22.067 0.25,22.017 0.25,21.951 0.083,21.517 0,21.066 0,20.6 c 0.133,0.334 0.4,0.65 0.8,0.95 0.233,0.134 0.583,0.351 1.05,0.65 0.3,0.233 0.816,0.383 1.55,0.45 H 4.2 Z M 50.7,9.45 C 50.5,9.483 50.333,9.516 50.2,9.55 49.8,9.217 49.384,8.917 48.95,8.65 L 47.6,7.8 C 47.534,7.767 47.484,7.734 47.451,7.7 47.284,7.6 47.117,7.5 46.951,7.4 h 1.5 c 0.267,0.033 0.467,0.133 0.6,0.3 l 0.45,0.45 c 0.134,0.1 0.333,0.184 0.6,0.25 0.167,0.067 0.45,0.1 0.851,0.1 0.733,-0.1 1.116,-0.15 1.149,-0.15 L 52.2,8.4 c 0.1,0.567 -0.4,0.917 -1.5,1.05 z M 44.8,6.1 44.75,6.3 C 42.85,5.467 40.833,4.817 38.7,4.35 l -1.851,-2.3 0.25,0.2 2.551,1.4 L 40.6,4.2 41.05,4 c 0.566,-0.2 0.967,-0.217 1.2,-0.05 0.2,0.1 0.434,0.267 0.7,0.5 0.366,0.167 0.8,0.167 1.3,0 C 44.583,4.317 44.8,4.266 44.9,4.3 45,4.967 44.967,5.567 44.8,6.1 Z M 33.1,3.5 c 0.233,-0.333 0.551,-0.633 0.95,-0.9 0.5,-0.367 0.967,-0.583 1.4,-0.65 h 0.3 V 2.1 3.35 C 35.816,3.517 35.9,3.683 36,3.85 35.533,3.783 35.066,3.717 34.6,3.65 Z M 22.05,1.9 c 0.4,0 0.767,0.167 1.1,0.5 0.4,0.4 0.767,0.817 1.1,1.25 -1.467,0.133 -2.883,0.367 -4.25,0.7 0.133,-0.5 0.267,-0.867 0.4,-1.1 0.5,-0.833 1.05,-1.283 1.65,-1.35 z m -9.3,5 c 0.1,-0.267 0.283,-0.533 0.55,-0.8 0.367,-0.367 0.75,-0.617 1.15,-0.75 0.433,-0.167 0.933,-0.167 1.5,0 0.066,0.033 0.15,0.066 0.25,0.1 -1.2,0.4 -2.35,0.883 -3.45,1.45 z m -6.7,5.15 C 6.117,11.783 6.2,11.467 6.3,11.1 6.567,10.133 6.767,9.483 6.9,9.15 L 6.95,9 C 7.117,8.633 7.3,8.367 7.5,8.2 L 7.55,8.15 C 7.717,7.983 7.95,7.9 8.25,7.9 H 8.5 C 8.833,8 9.217,8.183 9.65,8.45 9.717,8.483 9.8,8.533 9.9,8.6 8.267,9.667 6.983,10.817 6.05,12.05 Z M 4.05,16 C 3.85,15.867 3.584,15.733 3.25,15.6 v -0.55 c 0.567,-0.2 1.033,-0.466 1.4,-0.8 C 4.383,14.817 4.183,15.4 4.05,16 Z m 30.9,21.65 c 0.6,-0.233 1.05,-0.467 1.35,-0.7 0.733,-0.533 1.217,-1.65 1.45,-3.351 0.2,-0.066 0.517,0.084 0.95,0.45 l 1.5,1.55 c 1.967,0 3.35,-0.25 4.149,-0.75 0.367,-0.233 0.667,-0.5 0.9,-0.8 0.167,-0.2 0.366,-0.55 0.6,-1.05 l 0.5,-0.4 c 0.367,-0.399 0.884,-1 1.551,-1.8 0.199,-0.2 0.5,-0.533 0.899,-1 0.2,-0.133 0.601,-0.316 1.2,-0.55 l 0.85,-0.2 c 0.167,-0.033 0.45,-0.017 0.851,0.05 0.333,0.034 0.899,0.233 1.7,0.601 -0.267,0.133 -0.584,0.267 -0.95,0.399 l -0.95,0.2 c -0.934,0.167 -2.05,0.9 -3.35,2.2 -1.434,1.4 -2.634,2.267 -3.601,2.6 l -2.3,0.5 c -0.134,0.034 -0.267,0.051 -0.4,0.051 -0.866,0.033 -1.483,0.066 -1.85,0.1 -0.366,0 -0.717,0.066 -1.05,0.2 H 38.85 c -0.267,0.066 -0.833,0.333 -1.699,0.8 -0.835,0.4 -1.568,0.7 -2.201,0.9 z M 29.3,37.3 H 29.15 29.1 c -0.033,-0.033 -0.066,-0.05 -0.1,-0.05 -0.567,-0.2 -1.133,-0.3 -1.7,-0.3 -1.333,0.1 -2.4,0.166 -3.2,0.2 -1.4,0.066 -2.767,-0.067 -4.1,-0.4 -0.167,-0.033 -0.317,-0.083 -0.45,-0.15 l -0.4,-0.1 c -0.233,-0.1 -0.467,-0.233 -0.7,-0.4 -0.267,-0.166 -0.5,-0.366 -0.7,-0.6 -0.033,-0.033 -0.067,-0.066 -0.1,-0.1 -0.3,-0.233 -0.867,-0.284 -1.7,-0.15 -0.667,0.134 -1.3,0.15 -1.9,0.05 l 1,-0.35 c 0.534,-0.267 1.034,-0.634 1.5,-1.101 0.167,-0.133 0.383,-0.433 0.65,-0.899 l 0.2,-0.25 v 0.1 l 0.5,1.55 c 0.167,0.434 0.417,0.75 0.75,0.95 0.167,0.101 0.467,0.267 0.9,0.5 v -0.05 c 0.267,0.333 0.633,0.55 1.1,0.65 0.067,0 0.467,0.033 1.2,0.1 0.8,0.134 1.35,0.2 1.65,0.2 1,0 2.233,-0.7 3.7,-2.101 0.3,0.601 0.617,1.034 0.95,1.301 0.667,0.466 1.034,0.816 1.1,1.05 z M 6.05,30.05 c -0.4,-0.2 -0.8,-0.416 -1.2,-0.649 -0.8,-0.5 -1.383,-1.034 -1.75,-1.601 0.333,0.233 0.65,0.384 0.95,0.45 0.4,0.167 1.233,0.283 2.5,0.35 1.133,0 1.85,0.45 2.15,1.351 l 0.15,1.3 c -0.033,0 -0.05,-0.017 -0.05,-0.05 -0.566,-0.467 -1.2,-0.767 -1.9,-0.9 z"
   style="clip-rule:evenodd;fill:#a49753;fill-rule:evenodd" />
		<path
   inkscape:connector-curvature="0"
   id="path6"
   d="m 57.5,14.35 c 0.033,0.633 0.333,1.517 0.9,2.65 0.066,0.1 0.116,0.217 0.149,0.35 -0.467,-0.9 -0.767,-1.617 -0.899,-2.15 -0.1,-0.267 -0.15,-0.55 -0.15,-0.85 z m -1.85,0.5 c -0.667,-0.367 -1.134,-0.684 -1.4,-0.95 l -0.05,-0.25 -0.4,-0.8 -0.2,-0.8 c -0.133,-0.5 -0.333,-0.833 -0.6,-1 l -0.05,-0.2 c 0.2,0.233 0.633,0.383 1.3,0.45 l 0.9,0.1 c 0.267,-0.033 0.583,-0.233 0.949,-0.6 -0.166,-0.2 -0.333,-0.367 -0.5,-0.5 0.233,0.167 0.45,0.383 0.65,0.65 0.566,0.667 0.934,1.367 1.1,2.1 -0.533,0.8 -1.05,1.35 -1.55,1.65 z m 0.95,8.65 c -0.166,0.2 -0.316,0.45 -0.449,0.75 0.166,-0.467 0.399,-0.833 0.699,-1.1 L 56.8,23.1 57,23.05 l 0.15,-0.1 c -0.21,0.147 -0.392,0.329 -0.55,0.55 z M 3.1,27.8 c 0.367,0.566 0.95,1.1 1.75,1.6 0.4,0.233 0.8,0.449 1.2,0.649 -0.3,-0.133 -0.6,-0.283 -0.9,-0.45 C 4.883,29.433 4.6,29.249 4.3,29.049 3.733,28.65 3.333,28.233 3.1,27.8 Z M 1.65,16.55 c 0.133,0 0.483,-0.017 1.05,-0.05 0.433,-0.033 0.85,0 1.25,0.1 -0.1,0.533 -0.15,1.066 -0.15,1.6 0,0.333 0.017,0.667 0.05,1 0.167,1.5 0.667,2.916 1.5,4.25 -0.033,0.033 -0.067,0.066 -0.1,0.1 -0.2,0.334 -0.267,0.667 -0.2,1 0.1,0.533 0.417,0.834 0.95,0.9 0.267,0.066 0.5,-0.017 0.7,-0.25 1.167,1.267 2.7,2.45 4.6,3.55 0.333,0.2 0.684,0.4 1.05,0.6 -0.1,0.067 -0.167,0.167 -0.2,0.301 -0.167,0.433 -0.017,0.866 0.45,1.3 0.566,0.566 1.483,0.767 2.75,0.6 0.133,0 0.283,-0.017 0.45,-0.05 0.133,-0.066 0.25,-0.2 0.35,-0.4 0,-0.033 0.017,-0.066 0.05,-0.1 1.167,0.434 2.4,0.8 3.7,1.1 -0.033,0.4 0.2,0.784 0.7,1.15 0.967,0.733 1.9,1 2.8,0.8 0.367,-0.066 0.75,-0.3 1.15,-0.7 0.1,-0.1 0.25,-0.25 0.45,-0.449 1.4,0.133 2.85,0.199 4.35,0.199 0.867,0 1.717,-0.017 2.551,-0.05 -0.2,0.367 -0.284,0.834 -0.25,1.4 0.199,0.267 0.6,0.416 1.199,0.45 0.301,0 0.684,-0.017 1.15,-0.051 0.7,0.067 1.333,0 1.9,-0.199 -0.534,0.666 -1.101,1.183 -1.7,1.55 -0.8,0.533 -1.717,0.666 -2.75,0.399 -0.601,-0.166 -1.367,-0.55 -2.3,-1.149 -0.667,-0.566 -1.134,-0.95 -1.4,-1.15 -0.467,-0.366 -0.95,-0.517 -1.45,-0.45 -0.4,0.067 -0.783,0.267 -1.15,0.601 -0.433,0.399 -0.867,0.666 -1.3,0.8 -0.633,0.233 -1.233,0.283 -1.8,0.15 -0.5,-0.101 -1.216,-0.4 -2.15,-0.9 -0.733,-0.4 -1.367,-0.8 -1.9,-1.2 l -0.55,-0.5 H 17.4 v -0.1 l -0.2,0.25 c -1.1,0.5 -2.217,0.7 -3.35,0.6 -0.833,-0.066 -1.717,-0.767 -2.65,-2.1 -0.934,-1.5 -1.6,-2.45 -2,-2.851 C 8.766,28.168 7.95,27.735 6.75,27.301 5.583,26.9 4.867,26.55 4.6,26.25 4.1,25.717 3.717,24.616 3.45,22.95 L 4.2,22.65 H 3.4 L 3.35,22.35 C 2.717,22.151 2.1,21.784 1.5,21.25 1.1,20.884 0.733,20.1 0.4,18.9 c 0.033,-0.066 0.083,-0.15 0.15,-0.25 0.534,-0.8 0.867,-1.433 1,-1.9 0.033,-0.067 0.067,-0.133 0.1,-0.2 z M 11.75,4.8 c 0.7,-0.133 1.367,-0.383 2,-0.75 0.267,-0.167 0.717,-0.633 1.35,-1.4 0.033,-0.033 0.066,-0.066 0.1,-0.1 0.1,0.3 0.3,0.483 0.6,0.55 0.367,0.133 0.784,0.2 1.25,0.2 0.5,0 0.883,-0.133 1.15,-0.4 0.2,-0.133 0.383,-0.417 0.55,-0.85 0.2,0.034 0.4,0.067 0.6,0.1 0.733,0.1 1.283,0.05 1.65,-0.15 -0.167,0.133 -0.367,0.267 -0.6,0.4 -0.367,0.167 -0.6,0.267 -0.7,0.3 -0.167,0.1 -0.35,0.35 -0.55,0.75 -0.2,0.4 -0.4,0.667 -0.6,0.8 -0.533,0.333 -1.233,0.517 -2.1,0.55 -1,-0.033 -1.733,-0.05 -2.2,-0.05 -0.333,0 -0.733,0.15 -1.2,0.45 -0.433,0.533 -0.8,0.9 -1.1,1.1 -0.667,0.467 -1.2,0.667 -1.6,0.6 -0.533,-0.133 -0.867,-0.2 -1,-0.2 -0.434,0 -0.7,0.183 -0.8,0.55 v 0.2 L 8.25,7.9 c -0.3,0 -0.533,0.083 -0.7,0.25 L 7.5,8.2 C 7.3,8.367 7.117,8.633 6.95,9 L 6.9,9.15 5.25,10.65 c -0.267,0.3 -0.633,0.967 -1.1,2 -0.467,1.033 -0.767,1.617 -0.9,1.75 l -1.6,2 C 1.75,16.033 1.767,15.633 1.7,15.2 1.633,14.4 1.817,13.533 2.25,12.6 H 2.3 c -0.167,0.3 -0.3,0.617 -0.4,0.95 0.133,0.2 0.35,0.25 0.65,0.15 0.267,-0.1 0.434,-0.267 0.5,-0.5 L 4,10.4 C 4.3,10.133 4.617,9.9 4.95,9.7 5.35,9.467 6.033,9.083 7,8.55 7.8,8.017 8.35,7.4 8.65,6.7 8.817,6.3 8.967,5.983 9.1,5.75 l 0.35,0.1 c 0.933,0.2 1.583,0.083 1.95,-0.35 z M 2.7,17.65 C 2.367,17.85 2.167,18.3 2.1,19 2,19.733 2.133,20.217 2.5,20.45 2.9,20.717 3.183,20.5 3.35,19.8 3.383,19.6 3.433,19.05 3.5,18.15 Z M 9.6,5.05 C 9.467,5.117 9.35,5.233 9.25,5.4 9.283,5.3 9.317,5.233 9.35,5.2 9.417,5.133 9.5,5.083 9.6,5.05 Z M 23.15,2.4 C 22.817,2.067 22.45,1.9 22.05,1.9 L 22,1.3 21.15,1.9 c 1.467,-1.167 2.783,-1.7 3.95,-1.6 -0.6,-0.033 -1.25,0.1 -1.95,0.4 0,0.633 0.033,1.066 0.1,1.3 0.533,0.167 1.267,0.217 2.2,0.15 0.5,-0.066 0.816,-0.566 0.95,-1.5 L 25.65,0.4 c 0.6,0.167 1.333,0.434 2.2,0.8 0.2,0.066 0.383,0.1 0.55,0.1 C 27.733,1.967 27.25,2.35 26.95,2.45 26.55,2.583 25.9,2.617 25,2.55 L 23.25,2.4 Z m 29.45,7.85 -0.1,-0.1 C 52.333,10.017 52.033,9.9 51.6,9.8 51.167,9.667 50.867,9.55 50.701,9.45 c 1.1,-0.133 1.6,-0.483 1.5,-1.05 L 52.1,8.35 c -0.033,0 -0.416,0.05 -1.149,0.15 -0.4,0 -0.684,-0.033 -0.851,-0.1 L 49.95,8.1 C 49.75,7.767 49.183,7.267 48.25,6.6 47.95,6.4 47.384,6.3 46.55,6.3 45.884,6.3 45.3,6.234 44.8,6.1 44.967,5.567 45,4.967 44.9,4.3 44.799,4.267 44.583,4.317 44.25,4.45 c -0.5,0.167 -0.934,0.167 -1.3,0 -0.267,-0.233 -0.5,-0.4 -0.7,-0.5 C 42.017,3.783 41.616,3.8 41.05,4 40.717,3.767 40.384,3.65 40.05,3.65 h -0.4 L 37.1,2.25 36.85,2.05 38.701,4.35 37.8,3.3 C 37.401,3.167 37.033,3.017 36.7,2.85 36.3,2.483 35.983,2.233 35.75,2.1 V 1.95 h -0.3 L 31.5,2 C 31.033,2.033 30.616,2.017 30.25,1.95 29.717,1.95 29.35,1.9 29.15,1.8 28.95,1.667 28.817,1.5 28.75,1.3 29.017,1.3 29.267,1.217 29.5,1.05 30.333,0.517 30.934,0.2 31.3,0.1 31.429,0.068 31.563,0.042 31.7,0.025 31.453,0.069 31.203,0.145 30.95,0.25 L 31.8,0.4 33.651,0.55 C 34.55,1.15 35.1,1.5 35.3,1.6 c 0.566,0.267 1.1,0.367 1.6,0.3 0.4,-0.033 1.034,-0.167 1.9,-0.4 0.066,0.267 0.167,0.517 0.3,0.75 0.233,0.333 0.667,0.5 1.301,0.5 0.366,-0.033 0.699,-0.2 1,-0.5 1.533,1.1 3.267,1.867 5.199,2.3 0.301,0.067 0.667,0.133 1.101,0.2 -0.134,0.2 -0.2,0.4 -0.2,0.6 0,0.367 1,0.617 3,0.75 0.033,0.1 0.083,0.2 0.15,0.3 0.6,1 1.116,1.667 1.55,2 0.2,0.2 0.533,0.383 1,0.55 -0.534,0.367 -0.734,0.8 -0.601,1.3 z M 50.15,5.65 C 49.849,5.317 49.516,5.084 49.15,4.95 49.05,4.883 48.9,4.833 48.7,4.8 c 0.033,0 0.066,0 0.1,0 0.5,0.1 0.95,0.383 1.35,0.85 z m 6.35,12.5 c -0.8,0.133 -1.15,0.75 -1.05,1.85 0.033,0.467 0.283,0.767 0.75,0.9 l -0.7,0.35 c -1.033,0.366 -1.634,1.866 -1.8,4.5 -0.033,1.333 -0.15,2.167 -0.351,2.5 -0.166,0.3 -0.666,0.566 -1.5,0.8 L 51.7,29.1 C 51.3,29.034 51.016,29.017 50.849,29.05 L 50,29.25 c -1.1,-0.1 -1.767,-0.116 -2,-0.05 -0.6,0.166 -1.3,0.733 -2.1,1.7 -0.834,1 -1.284,1.533 -1.351,1.6 -0.7,0.634 -1.684,1.15 -2.95,1.55 -1.3,0.367 -2.267,0.367 -2.899,0 -0.434,-0.366 -0.75,-0.517 -0.95,-0.45 L 37.5,33.55 37.3,33.6 c 0.2,-0.399 0.367,-0.816 0.5,-1.25 3.566,-0.733 6.783,-1.933 9.65,-3.6 5,-2.9 7.5,-6.417 7.5,-10.55 0,-0.767 -0.084,-1.517 -0.25,-2.25 L 55,16 55.25,15.65 55.4,15.5 c 0.066,0.3 0.316,0.817 0.75,1.55 0.1,0.333 0.216,0.7 0.35,1.1 z m -3,11.55 c -0.3,0.133 -0.65,0.267 -1.05,0.399 0.366,-0.133 0.684,-0.267 0.95,-0.399 0.034,0 0.067,0 0.1,0 z m -2.45,-2.85 c -0.066,0.2 -0.066,0.45 0,0.75 0.066,0.301 0.15,0.517 0.25,0.65 0.467,0.566 0.95,0.533 1.45,-0.1 0.5,-0.601 0.717,-1.284 0.65,-2.051 L 51.95,26.4 c -0.5,0.133 -0.8,0.284 -0.9,0.45 z m -8,4.7 c -0.3,0.101 -0.566,0.2 -0.8,0.3 -0.434,0.233 -0.667,0.483 -0.7,0.75 0,0.301 0.25,0.517 0.75,0.65 0.533,0.134 1.066,0 1.601,-0.4 0.566,-0.433 0.833,-1.033 0.8,-1.8 z m -1.2,4.1 c -0.233,0.033 -0.466,0.05 -0.699,0.05 -1.101,0.033 -1.834,0.116 -2.2,0.25 0.333,-0.134 0.684,-0.2 1.05,-0.2 0.365,-0.033 0.982,-0.066 1.849,-0.1 z m -6.9,2 c 0.633,-0.2 1.366,-0.5 2.2,-0.9 0.866,-0.467 1.433,-0.733 1.699,-0.8 -1.066,0.566 -1.966,1 -2.699,1.3 -0.634,0.267 -1.267,0.467 -1.9,0.6 0.233,-0.067 0.467,-0.133 0.7,-0.2 z m -5.8,-0.35 h 0.15 l 1.9,0.5 h 0.4 l 0.55,0.1 c -0.034,0 -0.067,0 -0.101,0 -1.199,-0.1 -2.165,-0.3 -2.899,-0.6 z m -15.25,-2 c -0.433,-0.1 -0.833,-0.25 -1.2,-0.45 -0.333,-0.166 -0.684,-0.416 -1.05,-0.75 0.733,0.6 1.483,1 2.25,1.2 z"
   style="clip-rule:evenodd;fill:#f2e396;fill-rule:evenodd" />
		<path
   inkscape:connector-curvature="0"
   id="path8"
   d="m 57.35,13.05 c 0.034,0.067 0.051,0.15 0.051,0.25 l 0.1,0.7 c 0,0.033 0,0.067 0,0.1 0,0.033 0,0.066 0,0.1 v 0.15 c 0,0.3 0.05,0.583 0.15,0.85 l -1,-0.05 c -0.2,0 -0.367,0 -0.5,0 -0.233,0 -0.384,0.05 -0.45,0.15 0.033,0.233 0.184,0.5 0.45,0.8 0.133,0.167 0.316,0.4 0.55,0.7 l 0.75,1.05 c 0.533,0.533 0.833,0.933 0.899,1.2 0.134,0.567 0.117,1.2 -0.05,1.9 -0.133,0.7 -0.467,1.316 -1,1.85 -0.267,-0.3 -0.583,-0.483 -0.95,-0.55 -0.399,-0.066 -0.733,0.017 -1,0.25 -0.5,0.434 -0.833,1.616 -1,3.55 0,0.2 -0.017,0.7 -0.05,1.5 0,0.733 0.05,1.2 0.15,1.4 -0.267,0.333 -0.584,0.583 -0.95,0.75 -0.033,0 -0.066,0 -0.1,0 -0.801,-0.367 -1.367,-0.566 -1.7,-0.601 l 0.149,-0.05 c 0.834,-0.233 1.334,-0.5 1.5,-0.8 0.2,-0.333 0.317,-1.167 0.351,-2.5 0.166,-2.634 0.767,-4.134 1.8,-4.5 l 0.7,-0.35 c 0.033,0 0.35,0.066 0.95,0.199 0.399,0.034 0.633,-0.1 0.699,-0.399 0.067,-0.467 0.15,-0.85 0.25,-1.15 l -0.75,-1.25 c -0.199,-0.1 -0.483,-0.15 -0.85,-0.15 -0.134,-0.4 -0.25,-0.767 -0.35,-1.1 -0.434,-0.733 -0.684,-1.25 -0.75,-1.55 0.199,-0.2 0.333,-0.367 0.399,-0.5 L 55.649,14.849 55.8,14.7 c 0.5,-0.3 1.016,-0.85 1.55,-1.65 z M 11.65,34.1 10.5,32.95 C 9.967,32.316 9.517,31.833 9.15,31.5 9.05,31.4 8.95,31.316 8.85,31.25 L 8.7,29.95 C 8.4,29.05 7.683,28.6 6.55,28.6 5.283,28.534 4.45,28.417 4.05,28.25 3.75,28.184 3.433,28.033 3.1,27.8 3.067,27.767 3.05,27.734 3.05,27.7 2.983,27.6 2.933,27.5 2.9,27.4 2.8,27.2 2.75,27 2.75,26.8 2.65,25.934 2.483,25.317 2.25,24.95 V 24.6 c 0.067,-0.699 0.467,-1.25 1.2,-1.649 0.267,1.666 0.65,2.767 1.15,3.3 0.267,0.3 0.983,0.65 2.15,1.05 1.2,0.434 2.017,0.867 2.45,1.3 0.4,0.4 1.066,1.351 2,2.851 0.933,1.333 1.816,2.033 2.65,2.1 1.133,0.101 2.25,-0.1 3.35,-0.6 -0.267,0.467 -0.483,0.767 -0.65,0.899 -0.466,0.467 -0.966,0.834 -1.5,1.101 l -1,0.35 H 13.9 C 13.133,35.1 12.383,34.7 11.65,34.1 Z M 3.4,22.65 C 2.667,22.583 2.15,22.433 1.85,22.2 1.383,21.9 1.033,21.683 0.8,21.55 0.4,21.25 0.133,20.934 0,20.6 L 0.25,19.3 0.4,18.9 c 0.333,1.2 0.7,1.984 1.1,2.35 0.6,0.533 1.217,0.9 1.85,1.1 z M 3.95,16.6 C 3.55,16.5 3.133,16.467 2.7,16.5 2.133,16.533 1.783,16.55 1.65,16.55 H 1.6 l 0.05,-0.15 1.6,-2 c 0.133,-0.133 0.433,-0.717 0.9,-1.75 0.467,-1.033 0.833,-1.7 1.1,-2 L 6.9,9.15 c -0.133,0.333 -0.333,0.983 -0.6,1.95 -0.1,0.367 -0.183,0.683 -0.25,0.95 -0.566,0.7 -1.033,1.434 -1.4,2.2 -0.367,0.333 -0.833,0.6 -1.4,0.8 v 0.55 c 0.333,0.133 0.6,0.267 0.8,0.4 -0.033,0.2 -0.067,0.4 -0.1,0.6 z M 16.2,5.45 C 16.1,5.416 16.016,5.383 15.95,5.35 15.383,5.183 14.883,5.183 14.45,5.35 14.05,5.483 13.666,5.733 13.3,6.1 13.033,6.367 12.85,6.633 12.75,6.9 12.25,7.167 11.767,7.433 11.3,7.7 10.8,8 10.333,8.3 9.9,8.6 9.8,8.533 9.717,8.483 9.65,8.45 9.217,8.183 8.833,8 8.5,7.9 H 8.25 L 8.55,7.45 V 7.25 C 8.65,6.883 8.917,6.7 9.35,6.7 c 0.133,0 0.467,0.066 1,0.2 0.4,0.067 0.933,-0.133 1.6,-0.6 0.3,-0.2 0.667,-0.566 1.1,-1.1 0.467,-0.3 0.867,-0.45 1.2,-0.45 0.467,0 1.2,0.017 2.2,0.05 0.867,-0.033 1.566,-0.216 2.1,-0.55 0.2,-0.133 0.4,-0.4 0.6,-0.8 C 19.35,3.05 19.533,2.8 19.7,2.7 19.8,2.666 20.033,2.567 20.4,2.4 20.633,2.267 20.833,2.133 21,2 L 21.05,1.95 21.15,1.9 22,1.3 22.05,1.9 c -0.6,0.067 -1.15,0.517 -1.65,1.35 -0.133,0.233 -0.267,0.6 -0.4,1.1 -1.3,0.3 -2.567,0.667 -3.8,1.1 z m 8.05,-1.8 C 23.917,3.217 23.55,2.8 23.15,2.4 h 0.1 L 25,2.55 c 0.9,0.067 1.55,0.034 1.95,-0.1 0.3,-0.1 0.783,-0.483 1.45,-1.15 h 0.35 c 0.067,0.2 0.2,0.367 0.4,0.5 0.199,0.1 0.566,0.15 1.1,0.15 0.366,0.067 0.783,0.083 1.25,0.05 L 35.45,1.95 C 35.016,2.016 34.55,2.233 34.05,2.6 33.651,2.867 33.333,3.166 33.1,3.5 31.9,3.4 30.65,3.35 29.35,3.35 c -1.767,0 -3.467,0.1 -5.1,0.3 z M 44.8,6.1 c 0.5,0.133 1.084,0.2 1.75,0.2 0.834,0 1.4,0.1 1.7,0.3 0.934,0.667 1.5,1.167 1.7,1.5 L 50.1,8.4 C 49.833,8.334 49.634,8.25 49.5,8.15 L 49.05,7.7 C 48.917,7.533 48.717,7.433 48.45,7.4 h -1.5 L 45.45,6.65 C 45.217,6.533 44.983,6.417 44.75,6.3 Z m 6.8,4.7 c -0.433,-0.433 -0.9,-0.85 -1.4,-1.25 0.133,-0.033 0.3,-0.066 0.5,-0.1 0.166,0.1 0.467,0.216 0.899,0.35 0.434,0.1 0.733,0.217 0.9,0.35 l 0.1,0.1 c 0,0.1 0.051,0.233 0.15,0.4 l 0.2,0.2 0.05,0.2 c -0.134,-0.1 -0.467,-0.183 -1,-0.25 -0.133,0 -0.266,0 -0.399,0 z M 39.65,3.65 h 0.399 c 0.334,0 0.667,0.117 1,0.35 L 40.6,4.2 Z M 38.7,4.35 C 38.333,4.25 37.967,4.183 37.599,4.15 L 36.65,3.95 C 36.45,3.916 36.25,3.883 36.049,3.85 H 36 C 35.9,3.683 35.816,3.517 35.75,3.35 V 2.1 c 0.233,0.133 0.55,0.383 0.95,0.75 0.333,0.167 0.7,0.316 1.1,0.45 z m 15.1,8.5 0.4,0.8 0.05,0.25 -0.2,-0.2 c -0.1,-0.167 -0.184,-0.45 -0.25,-0.85 z m -17.9,21.8 0.699,-0.2 c 0.2,-0.167 0.434,-0.45 0.7,-0.851 l 0.2,-0.05 0.25,0.05 c -0.233,1.7 -0.717,2.817 -1.45,3.351 -0.3,0.233 -0.75,0.467 -1.35,0.7 -0.233,0.066 -0.467,0.133 -0.7,0.199 L 33,37.95 c -0.134,0 -0.283,0 -0.45,0 H 32.4 L 32.15,37.9 31.6,37.8 H 31.2 L 29.3,37.3 29.25,36.95 C 29.184,36.717 28.817,36.366 28.15,35.9 27.817,35.633 27.5,35.2 27.2,34.599 25.733,36 24.5,36.7 23.5,36.7 c -0.3,0 -0.85,-0.066 -1.65,-0.2 -0.733,-0.066 -1.133,-0.1 -1.2,-0.1 -0.467,-0.101 -0.833,-0.317 -1.1,-0.65 V 35.8 C 19.117,35.567 18.817,35.401 18.65,35.3 18.317,35.1 18.067,34.783 17.9,34.35 L 17.4,32.8 h 0.05 L 18,33.3 c 0.533,0.4 1.167,0.8 1.9,1.2 0.934,0.5 1.65,0.8 2.15,0.9 0.567,0.133 1.167,0.083 1.8,-0.15 0.433,-0.134 0.867,-0.4 1.3,-0.8 0.367,-0.334 0.75,-0.533 1.15,-0.601 0.5,-0.066 0.983,0.084 1.45,0.45 0.267,0.2 0.733,0.584 1.4,1.15 0.933,0.6 1.699,0.983 2.3,1.149 1.033,0.267 1.95,0.134 2.75,-0.399 0.6,-0.366 1.166,-0.883 1.7,-1.549 z M 50,29.25 c -0.6,0.233 -1,0.417 -1.2,0.55 -0.399,0.467 -0.7,0.8 -0.899,1 -0.667,0.8 -1.184,1.4 -1.551,1.8 l -0.5,0.4 c -0.233,0.5 -0.433,0.85 -0.6,1.05 -0.233,0.3 -0.533,0.566 -0.9,0.8 -0.8,0.5 -2.183,0.75 -4.149,0.75 l -1.5,-1.55 c 0.633,0.367 1.6,0.367 2.899,0 1.267,-0.399 2.25,-0.916 2.95,-1.55 0.066,-0.066 0.517,-0.6 1.351,-1.6 0.8,-0.967 1.5,-1.534 2.1,-1.7 0.232,-0.066 0.899,-0.05 1.999,0.05 z"
   style="clip-rule:evenodd;fill:#d5c578;fill-rule:evenodd" />
		<path
   inkscape:connector-curvature="0"
   id="path10"
   d="M 3.85,19.2 C 3.817,18.867 3.8,18.533 3.8,18.2 c 0,-0.534 0.05,-1.067 0.15,-1.6 0.033,-0.2 0.066,-0.4 0.1,-0.6 0.133,-0.6 0.333,-1.183 0.6,-1.75 0.367,-0.767 0.833,-1.5 1.4,-2.2 C 6.983,10.817 8.267,9.667 9.9,8.6 10.334,8.3 10.8,8 11.3,7.7 11.767,7.433 12.25,7.166 12.75,6.9 13.85,6.334 15,5.85 16.2,5.45 c 1.233,-0.434 2.5,-0.8 3.8,-1.1 1.367,-0.333 2.783,-0.567 4.25,-0.7 1.633,-0.2 3.333,-0.3 5.1,-0.3 1.301,0 2.551,0.05 3.75,0.15 l 1.5,0.15 c 0.467,0.067 0.934,0.133 1.4,0.2 h 0.05 c 0.2,0.033 0.4,0.066 0.601,0.1 l 0.949,0.2 c 0.367,0.067 0.75,0.15 1.15,0.25 1.434,0.333 2.85,0.75 4.25,1.25 0.6,0.2 1.167,0.434 1.7,0.7 0.263,0.087 0.513,0.188 0.75,0.3 l 1.5,0.75 c 0.166,0.1 0.333,0.2 0.5,0.3 0.033,0.033 0.083,0.066 0.149,0.1 l 1.351,0.85 c 0.399,0.267 0.8,0.567 1.2,0.9 0.466,0.367 0.916,0.767 1.35,1.2 0.267,0.267 0.517,0.55 0.75,0.85 C 47.083,7.6 40.866,5.317 33.6,4.75 33,4.717 32.4,4.683 31.8,4.65 29.401,4.55 27.084,4.633 24.85,4.9 23.017,5.067 21.267,5.367 19.6,5.8 19,5.967 18.416,6.133 17.85,6.3 16.517,6.7 15.233,7.183 14,7.75 13.9,7.783 13.817,7.817 13.75,7.85 12.75,8.317 11.833,8.833 11,9.4 8.067,11.267 5.967,13.7 4.7,16.7 4.666,16.733 4.65,16.783 4.65,16.85 4.317,17.583 4.05,18.367 3.85,19.2 Z"
   style="clip-rule:evenodd;fill:#786027;fill-rule:evenodd" />
		
			<radialGradient
   gradientUnits="userSpaceOnUse"
   gradientTransform="matrix(1,0,0,0.6827,0,4.8713)"
   r="25.799999"
   cy="15.3501"
   cx="29.5996"
   id="SVGID_1_">
			<stop
   id="stop12"
   style="stop-color:#EFDB90"
   offset="0" />
			<stop
   id="stop14"
   style="stop-color:#BCA85A"
   offset="1" />
		</radialGradient>
		<path
   inkscape:connector-curvature="0"
   id="path17"
   d="m 25,32.9 c -1.8,-0.167 -3.5,-0.434 -5.1,-0.801 -1.3,-0.3 -2.533,-0.666 -3.7,-1.1 -1.367,-0.467 -2.65,-1.017 -3.85,-1.65 -0.367,-0.199 -0.717,-0.399 -1.05,-0.6 -1.9,-1.1 -3.433,-2.283 -4.6,-3.55 -0.534,-0.566 -0.983,-1.15 -1.35,-1.75 -0.833,-1.334 -1.333,-2.75 -1.5,-4.25 0.2,-0.833 0.467,-1.617 0.8,-2.35 0,-0.067 0.017,-0.117 0.05,-0.15 1.267,-3 3.367,-5.434 6.3,-7.3 0.833,-0.566 1.75,-1.083 2.75,-1.55 C 13.817,7.816 13.9,7.782 14,7.749 15.233,7.182 16.517,6.699 17.85,6.299 18.417,6.133 19,5.967 19.6,5.8 21.267,5.367 23.017,5.067 24.85,4.9 27.083,4.633 29.4,4.55 31.8,4.65 c 0.601,0.033 1.2,0.067 1.8,0.1 7.267,0.567 13.483,2.85 18.65,6.85 -0.233,-0.3 -0.483,-0.583 -0.75,-0.85 -0.434,-0.433 -0.884,-0.833 -1.35,-1.2 -0.4,-0.333 -0.801,-0.633 -1.2,-0.9 0.434,0.267 0.85,0.567 1.25,0.9 0.5,0.4 0.967,0.817 1.399,1.25 1.601,1.567 2.634,3.284 3.101,5.15 0.166,0.733 0.25,1.483 0.25,2.25 0,4.133 -2.5,7.649 -7.5,10.55 -2.867,1.667 -6.084,2.866 -9.65,3.6 -1.899,0.367 -3.866,0.601 -5.899,0.7 -0.834,0.033 -1.684,0.05 -2.551,0.05 -1.5,0 -2.95,-0.067 -4.35,-0.2 z m -1.5,-14.85 0.05,0.05 v -0.05 z"
   style="clip-rule:evenodd;fill:url(#SVGID_1_);fill-rule:evenodd" />
		
			<radialGradient
   gradientUnits="userSpaceOnUse"
   gradientTransform="matrix(1,0,0,-0.5888,0,27.9629)"
   r="26.325001"
   cy="17.6001"
   cx="28.950199"
   id="SVGID_2_">
			<stop
   id="stop19"
   style="stop-color:#C59F4D"
   offset="0" />
			<stop
   id="stop21"
   style="stop-color:#9D7B34"
   offset="1" />
		</radialGradient>
		<path
   inkscape:connector-curvature="0"
   id="path24"
   d="m 37.6,4.15 c 0.367,0.033 0.733,0.1 1.101,0.2 2.133,0.467 4.149,1.117 6.05,1.95 0.233,0.117 0.467,0.233 0.7,0.35 C 45.214,6.538 44.964,6.438 44.701,6.35 44.168,6.083 43.6,5.85 43.001,5.65 41.601,5.15 40.185,4.733 38.751,4.4 38.35,4.3 37.967,4.217 37.6,4.15 Z"
   style="clip-rule:evenodd;fill:url(#SVGID_2_);fill-rule:evenodd" />
		<linearGradient
   y2="31.5996"
   x2="56.587502"
   y1="31.5996"
   x1="3.3125"
   gradientUnits="userSpaceOnUse"
   id="SVGID_3_">
			<stop
   id="stop26"
   style="stop-color:#BEA95B"
   offset="0" />
			<stop
   id="stop28"
   style="stop-color:#BEA95B"
   offset="0.4" />
			<stop
   id="stop30"
   style="stop-color:#665A2D"
   offset="1" />
		</linearGradient>
		<path
   inkscape:connector-curvature="0"
   id="path33"
   d="m 5.15,29.6 c 0.3,0.167 0.6,0.317 0.9,0.45 L 6.9,30.3 c 0.7,0.134 1.333,0.434 1.9,0.9 0,0.033 0.017,0.05 0.05,0.05 0.1,0.066 0.2,0.15 0.3,0.25 0.367,0.333 0.817,0.816 1.35,1.45 l 1.15,1.149 c 0.367,0.334 0.717,0.584 1.05,0.75 0.367,0.2 0.767,0.351 1.2,0.45 h 0.15 c 0.6,0.101 1.233,0.084 1.9,-0.05 0.833,-0.134 1.4,-0.083 1.7,0.15 0.033,0.033 0.067,0.066 0.1,0.1 0.2,0.233 0.433,0.434 0.7,0.6 0.233,0.167 0.466,0.301 0.7,0.4 l 0.4,0.1 c 0.133,0.067 0.284,0.117 0.45,0.15 1.333,0.333 2.7,0.467 4.1,0.4 0.8,-0.034 1.867,-0.101 3.2,-0.2 0.567,0 1.133,0.1 1.7,0.3 0.033,0 0.066,0.017 0.1,0.05 h 0.051 c 0.733,0.3 1.699,0.5 2.899,0.601 0.033,0 0.066,0 0.101,0 l 0.25,0.05 h 0.149 c 0.167,0 0.316,0 0.45,0 l 1.25,-0.101 c 0.634,-0.133 1.267,-0.333 1.9,-0.6 0.733,-0.3 1.633,-0.733 2.699,-1.3 h 0.101 c 0.366,-0.134 1.1,-0.217 2.2,-0.25 0.233,0 0.466,-0.017 0.699,-0.05 0.134,0 0.267,-0.017 0.4,-0.051 l 2.3,-0.5 c 0.967,-0.333 2.167,-1.199 3.601,-2.6 1.3,-1.3 2.416,-2.033 3.35,-2.2 l 0.95,-0.2 c 0.399,-0.133 0.75,-0.267 1.05,-0.399 0.366,-0.167 0.684,-0.417 0.95,-0.75 0.566,-0.667 1,-1.834 1.3,-3.5 0.066,-0.367 0.167,-0.684 0.3,-0.95 l 0.05,-0.05 V 24.4 l 0.051,-0.15 c 0.133,-0.3 0.283,-0.55 0.449,-0.75 v 0.05 c 0,4.467 -2.6,8.267 -7.8,11.4 C 43.567,38.116 37.283,39.7 29.95,39.7 22.583,39.7 16.3,38.116 11.1,34.95 8.433,33.35 6.45,31.566 5.15,29.6 Z"
   style="clip-rule:evenodd;fill:url(#SVGID_3_);fill-rule:evenodd" />
	</g>
</svg>