<?xml version="1.0" encoding="UTF-8" standalone="no"?>
<!-- Generator: Adobe Illustrator 15.1.0, SVG Export Plug-In . SVG Version: 6.00 Build 0)  -->

<svg
   xmlns:dc="http://purl.org/dc/elements/1.1/"
   xmlns:cc="http://creativecommons.org/ns#"
   xmlns:rdf="http://www.w3.org/1999/02/22-rdf-syntax-ns#"
   xmlns:svg="http://www.w3.org/2000/svg"
   xmlns="http://www.w3.org/2000/svg"
   xmlns:sodipodi="http://sodipodi.sourceforge.net/DTD/sodipodi-0.dtd"
   xmlns:inkscape="http://www.inkscape.org/namespaces/inkscape"
   version="1.1"
   id="FlashAICB"
   x="0px"
   y="0px"
   width="256"
   height="256"
   viewBox="0 0 256.00001 256"
   xml:space="preserve"
   sodipodi:docname="pie_pumpkin.svg"
   inkscape:version="0.92.4 (5da689c313, 2019-01-14)"
   inkscape:export-filename="C:\Users\antum\Development\game-resources\icon\CC0\food\individual\Glitch\32x32\pie_pumpkin.png"
   inkscape:export-xdpi="10.5"
   inkscape:export-ydpi="10.5"><title
   id="title850">Pumpkin Pie</title><metadata
   id="metadata43"><rdf:RDF><cc:Work
       rdf:about=""><dc:format>image/svg+xml</dc:format><dc:type
         rdf:resource="http://purl.org/dc/dcmitype/StillImage" /><dc:title>Pumpkin Pie</dc:title><cc:license
         rdf:resource="http://creativecommons.org/publicdomain/zero/1.0/" /><dc:creator><cc:Agent><dc:title>Glitch</dc:title></cc:Agent></dc:creator><dc:source>https://opengameart.org/node/20149</dc:source></cc:Work><cc:License
       rdf:about="http://creativecommons.org/publicdomain/zero/1.0/"><cc:permits
         rdf:resource="http://creativecommons.org/ns#Reproduction" /><cc:permits
         rdf:resource="http://creativecommons.org/ns#Distribution" /><cc:permits
         rdf:resource="http://creativecommons.org/ns#DerivativeWorks" /></cc:License></rdf:RDF></metadata><defs
   id="defs41" /><sodipodi:namedview
   pagecolor="#ffffff"
   bordercolor="#666666"
   borderopacity="1"
   objecttolerance="10"
   gridtolerance="10"
   guidetolerance="10"
   inkscape:pageopacity="0"
   inkscape:pageshadow="2"
   inkscape:window-width="1920"
   inkscape:window-height="1025"
   id="namedview39"
   showgrid="false"
   inkscape:zoom="0.90930824"
   inkscape:cx="47.410519"
   inkscape:cy="6.3290583"
   inkscape:window-x="-8"
   inkscape:window-y="-8"
   inkscape:window-maximized="1"
   inkscape:current-layer="FlashAICB"
   fit-margin-top="0"
   fit-margin-left="0"
   fit-margin-right="0"
   fit-margin-bottom="0" />
<g
   id="g36"
   transform="matrix(5.4298503,0,0,5.4298503,-32.578922,-27.636542)">
	<path
   style="clip-rule:evenodd;fill:#f2e396;fill-rule:evenodd"
   d="M 31.55,18.65 H 31.5 c -0.134,-0.267 -0.267,-0.467 -0.4,-0.6 h -0.05 l -0.2,-0.2 -0.1,-0.05 0.7,0.05 c 0.3,0.066 0.783,0.1 1.45,0.1 0.699,0.3 1.149,0.466 1.35,0.5 0.434,0.133 0.85,0.2 1.25,0.2 0.333,-0.033 0.866,-0.117 1.6,-0.25 0.7,-0.066 1.367,0.083 2,0.45 1.167,0.533 2.567,0.933 4.2,1.2 0.233,0 0.517,0.017 0.851,0.05 C 44.05,20.2 44,20.316 44,20.45 c 0,0.133 0.8,0.267 2.4,0.399 -0.367,-0.366 -0.867,-0.6 -1.5,-0.699 0.033,0 0.083,0 0.149,0 0.566,0.066 1.05,0.333 1.45,0.8 0.467,0.467 0.866,0.8 1.2,1 -0.434,0.066 -0.75,0.1 -0.95,0.1 -0.167,0 -0.384,-0.017 -0.65,-0.05 L 45.95,21.85 C 45.849,21.717 45.4,21.451 44.599,21.05 44.4,20.95 43.95,20.9 43.25,20.9 c -0.366,0 -0.833,-0.017 -1.4,-0.051 0.134,-0.3 0.15,-0.633 0.051,-1 l -0.5,0.1 c -0.434,0.066 -0.784,0.066 -1.051,0 -0.199,-0.1 -0.383,-0.184 -0.55,-0.25 -0.2,-0.1 -0.517,-0.1 -0.95,0 -0.333,-0.1 -0.6,-0.15 -0.8,-0.15 H 37.7 l -2,-0.7 -0.2,-0.15 1.45,1.2 H 36.9 l -0.65,-0.5 -0.9,-0.25 c -0.3,-0.2 -0.55,-0.333 -0.75,-0.4 v -0.1 h -0.25 -2.8 z M 47.75,22 c 0.167,0.066 0.434,0.15 0.8,0.25 -0.434,0.2 -0.583,0.434 -0.45,0.7 L 48,22.9 c -0.134,-0.067 -0.366,-0.134 -0.7,-0.2 -0.366,-0.033 -0.616,-0.084 -0.75,-0.15 0.9,-0.067 1.3,-0.25 1.2,-0.55 z m 3.075,1.175 c 0.054,0.053 0.112,0.094 0.175,0.125 0.434,0.367 0.733,0.733 0.9,1.101 -0.434,0.433 -0.851,0.716 -1.25,0.85 L 50.5,25.3 C 49.967,25.134 49.6,24.984 49.4,24.85 L 49.35,24.7 49.05,24.3 48.9,23.85 c -0.134,-0.267 -0.301,-0.433 -0.5,-0.5 l -0.051,-0.1 c 0.2,0.134 0.551,0.2 1.051,0.2 l 0.699,0.1 c 0.267,-0.033 0.534,-0.133 0.801,-0.3 -0.029,-0.029 -0.054,-0.054 -0.075,-0.075 z M 52.1,25.5 C 52.034,25.333 52,25.184 52,25.05 c 0.028,0.256 0.203,0.631 0.525,1.125 C 52.327,25.917 52.186,25.692 52.1,25.5 Z m -1.05,4.55 c 0.101,-0.2 0.25,-0.35 0.45,-0.45 h -0.05 l 0.25,-0.1 c 0.049,-0.021 0.099,-0.037 0.149,-0.05 -0.366,0.133 -0.632,0.333 -0.799,0.6 z m -19.55,4.6 c -0.134,0.233 -0.2,0.5 -0.2,0.8 0.167,0.1 0.5,0.166 1,0.2 0.233,0 0.533,0 0.9,0 0.467,0 0.967,-0.034 1.5,-0.101 -0.4,0.334 -0.851,0.601 -1.351,0.8 -1,0.434 -2.35,0.301 -4.05,-0.399 -0.533,-0.267 -0.9,-0.45 -1.1,-0.55 -0.367,-0.2 -0.75,-0.284 -1.15,-0.25 -0.367,0.033 -0.683,0.133 -0.95,0.3 -0.333,0.2 -0.667,0.333 -1,0.399 -0.8,0.2 -1.867,0.067 -3.2,-0.399 -0.566,-0.167 -1.066,-0.367 -1.5,-0.601 l -0.45,-0.3 L 19.9,34.6 v -0.05 l -0.15,0.101 c -0.733,0.267 -1.617,0.383 -2.65,0.35 -0.667,-0.033 -1.383,-0.4 -2.15,-1.1 -0.733,-0.801 -1.267,-1.301 -1.6,-1.5 -0.333,-0.233 -0.983,-0.45 -1.95,-0.65 -0.933,-0.2 -1.5,-0.384 -1.7,-0.55 -0.4,-0.267 -0.717,-0.834 -0.95,-1.7 l 0.6,-0.15 H 8.7 V 29.2 C 8.166,29.099 7.666,28.917 7.2,28.65 6.867,28.417 6.567,28.016 6.3,27.45 c 0.034,-0.066 0.083,-0.134 0.15,-0.2 0.4,-0.4 0.667,-0.733 0.8,-1 0.032,-0.032 0.048,-0.082 0.05,-0.15 0.1,-0.166 0.117,-0.366 0.05,-0.6 -0.033,-0.267 0.017,-0.55 0.15,-0.85 0.133,0.1 0.317,0.116 0.55,0.05 0.2,-0.033 0.333,-0.117 0.4,-0.25 l 0.75,-1.4 c 0.233,-0.133 0.483,-0.267 0.75,-0.399 0.333,-0.101 0.883,-0.301 1.65,-0.601 0.633,-0.267 1.066,-0.583 1.3,-0.95 0.133,-0.199 0.267,-0.366 0.4,-0.5 l 0.25,0.051 c 0.667,0.133 1.184,0.083 1.55,-0.15 l 0.3,-0.35 h -0.15 c 0.633,-0.067 1.217,-0.2 1.75,-0.4 l 1.1,-0.7 c 0.018,-0.014 0.035,-0.031 0.05,-0.05 0.1,0.133 0.267,0.217 0.5,0.25 0.833,0.2 1.467,0.167 1.9,-0.1 0.167,-0.066 0.317,-0.217 0.45,-0.45 l -1.4,-0.15 c 0.4,0.034 1.033,0.1 1.9,0.2 0.509,0.063 0.901,0.063 1.175,0 -0.391,0.103 -0.699,0.203 -0.925,0.3 -0.133,0.067 -0.283,0.2 -0.45,0.4 -0.133,0.2 -0.283,0.333 -0.45,0.4 -0.434,0.133 -1,0.216 -1.7,0.25 -0.8,0 -1.383,0 -1.75,0 -0.267,0 -0.583,0.084 -0.95,0.25 -0.367,0.267 -0.667,0.45 -0.9,0.551 -0.566,0.233 -0.983,0.35 -1.25,0.35 -0.9,-0.134 -1.383,-0.083 -1.45,0.15 v 0.1 l -0.25,0.25 c -0.267,0 -0.45,0.033 -0.55,0.1 L 12,21.9 c -0.2,0.1 -0.35,0.233 -0.45,0.399 L 11.5,22.4 c -0.267,0.133 -0.7,0.383 -1.3,0.75 C 10,23.316 9.7,23.667 9.3,24.2 8.933,24.733 8.7,25.016 8.6,25.05 L 7.3,26.1 v 0.15 c 0.667,-0.1 1.284,-0.1 1.85,0 -0.066,0.267 -0.1,0.533 -0.1,0.8 0,0.967 0.417,1.884 1.25,2.75 -0.033,0 -0.066,0.017 -0.1,0.05 -0.167,0.134 -0.217,0.284 -0.15,0.45 0.067,0.267 0.317,0.434 0.75,0.5 0.2,0.033 0.383,-0.017 0.55,-0.149 0.933,0.666 2.167,1.267 3.7,1.8 0.267,0.133 0.55,0.25 0.85,0.35 -0.066,0.033 -0.133,0.084 -0.2,0.15 -0.133,0.2 0,0.434 0.4,0.7 0.433,0.267 1.167,0.366 2.2,0.3 0.333,-0.066 0.534,-0.15 0.6,-0.25 0,-0.033 0.017,-0.05 0.05,-0.05 0.933,0.199 1.917,0.383 2.95,0.55 0,0.2 0.2,0.399 0.6,0.6 0.667,0.367 1.4,0.517 2.2,0.45 0.3,-0.033 0.617,-0.167 0.95,-0.4 0.1,-0.033 0.233,-0.1 0.4,-0.199 1.1,0.033 2.25,0.05 3.45,0.05 0.667,-0.002 1.333,-0.018 2,-0.052 z M 10.1,32.9 c 0.4,0.133 0.767,0.25 1.1,0.35 -0.167,-0.033 -0.317,-0.066 -0.45,-0.1 C 10.517,33.083 10.3,33 10.1,32.9 Z M 23.65,18.65 23.6,18.35 c 0.311,-0.123 0.611,-0.223 0.9,-0.3 0,0.3 0.033,0.517 0.1,0.65 0.367,0.1 0.95,0.117 1.75,0.05 0.4,0 0.65,-0.25 0.75,-0.75 0.367,0.067 0.767,0.15 1.2,0.25 0.155,0.062 0.338,0.095 0.55,0.1 H 28.7 C 28.1,18.683 27.717,18.867 27.55,18.9 27.35,18.967 26.833,19 26,19 25.367,18.933 24.9,18.9 24.6,18.9 h -0.1 c -0.267,-0.167 -0.55,-0.25 -0.85,-0.25 z m 27.55,8.4 c -0.634,0.033 -0.917,0.35 -0.85,0.95 0.034,0.233 0.233,0.384 0.601,0.45 l -0.55,0.2 c -0.834,0.166 -1.317,0.933 -1.45,2.3 -0.033,0.666 -0.117,1.1 -0.25,1.3 -0.134,0.134 -0.533,0.267 -1.2,0.4 h -0.15 c -0.233,-0.034 -0.449,-0.034 -0.649,0 l -0.7,0.1 c -0.866,-0.066 -1.4,-0.083 -1.6,-0.05 -0.5,0.1 -1.067,0.399 -1.7,0.899 L 41.65,34.4 c -0.567,0.333 -1.351,0.616 -2.351,0.85 -0.967,0.134 -1.75,0.134 -2.35,0 -0.334,-0.2 -0.584,-0.283 -0.75,-0.25 H 35.85 c 0.167,-0.233 0.301,-0.467 0.4,-0.7 2.833,-0.366 5.4,-0.983 7.7,-1.85 4,-1.467 6,-3.267 6,-5.4 0,-0.399 -0.066,-0.783 -0.2,-1.149 H 50 l 0.3,-0.25 c 0.066,0.133 0.267,0.399 0.601,0.8 z m -9.45,6.6 -1.3,0.25 c -0.233,0.066 -0.45,0.116 -0.65,0.149 -0.333,0.134 -0.517,0.267 -0.55,0.4 0,0.133 0.2,0.267 0.6,0.399 0.434,0.034 0.851,-0.05 1.25,-0.25 0.466,-0.232 0.683,-0.548 0.65,-0.948 z m 6.95,-2.55 -1.15,0.15 c -0.434,0.134 -0.666,0.217 -0.7,0.25 -0.066,0.1 -0.066,0.233 0,0.4 0.034,0.166 0.101,0.283 0.2,0.35 0.367,0.267 0.75,0.25 1.15,-0.05 0.4,-0.334 0.567,-0.7 0.5,-1.1 z M 39.1,18.85 c -0.699,-0.367 -1.383,-0.5 -2.05,-0.4 l 0.25,0.4 c 0.233,0.2 0.566,0.267 1,0.2 0.266,0 0.533,-0.067 0.8,-0.2 z M 19.3,35.8 c 0.4,-0.033 0.667,0 0.8,0.101 0.4,0.267 0.8,0.449 1.2,0.55 l 0.7,0.2 C 21.167,36.517 20.567,36.3 20.2,36.001 20.033,35.866 19.733,35.8 19.3,35.8 Z m 10.15,1.1 1.5,0.25 h 0.35 l 0.75,0.1 c -0.134,0 -0.268,0 -0.399,0 -0.967,-0.1 -1.75,-0.217 -2.351,-0.35 -0.121,-0.03 -0.237,-0.047 -0.35,-0.051 0.079,0 0.162,0 0.25,0 z M 7.7,27.45 c -0.1,0.4 0,0.65 0.3,0.75 0.333,0.133 0.567,0.017 0.7,-0.351 0,-0.1 0.033,-0.366 0.1,-0.8 L 8.15,26.8 C 7.883,26.866 7.733,27.083 7.7,27.45 Z m 26.075,9.65 c 0.058,-0.018 0.116,-0.034 0.175,-0.05 h 0.1 c -0.094,0.015 -0.186,0.032 -0.275,0.05 z M 38.9,36.05 c -0.667,0.033 -1.167,0.066 -1.5,0.101 L 38,36.05 c 0.052,0 0.102,0 0.15,0 h 0.399 c 0.134,0 0.251,0 0.351,0 z"
   id="path2"
   inkscape:connector-curvature="0" />
	<path
   style="clip-rule:evenodd;fill:#fff5c9;fill-rule:evenodd"
   d="m 44.9,20.15 c 0.633,0.1 1.133,0.333 1.5,0.699 C 44.8,20.717 44,20.583 44,20.45 c 0,-0.134 0.05,-0.25 0.15,-0.351 l 0.05,-0.05 c 0.234,0.001 0.467,0.034 0.7,0.101 z m 3.65,2.1 0.55,0.2 c 0.467,0.066 0.9,0.217 1.301,0.45 l 0.1,0.1 c 0.134,0.033 0.233,0.083 0.3,0.15 l 0.025,0.024 c 0.021,0.021 0.046,0.046 0.075,0.075 -0.267,0.167 -0.534,0.267 -0.801,0.3 l -0.699,-0.1 c -0.5,0 -0.851,-0.066 -1.051,-0.2 l -0.149,-0.1 C 48.135,23.082 48.1,23.015 48.1,22.949 47.967,22.684 48.116,22.45 48.55,22.25 Z M 9.2,23.05 8.45,24.45 C 8.383,24.583 8.25,24.667 8.05,24.7 7.817,24.766 7.633,24.75 7.5,24.65 7.8,23.983 8.367,23.433 9.2,23 Z m 10.4,-4.5 1.4,0.15 c -0.133,0.233 -0.283,0.383 -0.45,0.45 -0.433,0.267 -1.066,0.3 -1.9,0.1 -0.233,-0.033 -0.4,-0.117 -0.5,-0.25 0.031,-0.019 0.064,-0.035 0.1,-0.05 0.13,-0.094 0.28,-0.177 0.45,-0.25 l 0.5,-0.1 h 0.05 c 0.133,-0.033 0.25,-0.05 0.35,-0.05 z M 27.1,18 c -0.1,0.5 -0.35,0.75 -0.75,0.75 -0.8,0.067 -1.383,0.05 -1.75,-0.05 -0.067,-0.133 -0.1,-0.35 -0.1,-0.65 0.133,-0.033 0.267,-0.066 0.4,-0.1 0.033,-0.034 0.1,-0.05 0.2,-0.05 0.066,-0.033 0.133,-0.05 0.2,-0.05 h 1.2 c 0.2,0.033 0.4,0.083 0.6,0.15 z m 5.8,-0.05 c -0.667,0 -1.15,-0.034 -1.45,-0.1 l -0.7,-0.05 c 0.066,0 0.116,-0.017 0.15,-0.05 h 0.05 c 0.033,-0.033 0.066,-0.05 0.1,-0.05 0.101,-0.034 0.217,-0.05 0.351,-0.05 0.199,0 0.433,0.017 0.699,0.05 l 0.351,0.1 c 0.066,0.034 0.149,0.05 0.25,0.05 z m -1.4,16.7 c 1.667,-0.034 3.25,-0.15 4.75,-0.351 -0.1,0.233 -0.233,0.467 -0.4,0.7 -0.233,0.2 -0.416,0.35 -0.55,0.45 l -0.6,0.1 c -0.533,0.066 -1.033,0.101 -1.5,0.101 -0.367,0 -0.667,0 -0.9,0 -0.5,-0.034 -0.833,-0.101 -1,-0.2 0,-0.3 0.066,-0.566 0.2,-0.8 z m 19.7,-7.6 c 0.3,0 0.533,0.017 0.7,0.05 l 0.6,0.65 c -0.1,0.3 -0.167,0.5 -0.2,0.6 -0.066,0.167 -0.267,0.233 -0.6,0.2 -0.334,-0.033 -0.584,-0.066 -0.75,-0.1 C 50.583,28.384 50.384,28.233 50.349,28 50.283,27.4 50.566,27.083 51.2,27.05 Z m -2.5,4.05 c 0.066,0.4 -0.101,0.767 -0.5,1.101 -0.4,0.3 -0.783,0.316 -1.15,0.05 -0.1,-0.066 -0.166,-0.184 -0.2,-0.35 -0.066,-0.167 -0.066,-0.301 0,-0.4 0.034,-0.033 0.267,-0.116 0.7,-0.25 z m -6.95,2.55 c 0.033,0.399 -0.184,0.716 -0.65,0.949 -0.399,0.2 -0.816,0.284 -1.25,0.25 -0.399,-0.133 -0.6,-0.267 -0.6,-0.399 0.033,-0.134 0.217,-0.267 0.55,-0.4 0.2,-0.033 0.417,-0.083 0.65,-0.149 z M 39.1,18.85 c -0.267,0.133 -0.533,0.2 -0.8,0.2 -0.434,0.067 -0.767,0 -1,-0.2 l -0.25,-0.4 c 0.667,-0.1 1.35,0.033 2.05,0.4 z M 10.3,29.8 c 0.267,0.267 0.617,0.55 1.05,0.851 C 11.183,30.783 11,30.833 10.8,30.8 10.367,30.734 10.117,30.567 10.05,30.3 9.984,30.134 10.033,29.984 10.2,29.85 10.233,29.816 10.267,29.8 10.3,29.8 Z m 5.6,3 c 0.967,0.3 1.983,0.584 3.05,0.851 -0.034,0 -0.05,0.017 -0.05,0.05 -0.066,0.1 -0.267,0.184 -0.6,0.25 -1.033,0.066 -1.767,-0.033 -2.2,-0.3 -0.4,-0.267 -0.533,-0.5 -0.4,-0.7 0.067,-0.067 0.133,-0.118 0.2,-0.151 z M 7.7,27.45 C 7.733,27.083 7.883,26.866 8.15,26.8 L 8.8,27.05 C 8.734,27.484 8.7,27.75 8.7,27.85 8.567,28.217 8.333,28.333 8,28.2 7.7,28.1 7.6,27.85 7.7,27.45 Z m 14.2,6.75 c 1.333,0.166 2.717,0.316 4.15,0.45 -0.167,0.1 -0.3,0.166 -0.4,0.199 -0.333,0.233 -0.65,0.367 -0.95,0.4 -0.8,0.066 -1.534,-0.083 -2.2,-0.45 C 22.1,34.6 21.9,34.4 21.9,34.2 Z"
   id="path4"
   inkscape:connector-curvature="0" />
	<path
   style="clip-rule:evenodd;fill:#d5c578;fill-rule:evenodd"
   d="m 46.1,22 c -0.166,0 -0.333,-0.05 -0.5,-0.15 -0.166,-0.1 -0.283,-0.166 -0.35,-0.199 -0.1,-0.101 -0.267,-0.167 -0.5,-0.2 h -1.2 l -1.8,-0.5 0.1,-0.101 c 0.567,0.034 1.034,0.051 1.4,0.051 0.7,0 1.15,0.05 1.35,0.149 0.801,0.4 1.25,0.667 1.351,0.8 z m 4.4,3.3 0.15,-0.05 c 0.399,-0.134 0.816,-0.417 1.25,-0.85 0.066,0.166 0.1,0.366 0.1,0.6 v 0.05 c 0,0.134 0.033,0.283 0.1,0.45 l -0.8,-0.05 c -0.434,0 -0.684,0.033 -0.75,0.1 0.033,0.134 0.15,0.283 0.351,0.45 0.133,0.066 0.283,0.167 0.449,0.3 l 0.601,0.55 c 0.434,0.334 0.684,0.551 0.75,0.65 0.1,0.267 0.083,0.583 -0.05,0.95 -0.101,0.366 -0.367,0.7 -0.801,1 -0.233,-0.167 -0.483,-0.283 -0.75,-0.351 -0.333,-0.033 -0.6,0.017 -0.8,0.15 -0.399,0.267 -0.666,0.884 -0.8,1.85 0,0.101 -0.017,0.351 -0.05,0.75 V 31.9 l 0.05,0.449 c 0,0.101 0.017,0.184 0.05,0.25 -0.3,0.2 -0.583,0.334 -0.85,0.4 -0.101,-0.033 -0.184,-0.066 -0.25,-0.1 l -1.101,-0.25 h 0.15 c 0.667,-0.134 1.066,-0.267 1.2,-0.4 0.133,-0.2 0.217,-0.634 0.25,-1.3 0.133,-1.367 0.616,-2.134 1.45,-2.3 l 0.55,-0.2 c 0.166,0.033 0.416,0.066 0.75,0.1 0.333,0.033 0.533,-0.033 0.6,-0.2 0.033,-0.1 0.101,-0.3 0.2,-0.6 l -0.6,-0.65 c -0.167,-0.033 -0.4,-0.05 -0.7,-0.05 l -0.3,-0.6 c -0.334,-0.4 -0.534,-0.667 -0.601,-0.8 0.167,-0.101 0.283,-0.184 0.351,-0.25 z M 7.8,30.55 v -0.2 c 0.067,-0.399 0.383,-0.683 0.95,-0.85 0.233,0.866 0.55,1.434 0.95,1.7 0.2,0.166 0.767,0.35 1.7,0.55 0.967,0.2 1.617,0.417 1.95,0.65 0.333,0.199 0.867,0.699 1.6,1.5 0.767,0.699 1.483,1.066 2.15,1.1 1.033,0.033 1.917,-0.083 2.65,-0.35 -0.267,0.267 -0.433,0.416 -0.5,0.449 -0.4,0.267 -0.8,0.45 -1.2,0.551 -0.233,0.1 -0.45,0.166 -0.65,0.199 h -0.05 c -0.033,0 -0.067,0 -0.1,0 -0.433,-0.033 -0.833,-0.133 -1.2,-0.3 l -1.15,-0.6 c -0.167,-0.101 -0.333,-0.2 -0.5,-0.3 -0.333,-0.267 -0.617,-0.467 -0.85,-0.601 -0.167,-0.133 -0.316,-0.217 -0.45,-0.25 l -0.15,-0.7 c -0.2,-0.433 -0.767,-0.666 -1.7,-0.699 -0.9,0 -1.567,-0.051 -2,-0.15 L 8.5,32 C 8.467,31.967 8.433,31.934 8.4,31.9 V 31.85 C 8.367,31.85 8.334,31.833 8.3,31.8 V 31.7 C 8.234,31.634 8.2,31.55 8.2,31.45 8.133,31.05 8,30.75 7.8,30.55 Z m -1.5,-3.1 c 0.267,0.566 0.567,0.967 0.9,1.2 0.466,0.267 0.966,0.449 1.5,0.55 v 0.149 C 8.1,29.283 7.7,29.2 7.5,29.099 7.1,28.966 6.817,28.849 6.65,28.749 6.317,28.615 6.1,28.449 6,28.249 6,28.115 6.033,27.982 6.1,27.849 6.1,27.783 6.117,27.733 6.15,27.7 L 6.2,27.65 C 6.233,27.583 6.266,27.533 6.3,27.5 Z m 17.3,-9.1 0.05,0.3 c -0.5,0.033 -0.95,0.267 -1.35,0.7 -0.1,0.1 -0.2,0.283 -0.3,0.55 -1.067,0.133 -2.1,0.317 -3.1,0.55 -0.566,-0.101 -1.017,-0.101 -1.35,0 -0.3,0.066 -0.6,0.2 -0.9,0.399 -0.233,0.134 -0.383,0.267 -0.45,0.4 -0.4,0.134 -0.784,0.267 -1.15,0.4 -0.4,0.133 -0.783,0.283 -1.15,0.449 -0.066,-0.033 -0.133,-0.05 -0.2,-0.05 -0.4,-0.166 -0.7,-0.267 -0.9,-0.3 h -0.2 l 0.25,-0.25 v -0.1 c 0.066,-0.233 0.55,-0.284 1.45,-0.15 0.267,0 0.684,-0.116 1.25,-0.35 0.233,-0.101 0.534,-0.284 0.9,-0.551 0.367,-0.166 0.683,-0.25 0.95,-0.25 0.367,0 0.95,0 1.75,0 0.7,-0.033 1.267,-0.116 1.7,-0.25 0.167,-0.067 0.316,-0.2 0.45,-0.4 0.167,-0.2 0.317,-0.333 0.45,-0.4 0.226,-0.097 0.534,-0.197 0.925,-0.3 H 22.7 c 0.033,-0.033 0.083,-0.067 0.15,-0.1 h 0.05 c 0.239,-0.109 0.473,-0.209 0.7,-0.297 z m 5.4,0 c -0.067,0.333 -0.3,0.633 -0.7,0.9 -0.133,0.033 -0.233,0.1 -0.3,0.2 -0.9,0 -1.783,0.033 -2.65,0.1 C 25.083,19.283 24.8,19.067 24.5,18.9 h 0.1 c 0.3,0 0.767,0.033 1.4,0.1 0.833,0 1.35,-0.033 1.55,-0.1 0.167,-0.033 0.55,-0.217 1.15,-0.55 h 0.15 z m 9.85,1.35 -0.35,0.15 -0.8,-0.3 h 0.35 c 0.2,0 0.467,0.05 0.8,0.15 z m -7.3,-1.05 h 2.8 c -0.767,0.133 -1.383,0.4 -1.85,0.8 -0.1,0 -0.2,0 -0.3,0 -0.03,-0.272 -0.155,-0.481 -0.375,-0.625 L 31.775,18.8 H 31.75 l -0.1,-0.05 z m 16.55,4.3 c 0,0.066 0.034,0.133 0.101,0.2 l 0.149,0.1 0.051,0.1 c -0.233,-0.066 -0.5,-0.1 -0.801,-0.1 -0.133,0 -0.25,0 -0.35,0 -0.109,-0.082 -0.209,-0.14 -0.3,-0.175 L 46.1,22.6 c 0.101,-0.033 0.25,-0.05 0.45,-0.05 0.134,0.066 0.384,0.117 0.75,0.15 0.334,0.066 0.566,0.133 0.7,0.2 z m 1.3,1.9 -0.15,-0.1 c -0.1,-0.1 -0.167,-0.25 -0.2,-0.45 l 0.3,0.4 z M 32.05,37.25 31.3,37.15 H 30.95 L 29.45,36.9 29.4,36.7 c -0.067,-0.134 -0.367,-0.3 -0.9,-0.5 -0.2,-0.101 -0.45,-0.334 -0.75,-0.7 -1.233,0.733 -2.217,1.1 -2.95,1.1 -0.566,-0.066 -1,-0.1 -1.3,-0.1 -0.4,0 -0.733,-0.017 -1,-0.05 -0.367,-0.066 -0.65,-0.184 -0.85,-0.351 -0.367,-0.1 -0.617,-0.183 -0.75,-0.25 -0.267,-0.1 -0.467,-0.25 -0.6,-0.449 l -0.4,-0.8 0.05,-0.05 0.45,0.3 c 0.434,0.233 0.934,0.434 1.5,0.601 1.333,0.467 2.4,0.6 3.2,0.399 0.333,-0.066 0.667,-0.199 1,-0.399 0.267,-0.167 0.583,-0.267 0.95,-0.3 0.4,-0.034 0.784,0.05 1.15,0.25 0.2,0.1 0.566,0.283 1.1,0.55 1.7,0.7 3.05,0.833 4.05,0.399 0.5,-0.199 0.95,-0.466 1.351,-0.8 l 0.6,-0.1 C 35.435,35.349 35.617,35.2 35.851,35 H 36.2 c -0.2,0.866 -0.584,1.434 -1.15,1.7 -0.267,0.133 -0.566,0.25 -0.899,0.35 h -0.101 -0.1 c -0.059,0.016 -0.117,0.032 -0.175,0.05 -0.473,0.1 -1.048,0.15 -1.725,0.15 z m 6.5,-1.2 h -0.4 l -1.2,-0.8 c 0.6,0.134 1.383,0.134 2.35,0 1,-0.233 1.783,-0.517 2.351,-0.85 L 42.7,33.6 c 0.633,-0.5 1.2,-0.8 1.7,-0.899 0.199,-0.033 0.733,-0.017 1.6,0.05 l -0.95,0.3 -1.95,1.4 -0.399,0.2 c -0.2,0.267 -0.367,0.466 -0.5,0.6 -0.233,0.167 -0.467,0.3 -0.7,0.4 -0.637,0.242 -1.62,0.374 -2.951,0.399 z M 34.6,18.75 c 0.2,0.067 0.45,0.2 0.75,0.4 l 0.9,0.25 0.65,0.5 c -0.667,-0.1 -1.351,-0.183 -2.051,-0.25 -0.1,-0.1 -0.183,-0.183 -0.25,-0.25 V 18.75 Z M 10.8,23.9 c -0.466,0.366 -0.833,0.75 -1.1,1.149 -0.3,0.167 -0.667,0.3 -1.1,0.4 v 0.25 c 0.267,0.1 0.483,0.184 0.65,0.25 -0.033,0.1 -0.067,0.2 -0.1,0.3 -0.566,-0.1 -1.183,-0.1 -1.85,0 V 26.1 l 1.3,-1.05 c 0.1,-0.033 0.333,-0.316 0.7,-0.85 0.4,-0.533 0.7,-0.884 0.9,-1.05 0.6,-0.367 1.033,-0.617 1.3,-0.75 -0.233,0.6 -0.467,1.1 -0.7,1.5 z"
   id="path6"
   inkscape:connector-curvature="0" />
	<path
   style="clip-rule:evenodd;fill:#a49753;fill-rule:evenodd"
   d="M 41.75,20.95 40.4,20.55 C 39.299,20.283 38.15,20.067 36.95,19.9 l -1.45,-1.2 0.2,0.15 2,0.7 0.8,0.3 0.35,-0.15 c 0.434,-0.1 0.75,-0.1 0.95,0 0.167,0.066 0.351,0.15 0.55,0.25 0.267,0.066 0.617,0.066 1.051,0 l 0.5,-0.1 c 0.1,0.367 0.083,0.7 -0.051,1 z m 7.3,3.35 c 0.033,0.2 0.101,0.351 0.2,0.45 l 0.15,0.1 c 0.199,0.134 0.566,0.284 1.1,0.45 l 0.15,0.101 c -0.067,0.066 -0.184,0.149 -0.351,0.25 L 50,25.9 h -0.25 c -0.366,-0.967 -1.2,-1.851 -2.5,-2.65 0.1,0 0.217,0 0.35,0 0.301,0 0.567,0.033 0.801,0.1 0.199,0.067 0.366,0.233 0.5,0.5 z M 47.75,22 c 0.1,0.3 -0.3,0.483 -1.2,0.55 -0.2,0 -0.35,0.017 -0.45,0.05 l -1,-0.55 c -0.5,-0.2 -1.017,-0.399 -1.55,-0.6 h 1.2 c 0.233,0.033 0.4,0.1 0.5,0.2 0.066,0.033 0.184,0.1 0.35,0.199 0.167,0.101 0.334,0.151 0.5,0.151 0.267,0.033 0.483,0.05 0.65,0.05 0.2,0 0.517,-0.033 0.95,-0.1 0,0.033 0.017,0.05 0.05,0.05 z m 2.5,9.8 c -0.2,0.334 -0.434,0.601 -0.7,0.8 C 49.517,32.534 49.5,32.451 49.5,32.35 L 49.45,31.9 v -0.05 c 0.033,-0.399 0.05,-0.649 0.05,-0.75 0.134,-0.966 0.4,-1.583 0.8,-1.85 0.2,-0.134 0.467,-0.184 0.8,-0.15 0.267,0.067 0.517,0.184 0.75,0.351 0.434,-0.3 0.7,-0.634 0.801,-1 0.133,-0.367 0.149,-0.684 0.05,-0.95 -0.066,-0.1 -0.316,-0.316 -0.75,-0.65 L 51.35,26.3 c -0.166,-0.133 -0.316,-0.233 -0.449,-0.3 -0.2,-0.167 -0.317,-0.316 -0.351,-0.45 0.066,-0.066 0.316,-0.1 0.75,-0.1 l 0.8,0.05 c 0.086,0.192 0.228,0.417 0.426,0.675 0.052,0.09 0.11,0.182 0.175,0.275 0.066,0.066 0.133,0.133 0.2,0.2 0.267,0.466 0.316,1 0.149,1.6 -0.1,0.333 -0.3,0.616 -0.6,0.85 l -0.05,0.05 c -0.167,0.133 -0.351,0.233 -0.551,0.3 -0.051,0.013 -0.101,0.029 -0.149,0.05 l -0.25,0.1 h 0.05 c -0.2,0.101 -0.35,0.25 -0.45,0.45 -0.233,0.2 -0.383,0.45 -0.45,0.75 -0.1,0.367 -0.216,0.7 -0.35,1 z M 10.1,32.9 9.9,32.85 C 9.767,32.784 9.633,32.717 9.5,32.651 H 9.4 C 9,32.417 8.7,32.2 8.5,32 l 0.75,0.25 c 0.433,0.1 1.1,0.15 2,0.15 0.933,0.033 1.5,0.267 1.7,0.699 l 0.15,0.7 C 13,33.733 12.916,33.683 12.85,33.65 12.45,33.483 12,33.349 11.5,33.25 c -0.1,0 -0.2,0 -0.3,0 -0.333,-0.1 -0.7,-0.217 -1.1,-0.35 z M 8.7,29.35 H 9.35 L 8.75,29.5 C 8.183,29.667 7.867,29.95 7.8,30.35 v 0.2 C 7.5,30.317 7.234,30.083 7,29.85 6.533,29.45 6.233,29.066 6.1,28.7 L 6.05,28.5 C 6.017,28.434 6,28.35 6,28.25 c 0.1,0.2 0.317,0.366 0.65,0.5 0.167,0.1 0.45,0.217 0.85,0.35 0.2,0.1 0.6,0.183 1.2,0.25 z m 28.25,5.9 1.2,0.8 c -0.049,0 -0.099,0 -0.15,0 l -0.6,0.101 c -0.134,0 -0.233,0.017 -0.301,0.05 -0.699,0.233 -1.316,0.434 -1.85,0.6 l -0.15,0.05 c -0.066,0 -0.133,0 -0.199,0 -0.267,0.101 -0.517,0.167 -0.75,0.2 0.333,-0.1 0.633,-0.217 0.899,-0.35 0.566,-0.267 0.95,-0.834 1.15,-1.7 0.167,-0.034 0.417,0.049 0.751,0.249 z m 1.95,0.8 c -0.101,0 -0.218,0 -0.351,0 1.331,-0.024 2.314,-0.157 2.95,-0.399 0.233,-0.101 0.467,-0.233 0.7,-0.4 0.133,-0.134 0.3,-0.333 0.5,-0.6 l 0.399,-0.2 1.95,-1.4 0.95,-0.3 0.7,-0.1 c 0.2,-0.034 0.416,-0.034 0.649,0 l 1.101,0.25 c 0.066,0.033 0.149,0.066 0.25,0.1 -0.233,0.066 -0.584,0.15 -1.05,0.25 H 47.2 c -0.733,0.134 -1.634,0.533 -2.7,1.2 -1.134,0.7 -2.083,1.133 -2.85,1.3 l -1.15,0.2 c -0.333,0.066 -0.667,0.1 -1,0.1 C 39.4,36.05 39.2,36.05 38.9,36.05 Z M 25.35,19.55 c -1.133,0.067 -2.25,0.184 -3.35,0.35 0.1,-0.267 0.2,-0.45 0.3,-0.55 0.4,-0.434 0.85,-0.667 1.35,-0.7 0.3,0 0.583,0.083 0.85,0.25 0.3,0.167 0.583,0.383 0.85,0.65 z M 13.9,22.1 c -1.3,0.567 -2.333,1.167 -3.1,1.801 0.233,-0.4 0.467,-0.9 0.7,-1.5 L 11.55,22.3 C 11.65,22.134 11.8,22 12,21.9 l 0.05,-0.051 c 0.1,-0.066 0.284,-0.1 0.55,-0.1 h 0.2 c 0.2,0.033 0.5,0.134 0.9,0.3 0.067,0.001 0.133,0.017 0.2,0.051 z m 5,-1.65 c -0.933,0.233 -1.833,0.5 -2.7,0.8 0.066,-0.134 0.216,-0.267 0.45,-0.4 0.3,-0.199 0.6,-0.333 0.9,-0.399 0.333,-0.101 0.783,-0.101 1.35,-0.001 z m 15.95,-0.8 c -0.767,-0.1 -1.55,-0.167 -2.35,-0.2 0.467,-0.4 1.083,-0.667 1.85,-0.8 h 0.25 v 0.1 0.65 c 0.067,0.067 0.15,0.15 0.25,0.25 z M 9.7,25.05 C 9.5,25.317 9.35,25.616 9.25,25.95 9.083,25.884 8.867,25.8 8.6,25.7 v -0.25 c 0.433,-0.1 0.8,-0.233 1.1,-0.4 z m 10.05,9.6 0.15,-0.101 v 0.05 l 0.4,0.801 c 0.133,0.199 0.333,0.35 0.6,0.449 0.133,0.067 0.383,0.15 0.75,0.25 0.2,0.167 0.483,0.284 0.85,0.351 0.267,0.033 0.6,0.05 1,0.05 0.3,0 0.733,0.033 1.3,0.1 0.733,0 1.717,-0.366 2.95,-1.1 0.3,0.366 0.55,0.6 0.75,0.7 0.533,0.2 0.833,0.366 0.9,0.5 l 0.05,0.2 -0.25,-0.05 c -0.088,0 -0.171,0 -0.25,0 H 28.9 l -0.4,-0.1 C 28.367,36.717 28.267,36.7 28.2,36.7 h -0.1 c -0.033,0 -0.083,0 -0.15,0 -0.034,0 -0.067,0 -0.1,0 -1.067,0.066 -1.917,0.116 -2.55,0.149 -1.133,0 -2.233,-0.066 -3.3,-0.199 l -0.7,-0.2 C 20.9,36.349 20.5,36.167 20.1,35.9 19.967,35.799 19.7,35.766 19.3,35.799 l -0.55,0.05 c -0.533,0.067 -1.033,0.067 -1.5,0 0.033,0 0.067,0 0.1,0 h 0.05 c 0.2,-0.033 0.417,-0.1 0.65,-0.199 0.4,-0.101 0.8,-0.284 1.2,-0.551 0.067,-0.033 0.233,-0.182 0.5,-0.449 z"
   id="path8"
   inkscape:connector-curvature="0" />
	<path
   style="clip-rule:evenodd;fill:#786027;fill-rule:evenodd"
   d="m 36.9,19.9 h 0.05 c 1.2,0.167 2.35,0.383 3.45,0.65 l 1.35,0.4 1.8,0.5 c 0.533,0.2 1.05,0.399 1.55,0.6 l 1,0.55 0.851,0.476 c 0.085,0.035 0.169,0.094 0.25,0.175 0.2,0.134 0.399,0.267 0.6,0.4 C 43.768,21.617 38.918,20.434 33.251,20.1 L 33.1,19.95 c -0.1,0 -0.166,0 -0.199,0 -0.067,-0.034 -0.117,-0.05 -0.15,-0.05 -0.366,-0.1 -0.55,-0.217 -0.55,-0.35 V 19.5 19.45 c 0.1,0 0.2,0 0.3,0 0.8,0.033 1.583,0.1 2.35,0.2 0.699,0.067 1.382,0.15 2.049,0.25 z M 9.25,25.95 c 0.1,-0.334 0.25,-0.634 0.45,-0.9 0.267,-0.399 0.633,-0.783 1.1,-1.149 0.767,-0.634 1.8,-1.233 3.1,-1.801 0.367,-0.166 0.75,-0.316 1.15,-0.449 0.367,-0.134 0.75,-0.267 1.15,-0.4 0.867,-0.3 1.767,-0.566 2.7,-0.8 1,-0.233 2.033,-0.417 3.1,-0.55 1.1,-0.167 2.217,-0.283 3.35,-0.35 0.867,-0.066 1.75,-0.1 2.65,-0.1 -0.333,0.2 -0.583,0.4 -0.75,0.6 -0.467,0.033 -0.917,0.066 -1.35,0.101 -1.467,0.1 -2.867,0.267 -4.2,0.5 -0.5,0.066 -0.967,0.149 -1.4,0.25 -1.066,0.233 -2.1,0.483 -3.1,0.75 -0.067,0 -0.133,0.017 -0.2,0.05 -0.8,0.233 -1.55,0.5 -2.25,0.8 -2.333,0.967 -4,2.217 -5,3.75 -0.033,0.033 -0.05,0.066 -0.05,0.1 -0.267,0.367 -0.467,0.767 -0.6,1.2 l -0.05,-0.5 c 0,-0.267 0.034,-0.533 0.1,-0.8 0.033,-0.102 0.067,-0.202 0.1,-0.302 z m 27,-2.325 C 36.23,23.583 36.214,23.541 36.2,23.5 c 0.6,0.366 0.967,0.684 1.1,0.95 0.2,0.366 0.101,0.833 -0.3,1.399 -0.434,0.601 -0.783,0.967 -1.05,1.101 -0.367,0.2 -1.184,0.399 -2.45,0.6 -1.134,0.167 -2.083,0.15 -2.85,-0.05 -1.167,-0.366 -2.284,-0.717 -3.351,-1.05 -1.367,-0.367 -2.35,-0.9 -2.95,-1.601 0.1,0.067 0.217,0.134 0.35,0.2 0.133,0.134 0.333,0.25 0.6,0.351 0.034,0.033 0.1,0.05 0.2,0.05 0.133,0.066 0.267,0.133 0.4,0.2 0.9,0.333 1.667,0.6 2.3,0.8 0.2,0 0.367,0.033 0.5,0.1 0.066,0 0.133,0.017 0.2,0.05 0.267,0.034 0.55,0.067 0.85,0.101 h 0.55 c 0.7,-0.033 1.483,-0.117 2.351,-0.25 1.399,-0.233 2.416,-0.667 3.05,-1.3 0.1,-0.101 0.184,-0.217 0.25,-0.351 l 0.3,-0.95 z"
   id="path10"
   inkscape:connector-curvature="0" />
	
		<radialGradient
   id="SVGID_1_"
   cx="29.1504"
   cy="26.75"
   r="21.0625"
   gradientTransform="matrix(1,0,0,-0.3792,0,36.8944)"
   gradientUnits="userSpaceOnUse">
		<stop
   offset="0"
   style="stop-color:#C59F4D"
   id="stop12" />
		<stop
   offset="1"
   style="stop-color:#9D7B34"
   id="stop14" />
	</radialGradient>
	<path
   style="clip-rule:evenodd;fill:url(#SVGID_1_);fill-rule:evenodd"
   d="m 18.95,33.65 c -1.067,-0.267 -2.083,-0.551 -3.05,-0.851 -0.3,-0.1 -0.583,-0.217 -0.85,-0.35 -1.533,-0.533 -2.767,-1.134 -3.7,-1.8 C 10.916,30.348 10.567,30.065 10.3,29.798 9.467,28.932 9.05,28.015 9.05,27.048 l 0.05,0.5 c 0.133,-0.434 0.333,-0.833 0.6,-1.2 0,-0.033 0.017,-0.066 0.05,-0.1 1,-1.533 2.667,-2.783 5,-3.75 0.7,-0.3 1.45,-0.566 2.25,-0.8 0.067,-0.033 0.133,-0.05 0.2,-0.05 1,-0.267 2.033,-0.517 3.1,-0.75 0.434,-0.101 0.9,-0.184 1.4,-0.25 1.333,-0.233 2.733,-0.4 4.2,-0.5 0.434,-0.034 0.883,-0.067 1.35,-0.101 -0.1,0.134 -0.167,0.267 -0.2,0.4 l -0.1,0.05 c -0.067,0.1 -0.217,0.2 -0.45,0.3 -0.167,0.066 -0.3,0.167 -0.4,0.3 -0.133,0.067 -0.217,0.15 -0.25,0.25 -0.033,0.034 -0.067,0.067 -0.1,0.101 -0.133,0.2 -0.3,0.399 -0.5,0.6 -0.1,0.066 -0.167,0.134 -0.2,0.2 -0.233,0.233 -0.383,0.417 -0.45,0.55 -0.133,0.167 -0.233,0.316 -0.3,0.45 h -0.05 c -0.167,0.167 -0.267,0.35 -0.3,0.55 -0.034,0.034 -0.05,0.068 -0.05,0.101 V 23.949 24 c 0,0.2 0.067,0.384 0.2,0.55 0.066,0.101 0.15,0.2 0.25,0.3 0.6,0.7 1.583,1.233 2.95,1.601 1.067,0.333 2.184,0.684 3.351,1.05 0.767,0.2 1.716,0.217 2.85,0.05 1.267,-0.2 2.083,-0.399 2.45,-0.6 0.267,-0.134 0.616,-0.5 1.05,-1.101 0.4,-0.566 0.5,-1.033 0.3,-1.399 -0.133,-0.267 -0.5,-0.584 -1.1,-0.95 l -0.05,-0.05 C 36.117,23.36 36.084,23.276 36.05,23.201 35.95,23.034 35.884,22.918 35.85,22.85 35.784,22.717 35.734,22.634 35.701,22.6 35.635,22.534 35.451,22.451 35.151,22.35 35.084,22.317 34.901,22.267 34.6,22.201 34.5,22.168 34.434,22.135 34.401,22.1 L 34.35,22.05 34.3,22 c -0.267,-0.233 -0.434,-0.55 -0.5,-0.95 0,-0.133 -0.05,-0.283 -0.149,-0.45 -0.067,-0.1 -0.15,-0.216 -0.25,-0.35 l -0.15,-0.15 c 5.667,0.334 10.517,1.517 14.55,3.551 -0.2,-0.134 -0.399,-0.267 -0.6,-0.4 -0.081,-0.081 -0.165,-0.14 -0.25,-0.175 0.091,0.035 0.19,0.093 0.3,0.175 1.3,0.8 2.134,1.684 2.5,2.65 0.134,0.366 0.2,0.75 0.2,1.149 0,2.134 -2,3.934 -6,5.4 -2.3,0.866 -4.867,1.483 -7.7,1.85 -1.5,0.2 -3.083,0.316 -4.75,0.351 -0.667,0.033 -1.333,0.05 -2,0.05 -1.2,0 -2.35,-0.017 -3.45,-0.05 -1.433,-0.134 -2.816,-0.284 -4.15,-0.45 C 20.867,34.033 19.883,33.85 18.95,33.65 Z"
   id="path17"
   inkscape:connector-curvature="0" />
	<linearGradient
   id="SVGID_2_"
   gradientUnits="userSpaceOnUse"
   x1="10.3877"
   y1="35.799801"
   x2="50.2127"
   y2="35.799801">
		<stop
   offset="0"
   style="stop-color:#BEA95B"
   id="stop19" />
		<stop
   offset="0.4"
   style="stop-color:#BEA95B"
   id="stop21" />
		<stop
   offset="1"
   style="stop-color:#665A2D"
   id="stop23" />
	</linearGradient>
	<path
   style="clip-rule:evenodd;fill:url(#SVGID_2_);fill-rule:evenodd"
   d="m 37.4,36.15 c 0.333,-0.034 0.833,-0.067 1.5,-0.101 0.3,0 0.5,0 0.6,0 0.333,0 0.667,-0.033 1,-0.1 l 1.15,-0.2 c 0.767,-0.167 1.716,-0.6 2.85,-1.3 1.066,-0.667 1.967,-1.066 2.7,-1.2 h 0.45 c 0.466,-0.1 0.816,-0.184 1.05,-0.25 0.267,-0.066 0.55,-0.2 0.85,-0.4 0.267,-0.199 0.5,-0.466 0.7,-0.8 -0.1,2.167 -2.05,4.033 -5.85,5.601 -3.9,1.6 -8.6,2.4 -14.1,2.4 -5.466,0 -10.15,-0.8 -14.05,-2.399 -3,-1.233 -4.833,-2.65 -5.5,-4.25 0.133,0.033 0.283,0.066 0.45,0.1 0.1,0 0.2,0 0.3,0 0.5,0.1 0.95,0.233 1.35,0.4 0.066,0.033 0.15,0.083 0.25,0.149 0.133,0.033 0.283,0.117 0.45,0.25 0.233,0.134 0.517,0.334 0.85,0.601 0.167,0.1 0.333,0.199 0.5,0.3 l 1.15,0.6 c 0.367,0.167 0.767,0.267 1.2,0.3 0.467,0.067 0.967,0.067 1.5,0 l 0.55,-0.05 c 0.434,0 0.733,0.066 0.9,0.2 0.367,0.3 0.966,0.517 1.8,0.65 1.067,0.133 2.167,0.199 3.3,0.199 0.633,-0.033 1.483,-0.083 2.55,-0.149 0.033,0 0.066,0 0.1,0 0.066,0 0.117,0 0.15,0 h 0.1 c 0.066,0 0.167,0.017 0.3,0.05 l 0.4,0.1 h 0.05 c 0.112,0.004 0.229,0.021 0.35,0.051 0.601,0.133 1.384,0.25 2.351,0.35 0.132,0 0.266,0 0.399,0 0.677,0 1.252,-0.05 1.726,-0.15 0.089,-0.018 0.181,-0.034 0.274,-0.05 h 0.101 c 0.233,-0.033 0.483,-0.1 0.75,-0.2 0.066,0 0.133,0 0.199,0 l 0.15,-0.05 c 0.533,-0.166 1.15,-0.366 1.85,-0.6 0.067,-0.035 0.167,-0.052 0.3,-0.052 z"
   id="path26"
   inkscape:connector-curvature="0" />
	<path
   style="clip-rule:evenodd;fill:#fffcf0;fill-rule:evenodd"
   d="m 27.05,20.45 c 0.034,-0.134 0.1,-0.267 0.2,-0.4 0.167,-0.2 0.417,-0.4 0.75,-0.6 0.067,-0.1 0.167,-0.167 0.3,-0.2 0.4,-0.267 0.633,-0.567 0.7,-0.9 0,-0.067 0,-0.117 0,-0.15 0.233,-0.534 0.616,-0.75 1.15,-0.65 0.199,0.067 0.383,0.133 0.55,0.2 -0.733,0.233 -0.9,0.567 -0.5,1 l 0.25,0.3 c 0.033,0.133 -0.017,0.267 -0.15,0.4 -0.233,0.2 -0.7,0.333 -1.4,0.4 -0.066,0.167 0.183,0.3 0.75,0.4 0.033,0 0.183,0.066 0.449,0.2 0.367,0 0.617,-0.017 0.75,-0.05 l 0.801,0.05 -0.15,0.1 -0.5,0.2 c -0.333,0.066 -0.517,0.134 -0.55,0.2 -0.033,0.066 -0.017,0.2 0.05,0.399 0.066,0.233 0.066,0.434 0,0.601 -0.134,0.267 -0.434,0.416 -0.9,0.45 -0.533,0 -0.899,0.017 -1.1,0.05 -0.1,0.366 0.317,0.6 1.25,0.7 0.634,0.066 1.217,0.083 1.75,0.05 l -1.2,-0.1 2.351,0.051 0.049,-0.051 0.2,0.15 c 0.1,0.167 0,0.4 -0.301,0.7 -0.233,0.233 -0.833,0.399 -1.8,0.5 -0.366,-0.066 -0.633,-0.084 -0.8,-0.05 -0.1,0.033 -0.167,0.05 -0.2,0.05 -0.033,0 -0.033,0.05 0,0.149 0.2,0.534 0.217,0.884 0.05,1.051 -0.1,0.033 -0.283,0.05 -0.55,0.05 -0.267,-0.033 -0.45,-0.05 -0.55,-0.05 -0.467,0 -0.817,-0.017 -1.05,-0.051 -0.4,-0.1 -0.934,-0.383 -1.6,-0.85 -0.167,-0.167 -0.333,-0.2 -0.5,-0.1 l -0.1,0.05 c 0.033,-0.434 0,-0.733 -0.1,-0.9 -0.133,-0.2 -0.283,-0.283 -0.45,-0.25 -0.167,0.033 -0.3,0.134 -0.4,0.3 l -0.25,-0.6 c 0.067,-0.134 0.167,-0.283 0.3,-0.45 0.066,-0.133 0.217,-0.316 0.45,-0.55 0.034,-0.066 0.1,-0.134 0.2,-0.2 0.2,-0.2 0.367,-0.399 0.5,-0.6 L 25.7,21.6 l 0.2,0.7 c 0.133,0.233 0.333,0.384 0.6,0.45 0.333,0.033 0.517,-0.033 0.55,-0.2 0.6,-0.066 0.983,-0.267 1.15,-0.6 l -0.4,0.1 c -0.066,0.167 -0.383,0.233 -0.95,0.2 C 26.317,22.116 26,21.917 25.9,21.65 V 21.3 l -0.05,0.05 c 0.033,-0.1 0.117,-0.183 0.25,-0.25 0.1,-0.133 0.233,-0.233 0.4,-0.3 0.233,-0.1 0.383,-0.2 0.45,-0.3 L 27,20.55 c 0.067,0.134 0.3,0.267 0.7,0.4 -0.034,-0.033 -0.1,-0.084 -0.2,-0.15 -0.2,-0.1 -0.35,-0.217 -0.45,-0.35 z m -3.15,3.5 V 23.9 c 0,-0.032 0.017,-0.066 0.05,-0.101 -0.027,0.031 -0.044,0.081 -0.05,0.151 z m 5.7,-3.75 -0.25,-0.15 c 0.334,-0.033 0.851,-0.033 1.551,0 l 0.199,-0.1 c -0.133,0.2 -0.366,0.267 -0.699,0.2 -0.367,-0.067 -0.634,-0.101 -0.801,-0.101 z m 2.225,-1.375 c 0.22,0.144 0.345,0.353 0.375,0.625 V 19.5 L 32.15,19.3 C 32.092,19.095 31.983,18.937 31.825,18.825 Z M 32.2,22.65 c -0.069,0.035 -0.119,0.068 -0.15,0.1 -0.033,0 -0.066,0 -0.1,0 0.094,-0.031 0.177,-0.064 0.25,-0.1 z m 1.05,-2.55 0.15,0.15 c 0.1,0.134 0.183,0.25 0.25,0.35 L 33.1,19.95 Z m -4.35,6.5 c 0.033,0 0.1,0 0.2,0 0.2,0.034 0.417,0.067 0.65,0.101 -0.3,-0.034 -0.583,-0.067 -0.85,-0.101 z m 7.25,-3.15 0.05,0.05 c 0.014,0.041 0.03,0.083 0.05,0.125 -0.03,-0.062 -0.063,-0.12 -0.1,-0.175 z"
   id="path28"
   inkscape:connector-curvature="0" />
	<path
   style="clip-rule:evenodd;fill:#f0e6c1;fill-rule:evenodd"
   d="m 30.75,17.8 0.1,0.05 c -0.3,0.1 -0.383,0.25 -0.25,0.45 0,0.034 0.034,0.083 0.101,0.15 0.066,0 0.1,0.05 0.1,0.15 0,0.2 -0.1,0.333 -0.3,0.4 0.167,0.033 0.35,0 0.55,-0.1 l 0.05,-0.05 c 0.134,-0.033 0.267,-0.1 0.4,-0.2 h 0.05 l 0.101,0.1 0.1,0.05 h 0.025 l 0.05,0.025 c 0.158,0.112 0.267,0.27 0.325,0.475 L 32.1,19.45 c -0.133,0.2 -0.433,0.35 -0.899,0.45 l -0.101,0.05 -0.199,0.1 c -0.7,-0.033 -1.217,-0.033 -1.551,0 l 0.25,0.15 0.051,0.05 c -0.567,-0.1 -0.817,-0.233 -0.75,-0.4 0.7,-0.067 1.167,-0.2 1.4,-0.4 0.134,-0.133 0.184,-0.267 0.15,-0.4 l -0.25,-0.3 c -0.4,-0.433 -0.233,-0.767 0.5,-1 z m -6.8,6 c 0.033,-0.2 0.133,-0.383 0.3,-0.55 h 0.05 l 0.25,0.6 c -0.167,0.334 -0.3,0.551 -0.4,0.65 L 24.1,24.55 C 23.967,24.384 23.9,24.2 23.9,24 v -0.05 c 0.006,-0.07 0.023,-0.12 0.05,-0.15 z M 34.4,22.1 v 0.051 l -0.051,0.6 c -0.033,0.2 0,0.3 0.101,0.3 0.033,0.033 0.133,0.101 0.3,0.2 0.5,0.267 0.483,0.8 -0.05,1.6 -0.134,0.233 -0.3,0.4 -0.5,0.5 -0.4,0.2 -0.834,0.334 -1.3,0.4 -0.267,0.1 -0.483,0.167 -0.65,0.2 -0.3,0.066 -0.517,0.033 -0.65,-0.101 v -0.2 c -0.133,-0.134 -0.267,-0.217 -0.399,-0.25 -0.066,-0.034 -0.334,-0.084 -0.8,-0.15 0.033,0.333 -0.233,0.517 -0.801,0.55 -0.633,-0.033 -1.033,-0.05 -1.2,-0.05 -0.5,0 -0.867,-0.033 -1.1,-0.1 L 26,25.4 25.7,25.45 25.5,25.05 V 24.7 l 0.1,-0.05 c 0.167,-0.101 0.333,-0.067 0.5,0.1 0.667,0.467 1.2,0.75 1.6,0.85 0.233,0.034 0.583,0.051 1.05,0.051 0.1,0 0.283,0.017 0.55,0.05 0.267,0 0.45,-0.017 0.55,-0.05 0.167,-0.167 0.15,-0.517 -0.05,-1.051 -0.033,-0.1 -0.033,-0.149 0,-0.149 0.033,0 0.1,-0.017 0.2,-0.051 0.167,-0.034 0.434,-0.017 0.8,0.05 0.967,-0.101 1.566,-0.267 1.8,-0.5 0.301,-0.3 0.4,-0.533 0.301,-0.7 l -0.2,-0.15 c 0.133,-0.033 0.3,-0.116 0.5,-0.25 0.133,-0.066 0.366,-0.166 0.7,-0.3 l 0.449,-0.5 z m -4.1,1 1.2,0.101 c -0.533,0.033 -1.116,0.017 -1.75,-0.05 -0.933,-0.101 -1.35,-0.334 -1.25,-0.7 0.2,-0.033 0.566,-0.05 1.1,-0.05 0.467,-0.034 0.767,-0.184 0.9,-0.45 0.066,-0.167 0.066,-0.367 0,-0.601 -0.066,-0.199 -0.083,-0.333 -0.05,-0.399 0.033,-0.066 0.217,-0.134 0.55,-0.2 l 0.5,-0.2 0.15,-0.1 h 0.199 c 0.167,0 0.334,-0.066 0.5,-0.2 0.101,-0.066 0.233,-0.184 0.4,-0.35 0.033,0 0.083,0.017 0.15,0.05 0.033,0 0.1,0 0.199,0 L 33.65,20.6 c -0.067,0.167 -0.25,0.25 -0.551,0.25 -0.466,0 -0.683,0.167 -0.649,0.5 0,0.034 0.083,0.184 0.25,0.45 0.133,0.134 0.116,0.283 -0.05,0.45 l -0.2,0.2 c -0.101,0.1 -0.184,0.166 -0.25,0.2 -0.073,0.035 -0.156,0.068 -0.25,0.1 -0.033,0.033 -0.066,0.05 -0.101,0.05 H 31.7 c -0.434,-0.066 -0.717,-0.083 -0.851,-0.05 l 0.15,0.1 h -1.9 c 0.134,0.1 0.535,0.183 1.201,0.25 z m -3.45,-0.85 -0.75,-0.1 c -0.1,0.267 0.133,0.399 0.7,0.399 h 0.25 c -0.033,0.167 -0.216,0.233 -0.55,0.2 -0.267,-0.066 -0.467,-0.217 -0.6,-0.45 l -0.2,-0.7 0.05,-0.149 c 0.033,-0.033 0.067,-0.066 0.1,-0.101 l 0.05,-0.05 v 0.351 c 0.1,0.267 0.417,0.466 0.95,0.6 z m 0.1,-1.75 0.1,-0.05 c 0.1,0.133 0.25,0.25 0.45,0.35 0.1,0.066 0.167,0.117 0.2,0.15 -0.4,-0.134 -0.633,-0.267 -0.7,-0.4 z"
   id="path30"
   inkscape:connector-curvature="0" />
	<path
   style="clip-rule:evenodd;fill:#cdc194;fill-rule:evenodd"
   d="m 24.35,24.85 c -0.1,-0.1 -0.184,-0.199 -0.25,-0.3 l 0.05,-0.05 c 0.1,-0.1 0.233,-0.316 0.4,-0.65 0.1,-0.166 0.233,-0.267 0.4,-0.3 0.167,-0.033 0.316,0.05 0.45,0.25 0.1,0.167 0.133,0.467 0.1,0.9 v 0.35 l 0.2,0.4 0.3,-0.05 1.3,0.25 c 0.233,0.066 0.6,0.1 1.1,0.1 0.167,0 0.567,0.017 1.2,0.05 0.567,-0.033 0.834,-0.217 0.801,-0.55 0.466,0.066 0.733,0.116 0.8,0.15 0.133,0.033 0.267,0.116 0.399,0.25 v 0.199 c 0.134,0.134 0.351,0.167 0.65,0.101 0.167,-0.033 0.384,-0.101 0.65,-0.2 0.466,-0.066 0.899,-0.2 1.3,-0.4 0.2,-0.1 0.366,-0.267 0.5,-0.5 0.533,-0.8 0.55,-1.333 0.05,-1.6 -0.167,-0.1 -0.267,-0.167 -0.3,-0.2 -0.101,0 -0.134,-0.1 -0.101,-0.3 L 34.4,22.15 V 22.1 c 0.033,0.034 0.1,0.067 0.199,0.101 0.301,0.066 0.483,0.116 0.551,0.149 0.3,0.101 0.483,0.184 0.55,0.25 0.033,0.034 0.083,0.117 0.149,0.25 0.034,0.067 0.101,0.184 0.2,0.351 0,0.3 -0.05,0.483 -0.149,0.55 -0.134,0 -0.267,0.017 -0.4,0.05 -0.134,0.066 -0.2,0.233 -0.2,0.5 0,0.367 0,0.584 0,0.65 -0.066,0.133 -0.184,0.233 -0.35,0.3 -0.2,0 -0.351,0 -0.45,0 -0.233,0.066 -0.434,0.2 -0.6,0.4 -0.334,0.333 -0.65,0.533 -0.95,0.6 -0.834,0.066 -1.434,0.116 -1.8,0.15 L 30.3,26.45 c -0.366,0 -0.833,-0.066 -1.4,-0.2 -0.167,0 -0.45,-0.066 -0.85,-0.2 -0.367,-0.133 -0.65,-0.2 -0.85,-0.2 H 26.6 L 26.15,25.651 H 25.9 c -0.133,-0.067 -0.267,-0.134 -0.4,-0.2 -0.1,0 -0.167,-0.017 -0.2,-0.05 -0.033,-0.101 -0.05,-0.267 -0.05,-0.5 0.033,-0.2 0.017,-0.351 -0.05,-0.45 -0.267,-0.334 -0.434,-0.134 -0.5,0.6 -0.133,-0.068 -0.25,-0.134 -0.35,-0.201 z m 2.5,-2.6 c 0.566,0.033 0.883,-0.033 0.95,-0.2 l 0.4,-0.1 c -0.167,0.333 -0.55,0.533 -1.15,0.6 H 26.8 c -0.566,0 -0.8,-0.133 -0.7,-0.399 z M 30.3,23.1 C 29.634,23.034 29.234,22.951 29.1,22.85 H 31 c 0.4,0.2 0.85,0.233 1.35,0.101 0.534,-0.101 0.917,-0.334 1.15,-0.7 l -0.2,-0.2 c -0.133,0.167 -0.467,0.367 -1,0.601 l -0.25,0.1 c 0.031,-0.031 0.081,-0.064 0.15,-0.1 0.066,-0.034 0.149,-0.101 0.25,-0.2 l 0.2,-0.2 c 0.166,-0.167 0.183,-0.316 0.05,-0.45 -0.167,-0.267 -0.25,-0.416 -0.25,-0.45 -0.033,-0.333 0.184,-0.5 0.649,-0.5 0.301,0 0.483,-0.083 0.551,-0.25 0.1,0.167 0.149,0.317 0.149,0.45 0.066,0.4 0.233,0.717 0.5,0.95 l 0.05,0.05 -0.449,0.5 c -0.334,0.134 -0.567,0.233 -0.7,0.3 -0.2,0.134 -0.367,0.217 -0.5,0.25 l -0.05,0.051 z m 0.55,-2.7 c 0.367,-0.101 0.717,-0.284 1.051,-0.55 l -0.7,0.05 c 0.467,-0.1 0.767,-0.25 0.899,-0.45 l 0.051,-0.15 0.05,0.2 v 0.05 c 0,0.133 0.184,0.25 0.55,0.35 -0.167,0.167 -0.3,0.284 -0.4,0.35 -0.166,0.134 -0.333,0.2 -0.5,0.2 H 31.65 Z m 0,-2.55 0.2,0.2 h 0.05 c 0.134,0.133 0.267,0.333 0.4,0.6 -0.134,0.1 -0.267,0.167 -0.4,0.2 l -0.05,0.05 c -0.2,0.1 -0.383,0.133 -0.55,0.1 0.2,-0.067 0.3,-0.2 0.3,-0.4 0,-0.1 -0.033,-0.15 -0.1,-0.15 -0.066,-0.067 -0.101,-0.117 -0.101,-0.15 -0.132,-0.2 -0.049,-0.35 0.251,-0.45 z"
   id="path32"
   inkscape:connector-curvature="0" />
	<path
   style="clip-rule:evenodd;fill:#958b6a;fill-rule:evenodd"
   d="m 31.2,19.9 0.7,-0.05 c -0.334,0.266 -0.684,0.45 -1.051,0.55 -0.133,0.033 -0.383,0.05 -0.75,0.05 -0.267,-0.134 -0.416,-0.2 -0.449,-0.2 L 29.6,20.2 v -0.15 c 0.167,0 0.434,0.033 0.801,0.101 0.333,0.066 0.566,0 0.699,-0.2 z m 0.85,2.85 0.25,-0.1 c 0.533,-0.233 0.867,-0.434 1,-0.601 l 0.2,0.2 c -0.233,0.366 -0.616,0.6 -1.15,0.7 -0.5,0.133 -0.949,0.1 -1.35,-0.101 l -0.15,-0.1 c 0.134,-0.033 0.417,-0.017 0.851,0.05 h 0.149 c 0.034,0 0.067,-0.017 0.101,-0.05 0.032,0.002 0.066,0.002 0.099,0.002 z m -2.3,3.95 c -0.233,-0.033 -0.45,-0.066 -0.65,-0.101 -0.1,0 -0.167,0 -0.2,0 -0.066,-0.033 -0.133,-0.05 -0.2,-0.05 -0.133,-0.066 -0.3,-0.1 -0.5,-0.1 -0.633,-0.2 -1.4,-0.467 -2.3,-0.8 h 0.25 l 0.45,0.199 h 0.6 c 0.2,0 0.483,0.067 0.85,0.2 0.4,0.134 0.684,0.2 0.85,0.2 0.567,0.134 1.034,0.2 1.4,0.2 l 0.851,-0.05 c 0.366,-0.034 0.966,-0.084 1.8,-0.15 0.3,-0.066 0.616,-0.267 0.95,-0.6 0.166,-0.2 0.366,-0.334 0.6,-0.4 0.1,0 0.25,0 0.45,0 0.166,-0.066 0.283,-0.167 0.35,-0.3 0,-0.066 0,-0.283 0,-0.65 0,-0.267 0.066,-0.434 0.2,-0.5 0.134,-0.033 0.267,-0.05 0.4,-0.05 0.1,-0.066 0.149,-0.25 0.149,-0.55 0.033,0.075 0.066,0.159 0.101,0.25 0.036,0.055 0.069,0.113 0.1,0.175 v 0.225 l -0.3,0.95 c -0.066,0.134 -0.15,0.25 -0.25,0.351 -0.634,0.633 -1.65,1.066 -3.05,1.3 C 31.783,26.583 31,26.667 30.3,26.7 Z M 24.7,25.05 c 0.066,-0.733 0.233,-0.934 0.5,-0.6 0.066,0.1 0.083,0.25 0.05,0.45 0,0.233 0.017,0.399 0.05,0.5 -0.267,-0.1 -0.467,-0.216 -0.6,-0.35 z"
   id="path34"
   inkscape:connector-curvature="0" />
</g>
</svg>