<?xml version="1.0" encoding="UTF-8" standalone="no"?>
<!-- Generator: Adobe Illustrator 15.1.0, SVG Export Plug-In . SVG Version: 6.00 Build 0)  -->

<svg
   xmlns:dc="http://purl.org/dc/elements/1.1/"
   xmlns:cc="http://creativecommons.org/ns#"
   xmlns:rdf="http://www.w3.org/1999/02/22-rdf-syntax-ns#"
   xmlns:svg="http://www.w3.org/2000/svg"
   xmlns="http://www.w3.org/2000/svg"
   xmlns:sodipodi="http://sodipodi.sourceforge.net/DTD/sodipodi-0.dtd"
   xmlns:inkscape="http://www.inkscape.org/namespaces/inkscape"
   version="1.1"
   id="flash0.ai"
   x="0px"
   y="0px"
   width="256"
   height="256"
   viewBox="0 0 256 256"
   xml:space="preserve"
   sodipodi:docname="potatoes.svg"
   inkscape:version="0.92.4 (5da689c313, 2019-01-14)"
   inkscape:export-filename="C:\Users\antum\Development\game-resources\icon\CC0\food\individual\Glitch\32x32\potatoes.png"
   inkscape:export-xdpi="10.5"
   inkscape:export-ydpi="10.5"><title
   id="title925">Potatoes</title><metadata
   id="metadata118"><rdf:RDF><cc:Work
       rdf:about=""><dc:format>image/svg+xml</dc:format><dc:type
         rdf:resource="http://purl.org/dc/dcmitype/StillImage" /><dc:title>Potatoes</dc:title><cc:license
         rdf:resource="http://creativecommons.org/publicdomain/zero/1.0/" /><dc:creator><cc:Agent><dc:title>Glitch</dc:title></cc:Agent></dc:creator><dc:source>https://opengameart.org/node/20149</dc:source></cc:Work><cc:License
       rdf:about="http://creativecommons.org/publicdomain/zero/1.0/"><cc:permits
         rdf:resource="http://creativecommons.org/ns#Reproduction" /><cc:permits
         rdf:resource="http://creativecommons.org/ns#Distribution" /><cc:permits
         rdf:resource="http://creativecommons.org/ns#DerivativeWorks" /></cc:License></rdf:RDF></metadata><defs
   id="defs116">
	
		<linearGradient
   gradientTransform="matrix(0.7246,-2.998517e-4,-3.937848e-4,0.5388,7.4503,15.2499)"
   y2="17.3633"
   x2="44.916199"
   y1="17.3633"
   x1="-0.0088"
   gradientUnits="userSpaceOnUse"
   id="SVGID_1_">
		<stop
   id="stop2"
   style="stop-color:#A0A1A3"
   offset="0.0235" />
		<stop
   id="stop4"
   style="stop-color:#78797A"
   offset="1" />
	</linearGradient>
	
	
		<linearGradient
   gradientTransform="matrix(-0.7009,-0.1365,0.1835,-0.5213,7.4502,15.2496)"
   y2="-10.2183"
   x2="0.98079997"
   y1="-10.2183"
   x1="-48.189899"
   gradientUnits="userSpaceOnUse"
   id="SVGID_2_">
		<stop
   id="stop9"
   style="stop-color:#CCCCCC"
   offset="0" />
		<stop
   id="stop11"
   style="stop-color:#FFFFFF"
   offset="1" />
	</linearGradient>
	
	
		<linearGradient
   gradientTransform="matrix(0.7246,3.267638e-4,4.594573e-4,0.5388,7.0998,15.2497)"
   y2="16.210899"
   x2="37.633301"
   y1="16.210899"
   x1="-3.6226001"
   gradientUnits="userSpaceOnUse"
   id="SVGID_3_">
		<stop
   id="stop16"
   style="stop-color:#CCCCCC"
   offset="0" />
		<stop
   id="stop18"
   style="stop-color:#FFFFFF"
   offset="1" />
	</linearGradient>
	
	
</defs><sodipodi:namedview
   pagecolor="#ffffff"
   bordercolor="#666666"
   borderopacity="1"
   objecttolerance="10"
   gridtolerance="10"
   guidetolerance="10"
   inkscape:pageopacity="0"
   inkscape:pageshadow="2"
   inkscape:window-width="1920"
   inkscape:window-height="1025"
   id="namedview114"
   showgrid="false"
   inkscape:zoom="0.83516484"
   inkscape:cx="-52.96281"
   inkscape:cy="-49.857318"
   inkscape:window-x="-8"
   inkscape:window-y="-8"
   inkscape:window-maximized="1"
   inkscape:current-layer="flash0.ai"
   fit-margin-top="0"
   fit-margin-left="0"
   fit-margin-right="0"
   fit-margin-bottom="0" />
<g
   id="g109"
   transform="matrix(8.9105966,0,0,8.9105966,-84.642858,-65.183879)">
		<g
   id="g99">
			<path
   inkscape:connector-curvature="0"
   id="path23"
   d="m 27.396,17.881 3.367,-0.257 c 2.391,-0.049 3.989,0.22 4.794,0.806 1.025,0.756 1.769,1.806 2.232,3.147 0.464,1.391 0.317,2.293 -0.439,2.708 -1.073,0.585 -3.915,0.817 -8.526,0.695 l -4.245,-2.818 z"
   style="clip-rule:evenodd;fill:#d88e39;fill-rule:evenodd" />
			<path
   inkscape:connector-curvature="0"
   id="path25"
   d="m 35.301,21.027 c 0.537,0.366 0.915,0.744 1.134,1.135 0.245,0.342 0.843,0.342 1.794,0 -0.366,1.171 -0.659,1.879 -0.879,2.123 -0.146,0.146 -0.463,0.329 -0.951,0.549 l -0.659,0.329 -6.733,-3.366 0.878,-4.063 0.77,1.024 c 0.683,0.708 1.438,1.135 2.269,1.281 0.852,0.148 1.644,0.477 2.377,0.988 z"
   style="clip-rule:evenodd;fill:#b87119;fill-rule:evenodd" />
			<path
   inkscape:connector-curvature="0"
   id="path27"
   d="m 18.21,17.734 -2.306,4.428 -3.733,3.184 c -0.683,-0.268 -1.281,-0.67 -1.793,-1.207 -1.049,-1.074 -1.159,-2.27 -0.33,-3.587 0.805,-1.317 2.403,-2.184 4.794,-2.598 1.221,-0.195 2.344,-0.268 3.368,-0.22 z"
   style="clip-rule:evenodd;fill:#d88e39;fill-rule:evenodd" />
			<path
   inkscape:connector-curvature="0"
   id="path29"
   d="m 25.603,15.063 c -2.153,0.467 -3.739,1.004 -4.758,1.61 -1.024,0.586 -2.415,1.647 -4.172,3.184 -0.463,-0.854 -0.793,-1.769 -0.988,-2.744 -0.391,-1.952 0.134,-3.208 1.574,-3.77 1.341,-0.512 3.049,-0.329 5.123,0.549 1.895,0.799 2.969,1.189 3.221,1.171 z"
   style="clip-rule:evenodd;fill:#d88e39;fill-rule:evenodd" />
			<path
   inkscape:connector-curvature="0"
   id="path31"
   d="m 16.234,14.514 0.622,0.219 c 0.537,0.147 1.098,0.256 1.684,0.33 0.951,0.122 2.903,0.122 5.855,0 l -6.733,6.039 -5.49,4.244 -2.305,-1.793 c 1.415,-0.463 2.537,-1.171 3.367,-2.122 0.512,-0.586 0.817,-1.257 0.915,-2.013 l -0.037,-0.988 1.611,-0.549 c -0.244,-1.049 -0.305,-1.757 -0.183,-2.123 0.12,-0.341 0.352,-0.757 0.694,-1.244 z"
   style="clip-rule:evenodd;fill:#b87119;fill-rule:evenodd" />
			<path
   inkscape:connector-curvature="0"
   id="path33"
   d="m 28.311,14.367 c 1,-0.073 1.525,0.451 1.573,1.574 0.025,0.561 -0.146,1.745 -0.512,3.549 -0.293,1.343 -0.964,2.465 -2.013,3.367 -1.172,1.024 -2.988,1.915 -5.453,2.672 -2.196,0.684 -3.842,0.428 -4.94,-0.769 -0.391,-0.439 -0.927,-1.549 -1.61,-3.33 -0.342,-0.854 0.11,-1.94 1.354,-3.257 1.22,-1.269 2.598,-2.135 4.135,-2.599 1.415,-0.415 2.684,-0.708 3.807,-0.878 0.828,-0.121 2.048,-0.231 3.659,-0.329 z"
   style="clip-rule:evenodd;fill:#d99643;fill-rule:evenodd" />
			<path
   inkscape:connector-curvature="0"
   id="path35"
   d="m 35.374,22.857 c 0.341,1.439 0.183,2.611 -0.476,3.514 -0.586,0.805 -1.55,1.354 -2.892,1.646 -3.392,0.708 -5.989,0.646 -7.795,-0.183 -1.22,-0.562 -1.817,-1.452 -1.793,-2.672 0,-1.317 0.72,-2.439 2.159,-3.366 1.366,-0.879 3.501,-1.099 6.404,-0.659 2.758,0.44 4.222,1.013 4.393,1.72 z"
   style="clip-rule:evenodd;fill:#d99643;fill-rule:evenodd" />
			<path
   inkscape:connector-curvature="0"
   id="path37"
   d="m 26.334,21.797 c 0.439,-0.366 1.745,-0.317 3.916,0.146 1.123,0.22 2.416,0.525 3.88,0.915 0.487,0.073 0.634,0.439 0.438,1.098 -0.171,0.562 -0.427,0.964 -0.768,1.208 -0.123,0.098 -0.843,0.391 -2.16,0.879 -1.341,0.488 -2.28,0.902 -2.817,1.244 -0.684,0.438 -1.635,0.402 -2.854,-0.11 -1.172,-0.513 -1.988,-1.183 -2.452,-2.013 -0.366,-0.658 -0.146,-1.305 0.658,-1.939 0.464,-0.343 1.183,-0.819 2.159,-1.428 z"
   style="clip-rule:evenodd;fill:#f1ab56;fill-rule:evenodd" />
			<path
   inkscape:connector-curvature="0"
   id="path39"
   d="m 26.518,19.308 c -0.488,0.513 -1.293,1.159 -2.415,1.94 -1.294,0.902 -2.135,1.316 -2.525,1.243 -0.513,-0.073 -1.415,-0.438 -2.708,-1.098 -1.342,-0.707 -2.074,-1.22 -2.196,-1.537 -0.146,-0.414 0.208,-1 1.062,-1.757 0.927,-0.805 1.964,-1.28 3.11,-1.427 0.83,-0.122 2.403,-0.378 4.722,-0.769 1.951,-0.269 3.037,-0.256 3.257,0.037 0.339,0.465 -0.429,1.586 -2.307,3.368 z"
   style="clip-rule:evenodd;fill:#f1ab56;fill-rule:evenodd" />
			<path
   inkscape:connector-curvature="0"
   id="path41"
   d="m 15.355,21.431 c 1.098,-0.439 2.232,-0.329 3.403,0.329 0.634,0.342 1.452,0.891 2.452,1.646 0.927,0.464 1.598,1.122 2.013,1.977 0.513,1.073 0.257,2 -0.769,2.781 -1.098,0.854 -3.038,0.988 -5.819,0.403 -2.708,-0.562 -4.196,-1.281 -4.465,-2.16 -0.317,-0.902 -0.244,-1.78 0.22,-2.635 0.538,-0.975 1.526,-1.756 2.965,-2.341 z"
   style="clip-rule:evenodd;fill:#f1ab56;fill-rule:evenodd" />
			<path
   inkscape:connector-curvature="0"
   id="path43"
   d="m 27.579,15.063 c 0.829,0.146 0.78,0.537 -0.146,1.171 -1.293,0.708 -2.147,1.196 -2.562,1.463 -1.245,0.854 -2.379,1.537 -3.404,2.05 -0.708,0.366 -1.366,0.39 -1.977,0.073 -0.512,-0.269 -0.939,-0.732 -1.281,-1.391 -0.269,-0.488 -0.037,-0.939 0.695,-1.354 0.415,-0.244 1.123,-0.524 2.123,-0.841 3.076,-1.025 5.259,-1.416 6.552,-1.171 z"
   style="clip-rule:evenodd;fill:#fabf78;fill-rule:evenodd" />
			<path
   inkscape:connector-curvature="0"
   id="path45"
   d="m 30.689,22.053 c 0.854,-0.195 1.488,-0.049 1.903,0.438 0.414,0.488 0.378,0.806 -0.109,0.952 -0.099,0.049 -0.635,0.293 -1.61,0.732 -0.854,0.39 -1.611,0.67 -2.27,0.841 -0.805,0.195 -1.513,-0.146 -2.122,-1.024 -0.611,-0.854 -0.635,-1.501 -0.074,-1.939 0.733,-0.562 2.159,-0.562 4.282,0 z"
   style="clip-rule:evenodd;fill:#fabf78;fill-rule:evenodd" />
			<path
   inkscape:connector-curvature="0"
   id="path47"
   d="m 16.783,24.578 c -0.952,0.024 -1.659,-0.013 -2.123,-0.11 -0.756,-0.171 -0.939,-0.561 -0.549,-1.171 0.391,-0.585 0.988,-0.964 1.793,-1.135 0.61,-0.146 1.11,-0.097 1.5,0.146 0.537,0.342 0.854,0.524 0.952,0.549 0.61,0.122 1.342,0.464 2.196,1.024 0.976,0.635 1.427,1.184 1.354,1.647 -0.073,0.463 -0.524,0.549 -1.354,0.257 -0.292,-0.123 -0.964,-0.452 -2.013,-0.989 -0.39,-0.169 -0.976,-0.242 -1.756,-0.218 z"
   style="clip-rule:evenodd;fill:#fabf78;fill-rule:evenodd" />
			<path
   inkscape:connector-curvature="0"
   id="path49"
   d="m 11.879,24.578 c 1.732,1.341 3.245,2.122 4.538,2.342 1.683,0.317 2.659,0.487 2.928,0.513 1.073,0.146 1.866,0.098 2.379,-0.146 0.829,-0.342 1.305,-0.817 1.427,-1.428 L 23.26,26.7 c -0.023,0.61 -0.292,1.099 -0.805,1.464 -0.976,0.732 -2.635,0.854 -4.977,0.366 -1.415,-0.293 -2.354,-0.513 -2.818,-0.659 -1.049,-0.317 -1.684,-0.671 -1.903,-1.062 -0.22,-0.365 -0.439,-0.841 -0.659,-1.427 z"
   style="clip-rule:evenodd;fill:#d99643;fill-rule:evenodd" />
			<path
   inkscape:connector-curvature="0"
   id="path51"
   d="m 29.884,17.734 -0.512,3.001 c -1.781,1.171 -3.025,1.879 -3.733,2.122 -0.438,0.146 -1.073,0.549 -1.902,1.208 -0.415,0.317 -0.781,0.622 -1.098,0.915 l -4.099,-3.367 1.098,0.732 c 0.952,0.463 1.952,0.695 3.001,0.695 1.073,0 1.939,-0.22 2.598,-0.659 0.391,-0.269 0.939,-0.72 1.647,-1.354 0.829,-0.585 1.829,-1.682 3,-3.293 z"
   style="clip-rule:evenodd;fill:#c8802b;fill-rule:evenodd" />
			<path
   inkscape:connector-curvature="0"
   id="path53"
   d="m 35.557,24.358 c 0.122,1.366 -0.109,2.525 -0.695,3.477 -0.61,0.951 -1.22,1.562 -1.829,1.83 -1.123,0.513 -2.94,0.609 -5.453,0.292 -1.538,-0.195 -2.708,-0.573 -3.514,-1.134 l -0.732,-0.806 c -1.293,0.928 -2.598,1.391 -3.916,1.391 -1.049,0 -2.306,-0.244 -3.77,-0.731 -1.561,-0.513 -2.549,-1.062 -2.964,-1.647 -0.366,-0.512 -0.586,-1.012 -0.659,-1.5 v -0.55 c 1.512,1.293 2.684,2.062 3.513,2.306 0.415,0.121 1.159,0.342 2.232,0.658 0.928,0.269 1.66,0.403 2.196,0.403 0.83,0 2.074,-0.586 3.733,-1.757 l 0.695,0.659 c 0.537,0.438 0.952,0.694 1.244,0.768 0.415,0.098 1.281,0.109 2.599,0.037 1.513,-0.049 2.77,-0.195 3.77,-0.439 1.05,-0.22 1.952,-0.829 2.708,-1.829 0.39,-0.488 0.671,-0.964 0.842,-1.428 z"
   style="clip-rule:evenodd;fill:#c8802b;fill-rule:evenodd" />
			<path
   inkscape:connector-curvature="0"
   id="path55"
   d="m 22.272,24.103 4.135,-2.05 c -1.22,0.902 -2.062,1.646 -2.524,2.232 -0.293,0.366 -0.329,1.073 -0.11,2.122 0.122,0.513 0.269,0.988 0.439,1.428 l -0.879,0.183 z"
   style="clip-rule:evenodd;fill:#c8802b;fill-rule:evenodd" />
			<path
   inkscape:connector-curvature="0"
   id="path57"
   d="m 32.556,18.43 c 1.269,-0.244 2.269,-0.024 3.001,0.658 0.415,0.391 0.708,0.879 0.878,1.464 0.074,0.171 -0.158,0.11 -0.695,-0.183 -0.805,-0.464 -1.451,-0.756 -1.938,-0.879 -0.732,-0.194 -1.232,-0.402 -1.501,-0.621 -0.27,-0.22 -0.184,-0.366 0.255,-0.439 z"
   style="clip-rule:evenodd;fill:#db9847;fill-rule:evenodd" />
			<path
   inkscape:connector-curvature="0"
   id="path59"
   d="m 11.11,20.187 c 0.293,-0.22 0.5,-0.391 0.622,-0.513 0.244,0 0.622,0 1.135,0 0.732,0 0.78,0.269 0.146,0.805 -0.561,0.464 -1.317,0.903 -2.269,1.318 -0.732,0.316 -1,0.231 -0.805,-0.257 0.195,-0.438 0.585,-0.891 1.171,-1.353 z"
   style="clip-rule:evenodd;fill:#db9847;fill-rule:evenodd" />
			<path
   inkscape:connector-curvature="0"
   id="path61"
   d="m 28.311,17.99 c 0.293,0 0.354,0.269 0.184,0.806 -0.171,0.561 -0.428,0.792 -0.769,0.694 -0.366,-0.072 -0.477,-0.341 -0.33,-0.805 0.122,-0.462 0.426,-0.695 0.915,-0.695 z"
   style="clip-rule:evenodd;fill:#c8802b;fill-rule:evenodd" />
			<path
   inkscape:connector-curvature="0"
   id="path63"
   d="m 30.945,26.225 -0.329,-0.183 c 0.513,-0.171 1.086,-0.22 1.721,-0.146 0,0.536 -0.294,0.866 -0.879,0.988 -0.585,0.145 -0.756,-0.074 -0.513,-0.659 z"
   style="clip-rule:evenodd;fill:#c8802b;fill-rule:evenodd" />
			<path
   inkscape:connector-curvature="0"
   id="path65"
   d="m 26.7,25.712 -0.366,-0.183 c 0.488,0 0.977,0.171 1.465,0.513 -0.22,0.317 -0.513,0.5 -0.879,0.549 -0.366,0.024 -0.684,-0.099 -0.951,-0.366 0.049,-0.195 0.134,-0.329 0.256,-0.402 0.097,-0.025 0.256,-0.062 0.475,-0.111 z"
   style="clip-rule:evenodd;fill:#c8802b;fill-rule:evenodd" />
			<path
   inkscape:connector-curvature="0"
   id="path67"
   d="m 21.577,20.04 -0.366,0.146 c 0.415,-0.244 0.879,-0.366 1.391,-0.366 0.586,-0.024 1.013,0.109 1.281,0.402 -0.391,0.488 -0.891,0.769 -1.501,0.842 -0.658,0.074 -0.927,-0.268 -0.805,-1.024 z"
   style="clip-rule:evenodd;fill:#c8802b;fill-rule:evenodd" />
			<path
   inkscape:connector-curvature="0"
   id="path69"
   d="m 18.356,26.042 c 0.634,-0.073 1.22,0 1.757,0.219 -0.22,0.708 -0.72,0.989 -1.5,0.843 -0.709,-0.134 -0.795,-0.488 -0.257,-1.062 z"
   style="clip-rule:evenodd;fill:#c8802b;fill-rule:evenodd" />
			<path
   inkscape:connector-curvature="0"
   id="path71"
   d="m 16.032,24.468 c 0.313,0.04 0.575,0.15 0.787,0.329 -0.61,0.562 -1.159,0.562 -1.647,0 0.145,-0.12 0.432,-0.23 0.86,-0.329 z"
   style="clip-rule:evenodd;fill:#c8802b;fill-rule:evenodd" />
			<path
   inkscape:connector-curvature="0"
   id="path73"
   d="m 16.709,22.346 c 0.485,-0.039 0.876,0.01 1.171,0.146 -0.317,0.195 -0.562,0.306 -0.732,0.33 -0.196,0.024 -0.439,-0.037 -0.732,-0.183 0.048,-0.123 0.122,-0.208 0.219,-0.257 0.027,-0.016 0.051,-0.028 0.074,-0.036 z"
   style="clip-rule:evenodd;fill:#c8802b;fill-rule:evenodd" />
			<path
   inkscape:connector-curvature="0"
   id="path75"
   d="m 11.458,20.552 -0.165,0.184 c 0.39,-0.171 0.732,-0.22 1.024,-0.146 -0.098,0.269 -0.207,0.438 -0.33,0.513 -0.097,0.049 -0.329,0.097 -0.695,0.146 -0.073,-0.221 -0.073,-0.403 0,-0.55 0.064,-0.053 0.119,-0.102 0.166,-0.147 z"
   style="clip-rule:evenodd;fill:#b87119;fill-rule:evenodd" />
			<path
   inkscape:connector-curvature="0"
   id="path77"
   d="m 19.528,13.672 c 0.5,-0.125 0.987,-0.064 1.464,0.183 0,0.634 -0.305,0.915 -0.915,0.842 -0.562,-0.049 -1.013,-0.281 -1.354,-0.696 z"
   style="clip-rule:evenodd;fill:#b87119;fill-rule:evenodd" />
			<path
   inkscape:connector-curvature="0"
   id="path79"
   d="m 34.13,18.796 -1.062,-0.549 c 0.78,0.17 1.232,0.487 1.354,0.951 0.122,0.463 -0.317,0.549 -1.317,0.256 -0.024,-0.342 0.062,-0.549 0.256,-0.622 0.074,-0.024 0.329,-0.036 0.769,-0.036 z"
   style="clip-rule:evenodd;fill:#b87119;fill-rule:evenodd" />
			<path
   inkscape:connector-curvature="0"
   id="path81"
   d="m 18.723,19.033 c 0.172,-0.036 0.282,-0.055 0.329,-0.055 0.195,0 0.378,0.109 0.549,0.329 -0.39,0.464 -0.781,0.61 -1.171,0.439 -0.353,-0.176 -0.256,-0.413 0.293,-0.713 z"
   style="clip-rule:evenodd;fill:#c8802b;fill-rule:evenodd" />
			<path
   inkscape:connector-curvature="0"
   id="path83"
   d="m 26.262,17.002 c 0.311,-0.236 0.688,-0.261 1.134,-0.073 -0.293,0.439 -0.817,0.61 -1.573,0.513 0.024,-0.269 0.109,-0.415 0.256,-0.439 0.043,-0.001 0.104,-0.001 0.183,-0.001 z"
   style="clip-rule:evenodd;fill:#c8802b;fill-rule:evenodd" />
			<path
   inkscape:connector-curvature="0"
   id="path85"
   d="m 23.81,19.052 h 0.805 c -0.098,0.512 -0.487,0.683 -1.171,0.512 -0.024,-0.17 0,-0.292 0.073,-0.365 0.048,-0.025 0.146,-0.074 0.293,-0.147 z"
   style="clip-rule:evenodd;fill:#c8802b;fill-rule:evenodd" />
			<path
   inkscape:connector-curvature="0"
   id="path87"
   d="m 23.699,15.868 0.293,0.11 c 0.122,0.049 0.231,0.061 0.329,0.037 -0.244,0.146 -0.585,0.22 -1.024,0.22 0.063,-0.143 0.197,-0.265 0.402,-0.367 z"
   style="clip-rule:evenodd;fill:#c8802b;fill-rule:evenodd" />
			<path
   inkscape:connector-curvature="0"
   id="path89"
   d="M 32.135,24.248 H 32.08 l 0.201,-0.072 c -0.061,0.025 -0.11,0.05 -0.146,0.072 h 0.86 c -0.098,0.513 -0.451,0.684 -1.062,0.513 -0.024,-0.22 0.013,-0.366 0.109,-0.439 0.012,-0.02 0.042,-0.046 0.093,-0.074 z"
   style="clip-rule:evenodd;fill:#c8802b;fill-rule:evenodd" />
			<path
   inkscape:connector-curvature="0"
   id="path91"
   d="m 29.921,22.235 -0.256,0.146 c 0.365,-0.024 0.731,-0.024 1.098,0 -0.439,0.317 -0.927,0.354 -1.464,0.109 0.024,-0.219 0.086,-0.329 0.183,-0.329 0.074,-0.023 0.219,10e-4 0.439,0.074 z"
   style="clip-rule:evenodd;fill:#c8802b;fill-rule:evenodd" />
			<path
   inkscape:connector-curvature="0"
   id="path93"
   d="m 26.773,23.919 c -0.073,-0.098 -0.073,-0.207 0,-0.329 0.018,-0.019 0.036,-0.036 0.055,-0.055 0.187,0.002 0.425,0.021 0.714,0.055 -0.122,0.171 -0.22,0.269 -0.293,0.292 -0.146,0.025 -0.305,0.037 -0.476,0.037 z"
   style="clip-rule:evenodd;fill:#c8802b;fill-rule:evenodd" />
			<path
   inkscape:connector-curvature="0"
   id="path95"
   d="m 29.812,24.907 h 0.365 c -0.098,0.22 -0.207,0.354 -0.329,0.402 -0.098,0.049 -0.28,0.086 -0.549,0.109 -0.024,-0.194 0.024,-0.329 0.146,-0.402 0.049,-0.023 0.171,-0.06 0.367,-0.109 z"
   style="clip-rule:evenodd;fill:#c8802b;fill-rule:evenodd" />
			<path
   inkscape:connector-curvature="0"
   id="path97"
   d="m 19.052,17.478 c 0.044,-0.008 0.087,-0.015 0.128,-0.018 l -0.53,0.274 c 0.023,-0.122 0.158,-0.208 0.402,-0.256 z m 0.201,-0.037 c 0.182,-0.011 0.371,0.001 0.567,0.036 -0.122,0.244 -0.207,0.354 -0.256,0.33 -0.122,-0.049 -0.256,-0.122 -0.402,-0.22 0.017,-0.052 0.047,-0.101 0.091,-0.146 z"
   style="clip-rule:evenodd;fill:#c8802b;fill-rule:evenodd" />
		</g>
		<path
   inkscape:connector-curvature="0"
   id="path101"
   d="m 24.468,23.188 c 0.732,-0.61 1.208,-0.988 1.428,-1.135 0.292,-0.195 0.817,-0.476 1.573,-0.842 0.708,-0.342 1.232,-0.622 1.574,-0.842 0.609,-0.439 0.854,-1.83 0.731,-4.172 0.244,0.61 0.439,1.367 0.586,2.269 0.122,0.879 0.012,1.721 -0.33,2.525 -1.317,0.415 -2.184,0.72 -2.598,0.915 -1.464,0.658 -2.501,1.281 -3.111,1.866 -0.585,0.537 -0.964,1.439 -1.134,2.708 -0.415,-0.78 -0.793,-1.354 -1.135,-1.72 l -1.317,-1.317 c 1.366,0.438 2.22,0.609 2.562,0.512 0.195,-0.048 0.586,-0.305 1.171,-0.767 z"
   style="clip-rule:evenodd;fill:#a16723;fill-rule:evenodd" />
		<path
   inkscape:connector-curvature="0"
   id="path103"
   d="m 25.09,28.42 c 1.757,0.806 3.245,1.208 4.466,1.208 0.609,0 1.146,-0.122 1.609,-0.365 1.073,-0.537 1.646,-0.818 1.721,-0.843 0.683,-0.268 1.305,-0.951 1.866,-2.049 0.293,-0.537 0.513,-1.049 0.659,-1.537 0.048,1.415 -0.037,2.416 -0.257,3.001 -0.195,0.463 -0.415,0.817 -0.658,1.062 -0.366,0.292 -1.062,0.646 -2.087,1.061 -0.902,0.342 -2.024,0.428 -3.366,0.257 -1.439,-0.269 -2.465,-0.428 -3.074,-0.477 -0.757,-0.048 -1.428,-0.292 -2.013,-0.731 l -0.659,-0.658 c -0.658,0.487 -1.61,0.89 -2.854,1.207 -0.829,0.22 -2.098,0.086 -3.806,-0.402 -1.415,-0.391 -2.537,-0.83 -3.367,-1.317 -0.537,-0.342 -0.903,-0.78 -1.098,-1.317 l -0.146,-0.695 c 0.219,0.097 0.256,0.171 0.11,0.22 -0.049,0.024 -0.049,0.061 0,0.109 0.219,0.195 0.426,0.415 0.622,0.658 0.244,0.342 0.585,0.55 1.024,0.623 0.269,0.073 0.634,0.134 1.098,0.183 0.219,0.073 0.805,0.305 1.756,0.695 1.025,0.391 1.989,0.61 2.892,0.659 0.927,0.048 1.817,-0.354 2.671,-1.208 0.414,-0.415 0.744,-0.842 0.988,-1.281 l 0.622,0.806 c 0.512,0.582 0.94,0.961 1.281,1.131 z"
   style="clip-rule:evenodd;fill:#a16723;fill-rule:evenodd" />
		<path
   inkscape:connector-curvature="0"
   id="path105"
   d="m 38.118,23.224 c -0.024,0.537 -0.22,0.988 -0.585,1.354 -0.22,0.219 -0.586,0.378 -1.099,0.476 l -0.695,0.109 c -0.121,-0.317 -0.183,-0.585 -0.183,-0.805 0,-0.977 -0.244,-1.684 -0.732,-2.123 -0.268,-0.22 -0.914,-0.5 -1.938,-0.842 l -1.208,-0.384 c 0.315,0.056 1.499,0.44 3.55,1.152 0.269,0.098 0.476,0.342 0.622,0.732 0.146,0.39 0.268,0.609 0.366,0.658 0.267,0.148 0.902,0.039 1.902,-0.327 z"
   style="clip-rule:evenodd;fill:#8c5613;fill-rule:evenodd" />
		<path
   inkscape:connector-curvature="0"
   id="path107"
   d="m 17.112,16.38 c 0.684,0.196 1.659,0.025 2.928,-0.512 l -1.464,0.915 c -0.439,0.244 -0.817,0.476 -1.134,0.695 -0.561,0.415 -1.037,0.964 -1.427,1.647 -0.634,1.049 -0.854,1.817 -0.659,2.306 l -1.024,0.476 -1.867,1.464 c 0.22,-0.269 0.463,-0.549 0.732,-0.842 0.488,-0.586 0.805,-0.928 0.952,-1.024 0.268,-0.146 0.537,-0.695 0.805,-1.647 0.122,-0.536 0.024,-1.158 -0.293,-1.866 l 1.062,-0.109 -0.183,-0.952 c -0.024,-0.195 -0.024,-0.476 0,-0.841 l 0.073,-0.512 0.366,0.292 c 0.34,0.241 0.718,0.412 1.133,0.51 z"
   style="clip-rule:evenodd;fill:#8c5613;fill-rule:evenodd" />
	</g>
</svg>