<?xml version="1.0" encoding="UTF-8" standalone="no"?>
<!-- Created with Inkscape (http://www.inkscape.org/) -->

<svg
   xmlns:dc="http://purl.org/dc/elements/1.1/"
   xmlns:cc="http://creativecommons.org/ns#"
   xmlns:rdf="http://www.w3.org/1999/02/22-rdf-syntax-ns#"
   xmlns:svg="http://www.w3.org/2000/svg"
   xmlns="http://www.w3.org/2000/svg"
   xmlns:sodipodi="http://sodipodi.sourceforge.net/DTD/sodipodi-0.dtd"
   xmlns:inkscape="http://www.inkscape.org/namespaces/inkscape"
   id="svg2"
   xml:space="preserve"
   viewBox="0 0 256 256"
   version="1.1"
   inkscape:version="0.92.4 (5da689c313, 2019-01-14)"
   sodipodi:docname="salad.svg"
   width="256"
   height="256"
   inkscape:export-filename="C:\Users\antum\Development\game-resources\icon\CC0\food\individual\Glitch\32X32\salad.png"
   inkscape:export-xdpi="10.5"
   inkscape:export-ydpi="10.5"><title
   id="title1017">Salad</title><sodipodi:namedview
   pagecolor="#ffffff"
   bordercolor="#666666"
   borderopacity="1"
   objecttolerance="10"
   gridtolerance="10"
   guidetolerance="10"
   inkscape:pageopacity="0"
   inkscape:pageshadow="2"
   inkscape:window-width="1920"
   inkscape:window-height="1025"
   id="namedview210"
   showgrid="false"
   inkscape:zoom="0.62056013"
   inkscape:cx="-62.436629"
   inkscape:cy="60.503217"
   inkscape:window-x="-8"
   inkscape:window-y="-8"
   inkscape:window-maximized="1"
   inkscape:current-layer="svg2"
   fit-margin-top="0"
   fit-margin-left="0"
   fit-margin-right="0"
   fit-margin-bottom="0" />
  <defs
   id="defs6">
    <linearGradient
   id="linearGradient24"
   y2="32.849998"
   gradientUnits="userSpaceOnUse"
   x2="44.249001"
   gradientTransform="matrix(1.1602,0,0,-1.1602,-6.4406,55.167)"
   y1="32.849998"
   x1="9.0995998">
      <stop
   id="stop26"
   style="stop-color:#a9cad1"
   offset="0" />
      <stop
   id="stop28"
   style="stop-color:#ffffff"
   offset="1" />
    </linearGradient>
    <linearGradient
   id="linearGradient146"
   y2="-29.113001"
   gradientUnits="userSpaceOnUse"
   x2="0.0253"
   gradientTransform="matrix(-0.92104,-0.70552,-0.70552,0.92104,-6.4415,55.166)"
   y1="-29.113001"
   x1="-5.895">
      <stop
   id="stop148"
   style="stop-color:#ff543d"
   offset="0" />
      <stop
   id="stop150"
   style="stop-color:#b31205"
   offset="1" />
    </linearGradient>
    <linearGradient
   id="linearGradient174"
   y2="-19695"
   gradientUnits="userSpaceOnUse"
   x2="8855.9004"
   gradientTransform="matrix(-0.8685,-0.76919,0.76919,-0.8685,22858,-10259)"
   y1="-19695"
   x1="8854.7002">
      <stop
   id="stop176"
   style="stop-color:#ffffff"
   offset="0" />
      <stop
   id="stop178"
   style="stop-color:#000000"
   offset="1" />
    </linearGradient>
    <linearGradient
   id="linearGradient220"
   y2="-2.3110001"
   gradientUnits="userSpaceOnUse"
   x2="39.341999"
   gradientTransform="matrix(0.45056,-1.0691,-1.0691,-0.45056,-6.4406,55.167)"
   y1="-2.3110001"
   x1="31.746">
      <stop
   id="stop222"
   style="stop-color:#ff543d"
   offset="0" />
      <stop
   id="stop224"
   style="stop-color:#b31205"
   offset="1" />
    </linearGradient>
    <linearGradient
   id="linearGradient248"
   y2="-11609"
   gradientUnits="userSpaceOnUse"
   x2="-2859.3999"
   gradientTransform="matrix(0.53831,-1.0277,1.0277,0.53831,13481,3331)"
   y1="-11609"
   x1="-2861.8">
      <stop
   id="stop250"
   style="stop-color:#ffffff"
   offset="0" />
      <stop
   id="stop252"
   style="stop-color:#000000"
   offset="1" />
    </linearGradient>
    <linearGradient
   id="linearGradient270"
   y2="-0.25"
   gradientUnits="userSpaceOnUse"
   x2="43.410999"
   gradientTransform="matrix(0.90968,-0.72016,-0.72016,-0.90968,-6.4403,55.166)"
   y1="-0.25"
   x1="36.522999">
      <stop
   id="stop272"
   style="stop-color:#ff543d"
   offset="0" />
      <stop
   id="stop274"
   style="stop-color:#b31205"
   offset="1" />
    </linearGradient>
    <linearGradient
   id="linearGradient288"
   y2="-6474.2002"
   gradientUnits="userSpaceOnUse"
   x2="-3258.5"
   gradientTransform="matrix(0.93161,-0.69146,0.69146,0.93161,7541.2,3806.5)"
   y1="-6474.2002"
   x1="-3261.5">
      <stop
   id="stop290"
   style="stop-color:#ffffff"
   offset="0" />
      <stop
   id="stop292"
   style="stop-color:#000000"
   offset="1" />
    </linearGradient>
    <linearGradient
   id="linearGradient322"
   y2="38.356998"
   gradientUnits="userSpaceOnUse"
   x2="26.934"
   gradientTransform="matrix(1.1602,0,0,-1.1602,-6.4406,55.167)"
   y1="32.181999"
   x1="26.466">
      <stop
   id="stop324"
   style="stop-color:#ff543d"
   offset="0" />
      <stop
   id="stop326"
   style="stop-color:#b31205"
   offset="1" />
    </linearGradient>
    <linearGradient
   id="linearGradient340"
   y2="-3.0255001"
   gradientUnits="userSpaceOnUse"
   x2="1.4607"
   gradientTransform="matrix(1.1602,0,0,1.1602,21.239,16.048)"
   x1="1.1406">
      <stop
   id="stop342"
   style="stop-color:#ffffff"
   offset="0" />
      <stop
   id="stop344"
   style="stop-color:#000000"
   offset="1" />
    </linearGradient>
    <linearGradient
   id="linearGradient372"
   y2="29.627001"
   gradientUnits="userSpaceOnUse"
   x2="37.174999"
   gradientTransform="matrix(1.1602,0,0,-1.1602,-6.4406,55.167)"
   y1="34.973"
   x1="43.554001">
      <stop
   id="stop374"
   style="stop-color:#ff543d"
   offset="0" />
      <stop
   id="stop376"
   style="stop-color:#b31205"
   offset="1" />
    </linearGradient>
    <linearGradient
   id="linearGradient400"
   y2="-0.1085"
   gradientUnits="userSpaceOnUse"
   x2="-0.0080000004"
   gradientTransform="matrix(1.1602,0,0,1.1602,39.92,22.887)"
   y1="-1.3052"
   x1="1.6943001">
      <stop
   id="stop402"
   style="stop-color:#ffffff"
   offset="0" />
      <stop
   id="stop404"
   style="stop-color:#000000"
   offset="1" />
    </linearGradient>
    <linearGradient
   id="linearGradient438"
   y2="40.474998"
   gradientUnits="userSpaceOnUse"
   x2="49.25"
   gradientTransform="matrix(1.1602,0,0,-1.1602,-6.4406,55.167)"
   y1="40.474998"
   x1="4.25">
      <stop
   id="stop440"
   style="stop-color:#ffffff"
   offset="0" />
      <stop
   id="stop442"
   style="stop-color:#a9cad1"
   offset="1" />
    </linearGradient>
  </defs>
  <g
   id="g10"
   transform="matrix(5.2259208,0,0,-5.2259208,0.00135775,220.16173)">
    <g
   id="g12">
      <g
   id="g14">
        <g
   id="g16">
          <g
   id="g22">
            <path
   id="path30"
   style="fill:url(#linearGradient24);fill-rule:evenodd"
   d="m 38.922,20.649 c 3.984,-0.965 5.976,-2.164 5.976,-3.593 0,-1.395 -1.992,-2.59 -5.976,-3.598 -3.984,-1.004 -8.777,-1.508 -14.387,-1.508 -5.605,0 -10.422,0.504 -14.441,1.508 -3.985,1.008 -5.977,2.203 -5.977,3.598 0,1.429 1.992,2.628 5.977,3.593 3.98,1.008 8.797,1.512 14.441,1.512 5.649,0 10.442,-0.504 14.387,-1.512 z"
   inkscape:connector-curvature="0" />
          </g>
        </g>
      </g>
      <path
   id="path32"
   style="fill:#ffffff;fill-rule:evenodd"
   d="m 45.824,17.227 h -0.926 c -0.156,1.356 -2.207,2.516 -6.148,3.481 -3.984,0.969 -8.723,1.453 -14.215,1.453 -5.492,0 -10.211,-0.484 -14.152,-1.453 C 6.438,19.743 4.367,18.583 4.176,17.227 h -1.16 c 0.504,1.625 2.785,2.977 6.843,4.063 4.102,1.121 8.953,1.68 14.563,1.68 5.57,0 10.402,-0.559 14.5,-1.68 4.062,-1.086 6.363,-2.438 6.902,-4.063 z"
   inkscape:connector-curvature="0" />
      <path
   id="path34"
   style="fill:#719b3f;fill-rule:evenodd"
   d="m 20.242,28.075 0.117,0.871 c 0.079,0.965 0.274,1.778 0.582,2.438 0.309,0.656 0.657,0.984 1.043,0.984 h 1.973 l 1.449,-0.348 0.293,0.754 c 0.426,0.504 1.102,0.754 2.028,0.754 0.347,0 1.238,0.059 2.668,0.172 0.812,0.039 1.414,-0.019 1.8,-0.172 0.657,-0.234 1.528,-0.91 2.61,-2.031 l 0.812,-1.449 0.754,0.117 c 0.465,-0.039 0.563,-0.465 0.289,-1.277 -0.269,-0.852 -0.887,-1.336 -1.855,-1.45 -0.774,-0.117 -1.391,-0.019 -1.856,0.289 -0.23,0.153 -0.695,-0.195 -1.39,-1.043 -0.118,-0.156 -0.696,-0.988 -1.743,-2.496 -0.656,-1.004 -1.336,-1.644 -2.031,-1.914 l -0.984,-1.508 c -0.387,-0.66 -0.852,-1.453 -1.391,-2.378 -0.387,-0.582 -0.777,-0.793 -1.16,-0.637 -0.426,0.152 -0.699,0.152 -0.812,0 -0.04,-0.039 -0.348,-0.695 -0.93,-1.973 L 21.523,13.513 C 20.98,12.239 20.555,11.27 20.246,10.614 20.207,10.462 20.09,9.513 19.898,7.77 c -0.117,-0.964 -0.117,-2.3 0,-4 0.04,-0.773 -0.175,-1.218 -0.64,-1.336 -0.813,-0.269 -1.934,-0.058 -3.363,0.637 -1.778,0.891 -3.075,2.266 -3.887,4.121 0,3.981 0.754,6.766 2.262,8.352 0.464,0.543 0.773,1.199 0.929,1.972 0.113,0.618 0.348,0.989 0.696,1.102 l 0.984,0.406 0.641,3.422 c -0.235,0.078 -0.407,0.215 -0.524,0.41 -0.269,0.383 -0.098,0.887 0.524,1.508 l 1.39,1.508 c 0.426,0.5 0.774,1.141 1.047,1.914 0.152,0.387 0.25,0.484 0.285,0.289 z"
   inkscape:connector-curvature="0" />
      <path
   id="path36"
   style="fill:#5a873c;fill-rule:evenodd"
   d="m 22.332,28.54 c 0.309,-0.27 0.621,-0.484 0.93,-0.637 0.113,0.27 0.289,0.559 0.519,0.867 0.387,0.582 0.793,0.93 1.219,1.047 0.621,0.192 1.027,0.289 1.219,0.289 -0.231,0.543 -0.231,1.141 0,1.797 0.23,0.699 0.851,1.047 1.855,1.047 h 1.16 c -0.25,-0.008 -0.523,-0.047 -0.812,-0.117 -0.656,-0.156 -1.063,-0.406 -1.219,-0.754 -0.308,-0.578 -0.422,-1.102 -0.348,-1.566 l 0.754,0.406 c 0.657,0.347 1.356,0.597 2.09,0.754 0.617,0.117 1.293,0.308 2.031,0.578 0.579,0.195 0.965,0.293 1.161,0.293 0.347,0 0.789,-0.387 1.332,-1.16 -0.582,0.347 -1.121,0.445 -1.625,0.289 l -1.274,-0.465 0.867,0.176 c 0.657,0 1.219,-0.274 1.684,-0.813 0.039,-0.039 0.367,-0.445 0.984,-1.219 0.157,-0.156 0.332,-0.234 0.524,-0.234 0.387,0 0.734,0.043 1.047,0.117 -0.391,-1.004 -0.891,-1.219 -1.508,-0.636 -0.817,0.773 -1.281,1.199 -1.395,1.277 -0.543,0.387 -1.062,0.558 -1.566,0.519 l -1.742,-0.171 0.058,-0.29 c 0.118,-0.234 0.387,-0.406 0.813,-0.523 0.621,-0.195 1.238,-0.328 1.855,-0.406 0,-0.117 -0.597,-0.176 -1.797,-0.176 -0.543,0 -1.043,0.176 -1.507,0.523 -0.348,0.235 -0.735,0.25 -1.161,0.059 l -2.437,-1.102 2.031,-1.101 c 0.891,-0.387 1.625,-0.387 2.203,0 -0.965,-0.891 -1.718,-1.336 -2.261,-1.336 -0.153,0 -0.602,0.195 -1.336,0.582 -0.657,0.387 -1.18,0.484 -1.563,0.289 -0.621,-0.269 -1.203,-0.734 -1.742,-1.394 -0.656,-0.696 -1.102,-1.45 -1.336,-2.262 l -0.578,-2.379 2.203,0.465 c 0.852,0.234 1.356,0.386 1.508,0.465 0.195,0.117 0.465,0.503 0.812,1.16 0.504,0.851 0.969,1.316 1.395,1.394 l -1.395,-2.496 c -0.422,-0.851 -0.734,-1.39 -0.925,-1.625 -0.387,-0.426 -0.871,-0.637 -1.454,-0.637 -0.769,0.04 -1.293,0.059 -1.566,0.059 -0.426,0 -0.715,-0.156 -0.867,-0.465 -0.27,-0.465 -0.754,-1.101 -1.449,-1.914 0.074,-0.582 0.48,-0.582 1.215,0 0.699,0.617 1.374,0.985 2.031,1.102 0.195,-0.465 -0.059,-1.063 -0.754,-1.801 -0.309,-0.348 -1.586,-2.106 -3.828,-5.277 -2.125,-2.707 -3.364,-3.344 -3.711,-1.914 -0.274,1.082 -0.196,2.222 0.23,3.421 0.504,1.047 0.754,1.684 0.754,1.914 -0.269,1.508 -0.289,2.536 -0.058,3.075 0.156,0.347 0.406,0.675 0.753,0.988 l 0.524,0.406 0.348,-0.754 c 0.269,-0.504 0.543,-0.754 0.812,-0.754 0.504,0 0.813,0.172 0.93,0.52 -0.774,0.504 -1.18,1.199 -1.219,2.09 0,0.195 -0.039,0.66 -0.117,1.39 0.121,-0.621 0.336,-1.086 0.637,-1.39 l 1.335,-1.395 c 0.657,0.391 0.793,1.047 0.407,1.973 -0.313,0.66 -0.485,1.105 -0.524,1.336 -0.117,0.308 -0.133,0.793 -0.058,1.449 l 0.523,3.133 0.117,-3.652 c 0.075,-0.583 0.348,-1.008 0.809,-1.278 0,1.121 0.156,2.164 0.465,3.133 0.156,0.617 0.351,1.141 0.582,1.566 0.117,0.231 0.211,0.387 0.289,0.465 -0.578,0 -0.887,0.348 -0.926,1.043 -0.156,0.696 -0.254,1.199 -0.293,1.508 -0.117,0.543 0.02,1.004 0.406,1.395 0.387,0.46 0.719,0.753 0.989,0.867 0.191,0.078 0.464,0.117 0.812,0.117 h 0.434 C 23.18,31.727 22.766,31.399 22.391,30.806 21.734,29.759 21.715,29.005 22.332,28.54 Z"
   inkscape:connector-curvature="0" />
      <path
   id="path38"
   style="fill:#7bb342;fill-rule:evenodd"
   d="m 23.781,24.829 c 0.621,0.734 1.239,0.926 1.856,0.578 0.738,-0.348 0.89,-0.598 0.465,-0.754 -0.114,-0.039 -0.383,-0.465 -0.813,-1.277 -0.461,-0.774 -0.867,-1.18 -1.219,-1.215 l -1.851,-0.352 c 0.539,1.395 1.062,2.399 1.562,3.02 z"
   inkscape:connector-curvature="0" />
      <path
   id="path40"
   style="fill:#7bb342;fill-rule:evenodd"
   d="m 20.594,27.903 c 0.465,-0.308 0.676,-0.621 0.636,-0.929 -0.039,-0.192 -0.234,-0.559 -0.578,-1.102 -0.312,-0.695 -0.351,-1.723 -0.117,-3.074 -0.234,0.23 -0.367,0.793 -0.406,1.679 -0.039,0.852 -0.02,1.625 0.059,2.325 0.074,0.886 0.21,1.257 0.406,1.101 z"
   inkscape:connector-curvature="0" />
      <path
   id="path42"
   style="fill:#7bb342;fill-rule:evenodd"
   d="m 18.504,23.841 c 0.269,-0.039 0.426,-0.231 0.465,-0.578 0,-0.235 -0.039,-0.657 -0.117,-1.278 -0.04,-0.656 0.171,-1.449 0.636,-2.379 -0.851,0.66 -1.375,1.317 -1.566,1.973 -0.117,0.504 -0.117,1.027 0,1.566 0.117,0.504 0.312,0.735 0.582,0.696 z"
   inkscape:connector-curvature="0" />
      <path
   id="path44"
   style="fill:#7bb342;fill-rule:evenodd"
   d="m 23.957,31.79 c 0.231,-0.078 0.309,-0.367 0.231,-0.871 -0.036,-0.504 -0.25,-0.852 -0.637,-1.043 -0.348,-0.156 -0.559,-0.371 -0.637,-0.641 -0.039,-0.152 -0.039,-0.289 0,-0.406 -0.195,0.039 -0.293,0.426 -0.293,1.16 0,0.582 0.137,1.047 0.406,1.395 0.274,0.386 0.582,0.519 0.93,0.406 z"
   inkscape:connector-curvature="0" />
      <path
   id="path46"
   style="fill:#7bb342;fill-rule:evenodd"
   d="m 27.727,31.673 0.347,0.578 c 0.348,0.387 0.754,0.621 1.219,0.699 0.387,0.074 0.891,0.191 1.508,0.348 0.426,0.039 0.543,-0.078 0.351,-0.348 -0.082,-0.156 -0.621,-0.312 -1.625,-0.465 -0.968,-0.195 -1.57,-0.465 -1.8,-0.812 z"
   inkscape:connector-curvature="0" />
      <path
   id="path48"
   style="fill:#7bb342;fill-rule:evenodd"
   d="m 27.785,28.427 c 0.309,-0.157 0.52,-0.235 0.637,-0.235 0.078,0.039 0.215,0.078 0.406,0.117 0.156,0 0.406,0.04 0.754,0.118 0.348,0 0.754,-0.137 1.219,-0.411 0.426,-0.308 0.465,-0.48 0.117,-0.519 -0.621,0 -1.106,-0.02 -1.453,-0.059 -0.387,-0.039 -0.774,0.118 -1.16,0.465 z"
   inkscape:connector-curvature="0" />
      <path
   id="path50"
   style="fill:#7bb342;fill-rule:evenodd"
   d="m 23.32,18.911 c -0.156,-0.234 -0.332,-0.387 -0.523,-0.465 -0.348,-0.039 -0.656,-0.172 -0.93,-0.406 -0.539,-0.465 -1.14,-0.598 -1.797,-0.406 0.426,0.195 0.871,0.523 1.332,0.988 0.309,0.348 0.754,0.559 1.336,0.637 0.543,0.117 0.735,0 0.582,-0.348 z"
   inkscape:connector-curvature="0" />
      <path
   id="path52"
   style="fill:#7bb342;fill-rule:evenodd"
   d="m 31.383,29.876 h 1.277 c 0.383,0 0.735,-0.098 1.043,-0.293 0.309,-0.192 0.426,-0.387 0.348,-0.578 -0.039,-0.196 -0.27,-0.27 -0.696,-0.235 -0.425,0.039 -0.812,0.196 -1.16,0.465 z"
   inkscape:connector-curvature="0" />
      <path
   id="path54"
   style="fill:#719b3f;fill-rule:evenodd"
   d="m 4.582,27.091 c 0.039,0.117 0.211,0.484 0.523,1.101 0.5,1.043 0.774,1.606 0.813,1.684 0.23,0.387 0.559,0.637 0.984,0.754 l 1.973,0.636 c 0.891,1.817 1.547,2.938 1.973,3.364 0.23,0.234 0.617,-0.133 1.16,-1.102 0.308,-0.539 0.773,-1.508 1.39,-2.898 0.348,-0.696 0.446,-1.199 0.293,-1.508 -0.351,-0.621 -0.543,-1.121 -0.582,-1.508 -0.078,-0.738 -0.078,-1.277 0,-1.625 0.039,-0.23 0.137,-0.91 0.289,-2.031 0.118,-0.813 0.215,-1.18 0.293,-1.102 0.231,0.192 0.539,0.039 0.926,-0.465 0.426,-0.503 0.582,-0.773 0.465,-0.812 -0.234,-0.078 -0.328,-0.406 -0.289,-0.984 0.039,-0.621 0.113,-0.911 0.23,-0.871 0.309,0.078 0.676,-0.137 1.102,-0.637 0.465,-0.543 0.719,-0.871 0.754,-0.988 0.156,-0.387 0.562,-1.083 1.219,-2.086 2.242,-3.407 2.746,-5.028 1.507,-4.875 -0.847,0.117 -1.757,0.156 -2.726,0.117 -1.66,-0.078 -2.512,-0.117 -2.551,-0.117 -2.012,0 -3.48,0.097 -4.41,0.289 -0.617,0.156 -1.277,0.793 -1.973,1.914 -0.578,0.968 -1.082,2.07 -1.507,3.308 -0.231,0.696 -0.426,1.121 -0.579,1.278 -0.039,0.039 -0.097,0.308 -0.175,0.808 -0.079,0.66 -0.192,1.008 -0.348,1.047 L 5.105,19.665 C 4.484,20.669 4.117,21.481 4,22.102 c -0.074,0.735 0.039,1.856 0.348,3.364 0.156,0.929 0.234,1.468 0.234,1.625 z"
   inkscape:connector-curvature="0" />
      <path
   id="path56"
   style="fill:#5a873c;fill-rule:evenodd"
   d="m 9.164,30.395 c 0.387,1.473 0.984,2.36 1.797,2.672 0.465,0.153 0.719,-0.019 0.758,-0.523 -0.117,0.078 -0.274,0.097 -0.465,0.058 -0.348,-0.039 -0.66,-0.351 -0.93,-0.929 C 10.016,31.056 9.84,30.356 9.801,29.583 9.766,29.352 9.746,28.579 9.746,27.266 c 0,-1.125 0.035,-2.109 0.113,-2.96 l 0.176,0.582 c 0.27,0.964 0.637,1.562 1.102,1.796 0.269,0.118 0.504,0.465 0.695,1.043 0.309,0.852 0.523,1.375 0.637,1.567 0.234,0.347 0.445,0.523 0.64,0.523 0.118,0 0.192,-0.039 0.231,-0.117 L 12.992,29.352 C 12.84,29.196 12.742,29.044 12.703,28.888 12.664,28.849 12.586,28.501 12.469,27.845 12.355,27.38 12.219,27.032 12.066,26.798 11.988,26.645 11.754,26.317 11.367,25.813 10.902,25.04 10.613,23.997 10.5,22.681 c -0.039,-0.852 0,-1.278 0.113,-1.278 0.348,0.66 0.774,1.258 1.278,1.801 0.347,0.348 0.578,0.891 0.695,1.625 l 0.059,0.984 v -1.797 c 0,-0.621 -0.27,-1.472 -0.813,-2.554 -0.504,-1.004 -0.695,-1.856 -0.578,-2.551 0.113,-0.465 0.25,-0.734 0.406,-0.812 0.113,0 0.289,0.097 0.52,0.289 0.273,0.191 0.64,0.91 1.101,2.148 0.235,0.656 0.485,1.16 0.754,1.508 l 0.406,0.289 -0.406,-1.043 C 13.805,19.665 13.648,18.735 13.57,18.505 13.262,17.266 12.914,16.63 12.527,16.591 l 0.465,-0.871 c 0.153,-0.348 0.328,-0.618 0.524,-0.813 1.082,0.231 1.777,0.774 2.086,1.625 0.156,0.5 0.269,1.063 0.347,1.68 v 0.754 l 0.176,-0.461 c 0.117,-0.391 0.172,-0.774 0.172,-1.16 0,-0.582 -0.02,-0.95 -0.059,-1.106 -0.035,-0.269 -0.191,-0.695 -0.461,-1.273 -0.425,-0.852 -0.773,-1.278 -1.047,-1.278 l 2.09,0.059 c 0.657,0.074 1.352,0.387 2.09,0.926 l 0.637,-0.696 -0.059,-2.086 c -0.191,-0.464 -0.793,-0.699 -1.797,-0.699 -1.586,-0.269 -3.152,-0.367 -4.699,-0.289 -1.008,0.039 -2.051,0.485 -3.133,1.336 l -1.336,1.332 1.454,0.117 c 0.695,0 1.218,0.176 1.566,0.524 -0.387,0.113 -0.793,0.172 -1.219,0.172 -0.89,0 -1.605,0.273 -2.148,0.812 -0.231,0.235 -0.461,0.617 -0.696,1.16 l -0.289,0.7 0.348,-0.176 c 0.27,-0.153 0.523,-0.367 0.754,-0.637 0.234,-0.309 0.426,-0.504 0.582,-0.582 0.117,-0.078 0.387,-0.191 0.813,-0.348 0.539,-0.23 0.812,-0.136 0.812,0.289 L 8.934,17.11 C 8.043,17.614 7.445,17.962 7.133,18.157 6.746,18.388 6.477,19.161 6.32,20.474 6.281,20.786 6.09,21.212 5.742,21.751 5.434,22.216 5.277,22.583 5.277,22.856 l 0.231,3.364 v -1.625 c 0,-0.465 0.097,-0.871 0.293,-1.219 0.078,-0.231 0.269,-0.563 0.578,-0.985 0.195,-0.312 0.406,-0.91 0.641,-1.8 0.078,-0.309 0.25,-0.543 0.519,-0.696 0.352,-0.23 0.621,-0.484 0.813,-0.754 0.503,-0.656 0.949,-1.121 1.336,-1.394 l -0.407,0.93 c -0.156,0.347 -0.25,0.906 -0.289,1.683 l -0.058,1.043 c -0.504,0.735 -1.102,1.488 -1.801,2.262 -0.465,0.504 -0.754,0.949 -0.867,1.336 -0.078,0.269 -0.118,0.808 -0.118,1.625 0,0.578 0.059,1.199 0.172,1.855 l 0.176,0.871 -0.058,-1.16 c 0,-1.004 0.308,-1.953 0.929,-2.843 0.539,-0.848 1.024,-1.313 1.449,-1.391 v 2.551 c 0,0.929 0.059,1.859 0.176,2.785 z"
   inkscape:connector-curvature="0" />
      <path
   id="path58"
   style="fill:#7bb342;fill-rule:evenodd"
   d="m 8.586,25.813 c 0.152,-0.539 0.133,-0.867 -0.059,-0.984 -0.543,0.656 -1.066,1.352 -1.566,2.086 -0.352,0.504 -0.504,1.047 -0.465,1.625 0.039,0.504 0.172,0.93 0.406,1.277 0.387,0.465 0.754,-0.156 1.102,-1.855 0.195,-0.969 0.387,-1.684 0.582,-2.149 z"
   inkscape:connector-curvature="0" />
      <path
   id="path60"
   style="fill:#7bb342;fill-rule:evenodd"
   d="M 8.816,30.106 8.641,27.38 c -0.383,1.469 -0.579,2.398 -0.579,2.785 0,0.309 0.118,0.484 0.348,0.519 0.231,0.04 0.367,-0.152 0.406,-0.578 z"
   inkscape:connector-curvature="0" />
      <path
   id="path62"
   style="fill:#7bb342;fill-rule:evenodd"
   d="m 10.035,27.845 c -0.117,1.238 0,2.183 0.348,2.843 0.617,1.196 1.082,1.469 1.39,0.813 0.313,-0.621 0.039,-1.141 -0.812,-1.567 -0.387,-0.234 -0.695,-0.929 -0.926,-2.089 z"
   inkscape:connector-curvature="0" />
      <path
   id="path64"
   style="fill:#7bb342;fill-rule:evenodd"
   d="m 10.035,26.509 c 0.192,0.621 0.617,1.297 1.274,2.031 0.234,0.23 0.445,0.637 0.64,1.219 0.192,0.543 0.328,0.851 0.406,0.925 0.192,0.157 0.29,0.059 0.29,-0.289 0,-0.347 -0.153,-0.773 -0.465,-1.277 -0.504,-0.73 -1.219,-1.602 -2.145,-2.609 z"
   inkscape:connector-curvature="0" />
      <path
   id="path66"
   style="fill:#7bb342;fill-rule:evenodd"
   d="m 6.613,22.333 c -0.308,0.465 -0.523,0.793 -0.636,0.984 -0.196,0.391 -0.235,0.719 -0.118,0.989 0.27,0.695 0.676,0.136 1.215,-1.684 0.313,-0.965 0.813,-1.758 1.512,-2.379 0.5,-0.734 0.637,-1.176 0.402,-1.332 L 8.816,19.434 C 8.66,19.895 8.273,20.204 7.656,20.36 7.461,20.438 7.27,20.688 7.074,21.114 6.883,21.657 6.727,22.063 6.613,22.333 Z"
   inkscape:connector-curvature="0" />
      <path
   id="path68"
   style="fill:#7bb342;fill-rule:evenodd"
   d="m 10.789,22.509 c -0.078,1.004 0.152,1.855 0.695,2.55 0.426,0.504 0.735,0.696 0.93,0.582 0.191,-0.078 0.191,-0.347 0,-0.812 -0.117,-0.313 -0.254,-0.484 -0.406,-0.523 -0.196,-0.079 -0.387,-0.25 -0.582,-0.524 -0.156,-0.23 -0.367,-0.656 -0.637,-1.273 z"
   inkscape:connector-curvature="0" />
      <path
   id="path70"
   style="fill:#7bb342;fill-rule:evenodd"
   d="m 11.715,18.794 c -0.192,0.504 -0.094,1.18 0.289,2.031 0.156,0.348 0.293,0.832 0.406,1.449 0.078,0.313 0.195,0.465 0.352,0.465 0.465,0 0.426,-0.523 -0.117,-1.566 -0.153,-0.387 -0.368,-0.832 -0.637,-1.332 -0.196,-0.387 -0.293,-0.735 -0.293,-1.047 z"
   inkscape:connector-curvature="0" />
      <path
   id="path72"
   style="fill:#7bb342;fill-rule:evenodd"
   d="m 13.109,16.36 c 0.618,0.192 0.926,0.637 0.926,1.332 0,0.543 0.156,0.93 0.465,1.16 0.309,0.192 0.484,0 0.523,-0.578 0.079,-0.773 -0.308,-1.453 -1.16,-2.031 -0.066,-0.055 -0.117,-0.102 -0.144,-0.144 -0.086,0.074 -0.289,0.16 -0.61,0.261 z"
   inkscape:connector-curvature="0" />
      <path
   id="path74"
   style="fill:#7bb342;fill-rule:evenodd"
   d="m 17.227,16.591 c 0.386,-0.117 0.543,-0.465 0.464,-1.047 -0.078,-0.461 -0.269,-0.906 -0.582,-1.332 -0.347,-0.426 -1.023,-0.543 -2.027,-0.348 l 0.465,0.231 c 0.269,0 0.617,0.464 1.043,1.394 0.152,0.461 0.269,0.754 0.348,0.867 0.039,0.196 0.136,0.274 0.289,0.235 z"
   inkscape:connector-curvature="0" />
      <path
   id="path76"
   style="fill:#719b3f;fill-rule:evenodd"
   d="m 42.461,22.391 c -1.781,-0.582 -3.035,-1.199 -3.77,-1.855 -0.351,-0.27 -0.832,-0.387 -1.449,-0.352 -0.582,0.043 -1.121,-0.152 -1.625,-0.578 -0.504,-0.465 -1.066,-1.39 -1.683,-2.785 -0.657,-1.469 -1.043,-2.262 -1.161,-2.379 -0.191,-0.191 -0.582,-0.812 -1.16,-1.855 -0.656,-1.043 -1.488,-1.742 -2.492,-2.086 -1.125,-0.582 -1.879,-0.93 -2.266,-1.047 -0.5,-0.191 -1.351,-0.152 -2.55,0.117 -0.657,0.117 -1.625,0.192 -2.903,0.231 -0.578,0 -0.984,0.234 -1.214,0.699 -0.157,0.308 -0.872,0.793 -2.149,1.449 -0.887,0.504 -1.023,0.926 -0.406,1.277 0.89,0.5 1.508,0.887 1.859,1.157 0.5,0.39 1.391,1.218 2.668,2.496 0.383,0.386 1.063,0.367 2.028,-0.059 1.238,-0.578 1.972,-0.867 2.207,-0.867 0.656,0 1.179,0.133 1.566,0.406 0.426,0.387 0.812,1.063 1.16,2.028 0.191,0.503 0.422,1.605 0.695,3.308 0.231,1.16 0.504,1.797 0.813,1.914 2.398,0.735 3.867,1.645 4.406,2.727 0.582,1.16 0.891,1.762 0.93,1.797 0.308,0.425 0.695,0.445 1.16,0.058 0.195,-0.156 0.582,-0.636 1.16,-1.449 0.387,-0.465 0.813,-0.695 1.277,-0.695 h 3.481 l 2.437,-2.149 c 0.309,-0.191 0.715,-1.101 1.215,-2.726 -0.386,0.308 -0.847,0.582 -1.39,0.812 -1.082,0.504 -2.032,0.637 -2.844,0.406 z"
   inkscape:connector-curvature="0" />
      <path
   id="path78"
   style="fill:#5a873c;fill-rule:evenodd"
   d="m 42.055,23.958 c 1.933,-0.543 3.074,-0.949 3.422,-1.219 0.734,-0.578 1.14,-1.101 1.218,-1.566 -0.465,0.426 -0.91,0.636 -1.332,0.636 -0.425,-0.113 -0.777,-0.21 -1.047,-0.289 -0.464,-0.078 -0.949,0.02 -1.449,0.289 -0.156,0.079 -0.89,0.543 -2.207,1.395 -0.887,0.539 -1.449,0.773 -1.68,0.695 -0.234,-0.078 -0.425,-0.269 -0.582,-0.582 -0.308,-0.578 -0.519,-0.945 -0.636,-1.101 -1.16,-2.012 -1.895,-2.977 -2.203,-2.899 -1.278,0.27 -2.11,0.328 -2.497,0.176 -0.347,-0.156 -0.582,-0.332 -0.695,-0.523 l -0.058,-0.289 0.464,0.117 c 0.231,0.074 0.793,-0.082 1.684,-0.465 0.309,-0.156 0.656,-0.195 1.043,-0.117 -0.27,-0.196 -0.562,-0.332 -0.871,-0.407 -0.504,-0.078 -1.024,0 -1.567,0.231 -0.464,0.156 -1.121,-0.059 -1.972,-0.637 -0.617,-0.426 -1.219,-1.277 -1.797,-2.551 l 1.449,0.461 c 0.27,0 0.563,0.196 0.871,0.582 0.348,0.27 0.715,0.407 1.102,0.407 0.347,0 0.543,-0.078 0.582,-0.231 h -0.524 c -0.152,0 -0.367,-0.176 -0.636,-0.523 -0.309,-0.387 -0.543,-0.617 -0.696,-0.696 -0.195,-0.078 -0.445,-0.117 -0.753,-0.117 -0.235,0 -0.387,-0.078 -0.465,-0.23 l -0.118,-0.699 c -0.039,-0.192 -0.019,-0.25 0.059,-0.172 0.191,0.152 0.406,0.25 0.637,0.289 0.426,0.078 0.851,-0.02 1.277,-0.289 h -0.582 c -0.887,0 -1.836,-0.563 -2.84,-1.684 C 28.191,11.407 26.973,10.927 25,10.501 23.375,10.114 22.254,9.919 21.637,9.919 c -0.426,0 -1.782,0.793 -4.063,2.379 -0.269,0.195 -0.426,0.367 -0.465,0.523 0,0.153 0.079,0.25 0.235,0.289 0.426,0.117 1.297,0.676 2.609,1.684 l 2.031,1.972 -0.289,-1.16 c -0.195,-0.89 -0.269,-1.664 -0.234,-2.32 0.348,0.309 0.699,0.789 1.047,1.449 0.387,0.813 1.043,1.258 1.969,1.332 0.273,0.039 0.543,-0.039 0.816,-0.23 0.309,-0.192 0.348,-0.27 0.113,-0.231 -0.5,0.075 -1.023,-0.117 -1.566,-0.582 -0.539,-0.504 -0.848,-0.929 -0.926,-1.277 l 0.465,0.059 c 0.348,0.039 0.695,0.136 1.043,0.289 0.426,0.156 0.965,0.562 1.625,1.218 0.308,0.309 0.598,0.426 0.867,0.348 0.352,-0.078 0.41,-0.152 0.176,-0.23 -0.192,0 -0.617,-0.235 -1.278,-0.696 -0.464,-0.351 -0.636,-0.562 -0.519,-0.64 l 0.984,0.117 c 0.696,0.117 1.375,0.523 2.032,1.219 0.152,0.152 0.269,0.464 0.347,0.925 0.117,0.543 0.289,0.969 0.524,1.278 0.269,0.386 0.461,0.812 0.578,1.277 0.117,0.578 0.215,1.082 0.289,1.508 0.195,1.008 0.406,1.738 0.641,2.203 0.191,0.387 0.484,0.602 0.871,0.641 0.191,0.035 0.367,0.035 0.519,0 -0.152,-0.039 -0.308,-0.118 -0.465,-0.235 -0.347,-0.191 -0.597,-0.426 -0.75,-0.695 -0.156,-0.27 -0.254,-0.637 -0.293,-1.102 v -1.507 c 0,-0.813 -0.078,-1.297 -0.23,-1.454 0.152,0.079 0.348,0.309 0.582,0.696 0.269,0.347 0.461,0.621 0.578,0.812 0.234,0.352 0.387,0.68 0.465,0.988 0.191,0.813 0.578,1.606 1.16,2.379 0.539,0.774 0.91,1.235 1.102,1.391 l -0.289,-0.695 -1.047,-1.914 c -0.27,-0.5 -0.289,-0.828 -0.059,-0.985 0.387,0.27 0.813,0.637 1.277,1.102 0.348,0.308 0.543,0.523 0.579,0.637 v 0.636 c -0.036,0.504 -0.055,0.91 -0.055,1.219 0,0.543 0.074,0.969 0.23,1.277 l 0.813,1.395 -0.348,-1.336 c -0.156,-0.348 -0.215,-0.695 -0.176,-1.043 0.039,-0.234 0.098,-0.602 0.176,-1.102 0.074,-0.386 0.211,-0.41 0.406,-0.058 0.114,0.23 0.289,0.637 0.52,1.219 0.156,0.269 0.234,0.578 0.234,0.925 v 1.161 c 0.039,0.386 0.114,0.695 0.231,0.929 l 0.176,0.231 -0.059,-2.785 0.984,0.406 c 0.7,0.117 1.18,-0.117 1.453,-0.696 0.075,-0.191 1.004,-0.558 2.782,-1.101 z"
   inkscape:connector-curvature="0" />
      <path
   id="path80"
   style="fill:#7bb342;fill-rule:evenodd"
   d="m 32.078,23.263 c -0.504,-0.317 -0.832,-1.129 -0.984,-2.438 -0.078,-0.734 -0.332,-1.586 -0.754,-2.551 0.113,0.461 0.172,0.867 0.172,1.219 0,0.848 0.078,1.641 0.23,2.375 0.078,0.465 0.274,0.813 0.582,1.047 0.156,0.117 0.309,0.172 0.465,0.172 z"
   inkscape:connector-curvature="0" />
      <path
   id="path82"
   style="fill:#7bb342;fill-rule:evenodd"
   d="m 32.773,21.114 c 0,0.117 0.289,0.891 0.872,2.32 l 0.636,1.508 -0.406,-2.086 c -0.039,-0.234 -0.074,-0.543 -0.113,-0.929 -0.082,-0.309 -0.196,-0.485 -0.352,-0.52 -0.113,-0.039 -0.25,-0.176 -0.406,-0.406 -0.113,-0.117 -0.192,-0.078 -0.231,0.113 z"
   inkscape:connector-curvature="0" />
      <path
   id="path84"
   style="fill:#7bb342;fill-rule:evenodd"
   d="m 36.082,27.786 c 0.078,0.078 0.152,0.137 0.23,0.176 l -0.347,-0.637 c -0.27,-0.543 -0.387,-0.988 -0.348,-1.336 0.039,-0.308 0.133,-0.617 0.289,-0.93 0.156,-0.308 0.215,-0.558 0.176,-0.75 -0.043,-0.429 -0.215,-0.738 -0.523,-0.929 -0.426,0.695 -0.563,1.429 -0.407,2.203 0.039,0.117 0.211,0.656 0.52,1.625 0.078,0.23 0.215,0.426 0.41,0.578 z"
   inkscape:connector-curvature="0" />
      <path
   id="path86"
   style="fill:#7bb342;fill-rule:evenodd"
   d="m 36.836,25.349 0.055,1.507 c -0.036,0.426 -0.02,0.719 0.058,0.871 0.117,0.196 0.25,0.157 0.406,-0.117 0.118,-0.152 0.235,-0.367 0.348,-0.636 0.078,-0.231 0.195,-0.387 0.352,-0.465 0.308,-0.192 0.48,-0.426 0.519,-0.696 -0.926,-0.191 -1.508,-0.347 -1.738,-0.464 z"
   inkscape:connector-curvature="0" />
      <path
   id="path88"
   style="fill:#7bb342;fill-rule:evenodd"
   d="M 25.406,15.602 C 25.367,15.372 25.02,15.161 24.363,14.966 23.977,14.849 23.629,14.618 23.32,14.27 23.188,14.138 23.078,14.013 23,13.891 c 0.098,0.165 0.203,0.352 0.32,0.551 0.309,0.504 0.618,0.852 0.926,1.047 0.313,0.231 0.602,0.309 0.871,0.231 0.113,0 0.211,-0.039 0.289,-0.118 z"
   inkscape:connector-curvature="0" />
      <path
   id="path90"
   style="fill:#7bb342;fill-rule:evenodd"
   d="m 25.289,14.095 c 0.039,0.156 0.117,0.332 0.234,0.523 0.231,0.387 0.559,0.656 0.985,0.813 0.308,0.156 0.695,0.25 1.16,0.289 0.309,0.039 0.523,0.156 0.637,0.347 l 0.523,0.871 -0.058,-0.347 C 28.73,16.282 28.637,16.009 28.48,15.778 28.211,15.235 27.707,14.794 26.973,14.442 26.547,14.29 26.141,14.173 25.754,14.095 Z"
   inkscape:connector-curvature="0" />
      <path
   id="path92"
   style="fill:#7bb342;fill-rule:evenodd"
   d="m 21.461,13.282 c 0,0.426 0.059,1.008 0.176,1.742 0.117,1.082 0.425,1.66 0.925,1.742 0.543,0 0.911,-0.019 1.106,-0.058 L 24.07,16.649 23.605,16.415 C 23.223,16.224 22.93,15.993 22.738,15.72 22.582,15.489 22.312,14.927 21.926,14.04 21.734,13.536 21.578,13.282 21.461,13.282 Z"
   inkscape:connector-curvature="0" />
      <path
   id="path94"
   style="fill:#7bb342;fill-rule:evenodd"
   d="m 30.395,16.415 c 0.156,0.312 0.347,0.601 0.582,0.871 0.503,0.578 1.043,0.852 1.625,0.813 0.925,-0.04 1.468,-0.192 1.621,-0.465 -0.231,0.078 -0.832,0 -1.797,-0.231 -0.582,-0.156 -1.082,-0.367 -1.508,-0.637 -0.234,-0.117 -0.406,-0.234 -0.523,-0.351 z"
   inkscape:connector-curvature="0" />
      <path
   id="path96"
   style="fill:#719b3f;fill-rule:evenodd"
   d="M 41.418,8.641 C 40.836,7.52 39.773,6.825 38.227,6.556 36.176,6.243 33.762,5.934 30.977,5.626 28.965,5.239 27.668,5.106 27.09,5.22 26.16,5.415 25.734,6.575 25.812,8.7 c 0.079,1.895 0.696,2.285 1.856,1.16 1.394,-1.316 2.281,-1.605 2.668,-0.867 1.277,2.242 2.437,4.891 3.484,7.945 0.461,1.239 0.926,2.243 1.391,3.016 0.543,0.812 0.984,1.527 1.332,2.148 1.008,1.7 1.625,2.821 1.859,3.364 0.27,0.968 0.481,1.625 0.637,1.972 0.231,0.578 0.676,0.946 1.332,1.102 0.234,0.039 0.852,-0.098 1.859,-0.406 0.54,-0.192 1.024,0.136 1.45,0.984 0.543,1.086 1.277,1.664 2.203,1.742 0.969,0.039 1.453,-0.543 1.453,-1.742 0,-0.887 -0.328,-2.531 -0.988,-4.93 -0.774,-2.824 -1.215,-4.64 -1.332,-5.453 -0.192,-1.39 -0.426,-2.492 -0.696,-3.304 -0.195,-0.543 -0.656,-1.567 -1.394,-3.075 -0.465,-0.929 -0.969,-2.164 -1.508,-3.715 z"
   inkscape:connector-curvature="0" />
      <path
   id="path98"
   style="fill:#5a873c;fill-rule:evenodd"
   d="m 43.449,28.77 c 0.039,0.313 0.153,0.465 0.348,0.465 0.156,0 0.367,0.02 0.637,0.059 0.234,0.039 0.269,-0.039 0.117,-0.231 -0.231,-0.234 -0.387,-0.406 -0.465,-0.523 -0.152,-0.234 -0.25,-0.563 -0.289,-0.984 -0.039,-0.348 -0.059,-0.793 -0.059,-1.336 -0.039,-0.426 -0.152,-0.774 -0.347,-1.043 -0.774,-0.891 -1.2,-1.375 -1.278,-1.45 -0.851,-0.89 -1.582,-1.781 -2.203,-2.671 -0.543,-0.774 -0.582,-1.082 -0.117,-0.926 0.426,0.152 1.141,0.847 2.148,2.086 1.739,2.207 2.688,3.402 2.84,3.597 0.621,0.696 1.184,1.082 1.684,1.161 -0.774,-0.891 -1.586,-1.973 -2.434,-3.247 -1.551,-2.324 -2.726,-3.656 -3.539,-4.003 L 38.75,18.794 38.461,18.27 c -0.078,-0.308 0.269,-0.367 1.043,-0.171 1.008,0.23 1.781,0.48 2.32,0.753 0.621,0.387 1.102,0.926 1.449,1.622 l 1.684,2.785 C 44.453,20.786 43.953,19.356 43.449,18.966 43.141,18.657 42.887,18.427 42.695,18.27 42.387,18.04 41.766,17.77 40.84,17.458 l -2.902,-0.867 -0.172,-0.696 c 0.113,-0.39 0.773,-0.41 1.972,-0.062 1.739,0.582 2.668,0.891 2.782,0.93 0.464,0.195 0.792,0.484 0.988,0.871 l 0.519,0.871 0.059,-1.278 c -0.231,-0.89 -0.984,-1.453 -2.262,-1.683 -1.316,-0.27 -2.242,-0.52 -2.785,-0.754 -0.152,-0.039 -0.539,-0.27 -1.16,-0.695 -0.578,-0.426 -1.004,-0.676 -1.277,-0.754 l 0.757,-0.176 c 0.657,-0.074 1.371,-0.02 2.145,0.176 1.238,0.269 2.359,0.406 3.363,0.406 -1.625,-1.742 -3.246,-3.363 -4.871,-4.875 -3.289,-2.938 -4.988,-3.731 -5.105,-2.375 -0.039,2.781 -0.098,4.406 -0.176,4.871 -0.039,0.309 0.137,0.832 0.523,1.566 l 0.203,0.348 c -0.007,-0.183 0.121,-0.32 0.379,-0.406 0.461,-0.152 0.813,-0.172 1.043,-0.059 0.231,0.078 0.231,0.293 0,0.641 -0.273,0.348 -0.465,0.578 -0.582,0.695 -0.113,0.153 -0.191,0.367 -0.23,0.641 l -0.059,1.508 0.348,-0.813 c 0.273,-0.543 0.543,-0.816 0.812,-0.816 0.465,0 0.754,0.195 0.871,0.582 l -0.582,1.511 c -0.421,0.887 -0.461,1.872 -0.113,2.958 0.074,0.269 0.074,0.113 0,-0.465 -0.078,-0.813 -0.019,-1.16 0.172,-1.043 l 0.406,0.23 0.176,0.813 c 0.117,0.425 0.289,0.675 0.52,0.754 0.156,0.078 0.39,0.117 0.699,0.117 0.152,0.039 0.25,-0.02 0.289,-0.176 0.039,-0.078 0.078,0.039 0.117,0.348 l 0.172,0.871 c 0,0.117 0.019,0.234 0.059,0.347 0.078,0.274 0.25,0.407 0.523,0.407 h 0.695 c 0.153,0.195 0.172,0.504 0.055,0.929 l -0.172,0.578 c 0.117,0.079 0.117,0.368 0,0.872 l -0.059,0.464 -0.117,0.289 0.117,1.043 0.348,-1.043 c 0.234,-0.734 0.426,-1.14 0.582,-1.218 0.117,-0.039 0.215,-0.133 0.289,-0.289 l 0.059,0.175 0.058,1.161 c 0,0.308 -0.117,0.539 -0.347,0.695 -0.078,0.039 0.035,0.113 0.347,0.23 0.618,0.196 1.102,0.293 1.45,0.293 0.543,0 0.851,0.02 0.929,0.055 0.27,0.156 0.446,0.523 0.52,1.105 0.117,0.926 0.195,1.43 0.234,1.504 z"
   inkscape:connector-curvature="0" />
      <path
   id="path100"
   style="fill:#769e3f;fill-rule:evenodd"
   d="m 43.043,17.169 c -1.586,-0.695 -2.688,-1.141 -3.309,-1.332 -0.386,-0.117 -0.812,-0.446 -1.273,-0.985 -0.234,-0.273 -0.43,-0.523 -0.582,-0.753 h 0.582 c 0.578,-0.04 1.332,-0.157 2.262,-0.352 1.312,-0.231 0.461,-1.856 -2.555,-4.871 -2.859,-2.863 -4.234,-3.055 -4.117,-0.582 0.078,1.199 -0.039,2.301 -0.348,3.308 -0.348,0.93 -0.484,1.606 -0.406,2.032 l 0.609,2.379 c 0.074,-0.196 0.239,-0.446 0.492,-0.754 0.579,-0.7 1.004,-1.047 1.278,-1.047 -0.274,0.117 -0.465,0.656 -0.582,1.625 -0.078,0.621 -0.059,1.449 0.058,2.496 l 0.176,1.391 0.348,-1.567 c 0.269,-1.043 0.578,-1.566 0.926,-1.566 0.347,0 0.523,0.215 0.523,0.636 -0.078,0.657 -0.117,1.239 -0.117,1.743 l 0.117,3.886 c 0.348,-3.406 0.734,-4.507 1.16,-3.308 0.309,0.929 0.539,1.586 0.695,1.972 0.231,0.579 0.657,1.317 1.278,2.204 0.504,0.773 1.023,1.355 1.566,1.742 0.387,0.308 0.598,0.558 0.637,0.754 l 0.117,0.754 c 0.117,-0.504 -0.156,-1.2 -0.812,-2.09 l -1.711,-2.668 c 0.175,0.066 0.394,0.125 0.668,0.175 1.082,0.192 2.125,1.083 3.129,2.668 -0.54,-1.199 -1.18,-2.148 -1.914,-2.843 -1.122,-0.891 -1.836,-1.528 -2.145,-1.914 -0.426,-0.504 -0.719,-0.891 -0.871,-1.161 -0.192,-0.464 0.098,-0.675 0.871,-0.636 0.539,0.074 0.945,0.152 1.219,0.23 0.484,0.164 0.871,0.375 1.16,0.641 -0.836,-0.879 -1.629,-1.422 -2.379,-1.625 -0.582,-0.156 -0.988,-0.406 -1.219,-0.754 -0.195,-0.387 -0.097,-0.582 0.289,-0.582 0.578,0 1.371,0.117 2.379,0.351 z"
   inkscape:connector-curvature="0" />
      <path
   id="path102"
   style="fill:#7bb342;fill-rule:evenodd"
   d="m 41.012,28.251 c 0.039,0 0.078,-0.098 0.117,-0.289 0,-0.27 0.039,-0.504 0.113,-0.696 0.196,-0.351 0.543,-0.562 1.047,-0.64 h -0.93 c -0.425,0 -0.734,0.312 -0.929,0.93 -0.078,0.234 -0.211,0.367 -0.407,0.406 -0.113,0 -0.132,0.074 -0.054,0.23 0.113,0.157 0.269,0.215 0.461,0.176 z"
   inkscape:connector-curvature="0" />
      <path
   id="path104"
   style="fill:#7bb342;fill-rule:evenodd"
   d="m 39.328,27.556 c 0,-0.274 0.195,-1.18 0.582,-2.727 0.063,-0.566 0.149,-0.914 0.258,-1.047 -0.305,0.223 -0.566,0.492 -0.781,0.813 -0.157,0.234 -0.25,0.656 -0.289,1.277 l -0.059,0.871 c 0.039,0.231 0.078,0.445 0.117,0.637 0.074,0.386 0.133,0.445 0.172,0.176 z"
   inkscape:connector-curvature="0" />
      <path
   id="path106"
   style="fill:#7bb342;fill-rule:evenodd"
   d="m 38.285,24.188 c 0,-0.461 0.289,-1.062 0.871,-1.797 H 38.75 c -0.348,0 -0.719,0.25 -1.105,0.754 -0.075,0.153 0,0.5 0.234,1.043 0.269,0.504 0.406,0.504 0.406,0 z"
   inkscape:connector-curvature="0" />
      <path
   id="path108"
   style="fill:#7bb342;fill-rule:evenodd"
   d="m 45.535,30.048 c 0.852,0.504 1.067,-0.059 0.637,-1.68 -0.113,-0.465 -0.231,-0.719 -0.348,-0.758 -0.23,-0.074 -0.519,-0.23 -0.867,-0.465 L 43.68,25.989 c 0.191,0.656 0.328,1.352 0.406,2.086 0.078,0.774 0.559,1.434 1.449,1.973 z"
   inkscape:connector-curvature="0" />
      <path
   id="path110"
   style="fill:#7bb342;fill-rule:evenodd"
   d="m 42.809,24.536 c 0.695,0.621 0.949,0.641 0.753,0.059 -0.191,-0.618 -0.558,-1.141 -1.101,-1.567 -1.043,-0.926 -1.391,-1.121 -1.043,-0.578 0.113,0.156 0.23,0.426 0.348,0.813 0.191,0.386 0.543,0.812 1.043,1.273 z"
   inkscape:connector-curvature="0" />
      <path
   id="path112"
   style="fill:#7bb342;fill-rule:evenodd"
   d="m 43.391,22.622 1.332,2.207 c 0.504,0.848 1.14,1.641 1.914,2.379 l -0.172,-0.234 c -0.274,-0.93 -0.582,-1.758 -0.93,-2.497 -0.191,-0.5 -0.597,-1.179 -1.215,-2.031 -0.851,-1.582 -1.566,-2.57 -2.148,-2.957 -0.348,-0.23 -0.754,-0.308 -1.219,-0.23 l -0.519,0.172 1.449,1.218 c 0.191,0.196 0.695,0.852 1.508,1.973 z"
   inkscape:connector-curvature="0" />
      <path
   id="path114"
   style="fill:#7bb342;fill-rule:evenodd"
   d="m 44.375,21.638 c 0.426,0.539 0.637,0.675 0.637,0.406 0,-0.117 -0.055,-0.426 -0.172,-0.93 -0.078,-0.812 -0.617,-1.816 -1.625,-3.015 -0.461,-0.618 -0.848,-0.872 -1.16,-0.754 l -0.348,0.406 1.566,1.683 c 0.426,0.461 0.793,1.2 1.102,2.204 z"
   inkscape:connector-curvature="0" />
      <path
   id="path116"
   style="fill:#d2d6a7;fill-rule:evenodd"
   d="m 40.895,23.669 c -1.161,-2.012 -1.934,-3.774 -2.321,-5.281 -0.269,-1.239 -0.695,-3.055 -1.273,-5.454 -0.465,-1.933 -0.832,-3.171 -1.106,-3.71 -0.5,-0.891 -1.14,-1.395 -1.914,-1.512 -0.89,-0.153 -1.121,0.679 -0.695,2.496 0.734,0.348 1.508,1.508 2.32,3.48 0.735,2.09 1.528,4.043 2.379,5.86 0.539,1.16 1.41,2.609 2.61,4.351 0.41,0.629 0.796,1.2 1.16,1.711 -0.379,-0.566 -0.77,-1.215 -1.16,-1.941 z"
   inkscape:connector-curvature="0" />
      <path
   id="path118"
   style="fill:#dbddbb;fill-rule:evenodd"
   d="m 35.848,13.052 1.336,4.234 c 0.425,1.352 1.218,2.941 2.378,4.758 0.579,0.89 1.122,1.664 1.626,2.32 -0.196,-0.269 -0.426,-0.601 -0.7,-0.988 -0.539,-0.774 -0.965,-1.449 -1.277,-2.031 -0.734,-1.621 -1.352,-3.418 -1.852,-5.395 -0.621,-2.746 -1.125,-4.332 -1.511,-4.754 -0.27,-0.312 -0.387,-0.234 -0.348,0.231 0,0.464 0.117,1.007 0.348,1.625 z"
   inkscape:connector-curvature="0" />
      <path
   id="path120"
   style="fill:#5a873c;fill-rule:evenodd"
   d="m 15.719,17.286 c 0.386,0 0.773,-0.078 1.16,-0.23 0.269,-0.04 0.582,0.269 0.93,0.925 0.539,1.047 0.832,1.567 0.867,1.567 0.195,0.273 0.465,0.41 0.812,0.41 h 1.684 c 0.426,0.035 0.695,0.074 0.812,0.113 0.153,0.156 0.368,0.309 0.637,0.465 0.27,0.156 0.524,0.348 0.754,0.582 0.195,0.113 0.484,0.074 0.871,-0.117 0.309,-0.156 0.617,-0.367 0.93,-0.637 0.152,-0.117 0.308,-0.137 0.461,-0.058 0.195,0.039 0.367,0.058 0.523,0.058 0.152,0.035 0.387,0.289 0.695,0.754 0.27,0.656 0.446,1.063 0.524,1.215 0.078,0.234 0.461,0.348 1.16,0.348 0.578,0 0.906,0.136 0.984,0.406 0.039,0.078 0.27,-0.055 0.696,-0.406 0.386,-0.309 1.238,-0.754 2.551,-1.332 1.16,-0.504 1.859,-0.93 2.089,-1.278 0.157,-0.191 0.446,-0.308 0.871,-0.347 0.348,0 0.774,-0.407 1.278,-1.219 0.812,-1.391 1.254,-2.59 1.332,-3.594 0.039,-0.312 0.078,-0.754 0.117,-1.336 0,-0.465 -0.215,-0.734 -0.637,-0.812 -5.8,-1.739 -10.132,-2.399 -12.996,-1.973 -0.734,0.117 -3.211,0.156 -7.426,0.117 -2.863,-0.039 -4.39,0.367 -4.582,1.219 -0.234,0.926 0.059,1.949 0.872,3.074 0.582,0.77 1.257,1.469 2.031,2.086 z"
   inkscape:connector-curvature="0" />
      <path
   id="path122"
   style="fill:#4f7835;fill-rule:evenodd"
   d="m 29.816,20.477 c 0.079,-0.039 0.465,-0.445 1.161,-1.218 0.543,-0.543 1.062,-0.813 1.566,-0.813 0.117,0 0.598,0.059 1.449,0.176 0.426,0.074 0.813,0 1.16,-0.234 0.27,-0.231 0.657,-0.524 1.16,-0.872 0.426,-0.308 0.696,-0.597 0.813,-0.867 0.234,-0.425 0.484,-1.008 0.754,-1.742 -1.391,1.664 -2.379,2.57 -2.957,2.727 -0.352,0.078 -0.695,0.117 -1.047,0.117 -0.465,-0.039 -0.887,-0.059 -1.273,-0.059 -0.543,0 -0.872,0.02 -0.989,0.059 -0.152,0.039 -0.504,0.25 -1.043,0.637 -0.621,0.425 -0.968,0.656 -1.047,0.695 -0.191,0.039 -0.48,-0.016 -0.867,-0.172 -0.465,-0.195 -0.949,-0.504 -1.453,-0.93 -0.5,-0.425 -0.769,-0.734 -0.808,-0.925 -0.196,-0.813 0.171,-1.122 1.101,-0.93 0.426,0.078 0.926,0.269 1.508,0.578 0.465,0.156 0.926,0.062 1.391,-0.289 l 1.8,-1.332 c 0.539,-0.348 0.848,-0.543 0.926,-0.582 0.195,-0.074 0.484,-0.098 0.871,-0.059 0.578,0.039 1.219,-0.211 1.914,-0.75 -0.347,-0.156 -1.16,-0.078 -2.437,0.231 -0.617,0.152 -1.199,0.386 -1.739,0.695 -0.425,0.27 -0.832,0.426 -1.218,0.465 -1.2,0.426 -1.934,0.543 -2.203,0.348 -0.235,-0.157 -0.852,-0.309 -1.856,-0.465 l 1.156,-0.117 c 0.813,-0.114 1.434,-0.348 1.86,-0.696 0.039,-0.039 0.308,-0.328 0.812,-0.871 0.192,-0.191 0.5,-0.348 0.926,-0.461 0.734,-0.195 1.684,-0.289 2.844,-0.289 -0.735,-0.621 -1.43,-0.93 -2.09,-0.93 -5.066,0.504 -8.313,0.735 -9.742,0.696 -1.821,-0.231 -3.153,-0.387 -4.004,-0.465 -1.547,-0.192 -2.09,-0.039 -1.625,0.465 0.348,0.543 1.004,1.16 1.972,1.855 0.891,0.621 1.739,1.082 2.551,1.391 1.047,0.39 1.645,0.758 1.801,1.105 -0.039,0.617 0.152,1.2 0.578,1.739 0.27,0.347 0.676,0.636 1.219,0.871 0.269,0.117 0.519,0.211 0.754,0.289 L 24.883,18.97 c -0.422,-0.426 -0.637,-0.832 -0.637,-1.219 0,-0.309 -0.019,-0.504 -0.058,-0.582 l 0.582,0.293 c 1.082,0.347 1.738,0.773 1.972,1.273 0.153,0.504 0.27,0.871 0.348,1.106 0.152,0.425 0.426,0.636 0.812,0.636 0.192,0 0.559,0.059 1.102,0.172 0.269,0.039 0.539,-0.015 0.812,-0.172 z"
   inkscape:connector-curvature="0" />
      <path
   id="path124"
   style="fill:#52702f;fill-rule:evenodd"
   d="m 16.996,19.548 1.274,-0.926 -0.52,-1.047 c -0.348,-0.848 -0.562,-1.699 -0.641,-2.551 -0.113,-0.929 0.098,-1.742 0.641,-2.437 0.504,-0.578 1.062,-0.91 1.684,-0.985 0.578,-0.039 1.527,0.02 2.839,0.172 1.395,0.117 2.071,0.235 2.032,0.352 1.547,4.949 2.34,7.598 2.379,7.945 0,0.235 0.058,0.426 0.175,0.582 l 0.114,0.172 0.812,-2.086 c 0.582,-1.547 0.988,-2.726 1.219,-3.539 0.269,-1.121 -1.082,-2.398 -4.063,-3.828 -3.093,-1.469 -5.488,-1.742 -7.191,-0.813 -1.547,0.848 -2.125,2.61 -1.738,5.278 z"
   inkscape:connector-curvature="0" />
      <path
   id="path126"
   style="fill:#52702f;fill-rule:evenodd"
   d="m 31.324,27.962 1.449,0.519 0.582,-0.812 c 0.348,-0.461 0.54,-0.524 0.579,-0.172 0.039,0.426 0.601,0.676 1.683,0.754 1.047,0.074 1.703,-0.059 1.973,-0.406 0.308,-0.387 0.562,-0.832 0.754,-1.336 -0.465,-0.348 -0.891,-0.52 -1.278,-0.52 -0.617,0 -1.023,-0.234 -1.218,-0.699 l -1.274,-3.188 -0.176,0.055 -1.566,0.871 c -0.117,-0.191 -0.484,-0.558 -1.102,-1.101 -0.929,-0.774 -1.835,-1.161 -2.726,-1.161 -0.582,0 -0.891,0.118 -0.93,0.348 z"
   inkscape:connector-curvature="0" />
      <path
   id="path128"
   style="fill:#52702f;fill-rule:evenodd"
   d="m 16.531,20.852 c -0.695,0.372 -1.043,0.633 -1.043,0.786 l -0.64,4.523 0.754,1.855 c 1.742,-0.695 2.652,-1.082 2.726,-1.156 0.078,-0.078 0.137,-0.582 0.176,-1.511 0.039,-0.848 0.039,-1.352 0,-1.508 0,-0.075 -0.078,-0.364 -0.234,-0.867 -0.157,-0.504 -0.329,-0.754 -0.52,-0.754 -0.078,0 -0.328,0.191 -0.754,0.578 -0.312,0.269 -0.465,0.25 -0.465,-0.059 z"
   inkscape:connector-curvature="0" />
      <path
   id="path130"
   style="fill:#52702f;fill-rule:evenodd"
   d="m 24.07,21.579 0.059,-1.621 c 0.039,-0.699 0.215,-1.356 0.523,-1.977 l -1.39,-1.215 -1.567,4.813 -0.406,-1.332 c -0.234,-0.66 -0.484,-0.813 -0.754,-0.465 -0.273,0.348 -0.371,0.848 -0.293,1.508 0.156,0.734 0.719,1.625 1.684,2.668 1.121,1.16 2.031,1.644 2.726,1.449 0.735,-0.156 1.18,-0.598 1.336,-1.332 0.114,-0.699 -0.043,-1.355 -0.465,-1.973 -0.312,-0.503 -0.64,-0.738 -0.988,-0.699 z"
   inkscape:connector-curvature="0" />
      <path
   id="path132"
   style="fill:#52702f;fill-rule:evenodd"
   d="m 42.055,20.36 1.047,1.449 c 0.964,-3.015 1.14,-5.082 0.519,-6.207 -0.617,-1.082 -1.316,-1.566 -2.09,-1.449 l 0.352,6.496 z"
   inkscape:connector-curvature="0" />
      <path
   id="path134"
   style="fill:#d66e40;fill-rule:evenodd"
   d="m 15.949,31.384 c 0.543,0.89 1.047,1.468 1.512,1.738 0.269,0.117 0.461,0.156 0.578,0.117 l 1.914,-0.23 -0.176,-4.41 c -0.152,-2.36 -0.382,-4.102 -0.695,-5.223 -2.629,0.93 -4.234,1.742 -4.812,2.437 z"
   inkscape:connector-curvature="0" />
      <g
   id="g136">
        <g
   id="g138">
          <g
   id="g144">
            <path
   id="path152"
   style="fill:url(#linearGradient146);fill-rule:evenodd"
   d="m 20.012,33.009 c -0.231,-0.039 -0.52,-0.215 -0.871,-0.524 -0.774,-0.578 -1.528,-1.508 -2.262,-2.785 -1.004,-1.777 -1.527,-3.324 -1.567,-4.641 -0.23,-0.113 -0.578,0.137 -1.042,0.754 -0.27,0.426 -0.582,0.735 -0.93,0.93 l -0.465,0.172 c 0,1.238 0.332,2.668 0.988,4.293 0.426,1.047 1.199,2.031 2.321,2.961 0.578,0.465 1.101,0.832 1.566,1.101 l 0.695,-0.523 c 0.465,-0.348 0.989,-0.926 1.567,-1.738 z"
   inkscape:connector-curvature="0" />
          </g>
        </g>
      </g>
      <path
   id="path154"
   style="fill:#ad5630;fill-rule:evenodd"
   d="m 19.027,24.306 -1.105,2.902 c -0.5,1.582 -0.309,2.762 0.582,3.535 0.387,0.313 0.656,0.387 0.812,0.234 0.192,-0.156 0.27,-0.714 0.231,-1.683 -0.078,-1.391 -0.25,-3.055 -0.52,-4.988 z"
   inkscape:connector-curvature="0" />
      <path
   id="path156"
   style="fill:#ad5630;fill-rule:evenodd"
   d="m 18.852,24.075 c 0.117,-0.312 0.152,-0.523 0.117,-0.641 l -1.219,0.407 -2.145,1.047 c 0.075,0.656 0.211,1.195 0.407,1.621 0.152,0.386 0.347,0.679 0.578,0.871 0.308,0.23 0.562,0.23 0.754,0 0.347,-0.348 0.851,-1.449 1.508,-3.305 z"
   inkscape:connector-curvature="0" />
      <path
   id="path158"
   style="fill:#ab782a;fill-rule:evenodd"
   d="M 18.91,28.77 18.793,28.075 18.562,29.7 c 0.075,0.117 0.172,0.039 0.29,-0.23 0.078,-0.274 0.097,-0.504 0.058,-0.7 z"
   inkscape:connector-curvature="0" />
      <path
   id="path160"
   style="fill:#ab782a;fill-rule:evenodd"
   d="m 17.109,25.294 c -0.347,-0.039 -0.578,0.035 -0.695,0.23 -0.078,0.153 -0.059,0.289 0.059,0.407 0.078,0.039 0.215,-0.059 0.406,-0.29 0.078,-0.117 0.156,-0.234 0.23,-0.347 z"
   inkscape:connector-curvature="0" />
      <path
   id="path162"
   style="fill:#e0bb82;fill-rule:evenodd"
   d="m 18.852,29.177 c -0.079,-0.848 -0.118,-0.809 -0.118,0.117 -0.039,0.117 -0.019,0.176 0.059,0.176 0.078,0 0.098,-0.098 0.059,-0.293 z"
   inkscape:connector-curvature="0" />
      <g
   id="g164">
        <g
   id="g166">
          <g
   id="g172">
            <path
   id="path180"
   style="fill:url(#linearGradient174);fill-rule:evenodd"
   d="m 19.258,32.622 -0.582,-0.465 c -0.309,0.465 -0.578,0.852 -0.809,1.16 -0.66,0.657 -0.988,1.082 -0.988,1.278 0.039,0.23 0.234,0.23 0.582,0 0.348,-0.196 0.656,-0.465 0.926,-0.813 0.386,-0.312 0.675,-0.695 0.871,-1.16 z"
   inkscape:connector-curvature="0" />
          </g>
        </g>
      </g>
      <path
   id="path182"
   style="fill:#7a6227;fill-rule:evenodd"
   d="m 25.406,24.188 c 0.621,-0.773 0.719,-1.468 0.289,-2.086 -0.422,-0.308 -0.847,-0.523 -1.273,-0.636 l -1.277,-0.117 0.175,-0.872 c 0.153,-0.617 0.328,-1.043 0.52,-1.277 0.312,-0.348 0.465,-0.559 0.465,-0.637 l -1.043,-0.636 c -0.387,0.656 -0.774,1.332 -1.16,2.031 -0.774,1.43 -1.18,2.242 -1.219,2.433 -0.039,0.426 0.191,1.004 0.695,1.743 0.234,0.347 0.484,0.675 0.754,0.984 l 1.219,-0.059 c 0.89,-0.152 1.508,-0.445 1.855,-0.871 z"
   inkscape:connector-curvature="0" />
      <path
   id="path184"
   style="fill:#7a6227;fill-rule:evenodd"
   d="m 19.836,19.548 0.117,2.843 c 0.274,0.579 0.524,1.004 0.754,1.278 0.504,0.578 0.695,0.172 0.582,-1.219 -0.078,-1.394 -0.348,-2.301 -0.812,-2.726 -0.235,-0.196 -0.446,-0.254 -0.641,-0.176 z"
   inkscape:connector-curvature="0" />
      <path
   id="path186"
   style="fill:#ded8a0;fill-rule:evenodd"
   d="m 25.348,23.145 c 0.117,-0.539 -0.02,-0.964 -0.407,-1.277 -0.464,-0.387 -1.199,-0.539 -2.203,-0.461 l 0.117,-0.758 c 0.153,-0.539 0.309,-0.984 0.465,-1.332 l 0.461,-0.812 -1.043,-0.524 c -0.465,-0.269 -0.734,-0.465 -0.812,-0.578 l -0.289,1.508 -0.754,1.973 -0.524,-1.336 c -0.425,-0.696 -0.906,-0.676 -1.449,0.058 -0.504,0.813 -0.367,1.875 0.406,3.192 0.543,0.965 1.258,1.605 2.145,1.914 0.851,0.308 1.684,0.269 2.496,-0.117 0.773,-0.387 1.238,-0.868 1.391,-1.45 z"
   inkscape:connector-curvature="0" />
      <path
   id="path188"
   style="fill:#968f48;fill-rule:evenodd"
   d="m 22.738,21.407 c -0.078,0.152 -0.136,0.348 -0.176,0.578 -0.074,0.387 0,0.637 0.235,0.754 0.269,0.156 0.484,0.176 0.637,0.059 0.156,-0.078 0.156,-0.231 0,-0.465 -0.039,-0.074 -0.172,-0.192 -0.407,-0.348 -0.152,-0.078 -0.25,-0.269 -0.289,-0.578 z"
   inkscape:connector-curvature="0" />
      <path
   id="path190"
   style="fill:#968f48;fill-rule:evenodd"
   d="m 20.883,20.708 c -0.078,0.117 -0.215,0.137 -0.406,0.058 -0.27,-0.078 -0.465,-0.097 -0.582,-0.058 -0.192,0.039 -0.211,0.176 -0.059,0.406 0.117,0.27 0.293,0.406 0.523,0.406 0.309,0 0.485,-0.269 0.524,-0.812 z"
   inkscape:connector-curvature="0" />
      <path
   id="path192"
   style="fill:#7a6227;fill-rule:evenodd"
   d="m 30.859,28.657 3.075,1.219 c 2.824,-0.156 4.312,-0.371 4.468,-0.641 0.153,-0.269 0.172,-0.965 0.059,-2.09 -0.078,-0.269 -0.332,-0.441 -0.758,-0.519 -0.269,-0.039 -0.656,0 -1.16,0.117 l -0.695,0.231 -0.461,-1.739 c -0.235,-0.851 -0.621,-1.683 -1.16,-2.496 -0.157,0.195 -0.407,0.367 -0.754,0.524 -0.196,0.078 -0.426,0.097 -0.7,0.054 l -0.406,-0.054 -0.347,0.925 1.855,1.336 0.117,2.438 -0.695,-0.754 c -0.27,-0.313 -0.637,-0.43 -1.102,-0.352 l -0.64,0.235 z"
   inkscape:connector-curvature="0" />
      <path
   id="path194"
   style="fill:#ded8a0;fill-rule:evenodd"
   d="m 33.355,28.134 c -1.238,-0.618 -2.05,-0.539 -2.437,0.234 -0.273,0.617 -0.176,1.293 0.289,2.027 0.465,0.774 1.082,1.278 1.855,1.512 2.012,0.617 3.5,0.367 4.469,-0.758 0.578,-0.617 0.887,-1.312 0.926,-2.086 0.039,-0.695 -0.098,-1.16 -0.406,-1.394 -0.192,-0.153 -0.637,-0.153 -1.332,0 l -1.047,0.293 -1.508,-4.121 c -0.426,0.195 -0.852,0.293 -1.273,0.293 l -0.871,0.058 c 0.656,1.199 1.042,2.047 1.16,2.551 z"
   inkscape:connector-curvature="0" />
      <path
   id="path196"
   style="fill:#968f48;fill-rule:evenodd"
   d="m 33.355,28.368 c -0.312,0.578 -0.601,0.887 -0.871,0.926 -0.273,0 -0.312,0.176 -0.117,0.523 0.153,0.309 0.387,0.407 0.695,0.289 0.465,-0.191 0.563,-0.773 0.293,-1.738 z"
   inkscape:connector-curvature="0" />
      <path
   id="path198"
   style="fill:#968f48;fill-rule:evenodd"
   d="m 35.676,28.192 0.465,0.926 c 0.382,0.582 0.769,0.777 1.16,0.582 0.422,-0.195 0.539,-0.445 0.347,-0.754 -0.234,-0.308 -0.523,-0.465 -0.871,-0.465 -0.308,0.078 -0.504,0.118 -0.582,0.118 -0.113,0 -0.289,-0.137 -0.519,-0.407 z"
   inkscape:connector-curvature="0" />
      <path
   id="path200"
   style="fill:#7a6227;fill-rule:evenodd"
   d="m 14.387,28.427 0.984,-0.293 c 0.656,-0.27 0.871,-0.618 0.637,-1.043 -0.348,-0.696 -0.93,-1.008 -1.738,-0.93 l -0.059,-3.48 h -1.219 v 0.582 c 0.039,0.269 -0.039,0.793 -0.234,1.566 l -0.231,1.102 -0.582,-0.348 c -0.773,-0.387 -1.468,-0.465 -2.086,-0.234 -0.464,0.117 -0.773,0.464 -0.929,1.046 -0.153,0.696 0.097,1.411 0.754,2.145 1.043,1.121 2.496,1.703 4.351,1.738 l 0.231,-0.519 -0.114,-0.524 c -0.117,-0.347 -0.039,-0.617 0.235,-0.808 z"
   inkscape:connector-curvature="0" />
      <path
   id="path202"
   style="fill:#ded8a0;fill-rule:evenodd"
   d="m 10.848,29.063 c 0.964,0.774 2.047,1.18 3.246,1.215 1.121,0.039 1.914,-0.23 2.379,-0.808 0.386,-0.504 0.484,-1.047 0.293,-1.625 -0.196,-0.543 -0.524,-0.911 -0.989,-1.102 -0.308,-0.117 -0.597,-0.176 -0.871,-0.176 h -0.289 l 0.176,-2.09 0.465,-1.679 -1.625,-0.696 c -0.117,0.465 -0.215,1.082 -0.293,1.856 l -0.113,2.09 c -1.743,-0.891 -2.688,-0.949 -2.844,-0.176 -0.27,0.234 -0.445,0.562 -0.524,0.984 -0.191,0.778 0.137,1.512 0.989,2.207 z"
   inkscape:connector-curvature="0" />
      <path
   id="path204"
   style="fill:#968f48;fill-rule:evenodd"
   d="m 12.703,26.626 c -0.078,0.039 -0.273,-0.02 -0.582,-0.176 -0.269,-0.074 -0.426,-0.016 -0.461,0.176 -0.078,0.23 -0.019,0.426 0.172,0.582 0.195,0.113 0.465,0.152 0.813,0.113 0.464,-0.113 0.656,-0.539 0.582,-1.273 -0.039,0.308 -0.215,0.5 -0.524,0.578 z"
   inkscape:connector-curvature="0" />
      <path
   id="path206"
   style="fill:#968f48;fill-rule:evenodd"
   d="m 14.617,26.567 c -0.117,0.504 -0.019,0.91 0.289,1.219 0.235,0.23 0.426,0.348 0.582,0.348 0.153,0 0.211,-0.118 0.172,-0.348 -0.039,-0.152 -0.152,-0.27 -0.348,-0.348 -0.191,-0.078 -0.328,-0.172 -0.406,-0.289 z"
   inkscape:connector-curvature="0" />
      <path
   id="path208"
   style="fill:#d66e40;fill-rule:evenodd"
   d="m 11.891,17.462 c -0.426,0.965 -0.657,1.836 -0.696,2.609 l 0.059,0.93 0.637,2.84 2.726,-1.45 c 1.469,-0.773 2.512,-1.527 3.133,-2.261 l -1.047,-2.961 c -0.812,-2.008 -1.391,-3.227 -1.738,-3.653 z"
   inkscape:connector-curvature="0" />
      <g
   id="g210">
        <g
   id="g212">
          <g
   id="g218">
            <path
   id="path226"
   style="fill:url(#linearGradient220);fill-rule:evenodd"
   d="m 11.891,23.841 0.117,-1.45 c 0.152,-1.238 0.539,-2.554 1.16,-3.945 0.887,-2.012 1.738,-3.191 2.551,-3.539 l -0.117,-0.406 c -0.114,-0.309 -0.329,-0.637 -0.637,-0.985 -0.504,-0.542 -0.852,-1.14 -1.043,-1.8 -0.774,0.273 -1.586,1.121 -2.438,2.554 -0.543,0.891 -0.964,2.282 -1.277,4.176 l -0.289,2.61 0.465,0.871 c 0.23,0.386 0.543,0.812 0.926,1.277 z"
   inkscape:connector-curvature="0" />
          </g>
        </g>
      </g>
      <path
   id="path228"
   style="fill:#ad5630;fill-rule:evenodd"
   d="m 17.109,20.188 c -0.539,-0.273 -1.234,-0.562 -2.086,-0.871 -1.16,-0.386 -1.855,0.192 -2.089,1.739 -0.114,0.66 -0.094,1.085 0.058,1.277 0.156,0.234 0.524,0.195 1.102,-0.117 0.851,-0.422 1.855,-1.102 3.015,-2.028 z"
   inkscape:connector-curvature="0" />
      <path
   id="path230"
   style="fill:#ad5630;fill-rule:evenodd"
   d="m 17.633,19.954 -1.738,-4.758 c -0.387,0.313 -0.7,0.68 -0.93,1.106 -0.543,0.964 -0.602,1.699 -0.176,2.203 0.156,0.269 0.621,0.601 1.395,0.984 l 1.043,0.465 c 0.195,0.078 0.328,0.078 0.406,0 z"
   inkscape:connector-curvature="0" />
      <path
   id="path232"
   style="fill:#ab782a;fill-rule:evenodd"
   d="m 14.27,21.173 0.406,-0.348 c -0.656,-0.117 -1.008,-0.078 -1.047,0.117 -0.035,0.157 0.023,0.25 0.176,0.289 0.195,0.078 0.347,0.059 0.465,-0.058 z"
   inkscape:connector-curvature="0" />
      <path
   id="path234"
   style="fill:#ab782a;fill-rule:evenodd"
   d="m 16.008,17.634 c -0.074,-0.813 -0.25,-1.082 -0.52,-0.813 -0.039,0.117 0.039,0.293 0.231,0.524 z"
   inkscape:connector-curvature="0" />
      <path
   id="path236"
   style="fill:#e0bb82;fill-rule:evenodd"
   d="m 14.035,21.173 c 0.235,-0.117 0.195,-0.172 -0.113,-0.172 -0.117,0 -0.156,0.055 -0.117,0.172 0.039,0.078 0.117,0.078 0.23,0 z"
   inkscape:connector-curvature="0" />
      <g
   id="g238">
        <g
   id="g240">
          <g
   id="g246">
            <path
   id="path254"
   style="fill:url(#linearGradient248);fill-rule:evenodd"
   d="m 11.938,22.688 0.171,-1.047 c -0.386,-0.308 -0.695,-0.617 -0.929,-0.925 -0.114,-0.196 -0.309,-0.465 -0.578,-0.813 -0.196,-0.234 -0.348,-0.328 -0.465,-0.289 -0.153,0.074 -0.117,0.363 0.117,0.867 0.191,0.426 0.445,0.832 0.754,1.219 0.308,0.465 0.617,0.793 0.93,0.988 z"
   inkscape:connector-curvature="0" />
          </g>
        </g>
      </g>
      <path
   id="path256"
   style="fill:#bd502f;fill-rule:evenodd"
   d="m 31.613,25.989 1.449,-1.625 c 0,-0.426 -0.347,-0.871 -1.042,-1.336 -0.657,-0.5 -1.45,-0.984 -2.379,-1.449 l -1.102,-0.523 -0.637,-0.172 z"
   inkscape:connector-curvature="0" />
      <path
   id="path258"
   style="fill:#eb7855;fill-rule:evenodd"
   d="m 27.957,28.481 c 0.738,-0.152 1.395,-0.406 1.973,-0.754 0.851,-0.539 1.375,-1.312 1.566,-2.32 0.039,-0.348 -0.094,-1.141 -0.406,-2.379 l -0.926,-0.867 c -0.387,-0.312 -1.141,-0.734 -2.262,-1.277 -0.156,0.965 -0.386,1.855 -0.699,2.668 -0.23,0.543 -0.5,1.429 -0.808,2.668 l -0.407,1.683 0.696,0.637 c 0.23,0.078 0.656,0.059 1.273,-0.059 z"
   inkscape:connector-curvature="0" />
      <g
   id="g260">
        <g
   id="g262">
          <g
   id="g268">
            <path
   id="path276"
   style="fill:url(#linearGradient270);fill-rule:evenodd"
   d="m 27.902,30.454 0.985,-0.289 c 0.812,-0.387 1.605,-1.004 2.379,-1.856 0.617,-0.66 1.218,-1.972 1.796,-3.945 0.04,-0.234 -0.191,-0.523 -0.695,-0.871 -0.308,-0.23 -0.617,-0.367 -0.926,-0.406 l -0.351,-0.059 -0.637,1.684 c -0.387,0.929 -1.277,1.836 -2.668,2.726 -0.543,0.309 -1.008,0.485 -1.39,0.524 l -0.407,-0.059 c -0.043,0.078 0.074,0.387 0.348,0.93 0.461,0.926 0.984,1.469 1.566,1.621 z"
   inkscape:connector-curvature="0" />
          </g>
        </g>
      </g>
      <g
   id="g278">
        <g
   id="g280">
          <g
   id="g286">
            <path
   id="path294"
   style="fill:url(#linearGradient288);fill-rule:evenodd"
   d="m 26.898,28.575 c -0.234,0.27 -0.136,0.602 0.29,0.984 0.425,0.352 0.929,0.465 1.507,0.352 0.582,-0.117 1.043,-0.352 1.391,-0.699 0.352,-0.309 0.523,-0.637 0.523,-0.985 0,-0.386 -0.484,-0.582 -1.449,-0.582 -1.043,0 -1.797,0.313 -2.262,0.93 z"
   inkscape:connector-curvature="0" />
          </g>
        </g>
      </g>
      <path
   id="path296"
   style="fill:#ad5630;fill-rule:evenodd"
   d="m 26.449,26.974 c 0,0.308 0.235,0.328 0.696,0.058 0.425,-0.23 0.699,-0.543 0.812,-0.93 0.313,-1.16 0.387,-2.32 0.234,-3.48 -0.039,-0.539 -0.156,-1.043 -0.347,-1.508 0,0.774 -0.137,1.469 -0.406,2.09 -0.426,0.812 -0.735,1.836 -0.93,3.074 z"
   inkscape:connector-curvature="0" />
      <path
   id="path298"
   style="fill:#ad5630;fill-rule:evenodd"
   d="m 28.309,21.579 c -0.118,-0.152 0.23,0.891 1.043,3.133 0.156,0.234 0.367,0.176 0.64,-0.176 0.231,-0.348 0.328,-0.75 0.289,-1.215 -0.039,-0.387 -0.332,-0.734 -0.871,-1.043 z"
   inkscape:connector-curvature="0" />
      <path
   id="path300"
   style="fill:#c48a30;fill-rule:evenodd"
   d="m 27.32,24.829 c -0.078,0.152 -0.132,0.328 -0.175,0.52 -0.075,0.347 -0.055,0.582 0.058,0.699 0.235,0.23 0.352,0.074 0.352,-0.465 0,-0.156 -0.078,-0.406 -0.235,-0.754 z"
   inkscape:connector-curvature="0" />
      <path
   id="path302"
   style="fill:#c48a30;fill-rule:evenodd"
   d="m 29.062,22.856 c 0.04,0.231 0.098,0.446 0.172,0.637 0.118,0.387 0.254,0.504 0.407,0.348 0.234,-0.231 0.039,-0.559 -0.579,-0.985 z"
   inkscape:connector-curvature="0" />
      <path
   id="path304"
   style="fill:#e0bb82;fill-rule:evenodd"
   d="m 27.203,26.048 c 0.156,0.269 0.235,0.191 0.235,-0.235 0,-0.156 -0.059,-0.308 -0.176,-0.464 z"
   inkscape:connector-curvature="0" />
      <path
   id="path306"
   style="fill:#e0bb82;fill-rule:evenodd"
   d="m 29.41,23.727 c 0.192,-0.156 0.117,-0.351 -0.234,-0.582 0,0.118 0.019,0.231 0.058,0.348 0.039,0.234 0.098,0.309 0.176,0.234 z"
   inkscape:connector-curvature="0" />
      <path
   id="path308"
   style="fill:#bd502f;fill-rule:evenodd"
   d="m 26.219,12.763 0.347,8.293 0.348,-0.809 0.465,-1.742 c 0.23,-0.696 0.504,-1.973 0.812,-3.828 0.196,-1.161 0.176,-1.914 -0.058,-2.262 z"
   inkscape:connector-curvature="0" />
      <path
   id="path310"
   style="fill:#eb7855;fill-rule:evenodd"
   d="m 26.566,21.056 0.813,-3.594 0.176,-1.742 c -0.504,-1.352 -0.871,-2.125 -1.102,-2.321 -0.699,-0.656 -1.488,-0.695 -2.383,-0.117 -0.617,0.387 -1.195,0.93 -1.738,1.625 -0.504,0.617 -0.793,1.086 -0.871,1.395 l -0.172,1.273 c 0.387,0.27 0.813,0.563 1.273,0.871 0.93,0.656 1.606,1.082 2.032,1.278 0.695,0.308 1.355,0.753 1.972,1.332 z"
   inkscape:connector-curvature="0" />
      <g
   id="g312">
        <g
   id="g314">
          <g
   id="g320">
            <path
   id="path328"
   style="fill:url(#linearGradient322);fill-rule:evenodd"
   d="m 21.172,13.341 c -0.309,0.812 -0.348,1.855 -0.117,3.133 l 0.234,1.101 0.231,-0.519 c 0.308,-0.387 0.734,-0.754 1.277,-1.102 0.773,-0.465 1.371,-0.754 1.797,-0.871 0.543,-0.195 1.066,-0.176 1.566,0.058 0.699,0.348 1.16,0.54 1.395,0.579 l 0.23,-0.407 c 0.156,-0.386 0.27,-0.847 0.348,-1.39 0.117,-0.852 0.117,-1.356 0,-1.508 -1.508,-0.93 -2.668,-1.316 -3.481,-1.16 -1.004,0.152 -1.894,0.558 -2.668,1.219 z"
   inkscape:connector-curvature="0" />
          </g>
        </g>
      </g>
      <g
   id="g330">
        <g
   id="g332">
          <g
   id="g338">
            <path
   id="path346"
   style="fill:url(#linearGradient340);fill-rule:evenodd"
   d="m 21.645,16.048 c 0.621,-0.039 1.277,-0.637 1.972,-1.797 0.66,-1.086 0.891,-1.781 0.695,-2.09 -0.191,-0.27 -0.5,-0.348 -0.925,-0.23 -0.465,0.113 -0.91,0.46 -1.336,1.043 -0.465,0.542 -0.735,1.199 -0.813,1.972 -0.039,0.774 0.098,1.141 0.407,1.102 z"
   inkscape:connector-curvature="0" />
          </g>
        </g>
      </g>
      <path
   id="path348"
   style="fill:#ad5630;fill-rule:evenodd"
   d="m 24.941,19.782 c 0.543,0.152 1.028,0.539 1.454,1.16 l -0.583,-1.625 c -0.191,-0.386 -0.523,-0.851 -0.984,-1.39 -0.465,-0.543 -0.851,-0.911 -1.16,-1.106 -0.313,-0.191 -0.68,-0.137 -1.106,0.176 -0.46,0.309 -0.597,0.578 -0.402,0.812 0.152,0.153 0.289,0.309 0.402,0.465 0.157,0.153 0.465,0.403 0.93,0.75 0.578,0.391 1.063,0.641 1.449,0.758 z"
   inkscape:connector-curvature="0" />
      <path
   id="path350"
   style="fill:#ad5630;fill-rule:evenodd"
   d="m 26.449,20.071 c 0,-0.039 0.117,-0.617 0.348,-1.738 0.195,-0.891 0.195,-1.527 0,-1.918 -0.192,-0.422 -0.481,-0.637 -0.867,-0.637 -0.387,0.039 -0.563,0.231 -0.524,0.582 0.696,2.707 1.043,3.942 1.043,3.711 z"
   inkscape:connector-curvature="0" />
      <path
   id="path352"
   style="fill:#c48a30;fill-rule:evenodd"
   d="m 23.957,18.563 -0.234,-0.929 c -0.309,-0.309 -0.481,-0.289 -0.52,0.058 0,0.235 0.133,0.446 0.406,0.637 z"
   inkscape:connector-curvature="0" />
      <path
   id="path354"
   style="fill:#c48a30;fill-rule:evenodd"
   d="m 26.219,18.157 c 0.191,-1.008 0.136,-1.488 -0.176,-1.453 -0.191,0.043 -0.211,0.293 -0.055,0.758 z"
   inkscape:connector-curvature="0" />
      <path
   id="path356"
   style="fill:#e0bb82;fill-rule:evenodd"
   d="m 23.203,17.692 0.465,0.465 -0.176,-0.465 c -0.23,-0.386 -0.328,-0.386 -0.289,0 z"
   inkscape:connector-curvature="0" />
      <path
   id="path358"
   style="fill:#e0bb82;fill-rule:evenodd"
   d="m 26.043,17.056 c -0.074,0.039 -0.074,0.171 0,0.406 l 0.117,0.347 c 0.117,-0.543 0.078,-0.793 -0.117,-0.753 z"
   inkscape:connector-curvature="0" />
      <path
   id="path360"
   style="fill:#d66e40;fill-rule:evenodd"
   d="m 41.129,21.696 0.348,-0.812 c 0.23,-0.813 0.289,-1.856 0.171,-3.133 l -1.621,-6.149 c -0.465,0.153 -1.394,0.926 -2.785,2.321 l -1.914,2.086 c 0.309,1.199 1.024,2.726 2.145,4.586 l 2.148,3.421 z"
   inkscape:connector-curvature="0" />
      <g
   id="g362">
        <g
   id="g364">
          <g
   id="g370">
            <path
   id="path378"
   style="fill:url(#linearGradient372);fill-rule:evenodd"
   d="m 41.594,10.614 c -0.352,0.504 -0.871,0.832 -1.571,0.988 -0.421,0.075 -0.734,0.231 -0.925,0.461 l -0.235,0.352 c 0.699,0.965 1.125,2.746 1.278,5.336 0.117,1.816 0.058,3.402 -0.172,4.758 l -0.407,1.507 0.75,-0.175 c 0.543,-0.157 0.969,-0.348 1.282,-0.578 l 0.808,-0.524 0.524,-2.781 c 0.347,-2.09 0.406,-3.754 0.176,-4.992 -0.348,-2.051 -0.852,-3.5 -1.508,-4.352 z"
   inkscape:connector-curvature="0" />
          </g>
        </g>
      </g>
      <path
   id="path380"
   style="fill:#ad5630;fill-rule:evenodd"
   d="m 35.848,16.532 c 0.773,1.781 1.488,3.192 2.148,4.234 0.504,0.735 0.871,1.047 1.102,0.93 0.195,-0.078 0.328,-0.484 0.406,-1.219 0.308,-1.664 -0.156,-2.726 -1.391,-3.191 z"
   inkscape:connector-curvature="0" />
      <path
   id="path382"
   style="fill:#ad5630;fill-rule:evenodd"
   d="m 35.441,15.954 0.407,0.289 1.16,0.289 c 0.812,0.192 1.355,0.234 1.625,0.117 0.543,-0.191 0.715,-0.968 0.523,-2.32 -0.078,-0.582 -0.254,-1.16 -0.523,-1.742 z"
   inkscape:connector-curvature="0" />
      <path
   id="path384"
   style="fill:#ab782a;fill-rule:evenodd"
   d="m 38.227,19.606 c 0.078,0.196 0.214,0.332 0.406,0.407 0.191,0.078 0.289,0.039 0.289,-0.118 0,-0.23 -0.328,-0.539 -0.984,-0.925 z"
   inkscape:connector-curvature="0" />
      <path
   id="path386"
   style="fill:#ab782a;fill-rule:evenodd"
   d="m 37.703,14.849 0.406,-0.055 c 0.235,-0.078 0.368,-0.176 0.411,-0.293 0.035,-0.231 -0.02,-0.348 -0.176,-0.348 -0.196,-0.039 -0.406,0.196 -0.641,0.696 z"
   inkscape:connector-curvature="0" />
      <path
   id="path388"
   style="fill:#e0bb82;fill-rule:evenodd"
   d="m 38.461,19.837 c 0.074,0.156 0.152,0.195 0.23,0.117 0.039,-0.078 0.02,-0.152 -0.058,-0.23 -0.117,-0.118 -0.192,-0.176 -0.231,-0.176 -0.078,-0.039 -0.058,0.058 0.059,0.289 z"
   inkscape:connector-curvature="0" />
      <g
   id="g390">
        <g
   id="g392">
          <g
   id="g398">
            <path
   id="path406"
   style="fill:url(#linearGradient400);fill-rule:evenodd"
   d="m 39.922,22.888 c 0.383,0.039 0.789,-0.059 1.215,-0.289 0.386,-0.118 0.754,-0.329 1.105,-0.641 0.348,-0.309 0.481,-0.539 0.406,-0.695 -0.078,-0.153 -0.273,-0.196 -0.582,-0.118 -0.308,0.157 -0.558,0.274 -0.754,0.348 -0.347,0.117 -0.734,0.195 -1.16,0.234 -0.078,0.153 -0.136,0.387 -0.175,0.696 z"
   inkscape:connector-curvature="0" />
          </g>
        </g>
      </g>
      <path
   id="path408"
   style="fill:#7bb342;fill-rule:evenodd"
   d="m 13.109,12.587 c -0.039,0.234 0.098,0.754 0.407,1.566 0.117,0.274 0.347,0.524 0.695,0.754 0.348,0.234 0.562,0.406 0.637,0.524 0.078,0.113 0.214,0.503 0.406,1.16 0.195,0.656 0.367,1.082 0.523,1.273 0.192,0.195 0.407,0.274 0.637,0.235 0.117,-0.04 0.313,-0.098 0.582,-0.172 0.231,0 0.426,-0.098 0.578,-0.293 0.156,-0.192 0.446,-0.657 0.871,-1.391 0.309,-0.617 0.543,-0.891 0.696,-0.812 0.504,0.23 0.773,0.347 0.812,0.347 0.543,0 1.067,-0.25 1.567,-0.754 0.464,-0.543 0.445,-0.929 -0.059,-1.16 -1.43,-0.734 -2.297,-1.16 -2.609,-1.277 -1.661,-0.696 -3.114,-1.043 -4.352,-1.043 -1.199,0 -1.777,0.117 -1.738,0.347 0.269,0.274 0.386,0.504 0.347,0.696 z"
   inkscape:connector-curvature="0" />
      <path
   id="path410"
   style="fill:#7bb342;fill-rule:evenodd"
   d="m 30.047,17.575 c 0.426,0.195 0.715,0.426 0.871,0.699 0.27,0.461 0.465,0.731 0.582,0.809 0.152,0.156 0.387,0.234 0.695,0.234 0.848,0 1.45,-0.136 1.797,-0.406 0.078,-0.039 0.215,-0.293 0.406,-0.754 0.157,-0.348 0.329,-0.523 0.524,-0.523 0.152,0 0.387,0.136 0.695,0.406 0.309,0.309 0.559,0.465 0.754,0.465 0.387,0 0.793,-0.192 1.219,-0.578 -0.195,-0.27 -0.387,-0.602 -0.582,-0.989 -0.387,-0.734 -0.637,-1.39 -0.754,-1.972 -0.039,-0.27 0.058,-0.789 0.289,-1.567 0.156,-0.461 -0.039,-0.847 -0.578,-1.16 -0.774,-0.5 -2.653,-0.617 -5.629,-0.348 -3.055,0.313 -4.582,0.891 -4.582,1.743 0,0.773 0.211,1.101 0.637,0.984 0.543,-0.191 0.929,-0.094 1.16,0.289 0.078,0.156 0.273,0.563 0.582,1.219 0.117,0.269 0.347,0.543 0.695,0.812 0.195,0.118 0.602,0.328 1.219,0.637 z"
   inkscape:connector-curvature="0" />
      <path
   id="path412"
   style="fill:#7a6227;fill-rule:evenodd"
   d="m 7.133,17.345 c -0.153,0 -0.231,0.171 -0.231,0.519 l 0.059,0.871 0.812,0.235 c 0.618,0.156 1.215,0.171 1.797,0.058 0.852,-0.195 1.664,-0.562 2.438,-1.101 0.965,-0.7 1.586,-1.493 1.855,-2.379 0.27,-0.891 0.348,-1.547 0.231,-1.973 -0.074,-0.269 -0.309,-0.562 -0.696,-0.871 -0.425,-0.309 -1.312,-0.289 -2.668,0.059 l -0.519,-1.45 C 9.359,11.235 8.777,11.602 8.469,12.415 8.238,12.954 7.945,13.942 7.598,15.372 Z"
   inkscape:connector-curvature="0" />
      <path
   id="path414"
   style="fill:#ded8a0;fill-rule:evenodd"
   d="m 6.613,15.2 c -0.851,1.313 -0.89,2.356 -0.117,3.133 0.813,0.887 2.32,0.617 4.524,-0.817 1.007,-0.695 1.683,-1.601 2.031,-2.722 0.308,-1.121 0.039,-1.664 -0.813,-1.625 -0.734,0.039 -1.41,0.117 -2.031,0.23 L 9.512,13.575 9.281,13.286 C 9.125,13.013 9.047,12.763 9.047,12.532 9.086,12.181 8.988,11.837 8.758,11.485 8.062,11.641 7.559,11.891 7.25,12.239 l -0.465,0.465 0.289,1.797 z"
   inkscape:connector-curvature="0" />
      <path
   id="path416"
   style="fill:#968f48;fill-rule:evenodd"
   d="m 8.699,13.806 c 0,0.117 -0.23,0.289 -0.695,0.523 -0.543,0.23 -0.852,0.465 -0.93,0.695 -0.078,0.387 -0.019,0.676 0.176,0.871 0.23,0.231 0.5,0.211 0.812,-0.058 0.465,-0.426 0.676,-1.102 0.637,-2.031 z"
   inkscape:connector-curvature="0" />
      <path
   id="path418"
   style="fill:#968f48;fill-rule:evenodd"
   d="m 9.512,13.575 c 0.273,0.27 0.582,0.504 0.929,0.695 0.657,0.387 1.121,0.407 1.391,0.059 0.234,-0.273 0,-0.426 -0.695,-0.465 -0.879,0 -1.422,-0.098 -1.625,-0.289 z"
   inkscape:connector-curvature="0" />
      <path
   id="path420"
   style="fill:#7a6227;fill-rule:evenodd"
   d="m 36.66,16.302 c -2.707,-2.629 -4.117,-3.946 -4.234,-3.946 -2.125,0 -3.364,0.328 -3.715,0.985 -0.27,0.465 -0.289,1.062 -0.055,1.8 0.192,0.696 0.52,1.196 0.985,1.508 1.004,0.657 2.222,0.965 3.656,0.926 1.543,-0.074 2.57,-0.328 3.074,-0.754 0.191,-0.152 0.289,-0.269 0.289,-0.347 z"
   inkscape:connector-curvature="0" />
      <path
   id="path422"
   style="fill:#ded8a0;fill-rule:evenodd"
   d="m 29.641,13.458 c -0.118,0.348 -0.153,0.754 -0.118,1.219 0.079,0.886 0.504,1.547 1.278,1.972 0.89,0.5 2.051,0.735 3.48,0.696 1.395,-0.079 2.262,-0.368 2.614,-0.871 0.386,-0.54 0.519,-1.083 0.406,-1.625 -0.078,-0.618 -0.406,-1.043 -0.989,-1.274 l -1.914,-0.406 -0.117,-1.278 -1.972,-0.175 -0.055,1.101 c -1.586,-0.035 -2.457,0.176 -2.613,0.641 z"
   inkscape:connector-curvature="0" />
      <path
   id="path424"
   style="fill:#968f48;fill-rule:evenodd"
   d="m 33.527,12.704 c -0.269,-0.117 -0.812,-0.098 -1.625,0.059 -0.617,0.074 -0.812,0.367 -0.578,0.871 0.192,0.5 0.52,0.715 0.985,0.636 0.543,-0.078 0.949,-0.601 1.218,-1.566 z"
   inkscape:connector-curvature="0" />
      <path
   id="path426"
   style="fill:#968f48;fill-rule:evenodd"
   d="m 34.398,12.821 c -0.156,-0.156 -0.058,0.133 0.29,0.871 0.273,0.657 0.582,1.004 0.929,1.043 0.383,0.039 0.52,-0.117 0.406,-0.465 -0.078,-0.308 -0.234,-0.543 -0.464,-0.695 -0.696,-0.387 -1.082,-0.641 -1.161,-0.754 z"
   inkscape:connector-curvature="0" />
      <g
   id="g428">
        <g
   id="g430">
          <g
   id="g436">
            <path
   id="path444"
   style="fill:url(#linearGradient438);fill-rule:evenodd"
   d="m 45.305,16.415 h 0.636 C 45.168,11.735 42.773,7.833 38.75,4.7 34.652,1.567 29.875,0.001 24.422,0.001 18.969,0.001 14.211,1.567 10.152,4.7 6.09,7.833 3.691,11.735 2.957,16.415 h 0.637 c 1.703,-1.66 4.41,-2.996 8.125,-4 3.828,-1.047 8.082,-1.566 12.761,-1.566 4.641,0 8.875,0.519 12.704,1.566 3.75,1.004 6.457,2.34 8.121,4 z"
   inkscape:connector-curvature="0" />
          </g>
        </g>
      </g>
      <path
   id="path446"
   style="fill:#ffffff;fill-rule:evenodd"
   d="m 44.898,17.227 h 0.926 l 0.059,-0.578 c 0,-1.742 -2.086,-3.23 -6.262,-4.468 -4.219,-1.235 -9.285,-1.856 -15.199,-1.856 -5.957,0 -11.024,0.621 -15.199,1.856 -4.215,1.238 -6.325,2.726 -6.325,4.468 l 0.118,0.578 h 1.16 L 4.117,17.056 c 0,-1.395 1.992,-2.59 5.977,-3.598 4.019,-1.004 8.836,-1.508 14.445,-1.508 5.606,0 10.402,0.504 14.383,1.508 3.984,1.008 5.976,2.203 5.976,3.598 z"
   inkscape:connector-curvature="0" />
      <path
   id="path448"
   style="fill:#7c9fa3;fill-rule:evenodd"
   d="M 3.711,15.544 C 4.523,15.817 5.395,15.681 6.32,15.141 6.785,14.868 7.172,14.579 7.48,14.27 7.367,14.27 7.211,14.251 7.02,14.212 6.555,14.095 6.051,13.825 5.508,13.399 4.621,12.743 4.328,11.95 4.641,11.02 l -0.696,1.567 c -0.234,1.047 -0.312,2.031 -0.234,2.957 z"
   inkscape:connector-curvature="0" />
      <path
   id="path450"
   style="fill:#7c9fa3;fill-rule:evenodd"
   d="m 12.355,8.876 c 0.153,0.926 0.368,1.605 0.637,2.027 0.578,0.699 2.512,1.238 5.801,1.625 2.32,0.309 4.312,0.465 5.977,0.465 1.16,0 3.265,-0.23 6.32,-0.695 -0.426,0 -0.985,-0.407 -1.68,-1.219 C 29.176,10.77 28.613,10.286 27.727,9.63 27.34,9.317 26.953,9.224 26.566,9.341 25.906,9.532 25.559,9.63 25.52,9.63 25.094,9.63 24.824,9.532 24.707,9.341 24.594,9.145 24.379,8.544 24.07,7.54 23.84,6.766 23.527,6.399 23.141,6.438 L 22.328,6.556 C 22.254,6.438 22.02,6.516 21.633,6.786 21.129,7.134 20.723,7.29 20.414,7.251 19.68,7.134 19.004,7.27 18.387,7.657 17.922,7.888 17.32,7.946 16.586,7.833 15.812,7.677 15.098,7.384 14.441,6.962 13.781,6.458 13.32,6.208 13.047,6.208 c -0.27,0 -0.52,0.269 -0.754,0.812 -0.113,0.309 -0.094,0.926 0.062,1.856 z"
   inkscape:connector-curvature="0" />
      <path
   id="path452"
   style="fill:#7c9fa3;fill-rule:evenodd"
   d="m 41.531,12.587 c 1.086,0.195 2.188,0.328 3.309,0.406 L 43.621,10.907 C 42.828,9.544 41.938,8.345 40.953,7.309 c 0.192,0.211 0.445,0.563 0.754,1.047 0.234,0.348 0.367,0.809 0.406,1.391 0.039,0.539 -0.039,0.867 -0.23,0.984 -0.813,0.039 -1.336,0.153 -1.567,0.348 -0.543,0.543 -1.023,0.988 -1.453,1.336 -0.269,0.191 -0.847,0.348 -1.738,0.465 l -1.277,0.172 2.148,0.347 c 0.539,0 1.16,-0.152 1.856,-0.461 0.617,-0.312 1.179,-0.429 1.679,-0.351 z"
   inkscape:connector-curvature="0" />
      <path
   id="path454"
   style="fill:#8abd4d;fill-rule:evenodd"
   d="M 16.996,8.934 C 15.562,8.739 14.344,8.294 13.34,7.599 12.414,6.981 11.504,7.059 10.613,7.833 10.188,8.181 9.668,8.856 9.047,9.86 c -0.231,0.348 -0.113,0.582 0.348,0.699 0.777,0.192 1.257,0.368 1.453,0.52 0.347,0.27 0.906,0.871 1.679,1.797 0.274,0.312 0.735,0.543 1.395,0.699 0.308,0.074 0.695,0.172 1.16,0.289 0.27,0.078 1.219,0.039 2.84,-0.117 0.465,0 0.871,0.078 1.219,0.23 0.234,0.118 0.601,0.329 1.101,0.641 0.465,0.231 2.477,0.098 6.035,-0.406 2.395,-0.348 4.196,-1.008 5.395,-1.973 -0.695,0 -1.258,-0.078 -1.684,-0.234 C 29.91,11.97 29.562,11.677 28.945,11.138 28.402,10.673 27.84,10.423 27.262,10.384 26.68,10.345 26.238,10.149 25.926,9.802 25.734,9.61 25.465,9.243 25.113,8.7 24.844,8.352 24.555,8.138 24.246,8.063 c -0.426,0 -0.812,-0.019 -1.16,-0.058 -0.387,-0.078 -0.813,0 -1.277,0.23 C 21.344,8.47 21.016,8.563 20.82,8.524 20.473,8.411 20.242,8.372 20.125,8.411 20.047,8.446 19.816,8.583 19.43,8.813 19.043,9.048 18.234,9.087 16.996,8.934 Z"
   inkscape:connector-curvature="0" />
      <path
   id="path456"
   style="fill:#8abd4d;fill-rule:evenodd"
   d="m 42.172,14.907 c 0.348,0.426 0.754,0.656 1.219,0.695 0.23,0 0.558,-0.015 0.984,-0.058 0.387,0.043 0.813,0 1.277,-0.113 0.309,0 1.043,0.406 2.203,1.214 0.387,0.274 0.68,0.352 0.872,0.235 0.23,-0.078 0.308,-0.289 0.23,-0.637 0,-0.234 -0.191,-0.41 -0.578,-0.523 -0.465,-0.118 -0.813,-0.387 -1.047,-0.813 -0.23,-0.426 -0.52,-1.199 -0.867,-2.32 -0.274,-0.926 -0.485,-1.449 -0.641,-1.567 -0.152,-0.152 -0.426,-0.097 -0.812,0.176 -0.5,0.387 -0.91,0.695 -1.219,0.926 -0.348,0.312 -0.828,0.328 -1.449,0.059 -0.617,-0.348 -1.043,-0.563 -1.278,-0.637 -0.269,-0.117 -0.558,-0.078 -0.867,0.117 -0.156,0.074 -0.543,0.367 -1.16,0.867 -0.348,0.274 -1.027,0.406 -2.031,0.406 l -1.395,-0.117 c 0.235,0.078 0.793,0.254 1.684,0.524 0.617,0.234 1.105,0.367 1.453,0.406 1.121,0.156 1.699,0.23 1.738,0.23 0.735,0.196 1.297,0.504 1.684,0.93 z"
   inkscape:connector-curvature="0" />
      <path
   id="path458"
   style="fill:#8abd4d;fill-rule:evenodd"
   d="M 7.887,14.212 C 7.539,14.134 7.27,14.153 7.074,14.27 6.922,14.427 6.535,14.403 5.914,14.212 5.258,14.056 4.832,13.786 4.641,13.399 4.406,12.974 4.293,12.063 4.293,10.673 c 0,-0.231 -0.137,-0.25 -0.406,-0.059 -0.465,0.352 -0.774,0.563 -0.93,0.641 -0.773,0.386 -1.297,1.199 -1.566,2.437 -0.153,0.735 -0.559,1.371 -1.215,1.914 -0.235,0.231 -0.235,0.852 0,1.856 0.074,0.308 0.269,0.597 0.578,0.871 0.348,0.308 0.773,0.465 1.277,0.465 h 1.797 c 0.426,0 0.734,-0.063 0.93,-0.176 0.191,-0.117 0.578,-0.426 1.16,-0.93 0.77,-0.695 1.43,-1.855 1.969,-3.48 z"
   inkscape:connector-curvature="0" />
      <path
   id="path460"
   style="fill:#719b3f;fill-rule:evenodd"
   d="m 5.625,16.302 c 0.18,0.035 0.344,0.035 0.496,0 l -0.437,0.113 c -0.231,0.082 -0.754,0.117 -1.567,0.117 -0.387,0 -0.617,-0.715 -0.695,-2.144 -0.078,-0.969 -0.078,-1.84 0,-2.614 -0.27,0.739 -0.406,1.473 -0.406,2.207 l 0.347,2.434 C 3.285,16.415 3.172,16.38 3.016,16.302 2.746,16.184 2.512,15.993 2.32,15.72 L 1.449,14.442 c 0.156,0.699 0.348,1.258 0.578,1.684 0.157,0.269 0.368,0.504 0.641,0.695 l 0.348,0.235 c -0.348,0.269 -0.774,0.406 -1.278,0.406 l -1.101,-0.117 0.582,0.289 c 0.465,0.156 0.867,0.195 1.219,0.117 0.578,-0.117 0.886,-0.215 0.925,-0.289 l 0.465,0.289 H 3.652 L 2.84,18.388 3.188,18.216 c 0.234,-0.078 0.464,-0.117 0.699,-0.117 0.347,0 0.636,-0.235 0.867,-0.696 h 0.465 c 0.543,0 1.121,-0.347 1.742,-1.047 0.426,-0.422 0.617,-0.847 0.578,-1.273 L 7.309,15.431 6.844,15.72 H 6.266 c -0.387,0 -0.871,-0.176 -1.454,-0.524 -0.347,-0.23 -0.578,-0.597 -0.695,-1.101 -0.078,-0.27 -0.113,-0.5 -0.113,-0.696 -0.039,0.813 0.152,1.528 0.578,2.145 0.309,0.426 0.656,0.68 1.043,0.758 z"
   inkscape:connector-curvature="0" />
      <path
   id="path462"
   style="fill:#719b3f;fill-rule:evenodd"
   d="m 13.922,11.716 c -0.969,-1.121 -1.723,-1.68 -2.262,-1.68 h -0.699 c 0.93,0.27 1.566,0.754 1.914,1.449 0.426,0.852 1.469,1.278 3.133,1.278 0.387,0 1.121,-0.098 2.203,-0.289 0.851,-0.157 1.355,-0.176 1.512,-0.059 0.925,0.617 1.41,0.926 1.449,0.926 0.152,0 0.387,0.136 0.695,0.406 l -2.726,-0.289 c 0.117,0.117 0.269,0.234 0.464,0.348 0.348,0.234 0.735,0.351 1.161,0.351 1.004,0 1.664,0.094 1.972,0.289 0.153,0.117 0.446,0.192 0.867,0.231 h 0.583 l 1.683,-0.407 c -0.195,-0.039 -0.406,-0.078 -0.641,-0.113 -0.5,-0.082 -0.828,-0.176 -0.984,-0.293 -0.117,-0.078 0.137,-0.23 0.754,-0.465 0.695,-0.23 1.102,-0.445 1.219,-0.636 0.23,-0.348 0.386,-0.95 0.461,-1.797 -0.192,0.425 -0.461,0.793 -0.809,1.101 -0.273,0.27 -0.738,0.52 -1.394,0.754 -0.309,0.078 -0.657,0.25 -1.043,0.52 l -0.524,0.406 -1.797,-1.508 1.449,-0.754 c 0.348,-0.269 0.676,-0.695 0.985,-1.277 0.234,-0.348 0.484,-0.559 0.758,-0.637 -0.465,0 -0.91,0.215 -1.336,0.637 -0.774,0.851 -1.43,1.277 -1.973,1.277 h -0.754 l -0.406,-0.172 c -0.309,-0.195 -0.578,-0.406 -0.813,-0.64 -0.347,-0.426 -0.773,-0.676 -1.277,-0.754 0.352,0.504 0.68,0.89 0.988,1.16 l 0.696,0.523 c -0.813,0.079 -1.547,0.118 -2.203,0.118 -0.696,0.152 -1.258,0.269 -1.684,0.347 -0.734,0.114 -1.273,0 -1.621,-0.351 z"
   inkscape:connector-curvature="0" />
      <path
   id="path464"
   style="fill:#719b3f;fill-rule:evenodd"
   d="m 41.301,13.399 c -0.039,0.078 -0.25,0.176 -0.637,0.293 l -0.582,0.172 0.93,0.289 h 0.695 c 0.309,0 0.965,0.156 1.973,0.465 L 46,14.677 c 0.297,0.019 0.637,0.148 1.016,0.375 -0.434,-0.438 -0.715,-0.739 -0.844,-0.899 -0.152,-0.23 -0.367,-0.347 -0.637,-0.347 l -0.347,0.117 0.117,-0.465 0.406,-1.102 c -0.313,0.192 -0.563,0.481 -0.754,0.868 -0.234,0.503 -0.719,0.753 -1.453,0.753 -0.27,0 -0.559,-0.113 -0.871,-0.347 l -0.348,-0.289 0.582,-0.117 c 0.387,-0.04 0.695,-0.192 0.926,-0.461 l -0.289,0.113 c -0.113,0.078 -0.328,0.098 -0.637,0.058 -0.582,-0.039 -0.91,-0.058 -0.984,-0.058 -0.274,0 -0.445,0.078 -0.524,0.234 z"
   inkscape:connector-curvature="0" />
    </g>
  </g>
<metadata
   id="metadata207"><rdf:RDF><cc:Work><dc:format>image/svg+xml</dc:format><dc:type
         rdf:resource="http://purl.org/dc/dcmitype/StillImage" /><cc:license
         rdf:resource="http://creativecommons.org/publicdomain/zero/1.0/" /><dc:publisher><cc:Agent
           rdf:about="http://openclipart.org/"><dc:title>OpenGameArt.org</dc:title></cc:Agent></dc:publisher><dc:title>Salad</dc:title><dc:creator><cc:Agent><dc:title>glitch</dc:title></cc:Agent></dc:creator><dc:source>https://opengameart.org/node/20149</dc:source></cc:Work><cc:License
       rdf:about="http://creativecommons.org/publicdomain/zero/1.0/"><cc:permits
         rdf:resource="http://creativecommons.org/ns#Reproduction" /><cc:permits
         rdf:resource="http://creativecommons.org/ns#Distribution" /><cc:permits
         rdf:resource="http://creativecommons.org/ns#DerivativeWorks" /></cc:License></rdf:RDF></metadata></svg>