<?xml version="1.0" encoding="UTF-8" standalone="no"?>
<!-- Generator: Adobe Illustrator 15.1.0, SVG Export Plug-In . SVG Version: 6.00 Build 0)  -->

<svg
   xmlns:dc="http://purl.org/dc/elements/1.1/"
   xmlns:cc="http://creativecommons.org/ns#"
   xmlns:rdf="http://www.w3.org/1999/02/22-rdf-syntax-ns#"
   xmlns:svg="http://www.w3.org/2000/svg"
   xmlns="http://www.w3.org/2000/svg"
   xmlns:xlink="http://www.w3.org/1999/xlink"
   xmlns:sodipodi="http://sodipodi.sourceforge.net/DTD/sodipodi-0.dtd"
   xmlns:inkscape="http://www.inkscape.org/namespaces/inkscape"
   version="1.1"
   id="flash0.ai"
   x="0px"
   y="0px"
   width="256"
   height="256"
   viewBox="0 0 255.99999 255.99999"
   xml:space="preserve"
   sodipodi:docname="sandwich_cheesy.svg"
   inkscape:version="0.92.4 (5da689c313, 2019-01-14)"
   inkscape:export-filename="C:\Users\antum\Development\game-resources\icon\CC0\food\individual\Glitch\32x32\sandwich_cheesy.png"
   inkscape:export-xdpi="10.5"
   inkscape:export-ydpi="10.5"><metadata
   id="metadata671"><rdf:RDF><cc:Work
       rdf:about=""><dc:format>image/svg+xml</dc:format><dc:type
         rdf:resource="http://purl.org/dc/dcmitype/StillImage" /><dc:title></dc:title><cc:license
         rdf:resource="http://creativecommons.org/publicdomain/zero/1.0/" /><dc:creator><cc:Agent><dc:title>Glitch</dc:title></cc:Agent></dc:creator><dc:source>https://opengameart.org/node/20149</dc:source></cc:Work><cc:License
       rdf:about="http://creativecommons.org/publicdomain/zero/1.0/"><cc:permits
         rdf:resource="http://creativecommons.org/ns#Reproduction" /><cc:permits
         rdf:resource="http://creativecommons.org/ns#Distribution" /><cc:permits
         rdf:resource="http://creativecommons.org/ns#DerivativeWorks" /></cc:License></rdf:RDF></metadata><defs
   id="defs669"><linearGradient
     inkscape:collect="always"
     xlink:href="#SVGID_22_"
     id="linearGradient1190"
     gradientUnits="userSpaceOnUse"
     gradientTransform="matrix(0.7496,0.0147,-0.0252,0.7499,-195.7178,-222.0347)"
     x1="276.43991"
     y1="248.7588"
     x2="317.31311"
     y2="248.7588" /><linearGradient
     inkscape:collect="always"
     xlink:href="#SVGID_23_"
     id="linearGradient1192"
     gradientUnits="userSpaceOnUse"
     gradientTransform="matrix(0.7488,0.0315,-0.042,0.7494,-326.418,-363.0542)"
     x1="479.5112"
     y1="428.9678"
     x2="501.84619"
     y2="428.9678" /><linearGradient
     inkscape:collect="always"
     xlink:href="#SVGID_24_"
     id="linearGradient1194"
     gradientUnits="userSpaceOnUse"
     gradientTransform="matrix(0.1645,-0.734,0.7317,0.1542,10767.529,1023.5879)"
     x1="-1587.6436"
     y1="-14339.133"
     x2="-1578.7521"
     y2="-14339.133" /><linearGradient
     inkscape:collect="always"
     xlink:href="#SVGID_25_"
     id="linearGradient1196"
     gradientUnits="userSpaceOnUse"
     gradientTransform="matrix(-0.6521,-0.3614,0.3705,-0.6573,14482.867,-8651.0273)"
     x1="11214.152"
     y1="-19293.943"
     x2="11233.13"
     y2="-19293.943" /><linearGradient
     inkscape:collect="always"
     xlink:href="#SVGID_26_"
     id="linearGradient1198"
     gradientUnits="userSpaceOnUse"
     gradientTransform="matrix(0.7488,0.0313,-0.0418,0.7494,-324.7373,-361.2002)"
     x1="468.01611"
     y1="435.06451"
     x2="488.20239"
     y2="435.06451" /><linearGradient
     inkscape:collect="always"
     xlink:href="#SVGID_27_"
     id="linearGradient1200"
     gradientUnits="userSpaceOnUse"
     gradientTransform="matrix(0.7489,0.0308,-0.0413,0.7494,-321.5273,-357.6606)"
     x1="474.72751"
     y1="432.5596"
     x2="490.60172"
     y2="432.5596" /><linearGradient
     inkscape:collect="always"
     xlink:href="#SVGID_28_"
     id="linearGradient1202"
     gradientUnits="userSpaceOnUse"
     gradientTransform="matrix(0.7488,0.0315,-0.042,0.7494,-326.6123,-363.2686)"
     x1="488.1973"
     y1="433.91989"
     x2="506.5134"
     y2="433.91989" /></defs><sodipodi:namedview
   pagecolor="#ffffff"
   bordercolor="#666666"
   borderopacity="1"
   objecttolerance="10"
   gridtolerance="10"
   guidetolerance="10"
   inkscape:pageopacity="0"
   inkscape:pageshadow="2"
   inkscape:window-width="1920"
   inkscape:window-height="1025"
   id="namedview667"
   showgrid="false"
   inkscape:zoom="1.3768116"
   inkscape:cx="-8.5568667"
   inkscape:cy="147.49097"
   inkscape:window-x="-8"
   inkscape:window-y="-8"
   inkscape:window-maximized="1"
   inkscape:current-layer="flash0.ai"
   fit-margin-top="0"
   fit-margin-left="0"
   fit-margin-right="0"
   fit-margin-bottom="0" />
<symbol
   id="sammich4"
   viewBox="1.6 -39.456 50.393 32.37"
   transform="translate(106.72973,121.48836)">
	<g
   id="Layer_2_2_">
		
		
		
		<g
   id="g660"
   style="display:inline">
			
				<linearGradient
   id="SVGID_22_"
   gradientUnits="userSpaceOnUse"
   x1="276.43991"
   y1="248.7588"
   x2="317.31311"
   y2="248.7588"
   gradientTransform="matrix(0.7496,0.0147,-0.0252,0.7499,-195.7178,-222.0347)">
				<stop
   offset="0"
   style="stop-color:#E9B140"
   id="stop497" />
				<stop
   offset="1"
   style="stop-color:#C47E00"
   id="stop499" />
			</linearGradient>
			<path
   style="clip-rule:evenodd;fill:url(#linearGradient1190);fill-rule:evenodd"
   d="m 34.563,-26.886 c 0.65,-2.634 0.475,-4.882 -0.525,-6.743 -1.05,-1.985 -2.962,-3.359 -5.737,-4.12 -1.975,-0.547 -4.438,-0.838 -7.388,-0.872 -3,-0.033 -5.287,0.199 -6.862,0.696 -4.125,1.308 -6.212,3.587 -6.263,6.838 -0.024,1.025 0.15,2.073 0.525,3.142 l 0.6,1.342 c 1.5,0.229 2.988,0.658 4.463,1.287 3.175,1.355 7.313,1.935 12.412,1.739 5.375,-0.199 8.299,-1.303 8.775,-3.309 z"
   id="path502"
   inkscape:connector-curvature="0" />
			<path
   style="clip-rule:evenodd;fill:#ffd15b;fill-rule:evenodd"
   d="m 8.425,-27.87 c 0.925,1.662 5.338,2.425 13.237,2.29 7.65,-0.107 11.9,-0.654 12.75,-1.641 0.7,-0.81 0.663,-1.897 -0.112,-3.261 -0.825,-1.413 -2.075,-2.471 -3.75,-3.172 -2,-0.847 -4.237,-1.428 -6.712,-1.743 -3.05,-0.382 -6.15,-0.314 -9.301,0.205 -2.649,0.412 -4.562,1.352 -5.737,2.818 -1.15,1.439 -1.275,2.941 -0.375,4.504 z"
   id="path504"
   inkscape:connector-curvature="0" />
			<path
   style="clip-rule:evenodd;fill:#c98000;fill-rule:evenodd"
   d="m 29.388,-33.076 c -0.65,-0.066 -1.413,-0.268 -2.288,-0.605 -1.149,-0.459 -1.825,-0.712 -2.024,-0.759 -0.375,-0.095 -1.113,-0.247 -2.213,-0.457 -1.025,-0.186 -1.787,-0.35 -2.287,-0.493 -0.15,-0.048 -0.7,-0.166 -1.65,-0.352 -0.475,-0.093 -0.837,-0.301 -1.087,-0.622 -0.4,-0.52 -0.538,-1.243 -0.413,-2.169 l -0.412,0.081 c -0.175,0.052 -0.363,0.08 -0.563,0.083 l -0.226,-0.034 -0.262,1.579 c 0,0.475 -0.1,0.989 -0.301,1.542 -0.325,0.755 -1.375,1.294 -3.149,1.619 -1.5,0.271 -2.538,0.698 -3.112,1.281 -0.075,0.126 -0.201,0.266 -0.375,0.418 -0.15,0.152 -0.338,0.305 -0.563,0.458 -0.275,0.179 -0.438,0.231 -0.488,0.157 -0.1,-0.074 -0.188,-0.048 -0.262,0.079 l 0.375,1.044 26.024,1.885 0.788,-1.136 c -0.05,-0.05 -0.125,-0.111 -0.226,-0.185 -0.149,-0.148 -0.263,-0.309 -0.337,-0.482 -0.025,-0.075 -0.075,-0.6 -0.15,-1.573 -0.075,-0.899 -0.225,-1.521 -0.45,-1.869 -0.375,-0.57 -0.825,-0.751 -1.35,-0.543 0.225,0.797 0.125,1.223 -0.3,1.279 -0.226,0.053 -0.538,0.045 -0.938,-0.024 -1.049,-0.112 -1.636,-0.179 -1.761,-0.202 z"
   id="path506"
   inkscape:connector-curvature="0" />
			<path
   style="clip-rule:evenodd;fill:#e6bb00;fill-rule:evenodd"
   d="m 28.675,-32.654 c -0.4,0.005 -1.162,-0.233 -2.287,-0.718 -1.2,-0.483 -2.125,-0.757 -2.775,-0.823 -1.475,-0.129 -2.837,-0.46 -4.087,-0.993 -0.425,-0.194 -0.825,-0.289 -1.2,-0.283 -0.3,0.004 -0.538,-0.067 -0.713,-0.215 -0.675,-0.49 -1.013,-1.061 -1.013,-1.71 0,-0.275 0.013,-0.675 0.038,-1.201 -0.075,-0.399 -0.375,-0.67 -0.9,-0.813 -0.575,-0.117 -1.013,-0.011 -1.313,0.318 -0.275,0.329 -0.325,0.605 -0.149,0.827 0.149,0.148 0.35,0.27 0.6,0.367 0.125,0.023 0.238,0.047 0.338,0.07 l 0.262,0.371 c 0.226,0.322 0.201,1.047 -0.074,2.176 -0.05,0.326 -0.351,0.68 -0.9,1.063 -0.55,0.408 -1.125,0.678 -1.725,0.812 -0.75,0.135 -1.3,0.243 -1.65,0.323 -0.575,0.108 -1,0.264 -1.275,0.468 -0.2,0.127 -0.512,0.407 -0.938,0.838 -0.35,0.405 -0.625,0.646 -0.824,0.724 -0.175,0.077 -0.263,0.041 -0.263,-0.109 0,-0.2 -0.1,-0.298 -0.3,-0.296 -0.45,0.006 -0.576,0.396 -0.375,1.168 0.05,0.174 0.062,0.374 0.037,0.6 -0.025,0.275 -0.05,0.513 -0.075,0.713 -0.025,0.275 0.088,0.599 0.338,0.97 0.275,0.371 0.575,0.604 0.899,0.7 1.051,1.311 5.2,2.327 12.45,3.051 6.825,0.654 10.9,0.734 12.226,0.241 0.899,-0.338 1.487,-0.809 1.762,-1.413 0.125,-0.302 0.188,-0.752 0.188,-1.353 0,-0.225 0.1,-0.501 0.301,-0.829 0.174,-0.327 0.262,-0.616 0.262,-0.866 0,-0.35 -0.087,-0.687 -0.262,-1.009 -0.175,-0.272 -0.301,-0.333 -0.375,-0.182 -0.05,0.151 -0.113,0.226 -0.188,0.228 -0.1,-0.024 -0.238,-0.134 -0.413,-0.332 -0.25,-0.296 -0.375,-1.007 -0.375,-2.132 0,-0.775 -0.362,-1.433 -1.087,-1.972 -0.301,-0.221 -0.576,-0.217 -0.825,0.011 l -0.525,0.42 c -0.025,0 -0.375,0.13 -1.05,0.39 -0.677,0.26 -1.265,0.393 -1.765,0.4 z"
   id="path508"
   inkscape:connector-curvature="0" />
			<path
   style="clip-rule:evenodd;fill:#ffd829;fill-rule:evenodd"
   d="m 33.025,-24.015 c 0.425,-0.156 0.325,-0.455 -0.301,-0.896 -0.725,-0.49 -1.062,-0.81 -1.012,-0.961 0.8,-0.586 1.237,-1.18 1.313,-1.781 0.05,-0.476 -0.113,-0.923 -0.488,-1.343 -0.05,-0.049 -0.35,-0.558 -0.899,-1.525 -0.3,-0.496 -0.788,-0.839 -1.463,-1.029 -1.975,-0.422 -3.425,-0.79 -4.35,-1.102 -0.575,-0.192 -1.413,-0.28 -2.513,-0.265 -1.625,0.022 -2.475,0.035 -2.55,0.036 -2.45,-0.091 -3.875,-0.196 -4.275,-0.315 -0.375,-0.095 -0.762,-0.002 -1.162,0.278 -0.425,0.381 -0.738,0.623 -0.938,0.726 -0.2,0.103 -0.775,0.311 -1.726,0.624 -0.924,0.288 -1.487,0.496 -1.688,0.624 l -3.449,1.999 c -0.175,0.103 -0.288,0.254 -0.338,0.455 0.225,0.597 0.613,0.991 1.162,1.184 1.051,1.311 5.2,2.327 12.45,3.051 6.827,0.653 10.902,0.734 12.227,0.24 z"
   id="path510"
   inkscape:connector-curvature="0" />
			<g
   id="g516">
				<path
   style="clip-rule:evenodd;fill:#fff2c4;fill-rule:evenodd"
   d="m 7.188,-28.49 0.075,0.149 c 0.149,-0.352 0.45,-0.581 0.899,-0.688 0.275,-0.079 0.888,-0.4 1.838,-0.963 0.875,-0.537 1.487,-0.846 1.838,-0.926 1.149,-0.216 1.987,-0.628 2.512,-1.235 -0.174,0.078 -0.75,0.273 -1.725,0.587 -0.9,0.288 -1.45,0.495 -1.65,0.623 l -3.449,1.999 c -0.176,0.102 -0.288,0.253 -0.338,0.454 z"
   id="path512"
   inkscape:connector-curvature="0" />
				<path
   style="clip-rule:evenodd;fill:#fff2c4;fill-rule:evenodd"
   d="m 24.588,-32.635 c 0.524,0.093 1.187,0.159 1.987,0.197 l -0.75,-0.214 c -0.575,-0.192 -1.413,-0.28 -2.513,-0.265 -1.625,0.023 -2.475,0.035 -2.55,0.036 -2.3,-0.093 -3.65,-0.174 -4.05,-0.243 0.899,0.413 1.862,0.611 2.887,0.597 0.275,-0.003 1.225,-0.042 2.851,-0.115 1.05,-0.065 1.763,-0.063 2.138,0.007 z"
   id="path514"
   inkscape:connector-curvature="0" />
			</g>
			<path
   style="clip-rule:evenodd;fill:#ffd129;fill-rule:evenodd"
   d="m 16.225,-34.129 c 0.45,-0.131 0.688,-0.21 0.713,-0.235 0.05,-0.026 0.025,-0.088 -0.075,-0.187 -0.149,-0.148 -0.412,-0.519 -0.787,-1.114 -0.125,-0.123 -0.238,0.003 -0.338,0.38 -0.2,0.578 -0.313,0.892 -0.337,0.942 -0.1,0.201 -0.088,0.314 0.037,0.337 0.125,0.024 0.387,-0.017 0.787,-0.123 z"
   id="path518"
   inkscape:connector-curvature="0" />
			<path
   style="clip-rule:evenodd;fill:#ffeaa3;fill-rule:evenodd"
   d="m 15.475,-38.094 c 0.226,-0.053 0.338,-0.155 0.338,-0.305 -0.025,-0.15 -0.175,-0.248 -0.45,-0.294 -0.325,-0.07 -0.538,-0.104 -0.638,-0.104 -0.125,0.027 -0.188,0.128 -0.188,0.303 0,0.175 0.125,0.298 0.375,0.37 0.175,0.048 0.363,0.058 0.563,0.03 z"
   id="path520"
   inkscape:connector-curvature="0" />
			<path
   style="clip-rule:evenodd;fill:#ffd129;fill-rule:evenodd"
   d="m 31.975,-31.8 c 0.4,0.244 0.588,0.229 0.563,-0.045 0,-0.15 -0.037,-0.424 -0.112,-0.823 0,-0.15 0.063,-0.363 0.188,-0.64 0.075,-0.201 0.088,-0.301 0.038,-0.3 -0.075,-0.024 -0.175,0.015 -0.301,0.117 -0.149,0.127 -0.262,0.278 -0.337,0.455 -0.05,0.175 -0.263,0.316 -0.638,0.421 -0.425,0.106 -0.713,0.197 -0.862,0.274 -0.15,0.077 -0.013,0.15 0.412,0.219 0.549,0.117 0.899,0.224 1.049,0.322 z"
   id="path522"
   inkscape:connector-curvature="0" />
			<path
   style="clip-rule:evenodd;fill:#ffd84a;fill-rule:evenodd"
   d="m 34.862,-28.353 c 0.15,-0.202 0.15,-0.377 0,-0.525 -0.149,-0.172 -0.263,-0.184 -0.337,-0.033 -0.05,0.176 -0.038,0.351 0.037,0.525 0.076,0.173 0.175,0.185 0.3,0.033 z"
   id="path524"
   inkscape:connector-curvature="0" />
			<path
   style="clip-rule:evenodd;fill:#ffeaa3;fill-rule:evenodd"
   d="m 7.675,-29.547 c 0.1,-0.077 0.15,-0.215 0.15,-0.415 0.025,-0.226 -0.013,-0.387 -0.112,-0.486 -0.05,-0.075 -0.138,-0.199 -0.263,-0.372 -0.1,-0.124 -0.175,-0.147 -0.226,-0.072 -0.05,0.05 -0.037,0.201 0.038,0.45 0.1,0.298 0.149,0.485 0.149,0.56 -0.05,0.15 -0.037,0.263 0.038,0.337 0.051,0.075 0.126,0.074 0.226,-0.002 z"
   id="path526"
   inkscape:connector-curvature="0" />
			<path
   style="clip-rule:evenodd;fill:#ffd129;fill-rule:evenodd"
   d="m 9.513,-30.848 c 0.35,-0.155 0.625,-0.346 0.825,-0.574 0.25,-0.253 0.312,-0.467 0.188,-0.64 -0.175,-0.272 -0.576,-0.142 -1.2,0.392 -0.226,0.178 -0.3,0.392 -0.226,0.641 0.05,0.224 0.187,0.284 0.413,0.181 z"
   id="path528"
   inkscape:connector-curvature="0" />
			<path
   style="clip-rule:evenodd;fill:#e6bb00;fill-rule:evenodd"
   d="m 34.075,-24.517 c 0.6,-0.534 0.575,-1.158 -0.075,-1.874 l -1.162,-0.884 0.112,-0.452 c -0.075,-0.424 -0.463,-0.943 -1.163,-1.558 -0.875,-0.763 -2.25,-1.456 -4.125,-2.08 -1.975,-0.622 -3.887,-0.97 -5.737,-1.044 -1.575,-0.053 -3.212,0.195 -4.912,0.744 l -2.101,0.854 c -0.3,0.004 -1.35,0.169 -3.149,0.494 -1.15,0.216 -2.175,0.718 -3.075,1.505 l -1.05,1.103 c 0.75,0.365 1.375,0.693 1.875,0.986 3.85,0.571 7.763,1.091 11.737,1.561 7.95,0.963 12.225,1.178 12.825,0.645 z"
   id="path530"
   inkscape:connector-curvature="0" />
			
				<linearGradient
   id="SVGID_23_"
   gradientUnits="userSpaceOnUse"
   x1="479.5112"
   y1="428.9678"
   x2="501.84619"
   y2="428.9678"
   gradientTransform="matrix(0.7488,0.0315,-0.042,0.7494,-326.418,-363.0542)">
				<stop
   offset="0"
   style="stop-color:#FDCB53"
   id="stop532" />
				<stop
   offset="1"
   style="stop-color:#D48801"
   id="stop534" />
			</linearGradient>
			<path
   style="clip-rule:evenodd;fill:url(#linearGradient1192);fill-rule:evenodd"
   d="m 14.838,-29.91 c 0.25,1.072 0.662,2.241 1.237,3.508 1.125,2.534 2.5,4.315 4.125,5.342 1.875,1.148 4.175,0.967 6.899,-0.547 2.601,-1.461 4.025,-3.106 4.275,-4.935 0.25,-1.579 -0.638,-2.866 -2.662,-3.863 -1.326,-0.632 -3.038,-1.107 -5.138,-1.428 -2.2,-0.344 -4.175,-0.241 -5.925,0.308 -1.374,0.42 -2.312,0.958 -2.811,1.615 z"
   id="path537"
   inkscape:connector-curvature="0" />
			<path
   style="clip-rule:evenodd;fill:#c98000;fill-rule:evenodd"
   d="m 30.588,-24.881 0.225,-0.19 c 0.3,-0.504 0.487,-0.994 0.563,-1.47 0.25,-1.579 -0.638,-2.866 -2.662,-3.863 -1.326,-0.632 -3.038,-1.107 -5.138,-1.428 -2.2,-0.344 -4.175,-0.241 -5.925,0.308 -1.375,0.419 -2.313,0.958 -2.813,1.614 0.225,0.972 0.6,2.067 1.125,3.285 1.05,2.41 2.312,4.167 3.787,5.271 0.375,0.12 0.575,0.117 0.6,-0.008 0.05,-0.101 0.138,-0.452 0.263,-1.054 0.675,-1.609 0.525,-2.945 -0.45,-4.006 -0.475,-0.543 -1.025,-0.91 -1.649,-1.102 l -0.226,-1.534 c 0.375,-0.956 1.838,-1.276 4.388,-0.962 3.325,0.378 5.638,1.346 6.938,2.903 0.649,0.791 0.974,1.536 0.974,2.236 z"
   id="path539"
   inkscape:connector-curvature="0" />
			<path
   style="clip-rule:evenodd;fill:#ede2ad;fill-rule:evenodd"
   d="m 10.6,-23.625 c 1.4,0.605 2.9,1.146 4.5,1.625 3.201,0.93 5.288,1.063 6.263,0.399 1.25,-0.867 1.15,-2.391 -0.3,-4.571 -1.5,-2.229 -3.225,-3.217 -5.175,-2.965 -3.275,0.371 -5.238,0.648 -5.888,0.833 -1.5,0.446 -2.263,1.269 -2.287,2.47 -0.025,1.074 0.287,1.658 0.937,1.749 1.15,0.208 1.8,0.362 1.95,0.46 z"
   id="path541"
   inkscape:connector-curvature="0" />
			
				<linearGradient
   id="SVGID_24_"
   gradientUnits="userSpaceOnUse"
   x1="-1587.6436"
   y1="-14339.133"
   x2="-1578.7521"
   y2="-14339.133"
   gradientTransform="matrix(0.1645,-0.734,0.7317,0.1542,10767.529,1023.5879)">
				<stop
   offset="0"
   style="stop-color:#FDCB53"
   id="stop543" />
				<stop
   offset="1"
   style="stop-color:#D48801"
   id="stop545" />
			</linearGradient>
			<path
   style="clip-rule:evenodd;fill:url(#linearGradient1194);fill-rule:evenodd"
   d="m 9.888,-22.003 c 1.4,0.331 2.9,0.597 4.5,0.799 3.225,0.38 5.325,0.225 6.3,-0.463 1.2,-0.816 1.325,-2.119 0.375,-3.905 -0.975,-1.812 -2.55,-3.177 -4.725,-4.096 -2.076,-0.871 -4.175,-0.804 -6.301,0.201 -1.974,0.952 -2.987,2.154 -3.037,3.604 0,0.825 0.15,1.485 0.45,1.981 0.225,0.372 0.587,0.717 1.087,1.035 0.601,0.342 1.051,0.623 1.351,0.844 z"
   id="path548"
   inkscape:connector-curvature="0" />
			
				<linearGradient
   id="SVGID_25_"
   gradientUnits="userSpaceOnUse"
   x1="11214.152"
   y1="-19293.943"
   x2="11233.13"
   y2="-19293.943"
   gradientTransform="matrix(-0.6521,-0.3614,0.3705,-0.6573,14482.867,-8651.0273)">
				<stop
   offset="0"
   style="stop-color:#D69211"
   id="stop550" />
				<stop
   offset="1"
   style="stop-color:#C98000"
   id="stop552" />
			</linearGradient>
			<path
   style="clip-rule:evenodd;fill:url(#linearGradient1196);fill-rule:evenodd"
   d="m 16.338,-29.668 c -2.076,-0.871 -4.175,-0.804 -6.301,0.201 -1.974,0.952 -2.987,2.154 -3.037,3.604 l 0.075,0.937 c 0.375,-2.405 2.325,-3.632 5.85,-3.682 2.15,-0.03 4.1,0.517 5.851,1.643 1.725,1.101 2.687,2.35 2.887,3.747 0.025,-1.475 -0.687,-2.903 -2.137,-4.282 -1.026,-0.961 -2.088,-1.684 -3.188,-2.168 z"
   id="path555"
   inkscape:connector-curvature="0" />
			<path
   style="clip-rule:evenodd;fill:#ede2ad;fill-rule:evenodd"
   d="m 16.75,-17.337 c 0.725,0.015 1.587,-0.672 2.588,-2.061 0.475,-0.682 0.887,-1.362 1.237,-2.042 0.25,-0.003 0.313,-0.054 0.188,-0.152 -0.25,-0.197 -1.288,-0.532 -3.112,-1.006 -2.3,-0.618 -4.476,-0.875 -6.525,-0.771 -1.025,0.039 -1.825,0.138 -2.4,0.296 -0.326,0.253 -0.501,0.606 -0.526,1.056 -0.075,0.926 0.65,1.866 2.175,2.819 1.575,1.029 3.7,1.649 6.375,1.861 z"
   id="path557"
   inkscape:connector-curvature="0" />
			
				<linearGradient
   id="SVGID_26_"
   gradientUnits="userSpaceOnUse"
   x1="468.01611"
   y1="435.06451"
   x2="488.20239"
   y2="435.06451"
   gradientTransform="matrix(0.7488,0.0313,-0.0418,0.7494,-324.7373,-361.2002)">
				<stop
   offset="0"
   style="stop-color:#FDCB53"
   id="stop559" />
				<stop
   offset="1"
   style="stop-color:#D48801"
   id="stop561" />
			</linearGradient>
			<path
   style="clip-rule:evenodd;fill:url(#linearGradient1198);fill-rule:evenodd"
   d="m 14.125,-17.638 c 0.85,0.188 1.612,0.315 2.287,0.381 0.726,-0.01 2,-0.553 3.825,-1.629 0.9,-0.538 1.726,-1.074 2.476,-1.609 -0.55,-0.417 -2.275,-1.006 -5.176,-1.765 -2.3,-0.593 -4.574,-0.936 -6.824,-1.029 -1.125,-0.034 -2.025,-0.009 -2.7,0.075 -0.275,0.279 -0.388,0.668 -0.338,1.167 0.05,0.974 0.825,1.939 2.325,2.892 1,0.636 2.375,1.142 4.125,1.517 z"
   id="path564"
   inkscape:connector-curvature="0" />
			<path
   style="clip-rule:evenodd;fill:#ede2ad;fill-rule:evenodd"
   d="m 20.313,-21.737 c -1.475,0.846 -2.638,1.625 -3.487,2.336 -1.625,1.373 -1,2.401 1.875,3.086 2.375,0.566 4.612,0.46 6.712,-0.319 1.025,-0.39 1.825,-0.838 2.4,-1.346 -0.576,-0.017 -1.213,-0.07 -1.913,-0.16 -1.45,-0.205 -2.551,-0.564 -3.301,-1.079 -1.174,-0.783 -1.936,-1.623 -2.286,-2.518 z"
   id="path566"
   inkscape:connector-curvature="0" />
			
				<linearGradient
   id="SVGID_27_"
   gradientUnits="userSpaceOnUse"
   x1="474.72751"
   y1="432.5596"
   x2="490.60172"
   y2="432.5596"
   gradientTransform="matrix(0.7489,0.0308,-0.0413,0.7494,-321.5273,-357.6606)">
				<stop
   offset="0"
   style="stop-color:#FDCB53"
   id="stop568" />
				<stop
   offset="1"
   style="stop-color:#D48801"
   id="stop570" />
			</linearGradient>
			<path
   style="clip-rule:evenodd;fill:url(#linearGradient1200);fill-rule:evenodd"
   d="m 20.688,-21.667 c -1.65,1.048 -2.9,1.916 -3.75,2.603 -1.625,1.373 -1,2.402 1.875,3.086 2.375,0.591 4.612,0.485 6.713,-0.319 1.025,-0.389 1.825,-0.838 2.399,-1.346 -0.575,0.008 -1.212,-0.045 -1.912,-0.161 -1.45,-0.18 -2.55,-0.527 -3.3,-1.041 -0.726,-0.515 -1.288,-1.132 -1.688,-1.851 z"
   id="path573"
   inkscape:connector-curvature="0" />
			<path
   style="clip-rule:evenodd;fill:#ede2ad;fill-rule:evenodd"
   d="m 28.525,-21.214 c -2.35,0.333 -4.426,0.387 -6.226,0.162 l -1.987,-0.422 c -0.05,0.275 0.013,0.612 0.188,1.01 0.325,0.796 1.063,1.522 2.213,2.182 1.875,1.048 3.8,1.247 5.774,0.594 2.025,-0.654 3.563,-2 4.612,-4.04 0.825,-1.562 0.863,-2.725 0.113,-3.489 l -1.388,-0.655 c 0.05,0.699 -0.05,1.413 -0.3,2.142 -0.474,1.455 -1.474,2.294 -2.999,2.516 z"
   id="path575"
   inkscape:connector-curvature="0" />
			
				<linearGradient
   id="SVGID_28_"
   gradientUnits="userSpaceOnUse"
   x1="488.1973"
   y1="433.91989"
   x2="506.5134"
   y2="433.91989"
   gradientTransform="matrix(0.7488,0.0315,-0.042,0.7494,-326.6123,-363.2686)">
				<stop
   offset="0"
   style="stop-color:#FDCB53"
   id="stop577" />
				<stop
   offset="1"
   style="stop-color:#D48801"
   id="stop579" />
			</linearGradient>
			<path
   style="clip-rule:evenodd;fill:url(#linearGradient1202);fill-rule:evenodd"
   d="m 27.55,-22.213 c -1.875,0.876 -3.575,1.226 -5.1,1.047 l -1.763,-0.5 c -0.05,0.276 0,0.613 0.15,1.01 0.325,0.821 1.062,1.548 2.212,2.182 1.925,1.098 3.95,1.407 6.075,0.927 2.225,-0.481 3.85,-1.716 4.875,-3.706 0.825,-1.586 0.638,-3.084 -0.563,-4.492 l -2.063,-1.621 c -0.1,0.601 -0.325,1.267 -0.675,1.997 -0.748,1.485 -1.798,2.537 -3.148,3.156 z"
   id="path582"
   inkscape:connector-curvature="0" />
			<path
   style="clip-rule:evenodd;fill:#ede2ad;fill-rule:evenodd"
   d="m 27.813,-22.254 c -2.05,0.829 -3.85,1.179 -5.4,1.051 l -1.725,-0.463 c -0.275,-0.096 -0.4,-0.057 -0.375,0.118 1.175,0.559 2.55,0.765 4.125,0.618 1.525,-0.172 2.938,-0.642 4.237,-1.41 0.65,-0.384 1.175,-0.929 1.575,-1.635 0.35,-0.63 0.538,-1.27 0.563,-1.92 -0.05,0.625 -0.412,1.331 -1.088,2.115 -0.675,0.783 -1.313,1.292 -1.912,1.526 z"
   id="path584"
   inkscape:connector-curvature="0" />
			<path
   style="clip-rule:evenodd;fill:#ede2ad;fill-rule:evenodd"
   d="m 20.463,-21.214 c 0.375,0.045 0.725,0.065 1.05,0.061 0.3,-0.004 0.375,-0.03 0.225,-0.078 -0.4,-0.169 -0.575,-0.354 -0.524,-0.555 0.024,-0.101 -0.05,-0.125 -0.226,-0.072 -0.325,0.104 -0.8,0.062 -1.425,-0.129 0.108,0.078 0.195,0.176 0.263,0.296 0.125,0.223 0.2,0.334 0.225,0.334 z"
   id="path586"
   inkscape:connector-curvature="0" />
			<path
   style="clip-rule:evenodd;fill:#a88a43;fill-rule:evenodd"
   d="m 13.037,-17.959 c 0.301,0.021 0.45,-0.069 0.45,-0.269 0,-0.2 -0.137,-0.36 -0.412,-0.481 -0.226,-0.097 -0.438,-0.119 -0.638,-0.066 -0.175,0.052 -0.3,0.129 -0.375,0.23 -0.075,0.101 -0.013,0.212 0.188,0.335 0.2,0.146 0.462,0.23 0.787,0.251 z"
   id="path588"
   inkscape:connector-curvature="0" />
			<path
   style="clip-rule:evenodd;fill:#ede2ad;fill-rule:evenodd"
   d="m 12.963,-17.846 c 0.3,0.021 0.449,-0.069 0.449,-0.269 0,-0.2 -0.137,-0.361 -0.412,-0.482 -0.475,-0.218 -0.813,-0.164 -1.013,0.164 -0.075,0.101 -0.012,0.213 0.188,0.335 0.2,0.148 0.463,0.232 0.788,0.252 z"
   id="path590"
   inkscape:connector-curvature="0" />
			<path
   style="clip-rule:evenodd;fill:#ffffff;fill-rule:evenodd"
   d="m 12.775,-17.956 c 0.325,-0.004 0.387,-0.105 0.188,-0.303 -0.351,-0.245 -0.588,-0.267 -0.713,-0.065 -0.05,0.101 -0.013,0.188 0.112,0.261 0.126,0.073 0.263,0.109 0.413,0.107 z"
   id="path592"
   inkscape:connector-curvature="0" />
			<path
   style="clip-rule:evenodd;fill:#a88a43;fill-rule:evenodd"
   d="m 15.175,-18.665 c 0.575,-0.033 0.775,-0.173 0.601,-0.42 -0.175,-0.223 -0.488,-0.331 -0.938,-0.325 -0.375,0.005 -0.488,0.132 -0.338,0.38 0.175,0.247 0.4,0.369 0.675,0.365 z"
   id="path594"
   inkscape:connector-curvature="0" />
			<path
   style="clip-rule:evenodd;fill:#a88a43;fill-rule:evenodd"
   d="m 11.912,-20.194 c 0.375,0.069 0.513,-0.007 0.413,-0.231 -0.1,-0.249 -0.275,-0.346 -0.525,-0.292 -0.225,0.028 -0.313,0.117 -0.263,0.266 0.05,0.149 0.175,0.235 0.375,0.257 z"
   id="path596"
   inkscape:connector-curvature="0" />
			<path
   style="clip-rule:evenodd;fill:#a88a43;fill-rule:evenodd"
   d="m 17.875,-23.353 c 0.4,-0.081 0.5,-0.207 0.3,-0.379 -0.225,-0.172 -0.475,-0.231 -0.75,-0.177 -0.275,0.029 -0.35,0.142 -0.225,0.34 0.1,0.2 0.325,0.271 0.675,0.216 z"
   id="path598"
   inkscape:connector-curvature="0" />
			<path
   style="clip-rule:evenodd;fill:#a88a43;fill-rule:evenodd"
   d="m 14.537,-25.706 c 0.351,0.07 0.576,0.004 0.676,-0.197 0.074,-0.176 -0.088,-0.261 -0.488,-0.256 -0.35,0.005 -0.512,0.083 -0.487,0.232 0.024,0.125 0.125,0.199 0.299,0.221 z"
   id="path600"
   inkscape:connector-curvature="0" />
			<path
   style="clip-rule:evenodd;fill:#a88a43;fill-rule:evenodd"
   d="m 25.375,-22.52 c 0.575,0.017 0.862,-0.112 0.862,-0.387 0.025,-0.25 -0.212,-0.347 -0.712,-0.29 -0.425,0.031 -0.625,0.159 -0.601,0.384 0.026,0.199 0.176,0.297 0.451,0.293 z"
   id="path602"
   inkscape:connector-curvature="0" />
			<path
   style="clip-rule:evenodd;fill:#a88a43;fill-rule:evenodd"
   d="m 30.625,-19.069 c 0.525,-0.157 0.725,-0.373 0.6,-0.646 -0.149,-0.298 -0.449,-0.344 -0.899,-0.138 -0.375,0.18 -0.487,0.382 -0.338,0.604 0.15,0.2 0.362,0.259 0.637,0.18 z"
   id="path604"
   inkscape:connector-curvature="0" />
			<path
   style="clip-rule:evenodd;fill:#a88a43;fill-rule:evenodd"
   d="m 26.313,-18.033 c -0.075,-0.349 -0.325,-0.508 -0.75,-0.477 -0.45,0.056 -0.65,0.197 -0.6,0.421 0.05,0.199 0.3,0.321 0.75,0.364 0.449,0.019 0.65,-0.084 0.6,-0.308 z"
   id="path606"
   inkscape:connector-curvature="0" />
			<path
   style="clip-rule:evenodd;fill:#a88a43;fill-rule:evenodd"
   d="m 27.287,-20.072 c 0.7,-0.185 0.863,-0.424 0.488,-0.719 -0.375,-0.27 -0.788,-0.314 -1.238,-0.133 -0.425,0.181 -0.512,0.395 -0.262,0.641 0.225,0.272 0.563,0.343 1.012,0.211 z"
   id="path608"
   inkscape:connector-curvature="0" />
			<path
   style="clip-rule:evenodd;fill:#a88a43;fill-rule:evenodd"
   d="m 22.15,-16.025 c 0.6,0.017 0.812,-0.162 0.637,-0.534 -0.174,-0.397 -0.5,-0.555 -0.975,-0.474 -0.425,0.081 -0.563,0.271 -0.412,0.568 0.15,0.274 0.4,0.42 0.75,0.44 z"
   id="path610"
   inkscape:connector-curvature="0" />
			<path
   style="clip-rule:evenodd;fill:#a88a43;fill-rule:evenodd"
   d="m 12.325,-23.725 c 0.65,0.016 0.837,-0.149 0.563,-0.496 -0.275,-0.346 -0.65,-0.416 -1.125,-0.209 -0.425,0.181 -0.538,0.345 -0.338,0.493 0.2,0.147 0.5,0.218 0.9,0.212 z"
   id="path612"
   inkscape:connector-curvature="0" />
			<path
   style="clip-rule:evenodd;fill:#a88a43;fill-rule:evenodd"
   d="m 18.737,-17.814 c 0.601,-0.108 0.738,-0.373 0.413,-0.793 -0.325,-0.42 -0.663,-0.503 -1.013,-0.248 -0.3,0.229 -0.35,0.479 -0.15,0.752 0.201,0.246 0.451,0.343 0.75,0.289 z"
   id="path614"
   inkscape:connector-curvature="0" />
			<path
   style="clip-rule:evenodd;fill:#ede2ad;fill-rule:evenodd"
   d="m 15.1,-18.589 c 0.576,-0.033 0.775,-0.173 0.601,-0.42 -0.175,-0.223 -0.475,-0.331 -0.9,-0.325 -0.375,0.005 -0.487,0.132 -0.337,0.38 0.173,0.247 0.386,0.369 0.636,0.365 z"
   id="path616"
   inkscape:connector-curvature="0" />
			<path
   style="clip-rule:evenodd;fill:#ede2ad;fill-rule:evenodd"
   d="m 11.838,-20.118 c 0.399,0.07 0.549,-0.008 0.449,-0.231 -0.1,-0.249 -0.275,-0.346 -0.524,-0.292 -0.226,0.028 -0.325,0.117 -0.3,0.267 0.05,0.148 0.174,0.234 0.375,0.256 z"
   id="path618"
   inkscape:connector-curvature="0" />
			<path
   style="clip-rule:evenodd;fill:#ede2ad;fill-rule:evenodd"
   d="m 17.8,-23.276 c 0.425,-0.081 0.525,-0.208 0.3,-0.379 -0.225,-0.197 -0.475,-0.268 -0.75,-0.214 -0.25,0.054 -0.325,0.18 -0.225,0.378 0.1,0.198 0.325,0.269 0.675,0.215 z"
   id="path620"
   inkscape:connector-curvature="0" />
			<path
   style="clip-rule:evenodd;fill:#ede2ad;fill-rule:evenodd"
   d="m 14.463,-25.63 c 0.35,0.07 0.575,0.004 0.675,-0.197 0.1,-0.176 -0.05,-0.262 -0.45,-0.256 -0.35,0.005 -0.512,0.083 -0.487,0.232 -0.001,0.125 0.087,0.199 0.262,0.221 z"
   id="path622"
   inkscape:connector-curvature="0" />
			<path
   style="clip-rule:evenodd;fill:#ede2ad;fill-rule:evenodd"
   d="m 25.3,-22.444 c 0.575,0.017 0.875,-0.112 0.9,-0.388 0,-0.25 -0.25,-0.347 -0.75,-0.29 -0.425,0.031 -0.625,0.159 -0.601,0.384 0.026,0.2 0.176,0.298 0.451,0.294 z"
   id="path624"
   inkscape:connector-curvature="0" />
			<path
   style="clip-rule:evenodd;fill:#ede2ad;fill-rule:evenodd"
   d="m 30.588,-18.993 c 0.524,-0.157 0.712,-0.373 0.563,-0.646 -0.15,-0.298 -0.45,-0.343 -0.9,-0.137 -0.375,0.18 -0.475,0.382 -0.3,0.604 0.149,0.198 0.362,0.257 0.637,0.179 z"
   id="path626"
   inkscape:connector-curvature="0" />
			<path
   style="clip-rule:evenodd;fill:#ede2ad;fill-rule:evenodd"
   d="m 26.237,-17.957 c -0.05,-0.35 -0.3,-0.509 -0.75,-0.478 -0.45,0.057 -0.65,0.197 -0.6,0.421 0.05,0.199 0.3,0.321 0.75,0.364 0.451,0.02 0.651,-0.083 0.6,-0.307 z"
   id="path628"
   inkscape:connector-curvature="0" />
			<path
   style="clip-rule:evenodd;fill:#ede2ad;fill-rule:evenodd"
   d="m 27.25,-19.997 c 0.7,-0.185 0.85,-0.424 0.45,-0.719 -0.375,-0.27 -0.788,-0.314 -1.237,-0.132 -0.4,0.181 -0.488,0.394 -0.263,0.641 0.25,0.272 0.6,0.342 1.05,0.21 z"
   id="path630"
   inkscape:connector-curvature="0" />
			<path
   style="clip-rule:evenodd;fill:#ede2ad;fill-rule:evenodd"
   d="m 22.112,-15.95 c 0.575,0.018 0.775,-0.161 0.601,-0.533 -0.175,-0.397 -0.5,-0.555 -0.976,-0.474 -0.425,0.081 -0.563,0.27 -0.412,0.568 0.175,0.273 0.437,0.419 0.787,0.439 z"
   id="path632"
   inkscape:connector-curvature="0" />
			<path
   style="clip-rule:evenodd;fill:#ede2ad;fill-rule:evenodd"
   d="m 12.25,-23.648 c 0.65,0.016 0.85,-0.15 0.6,-0.496 -0.275,-0.346 -0.65,-0.416 -1.125,-0.209 -0.449,0.182 -0.563,0.346 -0.337,0.492 0.199,0.147 0.487,0.217 0.862,0.213 z"
   id="path634"
   inkscape:connector-curvature="0" />
			<path
   style="clip-rule:evenodd;fill:#ede2ad;fill-rule:evenodd"
   d="m 18.7,-17.739 c 0.6,-0.108 0.737,-0.373 0.412,-0.794 -0.325,-0.42 -0.662,-0.503 -1.013,-0.248 -0.325,0.229 -0.387,0.48 -0.188,0.753 0.202,0.247 0.464,0.343 0.789,0.289 z"
   id="path636"
   inkscape:connector-curvature="0" />
			<path
   style="clip-rule:evenodd;fill:#ffffff;fill-rule:evenodd"
   d="m 14.95,-18.699 c 0.2,0.022 0.3,-0.004 0.3,-0.079 0.025,-0.075 -0.063,-0.124 -0.263,-0.146 -0.149,0.002 -0.225,0.041 -0.225,0.116 0.026,0.049 0.088,0.085 0.188,0.109 z"
   id="path638"
   inkscape:connector-curvature="0" />
			<path
   style="clip-rule:evenodd;fill:#ffffff;fill-rule:evenodd"
   d="m 11.95,-20.194 c 0.125,-0.002 0.149,-0.04 0.075,-0.114 -0.05,-0.099 -0.138,-0.135 -0.263,-0.109 -0.125,0.027 -0.163,0.065 -0.112,0.114 0.075,0.074 0.175,0.111 0.3,0.109 z"
   id="path640"
   inkscape:connector-curvature="0" />
			<path
   style="clip-rule:evenodd;fill:#ffffff;fill-rule:evenodd"
   d="m 12.25,-23.761 c 0.3,-0.029 0.325,-0.104 0.075,-0.226 -0.25,-0.122 -0.463,-0.156 -0.638,-0.104 -0.15,0.077 -0.15,0.152 0,0.225 0.175,0.097 0.363,0.133 0.563,0.105 z"
   id="path642"
   inkscape:connector-curvature="0" />
			<path
   style="clip-rule:evenodd;fill:#ffffff;fill-rule:evenodd"
   d="m 17.65,-23.349 c 0.25,-0.054 0.3,-0.117 0.149,-0.19 -0.125,-0.098 -0.25,-0.122 -0.375,-0.07 -0.1,0.026 -0.112,0.089 -0.037,0.188 0.051,0.075 0.138,0.098 0.263,0.072 z"
   id="path644"
   inkscape:connector-curvature="0" />
			<path
   style="clip-rule:evenodd;fill:#ffffff;fill-rule:evenodd"
   d="m 14.65,-25.708 c 0.275,-0.054 0.225,-0.103 -0.15,-0.147 -0.1,0.001 -0.125,0.026 -0.075,0.076 0.05,0.074 0.125,0.098 0.225,0.071 z"
   id="path646"
   inkscape:connector-curvature="0" />
			<path
   style="clip-rule:evenodd;fill:#ffffff;fill-rule:evenodd"
   d="m 25.6,-22.598 c 0.275,-0.104 0.288,-0.192 0.038,-0.263 -0.25,-0.046 -0.413,-0.019 -0.487,0.082 -0.075,0.101 -0.05,0.163 0.074,0.186 0.1,0.049 0.225,0.047 0.375,-0.005 z"
   id="path648"
   inkscape:connector-curvature="0" />
			<path
   style="clip-rule:evenodd;fill:#ffffff;fill-rule:evenodd"
   d="m 27.138,-20.107 c 0.35,-0.08 0.387,-0.18 0.112,-0.301 -0.3,-0.146 -0.538,-0.167 -0.713,-0.065 -0.149,0.077 -0.125,0.164 0.075,0.261 0.201,0.122 0.375,0.157 0.526,0.105 z"
   id="path650"
   inkscape:connector-curvature="0" />
			<path
   style="clip-rule:evenodd;fill:#ffffff;fill-rule:evenodd"
   d="m 30.4,-19.215 c 0.174,-0.103 0.337,-0.23 0.487,-0.382 0.075,-0.101 -0.013,-0.15 -0.263,-0.146 -0.275,0.029 -0.45,0.106 -0.525,0.232 -0.074,0.101 -0.062,0.188 0.038,0.262 0.076,0.074 0.163,0.084 0.263,0.034 z"
   id="path652"
   inkscape:connector-curvature="0" />
			<path
   style="clip-rule:evenodd;fill:#ffffff;fill-rule:evenodd"
   d="m 25.563,-17.798 c 0.25,-0.053 0.288,-0.141 0.112,-0.264 -0.149,-0.123 -0.3,-0.146 -0.45,-0.068 -0.125,0.052 -0.125,0.126 0,0.225 0.15,0.097 0.262,0.133 0.338,0.107 z"
   id="path654"
   inkscape:connector-curvature="0" />
			<path
   style="clip-rule:evenodd;fill:#ffffff;fill-rule:evenodd"
   d="m 22.075,-16.024 c 0.325,-0.03 0.387,-0.13 0.188,-0.303 -0.226,-0.197 -0.4,-0.244 -0.525,-0.143 -0.1,0.102 -0.1,0.202 0,0.3 0.075,0.1 0.187,0.149 0.337,0.146 z"
   id="path656"
   inkscape:connector-curvature="0" />
			<path
   style="clip-rule:evenodd;fill:#ffffff;fill-rule:evenodd"
   d="m 18.438,-17.885 c 0.3,-0.08 0.362,-0.205 0.188,-0.378 -0.175,-0.197 -0.325,-0.245 -0.45,-0.144 -0.125,0.052 -0.149,0.165 -0.075,0.338 0.074,0.15 0.186,0.211 0.337,0.184 z"
   id="path658"
   inkscape:connector-curvature="0" />
		</g>
	</g>
</symbol>
<use
   xlink:href="#sammich4"
   width="50.393002"
   height="32.369999"
   x="1.6"
   y="-39.456001"
   transform="matrix(8.9698484,0,0,-8.9698484,-1020.1382,970.79997)"
   style="overflow:visible"
   id="use664" />
</svg>