<?xml version="1.0" encoding="UTF-8" standalone="no"?>
<!-- Generator: Adobe Illustrator 15.1.0, SVG Export Plug-In . SVG Version: 6.00 Build 0)  -->

<svg
   xmlns:dc="http://purl.org/dc/elements/1.1/"
   xmlns:cc="http://creativecommons.org/ns#"
   xmlns:rdf="http://www.w3.org/1999/02/22-rdf-syntax-ns#"
   xmlns:svg="http://www.w3.org/2000/svg"
   xmlns="http://www.w3.org/2000/svg"
   xmlns:sodipodi="http://sodipodi.sourceforge.net/DTD/sodipodi-0.dtd"
   xmlns:inkscape="http://www.inkscape.org/namespaces/inkscape"
   version="1.1"
   id="flash0.ai"
   x="0px"
   y="0px"
   width="256"
   height="256"
   viewBox="0 0 256 256.00001"
   xml:space="preserve"
   sodipodi:docname="strawberry.svg"
   inkscape:version="0.92.4 (5da689c313, 2019-01-14)"
   inkscape:export-filename="C:\Users\antum\Development\game-resources\icon\CC0\food\individual\Glitch\32x32\strawberry.png"
   inkscape:export-xdpi="10.5"
   inkscape:export-ydpi="10.5"><title
   id="title1155">Strawberry</title><metadata
   id="metadata348"><rdf:RDF><cc:Work
       rdf:about=""><dc:format>image/svg+xml</dc:format><dc:type
         rdf:resource="http://purl.org/dc/dcmitype/StillImage" /><dc:title>Strawberry</dc:title><cc:license
         rdf:resource="http://creativecommons.org/publicdomain/zero/1.0/" /><dc:creator><cc:Agent><dc:title>Glitch</dc:title></cc:Agent></dc:creator><dc:source>https://opengameart.org/node/20149</dc:source></cc:Work><cc:License
       rdf:about="http://creativecommons.org/publicdomain/zero/1.0/"><cc:permits
         rdf:resource="http://creativecommons.org/ns#Reproduction" /><cc:permits
         rdf:resource="http://creativecommons.org/ns#Distribution" /><cc:permits
         rdf:resource="http://creativecommons.org/ns#DerivativeWorks" /></cc:License></rdf:RDF></metadata><defs
   id="defs346" /><sodipodi:namedview
   pagecolor="#ffffff"
   bordercolor="#666666"
   borderopacity="1"
   objecttolerance="10"
   gridtolerance="10"
   guidetolerance="10"
   inkscape:pageopacity="0"
   inkscape:pageshadow="2"
   inkscape:window-width="1920"
   inkscape:window-height="1025"
   id="namedview344"
   showgrid="false"
   inkscape:zoom="1.4355232"
   inkscape:cx="-62.758771"
   inkscape:cy="103.94856"
   inkscape:window-x="-8"
   inkscape:window-y="-8"
   inkscape:window-maximized="1"
   inkscape:current-layer="flash0.ai"
   fit-margin-top="0"
   fit-margin-left="0"
   fit-margin-right="0"
   fit-margin-bottom="0" />
<g
   id="g341"
   transform="matrix(15.90336,0,0,15.90336,-174.27199,-397.584)">
	<path
   style="clip-rule:evenodd;fill:#2d4f1b;fill-rule:evenodd"
   d="m 21.83,29.18 0.12,0.101 c 0.133,0.08 0.253,0.08 0.359,0 0.16,-0.187 0.507,-0.267 1.04,-0.24 0.64,0.026 1.12,0.32 1.44,0.88 0.347,0.587 0.093,0.934 -0.76,1.04 -0.773,0.106 -1.307,0.04 -1.601,-0.2 -0.16,-0.133 -0.307,-0.453 -0.44,-0.96 z m -0.08,-0.06 c -1.387,0.054 -2.254,-0.066 -2.601,-0.36 -0.213,-0.187 -0.333,-0.506 -0.36,-0.96 l 0.041,-0.64 0.28,0.24 c 0.266,0.133 0.586,0.199 0.959,0.199 0.454,0 0.841,0.16 1.16,0.48 0.32,0.293 0.507,0.613 0.561,0.96 l 0.04,0.14 z"
   id="path2"
   inkscape:connector-curvature="0" />
	<path
   style="clip-rule:evenodd;fill:#2d4f1b;fill-rule:evenodd"
   d="m 23.79,31.439 c 0.427,-0.053 0.906,0.106 1.439,0.48 0.561,0.399 0.881,0.894 0.96,1.479 0.187,1.094 0.027,2.107 -0.479,3.04 -0.293,0.614 -0.373,1.134 -0.24,1.561 -0.187,-0.533 -0.227,-1.134 -0.12,-1.8 0.054,-0.533 -0.093,-1.134 -0.439,-1.801 -0.4,-0.72 -0.841,-1.093 -1.32,-1.119 -0.427,-0.027 -0.521,-0.334 -0.28,-0.92 z"
   id="path4"
   inkscape:connector-curvature="0" />
	<path
   style="clip-rule:evenodd;fill:#387329;fill-rule:evenodd"
   d="m 20.11,27.04 c 0.853,0.293 1.479,0.627 1.879,1 0.428,0.399 0.641,0.854 0.641,1.36 -0.054,0.826 -0.054,1.346 0,1.56 -2.16,-0.267 -3.134,-0.667 -2.92,-1.2 0.453,-1.04 0.094,-1.906 -1.08,-2.6 -0.586,-0.32 -0.84,-0.773 -0.76,-1.36 0.027,-0.293 0.12,-0.56 0.28,-0.8 -0.026,0.133 -0.04,0.28 -0.04,0.439 0.053,0.348 0.2,0.641 0.44,0.881 0.187,0.16 0.707,0.4 1.56,0.72 z"
   id="path6"
   inkscape:connector-curvature="0" />
	<path
   style="clip-rule:evenodd;fill:#48782a;fill-rule:evenodd"
   d="m 21.91,30.08 c 1.066,-0.373 2.066,-0.28 3,0.28 0.56,0.373 0.933,1.053 1.12,2.039 0.08,0.507 0.106,0.974 0.08,1.4 -0.188,-0.347 -0.454,-0.64 -0.801,-0.88 -0.693,-0.507 -1.453,-0.507 -2.279,0 -0.827,0.507 -1.254,0.187 -1.28,-0.96 z"
   id="path8"
   inkscape:connector-curvature="0" />
	
		<radialGradient
   id="SVGID_1_"
   cx="9.6738005"
   cy="-3.3438001"
   r="14.2673"
   gradientTransform="matrix(0.307,0.7387,0.7387,-0.307,16.6899,22.947)"
   gradientUnits="userSpaceOnUse">
		<stop
   offset="0"
   style="stop-color:#ED0101"
   id="stop10" />
		<stop
   offset="1"
   style="stop-color:#7E0806"
   id="stop12" />
	</radialGradient>
	<path
   style="clip-rule:evenodd;fill:url(#SVGID_1_);fill-rule:evenodd"
   d="m 12.95,33.64 c 0.187,-1.493 0.626,-2.68 1.32,-3.56 0.747,-0.986 1.733,-1.533 2.96,-1.641 2.426,-0.213 4.293,0.348 5.6,1.681 1.706,1.84 2.413,3.706 2.12,5.6 -0.214,1.52 -0.907,2.667 -2.08,3.44 -1.014,0.666 -2.188,1.053 -3.521,1.159 -1.733,0.16 -2.826,0.307 -3.28,0.44 -1.066,0.347 -2.04,0.427 -2.92,0.24 -0.907,-0.187 -1.374,-0.613 -1.4,-1.28 0,-0.533 0.133,-1.267 0.4,-2.2 0.348,-1.252 0.614,-2.545 0.801,-3.879 z"
   id="path15"
   inkscape:connector-curvature="0" />
	
		<radialGradient
   id="SVGID_2_"
   cx="9.2959003"
   cy="-2.3169"
   r="8.5518999"
   gradientTransform="matrix(0.3064,0.739,0.739,-0.3064,15.1749,23.5807)"
   gradientUnits="userSpaceOnUse">
		<stop
   offset="0"
   style="stop-color:#FF7D7D"
   id="stop17" />
		<stop
   offset="1"
   style="stop-color:#F51919"
   id="stop19" />
	</radialGradient>
	<path
   style="clip-rule:evenodd;fill:url(#SVGID_2_);fill-rule:evenodd"
   d="m 15.15,37.28 c 0.213,-0.027 0.4,-0.147 0.56,-0.36 0.133,-0.24 0.173,-0.521 0.12,-0.84 -0.08,-0.347 -0.267,-0.44 -0.56,-0.28 -0.187,0.08 -0.347,0.254 -0.48,0.52 -0.16,0.268 -0.187,0.507 -0.08,0.721 0.08,0.212 0.227,0.292 0.44,0.239 z m 1.08,-1.08 c 0.267,0.267 0.626,0.133 1.08,-0.4 0.16,-0.187 0.227,-0.387 0.2,-0.6 -0.054,-0.24 -0.267,-0.32 -0.641,-0.24 -0.266,0.053 -0.48,0.227 -0.64,0.52 -0.186,0.293 -0.186,0.533 0.001,0.72 z m 0.48,-3.28 c -0.32,0.319 -0.493,0.64 -0.52,0.96 -0.053,0.347 0.066,0.52 0.36,0.52 0.294,0 0.587,-0.227 0.88,-0.68 0.32,-0.427 0.466,-0.76 0.439,-1 -0.026,-0.24 -0.173,-0.333 -0.439,-0.28 -0.213,0.027 -0.453,0.186 -0.72,0.48 z m -0.68,-1.16 c 0.027,0.4 0.28,0.467 0.76,0.2 0.454,-0.267 0.747,-0.573 0.88,-0.92 0.133,-0.294 0.187,-0.479 0.16,-0.56 -0.054,-0.107 -0.213,-0.174 -0.48,-0.2 -0.267,-0.026 -0.561,0.106 -0.88,0.399 C 16.15,31 16.003,31.36 16.03,31.76 Z M 19.79,32 c -0.24,-0.054 -0.547,0.066 -0.92,0.36 -0.373,0.293 -0.6,0.613 -0.68,0.959 -0.08,0.374 0.053,0.547 0.4,0.521 0.32,0 0.627,-0.16 0.92,-0.479 0.267,-0.294 0.427,-0.574 0.479,-0.841 C 20.043,32.227 19.977,32.054 19.79,32 Z m -1.2,-1.04 c 0.027,0.427 0.374,0.36 1.04,-0.2 0.693,-0.586 0.854,-0.946 0.48,-1.08 -0.32,-0.106 -0.654,-0.026 -1,0.24 -0.373,0.267 -0.547,0.613 -0.52,1.04 z m -2.88,2.6 c -0.24,0 -0.493,0.134 -0.76,0.4 -0.293,0.293 -0.427,0.653 -0.4,1.08 0.027,0.32 0.174,0.467 0.44,0.439 0.267,-0.026 0.507,-0.187 0.72,-0.479 0.187,-0.294 0.293,-0.601 0.32,-0.92 0,-0.347 -0.107,-0.52 -0.32,-0.52 z M 15.59,31.6 c -0.24,-0.187 -0.6,0.08 -1.08,0.8 -0.134,0.24 -0.121,0.494 0.04,0.761 0.133,0.239 0.293,0.227 0.48,-0.04 l 0.36,-0.561 c 0.267,-0.586 0.333,-0.907 0.2,-0.96 z m 4.44,-2.161 c 0.746,0.054 0.813,0.521 0.199,1.4 -0.24,0.347 -0.626,0.587 -1.16,0.72 l 0.761,0.04 c 0.479,0.134 0.666,0.427 0.56,0.88 -0.24,0.881 -0.854,1.467 -1.84,1.76 -0.213,0.08 -0.44,0.121 -0.68,0.121 h -0.32 l 0.16,0.239 c 0.107,0.187 0.12,0.427 0.04,0.72 -0.08,0.32 -0.187,0.561 -0.32,0.721 -0.08,0.08 -0.28,0.199 -0.6,0.359 -0.293,0.16 -0.547,0.188 -0.76,0.08 -0.187,0.427 -0.427,0.707 -0.72,0.84 -0.187,0.107 -0.374,0.12 -0.56,0.041 -0.16,-0.08 -0.24,-0.188 -0.24,-0.32 v -0.2 c -0.373,0.347 -0.693,0.479 -0.96,0.399 -0.24,-0.106 -0.307,-0.399 -0.2,-0.879 -0.026,0.293 0.041,0.52 0.2,0.68 0.134,0.16 0.28,0.12 0.44,-0.12 0.187,-0.24 0.307,-0.521 0.359,-0.84 l 0.041,-0.4 c -0.107,-0.16 -0.24,-0.253 -0.4,-0.28 -0.17,0 -0.33,0.12 -0.48,0.36 l 0.2,-0.36 c -0.08,-0.053 -0.16,-0.146 -0.24,-0.279 0.106,0.106 0.227,0.133 0.36,0.08 0.106,-0.054 0.187,-0.146 0.24,-0.28 0.106,-0.24 0.173,-0.521 0.2,-0.84 0.053,-0.374 0.04,-0.561 -0.04,-0.561 -0.48,0 -0.773,0.307 -0.88,0.92 v 0.4 c -0.026,-0.187 -0.026,-0.4 0,-0.64 0.214,-0.773 0.547,-1.08 1,-0.92 -0.213,-0.107 -0.24,-0.414 -0.08,-0.92 0.107,-0.4 0.307,-0.734 0.6,-1 0.24,-0.24 0.44,-0.334 0.6,-0.28 l 0.32,0.04 c 0.32,-0.587 0.787,-0.946 1.4,-1.08 0.613,-0.16 0.894,-0.134 0.84,0.08 l 0.64,-0.36 c 0.507,-0.24 0.946,-0.347 1.32,-0.321 z"
   id="path22"
   inkscape:connector-curvature="0" />
	
		<radialGradient
   id="SVGID_3_"
   cx="13.2021"
   cy="4.0728002"
   r="0.42019999"
   gradientTransform="matrix(0.3094,0.7377,0.7377,-0.3094,5.7407,27.5206)"
   gradientUnits="userSpaceOnUse">
		<stop
   offset="0"
   style="stop-color:#FF7D7D"
   id="stop24" />
		<stop
   offset="1"
   style="stop-color:#F51919"
   id="stop26" />
	</radialGradient>
	<path
   style="clip-rule:evenodd;fill:url(#SVGID_3_);fill-rule:evenodd"
   d="m 13.11,35.92 c -0.214,0.267 -0.347,0.387 -0.4,0.36 -0.053,-0.027 -0.08,-0.094 -0.08,-0.2 l 0.04,-0.12 0.08,0.08 c 0.054,0.08 0.173,0.04 0.36,-0.12 z"
   id="path29"
   inkscape:connector-curvature="0" />
	
		<radialGradient
   id="SVGID_4_"
   cx="15.2075"
   cy="-3.165"
   r="1.2606"
   gradientTransform="matrix(0.3094,0.7377,0.7377,-0.3094,16.4197,23.0417)"
   gradientUnits="userSpaceOnUse">
		<stop
   offset="0"
   style="stop-color:#FF7D7D"
   id="stop31" />
		<stop
   offset="1"
   style="stop-color:#F51919"
   id="stop33" />
	</radialGradient>
	<path
   style="clip-rule:evenodd;fill:url(#SVGID_4_);fill-rule:evenodd"
   d="m 18.27,35.84 c 0.133,0.134 0.373,0.106 0.72,-0.08 0.32,-0.187 0.494,-0.44 0.52,-0.76 0,0.399 -0.134,0.706 -0.399,0.92 -0.374,0.267 -0.654,0.24 -0.841,-0.08 z"
   id="path36"
   inkscape:connector-curvature="0" />
	
		<radialGradient
   id="SVGID_5_"
   cx="12.9575"
   cy="-8.1107998"
   r="1.451"
   gradientTransform="matrix(0.3101,0.7374,0.7374,-0.3101,23.7125,19.9692)"
   gradientUnits="userSpaceOnUse">
		<stop
   offset="0"
   style="stop-color:#FF7D7D"
   id="stop38" />
		<stop
   offset="1"
   style="stop-color:#F51919"
   id="stop40" />
	</radialGradient>
	<path
   style="clip-rule:evenodd;fill:url(#SVGID_5_);fill-rule:evenodd"
   d="m 21.31,33.04 c 0.24,0.026 0.494,-0.094 0.76,-0.36 0.24,-0.24 0.32,-0.56 0.24,-0.96 0.214,0.267 0.214,0.613 0,1.04 -0.241,0.427 -0.574,0.52 -1,0.28 z"
   id="path43"
   inkscape:connector-curvature="0" />
	
		<radialGradient
   id="SVGID_6_"
   cx="16.3613"
   cy="-5.5770998"
   r="1.3952"
   gradientTransform="matrix(0.3082,0.7382,0.7382,-0.3082,19.9846,21.5624)"
   gradientUnits="userSpaceOnUse">
		<stop
   offset="0"
   style="stop-color:#FF7D7D"
   id="stop45" />
		<stop
   offset="1"
   style="stop-color:#F51919"
   id="stop47" />
	</radialGradient>
	<path
   style="clip-rule:evenodd;fill:url(#SVGID_6_);fill-rule:evenodd"
   d="m 20.27,36 c 0.24,0.106 0.534,0.04 0.88,-0.2 0.32,-0.24 0.547,-0.467 0.681,-0.68 -0.054,0.506 -0.28,0.84 -0.681,1 -0.239,0.08 -0.467,0.08 -0.68,0 z"
   id="path50"
   inkscape:connector-curvature="0" />
	
		<radialGradient
   id="SVGID_7_"
   cx="17.518999"
   cy="-1.4102"
   r="0.8635"
   gradientTransform="matrix(0.3011,0.7412,0.7412,-0.3011,13.8411,24.151)"
   gradientUnits="userSpaceOnUse">
		<stop
   offset="0"
   style="stop-color:#FF7D7D"
   id="stop52" />
		<stop
   offset="1"
   style="stop-color:#F51919"
   id="stop54" />
	</radialGradient>
	<path
   style="clip-rule:evenodd;fill:url(#SVGID_7_);fill-rule:evenodd"
   d="m 18.75,37.439 c 0,0.294 -0.173,0.454 -0.52,0.48 -0.187,0 -0.347,-0.04 -0.48,-0.12 l -0.12,-0.12 0.2,0.04 c 0.133,0.026 0.266,0.026 0.4,0 0.213,-0.052 0.387,-0.146 0.52,-0.28 z"
   id="path57"
   inkscape:connector-curvature="0" />
	
		<radialGradient
   id="SVGID_8_"
   cx="16.841801"
   cy="0.80369997"
   r="1.0702"
   gradientTransform="matrix(0.3084,0.7382,0.7382,-0.3084,10.5641,25.4952)"
   gradientUnits="userSpaceOnUse">
		<stop
   offset="0"
   style="stop-color:#FF7D7D"
   id="stop59" />
		<stop
   offset="1"
   style="stop-color:#F51919"
   id="stop61" />
	</radialGradient>
	<path
   style="clip-rule:evenodd;fill:url(#SVGID_8_);fill-rule:evenodd"
   d="m 16.99,37.52 0.04,0.2 c 0,0.16 -0.066,0.32 -0.2,0.48 -0.24,0.267 -0.56,0.279 -0.96,0.039 0.32,0 0.561,-0.053 0.72,-0.159 0.16,-0.08 0.293,-0.267 0.4,-0.56 z"
   id="path64"
   inkscape:connector-curvature="0" />
	
		<radialGradient
   id="SVGID_9_"
   cx="16.959"
   cy="2.7895999"
   r="0.82410002"
   gradientTransform="matrix(0.3034,0.7402,0.7402,-0.3034,7.6202,26.6923)"
   gradientUnits="userSpaceOnUse">
		<stop
   offset="0"
   style="stop-color:#FF7D7D"
   id="stop66" />
		<stop
   offset="1"
   style="stop-color:#F51919"
   id="stop68" />
	</radialGradient>
	<path
   style="clip-rule:evenodd;fill:url(#SVGID_9_);fill-rule:evenodd"
   d="m 15.27,38.239 c 0.053,0.16 0.04,0.307 -0.04,0.44 -0.08,0.133 -0.2,0.214 -0.36,0.24 -0.107,0.026 -0.2,0.026 -0.28,0 l -0.08,-0.04 c 0.24,0.026 0.413,-0.014 0.52,-0.12 z"
   id="path71"
   inkscape:connector-curvature="0" />
	
		<radialGradient
   id="SVGID_10_"
   cx="16.638201"
   cy="5.7217002"
   r="0.63849998"
   gradientTransform="matrix(0.3132,0.7361,0.7361,-0.3132,3.3259,28.585)"
   gradientUnits="userSpaceOnUse">
		<stop
   offset="0"
   style="stop-color:#FF7D7D"
   id="stop73" />
		<stop
   offset="1"
   style="stop-color:#F51919"
   id="stop75" />
	</radialGradient>
	<path
   style="clip-rule:evenodd;fill:url(#SVGID_10_);fill-rule:evenodd"
   d="m 13.19,38.92 c 0.053,0.187 -0.027,0.333 -0.24,0.44 -0.24,0.106 -0.4,0.066 -0.48,-0.121 l 0.28,0.041 c 0.106,0 0.253,-0.12 0.44,-0.36 z"
   id="path78"
   inkscape:connector-curvature="0" />
	
		<radialGradient
   id="SVGID_11_"
   cx="15.9233"
   cy="3.8148999"
   r="0.801"
   gradientTransform="matrix(0.3121,0.7366,0.7366,-0.3121,6.1303,27.3813)"
   gradientUnits="userSpaceOnUse">
		<stop
   offset="0"
   style="stop-color:#FF7D7D"
   id="stop80" />
		<stop
   offset="1"
   style="stop-color:#F51919"
   id="stop82" />
	</radialGradient>
	<path
   style="clip-rule:evenodd;fill:url(#SVGID_11_);fill-rule:evenodd"
   d="m 14.43,37.8 c -0.054,0.293 -0.187,0.48 -0.4,0.561 -0.24,0.106 -0.4,0.066 -0.48,-0.121 l 0.44,0.041 c 0.134,-0.054 0.28,-0.215 0.44,-0.481 z"
   id="path85"
   inkscape:connector-curvature="0" />
	
		<radialGradient
   id="SVGID_12_"
   cx="9.3607998"
   cy="-4.3593998"
   r="10.9282"
   gradientTransform="matrix(0.2086,0.7723,0.7723,-0.2086,18.4839,23.1814)"
   gradientUnits="userSpaceOnUse">
		<stop
   offset="0"
   style="stop-color:#F58758"
   id="stop87" />
		<stop
   offset="1"
   style="stop-color:#BD5206"
   id="stop89" />
	</radialGradient>
	<path
   style="clip-rule:evenodd;fill:url(#SVGID_12_);fill-rule:evenodd"
   d="m 15.23,30.04 c -0.16,0.507 -0.36,0.813 -0.6,0.92 -0.24,0.107 -0.32,0 -0.24,-0.32 0.134,-0.479 0.32,-0.76 0.561,-0.84 0.239,-0.054 0.332,0.026 0.279,0.24 z"
   id="path92"
   inkscape:connector-curvature="0" />
	
		<radialGradient
   id="SVGID_13_"
   cx="9.3642998"
   cy="-4.3520999"
   r="10.9435"
   gradientTransform="matrix(0.2093,0.7721,0.7721,-0.2093,18.4703,23.1789)"
   gradientUnits="userSpaceOnUse">
		<stop
   offset="0"
   style="stop-color:#F58758"
   id="stop94" />
		<stop
   offset="1"
   style="stop-color:#BD5206"
   id="stop96" />
	</radialGradient>
	<path
   style="clip-rule:evenodd;fill:url(#SVGID_13_);fill-rule:evenodd"
   d="m 17.35,30.72 c -0.08,0.561 -0.333,0.894 -0.76,1 -0.453,0.106 -0.56,-0.04 -0.32,-0.439 0.187,-0.347 0.426,-0.601 0.72,-0.761 0.293,-0.133 0.413,-0.067 0.36,0.2 z"
   id="path99"
   inkscape:connector-curvature="0" />
	
		<radialGradient
   id="SVGID_14_"
   cx="9.3642998"
   cy="-4.3520999"
   r="10.9435"
   gradientTransform="matrix(0.2093,0.7721,0.7721,-0.2093,18.4703,23.1789)"
   gradientUnits="userSpaceOnUse">
		<stop
   offset="0"
   style="stop-color:#F58758"
   id="stop101" />
		<stop
   offset="1"
   style="stop-color:#BD5206"
   id="stop103" />
	</radialGradient>
	<path
   style="clip-rule:evenodd;fill:url(#SVGID_14_);fill-rule:evenodd"
   d="m 19.71,32.28 c 0.08,0.479 -0.106,0.853 -0.561,1.119 -0.479,0.268 -0.706,0.227 -0.68,-0.119 0.027,-0.294 0.24,-0.587 0.641,-0.881 0.373,-0.293 0.573,-0.333 0.6,-0.119 z"
   id="path106"
   inkscape:connector-curvature="0" />
	
		<radialGradient
   id="SVGID_15_"
   cx="9.3642998"
   cy="-4.3520999"
   r="10.9435"
   gradientTransform="matrix(0.2093,0.7721,0.7721,-0.2093,18.4703,23.1789)"
   gradientUnits="userSpaceOnUse">
		<stop
   offset="0"
   style="stop-color:#F58758"
   id="stop108" />
		<stop
   offset="1"
   style="stop-color:#BD5206"
   id="stop110" />
	</radialGradient>
	<path
   style="clip-rule:evenodd;fill:url(#SVGID_15_);fill-rule:evenodd"
   d="m 21.39,34.84 c 0.373,0.026 0.387,0.214 0.04,0.56 -0.373,0.374 -0.72,0.507 -1.04,0.4 -0.32,-0.08 -0.32,-0.267 0,-0.561 0.32,-0.293 0.653,-0.426 1,-0.399 z"
   id="path113"
   inkscape:connector-curvature="0" />
	
		<radialGradient
   id="SVGID_16_"
   cx="9.3607998"
   cy="-4.3593998"
   r="10.9282"
   gradientTransform="matrix(0.2086,0.7723,0.7723,-0.2086,18.4839,23.1814)"
   gradientUnits="userSpaceOnUse">
		<stop
   offset="0"
   style="stop-color:#F58758"
   id="stop115" />
		<stop
   offset="1"
   style="stop-color:#BD5206"
   id="stop117" />
	</radialGradient>
	<path
   style="clip-rule:evenodd;fill:url(#SVGID_16_);fill-rule:evenodd"
   d="m 22.39,37.399 c 0.347,0 0.32,0.16 -0.08,0.48 -0.399,0.32 -0.72,0.453 -0.96,0.4 -0.213,-0.08 -0.16,-0.24 0.16,-0.48 0.346,-0.266 0.639,-0.4 0.88,-0.4 z"
   id="path120"
   inkscape:connector-curvature="0" />
	
		<radialGradient
   id="SVGID_17_"
   cx="9.3607998"
   cy="-4.3593998"
   r="10.9282"
   gradientTransform="matrix(0.2086,0.7723,0.7723,-0.2086,18.4839,23.1814)"
   gradientUnits="userSpaceOnUse">
		<stop
   offset="0"
   style="stop-color:#F58758"
   id="stop122" />
		<stop
   offset="1"
   style="stop-color:#BD5206"
   id="stop124" />
	</radialGradient>
	<path
   style="clip-rule:evenodd;fill:url(#SVGID_17_);fill-rule:evenodd"
   d="m 15.39,31.8 c -0.026,0.373 -0.16,0.693 -0.4,0.96 -0.213,0.267 -0.333,0.253 -0.36,-0.04 -0.026,-0.267 0.107,-0.533 0.4,-0.8 0.293,-0.32 0.413,-0.36 0.36,-0.12 z"
   id="path127"
   inkscape:connector-curvature="0" />
	
		<radialGradient
   id="SVGID_18_"
   cx="9.3642998"
   cy="-4.3520999"
   r="10.9435"
   gradientTransform="matrix(0.2093,0.7721,0.7721,-0.2093,18.4703,23.1789)"
   gradientUnits="userSpaceOnUse">
		<stop
   offset="0"
   style="stop-color:#F58758"
   id="stop129" />
		<stop
   offset="1"
   style="stop-color:#BD5206"
   id="stop131" />
	</radialGradient>
	<path
   style="clip-rule:evenodd;fill:url(#SVGID_18_);fill-rule:evenodd"
   d="m 17.51,32.64 c 0.293,0.214 0.253,0.521 -0.121,0.92 -0.346,0.4 -0.64,0.561 -0.879,0.48 -0.187,-0.107 -0.121,-0.4 0.2,-0.88 0.32,-0.454 0.586,-0.627 0.8,-0.52 z"
   id="path134"
   inkscape:connector-curvature="0" />
	
		<radialGradient
   id="SVGID_19_"
   cx="9.3642998"
   cy="-4.3520999"
   r="10.9435"
   gradientTransform="matrix(0.2093,0.7721,0.7721,-0.2093,18.4703,23.1789)"
   gradientUnits="userSpaceOnUse">
		<stop
   offset="0"
   style="stop-color:#F58758"
   id="stop136" />
		<stop
   offset="1"
   style="stop-color:#BD5206"
   id="stop138" />
	</radialGradient>
	<path
   style="clip-rule:evenodd;fill:url(#SVGID_19_);fill-rule:evenodd"
   d="m 19.31,34.84 c 0.16,0.187 0.066,0.413 -0.279,0.68 -0.347,0.294 -0.561,0.36 -0.641,0.2 -0.106,-0.16 -0.013,-0.387 0.28,-0.68 0.293,-0.32 0.507,-0.387 0.64,-0.2 z"
   id="path141"
   inkscape:connector-curvature="0" />
	
		<radialGradient
   id="SVGID_20_"
   cx="9.3642998"
   cy="-4.3520999"
   r="10.9435"
   gradientTransform="matrix(0.2093,0.7721,0.7721,-0.2093,18.4703,23.1789)"
   gradientUnits="userSpaceOnUse">
		<stop
   offset="0"
   style="stop-color:#F58758"
   id="stop143" />
		<stop
   offset="1"
   style="stop-color:#BD5206"
   id="stop145" />
	</radialGradient>
	<path
   style="clip-rule:evenodd;fill:url(#SVGID_20_);fill-rule:evenodd"
   d="m 20.47,37.16 c 0.08,0.213 -0.066,0.453 -0.439,0.72 -0.374,0.24 -0.627,0.267 -0.761,0.08 -0.133,-0.16 0.014,-0.373 0.44,-0.641 0.427,-0.265 0.68,-0.319 0.76,-0.159 z"
   id="path148"
   inkscape:connector-curvature="0" />
	
		<radialGradient
   id="SVGID_21_"
   cx="9.3642998"
   cy="-4.3520999"
   r="10.9435"
   gradientTransform="matrix(0.2093,0.7721,0.7721,-0.2093,18.4703,23.1789)"
   gradientUnits="userSpaceOnUse">
		<stop
   offset="0"
   style="stop-color:#F58758"
   id="stop150" />
		<stop
   offset="1"
   style="stop-color:#BD5206"
   id="stop152" />
	</radialGradient>
	<path
   style="clip-rule:evenodd;fill:url(#SVGID_21_);fill-rule:evenodd"
   d="m 20.39,39.439 c 0.48,0.027 0.561,0.134 0.24,0.32 -0.347,0.187 -0.641,0.24 -0.88,0.16 -0.214,-0.054 -0.214,-0.146 0,-0.28 0.187,-0.132 0.399,-0.2 0.64,-0.2 z"
   id="path155"
   inkscape:connector-curvature="0" />
	
		<radialGradient
   id="SVGID_22_"
   cx="9.3607998"
   cy="-4.3593998"
   r="10.9282"
   gradientTransform="matrix(0.2086,0.7723,0.7723,-0.2086,18.4839,23.1814)"
   gradientUnits="userSpaceOnUse">
		<stop
   offset="0"
   style="stop-color:#F58758"
   id="stop157" />
		<stop
   offset="1"
   style="stop-color:#BD5206"
   id="stop159" />
	</radialGradient>
	<path
   style="clip-rule:evenodd;fill:url(#SVGID_22_);fill-rule:evenodd"
   d="m 14.07,33.68 c 0.054,0.374 0,0.707 -0.16,1 -0.187,0.294 -0.307,0.28 -0.36,-0.04 -0.053,-0.293 0.014,-0.573 0.2,-0.84 0.186,-0.267 0.293,-0.307 0.32,-0.12 z"
   id="path162"
   inkscape:connector-curvature="0" />
	
		<radialGradient
   id="SVGID_23_"
   cx="9.3642998"
   cy="-4.3520999"
   r="10.9435"
   gradientTransform="matrix(0.2093,0.7721,0.7721,-0.2093,18.4703,23.1789)"
   gradientUnits="userSpaceOnUse">
		<stop
   offset="0"
   style="stop-color:#F58758"
   id="stop164" />
		<stop
   offset="1"
   style="stop-color:#BD5206"
   id="stop166" />
	</radialGradient>
	<path
   style="clip-rule:evenodd;fill:url(#SVGID_23_);fill-rule:evenodd"
   d="m 15.43,33.88 c 0.373,-0.106 0.466,0.094 0.28,0.6 -0.187,0.48 -0.44,0.747 -0.76,0.801 -0.213,0 -0.254,-0.214 -0.12,-0.641 0.133,-0.427 0.333,-0.68 0.6,-0.76 z"
   id="path169"
   inkscape:connector-curvature="0" />
	
		<radialGradient
   id="SVGID_24_"
   cx="9.3607998"
   cy="-4.3593998"
   r="10.9282"
   gradientTransform="matrix(0.2086,0.7723,0.7723,-0.2086,18.4839,23.1814)"
   gradientUnits="userSpaceOnUse">
		<stop
   offset="0"
   style="stop-color:#F58758"
   id="stop171" />
		<stop
   offset="1"
   style="stop-color:#BD5206"
   id="stop173" />
	</radialGradient>
	<path
   style="clip-rule:evenodd;fill:url(#SVGID_24_);fill-rule:evenodd"
   d="m 17.11,35.12 c 0.293,0.026 0.307,0.227 0.04,0.6 -0.267,0.347 -0.507,0.493 -0.72,0.44 -0.187,-0.08 -0.187,-0.267 0,-0.561 0.213,-0.319 0.44,-0.479 0.68,-0.479 z"
   id="path176"
   inkscape:connector-curvature="0" />
	
		<radialGradient
   id="SVGID_25_"
   cx="9.3607998"
   cy="-4.3593998"
   r="10.9282"
   gradientTransform="matrix(0.2086,0.7723,0.7723,-0.2086,18.4839,23.1814)"
   gradientUnits="userSpaceOnUse">
		<stop
   offset="0"
   style="stop-color:#F58758"
   id="stop178" />
		<stop
   offset="1"
   style="stop-color:#BD5206"
   id="stop180" />
	</radialGradient>
	<path
   style="clip-rule:evenodd;fill:url(#SVGID_25_);fill-rule:evenodd"
   d="m 18.47,37 c 0.293,0.133 0.333,0.267 0.12,0.399 -0.187,0.134 -0.427,0.2 -0.72,0.2 -0.24,0 -0.24,-0.12 0,-0.36 0.24,-0.213 0.44,-0.293 0.6,-0.239 z"
   id="path183"
   inkscape:connector-curvature="0" />
	
		<radialGradient
   id="SVGID_26_"
   cx="9.3607998"
   cy="-4.3593998"
   r="10.9282"
   gradientTransform="matrix(0.2086,0.7723,0.7723,-0.2086,18.4839,23.1814)"
   gradientUnits="userSpaceOnUse">
		<stop
   offset="0"
   style="stop-color:#F58758"
   id="stop185" />
		<stop
   offset="1"
   style="stop-color:#BD5206"
   id="stop187" />
	</radialGradient>
	<path
   style="clip-rule:evenodd;fill:url(#SVGID_26_);fill-rule:evenodd"
   d="m 19.03,38.92 c 0.399,0.054 0.466,0.16 0.199,0.319 -0.24,0.134 -0.506,0.2 -0.799,0.2 -0.24,0 -0.254,-0.093 -0.041,-0.279 0.188,-0.186 0.401,-0.266 0.641,-0.24 z"
   id="path190"
   inkscape:connector-curvature="0" />
	
		<radialGradient
   id="SVGID_27_"
   cx="9.3642998"
   cy="-4.3520999"
   r="10.9435"
   gradientTransform="matrix(0.2093,0.7721,0.7721,-0.2093,18.4703,23.1789)"
   gradientUnits="userSpaceOnUse">
		<stop
   offset="0"
   style="stop-color:#F58758"
   id="stop192" />
		<stop
   offset="1"
   style="stop-color:#BD5206"
   id="stop194" />
	</radialGradient>
	<path
   style="clip-rule:evenodd;fill:url(#SVGID_27_);fill-rule:evenodd"
   d="m 13.95,35.64 c 0.293,-0.133 0.373,0.066 0.24,0.6 -0.133,0.534 -0.307,0.747 -0.52,0.641 -0.16,-0.08 -0.2,-0.28 -0.12,-0.6 0.08,-0.321 0.213,-0.535 0.4,-0.641 z"
   id="path197"
   inkscape:connector-curvature="0" />
	
		<radialGradient
   id="SVGID_28_"
   cx="9.3642998"
   cy="-4.3520999"
   r="10.9435"
   gradientTransform="matrix(0.2093,0.7721,0.7721,-0.2093,18.4703,23.1789)"
   gradientUnits="userSpaceOnUse">
		<stop
   offset="0"
   style="stop-color:#F58758"
   id="stop199" />
		<stop
   offset="1"
   style="stop-color:#BD5206"
   id="stop201" />
	</radialGradient>
	<path
   style="clip-rule:evenodd;fill:url(#SVGID_28_);fill-rule:evenodd"
   d="m 15.47,35.96 c 0.267,0.026 0.28,0.253 0.041,0.68 -0.214,0.427 -0.4,0.561 -0.56,0.4 -0.133,-0.16 -0.133,-0.387 0,-0.68 0.132,-0.294 0.305,-0.427 0.519,-0.4 z"
   id="path204"
   inkscape:connector-curvature="0" />
	
		<radialGradient
   id="SVGID_29_"
   cx="9.3642998"
   cy="-4.3520999"
   r="10.9435"
   gradientTransform="matrix(0.2093,0.7721,0.7721,-0.2093,18.4703,23.1789)"
   gradientUnits="userSpaceOnUse">
		<stop
   offset="0"
   style="stop-color:#F58758"
   id="stop206" />
		<stop
   offset="1"
   style="stop-color:#BD5206"
   id="stop208" />
	</radialGradient>
	<path
   style="clip-rule:evenodd;fill:url(#SVGID_29_);fill-rule:evenodd"
   d="m 16.63,37.28 c 0.267,0.026 0.32,0.159 0.16,0.399 -0.186,0.24 -0.426,0.374 -0.72,0.4 -0.267,0.026 -0.28,-0.106 -0.04,-0.4 0.213,-0.266 0.413,-0.399 0.6,-0.399 z"
   id="path211"
   inkscape:connector-curvature="0" />
	
		<radialGradient
   id="SVGID_30_"
   cx="9.3607998"
   cy="-4.3593998"
   r="10.9282"
   gradientTransform="matrix(0.2086,0.7723,0.7723,-0.2086,18.4839,23.1814)"
   gradientUnits="userSpaceOnUse">
		<stop
   offset="0"
   style="stop-color:#F58758"
   id="stop213" />
		<stop
   offset="1"
   style="stop-color:#BD5206"
   id="stop215" />
	</radialGradient>
	<path
   style="clip-rule:evenodd;fill:url(#SVGID_30_);fill-rule:evenodd"
   d="m 17.31,38.84 c 0.267,0 0.32,0.106 0.16,0.32 -0.16,0.187 -0.387,0.293 -0.68,0.319 -0.293,0.027 -0.32,-0.08 -0.08,-0.319 0.213,-0.214 0.414,-0.32 0.6,-0.32 z"
   id="path218"
   inkscape:connector-curvature="0" />
	
		<radialGradient
   id="SVGID_31_"
   cx="9.3642998"
   cy="-4.3520999"
   r="10.9435"
   gradientTransform="matrix(0.2093,0.7721,0.7721,-0.2093,18.4703,23.1789)"
   gradientUnits="userSpaceOnUse">
		<stop
   offset="0"
   style="stop-color:#F58758"
   id="stop220" />
		<stop
   offset="1"
   style="stop-color:#BD5206"
   id="stop222" />
	</radialGradient>
	<path
   style="clip-rule:evenodd;fill:url(#SVGID_31_);fill-rule:evenodd"
   d="m 14.11,37.319 c 0.293,-0.106 0.386,-0.013 0.279,0.28 -0.133,0.294 -0.32,0.493 -0.56,0.601 -0.213,0.08 -0.253,-0.027 -0.12,-0.32 0.133,-0.293 0.268,-0.481 0.401,-0.561 z"
   id="path225"
   inkscape:connector-curvature="0" />
	
		<radialGradient
   id="SVGID_32_"
   cx="9.3642998"
   cy="-4.3520999"
   r="10.9435"
   gradientTransform="matrix(0.2093,0.7721,0.7721,-0.2093,18.4703,23.1789)"
   gradientUnits="userSpaceOnUse">
		<stop
   offset="0"
   style="stop-color:#F58758"
   id="stop227" />
		<stop
   offset="1"
   style="stop-color:#BD5206"
   id="stop229" />
	</radialGradient>
	<path
   style="clip-rule:evenodd;fill:url(#SVGID_32_);fill-rule:evenodd"
   d="m 14.87,38.08 c 0.267,-0.187 0.347,-0.12 0.24,0.2 -0.08,0.319 -0.227,0.506 -0.44,0.56 -0.187,0.026 -0.227,-0.066 -0.12,-0.28 0.08,-0.213 0.187,-0.373 0.32,-0.48 z"
   id="path232"
   inkscape:connector-curvature="0" />
	
		<radialGradient
   id="SVGID_33_"
   cx="9.3607998"
   cy="-4.3593998"
   r="10.9282"
   gradientTransform="matrix(0.2086,0.7723,0.7723,-0.2086,18.4839,23.1814)"
   gradientUnits="userSpaceOnUse">
		<stop
   offset="0"
   style="stop-color:#F58758"
   id="stop234" />
		<stop
   offset="1"
   style="stop-color:#BD5206"
   id="stop236" />
	</radialGradient>
	<path
   style="clip-rule:evenodd;fill:url(#SVGID_33_);fill-rule:evenodd"
   d="m 15.91,38.92 c 0.186,0 0.213,0.093 0.08,0.28 -0.133,0.213 -0.32,0.333 -0.56,0.359 -0.24,0.027 -0.267,-0.066 -0.08,-0.279 0.213,-0.24 0.4,-0.36 0.56,-0.36 z"
   id="path239"
   inkscape:connector-curvature="0" />
	
		<radialGradient
   id="SVGID_34_"
   cx="9.3642998"
   cy="-4.3520999"
   r="10.9435"
   gradientTransform="matrix(0.2093,0.7721,0.7721,-0.2093,18.4703,23.1789)"
   gradientUnits="userSpaceOnUse">
		<stop
   offset="0"
   style="stop-color:#F58758"
   id="stop241" />
		<stop
   offset="1"
   style="stop-color:#BD5206"
   id="stop243" />
	</radialGradient>
	<path
   style="clip-rule:evenodd;fill:url(#SVGID_34_);fill-rule:evenodd"
   d="m 13.03,37.16 c -0.08,0.507 -0.174,0.772 -0.28,0.8 -0.08,0.026 -0.133,-0.106 -0.16,-0.4 -0.026,-0.213 0.054,-0.387 0.24,-0.52 0.16,-0.107 0.227,-0.066 0.2,0.12 z"
   id="path246"
   inkscape:connector-curvature="0" />
	
		<radialGradient
   id="SVGID_35_"
   cx="9.3642998"
   cy="-4.3520999"
   r="10.9435"
   gradientTransform="matrix(0.2093,0.7721,0.7721,-0.2093,18.4703,23.1789)"
   gradientUnits="userSpaceOnUse">
		<stop
   offset="0"
   style="stop-color:#F58758"
   id="stop248" />
		<stop
   offset="1"
   style="stop-color:#BD5206"
   id="stop250" />
	</radialGradient>
	<path
   style="clip-rule:evenodd;fill:url(#SVGID_35_);fill-rule:evenodd"
   d="m 13.07,38.439 c 0.08,0.214 0.041,0.4 -0.12,0.561 -0.161,0.161 -0.293,0.187 -0.4,0.08 -0.106,-0.08 -0.053,-0.227 0.16,-0.44 0.186,-0.213 0.307,-0.28 0.36,-0.201 z"
   id="path253"
   inkscape:connector-curvature="0" />
	
		<radialGradient
   id="SVGID_36_"
   cx="9.3642998"
   cy="-4.3520999"
   r="10.9435"
   gradientTransform="matrix(0.2093,0.7721,0.7721,-0.2093,18.4703,23.1789)"
   gradientUnits="userSpaceOnUse">
		<stop
   offset="0"
   style="stop-color:#F58758"
   id="stop255" />
		<stop
   offset="1"
   style="stop-color:#BD5206"
   id="stop257" />
	</radialGradient>
	<path
   style="clip-rule:evenodd;fill:url(#SVGID_36_);fill-rule:evenodd"
   d="m 14.07,39.36 c 0.213,0 0.253,0.093 0.12,0.279 -0.133,0.186 -0.32,0.28 -0.56,0.28 -0.213,0 -0.24,-0.094 -0.08,-0.28 0.187,-0.186 0.36,-0.279 0.52,-0.279 z"
   id="path260"
   inkscape:connector-curvature="0" />
	
		<radialGradient
   id="SVGID_37_"
   cx="9.3642998"
   cy="-4.3520999"
   r="10.9435"
   gradientTransform="matrix(0.2093,0.7721,0.7721,-0.2093,18.4703,23.1789)"
   gradientUnits="userSpaceOnUse">
		<stop
   offset="0"
   style="stop-color:#F58758"
   id="stop262" />
		<stop
   offset="1"
   style="stop-color:#BD5206"
   id="stop264" />
	</radialGradient>
	<path
   style="clip-rule:evenodd;fill:url(#SVGID_37_);fill-rule:evenodd"
   d="m 13.15,35.16 c 0.027,0.239 -0.04,0.439 -0.2,0.6 -0.133,0.16 -0.2,0.146 -0.2,-0.04 0,-0.16 0.067,-0.333 0.2,-0.52 0.107,-0.16 0.174,-0.174 0.2,-0.04 z"
   id="path267"
   inkscape:connector-curvature="0" />
	
		<radialGradient
   id="SVGID_38_"
   cx="9.3633003"
   cy="-4.355"
   r="10.9556"
   gradientTransform="matrix(0.209,0.7722,0.7722,-0.209,18.4757,23.1792)"
   gradientUnits="userSpaceOnUse">
		<stop
   offset="0"
   style="stop-color:#F58758"
   id="stop269" />
		<stop
   offset="1"
   style="stop-color:#BD5206"
   id="stop271" />
	</radialGradient>
	<path
   style="clip-rule:evenodd;fill:url(#SVGID_38_);fill-rule:evenodd"
   d="m 13.83,31.8 c 0,0.427 -0.054,0.72 -0.16,0.88 -0.106,0.134 -0.173,0.054 -0.2,-0.24 -0.026,-0.267 0.027,-0.479 0.16,-0.64 0.133,-0.187 0.2,-0.187 0.2,0 z"
   id="path274"
   inkscape:connector-curvature="0" />
	
		<radialGradient
   id="SVGID_39_"
   cx="9.3642998"
   cy="-4.3520999"
   r="10.9435"
   gradientTransform="matrix(0.2093,0.7721,0.7721,-0.2093,18.4703,23.1789)"
   gradientUnits="userSpaceOnUse">
		<stop
   offset="0"
   style="stop-color:#F58758"
   id="stop276" />
		<stop
   offset="1"
   style="stop-color:#BD5206"
   id="stop278" />
	</radialGradient>
	<path
   style="clip-rule:evenodd;fill:url(#SVGID_39_);fill-rule:evenodd"
   d="m 17.23,29 c 0.374,-0.026 0.507,0.054 0.4,0.24 -0.106,0.213 -0.374,0.373 -0.8,0.479 -0.427,0.134 -0.534,0.054 -0.32,-0.239 0.186,-0.293 0.427,-0.454 0.72,-0.48 z"
   id="path281"
   inkscape:connector-curvature="0" />
	
		<radialGradient
   id="SVGID_40_"
   cx="9.3607998"
   cy="-4.3593998"
   r="10.9282"
   gradientTransform="matrix(0.2086,0.7723,0.7723,-0.2086,18.4839,23.1814)"
   gradientUnits="userSpaceOnUse">
		<stop
   offset="0"
   style="stop-color:#F58758"
   id="stop283" />
		<stop
   offset="1"
   style="stop-color:#BD5206"
   id="stop285" />
	</radialGradient>
	<path
   style="clip-rule:evenodd;fill:url(#SVGID_40_);fill-rule:evenodd"
   d="m 19.55,29.8 c 0.507,-0.133 0.613,0 0.32,0.4 -0.294,0.399 -0.561,0.587 -0.801,0.56 -0.213,-0.026 -0.239,-0.173 -0.08,-0.439 0.134,-0.295 0.321,-0.467 0.561,-0.521 z"
   id="path288"
   inkscape:connector-curvature="0" />
	
		<radialGradient
   id="SVGID_41_"
   cx="9.3607998"
   cy="-4.3593998"
   r="10.9282"
   gradientTransform="matrix(0.2086,0.7723,0.7723,-0.2086,18.4839,23.1814)"
   gradientUnits="userSpaceOnUse">
		<stop
   offset="0"
   style="stop-color:#F58758"
   id="stop290" />
		<stop
   offset="1"
   style="stop-color:#BD5206"
   id="stop292" />
	</radialGradient>
	<path
   style="clip-rule:evenodd;fill:url(#SVGID_41_);fill-rule:evenodd"
   d="m 21.79,31.72 c 0.427,0.106 0.52,0.347 0.279,0.72 -0.266,0.374 -0.506,0.507 -0.72,0.4 -0.187,-0.08 -0.213,-0.294 -0.08,-0.64 0.134,-0.346 0.307,-0.507 0.521,-0.48 z"
   id="path295"
   inkscape:connector-curvature="0" />
	
		<radialGradient
   id="SVGID_42_"
   cx="9.3642998"
   cy="-4.3520999"
   r="10.9435"
   gradientTransform="matrix(0.2093,0.7721,0.7721,-0.2093,18.4703,23.1789)"
   gradientUnits="userSpaceOnUse">
		<stop
   offset="0"
   style="stop-color:#F58758"
   id="stop297" />
		<stop
   offset="1"
   style="stop-color:#BD5206"
   id="stop299" />
	</radialGradient>
	<path
   style="clip-rule:evenodd;fill:url(#SVGID_42_);fill-rule:evenodd"
   d="m 23.43,34.04 c 0.106,0.479 0.066,0.813 -0.12,1 -0.187,0.16 -0.333,0.08 -0.439,-0.24 -0.08,-0.267 -0.027,-0.507 0.16,-0.72 0.212,-0.24 0.345,-0.254 0.399,-0.04 z"
   id="path302"
   inkscape:connector-curvature="0" />
	
		<radialGradient
   id="SVGID_43_"
   cx="9.3642998"
   cy="-4.3520999"
   r="10.9435"
   gradientTransform="matrix(0.2093,0.7721,0.7721,-0.2093,18.4703,23.1789)"
   gradientUnits="userSpaceOnUse">
		<stop
   offset="0"
   style="stop-color:#F58758"
   id="stop304" />
		<stop
   offset="1"
   style="stop-color:#BD5206"
   id="stop306" />
	</radialGradient>
	<path
   style="clip-rule:evenodd;fill:url(#SVGID_43_);fill-rule:evenodd"
   d="m 24.59,36.439 c 0.026,0.24 -0.08,0.48 -0.32,0.721 -0.213,0.239 -0.399,0.279 -0.56,0.12 -0.134,-0.134 -0.027,-0.36 0.32,-0.681 0.346,-0.319 0.533,-0.372 0.56,-0.16 z"
   id="path309"
   inkscape:connector-curvature="0" />
	
		<radialGradient
   id="SVGID_44_"
   cx="9.3607998"
   cy="-4.3593998"
   r="10.9282"
   gradientTransform="matrix(0.2086,0.7723,0.7723,-0.2086,18.4839,23.1814)"
   gradientUnits="userSpaceOnUse">
		<stop
   offset="0"
   style="stop-color:#F58758"
   id="stop311" />
		<stop
   offset="1"
   style="stop-color:#BD5206"
   id="stop313" />
	</radialGradient>
	<path
   style="clip-rule:evenodd;fill:url(#SVGID_44_);fill-rule:evenodd"
   d="m 19.75,28.8 c 0.319,0.054 0.399,0.134 0.239,0.24 -0.133,0.08 -0.319,0.093 -0.56,0.04 -0.213,-0.026 -0.24,-0.094 -0.08,-0.2 0.134,-0.08 0.267,-0.107 0.401,-0.08 z"
   id="path316"
   inkscape:connector-curvature="0" />
	
		<radialGradient
   id="SVGID_45_"
   cx="9.3607998"
   cy="-4.3593998"
   r="10.9282"
   gradientTransform="matrix(0.2086,0.7723,0.7723,-0.2086,18.4839,23.1814)"
   gradientUnits="userSpaceOnUse">
		<stop
   offset="0"
   style="stop-color:#F58758"
   id="stop318" />
		<stop
   offset="1"
   style="stop-color:#BD5206"
   id="stop320" />
	</radialGradient>
	<path
   style="clip-rule:evenodd;fill:url(#SVGID_45_);fill-rule:evenodd"
   d="m 21.27,29.8 c 0.4,-0.133 0.534,-0.054 0.4,0.24 -0.16,0.347 -0.32,0.493 -0.48,0.44 -0.106,-0.027 -0.133,-0.134 -0.079,-0.32 0.026,-0.186 0.078,-0.306 0.159,-0.36 z"
   id="path323"
   inkscape:connector-curvature="0" />
	
		<radialGradient
   id="SVGID_46_"
   cx="9.3642998"
   cy="-4.3520999"
   r="10.9435"
   gradientTransform="matrix(0.2093,0.7721,0.7721,-0.2093,18.4703,23.1789)"
   gradientUnits="userSpaceOnUse">
		<stop
   offset="0"
   style="stop-color:#F58758"
   id="stop325" />
		<stop
   offset="1"
   style="stop-color:#BD5206"
   id="stop327" />
	</radialGradient>
	<path
   style="clip-rule:evenodd;fill:url(#SVGID_46_);fill-rule:evenodd"
   d="m 23.31,31.56 c 0.054,0.373 0.027,0.601 -0.08,0.68 -0.08,0.107 -0.146,0.041 -0.199,-0.199 -0.027,-0.214 0,-0.4 0.08,-0.561 0.106,-0.16 0.172,-0.133 0.199,0.08 z"
   id="path330"
   inkscape:connector-curvature="0" />
	
		<radialGradient
   id="SVGID_47_"
   cx="9.3607998"
   cy="-4.3593998"
   r="10.9282"
   gradientTransform="matrix(0.2086,0.7723,0.7723,-0.2086,18.4839,23.1814)"
   gradientUnits="userSpaceOnUse">
		<stop
   offset="0"
   style="stop-color:#F58758"
   id="stop332" />
		<stop
   offset="1"
   style="stop-color:#BD5206"
   id="stop334" />
	</radialGradient>
	<path
   style="clip-rule:evenodd;fill:url(#SVGID_47_);fill-rule:evenodd"
   d="m 24.67,33.479 c 0,0.4 -0.054,0.681 -0.16,0.84 -0.08,0.16 -0.173,0.16 -0.28,0 -0.08,-0.133 -0.026,-0.373 0.16,-0.72 0.16,-0.319 0.254,-0.36 0.28,-0.12 z"
   id="path337"
   inkscape:connector-curvature="0" />
	<path
   style="clip-rule:evenodd;fill:#649433;fill-rule:evenodd"
   d="m 23.87,35.36 c 0.267,-0.214 0.52,-0.507 0.76,-0.881 0.507,-0.746 0.76,-1.506 0.76,-2.279 -0.026,-0.907 -0.373,-1.613 -1.04,-2.12 l 0.36,0.16 c 0.32,0.187 0.627,0.467 0.92,0.84 0.32,0.399 0.493,1 0.52,1.8 0.027,0.746 -0.066,1.28 -0.279,1.6 -0.321,0.533 -0.988,0.827 -2.001,0.88 z"
   id="path339"
   inkscape:connector-curvature="0" />
</g>
</svg>