<?xml version="1.0" encoding="UTF-8" standalone="no"?>
<!-- Generator: Adobe Illustrator 10.0, SVG Export Plug-In . SVG Version: 3.0.0 Build 77)  -->

<svg
   xmlns:i="http://ns.adobe.com/AdobeIllustrator/10.0/"
   xmlns:dc="http://purl.org/dc/elements/1.1/"
   xmlns:cc="http://creativecommons.org/ns#"
   xmlns:rdf="http://www.w3.org/1999/02/22-rdf-syntax-ns#"
   xmlns:svg="http://www.w3.org/2000/svg"
   xmlns="http://www.w3.org/2000/svg"
   xmlns:sodipodi="http://sodipodi.sourceforge.net/DTD/sodipodi-0.dtd"
   xmlns:inkscape="http://www.inkscape.org/namespaces/inkscape"
   i:rulerOrigin="0 0"
   i:viewOrigin="108.001 655"
   space="preserve"
   i:pageBounds="0 792 612 0"
   viewBox="0 0 247.44779 255.99999"
   enable-background="new 0 0 421.754 496.256"
   overflow="visible"
   version="1.1"
   id="svg133"
   sodipodi:docname="baseball_mitt.svg"
   inkscape:version="0.92.4 (5da689c313, 2019-01-14)"
   width="247.44778"
   height="256"
   style="overflow:visible">
  <title
     id="title944">Baseball Glove</title>
  <defs
     id="defs137" />
  <sodipodi:namedview
     pagecolor="#ffffff"
     bordercolor="#666666"
     borderopacity="1"
     objecttolerance="10"
     gridtolerance="10"
     guidetolerance="10"
     inkscape:pageopacity="0"
     inkscape:pageshadow="2"
     inkscape:window-width="1920"
     inkscape:window-height="1025"
     id="namedview135"
     showgrid="false"
     inkscape:zoom="0.47556099"
     inkscape:cx="-64.833275"
     inkscape:cy="222.42942"
     inkscape:window-x="-8"
     inkscape:window-y="-8"
     inkscape:window-maximized="1"
     inkscape:current-layer="svg133"
     fit-margin-top="0"
     fit-margin-left="0"
     fit-margin-right="0"
     fit-margin-bottom="0" />
  <g
     id="Layer_1"
     i:layer="yes"
     i:rgbTrio="#4F008000FFFF"
     i:dimmedPercent="50"
     transform="matrix(0.38351854,0.38351854,-0.38351854,0.38351854,130.77908,-40.668265)">
    <g
       id="g128"
       style="clip-rule:evenodd;fill-rule:evenodd">
      <path
         d="m 49.497,333.03 c -4.253,-8.823 -8.284,-20.907 -12.094,-36.881 -3.898,-16.141 -8.018,-40.267 -10.809,-58.499 -3.013,-18.231 -5.537,-33.033 -6.379,-49.884 -0.797,-17.103 1.019,-39.264 1.684,-50.846 0.487,-11.541 -0.886,-12.043 1.328,-17.813 2.038,-5.812 6.379,-11.75 11.119,-16.851 4.74,-5.185 10.189,-9.784 16.833,-13.966 1.772,-10.579 4.253,-19.36 7.442,-27.012 3.101,-7.61 5.936,-12.252 11.429,-18.44 5.538,-6.439 12.847,-14.092 21.219,-19.235 8.239,-5.144 19.713,-9.116 27.598,-11.458 7.619,-2.467 9.746,-2.342 18.517,-3.178 8.859,-1.003 21.44,-2.007 33.667,-2.216 12.049,-0.25 24.497,0.126 38.052,0.962 10.188,-1.38 18.783,-1.17 26.623,0.627 7.618,1.798 15.104,6.104 19.536,10.161 4.298,3.889 5.403,8.781 6.732,13.046 1.329,4.098 1.773,7.861 1.329,11.457 2.747,-1.798 6.157,-3.387 9.745,-4.766 3.634,-1.38 7.223,-4.433 12.14,-3.513 4.782,0.836 11.872,4.391 16.833,8.572 4.871,4.098 9.656,10.746 12.446,15.889 2.658,5.018 3.898,9.576 3.724,14.008 4.208,-1.84 8.192,-3.01 12.137,-3.512 3.854,-0.669 6.114,-2.174 11.074,0.334 4.917,2.425 13.201,9.659 17.853,14.928 4.475,5.352 7.618,11.875 8.771,16.517 0.974,4.432 -0.089,7.778 -3.014,10.203 3.324,-1.631 6.955,-2.425 11.253,-2.551 4.165,-0.292 10.586,-0.042 14.131,1.882 3.411,1.882 3.942,-0.042 6.732,9.868 2.569,9.994 6.912,35.125 9.436,49.592 2.437,14.342 4.696,20.155 5.405,36.002 0.441,15.932 -0.399,41.187 -2.038,58.164 -1.594,16.599 -2.125,25.633 -7.751,41.773 -5.848,16.266 -19.491,42.985 -26.581,54.65 -7.22,11.374 -10.852,8.572 -16.167,13.673 -5.362,4.934 -10.633,9.534 -15.814,16.393 -5.45,6.814 -10.721,17.393 -15.816,24.46 -5.182,6.9 -7.575,11.708 -14.838,17.146 -7.486,5.393 -22.947,10.703 -28.973,15.261 -5.979,4.392 -4.917,7.652 -7.044,11.708 -2.48,4.1 -3.987,7.695 -6.731,12.713 -2.793,4.976 -6.514,14.091 -9.436,16.852 -2.969,2.55 -5.716,-1.214 -8.063,-0.962 -2.392,0.208 -4.076,2.675 -6.068,2.55 -2.17,-0.209 -4.254,-1.38 -6.424,-3.512 -10.409,-6.858 -23.479,-12.838 -39.735,-18.441 -16.435,-5.77 -41.597,-10.912 -57.544,-14.928 -15.991,-4.056 -30.964,-6.104 -37.742,-8.906 -6.822,-2.842 -1.506,-5.059 -3.012,-8.277 -1.728,-3.556 -5.05,-7.736 -6.733,-12.044 -1.595,-4.518 -2.614,-9.451 -3.057,-13.673 -0.576,-4.141 1.196,-6.942 -0.665,-10.83 -2.038,-4.016 -7.265,-6.481 -11.429,-12.711 -4.341,-6.316 -8.993,-15.388 -14.131,-24.462 -5.157,-9.19 -10.782,-18.97 -16.718,-30.01 z M 118.12,63.24 c 5.315,-2.885 12.005,-5.687 20.555,-8.238 8.505,-2.718 22.415,-5.854 29.945,-7.317 7.354,-1.505 12.005,-2.09 14.131,-1.589 0.487,9.157 0.266,19.694 -0.665,32.114 -1.107,12.419 -3.411,28.225 -5.05,41.605 -1.639,13.213 -2.968,24.712 -4.695,37.215 -1.772,12.461 -4.076,27.054 -6.069,36.838 -2.126,9.617 -2.437,15.053 -6.733,20.657 -4.43,5.436 -10.941,9.408 -19.535,12.084 1.063,-8.154 1.285,-17.938 0.664,-29.855 -0.62,-12.042 -2.082,-25.548 -4.385,-41.313 -2.392,-15.806 -6.777,-37.006 -9.746,-52.478 -3.1,-15.476 -5.85,-28.564 -8.41,-39.728 z"
         i:knockout="Off"
         stroke-miterlimit="10"
         id="path2"
         inkscape:connector-curvature="0"
         style="fill:#e5953c;stroke:#e5953c;stroke-width:0.036;stroke-miterlimit:10" />
      <path
         d="m 35.41,126.13 c -3.101,0.878 -5.094,0.752 -5.98,-0.544 -1.063,-1.38 -1.417,-4.851 0.311,-7.025 1.595,-2.258 5.67,-5.394 9.834,-6.188 4.208,-0.836 12.049,-0.46 15.15,1.129 2.747,1.505 2.569,3.011 2.392,8.405 -0.266,5.52 -2.614,13.338 -3.278,23.918 -0.931,10.495 -2.083,23.375 -0.886,38.176 1.196,14.677 6.069,37.089 8.638,49.174 2.481,11.833 3.81,13.38 6.557,22.203 2.613,8.741 5.847,18.649 9.523,30.065 -2.569,-0.753 -5.315,-0.502 -8.062,0.293 -2.923,0.794 -5.582,2.384 -8.638,4.766 -4.208,-11.497 -7.974,-24.294 -11.296,-39.346 -3.411,-15.137 -6.911,-36.379 -8.948,-50.01 -2.082,-13.632 -3.721,-21.242 -3.544,-31.193 0.044,-10.161 3.146,-21.493 3.854,-28.351 0.576,-6.857 0.266,-9.534 -0.576,-12.084 -0.976,-2.6 -2.659,-3.72 -5.051,-3.39 z"
         i:knockout="Off"
         id="path4"
         inkscape:connector-curvature="0"
         style="fill:#f0a04a" />
      <path
         d="m 244.01,207.96 c -2.438,12.586 -5.049,12.251 -9.215,15.471 -4.518,3.053 -14.573,9.283 -16.654,3.345 -1.949,-6.063 1.461,-21.66 4.738,-39.055 3.279,-17.646 9.305,-48.546 14.308,-65.147 4.785,-16.517 12.094,-37.675 14.267,-33.452 1.949,4.349 -0.799,38.595 -2.084,58.708 -1.3,19.95 -3.03,47.29 -5.38,60.13 z"
         i:knockout="Off"
         id="path6"
         inkscape:connector-curvature="0"
         style="fill:#f0a04a" />
      <path
         d="m 311.57,151.51 c 1.063,6.941 -0.089,24.921 -0.577,35.375 -0.574,10.119 -0.663,16.014 -2.658,25.59 -2.17,9.534 -5.847,23.458 -9.834,31.152 -4.208,7.527 -11.428,16.559 -14.308,14.049 -2.925,-2.886 -4.606,-17.353 -2.658,-30.022 1.993,-12.837 11.474,-33.828 14.265,-45.536 2.479,-11.541 0.132,-17.938 1.507,-23.876 1.415,-6.147 4.65,-11.29 7.131,-12.377 2.34,-1.2 5.98,-1.2 7.13,5.66 z"
         i:knockout="Off"
         id="path8"
         inkscape:connector-curvature="0"
         style="fill:#f0a04a" />
      <path
         d="m 337.48,87.996 c -1.904,2.509 2.305,9.157 3.588,12.67 1.019,3.219 0.355,6.397 3.278,7.275 2.836,0.878 12.449,1.38 13.956,-2.217 1.372,-3.805 -2.26,-17.018 -5.626,-19.945 -3.64,-2.922 -13.21,-0.414 -15.2,2.221 z"
         i:knockout="Off"
         id="path10"
         inkscape:connector-curvature="0"
         style="fill:#f0a04a" />
      <path
         d="m 381.51,133.78 c -4.96,-1.297 -8.063,-0.92 -9.791,1.129 -1.639,1.881 -1.504,3.972 -0.31,10.955 1.196,7.066 5.141,18.817 6.866,31.193 1.55,12.335 2.084,26.385 2.084,42.149 -0.135,15.722 -1.154,37.634 -2.704,51.39 -1.729,13.548 -4.252,20.531 -6.866,29.814 -2.701,9.114 -6.023,18.939 -8.592,25.129 -2.572,6.231 -4.918,9.952 -6.867,11.792 2.834,0.46 4.918,1.967 6.247,4.517 1.062,2.509 0.531,9.659 1.504,10.662 0.976,0.794 0.887,3.68 5.05,-5.059 4.076,-8.99 15.239,-27.473 19.626,-47.209 4.34,-19.82 5.979,-47.334 6.289,-69.956 0.132,-22.705 -3.101,-48.379 -5.095,-64.604 -2.13,-16.21 -4.61,-26.62 -7.45,-31.89 z"
         i:knockout="Off"
         id="path12"
         inkscape:connector-curvature="0"
         style="fill:#f0a04a" />
      <path
         d="m 288.22,52.537 c -1.239,2.175 3.278,7.276 4.165,11.249 0.664,3.764 -1.55,9.701 0.885,11.499 2.482,1.631 12.314,1.924 14.31,-1.379 1.86,-3.513 -1.685,-15.262 -2.968,-19.109 -1.373,-3.889 -2.438,-3.637 -5.096,-3.931 -2.91,-0.462 -10.08,-0.545 -11.28,1.671 z"
         i:knockout="Off"
         id="path14"
         inkscape:connector-curvature="0"
         style="fill:#f0a04a" />
      <path
         d="m 203.7,14.611 c 4.431,1.171 18.031,1.672 24.72,3.931 6.511,2.216 10.632,6.69 14.573,9.575 3.81,2.927 5.98,6.732 8.904,7.568 2.88,0.585 7.886,-1.003 8.374,-3.637 0.265,-2.677 -2.173,-8.531 -6.292,-12.085 -4.43,-3.721 -11.916,-7.401 -19.049,-9.575 -7.177,-2.258 -17.764,-3.429 -23.212,-3.345 -5.67,0.042 -8.416,2.885 -9.79,4.181 -1.41,1.088 -2.69,2.216 1.78,3.387 z"
         i:knockout="Off"
         id="path16"
         inkscape:connector-curvature="0"
         style="fill:#f0a04a" />
      <path
         d="m 126,395 c -1.285,2.594 3.588,6.313 10.012,10.706 6.467,4.222 17.586,10.326 28.218,14.467 10.41,4.097 21.794,7.275 34.331,9.7 12.403,2.3 27.331,3.889 39.824,3.973 12.36,-0.125 26.313,-1.965 34.021,-4.223 7.44,-2.425 12.492,-7.318 11.074,-9.702 -1.507,-2.466 -7.929,-2.298 -19.758,-4.515 -12.005,-2.385 -40.265,-8.698 -51.474,-8.949 -11.252,-0.293 -9.48,8.572 -15.549,7.234 -6.202,-1.588 -15.593,-14.594 -21.352,-15.933 -5.891,-1.295 -8.151,8.741 -13.466,7.695 -5.582,-1.38 -12.359,-13.131 -18.472,-14.928 -6.15,-1.85 -16.16,1.96 -17.4,4.47 z"
         i:knockout="Off"
         id="path18"
         inkscape:connector-curvature="0"
         style="fill:#f0a04a" />
      <path
         d="m 262.13,440.07 c -8.152,2.049 -10.986,2.509 -21.131,2.509 -10.365,-0.084 -26.802,-1.089 -39.559,-3.013 -12.847,-2.133 -24.586,-5.059 -36.414,-8.947 -11.961,-3.972 -25.516,-9.283 -34.021,-14.467 -8.594,-5.354 -11.828,-10.83 -16.878,-16.935 -5.094,-6.356 -10.72,-13.968 -13.466,-19.904 -2.835,-6.021 -3.81,-14.844 -3.411,-15.18 0.266,-0.249 1.506,6.858 5.272,13.424 3.721,6.354 10.366,18.105 16.877,24.92 6.29,6.69 10.499,10.329 21.352,15.431 10.986,5.06 28.041,11.164 43.812,14.928 15.638,3.596 34.997,6.272 49.347,6.73 14.221,0.293 26.005,-2.675 35.351,-4.723 9.126,-2.176 13.291,-4.726 19.491,-7.988 5.937,-3.428 11.342,-6.857 16.922,-11.917 5.583,-5.186 14.398,-16.39 16.879,-18.44 2.26,-2.09 -0.31,2.677 -2.925,6.231 -2.79,3.344 -7.529,9.825 -12.668,14.426 -5.139,4.558 -10.233,8.99 -17.677,12.963 -7.74,3.81 -18.9,7.82 -27.14,9.95 z"
         i:knockout="Off"
         id="path20"
         inkscape:connector-curvature="0"
         style="fill:#f0a04a" />
      <path
         d="m 147.09,430.62 c 5.315,1.881 14.22,4.014 22.946,6.229 8.638,2.133 19.403,4.769 28.528,6.44 8.993,1.423 16.966,2.217 25.294,3.011 8.151,0.794 16.348,2.133 23.744,1.756 7.354,-0.626 19.713,-5.311 20.333,-5.019 0.355,0.336 -11.429,5.479 -17.41,6.733 -6.112,1.046 -9.878,0.293 -18.472,0 -8.727,-0.252 -23.168,-0.753 -33.224,-1.965 -10.1,-1.422 -18.029,-3.723 -27.199,-6.231 -9.524,-2.593 -21.13,-5.813 -28.484,-8.99 -7.354,-3.219 -10.587,-6.939 -15.017,-10.202 -4.519,-3.512 -11.606,-8.949 -11.872,-9.7 -0.31,-0.753 5.892,3.179 9.746,5.477 3.722,2.176 8.771,5.563 12.404,7.735 3.4,2 3.45,2.88 8.68,4.72 z"
         i:knockout="Off"
         id="path22"
         inkscape:connector-curvature="0"
         style="fill:#f0a04a" />
      <path
         d="m 110.45,410.18 c -0.443,0.542 -10.543,-10.204 -15.593,-19.151 -5.228,-9.074 -10.189,-23.416 -14.22,-34.623 -3.987,-11.416 -7.708,-25.465 -9.258,-32.615 -1.639,-7.067 -1.241,-11.958 0,-9.701 1.24,2.133 4.873,15.18 7.132,22.872 2.038,7.652 2.525,14.678 5.538,23.167 2.968,8.445 7.841,18.563 12.403,27.137 4.518,8.3 14.088,22.18 13.998,22.9 z"
         i:knockout="Off"
         id="path24"
         inkscape:connector-curvature="0"
         style="fill:#f0a04a" />
      <path
         d="m 69.519,306.6 c -0.708,0.041 -3.588,-7.15 -3.676,-9.952 -0.089,-2.802 1.329,-5.312 3.411,-6.232 2.038,-0.959 6.379,-0.542 8.727,0.754 2.126,1.338 3.5,3.555 4.475,6.48 0.93,2.678 1.772,10.077 1.329,9.953 -0.665,-0.293 -2.791,-8.405 -4.475,-10.955 -1.86,-2.634 -3.455,-4.057 -5.271,-4.266 -1.816,-0.376 -4.032,0.377 -4.785,2.759 -0.887,2.31 0.797,11.14 0.265,11.47 z"
         i:knockout="Off"
         id="path26"
         inkscape:connector-curvature="0"
         style="fill:#f0a04a" />
      <path
         d="m 76.12,307.35 c -0.044,-2.258 -0.532,-4.306 -1.285,-5.979 -0.931,-1.799 -3.677,-3.471 -3.456,-4.224 0.266,-0.837 3.234,-1.003 4.474,-0.501 0.974,0.249 0.886,-0.084 1.595,2.718 0.531,2.842 1.151,7.526 1.86,14.217 0.709,5.143 1.905,11.331 3.411,18.899 1.374,7.568 3.056,17.772 5.537,25.926 2.481,7.944 5.626,14.678 9.258,21.66 3.411,6.898 7.088,13.421 11.872,19.4 4.874,5.813 10.1,10.747 16.878,15.472 6.689,4.601 14.708,9.115 22.681,12.419 7.708,3.094 15.061,4.476 23.744,6.732 8.594,2.09 18.561,4.851 27.687,6.481 8.948,1.504 17.63,2.634 25.87,3.22 8.018,0.628 15.548,1.002 22.947,0.501 7.353,-0.753 14.351,-2.217 21.352,-4.222 6.999,-2.133 14.264,-5.019 20.065,-7.988 5.537,-2.969 8.772,-6.021 13.469,-9.952 4.607,-4.056 9.436,-7.86 14.484,-14.174 5.096,-6.524 10.455,-15.849 15.593,-24.419 5.096,-8.741 11.431,-21.492 14.221,-27.139 2.349,-5.729 -0.355,-5.561 0.798,-6.731 1.24,-1.338 5.581,-1.13 6.333,-0.503 0.488,0.544 -1.019,1.129 -2.612,4.015 -1.639,2.678 -3.677,7.275 -6.602,12.67 -2.966,5.312 -6.244,11.625 -10.852,19.444 -4.742,7.736 -10.543,19.108 -16.879,26.885 -6.6,7.654 -14.175,14.177 -21.351,18.943 -7.266,4.517 -13.158,6.524 -21.087,8.949 -7.929,2.382 -17.101,4.723 -26.137,5.729 -9.301,0.834 -17.453,0.753 -28.218,-0.252 -10.853,-1.255 -24.009,-3.304 -35.881,-5.98 -11.917,-2.55 -23.921,-5.268 -34.819,-9.448 -11.074,-4.517 -22.637,-10.538 -30.61,-16.434 -8.106,-5.813 -11.739,-11.291 -16.877,-18.691 -5.183,-7.694 -9.79,-18.021 -13.467,-26.635 -3.633,-8.614 -6.334,-16.727 -8.461,-24.671 -2.348,-8.028 -4.075,-16.559 -5.006,-22.663 -0.925,-6.13 -1.102,-10.68 -0.526,-13.7 z"
         i:knockout="Off"
         id="path28"
         inkscape:connector-curvature="0"
         style="fill:#8d5c25" />
      <path
         d="m 52.11,333.49 c 1.196,-2.341 19.314,10.372 23.744,16.184 4.075,5.52 -0.886,10.411 1.329,17.437 2.259,7.023 6.645,16.475 11.606,24.167 4.74,7.654 13.334,15.976 16.877,20.907 3.323,4.685 -1.195,3.848 3.721,7.486 5.05,3.512 13.29,9.156 25.561,14.175 12.138,4.934 31.762,11.499 46.203,15.68 14.175,4.1 29.06,7.736 39.027,8.99 9.789,1.046 12.801,0 20.333,-2.007 7.486,-2.174 15.371,-6.815 24.497,-10.202 9.08,-3.471 25.869,-9.66 29.547,-10.202 3.41,-0.669 -4.43,1.087 -8.684,6.731 -4.386,5.644 -13.156,19.904 -17.41,27.139 -4.383,7.191 -6.157,14.133 -8.727,15.681 -2.657,1.252 -5.979,-2.637 -6.866,-7.486 -0.884,-5.019 2.216,-19.945 1.596,-21.409 -0.841,-1.463 -4.03,8.739 -5.804,13.215 -1.814,4.431 -1.949,11.917 -5.004,13.421 -3.191,1.255 -4.742,-1.672 -13.732,-5.227 -9.26,-3.555 -25.029,-10.871 -40.623,-15.681 -15.726,-4.975 -38.628,-9.7 -52.494,-13.212 -13.91,-3.555 -24.674,-4.1 -30.079,-7.443 -5.449,-3.431 -0.93,-8.657 -2.348,-12.461 -1.55,-3.932 -4.695,-6.23 -6.334,-10.454 -1.728,-4.306 -2.171,-10.998 -3.721,-14.927 -1.772,-4.1 -3.057,-5.271 -6.069,-8.991 -3.101,-3.888 -8.505,-8.153 -11.606,-13.423 -3.189,-5.311 -3.057,-9.7 -7.132,-17.686 -4.271,-8.17 -18.447,-28.03 -17.428,-30.41 z"
         i:knockout="Off"
         id="path30"
         inkscape:connector-curvature="0"
         style="fill:#c37f33" />
      <path
         d="m 113.6,435.6 c 17.232,4.349 33.667,8.906 50.146,13.675 16.479,4.682 35.173,10.285 47.71,14.719 12.402,4.349 20.863,7.944 25.87,11.456 4.782,3.387 5.759,6.313 2.923,8.949 2.037,-2.3 -0.399,-5.146 -7.131,-8.697 -6.955,-3.64 -18.473,-7.82 -33.535,-12.714 -15.282,-5.1 -42.615,-13.087 -56.702,-16.683 -14.087,-3.596 -22.016,-2.97 -26.889,-4.726 -5.01,-1.77 -5.63,-3.82 -2.39,-5.99 z"
         i:knockout="Off"
         id="path32"
         inkscape:connector-curvature="0"
         style="fill:#8d5c25" />
      <path
         d="m 258.41,460.48 c -0.931,1.675 0.798,15.431 2.127,16.434 1.285,0.921 5.493,-8.028 5.272,-10.703 -0.45,-2.89 -6.56,-7.49 -7.4,-5.73 z"
         i:knockout="Off"
         id="path34"
         inkscape:connector-curvature="0"
         style="fill:#8d5c25" />
      <path
         d="m 113.6,419.92 c -2.348,0.043 -1.462,6.481 0.265,8.697 1.55,2.301 6.468,4.393 8.948,4.474 2.259,-0.249 6.822,-3.01 5.316,-5.227 -1.73,-2.3 -12.1,-8.07 -14.53,-7.94 z"
         i:knockout="Off"
         id="path36"
         inkscape:connector-curvature="0"
         style="fill:#8d5c25" />
      <path
         d="m 133.13,384.54 c 6.202,2.341 11.208,2.049 15.549,3.471 4.252,1.42 1.993,4.892 10.809,5.227 8.948,0.125 30.433,-5.311 42.217,-3.723 11.607,1.591 13.643,12.586 27.154,13.464 13.555,0.797 43.855,-4.723 53.291,-8.486 9.126,-3.889 16.035,-7.652 1.594,-14.177 -14.838,-6.773 -64.72,-15.805 -88.64,-25.172 -24.054,-9.491 -41.507,-19.861 -53.557,-30.607 -12.004,-10.83 -12.625,-24.043 -17.409,-33.368 -4.74,-9.449 -6.512,-19.777 -10.809,-22.412 -4.563,-2.593 -13.333,-0.961 -15.548,6.982 -2.215,8.029 -0.797,27.222 2.348,40.309 3.146,12.838 14.264,26.679 16.125,36.379 1.551,9.451 -8.594,15.556 -5.803,20.907 2.89,5.36 16.09,8.66 22.69,11.21 z"
         i:knockout="Off"
         id="path38"
         inkscape:connector-curvature="0"
         style="fill:#c37f33" />
      <path
         d="m 141.81,228.83 c -3.543,2.383 -7.885,5.979 -13.688,10.955 -5.891,4.934 -15.947,17.187 -20.599,18.69 -4.74,1.297 -4.385,-3.929 -7.132,-10.202 -2.88,-6.439 -6.645,-15.722 -9.746,-27.389 -3.322,-11.833 -6.467,-27.89 -9.258,-42.358 -2.924,-14.635 -5.714,-31.905 -7.353,-44.072 -1.551,-12.21 -1.861,-21.074 -2.126,-27.89 -0.487,-6.816 -0.266,-15.471 -0.532,-12.419 -0.576,3.01 -2.392,19.695 -1.861,30.357 0.62,10.621 2.968,20.239 5.316,32.867 2.126,12.544 5.183,29.187 7.619,41.856 2.304,12.502 2.968,21.284 6.6,33.117 3.633,11.792 11.518,31.904 14.795,37.09 3.101,4.891 4.475,2.633 3.943,-7.234 4.74,-4.182 9.613,-8.489 15.283,-13.424 5.538,-5.017 14.708,-12.585 17.941,-15.93 3.12,-3.41 3.38,-4.74 0.81,-4.03 z"
         i:knockout="Off"
         id="path40"
         inkscape:connector-curvature="0"
         style="fill:#8d5c25" />
      <path
         d="m 113.6,229.83 c -1.063,-6.522 -1.329,-23.082 -3.677,-38.845 -2.481,-15.765 -7.265,-39.18 -10.587,-54.777 -3.456,-15.764 -8.993,-36.671 -8.948,-38.343 0.133,-1.464 6.246,17.604 9.48,29.145 3.012,11.415 6.379,26.677 8.727,38.845 2.126,12.001 3.854,22.497 5.006,33.117 1.151,10.496 2.347,24.587 2.392,29.856 -0.18,5.07 -1.37,7.28 -2.39,1.01 z"
         i:knockout="Off"
         id="path42"
         inkscape:connector-curvature="0"
         style="fill:#8d5c25" />
      <path
         d="m 132.07,222.14 c -0.842,-4.725 -0.752,-18.858 -1.594,-30.148 -0.93,-11.374 -1.107,-20.614 -3.943,-37.089 -3.101,-16.684 -11.917,-52.477 -13.466,-61.258 -1.462,-8.655 1.506,-0.585 4.474,9.701 2.924,10.454 9.702,36.755 12.67,51.808 2.657,14.677 3.455,25.506 4.252,36.337 0.753,10.788 1.063,22.663 0.753,27.89 -0.48,5.14 -2.39,7.19 -3.14,2.76 z"
         i:knockout="Off"
         id="path44"
         inkscape:connector-curvature="0"
         style="fill:#b0722e" />
      <path
         d="m 230.81,233.89 c 1.506,-1.84 7.266,-1.84 10.811,-9.199 3.363,-7.443 6.952,-19.82 9.744,-34.874 2.702,-15.262 4.961,-36.922 6.601,-55.279 1.461,-18.482 2.525,-40.184 2.658,-53.815 0,-13.631 -2.303,-21.66 -2.127,-27.305 0,-5.729 2.038,-6.69 2.879,-6.732 0.844,-0.125 1.816,0.209 2.394,6.481 0.485,6.272 0.663,15.681 0.531,31.11 -0.267,15.388 -0.666,43.111 -1.86,60.756 -1.286,17.395 -3.103,29.563 -5.804,43.612 -2.836,13.966 -7.177,31.235 -10.809,39.849 -3.897,8.447 -9.303,9.785 -11.607,10.956 -2.303,1.045 -1.326,-3.68 -1.86,-4.516 -0.65,-1.01 -3.05,0.58 -1.54,-1.05 z"
         i:knockout="Off"
         id="path46"
         inkscape:connector-curvature="0"
         style="fill:#8d5c25" />
      <path
         d="m 290.26,261.02 c 0.442,-1.924 2.038,-3.054 4.785,-8.698 2.569,-5.812 8.106,-17.186 10.809,-24.921 2.568,-7.652 3.41,-13.088 4.739,-20.657 1.285,-7.568 2.259,-14.342 2.925,-24.67 0.62,-10.621 0.62,-26.887 0.487,-37.842 -0.398,-10.956 -2.038,-19.569 -2.348,-27.138 -0.399,-7.652 0.795,-13.171 0.531,-18.189 -0.488,-5.185 -2.48,-9.659 -2.394,-12.46 0.089,-2.969 1.552,-4.809 3.191,-4.725 1.504,0.083 5.313,2.927 5.802,4.976 0.267,1.84 -2.969,2.718 -3.721,6.481 -0.93,3.638 -1.461,6.314 -1.063,15.931 0.442,9.743 3.012,25.465 3.454,41.354 0.221,15.68 -0.222,37.382 -1.86,52.059 -1.86,14.509 -5.491,25.172 -8.684,34.581 -3.278,9.283 -7.972,16.432 -10.319,20.949 -2.394,4.349 -2.969,4.642 -3.944,5.227 -1.12,0.35 -2.89,-0.41 -2.4,-2.25 z"
         i:knockout="Off"
         id="path48"
         inkscape:connector-curvature="0"
         style="fill:#8d5c25" />
      <path
         d="m 321.22,318.44 c 1.151,-3.472 8.595,-10.871 12.935,-19.945 4.209,-9.283 9.481,-21.828 12.892,-34.58 3.367,-12.879 5.492,-26.888 7.397,-41.356 1.729,-14.634 2.836,-30.859 3.678,-44.825 0.752,-13.966 1.194,-29.187 1.329,-38.093 0.043,-8.949 -1.24,-11.332 -0.798,-14.886 0.267,-3.68 1.15,-5.896 2.658,-6.481 1.507,-0.585 5.315,1.714 5.804,3.01 0.176,1.129 -3.278,1.84 -4.211,4.224 -0.884,2.258 -1.105,1.128 -1.326,9.701 -0.399,8.614 -0.534,26.97 -1.065,41.354 -0.663,14.175 -0.798,26.762 -3.146,43.571 -2.612,16.81 -6.422,39.849 -11.605,56.533 -5.228,16.517 -14.973,34.79 -19.004,41.941 -4.25,6.9 -6.78,3.14 -5.54,-0.16 z"
         i:knockout="Off"
         id="path50"
         inkscape:connector-curvature="0"
         style="fill:#8d5c25" />
      <path
         d="m 294.29,264.83 c 3.499,-5.896 5.936,-5.728 9.524,-13.715 3.677,-8.278 8.86,-20.237 12.139,-34.579 3.012,-14.426 3.941,-52.352 6.554,-50.554 2.483,2.007 9.436,42.19 8.729,62.01 -0.844,19.737 -7.664,40.854 -13.469,55.279 -5.979,14.299 -18.426,27.932 -21.618,29.604 -3.232,1.213 4.564,-16.348 2.395,-20.907 -2.48,-4.431 -15.372,-1.337 -16.124,-5.729 -0.71,-4.6 8.15,-15.56 11.87,-21.41 z"
         i:knockout="Off"
         id="path52"
         inkscape:connector-curvature="0"
         style="fill:#c37f33" />
      <path
         d="m 324.37,327.34 c 3.321,-6.649 12.226,-19.861 16.611,-29.646 4.119,-9.703 5.403,-16.936 8.46,-28.644 2.968,-12.044 7.532,-29.856 9.746,-42.317 2.17,-12.586 1.418,-31.695 3.188,-31.862 1.685,0.083 5.405,20.238 6.866,31.612 1.418,11.123 2.88,21.283 1.286,35.333 -1.773,14.174 -5.184,34.078 -11.605,48.588 -6.603,14.343 -22.993,33.827 -27.155,36.84 -4.165,2.718 3.72,-18.357 2.127,-20.156 -1.906,-1.84 -10.765,9.074 -12.404,9.199 -1.66,0.01 -0.47,-2.54 2.86,-8.94 z"
         i:knockout="Off"
         id="path54"
         inkscape:connector-curvature="0"
         style="fill:#c37f33" />
      <path
         d="m 239.18,242.79 c 3.012,-4.767 10.233,-5.102 14.484,-15.681 4.076,-11.081 8.152,-32.825 10.544,-48.797 2.259,-16.057 1.418,-43.32 3.456,-45.829 1.992,-2.216 7.707,13.967 8.416,31.612 0.531,17.562 -2.703,55.236 -4.739,72.715 -2.038,17.312 -4.343,28.224 -7.399,30.147 -3.144,1.59 -6.953,-18.314 -11.606,-20.196 -4.871,-1.923 -14.662,9.618 -16.876,8.989 -2.25,-0.82 0.59,-8.1 3.73,-12.95 z"
         i:knockout="Off"
         id="path56"
         inkscape:connector-curvature="0"
         style="fill:#c37f33" />
      <path
         d="m 83.474,60.064 c 0.62,-2.3 3.721,-5.478 9.479,-9.701 5.847,-4.349 15.416,-11.499 24.63,-15.639 8.948,-4.056 18.871,-7.987 29.06,-8.739 10.144,-0.878 20.421,0.209 31.496,3.429 -5.227,-0.794 -12.713,-0.083 -22.991,2.635 -10.41,2.55 -26.047,6.23 -38.362,12.962 -12.314,6.815 -31.23,24.712 -34.73,27.054 -3.367,2.049 7.93,-9.659 13.91,-14.468 5.892,-4.976 12.581,-10.621 20.599,-14.677 7.93,-4.14 17.586,-6.983 26.047,-9.325 8.195,-2.509 22.77,-4.265 23.036,-4.767 -0.133,-0.46 -15.638,0.71 -22.415,1.923 -6.955,1.129 -17.321,4.809 -17.764,4.726 -0.354,-0.376 11.606,-4.6 15.548,-5.896 3.81,-1.338 8.461,-1.965 7.266,-1.714 -1.418,0.167 -9.303,1.338 -14.929,3.052 -5.67,1.63 -12.27,3.554 -18.782,7.066 -6.822,3.555 -15.283,9.617 -20.599,13.506 -5.335,3.722 -8.657,6.524 -10.517,8.573 z"
         i:knockout="Off"
         id="path58"
         inkscape:connector-curvature="0"
         style="fill:#8d5c25" />
      <path
         d="m 52.199,332.99 c -3.632,-0.25 -6.601,0.083 -9.082,1.17 -2.436,1.005 -4.385,2.509 -5.67,5.146 -1.506,2.507 -4.031,7.817 -2.614,10.453 1.329,2.55 8.151,2.968 10.897,5.144 2.658,2.005 4.208,4.43 4.829,7.275 6.733,6.188 12.049,12.418 15.947,18.858 3.854,6.438 6.157,12.752 7.087,19.443 1.506,0.459 2.304,-0.127 2.393,-1.758 0.177,-1.672 0.088,-3.26 -1.816,-7.985 -2.259,-4.851 -7.531,-15.347 -10.676,-20.365 -3.101,-5.016 -5.936,-7.023 -7.664,-9.741 -1.816,-2.802 -3.5,-5.102 -2.835,-7.234 0.62,-2.3 2.968,-4.224 6.867,-6.104 -2.038,-3.639 -3.544,-6.565 -4.874,-8.947 -1.283,-2.4 -2.214,-4.24 -2.789,-5.37 z"
         i:knockout="Off"
         id="path60"
         inkscape:connector-curvature="0"
         style="fill:#c37f33" />
      <path
         d="m 58.09,299.49 c -0.443,3.889 -0.266,6.69 0.354,8.866 0.576,2.008 1.418,1.672 3.367,3.512 1.86,1.756 3.632,5.27 8.062,6.982 4.43,1.631 10.322,2.593 18.207,2.886 -0.266,5.186 -0.443,8.949 -0.354,11.123 0,2.173 0.222,2.802 0.665,1.881 -5.936,-0.375 -10.543,-1.212 -14.485,-2.507 -3.854,-1.382 -6.822,-3.138 -8.727,-5.438 -0.753,2.385 -1.152,4.35 -1.019,6.064 0.089,1.672 0.709,3.054 1.684,4.14 1.86,1.713 4.607,2.968 8.417,4.098 3.765,1.046 8.417,1.799 14.131,2.257 1.152,3.054 1.816,5.646 2.348,7.944 0.487,2.217 0.487,4.016 0.354,5.395 -6.113,0.252 -11.784,-0.333 -16.833,-1.588 -5.228,-1.338 -9.657,-3.512 -13.821,-6.356 -0.354,3.387 -0.797,7.191 -1.329,11.751 -0.753,4.515 -3.189,9.825 -2.038,15.261 1.196,5.354 4.341,10.914 9.436,16.852 l 1.683,-2.217 c -2.657,-1.42 -4.739,-4.181 -6.068,-8.277 -1.418,-4.225 -2.259,-9.576 -2.348,-16.518 1.728,2.425 3.456,3.262 5.715,2.845 2.126,-0.545 4.43,-2.344 7.088,-5.73 2.082,0.585 4.829,1.173 8.062,1.59 3.278,0.377 7.043,0.753 11.474,0.962 0.398,3.973 1.24,6.522 2.702,7.652 1.417,1.046 3.721,-0.838 5.714,-0.962 1.949,-0.043 4.43,1.295 5.714,0.292 1.063,-1.213 1.86,-5.27 1.019,-7.318 -0.975,-2.132 -3.057,-3.929 -6.423,-5.393 -1.196,-3.387 -2.082,-6.356 -2.658,-8.906 -0.708,-2.636 -0.886,-4.853 -1.019,-6.648 1.462,-0.209 2.525,-1.003 3.012,-1.924 0.487,-1.171 0.709,-2.927 0,-4.141 -0.842,-1.171 -2.348,-2.173 -4.695,-2.843 -0.62,-5.102 -1.241,-9.868 -2.038,-14.301 -0.93,-4.433 -1.949,-8.57 -2.702,-12.418 -0.709,-4.141 -1.329,-7.904 -1.684,-11.752 -1.152,3.515 -2.834,6.064 -5.714,7.652 -2.924,1.507 -6.91,2.301 -11.119,1.59 -4.259,-0.85 -8.911,-2.86 -14.138,-6.33 z"
         i:knockout="Off"
         stroke-miterlimit="10"
         id="path62"
         inkscape:connector-curvature="0"
         style="stroke:#000000;stroke-width:0.036;stroke-miterlimit:10" />
      <path
         d="m 83.695,380.2 c 0.399,-0.168 0.487,4.056 4.031,5.436 3.456,1.213 11.341,2.216 16.833,2.216 5.36,-0.125 12.581,-3.178 15.505,-2.55 2.879,0.585 3.278,4.306 1.684,6.021 -1.772,1.423 -6.734,2.426 -11.784,3.179 -5.183,0.585 -14.308,2.675 -18.517,1.295 -4.165,-1.422 -5.227,-6.605 -6.423,-9.239 -1.325,-2.73 -1.768,-6.2 -1.325,-6.36 z"
         i:knockout="Off"
         stroke-miterlimit="10"
         id="path64"
         inkscape:connector-curvature="0"
         style="stroke:#000000;stroke-width:0.036;stroke-miterlimit:10" />
      <path
         d="m 97.472,405.62 7.087,8.906 c 4.696,1.171 9.79,1.127 15.815,0.333 5.936,-1.002 17.055,-3.72 19.536,-5.728 2.126,-2.092 -1.595,-6.148 -5.715,-6.356 -4.252,-0.25 -12.757,4.14 -18.871,4.769 -6.16,0.42 -12.05,-0.16 -17.858,-1.92 z"
         i:knockout="Off"
         stroke-miterlimit="10"
         id="path66"
         inkscape:connector-curvature="0"
         style="stroke:#000000;stroke-width:0.036;stroke-miterlimit:10" />
      <path
         d="m 131.49,425.98 c 4.784,1.214 8.993,1.003 12.802,-0.626 3.766,-1.715 6.733,-8.239 9.746,-9.242 2.835,-1.087 7.132,1.423 7.442,3.179 0.133,1.672 -3.322,5.184 -6.069,7.318 -2.835,2.089 -6.202,3.888 -10.455,5.393 4.385,3.137 8.373,4.725 12.802,4.769 4.253,-0.128 7.841,-2.846 12.803,-4.769 4.829,-2.09 12.271,-6.354 16.169,-6.983 3.81,-0.544 7.31,1.38 6.733,3.512 -0.886,1.967 -8.638,5.896 -11.119,8.24 -2.525,2.132 -3.765,3.72 -3.721,4.766 1.329,1.046 3.19,1.631 5.405,1.924 2.126,0.125 4.695,1.255 8.063,-0.628 3.366,-1.924 8.549,-8.489 12.137,-10.83 3.544,-2.426 6.468,-3.472 8.772,-3.472 2.125,-0.208 4.384,0.629 4.03,2.845 -0.531,2.174 -4.651,7.443 -6.733,10.161 -2.127,2.718 -4.209,4.474 -6.069,5.729 4.962,1.422 9.169,1.965 13.112,1.295 3.721,-0.71 6.425,-2.298 9.789,-5.1 3.189,-2.886 6.777,-9.491 10.102,-11.458 3.232,-1.924 8.815,-1.589 9.746,-0.293 0.709,1.087 -2.969,4.81 -4.387,7.318 -1.507,2.466 -3.367,5.436 -4.03,7.608 -0.709,2.133 -0.709,3.515 0,4.769 l 7.44,0.962 c -2.213,4.558 -3.853,8.739 -4.739,12.378 -0.974,3.72 -1.372,6.689 -1.019,9.532 -9.126,-4.726 -20.511,-9.324 -34.331,-14.301 -14.087,-5.06 -36.236,-11.332 -48.506,-15.261 -12.271,-3.891 -20.289,-6.316 -24.232,-8.239 -3.942,-2.049 0.886,-2.133 0.665,-3.805 -0.24,-1.8 -1.09,-3.98 -2.33,-6.7 z"
         i:knockout="Off"
         stroke-miterlimit="10"
         id="path68"
         inkscape:connector-curvature="0"
         style="stroke:#000000;stroke-width:0.036;stroke-miterlimit:10" />
      <path
         d="m 137.56,342.06 c 0.488,1.631 9.702,9.158 13.112,12.084 3.367,2.886 5.449,4.851 6.734,4.767 1.107,-0.293 1.505,-3.596 0,-6.021 -1.816,-2.634 -6.379,-6.69 -9.746,-8.614 -3.31,-2.01 -10.66,-3.77 -10.09,-2.22 z"
         i:knockout="Off"
         stroke-miterlimit="10"
         id="path70"
         inkscape:connector-curvature="0"
         style="stroke:#000000;stroke-width:0.036;stroke-miterlimit:10" />
      <path
         d="m 183.01,370.03 c 4.164,0.585 16.7,2.341 20.2,4.14 3.367,1.632 3.942,5.312 0.354,5.729 -3.721,0.293 -18.028,-2.008 -22.237,-3.512 -4.385,-1.631 -3.677,-4.726 -3.367,-5.729 0.28,-1.13 0.77,-1.34 5.06,-0.63 z"
         i:knockout="Off"
         stroke-miterlimit="10"
         id="path72"
         inkscape:connector-curvature="0"
         style="stroke:#000000;stroke-width:0.036;stroke-miterlimit:10" />
      <path
         d="m 298.85,417.08 -1.019,-7.318 c -1.329,-0.125 -2.791,-1.128 -5.05,-3.176 -2.259,-2.051 -2.615,-5.771 -8.063,-8.906 -5.626,-3.388 -16.965,-7.945 -24.939,-10.454 -8.106,-2.593 -18.073,-4.184 -22.903,-4.14 -4.961,0.124 -7.441,3.262 -6.068,4.433 1.375,0.962 7.753,-0.545 14.174,1.588 6.247,2.092 17.235,7.15 23.567,10.83 6.292,3.637 10.145,7.985 14.132,10.787 3.855,2.636 6.823,4.433 9.082,5.395 -2.437,0.669 -3.943,2.049 -4.695,4.141 -0.709,1.964 -0.887,3.804 0.31,8.277 1.02,4.434 3.101,10.581 6.068,18.441 -3.854,1.965 -6.777,3.387 -9.436,4.433 -2.612,0.962 -4.562,1.548 -6.025,1.588 -1.105,-4.682 -1.903,-8.654 -2.391,-12.084 -0.577,-3.512 -1.02,-6.481 -0.663,-8.571 0.221,-2.175 2.479,-2.802 2.345,-4.14 -0.132,-1.631 -1.194,-4.558 -3.364,-4.433 -2.348,0.084 -9.171,2.048 -10.411,5.395 -1.283,3.303 1.151,8.99 2.348,14.301 1.063,5.143 1.729,13.337 4.03,16.852 2.217,3.428 5.185,4.641 9.083,3.804 -2.171,2.593 -3.235,5.395 -3.015,8.573 0.179,3.095 4.076,6.481 4.033,10.161 -0.178,3.721 -1.86,7.44 -5.049,11.79 l 2.345,1.59 c 2.969,-4.642 4.829,-8.573 5.405,-11.792 0.442,-3.263 -1.593,-5.268 -2.038,-7.611 -0.531,-2.382 -1.151,-4.558 -0.663,-6.689 0.354,-2.426 0.62,-4.808 3.367,-6.983 2.658,-2.216 10.231,-3.471 12.8,-6.021 2.483,-2.634 3.324,-5.813 2.349,-9.535 1.905,-0.626 2.968,-1.629 3.367,-3.176 0.178,-1.547 -0.265,-2.929 -1.329,-6.063 -1.063,-3.347 -4.519,-9.785 -4.739,-13.34 -0.36,-3.62 0.66,-6.21 3.05,-7.96 z"
         i:knockout="Off"
         stroke-miterlimit="10"
         id="path74"
         inkscape:connector-curvature="0"
         style="stroke:#000000;stroke-width:0.036;stroke-miterlimit:10" />
      <path
         d="m 311.3,397.68 c -4.12,-2.846 -7.708,-6.608 -11.118,-11.123 -3.456,-4.685 -7.621,-10.454 -9.082,-16.185 -1.64,-5.812 -2.214,-12.502 0,-18.146 2.305,-5.812 9.923,-13.8 13.112,-15.889 2.968,-2.049 5.405,-0.125 4.739,3.512 -0.93,3.471 -8.638,11.123 -9.436,17.479 -0.973,6.229 0.887,13.505 4.387,20.029 3.367,6.481 8.815,12.459 16.169,18.438 -0.665,1.339 0.176,3.973 2.702,8.237 2.525,4.266 6.378,9.66 12.093,16.852 l -6.068,6.063 c -0.665,-0.209 -1.55,0.209 -2.658,0.919 -1.107,0.628 -2.348,1.255 -4.075,3.514 -1.993,2.258 -5.937,9.199 -7.045,9.869 -1.283,0.458 -1.105,-3.808 0,-6.69 1.108,-3.054 4.831,-8.364 6.381,-10.789 1.329,-2.383 2.125,-3.556 2.038,-3.512 -5.227,-4.602 -8.771,-8.573 -10.81,-12.378 -2.08,-3.81 -2.53,-7.15 -1.33,-10.2 z"
         i:knockout="Off"
         stroke-miterlimit="10"
         id="path76"
         inkscape:connector-curvature="0"
         style="stroke:#000000;stroke-width:0.036;stroke-miterlimit:10" />
      <path
         d="m 325.78,372.92 -5.402,8.57 c 0.798,3.68 2.48,7.234 5.049,10.497 2.48,3.303 5.848,6.313 10.1,9.199 -1.416,0.626 -2.702,2.216 -4.03,4.766 -1.462,2.677 -4.341,9.993 -3.678,10.497 0.666,0.125 5.228,-6.231 7.708,-8.573 2.348,-2.3 4.21,-3.471 6.07,-5.102 1.729,-1.797 3.012,-3.553 4.03,-5.1 0.887,-1.591 0.887,-2.802 1.683,-4.1 0.755,-1.42 1.197,-2.968 2.704,-3.846 1.55,-0.962 4.03,0.125 5.713,-1.254 1.418,-1.466 2.261,-5.354 2.703,-7.318 0.133,-2.049 -1.461,-3.64 -0.665,-4.767 0.798,-1.171 2.703,-2.176 5.715,-2.552 0.178,-2.09 0.355,-4.307 0.355,-6.983 0,-2.675 -0.178,-5.644 -0.355,-8.906 -3.456,1.756 -6.646,2.552 -9.746,2.552 -3.277,-0.167 -6.024,-1.173 -8.77,-2.845 -2.704,-1.756 -5.228,-4.14 -7.399,-7.315 -1.105,3.26 -2.171,6.062 -3.012,8.57 -0.976,2.425 -1.771,4.433 -2.392,6.021 0.842,3.596 2.26,7.15 4.739,10.497 2.303,3.387 5.448,6.397 9.436,9.532 l -4.076,8.614 c -3.057,-1.38 -6.024,-3.512 -8.727,-7.023 -2.78,-3.43 -5.31,-8.03 -7.75,-13.63 z m 14.8,-5.73 c 0.798,2.55 2.038,4.515 4.073,6.354 1.949,1.715 4.521,3.094 7.71,4.14 l 3.055,-10.201 c -2.744,-0.168 -5.271,-0.209 -7.751,-0.293 -2.53,-0.08 -4.83,-0.08 -7.09,0 z"
         i:knockout="Off"
         stroke-miterlimit="10"
         id="path78"
         inkscape:connector-curvature="0"
         style="stroke:#000000;stroke-width:0.036;stroke-miterlimit:10" />
      <path
         d="m 359.45,343.65 c 4.65,-6.606 9.079,-15.974 13.466,-28.601 4.254,-12.711 10.276,-25.381 12.446,-46.708 1.906,-21.533 1.286,-60.169 0,-80.742 -1.326,-20.614 -6.688,-31.863 -7.707,-41.647 -1.151,-9.868 -0.311,-13.339 0.976,-16.517 1.24,-3.136 3.543,-3.01 6.422,-2.216 2.793,0.794 7.399,2.76 10.411,6.355 3.057,3.387 5.316,7.986 7.443,13.966 l -2.394,-15.22 c -2.747,-3.513 -5.713,-5.896 -8.727,-7.652 -3.101,-1.756 -6.425,-2.551 -9.789,-2.551 0.62,-4.098 0.442,-7.276 -1.02,-9.534 -1.507,-2.3 -3.809,-3.68 -7.397,-4.14 l -4.695,1.589 c 3.277,0.168 5.402,1.171 6.378,3.178 0.798,1.923 -0.221,4.642 -0.663,8.614 -0.488,3.805 -2.526,8.237 -2.038,14.928 0.485,6.565 2.923,13.631 4.739,25.089 1.594,11.499 4.252,27.305 5.05,43.236 0.576,15.89 0.355,35.793 -1.02,51.182 -1.372,15.177 -3.941,27.346 -7.044,39.723 -3.321,12.294 -9.301,26.636 -12.137,33.995 -2.879,7.109 -4.297,7.275 -4.739,9.534 -0.53,2.22 0.27,3.59 2.04,4.14 z"
         i:knockout="Off"
         stroke-miterlimit="10"
         id="path80"
         inkscape:connector-curvature="0"
         style="stroke:#000000;stroke-width:0.036;stroke-miterlimit:10" />
      <path
         d="m 358.79,289.62 c -0.974,-6.69 -0.31,-12.627 1.995,-18.438 2.259,-5.813 6.022,-10.998 11.474,-15.89 v -5.395 c -1.995,-4.893 -3.058,-9.66 -3.367,-14.928 -0.311,-5.311 0.31,-12.168 1.682,-16.224 1.329,-3.973 3.235,-6.774 6.068,-7.945 l 0.311,-9.199 c -2.569,-3.345 -3.81,-7.694 -4.384,-13.38 -0.488,-5.771 1.903,-17.437 1.372,-20.657 -0.798,-3.22 -3.854,-1.714 -5.049,1.296 -1.197,2.927 -2.216,9.994 -1.686,16.182 0.399,6.188 2.127,12.754 4.696,20.364 -2.479,7.317 -4.208,13.715 -5.359,19.36 -1.196,5.52 -1.994,10.036 -1.685,14.343 0.267,4.265 1.108,8.07 3.014,11.414 -5.448,4.935 -9.436,10.497 -12.139,17.188 -2.745,6.564 -4.651,18.438 -4.031,22.245 0.55,3.57 2.86,3.62 7.11,-0.32 z"
         i:knockout="Off"
         stroke-miterlimit="10"
         id="path82"
         inkscape:connector-curvature="0"
         style="stroke:#000000;stroke-width:0.036;stroke-miterlimit:10" />
      <path
         d="m 326.54,304.34 c 7.177,-11.54 12.846,-24.251 17.187,-39.097 4.208,-14.884 6.602,-31.15 8.729,-48.964 1.992,-18.022 3.454,-42.358 4.03,-57.202 0.664,-14.761 0.044,-21.701 -0.31,-30.524 -0.444,-8.864 -0.887,-14.342 -2.704,-22.245 -1.903,-8.112 -5.093,-16.266 -9.08,-25.423 -0.132,-0.92 0.709,-1.296 3.012,-0.962 2.127,0.126 7.886,1.129 10.102,2.551 1.903,1.421 0.884,3.387 2.392,6.355 1.55,2.969 4.873,10.705 6.733,11.457 1.683,0.627 4.163,-5.52 3.678,-7.652 -0.666,-2.258 -5.185,-3.638 -7.045,-5.729 -2.038,-2.216 -0.709,-5.185 -4.386,-6.983 -3.766,-1.84 -9.656,-3.052 -17.852,-3.805 0.221,-2.383 -0.799,-4.014 -3.058,-5.394 -2.437,-1.38 -8.815,-2.55 -10.765,-2.55 -2.038,-0.209 -2.213,0.752 -1.019,1.923 1.196,1.171 5.494,1.84 8.106,4.767 2.305,2.592 3.812,6.356 6.381,11.75 2.48,5.477 6.6,13.171 8.77,20.99 2.081,7.569 3.324,14.259 3.721,25.089 0.178,10.872 -0.222,22.998 -1.373,39.431 -1.107,16.434 -2.79,41.522 -5.049,57.83 -2.526,15.973 -5.494,26.01 -9.082,37.843 -3.589,11.791 -10.366,26.09 -12.137,32.406 -1.82,6.05 -1.6,7.43 1.02,4.12 z"
         i:knockout="Off"
         stroke-miterlimit="10"
         id="path84"
         inkscape:connector-curvature="0"
         style="stroke:#000000;stroke-width:0.036;stroke-miterlimit:10" />
      <path
         d="m 335.98,136.38 c -0.488,1.714 -1.108,2.718 -2.348,3.178 -1.286,0.376 -4.519,0.794 -4.74,-0.669 -0.221,-1.505 0.842,-4.474 3.367,-8.572 -1.242,-3.596 -1.463,-7.777 -0.665,-12.377 0.798,-4.85 4.03,-14.509 5.404,-15.597 1.151,-1.003 1.814,5.771 2.349,9.534 0.531,3.638 0.93,7.61 1.019,12.084 2.523,-2.3 5.713,-3.512 10.1,-3.805 4.254,-0.419 13.953,0.794 15.46,1.881 1.283,1.087 -3.854,3.221 -7.044,4.475 -3.367,1.045 -9.125,1.087 -11.783,2.216 -2.613,1.129 -3.678,2.718 -3.367,4.767 0.665,2.676 2.394,5.645 5.715,8.907 3.146,3.22 11.74,7.903 13.466,10.496 1.596,2.592 -0.884,4.39 -3.364,4.432 -2.569,-0.084 -7.532,-1.714 -11.474,-5.06 -4.11,-3.56 -7.92,-8.75 -12.12,-15.89 z"
         i:knockout="Off"
         stroke-miterlimit="10"
         id="path86"
         inkscape:connector-curvature="0"
         style="stroke:#000000;stroke-width:0.036;stroke-miterlimit:10" />
      <path
         d="m 290.84,262.24 c -0.224,-8.322 0.841,-17.604 3.365,-28.643 2.394,-11.123 9.171,-24.211 11.473,-36.839 2.216,-12.711 2.084,-22.413 1.995,-38.469 -0.31,-16.183 -2.17,-42.024 -3.014,-57.537 -0.974,-15.555 -0.796,-26.51 -2.036,-35.292 -1.285,-8.865 -3.014,-14.635 -5.361,-17.478 1.728,-1.255 3.634,-1.505 5.715,-0.92 1.906,0.501 4.828,2.509 6.379,4.432 1.418,1.756 1.461,3.931 2.703,6.69 1.284,2.76 2.745,5.77 4.74,9.534 1.771,-2.76 2.437,-5.144 1.992,-7.318 -0.664,-2.174 -2.969,-3.387 -4.696,-5.728 -1.814,-2.634 -2.081,-7.109 -5.402,-8.907 -3.324,-1.84 -7.975,-2.466 -14.132,-1.881 -2.082,-2.3 -4.165,-4.098 -6.734,-5.729 -2.569,-1.672 -5.316,-2.885 -8.417,-3.805 v -3.512 c 2.216,0.209 3.678,-0.376 4.387,-1.589 0.576,-1.296 0.221,-4.976 -0.355,-6.021 -0.664,-1.17 -1.726,-1.338 -3.365,-0.668 -1.862,-3.304 -2.305,-6.105 -1.329,-8.865 0.931,-2.76 3.278,-5.143 7.042,-7.317 l -8.417,-5.436 c -3.897,3.847 -6.2,7.234 -7.396,10.496 -1.151,3.22 -0.931,6.021 0.665,8.572 -2.525,0.92 -4.208,2.3 -5.052,4.14 -0.93,1.756 -1.771,5.06 -0.31,6.69 1.374,1.547 4.121,2.551 8.416,2.843 l 0.666,2.55 c 4.386,1.129 7.974,3.513 11.428,6.983 3.324,3.596 6.071,8.112 8.417,14.008 2.305,5.604 3.812,9.701 5.052,20.029 0.973,10.37 0.752,26.552 1.372,41.94 0.487,15.304 2.348,36.671 2.348,49.592 -0.089,12.753 -0.709,17.729 -2.348,27.012 -1.817,9.157 -5.537,18.858 -7.753,27.974 -2.346,8.99 -4.43,18.648 -5.403,25.757 -0.93,6.982 -0.976,13.631 -0.31,15.889 0.62,2.05 1.68,1.05 3.68,-3.17 z"
         i:knockout="Off"
         stroke-miterlimit="10"
         id="path88"
         inkscape:connector-curvature="0"
         style="stroke:#000000;stroke-width:0.036;stroke-miterlimit:10" />
      <path
         d="m 296.24,87.745 c 4.653,-1.798 8.684,-2.593 12.45,-2.551 3.72,-0.084 10.23,1.672 9.788,2.843 -0.752,1.213 -9.524,2.969 -13.155,4.14 -3.634,0.92 -6.379,1.714 -8.417,1.923 4.387,4.098 8.371,7.861 11.784,11.75 3.499,3.805 8.815,9.283 8.77,11.123 -0.354,1.714 -5.492,2.801 -10.099,-0.627 -4.607,-3.554 -10.277,-10.286 -17.189,-20.363 -3.677,1.087 -6.2,1.672 -7.75,1.296 -1.597,-0.376 -2.217,-1.966 -1.686,-3.178 0.356,-1.254 1.771,-2.802 4.076,-4.474 -1.949,-3.889 -3.189,-7.485 -3.72,-10.789 -0.666,-3.47 -0.798,-7.568 0.31,-9.24 0.93,-1.756 4.607,-2.509 6.068,-0.627 1.461,1.882 1.108,8.488 2.701,11.75 1.43,3.182 3.51,5.357 6.08,7.03 z"
         i:knockout="Off"
         stroke-miterlimit="10"
         id="path90"
         inkscape:connector-curvature="0"
         style="stroke:#000000;stroke-width:0.036;stroke-miterlimit:10" />
      <path
         d="m 234.62,232 c 1.906,-17.646 3.588,-33.368 5.405,-47.961 1.64,-14.635 3.146,-22.622 5.05,-38.804 1.949,-16.307 4.475,-42.943 6.381,-57.494 1.504,-14.51 2.79,-20.824 4.03,-28.936 1.329,-8.279 4.785,-13.883 4.03,-20.029 -0.974,-6.439 -6.335,-12.963 -9.08,-17.144 -2.836,-4.141 -5.141,-6.523 -7.399,-7.318 0.843,-0.459 1.905,-1.003 3.014,-1.296 1.062,-0.46 3.321,-0.669 3.72,-0.961 0.356,-0.377 -1.062,-0.795 -1.682,-1.255 -0.842,-0.585 -1.286,-2.132 -2.704,-1.923 -1.55,0 -3.232,1.003 -5.712,2.551 -2.926,-1.756 -6.071,-3.345 -9.436,-4.432 -3.678,-1.254 -7.223,-2.426 -11.121,-2.551 -3.766,-0.125 -7.574,0.293 -11.428,1.589 0.664,-1.003 0.044,-1.38 -1.684,-1.589 -1.905,-0.25 -7.487,-0.794 -9.082,0.627 -1.684,1.338 -1.639,3.889 -0.354,7.652 -1.905,2.216 -3.411,6.397 -4.695,12.711 -1.24,6.314 -2.259,14.802 -3.057,24.796 -0.975,9.868 -1.418,18.356 -2.703,34.329 -1.55,16.057 -3.676,44.992 -5.36,60.672 -1.683,15.347 -2.747,22.831 -4.386,31.487 -1.816,8.488 -3.898,13.547 -5.714,19.694 -2.038,6.105 -5.271,14.844 -5.404,16.852 -0.088,1.756 2.126,0.92 4.74,-5.729 2.481,-6.816 7.442,-20.029 10.1,-34.329 2.481,-14.468 3.411,-31.905 5.36,-51.182 1.861,-19.36 4.563,-48.379 6.069,-63.85 1.374,-15.513 2.215,-24.879 2.348,-28.601 l 6.423,1.254 c -1.063,5.812 -1.462,10.789 -1.373,15.262 0.133,4.433 0.753,8.028 2.037,11.123 l 7.398,-2.216 c -1.152,-4.683 -1.551,-9.241 -1.02,-14.007 0.532,-4.726 1.816,-9.492 4.031,-14.301 -2.259,-2.76 -4.385,-4.725 -6.732,-5.728 -2.304,-1.129 -4.652,-1.338 -7.044,-0.627 0,-2.885 1.285,-5.269 4.031,-7.317 2.613,-2.174 6.999,-4.516 12.138,-4.767 5.096,-0.167 12.803,1.38 18.162,3.513 5.228,1.923 9.393,3.972 13.156,8.237 3.634,4.224 7.397,10.328 8.727,16.851 1.285,6.314 0.089,11.165 -1.017,21.326 -1.375,9.994 -3.677,18.983 -6.382,38.762 -2.657,19.903 -6.998,57.955 -9.435,79.155 -2.658,20.907 -4.562,36.043 -5.713,46.079 -1.108,9.868 -1.685,11.624 -1.019,13.339 0.45,1.63 1.91,0.46 4.35,-3.52 z"
         i:knockout="Off"
         stroke-miterlimit="10"
         id="path92"
         inkscape:connector-curvature="0"
         style="stroke:#000000;stroke-width:0.036;stroke-miterlimit:10" />
      <path
         d="m 248.09,54.67 c 4.782,-2.342 8.815,-3.346 12.447,-3.178 3.41,0.167 10.322,2.3 8.771,4.14 -1.728,1.798 -7.575,3.763 -18.207,6.356 0.355,2.843 2.437,5.645 6.068,8.572 3.723,2.885 14.353,6.398 15.813,8.906 1.153,2.258 -2.79,7.443 -8.061,5.394 -5.316,-2.216 -12.892,-7.944 -23.212,-17.813 -2.836,0.334 -5.316,0.292 -7.443,-0.293 -2.259,-0.752 -5.582,-1.965 -5.359,-3.178 0.176,-1.213 2.48,-2.426 6.732,-3.805 -2.658,-5.06 -3.721,-9.618 -3.721,-14.009 0.133,-4.558 2.615,-12.46 4.031,-12.084 1.107,0.544 1.374,10.914 3.366,14.635 2.08,3.555 4.82,5.52 8.77,6.357 z"
         i:knockout="Off"
         stroke-miterlimit="10"
         id="path94"
         inkscape:connector-curvature="0"
         style="stroke:#000000;stroke-width:0.036;stroke-miterlimit:10" />
      <path
         d="m 135.97,55.004 -3.367,7.61 c -2.126,1.464 -4.43,2.635 -7.088,3.513 -2.747,0.878 -5.493,1.296 -8.727,1.589 -6.069,4.934 -10.233,8.906 -12.492,12.377 -2.259,3.387 -2.703,7.276 -1.329,7.945 1.285,0.459 5.625,-2.843 8.771,-4.767 2.968,-2.049 6.157,-4.223 9.391,-6.983 4.12,-1.714 7.043,-2.885 9.436,-3.512 2.259,-0.752 3.544,-0.962 4.031,-0.627 2.48,2.216 4.784,4.014 7.087,5.394 2.215,1.38 4.342,2.341 6.379,2.885 -2.348,3.972 -4.253,7.192 -5.715,9.199 -1.462,1.965 -2.746,3.178 -3.366,3.178 -4.12,0.042 -7.309,0.418 -9.746,0.962 -2.393,0.46 -4.032,1.254 -4.74,2.216 -4.917,5.185 -8.55,9.157 -11.074,12.084 -2.525,2.802 -3.943,3.638 -4.076,5.102 -0.222,1.463 0.576,3.22 2.392,3.471 1.639,-0.042 4.563,-1.213 7.398,-2.843 2.747,-1.631 5.714,-3.805 9.081,-6.69 l 9.746,-4.14 9.79,7.945 c -1.506,3.178 -2.525,5.938 -3.057,8.279 -0.532,2.383 -0.753,4.182 -0.31,5.729 l -13.821,2.551 c -8.063,8.488 -12.935,14.258 -14.796,17.771 -1.905,3.304 0.753,3.889 3.677,2.886 2.747,-1.129 7.132,-3.889 13.156,-8.906 3.057,-2.509 5.803,-3.68 8.062,-3.513 2.171,0.083 4.032,1.631 5.405,4.474 l 0.31,13.967 -8.727,3.512 c -2.481,4.348 -5.228,8.112 -8.417,11.75 -3.323,3.512 -10.233,7.443 -10.455,9.534 -0.133,1.84 5.183,4.14 9.436,2.216 4.031,-1.965 8.904,-6.523 14.795,-13.673 l 7.752,5.729 -5.714,11.75 -5.714,3.22 c 0.044,5.771 -1.019,10.161 -3.367,13.966 -2.614,3.512 -9.391,5.896 -10.765,7.945 -1.285,2.006 -0.044,5.896 3.367,4.432 3.411,-1.631 8.859,-6.021 16.833,-13.632 1.994,1.004 3.942,1.213 6.024,0.627 2.083,-0.585 3.943,-1.965 6.069,-4.139 1.993,2.801 4.917,4.767 8.417,6.356 3.588,1.463 10.986,3.387 12.802,2.55 1.55,-0.961 -0.709,-5.394 -3.013,-7.652 -2.347,-2.3 -6.113,-4.307 -11.118,-6.021 l 1.993,-5.394 c -4.031,0.585 -7,1.212 -9.081,1.882 -2.082,0.544 -2.924,2.467 -3.367,1.924 -0.709,-0.711 -0.886,-3.053 0,-5.394 0.842,-2.3 2.702,-5.06 5.404,-8.28 3.367,-0.376 5.892,-0.961 7.752,-1.589 1.86,-0.752 2.702,-1.547 3.012,-2.55 2.747,1.212 5.271,1.588 7.752,1.588 2.437,-0.25 5.936,-1.045 6.733,-2.216 0.621,-1.296 -0.442,-3.094 -2.702,-4.433 -2.392,-1.338 -6.202,-2.341 -11.429,-3.178 l 1.019,-7.945 c -2.259,1.422 -4.341,3.011 -5.759,4.767 -1.462,1.63 -2.747,3.428 -3.367,5.394 -3.499,-0.334 -6.246,-1.129 -8.062,-2.216 -1.905,-1.17 -2.924,-2.76 -3.057,-4.767 l 6.069,-16.224 10.809,-5.102 c 2.304,1.756 5.05,2.927 8.727,3.513 3.588,0.627 10.986,0.46 12.803,-0.335 1.683,-1.087 -0.354,-3.805 -2.703,-5.394 -2.481,-1.588 -6.29,-2.802 -11.784,-3.805 l 1.374,-8.572 c -3.278,1.588 -5.98,3.01 -7.752,4.432 -1.816,1.38 -3.057,2.592 -3.367,3.805 l -8.106,2.216 -7.397,-6.355 6.378,-13.339 c 2.613,0.334 4.873,0.292 6.778,-0.293 1.905,-0.627 3.189,-1.631 4.341,-3.178 2.348,1.673 5.272,2.886 9.125,3.806 3.721,0.752 11.961,2.132 13.467,1.254 1.329,-1.003 -2.126,-4.725 -4.74,-6.648 -2.746,-2.049 -6.29,-3.596 -11.118,-5.102 l 5.404,-4.767 v -8.279 c -4.961,3.387 -8.55,5.979 -10.765,7.944 -2.303,1.882 -3.145,3.053 -2.702,3.513 l -11.119,1.924 c -2.303,-1.505 -4.164,-2.635 -5.404,-3.847 -1.285,-1.212 -2.126,-2.216 -2.348,-3.178 1.24,-3.638 2.525,-6.648 4.031,-9.2 1.506,-2.676 2.924,-4.474 4.74,-6.021 1.949,-0.376 4.075,-0.961 6.379,-1.296 2.259,-0.46 4.563,-0.878 7.088,-1.254 6.822,2.342 12.492,3.972 17.188,5.06 4.696,1.045 9.657,1.798 10.765,0.962 0.842,-1.087 -2.038,-5.185 -5.404,-6.983 -3.544,-1.965 -8.417,-3.178 -15.15,-4.14 l 5.715,-5.728 v -6.356 c -2.747,2.007 -5.715,3.972 -8.417,5.729 -2.835,1.756 -4.962,3.721 -8.417,4.767 -3.677,1.004 -7.708,1.171 -12.802,0.962 -2.481,-2.425 -4.784,-4.223 -6.733,-5.729 -2.082,-1.505 -3.81,-2.509 -5.36,-3.178 0.975,-2.76 1.639,-5.143 1.994,-7.317 0.31,-2.258 0.31,-4.014 0,-5.729 -2.32,0.748 -4.66,1.5 -7.01,2.253 z"
         i:knockout="Off"
         stroke-miterlimit="10"
         id="path96"
         inkscape:connector-curvature="0"
         style="stroke:#000000;stroke-width:0.036;stroke-miterlimit:10" />
      <path
         d="m 180.66,0.646 -9.081,1.882 c 0.177,-1.422 -0.621,-2.259 -2.393,-2.509 -1.816,-0.334 -4.563,0.084 -8.417,0.92 0.665,2.969 0.443,5.896 -0.665,8.614 -1.107,2.634 -3.189,5.227 -6.069,7.61 1.107,-2.592 1.506,-5.394 1.374,-7.945 -0.133,-2.592 -0.975,-5.394 -2.348,-7.945 l -9.79,0.627 c 1.196,2.55 1.595,5.143 1.019,7.944 -0.576,2.802 -2.038,5.52 -4.385,8.614 0.886,-2.383 1.063,-4.725 0.354,-7.024 -0.797,-2.425 -2.259,-4.6 -4.74,-6.983 l -10.765,1.924 c 0.576,0.292 0.975,1.129 1.374,2.509 0.31,1.296 0.93,3.22 0.665,5.436 -0.443,2.217 -1.462,4.6 -3.057,7.611 -0.886,-3.094 -1.949,-5.478 -3.366,-7.318 -1.462,-2.049 -2.525,-3.638 -5.05,-3.805 -2.702,-0.167 -8.683,2.342 -10.41,3.178 -1.771,0.753 -1.771,1.338 0,1.589 3.189,-0.502 5.272,0.292 6.069,2.55 0.708,2.216 0.31,5.604 -1.374,10.496 -1.24,-4.307 -2.747,-7.234 -4.696,-9.241 -1.993,-2.007 -4.12,-2.802 -6.733,-2.55 l -7.442,4.474 c 3.898,-0.418 6.202,0.376 7.442,2.551 1.063,2.091 0.886,5.478 -0.708,10.161 -0.266,-2.885 -1.329,-4.892 -3.677,-6.356 -2.348,-1.505 -5.715,-2.132 -10.1,-2.216 l -7.087,5.394 0.665,3.178 c 2.967,-1.045 5.05,-1.254 6.733,-0.627 1.462,0.585 2.304,2.55 2.703,4.432 0.354,1.756 0.31,4.14 -0.31,6.69 -1.861,-2.885 -3.987,-4.893 -6.734,-6.356 -2.702,-1.505 -5.847,-2.132 -9.436,-2.216 l -5.404,6.983 1.684,3.178 c 3.278,-1.129 5.803,-0.878 7.752,0.292 1.861,1.171 3.101,3.513 3.721,7.025 -2.879,-2.592 -5.803,-3.931 -8.771,-4.474 -3.056,-0.418 -6.024,-0.042 -9.081,1.589 l -4.031,6.355 1.993,1.589 c 1.506,-1.38 3.189,-1.965 5.404,-1.589 2.171,0.25 4.519,1.422 7.398,3.512 -3.455,-0.752 -6.645,-0.92 -9.746,-0.334 -3.233,0.501 -5.936,1.672 -8.771,3.512 -1.639,1.673 -2.702,3.262 -2.702,4.767 -0.222,1.463 1.816,3.22 2.038,4.14 0.177,0.752 -0.222,0.961 -1.019,0.627 -1.861,0.501 -3.101,1.505 -3.721,2.843 -0.62,1.338 -0.62,3.136 0,5.394 1.595,-1.212 3.898,-2.007 7.087,-2.216 3.101,-0.376 9.081,-0.586 11.784,0.668 2.524,1.171 3.189,4.349 4.031,6.649 0.797,2.216 1.196,4.39 1.019,6.69 3.189,-0.878 4.917,-3.052 5.715,-6.355 0.665,-3.471 0.044,-7.82 -1.684,-13.673 1.506,-5.478 3.854,-10.621 7.398,-15.597 3.455,-5.101 7.486,-9.701 13.466,-14.3 5.759,-4.683 14.087,-9.826 21.573,-13.004 7.398,-3.136 15.372,-4.516 22.903,-5.729 7.486,-1.338 14.441,-2.132 21.529,-2.216 1.373,-0.962 2.835,-2.3 4.386,-4.475 1.55,-2.216 3.056,-4.809 4.695,-8.237 0.709,1.714 1.285,3.345 1.374,5.06 0.133,1.631 0.133,3.387 -0.665,4.767 -0.975,1.255 -2.658,2.217 -5.05,2.886 1.285,1.672 3.189,2.509 5.714,2.509 2.525,-0.083 7.043,-0.543 9.436,-2.843 2.348,-2.593 4.429,-7.861 4.385,-11.458 -0.15,-3.598 -2.01,-6.818 -5.38,-9.828 z"
         i:knockout="Off"
         stroke-miterlimit="10"
         id="path98"
         inkscape:connector-curvature="0"
         style="stroke:#000000;stroke-width:0.036;stroke-miterlimit:10" />
      <path
         d="m 64.159,116.64 c 2.437,-2.801 3.5,-5.603 3.366,-8.572 -0.31,-3.01 -1.771,-7.15 -4.385,-9.199 -2.658,-2.09 -7.664,-2.885 -11.429,-3.178 -4.075,-0.543 -9.082,0.293 -11.783,0.92 -2.614,0.585 -3.854,1.798 -3.721,3.178 1.24,2.844 1.063,5.186 -0.354,6.691 -1.506,1.463 -5.625,2.425 -8.417,2.55 -3.013,0.042 -7.354,-0.376 -8.727,-2.216 -1.417,-2.091 -1.196,-5.06 0.665,-9.534 -3.456,-1.046 -4.961,-2.216 -4.696,-4.14 0.31,-1.965 3.411,-6.063 6.379,-6.982 2.791,-1.004 8.549,-0.377 10.455,1.254 1.86,1.547 2.082,4.14 0.665,7.944 1.904,-1.924 4.873,-3.345 8.727,-4.432 3.854,-1.087 10.277,-3.178 14.485,-1.924 3.987,1.171 7.088,6.607 9.79,9.2 2.702,2.425 5.227,3.47 6.379,6.063 0.93,2.634 0.886,7.317 -0.31,9.534 -1.197,2.14 -3.678,2.93 -7.089,2.85 z"
         i:knockout="Off"
         stroke-miterlimit="10"
         id="path100"
         inkscape:connector-curvature="0"
         style="stroke:#000000;stroke-width:0.036;stroke-miterlimit:10" />
      <path
         d="m 63.805,119.82 c 2.259,2.509 3.677,4.893 4.075,7.652 0.354,2.592 -1.461,6.732 -1.683,8.237 -0.31,1.463 -0.31,1.463 0,0.334 2.747,0.209 4.651,-0.753 5.714,-2.885 1.063,-2.425 1.063,-7.484 0.665,-10.161 -0.532,-2.592 -1.772,-4.223 -3.722,-5.06 -1.682,0.62 -3.366,1.25 -5.049,1.88 z"
         i:knockout="Off"
         stroke-miterlimit="10"
         id="path102"
         inkscape:connector-curvature="0"
         style="stroke:#000000;stroke-width:0.036;stroke-miterlimit:10" />
      <path
         d="m 75.278,125.88 12.447,-0.334 c 1.639,2.843 1.241,4.85 -1.018,6.355 -2.348,1.464 -6.557,2.091 -12.803,2.216 0.444,-2.72 0.887,-5.48 1.374,-8.24 z"
         i:knockout="Off"
         stroke-miterlimit="10"
         id="path104"
         inkscape:connector-curvature="0"
         style="stroke:#000000;stroke-width:0.036;stroke-miterlimit:10" />
      <path
         d="m 78.29,159.25 c 6.247,-0.92 10.676,-1.672 13.467,-1.923 2.702,-0.335 3.721,-0.335 3.057,0 2.524,3.052 2.791,5.269 0.31,6.982 -2.481,1.631 -7.354,2.593 -14.796,2.886 1.55,5.812 2.392,10.412 2.348,13.966 -0.133,3.555 -0.975,5.729 -2.703,7.025 -0.177,-1.965 -0.842,-6.69 -1.994,-14.635 -1.195,-7.986 -2.879,-18.733 -5.05,-32.741 2.88,5.812 4.785,10.203 5.714,13.339 0.932,3.12 0.755,4.67 -0.353,5.09 z"
         i:knockout="Off"
         stroke-miterlimit="10"
         id="path106"
         inkscape:connector-curvature="0"
         style="stroke:#000000;stroke-width:0.036;stroke-miterlimit:10" />
      <path
         d="m 81.657,195.17 c 5.271,-0.753 9.258,-1.339 12.448,-1.297 3.145,0 5.006,0.167 6.069,0.962 l 0.665,6.983 c -3.943,1.338 -7.132,2.133 -9.391,2.551 -2.348,0.335 -3.81,0.293 -4.385,-0.292 0,2.634 0.221,5.227 0.664,7.944 0.354,2.718 0.975,5.353 1.684,8.238 -2.126,-1.547 -3.809,-4.349 -5.05,-8.572 -1.243,-4.26 -2.306,-9.66 -2.705,-16.51 z"
         i:knockout="Off"
         stroke-miterlimit="10"
         id="path108"
         inkscape:connector-curvature="0"
         style="stroke:#000000;stroke-width:0.036;stroke-miterlimit:10" />
      <path
         d="m 91.093,222.81 c 4.873,-0.209 8.461,0.167 11.119,0.962 2.569,0.794 4.031,2.007 4.385,3.805 l -1.019,6.69 c -2.392,-1.087 -4.297,-1.672 -5.714,-1.923 -1.506,-0.251 -2.525,-0.042 -3.057,0.627 0.31,2.342 0.531,4.516 0.665,6.69 0.088,2.091 0.088,4.098 0,6.021 -1.461,-4.349 -2.746,-7.944 -3.677,-11.416 -1.063,-3.512 -1.905,-7.024 -2.348,-8.906 -0.533,-1.88 -0.533,-2.85 -0.356,-2.55 z"
         i:knockout="Off"
         stroke-miterlimit="10"
         id="path110"
         inkscape:connector-curvature="0"
         style="stroke:#000000;stroke-width:0.036;stroke-miterlimit:10" />
      <path
         d="m 63.14,154.48 c 3.057,7.36 4.74,14.133 5.05,20.322 0.267,6.189 -0.797,11.541 -3.366,16.517 l 1.684,6.69 c 4.296,2.049 6.822,5.394 7.752,10.496 0.93,5.018 0.089,11.332 -2.348,19.402 l 1.993,4.767 c 4.075,0.334 6.999,2.927 8.771,7.61 1.683,4.725 2.303,11.499 1.683,20.657 2.968,-5.102 4.651,-9.701 5.05,-13.966 0.31,-4.349 -1.152,-8.279 -3.012,-11.458 -1.861,-3.094 -4.563,-5.645 -8.107,-7.317 1.639,-5.06 2.481,-9.868 2.038,-14.593 -0.576,-4.851 -2.613,-10.538 -4.385,-13.673 -1.861,-3.22 -3.721,-4.976 -6.069,-5.436 1.24,-5.227 1.861,-10.244 2.038,-15.221 0.133,-5.017 -0.089,-10.537 -1.374,-14.635 -1.55,-4.18 -3.898,-7.57 -7.398,-10.16 z"
         i:knockout="Off"
         stroke-miterlimit="10"
         id="path112"
         inkscape:connector-curvature="0"
         style="stroke:#000000;stroke-width:0.036;stroke-miterlimit:10" />
      <path
         d="m 386.38,110.62 c -0.354,-2.175 -0.176,-3.722 0.355,-5.102 0.531,-1.338 1.197,-1.965 3.012,-2.844 1.728,-1.045 5.847,-3.888 7.397,-2.885 1.374,0.92 1.949,3.847 1.374,8.614 4.252,-3.136 8.106,-3.513 12.094,-1.296 3.81,2.299 7.575,7.025 11.118,14.635 -0.709,3.262 -1.55,4.474 -3.012,3.806 -1.55,-0.794 -2.437,-5.646 -5.404,-7.945 -2.923,-2.383 -6.956,-4.14 -12.094,-5.729 -1.24,2.342 -2.88,3.345 -5.405,3.178 -2.52,-0.25 -5.67,-1.67 -9.44,-4.43 z"
         i:knockout="Off"
         stroke-miterlimit="10"
         id="path114"
         inkscape:connector-curvature="0"
         style="stroke:#000000;stroke-width:0.036;stroke-miterlimit:10" />
      <path
         d="m 379.34,111.87 c -0.577,0.168 0.089,0.168 1.992,0 1.86,-0.251 4.828,-0.669 9.082,-1.254 0.974,-1.129 0.311,-1.715 -1.994,-1.589 -2.392,0.042 -6.379,0.669 -12.137,1.882 1.02,0.29 2.04,0.63 3.06,0.96 z"
         i:knockout="Off"
         stroke-miterlimit="10"
         id="path116"
         inkscape:connector-curvature="0"
         style="stroke:#000000;stroke-width:0.036;stroke-miterlimit:10" />
      <path
         d="m 73.816,286.86 c -5.095,-11.374 -9.524,-23.877 -13.466,-37.842 -4.12,-14.092 -8.285,-29.772 -10.1,-45.745 -1.728,-16.099 -1.152,-36.17 -0.311,-49.592 0.754,-13.589 4.43,-23.708 4.696,-30.524 0.088,-6.774 -3.013,-6.899 -3.677,-9.868 -0.752,-3.136 -1.107,-5.352 -0.354,-8.572 0.753,-3.345 2.26,-6.941 4.696,-11.123 -1.728,-1.212 -2.791,-1.63 -3.677,-1.254 -0.93,0.334 -0.532,1.714 -1.373,3.178 -0.931,1.296 -1.994,2.885 -3.677,4.767 l -14.131,1.255 c 2.17,0.334 4.297,0.92 6.379,1.296 2.215,0.251 4.873,0.292 6.069,1.254 0.797,0.92 -0.177,2.885 -0.354,4.767 -0.177,1.923 -0.399,3.889 -0.665,6.355 -3.854,0.167 -7.265,0.753 -9.746,1.923 -2.525,1.045 -3.81,2.091 -5.759,4.767 -2.082,2.551 -4.386,6.146 -6.733,10.788 v 6.021 c 2.083,-4.642 4.385,-8.029 7.088,-10.788 2.702,-2.844 5.803,-5.018 8.771,-5.395 2.791,-0.418 6.733,-0.334 8.062,3.471 1.152,3.763 -0.266,9.324 -0.664,19.401 -0.532,10.036 -2.348,27.096 -1.684,40.686 0.665,13.631 3.189,27.89 5.715,40.058 2.304,11.917 5.448,20.949 8.417,31.444 2.923,10.454 5.892,20.531 9.081,30.86 2.435,-0.53 4.916,-1.07 7.397,-1.62 z"
         i:knockout="Off"
         stroke-miterlimit="10"
         id="path118"
         inkscape:connector-curvature="0"
         style="stroke:#000000;stroke-width:0.036;stroke-miterlimit:10" />
      <path
         d="m 20.968,138.09 c -4.519,-0.836 -7.486,-0.042 -9.081,1.923 -1.639,1.966 -1.86,5.353 -0.665,10.161 -6.645,2.801 -10.233,6.774 -11.119,12.084 -0.797,5.31 1.108,11.666 6.069,19.402 1.329,-0.293 1.772,-1.464 1.329,-4.14 -0.709,-2.718 -4.74,-7.777 -4.385,-11.457 0.443,-3.638 2.524,-7.192 6.733,-10.496 -1.196,1.547 -0.797,2.927 1.019,4.139 1.816,1.129 5.183,2.091 10.1,2.886 -0.177,-3.764 -0.177,-7.108 0,-9.868 0,-2.802 0.621,-4.6 0.665,-6.983 -0.044,-2.46 -0.266,-5.01 -0.665,-7.64 z"
         i:knockout="Off"
         stroke-miterlimit="10"
         id="path120"
         inkscape:connector-curvature="0"
         style="stroke:#000000;stroke-width:0.036;stroke-miterlimit:10" />
      <path
         d="m 20.304,191.19 c -2.791,0.669 -4.651,1.882 -6.068,4.098 -1.374,2.174 -2.038,4.892 -1.994,8.614 -1.684,-0.084 -2.879,1.087 -3.411,3.178 -0.709,2.133 -1.285,6.272 0,9.534 1.196,3.094 3.677,6.105 7.442,9.199 1.329,6.063 1.772,10.788 1.684,14.635 -0.266,3.638 -1.285,4.892 -2.703,7.944 -1.461,3.094 -3.543,6.481 -6.068,10.496 -0.089,1.38 0.753,2.382 2.038,2.843 1.418,0.461 3.278,0.461 6.069,0 2.525,-3.135 4.474,-6.731 6.025,-10.787 1.461,-4.224 2.48,-8.572 3.056,-13.674 -1.107,-7.778 -1.949,-14.552 -2.702,-20.657 -0.709,-6.188 -1.329,-11.374 -1.684,-15.89 -0.532,-3.16 -1.108,-6.34 -1.684,-9.52 z"
         i:knockout="Off"
         stroke-miterlimit="10"
         id="path122"
         inkscape:connector-curvature="0"
         style="stroke:#000000;stroke-width:0.036;stroke-miterlimit:10" />
      <path
         d="m 143.19,251.57 c 0,-3.01 3.101,-5.979 6.069,-8.906 2.746,-2.844 7.929,-7.903 10.764,-7.945 2.658,-0.167 7.088,3.178 5.404,7.318 -1.949,4.056 -12.403,15.473 -16.168,17.145 -3.71,1.51 -6.19,-4.85 -6.06,-7.61 z"
         i:knockout="Off"
         stroke-miterlimit="10"
         id="path124"
         inkscape:connector-curvature="0"
         style="stroke:#000000;stroke-width:0.036;stroke-miterlimit:10" />
      <path
         d="m 111.2,282.73 c 0.044,-1.672 5.582,-1.924 8.417,-4.14 2.747,-2.383 6.246,-9.367 8.106,-9.199 1.86,0.208 3.943,7.193 2.658,10.453 -1.595,3.179 -8.195,7.611 -11.429,8.28 -3.33,0.29 -7.84,-3.76 -7.76,-5.39 z"
         i:knockout="Off"
         stroke-miterlimit="10"
         id="path126"
         inkscape:connector-curvature="0"
         style="stroke:#000000;stroke-width:0.036;stroke-miterlimit:10" />
    </g>
  </g>
  <metadata
     id="metadata131">
    <rdf:RDF>
      <cc:Work>
        <dc:format>image/svg+xml</dc:format>
        <dc:type
           rdf:resource="http://purl.org/dc/dcmitype/StillImage" />
        <cc:license
           rdf:resource="http://creativecommons.org/publicdomain/zero/1.0/" />
        <dc:publisher>
          <cc:Agent
             rdf:about="http://openclipart.org/">
            <dc:title>OpenClipart Library</dc:title>
          </cc:Agent>
        </dc:publisher>
        <dc:title>Baseball Glove</dc:title>
        <dc:date>2007-11-13T23:26:08</dc:date>
        <dc:description />
        <dc:source>https://openclipart.org/detail/8305/baseball-glove-by-gerald_g-8305</dc:source>
        <dc:creator>
          <cc:Agent>
            <dc:title>Gerald_G</dc:title>
          </cc:Agent>
        </dc:creator>
        <dc:subject>
          <rdf:Bag>
            <rdf:li>ball</rdf:li>
            <rdf:li>baseball</rdf:li>
            <rdf:li>colouring book</rdf:li>
            <rdf:li>glove</rdf:li>
            <rdf:li>sport</rdf:li>
          </rdf:Bag>
        </dc:subject>
      </cc:Work>
      <cc:License
         rdf:about="http://creativecommons.org/publicdomain/zero/1.0/">
        <cc:permits
           rdf:resource="http://creativecommons.org/ns#Reproduction" />
        <cc:permits
           rdf:resource="http://creativecommons.org/ns#Distribution" />
        <cc:permits
           rdf:resource="http://creativecommons.org/ns#DerivativeWorks" />
      </cc:License>
    </rdf:RDF>
  </metadata>
</svg>
