<?xml version="1.0" encoding="UTF-8" standalone="no"?>
<!-- Created with Inkscape (http://www.inkscape.org/) -->

<svg
   xmlns:dc="http://purl.org/dc/elements/1.1/"
   xmlns:cc="http://creativecommons.org/ns#"
   xmlns:rdf="http://www.w3.org/1999/02/22-rdf-syntax-ns#"
   xmlns:svg="http://www.w3.org/2000/svg"
   xmlns="http://www.w3.org/2000/svg"
   xmlns:sodipodi="http://sodipodi.sourceforge.net/DTD/sodipodi-0.dtd"
   xmlns:inkscape="http://www.inkscape.org/namespaces/inkscape"
   id="svg8502"
   sodipodi:docname="mitten.svg"
   viewBox="0 0 256 255.103"
   sodipodi:version="0.32"
   version="1.1"
   inkscape:version="0.92.4 (5da689c313, 2019-01-14)"
   width="256"
   height="255.10301">
  <title
     id="title818">Mitten</title>
  <defs
     id="defs11" />
  <sodipodi:namedview
     id="base"
     bordercolor="#666666"
     inkscape:pageshadow="2"
     inkscape:window-y="-8"
     pagecolor="#ffffff"
     inkscape:window-maximized="1"
     inkscape:window-width="1920"
     inkscape:zoom="0.49497474"
     inkscape:window-x="-8"
     showgrid="false"
     borderopacity="1.0"
     inkscape:current-layer="svg8502"
     inkscape:cx="81.902521"
     inkscape:cy="-374.45733"
     inkscape:window-height="1025"
     inkscape:pageopacity="0.0"
     inkscape:document-units="px"
     fit-margin-top="0"
     fit-margin-left="0"
     fit-margin-right="0"
     fit-margin-bottom="0" />
  <g
     id="g8486"
     transform="matrix(-1.7825259,0.42598203,0.42598203,1.7825259,2.2038455,-1610.9471)">
    <path
       id="path8476"
       inkscape:connector-curvature="0"
       sodipodi:nodetypes="ccscsccszzcscss"
       style="fill:#ff2525;fill-rule:evenodd;stroke:#000000;stroke-width:2.09419996pt;stroke-linecap:round;stroke-linejoin:round"
       d="m 225.85,948 c 1.16,-2.18 -1.71,-4.22 -4.23,-2.08 -1.59,-7.07 -4.16,-14.95 -6,-21.56 -1.53,-5.47 -4.85,-14.3 -5.8,-22.66 -0.32,-14.41 -2.67,-19.54 -7.33,-19 -20.75,2.41 -16.33,24.71 -11,41.25 -12.45,-13.81 -11.28,-17.66 -27.85,-26.63 -9.62,-11.13 -23.48,-21.48 -34.47,-21.12 -17.16,0.57 -35.777,5.43 -41.943,20.19 -6.035,14.45 -9.727,32.42 -0.547,49.43 9.053,16.78 23.38,23.78 37.98,24.26 17.34,7.81 16.24,8.02 34.86,9.92 12.24,1.24 23.77,15.23 36.16,14.23 -0.79,2.93 2.74,5.28 4.13,2.66 z" />
    <path
       id="path8484"
       inkscape:connector-curvature="0"
       sodipodi:nodetypes="ccccccccccccccccc"
       style="fill:#0053e8;fill-rule:evenodd;stroke:#000000;stroke-width:1px"
       d="m 157.92,892.84 -15.47,6.52 5.7,14.66 -18.73,10.58 6.92,13.85 -18.32,7.73 5.8,15.58 -5.4,4.78 c 8.39,5.33 19.62,9.23 27.79,10.69 l -8.65,-22.7 18.32,-8.35 -6.51,-15.47 19.95,-9.57 -6.51,-14.66 8.14,-3.56 c -3.16,-2.07 -5.1,-3.47 -7.99,-4.99 -2.09,-2.12 -2.9,-2.92 -5.04,-5.09 z" />
    <path
       id="path8478"
       inkscape:connector-curvature="0"
       sodipodi:nodetypes="cc"
       style="fill:none;stroke:#000000;stroke-width:2.09419996pt;stroke-linecap:round;stroke-linejoin:round"
       d="m 192.07,975.16 c -11.52,-14.92 -11.99,-28.4 -1.92,-43.46" />
    <path
       id="path8482"
       inkscape:connector-curvature="0"
       sodipodi:nodetypes="cccccccccccccccc"
       style="fill:#0bb800;fill-rule:evenodd;stroke:#000000;stroke-width:1px"
       d="m 145.97,882.93 -21.38,10.79 5.7,14.66 -18.73,10.59 6.93,13.84 -18.33,7.74 8.15,17.1 -7.74,3.26 c 7.06,5.83 19.41,8.82 28.1,10.17 l -9.37,-23.2 18.73,-7.33 -6.51,-15.48 19.13,-9.36 -6.51,-16.29 14.66,-6.1 c -4.28,-4.76 -8.55,-8.69 -12.83,-10.39 z" />
  </g>
  <metadata
     id="metadata10">
    <rdf:RDF>
      <cc:Work>
        <dc:format>image/svg+xml</dc:format>
        <dc:type
           rdf:resource="http://purl.org/dc/dcmitype/StillImage" />
        <cc:license
           rdf:resource="http://creativecommons.org/publicdomain/zero/1.0/" />
        <dc:publisher>
          <cc:Agent
             rdf:about="http://openclipart.org/">
            <dc:title>OpenClipart Library</dc:title>
          </cc:Agent>
        </dc:publisher>
        <dc:title>Mitten</dc:title>
        <dc:source>https://openclipart.org/detail/89929</dc:source>
      </cc:Work>
      <cc:License
         rdf:about="http://creativecommons.org/publicdomain/zero/1.0/">
        <cc:permits
           rdf:resource="http://creativecommons.org/ns#Reproduction" />
        <cc:permits
           rdf:resource="http://creativecommons.org/ns#Distribution" />
        <cc:permits
           rdf:resource="http://creativecommons.org/ns#DerivativeWorks" />
      </cc:License>
    </rdf:RDF>
  </metadata>
</svg>
